0, 0, Header, 0, 1, 384
1, 0, Start_track
1, 0, Title_t, "Sonata Op. 110--Alex Karpeyev   "
1, 0, Text_t, "2009 Piano-e-Competition audition round"
1, 0, Text_t, "captured January 2009"
1, 0, Text_t, "http://www.piano-e-competition.com/"
1, 0, Text_t, "File processed for distribution by software from Zenph Studios, Inc., http://www.zenph.com"
1, 0, Instrument_name_t, "Yamaha Disklavier Pro Mark IV concert grand piano, model DCFIIISM4PRO"
1, 0, Sequencer_specific, 39, 67, 113, 0, 1, 0, 1, 0, 83, 111, 110, 97, 116, 97, 32, 79, 112, 46, 32, 49, 49, 48, 32, 32, 65, 108, 101, 120, 32, 75, 97, 114, 112, 101, 121, 101, 118, 32, 32, 32
1, 0, Sequencer_specific, 6, 67, 113, 0, 0, 0, 69
1, 0, System_exclusive, 21, 67, 113, 126, 21, 0, 2, 2, 0, 3, 14, 1, 4, 1, 13, 13, 10, 11, 9, 2, 7, 247
1, 0, Sequencer_specific, 5, 67, 123, 12, 2, 1
1, 0, Tempo, 512820
1, 0, Time_signature, 4, 2, 24, 8
1, 0, System_exclusive, 5, 126, 127, 9, 1, 247
1, 1, System_exclusive, 8, 67, 16, 76, 0, 0, 126, 0, 247
1, 2, System_exclusive, 8, 67, 16, 76, 8, 9, 7, 1, 247
1, 3, Control_c, 0, 0, 0
1, 3, Control_c, 1, 0, 0
1, 3, Control_c, 2, 0, 0
1, 3, Control_c, 3, 0, 0
1, 3, Control_c, 4, 0, 0
1, 3, Control_c, 5, 0, 0
1, 3, Control_c, 6, 0, 0
1, 3, Control_c, 7, 0, 0
1, 3, Control_c, 8, 0, 0
1, 3, Control_c, 9, 0, 127
1, 3, Control_c, 10, 0, 0
1, 3, Control_c, 11, 0, 0
1, 3, Control_c, 12, 0, 0
1, 3, Control_c, 13, 0, 0
1, 3, Control_c, 14, 0, 0
1, 3, Control_c, 15, 0, 0
1, 4, Control_c, 0, 32, 0
1, 4, Control_c, 1, 32, 0
1, 4, Control_c, 2, 32, 0
1, 4, Control_c, 3, 32, 0
1, 4, Control_c, 4, 32, 0
1, 4, Control_c, 5, 32, 0
1, 4, Control_c, 6, 32, 0
1, 4, Control_c, 7, 32, 0
1, 4, Control_c, 8, 32, 0
1, 4, Control_c, 9, 32, 0
1, 4, Control_c, 10, 32, 0
1, 4, Control_c, 11, 32, 0
1, 4, Control_c, 12, 32, 0
1, 4, Control_c, 13, 32, 0
1, 4, Control_c, 14, 32, 0
1, 4, Control_c, 15, 32, 0
1, 5, Program_c, 0, 0
1, 5, Program_c, 1, 0
1, 5, Program_c, 2, 0
1, 5, Program_c, 3, 0
1, 5, Program_c, 4, 0
1, 5, Program_c, 5, 0
1, 5, Program_c, 6, 0
1, 5, Program_c, 7, 0
1, 5, Program_c, 8, 0
1, 5, Program_c, 9, 0
1, 5, Program_c, 10, 0
1, 5, Program_c, 11, 0
1, 5, Program_c, 12, 0
1, 5, Program_c, 13, 0
1, 5, Program_c, 14, 0
1, 5, Program_c, 15, 0
1, 6, Control_c, 0, 7, 100
1, 6, Control_c, 1, 7, 100
1, 6, Control_c, 2, 7, 100
1, 6, Control_c, 3, 7, 100
1, 6, Control_c, 4, 7, 100
1, 6, Control_c, 5, 7, 100
1, 6, Control_c, 6, 7, 100
1, 6, Control_c, 7, 7, 100
1, 6, Control_c, 8, 7, 100
1, 6, Control_c, 9, 7, 100
1, 6, Control_c, 10, 7, 100
1, 6, Control_c, 11, 7, 100
1, 6, Control_c, 12, 7, 100
1, 6, Control_c, 13, 7, 100
1, 6, Control_c, 14, 7, 100
1, 6, Control_c, 15, 7, 100
1, 117, Control_c, 0, 64, 15
1, 117, Control_c, 0, 67, 15
1, 229, Control_c, 0, 64, 31
1, 229, Control_c, 0, 67, 30
1, 341, Control_c, 0, 64, 46
1, 341, Control_c, 0, 67, 45
1, 452, Control_c, 0, 64, 63
1, 452, Control_c, 0, 67, 61
1, 564, Control_c, 0, 64, 77
1, 564, Control_c, 0, 67, 75
1, 676, Control_c, 0, 64, 94
1, 676, Control_c, 0, 67, 91
1, 787, Control_c, 0, 64, 108
1, 787, Control_c, 0, 67, 105
1, 899, Control_c, 0, 64, 127
1, 899, Control_c, 0, 67, 123
1, 1130, Note_on_c, 0, 72, 52
1, 1144, Note_on_c, 0, 51, 40
1, 1146, Note_on_c, 0, 68, 44
1, 1151, Note_on_c, 0, 44, 45
1, 1934, Control_c, 0, 67, 123
1, 1964, Control_c, 0, 67, 122
1, 1979, Control_c, 0, 67, 121
1, 1986, Note_off_c, 0, 51, 0
1, 1994, Control_c, 0, 67, 121
1, 1999, Note_off_c, 0, 68, 35
1, 2009, Control_c, 0, 67, 120
1, 2024, Control_c, 0, 67, 119
1, 2024, Poly_aftertouch_c, 0, 51, 127
1, 2157, Control_c, 0, 67, 120
1, 2230, Control_c, 0, 67, 120
1, 2326, Poly_aftertouch_c, 0, 51, 0
1, 2326, Control_c, 0, 67, 121
1, 2444, Control_c, 0, 67, 121
1, 2446, Note_off_c, 0, 44, 40
1, 2608, Control_c, 0, 67, 122
1, 2638, Control_c, 0, 67, 122
1, 2653, Control_c, 0, 67, 123
1, 2665, Note_on_c, 0, 68, 62
1, 2677, Note_on_c, 0, 51, 40
1, 2682, Note_on_c, 0, 63, 44
1, 2682, Control_c, 0, 64, 122
1, 2682, Control_c, 0, 67, 123
1, 2685, Note_on_c, 0, 48, 46
1, 2697, Control_c, 0, 64, 89
1, 2697, Control_c, 0, 67, 124
1, 2712, Note_off_c, 0, 72, 56
1, 2712, Control_c, 0, 64, 73
1, 2712, Control_c, 0, 67, 125
1, 2727, Control_c, 0, 64, 61
1, 2742, Control_c, 0, 64, 51
1, 2757, Control_c, 0, 64, 45
1, 2772, Control_c, 0, 64, 46
1, 2787, Control_c, 0, 64, 51
1, 2787, Control_c, 0, 67, 124
1, 2801, Control_c, 0, 64, 61
1, 2816, Control_c, 0, 64, 72
1, 2831, Control_c, 0, 64, 85
1, 2831, Control_c, 0, 67, 124
1, 2846, Control_c, 0, 64, 106
1, 2860, Control_c, 0, 64, 127
1, 2875, Control_c, 0, 67, 124
1, 2889, Note_off_c, 0, 68, 55
1, 2899, Note_off_c, 0, 63, 43
1, 2915, Note_off_c, 0, 51, 32
1, 2927, Note_off_c, 0, 48, 31
1, 3060, Control_c, 0, 67, 125
1, 3061, Note_on_c, 0, 68, 63
1, 3075, Control_c, 0, 67, 125
1, 3076, Note_on_c, 0, 63, 54
1, 3081, Note_on_c, 0, 48, 47
1, 3085, Note_on_c, 0, 51, 36
1, 3090, Control_c, 0, 67, 126
1, 3105, Control_c, 0, 64, 99
1, 3105, Control_c, 0, 67, 126
1, 3120, Control_c, 0, 64, 78
1, 3134, Control_c, 0, 64, 64
1, 3149, Control_c, 0, 64, 51
1, 3164, Control_c, 0, 64, 35
1, 3178, Control_c, 0, 64, 27
1, 3193, Control_c, 0, 64, 28
1, 3193, Control_c, 0, 67, 126
1, 3208, Control_c, 0, 64, 36
1, 3223, Control_c, 0, 64, 55
1, 3238, Control_c, 0, 64, 66
1, 3238, Control_c, 0, 67, 125
1, 3254, Control_c, 0, 64, 77
1, 3269, Control_c, 0, 64, 89
1, 3283, Control_c, 0, 64, 102
1, 3283, Control_c, 0, 67, 125
1, 3298, Control_c, 0, 64, 108
1, 3313, Control_c, 0, 64, 118
1, 3328, Control_c, 0, 64, 127
1, 3328, Control_c, 0, 67, 124
1, 3451, Note_off_c, 0, 68, 52
1, 3461, Control_c, 0, 67, 125
1, 3499, Note_off_c, 0, 48, 33
1, 3516, Note_off_c, 0, 63, 36
1, 3553, Note_off_c, 0, 51, 29
1, 3678, Note_on_c, 0, 68, 69
1, 3693, Note_on_c, 0, 63, 52
1, 3694, Note_on_c, 0, 51, 47
1, 3700, Note_on_c, 0, 48, 47
1, 3728, Control_c, 0, 67, 125
1, 3747, Note_off_c, 0, 51, 58
1, 3758, Control_c, 0, 67, 126
1, 3767, Note_off_c, 0, 63, 49
1, 3872, Note_off_c, 0, 48, 40
1, 3883, Note_off_c, 0, 68, 61
1, 3884, Control_c, 0, 64, 105
1, 3884, Control_c, 0, 67, 126
1, 3884, Note_on_c, 0, 73, 70
1, 3899, Note_on_c, 0, 51, 43
1, 3899, Control_c, 0, 64, 91
1, 3908, Note_on_c, 0, 67, 53
1, 3911, Note_on_c, 0, 46, 47
1, 3914, Control_c, 0, 64, 80
1, 3928, Control_c, 0, 64, 69
1, 3943, Control_c, 0, 64, 62
1, 3958, Control_c, 0, 64, 55
1, 3958, Control_c, 0, 67, 127
1, 3973, Control_c, 0, 64, 48
1, 3988, Control_c, 0, 64, 40
1, 3988, Control_c, 0, 67, 127
1, 4003, Control_c, 0, 64, 30
1, 4017, Control_c, 0, 64, 12
1, 4032, Control_c, 0, 64, 0
1, 4285, Control_c, 0, 64, 31
1, 4299, Control_c, 0, 64, 50
1, 4314, Control_c, 0, 64, 60
1, 4329, Control_c, 0, 64, 64
1, 4344, Control_c, 0, 64, 66
1, 4359, Control_c, 0, 64, 68
1, 4373, Control_c, 0, 64, 71
1, 4388, Control_c, 0, 64, 75
1, 4403, Control_c, 0, 64, 78
1, 4403, Control_c, 0, 67, 127
1, 4418, Control_c, 0, 64, 83
1, 4432, Control_c, 0, 64, 87
1, 4432, Control_c, 0, 67, 127
1, 4447, Control_c, 0, 64, 90
1, 4462, Control_c, 0, 64, 93
1, 4477, Control_c, 0, 64, 95
1, 4492, Control_c, 0, 64, 98
1, 4507, Control_c, 0, 64, 101
1, 4520, Note_off_c, 0, 67, 35
1, 4522, Control_c, 0, 64, 102
1, 4533, Note_off_c, 0, 51, 42
1, 4544, Control_c, 0, 64, 103
1, 4811, Note_off_c, 0, 46, 30
1, 4885, Control_c, 0, 64, 102
1, 4891, Note_on_c, 0, 70, 56
1, 4900, Control_c, 0, 64, 100
1, 4906, Note_on_c, 0, 67, 31
1, 4909, Note_on_c, 0, 51, 22
1, 4915, Control_c, 0, 64, 98
1, 4921, Note_on_c, 0, 49, 39
1, 4930, Control_c, 0, 64, 94
1, 4945, Control_c, 0, 64, 91
1, 4960, Control_c, 0, 64, 86
1, 4962, Note_off_c, 0, 73, 53
1, 4975, Control_c, 0, 64, 78
1, 4990, Control_c, 0, 64, 72
1, 5004, Control_c, 0, 64, 66
1, 5019, Control_c, 0, 64, 62
1, 5034, Control_c, 0, 64, 58
1, 5048, Control_c, 0, 64, 55
1, 5063, Control_c, 0, 64, 50
1, 5078, Control_c, 0, 64, 44
1, 5093, Control_c, 0, 64, 35
1, 5108, Control_c, 0, 64, 23
1, 5122, Control_c, 0, 64, 0
1, 5352, Control_c, 0, 67, 127
1, 5367, Control_c, 0, 67, 126
1, 5381, Control_c, 0, 67, 125
1, 5396, Control_c, 0, 67, 124
1, 5411, Control_c, 0, 67, 123
1, 5426, Control_c, 0, 67, 122
1, 5441, Control_c, 0, 64, 19
1, 5441, Control_c, 0, 67, 121
1, 5455, Control_c, 0, 64, 30
1, 5455, Control_c, 0, 67, 120
1, 5470, Control_c, 0, 64, 39
1, 5470, Control_c, 0, 67, 119
1, 5485, Control_c, 0, 64, 45
1, 5485, Control_c, 0, 67, 118
1, 5500, Control_c, 0, 64, 51
1, 5500, Control_c, 0, 67, 118
1, 5515, Control_c, 0, 64, 56
1, 5515, Control_c, 0, 67, 117
1, 5529, Control_c, 0, 64, 60
1, 5529, Control_c, 0, 67, 116
1, 5544, Control_c, 0, 64, 62
1, 5544, Control_c, 0, 67, 115
1, 5559, Control_c, 0, 64, 64
1, 5559, Control_c, 0, 67, 114
1, 5574, Control_c, 0, 64, 67
1, 5574, Control_c, 0, 67, 113
1, 5589, Control_c, 0, 64, 70
1, 5589, Control_c, 0, 67, 113
1, 5604, Control_c, 0, 64, 75
1, 5604, Control_c, 0, 67, 112
1, 5619, Control_c, 0, 64, 81
1, 5619, Control_c, 0, 67, 111
1, 5634, Control_c, 0, 64, 88
1, 5634, Control_c, 0, 67, 110
1, 5649, Control_c, 0, 64, 95
1, 5649, Control_c, 0, 67, 108
1, 5664, Control_c, 0, 64, 104
1, 5664, Control_c, 0, 67, 106
1, 5678, Control_c, 0, 64, 124
1, 5678, Control_c, 0, 67, 104
1, 5693, Control_c, 0, 64, 127
1, 5693, Control_c, 0, 67, 102
1, 5708, Control_c, 0, 67, 99
1, 5723, Control_c, 0, 67, 95
1, 5738, Control_c, 0, 67, 91
1, 5753, Control_c, 0, 67, 88
1, 5768, Control_c, 0, 67, 87
1, 5797, Control_c, 0, 67, 88
1, 5812, Control_c, 0, 67, 91
1, 5827, Control_c, 0, 67, 93
1, 5842, Control_c, 0, 67, 94
1, 5857, Control_c, 0, 67, 96
1, 5871, Control_c, 0, 67, 98
1, 5872, Note_off_c, 0, 67, 41
1, 5886, Note_off_c, 0, 51, 37
1, 5886, Control_c, 0, 67, 99
1, 5901, Control_c, 0, 67, 100
1, 5916, Control_c, 0, 67, 101
1, 5931, Control_c, 0, 67, 102
1, 5945, Control_c, 0, 67, 103
1, 5960, Control_c, 0, 67, 105
1, 5975, Control_c, 0, 67, 107
1, 5985, Note_off_c, 0, 49, 41
1, 5989, Control_c, 0, 67, 108
1, 6003, Control_c, 0, 67, 109
1, 6026, Control_c, 0, 67, 110
1, 6041, Control_c, 0, 67, 111
1, 6056, Control_c, 0, 67, 112
1, 6071, Control_c, 0, 67, 112
1, 6085, Control_c, 0, 67, 113
1, 6100, Control_c, 0, 67, 114
1, 6115, Control_c, 0, 67, 115
1, 6130, Control_c, 0, 67, 115
1, 6159, Control_c, 0, 67, 116
1, 6174, Control_c, 0, 67, 117
1, 6189, Control_c, 0, 67, 118
1, 6218, Control_c, 0, 67, 118
1, 6233, Control_c, 0, 67, 119
1, 6248, Control_c, 0, 67, 120
1, 6263, Control_c, 0, 67, 121
1, 6292, Control_c, 0, 67, 121
1, 6322, Control_c, 0, 67, 122
1, 6352, Control_c, 0, 67, 122
1, 6367, Control_c, 0, 67, 123
1, 6382, Control_c, 0, 67, 123
1, 6396, Control_c, 0, 67, 124
1, 6456, Control_c, 0, 67, 124
1, 6486, Control_c, 0, 67, 125
1, 6501, Control_c, 0, 67, 126
1, 6531, Control_c, 0, 67, 126
1, 6561, Control_c, 0, 67, 127
1, 6575, Control_c, 0, 67, 127
1, 6710, Note_on_c, 0, 75, 66
1, 6737, Note_on_c, 0, 48, 48
1, 6742, Note_on_c, 0, 68, 42
1, 6758, Note_on_c, 0, 51, 36
1, 6766, Note_off_c, 0, 70, 31
1, 6767, Control_c, 0, 64, 104
1, 6789, Control_c, 0, 64, 93
1, 6804, Control_c, 0, 64, 84
1, 6819, Control_c, 0, 64, 76
1, 6833, Control_c, 0, 64, 69
1, 6848, Control_c, 0, 64, 64
1, 6863, Control_c, 0, 64, 59
1, 6878, Control_c, 0, 64, 53
1, 6893, Control_c, 0, 64, 48
1, 6907, Control_c, 0, 64, 42
1, 6922, Control_c, 0, 64, 34
1, 6937, Control_c, 0, 64, 21
1, 6952, Control_c, 0, 64, 0
1, 7055, Control_c, 0, 64, 27
1, 7070, Control_c, 0, 64, 49
1, 7085, Control_c, 0, 64, 61
1, 7100, Control_c, 0, 64, 65
1, 7115, Control_c, 0, 64, 66
1, 7130, Control_c, 0, 64, 67
1, 7145, Control_c, 0, 64, 68
1, 7160, Control_c, 0, 64, 70
1, 7174, Control_c, 0, 64, 71
1, 7189, Control_c, 0, 64, 72
1, 7204, Control_c, 0, 64, 72
1, 7231, Note_on_c, 0, 56, 58
1, 7249, Control_c, 0, 64, 73
1, 7279, Control_c, 0, 64, 72
1, 7294, Control_c, 0, 64, 71
1, 7309, Control_c, 0, 64, 67
1, 7323, Control_c, 0, 64, 60
1, 7335, Note_off_c, 0, 51, 58
1, 7338, Control_c, 0, 64, 46
1, 7353, Control_c, 0, 64, 30
1, 7368, Control_c, 0, 64, 18
1, 7383, Control_c, 0, 64, 19
1, 7397, Control_c, 0, 64, 31
1, 7412, Control_c, 0, 64, 48
1, 7427, Control_c, 0, 64, 62
1, 7441, Control_c, 0, 64, 70
1, 7456, Control_c, 0, 64, 74
1, 7471, Control_c, 0, 64, 78
1, 7487, Control_c, 0, 64, 81
1, 7502, Control_c, 0, 64, 85
1, 7523, Control_c, 0, 64, 90
1, 7538, Control_c, 0, 64, 95
1, 7553, Control_c, 0, 64, 101
1, 7568, Control_c, 0, 64, 106
1, 7583, Control_c, 0, 64, 110
1, 7598, Control_c, 0, 64, 115
1, 7613, Control_c, 0, 64, 124
1, 7628, Control_c, 0, 64, 127
1, 7649, Note_on_c, 0, 60, 65
1, 7657, Control_c, 0, 64, 115
1, 7660, Note_off_c, 0, 56, 55
1, 7672, Control_c, 0, 64, 92
1, 7687, Control_c, 0, 64, 75
1, 7702, Control_c, 0, 64, 63
1, 7717, Control_c, 0, 64, 51
1, 7731, Control_c, 0, 64, 48
1, 7744, Note_off_c, 0, 68, 43
1, 7746, Control_c, 0, 64, 55
1, 7761, Control_c, 0, 64, 64
1, 7775, Control_c, 0, 64, 73
1, 7790, Control_c, 0, 64, 87
1, 7805, Control_c, 0, 64, 111
1, 7820, Note_off_c, 0, 48, 50
1, 7820, Control_c, 0, 64, 127
1, 7905, Note_off_c, 0, 60, 58
1, 8039, Note_on_c, 0, 73, 75
1, 8050, Note_on_c, 0, 58, 58
1, 8058, Control_c, 0, 64, 105
1, 8064, Note_on_c, 0, 68, 50
1, 8071, Note_on_c, 0, 53, 51
1, 8072, Control_c, 0, 64, 83
1, 8082, Note_off_c, 0, 75, 64
1, 8087, Control_c, 0, 64, 67
1, 8102, Control_c, 0, 64, 55
1, 8117, Control_c, 0, 64, 38
1, 8132, Control_c, 0, 64, 22
1, 8146, Control_c, 0, 64, 0
1, 8176, Control_c, 0, 64, 16
1, 8191, Control_c, 0, 64, 39
1, 8206, Control_c, 0, 64, 59
1, 8221, Control_c, 0, 64, 70
1, 8222, Note_off_c, 0, 68, 52
1, 8236, Control_c, 0, 64, 81
1, 8250, Control_c, 0, 64, 98
1, 8272, Control_c, 0, 64, 110
1, 8287, Control_c, 0, 64, 127
1, 8294, Note_off_c, 0, 58, 61
1, 8319, Note_off_c, 0, 53, 57
1, 8322, Note_off_c, 0, 73, 63
1, 8446, Note_on_c, 0, 75, 75
1, 8450, Control_c, 0, 64, 111
1, 8453, Note_on_c, 0, 60, 55
1, 8465, Control_c, 0, 64, 82
1, 8473, Note_on_c, 0, 68, 50
1, 8479, Control_c, 0, 64, 65
1, 8482, Note_on_c, 0, 51, 43
1, 8494, Control_c, 0, 64, 48
1, 8509, Control_c, 0, 64, 17
1, 8524, Control_c, 0, 64, 0
1, 8531, Note_off_c, 0, 68, 0
1, 8568, Poly_aftertouch_c, 0, 68, 127
1, 8597, Control_c, 0, 64, 22
1, 8612, Control_c, 0, 64, 51
1, 8627, Control_c, 0, 64, 65
1, 8641, Poly_aftertouch_c, 0, 68, 0
1, 8642, Control_c, 0, 64, 73
1, 8657, Control_c, 0, 64, 83
1, 8659, Note_off_c, 0, 60, 56
1, 8671, Control_c, 0, 64, 91
1, 8686, Control_c, 0, 64, 97
1, 8701, Control_c, 0, 64, 105
1, 8706, Note_off_c, 0, 75, 61
1, 8716, Control_c, 0, 64, 120
1, 8731, Control_c, 0, 64, 127
1, 8740, Note_off_c, 0, 51, 47
1, 8910, Control_c, 0, 64, 113
1, 8924, Control_c, 0, 64, 92
1, 8939, Control_c, 0, 64, 77
1, 8943, Note_on_c, 0, 77, 72
1, 8954, Control_c, 0, 64, 64
1, 8969, Control_c, 0, 64, 52
1, 8975, Note_on_c, 0, 68, 38
1, 8981, Note_on_c, 0, 61, 43
1, 8983, Note_on_c, 0, 49, 42
1, 8984, Control_c, 0, 64, 39
1, 8999, Control_c, 0, 64, 27
1, 9020, Control_c, 0, 64, 0
1, 9051, Note_off_c, 0, 68, 0
1, 9051, Note_on_c, 0, 68, 19
1, 9154, Control_c, 0, 64, 41
1, 9169, Control_c, 0, 64, 59
1, 9184, Control_c, 0, 64, 66
1, 9199, Control_c, 0, 64, 70
1, 9214, Control_c, 0, 64, 76
1, 9222, Note_off_c, 0, 61, 50
1, 9226, Note_off_c, 0, 68, 40
1, 9228, Control_c, 0, 64, 82
1, 9243, Control_c, 0, 64, 90
1, 9258, Control_c, 0, 64, 99
1, 9273, Control_c, 0, 64, 107
1, 9276, Note_off_c, 0, 49, 51
1, 9288, Control_c, 0, 64, 118
1, 9290, Note_off_c, 0, 77, 60
1, 9302, Control_c, 0, 64, 127
1, 9524, Control_c, 0, 64, 109
1, 9539, Control_c, 0, 64, 96
1, 9547, Note_on_c, 0, 75, 60
1, 9554, Control_c, 0, 64, 83
1, 9568, Note_on_c, 0, 58, 37
1, 9568, Control_c, 0, 64, 74
1, 9571, Note_on_c, 0, 67, 39
1, 9576, Note_on_c, 0, 51, 37
1, 9583, Control_c, 0, 64, 66
1, 9598, Control_c, 0, 64, 59
1, 9613, Control_c, 0, 64, 52
1, 9628, Note_off_c, 0, 67, 0
1, 9628, Note_on_c, 0, 67, 4
1, 9628, Control_c, 0, 64, 44
1, 9643, Control_c, 0, 64, 35
1, 9658, Control_c, 0, 64, 15
1, 9673, Control_c, 0, 64, 0
1, 9717, Control_c, 0, 67, 126
1, 9732, Control_c, 0, 67, 123
1, 9747, Control_c, 0, 67, 120
1, 9770, Control_c, 0, 67, 118
1, 9785, Control_c, 0, 67, 115
1, 9799, Control_c, 0, 67, 112
1, 9814, Control_c, 0, 67, 109
1, 9829, Control_c, 0, 64, 11
1, 9829, Control_c, 0, 67, 105
1, 9843, Control_c, 0, 64, 27
1, 9843, Control_c, 0, 67, 100
1, 9858, Control_c, 0, 64, 43
1, 9858, Control_c, 0, 67, 95
1, 9873, Control_c, 0, 64, 54
1, 9873, Control_c, 0, 67, 88
1, 9888, Control_c, 0, 64, 60
1, 9888, Control_c, 0, 67, 80
1, 9903, Control_c, 0, 64, 62
1, 9903, Control_c, 0, 67, 69
1, 9917, Control_c, 0, 64, 64
1, 9917, Control_c, 0, 67, 58
1, 9932, Control_c, 0, 64, 66
1, 9932, Control_c, 0, 67, 48
1, 9947, Control_c, 0, 64, 69
1, 9947, Control_c, 0, 67, 39
1, 9962, Control_c, 0, 64, 75
1, 9962, Control_c, 0, 67, 33
1, 9977, Control_c, 0, 64, 81
1, 9977, Control_c, 0, 67, 30
1, 9992, Control_c, 0, 64, 86
1, 10007, Control_c, 0, 64, 89
1, 10007, Control_c, 0, 67, 32
1, 10021, Control_c, 0, 64, 93
1, 10021, Control_c, 0, 67, 37
1, 10024, Note_off_c, 0, 58, 40
1, 10036, Control_c, 0, 64, 98
1, 10036, Control_c, 0, 67, 40
1, 10051, Control_c, 0, 64, 107
1, 10051, Control_c, 0, 67, 42
1, 10066, Control_c, 0, 64, 119
1, 10066, Control_c, 0, 67, 45
1, 10077, Note_off_c, 0, 51, 36
1, 10081, Control_c, 0, 64, 127
1, 10081, Control_c, 0, 67, 51
1, 10096, Control_c, 0, 67, 63
1, 10111, Control_c, 0, 67, 75
1, 10125, Control_c, 0, 67, 86
1, 10140, Control_c, 0, 67, 96
1, 10155, Control_c, 0, 67, 101
1, 10169, Control_c, 0, 67, 104
1, 10184, Control_c, 0, 67, 106
1, 10199, Control_c, 0, 67, 108
1, 10214, Control_c, 0, 67, 110
1, 10229, Control_c, 0, 67, 112
1, 10243, Control_c, 0, 67, 114
1, 10258, Control_c, 0, 67, 115
1, 10273, Control_c, 0, 67, 116
1, 10288, Control_c, 0, 67, 117
1, 10303, Control_c, 0, 67, 118
1, 10317, Control_c, 0, 67, 119
1, 10332, Control_c, 0, 67, 120
1, 10347, Control_c, 0, 67, 121
1, 10361, Note_on_c, 0, 74, 49
1, 10362, Control_c, 0, 67, 121
1, 10376, Control_c, 0, 67, 122
1, 10391, Control_c, 0, 67, 123
1, 10393, Note_off_c, 0, 75, 59
1, 10406, Control_c, 0, 67, 123
1, 10421, Control_c, 0, 67, 124
1, 10452, Control_c, 0, 67, 124
1, 10455, Note_off_c, 0, 74, 60
1, 10463, Note_off_c, 0, 67, 42
1, 10482, Control_c, 0, 67, 125
1, 10497, Control_c, 0, 67, 125
1, 10519, Control_c, 0, 67, 126
1, 10534, Control_c, 0, 67, 127
1, 10549, Control_c, 0, 67, 127
1, 10609, Control_c, 0, 64, 110
1, 10623, Control_c, 0, 64, 98
1, 10638, Control_c, 0, 64, 89
1, 10642, Note_on_c, 0, 73, 51
1, 10653, Control_c, 0, 64, 79
1, 10660, Note_on_c, 0, 67, 34
1, 10667, Control_c, 0, 64, 69
1, 10671, Note_on_c, 0, 58, 35
1, 10674, Note_on_c, 0, 51, 37
1, 10682, Control_c, 0, 64, 61
1, 10697, Control_c, 0, 64, 48
1, 10712, Control_c, 0, 64, 32
1, 10727, Control_c, 0, 64, 12
1, 10741, Control_c, 0, 64, 0
1, 10786, Control_c, 0, 64, 33
1, 10801, Control_c, 0, 64, 53
1, 10815, Control_c, 0, 64, 64
1, 10830, Control_c, 0, 64, 69
1, 10842, Note_off_c, 0, 73, 61
1, 10845, Control_c, 0, 64, 71
1, 10859, Note_on_c, 0, 75, 52
1, 10860, Control_c, 0, 64, 73
1, 10874, Control_c, 0, 64, 74
1, 10889, Control_c, 0, 64, 76
1, 10904, Control_c, 0, 64, 78
1, 10919, Control_c, 0, 64, 80
1, 10925, Note_off_c, 0, 67, 42
1, 10934, Control_c, 0, 64, 81
1, 10940, Note_off_c, 0, 75, 63
1, 10948, Control_c, 0, 64, 81
1, 10977, Note_on_c, 0, 73, 49
1, 11039, Note_off_c, 0, 73, 59
1, 11071, Note_on_c, 0, 75, 55
1, 11118, Note_off_c, 0, 75, 60
1, 11158, Note_on_c, 0, 73, 49
1, 11194, Note_off_c, 0, 73, 61
1, 11223, Note_on_c, 0, 75, 55
1, 11246, Control_c, 0, 64, 81
1, 11273, Note_off_c, 0, 75, 63
1, 11297, Note_on_c, 0, 73, 55
1, 11342, Note_off_c, 0, 73, 61
1, 11368, Note_on_c, 0, 75, 60
1, 11411, Note_off_c, 0, 75, 60
1, 11416, Control_c, 0, 64, 80
1, 11449, Note_on_c, 0, 73, 50
1, 11474, Note_off_c, 0, 73, 60
1, 11494, Note_on_c, 0, 75, 61
1, 11532, Note_off_c, 0, 75, 61
1, 11550, Control_c, 0, 64, 80
1, 11557, Note_on_c, 0, 73, 53
1, 11593, Note_off_c, 0, 73, 64
1, 11618, Note_on_c, 0, 75, 64
1, 11653, Note_off_c, 0, 75, 66
1, 11668, Control_c, 0, 64, 79
1, 11678, Note_on_c, 0, 73, 55
1, 11704, Note_off_c, 0, 73, 61
1, 11729, Note_on_c, 0, 75, 62
1, 11761, Note_off_c, 0, 75, 65
1, 11786, Note_on_c, 0, 73, 58
1, 11819, Note_off_c, 0, 73, 65
1, 11840, Note_on_c, 0, 75, 65
1, 11875, Note_off_c, 0, 75, 64
1, 11895, Note_on_c, 0, 73, 58
1, 11905, Control_c, 0, 64, 79
1, 11930, Note_off_c, 0, 73, 65
1, 11953, Note_on_c, 0, 75, 66
1, 11989, Note_off_c, 0, 75, 61
1, 12016, Note_on_c, 0, 73, 59
1, 12053, Note_off_c, 0, 73, 65
1, 12075, Note_on_c, 0, 75, 66
1, 12091, Control_c, 0, 67, 127
1, 12106, Control_c, 0, 67, 126
1, 12111, Note_off_c, 0, 75, 64
1, 12120, Control_c, 0, 67, 126
1, 12135, Note_on_c, 0, 73, 59
1, 12135, Control_c, 0, 67, 125
1, 12150, Control_c, 0, 67, 125
1, 12158, Note_off_c, 0, 73, 63
1, 12165, Control_c, 0, 67, 124
1, 12175, Note_on_c, 0, 75, 73
1, 12215, Note_off_c, 0, 75, 60
1, 12232, Note_on_c, 0, 73, 68
1, 12260, Note_off_c, 0, 73, 66
1, 12296, Note_on_c, 0, 75, 67
1, 12335, Note_off_c, 0, 75, 64
1, 12343, Note_on_c, 0, 73, 67
1, 12373, Control_c, 0, 64, 78
1, 12373, Control_c, 0, 67, 123
1, 12387, Control_c, 0, 64, 76
1, 12387, Control_c, 0, 67, 123
1, 12402, Control_c, 0, 64, 74
1, 12402, Control_c, 0, 67, 122
1, 12415, Note_off_c, 0, 73, 63
1, 12417, Control_c, 0, 64, 70
1, 12432, Control_c, 0, 64, 66
1, 12439, Note_on_c, 0, 72, 69
1, 12446, Control_c, 0, 64, 61
1, 12446, Control_c, 0, 67, 122
1, 12461, Control_c, 0, 64, 56
1, 12476, Control_c, 0, 64, 55
1, 12491, Control_c, 0, 64, 58
1, 12491, Control_c, 0, 67, 123
1, 12506, Control_c, 0, 64, 61
1, 12506, Control_c, 0, 67, 123
1, 12520, Control_c, 0, 64, 64
1, 12520, Control_c, 0, 67, 124
1, 12535, Control_c, 0, 64, 66
1, 12535, Control_c, 0, 67, 124
1, 12540, Note_on_c, 0, 73, 68
1, 12542, Note_off_c, 0, 72, 61
1, 12550, Control_c, 0, 64, 67
1, 12550, Control_c, 0, 67, 125
1, 12564, Control_c, 0, 64, 66
1, 12564, Control_c, 0, 67, 126
1, 12579, Control_c, 0, 64, 64
1, 12579, Control_c, 0, 67, 126
1, 12594, Control_c, 0, 64, 61
1, 12594, Control_c, 0, 67, 127
1, 12602, Note_off_c, 0, 73, 64
1, 12609, Control_c, 0, 64, 58
1, 12609, Control_c, 0, 67, 127
1, 12616, Note_on_c, 0, 75, 71
1, 12624, Control_c, 0, 64, 55
1, 12639, Control_c, 0, 64, 50
1, 12654, Control_c, 0, 64, 43
1, 12668, Control_c, 0, 64, 37
1, 12683, Control_c, 0, 64, 37
1, 12698, Control_c, 0, 64, 42
1, 12700, Note_off_c, 0, 75, 63
1, 12704, Note_on_c, 0, 73, 71
1, 12713, Control_c, 0, 64, 51
1, 12728, Control_c, 0, 64, 59
1, 12742, Control_c, 0, 64, 63
1, 12764, Control_c, 0, 64, 64
1, 12764, Control_c, 0, 67, 126
1, 12779, Control_c, 0, 67, 124
1, 12785, Note_off_c, 0, 58, 40
1, 12794, Control_c, 0, 67, 121
1, 12809, Control_c, 0, 67, 118
1, 12821, Note_on_c, 0, 75, 72
1, 12823, Note_off_c, 0, 73, 62
1, 12823, Control_c, 0, 64, 63
1, 12823, Control_c, 0, 67, 114
1, 12824, Note_off_c, 0, 51, 42
1, 12839, Control_c, 0, 67, 111
1, 12854, Control_c, 0, 67, 107
1, 12868, Control_c, 0, 67, 101
1, 12883, Control_c, 0, 64, 63
1, 12883, Control_c, 0, 67, 96
1, 12898, Control_c, 0, 64, 62
1, 12898, Control_c, 0, 67, 89
1, 12913, Control_c, 0, 64, 62
1, 12913, Control_c, 0, 67, 81
1, 12928, Control_c, 0, 67, 73
1, 12943, Note_off_c, 0, 75, 66
1, 12943, Control_c, 0, 64, 61
1, 12943, Control_c, 0, 67, 64
1, 12958, Control_c, 0, 64, 61
1, 12958, Control_c, 0, 67, 56
1, 12959, Note_on_c, 0, 77, 67
1, 12973, Control_c, 0, 64, 59
1, 12973, Control_c, 0, 67, 47
1, 12987, Control_c, 0, 64, 57
1, 12987, Control_c, 0, 67, 41
1, 13002, Control_c, 0, 64, 56
1, 13002, Control_c, 0, 67, 35
1, 13017, Control_c, 0, 64, 55
1, 13017, Control_c, 0, 67, 33
1, 13032, Control_c, 0, 64, 53
1, 13047, Control_c, 0, 64, 50
1, 13047, Control_c, 0, 67, 34
1, 13062, Control_c, 0, 64, 45
1, 13062, Control_c, 0, 67, 38
1, 13076, Control_c, 0, 64, 35
1, 13076, Control_c, 0, 67, 41
1, 13091, Control_c, 0, 64, 25
1, 13091, Control_c, 0, 67, 44
1, 13106, Control_c, 0, 64, 11
1, 13106, Control_c, 0, 67, 46
1, 13121, Control_c, 0, 64, 0
1, 13121, Control_c, 0, 67, 49
1, 13135, Control_c, 0, 67, 55
1, 13150, Control_c, 0, 67, 65
1, 13165, Control_c, 0, 67, 75
1, 13180, Control_c, 0, 67, 84
1, 13194, Control_c, 0, 67, 90
1, 13209, Control_c, 0, 67, 93
1, 13224, Control_c, 0, 67, 94
1, 13254, Control_c, 0, 67, 95
1, 13268, Control_c, 0, 67, 95
1, 13283, Control_c, 0, 67, 97
1, 13298, Control_c, 0, 67, 98
1, 13313, Control_c, 0, 67, 99
1, 13328, Control_c, 0, 67, 100
1, 13342, Control_c, 0, 67, 102
1, 13357, Control_c, 0, 67, 103
1, 13402, Control_c, 0, 67, 104
1, 13417, Control_c, 0, 67, 104
1, 13429, Note_on_c, 0, 75, 59
1, 13432, Control_c, 0, 67, 106
1, 13446, Control_c, 0, 67, 108
1, 13461, Control_c, 0, 67, 109
1, 13476, Control_c, 0, 67, 110
1, 13489, Note_off_c, 0, 77, 57
1, 13491, Control_c, 0, 67, 111
1, 13513, Control_c, 0, 67, 111
1, 13528, Control_c, 0, 67, 112
1, 13542, Control_c, 0, 67, 113
1, 13557, Control_c, 0, 67, 114
1, 13572, Control_c, 0, 67, 116
1, 13587, Control_c, 0, 67, 117
1, 13601, Control_c, 0, 67, 117
1, 13616, Control_c, 0, 67, 118
1, 13631, Control_c, 0, 67, 119
1, 13647, Control_c, 0, 67, 120
1, 13655, Note_on_c, 0, 73, 56
1, 13662, Control_c, 0, 67, 120
1, 13669, Note_off_c, 0, 75, 60
1, 13691, Control_c, 0, 67, 121
1, 13706, Control_c, 0, 67, 121
1, 13721, Control_c, 0, 67, 122
1, 13751, Control_c, 0, 67, 122
1, 13765, Control_c, 0, 67, 123
1, 13780, Control_c, 0, 67, 123
1, 13795, Control_c, 0, 67, 124
1, 13825, Control_c, 0, 67, 124
1, 13840, Control_c, 0, 67, 125
1, 13870, Control_c, 0, 67, 125
1, 13914, Control_c, 0, 67, 126
1, 13965, Note_on_c, 0, 72, 52
1, 13986, Note_off_c, 0, 73, 56
1, 14006, Note_on_c, 0, 56, 31
1, 14017, Control_c, 0, 67, 126
1, 14151, Control_c, 0, 64, 35
1, 14165, Control_c, 0, 64, 51
1, 14180, Control_c, 0, 64, 58
1, 14195, Control_c, 0, 64, 60
1, 14210, Control_c, 0, 64, 61
1, 14225, Control_c, 0, 64, 62
1, 14236, Note_on_c, 0, 63, 34
1, 14240, Control_c, 0, 64, 64
1, 14242, Note_on_c, 0, 60, 25
1, 14255, Control_c, 0, 64, 65
1, 14278, Control_c, 0, 64, 67
1, 14288, Note_off_c, 0, 63, 48
1, 14292, Control_c, 0, 64, 69
1, 14296, Note_off_c, 0, 60, 45
1, 14307, Control_c, 0, 64, 71
1, 14322, Control_c, 0, 64, 73
1, 14337, Control_c, 0, 64, 75
1, 14352, Control_c, 0, 64, 76
1, 14366, Control_c, 0, 64, 77
1, 14381, Control_c, 0, 64, 79
1, 14396, Control_c, 0, 64, 79
1, 14411, Control_c, 0, 64, 80
1, 14425, Control_c, 0, 64, 80
1, 14435, Note_on_c, 0, 60, 35
1, 14442, Note_on_c, 0, 63, 32
1, 14456, Control_c, 0, 64, 81
1, 14471, Control_c, 0, 64, 81
1, 14482, Note_off_c, 0, 63, 50
1, 14486, Control_c, 0, 64, 82
1, 14488, Note_off_c, 0, 60, 43
1, 14515, Control_c, 0, 64, 82
1, 14530, Control_c, 0, 64, 83
1, 14560, Control_c, 0, 67, 127
1, 14616, Note_on_c, 0, 63, 41
1, 14618, Note_off_c, 0, 56, 35
1, 14626, Note_on_c, 0, 60, 38
1, 14633, Control_c, 0, 67, 127
1, 14756, Note_off_c, 0, 63, 44
1, 14767, Control_c, 0, 64, 82
1, 14774, Note_off_c, 0, 60, 21
1, 14782, Control_c, 0, 64, 81
1, 14797, Control_c, 0, 64, 79
1, 14806, Note_on_c, 0, 56, 46
1, 14812, Control_c, 0, 64, 73
1, 14827, Control_c, 0, 64, 66
1, 14841, Control_c, 0, 64, 57
1, 14856, Control_c, 0, 64, 43
1, 14871, Control_c, 0, 64, 32
1, 14886, Control_c, 0, 64, 31
1, 14901, Control_c, 0, 64, 38
1, 14915, Control_c, 0, 64, 49
1, 14930, Control_c, 0, 64, 59
1, 14945, Control_c, 0, 64, 66
1, 14960, Control_c, 0, 64, 69
1, 14975, Control_c, 0, 64, 73
1, 14989, Control_c, 0, 64, 76
1, 15004, Control_c, 0, 64, 78
1, 15014, Note_on_c, 0, 60, 31
1, 15020, Note_on_c, 0, 63, 30
1, 15026, Control_c, 0, 64, 80
1, 15041, Control_c, 0, 64, 82
1, 15056, Control_c, 0, 64, 83
1, 15059, Note_off_c, 0, 63, 51
1, 15061, Note_off_c, 0, 60, 45
1, 15071, Control_c, 0, 64, 84
1, 15086, Control_c, 0, 64, 85
1, 15101, Control_c, 0, 64, 86
1, 15115, Control_c, 0, 64, 86
1, 15130, Control_c, 0, 64, 87
1, 15160, Control_c, 0, 64, 87
1, 15185, Note_on_c, 0, 75, 66
1, 15231, Note_on_c, 0, 60, 20
1, 15235, Note_on_c, 0, 63, 25
1, 15275, Note_off_c, 0, 63, 53
1, 15280, Note_off_c, 0, 60, 45
1, 15354, Note_off_c, 0, 72, 31
1, 15363, Note_off_c, 0, 56, 39
1, 15384, Note_on_c, 0, 63, 44
1, 15417, Note_on_c, 0, 60, 26
1, 15436, Note_off_c, 0, 63, 0
1, 15473, Poly_aftertouch_c, 0, 63, 127
1, 15530, Poly_aftertouch_c, 0, 63, 0
1, 15545, Control_c, 0, 64, 85
1, 15560, Control_c, 0, 64, 77
1, 15575, Control_c, 0, 64, 68
1, 15585, Note_on_c, 0, 56, 47
1, 15590, Control_c, 0, 64, 58
1, 15593, Note_off_c, 0, 60, 36
1, 15605, Control_c, 0, 64, 49
1, 15620, Control_c, 0, 64, 46
1, 15634, Control_c, 0, 64, 50
1, 15649, Control_c, 0, 64, 59
1, 15664, Control_c, 0, 64, 66
1, 15679, Control_c, 0, 64, 73
1, 15694, Control_c, 0, 64, 83
1, 15709, Control_c, 0, 64, 90
1, 15724, Control_c, 0, 64, 92
1, 15738, Control_c, 0, 64, 95
1, 15753, Control_c, 0, 64, 99
1, 15770, Note_on_c, 0, 60, 39
1, 15773, Note_on_c, 0, 63, 39
1, 15775, Control_c, 0, 64, 105
1, 15775, Control_c, 0, 67, 126
1, 15789, Control_c, 0, 64, 113
1, 15789, Control_c, 0, 67, 125
1, 15804, Control_c, 0, 64, 124
1, 15804, Control_c, 0, 67, 124
1, 15819, Control_c, 0, 64, 127
1, 15819, Control_c, 0, 67, 123
1, 15825, Note_off_c, 0, 63, 48
1, 15827, Note_off_c, 0, 60, 53
1, 15834, Control_c, 0, 67, 121
1, 15849, Control_c, 0, 67, 119
1, 15864, Control_c, 0, 67, 117
1, 15879, Control_c, 0, 67, 115
1, 15894, Control_c, 0, 67, 114
1, 15909, Control_c, 0, 67, 113
1, 15924, Control_c, 0, 67, 112
1, 15938, Control_c, 0, 67, 108
1, 15939, Note_on_c, 0, 80, 78
1, 15953, Control_c, 0, 67, 106
1, 15964, Note_on_c, 0, 63, 37
1, 15968, Note_on_c, 0, 60, 42
1, 15968, Control_c, 0, 67, 104
1, 15983, Control_c, 0, 67, 101
1, 15997, Control_c, 0, 67, 97
1, 16002, Note_off_c, 0, 63, 49
1, 16012, Control_c, 0, 67, 90
1, 16015, Note_off_c, 0, 60, 53
1, 16027, Control_c, 0, 67, 80
1, 16042, Note_off_c, 0, 75, 64
1, 16043, Control_c, 0, 67, 74
1, 16058, Control_c, 0, 67, 69
1, 16073, Control_c, 0, 67, 69
1, 16087, Control_c, 0, 67, 69
1, 16102, Control_c, 0, 67, 74
1, 16117, Control_c, 0, 67, 78
1, 16118, Note_on_c, 0, 63, 49
1, 16132, Control_c, 0, 67, 82
1, 16135, Note_on_c, 0, 60, 44
1, 16147, Control_c, 0, 67, 85
1, 16153, Note_off_c, 0, 80, 61
1, 16161, Control_c, 0, 67, 93
1, 16176, Control_c, 0, 67, 102
1, 16191, Control_c, 0, 67, 109
1, 16205, Note_off_c, 0, 60, 52
1, 16205, Control_c, 0, 67, 111
1, 16207, Note_off_c, 0, 63, 50
1, 16220, Control_c, 0, 67, 111
1, 16230, Note_off_c, 0, 56, 52
1, 16235, Control_c, 0, 67, 113
1, 16250, Control_c, 0, 67, 114
1, 16265, Control_c, 0, 67, 115
1, 16279, Control_c, 0, 67, 117
1, 16294, Control_c, 0, 67, 118
1, 16309, Control_c, 0, 64, 113
1, 16309, Control_c, 0, 67, 119
1, 16324, Control_c, 0, 64, 99
1, 16339, Control_c, 0, 64, 89
1, 16339, Control_c, 0, 67, 119
1, 16350, Note_on_c, 0, 58, 42
1, 16353, Control_c, 0, 64, 82
1, 16353, Control_c, 0, 67, 120
1, 16368, Control_c, 0, 64, 77
1, 16368, Control_c, 0, 67, 121
1, 16377, Note_on_c, 0, 80, 71
1, 16383, Control_c, 0, 64, 73
1, 16383, Control_c, 0, 67, 122
1, 16398, Control_c, 0, 64, 68
1, 16398, Control_c, 0, 67, 123
1, 16412, Control_c, 0, 64, 64
1, 16412, Control_c, 0, 67, 124
1, 16427, Control_c, 0, 64, 58
1, 16427, Control_c, 0, 67, 124
1, 16442, Control_c, 0, 64, 50
1, 16442, Control_c, 0, 67, 125
1, 16457, Control_c, 0, 64, 40
1, 16472, Control_c, 0, 64, 26
1, 16472, Control_c, 0, 67, 126
1, 16486, Control_c, 0, 64, 0
1, 16486, Control_c, 0, 67, 126
1, 16538, Control_c, 0, 67, 127
1, 16553, Control_c, 0, 67, 127
1, 16567, Control_c, 0, 64, 37
1, 16581, Note_on_c, 0, 63, 41
1, 16582, Control_c, 0, 64, 56
1, 16597, Control_c, 0, 64, 66
1, 16603, Note_on_c, 0, 61, 27
1, 16612, Control_c, 0, 64, 69
1, 16627, Control_c, 0, 64, 72
1, 16638, Note_off_c, 0, 63, 47
1, 16642, Control_c, 0, 64, 74
1, 16650, Note_off_c, 0, 61, 45
1, 16657, Control_c, 0, 64, 77
1, 16672, Control_c, 0, 64, 81
1, 16686, Control_c, 0, 64, 85
1, 16701, Control_c, 0, 64, 88
1, 16716, Control_c, 0, 64, 90
1, 16731, Control_c, 0, 64, 92
1, 16746, Control_c, 0, 64, 94
1, 16760, Control_c, 0, 64, 96
1, 16772, Note_on_c, 0, 63, 48
1, 16775, Control_c, 0, 64, 96
1, 16778, Note_on_c, 0, 61, 44
1, 16790, Control_c, 0, 64, 97
1, 16817, Note_off_c, 0, 63, 52
1, 16824, Note_off_c, 0, 61, 52
1, 16961, Note_on_c, 0, 61, 41
1, 16964, Note_on_c, 0, 63, 41
1, 16973, Note_off_c, 0, 58, 41
1, 17028, Control_c, 0, 64, 96
1, 17042, Control_c, 0, 64, 94
1, 17050, Note_off_c, 0, 63, 35
1, 17057, Control_c, 0, 64, 91
1, 17072, Control_c, 0, 64, 89
1, 17087, Control_c, 0, 64, 86
1, 17101, Control_c, 0, 64, 83
1, 17116, Control_c, 0, 64, 79
1, 17131, Control_c, 0, 64, 75
1, 17146, Control_c, 0, 64, 71
1, 17155, Note_off_c, 0, 61, 18
1, 17161, Control_c, 0, 64, 69
1, 17170, Note_on_c, 0, 79, 62
1, 17176, Control_c, 0, 64, 68
1, 17188, Note_on_c, 0, 58, 36
1, 17191, Control_c, 0, 64, 66
1, 17205, Control_c, 0, 64, 64
1, 17209, Note_off_c, 0, 80, 59
1, 17220, Control_c, 0, 64, 60
1, 17235, Control_c, 0, 64, 53
1, 17257, Control_c, 0, 64, 44
1, 17272, Control_c, 0, 64, 30
1, 17287, Control_c, 0, 64, 9
1, 17302, Control_c, 0, 64, 0
1, 17331, Control_c, 0, 64, 8
1, 17346, Control_c, 0, 64, 35
1, 17360, Control_c, 0, 64, 53
1, 17375, Control_c, 0, 64, 64
1, 17379, Note_on_c, 0, 63, 36
1, 17381, Note_on_c, 0, 61, 36
1, 17390, Control_c, 0, 64, 68
1, 17405, Control_c, 0, 64, 71
1, 17420, Control_c, 0, 64, 73
1, 17435, Note_off_c, 0, 61, 43
1, 17435, Control_c, 0, 64, 74
1, 17444, Note_off_c, 0, 63, 42
1, 17450, Control_c, 0, 64, 77
1, 17465, Control_c, 0, 64, 79
1, 17480, Control_c, 0, 64, 81
1, 17495, Control_c, 0, 64, 83
1, 17509, Control_c, 0, 64, 84
1, 17524, Control_c, 0, 64, 84
1, 17539, Control_c, 0, 64, 85
1, 17568, Control_c, 0, 64, 85
1, 17569, Note_on_c, 0, 63, 50
1, 17575, Note_on_c, 0, 61, 39
1, 17583, Control_c, 0, 64, 86
1, 17598, Control_c, 0, 64, 86
1, 17608, Note_off_c, 0, 63, 50
1, 17609, Note_off_c, 0, 61, 51
1, 17738, Note_off_c, 0, 58, 40
1, 17745, Note_on_c, 0, 63, 46
1, 17752, Note_on_c, 0, 61, 33
1, 17885, Note_off_c, 0, 63, 24
1, 17895, Control_c, 0, 64, 86
1, 17910, Control_c, 0, 64, 83
1, 17925, Control_c, 0, 64, 77
1, 17939, Control_c, 0, 64, 69
1, 17945, Note_on_c, 0, 58, 43
1, 17947, Note_off_c, 0, 61, 38
1, 17954, Control_c, 0, 64, 61
1, 17970, Control_c, 0, 64, 49
1, 17984, Control_c, 0, 64, 36
1, 18007, Control_c, 0, 64, 31
1, 18022, Control_c, 0, 64, 32
1, 18037, Control_c, 0, 64, 41
1, 18052, Control_c, 0, 64, 52
1, 18066, Control_c, 0, 64, 62
1, 18081, Control_c, 0, 64, 68
1, 18096, Control_c, 0, 64, 72
1, 18096, Control_c, 0, 67, 127
1, 18111, Control_c, 0, 64, 77
1, 18111, Control_c, 0, 67, 125
1, 18126, Control_c, 0, 64, 79
1, 18126, Control_c, 0, 67, 124
1, 18139, Note_on_c, 0, 63, 42
1, 18140, Control_c, 0, 64, 81
1, 18140, Control_c, 0, 67, 121
1, 18148, Note_on_c, 0, 61, 41
1, 18155, Control_c, 0, 64, 83
1, 18155, Control_c, 0, 67, 117
1, 18170, Control_c, 0, 64, 86
1, 18170, Control_c, 0, 67, 114
1, 18184, Control_c, 0, 64, 89
1, 18184, Control_c, 0, 67, 111
1, 18199, Control_c, 0, 64, 92
1, 18199, Control_c, 0, 67, 109
1, 18205, Note_off_c, 0, 61, 41
1, 18207, Note_off_c, 0, 63, 39
1, 18214, Control_c, 0, 64, 94
1, 18214, Control_c, 0, 67, 105
1, 18229, Control_c, 0, 64, 97
1, 18229, Control_c, 0, 67, 101
1, 18244, Control_c, 0, 64, 99
1, 18244, Control_c, 0, 67, 97
1, 18258, Control_c, 0, 64, 101
1, 18258, Control_c, 0, 67, 93
1, 18273, Control_c, 0, 64, 102
1, 18273, Control_c, 0, 67, 88
1, 18288, Control_c, 0, 64, 103
1, 18288, Control_c, 0, 67, 83
1, 18303, Control_c, 0, 64, 105
1, 18303, Control_c, 0, 67, 77
1, 18318, Control_c, 0, 64, 107
1, 18318, Control_c, 0, 67, 71
1, 18332, Control_c, 0, 64, 109
1, 18332, Control_c, 0, 67, 64
1, 18338, Note_on_c, 0, 63, 53
1, 18346, Note_on_c, 0, 61, 37
1, 18347, Control_c, 0, 64, 110
1, 18347, Control_c, 0, 67, 60
1, 18362, Control_c, 0, 64, 111
1, 18362, Control_c, 0, 67, 57
1, 18377, Control_c, 0, 64, 111
1, 18377, Control_c, 0, 67, 57
1, 18377, Note_off_c, 0, 63, 56
1, 18380, Note_off_c, 0, 61, 50
1, 18392, Control_c, 0, 64, 112
1, 18422, Control_c, 0, 67, 57
1, 18437, Control_c, 0, 67, 58
1, 18452, Control_c, 0, 67, 59
1, 18467, Control_c, 0, 67, 61
1, 18481, Control_c, 0, 67, 62
1, 18496, Control_c, 0, 67, 63
1, 18511, Control_c, 0, 67, 64
1, 18529, Note_off_c, 0, 58, 38
1, 18539, Note_on_c, 0, 63, 50
1, 18541, Control_c, 0, 67, 64
1, 18547, Note_on_c, 0, 61, 39
1, 18576, Note_off_c, 0, 61, 55
1, 18583, Note_off_c, 0, 63, 61
1, 18586, Control_c, 0, 67, 65
1, 18600, Control_c, 0, 67, 65
1, 18630, Control_c, 0, 67, 66
1, 18660, Control_c, 0, 67, 67
1, 18675, Control_c, 0, 64, 111
1, 18675, Control_c, 0, 67, 67
1, 18689, Control_c, 0, 64, 110
1, 18704, Control_c, 0, 64, 107
1, 18719, Control_c, 0, 64, 103
1, 18719, Control_c, 0, 67, 68
1, 18732, Control_c, 0, 64, 98
1, 18747, Control_c, 0, 64, 93
1, 18769, Control_c, 0, 64, 87
1, 18784, Control_c, 0, 64, 81
1, 18784, Control_c, 0, 67, 68
1, 18799, Control_c, 0, 64, 77
1, 18799, Control_c, 0, 67, 69
1, 18804, Note_on_c, 0, 82, 72
1, 18813, Control_c, 0, 64, 73
1, 18827, Note_on_c, 0, 61, 40
1, 18828, Control_c, 0, 64, 69
1, 18843, Control_c, 0, 64, 64
1, 18848, Note_off_c, 0, 79, 63
1, 18858, Control_c, 0, 64, 56
1, 18873, Control_c, 0, 64, 42
1, 18887, Control_c, 0, 64, 23
1, 18902, Control_c, 0, 64, 0
1, 18947, Control_c, 0, 64, 17
1, 18961, Control_c, 0, 64, 39
1, 18976, Control_c, 0, 64, 56
1, 18991, Control_c, 0, 64, 66
1, 18991, Control_c, 0, 67, 69
1, 19006, Control_c, 0, 64, 72
1, 19021, Control_c, 0, 64, 76
1, 19029, Note_on_c, 0, 63, 40
1, 19032, Note_on_c, 0, 67, 33
1, 19036, Control_c, 0, 64, 79
1, 19038, Note_on_c, 0, 70, 27
1, 19051, Control_c, 0, 64, 82
1, 19065, Control_c, 0, 64, 86
1, 19074, Note_off_c, 0, 67, 48
1, 19075, Note_off_c, 0, 70, 52
1, 19080, Control_c, 0, 64, 90
1, 19080, Control_c, 0, 67, 70
1, 19095, Control_c, 0, 64, 95
1, 19095, Control_c, 0, 67, 70
1, 19104, Note_off_c, 0, 63, 40
1, 19110, Control_c, 0, 64, 100
1, 19125, Control_c, 0, 64, 103
1, 19140, Control_c, 0, 64, 104
1, 19154, Control_c, 0, 64, 105
1, 19154, Control_c, 0, 67, 71
1, 19197, Note_on_c, 0, 67, 41
1, 19202, Note_on_c, 0, 70, 33
1, 19238, Note_off_c, 0, 61, 33
1, 19249, Note_off_c, 0, 70, 46
1, 19256, Note_off_c, 0, 67, 47
1, 19259, Control_c, 0, 64, 105
1, 19268, Poly_aftertouch_c, 0, 63, 127
1, 19318, Poly_aftertouch_c, 0, 63, 0
1, 19407, Note_on_c, 0, 70, 33
1, 19409, Note_on_c, 0, 67, 33
1, 19421, Control_c, 0, 64, 105
1, 19471, Poly_aftertouch_c, 0, 63, 127
1, 19479, Note_off_c, 0, 70, 38
1, 19521, Poly_aftertouch_c, 0, 63, 0
1, 19533, Control_c, 0, 67, 71
1, 19538, Note_off_c, 0, 67, 26
1, 19548, Control_c, 0, 64, 104
1, 19563, Control_c, 0, 64, 101
1, 19578, Control_c, 0, 64, 94
1, 19584, Note_on_c, 0, 61, 47
1, 19592, Control_c, 0, 64, 85
1, 19607, Control_c, 0, 64, 72
1, 19622, Control_c, 0, 64, 63
1, 19636, Control_c, 0, 64, 55
1, 19636, Control_c, 0, 67, 72
1, 19651, Control_c, 0, 64, 52
1, 19666, Control_c, 0, 64, 55
1, 19681, Control_c, 0, 64, 61
1, 19696, Control_c, 0, 64, 66
1, 19710, Control_c, 0, 64, 72
1, 19725, Control_c, 0, 64, 78
1, 19740, Control_c, 0, 64, 84
1, 19755, Control_c, 0, 64, 86
1, 19770, Control_c, 0, 64, 87
1, 19772, Note_on_c, 0, 63, 40
1, 19774, Note_on_c, 0, 67, 42
1, 19784, Control_c, 0, 64, 88
1, 19787, Note_on_c, 0, 70, 33
1, 19799, Control_c, 0, 64, 90
1, 19814, Control_c, 0, 64, 91
1, 19814, Control_c, 0, 67, 71
1, 19826, Note_off_c, 0, 67, 47
1, 19829, Note_off_c, 0, 70, 47
1, 19873, Control_c, 0, 64, 91
1, 19881, Note_off_c, 0, 63, 37
1, 19960, Note_on_c, 0, 79, 71
1, 19966, Note_off_c, 0, 61, 37
1, 19981, Note_on_c, 0, 70, 29
1, 19990, Note_on_c, 0, 67, 20
1, 19992, Control_c, 0, 64, 92
1, 20007, Note_on_c, 0, 63, 31
1, 20019, Note_off_c, 0, 70, 49
1, 20030, Note_off_c, 0, 67, 52
1, 20045, Note_off_c, 0, 63, 52
1, 20052, Control_c, 0, 64, 92
1, 20067, Control_c, 0, 64, 93
1, 20080, Note_off_c, 0, 82, 51
1, 20082, Control_c, 0, 64, 94
1, 20097, Control_c, 0, 64, 95
1, 20112, Control_c, 0, 64, 97
1, 20126, Control_c, 0, 64, 98
1, 20126, Control_c, 0, 67, 72
1, 20136, Note_on_c, 0, 70, 41
1, 20136, Note_on_c, 0, 67, 43
1, 20141, Control_c, 0, 64, 99
1, 20156, Control_c, 0, 64, 100
1, 20182, Note_on_c, 0, 63, 22
1, 20230, Control_c, 0, 64, 97
1, 20236, Note_off_c, 0, 63, 45
1, 20252, Control_c, 0, 64, 91
1, 20267, Control_c, 0, 64, 82
1, 20267, Control_c, 0, 67, 71
1, 20282, Control_c, 0, 64, 74
1, 20297, Control_c, 0, 64, 67
1, 20303, Note_off_c, 0, 70, 20
1, 20312, Control_c, 0, 64, 60
1, 20320, Note_off_c, 0, 67, 36
1, 20326, Control_c, 0, 64, 56
1, 20331, Note_on_c, 0, 61, 48
1, 20341, Control_c, 0, 64, 55
1, 20386, Control_c, 0, 64, 59
1, 20386, Control_c, 0, 67, 71
1, 20401, Control_c, 0, 64, 64
1, 20416, Control_c, 0, 64, 71
1, 20431, Control_c, 0, 64, 81
1, 20446, Control_c, 0, 64, 92
1, 20460, Control_c, 0, 64, 99
1, 20460, Control_c, 0, 67, 70
1, 20475, Control_c, 0, 64, 103
1, 20490, Control_c, 0, 64, 106
1, 20505, Control_c, 0, 64, 115
1, 20505, Control_c, 0, 67, 70
1, 20520, Control_c, 0, 64, 127
1, 20531, Note_on_c, 0, 70, 44
1, 20533, Note_on_c, 0, 67, 44
1, 20549, Control_c, 0, 67, 69
1, 20551, Note_on_c, 0, 63, 38
1, 20590, Note_off_c, 0, 67, 49
1, 20594, Note_off_c, 0, 70, 44
1, 20610, Note_off_c, 0, 63, 45
1, 20707, Note_on_c, 0, 75, 71
1, 20735, Note_on_c, 0, 67, 41
1, 20738, Note_on_c, 0, 70, 35
1, 20757, Note_on_c, 0, 63, 30
1, 20763, Note_off_c, 0, 79, 59
1, 20778, Note_off_c, 0, 67, 49
1, 20778, Note_off_c, 0, 70, 48
1, 20806, Note_off_c, 0, 63, 45
1, 20815, Control_c, 0, 67, 70
1, 20890, Note_off_c, 0, 61, 39
1, 20890, Control_c, 0, 67, 70
1, 20902, Note_on_c, 0, 67, 41
1, 20905, Note_on_c, 0, 70, 37
1, 20920, Control_c, 0, 67, 71
1, 20961, Note_off_c, 0, 70, 43
1, 20982, Note_off_c, 0, 75, 60
1, 20992, Note_off_c, 0, 67, 46
1, 21002, Control_c, 0, 67, 71
1, 21091, Control_c, 0, 67, 72
1, 21106, Control_c, 0, 64, 114
1, 21120, Note_on_c, 0, 60, 45
1, 21121, Control_c, 0, 64, 93
1, 21136, Control_c, 0, 64, 81
1, 21137, Note_on_c, 0, 75, 63
1, 21150, Control_c, 0, 64, 72
1, 21165, Control_c, 0, 64, 66
1, 21180, Control_c, 0, 64, 60
1, 21195, Control_c, 0, 64, 53
1, 21195, Control_c, 0, 67, 72
1, 21209, Control_c, 0, 64, 43
1, 21224, Control_c, 0, 64, 28
1, 21239, Control_c, 0, 64, 10
1, 21254, Control_c, 0, 64, 0
1, 21298, Control_c, 0, 64, 34
1, 21313, Control_c, 0, 64, 53
1, 21328, Control_c, 0, 64, 65
1, 21332, Note_on_c, 0, 68, 38
1, 21334, Note_on_c, 0, 63, 42
1, 21343, Control_c, 0, 64, 69
1, 21358, Control_c, 0, 64, 72
1, 21373, Control_c, 0, 64, 75
1, 21373, Control_c, 0, 67, 73
1, 21377, Note_off_c, 0, 68, 46
1, 21379, Note_off_c, 0, 63, 55
1, 21388, Control_c, 0, 64, 78
1, 21402, Control_c, 0, 64, 82
1, 21417, Control_c, 0, 64, 87
1, 21432, Control_c, 0, 64, 93
1, 21447, Control_c, 0, 64, 98
1, 21447, Control_c, 0, 67, 72
1, 21462, Control_c, 0, 64, 103
1, 21476, Control_c, 0, 64, 106
1, 21491, Control_c, 0, 64, 110
1, 21506, Control_c, 0, 64, 113
1, 21510, Note_on_c, 0, 68, 43
1, 21513, Note_on_c, 0, 63, 46
1, 21521, Control_c, 0, 64, 115
1, 21536, Control_c, 0, 64, 117
1, 21550, Control_c, 0, 64, 118
1, 21554, Note_off_c, 0, 68, 47
1, 21565, Note_off_c, 0, 63, 54
1, 21580, Control_c, 0, 64, 119
1, 21595, Control_c, 0, 67, 73
1, 21608, Note_off_c, 0, 60, 32
1, 21670, Control_c, 0, 67, 73
1, 21683, Note_on_c, 0, 68, 42
1, 21699, Control_c, 0, 64, 118
1, 21699, Control_c, 0, 67, 74
1, 21705, Note_on_c, 0, 63, 40
1, 21714, Control_c, 0, 67, 74
1, 21766, Control_c, 0, 67, 75
1, 21781, Control_c, 0, 64, 116
1, 21781, Control_c, 0, 67, 77
1, 21796, Control_c, 0, 64, 112
1, 21796, Control_c, 0, 67, 78
1, 21811, Control_c, 0, 64, 108
1, 21821, Note_off_c, 0, 63, 0
1, 21825, Control_c, 0, 64, 102
1, 21840, Control_c, 0, 64, 97
1, 21855, Control_c, 0, 64, 92
1, 21855, Control_c, 0, 67, 78
1, 21857, Note_off_c, 0, 68, 33
1, 21858, Poly_aftertouch_c, 0, 63, 127
1, 21870, Control_c, 0, 64, 86
1, 21885, Control_c, 0, 64, 80
1, 21899, Control_c, 0, 64, 77
1, 21908, Note_on_c, 0, 80, 65
1, 21914, Control_c, 0, 64, 73
1, 21918, Poly_aftertouch_c, 0, 63, 0
1, 21929, Control_c, 0, 64, 68
1, 21935, Note_on_c, 0, 60, 34
1, 21944, Control_c, 0, 64, 63
1, 21959, Control_c, 0, 64, 54
1, 21973, Control_c, 0, 64, 42
1, 21988, Control_c, 0, 64, 28
1, 22003, Control_c, 0, 64, 19
1, 22003, Control_c, 0, 67, 78
1, 22006, Note_off_c, 0, 75, 64
1, 22018, Control_c, 0, 64, 19
1, 22032, Control_c, 0, 64, 27
1, 22047, Control_c, 0, 64, 43
1, 22062, Control_c, 0, 64, 57
1, 22062, Control_c, 0, 67, 77
1, 22077, Control_c, 0, 64, 65
1, 22092, Control_c, 0, 64, 69
1, 22106, Note_on_c, 0, 63, 31
1, 22107, Control_c, 0, 64, 73
1, 22107, Control_c, 0, 67, 77
1, 22108, Note_on_c, 0, 68, 36
1, 22121, Control_c, 0, 64, 77
1, 22136, Control_c, 0, 64, 80
1, 22151, Control_c, 0, 64, 83
1, 22151, Control_c, 0, 67, 76
1, 22159, Note_off_c, 0, 68, 44
1, 22166, Control_c, 0, 64, 87
1, 22166, Control_c, 0, 67, 76
1, 22172, Note_off_c, 0, 63, 41
1, 22181, Control_c, 0, 64, 92
1, 22195, Control_c, 0, 64, 99
1, 22210, Control_c, 0, 64, 106
1, 22210, Control_c, 0, 67, 75
1, 22225, Control_c, 0, 64, 115
1, 22240, Control_c, 0, 64, 127
1, 22285, Control_c, 0, 67, 75
1, 22300, Note_on_c, 0, 68, 44
1, 22311, Note_on_c, 0, 63, 44
1, 22354, Note_off_c, 0, 68, 54
1, 22358, Control_c, 0, 67, 74
1, 22359, Note_off_c, 0, 63, 56
1, 22418, Control_c, 0, 67, 74
1, 22434, Control_c, 0, 67, 73
1, 22448, Control_c, 0, 67, 73
1, 22492, Note_on_c, 0, 68, 39
1, 22493, Control_c, 0, 67, 72
1, 22494, Note_on_c, 0, 63, 40
1, 22506, Note_off_c, 0, 60, 31
1, 22589, Control_c, 0, 64, 118
1, 22593, Note_off_c, 0, 68, 33
1, 22604, Control_c, 0, 64, 92
1, 22619, Control_c, 0, 64, 75
1, 22619, Control_c, 0, 67, 73
1, 22634, Control_c, 0, 64, 62
1, 22648, Control_c, 0, 64, 56
1, 22663, Control_c, 0, 64, 57
1, 22678, Control_c, 0, 64, 61
1, 22687, Note_on_c, 0, 60, 36
1, 22693, Control_c, 0, 64, 65
1, 22693, Control_c, 0, 67, 73
1, 22703, Note_off_c, 0, 63, 42
1, 22708, Control_c, 0, 64, 71
1, 22723, Control_c, 0, 64, 81
1, 22723, Control_c, 0, 67, 74
1, 22737, Control_c, 0, 64, 96
1, 22737, Control_c, 0, 67, 74
1, 22752, Control_c, 0, 64, 108
1, 22752, Control_c, 0, 67, 75
1, 22767, Control_c, 0, 64, 119
1, 22781, Control_c, 0, 64, 127
1, 22781, Control_c, 0, 67, 75
1, 22811, Control_c, 0, 67, 76
1, 22841, Control_c, 0, 67, 76
1, 22869, Note_on_c, 0, 63, 44
1, 22872, Note_on_c, 0, 68, 47
1, 22872, Note_off_c, 0, 80, 52
1, 22925, Note_off_c, 0, 63, 57
1, 22928, Note_off_c, 0, 68, 56
1, 23050, Note_on_c, 0, 68, 60
1, 23063, Note_on_c, 0, 63, 47
1, 23078, Control_c, 0, 67, 77
1, 23100, Note_off_c, 0, 68, 59
1, 23103, Note_off_c, 0, 63, 61
1, 23269, Note_on_c, 0, 68, 54
1, 23272, Note_on_c, 0, 63, 48
1, 23276, Note_off_c, 0, 60, 51
1, 23307, Note_off_c, 0, 63, 65
1, 23315, Note_off_c, 0, 68, 60
1, 23397, Control_c, 0, 64, 108
1, 23411, Control_c, 0, 64, 96
1, 23426, Control_c, 0, 64, 89
1, 23441, Control_c, 0, 64, 85
1, 23456, Control_c, 0, 64, 82
1, 23456, Control_c, 0, 67, 77
1, 23471, Control_c, 0, 64, 79
1, 23485, Control_c, 0, 64, 73
1, 23498, Note_on_c, 0, 80, 74
1, 23500, Control_c, 0, 64, 67
1, 23515, Control_c, 0, 64, 61
1, 23530, Control_c, 0, 64, 50
1, 23532, Note_on_c, 0, 66, 44
1, 23545, Control_c, 0, 64, 41
1, 23559, Control_c, 0, 64, 32
1, 23574, Control_c, 0, 64, 26
1, 23589, Control_c, 0, 64, 24
1, 23603, Control_c, 0, 64, 28
1, 23618, Control_c, 0, 64, 42
1, 23633, Control_c, 0, 64, 59
1, 23648, Control_c, 0, 64, 67
1, 23663, Control_c, 0, 64, 73
1, 23677, Control_c, 0, 64, 78
1, 23692, Control_c, 0, 64, 81
1, 23707, Note_on_c, 0, 75, 44
1, 23707, Control_c, 0, 64, 85
1, 23720, Note_on_c, 0, 68, 46
1, 23721, Note_on_c, 0, 72, 39
1, 23722, Control_c, 0, 64, 91
1, 23737, Control_c, 0, 64, 100
1, 23739, Note_off_c, 0, 75, 53
1, 23751, Control_c, 0, 64, 110
1, 23752, Note_off_c, 0, 72, 54
1, 23766, Control_c, 0, 64, 127
1, 23767, Note_off_c, 0, 68, 44
1, 23791, Note_off_c, 0, 66, 43
1, 23841, Control_c, 0, 67, 78
1, 23881, Note_on_c, 0, 72, 45
1, 23885, Note_on_c, 0, 68, 51
1, 23885, Control_c, 0, 67, 78
1, 23892, Note_on_c, 0, 75, 40
1, 23927, Note_off_c, 0, 75, 53
1, 23936, Note_off_c, 0, 72, 60
1, 23946, Note_off_c, 0, 68, 58
1, 23996, Control_c, 0, 67, 79
1, 24074, Note_on_c, 0, 75, 49
1, 24091, Note_on_c, 0, 68, 45
1, 24093, Note_on_c, 0, 72, 39
1, 24136, Note_off_c, 0, 72, 48
1, 24178, Note_off_c, 0, 68, 39
1, 24205, Note_off_c, 0, 75, 30
1, 24205, Control_c, 0, 64, 111
1, 24219, Control_c, 0, 64, 97
1, 24234, Control_c, 0, 64, 82
1, 24234, Control_c, 0, 67, 79
1, 24249, Control_c, 0, 64, 69
1, 24259, Note_on_c, 0, 66, 59
1, 24264, Control_c, 0, 64, 58
1, 24279, Control_c, 0, 64, 45
1, 24294, Control_c, 0, 64, 37
1, 24323, Control_c, 0, 64, 43
1, 24338, Control_c, 0, 64, 55
1, 24353, Control_c, 0, 64, 64
1, 24368, Control_c, 0, 64, 72
1, 24382, Control_c, 0, 64, 81
1, 24397, Control_c, 0, 64, 91
1, 24412, Control_c, 0, 64, 97
1, 24426, Control_c, 0, 64, 102
1, 24441, Control_c, 0, 64, 113
1, 24449, Note_on_c, 0, 72, 54
1, 24453, Note_on_c, 0, 75, 52
1, 24456, Note_on_c, 0, 68, 52
1, 24456, Control_c, 0, 64, 127
1, 24489, Note_off_c, 0, 72, 61
1, 24490, Note_off_c, 0, 75, 57
1, 24511, Note_off_c, 0, 68, 56
1, 24516, Note_off_c, 0, 66, 55
1, 24619, Note_on_c, 0, 84, 80
1, 24634, Control_c, 0, 67, 79
1, 24641, Note_on_c, 0, 68, 47
1, 24646, Note_on_c, 0, 72, 44
1, 24650, Note_on_c, 0, 75, 31
1, 24680, Note_off_c, 0, 72, 55
1, 24682, Note_off_c, 0, 75, 54
1, 24690, Note_off_c, 0, 68, 52
1, 24792, Note_on_c, 0, 75, 51
1, 24801, Note_on_c, 0, 72, 49
1, 24817, Note_off_c, 0, 80, 57
1, 24826, Note_on_c, 0, 68, 48
1, 24880, Control_c, 0, 67, 79
1, 24920, Note_off_c, 0, 68, 51
1, 24947, Note_off_c, 0, 72, 0
1, 24954, Control_c, 0, 64, 106
1, 24969, Control_c, 0, 64, 84
1, 24971, Note_off_c, 0, 75, 43
1, 24984, Control_c, 0, 64, 69
1, 24990, Note_on_c, 0, 66, 63
1, 24998, Control_c, 0, 64, 59
1, 24998, Control_c, 0, 67, 80
1, 25012, Poly_aftertouch_c, 0, 72, 0
1, 25013, Control_c, 0, 64, 52
1, 25028, Control_c, 0, 64, 52
1, 25042, Control_c, 0, 64, 59
1, 25057, Control_c, 0, 64, 66
1, 25072, Control_c, 0, 64, 74
1, 25087, Control_c, 0, 64, 88
1, 25102, Control_c, 0, 64, 116
1, 25117, Control_c, 0, 64, 127
1, 25180, Note_on_c, 0, 75, 53
1, 25185, Note_on_c, 0, 72, 46
1, 25191, Note_on_c, 0, 68, 50
1, 25236, Note_off_c, 0, 75, 57
1, 25238, Note_off_c, 0, 72, 57
1, 25257, Note_off_c, 0, 68, 56
1, 25310, Control_c, 0, 67, 79
1, 25346, Note_on_c, 0, 87, 79
1, 25388, Note_on_c, 0, 72, 33
1, 25390, Note_on_c, 0, 68, 39
1, 25397, Note_on_c, 0, 75, 22
1, 25419, Note_off_c, 0, 72, 53
1, 25436, Note_off_c, 0, 68, 46
1, 25438, Note_off_c, 0, 75, 41
1, 25462, Note_off_c, 0, 84, 61
1, 25510, Control_c, 0, 67, 80
1, 25540, Note_on_c, 0, 75, 53
1, 25545, Note_on_c, 0, 72, 44
1, 25551, Note_off_c, 0, 66, 32
1, 25565, Note_off_c, 0, 87, 62
1, 25569, Control_c, 0, 67, 80
1, 25598, Control_c, 0, 67, 81
1, 25606, Poly_aftertouch_c, 0, 68, 127
1, 25612, Note_off_c, 0, 75, 45
1, 25613, Control_c, 0, 67, 84
1, 25629, Control_c, 0, 67, 85
1, 25651, Poly_aftertouch_c, 0, 68, 0
1, 25718, Control_c, 0, 64, 103
1, 25728, Note_off_c, 0, 72, 30
1, 25733, Control_c, 0, 64, 92
1, 25747, Control_c, 0, 64, 84
1, 25762, Control_c, 0, 64, 78
1, 25773, Note_on_c, 0, 65, 50
1, 25777, Control_c, 0, 64, 72
1, 25777, Control_c, 0, 67, 84
1, 25791, Control_c, 0, 64, 65
1, 25806, Control_c, 0, 64, 58
1, 25807, Note_on_c, 0, 87, 79
1, 25821, Control_c, 0, 64, 48
1, 25821, Control_c, 0, 67, 84
1, 25836, Control_c, 0, 64, 35
1, 25851, Control_c, 0, 64, 24
1, 25865, Control_c, 0, 64, 21
1, 25865, Control_c, 0, 67, 83
1, 25880, Control_c, 0, 64, 24
1, 25880, Control_c, 0, 67, 83
1, 25895, Control_c, 0, 64, 39
1, 25895, Control_c, 0, 67, 82
1, 25910, Control_c, 0, 64, 56
1, 25910, Control_c, 0, 67, 81
1, 25925, Control_c, 0, 64, 67
1, 25925, Control_c, 0, 67, 80
1, 25940, Control_c, 0, 64, 76
1, 25940, Control_c, 0, 67, 79
1, 25954, Control_c, 0, 64, 87
1, 25954, Control_c, 0, 67, 77
1, 25969, Control_c, 0, 64, 96
1, 25969, Control_c, 0, 67, 76
1, 25984, Control_c, 0, 64, 103
1, 25984, Control_c, 0, 67, 75
1, 25987, Note_on_c, 0, 68, 52
1, 25996, Note_on_c, 0, 73, 43
1, 25999, Control_c, 0, 64, 122
1, 25999, Control_c, 0, 67, 74
1, 26014, Control_c, 0, 64, 127
1, 26014, Control_c, 0, 67, 73
1, 26029, Control_c, 0, 67, 71
1, 26032, Note_off_c, 0, 73, 51
1, 26036, Note_off_c, 0, 68, 60
1, 26044, Control_c, 0, 67, 68
1, 26059, Control_c, 0, 67, 64
1, 26073, Control_c, 0, 67, 58
1, 26088, Control_c, 0, 67, 50
1, 26103, Control_c, 0, 67, 43
1, 26118, Control_c, 0, 67, 36
1, 26133, Control_c, 0, 67, 28
1, 26147, Control_c, 0, 67, 20
1, 26162, Control_c, 0, 67, 12
1, 26171, Note_on_c, 0, 68, 47
1, 26172, Note_on_c, 0, 73, 40
1, 26177, Control_c, 0, 67, 0
1, 26202, Note_off_c, 0, 65, 24
1, 26206, Note_off_c, 0, 73, 55
1, 26211, Note_off_c, 0, 68, 61
1, 26350, Note_on_c, 0, 68, 47
1, 26371, Note_on_c, 0, 73, 31
1, 26422, Control_c, 0, 67, 9
1, 26437, Control_c, 0, 67, 11
1, 26452, Control_c, 0, 67, 14
1, 26467, Control_c, 0, 67, 17
1, 26480, Note_off_c, 0, 73, 38
1, 26482, Control_c, 0, 67, 19
1, 26511, Control_c, 0, 67, 19
1, 26526, Control_c, 0, 64, 88
1, 26526, Control_c, 0, 67, 20
1, 26541, Note_on_c, 0, 65, 57
1, 26541, Control_c, 0, 64, 71
1, 26541, Control_c, 0, 67, 22
1, 26548, Note_off_c, 0, 68, 30
1, 26556, Control_c, 0, 64, 60
1, 26556, Control_c, 0, 67, 24
1, 26570, Control_c, 0, 64, 56
1, 26570, Control_c, 0, 67, 25
1, 26585, Control_c, 0, 64, 59
1, 26600, Control_c, 0, 64, 65
1, 26600, Control_c, 0, 67, 26
1, 26614, Control_c, 0, 64, 72
1, 26614, Control_c, 0, 67, 28
1, 26629, Control_c, 0, 64, 82
1, 26629, Control_c, 0, 67, 34
1, 26644, Control_c, 0, 64, 98
1, 26644, Control_c, 0, 67, 40
1, 26659, Control_c, 0, 64, 109
1, 26659, Control_c, 0, 67, 47
1, 26674, Control_c, 0, 64, 117
1, 26674, Control_c, 0, 67, 49
1, 26688, Control_c, 0, 64, 127
1, 26688, Control_c, 0, 67, 51
1, 26703, Control_c, 0, 67, 52
1, 26717, Note_on_c, 0, 68, 51
1, 26718, Control_c, 0, 67, 54
1, 26721, Note_on_c, 0, 73, 52
1, 26733, Control_c, 0, 67, 56
1, 26748, Control_c, 0, 67, 58
1, 26762, Control_c, 0, 67, 58
1, 26768, Note_off_c, 0, 73, 58
1, 26779, Note_off_c, 0, 68, 58
1, 26888, Note_on_c, 0, 85, 80
1, 26896, Control_c, 0, 67, 59
1, 26911, Control_c, 0, 67, 59
1, 26911, Note_on_c, 0, 68, 53
1, 26918, Note_on_c, 0, 73, 50
1, 26926, Control_c, 0, 67, 60
1, 26932, Note_off_c, 0, 87, 60
1, 26941, Control_c, 0, 67, 60
1, 26944, Note_off_c, 0, 73, 59
1, 26956, Note_off_c, 0, 68, 60
1, 27036, Control_c, 0, 67, 61
1, 27060, Note_off_c, 0, 65, 62
1, 27076, Note_on_c, 0, 73, 51
1, 27077, Note_on_c, 0, 68, 55
1, 27174, Note_off_c, 0, 73, 59
1, 27194, Note_off_c, 0, 68, 60
1, 27199, Control_c, 0, 64, 108
1, 27214, Control_c, 0, 64, 94
1, 27230, Control_c, 0, 64, 83
1, 27244, Control_c, 0, 64, 74
1, 27259, Control_c, 0, 64, 64
1, 27269, Note_on_c, 0, 87, 84
1, 27274, Note_on_c, 0, 63, 59
1, 27274, Control_c, 0, 64, 55
1, 27289, Control_c, 0, 64, 44
1, 27304, Control_c, 0, 64, 32
1, 27318, Control_c, 0, 64, 18
1, 27332, Note_off_c, 0, 85, 64
1, 27333, Control_c, 0, 64, 0
1, 27333, Control_c, 0, 67, 61
1, 27363, Control_c, 0, 67, 62
1, 27378, Control_c, 0, 64, 10
1, 27392, Control_c, 0, 64, 38
1, 27407, Control_c, 0, 64, 57
1, 27407, Control_c, 0, 67, 62
1, 27422, Control_c, 0, 64, 66
1, 27422, Control_c, 0, 67, 63
1, 27423, Note_off_c, 0, 63, 59
1, 27436, Control_c, 0, 64, 72
1, 27451, Note_on_c, 0, 68, 56
1, 27451, Control_c, 0, 64, 77
1, 27455, Note_on_c, 0, 72, 53
1, 27466, Control_c, 0, 64, 82
1, 27481, Control_c, 0, 64, 89
1, 27496, Control_c, 0, 64, 98
1, 27496, Control_c, 0, 67, 63
1, 27505, Note_off_c, 0, 72, 56
1, 27510, Control_c, 0, 64, 108
1, 27525, Control_c, 0, 64, 122
1, 27540, Control_c, 0, 64, 127
1, 27584, Note_off_c, 0, 68, 0
1, 27607, Poly_aftertouch_c, 0, 68, 0
1, 27630, Control_c, 0, 64, 116
1, 27642, Note_on_c, 0, 89, 88
1, 27644, Control_c, 0, 64, 90
1, 27651, Note_on_c, 0, 61, 55
1, 27659, Control_c, 0, 64, 70
1, 27659, Control_c, 0, 67, 62
1, 27674, Control_c, 0, 64, 57
1, 27689, Control_c, 0, 64, 39
1, 27692, Note_off_c, 0, 87, 63
1, 27704, Control_c, 0, 64, 25
1, 27718, Control_c, 0, 64, 25
1, 27740, Control_c, 0, 64, 36
1, 27755, Control_c, 0, 64, 53
1, 27755, Control_c, 0, 67, 62
1, 27770, Control_c, 0, 64, 67
1, 27785, Control_c, 0, 64, 77
1, 27800, Control_c, 0, 64, 90
1, 27806, Note_off_c, 0, 61, 55
1, 27814, Control_c, 0, 64, 103
1, 27829, Control_c, 0, 64, 118
1, 27844, Control_c, 0, 64, 127
1, 27847, Note_on_c, 0, 68, 51
1, 27854, Note_on_c, 0, 70, 53
1, 27874, Note_off_c, 0, 89, 64
1, 27925, Note_off_c, 0, 70, 56
1, 27998, Note_off_c, 0, 68, 0
1, 28047, Poly_aftertouch_c, 0, 68, 0
1, 28086, Note_on_c, 0, 63, 50
1, 28127, Control_c, 0, 64, 98
1, 28141, Control_c, 0, 64, 82
1, 28151, Note_on_c, 0, 89, 82
1, 28156, Control_c, 0, 64, 71
1, 28171, Control_c, 0, 64, 64
1, 28186, Control_c, 0, 64, 56
1, 28201, Control_c, 0, 64, 47
1, 28215, Control_c, 0, 64, 32
1, 28230, Control_c, 0, 64, 0
1, 28274, Control_c, 0, 67, 63
1, 28289, Control_c, 0, 64, 23
1, 28289, Control_c, 0, 67, 64
1, 28304, Control_c, 0, 64, 49
1, 28304, Control_c, 0, 67, 65
1, 28319, Control_c, 0, 64, 63
1, 28319, Control_c, 0, 67, 66
1, 28333, Control_c, 0, 64, 70
1, 28333, Control_c, 0, 67, 71
1, 28348, Control_c, 0, 64, 73
1, 28348, Control_c, 0, 67, 74
1, 28363, Control_c, 0, 64, 76
1, 28363, Control_c, 0, 67, 76
1, 28366, Note_on_c, 0, 72, 47
1, 28370, Note_on_c, 0, 68, 44
1, 28378, Control_c, 0, 64, 80
1, 28378, Control_c, 0, 67, 77
1, 28393, Control_c, 0, 64, 87
1, 28408, Control_c, 0, 64, 95
1, 28417, Note_off_c, 0, 72, 58
1, 28419, Note_off_c, 0, 68, 60
1, 28423, Control_c, 0, 64, 104
1, 28423, Control_c, 0, 67, 77
1, 28437, Control_c, 0, 64, 111
1, 28452, Control_c, 0, 64, 119
1, 28467, Control_c, 0, 64, 127
1, 28505, Control_c, 0, 67, 77
1, 28592, Note_on_c, 0, 68, 36
1, 28592, Note_on_c, 0, 72, 42
1, 28620, Note_off_c, 0, 72, 52
1, 28638, Note_off_c, 0, 68, 46
1, 28652, Note_on_c, 0, 87, 72
1, 28724, Note_off_c, 0, 89, 61
1, 28801, Control_c, 0, 67, 77
1, 28818, Note_on_c, 0, 68, 39
1, 28834, Note_on_c, 0, 72, 32
1, 28836, Note_off_c, 0, 63, 39
1, 28891, Control_c, 0, 67, 78
1, 28920, Control_c, 0, 67, 79
1, 28935, Control_c, 0, 67, 80
1, 28950, Control_c, 0, 64, 105
1, 28950, Control_c, 0, 67, 81
1, 28956, Note_off_c, 0, 72, 25
1, 28965, Control_c, 0, 64, 85
1, 28965, Control_c, 0, 67, 82
1, 28980, Control_c, 0, 64, 68
1, 28980, Control_c, 0, 67, 83
1, 28995, Control_c, 0, 64, 61
1, 28995, Control_c, 0, 67, 85
1, 29001, Note_off_c, 0, 68, 45
1, 29002, Note_on_c, 0, 63, 42
1, 29009, Control_c, 0, 64, 60
1, 29009, Control_c, 0, 67, 89
1, 29024, Control_c, 0, 64, 62
1, 29024, Control_c, 0, 67, 92
1, 29039, Control_c, 0, 64, 66
1, 29039, Control_c, 0, 67, 93
1, 29054, Control_c, 0, 64, 73
1, 29069, Control_c, 0, 64, 88
1, 29069, Control_c, 0, 67, 93
1, 29084, Control_c, 0, 64, 110
1, 29098, Control_c, 0, 64, 127
1, 29143, Control_c, 0, 67, 93
1, 29192, Note_on_c, 0, 68, 39
1, 29192, Note_on_c, 0, 72, 44
1, 29228, Note_off_c, 0, 72, 55
1, 29246, Note_off_c, 0, 68, 48
1, 29375, Note_on_c, 0, 85, 64
1, 29385, Note_on_c, 0, 68, 37
1, 29398, Note_off_c, 0, 87, 58
1, 29399, Note_on_c, 0, 72, 13
1, 29442, Note_off_c, 0, 72, 39
1, 29446, Note_off_c, 0, 68, 40
1, 29460, Note_off_c, 0, 63, 40
1, 29557, Note_on_c, 0, 84, 64
1, 29557, Note_off_c, 0, 85, 63
1, 29562, Note_on_c, 0, 72, 42
1, 29564, Control_c, 0, 64, 124
1, 29572, Note_on_c, 0, 68, 43
1, 29579, Control_c, 0, 64, 115
1, 29594, Control_c, 0, 64, 109
1, 29609, Control_c, 0, 64, 105
1, 29625, Control_c, 0, 64, 101
1, 29639, Control_c, 0, 64, 96
1, 29654, Control_c, 0, 64, 91
1, 29669, Control_c, 0, 64, 88
1, 29669, Control_c, 0, 67, 93
1, 29684, Control_c, 0, 64, 84
1, 29699, Control_c, 0, 64, 77
1, 29699, Control_c, 0, 67, 94
1, 29713, Control_c, 0, 64, 69
1, 29713, Control_c, 0, 67, 94
1, 29727, Note_off_c, 0, 68, 50
1, 29728, Control_c, 0, 64, 60
1, 29728, Control_c, 0, 67, 95
1, 29737, Note_off_c, 0, 84, 64
1, 29740, Note_off_c, 0, 72, 20
1, 29743, Control_c, 0, 64, 49
1, 29751, Note_on_c, 0, 87, 60
1, 29758, Note_on_c, 0, 63, 44
1, 29758, Control_c, 0, 64, 35
1, 29773, Control_c, 0, 64, 23
1, 29773, Control_c, 0, 67, 95
1, 29788, Control_c, 0, 64, 17
1, 29788, Control_c, 0, 67, 97
1, 29818, Control_c, 0, 64, 25
1, 29818, Control_c, 0, 67, 97
1, 29833, Control_c, 0, 64, 41
1, 29847, Control_c, 0, 64, 56
1, 29862, Control_c, 0, 64, 65
1, 29877, Control_c, 0, 64, 68
1, 29892, Control_c, 0, 64, 70
1, 29907, Control_c, 0, 64, 72
1, 29921, Control_c, 0, 64, 74
1, 29935, Note_on_c, 0, 85, 61
1, 29936, Control_c, 0, 64, 76
1, 29950, Note_off_c, 0, 87, 58
1, 29951, Control_c, 0, 64, 79
1, 29960, Note_on_c, 0, 73, 27
1, 29963, Note_on_c, 0, 70, 36
1, 29966, Control_c, 0, 64, 81
1, 29981, Control_c, 0, 64, 83
1, 29981, Control_c, 0, 67, 97
1, 30002, Control_c, 0, 64, 85
1, 30013, Note_off_c, 0, 73, 48
1, 30017, Control_c, 0, 64, 86
1, 30022, Note_off_c, 0, 70, 46
1, 30032, Control_c, 0, 64, 87
1, 30047, Control_c, 0, 64, 88
1, 30047, Control_c, 0, 67, 96
1, 30062, Control_c, 0, 64, 88
1, 30092, Control_c, 0, 67, 96
1, 30121, Control_c, 0, 64, 89
1, 30127, Note_off_c, 0, 85, 61
1, 30136, Control_c, 0, 64, 89
1, 30138, Note_on_c, 0, 79, 57
1, 30139, Note_on_c, 0, 73, 46
1, 30146, Note_on_c, 0, 70, 42
1, 30180, Note_off_c, 0, 73, 57
1, 30181, Control_c, 0, 64, 90
1, 30186, Note_off_c, 0, 70, 47
1, 30208, Note_off_c, 0, 79, 65
1, 30239, Control_c, 0, 67, 96
1, 30269, Control_c, 0, 67, 97
1, 30318, Note_on_c, 0, 70, 39
1, 30321, Note_on_c, 0, 73, 30
1, 30354, Note_off_c, 0, 73, 54
1, 30367, Note_off_c, 0, 70, 43
1, 30373, Note_off_c, 0, 63, 44
1, 30387, Control_c, 0, 64, 89
1, 30387, Control_c, 0, 67, 97
1, 30418, Control_c, 0, 67, 98
1, 30433, Control_c, 0, 64, 88
1, 30433, Control_c, 0, 67, 98
1, 30448, Control_c, 0, 64, 83
1, 30448, Control_c, 0, 67, 100
1, 30462, Control_c, 0, 64, 76
1, 30462, Control_c, 0, 67, 105
1, 30477, Control_c, 0, 64, 65
1, 30477, Control_c, 0, 67, 108
1, 30492, Control_c, 0, 64, 54
1, 30492, Control_c, 0, 67, 111
1, 30503, Note_on_c, 0, 80, 56
1, 30507, Control_c, 0, 64, 41
1, 30507, Control_c, 0, 67, 113
1, 30522, Control_c, 0, 64, 26
1, 30522, Control_c, 0, 67, 115
1, 30529, Note_on_c, 0, 72, 31
1, 30530, Note_on_c, 0, 68, 37
1, 30536, Control_c, 0, 64, 19
1, 30536, Control_c, 0, 67, 116
1, 30551, Control_c, 0, 64, 20
1, 30551, Control_c, 0, 67, 117
1, 30566, Control_c, 0, 64, 31
1, 30566, Control_c, 0, 67, 119
1, 30581, Control_c, 0, 64, 50
1, 30581, Control_c, 0, 67, 120
1, 30596, Control_c, 0, 64, 62
1, 30596, Control_c, 0, 67, 121
1, 30600, Note_off_c, 0, 68, 0
1, 30600, Note_on_c, 0, 68, 7
1, 30605, Note_on_c, 0, 87, 50
1, 30611, Control_c, 0, 64, 68
1, 30611, Control_c, 0, 67, 122
1, 30625, Control_c, 0, 64, 72
1, 30625, Control_c, 0, 67, 123
1, 30640, Note_off_c, 0, 80, 0
1, 30640, Control_c, 0, 64, 75
1, 30640, Control_c, 0, 67, 124
1, 30655, Control_c, 0, 64, 76
1, 30663, Note_off_c, 0, 87, 61
1, 30670, Control_c, 0, 64, 78
1, 30670, Control_c, 0, 67, 124
1, 30685, Control_c, 0, 64, 80
1, 30685, Control_c, 0, 67, 125
1, 30700, Note_on_c, 0, 84, 54
1, 30700, Control_c, 0, 64, 82
1, 30700, Control_c, 0, 67, 126
1, 30700, Poly_aftertouch_c, 0, 80, 0
1, 30713, Control_c, 0, 64, 83
1, 30713, Control_c, 0, 67, 127
1, 30728, Control_c, 0, 64, 85
1, 30728, Control_c, 0, 67, 127
1, 30750, Control_c, 0, 64, 86
1, 30751, Note_off_c, 0, 72, 37
1, 30763, Note_off_c, 0, 84, 62
1, 30765, Control_c, 0, 64, 86
1, 30780, Control_c, 0, 64, 87
1, 30786, Note_on_c, 0, 87, 59
1, 30794, Control_c, 0, 64, 88
1, 30809, Control_c, 0, 64, 89
1, 30824, Control_c, 0, 64, 89
1, 30839, Control_c, 0, 64, 90
1, 30843, Note_off_c, 0, 87, 62
1, 30854, Control_c, 0, 64, 90
1, 30868, Control_c, 0, 64, 91
1, 30873, Note_on_c, 0, 92, 62
1, 30883, Control_c, 0, 64, 91
1, 30898, Control_c, 0, 64, 92
1, 30913, Control_c, 0, 64, 92
1, 30929, Note_off_c, 0, 68, 43
1, 30957, Control_c, 0, 64, 93
1, 30964, Note_off_c, 0, 92, 58
1, 30966, Note_on_c, 0, 87, 60
1, 30972, Control_c, 0, 64, 94
1, 30986, Control_c, 0, 64, 95
1, 31001, Control_c, 0, 64, 96
1, 31016, Control_c, 0, 64, 97
1, 31019, Note_off_c, 0, 87, 58
1, 31031, Control_c, 0, 64, 98
1, 31046, Control_c, 0, 64, 99
1, 31053, Note_on_c, 0, 84, 58
1, 31061, Control_c, 0, 64, 100
1, 31076, Control_c, 0, 64, 101
1, 31090, Control_c, 0, 64, 102
1, 31105, Control_c, 0, 64, 103
1, 31114, Note_off_c, 0, 84, 62
1, 31132, Note_on_c, 0, 87, 62
1, 31135, Control_c, 0, 64, 103
1, 31213, Note_off_c, 0, 87, 60
1, 31232, Note_on_c, 0, 80, 59
1, 31272, Note_off_c, 0, 80, 61
1, 31323, Note_on_c, 0, 75, 45
1, 31358, Note_off_c, 0, 75, 61
1, 31395, Note_on_c, 0, 72, 49
1, 31468, Note_on_c, 0, 75, 57
1, 31521, Note_off_c, 0, 72, 53
1, 31553, Note_off_c, 0, 75, 59
1, 31582, Note_on_c, 0, 68, 50
1, 31617, Note_off_c, 0, 68, 59
1, 31674, Note_on_c, 0, 63, 47
1, 31717, Note_off_c, 0, 63, 62
1, 31721, Control_c, 0, 64, 103
1, 31779, Note_on_c, 0, 60, 37
1, 31830, Note_off_c, 0, 60, 46
1, 31837, Note_on_c, 0, 63, 47
1, 31904, Note_off_c, 0, 63, 54
1, 31937, Note_on_c, 0, 56, 43
1, 31980, Note_off_c, 0, 56, 57
1, 31988, Control_c, 0, 64, 102
1, 32037, Note_on_c, 0, 51, 30
1, 32047, Control_c, 0, 64, 102
1, 32074, Note_off_c, 0, 51, 43
1, 32118, Note_on_c, 0, 48, 29
1, 32167, Note_on_c, 0, 51, 53
1, 32176, Note_off_c, 0, 48, 46
1, 32181, Control_c, 0, 64, 101
1, 32211, Control_c, 0, 64, 101
1, 32233, Control_c, 0, 64, 100
1, 32246, Note_off_c, 0, 51, 55
1, 32263, Control_c, 0, 64, 99
1, 32274, Note_on_c, 0, 44, 58
1, 32293, Control_c, 0, 64, 99
1, 32307, Control_c, 0, 64, 98
1, 32310, Note_off_c, 0, 44, 63
1, 32387, Note_on_c, 0, 51, 43
1, 32426, Control_c, 0, 64, 98
1, 32432, Note_off_c, 0, 51, 55
1, 32441, Control_c, 0, 64, 94
1, 32456, Control_c, 0, 64, 85
1, 32464, Note_on_c, 0, 48, 54
1, 32471, Control_c, 0, 64, 74
1, 32486, Control_c, 0, 64, 63
1, 32500, Control_c, 0, 64, 53
1, 32507, Note_off_c, 0, 48, 62
1, 32515, Control_c, 0, 64, 46
1, 32530, Control_c, 0, 64, 39
1, 32545, Control_c, 0, 64, 31
1, 32545, Note_on_c, 0, 51, 45
1, 32559, Control_c, 0, 64, 18
1, 32574, Control_c, 0, 64, 0
1, 32589, Note_off_c, 0, 51, 61
1, 32627, Note_on_c, 0, 46, 56
1, 32633, Control_c, 0, 64, 23
1, 32640, Note_on_c, 0, 43, 42
1, 32648, Control_c, 0, 64, 39
1, 32663, Control_c, 0, 64, 52
1, 32669, Note_on_c, 0, 39, 42
1, 32673, Note_on_c, 0, 34, 41
1, 32678, Control_c, 0, 64, 60
1, 32679, Note_off_c, 0, 43, 50
1, 32693, Control_c, 0, 64, 63
1, 32707, Control_c, 0, 64, 65
1, 32717, Note_off_c, 0, 34, 61
1, 32721, Note_off_c, 0, 46, 60
1, 32722, Control_c, 0, 64, 66
1, 32731, Note_on_c, 0, 51, 34
1, 32734, Note_off_c, 0, 39, 52
1, 32737, Control_c, 0, 64, 68
1, 32752, Control_c, 0, 64, 70
1, 32766, Control_c, 0, 64, 72
1, 32781, Control_c, 0, 64, 74
1, 32793, Note_off_c, 0, 51, 56
1, 32796, Control_c, 0, 64, 75
1, 32812, Control_c, 0, 64, 75
1, 32819, Note_on_c, 0, 49, 53
1, 32870, Note_off_c, 0, 49, 60
1, 32871, Control_c, 0, 64, 76
1, 32918, Note_on_c, 0, 51, 51
1, 32965, Note_off_c, 0, 51, 63
1, 32995, Note_on_c, 0, 55, 56
1, 33027, Control_c, 0, 64, 74
1, 33042, Control_c, 0, 64, 71
1, 33056, Control_c, 0, 64, 65
1, 33058, Note_off_c, 0, 55, 59
1, 33071, Control_c, 0, 64, 55
1, 33080, Note_on_c, 0, 51, 54
1, 33086, Control_c, 0, 64, 35
1, 33101, Control_c, 0, 64, 0
1, 33133, Note_off_c, 0, 51, 60
1, 33163, Note_on_c, 0, 49, 50
1, 33175, Control_c, 0, 64, 34
1, 33189, Control_c, 0, 64, 56
1, 33203, Note_off_c, 0, 49, 63
1, 33204, Control_c, 0, 64, 65
1, 33219, Control_c, 0, 64, 68
1, 33234, Note_on_c, 0, 51, 63
1, 33234, Control_c, 0, 64, 69
1, 33249, Control_c, 0, 64, 71
1, 33262, Note_off_c, 0, 51, 67
1, 33264, Control_c, 0, 64, 73
1, 33278, Control_c, 0, 64, 75
1, 33293, Control_c, 0, 64, 78
1, 33308, Control_c, 0, 64, 80
1, 33323, Control_c, 0, 64, 82
1, 33325, Note_on_c, 0, 55, 57
1, 33334, Note_on_c, 0, 46, 73
1, 33338, Control_c, 0, 64, 84
1, 33353, Control_c, 0, 64, 86
1, 33365, Note_on_c, 0, 34, 50
1, 33366, Note_on_c, 0, 39, 50
1, 33373, Note_off_c, 0, 55, 54
1, 33382, Control_c, 0, 64, 83
1, 33397, Control_c, 0, 64, 75
1, 33412, Control_c, 0, 64, 66
1, 33423, Note_on_c, 0, 63, 54
1, 33427, Control_c, 0, 64, 58
1, 33442, Control_c, 0, 64, 52
1, 33442, Note_off_c, 0, 34, 58
1, 33456, Control_c, 0, 64, 55
1, 33463, Note_off_c, 0, 46, 62
1, 33471, Control_c, 0, 64, 62
1, 33476, Note_off_c, 0, 63, 57
1, 33481, Note_off_c, 0, 39, 58
1, 33486, Control_c, 0, 64, 70
1, 33501, Control_c, 0, 64, 77
1, 33508, Note_on_c, 0, 61, 56
1, 33516, Control_c, 0, 64, 82
1, 33516, Control_c, 0, 67, 126
1, 33530, Control_c, 0, 64, 84
1, 33530, Control_c, 0, 67, 125
1, 33545, Control_c, 0, 64, 85
1, 33560, Control_c, 0, 64, 87
1, 33569, Note_off_c, 0, 61, 60
1, 33575, Control_c, 0, 64, 89
1, 33585, Note_on_c, 0, 63, 65
1, 33589, Control_c, 0, 64, 93
1, 33589, Control_c, 0, 67, 125
1, 33605, Control_c, 0, 64, 97
1, 33605, Control_c, 0, 67, 126
1, 33620, Control_c, 0, 64, 100
1, 33620, Control_c, 0, 67, 126
1, 33635, Control_c, 0, 67, 127
1, 33654, Note_off_c, 0, 63, 63
1, 33665, Control_c, 0, 64, 99
1, 33675, Note_on_c, 0, 67, 64
1, 33679, Control_c, 0, 64, 89
1, 33694, Control_c, 0, 64, 72
1, 33708, Control_c, 0, 64, 60
1, 33723, Control_c, 0, 64, 42
1, 33746, Control_c, 0, 64, 22
1, 33750, Note_off_c, 0, 67, 63
1, 33760, Control_c, 0, 64, 8
1, 33763, Note_on_c, 0, 63, 61
1, 33790, Control_c, 0, 64, 20
1, 33804, Control_c, 0, 64, 39
1, 33812, Note_off_c, 0, 63, 62
1, 33819, Control_c, 0, 64, 56
1, 33834, Control_c, 0, 64, 66
1, 33835, Note_on_c, 0, 61, 62
1, 33849, Control_c, 0, 64, 72
1, 33864, Control_c, 0, 64, 77
1, 33877, Note_off_c, 0, 61, 61
1, 33878, Control_c, 0, 64, 81
1, 33893, Control_c, 0, 64, 85
1, 33908, Control_c, 0, 64, 90
1, 33911, Note_on_c, 0, 63, 68
1, 33923, Control_c, 0, 64, 95
1, 33937, Note_off_c, 0, 63, 68
1, 33938, Control_c, 0, 64, 101
1, 33952, Control_c, 0, 64, 105
1, 33952, Control_c, 0, 67, 127
1, 33967, Control_c, 0, 64, 108
1, 33967, Control_c, 0, 67, 126
1, 33982, Control_c, 0, 64, 109
1, 33982, Control_c, 0, 67, 126
1, 33997, Control_c, 0, 67, 125
1, 34000, Note_on_c, 0, 67, 65
1, 34006, Note_on_c, 0, 46, 72
1, 34012, Control_c, 0, 64, 108
1, 34012, Control_c, 0, 67, 125
1, 34027, Control_c, 0, 64, 95
1, 34027, Control_c, 0, 67, 124
1, 34031, Note_on_c, 0, 39, 54
1, 34036, Note_on_c, 0, 34, 53
1, 34042, Control_c, 0, 64, 77
1, 34042, Control_c, 0, 67, 122
1, 34048, Note_off_c, 0, 67, 55
1, 34056, Control_c, 0, 64, 63
1, 34056, Control_c, 0, 67, 119
1, 34071, Control_c, 0, 64, 50
1, 34071, Control_c, 0, 67, 117
1, 34086, Control_c, 0, 64, 43
1, 34086, Control_c, 0, 67, 115
1, 34097, Note_on_c, 0, 75, 61
1, 34101, Control_c, 0, 64, 50
1, 34101, Control_c, 0, 67, 113
1, 34116, Control_c, 0, 64, 60
1, 34116, Control_c, 0, 67, 112
1, 34131, Control_c, 0, 64, 69
1, 34131, Control_c, 0, 67, 111
1, 34143, Note_off_c, 0, 34, 60
1, 34146, Control_c, 0, 64, 78
1, 34146, Control_c, 0, 67, 111
1, 34160, Control_c, 0, 64, 88
1, 34165, Note_off_c, 0, 46, 62
1, 34170, Note_off_c, 0, 75, 60
1, 34175, Control_c, 0, 64, 92
1, 34175, Control_c, 0, 67, 110
1, 34177, Note_off_c, 0, 39, 52
1, 34183, Note_on_c, 0, 73, 59
1, 34190, Control_c, 0, 64, 94
1, 34190, Control_c, 0, 67, 110
1, 34204, Control_c, 0, 64, 97
1, 34204, Control_c, 0, 67, 109
1, 34219, Control_c, 0, 64, 103
1, 34219, Control_c, 0, 67, 109
1, 34234, Control_c, 0, 64, 110
1, 34243, Note_off_c, 0, 73, 59
1, 34249, Control_c, 0, 64, 118
1, 34264, Note_on_c, 0, 75, 68
1, 34264, Control_c, 0, 64, 127
1, 34278, Control_c, 0, 67, 110
1, 34293, Control_c, 0, 67, 111
1, 34308, Control_c, 0, 67, 112
1, 34323, Control_c, 0, 67, 113
1, 34328, Note_off_c, 0, 75, 64
1, 34338, Control_c, 0, 67, 114
1, 34346, Note_on_c, 0, 79, 68
1, 34352, Control_c, 0, 67, 115
1, 34367, Control_c, 0, 67, 116
1, 34382, Control_c, 0, 64, 94
1, 34382, Control_c, 0, 67, 117
1, 34397, Control_c, 0, 64, 73
1, 34397, Control_c, 0, 67, 118
1, 34413, Control_c, 0, 64, 62
1, 34413, Control_c, 0, 67, 118
1, 34420, Note_off_c, 0, 79, 65
1, 34426, Note_on_c, 0, 75, 66
1, 34427, Control_c, 0, 64, 57
1, 34442, Control_c, 0, 64, 59
1, 34457, Control_c, 0, 64, 64
1, 34472, Control_c, 0, 64, 70
1, 34472, Control_c, 0, 67, 119
1, 34489, Note_off_c, 0, 75, 61
1, 34495, Control_c, 0, 64, 80
1, 34505, Note_on_c, 0, 73, 66
1, 34509, Control_c, 0, 64, 88
1, 34524, Control_c, 0, 64, 90
1, 34539, Control_c, 0, 67, 119
1, 34554, Control_c, 0, 64, 86
1, 34558, Note_off_c, 0, 73, 60
1, 34569, Control_c, 0, 64, 75
1, 34569, Control_c, 0, 67, 120
1, 34583, Control_c, 0, 64, 65
1, 34583, Control_c, 0, 67, 121
1, 34587, Note_on_c, 0, 75, 72
1, 34598, Control_c, 0, 64, 51
1, 34612, Note_off_c, 0, 75, 69
1, 34613, Control_c, 0, 64, 36
1, 34613, Control_c, 0, 67, 121
1, 34628, Control_c, 0, 64, 19
1, 34628, Control_c, 0, 67, 122
1, 34642, Control_c, 0, 64, 0
1, 34685, Note_on_c, 0, 80, 69
1, 34687, Note_on_c, 0, 48, 67
1, 34706, Note_on_c, 0, 39, 55
1, 34706, Note_on_c, 0, 36, 50
1, 34716, Control_c, 0, 64, 34
1, 34731, Control_c, 0, 64, 56
1, 34746, Control_c, 0, 64, 66
1, 34761, Control_c, 0, 64, 70
1, 34775, Control_c, 0, 64, 72
1, 34776, Note_on_c, 0, 87, 59
1, 34788, Note_off_c, 0, 80, 42
1, 34790, Control_c, 0, 64, 75
1, 34799, Note_off_c, 0, 87, 59
1, 34805, Control_c, 0, 64, 78
1, 34805, Control_c, 0, 67, 121
1, 34820, Control_c, 0, 64, 82
1, 34820, Control_c, 0, 67, 121
1, 34828, Note_off_c, 0, 36, 63
1, 34834, Control_c, 0, 64, 87
1, 34834, Control_c, 0, 67, 120
1, 34849, Control_c, 0, 64, 91
1, 34849, Control_c, 0, 67, 119
1, 34855, Note_on_c, 0, 84, 61
1, 34858, Note_off_c, 0, 39, 59
1, 34864, Control_c, 0, 64, 94
1, 34868, Note_off_c, 0, 48, 59
1, 34879, Control_c, 0, 64, 97
1, 34894, Control_c, 0, 64, 99
1, 34909, Control_c, 0, 64, 102
1, 34924, Control_c, 0, 64, 104
1, 34927, Note_off_c, 0, 84, 65
1, 34938, Note_on_c, 0, 87, 66
1, 34939, Control_c, 0, 64, 106
1, 34953, Control_c, 0, 64, 107
1, 34953, Control_c, 0, 67, 120
1, 34968, Control_c, 0, 64, 109
1, 34968, Control_c, 0, 67, 120
1, 34983, Control_c, 0, 64, 109
1, 34998, Control_c, 0, 64, 110
1, 34998, Control_c, 0, 67, 121
1, 34998, Note_off_c, 0, 87, 65
1, 35013, Control_c, 0, 64, 111
1, 35013, Control_c, 0, 67, 121
1, 35020, Note_on_c, 0, 92, 68
1, 35027, Control_c, 0, 64, 112
1, 35042, Control_c, 0, 64, 113
1, 35072, Control_c, 0, 64, 113
1, 35103, Note_off_c, 0, 92, 63
1, 35106, Note_on_c, 0, 87, 67
1, 35145, Control_c, 0, 67, 122
1, 35162, Note_off_c, 0, 87, 60
1, 35175, Control_c, 0, 64, 113
1, 35184, Note_on_c, 0, 84, 64
1, 35190, Control_c, 0, 64, 110
1, 35207, Control_c, 0, 64, 103
1, 35222, Control_c, 0, 64, 95
1, 35244, Control_c, 0, 64, 89
1, 35244, Control_c, 0, 67, 121
1, 35258, Note_off_c, 0, 84, 65
1, 35258, Control_c, 0, 64, 85
1, 35272, Note_on_c, 0, 87, 69
1, 35273, Control_c, 0, 64, 85
1, 35273, Control_c, 0, 67, 122
1, 35288, Control_c, 0, 64, 85
1, 35303, Control_c, 0, 67, 121
1, 35318, Control_c, 0, 64, 87
1, 35332, Control_c, 0, 64, 88
1, 35332, Control_c, 0, 67, 121
1, 35339, Note_off_c, 0, 87, 64
1, 35347, Control_c, 0, 64, 88
1, 35350, Note_on_c, 0, 80, 68
1, 35388, Note_off_c, 0, 80, 61
1, 35392, Control_c, 0, 64, 89
1, 35392, Control_c, 0, 67, 121
1, 35420, Note_on_c, 0, 75, 55
1, 35452, Control_c, 0, 67, 122
1, 35462, Note_off_c, 0, 75, 62
1, 35466, Control_c, 0, 67, 122
1, 35481, Control_c, 0, 67, 123
1, 35496, Note_on_c, 0, 72, 56
1, 35496, Control_c, 0, 64, 88
1, 35511, Control_c, 0, 64, 87
1, 35511, Control_c, 0, 67, 123
1, 35540, Control_c, 0, 67, 124
1, 35555, Control_c, 0, 64, 89
1, 35555, Control_c, 0, 67, 125
1, 35570, Control_c, 0, 64, 94
1, 35570, Control_c, 0, 67, 125
1, 35579, Note_on_c, 0, 75, 58
1, 35584, Control_c, 0, 64, 102
1, 35584, Control_c, 0, 67, 127
1, 35599, Control_c, 0, 64, 113
1, 35599, Control_c, 0, 67, 127
1, 35629, Control_c, 0, 64, 103
1, 35644, Control_c, 0, 64, 87
1, 35647, Note_off_c, 0, 72, 29
1, 35650, Note_off_c, 0, 75, 55
1, 35658, Control_c, 0, 64, 74
1, 35664, Note_on_c, 0, 68, 54
1, 35673, Control_c, 0, 64, 65
1, 35688, Control_c, 0, 64, 62
1, 35703, Control_c, 0, 64, 65
1, 35712, Note_off_c, 0, 68, 59
1, 35718, Control_c, 0, 64, 70
1, 35732, Control_c, 0, 64, 78
1, 35747, Control_c, 0, 64, 89
1, 35756, Note_on_c, 0, 63, 58
1, 35762, Control_c, 0, 64, 98
1, 35776, Control_c, 0, 64, 99
1, 35791, Control_c, 0, 67, 127
1, 35803, Note_off_c, 0, 63, 60
1, 35806, Control_c, 0, 64, 99
1, 35806, Control_c, 0, 67, 126
1, 35821, Control_c, 0, 67, 125
1, 35851, Control_c, 0, 67, 125
1, 35857, Note_on_c, 0, 60, 40
1, 35896, Control_c, 0, 64, 100
1, 35896, Control_c, 0, 67, 125
1, 35903, Note_off_c, 0, 60, 59
1, 35911, Control_c, 0, 64, 100
1, 35921, Note_on_c, 0, 63, 55
1, 35925, Control_c, 0, 64, 101
1, 35925, Control_c, 0, 67, 126
1, 35940, Control_c, 0, 64, 102
1, 35940, Control_c, 0, 67, 126
1, 35955, Control_c, 0, 64, 102
1, 35976, Control_c, 0, 64, 98
1, 35976, Control_c, 0, 67, 127
1, 35991, Control_c, 0, 64, 84
1, 36007, Control_c, 0, 64, 69
1, 36022, Control_c, 0, 64, 58
1, 36025, Note_off_c, 0, 63, 58
1, 36030, Note_on_c, 0, 56, 43
1, 36037, Control_c, 0, 64, 49
1, 36052, Control_c, 0, 64, 47
1, 36052, Control_c, 0, 67, 126
1, 36067, Control_c, 0, 64, 52
1, 36071, Note_on_c, 0, 51, 45
1, 36081, Control_c, 0, 64, 60
1, 36096, Control_c, 0, 64, 66
1, 36102, Note_off_c, 0, 56, 59
1, 36111, Control_c, 0, 64, 72
1, 36113, Note_off_c, 0, 51, 63
1, 36126, Control_c, 0, 64, 77
1, 36141, Control_c, 0, 64, 79
1, 36155, Control_c, 0, 64, 80
1, 36170, Control_c, 0, 64, 81
1, 36181, Note_on_c, 0, 48, 41
1, 36185, Control_c, 0, 64, 83
1, 36200, Control_c, 0, 64, 87
1, 36215, Control_c, 0, 64, 90
1, 36224, Note_off_c, 0, 48, 49
1, 36230, Control_c, 0, 64, 95
1, 36230, Control_c, 0, 67, 127
1, 36243, Note_on_c, 0, 51, 52
1, 36244, Control_c, 0, 64, 99
1, 36259, Control_c, 0, 64, 103
1, 36259, Control_c, 0, 67, 127
1, 36274, Control_c, 0, 64, 103
1, 36289, Control_c, 0, 64, 103
1, 36304, Control_c, 0, 64, 96
1, 36319, Control_c, 0, 64, 85
1, 36324, Note_off_c, 0, 51, 57
1, 36333, Note_on_c, 0, 44, 57
1, 36334, Control_c, 0, 64, 75
1, 36349, Control_c, 0, 64, 69
1, 36349, Control_c, 0, 67, 127
1, 36363, Control_c, 0, 64, 67
1, 36363, Control_c, 0, 67, 126
1, 36378, Note_off_c, 0, 44, 63
1, 36378, Control_c, 0, 64, 68
1, 36378, Control_c, 0, 67, 126
1, 36393, Control_c, 0, 64, 70
1, 36393, Control_c, 0, 67, 124
1, 36407, Control_c, 0, 64, 75
1, 36407, Control_c, 0, 67, 123
1, 36422, Control_c, 0, 64, 79
1, 36422, Control_c, 0, 67, 122
1, 36426, Note_on_c, 0, 51, 37
1, 36437, Control_c, 0, 64, 81
1, 36437, Control_c, 0, 67, 121
1, 36471, Note_off_c, 0, 51, 62
1, 36496, Control_c, 0, 67, 122
1, 36505, Note_on_c, 0, 48, 57
1, 36511, Control_c, 0, 67, 122
1, 36526, Control_c, 0, 67, 123
1, 36541, Control_c, 0, 67, 124
1, 36555, Control_c, 0, 64, 80
1, 36555, Control_c, 0, 67, 125
1, 36567, Note_off_c, 0, 48, 60
1, 36570, Control_c, 0, 64, 79
1, 36570, Control_c, 0, 67, 125
1, 36585, Control_c, 0, 64, 77
1, 36585, Control_c, 0, 67, 126
1, 36586, Note_on_c, 0, 51, 52
1, 36599, Control_c, 0, 64, 73
1, 36599, Control_c, 0, 67, 126
1, 36614, Control_c, 0, 64, 68
1, 36614, Control_c, 0, 67, 127
1, 36629, Control_c, 0, 64, 63
1, 36640, Note_off_c, 0, 51, 59
1, 36644, Control_c, 0, 64, 58
1, 36659, Control_c, 0, 64, 51
1, 36674, Control_c, 0, 64, 44
1, 36689, Control_c, 0, 64, 32
1, 36692, Note_on_c, 0, 43, 65
1, 36696, Note_on_c, 0, 46, 45
1, 36703, Control_c, 0, 64, 8
1, 36703, Control_c, 0, 67, 126
1, 36726, Control_c, 0, 64, 0
1, 36736, Note_on_c, 0, 31, 44
1, 36736, Note_on_c, 0, 39, 43
1, 36741, Control_c, 0, 67, 126
1, 36755, Control_c, 0, 64, 9
1, 36755, Control_c, 0, 67, 125
1, 36770, Control_c, 0, 64, 37
1, 36770, Control_c, 0, 67, 124
1, 36773, Note_off_c, 0, 46, 51
1, 36785, Control_c, 0, 64, 55
1, 36785, Control_c, 0, 67, 124
1, 36801, Control_c, 0, 64, 65
1, 36801, Control_c, 0, 67, 123
1, 36806, Note_on_c, 0, 51, 42
1, 36813, Note_off_c, 0, 31, 61
1, 36816, Control_c, 0, 64, 68
1, 36816, Control_c, 0, 67, 121
1, 36830, Note_off_c, 0, 43, 61
1, 36830, Control_c, 0, 64, 70
1, 36830, Control_c, 0, 67, 120
1, 36845, Control_c, 0, 64, 72
1, 36845, Control_c, 0, 67, 119
1, 36850, Note_off_c, 0, 39, 54
1, 36860, Control_c, 0, 64, 75
1, 36860, Control_c, 0, 67, 118
1, 36863, Note_off_c, 0, 51, 58
1, 36875, Control_c, 0, 64, 78
1, 36875, Control_c, 0, 67, 117
1, 36890, Control_c, 0, 64, 81
1, 36890, Control_c, 0, 67, 115
1, 36897, Note_on_c, 0, 49, 49
1, 36904, Control_c, 0, 64, 84
1, 36904, Control_c, 0, 67, 113
1, 36919, Control_c, 0, 64, 88
1, 36919, Control_c, 0, 67, 111
1, 36934, Control_c, 0, 64, 91
1, 36934, Control_c, 0, 67, 109
1, 36939, Note_off_c, 0, 49, 62
1, 36949, Control_c, 0, 64, 95
1, 36949, Control_c, 0, 67, 108
1, 36964, Control_c, 0, 64, 97
1, 36964, Control_c, 0, 67, 107
1, 36973, Note_on_c, 0, 51, 59
1, 36978, Control_c, 0, 64, 98
1, 36978, Control_c, 0, 67, 107
1, 37008, Control_c, 0, 64, 97
1, 37008, Control_c, 0, 67, 107
1, 37021, Note_off_c, 0, 51, 62
1, 37023, Control_c, 0, 64, 92
1, 37023, Control_c, 0, 67, 108
1, 37037, Control_c, 0, 64, 80
1, 37037, Control_c, 0, 67, 110
1, 37046, Note_on_c, 0, 58, 64
1, 37052, Control_c, 0, 64, 70
1, 37052, Control_c, 0, 67, 111
1, 37067, Control_c, 0, 64, 62
1, 37067, Control_c, 0, 67, 112
1, 37082, Control_c, 0, 64, 58
1, 37082, Control_c, 0, 67, 113
1, 37097, Control_c, 0, 64, 60
1, 37097, Control_c, 0, 67, 113
1, 37112, Control_c, 0, 64, 66
1, 37112, Control_c, 0, 67, 114
1, 37118, Note_off_c, 0, 58, 65
1, 37127, Control_c, 0, 64, 71
1, 37127, Control_c, 0, 67, 115
1, 37132, Note_on_c, 0, 51, 61
1, 37142, Control_c, 0, 64, 78
1, 37142, Control_c, 0, 67, 116
1, 37157, Control_c, 0, 64, 83
1, 37157, Control_c, 0, 67, 117
1, 37172, Control_c, 0, 64, 85
1, 37172, Control_c, 0, 67, 117
1, 37178, Note_off_c, 0, 51, 60
1, 37186, Control_c, 0, 64, 86
1, 37186, Control_c, 0, 67, 117
1, 37201, Control_c, 0, 64, 88
1, 37207, Note_on_c, 0, 49, 63
1, 37216, Control_c, 0, 64, 93
1, 37216, Control_c, 0, 67, 118
1, 37230, Control_c, 0, 64, 99
1, 37230, Control_c, 0, 67, 118
1, 37245, Control_c, 0, 64, 105
1, 37245, Control_c, 0, 67, 119
1, 37253, Note_off_c, 0, 49, 62
1, 37260, Control_c, 0, 64, 111
1, 37260, Control_c, 0, 67, 119
1, 37275, Control_c, 0, 64, 116
1, 37279, Note_on_c, 0, 51, 65
1, 37290, Control_c, 0, 64, 117
1, 37304, Control_c, 0, 67, 120
1, 37306, Note_off_c, 0, 51, 67
1, 37319, Control_c, 0, 64, 115
1, 37319, Control_c, 0, 67, 121
1, 37334, Control_c, 0, 64, 98
1, 37334, Control_c, 0, 67, 121
1, 37348, Control_c, 0, 64, 81
1, 37363, Control_c, 0, 64, 66
1, 37378, Control_c, 0, 64, 52
1, 37385, Note_on_c, 0, 43, 72
1, 37393, Control_c, 0, 64, 34
1, 37398, Note_on_c, 0, 58, 60
1, 37408, Control_c, 0, 64, 23
1, 37409, Note_on_c, 0, 31, 53
1, 37411, Note_on_c, 0, 39, 53
1, 37422, Control_c, 0, 64, 25
1, 37437, Control_c, 0, 64, 36
1, 37452, Control_c, 0, 64, 51
1, 37467, Control_c, 0, 64, 63
1, 37482, Note_off_c, 0, 58, 49
1, 37488, Note_on_c, 0, 63, 56
1, 37489, Control_c, 0, 64, 70
1, 37503, Control_c, 0, 64, 75
1, 37503, Control_c, 0, 67, 122
1, 37518, Note_off_c, 0, 31, 61
1, 37518, Control_c, 0, 64, 80
1, 37530, Note_off_c, 0, 43, 61
1, 37533, Control_c, 0, 64, 82
1, 37533, Control_c, 0, 67, 123
1, 37548, Control_c, 0, 64, 83
1, 37551, Note_off_c, 0, 63, 61
1, 37552, Note_off_c, 0, 39, 60
1, 37562, Control_c, 0, 64, 85
1, 37575, Note_on_c, 0, 61, 60
1, 37577, Control_c, 0, 64, 87
1, 37577, Control_c, 0, 67, 123
1, 37592, Control_c, 0, 64, 89
1, 37608, Control_c, 0, 64, 90
1, 37623, Control_c, 0, 64, 91
1, 37623, Control_c, 0, 67, 124
1, 37628, Note_off_c, 0, 61, 60
1, 37638, Control_c, 0, 64, 92
1, 37638, Control_c, 0, 67, 124
1, 37652, Control_c, 0, 64, 94
1, 37652, Control_c, 0, 67, 125
1, 37654, Note_on_c, 0, 63, 74
1, 37667, Control_c, 0, 64, 99
1, 37682, Control_c, 0, 64, 103
1, 37697, Control_c, 0, 64, 106
1, 37697, Control_c, 0, 67, 125
1, 37712, Control_c, 0, 64, 106
1, 37712, Control_c, 0, 67, 126
1, 37718, Note_off_c, 0, 63, 63
1, 37726, Control_c, 0, 67, 126
1, 37739, Note_on_c, 0, 70, 71
1, 37741, Control_c, 0, 64, 106
1, 37756, Control_c, 0, 64, 101
1, 37771, Control_c, 0, 64, 87
1, 37786, Control_c, 0, 64, 73
1, 37786, Control_c, 0, 67, 127
1, 37800, Control_c, 0, 64, 62
1, 37800, Control_c, 0, 67, 127
1, 37815, Note_off_c, 0, 70, 63
1, 37815, Control_c, 0, 64, 50
1, 37821, Note_on_c, 0, 63, 65
1, 37830, Control_c, 0, 64, 49
1, 37845, Control_c, 0, 64, 55
1, 37860, Control_c, 0, 64, 62
1, 37872, Note_off_c, 0, 63, 61
1, 37875, Control_c, 0, 64, 69
1, 37890, Control_c, 0, 64, 76
1, 37895, Note_on_c, 0, 61, 66
1, 37905, Control_c, 0, 64, 85
1, 37920, Control_c, 0, 64, 91
1, 37934, Control_c, 0, 64, 93
1, 37940, Note_off_c, 0, 61, 61
1, 37949, Control_c, 0, 64, 96
1, 37964, Control_c, 0, 64, 102
1, 37978, Note_on_c, 0, 63, 71
1, 37979, Control_c, 0, 64, 107
1, 37994, Control_c, 0, 64, 108
1, 38000, Note_off_c, 0, 63, 66
1, 38008, Control_c, 0, 64, 107
1, 38023, Control_c, 0, 64, 103
1, 38038, Control_c, 0, 64, 88
1, 38052, Control_c, 0, 64, 72
1, 38067, Control_c, 0, 64, 59
1, 38078, Note_on_c, 0, 43, 64
1, 38082, Control_c, 0, 64, 42
1, 38090, Note_on_c, 0, 70, 58
1, 38097, Control_c, 0, 64, 26
1, 38099, Note_on_c, 0, 39, 51
1, 38100, Note_on_c, 0, 31, 47
1, 38112, Control_c, 0, 64, 24
1, 38126, Control_c, 0, 64, 34
1, 38140, Note_off_c, 0, 70, 51
1, 38141, Control_c, 0, 64, 48
1, 38156, Control_c, 0, 64, 61
1, 38167, Note_on_c, 0, 75, 60
1, 38170, Control_c, 0, 64, 69
1, 38185, Control_c, 0, 64, 74
1, 38200, Control_c, 0, 64, 80
1, 38215, Control_c, 0, 64, 84
1, 38227, Note_off_c, 0, 43, 60
1, 38228, Note_off_c, 0, 31, 50
1, 38233, Note_off_c, 0, 75, 55
1, 38238, Control_c, 0, 64, 86
1, 38252, Control_c, 0, 64, 90
1, 38260, Note_off_c, 0, 39, 57
1, 38265, Note_on_c, 0, 73, 60
1, 38267, Control_c, 0, 64, 93
1, 38282, Control_c, 0, 64, 97
1, 38297, Control_c, 0, 64, 100
1, 38310, Note_off_c, 0, 73, 60
1, 38312, Control_c, 0, 64, 103
1, 38326, Control_c, 0, 64, 105
1, 38341, Control_c, 0, 64, 108
1, 38343, Note_on_c, 0, 75, 71
1, 38356, Control_c, 0, 64, 111
1, 38371, Control_c, 0, 64, 113
1, 38407, Note_off_c, 0, 75, 64
1, 38417, Control_c, 0, 64, 111
1, 38431, Control_c, 0, 64, 99
1, 38433, Note_on_c, 0, 82, 69
1, 38446, Control_c, 0, 64, 84
1, 38461, Control_c, 0, 64, 73
1, 38475, Control_c, 0, 64, 67
1, 38490, Control_c, 0, 64, 67
1, 38505, Control_c, 0, 64, 69
1, 38510, Note_off_c, 0, 82, 62
1, 38516, Note_on_c, 0, 75, 60
1, 38520, Control_c, 0, 64, 75
1, 38535, Control_c, 0, 64, 83
1, 38549, Control_c, 0, 64, 90
1, 38557, Note_off_c, 0, 75, 61
1, 38564, Control_c, 0, 64, 91
1, 38587, Note_on_c, 0, 73, 59
1, 38608, Control_c, 0, 64, 90
1, 38623, Control_c, 0, 64, 85
1, 38629, Note_off_c, 0, 73, 62
1, 38638, Control_c, 0, 64, 79
1, 38653, Control_c, 0, 64, 72
1, 38668, Note_on_c, 0, 75, 62
1, 38668, Control_c, 0, 64, 64
1, 38683, Control_c, 0, 64, 56
1, 38698, Control_c, 0, 64, 44
1, 38704, Note_off_c, 0, 75, 63
1, 38713, Control_c, 0, 64, 19
1, 38728, Control_c, 0, 64, 0
1, 38764, Note_on_c, 0, 44, 57
1, 38769, Note_on_c, 0, 72, 57
1, 38784, Note_on_c, 0, 32, 43
1, 38799, Note_on_c, 0, 39, 47
1, 38816, Control_c, 0, 64, 44
1, 38831, Control_c, 0, 64, 60
1, 38846, Control_c, 0, 64, 67
1, 38861, Control_c, 0, 64, 69
1, 38865, Note_on_c, 0, 80, 51
1, 38875, Control_c, 0, 64, 71
1, 38890, Control_c, 0, 64, 74
1, 38905, Control_c, 0, 64, 77
1, 38911, Note_off_c, 0, 80, 60
1, 38912, Note_off_c, 0, 32, 59
1, 38920, Control_c, 0, 64, 81
1, 38920, Control_c, 0, 67, 126
1, 38935, Control_c, 0, 64, 85
1, 38940, Note_on_c, 0, 75, 58
1, 38944, Note_off_c, 0, 72, 26
1, 38948, Note_off_c, 0, 44, 54
1, 38950, Control_c, 0, 64, 87
1, 38950, Control_c, 0, 67, 126
1, 38954, Note_off_c, 0, 39, 55
1, 38965, Control_c, 0, 64, 88
1, 38965, Control_c, 0, 67, 125
1, 38987, Control_c, 0, 64, 89
1, 38987, Control_c, 0, 67, 125
1, 38996, Note_off_c, 0, 75, 59
1, 39002, Control_c, 0, 64, 90
1, 39002, Control_c, 0, 67, 124
1, 39017, Control_c, 0, 64, 91
1, 39024, Note_on_c, 0, 80, 64
1, 39032, Control_c, 0, 64, 93
1, 39032, Control_c, 0, 67, 124
1, 39046, Control_c, 0, 64, 96
1, 39061, Control_c, 0, 64, 98
1, 39061, Control_c, 0, 67, 123
1, 39076, Control_c, 0, 64, 100
1, 39091, Note_off_c, 0, 80, 61
1, 39091, Control_c, 0, 64, 101
1, 39091, Control_c, 0, 67, 123
1, 39106, Control_c, 0, 64, 102
1, 39121, Control_c, 0, 64, 103
1, 39121, Control_c, 0, 67, 122
1, 39127, Note_on_c, 0, 84, 60
1, 39135, Control_c, 0, 64, 104
1, 39150, Control_c, 0, 64, 105
1, 39150, Control_c, 0, 67, 122
1, 39180, Control_c, 0, 67, 121
1, 39192, Note_off_c, 0, 84, 61
1, 39210, Control_c, 0, 67, 122
1, 39217, Note_on_c, 0, 80, 55
1, 39256, Note_off_c, 0, 80, 62
1, 39288, Note_on_c, 0, 75, 52
1, 39339, Note_off_c, 0, 75, 60
1, 39353, Note_on_c, 0, 80, 62
1, 39420, Note_off_c, 0, 80, 61
1, 39441, Note_on_c, 0, 72, 60
1, 39481, Note_off_c, 0, 72, 63
1, 39511, Note_on_c, 0, 68, 53
1, 39557, Note_off_c, 0, 68, 60
1, 39565, Control_c, 0, 67, 122
1, 39595, Control_c, 0, 67, 123
1, 39605, Note_on_c, 0, 63, 50
1, 39640, Control_c, 0, 67, 123
1, 39674, Note_on_c, 0, 68, 58
1, 39684, Control_c, 0, 64, 106
1, 39684, Control_c, 0, 67, 124
1, 39696, Note_off_c, 0, 63, 40
1, 39699, Control_c, 0, 64, 107
1, 39714, Control_c, 0, 64, 109
1, 39735, Note_off_c, 0, 68, 57
1, 39736, Control_c, 0, 64, 112
1, 39751, Control_c, 0, 64, 113
1, 39780, Control_c, 0, 67, 123
1, 39795, Control_c, 0, 67, 123
1, 39803, Note_on_c, 0, 60, 29
1, 39825, Control_c, 0, 67, 122
1, 39839, Control_c, 0, 67, 122
1, 39843, Note_off_c, 0, 60, 47
1, 39854, Control_c, 0, 67, 121
1, 39866, Note_on_c, 0, 56, 56
1, 39884, Control_c, 0, 67, 121
1, 39899, Control_c, 0, 67, 120
1, 39920, Note_off_c, 0, 56, 58
1, 39929, Control_c, 0, 67, 120
1, 39944, Control_c, 0, 67, 119
1, 39965, Note_on_c, 0, 51, 44
1, 39973, Control_c, 0, 64, 113
1, 39973, Control_c, 0, 67, 119
1, 40018, Control_c, 0, 67, 119
1, 40030, Note_off_c, 0, 51, 55
1, 40034, Note_on_c, 0, 56, 56
1, 40063, Control_c, 0, 67, 120
1, 40093, Control_c, 0, 64, 105
1, 40093, Control_c, 0, 67, 120
1, 40105, Note_off_c, 0, 56, 58
1, 40108, Control_c, 0, 64, 90
1, 40119, Note_on_c, 0, 48, 58
1, 40122, Control_c, 0, 64, 74
1, 40137, Control_c, 0, 64, 64
1, 40152, Control_c, 0, 64, 59
1, 40167, Control_c, 0, 64, 59
1, 40182, Control_c, 0, 64, 62
1, 40194, Note_off_c, 0, 48, 53
1, 40196, Control_c, 0, 64, 65
1, 40211, Control_c, 0, 64, 69
1, 40211, Control_c, 0, 67, 120
1, 40223, Note_on_c, 0, 56, 52
1, 40226, Control_c, 0, 64, 74
1, 40241, Control_c, 0, 64, 79
1, 40241, Control_c, 0, 67, 120
1, 40255, Control_c, 0, 64, 82
1, 40270, Control_c, 0, 64, 84
1, 40271, Note_off_c, 0, 56, 61
1, 40285, Control_c, 0, 64, 87
1, 40295, Note_on_c, 0, 51, 53
1, 40300, Control_c, 0, 64, 89
1, 40315, Control_c, 0, 64, 91
1, 40329, Control_c, 0, 64, 92
1, 40329, Control_c, 0, 67, 121
1, 40342, Note_off_c, 0, 51, 62
1, 40359, Control_c, 0, 67, 121
1, 40365, Note_on_c, 0, 56, 66
1, 40388, Control_c, 0, 64, 89
1, 40403, Control_c, 0, 64, 80
1, 40403, Control_c, 0, 67, 122
1, 40418, Control_c, 0, 64, 67
1, 40433, Control_c, 0, 64, 58
1, 40434, Note_off_c, 0, 56, 60
1, 40448, Control_c, 0, 64, 50
1, 40470, Control_c, 0, 64, 49
1, 40471, Note_on_c, 0, 60, 56
1, 40485, Control_c, 0, 64, 51
1, 40500, Control_c, 0, 64, 55
1, 40515, Control_c, 0, 64, 61
1, 40529, Control_c, 0, 64, 65
1, 40544, Control_c, 0, 64, 69
1, 40549, Note_on_c, 0, 56, 58
1, 40549, Note_off_c, 0, 60, 55
1, 40559, Control_c, 0, 64, 72
1, 40559, Control_c, 0, 67, 121
1, 40573, Control_c, 0, 64, 77
1, 40588, Control_c, 0, 64, 81
1, 40603, Control_c, 0, 64, 85
1, 40617, Note_off_c, 0, 56, 60
1, 40618, Control_c, 0, 64, 87
1, 40618, Control_c, 0, 67, 122
1, 40626, Note_on_c, 0, 51, 58
1, 40633, Control_c, 0, 64, 89
1, 40647, Control_c, 0, 64, 91
1, 40662, Control_c, 0, 64, 93
1, 40677, Control_c, 0, 64, 93
1, 40699, Note_off_c, 0, 51, 63
1, 40715, Note_on_c, 0, 56, 58
1, 40781, Note_off_c, 0, 56, 60
1, 40797, Control_c, 0, 64, 93
1, 40797, Control_c, 0, 67, 122
1, 40812, Control_c, 0, 64, 90
1, 40826, Note_on_c, 0, 50, 53
1, 40826, Control_c, 0, 64, 84
1, 40826, Control_c, 0, 67, 123
1, 40839, Note_on_c, 0, 41, 69
1, 40841, Control_c, 0, 64, 75
1, 40856, Control_c, 0, 64, 65
1, 40871, Control_c, 0, 64, 55
1, 40882, Note_on_c, 0, 29, 32
1, 40886, Control_c, 0, 64, 41
1, 40886, Control_c, 0, 67, 122
1, 40901, Control_c, 0, 64, 32
1, 40901, Control_c, 0, 67, 122
1, 40911, Note_off_c, 0, 50, 48
1, 40916, Control_c, 0, 64, 29
1, 40930, Control_c, 0, 64, 30
1, 40930, Control_c, 0, 67, 121
1, 40941, Note_on_c, 0, 58, 49
1, 40945, Control_c, 0, 64, 37
1, 40960, Control_c, 0, 64, 52
1, 40960, Control_c, 0, 67, 121
1, 40975, Control_c, 0, 64, 63
1, 40990, Control_c, 0, 64, 70
1, 40990, Control_c, 0, 67, 120
1, 41004, Control_c, 0, 64, 75
1, 41004, Control_c, 0, 67, 120
1, 41015, Note_off_c, 0, 58, 60
1, 41019, Control_c, 0, 64, 80
1, 41031, Note_on_c, 0, 56, 61
1, 41034, Note_off_c, 0, 29, 53
1, 41034, Control_c, 0, 64, 83
1, 41034, Control_c, 0, 67, 119
1, 41049, Control_c, 0, 64, 86
1, 41063, Note_off_c, 0, 41, 58
1, 41064, Control_c, 0, 64, 89
1, 41064, Control_c, 0, 67, 119
1, 41078, Control_c, 0, 64, 93
1, 41093, Control_c, 0, 64, 97
1, 41094, Note_off_c, 0, 56, 55
1, 41108, Control_c, 0, 64, 100
1, 41123, Control_c, 0, 64, 105
1, 41129, Note_on_c, 0, 58, 62
1, 41138, Control_c, 0, 64, 108
1, 41152, Control_c, 0, 64, 111
1, 41167, Control_c, 0, 64, 113
1, 41178, Note_off_c, 0, 58, 63
1, 41182, Control_c, 0, 64, 114
1, 41199, Note_on_c, 0, 62, 68
1, 41219, Control_c, 0, 64, 115
1, 41249, Control_c, 0, 67, 119
1, 41278, Control_c, 0, 67, 120
1, 41279, Note_off_c, 0, 62, 64
1, 41292, Note_on_c, 0, 58, 62
1, 41323, Control_c, 0, 67, 120
1, 41336, Note_off_c, 0, 58, 61
1, 41352, Control_c, 0, 67, 121
1, 41359, Note_on_c, 0, 56, 65
1, 41367, Control_c, 0, 67, 121
1, 41396, Control_c, 0, 67, 122
1, 41408, Note_off_c, 0, 56, 60
1, 41438, Note_on_c, 0, 58, 69
1, 41456, Control_c, 0, 64, 115
1, 41456, Control_c, 0, 67, 122
1, 41466, Note_off_c, 0, 58, 67
1, 41485, Control_c, 0, 67, 123
1, 41515, Control_c, 0, 64, 113
1, 41530, Control_c, 0, 64, 94
1, 41533, Note_on_c, 0, 62, 64
1, 41542, Note_on_c, 0, 53, 73
1, 41544, Control_c, 0, 64, 77
1, 41559, Control_c, 0, 64, 63
1, 41574, Control_c, 0, 64, 46
1, 41574, Control_c, 0, 67, 122
1, 41577, Note_off_c, 0, 62, 55
1, 41580, Note_on_c, 0, 46, 45
1, 41585, Note_on_c, 0, 41, 41
1, 41589, Control_c, 0, 64, 21
1, 41605, Control_c, 0, 64, 0
1, 41619, Control_c, 0, 67, 122
1, 41629, Note_on_c, 0, 70, 66
1, 41634, Control_c, 0, 64, 14
1, 41649, Control_c, 0, 64, 36
1, 41664, Control_c, 0, 64, 55
1, 41679, Control_c, 0, 64, 65
1, 41694, Control_c, 0, 64, 71
1, 41708, Note_off_c, 0, 70, 61
1, 41708, Control_c, 0, 64, 75
1, 41720, Note_on_c, 0, 68, 64
1, 41723, Control_c, 0, 64, 79
1, 41738, Control_c, 0, 64, 83
1, 41753, Control_c, 0, 64, 86
1, 41768, Control_c, 0, 64, 90
1, 41783, Control_c, 0, 64, 93
1, 41783, Control_c, 0, 67, 122
1, 41784, Note_off_c, 0, 68, 61
1, 41797, Note_on_c, 0, 70, 74
1, 41798, Control_c, 0, 64, 95
1, 41798, Note_off_c, 0, 53, 60
1, 41813, Control_c, 0, 64, 97
1, 41813, Control_c, 0, 67, 123
1, 41827, Control_c, 0, 64, 99
1, 41834, Note_off_c, 0, 41, 30
1, 41842, Control_c, 0, 64, 99
1, 41846, Note_off_c, 0, 46, 46
1, 41857, Control_c, 0, 64, 100
1, 41863, Note_off_c, 0, 70, 62
1, 41880, Note_on_c, 0, 74, 72
1, 41951, Note_on_c, 0, 70, 70
1, 41959, Note_off_c, 0, 74, 64
1, 41959, Control_c, 0, 67, 122
1, 41981, Control_c, 0, 67, 122
1, 42018, Note_off_c, 0, 70, 63
1, 42036, Note_on_c, 0, 68, 72
1, 42040, Control_c, 0, 67, 121
1, 42055, Control_c, 0, 64, 101
1, 42070, Control_c, 0, 64, 103
1, 42085, Control_c, 0, 64, 105
1, 42096, Note_off_c, 0, 68, 64
1, 42099, Control_c, 0, 64, 107
1, 42114, Control_c, 0, 64, 108
1, 42118, Note_on_c, 0, 70, 68
1, 42129, Control_c, 0, 64, 107
1, 42129, Control_c, 0, 67, 122
1, 42141, Note_off_c, 0, 70, 65
1, 42144, Control_c, 0, 64, 96
1, 42159, Control_c, 0, 64, 78
1, 42159, Control_c, 0, 67, 122
1, 42173, Control_c, 0, 64, 64
1, 42188, Control_c, 0, 64, 47
1, 42195, Note_on_c, 0, 51, 79
1, 42203, Control_c, 0, 64, 19
1, 42215, Note_on_c, 0, 75, 72
1, 42218, Control_c, 0, 64, 0
1, 42218, Control_c, 0, 67, 123
1, 42221, Note_on_c, 0, 46, 57
1, 42237, Note_on_c, 0, 39, 47
1, 42263, Control_c, 0, 64, 13
1, 42278, Control_c, 0, 64, 41
1, 42292, Note_on_c, 0, 82, 69
1, 42292, Control_c, 0, 64, 59
1, 42305, Note_off_c, 0, 75, 58
1, 42307, Control_c, 0, 64, 67
1, 42322, Control_c, 0, 64, 71
1, 42336, Control_c, 0, 64, 74
1, 42336, Control_c, 0, 67, 122
1, 42351, Control_c, 0, 64, 76
1, 42365, Note_off_c, 0, 82, 63
1, 42366, Control_c, 0, 64, 78
1, 42366, Control_c, 0, 67, 122
1, 42369, Note_on_c, 0, 79, 72
1, 42381, Control_c, 0, 64, 81
1, 42381, Control_c, 0, 67, 121
1, 42397, Note_off_c, 0, 51, 61
1, 42397, Control_c, 0, 64, 84
1, 42397, Control_c, 0, 67, 120
1, 42412, Control_c, 0, 64, 86
1, 42412, Control_c, 0, 67, 120
1, 42427, Control_c, 0, 64, 89
1, 42427, Control_c, 0, 67, 119
1, 42427, Note_off_c, 0, 46, 55
1, 42441, Control_c, 0, 64, 91
1, 42441, Control_c, 0, 67, 118
1, 42448, Note_off_c, 0, 79, 64
1, 42453, Note_on_c, 0, 82, 79
1, 42456, Control_c, 0, 64, 92
1, 42456, Control_c, 0, 67, 116
1, 42465, Note_off_c, 0, 39, 31
1, 42471, Control_c, 0, 64, 94
1, 42471, Control_c, 0, 67, 114
1, 42486, Control_c, 0, 64, 96
1, 42486, Control_c, 0, 67, 112
1, 42501, Control_c, 0, 64, 98
1, 42501, Control_c, 0, 67, 110
1, 42515, Control_c, 0, 64, 100
1, 42515, Control_c, 0, 67, 109
1, 42525, Note_off_c, 0, 82, 64
1, 42530, Control_c, 0, 64, 102
1, 42530, Control_c, 0, 67, 107
1, 42537, Note_on_c, 0, 87, 81
1, 42545, Control_c, 0, 64, 103
1, 42545, Control_c, 0, 67, 105
1, 42560, Control_c, 0, 64, 103
1, 42560, Control_c, 0, 67, 104
1, 42575, Control_c, 0, 64, 104
1, 42575, Control_c, 0, 67, 102
1, 42589, Control_c, 0, 67, 101
1, 42620, Note_on_c, 0, 82, 77
1, 42634, Control_c, 0, 67, 102
1, 42647, Note_off_c, 0, 87, 64
1, 42648, Control_c, 0, 67, 103
1, 42663, Control_c, 0, 67, 103
1, 42678, Control_c, 0, 67, 105
1, 42683, Note_off_c, 0, 82, 63
1, 42695, Note_on_c, 0, 79, 71
1, 42709, Control_c, 0, 67, 105
1, 42731, Control_c, 0, 67, 106
1, 42746, Control_c, 0, 67, 108
1, 42761, Control_c, 0, 67, 108
1, 42775, Control_c, 0, 67, 109
1, 42777, Note_off_c, 0, 79, 64
1, 42790, Control_c, 0, 64, 99
1, 42790, Control_c, 0, 67, 110
1, 42792, Note_on_c, 0, 82, 75
1, 42805, Control_c, 0, 64, 89
1, 42805, Control_c, 0, 67, 111
1, 42820, Control_c, 0, 64, 78
1, 42820, Control_c, 0, 67, 112
1, 42835, Control_c, 0, 64, 66
1, 42835, Control_c, 0, 67, 112
1, 42849, Control_c, 0, 64, 53
1, 42849, Control_c, 0, 67, 113
1, 42856, Note_off_c, 0, 82, 62
1, 42864, Control_c, 0, 64, 37
1, 42864, Control_c, 0, 67, 113
1, 42871, Note_on_c, 0, 50, 75
1, 42879, Control_c, 0, 64, 12
1, 42886, Note_on_c, 0, 77, 49
1, 42894, Control_c, 0, 64, 0
1, 42907, Note_on_c, 0, 46, 48
1, 42920, Note_on_c, 0, 38, 44
1, 42925, Note_on_c, 0, 76, 26
1, 42938, Control_c, 0, 67, 114
1, 42953, Control_c, 0, 64, 12
1, 42963, Note_off_c, 0, 76, 31
1, 42967, Control_c, 0, 64, 45
1, 42971, Note_on_c, 0, 82, 71
1, 42982, Control_c, 0, 64, 61
1, 42997, Control_c, 0, 64, 68
1, 42999, Note_off_c, 0, 77, 47
1, 43012, Control_c, 0, 64, 71
1, 43027, Control_c, 0, 64, 75
1, 43027, Control_c, 0, 67, 114
1, 43041, Note_off_c, 0, 82, 63
1, 43041, Control_c, 0, 64, 79
1, 43045, Note_on_c, 0, 80, 75
1, 43051, Note_off_c, 0, 38, 61
1, 43056, Control_c, 0, 64, 82
1, 43071, Control_c, 0, 64, 87
1, 43074, Note_off_c, 0, 50, 60
1, 43086, Control_c, 0, 64, 91
1, 43090, Note_off_c, 0, 46, 59
1, 43101, Control_c, 0, 64, 96
1, 43113, Note_off_c, 0, 80, 63
1, 43115, Control_c, 0, 64, 103
1, 43121, Note_on_c, 0, 82, 76
1, 43130, Control_c, 0, 64, 116
1, 43145, Control_c, 0, 64, 127
1, 43191, Note_on_c, 0, 89, 79
1, 43192, Note_off_c, 0, 82, 64
1, 43220, Control_c, 0, 67, 114
1, 43250, Control_c, 0, 67, 113
1, 43278, Note_on_c, 0, 82, 76
1, 43279, Note_off_c, 0, 89, 64
1, 43342, Note_off_c, 0, 82, 64
1, 43351, Note_on_c, 0, 80, 74
1, 43427, Note_off_c, 0, 80, 62
1, 43432, Note_on_c, 0, 82, 81
1, 43458, Control_c, 0, 67, 114
1, 43507, Note_off_c, 0, 82, 63
1, 43518, Note_on_c, 0, 62, 83
1, 43521, Note_on_c, 0, 77, 72
1, 43524, Control_c, 0, 64, 87
1, 43539, Control_c, 0, 64, 68
1, 43541, Note_on_c, 0, 58, 63
1, 43554, Control_c, 0, 64, 49
1, 43569, Control_c, 0, 64, 30
1, 43569, Control_c, 0, 67, 114
1, 43569, Note_on_c, 0, 50, 49
1, 43583, Control_c, 0, 64, 27
1, 43583, Control_c, 0, 67, 114
1, 43598, Control_c, 0, 64, 37
1, 43610, Note_on_c, 0, 82, 77
1, 43613, Control_c, 0, 64, 52
1, 43628, Control_c, 0, 64, 64
1, 43633, Note_off_c, 0, 77, 55
1, 43643, Control_c, 0, 64, 74
1, 43658, Control_c, 0, 64, 86
1, 43672, Control_c, 0, 64, 97
1, 43680, Note_off_c, 0, 82, 64
1, 43685, Note_on_c, 0, 80, 76
1, 43687, Control_c, 0, 64, 102
1, 43702, Control_c, 0, 64, 107
1, 43717, Control_c, 0, 64, 119
1, 43717, Control_c, 0, 67, 113
1, 43732, Control_c, 0, 64, 127
1, 43765, Note_off_c, 0, 80, 63
1, 43765, Note_on_c, 0, 82, 89
1, 43768, Note_off_c, 0, 62, 60
1, 43790, Note_off_c, 0, 50, 60
1, 43790, Control_c, 0, 67, 114
1, 43845, Note_off_c, 0, 82, 63
1, 43855, Note_on_c, 0, 89, 84
1, 43921, Note_off_c, 0, 58, 63
1, 43930, Note_on_c, 0, 82, 78
1, 43950, Note_off_c, 0, 89, 63
1, 43998, Note_off_c, 0, 82, 65
1, 44009, Note_on_c, 0, 80, 72
1, 44073, Note_off_c, 0, 80, 61
1, 44085, Note_on_c, 0, 82, 83
1, 44136, Note_off_c, 0, 82, 64
1, 44147, Control_c, 0, 64, 92
1, 44162, Control_c, 0, 64, 71
1, 44162, Note_on_c, 0, 61, 81
1, 44177, Control_c, 0, 64, 57
1, 44184, Note_on_c, 0, 79, 56
1, 44191, Control_c, 0, 64, 34
1, 44191, Control_c, 0, 67, 113
1, 44192, Note_on_c, 0, 81, 59
1, 44197, Note_on_c, 0, 49, 53
1, 44200, Note_on_c, 0, 51, 51
1, 44206, Control_c, 0, 64, 0
1, 44227, Control_c, 0, 67, 113
1, 44242, Control_c, 0, 64, 17
1, 44248, Note_off_c, 0, 81, 49
1, 44248, Note_off_c, 0, 79, 54
1, 44257, Control_c, 0, 64, 41
1, 44260, Note_on_c, 0, 87, 79
1, 44272, Control_c, 0, 64, 58
1, 44287, Control_c, 0, 64, 69
1, 44302, Control_c, 0, 64, 78
1, 44317, Control_c, 0, 64, 88
1, 44332, Control_c, 0, 64, 94
1, 44332, Control_c, 0, 67, 112
1, 44342, Note_off_c, 0, 87, 66
1, 44344, Note_on_c, 0, 82, 77
1, 44347, Control_c, 0, 64, 99
1, 44347, Control_c, 0, 67, 111
1, 44361, Control_c, 0, 64, 105
1, 44376, Control_c, 0, 64, 115
1, 44376, Control_c, 0, 67, 111
1, 44391, Control_c, 0, 64, 127
1, 44400, Note_off_c, 0, 61, 61
1, 44417, Note_on_c, 0, 87, 80
1, 44417, Note_off_c, 0, 82, 64
1, 44418, Note_off_c, 0, 49, 36
1, 44500, Note_on_c, 0, 91, 82
1, 44505, Note_off_c, 0, 87, 66
1, 44554, Control_c, 0, 67, 111
1, 44576, Note_off_c, 0, 51, 51
1, 44576, Note_on_c, 0, 87, 74
1, 44591, Note_off_c, 0, 91, 64
1, 44644, Note_off_c, 0, 87, 65
1, 44661, Note_on_c, 0, 82, 79
1, 44701, Control_c, 0, 67, 112
1, 44734, Note_off_c, 0, 82, 64
1, 44737, Note_on_c, 0, 87, 82
1, 44746, Control_c, 0, 67, 112
1, 44791, Control_c, 0, 64, 111
1, 44806, Control_c, 0, 64, 91
1, 44815, Note_off_c, 0, 87, 64
1, 44821, Control_c, 0, 64, 73
1, 44835, Control_c, 0, 64, 60
1, 44849, Note_on_c, 0, 60, 66
1, 44850, Control_c, 0, 64, 36
1, 44851, Note_on_c, 0, 80, 72
1, 44861, Note_on_c, 0, 48, 51
1, 44865, Note_on_c, 0, 51, 53
1, 44865, Control_c, 0, 64, 9
1, 44865, Control_c, 0, 67, 112
1, 44880, Control_c, 0, 64, 0
1, 44910, Control_c, 0, 64, 13
1, 44910, Control_c, 0, 67, 111
1, 44925, Control_c, 0, 64, 39
1, 44940, Control_c, 0, 64, 60
1, 44940, Control_c, 0, 67, 110
1, 44946, Note_on_c, 0, 92, 77
1, 44962, Control_c, 0, 64, 70
1, 44962, Control_c, 0, 67, 108
1, 44977, Control_c, 0, 64, 80
1, 44977, Control_c, 0, 67, 106
1, 44991, Control_c, 0, 64, 92
1, 44991, Control_c, 0, 67, 104
1, 44993, Note_off_c, 0, 48, 58
1, 44998, Note_off_c, 0, 80, 59
1, 45004, Note_off_c, 0, 60, 61
1, 45006, Control_c, 0, 64, 102
1, 45006, Control_c, 0, 67, 102
1, 45021, Control_c, 0, 64, 111
1, 45021, Control_c, 0, 67, 100
1, 45035, Control_c, 0, 64, 127
1, 45035, Control_c, 0, 67, 97
1, 45050, Control_c, 0, 67, 92
1, 45053, Note_on_c, 0, 87, 77
1, 45054, Note_off_c, 0, 51, 63
1, 45054, Note_off_c, 0, 92, 65
1, 45065, Control_c, 0, 67, 87
1, 45080, Control_c, 0, 67, 83
1, 45083, Note_on_c, 0, 80, 24
1, 45095, Control_c, 0, 67, 80
1, 45110, Control_c, 0, 67, 78
1, 45130, Note_off_c, 0, 80, 47
1, 45145, Note_on_c, 0, 92, 82
1, 45155, Note_off_c, 0, 87, 63
1, 45184, Control_c, 0, 67, 78
1, 45199, Control_c, 0, 67, 79
1, 45214, Control_c, 0, 67, 80
1, 45229, Control_c, 0, 64, 109
1, 45229, Control_c, 0, 67, 80
1, 45237, Note_off_c, 0, 92, 58
1, 45242, Note_on_c, 0, 81, 76
1, 45243, Control_c, 0, 64, 77
1, 45243, Control_c, 0, 67, 81
1, 45247, Note_on_c, 0, 59, 77
1, 45258, Control_c, 0, 64, 59
1, 45273, Control_c, 0, 64, 37
1, 45273, Control_c, 0, 67, 81
1, 45277, Note_on_c, 0, 51, 53
1, 45277, Note_on_c, 0, 47, 55
1, 45288, Control_c, 0, 64, 19
1, 45288, Control_c, 0, 67, 82
1, 45303, Control_c, 0, 64, 21
1, 45317, Control_c, 0, 64, 38
1, 45332, Control_c, 0, 64, 56
1, 45332, Control_c, 0, 67, 82
1, 45342, Note_on_c, 0, 93, 78
1, 45347, Control_c, 0, 64, 71
1, 45348, Note_off_c, 0, 47, 65
1, 45361, Control_c, 0, 64, 83
1, 45361, Control_c, 0, 67, 83
1, 45368, Note_off_c, 0, 81, 56
1, 45376, Control_c, 0, 64, 100
1, 45376, Control_c, 0, 67, 83
1, 45378, Note_off_c, 0, 51, 63
1, 45384, Note_off_c, 0, 59, 66
1, 45391, Control_c, 0, 64, 124
1, 45406, Control_c, 0, 64, 127
1, 45406, Control_c, 0, 67, 84
1, 45424, Note_on_c, 0, 87, 78
1, 45427, Note_off_c, 0, 93, 64
1, 45480, Control_c, 0, 67, 84
1, 45495, Control_c, 0, 67, 85
1, 45509, Control_c, 0, 67, 85
1, 45518, Note_on_c, 0, 93, 84
1, 45524, Control_c, 0, 67, 86
1, 45530, Note_off_c, 0, 87, 64
1, 45599, Note_off_c, 0, 93, 62
1, 45600, Control_c, 0, 67, 86
1, 45604, Note_on_c, 0, 81, 83
1, 45614, Control_c, 0, 64, 89
1, 45620, Note_on_c, 0, 71, 82
1, 45629, Control_c, 0, 64, 69
1, 45636, Note_on_c, 0, 59, 64
1, 45642, Note_on_c, 0, 63, 60
1, 45644, Control_c, 0, 64, 58
1, 45658, Control_c, 0, 64, 59
1, 45673, Control_c, 0, 64, 65
1, 45687, Note_on_c, 0, 93, 84
1, 45688, Control_c, 0, 64, 75
1, 45688, Control_c, 0, 67, 87
1, 45703, Control_c, 0, 64, 92
1, 45703, Control_c, 0, 67, 87
1, 45726, Control_c, 0, 64, 127
1, 45726, Control_c, 0, 67, 88
1, 45740, Note_off_c, 0, 59, 65
1, 45749, Note_off_c, 0, 71, 65
1, 45774, Note_off_c, 0, 93, 65
1, 45777, Note_on_c, 0, 87, 79
1, 45787, Note_off_c, 0, 63, 56
1, 45816, Note_off_c, 0, 81, 26
1, 45858, Note_off_c, 0, 87, 65
1, 45864, Note_on_c, 0, 93, 77
1, 45873, Control_c, 0, 67, 88
1, 45888, Control_c, 0, 67, 89
1, 45893, Note_off_c, 0, 93, 62
1, 45903, Control_c, 0, 67, 89
1, 45947, Note_on_c, 0, 70, 80
1, 45947, Control_c, 0, 64, 90
1, 45947, Control_c, 0, 67, 89
1, 45952, Note_on_c, 0, 82, 75
1, 45962, Control_c, 0, 64, 68
1, 45962, Control_c, 0, 67, 89
1, 45968, Note_on_c, 0, 63, 65
1, 45969, Note_on_c, 0, 58, 63
1, 45977, Control_c, 0, 64, 53
1, 45992, Control_c, 0, 64, 37
1, 45992, Control_c, 0, 67, 90
1, 46007, Control_c, 0, 64, 38
1, 46019, Note_on_c, 0, 94, 80
1, 46022, Control_c, 0, 64, 49
1, 46037, Control_c, 0, 64, 61
1, 46050, Note_off_c, 0, 82, 61
1, 46052, Control_c, 0, 64, 70
1, 46066, Control_c, 0, 64, 82
1, 46073, Note_off_c, 0, 70, 62
1, 46081, Control_c, 0, 64, 94
1, 46081, Control_c, 0, 67, 90
1, 46087, Note_off_c, 0, 58, 63
1, 46096, Control_c, 0, 64, 100
1, 46101, Note_off_c, 0, 63, 62
1, 46111, Control_c, 0, 64, 103
1, 46119, Note_on_c, 0, 87, 79
1, 46120, Note_off_c, 0, 94, 63
1, 46126, Control_c, 0, 64, 109
1, 46140, Control_c, 0, 64, 124
1, 46140, Control_c, 0, 67, 90
1, 46155, Control_c, 0, 64, 127
1, 46204, Note_on_c, 0, 94, 88
1, 46216, Note_off_c, 0, 87, 65
1, 46244, Control_c, 0, 67, 90
1, 46285, Note_on_c, 0, 68, 85
1, 46288, Control_c, 0, 64, 103
1, 46290, Note_on_c, 0, 82, 81
1, 46302, Note_on_c, 0, 63, 71
1, 46302, Note_off_c, 0, 94, 64
1, 46303, Control_c, 0, 64, 79
1, 46318, Control_c, 0, 64, 63
1, 46319, Note_on_c, 0, 56, 60
1, 46332, Control_c, 0, 64, 45
1, 46332, Control_c, 0, 67, 91
1, 46347, Control_c, 0, 64, 23
1, 46362, Control_c, 0, 64, 22
1, 46377, Control_c, 0, 64, 38
1, 46379, Note_on_c, 0, 94, 84
1, 46393, Control_c, 0, 64, 55
1, 46393, Control_c, 0, 67, 91
1, 46407, Note_off_c, 0, 82, 62
1, 46407, Control_c, 0, 64, 67
1, 46407, Control_c, 0, 67, 92
1, 46412, Note_off_c, 0, 68, 63
1, 46422, Control_c, 0, 64, 77
1, 46422, Control_c, 0, 67, 92
1, 46430, Note_off_c, 0, 63, 60
1, 46436, Note_off_c, 0, 56, 59
1, 46438, Control_c, 0, 64, 87
1, 46438, Control_c, 0, 67, 93
1, 46453, Control_c, 0, 64, 95
1, 46453, Control_c, 0, 67, 93
1, 46475, Control_c, 0, 64, 99
1, 46478, Note_on_c, 0, 87, 84
1, 46490, Control_c, 0, 64, 104
1, 46492, Note_off_c, 0, 94, 63
1, 46503, Note_on_c, 0, 82, 32
1, 46505, Control_c, 0, 64, 111
1, 46520, Control_c, 0, 64, 117
1, 46520, Control_c, 0, 67, 93
1, 46535, Control_c, 0, 64, 119
1, 46538, Note_off_c, 0, 82, 50
1, 46564, Control_c, 0, 64, 120
1, 46578, Note_on_c, 0, 94, 88
1, 46594, Control_c, 0, 64, 122
1, 46619, Note_off_c, 0, 87, 60
1, 46638, Control_c, 0, 64, 120
1, 46653, Control_c, 0, 64, 119
1, 46668, Control_c, 0, 64, 107
1, 46679, Note_off_c, 0, 94, 63
1, 46683, Control_c, 0, 64, 92
1, 46683, Control_c, 0, 67, 93
1, 46695, Note_on_c, 0, 83, 80
1, 46697, Control_c, 0, 64, 76
1, 46712, Control_c, 0, 64, 63
1, 46713, Note_on_c, 0, 67, 68
1, 46727, Control_c, 0, 64, 46
1, 46739, Note_on_c, 0, 55, 41
1, 46740, Note_on_c, 0, 63, 47
1, 46742, Control_c, 0, 64, 10
1, 46757, Control_c, 0, 64, 0
1, 46757, Control_c, 0, 67, 93
1, 46786, Control_c, 0, 67, 92
1, 46789, Note_off_c, 0, 83, 63
1, 46821, Note_on_c, 0, 95, 76
1, 46830, Control_c, 0, 67, 92
1, 46845, Control_c, 0, 64, 23
1, 46845, Control_c, 0, 67, 91
1, 46860, Control_c, 0, 64, 55
1, 46860, Control_c, 0, 67, 91
1, 46875, Control_c, 0, 64, 64
1, 46875, Control_c, 0, 67, 90
1, 46889, Control_c, 0, 64, 67
1, 46889, Control_c, 0, 67, 89
1, 46904, Control_c, 0, 64, 69
1, 46904, Control_c, 0, 67, 88
1, 46919, Control_c, 0, 64, 71
1, 46919, Control_c, 0, 67, 88
1, 46934, Control_c, 0, 64, 77
1, 46934, Control_c, 0, 67, 86
1, 46949, Control_c, 0, 64, 85
1, 46949, Control_c, 0, 67, 85
1, 46955, Note_off_c, 0, 95, 64
1, 46962, Note_on_c, 0, 87, 78
1, 46964, Control_c, 0, 64, 95
1, 46964, Control_c, 0, 67, 83
1, 46979, Control_c, 0, 64, 101
1, 46979, Control_c, 0, 67, 81
1, 46994, Control_c, 0, 64, 104
1, 46994, Control_c, 0, 67, 80
1, 47008, Control_c, 0, 64, 106
1, 47008, Control_c, 0, 67, 78
1, 47023, Control_c, 0, 64, 109
1, 47023, Control_c, 0, 67, 75
1, 47032, Note_off_c, 0, 55, 58
1, 47038, Control_c, 0, 64, 113
1, 47038, Control_c, 0, 67, 70
1, 47053, Control_c, 0, 64, 124
1, 47053, Control_c, 0, 67, 63
1, 47068, Control_c, 0, 64, 127
1, 47068, Control_c, 0, 67, 53
1, 47072, Note_off_c, 0, 67, 32
1, 47082, Control_c, 0, 67, 45
1, 47086, Note_off_c, 0, 87, 60
1, 47097, Control_c, 0, 67, 37
1, 47112, Control_c, 0, 67, 31
1, 47127, Control_c, 0, 67, 25
1, 47129, Note_on_c, 0, 95, 82
1, 47141, Control_c, 0, 67, 18
1, 47144, Note_off_c, 0, 63, 53
1, 47156, Control_c, 0, 67, 0
1, 47357, Control_c, 0, 64, 110
1, 47372, Control_c, 0, 64, 99
1, 47387, Control_c, 0, 64, 89
1, 47402, Control_c, 0, 64, 79
1, 47417, Control_c, 0, 64, 71
1, 47432, Control_c, 0, 64, 65
1, 47446, Control_c, 0, 64, 59
1, 47461, Control_c, 0, 64, 54
1, 47476, Control_c, 0, 64, 48
1, 47491, Control_c, 0, 64, 40
1, 47506, Control_c, 0, 64, 29
1, 47520, Control_c, 0, 64, 0
1, 47578, Note_on_c, 0, 96, 74
1, 47623, Note_off_c, 0, 95, 64
1, 47727, Control_c, 0, 67, 8
1, 47742, Control_c, 0, 67, 12
1, 47757, Control_c, 0, 67, 13
1, 47786, Control_c, 0, 67, 14
1, 47816, Control_c, 0, 67, 14
1, 47831, Control_c, 0, 67, 15
1, 47846, Control_c, 0, 67, 16
1, 47861, Note_on_c, 0, 80, 47
1, 47861, Control_c, 0, 64, 32
1, 47861, Control_c, 0, 67, 20
1, 47876, Control_c, 0, 64, 49
1, 47876, Control_c, 0, 67, 22
1, 47891, Control_c, 0, 64, 58
1, 47891, Control_c, 0, 67, 24
1, 47905, Control_c, 0, 64, 61
1, 47905, Control_c, 0, 67, 26
1, 47920, Control_c, 0, 64, 63
1, 47920, Control_c, 0, 67, 28
1, 47934, Control_c, 0, 64, 65
1, 47934, Control_c, 0, 67, 30
1, 47956, Control_c, 0, 64, 67
1, 47956, Control_c, 0, 67, 31
1, 47971, Control_c, 0, 64, 71
1, 47971, Control_c, 0, 67, 33
1, 47987, Control_c, 0, 64, 76
1, 47987, Control_c, 0, 67, 36
1, 48002, Control_c, 0, 64, 81
1, 48002, Control_c, 0, 67, 40
1, 48016, Control_c, 0, 64, 85
1, 48016, Control_c, 0, 67, 44
1, 48031, Control_c, 0, 64, 88
1, 48031, Control_c, 0, 67, 50
1, 48046, Control_c, 0, 64, 92
1, 48046, Control_c, 0, 67, 57
1, 48061, Control_c, 0, 64, 96
1, 48061, Control_c, 0, 67, 64
1, 48076, Control_c, 0, 64, 103
1, 48076, Control_c, 0, 67, 71
1, 48091, Control_c, 0, 64, 111
1, 48091, Control_c, 0, 67, 79
1, 48105, Control_c, 0, 64, 127
1, 48105, Control_c, 0, 67, 86
1, 48120, Control_c, 0, 67, 92
1, 48124, Note_on_c, 0, 68, 45
1, 48135, Control_c, 0, 67, 97
1, 48150, Control_c, 0, 67, 99
1, 48165, Control_c, 0, 67, 100
1, 48178, Note_off_c, 0, 80, 47
1, 48180, Control_c, 0, 67, 101
1, 48195, Control_c, 0, 67, 101
1, 48262, Note_off_c, 0, 68, 33
1, 48320, Note_on_c, 0, 84, 50
1, 48328, Control_c, 0, 67, 101
1, 48532, Note_on_c, 0, 94, 65
1, 48535, Control_c, 0, 64, 118
1, 48542, Note_off_c, 0, 84, 34
1, 48550, Control_c, 0, 64, 113
1, 48565, Control_c, 0, 64, 107
1, 48579, Control_c, 0, 64, 103
1, 48588, Note_off_c, 0, 96, 64
1, 48594, Control_c, 0, 64, 98
1, 48609, Control_c, 0, 64, 92
1, 48624, Control_c, 0, 64, 86
1, 48639, Control_c, 0, 64, 82
1, 48653, Control_c, 0, 64, 80
1, 48668, Control_c, 0, 64, 79
1, 48683, Control_c, 0, 64, 78
1, 48698, Control_c, 0, 64, 76
1, 48720, Control_c, 0, 64, 71
1, 48733, Note_on_c, 0, 79, 47
1, 48734, Control_c, 0, 64, 66
1, 48749, Control_c, 0, 64, 60
1, 48764, Control_c, 0, 64, 55
1, 48764, Control_c, 0, 67, 100
1, 48780, Control_c, 0, 64, 51
1, 48795, Control_c, 0, 64, 50
1, 48795, Control_c, 0, 67, 100
1, 48809, Control_c, 0, 64, 51
1, 48824, Control_c, 0, 64, 54
1, 48839, Control_c, 0, 64, 59
1, 48854, Control_c, 0, 64, 64
1, 48869, Control_c, 0, 64, 68
1, 48869, Control_c, 0, 67, 99
1, 48883, Control_c, 0, 64, 74
1, 48898, Control_c, 0, 64, 80
1, 48913, Control_c, 0, 64, 84
1, 48922, Note_on_c, 0, 67, 46
1, 48928, Control_c, 0, 64, 87
1, 48933, Note_off_c, 0, 79, 49
1, 48943, Control_c, 0, 64, 91
1, 48943, Control_c, 0, 67, 99
1, 48958, Control_c, 0, 64, 94
1, 48973, Control_c, 0, 64, 98
1, 48988, Control_c, 0, 64, 101
1, 49002, Control_c, 0, 64, 102
1, 49017, Control_c, 0, 64, 102
1, 49032, Control_c, 0, 64, 103
1, 49047, Control_c, 0, 64, 103
1, 49062, Note_off_c, 0, 67, 46
1, 49062, Control_c, 0, 64, 104
1, 49113, Note_on_c, 0, 82, 48
1, 49209, Control_c, 0, 67, 98
1, 49307, Note_on_c, 0, 92, 63
1, 49328, Control_c, 0, 64, 103
1, 49338, Note_off_c, 0, 94, 50
1, 49343, Control_c, 0, 64, 102
1, 49357, Control_c, 0, 64, 101
1, 49357, Control_c, 0, 67, 99
1, 49372, Control_c, 0, 64, 98
1, 49387, Control_c, 0, 64, 96
1, 49402, Control_c, 0, 64, 93
1, 49414, Note_off_c, 0, 82, 35
1, 49417, Control_c, 0, 64, 91
1, 49432, Control_c, 0, 64, 90
1, 49484, Control_c, 0, 64, 90
1, 49493, Note_on_c, 0, 77, 45
1, 49499, Control_c, 0, 64, 89
1, 49499, Control_c, 0, 67, 99
1, 49514, Control_c, 0, 64, 88
1, 49529, Control_c, 0, 64, 87
1, 49543, Control_c, 0, 64, 85
1, 49558, Control_c, 0, 64, 81
1, 49573, Control_c, 0, 64, 76
1, 49589, Control_c, 0, 64, 69
1, 49604, Control_c, 0, 64, 64
1, 49619, Control_c, 0, 64, 59
1, 49633, Control_c, 0, 64, 52
1, 49648, Control_c, 0, 64, 49
1, 49663, Control_c, 0, 64, 50
1, 49676, Note_on_c, 0, 65, 43
1, 49678, Control_c, 0, 64, 54
1, 49693, Control_c, 0, 64, 59
1, 49707, Control_c, 0, 64, 65
1, 49722, Control_c, 0, 64, 70
1, 49737, Control_c, 0, 64, 77
1, 49752, Control_c, 0, 64, 83
1, 49767, Control_c, 0, 64, 87
1, 49781, Control_c, 0, 64, 87
1, 49791, Note_off_c, 0, 65, 58
1, 49796, Control_c, 0, 64, 88
1, 49797, Note_off_c, 0, 77, 41
1, 49811, Control_c, 0, 64, 89
1, 49825, Control_c, 0, 64, 90
1, 49840, Control_c, 0, 64, 90
1, 49887, Note_on_c, 0, 93, 67
1, 49946, Note_off_c, 0, 92, 62
1, 49989, Control_c, 0, 67, 99
1, 50019, Control_c, 0, 64, 90
1, 50019, Control_c, 0, 67, 98
1, 50033, Control_c, 0, 64, 89
1, 50033, Control_c, 0, 67, 98
1, 50048, Control_c, 0, 64, 88
1, 50063, Control_c, 0, 64, 87
1, 50063, Control_c, 0, 67, 97
1, 50078, Control_c, 0, 67, 97
1, 50093, Control_c, 0, 64, 87
1, 50093, Control_c, 0, 67, 96
1, 50107, Control_c, 0, 64, 86
1, 50107, Control_c, 0, 67, 96
1, 50114, Note_on_c, 0, 94, 72
1, 50122, Control_c, 0, 64, 85
1, 50122, Control_c, 0, 67, 95
1, 50137, Control_c, 0, 64, 84
1, 50137, Control_c, 0, 67, 94
1, 50142, Note_off_c, 0, 93, 63
1, 50151, Control_c, 0, 64, 84
1, 50151, Control_c, 0, 67, 93
1, 50166, Control_c, 0, 64, 83
1, 50166, Control_c, 0, 67, 91
1, 50181, Control_c, 0, 67, 90
1, 50196, Control_c, 0, 64, 83
1, 50196, Control_c, 0, 67, 88
1, 50219, Control_c, 0, 67, 88
1, 50233, Control_c, 0, 67, 87
1, 50248, Control_c, 0, 64, 82
1, 50278, Control_c, 0, 67, 86
1, 50293, Control_c, 0, 67, 86
1, 50298, Note_on_c, 0, 79, 46
1, 50337, Control_c, 0, 67, 87
1, 50383, Control_c, 0, 64, 79
1, 50383, Control_c, 0, 67, 87
1, 50398, Control_c, 0, 64, 74
1, 50412, Control_c, 0, 64, 67
1, 50427, Control_c, 0, 64, 60
1, 50427, Control_c, 0, 67, 88
1, 50442, Control_c, 0, 64, 51
1, 50442, Control_c, 0, 67, 88
1, 50456, Control_c, 0, 64, 43
1, 50456, Control_c, 0, 67, 89
1, 50471, Control_c, 0, 64, 37
1, 50486, Control_c, 0, 64, 35
1, 50490, Note_on_c, 0, 67, 45
1, 50501, Control_c, 0, 64, 36
1, 50516, Control_c, 0, 64, 41
1, 50516, Control_c, 0, 67, 90
1, 50530, Control_c, 0, 64, 52
1, 50530, Control_c, 0, 67, 90
1, 50545, Control_c, 0, 64, 61
1, 50545, Control_c, 0, 67, 91
1, 50560, Control_c, 0, 64, 68
1, 50560, Control_c, 0, 67, 92
1, 50575, Control_c, 0, 64, 73
1, 50590, Note_off_c, 0, 79, 49
1, 50590, Control_c, 0, 64, 79
1, 50604, Control_c, 0, 64, 82
1, 50619, Control_c, 0, 64, 85
1, 50634, Control_c, 0, 64, 87
1, 50634, Control_c, 0, 67, 92
1, 50648, Control_c, 0, 64, 90
1, 50652, Note_off_c, 0, 67, 38
1, 50663, Control_c, 0, 64, 93
1, 50663, Control_c, 0, 67, 93
1, 50678, Control_c, 0, 64, 95
1, 50693, Control_c, 0, 64, 95
1, 50701, Note_on_c, 0, 82, 54
1, 50827, Control_c, 0, 67, 93
1, 50871, Control_c, 0, 64, 95
1, 50886, Control_c, 0, 64, 94
1, 50901, Control_c, 0, 64, 93
1, 50913, Note_on_c, 0, 92, 64
1, 50916, Control_c, 0, 64, 92
1, 50916, Control_c, 0, 67, 94
1, 50930, Control_c, 0, 64, 90
1, 50930, Control_c, 0, 67, 94
1, 50945, Control_c, 0, 64, 89
1, 50967, Control_c, 0, 64, 88
1, 50982, Control_c, 0, 64, 87
1, 50986, Note_off_c, 0, 82, 35
1, 50997, Control_c, 0, 64, 86
1, 50997, Control_c, 0, 67, 95
1, 51012, Control_c, 0, 64, 86
1, 51012, Control_c, 0, 67, 95
1, 51012, Note_off_c, 0, 94, 60
1, 51027, Control_c, 0, 64, 85
1, 51042, Control_c, 0, 64, 84
1, 51056, Control_c, 0, 64, 83
1, 51071, Control_c, 0, 64, 80
1, 51086, Control_c, 0, 64, 75
1, 51101, Control_c, 0, 64, 70
1, 51110, Note_on_c, 0, 77, 45
1, 51116, Control_c, 0, 64, 64
1, 51130, Control_c, 0, 64, 59
1, 51145, Control_c, 0, 64, 52
1, 51160, Control_c, 0, 64, 48
1, 51175, Control_c, 0, 64, 46
1, 51191, Control_c, 0, 64, 47
1, 51205, Control_c, 0, 64, 52
1, 51220, Control_c, 0, 64, 59
1, 51235, Control_c, 0, 64, 65
1, 51250, Control_c, 0, 64, 69
1, 51265, Control_c, 0, 64, 73
1, 51279, Control_c, 0, 64, 75
1, 51280, Note_off_c, 0, 77, 40
1, 51289, Note_on_c, 0, 65, 44
1, 51294, Control_c, 0, 64, 76
1, 51309, Control_c, 0, 64, 77
1, 51309, Control_c, 0, 67, 95
1, 51324, Control_c, 0, 64, 78
1, 51339, Control_c, 0, 64, 79
1, 51353, Control_c, 0, 64, 79
1, 51383, Control_c, 0, 64, 80
1, 51389, Note_off_c, 0, 65, 53
1, 51398, Control_c, 0, 67, 95
1, 51492, Note_on_c, 0, 80, 50
1, 51501, Control_c, 0, 67, 96
1, 51516, Control_c, 0, 67, 96
1, 51560, Control_c, 0, 67, 97
1, 51590, Control_c, 0, 64, 79
1, 51618, Note_off_c, 0, 92, 27
1, 51620, Control_c, 0, 64, 79
1, 51635, Control_c, 0, 64, 78
1, 51635, Control_c, 0, 67, 97
1, 51650, Control_c, 0, 64, 78
1, 51665, Control_c, 0, 64, 77
1, 51679, Control_c, 0, 67, 98
1, 51701, Control_c, 0, 64, 76
1, 51716, Control_c, 0, 64, 75
1, 51731, Control_c, 0, 64, 74
1, 51746, Control_c, 0, 64, 72
1, 51746, Control_c, 0, 67, 98
1, 51751, Note_on_c, 0, 91, 59
1, 51760, Control_c, 0, 64, 69
1, 51775, Control_c, 0, 64, 66
1, 51776, Note_off_c, 0, 80, 37
1, 51782, Note_on_c, 0, 75, 36
1, 51790, Control_c, 0, 64, 60
1, 51805, Control_c, 0, 64, 52
1, 51820, Control_c, 0, 64, 44
1, 51835, Control_c, 0, 64, 37
1, 51849, Control_c, 0, 64, 34
1, 51849, Control_c, 0, 67, 99
1, 51864, Control_c, 0, 64, 35
1, 51879, Control_c, 0, 64, 43
1, 51894, Control_c, 0, 64, 56
1, 51894, Control_c, 0, 67, 99
1, 51909, Control_c, 0, 64, 63
1, 51924, Control_c, 0, 64, 67
1, 51924, Control_c, 0, 67, 100
1, 51939, Control_c, 0, 64, 68
1, 51953, Control_c, 0, 67, 100
1, 52013, Note_on_c, 0, 79, 57
1, 52018, Note_on_c, 0, 63, 40
1, 52021, Note_off_c, 0, 91, 63
1, 52191, Control_c, 0, 64, 68
1, 52221, Control_c, 0, 64, 67
1, 52227, Note_on_c, 0, 65, 53
1, 52228, Note_on_c, 0, 80, 70
1, 52235, Control_c, 0, 64, 66
1, 52250, Control_c, 0, 64, 65
1, 52250, Control_c, 0, 67, 101
1, 52255, Note_off_c, 0, 63, 61
1, 52265, Control_c, 0, 64, 64
1, 52265, Control_c, 0, 67, 101
1, 52280, Control_c, 0, 64, 63
1, 52295, Control_c, 0, 64, 62
1, 52309, Control_c, 0, 64, 62
1, 52309, Control_c, 0, 67, 102
1, 52312, Note_off_c, 0, 79, 53
1, 52324, Control_c, 0, 64, 61
1, 52324, Control_c, 0, 67, 102
1, 52339, Control_c, 0, 64, 59
1, 52354, Control_c, 0, 64, 57
1, 52354, Control_c, 0, 67, 103
1, 52369, Control_c, 0, 64, 56
1, 52369, Control_c, 0, 67, 103
1, 52383, Control_c, 0, 64, 54
1, 52398, Control_c, 0, 64, 52
1, 52398, Control_c, 0, 67, 104
1, 52402, Note_off_c, 0, 75, 57
1, 52413, Control_c, 0, 64, 48
1, 52413, Control_c, 0, 67, 107
1, 52415, Note_on_c, 0, 82, 77
1, 52427, Control_c, 0, 64, 43
1, 52427, Control_c, 0, 67, 109
1, 52432, Note_on_c, 0, 67, 52
1, 52449, Control_c, 0, 64, 36
1, 52464, Control_c, 0, 64, 33
1, 52464, Control_c, 0, 67, 110
1, 52479, Control_c, 0, 64, 31
1, 52479, Control_c, 0, 67, 110
1, 52481, Note_off_c, 0, 65, 58
1, 52494, Control_c, 0, 67, 111
1, 52499, Note_off_c, 0, 80, 62
1, 52508, Control_c, 0, 64, 29
1, 52508, Control_c, 0, 67, 113
1, 52523, Control_c, 0, 64, 21
1, 52523, Control_c, 0, 67, 114
1, 52538, Control_c, 0, 64, 0
1, 52538, Control_c, 0, 67, 115
1, 52553, Control_c, 0, 67, 116
1, 52568, Control_c, 0, 67, 116
1, 52583, Control_c, 0, 67, 117
1, 52598, Control_c, 0, 67, 118
1, 52613, Control_c, 0, 67, 119
1, 52619, Note_off_c, 0, 67, 60
1, 52627, Control_c, 0, 67, 120
1, 52642, Control_c, 0, 67, 121
1, 52672, Control_c, 0, 67, 121
1, 52687, Control_c, 0, 67, 122
1, 52687, Note_on_c, 0, 86, 69
1, 52701, Control_c, 0, 67, 123
1, 52716, Control_c, 0, 67, 124
1, 52731, Control_c, 0, 67, 126
1, 52744, Note_off_c, 0, 82, 60
1, 52746, Control_c, 0, 67, 127
1, 52760, Control_c, 0, 67, 127
1, 52947, Note_on_c, 0, 84, 67
1, 52978, Note_on_c, 0, 70, 41
1, 53010, Note_off_c, 0, 86, 59
1, 53117, Control_c, 0, 64, 23
1, 53131, Control_c, 0, 64, 41
1, 53137, Note_off_c, 0, 70, 61
1, 53146, Control_c, 0, 64, 54
1, 53161, Control_c, 0, 64, 59
1, 53169, Note_on_c, 0, 68, 49
1, 53176, Control_c, 0, 64, 59
1, 53191, Control_c, 0, 64, 60
1, 53214, Control_c, 0, 64, 62
1, 53229, Control_c, 0, 64, 64
1, 53244, Control_c, 0, 64, 65
1, 53258, Control_c, 0, 64, 67
1, 53273, Control_c, 0, 64, 68
1, 53288, Control_c, 0, 64, 69
1, 53318, Control_c, 0, 64, 68
1, 53332, Control_c, 0, 64, 66
1, 53347, Control_c, 0, 64, 63
1, 53360, Note_on_c, 0, 72, 53
1, 53362, Control_c, 0, 64, 58
1, 53376, Control_c, 0, 64, 55
1, 53379, Note_on_c, 0, 56, 37
1, 53391, Control_c, 0, 64, 54
1, 53406, Note_off_c, 0, 84, 57
1, 53406, Control_c, 0, 64, 59
1, 53421, Control_c, 0, 64, 64
1, 53436, Control_c, 0, 64, 68
1, 53450, Control_c, 0, 64, 72
1, 53463, Note_off_c, 0, 56, 54
1, 53464, Note_off_c, 0, 68, 45
1, 53465, Control_c, 0, 64, 75
1, 53480, Control_c, 0, 64, 76
1, 53495, Control_c, 0, 64, 76
1, 53558, Note_on_c, 0, 84, 68
1, 53629, Note_off_c, 0, 72, 33
1, 53674, Control_c, 0, 64, 75
1, 53689, Control_c, 0, 64, 70
1, 53704, Control_c, 0, 64, 63
1, 53718, Control_c, 0, 64, 56
1, 53733, Control_c, 0, 64, 47
1, 53748, Control_c, 0, 64, 40
1, 53757, Note_on_c, 0, 68, 52
1, 53763, Note_on_c, 0, 82, 66
1, 53763, Control_c, 0, 64, 35
1, 53778, Control_c, 0, 64, 34
1, 53793, Control_c, 0, 64, 36
1, 53807, Control_c, 0, 64, 44
1, 53808, Note_off_c, 0, 84, 64
1, 53822, Control_c, 0, 64, 53
1, 53837, Control_c, 0, 64, 61
1, 53852, Control_c, 0, 64, 65
1, 53867, Control_c, 0, 64, 67
1, 53881, Control_c, 0, 64, 67
1, 53896, Control_c, 0, 64, 68
1, 53911, Control_c, 0, 64, 68
1, 53925, Control_c, 0, 64, 69
1, 53931, Note_off_c, 0, 68, 62
1, 53940, Control_c, 0, 64, 70
1, 53962, Control_c, 0, 64, 71
1, 53966, Note_on_c, 0, 67, 53
1, 53977, Control_c, 0, 64, 71
1, 54021, Control_c, 0, 64, 70
1, 54036, Control_c, 0, 64, 68
1, 54051, Control_c, 0, 64, 63
1, 54066, Control_c, 0, 64, 55
1, 54080, Control_c, 0, 64, 46
1, 54095, Control_c, 0, 64, 37
1, 54110, Control_c, 0, 64, 34
1, 54125, Control_c, 0, 64, 34
1, 54140, Control_c, 0, 64, 40
1, 54154, Control_c, 0, 64, 50
1, 54160, Note_on_c, 0, 55, 35
1, 54165, Note_on_c, 0, 70, 49
1, 54169, Note_off_c, 0, 67, 31
1, 54169, Control_c, 0, 64, 59
1, 54184, Control_c, 0, 64, 64
1, 54198, Control_c, 0, 64, 66
1, 54213, Control_c, 0, 64, 68
1, 54228, Control_c, 0, 64, 70
1, 54243, Note_off_c, 0, 82, 36
1, 54243, Control_c, 0, 64, 72
1, 54258, Control_c, 0, 64, 75
1, 54273, Control_c, 0, 64, 77
1, 54288, Control_c, 0, 64, 77
1, 54320, Note_off_c, 0, 55, 58
1, 54358, Note_on_c, 0, 82, 65
1, 54422, Control_c, 0, 64, 77
1, 54437, Control_c, 0, 64, 76
1, 54452, Control_c, 0, 64, 76
1, 54467, Control_c, 0, 64, 75
1, 54477, Note_off_c, 0, 70, 30
1, 54482, Control_c, 0, 64, 75
1, 54496, Control_c, 0, 64, 74
1, 54511, Control_c, 0, 64, 73
1, 54526, Control_c, 0, 64, 71
1, 54541, Control_c, 0, 64, 70
1, 54556, Control_c, 0, 64, 69
1, 54560, Note_on_c, 0, 80, 60
1, 54564, Note_off_c, 0, 82, 63
1, 54566, Note_on_c, 0, 67, 41
1, 54570, Control_c, 0, 64, 68
1, 54585, Control_c, 0, 64, 67
1, 54600, Control_c, 0, 64, 65
1, 54615, Control_c, 0, 64, 63
1, 54629, Control_c, 0, 64, 61
1, 54644, Control_c, 0, 64, 59
1, 54659, Control_c, 0, 64, 57
1, 54673, Control_c, 0, 64, 56
1, 54688, Control_c, 0, 64, 55
1, 54710, Control_c, 0, 64, 53
1, 54725, Control_c, 0, 64, 51
1, 54740, Control_c, 0, 64, 49
1, 54755, Control_c, 0, 64, 48
1, 54762, Note_on_c, 0, 65, 46
1, 54770, Control_c, 0, 64, 47
1, 54780, Note_off_c, 0, 67, 48
1, 54784, Control_c, 0, 64, 45
1, 54799, Control_c, 0, 64, 41
1, 54814, Control_c, 0, 64, 36
1, 54828, Control_c, 0, 64, 30
1, 54843, Control_c, 0, 64, 26
1, 54858, Control_c, 0, 64, 22
1, 54873, Control_c, 0, 64, 19
1, 54888, Control_c, 0, 64, 14
1, 54902, Control_c, 0, 64, 0
1, 54950, Note_on_c, 0, 81, 63
1, 54953, Note_off_c, 0, 65, 54
1, 54963, Note_on_c, 0, 66, 44
1, 55006, Control_c, 0, 64, 26
1, 55017, Note_off_c, 0, 80, 57
1, 55021, Control_c, 0, 64, 42
1, 55036, Control_c, 0, 64, 54
1, 55051, Control_c, 0, 64, 59
1, 55066, Control_c, 0, 64, 60
1, 55110, Control_c, 0, 64, 59
1, 55125, Control_c, 0, 64, 58
1, 55140, Control_c, 0, 64, 56
1, 55154, Control_c, 0, 64, 54
1, 55170, Control_c, 0, 64, 50
1, 55176, Note_on_c, 0, 84, 59
1, 55178, Note_off_c, 0, 66, 61
1, 55185, Control_c, 0, 64, 47
1, 55200, Control_c, 0, 64, 43
1, 55213, Note_off_c, 0, 81, 60
1, 55215, Control_c, 0, 64, 39
1, 55230, Control_c, 0, 64, 34
1, 55244, Control_c, 0, 64, 30
1, 55259, Control_c, 0, 64, 28
1, 55274, Control_c, 0, 64, 26
1, 55289, Control_c, 0, 64, 25
1, 55304, Control_c, 0, 64, 23
1, 55318, Control_c, 0, 64, 20
1, 55333, Control_c, 0, 64, 19
1, 55348, Control_c, 0, 64, 18
1, 55363, Control_c, 0, 64, 18
1, 55373, Note_on_c, 0, 82, 56
1, 55378, Control_c, 0, 64, 17
1, 55392, Control_c, 0, 64, 16
1, 55398, Note_on_c, 0, 68, 34
1, 55407, Control_c, 0, 64, 13
1, 55410, Note_off_c, 0, 84, 63
1, 55474, Control_c, 0, 64, 13
1, 55489, Control_c, 0, 64, 12
1, 55571, Note_off_c, 0, 68, 55
1, 55577, Control_c, 0, 64, 13
1, 55599, Note_on_c, 0, 67, 51
1, 55607, Control_c, 0, 64, 13
1, 55740, Control_c, 0, 64, 17
1, 55755, Control_c, 0, 64, 29
1, 55769, Control_c, 0, 64, 44
1, 55784, Control_c, 0, 64, 57
1, 55795, Note_on_c, 0, 70, 43
1, 55799, Control_c, 0, 64, 63
1, 55814, Note_on_c, 0, 55, 30
1, 55814, Control_c, 0, 64, 66
1, 55829, Control_c, 0, 64, 67
1, 55844, Control_c, 0, 64, 68
1, 55859, Control_c, 0, 64, 70
1, 55873, Note_off_c, 0, 82, 53
1, 55874, Control_c, 0, 64, 73
1, 55889, Control_c, 0, 64, 75
1, 55902, Note_off_c, 0, 55, 56
1, 55903, Control_c, 0, 64, 76
1, 55918, Control_c, 0, 64, 77
1, 55936, Note_off_c, 0, 67, 17
1, 55999, Note_on_c, 0, 82, 65
1, 56067, Control_c, 0, 64, 76
1, 56082, Control_c, 0, 64, 75
1, 56095, Note_off_c, 0, 70, 42
1, 56097, Control_c, 0, 64, 74
1, 56112, Control_c, 0, 64, 72
1, 56127, Control_c, 0, 64, 69
1, 56141, Control_c, 0, 64, 66
1, 56156, Control_c, 0, 64, 64
1, 56171, Control_c, 0, 64, 63
1, 56186, Control_c, 0, 64, 61
1, 56208, Control_c, 0, 64, 60
1, 56219, Note_on_c, 0, 80, 57
1, 56222, Control_c, 0, 64, 59
1, 56231, Note_on_c, 0, 67, 34
1, 56237, Control_c, 0, 64, 57
1, 56252, Control_c, 0, 64, 55
1, 56261, Note_off_c, 0, 82, 61
1, 56267, Control_c, 0, 64, 54
1, 56282, Control_c, 0, 64, 52
1, 56297, Control_c, 0, 64, 52
1, 56312, Control_c, 0, 64, 51
1, 56327, Control_c, 0, 64, 50
1, 56341, Control_c, 0, 64, 49
1, 56356, Control_c, 0, 64, 48
1, 56371, Control_c, 0, 64, 46
1, 56386, Control_c, 0, 64, 44
1, 56400, Control_c, 0, 64, 43
1, 56415, Control_c, 0, 64, 41
1, 56427, Note_off_c, 0, 67, 45
1, 56430, Control_c, 0, 64, 39
1, 56445, Control_c, 0, 64, 37
1, 56449, Note_on_c, 0, 65, 45
1, 56460, Control_c, 0, 64, 36
1, 56474, Control_c, 0, 64, 34
1, 56489, Control_c, 0, 64, 32
1, 56504, Control_c, 0, 64, 32
1, 56519, Control_c, 0, 64, 31
1, 56637, Control_c, 0, 64, 32
1, 56652, Control_c, 0, 64, 35
1, 56667, Control_c, 0, 64, 42
1, 56667, Control_c, 0, 67, 127
1, 56682, Control_c, 0, 64, 51
1, 56694, Note_on_c, 0, 53, 33
1, 56696, Control_c, 0, 64, 60
1, 56696, Control_c, 0, 67, 126
1, 56697, Note_on_c, 0, 68, 45
1, 56711, Control_c, 0, 64, 66
1, 56726, Control_c, 0, 64, 70
1, 56726, Control_c, 0, 67, 126
1, 56741, Control_c, 0, 64, 74
1, 56741, Control_c, 0, 67, 125
1, 56756, Control_c, 0, 64, 77
1, 56771, Control_c, 0, 64, 79
1, 56771, Control_c, 0, 67, 125
1, 56779, Note_off_c, 0, 68, 52
1, 56779, Note_off_c, 0, 80, 62
1, 56782, Note_off_c, 0, 65, 42
1, 56786, Control_c, 0, 64, 81
1, 56789, Note_off_c, 0, 53, 59
1, 56801, Control_c, 0, 64, 84
1, 56816, Control_c, 0, 64, 88
1, 56831, Control_c, 0, 64, 92
1, 56845, Control_c, 0, 64, 94
1, 56860, Control_c, 0, 64, 96
1, 56875, Control_c, 0, 64, 96
1, 56890, Control_c, 0, 64, 97
1, 56958, Control_c, 0, 67, 124
1, 56972, Control_c, 0, 64, 96
1, 56987, Control_c, 0, 64, 94
1, 57002, Control_c, 0, 64, 88
1, 57017, Control_c, 0, 64, 77
1, 57017, Control_c, 0, 67, 125
1, 57031, Control_c, 0, 64, 67
1, 57046, Control_c, 0, 64, 56
1, 57048, Note_on_c, 0, 79, 62
1, 57061, Note_on_c, 0, 63, 47
1, 57061, Control_c, 0, 64, 39
1, 57061, Control_c, 0, 67, 125
1, 57066, Note_on_c, 0, 70, 46
1, 57075, Note_on_c, 0, 55, 28
1, 57076, Control_c, 0, 64, 21
1, 57091, Control_c, 0, 64, 18
1, 57105, Control_c, 0, 64, 19
1, 57120, Control_c, 0, 64, 27
1, 57135, Control_c, 0, 64, 41
1, 57150, Control_c, 0, 64, 55
1, 57165, Control_c, 0, 64, 66
1, 57165, Control_c, 0, 67, 125
1, 57179, Control_c, 0, 64, 77
1, 57194, Control_c, 0, 64, 91
1, 57209, Control_c, 0, 64, 111
1, 57224, Control_c, 0, 64, 127
1, 57224, Control_c, 0, 67, 125
1, 57238, Note_off_c, 0, 63, 64
1, 57254, Control_c, 0, 67, 126
1, 57269, Control_c, 0, 64, 110
1, 57284, Control_c, 0, 64, 88
1, 57284, Control_c, 0, 67, 126
1, 57298, Control_c, 0, 64, 71
1, 57311, Note_off_c, 0, 55, 54
1, 57313, Note_on_c, 0, 77, 65
1, 57313, Control_c, 0, 64, 60
1, 57313, Control_c, 0, 67, 127
1, 57325, Note_on_c, 0, 62, 54
1, 57328, Control_c, 0, 64, 55
1, 57339, Note_on_c, 0, 56, 48
1, 57343, Control_c, 0, 64, 60
1, 57343, Note_off_c, 0, 79, 62
1, 57357, Control_c, 0, 64, 68
1, 57372, Control_c, 0, 64, 83
1, 57381, Note_off_c, 0, 70, 62
1, 57385, Note_off_c, 0, 62, 61
1, 57387, Control_c, 0, 64, 127
1, 57387, Control_c, 0, 67, 126
1, 57402, Control_c, 0, 67, 126
1, 57428, Note_off_c, 0, 77, 57
1, 57447, Note_off_c, 0, 56, 52
1, 57461, Control_c, 0, 67, 125
1, 57476, Control_c, 0, 67, 125
1, 57490, Control_c, 0, 67, 125
1, 57505, Control_c, 0, 67, 126
1, 57520, Control_c, 0, 64, 95
1, 57520, Control_c, 0, 67, 126
1, 57534, Note_on_c, 0, 79, 75
1, 57535, Note_on_c, 0, 70, 59
1, 57535, Control_c, 0, 64, 71
1, 57538, Note_on_c, 0, 63, 65
1, 57549, Control_c, 0, 64, 55
1, 57555, Note_on_c, 0, 55, 46
1, 57566, Control_c, 0, 64, 35
1, 57566, Control_c, 0, 67, 127
1, 57581, Control_c, 0, 64, 30
1, 57595, Control_c, 0, 64, 38
1, 57595, Control_c, 0, 67, 126
1, 57610, Control_c, 0, 64, 52
1, 57610, Control_c, 0, 67, 126
1, 57625, Control_c, 0, 64, 66
1, 57639, Control_c, 0, 64, 75
1, 57654, Control_c, 0, 64, 86
1, 57669, Control_c, 0, 64, 93
1, 57684, Control_c, 0, 67, 126
1, 57707, Control_c, 0, 64, 92
1, 57711, Note_off_c, 0, 63, 65
1, 57721, Control_c, 0, 64, 83
1, 57736, Control_c, 0, 64, 71
1, 57751, Control_c, 0, 64, 61
1, 57766, Control_c, 0, 64, 47
1, 57769, Note_off_c, 0, 55, 63
1, 57770, Note_on_c, 0, 77, 78
1, 57781, Control_c, 0, 64, 28
1, 57785, Note_on_c, 0, 62, 64
1, 57794, Note_on_c, 0, 56, 51
1, 57795, Control_c, 0, 64, 0
1, 57810, Control_c, 0, 67, 126
1, 57814, Note_off_c, 0, 79, 61
1, 57825, Control_c, 0, 67, 125
1, 57840, Control_c, 0, 67, 125
1, 57854, Control_c, 0, 64, 33
1, 57854, Control_c, 0, 67, 124
1, 57863, Note_off_c, 0, 70, 59
1, 57869, Control_c, 0, 64, 59
1, 57869, Control_c, 0, 67, 123
1, 57884, Note_off_c, 0, 62, 64
1, 57884, Control_c, 0, 64, 72
1, 57884, Control_c, 0, 67, 123
1, 57899, Control_c, 0, 64, 82
1, 57899, Control_c, 0, 67, 122
1, 57914, Control_c, 0, 64, 94
1, 57919, Note_off_c, 0, 77, 63
1, 57922, Note_off_c, 0, 56, 58
1, 57928, Control_c, 0, 64, 108
1, 57928, Control_c, 0, 67, 122
1, 57943, Control_c, 0, 64, 127
1, 57972, Control_c, 0, 67, 121
1, 57987, Control_c, 0, 67, 121
1, 58002, Control_c, 0, 67, 120
1, 58017, Control_c, 0, 67, 119
1, 58062, Control_c, 0, 67, 119
1, 58077, Control_c, 0, 64, 92
1, 58077, Control_c, 0, 67, 118
1, 58091, Note_on_c, 0, 79, 72
1, 58091, Control_c, 0, 64, 75
1, 58091, Control_c, 0, 67, 116
1, 58106, Control_c, 0, 64, 63
1, 58106, Control_c, 0, 67, 115
1, 58111, Note_on_c, 0, 63, 52
1, 58112, Note_on_c, 0, 70, 49
1, 58118, Note_on_c, 0, 55, 43
1, 58121, Control_c, 0, 64, 50
1, 58121, Control_c, 0, 67, 115
1, 58136, Control_c, 0, 64, 40
1, 58136, Control_c, 0, 67, 114
1, 58151, Control_c, 0, 64, 30
1, 58151, Control_c, 0, 67, 113
1, 58165, Control_c, 0, 64, 19
1, 58165, Control_c, 0, 67, 112
1, 58180, Control_c, 0, 64, 0
1, 58180, Control_c, 0, 67, 111
1, 58195, Control_c, 0, 67, 109
1, 58210, Control_c, 0, 67, 107
1, 58225, Control_c, 0, 67, 105
1, 58239, Control_c, 0, 67, 103
1, 58254, Control_c, 0, 67, 99
1, 58269, Control_c, 0, 67, 95
1, 58284, Control_c, 0, 67, 90
1, 58299, Control_c, 0, 67, 83
1, 58313, Control_c, 0, 67, 74
1, 58328, Control_c, 0, 67, 64
1, 58343, Control_c, 0, 64, 17
1, 58343, Control_c, 0, 67, 51
1, 58358, Control_c, 0, 64, 28
1, 58358, Control_c, 0, 67, 38
1, 58374, Control_c, 0, 64, 39
1, 58374, Control_c, 0, 67, 20
1, 58388, Control_c, 0, 64, 46
1, 58388, Control_c, 0, 67, 0
1, 58403, Control_c, 0, 64, 50
1, 58417, Control_c, 0, 64, 52
1, 58432, Control_c, 0, 64, 55
1, 58455, Control_c, 0, 64, 58
1, 58469, Control_c, 0, 64, 61
1, 58484, Control_c, 0, 64, 63
1, 58499, Control_c, 0, 64, 64
1, 58514, Control_c, 0, 64, 67
1, 58529, Control_c, 0, 64, 70
1, 58543, Control_c, 0, 64, 74
1, 58558, Control_c, 0, 64, 79
1, 58573, Control_c, 0, 64, 87
1, 58588, Control_c, 0, 64, 99
1, 58602, Control_c, 0, 64, 127
1, 58673, Note_off_c, 0, 70, 40
1, 58780, Control_c, 0, 67, 10
1, 58795, Control_c, 0, 67, 12
1, 58810, Control_c, 0, 67, 15
1, 58825, Control_c, 0, 67, 18
1, 58840, Control_c, 0, 67, 21
1, 58855, Control_c, 0, 67, 23
1, 58869, Control_c, 0, 67, 25
1, 58884, Control_c, 0, 67, 27
1, 58899, Control_c, 0, 67, 31
1, 58914, Control_c, 0, 67, 36
1, 58929, Control_c, 0, 67, 41
1, 58943, Control_c, 0, 67, 45
1, 58958, Control_c, 0, 67, 48
1, 58971, Note_off_c, 0, 55, 38
1, 58973, Control_c, 0, 67, 51
1, 58987, Control_c, 0, 67, 55
1, 59001, Note_off_c, 0, 63, 41
1, 59002, Control_c, 0, 67, 59
1, 59017, Control_c, 0, 67, 62
1, 59032, Control_c, 0, 67, 65
1, 59047, Control_c, 0, 67, 67
1, 59061, Control_c, 0, 67, 69
1, 59076, Control_c, 0, 67, 72
1, 59091, Control_c, 0, 67, 74
1, 59106, Control_c, 0, 67, 76
1, 59121, Control_c, 0, 67, 77
1, 59135, Control_c, 0, 67, 77
1, 59166, Control_c, 0, 67, 76
1, 59188, Control_c, 0, 67, 76
1, 59203, Control_c, 0, 67, 75
1, 59263, Control_c, 0, 67, 75
1, 59266, Note_on_c, 0, 77, 49
1, 59278, Note_on_c, 0, 70, 35
1, 59285, Note_on_c, 0, 62, 38
1, 59292, Control_c, 0, 64, 94
1, 59295, Note_on_c, 0, 56, 41
1, 59307, Control_c, 0, 64, 79
1, 59322, Control_c, 0, 64, 68
1, 59335, Note_off_c, 0, 79, 60
1, 59337, Control_c, 0, 64, 58
1, 59337, Control_c, 0, 67, 74
1, 59352, Control_c, 0, 64, 50
1, 59366, Control_c, 0, 64, 44
1, 59381, Control_c, 0, 64, 40
1, 59381, Control_c, 0, 67, 74
1, 59396, Control_c, 0, 64, 34
1, 59411, Control_c, 0, 64, 24
1, 59425, Control_c, 0, 64, 0
1, 59425, Control_c, 0, 67, 73
1, 59470, Control_c, 0, 67, 73
1, 59485, Control_c, 0, 67, 72
1, 59559, Control_c, 0, 67, 72
1, 59573, Control_c, 0, 64, 19
1, 59573, Control_c, 0, 67, 71
1, 59588, Control_c, 0, 64, 32
1, 59603, Control_c, 0, 64, 42
1, 59603, Control_c, 0, 67, 71
1, 59618, Control_c, 0, 64, 51
1, 59633, Control_c, 0, 64, 58
1, 59648, Control_c, 0, 64, 61
1, 59662, Control_c, 0, 64, 63
1, 59677, Control_c, 0, 64, 65
1, 59677, Control_c, 0, 67, 70
1, 59692, Control_c, 0, 64, 68
1, 59707, Control_c, 0, 64, 72
1, 59722, Control_c, 0, 64, 78
1, 59736, Control_c, 0, 64, 86
1, 59751, Control_c, 0, 64, 93
1, 59751, Control_c, 0, 67, 71
1, 59766, Control_c, 0, 64, 101
1, 59766, Control_c, 0, 67, 71
1, 59781, Control_c, 0, 64, 115
1, 59781, Control_c, 0, 67, 72
1, 59796, Control_c, 0, 64, 127
1, 59812, Note_off_c, 0, 62, 40
1, 59825, Control_c, 0, 67, 73
1, 59840, Control_c, 0, 67, 74
1, 59855, Control_c, 0, 67, 75
1, 59870, Control_c, 0, 67, 75
1, 59882, Note_off_c, 0, 70, 42
1, 59928, Note_off_c, 0, 77, 63
1, 59930, Control_c, 0, 67, 76
1, 59952, Control_c, 0, 67, 76
1, 59968, Control_c, 0, 67, 77
1, 60041, Control_c, 0, 67, 77
1, 60116, Control_c, 0, 67, 77
1, 60138, Note_off_c, 0, 56, 37
1, 60279, Control_c, 0, 64, 124
1, 60294, Control_c, 0, 64, 102
1, 60309, Control_c, 0, 64, 89
1, 60320, Note_on_c, 0, 82, 63
1, 60323, Control_c, 0, 64, 76
1, 60330, Note_on_c, 0, 70, 52
1, 60338, Control_c, 0, 64, 65
1, 60350, Note_on_c, 0, 63, 44
1, 60353, Control_c, 0, 64, 55
1, 60356, Note_on_c, 0, 55, 41
1, 60367, Control_c, 0, 64, 46
1, 60382, Control_c, 0, 64, 37
1, 60397, Control_c, 0, 64, 31
1, 60412, Control_c, 0, 64, 25
1, 60427, Control_c, 0, 64, 22
1, 60441, Control_c, 0, 64, 26
1, 60456, Control_c, 0, 64, 42
1, 60471, Control_c, 0, 64, 58
1, 60486, Control_c, 0, 64, 68
1, 60486, Control_c, 0, 67, 77
1, 60501, Control_c, 0, 64, 73
1, 60530, Control_c, 0, 64, 66
1, 60545, Control_c, 0, 64, 58
1, 60551, Note_off_c, 0, 55, 60
1, 60560, Control_c, 0, 64, 49
1, 60573, Note_on_c, 0, 81, 73
1, 60573, Note_off_c, 0, 63, 55
1, 60575, Control_c, 0, 64, 46
1, 60582, Note_on_c, 0, 60, 50
1, 60586, Note_on_c, 0, 75, 54
1, 60586, Note_on_c, 0, 53, 48
1, 60589, Control_c, 0, 64, 52
1, 60599, Note_off_c, 0, 82, 60
1, 60604, Control_c, 0, 64, 63
1, 60619, Control_c, 0, 64, 73
1, 60622, Note_off_c, 0, 75, 62
1, 60634, Control_c, 0, 64, 93
1, 60647, Note_off_c, 0, 70, 57
1, 60649, Control_c, 0, 64, 127
1, 60665, Note_off_c, 0, 60, 52
1, 60691, Note_off_c, 0, 53, 57
1, 60694, Note_off_c, 0, 81, 61
1, 60701, Control_c, 0, 67, 77
1, 60760, Control_c, 0, 64, 79
1, 60776, Control_c, 0, 64, 61
1, 60776, Control_c, 0, 67, 77
1, 60786, Note_on_c, 0, 55, 59
1, 60789, Note_on_c, 0, 82, 80
1, 60789, Note_on_c, 0, 63, 52
1, 60790, Control_c, 0, 64, 45
1, 60793, Note_on_c, 0, 70, 62
1, 60805, Control_c, 0, 64, 45
1, 60820, Control_c, 0, 64, 58
1, 60820, Control_c, 0, 67, 77
1, 60835, Control_c, 0, 64, 72
1, 60850, Control_c, 0, 64, 103
1, 60864, Control_c, 0, 64, 127
1, 60864, Control_c, 0, 67, 77
1, 60909, Control_c, 0, 64, 117
1, 60924, Control_c, 0, 64, 79
1, 60924, Control_c, 0, 67, 77
1, 60938, Control_c, 0, 64, 59
1, 60951, Note_off_c, 0, 55, 59
1, 60953, Control_c, 0, 64, 41
1, 60953, Control_c, 0, 67, 76
1, 60964, Note_off_c, 0, 63, 48
1, 60968, Control_c, 0, 64, 26
1, 60980, Note_on_c, 0, 53, 54
1, 60983, Control_c, 0, 64, 25
1, 60983, Control_c, 0, 67, 76
1, 60985, Note_on_c, 0, 60, 62
1, 60985, Note_on_c, 0, 81, 80
1, 60998, Control_c, 0, 64, 38
1, 61000, Note_on_c, 0, 75, 70
1, 61010, Note_off_c, 0, 82, 60
1, 61013, Control_c, 0, 64, 57
1, 61013, Control_c, 0, 67, 76
1, 61028, Control_c, 0, 64, 70
1, 61043, Control_c, 0, 64, 91
1, 61043, Control_c, 0, 67, 77
1, 61051, Note_off_c, 0, 53, 62
1, 61057, Control_c, 0, 64, 127
1, 61058, Note_off_c, 0, 75, 51
1, 61066, Note_off_c, 0, 60, 56
1, 61069, Note_off_c, 0, 70, 62
1, 61072, Control_c, 0, 67, 76
1, 61099, Note_off_c, 0, 81, 64
1, 61205, Control_c, 0, 67, 76
1, 61220, Control_c, 0, 67, 75
1, 61250, Control_c, 0, 67, 75
1, 61264, Control_c, 0, 64, 113
1, 61279, Control_c, 0, 64, 82
1, 61279, Control_c, 0, 67, 75
1, 61282, Note_on_c, 0, 82, 81
1, 61287, Note_on_c, 0, 55, 60
1, 61288, Note_on_c, 0, 63, 61
1, 61289, Note_on_c, 0, 58, 55
1, 61294, Control_c, 0, 64, 65
1, 61298, Note_on_c, 0, 75, 64
1, 61300, Note_on_c, 0, 70, 59
1, 61309, Control_c, 0, 64, 50
1, 61309, Control_c, 0, 67, 75
1, 61324, Control_c, 0, 64, 27
1, 61324, Control_c, 0, 67, 74
1, 61338, Control_c, 0, 64, 0
1, 61338, Control_c, 0, 67, 73
1, 61353, Control_c, 0, 67, 72
1, 61368, Control_c, 0, 67, 71
1, 61382, Control_c, 0, 67, 70
1, 61397, Control_c, 0, 67, 69
1, 61412, Control_c, 0, 67, 67
1, 61427, Control_c, 0, 67, 66
1, 61450, Control_c, 0, 64, 35
1, 61450, Control_c, 0, 67, 63
1, 61464, Control_c, 0, 64, 51
1, 61464, Control_c, 0, 67, 60
1, 61479, Control_c, 0, 64, 60
1, 61479, Control_c, 0, 67, 53
1, 61494, Control_c, 0, 64, 65
1, 61494, Control_c, 0, 67, 43
1, 61509, Control_c, 0, 64, 69
1, 61509, Control_c, 0, 67, 31
1, 61524, Control_c, 0, 64, 76
1, 61524, Control_c, 0, 67, 17
1, 61538, Control_c, 0, 64, 91
1, 61538, Control_c, 0, 67, 0
1, 61553, Control_c, 0, 64, 127
1, 61600, Note_off_c, 0, 63, 63
1, 61685, Note_off_c, 0, 58, 55
1, 61693, Note_off_c, 0, 55, 59
1, 61835, Control_c, 0, 67, 8
1, 61850, Control_c, 0, 67, 12
1, 61865, Control_c, 0, 67, 16
1, 61880, Control_c, 0, 67, 21
1, 61895, Control_c, 0, 67, 27
1, 61910, Control_c, 0, 67, 38
1, 61925, Control_c, 0, 67, 48
1, 61936, Note_off_c, 0, 75, 54
1, 61940, Control_c, 0, 67, 60
1, 61946, Note_off_c, 0, 70, 52
1, 61954, Control_c, 0, 67, 72
1, 61958, Note_off_c, 0, 82, 51
1, 61969, Control_c, 0, 67, 83
1, 61984, Control_c, 0, 67, 93
1, 61999, Control_c, 0, 67, 100
1, 62013, Control_c, 0, 67, 104
1, 62028, Control_c, 0, 67, 105
1, 62043, Control_c, 0, 67, 107
1, 62058, Control_c, 0, 67, 110
1, 62073, Control_c, 0, 67, 112
1, 62087, Control_c, 0, 67, 114
1, 62102, Control_c, 0, 67, 115
1, 62117, Control_c, 0, 67, 116
1, 62132, Control_c, 0, 67, 117
1, 62147, Control_c, 0, 67, 118
1, 62161, Control_c, 0, 67, 120
1, 62176, Control_c, 0, 67, 121
1, 62199, Control_c, 0, 67, 123
1, 62213, Control_c, 0, 67, 125
1, 62228, Control_c, 0, 67, 126
1, 62243, Control_c, 0, 67, 127
1, 62332, Control_c, 0, 64, 83
1, 62346, Control_c, 0, 64, 63
1, 62351, Note_on_c, 0, 53, 50
1, 62363, Control_c, 0, 64, 44
1, 62378, Control_c, 0, 64, 29
1, 62392, Control_c, 0, 64, 31
1, 62407, Control_c, 0, 64, 42
1, 62420, Note_on_c, 0, 69, 45
1, 62422, Control_c, 0, 64, 55
1, 62436, Note_off_c, 0, 53, 59
1, 62436, Control_c, 0, 64, 66
1, 62451, Control_c, 0, 64, 79
1, 62466, Control_c, 0, 64, 94
1, 62474, Note_off_c, 0, 69, 0
1, 62474, Note_on_c, 0, 69, 12
1, 62481, Control_c, 0, 64, 107
1, 62488, Note_on_c, 0, 75, 50
1, 62496, Control_c, 0, 64, 111
1, 62510, Control_c, 0, 64, 116
1, 62521, Poly_aftertouch_c, 0, 55, 127
1, 62525, Control_c, 0, 64, 127
1, 62537, Note_on_c, 0, 53, 40
1, 62553, Poly_aftertouch_c, 0, 55, 0
1, 62584, Note_on_c, 0, 84, 75
1, 62584, Note_off_c, 0, 53, 55
1, 62660, Poly_aftertouch_c, 0, 55, 127
1, 62690, Note_on_c, 0, 53, 40
1, 62721, Note_off_c, 0, 53, 52
1, 62721, Poly_aftertouch_c, 0, 55, 0
1, 62737, Note_on_c, 0, 55, 34
1, 62778, Note_off_c, 0, 55, 61
1, 62816, Note_on_c, 0, 53, 43
1, 62847, Note_off_c, 0, 53, 49
1, 62870, Note_on_c, 0, 55, 53
1, 62896, Note_off_c, 0, 55, 61
1, 62923, Note_on_c, 0, 53, 49
1, 62962, Note_off_c, 0, 53, 60
1, 62978, Note_on_c, 0, 55, 61
1, 63027, Note_off_c, 0, 55, 62
1, 63040, Note_on_c, 0, 53, 57
1, 63079, Note_off_c, 0, 53, 63
1, 63104, Note_on_c, 0, 55, 58
1, 63141, Note_off_c, 0, 55, 63
1, 63163, Note_on_c, 0, 53, 63
1, 63200, Note_off_c, 0, 53, 65
1, 63225, Note_on_c, 0, 55, 59
1, 63263, Note_off_c, 0, 55, 63
1, 63281, Note_on_c, 0, 53, 64
1, 63332, Control_c, 0, 64, 89
1, 63347, Control_c, 0, 64, 65
1, 63362, Control_c, 0, 64, 46
1, 63365, Note_on_c, 0, 55, 12
1, 63375, Note_off_c, 0, 53, 59
1, 63377, Control_c, 0, 64, 17
1, 63391, Note_on_c, 0, 51, 62
1, 63392, Control_c, 0, 64, 11
1, 63397, Note_off_c, 0, 55, 42
1, 63406, Control_c, 0, 64, 29
1, 63420, Note_off_c, 0, 69, 50
1, 63421, Control_c, 0, 64, 51
1, 63436, Control_c, 0, 64, 66
1, 63451, Control_c, 0, 64, 84
1, 63459, Note_off_c, 0, 51, 64
1, 63466, Control_c, 0, 64, 124
1, 63475, Note_on_c, 0, 53, 59
1, 63477, Note_off_c, 0, 75, 65
1, 63481, Control_c, 0, 64, 127
1, 63485, Note_off_c, 0, 84, 64
1, 63523, Note_off_c, 0, 53, 62
1, 63540, Note_on_c, 0, 51, 54
1, 63583, Note_off_c, 0, 51, 65
1, 63608, Note_on_c, 0, 53, 60
1, 63643, Note_off_c, 0, 53, 59
1, 63669, Note_on_c, 0, 51, 66
1, 63715, Note_off_c, 0, 51, 55
1, 63753, Note_on_c, 0, 53, 49
1, 63755, Note_on_c, 0, 69, 72
1, 63798, Note_off_c, 0, 53, 62
1, 63810, Note_on_c, 0, 51, 63
1, 63834, Note_on_c, 0, 77, 79
1, 63851, Note_off_c, 0, 51, 63
1, 63853, Note_off_c, 0, 69, 63
1, 63888, Note_on_c, 0, 53, 59
1, 63912, Note_on_c, 0, 84, 86
1, 63928, Note_off_c, 0, 53, 62
1, 63938, Note_on_c, 0, 51, 68
1, 63983, Note_off_c, 0, 51, 63
1, 64017, Note_on_c, 0, 53, 57
1, 64051, Note_off_c, 0, 53, 63
1, 64086, Note_on_c, 0, 51, 46
1, 64127, Note_on_c, 0, 53, 50
1, 64153, Note_off_c, 0, 53, 62
1, 64177, Note_off_c, 0, 51, 61
1, 64215, Control_c, 0, 64, 80
1, 64230, Control_c, 0, 64, 58
1, 64245, Control_c, 0, 64, 0
1, 64250, Note_on_c, 0, 50, 74
1, 64304, Control_c, 0, 64, 39
1, 64319, Control_c, 0, 64, 60
1, 64322, Note_off_c, 0, 50, 64
1, 64334, Control_c, 0, 64, 70
1, 64339, Note_on_c, 0, 51, 60
1, 64349, Control_c, 0, 64, 80
1, 64361, Note_off_c, 0, 84, 60
1, 64363, Control_c, 0, 64, 90
1, 64378, Control_c, 0, 64, 97
1, 64381, Note_off_c, 0, 51, 62
1, 64388, Note_off_c, 0, 77, 58
1, 64393, Control_c, 0, 64, 104
1, 64405, Note_on_c, 0, 50, 54
1, 64408, Control_c, 0, 64, 119
1, 64423, Control_c, 0, 64, 127
1, 64470, Note_off_c, 0, 50, 64
1, 64483, Note_on_c, 0, 51, 67
1, 64524, Note_on_c, 0, 70, 68
1, 64527, Note_off_c, 0, 51, 64
1, 64546, Note_on_c, 0, 50, 66
1, 64583, Note_off_c, 0, 70, 65
1, 64586, Note_on_c, 0, 77, 69
1, 64600, Note_off_c, 0, 50, 65
1, 64617, Note_on_c, 0, 51, 68
1, 64656, Note_off_c, 0, 51, 63
1, 64658, Note_on_c, 0, 86, 90
1, 64673, Note_on_c, 0, 50, 64
1, 64720, Note_off_c, 0, 50, 66
1, 64733, Note_on_c, 0, 51, 72
1, 64784, Note_off_c, 0, 51, 62
1, 64801, Note_on_c, 0, 50, 62
1, 64831, Note_off_c, 0, 50, 65
1, 64862, Note_on_c, 0, 51, 69
1, 64899, Note_off_c, 0, 51, 64
1, 64903, Note_on_c, 0, 50, 58
1, 64929, Note_off_c, 0, 50, 59
1, 64950, Control_c, 0, 64, 108
1, 64965, Control_c, 0, 64, 68
1, 64972, Note_on_c, 0, 48, 75
1, 64979, Control_c, 0, 64, 43
1, 64994, Control_c, 0, 64, 0
1, 65038, Note_off_c, 0, 48, 63
1, 65038, Control_c, 0, 64, 25
1, 65040, Note_on_c, 0, 50, 63
1, 65053, Control_c, 0, 64, 53
1, 65068, Control_c, 0, 64, 71
1, 65076, Note_off_c, 0, 86, 65
1, 65083, Control_c, 0, 64, 83
1, 65098, Control_c, 0, 64, 101
1, 65102, Note_off_c, 0, 50, 61
1, 65112, Control_c, 0, 64, 124
1, 65120, Note_on_c, 0, 48, 71
1, 65127, Control_c, 0, 64, 127
1, 65139, Note_off_c, 0, 77, 56
1, 65163, Note_off_c, 0, 48, 61
1, 65205, Note_on_c, 0, 50, 64
1, 65218, Note_on_c, 0, 72, 71
1, 65228, Note_off_c, 0, 50, 66
1, 65266, Note_on_c, 0, 48, 70
1, 65293, Note_on_c, 0, 77, 86
1, 65295, Note_off_c, 0, 48, 65
1, 65313, Note_off_c, 0, 72, 60
1, 65328, Note_on_c, 0, 50, 65
1, 65369, Note_off_c, 0, 50, 57
1, 65371, Note_on_c, 0, 87, 95
1, 65384, Note_on_c, 0, 48, 62
1, 65425, Note_off_c, 0, 48, 65
1, 65430, Control_c, 0, 67, 127
1, 65443, Note_on_c, 0, 50, 74
1, 65475, Control_c, 0, 67, 127
1, 65491, Note_off_c, 0, 50, 65
1, 65514, Note_on_c, 0, 48, 55
1, 65544, Note_off_c, 0, 48, 53
1, 65574, Note_on_c, 0, 50, 71
1, 65605, Note_off_c, 0, 50, 64
1, 65669, Control_c, 0, 64, 80
1, 65677, Note_on_c, 0, 46, 79
1, 65684, Control_c, 0, 64, 55
1, 65699, Control_c, 0, 64, 0
1, 65707, Poly_aftertouch_c, 0, 48, 0
1, 65743, Control_c, 0, 64, 12
1, 65745, Note_off_c, 0, 46, 64
1, 65748, Note_on_c, 0, 48, 60
1, 65753, Note_off_c, 0, 87, 65
1, 65758, Control_c, 0, 64, 49
1, 65773, Control_c, 0, 64, 69
1, 65774, Note_off_c, 0, 77, 48
1, 65787, Control_c, 0, 64, 81
1, 65802, Control_c, 0, 64, 98
1, 65809, Note_off_c, 0, 48, 61
1, 65817, Control_c, 0, 64, 124
1, 65818, Note_on_c, 0, 46, 70
1, 65832, Control_c, 0, 64, 127
1, 65873, Note_off_c, 0, 46, 64
1, 65895, Note_on_c, 0, 48, 67
1, 65916, Note_on_c, 0, 74, 81
1, 65946, Note_off_c, 0, 48, 59
1, 65967, Note_on_c, 0, 46, 68
1, 66020, Note_off_c, 0, 46, 65
1, 66021, Note_on_c, 0, 77, 80
1, 66024, Note_off_c, 0, 74, 62
1, 66041, Note_on_c, 0, 48, 65
1, 66053, Note_off_c, 0, 77, 62
1, 66082, Note_off_c, 0, 48, 58
1, 66107, Note_on_c, 0, 46, 69
1, 66146, Note_off_c, 0, 46, 62
1, 66176, Note_on_c, 0, 48, 65
1, 66182, Note_on_c, 0, 89, 96
1, 66212, Note_off_c, 0, 48, 60
1, 66223, Control_c, 0, 67, 122
1, 66235, Note_on_c, 0, 46, 56
1, 66238, Control_c, 0, 67, 117
1, 66252, Control_c, 0, 67, 110
1, 66267, Control_c, 0, 67, 103
1, 66270, Note_off_c, 0, 46, 65
1, 66282, Control_c, 0, 67, 94
1, 66297, Note_on_c, 0, 48, 64
1, 66297, Control_c, 0, 67, 82
1, 66312, Control_c, 0, 67, 66
1, 66326, Control_c, 0, 67, 43
1, 66335, Note_off_c, 0, 48, 59
1, 66341, Control_c, 0, 67, 21
1, 66357, Control_c, 0, 67, 0
1, 66409, Note_on_c, 0, 48, 53
1, 66439, Note_off_c, 0, 48, 59
1, 66441, Note_on_c, 0, 46, 22
1, 66489, Note_off_c, 0, 46, 59
1, 66490, Control_c, 0, 64, 89
1, 66505, Control_c, 0, 64, 60
1, 66520, Control_c, 0, 64, 0
1, 66523, Note_on_c, 0, 44, 75
1, 66564, Control_c, 0, 64, 49
1, 66579, Control_c, 0, 64, 68
1, 66585, Note_off_c, 0, 44, 62
1, 66591, Note_on_c, 0, 46, 70
1, 66594, Control_c, 0, 64, 82
1, 66608, Control_c, 0, 64, 103
1, 66623, Control_c, 0, 64, 127
1, 66647, Note_off_c, 0, 46, 64
1, 66676, Note_on_c, 0, 44, 67
1, 66693, Note_off_c, 0, 89, 62
1, 66738, Note_off_c, 0, 44, 62
1, 66757, Note_on_c, 0, 46, 61
1, 66790, Note_off_c, 0, 46, 62
1, 66826, Note_on_c, 0, 44, 54
1, 66871, Note_off_c, 0, 44, 64
1, 66879, Note_on_c, 0, 46, 61
1, 66883, Note_on_c, 0, 91, 86
1, 66941, Note_off_c, 0, 46, 61
1, 66963, Note_on_c, 0, 44, 62
1, 67014, Note_off_c, 0, 44, 63
1, 67038, Note_on_c, 0, 46, 57
1, 67075, Note_off_c, 0, 46, 61
1, 67107, Note_on_c, 0, 44, 57
1, 67149, Note_off_c, 0, 44, 63
1, 67163, Note_on_c, 0, 46, 61
1, 67217, Note_off_c, 0, 46, 61
1, 67237, Note_on_c, 0, 44, 65
1, 67254, Note_on_c, 0, 92, 91
1, 67291, Note_off_c, 0, 44, 62
1, 67299, Note_off_c, 0, 91, 65
1, 67317, Note_on_c, 0, 46, 57
1, 67353, Note_off_c, 0, 46, 63
1, 67386, Note_on_c, 0, 44, 58
1, 67431, Note_off_c, 0, 44, 64
1, 67446, Note_on_c, 0, 46, 56
1, 67500, Note_off_c, 0, 46, 63
1, 67517, Note_on_c, 0, 44, 64
1, 67549, Note_off_c, 0, 44, 63
1, 67582, Note_off_c, 0, 92, 64
1, 67586, Note_on_c, 0, 46, 69
1, 67610, Note_on_c, 0, 93, 95
1, 67622, Note_off_c, 0, 46, 63
1, 67640, Note_on_c, 0, 44, 54
1, 67683, Note_off_c, 0, 44, 63
1, 67701, Note_on_c, 0, 46, 61
1, 67743, Note_off_c, 0, 46, 58
1, 67768, Note_on_c, 0, 44, 65
1, 67799, Note_off_c, 0, 44, 64
1, 67824, Note_on_c, 0, 46, 62
1, 67854, Note_off_c, 0, 46, 64
1, 67879, Note_on_c, 0, 44, 63
1, 67913, Note_off_c, 0, 44, 62
1, 67934, Note_on_c, 0, 46, 60
1, 67979, Note_off_c, 0, 46, 63
1, 67996, Note_on_c, 0, 44, 56
1, 68027, Note_off_c, 0, 44, 64
1, 68062, Note_on_c, 0, 94, 96
1, 68063, Control_c, 0, 64, 81
1, 68076, Note_on_c, 0, 46, 65
1, 68078, Control_c, 0, 64, 60
1, 68092, Control_c, 0, 64, 56
1, 68096, Note_off_c, 0, 93, 66
1, 68107, Control_c, 0, 64, 62
1, 68117, Note_off_c, 0, 46, 60
1, 68122, Control_c, 0, 64, 73
1, 68135, Note_on_c, 0, 44, 53
1, 68137, Control_c, 0, 64, 96
1, 68152, Control_c, 0, 64, 127
1, 68252, Note_off_c, 0, 44, 61
1, 68290, Note_on_c, 0, 43, 60
1, 68365, Note_off_c, 0, 43, 64
1, 68377, Note_on_c, 0, 44, 74
1, 68497, Note_off_c, 0, 44, 61
1, 68516, Note_on_c, 0, 46, 75
1, 68603, Note_off_c, 0, 46, 64
1, 68608, Note_on_c, 0, 44, 77
1, 68709, Note_on_c, 0, 43, 74
1, 68712, Note_off_c, 0, 44, 62
1, 68795, Note_off_c, 0, 43, 64
1, 68814, Note_on_c, 0, 41, 70
1, 68841, Control_c, 0, 64, 96
1, 68856, Control_c, 0, 64, 68
1, 68870, Control_c, 0, 64, 47
1, 68885, Control_c, 0, 64, 0
1, 68937, Note_off_c, 0, 41, 61
1, 68958, Note_on_c, 0, 39, 80
1, 69064, Note_off_c, 0, 94, 63
1, 69070, Control_c, 0, 64, 45
1, 69080, Note_off_c, 0, 39, 62
1, 69085, Control_c, 0, 64, 66
1, 69100, Control_c, 0, 64, 76
1, 69115, Control_c, 0, 64, 92
1, 69130, Control_c, 0, 64, 127
1, 69247, Note_on_c, 0, 55, 51
1, 69262, Note_on_c, 0, 51, 51
1, 69381, Control_c, 0, 67, 8
1, 69383, Note_off_c, 0, 51, 60
1, 69386, Note_off_c, 0, 55, 56
1, 69395, Control_c, 0, 67, 9
1, 69517, Note_on_c, 0, 55, 51
1, 69520, Note_on_c, 0, 51, 54
1, 69560, Control_c, 0, 67, 8
1, 69580, Note_on_c, 0, 67, 82
1, 69637, Note_off_c, 0, 55, 0
1, 69680, Poly_aftertouch_c, 0, 55, 0
1, 69760, Control_c, 0, 67, 8
1, 69782, Note_on_c, 0, 50, 60
1, 69786, Note_on_c, 0, 55, 51
1, 69833, Note_off_c, 0, 55, 56
1, 69833, Control_c, 0, 67, 0
1, 69860, Note_off_c, 0, 50, 61
1, 69875, Note_off_c, 0, 51, 37
1, 69967, Note_on_c, 0, 50, 58
1, 69970, Note_on_c, 0, 55, 43
1, 70011, Note_on_c, 0, 51, 23
1, 70022, Note_off_c, 0, 55, 54
1, 70048, Note_off_c, 0, 51, 45
1, 70051, Note_off_c, 0, 50, 59
1, 70151, Note_on_c, 0, 48, 59
1, 70153, Note_on_c, 0, 51, 44
1, 70158, Note_on_c, 0, 55, 35
1, 70206, Note_off_c, 0, 51, 53
1, 70210, Note_off_c, 0, 48, 59
1, 70222, Note_off_c, 0, 55, 42
1, 70277, Note_off_c, 0, 67, 62
1, 70331, Note_on_c, 0, 55, 57
1, 70335, Note_on_c, 0, 48, 59
1, 70335, Note_on_c, 0, 51, 48
1, 70373, Note_off_c, 0, 51, 61
1, 70388, Note_off_c, 0, 55, 62
1, 70424, Note_off_c, 0, 48, 62
1, 70519, Note_on_c, 0, 67, 74
1, 70526, Note_on_c, 0, 55, 54
1, 70537, Note_on_c, 0, 46, 56
1, 70538, Control_c, 0, 64, 96
1, 70539, Note_on_c, 0, 51, 42
1, 70553, Control_c, 0, 64, 79
1, 70568, Control_c, 0, 64, 76
1, 70582, Control_c, 0, 64, 80
1, 70597, Control_c, 0, 64, 105
1, 70611, Note_off_c, 0, 55, 55
1, 70612, Control_c, 0, 64, 127
1, 70632, Note_off_c, 0, 51, 57
1, 70641, Note_off_c, 0, 46, 58
1, 70713, Note_on_c, 0, 68, 80
1, 70731, Note_on_c, 0, 46, 56
1, 70731, Note_on_c, 0, 51, 42
1, 70732, Note_on_c, 0, 55, 53
1, 70754, Note_off_c, 0, 67, 54
1, 70782, Note_off_c, 0, 55, 57
1, 70849, Control_c, 0, 64, 113
1, 70854, Note_off_c, 0, 51, 0
1, 70864, Control_c, 0, 64, 78
1, 70874, Note_off_c, 0, 46, 63
1, 70879, Control_c, 0, 64, 70
1, 70891, Poly_aftertouch_c, 0, 51, 127
1, 70894, Control_c, 0, 64, 73
1, 70897, Note_on_c, 0, 70, 82
1, 70901, Note_on_c, 0, 44, 66
1, 70906, Note_on_c, 0, 55, 51
1, 70909, Control_c, 0, 64, 90
1, 70919, Note_off_c, 0, 68, 65
1, 70923, Control_c, 0, 64, 127
1, 70961, Note_off_c, 0, 55, 59
1, 70984, Poly_aftertouch_c, 0, 51, 0
1, 71009, Note_off_c, 0, 44, 62
1, 71041, Control_c, 0, 64, 106
1, 71055, Note_off_c, 0, 70, 64
1, 71056, Control_c, 0, 64, 75
1, 71071, Control_c, 0, 64, 62
1, 71075, Note_on_c, 0, 51, 62
1, 71076, Note_on_c, 0, 55, 53
1, 71076, Note_on_c, 0, 72, 83
1, 71080, Note_on_c, 0, 43, 60
1, 71086, Control_c, 0, 64, 57
1, 71101, Control_c, 0, 64, 65
1, 71115, Control_c, 0, 64, 79
1, 71130, Control_c, 0, 64, 127
1, 71148, Note_off_c, 0, 51, 62
1, 71149, Note_off_c, 0, 55, 56
1, 71176, Note_off_c, 0, 43, 63
1, 71184, Control_c, 0, 64, 85
1, 71199, Control_c, 0, 64, 67
1, 71213, Control_c, 0, 64, 65
1, 71228, Control_c, 0, 64, 73
1, 71243, Control_c, 0, 64, 98
1, 71254, Note_on_c, 0, 43, 57
1, 71258, Control_c, 0, 64, 127
1, 71259, Note_on_c, 0, 55, 47
1, 71264, Note_on_c, 0, 74, 82
1, 71265, Note_on_c, 0, 51, 59
1, 71303, Note_off_c, 0, 51, 61
1, 71303, Note_off_c, 0, 55, 49
1, 71306, Note_off_c, 0, 72, 62
1, 71389, Note_off_c, 0, 43, 33
1, 71495, Control_c, 0, 64, 101
1, 71500, Note_on_c, 0, 43, 61
1, 71510, Control_c, 0, 64, 76
1, 71525, Control_c, 0, 64, 62
1, 71535, Note_on_c, 0, 75, 76
1, 71540, Control_c, 0, 64, 48
1, 71548, Note_off_c, 0, 74, 65
1, 71554, Control_c, 0, 64, 33
1, 71569, Control_c, 0, 64, 15
1, 71584, Control_c, 0, 64, 0
1, 71658, Control_c, 0, 64, 38
1, 71673, Control_c, 0, 64, 60
1, 71687, Control_c, 0, 64, 72
1, 71702, Control_c, 0, 64, 79
1, 71717, Control_c, 0, 64, 87
1, 71732, Control_c, 0, 64, 95
1, 71747, Control_c, 0, 64, 108
1, 71748, Note_on_c, 0, 51, 53
1, 71750, Note_on_c, 0, 55, 46
1, 71754, Note_off_c, 0, 43, 57
1, 71762, Control_c, 0, 64, 127
1, 71803, Note_off_c, 0, 55, 53
1, 71829, Note_off_c, 0, 51, 57
1, 71953, Note_on_c, 0, 51, 51
1, 71968, Note_on_c, 0, 55, 35
1, 71995, Note_on_c, 0, 70, 68
1, 71996, Note_off_c, 0, 75, 58
1, 72019, Note_off_c, 0, 55, 49
1, 72154, Note_on_c, 0, 55, 48
1, 72155, Note_on_c, 0, 50, 60
1, 72209, Note_off_c, 0, 55, 53
1, 72230, Note_off_c, 0, 50, 61
1, 72238, Note_off_c, 0, 51, 44
1, 72319, Note_on_c, 0, 50, 60
1, 72325, Note_on_c, 0, 55, 56
1, 72338, Note_on_c, 0, 51, 44
1, 72359, Note_off_c, 0, 70, 62
1, 72378, Note_off_c, 0, 55, 55
1, 72382, Note_off_c, 0, 51, 58
1, 72418, Note_off_c, 0, 50, 54
1, 72486, Note_on_c, 0, 55, 63
1, 72494, Note_on_c, 0, 48, 65
1, 72501, Note_on_c, 0, 51, 53
1, 72554, Note_off_c, 0, 51, 57
1, 72561, Note_off_c, 0, 55, 57
1, 72587, Note_off_c, 0, 48, 60
1, 72644, Control_c, 0, 64, 94
1, 72659, Control_c, 0, 64, 78
1, 72681, Note_on_c, 0, 48, 65
1, 72681, Control_c, 0, 64, 74
1, 72684, Note_on_c, 0, 55, 70
1, 72692, Note_on_c, 0, 51, 51
1, 72695, Control_c, 0, 64, 77
1, 72710, Control_c, 0, 64, 94
1, 72725, Control_c, 0, 64, 127
1, 72749, Note_off_c, 0, 51, 59
1, 72755, Note_off_c, 0, 55, 60
1, 72802, Note_off_c, 0, 48, 62
1, 72851, Note_on_c, 0, 74, 77
1, 72862, Note_on_c, 0, 55, 68
1, 72865, Note_on_c, 0, 46, 67
1, 72868, Note_on_c, 0, 51, 58
1, 72946, Note_off_c, 0, 55, 54
1, 72971, Note_off_c, 0, 51, 61
1, 72972, Note_off_c, 0, 46, 63
1, 73040, Note_on_c, 0, 75, 84
1, 73055, Note_on_c, 0, 55, 69
1, 73056, Note_on_c, 0, 46, 71
1, 73056, Note_on_c, 0, 51, 59
1, 73057, Note_off_c, 0, 74, 58
1, 73116, Note_off_c, 0, 55, 61
1, 73127, Note_off_c, 0, 75, 65
1, 73139, Note_off_c, 0, 51, 62
1, 73185, Control_c, 0, 64, 95
1, 73200, Control_c, 0, 64, 69
1, 73210, Note_off_c, 0, 46, 53
1, 73211, Note_on_c, 0, 77, 83
1, 73215, Control_c, 0, 64, 63
1, 73225, Note_on_c, 0, 55, 70
1, 73227, Note_on_c, 0, 51, 58
1, 73229, Note_on_c, 0, 44, 75
1, 73230, Control_c, 0, 64, 66
1, 73244, Control_c, 0, 64, 81
1, 73259, Control_c, 0, 64, 127
1, 73303, Note_off_c, 0, 55, 59
1, 73315, Note_off_c, 0, 51, 62
1, 73333, Control_c, 0, 64, 94
1, 73348, Note_off_c, 0, 44, 62
1, 73348, Control_c, 0, 64, 70
1, 73363, Control_c, 0, 64, 59
1, 73378, Control_c, 0, 64, 57
1, 73387, Note_on_c, 0, 79, 88
1, 73392, Control_c, 0, 64, 65
1, 73405, Note_on_c, 0, 43, 66
1, 73406, Note_on_c, 0, 51, 56
1, 73406, Note_on_c, 0, 55, 65
1, 73407, Note_off_c, 0, 77, 63
1, 73407, Control_c, 0, 64, 88
1, 73429, Control_c, 0, 64, 127
1, 73461, Note_off_c, 0, 79, 66
1, 73472, Note_off_c, 0, 55, 59
1, 73478, Note_off_c, 0, 51, 64
1, 73488, Note_off_c, 0, 43, 63
1, 73571, Note_on_c, 0, 55, 63
1, 73573, Note_on_c, 0, 43, 68
1, 73585, Note_on_c, 0, 80, 88
1, 73593, Note_on_c, 0, 51, 49
1, 73628, Note_off_c, 0, 51, 61
1, 73639, Note_off_c, 0, 55, 58
1, 73693, Note_off_c, 0, 43, 60
1, 73792, Note_on_c, 0, 82, 83
1, 73798, Note_on_c, 0, 43, 71
1, 73801, Note_off_c, 0, 80, 61
1, 73815, Control_c, 0, 64, 79
1, 73830, Control_c, 0, 64, 61
1, 73845, Control_c, 0, 64, 40
1, 73860, Control_c, 0, 64, 0
1, 73934, Control_c, 0, 64, 18
1, 73948, Control_c, 0, 64, 51
1, 73963, Control_c, 0, 64, 67
1, 73978, Control_c, 0, 64, 77
1, 73985, Note_on_c, 0, 51, 69
1, 73992, Control_c, 0, 64, 86
1, 73993, Note_on_c, 0, 55, 57
1, 73998, Note_off_c, 0, 43, 60
1, 74007, Control_c, 0, 64, 99
1, 74022, Control_c, 0, 64, 111
1, 74037, Control_c, 0, 64, 127
1, 74072, Note_off_c, 0, 55, 60
1, 74107, Note_off_c, 0, 51, 63
1, 74209, Note_on_c, 0, 51, 69
1, 74215, Note_on_c, 0, 55, 54
1, 74230, Note_on_c, 0, 75, 77
1, 74233, Note_off_c, 0, 82, 61
1, 74238, Control_c, 0, 64, 87
1, 74253, Control_c, 0, 64, 73
1, 74268, Control_c, 0, 64, 71
1, 74280, Note_off_c, 0, 55, 49
1, 74282, Control_c, 0, 64, 77
1, 74297, Control_c, 0, 64, 102
1, 74312, Control_c, 0, 64, 127
1, 74344, Note_off_c, 0, 51, 53
1, 74391, Note_on_c, 0, 50, 72
1, 74391, Note_on_c, 0, 51, 32
1, 74395, Note_on_c, 0, 55, 68
1, 74451, Note_off_c, 0, 55, 57
1, 74461, Control_c, 0, 64, 94
1, 74466, Note_off_c, 0, 51, 59
1, 74476, Control_c, 0, 64, 84
1, 74478, Note_off_c, 0, 50, 66
1, 74505, Control_c, 0, 64, 90
1, 74520, Control_c, 0, 64, 127
1, 74560, Note_on_c, 0, 50, 65
1, 74567, Note_on_c, 0, 55, 65
1, 74578, Note_on_c, 0, 51, 59
1, 74630, Note_off_c, 0, 55, 60
1, 74639, Note_off_c, 0, 51, 56
1, 74670, Note_off_c, 0, 50, 62
1, 74688, Note_off_c, 0, 75, 63
1, 74732, Note_on_c, 0, 48, 74
1, 74734, Note_on_c, 0, 55, 71
1, 74734, Note_on_c, 0, 51, 64
1, 74803, Note_off_c, 0, 51, 63
1, 74803, Note_off_c, 0, 55, 59
1, 74831, Note_off_c, 0, 48, 63
1, 74876, Control_c, 0, 64, 104
1, 74890, Control_c, 0, 64, 83
1, 74904, Note_on_c, 0, 48, 79
1, 74905, Control_c, 0, 64, 80
1, 74921, Note_on_c, 0, 55, 78
1, 74928, Note_on_c, 0, 51, 64
1, 74928, Control_c, 0, 64, 86
1, 74942, Control_c, 0, 64, 113
1, 74957, Control_c, 0, 64, 127
1, 74987, Note_off_c, 0, 55, 59
1, 74993, Note_off_c, 0, 51, 62
1, 75027, Note_off_c, 0, 48, 63
1, 75100, Note_on_c, 0, 87, 89
1, 75102, Note_on_c, 0, 55, 79
1, 75105, Control_c, 0, 64, 81
1, 75110, Note_on_c, 0, 46, 77
1, 75111, Note_on_c, 0, 51, 73
1, 75120, Control_c, 0, 64, 61
1, 75135, Control_c, 0, 64, 50
1, 75151, Control_c, 0, 64, 54
1, 75166, Control_c, 0, 64, 64
1, 75181, Control_c, 0, 64, 76
1, 75195, Control_c, 0, 64, 112
1, 75199, Note_off_c, 0, 55, 58
1, 75210, Control_c, 0, 64, 127
1, 75221, Note_off_c, 0, 51, 61
1, 75229, Note_off_c, 0, 46, 63
1, 75300, Note_on_c, 0, 55, 82
1, 75303, Note_on_c, 0, 89, 93
1, 75304, Note_on_c, 0, 46, 79
1, 75304, Note_on_c, 0, 51, 75
1, 75320, Note_off_c, 0, 87, 67
1, 75367, Note_off_c, 0, 55, 58
1, 75394, Note_off_c, 0, 51, 62
1, 75403, Note_off_c, 0, 89, 65
1, 75414, Note_off_c, 0, 46, 64
1, 75486, Note_on_c, 0, 46, 78
1, 75488, Note_on_c, 0, 55, 74
1, 75488, Note_on_c, 0, 91, 85
1, 75495, Note_on_c, 0, 51, 74
1, 75597, Note_off_c, 0, 55, 53
1, 75628, Note_off_c, 0, 51, 59
1, 75676, Control_c, 0, 64, 122
1, 75691, Control_c, 0, 64, 76
1, 75701, Note_on_c, 0, 51, 61
1, 75703, Note_on_c, 0, 92, 93
1, 75706, Control_c, 0, 64, 60
1, 75715, Note_off_c, 0, 46, 65
1, 75715, Note_on_c, 0, 55, 73
1, 75718, Note_on_c, 0, 44, 79
1, 75721, Control_c, 0, 64, 43
1, 75735, Control_c, 0, 64, 47
1, 75737, Note_off_c, 0, 91, 64
1, 75750, Control_c, 0, 64, 59
1, 75765, Control_c, 0, 64, 70
1, 75780, Control_c, 0, 64, 87
1, 75795, Control_c, 0, 64, 127
1, 75823, Note_off_c, 0, 55, 55
1, 75834, Note_off_c, 0, 51, 60
1, 75900, Note_off_c, 0, 44, 61
1, 75913, Control_c, 0, 64, 77
1, 75928, Control_c, 0, 64, 58
1, 75929, Note_on_c, 0, 51, 56
1, 75931, Note_on_c, 0, 55, 67
1, 75935, Note_on_c, 0, 43, 59
1, 75944, Control_c, 0, 64, 50
1, 75956, Note_on_c, 0, 94, 93
1, 75959, Control_c, 0, 64, 57
1, 75974, Control_c, 0, 64, 69
1, 75989, Control_c, 0, 64, 91
1, 76003, Note_off_c, 0, 92, 66
1, 76003, Note_off_c, 0, 55, 53
1, 76003, Control_c, 0, 64, 127
1, 76039, Note_off_c, 0, 51, 60
1, 76268, Note_off_c, 0, 43, 31
1, 76384, Note_on_c, 0, 96, 86
1, 76388, Control_c, 0, 64, 83
1, 76395, Note_on_c, 0, 53, 49
1, 76401, Note_on_c, 0, 44, 53
1, 76403, Control_c, 0, 64, 64
1, 76404, Note_on_c, 0, 51, 46
1, 76425, Control_c, 0, 64, 44
1, 76425, Control_c, 0, 67, 8
1, 76440, Control_c, 0, 64, 25
1, 76440, Control_c, 0, 67, 8
1, 76452, Note_off_c, 0, 94, 63
1, 76455, Control_c, 0, 64, 0
1, 76455, Control_c, 0, 67, 8
1, 76484, Control_c, 0, 67, 0
1, 76811, Control_c, 0, 64, 10
1, 76826, Control_c, 0, 64, 22
1, 76841, Control_c, 0, 64, 29
1, 76856, Control_c, 0, 64, 36
1, 76871, Control_c, 0, 64, 44
1, 76885, Control_c, 0, 64, 51
1, 76900, Control_c, 0, 64, 56
1, 76915, Control_c, 0, 64, 58
1, 76930, Control_c, 0, 64, 59
1, 76945, Control_c, 0, 64, 61
1, 76960, Control_c, 0, 64, 63
1, 76974, Control_c, 0, 64, 65
1, 76989, Control_c, 0, 64, 67
1, 77004, Control_c, 0, 64, 69
1, 77018, Control_c, 0, 64, 72
1, 77033, Control_c, 0, 64, 75
1, 77048, Control_c, 0, 64, 78
1, 77063, Control_c, 0, 64, 80
1, 77078, Control_c, 0, 64, 82
1, 77092, Control_c, 0, 64, 86
1, 77107, Control_c, 0, 64, 93
1, 77122, Control_c, 0, 64, 102
1, 77136, Control_c, 0, 64, 115
1, 77151, Control_c, 0, 64, 127
1, 77195, Note_off_c, 0, 96, 58
1, 77201, Note_off_c, 0, 53, 31
1, 77223, Note_off_c, 0, 44, 0
1, 77262, Poly_aftertouch_c, 0, 44, 0
1, 77264, Note_off_c, 0, 51, 37
1, 77589, Control_c, 0, 64, 98
1, 77604, Control_c, 0, 64, 85
1, 77619, Control_c, 0, 64, 76
1, 77633, Control_c, 0, 64, 71
1, 77648, Control_c, 0, 64, 67
1, 77663, Control_c, 0, 64, 64
1, 77678, Control_c, 0, 64, 60
1, 77693, Control_c, 0, 64, 56
1, 77707, Control_c, 0, 64, 51
1, 77722, Control_c, 0, 64, 45
1, 77737, Control_c, 0, 64, 35
1, 77752, Control_c, 0, 64, 27
1, 77766, Control_c, 0, 64, 15
1, 77781, Control_c, 0, 64, 0
1, 77781, Control_c, 0, 67, 8
1, 77796, Control_c, 0, 67, 11
1, 77811, Control_c, 0, 67, 13
1, 77826, Control_c, 0, 67, 16
1, 77840, Control_c, 0, 67, 22
1, 77855, Control_c, 0, 67, 31
1, 77870, Control_c, 0, 67, 41
1, 77885, Control_c, 0, 67, 53
1, 77900, Control_c, 0, 67, 65
1, 77922, Control_c, 0, 67, 80
1, 77937, Control_c, 0, 67, 93
1, 77952, Control_c, 0, 67, 107
1, 77966, Control_c, 0, 67, 114
1, 77981, Control_c, 0, 67, 116
1, 77996, Control_c, 0, 67, 119
1, 78011, Control_c, 0, 67, 123
1, 78026, Control_c, 0, 67, 126
1, 78040, Control_c, 0, 67, 127
1, 78055, Control_c, 0, 64, 12
1, 78070, Control_c, 0, 64, 20
1, 78085, Control_c, 0, 64, 27
1, 78100, Control_c, 0, 64, 34
1, 78114, Control_c, 0, 64, 42
1, 78129, Control_c, 0, 64, 51
1, 78144, Control_c, 0, 64, 56
1, 78159, Control_c, 0, 64, 59
1, 78174, Control_c, 0, 64, 60
1, 78189, Control_c, 0, 64, 61
1, 78204, Control_c, 0, 64, 62
1, 78219, Control_c, 0, 64, 63
1, 78233, Control_c, 0, 64, 65
1, 78248, Control_c, 0, 64, 67
1, 78263, Control_c, 0, 64, 68
1, 78278, Control_c, 0, 64, 70
1, 78293, Control_c, 0, 64, 73
1, 78307, Control_c, 0, 64, 76
1, 78322, Control_c, 0, 64, 80
1, 78338, Control_c, 0, 64, 85
1, 78353, Control_c, 0, 64, 88
1, 78368, Control_c, 0, 64, 91
1, 78382, Control_c, 0, 64, 94
1, 78397, Control_c, 0, 64, 98
1, 78412, Control_c, 0, 64, 103
1, 78427, Control_c, 0, 64, 107
1, 78442, Control_c, 0, 64, 109
1, 78456, Control_c, 0, 64, 110
1, 78471, Control_c, 0, 64, 110
1, 78474, Note_on_c, 0, 65, 52
1, 78486, Control_c, 0, 64, 111
1, 78490, Note_on_c, 0, 51, 36
1, 78499, Note_on_c, 0, 45, 40
1, 78499, Note_on_c, 0, 53, 28
1, 78501, Control_c, 0, 64, 112
1, 78516, Control_c, 0, 64, 113
1, 78535, Note_off_c, 0, 65, 57
1, 78536, Note_off_c, 0, 51, 57
1, 78542, Note_off_c, 0, 53, 50
1, 78569, Note_off_c, 0, 45, 52
1, 78589, Control_c, 0, 64, 112
1, 78604, Control_c, 0, 64, 105
1, 78619, Control_c, 0, 64, 95
1, 78634, Control_c, 0, 64, 82
1, 78649, Control_c, 0, 64, 72
1, 78667, Note_on_c, 0, 53, 40
1, 78671, Control_c, 0, 64, 64
1, 78672, Note_on_c, 0, 65, 50
1, 78674, Note_on_c, 0, 70, 55
1, 78686, Control_c, 0, 64, 58
1, 78693, Note_on_c, 0, 50, 44
1, 78694, Note_on_c, 0, 46, 41
1, 78701, Control_c, 0, 64, 52
1, 78716, Control_c, 0, 64, 46
1, 78731, Control_c, 0, 64, 37
1, 78745, Control_c, 0, 64, 13
1, 78760, Control_c, 0, 64, 0
1, 78874, Note_off_c, 0, 53, 49
1, 78878, Control_c, 0, 64, 24
1, 78881, Note_off_c, 0, 65, 48
1, 78893, Control_c, 0, 64, 47
1, 78900, Note_off_c, 0, 50, 59
1, 78908, Control_c, 0, 64, 60
1, 78923, Control_c, 0, 64, 65
1, 78927, Note_off_c, 0, 46, 50
1, 78937, Control_c, 0, 64, 66
1, 78952, Control_c, 0, 64, 67
1, 78967, Control_c, 0, 64, 69
1, 78970, Note_off_c, 0, 70, 60
1, 78982, Control_c, 0, 64, 71
1, 78997, Control_c, 0, 64, 72
1, 79026, Control_c, 0, 64, 72
1, 79041, Control_c, 0, 64, 68
1, 79056, Control_c, 0, 64, 63
1, 79071, Control_c, 0, 64, 53
1, 79086, Control_c, 0, 64, 38
1, 79101, Control_c, 0, 64, 8
1, 79115, Control_c, 0, 64, 0
1, 79311, Note_on_c, 0, 70, 61
1, 79324, Control_c, 0, 64, 34
1, 79327, Note_on_c, 0, 46, 40
1, 79327, Note_on_c, 0, 50, 44
1, 79336, Note_on_c, 0, 65, 36
1, 79339, Control_c, 0, 64, 55
1, 79353, Control_c, 0, 64, 63
1, 79368, Control_c, 0, 64, 63
1, 79419, Control_c, 0, 64, 63
1, 79434, Control_c, 0, 64, 61
1, 79441, Note_off_c, 0, 46, 43
1, 79444, Note_off_c, 0, 65, 54
1, 79449, Control_c, 0, 64, 56
1, 79464, Control_c, 0, 64, 51
1, 79479, Control_c, 0, 64, 44
1, 79487, Note_off_c, 0, 50, 58
1, 79491, Note_on_c, 0, 69, 67
1, 79493, Control_c, 0, 64, 33
1, 79494, Note_off_c, 0, 70, 58
1, 79508, Note_on_c, 0, 48, 49
1, 79508, Control_c, 0, 64, 16
1, 79521, Note_on_c, 0, 51, 41
1, 79523, Control_c, 0, 64, 0
1, 79569, Poly_aftertouch_c, 0, 65, 127
1, 79700, Control_c, 0, 64, 12
1, 79715, Control_c, 0, 64, 31
1, 79730, Control_c, 0, 64, 49
1, 79745, Control_c, 0, 64, 62
1, 79760, Control_c, 0, 64, 66
1, 79775, Control_c, 0, 64, 68
1, 79789, Control_c, 0, 64, 71
1, 79804, Control_c, 0, 64, 75
1, 79819, Control_c, 0, 64, 80
1, 79834, Control_c, 0, 64, 88
1, 79849, Control_c, 0, 64, 95
1, 79864, Control_c, 0, 64, 101
1, 79879, Control_c, 0, 64, 108
1, 79893, Control_c, 0, 64, 114
1, 79908, Control_c, 0, 64, 124
1, 79923, Control_c, 0, 64, 127
1, 79940, Poly_aftertouch_c, 0, 65, 0
1, 79979, Note_off_c, 0, 51, 39
1, 80028, Note_off_c, 0, 48, 39
1, 80146, Control_c, 0, 64, 119
1, 80168, Control_c, 0, 64, 115
1, 80183, Control_c, 0, 64, 109
1, 80198, Control_c, 0, 64, 103
1, 80213, Control_c, 0, 64, 96
1, 80228, Control_c, 0, 64, 89
1, 80228, Note_off_c, 0, 69, 52
1, 80242, Control_c, 0, 64, 81
1, 80257, Control_c, 0, 64, 75
1, 80259, Note_on_c, 0, 68, 56
1, 80272, Control_c, 0, 64, 70
1, 80280, Note_on_c, 0, 65, 39
1, 80284, Note_on_c, 0, 59, 37
1, 80287, Control_c, 0, 64, 67
1, 80290, Note_on_c, 0, 50, 39
1, 80302, Control_c, 0, 64, 64
1, 80316, Control_c, 0, 64, 61
1, 80331, Control_c, 0, 64, 57
1, 80346, Control_c, 0, 64, 53
1, 80360, Control_c, 0, 64, 49
1, 80375, Control_c, 0, 64, 44
1, 80390, Control_c, 0, 64, 36
1, 80405, Control_c, 0, 64, 28
1, 80420, Control_c, 0, 64, 17
1, 80434, Control_c, 0, 64, 0
1, 80597, Control_c, 0, 64, 15
1, 80612, Control_c, 0, 64, 41
1, 80627, Control_c, 0, 64, 57
1, 80642, Control_c, 0, 64, 65
1, 80657, Control_c, 0, 64, 67
1, 80672, Control_c, 0, 64, 68
1, 80687, Control_c, 0, 64, 69
1, 80702, Control_c, 0, 64, 72
1, 80716, Control_c, 0, 64, 74
1, 80731, Control_c, 0, 64, 77
1, 80746, Control_c, 0, 64, 78
1, 80761, Control_c, 0, 64, 78
1, 80791, Control_c, 0, 64, 79
1, 80791, Note_off_c, 0, 59, 43
1, 80839, Note_off_c, 0, 50, 42
1, 80991, Control_c, 0, 64, 78
1, 81006, Control_c, 0, 64, 78
1, 81021, Control_c, 0, 64, 76
1, 81035, Control_c, 0, 64, 74
1, 81050, Control_c, 0, 64, 70
1, 81065, Control_c, 0, 64, 65
1, 81065, Note_off_c, 0, 65, 35
1, 81080, Control_c, 0, 64, 56
1, 81090, Note_on_c, 0, 67, 47
1, 81095, Control_c, 0, 64, 40
1, 81106, Note_on_c, 0, 51, 25
1, 81109, Note_off_c, 0, 68, 44
1, 81110, Control_c, 0, 64, 0
1, 81111, Note_on_c, 0, 58, 33
1, 81169, Control_c, 0, 64, 35
1, 81183, Control_c, 0, 64, 59
1, 81188, Note_off_c, 0, 51, 60
1, 81198, Control_c, 0, 64, 73
1, 81200, Note_off_c, 0, 58, 61
1, 81213, Control_c, 0, 64, 85
1, 81219, Note_off_c, 0, 67, 63
1, 81228, Control_c, 0, 64, 101
1, 81243, Control_c, 0, 64, 127
1, 81478, Note_on_c, 0, 87, 65
1, 81480, Control_c, 0, 64, 111
1, 81485, Note_on_c, 0, 67, 47
1, 81493, Note_on_c, 0, 63, 50
1, 81495, Control_c, 0, 64, 81
1, 81509, Control_c, 0, 64, 66
1, 81525, Control_c, 0, 64, 57
1, 81540, Control_c, 0, 64, 56
1, 81554, Control_c, 0, 64, 62
1, 81569, Control_c, 0, 64, 70
1, 81584, Control_c, 0, 64, 81
1, 81599, Control_c, 0, 64, 94
1, 81614, Control_c, 0, 64, 95
1, 81629, Control_c, 0, 64, 92
1, 81644, Control_c, 0, 64, 79
1, 81661, Note_off_c, 0, 67, 61
1, 81667, Control_c, 0, 64, 64
1, 81681, Control_c, 0, 64, 52
1, 81696, Control_c, 0, 64, 38
1, 81698, Note_off_c, 0, 63, 61
1, 81711, Control_c, 0, 64, 29
1, 81712, Note_on_c, 0, 86, 72
1, 81719, Note_on_c, 0, 68, 48
1, 81726, Control_c, 0, 64, 24
1, 81732, Note_on_c, 0, 65, 42
1, 81741, Control_c, 0, 64, 10
1, 81755, Control_c, 0, 64, 0
1, 81785, Note_off_c, 0, 87, 35
1, 81865, Note_off_c, 0, 68, 56
1, 81874, Control_c, 0, 64, 32
1, 81888, Control_c, 0, 64, 56
1, 81892, Note_on_c, 0, 85, 76
1, 81900, Note_on_c, 0, 70, 59
1, 81903, Control_c, 0, 64, 67
1, 81904, Note_off_c, 0, 86, 60
1, 81914, Note_on_c, 0, 67, 49
1, 81918, Control_c, 0, 64, 72
1, 81923, Note_off_c, 0, 65, 37
1, 81933, Control_c, 0, 64, 76
1, 81948, Control_c, 0, 64, 81
1, 81963, Control_c, 0, 64, 85
1, 81977, Control_c, 0, 64, 91
1, 81985, Note_off_c, 0, 70, 64
1, 81992, Control_c, 0, 64, 98
1, 82007, Control_c, 0, 64, 104
1, 82022, Control_c, 0, 64, 109
1, 82037, Control_c, 0, 64, 109
1, 82067, Control_c, 0, 64, 109
1, 82081, Control_c, 0, 64, 104
1, 82089, Note_off_c, 0, 67, 55
1, 82095, Note_on_c, 0, 84, 71
1, 82096, Control_c, 0, 64, 88
1, 82098, Note_off_c, 0, 85, 64
1, 82111, Control_c, 0, 64, 72
1, 82118, Note_on_c, 0, 72, 66
1, 82126, Control_c, 0, 64, 58
1, 82137, Note_on_c, 0, 68, 50
1, 82141, Control_c, 0, 64, 38
1, 82155, Control_c, 0, 64, 0
1, 82185, Control_c, 0, 64, 17
1, 82199, Control_c, 0, 64, 40
1, 82214, Control_c, 0, 64, 59
1, 82229, Control_c, 0, 64, 69
1, 82244, Control_c, 0, 64, 76
1, 82246, Note_off_c, 0, 84, 60
1, 82251, Note_on_c, 0, 82, 69
1, 82259, Control_c, 0, 64, 78
1, 82273, Control_c, 0, 64, 79
1, 82288, Control_c, 0, 64, 80
1, 82302, Note_off_c, 0, 72, 58
1, 82303, Control_c, 0, 64, 80
1, 82334, Control_c, 0, 64, 81
1, 82337, Note_off_c, 0, 68, 57
1, 82349, Control_c, 0, 64, 81
1, 82367, Note_on_c, 0, 80, 69
1, 82373, Note_off_c, 0, 82, 61
1, 82445, Note_off_c, 0, 80, 62
1, 82469, Note_on_c, 0, 79, 69
1, 82561, Note_off_c, 0, 79, 60
1, 82564, Note_on_c, 0, 78, 72
1, 82657, Note_on_c, 0, 77, 68
1, 82661, Note_off_c, 0, 78, 58
1, 82667, Control_c, 0, 64, 81
1, 82697, Control_c, 0, 64, 80
1, 82711, Control_c, 0, 64, 79
1, 82717, Note_off_c, 0, 77, 63
1, 82726, Control_c, 0, 64, 78
1, 82741, Control_c, 0, 64, 77
1, 82743, Note_on_c, 0, 76, 73
1, 82755, Control_c, 0, 64, 76
1, 82770, Control_c, 0, 64, 74
1, 82785, Control_c, 0, 64, 72
1, 82797, Note_off_c, 0, 76, 61
1, 82800, Control_c, 0, 64, 70
1, 82815, Control_c, 0, 64, 68
1, 82828, Note_on_c, 0, 75, 77
1, 82830, Control_c, 0, 64, 67
1, 82845, Control_c, 0, 64, 66
1, 82860, Control_c, 0, 64, 65
1, 82875, Control_c, 0, 64, 64
1, 82890, Control_c, 0, 64, 63
1, 82904, Control_c, 0, 64, 62
1, 82918, Note_off_c, 0, 75, 63
1, 82919, Control_c, 0, 64, 61
1, 82931, Note_on_c, 0, 74, 68
1, 82934, Control_c, 0, 64, 60
1, 82948, Control_c, 0, 64, 58
1, 82963, Control_c, 0, 64, 55
1, 82978, Control_c, 0, 64, 53
1, 82993, Control_c, 0, 64, 50
1, 83008, Control_c, 0, 64, 48
1, 83016, Note_off_c, 0, 74, 57
1, 83020, Note_on_c, 0, 73, 68
1, 83022, Control_c, 0, 64, 45
1, 83037, Control_c, 0, 64, 41
1, 83052, Control_c, 0, 64, 35
1, 83067, Control_c, 0, 64, 31
1, 83082, Control_c, 0, 64, 28
1, 83096, Control_c, 0, 64, 25
1, 83111, Control_c, 0, 64, 22
1, 83116, Note_on_c, 0, 72, 65
1, 83127, Control_c, 0, 64, 19
1, 83128, Note_off_c, 0, 73, 61
1, 83142, Control_c, 0, 64, 16
1, 83164, Control_c, 0, 64, 13
1, 83179, Control_c, 0, 64, 12
1, 83191, Note_off_c, 0, 72, 61
1, 83194, Control_c, 0, 64, 11
1, 83209, Control_c, 0, 64, 10
1, 83217, Note_on_c, 0, 71, 62
1, 83307, Note_off_c, 0, 71, 50
1, 83326, Note_on_c, 0, 70, 57
1, 83432, Note_off_c, 0, 70, 60
1, 83435, Note_on_c, 0, 68, 57
1, 83460, Control_c, 0, 64, 9
1, 83505, Control_c, 0, 64, 8
1, 83520, Control_c, 0, 64, 0
1, 83536, Note_off_c, 0, 68, 63
1, 83560, Note_on_c, 0, 45, 35
1, 83560, Note_on_c, 0, 67, 58
1, 83566, Note_on_c, 0, 53, 32
1, 83575, Note_on_c, 0, 51, 29
1, 83641, Note_off_c, 0, 67, 61
1, 83686, Note_on_c, 0, 65, 50
1, 83730, Note_off_c, 0, 53, 50
1, 83857, Note_off_c, 0, 65, 58
1, 83876, Note_on_c, 0, 70, 54
1, 83885, Note_off_c, 0, 51, 42
1, 83902, Note_on_c, 0, 53, 21
1, 83915, Note_on_c, 0, 62, 40
1, 83927, Note_on_c, 0, 46, 33
1, 83950, Note_off_c, 0, 45, 43
1, 84105, Control_c, 0, 64, 16
1, 84120, Control_c, 0, 64, 30
1, 84135, Control_c, 0, 64, 45
1, 84135, Control_c, 0, 67, 127
1, 84149, Control_c, 0, 64, 58
1, 84149, Control_c, 0, 67, 122
1, 84164, Control_c, 0, 64, 65
1, 84164, Control_c, 0, 67, 117
1, 84179, Control_c, 0, 64, 67
1, 84179, Control_c, 0, 67, 114
1, 84192, Note_off_c, 0, 53, 40
1, 84194, Control_c, 0, 64, 69
1, 84194, Control_c, 0, 67, 112
1, 84208, Control_c, 0, 64, 73
1, 84208, Control_c, 0, 67, 109
1, 84223, Control_c, 0, 64, 77
1, 84223, Control_c, 0, 67, 105
1, 84238, Control_c, 0, 64, 83
1, 84238, Control_c, 0, 67, 101
1, 84250, Note_off_c, 0, 62, 43
1, 84253, Control_c, 0, 64, 87
1, 84253, Control_c, 0, 67, 100
1, 84268, Control_c, 0, 64, 91
1, 84282, Control_c, 0, 64, 93
1, 84288, Note_off_c, 0, 46, 41
1, 84297, Control_c, 0, 64, 96
1, 84297, Control_c, 0, 67, 101
1, 84312, Control_c, 0, 64, 99
1, 84312, Control_c, 0, 67, 103
1, 84327, Control_c, 0, 64, 99
1, 84327, Control_c, 0, 67, 105
1, 84342, Control_c, 0, 67, 108
1, 84356, Control_c, 0, 67, 110
1, 84367, Note_off_c, 0, 70, 62
1, 84371, Control_c, 0, 67, 111
1, 84386, Control_c, 0, 67, 113
1, 84401, Control_c, 0, 67, 114
1, 84416, Control_c, 0, 67, 116
1, 84431, Control_c, 0, 67, 118
1, 84446, Control_c, 0, 67, 120
1, 84461, Control_c, 0, 67, 121
1, 84475, Control_c, 0, 67, 122
1, 84490, Control_c, 0, 67, 124
1, 84505, Control_c, 0, 67, 125
1, 84520, Control_c, 0, 67, 126
1, 84534, Control_c, 0, 67, 126
1, 84549, Control_c, 0, 67, 127
1, 84564, Control_c, 0, 64, 99
1, 84579, Control_c, 0, 64, 94
1, 84593, Control_c, 0, 64, 87
1, 84608, Control_c, 0, 64, 80
1, 84623, Control_c, 0, 64, 71
1, 84638, Control_c, 0, 64, 62
1, 84660, Control_c, 0, 64, 51
1, 84675, Control_c, 0, 64, 32
1, 84690, Control_c, 0, 64, 19
1, 84695, Note_on_c, 0, 70, 68
1, 84705, Control_c, 0, 64, 16
1, 84708, Note_on_c, 0, 46, 35
1, 84720, Control_c, 0, 64, 20
1, 84726, Note_on_c, 0, 56, 32
1, 84734, Note_on_c, 0, 62, 34
1, 84735, Control_c, 0, 64, 37
1, 84750, Control_c, 0, 64, 56
1, 84765, Control_c, 0, 64, 68
1, 84780, Control_c, 0, 64, 77
1, 84794, Control_c, 0, 64, 84
1, 84809, Control_c, 0, 64, 86
1, 84824, Control_c, 0, 64, 87
1, 84839, Control_c, 0, 64, 89
1, 84854, Control_c, 0, 64, 91
1, 84869, Control_c, 0, 64, 93
1, 84876, Note_off_c, 0, 46, 35
1, 84884, Control_c, 0, 64, 93
1, 84911, Note_off_c, 0, 70, 61
1, 84976, Note_on_c, 0, 70, 69
1, 84994, Note_off_c, 0, 62, 57
1, 84997, Note_on_c, 0, 63, 55
1, 85002, Control_c, 0, 64, 92
1, 85015, Note_on_c, 0, 55, 45
1, 85017, Control_c, 0, 64, 87
1, 85018, Note_on_c, 0, 51, 44
1, 85031, Control_c, 0, 64, 80
1, 85042, Note_off_c, 0, 56, 40
1, 85046, Control_c, 0, 64, 72
1, 85061, Control_c, 0, 64, 65
1, 85076, Control_c, 0, 64, 58
1, 85091, Control_c, 0, 64, 53
1, 85105, Control_c, 0, 64, 50
1, 85120, Control_c, 0, 64, 48
1, 85135, Control_c, 0, 64, 45
1, 85149, Control_c, 0, 64, 42
1, 85164, Control_c, 0, 64, 39
1, 85179, Control_c, 0, 64, 38
1, 85194, Control_c, 0, 64, 37
1, 85209, Control_c, 0, 64, 36
1, 85224, Control_c, 0, 64, 36
1, 85239, Control_c, 0, 64, 35
1, 85253, Control_c, 0, 64, 35
1, 85283, Control_c, 0, 64, 35
1, 85388, Control_c, 0, 64, 36
1, 85410, Control_c, 0, 64, 36
1, 85543, Note_on_c, 0, 72, 56
1, 85549, Note_off_c, 0, 70, 59
1, 85561, Note_on_c, 0, 56, 44
1, 85568, Note_off_c, 0, 55, 53
1, 85574, Control_c, 0, 64, 37
1, 85721, Control_c, 0, 64, 37
1, 85778, Note_off_c, 0, 56, 61
1, 85792, Note_on_c, 0, 70, 61
1, 85808, Note_on_c, 0, 55, 44
1, 85835, Note_off_c, 0, 72, 59
1, 85870, Control_c, 0, 64, 37
1, 85873, Note_off_c, 0, 51, 54
1, 85885, Control_c, 0, 64, 36
1, 85959, Control_c, 0, 64, 36
1, 85973, Control_c, 0, 64, 35
1, 85997, Note_on_c, 0, 68, 62
1, 85997, Note_off_c, 0, 55, 59
1, 85999, Note_off_c, 0, 70, 62
1, 86003, Note_on_c, 0, 53, 45
1, 86018, Control_c, 0, 64, 35
1, 86092, Control_c, 0, 64, 34
1, 86107, Control_c, 0, 64, 34
1, 86121, Control_c, 0, 64, 33
1, 86191, Note_off_c, 0, 53, 59
1, 86192, Note_on_c, 0, 67, 63
1, 86201, Note_off_c, 0, 68, 60
1, 86203, Control_c, 0, 64, 33
1, 86204, Note_on_c, 0, 51, 48
1, 86218, Control_c, 0, 64, 32
1, 86247, Control_c, 0, 64, 32
1, 86277, Control_c, 0, 64, 31
1, 86292, Control_c, 0, 64, 30
1, 86307, Control_c, 0, 64, 29
1, 86323, Control_c, 0, 64, 29
1, 86338, Control_c, 0, 64, 28
1, 86352, Control_c, 0, 64, 27
1, 86367, Control_c, 0, 64, 26
1, 86381, Note_off_c, 0, 67, 62
1, 86382, Control_c, 0, 64, 26
1, 86392, Note_off_c, 0, 51, 59
1, 86394, Note_on_c, 0, 65, 59
1, 86410, Note_on_c, 0, 50, 44
1, 86559, Control_c, 0, 64, 26
1, 86565, Note_off_c, 0, 50, 63
1, 86574, Control_c, 0, 64, 27
1, 86589, Note_on_c, 0, 67, 64
1, 86589, Control_c, 0, 64, 28
1, 86593, Note_off_c, 0, 65, 57
1, 86601, Note_on_c, 0, 51, 44
1, 86619, Control_c, 0, 64, 28
1, 86649, Control_c, 0, 64, 29
1, 86663, Control_c, 0, 64, 30
1, 86678, Control_c, 0, 64, 31
1, 86693, Control_c, 0, 64, 32
1, 86738, Control_c, 0, 64, 32
1, 86752, Control_c, 0, 64, 33
1, 86767, Control_c, 0, 64, 33
1, 86826, Control_c, 0, 64, 32
1, 86830, Note_off_c, 0, 67, 62
1, 86839, Note_on_c, 0, 68, 58
1, 86841, Control_c, 0, 64, 31
1, 86844, Note_off_c, 0, 51, 60
1, 86865, Note_on_c, 0, 53, 30
1, 86870, Control_c, 0, 64, 31
1, 86880, Note_on_c, 0, 46, 37
1, 86923, Control_c, 0, 64, 30
1, 86952, Control_c, 0, 64, 32
1, 86967, Control_c, 0, 64, 38
1, 86982, Control_c, 0, 64, 42
1, 86996, Control_c, 0, 64, 41
1, 87011, Control_c, 0, 64, 37
1, 87026, Control_c, 0, 64, 32
1, 87041, Control_c, 0, 64, 28
1, 87054, Note_on_c, 0, 60, 45
1, 87056, Control_c, 0, 64, 26
1, 87059, Note_off_c, 0, 63, 58
1, 87070, Control_c, 0, 64, 23
1, 87085, Control_c, 0, 64, 22
1, 87115, Control_c, 0, 64, 25
1, 87131, Control_c, 0, 64, 34
1, 87146, Control_c, 0, 64, 46
1, 87161, Control_c, 0, 64, 56
1, 87175, Control_c, 0, 64, 61
1, 87190, Control_c, 0, 64, 62
1, 87220, Control_c, 0, 64, 63
1, 87249, Control_c, 0, 64, 62
1, 87264, Control_c, 0, 64, 59
1, 87279, Control_c, 0, 64, 54
1, 87280, Note_on_c, 0, 63, 44
1, 87280, Note_off_c, 0, 60, 47
1, 87293, Control_c, 0, 64, 47
1, 87308, Control_c, 0, 64, 38
1, 87323, Control_c, 0, 64, 26
1, 87338, Control_c, 0, 64, 21
1, 87353, Control_c, 0, 64, 21
1, 87367, Control_c, 0, 64, 30
1, 87382, Control_c, 0, 64, 47
1, 87392, Note_off_c, 0, 53, 41
1, 87397, Control_c, 0, 64, 58
1, 87412, Control_c, 0, 64, 63
1, 87427, Control_c, 0, 64, 65
1, 87441, Control_c, 0, 64, 66
1, 87456, Control_c, 0, 64, 66
1, 87471, Control_c, 0, 64, 67
1, 87486, Note_on_c, 0, 62, 48
1, 87486, Control_c, 0, 64, 70
1, 87496, Note_off_c, 0, 63, 55
1, 87501, Control_c, 0, 64, 71
1, 87516, Control_c, 0, 64, 72
1, 87531, Control_c, 0, 64, 73
1, 87545, Note_off_c, 0, 68, 35
1, 87700, Control_c, 0, 64, 72
1, 87715, Control_c, 0, 64, 71
1, 87730, Control_c, 0, 64, 68
1, 87744, Control_c, 0, 64, 65
1, 87759, Control_c, 0, 64, 60
1, 87766, Note_off_c, 0, 62, 60
1, 87770, Note_on_c, 0, 63, 44
1, 87774, Note_on_c, 0, 67, 48
1, 87774, Control_c, 0, 64, 54
1, 87786, Note_on_c, 0, 51, 28
1, 87789, Control_c, 0, 64, 47
1, 87790, Note_off_c, 0, 46, 45
1, 87794, Note_on_c, 0, 39, 36
1, 87804, Control_c, 0, 64, 42
1, 87818, Control_c, 0, 64, 36
1, 87833, Control_c, 0, 64, 31
1, 87848, Control_c, 0, 64, 26
1, 87863, Control_c, 0, 64, 24
1, 87878, Control_c, 0, 64, 23
1, 87892, Control_c, 0, 64, 22
1, 87907, Control_c, 0, 64, 21
1, 87923, Control_c, 0, 64, 19
1, 88044, Note_on_c, 0, 58, 28
1, 88047, Note_on_c, 0, 43, 45
1, 88056, Control_c, 0, 64, 20
1, 88071, Control_c, 0, 64, 21
1, 88108, Note_off_c, 0, 51, 55
1, 88116, Control_c, 0, 64, 21
1, 88130, Control_c, 0, 64, 23
1, 88145, Control_c, 0, 64, 23
1, 88205, Control_c, 0, 64, 23
1, 88219, Control_c, 0, 64, 22
1, 88234, Control_c, 0, 64, 21
1, 88249, Control_c, 0, 64, 20
1, 88257, Note_off_c, 0, 43, 61
1, 88264, Control_c, 0, 64, 20
1, 88268, Note_off_c, 0, 63, 41
1, 88269, Note_off_c, 0, 58, 41
1, 88276, Note_on_c, 0, 44, 57
1, 88279, Note_on_c, 0, 60, 42
1, 88279, Control_c, 0, 64, 19
1, 88294, Control_c, 0, 64, 18
1, 88309, Control_c, 0, 64, 17
1, 88323, Control_c, 0, 64, 17
1, 88338, Control_c, 0, 64, 13
1, 88353, Control_c, 0, 64, 0
1, 88435, Control_c, 0, 64, 12
1, 88449, Control_c, 0, 64, 36
1, 88460, Note_off_c, 0, 60, 61
1, 88460, Note_off_c, 0, 67, 64
1, 88464, Control_c, 0, 64, 53
1, 88468, Note_off_c, 0, 44, 62
1, 88474, Note_on_c, 0, 58, 48
1, 88479, Control_c, 0, 64, 61
1, 88494, Note_on_c, 0, 43, 62
1, 88494, Control_c, 0, 64, 64
1, 88509, Control_c, 0, 64, 64
1, 88524, Control_c, 0, 64, 65
1, 88538, Control_c, 0, 64, 65
1, 88553, Control_c, 0, 64, 66
1, 88568, Control_c, 0, 64, 66
1, 88628, Control_c, 0, 64, 65
1, 88642, Control_c, 0, 64, 64
1, 88655, Note_off_c, 0, 43, 62
1, 88657, Control_c, 0, 64, 63
1, 88672, Control_c, 0, 64, 60
1, 88681, Note_on_c, 0, 56, 57
1, 88687, Control_c, 0, 64, 56
1, 88690, Note_off_c, 0, 58, 60
1, 88696, Note_on_c, 0, 41, 58
1, 88702, Control_c, 0, 64, 53
1, 88717, Control_c, 0, 64, 50
1, 88732, Control_c, 0, 64, 47
1, 88738, Note_off_c, 0, 39, 57
1, 88747, Control_c, 0, 64, 44
1, 88762, Control_c, 0, 64, 40
1, 88777, Control_c, 0, 64, 36
1, 88792, Control_c, 0, 64, 33
1, 88806, Control_c, 0, 64, 31
1, 88821, Control_c, 0, 64, 30
1, 88836, Control_c, 0, 64, 29
1, 88851, Control_c, 0, 64, 28
1, 88865, Control_c, 0, 64, 26
1, 88880, Control_c, 0, 64, 25
1, 88886, Note_on_c, 0, 39, 60
1, 88902, Note_off_c, 0, 41, 56
1, 88909, Note_on_c, 0, 55, 51
1, 88914, Note_off_c, 0, 56, 57
1, 88940, Control_c, 0, 64, 24
1, 89087, Control_c, 0, 67, 126
1, 89102, Control_c, 0, 67, 125
1, 89117, Control_c, 0, 67, 123
1, 89129, Note_on_c, 0, 53, 51
1, 89132, Control_c, 0, 67, 121
1, 89144, Note_off_c, 0, 55, 57
1, 89151, Note_on_c, 0, 38, 60
1, 89153, Control_c, 0, 67, 120
1, 89159, Note_off_c, 0, 39, 62
1, 89168, Control_c, 0, 67, 118
1, 89183, Control_c, 0, 67, 116
1, 89197, Control_c, 0, 67, 114
1, 89212, Control_c, 0, 64, 26
1, 89212, Control_c, 0, 67, 111
1, 89227, Control_c, 0, 64, 28
1, 89227, Control_c, 0, 67, 108
1, 89242, Control_c, 0, 64, 30
1, 89242, Control_c, 0, 67, 106
1, 89257, Control_c, 0, 67, 105
1, 89272, Control_c, 0, 67, 103
1, 89287, Control_c, 0, 67, 102
1, 89302, Control_c, 0, 64, 30
1, 89316, Control_c, 0, 64, 31
1, 89331, Control_c, 0, 67, 103
1, 89346, Control_c, 0, 67, 105
1, 89359, Note_off_c, 0, 38, 63
1, 89361, Control_c, 0, 67, 106
1, 89368, Note_on_c, 0, 39, 65
1, 89368, Note_off_c, 0, 53, 61
1, 89373, Note_on_c, 0, 55, 55
1, 89376, Control_c, 0, 67, 108
1, 89390, Control_c, 0, 67, 109
1, 89405, Control_c, 0, 67, 110
1, 89420, Control_c, 0, 64, 32
1, 89420, Control_c, 0, 67, 111
1, 89435, Control_c, 0, 67, 113
1, 89450, Control_c, 0, 64, 32
1, 89450, Control_c, 0, 67, 114
1, 89464, Control_c, 0, 64, 33
1, 89464, Control_c, 0, 67, 114
1, 89479, Control_c, 0, 67, 115
1, 89494, Control_c, 0, 64, 32
1, 89525, Control_c, 0, 67, 114
1, 89555, Control_c, 0, 67, 114
1, 89569, Control_c, 0, 67, 113
1, 89584, Control_c, 0, 64, 32
1, 89584, Control_c, 0, 67, 113
1, 89599, Control_c, 0, 67, 112
1, 89613, Control_c, 0, 64, 31
1, 89613, Control_c, 0, 67, 111
1, 89628, Control_c, 0, 67, 110
1, 89643, Control_c, 0, 64, 30
1, 89643, Control_c, 0, 67, 109
1, 89656, Note_on_c, 0, 63, 50
1, 89658, Control_c, 0, 64, 29
1, 89658, Control_c, 0, 67, 109
1, 89659, Note_off_c, 0, 55, 62
1, 89673, Control_c, 0, 64, 28
1, 89673, Control_c, 0, 67, 108
1, 89674, Note_on_c, 0, 56, 53
1, 89688, Control_c, 0, 67, 107
1, 89692, Note_off_c, 0, 39, 61
1, 89695, Note_on_c, 0, 41, 52
1, 89701, Note_on_c, 0, 34, 51
1, 89702, Control_c, 0, 64, 28
1, 89702, Control_c, 0, 67, 106
1, 89717, Control_c, 0, 64, 27
1, 89717, Control_c, 0, 67, 105
1, 89732, Control_c, 0, 67, 104
1, 89747, Control_c, 0, 67, 102
1, 89761, Control_c, 0, 64, 29
1, 89761, Control_c, 0, 67, 101
1, 89776, Control_c, 0, 64, 34
1, 89776, Control_c, 0, 67, 101
1, 89791, Control_c, 0, 64, 41
1, 89791, Control_c, 0, 67, 100
1, 89806, Control_c, 0, 64, 50
1, 89806, Control_c, 0, 67, 97
1, 89820, Control_c, 0, 64, 55
1, 89820, Control_c, 0, 67, 95
1, 89835, Control_c, 0, 64, 58
1, 89835, Control_c, 0, 67, 95
1, 89850, Control_c, 0, 64, 59
1, 89850, Control_c, 0, 67, 94
1, 89865, Control_c, 0, 67, 94
1, 89880, Control_c, 0, 64, 60
1, 89880, Control_c, 0, 67, 93
1, 89901, Control_c, 0, 67, 92
1, 89916, Control_c, 0, 64, 58
1, 89931, Control_c, 0, 64, 53
1, 89938, Note_on_c, 0, 60, 57
1, 89945, Control_c, 0, 64, 48
1, 89960, Control_c, 0, 64, 45
1, 89975, Control_c, 0, 64, 43
1, 89978, Note_off_c, 0, 63, 60
1, 89990, Control_c, 0, 64, 44
1, 90005, Control_c, 0, 64, 48
1, 90020, Control_c, 0, 64, 53
1, 90035, Control_c, 0, 64, 59
1, 90050, Control_c, 0, 64, 60
1, 90065, Control_c, 0, 64, 60
1, 90065, Control_c, 0, 67, 92
1, 90080, Control_c, 0, 64, 58
1, 90080, Control_c, 0, 67, 91
1, 90094, Control_c, 0, 64, 54
1, 90094, Control_c, 0, 67, 89
1, 90109, Control_c, 0, 64, 50
1, 90109, Control_c, 0, 67, 87
1, 90124, Control_c, 0, 64, 45
1, 90124, Control_c, 0, 67, 86
1, 90136, Note_on_c, 0, 63, 62
1, 90138, Control_c, 0, 64, 39
1, 90153, Control_c, 0, 64, 29
1, 90168, Control_c, 0, 64, 20
1, 90183, Control_c, 0, 64, 15
1, 90198, Control_c, 0, 64, 13
1, 90227, Control_c, 0, 64, 18
1, 90242, Control_c, 0, 64, 29
1, 90257, Control_c, 0, 64, 42
1, 90272, Control_c, 0, 64, 54
1, 90286, Control_c, 0, 64, 61
1, 90286, Control_c, 0, 67, 87
1, 90301, Control_c, 0, 64, 63
1, 90301, Control_c, 0, 67, 87
1, 90317, Control_c, 0, 67, 88
1, 90332, Control_c, 0, 64, 64
1, 90332, Control_c, 0, 67, 88
1, 90347, Control_c, 0, 64, 65
1, 90347, Control_c, 0, 67, 89
1, 90348, Note_on_c, 0, 62, 68
1, 90354, Note_off_c, 0, 60, 18
1, 90362, Control_c, 0, 64, 67
1, 90362, Control_c, 0, 67, 91
1, 90368, Note_off_c, 0, 63, 56
1, 90377, Control_c, 0, 64, 68
1, 90391, Control_c, 0, 64, 69
1, 90406, Control_c, 0, 64, 70
1, 90406, Control_c, 0, 67, 91
1, 90421, Control_c, 0, 64, 70
1, 90421, Control_c, 0, 67, 92
1, 90435, Control_c, 0, 67, 94
1, 90450, Control_c, 0, 67, 96
1, 90465, Control_c, 0, 67, 97
1, 90472, Note_off_c, 0, 56, 60
1, 90480, Control_c, 0, 67, 97
1, 90509, Control_c, 0, 64, 70
1, 90524, Control_c, 0, 64, 68
1, 90524, Control_c, 0, 67, 97
1, 90539, Control_c, 0, 64, 65
1, 90554, Control_c, 0, 64, 61
1, 90568, Control_c, 0, 64, 55
1, 90572, Note_on_c, 0, 65, 61
1, 90576, Note_off_c, 0, 62, 63
1, 90579, Note_off_c, 0, 34, 42
1, 90582, Note_on_c, 0, 55, 49
1, 90583, Control_c, 0, 64, 46
1, 90583, Control_c, 0, 67, 97
1, 90594, Note_on_c, 0, 39, 49
1, 90595, Note_on_c, 0, 43, 45
1, 90598, Control_c, 0, 64, 34
1, 90610, Note_off_c, 0, 41, 60
1, 90613, Control_c, 0, 64, 22
1, 90628, Control_c, 0, 64, 9
1, 90650, Control_c, 0, 64, 0
1, 90665, Control_c, 0, 67, 96
1, 90680, Control_c, 0, 67, 96
1, 90695, Control_c, 0, 64, 27
1, 90710, Control_c, 0, 64, 42
1, 90724, Control_c, 0, 64, 54
1, 90739, Control_c, 0, 64, 61
1, 90739, Control_c, 0, 67, 96
1, 90754, Control_c, 0, 64, 63
1, 90768, Control_c, 0, 64, 63
1, 90768, Control_c, 0, 67, 97
1, 90783, Control_c, 0, 64, 64
1, 90789, Note_on_c, 0, 62, 63
1, 90798, Control_c, 0, 64, 65
1, 90813, Control_c, 0, 64, 66
1, 90813, Control_c, 0, 67, 97
1, 90819, Note_off_c, 0, 65, 59
1, 90828, Control_c, 0, 64, 67
1, 90872, Control_c, 0, 67, 98
1, 90887, Control_c, 0, 64, 66
1, 90887, Control_c, 0, 67, 98
1, 90902, Control_c, 0, 64, 63
1, 90917, Control_c, 0, 64, 58
1, 90932, Control_c, 0, 64, 49
1, 90947, Control_c, 0, 64, 38
1, 90961, Control_c, 0, 64, 27
1, 90976, Control_c, 0, 64, 18
1, 90991, Control_c, 0, 64, 17
1, 90992, Note_on_c, 0, 65, 64
1, 91006, Control_c, 0, 64, 20
1, 91021, Control_c, 0, 64, 30
1, 91036, Control_c, 0, 64, 44
1, 91038, Note_off_c, 0, 62, 60
1, 91050, Control_c, 0, 64, 56
1, 91065, Control_c, 0, 64, 62
1, 91080, Control_c, 0, 64, 64
1, 91095, Control_c, 0, 64, 65
1, 91111, Control_c, 0, 64, 65
1, 91126, Control_c, 0, 64, 66
1, 91140, Control_c, 0, 64, 67
1, 91155, Control_c, 0, 64, 68
1, 91170, Control_c, 0, 64, 69
1, 91178, Note_on_c, 0, 63, 68
1, 91183, Note_off_c, 0, 39, 52
1, 91184, Control_c, 0, 64, 70
1, 91199, Note_off_c, 0, 65, 60
1, 91199, Control_c, 0, 64, 70
1, 91199, Control_c, 0, 67, 99
1, 91214, Control_c, 0, 64, 71
1, 91218, Note_off_c, 0, 43, 41
1, 91227, Note_off_c, 0, 55, 32
1, 91229, Control_c, 0, 64, 71
1, 91303, Control_c, 0, 67, 99
1, 91332, Control_c, 0, 67, 100
1, 91362, Control_c, 0, 64, 71
1, 91377, Control_c, 0, 64, 70
1, 91382, Note_on_c, 0, 68, 66
1, 91399, Control_c, 0, 64, 68
1, 91399, Control_c, 0, 67, 100
1, 91403, Note_on_c, 0, 51, 57
1, 91406, Note_on_c, 0, 39, 48
1, 91407, Note_off_c, 0, 63, 64
1, 91409, Note_on_c, 0, 46, 50
1, 91414, Control_c, 0, 64, 67
1, 91418, Note_on_c, 0, 43, 48
1, 91429, Control_c, 0, 64, 65
1, 91429, Control_c, 0, 67, 101
1, 91444, Control_c, 0, 64, 63
1, 91459, Control_c, 0, 64, 61
1, 91473, Control_c, 0, 64, 59
1, 91488, Control_c, 0, 64, 55
1, 91503, Control_c, 0, 64, 48
1, 91518, Control_c, 0, 64, 42
1, 91533, Control_c, 0, 64, 35
1, 91547, Control_c, 0, 64, 31
1, 91547, Control_c, 0, 67, 101
1, 91562, Control_c, 0, 64, 31
1, 91562, Control_c, 0, 67, 101
1, 91577, Control_c, 0, 64, 38
1, 91583, Note_on_c, 0, 65, 64
1, 91591, Control_c, 0, 64, 50
1, 91603, Note_off_c, 0, 68, 64
1, 91606, Control_c, 0, 64, 61
1, 91621, Control_c, 0, 64, 64
1, 91636, Control_c, 0, 64, 65
1, 91651, Control_c, 0, 64, 66
1, 91680, Control_c, 0, 64, 66
1, 91680, Control_c, 0, 67, 100
1, 91695, Control_c, 0, 64, 67
1, 91710, Control_c, 0, 64, 67
1, 91710, Control_c, 0, 67, 101
1, 91740, Control_c, 0, 64, 67
1, 91755, Control_c, 0, 64, 66
1, 91770, Control_c, 0, 64, 65
1, 91784, Note_on_c, 0, 68, 69
1, 91785, Control_c, 0, 64, 65
1, 91799, Control_c, 0, 67, 100
1, 91801, Note_off_c, 0, 65, 57
1, 91844, Control_c, 0, 67, 100
1, 91859, Control_c, 0, 64, 65
1, 91873, Control_c, 0, 64, 66
1, 91888, Control_c, 0, 67, 99
1, 91903, Control_c, 0, 64, 65
1, 91903, Control_c, 0, 67, 99
1, 91919, Control_c, 0, 64, 63
1, 91919, Control_c, 0, 67, 98
1, 91934, Control_c, 0, 64, 60
1, 91949, Control_c, 0, 64, 56
1, 91949, Control_c, 0, 67, 98
1, 91963, Control_c, 0, 64, 53
1, 91963, Control_c, 0, 67, 97
1, 91978, Control_c, 0, 64, 53
1, 91978, Control_c, 0, 67, 97
1, 91981, Note_on_c, 0, 67, 69
1, 91993, Control_c, 0, 64, 55
1, 92000, Note_off_c, 0, 68, 62
1, 92007, Control_c, 0, 64, 59
1, 92022, Control_c, 0, 64, 63
1, 92037, Control_c, 0, 64, 65
1, 92052, Control_c, 0, 64, 66
1, 92067, Control_c, 0, 64, 67
1, 92081, Control_c, 0, 64, 67
1, 92096, Control_c, 0, 64, 68
1, 92127, Control_c, 0, 64, 67
1, 92127, Control_c, 0, 67, 97
1, 92149, Control_c, 0, 64, 65
1, 92163, Control_c, 0, 64, 61
1, 92178, Control_c, 0, 64, 55
1, 92190, Note_on_c, 0, 72, 68
1, 92193, Control_c, 0, 64, 49
1, 92202, Note_off_c, 0, 67, 59
1, 92208, Control_c, 0, 64, 44
1, 92223, Control_c, 0, 64, 42
1, 92238, Control_c, 0, 64, 44
1, 92253, Control_c, 0, 64, 49
1, 92268, Control_c, 0, 64, 56
1, 92282, Control_c, 0, 64, 62
1, 92282, Control_c, 0, 67, 98
1, 92297, Control_c, 0, 64, 65
1, 92312, Control_c, 0, 64, 67
1, 92312, Control_c, 0, 67, 98
1, 92327, Control_c, 0, 64, 68
1, 92371, Control_c, 0, 64, 67
1, 92371, Control_c, 0, 67, 99
1, 92382, Note_off_c, 0, 72, 62
1, 92384, Note_on_c, 0, 69, 63
1, 92386, Control_c, 0, 64, 65
1, 92401, Control_c, 0, 64, 63
1, 92415, Control_c, 0, 64, 61
1, 92430, Control_c, 0, 64, 62
1, 92445, Control_c, 0, 64, 64
1, 92460, Control_c, 0, 64, 66
1, 92475, Control_c, 0, 64, 68
1, 92504, Control_c, 0, 67, 98
1, 92519, Control_c, 0, 67, 98
1, 92533, Control_c, 0, 64, 67
1, 92548, Control_c, 0, 64, 64
1, 92548, Control_c, 0, 67, 97
1, 92563, Control_c, 0, 64, 61
1, 92563, Control_c, 0, 67, 97
1, 92578, Control_c, 0, 64, 56
1, 92585, Note_on_c, 0, 72, 62
1, 92593, Control_c, 0, 64, 52
1, 92593, Control_c, 0, 67, 96
1, 92607, Control_c, 0, 64, 47
1, 92607, Control_c, 0, 67, 96
1, 92622, Control_c, 0, 64, 44
1, 92622, Control_c, 0, 67, 95
1, 92629, Note_off_c, 0, 69, 52
1, 92637, Control_c, 0, 64, 40
1, 92652, Control_c, 0, 64, 38
1, 92667, Control_c, 0, 64, 39
1, 92667, Control_c, 0, 67, 95
1, 92682, Control_c, 0, 64, 41
1, 92682, Control_c, 0, 67, 94
1, 92697, Control_c, 0, 64, 47
1, 92697, Control_c, 0, 67, 93
1, 92712, Control_c, 0, 64, 56
1, 92712, Control_c, 0, 67, 93
1, 92727, Control_c, 0, 64, 61
1, 92727, Control_c, 0, 67, 92
1, 92742, Control_c, 0, 64, 63
1, 92742, Control_c, 0, 67, 92
1, 92757, Control_c, 0, 64, 64
1, 92757, Control_c, 0, 67, 91
1, 92771, Control_c, 0, 67, 90
1, 92774, Note_on_c, 0, 70, 60
1, 92780, Note_off_c, 0, 72, 61
1, 92786, Control_c, 0, 64, 65
1, 92801, Control_c, 0, 64, 66
1, 92816, Control_c, 0, 64, 67
1, 92831, Control_c, 0, 64, 67
1, 92876, Control_c, 0, 67, 92
1, 92898, Control_c, 0, 67, 93
1, 92912, Control_c, 0, 67, 93
1, 92927, Control_c, 0, 67, 94
1, 92942, Control_c, 0, 67, 95
1, 92957, Control_c, 0, 64, 67
1, 92957, Control_c, 0, 67, 95
1, 92971, Control_c, 0, 64, 65
1, 92971, Control_c, 0, 67, 96
1, 92986, Control_c, 0, 64, 62
1, 93001, Control_c, 0, 64, 59
1, 93005, Note_on_c, 0, 77, 59
1, 93016, Control_c, 0, 64, 53
1, 93020, Note_off_c, 0, 70, 63
1, 93031, Control_c, 0, 64, 48
1, 93046, Control_c, 0, 64, 42
1, 93046, Control_c, 0, 67, 96
1, 93060, Control_c, 0, 64, 33
1, 93075, Control_c, 0, 64, 21
1, 93075, Control_c, 0, 67, 97
1, 93090, Control_c, 0, 64, 10
1, 93105, Control_c, 0, 64, 9
1, 93105, Control_c, 0, 67, 97
1, 93120, Control_c, 0, 64, 15
1, 93135, Control_c, 0, 64, 30
1, 93135, Control_c, 0, 67, 98
1, 93150, Control_c, 0, 64, 47
1, 93150, Control_c, 0, 67, 98
1, 93164, Control_c, 0, 64, 59
1, 93164, Control_c, 0, 67, 99
1, 93179, Control_c, 0, 64, 65
1, 93179, Control_c, 0, 67, 100
1, 93194, Control_c, 0, 64, 67
1, 93194, Control_c, 0, 67, 100
1, 93208, Note_on_c, 0, 74, 60
1, 93209, Control_c, 0, 64, 69
1, 93218, Note_off_c, 0, 77, 63
1, 93224, Control_c, 0, 64, 70
1, 93238, Control_c, 0, 64, 72
1, 93253, Control_c, 0, 64, 75
1, 93268, Control_c, 0, 64, 77
1, 93277, Note_off_c, 0, 51, 54
1, 93278, Note_off_c, 0, 43, 38
1, 93283, Control_c, 0, 64, 79
1, 93290, Note_off_c, 0, 39, 35
1, 93298, Control_c, 0, 64, 80
1, 93311, Note_off_c, 0, 46, 35
1, 93312, Control_c, 0, 64, 81
1, 93327, Control_c, 0, 64, 82
1, 93327, Control_c, 0, 67, 101
1, 93342, Control_c, 0, 64, 83
1, 93356, Control_c, 0, 64, 84
1, 93371, Control_c, 0, 64, 85
1, 93371, Control_c, 0, 67, 101
1, 93401, Note_on_c, 0, 77, 64
1, 93401, Control_c, 0, 64, 85
1, 93416, Control_c, 0, 64, 86
1, 93430, Control_c, 0, 64, 86
1, 93430, Control_c, 0, 67, 102
1, 93436, Note_off_c, 0, 74, 58
1, 93445, Control_c, 0, 64, 87
1, 93460, Control_c, 0, 67, 102
1, 93475, Control_c, 0, 64, 88
1, 93490, Control_c, 0, 64, 89
1, 93506, Control_c, 0, 64, 91
1, 93521, Control_c, 0, 64, 93
1, 93535, Control_c, 0, 64, 94
1, 93550, Control_c, 0, 64, 95
1, 93565, Control_c, 0, 64, 95
1, 93604, Note_on_c, 0, 75, 65
1, 93609, Note_off_c, 0, 77, 65
1, 93647, Control_c, 0, 67, 103
1, 93662, Control_c, 0, 67, 104
1, 93676, Control_c, 0, 67, 105
1, 93706, Control_c, 0, 67, 105
1, 93750, Control_c, 0, 64, 95
1, 93765, Control_c, 0, 64, 93
1, 93765, Control_c, 0, 67, 106
1, 93780, Control_c, 0, 64, 90
1, 93794, Control_c, 0, 64, 87
1, 93809, Control_c, 0, 64, 83
1, 93824, Control_c, 0, 64, 79
1, 93824, Control_c, 0, 67, 106
1, 93839, Control_c, 0, 64, 75
1, 93839, Control_c, 0, 67, 107
1, 93847, Note_on_c, 0, 80, 63
1, 93854, Control_c, 0, 64, 72
1, 93854, Control_c, 0, 67, 108
1, 93858, Note_on_c, 0, 51, 42
1, 93859, Note_off_c, 0, 75, 63
1, 93860, Note_on_c, 0, 63, 39
1, 93868, Control_c, 0, 64, 68
1, 93873, Note_on_c, 0, 55, 33
1, 93879, Note_on_c, 0, 58, 36
1, 93883, Control_c, 0, 64, 65
1, 93898, Control_c, 0, 64, 62
1, 93913, Control_c, 0, 64, 59
1, 93928, Control_c, 0, 64, 54
1, 93943, Control_c, 0, 64, 48
1, 93958, Control_c, 0, 64, 40
1, 93958, Control_c, 0, 67, 109
1, 93973, Control_c, 0, 64, 31
1, 93987, Control_c, 0, 64, 19
1, 94002, Control_c, 0, 64, 0
1, 94017, Control_c, 0, 67, 109
1, 94032, Control_c, 0, 67, 110
1, 94061, Control_c, 0, 67, 111
1, 94065, Note_on_c, 0, 77, 54
1, 94076, Control_c, 0, 64, 27
1, 94076, Control_c, 0, 67, 113
1, 94080, Note_off_c, 0, 80, 62
1, 94091, Control_c, 0, 64, 46
1, 94091, Control_c, 0, 67, 113
1, 94106, Control_c, 0, 64, 59
1, 94121, Control_c, 0, 64, 66
1, 94135, Control_c, 0, 64, 68
1, 94150, Control_c, 0, 64, 69
1, 94150, Control_c, 0, 67, 114
1, 94165, Control_c, 0, 64, 71
1, 94165, Control_c, 0, 67, 114
1, 94179, Control_c, 0, 64, 74
1, 94179, Control_c, 0, 67, 115
1, 94194, Control_c, 0, 64, 79
1, 94209, Control_c, 0, 64, 83
1, 94224, Control_c, 0, 64, 86
1, 94239, Control_c, 0, 64, 88
1, 94244, Note_off_c, 0, 63, 42
1, 94253, Control_c, 0, 64, 90
1, 94268, Control_c, 0, 64, 93
1, 94271, Note_off_c, 0, 77, 64
1, 94274, Note_on_c, 0, 80, 66
1, 94283, Control_c, 0, 64, 95
1, 94285, Note_off_c, 0, 58, 39
1, 94286, Note_off_c, 0, 55, 40
1, 94289, Note_off_c, 0, 51, 29
1, 94298, Control_c, 0, 64, 98
1, 94298, Control_c, 0, 67, 114
1, 94314, Control_c, 0, 64, 100
1, 94329, Control_c, 0, 64, 101
1, 94329, Control_c, 0, 67, 114
1, 94344, Control_c, 0, 64, 101
1, 94357, Control_c, 0, 67, 113
1, 94372, Control_c, 0, 67, 113
1, 94395, Control_c, 0, 67, 112
1, 94409, Control_c, 0, 67, 111
1, 94424, Control_c, 0, 67, 109
1, 94439, Control_c, 0, 67, 108
1, 94469, Control_c, 0, 67, 108
1, 94482, Note_on_c, 0, 79, 64
1, 94484, Control_c, 0, 67, 107
1, 94498, Control_c, 0, 67, 106
1, 94503, Note_off_c, 0, 80, 57
1, 94513, Control_c, 0, 67, 105
1, 94528, Control_c, 0, 67, 104
1, 94543, Control_c, 0, 67, 103
1, 94572, Control_c, 0, 67, 103
1, 94587, Control_c, 0, 64, 100
1, 94587, Control_c, 0, 67, 101
1, 94602, Control_c, 0, 64, 98
1, 94602, Control_c, 0, 67, 100
1, 94616, Control_c, 0, 64, 95
1, 94616, Control_c, 0, 67, 99
1, 94631, Control_c, 0, 64, 91
1, 94631, Control_c, 0, 67, 98
1, 94646, Control_c, 0, 64, 88
1, 94646, Control_c, 0, 67, 96
1, 94661, Control_c, 0, 64, 85
1, 94661, Control_c, 0, 67, 96
1, 94676, Control_c, 0, 64, 81
1, 94691, Control_c, 0, 64, 76
1, 94692, Note_off_c, 0, 79, 62
1, 94699, Note_on_c, 0, 84, 63
1, 94702, Note_on_c, 0, 51, 36
1, 94706, Control_c, 0, 64, 70
1, 94706, Control_c, 0, 67, 95
1, 94709, Note_on_c, 0, 63, 28
1, 94721, Control_c, 0, 64, 63
1, 94723, Note_on_c, 0, 58, 38
1, 94729, Note_on_c, 0, 55, 26
1, 94735, Control_c, 0, 64, 58
1, 94735, Control_c, 0, 67, 94
1, 94750, Control_c, 0, 64, 53
1, 94750, Control_c, 0, 67, 93
1, 94765, Control_c, 0, 64, 48
1, 94780, Control_c, 0, 64, 43
1, 94795, Control_c, 0, 64, 40
1, 94824, Control_c, 0, 64, 45
1, 94824, Control_c, 0, 67, 94
1, 94839, Control_c, 0, 64, 53
1, 94839, Control_c, 0, 67, 95
1, 94854, Control_c, 0, 64, 61
1, 94854, Control_c, 0, 67, 96
1, 94869, Control_c, 0, 64, 66
1, 94869, Control_c, 0, 67, 97
1, 94883, Control_c, 0, 64, 70
1, 94883, Control_c, 0, 67, 98
1, 94898, Control_c, 0, 64, 74
1, 94898, Control_c, 0, 67, 99
1, 94913, Control_c, 0, 64, 77
1, 94913, Control_c, 0, 67, 100
1, 94917, Note_on_c, 0, 81, 61
1, 94925, Note_off_c, 0, 84, 65
1, 94927, Control_c, 0, 64, 78
1, 94927, Control_c, 0, 67, 101
1, 94942, Control_c, 0, 64, 79
1, 94942, Control_c, 0, 67, 101
1, 94957, Control_c, 0, 64, 81
1, 94957, Control_c, 0, 67, 102
1, 94972, Control_c, 0, 64, 83
1, 94972, Control_c, 0, 67, 103
1, 94987, Control_c, 0, 64, 85
1, 95001, Control_c, 0, 64, 87
1, 95001, Control_c, 0, 67, 103
1, 95016, Control_c, 0, 64, 89
1, 95031, Control_c, 0, 64, 90
1, 95031, Control_c, 0, 67, 104
1, 95046, Control_c, 0, 64, 91
1, 95061, Control_c, 0, 64, 92
1, 95061, Control_c, 0, 67, 104
1, 95076, Control_c, 0, 64, 92
1, 95120, Note_off_c, 0, 63, 43
1, 95121, Control_c, 0, 64, 93
1, 95144, Control_c, 0, 64, 93
1, 95159, Control_c, 0, 64, 94
1, 95160, Note_on_c, 0, 84, 57
1, 95171, Note_off_c, 0, 55, 40
1, 95172, Note_off_c, 0, 51, 39
1, 95172, Note_off_c, 0, 58, 40
1, 95174, Control_c, 0, 64, 95
1, 95174, Control_c, 0, 67, 105
1, 95186, Note_off_c, 0, 81, 50
1, 95188, Control_c, 0, 64, 96
1, 95203, Control_c, 0, 64, 96
1, 95247, Control_c, 0, 64, 97
1, 95277, Control_c, 0, 64, 97
1, 95306, Control_c, 0, 64, 98
1, 95423, Note_on_c, 0, 82, 60
1, 95445, Note_off_c, 0, 84, 61
1, 95499, Control_c, 0, 67, 104
1, 95514, Control_c, 0, 67, 104
1, 95529, Control_c, 0, 64, 97
1, 95544, Control_c, 0, 64, 96
1, 95544, Control_c, 0, 67, 103
1, 95558, Control_c, 0, 64, 95
1, 95573, Control_c, 0, 64, 94
1, 95588, Control_c, 0, 64, 94
1, 95603, Control_c, 0, 64, 93
1, 95618, Control_c, 0, 64, 92
1, 95632, Control_c, 0, 64, 91
1, 95647, Control_c, 0, 64, 90
1, 95662, Control_c, 0, 64, 89
1, 95662, Control_c, 0, 67, 104
1, 95677, Control_c, 0, 64, 89
1, 95692, Control_c, 0, 64, 88
1, 95706, Control_c, 0, 64, 88
1, 95706, Control_c, 0, 67, 103
1, 95721, Control_c, 0, 64, 87
1, 95736, Control_c, 0, 64, 86
1, 95750, Control_c, 0, 64, 85
1, 95765, Control_c, 0, 64, 83
1, 95780, Control_c, 0, 64, 82
1, 95795, Control_c, 0, 64, 80
1, 95795, Control_c, 0, 67, 103
1, 95810, Control_c, 0, 64, 77
1, 95824, Control_c, 0, 64, 75
1, 95839, Note_on_c, 0, 87, 58
1, 95839, Control_c, 0, 64, 71
1, 95846, Note_on_c, 0, 63, 35
1, 95855, Control_c, 0, 64, 68
1, 95855, Control_c, 0, 67, 102
1, 95870, Note_on_c, 0, 51, 22
1, 95870, Control_c, 0, 64, 65
1, 95871, Note_on_c, 0, 55, 29
1, 95872, Note_on_c, 0, 58, 32
1, 95892, Control_c, 0, 64, 62
1, 95892, Control_c, 0, 67, 102
1, 95896, Note_off_c, 0, 82, 60
1, 95908, Control_c, 0, 64, 57
1, 95908, Control_c, 0, 67, 101
1, 95923, Control_c, 0, 64, 52
1, 95923, Control_c, 0, 67, 100
1, 95937, Control_c, 0, 64, 42
1, 95937, Control_c, 0, 67, 99
1, 95952, Control_c, 0, 64, 32
1, 95952, Control_c, 0, 67, 98
1, 95967, Control_c, 0, 64, 19
1, 95967, Control_c, 0, 67, 97
1, 95982, Control_c, 0, 64, 0
1, 95982, Control_c, 0, 67, 96
1, 95997, Control_c, 0, 67, 95
1, 96012, Control_c, 0, 67, 94
1, 96026, Control_c, 0, 67, 92
1, 96041, Control_c, 0, 67, 90
1, 96056, Control_c, 0, 64, 17
1, 96056, Control_c, 0, 67, 86
1, 96071, Control_c, 0, 64, 33
1, 96071, Control_c, 0, 67, 79
1, 96086, Control_c, 0, 64, 46
1, 96086, Control_c, 0, 67, 70
1, 96101, Control_c, 0, 64, 54
1, 96101, Control_c, 0, 67, 59
1, 96116, Control_c, 0, 64, 59
1, 96116, Control_c, 0, 67, 44
1, 96130, Control_c, 0, 64, 63
1, 96130, Control_c, 0, 67, 32
1, 96145, Control_c, 0, 64, 66
1, 96145, Control_c, 0, 67, 20
1, 96160, Control_c, 0, 64, 70
1, 96160, Control_c, 0, 67, 10
1, 96175, Control_c, 0, 64, 75
1, 96175, Control_c, 0, 67, 0
1, 96189, Control_c, 0, 64, 83
1, 96204, Control_c, 0, 64, 93
1, 96219, Control_c, 0, 64, 101
1, 96227, Note_off_c, 0, 63, 42
1, 96234, Control_c, 0, 64, 114
1, 96249, Control_c, 0, 64, 127
1, 96274, Note_off_c, 0, 58, 40
1, 96285, Note_off_c, 0, 55, 40
1, 96294, Note_off_c, 0, 51, 47
1, 96456, Control_c, 0, 67, 10
1, 96471, Control_c, 0, 67, 13
1, 96486, Control_c, 0, 67, 16
1, 96500, Control_c, 0, 67, 20
1, 96515, Control_c, 0, 67, 25
1, 96530, Control_c, 0, 67, 29
1, 96545, Control_c, 0, 67, 34
1, 96560, Control_c, 0, 67, 39
1, 96575, Control_c, 0, 67, 45
1, 96589, Control_c, 0, 67, 51
1, 96604, Control_c, 0, 67, 56
1, 96619, Control_c, 0, 67, 60
1, 96641, Control_c, 0, 67, 63
1, 96656, Control_c, 0, 67, 66
1, 96670, Control_c, 0, 67, 69
1, 96685, Control_c, 0, 67, 71
1, 96700, Control_c, 0, 67, 74
1, 96716, Control_c, 0, 67, 75
1, 96731, Control_c, 0, 67, 77
1, 96746, Control_c, 0, 67, 77
1, 96760, Control_c, 0, 67, 78
1, 96775, Control_c, 0, 67, 80
1, 96790, Control_c, 0, 67, 82
1, 96804, Control_c, 0, 67, 84
1, 96819, Control_c, 0, 67, 85
1, 96834, Control_c, 0, 67, 86
1, 96849, Control_c, 0, 67, 88
1, 96864, Control_c, 0, 67, 89
1, 96879, Note_on_c, 0, 39, 36
1, 96879, Control_c, 0, 67, 90
1, 96909, Control_c, 0, 67, 91
1, 96939, Control_c, 0, 67, 91
1, 96953, Control_c, 0, 67, 92
1, 96968, Control_c, 0, 67, 94
1, 96983, Control_c, 0, 67, 96
1, 96998, Control_c, 0, 67, 97
1, 97012, Control_c, 0, 67, 98
1, 97042, Control_c, 0, 64, 115
1, 97057, Control_c, 0, 64, 108
1, 97057, Control_c, 0, 67, 98
1, 97072, Control_c, 0, 64, 103
1, 97072, Control_c, 0, 67, 99
1, 97086, Control_c, 0, 64, 99
1, 97086, Control_c, 0, 67, 100
1, 97101, Control_c, 0, 64, 97
1, 97101, Control_c, 0, 67, 102
1, 97116, Control_c, 0, 64, 96
1, 97116, Control_c, 0, 67, 104
1, 97131, Control_c, 0, 64, 94
1, 97131, Control_c, 0, 67, 105
1, 97146, Control_c, 0, 64, 91
1, 97160, Control_c, 0, 64, 86
1, 97160, Control_c, 0, 67, 106
1, 97175, Control_c, 0, 64, 80
1, 97175, Control_c, 0, 67, 106
1, 97190, Control_c, 0, 64, 74
1, 97190, Control_c, 0, 67, 108
1, 97204, Control_c, 0, 64, 70
1, 97204, Control_c, 0, 67, 110
1, 97219, Control_c, 0, 64, 66
1, 97219, Control_c, 0, 67, 112
1, 97234, Control_c, 0, 64, 61
1, 97234, Control_c, 0, 67, 113
1, 97249, Control_c, 0, 64, 57
1, 97249, Control_c, 0, 67, 114
1, 97264, Control_c, 0, 64, 52
1, 97264, Control_c, 0, 67, 115
1, 97278, Control_c, 0, 64, 48
1, 97278, Control_c, 0, 67, 116
1, 97293, Control_c, 0, 64, 44
1, 97293, Control_c, 0, 67, 116
1, 97308, Control_c, 0, 64, 41
1, 97308, Control_c, 0, 67, 117
1, 97323, Control_c, 0, 64, 38
1, 97323, Control_c, 0, 67, 117
1, 97338, Control_c, 0, 64, 38
1, 97338, Control_c, 0, 67, 118
1, 97353, Control_c, 0, 64, 41
1, 97353, Control_c, 0, 67, 118
1, 97368, Control_c, 0, 64, 49
1, 97390, Control_c, 0, 64, 58
1, 97390, Control_c, 0, 67, 119
1, 97405, Control_c, 0, 64, 65
1, 97419, Control_c, 0, 64, 69
1, 97434, Control_c, 0, 64, 73
1, 97449, Control_c, 0, 64, 74
1, 97464, Control_c, 0, 64, 75
1, 97479, Control_c, 0, 64, 77
1, 97493, Control_c, 0, 64, 79
1, 97509, Control_c, 0, 64, 81
1, 97524, Control_c, 0, 64, 83
1, 97539, Control_c, 0, 64, 84
1, 97554, Control_c, 0, 64, 85
1, 97702, Control_c, 0, 64, 85
1, 97717, Control_c, 0, 64, 86
1, 97732, Control_c, 0, 64, 87
1, 97732, Control_c, 0, 67, 118
1, 97746, Control_c, 0, 64, 88
1, 97761, Control_c, 0, 64, 90
1, 97776, Control_c, 0, 64, 91
1, 97777, Note_on_c, 0, 75, 41
1, 97791, Control_c, 0, 64, 94
1, 97791, Control_c, 0, 67, 118
1, 97797, Note_on_c, 0, 51, 26
1, 97806, Control_c, 0, 64, 98
1, 97821, Control_c, 0, 64, 104
1, 97835, Control_c, 0, 64, 118
1, 97835, Control_c, 0, 67, 117
1, 97850, Control_c, 0, 64, 127
1, 97850, Control_c, 0, 67, 117
1, 97880, Control_c, 0, 67, 116
1, 97939, Control_c, 0, 67, 116
1, 97972, Note_off_c, 0, 51, 40
1, 98013, Control_c, 0, 67, 115
1, 98021, Note_off_c, 0, 87, 36
1, 98138, Control_c, 0, 67, 116
1, 98153, Note_off_c, 0, 75, 32
1, 98185, Note_off_c, 0, 39, 25
1, 98301, Control_c, 0, 67, 116
1, 98702, Control_c, 0, 67, 117
1, 98894, Note_on_c, 0, 85, 59
1, 98925, Note_on_c, 0, 37, 35
1, 99005, Control_c, 0, 67, 117
1, 99020, Control_c, 0, 64, 109
1, 99020, Control_c, 0, 67, 118
1, 99035, Control_c, 0, 64, 92
1, 99049, Control_c, 0, 64, 80
1, 99064, Control_c, 0, 64, 73
1, 99064, Control_c, 0, 67, 118
1, 99079, Control_c, 0, 64, 69
1, 99094, Control_c, 0, 64, 65
1, 99110, Control_c, 0, 64, 62
1, 99110, Control_c, 0, 67, 119
1, 99125, Control_c, 0, 64, 57
1, 99140, Control_c, 0, 64, 50
1, 99154, Control_c, 0, 64, 43
1, 99169, Control_c, 0, 64, 35
1, 99169, Control_c, 0, 67, 119
1, 99184, Control_c, 0, 64, 26
1, 99199, Control_c, 0, 64, 13
1, 99213, Control_c, 0, 64, 0
1, 99347, Control_c, 0, 64, 22
1, 99347, Control_c, 0, 67, 119
1, 99362, Control_c, 0, 64, 32
1, 99377, Control_c, 0, 64, 41
1, 99392, Control_c, 0, 64, 47
1, 99406, Control_c, 0, 64, 51
1, 99406, Control_c, 0, 67, 118
1, 99421, Control_c, 0, 64, 54
1, 99436, Control_c, 0, 64, 57
1, 99451, Control_c, 0, 64, 60
1, 99466, Control_c, 0, 64, 62
1, 99480, Control_c, 0, 64, 64
1, 99495, Control_c, 0, 64, 65
1, 99510, Control_c, 0, 64, 67
1, 99510, Control_c, 0, 67, 118
1, 99525, Control_c, 0, 64, 69
1, 99540, Control_c, 0, 64, 72
1, 99554, Control_c, 0, 64, 75
1, 99554, Control_c, 0, 67, 117
1, 99569, Control_c, 0, 64, 78
1, 99584, Control_c, 0, 64, 81
1, 99599, Control_c, 0, 64, 85
1, 99599, Control_c, 0, 67, 117
1, 99614, Control_c, 0, 64, 91
1, 99636, Control_c, 0, 64, 100
1, 99651, Control_c, 0, 64, 127
1, 99740, Control_c, 0, 67, 116
1, 99902, Note_on_c, 0, 49, 39
1, 100022, Control_c, 0, 67, 116
1, 100037, Control_c, 0, 67, 115
1, 100052, Control_c, 0, 67, 115
1, 100067, Control_c, 0, 67, 114
1, 100082, Control_c, 0, 67, 113
1, 100097, Control_c, 0, 67, 111
1, 100111, Control_c, 0, 67, 110
1, 100126, Control_c, 0, 67, 109
1, 100141, Control_c, 0, 67, 108
1, 100155, Control_c, 0, 67, 107
1, 100170, Control_c, 0, 67, 106
1, 100185, Control_c, 0, 67, 105
1, 100200, Control_c, 0, 67, 104
1, 100215, Control_c, 0, 67, 102
1, 100230, Control_c, 0, 67, 100
1, 100244, Control_c, 0, 67, 98
1, 100259, Control_c, 0, 67, 97
1, 100274, Control_c, 0, 67, 95
1, 100289, Control_c, 0, 67, 93
1, 100304, Control_c, 0, 67, 91
1, 100319, Control_c, 0, 67, 88
1, 100334, Control_c, 0, 67, 84
1, 100348, Control_c, 0, 67, 79
1, 100363, Control_c, 0, 67, 75
1, 100380, Note_off_c, 0, 49, 37
1, 100385, Control_c, 0, 67, 70
1, 100400, Control_c, 0, 67, 64
1, 100415, Control_c, 0, 67, 58
1, 100429, Control_c, 0, 67, 50
1, 100444, Control_c, 0, 67, 44
1, 100459, Control_c, 0, 67, 38
1, 100474, Control_c, 0, 67, 32
1, 100489, Control_c, 0, 67, 27
1, 100504, Control_c, 0, 67, 21
1, 100519, Control_c, 0, 67, 15
1, 100534, Control_c, 0, 67, 9
1, 100548, Control_c, 0, 67, 0
1, 100681, Note_off_c, 0, 37, 33
1, 100735, Note_on_c, 0, 73, 35
1, 100905, Control_c, 0, 67, 8
1, 100919, Control_c, 0, 67, 9
1, 100934, Control_c, 0, 67, 10
1, 100949, Control_c, 0, 67, 11
1, 100963, Note_off_c, 0, 73, 43
1, 100978, Control_c, 0, 67, 12
1, 100993, Control_c, 0, 67, 13
1, 101008, Control_c, 0, 67, 17
1, 101023, Control_c, 0, 67, 20
1, 101038, Control_c, 0, 67, 25
1, 101052, Control_c, 0, 67, 30
1, 101067, Control_c, 0, 67, 37
1, 101082, Control_c, 0, 67, 44
1, 101096, Control_c, 0, 67, 55
1, 101111, Control_c, 0, 67, 64
1, 101133, Control_c, 0, 67, 72
1, 101148, Control_c, 0, 67, 80
1, 101163, Control_c, 0, 67, 87
1, 101166, Note_off_c, 0, 85, 0
1, 101177, Control_c, 0, 67, 93
1, 101192, Control_c, 0, 67, 99
1, 101203, Poly_aftertouch_c, 0, 85, 127
1, 101207, Control_c, 0, 67, 102
1, 101222, Control_c, 0, 67, 103
1, 101237, Control_c, 0, 67, 104
1, 101251, Control_c, 0, 67, 106
1, 101266, Control_c, 0, 67, 108
1, 101280, Poly_aftertouch_c, 0, 85, 0
1, 101281, Control_c, 0, 67, 109
1, 101296, Control_c, 0, 67, 110
1, 101311, Control_c, 0, 67, 112
1, 101325, Control_c, 0, 67, 114
1, 101340, Control_c, 0, 67, 115
1, 101355, Control_c, 0, 67, 117
1, 101370, Control_c, 0, 67, 118
1, 101384, Control_c, 0, 67, 120
1, 101399, Control_c, 0, 67, 123
1, 101414, Control_c, 0, 67, 125
1, 101429, Control_c, 0, 67, 127
1, 101845, Control_c, 0, 64, 93
1, 101860, Control_c, 0, 64, 72
1, 101873, Note_on_c, 0, 84, 69
1, 101881, Control_c, 0, 64, 59
1, 101886, Note_on_c, 0, 72, 41
1, 101896, Control_c, 0, 64, 44
1, 101911, Control_c, 0, 64, 36
1, 101918, Note_on_c, 0, 48, 29
1, 101926, Control_c, 0, 64, 37
1, 101929, Note_on_c, 0, 36, 35
1, 101941, Control_c, 0, 64, 45
1, 101955, Control_c, 0, 64, 56
1, 101970, Control_c, 0, 64, 67
1, 101972, Note_off_c, 0, 36, 63
1, 101975, Note_off_c, 0, 48, 56
1, 101985, Control_c, 0, 64, 76
1, 102000, Control_c, 0, 64, 89
1, 102015, Control_c, 0, 64, 106
1, 102030, Control_c, 0, 64, 127
1, 102219, Note_on_c, 0, 56, 44
1, 102238, Note_on_c, 0, 53, 38
1, 102273, Note_off_c, 0, 56, 56
1, 102280, Note_off_c, 0, 53, 61
1, 102435, Note_on_c, 0, 53, 28
1, 102450, Note_on_c, 0, 56, 29
1, 102490, Note_off_c, 0, 53, 56
1, 102492, Note_off_c, 0, 56, 51
1, 102623, Note_on_c, 0, 56, 41
1, 102636, Note_on_c, 0, 53, 42
1, 102787, Note_off_c, 0, 56, 30
1, 102809, Control_c, 0, 64, 109
1, 102819, Note_on_c, 0, 48, 43
1, 102823, Control_c, 0, 64, 80
1, 102832, Note_off_c, 0, 53, 42
1, 102838, Control_c, 0, 64, 66
1, 102853, Control_c, 0, 64, 59
1, 102868, Control_c, 0, 64, 60
1, 102883, Control_c, 0, 64, 64
1, 102897, Control_c, 0, 64, 69
1, 102912, Control_c, 0, 64, 78
1, 102927, Control_c, 0, 64, 93
1, 102942, Control_c, 0, 64, 119
1, 102957, Control_c, 0, 64, 127
1, 102988, Note_on_c, 0, 56, 48
1, 102992, Note_on_c, 0, 53, 21
1, 103067, Note_off_c, 0, 56, 55
1, 103091, Note_off_c, 0, 53, 36
1, 103163, Note_on_c, 0, 80, 71
1, 103232, Note_on_c, 0, 56, 4
1, 103262, Note_off_c, 0, 56, 0
1, 103285, Poly_aftertouch_c, 0, 56, 0
1, 103334, Poly_aftertouch_c, 0, 53, 0
1, 103340, Note_off_c, 0, 48, 38
1, 103354, Note_on_c, 0, 53, 12
1, 103359, Note_off_c, 0, 80, 62
1, 103381, Note_on_c, 0, 56, 38
1, 103385, Note_off_c, 0, 84, 28
1, 103437, Note_off_c, 0, 56, 51
1, 103549, Note_on_c, 0, 48, 40
1, 103559, Note_on_c, 0, 80, 76
1, 103572, Control_c, 0, 64, 117
1, 103577, Note_off_c, 0, 53, 38
1, 103587, Control_c, 0, 64, 86
1, 103602, Control_c, 0, 64, 71
1, 103617, Control_c, 0, 64, 62
1, 103632, Control_c, 0, 64, 59
1, 103646, Control_c, 0, 64, 62
1, 103661, Control_c, 0, 64, 67
1, 103672, Note_off_c, 0, 72, 53
1, 103676, Control_c, 0, 64, 78
1, 103691, Control_c, 0, 64, 98
1, 103706, Control_c, 0, 64, 127
1, 103723, Note_on_c, 0, 53, 39
1, 103735, Note_on_c, 0, 56, 45
1, 103780, Note_off_c, 0, 56, 55
1, 103785, Note_off_c, 0, 53, 53
1, 103804, Note_off_c, 0, 80, 61
1, 103905, Note_on_c, 0, 56, 45
1, 103917, Note_on_c, 0, 53, 43
1, 103950, Note_off_c, 0, 53, 54
1, 103950, Note_off_c, 0, 56, 55
1, 104072, Note_off_c, 0, 48, 34
1, 104083, Note_on_c, 0, 53, 40
1, 104084, Note_on_c, 0, 80, 72
1, 104102, Note_on_c, 0, 56, 38
1, 104128, Note_off_c, 0, 53, 59
1, 104152, Note_off_c, 0, 56, 49
1, 104290, Note_off_c, 0, 80, 55
1, 104291, Note_on_c, 0, 85, 74
1, 104292, Control_c, 0, 64, 97
1, 104307, Control_c, 0, 64, 84
1, 104310, Note_on_c, 0, 82, 59
1, 104312, Note_on_c, 0, 48, 42
1, 104313, Note_on_c, 0, 76, 45
1, 104322, Control_c, 0, 64, 75
1, 104322, Note_on_c, 0, 79, 41
1, 104337, Control_c, 0, 64, 68
1, 104351, Control_c, 0, 64, 63
1, 104366, Control_c, 0, 64, 56
1, 104381, Control_c, 0, 64, 46
1, 104395, Control_c, 0, 64, 36
1, 104410, Control_c, 0, 64, 22
1, 104425, Control_c, 0, 64, 0
1, 104468, Note_on_c, 0, 55, 38
1, 104471, Note_on_c, 0, 58, 34
1, 104484, Control_c, 0, 64, 34
1, 104499, Control_c, 0, 64, 55
1, 104514, Control_c, 0, 64, 66
1, 104517, Note_off_c, 0, 58, 49
1, 104522, Note_off_c, 0, 55, 57
1, 104529, Control_c, 0, 64, 72
1, 104543, Control_c, 0, 64, 76
1, 104558, Control_c, 0, 64, 81
1, 104573, Control_c, 0, 64, 89
1, 104588, Control_c, 0, 64, 104
1, 104603, Control_c, 0, 64, 127
1, 104611, Note_off_c, 0, 76, 46
1, 104636, Note_on_c, 0, 58, 44
1, 104641, Note_on_c, 0, 55, 51
1, 104681, Note_off_c, 0, 58, 50
1, 104681, Note_off_c, 0, 55, 60
1, 104714, Note_off_c, 0, 82, 51
1, 104718, Note_off_c, 0, 79, 39
1, 104758, Note_off_c, 0, 48, 35
1, 104811, Note_on_c, 0, 58, 47
1, 104820, Note_on_c, 0, 55, 36
1, 104867, Note_off_c, 0, 58, 57
1, 104877, Note_off_c, 0, 55, 48
1, 105011, Control_c, 0, 64, 98
1, 105015, Note_on_c, 0, 48, 42
1, 105025, Control_c, 0, 64, 83
1, 105027, Note_on_c, 0, 82, 69
1, 105040, Control_c, 0, 64, 72
1, 105047, Note_on_c, 0, 79, 51
1, 105051, Note_on_c, 0, 76, 51
1, 105055, Control_c, 0, 64, 64
1, 105070, Control_c, 0, 64, 56
1, 105085, Control_c, 0, 64, 44
1, 105099, Control_c, 0, 64, 33
1, 105114, Control_c, 0, 64, 23
1, 105129, Control_c, 0, 64, 17
1, 105130, Note_off_c, 0, 85, 62
1, 105158, Control_c, 0, 64, 27
1, 105173, Control_c, 0, 64, 49
1, 105188, Control_c, 0, 64, 63
1, 105203, Control_c, 0, 64, 71
1, 105212, Note_on_c, 0, 55, 34
1, 105214, Note_on_c, 0, 58, 34
1, 105217, Control_c, 0, 64, 77
1, 105232, Control_c, 0, 64, 81
1, 105247, Control_c, 0, 64, 84
1, 105253, Note_off_c, 0, 55, 48
1, 105253, Note_off_c, 0, 58, 49
1, 105262, Control_c, 0, 64, 88
1, 105277, Control_c, 0, 64, 97
1, 105291, Control_c, 0, 64, 109
1, 105306, Control_c, 0, 64, 127
1, 105371, Note_on_c, 0, 58, 50
1, 105372, Note_on_c, 0, 55, 45
1, 105416, Note_off_c, 0, 55, 59
1, 105419, Note_off_c, 0, 58, 57
1, 105484, Note_off_c, 0, 48, 39
1, 105545, Note_on_c, 0, 55, 40
1, 105560, Note_on_c, 0, 58, 36
1, 105628, Note_off_c, 0, 76, 50
1, 105668, Note_off_c, 0, 58, 33
1, 105732, Note_off_c, 0, 55, 43
1, 105735, Note_on_c, 0, 48, 44
1, 105818, Note_off_c, 0, 79, 35
1, 105896, Note_on_c, 0, 55, 39
1, 105911, Note_on_c, 0, 58, 40
1, 105954, Note_off_c, 0, 55, 57
1, 105954, Note_off_c, 0, 58, 49
1, 105990, Note_off_c, 0, 82, 32
1, 106081, Note_on_c, 0, 55, 48
1, 106083, Note_on_c, 0, 58, 44
1, 106126, Note_off_c, 0, 55, 60
1, 106127, Note_off_c, 0, 58, 57
1, 106242, Note_on_c, 0, 58, 55
1, 106246, Note_on_c, 0, 55, 52
1, 106280, Note_off_c, 0, 58, 62
1, 106293, Note_off_c, 0, 48, 39
1, 106432, Note_off_c, 0, 55, 37
1, 106440, Note_on_c, 0, 48, 46
1, 106479, Control_c, 0, 64, 113
1, 106486, Note_on_c, 0, 82, 82
1, 106494, Control_c, 0, 64, 91
1, 106503, Note_on_c, 0, 79, 60
1, 106509, Control_c, 0, 64, 77
1, 106513, Note_on_c, 0, 76, 52
1, 106524, Control_c, 0, 64, 65
1, 106539, Control_c, 0, 64, 51
1, 106553, Control_c, 0, 64, 32
1, 106568, Control_c, 0, 64, 0
1, 106642, Control_c, 0, 64, 38
1, 106656, Note_on_c, 0, 52, 53
1, 106657, Control_c, 0, 64, 59
1, 106668, Note_on_c, 0, 55, 45
1, 106671, Control_c, 0, 64, 70
1, 106686, Control_c, 0, 64, 81
1, 106701, Control_c, 0, 64, 92
1, 106713, Note_off_c, 0, 52, 57
1, 106713, Note_off_c, 0, 55, 56
1, 106716, Control_c, 0, 64, 104
1, 106731, Control_c, 0, 64, 127
1, 106823, Note_on_c, 0, 55, 53
1, 106829, Note_on_c, 0, 52, 56
1, 106868, Note_off_c, 0, 55, 58
1, 106871, Note_off_c, 0, 52, 56
1, 106924, Control_c, 0, 67, 127
1, 106968, Control_c, 0, 67, 126
1, 106981, Note_on_c, 0, 55, 56
1, 106987, Note_on_c, 0, 52, 50
1, 107008, Note_off_c, 0, 48, 33
1, 107042, Control_c, 0, 67, 127
1, 107124, Control_c, 0, 64, 105
1, 107124, Control_c, 0, 67, 127
1, 107130, Note_off_c, 0, 55, 30
1, 107139, Control_c, 0, 64, 79
1, 107151, Note_off_c, 0, 52, 56
1, 107154, Control_c, 0, 64, 66
1, 107163, Note_on_c, 0, 48, 49
1, 107169, Control_c, 0, 64, 62
1, 107184, Control_c, 0, 64, 65
1, 107199, Control_c, 0, 64, 73
1, 107213, Control_c, 0, 64, 92
1, 107228, Control_c, 0, 64, 127
1, 107240, Note_off_c, 0, 79, 54
1, 107243, Control_c, 0, 67, 127
1, 107287, Control_c, 0, 67, 126
1, 107302, Control_c, 0, 67, 125
1, 107317, Control_c, 0, 67, 125
1, 107332, Control_c, 0, 67, 123
1, 107340, Note_on_c, 0, 52, 53
1, 107345, Note_on_c, 0, 55, 53
1, 107347, Control_c, 0, 67, 121
1, 107361, Control_c, 0, 67, 118
1, 107376, Control_c, 0, 67, 115
1, 107382, Note_off_c, 0, 52, 58
1, 107388, Note_off_c, 0, 55, 56
1, 107391, Control_c, 0, 67, 112
1, 107406, Control_c, 0, 67, 108
1, 107420, Control_c, 0, 67, 105
1, 107435, Control_c, 0, 67, 101
1, 107450, Control_c, 0, 67, 97
1, 107465, Control_c, 0, 67, 93
1, 107480, Control_c, 0, 67, 90
1, 107487, Note_on_c, 0, 79, 79
1, 107494, Control_c, 0, 67, 88
1, 107509, Control_c, 0, 67, 87
1, 107529, Note_on_c, 0, 52, 47
1, 107531, Note_on_c, 0, 55, 38
1, 107563, Note_off_c, 0, 52, 58
1, 107566, Note_off_c, 0, 55, 52
1, 107569, Control_c, 0, 67, 88
1, 107577, Note_off_c, 0, 82, 60
1, 107583, Control_c, 0, 67, 89
1, 107598, Control_c, 0, 67, 92
1, 107613, Control_c, 0, 67, 94
1, 107628, Control_c, 0, 67, 95
1, 107643, Control_c, 0, 67, 97
1, 107643, Note_off_c, 0, 48, 56
1, 107658, Control_c, 0, 67, 98
1, 107660, Note_on_c, 0, 52, 56
1, 107671, Note_on_c, 0, 55, 54
1, 107673, Control_c, 0, 67, 99
1, 107687, Control_c, 0, 67, 100
1, 107702, Control_c, 0, 67, 100
1, 107711, Note_off_c, 0, 79, 62
1, 107717, Control_c, 0, 67, 101
1, 107732, Control_c, 0, 67, 101
1, 107761, Control_c, 0, 67, 102
1, 107776, Control_c, 0, 67, 101
1, 107820, Control_c, 0, 67, 101
1, 107825, Note_off_c, 0, 55, 31
1, 107828, Note_off_c, 0, 52, 54
1, 107835, Control_c, 0, 64, 90
1, 107835, Control_c, 0, 67, 100
1, 107836, Note_on_c, 0, 48, 52
1, 107850, Control_c, 0, 64, 69
1, 107850, Control_c, 0, 67, 99
1, 107868, Note_on_c, 0, 79, 83
1, 107873, Control_c, 0, 64, 57
1, 107873, Control_c, 0, 67, 98
1, 107888, Control_c, 0, 64, 54
1, 107888, Control_c, 0, 67, 96
1, 107903, Control_c, 0, 64, 60
1, 107903, Control_c, 0, 67, 95
1, 107917, Control_c, 0, 64, 68
1, 107917, Control_c, 0, 67, 93
1, 107932, Control_c, 0, 64, 82
1, 107932, Control_c, 0, 67, 92
1, 107947, Control_c, 0, 64, 127
1, 107947, Control_c, 0, 67, 91
1, 107962, Control_c, 0, 67, 90
1, 107977, Control_c, 0, 67, 90
1, 107992, Control_c, 0, 67, 89
1, 108007, Control_c, 0, 67, 87
1, 108019, Note_on_c, 0, 52, 54
1, 108022, Control_c, 0, 67, 86
1, 108031, Note_on_c, 0, 55, 51
1, 108036, Control_c, 0, 67, 84
1, 108051, Control_c, 0, 67, 80
1, 108066, Control_c, 0, 67, 78
1, 108078, Note_off_c, 0, 76, 53
1, 108081, Control_c, 0, 67, 75
1, 108081, Note_off_c, 0, 52, 58
1, 108084, Note_off_c, 0, 55, 53
1, 108096, Control_c, 0, 67, 72
1, 108100, Note_off_c, 0, 79, 64
1, 108110, Control_c, 0, 67, 69
1, 108125, Control_c, 0, 67, 67
1, 108140, Control_c, 0, 67, 66
1, 108155, Control_c, 0, 67, 64
1, 108169, Control_c, 0, 67, 63
1, 108184, Control_c, 0, 67, 63
1, 108200, Note_on_c, 0, 55, 51
1, 108209, Note_on_c, 0, 52, 53
1, 108214, Control_c, 0, 67, 64
1, 108229, Control_c, 0, 67, 64
1, 108236, Note_off_c, 0, 55, 57
1, 108241, Note_off_c, 0, 52, 58
1, 108258, Control_c, 0, 67, 65
1, 108273, Control_c, 0, 67, 67
1, 108288, Control_c, 0, 67, 68
1, 108303, Control_c, 0, 67, 69
1, 108317, Control_c, 0, 67, 69
1, 108347, Control_c, 0, 67, 70
1, 108355, Note_off_c, 0, 48, 60
1, 108364, Note_on_c, 0, 79, 79
1, 108375, Note_on_c, 0, 52, 50
1, 108376, Control_c, 0, 67, 70
1, 108379, Note_on_c, 0, 55, 53
1, 108391, Control_c, 0, 67, 71
1, 108406, Control_c, 0, 67, 72
1, 108425, Note_off_c, 0, 55, 60
1, 108481, Control_c, 0, 67, 73
1, 108496, Control_c, 0, 67, 73
1, 108513, Note_off_c, 0, 52, 59
1, 108549, Note_on_c, 0, 84, 87
1, 108553, Note_on_c, 0, 80, 68
1, 108555, Control_c, 0, 64, 109
1, 108560, Note_off_c, 0, 79, 64
1, 108567, Note_on_c, 0, 48, 58
1, 108569, Control_c, 0, 64, 84
1, 108569, Control_c, 0, 67, 74
1, 108579, Note_on_c, 0, 77, 42
1, 108583, Control_c, 0, 64, 66
1, 108583, Control_c, 0, 67, 75
1, 108588, Note_on_c, 0, 72, 26
1, 108598, Control_c, 0, 64, 54
1, 108621, Control_c, 0, 64, 37
1, 108636, Control_c, 0, 64, 20
1, 108650, Control_c, 0, 64, 0
1, 108680, Control_c, 0, 67, 75
1, 108695, Control_c, 0, 64, 18
1, 108710, Control_c, 0, 64, 47
1, 108710, Control_c, 0, 67, 76
1, 108725, Control_c, 0, 64, 64
1, 108725, Control_c, 0, 67, 76
1, 108736, Note_on_c, 0, 53, 50
1, 108740, Control_c, 0, 64, 74
1, 108741, Note_on_c, 0, 56, 52
1, 108755, Control_c, 0, 64, 84
1, 108770, Control_c, 0, 64, 94
1, 108770, Control_c, 0, 67, 77
1, 108784, Control_c, 0, 64, 104
1, 108792, Note_off_c, 0, 53, 56
1, 108795, Note_off_c, 0, 56, 55
1, 108799, Control_c, 0, 64, 127
1, 108823, Note_off_c, 0, 72, 45
1, 108858, Control_c, 0, 67, 77
1, 108889, Note_off_c, 0, 80, 57
1, 108905, Note_on_c, 0, 53, 56
1, 108905, Note_on_c, 0, 56, 55
1, 108958, Note_off_c, 0, 53, 58
1, 108962, Note_off_c, 0, 56, 57
1, 108968, Note_off_c, 0, 77, 43
1, 108991, Control_c, 0, 67, 78
1, 109021, Control_c, 0, 67, 78
1, 109036, Control_c, 0, 67, 80
1, 109047, Note_off_c, 0, 48, 56
1, 109051, Control_c, 0, 67, 80
1, 109071, Note_on_c, 0, 56, 58
1, 109075, Note_on_c, 0, 53, 56
1, 109080, Control_c, 0, 67, 81
1, 109110, Control_c, 0, 67, 81
1, 109131, Note_off_c, 0, 56, 53
1, 109154, Control_c, 0, 67, 82
1, 109229, Control_c, 0, 67, 82
1, 109261, Note_on_c, 0, 48, 56
1, 109273, Control_c, 0, 64, 97
1, 109283, Note_on_c, 0, 80, 77
1, 109288, Control_c, 0, 64, 74
1, 109292, Note_off_c, 0, 53, 16
1, 109303, Note_on_c, 0, 77, 57
1, 109303, Control_c, 0, 64, 61
1, 109304, Note_on_c, 0, 72, 55
1, 109317, Control_c, 0, 64, 41
1, 109317, Control_c, 0, 67, 83
1, 109332, Control_c, 0, 64, 8
1, 109347, Control_c, 0, 64, 0
1, 109347, Control_c, 0, 67, 84
1, 109369, Control_c, 0, 67, 84
1, 109376, Note_off_c, 0, 84, 64
1, 109384, Control_c, 0, 67, 88
1, 109399, Control_c, 0, 67, 93
1, 109414, Control_c, 0, 64, 27
1, 109414, Control_c, 0, 67, 98
1, 109429, Control_c, 0, 64, 53
1, 109429, Control_c, 0, 67, 102
1, 109444, Control_c, 0, 64, 66
1, 109444, Control_c, 0, 67, 104
1, 109453, Note_on_c, 0, 53, 48
1, 109458, Control_c, 0, 64, 73
1, 109458, Control_c, 0, 67, 105
1, 109464, Note_on_c, 0, 56, 51
1, 109473, Control_c, 0, 64, 79
1, 109473, Control_c, 0, 67, 106
1, 109488, Control_c, 0, 64, 85
1, 109503, Control_c, 0, 64, 92
1, 109503, Control_c, 0, 67, 107
1, 109512, Note_off_c, 0, 53, 59
1, 109515, Note_off_c, 0, 56, 54
1, 109518, Control_c, 0, 64, 102
1, 109533, Control_c, 0, 64, 124
1, 109548, Control_c, 0, 64, 127
1, 109593, Control_c, 0, 67, 107
1, 109629, Note_on_c, 0, 56, 53
1, 109630, Note_on_c, 0, 53, 61
1, 109637, Control_c, 0, 67, 108
1, 109652, Control_c, 0, 67, 108
1, 109667, Control_c, 0, 67, 109
1, 109677, Note_off_c, 0, 56, 54
1, 109685, Note_off_c, 0, 53, 53
1, 109711, Control_c, 0, 67, 109
1, 109755, Note_off_c, 0, 48, 59
1, 109807, Note_on_c, 0, 53, 62
1, 109810, Note_on_c, 0, 56, 54
1, 109844, Control_c, 0, 67, 110
1, 109947, Control_c, 0, 64, 85
1, 109962, Control_c, 0, 64, 65
1, 109971, Note_off_c, 0, 56, 30
1, 109975, Note_on_c, 0, 48, 62
1, 109977, Control_c, 0, 64, 46
1, 109977, Control_c, 0, 67, 109
1, 109987, Note_off_c, 0, 53, 53
1, 109992, Control_c, 0, 64, 22
1, 109992, Control_c, 0, 67, 109
1, 110007, Control_c, 0, 64, 21
1, 110007, Control_c, 0, 67, 108
1, 110022, Control_c, 0, 64, 32
1, 110022, Control_c, 0, 67, 106
1, 110037, Control_c, 0, 64, 49
1, 110037, Control_c, 0, 67, 104
1, 110052, Control_c, 0, 64, 63
1, 110052, Control_c, 0, 67, 102
1, 110059, Note_off_c, 0, 72, 40
1, 110067, Control_c, 0, 64, 73
1, 110067, Control_c, 0, 67, 100
1, 110081, Control_c, 0, 64, 82
1, 110081, Control_c, 0, 67, 99
1, 110096, Control_c, 0, 64, 94
1, 110096, Control_c, 0, 67, 97
1, 110119, Control_c, 0, 64, 115
1, 110119, Control_c, 0, 67, 95
1, 110133, Control_c, 0, 64, 127
1, 110133, Control_c, 0, 67, 93
1, 110144, Note_on_c, 0, 53, 56
1, 110148, Control_c, 0, 67, 90
1, 110153, Note_on_c, 0, 56, 52
1, 110163, Control_c, 0, 67, 88
1, 110165, Note_off_c, 0, 77, 57
1, 110178, Control_c, 0, 67, 85
1, 110193, Control_c, 0, 67, 81
1, 110204, Note_off_c, 0, 53, 56
1, 110208, Control_c, 0, 67, 75
1, 110209, Note_off_c, 0, 56, 55
1, 110222, Control_c, 0, 67, 69
1, 110237, Control_c, 0, 67, 63
1, 110252, Control_c, 0, 67, 56
1, 110260, Note_off_c, 0, 80, 43
1, 110267, Control_c, 0, 67, 47
1, 110282, Control_c, 0, 67, 37
1, 110298, Control_c, 0, 67, 25
1, 110312, Control_c, 0, 67, 14
1, 110327, Control_c, 0, 67, 0
1, 110339, Note_on_c, 0, 53, 53
1, 110349, Note_on_c, 0, 56, 32
1, 110386, Note_off_c, 0, 53, 59
1, 110388, Note_off_c, 0, 56, 51
1, 110546, Note_on_c, 0, 56, 28
1, 110548, Note_on_c, 0, 53, 48
1, 110583, Note_off_c, 0, 53, 63
1, 110583, Note_off_c, 0, 56, 51
1, 110594, Control_c, 0, 67, 9
1, 110609, Control_c, 0, 67, 14
1, 110615, Note_off_c, 0, 48, 34
1, 110624, Control_c, 0, 67, 20
1, 110638, Control_c, 0, 67, 30
1, 110653, Control_c, 0, 67, 44
1, 110668, Control_c, 0, 67, 64
1, 110683, Control_c, 0, 67, 82
1, 110698, Control_c, 0, 67, 97
1, 110712, Control_c, 0, 67, 107
1, 110727, Control_c, 0, 67, 111
1, 110742, Control_c, 0, 67, 112
1, 110756, Control_c, 0, 67, 115
1, 110771, Control_c, 0, 67, 119
1, 110786, Control_c, 0, 67, 121
1, 110801, Control_c, 0, 67, 122
1, 110816, Control_c, 0, 67, 123
1, 110830, Control_c, 0, 64, 124
1, 110830, Control_c, 0, 67, 123
1, 110845, Control_c, 0, 64, 87
1, 110845, Control_c, 0, 67, 125
1, 110868, Control_c, 0, 64, 70
1, 110868, Control_c, 0, 67, 126
1, 110868, Note_on_c, 0, 80, 65
1, 110883, Control_c, 0, 64, 59
1, 110883, Control_c, 0, 67, 127
1, 110898, Control_c, 0, 64, 47
1, 110902, Note_on_c, 0, 77, 40
1, 110904, Note_on_c, 0, 72, 42
1, 110910, Note_on_c, 0, 41, 41
1, 110912, Control_c, 0, 64, 32
1, 110927, Control_c, 0, 64, 0
1, 111121, Control_c, 0, 64, 37
1, 111135, Control_c, 0, 64, 54
1, 111146, Note_on_c, 0, 48, 30
1, 111150, Control_c, 0, 64, 63
1, 111165, Control_c, 0, 64, 67
1, 111180, Control_c, 0, 64, 69
1, 111194, Control_c, 0, 64, 71
1, 111209, Control_c, 0, 64, 75
1, 111224, Control_c, 0, 64, 79
1, 111239, Control_c, 0, 64, 82
1, 111254, Control_c, 0, 64, 84
1, 111268, Control_c, 0, 64, 85
1, 111270, Note_off_c, 0, 41, 40
1, 111283, Control_c, 0, 64, 86
1, 111298, Control_c, 0, 64, 87
1, 111313, Control_c, 0, 64, 88
1, 111316, Note_off_c, 0, 48, 39
1, 111328, Control_c, 0, 64, 90
1, 111340, Note_on_c, 0, 50, 46
1, 111342, Control_c, 0, 64, 92
1, 111357, Control_c, 0, 64, 93
1, 111372, Control_c, 0, 64, 94
1, 111402, Control_c, 0, 64, 95
1, 111417, Control_c, 0, 64, 96
1, 111432, Control_c, 0, 64, 97
1, 111447, Control_c, 0, 64, 98
1, 111461, Control_c, 0, 64, 100
1, 111476, Control_c, 0, 64, 101
1, 111491, Control_c, 0, 64, 102
1, 111497, Note_on_c, 0, 52, 57
1, 111501, Note_off_c, 0, 50, 57
1, 111506, Control_c, 0, 64, 103
1, 111521, Control_c, 0, 64, 103
1, 111579, Control_c, 0, 64, 103
1, 111594, Control_c, 0, 64, 98
1, 111617, Control_c, 0, 64, 83
1, 111631, Control_c, 0, 64, 70
1, 111646, Control_c, 0, 64, 60
1, 111661, Control_c, 0, 64, 51
1, 111676, Control_c, 0, 64, 47
1, 111679, Note_off_c, 0, 52, 61
1, 111683, Note_on_c, 0, 53, 56
1, 111691, Control_c, 0, 64, 48
1, 111706, Control_c, 0, 64, 53
1, 111721, Control_c, 0, 64, 61
1, 111735, Control_c, 0, 64, 67
1, 111750, Control_c, 0, 64, 71
1, 111765, Control_c, 0, 64, 76
1, 111779, Control_c, 0, 64, 79
1, 111794, Control_c, 0, 64, 80
1, 111815, Note_off_c, 0, 77, 56
1, 111830, Note_off_c, 0, 53, 63
1, 111839, Control_c, 0, 64, 80
1, 111858, Note_on_c, 0, 55, 63
1, 111914, Control_c, 0, 64, 80
1, 111944, Control_c, 0, 64, 78
1, 111958, Control_c, 0, 64, 76
1, 111973, Control_c, 0, 64, 74
1, 111988, Control_c, 0, 64, 70
1, 112002, Control_c, 0, 64, 66
1, 112017, Control_c, 0, 64, 61
1, 112019, Note_on_c, 0, 77, 82
1, 112019, Note_off_c, 0, 55, 60
1, 112032, Control_c, 0, 64, 56
1, 112038, Note_on_c, 0, 56, 56
1, 112047, Control_c, 0, 64, 50
1, 112062, Control_c, 0, 64, 43
1, 112076, Control_c, 0, 64, 33
1, 112079, Note_off_c, 0, 80, 59
1, 112091, Control_c, 0, 64, 17
1, 112106, Control_c, 0, 64, 0
1, 112121, Control_c, 0, 67, 127
1, 112136, Control_c, 0, 67, 123
1, 112151, Control_c, 0, 64, 15
1, 112151, Control_c, 0, 67, 118
1, 112165, Control_c, 0, 64, 42
1, 112165, Control_c, 0, 67, 114
1, 112180, Control_c, 0, 64, 61
1, 112180, Control_c, 0, 67, 111
1, 112181, Note_off_c, 0, 56, 62
1, 112190, Note_on_c, 0, 58, 61
1, 112195, Control_c, 0, 64, 71
1, 112195, Control_c, 0, 67, 107
1, 112210, Control_c, 0, 64, 77
1, 112210, Control_c, 0, 67, 101
1, 112225, Control_c, 0, 64, 81
1, 112225, Control_c, 0, 67, 98
1, 112240, Control_c, 0, 64, 83
1, 112240, Control_c, 0, 67, 95
1, 112255, Control_c, 0, 64, 85
1, 112255, Control_c, 0, 67, 92
1, 112260, Note_off_c, 0, 77, 57
1, 112269, Control_c, 0, 64, 86
1, 112269, Control_c, 0, 67, 92
1, 112284, Control_c, 0, 64, 87
1, 112314, Control_c, 0, 64, 87
1, 112314, Control_c, 0, 67, 92
1, 112329, Control_c, 0, 67, 93
1, 112365, Control_c, 0, 64, 87
1, 112392, Note_off_c, 0, 58, 62
1, 112395, Control_c, 0, 67, 93
1, 112410, Control_c, 0, 64, 86
1, 112410, Note_on_c, 0, 60, 51
1, 112424, Control_c, 0, 64, 82
1, 112426, Note_on_c, 0, 77, 70
1, 112439, Control_c, 0, 64, 75
1, 112439, Control_c, 0, 67, 93
1, 112454, Control_c, 0, 64, 66
1, 112454, Control_c, 0, 67, 92
1, 112469, Control_c, 0, 64, 56
1, 112469, Control_c, 0, 67, 92
1, 112484, Control_c, 0, 64, 41
1, 112484, Control_c, 0, 67, 91
1, 112499, Control_c, 0, 64, 25
1, 112514, Control_c, 0, 64, 17
1, 112529, Control_c, 0, 64, 16
1, 112543, Control_c, 0, 64, 22
1, 112558, Control_c, 0, 64, 40
1, 112573, Control_c, 0, 64, 58
1, 112573, Control_c, 0, 67, 92
1, 112585, Note_on_c, 0, 56, 55
1, 112585, Note_off_c, 0, 60, 53
1, 112588, Control_c, 0, 64, 69
1, 112588, Control_c, 0, 67, 94
1, 112603, Control_c, 0, 64, 77
1, 112603, Control_c, 0, 67, 95
1, 112617, Control_c, 0, 64, 84
1, 112617, Control_c, 0, 67, 96
1, 112632, Control_c, 0, 64, 86
1, 112647, Control_c, 0, 64, 87
1, 112662, Control_c, 0, 64, 90
1, 112678, Control_c, 0, 64, 93
1, 112692, Note_off_c, 0, 77, 63
1, 112693, Control_c, 0, 64, 98
1, 112693, Control_c, 0, 67, 97
1, 112707, Control_c, 0, 64, 103
1, 112707, Control_c, 0, 67, 97
1, 112722, Control_c, 0, 64, 109
1, 112722, Control_c, 0, 67, 98
1, 112737, Control_c, 0, 64, 115
1, 112751, Control_c, 0, 64, 127
1, 112755, Note_on_c, 0, 55, 60
1, 112763, Note_off_c, 0, 56, 61
1, 112766, Control_c, 0, 67, 98
1, 112781, Control_c, 0, 67, 99
1, 112796, Control_c, 0, 67, 99
1, 112811, Control_c, 0, 67, 100
1, 112840, Control_c, 0, 67, 100
1, 112899, Control_c, 0, 67, 100
1, 112914, Control_c, 0, 67, 101
1, 112915, Note_off_c, 0, 55, 62
1, 112924, Note_on_c, 0, 77, 76
1, 112931, Note_on_c, 0, 53, 58
1, 112988, Control_c, 0, 67, 101
1, 112994, Note_off_c, 0, 72, 35
1, 113016, Note_off_c, 0, 53, 60
1, 113076, Control_c, 0, 67, 102
1, 113113, Control_c, 0, 67, 103
1, 113128, Control_c, 0, 64, 110
1, 113128, Control_c, 0, 67, 103
1, 113128, Note_off_c, 0, 77, 63
1, 113134, Note_on_c, 0, 48, 54
1, 113137, Note_on_c, 0, 82, 79
1, 113143, Control_c, 0, 64, 100
1, 113157, Control_c, 0, 64, 88
1, 113164, Note_on_c, 0, 76, 47
1, 113167, Note_on_c, 0, 79, 53
1, 113170, Note_on_c, 0, 72, 45
1, 113172, Control_c, 0, 64, 76
1, 113172, Control_c, 0, 67, 105
1, 113187, Control_c, 0, 64, 67
1, 113187, Control_c, 0, 67, 105
1, 113202, Control_c, 0, 64, 58
1, 113217, Control_c, 0, 64, 45
1, 113231, Control_c, 0, 64, 28
1, 113246, Control_c, 0, 64, 14
1, 113261, Control_c, 0, 64, 0
1, 113291, Control_c, 0, 67, 106
1, 113320, Control_c, 0, 64, 24
1, 113320, Control_c, 0, 67, 105
1, 113322, Note_on_c, 0, 35, 62
1, 113335, Control_c, 0, 64, 46
1, 113350, Control_c, 0, 64, 59
1, 113364, Control_c, 0, 64, 64
1, 113364, Control_c, 0, 67, 105
1, 113379, Control_c, 0, 64, 66
1, 113394, Control_c, 0, 64, 67
1, 113409, Control_c, 0, 64, 68
1, 113424, Control_c, 0, 64, 69
1, 113438, Control_c, 0, 64, 70
1, 113468, Control_c, 0, 64, 67
1, 113484, Control_c, 0, 64, 62
1, 113499, Control_c, 0, 64, 53
1, 113503, Note_on_c, 0, 36, 65
1, 113512, Note_off_c, 0, 35, 58
1, 113514, Control_c, 0, 64, 40
1, 113528, Control_c, 0, 64, 25
1, 113543, Control_c, 0, 64, 23
1, 113549, Note_off_c, 0, 79, 30
1, 113558, Control_c, 0, 64, 28
1, 113572, Control_c, 0, 64, 43
1, 113572, Control_c, 0, 67, 105
1, 113587, Control_c, 0, 64, 58
1, 113599, Note_off_c, 0, 76, 36
1, 113602, Control_c, 0, 64, 66
1, 113617, Control_c, 0, 64, 70
1, 113632, Control_c, 0, 64, 71
1, 113647, Control_c, 0, 64, 71
1, 113661, Control_c, 0, 64, 72
1, 113676, Note_on_c, 0, 35, 65
1, 113691, Control_c, 0, 64, 72
1, 113703, Note_off_c, 0, 36, 63
1, 113721, Control_c, 0, 64, 73
1, 113764, Note_off_c, 0, 72, 33
1, 113780, Control_c, 0, 67, 106
1, 113862, Control_c, 0, 64, 72
1, 113877, Note_off_c, 0, 48, 59
1, 113877, Control_c, 0, 64, 69
1, 113892, Control_c, 0, 64, 65
1, 113899, Note_on_c, 0, 79, 71
1, 113907, Control_c, 0, 64, 61
1, 113907, Control_c, 0, 67, 106
1, 113913, Note_on_c, 0, 72, 44
1, 113920, Note_on_c, 0, 36, 63
1, 113922, Control_c, 0, 64, 57
1, 113926, Note_on_c, 0, 76, 48
1, 113936, Control_c, 0, 64, 52
1, 113936, Control_c, 0, 67, 106
1, 113941, Note_off_c, 0, 35, 61
1, 113951, Control_c, 0, 64, 47
1, 113966, Control_c, 0, 64, 41
1, 113980, Control_c, 0, 64, 33
1, 113980, Control_c, 0, 67, 106
1, 113983, Note_off_c, 0, 82, 63
1, 113995, Control_c, 0, 64, 27
1, 114010, Control_c, 0, 64, 26
1, 114025, Control_c, 0, 64, 30
1, 114040, Control_c, 0, 64, 40
1, 114055, Control_c, 0, 64, 49
1, 114070, Control_c, 0, 64, 53
1, 114070, Control_c, 0, 67, 107
1, 114085, Control_c, 0, 64, 54
1, 114094, Note_on_c, 0, 40, 69
1, 114100, Control_c, 0, 64, 53
1, 114114, Control_c, 0, 64, 50
1, 114129, Control_c, 0, 64, 46
1, 114144, Control_c, 0, 64, 41
1, 114156, Note_off_c, 0, 36, 63
1, 114159, Control_c, 0, 64, 34
1, 114159, Control_c, 0, 67, 107
1, 114174, Control_c, 0, 64, 25
1, 114174, Control_c, 0, 67, 107
1, 114188, Control_c, 0, 64, 21
1, 114203, Control_c, 0, 64, 25
1, 114218, Control_c, 0, 64, 39
1, 114218, Control_c, 0, 67, 106
1, 114233, Control_c, 0, 64, 57
1, 114233, Control_c, 0, 67, 107
1, 114248, Control_c, 0, 64, 63
1, 114262, Control_c, 0, 64, 63
1, 114265, Note_on_c, 0, 43, 75
1, 114265, Note_off_c, 0, 40, 63
1, 114278, Control_c, 0, 64, 62
1, 114293, Control_c, 0, 64, 61
1, 114352, Control_c, 0, 64, 60
1, 114367, Control_c, 0, 64, 57
1, 114367, Control_c, 0, 67, 107
1, 114382, Control_c, 0, 64, 54
1, 114396, Control_c, 0, 64, 52
1, 114426, Control_c, 0, 64, 52
1, 114431, Note_on_c, 0, 47, 75
1, 114441, Control_c, 0, 64, 51
1, 114448, Note_off_c, 0, 43, 61
1, 114456, Control_c, 0, 64, 49
1, 114471, Control_c, 0, 64, 46
1, 114485, Control_c, 0, 64, 43
1, 114500, Control_c, 0, 64, 40
1, 114515, Control_c, 0, 64, 35
1, 114515, Control_c, 0, 67, 108
1, 114530, Control_c, 0, 64, 25
1, 114544, Control_c, 0, 64, 13
1, 114559, Control_c, 0, 64, 0
1, 114611, Control_c, 0, 67, 108
1, 114637, Note_on_c, 0, 48, 70
1, 114638, Note_off_c, 0, 47, 66
1, 114641, Control_c, 0, 67, 109
1, 114671, Control_c, 0, 67, 109
1, 114685, Control_c, 0, 67, 110
1, 114700, Control_c, 0, 67, 110
1, 114715, Control_c, 0, 67, 111
1, 114774, Control_c, 0, 64, 12
1, 114789, Control_c, 0, 64, 16
1, 114789, Control_c, 0, 67, 111
1, 114803, Control_c, 0, 64, 15
1, 114803, Control_c, 0, 67, 112
1, 114813, Note_on_c, 0, 46, 65
1, 114818, Control_c, 0, 64, 17
1, 114823, Note_off_c, 0, 48, 63
1, 114833, Control_c, 0, 64, 26
1, 114833, Control_c, 0, 67, 111
1, 114848, Control_c, 0, 64, 30
1, 114863, Control_c, 0, 64, 29
1, 114878, Control_c, 0, 64, 27
1, 114893, Control_c, 0, 64, 26
1, 114893, Control_c, 0, 67, 112
1, 114908, Control_c, 0, 64, 23
1, 114908, Control_c, 0, 67, 111
1, 114922, Control_c, 0, 64, 20
1, 114937, Control_c, 0, 64, 12
1, 114952, Control_c, 0, 64, 0
1, 114952, Control_c, 0, 67, 111
1, 114967, Control_c, 0, 67, 111
1, 114994, Note_on_c, 0, 44, 60
1, 115011, Control_c, 0, 67, 111
1, 115029, Note_off_c, 0, 46, 61
1, 115116, Control_c, 0, 67, 110
1, 115161, Control_c, 0, 64, 36
1, 115175, Note_on_c, 0, 43, 60
1, 115175, Control_c, 0, 64, 55
1, 115175, Control_c, 0, 67, 110
1, 115183, Note_off_c, 0, 72, 44
1, 115190, Control_c, 0, 64, 62
1, 115190, Control_c, 0, 67, 109
1, 115191, Note_off_c, 0, 44, 59
1, 115205, Control_c, 0, 64, 64
1, 115220, Control_c, 0, 67, 109
1, 115224, Note_off_c, 0, 76, 59
1, 115234, Control_c, 0, 64, 65
1, 115249, Control_c, 0, 64, 66
1, 115249, Control_c, 0, 67, 109
1, 115264, Control_c, 0, 64, 68
1, 115279, Control_c, 0, 64, 69
1, 115294, Control_c, 0, 64, 69
1, 115359, Control_c, 0, 67, 110
1, 115404, Control_c, 0, 64, 68
1, 115404, Control_c, 0, 67, 109
1, 115419, Control_c, 0, 64, 66
1, 115433, Control_c, 0, 64, 62
1, 115434, Note_off_c, 0, 43, 61
1, 115441, Note_on_c, 0, 41, 56
1, 115448, Control_c, 0, 64, 58
1, 115448, Control_c, 0, 67, 110
1, 115463, Control_c, 0, 64, 52
1, 115468, Note_on_c, 0, 80, 75
1, 115478, Control_c, 0, 64, 44
1, 115493, Control_c, 0, 64, 33
1, 115493, Control_c, 0, 67, 109
1, 115500, Note_on_c, 0, 72, 53
1, 115500, Note_on_c, 0, 77, 54
1, 115507, Control_c, 0, 64, 8
1, 115522, Control_c, 0, 64, 0
1, 115524, Note_off_c, 0, 79, 30
1, 115596, Control_c, 0, 64, 17
1, 115611, Control_c, 0, 64, 43
1, 115626, Control_c, 0, 64, 59
1, 115626, Control_c, 0, 67, 109
1, 115641, Control_c, 0, 64, 67
1, 115656, Control_c, 0, 64, 68
1, 115656, Control_c, 0, 67, 109
1, 115671, Control_c, 0, 64, 69
1, 115685, Note_on_c, 0, 48, 50
1, 115686, Control_c, 0, 64, 70
1, 115686, Control_c, 0, 67, 109
1, 115700, Control_c, 0, 64, 72
1, 115715, Control_c, 0, 64, 74
1, 115730, Control_c, 0, 64, 78
1, 115730, Control_c, 0, 67, 108
1, 115744, Control_c, 0, 64, 80
1, 115759, Control_c, 0, 64, 82
1, 115759, Control_c, 0, 67, 108
1, 115774, Control_c, 0, 64, 83
1, 115789, Control_c, 0, 64, 84
1, 115804, Control_c, 0, 64, 85
1, 115819, Control_c, 0, 64, 85
1, 115836, Note_off_c, 0, 41, 49
1, 115865, Note_off_c, 0, 48, 60
1, 115876, Note_on_c, 0, 50, 60
1, 115879, Control_c, 0, 64, 86
1, 115879, Control_c, 0, 67, 108
1, 115894, Control_c, 0, 64, 86
1, 115909, Control_c, 0, 64, 87
1, 115968, Control_c, 0, 67, 109
1, 115997, Control_c, 0, 64, 84
1, 116012, Control_c, 0, 64, 81
1, 116027, Control_c, 0, 64, 77
1, 116042, Control_c, 0, 64, 75
1, 116045, Note_on_c, 0, 52, 69
1, 116071, Control_c, 0, 64, 76
1, 116073, Note_off_c, 0, 50, 54
1, 116086, Control_c, 0, 64, 78
1, 116109, Control_c, 0, 64, 82
1, 116124, Control_c, 0, 64, 85
1, 116138, Control_c, 0, 64, 87
1, 116168, Control_c, 0, 64, 82
1, 116168, Control_c, 0, 67, 109
1, 116182, Control_c, 0, 64, 70
1, 116197, Control_c, 0, 64, 59
1, 116212, Control_c, 0, 64, 44
1, 116227, Note_on_c, 0, 53, 64
1, 116227, Control_c, 0, 64, 33
1, 116234, Note_off_c, 0, 52, 64
1, 116242, Control_c, 0, 64, 31
1, 116256, Control_c, 0, 64, 35
1, 116271, Control_c, 0, 64, 49
1, 116286, Control_c, 0, 64, 61
1, 116301, Control_c, 0, 64, 69
1, 116301, Control_c, 0, 67, 109
1, 116316, Control_c, 0, 64, 75
1, 116330, Control_c, 0, 64, 80
1, 116345, Control_c, 0, 64, 82
1, 116355, Note_off_c, 0, 53, 63
1, 116360, Control_c, 0, 64, 83
1, 116360, Control_c, 0, 67, 108
1, 116374, Control_c, 0, 64, 86
1, 116381, Note_off_c, 0, 77, 32
1, 116384, Note_on_c, 0, 55, 66
1, 116389, Control_c, 0, 64, 89
1, 116404, Control_c, 0, 64, 92
1, 116419, Control_c, 0, 64, 96
1, 116434, Control_c, 0, 64, 99
1, 116449, Control_c, 0, 64, 101
1, 116449, Control_c, 0, 67, 109
1, 116464, Control_c, 0, 64, 103
1, 116478, Control_c, 0, 64, 103
1, 116508, Control_c, 0, 64, 101
1, 116523, Control_c, 0, 64, 87
1, 116538, Control_c, 0, 64, 70
1, 116539, Note_off_c, 0, 55, 62
1, 116549, Note_on_c, 0, 77, 82
1, 116553, Control_c, 0, 64, 58
1, 116565, Note_on_c, 0, 56, 61
1, 116568, Control_c, 0, 64, 46
1, 116582, Control_c, 0, 64, 44
1, 116582, Control_c, 0, 67, 108
1, 116597, Control_c, 0, 64, 51
1, 116605, Note_off_c, 0, 80, 57
1, 116612, Control_c, 0, 64, 60
1, 116627, Control_c, 0, 64, 68
1, 116642, Control_c, 0, 64, 75
1, 116656, Control_c, 0, 64, 82
1, 116656, Control_c, 0, 67, 108
1, 116672, Control_c, 0, 64, 85
1, 116672, Note_off_c, 0, 72, 61
1, 116687, Note_off_c, 0, 77, 61
1, 116687, Control_c, 0, 64, 86
1, 116687, Control_c, 0, 67, 107
1, 116700, Note_off_c, 0, 56, 62
1, 116702, Control_c, 0, 64, 87
1, 116717, Control_c, 0, 64, 89
1, 116717, Control_c, 0, 67, 107
1, 116726, Note_on_c, 0, 58, 57
1, 116732, Control_c, 0, 64, 92
1, 116746, Control_c, 0, 64, 94
1, 116791, Control_c, 0, 67, 107
1, 116805, Control_c, 0, 64, 95
1, 116821, Control_c, 0, 64, 96
1, 116836, Control_c, 0, 64, 97
1, 116858, Control_c, 0, 64, 97
1, 116892, Note_off_c, 0, 58, 63
1, 116917, Control_c, 0, 64, 96
1, 116917, Control_c, 0, 67, 108
1, 116922, Note_on_c, 0, 77, 80
1, 116932, Control_c, 0, 64, 88
1, 116941, Note_on_c, 0, 60, 55
1, 116943, Note_on_c, 0, 72, 61
1, 116947, Control_c, 0, 64, 74
1, 116951, Note_on_c, 0, 68, 54
1, 116961, Control_c, 0, 64, 63
1, 116961, Control_c, 0, 67, 107
1, 116976, Control_c, 0, 64, 48
1, 116991, Control_c, 0, 64, 28
1, 117006, Control_c, 0, 64, 14
1, 117021, Control_c, 0, 64, 12
1, 117036, Control_c, 0, 64, 13
1, 117051, Control_c, 0, 64, 33
1, 117066, Control_c, 0, 64, 52
1, 117080, Control_c, 0, 64, 64
1, 117092, Note_off_c, 0, 60, 58
1, 117095, Control_c, 0, 64, 71
1, 117101, Note_on_c, 0, 56, 62
1, 117110, Control_c, 0, 64, 75
1, 117124, Control_c, 0, 64, 78
1, 117139, Control_c, 0, 64, 80
1, 117139, Control_c, 0, 67, 107
1, 117154, Control_c, 0, 64, 83
1, 117169, Control_c, 0, 64, 88
1, 117184, Control_c, 0, 64, 94
1, 117198, Control_c, 0, 64, 98
1, 117198, Control_c, 0, 67, 106
1, 117213, Control_c, 0, 64, 102
1, 117228, Control_c, 0, 64, 105
1, 117243, Control_c, 0, 64, 109
1, 117258, Control_c, 0, 64, 109
1, 117285, Note_on_c, 0, 55, 62
1, 117287, Control_c, 0, 64, 106
1, 117300, Note_off_c, 0, 56, 60
1, 117302, Control_c, 0, 64, 90
1, 117316, Control_c, 0, 64, 75
1, 117331, Control_c, 0, 64, 66
1, 117346, Control_c, 0, 64, 63
1, 117361, Control_c, 0, 64, 67
1, 117376, Control_c, 0, 64, 75
1, 117382, Note_off_c, 0, 77, 54
1, 117391, Control_c, 0, 64, 88
1, 117406, Control_c, 0, 64, 102
1, 117420, Control_c, 0, 64, 107
1, 117435, Control_c, 0, 64, 108
1, 117450, Control_c, 0, 64, 109
1, 117466, Control_c, 0, 64, 110
1, 117466, Control_c, 0, 67, 106
1, 117494, Note_off_c, 0, 55, 63
1, 117495, Control_c, 0, 64, 110
1, 117496, Note_on_c, 0, 77, 86
1, 117498, Note_on_c, 0, 53, 64
1, 117510, Control_c, 0, 64, 111
1, 117525, Control_c, 0, 64, 113
1, 117525, Control_c, 0, 67, 106
1, 117586, Note_off_c, 0, 53, 62
1, 117587, Note_off_c, 0, 68, 60
1, 117666, Control_c, 0, 67, 107
1, 117681, Control_c, 0, 64, 112
1, 117696, Control_c, 0, 64, 109
1, 117696, Control_c, 0, 67, 107
1, 117710, Control_c, 0, 64, 102
1, 117725, Control_c, 0, 64, 92
1, 117725, Control_c, 0, 67, 108
1, 117731, Note_on_c, 0, 51, 57
1, 117734, Note_on_c, 0, 78, 84
1, 117740, Control_c, 0, 64, 77
1, 117754, Control_c, 0, 64, 64
1, 117756, Note_on_c, 0, 66, 60
1, 117758, Note_on_c, 0, 73, 60
1, 117766, Note_off_c, 0, 77, 65
1, 117769, Control_c, 0, 64, 49
1, 117781, Note_off_c, 0, 72, 37
1, 117784, Control_c, 0, 64, 28
1, 117799, Control_c, 0, 64, 14
1, 117814, Control_c, 0, 64, 13
1, 117829, Control_c, 0, 64, 16
1, 117829, Control_c, 0, 67, 108
1, 117844, Control_c, 0, 64, 34
1, 117859, Control_c, 0, 64, 51
1, 117874, Control_c, 0, 64, 63
1, 117888, Control_c, 0, 64, 67
1, 117918, Control_c, 0, 64, 64
1, 117930, Note_on_c, 0, 39, 63
1, 117933, Control_c, 0, 64, 58
1, 117947, Control_c, 0, 64, 48
1, 117962, Control_c, 0, 64, 41
1, 117977, Control_c, 0, 64, 40
1, 117992, Control_c, 0, 64, 45
1, 118007, Control_c, 0, 64, 56
1, 118021, Control_c, 0, 64, 64
1, 118036, Control_c, 0, 64, 70
1, 118051, Control_c, 0, 64, 73
1, 118051, Control_c, 0, 67, 109
1, 118066, Control_c, 0, 64, 74
1, 118081, Note_off_c, 0, 39, 62
1, 118081, Control_c, 0, 64, 75
1, 118086, Note_on_c, 0, 41, 64
1, 118095, Control_c, 0, 64, 76
1, 118140, Control_c, 0, 64, 73
1, 118154, Control_c, 0, 64, 67
1, 118169, Control_c, 0, 64, 62
1, 118184, Control_c, 0, 64, 59
1, 118199, Control_c, 0, 64, 61
1, 118214, Control_c, 0, 64, 65
1, 118228, Control_c, 0, 64, 70
1, 118238, Note_off_c, 0, 73, 59
1, 118243, Control_c, 0, 64, 76
1, 118258, Control_c, 0, 64, 79
1, 118261, Note_on_c, 0, 42, 70
1, 118268, Note_off_c, 0, 41, 62
1, 118274, Control_c, 0, 64, 79
1, 118274, Control_c, 0, 67, 109
1, 118330, Note_off_c, 0, 51, 62
1, 118359, Note_off_c, 0, 66, 44
1, 118370, Control_c, 0, 67, 110
1, 118415, Control_c, 0, 64, 77
1, 118415, Control_c, 0, 67, 110
1, 118430, Control_c, 0, 64, 73
1, 118444, Control_c, 0, 64, 66
1, 118459, Control_c, 0, 64, 59
1, 118464, Note_on_c, 0, 66, 54
1, 118464, Note_on_c, 0, 75, 66
1, 118470, Note_on_c, 0, 72, 59
1, 118474, Control_c, 0, 64, 51
1, 118477, Note_on_c, 0, 44, 70
1, 118487, Note_off_c, 0, 42, 62
1, 118489, Control_c, 0, 64, 45
1, 118504, Control_c, 0, 64, 42
1, 118518, Control_c, 0, 64, 41
1, 118533, Control_c, 0, 64, 42
1, 118533, Control_c, 0, 67, 111
1, 118548, Control_c, 0, 64, 47
1, 118558, Note_off_c, 0, 78, 63
1, 118563, Control_c, 0, 64, 52
1, 118577, Control_c, 0, 64, 53
1, 118592, Control_c, 0, 64, 51
1, 118607, Control_c, 0, 64, 49
1, 118607, Control_c, 0, 67, 111
1, 118622, Control_c, 0, 64, 46
1, 118637, Control_c, 0, 64, 44
1, 118652, Note_off_c, 0, 44, 62
1, 118652, Control_c, 0, 64, 42
1, 118654, Note_on_c, 0, 45, 66
1, 118666, Control_c, 0, 64, 38
1, 118666, Control_c, 0, 67, 112
1, 118681, Control_c, 0, 64, 31
1, 118696, Control_c, 0, 64, 26
1, 118711, Control_c, 0, 64, 22
1, 118726, Control_c, 0, 64, 20
1, 118741, Control_c, 0, 64, 18
1, 118756, Control_c, 0, 64, 16
1, 118770, Control_c, 0, 64, 13
1, 118785, Control_c, 0, 64, 9
1, 118800, Control_c, 0, 64, 0
1, 118830, Note_on_c, 0, 46, 63
1, 118843, Note_off_c, 0, 45, 59
1, 118991, Note_on_c, 0, 44, 62
1, 118992, Control_c, 0, 64, 14
1, 119006, Note_off_c, 0, 46, 62
1, 119007, Control_c, 0, 64, 26
1, 119066, Control_c, 0, 64, 26
1, 119066, Control_c, 0, 67, 112
1, 119104, Control_c, 0, 64, 25
1, 119119, Control_c, 0, 64, 22
1, 119134, Control_c, 0, 64, 17
1, 119148, Control_c, 0, 64, 10
1, 119163, Control_c, 0, 64, 0
1, 119163, Control_c, 0, 67, 113
1, 119188, Note_on_c, 0, 68, 56
1, 119197, Note_off_c, 0, 44, 60
1, 119206, Note_on_c, 0, 42, 51
1, 119233, Note_off_c, 0, 66, 47
1, 119326, Control_c, 0, 64, 39
1, 119326, Control_c, 0, 67, 112
1, 119340, Control_c, 0, 64, 56
1, 119355, Control_c, 0, 64, 63
1, 119358, Note_off_c, 0, 42, 61
1, 119370, Control_c, 0, 64, 64
1, 119385, Control_c, 0, 67, 112
1, 119387, Note_on_c, 0, 41, 58
1, 119415, Control_c, 0, 64, 64
1, 119444, Control_c, 0, 67, 111
1, 119474, Control_c, 0, 67, 112
1, 119504, Control_c, 0, 64, 64
1, 119519, Control_c, 0, 64, 63
1, 119519, Control_c, 0, 67, 112
1, 119534, Control_c, 0, 64, 60
1, 119548, Control_c, 0, 64, 56
1, 119558, Note_off_c, 0, 41, 62
1, 119563, Control_c, 0, 64, 50
1, 119573, Note_on_c, 0, 66, 61
1, 119578, Control_c, 0, 64, 41
1, 119578, Control_c, 0, 67, 113
1, 119580, Note_on_c, 0, 39, 53
1, 119592, Control_c, 0, 64, 30
1, 119607, Control_c, 0, 64, 14
1, 119622, Control_c, 0, 64, 0
1, 119654, Note_off_c, 0, 68, 46
1, 119672, Note_off_c, 0, 72, 58
1, 119696, Control_c, 0, 67, 113
1, 119740, Control_c, 0, 64, 20
1, 119747, Note_off_c, 0, 39, 62
1, 119755, Control_c, 0, 64, 50
1, 119769, Note_on_c, 0, 44, 53
1, 119770, Control_c, 0, 64, 62
1, 119770, Control_c, 0, 67, 113
1, 119785, Control_c, 0, 64, 66
1, 119799, Control_c, 0, 64, 68
1, 119814, Control_c, 0, 64, 70
1, 119829, Control_c, 0, 64, 73
1, 119852, Control_c, 0, 64, 77
1, 119868, Control_c, 0, 64, 82
1, 119883, Control_c, 0, 64, 85
1, 119894, Note_off_c, 0, 66, 62
1, 119897, Control_c, 0, 64, 86
1, 119912, Control_c, 0, 64, 87
1, 119927, Control_c, 0, 64, 87
1, 119986, Control_c, 0, 64, 85
1, 119986, Control_c, 0, 67, 113
1, 120001, Control_c, 0, 64, 77
1, 120015, Control_c, 0, 64, 67
1, 120015, Control_c, 0, 67, 114
1, 120030, Control_c, 0, 64, 57
1, 120045, Control_c, 0, 64, 40
1, 120046, Note_off_c, 0, 44, 36
1, 120059, Note_on_c, 0, 37, 47
1, 120060, Control_c, 0, 64, 0
1, 120064, Note_on_c, 0, 77, 69
1, 120076, Note_off_c, 0, 75, 58
1, 120083, Note_on_c, 0, 73, 52
1, 120089, Control_c, 0, 67, 114
1, 120092, Note_on_c, 0, 65, 49
1, 120119, Control_c, 0, 64, 19
1, 120134, Control_c, 0, 64, 49
1, 120148, Control_c, 0, 64, 64
1, 120156, Note_off_c, 0, 37, 63
1, 120163, Control_c, 0, 64, 73
1, 120178, Control_c, 0, 64, 78
1, 120193, Control_c, 0, 64, 81
1, 120208, Control_c, 0, 64, 83
1, 120222, Control_c, 0, 64, 86
1, 120237, Control_c, 0, 64, 89
1, 120237, Control_c, 0, 67, 114
1, 120252, Control_c, 0, 64, 93
1, 120267, Control_c, 0, 64, 96
1, 120282, Control_c, 0, 64, 97
1, 120297, Control_c, 0, 64, 98
1, 120297, Control_c, 0, 67, 114
1, 120312, Control_c, 0, 64, 98
1, 120321, Note_on_c, 0, 49, 54
1, 120341, Control_c, 0, 64, 99
1, 120445, Control_c, 0, 64, 98
1, 120460, Control_c, 0, 64, 94
1, 120475, Control_c, 0, 64, 89
1, 120489, Control_c, 0, 64, 84
1, 120504, Control_c, 0, 64, 79
1, 120519, Control_c, 0, 64, 76
1, 120519, Control_c, 0, 67, 115
1, 120529, Note_off_c, 0, 49, 60
1, 120533, Note_on_c, 0, 51, 52
1, 120534, Control_c, 0, 64, 76
1, 120548, Control_c, 0, 64, 74
1, 120564, Control_c, 0, 64, 68
1, 120579, Control_c, 0, 64, 61
1, 120601, Control_c, 0, 64, 52
1, 120616, Control_c, 0, 64, 44
1, 120616, Control_c, 0, 67, 115
1, 120631, Control_c, 0, 64, 38
1, 120646, Control_c, 0, 64, 34
1, 120661, Control_c, 0, 64, 35
1, 120661, Control_c, 0, 67, 115
1, 120676, Note_off_c, 0, 51, 63
1, 120676, Control_c, 0, 64, 44
1, 120691, Control_c, 0, 64, 56
1, 120704, Note_on_c, 0, 53, 49
1, 120706, Control_c, 0, 64, 65
1, 120720, Control_c, 0, 64, 70
1, 120735, Control_c, 0, 64, 75
1, 120750, Control_c, 0, 64, 78
1, 120765, Control_c, 0, 64, 79
1, 120810, Control_c, 0, 64, 75
1, 120825, Control_c, 0, 64, 68
1, 120840, Control_c, 0, 64, 61
1, 120840, Control_c, 0, 67, 115
1, 120854, Control_c, 0, 64, 52
1, 120869, Control_c, 0, 64, 42
1, 120877, Note_off_c, 0, 53, 60
1, 120884, Control_c, 0, 64, 39
1, 120886, Note_on_c, 0, 54, 52
1, 120899, Control_c, 0, 64, 37
1, 120914, Control_c, 0, 64, 38
1, 120928, Control_c, 0, 64, 44
1, 120943, Control_c, 0, 64, 55
1, 120958, Control_c, 0, 64, 65
1, 120972, Control_c, 0, 64, 72
1, 120987, Control_c, 0, 64, 78
1, 121002, Control_c, 0, 64, 80
1, 121017, Control_c, 0, 64, 80
1, 121024, Note_off_c, 0, 54, 62
1, 121046, Control_c, 0, 64, 81
1, 121047, Note_on_c, 0, 56, 53
1, 121061, Control_c, 0, 64, 82
1, 121076, Control_c, 0, 64, 83
1, 121091, Control_c, 0, 64, 84
1, 121096, Note_off_c, 0, 73, 64
1, 121106, Control_c, 0, 64, 85
1, 121120, Control_c, 0, 64, 85
1, 121150, Control_c, 0, 64, 86
1, 121164, Control_c, 0, 67, 115
1, 121194, Control_c, 0, 64, 83
1, 121209, Control_c, 0, 64, 76
1, 121212, Note_on_c, 0, 73, 73
1, 121214, Note_off_c, 0, 56, 58
1, 121224, Control_c, 0, 64, 66
1, 121224, Control_c, 0, 67, 115
1, 121236, Note_on_c, 0, 58, 48
1, 121239, Control_c, 0, 64, 58
1, 121254, Control_c, 0, 64, 50
1, 121269, Control_c, 0, 64, 51
1, 121284, Control_c, 0, 64, 57
1, 121299, Control_c, 0, 64, 64
1, 121313, Control_c, 0, 64, 70
1, 121327, Note_off_c, 0, 77, 63
1, 121328, Control_c, 0, 64, 76
1, 121350, Control_c, 0, 64, 89
1, 121365, Control_c, 0, 64, 96
1, 121379, Control_c, 0, 64, 99
1, 121393, Note_off_c, 0, 58, 59
1, 121394, Control_c, 0, 64, 105
1, 121394, Control_c, 0, 67, 115
1, 121400, Note_on_c, 0, 56, 59
1, 121406, Note_off_c, 0, 65, 59
1, 121409, Control_c, 0, 64, 115
1, 121413, Note_off_c, 0, 73, 64
1, 121424, Control_c, 0, 64, 127
1, 121568, Note_off_c, 0, 56, 61
1, 121573, Control_c, 0, 64, 113
1, 121573, Control_c, 0, 67, 115
1, 121584, Note_on_c, 0, 73, 78
1, 121588, Control_c, 0, 64, 98
1, 121592, Note_on_c, 0, 54, 52
1, 121603, Control_c, 0, 64, 84
1, 121611, Note_on_c, 0, 68, 52
1, 121618, Control_c, 0, 64, 71
1, 121619, Note_on_c, 0, 65, 42
1, 121632, Control_c, 0, 64, 60
1, 121647, Control_c, 0, 64, 48
1, 121662, Control_c, 0, 64, 36
1, 121674, Note_off_c, 0, 65, 0
1, 121674, Note_on_c, 0, 65, 11
1, 121677, Control_c, 0, 64, 26
1, 121692, Control_c, 0, 64, 16
1, 121707, Control_c, 0, 64, 9
1, 121722, Control_c, 0, 64, 15
1, 121727, Note_off_c, 0, 54, 62
1, 121737, Control_c, 0, 64, 35
1, 121751, Control_c, 0, 64, 55
1, 121764, Note_on_c, 0, 53, 56
1, 121766, Control_c, 0, 64, 69
1, 121781, Control_c, 0, 64, 76
1, 121781, Control_c, 0, 67, 115
1, 121795, Control_c, 0, 64, 82
1, 121810, Control_c, 0, 64, 86
1, 121825, Control_c, 0, 64, 90
1, 121840, Control_c, 0, 64, 97
1, 121855, Control_c, 0, 64, 110
1, 121855, Control_c, 0, 67, 114
1, 121869, Control_c, 0, 64, 127
1, 121899, Control_c, 0, 67, 114
1, 121931, Note_off_c, 0, 53, 61
1, 121940, Note_on_c, 0, 51, 60
1, 122017, Control_c, 0, 67, 113
1, 122044, Note_off_c, 0, 73, 35
1, 122139, Note_off_c, 0, 51, 61
1, 122142, Note_on_c, 0, 73, 80
1, 122146, Note_on_c, 0, 49, 59
1, 122162, Note_off_c, 0, 65, 54
1, 122165, Note_off_c, 0, 68, 58
1, 122226, Note_off_c, 0, 49, 62
1, 122261, Note_off_c, 0, 73, 55
1, 122307, Control_c, 0, 67, 114
1, 122368, Note_on_c, 0, 78, 82
1, 122369, Note_on_c, 0, 44, 59
1, 122392, Note_on_c, 0, 66, 55
1, 122394, Note_on_c, 0, 75, 66
1, 122405, Note_on_c, 0, 72, 47
1, 122411, Control_c, 0, 64, 92
1, 122425, Control_c, 0, 64, 75
1, 122425, Control_c, 0, 67, 114
1, 122440, Control_c, 0, 64, 64
1, 122455, Control_c, 0, 64, 54
1, 122470, Control_c, 0, 64, 44
1, 122485, Control_c, 0, 64, 38
1, 122500, Control_c, 0, 64, 34
1, 122515, Control_c, 0, 64, 32
1, 122544, Control_c, 0, 64, 33
1, 122544, Control_c, 0, 67, 115
1, 122559, Control_c, 0, 64, 39
1, 122571, Note_on_c, 0, 31, 59
1, 122574, Control_c, 0, 64, 49
1, 122589, Control_c, 0, 64, 56
1, 122604, Control_c, 0, 64, 59
1, 122618, Control_c, 0, 64, 60
1, 122648, Control_c, 0, 64, 60
1, 122648, Control_c, 0, 67, 115
1, 122663, Control_c, 0, 64, 61
1, 122678, Control_c, 0, 64, 60
1, 122692, Control_c, 0, 64, 57
1, 122707, Control_c, 0, 64, 50
1, 122722, Control_c, 0, 64, 41
1, 122732, Note_off_c, 0, 31, 63
1, 122737, Control_c, 0, 64, 33
1, 122741, Note_on_c, 0, 32, 62
1, 122742, Note_off_c, 0, 66, 43
1, 122751, Control_c, 0, 64, 30
1, 122766, Control_c, 0, 64, 30
1, 122781, Control_c, 0, 64, 37
1, 122796, Control_c, 0, 64, 48
1, 122810, Control_c, 0, 64, 58
1, 122825, Control_c, 0, 64, 64
1, 122848, Control_c, 0, 64, 67
1, 122863, Control_c, 0, 64, 69
1, 122874, Note_off_c, 0, 72, 56
1, 122878, Control_c, 0, 64, 71
1, 122881, Note_off_c, 0, 75, 36
1, 122892, Control_c, 0, 64, 73
1, 122907, Control_c, 0, 64, 75
1, 122911, Note_off_c, 0, 32, 60
1, 122914, Note_on_c, 0, 31, 60
1, 122922, Control_c, 0, 64, 77
1, 122936, Control_c, 0, 64, 79
1, 122951, Control_c, 0, 64, 80
1, 122966, Control_c, 0, 64, 80
1, 123040, Control_c, 0, 67, 116
1, 123071, Control_c, 0, 64, 79
1, 123084, Note_off_c, 0, 44, 57
1, 123086, Control_c, 0, 64, 76
1, 123086, Control_c, 0, 67, 116
1, 123101, Control_c, 0, 64, 71
1, 123115, Control_c, 0, 64, 65
1, 123130, Control_c, 0, 64, 58
1, 123144, Note_on_c, 0, 32, 58
1, 123145, Control_c, 0, 64, 51
1, 123149, Note_off_c, 0, 31, 59
1, 123159, Note_on_c, 0, 75, 68
1, 123160, Control_c, 0, 64, 46
1, 123170, Note_on_c, 0, 72, 54
1, 123174, Control_c, 0, 64, 42
1, 123182, Note_on_c, 0, 66, 56
1, 123189, Control_c, 0, 64, 36
1, 123204, Control_c, 0, 64, 29
1, 123204, Control_c, 0, 67, 117
1, 123219, Control_c, 0, 64, 22
1, 123231, Note_off_c, 0, 78, 64
1, 123234, Control_c, 0, 64, 19
1, 123263, Control_c, 0, 67, 117
1, 123308, Control_c, 0, 64, 20
1, 123323, Control_c, 0, 64, 28
1, 123323, Control_c, 0, 67, 118
1, 123338, Control_c, 0, 64, 41
1, 123352, Note_on_c, 0, 34, 71
1, 123352, Control_c, 0, 64, 52
1, 123352, Control_c, 0, 67, 118
1, 123357, Note_off_c, 0, 32, 62
1, 123367, Control_c, 0, 64, 54
1, 123367, Control_c, 0, 67, 119
1, 123382, Control_c, 0, 64, 53
1, 123397, Control_c, 0, 64, 52
1, 123397, Control_c, 0, 67, 119
1, 123412, Control_c, 0, 64, 49
1, 123427, Control_c, 0, 64, 45
1, 123441, Control_c, 0, 64, 41
1, 123456, Control_c, 0, 64, 36
1, 123471, Control_c, 0, 64, 28
1, 123486, Control_c, 0, 64, 19
1, 123501, Control_c, 0, 64, 0
1, 123501, Control_c, 0, 67, 120
1, 123515, Note_off_c, 0, 34, 63
1, 123522, Note_on_c, 0, 36, 69
1, 123703, Note_off_c, 0, 36, 65
1, 123704, Note_on_c, 0, 37, 64
1, 123788, Control_c, 0, 64, 18
1, 123803, Control_c, 0, 64, 32
1, 123803, Control_c, 0, 67, 120
1, 123818, Control_c, 0, 64, 47
1, 123833, Control_c, 0, 64, 58
1, 123847, Control_c, 0, 64, 62
1, 123863, Control_c, 0, 64, 61
1, 123878, Control_c, 0, 64, 60
1, 123889, Note_on_c, 0, 39, 62
1, 123890, Note_off_c, 0, 37, 63
1, 123893, Control_c, 0, 64, 57
1, 123893, Control_c, 0, 67, 121
1, 123908, Control_c, 0, 64, 51
1, 123923, Control_c, 0, 64, 45
1, 123937, Control_c, 0, 64, 36
1, 123952, Control_c, 0, 64, 27
1, 123967, Control_c, 0, 64, 16
1, 123981, Control_c, 0, 64, 0
1, 124026, Control_c, 0, 67, 121
1, 124054, Note_off_c, 0, 39, 62
1, 124062, Note_on_c, 0, 41, 64
1, 124101, Control_c, 0, 64, 25
1, 124116, Control_c, 0, 64, 34
1, 124130, Control_c, 0, 64, 38
1, 124145, Control_c, 0, 64, 40
1, 124160, Control_c, 0, 64, 44
1, 124175, Control_c, 0, 64, 52
1, 124189, Control_c, 0, 64, 57
1, 124204, Control_c, 0, 64, 57
1, 124219, Control_c, 0, 64, 56
1, 124234, Control_c, 0, 64, 55
1, 124249, Control_c, 0, 64, 52
1, 124251, Note_on_c, 0, 42, 57
1, 124256, Note_off_c, 0, 41, 63
1, 124263, Control_c, 0, 64, 50
1, 124278, Control_c, 0, 64, 45
1, 124293, Control_c, 0, 64, 38
1, 124308, Control_c, 0, 64, 25
1, 124323, Control_c, 0, 64, 0
1, 124345, Control_c, 0, 67, 122
1, 124449, Control_c, 0, 67, 121
1, 124456, Note_off_c, 0, 42, 61
1, 124461, Note_on_c, 0, 44, 60
1, 124464, Control_c, 0, 64, 23
1, 124464, Control_c, 0, 67, 121
1, 124479, Control_c, 0, 64, 46
1, 124494, Control_c, 0, 64, 61
1, 124494, Control_c, 0, 67, 120
1, 124506, Note_off_c, 0, 66, 51
1, 124509, Control_c, 0, 64, 66
1, 124515, Note_off_c, 0, 72, 57
1, 124523, Control_c, 0, 64, 67
1, 124538, Control_c, 0, 64, 68
1, 124553, Control_c, 0, 64, 70
1, 124568, Control_c, 0, 64, 73
1, 124572, Note_off_c, 0, 75, 55
1, 124583, Control_c, 0, 64, 77
1, 124583, Control_c, 0, 67, 120
1, 124597, Control_c, 0, 64, 78
1, 124612, Control_c, 0, 64, 79
1, 124612, Control_c, 0, 67, 120
1, 124658, Control_c, 0, 67, 121
1, 124702, Control_c, 0, 64, 79
1, 124717, Control_c, 0, 64, 76
1, 124732, Control_c, 0, 64, 72
1, 124736, Note_on_c, 0, 37, 54
1, 124745, Note_off_c, 0, 44, 61
1, 124747, Control_c, 0, 64, 65
1, 124761, Control_c, 0, 64, 57
1, 124761, Control_c, 0, 67, 121
1, 124775, Note_on_c, 0, 77, 66
1, 124776, Control_c, 0, 64, 46
1, 124791, Control_c, 0, 64, 31
1, 124799, Note_on_c, 0, 65, 46
1, 124805, Note_on_c, 0, 72, 43
1, 124805, Control_c, 0, 64, 21
1, 124820, Control_c, 0, 64, 13
1, 124835, Control_c, 0, 64, 12
1, 124835, Control_c, 0, 67, 121
1, 124850, Control_c, 0, 64, 17
1, 124865, Control_c, 0, 64, 33
1, 124865, Control_c, 0, 67, 120
1, 124879, Control_c, 0, 64, 54
1, 124894, Control_c, 0, 64, 65
1, 124909, Control_c, 0, 64, 70
1, 124924, Control_c, 0, 64, 72
1, 124924, Control_c, 0, 67, 120
1, 124939, Control_c, 0, 64, 74
1, 124939, Control_c, 0, 67, 119
1, 124953, Control_c, 0, 64, 75
1, 124968, Control_c, 0, 64, 76
1, 124968, Control_c, 0, 67, 119
1, 124983, Control_c, 0, 64, 78
1, 124998, Control_c, 0, 64, 80
1, 124998, Control_c, 0, 67, 118
1, 125013, Control_c, 0, 64, 82
1, 125022, Note_off_c, 0, 37, 56
1, 125028, Control_c, 0, 64, 83
1, 125028, Control_c, 0, 67, 118
1, 125031, Note_on_c, 0, 45, 47
1, 125043, Control_c, 0, 64, 84
1, 125057, Control_c, 0, 64, 85
1, 125072, Control_c, 0, 64, 85
1, 125093, Control_c, 0, 64, 86
1, 125108, Control_c, 0, 64, 87
1, 125123, Control_c, 0, 64, 87
1, 125168, Control_c, 0, 64, 87
1, 125183, Control_c, 0, 64, 82
1, 125198, Control_c, 0, 64, 75
1, 125198, Control_c, 0, 67, 118
1, 125212, Control_c, 0, 64, 67
1, 125218, Note_on_c, 0, 46, 54
1, 125219, Note_off_c, 0, 45, 58
1, 125227, Control_c, 0, 64, 61
1, 125242, Control_c, 0, 64, 55
1, 125257, Control_c, 0, 64, 54
1, 125272, Control_c, 0, 64, 56
1, 125286, Control_c, 0, 64, 61
1, 125301, Control_c, 0, 64, 66
1, 125316, Control_c, 0, 64, 70
1, 125331, Control_c, 0, 64, 75
1, 125331, Control_c, 0, 67, 118
1, 125345, Control_c, 0, 64, 78
1, 125360, Control_c, 0, 64, 78
1, 125372, Note_off_c, 0, 46, 54
1, 125382, Note_on_c, 0, 45, 53
1, 125427, Note_off_c, 0, 65, 36
1, 125465, Control_c, 0, 67, 118
1, 125495, Control_c, 0, 64, 75
1, 125509, Control_c, 0, 64, 69
1, 125524, Control_c, 0, 64, 62
1, 125539, Control_c, 0, 64, 53
1, 125554, Control_c, 0, 64, 41
1, 125558, Note_off_c, 0, 45, 64
1, 125562, Note_on_c, 0, 70, 56
1, 125568, Note_on_c, 0, 65, 41
1, 125568, Control_c, 0, 64, 31
1, 125581, Note_on_c, 0, 46, 47
1, 125583, Control_c, 0, 64, 26
1, 125612, Note_off_c, 0, 72, 56
1, 125613, Control_c, 0, 64, 30
1, 125613, Control_c, 0, 67, 118
1, 125627, Control_c, 0, 64, 42
1, 125642, Control_c, 0, 64, 55
1, 125657, Control_c, 0, 64, 64
1, 125657, Control_c, 0, 67, 117
1, 125672, Control_c, 0, 64, 68
1, 125687, Control_c, 0, 64, 70
1, 125701, Control_c, 0, 64, 71
1, 125708, Note_off_c, 0, 46, 63
1, 125716, Control_c, 0, 64, 71
1, 125752, Note_on_c, 0, 48, 51
1, 125805, Control_c, 0, 64, 71
1, 125820, Control_c, 0, 64, 70
1, 125841, Control_c, 0, 64, 67
1, 125856, Control_c, 0, 64, 64
1, 125871, Control_c, 0, 64, 59
1, 125886, Control_c, 0, 64, 52
1, 125901, Control_c, 0, 64, 45
1, 125911, Note_on_c, 0, 73, 65
1, 125913, Note_off_c, 0, 48, 62
1, 125916, Control_c, 0, 64, 34
1, 125931, Control_c, 0, 64, 19
1, 125942, Note_on_c, 0, 49, 47
1, 125946, Control_c, 0, 64, 0
1, 125977, Note_off_c, 0, 77, 62
1, 125990, Control_c, 0, 64, 11
1, 125990, Control_c, 0, 67, 117
1, 126005, Control_c, 0, 64, 34
1, 126020, Control_c, 0, 64, 52
1, 126020, Control_c, 0, 67, 116
1, 126034, Control_c, 0, 64, 63
1, 126049, Control_c, 0, 64, 68
1, 126064, Control_c, 0, 64, 70
1, 126079, Control_c, 0, 64, 71
1, 126088, Note_off_c, 0, 49, 62
1, 126094, Control_c, 0, 64, 73
1, 126103, Note_on_c, 0, 51, 50
1, 126108, Control_c, 0, 64, 75
1, 126123, Control_c, 0, 64, 77
1, 126123, Control_c, 0, 67, 116
1, 126138, Control_c, 0, 64, 79
1, 126153, Control_c, 0, 64, 80
1, 126157, Note_off_c, 0, 73, 65
1, 126167, Control_c, 0, 64, 80
1, 126182, Control_c, 0, 67, 116
1, 126241, Control_c, 0, 64, 80
1, 126257, Control_c, 0, 64, 77
1, 126272, Control_c, 0, 64, 71
1, 126272, Control_c, 0, 67, 117
1, 126274, Note_off_c, 0, 51, 63
1, 126283, Note_on_c, 0, 73, 64
1, 126287, Control_c, 0, 64, 62
1, 126302, Control_c, 0, 64, 49
1, 126307, Note_on_c, 0, 53, 47
1, 126317, Control_c, 0, 64, 35
1, 126331, Control_c, 0, 64, 25
1, 126346, Control_c, 0, 64, 21
1, 126361, Control_c, 0, 64, 19
1, 126376, Control_c, 0, 64, 20
1, 126390, Control_c, 0, 64, 32
1, 126405, Control_c, 0, 64, 48
1, 126420, Control_c, 0, 64, 61
1, 126435, Control_c, 0, 64, 68
1, 126447, Note_off_c, 0, 53, 48
1, 126450, Control_c, 0, 64, 71
1, 126464, Control_c, 0, 64, 74
1, 126476, Note_on_c, 0, 49, 51
1, 126479, Control_c, 0, 64, 75
1, 126494, Control_c, 0, 64, 77
1, 126494, Control_c, 0, 67, 116
1, 126509, Control_c, 0, 64, 80
1, 126524, Control_c, 0, 64, 84
1, 126539, Control_c, 0, 64, 88
1, 126554, Control_c, 0, 64, 92
1, 126554, Control_c, 0, 67, 117
1, 126569, Control_c, 0, 64, 96
1, 126590, Control_c, 0, 64, 101
1, 126605, Control_c, 0, 64, 105
1, 126620, Control_c, 0, 64, 108
1, 126635, Control_c, 0, 64, 109
1, 126645, Note_off_c, 0, 49, 59
1, 126662, Note_on_c, 0, 48, 52
1, 126664, Control_c, 0, 64, 105
1, 126679, Control_c, 0, 64, 91
1, 126694, Control_c, 0, 64, 74
1, 126694, Control_c, 0, 67, 117
1, 126709, Control_c, 0, 64, 63
1, 126724, Control_c, 0, 64, 53
1, 126739, Control_c, 0, 64, 47
1, 126739, Control_c, 0, 67, 118
1, 126748, Note_off_c, 0, 73, 60
1, 126754, Control_c, 0, 64, 49
1, 126769, Control_c, 0, 64, 55
1, 126783, Control_c, 0, 64, 62
1, 126798, Control_c, 0, 64, 69
1, 126813, Control_c, 0, 64, 76
1, 126828, Control_c, 0, 64, 84
1, 126843, Control_c, 0, 64, 89
1, 126843, Control_c, 0, 67, 117
1, 126857, Control_c, 0, 64, 92
1, 126864, Note_on_c, 0, 73, 71
1, 126866, Note_off_c, 0, 48, 63
1, 126872, Control_c, 0, 64, 94
1, 126872, Control_c, 0, 67, 117
1, 126887, Note_on_c, 0, 46, 55
1, 126887, Control_c, 0, 64, 99
1, 126902, Control_c, 0, 64, 104
1, 126916, Control_c, 0, 64, 109
1, 126931, Control_c, 0, 64, 110
1, 126931, Control_c, 0, 67, 117
1, 126974, Note_off_c, 0, 70, 61
1, 126977, Note_off_c, 0, 65, 50
1, 126990, Control_c, 0, 67, 118
1, 127035, Control_c, 0, 64, 109
1, 127036, Note_off_c, 0, 46, 62
1, 127050, Control_c, 0, 64, 96
1, 127050, Control_c, 0, 67, 118
1, 127066, Control_c, 0, 64, 79
1, 127080, Control_c, 0, 64, 65
1, 127095, Note_off_c, 0, 73, 61
1, 127095, Control_c, 0, 64, 49
1, 127099, Note_on_c, 0, 75, 69
1, 127102, Note_on_c, 0, 48, 48
1, 127110, Control_c, 0, 64, 38
1, 127116, Note_on_c, 0, 70, 51
1, 127117, Note_on_c, 0, 65, 46
1, 127125, Control_c, 0, 64, 35
1, 127140, Control_c, 0, 64, 38
1, 127154, Control_c, 0, 64, 47
1, 127169, Control_c, 0, 64, 58
1, 127184, Control_c, 0, 64, 66
1, 127184, Control_c, 0, 67, 119
1, 127199, Control_c, 0, 64, 71
1, 127213, Control_c, 0, 64, 74
1, 127258, Control_c, 0, 64, 73
1, 127273, Control_c, 0, 64, 69
1, 127283, Note_on_c, 0, 36, 57
1, 127287, Control_c, 0, 64, 62
1, 127287, Control_c, 0, 67, 119
1, 127303, Control_c, 0, 64, 54
1, 127318, Control_c, 0, 64, 47
1, 127318, Control_c, 0, 67, 120
1, 127341, Control_c, 0, 64, 43
1, 127341, Control_c, 0, 67, 120
1, 127356, Control_c, 0, 64, 41
1, 127370, Control_c, 0, 64, 41
1, 127400, Control_c, 0, 64, 40
1, 127400, Control_c, 0, 67, 121
1, 127414, Control_c, 0, 64, 38
1, 127429, Control_c, 0, 64, 32
1, 127444, Control_c, 0, 64, 25
1, 127444, Control_c, 0, 67, 121
1, 127459, Control_c, 0, 64, 24
1, 127469, Note_on_c, 0, 37, 66
1, 127474, Control_c, 0, 64, 25
1, 127474, Control_c, 0, 67, 122
1, 127478, Note_off_c, 0, 36, 62
1, 127488, Control_c, 0, 64, 30
1, 127491, Note_off_c, 0, 48, 53
1, 127503, Control_c, 0, 64, 39
1, 127518, Control_c, 0, 64, 45
1, 127518, Control_c, 0, 67, 122
1, 127532, Control_c, 0, 64, 51
1, 127547, Control_c, 0, 64, 56
1, 127547, Control_c, 0, 67, 123
1, 127562, Control_c, 0, 64, 59
1, 127577, Control_c, 0, 64, 60
1, 127577, Control_c, 0, 67, 124
1, 127592, Control_c, 0, 64, 59
1, 127606, Control_c, 0, 67, 124
1, 127621, Control_c, 0, 64, 59
1, 127621, Control_c, 0, 67, 125
1, 127636, Control_c, 0, 64, 58
1, 127636, Control_c, 0, 67, 126
1, 127645, Note_on_c, 0, 39, 64
1, 127648, Note_off_c, 0, 37, 64
1, 127651, Control_c, 0, 64, 56
1, 127666, Control_c, 0, 64, 52
1, 127666, Control_c, 0, 67, 126
1, 127681, Control_c, 0, 64, 46
1, 127681, Control_c, 0, 67, 127
1, 127696, Control_c, 0, 64, 39
1, 127696, Control_c, 0, 67, 127
1, 127710, Control_c, 0, 64, 32
1, 127725, Control_c, 0, 64, 25
1, 127740, Control_c, 0, 64, 21
1, 127755, Control_c, 0, 64, 16
1, 127770, Control_c, 0, 64, 12
1, 127785, Control_c, 0, 64, 9
1, 127838, Note_on_c, 0, 72, 57
1, 127844, Note_off_c, 0, 39, 62
1, 127860, Control_c, 0, 64, 10
1, 127861, Note_on_c, 0, 41, 59
1, 127874, Control_c, 0, 64, 12
1, 127889, Control_c, 0, 64, 15
1, 127904, Control_c, 0, 64, 17
1, 127919, Control_c, 0, 64, 21
1, 127934, Control_c, 0, 64, 27
1, 127939, Note_off_c, 0, 75, 61
1, 127949, Control_c, 0, 64, 37
1, 127963, Control_c, 0, 64, 47
1, 127978, Control_c, 0, 64, 54
1, 127993, Control_c, 0, 64, 56
1, 128008, Control_c, 0, 64, 57
1, 128023, Control_c, 0, 64, 58
1, 128023, Note_off_c, 0, 41, 59
1, 128033, Note_on_c, 0, 42, 51
1, 128037, Control_c, 0, 64, 60
1, 128052, Control_c, 0, 64, 60
1, 128089, Control_c, 0, 64, 60
1, 128104, Control_c, 0, 64, 58
1, 128119, Control_c, 0, 64, 56
1, 128134, Control_c, 0, 64, 53
1, 128149, Control_c, 0, 64, 48
1, 128163, Control_c, 0, 64, 42
1, 128178, Control_c, 0, 64, 35
1, 128193, Control_c, 0, 64, 27
1, 128202, Note_off_c, 0, 42, 58
1, 128208, Control_c, 0, 64, 18
1, 128210, Note_on_c, 0, 41, 55
1, 128223, Control_c, 0, 64, 0
1, 128355, Control_c, 0, 64, 26
1, 128360, Note_off_c, 0, 41, 59
1, 128370, Control_c, 0, 64, 35
1, 128385, Control_c, 0, 64, 39
1, 128390, Note_on_c, 0, 40, 49
1, 128400, Control_c, 0, 64, 43
1, 128415, Control_c, 0, 64, 49
1, 128429, Control_c, 0, 64, 55
1, 128444, Control_c, 0, 64, 56
1, 128459, Control_c, 0, 64, 56
1, 128474, Control_c, 0, 64, 55
1, 128489, Control_c, 0, 64, 54
1, 128503, Control_c, 0, 64, 52
1, 128518, Control_c, 0, 64, 49
1, 128533, Control_c, 0, 64, 44
1, 128546, Note_off_c, 0, 40, 62
1, 128548, Control_c, 0, 64, 36
1, 128563, Control_c, 0, 64, 27
1, 128578, Control_c, 0, 64, 17
1, 128587, Note_on_c, 0, 69, 46
1, 128593, Control_c, 0, 64, 0
1, 128605, Note_on_c, 0, 41, 35
1, 128622, Note_off_c, 0, 70, 57
1, 128637, Control_c, 0, 64, 16
1, 128652, Control_c, 0, 64, 33
1, 128667, Control_c, 0, 64, 49
1, 128671, Note_off_c, 0, 41, 0
1, 128671, Note_on_c, 0, 41, 11
1, 128682, Control_c, 0, 64, 60
1, 128697, Control_c, 0, 64, 65
1, 128712, Control_c, 0, 64, 65
1, 128727, Control_c, 0, 64, 66
1, 128742, Control_c, 0, 64, 66
1, 128743, Note_off_c, 0, 65, 36
1, 128757, Control_c, 0, 64, 67
1, 128772, Control_c, 0, 64, 67
1, 128778, Note_on_c, 0, 29, 44
1, 128786, Control_c, 0, 64, 68
1, 128816, Note_off_c, 0, 41, 37
1, 128853, Control_c, 0, 64, 67
1, 128867, Control_c, 0, 64, 67
1, 128882, Control_c, 0, 64, 65
1, 128897, Control_c, 0, 64, 62
1, 128912, Control_c, 0, 64, 54
1, 128927, Control_c, 0, 64, 44
1, 128942, Control_c, 0, 64, 34
1, 128957, Control_c, 0, 64, 25
1, 128971, Control_c, 0, 64, 16
1, 128980, Note_off_c, 0, 29, 60
1, 128986, Control_c, 0, 64, 0
1, 128992, Note_on_c, 0, 65, 43
1, 129014, Note_on_c, 0, 31, 47
1, 129090, Control_c, 0, 64, 19
1, 129105, Control_c, 0, 64, 41
1, 129120, Control_c, 0, 64, 55
1, 129134, Control_c, 0, 64, 62
1, 129149, Control_c, 0, 64, 64
1, 129164, Control_c, 0, 64, 64
1, 129169, Note_off_c, 0, 31, 60
1, 129193, Control_c, 0, 64, 65
1, 129201, Note_on_c, 0, 33, 46
1, 129208, Control_c, 0, 64, 66
1, 129223, Control_c, 0, 64, 66
1, 129326, Control_c, 0, 64, 66
1, 129341, Control_c, 0, 64, 65
1, 129356, Control_c, 0, 64, 63
1, 129371, Control_c, 0, 64, 60
1, 129386, Control_c, 0, 64, 57
1, 129401, Control_c, 0, 64, 53
1, 129416, Control_c, 0, 64, 49
1, 129430, Control_c, 0, 64, 45
1, 129446, Control_c, 0, 64, 39
1, 129461, Control_c, 0, 64, 31
1, 129475, Control_c, 0, 64, 22
1, 129478, Note_off_c, 0, 33, 56
1, 129484, Note_on_c, 0, 73, 67
1, 129490, Control_c, 0, 64, 0
1, 129502, Note_on_c, 0, 34, 51
1, 129523, Note_off_c, 0, 72, 57
1, 129603, Poly_aftertouch_c, 0, 70, 127
1, 129605, Note_off_c, 0, 69, 51
1, 129645, Control_c, 0, 64, 26
1, 129660, Control_c, 0, 64, 48
1, 129675, Control_c, 0, 64, 61
1, 129690, Control_c, 0, 64, 65
1, 129705, Control_c, 0, 64, 66
1, 129720, Control_c, 0, 64, 68
1, 129724, Note_off_c, 0, 34, 63
1, 129734, Control_c, 0, 64, 70
1, 129749, Control_c, 0, 64, 73
1, 129762, Note_off_c, 0, 65, 36
1, 129764, Control_c, 0, 64, 77
1, 129764, Note_on_c, 0, 41, 50
1, 129779, Control_c, 0, 64, 79
1, 129794, Control_c, 0, 64, 80
1, 129808, Control_c, 0, 64, 81
1, 129823, Control_c, 0, 64, 82
1, 129838, Control_c, 0, 64, 82
1, 129969, Note_on_c, 0, 65, 50
1, 129969, Note_off_c, 0, 41, 52
1, 129976, Note_on_c, 0, 43, 44
1, 130015, Control_c, 0, 64, 80
1, 130030, Control_c, 0, 64, 74
1, 130045, Control_c, 0, 64, 67
1, 130060, Control_c, 0, 64, 61
1, 130074, Control_c, 0, 64, 57
1, 130074, Control_c, 0, 67, 125
1, 130089, Control_c, 0, 64, 59
1, 130089, Control_c, 0, 67, 123
1, 130104, Control_c, 0, 64, 62
1, 130104, Control_c, 0, 67, 121
1, 130119, Control_c, 0, 64, 67
1, 130119, Control_c, 0, 67, 121
1, 130134, Control_c, 0, 64, 71
1, 130134, Control_c, 0, 67, 120
1, 130148, Note_off_c, 0, 43, 46
1, 130149, Control_c, 0, 64, 76
1, 130149, Control_c, 0, 67, 119
1, 130153, Note_on_c, 0, 45, 55
1, 130164, Control_c, 0, 64, 79
1, 130164, Control_c, 0, 67, 119
1, 130179, Control_c, 0, 64, 80
1, 130179, Control_c, 0, 67, 118
1, 130194, Control_c, 0, 64, 81
1, 130194, Control_c, 0, 67, 117
1, 130208, Control_c, 0, 64, 82
1, 130208, Control_c, 0, 67, 118
1, 130223, Control_c, 0, 67, 118
1, 130238, Control_c, 0, 67, 120
1, 130253, Control_c, 0, 64, 80
1, 130253, Control_c, 0, 67, 121
1, 130268, Control_c, 0, 64, 74
1, 130268, Control_c, 0, 67, 123
1, 130283, Control_c, 0, 64, 66
1, 130283, Control_c, 0, 67, 124
1, 130298, Control_c, 0, 64, 58
1, 130298, Control_c, 0, 67, 125
1, 130313, Control_c, 0, 64, 46
1, 130313, Control_c, 0, 67, 126
1, 130333, Note_off_c, 0, 45, 64
1, 130335, Control_c, 0, 64, 37
1, 130335, Control_c, 0, 67, 126
1, 130347, Note_on_c, 0, 46, 58
1, 130349, Control_c, 0, 64, 31
1, 130364, Control_c, 0, 64, 30
1, 130364, Control_c, 0, 67, 127
1, 130379, Control_c, 0, 64, 32
1, 130394, Control_c, 0, 64, 42
1, 130409, Control_c, 0, 64, 56
1, 130423, Control_c, 0, 64, 67
1, 130423, Control_c, 0, 67, 126
1, 130438, Control_c, 0, 64, 73
1, 130453, Control_c, 0, 64, 77
1, 130468, Control_c, 0, 64, 79
1, 130483, Control_c, 0, 64, 79
1, 130483, Control_c, 0, 67, 126
1, 130498, Control_c, 0, 64, 80
1, 130505, Note_off_c, 0, 46, 64
1, 130513, Control_c, 0, 64, 81
1, 130513, Control_c, 0, 67, 125
1, 130527, Control_c, 0, 64, 82
1, 130542, Control_c, 0, 64, 83
1, 130549, Note_on_c, 0, 48, 46
1, 130557, Control_c, 0, 64, 85
1, 130557, Control_c, 0, 67, 125
1, 130572, Control_c, 0, 64, 85
1, 130587, Control_c, 0, 64, 86
1, 130596, Poly_aftertouch_c, 0, 70, 0
1, 130602, Control_c, 0, 64, 86
1, 130617, Control_c, 0, 64, 87
1, 130617, Control_c, 0, 67, 124
1, 130631, Control_c, 0, 64, 87
1, 130661, Control_c, 0, 67, 124
1, 130699, Note_off_c, 0, 48, 55
1, 130704, Note_on_c, 0, 70, 64
1, 130705, Control_c, 0, 64, 84
1, 130705, Control_c, 0, 67, 123
1, 130720, Control_c, 0, 64, 74
1, 130720, Control_c, 0, 67, 123
1, 130726, Note_on_c, 0, 49, 53
1, 130735, Control_c, 0, 64, 65
1, 130735, Control_c, 0, 67, 121
1, 130749, Control_c, 0, 64, 57
1, 130749, Control_c, 0, 67, 120
1, 130764, Control_c, 0, 64, 51
1, 130764, Control_c, 0, 67, 118
1, 130779, Control_c, 0, 67, 117
1, 130794, Control_c, 0, 64, 56
1, 130794, Control_c, 0, 67, 115
1, 130808, Note_off_c, 0, 73, 63
1, 130809, Control_c, 0, 64, 62
1, 130809, Control_c, 0, 67, 113
1, 130823, Control_c, 0, 64, 68
1, 130823, Control_c, 0, 67, 112
1, 130838, Control_c, 0, 64, 75
1, 130838, Control_c, 0, 67, 109
1, 130853, Control_c, 0, 64, 82
1, 130853, Control_c, 0, 67, 106
1, 130868, Control_c, 0, 64, 85
1, 130868, Control_c, 0, 67, 104
1, 130878, Note_off_c, 0, 49, 61
1, 130883, Control_c, 0, 64, 86
1, 130883, Control_c, 0, 67, 101
1, 130897, Control_c, 0, 64, 87
1, 130897, Control_c, 0, 67, 98
1, 130910, Note_on_c, 0, 51, 54
1, 130912, Control_c, 0, 64, 89
1, 130912, Control_c, 0, 67, 96
1, 130927, Control_c, 0, 64, 91
1, 130927, Control_c, 0, 67, 93
1, 130942, Control_c, 0, 64, 92
1, 130942, Control_c, 0, 67, 93
1, 130957, Control_c, 0, 64, 92
1, 130972, Control_c, 0, 67, 94
1, 130982, Note_off_c, 0, 70, 57
1, 130986, Control_c, 0, 67, 95
1, 131001, Control_c, 0, 67, 96
1, 131016, Control_c, 0, 67, 97
1, 131031, Control_c, 0, 67, 98
1, 131047, Control_c, 0, 64, 92
1, 131047, Control_c, 0, 67, 99
1, 131062, Control_c, 0, 64, 91
1, 131062, Control_c, 0, 67, 100
1, 131085, Control_c, 0, 64, 88
1, 131085, Control_c, 0, 67, 101
1, 131100, Control_c, 0, 64, 83
1, 131100, Control_c, 0, 67, 102
1, 131110, Note_off_c, 0, 51, 60
1, 131115, Control_c, 0, 64, 78
1, 131129, Note_on_c, 0, 70, 67
1, 131129, Control_c, 0, 64, 70
1, 131142, Note_on_c, 0, 53, 45
1, 131144, Control_c, 0, 64, 63
1, 131144, Control_c, 0, 67, 102
1, 131159, Control_c, 0, 64, 55
1, 131174, Control_c, 0, 64, 45
1, 131174, Control_c, 0, 67, 103
1, 131188, Control_c, 0, 64, 34
1, 131188, Control_c, 0, 67, 104
1, 131203, Control_c, 0, 64, 23
1, 131203, Control_c, 0, 67, 105
1, 131218, Control_c, 0, 64, 0
1, 131247, Control_c, 0, 67, 105
1, 131262, Control_c, 0, 64, 31
1, 131262, Control_c, 0, 67, 106
1, 131277, Control_c, 0, 64, 52
1, 131277, Control_c, 0, 67, 106
1, 131292, Control_c, 0, 64, 65
1, 131292, Control_c, 0, 67, 107
1, 131307, Control_c, 0, 64, 72
1, 131307, Control_c, 0, 67, 106
1, 131314, Note_off_c, 0, 53, 53
1, 131322, Control_c, 0, 64, 76
1, 131325, Note_on_c, 0, 49, 53
1, 131336, Control_c, 0, 64, 79
1, 131351, Control_c, 0, 64, 82
1, 131351, Control_c, 0, 67, 107
1, 131366, Control_c, 0, 64, 87
1, 131366, Control_c, 0, 67, 107
1, 131380, Control_c, 0, 64, 96
1, 131395, Control_c, 0, 64, 109
1, 131410, Control_c, 0, 64, 127
1, 131425, Control_c, 0, 67, 108
1, 131440, Control_c, 0, 67, 108
1, 131455, Control_c, 0, 64, 108
1, 131455, Control_c, 0, 67, 109
1, 131469, Control_c, 0, 64, 96
1, 131469, Control_c, 0, 67, 110
1, 131484, Control_c, 0, 64, 92
1, 131484, Control_c, 0, 67, 110
1, 131490, Note_off_c, 0, 49, 63
1, 131506, Note_on_c, 0, 48, 56
1, 131514, Control_c, 0, 64, 94
1, 131529, Control_c, 0, 64, 102
1, 131544, Control_c, 0, 64, 127
1, 131573, Control_c, 0, 67, 109
1, 131588, Control_c, 0, 67, 110
1, 131654, Note_off_c, 0, 70, 64
1, 131662, Control_c, 0, 64, 98
1, 131662, Control_c, 0, 67, 110
1, 131677, Control_c, 0, 64, 76
1, 131692, Control_c, 0, 64, 67
1, 131692, Control_c, 0, 67, 110
1, 131711, Note_on_c, 0, 70, 70
1, 131713, Note_off_c, 0, 48, 64
1, 131721, Control_c, 0, 64, 75
1, 131726, Note_on_c, 0, 46, 63
1, 131736, Control_c, 0, 64, 96
1, 131751, Control_c, 0, 64, 127
1, 131780, Control_c, 0, 67, 110
1, 131815, Note_off_c, 0, 46, 63
1, 131844, Note_off_c, 0, 65, 54
1, 131878, Control_c, 0, 67, 111
1, 131881, Note_off_c, 0, 70, 61
1, 131893, Control_c, 0, 67, 111
1, 131923, Control_c, 0, 67, 113
1, 131952, Control_c, 0, 67, 113
1, 131982, Control_c, 0, 67, 114
1, 131985, Note_on_c, 0, 75, 80
1, 131997, Control_c, 0, 67, 114
1, 132003, Note_on_c, 0, 41, 40
1, 132011, Control_c, 0, 64, 85
1, 132011, Control_c, 0, 67, 115
1, 132020, Note_on_c, 0, 65, 43
1, 132026, Control_c, 0, 64, 65
1, 132026, Control_c, 0, 67, 115
1, 132040, Note_on_c, 0, 70, 43
1, 132041, Control_c, 0, 64, 51
1, 132056, Control_c, 0, 64, 37
1, 132071, Control_c, 0, 64, 33
1, 132085, Control_c, 0, 64, 34
1, 132100, Control_c, 0, 64, 42
1, 132115, Control_c, 0, 64, 55
1, 132130, Control_c, 0, 64, 65
1, 132145, Control_c, 0, 64, 69
1, 132145, Control_c, 0, 67, 116
1, 132159, Control_c, 0, 64, 72
1, 132184, Note_on_c, 0, 29, 52
1, 132189, Control_c, 0, 64, 71
1, 132203, Control_c, 0, 64, 66
1, 132218, Control_c, 0, 64, 57
1, 132233, Control_c, 0, 64, 49
1, 132248, Control_c, 0, 64, 48
1, 132263, Control_c, 0, 64, 52
1, 132277, Control_c, 0, 64, 60
1, 132292, Control_c, 0, 64, 66
1, 132292, Control_c, 0, 67, 116
1, 132307, Control_c, 0, 64, 69
1, 132322, Control_c, 0, 64, 68
1, 132322, Control_c, 0, 67, 117
1, 132337, Control_c, 0, 64, 65
1, 132337, Control_c, 0, 67, 118
1, 132352, Control_c, 0, 64, 59
1, 132359, Note_off_c, 0, 29, 61
1, 132364, Note_on_c, 0, 31, 56
1, 132367, Control_c, 0, 64, 51
1, 132382, Control_c, 0, 64, 43
1, 132382, Control_c, 0, 67, 118
1, 132396, Control_c, 0, 64, 35
1, 132411, Control_c, 0, 64, 26
1, 132426, Control_c, 0, 64, 19
1, 132441, Control_c, 0, 64, 21
1, 132456, Control_c, 0, 64, 33
1, 132470, Control_c, 0, 64, 49
1, 132485, Control_c, 0, 64, 61
1, 132500, Control_c, 0, 64, 67
1, 132515, Control_c, 0, 64, 68
1, 132523, Note_on_c, 0, 33, 67
1, 132529, Control_c, 0, 64, 70
1, 132535, Note_off_c, 0, 31, 61
1, 132544, Note_off_c, 0, 41, 56
1, 132544, Control_c, 0, 64, 71
1, 132544, Control_c, 0, 67, 119
1, 132559, Control_c, 0, 64, 72
1, 132581, Control_c, 0, 64, 74
1, 132581, Control_c, 0, 67, 119
1, 132596, Control_c, 0, 64, 75
1, 132611, Control_c, 0, 64, 75
1, 132611, Control_c, 0, 67, 120
1, 132626, Control_c, 0, 64, 76
1, 132626, Control_c, 0, 67, 120
1, 132641, Control_c, 0, 67, 121
1, 132656, Control_c, 0, 64, 74
1, 132671, Control_c, 0, 64, 68
1, 132671, Control_c, 0, 67, 122
1, 132686, Control_c, 0, 64, 60
1, 132701, Control_c, 0, 64, 46
1, 132701, Control_c, 0, 67, 122
1, 132715, Control_c, 0, 64, 28
1, 132715, Control_c, 0, 67, 123
1, 132729, Note_off_c, 0, 33, 63
1, 132730, Control_c, 0, 64, 13
1, 132731, Note_on_c, 0, 72, 74
1, 132742, Note_on_c, 0, 34, 61
1, 132745, Control_c, 0, 64, 0
1, 132775, Control_c, 0, 64, 13
1, 132790, Control_c, 0, 64, 36
1, 132803, Note_off_c, 0, 75, 64
1, 132805, Control_c, 0, 64, 56
1, 132820, Control_c, 0, 64, 67
1, 132834, Control_c, 0, 64, 72
1, 132849, Control_c, 0, 64, 73
1, 132879, Control_c, 0, 64, 72
1, 132894, Control_c, 0, 64, 66
1, 132900, Note_off_c, 0, 34, 62
1, 132908, Control_c, 0, 64, 57
1, 132909, Note_on_c, 0, 36, 63
1, 132923, Control_c, 0, 64, 43
1, 132938, Control_c, 0, 64, 40
1, 132952, Control_c, 0, 64, 46
1, 132967, Control_c, 0, 64, 58
1, 132982, Control_c, 0, 64, 67
1, 132997, Control_c, 0, 64, 74
1, 133012, Control_c, 0, 64, 78
1, 133026, Control_c, 0, 64, 79
1, 133026, Control_c, 0, 67, 123
1, 133056, Control_c, 0, 64, 76
1, 133063, Note_off_c, 0, 36, 64
1, 133071, Control_c, 0, 64, 67
1, 133073, Note_on_c, 0, 37, 67
1, 133086, Control_c, 0, 64, 57
1, 133100, Control_c, 0, 64, 44
1, 133115, Control_c, 0, 64, 34
1, 133130, Control_c, 0, 64, 28
1, 133145, Control_c, 0, 64, 27
1, 133160, Control_c, 0, 64, 32
1, 133174, Control_c, 0, 64, 47
1, 133189, Control_c, 0, 64, 61
1, 133204, Control_c, 0, 64, 68
1, 133219, Control_c, 0, 64, 72
1, 133234, Control_c, 0, 64, 74
1, 133249, Note_off_c, 0, 37, 63
1, 133249, Control_c, 0, 64, 74
1, 133261, Note_on_c, 0, 39, 66
1, 133264, Control_c, 0, 64, 75
1, 133279, Control_c, 0, 64, 75
1, 133359, Control_c, 0, 64, 75
1, 133374, Control_c, 0, 64, 73
1, 133389, Control_c, 0, 64, 69
1, 133404, Control_c, 0, 64, 64
1, 133419, Control_c, 0, 64, 56
1, 133419, Control_c, 0, 67, 124
1, 133434, Control_c, 0, 64, 44
1, 133437, Note_off_c, 0, 39, 62
1, 133449, Control_c, 0, 64, 30
1, 133459, Note_on_c, 0, 69, 54
1, 133464, Control_c, 0, 64, 0
1, 133467, Note_on_c, 0, 41, 57
1, 133484, Note_off_c, 0, 70, 59
1, 133568, Control_c, 0, 64, 31
1, 133583, Control_c, 0, 64, 53
1, 133598, Control_c, 0, 64, 64
1, 133613, Control_c, 0, 64, 68
1, 133613, Control_c, 0, 67, 123
1, 133628, Control_c, 0, 64, 70
1, 133638, Note_off_c, 0, 41, 60
1, 133641, Note_on_c, 0, 39, 60
1, 133642, Control_c, 0, 64, 71
1, 133642, Control_c, 0, 67, 123
1, 133657, Control_c, 0, 64, 72
1, 133672, Control_c, 0, 64, 74
1, 133672, Control_c, 0, 67, 122
1, 133687, Control_c, 0, 64, 76
1, 133687, Control_c, 0, 67, 122
1, 133702, Control_c, 0, 64, 78
1, 133712, Note_off_c, 0, 65, 42
1, 133717, Control_c, 0, 64, 79
1, 133731, Control_c, 0, 64, 80
1, 133746, Control_c, 0, 64, 81
1, 133775, Control_c, 0, 64, 80
1, 133790, Control_c, 0, 64, 74
1, 133805, Control_c, 0, 64, 65
1, 133809, Note_on_c, 0, 65, 63
1, 133820, Control_c, 0, 64, 54
1, 133830, Note_on_c, 0, 37, 54
1, 133835, Control_c, 0, 64, 35
1, 133841, Note_off_c, 0, 39, 60
1, 133849, Control_c, 0, 64, 13
1, 133864, Control_c, 0, 64, 0
1, 133864, Control_c, 0, 67, 121
1, 133923, Control_c, 0, 64, 13
1, 133923, Control_c, 0, 67, 121
1, 133938, Control_c, 0, 64, 47
1, 133938, Control_c, 0, 67, 120
1, 133953, Control_c, 0, 64, 63
1, 133953, Control_c, 0, 67, 119
1, 133967, Control_c, 0, 64, 69
1, 133967, Control_c, 0, 67, 119
1, 133982, Control_c, 0, 64, 71
1, 133993, Note_off_c, 0, 37, 56
1, 133996, Note_on_c, 0, 36, 62
1, 133997, Control_c, 0, 64, 73
1, 134012, Control_c, 0, 64, 74
1, 134027, Control_c, 0, 64, 75
1, 134041, Control_c, 0, 64, 76
1, 134056, Control_c, 0, 64, 77
1, 134056, Control_c, 0, 67, 118
1, 134078, Control_c, 0, 64, 78
1, 134093, Control_c, 0, 67, 119
1, 134108, Control_c, 0, 64, 79
1, 134152, Control_c, 0, 67, 119
1, 134182, Control_c, 0, 67, 120
1, 134197, Control_c, 0, 64, 78
1, 134227, Control_c, 0, 64, 77
1, 134227, Control_c, 0, 67, 120
1, 134239, Note_off_c, 0, 36, 62
1, 134242, Control_c, 0, 64, 72
1, 134257, Control_c, 0, 64, 66
1, 134261, Note_on_c, 0, 34, 63
1, 134271, Control_c, 0, 64, 57
1, 134271, Control_c, 0, 67, 121
1, 134277, Note_on_c, 0, 73, 77
1, 134286, Control_c, 0, 64, 40
1, 134301, Control_c, 0, 64, 0
1, 134324, Note_off_c, 0, 72, 57
1, 134345, Note_on_c, 0, 70, 35
1, 134364, Note_off_c, 0, 69, 50
1, 134376, Control_c, 0, 67, 121
1, 134420, Control_c, 0, 64, 37
1, 134420, Control_c, 0, 67, 121
1, 134435, Control_c, 0, 64, 60
1, 134450, Control_c, 0, 64, 67
1, 134465, Control_c, 0, 64, 70
1, 134479, Control_c, 0, 64, 71
1, 134494, Control_c, 0, 64, 73
1, 134494, Control_c, 0, 67, 120
1, 134498, Note_off_c, 0, 34, 63
1, 134509, Control_c, 0, 64, 75
1, 134517, Note_on_c, 0, 45, 51
1, 134524, Control_c, 0, 64, 77
1, 134536, Note_off_c, 0, 65, 49
1, 134539, Control_c, 0, 64, 79
1, 134539, Control_c, 0, 67, 120
1, 134553, Control_c, 0, 64, 81
1, 134568, Control_c, 0, 64, 81
1, 134597, Control_c, 0, 64, 82
1, 134612, Control_c, 0, 64, 83
1, 134627, Control_c, 0, 64, 85
1, 134627, Control_c, 0, 67, 119
1, 134642, Control_c, 0, 64, 88
1, 134657, Control_c, 0, 64, 90
1, 134671, Control_c, 0, 64, 91
1, 134672, Note_off_c, 0, 45, 60
1, 134686, Control_c, 0, 64, 92
1, 134686, Control_c, 0, 67, 119
1, 134687, Note_on_c, 0, 65, 57
1, 134701, Control_c, 0, 64, 93
1, 134702, Note_on_c, 0, 46, 61
1, 134716, Control_c, 0, 64, 94
1, 134731, Control_c, 0, 64, 96
1, 134745, Control_c, 0, 64, 98
1, 134760, Control_c, 0, 64, 100
1, 134775, Control_c, 0, 64, 101
1, 134856, Note_off_c, 0, 46, 62
1, 134876, Note_on_c, 0, 48, 68
1, 134917, Control_c, 0, 64, 102
1, 134931, Control_c, 0, 64, 103
1, 134931, Control_c, 0, 67, 119
1, 134946, Control_c, 0, 64, 106
1, 134946, Control_c, 0, 67, 120
1, 134961, Control_c, 0, 64, 109
1, 134961, Control_c, 0, 67, 120
1, 134976, Control_c, 0, 64, 108
1, 134976, Control_c, 0, 67, 121
1, 134991, Control_c, 0, 64, 101
1, 134991, Control_c, 0, 67, 122
1, 135005, Control_c, 0, 64, 82
1, 135020, Control_c, 0, 64, 67
1, 135020, Control_c, 0, 67, 122
1, 135035, Control_c, 0, 64, 53
1, 135035, Control_c, 0, 67, 123
1, 135047, Note_on_c, 0, 49, 65
1, 135048, Note_off_c, 0, 48, 62
1, 135051, Control_c, 0, 64, 45
1, 135051, Control_c, 0, 67, 123
1, 135066, Control_c, 0, 64, 46
1, 135081, Control_c, 0, 64, 53
1, 135095, Control_c, 0, 64, 62
1, 135110, Control_c, 0, 64, 70
1, 135125, Control_c, 0, 64, 78
1, 135140, Control_c, 0, 64, 89
1, 135155, Control_c, 0, 64, 92
1, 135169, Control_c, 0, 64, 93
1, 135184, Control_c, 0, 64, 96
1, 135184, Control_c, 0, 67, 123
1, 135199, Control_c, 0, 64, 99
1, 135214, Control_c, 0, 64, 103
1, 135216, Note_off_c, 0, 49, 64
1, 135228, Control_c, 0, 64, 103
1, 135229, Note_on_c, 0, 51, 68
1, 135243, Control_c, 0, 67, 123
1, 135279, Note_off_c, 0, 70, 50
1, 135288, Control_c, 0, 64, 103
1, 135303, Control_c, 0, 64, 100
1, 135318, Control_c, 0, 64, 89
1, 135333, Control_c, 0, 64, 74
1, 135347, Control_c, 0, 64, 63
1, 135362, Control_c, 0, 64, 49
1, 135377, Control_c, 0, 64, 31
1, 135383, Note_on_c, 0, 70, 69
1, 135392, Control_c, 0, 64, 17
1, 135399, Note_off_c, 0, 51, 63
1, 135407, Control_c, 0, 64, 15
1, 135407, Control_c, 0, 67, 123
1, 135421, Note_on_c, 0, 53, 49
1, 135421, Control_c, 0, 64, 18
1, 135436, Control_c, 0, 64, 39
1, 135451, Control_c, 0, 64, 56
1, 135466, Control_c, 0, 64, 67
1, 135466, Control_c, 0, 67, 122
1, 135472, Note_off_c, 0, 73, 60
1, 135481, Control_c, 0, 64, 73
1, 135481, Control_c, 0, 67, 122
1, 135495, Control_c, 0, 64, 77
1, 135495, Control_c, 0, 67, 121
1, 135510, Control_c, 0, 64, 79
1, 135525, Control_c, 0, 64, 81
1, 135539, Control_c, 0, 64, 83
1, 135539, Control_c, 0, 67, 121
1, 135554, Note_off_c, 0, 53, 55
1, 135554, Control_c, 0, 64, 85
1, 135577, Control_c, 0, 64, 87
1, 135577, Control_c, 0, 67, 120
1, 135586, Note_on_c, 0, 51, 55
1, 135592, Control_c, 0, 64, 88
1, 135594, Note_off_c, 0, 70, 63
1, 135607, Control_c, 0, 64, 89
1, 135636, Control_c, 0, 67, 121
1, 135681, Control_c, 0, 67, 121
1, 135710, Control_c, 0, 67, 122
1, 135740, Control_c, 0, 67, 123
1, 135754, Control_c, 0, 67, 123
1, 135769, Control_c, 0, 64, 89
1, 135769, Control_c, 0, 67, 124
1, 135784, Control_c, 0, 64, 86
1, 135784, Control_c, 0, 67, 124
1, 135789, Note_off_c, 0, 51, 56
1, 135799, Control_c, 0, 64, 82
1, 135805, Note_on_c, 0, 49, 55
1, 135807, Note_on_c, 0, 70, 66
1, 135814, Control_c, 0, 64, 74
1, 135814, Control_c, 0, 67, 125
1, 135828, Control_c, 0, 64, 65
1, 135828, Control_c, 0, 67, 125
1, 135844, Control_c, 0, 64, 51
1, 135844, Control_c, 0, 67, 126
1, 135859, Control_c, 0, 64, 31
1, 135859, Control_c, 0, 67, 127
1, 135874, Control_c, 0, 64, 0
1, 135874, Control_c, 0, 67, 127
1, 135933, Control_c, 0, 64, 22
1, 135948, Control_c, 0, 64, 50
1, 135962, Control_c, 0, 64, 63
1, 135967, Note_off_c, 0, 49, 60
1, 135977, Control_c, 0, 64, 69
1, 135992, Control_c, 0, 64, 72
1, 135999, Note_on_c, 0, 48, 49
1, 136007, Control_c, 0, 64, 74
1, 136022, Control_c, 0, 64, 76
1, 136036, Control_c, 0, 64, 79
1, 136051, Control_c, 0, 64, 82
1, 136066, Control_c, 0, 64, 85
1, 136081, Control_c, 0, 64, 88
1, 136096, Control_c, 0, 64, 92
1, 136111, Control_c, 0, 64, 95
1, 136126, Control_c, 0, 64, 99
1, 136140, Control_c, 0, 64, 101
1, 136170, Control_c, 0, 64, 97
1, 136177, Note_off_c, 0, 48, 55
1, 136185, Control_c, 0, 64, 82
1, 136200, Note_on_c, 0, 46, 55
1, 136200, Control_c, 0, 64, 68
1, 136215, Control_c, 0, 64, 59
1, 136230, Control_c, 0, 64, 57
1, 136244, Control_c, 0, 64, 62
1, 136259, Control_c, 0, 64, 69
1, 136274, Control_c, 0, 64, 78
1, 136287, Control_c, 0, 64, 90
1, 136302, Control_c, 0, 64, 96
1, 136319, Note_off_c, 0, 70, 63
1, 136324, Control_c, 0, 64, 97
1, 136339, Control_c, 0, 64, 98
1, 136354, Control_c, 0, 64, 98
1, 136368, Control_c, 0, 64, 99
1, 136429, Note_on_c, 0, 70, 69
1, 136438, Note_off_c, 0, 46, 58
1, 136453, Note_on_c, 0, 44, 51
1, 136469, Note_off_c, 0, 65, 62
1, 136531, Control_c, 0, 64, 98
1, 136549, Note_off_c, 0, 70, 55
1, 136635, Control_c, 0, 64, 98
1, 136651, Control_c, 0, 64, 95
1, 136659, Note_off_c, 0, 44, 34
1, 136665, Control_c, 0, 64, 91
1, 136680, Control_c, 0, 64, 84
1, 136692, Note_on_c, 0, 73, 72
1, 136695, Control_c, 0, 64, 75
1, 136706, Note_on_c, 0, 43, 48
1, 136710, Control_c, 0, 64, 66
1, 136725, Control_c, 0, 64, 56
1, 136730, Note_on_c, 0, 70, 24
1, 136735, Note_on_c, 0, 63, 33
1, 136740, Control_c, 0, 64, 41
1, 136755, Control_c, 0, 64, 22
1, 136769, Control_c, 0, 64, 0
1, 136802, Note_off_c, 0, 70, 0
1, 136802, Note_on_c, 0, 70, 3
1, 136863, Note_off_c, 0, 43, 55
1, 136873, Control_c, 0, 64, 28
1, 136888, Control_c, 0, 64, 50
1, 136898, Note_on_c, 0, 38, 36
1, 136903, Control_c, 0, 64, 60
1, 136918, Control_c, 0, 64, 64
1, 136932, Control_c, 0, 64, 65
1, 136947, Control_c, 0, 64, 67
1, 136962, Control_c, 0, 64, 69
1, 136977, Control_c, 0, 64, 72
1, 136991, Control_c, 0, 64, 75
1, 137006, Control_c, 0, 64, 78
1, 137021, Control_c, 0, 64, 79
1, 137036, Control_c, 0, 64, 81
1, 137051, Control_c, 0, 64, 81
1, 137073, Control_c, 0, 64, 82
1, 137082, Note_on_c, 0, 39, 53
1, 137084, Note_off_c, 0, 38, 39
1, 137088, Control_c, 0, 64, 83
1, 137088, Control_c, 0, 67, 126
1, 137103, Control_c, 0, 64, 84
1, 137103, Control_c, 0, 67, 123
1, 137117, Control_c, 0, 64, 85
1, 137117, Control_c, 0, 67, 120
1, 137132, Control_c, 0, 64, 86
1, 137132, Control_c, 0, 67, 118
1, 137147, Control_c, 0, 64, 87
1, 137147, Control_c, 0, 67, 115
1, 137162, Control_c, 0, 64, 87
1, 137162, Control_c, 0, 67, 111
1, 137177, Control_c, 0, 64, 88
1, 137177, Control_c, 0, 67, 107
1, 137191, Control_c, 0, 64, 88
1, 137191, Control_c, 0, 67, 102
1, 137206, Control_c, 0, 64, 89
1, 137206, Control_c, 0, 67, 96
1, 137221, Control_c, 0, 67, 91
1, 137236, Control_c, 0, 67, 88
1, 137237, Note_off_c, 0, 39, 51
1, 137251, Control_c, 0, 67, 87
1, 137265, Control_c, 0, 67, 88
1, 137278, Note_off_c, 0, 70, 42
1, 137280, Control_c, 0, 67, 93
1, 137291, Note_on_c, 0, 41, 47
1, 137295, Control_c, 0, 67, 99
1, 137310, Control_c, 0, 67, 105
1, 137324, Control_c, 0, 67, 115
1, 137339, Control_c, 0, 67, 124
1, 137354, Control_c, 0, 67, 127
1, 137369, Control_c, 0, 64, 88
1, 137369, Control_c, 0, 67, 127
1, 137417, Note_off_c, 0, 41, 47
1, 137474, Control_c, 0, 64, 83
1, 137488, Control_c, 0, 64, 71
1, 137503, Note_on_c, 0, 70, 59
1, 137503, Control_c, 0, 64, 59
1, 137518, Note_off_c, 0, 73, 57
1, 137518, Control_c, 0, 64, 42
1, 137530, Note_on_c, 0, 43, 43
1, 137533, Control_c, 0, 64, 23
1, 137548, Control_c, 0, 64, 20
1, 137562, Control_c, 0, 64, 29
1, 137577, Control_c, 0, 64, 44
1, 137592, Control_c, 0, 64, 58
1, 137607, Control_c, 0, 64, 65
1, 137622, Control_c, 0, 64, 68
1, 137637, Control_c, 0, 64, 71
1, 137646, Note_off_c, 0, 70, 60
1, 137652, Control_c, 0, 64, 72
1, 137667, Control_c, 0, 64, 74
1, 137676, Note_on_c, 0, 72, 51
1, 137682, Control_c, 0, 64, 76
1, 137693, Note_off_c, 0, 43, 44
1, 137696, Control_c, 0, 64, 78
1, 137711, Control_c, 0, 64, 79
1, 137722, Note_off_c, 0, 72, 57
1, 137726, Control_c, 0, 64, 79
1, 137727, Note_on_c, 0, 44, 37
1, 137755, Control_c, 0, 64, 80
1, 137785, Control_c, 0, 64, 81
1, 137789, Note_on_c, 0, 70, 23
1, 137797, Note_off_c, 0, 63, 35
1, 137800, Control_c, 0, 64, 82
1, 137822, Control_c, 0, 64, 83
1, 137835, Note_on_c, 0, 72, 48
1, 137835, Note_off_c, 0, 70, 53
1, 137837, Control_c, 0, 64, 84
1, 137852, Control_c, 0, 64, 84
1, 137857, Note_off_c, 0, 72, 59
1, 137869, Note_off_c, 0, 44, 37
1, 137881, Control_c, 0, 64, 85
1, 137890, Note_on_c, 0, 70, 41
1, 137896, Control_c, 0, 64, 85
1, 137910, Note_on_c, 0, 46, 40
1, 137911, Control_c, 0, 64, 86
1, 137924, Note_off_c, 0, 70, 52
1, 137926, Control_c, 0, 64, 86
1, 137937, Note_on_c, 0, 72, 61
1, 137968, Note_off_c, 0, 72, 62
1, 137985, Control_c, 0, 64, 87
1, 138001, Note_on_c, 0, 70, 57
1, 138027, Note_off_c, 0, 70, 58
1, 138047, Note_on_c, 0, 72, 59
1, 138066, Note_off_c, 0, 46, 41
1, 138078, Note_off_c, 0, 72, 63
1, 138078, Note_on_c, 0, 44, 51
1, 138117, Note_on_c, 0, 70, 48
1, 138118, Control_c, 0, 64, 87
1, 138135, Note_off_c, 0, 70, 63
1, 138149, Note_on_c, 0, 72, 61
1, 138180, Note_off_c, 0, 72, 63
1, 138202, Note_off_c, 0, 44, 54
1, 138211, Note_on_c, 0, 70, 59
1, 138230, Note_off_c, 0, 70, 63
1, 138252, Control_c, 0, 64, 88
1, 138265, Note_on_c, 0, 72, 54
1, 138267, Control_c, 0, 64, 88
1, 138284, Note_off_c, 0, 72, 61
1, 138293, Note_on_c, 0, 43, 33
1, 138297, Control_c, 0, 64, 89
1, 138307, Note_on_c, 0, 70, 58
1, 138326, Control_c, 0, 64, 88
1, 138331, Note_off_c, 0, 70, 61
1, 138341, Control_c, 0, 64, 79
1, 138356, Control_c, 0, 64, 66
1, 138361, Note_on_c, 0, 72, 58
1, 138370, Control_c, 0, 64, 56
1, 138385, Control_c, 0, 64, 50
1, 138386, Note_off_c, 0, 72, 55
1, 138400, Control_c, 0, 64, 51
1, 138415, Control_c, 0, 64, 56
1, 138421, Note_on_c, 0, 70, 46
1, 138430, Control_c, 0, 64, 61
1, 138445, Control_c, 0, 64, 65
1, 138449, Note_off_c, 0, 70, 56
1, 138460, Control_c, 0, 64, 70
1, 138475, Control_c, 0, 64, 73
1, 138482, Note_off_c, 0, 43, 41
1, 138486, Note_on_c, 0, 72, 44
1, 138489, Control_c, 0, 64, 77
1, 138504, Control_c, 0, 64, 79
1, 138510, Note_off_c, 0, 72, 52
1, 138516, Note_on_c, 0, 41, 40
1, 138519, Control_c, 0, 64, 81
1, 138534, Control_c, 0, 64, 82
1, 138549, Control_c, 0, 64, 84
1, 138562, Note_on_c, 0, 70, 26
1, 138571, Control_c, 0, 64, 85
1, 138586, Control_c, 0, 64, 86
1, 138593, Note_off_c, 0, 70, 53
1, 138601, Control_c, 0, 64, 86
1, 138603, Note_on_c, 0, 72, 46
1, 138626, Note_off_c, 0, 72, 55
1, 138631, Control_c, 0, 64, 87
1, 138645, Control_c, 0, 64, 87
1, 138659, Note_on_c, 0, 70, 20
1, 138660, Control_c, 0, 64, 88
1, 138675, Control_c, 0, 64, 89
1, 138711, Note_on_c, 0, 72, 50
1, 138716, Note_off_c, 0, 41, 38
1, 138731, Note_off_c, 0, 70, 0
1, 138734, Note_off_c, 0, 72, 58
1, 138743, Note_on_c, 0, 70, 48
1, 138764, Control_c, 0, 64, 90
1, 138808, Note_on_c, 0, 39, 44
1, 138808, Control_c, 0, 64, 88
1, 138823, Control_c, 0, 64, 80
1, 138838, Control_c, 0, 64, 68
1, 138853, Control_c, 0, 64, 57
1, 138859, Note_off_c, 0, 70, 35
1, 138868, Control_c, 0, 64, 43
1, 138874, Note_on_c, 0, 71, 51
1, 138883, Control_c, 0, 64, 40
1, 138898, Control_c, 0, 64, 43
1, 138912, Control_c, 0, 64, 51
1, 138927, Control_c, 0, 64, 60
1, 138942, Control_c, 0, 64, 67
1, 138957, Control_c, 0, 64, 74
1, 138958, Note_off_c, 0, 39, 53
1, 138958, Note_off_c, 0, 71, 59
1, 138971, Control_c, 0, 64, 81
1, 138984, Note_on_c, 0, 72, 35
1, 138986, Control_c, 0, 64, 87
1, 139001, Control_c, 0, 64, 89
1, 139003, Note_on_c, 0, 37, 44
1, 139016, Control_c, 0, 64, 92
1, 139021, Note_off_c, 0, 72, 50
1, 139031, Control_c, 0, 64, 97
1, 139047, Control_c, 0, 64, 103
1, 139061, Control_c, 0, 64, 111
1, 139062, Note_on_c, 0, 71, 41
1, 139076, Control_c, 0, 64, 119
1, 139087, Note_off_c, 0, 71, 54
1, 139091, Control_c, 0, 64, 127
1, 139106, Note_off_c, 0, 37, 55
1, 139112, Note_on_c, 0, 72, 62
1, 139144, Note_off_c, 0, 72, 63
1, 139160, Note_on_c, 0, 36, 44
1, 139163, Note_on_c, 0, 71, 63
1, 139192, Note_off_c, 0, 71, 66
1, 139220, Note_on_c, 0, 72, 61
1, 139252, Note_off_c, 0, 72, 63
1, 139263, Note_on_c, 0, 71, 65
1, 139283, Control_c, 0, 67, 125
1, 139293, Note_off_c, 0, 71, 65
1, 139298, Control_c, 0, 67, 120
1, 139321, Control_c, 0, 67, 116
1, 139328, Note_on_c, 0, 72, 66
1, 139336, Control_c, 0, 67, 111
1, 139350, Control_c, 0, 67, 106
1, 139365, Control_c, 0, 67, 99
1, 139367, Note_off_c, 0, 72, 60
1, 139380, Control_c, 0, 67, 91
1, 139386, Note_on_c, 0, 71, 53
1, 139394, Control_c, 0, 67, 81
1, 139399, Note_off_c, 0, 36, 45
1, 139409, Control_c, 0, 67, 67
1, 139411, Note_off_c, 0, 71, 62
1, 139424, Control_c, 0, 67, 47
1, 139425, Note_on_c, 0, 34, 41
1, 139439, Control_c, 0, 67, 29
1, 139442, Note_on_c, 0, 72, 61
1, 139454, Control_c, 0, 67, 17
1, 139468, Control_c, 0, 67, 15
1, 139483, Control_c, 0, 67, 17
1, 139485, Note_off_c, 0, 72, 60
1, 139498, Control_c, 0, 67, 25
1, 139501, Note_on_c, 0, 71, 56
1, 139512, Control_c, 0, 67, 31
1, 139527, Control_c, 0, 67, 44
1, 139542, Control_c, 0, 67, 59
1, 139557, Control_c, 0, 67, 75
1, 139561, Note_off_c, 0, 71, 64
1, 139572, Control_c, 0, 67, 90
1, 139586, Control_c, 0, 67, 103
1, 139601, Control_c, 0, 67, 111
1, 139616, Control_c, 0, 67, 114
1, 139631, Control_c, 0, 67, 116
1, 139646, Control_c, 0, 67, 119
1, 139661, Control_c, 0, 67, 121
1, 139676, Control_c, 0, 67, 123
1, 139691, Control_c, 0, 67, 125
1, 139706, Control_c, 0, 67, 126
1, 139750, Control_c, 0, 67, 127
1, 139765, Control_c, 0, 67, 127
1, 139789, Note_off_c, 0, 34, 49
1, 139837, Note_on_c, 0, 32, 39
1, 139840, Control_c, 0, 64, 118
1, 139855, Control_c, 0, 64, 109
1, 139870, Control_c, 0, 64, 99
1, 139884, Control_c, 0, 64, 89
1, 139899, Control_c, 0, 64, 79
1, 139914, Control_c, 0, 64, 68
1, 139926, Note_on_c, 0, 72, 68
1, 139929, Control_c, 0, 64, 58
1, 139944, Control_c, 0, 64, 42
1, 139947, Note_on_c, 0, 63, 47
1, 139953, Note_on_c, 0, 60, 37
1, 139958, Control_c, 0, 64, 21
1, 139973, Control_c, 0, 64, 0
1, 140031, Control_c, 0, 64, 35
1, 140046, Control_c, 0, 64, 57
1, 140066, Note_off_c, 0, 32, 60
1, 140069, Control_c, 0, 64, 69
1, 140071, Note_on_c, 0, 39, 49
1, 140084, Control_c, 0, 64, 75
1, 140098, Control_c, 0, 64, 80
1, 140113, Control_c, 0, 64, 84
1, 140115, Note_off_c, 0, 39, 61
1, 140128, Control_c, 0, 64, 89
1, 140142, Control_c, 0, 64, 96
1, 140157, Control_c, 0, 64, 105
1, 140162, Note_on_c, 0, 36, 51
1, 140172, Control_c, 0, 64, 117
1, 140187, Control_c, 0, 64, 127
1, 140200, Note_off_c, 0, 36, 64
1, 140251, Note_on_c, 0, 39, 45
1, 140288, Note_off_c, 0, 39, 49
1, 140320, Note_on_c, 0, 44, 58
1, 140351, Note_off_c, 0, 44, 65
1, 140421, Note_on_c, 0, 51, 49
1, 140457, Note_off_c, 0, 51, 65
1, 140503, Note_on_c, 0, 48, 58
1, 140558, Note_off_c, 0, 48, 61
1, 140582, Note_on_c, 0, 51, 49
1, 140587, Control_c, 0, 64, 119
1, 140602, Control_c, 0, 64, 81
1, 140616, Control_c, 0, 64, 63
1, 140632, Control_c, 0, 64, 42
1, 140637, Note_off_c, 0, 51, 62
1, 140647, Control_c, 0, 64, 0
1, 140654, Note_on_c, 0, 44, 48
1, 140692, Control_c, 0, 64, 16
1, 140706, Control_c, 0, 64, 44
1, 140721, Control_c, 0, 64, 62
1, 140736, Control_c, 0, 64, 71
1, 140740, Note_off_c, 0, 44, 56
1, 140750, Control_c, 0, 64, 77
1, 140764, Note_on_c, 0, 51, 51
1, 140765, Control_c, 0, 64, 83
1, 140780, Control_c, 0, 64, 87
1, 140795, Control_c, 0, 64, 92
1, 140815, Note_off_c, 0, 51, 64
1, 140818, Control_c, 0, 64, 98
1, 140832, Control_c, 0, 64, 104
1, 140847, Control_c, 0, 64, 111
1, 140859, Note_on_c, 0, 48, 46
1, 140862, Control_c, 0, 64, 120
1, 140877, Control_c, 0, 64, 127
1, 140895, Note_off_c, 0, 48, 64
1, 140912, Note_off_c, 0, 63, 49
1, 140935, Note_on_c, 0, 51, 52
1, 140937, Note_off_c, 0, 60, 39
1, 140969, Note_off_c, 0, 51, 65
1, 141008, Note_on_c, 0, 68, 70
1, 141026, Note_on_c, 0, 56, 54
1, 141042, Note_on_c, 0, 60, 47
1, 141047, Note_on_c, 0, 63, 44
1, 141074, Note_off_c, 0, 56, 56
1, 141126, Note_on_c, 0, 51, 38
1, 141132, Note_off_c, 0, 72, 48
1, 141151, Note_off_c, 0, 51, 60
1, 141250, Note_on_c, 0, 48, 10
1, 141264, Note_on_c, 0, 51, 24
1, 141277, Note_off_c, 0, 63, 61
1, 141283, Note_off_c, 0, 68, 62
1, 141295, Note_off_c, 0, 60, 43
1, 141297, Note_off_c, 0, 51, 55
1, 141303, Note_off_c, 0, 48, 35
1, 141362, Note_on_c, 0, 48, 52
1, 141365, Control_c, 0, 64, 96
1, 141376, Note_on_c, 0, 68, 72
1, 141380, Control_c, 0, 64, 74
1, 141395, Control_c, 0, 64, 60
1, 141408, Note_on_c, 0, 63, 55
1, 141410, Control_c, 0, 64, 40
1, 141414, Note_on_c, 0, 60, 16
1, 141426, Control_c, 0, 64, 27
1, 141435, Note_off_c, 0, 48, 60
1, 141441, Control_c, 0, 64, 30
1, 141455, Control_c, 0, 64, 44
1, 141463, Note_off_c, 0, 60, 47
1, 141468, Note_on_c, 0, 56, 49
1, 141470, Control_c, 0, 64, 60
1, 141485, Control_c, 0, 64, 70
1, 141500, Note_off_c, 0, 56, 64
1, 141500, Control_c, 0, 64, 82
1, 141515, Control_c, 0, 64, 100
1, 141530, Control_c, 0, 64, 127
1, 141545, Control_c, 0, 67, 125
1, 141546, Note_on_c, 0, 51, 51
1, 141567, Control_c, 0, 67, 123
1, 141581, Control_c, 0, 67, 120
1, 141589, Note_off_c, 0, 51, 65
1, 141596, Control_c, 0, 67, 118
1, 141608, Note_off_c, 0, 63, 64
1, 141611, Control_c, 0, 67, 115
1, 141616, Note_on_c, 0, 56, 54
1, 141626, Control_c, 0, 67, 112
1, 141641, Control_c, 0, 67, 108
1, 141655, Control_c, 0, 67, 104
1, 141657, Note_off_c, 0, 56, 59
1, 141670, Control_c, 0, 67, 99
1, 141685, Control_c, 0, 67, 94
1, 141700, Control_c, 0, 67, 88
1, 141706, Note_on_c, 0, 60, 50
1, 141715, Control_c, 0, 67, 80
1, 141720, Note_off_c, 0, 68, 64
1, 141730, Control_c, 0, 67, 71
1, 141745, Note_off_c, 0, 60, 50
1, 141745, Control_c, 0, 67, 66
1, 141759, Control_c, 0, 67, 66
1, 141774, Control_c, 0, 67, 72
1, 141789, Control_c, 0, 67, 75
1, 141791, Note_on_c, 0, 56, 47
1, 141804, Control_c, 0, 67, 77
1, 141819, Control_c, 0, 67, 79
1, 141828, Note_off_c, 0, 56, 62
1, 141834, Control_c, 0, 67, 80
1, 141849, Control_c, 0, 67, 84
1, 141863, Control_c, 0, 67, 88
1, 141874, Note_on_c, 0, 51, 43
1, 141878, Control_c, 0, 67, 92
1, 141893, Control_c, 0, 67, 95
1, 141897, Note_on_c, 0, 68, 75
1, 141907, Note_off_c, 0, 51, 65
1, 141907, Control_c, 0, 67, 97
1, 141922, Control_c, 0, 67, 97
1, 141937, Note_on_c, 0, 56, 49
1, 141937, Control_c, 0, 67, 98
1, 141967, Control_c, 0, 67, 98
1, 141981, Control_c, 0, 67, 99
1, 142007, Note_off_c, 0, 56, 50
1, 142026, Control_c, 0, 67, 100
1, 142041, Control_c, 0, 67, 101
1, 142054, Note_on_c, 0, 46, 59
1, 142055, Control_c, 0, 67, 102
1, 142070, Control_c, 0, 64, 97
1, 142075, Note_off_c, 0, 68, 62
1, 142076, Note_on_c, 0, 73, 74
1, 142085, Control_c, 0, 64, 71
1, 142085, Control_c, 0, 67, 103
1, 142098, Note_on_c, 0, 67, 52
1, 142100, Control_c, 0, 64, 55
1, 142100, Control_c, 0, 67, 104
1, 142114, Control_c, 0, 64, 30
1, 142114, Control_c, 0, 67, 105
1, 142115, Note_on_c, 0, 63, 37
1, 142129, Control_c, 0, 64, 0
1, 142129, Control_c, 0, 67, 105
1, 142144, Control_c, 0, 67, 106
1, 142155, Note_off_c, 0, 46, 61
1, 142156, Note_on_c, 0, 55, 49
1, 142174, Control_c, 0, 67, 106
1, 142189, Control_c, 0, 67, 108
1, 142204, Control_c, 0, 64, 34
1, 142204, Control_c, 0, 67, 110
1, 142219, Note_off_c, 0, 55, 62
1, 142219, Control_c, 0, 64, 58
1, 142219, Control_c, 0, 67, 110
1, 142234, Control_c, 0, 64, 69
1, 142246, Note_on_c, 0, 51, 49
1, 142249, Control_c, 0, 64, 77
1, 142264, Control_c, 0, 64, 86
1, 142278, Control_c, 0, 64, 93
1, 142284, Note_off_c, 0, 63, 41
1, 142289, Note_off_c, 0, 51, 64
1, 142293, Control_c, 0, 64, 98
1, 142316, Control_c, 0, 64, 108
1, 142331, Control_c, 0, 64, 127
1, 142340, Note_on_c, 0, 55, 57
1, 142360, Control_c, 0, 67, 111
1, 142370, Note_off_c, 0, 55, 64
1, 142415, Note_on_c, 0, 58, 54
1, 142442, Note_off_c, 0, 67, 35
1, 142449, Control_c, 0, 67, 111
1, 142487, Note_off_c, 0, 58, 62
1, 142491, Note_on_c, 0, 55, 46
1, 142532, Note_off_c, 0, 55, 62
1, 142576, Note_on_c, 0, 51, 55
1, 142597, Control_c, 0, 67, 112
1, 142612, Control_c, 0, 67, 114
1, 142625, Note_off_c, 0, 51, 61
1, 142648, Note_on_c, 0, 55, 51
1, 142657, Control_c, 0, 67, 114
1, 142686, Control_c, 0, 67, 115
1, 142701, Control_c, 0, 67, 116
1, 142716, Control_c, 0, 67, 117
1, 142730, Control_c, 0, 67, 117
1, 142737, Note_off_c, 0, 55, 63
1, 142759, Note_on_c, 0, 49, 54
1, 142765, Note_on_c, 0, 70, 69
1, 142775, Control_c, 0, 64, 84
1, 142775, Control_c, 0, 67, 118
1, 142784, Note_on_c, 0, 63, 48
1, 142784, Note_on_c, 0, 67, 52
1, 142790, Control_c, 0, 64, 66
1, 142790, Control_c, 0, 67, 118
1, 142804, Control_c, 0, 64, 48
1, 142804, Control_c, 0, 67, 119
1, 142819, Control_c, 0, 64, 17
1, 142834, Control_c, 0, 64, 0
1, 142842, Note_off_c, 0, 73, 60
1, 142864, Control_c, 0, 64, 14
1, 142875, Note_on_c, 0, 55, 38
1, 142878, Control_c, 0, 64, 42
1, 142893, Control_c, 0, 64, 59
1, 142908, Control_c, 0, 64, 69
1, 142916, Note_off_c, 0, 55, 63
1, 142923, Control_c, 0, 64, 77
1, 142937, Note_on_c, 0, 51, 61
1, 142937, Control_c, 0, 64, 86
1, 142937, Control_c, 0, 67, 118
1, 142952, Control_c, 0, 64, 94
1, 142952, Control_c, 0, 67, 118
1, 142967, Control_c, 0, 64, 101
1, 142982, Control_c, 0, 64, 115
1, 142997, Control_c, 0, 64, 127
1, 143000, Note_off_c, 0, 51, 60
1, 143020, Note_on_c, 0, 55, 61
1, 143092, Note_off_c, 0, 55, 62
1, 143127, Note_on_c, 0, 58, 50
1, 143178, Note_off_c, 0, 58, 57
1, 143183, Control_c, 0, 67, 118
1, 143212, Note_off_c, 0, 63, 31
1, 143213, Control_c, 0, 67, 119
1, 143221, Note_on_c, 0, 55, 47
1, 143257, Control_c, 0, 67, 119
1, 143258, Note_off_c, 0, 49, 37
1, 143269, Note_off_c, 0, 55, 63
1, 143287, Control_c, 0, 67, 120
1, 143298, Note_on_c, 0, 51, 58
1, 143302, Control_c, 0, 67, 120
1, 143316, Control_c, 0, 67, 121
1, 143331, Control_c, 0, 67, 121
1, 143358, Note_off_c, 0, 51, 62
1, 143378, Note_on_c, 0, 55, 60
1, 143420, Control_c, 0, 67, 122
1, 143449, Note_off_c, 0, 55, 60
1, 143459, Note_on_c, 0, 49, 70
1, 143509, Control_c, 0, 67, 121
1, 143524, Control_c, 0, 67, 121
1, 143539, Control_c, 0, 67, 120
1, 143539, Note_off_c, 0, 67, 59
1, 143553, Control_c, 0, 67, 119
1, 143564, Note_on_c, 0, 55, 61
1, 143568, Control_c, 0, 67, 118
1, 143583, Control_c, 0, 67, 117
1, 143598, Control_c, 0, 67, 117
1, 143613, Control_c, 0, 67, 115
1, 143627, Control_c, 0, 67, 113
1, 143628, Note_off_c, 0, 55, 63
1, 143642, Control_c, 0, 67, 112
1, 143646, Note_on_c, 0, 51, 61
1, 143657, Control_c, 0, 67, 111
1, 143672, Control_c, 0, 67, 110
1, 143702, Control_c, 0, 67, 109
1, 143706, Note_off_c, 0, 51, 62
1, 143716, Control_c, 0, 67, 107
1, 143725, Note_on_c, 0, 55, 58
1, 143731, Control_c, 0, 67, 106
1, 143746, Control_c, 0, 67, 104
1, 143760, Control_c, 0, 67, 103
1, 143768, Note_off_c, 0, 55, 63
1, 143775, Control_c, 0, 67, 103
1, 143815, Note_on_c, 0, 58, 61
1, 143828, Control_c, 0, 67, 104
1, 143843, Control_c, 0, 67, 105
1, 143858, Control_c, 0, 67, 107
1, 143867, Note_off_c, 0, 58, 58
1, 143873, Control_c, 0, 67, 109
1, 143888, Control_c, 0, 67, 110
1, 143896, Note_on_c, 0, 55, 57
1, 143903, Control_c, 0, 67, 112
1, 143918, Control_c, 0, 67, 114
1, 143932, Control_c, 0, 67, 116
1, 143939, Note_off_c, 0, 55, 63
1, 143947, Control_c, 0, 67, 117
1, 143953, Note_off_c, 0, 49, 49
1, 143965, Note_on_c, 0, 51, 62
1, 144006, Control_c, 0, 67, 117
1, 144021, Control_c, 0, 67, 118
1, 144022, Note_off_c, 0, 51, 62
1, 144037, Note_on_c, 0, 55, 66
1, 144105, Note_off_c, 0, 55, 61
1, 144110, Control_c, 0, 67, 118
1, 144125, Control_c, 0, 67, 119
1, 144139, Control_c, 0, 67, 119
1, 144150, Note_on_c, 0, 48, 59
1, 144154, Control_c, 0, 64, 93
1, 144167, Note_on_c, 0, 75, 74
1, 144169, Control_c, 0, 64, 76
1, 144178, Note_off_c, 0, 70, 55
1, 144183, Control_c, 0, 64, 63
1, 144198, Control_c, 0, 64, 50
1, 144208, Note_on_c, 0, 68, 47
1, 144210, Note_on_c, 0, 63, 46
1, 144213, Control_c, 0, 64, 32
1, 144228, Control_c, 0, 64, 0
1, 144266, Note_on_c, 0, 56, 61
1, 144272, Control_c, 0, 67, 120
1, 144302, Control_c, 0, 64, 24
1, 144314, Note_off_c, 0, 56, 62
1, 144317, Control_c, 0, 64, 51
1, 144332, Control_c, 0, 64, 64
1, 144347, Control_c, 0, 64, 71
1, 144347, Control_c, 0, 67, 120
1, 144347, Note_on_c, 0, 51, 58
1, 144362, Control_c, 0, 64, 75
1, 144376, Control_c, 0, 64, 80
1, 144391, Control_c, 0, 64, 84
1, 144404, Note_off_c, 0, 51, 60
1, 144406, Control_c, 0, 64, 90
1, 144415, Note_on_c, 0, 56, 72
1, 144421, Control_c, 0, 64, 97
1, 144436, Control_c, 0, 64, 105
1, 144450, Control_c, 0, 64, 113
1, 144458, Note_off_c, 0, 56, 58
1, 144465, Control_c, 0, 64, 122
1, 144480, Control_c, 0, 64, 127
1, 144508, Note_on_c, 0, 60, 60
1, 144514, Note_off_c, 0, 48, 31
1, 144576, Note_off_c, 0, 60, 52
1, 144588, Note_on_c, 0, 56, 69
1, 144633, Note_off_c, 0, 56, 59
1, 144666, Control_c, 0, 67, 120
1, 144678, Note_on_c, 0, 51, 58
1, 144695, Control_c, 0, 67, 120
1, 144749, Note_off_c, 0, 51, 63
1, 144755, Note_on_c, 0, 56, 71
1, 144799, Control_c, 0, 64, 84
1, 144813, Control_c, 0, 64, 66
1, 144824, Note_off_c, 0, 56, 55
1, 144828, Control_c, 0, 64, 52
1, 144836, Note_on_c, 0, 48, 70
1, 144843, Control_c, 0, 64, 34
1, 144858, Control_c, 0, 64, 29
1, 144873, Control_c, 0, 64, 34
1, 144887, Control_c, 0, 64, 51
1, 144902, Control_c, 0, 64, 63
1, 144904, Note_on_c, 0, 60, 63
1, 144917, Control_c, 0, 64, 73
1, 144931, Control_c, 0, 64, 84
1, 144946, Control_c, 0, 64, 97
1, 144951, Note_off_c, 0, 60, 59
1, 144961, Control_c, 0, 64, 104
1, 144976, Control_c, 0, 64, 109
1, 144989, Note_on_c, 0, 56, 62
1, 144991, Control_c, 0, 64, 127
1, 145006, Control_c, 0, 67, 120
1, 145041, Note_off_c, 0, 56, 57
1, 145055, Note_off_c, 0, 48, 58
1, 145065, Control_c, 0, 67, 119
1, 145067, Note_on_c, 0, 60, 60
1, 145089, Note_off_c, 0, 63, 42
1, 145099, Note_off_c, 0, 68, 41
1, 145122, Note_off_c, 0, 60, 61
1, 145154, Control_c, 0, 64, 107
1, 145161, Note_on_c, 0, 47, 70
1, 145169, Control_c, 0, 64, 78
1, 145173, Note_on_c, 0, 74, 82
1, 145184, Control_c, 0, 64, 60
1, 145198, Control_c, 0, 64, 40
1, 145203, Note_off_c, 0, 75, 61
1, 145211, Note_on_c, 0, 68, 45
1, 145212, Note_on_c, 0, 62, 29
1, 145213, Control_c, 0, 64, 25
1, 145213, Control_c, 0, 67, 119
1, 145228, Control_c, 0, 64, 28
1, 145238, Note_off_c, 0, 47, 66
1, 145243, Control_c, 0, 64, 44
1, 145258, Control_c, 0, 64, 60
1, 145258, Control_c, 0, 67, 118
1, 145263, Note_on_c, 0, 59, 54
1, 145273, Control_c, 0, 64, 70
1, 145288, Control_c, 0, 64, 81
1, 145288, Control_c, 0, 67, 119
1, 145310, Control_c, 0, 64, 92
1, 145320, Note_off_c, 0, 59, 58
1, 145322, Note_off_c, 0, 62, 42
1, 145325, Control_c, 0, 64, 97
1, 145340, Control_c, 0, 64, 100
1, 145344, Note_on_c, 0, 56, 67
1, 145354, Control_c, 0, 64, 105
1, 145354, Control_c, 0, 67, 118
1, 145369, Control_c, 0, 64, 113
1, 145384, Control_c, 0, 64, 127
1, 145385, Note_off_c, 0, 56, 61
1, 145433, Note_on_c, 0, 59, 59
1, 145474, Control_c, 0, 67, 119
1, 145477, Note_off_c, 0, 68, 43
1, 145491, Note_off_c, 0, 59, 65
1, 145503, Control_c, 0, 64, 96
1, 145515, Note_on_c, 0, 75, 90
1, 145518, Control_c, 0, 64, 73
1, 145527, Note_on_c, 0, 63, 68
1, 145528, Note_on_c, 0, 48, 68
1, 145530, Note_on_c, 0, 68, 52
1, 145532, Note_off_c, 0, 74, 63
1, 145533, Control_c, 0, 64, 58
1, 145548, Control_c, 0, 64, 30
1, 145563, Control_c, 0, 64, 0
1, 145563, Control_c, 0, 67, 119
1, 145596, Note_on_c, 0, 60, 65
1, 145608, Control_c, 0, 64, 28
1, 145608, Control_c, 0, 67, 119
1, 145623, Control_c, 0, 64, 52
1, 145631, Note_off_c, 0, 48, 62
1, 145637, Control_c, 0, 64, 65
1, 145652, Control_c, 0, 64, 73
1, 145661, Note_off_c, 0, 60, 60
1, 145663, Note_off_c, 0, 63, 51
1, 145667, Note_off_c, 0, 68, 33
1, 145667, Control_c, 0, 64, 81
1, 145676, Note_on_c, 0, 56, 67
1, 145682, Control_c, 0, 64, 88
1, 145697, Control_c, 0, 64, 93
1, 145697, Control_c, 0, 67, 118
1, 145711, Control_c, 0, 64, 97
1, 145711, Control_c, 0, 67, 118
1, 145717, Note_off_c, 0, 56, 62
1, 145726, Control_c, 0, 64, 102
1, 145741, Control_c, 0, 64, 107
1, 145755, Control_c, 0, 64, 110
1, 145755, Control_c, 0, 67, 118
1, 145769, Note_on_c, 0, 60, 62
1, 145770, Control_c, 0, 64, 111
1, 145785, Control_c, 0, 64, 112
1, 145800, Control_c, 0, 64, 113
1, 145808, Note_off_c, 0, 60, 59
1, 145844, Control_c, 0, 64, 111
1, 145859, Control_c, 0, 64, 96
1, 145864, Note_on_c, 0, 49, 73
1, 145867, Note_on_c, 0, 77, 84
1, 145874, Control_c, 0, 64, 80
1, 145875, Note_off_c, 0, 75, 63
1, 145882, Note_on_c, 0, 68, 62
1, 145888, Note_on_c, 0, 65, 51
1, 145889, Control_c, 0, 64, 64
1, 145903, Control_c, 0, 64, 50
1, 145903, Control_c, 0, 67, 119
1, 145918, Control_c, 0, 64, 30
1, 145933, Control_c, 0, 64, 0
1, 145945, Note_on_c, 0, 61, 66
1, 146007, Control_c, 0, 64, 40
1, 146014, Note_off_c, 0, 49, 60
1, 146020, Note_off_c, 0, 61, 60
1, 146021, Note_off_c, 0, 65, 50
1, 146022, Control_c, 0, 64, 61
1, 146037, Control_c, 0, 64, 70
1, 146037, Control_c, 0, 67, 118
1, 146038, Note_on_c, 0, 56, 60
1, 146040, Note_off_c, 0, 68, 64
1, 146059, Control_c, 0, 64, 78
1, 146074, Control_c, 0, 64, 86
1, 146079, Note_off_c, 0, 56, 62
1, 146089, Control_c, 0, 64, 92
1, 146089, Control_c, 0, 67, 118
1, 146103, Control_c, 0, 64, 99
1, 146118, Control_c, 0, 64, 104
1, 146133, Control_c, 0, 64, 110
1, 146133, Control_c, 0, 67, 118
1, 146135, Note_on_c, 0, 61, 67
1, 146148, Control_c, 0, 64, 115
1, 146162, Control_c, 0, 64, 118
1, 146192, Control_c, 0, 67, 119
1, 146199, Note_off_c, 0, 61, 63
1, 146207, Control_c, 0, 64, 116
1, 146223, Control_c, 0, 64, 102
1, 146225, Note_on_c, 0, 51, 65
1, 146238, Control_c, 0, 64, 84
1, 146252, Control_c, 0, 64, 69
1, 146260, Note_on_c, 0, 75, 77
1, 146267, Control_c, 0, 64, 55
1, 146267, Control_c, 0, 67, 119
1, 146282, Control_c, 0, 64, 27
1, 146297, Control_c, 0, 64, 0
1, 146312, Note_on_c, 0, 63, 63
1, 146317, Note_off_c, 0, 77, 64
1, 146371, Note_off_c, 0, 63, 60
1, 146373, Note_off_c, 0, 51, 63
1, 146386, Control_c, 0, 64, 36
1, 146401, Note_on_c, 0, 55, 51
1, 146401, Control_c, 0, 64, 61
1, 146401, Control_c, 0, 67, 119
1, 146416, Control_c, 0, 64, 70
1, 146431, Control_c, 0, 64, 77
1, 146445, Control_c, 0, 64, 87
1, 146447, Note_off_c, 0, 55, 63
1, 146460, Control_c, 0, 64, 95
1, 146475, Control_c, 0, 64, 105
1, 146483, Note_on_c, 0, 63, 69
1, 146490, Control_c, 0, 64, 127
1, 146490, Control_c, 0, 67, 118
1, 146517, Note_off_c, 0, 63, 67
1, 146564, Note_on_c, 0, 53, 65
1, 146576, Note_on_c, 0, 74, 78
1, 146578, Control_c, 0, 64, 96
1, 146593, Control_c, 0, 64, 72
1, 146608, Control_c, 0, 64, 54
1, 146623, Control_c, 0, 64, 43
1, 146632, Note_off_c, 0, 75, 63
1, 146638, Control_c, 0, 64, 46
1, 146649, Note_on_c, 0, 65, 51
1, 146652, Control_c, 0, 64, 57
1, 146667, Control_c, 0, 64, 67
1, 146671, Note_off_c, 0, 53, 55
1, 146682, Control_c, 0, 64, 76
1, 146697, Control_c, 0, 64, 96
1, 146702, Note_off_c, 0, 65, 56
1, 146712, Control_c, 0, 64, 127
1, 146727, Note_on_c, 0, 56, 62
1, 146756, Control_c, 0, 67, 118
1, 146767, Note_off_c, 0, 56, 60
1, 146815, Note_on_c, 0, 65, 61
1, 146823, Control_c, 0, 67, 118
1, 146852, Control_c, 0, 64, 111
1, 146867, Control_c, 0, 64, 76
1, 146867, Control_c, 0, 67, 118
1, 146871, Note_off_c, 0, 65, 56
1, 146882, Control_c, 0, 64, 59
1, 146886, Note_off_c, 0, 74, 63
1, 146897, Note_on_c, 0, 73, 69
1, 146897, Control_c, 0, 64, 32
1, 146897, Control_c, 0, 67, 117
1, 146910, Note_on_c, 0, 55, 58
1, 146911, Control_c, 0, 64, 27
1, 146926, Control_c, 0, 64, 40
1, 146941, Control_c, 0, 64, 58
1, 146956, Control_c, 0, 64, 70
1, 146971, Control_c, 0, 64, 83
1, 146985, Control_c, 0, 64, 103
1, 147000, Control_c, 0, 64, 127
1, 147006, Note_on_c, 0, 67, 63
1, 147030, Note_on_c, 0, 75, 63
1, 147033, Note_off_c, 0, 55, 54
1, 147039, Note_off_c, 0, 73, 34
1, 147047, Note_off_c, 0, 67, 60
1, 147061, Control_c, 0, 67, 117
1, 147082, Note_on_c, 0, 58, 50
1, 147085, Note_off_c, 0, 75, 61
1, 147114, Note_off_c, 0, 58, 65
1, 147116, Note_on_c, 0, 73, 57
1, 147120, Control_c, 0, 67, 117
1, 147133, Note_on_c, 0, 67, 64
1, 147152, Note_off_c, 0, 73, 63
1, 147161, Note_off_c, 0, 67, 66
1, 147164, Control_c, 0, 67, 118
1, 147185, Note_on_c, 0, 75, 59
1, 147194, Control_c, 0, 67, 118
1, 147214, Note_off_c, 0, 75, 68
1, 147223, Control_c, 0, 64, 95
1, 147223, Control_c, 0, 67, 119
1, 147229, Note_on_c, 0, 73, 72
1, 147236, Note_on_c, 0, 51, 59
1, 147238, Control_c, 0, 64, 75
1, 147253, Control_c, 0, 64, 70
1, 147268, Control_c, 0, 64, 71
1, 147277, Note_off_c, 0, 73, 56
1, 147283, Control_c, 0, 64, 80
1, 147286, Note_off_c, 0, 51, 55
1, 147290, Note_on_c, 0, 75, 67
1, 147298, Control_c, 0, 64, 99
1, 147303, Note_on_c, 0, 63, 62
1, 147313, Control_c, 0, 64, 127
1, 147325, Note_off_c, 0, 75, 65
1, 147344, Note_off_c, 0, 63, 62
1, 147346, Note_on_c, 0, 73, 65
1, 147380, Note_off_c, 0, 73, 64
1, 147396, Note_on_c, 0, 55, 49
1, 147401, Control_c, 0, 67, 118
1, 147402, Note_on_c, 0, 75, 67
1, 147416, Control_c, 0, 67, 118
1, 147423, Note_off_c, 0, 55, 56
1, 147436, Note_off_c, 0, 75, 64
1, 147448, Note_on_c, 0, 63, 69
1, 147459, Note_on_c, 0, 73, 68
1, 147488, Note_off_c, 0, 73, 64
1, 147499, Note_off_c, 0, 63, 64
1, 147506, Note_on_c, 0, 75, 74
1, 147536, Note_on_c, 0, 53, 68
1, 147536, Note_off_c, 0, 75, 60
1, 147560, Note_on_c, 0, 73, 67
1, 147572, Control_c, 0, 64, 108
1, 147572, Control_c, 0, 67, 117
1, 147587, Control_c, 0, 64, 76
1, 147599, Note_off_c, 0, 73, 64
1, 147601, Control_c, 0, 64, 62
1, 147616, Note_on_c, 0, 75, 75
1, 147616, Control_c, 0, 64, 58
1, 147616, Control_c, 0, 67, 117
1, 147629, Note_on_c, 0, 65, 57
1, 147631, Control_c, 0, 64, 64
1, 147631, Control_c, 0, 67, 116
1, 147646, Control_c, 0, 64, 73
1, 147646, Control_c, 0, 67, 114
1, 147650, Note_off_c, 0, 75, 65
1, 147661, Control_c, 0, 64, 91
1, 147661, Control_c, 0, 67, 113
1, 147672, Note_off_c, 0, 53, 0
1, 147674, Note_on_c, 0, 73, 69
1, 147675, Control_c, 0, 64, 127
1, 147675, Control_c, 0, 67, 110
1, 147681, Note_off_c, 0, 65, 59
1, 147690, Control_c, 0, 67, 108
1, 147705, Control_c, 0, 67, 107
1, 147708, Note_off_c, 0, 73, 66
1, 147709, Poly_aftertouch_c, 0, 53, 127
1, 147717, Note_on_c, 0, 56, 63
1, 147720, Control_c, 0, 67, 105
1, 147724, Note_on_c, 0, 75, 75
1, 147734, Control_c, 0, 67, 104
1, 147749, Control_c, 0, 67, 103
1, 147759, Note_off_c, 0, 56, 60
1, 147764, Control_c, 0, 67, 103
1, 147776, Poly_aftertouch_c, 0, 53, 0
1, 147778, Note_on_c, 0, 73, 68
1, 147779, Control_c, 0, 67, 102
1, 147785, Note_on_c, 0, 65, 69
1, 147822, Note_off_c, 0, 75, 60
1, 147848, Note_off_c, 0, 65, 62
1, 147870, Note_off_c, 0, 73, 64
1, 147876, Note_on_c, 0, 55, 67
1, 147880, Note_on_c, 0, 72, 80
1, 147884, Control_c, 0, 67, 103
1, 147898, Control_c, 0, 64, 101
1, 147898, Control_c, 0, 67, 102
1, 147913, Control_c, 0, 64, 69
1, 147928, Control_c, 0, 64, 53
1, 147943, Control_c, 0, 64, 33
1, 147943, Control_c, 0, 67, 102
1, 147957, Control_c, 0, 64, 28
1, 147972, Control_c, 0, 64, 35
1, 147972, Control_c, 0, 67, 101
1, 147975, Note_on_c, 0, 67, 67
1, 147987, Control_c, 0, 64, 51
1, 147987, Control_c, 0, 67, 100
1, 148002, Control_c, 0, 64, 64
1, 148002, Control_c, 0, 67, 98
1, 148016, Control_c, 0, 64, 77
1, 148016, Control_c, 0, 67, 96
1, 148018, Note_off_c, 0, 67, 61
1, 148031, Control_c, 0, 64, 91
1, 148031, Control_c, 0, 67, 93
1, 148046, Control_c, 0, 64, 109
1, 148046, Control_c, 0, 67, 88
1, 148061, Control_c, 0, 64, 127
1, 148061, Control_c, 0, 67, 83
1, 148065, Note_on_c, 0, 70, 81
1, 148072, Note_off_c, 0, 72, 63
1, 148076, Control_c, 0, 67, 77
1, 148084, Note_on_c, 0, 58, 53
1, 148091, Control_c, 0, 67, 72
1, 148106, Control_c, 0, 67, 67
1, 148121, Control_c, 0, 67, 60
1, 148129, Note_on_c, 0, 67, 66
1, 148136, Control_c, 0, 67, 51
1, 148150, Control_c, 0, 67, 43
1, 148165, Control_c, 0, 67, 38
1, 148180, Control_c, 0, 67, 34
1, 148195, Control_c, 0, 67, 33
1, 148241, Note_off_c, 0, 67, 61
1, 148249, Note_off_c, 0, 55, 29
1, 148252, Note_off_c, 0, 70, 57
1, 148267, Control_c, 0, 67, 33
1, 148282, Control_c, 0, 67, 34
1, 148285, Note_off_c, 0, 58, 52
1, 148319, Control_c, 0, 67, 34
1, 148334, Control_c, 0, 67, 35
1, 148347, Note_on_c, 0, 63, 78
1, 148351, Note_on_c, 0, 68, 54
1, 148363, Control_c, 0, 64, 117
1, 148363, Control_c, 0, 67, 36
1, 148377, Note_on_c, 0, 60, 60
1, 148378, Control_c, 0, 64, 85
1, 148393, Control_c, 0, 64, 67
1, 148408, Control_c, 0, 64, 49
1, 148422, Control_c, 0, 64, 23
1, 148437, Control_c, 0, 64, 0
1, 148437, Control_c, 0, 67, 36
1, 148466, Note_on_c, 0, 75, 52
1, 148496, Control_c, 0, 67, 36
1, 148511, Control_c, 0, 64, 30
1, 148511, Control_c, 0, 67, 35
1, 148514, Note_off_c, 0, 75, 57
1, 148526, Note_off_c, 0, 68, 45
1, 148526, Control_c, 0, 64, 57
1, 148526, Control_c, 0, 67, 35
1, 148541, Control_c, 0, 64, 70
1, 148541, Control_c, 0, 67, 34
1, 148551, Note_on_c, 0, 72, 62
1, 148556, Control_c, 0, 64, 81
1, 148556, Control_c, 0, 67, 33
1, 148571, Control_c, 0, 64, 95
1, 148571, Control_c, 0, 67, 32
1, 148586, Control_c, 0, 64, 120
1, 148586, Control_c, 0, 67, 30
1, 148592, Note_off_c, 0, 72, 62
1, 148601, Control_c, 0, 64, 127
1, 148601, Control_c, 0, 67, 25
1, 148616, Control_c, 0, 67, 18
1, 148631, Note_on_c, 0, 75, 64
1, 148631, Control_c, 0, 67, 11
1, 148645, Control_c, 0, 67, 0
1, 148659, Note_off_c, 0, 75, 68
1, 148730, Note_on_c, 0, 80, 58
1, 148788, Note_off_c, 0, 80, 52
1, 148821, Note_on_c, 0, 87, 50
1, 148860, Note_off_c, 0, 87, 57
1, 148896, Note_on_c, 0, 84, 61
1, 148941, Note_off_c, 0, 84, 63
1, 148961, Note_on_c, 0, 87, 64
1, 149015, Note_off_c, 0, 87, 59
1, 149017, Control_c, 0, 67, 8
1, 149032, Control_c, 0, 67, 10
1, 149051, Note_on_c, 0, 92, 60
1, 149069, Control_c, 0, 67, 10
1, 149084, Control_c, 0, 67, 11
1, 149098, Control_c, 0, 67, 12
1, 149101, Note_off_c, 0, 92, 60
1, 149113, Control_c, 0, 67, 13
1, 149128, Control_c, 0, 67, 14
1, 149134, Note_on_c, 0, 80, 60
1, 149167, Note_off_c, 0, 60, 39
1, 149167, Note_off_c, 0, 80, 61
1, 149173, Control_c, 0, 67, 14
1, 149187, Control_c, 0, 67, 15
1, 149202, Control_c, 0, 67, 16
1, 149215, Note_on_c, 0, 92, 61
1, 149217, Control_c, 0, 67, 17
1, 149259, Note_off_c, 0, 92, 59
1, 149291, Note_on_c, 0, 80, 53
1, 149337, Note_off_c, 0, 80, 56
1, 149364, Note_on_c, 0, 60, 76
1, 149365, Control_c, 0, 67, 18
1, 149374, Note_on_c, 0, 92, 59
1, 149391, Note_on_c, 0, 56, 57
1, 149394, Control_c, 0, 67, 18
1, 149425, Control_c, 0, 67, 19
1, 149430, Note_off_c, 0, 92, 58
1, 149440, Control_c, 0, 67, 19
1, 149455, Control_c, 0, 67, 21
1, 149461, Note_off_c, 0, 63, 59
1, 149468, Note_on_c, 0, 80, 60
1, 149469, Control_c, 0, 67, 22
1, 149525, Note_off_c, 0, 80, 51
1, 149546, Note_on_c, 0, 92, 67
1, 149578, Note_off_c, 0, 56, 0
1, 149596, Note_off_c, 0, 60, 57
1, 149609, Note_off_c, 0, 92, 62
1, 149639, Note_on_c, 0, 80, 62
1, 149640, Poly_aftertouch_c, 0, 56, 0
1, 149677, Note_off_c, 0, 80, 58
1, 149692, Note_on_c, 0, 60, 86
1, 149707, Control_c, 0, 64, 114
1, 149721, Control_c, 0, 64, 84
1, 149721, Note_on_c, 0, 92, 64
1, 149722, Note_on_c, 0, 56, 55
1, 149736, Control_c, 0, 64, 67
1, 149751, Control_c, 0, 64, 53
1, 149764, Note_off_c, 0, 92, 60
1, 149766, Control_c, 0, 64, 30
1, 149781, Control_c, 0, 64, 0
1, 149805, Note_on_c, 0, 80, 62
1, 149817, Control_c, 0, 64, 19
1, 149817, Control_c, 0, 67, 24
1, 149832, Control_c, 0, 64, 42
1, 149832, Control_c, 0, 67, 25
1, 149847, Control_c, 0, 64, 60
1, 149847, Control_c, 0, 67, 29
1, 149859, Note_off_c, 0, 80, 57
1, 149862, Control_c, 0, 64, 72
1, 149862, Control_c, 0, 67, 33
1, 149876, Control_c, 0, 64, 83
1, 149876, Control_c, 0, 67, 37
1, 149883, Note_on_c, 0, 92, 68
1, 149891, Control_c, 0, 64, 97
1, 149891, Control_c, 0, 67, 38
1, 149906, Control_c, 0, 64, 110
1, 149906, Control_c, 0, 67, 38
1, 149921, Control_c, 0, 64, 127
1, 149942, Note_off_c, 0, 92, 63
1, 149945, Note_off_c, 0, 56, 54
1, 149963, Note_on_c, 0, 80, 74
1, 149974, Note_off_c, 0, 60, 59
1, 149995, Control_c, 0, 67, 38
1, 150023, Note_off_c, 0, 80, 56
1, 150038, Note_on_c, 0, 92, 75
1, 150106, Note_off_c, 0, 92, 59
1, 150115, Note_on_c, 0, 80, 75
1, 150143, Control_c, 0, 67, 37
1, 150181, Note_off_c, 0, 80, 57
1, 150198, Note_on_c, 0, 92, 74
1, 150198, Note_on_c, 0, 60, 74
1, 150210, Note_on_c, 0, 56, 65
1, 150218, Control_c, 0, 67, 37
1, 150262, Note_off_c, 0, 92, 61
1, 150263, Control_c, 0, 67, 36
1, 150278, Control_c, 0, 67, 36
1, 150283, Note_on_c, 0, 80, 73
1, 150292, Control_c, 0, 67, 35
1, 150303, Note_off_c, 0, 56, 58
1, 150307, Control_c, 0, 67, 34
1, 150351, Note_off_c, 0, 60, 62
1, 150351, Control_c, 0, 67, 34
1, 150352, Note_off_c, 0, 80, 57
1, 150358, Note_on_c, 0, 65, 82
1, 150366, Control_c, 0, 67, 33
1, 150369, Note_on_c, 0, 92, 68
1, 150371, Note_on_c, 0, 61, 67
1, 150381, Control_c, 0, 64, 98
1, 150396, Control_c, 0, 64, 81
1, 150396, Control_c, 0, 67, 33
1, 150411, Control_c, 0, 64, 68
1, 150425, Control_c, 0, 64, 55
1, 150430, Note_off_c, 0, 92, 63
1, 150440, Control_c, 0, 64, 39
1, 150455, Control_c, 0, 64, 17
1, 150460, Note_on_c, 0, 80, 69
1, 150470, Control_c, 0, 64, 0
1, 150523, Note_off_c, 0, 80, 57
1, 150529, Control_c, 0, 64, 35
1, 150547, Note_on_c, 0, 92, 73
1, 150550, Control_c, 0, 64, 57
1, 150565, Control_c, 0, 64, 68
1, 150580, Control_c, 0, 64, 75
1, 150580, Control_c, 0, 67, 32
1, 150595, Control_c, 0, 64, 81
1, 150595, Control_c, 0, 67, 32
1, 150607, Note_off_c, 0, 92, 62
1, 150610, Control_c, 0, 64, 86
1, 150616, Note_on_c, 0, 80, 71
1, 150625, Control_c, 0, 64, 95
1, 150625, Control_c, 0, 67, 31
1, 150640, Control_c, 0, 64, 111
1, 150640, Control_c, 0, 67, 31
1, 150655, Control_c, 0, 64, 127
1, 150669, Control_c, 0, 67, 30
1, 150680, Note_off_c, 0, 80, 58
1, 150684, Control_c, 0, 67, 30
1, 150694, Note_on_c, 0, 92, 75
1, 150759, Note_off_c, 0, 92, 62
1, 150777, Note_on_c, 0, 80, 75
1, 150839, Note_off_c, 0, 80, 57
1, 150856, Note_on_c, 0, 92, 74
1, 150890, Note_off_c, 0, 61, 44
1, 150912, Note_off_c, 0, 92, 62
1, 150924, Note_on_c, 0, 80, 72
1, 150991, Note_off_c, 0, 80, 58
1, 151007, Note_on_c, 0, 61, 75
1, 151018, Note_on_c, 0, 92, 61
1, 151042, Note_on_c, 0, 58, 49
1, 151082, Note_off_c, 0, 92, 56
1, 151102, Note_on_c, 0, 80, 68
1, 151114, Control_c, 0, 64, 94
1, 151129, Control_c, 0, 64, 71
1, 151144, Control_c, 0, 64, 58
1, 151154, Note_off_c, 0, 65, 51
1, 151159, Control_c, 0, 64, 38
1, 151164, Note_off_c, 0, 80, 59
1, 151173, Control_c, 0, 64, 13
1, 151185, Note_on_c, 0, 92, 76
1, 151188, Control_c, 0, 64, 0
1, 151233, Control_c, 0, 64, 33
1, 151248, Note_off_c, 0, 92, 62
1, 151248, Control_c, 0, 64, 53
1, 151253, Note_on_c, 0, 80, 73
1, 151263, Control_c, 0, 64, 65
1, 151263, Control_c, 0, 67, 29
1, 151278, Control_c, 0, 64, 73
1, 151278, Control_c, 0, 67, 29
1, 151300, Control_c, 0, 64, 82
1, 151300, Control_c, 0, 67, 28
1, 151315, Control_c, 0, 64, 91
1, 151315, Control_c, 0, 67, 28
1, 151329, Control_c, 0, 64, 103
1, 151329, Control_c, 0, 67, 27
1, 151332, Note_off_c, 0, 80, 55
1, 151343, Note_on_c, 0, 92, 79
1, 151344, Control_c, 0, 64, 127
1, 151344, Control_c, 0, 67, 26
1, 151359, Control_c, 0, 67, 25
1, 151373, Control_c, 0, 67, 24
1, 151388, Control_c, 0, 67, 23
1, 151403, Control_c, 0, 67, 19
1, 151417, Note_off_c, 0, 92, 63
1, 151418, Control_c, 0, 67, 14
1, 151424, Note_on_c, 0, 80, 74
1, 151433, Control_c, 0, 67, 0
1, 151489, Note_off_c, 0, 80, 59
1, 151507, Note_on_c, 0, 92, 82
1, 151579, Note_off_c, 0, 92, 60
1, 151587, Note_on_c, 0, 80, 74
1, 151601, Note_off_c, 0, 58, 48
1, 151650, Note_off_c, 0, 80, 58
1, 151671, Note_on_c, 0, 92, 84
1, 151751, Note_on_c, 0, 80, 78
1, 151751, Note_off_c, 0, 92, 64
1, 151832, Note_off_c, 0, 80, 59
1, 151832, Note_on_c, 0, 92, 81
1, 151924, Note_on_c, 0, 80, 72
1, 151927, Note_off_c, 0, 92, 64
1, 151994, Note_on_c, 0, 92, 75
1, 151996, Note_off_c, 0, 80, 59
1, 152082, Note_off_c, 0, 61, 0
1, 152106, Note_on_c, 0, 80, 76
1, 152111, Note_off_c, 0, 92, 64
1, 152119, Poly_aftertouch_c, 0, 61, 127
1, 152202, Note_on_c, 0, 92, 83
1, 152202, Note_off_c, 0, 80, 58
1, 152224, Poly_aftertouch_c, 0, 61, 0
1, 152312, Note_on_c, 0, 80, 72
1, 152333, Note_off_c, 0, 92, 59
1, 152496, Note_on_c, 0, 92, 70
1, 152509, Note_off_c, 0, 80, 23
1, 152521, Note_on_c, 0, 66, 74
1, 152537, Control_c, 0, 64, 122
1, 152552, Control_c, 0, 64, 100
1, 152555, Note_on_c, 0, 63, 45
1, 152567, Control_c, 0, 64, 89
1, 152582, Control_c, 0, 64, 80
1, 152596, Control_c, 0, 64, 73
1, 152612, Control_c, 0, 64, 67
1, 152627, Control_c, 0, 64, 60
1, 152642, Control_c, 0, 64, 53
1, 152657, Control_c, 0, 64, 43
1, 152672, Control_c, 0, 64, 23
1, 152686, Control_c, 0, 64, 0
1, 152686, Control_c, 0, 67, 8
1, 152701, Control_c, 0, 67, 8
1, 152716, Control_c, 0, 67, 9
1, 152731, Control_c, 0, 67, 10
1, 152745, Control_c, 0, 67, 12
1, 152761, Control_c, 0, 64, 11
1, 152776, Control_c, 0, 64, 41
1, 152776, Control_c, 0, 67, 12
1, 152798, Control_c, 0, 64, 59
1, 152798, Control_c, 0, 67, 13
1, 152813, Control_c, 0, 64, 68
1, 152813, Control_c, 0, 67, 15
1, 152828, Control_c, 0, 64, 74
1, 152828, Control_c, 0, 67, 17
1, 152842, Control_c, 0, 64, 79
1, 152842, Control_c, 0, 67, 19
1, 152857, Control_c, 0, 64, 82
1, 152857, Control_c, 0, 67, 20
1, 152872, Control_c, 0, 64, 87
1, 152872, Control_c, 0, 67, 22
1, 152887, Control_c, 0, 64, 97
1, 152887, Control_c, 0, 67, 22
1, 152902, Control_c, 0, 64, 115
1, 152917, Control_c, 0, 64, 127
1, 152932, Control_c, 0, 67, 23
1, 152976, Control_c, 0, 67, 23
1, 152991, Note_on_c, 0, 90, 79
1, 152991, Control_c, 0, 67, 24
1, 153020, Control_c, 0, 67, 25
1, 153035, Control_c, 0, 67, 27
1, 153050, Control_c, 0, 67, 28
1, 153080, Control_c, 0, 67, 29
1, 153084, Note_off_c, 0, 63, 37
1, 153094, Control_c, 0, 67, 29
1, 153097, Note_off_c, 0, 92, 32
1, 153109, Control_c, 0, 67, 31
1, 153124, Control_c, 0, 67, 35
1, 153138, Control_c, 0, 67, 39
1, 153153, Control_c, 0, 67, 43
1, 153168, Control_c, 0, 67, 46
1, 153183, Control_c, 0, 67, 50
1, 153198, Control_c, 0, 67, 53
1, 153203, Note_on_c, 0, 89, 72
1, 153212, Control_c, 0, 67, 56
1, 153227, Control_c, 0, 67, 58
1, 153230, Note_off_c, 0, 90, 65
1, 153242, Control_c, 0, 67, 60
1, 153257, Control_c, 0, 67, 63
1, 153272, Control_c, 0, 67, 66
1, 153287, Control_c, 0, 67, 68
1, 153302, Control_c, 0, 67, 69
1, 153331, Control_c, 0, 67, 69
1, 153361, Control_c, 0, 67, 70
1, 153388, Note_on_c, 0, 63, 66
1, 153391, Control_c, 0, 67, 71
1, 153406, Control_c, 0, 67, 74
1, 153421, Control_c, 0, 64, 104
1, 153421, Control_c, 0, 67, 77
1, 153429, Note_on_c, 0, 60, 44
1, 153436, Control_c, 0, 64, 77
1, 153436, Control_c, 0, 67, 80
1, 153451, Control_c, 0, 64, 64
1, 153451, Control_c, 0, 67, 82
1, 153465, Control_c, 0, 64, 54
1, 153465, Control_c, 0, 67, 84
1, 153480, Control_c, 0, 64, 52
1, 153480, Control_c, 0, 67, 85
1, 153491, Note_off_c, 0, 66, 36
1, 153495, Control_c, 0, 64, 56
1, 153495, Control_c, 0, 67, 87
1, 153510, Control_c, 0, 64, 64
1, 153510, Control_c, 0, 67, 89
1, 153525, Control_c, 0, 64, 72
1, 153525, Control_c, 0, 67, 91
1, 153547, Control_c, 0, 64, 85
1, 153547, Control_c, 0, 67, 93
1, 153562, Control_c, 0, 64, 97
1, 153562, Control_c, 0, 67, 95
1, 153576, Control_c, 0, 64, 100
1, 153576, Control_c, 0, 67, 96
1, 153582, Note_off_c, 0, 89, 63
1, 153589, Note_on_c, 0, 87, 69
1, 153591, Control_c, 0, 64, 101
1, 153591, Control_c, 0, 67, 97
1, 153606, Control_c, 0, 64, 103
1, 153621, Control_c, 0, 64, 105
1, 153636, Control_c, 0, 64, 106
1, 153636, Control_c, 0, 67, 97
1, 153650, Note_off_c, 0, 87, 63
1, 153680, Control_c, 0, 67, 98
1, 153695, Note_on_c, 0, 86, 61
1, 153695, Control_c, 0, 67, 98
1, 153710, Control_c, 0, 67, 99
1, 153725, Control_c, 0, 67, 100
1, 153740, Control_c, 0, 67, 101
1, 153748, Note_off_c, 0, 86, 54
1, 153769, Control_c, 0, 67, 101
1, 153777, Note_on_c, 0, 87, 71
1, 153784, Control_c, 0, 67, 102
1, 153799, Control_c, 0, 67, 104
1, 153814, Control_c, 0, 67, 105
1, 153847, Note_off_c, 0, 87, 65
1, 153858, Control_c, 0, 67, 105
1, 153873, Note_on_c, 0, 89, 68
1, 153903, Control_c, 0, 67, 106
1, 153917, Control_c, 0, 67, 106
1, 153932, Control_c, 0, 67, 107
1, 153940, Note_off_c, 0, 89, 64
1, 153947, Control_c, 0, 67, 108
1, 153972, Note_on_c, 0, 90, 58
1, 154006, Control_c, 0, 67, 108
1, 154050, Control_c, 0, 64, 105
1, 154053, Note_on_c, 0, 89, 64
1, 154065, Control_c, 0, 64, 104
1, 154065, Control_c, 0, 67, 109
1, 154080, Control_c, 0, 64, 102
1, 154089, Note_off_c, 0, 90, 53
1, 154094, Control_c, 0, 64, 100
1, 154094, Control_c, 0, 67, 109
1, 154109, Control_c, 0, 64, 98
1, 154109, Control_c, 0, 67, 110
1, 154120, Note_off_c, 0, 89, 63
1, 154124, Control_c, 0, 64, 94
1, 154139, Control_c, 0, 64, 90
1, 154139, Control_c, 0, 67, 110
1, 154145, Note_on_c, 0, 87, 65
1, 154154, Control_c, 0, 64, 87
1, 154154, Control_c, 0, 67, 111
1, 154165, Note_on_c, 0, 68, 43
1, 154169, Control_c, 0, 64, 85
1, 154169, Control_c, 0, 67, 112
1, 154184, Control_c, 0, 67, 112
1, 154195, Note_off_c, 0, 87, 59
1, 154199, Control_c, 0, 67, 113
1, 154214, Control_c, 0, 64, 84
1, 154214, Control_c, 0, 67, 113
1, 154229, Control_c, 0, 64, 84
1, 154229, Control_c, 0, 67, 114
1, 154236, Note_on_c, 0, 89, 65
1, 154244, Control_c, 0, 64, 82
1, 154244, Control_c, 0, 67, 116
1, 154258, Control_c, 0, 64, 80
1, 154258, Control_c, 0, 67, 117
1, 154273, Control_c, 0, 64, 77
1, 154273, Control_c, 0, 67, 118
1, 154296, Control_c, 0, 64, 74
1, 154296, Control_c, 0, 67, 120
1, 154311, Control_c, 0, 64, 70
1, 154311, Control_c, 0, 67, 122
1, 154326, Control_c, 0, 64, 67
1, 154326, Control_c, 0, 67, 124
1, 154330, Note_off_c, 0, 89, 62
1, 154339, Note_on_c, 0, 87, 60
1, 154340, Control_c, 0, 64, 63
1, 154340, Control_c, 0, 67, 126
1, 154355, Control_c, 0, 64, 59
1, 154355, Control_c, 0, 67, 127
1, 154370, Control_c, 0, 64, 53
1, 154385, Control_c, 0, 64, 46
1, 154399, Control_c, 0, 64, 40
1, 154414, Control_c, 0, 64, 37
1, 154426, Note_off_c, 0, 87, 61
1, 154429, Control_c, 0, 64, 38
1, 154438, Note_on_c, 0, 85, 60
1, 154444, Control_c, 0, 64, 46
1, 154459, Control_c, 0, 64, 56
1, 154473, Control_c, 0, 64, 64
1, 154488, Control_c, 0, 64, 68
1, 154503, Control_c, 0, 64, 70
1, 154510, Note_off_c, 0, 85, 63
1, 154518, Control_c, 0, 64, 71
1, 154533, Control_c, 0, 64, 71
1, 154545, Note_on_c, 0, 84, 60
1, 154562, Control_c, 0, 64, 72
1, 154592, Control_c, 0, 64, 72
1, 154640, Note_off_c, 0, 84, 49
1, 154652, Control_c, 0, 64, 72
1, 154661, Note_on_c, 0, 82, 55
1, 154666, Control_c, 0, 64, 71
1, 154681, Control_c, 0, 64, 69
1, 154696, Control_c, 0, 64, 66
1, 154710, Control_c, 0, 64, 62
1, 154725, Control_c, 0, 64, 58
1, 154740, Control_c, 0, 64, 53
1, 154755, Control_c, 0, 64, 49
1, 154770, Control_c, 0, 64, 47
1, 154780, Note_off_c, 0, 82, 56
1, 154784, Control_c, 0, 64, 48
1, 154786, Note_on_c, 0, 80, 54
1, 154799, Control_c, 0, 64, 51
1, 154814, Control_c, 0, 64, 58
1, 154829, Control_c, 0, 64, 63
1, 154844, Control_c, 0, 64, 67
1, 154858, Control_c, 0, 64, 69
1, 154873, Control_c, 0, 64, 70
1, 154888, Control_c, 0, 64, 71
1, 154896, Note_off_c, 0, 80, 58
1, 154903, Control_c, 0, 64, 71
1, 154908, Note_on_c, 0, 78, 55
1, 154917, Control_c, 0, 64, 72
1, 154942, Note_off_c, 0, 60, 27
1, 154947, Control_c, 0, 64, 73
1, 154985, Note_off_c, 0, 68, 35
1, 155074, Control_c, 0, 64, 72
1, 155088, Control_c, 0, 64, 71
1, 155103, Control_c, 0, 64, 70
1, 155110, Note_off_c, 0, 63, 36
1, 155118, Control_c, 0, 64, 67
1, 155133, Control_c, 0, 64, 64
1, 155138, Note_off_c, 0, 78, 56
1, 155146, Note_on_c, 0, 77, 56
1, 155147, Control_c, 0, 64, 60
1, 155162, Control_c, 0, 64, 56
1, 155177, Control_c, 0, 64, 51
1, 155180, Note_on_c, 0, 61, 21
1, 155192, Control_c, 0, 64, 44
1, 155207, Control_c, 0, 64, 34
1, 155221, Control_c, 0, 64, 21
1, 155236, Control_c, 0, 64, 0
1, 155281, Control_c, 0, 64, 17
1, 155296, Control_c, 0, 64, 36
1, 155311, Control_c, 0, 64, 51
1, 155326, Control_c, 0, 64, 61
1, 155340, Control_c, 0, 64, 66
1, 155355, Control_c, 0, 64, 68
1, 155370, Control_c, 0, 64, 70
1, 155382, Note_on_c, 0, 68, 33
1, 155385, Control_c, 0, 64, 73
1, 155394, Note_on_c, 0, 65, 36
1, 155400, Control_c, 0, 64, 79
1, 155414, Control_c, 0, 64, 86
1, 155429, Control_c, 0, 64, 92
1, 155444, Control_c, 0, 64, 99
1, 155450, Note_off_c, 0, 68, 39
1, 155454, Note_off_c, 0, 65, 41
1, 155459, Control_c, 0, 64, 106
1, 155474, Control_c, 0, 64, 115
1, 155488, Control_c, 0, 64, 127
1, 155584, Note_on_c, 0, 68, 40
1, 155586, Note_on_c, 0, 65, 36
1, 155618, Note_off_c, 0, 68, 52
1, 155619, Note_off_c, 0, 65, 53
1, 155675, Note_off_c, 0, 61, 38
1, 155695, Control_c, 0, 67, 126
1, 155710, Control_c, 0, 67, 124
1, 155725, Control_c, 0, 67, 123
1, 155733, Note_on_c, 0, 68, 43
1, 155735, Note_on_c, 0, 65, 39
1, 155740, Control_c, 0, 67, 121
1, 155755, Control_c, 0, 67, 119
1, 155770, Control_c, 0, 67, 118
1, 155793, Control_c, 0, 67, 118
1, 155808, Control_c, 0, 67, 117
1, 155823, Control_c, 0, 67, 117
1, 155838, Control_c, 0, 67, 116
1, 155883, Control_c, 0, 67, 117
1, 155898, Control_c, 0, 67, 118
1, 155911, Note_off_c, 0, 68, 46
1, 155912, Control_c, 0, 64, 106
1, 155912, Control_c, 0, 67, 118
1, 155926, Note_off_c, 0, 65, 28
1, 155927, Control_c, 0, 64, 90
1, 155929, Note_on_c, 0, 61, 47
1, 155942, Control_c, 0, 64, 76
1, 155957, Control_c, 0, 64, 64
1, 155957, Control_c, 0, 67, 118
1, 155971, Control_c, 0, 64, 56
1, 155986, Control_c, 0, 64, 53
1, 155986, Control_c, 0, 67, 117
1, 156001, Control_c, 0, 64, 55
1, 156001, Control_c, 0, 67, 116
1, 156016, Control_c, 0, 64, 59
1, 156016, Control_c, 0, 67, 116
1, 156031, Control_c, 0, 64, 64
1, 156031, Control_c, 0, 67, 114
1, 156045, Control_c, 0, 64, 70
1, 156045, Control_c, 0, 67, 112
1, 156060, Control_c, 0, 64, 80
1, 156060, Control_c, 0, 67, 111
1, 156075, Control_c, 0, 64, 90
1, 156075, Control_c, 0, 67, 110
1, 156090, Control_c, 0, 64, 99
1, 156090, Control_c, 0, 67, 106
1, 156105, Control_c, 0, 64, 107
1, 156105, Control_c, 0, 67, 102
1, 156115, Note_on_c, 0, 68, 40
1, 156119, Control_c, 0, 64, 118
1, 156119, Control_c, 0, 67, 98
1, 156121, Note_on_c, 0, 65, 27
1, 156134, Control_c, 0, 64, 127
1, 156134, Control_c, 0, 67, 93
1, 156149, Control_c, 0, 67, 89
1, 156161, Note_off_c, 0, 65, 49
1, 156163, Control_c, 0, 67, 85
1, 156164, Note_off_c, 0, 68, 46
1, 156178, Control_c, 0, 67, 82
1, 156193, Control_c, 0, 67, 79
1, 156208, Control_c, 0, 67, 78
1, 156223, Control_c, 0, 67, 78
1, 156238, Control_c, 0, 67, 77
1, 156253, Control_c, 0, 67, 74
1, 156265, Note_on_c, 0, 80, 70
1, 156268, Control_c, 0, 67, 69
1, 156282, Control_c, 0, 67, 67
1, 156293, Note_on_c, 0, 68, 38
1, 156297, Note_on_c, 0, 65, 33
1, 156312, Control_c, 0, 67, 68
1, 156327, Control_c, 0, 67, 69
1, 156331, Note_off_c, 0, 68, 49
1, 156337, Note_off_c, 0, 65, 50
1, 156371, Control_c, 0, 67, 70
1, 156386, Control_c, 0, 67, 71
1, 156401, Control_c, 0, 67, 73
1, 156414, Note_off_c, 0, 61, 39
1, 156416, Control_c, 0, 67, 74
1, 156430, Control_c, 0, 67, 75
1, 156445, Control_c, 0, 67, 75
1, 156446, Note_on_c, 0, 68, 48
1, 156450, Note_on_c, 0, 65, 44
1, 156460, Control_c, 0, 67, 76
1, 156475, Control_c, 0, 67, 76
1, 156484, Note_off_c, 0, 77, 29
1, 156490, Control_c, 0, 67, 77
1, 156505, Control_c, 0, 67, 78
1, 156519, Control_c, 0, 67, 78
1, 156542, Control_c, 0, 67, 79
1, 156571, Control_c, 0, 67, 79
1, 156601, Control_c, 0, 64, 98
1, 156601, Control_c, 0, 67, 80
1, 156601, Note_off_c, 0, 68, 31
1, 156616, Control_c, 0, 64, 80
1, 156616, Control_c, 0, 67, 80
1, 156621, Note_off_c, 0, 65, 29
1, 156631, Control_c, 0, 64, 67
1, 156642, Note_on_c, 0, 61, 42
1, 156646, Control_c, 0, 64, 58
1, 156661, Control_c, 0, 64, 51
1, 156676, Control_c, 0, 64, 53
1, 156676, Control_c, 0, 67, 81
1, 156691, Control_c, 0, 64, 58
1, 156706, Control_c, 0, 64, 64
1, 156706, Control_c, 0, 67, 82
1, 156721, Control_c, 0, 64, 71
1, 156721, Control_c, 0, 67, 82
1, 156735, Control_c, 0, 64, 81
1, 156735, Control_c, 0, 67, 83
1, 156740, Note_off_c, 0, 61, 0
1, 156750, Control_c, 0, 64, 93
1, 156750, Control_c, 0, 67, 86
1, 156765, Control_c, 0, 64, 105
1, 156765, Control_c, 0, 67, 87
1, 156777, Poly_aftertouch_c, 0, 61, 127
1, 156780, Control_c, 0, 64, 112
1, 156794, Control_c, 0, 64, 127
1, 156794, Control_c, 0, 67, 87
1, 156813, Note_on_c, 0, 68, 38
1, 156822, Note_on_c, 0, 65, 26
1, 156855, Note_off_c, 0, 68, 48
1, 156858, Note_off_c, 0, 65, 46
1, 156868, Control_c, 0, 67, 87
1, 156913, Control_c, 0, 67, 86
1, 156977, Note_on_c, 0, 85, 79
1, 156988, Note_on_c, 0, 65, 39
1, 156989, Note_on_c, 0, 68, 41
1, 157016, Control_c, 0, 67, 86
1, 157041, Note_off_c, 0, 65, 58
1, 157049, Note_off_c, 0, 68, 46
1, 157075, Control_c, 0, 67, 86
1, 157102, Note_off_c, 0, 80, 62
1, 157135, Control_c, 0, 67, 87
1, 157163, Note_on_c, 0, 68, 57
1, 157170, Note_on_c, 0, 65, 38
1, 157179, Control_c, 0, 67, 87
1, 157189, Note_off_c, 0, 85, 62
1, 157194, Control_c, 0, 67, 88
1, 157208, Poly_aftertouch_c, 0, 61, 0
1, 157219, Note_off_c, 0, 68, 53
1, 157221, Note_off_c, 0, 65, 45
1, 157224, Control_c, 0, 67, 88
1, 157268, Control_c, 0, 67, 89
1, 157290, Control_c, 0, 67, 91
1, 157305, Control_c, 0, 67, 92
1, 157320, Control_c, 0, 67, 93
1, 157335, Control_c, 0, 67, 93
1, 157365, Control_c, 0, 64, 103
1, 157366, Note_on_c, 0, 63, 53
1, 157379, Control_c, 0, 64, 92
1, 157379, Control_c, 0, 67, 94
1, 157392, Note_on_c, 0, 85, 74
1, 157394, Control_c, 0, 64, 82
1, 157409, Control_c, 0, 64, 73
1, 157424, Control_c, 0, 64, 65
1, 157439, Control_c, 0, 64, 57
1, 157454, Control_c, 0, 64, 49
1, 157469, Control_c, 0, 64, 39
1, 157484, Control_c, 0, 64, 30
1, 157499, Control_c, 0, 64, 22
1, 157499, Control_c, 0, 67, 94
1, 157514, Control_c, 0, 64, 20
1, 157528, Control_c, 0, 64, 24
1, 157528, Control_c, 0, 67, 95
1, 157543, Control_c, 0, 64, 41
1, 157558, Control_c, 0, 64, 60
1, 157558, Control_c, 0, 67, 97
1, 157561, Note_on_c, 0, 68, 43
1, 157567, Note_on_c, 0, 66, 41
1, 157573, Control_c, 0, 64, 68
1, 157573, Control_c, 0, 67, 98
1, 157588, Control_c, 0, 64, 74
1, 157603, Control_c, 0, 64, 79
1, 157616, Note_off_c, 0, 68, 43
1, 157617, Note_off_c, 0, 66, 44
1, 157617, Control_c, 0, 64, 81
1, 157632, Control_c, 0, 64, 84
1, 157647, Control_c, 0, 64, 89
1, 157662, Control_c, 0, 64, 97
1, 157677, Control_c, 0, 64, 105
1, 157691, Control_c, 0, 64, 111
1, 157691, Control_c, 0, 67, 97
1, 157706, Control_c, 0, 64, 120
1, 157721, Control_c, 0, 64, 127
1, 157731, Note_on_c, 0, 66, 51
1, 157732, Note_on_c, 0, 68, 50
1, 157770, Note_off_c, 0, 68, 50
1, 157779, Note_off_c, 0, 66, 55
1, 157780, Control_c, 0, 67, 97
1, 157854, Control_c, 0, 67, 96
1, 157898, Note_off_c, 0, 63, 25
1, 157901, Note_on_c, 0, 68, 41
1, 157905, Note_on_c, 0, 66, 47
1, 157965, Note_off_c, 0, 66, 48
1, 157971, Note_off_c, 0, 68, 40
1, 157973, Control_c, 0, 67, 97
1, 158069, Control_c, 0, 64, 115
1, 158069, Control_c, 0, 67, 97
1, 158083, Control_c, 0, 64, 105
1, 158098, Control_c, 0, 64, 97
1, 158106, Note_on_c, 0, 84, 64
1, 158113, Control_c, 0, 64, 89
1, 158122, Note_on_c, 0, 63, 44
1, 158128, Note_off_c, 0, 85, 57
1, 158128, Control_c, 0, 64, 83
1, 158143, Control_c, 0, 64, 78
1, 158157, Control_c, 0, 64, 73
1, 158172, Control_c, 0, 64, 67
1, 158187, Control_c, 0, 64, 61
1, 158202, Control_c, 0, 64, 52
1, 158218, Control_c, 0, 64, 43
1, 158232, Control_c, 0, 64, 38
1, 158232, Control_c, 0, 67, 98
1, 158247, Control_c, 0, 64, 38
1, 158262, Control_c, 0, 64, 42
1, 158277, Control_c, 0, 64, 52
1, 158279, Note_on_c, 0, 68, 40
1, 158282, Note_on_c, 0, 66, 37
1, 158292, Control_c, 0, 64, 62
1, 158307, Control_c, 0, 64, 70
1, 158321, Control_c, 0, 64, 77
1, 158334, Note_off_c, 0, 68, 43
1, 158335, Note_off_c, 0, 66, 43
1, 158336, Control_c, 0, 64, 85
1, 158351, Control_c, 0, 64, 89
1, 158366, Control_c, 0, 64, 92
1, 158381, Control_c, 0, 64, 98
1, 158396, Control_c, 0, 64, 107
1, 158411, Control_c, 0, 64, 124
1, 158426, Control_c, 0, 64, 127
1, 158453, Note_on_c, 0, 68, 44
1, 158453, Note_on_c, 0, 66, 49
1, 158489, Note_off_c, 0, 68, 50
1, 158493, Note_off_c, 0, 66, 49
1, 158588, Control_c, 0, 67, 98
1, 158616, Note_on_c, 0, 66, 41
1, 158616, Note_on_c, 0, 68, 40
1, 158629, Note_off_c, 0, 63, 41
1, 158692, Control_c, 0, 67, 99
1, 158703, Note_off_c, 0, 68, 35
1, 158736, Control_c, 0, 67, 99
1, 158750, Control_c, 0, 64, 122
1, 158765, Control_c, 0, 64, 103
1, 158780, Control_c, 0, 64, 88
1, 158780, Control_c, 0, 67, 99
1, 158796, Note_on_c, 0, 63, 45
1, 158802, Control_c, 0, 64, 74
1, 158817, Control_c, 0, 64, 63
1, 158820, Note_off_c, 0, 66, 40
1, 158831, Control_c, 0, 64, 53
1, 158831, Control_c, 0, 67, 98
1, 158846, Control_c, 0, 64, 45
1, 158861, Control_c, 0, 64, 45
1, 158876, Control_c, 0, 64, 46
1, 158876, Control_c, 0, 67, 98
1, 158891, Control_c, 0, 64, 51
1, 158906, Control_c, 0, 64, 59
1, 158921, Control_c, 0, 64, 65
1, 158921, Control_c, 0, 67, 97
1, 158935, Control_c, 0, 64, 71
1, 158950, Control_c, 0, 64, 76
1, 158950, Control_c, 0, 67, 97
1, 158965, Control_c, 0, 64, 81
1, 158965, Control_c, 0, 67, 96
1, 158967, Note_on_c, 0, 66, 43
1, 158971, Note_on_c, 0, 68, 48
1, 158980, Control_c, 0, 64, 83
1, 158980, Control_c, 0, 67, 95
1, 158995, Control_c, 0, 64, 83
1, 158995, Control_c, 0, 67, 94
1, 159010, Control_c, 0, 64, 84
1, 159010, Control_c, 0, 67, 94
1, 159023, Note_off_c, 0, 68, 43
1, 159025, Control_c, 0, 64, 86
1, 159025, Control_c, 0, 67, 93
1, 159036, Note_off_c, 0, 66, 40
1, 159040, Control_c, 0, 64, 88
1, 159040, Control_c, 0, 67, 91
1, 159055, Control_c, 0, 64, 91
1, 159055, Control_c, 0, 67, 90
1, 159070, Control_c, 0, 64, 93
1, 159070, Control_c, 0, 67, 88
1, 159084, Control_c, 0, 64, 95
1, 159084, Control_c, 0, 67, 87
1, 159099, Control_c, 0, 64, 96
1, 159099, Control_c, 0, 67, 85
1, 159114, Control_c, 0, 64, 98
1, 159114, Control_c, 0, 67, 84
1, 159129, Control_c, 0, 64, 99
1, 159129, Control_c, 0, 67, 83
1, 159142, Note_on_c, 0, 68, 52
1, 159144, Control_c, 0, 64, 101
1, 159144, Control_c, 0, 67, 82
1, 159148, Note_on_c, 0, 66, 53
1, 159159, Control_c, 0, 64, 103
1, 159174, Control_c, 0, 64, 104
1, 159174, Control_c, 0, 67, 83
1, 159182, Note_off_c, 0, 66, 55
1, 159182, Note_off_c, 0, 68, 47
1, 159218, Control_c, 0, 64, 104
1, 159233, Control_c, 0, 67, 84
1, 159248, Control_c, 0, 67, 86
1, 159262, Control_c, 0, 67, 87
1, 159292, Control_c, 0, 67, 87
1, 159307, Control_c, 0, 67, 88
1, 159320, Note_on_c, 0, 66, 54
1, 159321, Note_on_c, 0, 68, 52
1, 159336, Note_off_c, 0, 63, 50
1, 159336, Control_c, 0, 67, 88
1, 159351, Control_c, 0, 67, 89
1, 159355, Note_off_c, 0, 66, 64
1, 159358, Note_off_c, 0, 68, 52
1, 159366, Control_c, 0, 67, 90
1, 159380, Control_c, 0, 67, 91
1, 159410, Control_c, 0, 64, 104
1, 159410, Control_c, 0, 67, 91
1, 159425, Control_c, 0, 67, 92
1, 159440, Control_c, 0, 67, 92
1, 159454, Control_c, 0, 67, 93
1, 159469, Control_c, 0, 64, 103
1, 159484, Control_c, 0, 64, 100
1, 159484, Control_c, 0, 67, 93
1, 159499, Control_c, 0, 64, 95
1, 159514, Control_c, 0, 64, 91
1, 159537, Control_c, 0, 64, 85
1, 159552, Control_c, 0, 64, 79
1, 159552, Control_c, 0, 67, 94
1, 159567, Control_c, 0, 64, 72
1, 159581, Control_c, 0, 64, 66
1, 159582, Note_on_c, 0, 87, 81
1, 159596, Control_c, 0, 64, 60
1, 159597, Note_on_c, 0, 66, 38
1, 159611, Control_c, 0, 64, 55
1, 159615, Note_off_c, 0, 84, 63
1, 159626, Control_c, 0, 64, 50
1, 159641, Control_c, 0, 64, 44
1, 159641, Control_c, 0, 67, 94
1, 159655, Control_c, 0, 64, 30
1, 159655, Control_c, 0, 67, 95
1, 159670, Control_c, 0, 64, 0
1, 159700, Control_c, 0, 67, 94
1, 159744, Control_c, 0, 64, 23
1, 159759, Control_c, 0, 64, 47
1, 159774, Control_c, 0, 64, 63
1, 159774, Control_c, 0, 67, 94
1, 159788, Control_c, 0, 64, 68
1, 159788, Control_c, 0, 67, 93
1, 159800, Note_on_c, 0, 72, 38
1, 159801, Note_on_c, 0, 75, 31
1, 159804, Note_on_c, 0, 68, 32
1, 159804, Control_c, 0, 64, 71
1, 159804, Control_c, 0, 67, 93
1, 159819, Control_c, 0, 64, 73
1, 159819, Control_c, 0, 67, 92
1, 159834, Control_c, 0, 64, 76
1, 159834, Control_c, 0, 67, 91
1, 159835, Note_off_c, 0, 72, 51
1, 159836, Note_off_c, 0, 75, 51
1, 159849, Control_c, 0, 64, 81
1, 159849, Control_c, 0, 67, 90
1, 159851, Note_off_c, 0, 68, 45
1, 159864, Control_c, 0, 64, 89
1, 159864, Control_c, 0, 67, 89
1, 159878, Control_c, 0, 64, 100
1, 159893, Control_c, 0, 64, 111
1, 159893, Control_c, 0, 67, 89
1, 159908, Control_c, 0, 64, 127
1, 159908, Control_c, 0, 67, 88
1, 159945, Note_on_c, 0, 75, 46
1, 159949, Note_on_c, 0, 72, 42
1, 159967, Control_c, 0, 67, 89
1, 159982, Control_c, 0, 67, 89
1, 159987, Note_off_c, 0, 75, 60
1, 159991, Note_off_c, 0, 72, 57
1, 159997, Note_on_c, 0, 68, 27
1, 159997, Control_c, 0, 67, 90
1, 160012, Control_c, 0, 67, 91
1, 160026, Control_c, 0, 67, 92
1, 160035, Note_off_c, 0, 68, 52
1, 160041, Control_c, 0, 67, 93
1, 160050, Note_off_c, 0, 66, 40
1, 160056, Control_c, 0, 67, 95
1, 160071, Control_c, 0, 67, 95
1, 160086, Control_c, 0, 67, 96
1, 160101, Control_c, 0, 67, 96
1, 160114, Note_on_c, 0, 75, 49
1, 160116, Control_c, 0, 67, 97
1, 160122, Note_on_c, 0, 72, 44
1, 160173, Note_off_c, 0, 72, 53
1, 160175, Note_on_c, 0, 68, 22
1, 160175, Control_c, 0, 67, 97
1, 160199, Note_off_c, 0, 75, 46
1, 160214, Note_off_c, 0, 68, 53
1, 160219, Control_c, 0, 67, 98
1, 160263, Control_c, 0, 64, 94
1, 160285, Control_c, 0, 64, 71
1, 160290, Note_on_c, 0, 66, 53
1, 160300, Control_c, 0, 64, 60
1, 160300, Control_c, 0, 67, 98
1, 160315, Control_c, 0, 64, 51
1, 160329, Control_c, 0, 64, 50
1, 160344, Control_c, 0, 64, 55
1, 160359, Control_c, 0, 64, 63
1, 160359, Control_c, 0, 67, 98
1, 160374, Control_c, 0, 64, 72
1, 160389, Control_c, 0, 64, 82
1, 160403, Control_c, 0, 64, 95
1, 160403, Control_c, 0, 67, 98
1, 160418, Control_c, 0, 64, 104
1, 160433, Control_c, 0, 64, 111
1, 160448, Control_c, 0, 64, 127
1, 160448, Control_c, 0, 67, 98
1, 160462, Note_on_c, 0, 75, 53
1, 160470, Note_on_c, 0, 72, 42
1, 160481, Note_on_c, 0, 68, 35
1, 160500, Note_off_c, 0, 72, 54
1, 160504, Note_off_c, 0, 75, 57
1, 160526, Note_off_c, 0, 68, 46
1, 160646, Note_on_c, 0, 84, 80
1, 160650, Note_on_c, 0, 72, 40
1, 160652, Note_on_c, 0, 68, 40
1, 160658, Note_on_c, 0, 75, 39
1, 160688, Note_off_c, 0, 72, 53
1, 160689, Note_off_c, 0, 75, 54
1, 160712, Note_off_c, 0, 68, 39
1, 160730, Note_off_c, 0, 66, 42
1, 160732, Note_off_c, 0, 87, 61
1, 160790, Control_c, 0, 67, 98
1, 160803, Note_on_c, 0, 75, 50
1, 160813, Note_on_c, 0, 72, 46
1, 160844, Note_on_c, 0, 68, 21
1, 160894, Control_c, 0, 67, 99
1, 160952, Control_c, 0, 64, 90
1, 160967, Control_c, 0, 64, 69
1, 160967, Control_c, 0, 67, 99
1, 160969, Note_off_c, 0, 68, 27
1, 160971, Note_on_c, 0, 66, 57
1, 160980, Note_off_c, 0, 75, 39
1, 160982, Control_c, 0, 64, 58
1, 160996, Control_c, 0, 64, 52
1, 160996, Control_c, 0, 67, 100
1, 160998, Note_off_c, 0, 72, 41
1, 161011, Control_c, 0, 64, 55
1, 161011, Control_c, 0, 67, 99
1, 161033, Control_c, 0, 64, 61
1, 161033, Control_c, 0, 67, 100
1, 161048, Control_c, 0, 64, 67
1, 161048, Control_c, 0, 67, 101
1, 161063, Control_c, 0, 64, 75
1, 161078, Control_c, 0, 64, 89
1, 161093, Control_c, 0, 64, 103
1, 161093, Control_c, 0, 67, 101
1, 161107, Control_c, 0, 64, 113
1, 161122, Control_c, 0, 64, 127
1, 161153, Note_on_c, 0, 75, 53
1, 161155, Note_on_c, 0, 72, 40
1, 161187, Note_on_c, 0, 68, 37
1, 161211, Note_off_c, 0, 72, 51
1, 161216, Note_off_c, 0, 75, 55
1, 161247, Note_off_c, 0, 68, 43
1, 161270, Control_c, 0, 67, 101
1, 161320, Note_on_c, 0, 80, 79
1, 161339, Note_on_c, 0, 75, 56
1, 161345, Note_on_c, 0, 72, 42
1, 161375, Note_off_c, 0, 72, 53
1, 161383, Note_on_c, 0, 68, 31
1, 161389, Note_off_c, 0, 75, 54
1, 161396, Note_off_c, 0, 84, 63
1, 161427, Note_off_c, 0, 68, 47
1, 161485, Note_on_c, 0, 72, 52
1, 161493, Control_c, 0, 67, 101
1, 161499, Note_on_c, 0, 75, 47
1, 161506, Note_off_c, 0, 66, 34
1, 161559, Note_off_c, 0, 75, 56
1, 161594, Note_off_c, 0, 80, 54
1, 161622, Note_off_c, 0, 72, 48
1, 161642, Control_c, 0, 64, 116
1, 161656, Control_c, 0, 64, 98
1, 161671, Control_c, 0, 64, 89
1, 161686, Control_c, 0, 64, 81
1, 161689, Note_on_c, 0, 65, 55
1, 161701, Control_c, 0, 64, 75
1, 161716, Control_c, 0, 64, 70
1, 161720, Note_on_c, 0, 80, 73
1, 161730, Control_c, 0, 64, 65
1, 161745, Control_c, 0, 64, 59
1, 161760, Control_c, 0, 64, 51
1, 161782, Control_c, 0, 64, 39
1, 161797, Control_c, 0, 64, 25
1, 161812, Control_c, 0, 64, 0
1, 161842, Control_c, 0, 67, 101
1, 161856, Control_c, 0, 64, 30
1, 161871, Control_c, 0, 64, 51
1, 161886, Control_c, 0, 64, 67
1, 161886, Control_c, 0, 67, 100
1, 161897, Note_on_c, 0, 68, 48
1, 161898, Note_on_c, 0, 73, 47
1, 161901, Control_c, 0, 64, 74
1, 161901, Control_c, 0, 67, 100
1, 161915, Control_c, 0, 64, 82
1, 161915, Control_c, 0, 67, 99
1, 161930, Control_c, 0, 64, 89
1, 161930, Control_c, 0, 67, 98
1, 161943, Note_off_c, 0, 68, 60
1, 161945, Control_c, 0, 64, 96
1, 161945, Control_c, 0, 67, 96
1, 161946, Note_off_c, 0, 73, 57
1, 161960, Control_c, 0, 64, 110
1, 161960, Control_c, 0, 67, 94
1, 161974, Control_c, 0, 64, 127
1, 161974, Control_c, 0, 67, 92
1, 161989, Control_c, 0, 67, 90
1, 162004, Control_c, 0, 67, 88
1, 162019, Control_c, 0, 67, 85
1, 162034, Control_c, 0, 67, 79
1, 162049, Control_c, 0, 67, 71
1, 162061, Note_on_c, 0, 68, 54
1, 162063, Control_c, 0, 67, 59
1, 162066, Note_on_c, 0, 73, 48
1, 162078, Control_c, 0, 67, 46
1, 162093, Control_c, 0, 67, 31
1, 162107, Control_c, 0, 67, 17
1, 162108, Note_off_c, 0, 73, 60
1, 162114, Note_off_c, 0, 68, 58
1, 162122, Control_c, 0, 67, 0
1, 162242, Note_on_c, 0, 73, 54
1, 162244, Note_off_c, 0, 65, 40
1, 162246, Note_on_c, 0, 68, 48
1, 162293, Note_off_c, 0, 73, 53
1, 162375, Control_c, 0, 67, 8
1, 162420, Control_c, 0, 67, 8
1, 162435, Control_c, 0, 67, 9
1, 162437, Note_off_c, 0, 68, 44
1, 162447, Note_on_c, 0, 65, 53
1, 162450, Control_c, 0, 64, 120
1, 162450, Control_c, 0, 67, 10
1, 162465, Control_c, 0, 64, 101
1, 162465, Control_c, 0, 67, 10
1, 162470, Note_on_c, 0, 85, 76
1, 162479, Control_c, 0, 64, 84
1, 162494, Control_c, 0, 64, 70
1, 162509, Control_c, 0, 64, 59
1, 162530, Control_c, 0, 64, 42
1, 162545, Control_c, 0, 64, 25
1, 162560, Control_c, 0, 64, 19
1, 162566, Note_off_c, 0, 80, 61
1, 162575, Control_c, 0, 64, 20
1, 162590, Control_c, 0, 64, 36
1, 162605, Control_c, 0, 64, 54
1, 162620, Control_c, 0, 64, 66
1, 162620, Control_c, 0, 67, 11
1, 162635, Control_c, 0, 64, 76
1, 162635, Control_c, 0, 67, 11
1, 162638, Note_on_c, 0, 68, 51
1, 162641, Note_on_c, 0, 73, 43
1, 162650, Control_c, 0, 64, 87
1, 162665, Control_c, 0, 64, 103
1, 162679, Control_c, 0, 64, 127
1, 162689, Note_off_c, 0, 68, 58
1, 162691, Note_off_c, 0, 73, 57
1, 162802, Note_on_c, 0, 68, 58
1, 162802, Note_on_c, 0, 73, 50
1, 162840, Note_off_c, 0, 68, 62
1, 162842, Note_off_c, 0, 73, 59
1, 162966, Note_on_c, 0, 73, 49
1, 162975, Note_on_c, 0, 68, 51
1, 163018, Note_off_c, 0, 73, 57
1, 163036, Note_off_c, 0, 65, 40
1, 163050, Control_c, 0, 67, 12
1, 163124, Control_c, 0, 64, 96
1, 163124, Control_c, 0, 67, 12
1, 163139, Note_on_c, 0, 65, 67
1, 163139, Control_c, 0, 64, 79
1, 163139, Control_c, 0, 67, 13
1, 163153, Control_c, 0, 64, 76
1, 163153, Control_c, 0, 67, 13
1, 163168, Control_c, 0, 64, 79
1, 163168, Control_c, 0, 67, 14
1, 163183, Control_c, 0, 64, 93
1, 163183, Control_c, 0, 67, 14
1, 163191, Note_off_c, 0, 68, 47
1, 163198, Control_c, 0, 64, 127
1, 163293, Note_off_c, 0, 85, 63
1, 163323, Note_on_c, 0, 68, 53
1, 163330, Note_on_c, 0, 73, 50
1, 163386, Note_off_c, 0, 73, 56
1, 163396, Note_off_c, 0, 68, 56
1, 163522, Note_on_c, 0, 85, 84
1, 163537, Note_on_c, 0, 68, 57
1, 163541, Note_on_c, 0, 73, 46
1, 163588, Note_off_c, 0, 68, 60
1, 163588, Note_off_c, 0, 73, 57
1, 163701, Note_on_c, 0, 73, 47
1, 163711, Note_on_c, 0, 68, 47
1, 163759, Note_off_c, 0, 73, 53
1, 163798, Note_off_c, 0, 85, 60
1, 163967, Note_off_c, 0, 65, 57
1, 163977, Control_c, 0, 64, 108
1, 163985, Note_on_c, 0, 85, 81
1, 163992, Control_c, 0, 64, 89
1, 164002, Note_on_c, 0, 64, 44
1, 164007, Control_c, 0, 64, 79
1, 164015, Note_off_c, 0, 68, 30
1, 164030, Control_c, 0, 64, 71
1, 164045, Control_c, 0, 64, 64
1, 164059, Control_c, 0, 64, 57
1, 164059, Control_c, 0, 67, 14
1, 164074, Control_c, 0, 64, 46
1, 164089, Control_c, 0, 64, 32
1, 164104, Control_c, 0, 64, 0
1, 164148, Control_c, 0, 67, 15
1, 164163, Control_c, 0, 67, 16
1, 164178, Control_c, 0, 67, 17
1, 164192, Control_c, 0, 64, 17
1, 164192, Control_c, 0, 67, 19
1, 164207, Control_c, 0, 64, 47
1, 164207, Control_c, 0, 67, 23
1, 164222, Control_c, 0, 64, 63
1, 164222, Control_c, 0, 67, 26
1, 164236, Note_on_c, 0, 73, 33
1, 164237, Control_c, 0, 64, 69
1, 164237, Control_c, 0, 67, 28
1, 164250, Note_on_c, 0, 68, 37
1, 164251, Control_c, 0, 64, 74
1, 164266, Control_c, 0, 64, 79
1, 164266, Control_c, 0, 67, 28
1, 164281, Control_c, 0, 64, 85
1, 164295, Control_c, 0, 64, 100
1, 164299, Note_off_c, 0, 73, 45
1, 164310, Control_c, 0, 64, 127
1, 164316, Note_off_c, 0, 68, 43
1, 164422, Note_on_c, 0, 73, 41
1, 164428, Note_on_c, 0, 68, 52
1, 164450, Note_off_c, 0, 73, 54
1, 164455, Note_off_c, 0, 68, 61
1, 164475, Note_off_c, 0, 85, 57
1, 164518, Control_c, 0, 67, 29
1, 164533, Control_c, 0, 67, 29
1, 164563, Control_c, 0, 67, 32
1, 164577, Control_c, 0, 67, 34
1, 164578, Note_on_c, 0, 68, 40
1, 164587, Note_on_c, 0, 73, 39
1, 164593, Control_c, 0, 67, 35
1, 164608, Control_c, 0, 67, 36
1, 164623, Control_c, 0, 67, 38
1, 164638, Control_c, 0, 67, 40
1, 164644, Note_off_c, 0, 73, 57
1, 164646, Note_off_c, 0, 64, 45
1, 164653, Control_c, 0, 67, 43
1, 164667, Control_c, 0, 67, 44
1, 164671, Note_off_c, 0, 68, 59
1, 164682, Control_c, 0, 67, 45
1, 164741, Control_c, 0, 67, 45
1, 164793, Control_c, 0, 67, 45
1, 164806, Note_on_c, 0, 85, 75
1, 164830, Note_on_c, 0, 64, 34
1, 164838, Control_c, 0, 67, 44
1, 164853, Control_c, 0, 67, 44
1, 164867, Control_c, 0, 64, 107
1, 164882, Control_c, 0, 64, 90
1, 164897, Control_c, 0, 64, 77
1, 164912, Control_c, 0, 64, 67
1, 164926, Control_c, 0, 64, 60
1, 164941, Control_c, 0, 64, 52
1, 164956, Control_c, 0, 64, 49
1, 164971, Control_c, 0, 64, 49
1, 164986, Control_c, 0, 64, 54
1, 164986, Control_c, 0, 67, 44
1, 165000, Control_c, 0, 64, 63
1, 165000, Control_c, 0, 67, 45
1, 165005, Note_on_c, 0, 68, 44
1, 165015, Control_c, 0, 64, 70
1, 165015, Control_c, 0, 67, 46
1, 165017, Note_on_c, 0, 73, 24
1, 165030, Control_c, 0, 64, 77
1, 165030, Control_c, 0, 67, 48
1, 165043, Note_off_c, 0, 68, 50
1, 165045, Control_c, 0, 64, 90
1, 165045, Control_c, 0, 67, 53
1, 165053, Note_off_c, 0, 73, 46
1, 165060, Control_c, 0, 64, 99
1, 165060, Control_c, 0, 67, 56
1, 165074, Control_c, 0, 64, 108
1, 165074, Control_c, 0, 67, 57
1, 165089, Control_c, 0, 64, 127
1, 165148, Control_c, 0, 67, 58
1, 165157, Note_on_c, 0, 73, 44
1, 165162, Note_on_c, 0, 68, 45
1, 165198, Note_off_c, 0, 73, 58
1, 165201, Note_off_c, 0, 68, 60
1, 165297, Control_c, 0, 67, 58
1, 165326, Control_c, 0, 67, 59
1, 165329, Note_on_c, 0, 68, 44
1, 165335, Note_off_c, 0, 64, 0
1, 165336, Note_on_c, 0, 73, 40
1, 165390, Note_off_c, 0, 73, 50
1, 165398, Poly_aftertouch_c, 0, 64, 0
1, 165398, Note_off_c, 0, 68, 48
1, 165416, Control_c, 0, 67, 59
1, 165446, Control_c, 0, 67, 59
1, 165518, Note_on_c, 0, 64, 48
1, 165541, Control_c, 0, 67, 58
1, 165571, Control_c, 0, 64, 118
1, 165571, Control_c, 0, 67, 58
1, 165586, Control_c, 0, 64, 90
1, 165601, Control_c, 0, 64, 84
1, 165616, Control_c, 0, 64, 84
1, 165630, Control_c, 0, 64, 89
1, 165630, Control_c, 0, 67, 57
1, 165645, Control_c, 0, 64, 104
1, 165645, Control_c, 0, 67, 56
1, 165646, Note_off_c, 0, 85, 54
1, 165660, Control_c, 0, 64, 127
1, 165660, Control_c, 0, 67, 55
1, 165675, Control_c, 0, 67, 54
1, 165687, Note_on_c, 0, 73, 45
1, 165690, Control_c, 0, 67, 52
1, 165704, Control_c, 0, 67, 50
1, 165705, Note_on_c, 0, 68, 38
1, 165719, Control_c, 0, 67, 48
1, 165734, Control_c, 0, 67, 47
1, 165738, Note_off_c, 0, 68, 53
1, 165747, Note_off_c, 0, 73, 54
1, 165748, Control_c, 0, 67, 46
1, 165763, Control_c, 0, 67, 46
1, 165778, Control_c, 0, 67, 45
1, 165793, Control_c, 0, 67, 44
1, 165808, Control_c, 0, 67, 43
1, 165822, Control_c, 0, 67, 42
1, 165837, Control_c, 0, 67, 40
1, 165847, Note_on_c, 0, 85, 73
1, 165852, Control_c, 0, 67, 39
1, 165857, Note_on_c, 0, 68, 44
1, 165867, Note_off_c, 0, 64, 0
1, 165867, Note_on_c, 0, 64, 19
1, 165867, Control_c, 0, 67, 38
1, 165887, Note_on_c, 0, 73, 30
1, 165905, Note_off_c, 0, 68, 59
1, 165911, Control_c, 0, 67, 40
1, 165920, Note_off_c, 0, 73, 52
1, 165926, Control_c, 0, 67, 42
1, 165941, Control_c, 0, 67, 43
1, 165955, Control_c, 0, 67, 45
1, 165970, Control_c, 0, 67, 47
1, 165985, Control_c, 0, 67, 48
1, 166000, Control_c, 0, 67, 50
1, 166015, Control_c, 0, 67, 50
1, 166030, Control_c, 0, 67, 51
1, 166031, Note_on_c, 0, 68, 46
1, 166033, Note_on_c, 0, 73, 45
1, 166060, Control_c, 0, 67, 52
1, 166075, Control_c, 0, 67, 52
1, 166100, Note_off_c, 0, 85, 62
1, 166104, Control_c, 0, 67, 53
1, 166109, Note_off_c, 0, 64, 41
1, 166123, Note_off_c, 0, 73, 44
1, 166129, Note_off_c, 0, 68, 0
1, 166129, Note_on_c, 0, 68, 12
1, 166239, Control_c, 0, 64, 111
1, 166254, Control_c, 0, 64, 94
1, 166271, Note_on_c, 0, 85, 68
1, 166276, Control_c, 0, 64, 83
1, 166286, Note_on_c, 0, 63, 44
1, 166291, Control_c, 0, 64, 76
1, 166291, Control_c, 0, 67, 53
1, 166306, Control_c, 0, 64, 71
1, 166310, Note_off_c, 0, 68, 42
1, 166320, Control_c, 0, 64, 66
1, 166335, Control_c, 0, 64, 63
1, 166335, Control_c, 0, 67, 54
1, 166350, Control_c, 0, 64, 58
1, 166350, Control_c, 0, 67, 56
1, 166365, Control_c, 0, 64, 52
1, 166365, Control_c, 0, 67, 60
1, 166379, Control_c, 0, 64, 43
1, 166379, Control_c, 0, 67, 63
1, 166394, Control_c, 0, 64, 28
1, 166394, Control_c, 0, 67, 65
1, 166409, Control_c, 0, 64, 0
1, 166409, Control_c, 0, 67, 67
1, 166424, Control_c, 0, 67, 70
1, 166439, Control_c, 0, 67, 75
1, 166453, Control_c, 0, 67, 79
1, 166467, Note_on_c, 0, 71, 40
1, 166468, Control_c, 0, 64, 23
1, 166468, Control_c, 0, 67, 81
1, 166471, Note_on_c, 0, 66, 40
1, 166483, Control_c, 0, 64, 47
1, 166483, Control_c, 0, 67, 82
1, 166498, Control_c, 0, 64, 62
1, 166509, Note_off_c, 0, 71, 48
1, 166513, Control_c, 0, 64, 70
1, 166513, Control_c, 0, 67, 82
1, 166528, Control_c, 0, 64, 76
1, 166531, Note_off_c, 0, 66, 43
1, 166543, Control_c, 0, 64, 81
1, 166543, Control_c, 0, 67, 83
1, 166558, Control_c, 0, 64, 86
1, 166572, Control_c, 0, 64, 94
1, 166572, Control_c, 0, 67, 82
1, 166587, Control_c, 0, 64, 107
1, 166587, Control_c, 0, 67, 82
1, 166602, Control_c, 0, 64, 127
1, 166632, Control_c, 0, 67, 82
1, 166635, Note_on_c, 0, 71, 43
1, 166650, Note_on_c, 0, 66, 50
1, 166676, Control_c, 0, 67, 82
1, 166683, Note_off_c, 0, 71, 57
1, 166686, Note_off_c, 0, 66, 63
1, 166802, Note_on_c, 0, 71, 46
1, 166804, Note_on_c, 0, 66, 44
1, 166850, Note_off_c, 0, 71, 55
1, 166873, Note_off_c, 0, 63, 42
1, 166957, Control_c, 0, 67, 82
1, 166967, Note_off_c, 0, 66, 20
1, 166995, Note_on_c, 0, 83, 60
1, 166996, Note_on_c, 0, 63, 46
1, 167002, Control_c, 0, 64, 101
1, 167025, Control_c, 0, 64, 86
1, 167040, Control_c, 0, 64, 76
1, 167055, Control_c, 0, 64, 68
1, 167058, Note_off_c, 0, 85, 58
1, 167069, Control_c, 0, 64, 61
1, 167084, Control_c, 0, 64, 52
1, 167099, Control_c, 0, 64, 44
1, 167114, Control_c, 0, 64, 37
1, 167129, Control_c, 0, 64, 36
1, 167143, Control_c, 0, 64, 40
1, 167143, Control_c, 0, 67, 83
1, 167158, Control_c, 0, 64, 52
1, 167158, Control_c, 0, 67, 83
1, 167169, Note_on_c, 0, 71, 43
1, 167173, Control_c, 0, 64, 63
1, 167175, Note_on_c, 0, 66, 34
1, 167188, Control_c, 0, 64, 71
1, 167202, Control_c, 0, 64, 80
1, 167211, Note_off_c, 0, 71, 55
1, 167217, Control_c, 0, 64, 91
1, 167231, Note_off_c, 0, 66, 45
1, 167232, Control_c, 0, 64, 95
1, 167247, Control_c, 0, 64, 98
1, 167247, Control_c, 0, 67, 84
1, 167262, Control_c, 0, 64, 104
1, 167276, Control_c, 0, 64, 115
1, 167291, Control_c, 0, 64, 127
1, 167321, Control_c, 0, 67, 84
1, 167336, Control_c, 0, 67, 86
1, 167344, Note_on_c, 0, 71, 36
1, 167347, Note_on_c, 0, 66, 50
1, 167351, Control_c, 0, 67, 90
1, 167365, Control_c, 0, 67, 93
1, 167377, Note_off_c, 0, 71, 51
1, 167380, Control_c, 0, 67, 94
1, 167386, Note_off_c, 0, 66, 60
1, 167443, Note_off_c, 0, 63, 42
1, 167499, Control_c, 0, 67, 94
1, 167503, Note_on_c, 0, 66, 45
1, 167511, Note_on_c, 0, 71, 33
1, 167528, Control_c, 0, 67, 94
1, 167554, Note_off_c, 0, 71, 46
1, 167602, Control_c, 0, 67, 95
1, 167647, Control_c, 0, 64, 93
1, 167652, Note_off_c, 0, 66, 24
1, 167662, Control_c, 0, 64, 74
1, 167676, Note_on_c, 0, 63, 46
1, 167676, Control_c, 0, 64, 62
1, 167676, Control_c, 0, 67, 95
1, 167691, Control_c, 0, 64, 53
1, 167691, Control_c, 0, 67, 96
1, 167706, Control_c, 0, 64, 52
1, 167706, Control_c, 0, 67, 99
1, 167720, Control_c, 0, 64, 55
1, 167720, Control_c, 0, 67, 101
1, 167735, Control_c, 0, 64, 61
1, 167735, Control_c, 0, 67, 101
1, 167750, Control_c, 0, 64, 66
1, 167750, Control_c, 0, 67, 102
1, 167773, Control_c, 0, 64, 72
1, 167773, Control_c, 0, 67, 103
1, 167788, Control_c, 0, 64, 80
1, 167788, Control_c, 0, 67, 107
1, 167804, Control_c, 0, 64, 90
1, 167804, Control_c, 0, 67, 110
1, 167818, Control_c, 0, 64, 100
1, 167818, Control_c, 0, 67, 111
1, 167833, Control_c, 0, 64, 106
1, 167848, Control_c, 0, 64, 113
1, 167863, Control_c, 0, 64, 127
1, 167863, Control_c, 0, 67, 111
1, 167878, Note_on_c, 0, 71, 33
1, 167890, Note_off_c, 0, 83, 55
1, 167892, Control_c, 0, 67, 112
1, 167907, Control_c, 0, 67, 113
1, 167910, Note_off_c, 0, 71, 51
1, 167912, Poly_aftertouch_c, 0, 66, 127
1, 167957, Poly_aftertouch_c, 0, 66, 0
1, 168024, Note_on_c, 0, 83, 68
1, 168025, Control_c, 0, 67, 113
1, 168055, Control_c, 0, 67, 114
1, 168070, Note_on_c, 0, 71, 6
1, 168076, Note_on_c, 0, 66, 41
1, 168085, Control_c, 0, 67, 114
1, 168111, Note_off_c, 0, 66, 50
1, 168114, Control_c, 0, 67, 115
1, 168119, Note_off_c, 0, 71, 37
1, 168129, Control_c, 0, 67, 116
1, 168143, Control_c, 0, 67, 117
1, 168158, Control_c, 0, 67, 119
1, 168173, Control_c, 0, 67, 120
1, 168185, Note_off_c, 0, 63, 40
1, 168188, Control_c, 0, 67, 122
1, 168198, Note_off_c, 0, 83, 65
1, 168203, Control_c, 0, 67, 124
1, 168217, Note_on_c, 0, 71, 30
1, 168218, Control_c, 0, 67, 125
1, 168233, Control_c, 0, 67, 126
1, 168236, Note_on_c, 0, 66, 24
1, 168248, Control_c, 0, 67, 127
1, 168257, Note_off_c, 0, 71, 47
1, 168288, Note_off_c, 0, 66, 43
1, 168394, Note_on_c, 0, 83, 65
1, 168409, Note_on_c, 0, 63, 43
1, 168470, Control_c, 0, 64, 93
1, 168485, Control_c, 0, 64, 78
1, 168499, Control_c, 0, 64, 69
1, 168522, Control_c, 0, 64, 67
1, 168537, Control_c, 0, 64, 69
1, 168551, Control_c, 0, 64, 74
1, 168566, Control_c, 0, 64, 84
1, 168581, Control_c, 0, 64, 98
1, 168586, Note_on_c, 0, 71, 36
1, 168595, Note_on_c, 0, 66, 36
1, 168597, Control_c, 0, 64, 120
1, 168611, Control_c, 0, 64, 127
1, 168646, Note_off_c, 0, 71, 40
1, 168661, Note_off_c, 0, 66, 40
1, 168768, Note_on_c, 0, 81, 60
1, 168783, Note_off_c, 0, 83, 61
1, 168794, Note_on_c, 0, 71, 33
1, 168802, Note_on_c, 0, 66, 40
1, 168828, Note_off_c, 0, 71, 51
1, 168837, Note_off_c, 0, 66, 50
1, 168909, Note_off_c, 0, 63, 43
1, 168939, Note_on_c, 0, 71, 39
1, 168946, Note_on_c, 0, 66, 47
1, 169001, Note_off_c, 0, 71, 38
1, 169090, Note_off_c, 0, 66, 0
1, 169117, Note_on_c, 0, 63, 49
1, 169153, Poly_aftertouch_c, 0, 66, 0
1, 169154, Note_off_c, 0, 81, 61
1, 169190, Note_on_c, 0, 83, 59
1, 169281, Note_off_c, 0, 83, 60
1, 169285, Note_on_c, 0, 81, 60
1, 169307, Note_on_c, 0, 66, 36
1, 169318, Note_on_c, 0, 71, 42
1, 169339, Note_off_c, 0, 81, 50
1, 169366, Note_off_c, 0, 71, 45
1, 169375, Note_on_c, 0, 80, 63
1, 169407, Note_off_c, 0, 66, 37
1, 169470, Note_on_c, 0, 81, 74
1, 169493, Note_off_c, 0, 80, 58
1, 169499, Note_on_c, 0, 71, 35
1, 169511, Note_on_c, 0, 66, 42
1, 169533, Note_off_c, 0, 71, 50
1, 169538, Control_c, 0, 67, 127
1, 169550, Note_off_c, 0, 66, 49
1, 169552, Control_c, 0, 67, 126
1, 169567, Control_c, 0, 67, 125
1, 169582, Control_c, 0, 67, 125
1, 169596, Control_c, 0, 67, 124
1, 169660, Note_on_c, 0, 66, 45
1, 169660, Note_on_c, 0, 83, 69
1, 169660, Note_off_c, 0, 63, 30
1, 169660, Note_off_c, 0, 81, 64
1, 169663, Note_on_c, 0, 71, 39
1, 169685, Control_c, 0, 67, 125
1, 169708, Note_off_c, 0, 71, 50
1, 169729, Control_c, 0, 67, 125
1, 169744, Control_c, 0, 67, 126
1, 169759, Control_c, 0, 67, 127
1, 169774, Control_c, 0, 67, 127
1, 169780, Note_off_c, 0, 66, 27
1, 169801, Note_off_c, 0, 83, 64
1, 169861, Note_on_c, 0, 81, 60
1, 169874, Note_on_c, 0, 63, 46
1, 169907, Control_c, 0, 64, 102
1, 169914, Note_off_c, 0, 81, 51
1, 169922, Control_c, 0, 64, 74
1, 169937, Control_c, 0, 64, 61
1, 169952, Control_c, 0, 64, 50
1, 169962, Note_on_c, 0, 83, 58
1, 169967, Control_c, 0, 64, 45
1, 169982, Control_c, 0, 64, 46
1, 169997, Control_c, 0, 64, 52
1, 170019, Control_c, 0, 64, 59
1, 170034, Control_c, 0, 64, 66
1, 170040, Note_off_c, 0, 83, 64
1, 170049, Control_c, 0, 64, 72
1, 170060, Note_on_c, 0, 66, 33
1, 170060, Note_on_c, 0, 85, 63
1, 170063, Control_c, 0, 64, 82
1, 170072, Note_on_c, 0, 71, 36
1, 170078, Control_c, 0, 64, 96
1, 170093, Control_c, 0, 64, 111
1, 170108, Control_c, 0, 64, 127
1, 170113, Note_off_c, 0, 71, 48
1, 170138, Note_off_c, 0, 66, 40
1, 170263, Note_on_c, 0, 66, 45
1, 170264, Note_on_c, 0, 83, 60
1, 170275, Note_on_c, 0, 71, 34
1, 170283, Note_off_c, 0, 85, 56
1, 170306, Note_off_c, 0, 66, 46
1, 170311, Note_off_c, 0, 71, 49
1, 170461, Note_off_c, 0, 83, 65
1, 170471, Note_on_c, 0, 66, 40
1, 170482, Note_on_c, 0, 81, 56
1, 170497, Note_on_c, 0, 71, 14
1, 170531, Note_off_c, 0, 66, 58
1, 170542, Note_off_c, 0, 71, 49
1, 170560, Note_off_c, 0, 63, 41
1, 170659, Note_off_c, 0, 81, 47
1, 170731, Control_c, 0, 64, 85
1, 170746, Control_c, 0, 64, 67
1, 170747, Note_on_c, 0, 71, 35
1, 170750, Note_on_c, 0, 64, 40
1, 170754, Note_on_c, 0, 80, 54
1, 170755, Note_on_c, 0, 68, 41
1, 170768, Control_c, 0, 64, 52
1, 170783, Control_c, 0, 64, 32
1, 170798, Control_c, 0, 64, 16
1, 170812, Control_c, 0, 64, 13
1, 170827, Control_c, 0, 64, 16
1, 170842, Control_c, 0, 64, 35
1, 170855, Note_off_c, 0, 80, 60
1, 170857, Control_c, 0, 64, 53
1, 170872, Control_c, 0, 64, 65
1, 170883, Note_on_c, 0, 88, 42
1, 170886, Control_c, 0, 64, 72
1, 170901, Control_c, 0, 64, 80
1, 170916, Control_c, 0, 64, 86
1, 170921, Note_off_c, 0, 88, 48
1, 170931, Control_c, 0, 64, 90
1, 170946, Control_c, 0, 64, 95
1, 170960, Control_c, 0, 64, 101
1, 170970, Note_on_c, 0, 83, 53
1, 170975, Control_c, 0, 64, 110
1, 170979, Note_off_c, 0, 71, 41
1, 170987, Note_off_c, 0, 64, 55
1, 170991, Control_c, 0, 64, 127
1, 170993, Note_off_c, 0, 83, 61
1, 170996, Note_off_c, 0, 68, 54
1, 171044, Note_on_c, 0, 88, 60
1, 171114, Note_off_c, 0, 88, 64
1, 171139, Note_on_c, 0, 92, 59
1, 171229, Note_off_c, 0, 92, 62
1, 171236, Note_on_c, 0, 88, 52
1, 171282, Note_off_c, 0, 88, 59
1, 171303, Note_on_c, 0, 83, 56
1, 171364, Note_off_c, 0, 83, 50
1, 171378, Note_on_c, 0, 88, 63
1, 171408, Note_off_c, 0, 88, 68
1, 171456, Note_on_c, 0, 80, 54
1, 171517, Note_off_c, 0, 80, 54
1, 171539, Note_on_c, 0, 76, 57
1, 171575, Note_off_c, 0, 76, 61
1, 171646, Note_on_c, 0, 71, 47
1, 171709, Note_on_c, 0, 76, 57
1, 171735, Note_off_c, 0, 71, 61
1, 171746, Note_off_c, 0, 76, 58
1, 171789, Note_on_c, 0, 68, 56
1, 171844, Control_c, 0, 67, 127
1, 171858, Control_c, 0, 67, 126
1, 171868, Note_off_c, 0, 68, 56
1, 171886, Note_on_c, 0, 64, 43
1, 171926, Note_off_c, 0, 64, 60
1, 171947, Control_c, 0, 67, 126
1, 171957, Note_on_c, 0, 59, 45
1, 171977, Control_c, 0, 67, 126
1, 172032, Note_on_c, 0, 64, 51
1, 172040, Note_off_c, 0, 59, 37
1, 172086, Note_off_c, 0, 64, 62
1, 172111, Note_on_c, 0, 56, 63
1, 172174, Note_off_c, 0, 56, 58
1, 172193, Note_on_c, 0, 52, 64
1, 172214, Control_c, 0, 67, 126
1, 172242, Control_c, 0, 67, 125
1, 172264, Control_c, 0, 67, 124
1, 172279, Control_c, 0, 67, 123
1, 172282, Note_off_c, 0, 52, 62
1, 172304, Note_on_c, 0, 47, 38
1, 172309, Control_c, 0, 67, 124
1, 172337, Note_off_c, 0, 47, 55
1, 172373, Note_on_c, 0, 52, 48
1, 172397, Control_c, 0, 67, 124
1, 172424, Note_off_c, 0, 52, 46
1, 172427, Control_c, 0, 67, 124
1, 172457, Control_c, 0, 64, 105
1, 172460, Note_on_c, 0, 40, 63
1, 172461, Note_on_c, 0, 44, 60
1, 172472, Control_c, 0, 64, 96
1, 172486, Note_off_c, 0, 40, 61
1, 172516, Control_c, 0, 64, 100
1, 172531, Control_c, 0, 64, 113
1, 172533, Note_off_c, 0, 44, 52
1, 172541, Note_on_c, 0, 52, 55
1, 172546, Control_c, 0, 64, 127
1, 172561, Control_c, 0, 67, 124
1, 172591, Control_c, 0, 64, 105
1, 172591, Control_c, 0, 67, 125
1, 172604, Note_off_c, 0, 52, 63
1, 172606, Control_c, 0, 64, 83
1, 172606, Control_c, 0, 67, 126
1, 172621, Note_on_c, 0, 47, 57
1, 172621, Control_c, 0, 64, 69
1, 172621, Control_c, 0, 67, 126
1, 172636, Control_c, 0, 64, 57
1, 172636, Control_c, 0, 67, 127
1, 172651, Control_c, 0, 64, 51
1, 172665, Control_c, 0, 64, 45
1, 172665, Control_c, 0, 67, 127
1, 172678, Note_off_c, 0, 47, 61
1, 172680, Control_c, 0, 64, 36
1, 172692, Note_on_c, 0, 52, 59
1, 172695, Control_c, 0, 64, 22
1, 172710, Control_c, 0, 64, 0
1, 172761, Note_off_c, 0, 52, 64
1, 172807, Note_on_c, 0, 42, 62
1, 172826, Note_on_c, 0, 39, 44
1, 172841, Note_on_c, 0, 35, 40
1, 172852, Note_on_c, 0, 30, 39
1, 172858, Control_c, 0, 67, 127
1, 172869, Note_off_c, 0, 39, 55
1, 172873, Control_c, 0, 64, 22
1, 172873, Control_c, 0, 67, 126
1, 172887, Control_c, 0, 64, 46
1, 172887, Control_c, 0, 67, 125
1, 172902, Control_c, 0, 64, 59
1, 172902, Control_c, 0, 67, 124
1, 172904, Note_off_c, 0, 30, 63
1, 172907, Note_on_c, 0, 47, 44
1, 172917, Control_c, 0, 64, 63
1, 172917, Control_c, 0, 67, 122
1, 172922, Note_off_c, 0, 42, 61
1, 172931, Control_c, 0, 64, 64
1, 172931, Control_c, 0, 67, 120
1, 172939, Note_off_c, 0, 35, 57
1, 172946, Control_c, 0, 64, 66
1, 172946, Control_c, 0, 67, 118
1, 172961, Control_c, 0, 64, 68
1, 172961, Control_c, 0, 67, 117
1, 172974, Note_off_c, 0, 47, 58
1, 172976, Control_c, 0, 64, 71
1, 172976, Control_c, 0, 67, 116
1, 172991, Control_c, 0, 64, 73
1, 173008, Note_on_c, 0, 45, 52
1, 173013, Control_c, 0, 64, 75
1, 173028, Control_c, 0, 64, 76
1, 173043, Control_c, 0, 64, 77
1, 173043, Control_c, 0, 67, 117
1, 173058, Control_c, 0, 64, 78
1, 173058, Control_c, 0, 67, 118
1, 173071, Note_off_c, 0, 45, 61
1, 173073, Control_c, 0, 64, 80
1, 173073, Control_c, 0, 67, 119
1, 173087, Control_c, 0, 64, 82
1, 173087, Control_c, 0, 67, 120
1, 173095, Note_on_c, 0, 47, 66
1, 173102, Control_c, 0, 64, 83
1, 173102, Control_c, 0, 67, 121
1, 173117, Control_c, 0, 67, 123
1, 173132, Control_c, 0, 67, 125
1, 173145, Note_off_c, 0, 47, 62
1, 173146, Control_c, 0, 67, 126
1, 173161, Control_c, 0, 64, 82
1, 173161, Control_c, 0, 67, 127
1, 173165, Note_on_c, 0, 51, 58
1, 173176, Control_c, 0, 64, 75
1, 173191, Control_c, 0, 64, 66
1, 173191, Control_c, 0, 67, 127
1, 173206, Control_c, 0, 64, 55
1, 173220, Control_c, 0, 64, 40
1, 173231, Note_on_c, 0, 47, 52
1, 173235, Control_c, 0, 64, 29
1, 173246, Note_off_c, 0, 51, 49
1, 173250, Control_c, 0, 64, 26
1, 173265, Control_c, 0, 64, 30
1, 173280, Control_c, 0, 64, 44
1, 173294, Control_c, 0, 64, 58
1, 173297, Note_on_c, 0, 45, 67
1, 173300, Note_off_c, 0, 47, 56
1, 173309, Control_c, 0, 64, 66
1, 173324, Control_c, 0, 64, 68
1, 173339, Control_c, 0, 64, 71
1, 173343, Note_off_c, 0, 45, 63
1, 173354, Control_c, 0, 64, 73
1, 173369, Control_c, 0, 64, 76
1, 173384, Control_c, 0, 64, 79
1, 173399, Control_c, 0, 64, 80
1, 173399, Control_c, 0, 67, 127
1, 173405, Note_on_c, 0, 47, 62
1, 173414, Control_c, 0, 67, 126
1, 173444, Control_c, 0, 64, 78
1, 173458, Control_c, 0, 64, 71
1, 173458, Control_c, 0, 67, 127
1, 173473, Control_c, 0, 64, 61
1, 173473, Control_c, 0, 67, 127
1, 173474, Note_off_c, 0, 47, 48
1, 173481, Note_on_c, 0, 42, 71
1, 173488, Control_c, 0, 64, 45
1, 173496, Note_on_c, 0, 51, 56
1, 173503, Control_c, 0, 64, 26
1, 173507, Note_on_c, 0, 30, 46
1, 173513, Note_on_c, 0, 35, 50
1, 173518, Control_c, 0, 64, 20
1, 173533, Control_c, 0, 64, 21
1, 173540, Note_off_c, 0, 51, 63
1, 173548, Control_c, 0, 64, 36
1, 173562, Control_c, 0, 64, 54
1, 173577, Control_c, 0, 64, 64
1, 173584, Note_off_c, 0, 30, 59
1, 173587, Note_on_c, 0, 59, 50
1, 173592, Control_c, 0, 64, 68
1, 173604, Note_off_c, 0, 42, 63
1, 173607, Control_c, 0, 64, 69
1, 173610, Note_off_c, 0, 59, 61
1, 173619, Note_off_c, 0, 35, 53
1, 173622, Control_c, 0, 64, 71
1, 173636, Control_c, 0, 64, 73
1, 173651, Control_c, 0, 64, 76
1, 173663, Note_on_c, 0, 57, 62
1, 173666, Control_c, 0, 64, 78
1, 173681, Control_c, 0, 64, 81
1, 173696, Control_c, 0, 64, 84
1, 173710, Control_c, 0, 64, 87
1, 173714, Note_off_c, 0, 57, 62
1, 173726, Control_c, 0, 64, 90
1, 173736, Note_on_c, 0, 59, 46
1, 173741, Control_c, 0, 64, 93
1, 173762, Control_c, 0, 64, 96
1, 173777, Control_c, 0, 64, 97
1, 173810, Note_off_c, 0, 59, 65
1, 173822, Control_c, 0, 64, 97
1, 173829, Note_on_c, 0, 63, 69
1, 173837, Control_c, 0, 64, 89
1, 173852, Control_c, 0, 64, 77
1, 173867, Control_c, 0, 64, 69
1, 173882, Control_c, 0, 64, 64
1, 173909, Note_on_c, 0, 59, 63
1, 173911, Control_c, 0, 64, 67
1, 173912, Note_off_c, 0, 63, 58
1, 173926, Control_c, 0, 64, 71
1, 173941, Control_c, 0, 64, 77
1, 173955, Control_c, 0, 64, 82
1, 173963, Note_off_c, 0, 59, 61
1, 173970, Control_c, 0, 64, 83
1, 173974, Note_on_c, 0, 57, 69
1, 174007, Note_off_c, 0, 57, 65
1, 174015, Control_c, 0, 64, 82
1, 174029, Control_c, 0, 64, 79
1, 174044, Control_c, 0, 64, 73
1, 174059, Control_c, 0, 64, 66
1, 174069, Note_on_c, 0, 59, 68
1, 174074, Control_c, 0, 64, 57
1, 174088, Control_c, 0, 64, 42
1, 174103, Control_c, 0, 64, 12
1, 174118, Control_c, 0, 64, 0
1, 174154, Note_on_c, 0, 42, 72
1, 174156, Note_off_c, 0, 59, 59
1, 174159, Note_on_c, 0, 63, 60
1, 174177, Note_on_c, 0, 30, 50
1, 174185, Note_on_c, 0, 35, 50
1, 174193, Control_c, 0, 64, 38
1, 174201, Note_off_c, 0, 63, 65
1, 174208, Control_c, 0, 64, 58
1, 174223, Control_c, 0, 64, 66
1, 174238, Control_c, 0, 64, 69
1, 174239, Note_on_c, 0, 71, 65
1, 174252, Control_c, 0, 64, 70
1, 174267, Control_c, 0, 64, 71
1, 174271, Note_off_c, 0, 71, 62
1, 174275, Note_off_c, 0, 30, 56
1, 174282, Control_c, 0, 64, 72
1, 174297, Control_c, 0, 64, 75
1, 174304, Note_off_c, 0, 42, 59
1, 174312, Control_c, 0, 64, 78
1, 174317, Note_on_c, 0, 69, 69
1, 174326, Control_c, 0, 64, 81
1, 174341, Control_c, 0, 64, 84
1, 174353, Note_off_c, 0, 35, 44
1, 174356, Control_c, 0, 64, 86
1, 174371, Control_c, 0, 64, 88
1, 174372, Note_off_c, 0, 69, 64
1, 174385, Control_c, 0, 64, 90
1, 174398, Note_on_c, 0, 71, 63
1, 174400, Control_c, 0, 64, 92
1, 174415, Control_c, 0, 64, 94
1, 174430, Control_c, 0, 64, 95
1, 174460, Control_c, 0, 64, 95
1, 174463, Note_off_c, 0, 71, 62
1, 174475, Control_c, 0, 64, 91
1, 174484, Note_on_c, 0, 75, 71
1, 174490, Control_c, 0, 64, 79
1, 174511, Control_c, 0, 64, 68
1, 174511, Control_c, 0, 67, 127
1, 174526, Control_c, 0, 64, 61
1, 174526, Control_c, 0, 67, 125
1, 174541, Control_c, 0, 64, 59
1, 174541, Control_c, 0, 67, 124
1, 174556, Control_c, 0, 64, 63
1, 174556, Control_c, 0, 67, 122
1, 174560, Note_off_c, 0, 75, 63
1, 174571, Control_c, 0, 64, 68
1, 174571, Control_c, 0, 67, 121
1, 174573, Note_on_c, 0, 71, 65
1, 174585, Control_c, 0, 64, 76
1, 174585, Control_c, 0, 67, 120
1, 174600, Control_c, 0, 64, 87
1, 174600, Control_c, 0, 67, 119
1, 174615, Control_c, 0, 64, 92
1, 174615, Control_c, 0, 67, 117
1, 174630, Control_c, 0, 67, 117
1, 174633, Note_off_c, 0, 71, 59
1, 174649, Note_on_c, 0, 69, 72
1, 174687, Note_off_c, 0, 69, 63
1, 174734, Control_c, 0, 64, 88
1, 174734, Control_c, 0, 67, 118
1, 174738, Note_on_c, 0, 71, 64
1, 174749, Control_c, 0, 64, 79
1, 174749, Control_c, 0, 67, 119
1, 174761, Note_off_c, 0, 71, 64
1, 174764, Control_c, 0, 64, 66
1, 174764, Control_c, 0, 67, 119
1, 174778, Control_c, 0, 64, 52
1, 174793, Control_c, 0, 64, 26
1, 174808, Control_c, 0, 64, 0
1, 174808, Control_c, 0, 67, 120
1, 174823, Control_c, 0, 67, 120
1, 174827, Note_on_c, 0, 44, 68
1, 174830, Note_on_c, 0, 76, 64
1, 174838, Control_c, 0, 67, 121
1, 174849, Note_on_c, 0, 32, 48
1, 174853, Control_c, 0, 67, 121
1, 174853, Note_on_c, 0, 35, 51
1, 174867, Control_c, 0, 67, 122
1, 174882, Control_c, 0, 67, 122
1, 174897, Control_c, 0, 64, 29
1, 174911, Control_c, 0, 64, 53
1, 174911, Control_c, 0, 67, 123
1, 174921, Note_on_c, 0, 83, 69
1, 174926, Control_c, 0, 64, 65
1, 174941, Control_c, 0, 64, 69
1, 174956, Control_c, 0, 64, 71
1, 174971, Control_c, 0, 64, 73
1, 174973, Note_off_c, 0, 32, 59
1, 174987, Control_c, 0, 64, 75
1, 174988, Note_off_c, 0, 83, 65
1, 175001, Control_c, 0, 64, 79
1, 175005, Note_off_c, 0, 35, 61
1, 175008, Note_on_c, 0, 80, 65
1, 175010, Note_off_c, 0, 44, 59
1, 175016, Control_c, 0, 64, 83
1, 175031, Control_c, 0, 64, 86
1, 175031, Control_c, 0, 67, 122
1, 175046, Control_c, 0, 64, 88
1, 175046, Control_c, 0, 67, 122
1, 175061, Control_c, 0, 64, 89
1, 175067, Note_off_c, 0, 80, 60
1, 175076, Control_c, 0, 64, 90
1, 175076, Control_c, 0, 67, 121
1, 175086, Note_on_c, 0, 83, 75
1, 175090, Control_c, 0, 64, 90
1, 175105, Control_c, 0, 64, 91
1, 175110, Note_off_c, 0, 76, 17
1, 175120, Control_c, 0, 64, 92
1, 175134, Control_c, 0, 64, 93
1, 175142, Note_off_c, 0, 83, 64
1, 175149, Control_c, 0, 64, 94
1, 175149, Control_c, 0, 67, 121
1, 175161, Note_on_c, 0, 88, 76
1, 175164, Control_c, 0, 64, 95
1, 175164, Control_c, 0, 67, 120
1, 175179, Control_c, 0, 64, 96
1, 175194, Control_c, 0, 64, 97
1, 175208, Control_c, 0, 64, 98
1, 175223, Control_c, 0, 64, 101
1, 175238, Control_c, 0, 64, 104
1, 175260, Note_off_c, 0, 88, 64
1, 175261, Note_on_c, 0, 83, 66
1, 175261, Control_c, 0, 64, 106
1, 175276, Control_c, 0, 64, 107
1, 175290, Control_c, 0, 64, 108
1, 175305, Control_c, 0, 64, 109
1, 175315, Note_off_c, 0, 83, 65
1, 175320, Control_c, 0, 64, 110
1, 175329, Note_on_c, 0, 80, 67
1, 175334, Control_c, 0, 64, 113
1, 175349, Control_c, 0, 64, 119
1, 175364, Control_c, 0, 64, 127
1, 175405, Note_off_c, 0, 80, 54
1, 175408, Control_c, 0, 64, 108
1, 175408, Control_c, 0, 67, 121
1, 175423, Note_on_c, 0, 83, 74
1, 175423, Control_c, 0, 64, 88
1, 175438, Control_c, 0, 64, 73
1, 175438, Control_c, 0, 67, 120
1, 175453, Control_c, 0, 64, 65
1, 175468, Control_c, 0, 64, 62
1, 175482, Note_off_c, 0, 83, 64
1, 175482, Control_c, 0, 64, 64
1, 175497, Note_on_c, 0, 76, 69
1, 175497, Control_c, 0, 64, 69
1, 175512, Control_c, 0, 64, 76
1, 175512, Control_c, 0, 67, 121
1, 175527, Control_c, 0, 64, 85
1, 175542, Control_c, 0, 64, 91
1, 175542, Control_c, 0, 67, 120
1, 175544, Note_off_c, 0, 76, 59
1, 175557, Control_c, 0, 64, 92
1, 175575, Note_on_c, 0, 71, 59
1, 175587, Control_c, 0, 64, 92
1, 175587, Control_c, 0, 67, 121
1, 175601, Control_c, 0, 64, 93
1, 175616, Control_c, 0, 64, 93
1, 175622, Note_off_c, 0, 71, 56
1, 175631, Control_c, 0, 64, 94
1, 175646, Control_c, 0, 64, 96
1, 175661, Control_c, 0, 64, 97
1, 175666, Note_on_c, 0, 68, 59
1, 175675, Control_c, 0, 64, 99
1, 175675, Control_c, 0, 67, 121
1, 175690, Control_c, 0, 64, 102
1, 175705, Control_c, 0, 64, 108
1, 175720, Control_c, 0, 64, 120
1, 175734, Control_c, 0, 64, 127
1, 175740, Note_on_c, 0, 71, 59
1, 175749, Control_c, 0, 67, 122
1, 175764, Control_c, 0, 67, 122
1, 175786, Note_off_c, 0, 68, 61
1, 175790, Note_off_c, 0, 71, 57
1, 175810, Control_c, 0, 67, 122
1, 175821, Note_on_c, 0, 64, 61
1, 175839, Control_c, 0, 67, 121
1, 175854, Control_c, 0, 64, 107
1, 175854, Control_c, 0, 67, 120
1, 175869, Control_c, 0, 64, 98
1, 175884, Control_c, 0, 64, 96
1, 175884, Control_c, 0, 67, 120
1, 175893, Note_off_c, 0, 64, 63
1, 175896, Note_on_c, 0, 59, 58
1, 175899, Control_c, 0, 67, 119
1, 175928, Control_c, 0, 67, 119
1, 175943, Control_c, 0, 67, 118
1, 175957, Control_c, 0, 67, 118
1, 175960, Note_off_c, 0, 59, 63
1, 175971, Control_c, 0, 64, 97
1, 175971, Control_c, 0, 67, 117
1, 175982, Note_on_c, 0, 56, 54
1, 176009, Control_c, 0, 67, 117
1, 176024, Control_c, 0, 64, 97
1, 176038, Control_c, 0, 64, 98
1, 176053, Control_c, 0, 64, 100
1, 176053, Control_c, 0, 67, 117
1, 176068, Control_c, 0, 64, 102
1, 176068, Control_c, 0, 67, 118
1, 176070, Note_off_c, 0, 56, 53
1, 176083, Control_c, 0, 64, 103
1, 176088, Note_on_c, 0, 59, 51
1, 176098, Control_c, 0, 64, 103
1, 176098, Control_c, 0, 67, 118
1, 176125, Note_off_c, 0, 59, 63
1, 176127, Control_c, 0, 64, 103
1, 176142, Control_c, 0, 64, 96
1, 176147, Note_on_c, 0, 52, 64
1, 176156, Control_c, 0, 64, 86
1, 176171, Control_c, 0, 64, 76
1, 176186, Control_c, 0, 64, 73
1, 176186, Control_c, 0, 67, 119
1, 176192, Note_off_c, 0, 52, 58
1, 176216, Control_c, 0, 64, 76
1, 176219, Note_on_c, 0, 59, 63
1, 176231, Control_c, 0, 64, 80
1, 176246, Control_c, 0, 64, 86
1, 176260, Control_c, 0, 64, 91
1, 176275, Control_c, 0, 64, 94
1, 176290, Note_off_c, 0, 59, 63
1, 176290, Control_c, 0, 64, 96
1, 176305, Control_c, 0, 64, 99
1, 176305, Control_c, 0, 67, 119
1, 176317, Note_on_c, 0, 56, 63
1, 176320, Control_c, 0, 64, 101
1, 176335, Control_c, 0, 64, 104
1, 176349, Control_c, 0, 64, 106
1, 176349, Control_c, 0, 67, 120
1, 176359, Note_off_c, 0, 56, 60
1, 176364, Control_c, 0, 64, 106
1, 176364, Control_c, 0, 67, 120
1, 176379, Control_c, 0, 64, 106
1, 176379, Control_c, 0, 67, 121
1, 176394, Control_c, 0, 64, 97
1, 176394, Control_c, 0, 67, 121
1, 176403, Note_on_c, 0, 59, 55
1, 176409, Control_c, 0, 64, 81
1, 176423, Control_c, 0, 64, 67
1, 176438, Control_c, 0, 64, 53
1, 176441, Note_off_c, 0, 59, 66
1, 176453, Control_c, 0, 64, 34
1, 176468, Control_c, 0, 64, 25
1, 176475, Note_on_c, 0, 64, 53
1, 176482, Control_c, 0, 64, 28
1, 176497, Control_c, 0, 64, 40
1, 176512, Control_c, 0, 64, 54
1, 176527, Control_c, 0, 64, 65
1, 176541, Note_on_c, 0, 59, 57
1, 176541, Note_off_c, 0, 64, 62
1, 176542, Control_c, 0, 64, 70
1, 176556, Control_c, 0, 64, 76
1, 176572, Control_c, 0, 64, 79
1, 176587, Control_c, 0, 64, 81
1, 176602, Control_c, 0, 64, 83
1, 176608, Note_off_c, 0, 59, 63
1, 176617, Control_c, 0, 64, 86
1, 176627, Note_on_c, 0, 56, 64
1, 176632, Control_c, 0, 64, 89
1, 176646, Control_c, 0, 64, 92
1, 176661, Control_c, 0, 64, 95
1, 176675, Note_off_c, 0, 56, 55
1, 176676, Control_c, 0, 64, 97
1, 176676, Control_c, 0, 67, 122
1, 176691, Control_c, 0, 64, 98
1, 176706, Control_c, 0, 64, 99
1, 176706, Control_c, 0, 67, 122
1, 176713, Note_on_c, 0, 59, 64
1, 176721, Control_c, 0, 64, 99
1, 176735, Control_c, 0, 64, 100
1, 176735, Control_c, 0, 67, 123
1, 176758, Control_c, 0, 67, 123
1, 176773, Control_c, 0, 64, 92
1, 176785, Note_on_c, 0, 51, 69
1, 176787, Control_c, 0, 64, 77
1, 176787, Control_c, 0, 67, 124
1, 176790, Note_off_c, 0, 59, 64
1, 176802, Control_c, 0, 64, 64
1, 176811, Note_on_c, 0, 47, 54
1, 176817, Control_c, 0, 64, 51
1, 176819, Note_on_c, 0, 54, 60
1, 176826, Note_on_c, 0, 39, 45
1, 176832, Control_c, 0, 64, 40
1, 176847, Control_c, 0, 64, 43
1, 176861, Control_c, 0, 64, 55
1, 176876, Control_c, 0, 64, 64
1, 176891, Control_c, 0, 64, 72
1, 176897, Note_off_c, 0, 54, 55
1, 176905, Control_c, 0, 64, 81
1, 176908, Note_on_c, 0, 59, 63
1, 176920, Control_c, 0, 64, 88
1, 176935, Control_c, 0, 64, 91
1, 176950, Control_c, 0, 64, 92
1, 176965, Control_c, 0, 64, 96
1, 176965, Control_c, 0, 67, 123
1, 176974, Note_on_c, 0, 57, 65
1, 176976, Note_off_c, 0, 51, 61
1, 176979, Control_c, 0, 64, 100
1, 176983, Note_off_c, 0, 59, 61
1, 176993, Note_off_c, 0, 39, 52
1, 176994, Control_c, 0, 64, 105
1, 177003, Note_off_c, 0, 57, 65
1, 177009, Control_c, 0, 64, 110
1, 177014, Note_off_c, 0, 47, 60
1, 177024, Control_c, 0, 64, 115
1, 177039, Control_c, 0, 64, 120
1, 177053, Control_c, 0, 64, 127
1, 177061, Note_on_c, 0, 59, 61
1, 177115, Note_off_c, 0, 59, 55
1, 177141, Note_on_c, 0, 66, 75
1, 177193, Note_off_c, 0, 66, 57
1, 177236, Note_on_c, 0, 59, 62
1, 177261, Control_c, 0, 67, 124
1, 177281, Note_off_c, 0, 59, 57
1, 177291, Control_c, 0, 67, 124
1, 177317, Note_on_c, 0, 57, 65
1, 177335, Control_c, 0, 67, 124
1, 177346, Note_off_c, 0, 57, 65
1, 177365, Control_c, 0, 67, 124
1, 177395, Note_on_c, 0, 59, 70
1, 177425, Control_c, 0, 64, 99
1, 177425, Control_c, 0, 67, 125
1, 177439, Note_off_c, 0, 59, 61
1, 177440, Control_c, 0, 64, 76
1, 177455, Control_c, 0, 64, 60
1, 177459, Note_on_c, 0, 51, 75
1, 177471, Control_c, 0, 64, 34
1, 177480, Note_on_c, 0, 47, 61
1, 177484, Note_on_c, 0, 39, 53
1, 177486, Control_c, 0, 64, 16
1, 177489, Note_on_c, 0, 66, 72
1, 177508, Control_c, 0, 64, 19
1, 177523, Control_c, 0, 64, 36
1, 177537, Control_c, 0, 64, 55
1, 177552, Control_c, 0, 64, 67
1, 177559, Note_off_c, 0, 66, 64
1, 177567, Control_c, 0, 64, 76
1, 177581, Note_on_c, 0, 71, 59
1, 177582, Control_c, 0, 64, 85
1, 177597, Control_c, 0, 64, 89
1, 177597, Control_c, 0, 67, 125
1, 177602, Note_off_c, 0, 71, 65
1, 177611, Control_c, 0, 64, 91
1, 177611, Control_c, 0, 67, 125
1, 177626, Control_c, 0, 64, 94
1, 177641, Control_c, 0, 64, 99
1, 177647, Note_on_c, 0, 69, 71
1, 177654, Note_off_c, 0, 51, 62
1, 177656, Control_c, 0, 64, 105
1, 177671, Control_c, 0, 64, 110
1, 177685, Control_c, 0, 64, 113
1, 177688, Note_off_c, 0, 69, 61
1, 177700, Note_off_c, 0, 39, 35
1, 177700, Control_c, 0, 64, 115
1, 177701, Note_off_c, 0, 47, 61
1, 177715, Control_c, 0, 64, 122
1, 177723, Note_on_c, 0, 71, 53
1, 177730, Control_c, 0, 64, 127
1, 177745, Control_c, 0, 67, 125
1, 177775, Control_c, 0, 67, 126
1, 177787, Note_off_c, 0, 71, 65
1, 177805, Note_on_c, 0, 78, 78
1, 177864, Control_c, 0, 67, 126
1, 177881, Note_off_c, 0, 78, 63
1, 177891, Note_on_c, 0, 71, 74
1, 177893, Control_c, 0, 67, 126
1, 177937, Control_c, 0, 67, 126
1, 177961, Note_on_c, 0, 69, 73
1, 177961, Note_off_c, 0, 71, 63
1, 177995, Note_off_c, 0, 69, 66
1, 178041, Control_c, 0, 67, 127
1, 178043, Note_on_c, 0, 71, 73
1, 178071, Control_c, 0, 67, 126
1, 178085, Control_c, 0, 64, 101
1, 178092, Note_off_c, 0, 71, 58
1, 178100, Control_c, 0, 64, 76
1, 178100, Control_c, 0, 67, 127
1, 178113, Note_on_c, 0, 51, 75
1, 178115, Control_c, 0, 64, 59
1, 178125, Note_on_c, 0, 78, 78
1, 178129, Control_c, 0, 64, 32
1, 178129, Control_c, 0, 67, 127
1, 178133, Note_on_c, 0, 47, 61
1, 178137, Note_on_c, 0, 39, 57
1, 178144, Control_c, 0, 64, 0
1, 178175, Control_c, 0, 64, 12
1, 178190, Control_c, 0, 64, 41
1, 178199, Note_off_c, 0, 78, 62
1, 178205, Control_c, 0, 64, 61
1, 178218, Note_on_c, 0, 83, 68
1, 178219, Control_c, 0, 64, 71
1, 178234, Control_c, 0, 64, 77
1, 178254, Note_off_c, 0, 83, 65
1, 178257, Control_c, 0, 64, 81
1, 178272, Control_c, 0, 64, 84
1, 178287, Control_c, 0, 64, 88
1, 178301, Note_off_c, 0, 51, 59
1, 178301, Control_c, 0, 64, 92
1, 178307, Note_on_c, 0, 79, 50
1, 178308, Note_on_c, 0, 81, 55
1, 178316, Control_c, 0, 64, 97
1, 178328, Note_off_c, 0, 81, 62
1, 178330, Note_off_c, 0, 79, 61
1, 178331, Control_c, 0, 64, 101
1, 178331, Control_c, 0, 67, 127
1, 178346, Control_c, 0, 64, 103
1, 178348, Note_off_c, 0, 47, 56
1, 178360, Control_c, 0, 64, 105
1, 178375, Control_c, 0, 64, 106
1, 178375, Control_c, 0, 67, 126
1, 178379, Note_on_c, 0, 83, 62
1, 178390, Control_c, 0, 64, 109
1, 178390, Control_c, 0, 67, 126
1, 178401, Note_off_c, 0, 39, 30
1, 178405, Control_c, 0, 64, 116
1, 178405, Control_c, 0, 67, 125
1, 178420, Control_c, 0, 64, 127
1, 178420, Control_c, 0, 67, 125
1, 178442, Note_off_c, 0, 83, 65
1, 178457, Note_on_c, 0, 90, 80
1, 178479, Control_c, 0, 67, 124
1, 178494, Control_c, 0, 67, 124
1, 178508, Control_c, 0, 67, 123
1, 178538, Control_c, 0, 67, 123
1, 178547, Note_on_c, 0, 83, 70
1, 178553, Control_c, 0, 67, 122
1, 178568, Control_c, 0, 67, 121
1, 178582, Note_off_c, 0, 83, 60
1, 178597, Control_c, 0, 67, 121
1, 178612, Note_on_c, 0, 81, 70
1, 178642, Control_c, 0, 67, 120
1, 178652, Note_off_c, 0, 81, 58
1, 178672, Control_c, 0, 67, 121
1, 178687, Control_c, 0, 64, 122
1, 178690, Note_on_c, 0, 83, 74
1, 178694, Note_off_c, 0, 90, 62
1, 178701, Control_c, 0, 64, 110
1, 178701, Control_c, 0, 67, 121
1, 178716, Control_c, 0, 64, 96
1, 178731, Control_c, 0, 64, 81
1, 178746, Control_c, 0, 64, 66
1, 178746, Control_c, 0, 67, 122
1, 178747, Note_off_c, 0, 83, 64
1, 178760, Control_c, 0, 64, 52
1, 178775, Control_c, 0, 64, 27
1, 178783, Note_on_c, 0, 52, 68
1, 178788, Note_on_c, 0, 47, 62
1, 178790, Control_c, 0, 64, 0
1, 178793, Note_on_c, 0, 40, 55
1, 178793, Note_on_c, 0, 80, 71
1, 178834, Control_c, 0, 64, 31
1, 178849, Control_c, 0, 64, 53
1, 178864, Control_c, 0, 64, 66
1, 178868, Note_off_c, 0, 40, 62
1, 178874, Note_off_c, 0, 80, 57
1, 178878, Control_c, 0, 64, 76
1, 178881, Note_on_c, 0, 92, 75
1, 178891, Note_off_c, 0, 47, 65
1, 178893, Control_c, 0, 64, 82
1, 178902, Note_off_c, 0, 52, 64
1, 178908, Control_c, 0, 64, 86
1, 178923, Control_c, 0, 64, 88
1, 178938, Control_c, 0, 64, 91
1, 178952, Control_c, 0, 64, 95
1, 178968, Control_c, 0, 64, 100
1, 178979, Note_on_c, 0, 83, 75
1, 178983, Control_c, 0, 64, 102
1, 178986, Note_off_c, 0, 92, 65
1, 179006, Control_c, 0, 64, 103
1, 179021, Control_c, 0, 64, 103
1, 179036, Control_c, 0, 64, 104
1, 179050, Control_c, 0, 64, 106
1, 179065, Control_c, 0, 64, 109
1, 179073, Note_off_c, 0, 83, 64
1, 179075, Note_on_c, 0, 92, 74
1, 179080, Control_c, 0, 64, 110
1, 179095, Control_c, 0, 64, 111
1, 179110, Control_c, 0, 67, 121
1, 179139, Control_c, 0, 64, 111
1, 179147, Note_on_c, 0, 64, 82
1, 179154, Control_c, 0, 64, 103
1, 179164, Note_off_c, 0, 92, 62
1, 179169, Control_c, 0, 64, 86
1, 179169, Control_c, 0, 67, 121
1, 179170, Note_on_c, 0, 80, 70
1, 179172, Note_on_c, 0, 52, 58
1, 179183, Control_c, 0, 64, 69
1, 179183, Control_c, 0, 67, 120
1, 179198, Control_c, 0, 64, 58
1, 179198, Control_c, 0, 67, 119
1, 179213, Control_c, 0, 64, 49
1, 179213, Control_c, 0, 67, 118
1, 179228, Control_c, 0, 64, 51
1, 179228, Control_c, 0, 67, 116
1, 179243, Control_c, 0, 64, 59
1, 179243, Control_c, 0, 67, 113
1, 179256, Note_on_c, 0, 92, 76
1, 179257, Control_c, 0, 64, 68
1, 179257, Control_c, 0, 67, 110
1, 179259, Note_off_c, 0, 80, 62
1, 179272, Control_c, 0, 64, 79
1, 179272, Control_c, 0, 67, 106
1, 179287, Control_c, 0, 64, 98
1, 179287, Control_c, 0, 67, 101
1, 179302, Control_c, 0, 64, 114
1, 179302, Control_c, 0, 67, 97
1, 179317, Control_c, 0, 64, 117
1, 179317, Control_c, 0, 67, 91
1, 179331, Control_c, 0, 64, 127
1, 179331, Control_c, 0, 67, 86
1, 179336, Note_on_c, 0, 83, 78
1, 179342, Note_off_c, 0, 92, 64
1, 179346, Control_c, 0, 67, 81
1, 179361, Control_c, 0, 67, 73
1, 179376, Control_c, 0, 67, 67
1, 179390, Control_c, 0, 67, 60
1, 179405, Control_c, 0, 67, 54
1, 179420, Control_c, 0, 67, 50
1, 179423, Note_on_c, 0, 92, 77
1, 179426, Note_off_c, 0, 64, 62
1, 179428, Note_off_c, 0, 83, 66
1, 179435, Note_off_c, 0, 52, 31
1, 179435, Control_c, 0, 67, 45
1, 179450, Control_c, 0, 67, 41
1, 179465, Control_c, 0, 67, 37
1, 179480, Control_c, 0, 67, 34
1, 179494, Control_c, 0, 67, 32
1, 179509, Control_c, 0, 64, 85
1, 179509, Control_c, 0, 67, 28
1, 179522, Note_on_c, 0, 64, 85
1, 179524, Control_c, 0, 64, 68
1, 179524, Control_c, 0, 67, 24
1, 179525, Note_on_c, 0, 80, 75
1, 179531, Note_off_c, 0, 92, 64
1, 179539, Control_c, 0, 64, 57
1, 179539, Control_c, 0, 67, 20
1, 179551, Note_on_c, 0, 52, 65
1, 179554, Control_c, 0, 64, 56
1, 179554, Control_c, 0, 67, 16
1, 179568, Control_c, 0, 64, 63
1, 179568, Control_c, 0, 67, 11
1, 179583, Control_c, 0, 64, 74
1, 179583, Control_c, 0, 67, 0
1, 179598, Control_c, 0, 64, 94
1, 179610, Note_off_c, 0, 80, 57
1, 179613, Control_c, 0, 64, 127
1, 179617, Note_on_c, 0, 92, 75
1, 179630, Note_off_c, 0, 64, 66
1, 179663, Note_off_c, 0, 52, 50
1, 179697, Note_off_c, 0, 92, 65
1, 179698, Note_on_c, 0, 83, 70
1, 179784, Note_on_c, 0, 92, 70
1, 179788, Note_off_c, 0, 83, 65
1, 179798, Control_c, 0, 67, 10
1, 179813, Control_c, 0, 67, 12
1, 179862, Note_on_c, 0, 61, 81
1, 179864, Note_off_c, 0, 92, 60
1, 179868, Note_on_c, 0, 81, 71
1, 179872, Control_c, 0, 64, 84
1, 179872, Control_c, 0, 67, 13
1, 179874, Note_on_c, 0, 52, 62
1, 179887, Control_c, 0, 64, 64
1, 179887, Control_c, 0, 67, 14
1, 179902, Note_on_c, 0, 49, 49
1, 179902, Control_c, 0, 64, 56
1, 179917, Control_c, 0, 64, 58
1, 179932, Control_c, 0, 64, 64
1, 179946, Control_c, 0, 64, 73
1, 179961, Control_c, 0, 64, 89
1, 179961, Control_c, 0, 67, 15
1, 179965, Note_on_c, 0, 93, 69
1, 179965, Note_off_c, 0, 81, 50
1, 179976, Control_c, 0, 64, 127
1, 179991, Control_c, 0, 67, 17
1, 179993, Note_off_c, 0, 49, 56
1, 180005, Control_c, 0, 67, 18
1, 180020, Control_c, 0, 67, 18
1, 180024, Note_off_c, 0, 93, 62
1, 180028, Note_on_c, 0, 88, 71
1, 180078, Note_off_c, 0, 61, 57
1, 180103, Note_off_c, 0, 52, 58
1, 180118, Note_off_c, 0, 88, 64
1, 180122, Note_on_c, 0, 93, 79
1, 180139, Control_c, 0, 67, 19
1, 180168, Control_c, 0, 64, 103
1, 180183, Note_on_c, 0, 61, 90
1, 180183, Control_c, 0, 64, 72
1, 180193, Note_off_c, 0, 93, 59
1, 180198, Control_c, 0, 64, 61
1, 180201, Note_on_c, 0, 52, 65
1, 180204, Note_on_c, 0, 81, 71
1, 180207, Note_on_c, 0, 49, 56
1, 180213, Control_c, 0, 64, 58
1, 180213, Control_c, 0, 67, 19
1, 180228, Control_c, 0, 64, 63
1, 180228, Control_c, 0, 67, 20
1, 180243, Control_c, 0, 64, 71
1, 180258, Control_c, 0, 64, 87
1, 180258, Control_c, 0, 67, 20
1, 180272, Control_c, 0, 64, 127
1, 180272, Control_c, 0, 67, 21
1, 180279, Note_off_c, 0, 81, 63
1, 180285, Note_on_c, 0, 93, 77
1, 180287, Control_c, 0, 67, 24
1, 180302, Control_c, 0, 67, 27
1, 180316, Control_c, 0, 67, 27
1, 180331, Control_c, 0, 67, 28
1, 180353, Note_off_c, 0, 93, 62
1, 180363, Note_on_c, 0, 88, 70
1, 180376, Control_c, 0, 67, 28
1, 180390, Control_c, 0, 67, 29
1, 180405, Control_c, 0, 67, 30
1, 180414, Note_off_c, 0, 61, 63
1, 180420, Control_c, 0, 67, 32
1, 180429, Note_off_c, 0, 88, 65
1, 180437, Note_on_c, 0, 93, 79
1, 180445, Note_off_c, 0, 49, 58
1, 180454, Note_off_c, 0, 52, 23
1, 180466, Control_c, 0, 67, 32
1, 180481, Note_off_c, 0, 93, 63
1, 180518, Note_on_c, 0, 60, 81
1, 180525, Note_on_c, 0, 52, 58
1, 180529, Note_on_c, 0, 82, 78
1, 180532, Control_c, 0, 64, 87
1, 180540, Note_on_c, 0, 48, 65
1, 180547, Control_c, 0, 64, 66
1, 180547, Control_c, 0, 67, 33
1, 180562, Control_c, 0, 64, 51
1, 180562, Control_c, 0, 67, 33
1, 180577, Control_c, 0, 64, 35
1, 180589, Note_off_c, 0, 82, 61
1, 180592, Control_c, 0, 64, 35
1, 180594, Note_on_c, 0, 94, 76
1, 180607, Control_c, 0, 64, 46
1, 180622, Control_c, 0, 64, 60
1, 180636, Control_c, 0, 64, 70
1, 180636, Control_c, 0, 67, 34
1, 180651, Control_c, 0, 64, 82
1, 180651, Control_c, 0, 67, 35
1, 180666, Control_c, 0, 64, 97
1, 180666, Control_c, 0, 67, 36
1, 180668, Note_off_c, 0, 94, 62
1, 180672, Note_off_c, 0, 52, 53
1, 180681, Control_c, 0, 64, 109
1, 180681, Control_c, 0, 67, 37
1, 180682, Note_on_c, 0, 88, 72
1, 180690, Note_off_c, 0, 60, 53
1, 180696, Control_c, 0, 64, 120
1, 180711, Control_c, 0, 64, 127
1, 180762, Note_on_c, 0, 94, 84
1, 180768, Note_off_c, 0, 88, 67
1, 180771, Note_off_c, 0, 48, 21
1, 180841, Note_off_c, 0, 94, 63
1, 180842, Note_on_c, 0, 60, 78
1, 180850, Note_on_c, 0, 82, 77
1, 180853, Note_on_c, 0, 52, 64
1, 180859, Control_c, 0, 64, 109
1, 180863, Note_on_c, 0, 48, 64
1, 180874, Control_c, 0, 64, 79
1, 180874, Control_c, 0, 67, 38
1, 180889, Control_c, 0, 64, 63
1, 180903, Control_c, 0, 64, 55
1, 180917, Note_off_c, 0, 82, 61
1, 180918, Control_c, 0, 64, 58
1, 180930, Note_on_c, 0, 94, 81
1, 180933, Control_c, 0, 64, 65
1, 180947, Control_c, 0, 64, 76
1, 180947, Control_c, 0, 67, 38
1, 180962, Control_c, 0, 64, 95
1, 180977, Control_c, 0, 64, 127
1, 180982, Note_off_c, 0, 48, 61
1, 180992, Control_c, 0, 67, 39
1, 180996, Note_off_c, 0, 60, 61
1, 181002, Note_off_c, 0, 94, 64
1, 181009, Note_on_c, 0, 88, 73
1, 181022, Note_off_c, 0, 52, 57
1, 181093, Note_on_c, 0, 94, 82
1, 181098, Note_off_c, 0, 88, 65
1, 181171, Note_on_c, 0, 59, 85
1, 181179, Note_off_c, 0, 94, 58
1, 181182, Note_on_c, 0, 83, 71
1, 181185, Control_c, 0, 64, 88
1, 181188, Note_on_c, 0, 47, 71
1, 181190, Note_on_c, 0, 52, 72
1, 181200, Control_c, 0, 64, 68
1, 181214, Control_c, 0, 64, 53
1, 181229, Control_c, 0, 64, 40
1, 181229, Control_c, 0, 67, 39
1, 181251, Control_c, 0, 64, 40
1, 181266, Control_c, 0, 64, 51
1, 181270, Note_on_c, 0, 95, 75
1, 181281, Control_c, 0, 64, 64
1, 181295, Control_c, 0, 64, 77
1, 181310, Control_c, 0, 64, 96
1, 181310, Control_c, 0, 67, 40
1, 181321, Note_off_c, 0, 83, 0
1, 181325, Control_c, 0, 64, 127
1, 181325, Control_c, 0, 67, 40
1, 181329, Note_off_c, 0, 47, 61
1, 181347, Note_off_c, 0, 52, 58
1, 181348, Note_on_c, 0, 88, 75
1, 181349, Note_off_c, 0, 95, 64
1, 181358, Poly_aftertouch_c, 0, 83, 127
1, 181385, Note_off_c, 0, 59, 60
1, 181385, Control_c, 0, 67, 40
1, 181436, Poly_aftertouch_c, 0, 83, 0
1, 181438, Note_on_c, 0, 95, 86
1, 181463, Note_off_c, 0, 88, 63
1, 181514, Note_on_c, 0, 57, 87
1, 181519, Control_c, 0, 64, 109
1, 181521, Note_on_c, 0, 83, 81
1, 181532, Note_on_c, 0, 45, 71
1, 181534, Note_off_c, 0, 95, 65
1, 181534, Control_c, 0, 64, 77
1, 181539, Note_on_c, 0, 52, 63
1, 181549, Control_c, 0, 64, 61
1, 181563, Control_c, 0, 64, 43
1, 181563, Control_c, 0, 67, 40
1, 181578, Control_c, 0, 64, 28
1, 181593, Control_c, 0, 64, 31
1, 181608, Control_c, 0, 64, 47
1, 181611, Note_on_c, 0, 95, 82
1, 181623, Control_c, 0, 64, 63
1, 181627, Note_off_c, 0, 45, 64
1, 181638, Control_c, 0, 64, 75
1, 181652, Control_c, 0, 64, 88
1, 181667, Control_c, 0, 64, 101
1, 181670, Note_off_c, 0, 52, 57
1, 181682, Control_c, 0, 64, 109
1, 181695, Note_on_c, 0, 88, 77
1, 181697, Control_c, 0, 64, 127
1, 181703, Note_off_c, 0, 95, 66
1, 181774, Note_off_c, 0, 83, 57
1, 181781, Note_off_c, 0, 57, 63
1, 181783, Note_on_c, 0, 95, 79
1, 181800, Control_c, 0, 67, 41
1, 181808, Note_off_c, 0, 88, 63
1, 181815, Control_c, 0, 67, 41
1, 181864, Note_off_c, 0, 95, 61
1, 181874, Control_c, 0, 64, 81
1, 181874, Control_c, 0, 67, 42
1, 181879, Note_on_c, 0, 84, 81
1, 181883, Note_on_c, 0, 56, 85
1, 181888, Control_c, 0, 64, 60
1, 181888, Control_c, 0, 67, 43
1, 181898, Note_on_c, 0, 52, 63
1, 181903, Control_c, 0, 64, 37
1, 181903, Control_c, 0, 67, 44
1, 181905, Note_on_c, 0, 44, 57
1, 181918, Control_c, 0, 64, 0
1, 181918, Control_c, 0, 67, 45
1, 181948, Control_c, 0, 64, 26
1, 181963, Control_c, 0, 64, 50
1, 181978, Control_c, 0, 64, 66
1, 181978, Note_off_c, 0, 44, 62
1, 181986, Note_on_c, 0, 96, 80
1, 182000, Control_c, 0, 64, 81
1, 182000, Control_c, 0, 67, 45
1, 182006, Note_off_c, 0, 52, 60
1, 182015, Control_c, 0, 64, 99
1, 182030, Control_c, 0, 64, 127
1, 182030, Control_c, 0, 67, 46
1, 182037, Note_off_c, 0, 56, 62
1, 182091, Note_off_c, 0, 96, 64
1, 182092, Note_on_c, 0, 88, 69
1, 182118, Control_c, 0, 67, 45
1, 182166, Note_on_c, 0, 96, 73
1, 182182, Note_off_c, 0, 88, 67
1, 182185, Note_off_c, 0, 84, 63
1, 182192, Note_off_c, 0, 96, 68
1, 182267, Control_c, 0, 64, 111
1, 182282, Note_on_c, 0, 56, 56
1, 182282, Control_c, 0, 64, 76
1, 182282, Control_c, 0, 67, 46
1, 182284, Note_on_c, 0, 68, 76
1, 182285, Note_on_c, 0, 64, 56
1, 182297, Control_c, 0, 64, 56
1, 182312, Control_c, 0, 64, 29
1, 182313, Note_on_c, 0, 72, 76
1, 182327, Control_c, 0, 64, 0
1, 182327, Control_c, 0, 67, 46
1, 182356, Control_c, 0, 64, 18
1, 182371, Control_c, 0, 64, 43
1, 182371, Control_c, 0, 67, 47
1, 182386, Control_c, 0, 64, 62
1, 182401, Control_c, 0, 64, 75
1, 182416, Control_c, 0, 64, 85
1, 182428, Note_on_c, 0, 84, 79
1, 182431, Control_c, 0, 64, 97
1, 182431, Control_c, 0, 67, 47
1, 182446, Control_c, 0, 64, 109
1, 182461, Control_c, 0, 64, 127
1, 182461, Control_c, 0, 67, 47
1, 182490, Control_c, 0, 67, 46
1, 182532, Note_off_c, 0, 64, 29
1, 182542, Note_off_c, 0, 84, 64
1, 182544, Note_on_c, 0, 76, 78
1, 182554, Note_off_c, 0, 56, 32
1, 182564, Control_c, 0, 67, 46
1, 182593, Control_c, 0, 67, 45
1, 182625, Note_off_c, 0, 72, 63
1, 182631, Note_off_c, 0, 68, 35
1, 182643, Note_on_c, 0, 84, 83
1, 182648, Note_off_c, 0, 76, 64
1, 182786, Note_on_c, 0, 69, 63
1, 182793, Note_off_c, 0, 84, 58
1, 182794, Control_c, 0, 64, 83
1, 182794, Control_c, 0, 67, 46
1, 182798, Note_on_c, 0, 57, 52
1, 182808, Control_c, 0, 64, 65
1, 182809, Note_on_c, 0, 73, 25
1, 182813, Note_on_c, 0, 64, 48
1, 182820, Note_on_c, 0, 74, 60
1, 182823, Control_c, 0, 64, 44
1, 182823, Control_c, 0, 67, 46
1, 182824, Note_on_c, 0, 75, 48
1, 182838, Control_c, 0, 64, 0
1, 182853, Control_c, 0, 67, 47
1, 182854, Note_off_c, 0, 73, 33
1, 182917, Note_off_c, 0, 74, 51
1, 182949, Note_on_c, 0, 85, 79
1, 182972, Control_c, 0, 64, 19
1, 182987, Control_c, 0, 64, 40
1, 182997, Note_off_c, 0, 75, 51
1, 183002, Control_c, 0, 64, 58
1, 183002, Control_c, 0, 67, 46
1, 183016, Control_c, 0, 64, 66
1, 183031, Control_c, 0, 64, 69
1, 183046, Control_c, 0, 64, 71
1, 183076, Control_c, 0, 64, 71
1, 183090, Control_c, 0, 64, 66
1, 183090, Control_c, 0, 67, 46
1, 183105, Control_c, 0, 64, 55
1, 183107, Note_off_c, 0, 85, 58
1, 183115, Note_on_c, 0, 76, 71
1, 183120, Control_c, 0, 64, 36
1, 183135, Control_c, 0, 64, 0
1, 183209, Control_c, 0, 64, 19
1, 183224, Control_c, 0, 64, 35
1, 183224, Control_c, 0, 67, 45
1, 183239, Control_c, 0, 64, 51
1, 183254, Control_c, 0, 64, 61
1, 183254, Control_c, 0, 67, 45
1, 183269, Control_c, 0, 64, 65
1, 183283, Control_c, 0, 64, 67
1, 183283, Control_c, 0, 67, 44
1, 183298, Control_c, 0, 64, 69
1, 183305, Note_on_c, 0, 85, 76
1, 183313, Control_c, 0, 64, 73
1, 183313, Control_c, 0, 67, 44
1, 183328, Control_c, 0, 64, 80
1, 183342, Control_c, 0, 64, 88
1, 183357, Control_c, 0, 64, 96
1, 183372, Control_c, 0, 64, 109
1, 183387, Control_c, 0, 64, 127
1, 183416, Control_c, 0, 67, 45
1, 183419, Note_off_c, 0, 85, 63
1, 183431, Control_c, 0, 67, 46
1, 183436, Note_off_c, 0, 69, 35
1, 183446, Control_c, 0, 67, 48
1, 183459, Control_c, 0, 67, 50
1, 183474, Control_c, 0, 67, 55
1, 183477, Note_off_c, 0, 64, 31
1, 183496, Control_c, 0, 67, 58
1, 183501, Note_off_c, 0, 57, 60
1, 183511, Control_c, 0, 67, 59
1, 183526, Control_c, 0, 67, 59
1, 183541, Control_c, 0, 67, 60
1, 183585, Control_c, 0, 67, 60
1, 183644, Control_c, 0, 67, 59
1, 183659, Control_c, 0, 67, 59
1, 183703, Note_on_c, 0, 85, 77
1, 183704, Control_c, 0, 67, 58
1, 183772, Note_off_c, 0, 76, 59
1, 183778, Control_c, 0, 67, 59
1, 183793, Control_c, 0, 64, 104
1, 183808, Control_c, 0, 64, 80
1, 183808, Control_c, 0, 67, 59
1, 183823, Control_c, 0, 64, 67
1, 183823, Control_c, 0, 67, 60
1, 183838, Control_c, 0, 64, 60
1, 183838, Control_c, 0, 67, 60
1, 183853, Control_c, 0, 64, 55
1, 183868, Control_c, 0, 64, 54
1, 183883, Control_c, 0, 64, 51
1, 183898, Control_c, 0, 64, 47
1, 183898, Control_c, 0, 67, 61
1, 183912, Control_c, 0, 64, 42
1, 183912, Control_c, 0, 67, 61
1, 183927, Control_c, 0, 64, 36
1, 183927, Control_c, 0, 67, 62
1, 183942, Control_c, 0, 64, 31
1, 183951, Note_on_c, 0, 69, 39
1, 183957, Control_c, 0, 64, 26
1, 183971, Control_c, 0, 64, 22
1, 183986, Control_c, 0, 64, 15
1, 183986, Control_c, 0, 67, 63
1, 184001, Control_c, 0, 64, 0
1, 184001, Control_c, 0, 67, 65
1, 184016, Control_c, 0, 67, 71
1, 184031, Control_c, 0, 67, 78
1, 184045, Control_c, 0, 67, 87
1, 184060, Control_c, 0, 67, 98
1, 184075, Control_c, 0, 67, 105
1, 184090, Control_c, 0, 67, 107
1, 184105, Control_c, 0, 64, 8
1, 184119, Control_c, 0, 64, 23
1, 184119, Control_c, 0, 67, 107
1, 184134, Control_c, 0, 64, 34
1, 184134, Control_c, 0, 67, 108
1, 184149, Control_c, 0, 64, 46
1, 184159, Note_on_c, 0, 57, 36
1, 184163, Control_c, 0, 64, 56
1, 184178, Control_c, 0, 64, 62
1, 184193, Control_c, 0, 64, 66
1, 184209, Control_c, 0, 64, 69
1, 184224, Control_c, 0, 64, 74
1, 184246, Control_c, 0, 64, 80
1, 184246, Control_c, 0, 67, 107
1, 184255, Note_off_c, 0, 69, 52
1, 184261, Control_c, 0, 64, 87
1, 184276, Control_c, 0, 64, 94
1, 184291, Control_c, 0, 64, 103
1, 184305, Control_c, 0, 64, 124
1, 184320, Control_c, 0, 64, 127
1, 184348, Note_on_c, 0, 73, 54
1, 184350, Control_c, 0, 67, 107
1, 184421, Note_off_c, 0, 85, 63
1, 184443, Note_off_c, 0, 57, 41
1, 184534, Note_on_c, 0, 83, 76
1, 184542, Control_c, 0, 67, 106
1, 184573, Control_c, 0, 67, 107
1, 184591, Note_off_c, 0, 73, 32
1, 184602, Control_c, 0, 67, 107
1, 184676, Control_c, 0, 64, 114
1, 184691, Control_c, 0, 64, 92
1, 184691, Control_c, 0, 67, 108
1, 184706, Control_c, 0, 64, 75
1, 184708, Note_on_c, 0, 68, 52
1, 184720, Control_c, 0, 64, 66
1, 184720, Control_c, 0, 67, 108
1, 184735, Control_c, 0, 64, 58
1, 184750, Control_c, 0, 64, 49
1, 184765, Control_c, 0, 64, 42
1, 184780, Control_c, 0, 64, 35
1, 184795, Control_c, 0, 64, 27
1, 184810, Control_c, 0, 64, 17
1, 184825, Control_c, 0, 64, 15
1, 184840, Control_c, 0, 64, 17
1, 184854, Control_c, 0, 64, 32
1, 184869, Control_c, 0, 64, 50
1, 184869, Control_c, 0, 67, 109
1, 184884, Note_on_c, 0, 56, 42
1, 184884, Control_c, 0, 64, 63
1, 184899, Control_c, 0, 64, 70
1, 184913, Control_c, 0, 64, 76
1, 184928, Control_c, 0, 64, 80
1, 184937, Note_off_c, 0, 68, 52
1, 184943, Control_c, 0, 64, 84
1, 184958, Control_c, 0, 64, 88
1, 184973, Control_c, 0, 64, 96
1, 184995, Control_c, 0, 64, 104
1, 184995, Control_c, 0, 67, 108
1, 185009, Control_c, 0, 64, 115
1, 185024, Control_c, 0, 64, 127
1, 185028, Note_off_c, 0, 56, 0
1, 185039, Control_c, 0, 67, 108
1, 185060, Poly_aftertouch_c, 0, 56, 0
1, 185067, Note_on_c, 0, 71, 44
1, 185069, Control_c, 0, 67, 107
1, 185099, Control_c, 0, 67, 106
1, 185113, Control_c, 0, 67, 106
1, 185220, Note_off_c, 0, 71, 49
1, 185251, Note_on_c, 0, 81, 62
1, 185276, Control_c, 0, 67, 106
1, 185291, Control_c, 0, 64, 115
1, 185291, Control_c, 0, 67, 106
1, 185306, Control_c, 0, 64, 109
1, 185306, Control_c, 0, 67, 106
1, 185320, Control_c, 0, 64, 104
1, 185326, Note_off_c, 0, 83, 58
1, 185335, Control_c, 0, 64, 99
1, 185335, Control_c, 0, 67, 107
1, 185350, Control_c, 0, 64, 92
1, 185366, Control_c, 0, 64, 84
1, 185381, Control_c, 0, 64, 75
1, 185396, Control_c, 0, 64, 67
1, 185410, Control_c, 0, 64, 59
1, 185420, Note_on_c, 0, 66, 42
1, 185425, Control_c, 0, 64, 49
1, 185440, Control_c, 0, 64, 38
1, 185455, Control_c, 0, 64, 27
1, 185470, Control_c, 0, 64, 16
1, 185484, Control_c, 0, 64, 0
1, 185514, Control_c, 0, 64, 12
1, 185529, Control_c, 0, 64, 31
1, 185543, Control_c, 0, 64, 48
1, 185558, Control_c, 0, 64, 61
1, 185573, Control_c, 0, 64, 68
1, 185588, Control_c, 0, 64, 71
1, 185603, Control_c, 0, 64, 73
1, 185608, Note_on_c, 0, 54, 43
1, 185618, Control_c, 0, 64, 75
1, 185632, Control_c, 0, 64, 78
1, 185647, Control_c, 0, 64, 82
1, 185647, Control_c, 0, 67, 106
1, 185662, Control_c, 0, 64, 86
1, 185677, Control_c, 0, 64, 89
1, 185692, Control_c, 0, 64, 92
1, 185707, Control_c, 0, 64, 95
1, 185722, Control_c, 0, 64, 98
1, 185723, Note_off_c, 0, 66, 34
1, 185743, Control_c, 0, 64, 100
1, 185743, Control_c, 0, 67, 106
1, 185758, Control_c, 0, 64, 102
1, 185758, Control_c, 0, 67, 105
1, 185773, Control_c, 0, 64, 103
1, 185773, Control_c, 0, 67, 104
1, 185783, Note_off_c, 0, 54, 50
1, 185788, Control_c, 0, 64, 103
1, 185788, Control_c, 0, 67, 104
1, 185803, Control_c, 0, 67, 103
1, 185817, Note_on_c, 0, 82, 71
1, 185817, Control_c, 0, 64, 104
1, 185817, Control_c, 0, 67, 101
1, 185832, Control_c, 0, 67, 100
1, 185847, Control_c, 0, 64, 104
1, 185847, Control_c, 0, 67, 98
1, 185862, Control_c, 0, 64, 105
1, 185862, Control_c, 0, 67, 97
1, 185877, Control_c, 0, 67, 95
1, 185892, Control_c, 0, 67, 94
1, 185898, Note_off_c, 0, 81, 64
1, 185907, Control_c, 0, 67, 92
1, 185922, Control_c, 0, 67, 89
1, 185936, Control_c, 0, 67, 84
1, 185951, Control_c, 0, 67, 79
1, 185966, Control_c, 0, 67, 73
1, 185981, Control_c, 0, 67, 67
1, 185996, Control_c, 0, 67, 62
1, 186010, Control_c, 0, 67, 58
1, 186025, Control_c, 0, 67, 54
1, 186040, Control_c, 0, 67, 51
1, 186055, Control_c, 0, 67, 50
1, 186060, Note_on_c, 0, 83, 78
1, 186099, Control_c, 0, 64, 104
1, 186099, Control_c, 0, 67, 51
1, 186114, Control_c, 0, 67, 53
1, 186123, Note_off_c, 0, 82, 61
1, 186129, Control_c, 0, 64, 102
1, 186129, Control_c, 0, 67, 54
1, 186143, Control_c, 0, 64, 98
1, 186143, Control_c, 0, 67, 55
1, 186158, Control_c, 0, 64, 94
1, 186158, Control_c, 0, 67, 55
1, 186174, Control_c, 0, 64, 88
1, 186189, Control_c, 0, 64, 82
1, 186189, Control_c, 0, 67, 56
1, 186204, Control_c, 0, 64, 74
1, 186204, Control_c, 0, 67, 56
1, 186219, Control_c, 0, 64, 67
1, 186219, Control_c, 0, 67, 57
1, 186234, Control_c, 0, 64, 61
1, 186239, Note_on_c, 0, 68, 48
1, 186248, Control_c, 0, 64, 53
1, 186263, Control_c, 0, 64, 43
1, 186278, Control_c, 0, 64, 32
1, 186293, Control_c, 0, 64, 17
1, 186308, Control_c, 0, 64, 0
1, 186352, Control_c, 0, 64, 26
1, 186366, Control_c, 0, 64, 45
1, 186381, Control_c, 0, 64, 60
1, 186396, Control_c, 0, 64, 69
1, 186411, Control_c, 0, 64, 75
1, 186411, Control_c, 0, 67, 56
1, 186416, Note_on_c, 0, 56, 47
1, 186426, Control_c, 0, 64, 79
1, 186440, Control_c, 0, 64, 82
1, 186440, Control_c, 0, 67, 56
1, 186455, Control_c, 0, 64, 87
1, 186455, Control_c, 0, 67, 55
1, 186470, Control_c, 0, 64, 95
1, 186470, Control_c, 0, 67, 55
1, 186492, Control_c, 0, 64, 106
1, 186506, Note_off_c, 0, 68, 59
1, 186507, Control_c, 0, 64, 127
1, 186507, Control_c, 0, 67, 54
1, 186579, Note_off_c, 0, 56, 53
1, 186611, Note_on_c, 0, 71, 55
1, 186670, Control_c, 0, 67, 55
1, 186684, Control_c, 0, 67, 55
1, 186816, Note_on_c, 0, 81, 77
1, 186818, Control_c, 0, 67, 55
1, 186832, Control_c, 0, 67, 54
1, 186847, Control_c, 0, 67, 53
1, 186862, Control_c, 0, 67, 53
1, 186877, Control_c, 0, 67, 52
1, 186891, Control_c, 0, 67, 51
1, 186893, Note_off_c, 0, 83, 65
1, 186906, Control_c, 0, 67, 50
1, 186921, Control_c, 0, 67, 49
1, 186936, Control_c, 0, 67, 48
1, 186951, Control_c, 0, 67, 45
1, 186967, Control_c, 0, 67, 41
1, 186982, Control_c, 0, 64, 106
1, 186982, Control_c, 0, 67, 38
1, 186996, Control_c, 0, 64, 90
1, 186996, Control_c, 0, 67, 36
1, 187011, Control_c, 0, 64, 76
1, 187011, Control_c, 0, 67, 35
1, 187024, Note_on_c, 0, 66, 54
1, 187026, Control_c, 0, 64, 63
1, 187026, Control_c, 0, 67, 35
1, 187041, Control_c, 0, 64, 52
1, 187056, Control_c, 0, 64, 42
1, 187056, Control_c, 0, 67, 34
1, 187057, Note_off_c, 0, 71, 29
1, 187070, Control_c, 0, 64, 34
1, 187085, Control_c, 0, 64, 26
1, 187085, Control_c, 0, 67, 34
1, 187100, Control_c, 0, 64, 14
1, 187100, Control_c, 0, 67, 32
1, 187115, Control_c, 0, 64, 0
1, 187115, Control_c, 0, 67, 30
1, 187130, Control_c, 0, 64, 8
1, 187130, Control_c, 0, 67, 29
1, 187144, Control_c, 0, 64, 27
1, 187144, Control_c, 0, 67, 27
1, 187159, Control_c, 0, 64, 45
1, 187159, Control_c, 0, 67, 23
1, 187174, Control_c, 0, 64, 58
1, 187174, Control_c, 0, 67, 17
1, 187188, Control_c, 0, 64, 65
1, 187188, Control_c, 0, 67, 10
1, 187203, Control_c, 0, 64, 69
1, 187203, Control_c, 0, 67, 0
1, 187218, Control_c, 0, 64, 75
1, 187241, Control_c, 0, 64, 81
1, 187242, Note_on_c, 0, 54, 52
1, 187256, Control_c, 0, 64, 88
1, 187270, Control_c, 0, 64, 98
1, 187285, Control_c, 0, 64, 112
1, 187300, Control_c, 0, 64, 127
1, 187462, Note_on_c, 0, 69, 58
1, 187487, Note_off_c, 0, 66, 55
1, 187535, Note_off_c, 0, 54, 28
1, 187537, Control_c, 0, 67, 8
1, 187552, Control_c, 0, 67, 11
1, 187554, Note_off_c, 0, 69, 64
1, 187567, Control_c, 0, 67, 13
1, 187581, Control_c, 0, 67, 16
1, 187596, Control_c, 0, 67, 20
1, 187611, Control_c, 0, 67, 28
1, 187626, Control_c, 0, 67, 35
1, 187641, Control_c, 0, 67, 41
1, 187655, Control_c, 0, 67, 47
1, 187670, Control_c, 0, 67, 51
1, 187685, Control_c, 0, 67, 53
1, 187700, Control_c, 0, 67, 53
1, 187744, Control_c, 0, 67, 54
1, 187789, Note_on_c, 0, 80, 68
1, 187790, Control_c, 0, 64, 95
1, 187793, Note_on_c, 0, 65, 52
1, 187804, Note_on_c, 0, 68, 55
1, 187804, Control_c, 0, 64, 80
1, 187804, Control_c, 0, 67, 54
1, 187806, Note_on_c, 0, 53, 43
1, 187819, Control_c, 0, 64, 67
1, 187834, Control_c, 0, 64, 59
1, 187838, Note_off_c, 0, 81, 63
1, 187849, Control_c, 0, 64, 49
1, 187864, Control_c, 0, 64, 37
1, 187878, Control_c, 0, 64, 24
1, 187893, Control_c, 0, 64, 0
1, 187990, Control_c, 0, 67, 55
1, 188020, Control_c, 0, 64, 34
1, 188035, Control_c, 0, 64, 57
1, 188035, Control_c, 0, 67, 55
1, 188050, Note_off_c, 0, 53, 60
1, 188050, Control_c, 0, 64, 67
1, 188065, Control_c, 0, 64, 73
1, 188080, Control_c, 0, 64, 77
1, 188094, Control_c, 0, 64, 81
1, 188109, Control_c, 0, 64, 85
1, 188124, Control_c, 0, 64, 93
1, 188138, Control_c, 0, 64, 100
1, 188153, Control_c, 0, 64, 106
1, 188160, Note_off_c, 0, 65, 38
1, 188168, Control_c, 0, 64, 113
1, 188183, Control_c, 0, 64, 120
1, 188198, Control_c, 0, 64, 124
1, 188212, Control_c, 0, 64, 127
1, 188224, Note_off_c, 0, 68, 46
1, 188345, Control_c, 0, 64, 124
1, 188360, Control_c, 0, 64, 117
1, 188375, Control_c, 0, 64, 104
1, 188390, Control_c, 0, 64, 92
1, 188391, Note_on_c, 0, 79, 58
1, 188400, Note_on_c, 0, 64, 50
1, 188405, Control_c, 0, 64, 81
1, 188405, Control_c, 0, 67, 56
1, 188411, Note_on_c, 0, 67, 43
1, 188420, Note_on_c, 0, 52, 45
1, 188420, Note_off_c, 0, 80, 34
1, 188420, Control_c, 0, 64, 70
1, 188420, Control_c, 0, 67, 56
1, 188434, Control_c, 0, 64, 63
1, 188434, Control_c, 0, 67, 59
1, 188449, Control_c, 0, 64, 57
1, 188449, Control_c, 0, 67, 61
1, 188464, Control_c, 0, 64, 53
1, 188464, Control_c, 0, 67, 62
1, 188479, Control_c, 0, 64, 48
1, 188479, Control_c, 0, 67, 62
1, 188494, Control_c, 0, 64, 40
1, 188509, Control_c, 0, 64, 25
1, 188524, Control_c, 0, 64, 0
1, 188598, Control_c, 0, 67, 62
1, 188628, Control_c, 0, 64, 29
1, 188628, Control_c, 0, 67, 61
1, 188643, Control_c, 0, 64, 46
1, 188658, Control_c, 0, 64, 59
1, 188673, Control_c, 0, 64, 64
1, 188673, Control_c, 0, 67, 61
1, 188688, Control_c, 0, 64, 67
1, 188703, Control_c, 0, 64, 69
1, 188703, Control_c, 0, 67, 60
1, 188717, Control_c, 0, 64, 72
1, 188739, Control_c, 0, 64, 78
1, 188754, Control_c, 0, 64, 86
1, 188754, Control_c, 0, 67, 60
1, 188768, Control_c, 0, 64, 96
1, 188783, Control_c, 0, 64, 110
1, 188783, Control_c, 0, 67, 59
1, 188798, Control_c, 0, 64, 127
1, 188810, Note_off_c, 0, 64, 51
1, 188858, Control_c, 0, 67, 59
1, 188885, Note_off_c, 0, 52, 59
1, 188888, Note_off_c, 0, 67, 37
1, 188992, Note_off_c, 0, 79, 38
1, 189272, Control_c, 0, 67, 58
1, 189357, Note_on_c, 0, 79, 53
1, 189360, Note_on_c, 0, 63, 53
1, 189375, Note_on_c, 0, 67, 37
1, 189388, Note_on_c, 0, 51, 34
1, 189466, Control_c, 0, 67, 58
1, 189488, Control_c, 0, 64, 107
1, 189488, Control_c, 0, 67, 57
1, 189503, Control_c, 0, 64, 85
1, 189503, Control_c, 0, 67, 56
1, 189518, Control_c, 0, 64, 72
1, 189518, Control_c, 0, 67, 55
1, 189532, Control_c, 0, 64, 64
1, 189532, Control_c, 0, 67, 54
1, 189547, Control_c, 0, 64, 59
1, 189547, Control_c, 0, 67, 53
1, 189562, Control_c, 0, 64, 56
1, 189562, Control_c, 0, 67, 51
1, 189577, Control_c, 0, 64, 53
1, 189577, Control_c, 0, 67, 49
1, 189591, Control_c, 0, 64, 48
1, 189591, Control_c, 0, 67, 47
1, 189606, Control_c, 0, 64, 42
1, 189606, Control_c, 0, 67, 44
1, 189621, Control_c, 0, 64, 35
1, 189621, Control_c, 0, 67, 37
1, 189636, Control_c, 0, 64, 27
1, 189636, Control_c, 0, 67, 31
1, 189651, Control_c, 0, 64, 21
1, 189651, Control_c, 0, 67, 24
1, 189666, Control_c, 0, 64, 16
1, 189666, Control_c, 0, 67, 18
1, 189680, Control_c, 0, 64, 13
1, 189680, Control_c, 0, 67, 12
1, 189695, Control_c, 0, 64, 11
1, 189695, Control_c, 0, 67, 0
1, 189755, Control_c, 0, 64, 15
1, 189770, Control_c, 0, 64, 20
1, 189784, Control_c, 0, 64, 24
1, 189799, Control_c, 0, 64, 28
1, 189814, Control_c, 0, 64, 32
1, 189829, Control_c, 0, 64, 34
1, 189844, Control_c, 0, 64, 36
1, 189858, Control_c, 0, 64, 41
1, 189873, Control_c, 0, 64, 46
1, 189888, Control_c, 0, 64, 50
1, 189903, Control_c, 0, 64, 51
1, 189917, Control_c, 0, 64, 53
1, 189932, Control_c, 0, 64, 54
1, 189947, Control_c, 0, 64, 56
1, 189962, Control_c, 0, 64, 59
1, 189977, Control_c, 0, 64, 60
1, 189991, Control_c, 0, 64, 62
1, 190006, Control_c, 0, 64, 63
1, 190021, Control_c, 0, 64, 64
1, 190036, Control_c, 0, 64, 65
1, 190051, Control_c, 0, 64, 68
1, 190065, Control_c, 0, 64, 70
1, 190080, Control_c, 0, 64, 72
1, 190125, Control_c, 0, 64, 72
1, 190140, Control_c, 0, 64, 74
1, 190155, Control_c, 0, 64, 76
1, 190170, Control_c, 0, 64, 80
1, 190185, Control_c, 0, 64, 84
1, 190199, Control_c, 0, 64, 90
1, 190214, Control_c, 0, 64, 99
1, 190236, Control_c, 0, 64, 127
1, 190301, Note_off_c, 0, 51, 39
1, 190411, Note_off_c, 0, 67, 41
1, 190503, Control_c, 0, 67, 8
1, 190510, Note_off_c, 0, 63, 61
1, 190518, Control_c, 0, 67, 9
1, 190532, Control_c, 0, 67, 11
1, 190547, Control_c, 0, 67, 11
1, 190577, Control_c, 0, 67, 12
1, 190727, Note_on_c, 0, 80, 65
1, 190730, Note_on_c, 0, 68, 59
1, 190739, Note_on_c, 0, 65, 54
1, 190751, Note_off_c, 0, 79, 55
1, 190755, Note_on_c, 0, 53, 45
1, 190769, Control_c, 0, 67, 12
1, 190784, Control_c, 0, 64, 99
1, 190799, Control_c, 0, 64, 83
1, 190813, Control_c, 0, 64, 71
1, 190828, Control_c, 0, 64, 61
1, 190828, Control_c, 0, 67, 13
1, 190843, Control_c, 0, 64, 50
1, 190858, Control_c, 0, 64, 44
1, 190873, Control_c, 0, 64, 46
1, 190888, Control_c, 0, 64, 53
1, 190903, Control_c, 0, 64, 61
1, 190903, Control_c, 0, 67, 13
1, 190918, Control_c, 0, 64, 68
1, 190918, Control_c, 0, 67, 15
1, 190932, Control_c, 0, 64, 78
1, 190932, Control_c, 0, 67, 17
1, 190947, Control_c, 0, 64, 92
1, 190954, Note_off_c, 0, 53, 54
1, 190962, Control_c, 0, 64, 106
1, 190962, Control_c, 0, 67, 17
1, 190968, Note_off_c, 0, 68, 57
1, 190985, Control_c, 0, 64, 120
1, 191000, Control_c, 0, 64, 127
1, 191040, Note_off_c, 0, 65, 60
1, 191089, Control_c, 0, 67, 18
1, 191118, Control_c, 0, 67, 18
1, 191133, Control_c, 0, 67, 19
1, 191148, Control_c, 0, 67, 20
1, 191162, Control_c, 0, 67, 24
1, 191177, Control_c, 0, 64, 90
1, 191177, Control_c, 0, 67, 27
1, 191192, Control_c, 0, 64, 70
1, 191192, Control_c, 0, 67, 29
1, 191204, Note_on_c, 0, 82, 72
1, 191207, Control_c, 0, 64, 57
1, 191213, Note_on_c, 0, 70, 64
1, 191222, Control_c, 0, 64, 45
1, 191222, Control_c, 0, 67, 30
1, 191225, Note_on_c, 0, 67, 58
1, 191232, Note_on_c, 0, 55, 40
1, 191237, Control_c, 0, 64, 45
1, 191251, Control_c, 0, 64, 54
1, 191266, Control_c, 0, 64, 65
1, 191268, Note_off_c, 0, 55, 59
1, 191281, Control_c, 0, 64, 75
1, 191282, Note_off_c, 0, 80, 27
1, 191295, Note_off_c, 0, 67, 64
1, 191296, Control_c, 0, 64, 90
1, 191311, Control_c, 0, 64, 111
1, 191315, Note_off_c, 0, 70, 63
1, 191326, Control_c, 0, 64, 127
1, 191336, Note_off_c, 0, 82, 56
1, 191415, Control_c, 0, 64, 95
1, 191415, Control_c, 0, 67, 30
1, 191429, Control_c, 0, 64, 72
1, 191444, Control_c, 0, 64, 56
1, 191459, Control_c, 0, 64, 43
1, 191466, Note_on_c, 0, 84, 72
1, 191472, Note_on_c, 0, 68, 61
1, 191474, Control_c, 0, 64, 42
1, 191476, Note_on_c, 0, 72, 64
1, 191483, Note_on_c, 0, 56, 45
1, 191488, Control_c, 0, 64, 52
1, 191503, Control_c, 0, 64, 64
1, 191518, Note_off_c, 0, 56, 61
1, 191518, Control_c, 0, 64, 75
1, 191533, Note_off_c, 0, 68, 59
1, 191533, Control_c, 0, 64, 91
1, 191538, Note_off_c, 0, 72, 62
1, 191547, Control_c, 0, 64, 122
1, 191562, Control_c, 0, 64, 127
1, 191562, Control_c, 0, 67, 31
1, 191582, Note_off_c, 0, 84, 63
1, 191621, Control_c, 0, 64, 105
1, 191621, Control_c, 0, 67, 31
1, 191636, Control_c, 0, 64, 82
1, 191636, Control_c, 0, 67, 32
1, 191651, Control_c, 0, 64, 67
1, 191651, Control_c, 0, 67, 32
1, 191666, Control_c, 0, 64, 56
1, 191681, Control_c, 0, 64, 44
1, 191696, Control_c, 0, 64, 32
1, 191696, Control_c, 0, 67, 33
1, 191711, Control_c, 0, 64, 18
1, 191734, Control_c, 0, 64, 0
1, 191734, Control_c, 0, 67, 34
1, 191749, Control_c, 0, 67, 35
1, 191750, Note_on_c, 0, 85, 57
1, 191755, Note_on_c, 0, 73, 55
1, 191761, Note_on_c, 0, 58, 38
1, 191764, Note_on_c, 0, 70, 43
1, 191794, Control_c, 0, 67, 35
1, 191809, Control_c, 0, 64, 36
1, 191814, Note_off_c, 0, 58, 57
1, 191818, Note_off_c, 0, 70, 57
1, 191824, Control_c, 0, 64, 56
1, 191839, Control_c, 0, 64, 63
1, 191852, Note_off_c, 0, 73, 59
1, 191854, Control_c, 0, 64, 66
1, 191868, Control_c, 0, 64, 68
1, 191868, Control_c, 0, 67, 35
1, 191883, Control_c, 0, 64, 70
1, 191898, Control_c, 0, 64, 74
1, 191904, Note_off_c, 0, 85, 58
1, 191913, Control_c, 0, 64, 76
1, 191942, Control_c, 0, 64, 74
1, 191957, Control_c, 0, 64, 69
1, 191972, Control_c, 0, 64, 62
1, 191986, Control_c, 0, 64, 53
1, 192001, Control_c, 0, 64, 42
1, 192016, Control_c, 0, 64, 31
1, 192031, Control_c, 0, 64, 17
1, 192046, Control_c, 0, 64, 0
1, 192083, Note_on_c, 0, 87, 62
1, 192090, Control_c, 0, 67, 35
1, 192098, Note_on_c, 0, 75, 45
1, 192102, Note_on_c, 0, 72, 33
1, 192120, Note_on_c, 0, 60, 23
1, 192208, Control_c, 0, 64, 26
1, 192223, Control_c, 0, 64, 48
1, 192238, Control_c, 0, 64, 60
1, 192253, Control_c, 0, 64, 64
1, 192283, Control_c, 0, 64, 65
1, 192285, Note_off_c, 0, 72, 45
1, 192297, Control_c, 0, 64, 66
1, 192297, Control_c, 0, 67, 35
1, 192299, Note_off_c, 0, 75, 41
1, 192312, Control_c, 0, 64, 67
1, 192313, Note_off_c, 0, 87, 58
1, 192322, Note_off_c, 0, 60, 39
1, 192327, Control_c, 0, 64, 69
1, 192342, Control_c, 0, 64, 70
1, 192371, Control_c, 0, 64, 71
1, 192446, Control_c, 0, 64, 70
1, 192460, Control_c, 0, 64, 68
1, 192483, Control_c, 0, 64, 64
1, 192497, Control_c, 0, 64, 59
1, 192497, Control_c, 0, 67, 35
1, 192512, Control_c, 0, 64, 52
1, 192527, Control_c, 0, 64, 46
1, 192542, Control_c, 0, 64, 40
1, 192557, Control_c, 0, 64, 31
1, 192572, Control_c, 0, 64, 21
1, 192587, Control_c, 0, 64, 13
1, 192602, Control_c, 0, 64, 0
1, 192706, Control_c, 0, 64, 10
1, 192721, Control_c, 0, 64, 12
1, 192735, Control_c, 0, 64, 13
1, 192750, Control_c, 0, 64, 18
1, 192765, Control_c, 0, 64, 23
1, 192780, Control_c, 0, 64, 27
1, 192791, Note_on_c, 0, 89, 62
1, 192795, Control_c, 0, 64, 30
1, 192809, Control_c, 0, 64, 34
1, 192809, Control_c, 0, 67, 35
1, 192824, Control_c, 0, 64, 41
1, 192839, Control_c, 0, 64, 49
1, 192854, Control_c, 0, 64, 56
1, 192869, Control_c, 0, 64, 59
1, 192883, Control_c, 0, 64, 60
1, 192898, Control_c, 0, 64, 63
1, 192913, Control_c, 0, 64, 67
1, 192927, Control_c, 0, 64, 72
1, 192942, Control_c, 0, 64, 79
1, 192957, Control_c, 0, 64, 87
1, 192957, Control_c, 0, 67, 35
1, 192972, Control_c, 0, 64, 94
1, 192987, Control_c, 0, 64, 102
1, 192987, Control_c, 0, 67, 36
1, 193001, Control_c, 0, 64, 116
1, 193016, Control_c, 0, 64, 127
1, 193076, Control_c, 0, 67, 36
1, 193091, Control_c, 0, 67, 37
1, 193109, Note_on_c, 0, 73, 28
1, 193120, Control_c, 0, 67, 37
1, 193150, Control_c, 0, 67, 40
1, 193165, Control_c, 0, 67, 45
1, 193180, Control_c, 0, 67, 49
1, 193194, Control_c, 0, 67, 52
1, 193209, Control_c, 0, 67, 55
1, 193231, Control_c, 0, 67, 59
1, 193246, Control_c, 0, 67, 62
1, 193261, Control_c, 0, 67, 66
1, 193275, Control_c, 0, 67, 70
1, 193290, Control_c, 0, 67, 75
1, 193295, Note_off_c, 0, 73, 43
1, 193305, Control_c, 0, 67, 80
1, 193320, Control_c, 0, 67, 85
1, 193335, Control_c, 0, 67, 89
1, 193350, Control_c, 0, 67, 92
1, 193365, Note_on_c, 0, 61, 34
1, 193365, Control_c, 0, 67, 95
1, 193380, Control_c, 0, 67, 96
1, 193395, Control_c, 0, 67, 96
1, 193484, Control_c, 0, 67, 96
1, 193514, Note_off_c, 0, 61, 40
1, 193529, Control_c, 0, 67, 95
1, 193574, Note_on_c, 0, 77, 47
1, 193603, Control_c, 0, 67, 95
1, 193775, Note_on_c, 0, 87, 67
1, 193779, Note_off_c, 0, 77, 33
1, 193824, Control_c, 0, 67, 95
1, 193838, Note_off_c, 0, 89, 53
1, 193898, Control_c, 0, 64, 118
1, 193898, Control_c, 0, 67, 96
1, 193913, Control_c, 0, 64, 97
1, 193928, Control_c, 0, 64, 83
1, 193943, Control_c, 0, 64, 71
1, 193954, Note_on_c, 0, 72, 45
1, 193958, Control_c, 0, 64, 61
1, 193980, Control_c, 0, 64, 54
1, 193995, Control_c, 0, 64, 51
1, 194010, Control_c, 0, 64, 50
1, 194024, Control_c, 0, 64, 50
1, 194039, Control_c, 0, 64, 53
1, 194039, Control_c, 0, 67, 95
1, 194054, Control_c, 0, 64, 58
1, 194069, Control_c, 0, 64, 64
1, 194083, Control_c, 0, 64, 69
1, 194098, Control_c, 0, 64, 76
1, 194113, Control_c, 0, 64, 87
1, 194128, Control_c, 0, 64, 99
1, 194143, Control_c, 0, 64, 109
1, 194145, Note_on_c, 0, 60, 42
1, 194159, Control_c, 0, 64, 113
1, 194173, Control_c, 0, 64, 122
1, 194178, Note_off_c, 0, 72, 33
1, 194188, Control_c, 0, 64, 127
1, 194188, Control_c, 0, 67, 95
1, 194218, Control_c, 0, 67, 95
1, 194270, Note_off_c, 0, 60, 35
1, 194331, Note_on_c, 0, 75, 56
1, 194396, Control_c, 0, 67, 95
1, 194426, Control_c, 0, 67, 95
1, 194530, Note_on_c, 0, 85, 65
1, 194557, Note_off_c, 0, 87, 52
1, 194588, Control_c, 0, 67, 96
1, 194603, Control_c, 0, 64, 114
1, 194605, Note_off_c, 0, 75, 58
1, 194618, Control_c, 0, 64, 109
1, 194633, Control_c, 0, 64, 106
1, 194647, Control_c, 0, 64, 105
1, 194662, Control_c, 0, 64, 103
1, 194677, Control_c, 0, 64, 99
1, 194677, Control_c, 0, 67, 96
1, 194692, Control_c, 0, 64, 94
1, 194706, Control_c, 0, 64, 88
1, 194706, Control_c, 0, 67, 97
1, 194710, Note_on_c, 0, 70, 51
1, 194729, Control_c, 0, 64, 80
1, 194744, Control_c, 0, 64, 70
1, 194759, Control_c, 0, 64, 61
1, 194774, Control_c, 0, 64, 50
1, 194788, Control_c, 0, 64, 41
1, 194803, Control_c, 0, 64, 36
1, 194818, Control_c, 0, 64, 35
1, 194833, Control_c, 0, 64, 37
1, 194848, Control_c, 0, 64, 47
1, 194862, Control_c, 0, 64, 62
1, 194862, Control_c, 0, 67, 96
1, 194877, Control_c, 0, 64, 71
1, 194892, Control_c, 0, 64, 80
1, 194892, Control_c, 0, 67, 96
1, 194906, Control_c, 0, 64, 87
1, 194914, Note_on_c, 0, 58, 48
1, 194921, Control_c, 0, 64, 89
1, 194921, Control_c, 0, 67, 95
1, 194936, Control_c, 0, 64, 91
1, 194936, Control_c, 0, 67, 94
1, 194940, Note_off_c, 0, 70, 41
1, 194952, Control_c, 0, 64, 93
1, 194952, Control_c, 0, 67, 93
1, 194967, Control_c, 0, 64, 98
1, 194967, Control_c, 0, 67, 92
1, 194982, Control_c, 0, 64, 103
1, 194982, Control_c, 0, 67, 92
1, 194996, Control_c, 0, 64, 108
1, 194996, Control_c, 0, 67, 91
1, 195004, Note_off_c, 0, 58, 55
1, 195011, Control_c, 0, 64, 110
1, 195011, Control_c, 0, 67, 90
1, 195026, Control_c, 0, 64, 111
1, 195026, Control_c, 0, 67, 88
1, 195041, Control_c, 0, 67, 87
1, 195056, Control_c, 0, 67, 86
1, 195070, Control_c, 0, 64, 113
1, 195070, Control_c, 0, 67, 85
1, 195085, Control_c, 0, 64, 117
1, 195085, Control_c, 0, 67, 83
1, 195100, Control_c, 0, 64, 127
1, 195100, Control_c, 0, 67, 82
1, 195104, Note_on_c, 0, 86, 72
1, 195115, Control_c, 0, 67, 80
1, 195130, Control_c, 0, 67, 77
1, 195144, Control_c, 0, 67, 74
1, 195159, Control_c, 0, 67, 69
1, 195174, Control_c, 0, 67, 64
1, 195186, Note_off_c, 0, 85, 57
1, 195189, Control_c, 0, 67, 57
1, 195204, Control_c, 0, 67, 48
1, 195219, Control_c, 0, 67, 38
1, 195234, Control_c, 0, 67, 28
1, 195249, Control_c, 0, 67, 17
1, 195264, Control_c, 0, 67, 8
1, 195278, Control_c, 0, 67, 0
1, 195308, Control_c, 0, 67, 8
1, 195321, Note_on_c, 0, 87, 75
1, 195322, Control_c, 0, 67, 10
1, 195337, Control_c, 0, 64, 118
1, 195337, Control_c, 0, 67, 12
1, 195352, Control_c, 0, 64, 105
1, 195352, Control_c, 0, 67, 15
1, 195367, Control_c, 0, 64, 94
1, 195367, Control_c, 0, 67, 18
1, 195369, Note_off_c, 0, 86, 63
1, 195382, Control_c, 0, 64, 85
1, 195382, Control_c, 0, 67, 20
1, 195396, Control_c, 0, 64, 76
1, 195396, Control_c, 0, 67, 23
1, 195411, Control_c, 0, 64, 69
1, 195411, Control_c, 0, 67, 26
1, 195426, Control_c, 0, 64, 63
1, 195426, Control_c, 0, 67, 28
1, 195440, Control_c, 0, 64, 55
1, 195440, Control_c, 0, 67, 30
1, 195455, Control_c, 0, 64, 48
1, 195455, Control_c, 0, 67, 32
1, 195477, Control_c, 0, 64, 38
1, 195477, Control_c, 0, 67, 33
1, 195492, Control_c, 0, 64, 28
1, 195507, Control_c, 0, 64, 18
1, 195507, Control_c, 0, 67, 33
1, 195514, Note_on_c, 0, 72, 49
1, 195522, Control_c, 0, 64, 15
1, 195522, Control_c, 0, 67, 34
1, 195536, Control_c, 0, 64, 19
1, 195536, Control_c, 0, 67, 34
1, 195551, Control_c, 0, 64, 36
1, 195566, Control_c, 0, 64, 55
1, 195581, Control_c, 0, 64, 68
1, 195581, Control_c, 0, 67, 34
1, 195596, Control_c, 0, 64, 75
1, 195610, Control_c, 0, 64, 79
1, 195625, Control_c, 0, 64, 81
1, 195640, Control_c, 0, 64, 83
1, 195655, Control_c, 0, 64, 86
1, 195670, Control_c, 0, 64, 89
1, 195672, Note_off_c, 0, 72, 52
1, 195684, Control_c, 0, 64, 93
1, 195699, Control_c, 0, 64, 95
1, 195709, Note_on_c, 0, 60, 44
1, 195714, Control_c, 0, 64, 97
1, 195744, Control_c, 0, 64, 97
1, 195774, Control_c, 0, 64, 98
1, 195774, Control_c, 0, 67, 34
1, 195789, Control_c, 0, 64, 99
1, 195804, Control_c, 0, 64, 99
1, 195818, Control_c, 0, 64, 100
1, 195846, Note_off_c, 0, 60, 45
1, 195892, Note_on_c, 0, 75, 61
1, 195908, Control_c, 0, 64, 100
1, 196041, Control_c, 0, 64, 100
1, 196086, Control_c, 0, 64, 99
1, 196095, Note_on_c, 0, 85, 73
1, 196100, Control_c, 0, 64, 98
1, 196100, Control_c, 0, 67, 35
1, 196115, Control_c, 0, 64, 97
1, 196130, Control_c, 0, 64, 95
1, 196130, Control_c, 0, 67, 36
1, 196144, Control_c, 0, 64, 93
1, 196144, Control_c, 0, 67, 37
1, 196159, Control_c, 0, 64, 91
1, 196165, Note_off_c, 0, 87, 65
1, 196166, Note_off_c, 0, 75, 53
1, 196174, Control_c, 0, 64, 88
1, 196189, Control_c, 0, 64, 85
1, 196204, Control_c, 0, 64, 81
1, 196204, Control_c, 0, 67, 38
1, 196226, Control_c, 0, 64, 76
1, 196241, Control_c, 0, 64, 71
1, 196256, Control_c, 0, 64, 66
1, 196271, Control_c, 0, 64, 60
1, 196283, Note_on_c, 0, 70, 55
1, 196286, Control_c, 0, 64, 53
1, 196300, Control_c, 0, 64, 43
1, 196315, Control_c, 0, 64, 29
1, 196330, Control_c, 0, 64, 10
1, 196345, Control_c, 0, 64, 0
1, 196389, Control_c, 0, 64, 30
1, 196404, Control_c, 0, 64, 51
1, 196419, Control_c, 0, 64, 64
1, 196433, Control_c, 0, 64, 71
1, 196448, Control_c, 0, 64, 74
1, 196463, Control_c, 0, 64, 76
1, 196472, Note_on_c, 0, 58, 54
1, 196477, Control_c, 0, 64, 78
1, 196492, Control_c, 0, 64, 81
1, 196503, Note_off_c, 0, 70, 54
1, 196507, Control_c, 0, 64, 84
1, 196522, Control_c, 0, 64, 88
1, 196537, Control_c, 0, 64, 92
1, 196553, Control_c, 0, 64, 94
1, 196568, Control_c, 0, 64, 96
1, 196582, Control_c, 0, 64, 97
1, 196597, Control_c, 0, 64, 97
1, 196605, Note_off_c, 0, 58, 49
1, 196654, Note_on_c, 0, 73, 59
1, 196807, Note_off_c, 0, 85, 59
1, 196820, Control_c, 0, 64, 97
1, 196835, Control_c, 0, 64, 96
1, 196849, Control_c, 0, 64, 93
1, 196864, Control_c, 0, 64, 91
1, 196870, Note_off_c, 0, 73, 57
1, 196879, Control_c, 0, 64, 87
1, 196893, Control_c, 0, 64, 80
1, 196901, Note_on_c, 0, 84, 69
1, 196908, Control_c, 0, 64, 71
1, 196912, Note_on_c, 0, 68, 43
1, 196923, Control_c, 0, 64, 62
1, 196937, Control_c, 0, 64, 50
1, 196952, Control_c, 0, 64, 35
1, 196974, Control_c, 0, 64, 23
1, 196989, Control_c, 0, 64, 20
1, 197019, Control_c, 0, 64, 25
1, 197034, Control_c, 0, 64, 40
1, 197048, Control_c, 0, 64, 56
1, 197063, Control_c, 0, 64, 65
1, 197078, Control_c, 0, 64, 70
1, 197092, Control_c, 0, 64, 72
1, 197107, Control_c, 0, 64, 73
1, 197122, Control_c, 0, 64, 74
1, 197137, Control_c, 0, 64, 74
1, 197146, Note_on_c, 0, 56, 47
1, 197151, Note_on_c, 0, 72, 65
1, 197167, Control_c, 0, 64, 75
1, 197174, Note_off_c, 0, 84, 63
1, 197211, Control_c, 0, 64, 75
1, 197226, Control_c, 0, 67, 38
1, 197241, Control_c, 0, 64, 76
1, 197255, Control_c, 0, 64, 77
1, 197270, Control_c, 0, 64, 78
1, 197285, Control_c, 0, 64, 79
1, 197300, Control_c, 0, 64, 79
1, 197359, Note_off_c, 0, 56, 61
1, 197361, Note_on_c, 0, 73, 72
1, 197368, Note_on_c, 0, 58, 56
1, 197409, Note_off_c, 0, 68, 42
1, 197419, Control_c, 0, 64, 78
1, 197434, Control_c, 0, 64, 76
1, 197449, Control_c, 0, 64, 73
1, 197449, Control_c, 0, 67, 39
1, 197464, Control_c, 0, 64, 68
1, 197469, Note_off_c, 0, 72, 32
1, 197479, Control_c, 0, 64, 61
1, 197493, Control_c, 0, 64, 52
1, 197508, Control_c, 0, 64, 44
1, 197523, Control_c, 0, 64, 40
1, 197538, Control_c, 0, 64, 41
1, 197544, Note_off_c, 0, 58, 64
1, 197553, Control_c, 0, 64, 47
1, 197556, Note_on_c, 0, 75, 75
1, 197559, Note_on_c, 0, 60, 59
1, 197568, Control_c, 0, 64, 56
1, 197568, Control_c, 0, 67, 39
1, 197583, Control_c, 0, 64, 65
1, 197583, Control_c, 0, 67, 41
1, 197597, Control_c, 0, 64, 70
1, 197597, Control_c, 0, 67, 43
1, 197612, Control_c, 0, 64, 73
1, 197612, Control_c, 0, 67, 44
1, 197618, Note_off_c, 0, 73, 61
1, 197642, Control_c, 0, 64, 69
1, 197657, Control_c, 0, 64, 61
1, 197657, Control_c, 0, 67, 44
1, 197671, Control_c, 0, 64, 46
1, 197686, Control_c, 0, 64, 30
1, 197701, Control_c, 0, 64, 18
1, 197723, Control_c, 0, 64, 0
1, 197723, Control_c, 0, 67, 45
1, 197753, Control_c, 0, 67, 45
1, 197768, Control_c, 0, 67, 46
1, 197783, Control_c, 0, 67, 50
1, 197797, Control_c, 0, 67, 52
1, 197812, Control_c, 0, 67, 53
1, 197815, Note_off_c, 0, 60, 62
1, 197816, Note_on_c, 0, 79, 75
1, 197829, Note_on_c, 0, 63, 57
1, 197842, Control_c, 0, 64, 20
1, 197851, Note_off_c, 0, 75, 59
1, 197857, Control_c, 0, 64, 35
1, 197857, Control_c, 0, 67, 53
1, 197871, Control_c, 0, 64, 49
1, 197886, Control_c, 0, 64, 60
1, 197886, Control_c, 0, 67, 54
1, 197901, Control_c, 0, 64, 62
1, 197930, Control_c, 0, 64, 62
1, 197945, Control_c, 0, 64, 60
1, 197960, Control_c, 0, 64, 55
1, 197975, Control_c, 0, 64, 49
1, 197989, Control_c, 0, 64, 43
1, 198004, Control_c, 0, 64, 35
1, 198019, Control_c, 0, 64, 22
1, 198019, Control_c, 0, 67, 54
1, 198034, Control_c, 0, 64, 0
1, 198049, Control_c, 0, 67, 55
1, 198054, Note_off_c, 0, 63, 63
1, 198061, Note_on_c, 0, 76, 69
1, 198064, Control_c, 0, 67, 57
1, 198069, Note_on_c, 0, 60, 58
1, 198078, Control_c, 0, 67, 58
1, 198108, Control_c, 0, 64, 16
1, 198118, Note_off_c, 0, 79, 60
1, 198122, Control_c, 0, 64, 27
1, 198137, Control_c, 0, 64, 40
1, 198137, Control_c, 0, 67, 58
1, 198153, Control_c, 0, 64, 52
1, 198168, Control_c, 0, 64, 60
1, 198183, Control_c, 0, 64, 61
1, 198198, Control_c, 0, 64, 60
1, 198213, Control_c, 0, 64, 59
1, 198227, Control_c, 0, 64, 58
1, 198242, Control_c, 0, 64, 56
1, 198256, Note_off_c, 0, 60, 61
1, 198257, Control_c, 0, 64, 53
1, 198272, Control_c, 0, 64, 51
1, 198272, Control_c, 0, 67, 58
1, 198277, Note_on_c, 0, 77, 65
1, 198282, Note_on_c, 0, 61, 55
1, 198287, Control_c, 0, 64, 50
1, 198295, Note_off_c, 0, 76, 62
1, 198301, Control_c, 0, 64, 48
1, 198316, Control_c, 0, 64, 44
1, 198331, Control_c, 0, 64, 39
1, 198346, Control_c, 0, 64, 32
1, 198361, Control_c, 0, 64, 23
1, 198376, Control_c, 0, 64, 12
1, 198391, Control_c, 0, 64, 8
1, 198406, Control_c, 0, 64, 14
1, 198420, Control_c, 0, 64, 31
1, 198435, Control_c, 0, 64, 50
1, 198435, Control_c, 0, 67, 58
1, 198438, Note_off_c, 0, 61, 55
1, 198450, Control_c, 0, 64, 63
1, 198453, Note_on_c, 0, 49, 54
1, 198461, Note_on_c, 0, 65, 57
1, 198473, Control_c, 0, 64, 69
1, 198488, Control_c, 0, 64, 72
1, 198502, Control_c, 0, 64, 74
1, 198517, Control_c, 0, 64, 76
1, 198532, Control_c, 0, 64, 78
1, 198540, Note_off_c, 0, 49, 62
1, 198546, Control_c, 0, 64, 81
1, 198561, Note_off_c, 0, 77, 62
1, 198561, Control_c, 0, 64, 84
1, 198576, Control_c, 0, 64, 86
1, 198591, Control_c, 0, 64, 87
1, 198606, Control_c, 0, 64, 87
1, 198665, Control_c, 0, 64, 85
1, 198669, Note_on_c, 0, 61, 65
1, 198673, Note_on_c, 0, 77, 78
1, 198680, Control_c, 0, 64, 75
1, 198695, Control_c, 0, 64, 66
1, 198710, Control_c, 0, 64, 56
1, 198725, Control_c, 0, 64, 47
1, 198739, Control_c, 0, 64, 43
1, 198754, Control_c, 0, 64, 42
1, 198755, Note_off_c, 0, 65, 54
1, 198769, Control_c, 0, 64, 40
1, 198784, Control_c, 0, 64, 35
1, 198799, Control_c, 0, 64, 29
1, 198799, Control_c, 0, 67, 59
1, 198813, Control_c, 0, 64, 22
1, 198828, Control_c, 0, 64, 21
1, 198843, Control_c, 0, 64, 29
1, 198858, Control_c, 0, 64, 44
1, 198872, Control_c, 0, 64, 58
1, 198874, Note_off_c, 0, 61, 58
1, 198880, Note_on_c, 0, 74, 69
1, 198885, Note_on_c, 0, 59, 52
1, 198887, Control_c, 0, 64, 65
1, 198900, Note_off_c, 0, 77, 64
1, 198902, Control_c, 0, 64, 67
1, 198932, Control_c, 0, 64, 68
1, 198943, Note_on_c, 0, 60, 3
1, 198980, Note_off_c, 0, 60, 26
1, 199007, Control_c, 0, 64, 67
1, 199022, Control_c, 0, 64, 65
1, 199037, Control_c, 0, 64, 62
1, 199042, Note_off_c, 0, 59, 64
1, 199051, Control_c, 0, 64, 57
1, 199066, Control_c, 0, 64, 49
1, 199078, Note_on_c, 0, 60, 60
1, 199081, Control_c, 0, 64, 37
1, 199087, Note_on_c, 0, 75, 65
1, 199096, Control_c, 0, 64, 22
1, 199097, Note_off_c, 0, 74, 64
1, 199111, Control_c, 0, 64, 0
1, 199169, Control_c, 0, 67, 58
1, 199184, Control_c, 0, 64, 12
1, 199199, Control_c, 0, 64, 38
1, 199199, Control_c, 0, 67, 58
1, 199222, Control_c, 0, 64, 56
1, 199222, Note_off_c, 0, 60, 48
1, 199237, Control_c, 0, 64, 65
1, 199251, Control_c, 0, 64, 68
1, 199251, Control_c, 0, 67, 57
1, 199264, Note_on_c, 0, 63, 53
1, 199266, Control_c, 0, 64, 69
1, 199279, Note_on_c, 0, 48, 47
1, 199281, Control_c, 0, 64, 70
1, 199294, Note_off_c, 0, 75, 62
1, 199295, Control_c, 0, 64, 72
1, 199310, Control_c, 0, 64, 75
1, 199321, Note_off_c, 0, 48, 61
1, 199325, Control_c, 0, 64, 78
1, 199340, Control_c, 0, 64, 80
1, 199355, Control_c, 0, 64, 81
1, 199369, Control_c, 0, 64, 82
1, 199399, Control_c, 0, 67, 58
1, 199443, Control_c, 0, 64, 81
1, 199452, Note_on_c, 0, 75, 64
1, 199458, Control_c, 0, 64, 78
1, 199473, Note_on_c, 0, 60, 57
1, 199473, Control_c, 0, 64, 70
1, 199488, Control_c, 0, 64, 60
1, 199503, Control_c, 0, 64, 46
1, 199517, Control_c, 0, 64, 31
1, 199532, Control_c, 0, 64, 22
1, 199547, Control_c, 0, 64, 17
1, 199547, Control_c, 0, 67, 58
1, 199562, Control_c, 0, 64, 0
1, 199562, Control_c, 0, 67, 59
1, 199622, Control_c, 0, 64, 24
1, 199631, Note_off_c, 0, 60, 61
1, 199636, Control_c, 0, 64, 41
1, 199651, Note_on_c, 0, 57, 57
1, 199651, Control_c, 0, 64, 55
1, 199651, Control_c, 0, 67, 59
1, 199654, Note_on_c, 0, 72, 57
1, 199666, Control_c, 0, 64, 62
1, 199669, Note_off_c, 0, 63, 36
1, 199678, Note_off_c, 0, 75, 61
1, 199681, Control_c, 0, 64, 64
1, 199756, Control_c, 0, 64, 63
1, 199756, Control_c, 0, 67, 60
1, 199771, Control_c, 0, 64, 61
1, 199785, Control_c, 0, 64, 56
1, 199800, Control_c, 0, 64, 51
1, 199815, Control_c, 0, 64, 44
1, 199827, Note_off_c, 0, 57, 63
1, 199830, Control_c, 0, 64, 34
1, 199830, Control_c, 0, 67, 60
1, 199845, Control_c, 0, 64, 19
1, 199851, Note_on_c, 0, 58, 51
1, 199854, Note_on_c, 0, 73, 59
1, 199859, Control_c, 0, 64, 0
1, 199860, Note_off_c, 0, 72, 57
1, 199874, Control_c, 0, 67, 61
1, 199889, Control_c, 0, 67, 62
1, 199933, Control_c, 0, 67, 62
1, 199985, Control_c, 0, 64, 32
1, 199985, Control_c, 0, 67, 62
1, 200000, Control_c, 0, 64, 55
1, 200015, Control_c, 0, 64, 64
1, 200030, Control_c, 0, 64, 68
1, 200030, Note_on_c, 0, 46, 46
1, 200045, Control_c, 0, 64, 71
1, 200049, Note_off_c, 0, 58, 32
1, 200050, Note_on_c, 0, 61, 48
1, 200060, Control_c, 0, 64, 74
1, 200060, Control_c, 0, 67, 61
1, 200063, Note_off_c, 0, 73, 63
1, 200074, Control_c, 0, 64, 79
1, 200074, Control_c, 0, 67, 60
1, 200089, Control_c, 0, 64, 87
1, 200089, Control_c, 0, 67, 59
1, 200091, Note_off_c, 0, 61, 55
1, 200100, Note_off_c, 0, 46, 61
1, 200104, Control_c, 0, 64, 93
1, 200104, Control_c, 0, 67, 59
1, 200118, Control_c, 0, 64, 97
1, 200133, Control_c, 0, 64, 101
1, 200148, Control_c, 0, 64, 103
1, 200163, Control_c, 0, 64, 104
1, 200163, Control_c, 0, 67, 58
1, 200251, Note_on_c, 0, 77, 61
1, 200252, Control_c, 0, 64, 102
1, 200266, Control_c, 0, 64, 93
1, 200267, Note_on_c, 0, 61, 56
1, 200281, Control_c, 0, 64, 83
1, 200281, Control_c, 0, 67, 59
1, 200296, Control_c, 0, 64, 72
1, 200311, Control_c, 0, 64, 65
1, 200311, Control_c, 0, 67, 59
1, 200325, Control_c, 0, 64, 59
1, 200340, Control_c, 0, 64, 54
1, 200355, Control_c, 0, 64, 50
1, 200370, Control_c, 0, 64, 46
1, 200370, Control_c, 0, 67, 60
1, 200385, Control_c, 0, 64, 38
1, 200400, Control_c, 0, 64, 28
1, 200400, Control_c, 0, 67, 60
1, 200415, Control_c, 0, 64, 17
1, 200430, Control_c, 0, 64, 10
1, 200431, Note_off_c, 0, 61, 60
1, 200439, Note_on_c, 0, 59, 55
1, 200452, Note_on_c, 0, 74, 58
1, 200459, Note_off_c, 0, 77, 63
1, 200459, Control_c, 0, 64, 16
1, 200474, Control_c, 0, 64, 25
1, 200489, Control_c, 0, 64, 32
1, 200504, Control_c, 0, 64, 36
1, 200518, Control_c, 0, 64, 37
1, 200549, Control_c, 0, 64, 37
1, 200564, Control_c, 0, 64, 35
1, 200579, Control_c, 0, 64, 32
1, 200594, Control_c, 0, 64, 28
1, 200606, Note_off_c, 0, 59, 58
1, 200608, Control_c, 0, 64, 23
1, 200623, Control_c, 0, 64, 15
1, 200638, Control_c, 0, 64, 0
1, 200649, Note_on_c, 0, 60, 52
1, 200654, Note_off_c, 0, 74, 63
1, 200657, Note_on_c, 0, 75, 59
1, 200696, Control_c, 0, 67, 60
1, 200734, Control_c, 0, 67, 59
1, 200748, Control_c, 0, 64, 8
1, 200763, Control_c, 0, 64, 34
1, 200763, Control_c, 0, 67, 59
1, 200774, Note_off_c, 0, 60, 48
1, 200778, Control_c, 0, 64, 52
1, 200793, Control_c, 0, 64, 63
1, 200793, Control_c, 0, 67, 58
1, 200808, Control_c, 0, 64, 66
1, 200822, Control_c, 0, 64, 67
1, 200828, Note_on_c, 0, 63, 51
1, 200837, Control_c, 0, 64, 69
1, 200843, Note_on_c, 0, 48, 44
1, 200852, Control_c, 0, 64, 71
1, 200864, Note_off_c, 0, 75, 61
1, 200867, Control_c, 0, 64, 75
1, 200867, Control_c, 0, 67, 58
1, 200882, Control_c, 0, 64, 78
1, 200896, Control_c, 0, 64, 82
1, 200911, Control_c, 0, 64, 84
1, 200915, Note_off_c, 0, 48, 56
1, 200926, Control_c, 0, 64, 86
1, 200940, Control_c, 0, 64, 88
1, 200955, Control_c, 0, 64, 89
1, 201014, Control_c, 0, 67, 59
1, 201029, Control_c, 0, 67, 59
1, 201044, Control_c, 0, 64, 86
1, 201048, Note_on_c, 0, 60, 54
1, 201050, Note_on_c, 0, 75, 58
1, 201059, Control_c, 0, 64, 78
1, 201074, Control_c, 0, 64, 69
1, 201088, Control_c, 0, 64, 59
1, 201088, Control_c, 0, 67, 60
1, 201103, Control_c, 0, 64, 48
1, 201103, Control_c, 0, 67, 60
1, 201118, Control_c, 0, 64, 39
1, 201118, Control_c, 0, 67, 61
1, 201133, Control_c, 0, 64, 34
1, 201133, Control_c, 0, 67, 61
1, 201148, Control_c, 0, 64, 31
1, 201163, Control_c, 0, 64, 26
1, 201168, Note_off_c, 0, 63, 27
1, 201178, Control_c, 0, 64, 20
1, 201178, Control_c, 0, 67, 62
1, 201193, Control_c, 0, 64, 16
1, 201208, Control_c, 0, 67, 63
1, 201222, Control_c, 0, 67, 63
1, 201228, Note_off_c, 0, 60, 59
1, 201237, Control_c, 0, 64, 18
1, 201252, Control_c, 0, 64, 21
1, 201253, Note_on_c, 0, 57, 47
1, 201255, Note_on_c, 0, 72, 54
1, 201258, Note_off_c, 0, 75, 59
1, 201266, Control_c, 0, 64, 24
1, 201281, Control_c, 0, 64, 30
1, 201281, Control_c, 0, 67, 64
1, 201296, Control_c, 0, 64, 40
1, 201296, Control_c, 0, 67, 66
1, 201311, Control_c, 0, 64, 47
1, 201311, Control_c, 0, 67, 68
1, 201326, Control_c, 0, 64, 50
1, 201326, Control_c, 0, 67, 69
1, 201342, Control_c, 0, 67, 70
1, 201356, Control_c, 0, 64, 50
1, 201356, Control_c, 0, 67, 70
1, 201386, Control_c, 0, 64, 49
1, 201401, Control_c, 0, 64, 48
1, 201401, Control_c, 0, 67, 71
1, 201416, Control_c, 0, 64, 47
1, 201430, Control_c, 0, 64, 45
1, 201445, Control_c, 0, 64, 43
1, 201445, Control_c, 0, 67, 71
1, 201467, Control_c, 0, 64, 41
1, 201467, Control_c, 0, 67, 72
1, 201480, Note_off_c, 0, 57, 62
1, 201482, Control_c, 0, 64, 39
1, 201482, Control_c, 0, 67, 73
1, 201494, Note_on_c, 0, 73, 48
1, 201497, Note_on_c, 0, 58, 47
1, 201497, Control_c, 0, 64, 35
1, 201497, Control_c, 0, 67, 74
1, 201500, Note_off_c, 0, 72, 58
1, 201512, Control_c, 0, 64, 30
1, 201512, Control_c, 0, 67, 76
1, 201527, Control_c, 0, 64, 25
1, 201527, Control_c, 0, 67, 76
1, 201542, Control_c, 0, 64, 24
1, 201660, Control_c, 0, 64, 24
1, 201660, Control_c, 0, 67, 76
1, 201689, Control_c, 0, 64, 27
1, 201704, Control_c, 0, 64, 35
1, 201704, Control_c, 0, 67, 75
1, 201719, Control_c, 0, 64, 47
1, 201734, Control_c, 0, 64, 59
1, 201739, Note_on_c, 0, 46, 43
1, 201739, Note_on_c, 0, 61, 43
1, 201749, Control_c, 0, 64, 65
1, 201749, Control_c, 0, 67, 75
1, 201763, Control_c, 0, 64, 68
1, 201778, Control_c, 0, 64, 71
1, 201778, Control_c, 0, 67, 74
1, 201786, Note_off_c, 0, 46, 59
1, 201793, Control_c, 0, 64, 74
1, 201796, Note_off_c, 0, 61, 56
1, 201804, Note_off_c, 0, 58, 52
1, 201808, Control_c, 0, 64, 79
1, 201808, Control_c, 0, 67, 74
1, 201823, Note_off_c, 0, 73, 60
1, 201823, Control_c, 0, 64, 85
1, 201837, Control_c, 0, 64, 90
1, 201852, Control_c, 0, 64, 95
1, 201867, Control_c, 0, 64, 99
1, 201882, Control_c, 0, 64, 102
1, 201896, Control_c, 0, 64, 105
1, 201911, Control_c, 0, 64, 106
1, 202015, Control_c, 0, 64, 104
1, 202030, Control_c, 0, 64, 98
1, 202045, Control_c, 0, 64, 92
1, 202059, Note_on_c, 0, 72, 55
1, 202060, Control_c, 0, 64, 84
1, 202060, Control_c, 0, 67, 74
1, 202066, Note_on_c, 0, 56, 56
1, 202075, Control_c, 0, 64, 72
1, 202081, Note_on_c, 0, 48, 45
1, 202082, Note_on_c, 0, 63, 42
1, 202089, Control_c, 0, 64, 60
1, 202104, Control_c, 0, 64, 45
1, 202119, Control_c, 0, 64, 33
1, 202135, Control_c, 0, 64, 30
1, 202150, Control_c, 0, 64, 31
1, 202165, Control_c, 0, 64, 40
1, 202180, Control_c, 0, 64, 54
1, 202194, Control_c, 0, 64, 65
1, 202194, Control_c, 0, 67, 75
1, 202217, Control_c, 0, 64, 71
1, 202232, Control_c, 0, 64, 71
1, 202232, Control_c, 0, 67, 75
1, 202247, Control_c, 0, 64, 67
1, 202262, Control_c, 0, 64, 59
1, 202262, Control_c, 0, 67, 75
1, 202271, Note_off_c, 0, 48, 42
1, 202276, Control_c, 0, 64, 45
1, 202291, Control_c, 0, 64, 33
1, 202306, Control_c, 0, 64, 31
1, 202319, Note_on_c, 0, 70, 63
1, 202320, Note_on_c, 0, 55, 55
1, 202320, Control_c, 0, 64, 36
1, 202320, Control_c, 0, 67, 74
1, 202322, Note_on_c, 0, 49, 51
1, 202335, Control_c, 0, 64, 49
1, 202336, Note_off_c, 0, 56, 55
1, 202349, Note_off_c, 0, 72, 56
1, 202350, Control_c, 0, 64, 61
1, 202350, Control_c, 0, 67, 75
1, 202365, Control_c, 0, 64, 70
1, 202380, Control_c, 0, 64, 78
1, 202394, Control_c, 0, 64, 85
1, 202405, Note_off_c, 0, 63, 39
1, 202409, Control_c, 0, 64, 90
1, 202409, Control_c, 0, 67, 74
1, 202424, Control_c, 0, 64, 94
1, 202439, Control_c, 0, 64, 101
1, 202454, Control_c, 0, 64, 104
1, 202469, Control_c, 0, 64, 103
1, 202475, Note_off_c, 0, 55, 61
1, 202483, Control_c, 0, 64, 89
1, 202489, Note_off_c, 0, 49, 54
1, 202498, Control_c, 0, 64, 73
1, 202498, Control_c, 0, 67, 75
1, 202513, Control_c, 0, 64, 57
1, 202519, Note_off_c, 0, 70, 59
1, 202526, Note_on_c, 0, 72, 66
1, 202528, Control_c, 0, 64, 41
1, 202528, Note_on_c, 0, 63, 58
1, 202530, Note_on_c, 0, 56, 66
1, 202543, Control_c, 0, 64, 35
1, 202547, Note_on_c, 0, 48, 52
1, 202558, Control_c, 0, 64, 42
1, 202573, Control_c, 0, 64, 57
1, 202587, Control_c, 0, 64, 68
1, 202602, Control_c, 0, 64, 79
1, 202602, Control_c, 0, 67, 75
1, 202617, Control_c, 0, 64, 88
1, 202632, Control_c, 0, 64, 89
1, 202632, Control_c, 0, 67, 76
1, 202647, Control_c, 0, 64, 88
1, 202661, Control_c, 0, 64, 79
1, 202676, Control_c, 0, 64, 64
1, 202676, Control_c, 0, 67, 75
1, 202691, Control_c, 0, 64, 46
1, 202706, Control_c, 0, 64, 0
1, 202717, Note_off_c, 0, 48, 59
1, 202720, Control_c, 0, 67, 76
1, 202738, Note_on_c, 0, 55, 64
1, 202743, Note_on_c, 0, 49, 61
1, 202746, Note_on_c, 0, 70, 70
1, 202747, Note_off_c, 0, 56, 60
1, 202750, Control_c, 0, 67, 76
1, 202785, Note_off_c, 0, 72, 59
1, 202794, Control_c, 0, 64, 19
1, 202809, Control_c, 0, 64, 52
1, 202824, Control_c, 0, 64, 65
1, 202824, Control_c, 0, 67, 75
1, 202839, Control_c, 0, 64, 71
1, 202850, Note_off_c, 0, 63, 58
1, 202854, Control_c, 0, 64, 76
1, 202868, Control_c, 0, 64, 81
1, 202868, Control_c, 0, 67, 75
1, 202883, Control_c, 0, 64, 87
1, 202883, Control_c, 0, 67, 75
1, 202898, Control_c, 0, 64, 98
1, 202906, Note_off_c, 0, 55, 62
1, 202913, Control_c, 0, 64, 109
1, 202913, Control_c, 0, 67, 75
1, 202920, Note_off_c, 0, 49, 47
1, 202928, Control_c, 0, 64, 127
1, 202966, Control_c, 0, 67, 74
1, 203070, Control_c, 0, 64, 112
1, 203070, Control_c, 0, 67, 74
1, 203074, Note_on_c, 0, 72, 67
1, 203085, Control_c, 0, 64, 90
1, 203089, Note_on_c, 0, 56, 63
1, 203094, Note_on_c, 0, 63, 58
1, 203099, Control_c, 0, 64, 74
1, 203099, Control_c, 0, 67, 73
1, 203103, Note_on_c, 0, 48, 54
1, 203114, Control_c, 0, 64, 62
1, 203128, Note_off_c, 0, 70, 41
1, 203129, Control_c, 0, 64, 51
1, 203143, Control_c, 0, 64, 43
1, 203143, Control_c, 0, 67, 73
1, 203158, Control_c, 0, 64, 36
1, 203158, Control_c, 0, 67, 72
1, 203173, Control_c, 0, 64, 26
1, 203188, Control_c, 0, 64, 0
1, 203188, Control_c, 0, 67, 71
1, 203203, Control_c, 0, 67, 71
1, 203217, Control_c, 0, 67, 70
1, 203232, Control_c, 0, 67, 69
1, 203247, Control_c, 0, 67, 68
1, 203262, Control_c, 0, 67, 67
1, 203277, Control_c, 0, 67, 66
1, 203291, Control_c, 0, 67, 66
1, 203306, Control_c, 0, 67, 65
1, 203321, Control_c, 0, 67, 64
1, 203336, Control_c, 0, 67, 61
1, 203351, Control_c, 0, 67, 58
1, 203366, Control_c, 0, 67, 51
1, 203381, Control_c, 0, 64, 22
1, 203381, Control_c, 0, 67, 44
1, 203396, Control_c, 0, 64, 38
1, 203396, Control_c, 0, 67, 38
1, 203410, Control_c, 0, 64, 50
1, 203410, Control_c, 0, 67, 32
1, 203425, Control_c, 0, 64, 56
1, 203425, Control_c, 0, 67, 24
1, 203440, Control_c, 0, 64, 59
1, 203440, Control_c, 0, 67, 18
1, 203455, Control_c, 0, 64, 61
1, 203455, Control_c, 0, 67, 12
1, 203470, Control_c, 0, 64, 63
1, 203470, Control_c, 0, 67, 0
1, 203484, Control_c, 0, 64, 65
1, 203499, Control_c, 0, 64, 69
1, 203514, Control_c, 0, 64, 76
1, 203528, Control_c, 0, 64, 83
1, 203543, Control_c, 0, 64, 89
1, 203558, Control_c, 0, 64, 95
1, 203573, Control_c, 0, 64, 103
1, 203588, Control_c, 0, 64, 127
1, 203721, Note_off_c, 0, 63, 44
1, 203908, Control_c, 0, 67, 9
1, 203922, Control_c, 0, 67, 11
1, 203975, Note_off_c, 0, 56, 38
1, 203996, Control_c, 0, 67, 11
1, 204064, Note_off_c, 0, 48, 30
1, 204126, Note_on_c, 0, 70, 58
1, 204135, Note_on_c, 0, 63, 46
1, 204143, Note_on_c, 0, 55, 55
1, 204153, Note_on_c, 0, 49, 49
1, 204159, Control_c, 0, 67, 12
1, 204174, Control_c, 0, 64, 118
1, 204188, Note_off_c, 0, 72, 56
1, 204189, Control_c, 0, 64, 93
1, 204203, Control_c, 0, 64, 78
1, 204218, Control_c, 0, 64, 66
1, 204233, Control_c, 0, 64, 58
1, 204248, Control_c, 0, 64, 50
1, 204263, Control_c, 0, 64, 43
1, 204277, Control_c, 0, 64, 36
1, 204292, Control_c, 0, 64, 25
1, 204307, Control_c, 0, 64, 0
1, 204426, Control_c, 0, 64, 25
1, 204426, Control_c, 0, 67, 11
1, 204440, Control_c, 0, 64, 47
1, 204463, Control_c, 0, 64, 61
1, 204478, Control_c, 0, 64, 66
1, 204492, Control_c, 0, 64, 70
1, 204492, Control_c, 0, 67, 11
1, 204507, Control_c, 0, 64, 73
1, 204507, Control_c, 0, 67, 10
1, 204522, Control_c, 0, 64, 80
1, 204522, Control_c, 0, 67, 10
1, 204537, Control_c, 0, 64, 87
1, 204552, Control_c, 0, 64, 98
1, 204567, Control_c, 0, 64, 115
1, 204582, Control_c, 0, 64, 127
1, 204629, Note_off_c, 0, 55, 49
1, 204657, Control_c, 0, 67, 10
1, 204686, Control_c, 0, 67, 11
1, 204694, Note_off_c, 0, 63, 42
1, 204730, Control_c, 0, 67, 11
1, 204748, Note_off_c, 0, 70, 61
1, 204847, Note_off_c, 0, 49, 56
1, 204863, Control_c, 0, 67, 12
1, 204937, Control_c, 0, 67, 12
1, 205011, Control_c, 0, 67, 13
1, 205056, Control_c, 0, 64, 89
1, 205071, Control_c, 0, 64, 70
1, 205086, Control_c, 0, 64, 58
1, 205101, Control_c, 0, 64, 46
1, 205104, Note_on_c, 0, 75, 66
1, 205106, Note_on_c, 0, 56, 55
1, 205106, Note_on_c, 0, 63, 57
1, 205115, Control_c, 0, 64, 36
1, 205117, Note_on_c, 0, 48, 51
1, 205130, Control_c, 0, 64, 27
1, 205145, Control_c, 0, 64, 13
1, 205160, Control_c, 0, 64, 0
1, 205188, Control_c, 0, 64, 20
1, 205211, Control_c, 0, 64, 44
1, 205211, Control_c, 0, 67, 13
1, 205226, Control_c, 0, 64, 65
1, 205241, Control_c, 0, 64, 77
1, 205241, Control_c, 0, 67, 14
1, 205255, Control_c, 0, 64, 85
1, 205255, Control_c, 0, 67, 15
1, 205270, Control_c, 0, 67, 16
1, 205285, Control_c, 0, 64, 78
1, 205300, Control_c, 0, 64, 66
1, 205314, Control_c, 0, 64, 55
1, 205330, Note_off_c, 0, 48, 60
1, 205330, Control_c, 0, 64, 44
1, 205341, Note_on_c, 0, 53, 66
1, 205343, Note_on_c, 0, 74, 72
1, 205345, Control_c, 0, 64, 46
1, 205345, Note_on_c, 0, 68, 67
1, 205350, Note_on_c, 0, 46, 55
1, 205353, Note_off_c, 0, 56, 57
1, 205360, Control_c, 0, 64, 56
1, 205363, Note_off_c, 0, 75, 59
1, 205375, Control_c, 0, 64, 69
1, 205390, Control_c, 0, 64, 87
1, 205390, Control_c, 0, 67, 16
1, 205404, Control_c, 0, 64, 127
1, 205404, Control_c, 0, 67, 17
1, 205419, Control_c, 0, 67, 18
1, 205432, Note_off_c, 0, 63, 58
1, 205434, Control_c, 0, 67, 19
1, 205452, Note_off_c, 0, 46, 61
1, 205452, Note_off_c, 0, 68, 35
1, 205470, Note_off_c, 0, 53, 54
1, 205488, Note_off_c, 0, 74, 61
1, 205523, Control_c, 0, 64, 88
1, 205533, Note_on_c, 0, 56, 63
1, 205535, Note_on_c, 0, 48, 69
1, 205537, Control_c, 0, 64, 63
1, 205552, Control_c, 0, 64, 40
1, 205554, Note_on_c, 0, 63, 72
1, 205555, Note_on_c, 0, 75, 85
1, 205567, Control_c, 0, 64, 25
1, 205582, Control_c, 0, 64, 39
1, 205597, Control_c, 0, 64, 59
1, 205611, Control_c, 0, 64, 78
1, 205626, Control_c, 0, 64, 127
1, 205641, Control_c, 0, 67, 20
1, 205656, Control_c, 0, 67, 20
1, 205671, Control_c, 0, 64, 107
1, 205685, Control_c, 0, 64, 73
1, 205700, Control_c, 0, 64, 53
1, 205715, Control_c, 0, 64, 0
1, 205736, Note_off_c, 0, 48, 60
1, 205753, Note_on_c, 0, 53, 70
1, 205754, Note_on_c, 0, 46, 59
1, 205754, Note_on_c, 0, 74, 78
1, 205764, Note_on_c, 0, 68, 71
1, 205771, Note_off_c, 0, 56, 51
1, 205774, Control_c, 0, 64, 30
1, 205789, Control_c, 0, 64, 59
1, 205789, Control_c, 0, 67, 21
1, 205797, Note_off_c, 0, 75, 61
1, 205804, Control_c, 0, 64, 75
1, 205804, Control_c, 0, 67, 22
1, 205819, Control_c, 0, 64, 94
1, 205819, Control_c, 0, 67, 23
1, 205834, Control_c, 0, 64, 127
1, 205840, Note_off_c, 0, 46, 58
1, 205847, Note_off_c, 0, 68, 60
1, 205868, Note_off_c, 0, 53, 60
1, 205870, Note_off_c, 0, 63, 57
1, 205882, Note_off_c, 0, 74, 64
1, 206064, Control_c, 0, 67, 22
1, 206064, Note_on_c, 0, 75, 81
1, 206077, Note_on_c, 0, 63, 69
1, 206078, Note_on_c, 0, 56, 73
1, 206078, Control_c, 0, 64, 109
1, 206081, Note_on_c, 0, 68, 68
1, 206084, Note_on_c, 0, 51, 62
1, 206087, Note_on_c, 0, 48, 68
1, 206093, Control_c, 0, 64, 82
1, 206093, Control_c, 0, 67, 22
1, 206108, Control_c, 0, 64, 67
1, 206108, Control_c, 0, 67, 21
1, 206123, Control_c, 0, 64, 53
1, 206123, Control_c, 0, 67, 21
1, 206139, Control_c, 0, 64, 41
1, 206153, Control_c, 0, 64, 30
1, 206168, Control_c, 0, 64, 12
1, 206168, Control_c, 0, 67, 20
1, 206183, Control_c, 0, 64, 0
1, 206227, Control_c, 0, 67, 20
1, 206242, Control_c, 0, 67, 19
1, 206257, Control_c, 0, 67, 19
1, 206272, Control_c, 0, 67, 18
1, 206287, Control_c, 0, 67, 17
1, 206302, Control_c, 0, 67, 16
1, 206317, Control_c, 0, 67, 14
1, 206332, Control_c, 0, 67, 12
1, 206347, Control_c, 0, 67, 9
1, 206361, Control_c, 0, 64, 20
1, 206361, Control_c, 0, 67, 0
1, 206376, Control_c, 0, 64, 41
1, 206391, Control_c, 0, 64, 53
1, 206406, Control_c, 0, 64, 59
1, 206421, Control_c, 0, 64, 66
1, 206435, Control_c, 0, 64, 79
1, 206450, Control_c, 0, 64, 115
1, 206465, Control_c, 0, 64, 127
1, 206503, Note_off_c, 0, 56, 58
1, 206553, Note_off_c, 0, 51, 61
1, 206567, Note_off_c, 0, 48, 61
1, 206672, Control_c, 0, 67, 10
1, 206687, Control_c, 0, 67, 15
1, 206709, Control_c, 0, 67, 20
1, 206724, Control_c, 0, 67, 27
1, 206731, Note_off_c, 0, 68, 34
1, 206733, Note_off_c, 0, 63, 61
1, 206739, Control_c, 0, 67, 34
1, 206746, Note_off_c, 0, 75, 56
1, 206754, Control_c, 0, 67, 42
1, 206768, Control_c, 0, 67, 51
1, 206783, Control_c, 0, 67, 64
1, 206798, Control_c, 0, 67, 75
1, 206813, Control_c, 0, 67, 85
1, 206828, Control_c, 0, 67, 93
1, 206842, Control_c, 0, 67, 98
1, 206857, Control_c, 0, 67, 100
1, 206872, Control_c, 0, 67, 101
1, 206886, Control_c, 0, 67, 103
1, 206901, Control_c, 0, 67, 105
1, 206916, Control_c, 0, 67, 106
1, 206932, Control_c, 0, 67, 107
1, 206947, Control_c, 0, 67, 108
1, 206962, Control_c, 0, 67, 109
1, 206976, Control_c, 0, 67, 110
1, 206991, Control_c, 0, 67, 112
1, 207006, Control_c, 0, 67, 114
1, 207021, Control_c, 0, 67, 116
1, 207036, Control_c, 0, 67, 118
1, 207045, Note_on_c, 0, 46, 52
1, 207050, Control_c, 0, 64, 81
1, 207050, Control_c, 0, 67, 121
1, 207065, Control_c, 0, 64, 59
1, 207065, Control_c, 0, 67, 123
1, 207080, Control_c, 0, 64, 24
1, 207080, Control_c, 0, 67, 124
1, 207095, Control_c, 0, 64, 0
1, 207107, Note_on_c, 0, 62, 53
1, 207150, Note_off_c, 0, 46, 59
1, 207155, Control_c, 0, 64, 43
1, 207166, Note_on_c, 0, 68, 46
1, 207169, Control_c, 0, 64, 63
1, 207178, Note_on_c, 0, 48, 35
1, 207184, Control_c, 0, 64, 73
1, 207199, Control_c, 0, 64, 81
1, 207214, Control_c, 0, 64, 90
1, 207223, Note_off_c, 0, 48, 52
1, 207229, Control_c, 0, 64, 103
1, 207244, Control_c, 0, 64, 127
1, 207250, Note_on_c, 0, 46, 48
1, 207265, Note_on_c, 0, 77, 70
1, 207288, Control_c, 0, 67, 124
1, 207289, Note_off_c, 0, 46, 63
1, 207331, Note_on_c, 0, 48, 29
1, 207332, Control_c, 0, 67, 125
1, 207362, Control_c, 0, 67, 125
1, 207368, Note_off_c, 0, 48, 48
1, 207376, Control_c, 0, 67, 126
1, 207381, Note_on_c, 0, 46, 52
1, 207406, Control_c, 0, 67, 127
1, 207428, Note_off_c, 0, 46, 62
1, 207523, Note_on_c, 0, 46, 57
1, 207559, Poly_aftertouch_c, 0, 48, 0
1, 207569, Note_off_c, 0, 46, 64
1, 207580, Note_on_c, 0, 48, 27
1, 207633, Note_off_c, 0, 48, 61
1, 207662, Note_on_c, 0, 46, 50
1, 207698, Note_off_c, 0, 46, 57
1, 207719, Note_on_c, 0, 48, 54
1, 207760, Note_off_c, 0, 48, 63
1, 207780, Note_on_c, 0, 46, 62
1, 207813, Note_off_c, 0, 46, 65
1, 207837, Note_on_c, 0, 48, 52
1, 207868, Note_off_c, 0, 48, 55
1, 207894, Note_on_c, 0, 46, 58
1, 207921, Note_off_c, 0, 46, 60
1, 207946, Control_c, 0, 67, 127
1, 207951, Note_on_c, 0, 48, 58
1, 207987, Note_off_c, 0, 48, 56
1, 208007, Note_on_c, 0, 46, 63
1, 208043, Note_off_c, 0, 46, 61
1, 208079, Control_c, 0, 64, 84
1, 208094, Control_c, 0, 64, 61
1, 208102, Note_on_c, 0, 44, 78
1, 208109, Control_c, 0, 64, 25
1, 208123, Control_c, 0, 64, 0
1, 208168, Control_c, 0, 64, 40
1, 208183, Control_c, 0, 64, 63
1, 208205, Control_c, 0, 64, 78
1, 208220, Control_c, 0, 64, 96
1, 208221, Note_off_c, 0, 44, 63
1, 208235, Control_c, 0, 64, 127
1, 208237, Note_on_c, 0, 46, 61
1, 208257, Note_off_c, 0, 68, 64
1, 208287, Note_off_c, 0, 46, 61
1, 208288, Note_off_c, 0, 77, 51
1, 208294, Control_c, 0, 67, 126
1, 208309, Control_c, 0, 67, 125
1, 208324, Control_c, 0, 67, 123
1, 208336, Note_on_c, 0, 44, 55
1, 208338, Control_c, 0, 67, 122
1, 208353, Control_c, 0, 67, 120
1, 208368, Control_c, 0, 67, 118
1, 208370, Note_off_c, 0, 44, 64
1, 208379, Note_off_c, 0, 62, 56
1, 208383, Control_c, 0, 67, 116
1, 208398, Control_c, 0, 67, 115
1, 208401, Note_on_c, 0, 46, 54
1, 208412, Control_c, 0, 67, 113
1, 208427, Control_c, 0, 67, 111
1, 208430, Note_off_c, 0, 46, 60
1, 208442, Control_c, 0, 67, 109
1, 208457, Control_c, 0, 67, 105
1, 208471, Note_on_c, 0, 44, 57
1, 208472, Control_c, 0, 67, 102
1, 208487, Control_c, 0, 67, 98
1, 208502, Control_c, 0, 67, 93
1, 208509, Note_off_c, 0, 44, 62
1, 208517, Control_c, 0, 67, 90
1, 208520, Note_on_c, 0, 62, 68
1, 208532, Control_c, 0, 67, 86
1, 208542, Note_on_c, 0, 46, 51
1, 208547, Control_c, 0, 67, 82
1, 208562, Control_c, 0, 67, 75
1, 208576, Control_c, 0, 67, 67
1, 208581, Note_off_c, 0, 46, 60
1, 208586, Note_on_c, 0, 70, 62
1, 208591, Control_c, 0, 67, 55
1, 208606, Control_c, 0, 67, 39
1, 208610, Note_on_c, 0, 44, 56
1, 208621, Control_c, 0, 67, 25
1, 208636, Note_on_c, 0, 77, 87
1, 208636, Control_c, 0, 67, 11
1, 208645, Note_off_c, 0, 44, 64
1, 208651, Control_c, 0, 67, 0
1, 208669, Note_on_c, 0, 46, 63
1, 208714, Note_off_c, 0, 46, 61
1, 208738, Note_on_c, 0, 44, 59
1, 208782, Note_off_c, 0, 44, 63
1, 208816, Note_on_c, 0, 46, 52
1, 208875, Note_on_c, 0, 44, 62
1, 208895, Note_off_c, 0, 46, 55
1, 208907, Note_off_c, 0, 44, 63
1, 208985, Control_c, 0, 64, 66
1, 209000, Note_on_c, 0, 43, 78
1, 209000, Control_c, 0, 64, 0
1, 209033, Note_off_c, 0, 62, 62
1, 209073, Control_c, 0, 64, 45
1, 209088, Control_c, 0, 64, 63
1, 209103, Control_c, 0, 64, 73
1, 209106, Note_off_c, 0, 43, 56
1, 209117, Note_on_c, 0, 44, 68
1, 209118, Control_c, 0, 64, 82
1, 209133, Control_c, 0, 64, 98
1, 209137, Note_off_c, 0, 77, 65
1, 209148, Control_c, 0, 64, 127
1, 209161, Note_off_c, 0, 44, 59
1, 209167, Note_off_c, 0, 70, 46
1, 209186, Note_on_c, 0, 43, 47
1, 209248, Note_off_c, 0, 43, 61
1, 209267, Note_on_c, 0, 63, 69
1, 209272, Note_on_c, 0, 44, 62
1, 209304, Note_off_c, 0, 44, 63
1, 209319, Note_off_c, 0, 63, 59
1, 209343, Note_on_c, 0, 70, 67
1, 209345, Note_on_c, 0, 43, 50
1, 209381, Note_off_c, 0, 43, 54
1, 209412, Note_on_c, 0, 44, 67
1, 209425, Note_on_c, 0, 79, 87
1, 209451, Note_off_c, 0, 44, 64
1, 209471, Note_on_c, 0, 43, 64
1, 209474, Control_c, 0, 67, 8
1, 209489, Control_c, 0, 67, 8
1, 209502, Note_off_c, 0, 43, 64
1, 209503, Control_c, 0, 67, 9
1, 209546, Note_on_c, 0, 44, 70
1, 209578, Control_c, 0, 67, 9
1, 209605, Note_on_c, 0, 43, 52
1, 209611, Note_off_c, 0, 44, 55
1, 209672, Note_off_c, 0, 43, 63
1, 209718, Control_c, 0, 64, 108
1, 209733, Control_c, 0, 64, 63
1, 209739, Note_on_c, 0, 41, 90
1, 209748, Control_c, 0, 64, 0
1, 209748, Control_c, 0, 67, 10
1, 209763, Control_c, 0, 67, 10
1, 209778, Control_c, 0, 67, 11
1, 209793, Control_c, 0, 64, 24
1, 209793, Control_c, 0, 67, 11
1, 209808, Control_c, 0, 64, 57
1, 209822, Control_c, 0, 64, 72
1, 209822, Control_c, 0, 67, 12
1, 209833, Note_off_c, 0, 41, 63
1, 209837, Control_c, 0, 64, 87
1, 209837, Control_c, 0, 67, 13
1, 209841, Note_on_c, 0, 43, 66
1, 209852, Control_c, 0, 64, 111
1, 209852, Control_c, 0, 67, 14
1, 209861, Note_off_c, 0, 79, 65
1, 209867, Control_c, 0, 64, 127
1, 209880, Note_off_c, 0, 70, 62
1, 209898, Note_off_c, 0, 43, 60
1, 209936, Note_on_c, 0, 41, 53
1, 209974, Note_off_c, 0, 41, 55
1, 209995, Note_on_c, 0, 65, 67
1, 210013, Note_on_c, 0, 43, 50
1, 210058, Note_off_c, 0, 43, 46
1, 210064, Note_off_c, 0, 65, 53
1, 210073, Note_on_c, 0, 41, 58
1, 210082, Note_on_c, 0, 70, 80
1, 210094, Note_off_c, 0, 41, 66
1, 210118, Control_c, 0, 67, 15
1, 210147, Note_on_c, 0, 43, 52
1, 210159, Note_on_c, 0, 80, 89
1, 210169, Note_off_c, 0, 43, 63
1, 210174, Note_on_c, 0, 41, 59
1, 210223, Control_c, 0, 67, 15
1, 210228, Note_off_c, 0, 41, 61
1, 210239, Note_on_c, 0, 43, 69
1, 210288, Note_off_c, 0, 43, 62
1, 210309, Note_on_c, 0, 41, 53
1, 210341, Note_off_c, 0, 41, 53
1, 210359, Note_on_c, 0, 43, 62
1, 210397, Note_off_c, 0, 43, 56
1, 210401, Control_c, 0, 67, 16
1, 210416, Control_c, 0, 67, 16
1, 210431, Control_c, 0, 67, 17
1, 210434, Note_on_c, 0, 41, 23
1, 210453, Control_c, 0, 67, 19
1, 210468, Control_c, 0, 64, 85
1, 210468, Control_c, 0, 67, 21
1, 210472, Note_on_c, 0, 39, 93
1, 210474, Note_off_c, 0, 41, 49
1, 210482, Control_c, 0, 64, 54
1, 210482, Control_c, 0, 67, 22
1, 210491, Note_off_c, 0, 80, 61
1, 210493, Note_off_c, 0, 70, 62
1, 210497, Control_c, 0, 64, 0
1, 210497, Control_c, 0, 67, 23
1, 210512, Control_c, 0, 67, 23
1, 210526, Control_c, 0, 67, 25
1, 210571, Control_c, 0, 64, 52
1, 210577, Note_off_c, 0, 39, 62
1, 210586, Note_on_c, 0, 41, 61
1, 210586, Control_c, 0, 64, 69
1, 210586, Control_c, 0, 67, 25
1, 210601, Control_c, 0, 64, 79
1, 210615, Control_c, 0, 64, 94
1, 210630, Control_c, 0, 64, 127
1, 210651, Note_off_c, 0, 41, 60
1, 210660, Control_c, 0, 67, 25
1, 210688, Note_on_c, 0, 39, 63
1, 210710, Note_on_c, 0, 67, 76
1, 210741, Note_off_c, 0, 39, 61
1, 210767, Note_off_c, 0, 67, 62
1, 210777, Note_on_c, 0, 41, 47
1, 210804, Note_on_c, 0, 70, 77
1, 210806, Note_off_c, 0, 41, 59
1, 210842, Note_on_c, 0, 39, 56
1, 210852, Note_off_c, 0, 70, 61
1, 210872, Note_off_c, 0, 39, 65
1, 210897, Control_c, 0, 67, 24
1, 210899, Note_on_c, 0, 41, 61
1, 210928, Control_c, 0, 67, 24
1, 210940, Note_on_c, 0, 82, 95
1, 210942, Note_off_c, 0, 41, 59
1, 210943, Control_c, 0, 67, 23
1, 210957, Control_c, 0, 67, 22
1, 210961, Note_on_c, 0, 39, 69
1, 210972, Control_c, 0, 67, 20
1, 210987, Control_c, 0, 67, 18
1, 211002, Control_c, 0, 67, 16
1, 211016, Note_off_c, 0, 39, 62
1, 211017, Control_c, 0, 67, 14
1, 211031, Control_c, 0, 67, 12
1, 211034, Note_on_c, 0, 41, 59
1, 211046, Control_c, 0, 67, 10
1, 211061, Control_c, 0, 67, 0
1, 211071, Note_off_c, 0, 41, 62
1, 211098, Note_on_c, 0, 39, 55
1, 211127, Note_off_c, 0, 39, 63
1, 211152, Note_on_c, 0, 41, 60
1, 211179, Note_off_c, 0, 41, 56
1, 211212, Note_on_c, 0, 39, 58
1, 211247, Note_off_c, 0, 39, 60
1, 211260, Control_c, 0, 64, 83
1, 211268, Note_on_c, 0, 37, 84
1, 211275, Control_c, 0, 64, 52
1, 211290, Control_c, 0, 64, 0
1, 211334, Control_c, 0, 67, 9
1, 211349, Control_c, 0, 64, 31
1, 211349, Control_c, 0, 67, 11
1, 211361, Note_off_c, 0, 37, 63
1, 211364, Control_c, 0, 64, 58
1, 211364, Control_c, 0, 67, 12
1, 211378, Note_on_c, 0, 39, 67
1, 211378, Control_c, 0, 64, 68
1, 211378, Control_c, 0, 67, 14
1, 211393, Control_c, 0, 64, 74
1, 211393, Control_c, 0, 67, 14
1, 211408, Control_c, 0, 64, 84
1, 211408, Control_c, 0, 67, 15
1, 211423, Control_c, 0, 64, 99
1, 211429, Note_off_c, 0, 82, 61
1, 211435, Note_off_c, 0, 39, 62
1, 211438, Control_c, 0, 64, 127
1, 211462, Note_on_c, 0, 37, 62
1, 211508, Note_off_c, 0, 37, 63
1, 211512, Control_c, 0, 67, 16
1, 211540, Note_on_c, 0, 39, 61
1, 211542, Control_c, 0, 67, 17
1, 211570, Note_off_c, 0, 39, 65
1, 211604, Note_on_c, 0, 37, 63
1, 211647, Note_off_c, 0, 37, 62
1, 211648, Note_on_c, 0, 84, 84
1, 211657, Note_on_c, 0, 39, 64
1, 211721, Note_off_c, 0, 39, 60
1, 211736, Note_on_c, 0, 37, 65
1, 211784, Note_off_c, 0, 37, 62
1, 211799, Note_on_c, 0, 39, 65
1, 211821, Poly_aftertouch_c, 0, 32, 127
1, 211849, Note_off_c, 0, 39, 60
1, 211879, Note_on_c, 0, 37, 61
1, 211909, Note_off_c, 0, 37, 65
1, 211933, Note_on_c, 0, 39, 67
1, 211974, Note_off_c, 0, 39, 63
1, 211979, Control_c, 0, 64, 86
1, 211992, Note_on_c, 0, 37, 64
1, 211994, Control_c, 0, 64, 70
1, 212009, Control_c, 0, 64, 64
1, 212017, Note_on_c, 0, 85, 96
1, 212024, Control_c, 0, 64, 66
1, 212039, Control_c, 0, 64, 73
1, 212046, Note_off_c, 0, 37, 63
1, 212052, Note_on_c, 0, 39, 68
1, 212053, Control_c, 0, 64, 92
1, 212053, Control_c, 0, 67, 17
1, 212068, Control_c, 0, 64, 127
1, 212103, Note_off_c, 0, 39, 59
1, 212106, Note_off_c, 0, 84, 55
1, 212140, Note_on_c, 0, 37, 61
1, 212142, Control_c, 0, 67, 17
1, 212177, Poly_aftertouch_c, 0, 32, 0
1, 212180, Note_off_c, 0, 37, 55
1, 212195, Note_on_c, 0, 39, 66
1, 212215, Poly_aftertouch_c, 0, 32, 127
1, 212228, Note_off_c, 0, 39, 63
1, 212257, Note_on_c, 0, 37, 64
1, 212291, Note_off_c, 0, 37, 59
1, 212304, Note_on_c, 0, 39, 75
1, 212350, Note_on_c, 0, 86, 95
1, 212355, Note_off_c, 0, 39, 61
1, 212379, Note_on_c, 0, 37, 64
1, 212379, Control_c, 0, 67, 17
1, 212386, Note_off_c, 0, 85, 63
1, 212394, Control_c, 0, 64, 105
1, 212409, Control_c, 0, 64, 76
1, 212417, Note_off_c, 0, 37, 64
1, 212424, Control_c, 0, 64, 62
1, 212439, Control_c, 0, 64, 54
1, 212452, Note_on_c, 0, 39, 54
1, 212453, Control_c, 0, 64, 62
1, 212468, Control_c, 0, 64, 73
1, 212482, Note_off_c, 0, 39, 59
1, 212483, Control_c, 0, 64, 99
1, 212497, Control_c, 0, 64, 127
1, 212508, Note_on_c, 0, 37, 57
1, 212534, Poly_aftertouch_c, 0, 32, 0
1, 212543, Note_off_c, 0, 37, 65
1, 212569, Note_on_c, 0, 39, 64
1, 212571, Poly_aftertouch_c, 0, 32, 127
1, 212610, Note_off_c, 0, 39, 59
1, 212647, Note_on_c, 0, 37, 52
1, 212684, Note_off_c, 0, 37, 63
1, 212715, Note_on_c, 0, 39, 63
1, 212772, Note_off_c, 0, 39, 61
1, 212788, Note_on_c, 0, 37, 64
1, 212803, Control_c, 0, 67, 17
1, 212821, Note_on_c, 0, 87, 96
1, 212852, Note_off_c, 0, 37, 59
1, 212854, Note_off_c, 0, 86, 65
1, 212878, Note_on_c, 0, 39, 69
1, 212907, Control_c, 0, 67, 16
1, 212940, Note_off_c, 0, 39, 56
1, 212951, Control_c, 0, 67, 16
1, 212994, Note_on_c, 0, 37, 50
1, 213031, Note_on_c, 0, 39, 18
1, 213067, Note_off_c, 0, 39, 56
1, 213075, Poly_aftertouch_c, 0, 32, 0
1, 213103, Note_off_c, 0, 37, 59
1, 213114, Control_c, 0, 67, 15
1, 213128, Note_on_c, 0, 36, 72
1, 213241, Note_off_c, 0, 36, 64
1, 213253, Note_on_c, 0, 37, 74
1, 213262, Control_c, 0, 67, 15
1, 213277, Control_c, 0, 67, 13
1, 213292, Control_c, 0, 67, 9
1, 213307, Control_c, 0, 67, 0
1, 213334, Note_off_c, 0, 37, 62
1, 213361, Note_on_c, 0, 39, 74
1, 213450, Note_off_c, 0, 39, 62
1, 213455, Note_on_c, 0, 37, 72
1, 213536, Note_off_c, 0, 37, 63
1, 213541, Note_on_c, 0, 36, 76
1, 213596, Control_c, 0, 64, 108
1, 213611, Control_c, 0, 64, 88
1, 213626, Control_c, 0, 64, 77
1, 213641, Note_off_c, 0, 36, 65
1, 213641, Control_c, 0, 64, 69
1, 213647, Note_on_c, 0, 34, 84
1, 213656, Control_c, 0, 64, 63
1, 213671, Control_c, 0, 64, 56
1, 213686, Control_c, 0, 64, 48
1, 213700, Control_c, 0, 64, 35
1, 213715, Control_c, 0, 64, 0
1, 213746, Note_off_c, 0, 34, 63
1, 213778, Note_on_c, 0, 32, 80
1, 213863, Control_c, 0, 64, 29
1, 213877, Control_c, 0, 64, 59
1, 213892, Control_c, 0, 64, 75
1, 213907, Control_c, 0, 64, 90
1, 213911, Note_off_c, 0, 32, 59
1, 213922, Control_c, 0, 64, 127
1, 213925, Note_off_c, 0, 87, 64
1, 214082, Note_on_c, 0, 48, 62
1, 214093, Note_on_c, 0, 44, 56
1, 214145, Control_c, 0, 67, 8
1, 214160, Control_c, 0, 67, 9
1, 214226, Note_off_c, 0, 48, 58
1, 214234, Note_off_c, 0, 44, 59
1, 214364, Note_on_c, 0, 44, 60
1, 214369, Note_on_c, 0, 48, 51
1, 214430, Note_on_c, 0, 60, 82
1, 214464, Note_off_c, 0, 48, 42
1, 214479, Control_c, 0, 67, 8
1, 214553, Control_c, 0, 67, 8
1, 214582, Control_c, 0, 67, 0
1, 214636, Note_on_c, 0, 48, 49
1, 214643, Note_on_c, 0, 43, 54
1, 214671, Control_c, 0, 64, 114
1, 214685, Control_c, 0, 64, 78
1, 214700, Control_c, 0, 64, 63
1, 214715, Control_c, 0, 64, 56
1, 214730, Control_c, 0, 64, 60
1, 214741, Note_off_c, 0, 48, 57
1, 214745, Control_c, 0, 64, 67
1, 214760, Control_c, 0, 64, 78
1, 214762, Note_off_c, 0, 43, 62
1, 214762, Note_off_c, 0, 44, 56
1, 214775, Control_c, 0, 64, 127
1, 214874, Note_on_c, 0, 43, 46
1, 214877, Note_on_c, 0, 48, 42
1, 214890, Note_on_c, 0, 44, 39
1, 214943, Note_off_c, 0, 44, 57
1, 214946, Note_off_c, 0, 48, 44
1, 215058, Note_on_c, 0, 41, 60
1, 215061, Note_on_c, 0, 48, 47
1, 215064, Note_off_c, 0, 43, 40
1, 215066, Note_on_c, 0, 44, 49
1, 215120, Note_off_c, 0, 44, 55
1, 215120, Note_off_c, 0, 48, 55
1, 215145, Note_off_c, 0, 41, 61
1, 215191, Note_off_c, 0, 60, 61
1, 215239, Note_on_c, 0, 41, 60
1, 215239, Note_on_c, 0, 44, 56
1, 215242, Note_on_c, 0, 48, 61
1, 215288, Note_off_c, 0, 44, 63
1, 215295, Note_off_c, 0, 48, 60
1, 215336, Note_off_c, 0, 41, 61
1, 215418, Note_on_c, 0, 48, 58
1, 215424, Note_on_c, 0, 60, 72
1, 215427, Note_on_c, 0, 44, 56
1, 215435, Note_on_c, 0, 39, 64
1, 215513, Note_off_c, 0, 48, 50
1, 215536, Note_off_c, 0, 44, 49
1, 215537, Note_off_c, 0, 39, 62
1, 215554, Control_c, 0, 64, 92
1, 215569, Control_c, 0, 64, 70
1, 215584, Control_c, 0, 64, 63
1, 215598, Control_c, 0, 64, 65
1, 215611, Note_on_c, 0, 61, 76
1, 215613, Control_c, 0, 64, 73
1, 215613, Control_c, 0, 67, 8
1, 215625, Note_on_c, 0, 44, 48
1, 215627, Note_on_c, 0, 48, 59
1, 215628, Control_c, 0, 64, 95
1, 215628, Control_c, 0, 67, 8
1, 215634, Note_on_c, 0, 39, 68
1, 215643, Control_c, 0, 64, 127
1, 215657, Control_c, 0, 67, 9
1, 215671, Control_c, 0, 67, 9
1, 215676, Note_off_c, 0, 60, 56
1, 215679, Note_off_c, 0, 48, 54
1, 215694, Control_c, 0, 67, 10
1, 215725, Control_c, 0, 64, 78
1, 215739, Note_off_c, 0, 44, 36
1, 215740, Control_c, 0, 64, 62
1, 215754, Control_c, 0, 64, 53
1, 215769, Control_c, 0, 64, 58
1, 215771, Note_off_c, 0, 39, 0
1, 215784, Control_c, 0, 64, 72
1, 215797, Note_on_c, 0, 63, 81
1, 215799, Control_c, 0, 64, 106
1, 215802, Note_on_c, 0, 48, 63
1, 215805, Note_on_c, 0, 37, 67
1, 215805, Note_on_c, 0, 44, 40
1, 215814, Control_c, 0, 64, 127
1, 215814, Control_c, 0, 67, 11
1, 215814, Note_off_c, 0, 61, 64
1, 215815, Poly_aftertouch_c, 0, 39, 0
1, 215828, Control_c, 0, 67, 11
1, 215843, Control_c, 0, 67, 12
1, 215859, Note_off_c, 0, 48, 59
1, 215860, Note_off_c, 0, 44, 61
1, 215888, Control_c, 0, 67, 11
1, 215902, Control_c, 0, 64, 82
1, 215917, Control_c, 0, 64, 70
1, 215932, Control_c, 0, 64, 74
1, 215946, Control_c, 0, 64, 119
1, 215950, Note_off_c, 0, 63, 65
1, 215961, Control_c, 0, 64, 127
1, 215974, Note_on_c, 0, 48, 61
1, 215976, Control_c, 0, 67, 12
1, 215979, Note_on_c, 0, 44, 54
1, 215982, Note_on_c, 0, 65, 84
1, 216038, Note_off_c, 0, 48, 62
1, 216044, Note_off_c, 0, 44, 60
1, 216061, Note_off_c, 0, 37, 55
1, 216065, Control_c, 0, 64, 118
1, 216080, Control_c, 0, 64, 73
1, 216094, Control_c, 0, 64, 58
1, 216109, Control_c, 0, 64, 48
1, 216124, Control_c, 0, 64, 53
1, 216139, Control_c, 0, 64, 64
1, 216142, Note_on_c, 0, 36, 62
1, 216149, Note_on_c, 0, 67, 82
1, 216154, Control_c, 0, 64, 78
1, 216154, Control_c, 0, 67, 12
1, 216163, Note_on_c, 0, 48, 51
1, 216163, Note_on_c, 0, 44, 45
1, 216169, Control_c, 0, 64, 110
1, 216184, Control_c, 0, 64, 127
1, 216184, Control_c, 0, 67, 13
1, 216185, Note_off_c, 0, 65, 57
1, 216198, Note_off_c, 0, 48, 50
1, 216202, Note_off_c, 0, 44, 62
1, 216245, Note_off_c, 0, 36, 62
1, 216302, Control_c, 0, 67, 13
1, 216317, Control_c, 0, 67, 14
1, 216332, Control_c, 0, 67, 15
1, 216346, Control_c, 0, 67, 15
1, 216361, Control_c, 0, 64, 89
1, 216361, Control_c, 0, 67, 16
1, 216363, Note_on_c, 0, 36, 68
1, 216376, Control_c, 0, 64, 67
1, 216376, Control_c, 0, 67, 16
1, 216391, Control_c, 0, 64, 52
1, 216391, Control_c, 0, 67, 17
1, 216398, Note_on_c, 0, 68, 74
1, 216407, Note_off_c, 0, 67, 63
1, 216407, Control_c, 0, 64, 33
1, 216407, Control_c, 0, 67, 20
1, 216421, Control_c, 0, 64, 12
1, 216421, Control_c, 0, 67, 23
1, 216443, Control_c, 0, 64, 0
1, 216443, Control_c, 0, 67, 25
1, 216458, Control_c, 0, 67, 26
1, 216503, Control_c, 0, 64, 41
1, 216518, Control_c, 0, 64, 64
1, 216533, Control_c, 0, 64, 78
1, 216548, Control_c, 0, 64, 88
1, 216563, Control_c, 0, 64, 98
1, 216573, Note_off_c, 0, 36, 58
1, 216577, Control_c, 0, 64, 110
1, 216592, Control_c, 0, 64, 127
1, 216601, Note_on_c, 0, 44, 64
1, 216619, Note_on_c, 0, 48, 48
1, 216637, Control_c, 0, 67, 25
1, 216693, Note_off_c, 0, 48, 55
1, 216712, Note_off_c, 0, 44, 60
1, 216837, Note_on_c, 0, 44, 66
1, 216862, Note_off_c, 0, 68, 58
1, 216864, Note_on_c, 0, 48, 20
1, 216868, Note_on_c, 0, 63, 71
1, 216874, Control_c, 0, 64, 99
1, 216888, Control_c, 0, 64, 70
1, 216903, Control_c, 0, 64, 57
1, 216918, Control_c, 0, 64, 51
1, 216927, Note_off_c, 0, 48, 44
1, 216933, Control_c, 0, 64, 55
1, 216933, Control_c, 0, 67, 25
1, 216948, Control_c, 0, 64, 64
1, 216962, Control_c, 0, 64, 76
1, 216977, Control_c, 0, 64, 105
1, 216992, Control_c, 0, 64, 127
1, 217000, Note_off_c, 0, 44, 0
1, 217022, Note_on_c, 0, 44, 22
1, 217022, Control_c, 0, 67, 24
1, 217031, Note_on_c, 0, 48, 62
1, 217033, Note_on_c, 0, 43, 64
1, 217036, Control_c, 0, 67, 24
1, 217051, Control_c, 0, 67, 23
1, 217085, Note_off_c, 0, 48, 56
1, 217105, Note_off_c, 0, 44, 52
1, 217118, Note_off_c, 0, 43, 58
1, 217126, Control_c, 0, 67, 23
1, 217155, Control_c, 0, 67, 22
1, 217210, Note_on_c, 0, 43, 68
1, 217218, Note_on_c, 0, 48, 65
1, 217233, Note_on_c, 0, 44, 58
1, 217285, Note_off_c, 0, 48, 59
1, 217293, Note_off_c, 0, 44, 47
1, 217302, Note_off_c, 0, 63, 66
1, 217313, Note_off_c, 0, 43, 62
1, 217388, Note_on_c, 0, 41, 77
1, 217388, Note_on_c, 0, 48, 70
1, 217389, Note_on_c, 0, 44, 68
1, 217441, Note_off_c, 0, 48, 58
1, 217460, Note_off_c, 0, 44, 59
1, 217485, Note_off_c, 0, 41, 61
1, 217504, Control_c, 0, 67, 22
1, 217519, Control_c, 0, 67, 21
1, 217534, Control_c, 0, 67, 21
1, 217549, Control_c, 0, 64, 90
1, 217549, Control_c, 0, 67, 20
1, 217559, Note_on_c, 0, 41, 74
1, 217564, Control_c, 0, 64, 79
1, 217567, Note_on_c, 0, 48, 72
1, 217577, Note_on_c, 0, 44, 65
1, 217579, Control_c, 0, 64, 79
1, 217593, Control_c, 0, 64, 87
1, 217593, Control_c, 0, 67, 20
1, 217608, Control_c, 0, 64, 119
1, 217623, Control_c, 0, 64, 127
1, 217624, Note_off_c, 0, 44, 61
1, 217626, Note_off_c, 0, 48, 58
1, 217688, Note_off_c, 0, 41, 61
1, 217731, Note_on_c, 0, 67, 83
1, 217735, Note_on_c, 0, 48, 68
1, 217737, Note_on_c, 0, 44, 67
1, 217741, Control_c, 0, 64, 90
1, 217743, Note_on_c, 0, 39, 74
1, 217756, Control_c, 0, 64, 86
1, 217771, Control_c, 0, 64, 90
1, 217785, Control_c, 0, 64, 127
1, 217785, Control_c, 0, 67, 20
1, 217818, Note_off_c, 0, 48, 58
1, 217839, Note_off_c, 0, 44, 61
1, 217845, Control_c, 0, 64, 88
1, 217853, Note_off_c, 0, 39, 63
1, 217859, Control_c, 0, 64, 68
1, 217874, Control_c, 0, 64, 56
1, 217889, Control_c, 0, 64, 54
1, 217904, Control_c, 0, 64, 64
1, 217913, Note_on_c, 0, 68, 83
1, 217919, Control_c, 0, 64, 78
1, 217925, Note_on_c, 0, 39, 76
1, 217931, Note_on_c, 0, 48, 70
1, 217941, Control_c, 0, 64, 111
1, 217942, Note_on_c, 0, 44, 65
1, 217956, Control_c, 0, 64, 127
1, 217971, Control_c, 0, 67, 21
1, 217986, Control_c, 0, 67, 21
1, 217988, Note_off_c, 0, 48, 59
1, 217990, Note_off_c, 0, 67, 51
1, 218012, Note_off_c, 0, 44, 60
1, 218060, Control_c, 0, 64, 77
1, 218074, Note_off_c, 0, 39, 61
1, 218074, Control_c, 0, 64, 61
1, 218089, Control_c, 0, 64, 49
1, 218100, Note_on_c, 0, 48, 66
1, 218100, Note_on_c, 0, 70, 87
1, 218100, Note_on_c, 0, 37, 75
1, 218104, Note_on_c, 0, 44, 52
1, 218104, Control_c, 0, 64, 58
1, 218117, Note_off_c, 0, 68, 65
1, 218120, Control_c, 0, 64, 75
1, 218135, Control_c, 0, 64, 127
1, 218164, Note_off_c, 0, 48, 55
1, 218164, Control_c, 0, 67, 22
1, 218174, Note_off_c, 0, 44, 60
1, 218214, Note_off_c, 0, 37, 62
1, 218249, Note_off_c, 0, 70, 64
1, 218253, Control_c, 0, 64, 86
1, 218263, Note_on_c, 0, 48, 67
1, 218264, Note_on_c, 0, 36, 71
1, 218267, Note_on_c, 0, 72, 88
1, 218268, Control_c, 0, 64, 64
1, 218274, Note_on_c, 0, 44, 68
1, 218282, Control_c, 0, 64, 49
1, 218297, Control_c, 0, 64, 51
1, 218297, Control_c, 0, 67, 22
1, 218312, Control_c, 0, 64, 65
1, 218327, Note_off_c, 0, 48, 58
1, 218327, Control_c, 0, 64, 87
1, 218342, Note_off_c, 0, 44, 61
1, 218342, Control_c, 0, 64, 127
1, 218354, Note_off_c, 0, 36, 62
1, 218433, Note_on_c, 0, 36, 71
1, 218435, Note_on_c, 0, 73, 87
1, 218448, Note_on_c, 0, 44, 68
1, 218455, Note_on_c, 0, 48, 38
1, 218473, Note_off_c, 0, 72, 62
1, 218476, Control_c, 0, 67, 22
1, 218494, Note_off_c, 0, 48, 43
1, 218506, Note_off_c, 0, 44, 60
1, 218520, Control_c, 0, 67, 22
1, 218537, Note_off_c, 0, 36, 62
1, 218579, Control_c, 0, 67, 23
1, 218594, Control_c, 0, 67, 23
1, 218608, Control_c, 0, 67, 24
1, 218623, Note_on_c, 0, 36, 79
1, 218623, Control_c, 0, 64, 85
1, 218623, Control_c, 0, 67, 24
1, 218638, Control_c, 0, 64, 63
1, 218653, Control_c, 0, 64, 42
1, 218654, Note_on_c, 0, 75, 82
1, 218661, Note_off_c, 0, 73, 63
1, 218668, Control_c, 0, 64, 0
1, 218779, Control_c, 0, 64, 44
1, 218779, Control_c, 0, 67, 24
1, 218794, Control_c, 0, 64, 66
1, 218799, Note_off_c, 0, 36, 59
1, 218809, Control_c, 0, 64, 78
1, 218809, Control_c, 0, 67, 23
1, 218823, Control_c, 0, 64, 89
1, 218823, Control_c, 0, 67, 22
1, 218825, Note_on_c, 0, 44, 82
1, 218838, Control_c, 0, 64, 105
1, 218838, Control_c, 0, 67, 22
1, 218849, Note_on_c, 0, 48, 53
1, 218853, Control_c, 0, 64, 127
1, 218853, Control_c, 0, 67, 21
1, 218867, Control_c, 0, 67, 20
1, 218882, Control_c, 0, 67, 20
1, 218887, Note_off_c, 0, 48, 46
1, 218928, Control_c, 0, 67, 19
1, 218943, Control_c, 0, 67, 19
1, 218952, Note_off_c, 0, 44, 62
1, 219002, Control_c, 0, 67, 18
1, 219036, Note_on_c, 0, 44, 78
1, 219046, Control_c, 0, 67, 18
1, 219055, Note_on_c, 0, 48, 49
1, 219061, Control_c, 0, 64, 76
1, 219076, Control_c, 0, 64, 60
1, 219076, Control_c, 0, 67, 17
1, 219080, Note_on_c, 0, 68, 74
1, 219091, Control_c, 0, 64, 52
1, 219092, Note_off_c, 0, 48, 55
1, 219106, Control_c, 0, 64, 61
1, 219120, Control_c, 0, 64, 74
1, 219135, Note_off_c, 0, 75, 59
1, 219135, Control_c, 0, 64, 105
1, 219150, Control_c, 0, 64, 127
1, 219180, Control_c, 0, 67, 17
1, 219192, Note_off_c, 0, 44, 0
1, 219194, Control_c, 0, 67, 16
1, 219209, Control_c, 0, 67, 16
1, 219210, Note_on_c, 0, 44, 27
1, 219223, Note_on_c, 0, 43, 69
1, 219224, Control_c, 0, 67, 15
1, 219225, Note_on_c, 0, 48, 60
1, 219239, Control_c, 0, 67, 14
1, 219254, Control_c, 0, 67, 13
1, 219269, Control_c, 0, 67, 13
1, 219282, Note_off_c, 0, 48, 60
1, 219283, Control_c, 0, 67, 12
1, 219296, Note_off_c, 0, 44, 57
1, 219298, Control_c, 0, 67, 10
1, 219313, Control_c, 0, 67, 8
1, 219317, Note_off_c, 0, 43, 61
1, 219328, Control_c, 0, 67, 0
1, 219333, Note_off_c, 0, 68, 63
1, 219387, Note_on_c, 0, 43, 68
1, 219392, Note_on_c, 0, 44, 66
1, 219397, Note_on_c, 0, 48, 63
1, 219449, Note_off_c, 0, 48, 55
1, 219474, Note_off_c, 0, 44, 58
1, 219507, Note_off_c, 0, 43, 47
1, 219554, Note_on_c, 0, 44, 69
1, 219555, Note_on_c, 0, 41, 75
1, 219558, Note_on_c, 0, 48, 63
1, 219618, Note_off_c, 0, 48, 58
1, 219625, Note_off_c, 0, 44, 61
1, 219650, Note_off_c, 0, 41, 62
1, 219689, Control_c, 0, 64, 69
1, 219704, Control_c, 0, 64, 53
1, 219720, Control_c, 0, 64, 51
1, 219734, Note_on_c, 0, 48, 76
1, 219734, Control_c, 0, 64, 63
1, 219737, Note_on_c, 0, 44, 71
1, 219739, Note_on_c, 0, 41, 70
1, 219749, Control_c, 0, 64, 80
1, 219764, Control_c, 0, 64, 127
1, 219796, Note_off_c, 0, 48, 63
1, 219806, Note_off_c, 0, 44, 62
1, 219841, Note_off_c, 0, 41, 62
1, 219903, Note_on_c, 0, 80, 89
1, 219915, Note_on_c, 0, 48, 72
1, 219918, Note_on_c, 0, 39, 76
1, 219923, Note_on_c, 0, 44, 70
1, 219981, Note_off_c, 0, 48, 57
1, 220005, Note_off_c, 0, 44, 56
1, 220023, Note_off_c, 0, 39, 62
1, 220102, Note_on_c, 0, 48, 76
1, 220104, Note_on_c, 0, 82, 86
1, 220107, Note_on_c, 0, 39, 80
1, 220108, Note_on_c, 0, 44, 76
1, 220162, Note_off_c, 0, 80, 62
1, 220198, Note_off_c, 0, 48, 57
1, 220215, Note_off_c, 0, 44, 62
1, 220226, Note_off_c, 0, 39, 62
1, 220245, Note_off_c, 0, 82, 64
1, 220299, Note_on_c, 0, 84, 92
1, 220302, Note_on_c, 0, 44, 72
1, 220302, Note_on_c, 0, 48, 74
1, 220305, Note_on_c, 0, 39, 74
1, 220437, Note_off_c, 0, 48, 34
1, 220443, Note_off_c, 0, 44, 56
1, 220483, Control_c, 0, 64, 78
1, 220498, Control_c, 0, 64, 52
1, 220500, Note_on_c, 0, 44, 54
1, 220505, Note_on_c, 0, 85, 93
1, 220509, Note_on_c, 0, 48, 74
1, 220514, Control_c, 0, 64, 35
1, 220520, Note_on_c, 0, 37, 79
1, 220524, Note_off_c, 0, 39, 60
1, 220529, Control_c, 0, 64, 51
1, 220540, Note_off_c, 0, 84, 66
1, 220543, Control_c, 0, 64, 72
1, 220558, Control_c, 0, 64, 127
1, 220612, Note_off_c, 0, 48, 58
1, 220628, Note_off_c, 0, 44, 62
1, 220672, Note_off_c, 0, 37, 60
1, 220706, Control_c, 0, 64, 93
1, 220707, Note_on_c, 0, 48, 77
1, 220709, Note_on_c, 0, 36, 75
1, 220721, Note_on_c, 0, 44, 60
1, 220721, Control_c, 0, 64, 79
1, 220736, Control_c, 0, 64, 80
1, 220750, Control_c, 0, 64, 97
1, 220765, Note_off_c, 0, 48, 62
1, 220765, Control_c, 0, 64, 127
1, 220771, Note_on_c, 0, 87, 98
1, 220783, Note_off_c, 0, 44, 60
1, 220810, Note_off_c, 0, 85, 64
1, 221171, Note_off_c, 0, 36, 38
1, 221210, Note_on_c, 0, 46, 65
1, 221213, Note_on_c, 0, 89, 89
1, 221217, Control_c, 0, 64, 92
1, 221221, Note_on_c, 0, 44, 66
1, 221223, Note_on_c, 0, 37, 61
1, 221232, Control_c, 0, 64, 62
1, 221247, Control_c, 0, 64, 32
1, 221261, Control_c, 0, 64, 0
1, 221263, Note_off_c, 0, 87, 65
1, 221995, Control_c, 0, 64, 20
1, 222010, Control_c, 0, 64, 44
1, 222025, Control_c, 0, 64, 59
1, 222039, Control_c, 0, 64, 66
1, 222054, Control_c, 0, 64, 69
1, 222069, Control_c, 0, 64, 74
1, 222083, Control_c, 0, 64, 82
1, 222099, Control_c, 0, 64, 95
1, 222111, Note_off_c, 0, 89, 64
1, 222114, Control_c, 0, 64, 127
1, 222164, Note_off_c, 0, 46, 39
1, 222197, Note_off_c, 0, 37, 52
1, 222220, Note_off_c, 0, 44, 57
1, 222411, Control_c, 0, 64, 82
1, 222433, Control_c, 0, 64, 66
1, 222448, Control_c, 0, 64, 57
1, 222462, Control_c, 0, 64, 55
1, 222477, Control_c, 0, 64, 53
1, 222492, Control_c, 0, 64, 48
1, 222506, Control_c, 0, 64, 41
1, 222521, Control_c, 0, 64, 31
1, 222536, Control_c, 0, 64, 16
1, 222551, Control_c, 0, 64, 0
1, 222729, Control_c, 0, 67, 11
1, 222744, Control_c, 0, 67, 15
1, 222759, Control_c, 0, 67, 20
1, 222774, Control_c, 0, 67, 28
1, 222788, Control_c, 0, 67, 41
1, 222803, Control_c, 0, 67, 56
1, 222818, Control_c, 0, 67, 72
1, 222833, Control_c, 0, 67, 88
1, 222848, Control_c, 0, 67, 103
1, 222862, Control_c, 0, 67, 112
1, 222877, Control_c, 0, 67, 116
1, 222892, Control_c, 0, 67, 117
1, 222908, Control_c, 0, 67, 119
1, 222922, Control_c, 0, 67, 120
1, 222937, Control_c, 0, 67, 121
1, 222952, Control_c, 0, 67, 122
1, 222967, Control_c, 0, 67, 123
1, 222982, Control_c, 0, 67, 124
1, 222996, Control_c, 0, 64, 21
1, 222996, Control_c, 0, 67, 125
1, 223011, Control_c, 0, 64, 36
1, 223011, Control_c, 0, 67, 126
1, 223026, Control_c, 0, 64, 45
1, 223026, Control_c, 0, 67, 127
1, 223041, Control_c, 0, 64, 52
1, 223041, Control_c, 0, 67, 127
1, 223056, Control_c, 0, 64, 57
1, 223070, Control_c, 0, 64, 60
1, 223085, Control_c, 0, 64, 61
1, 223100, Control_c, 0, 64, 62
1, 223115, Control_c, 0, 64, 62
1, 223129, Control_c, 0, 64, 64
1, 223145, Control_c, 0, 64, 65
1, 223160, Control_c, 0, 64, 66
1, 223183, Control_c, 0, 64, 67
1, 223198, Control_c, 0, 64, 68
1, 223212, Control_c, 0, 64, 68
1, 223216, Note_on_c, 0, 70, 52
1, 223234, Note_on_c, 0, 65, 37
1, 223238, Note_on_c, 0, 56, 36
1, 223242, Note_on_c, 0, 50, 35
1, 223286, Control_c, 0, 64, 68
1, 223301, Control_c, 0, 64, 66
1, 223302, Note_off_c, 0, 56, 41
1, 223316, Control_c, 0, 64, 63
1, 223330, Control_c, 0, 64, 60
1, 223345, Control_c, 0, 64, 56
1, 223351, Note_off_c, 0, 50, 34
1, 223360, Control_c, 0, 64, 51
1, 223375, Control_c, 0, 64, 46
1, 223380, Note_off_c, 0, 70, 51
1, 223390, Control_c, 0, 64, 41
1, 223404, Control_c, 0, 64, 35
1, 223409, Note_on_c, 0, 75, 60
1, 223419, Control_c, 0, 64, 27
1, 223423, Note_on_c, 0, 55, 38
1, 223426, Note_on_c, 0, 51, 33
1, 223426, Note_off_c, 0, 65, 32
1, 223434, Control_c, 0, 64, 19
1, 223449, Control_c, 0, 64, 11
1, 223454, Note_on_c, 0, 67, 24
1, 223464, Control_c, 0, 64, 0
1, 223597, Control_c, 0, 64, 34
1, 223612, Control_c, 0, 64, 53
1, 223615, Note_off_c, 0, 55, 41
1, 223627, Control_c, 0, 64, 66
1, 223642, Control_c, 0, 64, 70
1, 223656, Control_c, 0, 64, 73
1, 223658, Note_off_c, 0, 67, 42
1, 223671, Control_c, 0, 64, 75
1, 223686, Control_c, 0, 64, 77
1, 223702, Control_c, 0, 64, 81
1, 223709, Note_off_c, 0, 51, 42
1, 223716, Control_c, 0, 64, 85
1, 223731, Control_c, 0, 64, 88
1, 223746, Control_c, 0, 64, 91
1, 223761, Note_off_c, 0, 75, 64
1, 223761, Control_c, 0, 64, 93
1, 223776, Control_c, 0, 64, 93
1, 223791, Control_c, 0, 64, 94
1, 223820, Control_c, 0, 64, 95
1, 223835, Control_c, 0, 64, 98
1, 223850, Control_c, 0, 64, 102
1, 223865, Control_c, 0, 64, 105
1, 223880, Control_c, 0, 64, 107
1, 223895, Control_c, 0, 64, 108
1, 223931, Control_c, 0, 64, 106
1, 223946, Control_c, 0, 64, 93
1, 223961, Control_c, 0, 64, 77
1, 223976, Control_c, 0, 64, 65
1, 223991, Control_c, 0, 64, 53
1, 224006, Control_c, 0, 64, 41
1, 224020, Control_c, 0, 64, 32
1, 224029, Note_on_c, 0, 75, 72
1, 224035, Control_c, 0, 64, 26
1, 224048, Note_on_c, 0, 51, 38
1, 224050, Control_c, 0, 64, 17
1, 224050, Note_on_c, 0, 67, 44
1, 224052, Note_on_c, 0, 58, 39
1, 224065, Control_c, 0, 64, 0
1, 224185, Note_off_c, 0, 51, 58
1, 224215, Note_on_c, 0, 74, 74
1, 224232, Note_off_c, 0, 75, 66
1, 224241, Note_on_c, 0, 53, 40
1, 224253, Note_on_c, 0, 56, 41
1, 224255, Note_on_c, 0, 71, 39
1, 224265, Note_off_c, 0, 67, 39
1, 224271, Note_off_c, 0, 58, 51
1, 224450, Control_c, 0, 67, 126
1, 224465, Control_c, 0, 67, 126
1, 224479, Control_c, 0, 64, 23
1, 224479, Control_c, 0, 67, 125
1, 224494, Control_c, 0, 64, 41
1, 224494, Control_c, 0, 67, 124
1, 224510, Control_c, 0, 64, 55
1, 224510, Control_c, 0, 67, 124
1, 224524, Control_c, 0, 64, 63
1, 224524, Control_c, 0, 67, 123
1, 224539, Control_c, 0, 64, 65
1, 224539, Control_c, 0, 67, 123
1, 224554, Control_c, 0, 64, 67
1, 224569, Control_c, 0, 64, 69
1, 224569, Control_c, 0, 67, 122
1, 224584, Control_c, 0, 64, 72
1, 224584, Control_c, 0, 67, 122
1, 224599, Control_c, 0, 64, 76
1, 224614, Control_c, 0, 64, 81
1, 224629, Control_c, 0, 64, 85
1, 224644, Control_c, 0, 64, 88
1, 224658, Control_c, 0, 64, 90
1, 224680, Control_c, 0, 64, 93
1, 224695, Control_c, 0, 64, 96
1, 224709, Control_c, 0, 64, 98
1, 224709, Control_c, 0, 67, 121
1, 224724, Control_c, 0, 64, 99
1, 224724, Control_c, 0, 67, 121
1, 224754, Control_c, 0, 67, 120
1, 224769, Control_c, 0, 67, 120
1, 224784, Control_c, 0, 67, 119
1, 224881, Note_off_c, 0, 56, 42
1, 224917, Control_c, 0, 67, 120
1, 224932, Control_c, 0, 64, 99
1, 224947, Control_c, 0, 64, 98
1, 224947, Control_c, 0, 67, 120
1, 224953, Note_off_c, 0, 53, 35
1, 224962, Control_c, 0, 64, 95
1, 224977, Control_c, 0, 64, 92
1, 224983, Note_on_c, 0, 73, 71
1, 224991, Control_c, 0, 64, 88
1, 224991, Control_c, 0, 67, 121
1, 225006, Control_c, 0, 64, 82
1, 225010, Note_on_c, 0, 64, 43
1, 225015, Note_on_c, 0, 55, 45
1, 225020, Note_off_c, 0, 71, 60
1, 225021, Control_c, 0, 64, 75
1, 225033, Note_on_c, 0, 58, 37
1, 225036, Control_c, 0, 64, 69
1, 225050, Control_c, 0, 64, 65
1, 225050, Control_c, 0, 67, 121
1, 225065, Control_c, 0, 64, 61
1, 225080, Control_c, 0, 64, 59
1, 225091, Note_off_c, 0, 74, 63
1, 225092, Note_off_c, 0, 64, 0
1, 225092, Note_on_c, 0, 64, 16
1, 225095, Control_c, 0, 64, 55
1, 225109, Control_c, 0, 64, 49
1, 225124, Control_c, 0, 64, 38
1, 225124, Control_c, 0, 67, 121
1, 225139, Control_c, 0, 64, 26
1, 225139, Control_c, 0, 67, 120
1, 225154, Control_c, 0, 64, 0
1, 225154, Control_c, 0, 67, 120
1, 225169, Control_c, 0, 67, 118
1, 225183, Control_c, 0, 67, 117
1, 225198, Control_c, 0, 67, 115
1, 225213, Control_c, 0, 67, 111
1, 225228, Control_c, 0, 67, 108
1, 225243, Control_c, 0, 67, 105
1, 225258, Control_c, 0, 67, 103
1, 225272, Control_c, 0, 67, 102
1, 225287, Control_c, 0, 67, 101
1, 225303, Control_c, 0, 64, 21
1, 225303, Control_c, 0, 67, 100
1, 225318, Control_c, 0, 64, 43
1, 225332, Control_c, 0, 64, 60
1, 225332, Control_c, 0, 67, 101
1, 225347, Control_c, 0, 64, 65
1, 225347, Control_c, 0, 67, 103
1, 225362, Control_c, 0, 64, 68
1, 225362, Control_c, 0, 67, 105
1, 225375, Note_off_c, 0, 64, 43
1, 225377, Control_c, 0, 64, 70
1, 225377, Control_c, 0, 67, 106
1, 225392, Control_c, 0, 64, 73
1, 225392, Control_c, 0, 67, 108
1, 225406, Control_c, 0, 64, 78
1, 225406, Control_c, 0, 67, 110
1, 225428, Control_c, 0, 64, 87
1, 225428, Control_c, 0, 67, 111
1, 225443, Control_c, 0, 64, 95
1, 225443, Control_c, 0, 67, 112
1, 225458, Control_c, 0, 64, 103
1, 225458, Control_c, 0, 67, 113
1, 225473, Control_c, 0, 64, 113
1, 225473, Control_c, 0, 67, 114
1, 225487, Control_c, 0, 64, 127
1, 225487, Control_c, 0, 67, 115
1, 225492, Note_off_c, 0, 58, 55
1, 225502, Control_c, 0, 67, 116
1, 225517, Control_c, 0, 67, 117
1, 225532, Control_c, 0, 67, 118
1, 225547, Control_c, 0, 67, 119
1, 225562, Note_off_c, 0, 55, 48
1, 225562, Control_c, 0, 67, 121
1, 225577, Control_c, 0, 67, 122
1, 225591, Control_c, 0, 67, 123
1, 225606, Control_c, 0, 67, 124
1, 225621, Control_c, 0, 67, 125
1, 225636, Control_c, 0, 67, 127
1, 225651, Control_c, 0, 67, 127
1, 225754, Control_c, 0, 64, 106
1, 225769, Control_c, 0, 64, 87
1, 225784, Control_c, 0, 64, 70
1, 225787, Note_off_c, 0, 73, 62
1, 225797, Note_on_c, 0, 72, 49
1, 225798, Control_c, 0, 64, 57
1, 225813, Control_c, 0, 64, 36
1, 225827, Note_on_c, 0, 56, 34
1, 225828, Control_c, 0, 64, 0
1, 225829, Note_on_c, 0, 60, 28
1, 225836, Note_on_c, 0, 63, 28
1, 225887, Control_c, 0, 64, 34
1, 225895, Note_off_c, 0, 60, 0
1, 225895, Note_on_c, 0, 60, 3
1, 225902, Control_c, 0, 64, 58
1, 225917, Control_c, 0, 64, 71
1, 225931, Control_c, 0, 64, 86
1, 225936, Note_off_c, 0, 63, 58
1, 225942, Note_off_c, 0, 56, 55
1, 225946, Note_off_c, 0, 72, 64
1, 225946, Control_c, 0, 64, 102
1, 225961, Control_c, 0, 64, 127
1, 225966, Note_off_c, 0, 60, 57
1, 226202, Note_on_c, 0, 92, 69
1, 226213, Note_on_c, 0, 56, 50
1, 226217, Note_on_c, 0, 60, 49
1, 226236, Control_c, 0, 64, 94
1, 226251, Control_c, 0, 64, 73
1, 226266, Control_c, 0, 64, 62
1, 226281, Control_c, 0, 64, 54
1, 226296, Control_c, 0, 64, 55
1, 226310, Control_c, 0, 64, 61
1, 226325, Control_c, 0, 64, 68
1, 226340, Control_c, 0, 64, 77
1, 226355, Control_c, 0, 64, 82
1, 226384, Control_c, 0, 64, 77
1, 226399, Control_c, 0, 64, 68
1, 226410, Note_off_c, 0, 60, 62
1, 226414, Control_c, 0, 64, 57
1, 226429, Control_c, 0, 64, 38
1, 226437, Note_on_c, 0, 61, 56
1, 226438, Note_on_c, 0, 91, 72
1, 226442, Note_on_c, 0, 58, 52
1, 226444, Control_c, 0, 64, 23
1, 226447, Note_off_c, 0, 56, 58
1, 226459, Control_c, 0, 64, 9
1, 226474, Control_c, 0, 64, 0
1, 226477, Note_off_c, 0, 92, 60
1, 226599, Note_off_c, 0, 58, 64
1, 226599, Note_off_c, 0, 61, 62
1, 226609, Note_on_c, 0, 90, 76
1, 226621, Control_c, 0, 64, 10
1, 226624, Note_on_c, 0, 63, 73
1, 226632, Note_off_c, 0, 91, 63
1, 226636, Control_c, 0, 64, 51
1, 226644, Note_on_c, 0, 60, 44
1, 226651, Control_c, 0, 64, 66
1, 226666, Control_c, 0, 64, 72
1, 226680, Control_c, 0, 64, 76
1, 226695, Control_c, 0, 64, 78
1, 226710, Control_c, 0, 64, 80
1, 226722, Note_off_c, 0, 63, 64
1, 226725, Control_c, 0, 64, 81
1, 226740, Control_c, 0, 64, 83
1, 226754, Control_c, 0, 64, 84
1, 226818, Note_off_c, 0, 60, 59
1, 226820, Note_off_c, 0, 90, 66
1, 226824, Note_on_c, 0, 89, 66
1, 226829, Control_c, 0, 64, 83
1, 226843, Control_c, 0, 64, 78
1, 226847, Note_on_c, 0, 65, 67
1, 226855, Note_on_c, 0, 61, 55
1, 226858, Control_c, 0, 64, 68
1, 226873, Control_c, 0, 64, 56
1, 226888, Control_c, 0, 64, 30
1, 226905, Control_c, 0, 64, 0
1, 226957, Control_c, 0, 64, 19
1, 226972, Control_c, 0, 64, 48
1, 226986, Control_c, 0, 64, 64
1, 226986, Note_on_c, 0, 87, 67
1, 226989, Note_off_c, 0, 89, 60
1, 227001, Control_c, 0, 64, 73
1, 227016, Control_c, 0, 64, 77
1, 227031, Control_c, 0, 64, 79
1, 227046, Control_c, 0, 64, 81
1, 227060, Control_c, 0, 64, 82
1, 227075, Control_c, 0, 64, 82
1, 227089, Note_off_c, 0, 65, 57
1, 227090, Control_c, 0, 64, 83
1, 227095, Note_on_c, 0, 85, 75
1, 227115, Note_off_c, 0, 87, 57
1, 227152, Note_off_c, 0, 61, 57
1, 227191, Note_off_c, 0, 85, 62
1, 227194, Note_on_c, 0, 84, 75
1, 227293, Note_on_c, 0, 83, 81
1, 227295, Note_off_c, 0, 84, 59
1, 227382, Note_off_c, 0, 83, 66
1, 227383, Note_on_c, 0, 82, 77
1, 227460, Note_off_c, 0, 82, 64
1, 227471, Note_on_c, 0, 81, 76
1, 227526, Note_off_c, 0, 81, 62
1, 227553, Note_on_c, 0, 80, 78
1, 227608, Control_c, 0, 64, 82
1, 227623, Control_c, 0, 64, 80
1, 227638, Note_off_c, 0, 80, 61
1, 227638, Control_c, 0, 64, 77
1, 227647, Note_on_c, 0, 79, 75
1, 227652, Control_c, 0, 64, 74
1, 227675, Control_c, 0, 64, 70
1, 227690, Control_c, 0, 64, 66
1, 227705, Control_c, 0, 64, 64
1, 227720, Control_c, 0, 64, 62
1, 227735, Control_c, 0, 64, 61
1, 227741, Note_off_c, 0, 79, 55
1, 227748, Note_on_c, 0, 78, 69
1, 227750, Control_c, 0, 64, 58
1, 227765, Control_c, 0, 64, 57
1, 227779, Control_c, 0, 64, 55
1, 227794, Control_c, 0, 64, 54
1, 227809, Control_c, 0, 64, 50
1, 227824, Control_c, 0, 64, 46
1, 227837, Note_off_c, 0, 78, 61
1, 227838, Note_on_c, 0, 77, 67
1, 227839, Control_c, 0, 64, 38
1, 227854, Control_c, 0, 64, 33
1, 227869, Control_c, 0, 64, 30
1, 227883, Control_c, 0, 64, 26
1, 227898, Control_c, 0, 64, 22
1, 227905, Note_off_c, 0, 77, 64
1, 227913, Control_c, 0, 64, 17
1, 227927, Control_c, 0, 64, 13
1, 227932, Note_on_c, 0, 76, 65
1, 227942, Control_c, 0, 64, 11
1, 227957, Control_c, 0, 64, 9
1, 227972, Control_c, 0, 64, 0
1, 228034, Note_off_c, 0, 76, 53
1, 228037, Note_on_c, 0, 49, 45
1, 228038, Note_on_c, 0, 56, 45
1, 228049, Note_on_c, 0, 75, 58
1, 228059, Note_on_c, 0, 53, 33
1, 228096, Note_off_c, 0, 56, 54
1, 228101, Note_off_c, 0, 53, 53
1, 228142, Note_off_c, 0, 75, 60
1, 228144, Note_on_c, 0, 73, 56
1, 228199, Note_off_c, 0, 49, 56
1, 228241, Note_off_c, 0, 73, 62
1, 228256, Note_on_c, 0, 53, 10
1, 228263, Note_on_c, 0, 50, 41
1, 228277, Note_on_c, 0, 72, 51
1, 228280, Note_on_c, 0, 56, 26
1, 228372, Control_c, 0, 64, 9
1, 228377, Note_off_c, 0, 72, 61
1, 228387, Control_c, 0, 64, 42
1, 228399, Note_on_c, 0, 70, 54
1, 228401, Control_c, 0, 64, 59
1, 228423, Control_c, 0, 64, 66
1, 228438, Control_c, 0, 64, 68
1, 228453, Control_c, 0, 64, 69
1, 228457, Note_off_c, 0, 56, 21
1, 228468, Control_c, 0, 64, 70
1, 228483, Control_c, 0, 64, 71
1, 228495, Note_off_c, 0, 70, 57
1, 228498, Control_c, 0, 64, 72
1, 228515, Note_off_c, 0, 50, 41
1, 228543, Control_c, 0, 64, 71
1, 228557, Control_c, 0, 64, 70
1, 228572, Control_c, 0, 64, 67
1, 228587, Control_c, 0, 64, 63
1, 228590, Note_on_c, 0, 75, 60
1, 228602, Control_c, 0, 64, 58
1, 228605, Note_on_c, 0, 55, 39
1, 228617, Control_c, 0, 64, 52
1, 228622, Note_on_c, 0, 51, 40
1, 228632, Control_c, 0, 64, 46
1, 228637, Note_on_c, 0, 70, 29
1, 228647, Control_c, 0, 64, 36
1, 228648, Note_off_c, 0, 53, 38
1, 228662, Control_c, 0, 64, 25
1, 228677, Control_c, 0, 64, 0
1, 228722, Note_off_c, 0, 70, 0
1, 228722, Note_on_c, 0, 70, 12
1, 228824, Control_c, 0, 64, 27
1, 228839, Control_c, 0, 64, 52
1, 228854, Control_c, 0, 64, 64
1, 228869, Control_c, 0, 64, 69
1, 228884, Control_c, 0, 64, 72
1, 228898, Control_c, 0, 64, 74
1, 228909, Note_off_c, 0, 55, 34
1, 228913, Control_c, 0, 64, 76
1, 228928, Control_c, 0, 64, 78
1, 228942, Control_c, 0, 64, 82
1, 228957, Control_c, 0, 64, 84
1, 228972, Control_c, 0, 64, 86
1, 228972, Control_c, 0, 67, 125
1, 228984, Note_off_c, 0, 51, 39
1, 228987, Control_c, 0, 64, 88
1, 228987, Control_c, 0, 67, 121
1, 229002, Control_c, 0, 64, 89
1, 229002, Control_c, 0, 67, 116
1, 229016, Control_c, 0, 64, 89
1, 229016, Control_c, 0, 67, 113
1, 229031, Control_c, 0, 67, 111
1, 229046, Control_c, 0, 64, 90
1, 229046, Control_c, 0, 67, 108
1, 229061, Control_c, 0, 67, 108
1, 229076, Control_c, 0, 67, 108
1, 229091, Control_c, 0, 67, 111
1, 229100, Note_off_c, 0, 75, 32
1, 229106, Control_c, 0, 67, 114
1, 229121, Control_c, 0, 67, 116
1, 229136, Control_c, 0, 64, 89
1, 229136, Control_c, 0, 67, 118
1, 229150, Control_c, 0, 67, 119
1, 229172, Control_c, 0, 67, 121
1, 229187, Control_c, 0, 67, 122
1, 229202, Control_c, 0, 64, 89
1, 229202, Control_c, 0, 67, 124
1, 229217, Control_c, 0, 64, 87
1, 229217, Control_c, 0, 67, 125
1, 229219, Note_off_c, 0, 70, 39
1, 229231, Control_c, 0, 64, 83
1, 229231, Control_c, 0, 67, 126
1, 229246, Control_c, 0, 64, 76
1, 229246, Control_c, 0, 67, 127
1, 229261, Control_c, 0, 64, 68
1, 229261, Control_c, 0, 67, 127
1, 229276, Control_c, 0, 64, 59
1, 229283, Note_on_c, 0, 75, 74
1, 229292, Control_c, 0, 64, 46
1, 229307, Control_c, 0, 64, 33
1, 229315, Note_on_c, 0, 51, 36
1, 229320, Note_on_c, 0, 58, 41
1, 229321, Control_c, 0, 64, 25
1, 229330, Note_on_c, 0, 67, 31
1, 229336, Control_c, 0, 64, 24
1, 229351, Control_c, 0, 64, 32
1, 229366, Control_c, 0, 64, 48
1, 229380, Control_c, 0, 64, 62
1, 229395, Control_c, 0, 64, 70
1, 229410, Control_c, 0, 64, 75
1, 229425, Control_c, 0, 64, 78
1, 229440, Note_off_c, 0, 67, 0
1, 229440, Note_on_c, 0, 67, 3
1, 229440, Control_c, 0, 64, 78
1, 229471, Note_off_c, 0, 75, 65
1, 229514, Control_c, 0, 64, 78
1, 229517, Note_off_c, 0, 58, 59
1, 229529, Note_on_c, 0, 75, 74
1, 229529, Control_c, 0, 64, 74
1, 229542, Note_on_c, 0, 60, 58
1, 229544, Control_c, 0, 64, 68
1, 229556, Note_on_c, 0, 56, 50
1, 229559, Note_off_c, 0, 67, 58
1, 229559, Control_c, 0, 64, 62
1, 229562, Note_off_c, 0, 51, 35
1, 229563, Note_on_c, 0, 68, 46
1, 229573, Control_c, 0, 64, 56
1, 229588, Control_c, 0, 64, 51
1, 229603, Control_c, 0, 64, 47
1, 229618, Control_c, 0, 64, 42
1, 229633, Control_c, 0, 64, 35
1, 229647, Control_c, 0, 64, 30
1, 229662, Control_c, 0, 64, 28
1, 229677, Control_c, 0, 64, 28
1, 229736, Control_c, 0, 64, 28
1, 229751, Control_c, 0, 64, 30
1, 229765, Control_c, 0, 64, 33
1, 229780, Control_c, 0, 64, 34
1, 229795, Control_c, 0, 64, 34
1, 229810, Control_c, 0, 64, 36
1, 229825, Control_c, 0, 64, 39
1, 229839, Control_c, 0, 64, 43
1, 229854, Control_c, 0, 64, 46
1, 229869, Control_c, 0, 64, 50
1, 229884, Control_c, 0, 64, 55
1, 229898, Control_c, 0, 64, 60
1, 229920, Control_c, 0, 64, 63
1, 229935, Control_c, 0, 64, 65
1, 229950, Control_c, 0, 64, 66
1, 229965, Control_c, 0, 64, 67
1, 229979, Control_c, 0, 64, 67
1, 229994, Control_c, 0, 64, 68
1, 230009, Control_c, 0, 64, 68
1, 230054, Control_c, 0, 64, 68
1, 230069, Note_on_c, 0, 61, 70
1, 230069, Control_c, 0, 64, 67
1, 230072, Note_on_c, 0, 77, 63
1, 230081, Note_off_c, 0, 75, 60
1, 230084, Control_c, 0, 64, 66
1, 230086, Note_off_c, 0, 60, 56
1, 230099, Control_c, 0, 64, 63
1, 230114, Control_c, 0, 64, 59
1, 230128, Control_c, 0, 64, 55
1, 230143, Control_c, 0, 64, 52
1, 230158, Control_c, 0, 64, 48
1, 230173, Control_c, 0, 64, 45
1, 230188, Control_c, 0, 64, 41
1, 230203, Control_c, 0, 64, 37
1, 230218, Control_c, 0, 64, 34
1, 230233, Control_c, 0, 64, 34
1, 230248, Control_c, 0, 64, 35
1, 230263, Control_c, 0, 64, 40
1, 230277, Control_c, 0, 64, 49
1, 230292, Control_c, 0, 64, 58
1, 230307, Control_c, 0, 64, 64
1, 230317, Note_off_c, 0, 61, 63
1, 230320, Note_on_c, 0, 75, 72
1, 230321, Control_c, 0, 64, 68
1, 230330, Note_on_c, 0, 60, 64
1, 230336, Control_c, 0, 64, 70
1, 230351, Control_c, 0, 64, 71
1, 230362, Note_off_c, 0, 77, 62
1, 230381, Control_c, 0, 64, 71
1, 230395, Control_c, 0, 64, 72
1, 230440, Control_c, 0, 64, 71
1, 230455, Control_c, 0, 64, 67
1, 230469, Control_c, 0, 64, 62
1, 230473, Note_off_c, 0, 56, 57
1, 230484, Control_c, 0, 64, 57
1, 230499, Control_c, 0, 64, 52
1, 230514, Control_c, 0, 64, 48
1, 230516, Note_on_c, 0, 73, 70
1, 230519, Note_on_c, 0, 58, 64
1, 230528, Control_c, 0, 64, 45
1, 230543, Control_c, 0, 64, 41
1, 230547, Note_off_c, 0, 75, 64
1, 230554, Note_off_c, 0, 60, 54
1, 230558, Control_c, 0, 64, 37
1, 230573, Control_c, 0, 64, 33
1, 230587, Control_c, 0, 64, 29
1, 230602, Control_c, 0, 64, 27
1, 230617, Control_c, 0, 64, 27
1, 230633, Control_c, 0, 64, 26
1, 230648, Control_c, 0, 64, 24
1, 230670, Control_c, 0, 64, 23
1, 230718, Note_on_c, 0, 72, 70
1, 230721, Note_on_c, 0, 56, 62
1, 230721, Note_off_c, 0, 73, 64
1, 230741, Note_off_c, 0, 58, 62
1, 230862, Control_c, 0, 67, 127
1, 230877, Control_c, 0, 67, 126
1, 230893, Control_c, 0, 67, 125
1, 230900, Note_off_c, 0, 56, 62
1, 230905, Note_off_c, 0, 72, 63
1, 230908, Control_c, 0, 67, 125
1, 230914, Note_on_c, 0, 55, 59
1, 230918, Note_on_c, 0, 70, 61
1, 230923, Control_c, 0, 67, 124
1, 230952, Control_c, 0, 67, 124
1, 230967, Control_c, 0, 64, 24
1, 230982, Control_c, 0, 64, 25
1, 230982, Control_c, 0, 67, 123
1, 230997, Control_c, 0, 64, 25
1, 231056, Control_c, 0, 64, 26
1, 231071, Control_c, 0, 64, 28
1, 231086, Control_c, 0, 64, 31
1, 231088, Note_off_c, 0, 55, 63
1, 231100, Control_c, 0, 64, 36
1, 231109, Note_on_c, 0, 56, 55
1, 231112, Note_on_c, 0, 72, 64
1, 231115, Control_c, 0, 64, 42
1, 231126, Note_off_c, 0, 70, 62
1, 231130, Control_c, 0, 64, 48
1, 231145, Control_c, 0, 64, 54
1, 231160, Control_c, 0, 64, 59
1, 231175, Control_c, 0, 64, 60
1, 231190, Control_c, 0, 64, 61
1, 231219, Control_c, 0, 64, 61
1, 231323, Control_c, 0, 64, 61
1, 231337, Control_c, 0, 64, 60
1, 231352, Control_c, 0, 64, 58
1, 231367, Control_c, 0, 64, 56
1, 231367, Control_c, 0, 67, 124
1, 231381, Control_c, 0, 64, 52
1, 231383, Note_on_c, 0, 73, 54
1, 231383, Note_on_c, 0, 58, 55
1, 231385, Note_off_c, 0, 56, 61
1, 231393, Note_off_c, 0, 72, 61
1, 231396, Control_c, 0, 64, 48
1, 231418, Control_c, 0, 64, 43
1, 231425, Note_on_c, 0, 51, 36
1, 231433, Control_c, 0, 64, 38
1, 231448, Control_c, 0, 64, 32
1, 231463, Control_c, 0, 64, 30
1, 231477, Control_c, 0, 64, 32
1, 231492, Control_c, 0, 64, 40
1, 231492, Control_c, 0, 67, 124
1, 231507, Control_c, 0, 64, 50
1, 231522, Control_c, 0, 64, 57
1, 231522, Control_c, 0, 67, 125
1, 231537, Control_c, 0, 64, 61
1, 231537, Control_c, 0, 67, 125
1, 231551, Control_c, 0, 67, 126
1, 231566, Control_c, 0, 67, 127
1, 231581, Control_c, 0, 67, 127
1, 231598, Note_on_c, 0, 65, 50
1, 231610, Note_off_c, 0, 68, 59
1, 231611, Control_c, 0, 64, 60
1, 231625, Control_c, 0, 64, 56
1, 231640, Control_c, 0, 64, 50
1, 231655, Control_c, 0, 64, 45
1, 231669, Control_c, 0, 64, 39
1, 231684, Control_c, 0, 64, 29
1, 231701, Control_c, 0, 64, 15
1, 231715, Control_c, 0, 64, 0
1, 231760, Control_c, 0, 64, 13
1, 231774, Control_c, 0, 64, 33
1, 231789, Control_c, 0, 64, 49
1, 231803, Note_off_c, 0, 65, 57
1, 231804, Control_c, 0, 64, 61
1, 231818, Note_on_c, 0, 68, 54
1, 231819, Control_c, 0, 64, 66
1, 231834, Control_c, 0, 64, 68
1, 231848, Control_c, 0, 64, 69
1, 231863, Control_c, 0, 64, 71
1, 231878, Control_c, 0, 64, 74
1, 231878, Control_c, 0, 67, 127
1, 231893, Control_c, 0, 64, 78
1, 231893, Control_c, 0, 67, 126
1, 231908, Control_c, 0, 64, 80
1, 231923, Control_c, 0, 64, 83
1, 231923, Control_c, 0, 67, 126
1, 231938, Control_c, 0, 64, 84
1, 231953, Control_c, 0, 64, 86
1, 231967, Control_c, 0, 64, 87
1, 231988, Note_off_c, 0, 58, 44
1, 232018, Note_on_c, 0, 67, 63
1, 232025, Note_off_c, 0, 68, 58
1, 232059, Note_off_c, 0, 73, 48
1, 232100, Control_c, 0, 67, 126
1, 232166, Control_c, 0, 64, 85
1, 232181, Control_c, 0, 64, 84
1, 232196, Control_c, 0, 64, 82
1, 232211, Control_c, 0, 64, 81
1, 232226, Control_c, 0, 64, 78
1, 232226, Control_c, 0, 67, 127
1, 232240, Control_c, 0, 64, 75
1, 232255, Control_c, 0, 64, 71
1, 232270, Control_c, 0, 64, 66
1, 232285, Control_c, 0, 64, 62
1, 232295, Note_on_c, 0, 72, 51
1, 232299, Control_c, 0, 64, 58
1, 232306, Note_off_c, 0, 67, 59
1, 232313, Note_on_c, 0, 56, 42
1, 232314, Note_on_c, 0, 68, 48
1, 232314, Control_c, 0, 64, 55
1, 232322, Note_on_c, 0, 44, 40
1, 232329, Control_c, 0, 64, 52
1, 232338, Note_off_c, 0, 51, 57
1, 232344, Control_c, 0, 64, 48
1, 232359, Control_c, 0, 64, 43
1, 232373, Control_c, 0, 64, 39
1, 232388, Control_c, 0, 64, 36
1, 232403, Control_c, 0, 64, 36
1, 232403, Control_c, 0, 67, 126
1, 232418, Control_c, 0, 64, 35
1, 232433, Control_c, 0, 64, 34
1, 232433, Control_c, 0, 67, 126
1, 232448, Control_c, 0, 64, 34
1, 232448, Control_c, 0, 67, 125
1, 232462, Control_c, 0, 67, 125
1, 232493, Control_c, 0, 67, 124
1, 232522, Control_c, 0, 67, 124
1, 232552, Control_c, 0, 67, 123
1, 232567, Control_c, 0, 64, 34
1, 232582, Note_on_c, 0, 48, 54
1, 232597, Control_c, 0, 64, 35
1, 232599, Note_on_c, 0, 63, 33
1, 232611, Control_c, 0, 64, 35
1, 232626, Control_c, 0, 64, 36
1, 232641, Control_c, 0, 64, 37
1, 232686, Control_c, 0, 67, 124
1, 232745, Control_c, 0, 64, 36
1, 232760, Control_c, 0, 64, 35
1, 232789, Control_c, 0, 64, 34
1, 232798, Note_off_c, 0, 63, 44
1, 232804, Control_c, 0, 64, 33
1, 232808, Note_off_c, 0, 56, 61
1, 232819, Control_c, 0, 64, 32
1, 232820, Note_off_c, 0, 68, 58
1, 232828, Note_on_c, 0, 49, 67
1, 232834, Note_off_c, 0, 48, 64
1, 232834, Control_c, 0, 64, 32
1, 232836, Note_on_c, 0, 65, 46
1, 232849, Control_c, 0, 64, 31
1, 232878, Control_c, 0, 64, 32
1, 232893, Control_c, 0, 64, 34
1, 232893, Control_c, 0, 67, 124
1, 232915, Control_c, 0, 64, 38
1, 232930, Control_c, 0, 64, 44
1, 232945, Control_c, 0, 64, 48
1, 232960, Control_c, 0, 64, 51
1, 232975, Control_c, 0, 64, 54
1, 232989, Control_c, 0, 64, 56
1, 233004, Control_c, 0, 64, 56
1, 233020, Note_off_c, 0, 72, 63
1, 233029, Note_off_c, 0, 65, 62
1, 233037, Note_on_c, 0, 63, 55
1, 233039, Note_off_c, 0, 49, 64
1, 233043, Note_on_c, 0, 48, 71
1, 233049, Control_c, 0, 64, 56
1, 233063, Control_c, 0, 64, 55
1, 233063, Control_c, 0, 67, 125
1, 233078, Control_c, 0, 64, 54
1, 233093, Control_c, 0, 64, 53
1, 233108, Control_c, 0, 64, 51
1, 233122, Control_c, 0, 64, 50
1, 233122, Control_c, 0, 67, 125
1, 233123, Note_off_c, 0, 44, 62
1, 233137, Control_c, 0, 64, 48
1, 233152, Control_c, 0, 64, 47
1, 233167, Control_c, 0, 64, 44
1, 233182, Control_c, 0, 64, 42
1, 233196, Control_c, 0, 64, 39
1, 233211, Control_c, 0, 64, 38
1, 233211, Control_c, 0, 67, 126
1, 233220, Note_on_c, 0, 46, 70
1, 233226, Control_c, 0, 64, 37
1, 233237, Note_on_c, 0, 61, 55
1, 233240, Control_c, 0, 64, 36
1, 233249, Note_off_c, 0, 63, 59
1, 233255, Control_c, 0, 64, 35
1, 233255, Control_c, 0, 67, 126
1, 233270, Note_off_c, 0, 48, 59
1, 233270, Control_c, 0, 64, 34
1, 233286, Control_c, 0, 64, 34
1, 233345, Control_c, 0, 64, 33
1, 233424, Note_on_c, 0, 44, 72
1, 233434, Note_on_c, 0, 60, 48
1, 233434, Note_off_c, 0, 61, 59
1, 233434, Control_c, 0, 64, 33
1, 233460, Note_off_c, 0, 46, 62
1, 233509, Control_c, 0, 64, 32
1, 233538, Control_c, 0, 64, 31
1, 233553, Control_c, 0, 64, 31
1, 233568, Control_c, 0, 64, 30
1, 233583, Control_c, 0, 64, 30
1, 233598, Control_c, 0, 64, 29
1, 233610, Note_off_c, 0, 60, 61
1, 233612, Control_c, 0, 64, 29
1, 233627, Note_on_c, 0, 58, 55
1, 233628, Control_c, 0, 64, 28
1, 233628, Control_c, 0, 67, 126
1, 233633, Note_on_c, 0, 43, 67
1, 233634, Note_off_c, 0, 44, 62
1, 233680, Control_c, 0, 64, 28
1, 233852, Note_on_c, 0, 44, 67
1, 233857, Note_off_c, 0, 43, 64
1, 233866, Note_off_c, 0, 58, 56
1, 233871, Note_on_c, 0, 60, 47
1, 233902, Control_c, 0, 64, 28
1, 233932, Control_c, 0, 64, 29
1, 233991, Control_c, 0, 64, 29
1, 234006, Control_c, 0, 64, 30
1, 234110, Control_c, 0, 64, 30
1, 234126, Note_off_c, 0, 60, 49
1, 234153, Note_on_c, 0, 68, 46
1, 234163, Note_on_c, 0, 46, 63
1, 234163, Note_on_c, 0, 61, 42
1, 234169, Control_c, 0, 67, 126
1, 234181, Note_off_c, 0, 44, 59
1, 234194, Note_on_c, 0, 39, 52
1, 234199, Control_c, 0, 64, 30
1, 234214, Control_c, 0, 67, 126
1, 234258, Control_c, 0, 64, 29
1, 234317, Control_c, 0, 64, 30
1, 234332, Control_c, 0, 64, 35
1, 234347, Control_c, 0, 64, 44
1, 234361, Control_c, 0, 64, 52
1, 234376, Control_c, 0, 64, 58
1, 234391, Control_c, 0, 64, 60
1, 234414, Control_c, 0, 64, 61
1, 234429, Control_c, 0, 64, 61
1, 234443, Control_c, 0, 64, 62
1, 234454, Note_off_c, 0, 68, 53
1, 234454, Note_on_c, 0, 65, 51
1, 234458, Control_c, 0, 64, 63
1, 234473, Control_c, 0, 64, 64
1, 234487, Control_c, 0, 64, 65
1, 234517, Control_c, 0, 64, 65
1, 234532, Control_c, 0, 64, 66
1, 234547, Control_c, 0, 64, 66
1, 234576, Control_c, 0, 64, 67
1, 234591, Control_c, 0, 64, 66
1, 234606, Control_c, 0, 64, 65
1, 234621, Control_c, 0, 64, 62
1, 234636, Control_c, 0, 64, 57
1, 234650, Control_c, 0, 64, 52
1, 234657, Note_on_c, 0, 68, 60
1, 234665, Control_c, 0, 64, 47
1, 234680, Control_c, 0, 64, 42
1, 234695, Control_c, 0, 64, 40
1, 234710, Control_c, 0, 64, 42
1, 234725, Control_c, 0, 64, 49
1, 234740, Control_c, 0, 64, 57
1, 234755, Control_c, 0, 64, 63
1, 234769, Control_c, 0, 64, 66
1, 234784, Control_c, 0, 64, 68
1, 234799, Control_c, 0, 64, 69
1, 234814, Control_c, 0, 64, 70
1, 234829, Control_c, 0, 64, 71
1, 234843, Control_c, 0, 64, 73
1, 234845, Note_off_c, 0, 68, 58
1, 234858, Control_c, 0, 64, 74
1, 234859, Note_on_c, 0, 67, 63
1, 234873, Control_c, 0, 64, 75
1, 234884, Note_off_c, 0, 65, 24
1, 234889, Control_c, 0, 64, 76
1, 234898, Note_off_c, 0, 46, 32
1, 234948, Control_c, 0, 67, 126
1, 234985, Note_off_c, 0, 61, 57
1, 235051, Control_c, 0, 64, 75
1, 235066, Control_c, 0, 64, 74
1, 235081, Control_c, 0, 64, 71
1, 235094, Note_off_c, 0, 67, 62
1, 235096, Control_c, 0, 64, 69
1, 235104, Note_on_c, 0, 70, 59
1, 235110, Control_c, 0, 64, 66
1, 235110, Control_c, 0, 67, 127
1, 235111, Note_on_c, 0, 44, 52
1, 235118, Note_on_c, 0, 60, 40
1, 235125, Control_c, 0, 64, 63
1, 235134, Note_on_c, 0, 32, 41
1, 235140, Control_c, 0, 64, 60
1, 235144, Note_off_c, 0, 39, 52
1, 235163, Control_c, 0, 64, 58
1, 235178, Control_c, 0, 64, 54
1, 235192, Control_c, 0, 64, 47
1, 235207, Control_c, 0, 64, 36
1, 235222, Control_c, 0, 64, 23
1, 235237, Control_c, 0, 64, 11
1, 235237, Control_c, 0, 67, 126
1, 235252, Control_c, 0, 64, 0
1, 235281, Control_c, 0, 67, 126
1, 235296, Control_c, 0, 64, 19
1, 235310, Control_c, 0, 64, 36
1, 235310, Control_c, 0, 67, 125
1, 235325, Control_c, 0, 64, 51
1, 235325, Control_c, 0, 67, 124
1, 235340, Control_c, 0, 64, 61
1, 235340, Control_c, 0, 67, 122
1, 235348, Note_on_c, 0, 67, 54
1, 235355, Control_c, 0, 64, 66
1, 235355, Control_c, 0, 67, 119
1, 235370, Control_c, 0, 64, 67
1, 235370, Control_c, 0, 67, 117
1, 235380, Note_off_c, 0, 70, 52
1, 235384, Control_c, 0, 64, 69
1, 235384, Control_c, 0, 67, 114
1, 235399, Control_c, 0, 64, 71
1, 235399, Control_c, 0, 67, 112
1, 235414, Control_c, 0, 64, 75
1, 235414, Control_c, 0, 67, 110
1, 235429, Control_c, 0, 64, 79
1, 235429, Control_c, 0, 67, 108
1, 235444, Control_c, 0, 64, 82
1, 235444, Control_c, 0, 67, 106
1, 235458, Control_c, 0, 64, 84
1, 235458, Control_c, 0, 67, 105
1, 235473, Control_c, 0, 64, 87
1, 235473, Control_c, 0, 67, 103
1, 235488, Control_c, 0, 64, 90
1, 235488, Control_c, 0, 67, 103
1, 235503, Control_c, 0, 64, 93
1, 235503, Control_c, 0, 67, 102
1, 235518, Control_c, 0, 64, 95
1, 235533, Control_c, 0, 64, 97
1, 235533, Control_c, 0, 67, 103
1, 235537, Note_on_c, 0, 70, 55
1, 235548, Control_c, 0, 64, 98
1, 235548, Control_c, 0, 67, 103
1, 235563, Control_c, 0, 64, 99
1, 235577, Control_c, 0, 67, 104
1, 235592, Control_c, 0, 67, 105
1, 235607, Control_c, 0, 64, 99
1, 235607, Control_c, 0, 67, 107
1, 235622, Control_c, 0, 67, 108
1, 235637, Control_c, 0, 67, 109
1, 235652, Control_c, 0, 67, 110
1, 235666, Control_c, 0, 67, 110
1, 235682, Control_c, 0, 67, 111
1, 235697, Control_c, 0, 67, 111
1, 235706, Note_off_c, 0, 60, 39
1, 235712, Control_c, 0, 67, 112
1, 235715, Note_off_c, 0, 32, 36
1, 235721, Note_off_c, 0, 67, 30
1, 235741, Control_c, 0, 67, 113
1, 235742, Note_on_c, 0, 68, 63
1, 235771, Control_c, 0, 67, 113
1, 235783, Note_off_c, 0, 70, 55
1, 235786, Control_c, 0, 64, 99
1, 235801, Control_c, 0, 67, 114
1, 235815, Note_off_c, 0, 44, 40
1, 235889, Control_c, 0, 67, 113
1, 235911, Control_c, 0, 64, 98
1, 235926, Control_c, 0, 64, 98
1, 235941, Control_c, 0, 64, 97
1, 235950, Note_on_c, 0, 44, 58
1, 235956, Control_c, 0, 64, 96
1, 235960, Note_on_c, 0, 73, 61
1, 235971, Control_c, 0, 64, 93
1, 235971, Control_c, 0, 67, 113
1, 235976, Note_off_c, 0, 68, 64
1, 235980, Note_on_c, 0, 39, 49
1, 235985, Note_on_c, 0, 32, 45
1, 235986, Control_c, 0, 64, 88
1, 235987, Note_on_c, 0, 36, 45
1, 236001, Control_c, 0, 64, 83
1, 236001, Control_c, 0, 67, 112
1, 236015, Control_c, 0, 64, 76
1, 236030, Control_c, 0, 64, 68
1, 236045, Control_c, 0, 64, 62
1, 236045, Control_c, 0, 67, 112
1, 236060, Control_c, 0, 64, 55
1, 236075, Control_c, 0, 64, 50
1, 236089, Control_c, 0, 64, 50
1, 236089, Control_c, 0, 67, 111
1, 236104, Control_c, 0, 64, 51
1, 236119, Control_c, 0, 64, 55
1, 236134, Control_c, 0, 64, 61
1, 236148, Control_c, 0, 64, 66
1, 236153, Note_on_c, 0, 71, 64
1, 236163, Control_c, 0, 64, 70
1, 236173, Note_off_c, 0, 73, 65
1, 236178, Control_c, 0, 64, 76
1, 236193, Control_c, 0, 64, 79
1, 236208, Control_c, 0, 64, 81
1, 236222, Control_c, 0, 64, 81
1, 236237, Control_c, 0, 64, 82
1, 236252, Control_c, 0, 64, 83
1, 236267, Control_c, 0, 64, 84
1, 236281, Control_c, 0, 64, 85
1, 236296, Control_c, 0, 67, 112
1, 236326, Control_c, 0, 64, 83
1, 236341, Control_c, 0, 64, 77
1, 236350, Note_on_c, 0, 73, 70
1, 236355, Control_c, 0, 64, 70
1, 236358, Note_off_c, 0, 71, 61
1, 236370, Control_c, 0, 64, 65
1, 236385, Control_c, 0, 64, 61
1, 236400, Control_c, 0, 64, 61
1, 236400, Control_c, 0, 67, 111
1, 236415, Control_c, 0, 64, 62
1, 236430, Control_c, 0, 64, 65
1, 236445, Control_c, 0, 64, 69
1, 236445, Control_c, 0, 67, 110
1, 236459, Control_c, 0, 64, 75
1, 236459, Control_c, 0, 67, 108
1, 236474, Control_c, 0, 64, 80
1, 236474, Control_c, 0, 67, 105
1, 236490, Control_c, 0, 64, 82
1, 236490, Control_c, 0, 67, 103
1, 236505, Control_c, 0, 67, 100
1, 236519, Control_c, 0, 64, 83
1, 236519, Control_c, 0, 67, 95
1, 236534, Control_c, 0, 67, 89
1, 236543, Note_on_c, 0, 72, 70
1, 236549, Control_c, 0, 67, 82
1, 236564, Control_c, 0, 67, 75
1, 236574, Note_off_c, 0, 73, 60
1, 236579, Control_c, 0, 67, 68
1, 236594, Control_c, 0, 67, 64
1, 236609, Control_c, 0, 67, 63
1, 236623, Control_c, 0, 67, 63
1, 236637, Control_c, 0, 67, 66
1, 236660, Control_c, 0, 64, 82
1, 236660, Control_c, 0, 67, 69
1, 236674, Control_c, 0, 64, 77
1, 236674, Control_c, 0, 67, 72
1, 236689, Control_c, 0, 64, 67
1, 236689, Control_c, 0, 67, 74
1, 236704, Control_c, 0, 64, 58
1, 236704, Control_c, 0, 67, 75
1, 236719, Control_c, 0, 64, 46
1, 236719, Control_c, 0, 67, 76
1, 236734, Control_c, 0, 64, 36
1, 236734, Control_c, 0, 67, 76
1, 236742, Note_on_c, 0, 77, 69
1, 236746, Note_off_c, 0, 72, 61
1, 236749, Control_c, 0, 64, 32
1, 236749, Control_c, 0, 67, 77
1, 236763, Control_c, 0, 64, 30
1, 236763, Control_c, 0, 67, 77
1, 236778, Control_c, 0, 64, 31
1, 236778, Control_c, 0, 67, 79
1, 236793, Control_c, 0, 64, 43
1, 236793, Control_c, 0, 67, 81
1, 236808, Control_c, 0, 64, 57
1, 236808, Control_c, 0, 67, 82
1, 236823, Control_c, 0, 64, 66
1, 236823, Control_c, 0, 67, 83
1, 236837, Control_c, 0, 64, 72
1, 236837, Control_c, 0, 67, 84
1, 236852, Control_c, 0, 64, 77
1, 236852, Control_c, 0, 67, 85
1, 236867, Control_c, 0, 64, 79
1, 236867, Control_c, 0, 67, 86
1, 236881, Control_c, 0, 64, 79
1, 236881, Control_c, 0, 67, 87
1, 236896, Control_c, 0, 64, 80
1, 236911, Control_c, 0, 64, 81
1, 236922, Note_off_c, 0, 77, 64
1, 236926, Control_c, 0, 64, 83
1, 236928, Note_on_c, 0, 74, 66
1, 236941, Control_c, 0, 64, 84
1, 236955, Control_c, 0, 64, 85
1, 236970, Control_c, 0, 64, 86
1, 236985, Control_c, 0, 64, 87
1, 236985, Control_c, 0, 67, 87
1, 237000, Control_c, 0, 64, 87
1, 237015, Control_c, 0, 64, 88
1, 237029, Control_c, 0, 64, 89
1, 237059, Control_c, 0, 64, 90
1, 237089, Control_c, 0, 64, 88
1, 237104, Control_c, 0, 64, 82
1, 237114, Note_on_c, 0, 77, 71
1, 237119, Control_c, 0, 64, 74
1, 237133, Control_c, 0, 64, 67
1, 237142, Note_off_c, 0, 74, 54
1, 237148, Control_c, 0, 64, 61
1, 237148, Control_c, 0, 67, 88
1, 237163, Control_c, 0, 64, 56
1, 237178, Control_c, 0, 64, 53
1, 237193, Control_c, 0, 64, 54
1, 237208, Control_c, 0, 64, 57
1, 237223, Control_c, 0, 64, 63
1, 237223, Control_c, 0, 67, 88
1, 237237, Control_c, 0, 64, 68
1, 237252, Control_c, 0, 64, 73
1, 237267, Control_c, 0, 64, 79
1, 237267, Control_c, 0, 67, 89
1, 237283, Control_c, 0, 64, 83
1, 237283, Control_c, 0, 67, 91
1, 237297, Control_c, 0, 64, 85
1, 237297, Control_c, 0, 67, 91
1, 237306, Note_on_c, 0, 75, 74
1, 237312, Control_c, 0, 64, 86
1, 237312, Control_c, 0, 67, 91
1, 237322, Note_off_c, 0, 77, 63
1, 237327, Control_c, 0, 64, 88
1, 237342, Control_c, 0, 64, 90
1, 237342, Control_c, 0, 67, 91
1, 237357, Control_c, 0, 64, 91
1, 237372, Control_c, 0, 64, 92
1, 237387, Control_c, 0, 64, 92
1, 237387, Control_c, 0, 67, 92
1, 237409, Control_c, 0, 64, 93
1, 237424, Control_c, 0, 64, 94
1, 237439, Control_c, 0, 64, 94
1, 237454, Control_c, 0, 64, 95
1, 237468, Control_c, 0, 64, 96
1, 237483, Control_c, 0, 64, 95
1, 237498, Control_c, 0, 64, 92
1, 237498, Control_c, 0, 67, 92
1, 237512, Control_c, 0, 64, 81
1, 237526, Note_on_c, 0, 82, 70
1, 237527, Control_c, 0, 64, 70
1, 237542, Control_c, 0, 64, 62
1, 237542, Control_c, 0, 67, 93
1, 237553, Note_off_c, 0, 75, 64
1, 237557, Control_c, 0, 64, 54
1, 237557, Control_c, 0, 67, 94
1, 237572, Control_c, 0, 64, 52
1, 237572, Control_c, 0, 67, 94
1, 237587, Control_c, 0, 64, 54
1, 237601, Control_c, 0, 64, 61
1, 237601, Control_c, 0, 67, 94
1, 237616, Control_c, 0, 64, 69
1, 237631, Control_c, 0, 64, 82
1, 237631, Control_c, 0, 67, 94
1, 237646, Control_c, 0, 64, 113
1, 237661, Control_c, 0, 64, 127
1, 237691, Control_c, 0, 67, 94
1, 237720, Control_c, 0, 67, 93
1, 237721, Note_on_c, 0, 79, 68
1, 237732, Note_off_c, 0, 82, 62
1, 237779, Control_c, 0, 67, 94
1, 237783, Note_off_c, 0, 32, 47
1, 237816, Note_off_c, 0, 39, 0
1, 237839, Control_c, 0, 67, 93
1, 237840, Note_off_c, 0, 36, 39
1, 237862, Note_off_c, 0, 44, 53
1, 237882, Poly_aftertouch_c, 0, 39, 0
1, 237883, Control_c, 0, 67, 94
1, 237911, Note_on_c, 0, 82, 72
1, 238007, Note_off_c, 0, 79, 36
1, 238016, Control_c, 0, 67, 94
1, 238112, Note_on_c, 0, 80, 72
1, 238135, Control_c, 0, 67, 95
1, 238138, Note_off_c, 0, 82, 61
1, 238262, Control_c, 0, 67, 95
1, 238343, Note_on_c, 0, 85, 66
1, 238348, Note_on_c, 0, 56, 55
1, 238358, Note_off_c, 0, 80, 63
1, 238365, Control_c, 0, 64, 99
1, 238370, Note_on_c, 0, 48, 40
1, 238380, Control_c, 0, 64, 87
1, 238380, Control_c, 0, 67, 96
1, 238382, Note_on_c, 0, 51, 39
1, 238395, Control_c, 0, 64, 74
1, 238395, Control_c, 0, 67, 99
1, 238396, Note_on_c, 0, 44, 44
1, 238409, Control_c, 0, 64, 64
1, 238409, Control_c, 0, 67, 99
1, 238424, Control_c, 0, 64, 53
1, 238439, Control_c, 0, 64, 41
1, 238454, Control_c, 0, 64, 33
1, 238469, Control_c, 0, 64, 32
1, 238484, Control_c, 0, 64, 36
1, 238484, Control_c, 0, 67, 100
1, 238499, Control_c, 0, 64, 53
1, 238514, Control_c, 0, 64, 66
1, 238514, Control_c, 0, 67, 100
1, 238528, Control_c, 0, 64, 79
1, 238543, Control_c, 0, 64, 101
1, 238543, Control_c, 0, 67, 102
1, 238558, Control_c, 0, 64, 127
1, 238558, Control_c, 0, 67, 103
1, 238569, Note_off_c, 0, 85, 64
1, 238570, Note_on_c, 0, 83, 65
1, 238659, Note_off_c, 0, 48, 52
1, 238676, Control_c, 0, 67, 103
1, 238677, Note_off_c, 0, 44, 58
1, 238693, Note_off_c, 0, 51, 41
1, 238746, Note_off_c, 0, 56, 61
1, 238762, Note_on_c, 0, 85, 76
1, 238768, Note_off_c, 0, 83, 64
1, 238780, Control_c, 0, 67, 104
1, 238922, Control_c, 0, 67, 104
1, 238956, Note_on_c, 0, 84, 72
1, 238981, Control_c, 0, 67, 105
1, 238987, Note_off_c, 0, 85, 60
1, 238996, Control_c, 0, 67, 105
1, 239143, Note_off_c, 0, 84, 56
1, 239153, Note_on_c, 0, 89, 64
1, 239158, Note_on_c, 0, 63, 69
1, 239173, Control_c, 0, 67, 106
1, 239186, Note_on_c, 0, 60, 50
1, 239197, Note_on_c, 0, 56, 44
1, 239218, Control_c, 0, 64, 97
1, 239232, Control_c, 0, 64, 79
1, 239247, Control_c, 0, 64, 65
1, 239262, Control_c, 0, 64, 54
1, 239262, Control_c, 0, 67, 106
1, 239277, Control_c, 0, 64, 43
1, 239292, Control_c, 0, 64, 37
1, 239307, Control_c, 0, 67, 107
1, 239321, Control_c, 0, 64, 40
1, 239321, Control_c, 0, 67, 107
1, 239336, Control_c, 0, 64, 51
1, 239351, Control_c, 0, 64, 63
1, 239352, Note_on_c, 0, 86, 70
1, 239366, Control_c, 0, 64, 74
1, 239366, Control_c, 0, 67, 108
1, 239381, Control_c, 0, 64, 89
1, 239381, Control_c, 0, 67, 108
1, 239396, Control_c, 0, 64, 116
1, 239411, Control_c, 0, 64, 127
1, 239411, Note_off_c, 0, 89, 60
1, 239556, Note_on_c, 0, 89, 70
1, 239615, Note_off_c, 0, 63, 59
1, 239698, Note_off_c, 0, 56, 29
1, 239761, Note_on_c, 0, 87, 79
1, 239778, Note_off_c, 0, 60, 36
1, 239797, Note_off_c, 0, 86, 59
1, 239798, Note_off_c, 0, 89, 64
1, 239804, Control_c, 0, 67, 109
1, 239913, Note_off_c, 0, 87, 63
1, 239981, Control_c, 0, 64, 101
1, 239981, Control_c, 0, 67, 109
1, 239996, Control_c, 0, 64, 87
1, 239999, Note_on_c, 0, 62, 62
1, 240001, Note_on_c, 0, 87, 73
1, 240011, Control_c, 0, 64, 76
1, 240023, Note_on_c, 0, 53, 44
1, 240026, Control_c, 0, 64, 69
1, 240026, Control_c, 0, 67, 110
1, 240031, Note_on_c, 0, 58, 45
1, 240034, Note_on_c, 0, 56, 44
1, 240041, Control_c, 0, 64, 64
1, 240055, Control_c, 0, 64, 59
1, 240070, Control_c, 0, 64, 54
1, 240085, Control_c, 0, 64, 47
1, 240099, Control_c, 0, 64, 39
1, 240114, Control_c, 0, 64, 24
1, 240114, Control_c, 0, 67, 110
1, 240129, Control_c, 0, 64, 0
1, 240159, Control_c, 0, 67, 111
1, 240219, Control_c, 0, 64, 35
1, 240225, Note_on_c, 0, 84, 67
1, 240234, Control_c, 0, 64, 53
1, 240248, Control_c, 0, 64, 63
1, 240248, Control_c, 0, 67, 111
1, 240263, Control_c, 0, 64, 67
1, 240263, Control_c, 0, 67, 112
1, 240268, Note_off_c, 0, 87, 58
1, 240278, Control_c, 0, 64, 69
1, 240293, Control_c, 0, 64, 71
1, 240307, Control_c, 0, 64, 73
1, 240322, Control_c, 0, 64, 76
1, 240337, Control_c, 0, 64, 80
1, 240352, Control_c, 0, 64, 84
1, 240366, Control_c, 0, 64, 87
1, 240366, Control_c, 0, 67, 112
1, 240380, Control_c, 0, 64, 90
1, 240403, Control_c, 0, 64, 94
1, 240418, Control_c, 0, 64, 97
1, 240429, Note_on_c, 0, 87, 65
1, 240433, Control_c, 0, 64, 100
1, 240448, Control_c, 0, 64, 102
1, 240452, Note_off_c, 0, 84, 59
1, 240462, Control_c, 0, 64, 104
1, 240469, Note_off_c, 0, 58, 34
1, 240478, Control_c, 0, 64, 106
1, 240493, Control_c, 0, 64, 107
1, 240508, Control_c, 0, 64, 109
1, 240523, Control_c, 0, 64, 111
1, 240537, Control_c, 0, 64, 113
1, 240552, Control_c, 0, 64, 114
1, 240567, Control_c, 0, 64, 115
1, 240582, Control_c, 0, 64, 116
1, 240598, Note_off_c, 0, 56, 35
1, 240605, Note_off_c, 0, 53, 35
1, 240612, Note_off_c, 0, 62, 29
1, 240626, Control_c, 0, 64, 117
1, 240636, Note_off_c, 0, 87, 65
1, 240638, Note_on_c, 0, 86, 64
1, 240715, Control_c, 0, 67, 112
1, 240774, Control_c, 0, 67, 112
1, 240789, Control_c, 0, 64, 116
1, 240863, Control_c, 0, 64, 115
1, 240866, Note_on_c, 0, 96, 61
1, 240873, Note_on_c, 0, 62, 59
1, 240895, Note_on_c, 0, 53, 40
1, 240913, Note_on_c, 0, 56, 42
1, 240930, Note_on_c, 0, 58, 31
1, 240961, Note_off_c, 0, 86, 36
1, 241011, Control_c, 0, 64, 110
1, 241026, Control_c, 0, 64, 101
1, 241041, Control_c, 0, 64, 95
1, 241056, Control_c, 0, 64, 89
1, 241070, Control_c, 0, 64, 87
1, 241080, Note_on_c, 0, 93, 59
1, 241100, Control_c, 0, 64, 87
1, 241116, Control_c, 0, 64, 92
1, 241122, Note_off_c, 0, 96, 56
1, 241130, Control_c, 0, 64, 96
1, 241130, Control_c, 0, 67, 112
1, 241152, Control_c, 0, 64, 102
1, 241167, Control_c, 0, 64, 107
1, 241182, Control_c, 0, 64, 109
1, 241197, Control_c, 0, 64, 109
1, 241226, Control_c, 0, 64, 104
1, 241241, Control_c, 0, 64, 91
1, 241256, Control_c, 0, 64, 77
1, 241271, Control_c, 0, 64, 66
1, 241286, Note_on_c, 0, 96, 58
1, 241287, Control_c, 0, 64, 58
1, 241295, Note_off_c, 0, 93, 58
1, 241301, Control_c, 0, 64, 56
1, 241316, Control_c, 0, 64, 59
1, 241331, Control_c, 0, 64, 63
1, 241346, Control_c, 0, 64, 68
1, 241360, Control_c, 0, 64, 74
1, 241375, Control_c, 0, 64, 82
1, 241390, Control_c, 0, 64, 87
1, 241405, Control_c, 0, 64, 89
1, 241420, Control_c, 0, 64, 89
1, 241420, Control_c, 0, 67, 111
1, 241435, Control_c, 0, 64, 90
1, 241450, Control_c, 0, 64, 91
1, 241465, Control_c, 0, 64, 92
1, 241480, Control_c, 0, 64, 94
1, 241490, Note_on_c, 0, 94, 63
1, 241495, Control_c, 0, 64, 97
1, 241509, Control_c, 0, 64, 100
1, 241524, Control_c, 0, 64, 102
1, 241527, Note_off_c, 0, 96, 60
1, 241539, Control_c, 0, 64, 104
1, 241553, Control_c, 0, 64, 105
1, 241568, Control_c, 0, 64, 106
1, 241568, Control_c, 0, 67, 111
1, 241583, Control_c, 0, 64, 108
1, 241598, Control_c, 0, 64, 109
1, 241613, Control_c, 0, 64, 110
1, 241627, Control_c, 0, 64, 110
1, 241642, Control_c, 0, 64, 111
1, 241686, Control_c, 0, 64, 112
1, 241691, Note_on_c, 0, 87, 56
1, 241701, Control_c, 0, 67, 111
1, 241702, Note_off_c, 0, 94, 61
1, 241731, Control_c, 0, 64, 113
1, 241775, Note_off_c, 0, 62, 34
1, 241775, Control_c, 0, 64, 113
1, 241885, Note_off_c, 0, 56, 0
1, 241892, Note_on_c, 0, 84, 54
1, 241913, Note_off_c, 0, 87, 55
1, 241945, Note_off_c, 0, 58, 35
1, 241957, Poly_aftertouch_c, 0, 56, 0
1, 242034, Control_c, 0, 67, 112
1, 242085, Note_off_c, 0, 84, 63
1, 242097, Note_on_c, 0, 87, 51
1, 242109, Control_c, 0, 67, 112
1, 242228, Control_c, 0, 67, 113
1, 242289, Note_off_c, 0, 87, 55
1, 242290, Note_on_c, 0, 86, 56
1, 242347, Control_c, 0, 67, 112
1, 242465, Control_c, 0, 64, 113
1, 242480, Control_c, 0, 64, 112
1, 242494, Control_c, 0, 64, 110
1, 242509, Control_c, 0, 64, 109
1, 242524, Control_c, 0, 64, 105
1, 242539, Note_off_c, 0, 53, 32
1, 242539, Control_c, 0, 64, 102
1, 242544, Note_off_c, 0, 86, 57
1, 242553, Note_on_c, 0, 63, 59
1, 242554, Control_c, 0, 64, 97
1, 242569, Control_c, 0, 64, 91
1, 242570, Note_on_c, 0, 89, 52
1, 242577, Note_on_c, 0, 51, 41
1, 242583, Control_c, 0, 64, 85
1, 242598, Control_c, 0, 64, 77
1, 242600, Note_on_c, 0, 58, 42
1, 242613, Control_c, 0, 64, 67
1, 242613, Control_c, 0, 67, 111
1, 242625, Note_on_c, 0, 55, 21
1, 242627, Control_c, 0, 64, 58
1, 242627, Control_c, 0, 67, 111
1, 242642, Control_c, 0, 64, 47
1, 242642, Control_c, 0, 67, 110
1, 242663, Control_c, 0, 64, 35
1, 242663, Control_c, 0, 67, 109
1, 242678, Control_c, 0, 64, 28
1, 242678, Control_c, 0, 67, 108
1, 242693, Note_off_c, 0, 55, 0
1, 242693, Control_c, 0, 64, 26
1, 242693, Control_c, 0, 67, 105
1, 242708, Control_c, 0, 64, 27
1, 242708, Control_c, 0, 67, 102
1, 242723, Control_c, 0, 64, 41
1, 242723, Control_c, 0, 67, 100
1, 242730, Poly_aftertouch_c, 0, 55, 127
1, 242738, Control_c, 0, 64, 56
1, 242738, Control_c, 0, 67, 98
1, 242752, Control_c, 0, 64, 67
1, 242752, Control_c, 0, 67, 97
1, 242767, Control_c, 0, 64, 75
1, 242767, Control_c, 0, 67, 93
1, 242782, Control_c, 0, 64, 83
1, 242782, Control_c, 0, 67, 90
1, 242797, Control_c, 0, 64, 90
1, 242797, Control_c, 0, 67, 86
1, 242812, Control_c, 0, 64, 96
1, 242812, Control_c, 0, 67, 79
1, 242822, Note_on_c, 0, 86, 59
1, 242827, Control_c, 0, 64, 117
1, 242827, Control_c, 0, 67, 70
1, 242842, Control_c, 0, 64, 127
1, 242842, Control_c, 0, 67, 59
1, 242856, Control_c, 0, 67, 49
1, 242872, Control_c, 0, 67, 39
1, 242887, Control_c, 0, 67, 30
1, 242891, Note_off_c, 0, 89, 36
1, 242902, Control_c, 0, 67, 20
1, 242916, Control_c, 0, 67, 13
1, 242922, Note_off_c, 0, 63, 63
1, 242931, Control_c, 0, 67, 8
1, 242946, Control_c, 0, 67, 0
1, 242964, Note_off_c, 0, 51, 36
1, 243005, Control_c, 0, 67, 10
1, 243009, Note_off_c, 0, 58, 39
1, 243014, Note_on_c, 0, 89, 60
1, 243020, Control_c, 0, 67, 12
1, 243026, Poly_aftertouch_c, 0, 55, 0
1, 243035, Control_c, 0, 67, 15
1, 243050, Control_c, 0, 67, 18
1, 243065, Control_c, 0, 67, 21
1, 243079, Control_c, 0, 67, 26
1, 243094, Control_c, 0, 67, 35
1, 243109, Control_c, 0, 67, 42
1, 243111, Note_off_c, 0, 86, 46
1, 243123, Control_c, 0, 67, 47
1, 243138, Control_c, 0, 67, 50
1, 243153, Control_c, 0, 67, 51
1, 243194, Note_off_c, 0, 89, 64
1, 243200, Note_on_c, 0, 87, 64
1, 243357, Note_off_c, 0, 87, 64
1, 243396, Note_on_c, 0, 63, 63
1, 243397, Control_c, 0, 67, 51
1, 243407, Note_on_c, 0, 96, 61
1, 243422, Note_on_c, 0, 51, 41
1, 243440, Note_on_c, 0, 55, 41
1, 243444, Note_on_c, 0, 58, 39
1, 243471, Control_c, 0, 64, 95
1, 243486, Control_c, 0, 64, 75
1, 243501, Control_c, 0, 64, 63
1, 243516, Control_c, 0, 64, 50
1, 243531, Control_c, 0, 64, 44
1, 243531, Control_c, 0, 67, 52
1, 243545, Control_c, 0, 64, 46
1, 243560, Control_c, 0, 64, 53
1, 243575, Control_c, 0, 64, 63
1, 243590, Control_c, 0, 64, 72
1, 243593, Note_on_c, 0, 93, 65
1, 243605, Control_c, 0, 64, 86
1, 243605, Control_c, 0, 67, 52
1, 243620, Control_c, 0, 64, 111
1, 243620, Control_c, 0, 67, 53
1, 243625, Note_off_c, 0, 96, 56
1, 243635, Control_c, 0, 64, 127
1, 243635, Control_c, 0, 67, 55
1, 243709, Control_c, 0, 67, 56
1, 243724, Note_off_c, 0, 63, 60
1, 243724, Control_c, 0, 67, 56
1, 243770, Note_off_c, 0, 51, 34
1, 243788, Note_on_c, 0, 96, 60
1, 243802, Note_off_c, 0, 93, 59
1, 243804, Note_off_c, 0, 58, 47
1, 243843, Control_c, 0, 67, 57
1, 243851, Note_off_c, 0, 55, 39
1, 243975, Note_on_c, 0, 94, 66
1, 244028, Note_off_c, 0, 96, 55
1, 244157, Note_off_c, 0, 94, 59
1, 244167, Note_on_c, 0, 89, 57
1, 244168, Note_on_c, 0, 63, 72
1, 244205, Note_on_c, 0, 51, 47
1, 244206, Note_on_c, 0, 58, 45
1, 244206, Control_c, 0, 64, 114
1, 244206, Control_c, 0, 67, 58
1, 244219, Note_on_c, 0, 55, 39
1, 244220, Control_c, 0, 64, 92
1, 244220, Control_c, 0, 67, 60
1, 244235, Control_c, 0, 64, 72
1, 244235, Control_c, 0, 67, 61
1, 244250, Control_c, 0, 64, 61
1, 244250, Control_c, 0, 67, 61
1, 244265, Control_c, 0, 64, 47
1, 244279, Control_c, 0, 64, 36
1, 244279, Control_c, 0, 67, 62
1, 244294, Control_c, 0, 64, 34
1, 244309, Control_c, 0, 64, 35
1, 244309, Control_c, 0, 67, 62
1, 244324, Control_c, 0, 64, 43
1, 244324, Control_c, 0, 67, 64
1, 244339, Control_c, 0, 64, 59
1, 244339, Control_c, 0, 67, 67
1, 244353, Control_c, 0, 64, 69
1, 244353, Control_c, 0, 67, 68
1, 244366, Note_on_c, 0, 86, 65
1, 244368, Control_c, 0, 64, 79
1, 244371, Note_off_c, 0, 89, 62
1, 244383, Control_c, 0, 64, 93
1, 244383, Control_c, 0, 67, 69
1, 244398, Control_c, 0, 64, 106
1, 244413, Control_c, 0, 64, 115
1, 244428, Control_c, 0, 64, 127
1, 244469, Note_off_c, 0, 55, 37
1, 244526, Note_off_c, 0, 51, 52
1, 244540, Note_off_c, 0, 58, 40
1, 244551, Note_on_c, 0, 89, 72
1, 244702, Note_off_c, 0, 63, 62
1, 244725, Note_on_c, 0, 87, 71
1, 244725, Control_c, 0, 67, 69
1, 244734, Note_off_c, 0, 86, 36
1, 244756, Note_off_c, 0, 89, 61
1, 244799, Control_c, 0, 67, 70
1, 244838, Note_off_c, 0, 87, 65
1, 244874, Control_c, 0, 67, 70
1, 244896, Control_c, 0, 67, 72
1, 244911, Control_c, 0, 64, 120
1, 244911, Control_c, 0, 67, 75
1, 244926, Control_c, 0, 64, 101
1, 244926, Control_c, 0, 67, 75
1, 244935, Note_on_c, 0, 62, 69
1, 244936, Note_on_c, 0, 87, 67
1, 244940, Control_c, 0, 64, 86
1, 244955, Control_c, 0, 64, 76
1, 244955, Control_c, 0, 67, 76
1, 244960, Note_on_c, 0, 53, 49
1, 244966, Note_on_c, 0, 56, 52
1, 244970, Control_c, 0, 64, 69
1, 244984, Note_on_c, 0, 58, 40
1, 244985, Control_c, 0, 64, 64
1, 245000, Control_c, 0, 64, 59
1, 245000, Control_c, 0, 67, 76
1, 245015, Control_c, 0, 64, 52
1, 245030, Control_c, 0, 64, 43
1, 245044, Control_c, 0, 64, 23
1, 245044, Control_c, 0, 67, 77
1, 245059, Control_c, 0, 64, 0
1, 245103, Control_c, 0, 67, 77
1, 245118, Control_c, 0, 67, 78
1, 245125, Note_on_c, 0, 84, 64
1, 245133, Control_c, 0, 64, 16
1, 245133, Control_c, 0, 67, 80
1, 245146, Note_off_c, 0, 87, 64
1, 245148, Control_c, 0, 64, 44
1, 245148, Control_c, 0, 67, 82
1, 245163, Control_c, 0, 64, 61
1, 245177, Control_c, 0, 64, 68
1, 245192, Control_c, 0, 64, 71
1, 245207, Control_c, 0, 64, 73
1, 245222, Control_c, 0, 64, 76
1, 245222, Control_c, 0, 67, 82
1, 245237, Control_c, 0, 64, 80
1, 245251, Control_c, 0, 64, 86
1, 245267, Control_c, 0, 64, 92
1, 245282, Control_c, 0, 64, 97
1, 245297, Control_c, 0, 64, 101
1, 245312, Control_c, 0, 64, 104
1, 245323, Note_on_c, 0, 87, 73
1, 245326, Control_c, 0, 64, 109
1, 245328, Note_off_c, 0, 84, 64
1, 245341, Control_c, 0, 64, 116
1, 245356, Control_c, 0, 64, 120
1, 245371, Control_c, 0, 64, 122
1, 245386, Control_c, 0, 64, 124
1, 245400, Control_c, 0, 64, 127
1, 245400, Control_c, 0, 67, 83
1, 245404, Note_off_c, 0, 58, 32
1, 245414, Note_off_c, 0, 53, 37
1, 245417, Note_off_c, 0, 56, 39
1, 245436, Note_off_c, 0, 62, 34
1, 245509, Note_off_c, 0, 87, 65
1, 245518, Note_on_c, 0, 86, 66
1, 245534, Control_c, 0, 67, 83
1, 245549, Control_c, 0, 67, 84
1, 245563, Control_c, 0, 67, 86
1, 245578, Control_c, 0, 67, 86
1, 245660, Control_c, 0, 67, 87
1, 245689, Control_c, 0, 64, 124
1, 245704, Control_c, 0, 64, 117
1, 245718, Control_c, 0, 64, 112
1, 245733, Control_c, 0, 64, 106
1, 245748, Control_c, 0, 64, 101
1, 245763, Control_c, 0, 64, 96
1, 245770, Note_on_c, 0, 96, 57
1, 245778, Control_c, 0, 64, 93
1, 245779, Note_on_c, 0, 62, 63
1, 245793, Control_c, 0, 64, 91
1, 245805, Note_on_c, 0, 53, 47
1, 245808, Control_c, 0, 64, 89
1, 245811, Note_on_c, 0, 56, 45
1, 245823, Control_c, 0, 64, 87
1, 245823, Control_c, 0, 67, 87
1, 245826, Note_on_c, 0, 58, 39
1, 245838, Control_c, 0, 64, 86
1, 245853, Control_c, 0, 64, 85
1, 245867, Control_c, 0, 64, 81
1, 245882, Control_c, 0, 64, 74
1, 245897, Control_c, 0, 64, 65
1, 245897, Control_c, 0, 67, 87
1, 245912, Control_c, 0, 64, 55
1, 245926, Control_c, 0, 64, 46
1, 245926, Control_c, 0, 67, 87
1, 245941, Control_c, 0, 64, 41
1, 245971, Control_c, 0, 64, 45
1, 245974, Note_on_c, 0, 93, 64
1, 245986, Control_c, 0, 64, 54
1, 245993, Note_off_c, 0, 96, 60
1, 245999, Note_off_c, 0, 86, 16
1, 246000, Control_c, 0, 64, 64
1, 246000, Control_c, 0, 67, 88
1, 246015, Control_c, 0, 64, 72
1, 246015, Control_c, 0, 67, 89
1, 246030, Control_c, 0, 64, 83
1, 246030, Control_c, 0, 67, 90
1, 246044, Control_c, 0, 64, 96
1, 246044, Control_c, 0, 67, 91
1, 246059, Control_c, 0, 64, 101
1, 246076, Control_c, 0, 64, 106
1, 246090, Control_c, 0, 64, 119
1, 246105, Control_c, 0, 64, 127
1, 246175, Note_off_c, 0, 93, 64
1, 246179, Control_c, 0, 67, 90
1, 246184, Note_on_c, 0, 96, 67
1, 246283, Control_c, 0, 67, 91
1, 246371, Note_on_c, 0, 94, 67
1, 246433, Note_off_c, 0, 96, 47
1, 246438, Control_c, 0, 67, 90
1, 246512, Control_c, 0, 67, 90
1, 246584, Note_on_c, 0, 87, 67
1, 246586, Control_c, 0, 67, 89
1, 246595, Note_off_c, 0, 94, 62
1, 246675, Control_c, 0, 67, 89
1, 246705, Control_c, 0, 67, 88
1, 246777, Note_off_c, 0, 62, 48
1, 246797, Note_on_c, 0, 84, 50
1, 246808, Note_off_c, 0, 87, 62
1, 246853, Control_c, 0, 67, 89
1, 246888, Note_off_c, 0, 56, 31
1, 246925, Note_off_c, 0, 58, 37
1, 247009, Note_on_c, 0, 87, 62
1, 247089, Note_off_c, 0, 84, 29
1, 247090, Control_c, 0, 67, 88
1, 247250, Note_off_c, 0, 87, 64
1, 247253, Note_on_c, 0, 86, 62
1, 247331, Note_off_c, 0, 53, 38
1, 247512, Control_c, 0, 64, 103
1, 247518, Note_on_c, 0, 63, 47
1, 247520, Note_on_c, 0, 89, 53
1, 247527, Control_c, 0, 64, 88
1, 247528, Note_off_c, 0, 86, 62
1, 247542, Note_on_c, 0, 51, 37
1, 247542, Control_c, 0, 64, 76
1, 247557, Control_c, 0, 64, 69
1, 247564, Note_on_c, 0, 58, 26
1, 247568, Note_on_c, 0, 55, 34
1, 247571, Control_c, 0, 64, 65
1, 247586, Control_c, 0, 64, 60
1, 247601, Control_c, 0, 64, 53
1, 247616, Control_c, 0, 64, 43
1, 247631, Control_c, 0, 64, 29
1, 247645, Control_c, 0, 64, 0
1, 247720, Control_c, 0, 67, 88
1, 247750, Control_c, 0, 64, 32
1, 247765, Control_c, 0, 64, 48
1, 247765, Control_c, 0, 67, 87
1, 247780, Control_c, 0, 64, 59
1, 247782, Note_on_c, 0, 86, 60
1, 247794, Control_c, 0, 64, 65
1, 247794, Control_c, 0, 67, 87
1, 247809, Control_c, 0, 64, 70
1, 247824, Control_c, 0, 64, 74
1, 247839, Control_c, 0, 64, 79
1, 247845, Note_off_c, 0, 89, 57
1, 247855, Control_c, 0, 64, 85
1, 247869, Control_c, 0, 64, 91
1, 247892, Control_c, 0, 64, 98
1, 247906, Control_c, 0, 64, 105
1, 247921, Control_c, 0, 64, 117
1, 247921, Control_c, 0, 67, 87
1, 247936, Control_c, 0, 64, 127
1, 247966, Control_c, 0, 67, 88
1, 247986, Note_off_c, 0, 63, 54
1, 248066, Note_on_c, 0, 89, 52
1, 248099, Note_off_c, 0, 55, 41
1, 248103, Note_off_c, 0, 86, 64
1, 248104, Note_off_c, 0, 58, 40
1, 248247, Control_c, 0, 67, 87
1, 248351, Control_c, 0, 67, 87
1, 248354, Note_off_c, 0, 51, 32
1, 248395, Control_c, 0, 67, 86
1, 248407, Note_on_c, 0, 87, 65
1, 248439, Control_c, 0, 67, 86
1, 248454, Control_c, 0, 67, 85
1, 248485, Control_c, 0, 67, 85
1, 248509, Note_off_c, 0, 89, 54
1, 248515, Control_c, 0, 67, 84
1, 248544, Control_c, 0, 67, 84
1, 248559, Control_c, 0, 67, 83
1, 248574, Control_c, 0, 67, 83
1, 248589, Control_c, 0, 67, 82
1, 248604, Control_c, 0, 67, 82
1, 248618, Control_c, 0, 67, 81
1, 248640, Control_c, 0, 67, 81
1, 248655, Control_c, 0, 67, 80
1, 248670, Control_c, 0, 67, 79
1, 248673, Note_off_c, 0, 87, 50
1, 248685, Control_c, 0, 67, 77
1, 248699, Control_c, 0, 67, 76
1, 248714, Control_c, 0, 67, 74
1, 248729, Control_c, 0, 67, 68
1, 248744, Control_c, 0, 67, 61
1, 248759, Control_c, 0, 67, 49
1, 248774, Control_c, 0, 67, 38
1, 248789, Control_c, 0, 67, 27
1, 248804, Control_c, 0, 67, 16
1, 248818, Control_c, 0, 67, 0
1, 249204, Note_on_c, 0, 89, 66
1, 249227, Note_on_c, 0, 49, 39
1, 249227, Note_on_c, 0, 79, 36
1, 249239, Note_on_c, 0, 58, 38
1, 249337, Control_c, 0, 64, 101
1, 249352, Control_c, 0, 64, 79
1, 249367, Control_c, 0, 64, 66
1, 249389, Control_c, 0, 64, 57
1, 249404, Control_c, 0, 64, 45
1, 249419, Control_c, 0, 64, 23
1, 249434, Control_c, 0, 64, 0
1, 250011, Control_c, 0, 64, 16
1, 250026, Control_c, 0, 64, 23
1, 250041, Control_c, 0, 64, 31
1, 250056, Control_c, 0, 64, 40
1, 250071, Control_c, 0, 64, 45
1, 250086, Control_c, 0, 64, 47
1, 250101, Control_c, 0, 64, 49
1, 250115, Control_c, 0, 64, 51
1, 250130, Control_c, 0, 64, 55
1, 250153, Control_c, 0, 64, 58
1, 250153, Control_c, 0, 67, 9
1, 250168, Control_c, 0, 64, 59
1, 250168, Control_c, 0, 67, 12
1, 250183, Control_c, 0, 64, 60
1, 250183, Control_c, 0, 67, 14
1, 250197, Control_c, 0, 64, 60
1, 250197, Control_c, 0, 67, 18
1, 250212, Control_c, 0, 64, 61
1, 250212, Control_c, 0, 67, 23
1, 250227, Control_c, 0, 64, 63
1, 250227, Control_c, 0, 67, 31
1, 250242, Control_c, 0, 64, 65
1, 250242, Control_c, 0, 67, 42
1, 250257, Control_c, 0, 64, 66
1, 250257, Control_c, 0, 67, 51
1, 250271, Control_c, 0, 64, 66
1, 250271, Control_c, 0, 67, 56
1, 250286, Control_c, 0, 64, 67
1, 250286, Control_c, 0, 67, 58
1, 250301, Control_c, 0, 64, 69
1, 250301, Control_c, 0, 67, 59
1, 250315, Control_c, 0, 64, 73
1, 250315, Control_c, 0, 67, 62
1, 250330, Control_c, 0, 64, 76
1, 250330, Control_c, 0, 67, 69
1, 250345, Control_c, 0, 64, 77
1, 250345, Control_c, 0, 67, 76
1, 250360, Control_c, 0, 64, 78
1, 250360, Control_c, 0, 67, 82
1, 250375, Control_c, 0, 64, 78
1, 250375, Control_c, 0, 67, 86
1, 250390, Control_c, 0, 64, 81
1, 250390, Control_c, 0, 67, 89
1, 250404, Control_c, 0, 64, 85
1, 250404, Control_c, 0, 67, 92
1, 250419, Control_c, 0, 64, 87
1, 250419, Control_c, 0, 67, 94
1, 250434, Control_c, 0, 67, 95
1, 250449, Control_c, 0, 67, 95
1, 250464, Control_c, 0, 64, 88
1, 250464, Control_c, 0, 67, 96
1, 250479, Control_c, 0, 64, 89
1, 250479, Control_c, 0, 67, 99
1, 250494, Control_c, 0, 64, 92
1, 250494, Control_c, 0, 67, 101
1, 250508, Control_c, 0, 64, 97
1, 250508, Control_c, 0, 67, 103
1, 250523, Control_c, 0, 64, 101
1, 250523, Control_c, 0, 67, 104
1, 250538, Control_c, 0, 64, 104
1, 250553, Control_c, 0, 64, 106
1, 250568, Control_c, 0, 64, 113
1, 250568, Control_c, 0, 67, 104
1, 250582, Control_c, 0, 64, 127
1, 250582, Control_c, 0, 67, 105
1, 250597, Control_c, 0, 67, 108
1, 250612, Control_c, 0, 67, 110
1, 250627, Control_c, 0, 67, 111
1, 250671, Control_c, 0, 67, 111
1, 250686, Control_c, 0, 67, 112
1, 250701, Control_c, 0, 67, 114
1, 250715, Control_c, 0, 67, 115
1, 250730, Control_c, 0, 67, 115
1, 250760, Control_c, 0, 67, 116
1, 250775, Control_c, 0, 67, 116
1, 250789, Control_c, 0, 67, 118
1, 250804, Control_c, 0, 67, 119
1, 250819, Control_c, 0, 67, 119
1, 250834, Control_c, 0, 67, 120
1, 250848, Control_c, 0, 67, 121
1, 250864, Control_c, 0, 67, 122
1, 250886, Control_c, 0, 67, 123
1, 250901, Control_c, 0, 67, 124
1, 250915, Note_off_c, 0, 49, 39
1, 250916, Control_c, 0, 67, 125
1, 250931, Control_c, 0, 67, 126
1, 250945, Control_c, 0, 67, 127
1, 250960, Control_c, 0, 67, 127
1, 251051, Note_off_c, 0, 58, 53
1, 251515, Note_on_c, 0, 87, 60
1, 251519, Note_on_c, 0, 80, 54
1, 251520, Note_on_c, 0, 60, 46
1, 251530, Note_on_c, 0, 48, 44
1, 251537, Control_c, 0, 64, 104
1, 251552, Control_c, 0, 64, 85
1, 251567, Control_c, 0, 64, 69
1, 251574, Note_off_c, 0, 79, 44
1, 251582, Control_c, 0, 64, 59
1, 251598, Control_c, 0, 64, 49
1, 251612, Control_c, 0, 64, 44
1, 251635, Control_c, 0, 64, 40
1, 251642, Note_off_c, 0, 89, 60
1, 251650, Control_c, 0, 64, 37
1, 251665, Control_c, 0, 64, 40
1, 251680, Control_c, 0, 64, 55
1, 251695, Control_c, 0, 64, 68
1, 251710, Control_c, 0, 64, 82
1, 251725, Control_c, 0, 64, 111
1, 251740, Control_c, 0, 64, 127
1, 251762, Note_off_c, 0, 87, 64
1, 251800, Note_off_c, 0, 80, 60
1, 251843, Note_off_c, 0, 48, 33
1, 251982, Note_off_c, 0, 60, 35
1, 252158, Note_on_c, 0, 75, 72
1, 252181, Note_on_c, 0, 68, 51
1, 252197, Note_on_c, 0, 60, 44
1, 252210, Note_on_c, 0, 48, 40
1, 252332, Control_c, 0, 67, 125
1, 252347, Control_c, 0, 67, 123
1, 252361, Control_c, 0, 67, 120
1, 252384, Control_c, 0, 64, 98
1, 252384, Control_c, 0, 67, 118
1, 252399, Control_c, 0, 64, 85
1, 252399, Control_c, 0, 67, 115
1, 252414, Control_c, 0, 64, 76
1, 252414, Control_c, 0, 67, 112
1, 252429, Control_c, 0, 64, 72
1, 252429, Control_c, 0, 67, 109
1, 252443, Control_c, 0, 64, 69
1, 252443, Control_c, 0, 67, 105
1, 252458, Control_c, 0, 64, 66
1, 252458, Control_c, 0, 67, 102
1, 252473, Control_c, 0, 64, 64
1, 252473, Control_c, 0, 67, 98
1, 252488, Control_c, 0, 64, 62
1, 252488, Control_c, 0, 67, 93
1, 252503, Control_c, 0, 64, 60
1, 252503, Control_c, 0, 67, 89
1, 252518, Control_c, 0, 64, 59
1, 252518, Control_c, 0, 67, 84
1, 252533, Control_c, 0, 64, 57
1, 252533, Control_c, 0, 67, 80
1, 252548, Control_c, 0, 64, 57
1, 252548, Control_c, 0, 67, 76
1, 252563, Control_c, 0, 64, 56
1, 252563, Control_c, 0, 67, 72
1, 252578, Control_c, 0, 64, 55
1, 252578, Control_c, 0, 67, 68
1, 252592, Control_c, 0, 64, 54
1, 252592, Control_c, 0, 67, 65
1, 252607, Control_c, 0, 64, 52
1, 252607, Control_c, 0, 67, 60
1, 252622, Control_c, 0, 64, 50
1, 252622, Control_c, 0, 67, 54
1, 252637, Control_c, 0, 64, 48
1, 252637, Control_c, 0, 67, 46
1, 252652, Control_c, 0, 64, 45
1, 252652, Control_c, 0, 67, 39
1, 252666, Control_c, 0, 64, 42
1, 252666, Control_c, 0, 67, 32
1, 252681, Control_c, 0, 64, 38
1, 252681, Control_c, 0, 67, 26
1, 252696, Control_c, 0, 64, 34
1, 252696, Control_c, 0, 67, 22
1, 252710, Control_c, 0, 64, 31
1, 252710, Control_c, 0, 67, 19
1, 252725, Control_c, 0, 67, 15
1, 252740, Control_c, 0, 67, 11
1, 252755, Control_c, 0, 64, 32
1, 252755, Control_c, 0, 67, 0
1, 252770, Control_c, 0, 64, 34
1, 252784, Control_c, 0, 64, 36
1, 252799, Control_c, 0, 64, 40
1, 252814, Control_c, 0, 64, 43
1, 252829, Control_c, 0, 64, 45
1, 252844, Control_c, 0, 64, 47
1, 252858, Control_c, 0, 64, 49
1, 252873, Control_c, 0, 64, 52
1, 252888, Control_c, 0, 64, 55
1, 252902, Control_c, 0, 64, 58
1, 252917, Control_c, 0, 64, 59
1, 252932, Control_c, 0, 64, 60
1, 252947, Control_c, 0, 64, 61
1, 252962, Control_c, 0, 64, 62
1, 252977, Control_c, 0, 64, 63
1, 252992, Control_c, 0, 64, 64
1, 253007, Control_c, 0, 64, 65
1, 253022, Control_c, 0, 64, 66
1, 253037, Control_c, 0, 64, 67
1, 253052, Control_c, 0, 64, 69
1, 253066, Control_c, 0, 64, 70
1, 253081, Control_c, 0, 64, 71
1, 253096, Control_c, 0, 64, 72
1, 253110, Control_c, 0, 64, 73
1, 253132, Control_c, 0, 64, 76
1, 253147, Control_c, 0, 64, 78
1, 253162, Control_c, 0, 64, 79
1, 253177, Control_c, 0, 64, 80
1, 253192, Control_c, 0, 64, 81
1, 253207, Control_c, 0, 64, 84
1, 253221, Control_c, 0, 64, 89
1, 253236, Control_c, 0, 64, 99
1, 253251, Control_c, 0, 64, 119
1, 253267, Control_c, 0, 64, 127
1, 253667, Control_c, 0, 67, 8
1, 253681, Control_c, 0, 67, 9
1, 253696, Control_c, 0, 67, 11
1, 253711, Control_c, 0, 67, 13
1, 253725, Control_c, 0, 67, 16
1, 253740, Control_c, 0, 67, 19
1, 253755, Control_c, 0, 67, 22
1, 253770, Control_c, 0, 67, 27
1, 253785, Control_c, 0, 67, 32
1, 253800, Control_c, 0, 67, 38
1, 253815, Control_c, 0, 67, 45
1, 253830, Control_c, 0, 67, 51
1, 253844, Control_c, 0, 67, 58
1, 253859, Control_c, 0, 67, 64
1, 253874, Control_c, 0, 67, 71
1, 253896, Control_c, 0, 67, 77
1, 253911, Control_c, 0, 67, 83
1, 253926, Control_c, 0, 67, 92
1, 253940, Control_c, 0, 67, 100
1, 253955, Control_c, 0, 67, 106
1, 253970, Control_c, 0, 67, 110
1, 253985, Control_c, 0, 67, 112
1, 254000, Control_c, 0, 67, 114
1, 254014, Control_c, 0, 67, 117
1, 254029, Control_c, 0, 67, 120
1, 254044, Control_c, 0, 67, 123
1, 254060, Control_c, 0, 67, 125
1, 254075, Control_c, 0, 67, 127
1, 254090, Control_c, 0, 67, 127
1, 254230, Note_off_c, 0, 48, 35
1, 254360, Note_off_c, 0, 60, 18
1, 254564, Note_on_c, 0, 73, 55
1, 254575, Note_on_c, 0, 70, 42
1, 254578, Control_c, 0, 64, 118
1, 254593, Control_c, 0, 64, 99
1, 254607, Control_c, 0, 64, 88
1, 254615, Note_on_c, 0, 52, 33
1, 254618, Note_on_c, 0, 55, 33
1, 254622, Control_c, 0, 64, 78
1, 254638, Note_off_c, 0, 75, 58
1, 254638, Note_off_c, 0, 68, 31
1, 254643, Control_c, 0, 64, 67
1, 254658, Control_c, 0, 64, 56
1, 254673, Control_c, 0, 64, 41
1, 254688, Control_c, 0, 64, 30
1, 254703, Control_c, 0, 64, 29
1, 254718, Control_c, 0, 64, 33
1, 254733, Control_c, 0, 64, 44
1, 254748, Control_c, 0, 64, 57
1, 254762, Control_c, 0, 64, 66
1, 254777, Control_c, 0, 64, 76
1, 254792, Control_c, 0, 64, 88
1, 254807, Control_c, 0, 64, 96
1, 254822, Control_c, 0, 64, 101
1, 254824, Note_off_c, 0, 52, 51
1, 254834, Note_off_c, 0, 55, 51
1, 254836, Control_c, 0, 64, 109
1, 254839, Note_off_c, 0, 73, 57
1, 254852, Control_c, 0, 64, 127
1, 254861, Note_off_c, 0, 70, 59
1, 255190, Note_on_c, 0, 73, 62
1, 255192, Note_on_c, 0, 55, 38
1, 255198, Note_on_c, 0, 70, 50
1, 255215, Note_on_c, 0, 52, 48
1, 255311, Control_c, 0, 64, 97
1, 255326, Control_c, 0, 64, 81
1, 255341, Control_c, 0, 64, 70
1, 255356, Control_c, 0, 64, 63
1, 255378, Control_c, 0, 64, 58
1, 255393, Control_c, 0, 64, 53
1, 255408, Control_c, 0, 64, 47
1, 255423, Control_c, 0, 64, 36
1, 255438, Control_c, 0, 64, 9
1, 255452, Control_c, 0, 64, 0
1, 256469, Control_c, 0, 64, 21
1, 256484, Control_c, 0, 64, 27
1, 256499, Control_c, 0, 64, 29
1, 256528, Control_c, 0, 64, 31
1, 256543, Control_c, 0, 64, 34
1, 256557, Control_c, 0, 64, 36
1, 256572, Control_c, 0, 64, 38
1, 256602, Control_c, 0, 64, 38
1, 256617, Control_c, 0, 64, 41
1, 256632, Control_c, 0, 64, 44
1, 256646, Control_c, 0, 64, 48
1, 256661, Control_c, 0, 64, 49
1, 256676, Control_c, 0, 64, 50
1, 256691, Control_c, 0, 64, 52
1, 256706, Control_c, 0, 64, 55
1, 256721, Control_c, 0, 64, 58
1, 256736, Control_c, 0, 64, 60
1, 256750, Control_c, 0, 64, 61
1, 256765, Control_c, 0, 64, 63
1, 256780, Control_c, 0, 64, 64
1, 256795, Control_c, 0, 64, 67
1, 256810, Control_c, 0, 64, 70
1, 256824, Control_c, 0, 64, 74
1, 256839, Control_c, 0, 64, 79
1, 256854, Control_c, 0, 64, 84
1, 256876, Control_c, 0, 64, 88
1, 256891, Control_c, 0, 64, 92
1, 256906, Control_c, 0, 64, 97
1, 256921, Control_c, 0, 64, 103
1, 256936, Control_c, 0, 64, 110
1, 256950, Control_c, 0, 64, 122
1, 256965, Control_c, 0, 64, 127
1, 257110, Note_off_c, 0, 55, 39
1, 257418, Note_off_c, 0, 52, 42
1, 257503, Note_off_c, 0, 70, 42
1, 257758, Control_c, 0, 64, 108
1, 257772, Control_c, 0, 64, 99
1, 257787, Control_c, 0, 64, 91
1, 257791, Note_on_c, 0, 72, 52
1, 257800, Note_on_c, 0, 68, 41
1, 257802, Control_c, 0, 64, 85
1, 257814, Note_on_c, 0, 53, 34
1, 257817, Control_c, 0, 64, 79
1, 257821, Note_on_c, 0, 56, 32
1, 257831, Note_off_c, 0, 73, 53
1, 257832, Control_c, 0, 64, 74
1, 257847, Control_c, 0, 64, 69
1, 257861, Control_c, 0, 64, 63
1, 257876, Control_c, 0, 64, 56
1, 257891, Control_c, 0, 64, 44
1, 257905, Control_c, 0, 64, 29
1, 257920, Control_c, 0, 64, 23
1, 257935, Control_c, 0, 64, 23
1, 257950, Control_c, 0, 64, 33
1, 257965, Control_c, 0, 64, 51
1, 257979, Control_c, 0, 64, 65
1, 257994, Control_c, 0, 64, 75
1, 258009, Control_c, 0, 64, 84
1, 258024, Control_c, 0, 64, 89
1, 258039, Control_c, 0, 64, 93
1, 258055, Control_c, 0, 64, 98
1, 258066, Note_off_c, 0, 68, 44
1, 258069, Control_c, 0, 64, 107
1, 258072, Note_off_c, 0, 72, 35
1, 258075, Note_off_c, 0, 53, 46
1, 258079, Note_off_c, 0, 56, 40
1, 258084, Control_c, 0, 64, 127
1, 258299, Note_on_c, 0, 72, 58
1, 258316, Note_on_c, 0, 68, 44
1, 258323, Note_on_c, 0, 56, 44
1, 258331, Note_on_c, 0, 53, 46
1, 258388, Control_c, 0, 64, 95
1, 258402, Control_c, 0, 64, 79
1, 258417, Control_c, 0, 64, 67
1, 258432, Control_c, 0, 64, 61
1, 258447, Control_c, 0, 64, 55
1, 258462, Control_c, 0, 64, 51
1, 258477, Control_c, 0, 64, 46
1, 258492, Control_c, 0, 64, 36
1, 258507, Control_c, 0, 64, 15
1, 258521, Control_c, 0, 64, 0
1, 258551, Control_c, 0, 67, 127
1, 258566, Control_c, 0, 67, 126
1, 258581, Control_c, 0, 67, 125
1, 258596, Control_c, 0, 67, 124
1, 258610, Control_c, 0, 67, 123
1, 258625, Control_c, 0, 67, 122
1, 258640, Control_c, 0, 67, 122
1, 258654, Control_c, 0, 67, 121
1, 258669, Control_c, 0, 67, 121
1, 258802, Control_c, 0, 67, 121
1, 258848, Control_c, 0, 67, 122
1, 258863, Control_c, 0, 67, 122
1, 258878, Control_c, 0, 67, 123
1, 258907, Control_c, 0, 67, 123
1, 258922, Control_c, 0, 67, 124
1, 258937, Control_c, 0, 67, 124
1, 258966, Control_c, 0, 67, 125
1, 259011, Control_c, 0, 67, 124
1, 259070, Control_c, 0, 67, 124
1, 259100, Control_c, 0, 64, 15
1, 259100, Control_c, 0, 67, 123
1, 259123, Control_c, 0, 64, 25
1, 259138, Control_c, 0, 64, 30
1, 259138, Control_c, 0, 67, 123
1, 259152, Control_c, 0, 64, 33
1, 259152, Control_c, 0, 67, 122
1, 259167, Control_c, 0, 64, 35
1, 259167, Control_c, 0, 67, 122
1, 259182, Control_c, 0, 64, 39
1, 259182, Control_c, 0, 67, 121
1, 259197, Control_c, 0, 64, 43
1, 259197, Control_c, 0, 67, 120
1, 259212, Control_c, 0, 64, 47
1, 259226, Control_c, 0, 64, 49
1, 259226, Control_c, 0, 67, 120
1, 259241, Control_c, 0, 64, 50
1, 259241, Control_c, 0, 67, 119
1, 259256, Control_c, 0, 64, 51
1, 259256, Control_c, 0, 67, 119
1, 259270, Control_c, 0, 64, 52
1, 259270, Control_c, 0, 67, 118
1, 259285, Control_c, 0, 64, 53
1, 259285, Control_c, 0, 67, 117
1, 259300, Control_c, 0, 64, 54
1, 259315, Control_c, 0, 64, 55
1, 259330, Control_c, 0, 64, 56
1, 259330, Control_c, 0, 67, 118
1, 259344, Control_c, 0, 64, 57
1, 259374, Control_c, 0, 64, 58
1, 259404, Control_c, 0, 64, 59
1, 259404, Control_c, 0, 67, 118
1, 259419, Control_c, 0, 64, 59
1, 259434, Control_c, 0, 64, 60
1, 259449, Control_c, 0, 64, 60
1, 259463, Control_c, 0, 67, 119
1, 259478, Control_c, 0, 64, 61
1, 259493, Control_c, 0, 64, 62
1, 259493, Control_c, 0, 67, 119
1, 259508, Control_c, 0, 64, 63
1, 259538, Control_c, 0, 64, 63
1, 259538, Control_c, 0, 67, 120
1, 259552, Control_c, 0, 64, 64
1, 259567, Control_c, 0, 64, 65
1, 259567, Control_c, 0, 67, 120
1, 259582, Control_c, 0, 64, 66
1, 259582, Control_c, 0, 67, 121
1, 259597, Control_c, 0, 64, 67
1, 259597, Control_c, 0, 67, 121
1, 259612, Control_c, 0, 64, 68
1, 259612, Control_c, 0, 67, 122
1, 259626, Control_c, 0, 64, 69
1, 259642, Control_c, 0, 64, 70
1, 259642, Control_c, 0, 67, 122
1, 259657, Control_c, 0, 64, 71
1, 259672, Control_c, 0, 64, 72
1, 259687, Control_c, 0, 64, 73
1, 259687, Control_c, 0, 67, 123
1, 259701, Control_c, 0, 64, 73
1, 259701, Control_c, 0, 67, 123
1, 259716, Control_c, 0, 64, 74
1, 259731, Control_c, 0, 64, 75
1, 259731, Control_c, 0, 67, 124
1, 259746, Control_c, 0, 64, 77
1, 259761, Control_c, 0, 64, 78
1, 259761, Control_c, 0, 67, 124
1, 259775, Control_c, 0, 64, 79
1, 259790, Control_c, 0, 64, 81
1, 259805, Control_c, 0, 64, 81
1, 259805, Control_c, 0, 67, 125
1, 259820, Control_c, 0, 64, 83
1, 259820, Control_c, 0, 67, 125
1, 259835, Control_c, 0, 64, 84
1, 259849, Control_c, 0, 64, 85
1, 259849, Control_c, 0, 67, 126
1, 259872, Control_c, 0, 64, 86
1, 259887, Control_c, 0, 64, 86
1, 259887, Control_c, 0, 67, 126
1, 259901, Control_c, 0, 64, 87
1, 259901, Control_c, 0, 67, 127
1, 259916, Control_c, 0, 64, 89
1, 259931, Control_c, 0, 64, 89
1, 259931, Control_c, 0, 67, 127
1, 259961, Control_c, 0, 64, 90
1, 259975, Control_c, 0, 64, 91
1, 259990, Control_c, 0, 64, 93
1, 260005, Control_c, 0, 64, 94
1, 260020, Control_c, 0, 64, 96
1, 260035, Control_c, 0, 64, 97
1, 260049, Control_c, 0, 64, 99
1, 260064, Control_c, 0, 64, 105
1, 260079, Control_c, 0, 64, 116
1, 260093, Control_c, 0, 64, 127
1, 260607, Note_off_c, 0, 56, 35
1, 260918, Note_off_c, 0, 53, 22
1, 261064, Note_on_c, 0, 75, 48
1, 261076, Note_on_c, 0, 67, 30
1, 261081, Note_on_c, 0, 58, 33
1, 261109, Note_on_c, 0, 51, 34
1, 261109, Note_off_c, 0, 72, 43
1, 261109, Control_c, 0, 64, 101
1, 261124, Control_c, 0, 64, 84
1, 261139, Control_c, 0, 64, 72
1, 261150, Note_off_c, 0, 68, 40
1, 261154, Control_c, 0, 64, 61
1, 261169, Control_c, 0, 64, 47
1, 261183, Control_c, 0, 64, 27
1, 261198, Control_c, 0, 64, 0
1, 261273, Control_c, 0, 64, 25
1, 261288, Control_c, 0, 64, 47
1, 261303, Control_c, 0, 64, 61
1, 261318, Control_c, 0, 64, 70
1, 261332, Control_c, 0, 64, 74
1, 261346, Control_c, 0, 64, 78
1, 261361, Control_c, 0, 64, 82
1, 261383, Control_c, 0, 64, 87
1, 261398, Control_c, 0, 64, 95
1, 261413, Control_c, 0, 64, 103
1, 261428, Control_c, 0, 64, 112
1, 261432, Note_off_c, 0, 58, 40
1, 261435, Note_off_c, 0, 67, 40
1, 261435, Note_off_c, 0, 75, 32
1, 261443, Note_off_c, 0, 51, 37
1, 261443, Control_c, 0, 64, 122
1, 261458, Control_c, 0, 64, 127
1, 261649, Note_on_c, 0, 75, 54
1, 261661, Note_on_c, 0, 67, 40
1, 261673, Note_on_c, 0, 58, 37
1, 261686, Note_on_c, 0, 51, 37
1, 261842, Control_c, 0, 67, 127
1, 261857, Control_c, 0, 67, 125
1, 261872, Control_c, 0, 67, 124
1, 261887, Control_c, 0, 67, 122
1, 261902, Control_c, 0, 67, 121
1, 261917, Control_c, 0, 67, 120
1, 261932, Control_c, 0, 67, 119
1, 261946, Control_c, 0, 67, 118
1, 261961, Control_c, 0, 67, 117
1, 261976, Control_c, 0, 67, 116
1, 261991, Control_c, 0, 67, 115
1, 262006, Control_c, 0, 67, 114
1, 262020, Control_c, 0, 67, 112
1, 262036, Control_c, 0, 67, 110
1, 262051, Control_c, 0, 67, 108
1, 262066, Control_c, 0, 67, 106
1, 262081, Control_c, 0, 67, 104
1, 262096, Control_c, 0, 67, 102
1, 262110, Control_c, 0, 67, 99
1, 262133, Control_c, 0, 67, 95
1, 262148, Control_c, 0, 67, 92
1, 262163, Control_c, 0, 67, 87
1, 262177, Control_c, 0, 67, 81
1, 262192, Control_c, 0, 67, 75
1, 262207, Control_c, 0, 67, 67
1, 262222, Control_c, 0, 67, 59
1, 262237, Control_c, 0, 67, 51
1, 262251, Control_c, 0, 67, 43
1, 262266, Control_c, 0, 67, 34
1, 262281, Control_c, 0, 67, 27
1, 262295, Control_c, 0, 67, 19
1, 262310, Control_c, 0, 67, 12
1, 262325, Control_c, 0, 67, 0
1, 262749, Note_off_c, 0, 67, 41
1, 262845, Control_c, 0, 67, 8
1, 262855, Note_off_c, 0, 58, 36
1, 262867, Control_c, 0, 67, 11
1, 262882, Control_c, 0, 67, 13
1, 262897, Control_c, 0, 67, 15
1, 262912, Control_c, 0, 67, 19
1, 262926, Control_c, 0, 67, 24
1, 262941, Control_c, 0, 67, 31
1, 262956, Control_c, 0, 67, 40
1, 262971, Control_c, 0, 67, 50
1, 262984, Note_off_c, 0, 51, 41
1, 262986, Control_c, 0, 67, 62
1, 263000, Control_c, 0, 67, 74
1, 263015, Control_c, 0, 67, 84
1, 263030, Control_c, 0, 67, 95
1, 263038, Note_off_c, 0, 75, 63
1, 263045, Control_c, 0, 67, 102
1, 263060, Control_c, 0, 67, 106
1, 263074, Control_c, 0, 67, 108
1, 263089, Control_c, 0, 67, 110
1, 263104, Control_c, 0, 67, 111
1, 263118, Control_c, 0, 67, 112
1, 263148, Control_c, 0, 67, 113
1, 263178, Control_c, 0, 67, 113
1, 263207, Control_c, 0, 67, 115
1, 263222, Control_c, 0, 67, 117
1, 263237, Control_c, 0, 67, 117
1, 263252, Control_c, 0, 67, 118
1, 263282, Control_c, 0, 67, 118
1, 263297, Control_c, 0, 67, 120
1, 263298, Note_on_c, 0, 68, 40
1, 263305, Note_on_c, 0, 60, 36
1, 263312, Control_c, 0, 67, 121
1, 263323, Note_on_c, 0, 56, 36
1, 263326, Control_c, 0, 67, 122
1, 263341, Control_c, 0, 67, 123
1, 263356, Control_c, 0, 64, 92
1, 263356, Control_c, 0, 67, 124
1, 263371, Control_c, 0, 64, 71
1, 263371, Control_c, 0, 67, 125
1, 263385, Control_c, 0, 64, 56
1, 263385, Control_c, 0, 67, 126
1, 263400, Control_c, 0, 64, 34
1, 263400, Control_c, 0, 67, 127
1, 263415, Control_c, 0, 64, 17
1, 263415, Control_c, 0, 67, 127
1, 263430, Note_on_c, 0, 75, 32
1, 263430, Control_c, 0, 64, 18
1, 263444, Control_c, 0, 64, 33
1, 263459, Control_c, 0, 64, 51
1, 263473, Note_off_c, 0, 75, 53
1, 263474, Control_c, 0, 64, 64
1, 263489, Control_c, 0, 64, 71
1, 263504, Control_c, 0, 64, 77
1, 263518, Note_on_c, 0, 72, 46
1, 263518, Control_c, 0, 64, 82
1, 263533, Control_c, 0, 64, 84
1, 263535, Note_off_c, 0, 68, 37
1, 263548, Control_c, 0, 64, 87
1, 263563, Control_c, 0, 64, 92
1, 263578, Control_c, 0, 64, 99
1, 263583, Note_off_c, 0, 72, 60
1, 263592, Control_c, 0, 64, 105
1, 263597, Note_on_c, 0, 75, 51
1, 263615, Control_c, 0, 64, 111
1, 263630, Control_c, 0, 64, 116
1, 263646, Control_c, 0, 64, 122
1, 263661, Control_c, 0, 64, 127
1, 263664, Note_off_c, 0, 75, 62
1, 263695, Note_on_c, 0, 80, 53
1, 263702, Note_off_c, 0, 60, 40
1, 263751, Note_off_c, 0, 80, 39
1, 263779, Note_off_c, 0, 56, 40
1, 263794, Note_on_c, 0, 75, 50
1, 263836, Note_off_c, 0, 75, 60
1, 263890, Note_on_c, 0, 72, 40
1, 263946, Note_off_c, 0, 72, 57
1, 263959, Note_on_c, 0, 75, 52
1, 264026, Note_off_c, 0, 75, 51
1, 264030, Note_on_c, 0, 68, 51
1, 264072, Note_off_c, 0, 68, 63
1, 264127, Note_on_c, 0, 63, 50
1, 264181, Note_off_c, 0, 63, 59
1, 264227, Note_on_c, 0, 60, 39
1, 264287, Note_off_c, 0, 60, 40
1, 264296, Note_on_c, 0, 63, 50
1, 264369, Note_off_c, 0, 63, 53
1, 264388, Note_on_c, 0, 56, 43
1, 264442, Note_off_c, 0, 56, 53
1, 264453, Control_c, 0, 64, 124
1, 264468, Control_c, 0, 64, 119
1, 264483, Note_on_c, 0, 51, 40
1, 264483, Control_c, 0, 64, 116
1, 264498, Control_c, 0, 64, 114
1, 264513, Control_c, 0, 64, 112
1, 264514, Note_off_c, 0, 51, 60
1, 264528, Control_c, 0, 64, 111
1, 264543, Control_c, 0, 64, 111
1, 264555, Note_on_c, 0, 48, 38
1, 264614, Note_off_c, 0, 48, 56
1, 264624, Note_on_c, 0, 51, 42
1, 264744, Note_on_c, 0, 44, 51
1, 264744, Note_off_c, 0, 51, 0
1, 264773, Poly_aftertouch_c, 0, 51, 0
1, 264779, Control_c, 0, 64, 110
1, 264794, Control_c, 0, 64, 104
1, 264809, Control_c, 0, 64, 93
1, 264813, Note_on_c, 0, 39, 56
1, 264824, Control_c, 0, 64, 81
1, 264838, Control_c, 0, 64, 71
1, 264853, Control_c, 0, 64, 67
1, 264865, Note_off_c, 0, 39, 62
1, 264874, Note_off_c, 0, 44, 46
1, 264883, Control_c, 0, 64, 69
1, 264898, Control_c, 0, 64, 72
1, 264908, Note_on_c, 0, 36, 48
1, 264913, Control_c, 0, 64, 77
1, 264927, Control_c, 0, 64, 83
1, 264942, Control_c, 0, 64, 86
1, 264957, Control_c, 0, 64, 87
1, 264963, Note_off_c, 0, 36, 61
1, 264980, Note_on_c, 0, 39, 65
1, 265002, Control_c, 0, 64, 82
1, 265017, Control_c, 0, 64, 74
1, 265032, Control_c, 0, 64, 65
1, 265042, Note_off_c, 0, 39, 56
1, 265046, Control_c, 0, 64, 53
1, 265061, Control_c, 0, 64, 44
1, 265066, Note_on_c, 0, 32, 49
1, 265076, Control_c, 0, 64, 40
1, 265090, Control_c, 0, 64, 38
1, 265127, Control_c, 0, 64, 45
1, 265138, Note_off_c, 0, 32, 61
1, 265142, Control_c, 0, 64, 58
1, 265155, Note_on_c, 0, 36, 49
1, 265157, Control_c, 0, 64, 66
1, 265172, Control_c, 0, 64, 70
1, 265187, Control_c, 0, 64, 75
1, 265202, Control_c, 0, 64, 78
1, 265217, Control_c, 0, 64, 80
1, 265231, Note_off_c, 0, 36, 60
1, 265231, Control_c, 0, 64, 82
1, 265246, Note_on_c, 0, 39, 55
1, 265247, Control_c, 0, 64, 84
1, 265261, Control_c, 0, 64, 85
1, 265276, Control_c, 0, 64, 86
1, 265293, Note_off_c, 0, 39, 59
1, 265306, Control_c, 0, 64, 86
1, 265311, Note_on_c, 0, 44, 64
1, 265321, Control_c, 0, 64, 85
1, 265336, Control_c, 0, 64, 81
1, 265351, Control_c, 0, 64, 71
1, 265361, Note_off_c, 0, 44, 58
1, 265366, Control_c, 0, 64, 62
1, 265381, Control_c, 0, 64, 50
1, 265395, Control_c, 0, 64, 37
1, 265410, Control_c, 0, 64, 24
1, 265425, Control_c, 0, 64, 0
1, 265444, Note_on_c, 0, 46, 68
1, 265447, Note_on_c, 0, 43, 36
1, 265459, Note_on_c, 0, 39, 37
1, 265479, Note_on_c, 0, 34, 43
1, 265484, Control_c, 0, 64, 16
1, 265491, Note_off_c, 0, 43, 49
1, 265499, Control_c, 0, 64, 46
1, 265513, Control_c, 0, 64, 62
1, 265528, Control_c, 0, 64, 68
1, 265542, Note_off_c, 0, 34, 57
1, 265543, Control_c, 0, 64, 71
1, 265551, Note_on_c, 0, 51, 44
1, 265558, Control_c, 0, 64, 72
1, 265562, Note_off_c, 0, 46, 63
1, 265573, Control_c, 0, 64, 74
1, 265583, Note_off_c, 0, 39, 53
1, 265587, Control_c, 0, 64, 77
1, 265602, Control_c, 0, 64, 80
1, 265611, Note_off_c, 0, 51, 58
1, 265617, Control_c, 0, 64, 82
1, 265632, Note_on_c, 0, 49, 55
1, 265632, Control_c, 0, 64, 84
1, 265647, Control_c, 0, 64, 85
1, 265661, Control_c, 0, 64, 87
1, 265676, Control_c, 0, 64, 90
1, 265691, Control_c, 0, 64, 92
1, 265705, Control_c, 0, 64, 94
1, 265711, Note_off_c, 0, 49, 61
1, 265720, Control_c, 0, 64, 95
1, 265725, Note_on_c, 0, 51, 60
1, 265750, Control_c, 0, 64, 95
1, 265765, Control_c, 0, 64, 89
1, 265780, Control_c, 0, 64, 77
1, 265791, Note_off_c, 0, 51, 60
1, 265795, Control_c, 0, 64, 64
1, 265804, Note_on_c, 0, 55, 58
1, 265810, Control_c, 0, 64, 50
1, 265825, Control_c, 0, 64, 28
1, 265839, Control_c, 0, 64, 0
1, 265875, Note_off_c, 0, 55, 61
1, 265896, Note_on_c, 0, 51, 52
1, 265920, Control_c, 0, 64, 36
1, 265935, Control_c, 0, 64, 55
1, 265944, Note_off_c, 0, 51, 63
1, 265950, Control_c, 0, 64, 66
1, 265964, Note_on_c, 0, 49, 60
1, 265965, Control_c, 0, 64, 69
1, 265980, Control_c, 0, 64, 71
1, 265995, Control_c, 0, 64, 74
1, 266007, Note_off_c, 0, 49, 61
1, 266010, Control_c, 0, 64, 78
1, 266024, Control_c, 0, 64, 83
1, 266040, Control_c, 0, 64, 88
1, 266045, Note_on_c, 0, 51, 61
1, 266055, Control_c, 0, 64, 92
1, 266070, Control_c, 0, 64, 94
1, 266078, Note_off_c, 0, 51, 67
1, 266084, Control_c, 0, 64, 94
1, 266114, Control_c, 0, 64, 94
1, 266129, Control_c, 0, 64, 87
1, 266142, Note_on_c, 0, 55, 54
1, 266144, Control_c, 0, 64, 75
1, 266147, Note_on_c, 0, 46, 78
1, 266159, Control_c, 0, 64, 61
1, 266173, Control_c, 0, 64, 44
1, 266180, Note_off_c, 0, 55, 50
1, 266182, Note_on_c, 0, 39, 53
1, 266188, Note_on_c, 0, 34, 53
1, 266188, Control_c, 0, 64, 20
1, 266203, Control_c, 0, 64, 0
1, 266248, Control_c, 0, 64, 27
1, 266248, Note_on_c, 0, 63, 56
1, 266263, Control_c, 0, 64, 51
1, 266278, Control_c, 0, 64, 65
1, 266292, Control_c, 0, 64, 72
1, 266307, Control_c, 0, 64, 76
1, 266310, Note_off_c, 0, 63, 59
1, 266322, Control_c, 0, 64, 79
1, 266325, Note_on_c, 0, 61, 60
1, 266326, Note_off_c, 0, 46, 61
1, 266336, Control_c, 0, 64, 81
1, 266351, Control_c, 0, 64, 84
1, 266366, Note_off_c, 0, 34, 35
1, 266366, Control_c, 0, 64, 88
1, 266368, Note_off_c, 0, 39, 53
1, 266381, Control_c, 0, 64, 92
1, 266396, Note_off_c, 0, 61, 60
1, 266396, Control_c, 0, 64, 95
1, 266410, Control_c, 0, 64, 99
1, 266414, Note_on_c, 0, 63, 70
1, 266425, Control_c, 0, 64, 104
1, 266440, Control_c, 0, 64, 109
1, 266455, Control_c, 0, 64, 118
1, 266470, Control_c, 0, 64, 127
1, 266474, Note_off_c, 0, 63, 62
1, 266494, Note_on_c, 0, 67, 66
1, 266514, Control_c, 0, 64, 120
1, 266528, Control_c, 0, 64, 94
1, 266543, Control_c, 0, 64, 74
1, 266558, Control_c, 0, 64, 62
1, 266561, Note_off_c, 0, 67, 64
1, 266573, Control_c, 0, 64, 49
1, 266574, Note_on_c, 0, 63, 62
1, 266588, Control_c, 0, 64, 42
1, 266609, Control_c, 0, 64, 42
1, 266624, Control_c, 0, 64, 48
1, 266627, Note_off_c, 0, 63, 56
1, 266639, Control_c, 0, 64, 59
1, 266654, Control_c, 0, 64, 69
1, 266659, Note_on_c, 0, 61, 61
1, 266668, Control_c, 0, 64, 77
1, 266683, Control_c, 0, 64, 85
1, 266698, Control_c, 0, 64, 89
1, 266699, Note_off_c, 0, 61, 63
1, 266713, Control_c, 0, 64, 90
1, 266728, Control_c, 0, 64, 90
1, 266734, Note_on_c, 0, 63, 69
1, 266758, Control_c, 0, 64, 90
1, 266763, Note_off_c, 0, 63, 67
1, 266773, Control_c, 0, 64, 83
1, 266788, Control_c, 0, 64, 70
1, 266802, Control_c, 0, 64, 58
1, 266814, Note_on_c, 0, 46, 77
1, 266817, Control_c, 0, 64, 40
1, 266820, Note_on_c, 0, 67, 68
1, 266832, Control_c, 0, 64, 17
1, 266844, Note_on_c, 0, 34, 50
1, 266847, Control_c, 0, 64, 0
1, 266849, Note_on_c, 0, 39, 52
1, 266877, Note_off_c, 0, 67, 55
1, 266907, Control_c, 0, 64, 39
1, 266910, Note_on_c, 0, 75, 65
1, 266922, Control_c, 0, 64, 59
1, 266937, Control_c, 0, 64, 70
1, 266951, Control_c, 0, 64, 76
1, 266966, Control_c, 0, 64, 79
1, 266981, Control_c, 0, 64, 81
1, 266987, Note_off_c, 0, 75, 63
1, 266990, Note_on_c, 0, 73, 65
1, 266996, Control_c, 0, 64, 84
1, 267011, Control_c, 0, 64, 87
1, 267017, Note_off_c, 0, 39, 47
1, 267026, Control_c, 0, 64, 93
1, 267033, Note_off_c, 0, 46, 60
1, 267035, Note_off_c, 0, 34, 29
1, 267040, Control_c, 0, 64, 99
1, 267055, Control_c, 0, 64, 107
1, 267057, Note_off_c, 0, 73, 63
1, 267070, Control_c, 0, 64, 115
1, 267072, Note_on_c, 0, 75, 73
1, 267084, Control_c, 0, 64, 127
1, 267133, Note_off_c, 0, 75, 65
1, 267148, Note_on_c, 0, 79, 71
1, 267158, Control_c, 0, 64, 124
1, 267173, Control_c, 0, 64, 94
1, 267188, Control_c, 0, 64, 82
1, 267203, Control_c, 0, 64, 75
1, 267214, Note_off_c, 0, 79, 65
1, 267218, Control_c, 0, 64, 75
1, 267224, Note_on_c, 0, 75, 66
1, 267232, Control_c, 0, 64, 78
1, 267247, Control_c, 0, 64, 85
1, 267262, Control_c, 0, 64, 92
1, 267274, Note_off_c, 0, 75, 63
1, 267276, Control_c, 0, 64, 98
1, 267291, Control_c, 0, 64, 99
1, 267294, Note_on_c, 0, 73, 66
1, 267321, Control_c, 0, 64, 99
1, 267348, Note_off_c, 0, 73, 58
1, 267388, Control_c, 0, 64, 98
1, 267393, Note_on_c, 0, 75, 69
1, 267403, Control_c, 0, 64, 90
1, 267417, Note_off_c, 0, 75, 69
1, 267418, Control_c, 0, 64, 77
1, 267432, Control_c, 0, 64, 65
1, 267447, Control_c, 0, 64, 51
1, 267462, Control_c, 0, 64, 24
1, 267477, Control_c, 0, 64, 0
1, 267478, Note_on_c, 0, 48, 63
1, 267490, Note_on_c, 0, 39, 58
1, 267494, Note_on_c, 0, 80, 65
1, 267499, Note_on_c, 0, 36, 47
1, 267551, Control_c, 0, 64, 12
1, 267566, Control_c, 0, 64, 49
1, 267580, Control_c, 0, 64, 64
1, 267587, Note_on_c, 0, 87, 61
1, 267595, Control_c, 0, 64, 71
1, 267610, Control_c, 0, 64, 74
1, 267612, Note_off_c, 0, 80, 54
1, 267625, Control_c, 0, 64, 77
1, 267641, Control_c, 0, 64, 79
1, 267652, Note_off_c, 0, 36, 62
1, 267655, Note_off_c, 0, 87, 61
1, 267656, Control_c, 0, 64, 83
1, 267670, Control_c, 0, 64, 88
1, 267673, Note_on_c, 0, 84, 62
1, 267684, Note_off_c, 0, 48, 60
1, 267685, Control_c, 0, 64, 93
1, 267693, Note_off_c, 0, 39, 62
1, 267700, Control_c, 0, 64, 97
1, 267715, Control_c, 0, 64, 101
1, 267729, Control_c, 0, 64, 104
1, 267741, Note_off_c, 0, 84, 63
1, 267744, Control_c, 0, 64, 108
1, 267756, Note_on_c, 0, 87, 69
1, 267759, Control_c, 0, 64, 112
1, 267774, Control_c, 0, 64, 115
1, 267789, Control_c, 0, 64, 118
1, 267804, Note_off_c, 0, 87, 62
1, 267804, Control_c, 0, 64, 120
1, 267819, Control_c, 0, 64, 124
1, 267828, Note_on_c, 0, 92, 70
1, 267849, Control_c, 0, 64, 127
1, 267910, Note_on_c, 0, 87, 71
1, 267911, Note_off_c, 0, 92, 64
1, 267977, Note_off_c, 0, 87, 63
1, 267996, Note_on_c, 0, 84, 65
1, 268064, Note_off_c, 0, 84, 64
1, 268085, Note_on_c, 0, 87, 65
1, 268135, Note_off_c, 0, 87, 61
1, 268154, Note_on_c, 0, 80, 66
1, 268194, Note_off_c, 0, 80, 59
1, 268224, Note_on_c, 0, 75, 57
1, 268266, Note_off_c, 0, 75, 61
1, 268323, Note_on_c, 0, 72, 49
1, 268385, Note_on_c, 0, 75, 51
1, 268446, Note_off_c, 0, 75, 55
1, 268472, Note_on_c, 0, 68, 54
1, 268480, Note_off_c, 0, 72, 32
1, 268516, Note_off_c, 0, 68, 61
1, 268559, Note_on_c, 0, 63, 58
1, 268612, Note_off_c, 0, 63, 63
1, 268645, Note_on_c, 0, 60, 49
1, 268705, Note_off_c, 0, 60, 59
1, 268728, Note_on_c, 0, 63, 62
1, 268782, Note_off_c, 0, 63, 54
1, 268795, Note_on_c, 0, 56, 63
1, 268865, Note_off_c, 0, 56, 53
1, 268870, Control_c, 0, 64, 124
1, 268871, Note_on_c, 0, 51, 53
1, 268931, Note_off_c, 0, 51, 63
1, 268959, Control_c, 0, 64, 127
1, 268967, Note_on_c, 0, 48, 56
1, 269033, Control_c, 0, 64, 111
1, 269035, Note_off_c, 0, 48, 60
1, 269040, Note_on_c, 0, 51, 67
1, 269048, Control_c, 0, 64, 83
1, 269062, Control_c, 0, 64, 66
1, 269077, Control_c, 0, 64, 56
1, 269092, Control_c, 0, 64, 54
1, 269107, Control_c, 0, 64, 56
1, 269115, Note_off_c, 0, 51, 61
1, 269122, Control_c, 0, 64, 61
1, 269124, Note_on_c, 0, 44, 64
1, 269136, Control_c, 0, 64, 67
1, 269151, Control_c, 0, 64, 75
1, 269166, Control_c, 0, 64, 85
1, 269178, Note_off_c, 0, 44, 61
1, 269181, Control_c, 0, 64, 90
1, 269211, Note_on_c, 0, 51, 56
1, 269256, Control_c, 0, 64, 90
1, 269267, Note_off_c, 0, 51, 63
1, 269289, Note_on_c, 0, 48, 61
1, 269343, Note_off_c, 0, 48, 60
1, 269372, Note_on_c, 0, 51, 65
1, 269390, Control_c, 0, 64, 86
1, 269405, Control_c, 0, 64, 80
1, 269420, Control_c, 0, 64, 73
1, 269434, Control_c, 0, 64, 65
1, 269437, Note_off_c, 0, 51, 62
1, 269449, Control_c, 0, 64, 57
1, 269464, Control_c, 0, 64, 46
1, 269475, Note_on_c, 0, 43, 77
1, 269478, Control_c, 0, 64, 35
1, 269488, Note_on_c, 0, 46, 55
1, 269493, Control_c, 0, 64, 17
1, 269508, Control_c, 0, 64, 0
1, 269512, Note_on_c, 0, 39, 49
1, 269524, Note_on_c, 0, 31, 46
1, 269583, Control_c, 0, 64, 28
1, 269594, Note_on_c, 0, 51, 52
1, 269598, Control_c, 0, 64, 51
1, 269614, Note_off_c, 0, 46, 36
1, 269620, Control_c, 0, 64, 63
1, 269634, Control_c, 0, 64, 68
1, 269641, Note_off_c, 0, 31, 58
1, 269649, Control_c, 0, 64, 70
1, 269664, Note_off_c, 0, 43, 63
1, 269664, Control_c, 0, 64, 72
1, 269670, Note_off_c, 0, 51, 61
1, 269676, Note_on_c, 0, 49, 64
1, 269677, Note_off_c, 0, 39, 57
1, 269679, Control_c, 0, 64, 75
1, 269694, Control_c, 0, 64, 78
1, 269709, Control_c, 0, 64, 82
1, 269724, Control_c, 0, 64, 86
1, 269739, Control_c, 0, 64, 89
1, 269743, Note_off_c, 0, 49, 62
1, 269754, Control_c, 0, 64, 92
1, 269768, Note_on_c, 0, 51, 67
1, 269768, Control_c, 0, 64, 95
1, 269798, Control_c, 0, 64, 92
1, 269813, Control_c, 0, 64, 81
1, 269818, Note_off_c, 0, 51, 64
1, 269827, Control_c, 0, 64, 69
1, 269831, Note_on_c, 0, 58, 68
1, 269842, Control_c, 0, 64, 60
1, 269857, Control_c, 0, 64, 57
1, 269872, Control_c, 0, 64, 61
1, 269886, Control_c, 0, 64, 67
1, 269901, Control_c, 0, 64, 74
1, 269909, Note_off_c, 0, 58, 64
1, 269915, Note_on_c, 0, 51, 67
1, 269916, Control_c, 0, 64, 82
1, 269931, Control_c, 0, 64, 87
1, 269946, Control_c, 0, 64, 88
1, 269960, Control_c, 0, 64, 88
1, 269975, Control_c, 0, 64, 89
1, 269977, Note_off_c, 0, 51, 63
1, 269990, Control_c, 0, 64, 90
1, 269992, Note_on_c, 0, 49, 67
1, 270005, Control_c, 0, 64, 92
1, 270020, Control_c, 0, 64, 96
1, 270036, Control_c, 0, 64, 100
1, 270050, Control_c, 0, 64, 102
1, 270053, Note_off_c, 0, 49, 53
1, 270064, Note_on_c, 0, 51, 68
1, 270065, Control_c, 0, 64, 102
1, 270080, Control_c, 0, 64, 103
1, 270092, Note_off_c, 0, 51, 66
1, 270124, Control_c, 0, 64, 101
1, 270139, Control_c, 0, 64, 90
1, 270154, Control_c, 0, 64, 75
1, 270169, Control_c, 0, 64, 60
1, 270171, Note_on_c, 0, 58, 67
1, 270172, Note_on_c, 0, 55, 83
1, 270177, Note_on_c, 0, 51, 58
1, 270183, Control_c, 0, 64, 41
1, 270198, Control_c, 0, 64, 0
1, 270204, Note_on_c, 0, 43, 55
1, 270262, Note_on_c, 0, 63, 69
1, 270266, Note_off_c, 0, 58, 58
1, 270287, Control_c, 0, 64, 32
1, 270302, Control_c, 0, 64, 56
1, 270317, Control_c, 0, 64, 67
1, 270332, Control_c, 0, 64, 72
1, 270335, Note_off_c, 0, 63, 63
1, 270344, Note_on_c, 0, 61, 71
1, 270347, Control_c, 0, 64, 74
1, 270359, Note_off_c, 0, 55, 62
1, 270363, Note_off_c, 0, 43, 58
1, 270369, Control_c, 0, 64, 77
1, 270383, Control_c, 0, 64, 80
1, 270391, Note_off_c, 0, 51, 61
1, 270398, Control_c, 0, 64, 85
1, 270413, Control_c, 0, 64, 90
1, 270415, Note_off_c, 0, 61, 63
1, 270428, Control_c, 0, 64, 95
1, 270430, Note_on_c, 0, 63, 79
1, 270443, Control_c, 0, 64, 98
1, 270457, Control_c, 0, 64, 100
1, 270472, Control_c, 0, 64, 101
1, 270487, Control_c, 0, 64, 101
1, 270499, Note_off_c, 0, 63, 63
1, 270511, Note_on_c, 0, 70, 77
1, 270517, Control_c, 0, 64, 102
1, 270532, Control_c, 0, 64, 103
1, 270546, Control_c, 0, 64, 104
1, 270561, Control_c, 0, 64, 105
1, 270588, Note_on_c, 0, 63, 78
1, 270599, Note_off_c, 0, 70, 62
1, 270606, Control_c, 0, 64, 105
1, 270621, Control_c, 0, 64, 106
1, 270652, Note_off_c, 0, 63, 63
1, 270665, Control_c, 0, 64, 106
1, 270666, Note_on_c, 0, 61, 76
1, 270727, Note_off_c, 0, 61, 62
1, 270754, Note_on_c, 0, 63, 71
1, 270777, Note_off_c, 0, 63, 68
1, 270783, Control_c, 0, 64, 105
1, 270798, Control_c, 0, 64, 96
1, 270813, Control_c, 0, 64, 83
1, 270829, Control_c, 0, 64, 68
1, 270840, Note_on_c, 0, 55, 85
1, 270844, Control_c, 0, 64, 52
1, 270856, Note_on_c, 0, 51, 65
1, 270859, Note_on_c, 0, 70, 71
1, 270859, Control_c, 0, 64, 17
1, 270866, Note_on_c, 0, 43, 61
1, 270873, Control_c, 0, 64, 0
1, 270932, Control_c, 0, 64, 33
1, 270934, Note_on_c, 0, 75, 72
1, 270941, Note_off_c, 0, 70, 60
1, 270947, Control_c, 0, 64, 56
1, 270962, Control_c, 0, 64, 68
1, 270977, Control_c, 0, 64, 75
1, 270992, Control_c, 0, 64, 79
1, 271006, Control_c, 0, 64, 83
1, 271014, Note_on_c, 0, 73, 77
1, 271014, Note_off_c, 0, 75, 64
1, 271021, Control_c, 0, 64, 87
1, 271036, Control_c, 0, 64, 93
1, 271051, Control_c, 0, 64, 100
1, 271066, Control_c, 0, 64, 109
1, 271076, Note_off_c, 0, 55, 60
1, 271080, Control_c, 0, 64, 127
1, 271086, Note_off_c, 0, 73, 64
1, 271088, Note_off_c, 0, 43, 59
1, 271094, Note_on_c, 0, 75, 81
1, 271139, Note_off_c, 0, 51, 61
1, 271177, Note_off_c, 0, 75, 65
1, 271189, Note_on_c, 0, 82, 82
1, 271206, Control_c, 0, 67, 126
1, 271221, Control_c, 0, 67, 123
1, 271236, Control_c, 0, 67, 120
1, 271250, Control_c, 0, 67, 117
1, 271265, Control_c, 0, 67, 113
1, 271269, Note_on_c, 0, 75, 74
1, 271280, Control_c, 0, 67, 110
1, 271295, Note_off_c, 0, 82, 63
1, 271295, Control_c, 0, 67, 106
1, 271310, Control_c, 0, 67, 102
1, 271324, Control_c, 0, 67, 97
1, 271332, Note_on_c, 0, 73, 73
1, 271333, Note_off_c, 0, 75, 65
1, 271339, Control_c, 0, 67, 93
1, 271354, Control_c, 0, 67, 89
1, 271369, Control_c, 0, 67, 86
1, 271384, Control_c, 0, 67, 83
1, 271399, Control_c, 0, 67, 81
1, 271410, Note_off_c, 0, 73, 63
1, 271414, Control_c, 0, 67, 80
1, 271429, Note_on_c, 0, 75, 75
1, 271458, Control_c, 0, 67, 81
1, 271473, Control_c, 0, 64, 86
1, 271473, Control_c, 0, 67, 81
1, 271488, Control_c, 0, 64, 69
1, 271495, Note_off_c, 0, 75, 63
1, 271503, Control_c, 0, 64, 55
1, 271518, Control_c, 0, 64, 33
1, 271518, Control_c, 0, 67, 82
1, 271521, Note_on_c, 0, 72, 70
1, 271532, Control_c, 0, 64, 0
1, 271532, Control_c, 0, 67, 82
1, 271533, Note_on_c, 0, 56, 83
1, 271554, Note_on_c, 0, 51, 60
1, 271566, Note_on_c, 0, 44, 56
1, 271592, Control_c, 0, 67, 83
1, 271621, Control_c, 0, 64, 27
1, 271632, Note_off_c, 0, 72, 42
1, 271634, Note_on_c, 0, 75, 73
1, 271637, Control_c, 0, 64, 55
1, 271652, Control_c, 0, 64, 68
1, 271667, Control_c, 0, 64, 76
1, 271682, Control_c, 0, 64, 86
1, 271696, Control_c, 0, 64, 96
1, 271704, Note_off_c, 0, 75, 65
1, 271711, Control_c, 0, 64, 116
1, 271711, Control_c, 0, 67, 82
1, 271726, Control_c, 0, 64, 127
1, 271730, Note_on_c, 0, 72, 79
1, 271741, Control_c, 0, 67, 82
1, 271755, Control_c, 0, 67, 81
1, 271761, Note_off_c, 0, 44, 61
1, 271763, Note_off_c, 0, 56, 61
1, 271770, Control_c, 0, 67, 81
1, 271785, Control_c, 0, 67, 80
1, 271797, Note_off_c, 0, 51, 62
1, 271800, Control_c, 0, 67, 80
1, 271811, Note_on_c, 0, 75, 86
1, 271815, Control_c, 0, 67, 79
1, 271818, Note_off_c, 0, 72, 58
1, 271828, Control_c, 0, 67, 75
1, 271851, Control_c, 0, 67, 71
1, 271866, Control_c, 0, 67, 65
1, 271880, Control_c, 0, 67, 58
1, 271884, Note_off_c, 0, 75, 64
1, 271886, Note_on_c, 0, 84, 79
1, 271895, Control_c, 0, 67, 50
1, 271910, Control_c, 0, 67, 42
1, 271925, Control_c, 0, 67, 32
1, 271940, Control_c, 0, 67, 19
1, 271954, Control_c, 0, 67, 9
1, 271969, Control_c, 0, 67, 0
1, 271979, Note_on_c, 0, 75, 82
1, 272038, Note_off_c, 0, 75, 63
1, 272055, Note_on_c, 0, 72, 74
1, 272108, Note_off_c, 0, 84, 60
1, 272145, Note_on_c, 0, 75, 75
1, 272147, Note_off_c, 0, 72, 62
1, 272211, Note_off_c, 0, 75, 61
1, 272280, Control_c, 0, 64, 79
1, 272290, Note_on_c, 0, 73, 71
1, 272290, Note_on_c, 0, 65, 84
1, 272295, Control_c, 0, 64, 60
1, 272310, Control_c, 0, 64, 34
1, 272325, Note_on_c, 0, 53, 56
1, 272325, Control_c, 0, 64, 0
1, 272331, Note_on_c, 0, 56, 52
1, 272384, Control_c, 0, 64, 12
1, 272399, Control_c, 0, 64, 48
1, 272410, Note_off_c, 0, 73, 57
1, 272414, Control_c, 0, 64, 67
1, 272415, Note_on_c, 0, 80, 69
1, 272430, Control_c, 0, 64, 82
1, 272445, Control_c, 0, 64, 102
1, 272459, Control_c, 0, 64, 127
1, 272486, Note_off_c, 0, 80, 61
1, 272503, Note_on_c, 0, 73, 70
1, 272546, Note_off_c, 0, 65, 61
1, 272585, Note_off_c, 0, 73, 60
1, 272585, Note_on_c, 0, 80, 74
1, 272603, Note_off_c, 0, 53, 57
1, 272627, Note_off_c, 0, 56, 60
1, 272677, Note_off_c, 0, 80, 63
1, 272681, Note_on_c, 0, 85, 81
1, 272758, Note_on_c, 0, 80, 74
1, 272792, Note_off_c, 0, 85, 59
1, 272833, Note_off_c, 0, 80, 63
1, 272836, Note_on_c, 0, 77, 77
1, 272912, Note_off_c, 0, 77, 65
1, 272924, Note_on_c, 0, 80, 78
1, 272976, Note_off_c, 0, 80, 63
1, 272992, Note_on_c, 0, 60, 86
1, 273000, Control_c, 0, 64, 82
1, 273001, Note_on_c, 0, 75, 80
1, 273012, Note_on_c, 0, 56, 66
1, 273015, Control_c, 0, 64, 62
1, 273021, Note_on_c, 0, 48, 59
1, 273030, Control_c, 0, 64, 41
1, 273044, Control_c, 0, 64, 21
1, 273059, Control_c, 0, 64, 23
1, 273074, Control_c, 0, 64, 41
1, 273085, Note_on_c, 0, 87, 75
1, 273089, Control_c, 0, 64, 62
1, 273103, Control_c, 0, 64, 77
1, 273118, Control_c, 0, 64, 105
1, 273133, Control_c, 0, 64, 127
1, 273169, Note_off_c, 0, 87, 65
1, 273170, Note_on_c, 0, 80, 75
1, 273245, Note_off_c, 0, 60, 61
1, 273253, Note_off_c, 0, 75, 62
1, 273260, Note_off_c, 0, 48, 60
1, 273263, Note_on_c, 0, 87, 85
1, 273270, Note_off_c, 0, 80, 62
1, 273294, Note_off_c, 0, 56, 33
1, 273327, Control_c, 0, 64, 108
1, 273332, Note_on_c, 0, 60, 91
1, 273339, Note_off_c, 0, 87, 65
1, 273342, Control_c, 0, 64, 74
1, 273358, Note_on_c, 0, 76, 82
1, 273359, Note_on_c, 0, 48, 60
1, 273361, Note_on_c, 0, 56, 52
1, 273364, Control_c, 0, 64, 62
1, 273379, Control_c, 0, 64, 60
1, 273394, Control_c, 0, 64, 67
1, 273408, Control_c, 0, 64, 80
1, 273423, Control_c, 0, 64, 122
1, 273438, Note_on_c, 0, 88, 80
1, 273438, Control_c, 0, 64, 127
1, 273449, Note_off_c, 0, 48, 62
1, 273529, Note_on_c, 0, 80, 72
1, 273532, Note_off_c, 0, 88, 66
1, 273578, Note_off_c, 0, 76, 46
1, 273607, Note_off_c, 0, 60, 55
1, 273612, Note_off_c, 0, 80, 61
1, 273629, Note_on_c, 0, 88, 73
1, 273667, Note_off_c, 0, 56, 24
1, 273742, Note_on_c, 0, 61, 87
1, 273742, Note_off_c, 0, 88, 63
1, 273759, Note_on_c, 0, 77, 78
1, 273762, Note_on_c, 0, 49, 61
1, 273766, Note_on_c, 0, 56, 73
1, 273779, Control_c, 0, 64, 79
1, 273793, Control_c, 0, 64, 57
1, 273808, Control_c, 0, 64, 27
1, 273823, Control_c, 0, 64, 0
1, 273847, Note_off_c, 0, 77, 62
1, 273855, Note_on_c, 0, 89, 79
1, 273882, Control_c, 0, 64, 15
1, 273897, Control_c, 0, 64, 51
1, 273912, Control_c, 0, 64, 68
1, 273927, Control_c, 0, 64, 82
1, 273934, Note_on_c, 0, 77, 82
1, 273942, Control_c, 0, 64, 102
1, 273957, Control_c, 0, 64, 127
1, 274022, Note_on_c, 0, 80, 83
1, 274025, Note_off_c, 0, 77, 63
1, 274031, Note_off_c, 0, 61, 61
1, 274067, Note_off_c, 0, 89, 66
1, 274099, Note_off_c, 0, 80, 63
1, 274122, Note_off_c, 0, 56, 60
1, 274134, Note_on_c, 0, 89, 87
1, 274216, Note_on_c, 0, 85, 77
1, 274294, Note_off_c, 0, 85, 63
1, 274296, Note_on_c, 0, 80, 79
1, 274384, Note_on_c, 0, 85, 79
1, 274392, Note_off_c, 0, 80, 61
1, 274452, Note_off_c, 0, 49, 59
1, 274454, Note_off_c, 0, 85, 64
1, 274458, Note_on_c, 0, 58, 89
1, 274466, Note_on_c, 0, 79, 82
1, 274483, Control_c, 0, 64, 92
1, 274484, Note_on_c, 0, 51, 63
1, 274489, Note_on_c, 0, 46, 61
1, 274498, Control_c, 0, 64, 67
1, 274499, Note_off_c, 0, 89, 28
1, 274513, Control_c, 0, 64, 48
1, 274528, Control_c, 0, 64, 0
1, 274557, Note_on_c, 0, 87, 81
1, 274617, Control_c, 0, 64, 44
1, 274631, Control_c, 0, 64, 64
1, 274641, Note_off_c, 0, 87, 65
1, 274642, Note_on_c, 0, 85, 80
1, 274646, Control_c, 0, 64, 75
1, 274661, Control_c, 0, 64, 86
1, 274675, Control_c, 0, 64, 99
1, 274690, Control_c, 0, 64, 127
1, 274723, Note_on_c, 0, 87, 88
1, 274740, Note_off_c, 0, 85, 64
1, 274815, Note_on_c, 0, 91, 91
1, 274815, Note_off_c, 0, 87, 65
1, 274823, Note_off_c, 0, 46, 33
1, 274912, Note_on_c, 0, 87, 88
1, 274917, Note_off_c, 0, 51, 26
1, 275004, Note_off_c, 0, 58, 64
1, 275012, Note_on_c, 0, 85, 81
1, 275015, Note_off_c, 0, 87, 66
1, 275094, Note_on_c, 0, 87, 88
1, 275119, Note_off_c, 0, 85, 63
1, 275123, Note_off_c, 0, 79, 63
1, 275152, Note_off_c, 0, 91, 52
1, 275185, Note_on_c, 0, 60, 83
1, 275188, Control_c, 0, 64, 82
1, 275202, Note_off_c, 0, 87, 60
1, 275203, Control_c, 0, 64, 63
1, 275209, Note_on_c, 0, 48, 61
1, 275209, Note_on_c, 0, 79, 87
1, 275212, Note_on_c, 0, 51, 53
1, 275218, Control_c, 0, 64, 37
1, 275232, Control_c, 0, 64, 0
1, 275320, Note_on_c, 0, 91, 87
1, 275321, Control_c, 0, 64, 36
1, 275336, Control_c, 0, 64, 60
1, 275351, Control_c, 0, 64, 70
1, 275366, Control_c, 0, 64, 77
1, 275380, Control_c, 0, 64, 86
1, 275395, Control_c, 0, 64, 96
1, 275410, Control_c, 0, 64, 109
1, 275425, Control_c, 0, 64, 127
1, 275430, Note_on_c, 0, 84, 81
1, 275436, Note_on_c, 0, 87, 83
1, 275468, Note_off_c, 0, 91, 64
1, 275501, Note_off_c, 0, 51, 54
1, 275506, Note_off_c, 0, 48, 57
1, 275525, Note_off_c, 0, 60, 41
1, 275557, Note_on_c, 0, 91, 84
1, 275563, Note_off_c, 0, 79, 62
1, 275584, Note_off_c, 0, 87, 62
1, 275642, Note_off_c, 0, 91, 67
1, 275645, Note_on_c, 0, 48, 66
1, 275654, Note_on_c, 0, 51, 65
1, 275686, Note_on_c, 0, 80, 86
1, 275697, Note_on_c, 0, 60, 72
1, 275700, Control_c, 0, 64, 108
1, 275715, Control_c, 0, 64, 78
1, 275729, Control_c, 0, 64, 61
1, 275744, Control_c, 0, 64, 41
1, 275759, Control_c, 0, 64, 0
1, 275826, Note_on_c, 0, 92, 86
1, 275907, Control_c, 0, 64, 35
1, 275921, Control_c, 0, 64, 54
1, 275925, Note_off_c, 0, 84, 18
1, 275936, Control_c, 0, 64, 65
1, 275951, Control_c, 0, 64, 74
1, 275966, Control_c, 0, 64, 85
1, 275978, Note_on_c, 0, 84, 61
1, 275981, Control_c, 0, 64, 104
1, 275984, Note_on_c, 0, 87, 84
1, 275996, Control_c, 0, 64, 127
1, 276022, Note_off_c, 0, 60, 58
1, 276028, Note_off_c, 0, 48, 61
1, 276033, Note_off_c, 0, 92, 60
1, 276094, Note_off_c, 0, 51, 52
1, 276193, Note_on_c, 0, 92, 89
1, 276273, Note_off_c, 0, 80, 61
1, 276274, Note_off_c, 0, 87, 48
1, 276295, Note_off_c, 0, 84, 64
1, 276302, Note_off_c, 0, 92, 66
1, 276523, Control_c, 0, 67, 9
1, 276538, Control_c, 0, 67, 14
1, 276552, Control_c, 0, 67, 19
1, 276567, Control_c, 0, 67, 25
1, 276582, Control_c, 0, 67, 34
1, 276597, Control_c, 0, 67, 45
1, 276612, Control_c, 0, 67, 56
1, 276626, Control_c, 0, 67, 65
1, 276641, Control_c, 0, 67, 67
1, 276656, Control_c, 0, 67, 68
1, 276670, Control_c, 0, 67, 67
1, 276715, Control_c, 0, 64, 105
1, 276730, Control_c, 0, 64, 85
1, 276730, Control_c, 0, 67, 67
1, 276744, Control_c, 0, 64, 69
1, 276744, Control_c, 0, 67, 66
1, 276759, Control_c, 0, 64, 58
1, 276774, Control_c, 0, 64, 43
1, 276774, Control_c, 0, 67, 66
1, 276789, Control_c, 0, 64, 19
1, 276804, Control_c, 0, 64, 0
1, 276818, Control_c, 0, 67, 65
1, 276833, Control_c, 0, 67, 65
1, 276878, Control_c, 0, 67, 65
1, 276908, Control_c, 0, 67, 65
1, 276937, Control_c, 0, 67, 64
1, 276982, Control_c, 0, 67, 64
1, 276985, Note_on_c, 0, 77, 73
1, 276997, Control_c, 0, 67, 63
1, 277011, Note_on_c, 0, 56, 39
1, 277020, Note_on_c, 0, 49, 40
1, 277056, Control_c, 0, 67, 62
1, 277070, Control_c, 0, 67, 61
1, 277085, Control_c, 0, 67, 61
1, 277152, Control_c, 0, 67, 62
1, 277167, Control_c, 0, 67, 63
1, 277182, Control_c, 0, 67, 65
1, 277197, Control_c, 0, 67, 66
1, 277212, Control_c, 0, 67, 67
1, 277227, Control_c, 0, 67, 68
1, 277242, Control_c, 0, 67, 69
1, 277256, Control_c, 0, 67, 70
1, 277271, Control_c, 0, 67, 71
1, 277286, Control_c, 0, 67, 75
1, 277301, Control_c, 0, 67, 79
1, 277316, Control_c, 0, 67, 82
1, 277331, Control_c, 0, 67, 88
1, 277346, Control_c, 0, 67, 94
1, 277361, Control_c, 0, 67, 100
1, 277375, Control_c, 0, 67, 104
1, 277390, Control_c, 0, 67, 105
1, 277405, Control_c, 0, 67, 108
1, 277420, Control_c, 0, 67, 111
1, 277435, Control_c, 0, 67, 113
1, 277449, Control_c, 0, 67, 115
1, 277464, Control_c, 0, 67, 116
1, 277479, Control_c, 0, 67, 118
1, 277493, Control_c, 0, 67, 119
1, 277508, Control_c, 0, 67, 121
1, 277523, Control_c, 0, 67, 121
1, 277538, Control_c, 0, 67, 122
1, 277553, Control_c, 0, 67, 123
1, 277567, Control_c, 0, 67, 124
1, 277582, Control_c, 0, 67, 125
1, 277597, Control_c, 0, 67, 126
1, 277612, Control_c, 0, 67, 126
1, 277615, Note_on_c, 0, 57, 56
1, 277627, Control_c, 0, 67, 127
1, 277641, Control_c, 0, 67, 127
1, 277718, Note_off_c, 0, 56, 45
1, 277775, Control_c, 0, 64, 18
1, 277790, Control_c, 0, 64, 42
1, 277805, Control_c, 0, 64, 56
1, 277820, Control_c, 0, 64, 60
1, 277856, Control_c, 0, 64, 60
1, 277886, Control_c, 0, 64, 61
1, 277930, Control_c, 0, 64, 61
1, 277975, Control_c, 0, 64, 61
1, 278083, Note_on_c, 0, 58, 63
1, 278094, Control_c, 0, 64, 60
1, 278109, Control_c, 0, 64, 59
1, 278124, Control_c, 0, 64, 59
1, 278139, Control_c, 0, 64, 58
1, 278154, Control_c, 0, 64, 55
1, 278169, Control_c, 0, 64, 49
1, 278171, Note_off_c, 0, 57, 58
1, 278184, Control_c, 0, 64, 39
1, 278198, Control_c, 0, 64, 25
1, 278213, Control_c, 0, 64, 0
1, 278272, Control_c, 0, 64, 21
1, 278287, Control_c, 0, 64, 41
1, 278291, Note_on_c, 0, 70, 65
1, 278302, Control_c, 0, 64, 56
1, 278316, Control_c, 0, 64, 64
1, 278331, Control_c, 0, 64, 66
1, 278346, Control_c, 0, 64, 67
1, 278361, Control_c, 0, 64, 68
1, 278376, Control_c, 0, 64, 70
1, 278390, Control_c, 0, 64, 72
1, 278405, Control_c, 0, 64, 74
1, 278420, Control_c, 0, 64, 76
1, 278464, Control_c, 0, 64, 75
1, 278479, Control_c, 0, 64, 71
1, 278494, Control_c, 0, 64, 64
1, 278502, Note_off_c, 0, 77, 50
1, 278508, Note_off_c, 0, 58, 65
1, 278508, Control_c, 0, 64, 54
1, 278511, Note_on_c, 0, 60, 55
1, 278511, Note_on_c, 0, 72, 70
1, 278523, Control_c, 0, 64, 42
1, 278538, Control_c, 0, 64, 37
1, 278553, Control_c, 0, 64, 43
1, 278562, Note_off_c, 0, 49, 39
1, 278567, Control_c, 0, 64, 55
1, 278589, Control_c, 0, 64, 64
1, 278604, Note_off_c, 0, 70, 58
1, 278604, Control_c, 0, 64, 68
1, 278619, Control_c, 0, 64, 71
1, 278648, Control_c, 0, 64, 70
1, 278663, Control_c, 0, 64, 65
1, 278678, Control_c, 0, 64, 58
1, 278693, Control_c, 0, 64, 48
1, 278701, Note_off_c, 0, 60, 62
1, 278708, Note_on_c, 0, 61, 62
1, 278708, Note_on_c, 0, 73, 65
1, 278708, Control_c, 0, 64, 39
1, 278722, Control_c, 0, 64, 38
1, 278737, Control_c, 0, 64, 46
1, 278741, Note_off_c, 0, 72, 60
1, 278752, Control_c, 0, 64, 56
1, 278767, Control_c, 0, 64, 62
1, 278782, Control_c, 0, 64, 63
1, 278811, Control_c, 0, 64, 63
1, 278827, Control_c, 0, 64, 62
1, 278842, Control_c, 0, 64, 60
1, 278857, Control_c, 0, 64, 59
1, 278872, Control_c, 0, 64, 57
1, 278887, Control_c, 0, 64, 55
1, 278901, Control_c, 0, 64, 51
1, 278916, Control_c, 0, 64, 45
1, 278931, Control_c, 0, 64, 38
1, 278945, Control_c, 0, 64, 31
1, 278960, Control_c, 0, 64, 26
1, 278975, Control_c, 0, 64, 22
1, 278986, Note_on_c, 0, 67, 56
1, 278990, Control_c, 0, 64, 16
1, 279005, Control_c, 0, 64, 0
1, 279016, Note_on_c, 0, 58, 47
1, 279017, Note_on_c, 0, 51, 31
1, 279027, Note_off_c, 0, 73, 56
1, 279035, Note_on_c, 0, 55, 38
1, 279120, Note_off_c, 0, 61, 57
1, 279271, Control_c, 0, 64, 33
1, 279286, Control_c, 0, 64, 53
1, 279301, Control_c, 0, 64, 62
1, 279316, Control_c, 0, 64, 65
1, 279352, Control_c, 0, 64, 65
1, 279367, Control_c, 0, 64, 66
1, 279382, Control_c, 0, 64, 66
1, 279427, Control_c, 0, 64, 66
1, 279441, Control_c, 0, 64, 65
1, 279456, Control_c, 0, 64, 62
1, 279471, Control_c, 0, 64, 56
1, 279486, Note_on_c, 0, 75, 63
1, 279486, Control_c, 0, 64, 46
1, 279501, Control_c, 0, 64, 28
1, 279516, Control_c, 0, 64, 0
1, 279585, Note_off_c, 0, 67, 36
1, 279590, Control_c, 0, 64, 35
1, 279605, Control_c, 0, 64, 56
1, 279620, Control_c, 0, 64, 68
1, 279635, Control_c, 0, 64, 73
1, 279650, Control_c, 0, 64, 76
1, 279665, Control_c, 0, 64, 80
1, 279680, Control_c, 0, 64, 85
1, 279694, Control_c, 0, 64, 92
1, 279709, Control_c, 0, 64, 100
1, 279724, Control_c, 0, 64, 112
1, 279739, Control_c, 0, 64, 127
1, 279781, Note_off_c, 0, 51, 38
1, 279825, Note_off_c, 0, 58, 44
1, 280005, Control_c, 0, 64, 122
1, 280020, Note_on_c, 0, 63, 74
1, 280020, Control_c, 0, 64, 104
1, 280035, Control_c, 0, 64, 94
1, 280045, Note_on_c, 0, 60, 49
1, 280050, Control_c, 0, 64, 85
1, 280065, Control_c, 0, 64, 76
1, 280080, Control_c, 0, 64, 70
1, 280081, Note_off_c, 0, 55, 5
1, 280102, Control_c, 0, 64, 65
1, 280117, Control_c, 0, 64, 61
1, 280132, Control_c, 0, 64, 55
1, 280147, Control_c, 0, 64, 51
1, 280162, Control_c, 0, 64, 47
1, 280176, Control_c, 0, 64, 44
1, 280191, Control_c, 0, 64, 40
1, 280206, Control_c, 0, 64, 37
1, 280221, Control_c, 0, 64, 35
1, 280250, Control_c, 0, 64, 34
1, 280265, Control_c, 0, 64, 32
1, 280280, Control_c, 0, 64, 27
1, 280294, Control_c, 0, 64, 23
1, 280309, Control_c, 0, 64, 21
1, 280339, Control_c, 0, 64, 21
1, 280351, Note_on_c, 0, 73, 63
1, 280369, Control_c, 0, 64, 21
1, 280383, Control_c, 0, 64, 25
1, 280387, Note_off_c, 0, 75, 64
1, 280398, Control_c, 0, 64, 35
1, 280414, Control_c, 0, 64, 46
1, 280429, Control_c, 0, 64, 58
1, 280444, Control_c, 0, 64, 63
1, 280458, Control_c, 0, 64, 65
1, 280458, Control_c, 0, 67, 127
1, 280473, Control_c, 0, 64, 65
1, 280503, Control_c, 0, 64, 66
1, 280503, Control_c, 0, 67, 126
1, 280532, Control_c, 0, 64, 65
1, 280547, Control_c, 0, 64, 63
1, 280562, Control_c, 0, 64, 59
1, 280577, Control_c, 0, 64, 53
1, 280592, Control_c, 0, 64, 48
1, 280592, Note_on_c, 0, 72, 66
1, 280603, Note_off_c, 0, 73, 65
1, 280607, Control_c, 0, 64, 45
1, 280622, Control_c, 0, 64, 46
1, 280637, Control_c, 0, 64, 52
1, 280652, Control_c, 0, 64, 59
1, 280652, Control_c, 0, 67, 127
1, 280666, Control_c, 0, 64, 65
1, 280681, Control_c, 0, 64, 68
1, 280696, Control_c, 0, 64, 72
1, 280710, Control_c, 0, 64, 74
1, 280725, Control_c, 0, 64, 74
1, 280755, Control_c, 0, 64, 71
1, 280770, Control_c, 0, 64, 65
1, 280784, Control_c, 0, 64, 58
1, 280799, Control_c, 0, 64, 50
1, 280800, Note_on_c, 0, 84, 77
1, 280814, Control_c, 0, 64, 47
1, 280829, Control_c, 0, 64, 49
1, 280851, Control_c, 0, 64, 56
1, 280866, Control_c, 0, 64, 63
1, 280866, Control_c, 0, 67, 126
1, 280881, Control_c, 0, 64, 70
1, 280881, Control_c, 0, 67, 126
1, 280896, Control_c, 0, 64, 76
1, 280911, Control_c, 0, 64, 83
1, 280925, Control_c, 0, 64, 85
1, 280940, Control_c, 0, 64, 86
1, 280955, Control_c, 0, 67, 125
1, 280993, Note_on_c, 0, 82, 78
1, 281014, Control_c, 0, 67, 126
1, 281043, Control_c, 0, 67, 126
1, 281095, Note_off_c, 0, 72, 18
1, 281098, Note_off_c, 0, 84, 57
1, 281162, Control_c, 0, 67, 127
1, 281165, Note_on_c, 0, 79, 80
1, 281232, Note_off_c, 0, 60, 24
1, 281234, Note_off_c, 0, 82, 47
1, 281237, Control_c, 0, 67, 127
1, 281355, Control_c, 0, 64, 85
1, 281358, Note_on_c, 0, 60, 75
1, 281360, Note_on_c, 0, 82, 71
1, 281370, Control_c, 0, 64, 81
1, 281385, Note_off_c, 0, 63, 63
1, 281385, Control_c, 0, 64, 75
1, 281400, Control_c, 0, 64, 68
1, 281401, Note_on_c, 0, 56, 47
1, 281415, Control_c, 0, 64, 60
1, 281430, Control_c, 0, 64, 44
1, 281430, Note_off_c, 0, 79, 58
1, 281445, Control_c, 0, 64, 24
1, 281459, Control_c, 0, 64, 0
1, 281504, Control_c, 0, 64, 25
1, 281519, Control_c, 0, 64, 46
1, 281533, Control_c, 0, 64, 63
1, 281540, Note_off_c, 0, 56, 59
1, 281548, Control_c, 0, 64, 71
1, 281563, Control_c, 0, 64, 75
1, 281566, Note_on_c, 0, 80, 80
1, 281578, Control_c, 0, 64, 77
1, 281600, Control_c, 0, 64, 79
1, 281609, Note_off_c, 0, 82, 61
1, 281615, Control_c, 0, 64, 80
1, 281629, Control_c, 0, 64, 81
1, 281644, Control_c, 0, 64, 82
1, 281659, Control_c, 0, 64, 83
1, 281690, Note_off_c, 0, 60, 61
1, 281763, Control_c, 0, 64, 82
1, 281778, Control_c, 0, 64, 77
1, 281778, Note_on_c, 0, 84, 75
1, 281790, Note_on_c, 0, 60, 83
1, 281793, Control_c, 0, 64, 70
1, 281793, Note_off_c, 0, 80, 61
1, 281808, Control_c, 0, 64, 64
1, 281816, Note_on_c, 0, 56, 59
1, 281822, Control_c, 0, 64, 55
1, 281837, Control_c, 0, 64, 41
1, 281852, Control_c, 0, 64, 27
1, 281866, Control_c, 0, 64, 12
1, 281881, Control_c, 0, 64, 0
1, 281993, Note_on_c, 0, 80, 77
1, 282000, Control_c, 0, 64, 27
1, 282014, Note_off_c, 0, 84, 65
1, 282016, Control_c, 0, 64, 49
1, 282031, Control_c, 0, 64, 64
1, 282045, Control_c, 0, 64, 69
1, 282060, Control_c, 0, 64, 71
1, 282075, Control_c, 0, 64, 74
1, 282089, Control_c, 0, 64, 76
1, 282104, Control_c, 0, 64, 80
1, 282119, Control_c, 0, 64, 83
1, 282134, Control_c, 0, 64, 83
1, 282149, Control_c, 0, 64, 83
1, 282163, Control_c, 0, 64, 79
1, 282178, Control_c, 0, 64, 74
1, 282187, Note_off_c, 0, 80, 63
1, 282193, Control_c, 0, 64, 70
1, 282206, Note_on_c, 0, 75, 74
1, 282208, Control_c, 0, 64, 69
1, 282223, Control_c, 0, 64, 73
1, 282238, Control_c, 0, 64, 80
1, 282252, Control_c, 0, 64, 88
1, 282267, Control_c, 0, 64, 93
1, 282282, Control_c, 0, 64, 95
1, 282297, Control_c, 0, 64, 96
1, 282311, Control_c, 0, 64, 99
1, 282324, Note_off_c, 0, 60, 59
1, 282333, Control_c, 0, 64, 103
1, 282348, Control_c, 0, 64, 107
1, 282350, Note_off_c, 0, 56, 58
1, 282363, Control_c, 0, 64, 110
1, 282367, Note_off_c, 0, 75, 63
1, 282378, Control_c, 0, 64, 110
1, 282407, Control_c, 0, 64, 103
1, 282422, Control_c, 0, 64, 84
1, 282431, Note_on_c, 0, 76, 76
1, 282436, Note_on_c, 0, 60, 71
1, 282437, Control_c, 0, 64, 66
1, 282443, Note_on_c, 0, 56, 61
1, 282452, Control_c, 0, 64, 53
1, 282467, Control_c, 0, 64, 41
1, 282481, Control_c, 0, 64, 38
1, 282496, Control_c, 0, 64, 44
1, 282511, Control_c, 0, 64, 54
1, 282526, Control_c, 0, 64, 64
1, 282541, Control_c, 0, 64, 72
1, 282556, Control_c, 0, 64, 79
1, 282570, Control_c, 0, 64, 83
1, 282585, Control_c, 0, 64, 83
1, 282625, Note_off_c, 0, 60, 55
1, 282638, Note_off_c, 0, 56, 59
1, 282644, Control_c, 0, 64, 84
1, 282718, Control_c, 0, 64, 83
1, 282733, Control_c, 0, 64, 82
1, 282748, Control_c, 0, 64, 78
1, 282756, Note_on_c, 0, 77, 71
1, 282762, Note_off_c, 0, 76, 63
1, 282762, Control_c, 0, 64, 72
1, 282763, Note_on_c, 0, 60, 60
1, 282765, Note_on_c, 0, 56, 60
1, 282774, Note_on_c, 0, 49, 59
1, 282777, Control_c, 0, 64, 65
1, 282792, Control_c, 0, 64, 58
1, 282808, Control_c, 0, 64, 50
1, 282823, Control_c, 0, 64, 43
1, 282838, Control_c, 0, 64, 34
1, 282853, Control_c, 0, 64, 24
1, 282867, Control_c, 0, 64, 0
1, 283014, Note_on_c, 0, 57, 65
1, 283020, Note_off_c, 0, 60, 62
1, 283025, Note_off_c, 0, 56, 60
1, 283215, Note_off_c, 0, 57, 64
1, 283230, Note_on_c, 0, 58, 63
1, 283416, Note_on_c, 0, 60, 59
1, 283420, Note_off_c, 0, 58, 60
1, 283423, Control_c, 0, 64, 13
1, 283437, Control_c, 0, 64, 18
1, 283452, Control_c, 0, 64, 18
1, 283541, Control_c, 0, 64, 18
1, 283603, Note_off_c, 0, 49, 35
1, 283639, Note_on_c, 0, 61, 61
1, 283671, Note_off_c, 0, 60, 60
1, 283734, Control_c, 0, 64, 18
1, 283734, Control_c, 0, 67, 126
1, 283749, Control_c, 0, 64, 19
1, 283749, Control_c, 0, 67, 125
1, 283764, Control_c, 0, 64, 19
1, 283764, Control_c, 0, 67, 125
1, 283779, Control_c, 0, 67, 124
1, 283794, Control_c, 0, 67, 124
1, 283809, Control_c, 0, 67, 123
1, 283847, Control_c, 0, 64, 20
1, 283847, Control_c, 0, 67, 122
1, 283856, Note_on_c, 0, 70, 60
1, 283858, Note_on_c, 0, 49, 48
1, 283861, Control_c, 0, 67, 122
1, 283876, Control_c, 0, 67, 121
1, 283891, Control_c, 0, 67, 121
1, 283900, Note_off_c, 0, 77, 63
1, 283906, Control_c, 0, 64, 20
1, 283906, Control_c, 0, 67, 120
1, 283921, Control_c, 0, 64, 21
1, 283950, Control_c, 0, 67, 120
1, 283980, Control_c, 0, 64, 22
1, 284009, Control_c, 0, 64, 23
1, 284009, Control_c, 0, 67, 119
1, 284061, Note_on_c, 0, 72, 73
1, 284068, Note_on_c, 0, 51, 47
1, 284068, Control_c, 0, 67, 120
1, 284072, Note_off_c, 0, 49, 62
1, 284083, Control_c, 0, 64, 24
1, 284098, Control_c, 0, 64, 25
1, 284127, Control_c, 0, 64, 24
1, 284127, Control_c, 0, 67, 120
1, 284135, Note_off_c, 0, 70, 58
1, 284142, Control_c, 0, 64, 24
1, 284157, Control_c, 0, 64, 23
1, 284157, Control_c, 0, 67, 121
1, 284172, Control_c, 0, 64, 23
1, 284172, Control_c, 0, 67, 121
1, 284187, Control_c, 0, 64, 21
1, 284187, Control_c, 0, 67, 122
1, 284202, Control_c, 0, 64, 19
1, 284217, Control_c, 0, 67, 122
1, 284232, Control_c, 0, 67, 123
1, 284236, Note_off_c, 0, 61, 61
1, 284254, Note_off_c, 0, 51, 65
1, 284261, Control_c, 0, 64, 20
1, 284261, Control_c, 0, 67, 123
1, 284265, Note_on_c, 0, 53, 63
1, 284270, Note_on_c, 0, 73, 72
1, 284276, Control_c, 0, 64, 21
1, 284291, Control_c, 0, 64, 24
1, 284291, Control_c, 0, 67, 124
1, 284306, Control_c, 0, 64, 29
1, 284314, Note_off_c, 0, 72, 58
1, 284321, Control_c, 0, 64, 34
1, 284321, Control_c, 0, 67, 124
1, 284335, Control_c, 0, 64, 36
1, 284350, Control_c, 0, 67, 125
1, 284365, Control_c, 0, 64, 36
1, 284380, Control_c, 0, 67, 125
1, 284395, Control_c, 0, 67, 126
1, 284411, Control_c, 0, 64, 35
1, 284411, Control_c, 0, 67, 126
1, 284426, Control_c, 0, 64, 33
1, 284440, Control_c, 0, 64, 32
1, 284455, Control_c, 0, 64, 31
1, 284470, Control_c, 0, 64, 31
1, 284470, Control_c, 0, 67, 127
1, 284484, Control_c, 0, 64, 30
1, 284499, Control_c, 0, 64, 29
1, 284503, Note_off_c, 0, 53, 60
1, 284514, Control_c, 0, 64, 27
1, 284524, Note_on_c, 0, 51, 60
1, 284526, Note_on_c, 0, 67, 68
1, 284529, Control_c, 0, 64, 26
1, 284544, Control_c, 0, 67, 126
1, 284572, Note_off_c, 0, 73, 62
1, 284573, Control_c, 0, 64, 26
1, 284595, Control_c, 0, 64, 25
1, 284699, Control_c, 0, 64, 26
1, 284714, Control_c, 0, 64, 27
1, 284729, Control_c, 0, 64, 28
1, 284744, Control_c, 0, 64, 29
1, 284747, Note_on_c, 0, 39, 54
1, 284788, Control_c, 0, 64, 30
1, 284803, Control_c, 0, 64, 36
1, 284818, Control_c, 0, 64, 47
1, 284832, Control_c, 0, 64, 57
1, 284847, Control_c, 0, 64, 63
1, 284862, Control_c, 0, 64, 64
1, 284877, Control_c, 0, 64, 65
1, 284877, Control_c, 0, 67, 127
1, 284891, Control_c, 0, 64, 65
1, 284906, Control_c, 0, 64, 66
1, 284921, Control_c, 0, 64, 67
1, 284936, Control_c, 0, 67, 127
1, 284980, Control_c, 0, 64, 65
1, 284995, Control_c, 0, 64, 62
1, 285010, Control_c, 0, 64, 58
1, 285013, Note_on_c, 0, 75, 72
1, 285016, Note_off_c, 0, 39, 58
1, 285025, Control_c, 0, 64, 51
1, 285035, Note_on_c, 0, 41, 54
1, 285040, Control_c, 0, 64, 42
1, 285055, Control_c, 0, 64, 26
1, 285069, Control_c, 0, 64, 0
1, 285138, Note_off_c, 0, 67, 54
1, 285192, Note_off_c, 0, 51, 61
1, 285278, Control_c, 0, 64, 9
1, 285290, Note_off_c, 0, 41, 61
1, 285291, Note_on_c, 0, 43, 60
1, 285293, Control_c, 0, 64, 33
1, 285307, Control_c, 0, 64, 50
1, 285322, Control_c, 0, 64, 61
1, 285344, Control_c, 0, 64, 65
1, 285344, Control_c, 0, 67, 126
1, 285359, Control_c, 0, 64, 67
1, 285359, Control_c, 0, 67, 125
1, 285374, Control_c, 0, 64, 68
1, 285374, Control_c, 0, 67, 124
1, 285388, Control_c, 0, 64, 70
1, 285388, Control_c, 0, 67, 123
1, 285403, Control_c, 0, 64, 73
1, 285403, Control_c, 0, 67, 123
1, 285418, Control_c, 0, 64, 76
1, 285418, Control_c, 0, 67, 122
1, 285433, Control_c, 0, 64, 79
1, 285433, Control_c, 0, 67, 121
1, 285440, Note_off_c, 0, 43, 59
1, 285448, Control_c, 0, 64, 81
1, 285448, Control_c, 0, 67, 121
1, 285463, Control_c, 0, 64, 83
1, 285463, Control_c, 0, 67, 120
1, 285478, Control_c, 0, 64, 84
1, 285493, Control_c, 0, 64, 86
1, 285493, Control_c, 0, 67, 120
1, 285507, Control_c, 0, 64, 87
1, 285522, Control_c, 0, 64, 88
1, 285537, Control_c, 0, 64, 88
1, 285685, Control_c, 0, 64, 88
1, 285700, Control_c, 0, 64, 85
1, 285714, Control_c, 0, 64, 82
1, 285718, Note_on_c, 0, 72, 74
1, 285729, Control_c, 0, 64, 78
1, 285744, Control_c, 0, 64, 72
1, 285744, Control_c, 0, 67, 119
1, 285745, Note_on_c, 0, 63, 53
1, 285759, Control_c, 0, 64, 68
1, 285764, Note_on_c, 0, 44, 53
1, 285771, Note_on_c, 0, 32, 47
1, 285774, Control_c, 0, 64, 65
1, 285774, Control_c, 0, 67, 119
1, 285779, Note_on_c, 0, 68, 44
1, 285788, Control_c, 0, 64, 62
1, 285788, Control_c, 0, 67, 118
1, 285803, Control_c, 0, 64, 58
1, 285803, Control_c, 0, 67, 118
1, 285818, Control_c, 0, 64, 53
1, 285818, Control_c, 0, 67, 117
1, 285829, Note_off_c, 0, 75, 65
1, 285833, Control_c, 0, 64, 46
1, 285833, Control_c, 0, 67, 116
1, 285847, Control_c, 0, 64, 38
1, 285847, Control_c, 0, 67, 115
1, 285862, Control_c, 0, 64, 29
1, 285862, Control_c, 0, 67, 113
1, 285877, Control_c, 0, 64, 18
1, 285877, Control_c, 0, 67, 112
1, 285892, Control_c, 0, 64, 0
1, 285892, Control_c, 0, 67, 110
1, 285907, Control_c, 0, 67, 109
1, 285922, Control_c, 0, 67, 105
1, 285937, Control_c, 0, 67, 102
1, 285952, Control_c, 0, 67, 98
1, 285967, Control_c, 0, 64, 14
1, 285967, Control_c, 0, 67, 92
1, 285981, Control_c, 0, 64, 28
1, 285981, Control_c, 0, 67, 85
1, 285996, Control_c, 0, 64, 42
1, 285996, Control_c, 0, 67, 76
1, 286011, Control_c, 0, 64, 55
1, 286011, Control_c, 0, 67, 61
1, 286026, Control_c, 0, 64, 63
1, 286026, Control_c, 0, 67, 43
1, 286041, Control_c, 0, 64, 67
1, 286041, Control_c, 0, 67, 25
1, 286056, Control_c, 0, 64, 69
1, 286056, Control_c, 0, 67, 0
1, 286078, Control_c, 0, 64, 71
1, 286093, Control_c, 0, 64, 73
1, 286108, Control_c, 0, 64, 78
1, 286123, Control_c, 0, 64, 85
1, 286137, Control_c, 0, 64, 92
1, 286152, Control_c, 0, 64, 101
1, 286167, Control_c, 0, 64, 115
1, 286182, Control_c, 0, 64, 127
1, 286451, Note_off_c, 0, 68, 42
1, 286793, Note_on_c, 0, 73, 74
1, 286814, Note_on_c, 0, 41, 61
1, 286827, Control_c, 0, 64, 102
1, 286830, Note_on_c, 0, 68, 53
1, 286842, Control_c, 0, 64, 89
1, 286857, Control_c, 0, 64, 79
1, 286872, Control_c, 0, 64, 69
1, 286876, Note_off_c, 0, 44, 55
1, 286883, Note_off_c, 0, 72, 60
1, 286886, Control_c, 0, 64, 63
1, 286901, Control_c, 0, 64, 57
1, 286916, Control_c, 0, 64, 51
1, 286931, Control_c, 0, 64, 44
1, 286946, Control_c, 0, 64, 35
1, 286950, Note_off_c, 0, 63, 60
1, 286960, Control_c, 0, 64, 20
1, 286975, Control_c, 0, 64, 0
1, 287049, Control_c, 0, 64, 22
1, 287064, Control_c, 0, 64, 53
1, 287079, Control_c, 0, 64, 68
1, 287093, Control_c, 0, 64, 78
1, 287108, Control_c, 0, 64, 86
1, 287123, Control_c, 0, 64, 90
1, 287138, Control_c, 0, 64, 92
1, 287153, Control_c, 0, 64, 95
1, 287168, Control_c, 0, 64, 97
1, 287183, Control_c, 0, 64, 98
1, 287257, Control_c, 0, 64, 97
1, 287272, Control_c, 0, 64, 96
1, 287286, Control_c, 0, 64, 90
1, 287288, Note_on_c, 0, 65, 66
1, 287301, Control_c, 0, 64, 82
1, 287309, Note_on_c, 0, 37, 66
1, 287316, Control_c, 0, 64, 71
1, 287331, Control_c, 0, 64, 63
1, 287346, Control_c, 0, 64, 53
1, 287360, Control_c, 0, 64, 42
1, 287370, Note_off_c, 0, 68, 62
1, 287375, Control_c, 0, 64, 30
1, 287390, Control_c, 0, 64, 0
1, 287394, Note_off_c, 0, 41, 59
1, 287464, Control_c, 0, 64, 45
1, 287478, Control_c, 0, 64, 62
1, 287493, Control_c, 0, 64, 70
1, 287508, Control_c, 0, 64, 74
1, 287523, Control_c, 0, 64, 76
1, 287538, Control_c, 0, 64, 77
1, 287552, Control_c, 0, 64, 79
1, 287567, Control_c, 0, 64, 79
1, 287590, Control_c, 0, 64, 80
1, 287709, Control_c, 0, 64, 79
1, 287724, Control_c, 0, 64, 75
1, 287739, Control_c, 0, 64, 71
1, 287749, Note_on_c, 0, 70, 72
1, 287754, Control_c, 0, 64, 66
1, 287765, Note_on_c, 0, 43, 69
1, 287769, Control_c, 0, 64, 61
1, 287783, Control_c, 0, 64, 58
1, 287798, Control_c, 0, 64, 56
1, 287803, Note_off_c, 0, 65, 53
1, 287813, Control_c, 0, 64, 52
1, 287816, Note_off_c, 0, 37, 59
1, 287828, Control_c, 0, 64, 45
1, 287843, Control_c, 0, 64, 31
1, 287857, Control_c, 0, 64, 0
1, 287872, Control_c, 0, 67, 8
1, 287946, Note_off_c, 0, 73, 52
1, 287961, Control_c, 0, 64, 44
1, 287976, Control_c, 0, 64, 63
1, 287991, Control_c, 0, 64, 74
1, 287991, Control_c, 0, 67, 8
1, 288006, Control_c, 0, 64, 82
1, 288020, Control_c, 0, 64, 92
1, 288035, Control_c, 0, 64, 103
1, 288050, Control_c, 0, 64, 127
1, 288050, Note_off_c, 0, 43, 61
1, 288095, Note_off_c, 0, 32, 24
1, 288124, Control_c, 0, 67, 9
1, 288154, Control_c, 0, 67, 9
1, 288250, Note_on_c, 0, 73, 79
1, 288267, Note_on_c, 0, 46, 62
1, 288272, Control_c, 0, 64, 119
1, 288281, Note_on_c, 0, 67, 50
1, 288282, Note_on_c, 0, 64, 50
1, 288287, Control_c, 0, 64, 88
1, 288292, Note_on_c, 0, 32, 52
1, 288301, Control_c, 0, 64, 71
1, 288308, Note_off_c, 0, 70, 59
1, 288316, Control_c, 0, 64, 60
1, 288339, Control_c, 0, 64, 47
1, 288354, Control_c, 0, 64, 33
1, 288369, Control_c, 0, 64, 0
1, 288459, Control_c, 0, 64, 43
1, 288474, Control_c, 0, 64, 65
1, 288488, Control_c, 0, 64, 76
1, 288503, Control_c, 0, 64, 88
1, 288518, Control_c, 0, 64, 102
1, 288532, Control_c, 0, 64, 127
1, 288641, Note_off_c, 0, 32, 29
1, 288641, Note_off_c, 0, 46, 33
1, 288650, Note_off_c, 0, 67, 57
1, 288664, Note_off_c, 0, 73, 62
1, 288723, Note_off_c, 0, 64, 41
1, 288954, Note_on_c, 0, 73, 60
1, 288958, Note_on_c, 0, 64, 44
1, 288962, Control_c, 0, 67, 9
1, 288971, Note_on_c, 0, 46, 52
1, 288972, Note_on_c, 0, 32, 49
1, 288983, Note_on_c, 0, 67, 41
1, 289050, Control_c, 0, 64, 108
1, 289065, Control_c, 0, 64, 80
1, 289065, Control_c, 0, 67, 8
1, 289088, Control_c, 0, 64, 68
1, 289103, Control_c, 0, 64, 60
1, 289117, Control_c, 0, 64, 54
1, 289132, Control_c, 0, 64, 50
1, 289147, Control_c, 0, 64, 42
1, 289162, Control_c, 0, 64, 30
1, 289177, Control_c, 0, 64, 0
1, 289192, Control_c, 0, 67, 9
1, 289222, Control_c, 0, 67, 9
1, 289267, Control_c, 0, 67, 10
1, 289281, Control_c, 0, 67, 11
1, 289296, Control_c, 0, 67, 12
1, 289311, Control_c, 0, 67, 12
1, 289326, Control_c, 0, 67, 13
1, 289370, Control_c, 0, 67, 14
1, 289385, Control_c, 0, 67, 14
1, 289400, Control_c, 0, 67, 15
1, 289429, Control_c, 0, 67, 15
1, 289444, Control_c, 0, 67, 16
1, 289459, Control_c, 0, 67, 17
1, 289488, Control_c, 0, 67, 17
1, 289533, Control_c, 0, 67, 18
1, 289547, Control_c, 0, 67, 20
1, 289562, Control_c, 0, 67, 24
1, 289577, Control_c, 0, 67, 27
1, 289592, Control_c, 0, 67, 28
1, 289607, Control_c, 0, 67, 29
1, 289940, Control_c, 0, 67, 29
1, 290074, Note_on_c, 0, 63, 50
1, 290149, Control_c, 0, 64, 8
1, 290160, Note_off_c, 0, 64, 58
1, 290164, Control_c, 0, 64, 10
1, 290178, Control_c, 0, 64, 11
1, 290193, Control_c, 0, 64, 12
1, 290208, Control_c, 0, 64, 15
1, 290223, Control_c, 0, 64, 19
1, 290238, Control_c, 0, 64, 22
1, 290252, Control_c, 0, 64, 24
1, 290267, Control_c, 0, 64, 25
1, 290282, Control_c, 0, 64, 26
1, 290296, Control_c, 0, 64, 26
1, 290400, Control_c, 0, 64, 27
1, 290504, Control_c, 0, 67, 28
1, 290518, Control_c, 0, 64, 27
1, 290569, Control_c, 0, 64, 29
1, 290584, Control_c, 0, 64, 34
1, 290599, Control_c, 0, 64, 40
1, 290614, Control_c, 0, 64, 47
1, 290629, Control_c, 0, 64, 54
1, 290644, Control_c, 0, 64, 59
1, 290659, Control_c, 0, 64, 63
1, 290659, Control_c, 0, 67, 29
1, 290674, Control_c, 0, 64, 65
1, 290674, Control_c, 0, 67, 30
1, 290688, Control_c, 0, 64, 66
1, 290688, Control_c, 0, 67, 30
1, 290703, Control_c, 0, 64, 69
1, 290703, Control_c, 0, 67, 32
1, 290718, Control_c, 0, 64, 74
1, 290718, Control_c, 0, 67, 38
1, 290733, Control_c, 0, 64, 83
1, 290733, Control_c, 0, 67, 46
1, 290748, Control_c, 0, 64, 92
1, 290748, Control_c, 0, 67, 57
1, 290763, Control_c, 0, 64, 98
1, 290763, Control_c, 0, 67, 67
1, 290777, Control_c, 0, 64, 103
1, 290777, Control_c, 0, 67, 78
1, 290779, Note_off_c, 0, 73, 64
1, 290787, Note_off_c, 0, 46, 35
1, 290792, Control_c, 0, 64, 110
1, 290792, Control_c, 0, 67, 87
1, 290808, Control_c, 0, 64, 127
1, 290808, Control_c, 0, 67, 95
1, 290823, Control_c, 0, 67, 100
1, 290831, Note_off_c, 0, 32, 29
1, 290837, Control_c, 0, 67, 102
1, 290852, Control_c, 0, 67, 104
1, 290867, Control_c, 0, 67, 106
1, 290882, Control_c, 0, 67, 109
1, 290897, Control_c, 0, 67, 110
1, 290912, Control_c, 0, 67, 112
1, 290924, Note_off_c, 0, 63, 36
1, 290926, Control_c, 0, 67, 114
1, 290941, Control_c, 0, 67, 116
1, 290956, Control_c, 0, 67, 117
1, 290971, Control_c, 0, 67, 118
1, 290986, Control_c, 0, 67, 120
1, 291000, Control_c, 0, 67, 122
1, 291015, Control_c, 0, 67, 124
1, 291030, Control_c, 0, 67, 125
1, 291045, Control_c, 0, 67, 127
1, 291060, Control_c, 0, 67, 127
1, 291207, Control_c, 0, 64, 114
1, 291222, Control_c, 0, 64, 98
1, 291237, Control_c, 0, 64, 86
1, 291246, Note_on_c, 0, 72, 46
1, 291252, Control_c, 0, 64, 75
1, 291261, Note_on_c, 0, 63, 43
1, 291267, Control_c, 0, 64, 68
1, 291276, Note_on_c, 0, 68, 38
1, 291280, Note_on_c, 0, 32, 33
1, 291280, Note_on_c, 0, 44, 29
1, 291282, Control_c, 0, 64, 62
1, 291297, Control_c, 0, 64, 58
1, 291299, Note_off_c, 0, 67, 42
1, 291311, Control_c, 0, 64, 55
1, 291333, Control_c, 0, 64, 50
1, 291348, Control_c, 0, 64, 43
1, 291363, Control_c, 0, 64, 35
1, 291378, Control_c, 0, 64, 26
1, 291393, Control_c, 0, 64, 14
1, 291407, Control_c, 0, 64, 0
1, 291882, Control_c, 0, 64, 20
1, 291897, Control_c, 0, 64, 35
1, 291912, Control_c, 0, 64, 49
1, 291927, Control_c, 0, 64, 55
1, 291941, Control_c, 0, 64, 55
1, 291956, Control_c, 0, 64, 56
1, 291971, Control_c, 0, 64, 57
1, 291981, Note_off_c, 0, 63, 53
1, 291985, Note_off_c, 0, 44, 53
1, 291990, Note_off_c, 0, 32, 49
1, 291990, Note_off_c, 0, 72, 57
1, 292002, Note_off_c, 0, 68, 57
1, 292015, Control_c, 0, 64, 56
1, 292030, Control_c, 0, 64, 53
1, 292045, Control_c, 0, 64, 46
1, 292060, Control_c, 0, 64, 32
1, 292082, Control_c, 0, 64, 0
1, 292885, Note_on_c, 0, 72, 39
1, 292899, Note_on_c, 0, 68, 34
1, 292900, Note_on_c, 0, 44, 31
1, 292900, Note_on_c, 0, 63, 36
1, 292909, Note_on_c, 0, 32, 34
1, 294057, Note_off_c, 0, 44, 47
1, 294068, Note_off_c, 0, 63, 43
1, 294081, Note_off_c, 0, 68, 43
1, 294082, Note_off_c, 0, 72, 49
1, 294095, Note_off_c, 0, 32, 46
1, 294655, Control_c, 0, 67, 127
1, 294669, Control_c, 0, 67, 126
1, 294684, Control_c, 0, 67, 124
1, 294699, Control_c, 0, 67, 123
1, 294714, Control_c, 0, 67, 123
1, 294729, Control_c, 0, 67, 122
1, 294743, Control_c, 0, 67, 121
1, 294758, Control_c, 0, 67, 121
1, 294789, Control_c, 0, 67, 120
1, 295166, Control_c, 0, 67, 121
1, 295419, Control_c, 0, 67, 120
1, 295597, Control_c, 0, 67, 120
1, 295715, Control_c, 0, 67, 119
1, 295945, Control_c, 0, 67, 119
1, 295989, Control_c, 0, 67, 118
1, 296019, Control_c, 0, 67, 118
1, 296108, Control_c, 0, 67, 117
1, 296167, Control_c, 0, 67, 117
1, 296420, Control_c, 0, 64, 8
1, 296450, Control_c, 0, 64, 9
1, 296450, Control_c, 0, 67, 116
1, 296465, Control_c, 0, 64, 10
1, 296465, Control_c, 0, 67, 116
1, 296480, Control_c, 0, 67, 115
1, 296494, Control_c, 0, 67, 114
1, 296524, Control_c, 0, 67, 114
1, 296553, Control_c, 0, 67, 113
1, 296576, Control_c, 0, 67, 112
1, 296591, Control_c, 0, 67, 112
1, 296606, Control_c, 0, 67, 111
1, 296620, Control_c, 0, 67, 111
1, 296650, Control_c, 0, 67, 110
1, 296679, Control_c, 0, 67, 110
1, 296694, Control_c, 0, 67, 109
1, 296709, Control_c, 0, 67, 108
1, 296738, Control_c, 0, 67, 107
1, 296768, Control_c, 0, 67, 107
1, 296783, Control_c, 0, 67, 106
1, 296798, Control_c, 0, 67, 105
1, 296812, Control_c, 0, 67, 104
1, 296827, Control_c, 0, 67, 103
1, 296842, Control_c, 0, 67, 102
1, 296857, Control_c, 0, 67, 102
1, 296871, Control_c, 0, 67, 101
1, 296886, Control_c, 0, 67, 100
1, 296901, Control_c, 0, 67, 99
1, 296916, Control_c, 0, 67, 97
1, 296931, Control_c, 0, 67, 96
1, 296945, Control_c, 0, 67, 95
1, 296960, Control_c, 0, 67, 94
1, 296975, Control_c, 0, 67, 93
1, 296990, Control_c, 0, 67, 93
1, 297005, Control_c, 0, 67, 92
1, 297020, Control_c, 0, 67, 90
1, 297035, Control_c, 0, 67, 87
1, 297050, Control_c, 0, 67, 85
1, 297064, Control_c, 0, 67, 83
1, 297079, Control_c, 0, 67, 82
1, 297094, Control_c, 0, 67, 81
1, 297109, Control_c, 0, 67, 79
1, 297124, Control_c, 0, 67, 77
1, 297138, Control_c, 0, 67, 75
1, 297153, Control_c, 0, 67, 71
1, 297168, Control_c, 0, 67, 67
1, 297184, Control_c, 0, 64, 9
1, 297184, Control_c, 0, 67, 64
1, 297199, Control_c, 0, 67, 60
1, 297214, Control_c, 0, 67, 57
1, 297228, Control_c, 0, 64, 8
1, 297228, Control_c, 0, 67, 54
1, 297243, Control_c, 0, 67, 51
1, 297258, Control_c, 0, 67, 48
1, 297273, Control_c, 0, 64, 0
1, 297273, Control_c, 0, 67, 46
1, 297286, Control_c, 0, 67, 43
1, 297301, Control_c, 0, 67, 40
1, 297324, Control_c, 0, 67, 38
1, 297339, Control_c, 0, 67, 37
1, 297354, Control_c, 0, 67, 36
1, 297368, Control_c, 0, 67, 35
1, 297398, Control_c, 0, 67, 35
1, 297457, Control_c, 0, 67, 34
1, 297472, Control_c, 0, 67, 32
1, 297486, Control_c, 0, 67, 27
1, 297501, Control_c, 0, 67, 22
1, 297516, Control_c, 0, 67, 18
1, 297531, Control_c, 0, 67, 14
1, 297546, Control_c, 0, 67, 11
1, 297560, Control_c, 0, 67, 0
1, 297635, End_track
0, 0, End_of_file
