0, 0, Header, 0, 1, 384
1, 0, Start_track
1, 0, Title_t, "Petrouchka--Alex Karpeyev       "
1, 0, Text_t, "2009 Piano-e-Competition audition round"
1, 0, Text_t, "captured January 2009"
1, 0, Text_t, "http://www.piano-e-competition.com/"
1, 0, Text_t, "File processed for distribution by software from Zenph Studios, Inc., http://www.zenph.com"
1, 0, Instrument_name_t, "Yamaha Disklavier Pro Mark IV concert grand piano, model DCFIIISM4PRO"
1, 0, Sequencer_specific, 39, 67, 113, 0, 1, 0, 1, 0, 80, 101, 116, 114, 111, 117, 99, 104, 107, 97, 32, 32, 32, 32, 32, 32, 65, 108, 101, 120, 32, 75, 97, 114, 112, 101, 121, 101, 118, 32, 32, 32
1, 0, Sequencer_specific, 6, 67, 113, 0, 0, 0, 69
1, 0, System_exclusive, 21, 67, 113, 126, 21, 0, 2, 2, 0, 3, 14, 1, 4, 1, 13, 13, 10, 11, 9, 2, 7, 247
1, 0, Sequencer_specific, 5, 67, 123, 12, 2, 1
1, 0, Tempo, 512820
1, 0, Time_signature, 4, 2, 24, 8
1, 0, System_exclusive, 5, 126, 127, 9, 1, 247
1, 1, System_exclusive, 8, 67, 16, 76, 0, 0, 126, 0, 247
1, 2, System_exclusive, 8, 67, 16, 76, 8, 9, 7, 1, 247
1, 3, Control_c, 0, 0, 0
1, 3, Control_c, 1, 0, 0
1, 3, Control_c, 2, 0, 0
1, 3, Control_c, 3, 0, 0
1, 3, Control_c, 4, 0, 0
1, 3, Control_c, 5, 0, 0
1, 3, Control_c, 6, 0, 0
1, 3, Control_c, 7, 0, 0
1, 3, Control_c, 8, 0, 0
1, 3, Control_c, 9, 0, 127
1, 3, Control_c, 10, 0, 0
1, 3, Control_c, 11, 0, 0
1, 3, Control_c, 12, 0, 0
1, 3, Control_c, 13, 0, 0
1, 3, Control_c, 14, 0, 0
1, 3, Control_c, 15, 0, 0
1, 4, Control_c, 0, 32, 0
1, 4, Control_c, 1, 32, 0
1, 4, Control_c, 2, 32, 0
1, 4, Control_c, 3, 32, 0
1, 4, Control_c, 4, 32, 0
1, 4, Control_c, 5, 32, 0
1, 4, Control_c, 6, 32, 0
1, 4, Control_c, 7, 32, 0
1, 4, Control_c, 8, 32, 0
1, 4, Control_c, 9, 32, 0
1, 4, Control_c, 10, 32, 0
1, 4, Control_c, 11, 32, 0
1, 4, Control_c, 12, 32, 0
1, 4, Control_c, 13, 32, 0
1, 4, Control_c, 14, 32, 0
1, 4, Control_c, 15, 32, 0
1, 5, Program_c, 0, 0
1, 5, Program_c, 1, 0
1, 5, Program_c, 2, 0
1, 5, Program_c, 3, 0
1, 5, Program_c, 4, 0
1, 5, Program_c, 5, 0
1, 5, Program_c, 6, 0
1, 5, Program_c, 7, 0
1, 5, Program_c, 8, 0
1, 5, Program_c, 9, 0
1, 5, Program_c, 10, 0
1, 5, Program_c, 11, 0
1, 5, Program_c, 12, 0
1, 5, Program_c, 13, 0
1, 5, Program_c, 14, 0
1, 5, Program_c, 15, 0
1, 6, Control_c, 0, 7, 100
1, 6, Control_c, 1, 7, 100
1, 6, Control_c, 2, 7, 100
1, 6, Control_c, 3, 7, 100
1, 6, Control_c, 4, 7, 100
1, 6, Control_c, 5, 7, 100
1, 6, Control_c, 6, 7, 100
1, 6, Control_c, 7, 7, 100
1, 6, Control_c, 8, 7, 100
1, 6, Control_c, 9, 7, 100
1, 6, Control_c, 10, 7, 100
1, 6, Control_c, 11, 7, 100
1, 6, Control_c, 12, 7, 100
1, 6, Control_c, 13, 7, 100
1, 6, Control_c, 14, 7, 100
1, 6, Control_c, 15, 7, 100
1, 1126, Control_c, 0, 64, 56
1, 1129, Note_on_c, 0, 69, 88
1, 1129, Note_on_c, 0, 74, 80
1, 1129, Note_on_c, 0, 83, 85
1, 1132, Note_on_c, 0, 59, 88
1, 1133, Note_on_c, 0, 65, 87
1, 1138, Note_on_c, 0, 77, 61
1, 1139, Note_on_c, 0, 62, 74
1, 1141, Control_c, 0, 64, 85
1, 1142, Note_on_c, 0, 67, 80
1, 1144, Note_on_c, 0, 81, 63
1, 1146, Note_on_c, 0, 72, 58
1, 1147, Note_on_c, 0, 71, 67
1, 1148, Note_off_c, 0, 71, 127
1, 1149, Note_off_c, 0, 69, 72
1, 1151, Note_on_c, 0, 55, 61
1, 1151, Note_off_c, 0, 74, 69
1, 1156, Note_off_c, 0, 77, 65
1, 1156, Control_c, 0, 64, 84
1, 1157, Note_off_c, 0, 65, 68
1, 1158, Note_off_c, 0, 83, 64
1, 1160, Note_off_c, 0, 59, 68
1, 1162, Note_off_c, 0, 81, 66
1, 1164, Note_off_c, 0, 62, 69
1, 1166, Note_off_c, 0, 67, 66
1, 1166, Note_off_c, 0, 72, 62
1, 1170, Note_off_c, 0, 55, 66
1, 1171, Control_c, 0, 64, 79
1, 1186, Control_c, 0, 64, 71
1, 1201, Control_c, 0, 64, 63
1, 1211, Note_on_c, 0, 76, 22
1, 1215, Note_on_c, 0, 62, 81
1, 1215, Control_c, 0, 64, 52
1, 1216, Note_on_c, 0, 65, 85
1, 1216, Note_on_c, 0, 67, 76
1, 1217, Note_on_c, 0, 72, 99
1, 1217, Note_on_c, 0, 59, 87
1, 1218, Note_on_c, 0, 84, 89
1, 1220, Note_on_c, 0, 74, 23
1, 1225, Note_on_c, 0, 79, 71
1, 1230, Control_c, 0, 64, 13
1, 1232, Note_off_c, 0, 72, 72
1, 1238, Note_off_c, 0, 65, 68
1, 1239, Note_off_c, 0, 79, 69
1, 1239, Note_off_c, 0, 84, 70
1, 1241, Note_off_c, 0, 62, 70
1, 1242, Note_off_c, 0, 67, 66
1, 1243, Note_off_c, 0, 76, 65
1, 1244, Note_off_c, 0, 59, 67
1, 1245, Control_c, 0, 64, 0
1, 1261, Note_on_c, 0, 55, 29
1, 1262, Note_off_c, 0, 74, 45
1, 1279, Note_off_c, 0, 55, 0
1, 1294, Note_on_c, 0, 72, 38
1, 1299, Note_on_c, 0, 55, 41
1, 1299, Note_on_c, 0, 59, 83
1, 1299, Note_on_c, 0, 77, 86
1, 1300, Note_on_c, 0, 67, 87
1, 1301, Note_on_c, 0, 62, 93
1, 1301, Note_on_c, 0, 65, 80
1, 1302, Note_on_c, 0, 86, 98
1, 1305, Note_on_c, 0, 74, 88
1, 1306, Note_on_c, 0, 81, 60
1, 1323, Note_on_c, 0, 76, 69
1, 1324, Note_off_c, 0, 72, 47
1, 1324, Note_off_c, 0, 74, 70
1, 1327, Note_off_c, 0, 62, 68
1, 1327, Note_off_c, 0, 77, 66
1, 1327, Note_off_c, 0, 65, 68
1, 1328, Note_off_c, 0, 67, 65
1, 1329, Note_off_c, 0, 81, 67
1, 1330, Note_off_c, 0, 59, 65
1, 1342, Note_off_c, 0, 76, 45
1, 1343, Note_off_c, 0, 86, 66
1, 1346, Note_off_c, 0, 55, 64
1, 1382, Note_on_c, 0, 74, 30
1, 1383, Note_off_c, 0, 74, 127
1, 1512, Note_on_c, 0, 79, 97
1, 1514, Note_on_c, 0, 88, 94
1, 1515, Note_on_c, 0, 76, 97
1, 1517, Note_on_c, 0, 59, 80
1, 1517, Note_on_c, 0, 62, 80
1, 1522, Note_on_c, 0, 65, 73
1, 1522, Note_on_c, 0, 83, 75
1, 1530, Note_on_c, 0, 55, 70
1, 1530, Note_off_c, 0, 79, 72
1, 1532, Note_off_c, 0, 76, 74
1, 1537, Note_on_c, 0, 67, 60
1, 1538, Note_off_c, 0, 83, 67
1, 1539, Note_off_c, 0, 62, 68
1, 1539, Note_off_c, 0, 65, 65
1, 1540, Note_off_c, 0, 88, 61
1, 1542, Note_off_c, 0, 59, 68
1, 1548, Note_off_c, 0, 55, 67
1, 1558, Note_off_c, 0, 67, 41
1, 1593, Note_on_c, 0, 76, 44
1, 1601, Note_on_c, 0, 62, 75
1, 1603, Note_on_c, 0, 59, 73
1, 1604, Note_on_c, 0, 77, 94
1, 1605, Note_on_c, 0, 74, 90
1, 1607, Note_on_c, 0, 86, 90
1, 1617, Note_on_c, 0, 67, 75
1, 1620, Note_on_c, 0, 65, 56
1, 1622, Note_on_c, 0, 81, 62
1, 1622, Note_off_c, 0, 76, 57
1, 1622, Note_off_c, 0, 77, 73
1, 1622, Note_off_c, 0, 74, 72
1, 1626, Note_on_c, 0, 55, 52
1, 1634, Note_off_c, 0, 62, 67
1, 1634, Note_off_c, 0, 67, 69
1, 1637, Note_off_c, 0, 86, 61
1, 1640, Note_off_c, 0, 59, 66
1, 1640, Note_off_c, 0, 81, 62
1, 1642, Note_off_c, 0, 65, 64
1, 1643, Note_on_c, 0, 84, 46
1, 1644, Note_off_c, 0, 84, 127
1, 1649, Note_off_c, 0, 55, 60
1, 1679, Note_on_c, 0, 74, 41
1, 1680, Note_off_c, 0, 74, 127
1, 1688, Note_on_c, 0, 76, 93
1, 1690, Note_on_c, 0, 84, 77
1, 1695, Note_on_c, 0, 59, 87
1, 1697, Note_on_c, 0, 72, 80
1, 1701, Note_on_c, 0, 62, 79
1, 1705, Control_c, 0, 64, 22
1, 1706, Note_on_c, 0, 79, 67
1, 1706, Note_off_c, 0, 76, 69
1, 1706, Note_on_c, 0, 67, 61
1, 1709, Note_on_c, 0, 65, 66
1, 1710, Note_off_c, 0, 72, 69
1, 1720, Control_c, 0, 64, 17
1, 1722, Note_off_c, 0, 84, 62
1, 1731, Note_off_c, 0, 62, 69
1, 1731, Note_off_c, 0, 79, 65
1, 1732, Note_off_c, 0, 59, 64
1, 1734, Note_off_c, 0, 65, 65
1, 1734, Note_off_c, 0, 67, 63
1, 1742, Control_c, 0, 64, 0
1, 1743, Note_on_c, 0, 55, 40
1, 1775, Note_on_c, 0, 74, 93
1, 1777, Note_on_c, 0, 83, 84
1, 1782, Note_on_c, 0, 62, 81
1, 1783, Note_on_c, 0, 71, 72
1, 1787, Note_on_c, 0, 59, 81
1, 1789, Note_on_c, 0, 72, 50
1, 1792, Note_off_c, 0, 74, 72
1, 1794, Note_on_c, 0, 84, 36
1, 1795, Note_on_c, 0, 77, 34
1, 1798, Note_off_c, 0, 71, 67
1, 1807, Note_on_c, 0, 67, 57
1, 1807, Note_off_c, 0, 55, 0
1, 1809, Note_off_c, 0, 59, 69
1, 1809, Note_off_c, 0, 72, 40
1, 1809, Note_off_c, 0, 83, 64
1, 1811, Note_on_c, 0, 64, 45
1, 1812, Note_off_c, 0, 64, 127
1, 1812, Note_off_c, 0, 62, 69
1, 1822, Note_off_c, 0, 84, 36
1, 1825, Note_off_c, 0, 77, 46
1, 1828, Note_off_c, 0, 67, 42
1, 1836, Note_on_c, 0, 60, 18
1, 1837, Note_off_c, 0, 60, 127
1, 1849, Poly_aftertouch_c, 0, 55, 0
1, 1861, Note_on_c, 0, 72, 100
1, 1864, Note_on_c, 0, 81, 93
1, 1866, Note_on_c, 0, 69, 90
1, 1867, Note_on_c, 0, 55, 47
1, 1871, Note_on_c, 0, 76, 71
1, 1872, Note_on_c, 0, 64, 84
1, 1875, Note_on_c, 0, 67, 91
1, 1876, Note_on_c, 0, 59, 43
1, 1885, Note_off_c, 0, 69, 72
1, 1888, Note_off_c, 0, 72, 63
1, 1890, Poly_aftertouch_c, 0, 60, 127
1, 1893, Note_off_c, 0, 67, 70
1, 1895, Note_off_c, 0, 64, 69
1, 1895, Note_off_c, 0, 76, 65
1, 1901, Note_off_c, 0, 59, 60
1, 1908, Poly_aftertouch_c, 0, 74, 0
1, 1908, Note_off_c, 0, 81, 63
1, 1911, Poly_aftertouch_c, 0, 60, 0
1, 1919, Note_off_c, 0, 55, 64
1, 1997, Poly_aftertouch_c, 0, 69, 0
1, 2065, Note_on_c, 0, 72, 93
1, 2065, Note_on_c, 0, 81, 98
1, 2071, Note_on_c, 0, 60, 76
1, 2072, Note_on_c, 0, 64, 79
1, 2072, Note_on_c, 0, 69, 84
1, 2076, Note_on_c, 0, 55, 72
1, 2076, Note_on_c, 0, 67, 78
1, 2080, Note_on_c, 0, 76, 65
1, 2083, Note_off_c, 0, 72, 70
1, 2091, Note_off_c, 0, 67, 69
1, 2094, Note_off_c, 0, 69, 70
1, 2095, Note_off_c, 0, 60, 65
1, 2095, Note_off_c, 0, 64, 68
1, 2098, Note_off_c, 0, 76, 40
1, 2104, Note_off_c, 0, 55, 66
1, 2107, Note_off_c, 0, 81, 63
1, 2266, Note_on_c, 0, 83, 100
1, 2266, Note_on_c, 0, 74, 95
1, 2274, Note_on_c, 0, 77, 81
1, 2275, Note_on_c, 0, 69, 84
1, 2276, Control_c, 0, 64, 57
1, 2278, Note_on_c, 0, 59, 79
1, 2278, Note_on_c, 0, 62, 80
1, 2281, Note_on_c, 0, 65, 72
1, 2284, Note_off_c, 0, 74, 74
1, 2285, Note_on_c, 0, 55, 71
1, 2290, Note_off_c, 0, 69, 73
1, 2291, Control_c, 0, 64, 75
1, 2292, Note_on_c, 0, 67, 67
1, 2296, Note_off_c, 0, 65, 65
1, 2299, Note_off_c, 0, 59, 69
1, 2299, Note_off_c, 0, 77, 70
1, 2302, Note_off_c, 0, 62, 68
1, 2303, Note_off_c, 0, 55, 65
1, 2305, Note_off_c, 0, 83, 69
1, 2306, Control_c, 0, 64, 76
1, 2310, Note_off_c, 0, 67, 68
1, 2365, Control_c, 0, 64, 78
1, 2375, Note_on_c, 0, 59, 29
1, 2380, Control_c, 0, 64, 82
1, 2395, Control_c, 0, 64, 85
1, 2409, Control_c, 0, 64, 87
1, 2415, Note_off_c, 0, 59, 43
1, 2424, Control_c, 0, 64, 87
1, 2439, Control_c, 0, 64, 88
1, 2442, Poly_aftertouch_c, 0, 62, 0
1, 2454, Control_c, 0, 64, 91
1, 2469, Control_c, 0, 64, 92
1, 2491, Control_c, 0, 64, 93
1, 2609, Control_c, 0, 64, 92
1, 2624, Control_c, 0, 64, 84
1, 2639, Control_c, 0, 64, 70
1, 2654, Control_c, 0, 64, 58
1, 2668, Control_c, 0, 64, 33
1, 2670, Note_on_c, 0, 83, 101
1, 2671, Note_on_c, 0, 74, 89
1, 2674, Note_on_c, 0, 69, 76
1, 2677, Note_on_c, 0, 62, 76
1, 2683, Note_on_c, 0, 59, 70
1, 2683, Note_on_c, 0, 77, 61
1, 2683, Control_c, 0, 64, 0
1, 2685, Note_on_c, 0, 71, 61
1, 2686, Note_on_c, 0, 65, 65
1, 2689, Note_off_c, 0, 74, 72
1, 2690, Note_on_c, 0, 55, 60
1, 2690, Note_off_c, 0, 69, 71
1, 2691, Note_on_c, 0, 67, 63
1, 2693, Note_off_c, 0, 83, 66
1, 2699, Note_off_c, 0, 62, 69
1, 2701, Note_off_c, 0, 59, 66
1, 2701, Note_off_c, 0, 77, 66
1, 2704, Note_off_c, 0, 65, 64
1, 2704, Note_off_c, 0, 71, 40
1, 2711, Note_off_c, 0, 67, 63
1, 2712, Note_off_c, 0, 55, 62
1, 2761, Note_on_c, 0, 62, 72
1, 2762, Note_on_c, 0, 59, 78
1, 2766, Note_on_c, 0, 72, 93
1, 2766, Note_on_c, 0, 76, 90
1, 2767, Note_on_c, 0, 84, 95
1, 2774, Note_on_c, 0, 67, 73
1, 2779, Note_on_c, 0, 79, 65
1, 2779, Note_on_c, 0, 65, 58
1, 2783, Note_off_c, 0, 76, 71
1, 2785, Note_off_c, 0, 72, 70
1, 2785, Note_on_c, 0, 55, 52
1, 2786, Note_off_c, 0, 62, 67
1, 2787, Note_off_c, 0, 59, 67
1, 2788, Note_off_c, 0, 84, 69
1, 2791, Note_off_c, 0, 67, 68
1, 2796, Note_off_c, 0, 79, 66
1, 2800, Note_off_c, 0, 65, 63
1, 2803, Poly_aftertouch_c, 0, 74, 0
1, 2809, Note_off_c, 0, 55, 59
1, 2847, Note_on_c, 0, 59, 76
1, 2848, Note_on_c, 0, 62, 84
1, 2853, Note_on_c, 0, 77, 86
1, 2855, Note_on_c, 0, 74, 94
1, 2858, Note_on_c, 0, 86, 91
1, 2862, Note_on_c, 0, 67, 65
1, 2862, Note_on_c, 0, 76, 10
1, 2866, Note_on_c, 0, 65, 72
1, 2871, Note_on_c, 0, 81, 67
1, 2871, Note_on_c, 0, 55, 63
1, 2874, Note_off_c, 0, 74, 72
1, 2878, Note_off_c, 0, 62, 66
1, 2878, Note_off_c, 0, 86, 69
1, 2880, Note_off_c, 0, 77, 68
1, 2882, Note_off_c, 0, 59, 64
1, 2882, Note_off_c, 0, 65, 67
1, 2885, Note_off_c, 0, 67, 65
1, 2886, Note_off_c, 0, 81, 64
1, 2892, Note_off_c, 0, 55, 65
1, 2897, Note_off_c, 0, 76, 39
1, 2939, Note_on_c, 0, 62, 90
1, 2948, Note_on_c, 0, 59, 75
1, 2949, Note_on_c, 0, 88, 95
1, 2949, Note_on_c, 0, 79, 85
1, 2953, Note_on_c, 0, 76, 93
1, 2960, Note_on_c, 0, 65, 47
1, 2960, Note_on_c, 0, 67, 44
1, 2963, Note_off_c, 0, 62, 70
1, 2964, Note_on_c, 0, 83, 62
1, 2968, Note_off_c, 0, 59, 69
1, 2969, Note_off_c, 0, 79, 71
1, 2972, Note_off_c, 0, 76, 72
1, 2978, Note_off_c, 0, 88, 58
1, 2981, Note_on_c, 0, 55, 30
1, 2981, Note_off_c, 0, 83, 66
1, 2984, Note_off_c, 0, 65, 37
1, 2986, Note_off_c, 0, 67, 56
1, 2996, Control_c, 0, 64, 57
1, 3011, Control_c, 0, 64, 70
1, 3021, Note_on_c, 0, 59, 91
1, 3023, Note_on_c, 0, 62, 100
1, 3024, Note_off_c, 0, 55, 0
1, 3024, Note_on_c, 0, 55, 59
1, 3025, Control_c, 0, 64, 72
1, 3029, Note_on_c, 0, 65, 83
1, 3030, Note_on_c, 0, 86, 93
1, 3032, Note_on_c, 0, 74, 95
1, 3032, Note_on_c, 0, 77, 96
1, 3035, Note_on_c, 0, 81, 79
1, 3038, Note_on_c, 0, 67, 78
1, 3040, Control_c, 0, 64, 72
1, 3043, Note_off_c, 0, 65, 71
1, 3047, Note_off_c, 0, 62, 67
1, 3052, Note_off_c, 0, 67, 69
1, 3055, Note_off_c, 0, 77, 69
1, 3055, Control_c, 0, 64, 74
1, 3056, Note_off_c, 0, 74, 68
1, 3056, Note_off_c, 0, 59, 65
1, 3060, Note_off_c, 0, 55, 65
1, 3060, Note_off_c, 0, 81, 66
1, 3070, Control_c, 0, 64, 75
1, 3076, Note_off_c, 0, 86, 66
1, 3084, Control_c, 0, 64, 77
1, 3099, Control_c, 0, 64, 77
1, 3114, Control_c, 0, 64, 78
1, 3129, Control_c, 0, 64, 78
1, 3130, Note_on_c, 0, 65, 12
1, 3163, Note_off_c, 0, 65, 41
1, 3173, Control_c, 0, 64, 76
1, 3188, Control_c, 0, 64, 67
1, 3203, Control_c, 0, 64, 57
1, 3217, Control_c, 0, 64, 38
1, 3220, Note_on_c, 0, 76, 89
1, 3221, Note_on_c, 0, 84, 94
1, 3230, Note_on_c, 0, 72, 94
1, 3239, Note_on_c, 0, 59, 81
1, 3239, Control_c, 0, 64, 8
1, 3241, Note_on_c, 0, 65, 77
1, 3242, Note_on_c, 0, 62, 77
1, 3242, Note_on_c, 0, 79, 61
1, 3247, Note_off_c, 0, 76, 68
1, 3248, Note_off_c, 0, 72, 70
1, 3254, Note_off_c, 0, 84, 62
1, 3254, Control_c, 0, 64, 0
1, 3256, Note_off_c, 0, 65, 68
1, 3261, Note_off_c, 0, 79, 66
1, 3262, Note_on_c, 0, 55, 43
1, 3265, Note_off_c, 0, 62, 69
1, 3268, Note_off_c, 0, 59, 66
1, 3288, Note_off_c, 0, 55, 55
1, 3314, Note_on_c, 0, 74, 94
1, 3319, Note_on_c, 0, 72, 50
1, 3319, Note_on_c, 0, 83, 79
1, 3323, Note_on_c, 0, 59, 66
1, 3324, Note_on_c, 0, 71, 75
1, 3326, Note_on_c, 0, 81, 73
1, 3327, Note_on_c, 0, 77, 67
1, 3334, Note_on_c, 0, 62, 53
1, 3334, Note_off_c, 0, 74, 71
1, 3339, Note_off_c, 0, 83, 66
1, 3340, Note_off_c, 0, 71, 47
1, 3343, Note_off_c, 0, 72, 64
1, 3344, Note_off_c, 0, 77, 68
1, 3345, Note_off_c, 0, 59, 67
1, 3350, Note_off_c, 0, 81, 67
1, 3357, Note_on_c, 0, 64, 30
1, 3358, Note_off_c, 0, 62, 39
1, 3397, Note_on_c, 0, 81, 89
1, 3399, Note_on_c, 0, 55, 52
1, 3401, Note_on_c, 0, 72, 104
1, 3402, Note_off_c, 0, 64, 0
1, 3402, Note_on_c, 0, 64, 65
1, 3402, Note_on_c, 0, 67, 77
1, 3404, Note_on_c, 0, 60, 87
1, 3406, Note_on_c, 0, 69, 92
1, 3411, Note_on_c, 0, 76, 84
1, 3423, Note_on_c, 0, 59, 45
1, 3424, Note_off_c, 0, 59, 127
1, 3424, Note_off_c, 0, 69, 72
1, 3425, Note_off_c, 0, 72, 66
1, 3426, Note_off_c, 0, 67, 67
1, 3428, Note_off_c, 0, 64, 67
1, 3431, Note_off_c, 0, 60, 67
1, 3431, Note_off_c, 0, 76, 69
1, 3442, Note_off_c, 0, 81, 65
1, 3443, Note_off_c, 0, 55, 65
1, 3506, Note_on_c, 0, 76, 12
1, 3532, Note_off_c, 0, 76, 45
1, 3539, Poly_aftertouch_c, 0, 69, 0
1, 3604, Note_on_c, 0, 72, 91
1, 3604, Note_on_c, 0, 81, 99
1, 3608, Note_on_c, 0, 60, 81
1, 3610, Note_on_c, 0, 69, 86
1, 3611, Note_on_c, 0, 64, 79
1, 3616, Note_on_c, 0, 76, 76
1, 3617, Note_on_c, 0, 55, 68
1, 3618, Note_on_c, 0, 67, 77
1, 3625, Note_off_c, 0, 72, 70
1, 3631, Note_off_c, 0, 76, 69
1, 3631, Note_off_c, 0, 69, 69
1, 3633, Note_off_c, 0, 67, 71
1, 3634, Note_off_c, 0, 60, 65
1, 3636, Note_off_c, 0, 64, 68
1, 3646, Note_off_c, 0, 55, 65
1, 3648, Note_off_c, 0, 81, 66
1, 3735, Poly_aftertouch_c, 0, 69, 0
1, 3824, Note_on_c, 0, 83, 100
1, 3825, Note_on_c, 0, 74, 95
1, 3831, Note_on_c, 0, 69, 89
1, 3831, Note_on_c, 0, 77, 84
1, 3832, Note_on_c, 0, 62, 85
1, 3833, Control_c, 0, 64, 61
1, 3834, Note_on_c, 0, 59, 87
1, 3834, Note_on_c, 0, 67, 84
1, 3835, Note_on_c, 0, 55, 86
1, 3837, Note_on_c, 0, 65, 77
1, 3843, Note_off_c, 0, 74, 69
1, 3847, Control_c, 0, 64, 74
1, 3850, Note_off_c, 0, 69, 73
1, 3850, Note_off_c, 0, 77, 71
1, 3852, Note_off_c, 0, 67, 66
1, 3853, Note_off_c, 0, 65, 66
1, 3853, Note_off_c, 0, 62, 68
1, 3855, Note_off_c, 0, 59, 69
1, 3858, Note_off_c, 0, 55, 67
1, 3862, Control_c, 0, 64, 76
1, 3864, Note_off_c, 0, 83, 68
1, 3877, Control_c, 0, 64, 77
1, 3892, Control_c, 0, 64, 78
1, 3906, Control_c, 0, 64, 81
1, 3921, Control_c, 0, 64, 83
1, 3936, Control_c, 0, 64, 84
1, 3937, Note_on_c, 0, 59, 8
1, 3951, Control_c, 0, 64, 85
1, 3967, Control_c, 0, 64, 87
1, 3983, Note_off_c, 0, 59, 41
1, 3989, Control_c, 0, 64, 88
1, 4002, Poly_aftertouch_c, 0, 67, 0
1, 4004, Poly_aftertouch_c, 0, 62, 0
1, 4004, Control_c, 0, 64, 88
1, 4181, Control_c, 0, 64, 88
1, 4196, Control_c, 0, 64, 85
1, 4211, Control_c, 0, 64, 73
1, 4225, Control_c, 0, 64, 61
1, 4227, Note_on_c, 0, 74, 89
1, 4229, Note_on_c, 0, 83, 95
1, 4234, Note_on_c, 0, 62, 77
1, 4236, Note_on_c, 0, 71, 67
1, 4239, Note_on_c, 0, 77, 66
1, 4240, Note_on_c, 0, 59, 73
1, 4240, Control_c, 0, 64, 43
1, 4244, Note_on_c, 0, 69, 59
1, 4245, Note_off_c, 0, 74, 72
1, 4249, Note_on_c, 0, 55, 60
1, 4250, Note_off_c, 0, 83, 66
1, 4251, Note_on_c, 0, 67, 57
1, 4251, Note_off_c, 0, 71, 65
1, 4253, Note_on_c, 0, 65, 48
1, 4255, Control_c, 0, 64, 24
1, 4257, Note_off_c, 0, 77, 67
1, 4257, Note_off_c, 0, 62, 69
1, 4257, Note_off_c, 0, 59, 68
1, 4264, Note_off_c, 0, 69, 39
1, 4270, Control_c, 0, 64, 8
1, 4275, Note_off_c, 0, 55, 61
1, 4276, Note_off_c, 0, 67, 58
1, 4281, Note_off_c, 0, 65, 36
1, 4285, Control_c, 0, 64, 0
1, 4316, Note_on_c, 0, 62, 76
1, 4317, Note_on_c, 0, 84, 94
1, 4318, Note_on_c, 0, 76, 94
1, 4319, Note_on_c, 0, 59, 79
1, 4320, Note_on_c, 0, 72, 91
1, 4332, Note_on_c, 0, 79, 73
1, 4340, Note_on_c, 0, 55, 58
1, 4340, Note_off_c, 0, 72, 70
1, 4341, Note_off_c, 0, 76, 67
1, 4342, Note_on_c, 0, 67, 62
1, 4347, Note_off_c, 0, 59, 67
1, 4347, Note_off_c, 0, 62, 67
1, 4349, Note_off_c, 0, 79, 66
1, 4350, Note_off_c, 0, 84, 63
1, 4362, Note_off_c, 0, 67, 62
1, 4364, Note_off_c, 0, 55, 62
1, 4405, Note_on_c, 0, 59, 78
1, 4409, Note_on_c, 0, 62, 88
1, 4410, Note_on_c, 0, 86, 94
1, 4411, Note_on_c, 0, 77, 84
1, 4417, Note_on_c, 0, 74, 80
1, 4418, Note_on_c, 0, 72, 18
1, 4419, Note_on_c, 0, 67, 78
1, 4421, Note_on_c, 0, 55, 75
1, 4421, Note_on_c, 0, 81, 76
1, 4431, Note_off_c, 0, 62, 70
1, 4434, Note_off_c, 0, 67, 68
1, 4437, Note_off_c, 0, 81, 70
1, 4439, Note_on_c, 0, 76, 49
1, 4440, Note_off_c, 0, 74, 69
1, 4442, Note_off_c, 0, 59, 67
1, 4442, Note_off_c, 0, 77, 66
1, 4446, Note_off_c, 0, 55, 66
1, 4459, Note_off_c, 0, 86, 66
1, 4461, Note_off_c, 0, 72, 33
1, 4467, Note_off_c, 0, 76, 36
1, 4621, Note_on_c, 0, 76, 89
1, 4621, Note_on_c, 0, 79, 90
1, 4621, Note_on_c, 0, 88, 96
1, 4625, Note_on_c, 0, 59, 77
1, 4626, Note_on_c, 0, 62, 85
1, 4630, Note_on_c, 0, 65, 67
1, 4634, Note_on_c, 0, 83, 62
1, 4640, Note_off_c, 0, 79, 72
1, 4640, Note_off_c, 0, 76, 71
1, 4642, Note_off_c, 0, 88, 67
1, 4645, Note_on_c, 0, 55, 45
1, 4647, Note_off_c, 0, 65, 65
1, 4647, Note_off_c, 0, 59, 68
1, 4647, Note_off_c, 0, 62, 69
1, 4651, Note_off_c, 0, 83, 66
1, 4654, Note_on_c, 0, 67, 50
1, 4673, Note_off_c, 0, 55, 55
1, 4680, Note_off_c, 0, 67, 37
1, 4713, Note_on_c, 0, 59, 70
1, 4713, Note_on_c, 0, 62, 70
1, 4713, Note_on_c, 0, 77, 88
1, 4716, Note_on_c, 0, 74, 82
1, 4716, Note_on_c, 0, 86, 84
1, 4740, Note_off_c, 0, 77, 72
1, 4744, Note_off_c, 0, 74, 69
1, 4745, Note_off_c, 0, 86, 69
1, 4752, Note_on_c, 0, 67, 48
1, 4752, Note_off_c, 0, 59, 69
1, 4752, Note_off_c, 0, 62, 67
1, 4763, Note_on_c, 0, 55, 43
1, 4777, Note_off_c, 0, 67, 38
1, 4794, Note_off_c, 0, 55, 34
1, 4812, Control_c, 0, 64, 14
1, 4812, Note_on_c, 0, 84, 90
1, 4813, Note_on_c, 0, 76, 84
1, 4814, Note_on_c, 0, 62, 84
1, 4815, Note_on_c, 0, 72, 88
1, 4818, Note_on_c, 0, 59, 76
1, 4824, Note_on_c, 0, 74, 7
1, 4825, Note_off_c, 0, 74, 127
1, 4827, Control_c, 0, 64, 0
1, 4834, Note_off_c, 0, 76, 69
1, 4837, Note_off_c, 0, 84, 61
1, 4838, Note_on_c, 0, 55, 51
1, 4839, Note_off_c, 0, 72, 69
1, 4841, Note_off_c, 0, 62, 69
1, 4841, Note_on_c, 0, 86, 15
1, 4847, Note_off_c, 0, 59, 69
1, 4853, Note_off_c, 0, 86, 43
1, 4865, Note_off_c, 0, 55, 58
1, 4895, Note_on_c, 0, 83, 96
1, 4896, Note_on_c, 0, 74, 77
1, 4898, Note_on_c, 0, 59, 72
1, 4900, Note_on_c, 0, 64, 82
1, 4907, Note_on_c, 0, 71, 66
1, 4916, Note_on_c, 0, 60, 65
1, 4919, Note_off_c, 0, 74, 68
1, 4920, Note_on_c, 0, 76, 3
1, 4923, Note_off_c, 0, 83, 59
1, 4923, Note_off_c, 0, 64, 69
1, 4925, Note_off_c, 0, 59, 67
1, 4925, Note_off_c, 0, 71, 65
1, 4930, Note_off_c, 0, 76, 48
1, 4932, Note_on_c, 0, 77, 3
1, 4936, Note_off_c, 0, 60, 63
1, 4941, Note_on_c, 0, 55, 27
1, 4961, Note_off_c, 0, 77, 30
1, 4964, Note_off_c, 0, 55, 0
1, 4981, Note_on_c, 0, 64, 82
1, 4984, Note_on_c, 0, 55, 41
1, 4984, Note_on_c, 0, 72, 88
1, 4984, Note_on_c, 0, 81, 97
1, 4988, Note_on_c, 0, 69, 88
1, 4995, Note_on_c, 0, 60, 81
1, 4997, Note_on_c, 0, 59, 63
1, 4997, Note_on_c, 0, 67, 63
1, 5003, Note_on_c, 0, 76, 58
1, 5006, Note_off_c, 0, 69, 70
1, 5007, Note_on_c, 0, 71, 47
1, 5010, Note_off_c, 0, 72, 67
1, 5014, Note_off_c, 0, 64, 66
1, 5017, Note_off_c, 0, 67, 63
1, 5020, Note_off_c, 0, 59, 68
1, 5020, Note_off_c, 0, 60, 66
1, 5023, Note_off_c, 0, 55, 65
1, 5025, Note_off_c, 0, 76, 59
1, 5029, Note_off_c, 0, 81, 65
1, 5032, Note_off_c, 0, 71, 36
1, 5070, Note_on_c, 0, 69, 25
1, 5107, Note_off_c, 0, 69, 50
1, 5167, Control_c, 0, 64, 60
1, 5182, Control_c, 0, 64, 68
1, 5187, Note_on_c, 0, 81, 99
1, 5187, Note_on_c, 0, 72, 99
1, 5188, Note_on_c, 0, 69, 96
1, 5194, Note_on_c, 0, 64, 83
1, 5194, Note_on_c, 0, 76, 82
1, 5196, Note_on_c, 0, 67, 83
1, 5196, Control_c, 0, 64, 69
1, 5199, Note_on_c, 0, 55, 78
1, 5203, Note_on_c, 0, 60, 64
1, 5209, Note_off_c, 0, 69, 71
1, 5211, Control_c, 0, 64, 72
1, 5212, Note_off_c, 0, 72, 66
1, 5215, Note_off_c, 0, 76, 68
1, 5217, Note_off_c, 0, 64, 68
1, 5220, Note_off_c, 0, 60, 65
1, 5222, Note_off_c, 0, 67, 67
1, 5226, Control_c, 0, 64, 78
1, 5228, Note_off_c, 0, 55, 65
1, 5234, Note_off_c, 0, 81, 66
1, 5241, Control_c, 0, 64, 87
1, 5257, Control_c, 0, 64, 96
1, 5271, Control_c, 0, 64, 100
1, 5295, Note_on_c, 0, 76, 7
1, 5301, Control_c, 0, 64, 97
1, 5316, Control_c, 0, 64, 83
1, 5323, Note_off_c, 0, 76, 41
1, 5326, Note_on_c, 0, 64, 2
1, 5331, Control_c, 0, 64, 68
1, 5345, Control_c, 0, 64, 52
1, 5360, Control_c, 0, 64, 17
1, 5363, Note_off_c, 0, 64, 44
1, 5375, Control_c, 0, 64, 0
1, 5381, Note_on_c, 0, 83, 97
1, 5381, Note_on_c, 0, 74, 95
1, 5384, Note_on_c, 0, 69, 92
1, 5386, Note_on_c, 0, 59, 84
1, 5388, Note_on_c, 0, 62, 80
1, 5388, Note_on_c, 0, 77, 87
1, 5389, Note_on_c, 0, 65, 78
1, 5390, Note_on_c, 0, 55, 71
1, 5390, Note_on_c, 0, 67, 76
1, 5404, Note_off_c, 0, 69, 72
1, 5405, Note_off_c, 0, 74, 70
1, 5409, Note_off_c, 0, 77, 71
1, 5411, Note_off_c, 0, 62, 69
1, 5414, Note_off_c, 0, 59, 70
1, 5416, Note_off_c, 0, 65, 66
1, 5416, Note_off_c, 0, 67, 66
1, 5420, Note_off_c, 0, 55, 65
1, 5425, Note_off_c, 0, 83, 69
1, 5590, Control_c, 0, 64, 60
1, 5596, Note_on_c, 0, 83, 100
1, 5598, Note_on_c, 0, 74, 93
1, 5604, Note_on_c, 0, 59, 84
1, 5604, Note_on_c, 0, 69, 91
1, 5605, Control_c, 0, 64, 70
1, 5610, Note_on_c, 0, 77, 72
1, 5612, Note_on_c, 0, 55, 72
1, 5613, Note_on_c, 0, 65, 77
1, 5614, Note_on_c, 0, 62, 76
1, 5614, Note_on_c, 0, 67, 75
1, 5618, Note_off_c, 0, 69, 75
1, 5619, Note_off_c, 0, 74, 72
1, 5620, Control_c, 0, 64, 71
1, 5625, Note_off_c, 0, 77, 68
1, 5628, Note_off_c, 0, 65, 68
1, 5630, Note_off_c, 0, 67, 68
1, 5630, Note_off_c, 0, 59, 68
1, 5630, Note_off_c, 0, 62, 68
1, 5634, Control_c, 0, 64, 72
1, 5636, Note_on_c, 0, 71, 32
1, 5637, Note_off_c, 0, 71, 127
1, 5637, Note_off_c, 0, 55, 67
1, 5641, Note_off_c, 0, 83, 69
1, 5649, Control_c, 0, 64, 74
1, 5664, Control_c, 0, 64, 76
1, 5679, Control_c, 0, 64, 79
1, 5694, Control_c, 0, 64, 80
1, 5709, Control_c, 0, 64, 81
1, 5724, Control_c, 0, 64, 82
1, 5753, Control_c, 0, 64, 82
1, 5768, Control_c, 0, 64, 77
1, 5770, Poly_aftertouch_c, 0, 69, 0
1, 5783, Control_c, 0, 64, 65
1, 5798, Control_c, 0, 64, 53
1, 5808, Note_on_c, 0, 74, 86
1, 5808, Note_on_c, 0, 83, 94
1, 5810, Note_on_c, 0, 71, 84
1, 5812, Note_on_c, 0, 59, 70
1, 5813, Note_on_c, 0, 62, 72
1, 5813, Control_c, 0, 64, 30
1, 5821, Note_on_c, 0, 55, 62
1, 5822, Note_on_c, 0, 67, 62
1, 5823, Note_on_c, 0, 65, 62
1, 5827, Control_c, 0, 64, 0
1, 5828, Note_off_c, 0, 74, 70
1, 5834, Note_off_c, 0, 71, 66
1, 5837, Note_off_c, 0, 59, 68
1, 5837, Note_on_c, 0, 77, 22
1, 5838, Note_off_c, 0, 77, 127
1, 5838, Note_off_c, 0, 62, 68
1, 5838, Note_off_c, 0, 83, 59
1, 5844, Note_off_c, 0, 55, 63
1, 5846, Note_off_c, 0, 65, 38
1, 5846, Note_off_c, 0, 67, 59
1, 5895, Note_on_c, 0, 76, 85
1, 5895, Note_on_c, 0, 84, 96
1, 5897, Note_on_c, 0, 59, 73
1, 5901, Note_on_c, 0, 72, 83
1, 5903, Note_on_c, 0, 62, 69
1, 5906, Note_on_c, 0, 67, 81
1, 5910, Note_on_c, 0, 65, 72
1, 5912, Note_on_c, 0, 55, 72
1, 5915, Note_on_c, 0, 79, 60
1, 5921, Note_off_c, 0, 76, 67
1, 5924, Note_off_c, 0, 72, 68
1, 5927, Note_off_c, 0, 65, 68
1, 5931, Note_off_c, 0, 59, 69
1, 5931, Note_off_c, 0, 62, 67
1, 5932, Note_off_c, 0, 67, 66
1, 5933, Note_off_c, 0, 55, 66
1, 5935, Note_off_c, 0, 79, 39
1, 5941, Note_off_c, 0, 84, 64
1, 5988, Note_on_c, 0, 77, 85
1, 5990, Note_on_c, 0, 86, 90
1, 5994, Note_on_c, 0, 62, 82
1, 5994, Note_on_c, 0, 65, 74
1, 5994, Note_on_c, 0, 74, 71
1, 5996, Note_on_c, 0, 67, 69
1, 6000, Note_on_c, 0, 59, 86
1, 6008, Note_on_c, 0, 55, 56
1, 6013, Note_off_c, 0, 77, 69
1, 6016, Note_off_c, 0, 86, 64
1, 6018, Note_on_c, 0, 81, 41
1, 6019, Note_off_c, 0, 74, 66
1, 6019, Note_off_c, 0, 62, 69
1, 6022, Note_off_c, 0, 65, 67
1, 6024, Note_off_c, 0, 67, 66
1, 6027, Note_off_c, 0, 59, 70
1, 6031, Note_off_c, 0, 55, 63
1, 6034, Note_on_c, 0, 79, 22
1, 6035, Note_off_c, 0, 79, 127
1, 6047, Note_off_c, 0, 81, 36
1, 6079, Note_on_c, 0, 79, 64
1, 6079, Note_on_c, 0, 88, 98
1, 6082, Note_on_c, 0, 76, 76
1, 6089, Note_on_c, 0, 62, 82
1, 6090, Note_on_c, 0, 59, 81
1, 6094, Note_on_c, 0, 67, 83
1, 6097, Note_on_c, 0, 83, 64
1, 6099, Note_on_c, 0, 55, 72
1, 6104, Note_off_c, 0, 76, 68
1, 6108, Note_off_c, 0, 79, 67
1, 6115, Note_off_c, 0, 67, 68
1, 6116, Note_off_c, 0, 62, 68
1, 6117, Note_off_c, 0, 83, 40
1, 6122, Note_on_c, 0, 65, 7
1, 6123, Note_off_c, 0, 88, 66
1, 6125, Note_off_c, 0, 59, 64
1, 6129, Note_off_c, 0, 55, 63
1, 6165, Note_off_c, 0, 65, 36
1, 6175, Note_on_c, 0, 77, 83
1, 6176, Note_on_c, 0, 86, 98
1, 6177, Note_on_c, 0, 74, 92
1, 6185, Note_on_c, 0, 67, 41
1, 6186, Note_on_c, 0, 62, 85
1, 6191, Note_on_c, 0, 59, 81
1, 6191, Note_on_c, 0, 81, 71
1, 6192, Note_on_c, 0, 55, 64
1, 6196, Note_on_c, 0, 76, 4
1, 6197, Note_off_c, 0, 74, 72
1, 6199, Note_on_c, 0, 65, 58
1, 6199, Note_off_c, 0, 77, 70
1, 6207, Note_off_c, 0, 81, 67
1, 6210, Note_off_c, 0, 67, 61
1, 6210, Note_off_c, 0, 76, 49
1, 6210, Note_off_c, 0, 62, 69
1, 6225, Note_off_c, 0, 59, 70
1, 6226, Note_off_c, 0, 86, 64
1, 6229, Note_off_c, 0, 65, 60
1, 6231, Note_off_c, 0, 55, 64
1, 6275, Note_on_c, 0, 84, 95
1, 6279, Note_on_c, 0, 76, 77
1, 6280, Note_on_c, 0, 72, 86
1, 6283, Note_on_c, 0, 62, 79
1, 6286, Note_on_c, 0, 59, 83
1, 6294, Note_on_c, 0, 65, 72
1, 6294, Note_on_c, 0, 67, 75
1, 6294, Note_off_c, 0, 72, 71
1, 6297, Note_on_c, 0, 55, 70
1, 6299, Note_off_c, 0, 76, 69
1, 6301, Note_on_c, 0, 79, 50
1, 6310, Note_off_c, 0, 65, 69
1, 6311, Note_off_c, 0, 62, 69
1, 6313, Note_off_c, 0, 67, 66
1, 6313, Note_off_c, 0, 84, 61
1, 6317, Note_off_c, 0, 59, 66
1, 6326, Note_off_c, 0, 55, 66
1, 6326, Note_off_c, 0, 79, 39
1, 6363, Note_on_c, 0, 83, 92
1, 6365, Note_on_c, 0, 74, 81
1, 6372, Note_on_c, 0, 71, 79
1, 6376, Note_on_c, 0, 62, 90
1, 6377, Note_on_c, 0, 76, 12
1, 6379, Note_on_c, 0, 65, 66
1, 6384, Note_on_c, 0, 77, 48
1, 6386, Note_on_c, 0, 59, 81
1, 6386, Note_off_c, 0, 74, 69
1, 6387, Note_off_c, 0, 71, 69
1, 6390, Note_on_c, 0, 55, 58
1, 6392, Note_on_c, 0, 67, 50
1, 6396, Note_off_c, 0, 65, 68
1, 6402, Note_off_c, 0, 62, 68
1, 6404, Note_off_c, 0, 83, 63
1, 6405, Note_off_c, 0, 76, 41
1, 6409, Note_off_c, 0, 77, 37
1, 6412, Note_off_c, 0, 59, 67
1, 6417, Note_off_c, 0, 67, 57
1, 6421, Note_off_c, 0, 55, 65
1, 6451, Note_on_c, 0, 81, 90
1, 6453, Note_on_c, 0, 74, 50
1, 6454, Note_on_c, 0, 72, 77
1, 6461, Note_on_c, 0, 69, 78
1, 6462, Note_on_c, 0, 59, 75
1, 6463, Note_on_c, 0, 62, 88
1, 6468, Note_on_c, 0, 76, 63
1, 6472, Note_on_c, 0, 65, 43
1, 6477, Note_off_c, 0, 69, 71
1, 6478, Note_off_c, 0, 74, 68
1, 6479, Note_off_c, 0, 72, 66
1, 6484, Note_on_c, 0, 67, 54
1, 6487, Note_off_c, 0, 62, 70
1, 6487, Note_off_c, 0, 76, 63
1, 6493, Note_on_c, 0, 55, 45
1, 6493, Note_off_c, 0, 81, 65
1, 6496, Note_off_c, 0, 59, 68
1, 6500, Note_off_c, 0, 65, 36
1, 6506, Note_off_c, 0, 67, 40
1, 6522, Note_off_c, 0, 55, 54
1, 6552, Note_on_c, 0, 79, 93
1, 6553, Note_on_c, 0, 69, 94
1, 6555, Note_on_c, 0, 62, 97
1, 6555, Note_on_c, 0, 74, 83
1, 6561, Note_on_c, 0, 59, 89
1, 6563, Note_on_c, 0, 67, 86
1, 6564, Note_on_c, 0, 65, 84
1, 6570, Note_on_c, 0, 55, 72
1, 6585, Note_off_c, 0, 67, 68
1, 6585, Note_off_c, 0, 69, 66
1, 6587, Note_off_c, 0, 74, 65
1, 6588, Note_off_c, 0, 65, 69
1, 6592, Note_off_c, 0, 59, 64
1, 6593, Note_off_c, 0, 62, 67
1, 6596, Note_off_c, 0, 79, 68
1, 6603, Note_off_c, 0, 55, 65
1, 6611, Note_on_c, 0, 76, 11
1, 6612, Note_off_c, 0, 76, 127
1, 6767, Note_on_c, 0, 62, 86
1, 6770, Note_on_c, 0, 77, 100
1, 6771, Note_on_c, 0, 59, 76
1, 6774, Note_on_c, 0, 69, 88
1, 6777, Note_on_c, 0, 72, 86
1, 6780, Note_on_c, 0, 67, 72
1, 6785, Note_on_c, 0, 55, 65
1, 6795, Note_off_c, 0, 62, 68
1, 6797, Note_off_c, 0, 67, 67
1, 6798, Note_off_c, 0, 69, 69
1, 6798, Note_off_c, 0, 72, 69
1, 6804, Note_off_c, 0, 59, 68
1, 6813, Note_off_c, 0, 55, 66
1, 6815, Note_off_c, 0, 77, 67
1, 7030, Note_on_c, 0, 64, 84
1, 7035, Note_on_c, 0, 76, 98
1, 7036, Note_on_c, 0, 71, 88
1, 7038, Note_on_c, 0, 55, 82
1, 7038, Note_on_c, 0, 59, 76
1, 7058, Control_c, 0, 64, 63
1, 7059, Note_off_c, 0, 64, 68
1, 7059, Note_off_c, 0, 71, 67
1, 7071, Note_off_c, 0, 59, 68
1, 7073, Control_c, 0, 64, 127
1, 7093, Note_off_c, 0, 55, 64
1, 7122, Poly_aftertouch_c, 0, 67, 0
1, 7122, Note_off_c, 0, 76, 66
1, 7138, Note_on_c, 0, 72, 80
1, 7170, Note_on_c, 0, 74, 62
1, 7181, Note_off_c, 0, 72, 64
1, 7199, Note_off_c, 0, 74, 68
1, 7215, Note_on_c, 0, 76, 81
1, 7229, Note_off_c, 0, 76, 70
1, 7238, Note_on_c, 0, 77, 79
1, 7253, Note_off_c, 0, 77, 42
1, 7255, Note_on_c, 0, 79, 81
1, 7270, Note_off_c, 0, 79, 43
1, 7271, Note_on_c, 0, 81, 80
1, 7287, Note_off_c, 0, 81, 43
1, 7288, Note_on_c, 0, 83, 83
1, 7303, Note_off_c, 0, 83, 71
1, 7306, Note_on_c, 0, 84, 84
1, 7307, Note_on_c, 0, 76, 26
1, 7320, Note_off_c, 0, 84, 68
1, 7325, Note_on_c, 0, 86, 80
1, 7339, Note_off_c, 0, 86, 43
1, 7342, Note_on_c, 0, 88, 75
1, 7348, Note_off_c, 0, 76, 39
1, 7357, Note_off_c, 0, 88, 43
1, 7360, Note_on_c, 0, 89, 79
1, 7375, Note_off_c, 0, 89, 43
1, 7375, Note_on_c, 0, 91, 78
1, 7390, Note_off_c, 0, 91, 43
1, 7391, Note_on_c, 0, 93, 80
1, 7404, Note_off_c, 0, 93, 44
1, 7406, Note_on_c, 0, 95, 85
1, 7420, Note_off_c, 0, 95, 44
1, 7426, Note_on_c, 0, 96, 81
1, 7438, Note_off_c, 0, 96, 44
1, 7459, Poly_aftertouch_c, 0, 84, 0
1, 7468, Note_on_c, 0, 98, 35
1, 7469, Note_off_c, 0, 98, 127
1, 7477, Poly_aftertouch_c, 0, 86, 0
1, 7502, Note_on_c, 0, 95, 8
1, 7518, Control_c, 0, 64, 63
1, 7521, Note_on_c, 0, 100, 112
1, 7530, Poly_aftertouch_c, 0, 91, 0
1, 7532, Control_c, 0, 64, 0
1, 7533, Poly_aftertouch_c, 0, 93, 0
1, 7533, Note_off_c, 0, 95, 40
1, 7542, Note_on_c, 0, 45, 74
1, 7548, Note_off_c, 0, 100, 71
1, 7566, Note_off_c, 0, 45, 67
1, 7577, Control_c, 0, 64, 44
1, 7591, Control_c, 0, 64, 67
1, 7606, Control_c, 0, 64, 81
1, 7621, Control_c, 0, 64, 96
1, 7636, Control_c, 0, 64, 127
1, 7822, Note_on_c, 0, 57, 64
1, 7822, Note_on_c, 0, 71, 75
1, 7823, Note_on_c, 0, 64, 75
1, 7823, Note_on_c, 0, 88, 81
1, 7824, Note_on_c, 0, 76, 86
1, 7826, Note_on_c, 0, 74, 82
1, 7830, Note_on_c, 0, 86, 83
1, 7846, Note_off_c, 0, 76, 69
1, 7848, Note_off_c, 0, 71, 66
1, 7849, Note_off_c, 0, 57, 65
1, 7849, Note_off_c, 0, 74, 68
1, 7853, Note_off_c, 0, 88, 68
1, 7859, Note_off_c, 0, 86, 67
1, 7869, Note_off_c, 0, 64, 60
1, 7924, Note_on_c, 0, 74, 13
1, 7925, Note_off_c, 0, 74, 127
1, 8000, Poly_aftertouch_c, 0, 76, 0
1, 8073, Control_c, 0, 64, 103
1, 8075, Note_on_c, 0, 76, 97
1, 8077, Note_on_c, 0, 62, 80
1, 8082, Note_on_c, 0, 66, 64
1, 8088, Control_c, 0, 64, 67
1, 8101, Note_off_c, 0, 62, 68
1, 8101, Note_off_c, 0, 66, 63
1, 8103, Control_c, 0, 64, 49
1, 8118, Control_c, 0, 64, 17
1, 8133, Control_c, 0, 64, 0
1, 8180, Note_on_c, 0, 69, 62
1, 8186, Note_on_c, 0, 64, 66
1, 8217, Note_off_c, 0, 64, 64
1, 8218, Note_on_c, 0, 72, 27
1, 8234, Note_off_c, 0, 69, 59
1, 8244, Note_off_c, 0, 72, 44
1, 8281, Control_c, 0, 64, 50
1, 8289, Note_on_c, 0, 50, 56
1, 8296, Note_on_c, 0, 62, 48
1, 8296, Control_c, 0, 64, 64
1, 8311, Control_c, 0, 64, 70
1, 8317, Note_off_c, 0, 50, 66
1, 8323, Note_off_c, 0, 62, 35
1, 8326, Control_c, 0, 64, 73
1, 8341, Control_c, 0, 64, 74
1, 8355, Control_c, 0, 64, 76
1, 8370, Control_c, 0, 64, 78
1, 8377, Note_on_c, 0, 72, 56
1, 8385, Control_c, 0, 64, 80
1, 8387, Note_on_c, 0, 69, 33
1, 8395, Note_off_c, 0, 76, 61
1, 8398, Note_on_c, 0, 64, 37
1, 8399, Control_c, 0, 64, 82
1, 8416, Note_off_c, 0, 72, 63
1, 8421, Note_off_c, 0, 69, 54
1, 8430, Note_off_c, 0, 64, 53
1, 8445, Control_c, 0, 67, 13
1, 8460, Control_c, 0, 64, 81
1, 8460, Control_c, 0, 67, 14
1, 8482, Control_c, 0, 64, 81
1, 8482, Control_c, 0, 67, 13
1, 8487, Note_on_c, 0, 66, 86
1, 8489, Note_on_c, 0, 45, 70
1, 8492, Note_on_c, 0, 76, 83
1, 8496, Control_c, 0, 67, 15
1, 8511, Note_off_c, 0, 66, 67
1, 8511, Control_c, 0, 67, 16
1, 8516, Note_off_c, 0, 45, 69
1, 8526, Control_c, 0, 67, 17
1, 8540, Note_off_c, 0, 76, 59
1, 8541, Control_c, 0, 67, 19
1, 8556, Control_c, 0, 64, 80
1, 8556, Control_c, 0, 67, 21
1, 8571, Control_c, 0, 67, 22
1, 8585, Note_on_c, 0, 76, 62
1, 8585, Control_c, 0, 64, 79
1, 8585, Control_c, 0, 67, 23
1, 8589, Note_on_c, 0, 64, 64
1, 8600, Control_c, 0, 64, 73
1, 8600, Control_c, 0, 67, 24
1, 8604, Note_on_c, 0, 72, 39
1, 8606, Note_off_c, 0, 76, 61
1, 8615, Control_c, 0, 64, 65
1, 8615, Control_c, 0, 67, 26
1, 8618, Note_off_c, 0, 64, 66
1, 8630, Control_c, 0, 64, 57
1, 8630, Control_c, 0, 67, 28
1, 8633, Note_off_c, 0, 72, 44
1, 8645, Control_c, 0, 64, 50
1, 8645, Control_c, 0, 67, 28
1, 8660, Control_c, 0, 64, 46
1, 8675, Control_c, 0, 64, 42
1, 8687, Note_on_c, 0, 62, 67
1, 8688, Note_on_c, 0, 76, 71
1, 8690, Control_c, 0, 64, 37
1, 8691, Note_on_c, 0, 64, 80
1, 8696, Note_on_c, 0, 69, 57
1, 8699, Note_on_c, 0, 57, 56
1, 8700, Note_on_c, 0, 72, 76
1, 8704, Control_c, 0, 64, 31
1, 8714, Note_off_c, 0, 62, 67
1, 8714, Note_off_c, 0, 64, 68
1, 8717, Note_off_c, 0, 72, 67
1, 8719, Control_c, 0, 64, 14
1, 8720, Note_off_c, 0, 69, 67
1, 8723, Note_off_c, 0, 57, 59
1, 8730, Note_off_c, 0, 76, 62
1, 8734, Control_c, 0, 64, 0
1, 8777, Note_on_c, 0, 64, 70
1, 8785, Note_on_c, 0, 76, 71
1, 8800, Note_on_c, 0, 72, 44
1, 8803, Note_on_c, 0, 71, 57
1, 8808, Control_c, 0, 67, 29
1, 8810, Note_off_c, 0, 64, 67
1, 8813, Note_on_c, 0, 69, 31
1, 8814, Note_on_c, 0, 74, 38
1, 8814, Note_off_c, 0, 76, 66
1, 8823, Control_c, 0, 67, 31
1, 8824, Note_off_c, 0, 72, 55
1, 8825, Note_off_c, 0, 71, 56
1, 8838, Control_c, 0, 67, 37
1, 8844, Note_off_c, 0, 74, 34
1, 8849, Note_off_c, 0, 69, 44
1, 8852, Control_c, 0, 67, 51
1, 8867, Control_c, 0, 67, 63
1, 8879, Note_on_c, 0, 76, 79
1, 8880, Note_on_c, 0, 62, 59
1, 8882, Control_c, 0, 67, 73
1, 8884, Note_on_c, 0, 71, 91
1, 8885, Note_on_c, 0, 64, 82
1, 8892, Note_on_c, 0, 67, 48
1, 8896, Control_c, 0, 64, 52
1, 8896, Control_c, 0, 67, 79
1, 8907, Note_off_c, 0, 71, 65
1, 8909, Note_off_c, 0, 64, 69
1, 8910, Note_off_c, 0, 62, 67
1, 8911, Note_on_c, 0, 74, 45
1, 8911, Control_c, 0, 64, 60
1, 8911, Control_c, 0, 67, 80
1, 8919, Note_off_c, 0, 67, 35
1, 8926, Control_c, 0, 64, 61
1, 8926, Control_c, 0, 67, 80
1, 8928, Note_off_c, 0, 76, 64
1, 8935, Note_off_c, 0, 74, 60
1, 8970, Control_c, 0, 67, 79
1, 8980, Note_on_c, 0, 71, 79
1, 8980, Note_on_c, 0, 76, 73
1, 8982, Note_on_c, 0, 64, 73
1, 9000, Control_c, 0, 67, 79
1, 9005, Note_off_c, 0, 71, 67
1, 9005, Note_off_c, 0, 76, 67
1, 9006, Note_off_c, 0, 64, 68
1, 9007, Note_on_c, 0, 74, 52
1, 9015, Control_c, 0, 64, 60
1, 9015, Control_c, 0, 67, 78
1, 9027, Note_off_c, 0, 74, 63
1, 9030, Control_c, 0, 64, 55
1, 9045, Control_c, 0, 64, 41
1, 9059, Control_c, 0, 64, 0
1, 9062, Note_on_c, 0, 62, 64
1, 9070, Note_on_c, 0, 76, 68
1, 9076, Note_on_c, 0, 50, 61
1, 9077, Note_on_c, 0, 71, 77
1, 9082, Note_on_c, 0, 64, 50
1, 9086, Note_off_c, 0, 62, 66
1, 9089, Control_c, 0, 67, 79
1, 9093, Note_on_c, 0, 74, 64
1, 9099, Note_off_c, 0, 71, 68
1, 9101, Note_off_c, 0, 50, 67
1, 9103, Note_off_c, 0, 64, 61
1, 9104, Control_c, 0, 67, 78
1, 9107, Note_off_c, 0, 76, 65
1, 9111, Note_off_c, 0, 74, 66
1, 9115, Note_on_c, 0, 65, 20
1, 9165, Note_on_c, 0, 76, 87
1, 9178, Control_c, 0, 67, 78
1, 9181, Note_off_c, 0, 65, 0
1, 9181, Note_on_c, 0, 65, 40
1, 9193, Control_c, 0, 67, 77
1, 9199, Note_off_c, 0, 76, 64
1, 9209, Note_off_c, 0, 65, 51
1, 9244, Control_c, 0, 67, 76
1, 9275, Control_c, 0, 64, 17
1, 9275, Control_c, 0, 67, 76
1, 9279, Note_on_c, 0, 76, 94
1, 9290, Control_c, 0, 64, 64
1, 9294, Note_on_c, 0, 45, 57
1, 9301, Note_on_c, 0, 67, 45
1, 9305, Note_on_c, 0, 47, 58
1, 9305, Control_c, 0, 64, 69
1, 9305, Control_c, 0, 67, 75
1, 9316, Note_off_c, 0, 45, 59
1, 9319, Control_c, 0, 64, 69
1, 9330, Note_off_c, 0, 47, 57
1, 9331, Note_off_c, 0, 67, 50
1, 9334, Control_c, 0, 64, 71
1, 9349, Control_c, 0, 64, 74
1, 9349, Control_c, 0, 67, 75
1, 9364, Control_c, 0, 64, 77
1, 9364, Control_c, 0, 67, 74
1, 9368, Note_on_c, 0, 72, 72
1, 9375, Note_off_c, 0, 76, 65
1, 9379, Control_c, 0, 64, 81
1, 9388, Note_off_c, 0, 72, 64
1, 9393, Control_c, 0, 64, 83
1, 9408, Control_c, 0, 64, 84
1, 9423, Control_c, 0, 64, 84
1, 9453, Control_c, 0, 67, 75
1, 9465, Note_on_c, 0, 79, 90
1, 9466, Note_on_c, 0, 69, 76
1, 9468, Control_c, 0, 64, 82
1, 9468, Control_c, 0, 67, 75
1, 9471, Note_on_c, 0, 57, 66
1, 9483, Control_c, 0, 64, 73
1, 9483, Control_c, 0, 67, 76
1, 9498, Control_c, 0, 64, 61
1, 9500, Note_off_c, 0, 69, 64
1, 9510, Note_off_c, 0, 57, 62
1, 9513, Control_c, 0, 64, 46
1, 9513, Control_c, 0, 67, 77
1, 9527, Control_c, 0, 64, 14
1, 9527, Control_c, 0, 67, 77
1, 9542, Control_c, 0, 64, 0
1, 9559, Note_on_c, 0, 74, 76
1, 9560, Note_on_c, 0, 71, 66
1, 9574, Note_on_c, 0, 64, 43
1, 9580, Note_off_c, 0, 79, 64
1, 9592, Note_off_c, 0, 71, 65
1, 9602, Note_off_c, 0, 64, 57
1, 9607, Note_off_c, 0, 74, 66
1, 9616, Control_c, 0, 67, 77
1, 9645, Control_c, 0, 67, 76
1, 9657, Note_on_c, 0, 78, 93
1, 9660, Control_c, 0, 64, 28
1, 9665, Note_on_c, 0, 62, 82
1, 9675, Control_c, 0, 64, 64
1, 9676, Note_on_c, 0, 66, 57
1, 9689, Note_off_c, 0, 62, 69
1, 9690, Control_c, 0, 64, 73
1, 9697, Note_off_c, 0, 66, 62
1, 9705, Control_c, 0, 64, 76
1, 9711, Note_off_c, 0, 78, 65
1, 9719, Control_c, 0, 64, 78
1, 9734, Control_c, 0, 64, 81
1, 9734, Control_c, 0, 67, 76
1, 9749, Control_c, 0, 64, 85
1, 9749, Control_c, 0, 67, 75
1, 9751, Note_on_c, 0, 76, 86
1, 9764, Control_c, 0, 64, 90
1, 9764, Control_c, 0, 67, 75
1, 9766, Note_on_c, 0, 72, 67
1, 9767, Note_on_c, 0, 69, 61
1, 9779, Control_c, 0, 64, 96
1, 9779, Control_c, 0, 67, 74
1, 9783, Note_off_c, 0, 72, 65
1, 9787, Note_off_c, 0, 69, 66
1, 9793, Control_c, 0, 64, 102
1, 9793, Control_c, 0, 67, 74
1, 9796, Note_off_c, 0, 76, 64
1, 9808, Control_c, 0, 64, 106
1, 9808, Control_c, 0, 67, 73
1, 9823, Control_c, 0, 64, 106
1, 9829, Poly_aftertouch_c, 0, 62, 0
1, 9837, Control_c, 0, 67, 74
1, 9846, Note_on_c, 0, 62, 56
1, 9851, Note_on_c, 0, 50, 72
1, 9852, Control_c, 0, 67, 74
1, 9853, Note_on_c, 0, 81, 91
1, 9867, Control_c, 0, 64, 102
1, 9867, Control_c, 0, 67, 75
1, 9881, Note_off_c, 0, 50, 67
1, 9882, Note_off_c, 0, 62, 66
1, 9882, Control_c, 0, 64, 92
1, 9897, Control_c, 0, 64, 78
1, 9912, Control_c, 0, 64, 65
1, 9912, Control_c, 0, 67, 75
1, 9927, Control_c, 0, 64, 48
1, 9927, Control_c, 0, 67, 76
1, 9941, Note_off_c, 0, 81, 44
1, 9942, Control_c, 0, 64, 0
1, 9952, Note_on_c, 0, 72, 76
1, 9979, Control_c, 0, 67, 75
1, 9981, Note_off_c, 0, 72, 67
1, 10054, Control_c, 0, 67, 74
1, 10057, Note_on_c, 0, 45, 87
1, 10064, Note_on_c, 0, 74, 76
1, 10067, Note_on_c, 0, 76, 79
1, 10069, Control_c, 0, 64, 59
1, 10069, Control_c, 0, 67, 72
1, 10083, Control_c, 0, 64, 82
1, 10083, Control_c, 0, 67, 71
1, 10085, Note_off_c, 0, 45, 68
1, 10097, Note_off_c, 0, 76, 60
1, 10098, Control_c, 0, 64, 90
1, 10098, Control_c, 0, 67, 70
1, 10109, Note_off_c, 0, 74, 64
1, 10113, Control_c, 0, 64, 97
1, 10113, Control_c, 0, 67, 69
1, 10128, Control_c, 0, 64, 103
1, 10128, Control_c, 0, 67, 69
1, 10142, Control_c, 0, 64, 113
1, 10142, Control_c, 0, 67, 68
1, 10157, Control_c, 0, 64, 127
1, 10157, Control_c, 0, 67, 66
1, 10165, Note_on_c, 0, 75, 79
1, 10169, Note_on_c, 0, 71, 68
1, 10172, Control_c, 0, 67, 61
1, 10185, Note_off_c, 0, 71, 65
1, 10187, Control_c, 0, 67, 51
1, 10189, Note_off_c, 0, 75, 69
1, 10202, Control_c, 0, 67, 38
1, 10216, Control_c, 0, 67, 20
1, 10231, Control_c, 0, 67, 0
1, 10257, Note_on_c, 0, 79, 89
1, 10260, Note_on_c, 0, 62, 82
1, 10269, Note_on_c, 0, 57, 48
1, 10285, Note_on_c, 0, 59, 40
1, 10313, Note_off_c, 0, 57, 45
1, 10317, Note_off_c, 0, 59, 51
1, 10324, Poly_aftertouch_c, 0, 75, 0
1, 10331, Note_off_c, 0, 62, 52
1, 10345, Note_on_c, 0, 78, 89
1, 10350, Control_c, 0, 64, 101
1, 10355, Note_on_c, 0, 64, 54
1, 10361, Note_off_c, 0, 79, 62
1, 10365, Control_c, 0, 64, 72
1, 10377, Note_off_c, 0, 64, 62
1, 10380, Control_c, 0, 64, 41
1, 10380, Note_on_c, 0, 71, 66
1, 10395, Control_c, 0, 64, 0
1, 10425, Note_off_c, 0, 78, 62
1, 10432, Note_on_c, 0, 76, 89
1, 10446, Note_off_c, 0, 71, 65
1, 10451, Note_on_c, 0, 64, 70
1, 10475, Note_off_c, 0, 76, 66
1, 10483, Control_c, 0, 64, 61
1, 10498, Control_c, 0, 64, 95
1, 10509, Note_on_c, 0, 74, 89
1, 10513, Control_c, 0, 64, 113
1, 10518, Note_on_c, 0, 62, 86
1, 10525, Note_off_c, 0, 64, 65
1, 10528, Control_c, 0, 64, 127
1, 10539, Note_off_c, 0, 62, 69
1, 10590, Note_on_c, 0, 78, 88
1, 10592, Note_off_c, 0, 74, 63
1, 10606, Note_on_c, 0, 55, 72
1, 10627, Note_off_c, 0, 78, 66
1, 10657, Note_on_c, 0, 88, 53
1, 10672, Note_off_c, 0, 55, 58
1, 10676, Note_off_c, 0, 88, 65
1, 10678, Note_on_c, 0, 50, 61
1, 10678, Poly_aftertouch_c, 0, 62, 0
1, 10726, Note_on_c, 0, 88, 90
1, 10732, Note_off_c, 0, 50, 59
1, 10782, Note_on_c, 0, 45, 83
1, 10798, Note_off_c, 0, 88, 68
1, 10799, Note_on_c, 0, 101, 102
1, 10805, Note_on_c, 0, 100, 91
1, 10817, Note_off_c, 0, 101, 71
1, 10824, Note_off_c, 0, 45, 64
1, 10827, Note_off_c, 0, 100, 69
1, 10887, Poly_aftertouch_c, 0, 46, 0
1, 11025, Control_c, 0, 64, 74
1, 11027, Note_on_c, 0, 71, 85
1, 11029, Note_on_c, 0, 64, 88
1, 11030, Note_on_c, 0, 57, 71
1, 11035, Note_on_c, 0, 76, 102
1, 11035, Note_on_c, 0, 88, 105
1, 11040, Control_c, 0, 64, 47
1, 11042, Note_on_c, 0, 74, 88
1, 11054, Control_c, 0, 64, 0
1, 11055, Note_off_c, 0, 71, 64
1, 11056, Note_off_c, 0, 74, 74
1, 11057, Note_off_c, 0, 76, 67
1, 11060, Note_off_c, 0, 88, 66
1, 11066, Note_off_c, 0, 57, 67
1, 11093, Note_off_c, 0, 64, 65
1, 11137, Note_on_c, 0, 74, 17
1, 11138, Note_off_c, 0, 74, 127
1, 11262, Note_on_c, 0, 62, 87
1, 11267, Note_on_c, 0, 76, 92
1, 11271, Note_on_c, 0, 66, 68
1, 11277, Control_c, 0, 64, 59
1, 11287, Note_off_c, 0, 62, 69
1, 11289, Note_off_c, 0, 66, 67
1, 11291, Control_c, 0, 64, 69
1, 11306, Control_c, 0, 64, 69
1, 11321, Control_c, 0, 64, 70
1, 11336, Control_c, 0, 64, 73
1, 11351, Control_c, 0, 64, 77
1, 11365, Control_c, 0, 64, 82
1, 11366, Note_on_c, 0, 69, 58
1, 11376, Note_on_c, 0, 64, 68
1, 11379, Note_on_c, 0, 72, 47
1, 11380, Control_c, 0, 64, 85
1, 11395, Control_c, 0, 64, 87
1, 11405, Note_off_c, 0, 64, 65
1, 11410, Note_off_c, 0, 72, 60
1, 11415, Note_off_c, 0, 69, 61
1, 11453, Control_c, 0, 64, 81
1, 11476, Control_c, 0, 64, 72
1, 11490, Control_c, 0, 64, 66
1, 11496, Note_on_c, 0, 64, 23
1, 11505, Control_c, 0, 64, 62
1, 11507, Note_on_c, 0, 50, 10
1, 11520, Control_c, 0, 64, 60
1, 11529, Note_off_c, 0, 64, 43
1, 11535, Control_c, 0, 64, 59
1, 11550, Control_c, 0, 64, 58
1, 11557, Note_off_c, 0, 50, 27
1, 11561, Poly_aftertouch_c, 0, 62, 0
1, 11564, Note_on_c, 0, 72, 65
1, 11565, Control_c, 0, 64, 55
1, 11566, Note_on_c, 0, 69, 54
1, 11573, Note_on_c, 0, 64, 47
1, 11579, Control_c, 0, 64, 47
1, 11583, Note_off_c, 0, 76, 63
1, 11589, Note_off_c, 0, 69, 63
1, 11594, Control_c, 0, 64, 27
1, 11596, Note_off_c, 0, 72, 63
1, 11601, Note_off_c, 0, 64, 58
1, 11609, Control_c, 0, 64, 0
1, 11659, Note_on_c, 0, 45, 76
1, 11666, Note_on_c, 0, 64, 81
1, 11666, Note_on_c, 0, 72, 71
1, 11669, Control_c, 0, 67, 8
1, 11671, Note_on_c, 0, 66, 77
1, 11673, Note_on_c, 0, 69, 66
1, 11675, Note_on_c, 0, 76, 70
1, 11681, Note_off_c, 0, 64, 71
1, 11684, Control_c, 0, 67, 13
1, 11691, Note_off_c, 0, 45, 66
1, 11693, Note_off_c, 0, 69, 65
1, 11696, Note_off_c, 0, 72, 66
1, 11698, Note_off_c, 0, 66, 67
1, 11699, Control_c, 0, 67, 18
1, 11702, Note_off_c, 0, 76, 65
1, 11713, Control_c, 0, 67, 25
1, 11728, Control_c, 0, 67, 37
1, 11743, Control_c, 0, 67, 46
1, 11755, Note_on_c, 0, 76, 75
1, 11758, Control_c, 0, 67, 53
1, 11759, Note_on_c, 0, 64, 66
1, 11761, Note_on_c, 0, 66, 67
1, 11761, Note_on_c, 0, 69, 75
1, 11769, Note_on_c, 0, 72, 67
1, 11773, Control_c, 0, 67, 57
1, 11777, Note_off_c, 0, 64, 67
1, 11788, Note_off_c, 0, 66, 66
1, 11788, Control_c, 0, 67, 59
1, 11789, Note_off_c, 0, 69, 68
1, 11789, Note_off_c, 0, 76, 59
1, 11795, Note_off_c, 0, 72, 64
1, 11802, Control_c, 0, 67, 60
1, 11817, Control_c, 0, 67, 62
1, 11832, Control_c, 0, 67, 65
1, 11847, Control_c, 0, 67, 68
1, 11853, Note_on_c, 0, 76, 77
1, 11856, Note_on_c, 0, 66, 69
1, 11857, Note_on_c, 0, 57, 69
1, 11858, Note_on_c, 0, 64, 62
1, 11859, Note_on_c, 0, 62, 70
1, 11862, Control_c, 0, 67, 71
1, 11864, Note_on_c, 0, 69, 70
1, 11871, Note_on_c, 0, 72, 60
1, 11876, Control_c, 0, 67, 71
1, 11877, Note_off_c, 0, 64, 64
1, 11878, Note_off_c, 0, 62, 67
1, 11879, Note_off_c, 0, 57, 65
1, 11882, Note_off_c, 0, 66, 66
1, 11887, Note_off_c, 0, 76, 55
1, 11889, Note_off_c, 0, 69, 69
1, 11890, Note_off_c, 0, 72, 63
1, 11948, Note_on_c, 0, 76, 66
1, 11958, Note_on_c, 0, 64, 56
1, 11960, Note_on_c, 0, 72, 68
1, 11961, Note_on_c, 0, 68, 52
1, 11965, Note_on_c, 0, 70, 46
1, 11968, Note_off_c, 0, 76, 61
1, 11981, Control_c, 0, 67, 71
1, 11983, Note_off_c, 0, 64, 38
1, 11983, Note_off_c, 0, 68, 61
1, 11985, Note_off_c, 0, 72, 66
1, 11990, Note_off_c, 0, 70, 36
1, 12010, Control_c, 0, 67, 71
1, 12025, Control_c, 0, 64, 40
1, 12039, Control_c, 0, 64, 59
1, 12039, Control_c, 0, 67, 72
1, 12044, Note_on_c, 0, 64, 80
1, 12044, Note_on_c, 0, 76, 82
1, 12046, Note_on_c, 0, 67, 66
1, 12048, Note_on_c, 0, 71, 81
1, 12050, Note_on_c, 0, 62, 66
1, 12052, Note_on_c, 0, 74, 75
1, 12054, Control_c, 0, 64, 57
1, 12064, Note_on_c, 0, 72, 45
1, 12065, Note_off_c, 0, 72, 127
1, 12067, Note_off_c, 0, 67, 66
1, 12067, Note_off_c, 0, 74, 71
1, 12069, Control_c, 0, 64, 55
1, 12070, Note_off_c, 0, 71, 69
1, 12071, Note_off_c, 0, 64, 68
1, 12072, Note_off_c, 0, 76, 65
1, 12075, Note_on_c, 0, 65, 44
1, 12079, Note_off_c, 0, 62, 67
1, 12084, Control_c, 0, 64, 54
1, 12099, Control_c, 0, 64, 55
1, 12101, Note_off_c, 0, 65, 37
1, 12113, Control_c, 0, 67, 71
1, 12128, Control_c, 0, 64, 54
1, 12128, Control_c, 0, 67, 71
1, 12133, Note_on_c, 0, 71, 77
1, 12142, Note_on_c, 0, 64, 61
1, 12143, Control_c, 0, 64, 51
1, 12143, Control_c, 0, 67, 70
1, 12144, Note_on_c, 0, 74, 63
1, 12144, Note_on_c, 0, 76, 79
1, 12158, Control_c, 0, 64, 46
1, 12158, Control_c, 0, 67, 70
1, 12163, Note_off_c, 0, 74, 66
1, 12166, Note_off_c, 0, 76, 68
1, 12167, Note_off_c, 0, 71, 61
1, 12173, Note_off_c, 0, 64, 65
1, 12173, Control_c, 0, 64, 34
1, 12187, Control_c, 0, 64, 0
1, 12223, Note_on_c, 0, 62, 24
1, 12234, Note_on_c, 0, 76, 69
1, 12238, Note_on_c, 0, 50, 62
1, 12240, Poly_aftertouch_c, 0, 73, 0
1, 12244, Note_on_c, 0, 74, 70
1, 12253, Note_on_c, 0, 65, 58
1, 12260, Note_on_c, 0, 71, 47
1, 12264, Note_on_c, 0, 64, 51
1, 12264, Note_off_c, 0, 62, 64
1, 12265, Note_off_c, 0, 50, 67
1, 12267, Note_off_c, 0, 76, 64
1, 12269, Note_off_c, 0, 74, 68
1, 12273, Note_off_c, 0, 65, 61
1, 12282, Note_off_c, 0, 71, 39
1, 12290, Note_off_c, 0, 64, 59
1, 12328, Control_c, 0, 67, 69
1, 12336, Note_on_c, 0, 76, 74
1, 12338, Note_on_c, 0, 65, 71
1, 12343, Control_c, 0, 67, 69
1, 12349, Note_on_c, 0, 71, 60
1, 12350, Note_on_c, 0, 74, 31
1, 12356, Note_off_c, 0, 65, 65
1, 12359, Note_off_c, 0, 76, 68
1, 12368, Note_off_c, 0, 71, 61
1, 12383, Note_off_c, 0, 74, 33
1, 12387, Control_c, 0, 67, 70
1, 12402, Control_c, 0, 67, 71
1, 12417, Control_c, 0, 67, 71
1, 12425, Note_on_c, 0, 76, 73
1, 12432, Control_c, 0, 67, 72
1, 12441, Note_on_c, 0, 67, 74
1, 12456, Note_on_c, 0, 47, 56
1, 12462, Control_c, 0, 64, 56
1, 12462, Control_c, 0, 67, 73
1, 12469, Note_off_c, 0, 67, 66
1, 12477, Control_c, 0, 64, 63
1, 12477, Control_c, 0, 67, 72
1, 12479, Note_off_c, 0, 47, 58
1, 12492, Control_c, 0, 67, 73
1, 12529, Note_on_c, 0, 74, 69
1, 12532, Note_on_c, 0, 71, 43
1, 12544, Note_off_c, 0, 76, 63
1, 12556, Note_off_c, 0, 71, 62
1, 12557, Note_off_c, 0, 74, 66
1, 12566, Control_c, 0, 64, 62
1, 12566, Control_c, 0, 67, 73
1, 12581, Control_c, 0, 64, 56
1, 12581, Control_c, 0, 67, 74
1, 12596, Control_c, 0, 64, 46
1, 12596, Control_c, 0, 67, 75
1, 12610, Control_c, 0, 64, 18
1, 12610, Control_c, 0, 67, 75
1, 12625, Control_c, 0, 64, 0
1, 12625, Control_c, 0, 67, 79
1, 12634, Note_on_c, 0, 57, 62
1, 12634, Note_on_c, 0, 69, 67
1, 12640, Control_c, 0, 67, 83
1, 12642, Note_on_c, 0, 78, 80
1, 12655, Control_c, 0, 67, 88
1, 12661, Note_off_c, 0, 69, 67
1, 12662, Note_off_c, 0, 57, 65
1, 12669, Control_c, 0, 67, 93
1, 12682, Note_off_c, 0, 78, 56
1, 12684, Control_c, 0, 67, 94
1, 12699, Control_c, 0, 67, 95
1, 12726, Note_on_c, 0, 71, 62
1, 12735, Note_on_c, 0, 79, 75
1, 12754, Note_off_c, 0, 71, 66
1, 12768, Note_off_c, 0, 79, 59
1, 12774, Control_c, 0, 67, 95
1, 12818, Control_c, 0, 64, 35
1, 12818, Control_c, 0, 67, 96
1, 12823, Note_on_c, 0, 78, 65
1, 12828, Note_on_c, 0, 62, 68
1, 12833, Control_c, 0, 64, 55
1, 12836, Note_on_c, 0, 72, 68
1, 12843, Note_on_c, 0, 66, 41
1, 12848, Control_c, 0, 64, 60
1, 12851, Note_off_c, 0, 72, 65
1, 12852, Note_off_c, 0, 62, 67
1, 12862, Control_c, 0, 64, 61
1, 12862, Control_c, 0, 67, 95
1, 12872, Note_off_c, 0, 66, 55
1, 12876, Note_off_c, 0, 78, 62
1, 12877, Control_c, 0, 64, 61
1, 12877, Control_c, 0, 67, 95
1, 12892, Control_c, 0, 64, 62
1, 12907, Control_c, 0, 64, 63
1, 12907, Control_c, 0, 67, 94
1, 12922, Control_c, 0, 64, 64
1, 12922, Control_c, 0, 67, 94
1, 12926, Note_on_c, 0, 76, 78
1, 12929, Note_on_c, 0, 72, 57
1, 12936, Control_c, 0, 67, 93
1, 12951, Note_on_c, 0, 69, 36
1, 12951, Note_off_c, 0, 72, 58
1, 12951, Control_c, 0, 67, 93
1, 12954, Note_off_c, 0, 76, 66
1, 12973, Control_c, 0, 64, 63
1, 12988, Control_c, 0, 64, 59
1, 12991, Note_off_c, 0, 69, 55
1, 13003, Control_c, 0, 64, 50
1, 13018, Control_c, 0, 64, 23
1, 13018, Control_c, 0, 67, 93
1, 13025, Note_on_c, 0, 50, 69
1, 13029, Note_on_c, 0, 72, 80
1, 13033, Control_c, 0, 64, 0
1, 13041, Note_on_c, 0, 81, 63
1, 13043, Note_on_c, 0, 79, 61
1, 13050, Note_off_c, 0, 72, 68
1, 13051, Note_off_c, 0, 50, 67
1, 13058, Note_off_c, 0, 81, 65
1, 13060, Note_off_c, 0, 79, 64
1, 13062, Control_c, 0, 67, 94
1, 13077, Control_c, 0, 67, 94
1, 13114, Note_on_c, 0, 72, 56
1, 13119, Note_on_c, 0, 79, 89
1, 13122, Control_c, 0, 67, 95
1, 13122, Note_on_c, 0, 69, 62
1, 13137, Control_c, 0, 67, 94
1, 13142, Note_off_c, 0, 69, 64
1, 13146, Note_off_c, 0, 72, 64
1, 13173, Note_off_c, 0, 79, 62
1, 13212, Note_on_c, 0, 45, 65
1, 13215, Note_on_c, 0, 78, 92
1, 13216, Note_on_c, 0, 69, 80
1, 13218, Note_on_c, 0, 72, 80
1, 13225, Control_c, 0, 64, 47
1, 13233, Note_off_c, 0, 69, 68
1, 13241, Control_c, 0, 64, 62
1, 13242, Note_off_c, 0, 72, 66
1, 13254, Note_off_c, 0, 45, 66
1, 13256, Control_c, 0, 64, 64
1, 13278, Note_off_c, 0, 78, 63
1, 13300, Control_c, 0, 64, 64
1, 13304, Note_on_c, 0, 72, 69
1, 13312, Note_on_c, 0, 69, 61
1, 13312, Note_on_c, 0, 76, 84
1, 13315, Control_c, 0, 67, 94
1, 13335, Note_off_c, 0, 69, 61
1, 13337, Note_off_c, 0, 72, 66
1, 13345, Control_c, 0, 64, 64
1, 13346, Note_off_c, 0, 76, 63
1, 13359, Control_c, 0, 64, 61
1, 13374, Control_c, 0, 64, 55
1, 13374, Control_c, 0, 67, 94
1, 13389, Control_c, 0, 64, 42
1, 13404, Note_on_c, 0, 72, 79
1, 13404, Control_c, 0, 64, 9
1, 13404, Control_c, 0, 67, 95
1, 13405, Note_on_c, 0, 69, 76
1, 13406, Note_on_c, 0, 79, 89
1, 13413, Note_on_c, 0, 57, 74
1, 13416, Note_on_c, 0, 62, 70
1, 13419, Control_c, 0, 64, 0
1, 13419, Control_c, 0, 67, 95
1, 13420, Note_off_c, 0, 69, 73
1, 13427, Note_off_c, 0, 72, 67
1, 13433, Control_c, 0, 67, 96
1, 13435, Note_off_c, 0, 62, 68
1, 13442, Note_off_c, 0, 57, 65
1, 13448, Control_c, 0, 67, 96
1, 13495, Note_on_c, 0, 72, 61
1, 13499, Note_on_c, 0, 69, 61
1, 13499, Note_on_c, 0, 78, 79
1, 13507, Control_c, 0, 67, 97
1, 13509, Note_off_c, 0, 79, 62
1, 13519, Note_off_c, 0, 69, 64
1, 13525, Note_off_c, 0, 72, 65
1, 13532, Note_on_c, 0, 73, 28
1, 13537, Control_c, 0, 67, 96
1, 13552, Note_off_c, 0, 78, 62
1, 13565, Note_off_c, 0, 73, 34
1, 13595, Note_on_c, 0, 62, 62
1, 13596, Note_on_c, 0, 67, 72
1, 13608, Note_on_c, 0, 74, 69
1, 13608, Note_on_c, 0, 76, 73
1, 13611, Control_c, 0, 64, 53
1, 13611, Control_c, 0, 67, 97
1, 13614, Note_on_c, 0, 71, 56
1, 13622, Note_off_c, 0, 67, 67
1, 13625, Note_off_c, 0, 62, 67
1, 13625, Note_off_c, 0, 74, 68
1, 13626, Control_c, 0, 64, 61
1, 13626, Control_c, 0, 67, 96
1, 13632, Note_off_c, 0, 71, 63
1, 13633, Note_off_c, 0, 76, 66
1, 13685, Control_c, 0, 67, 96
1, 13696, Note_on_c, 0, 74, 78
1, 13710, Note_on_c, 0, 76, 57
1, 13712, Note_on_c, 0, 71, 66
1, 13722, Control_c, 0, 64, 59
1, 13729, Note_off_c, 0, 71, 66
1, 13729, Note_off_c, 0, 76, 65
1, 13732, Note_off_c, 0, 74, 65
1, 13736, Control_c, 0, 64, 52
1, 13751, Control_c, 0, 64, 39
1, 13766, Control_c, 0, 64, 0
1, 13781, Control_c, 0, 67, 97
1, 13799, Note_on_c, 0, 76, 77
1, 13808, Note_on_c, 0, 50, 68
1, 13811, Control_c, 0, 67, 97
1, 13815, Note_on_c, 0, 71, 49
1, 13817, Note_on_c, 0, 74, 43
1, 13826, Note_off_c, 0, 76, 63
1, 13835, Note_off_c, 0, 50, 67
1, 13842, Note_off_c, 0, 71, 52
1, 13844, Note_off_c, 0, 74, 57
1, 13855, Control_c, 0, 67, 98
1, 13891, Note_on_c, 0, 71, 37
1, 13894, Note_on_c, 0, 76, 52
1, 13899, Control_c, 0, 67, 97
1, 13909, Note_on_c, 0, 79, 62
1, 13915, Note_off_c, 0, 71, 51
1, 13920, Note_off_c, 0, 76, 57
1, 13939, Note_off_c, 0, 79, 65
1, 13944, Control_c, 0, 67, 97
1, 13983, Note_on_c, 0, 74, 69
1, 13995, Note_on_c, 0, 47, 76
1, 13995, Note_on_c, 0, 78, 73
1, 14003, Control_c, 0, 64, 40
1, 14003, Control_c, 0, 67, 97
1, 14008, Note_on_c, 0, 71, 39
1, 14008, Note_off_c, 0, 74, 67
1, 14017, Control_c, 0, 64, 58
1, 14023, Note_off_c, 0, 78, 61
1, 14026, Note_off_c, 0, 47, 69
1, 14034, Control_c, 0, 64, 60
1, 14037, Note_off_c, 0, 71, 36
1, 14049, Control_c, 0, 67, 98
1, 14063, Control_c, 0, 67, 97
1, 14078, Control_c, 0, 67, 98
1, 14088, Note_on_c, 0, 74, 50
1, 14093, Control_c, 0, 67, 97
1, 14094, Note_on_c, 0, 76, 60
1, 14108, Note_on_c, 0, 71, 52
1, 14112, Note_off_c, 0, 74, 59
1, 14120, Note_off_c, 0, 76, 65
1, 14122, Control_c, 0, 64, 59
1, 14130, Note_off_c, 0, 71, 58
1, 14137, Control_c, 0, 64, 54
1, 14152, Control_c, 0, 64, 44
1, 14167, Control_c, 0, 64, 24
1, 14167, Control_c, 0, 67, 98
1, 14181, Control_c, 0, 64, 0
1, 14182, Note_on_c, 0, 74, 69
1, 14189, Note_on_c, 0, 78, 80
1, 14197, Note_on_c, 0, 71, 64
1, 14199, Note_on_c, 0, 57, 53
1, 14201, Note_off_c, 0, 74, 67
1, 14207, Note_on_c, 0, 69, 62
1, 14211, Control_c, 0, 67, 98
1, 14215, Note_off_c, 0, 71, 66
1, 14222, Note_off_c, 0, 78, 60
1, 14227, Note_off_c, 0, 57, 64
1, 14229, Note_off_c, 0, 69, 67
1, 14255, Control_c, 0, 67, 99
1, 14285, Control_c, 0, 67, 99
1, 14288, Note_on_c, 0, 79, 85
1, 14290, Note_on_c, 0, 71, 66
1, 14302, Note_on_c, 0, 72, 60
1, 14307, Note_off_c, 0, 71, 64
1, 14321, Note_off_c, 0, 72, 39
1, 14327, Note_off_c, 0, 79, 53
1, 14359, Control_c, 0, 67, 99
1, 14374, Control_c, 0, 64, 12
1, 14380, Note_on_c, 0, 66, 69
1, 14380, Note_on_c, 0, 78, 90
1, 14383, Note_on_c, 0, 62, 74
1, 14383, Note_on_c, 0, 72, 82
1, 14389, Control_c, 0, 64, 49
1, 14399, Note_off_c, 0, 66, 66
1, 14404, Control_c, 0, 64, 60
1, 14409, Note_off_c, 0, 62, 68
1, 14410, Note_off_c, 0, 72, 64
1, 14418, Note_on_c, 0, 69, 21
1, 14419, Control_c, 0, 64, 62
1, 14433, Control_c, 0, 64, 62
1, 14433, Control_c, 0, 67, 98
1, 14449, Control_c, 0, 64, 63
1, 14464, Note_off_c, 0, 78, 57
1, 14471, Control_c, 0, 64, 63
1, 14477, Note_on_c, 0, 76, 85
1, 14486, Control_c, 0, 64, 64
1, 14497, Note_on_c, 0, 72, 51
1, 14499, Note_on_c, 0, 73, 50
1, 14513, Note_off_c, 0, 72, 62
1, 14515, Control_c, 0, 64, 63
1, 14520, Note_off_c, 0, 73, 62
1, 14523, Note_off_c, 0, 76, 64
1, 14530, Control_c, 0, 64, 59
1, 14545, Control_c, 0, 64, 50
1, 14559, Note_off_c, 0, 69, 26
1, 14560, Control_c, 0, 64, 31
1, 14560, Control_c, 0, 67, 99
1, 14575, Control_c, 0, 64, 0
1, 14575, Control_c, 0, 67, 99
1, 14584, Note_on_c, 0, 50, 71
1, 14585, Note_on_c, 0, 81, 87
1, 14589, Note_on_c, 0, 72, 73
1, 14613, Note_off_c, 0, 50, 66
1, 14615, Note_off_c, 0, 81, 61
1, 14616, Note_off_c, 0, 72, 65
1, 14634, Control_c, 0, 67, 100
1, 14664, Control_c, 0, 67, 100
1, 14675, Note_on_c, 0, 72, 79
1, 14678, Note_on_c, 0, 69, 58
1, 14683, Note_on_c, 0, 79, 60
1, 14687, Note_on_c, 0, 81, 69
1, 14699, Note_off_c, 0, 69, 62
1, 14701, Note_off_c, 0, 72, 66
1, 14704, Note_off_c, 0, 81, 68
1, 14714, Note_off_c, 0, 79, 65
1, 14753, Control_c, 0, 67, 100
1, 14763, Note_on_c, 0, 45, 80
1, 14768, Control_c, 0, 64, 13
1, 14774, Note_on_c, 0, 69, 72
1, 14774, Note_on_c, 0, 72, 73
1, 14775, Note_on_c, 0, 78, 86
1, 14783, Control_c, 0, 64, 53
1, 14783, Control_c, 0, 67, 100
1, 14793, Note_off_c, 0, 69, 63
1, 14797, Control_c, 0, 64, 63
1, 14804, Note_off_c, 0, 45, 66
1, 14807, Note_off_c, 0, 72, 64
1, 14812, Control_c, 0, 64, 64
1, 14827, Control_c, 0, 64, 64
1, 14842, Control_c, 0, 64, 65
1, 14857, Control_c, 0, 64, 67
1, 14867, Note_on_c, 0, 69, 66
1, 14869, Note_on_c, 0, 76, 79
1, 14872, Control_c, 0, 64, 67
1, 14872, Control_c, 0, 67, 100
1, 14880, Note_on_c, 0, 72, 69
1, 14884, Note_off_c, 0, 69, 67
1, 14884, Note_off_c, 0, 78, 62
1, 14887, Control_c, 0, 64, 68
1, 14902, Control_c, 0, 64, 67
1, 14902, Control_c, 0, 67, 99
1, 14905, Note_off_c, 0, 72, 64
1, 14917, Control_c, 0, 64, 66
1, 14917, Control_c, 0, 67, 100
1, 14917, Note_off_c, 0, 76, 63
1, 14932, Control_c, 0, 64, 58
1, 14946, Control_c, 0, 64, 45
1, 14946, Control_c, 0, 67, 100
1, 14961, Control_c, 0, 64, 22
1, 14961, Control_c, 0, 67, 101
1, 14962, Note_on_c, 0, 72, 83
1, 14964, Note_on_c, 0, 62, 81
1, 14965, Note_on_c, 0, 69, 73
1, 14969, Note_on_c, 0, 79, 85
1, 14971, Note_on_c, 0, 57, 72
1, 14976, Control_c, 0, 64, 0
1, 14976, Control_c, 0, 67, 102
1, 14985, Note_off_c, 0, 69, 69
1, 14991, Note_off_c, 0, 62, 66
1, 14991, Control_c, 0, 67, 103
1, 14993, Note_off_c, 0, 72, 65
1, 15002, Note_off_c, 0, 57, 64
1, 15005, Control_c, 0, 67, 103
1, 15035, Control_c, 0, 67, 104
1, 15050, Control_c, 0, 67, 104
1, 15066, Note_on_c, 0, 72, 77
1, 15066, Note_on_c, 0, 69, 59
1, 15067, Note_on_c, 0, 78, 83
1, 15076, Note_off_c, 0, 79, 57
1, 15079, Control_c, 0, 67, 105
1, 15090, Note_off_c, 0, 69, 61
1, 15093, Note_off_c, 0, 72, 67
1, 15109, Control_c, 0, 67, 104
1, 15113, Note_off_c, 0, 78, 60
1, 15124, Control_c, 0, 67, 104
1, 15138, Control_c, 0, 67, 103
1, 15164, Note_on_c, 0, 62, 82
1, 15164, Note_on_c, 0, 76, 87
1, 15167, Note_on_c, 0, 71, 81
1, 15168, Control_c, 0, 64, 46
1, 15168, Control_c, 0, 67, 103
1, 15169, Note_on_c, 0, 67, 70
1, 15171, Note_on_c, 0, 69, 55
1, 15173, Note_on_c, 0, 74, 66
1, 15183, Control_c, 0, 64, 61
1, 15190, Note_off_c, 0, 74, 68
1, 15191, Note_off_c, 0, 71, 68
1, 15192, Note_off_c, 0, 62, 68
1, 15193, Note_off_c, 0, 69, 61
1, 15194, Note_off_c, 0, 76, 63
1, 15196, Note_off_c, 0, 67, 66
1, 15198, Control_c, 0, 64, 63
1, 15198, Control_c, 0, 67, 102
1, 15250, Control_c, 0, 64, 64
1, 15264, Note_on_c, 0, 74, 84
1, 15264, Control_c, 0, 64, 64
1, 15270, Note_on_c, 0, 71, 64
1, 15287, Note_off_c, 0, 71, 64
1, 15289, Note_on_c, 0, 76, 61
1, 15294, Control_c, 0, 64, 64
1, 15297, Note_off_c, 0, 74, 65
1, 15309, Note_off_c, 0, 76, 62
1, 15309, Control_c, 0, 64, 60
1, 15324, Control_c, 0, 64, 51
1, 15324, Control_c, 0, 67, 103
1, 15338, Control_c, 0, 64, 28
1, 15338, Control_c, 0, 67, 103
1, 15353, Control_c, 0, 64, 0
1, 15353, Control_c, 0, 67, 104
1, 15360, Note_on_c, 0, 76, 93
1, 15363, Note_on_c, 0, 50, 78
1, 15366, Note_on_c, 0, 71, 65
1, 15368, Control_c, 0, 67, 104
1, 15384, Note_on_c, 0, 74, 43
1, 15384, Note_off_c, 0, 71, 64
1, 15386, Note_off_c, 0, 76, 64
1, 15394, Note_off_c, 0, 50, 69
1, 15398, Control_c, 0, 67, 105
1, 15412, Note_off_c, 0, 74, 54
1, 15441, Note_on_c, 0, 71, 81
1, 15450, Note_on_c, 0, 78, 89
1, 15462, Note_off_c, 0, 71, 68
1, 15471, Control_c, 0, 67, 104
1, 15473, Note_off_c, 0, 78, 68
1, 15501, Control_c, 0, 67, 104
1, 15555, Note_on_c, 0, 71, 4
1, 15555, Note_on_c, 0, 69, 78
1, 15559, Note_on_c, 0, 77, 73
1, 15561, Control_c, 0, 64, 40
1, 15562, Note_on_c, 0, 76, 73
1, 15567, Note_on_c, 0, 45, 64
1, 15572, Note_on_c, 0, 47, 54
1, 15576, Control_c, 0, 64, 61
1, 15579, Note_off_c, 0, 69, 69
1, 15590, Note_off_c, 0, 45, 59
1, 15590, Note_off_c, 0, 71, 30
1, 15590, Note_off_c, 0, 76, 65
1, 15591, Note_off_c, 0, 77, 66
1, 15591, Control_c, 0, 64, 64
1, 15591, Control_c, 0, 67, 105
1, 15598, Note_off_c, 0, 47, 63
1, 15605, Control_c, 0, 67, 105
1, 15620, Control_c, 0, 64, 64
1, 15635, Control_c, 0, 64, 65
1, 15644, Note_on_c, 0, 74, 84
1, 15650, Control_c, 0, 64, 65
1, 15665, Note_on_c, 0, 77, 59
1, 15665, Note_on_c, 0, 78, 62
1, 15680, Control_c, 0, 64, 64
1, 15683, Note_off_c, 0, 78, 66
1, 15683, Note_off_c, 0, 74, 62
1, 15684, Note_off_c, 0, 77, 65
1, 15695, Control_c, 0, 64, 58
1, 15710, Control_c, 0, 64, 46
1, 15725, Control_c, 0, 64, 13
1, 15725, Control_c, 0, 67, 106
1, 15740, Control_c, 0, 64, 0
1, 15740, Control_c, 0, 67, 107
1, 15743, Note_on_c, 0, 57, 63
1, 15744, Note_on_c, 0, 79, 88
1, 15746, Note_on_c, 0, 71, 65
1, 15754, Control_c, 0, 67, 108
1, 15769, Control_c, 0, 67, 110
1, 15775, Note_off_c, 0, 57, 64
1, 15775, Note_off_c, 0, 71, 66
1, 15783, Note_on_c, 0, 78, 19
1, 15784, Control_c, 0, 67, 111
1, 15794, Note_off_c, 0, 79, 66
1, 15799, Control_c, 0, 67, 112
1, 15829, Control_c, 0, 67, 113
1, 15840, Note_off_c, 0, 78, 0
1, 15840, Note_on_c, 0, 78, 74
1, 15842, Note_on_c, 0, 74, 83
1, 15853, Note_on_c, 0, 71, 50
1, 15865, Note_off_c, 0, 74, 69
1, 15874, Note_off_c, 0, 78, 64
1, 15878, Note_off_c, 0, 71, 38
1, 15887, Control_c, 0, 67, 112
1, 15902, Control_c, 0, 67, 111
1, 15917, Control_c, 0, 67, 110
1, 15930, Note_on_c, 0, 62, 78
1, 15932, Control_c, 0, 67, 109
1, 15936, Note_on_c, 0, 76, 92
1, 15938, Note_on_c, 0, 74, 28
1, 15944, Note_on_c, 0, 72, 90
1, 15947, Control_c, 0, 64, 53
1, 15947, Control_c, 0, 67, 107
1, 15965, Note_off_c, 0, 62, 72
1, 15969, Control_c, 0, 64, 63
1, 15969, Control_c, 0, 67, 106
1, 15970, Note_on_c, 0, 66, 15
1, 15974, Note_off_c, 0, 72, 68
1, 15984, Control_c, 0, 64, 63
1, 15984, Control_c, 0, 67, 105
1, 15999, Note_off_c, 0, 76, 63
1, 16000, Note_off_c, 0, 74, 63
1, 16014, Control_c, 0, 64, 64
1, 16014, Control_c, 0, 67, 105
1, 16016, Note_off_c, 0, 66, 28
1, 16029, Control_c, 0, 64, 65
1, 16029, Control_c, 0, 67, 104
1, 16043, Control_c, 0, 64, 65
1, 16043, Control_c, 0, 67, 103
1, 16045, Note_on_c, 0, 74, 80
1, 16047, Note_on_c, 0, 72, 50
1, 16058, Control_c, 0, 67, 100
1, 16073, Control_c, 0, 67, 98
1, 16076, Note_on_c, 0, 69, 48
1, 16079, Note_off_c, 0, 72, 60
1, 16087, Control_c, 0, 67, 95
1, 16090, Note_off_c, 0, 74, 64
1, 16100, Note_off_c, 0, 69, 59
1, 16102, Control_c, 0, 64, 63
1, 16102, Control_c, 0, 67, 90
1, 16117, Control_c, 0, 64, 58
1, 16117, Control_c, 0, 67, 84
1, 16130, Note_on_c, 0, 50, 85
1, 16132, Control_c, 0, 64, 49
1, 16132, Control_c, 0, 67, 75
1, 16140, Note_on_c, 0, 76, 80
1, 16146, Note_on_c, 0, 72, 79
1, 16147, Control_c, 0, 64, 34
1, 16147, Control_c, 0, 67, 65
1, 16157, Note_on_c, 0, 69, 47
1, 16161, Control_c, 0, 64, 8
1, 16161, Control_c, 0, 67, 55
1, 16172, Note_off_c, 0, 72, 67
1, 16173, Note_off_c, 0, 50, 63
1, 16176, Control_c, 0, 64, 0
1, 16176, Control_c, 0, 67, 45
1, 16183, Note_off_c, 0, 69, 60
1, 16191, Control_c, 0, 67, 35
1, 16193, Note_off_c, 0, 76, 61
1, 16206, Control_c, 0, 67, 27
1, 16221, Control_c, 0, 67, 15
1, 16233, Note_on_c, 0, 72, 73
1, 16235, Control_c, 0, 67, 0
1, 16241, Note_on_c, 0, 78, 80
1, 16248, Note_on_c, 0, 69, 67
1, 16261, Note_off_c, 0, 72, 64
1, 16267, Note_off_c, 0, 69, 67
1, 16267, Note_off_c, 0, 78, 64
1, 16314, Note_on_c, 0, 45, 76
1, 16324, Control_c, 0, 64, 44
1, 16327, Note_on_c, 0, 72, 75
1, 16330, Note_on_c, 0, 79, 91
1, 16333, Note_on_c, 0, 69, 71
1, 16339, Control_c, 0, 64, 68
1, 16354, Control_c, 0, 64, 72
1, 16354, Note_off_c, 0, 72, 65
1, 16358, Note_off_c, 0, 69, 69
1, 16360, Note_off_c, 0, 45, 65
1, 16369, Control_c, 0, 64, 75
1, 16384, Control_c, 0, 64, 79
1, 16398, Control_c, 0, 64, 85
1, 16413, Control_c, 0, 64, 93
1, 16420, Note_on_c, 0, 72, 71
1, 16425, Note_on_c, 0, 78, 82
1, 16428, Control_c, 0, 64, 105
1, 16431, Note_off_c, 0, 79, 65
1, 16431, Note_on_c, 0, 69, 51
1, 16444, Control_c, 0, 64, 115
1, 16452, Note_off_c, 0, 72, 64
1, 16458, Control_c, 0, 64, 127
1, 16461, Note_off_c, 0, 69, 55
1, 16472, Note_off_c, 0, 78, 65
1, 16514, Note_on_c, 0, 62, 80
1, 16515, Note_on_c, 0, 57, 80
1, 16524, Note_on_c, 0, 76, 89
1, 16530, Note_on_c, 0, 72, 66
1, 16533, Note_on_c, 0, 69, 68
1, 16537, Note_off_c, 0, 62, 69
1, 16544, Note_off_c, 0, 72, 67
1, 16547, Note_off_c, 0, 57, 65
1, 16559, Note_off_c, 0, 69, 69
1, 16591, Note_off_c, 0, 76, 0
1, 16607, Note_on_c, 0, 72, 75
1, 16607, Control_c, 0, 64, 99
1, 16608, Note_on_c, 0, 74, 83
1, 16622, Control_c, 0, 64, 71
1, 16625, Poly_aftertouch_c, 0, 76, 0
1, 16634, Note_off_c, 0, 72, 65
1, 16637, Control_c, 0, 64, 37
1, 16637, Note_off_c, 0, 74, 66
1, 16652, Control_c, 0, 64, 0
1, 16655, Poly_aftertouch_c, 0, 62, 0
1, 16708, Note_on_c, 0, 76, 73
1, 16714, Note_on_c, 0, 72, 62
1, 16717, Note_on_c, 0, 67, 85
1, 16723, Note_on_c, 0, 74, 65
1, 16728, Note_on_c, 0, 62, 63
1, 16732, Control_c, 0, 64, 58
1, 16736, Note_off_c, 0, 72, 56
1, 16747, Control_c, 0, 64, 80
1, 16756, Note_off_c, 0, 74, 61
1, 16762, Control_c, 0, 64, 106
1, 16769, Note_on_c, 0, 78, 74
1, 16777, Control_c, 0, 64, 127
1, 16779, Note_off_c, 0, 76, 64
1, 16810, Note_off_c, 0, 78, 66
1, 16814, Note_on_c, 0, 79, 54
1, 16833, Note_off_c, 0, 79, 63
1, 16864, Note_on_c, 0, 81, 71
1, 16872, Note_off_c, 0, 67, 61
1, 16890, Note_on_c, 0, 69, 65
1, 16904, Note_on_c, 0, 83, 78
1, 16905, Note_off_c, 0, 81, 65
1, 16908, Note_off_c, 0, 69, 66
1, 16911, Note_off_c, 0, 62, 66
1, 16953, Note_on_c, 0, 84, 85
1, 16964, Note_off_c, 0, 83, 59
1, 16992, Note_off_c, 0, 84, 65
1, 17003, Note_on_c, 0, 88, 76
1, 17027, Note_off_c, 0, 88, 70
1, 17079, Note_on_c, 0, 60, 74
1, 17080, Note_on_c, 0, 52, 76
1, 17080, Note_on_c, 0, 55, 70
1, 17085, Poly_aftertouch_c, 0, 86, 0
1, 17088, Note_on_c, 0, 50, 70
1, 17088, Control_c, 0, 64, 96
1, 17091, Note_on_c, 0, 90, 93
1, 17102, Control_c, 0, 64, 68
1, 17103, Note_on_c, 0, 78, 73
1, 17104, Note_off_c, 0, 55, 66
1, 17104, Note_off_c, 0, 60, 65
1, 17111, Note_off_c, 0, 52, 65
1, 17116, Note_off_c, 0, 50, 67
1, 17117, Control_c, 0, 64, 48
1, 17120, Note_off_c, 0, 78, 66
1, 17132, Control_c, 0, 64, 10
1, 17135, Note_on_c, 0, 91, 28
1, 17147, Control_c, 0, 64, 0
1, 17153, Note_off_c, 0, 90, 63
1, 17169, Note_off_c, 0, 91, 57
1, 17192, Note_on_c, 0, 78, 59
1, 17196, Note_on_c, 0, 88, 75
1, 17218, Note_off_c, 0, 78, 64
1, 17219, Note_off_c, 0, 88, 70
1, 17237, Control_c, 0, 67, 8
1, 17252, Control_c, 0, 67, 9
1, 17267, Control_c, 0, 67, 10
1, 17276, Note_on_c, 0, 62, 73
1, 17281, Control_c, 0, 67, 11
1, 17284, Note_on_c, 0, 57, 53
1, 17288, Note_on_c, 0, 90, 83
1, 17290, Note_on_c, 0, 54, 55
1, 17290, Note_on_c, 0, 48, 52
1, 17302, Note_off_c, 0, 62, 67
1, 17313, Note_off_c, 0, 57, 64
1, 17314, Note_off_c, 0, 54, 62
1, 17317, Note_off_c, 0, 90, 62
1, 17318, Note_off_c, 0, 48, 56
1, 17326, Control_c, 0, 67, 11
1, 17384, Note_on_c, 0, 91, 85
1, 17389, Note_on_c, 0, 79, 72
1, 17415, Note_off_c, 0, 79, 68
1, 17445, Control_c, 0, 67, 12
1, 17446, Note_off_c, 0, 91, 58
1, 17475, Note_on_c, 0, 60, 63
1, 17480, Note_on_c, 0, 50, 60
1, 17480, Note_on_c, 0, 57, 42
1, 17481, Control_c, 0, 67, 12
1, 17483, Note_on_c, 0, 55, 58
1, 17483, Note_on_c, 0, 90, 87
1, 17491, Note_on_c, 0, 78, 71
1, 17496, Control_c, 0, 67, 13
1, 17504, Note_off_c, 0, 60, 64
1, 17506, Note_off_c, 0, 55, 61
1, 17509, Note_off_c, 0, 57, 50
1, 17516, Note_off_c, 0, 78, 67
1, 17519, Note_off_c, 0, 50, 65
1, 17543, Note_off_c, 0, 90, 65
1, 17588, Note_on_c, 0, 88, 77
1, 17611, Note_off_c, 0, 88, 70
1, 17677, Note_on_c, 0, 62, 67
1, 17679, Note_on_c, 0, 52, 65
1, 17681, Note_on_c, 0, 48, 67
1, 17685, Note_on_c, 0, 93, 71
1, 17693, Note_on_c, 0, 58, 40
1, 17694, Note_on_c, 0, 81, 67
1, 17705, Note_off_c, 0, 62, 66
1, 17710, Note_off_c, 0, 93, 67
1, 17711, Note_off_c, 0, 81, 68
1, 17713, Note_on_c, 0, 91, 45
1, 17716, Note_off_c, 0, 52, 65
1, 17725, Note_off_c, 0, 58, 44
1, 17732, Note_off_c, 0, 48, 62
1, 17737, Note_off_c, 0, 91, 59
1, 17781, Note_on_c, 0, 91, 78
1, 17802, Note_on_c, 0, 79, 52
1, 17823, Note_off_c, 0, 79, 60
1, 17825, Note_off_c, 0, 91, 63
1, 17864, Note_on_c, 0, 52, 66
1, 17865, Note_on_c, 0, 60, 68
1, 17870, Note_on_c, 0, 55, 61
1, 17874, Note_on_c, 0, 90, 90
1, 17880, Note_on_c, 0, 78, 74
1, 17885, Note_on_c, 0, 50, 42
1, 17892, Note_off_c, 0, 55, 63
1, 17894, Note_off_c, 0, 60, 65
1, 17902, Note_off_c, 0, 52, 65
1, 17906, Note_off_c, 0, 78, 67
1, 17913, Note_off_c, 0, 50, 52
1, 17920, Note_off_c, 0, 90, 66
1, 17970, Note_on_c, 0, 88, 84
1, 18005, Note_off_c, 0, 88, 64
1, 18014, Control_c, 0, 67, 13
1, 18068, Note_on_c, 0, 91, 84
1, 18074, Note_on_c, 0, 62, 66
1, 18075, Note_on_c, 0, 57, 61
1, 18076, Note_on_c, 0, 48, 62
1, 18077, Note_on_c, 0, 54, 56
1, 18079, Note_on_c, 0, 79, 69
1, 18092, Note_off_c, 0, 62, 64
1, 18097, Note_off_c, 0, 57, 63
1, 18097, Note_off_c, 0, 79, 68
1, 18101, Note_off_c, 0, 54, 63
1, 18111, Note_off_c, 0, 48, 63
1, 18116, Note_off_c, 0, 91, 65
1, 18166, Note_on_c, 0, 78, 82
1, 18169, Note_on_c, 0, 90, 84
1, 18191, Note_off_c, 0, 78, 65
1, 18193, Control_c, 0, 67, 13
1, 18209, Note_off_c, 0, 90, 65
1, 18273, Note_on_c, 0, 50, 63
1, 18274, Note_on_c, 0, 60, 64
1, 18275, Note_on_c, 0, 88, 77
1, 18279, Note_on_c, 0, 57, 28
1, 18282, Note_on_c, 0, 55, 51
1, 18289, Control_c, 0, 67, 13
1, 18293, Note_on_c, 0, 76, 45
1, 18300, Note_off_c, 0, 60, 64
1, 18304, Control_c, 0, 67, 12
1, 18310, Note_off_c, 0, 55, 56
1, 18312, Note_off_c, 0, 57, 43
1, 18312, Note_off_c, 0, 88, 58
1, 18315, Note_off_c, 0, 50, 65
1, 18319, Note_off_c, 0, 76, 35
1, 18371, Note_on_c, 0, 86, 80
1, 18388, Note_on_c, 0, 76, 56
1, 18393, Note_off_c, 0, 86, 70
1, 18410, Note_off_c, 0, 76, 60
1, 18463, Note_on_c, 0, 88, 86
1, 18467, Note_on_c, 0, 76, 75
1, 18467, Control_c, 0, 67, 11
1, 18471, Note_on_c, 0, 62, 60
1, 18474, Note_on_c, 0, 58, 52
1, 18475, Note_on_c, 0, 52, 61
1, 18480, Note_on_c, 0, 48, 54
1, 18482, Control_c, 0, 67, 10
1, 18482, Note_off_c, 0, 76, 69
1, 18492, Note_off_c, 0, 62, 62
1, 18497, Note_off_c, 0, 88, 64
1, 18497, Control_c, 0, 67, 0
1, 18498, Note_off_c, 0, 58, 58
1, 18504, Note_off_c, 0, 52, 66
1, 18512, Note_off_c, 0, 48, 52
1, 18562, Note_on_c, 0, 90, 91
1, 18571, Note_on_c, 0, 78, 69
1, 18589, Note_off_c, 0, 78, 67
1, 18602, Note_off_c, 0, 90, 68
1, 18650, Note_on_c, 0, 52, 51
1, 18661, Note_on_c, 0, 55, 58
1, 18661, Note_on_c, 0, 60, 59
1, 18661, Note_on_c, 0, 88, 85
1, 18668, Note_on_c, 0, 76, 71
1, 18674, Note_on_c, 0, 50, 46
1, 18682, Note_off_c, 0, 60, 62
1, 18683, Note_off_c, 0, 55, 63
1, 18684, Note_off_c, 0, 52, 63
1, 18694, Note_off_c, 0, 76, 66
1, 18695, Note_off_c, 0, 88, 66
1, 18702, Note_off_c, 0, 50, 53
1, 18703, Note_on_c, 0, 77, 7
1, 18748, Note_off_c, 0, 77, 28
1, 18762, Note_on_c, 0, 90, 84
1, 18798, Note_off_c, 0, 90, 53
1, 18853, Note_on_c, 0, 62, 69
1, 18855, Note_on_c, 0, 57, 63
1, 18861, Note_on_c, 0, 54, 53
1, 18863, Note_on_c, 0, 91, 79
1, 18864, Note_on_c, 0, 79, 70
1, 18865, Note_on_c, 0, 48, 50
1, 18872, Note_off_c, 0, 62, 66
1, 18882, Note_off_c, 0, 57, 66
1, 18885, Note_off_c, 0, 54, 62
1, 18886, Note_off_c, 0, 79, 66
1, 18891, Note_off_c, 0, 91, 63
1, 18893, Note_off_c, 0, 48, 54
1, 18966, Note_on_c, 0, 90, 84
1, 18978, Note_on_c, 0, 78, 54
1, 18986, Note_off_c, 0, 90, 71
1, 19000, Note_off_c, 0, 78, 37
1, 19057, Poly_aftertouch_c, 0, 57, 127
1, 19058, Note_on_c, 0, 60, 69
1, 19060, Note_on_c, 0, 88, 80
1, 19061, Note_on_c, 0, 55, 64
1, 19061, Note_on_c, 0, 57, 11
1, 19062, Note_on_c, 0, 50, 58
1, 19079, Note_on_c, 0, 76, 53
1, 19084, Note_off_c, 0, 57, 50
1, 19087, Note_off_c, 0, 55, 66
1, 19088, Note_off_c, 0, 60, 63
1, 19096, Note_off_c, 0, 50, 65
1, 19102, Note_off_c, 0, 76, 58
1, 19105, Note_off_c, 0, 88, 64
1, 19171, Note_on_c, 0, 86, 78
1, 19178, Note_on_c, 0, 76, 58
1, 19193, Note_off_c, 0, 86, 69
1, 19197, Note_off_c, 0, 76, 62
1, 19251, Note_on_c, 0, 58, 63
1, 19254, Note_on_c, 0, 88, 82
1, 19255, Note_on_c, 0, 76, 79
1, 19257, Note_on_c, 0, 52, 62
1, 19258, Note_on_c, 0, 62, 61
1, 19260, Note_on_c, 0, 48, 64
1, 19272, Note_off_c, 0, 76, 68
1, 19278, Note_off_c, 0, 58, 67
1, 19278, Note_off_c, 0, 88, 69
1, 19279, Note_off_c, 0, 62, 63
1, 19285, Note_off_c, 0, 52, 65
1, 19302, Note_off_c, 0, 48, 64
1, 19351, Note_on_c, 0, 90, 92
1, 19361, Note_on_c, 0, 78, 67
1, 19378, Note_off_c, 0, 78, 65
1, 19396, Note_off_c, 0, 90, 66
1, 19430, Note_on_c, 0, 52, 67
1, 19439, Note_on_c, 0, 55, 66
1, 19439, Note_on_c, 0, 60, 66
1, 19448, Note_on_c, 0, 79, 85
1, 19448, Note_on_c, 0, 91, 90
1, 19453, Control_c, 0, 64, 52
1, 19462, Note_on_c, 0, 50, 46
1, 19464, Note_off_c, 0, 55, 66
1, 19467, Note_off_c, 0, 60, 65
1, 19468, Control_c, 0, 64, 55
1, 19480, Note_off_c, 0, 52, 63
1, 19480, Note_off_c, 0, 79, 65
1, 19483, Control_c, 0, 64, 52
1, 19488, Note_off_c, 0, 91, 67
1, 19490, Note_off_c, 0, 50, 51
1, 19498, Control_c, 0, 64, 49
1, 19527, Control_c, 0, 64, 50
1, 19542, Control_c, 0, 64, 49
1, 19546, Note_on_c, 0, 90, 93
1, 19553, Note_on_c, 0, 78, 75
1, 19557, Control_c, 0, 64, 47
1, 19572, Control_c, 0, 64, 44
1, 19577, Note_off_c, 0, 78, 68
1, 19582, Note_off_c, 0, 90, 67
1, 19586, Control_c, 0, 64, 41
1, 19601, Control_c, 0, 64, 37
1, 19616, Control_c, 0, 64, 30
1, 19627, Note_on_c, 0, 57, 49
1, 19632, Control_c, 0, 64, 23
1, 19637, Note_on_c, 0, 62, 77
1, 19639, Note_on_c, 0, 54, 56
1, 19641, Note_on_c, 0, 48, 67
1, 19642, Note_on_c, 0, 88, 87
1, 19646, Control_c, 0, 64, 13
1, 19653, Note_on_c, 0, 76, 72
1, 19659, Note_off_c, 0, 57, 64
1, 19661, Control_c, 0, 64, 0
1, 19667, Note_off_c, 0, 54, 65
1, 19667, Note_off_c, 0, 62, 65
1, 19668, Note_off_c, 0, 48, 64
1, 19677, Note_off_c, 0, 76, 67
1, 19689, Note_off_c, 0, 88, 65
1, 19752, Note_on_c, 0, 86, 87
1, 19758, Note_on_c, 0, 76, 63
1, 19776, Note_off_c, 0, 76, 64
1, 19792, Note_off_c, 0, 86, 62
1, 19838, Note_on_c, 0, 52, 73
1, 19839, Note_on_c, 0, 57, 50
1, 19840, Note_on_c, 0, 62, 79
1, 19847, Note_on_c, 0, 59, 68
1, 19847, Note_on_c, 0, 76, 81
1, 19847, Control_c, 0, 64, 24
1, 19848, Note_on_c, 0, 88, 86
1, 19861, Control_c, 0, 64, 60
1, 19869, Note_off_c, 0, 76, 68
1, 19873, Note_off_c, 0, 59, 67
1, 19876, Control_c, 0, 64, 67
1, 19877, Note_off_c, 0, 62, 63
1, 19878, Note_off_c, 0, 57, 66
1, 19880, Note_off_c, 0, 88, 67
1, 19891, Control_c, 0, 64, 68
1, 19898, Note_off_c, 0, 52, 65
1, 19906, Control_c, 0, 64, 69
1, 19921, Control_c, 0, 64, 72
1, 19935, Control_c, 0, 64, 76
1, 19946, Note_on_c, 0, 90, 99
1, 19950, Control_c, 0, 64, 79
1, 19952, Note_on_c, 0, 78, 79
1, 19965, Control_c, 0, 64, 79
1, 19976, Note_off_c, 0, 78, 67
1, 19977, Note_off_c, 0, 90, 63
1, 20005, Poly_aftertouch_c, 0, 76, 0
1, 20018, Poly_aftertouch_c, 0, 59, 127
1, 20024, Control_c, 0, 64, 78
1, 20033, Note_on_c, 0, 59, 14
1, 20034, Note_on_c, 0, 64, 83
1, 20039, Note_on_c, 0, 92, 95
1, 20039, Control_c, 0, 64, 74
1, 20042, Note_on_c, 0, 80, 83
1, 20044, Note_on_c, 0, 56, 64
1, 20045, Note_on_c, 0, 50, 62
1, 20053, Control_c, 0, 64, 67
1, 20057, Note_on_c, 0, 52, 62
1, 20065, Note_off_c, 0, 80, 66
1, 20066, Note_off_c, 0, 64, 62
1, 20068, Control_c, 0, 64, 59
1, 20071, Note_off_c, 0, 56, 64
1, 20072, Note_off_c, 0, 59, 66
1, 20077, Note_off_c, 0, 92, 67
1, 20080, Note_off_c, 0, 52, 60
1, 20083, Control_c, 0, 64, 49
1, 20088, Note_off_c, 0, 50, 67
1, 20098, Control_c, 0, 64, 32
1, 20113, Control_c, 0, 64, 0
1, 20132, Note_on_c, 0, 93, 98
1, 20135, Note_on_c, 0, 81, 86
1, 20163, Note_off_c, 0, 81, 64
1, 20211, Note_off_c, 0, 93, 40
1, 20220, Note_on_c, 0, 59, 63
1, 20222, Note_on_c, 0, 64, 81
1, 20224, Poly_aftertouch_c, 0, 56, 0
1, 20229, Note_on_c, 0, 54, 75
1, 20232, Note_on_c, 0, 94, 94
1, 20232, Control_c, 0, 64, 53
1, 20236, Note_on_c, 0, 82, 88
1, 20242, Note_on_c, 0, 56, 14
1, 20247, Note_off_c, 0, 64, 69
1, 20247, Control_c, 0, 64, 68
1, 20253, Note_off_c, 0, 59, 66
1, 20259, Note_off_c, 0, 82, 65
1, 20261, Note_off_c, 0, 56, 51
1, 20261, Control_c, 0, 64, 70
1, 20267, Note_off_c, 0, 54, 63
1, 20274, Note_on_c, 0, 90, 28
1, 20276, Control_c, 0, 64, 71
1, 20280, Note_off_c, 0, 94, 64
1, 20291, Control_c, 0, 64, 73
1, 20306, Control_c, 0, 64, 74
1, 20310, Note_off_c, 0, 90, 54
1, 20327, Note_on_c, 0, 82, 78
1, 20330, Note_on_c, 0, 92, 91
1, 20335, Control_c, 0, 64, 74
1, 20350, Control_c, 0, 64, 71
1, 20353, Note_off_c, 0, 82, 65
1, 20365, Control_c, 0, 64, 65
1, 20372, Note_off_c, 0, 92, 64
1, 20380, Control_c, 0, 64, 57
1, 20395, Control_c, 0, 64, 46
1, 20409, Control_c, 0, 64, 34
1, 20413, Note_on_c, 0, 66, 70
1, 20425, Control_c, 0, 64, 23
1, 20426, Note_on_c, 0, 52, 53
1, 20432, Note_on_c, 0, 58, 54
1, 20435, Note_on_c, 0, 61, 48
1, 20435, Note_on_c, 0, 94, 88
1, 20440, Control_c, 0, 64, 8
1, 20443, Note_on_c, 0, 82, 50
1, 20455, Note_off_c, 0, 66, 62
1, 20460, Note_on_c, 0, 53, 38
1, 20462, Control_c, 0, 64, 0
1, 20467, Note_off_c, 0, 61, 56
1, 20469, Note_off_c, 0, 58, 67
1, 20473, Note_off_c, 0, 82, 35
1, 20476, Note_off_c, 0, 52, 64
1, 20477, Note_off_c, 0, 94, 61
1, 20491, Note_off_c, 0, 53, 46
1, 20539, Note_on_c, 0, 95, 89
1, 20545, Note_on_c, 0, 83, 70
1, 20561, Note_off_c, 0, 83, 69
1, 20618, Poly_aftertouch_c, 0, 58, 127
1, 20625, Control_c, 0, 64, 45
1, 20628, Note_off_c, 0, 95, 57
1, 20628, Note_on_c, 0, 61, 63
1, 20636, Note_on_c, 0, 64, 60
1, 20637, Note_on_c, 0, 94, 87
1, 20640, Control_c, 0, 64, 62
1, 20641, Note_on_c, 0, 54, 64
1, 20655, Control_c, 0, 64, 67
1, 20657, Note_off_c, 0, 64, 63
1, 20658, Note_on_c, 0, 82, 57
1, 20665, Note_off_c, 0, 61, 66
1, 20669, Poly_aftertouch_c, 0, 58, 0
1, 20670, Control_c, 0, 64, 69
1, 20676, Note_off_c, 0, 54, 67
1, 20676, Note_off_c, 0, 82, 63
1, 20684, Control_c, 0, 64, 70
1, 20695, Note_off_c, 0, 94, 63
1, 20699, Control_c, 0, 64, 71
1, 20714, Control_c, 0, 64, 73
1, 20729, Control_c, 0, 64, 74
1, 20745, Note_on_c, 0, 92, 84
1, 20758, Control_c, 0, 64, 73
1, 20768, Note_on_c, 0, 82, 33
1, 20769, Note_off_c, 0, 82, 127
1, 20770, Note_off_c, 0, 92, 66
1, 20773, Control_c, 0, 64, 71
1, 20788, Control_c, 0, 64, 65
1, 20803, Control_c, 0, 64, 59
1, 20818, Control_c, 0, 64, 50
1, 20828, Note_on_c, 0, 52, 63
1, 20829, Note_on_c, 0, 61, 57
1, 20831, Note_on_c, 0, 66, 71
1, 20832, Control_c, 0, 64, 42
1, 20842, Note_on_c, 0, 56, 57
1, 20843, Note_on_c, 0, 97, 80
1, 20847, Control_c, 0, 64, 36
1, 20849, Note_off_c, 0, 61, 64
1, 20858, Note_off_c, 0, 66, 66
1, 20861, Note_off_c, 0, 97, 73
1, 20862, Control_c, 0, 64, 24
1, 20869, Note_off_c, 0, 56, 65
1, 20876, Note_off_c, 0, 52, 62
1, 20876, Control_c, 0, 64, 0
1, 20880, Note_on_c, 0, 85, 14
1, 20927, Note_off_c, 0, 85, 30
1, 20935, Note_on_c, 0, 95, 85
1, 20949, Note_on_c, 0, 83, 64
1, 20965, Note_off_c, 0, 83, 67
1, 21010, Control_c, 0, 64, 27
1, 21024, Note_on_c, 0, 54, 68
1, 21024, Note_on_c, 0, 56, 23
1, 21025, Note_on_c, 0, 59, 66
1, 21025, Control_c, 0, 64, 55
1, 21025, Note_on_c, 0, 64, 67
1, 21026, Note_on_c, 0, 94, 86
1, 21026, Note_off_c, 0, 95, 66
1, 21040, Control_c, 0, 64, 64
1, 21049, Note_on_c, 0, 82, 55
1, 21050, Note_off_c, 0, 59, 68
1, 21054, Note_off_c, 0, 64, 66
1, 21055, Note_off_c, 0, 56, 52
1, 21055, Control_c, 0, 64, 65
1, 21061, Note_off_c, 0, 54, 65
1, 21069, Note_off_c, 0, 82, 63
1, 21078, Note_off_c, 0, 94, 64
1, 21084, Control_c, 0, 64, 66
1, 21123, Note_on_c, 0, 92, 83
1, 21147, Note_on_c, 0, 82, 51
1, 21168, Note_off_c, 0, 92, 65
1, 21172, Note_off_c, 0, 82, 56
1, 21173, Control_c, 0, 64, 65
1, 21188, Control_c, 0, 64, 64
1, 21210, Control_c, 0, 64, 62
1, 21224, Note_on_c, 0, 66, 75
1, 21225, Note_on_c, 0, 95, 85
1, 21225, Control_c, 0, 64, 60
1, 21229, Note_on_c, 0, 58, 67
1, 21230, Note_on_c, 0, 61, 65
1, 21236, Note_on_c, 0, 83, 76
1, 21241, Control_c, 0, 64, 57
1, 21244, Note_on_c, 0, 52, 40
1, 21254, Note_off_c, 0, 66, 65
1, 21255, Control_c, 0, 64, 55
1, 21259, Note_off_c, 0, 61, 64
1, 21260, Note_off_c, 0, 83, 68
1, 21263, Note_off_c, 0, 58, 67
1, 21270, Control_c, 0, 64, 53
1, 21272, Note_off_c, 0, 95, 60
1, 21278, Note_off_c, 0, 52, 55
1, 21285, Control_c, 0, 64, 52
1, 21300, Control_c, 0, 64, 51
1, 21314, Control_c, 0, 64, 49
1, 21326, Note_on_c, 0, 94, 93
1, 21329, Control_c, 0, 64, 42
1, 21330, Note_on_c, 0, 82, 84
1, 21344, Control_c, 0, 64, 26
1, 21347, Note_off_c, 0, 94, 66
1, 21351, Note_off_c, 0, 82, 69
1, 21359, Control_c, 0, 64, 0
1, 21421, Note_on_c, 0, 92, 91
1, 21423, Note_on_c, 0, 61, 66
1, 21428, Note_on_c, 0, 80, 79
1, 21432, Note_on_c, 0, 54, 71
1, 21433, Note_on_c, 0, 58, 38
1, 21440, Note_on_c, 0, 65, 46
1, 21452, Note_off_c, 0, 61, 67
1, 21452, Note_off_c, 0, 80, 65
1, 21453, Note_on_c, 0, 64, 43
1, 21453, Note_off_c, 0, 92, 58
1, 21460, Note_off_c, 0, 58, 48
1, 21463, Control_c, 0, 64, 39
1, 21464, Note_off_c, 0, 54, 66
1, 21466, Note_off_c, 0, 65, 55
1, 21478, Control_c, 0, 64, 57
1, 21481, Note_off_c, 0, 64, 54
1, 21493, Control_c, 0, 64, 65
1, 21507, Control_c, 0, 64, 67
1, 21517, Note_on_c, 0, 90, 88
1, 21519, Note_on_c, 0, 78, 80
1, 21522, Control_c, 0, 64, 68
1, 21536, Note_off_c, 0, 90, 72
1, 21543, Note_off_c, 0, 78, 68
1, 21552, Control_c, 0, 64, 66
1, 21567, Control_c, 0, 64, 56
1, 21581, Control_c, 0, 64, 35
1, 21596, Control_c, 0, 64, 0
1, 21609, Note_on_c, 0, 66, 72
1, 21612, Note_on_c, 0, 80, 59
1, 21619, Note_on_c, 0, 91, 78
1, 21631, Note_off_c, 0, 80, 64
1, 21632, Note_off_c, 0, 91, 71
1, 21636, Note_on_c, 0, 56, 32
1, 21647, Note_off_c, 0, 66, 54
1, 21675, Note_off_c, 0, 56, 31
1, 21702, Note_on_c, 0, 94, 81
1, 21713, Note_on_c, 0, 82, 58
1, 21734, Note_off_c, 0, 82, 62
1, 21746, Note_off_c, 0, 94, 49
1, 21788, Note_on_c, 0, 95, 84
1, 21797, Note_on_c, 0, 60, 55
1, 21800, Note_on_c, 0, 65, 67
1, 21803, Control_c, 0, 64, 49
1, 21807, Note_on_c, 0, 83, 58
1, 21808, Note_on_c, 0, 55, 62
1, 21818, Control_c, 0, 64, 62
1, 21827, Note_off_c, 0, 83, 61
1, 21830, Note_off_c, 0, 60, 63
1, 21833, Control_c, 0, 64, 66
1, 21835, Note_off_c, 0, 65, 66
1, 21836, Note_off_c, 0, 95, 66
1, 21837, Note_off_c, 0, 55, 64
1, 21848, Control_c, 0, 64, 68
1, 21862, Control_c, 0, 64, 71
1, 21877, Control_c, 0, 64, 77
1, 21892, Control_c, 0, 64, 84
1, 21898, Note_on_c, 0, 93, 84
1, 21907, Control_c, 0, 64, 93
1, 21919, Note_on_c, 0, 83, 33
1, 21922, Control_c, 0, 64, 101
1, 21925, Note_off_c, 0, 93, 65
1, 21937, Control_c, 0, 64, 108
1, 21958, Note_off_c, 0, 83, 48
1, 21959, Control_c, 0, 64, 116
1, 21974, Control_c, 0, 64, 127
1, 22003, Note_on_c, 0, 62, 61
1, 22003, Note_on_c, 0, 67, 65
1, 22005, Note_on_c, 0, 96, 77
1, 22013, Note_on_c, 0, 59, 55
1, 22020, Note_on_c, 0, 53, 43
1, 22023, Note_off_c, 0, 67, 66
1, 22031, Note_off_c, 0, 96, 67
1, 22035, Note_off_c, 0, 62, 65
1, 22036, Note_off_c, 0, 59, 64
1, 22050, Note_off_c, 0, 53, 48
1, 22101, Poly_aftertouch_c, 0, 83, 0
1, 22104, Note_on_c, 0, 96, 79
1, 22123, Note_on_c, 0, 84, 47
1, 22123, Control_c, 0, 64, 96
1, 22126, Note_off_c, 0, 96, 68
1, 22137, Control_c, 0, 64, 68
1, 22147, Note_off_c, 0, 84, 59
1, 22152, Control_c, 0, 64, 47
1, 22167, Control_c, 0, 64, 0
1, 22195, Note_on_c, 0, 65, 67
1, 22197, Note_on_c, 0, 95, 85
1, 22197, Control_c, 0, 64, 31
1, 22201, Note_on_c, 0, 55, 51
1, 22203, Note_on_c, 0, 60, 50
1, 22208, Note_on_c, 0, 83, 71
1, 22211, Control_c, 0, 64, 55
1, 22226, Note_off_c, 0, 65, 64
1, 22226, Control_c, 0, 64, 70
1, 22228, Note_off_c, 0, 60, 56
1, 22228, Poly_aftertouch_c, 0, 62, 0
1, 22241, Note_off_c, 0, 83, 64
1, 22241, Control_c, 0, 64, 81
1, 22245, Note_off_c, 0, 55, 63
1, 22256, Control_c, 0, 64, 89
1, 22265, Note_off_c, 0, 95, 60
1, 22271, Control_c, 0, 64, 93
1, 22286, Control_c, 0, 64, 95
1, 22295, Note_on_c, 0, 93, 79
1, 22301, Control_c, 0, 64, 98
1, 22309, Poly_aftertouch_c, 0, 61, 0
1, 22316, Control_c, 0, 64, 100
1, 22318, Note_off_c, 0, 93, 69
1, 22393, Note_on_c, 0, 86, 74
1, 22396, Note_on_c, 0, 57, 66
1, 22396, Note_on_c, 0, 63, 54
1, 22396, Note_on_c, 0, 67, 60
1, 22396, Note_on_c, 0, 98, 79
1, 22415, Note_off_c, 0, 67, 63
1, 22417, Note_on_c, 0, 53, 40
1, 22418, Note_off_c, 0, 86, 68
1, 22420, Note_off_c, 0, 63, 61
1, 22420, Note_off_c, 0, 98, 68
1, 22433, Note_off_c, 0, 57, 63
1, 22446, Note_off_c, 0, 53, 50
1, 22479, Control_c, 0, 64, 97
1, 22491, Note_on_c, 0, 96, 83
1, 22494, Control_c, 0, 64, 79
1, 22495, Note_on_c, 0, 84, 79
1, 22509, Control_c, 0, 64, 62
1, 22518, Note_off_c, 0, 96, 65
1, 22520, Note_off_c, 0, 84, 69
1, 22523, Control_c, 0, 64, 34
1, 22538, Control_c, 0, 64, 0
1, 22577, Note_on_c, 0, 65, 74
1, 22578, Note_on_c, 0, 57, 65
1, 22578, Note_on_c, 0, 60, 68
1, 22583, Control_c, 0, 64, 32
1, 22590, Note_on_c, 0, 95, 87
1, 22593, Note_on_c, 0, 55, 61
1, 22596, Note_on_c, 0, 83, 80
1, 22597, Control_c, 0, 64, 58
1, 22605, Note_off_c, 0, 60, 63
1, 22609, Note_off_c, 0, 65, 63
1, 22612, Control_c, 0, 64, 72
1, 22620, Note_off_c, 0, 57, 64
1, 22623, Note_off_c, 0, 83, 68
1, 22627, Control_c, 0, 64, 82
1, 22629, Note_off_c, 0, 55, 59
1, 22637, Note_off_c, 0, 95, 67
1, 22642, Control_c, 0, 64, 90
1, 22656, Control_c, 0, 64, 95
1, 22671, Control_c, 0, 64, 100
1, 22686, Control_c, 0, 64, 104
1, 22691, Note_on_c, 0, 93, 89
1, 22709, Control_c, 0, 64, 108
1, 22723, Control_c, 0, 64, 110
1, 22732, Note_off_c, 0, 93, 64
1, 22738, Control_c, 0, 64, 110
1, 22753, Control_c, 0, 64, 111
1, 22768, Control_c, 0, 64, 113
1, 22783, Control_c, 0, 64, 114
1, 22784, Poly_aftertouch_c, 0, 83, 0
1, 22785, Note_on_c, 0, 67, 75
1, 22792, Note_on_c, 0, 62, 66
1, 22798, Note_on_c, 0, 53, 60
1, 22798, Note_on_c, 0, 59, 62
1, 22798, Note_on_c, 0, 84, 71
1, 22810, Note_off_c, 0, 67, 66
1, 22811, Note_on_c, 0, 83, 28
1, 22811, Note_on_c, 0, 96, 58
1, 22812, Control_c, 0, 64, 115
1, 22817, Note_off_c, 0, 84, 63
1, 22822, Note_off_c, 0, 62, 66
1, 22827, Note_off_c, 0, 59, 67
1, 22828, Control_c, 0, 64, 115
1, 22828, Note_off_c, 0, 96, 63
1, 22830, Note_off_c, 0, 53, 50
1, 22839, Note_off_c, 0, 83, 49
1, 22843, Control_c, 0, 64, 119
1, 22858, Control_c, 0, 64, 127
1, 22891, Note_on_c, 0, 84, 68
1, 22898, Note_on_c, 0, 96, 74
1, 22918, Note_off_c, 0, 84, 68
1, 22921, Note_on_c, 0, 98, 39
1, 22921, Note_off_c, 0, 96, 69
1, 22947, Control_c, 0, 64, 90
1, 22950, Note_off_c, 0, 98, 37
1, 22961, Control_c, 0, 64, 63
1, 22974, Poly_aftertouch_c, 0, 62, 127
1, 22976, Control_c, 0, 64, 28
1, 22977, Note_on_c, 0, 65, 77
1, 22980, Poly_aftertouch_c, 0, 86, 0
1, 22983, Note_on_c, 0, 55, 65
1, 22986, Note_on_c, 0, 95, 86
1, 22986, Note_on_c, 0, 60, 70
1, 22991, Control_c, 0, 64, 0
1, 22998, Note_on_c, 0, 83, 82
1, 23006, Control_c, 0, 64, 35
1, 23007, Note_off_c, 0, 65, 64
1, 23012, Poly_aftertouch_c, 0, 62, 0
1, 23019, Note_off_c, 0, 60, 66
1, 23021, Control_c, 0, 64, 59
1, 23028, Note_off_c, 0, 83, 66
1, 23034, Note_off_c, 0, 55, 60
1, 23035, Control_c, 0, 64, 75
1, 23050, Note_off_c, 0, 95, 63
1, 23050, Control_c, 0, 64, 92
1, 23065, Control_c, 0, 64, 118
1, 23079, Control_c, 0, 64, 127
1, 23091, Note_on_c, 0, 93, 80
1, 23112, Note_off_c, 0, 93, 70
1, 23183, Note_on_c, 0, 86, 82
1, 23183, Note_on_c, 0, 57, 69
1, 23186, Note_on_c, 0, 67, 63
1, 23187, Note_on_c, 0, 63, 55
1, 23187, Note_on_c, 0, 98, 84
1, 23193, Note_on_c, 0, 53, 58
1, 23206, Note_off_c, 0, 67, 63
1, 23210, Note_off_c, 0, 63, 61
1, 23210, Note_off_c, 0, 86, 66
1, 23212, Note_off_c, 0, 98, 66
1, 23217, Note_off_c, 0, 57, 63
1, 23231, Note_off_c, 0, 53, 48
1, 23281, Note_on_c, 0, 96, 92
1, 23282, Note_on_c, 0, 84, 85
1, 23306, Note_off_c, 0, 96, 66
1, 23308, Note_off_c, 0, 84, 69
1, 23317, Control_c, 0, 64, 73
1, 23332, Control_c, 0, 64, 50
1, 23346, Control_c, 0, 64, 0
1, 23374, Note_on_c, 0, 65, 79
1, 23375, Note_on_c, 0, 57, 71
1, 23376, Control_c, 0, 64, 41
1, 23377, Note_on_c, 0, 60, 71
1, 23377, Note_on_c, 0, 95, 96
1, 23383, Note_on_c, 0, 83, 91
1, 23384, Note_on_c, 0, 55, 71
1, 23391, Control_c, 0, 64, 65
1, 23402, Note_off_c, 0, 60, 64
1, 23404, Note_off_c, 0, 65, 65
1, 23406, Control_c, 0, 64, 85
1, 23413, Note_off_c, 0, 57, 65
1, 23418, Note_off_c, 0, 83, 65
1, 23420, Control_c, 0, 64, 107
1, 23421, Note_off_c, 0, 55, 64
1, 23432, Note_off_c, 0, 95, 64
1, 23434, Control_c, 0, 64, 127
1, 23481, Note_on_c, 0, 93, 96
1, 23522, Note_off_c, 0, 93, 66
1, 23572, Note_on_c, 0, 62, 51
1, 23577, Note_on_c, 0, 83, 70
1, 23579, Note_on_c, 0, 67, 75
1, 23586, Note_on_c, 0, 53, 67
1, 23587, Note_on_c, 0, 95, 90
1, 23589, Note_on_c, 0, 59, 61
1, 23606, Note_off_c, 0, 67, 66
1, 23615, Note_off_c, 0, 95, 67
1, 23618, Note_off_c, 0, 59, 66
1, 23621, Note_off_c, 0, 62, 65
1, 23621, Note_off_c, 0, 83, 65
1, 23626, Note_off_c, 0, 53, 58
1, 23678, Note_on_c, 0, 96, 93
1, 23682, Note_on_c, 0, 84, 87
1, 23705, Note_off_c, 0, 84, 69
1, 23709, Note_off_c, 0, 96, 63
1, 23739, Control_c, 0, 64, 76
1, 23754, Control_c, 0, 64, 56
1, 23769, Control_c, 0, 64, 41
1, 23774, Note_on_c, 0, 65, 76
1, 23779, Note_on_c, 0, 60, 72
1, 23779, Note_on_c, 0, 55, 66
1, 23779, Note_on_c, 0, 95, 87
1, 23783, Control_c, 0, 64, 55
1, 23786, Note_on_c, 0, 83, 77
1, 23790, Note_on_c, 0, 62, 23
1, 23794, Note_on_c, 0, 81, 70
1, 23798, Control_c, 0, 64, 72
1, 23806, Note_off_c, 0, 65, 64
1, 23808, Note_on_c, 0, 93, 50
1, 23809, Note_off_c, 0, 93, 127
1, 23810, Note_off_c, 0, 60, 64
1, 23810, Note_off_c, 0, 81, 67
1, 23813, Control_c, 0, 64, 109
1, 23819, Note_off_c, 0, 83, 66
1, 23821, Note_off_c, 0, 55, 65
1, 23827, Control_c, 0, 64, 127
1, 23828, Note_off_c, 0, 95, 68
1, 23833, Note_off_c, 0, 62, 38
1, 23886, Note_on_c, 0, 93, 78
1, 23908, Note_off_c, 0, 93, 70
1, 23966, Note_on_c, 0, 57, 58
1, 23971, Note_on_c, 0, 67, 71
1, 23982, Note_on_c, 0, 53, 61
1, 23983, Note_on_c, 0, 63, 48
1, 23983, Note_on_c, 0, 86, 81
1, 23983, Note_on_c, 0, 98, 87
1, 24002, Note_off_c, 0, 67, 65
1, 24006, Note_off_c, 0, 86, 69
1, 24008, Note_off_c, 0, 98, 66
1, 24009, Note_off_c, 0, 63, 59
1, 24013, Note_off_c, 0, 57, 65
1, 24024, Note_off_c, 0, 53, 53
1, 24082, Note_on_c, 0, 84, 84
1, 24083, Note_on_c, 0, 96, 85
1, 24094, Control_c, 0, 64, 78
1, 24102, Note_off_c, 0, 96, 72
1, 24104, Note_off_c, 0, 84, 71
1, 24109, Control_c, 0, 64, 48
1, 24124, Control_c, 0, 64, 0
1, 24154, Control_c, 0, 64, 35
1, 24167, Note_on_c, 0, 65, 76
1, 24168, Control_c, 0, 64, 67
1, 24170, Note_on_c, 0, 57, 74
1, 24170, Note_on_c, 0, 60, 67
1, 24172, Note_on_c, 0, 55, 71
1, 24174, Note_on_c, 0, 95, 99
1, 24179, Note_on_c, 0, 83, 91
1, 24182, Control_c, 0, 64, 89
1, 24201, Note_off_c, 0, 65, 67
1, 24203, Note_off_c, 0, 60, 65
1, 24205, Control_c, 0, 64, 127
1, 24208, Note_off_c, 0, 57, 64
1, 24217, Note_off_c, 0, 55, 64
1, 24228, Note_off_c, 0, 83, 66
1, 24235, Note_off_c, 0, 95, 65
1, 24276, Note_on_c, 0, 93, 80
1, 24298, Note_off_c, 0, 93, 68
1, 24365, Note_on_c, 0, 67, 77
1, 24366, Note_on_c, 0, 84, 88
1, 24368, Note_on_c, 0, 96, 89
1, 24369, Note_on_c, 0, 62, 69
1, 24372, Note_on_c, 0, 53, 59
1, 24374, Note_on_c, 0, 59, 57
1, 24384, Note_off_c, 0, 67, 66
1, 24390, Note_off_c, 0, 84, 68
1, 24395, Note_off_c, 0, 62, 68
1, 24396, Note_off_c, 0, 59, 62
1, 24397, Note_off_c, 0, 96, 65
1, 24410, Note_off_c, 0, 53, 61
1, 24416, Note_on_c, 0, 55, 23
1, 24453, Note_off_c, 0, 55, 52
1, 24467, Note_on_c, 0, 95, 93
1, 24469, Note_on_c, 0, 83, 87
1, 24493, Note_off_c, 0, 83, 69
1, 24498, Note_off_c, 0, 95, 65
1, 24503, Note_on_c, 0, 62, 15
1, 24531, Control_c, 0, 64, 100
1, 24537, Note_off_c, 0, 62, 45
1, 24546, Control_c, 0, 64, 65
1, 24561, Control_c, 0, 64, 43
1, 24563, Note_on_c, 0, 60, 61
1, 24563, Note_on_c, 0, 65, 80
1, 24563, Note_on_c, 0, 93, 89
1, 24564, Note_on_c, 0, 55, 64
1, 24568, Note_on_c, 0, 81, 82
1, 24576, Control_c, 0, 64, 45
1, 24590, Note_off_c, 0, 65, 67
1, 24590, Note_off_c, 0, 81, 69
1, 24590, Note_off_c, 0, 93, 65
1, 24590, Control_c, 0, 64, 63
1, 24601, Note_off_c, 0, 60, 64
1, 24605, Control_c, 0, 64, 85
1, 24608, Note_off_c, 0, 55, 63
1, 24620, Control_c, 0, 64, 127
1, 24661, Note_on_c, 0, 79, 86
1, 24661, Note_on_c, 0, 91, 90
1, 24685, Note_off_c, 0, 79, 69
1, 24689, Note_off_c, 0, 91, 65
1, 24759, Note_on_c, 0, 63, 63
1, 24760, Note_on_c, 0, 57, 67
1, 24763, Note_on_c, 0, 67, 57
1, 24764, Note_on_c, 0, 81, 78
1, 24766, Note_on_c, 0, 53, 65
1, 24768, Note_on_c, 0, 93, 86
1, 24784, Note_off_c, 0, 67, 62
1, 24786, Note_off_c, 0, 93, 73
1, 24787, Note_off_c, 0, 63, 66
1, 24787, Note_off_c, 0, 81, 69
1, 24792, Note_off_c, 0, 57, 64
1, 24804, Note_off_c, 0, 53, 59
1, 24863, Note_on_c, 0, 83, 83
1, 24863, Note_on_c, 0, 95, 91
1, 24885, Note_off_c, 0, 83, 70
1, 24887, Note_on_c, 0, 57, 32
1, 24887, Note_off_c, 0, 95, 67
1, 24887, Control_c, 0, 64, 78
1, 24902, Control_c, 0, 64, 52
1, 24916, Control_c, 0, 64, 0
1, 24925, Note_off_c, 0, 57, 43
1, 24932, Control_c, 0, 64, 27
1, 24954, Control_c, 0, 64, 60
1, 24956, Note_on_c, 0, 65, 82
1, 24958, Note_on_c, 0, 57, 68
1, 24958, Note_on_c, 0, 60, 69
1, 24965, Note_on_c, 0, 55, 68
1, 24967, Note_on_c, 0, 81, 92
1, 24967, Note_on_c, 0, 93, 94
1, 24969, Control_c, 0, 64, 88
1, 24983, Note_off_c, 0, 60, 65
1, 24983, Note_off_c, 0, 65, 66
1, 24984, Control_c, 0, 64, 127
1, 24993, Note_off_c, 0, 55, 65
1, 24993, Note_off_c, 0, 81, 66
1, 24994, Note_off_c, 0, 57, 66
1, 25001, Note_off_c, 0, 93, 65
1, 25062, Note_on_c, 0, 83, 90
1, 25064, Note_on_c, 0, 95, 91
1, 25086, Note_off_c, 0, 83, 69
1, 25095, Note_off_c, 0, 95, 67
1, 25139, Note_on_c, 0, 62, 43
1, 25148, Note_on_c, 0, 53, 70
1, 25149, Note_on_c, 0, 67, 70
1, 25157, Note_on_c, 0, 59, 59
1, 25159, Note_on_c, 0, 84, 96
1, 25159, Note_on_c, 0, 96, 95
1, 25168, Note_off_c, 0, 67, 65
1, 25187, Note_off_c, 0, 59, 66
1, 25187, Note_off_c, 0, 62, 66
1, 25191, Note_off_c, 0, 84, 63
1, 25196, Note_off_c, 0, 53, 56
1, 25198, Note_off_c, 0, 96, 66
1, 25255, Note_on_c, 0, 83, 43
1, 25264, Note_on_c, 0, 95, 96
1, 25293, Note_off_c, 0, 95, 66
1, 25296, Note_off_c, 0, 83, 66
1, 25311, Control_c, 0, 64, 103
1, 25326, Control_c, 0, 64, 69
1, 25340, Control_c, 0, 64, 54
1, 25355, Control_c, 0, 64, 52
1, 25356, Note_on_c, 0, 60, 67
1, 25359, Note_on_c, 0, 65, 82
1, 25360, Note_on_c, 0, 81, 88
1, 25361, Note_on_c, 0, 93, 92
1, 25362, Note_on_c, 0, 55, 72
1, 25370, Control_c, 0, 64, 64
1, 25373, Note_on_c, 0, 62, 57
1, 25385, Control_c, 0, 64, 87
1, 25387, Note_off_c, 0, 65, 66
1, 25389, Note_off_c, 0, 81, 65
1, 25395, Note_off_c, 0, 93, 64
1, 25397, Note_off_c, 0, 62, 60
1, 25398, Note_off_c, 0, 60, 61
1, 25400, Control_c, 0, 64, 127
1, 25410, Note_off_c, 0, 55, 61
1, 25454, Note_on_c, 0, 79, 88
1, 25454, Note_on_c, 0, 91, 93
1, 25488, Note_off_c, 0, 79, 65
1, 25493, Note_off_c, 0, 91, 64
1, 25541, Note_on_c, 0, 63, 62
1, 25550, Note_on_c, 0, 81, 93
1, 25552, Note_on_c, 0, 93, 89
1, 25556, Note_on_c, 0, 57, 64
1, 25558, Note_on_c, 0, 53, 69
1, 25569, Note_on_c, 0, 67, 49
1, 25577, Note_off_c, 0, 63, 65
1, 25585, Note_off_c, 0, 57, 66
1, 25586, Note_off_c, 0, 81, 64
1, 25588, Note_off_c, 0, 93, 65
1, 25594, Note_off_c, 0, 67, 58
1, 25597, Note_off_c, 0, 53, 60
1, 25646, Note_on_c, 0, 83, 97
1, 25650, Note_on_c, 0, 95, 91
1, 25681, Control_c, 0, 64, 85
1, 25682, Note_off_c, 0, 83, 67
1, 25685, Note_off_c, 0, 95, 66
1, 25700, Note_on_c, 0, 57, 18
1, 25703, Control_c, 0, 64, 58
1, 25718, Control_c, 0, 64, 25
1, 25726, Note_off_c, 0, 57, 0
1, 25733, Control_c, 0, 64, 36
1, 25743, Note_on_c, 0, 57, 55
1, 25747, Control_c, 0, 64, 61
1, 25749, Note_on_c, 0, 65, 85
1, 25750, Note_on_c, 0, 60, 81
1, 25753, Note_on_c, 0, 84, 96
1, 25756, Note_on_c, 0, 55, 72
1, 25756, Note_on_c, 0, 96, 105
1, 25762, Control_c, 0, 64, 86
1, 25777, Note_off_c, 0, 60, 65
1, 25777, Control_c, 0, 64, 127
1, 25781, Note_off_c, 0, 65, 63
1, 25791, Note_off_c, 0, 96, 66
1, 25793, Note_off_c, 0, 55, 64
1, 25793, Note_off_c, 0, 84, 66
1, 25797, Note_off_c, 0, 57, 64
1, 25853, Note_on_c, 0, 83, 95
1, 25855, Note_on_c, 0, 95, 97
1, 25885, Note_off_c, 0, 95, 66
1, 25887, Note_off_c, 0, 83, 64
1, 25929, Note_on_c, 0, 62, 46
1, 25939, Note_on_c, 0, 59, 49
1, 25940, Note_on_c, 0, 67, 78
1, 25946, Note_on_c, 0, 53, 66
1, 25948, Note_on_c, 0, 93, 93
1, 25949, Note_on_c, 0, 81, 89
1, 25964, Note_off_c, 0, 67, 68
1, 25974, Note_off_c, 0, 53, 57
1, 25974, Note_off_c, 0, 62, 66
1, 25976, Note_off_c, 0, 81, 66
1, 25977, Note_off_c, 0, 59, 64
1, 25983, Note_off_c, 0, 93, 64
1, 26045, Note_on_c, 0, 79, 90
1, 26046, Note_on_c, 0, 91, 88
1, 26076, Note_off_c, 0, 79, 63
1, 26083, Note_off_c, 0, 91, 63
1, 26089, Control_c, 0, 64, 78
1, 26104, Control_c, 0, 64, 54
1, 26119, Control_c, 0, 64, 37
1, 26132, Note_on_c, 0, 60, 69
1, 26134, Control_c, 0, 64, 51
1, 26137, Note_on_c, 0, 55, 75
1, 26137, Note_on_c, 0, 65, 84
1, 26147, Note_on_c, 0, 81, 90
1, 26147, Note_on_c, 0, 93, 96
1, 26149, Control_c, 0, 64, 71
1, 26150, Note_on_c, 0, 62, 24
1, 26163, Control_c, 0, 64, 127
1, 26166, Note_off_c, 0, 65, 65
1, 26173, Note_off_c, 0, 81, 67
1, 26182, Note_off_c, 0, 60, 64
1, 26182, Note_off_c, 0, 93, 64
1, 26187, Note_off_c, 0, 62, 56
1, 26189, Note_off_c, 0, 55, 64
1, 26241, Note_on_c, 0, 83, 91
1, 26244, Note_on_c, 0, 95, 91
1, 26271, Note_off_c, 0, 83, 65
1, 26274, Note_off_c, 0, 95, 66
1, 26315, Note_on_c, 0, 63, 59
1, 26324, Note_on_c, 0, 67, 71
1, 26327, Note_on_c, 0, 57, 79
1, 26337, Note_on_c, 0, 53, 71
1, 26343, Note_on_c, 0, 84, 81
1, 26345, Note_on_c, 0, 96, 82
1, 26354, Note_off_c, 0, 63, 65
1, 26356, Note_off_c, 0, 67, 64
1, 26363, Note_off_c, 0, 57, 65
1, 26365, Note_off_c, 0, 84, 69
1, 26366, Note_off_c, 0, 96, 70
1, 26391, Note_off_c, 0, 53, 63
1, 26426, Note_on_c, 0, 86, 85
1, 26427, Note_on_c, 0, 98, 85
1, 26434, Poly_aftertouch_c, 0, 65, 0
1, 26456, Note_on_c, 0, 84, 11
1, 26457, Note_off_c, 0, 86, 69
1, 26459, Note_off_c, 0, 98, 62
1, 26467, Control_c, 0, 64, 82
1, 26474, Note_on_c, 0, 96, 26
1, 26475, Note_off_c, 0, 96, 127
1, 26482, Control_c, 0, 64, 50
1, 26496, Control_c, 0, 64, 0
1, 26501, Note_off_c, 0, 84, 35
1, 26511, Control_c, 0, 64, 33
1, 26525, Note_on_c, 0, 65, 90
1, 26526, Control_c, 0, 64, 63
1, 26528, Note_on_c, 0, 57, 81
1, 26529, Note_on_c, 0, 60, 79
1, 26533, Note_on_c, 0, 55, 76
1, 26537, Note_on_c, 0, 84, 83
1, 26537, Note_on_c, 0, 96, 89
1, 26541, Control_c, 0, 64, 92
1, 26555, Note_off_c, 0, 60, 66
1, 26556, Control_c, 0, 64, 127
1, 26560, Note_off_c, 0, 57, 66
1, 26560, Note_off_c, 0, 65, 63
1, 26560, Note_off_c, 0, 84, 71
1, 26566, Note_off_c, 0, 55, 66
1, 26572, Note_off_c, 0, 96, 64
1, 26626, Note_on_c, 0, 83, 80
1, 26629, Note_on_c, 0, 95, 95
1, 26664, Note_off_c, 0, 83, 66
1, 26665, Note_off_c, 0, 95, 66
1, 26709, Note_on_c, 0, 62, 51
1, 26716, Note_on_c, 0, 67, 90
1, 26722, Note_on_c, 0, 59, 43
1, 26722, Note_on_c, 0, 93, 91
1, 26733, Note_on_c, 0, 81, 68
1, 26739, Note_on_c, 0, 53, 53
1, 26740, Note_off_c, 0, 67, 68
1, 26747, Note_on_c, 0, 60, 7
1, 26750, Note_off_c, 0, 81, 68
1, 26752, Note_off_c, 0, 93, 64
1, 26754, Note_off_c, 0, 62, 66
1, 26756, Note_off_c, 0, 59, 66
1, 26765, Note_off_c, 0, 53, 57
1, 26766, Note_on_c, 0, 55, 35
1, 26796, Note_off_c, 0, 55, 50
1, 26799, Poly_aftertouch_c, 0, 79, 0
1, 26804, Note_off_c, 0, 60, 50
1, 26821, Note_on_c, 0, 93, 81
1, 26824, Note_on_c, 0, 91, 81
1, 26837, Poly_aftertouch_c, 0, 79, 127
1, 26841, Note_on_c, 0, 61, 58
1, 26844, Note_off_c, 0, 93, 68
1, 26845, Note_off_c, 0, 91, 70
1, 26847, Note_on_c, 0, 63, 40
1, 26852, Poly_aftertouch_c, 0, 79, 0
1, 26852, Note_on_c, 0, 85, 34
1, 26853, Note_off_c, 0, 85, 127
1, 26861, Note_off_c, 0, 61, 62
1, 26867, Control_c, 0, 64, 74
1, 26878, Note_off_c, 0, 63, 55
1, 26882, Control_c, 0, 64, 50
1, 26897, Control_c, 0, 64, 41
1, 26911, Note_on_c, 0, 55, 70
1, 26911, Note_on_c, 0, 65, 89
1, 26912, Note_on_c, 0, 60, 74
1, 26912, Control_c, 0, 64, 60
1, 26915, Note_on_c, 0, 81, 87
1, 26915, Note_on_c, 0, 93, 96
1, 26927, Control_c, 0, 64, 87
1, 26933, Note_on_c, 0, 62, 50
1, 26942, Control_c, 0, 64, 127
1, 26948, Note_off_c, 0, 81, 63
1, 26948, Note_off_c, 0, 65, 62
1, 26949, Note_off_c, 0, 93, 67
1, 26950, Note_off_c, 0, 60, 62
1, 26957, Note_off_c, 0, 62, 62
1, 26960, Note_on_c, 0, 87, 14
1, 26961, Note_off_c, 0, 87, 127
1, 26966, Note_off_c, 0, 55, 64
1, 27015, Note_on_c, 0, 83, 96
1, 27016, Note_on_c, 0, 95, 99
1, 27038, Note_on_c, 0, 63, 43
1, 27042, Note_off_c, 0, 83, 65
1, 27052, Note_off_c, 0, 95, 67
1, 27091, Note_off_c, 0, 63, 0
1, 27101, Note_on_c, 0, 67, 85
1, 27102, Note_on_c, 0, 63, 65
1, 27104, Note_on_c, 0, 57, 81
1, 27109, Note_on_c, 0, 53, 73
1, 27112, Note_on_c, 0, 96, 96
1, 27112, Note_on_c, 0, 84, 88
1, 27131, Note_off_c, 0, 63, 66
1, 27134, Note_off_c, 0, 84, 71
1, 27137, Note_off_c, 0, 96, 66
1, 27152, Note_off_c, 0, 57, 64
1, 27152, Note_off_c, 0, 67, 62
1, 27171, Note_off_c, 0, 53, 62
1, 27210, Note_on_c, 0, 98, 99
1, 27212, Note_on_c, 0, 86, 86
1, 27238, Note_off_c, 0, 86, 67
1, 27246, Note_off_c, 0, 98, 66
1, 27260, Control_c, 0, 64, 72
1, 27275, Control_c, 0, 64, 34
1, 27290, Control_c, 0, 64, 0
1, 27299, Note_on_c, 0, 65, 94
1, 27300, Note_on_c, 0, 57, 85
1, 27301, Note_on_c, 0, 60, 88
1, 27305, Note_on_c, 0, 55, 86
1, 27305, Control_c, 0, 64, 51
1, 27310, Note_on_c, 0, 84, 91
1, 27311, Note_on_c, 0, 96, 96
1, 27319, Control_c, 0, 64, 78
1, 27330, Note_off_c, 0, 60, 63
1, 27334, Control_c, 0, 64, 127
1, 27338, Note_off_c, 0, 65, 66
1, 27343, Note_off_c, 0, 55, 62
1, 27347, Note_off_c, 0, 84, 67
1, 27348, Note_off_c, 0, 57, 64
1, 27348, Note_off_c, 0, 96, 66
1, 27406, Note_on_c, 0, 95, 96
1, 27408, Note_on_c, 0, 83, 94
1, 27435, Note_on_c, 0, 62, 60
1, 27437, Note_off_c, 0, 83, 66
1, 27443, Note_off_c, 0, 95, 67
1, 27456, Note_off_c, 0, 62, 63
1, 27477, Poly_aftertouch_c, 0, 59, 0
1, 27490, Note_on_c, 0, 67, 76
1, 27499, Note_on_c, 0, 62, 88
1, 27503, Note_on_c, 0, 93, 94
1, 27505, Note_on_c, 0, 81, 90
1, 27508, Note_on_c, 0, 53, 70
1, 27514, Poly_aftertouch_c, 0, 59, 127
1, 27526, Note_off_c, 0, 67, 64
1, 27526, Note_off_c, 0, 62, 65
1, 27532, Note_off_c, 0, 81, 65
1, 27538, Note_off_c, 0, 93, 67
1, 27542, Note_off_c, 0, 53, 56
1, 27547, Poly_aftertouch_c, 0, 59, 0
1, 27595, Note_on_c, 0, 91, 63
1, 27598, Note_on_c, 0, 79, 86
1, 27622, Note_on_c, 0, 62, 58
1, 27633, Note_off_c, 0, 79, 66
1, 27638, Note_off_c, 0, 91, 66
1, 27639, Note_off_c, 0, 62, 69
1, 27661, Control_c, 0, 64, 77
1, 27675, Control_c, 0, 64, 46
1, 27684, Note_on_c, 0, 60, 29
1, 27690, Note_on_c, 0, 65, 88
1, 27690, Control_c, 0, 64, 28
1, 27692, Note_on_c, 0, 62, 76
1, 27696, Note_on_c, 0, 55, 76
1, 27703, Note_on_c, 0, 93, 100
1, 27704, Note_on_c, 0, 81, 92
1, 27705, Control_c, 0, 64, 55
1, 27717, Note_off_c, 0, 62, 68
1, 27720, Control_c, 0, 64, 80
1, 27730, Note_off_c, 0, 81, 67
1, 27732, Note_off_c, 0, 65, 63
1, 27735, Control_c, 0, 64, 127
1, 27737, Note_off_c, 0, 60, 63
1, 27738, Note_off_c, 0, 93, 68
1, 27738, Note_off_c, 0, 55, 62
1, 27797, Note_on_c, 0, 95, 99
1, 27801, Note_on_c, 0, 83, 93
1, 27823, Note_off_c, 0, 83, 70
1, 27833, Note_off_c, 0, 95, 69
1, 27862, Note_on_c, 0, 63, 54
1, 27873, Note_on_c, 0, 57, 80
1, 27877, Note_on_c, 0, 67, 82
1, 27886, Note_on_c, 0, 53, 72
1, 27893, Note_on_c, 0, 96, 95
1, 27896, Note_on_c, 0, 84, 87
1, 27908, Note_off_c, 0, 63, 66
1, 27917, Note_off_c, 0, 96, 66
1, 27918, Note_off_c, 0, 84, 69
1, 27923, Note_off_c, 0, 67, 64
1, 27924, Note_off_c, 0, 57, 64
1, 27952, Note_off_c, 0, 53, 64
1, 27993, Note_on_c, 0, 98, 95
1, 27994, Note_on_c, 0, 86, 87
1, 28009, Control_c, 0, 64, 59
1, 28014, Note_off_c, 0, 98, 66
1, 28015, Note_off_c, 0, 86, 71
1, 28024, Control_c, 0, 64, 0
1, 28087, Note_on_c, 0, 65, 102
1, 28090, Note_on_c, 0, 57, 95
1, 28091, Note_on_c, 0, 55, 87
1, 28091, Note_on_c, 0, 60, 85
1, 28093, Note_on_c, 0, 98, 92
1, 28097, Note_on_c, 0, 84, 98
1, 28098, Control_c, 0, 64, 81
1, 28100, Note_on_c, 0, 96, 97
1, 28107, Note_off_c, 0, 65, 72
1, 28110, Note_off_c, 0, 60, 68
1, 28111, Note_on_c, 0, 86, 51
1, 28111, Note_off_c, 0, 98, 72
1, 28113, Note_off_c, 0, 55, 70
1, 28113, Note_off_c, 0, 84, 74
1, 28113, Control_c, 0, 64, 127
1, 28113, Note_off_c, 0, 57, 68
1, 28116, Note_off_c, 0, 96, 74
1, 28119, Note_on_c, 0, 58, 43
1, 28120, Note_off_c, 0, 58, 127
1, 28134, Note_off_c, 0, 86, 60
1, 28150, Poly_aftertouch_c, 0, 58, 0
1, 28208, Note_on_c, 0, 60, 3
1, 28215, Note_off_c, 0, 60, 0
1, 28225, Note_on_c, 0, 76, 87
1, 28228, Note_on_c, 0, 67, 79
1, 28230, Note_on_c, 0, 64, 77
1, 28231, Note_off_c, 0, 64, 127
1, 28242, Poly_aftertouch_c, 0, 60, 0
1, 28249, Poly_aftertouch_c, 0, 84, 0
1, 28253, Note_on_c, 0, 71, 37
1, 28254, Note_off_c, 0, 67, 66
1, 28260, Note_off_c, 0, 76, 58
1, 28282, Note_off_c, 0, 71, 50
1, 28316, Note_on_c, 0, 69, 86
1, 28321, Note_on_c, 0, 77, 77
1, 28322, Note_on_c, 0, 65, 73
1, 28332, Note_on_c, 0, 72, 59
1, 28337, Note_off_c, 0, 69, 70
1, 28347, Note_off_c, 0, 77, 65
1, 28351, Note_on_c, 0, 64, 22
1, 28352, Note_off_c, 0, 72, 59
1, 28353, Note_on_c, 0, 53, 70
1, 28361, Note_on_c, 0, 57, 51
1, 28363, Note_on_c, 0, 60, 37
1, 28376, Note_off_c, 0, 65, 64
1, 28382, Note_off_c, 0, 53, 61
1, 28383, Note_off_c, 0, 57, 62
1, 28388, Note_off_c, 0, 64, 53
1, 28389, Note_off_c, 0, 60, 60
1, 28395, Poly_aftertouch_c, 0, 67, 0
1, 28404, Note_on_c, 0, 71, 86
1, 28408, Note_on_c, 0, 67, 67
1, 28416, Note_on_c, 0, 79, 75
1, 28420, Note_on_c, 0, 74, 69
1, 28422, Note_on_c, 0, 69, 11
1, 28430, Note_off_c, 0, 67, 63
1, 28432, Note_off_c, 0, 71, 66
1, 28436, Note_off_c, 0, 74, 68
1, 28438, Note_off_c, 0, 79, 69
1, 28470, Note_off_c, 0, 69, 53
1, 28492, Note_on_c, 0, 64, 88
1, 28501, Note_on_c, 0, 72, 80
1, 28507, Note_on_c, 0, 52, 75
1, 28509, Note_on_c, 0, 69, 78
1, 28511, Note_on_c, 0, 55, 66
1, 28511, Note_on_c, 0, 59, 68
1, 28513, Note_on_c, 0, 81, 74
1, 28515, Note_on_c, 0, 76, 72
1, 28523, Note_off_c, 0, 69, 73
1, 28527, Note_off_c, 0, 72, 68
1, 28531, Note_off_c, 0, 76, 66
1, 28533, Note_off_c, 0, 59, 61
1, 28537, Note_off_c, 0, 81, 67
1, 28593, Note_on_c, 0, 74, 83
1, 28595, Note_on_c, 0, 71, 94
1, 28596, Note_on_c, 0, 83, 89
1, 28604, Note_on_c, 0, 77, 76
1, 28610, Note_off_c, 0, 64, 66
1, 28614, Note_off_c, 0, 71, 70
1, 28617, Note_off_c, 0, 55, 59
1, 28620, Note_off_c, 0, 52, 62
1, 28621, Note_off_c, 0, 74, 68
1, 28624, Note_off_c, 0, 77, 67
1, 28640, Note_off_c, 0, 83, 64
1, 28677, Control_c, 0, 64, 72
1, 28694, Note_on_c, 0, 62, 93
1, 28698, Note_on_c, 0, 72, 96
1, 28698, Note_on_c, 0, 76, 83
1, 28698, Control_c, 0, 64, 61
1, 28701, Note_on_c, 0, 84, 91
1, 28705, Note_on_c, 0, 50, 86
1, 28708, Note_on_c, 0, 79, 69
1, 28709, Note_on_c, 0, 57, 80
1, 28713, Control_c, 0, 64, 67
1, 28718, Note_on_c, 0, 53, 63
1, 28718, Note_off_c, 0, 72, 70
1, 28726, Note_off_c, 0, 79, 69
1, 28727, Note_off_c, 0, 76, 66
1, 28728, Control_c, 0, 64, 90
1, 28739, Note_off_c, 0, 84, 62
1, 28743, Control_c, 0, 64, 127
1, 28787, Note_on_c, 0, 77, 82
1, 28790, Note_on_c, 0, 74, 96
1, 28792, Note_on_c, 0, 86, 93
1, 28799, Note_on_c, 0, 81, 78
1, 28808, Note_off_c, 0, 62, 66
1, 28810, Note_off_c, 0, 57, 62
1, 28811, Note_off_c, 0, 74, 71
1, 28821, Note_off_c, 0, 81, 68
1, 28826, Note_off_c, 0, 53, 63
1, 28826, Note_off_c, 0, 77, 67
1, 28829, Note_off_c, 0, 50, 64
1, 28834, Note_off_c, 0, 86, 66
1, 28881, Note_on_c, 0, 60, 96
1, 28887, Note_on_c, 0, 76, 99
1, 28888, Note_on_c, 0, 79, 88
1, 28888, Note_on_c, 0, 88, 94
1, 28892, Note_on_c, 0, 48, 86
1, 28892, Note_on_c, 0, 52, 83
1, 28894, Note_on_c, 0, 55, 82
1, 28894, Note_on_c, 0, 83, 82
1, 28908, Note_off_c, 0, 76, 66
1, 28915, Note_off_c, 0, 79, 65
1, 28918, Note_off_c, 0, 83, 70
1, 28931, Note_off_c, 0, 88, 68
1, 28976, Note_on_c, 0, 81, 76
1, 28981, Note_on_c, 0, 89, 82
1, 28983, Note_on_c, 0, 77, 82
1, 28987, Note_on_c, 0, 84, 78
1, 28997, Note_off_c, 0, 60, 63
1, 28999, Note_on_c, 0, 76, 52
1, 29003, Note_off_c, 0, 55, 63
1, 29005, Note_off_c, 0, 77, 69
1, 29008, Note_off_c, 0, 48, 64
1, 29010, Note_off_c, 0, 84, 69
1, 29014, Note_off_c, 0, 81, 64
1, 29016, Note_off_c, 0, 52, 64
1, 29022, Note_off_c, 0, 89, 63
1, 29026, Note_off_c, 0, 76, 57
1, 29074, Note_on_c, 0, 83, 92
1, 29075, Note_on_c, 0, 79, 96
1, 29076, Note_on_c, 0, 59, 96
1, 29078, Note_on_c, 0, 91, 93
1, 29081, Note_on_c, 0, 86, 83
1, 29087, Note_on_c, 0, 47, 89
1, 29087, Note_on_c, 0, 53, 85
1, 29091, Note_off_c, 0, 79, 73
1, 29098, Note_on_c, 0, 50, 67
1, 29101, Note_off_c, 0, 86, 71
1, 29108, Note_off_c, 0, 83, 65
1, 29110, Note_off_c, 0, 91, 60
1, 29121, Note_off_c, 0, 50, 60
1, 29173, Note_on_c, 0, 84, 85
1, 29174, Note_on_c, 0, 93, 94
1, 29176, Note_on_c, 0, 81, 91
1, 29178, Note_on_c, 0, 88, 84
1, 29189, Note_on_c, 0, 86, 12
1, 29192, Note_on_c, 0, 50, 37
1, 29192, Note_on_c, 0, 79, 46
1, 29193, Note_off_c, 0, 81, 72
1, 29195, Note_off_c, 0, 53, 62
1, 29195, Note_off_c, 0, 59, 65
1, 29198, Note_off_c, 0, 88, 71
1, 29201, Note_off_c, 0, 47, 66
1, 29201, Note_off_c, 0, 86, 53
1, 29204, Note_off_c, 0, 84, 67
1, 29216, Note_off_c, 0, 93, 67
1, 29217, Note_off_c, 0, 79, 33
1, 29224, Note_off_c, 0, 50, 47
1, 29269, Note_on_c, 0, 57, 96
1, 29271, Note_on_c, 0, 83, 107
1, 29271, Poly_aftertouch_c, 0, 91, 0
1, 29272, Note_on_c, 0, 86, 94
1, 29272, Note_on_c, 0, 95, 98
1, 29275, Note_on_c, 0, 89, 100
1, 29277, Note_on_c, 0, 52, 93
1, 29279, Note_on_c, 0, 88, 18
1, 29279, Note_on_c, 0, 45, 88
1, 29284, Note_on_c, 0, 48, 77
1, 29287, Note_on_c, 0, 81, 14
1, 29292, Note_off_c, 0, 83, 69
1, 29294, Note_off_c, 0, 89, 70
1, 29306, Note_off_c, 0, 86, 68
1, 29309, Note_off_c, 0, 95, 68
1, 29312, Note_off_c, 0, 88, 50
1, 29330, Note_off_c, 0, 81, 36
1, 29336, Note_off_c, 0, 52, 53
1, 29343, Note_off_c, 0, 48, 0
1, 29351, Note_off_c, 0, 57, 62
1, 29356, Note_off_c, 0, 45, 63
1, 29366, Note_on_c, 0, 84, 95
1, 29366, Note_on_c, 0, 96, 96
1, 29367, Note_on_c, 0, 88, 91
1, 29368, Note_on_c, 0, 91, 84
1, 29369, Poly_aftertouch_c, 0, 48, 0
1, 29383, Note_off_c, 0, 84, 72
1, 29387, Note_off_c, 0, 91, 68
1, 29395, Note_off_c, 0, 88, 66
1, 29405, Note_off_c, 0, 96, 66
1, 29459, Note_on_c, 0, 55, 91
1, 29464, Note_on_c, 0, 50, 85
1, 29466, Note_on_c, 0, 86, 103
1, 29467, Note_on_c, 0, 98, 95
1, 29469, Note_on_c, 0, 89, 98
1, 29470, Note_on_c, 0, 43, 77
1, 29471, Note_on_c, 0, 93, 91
1, 29476, Note_on_c, 0, 47, 67
1, 29488, Note_off_c, 0, 93, 75
1, 29494, Note_off_c, 0, 50, 67
1, 29495, Note_off_c, 0, 55, 61
1, 29497, Note_off_c, 0, 89, 63
1, 29501, Note_off_c, 0, 47, 68
1, 29502, Note_off_c, 0, 86, 66
1, 29503, Note_off_c, 0, 98, 63
1, 29526, Note_off_c, 0, 43, 64
1, 29558, Note_on_c, 0, 100, 93
1, 29559, Note_on_c, 0, 91, 88
1, 29562, Note_on_c, 0, 88, 74
1, 29577, Note_off_c, 0, 88, 72
1, 29577, Note_off_c, 0, 91, 72
1, 29580, Note_on_c, 0, 95, 51
1, 29595, Control_c, 0, 64, 87
1, 29598, Note_off_c, 0, 100, 63
1, 29599, Note_off_c, 0, 95, 62
1, 29610, Control_c, 0, 64, 0
1, 29653, Note_on_c, 0, 98, 105
1, 29656, Note_on_c, 0, 43, 107
1, 29657, Note_on_c, 0, 86, 102
1, 29658, Note_on_c, 0, 89, 97
1, 29659, Note_on_c, 0, 93, 96
1, 29662, Note_on_c, 0, 31, 101
1, 29669, Control_c, 0, 64, 32
1, 29684, Control_c, 0, 64, 101
1, 29688, Note_off_c, 0, 31, 70
1, 29690, Note_on_c, 0, 88, 24
1, 29691, Note_off_c, 0, 88, 127
1, 29694, Note_off_c, 0, 43, 67
1, 29699, Control_c, 0, 64, 127
1, 29774, Note_off_c, 0, 86, 65
1, 29779, Note_off_c, 0, 98, 64
1, 29780, Note_off_c, 0, 93, 65
1, 29781, Note_off_c, 0, 89, 66
1, 29869, Note_on_c, 0, 96, 89
1, 29872, Note_on_c, 0, 88, 85
1, 29872, Note_on_c, 0, 84, 85
1, 29877, Note_on_c, 0, 91, 62
1, 29882, Note_on_c, 0, 65, 70
1, 29884, Note_on_c, 0, 62, 70
1, 29884, Note_on_c, 0, 59, 64
1, 29889, Note_on_c, 0, 55, 53
1, 29892, Note_off_c, 0, 91, 70
1, 29893, Note_off_c, 0, 88, 71
1, 29894, Note_off_c, 0, 96, 62
1, 29895, Note_off_c, 0, 84, 71
1, 29899, Note_on_c, 0, 67, 49
1, 29900, Note_off_c, 0, 65, 64
1, 29903, Note_off_c, 0, 59, 67
1, 29903, Note_off_c, 0, 62, 67
1, 29921, Note_off_c, 0, 67, 59
1, 29940, Note_off_c, 0, 55, 41
1, 29947, Note_on_c, 0, 95, 90
1, 29949, Note_on_c, 0, 86, 91
1, 29954, Note_on_c, 0, 89, 90
1, 29956, Note_on_c, 0, 83, 83
1, 29966, Note_on_c, 0, 65, 48
1, 29969, Note_on_c, 0, 88, 25
1, 29975, Note_off_c, 0, 83, 70
1, 29975, Note_off_c, 0, 89, 70
1, 29976, Note_on_c, 0, 59, 65
1, 29980, Note_on_c, 0, 62, 49
1, 29983, Note_off_c, 0, 86, 66
1, 29988, Note_off_c, 0, 95, 67
1, 29990, Note_off_c, 0, 88, 49
1, 29991, Note_off_c, 0, 65, 60
1, 29992, Note_off_c, 0, 59, 67
1, 30014, Note_off_c, 0, 62, 55
1, 30034, Note_on_c, 0, 64, 84
1, 30035, Note_on_c, 0, 67, 91
1, 30036, Note_on_c, 0, 84, 90
1, 30036, Note_on_c, 0, 93, 103
1, 30040, Note_on_c, 0, 81, 95
1, 30041, Note_on_c, 0, 55, 72
1, 30042, Note_on_c, 0, 60, 87
1, 30045, Note_on_c, 0, 88, 82
1, 30051, Note_on_c, 0, 83, 16
1, 30052, Note_on_c, 0, 59, 62
1, 30058, Note_off_c, 0, 83, 44
1, 30060, Note_off_c, 0, 81, 68
1, 30068, Note_off_c, 0, 59, 69
1, 30069, Note_off_c, 0, 88, 70
1, 30069, Note_off_c, 0, 84, 68
1, 30072, Note_on_c, 0, 89, 4
1, 30075, Note_off_c, 0, 64, 66
1, 30075, Note_off_c, 0, 67, 66
1, 30081, Note_off_c, 0, 89, 45
1, 30084, Note_off_c, 0, 93, 66
1, 30087, Note_off_c, 0, 60, 62
1, 30099, Note_off_c, 0, 55, 64
1, 30235, Note_on_c, 0, 60, 84
1, 30238, Note_on_c, 0, 64, 78
1, 30240, Note_on_c, 0, 67, 82
1, 30242, Note_on_c, 0, 84, 98
1, 30244, Note_on_c, 0, 81, 92
1, 30245, Note_on_c, 0, 93, 102
1, 30246, Note_on_c, 0, 55, 70
1, 30260, Note_on_c, 0, 88, 57
1, 30263, Note_off_c, 0, 64, 67
1, 30263, Note_off_c, 0, 81, 69
1, 30264, Note_off_c, 0, 67, 67
1, 30269, Note_off_c, 0, 60, 60
1, 30271, Note_off_c, 0, 55, 66
1, 30272, Note_off_c, 0, 84, 63
1, 30276, Note_off_c, 0, 88, 67
1, 30292, Note_off_c, 0, 93, 62
1, 30346, Poly_aftertouch_c, 0, 83, 0
1, 30452, Note_on_c, 0, 95, 109
1, 30456, Note_on_c, 0, 86, 70
1, 30458, Note_on_c, 0, 83, 104
1, 30459, Note_on_c, 0, 55, 70
1, 30459, Note_on_c, 0, 59, 84
1, 30460, Note_on_c, 0, 62, 88
1, 30461, Note_on_c, 0, 65, 92
1, 30461, Note_on_c, 0, 89, 91
1, 30462, Control_c, 0, 64, 55
1, 30464, Note_on_c, 0, 67, 93
1, 30477, Control_c, 0, 64, 0
1, 30552, Control_c, 0, 64, 56
1, 30567, Control_c, 0, 64, 69
1, 30582, Control_c, 0, 64, 78
1, 30596, Control_c, 0, 64, 102
1, 30611, Control_c, 0, 64, 127
1, 30700, Note_off_c, 0, 65, 61
1, 30702, Note_off_c, 0, 67, 62
1, 30705, Note_off_c, 0, 62, 63
1, 30709, Note_off_c, 0, 83, 65
1, 30710, Note_off_c, 0, 95, 62
1, 30713, Note_off_c, 0, 59, 65
1, 30716, Note_off_c, 0, 89, 64
1, 30718, Note_off_c, 0, 55, 61
1, 30724, Note_off_c, 0, 86, 60
1, 30864, Note_on_c, 0, 86, 91
1, 30865, Note_on_c, 0, 83, 100
1, 30865, Note_on_c, 0, 95, 100
1, 30869, Note_on_c, 0, 62, 73
1, 30870, Note_on_c, 0, 59, 72
1, 30873, Note_on_c, 0, 55, 68
1, 30876, Note_on_c, 0, 89, 62
1, 30878, Note_on_c, 0, 67, 64
1, 30880, Note_on_c, 0, 65, 59
1, 30880, Note_off_c, 0, 83, 73
1, 30883, Note_off_c, 0, 86, 71
1, 30889, Note_off_c, 0, 95, 62
1, 30892, Note_off_c, 0, 89, 67
1, 30893, Note_off_c, 0, 62, 66
1, 30896, Note_off_c, 0, 59, 67
1, 30897, Note_off_c, 0, 55, 66
1, 30900, Note_off_c, 0, 65, 63
1, 30903, Note_off_c, 0, 67, 59
1, 30957, Note_on_c, 0, 55, 76
1, 30957, Note_on_c, 0, 62, 72
1, 30957, Note_on_c, 0, 96, 96
1, 30959, Note_on_c, 0, 84, 91
1, 30959, Note_on_c, 0, 88, 91
1, 30960, Note_on_c, 0, 59, 85
1, 30974, Note_off_c, 0, 96, 74
1, 30975, Note_on_c, 0, 91, 65
1, 30977, Note_off_c, 0, 84, 71
1, 30978, Note_off_c, 0, 88, 72
1, 30980, Note_on_c, 0, 67, 51
1, 30981, Note_off_c, 0, 62, 68
1, 30985, Note_off_c, 0, 59, 68
1, 30988, Note_off_c, 0, 55, 63
1, 30990, Note_on_c, 0, 65, 46
1, 30996, Note_off_c, 0, 91, 62
1, 31003, Note_off_c, 0, 67, 60
1, 31018, Note_off_c, 0, 65, 54
1, 31046, Note_on_c, 0, 62, 73
1, 31047, Note_on_c, 0, 98, 96
1, 31052, Note_on_c, 0, 59, 77
1, 31053, Note_on_c, 0, 89, 84
1, 31053, Note_on_c, 0, 55, 75
1, 31053, Note_on_c, 0, 84, 17
1, 31054, Note_on_c, 0, 86, 90
1, 31066, Note_on_c, 0, 93, 60
1, 31072, Note_on_c, 0, 67, 58
1, 31073, Note_off_c, 0, 67, 127
1, 31073, Note_off_c, 0, 62, 68
1, 31075, Note_off_c, 0, 55, 69
1, 31075, Note_off_c, 0, 59, 70
1, 31075, Note_off_c, 0, 89, 70
1, 31076, Note_off_c, 0, 86, 70
1, 31077, Note_off_c, 0, 84, 47
1, 31080, Note_on_c, 0, 100, 27
1, 31081, Note_off_c, 0, 100, 127
1, 31083, Note_off_c, 0, 93, 63
1, 31099, Note_on_c, 0, 88, 19
1, 31100, Note_off_c, 0, 98, 65
1, 31134, Note_off_c, 0, 88, 50
1, 31260, Note_on_c, 0, 100, 105
1, 31263, Note_on_c, 0, 91, 89
1, 31264, Note_on_c, 0, 88, 91
1, 31268, Note_on_c, 0, 59, 77
1, 31268, Note_on_c, 0, 65, 78
1, 31269, Note_on_c, 0, 55, 80
1, 31270, Note_on_c, 0, 62, 67
1, 31270, Note_on_c, 0, 95, 81
1, 31279, Note_off_c, 0, 91, 73
1, 31281, Note_off_c, 0, 88, 74
1, 31284, Note_off_c, 0, 65, 68
1, 31285, Note_off_c, 0, 95, 70
1, 31287, Note_off_c, 0, 62, 70
1, 31294, Note_off_c, 0, 59, 67
1, 31294, Note_off_c, 0, 100, 68
1, 31295, Note_off_c, 0, 55, 66
1, 31330, Note_on_c, 0, 89, 8
1, 31331, Note_off_c, 0, 89, 127
1, 31348, Note_on_c, 0, 62, 85
1, 31350, Note_on_c, 0, 98, 89
1, 31354, Note_on_c, 0, 55, 71
1, 31354, Note_on_c, 0, 89, 45
1, 31355, Note_on_c, 0, 59, 73
1, 31357, Note_on_c, 0, 65, 64
1, 31358, Note_on_c, 0, 86, 95
1, 31364, Note_on_c, 0, 93, 79
1, 31367, Note_on_c, 0, 57, 68
1, 31369, Note_on_c, 0, 67, 65
1, 31374, Note_off_c, 0, 62, 69
1, 31375, Note_off_c, 0, 65, 65
1, 31376, Note_off_c, 0, 55, 66
1, 31377, Note_off_c, 0, 86, 71
1, 31377, Note_off_c, 0, 93, 70
1, 31380, Note_off_c, 0, 89, 67
1, 31385, Note_off_c, 0, 59, 67
1, 31386, Note_off_c, 0, 57, 64
1, 31387, Note_off_c, 0, 67, 65
1, 31392, Note_off_c, 0, 98, 65
1, 31440, Note_on_c, 0, 96, 97
1, 31446, Note_on_c, 0, 62, 92
1, 31446, Note_on_c, 0, 88, 84
1, 31449, Note_on_c, 0, 84, 88
1, 31449, Note_on_c, 0, 55, 67
1, 31449, Note_on_c, 0, 59, 81
1, 31450, Note_on_c, 0, 86, 14
1, 31458, Note_on_c, 0, 91, 65
1, 31459, Note_on_c, 0, 67, 63
1, 31467, Note_off_c, 0, 88, 72
1, 31467, Note_off_c, 0, 62, 70
1, 31468, Note_off_c, 0, 86, 55
1, 31470, Note_off_c, 0, 84, 72
1, 31473, Note_off_c, 0, 59, 69
1, 31473, Note_off_c, 0, 91, 68
1, 31478, Note_off_c, 0, 67, 65
1, 31483, Note_off_c, 0, 55, 63
1, 31488, Note_off_c, 0, 96, 64
1, 31528, Note_on_c, 0, 95, 93
1, 31536, Note_on_c, 0, 62, 67
1, 31536, Note_on_c, 0, 86, 88
1, 31538, Note_on_c, 0, 59, 57
1, 31538, Note_on_c, 0, 64, 79
1, 31541, Note_on_c, 0, 67, 79
1, 31544, Poly_aftertouch_c, 0, 65, 0
1, 31547, Note_on_c, 0, 55, 70
1, 31547, Note_on_c, 0, 83, 63
1, 31552, Note_on_c, 0, 60, 71
1, 31553, Note_on_c, 0, 91, 49
1, 31556, Note_off_c, 0, 86, 71
1, 31556, Note_off_c, 0, 59, 65
1, 31556, Note_off_c, 0, 67, 68
1, 31561, Note_off_c, 0, 64, 67
1, 31562, Note_off_c, 0, 62, 69
1, 31563, Note_off_c, 0, 83, 65
1, 31566, Note_off_c, 0, 95, 64
1, 31568, Note_off_c, 0, 55, 69
1, 31575, Note_off_c, 0, 60, 64
1, 31578, Note_off_c, 0, 91, 58
1, 31579, Note_on_c, 0, 89, 8
1, 31580, Note_off_c, 0, 89, 127
1, 31598, Control_c, 0, 64, 66
1, 31613, Control_c, 0, 64, 0
1, 31625, Note_on_c, 0, 64, 83
1, 31628, Note_on_c, 0, 84, 90
1, 31628, Note_on_c, 0, 93, 103
1, 31629, Note_on_c, 0, 60, 94
1, 31630, Note_on_c, 0, 67, 89
1, 31631, Note_on_c, 0, 55, 75
1, 31632, Note_on_c, 0, 81, 96
1, 31637, Note_on_c, 0, 88, 86
1, 31647, Note_on_c, 0, 86, 15
1, 31649, Note_off_c, 0, 81, 71
1, 31656, Note_off_c, 0, 67, 68
1, 31659, Note_off_c, 0, 84, 67
1, 31659, Note_off_c, 0, 88, 70
1, 31663, Note_off_c, 0, 64, 68
1, 31665, Note_off_c, 0, 93, 69
1, 31668, Note_off_c, 0, 55, 63
1, 31669, Note_off_c, 0, 60, 65
1, 31671, Note_off_c, 0, 86, 39
1, 31673, Control_c, 0, 64, 51
1, 31695, Control_c, 0, 64, 71
1, 31710, Control_c, 0, 64, 83
1, 31724, Control_c, 0, 64, 102
1, 31739, Control_c, 0, 64, 127
1, 31777, Poly_aftertouch_c, 0, 88, 0
1, 31838, Note_on_c, 0, 60, 83
1, 31840, Note_on_c, 0, 93, 101
1, 31840, Note_on_c, 0, 84, 96
1, 31841, Note_on_c, 0, 64, 79
1, 31842, Note_on_c, 0, 81, 95
1, 31845, Note_on_c, 0, 55, 75
1, 31851, Note_on_c, 0, 67, 65
1, 31861, Note_on_c, 0, 88, 63
1, 31862, Note_off_c, 0, 81, 71
1, 31864, Note_off_c, 0, 64, 68
1, 31869, Note_off_c, 0, 60, 59
1, 31871, Note_off_c, 0, 84, 63
1, 31872, Note_off_c, 0, 67, 62
1, 31880, Note_off_c, 0, 88, 65
1, 31881, Note_off_c, 0, 55, 61
1, 31890, Note_off_c, 0, 93, 65
1, 32021, Control_c, 0, 64, 85
1, 32035, Control_c, 0, 64, 57
1, 32050, Control_c, 0, 64, 0
1, 32051, Note_on_c, 0, 95, 104
1, 32054, Note_on_c, 0, 62, 89
1, 32054, Note_on_c, 0, 55, 79
1, 32057, Note_on_c, 0, 59, 80
1, 32058, Note_on_c, 0, 65, 77
1, 32058, Note_on_c, 0, 86, 88
1, 32062, Note_on_c, 0, 67, 89
1, 32062, Note_on_c, 0, 83, 96
1, 32063, Note_on_c, 0, 89, 86
1, 32183, Control_c, 0, 64, 33
1, 32198, Control_c, 0, 64, 60
1, 32213, Control_c, 0, 64, 69
1, 32228, Control_c, 0, 64, 79
1, 32242, Control_c, 0, 64, 101
1, 32257, Control_c, 0, 64, 127
1, 32303, Note_off_c, 0, 67, 61
1, 32303, Note_off_c, 0, 65, 62
1, 32306, Note_off_c, 0, 62, 64
1, 32315, Note_off_c, 0, 83, 64
1, 32316, Note_off_c, 0, 59, 65
1, 32318, Note_off_c, 0, 55, 60
1, 32319, Note_off_c, 0, 89, 64
1, 32319, Note_off_c, 0, 95, 64
1, 32328, Note_off_c, 0, 86, 60
1, 32486, Note_on_c, 0, 95, 97
1, 32487, Note_on_c, 0, 86, 83
1, 32488, Note_on_c, 0, 83, 88
1, 32493, Note_on_c, 0, 59, 65
1, 32496, Note_on_c, 0, 62, 59
1, 32506, Note_off_c, 0, 95, 67
1, 32507, Note_off_c, 0, 86, 70
1, 32510, Note_off_c, 0, 83, 71
1, 32512, Note_off_c, 0, 59, 65
1, 32513, Note_on_c, 0, 55, 35
1, 32516, Note_off_c, 0, 62, 65
1, 32522, Note_on_c, 0, 89, 33
1, 32523, Note_off_c, 0, 89, 127
1, 32538, Note_off_c, 0, 55, 57
1, 32555, Poly_aftertouch_c, 0, 65, 0
1, 32570, Note_on_c, 0, 67, 37
1, 32572, Note_on_c, 0, 59, 78
1, 32573, Note_on_c, 0, 96, 95
1, 32576, Note_on_c, 0, 84, 86
1, 32576, Note_on_c, 0, 88, 93
1, 32587, Note_on_c, 0, 62, 62
1, 32589, Note_on_c, 0, 86, 5
1, 32592, Poly_aftertouch_c, 0, 65, 127
1, 32594, Note_off_c, 0, 59, 68
1, 32596, Note_off_c, 0, 88, 73
1, 32597, Note_off_c, 0, 84, 71
1, 32597, Note_off_c, 0, 67, 59
1, 32598, Note_on_c, 0, 91, 42
1, 32606, Note_off_c, 0, 96, 61
1, 32608, Note_off_c, 0, 86, 46
1, 32610, Note_off_c, 0, 62, 62
1, 32620, Note_off_c, 0, 91, 60
1, 32628, Poly_aftertouch_c, 0, 65, 0
1, 32662, Note_on_c, 0, 59, 61
1, 32665, Poly_aftertouch_c, 0, 55, 127
1, 32667, Note_on_c, 0, 55, 34
1, 32669, Note_on_c, 0, 86, 67
1, 32671, Note_on_c, 0, 88, 49
1, 32674, Note_on_c, 0, 67, 70
1, 32674, Note_on_c, 0, 98, 70
1, 32676, Note_on_c, 0, 62, 78
1, 32678, Note_on_c, 0, 89, 61
1, 32680, Note_on_c, 0, 100, 61
1, 32686, Note_on_c, 0, 91, 64
1, 32691, Note_off_c, 0, 62, 73
1, 32691, Note_off_c, 0, 67, 66
1, 32691, Note_off_c, 0, 86, 67
1, 32691, Note_off_c, 0, 98, 66
1, 32692, Note_off_c, 0, 59, 67
1, 32694, Note_off_c, 0, 89, 67
1, 32696, Note_off_c, 0, 100, 65
1, 32699, Note_off_c, 0, 88, 58
1, 32704, Note_off_c, 0, 55, 60
1, 32705, Note_off_c, 0, 91, 64
1, 32731, Poly_aftertouch_c, 0, 84, 0
1, 32752, Note_on_c, 0, 67, 78
1, 32753, Note_on_c, 0, 62, 64
1, 32753, Note_on_c, 0, 100, 95
1, 32758, Note_on_c, 0, 59, 64
1, 32760, Note_on_c, 0, 88, 73
1, 32764, Note_on_c, 0, 91, 75
1, 32766, Note_off_c, 0, 67, 71
1, 32767, Note_on_c, 0, 64, 59
1, 32770, Control_c, 0, 64, 90
1, 32771, Note_on_c, 0, 55, 48
1, 32775, Note_off_c, 0, 100, 66
1, 32775, Note_off_c, 0, 88, 72
1, 32777, Note_off_c, 0, 91, 73
1, 32777, Note_off_c, 0, 62, 67
1, 32778, Note_on_c, 0, 60, 49
1, 32783, Poly_aftertouch_c, 0, 65, 0
1, 32784, Control_c, 0, 64, 61
1, 32787, Note_off_c, 0, 64, 64
1, 32787, Note_off_c, 0, 59, 66
1, 32796, Note_off_c, 0, 55, 57
1, 32799, Control_c, 0, 64, 42
1, 32803, Note_off_c, 0, 60, 50
1, 32814, Control_c, 0, 64, 49
1, 32829, Control_c, 0, 64, 68
1, 32841, Note_on_c, 0, 62, 91
1, 32844, Control_c, 0, 64, 99
1, 32847, Note_on_c, 0, 65, 92
1, 32848, Note_on_c, 0, 55, 87
1, 32848, Note_on_c, 0, 59, 92
1, 32848, Note_on_c, 0, 98, 97
1, 32850, Note_on_c, 0, 67, 61
1, 32851, Note_on_c, 0, 89, 91
1, 32852, Note_on_c, 0, 86, 96
1, 32856, Note_on_c, 0, 96, 101
1, 32857, Note_on_c, 0, 93, 86
1, 32858, Control_c, 0, 64, 127
1, 32865, Note_off_c, 0, 65, 72
1, 32869, Note_on_c, 0, 88, 39
1, 32871, Note_off_c, 0, 86, 70
1, 32874, Note_off_c, 0, 59, 68
1, 32877, Note_on_c, 0, 84, 50
1, 32878, Note_off_c, 0, 84, 127
1, 32878, Note_off_c, 0, 62, 65
1, 32878, Note_off_c, 0, 67, 65
1, 32878, Note_off_c, 0, 55, 64
1, 32879, Note_off_c, 0, 93, 70
1, 32882, Note_off_c, 0, 89, 65
1, 32895, Note_off_c, 0, 88, 60
1, 32898, Note_on_c, 0, 91, 29
1, 32899, Note_off_c, 0, 91, 127
1, 32905, Note_off_c, 0, 96, 36
1, 32905, Note_off_c, 0, 98, 64
1, 33051, Note_on_c, 0, 96, 99
1, 33053, Note_on_c, 0, 84, 93
1, 33053, Note_on_c, 0, 88, 94
1, 33059, Note_on_c, 0, 59, 69
1, 33059, Note_on_c, 0, 62, 69
1, 33059, Note_on_c, 0, 91, 74
1, 33064, Note_on_c, 0, 55, 63
1, 33069, Note_on_c, 0, 65, 60
1, 33072, Note_off_c, 0, 84, 70
1, 33072, Note_off_c, 0, 88, 71
1, 33076, Note_off_c, 0, 91, 68
1, 33083, Note_off_c, 0, 62, 64
1, 33084, Note_off_c, 0, 59, 69
1, 33088, Note_off_c, 0, 65, 66
1, 33091, Note_off_c, 0, 96, 65
1, 33091, Note_off_c, 0, 55, 66
1, 33136, Note_on_c, 0, 95, 96
1, 33139, Note_on_c, 0, 59, 79
1, 33139, Note_on_c, 0, 86, 93
1, 33142, Note_on_c, 0, 55, 73
1, 33143, Note_on_c, 0, 83, 83
1, 33147, Note_on_c, 0, 62, 81
1, 33152, Note_on_c, 0, 89, 69
1, 33161, Note_off_c, 0, 86, 69
1, 33164, Note_off_c, 0, 83, 70
1, 33165, Note_on_c, 0, 65, 49
1, 33165, Note_on_c, 0, 67, 48
1, 33168, Note_off_c, 0, 55, 66
1, 33168, Note_off_c, 0, 89, 67
1, 33169, Control_c, 0, 64, 117
1, 33170, Note_off_c, 0, 62, 68
1, 33186, Note_off_c, 0, 59, 67
1, 33188, Note_off_c, 0, 95, 66
1, 33192, Control_c, 0, 64, 64
1, 33195, Note_off_c, 0, 65, 61
1, 33199, Note_off_c, 0, 67, 57
1, 33207, Control_c, 0, 64, 0
1, 33234, Note_on_c, 0, 93, 100
1, 33237, Note_on_c, 0, 64, 90
1, 33237, Note_on_c, 0, 84, 85
1, 33237, Control_c, 0, 64, 15
1, 33240, Note_on_c, 0, 55, 75
1, 33240, Note_on_c, 0, 60, 89
1, 33243, Note_on_c, 0, 81, 87
1, 33249, Note_on_c, 0, 88, 78
1, 33252, Control_c, 0, 64, 57
1, 33252, Note_on_c, 0, 83, 5
1, 33253, Note_off_c, 0, 83, 127
1, 33255, Note_on_c, 0, 67, 76
1, 33259, Note_off_c, 0, 67, 55
1, 33262, Note_off_c, 0, 81, 69
1, 33264, Note_off_c, 0, 88, 72
1, 33267, Control_c, 0, 64, 79
1, 33270, Note_off_c, 0, 84, 66
1, 33278, Note_off_c, 0, 64, 64
1, 33282, Control_c, 0, 64, 127
1, 33282, Note_off_c, 0, 60, 62
1, 33285, Note_off_c, 0, 55, 60
1, 33285, Note_off_c, 0, 93, 66
1, 33329, Note_on_c, 0, 81, 22
1, 33330, Note_off_c, 0, 81, 127
1, 33357, Note_on_c, 0, 67, 12
1, 33401, Note_off_c, 0, 67, 36
1, 33441, Note_on_c, 0, 93, 103
1, 33443, Note_on_c, 0, 60, 83
1, 33443, Note_on_c, 0, 64, 81
1, 33443, Note_on_c, 0, 84, 102
1, 33446, Note_on_c, 0, 81, 90
1, 33448, Note_on_c, 0, 67, 78
1, 33449, Note_on_c, 0, 55, 82
1, 33457, Note_on_c, 0, 88, 74
1, 33464, Note_off_c, 0, 81, 72
1, 33470, Note_off_c, 0, 64, 68
1, 33472, Note_off_c, 0, 88, 71
1, 33474, Note_off_c, 0, 67, 66
1, 33475, Note_off_c, 0, 60, 65
1, 33476, Note_off_c, 0, 55, 65
1, 33478, Note_off_c, 0, 84, 66
1, 33488, Note_off_c, 0, 93, 67
1, 33548, Control_c, 0, 64, 73
1, 33562, Control_c, 0, 64, 39
1, 33577, Control_c, 0, 64, 0
1, 33637, Control_c, 0, 64, 59
1, 33639, Note_on_c, 0, 95, 104
1, 33642, Note_on_c, 0, 86, 99
1, 33644, Note_on_c, 0, 83, 92
1, 33646, Note_on_c, 0, 62, 84
1, 33648, Note_on_c, 0, 59, 88
1, 33649, Note_on_c, 0, 55, 84
1, 33651, Note_on_c, 0, 89, 81
1, 33652, Control_c, 0, 64, 80
1, 33655, Note_on_c, 0, 67, 73
1, 33659, Note_on_c, 0, 65, 68
1, 33661, Note_off_c, 0, 83, 74
1, 33664, Note_off_c, 0, 86, 68
1, 33667, Note_off_c, 0, 89, 68
1, 33667, Control_c, 0, 64, 127
1, 33668, Note_off_c, 0, 62, 70
1, 33671, Note_off_c, 0, 67, 68
1, 33675, Note_off_c, 0, 59, 69
1, 33675, Note_off_c, 0, 55, 68
1, 33676, Note_off_c, 0, 65, 67
1, 33685, Note_off_c, 0, 95, 69
1, 33838, Note_on_c, 0, 95, 102
1, 33843, Note_on_c, 0, 59, 68
1, 33843, Note_on_c, 0, 86, 89
1, 33845, Note_on_c, 0, 55, 77
1, 33846, Note_on_c, 0, 83, 91
1, 33852, Note_on_c, 0, 62, 68
1, 33852, Note_on_c, 0, 67, 61
1, 33858, Note_on_c, 0, 65, 61
1, 33859, Note_off_c, 0, 83, 75
1, 33864, Note_off_c, 0, 86, 72
1, 33865, Note_on_c, 0, 88, 71
1, 33867, Note_on_c, 0, 89, 59
1, 33871, Note_off_c, 0, 67, 65
1, 33871, Note_off_c, 0, 55, 65
1, 33872, Note_off_c, 0, 62, 68
1, 33876, Note_off_c, 0, 59, 68
1, 33877, Note_off_c, 0, 65, 63
1, 33882, Note_off_c, 0, 95, 70
1, 33885, Note_off_c, 0, 88, 43
1, 33894, Note_off_c, 0, 89, 60
1, 34057, Note_on_c, 0, 59, 76
1, 34061, Note_on_c, 0, 62, 68
1, 34064, Note_on_c, 0, 55, 69
1, 34066, Note_on_c, 0, 95, 99
1, 34069, Note_on_c, 0, 67, 58
1, 34072, Note_on_c, 0, 86, 87
1, 34078, Note_on_c, 0, 83, 74
1, 34081, Note_off_c, 0, 62, 68
1, 34082, Note_off_c, 0, 59, 67
1, 34085, Note_off_c, 0, 86, 73
1, 34090, Note_off_c, 0, 55, 65
1, 34091, Note_off_c, 0, 67, 62
1, 34093, Note_off_c, 0, 83, 71
1, 34100, Note_on_c, 0, 89, 23
1, 34101, Note_off_c, 0, 89, 127
1, 34105, Note_off_c, 0, 95, 66
1, 34146, Note_on_c, 0, 59, 77
1, 34149, Note_on_c, 0, 62, 78
1, 34151, Note_on_c, 0, 55, 76
1, 34153, Note_on_c, 0, 67, 78
1, 34153, Note_on_c, 0, 96, 98
1, 34160, Note_on_c, 0, 88, 86
1, 34161, Note_on_c, 0, 84, 86
1, 34168, Note_off_c, 0, 67, 71
1, 34174, Note_off_c, 0, 62, 67
1, 34175, Note_on_c, 0, 65, 48
1, 34177, Note_off_c, 0, 55, 64
1, 34180, Note_off_c, 0, 59, 64
1, 34181, Note_off_c, 0, 88, 72
1, 34181, Note_off_c, 0, 84, 71
1, 34191, Note_on_c, 0, 91, 32
1, 34198, Note_off_c, 0, 96, 66
1, 34199, Note_off_c, 0, 65, 60
1, 34223, Note_off_c, 0, 91, 36
1, 34239, Poly_aftertouch_c, 0, 86, 0
1, 34245, Note_on_c, 0, 62, 83
1, 34248, Note_on_c, 0, 98, 91
1, 34251, Note_on_c, 0, 89, 87
1, 34251, Note_on_c, 0, 59, 84
1, 34251, Note_on_c, 0, 86, 66
1, 34252, Note_on_c, 0, 55, 70
1, 34257, Note_on_c, 0, 84, 21
1, 34258, Note_on_c, 0, 67, 38
1, 34266, Note_off_c, 0, 62, 73
1, 34267, Note_on_c, 0, 65, 64
1, 34272, Note_off_c, 0, 89, 71
1, 34275, Note_off_c, 0, 59, 70
1, 34275, Note_off_c, 0, 86, 68
1, 34278, Note_on_c, 0, 93, 45
1, 34281, Note_off_c, 0, 55, 65
1, 34288, Note_off_c, 0, 65, 63
1, 34288, Note_off_c, 0, 98, 63
1, 34296, Note_off_c, 0, 67, 45
1, 34303, Note_off_c, 0, 84, 35
1, 34304, Note_off_c, 0, 93, 41
1, 34338, Poly_aftertouch_c, 0, 88, 0
1, 34340, Note_on_c, 0, 59, 75
1, 34340, Note_on_c, 0, 62, 74
1, 34342, Note_on_c, 0, 100, 91
1, 34349, Note_on_c, 0, 55, 75
1, 34352, Note_on_c, 0, 91, 73
1, 34359, Note_on_c, 0, 86, 49
1, 34362, Note_on_c, 0, 67, 67
1, 34368, Note_on_c, 0, 88, 29
1, 34368, Note_off_c, 0, 91, 66
1, 34370, Note_off_c, 0, 62, 68
1, 34372, Note_on_c, 0, 98, 50
1, 34373, Note_off_c, 0, 98, 127
1, 34375, Note_on_c, 0, 65, 41
1, 34379, Note_off_c, 0, 55, 65
1, 34379, Note_off_c, 0, 100, 64
1, 34380, Note_off_c, 0, 67, 67
1, 34382, Note_off_c, 0, 86, 35
1, 34383, Note_on_c, 0, 95, 32
1, 34383, Note_off_c, 0, 59, 65
1, 34403, Note_off_c, 0, 65, 56
1, 34414, Note_off_c, 0, 88, 28
1, 34425, Note_off_c, 0, 95, 34
1, 34444, Note_on_c, 0, 62, 83
1, 34444, Poly_aftertouch_c, 0, 89, 0
1, 34446, Note_on_c, 0, 98, 97
1, 34448, Note_on_c, 0, 86, 82
1, 34450, Note_on_c, 0, 55, 70
1, 34450, Note_on_c, 0, 59, 76
1, 34450, Note_on_c, 0, 67, 61
1, 34452, Note_on_c, 0, 96, 88
1, 34458, Note_on_c, 0, 84, 58
1, 34460, Note_on_c, 0, 88, 43
1, 34460, Note_on_c, 0, 89, 35
1, 34462, Note_off_c, 0, 86, 71
1, 34466, Note_off_c, 0, 62, 69
1, 34469, Note_off_c, 0, 67, 65
1, 34471, Note_off_c, 0, 96, 71
1, 34475, Note_off_c, 0, 59, 67
1, 34476, Note_off_c, 0, 84, 66
1, 34476, Note_off_c, 0, 98, 62
1, 34480, Note_off_c, 0, 55, 65
1, 34481, Note_off_c, 0, 88, 62
1, 34487, Note_off_c, 0, 89, 48
1, 34508, Note_on_c, 0, 93, 4
1, 34509, Note_off_c, 0, 93, 127
1, 34535, Note_on_c, 0, 62, 68
1, 34536, Note_on_c, 0, 96, 82
1, 34542, Note_on_c, 0, 88, 84
1, 34543, Note_on_c, 0, 67, 62
1, 34543, Note_on_c, 0, 84, 78
1, 34544, Note_on_c, 0, 59, 76
1, 34551, Note_on_c, 0, 95, 72
1, 34555, Note_on_c, 0, 55, 60
1, 34559, Note_off_c, 0, 84, 70
1, 34562, Note_off_c, 0, 62, 68
1, 34564, Note_off_c, 0, 67, 61
1, 34565, Note_off_c, 0, 88, 68
1, 34567, Note_off_c, 0, 95, 67
1, 34567, Note_off_c, 0, 96, 61
1, 34568, Note_off_c, 0, 59, 69
1, 34576, Note_off_c, 0, 55, 66
1, 34626, Note_on_c, 0, 95, 81
1, 34632, Note_on_c, 0, 59, 70
1, 34633, Note_on_c, 0, 86, 72
1, 34634, Note_on_c, 0, 62, 85
1, 34640, Note_on_c, 0, 83, 66
1, 34643, Note_on_c, 0, 55, 63
1, 34643, Note_on_c, 0, 67, 59
1, 34643, Note_on_c, 0, 93, 64
1, 34656, Note_off_c, 0, 86, 68
1, 34657, Note_off_c, 0, 83, 68
1, 34658, Note_off_c, 0, 62, 69
1, 34661, Note_off_c, 0, 67, 66
1, 34661, Note_off_c, 0, 93, 39
1, 34663, Note_on_c, 0, 89, 24
1, 34671, Note_off_c, 0, 59, 67
1, 34671, Note_off_c, 0, 95, 66
1, 34683, Note_off_c, 0, 55, 62
1, 34702, Poly_aftertouch_c, 0, 88, 0
1, 34703, Note_off_c, 0, 89, 34
1, 34724, Note_on_c, 0, 93, 92
1, 34731, Note_on_c, 0, 62, 74
1, 34733, Note_on_c, 0, 84, 83
1, 34737, Note_on_c, 0, 67, 57
1, 34737, Note_on_c, 0, 81, 75
1, 34746, Note_on_c, 0, 55, 65
1, 34749, Note_on_c, 0, 59, 75
1, 34750, Note_on_c, 0, 65, 36
1, 34755, Note_off_c, 0, 84, 71
1, 34758, Note_off_c, 0, 67, 62
1, 34762, Note_off_c, 0, 81, 67
1, 34767, Note_off_c, 0, 62, 66
1, 34770, Note_off_c, 0, 59, 69
1, 34772, Note_on_c, 0, 88, 12
1, 34773, Note_off_c, 0, 55, 66
1, 34775, Note_off_c, 0, 93, 66
1, 34779, Note_off_c, 0, 65, 50
1, 34825, Note_on_c, 0, 91, 92
1, 34828, Note_on_c, 0, 59, 74
1, 34830, Note_on_c, 0, 62, 98
1, 34830, Note_off_c, 0, 88, 52
1, 34832, Note_on_c, 0, 83, 93
1, 34834, Note_on_c, 0, 55, 77
1, 34838, Note_on_c, 0, 79, 76
1, 34841, Note_on_c, 0, 67, 64
1, 34849, Note_on_c, 0, 86, 67
1, 34850, Note_on_c, 0, 65, 65
1, 34860, Note_off_c, 0, 67, 64
1, 34862, Note_off_c, 0, 79, 70
1, 34866, Note_off_c, 0, 62, 66
1, 34866, Note_off_c, 0, 83, 63
1, 34866, Note_off_c, 0, 86, 65
1, 34868, Note_off_c, 0, 55, 55
1, 34870, Note_off_c, 0, 65, 63
1, 34877, Note_off_c, 0, 59, 66
1, 34889, Poly_aftertouch_c, 0, 84, 0
1, 34900, Note_off_c, 0, 91, 64
1, 35028, Note_on_c, 0, 59, 77
1, 35032, Note_on_c, 0, 62, 74
1, 35035, Note_on_c, 0, 89, 97
1, 35040, Note_on_c, 0, 55, 65
1, 35041, Note_on_c, 0, 77, 89
1, 35042, Note_on_c, 0, 81, 81
1, 35056, Note_off_c, 0, 62, 67
1, 35062, Note_off_c, 0, 55, 62
1, 35064, Note_off_c, 0, 81, 69
1, 35065, Note_off_c, 0, 77, 68
1, 35077, Note_off_c, 0, 59, 64
1, 35098, Note_off_c, 0, 89, 65
1, 35103, Poly_aftertouch_c, 0, 67, 127
1, 35127, Poly_aftertouch_c, 0, 67, 0
1, 35238, Control_c, 0, 64, 74
1, 35253, Control_c, 0, 64, 15
1, 35268, Control_c, 0, 64, 0
1, 35274, Note_on_c, 0, 88, 103
1, 35281, Note_on_c, 0, 67, 93
1, 35282, Note_on_c, 0, 64, 85
1, 35284, Note_on_c, 0, 79, 86
1, 35286, Note_on_c, 0, 76, 91
1, 35291, Note_on_c, 0, 55, 75
1, 35291, Note_on_c, 0, 59, 76
1, 35291, Note_on_c, 0, 83, 79
1, 35342, Control_c, 0, 64, 62
1, 35353, Note_off_c, 0, 67, 65
1, 35357, Control_c, 0, 64, 83
1, 35372, Control_c, 0, 64, 127
1, 35375, Note_off_c, 0, 88, 67
1, 35377, Note_off_c, 0, 64, 65
1, 35381, Note_off_c, 0, 76, 60
1, 35399, Note_off_c, 0, 83, 66
1, 35400, Note_off_c, 0, 59, 66
1, 35429, Note_off_c, 0, 55, 64
1, 35433, Note_off_c, 0, 79, 64
1, 35690, Note_on_c, 0, 52, 78
1, 35701, Note_on_c, 0, 40, 68
1, 35722, Note_off_c, 0, 52, 66
1, 35728, Note_off_c, 0, 40, 64
1, 35786, Note_on_c, 0, 52, 74
1, 35840, Note_off_c, 0, 52, 64
1, 35852, Poly_aftertouch_c, 0, 54, 127
1, 35876, Note_on_c, 0, 47, 70
1, 35891, Note_on_c, 0, 35, 63
1, 35900, Note_off_c, 0, 47, 66
1, 35922, Note_off_c, 0, 35, 64
1, 35927, Poly_aftertouch_c, 0, 54, 0
1, 35959, Note_on_c, 0, 47, 78
1, 35983, Note_off_c, 0, 47, 67
1, 36075, Poly_aftertouch_c, 0, 34, 127
1, 36090, Control_c, 0, 64, 89
1, 36096, Note_on_c, 0, 28, 80
1, 36105, Control_c, 0, 64, 42
1, 36118, Poly_aftertouch_c, 0, 34, 0
1, 36120, Control_c, 0, 64, 0
1, 36128, Note_on_c, 0, 40, 87
1, 36146, Note_on_c, 0, 71, 94
1, 36161, Note_on_c, 0, 64, 61
1, 36165, Control_c, 0, 64, 37
1, 36167, Note_off_c, 0, 28, 64
1, 36186, Note_off_c, 0, 40, 65
1, 36188, Control_c, 0, 64, 65
1, 36198, Note_on_c, 0, 62, 63
1, 36203, Control_c, 0, 64, 87
1, 36217, Control_c, 0, 64, 127
1, 36238, Note_off_c, 0, 64, 64
1, 36276, Note_off_c, 0, 62, 63
1, 36291, Note_on_c, 0, 57, 65
1, 36318, Note_off_c, 0, 57, 66
1, 36332, Note_off_c, 0, 71, 65
1, 36394, Note_on_c, 0, 76, 95
1, 36411, Note_off_c, 0, 76, 74
1, 36478, Note_on_c, 0, 76, 37
1, 36500, Note_off_c, 0, 76, 52
1, 36588, Control_c, 0, 64, 81
1, 36601, Note_on_c, 0, 74, 80
1, 36603, Control_c, 0, 64, 0
1, 36619, Note_on_c, 0, 65, 34
1, 36628, Note_on_c, 0, 57, 77
1, 36632, Note_on_c, 0, 62, 83
1, 36648, Note_off_c, 0, 65, 63
1, 36654, Note_off_c, 0, 62, 69
1, 36658, Note_off_c, 0, 57, 67
1, 36662, Note_on_c, 0, 45, 58
1, 36677, Note_on_c, 0, 71, 76
1, 36701, Note_off_c, 0, 45, 66
1, 36716, Note_off_c, 0, 74, 64
1, 36740, Note_off_c, 0, 71, 66
1, 36795, Note_on_c, 0, 76, 99
1, 36796, Control_c, 0, 64, 17
1, 36801, Note_on_c, 0, 40, 86
1, 36806, Note_on_c, 0, 28, 93
1, 36811, Control_c, 0, 64, 0
1, 36826, Note_off_c, 0, 40, 68
1, 36828, Note_off_c, 0, 28, 67
1, 36833, Note_off_c, 0, 76, 66
1, 36996, Control_c, 0, 64, 36
1, 37011, Control_c, 0, 64, 57
1, 37021, Note_on_c, 0, 74, 98
1, 37026, Control_c, 0, 64, 60
1, 37028, Note_on_c, 0, 57, 77
1, 37035, Note_on_c, 0, 66, 71
1, 37040, Control_c, 0, 64, 64
1, 37055, Control_c, 0, 64, 73
1, 37056, Note_on_c, 0, 62, 76
1, 37059, Note_off_c, 0, 57, 66
1, 37070, Control_c, 0, 64, 89
1, 37075, Note_off_c, 0, 66, 54
1, 37085, Control_c, 0, 64, 127
1, 37092, Note_on_c, 0, 45, 65
1, 37113, Note_off_c, 0, 62, 66
1, 37116, Note_off_c, 0, 45, 67
1, 37143, Note_off_c, 0, 74, 64
1, 37211, Note_on_c, 0, 40, 91
1, 37213, Note_on_c, 0, 76, 95
1, 37214, Note_on_c, 0, 28, 91
1, 37219, Control_c, 0, 64, 83
1, 37234, Control_c, 0, 64, 55
1, 37239, Note_off_c, 0, 40, 65
1, 37241, Note_off_c, 0, 28, 67
1, 37244, Note_off_c, 0, 76, 66
1, 37248, Control_c, 0, 64, 0
1, 37396, Control_c, 0, 64, 47
1, 37411, Control_c, 0, 64, 59
1, 37414, Note_on_c, 0, 74, 94
1, 37423, Note_on_c, 0, 57, 81
1, 37423, Note_on_c, 0, 62, 97
1, 37426, Control_c, 0, 64, 64
1, 37441, Control_c, 0, 64, 67
1, 37445, Note_on_c, 0, 67, 44
1, 37447, Note_off_c, 0, 62, 69
1, 37452, Note_off_c, 0, 57, 66
1, 37456, Control_c, 0, 64, 76
1, 37462, Note_off_c, 0, 74, 65
1, 37470, Control_c, 0, 64, 89
1, 37475, Note_off_c, 0, 67, 36
1, 37485, Control_c, 0, 64, 110
1, 37500, Control_c, 0, 64, 127
1, 37521, Note_on_c, 0, 45, 22
1, 37545, Control_c, 0, 64, 92
1, 37559, Note_off_c, 0, 45, 42
1, 37560, Control_c, 0, 64, 67
1, 37575, Control_c, 0, 64, 39
1, 37590, Control_c, 0, 64, 0
1, 37610, Note_on_c, 0, 40, 85
1, 37612, Note_on_c, 0, 71, 89
1, 37616, Note_on_c, 0, 28, 81
1, 37639, Note_off_c, 0, 40, 66
1, 37643, Note_off_c, 0, 28, 65
1, 37643, Note_off_c, 0, 71, 61
1, 37804, Control_c, 0, 64, 39
1, 37819, Control_c, 0, 64, 57
1, 37823, Note_on_c, 0, 76, 94
1, 37833, Note_on_c, 0, 57, 84
1, 37834, Control_c, 0, 64, 63
1, 37837, Note_on_c, 0, 68, 75
1, 37845, Note_on_c, 0, 74, 58
1, 37849, Control_c, 0, 64, 65
1, 37859, Note_on_c, 0, 62, 73
1, 37863, Control_c, 0, 64, 70
1, 37878, Control_c, 0, 64, 78
1, 37885, Note_off_c, 0, 57, 61
1, 37893, Control_c, 0, 64, 91
1, 37894, Note_off_c, 0, 68, 41
1, 37908, Control_c, 0, 64, 112
1, 37915, Note_off_c, 0, 74, 28
1, 37923, Control_c, 0, 64, 127
1, 37932, Note_off_c, 0, 62, 64
1, 37941, Note_on_c, 0, 45, 38
1, 37977, Note_off_c, 0, 45, 45
1, 38022, Note_on_c, 0, 28, 90
1, 38025, Note_on_c, 0, 40, 86
1, 38045, Note_off_c, 0, 28, 66
1, 38048, Note_off_c, 0, 40, 66
1, 38146, Control_c, 0, 64, 117
1, 38160, Control_c, 0, 64, 65
1, 38175, Control_c, 0, 64, 24
1, 38190, Control_c, 0, 64, 0
1, 38201, Poly_aftertouch_c, 0, 40, 0
1, 38215, Note_on_c, 0, 74, 87
1, 38232, Note_on_c, 0, 69, 79
1, 38234, Control_c, 0, 64, 19
1, 38243, Note_on_c, 0, 57, 58
1, 38245, Note_off_c, 0, 76, 63
1, 38249, Control_c, 0, 64, 56
1, 38253, Note_on_c, 0, 55, 56
1, 38261, Note_on_c, 0, 62, 67
1, 38264, Control_c, 0, 64, 70
1, 38278, Control_c, 0, 64, 81
1, 38284, Note_off_c, 0, 57, 65
1, 38290, Note_off_c, 0, 62, 67
1, 38291, Note_off_c, 0, 55, 63
1, 38293, Control_c, 0, 64, 91
1, 38295, Note_off_c, 0, 69, 65
1, 38308, Control_c, 0, 64, 99
1, 38323, Control_c, 0, 64, 104
1, 38338, Control_c, 0, 64, 110
1, 38342, Note_off_c, 0, 74, 67
1, 38353, Control_c, 0, 64, 124
1, 38368, Control_c, 0, 64, 127
1, 38377, Poly_aftertouch_c, 0, 43, 127
1, 38417, Note_on_c, 0, 40, 88
1, 38418, Note_on_c, 0, 28, 86
1, 38434, Poly_aftertouch_c, 0, 43, 0
1, 38452, Note_off_c, 0, 40, 64
1, 38453, Note_off_c, 0, 28, 62
1, 38511, Note_on_c, 0, 94, 86
1, 38588, Note_off_c, 0, 94, 65
1, 38592, Note_on_c, 0, 98, 90
1, 38609, Note_on_c, 0, 86, 64
1, 38613, Note_on_c, 0, 57, 10
1, 38640, Note_off_c, 0, 86, 64
1, 38642, Control_c, 0, 64, 97
1, 38643, Note_on_c, 0, 58, 67
1, 38655, Note_off_c, 0, 57, 44
1, 38655, Poly_aftertouch_c, 0, 54, 127
1, 38657, Control_c, 0, 64, 61
1, 38672, Control_c, 0, 64, 0
1, 38679, Poly_aftertouch_c, 0, 54, 0
1, 38702, Note_on_c, 0, 96, 79
1, 38702, Note_on_c, 0, 95, 82
1, 38714, Note_off_c, 0, 58, 56
1, 38714, Note_off_c, 0, 98, 64
1, 38716, Control_c, 0, 64, 36
1, 38721, Note_on_c, 0, 56, 68
1, 38731, Control_c, 0, 64, 59
1, 38734, Note_on_c, 0, 57, 45
1, 38746, Control_c, 0, 64, 78
1, 38760, Control_c, 0, 64, 127
1, 38765, Note_off_c, 0, 96, 65
1, 38767, Note_off_c, 0, 95, 67
1, 38785, Note_off_c, 0, 56, 62
1, 38790, Note_on_c, 0, 100, 102
1, 38797, Note_on_c, 0, 54, 83
1, 38801, Note_on_c, 0, 62, 95
1, 38822, Note_on_c, 0, 88, 48
1, 38829, Note_off_c, 0, 100, 68
1, 38830, Note_off_c, 0, 57, 64
1, 38839, Note_off_c, 0, 62, 64
1, 38845, Note_off_c, 0, 88, 63
1, 38854, Note_off_c, 0, 54, 65
1, 38897, Poly_aftertouch_c, 0, 89, 0
1, 38984, Note_on_c, 0, 52, 91
1, 38996, Note_on_c, 0, 40, 87
1, 39023, Note_off_c, 0, 40, 65
1, 39023, Note_off_c, 0, 52, 66
1, 39077, Note_on_c, 0, 52, 78
1, 39104, Note_off_c, 0, 52, 67
1, 39175, Note_on_c, 0, 47, 84
1, 39191, Note_on_c, 0, 35, 77
1, 39202, Note_off_c, 0, 47, 69
1, 39220, Note_off_c, 0, 35, 64
1, 39252, Note_on_c, 0, 47, 85
1, 39273, Note_off_c, 0, 47, 70
1, 39367, Note_on_c, 0, 29, 71
1, 39375, Control_c, 0, 64, 63
1, 39381, Poly_aftertouch_c, 0, 35, 0
1, 39386, Poly_aftertouch_c, 0, 30, 0
1, 39390, Control_c, 0, 64, 0
1, 39405, Note_on_c, 0, 41, 79
1, 39419, Note_on_c, 0, 71, 93
1, 39442, Note_on_c, 0, 65, 64
1, 39447, Note_off_c, 0, 29, 63
1, 39450, Control_c, 0, 64, 41
1, 39465, Control_c, 0, 64, 69
1, 39467, Note_off_c, 0, 41, 64
1, 39480, Control_c, 0, 64, 100
1, 39494, Control_c, 0, 64, 127
1, 39500, Note_off_c, 0, 65, 54
1, 39514, Note_on_c, 0, 64, 78
1, 39569, Note_off_c, 0, 64, 64
1, 39586, Note_off_c, 0, 71, 63
1, 39600, Note_on_c, 0, 62, 60
1, 39632, Note_off_c, 0, 62, 58
1, 39664, Note_on_c, 0, 76, 92
1, 39669, Note_on_c, 0, 74, 82
1, 39682, Note_off_c, 0, 74, 72
1, 39684, Note_off_c, 0, 76, 71
1, 39828, Poly_aftertouch_c, 0, 74, 0
1, 39849, Note_on_c, 0, 74, 53
1, 39864, Note_on_c, 0, 66, 83
1, 39870, Note_on_c, 0, 62, 87
1, 39898, Note_on_c, 0, 64, 65
1, 39912, Note_off_c, 0, 66, 65
1, 39915, Note_off_c, 0, 62, 63
1, 39939, Note_off_c, 0, 64, 66
1, 39947, Control_c, 0, 64, 110
1, 39957, Note_on_c, 0, 71, 85
1, 39962, Note_on_c, 0, 50, 44
1, 39962, Control_c, 0, 64, 65
1, 39977, Control_c, 0, 64, 0
1, 39977, Note_off_c, 0, 74, 65
1, 39992, Note_off_c, 0, 50, 44
1, 40010, Note_off_c, 0, 71, 65
1, 40036, Control_c, 0, 64, 24
1, 40050, Control_c, 0, 64, 54
1, 40052, Note_on_c, 0, 42, 84
1, 40055, Note_on_c, 0, 30, 87
1, 40056, Note_on_c, 0, 76, 98
1, 40065, Control_c, 0, 64, 71
1, 40073, Note_off_c, 0, 42, 68
1, 40080, Control_c, 0, 64, 84
1, 40084, Note_off_c, 0, 30, 65
1, 40090, Note_off_c, 0, 76, 64
1, 40095, Control_c, 0, 64, 115
1, 40110, Control_c, 0, 64, 127
1, 40186, Note_on_c, 0, 42, 3
1, 40220, Note_off_c, 0, 42, 51
1, 40228, Control_c, 0, 64, 116
1, 40243, Control_c, 0, 64, 75
1, 40246, Note_on_c, 0, 74, 101
1, 40258, Control_c, 0, 64, 54
1, 40260, Note_on_c, 0, 67, 68
1, 40267, Note_on_c, 0, 62, 77
1, 40272, Control_c, 0, 64, 0
1, 40289, Note_off_c, 0, 67, 66
1, 40292, Note_on_c, 0, 64, 76
1, 40301, Note_off_c, 0, 62, 65
1, 40339, Note_on_c, 0, 48, 69
1, 40362, Note_off_c, 0, 48, 67
1, 40363, Note_off_c, 0, 64, 65
1, 40385, Note_off_c, 0, 74, 65
1, 40407, Control_c, 0, 64, 51
1, 40422, Control_c, 0, 64, 63
1, 40436, Control_c, 0, 64, 68
1, 40450, Note_on_c, 0, 43, 83
1, 40451, Control_c, 0, 64, 75
1, 40452, Note_on_c, 0, 31, 85
1, 40452, Note_on_c, 0, 76, 92
1, 40466, Control_c, 0, 64, 94
1, 40469, Note_off_c, 0, 43, 68
1, 40474, Note_off_c, 0, 31, 67
1, 40481, Control_c, 0, 64, 127
1, 40488, Note_off_c, 0, 76, 65
1, 40548, Poly_aftertouch_c, 0, 32, 0
1, 40568, Poly_aftertouch_c, 0, 32, 0
1, 40615, Control_c, 0, 64, 85
1, 40629, Poly_aftertouch_c, 0, 43, 0
1, 40629, Control_c, 0, 64, 61
1, 40644, Control_c, 0, 64, 22
1, 40645, Note_on_c, 0, 74, 93
1, 40655, Note_on_c, 0, 62, 86
1, 40659, Control_c, 0, 64, 0
1, 40660, Note_on_c, 0, 68, 74
1, 40677, Note_on_c, 0, 64, 75
1, 40690, Note_off_c, 0, 68, 68
1, 40702, Note_off_c, 0, 64, 68
1, 40705, Note_off_c, 0, 74, 66
1, 40708, Note_off_c, 0, 62, 66
1, 40756, Note_on_c, 0, 50, 39
1, 40791, Note_off_c, 0, 50, 32
1, 40829, Control_c, 0, 64, 25
1, 40844, Control_c, 0, 64, 56
1, 40851, Note_on_c, 0, 44, 94
1, 40855, Note_on_c, 0, 71, 97
1, 40859, Note_on_c, 0, 32, 83
1, 40859, Control_c, 0, 64, 66
1, 40873, Control_c, 0, 64, 74
1, 40875, Note_off_c, 0, 44, 67
1, 40877, Note_off_c, 0, 71, 69
1, 40879, Note_off_c, 0, 32, 66
1, 40888, Control_c, 0, 64, 87
1, 40903, Control_c, 0, 64, 114
1, 40918, Control_c, 0, 64, 127
1, 41036, Control_c, 0, 64, 122
1, 41050, Note_on_c, 0, 76, 102
1, 41051, Control_c, 0, 64, 74
1, 41062, Note_on_c, 0, 69, 81
1, 41066, Control_c, 0, 64, 47
1, 41080, Note_on_c, 0, 62, 73
1, 41080, Control_c, 0, 64, 0
1, 41096, Note_off_c, 0, 69, 60
1, 41100, Note_on_c, 0, 64, 44
1, 41113, Note_off_c, 0, 62, 63
1, 41167, Note_off_c, 0, 64, 64
1, 41230, Control_c, 0, 64, 28
1, 41244, Control_c, 0, 64, 52
1, 41253, Note_on_c, 0, 45, 85
1, 41256, Note_on_c, 0, 33, 90
1, 41259, Control_c, 0, 64, 63
1, 41274, Control_c, 0, 64, 71
1, 41276, Note_off_c, 0, 45, 70
1, 41280, Note_off_c, 0, 33, 66
1, 41289, Control_c, 0, 64, 80
1, 41304, Control_c, 0, 64, 93
1, 41319, Control_c, 0, 64, 127
1, 41341, Poly_aftertouch_c, 0, 34, 0
1, 41446, Note_off_c, 0, 76, 0
1, 41461, Note_on_c, 0, 62, 80
1, 41465, Note_on_c, 0, 74, 87
1, 41479, Note_on_c, 0, 70, 79
1, 41495, Poly_aftertouch_c, 0, 76, 0
1, 41508, Note_off_c, 0, 62, 64
1, 41517, Note_on_c, 0, 64, 66
1, 41542, Note_off_c, 0, 64, 67
1, 41544, Note_on_c, 0, 50, 67
1, 41548, Control_c, 0, 64, 106
1, 41563, Control_c, 0, 64, 60
1, 41569, Note_off_c, 0, 50, 66
1, 41578, Control_c, 0, 64, 0
1, 41582, Note_off_c, 0, 70, 66
1, 41606, Note_off_c, 0, 74, 67
1, 41637, Control_c, 0, 64, 11
1, 41652, Control_c, 0, 64, 60
1, 41658, Note_on_c, 0, 46, 93
1, 41663, Note_on_c, 0, 34, 80
1, 41667, Control_c, 0, 64, 77
1, 41676, Note_off_c, 0, 46, 69
1, 41682, Control_c, 0, 64, 120
1, 41693, Note_off_c, 0, 34, 64
1, 41696, Control_c, 0, 64, 127
1, 41775, Note_on_c, 0, 94, 81
1, 41794, Poly_aftertouch_c, 0, 46, 0
1, 41816, Poly_aftertouch_c, 0, 46, 0
1, 41823, Note_on_c, 0, 56, 38
1, 41847, Note_off_c, 0, 56, 0
1, 41853, Note_off_c, 0, 94, 64
1, 41864, Note_on_c, 0, 98, 85
1, 41876, Note_on_c, 0, 86, 40
1, 41879, Note_on_c, 0, 56, 27
1, 41918, Note_off_c, 0, 86, 49
1, 41918, Control_c, 0, 64, 73
1, 41921, Note_off_c, 0, 56, 40
1, 41933, Control_c, 0, 64, 37
1, 41948, Control_c, 0, 64, 0
1, 41949, Note_on_c, 0, 57, 62
1, 41962, Note_on_c, 0, 56, 56
1, 41962, Note_on_c, 0, 95, 98
1, 41978, Control_c, 0, 64, 35
1, 41980, Note_off_c, 0, 98, 64
1, 41993, Control_c, 0, 64, 63
1, 42008, Control_c, 0, 64, 85
1, 42023, Control_c, 0, 64, 127
1, 42028, Note_off_c, 0, 95, 67
1, 42046, Poly_aftertouch_c, 0, 54, 127
1, 42049, Note_on_c, 0, 62, 87
1, 42053, Note_on_c, 0, 64, 85
1, 42053, Note_on_c, 0, 100, 93
1, 42066, Note_on_c, 0, 88, 74
1, 42077, Note_on_c, 0, 53, 59
1, 42077, Note_off_c, 0, 64, 69
1, 42080, Note_off_c, 0, 57, 58
1, 42082, Note_off_c, 0, 88, 70
1, 42084, Note_on_c, 0, 57, 3
1, 42085, Note_off_c, 0, 57, 127
1, 42091, Note_off_c, 0, 56, 22
1, 42091, Note_off_c, 0, 62, 66
1, 42093, Note_off_c, 0, 100, 69
1, 42109, Note_off_c, 0, 53, 64
1, 42116, Poly_aftertouch_c, 0, 54, 0
1, 42248, Note_on_c, 0, 52, 77
1, 42260, Note_on_c, 0, 41, 72
1, 42264, Note_on_c, 0, 53, 40
1, 42275, Note_off_c, 0, 52, 67
1, 42283, Note_off_c, 0, 41, 62
1, 42289, Note_on_c, 0, 40, 40
1, 42293, Note_off_c, 0, 53, 33
1, 42323, Note_off_c, 0, 40, 53
1, 42336, Note_on_c, 0, 52, 82
1, 42383, Note_off_c, 0, 52, 64
1, 42432, Note_on_c, 0, 47, 88
1, 42446, Note_on_c, 0, 35, 86
1, 42457, Note_off_c, 0, 47, 70
1, 42467, Note_off_c, 0, 35, 67
1, 42520, Note_on_c, 0, 47, 82
1, 42541, Note_off_c, 0, 47, 70
1, 42555, Poly_aftertouch_c, 0, 45, 0
1, 42607, Note_on_c, 0, 40, 17
1, 42622, Poly_aftertouch_c, 0, 35, 0
1, 42625, Note_on_c, 0, 28, 87
1, 42651, Note_off_c, 0, 40, 42
1, 42697, Control_c, 0, 64, 78
1, 42710, Note_on_c, 0, 40, 106
1, 42712, Control_c, 0, 64, 15
1, 42721, Note_on_c, 0, 71, 91
1, 42726, Control_c, 0, 64, 0
1, 42728, Note_on_c, 0, 30, 60
1, 42757, Note_off_c, 0, 30, 58
1, 42770, Note_off_c, 0, 28, 65
1, 42771, Control_c, 0, 64, 14
1, 42786, Control_c, 0, 64, 65
1, 42796, Note_off_c, 0, 40, 65
1, 42802, Control_c, 0, 64, 85
1, 42816, Control_c, 0, 64, 127
1, 42843, Note_on_c, 0, 69, 72
1, 42921, Note_on_c, 0, 64, 78
1, 42984, Note_off_c, 0, 64, 66
1, 43009, Note_off_c, 0, 69, 60
1, 43028, Note_off_c, 0, 71, 54
1, 43034, Note_on_c, 0, 62, 91
1, 43040, Note_on_c, 0, 50, 85
1, 43041, Note_on_c, 0, 76, 100
1, 43057, Note_off_c, 0, 62, 70
1, 43084, Note_off_c, 0, 50, 64
1, 43192, Poly_aftertouch_c, 0, 62, 0
1, 43238, Note_on_c, 0, 40, 63
1, 43254, Note_on_c, 0, 47, 55
1, 43259, Note_on_c, 0, 74, 88
1, 43265, Note_off_c, 0, 40, 65
1, 43277, Note_off_c, 0, 47, 59
1, 43277, Note_on_c, 0, 52, 75
1, 43295, Note_off_c, 0, 76, 61
1, 43302, Note_off_c, 0, 52, 66
1, 43355, Note_on_c, 0, 71, 88
1, 43360, Note_off_c, 0, 74, 63
1, 43361, Note_on_c, 0, 59, 68
1, 43374, Note_on_c, 0, 57, 54
1, 43388, Note_off_c, 0, 59, 67
1, 43404, Note_off_c, 0, 57, 65
1, 43411, Poly_aftertouch_c, 0, 40, 0
1, 43417, Note_off_c, 0, 71, 62
1, 43439, Note_on_c, 0, 64, 90
1, 43448, Note_on_c, 0, 52, 82
1, 43456, Note_on_c, 0, 76, 98
1, 43471, Note_off_c, 0, 64, 68
1, 43478, Note_on_c, 0, 62, 42
1, 43486, Note_off_c, 0, 52, 66
1, 43504, Note_off_c, 0, 62, 59
1, 43609, Note_on_c, 0, 47, 45
1, 43635, Note_on_c, 0, 40, 53
1, 43651, Note_on_c, 0, 74, 92
1, 43654, Note_off_c, 0, 47, 67
1, 43657, Note_off_c, 0, 40, 61
1, 43671, Note_on_c, 0, 52, 88
1, 43690, Note_off_c, 0, 76, 60
1, 43697, Note_off_c, 0, 52, 66
1, 43833, Note_on_c, 0, 66, 101
1, 43844, Note_off_c, 0, 74, 62
1, 43845, Note_on_c, 0, 76, 94
1, 43849, Note_on_c, 0, 54, 84
1, 43863, Note_off_c, 0, 66, 68
1, 43878, Note_off_c, 0, 54, 67
1, 43903, Note_on_c, 0, 53, 10
1, 43953, Note_off_c, 0, 53, 38
1, 44017, Note_on_c, 0, 47, 52
1, 44045, Note_on_c, 0, 74, 83
1, 44046, Note_off_c, 0, 47, 54
1, 44061, Note_on_c, 0, 52, 82
1, 44092, Note_off_c, 0, 76, 60
1, 44093, Note_off_c, 0, 52, 65
1, 44228, Note_off_c, 0, 74, 60
1, 44230, Note_on_c, 0, 70, 89
1, 44236, Note_on_c, 0, 73, 89
1, 44237, Note_on_c, 0, 68, 81
1, 44246, Note_on_c, 0, 56, 90
1, 44249, Note_off_c, 0, 70, 71
1, 44262, Note_off_c, 0, 68, 69
1, 44280, Note_off_c, 0, 56, 61
1, 44305, Note_on_c, 0, 70, 42
1, 44336, Note_off_c, 0, 70, 53
1, 44428, Note_on_c, 0, 40, 66
1, 44431, Note_off_c, 0, 73, 63
1, 44447, Note_on_c, 0, 47, 57
1, 44448, Note_on_c, 0, 71, 88
1, 44452, Note_on_c, 0, 41, 43
1, 44453, Note_off_c, 0, 40, 60
1, 44473, Note_off_c, 0, 47, 58
1, 44474, Note_on_c, 0, 52, 85
1, 44489, Note_off_c, 0, 41, 51
1, 44502, Note_off_c, 0, 52, 68
1, 44603, Control_c, 0, 64, 71
1, 44607, Note_off_c, 0, 71, 63
1, 44618, Control_c, 0, 64, 62
1, 44633, Control_c, 0, 64, 68
1, 44638, Note_on_c, 0, 69, 92
1, 44643, Note_on_c, 0, 76, 94
1, 44647, Note_on_c, 0, 57, 94
1, 44647, Control_c, 0, 64, 92
1, 44662, Control_c, 0, 64, 127
1, 44672, Note_off_c, 0, 69, 68
1, 44689, Note_off_c, 0, 57, 65
1, 44841, Note_on_c, 0, 74, 83
1, 44848, Note_on_c, 0, 40, 46
1, 44848, Note_on_c, 0, 41, 46
1, 44857, Note_on_c, 0, 47, 46
1, 44857, Note_off_c, 0, 76, 52
1, 44860, Note_on_c, 0, 45, 49
1, 44864, Note_on_c, 0, 48, 48
1, 44876, Note_off_c, 0, 40, 57
1, 44879, Note_on_c, 0, 52, 86
1, 44884, Note_off_c, 0, 41, 51
1, 44886, Note_off_c, 0, 47, 62
1, 44890, Note_off_c, 0, 45, 51
1, 44895, Note_off_c, 0, 48, 51
1, 44899, Note_off_c, 0, 74, 64
1, 44920, Note_off_c, 0, 52, 64
1, 44938, Note_on_c, 0, 71, 83
1, 44997, Note_off_c, 0, 71, 64
1, 45003, Control_c, 0, 64, 97
1, 45018, Control_c, 0, 64, 95
1, 45024, Note_on_c, 0, 67, 97
1, 45032, Note_on_c, 0, 55, 89
1, 45032, Control_c, 0, 64, 105
1, 45042, Note_on_c, 0, 76, 98
1, 45047, Control_c, 0, 64, 127
1, 45059, Note_off_c, 0, 67, 68
1, 45081, Note_off_c, 0, 55, 66
1, 45218, Note_on_c, 0, 40, 72
1, 45238, Note_on_c, 0, 71, 85
1, 45245, Note_on_c, 0, 41, 53
1, 45248, Note_off_c, 0, 40, 63
1, 45265, Note_on_c, 0, 47, 35
1, 45271, Note_on_c, 0, 52, 78
1, 45273, Note_off_c, 0, 41, 57
1, 45286, Note_off_c, 0, 76, 60
1, 45299, Note_off_c, 0, 52, 68
1, 45300, Note_off_c, 0, 47, 45
1, 45426, Note_off_c, 0, 71, 61
1, 45429, Note_on_c, 0, 65, 96
1, 45436, Poly_aftertouch_c, 0, 59, 0
1, 45437, Note_on_c, 0, 53, 95
1, 45459, Note_on_c, 0, 76, 92
1, 45463, Poly_aftertouch_c, 0, 59, 0
1, 45465, Note_off_c, 0, 65, 67
1, 45486, Note_off_c, 0, 53, 64
1, 45556, Poly_aftertouch_c, 0, 71, 0
1, 45629, Note_on_c, 0, 40, 73
1, 45635, Note_on_c, 0, 47, 68
1, 45645, Note_on_c, 0, 74, 79
1, 45649, Note_off_c, 0, 40, 65
1, 45660, Note_off_c, 0, 47, 67
1, 45661, Note_off_c, 0, 76, 60
1, 45679, Note_on_c, 0, 52, 75
1, 45702, Note_off_c, 0, 52, 67
1, 45741, Note_off_c, 0, 74, 61
1, 45742, Note_on_c, 0, 73, 87
1, 45781, Control_c, 0, 64, 90
1, 45796, Control_c, 0, 64, 66
1, 45817, Note_off_c, 0, 73, 65
1, 45826, Control_c, 0, 64, 83
1, 45828, Note_on_c, 0, 63, 94
1, 45841, Control_c, 0, 64, 127
1, 45841, Note_on_c, 0, 51, 83
1, 45841, Note_on_c, 0, 71, 94
1, 45855, Note_off_c, 0, 63, 67
1, 45865, Note_on_c, 0, 54, 41
1, 45873, Note_off_c, 0, 51, 65
1, 45894, Note_off_c, 0, 54, 57
1, 45922, Note_off_c, 0, 71, 55
1, 45999, Note_on_c, 0, 40, 70
1, 46006, Note_on_c, 0, 47, 76
1, 46024, Note_off_c, 0, 40, 64
1, 46033, Note_off_c, 0, 47, 68
1, 46041, Note_on_c, 0, 76, 96
1, 46049, Note_on_c, 0, 52, 84
1, 46052, Note_on_c, 0, 74, 76
1, 46088, Note_off_c, 0, 52, 65
1, 46106, Note_off_c, 0, 74, 55
1, 46160, Control_c, 0, 64, 86
1, 46167, Note_off_c, 0, 76, 64
1, 46175, Control_c, 0, 64, 71
1, 46204, Control_c, 0, 64, 101
1, 46214, Note_on_c, 0, 62, 83
1, 46219, Control_c, 0, 64, 127
1, 46220, Note_on_c, 0, 50, 84
1, 46231, Note_on_c, 0, 52, 71
1, 46234, Note_on_c, 0, 76, 94
1, 46234, Note_on_c, 0, 81, 98
1, 46240, Note_off_c, 0, 62, 69
1, 46247, Note_off_c, 0, 52, 68
1, 46258, Note_off_c, 0, 50, 66
1, 46282, Note_off_c, 0, 76, 62
1, 46394, Note_on_c, 0, 40, 69
1, 46400, Note_off_c, 0, 81, 61
1, 46406, Note_on_c, 0, 47, 60
1, 46420, Note_off_c, 0, 40, 63
1, 46425, Note_on_c, 0, 52, 72
1, 46431, Note_off_c, 0, 47, 58
1, 46432, Note_on_c, 0, 80, 94
1, 46443, Note_on_c, 0, 74, 72
1, 46461, Note_off_c, 0, 52, 65
1, 46467, Note_off_c, 0, 74, 69
1, 46526, Note_off_c, 0, 80, 61
1, 46527, Note_on_c, 0, 76, 91
1, 46528, Note_on_c, 0, 57, 59
1, 46532, Note_on_c, 0, 59, 61
1, 46559, Note_off_c, 0, 59, 67
1, 46559, Note_off_c, 0, 57, 64
1, 46574, Control_c, 0, 64, 93
1, 46580, Note_off_c, 0, 76, 63
1, 46589, Control_c, 0, 64, 67
1, 46604, Control_c, 0, 64, 65
1, 46606, Note_on_c, 0, 64, 73
1, 46610, Note_on_c, 0, 52, 87
1, 46619, Control_c, 0, 64, 78
1, 46627, Note_on_c, 0, 81, 90
1, 46630, Note_on_c, 0, 80, 83
1, 46630, Note_off_c, 0, 64, 66
1, 46631, Note_on_c, 0, 73, 94
1, 46634, Control_c, 0, 64, 127
1, 46637, Note_on_c, 0, 79, 82
1, 46651, Note_off_c, 0, 52, 64
1, 46653, Note_off_c, 0, 79, 67
1, 46673, Note_off_c, 0, 73, 60
1, 46675, Note_off_c, 0, 80, 60
1, 46684, Note_off_c, 0, 81, 63
1, 46789, Control_c, 0, 64, 98
1, 46804, Control_c, 0, 64, 56
1, 46816, Note_on_c, 0, 40, 70
1, 46819, Control_c, 0, 64, 0
1, 46834, Control_c, 0, 64, 16
1, 46836, Note_on_c, 0, 47, 74
1, 46843, Note_on_c, 0, 83, 97
1, 46848, Note_off_c, 0, 40, 66
1, 46849, Control_c, 0, 64, 59
1, 46854, Note_on_c, 0, 52, 86
1, 46854, Note_on_c, 0, 76, 87
1, 46857, Note_on_c, 0, 80, 82
1, 46860, Note_off_c, 0, 47, 69
1, 46863, Control_c, 0, 64, 86
1, 46878, Control_c, 0, 64, 127
1, 46881, Note_off_c, 0, 52, 67
1, 46962, Note_off_c, 0, 83, 66
1, 46995, Note_on_c, 0, 61, 59
1, 47012, Note_off_c, 0, 80, 61
1, 47050, Note_off_c, 0, 61, 61
1, 47061, Note_on_c, 0, 56, 71
1, 47061, Note_on_c, 0, 66, 84
1, 47073, Note_on_c, 0, 55, 79
1, 47075, Note_on_c, 0, 88, 105
1, 47077, Note_on_c, 0, 81, 83
1, 47084, Note_off_c, 0, 66, 68
1, 47095, Note_off_c, 0, 56, 63
1, 47096, Note_off_c, 0, 81, 71
1, 47097, Note_off_c, 0, 55, 66
1, 47114, Note_off_c, 0, 76, 64
1, 47167, Note_on_c, 0, 81, 10
1, 47168, Note_off_c, 0, 81, 127
1, 47196, Note_on_c, 0, 76, 16
1, 47197, Poly_aftertouch_c, 0, 66, 127
1, 47222, Note_off_c, 0, 88, 65
1, 47228, Poly_aftertouch_c, 0, 66, 0
1, 47236, Note_off_c, 0, 76, 42
1, 47278, Control_c, 0, 64, 77
1, 47293, Control_c, 0, 64, 36
1, 47304, Note_on_c, 0, 40, 70
1, 47307, Control_c, 0, 64, 0
1, 47314, Note_on_c, 0, 47, 73
1, 47321, Note_on_c, 0, 86, 96
1, 47336, Note_on_c, 0, 74, 71
1, 47337, Note_on_c, 0, 80, 72
1, 47337, Control_c, 0, 64, 36
1, 47340, Note_off_c, 0, 40, 67
1, 47343, Note_off_c, 0, 47, 67
1, 47352, Control_c, 0, 64, 59
1, 47356, Note_on_c, 0, 52, 66
1, 47365, Note_off_c, 0, 74, 64
1, 47367, Control_c, 0, 64, 69
1, 47378, Note_off_c, 0, 52, 62
1, 47382, Control_c, 0, 64, 77
1, 47393, Note_off_c, 0, 80, 43
1, 47397, Control_c, 0, 64, 101
1, 47419, Control_c, 0, 64, 127
1, 47461, Note_on_c, 0, 83, 92
1, 47483, Note_off_c, 0, 86, 65
1, 47528, Note_on_c, 0, 62, 23
1, 47541, Note_off_c, 0, 83, 65
1, 47567, Note_off_c, 0, 62, 54
1, 47567, Control_c, 0, 64, 115
1, 47582, Control_c, 0, 64, 67
1, 47598, Control_c, 0, 64, 56
1, 47612, Control_c, 0, 64, 67
1, 47617, Note_on_c, 0, 88, 89
1, 47623, Note_on_c, 0, 56, 75
1, 47627, Control_c, 0, 64, 96
1, 47632, Note_on_c, 0, 68, 75
1, 47632, Note_on_c, 0, 78, 73
1, 47642, Control_c, 0, 64, 127
1, 47645, Note_off_c, 0, 88, 67
1, 47647, Note_off_c, 0, 78, 68
1, 47656, Note_off_c, 0, 56, 65
1, 47657, Note_off_c, 0, 68, 68
1, 47909, Control_c, 0, 64, 88
1, 47924, Control_c, 0, 64, 64
1, 47938, Control_c, 0, 64, 36
1, 47953, Control_c, 0, 64, 0
1, 47998, Control_c, 0, 67, 10
1, 48012, Control_c, 0, 67, 17
1, 48027, Control_c, 0, 67, 29
1, 48028, Note_on_c, 0, 57, 44
1, 48042, Control_c, 0, 67, 43
1, 48047, Note_on_c, 0, 76, 61
1, 48056, Control_c, 0, 67, 61
1, 48071, Control_c, 0, 64, 37
1, 48071, Control_c, 0, 67, 82
1, 48086, Control_c, 0, 64, 53
1, 48086, Control_c, 0, 67, 99
1, 48101, Control_c, 0, 64, 62
1, 48101, Control_c, 0, 67, 103
1, 48116, Control_c, 0, 64, 67
1, 48116, Control_c, 0, 67, 105
1, 48130, Control_c, 0, 64, 72
1, 48130, Control_c, 0, 67, 109
1, 48145, Control_c, 0, 64, 81
1, 48145, Control_c, 0, 67, 114
1, 48168, Control_c, 0, 64, 90
1, 48168, Control_c, 0, 67, 115
1, 48183, Control_c, 0, 64, 102
1, 48198, Control_c, 0, 64, 127
1, 48207, Note_on_c, 0, 69, 51
1, 48207, Note_on_c, 0, 71, 53
1, 48212, Control_c, 0, 67, 114
1, 48229, Note_off_c, 0, 76, 58
1, 48246, Note_on_c, 0, 61, 33
1, 48257, Note_off_c, 0, 71, 63
1, 48261, Note_off_c, 0, 57, 37
1, 48271, Control_c, 0, 67, 114
1, 48286, Note_off_c, 0, 69, 62
1, 48301, Note_on_c, 0, 81, 81
1, 48301, Control_c, 0, 67, 113
1, 48313, Note_off_c, 0, 61, 39
1, 48316, Control_c, 0, 67, 113
1, 48363, Note_off_c, 0, 81, 55
1, 48376, Note_on_c, 0, 64, 35
1, 48421, Control_c, 0, 67, 112
1, 48430, Note_off_c, 0, 64, 44
1, 48435, Control_c, 0, 67, 112
1, 48450, Control_c, 0, 67, 111
1, 48480, Control_c, 0, 67, 111
1, 48494, Control_c, 0, 67, 110
1, 48509, Note_on_c, 0, 80, 73
1, 48539, Control_c, 0, 67, 110
1, 48554, Control_c, 0, 67, 109
1, 48568, Control_c, 0, 67, 108
1, 48595, Note_on_c, 0, 78, 79
1, 48598, Control_c, 0, 67, 107
1, 48601, Note_on_c, 0, 64, 40
1, 48613, Control_c, 0, 67, 106
1, 48616, Note_off_c, 0, 80, 59
1, 48628, Control_c, 0, 67, 103
1, 48643, Control_c, 0, 67, 101
1, 48658, Control_c, 0, 67, 100
1, 48658, Note_off_c, 0, 78, 63
1, 48673, Control_c, 0, 67, 99
1, 48687, Note_on_c, 0, 83, 91
1, 48687, Control_c, 0, 67, 98
1, 48702, Control_c, 0, 67, 95
1, 48717, Control_c, 0, 67, 94
1, 48732, Control_c, 0, 67, 93
1, 48742, Note_off_c, 0, 64, 57
1, 48745, Note_on_c, 0, 61, 50
1, 48747, Control_c, 0, 67, 90
1, 48761, Control_c, 0, 67, 85
1, 48776, Control_c, 0, 67, 81
1, 48786, Note_off_c, 0, 83, 64
1, 48791, Control_c, 0, 67, 78
1, 48806, Control_c, 0, 67, 76
1, 48807, Note_off_c, 0, 61, 46
1, 48821, Control_c, 0, 67, 75
1, 48865, Control_c, 0, 67, 75
1, 48879, Control_c, 0, 67, 74
1, 48881, Note_on_c, 0, 81, 78
1, 48894, Control_c, 0, 67, 73
1, 48912, Note_on_c, 0, 57, 53
1, 48917, Control_c, 0, 67, 72
1, 48932, Control_c, 0, 67, 71
1, 48942, Note_off_c, 0, 81, 62
1, 48947, Control_c, 0, 67, 68
1, 48961, Control_c, 0, 67, 64
1, 48968, Note_on_c, 0, 69, 68
1, 48971, Note_off_c, 0, 57, 55
1, 48976, Control_c, 0, 67, 60
1, 48983, Note_on_c, 0, 71, 63
1, 48991, Control_c, 0, 67, 58
1, 49006, Control_c, 0, 67, 56
1, 49012, Note_off_c, 0, 71, 66
1, 49020, Control_c, 0, 67, 53
1, 49035, Control_c, 0, 67, 46
1, 49050, Control_c, 0, 67, 39
1, 49062, Note_off_c, 0, 69, 32
1, 49065, Control_c, 0, 67, 35
1, 49080, Control_c, 0, 67, 33
1, 49081, Note_on_c, 0, 61, 51
1, 49087, Note_on_c, 0, 83, 75
1, 49094, Control_c, 0, 67, 32
1, 49100, Note_on_c, 0, 81, 68
1, 49109, Control_c, 0, 67, 30
1, 49124, Control_c, 0, 67, 27
1, 49128, Note_off_c, 0, 81, 50
1, 49130, Note_off_c, 0, 83, 66
1, 49139, Control_c, 0, 67, 23
1, 49154, Control_c, 0, 67, 17
1, 49168, Control_c, 0, 67, 12
1, 49175, Note_off_c, 0, 61, 45
1, 49184, Control_c, 0, 67, 8
1, 49199, Control_c, 0, 67, 0
1, 49226, Note_on_c, 0, 64, 9
1, 49240, Note_on_c, 0, 73, 47
1, 49263, Note_off_c, 0, 73, 58
1, 49275, Note_off_c, 0, 64, 54
1, 49290, Note_on_c, 0, 81, 78
1, 49323, Note_off_c, 0, 81, 62
1, 49348, Note_on_c, 0, 64, 43
1, 49485, Note_on_c, 0, 69, 52
1, 49486, Note_on_c, 0, 80, 71
1, 49508, Note_off_c, 0, 69, 60
1, 49522, Note_off_c, 0, 80, 61
1, 49529, Note_on_c, 0, 61, 49
1, 49538, Note_off_c, 0, 64, 44
1, 49579, Note_off_c, 0, 61, 53
1, 49695, Control_c, 0, 64, 96
1, 49709, Control_c, 0, 64, 69
1, 49719, Note_on_c, 0, 83, 72
1, 49724, Control_c, 0, 64, 49
1, 49725, Note_on_c, 0, 57, 53
1, 49739, Control_c, 0, 64, 43
1, 49754, Control_c, 0, 64, 50
1, 49755, Note_on_c, 0, 71, 45
1, 49767, Note_on_c, 0, 69, 54
1, 49769, Control_c, 0, 64, 61
1, 49783, Control_c, 0, 64, 71
1, 49796, Note_off_c, 0, 69, 51
1, 49798, Control_c, 0, 64, 85
1, 49811, Note_off_c, 0, 57, 61
1, 49813, Control_c, 0, 64, 127
1, 49827, Note_on_c, 0, 76, 59
1, 49827, Note_off_c, 0, 71, 38
1, 49856, Note_off_c, 0, 76, 64
1, 49892, Note_on_c, 0, 71, 57
1, 49895, Note_on_c, 0, 69, 46
1, 49896, Note_on_c, 0, 62, 36
1, 49922, Note_off_c, 0, 69, 53
1, 49925, Note_off_c, 0, 71, 51
1, 49942, Note_on_c, 0, 76, 58
1, 49944, Note_off_c, 0, 62, 49
1, 49971, Note_off_c, 0, 76, 66
1, 49984, Note_on_c, 0, 66, 62
1, 50014, Note_on_c, 0, 71, 37
1, 50025, Note_off_c, 0, 66, 62
1, 50026, Note_on_c, 0, 69, 32
1, 50046, Note_on_c, 0, 76, 74
1, 50047, Note_off_c, 0, 71, 51
1, 50061, Note_off_c, 0, 69, 54
1, 50083, Note_off_c, 0, 83, 55
1, 50107, Note_off_c, 0, 76, 62
1, 50114, Note_on_c, 0, 74, 43
1, 50122, Note_on_c, 0, 80, 85
1, 50140, Note_off_c, 0, 74, 57
1, 50178, Note_off_c, 0, 80, 62
1, 50240, Note_on_c, 0, 66, 61
1, 50321, Note_on_c, 0, 85, 86
1, 50339, Note_off_c, 0, 66, 62
1, 50385, Note_off_c, 0, 85, 62
1, 50390, Note_on_c, 0, 62, 41
1, 50463, Note_off_c, 0, 62, 41
1, 50523, Note_on_c, 0, 83, 80
1, 50534, Note_on_c, 0, 57, 63
1, 50557, Note_off_c, 0, 83, 65
1, 50588, Note_off_c, 0, 57, 61
1, 50607, Note_on_c, 0, 69, 74
1, 50691, Note_on_c, 0, 62, 41
1, 50709, Note_off_c, 0, 69, 34
1, 50729, Note_on_c, 0, 80, 76
1, 50737, Note_off_c, 0, 62, 52
1, 50774, Note_on_c, 0, 66, 58
1, 50813, Note_on_c, 0, 78, 73
1, 50814, Note_off_c, 0, 80, 61
1, 50828, Note_off_c, 0, 66, 57
1, 50869, Note_off_c, 0, 78, 66
1, 50920, Note_on_c, 0, 76, 75
1, 50943, Note_off_c, 0, 76, 68
1, 50971, Note_on_c, 0, 71, 8
1, 51017, Note_off_c, 0, 71, 34
1, 51037, Note_on_c, 0, 66, 60
1, 51113, Note_on_c, 0, 95, 88
1, 51123, Note_off_c, 0, 66, 61
1, 51135, Note_on_c, 0, 83, 53
1, 51158, Note_off_c, 0, 95, 66
1, 51162, Note_off_c, 0, 83, 62
1, 51162, Note_on_c, 0, 62, 58
1, 51263, Note_off_c, 0, 62, 63
1, 51316, Note_on_c, 0, 93, 92
1, 51322, Note_on_c, 0, 57, 52
1, 51341, Note_on_c, 0, 71, 27
1, 51350, Note_on_c, 0, 81, 51
1, 51373, Note_off_c, 0, 81, 57
1, 51375, Note_off_c, 0, 71, 53
1, 51388, Note_off_c, 0, 57, 48
1, 51390, Poly_aftertouch_c, 0, 69, 127
1, 51424, Poly_aftertouch_c, 0, 69, 0
1, 51489, Note_on_c, 0, 62, 45
1, 51499, Note_off_c, 0, 93, 63
1, 51514, Note_on_c, 0, 90, 61
1, 51521, Note_on_c, 0, 92, 76
1, 51534, Note_off_c, 0, 90, 67
1, 51542, Note_on_c, 0, 80, 22
1, 51542, Note_off_c, 0, 62, 65
1, 51562, Note_on_c, 0, 66, 46
1, 51582, Note_off_c, 0, 80, 46
1, 51591, Note_off_c, 0, 66, 55
1, 51645, Note_off_c, 0, 92, 54
1, 51727, Note_on_c, 0, 95, 78
1, 51736, Note_on_c, 0, 83, 61
1, 51737, Note_on_c, 0, 76, 20
1, 51740, Note_on_c, 0, 69, 48
1, 51757, Note_off_c, 0, 95, 67
1, 51764, Note_off_c, 0, 83, 68
1, 51779, Note_off_c, 0, 76, 41
1, 51782, Note_off_c, 0, 69, 65
1, 51877, Note_on_c, 0, 66, 55
1, 51899, Note_off_c, 0, 66, 64
1, 51940, Note_on_c, 0, 92, 70
1, 51999, Note_on_c, 0, 62, 54
1, 52016, Note_off_c, 0, 92, 64
1, 52021, Note_on_c, 0, 90, 79
1, 52030, Control_c, 0, 64, 66
1, 52045, Control_c, 0, 64, 31
1, 52060, Control_c, 0, 64, 0
1, 52062, Note_off_c, 0, 62, 60
1, 52075, Control_c, 0, 64, 34
1, 52075, Control_c, 0, 67, 9
1, 52090, Control_c, 0, 64, 51
1, 52091, Note_off_c, 0, 90, 65
1, 52104, Control_c, 0, 64, 61
1, 52119, Control_c, 0, 64, 67
1, 52119, Control_c, 0, 67, 10
1, 52122, Note_on_c, 0, 57, 63
1, 52123, Note_on_c, 0, 88, 74
1, 52134, Control_c, 0, 64, 78
1, 52134, Control_c, 0, 67, 11
1, 52145, Note_off_c, 0, 88, 70
1, 52149, Control_c, 0, 64, 101
1, 52149, Control_c, 0, 67, 13
1, 52164, Control_c, 0, 64, 127
1, 52178, Control_c, 0, 67, 12
1, 52193, Control_c, 0, 67, 11
1, 52207, Note_off_c, 0, 57, 56
1, 52238, Note_on_c, 0, 71, 68
1, 52265, Note_off_c, 0, 71, 65
1, 52277, Note_on_c, 0, 61, 47
1, 52293, Note_on_c, 0, 69, 60
1, 52312, Note_off_c, 0, 69, 66
1, 52342, Note_on_c, 0, 81, 79
1, 52357, Control_c, 0, 67, 12
1, 52363, Note_off_c, 0, 61, 62
1, 52400, Note_on_c, 0, 64, 57
1, 52402, Control_c, 0, 67, 12
1, 52446, Note_off_c, 0, 64, 57
1, 52496, Note_off_c, 0, 81, 56
1, 52527, Note_on_c, 0, 80, 69
1, 52546, Note_on_c, 0, 73, 21
1, 52565, Control_c, 0, 67, 12
1, 52586, Note_off_c, 0, 73, 43
1, 52609, Control_c, 0, 67, 11
1, 52625, Note_on_c, 0, 64, 55
1, 52625, Note_on_c, 0, 78, 67
1, 52639, Note_off_c, 0, 80, 51
1, 52661, Control_c, 0, 67, 11
1, 52691, Control_c, 0, 67, 11
1, 52706, Control_c, 0, 67, 13
1, 52721, Control_c, 0, 67, 15
1, 52730, Note_off_c, 0, 78, 62
1, 52734, Note_on_c, 0, 83, 78
1, 52735, Control_c, 0, 67, 15
1, 52750, Control_c, 0, 67, 17
1, 52759, Note_off_c, 0, 64, 57
1, 52765, Control_c, 0, 67, 21
1, 52780, Control_c, 0, 67, 27
1, 52780, Note_on_c, 0, 61, 61
1, 52795, Control_c, 0, 67, 32
1, 52809, Control_c, 0, 67, 37
1, 52812, Note_off_c, 0, 83, 64
1, 52824, Control_c, 0, 67, 40
1, 52839, Control_c, 0, 67, 41
1, 52853, Control_c, 0, 67, 43
1, 52868, Control_c, 0, 67, 44
1, 52883, Control_c, 0, 67, 45
1, 52898, Control_c, 0, 64, 82
1, 52898, Control_c, 0, 67, 44
1, 52912, Note_off_c, 0, 61, 33
1, 52913, Control_c, 0, 64, 63
1, 52913, Control_c, 0, 67, 42
1, 52927, Control_c, 0, 64, 46
1, 52927, Control_c, 0, 67, 41
1, 52931, Note_on_c, 0, 81, 76
1, 52942, Control_c, 0, 64, 44
1, 52942, Control_c, 0, 67, 40
1, 52944, Note_on_c, 0, 57, 49
1, 52957, Control_c, 0, 64, 54
1, 52957, Control_c, 0, 67, 39
1, 52962, Note_on_c, 0, 71, 44
1, 52967, Note_on_c, 0, 69, 38
1, 52972, Control_c, 0, 64, 65
1, 52972, Control_c, 0, 67, 38
1, 52986, Control_c, 0, 64, 78
1, 52986, Control_c, 0, 67, 36
1, 53001, Control_c, 0, 64, 99
1, 53001, Control_c, 0, 67, 34
1, 53016, Control_c, 0, 64, 127
1, 53016, Control_c, 0, 67, 32
1, 53031, Control_c, 0, 67, 30
1, 53037, Note_off_c, 0, 71, 33
1, 53046, Control_c, 0, 67, 28
1, 53061, Control_c, 0, 67, 20
1, 53066, Note_off_c, 0, 69, 33
1, 53072, Note_off_c, 0, 57, 60
1, 53075, Control_c, 0, 67, 0
1, 53102, Note_on_c, 0, 61, 58
1, 53137, Note_on_c, 0, 86, 85
1, 53207, Note_off_c, 0, 61, 62
1, 53282, Note_off_c, 0, 81, 39
1, 53350, Note_on_c, 0, 85, 89
1, 53372, Note_off_c, 0, 86, 62
1, 53379, Note_on_c, 0, 81, 53
1, 53407, Note_off_c, 0, 81, 61
1, 53419, Note_on_c, 0, 69, 48
1, 53455, Note_off_c, 0, 69, 61
1, 53458, Note_on_c, 0, 83, 83
1, 53481, Note_off_c, 0, 85, 64
1, 53545, Note_off_c, 0, 83, 66
1, 53554, Note_on_c, 0, 88, 88
1, 53555, Note_on_c, 0, 64, 50
1, 53558, Note_on_c, 0, 65, 33
1, 53586, Note_off_c, 0, 64, 66
1, 53592, Note_off_c, 0, 65, 47
1, 53619, Note_on_c, 0, 80, 34
1, 53647, Note_on_c, 0, 61, 61
1, 53652, Note_off_c, 0, 80, 47
1, 53717, Note_off_c, 0, 61, 61
1, 53736, Control_c, 0, 64, 106
1, 53750, Control_c, 0, 64, 67
1, 53759, Note_on_c, 0, 86, 90
1, 53765, Control_c, 0, 64, 45
1, 53775, Note_on_c, 0, 83, 64
1, 53776, Note_on_c, 0, 57, 57
1, 53780, Control_c, 0, 64, 0
1, 53797, Note_off_c, 0, 88, 61
1, 53809, Control_c, 0, 64, 34
1, 53824, Control_c, 0, 64, 57
1, 53839, Control_c, 0, 64, 72
1, 53839, Control_c, 0, 67, 8
1, 53854, Control_c, 0, 64, 83
1, 53869, Control_c, 0, 64, 96
1, 53883, Control_c, 0, 64, 104
1, 53890, Poly_aftertouch_c, 0, 69, 0
1, 53896, Note_off_c, 0, 57, 63
1, 53898, Control_c, 0, 64, 109
1, 53898, Control_c, 0, 67, 0
1, 53908, Note_on_c, 0, 62, 58
1, 53913, Control_c, 0, 64, 127
1, 53964, Note_on_c, 0, 88, 86
1, 53969, Note_off_c, 0, 86, 63
1, 54005, Note_off_c, 0, 83, 58
1, 54020, Note_off_c, 0, 62, 64
1, 54036, Note_on_c, 0, 66, 66
1, 54065, Note_off_c, 0, 66, 67
1, 54118, Note_off_c, 0, 88, 63
1, 54163, Note_on_c, 0, 86, 91
1, 54178, Note_on_c, 0, 71, 51
1, 54190, Note_on_c, 0, 80, 49
1, 54205, Note_off_c, 0, 71, 57
1, 54216, Note_on_c, 0, 69, 42
1, 54218, Note_off_c, 0, 80, 55
1, 54242, Note_off_c, 0, 69, 59
1, 54259, Poly_aftertouch_c, 0, 74, 0
1, 54333, Note_on_c, 0, 66, 61
1, 54369, Note_off_c, 0, 66, 64
1, 54374, Note_on_c, 0, 85, 82
1, 54430, Note_off_c, 0, 86, 63
1, 54446, Note_on_c, 0, 62, 49
1, 54516, Note_off_c, 0, 62, 64
1, 54566, Note_off_c, 0, 85, 66
1, 54571, Note_on_c, 0, 88, 84
1, 54574, Control_c, 0, 67, 8
1, 54581, Note_on_c, 0, 57, 58
1, 54587, Note_on_c, 0, 83, 66
1, 54588, Control_c, 0, 67, 9
1, 54603, Control_c, 0, 67, 9
1, 54640, Note_off_c, 0, 57, 57
1, 54652, Note_off_c, 0, 83, 41
1, 54726, Note_on_c, 0, 62, 50
1, 54780, Note_on_c, 0, 80, 67
1, 54814, Note_off_c, 0, 62, 64
1, 54826, Control_c, 0, 67, 9
1, 54834, Note_on_c, 0, 66, 60
1, 54841, Control_c, 0, 67, 0
1, 54860, Note_off_c, 0, 80, 62
1, 54862, Note_off_c, 0, 66, 65
1, 54888, Note_on_c, 0, 78, 58
1, 54951, Note_off_c, 0, 78, 59
1, 54988, Note_on_c, 0, 85, 78
1, 54998, Note_on_c, 0, 76, 46
1, 55006, Note_off_c, 0, 88, 64
1, 55012, Note_on_c, 0, 69, 57
1, 55024, Note_off_c, 0, 76, 55
1, 55041, Note_off_c, 0, 85, 64
1, 55046, Note_off_c, 0, 69, 66
1, 55135, Note_on_c, 0, 66, 62
1, 55165, Note_off_c, 0, 66, 66
1, 55186, Note_on_c, 0, 90, 79
1, 55202, Note_on_c, 0, 80, 60
1, 55234, Note_off_c, 0, 80, 63
1, 55244, Note_off_c, 0, 90, 65
1, 55246, Note_on_c, 0, 62, 49
1, 55312, Note_off_c, 0, 62, 64
1, 55352, Control_c, 0, 64, 102
1, 55367, Control_c, 0, 64, 70
1, 55382, Control_c, 0, 64, 53
1, 55395, Note_on_c, 0, 88, 87
1, 55397, Control_c, 0, 64, 32
1, 55397, Control_c, 0, 67, 8
1, 55404, Note_on_c, 0, 57, 58
1, 55411, Control_c, 0, 64, 33
1, 55411, Control_c, 0, 67, 9
1, 55414, Note_on_c, 0, 76, 56
1, 55426, Control_c, 0, 64, 46
1, 55426, Control_c, 0, 67, 9
1, 55441, Control_c, 0, 64, 62
1, 55444, Note_off_c, 0, 76, 65
1, 55455, Control_c, 0, 64, 76
1, 55457, Poly_aftertouch_c, 0, 69, 127
1, 55470, Control_c, 0, 64, 97
1, 55470, Control_c, 0, 67, 10
1, 55475, Note_off_c, 0, 57, 54
1, 55485, Control_c, 0, 64, 127
1, 55496, Poly_aftertouch_c, 0, 69, 0
1, 55529, Control_c, 0, 67, 9
1, 55538, Note_on_c, 0, 61, 60
1, 55559, Control_c, 0, 67, 9
1, 55618, Note_on_c, 0, 85, 71
1, 55654, Note_off_c, 0, 61, 61
1, 55674, Note_on_c, 0, 64, 50
1, 55681, Note_off_c, 0, 88, 56
1, 55699, Note_off_c, 0, 64, 59
1, 55717, Note_on_c, 0, 83, 79
1, 55725, Note_off_c, 0, 85, 62
1, 55746, Note_off_c, 0, 83, 66
1, 55819, Note_on_c, 0, 73, 51
1, 55821, Note_on_c, 0, 69, 55
1, 55832, Note_on_c, 0, 81, 64
1, 55840, Note_on_c, 0, 80, 80
1, 55841, Note_off_c, 0, 73, 63
1, 55848, Note_off_c, 0, 81, 66
1, 55853, Note_off_c, 0, 69, 58
1, 55857, Note_on_c, 0, 82, 47
1, 55864, Control_c, 0, 67, 9
1, 55880, Note_off_c, 0, 80, 61
1, 55881, Note_off_c, 0, 82, 59
1, 55944, Note_on_c, 0, 78, 75
1, 55967, Control_c, 0, 67, 10
1, 55976, Note_on_c, 0, 64, 53
1, 55982, Control_c, 0, 67, 10
1, 55995, Note_off_c, 0, 78, 62
1, 55997, Control_c, 0, 67, 11
1, 56012, Note_off_c, 0, 64, 63
1, 56012, Control_c, 0, 67, 11
1, 56027, Control_c, 0, 67, 12
1, 56038, Note_on_c, 0, 85, 78
1, 56041, Control_c, 0, 67, 13
1, 56056, Control_c, 0, 67, 14
1, 56088, Note_on_c, 0, 61, 64
1, 56101, Control_c, 0, 67, 14
1, 56125, Note_off_c, 0, 85, 57
1, 56131, Control_c, 0, 67, 15
1, 56145, Poly_aftertouch_c, 0, 76, 0
1, 56145, Control_c, 0, 67, 16
1, 56160, Control_c, 0, 67, 17
1, 56165, Note_off_c, 0, 61, 58
1, 56175, Control_c, 0, 67, 18
1, 56204, Control_c, 0, 64, 81
1, 56219, Control_c, 0, 64, 62
1, 56230, Note_on_c, 0, 57, 57
1, 56234, Control_c, 0, 64, 48
1, 56238, Note_on_c, 0, 81, 77
1, 56264, Control_c, 0, 64, 58
1, 56277, Note_on_c, 0, 71, 34
1, 56278, Control_c, 0, 64, 69
1, 56278, Control_c, 0, 67, 17
1, 56283, Note_on_c, 0, 69, 22
1, 56293, Control_c, 0, 64, 86
1, 56293, Control_c, 0, 67, 16
1, 56306, Note_off_c, 0, 57, 59
1, 56308, Note_off_c, 0, 71, 54
1, 56308, Control_c, 0, 64, 127
1, 56308, Control_c, 0, 67, 15
1, 56323, Control_c, 0, 67, 13
1, 56325, Note_off_c, 0, 69, 54
1, 56338, Control_c, 0, 67, 10
1, 56352, Control_c, 0, 67, 0
1, 56400, Note_off_c, 0, 81, 61
1, 56402, Note_on_c, 0, 62, 60
1, 56454, Note_on_c, 0, 83, 70
1, 56462, Note_on_c, 0, 86, 66
1, 56486, Note_off_c, 0, 83, 66
1, 56489, Note_off_c, 0, 62, 64
1, 56495, Note_off_c, 0, 86, 66
1, 56523, Note_on_c, 0, 66, 39
1, 56551, Note_on_c, 0, 81, 56
1, 56554, Note_off_c, 0, 66, 54
1, 56612, Note_off_c, 0, 81, 58
1, 56657, Note_on_c, 0, 71, 37
1, 56660, Note_on_c, 0, 85, 69
1, 56675, Note_on_c, 0, 80, 49
1, 56685, Note_off_c, 0, 71, 47
1, 56693, Note_on_c, 0, 69, 16
1, 56736, Note_off_c, 0, 69, 55
1, 56748, Note_on_c, 0, 83, 74
1, 56761, Note_off_c, 0, 85, 59
1, 56776, Note_off_c, 0, 80, 59
1, 56814, Note_on_c, 0, 66, 49
1, 56846, Note_on_c, 0, 81, 72
1, 56857, Note_off_c, 0, 66, 62
1, 56888, Note_on_c, 0, 78, 54
1, 56909, Note_off_c, 0, 81, 64
1, 56912, Note_on_c, 0, 62, 58
1, 56922, Note_off_c, 0, 78, 65
1, 56928, Note_off_c, 0, 83, 35
1, 56957, Note_off_c, 0, 62, 61
1, 57013, Control_c, 0, 64, 106
1, 57027, Control_c, 0, 64, 73
1, 57027, Control_c, 0, 67, 8
1, 57042, Control_c, 0, 64, 60
1, 57042, Control_c, 0, 67, 11
1, 57056, Note_on_c, 0, 86, 75
1, 57057, Control_c, 0, 64, 58
1, 57057, Control_c, 0, 67, 14
1, 57067, Note_on_c, 0, 57, 50
1, 57072, Note_on_c, 0, 76, 48
1, 57072, Control_c, 0, 64, 63
1, 57072, Control_c, 0, 67, 18
1, 57087, Control_c, 0, 64, 73
1, 57087, Control_c, 0, 67, 23
1, 57101, Control_c, 0, 64, 93
1, 57101, Control_c, 0, 67, 28
1, 57104, Note_off_c, 0, 76, 52
1, 57116, Control_c, 0, 64, 127
1, 57116, Control_c, 0, 67, 33
1, 57118, Note_off_c, 0, 57, 56
1, 57132, Control_c, 0, 67, 39
1, 57154, Control_c, 0, 67, 41
1, 57169, Control_c, 0, 67, 41
1, 57190, Note_off_c, 0, 86, 61
1, 57199, Control_c, 0, 67, 42
1, 57214, Control_c, 0, 67, 42
1, 57217, Note_on_c, 0, 62, 43
1, 57244, Control_c, 0, 67, 43
1, 57258, Control_c, 0, 67, 45
1, 57273, Control_c, 0, 67, 47
1, 57279, Note_on_c, 0, 88, 66
1, 57288, Control_c, 0, 67, 48
1, 57294, Note_on_c, 0, 83, 52
1, 57294, Note_off_c, 0, 62, 64
1, 57315, Note_on_c, 0, 66, 41
1, 57323, Note_off_c, 0, 83, 52
1, 57344, Note_off_c, 0, 66, 54
1, 57384, Note_on_c, 0, 86, 68
1, 57386, Note_off_c, 0, 88, 62
1, 57392, Control_c, 0, 67, 48
1, 57451, Control_c, 0, 67, 49
1, 57466, Control_c, 0, 67, 49
1, 57466, Note_on_c, 0, 85, 65
1, 57470, Note_on_c, 0, 71, 32
1, 57478, Note_off_c, 0, 86, 59
1, 57481, Control_c, 0, 67, 51
1, 57487, Note_on_c, 0, 69, 55
1, 57496, Note_on_c, 0, 81, 60
1, 57496, Control_c, 0, 67, 55
1, 57504, Note_off_c, 0, 71, 56
1, 57511, Note_off_c, 0, 85, 61
1, 57511, Control_c, 0, 67, 61
1, 57521, Note_off_c, 0, 69, 66
1, 57525, Control_c, 0, 67, 67
1, 57540, Control_c, 0, 67, 70
1, 57549, Note_off_c, 0, 81, 54
1, 57555, Control_c, 0, 67, 72
1, 57570, Control_c, 0, 67, 74
1, 57585, Control_c, 0, 67, 75
1, 57643, Control_c, 0, 67, 75
1, 57654, Note_on_c, 0, 66, 40
1, 57683, Note_off_c, 0, 66, 53
1, 57687, Note_on_c, 0, 83, 63
1, 57703, Control_c, 0, 67, 76
1, 57705, Note_on_c, 0, 80, 52
1, 57732, Control_c, 0, 67, 76
1, 57738, Note_off_c, 0, 80, 63
1, 57743, Note_on_c, 0, 62, 56
1, 57747, Control_c, 0, 67, 77
1, 57759, Note_off_c, 0, 83, 64
1, 57760, Note_on_c, 0, 78, 36
1, 57762, Control_c, 0, 67, 79
1, 57766, Note_off_c, 0, 62, 60
1, 57777, Control_c, 0, 67, 81
1, 57791, Note_off_c, 0, 78, 46
1, 57791, Control_c, 0, 67, 83
1, 57806, Control_c, 0, 67, 84
1, 57836, Control_c, 0, 67, 83
1, 57851, Control_c, 0, 67, 84
1, 57866, Control_c, 0, 67, 85
1, 57880, Control_c, 0, 67, 89
1, 57902, Control_c, 0, 64, 111
1, 57902, Control_c, 0, 67, 101
1, 57917, Control_c, 0, 64, 72
1, 57917, Control_c, 0, 67, 112
1, 57931, Control_c, 0, 64, 53
1, 57931, Control_c, 0, 67, 119
1, 57946, Control_c, 0, 64, 27
1, 57946, Control_c, 0, 67, 122
1, 57949, Note_on_c, 0, 81, 74
1, 57959, Note_on_c, 0, 74, 62
1, 57961, Control_c, 0, 64, 22
1, 57961, Control_c, 0, 67, 126
1, 57963, Note_on_c, 0, 45, 57
1, 57965, Note_on_c, 0, 69, 53
1, 57970, Note_on_c, 0, 77, 50
1, 57977, Control_c, 0, 64, 23
1, 57977, Control_c, 0, 67, 127
1, 57982, Note_off_c, 0, 74, 67
1, 57990, Note_off_c, 0, 69, 61
1, 57992, Control_c, 0, 64, 34
1, 57994, Note_off_c, 0, 77, 59
1, 58007, Note_off_c, 0, 81, 64
1, 58007, Control_c, 0, 64, 52
1, 58021, Control_c, 0, 64, 65
1, 58033, Note_off_c, 0, 45, 64
1, 58036, Control_c, 0, 64, 74
1, 58051, Control_c, 0, 64, 82
1, 58065, Control_c, 0, 64, 87
1, 58080, Control_c, 0, 64, 91
1, 58085, Note_on_c, 0, 47, 10
1, 58095, Control_c, 0, 64, 98
1, 58110, Control_c, 0, 64, 99
1, 58125, Control_c, 0, 64, 90
1, 58131, Note_on_c, 0, 48, 21
1, 58132, Note_off_c, 0, 47, 43
1, 58140, Control_c, 0, 64, 70
1, 58155, Control_c, 0, 64, 50
1, 58160, Note_on_c, 0, 50, 48
1, 58170, Control_c, 0, 64, 0
1, 58172, Note_off_c, 0, 48, 38
1, 58182, Note_on_c, 0, 86, 82
1, 58185, Note_on_c, 0, 77, 28
1, 58189, Note_off_c, 0, 50, 35
1, 58201, Note_on_c, 0, 74, 55
1, 58203, Note_on_c, 0, 81, 51
1, 58265, Note_on_c, 0, 57, 54
1, 58291, Note_off_c, 0, 86, 59
1, 58296, Note_off_c, 0, 57, 59
1, 58392, Control_c, 0, 64, 45
1, 58403, Note_on_c, 0, 65, 73
1, 58403, Note_on_c, 0, 84, 75
1, 58407, Control_c, 0, 64, 60
1, 58421, Control_c, 0, 64, 63
1, 58441, Note_on_c, 0, 64, 23
1, 58445, Note_off_c, 0, 65, 57
1, 58451, Control_c, 0, 64, 64
1, 58465, Control_c, 0, 64, 70
1, 58479, Note_off_c, 0, 84, 64
1, 58480, Control_c, 0, 64, 78
1, 58483, Note_off_c, 0, 64, 60
1, 58495, Control_c, 0, 64, 90
1, 58497, Note_off_c, 0, 74, 34
1, 58502, Note_on_c, 0, 83, 73
1, 58507, Note_on_c, 0, 62, 47
1, 58510, Control_c, 0, 64, 99
1, 58525, Control_c, 0, 64, 100
1, 58533, Note_off_c, 0, 62, 62
1, 58539, Control_c, 0, 64, 100
1, 58546, Note_on_c, 0, 60, 21
1, 58551, Note_on_c, 0, 59, 54
1, 58554, Note_off_c, 0, 77, 0
1, 58554, Control_c, 0, 64, 90
1, 58560, Note_off_c, 0, 81, 38
1, 58569, Control_c, 0, 64, 74
1, 58575, Note_off_c, 0, 59, 58
1, 58577, Note_on_c, 0, 77, 27
1, 58584, Control_c, 0, 64, 60
1, 58587, Note_off_c, 0, 60, 40
1, 58589, Note_on_c, 0, 86, 76
1, 58593, Note_off_c, 0, 83, 64
1, 58596, Note_on_c, 0, 74, 62
1, 58599, Control_c, 0, 64, 39
1, 58614, Control_c, 0, 64, 12
1, 58628, Control_c, 0, 64, 0
1, 58632, Note_on_c, 0, 53, 54
1, 58654, Note_off_c, 0, 86, 62
1, 58665, Note_off_c, 0, 53, 57
1, 58679, Note_off_c, 0, 74, 0
1, 58679, Note_on_c, 0, 74, 9
1, 58693, Note_on_c, 0, 50, 54
1, 58733, Note_off_c, 0, 50, 63
1, 58751, Note_on_c, 0, 47, 47
1, 58784, Control_c, 0, 64, 39
1, 58799, Control_c, 0, 64, 57
1, 58800, Note_on_c, 0, 45, 62
1, 58814, Note_on_c, 0, 81, 71
1, 58814, Control_c, 0, 64, 65
1, 58829, Control_c, 0, 64, 68
1, 58844, Control_c, 0, 64, 72
1, 58858, Control_c, 0, 64, 77
1, 58873, Control_c, 0, 64, 85
1, 58874, Note_on_c, 0, 48, 61
1, 58876, Note_off_c, 0, 77, 55
1, 58880, Note_off_c, 0, 47, 52
1, 58888, Control_c, 0, 64, 92
1, 58903, Control_c, 0, 64, 100
1, 58915, Note_off_c, 0, 48, 65
1, 58917, Note_off_c, 0, 45, 60
1, 58918, Control_c, 0, 64, 106
1, 58933, Control_c, 0, 64, 110
1, 58938, Note_off_c, 0, 74, 46
1, 58946, Note_on_c, 0, 50, 27
1, 58948, Control_c, 0, 64, 110
1, 58984, Note_on_c, 0, 52, 43
1, 58986, Note_off_c, 0, 50, 43
1, 59009, Note_on_c, 0, 77, 29
1, 59015, Note_on_c, 0, 86, 81
1, 59016, Note_off_c, 0, 52, 50
1, 59022, Control_c, 0, 64, 110
1, 59025, Note_on_c, 0, 74, 54
1, 59036, Control_c, 0, 64, 108
1, 59046, Note_on_c, 0, 57, 50
1, 59051, Control_c, 0, 64, 96
1, 59066, Control_c, 0, 64, 78
1, 59072, Note_off_c, 0, 57, 57
1, 59081, Control_c, 0, 64, 64
1, 59095, Control_c, 0, 64, 49
1, 59103, Note_on_c, 0, 60, 19
1, 59110, Control_c, 0, 64, 28
1, 59115, Note_on_c, 0, 64, 65
1, 59125, Control_c, 0, 64, 12
1, 59136, Note_off_c, 0, 86, 64
1, 59140, Control_c, 0, 64, 10
1, 59145, Note_off_c, 0, 60, 28
1, 59154, Note_off_c, 0, 64, 62
1, 59155, Control_c, 0, 64, 24
1, 59169, Control_c, 0, 64, 49
1, 59183, Note_on_c, 0, 65, 62
1, 59184, Control_c, 0, 64, 64
1, 59199, Control_c, 0, 64, 75
1, 59206, Note_on_c, 0, 84, 83
1, 59210, Note_off_c, 0, 81, 64
1, 59213, Control_c, 0, 64, 87
1, 59216, Note_off_c, 0, 65, 62
1, 59224, Note_off_c, 0, 77, 59
1, 59228, Control_c, 0, 64, 99
1, 59232, Note_on_c, 0, 64, 55
1, 59243, Control_c, 0, 64, 109
1, 59246, Note_off_c, 0, 74, 57
1, 59250, Note_off_c, 0, 84, 66
1, 59258, Control_c, 0, 64, 127
1, 59261, Note_off_c, 0, 64, 65
1, 59268, Note_on_c, 0, 62, 60
1, 59291, Note_on_c, 0, 60, 47
1, 59310, Note_off_c, 0, 62, 65
1, 59318, Note_on_c, 0, 59, 64
1, 59332, Note_off_c, 0, 60, 62
1, 59344, Note_off_c, 0, 59, 67
1, 59347, Control_c, 0, 67, 127
1, 59362, Control_c, 0, 67, 126
1, 59398, Note_on_c, 0, 74, 43
1, 59420, Note_on_c, 0, 83, 76
1, 59425, Note_on_c, 0, 53, 46
1, 59427, Note_on_c, 0, 69, 56
1, 59430, Note_on_c, 0, 77, 61
1, 59443, Control_c, 0, 67, 127
1, 59453, Note_off_c, 0, 53, 60
1, 59458, Control_c, 0, 67, 127
1, 59464, Note_on_c, 0, 50, 64
1, 59498, Note_off_c, 0, 83, 63
1, 59516, Note_off_c, 0, 50, 63
1, 59530, Note_on_c, 0, 47, 55
1, 59532, Control_c, 0, 64, 97
1, 59547, Control_c, 0, 64, 73
1, 59562, Control_c, 0, 64, 57
1, 59568, Note_off_c, 0, 47, 65
1, 59578, Control_c, 0, 64, 28
1, 59592, Note_on_c, 0, 45, 62
1, 59592, Control_c, 0, 64, 20
1, 59607, Control_c, 0, 64, 32
1, 59622, Control_c, 0, 64, 52
1, 59625, Note_on_c, 0, 81, 82
1, 59626, Note_off_c, 0, 69, 57
1, 59631, Note_off_c, 0, 77, 65
1, 59634, Note_off_c, 0, 74, 65
1, 59637, Control_c, 0, 64, 66
1, 59651, Control_c, 0, 64, 76
1, 59659, Note_off_c, 0, 45, 63
1, 59662, Note_on_c, 0, 47, 53
1, 59666, Control_c, 0, 64, 90
1, 59673, Note_off_c, 0, 81, 64
1, 59681, Control_c, 0, 64, 107
1, 59690, Note_off_c, 0, 47, 64
1, 59696, Control_c, 0, 64, 111
1, 59701, Note_on_c, 0, 48, 55
1, 59711, Control_c, 0, 64, 119
1, 59726, Control_c, 0, 64, 127
1, 59726, Control_c, 0, 67, 126
1, 59729, Note_off_c, 0, 48, 64
1, 59732, Note_on_c, 0, 50, 64
1, 59741, Control_c, 0, 67, 126
1, 59756, Control_c, 0, 67, 125
1, 59757, Note_off_c, 0, 50, 70
1, 59771, Control_c, 0, 67, 124
1, 59779, Note_on_c, 0, 52, 57
1, 59785, Control_c, 0, 67, 124
1, 59800, Control_c, 0, 67, 123
1, 59804, Note_off_c, 0, 52, 64
1, 59806, Note_on_c, 0, 77, 12
1, 59828, Note_on_c, 0, 86, 84
1, 59834, Note_on_c, 0, 81, 61
1, 59844, Control_c, 0, 67, 124
1, 59848, Note_on_c, 0, 74, 62
1, 59859, Control_c, 0, 67, 124
1, 59865, Note_on_c, 0, 59, 54
1, 59874, Control_c, 0, 67, 125
1, 59887, Note_off_c, 0, 59, 64
1, 59889, Control_c, 0, 67, 126
1, 59904, Control_c, 0, 67, 126
1, 59918, Control_c, 0, 67, 127
1, 59929, Note_on_c, 0, 62, 11
1, 59932, Note_on_c, 0, 64, 70
1, 59948, Control_c, 0, 67, 127
1, 59958, Note_off_c, 0, 64, 67
1, 59963, Control_c, 0, 64, 101
1, 59964, Note_off_c, 0, 86, 63
1, 59978, Note_off_c, 0, 62, 54
1, 59978, Control_c, 0, 64, 70
1, 59992, Control_c, 0, 64, 60
1, 59996, Note_on_c, 0, 65, 70
1, 60007, Control_c, 0, 64, 59
1, 60022, Control_c, 0, 64, 67
1, 60022, Control_c, 0, 67, 127
1, 60033, Note_on_c, 0, 64, 60
1, 60033, Note_on_c, 0, 84, 85
1, 60037, Control_c, 0, 64, 83
1, 60041, Note_off_c, 0, 81, 65
1, 60048, Note_off_c, 0, 65, 58
1, 60051, Note_off_c, 0, 77, 59
1, 60051, Control_c, 0, 64, 127
1, 60071, Note_off_c, 0, 74, 58
1, 60074, Note_off_c, 0, 84, 66
1, 60081, Control_c, 0, 67, 126
1, 60095, Note_on_c, 0, 62, 60
1, 60102, Note_off_c, 0, 64, 59
1, 60110, Control_c, 0, 67, 126
1, 60122, Note_on_c, 0, 60, 52
1, 60125, Control_c, 0, 67, 125
1, 60147, Control_c, 0, 67, 125
1, 60153, Note_off_c, 0, 62, 62
1, 60162, Control_c, 0, 67, 124
1, 60166, Note_on_c, 0, 59, 63
1, 60177, Note_off_c, 0, 60, 62
1, 60177, Control_c, 0, 67, 122
1, 60191, Note_off_c, 0, 59, 68
1, 60192, Control_c, 0, 67, 121
1, 60206, Control_c, 0, 67, 121
1, 60221, Control_c, 0, 67, 122
1, 60224, Note_on_c, 0, 74, 37
1, 60237, Note_on_c, 0, 83, 89
1, 60252, Note_on_c, 0, 53, 64
1, 60253, Note_on_c, 0, 77, 65
1, 60255, Note_on_c, 0, 69, 45
1, 60265, Control_c, 0, 67, 122
1, 60280, Control_c, 0, 67, 123
1, 60286, Note_off_c, 0, 53, 64
1, 60295, Control_c, 0, 67, 124
1, 60298, Note_off_c, 0, 69, 0
1, 60298, Note_on_c, 0, 69, 36
1, 60303, Note_on_c, 0, 50, 67
1, 60325, Control_c, 0, 67, 124
1, 60340, Note_off_c, 0, 83, 64
1, 60340, Control_c, 0, 64, 87
1, 60340, Control_c, 0, 67, 124
1, 60353, Note_off_c, 0, 50, 64
1, 60355, Control_c, 0, 64, 64
1, 60363, Note_on_c, 0, 47, 54
1, 60370, Control_c, 0, 64, 62
1, 60385, Control_c, 0, 64, 28
1, 60399, Note_off_c, 0, 47, 64
1, 60400, Control_c, 0, 64, 35
1, 60400, Control_c, 0, 67, 123
1, 60414, Control_c, 0, 64, 51
1, 60414, Control_c, 0, 67, 123
1, 60422, Note_on_c, 0, 45, 51
1, 60429, Control_c, 0, 64, 64
1, 60429, Control_c, 0, 67, 122
1, 60437, Note_on_c, 0, 81, 87
1, 60437, Note_off_c, 0, 69, 36
1, 60441, Note_off_c, 0, 74, 64
1, 60442, Note_off_c, 0, 77, 65
1, 60444, Control_c, 0, 64, 70
1, 60446, Note_on_c, 0, 47, 48
1, 60459, Control_c, 0, 64, 77
1, 60459, Control_c, 0, 67, 122
1, 60474, Control_c, 0, 64, 83
1, 60489, Control_c, 0, 64, 85
1, 60489, Control_c, 0, 67, 121
1, 60493, Note_off_c, 0, 81, 62
1, 60504, Control_c, 0, 67, 121
1, 60513, Note_on_c, 0, 48, 58
1, 60519, Control_c, 0, 64, 85
1, 60519, Control_c, 0, 67, 120
1, 60526, Note_off_c, 0, 45, 32
1, 60534, Control_c, 0, 64, 86
1, 60534, Control_c, 0, 67, 119
1, 60538, Note_off_c, 0, 47, 38
1, 60543, Note_off_c, 0, 48, 66
1, 60548, Control_c, 0, 64, 87
1, 60552, Note_on_c, 0, 50, 61
1, 60563, Control_c, 0, 64, 90
1, 60563, Control_c, 0, 67, 120
1, 60577, Note_off_c, 0, 50, 62
1, 60578, Control_c, 0, 64, 94
1, 60578, Control_c, 0, 67, 120
1, 60593, Control_c, 0, 64, 96
1, 60602, Note_on_c, 0, 52, 60
1, 60608, Control_c, 0, 64, 99
1, 60608, Control_c, 0, 67, 121
1, 60622, Control_c, 0, 64, 105
1, 60622, Control_c, 0, 67, 121
1, 60623, Poly_aftertouch_c, 0, 77, 127
1, 60623, Note_off_c, 0, 52, 61
1, 60637, Control_c, 0, 64, 115
1, 60637, Control_c, 0, 67, 122
1, 60639, Note_on_c, 0, 81, 65
1, 60641, Note_on_c, 0, 86, 92
1, 60652, Control_c, 0, 64, 127
1, 60656, Note_on_c, 0, 77, 4
1, 60659, Note_on_c, 0, 74, 61
1, 60666, Control_c, 0, 67, 122
1, 60681, Control_c, 0, 67, 123
1, 60696, Control_c, 0, 67, 123
1, 60711, Control_c, 0, 67, 124
1, 60724, Poly_aftertouch_c, 0, 57, 0
1, 60726, Control_c, 0, 67, 124
1, 60736, Note_on_c, 0, 64, 75
1, 60754, Poly_aftertouch_c, 0, 59, 127
1, 60755, Poly_aftertouch_c, 0, 57, 0
1, 60761, Note_off_c, 0, 86, 63
1, 60767, Note_off_c, 0, 64, 66
1, 60800, Control_c, 0, 64, 91
1, 60802, Note_on_c, 0, 65, 75
1, 60807, Poly_aftertouch_c, 0, 62, 0
1, 60810, Poly_aftertouch_c, 0, 59, 0
1, 60814, Control_c, 0, 64, 70
1, 60829, Control_c, 0, 64, 61
1, 60829, Control_c, 0, 67, 124
1, 60844, Note_on_c, 0, 84, 86
1, 60844, Control_c, 0, 64, 62
1, 60847, Note_on_c, 0, 64, 69
1, 60847, Note_off_c, 0, 65, 61
1, 60859, Control_c, 0, 64, 69
1, 60874, Control_c, 0, 64, 93
1, 60874, Control_c, 0, 67, 123
1, 60897, Control_c, 0, 64, 127
1, 60897, Control_c, 0, 67, 123
1, 60899, Note_off_c, 0, 81, 56
1, 60912, Control_c, 0, 67, 122
1, 60918, Note_on_c, 0, 62, 61
1, 60924, Note_off_c, 0, 64, 58
1, 60937, Note_on_c, 0, 60, 67
1, 60939, Note_off_c, 0, 84, 67
1, 60941, Note_on_c, 0, 81, 39
1, 60942, Control_c, 0, 67, 122
1, 60944, Note_on_c, 0, 83, 89
1, 60951, Note_off_c, 0, 62, 66
1, 60956, Control_c, 0, 67, 121
1, 60971, Control_c, 0, 67, 121
1, 60978, Note_on_c, 0, 59, 56
1, 60982, Note_off_c, 0, 60, 61
1, 60985, Note_off_c, 0, 74, 46
1, 60986, Control_c, 0, 67, 120
1, 60999, Note_off_c, 0, 59, 62
1, 61015, Note_off_c, 0, 81, 43
1, 61034, Note_on_c, 0, 86, 86
1, 61043, Note_on_c, 0, 74, 75
1, 61045, Control_c, 0, 67, 121
1, 61046, Note_on_c, 0, 53, 73
1, 61070, Note_off_c, 0, 83, 63
1, 61082, Note_off_c, 0, 53, 60
1, 61103, Note_on_c, 0, 50, 75
1, 61134, Note_off_c, 0, 86, 66
1, 61134, Control_c, 0, 67, 120
1, 61148, Control_c, 0, 64, 85
1, 61148, Control_c, 0, 67, 119
1, 61149, Note_off_c, 0, 50, 64
1, 61164, Control_c, 0, 64, 64
1, 61164, Control_c, 0, 67, 118
1, 61166, Note_on_c, 0, 47, 61
1, 61179, Control_c, 0, 64, 49
1, 61179, Control_c, 0, 67, 117
1, 61194, Control_c, 0, 64, 51
1, 61194, Control_c, 0, 67, 116
1, 61204, Note_off_c, 0, 47, 66
1, 61209, Control_c, 0, 64, 60
1, 61209, Control_c, 0, 67, 114
1, 61214, Note_on_c, 0, 45, 71
1, 61224, Control_c, 0, 64, 71
1, 61224, Control_c, 0, 67, 112
1, 61231, Note_on_c, 0, 81, 91
1, 61238, Control_c, 0, 64, 87
1, 61238, Control_c, 0, 67, 110
1, 61253, Control_c, 0, 64, 127
1, 61253, Control_c, 0, 67, 108
1, 61268, Control_c, 0, 67, 106
1, 61270, Note_on_c, 0, 48, 75
1, 61283, Control_c, 0, 67, 104
1, 61286, Note_off_c, 0, 45, 64
1, 61290, Note_off_c, 0, 77, 56
1, 61297, Control_c, 0, 67, 101
1, 61303, Note_off_c, 0, 48, 64
1, 61304, Note_on_c, 0, 50, 53
1, 61312, Control_c, 0, 67, 97
1, 61327, Control_c, 0, 67, 93
1, 61331, Note_off_c, 0, 50, 58
1, 61342, Control_c, 0, 67, 89
1, 61343, Note_on_c, 0, 53, 65
1, 61348, Note_on_c, 0, 52, 46
1, 61357, Control_c, 0, 67, 88
1, 61371, Control_c, 0, 67, 91
1, 61372, Note_off_c, 0, 53, 64
1, 61377, Note_off_c, 0, 52, 52
1, 61386, Control_c, 0, 67, 93
1, 61401, Control_c, 0, 67, 95
1, 61403, Note_off_c, 0, 74, 33
1, 61416, Control_c, 0, 67, 97
1, 61431, Control_c, 0, 67, 98
1, 61438, Note_on_c, 0, 60, 53
1, 61440, Note_on_c, 0, 86, 86
1, 61441, Note_on_c, 0, 57, 29
1, 61443, Note_on_c, 0, 77, 69
1, 61446, Control_c, 0, 67, 100
1, 61451, Note_off_c, 0, 81, 62
1, 61461, Control_c, 0, 67, 101
1, 61462, Note_off_c, 0, 60, 58
1, 61467, Note_on_c, 0, 59, 37
1, 61467, Note_on_c, 0, 74, 51
1, 61476, Control_c, 0, 67, 102
1, 61477, Note_on_c, 0, 76, 43
1, 61479, Note_off_c, 0, 57, 51
1, 61482, Note_on_c, 0, 78, 33
1, 61483, Note_off_c, 0, 78, 127
1, 61490, Control_c, 0, 67, 104
1, 61498, Note_off_c, 0, 59, 52
1, 61499, Note_off_c, 0, 77, 66
1, 61505, Note_on_c, 0, 64, 48
1, 61505, Note_off_c, 0, 76, 52
1, 61510, Note_off_c, 0, 74, 64
1, 61515, Note_off_c, 0, 86, 66
1, 61522, Note_on_c, 0, 62, 58
1, 61547, Note_off_c, 0, 62, 59
1, 61550, Control_c, 0, 67, 103
1, 61560, Note_off_c, 0, 64, 47
1, 61564, Control_c, 0, 64, 86
1, 61564, Control_c, 0, 67, 102
1, 61579, Control_c, 0, 64, 67
1, 61579, Control_c, 0, 67, 101
1, 61594, Control_c, 0, 64, 62
1, 61594, Control_c, 0, 67, 98
1, 61608, Control_c, 0, 64, 63
1, 61608, Control_c, 0, 67, 95
1, 61615, Note_on_c, 0, 53, 66
1, 61623, Control_c, 0, 64, 70
1, 61623, Control_c, 0, 67, 92
1, 61640, Note_on_c, 0, 84, 82
1, 61646, Control_c, 0, 64, 84
1, 61646, Control_c, 0, 67, 89
1, 61660, Control_c, 0, 64, 127
1, 61660, Control_c, 0, 67, 84
1, 61675, Control_c, 0, 67, 75
1, 61680, Note_off_c, 0, 53, 63
1, 61690, Control_c, 0, 67, 63
1, 61703, Note_off_c, 0, 84, 62
1, 61705, Control_c, 0, 67, 51
1, 61708, Note_on_c, 0, 57, 59
1, 61720, Control_c, 0, 67, 41
1, 61732, Note_off_c, 0, 57, 61
1, 61735, Control_c, 0, 67, 31
1, 61737, Note_on_c, 0, 59, 46
1, 61739, Poly_aftertouch_c, 0, 55, 127
1, 61750, Control_c, 0, 67, 19
1, 61750, Poly_aftertouch_c, 0, 83, 127
1, 61755, Note_on_c, 0, 60, 65
1, 61764, Control_c, 0, 67, 0
1, 61765, Note_off_c, 0, 59, 54
1, 61777, Note_off_c, 0, 60, 64
1, 61781, Poly_aftertouch_c, 0, 55, 0
1, 61810, Poly_aftertouch_c, 0, 83, 0
1, 61846, Note_on_c, 0, 86, 84
1, 61865, Note_on_c, 0, 69, 57
1, 61878, Note_off_c, 0, 86, 64
1, 61886, Note_off_c, 0, 69, 64
1, 61911, Note_on_c, 0, 71, 66
1, 61936, Note_off_c, 0, 71, 67
1, 61941, Poly_aftertouch_c, 0, 79, 0
1, 61987, Control_c, 0, 64, 97
1, 62002, Control_c, 0, 64, 64
1, 62017, Control_c, 0, 64, 25
1, 62032, Control_c, 0, 64, 0
1, 62040, Note_on_c, 0, 81, 89
1, 62046, Note_on_c, 0, 69, 70
1, 62051, Note_on_c, 0, 45, 61
1, 62051, Note_on_c, 0, 74, 44
1, 62061, Control_c, 0, 64, 32
1, 62061, Control_c, 0, 67, 8
1, 62072, Note_off_c, 0, 69, 67
1, 62073, Note_on_c, 0, 47, 45
1, 62075, Note_off_c, 0, 74, 59
1, 62076, Control_c, 0, 64, 56
1, 62091, Control_c, 0, 64, 69
1, 62099, Note_off_c, 0, 81, 65
1, 62104, Note_off_c, 0, 45, 64
1, 62106, Control_c, 0, 64, 74
1, 62106, Control_c, 0, 67, 0
1, 62120, Control_c, 0, 64, 78
1, 62128, Note_off_c, 0, 47, 65
1, 62135, Control_c, 0, 64, 79
1, 62143, Poly_aftertouch_c, 0, 77, 0
1, 62150, Control_c, 0, 64, 80
1, 62153, Note_on_c, 0, 48, 49
1, 62165, Control_c, 0, 64, 83
1, 62173, Note_on_c, 0, 50, 72
1, 62180, Control_c, 0, 64, 87
1, 62183, Note_off_c, 0, 48, 51
1, 62194, Control_c, 0, 64, 92
1, 62203, Note_off_c, 0, 50, 68
1, 62209, Control_c, 0, 64, 96
1, 62219, Note_on_c, 0, 52, 68
1, 62224, Control_c, 0, 64, 101
1, 62239, Control_c, 0, 64, 110
1, 62244, Note_off_c, 0, 52, 66
1, 62254, Control_c, 0, 64, 127
1, 62254, Note_on_c, 0, 86, 85
1, 62260, Note_on_c, 0, 77, 54
1, 62261, Note_on_c, 0, 74, 61
1, 62265, Note_on_c, 0, 81, 70
1, 62311, Note_on_c, 0, 57, 19
1, 62337, Note_on_c, 0, 60, 26
1, 62343, Control_c, 0, 64, 83
1, 62358, Control_c, 0, 64, 62
1, 62358, Note_off_c, 0, 57, 53
1, 62361, Note_on_c, 0, 64, 66
1, 62373, Note_off_c, 0, 60, 43
1, 62373, Control_c, 0, 64, 39
1, 62376, Note_off_c, 0, 86, 63
1, 62394, Control_c, 0, 64, 21
1, 62400, Note_off_c, 0, 64, 67
1, 62409, Control_c, 0, 64, 37
1, 62424, Control_c, 0, 64, 59
1, 62438, Control_c, 0, 64, 75
1, 62440, Note_on_c, 0, 65, 64
1, 62452, Note_on_c, 0, 84, 86
1, 62453, Control_c, 0, 64, 98
1, 62456, Note_off_c, 0, 81, 60
1, 62468, Note_off_c, 0, 77, 65
1, 62468, Control_c, 0, 64, 127
1, 62475, Note_off_c, 0, 74, 0
1, 62475, Note_on_c, 0, 74, 3
1, 62479, Note_off_c, 0, 65, 64
1, 62482, Note_on_c, 0, 64, 63
1, 62492, Note_off_c, 0, 74, 59
1, 62495, Note_off_c, 0, 84, 67
1, 62529, Note_off_c, 0, 64, 54
1, 62537, Note_on_c, 0, 62, 63
1, 62572, Note_on_c, 0, 60, 52
1, 62582, Note_off_c, 0, 62, 63
1, 62609, Note_off_c, 0, 60, 61
1, 62610, Note_on_c, 0, 59, 53
1, 62615, Note_on_c, 0, 74, 24
1, 62633, Note_off_c, 0, 59, 60
1, 62653, Note_on_c, 0, 83, 82
1, 62653, Note_off_c, 0, 74, 0
1, 62653, Note_on_c, 0, 74, 6
1, 62658, Note_on_c, 0, 69, 67
1, 62661, Note_on_c, 0, 77, 58
1, 62680, Note_on_c, 0, 53, 69
1, 62713, Note_off_c, 0, 53, 62
1, 62725, Note_off_c, 0, 83, 64
1, 62751, Note_on_c, 0, 50, 59
1, 62766, Control_c, 0, 64, 85
1, 62781, Control_c, 0, 64, 63
1, 62788, Note_off_c, 0, 50, 63
1, 62796, Note_on_c, 0, 47, 53
1, 62796, Control_c, 0, 64, 30
1, 62810, Control_c, 0, 64, 0
1, 62837, Note_off_c, 0, 47, 64
1, 62840, Control_c, 0, 64, 36
1, 62850, Note_on_c, 0, 45, 68
1, 62855, Control_c, 0, 64, 58
1, 62856, Note_on_c, 0, 81, 80
1, 62863, Note_off_c, 0, 69, 64
1, 62868, Note_off_c, 0, 77, 65
1, 62869, Control_c, 0, 64, 71
1, 62870, Note_off_c, 0, 74, 60
1, 62884, Control_c, 0, 64, 85
1, 62899, Control_c, 0, 64, 106
1, 62905, Note_off_c, 0, 81, 62
1, 62914, Control_c, 0, 64, 127
1, 62920, Note_off_c, 0, 45, 65
1, 62922, Note_on_c, 0, 48, 76
1, 62957, Note_off_c, 0, 48, 65
1, 62961, Note_on_c, 0, 50, 70
1, 62984, Note_on_c, 0, 52, 74
1, 62986, Note_off_c, 0, 50, 68
1, 63008, Note_off_c, 0, 52, 67
1, 63052, Poly_aftertouch_c, 0, 77, 127
1, 63063, Note_on_c, 0, 86, 92
1, 63078, Note_on_c, 0, 74, 53
1, 63081, Note_on_c, 0, 57, 50
1, 63088, Note_on_c, 0, 77, 3
1, 63093, Note_on_c, 0, 60, 58
1, 63106, Note_off_c, 0, 57, 59
1, 63108, Note_off_c, 0, 77, 56
1, 63115, Note_off_c, 0, 60, 62
1, 63127, Note_off_c, 0, 86, 67
1, 63144, Note_off_c, 0, 74, 56
1, 63179, Note_on_c, 0, 64, 45
1, 63194, Note_on_c, 0, 62, 37
1, 63203, Control_c, 0, 64, 80
1, 63208, Note_off_c, 0, 64, 63
1, 63217, Control_c, 0, 64, 58
1, 63224, Note_off_c, 0, 62, 55
1, 63232, Control_c, 0, 64, 24
1, 63247, Control_c, 0, 64, 0
1, 63261, Note_on_c, 0, 53, 67
1, 63261, Control_c, 0, 64, 34
1, 63268, Note_on_c, 0, 74, 40
1, 63276, Control_c, 0, 64, 59
1, 63281, Note_on_c, 0, 84, 67
1, 63286, Note_on_c, 0, 83, 63
1, 63291, Control_c, 0, 64, 75
1, 63297, Note_off_c, 0, 74, 54
1, 63306, Control_c, 0, 64, 89
1, 63316, Note_off_c, 0, 83, 64
1, 63320, Note_off_c, 0, 53, 63
1, 63321, Note_off_c, 0, 84, 61
1, 63321, Control_c, 0, 64, 106
1, 63336, Control_c, 0, 64, 114
1, 63348, Note_on_c, 0, 57, 73
1, 63351, Control_c, 0, 64, 127
1, 63355, Note_on_c, 0, 55, 18
1, 63366, Note_on_c, 0, 83, 86
1, 63372, Note_off_c, 0, 57, 66
1, 63374, Note_on_c, 0, 59, 71
1, 63380, Note_on_c, 0, 74, 49
1, 63395, Note_off_c, 0, 59, 68
1, 63400, Note_off_c, 0, 55, 40
1, 63404, Note_off_c, 0, 74, 58
1, 63422, Note_on_c, 0, 60, 71
1, 63430, Note_off_c, 0, 83, 64
1, 63446, Note_off_c, 0, 60, 65
1, 63462, Note_on_c, 0, 86, 90
1, 63489, Note_on_c, 0, 74, 46
1, 63491, Note_on_c, 0, 79, 38
1, 63518, Note_off_c, 0, 74, 56
1, 63518, Note_on_c, 0, 67, 45
1, 63521, Note_off_c, 0, 79, 55
1, 63524, Note_on_c, 0, 65, 45
1, 63532, Note_on_c, 0, 69, 64
1, 63546, Note_off_c, 0, 67, 55
1, 63549, Note_off_c, 0, 65, 57
1, 63559, Note_off_c, 0, 69, 67
1, 63597, Note_off_c, 0, 86, 64
1, 63604, Control_c, 0, 64, 73
1, 63619, Control_c, 0, 64, 55
1, 63633, Control_c, 0, 64, 39
1, 63648, Control_c, 0, 64, 46
1, 63659, Note_on_c, 0, 84, 96
1, 63660, Note_on_c, 0, 62, 65
1, 63663, Control_c, 0, 64, 62
1, 63678, Control_c, 0, 64, 81
1, 63692, Control_c, 0, 64, 127
1, 63719, Note_on_c, 0, 64, 52
1, 63722, Note_off_c, 0, 62, 64
1, 63747, Note_off_c, 0, 64, 67
1, 63759, Note_on_c, 0, 65, 60
1, 63780, Note_off_c, 0, 65, 63
1, 63799, Note_on_c, 0, 67, 66
1, 63818, Note_off_c, 0, 67, 64
1, 63849, Note_on_c, 0, 69, 57
1, 63860, Note_on_c, 0, 86, 82
1, 63870, Note_off_c, 0, 69, 64
1, 63870, Note_off_c, 0, 84, 64
1, 63911, Note_on_c, 0, 74, 67
1, 63937, Note_off_c, 0, 86, 63
1, 63938, Note_off_c, 0, 74, 67
1, 63972, Note_on_c, 0, 77, 65
1, 64010, Control_c, 0, 64, 77
1, 64013, Note_off_c, 0, 77, 61
1, 64015, Note_on_c, 0, 81, 69
1, 64025, Control_c, 0, 64, 59
1, 64040, Control_c, 0, 64, 47
1, 64055, Control_c, 0, 64, 54
1, 64057, Note_on_c, 0, 53, 59
1, 64070, Control_c, 0, 64, 67
1, 64072, Note_on_c, 0, 84, 78
1, 64077, Note_off_c, 0, 81, 65
1, 64084, Control_c, 0, 64, 86
1, 64099, Control_c, 0, 64, 127
1, 64120, Note_off_c, 0, 53, 63
1, 64137, Note_on_c, 0, 57, 66
1, 64157, Note_on_c, 0, 59, 66
1, 64161, Note_off_c, 0, 84, 53
1, 64164, Note_off_c, 0, 57, 65
1, 64182, Note_off_c, 0, 59, 68
1, 64190, Note_on_c, 0, 60, 65
1, 64215, Note_off_c, 0, 60, 64
1, 64257, Note_on_c, 0, 83, 85
1, 64299, Note_on_c, 0, 69, 61
1, 64304, Note_off_c, 0, 83, 66
1, 64319, Note_off_c, 0, 69, 66
1, 64322, Note_on_c, 0, 67, 18
1, 64349, Note_on_c, 0, 71, 71
1, 64367, Note_off_c, 0, 67, 53
1, 64373, Note_off_c, 0, 71, 68
1, 64412, Control_c, 0, 64, 80
1, 64427, Control_c, 0, 64, 61
1, 64442, Control_c, 0, 64, 53
1, 64456, Note_on_c, 0, 81, 84
1, 64456, Note_on_c, 0, 74, 70
1, 64456, Control_c, 0, 64, 58
1, 64457, Note_on_c, 0, 77, 75
1, 64461, Note_on_c, 0, 69, 61
1, 64463, Note_on_c, 0, 45, 75
1, 64471, Control_c, 0, 64, 68
1, 64480, Note_off_c, 0, 77, 69
1, 64482, Note_off_c, 0, 74, 68
1, 64486, Control_c, 0, 64, 84
1, 64486, Note_off_c, 0, 69, 68
1, 64500, Control_c, 0, 64, 127
1, 64511, Note_off_c, 0, 45, 66
1, 64513, Note_off_c, 0, 81, 64
1, 64528, Note_on_c, 0, 47, 61
1, 64553, Note_on_c, 0, 48, 71
1, 64556, Note_off_c, 0, 47, 66
1, 64580, Note_off_c, 0, 48, 66
1, 64600, Note_on_c, 0, 50, 40
1, 64609, Note_on_c, 0, 52, 23
1, 64623, Note_on_c, 0, 53, 65
1, 64641, Note_off_c, 0, 50, 49
1, 64656, Note_off_c, 0, 53, 65
1, 64658, Note_off_c, 0, 52, 41
1, 64664, Note_on_c, 0, 86, 91
1, 64667, Note_on_c, 0, 77, 70
1, 64678, Note_on_c, 0, 81, 63
1, 64679, Note_on_c, 0, 74, 69
1, 64692, Note_off_c, 0, 77, 69
1, 64695, Note_off_c, 0, 81, 65
1, 64704, Note_off_c, 0, 74, 66
1, 64711, Note_off_c, 0, 86, 64
1, 64722, Note_on_c, 0, 57, 36
1, 64751, Note_on_c, 0, 59, 42
1, 64758, Note_off_c, 0, 57, 49
1, 64781, Note_off_c, 0, 59, 54
1, 64789, Note_on_c, 0, 64, 57
1, 64796, Poly_aftertouch_c, 0, 60, 0
1, 64819, Poly_aftertouch_c, 0, 60, 0
1, 64819, Control_c, 0, 64, 90
1, 64820, Note_off_c, 0, 64, 53
1, 64828, Note_on_c, 0, 74, 27
1, 64831, Note_on_c, 0, 62, 24
1, 64833, Control_c, 0, 64, 60
1, 64848, Control_c, 0, 64, 0
1, 64859, Note_off_c, 0, 62, 46
1, 64863, Note_off_c, 0, 74, 0
1, 64863, Note_on_c, 0, 74, 14
1, 64870, Note_on_c, 0, 53, 72
1, 64870, Note_on_c, 0, 84, 97
1, 64878, Control_c, 0, 64, 47
1, 64881, Note_on_c, 0, 71, 83
1, 64893, Control_c, 0, 64, 71
1, 64902, Note_off_c, 0, 74, 64
1, 64907, Note_off_c, 0, 71, 59
1, 64907, Control_c, 0, 64, 108
1, 64922, Control_c, 0, 64, 127
1, 64928, Note_off_c, 0, 53, 64
1, 64933, Note_on_c, 0, 55, 43
1, 64945, Note_on_c, 0, 57, 80
1, 64965, Note_off_c, 0, 55, 57
1, 64975, Note_off_c, 0, 57, 67
1, 64981, Note_on_c, 0, 59, 70
1, 64999, Note_off_c, 0, 59, 68
1, 65024, Note_on_c, 0, 60, 63
1, 65043, Note_off_c, 0, 60, 62
1, 65064, Note_on_c, 0, 83, 99
1, 65083, Note_on_c, 0, 79, 70
1, 65084, Note_on_c, 0, 74, 73
1, 65098, Note_off_c, 0, 84, 64
1, 65101, Note_on_c, 0, 67, 70
1, 65105, Note_off_c, 0, 79, 67
1, 65117, Note_off_c, 0, 74, 62
1, 65128, Poly_aftertouch_c, 0, 62, 0
1, 65128, Note_off_c, 0, 67, 66
1, 65130, Note_on_c, 0, 69, 57
1, 65154, Note_off_c, 0, 69, 62
1, 65169, Note_off_c, 0, 83, 64
1, 65194, Note_on_c, 0, 72, 52
1, 65214, Note_off_c, 0, 72, 58
1, 65220, Control_c, 0, 64, 83
1, 65235, Control_c, 0, 64, 61
1, 65249, Control_c, 0, 64, 41
1, 65264, Control_c, 0, 64, 44
1, 65270, Note_on_c, 0, 84, 93
1, 65270, Note_on_c, 0, 60, 54
1, 65270, Note_on_c, 0, 62, 59
1, 65279, Control_c, 0, 64, 61
1, 65294, Control_c, 0, 64, 81
1, 65299, Note_off_c, 0, 60, 64
1, 65303, Note_on_c, 0, 64, 61
1, 65305, Note_off_c, 0, 62, 66
1, 65309, Control_c, 0, 64, 127
1, 65329, Note_off_c, 0, 64, 67
1, 65342, Note_on_c, 0, 65, 70
1, 65364, Note_on_c, 0, 67, 78
1, 65370, Note_off_c, 0, 65, 65
1, 65393, Note_off_c, 0, 67, 68
1, 65444, Note_on_c, 0, 69, 64
1, 65452, Note_on_c, 0, 86, 76
1, 65470, Note_off_c, 0, 69, 67
1, 65479, Note_off_c, 0, 84, 65
1, 65513, Note_on_c, 0, 74, 68
1, 65530, Poly_aftertouch_c, 0, 67, 0
1, 65531, Note_off_c, 0, 86, 64
1, 65534, Note_off_c, 0, 74, 69
1, 65574, Note_on_c, 0, 77, 71
1, 65604, Note_on_c, 0, 81, 74
1, 65612, Control_c, 0, 64, 84
1, 65627, Control_c, 0, 64, 59
1, 65629, Note_off_c, 0, 77, 60
1, 65642, Control_c, 0, 64, 30
1, 65657, Control_c, 0, 64, 36
1, 65665, Note_on_c, 0, 65, 71
1, 65666, Note_on_c, 0, 84, 89
1, 65667, Note_off_c, 0, 81, 64
1, 65671, Control_c, 0, 64, 61
1, 65686, Control_c, 0, 64, 90
1, 65701, Control_c, 0, 64, 127
1, 65731, Note_off_c, 0, 65, 63
1, 65741, Note_on_c, 0, 69, 63
1, 65743, Note_off_c, 0, 84, 46
1, 65758, Poly_aftertouch_c, 0, 83, 0
1, 65763, Note_off_c, 0, 69, 66
1, 65765, Note_on_c, 0, 71, 53
1, 65789, Note_on_c, 0, 72, 66
1, 65810, Note_off_c, 0, 72, 61
1, 65852, Note_on_c, 0, 83, 90
1, 65864, Note_off_c, 0, 71, 31
1, 65880, Note_on_c, 0, 77, 64
1, 65891, Note_off_c, 0, 83, 67
1, 65906, Note_off_c, 0, 77, 66
1, 65917, Note_on_c, 0, 79, 71
1, 65918, Note_on_c, 0, 81, 55
1, 65939, Note_off_c, 0, 81, 60
1, 65941, Note_off_c, 0, 79, 68
1, 66013, Control_c, 0, 64, 76
1, 66027, Control_c, 0, 64, 43
1, 66042, Control_c, 0, 64, 0
1, 66060, Note_on_c, 0, 81, 82
1, 66070, Note_on_c, 0, 74, 80
1, 66071, Note_on_c, 0, 45, 85
1, 66072, Control_c, 0, 64, 47
1, 66078, Note_on_c, 0, 69, 71
1, 66087, Control_c, 0, 64, 71
1, 66093, Note_off_c, 0, 74, 67
1, 66096, Note_off_c, 0, 69, 66
1, 66102, Control_c, 0, 64, 105
1, 66111, Note_off_c, 0, 81, 66
1, 66117, Control_c, 0, 64, 127
1, 66134, Note_on_c, 0, 80, 3
1, 66161, Note_off_c, 0, 45, 63
1, 66168, Poly_aftertouch_c, 0, 77, 0
1, 66168, Note_off_c, 0, 80, 34
1, 66175, Poly_aftertouch_c, 0, 47, 127
1, 66185, Note_on_c, 0, 50, 81
1, 66189, Note_on_c, 0, 48, 43
1, 66213, Poly_aftertouch_c, 0, 47, 0
1, 66215, Note_off_c, 0, 50, 68
1, 66222, Note_off_c, 0, 48, 49
1, 66223, Note_on_c, 0, 52, 81
1, 66255, Note_off_c, 0, 52, 67
1, 66272, Note_on_c, 0, 86, 92
1, 66279, Note_on_c, 0, 77, 70
1, 66280, Note_on_c, 0, 81, 67
1, 66281, Note_on_c, 0, 74, 72
1, 66296, Note_off_c, 0, 77, 68
1, 66296, Note_off_c, 0, 81, 68
1, 66310, Note_off_c, 0, 74, 66
1, 66313, Note_on_c, 0, 57, 45
1, 66317, Note_off_c, 0, 86, 65
1, 66329, Note_on_c, 0, 59, 58
1, 66340, Note_off_c, 0, 57, 55
1, 66347, Note_on_c, 0, 60, 60
1, 66350, Note_off_c, 0, 59, 64
1, 66373, Note_off_c, 0, 60, 64
1, 66376, Note_on_c, 0, 64, 78
1, 66408, Note_off_c, 0, 64, 65
1, 66430, Note_on_c, 0, 73, 27
1, 66435, Control_c, 0, 64, 76
1, 66450, Control_c, 0, 64, 49
1, 66452, Note_on_c, 0, 65, 80
1, 66464, Note_off_c, 0, 73, 48
1, 66465, Control_c, 0, 64, 25
1, 66470, Note_on_c, 0, 84, 91
1, 66479, Control_c, 0, 64, 46
1, 66494, Control_c, 0, 64, 68
1, 66508, Note_off_c, 0, 65, 63
1, 66509, Control_c, 0, 64, 127
1, 66510, Note_on_c, 0, 64, 78
1, 66519, Note_on_c, 0, 72, 28
1, 66557, Note_off_c, 0, 72, 31
1, 66558, Note_on_c, 0, 62, 64
1, 66561, Note_off_c, 0, 64, 64
1, 66562, Note_on_c, 0, 60, 74
1, 66570, Note_on_c, 0, 83, 72
1, 66575, Note_on_c, 0, 81, 82
1, 66577, Poly_aftertouch_c, 0, 71, 0
1, 66578, Note_off_c, 0, 84, 67
1, 66609, Note_off_c, 0, 62, 63
1, 66615, Note_on_c, 0, 57, 68
1, 66615, Note_off_c, 0, 60, 63
1, 66626, Note_off_c, 0, 81, 62
1, 66640, Note_off_c, 0, 57, 66
1, 66665, Note_on_c, 0, 86, 99
1, 66668, Note_off_c, 0, 83, 66
1, 66674, Note_on_c, 0, 79, 72
1, 66677, Note_on_c, 0, 74, 69
1, 66677, Note_on_c, 0, 53, 76
1, 66696, Note_on_c, 0, 52, 63
1, 66720, Note_off_c, 0, 52, 59
1, 66720, Note_off_c, 0, 53, 58
1, 66733, Note_off_c, 0, 74, 56
1, 66744, Note_off_c, 0, 79, 57
1, 66758, Note_on_c, 0, 50, 80
1, 66773, Note_on_c, 0, 47, 81
1, 66786, Note_off_c, 0, 50, 67
1, 66788, Note_off_c, 0, 86, 64
1, 66791, Control_c, 0, 64, 74
1, 66806, Control_c, 0, 64, 34
1, 66821, Control_c, 0, 64, 0
1, 66823, Note_off_c, 0, 47, 67
1, 66850, Control_c, 0, 64, 56
1, 66854, Note_on_c, 0, 57, 87
1, 66859, Note_on_c, 0, 84, 98
1, 66865, Control_c, 0, 64, 76
1, 66888, Control_c, 0, 64, 96
1, 66900, Note_on_c, 0, 83, 29
1, 66901, Note_off_c, 0, 83, 127
1, 66903, Note_off_c, 0, 57, 62
1, 66903, Control_c, 0, 64, 127
1, 66936, Note_on_c, 0, 59, 79
1, 66970, Note_on_c, 0, 60, 75
1, 66978, Poly_aftertouch_c, 0, 77, 0
1, 66978, Note_off_c, 0, 59, 64
1, 67015, Note_on_c, 0, 62, 56
1, 67017, Note_off_c, 0, 60, 56
1, 67038, Note_off_c, 0, 84, 65
1, 67044, Note_on_c, 0, 64, 81
1, 67053, Note_off_c, 0, 62, 67
1, 67069, Note_on_c, 0, 86, 99
1, 67093, Note_off_c, 0, 64, 66
1, 67124, Note_on_c, 0, 71, 83
1, 67154, Note_off_c, 0, 71, 63
1, 67166, Note_on_c, 0, 74, 66
1, 67184, Note_on_c, 0, 72, 54
1, 67186, Note_off_c, 0, 74, 64
1, 67205, Note_off_c, 0, 72, 57
1, 67212, Note_on_c, 0, 76, 59
1, 67214, Control_c, 0, 64, 82
1, 67228, Control_c, 0, 64, 46
1, 67229, Note_off_c, 0, 86, 64
1, 67231, Note_off_c, 0, 76, 62
1, 67243, Control_c, 0, 64, 0
1, 67255, Note_on_c, 0, 84, 107
1, 67258, Note_on_c, 0, 77, 87
1, 67273, Control_c, 0, 64, 55
1, 67287, Note_off_c, 0, 77, 68
1, 67288, Control_c, 0, 64, 82
1, 67302, Control_c, 0, 64, 127
1, 67345, Note_on_c, 0, 76, 85
1, 67399, Note_off_c, 0, 76, 60
1, 67446, Note_on_c, 0, 74, 86
1, 67450, Note_on_c, 0, 83, 90
1, 67453, Note_off_c, 0, 84, 68
1, 67487, Note_off_c, 0, 83, 70
1, 67501, Note_off_c, 0, 74, 65
1, 67539, Note_on_c, 0, 72, 75
1, 67563, Note_off_c, 0, 72, 67
1, 67585, Control_c, 0, 64, 72
1, 67599, Control_c, 0, 64, 0
1, 67662, Note_on_c, 0, 95, 96
1, 67669, Note_on_c, 0, 59, 86
1, 67679, Note_on_c, 0, 83, 64
1, 67682, Control_c, 0, 64, 41
1, 67696, Note_off_c, 0, 83, 66
1, 67697, Control_c, 0, 64, 66
1, 67712, Control_c, 0, 64, 77
1, 67713, Note_off_c, 0, 95, 69
1, 67719, Note_off_c, 0, 59, 66
1, 67727, Control_c, 0, 64, 86
1, 67741, Control_c, 0, 64, 96
1, 67756, Control_c, 0, 64, 117
1, 67763, Note_on_c, 0, 96, 100
1, 67771, Note_on_c, 0, 60, 82
1, 67771, Control_c, 0, 64, 127
1, 67823, Note_off_c, 0, 60, 63
1, 67835, Note_off_c, 0, 96, 60
1, 67861, Note_on_c, 0, 98, 96
1, 67866, Note_on_c, 0, 62, 80
1, 67874, Control_c, 0, 64, 99
1, 67886, Note_off_c, 0, 62, 69
1, 67889, Control_c, 0, 64, 67
1, 67904, Control_c, 0, 64, 39
1, 67919, Control_c, 0, 64, 0
1, 67934, Note_on_c, 0, 86, 2
1, 67935, Note_off_c, 0, 86, 127
1, 67956, Note_off_c, 0, 98, 64
1, 68060, Note_on_c, 0, 100, 104
1, 68066, Control_c, 0, 64, 55
1, 68078, Note_on_c, 0, 64, 80
1, 68081, Control_c, 0, 64, 75
1, 68096, Control_c, 0, 64, 81
1, 68111, Control_c, 0, 64, 83
1, 68123, Note_on_c, 0, 88, 26
1, 68126, Control_c, 0, 64, 85
1, 68141, Control_c, 0, 64, 86
1, 68150, Note_on_c, 0, 62, 81
1, 68156, Control_c, 0, 64, 87
1, 68161, Note_on_c, 0, 98, 96
1, 68164, Note_off_c, 0, 64, 64
1, 68168, Note_off_c, 0, 88, 52
1, 68171, Control_c, 0, 64, 88
1, 68185, Control_c, 0, 64, 88
1, 68199, Note_off_c, 0, 100, 65
1, 68200, Control_c, 0, 64, 89
1, 68230, Control_c, 0, 64, 90
1, 68245, Note_on_c, 0, 96, 96
1, 68245, Control_c, 0, 64, 94
1, 68254, Note_on_c, 0, 60, 82
1, 68259, Note_off_c, 0, 62, 65
1, 68259, Control_c, 0, 64, 100
1, 68274, Control_c, 0, 64, 108
1, 68280, Note_off_c, 0, 98, 64
1, 68289, Control_c, 0, 64, 111
1, 68304, Control_c, 0, 64, 112
1, 68319, Control_c, 0, 64, 113
1, 68323, Note_on_c, 0, 59, 79
1, 68326, Note_off_c, 0, 60, 62
1, 68331, Note_on_c, 0, 95, 92
1, 68333, Control_c, 0, 64, 117
1, 68335, Note_off_c, 0, 96, 66
1, 68349, Control_c, 0, 64, 127
1, 68368, Note_off_c, 0, 95, 66
1, 68400, Control_c, 0, 64, 92
1, 68412, Note_off_c, 0, 59, 66
1, 68415, Control_c, 0, 64, 63
1, 68430, Control_c, 0, 64, 0
1, 68431, Note_on_c, 0, 57, 75
1, 68442, Note_on_c, 0, 65, 80
1, 68444, Note_on_c, 0, 62, 56
1, 68444, Note_on_c, 0, 93, 100
1, 68461, Note_off_c, 0, 57, 68
1, 68463, Note_off_c, 0, 62, 64
1, 68467, Note_off_c, 0, 65, 67
1, 68469, Note_on_c, 0, 86, 63
1, 68470, Note_off_c, 0, 86, 127
1, 68472, Note_off_c, 0, 93, 68
1, 68657, Note_on_c, 0, 93, 105
1, 68666, Note_on_c, 0, 69, 68
1, 68666, Note_on_c, 0, 77, 72
1, 68668, Note_on_c, 0, 74, 66
1, 68691, Note_off_c, 0, 77, 69
1, 68692, Note_off_c, 0, 69, 67
1, 68692, Note_off_c, 0, 74, 68
1, 68695, Note_off_c, 0, 93, 67
1, 68881, Note_on_c, 0, 74, 74
1, 68883, Note_on_c, 0, 79, 75
1, 68884, Note_on_c, 0, 71, 79
1, 68889, Note_on_c, 0, 95, 104
1, 68895, Note_on_c, 0, 83, 91
1, 68900, Note_off_c, 0, 79, 70
1, 68904, Control_c, 0, 64, 8
1, 68906, Note_off_c, 0, 74, 72
1, 68907, Note_off_c, 0, 71, 67
1, 68919, Control_c, 0, 64, 52
1, 68934, Control_c, 0, 64, 64
1, 68948, Control_c, 0, 64, 73
1, 68963, Control_c, 0, 64, 95
1, 68978, Control_c, 0, 64, 127
1, 69043, Poly_aftertouch_c, 0, 71, 0
1, 69087, Note_on_c, 0, 88, 83
1, 69099, Note_off_c, 0, 95, 64
1, 69128, Note_off_c, 0, 88, 65
1, 69134, Note_off_c, 0, 83, 65
1, 69193, Note_on_c, 0, 64, 5
1, 69249, Note_off_c, 0, 64, 52
1, 69292, Note_on_c, 0, 81, 85
1, 69293, Note_on_c, 0, 57, 66
1, 69299, Note_on_c, 0, 74, 63
1, 69302, Note_on_c, 0, 69, 60
1, 69308, Note_on_c, 0, 77, 49
1, 69318, Note_off_c, 0, 74, 65
1, 69321, Note_off_c, 0, 69, 66
1, 69333, Note_off_c, 0, 77, 59
1, 69341, Note_off_c, 0, 81, 60
1, 69375, Note_off_c, 0, 57, 62
1, 69384, Note_on_c, 0, 59, 72
1, 69395, Note_on_c, 0, 83, 88
1, 69438, Note_on_c, 0, 60, 61
1, 69461, Note_off_c, 0, 59, 64
1, 69476, Poly_aftertouch_c, 0, 77, 0
1, 69482, Note_on_c, 0, 84, 88
1, 69488, Note_off_c, 0, 60, 62
1, 69491, Note_off_c, 0, 83, 64
1, 69497, Poly_aftertouch_c, 0, 77, 0
1, 69524, Note_on_c, 0, 62, 60
1, 69544, Note_off_c, 0, 62, 64
1, 69567, Note_on_c, 0, 64, 75
1, 69571, Note_on_c, 0, 81, 87
1, 69580, Note_off_c, 0, 84, 65
1, 69596, Note_off_c, 0, 64, 67
1, 69611, Note_off_c, 0, 81, 66
1, 69623, Control_c, 0, 64, 65
1, 69638, Control_c, 0, 64, 0
1, 69666, Note_on_c, 0, 86, 98
1, 69667, Note_on_c, 0, 83, 75
1, 69669, Note_on_c, 0, 62, 79
1, 69671, Note_on_c, 0, 79, 90
1, 69677, Note_on_c, 0, 74, 85
1, 69697, Control_c, 0, 64, 49
1, 69712, Control_c, 0, 64, 70
1, 69727, Control_c, 0, 64, 90
1, 69733, Note_off_c, 0, 62, 64
1, 69742, Control_c, 0, 64, 115
1, 69757, Control_c, 0, 64, 127
1, 69769, Note_on_c, 0, 60, 85
1, 69780, Note_off_c, 0, 83, 66
1, 69804, Note_off_c, 0, 79, 62
1, 69807, Note_off_c, 0, 74, 57
1, 69867, Note_on_c, 0, 84, 84
1, 69868, Note_on_c, 0, 59, 82
1, 69886, Note_off_c, 0, 60, 58
1, 69896, Note_off_c, 0, 86, 63
1, 69944, Note_on_c, 0, 57, 81
1, 69944, Note_off_c, 0, 59, 67
1, 69961, Note_on_c, 0, 83, 92
1, 69972, Note_off_c, 0, 57, 65
1, 69987, Control_c, 0, 64, 78
1, 69989, Note_off_c, 0, 84, 65
1, 69999, Note_off_c, 0, 83, 68
1, 70001, Control_c, 0, 64, 40
1, 70016, Control_c, 0, 64, 0
1, 70047, Note_on_c, 0, 59, 89
1, 70066, Note_on_c, 0, 95, 98
1, 70105, Control_c, 0, 64, 57
1, 70107, Note_off_c, 0, 59, 64
1, 70120, Note_off_c, 0, 95, 67
1, 70120, Control_c, 0, 64, 71
1, 70135, Control_c, 0, 64, 72
1, 70146, Note_on_c, 0, 60, 88
1, 70150, Control_c, 0, 64, 63
1, 70162, Note_on_c, 0, 96, 89
1, 70165, Control_c, 0, 64, 22
1, 70180, Control_c, 0, 64, 0
1, 70218, Note_off_c, 0, 60, 60
1, 70237, Note_on_c, 0, 62, 83
1, 70254, Note_off_c, 0, 96, 67
1, 70254, Note_on_c, 0, 98, 95
1, 70305, Note_off_c, 0, 62, 64
1, 70321, Note_on_c, 0, 64, 74
1, 70337, Note_off_c, 0, 64, 70
1, 70346, Note_on_c, 0, 100, 95
1, 70354, Note_off_c, 0, 98, 64
1, 70427, Note_on_c, 0, 67, 90
1, 70430, Note_on_c, 0, 62, 85
1, 70431, Control_c, 0, 64, 61
1, 70433, Note_on_c, 0, 71, 83
1, 70441, Note_on_c, 0, 98, 105
1, 70445, Note_off_c, 0, 71, 71
1, 70445, Control_c, 0, 64, 73
1, 70448, Note_on_c, 0, 95, 78
1, 70448, Note_off_c, 0, 67, 69
1, 70453, Note_off_c, 0, 62, 70
1, 70454, Note_on_c, 0, 72, 44
1, 70455, Note_off_c, 0, 72, 127
1, 70460, Control_c, 0, 64, 75
1, 70467, Note_off_c, 0, 100, 66
1, 70472, Note_on_c, 0, 96, 53
1, 70475, Control_c, 0, 64, 78
1, 70478, Note_on_c, 0, 93, 60
1, 70479, Note_off_c, 0, 93, 127
1, 70490, Control_c, 0, 64, 87
1, 70496, Note_off_c, 0, 95, 64
1, 70505, Control_c, 0, 64, 103
1, 70514, Note_off_c, 0, 96, 61
1, 70520, Control_c, 0, 64, 127
1, 70541, Note_on_c, 0, 93, 89
1, 70565, Note_off_c, 0, 98, 64
1, 70572, Note_off_c, 0, 93, 65
1, 70590, Poly_aftertouch_c, 0, 71, 0
1, 70594, Control_c, 0, 64, 84
1, 70608, Control_c, 0, 64, 61
1, 70630, Control_c, 0, 64, 0
1, 70645, Note_on_c, 0, 60, 88
1, 70648, Note_on_c, 0, 96, 102
1, 70694, Note_off_c, 0, 60, 62
1, 70714, Note_off_c, 0, 96, 60
1, 70743, Note_on_c, 0, 95, 98
1, 70744, Note_on_c, 0, 59, 68
1, 70794, Note_off_c, 0, 95, 67
1, 70795, Note_off_c, 0, 59, 65
1, 70841, Note_on_c, 0, 65, 83
1, 70843, Note_on_c, 0, 93, 95
1, 70845, Note_on_c, 0, 57, 84
1, 70853, Note_on_c, 0, 84, 78
1, 70857, Note_on_c, 0, 62, 63
1, 70860, Note_on_c, 0, 86, 60
1, 70864, Note_off_c, 0, 65, 70
1, 70867, Note_off_c, 0, 57, 67
1, 70875, Note_off_c, 0, 84, 70
1, 70878, Note_off_c, 0, 62, 61
1, 70878, Note_off_c, 0, 86, 62
1, 70880, Note_off_c, 0, 93, 68
1, 70947, Note_on_c, 0, 83, 93
1, 70988, Note_off_c, 0, 83, 64
1, 71048, Note_on_c, 0, 93, 96
1, 71058, Note_on_c, 0, 77, 85
1, 71059, Note_on_c, 0, 74, 77
1, 71060, Note_on_c, 0, 81, 83
1, 71062, Note_on_c, 0, 89, 83
1, 71065, Note_on_c, 0, 69, 72
1, 71081, Note_off_c, 0, 81, 70
1, 71083, Note_off_c, 0, 74, 68
1, 71087, Note_off_c, 0, 77, 66
1, 71089, Note_off_c, 0, 69, 67
1, 71155, Note_on_c, 0, 88, 92
1, 71161, Note_off_c, 0, 89, 55
1, 71171, Note_on_c, 0, 74, 25
1, 71172, Note_off_c, 0, 93, 64
1, 71208, Note_off_c, 0, 74, 48
1, 71233, Note_off_c, 0, 88, 64
1, 71279, Note_on_c, 0, 95, 98
1, 71287, Note_on_c, 0, 74, 84
1, 71289, Note_on_c, 0, 79, 97
1, 71292, Note_on_c, 0, 84, 88
1, 71294, Note_on_c, 0, 86, 88
1, 71299, Note_on_c, 0, 71, 84
1, 71301, Note_on_c, 0, 91, 72
1, 71313, Note_off_c, 0, 84, 72
1, 71313, Control_c, 0, 64, 63
1, 71314, Note_off_c, 0, 86, 71
1, 71316, Note_off_c, 0, 91, 68
1, 71323, Note_off_c, 0, 95, 69
1, 71328, Control_c, 0, 64, 72
1, 71342, Control_c, 0, 64, 75
1, 71357, Control_c, 0, 64, 82
1, 71380, Control_c, 0, 64, 91
1, 71395, Control_c, 0, 64, 111
1, 71409, Control_c, 0, 64, 127
1, 71450, Poly_aftertouch_c, 0, 86, 0
1, 71450, Note_off_c, 0, 74, 58
1, 71453, Note_off_c, 0, 79, 60
1, 71463, Poly_aftertouch_c, 0, 84, 0
1, 71469, Note_off_c, 0, 71, 52
1, 71543, Control_c, 0, 64, 83
1, 71551, Note_on_c, 0, 74, 77
1, 71552, Note_on_c, 0, 84, 106
1, 71559, Control_c, 0, 64, 58
1, 71561, Note_on_c, 0, 71, 81
1, 71562, Note_on_c, 0, 79, 86
1, 71573, Control_c, 0, 64, 0
1, 71577, Note_off_c, 0, 74, 70
1, 71593, Note_off_c, 0, 71, 66
1, 71617, Note_off_c, 0, 79, 49
1, 71671, Note_on_c, 0, 83, 97
1, 71691, Note_off_c, 0, 84, 65
1, 71731, Note_off_c, 0, 83, 65
1, 71820, Note_on_c, 0, 81, 92
1, 71824, Note_on_c, 0, 65, 89
1, 71825, Note_on_c, 0, 74, 86
1, 71828, Note_on_c, 0, 62, 83
1, 71829, Note_on_c, 0, 57, 74
1, 71829, Note_on_c, 0, 77, 83
1, 71831, Note_on_c, 0, 69, 78
1, 71846, Note_off_c, 0, 69, 72
1, 71846, Note_off_c, 0, 74, 70
1, 71851, Note_off_c, 0, 77, 70
1, 71861, Note_off_c, 0, 62, 64
1, 71863, Note_off_c, 0, 57, 66
1, 71864, Note_off_c, 0, 81, 67
1, 71872, Note_off_c, 0, 65, 64
1, 71905, Note_on_c, 0, 74, 29
1, 71906, Note_off_c, 0, 74, 127
1, 72174, Note_on_c, 0, 65, 83
1, 72174, Note_on_c, 0, 81, 87
1, 72175, Note_on_c, 0, 57, 73
1, 72175, Note_on_c, 0, 77, 82
1, 72176, Note_on_c, 0, 62, 77
1, 72177, Note_on_c, 0, 74, 81
1, 72182, Note_on_c, 0, 69, 83
1, 72207, Note_off_c, 0, 69, 70
1, 72211, Note_off_c, 0, 74, 65
1, 72220, Note_off_c, 0, 65, 62
1, 72231, Note_off_c, 0, 57, 61
1, 72242, Note_off_c, 0, 77, 65
1, 72248, Note_off_c, 0, 62, 65
1, 72265, Note_off_c, 0, 81, 64
1, 72636, Note_on_c, 0, 83, 83
1, 72641, Note_on_c, 0, 57, 62
1, 72642, Note_on_c, 0, 78, 79
1, 72643, Note_on_c, 0, 66, 70
1, 72644, Note_on_c, 0, 75, 72
1, 72649, Note_on_c, 0, 63, 59
1, 72650, Note_on_c, 0, 69, 65
1, 73055, Control_c, 0, 64, 31
1, 73070, Control_c, 0, 64, 47
1, 73085, Control_c, 0, 64, 57
1, 73100, Control_c, 0, 64, 62
1, 73115, Control_c, 0, 64, 65
1, 73129, Control_c, 0, 64, 70
1, 73145, Control_c, 0, 64, 78
1, 73160, Control_c, 0, 64, 86
1, 73175, Control_c, 0, 64, 94
1, 73190, Control_c, 0, 64, 102
1, 73205, Control_c, 0, 64, 124
1, 73210, Note_off_c, 0, 69, 56
1, 73219, Control_c, 0, 64, 127
1, 73227, Note_off_c, 0, 83, 54
1, 73245, Note_off_c, 0, 66, 54
1, 73265, Note_off_c, 0, 78, 58
1, 73268, Note_off_c, 0, 75, 61
1, 73307, Note_off_c, 0, 57, 32
1, 73309, Note_off_c, 0, 63, 42
1, 73545, Control_c, 0, 67, 9
1, 73560, Control_c, 0, 67, 11
1, 73575, Control_c, 0, 64, 120
1, 73575, Control_c, 0, 67, 13
1, 73589, Control_c, 0, 64, 81
1, 73589, Control_c, 0, 67, 16
1, 73604, Control_c, 0, 64, 65
1, 73604, Control_c, 0, 67, 19
1, 73626, Control_c, 0, 64, 53
1, 73626, Control_c, 0, 67, 22
1, 73641, Control_c, 0, 64, 46
1, 73641, Control_c, 0, 67, 25
1, 73656, Control_c, 0, 64, 40
1, 73656, Control_c, 0, 67, 27
1, 73671, Control_c, 0, 64, 31
1, 73671, Control_c, 0, 67, 28
1, 73685, Control_c, 0, 64, 13
1, 73700, Control_c, 0, 64, 0
1, 73721, Note_on_c, 0, 71, 70
1, 73742, Note_on_c, 0, 65, 55
1, 73758, Note_on_c, 0, 69, 44
1, 73764, Note_on_c, 0, 55, 39
1, 73775, Control_c, 0, 67, 28
1, 73834, Control_c, 0, 67, 29
1, 73849, Control_c, 0, 67, 29
1, 73864, Control_c, 0, 67, 30
1, 73870, Note_on_c, 0, 72, 78
1, 73878, Control_c, 0, 67, 33
1, 73893, Control_c, 0, 67, 36
1, 73905, Note_off_c, 0, 71, 63
1, 73908, Control_c, 0, 67, 39
1, 73923, Control_c, 0, 67, 40
1, 73968, Control_c, 0, 67, 40
1, 73998, Control_c, 0, 67, 40
1, 74011, Note_on_c, 0, 74, 80
1, 74026, Note_off_c, 0, 72, 64
1, 74152, Note_off_c, 0, 65, 62
1, 74305, Note_on_c, 0, 76, 76
1, 74324, Note_on_c, 0, 67, 46
1, 74330, Note_off_c, 0, 74, 63
1, 74341, Note_on_c, 0, 64, 44
1, 74389, Note_off_c, 0, 69, 47
1, 74441, Note_on_c, 0, 74, 79
1, 74467, Note_off_c, 0, 76, 62
1, 74551, Note_on_c, 0, 72, 73
1, 74581, Note_off_c, 0, 74, 60
1, 74608, Note_off_c, 0, 64, 63
1, 74650, Note_off_c, 0, 72, 63
1, 74657, Note_on_c, 0, 71, 70
1, 74735, Note_off_c, 0, 71, 64
1, 74779, Note_on_c, 0, 69, 68
1, 74805, Note_on_c, 0, 66, 51
1, 74821, Note_on_c, 0, 63, 49
1, 74821, Note_off_c, 0, 69, 63
1, 74833, Note_off_c, 0, 67, 45
1, 75036, Note_on_c, 0, 69, 72
1, 75089, Note_off_c, 0, 69, 62
1, 75107, Note_off_c, 0, 63, 57
1, 75311, Note_on_c, 0, 71, 65
1, 75325, Note_on_c, 0, 62, 47
1, 75339, Note_on_c, 0, 65, 44
1, 75361, Note_off_c, 0, 66, 56
1, 75391, Control_c, 0, 67, 39
1, 75465, Control_c, 0, 64, 26
1, 75465, Control_c, 0, 67, 39
1, 75480, Control_c, 0, 64, 51
1, 75495, Control_c, 0, 64, 65
1, 75510, Control_c, 0, 64, 73
1, 75524, Control_c, 0, 64, 83
1, 75540, Control_c, 0, 64, 95
1, 75551, Note_off_c, 0, 65, 51
1, 75554, Control_c, 0, 64, 106
1, 75569, Control_c, 0, 64, 127
1, 75575, Note_off_c, 0, 55, 59
1, 75590, Note_off_c, 0, 62, 61
1, 75659, Control_c, 0, 67, 39
1, 75673, Control_c, 0, 67, 40
1, 75702, Note_off_c, 0, 71, 50
1, 75733, Control_c, 0, 67, 40
1, 75762, Control_c, 0, 67, 41
1, 75835, Note_on_c, 0, 71, 70
1, 75836, Control_c, 0, 64, 103
1, 75851, Control_c, 0, 64, 87
1, 75853, Note_on_c, 0, 55, 66
1, 75873, Control_c, 0, 64, 72
1, 75888, Control_c, 0, 64, 64
1, 75891, Note_on_c, 0, 62, 45
1, 75891, Note_on_c, 0, 65, 37
1, 75903, Control_c, 0, 64, 57
1, 75918, Control_c, 0, 64, 52
1, 75933, Control_c, 0, 64, 48
1, 75947, Control_c, 0, 64, 45
1, 75962, Control_c, 0, 64, 39
1, 75974, Note_on_c, 0, 72, 73
1, 75977, Control_c, 0, 64, 33
1, 75992, Control_c, 0, 64, 25
1, 76005, Note_off_c, 0, 71, 35
1, 76007, Control_c, 0, 64, 17
1, 76021, Control_c, 0, 64, 0
1, 76085, Note_on_c, 0, 74, 82
1, 76095, Control_c, 0, 67, 41
1, 76101, Note_off_c, 0, 62, 61
1, 76108, Note_off_c, 0, 72, 62
1, 76125, Control_c, 0, 67, 43
1, 76180, Note_on_c, 0, 76, 84
1, 76184, Note_off_c, 0, 74, 65
1, 76213, Control_c, 0, 67, 43
1, 76288, Control_c, 0, 67, 44
1, 76300, Note_on_c, 0, 74, 83
1, 76318, Control_c, 0, 67, 45
1, 76327, Note_off_c, 0, 76, 64
1, 76332, Control_c, 0, 67, 46
1, 76348, Control_c, 0, 67, 47
1, 76350, Note_on_c, 0, 66, 56
1, 76361, Note_on_c, 0, 63, 48
1, 76386, Note_off_c, 0, 65, 44
1, 76526, Control_c, 0, 67, 46
1, 76554, Note_on_c, 0, 72, 73
1, 76583, Note_off_c, 0, 74, 55
1, 76622, Note_off_c, 0, 66, 63
1, 76675, Note_on_c, 0, 71, 68
1, 76678, Note_off_c, 0, 72, 60
1, 76744, Note_off_c, 0, 63, 60
1, 76763, Note_off_c, 0, 71, 64
1, 76802, Note_on_c, 0, 64, 43
1, 76804, Note_on_c, 0, 69, 67
1, 76817, Note_on_c, 0, 67, 47
1, 76839, Note_off_c, 0, 69, 64
1, 77053, Note_on_c, 0, 69, 70
1, 77118, Note_off_c, 0, 69, 63
1, 77139, Note_off_c, 0, 67, 46
1, 77336, Note_on_c, 0, 71, 65
1, 77373, Note_on_c, 0, 68, 41
1, 77381, Note_on_c, 0, 65, 42
1, 77391, Note_off_c, 0, 64, 52
1, 77504, Control_c, 0, 64, 30
1, 77519, Control_c, 0, 64, 53
1, 77534, Control_c, 0, 64, 63
1, 77549, Control_c, 0, 64, 69
1, 77564, Control_c, 0, 64, 73
1, 77578, Control_c, 0, 64, 77
1, 77593, Control_c, 0, 64, 81
1, 77596, Note_off_c, 0, 68, 52
1, 77608, Control_c, 0, 64, 84
1, 77623, Control_c, 0, 64, 88
1, 77638, Control_c, 0, 64, 93
1, 77649, Note_off_c, 0, 65, 35
1, 77652, Control_c, 0, 64, 98
1, 77667, Control_c, 0, 64, 103
1, 77668, Note_off_c, 0, 71, 64
1, 77682, Control_c, 0, 64, 108
1, 77697, Control_c, 0, 64, 110
1, 77711, Note_off_c, 0, 55, 34
1, 77756, Control_c, 0, 67, 46
1, 77874, Control_c, 0, 64, 109
1, 77889, Control_c, 0, 64, 104
1, 77904, Control_c, 0, 64, 92
1, 77909, Note_on_c, 0, 71, 59
1, 77918, Control_c, 0, 64, 79
1, 77926, Note_on_c, 0, 69, 48
1, 77930, Note_on_c, 0, 65, 50
1, 77934, Control_c, 0, 64, 68
1, 77949, Control_c, 0, 64, 59
1, 77950, Note_on_c, 0, 55, 43
1, 77964, Control_c, 0, 64, 50
1, 77979, Control_c, 0, 64, 45
1, 77979, Control_c, 0, 67, 46
1, 77994, Control_c, 0, 64, 42
1, 78008, Control_c, 0, 64, 38
1, 78016, Note_off_c, 0, 69, 0
1, 78016, Note_on_c, 0, 69, 3
1, 78023, Control_c, 0, 64, 29
1, 78038, Control_c, 0, 64, 17
1, 78052, Note_on_c, 0, 72, 69
1, 78053, Control_c, 0, 64, 0
1, 78058, Note_off_c, 0, 71, 61
1, 78149, Control_c, 0, 67, 47
1, 78207, Note_on_c, 0, 74, 69
1, 78209, Control_c, 0, 67, 47
1, 78231, Note_off_c, 0, 72, 62
1, 78282, Control_c, 0, 67, 48
1, 78330, Note_off_c, 0, 65, 62
1, 78357, Control_c, 0, 67, 48
1, 78416, Control_c, 0, 67, 49
1, 78553, Note_on_c, 0, 76, 56
1, 78583, Note_off_c, 0, 74, 60
1, 78589, Note_on_c, 0, 68, 44
1, 78593, Control_c, 0, 67, 50
1, 78602, Note_on_c, 0, 64, 42
1, 78617, Note_off_c, 0, 69, 40
1, 78719, Note_on_c, 0, 74, 54
1, 78726, Note_off_c, 0, 55, 34
1, 78747, Note_off_c, 0, 76, 58
1, 78762, Note_off_c, 0, 68, 63
1, 78781, Note_off_c, 0, 64, 61
1, 78866, Note_off_c, 0, 74, 59
1, 78884, Note_on_c, 0, 72, 52
1, 79004, Note_off_c, 0, 72, 58
1, 79032, Note_on_c, 0, 71, 49
1, 79143, Note_off_c, 0, 71, 63
1, 79449, Note_on_c, 0, 71, 64
1, 79462, Note_on_c, 0, 65, 71
1, 79489, Note_on_c, 0, 69, 37
1, 79490, Control_c, 0, 67, 50
1, 79521, Note_on_c, 0, 55, 35
1, 79585, Note_off_c, 0, 69, 0
1, 79585, Note_on_c, 0, 69, 4
1, 79590, Note_on_c, 0, 72, 79
1, 79613, Note_off_c, 0, 71, 62
1, 79725, Note_on_c, 0, 74, 82
1, 79740, Note_off_c, 0, 72, 63
1, 79850, Note_on_c, 0, 76, 88
1, 79868, Note_off_c, 0, 65, 64
1, 79880, Note_off_c, 0, 74, 64
1, 79986, Note_on_c, 0, 74, 80
1, 80016, Note_on_c, 0, 64, 63
1, 80027, Note_on_c, 0, 68, 61
1, 80031, Note_off_c, 0, 76, 64
1, 80044, Note_off_c, 0, 69, 56
1, 80279, Note_on_c, 0, 72, 72
1, 80316, Note_off_c, 0, 74, 52
1, 80401, Note_off_c, 0, 72, 61
1, 80408, Note_on_c, 0, 71, 67
1, 80500, Control_c, 0, 67, 49
1, 80539, Note_off_c, 0, 71, 63
1, 80557, Note_off_c, 0, 68, 47
1, 80574, Note_on_c, 0, 69, 72
1, 80581, Note_on_c, 0, 63, 55
1, 80612, Note_on_c, 0, 67, 57
1, 80613, Note_off_c, 0, 69, 65
1, 80622, Note_off_c, 0, 64, 59
1, 80662, Control_c, 0, 67, 49
1, 80937, Note_on_c, 0, 69, 76
1, 80993, Note_off_c, 0, 69, 66
1, 81405, Note_on_c, 0, 71, 67
1, 81416, Note_off_c, 0, 67, 43
1, 81418, Note_on_c, 0, 62, 56
1, 81424, Note_on_c, 0, 66, 53
1, 81426, Note_off_c, 0, 63, 63
1, 81648, Control_c, 0, 67, 48
1, 81692, Control_c, 0, 67, 48
1, 81707, Control_c, 0, 67, 47
1, 81722, Control_c, 0, 67, 47
1, 81737, Control_c, 0, 67, 46
1, 81752, Control_c, 0, 67, 45
1, 81767, Control_c, 0, 67, 44
1, 81782, Control_c, 0, 67, 43
1, 81796, Control_c, 0, 67, 42
1, 81811, Control_c, 0, 67, 40
1, 81826, Control_c, 0, 67, 38
1, 81840, Control_c, 0, 67, 36
1, 81862, Control_c, 0, 64, 29
1, 81862, Control_c, 0, 67, 34
1, 81877, Control_c, 0, 64, 50
1, 81877, Control_c, 0, 67, 30
1, 81892, Control_c, 0, 64, 59
1, 81892, Control_c, 0, 67, 25
1, 81907, Control_c, 0, 64, 63
1, 81907, Control_c, 0, 67, 18
1, 81922, Control_c, 0, 64, 63
1, 81922, Control_c, 0, 67, 10
1, 81937, Control_c, 0, 64, 65
1, 81937, Control_c, 0, 67, 0
1, 81952, Control_c, 0, 64, 67
1, 81967, Control_c, 0, 64, 69
1, 81981, Control_c, 0, 64, 72
1, 81996, Control_c, 0, 64, 74
1, 82005, Note_off_c, 0, 66, 63
1, 82011, Control_c, 0, 64, 76
1, 82026, Control_c, 0, 64, 77
1, 82041, Control_c, 0, 64, 79
1, 82048, Note_off_c, 0, 71, 58
1, 82056, Control_c, 0, 64, 79
1, 82071, Note_off_c, 0, 55, 37
1, 82071, Control_c, 0, 64, 80
1, 82076, Note_off_c, 0, 62, 62
1, 82086, Control_c, 0, 64, 81
1, 82101, Control_c, 0, 64, 81
1, 82130, Control_c, 0, 64, 82
1, 82160, Control_c, 0, 64, 82
1, 82175, Control_c, 0, 64, 83
1, 82189, Control_c, 0, 64, 83
1, 82204, Control_c, 0, 64, 86
1, 82219, Control_c, 0, 64, 89
1, 82233, Control_c, 0, 64, 90
1, 82263, Control_c, 0, 64, 84
1, 82278, Control_c, 0, 64, 72
1, 82293, Control_c, 0, 64, 58
1, 82307, Control_c, 0, 64, 38
1, 82322, Control_c, 0, 64, 13
1, 82337, Control_c, 0, 64, 0
1, 82563, Note_on_c, 0, 62, 100
1, 82566, Note_on_c, 0, 83, 103
1, 82567, Note_on_c, 0, 55, 86
1, 82567, Note_on_c, 0, 71, 96
1, 82567, Note_on_c, 0, 77, 94
1, 82586, Note_off_c, 0, 77, 72
1, 82589, Note_off_c, 0, 71, 68
1, 82607, Note_off_c, 0, 62, 68
1, 82607, Note_off_c, 0, 83, 67
1, 82625, Note_off_c, 0, 55, 61
1, 82626, Control_c, 0, 64, 56
1, 82640, Control_c, 0, 64, 75
1, 82655, Control_c, 0, 64, 83
1, 82663, Note_on_c, 0, 72, 98
1, 82666, Note_on_c, 0, 84, 101
1, 82667, Note_on_c, 0, 79, 97
1, 82668, Note_on_c, 0, 64, 90
1, 82669, Note_on_c, 0, 57, 86
1, 82670, Control_c, 0, 64, 92
1, 82685, Control_c, 0, 64, 105
1, 82694, Note_off_c, 0, 79, 64
1, 82697, Note_off_c, 0, 72, 65
1, 82700, Control_c, 0, 64, 127
1, 82704, Note_off_c, 0, 84, 67
1, 82709, Note_off_c, 0, 64, 64
1, 82714, Note_off_c, 0, 57, 64
1, 82771, Note_on_c, 0, 65, 92
1, 82771, Note_on_c, 0, 74, 89
1, 82771, Note_on_c, 0, 86, 101
1, 82771, Note_on_c, 0, 81, 94
1, 82773, Note_on_c, 0, 59, 88
1, 82781, Note_on_c, 0, 72, 77
1, 82790, Control_c, 0, 64, 98
1, 82791, Note_off_c, 0, 81, 70
1, 82795, Note_off_c, 0, 65, 67
1, 82795, Note_off_c, 0, 74, 69
1, 82801, Note_off_c, 0, 72, 41
1, 82803, Note_off_c, 0, 59, 68
1, 82804, Control_c, 0, 64, 79
1, 82807, Note_off_c, 0, 86, 65
1, 82819, Control_c, 0, 64, 67
1, 82834, Control_c, 0, 64, 58
1, 82849, Control_c, 0, 64, 46
1, 82864, Control_c, 0, 64, 29
1, 82879, Control_c, 0, 64, 0
1, 82968, Note_on_c, 0, 67, 95
1, 82968, Note_on_c, 0, 76, 97
1, 82971, Note_on_c, 0, 83, 94
1, 82972, Note_on_c, 0, 88, 96
1, 82977, Note_on_c, 0, 60, 78
1, 82978, Note_on_c, 0, 84, 73
1, 82980, Note_on_c, 0, 57, 77
1, 82990, Note_off_c, 0, 76, 68
1, 82992, Note_off_c, 0, 83, 70
1, 82992, Note_off_c, 0, 67, 68
1, 82994, Note_off_c, 0, 84, 71
1, 82999, Note_off_c, 0, 60, 66
1, 82999, Note_off_c, 0, 88, 67
1, 83003, Note_off_c, 0, 57, 68
1, 83057, Note_on_c, 0, 86, 91
1, 83059, Note_on_c, 0, 81, 87
1, 83060, Note_on_c, 0, 59, 66
1, 83060, Note_on_c, 0, 74, 90
1, 83064, Note_on_c, 0, 65, 85
1, 83067, Note_on_c, 0, 83, 69
1, 83069, Note_on_c, 0, 55, 71
1, 83071, Control_c, 0, 64, 23
1, 83082, Note_off_c, 0, 81, 68
1, 83082, Note_off_c, 0, 83, 70
1, 83083, Note_on_c, 0, 57, 28
1, 83084, Note_off_c, 0, 74, 70
1, 83085, Note_off_c, 0, 65, 70
1, 83086, Control_c, 0, 64, 41
1, 83093, Note_off_c, 0, 59, 68
1, 83095, Note_off_c, 0, 55, 66
1, 83096, Note_off_c, 0, 86, 63
1, 83101, Control_c, 0, 64, 40
1, 83116, Control_c, 0, 64, 24
1, 83123, Note_off_c, 0, 57, 41
1, 83130, Control_c, 0, 64, 0
1, 83147, Note_on_c, 0, 84, 85
1, 83151, Note_on_c, 0, 72, 93
1, 83151, Note_on_c, 0, 79, 90
1, 83156, Note_on_c, 0, 81, 76
1, 83159, Note_on_c, 0, 64, 86
1, 83160, Note_on_c, 0, 57, 80
1, 83168, Note_on_c, 0, 53, 68
1, 83172, Note_on_c, 0, 55, 46
1, 83177, Note_off_c, 0, 72, 66
1, 83179, Note_off_c, 0, 79, 66
1, 83180, Note_off_c, 0, 81, 68
1, 83182, Note_off_c, 0, 64, 69
1, 83183, Note_on_c, 0, 74, 35
1, 83186, Note_off_c, 0, 57, 67
1, 83191, Note_off_c, 0, 84, 63
1, 83195, Note_off_c, 0, 53, 65
1, 83197, Note_off_c, 0, 55, 59
1, 83213, Note_off_c, 0, 74, 38
1, 83244, Note_on_c, 0, 83, 87
1, 83245, Note_on_c, 0, 77, 90
1, 83247, Note_on_c, 0, 62, 81
1, 83247, Note_on_c, 0, 71, 90
1, 83250, Note_on_c, 0, 55, 84
1, 83250, Note_on_c, 0, 79, 84
1, 83252, Note_on_c, 0, 52, 74
1, 83269, Note_off_c, 0, 71, 66
1, 83270, Note_off_c, 0, 62, 68
1, 83270, Note_off_c, 0, 79, 71
1, 83274, Note_off_c, 0, 55, 70
1, 83275, Note_off_c, 0, 77, 66
1, 83278, Note_off_c, 0, 52, 67
1, 83286, Note_off_c, 0, 83, 64
1, 83333, Note_on_c, 0, 53, 77
1, 83334, Note_on_c, 0, 50, 89
1, 83336, Note_on_c, 0, 60, 94
1, 83340, Note_on_c, 0, 69, 100
1, 83340, Note_on_c, 0, 76, 95
1, 83340, Note_on_c, 0, 81, 80
1, 83347, Note_on_c, 0, 79, 16
1, 83355, Note_on_c, 0, 77, 84
1, 83367, Note_off_c, 0, 60, 65
1, 83371, Note_off_c, 0, 53, 67
1, 83372, Note_off_c, 0, 79, 40
1, 83373, Note_off_c, 0, 69, 67
1, 83376, Note_off_c, 0, 50, 66
1, 83376, Note_off_c, 0, 77, 70
1, 83383, Note_off_c, 0, 76, 62
1, 83386, Note_off_c, 0, 81, 66
1, 83548, Note_on_c, 0, 81, 96
1, 83549, Note_on_c, 0, 69, 95
1, 83551, Note_on_c, 0, 76, 87
1, 83553, Note_on_c, 0, 53, 88
1, 83553, Note_on_c, 0, 60, 97
1, 83555, Note_on_c, 0, 50, 87
1, 83557, Note_on_c, 0, 77, 67
1, 83573, Note_off_c, 0, 69, 68
1, 83573, Note_off_c, 0, 76, 69
1, 83573, Note_off_c, 0, 60, 68
1, 83577, Note_off_c, 0, 50, 72
1, 83577, Note_off_c, 0, 53, 67
1, 83585, Note_off_c, 0, 77, 67
1, 83591, Note_off_c, 0, 81, 66
1, 83770, Note_on_c, 0, 55, 101
1, 83772, Note_on_c, 0, 71, 97
1, 83772, Note_on_c, 0, 83, 95
1, 83773, Note_on_c, 0, 62, 99
1, 83774, Note_on_c, 0, 77, 96
1, 83776, Note_on_c, 0, 81, 95
1, 83791, Control_c, 0, 64, 46
1, 83795, Note_off_c, 0, 71, 69
1, 83796, Note_off_c, 0, 62, 68
1, 83799, Note_off_c, 0, 77, 67
1, 83803, Note_off_c, 0, 55, 65
1, 83806, Control_c, 0, 64, 86
1, 83810, Note_off_c, 0, 83, 68
1, 83815, Note_off_c, 0, 81, 64
1, 83820, Control_c, 0, 64, 127
1, 84172, Note_on_c, 0, 62, 85
1, 84173, Note_on_c, 0, 77, 90
1, 84174, Note_on_c, 0, 71, 85
1, 84174, Note_on_c, 0, 83, 97
1, 84181, Note_on_c, 0, 55, 74
1, 84193, Note_off_c, 0, 77, 71
1, 84196, Note_off_c, 0, 71, 69
1, 84196, Note_off_c, 0, 62, 68
1, 84202, Note_off_c, 0, 55, 66
1, 84203, Note_off_c, 0, 83, 62
1, 84265, Note_on_c, 0, 57, 83
1, 84268, Note_on_c, 0, 79, 86
1, 84269, Note_on_c, 0, 72, 82
1, 84269, Note_on_c, 0, 84, 88
1, 84279, Note_on_c, 0, 64, 62
1, 84289, Note_off_c, 0, 79, 70
1, 84291, Note_off_c, 0, 57, 66
1, 84291, Note_off_c, 0, 84, 70
1, 84291, Note_off_c, 0, 72, 67
1, 84299, Note_off_c, 0, 64, 64
1, 84363, Note_on_c, 0, 74, 77
1, 84365, Note_on_c, 0, 86, 83
1, 84366, Note_on_c, 0, 81, 86
1, 84368, Note_on_c, 0, 65, 85
1, 84369, Note_on_c, 0, 59, 85
1, 84385, Note_off_c, 0, 81, 69
1, 84385, Note_off_c, 0, 86, 71
1, 84388, Note_off_c, 0, 74, 68
1, 84396, Note_off_c, 0, 65, 65
1, 84405, Poly_aftertouch_c, 0, 57, 127
1, 84412, Note_off_c, 0, 59, 67
1, 84448, Note_on_c, 0, 76, 87
1, 84448, Poly_aftertouch_c, 0, 57, 0
1, 84450, Control_c, 0, 64, 79
1, 84452, Note_on_c, 0, 83, 96
1, 84453, Note_on_c, 0, 88, 93
1, 84459, Note_on_c, 0, 67, 90
1, 84465, Control_c, 0, 64, 49
1, 84470, Note_on_c, 0, 57, 50
1, 84474, Note_off_c, 0, 83, 71
1, 84477, Note_off_c, 0, 76, 65
1, 84480, Control_c, 0, 64, 0
1, 84481, Note_off_c, 0, 88, 64
1, 84492, Note_off_c, 0, 57, 67
1, 84493, Note_off_c, 0, 67, 63
1, 84509, Control_c, 0, 64, 51
1, 84524, Control_c, 0, 64, 76
1, 84539, Control_c, 0, 64, 127
1, 84550, Note_on_c, 0, 76, 102
1, 84551, Note_on_c, 0, 83, 95
1, 84551, Note_on_c, 0, 88, 96
1, 84557, Note_on_c, 0, 57, 78
1, 84560, Note_on_c, 0, 65, 90
1, 84563, Note_on_c, 0, 84, 76
1, 84566, Note_on_c, 0, 86, 76
1, 84569, Note_on_c, 0, 67, 71
1, 84575, Note_on_c, 0, 55, 60
1, 84581, Note_off_c, 0, 84, 69
1, 84581, Note_off_c, 0, 86, 43
1, 84584, Note_off_c, 0, 67, 69
1, 84584, Note_off_c, 0, 83, 69
1, 84587, Note_off_c, 0, 76, 64
1, 84591, Note_off_c, 0, 65, 63
1, 84592, Note_off_c, 0, 57, 63
1, 84593, Note_off_c, 0, 88, 69
1, 84597, Note_off_c, 0, 55, 64
1, 84643, Note_on_c, 0, 86, 89
1, 84647, Note_on_c, 0, 74, 90
1, 84649, Note_on_c, 0, 81, 90
1, 84651, Note_on_c, 0, 65, 71
1, 84655, Note_on_c, 0, 64, 71
1, 84660, Note_on_c, 0, 55, 74
1, 84661, Note_on_c, 0, 83, 79
1, 84670, Note_on_c, 0, 53, 61
1, 84673, Note_off_c, 0, 83, 73
1, 84676, Note_off_c, 0, 65, 68
1, 84677, Note_off_c, 0, 81, 64
1, 84679, Note_off_c, 0, 64, 68
1, 84679, Note_off_c, 0, 74, 63
1, 84682, Note_off_c, 0, 55, 68
1, 84685, Note_off_c, 0, 86, 66
1, 84691, Note_off_c, 0, 53, 61
1, 84734, Note_on_c, 0, 84, 82
1, 84736, Note_on_c, 0, 72, 98
1, 84737, Note_on_c, 0, 79, 90
1, 84746, Note_on_c, 0, 62, 87
1, 84746, Note_on_c, 0, 64, 67
1, 84746, Note_on_c, 0, 81, 82
1, 84749, Note_on_c, 0, 52, 84
1, 84765, Note_off_c, 0, 81, 70
1, 84769, Note_off_c, 0, 64, 68
1, 84774, Note_on_c, 0, 53, 46
1, 84775, Note_off_c, 0, 53, 127
1, 84775, Note_off_c, 0, 62, 67
1, 84776, Note_off_c, 0, 79, 67
1, 84776, Note_off_c, 0, 84, 66
1, 84778, Note_off_c, 0, 52, 68
1, 84781, Note_off_c, 0, 72, 61
1, 84825, Note_on_c, 0, 77, 94
1, 84827, Note_on_c, 0, 83, 73
1, 84828, Note_on_c, 0, 71, 79
1, 84835, Control_c, 0, 64, 82
1, 84836, Note_on_c, 0, 81, 8
1, 84837, Note_off_c, 0, 81, 127
1, 84837, Note_on_c, 0, 79, 73
1, 84841, Note_on_c, 0, 60, 90
1, 84853, Note_on_c, 0, 50, 86
1, 84857, Note_off_c, 0, 71, 68
1, 84858, Control_c, 0, 64, 57
1, 84859, Note_off_c, 0, 79, 72
1, 84861, Note_off_c, 0, 83, 68
1, 84864, Note_off_c, 0, 77, 65
1, 84873, Control_c, 0, 64, 0
1, 84876, Note_off_c, 0, 60, 65
1, 84879, Note_off_c, 0, 50, 70
1, 84915, Note_on_c, 0, 81, 89
1, 84915, Note_on_c, 0, 69, 101
1, 84916, Note_on_c, 0, 76, 95
1, 84917, Control_c, 0, 64, 24
1, 84922, Note_on_c, 0, 50, 85
1, 84927, Note_on_c, 0, 77, 65
1, 84930, Note_on_c, 0, 60, 80
1, 84932, Control_c, 0, 64, 53
1, 84937, Note_on_c, 0, 59, 80
1, 84947, Control_c, 0, 64, 67
1, 84950, Note_off_c, 0, 77, 67
1, 84951, Note_off_c, 0, 69, 64
1, 84953, Note_off_c, 0, 76, 63
1, 84954, Note_off_c, 0, 60, 67
1, 84957, Note_off_c, 0, 81, 67
1, 84962, Control_c, 0, 64, 77
1, 84963, Note_off_c, 0, 50, 63
1, 84964, Note_off_c, 0, 59, 67
1, 84977, Control_c, 0, 64, 82
1, 84991, Control_c, 0, 64, 83
1, 85006, Control_c, 0, 64, 83
1, 85035, Control_c, 0, 64, 82
1, 85050, Control_c, 0, 64, 74
1, 85065, Control_c, 0, 64, 61
1, 85080, Control_c, 0, 64, 38
1, 85095, Control_c, 0, 64, 0
1, 85097, Poly_aftertouch_c, 0, 59, 0
1, 85116, Note_on_c, 0, 81, 95
1, 85118, Note_on_c, 0, 69, 87
1, 85119, Note_on_c, 0, 76, 83
1, 85123, Note_on_c, 0, 50, 88
1, 85125, Note_on_c, 0, 77, 77
1, 85128, Note_on_c, 0, 59, 69
1, 85144, Note_off_c, 0, 76, 68
1, 85145, Note_off_c, 0, 69, 68
1, 85149, Note_off_c, 0, 77, 70
1, 85155, Note_on_c, 0, 60, 49
1, 85156, Note_off_c, 0, 60, 127
1, 85159, Note_off_c, 0, 59, 70
1, 85166, Note_off_c, 0, 50, 64
1, 85169, Note_off_c, 0, 81, 64
1, 85315, Note_on_c, 0, 55, 99
1, 85318, Note_on_c, 0, 62, 89
1, 85321, Note_on_c, 0, 83, 95
1, 85326, Note_on_c, 0, 71, 85
1, 85326, Note_on_c, 0, 81, 93
1, 85327, Note_on_c, 0, 77, 82
1, 85333, Control_c, 0, 64, 59
1, 85340, Note_off_c, 0, 62, 70
1, 85342, Note_off_c, 0, 55, 66
1, 85346, Note_off_c, 0, 71, 70
1, 85348, Control_c, 0, 64, 74
1, 85348, Note_off_c, 0, 77, 70
1, 85349, Note_off_c, 0, 81, 64
1, 85354, Note_off_c, 0, 83, 66
1, 85359, Note_on_c, 0, 69, 33
1, 85360, Note_off_c, 0, 69, 127
1, 85363, Control_c, 0, 64, 85
1, 85378, Control_c, 0, 64, 97
1, 85392, Control_c, 0, 64, 113
1, 85395, Poly_aftertouch_c, 0, 69, 0
1, 85407, Control_c, 0, 64, 127
1, 85420, Poly_aftertouch_c, 0, 60, 0
1, 85426, Note_on_c, 0, 71, 17
1, 85426, Note_on_c, 0, 77, 20
1, 85427, Note_off_c, 0, 77, 127
1, 85452, Poly_aftertouch_c, 0, 62, 127
1, 85471, Note_off_c, 0, 71, 37
1, 85482, Poly_aftertouch_c, 0, 62, 0
1, 85682, Control_c, 0, 64, 91
1, 85696, Control_c, 0, 64, 67
1, 85709, Note_on_c, 0, 62, 88
1, 85711, Control_c, 0, 64, 49
1, 85714, Note_on_c, 0, 55, 77
1, 85714, Note_on_c, 0, 83, 97
1, 85716, Note_on_c, 0, 71, 92
1, 85717, Note_on_c, 0, 77, 89
1, 85726, Control_c, 0, 64, 43
1, 85735, Note_off_c, 0, 62, 67
1, 85735, Note_off_c, 0, 71, 69
1, 85736, Note_off_c, 0, 77, 72
1, 85741, Control_c, 0, 64, 56
1, 85744, Note_off_c, 0, 83, 62
1, 85747, Note_off_c, 0, 55, 66
1, 85754, Note_on_c, 0, 81, 23
1, 85755, Note_off_c, 0, 81, 127
1, 85756, Control_c, 0, 64, 69
1, 85771, Control_c, 0, 64, 85
1, 85786, Control_c, 0, 64, 119
1, 85793, Poly_aftertouch_c, 0, 81, 0
1, 85800, Control_c, 0, 64, 127
1, 85802, Note_on_c, 0, 57, 92
1, 85806, Note_on_c, 0, 84, 89
1, 85807, Note_on_c, 0, 72, 85
1, 85808, Note_on_c, 0, 64, 82
1, 85808, Note_on_c, 0, 79, 88
1, 85828, Note_off_c, 0, 79, 70
1, 85829, Note_off_c, 0, 84, 66
1, 85831, Note_off_c, 0, 72, 67
1, 85831, Note_off_c, 0, 64, 69
1, 85845, Note_off_c, 0, 57, 63
1, 85897, Note_on_c, 0, 59, 93
1, 85903, Note_on_c, 0, 74, 94
1, 85904, Note_on_c, 0, 65, 85
1, 85904, Note_on_c, 0, 81, 80
1, 85904, Note_on_c, 0, 86, 95
1, 85927, Note_off_c, 0, 65, 68
1, 85936, Note_off_c, 0, 74, 63
1, 85937, Note_off_c, 0, 59, 66
1, 85937, Note_off_c, 0, 81, 63
1, 85951, Note_off_c, 0, 86, 66
1, 85964, Control_c, 0, 64, 106
1, 85979, Control_c, 0, 64, 71
1, 85994, Control_c, 0, 64, 51
1, 86009, Control_c, 0, 64, 0
1, 86009, Note_on_c, 0, 65, 5
1, 86024, Note_off_c, 0, 65, 46
1, 86068, Control_c, 0, 64, 35
1, 86082, Control_c, 0, 64, 57
1, 86088, Note_on_c, 0, 67, 88
1, 86096, Note_on_c, 0, 76, 97
1, 86096, Note_on_c, 0, 57, 88
1, 86097, Control_c, 0, 64, 70
1, 86099, Note_on_c, 0, 83, 93
1, 86101, Note_on_c, 0, 88, 92
1, 86107, Note_on_c, 0, 84, 70
1, 86112, Control_c, 0, 64, 82
1, 86119, Note_off_c, 0, 76, 66
1, 86119, Note_off_c, 0, 83, 70
1, 86120, Note_off_c, 0, 67, 63
1, 86122, Note_off_c, 0, 57, 67
1, 86122, Note_off_c, 0, 84, 71
1, 86122, Note_off_c, 0, 88, 70
1, 86127, Control_c, 0, 64, 91
1, 86142, Control_c, 0, 64, 93
1, 86156, Control_c, 0, 64, 95
1, 86171, Control_c, 0, 64, 97
1, 86186, Control_c, 0, 64, 99
1, 86187, Note_on_c, 0, 86, 92
1, 86189, Note_on_c, 0, 65, 72
1, 86190, Note_on_c, 0, 74, 84
1, 86191, Note_on_c, 0, 83, 60
1, 86192, Note_on_c, 0, 81, 80
1, 86200, Note_on_c, 0, 55, 68
1, 86201, Control_c, 0, 64, 101
1, 86210, Note_off_c, 0, 83, 63
1, 86213, Note_off_c, 0, 81, 69
1, 86213, Note_off_c, 0, 86, 63
1, 86215, Note_off_c, 0, 74, 68
1, 86216, Note_off_c, 0, 65, 65
1, 86216, Control_c, 0, 64, 103
1, 86218, Note_off_c, 0, 55, 67
1, 86227, Note_on_c, 0, 76, 30
1, 86230, Control_c, 0, 64, 104
1, 86245, Note_on_c, 0, 53, 13
1, 86245, Control_c, 0, 64, 110
1, 86260, Control_c, 0, 64, 127
1, 86263, Note_off_c, 0, 76, 52
1, 86264, Note_off_c, 0, 53, 0
1, 86270, Note_on_c, 0, 84, 81
1, 86273, Note_on_c, 0, 81, 67
1, 86275, Note_on_c, 0, 64, 70
1, 86276, Note_on_c, 0, 72, 87
1, 86277, Note_on_c, 0, 79, 87
1, 86281, Note_on_c, 0, 53, 29
1, 86292, Note_off_c, 0, 81, 66
1, 86300, Note_off_c, 0, 79, 69
1, 86302, Note_off_c, 0, 72, 65
1, 86313, Note_off_c, 0, 84, 65
1, 86319, Control_c, 0, 64, 105
1, 86320, Note_off_c, 0, 53, 62
1, 86323, Note_off_c, 0, 64, 65
1, 86334, Control_c, 0, 64, 73
1, 86356, Control_c, 0, 64, 55
1, 86369, Poly_aftertouch_c, 0, 74, 0
1, 86371, Control_c, 0, 64, 17
1, 86374, Note_on_c, 0, 83, 91
1, 86377, Note_on_c, 0, 71, 91
1, 86378, Note_on_c, 0, 77, 84
1, 86380, Note_on_c, 0, 79, 86
1, 86385, Note_on_c, 0, 62, 91
1, 86386, Control_c, 0, 64, 0
1, 86391, Note_on_c, 0, 52, 84
1, 86401, Note_off_c, 0, 79, 70
1, 86403, Note_off_c, 0, 71, 67
1, 86407, Note_off_c, 0, 77, 67
1, 86409, Note_off_c, 0, 62, 70
1, 86414, Note_off_c, 0, 52, 67
1, 86415, Note_off_c, 0, 83, 66
1, 86430, Control_c, 0, 64, 47
1, 86445, Control_c, 0, 64, 65
1, 86460, Control_c, 0, 64, 78
1, 86475, Note_on_c, 0, 60, 101
1, 86475, Control_c, 0, 64, 88
1, 86476, Note_on_c, 0, 69, 98
1, 86476, Note_on_c, 0, 76, 88
1, 86477, Note_on_c, 0, 81, 90
1, 86478, Note_on_c, 0, 50, 93
1, 86482, Note_on_c, 0, 77, 87
1, 86489, Control_c, 0, 64, 94
1, 86499, Note_off_c, 0, 69, 66
1, 86504, Note_off_c, 0, 77, 71
1, 86504, Note_off_c, 0, 50, 69
1, 86504, Control_c, 0, 64, 94
1, 86507, Note_off_c, 0, 60, 67
1, 86507, Note_off_c, 0, 76, 64
1, 86514, Note_off_c, 0, 81, 62
1, 86579, Control_c, 0, 64, 92
1, 86594, Control_c, 0, 64, 79
1, 86608, Control_c, 0, 64, 65
1, 86623, Control_c, 0, 64, 51
1, 86653, Control_c, 0, 64, 59
1, 86668, Control_c, 0, 64, 67
1, 86678, Note_on_c, 0, 81, 95
1, 86680, Note_on_c, 0, 69, 90
1, 86680, Note_on_c, 0, 76, 88
1, 86681, Note_on_c, 0, 50, 93
1, 86682, Note_on_c, 0, 60, 92
1, 86682, Control_c, 0, 64, 74
1, 86683, Note_on_c, 0, 77, 81
1, 86697, Control_c, 0, 64, 83
1, 86709, Note_off_c, 0, 69, 66
1, 86710, Note_off_c, 0, 76, 62
1, 86712, Control_c, 0, 64, 91
1, 86718, Note_off_c, 0, 77, 59
1, 86728, Control_c, 0, 64, 92
1, 86733, Note_off_c, 0, 60, 63
1, 86734, Note_off_c, 0, 50, 61
1, 86737, Note_off_c, 0, 81, 64
1, 86743, Control_c, 0, 64, 89
1, 86758, Control_c, 0, 64, 73
1, 86772, Control_c, 0, 64, 55
1, 86787, Control_c, 0, 64, 0
1, 86871, Note_on_c, 0, 83, 95
1, 86874, Note_on_c, 0, 55, 98
1, 86874, Note_on_c, 0, 62, 93
1, 86875, Note_on_c, 0, 71, 92
1, 86875, Note_on_c, 0, 77, 93
1, 86876, Control_c, 0, 64, 50
1, 86878, Note_on_c, 0, 81, 88
1, 86891, Control_c, 0, 64, 68
1, 86892, Note_off_c, 0, 71, 72
1, 86893, Note_off_c, 0, 77, 74
1, 86895, Note_off_c, 0, 62, 71
1, 86898, Note_off_c, 0, 55, 67
1, 86902, Note_off_c, 0, 81, 61
1, 86905, Control_c, 0, 64, 81
1, 86906, Note_off_c, 0, 83, 68
1, 86920, Control_c, 0, 64, 93
1, 86935, Control_c, 0, 64, 97
1, 86950, Control_c, 0, 64, 98
1, 86994, Control_c, 0, 64, 96
1, 87009, Control_c, 0, 64, 84
1, 87023, Control_c, 0, 64, 66
1, 87026, Poly_aftertouch_c, 0, 71, 0
1, 87038, Control_c, 0, 64, 49
1, 87053, Control_c, 0, 64, 0
1, 87071, Note_on_c, 0, 83, 98
1, 87072, Note_on_c, 0, 55, 88
1, 87074, Note_on_c, 0, 77, 85
1, 87075, Note_on_c, 0, 71, 87
1, 87077, Note_on_c, 0, 57, 89
1, 87077, Note_on_c, 0, 62, 86
1, 87082, Note_on_c, 0, 81, 73
1, 87092, Note_off_c, 0, 71, 72
1, 87101, Note_off_c, 0, 77, 71
1, 87105, Note_off_c, 0, 81, 69
1, 87106, Note_off_c, 0, 55, 69
1, 87107, Note_off_c, 0, 57, 67
1, 87109, Note_off_c, 0, 62, 69
1, 87117, Note_off_c, 0, 83, 67
1, 87253, Control_c, 0, 64, 42
1, 87268, Control_c, 0, 64, 61
1, 87271, Note_on_c, 0, 62, 83
1, 87273, Note_on_c, 0, 83, 96
1, 87274, Note_on_c, 0, 55, 81
1, 87274, Note_on_c, 0, 71, 85
1, 87277, Note_on_c, 0, 77, 76
1, 87283, Control_c, 0, 64, 61
1, 87294, Note_off_c, 0, 71, 69
1, 87295, Note_off_c, 0, 62, 70
1, 87297, Control_c, 0, 64, 54
1, 87298, Note_off_c, 0, 83, 64
1, 87302, Note_off_c, 0, 77, 69
1, 87306, Note_off_c, 0, 55, 67
1, 87312, Control_c, 0, 64, 46
1, 87327, Control_c, 0, 64, 34
1, 87342, Control_c, 0, 64, 13
1, 87357, Control_c, 0, 64, 0
1, 87363, Note_on_c, 0, 84, 89
1, 87366, Note_on_c, 0, 72, 85
1, 87366, Note_on_c, 0, 57, 79
1, 87368, Note_on_c, 0, 79, 83
1, 87372, Control_c, 0, 64, 15
1, 87372, Note_on_c, 0, 64, 77
1, 87387, Control_c, 0, 64, 40
1, 87389, Note_off_c, 0, 79, 70
1, 87390, Note_off_c, 0, 72, 67
1, 87393, Note_off_c, 0, 57, 69
1, 87395, Note_off_c, 0, 64, 69
1, 87402, Control_c, 0, 64, 56
1, 87407, Note_off_c, 0, 84, 65
1, 87416, Control_c, 0, 64, 64
1, 87431, Control_c, 0, 64, 65
1, 87461, Note_on_c, 0, 74, 79
1, 87461, Note_on_c, 0, 86, 84
1, 87464, Note_on_c, 0, 81, 81
1, 87473, Note_on_c, 0, 59, 83
1, 87473, Note_on_c, 0, 65, 77
1, 87484, Note_off_c, 0, 86, 68
1, 87485, Note_off_c, 0, 74, 69
1, 87485, Note_off_c, 0, 81, 68
1, 87496, Note_off_c, 0, 65, 67
1, 87503, Note_off_c, 0, 59, 67
1, 87521, Control_c, 0, 64, 63
1, 87536, Control_c, 0, 64, 52
1, 87541, Poly_aftertouch_c, 0, 64, 0
1, 87543, Note_on_c, 0, 88, 92
1, 87545, Note_on_c, 0, 76, 88
1, 87545, Note_on_c, 0, 83, 87
1, 87551, Control_c, 0, 64, 0
1, 87571, Note_off_c, 0, 76, 66
1, 87571, Note_off_c, 0, 83, 68
1, 87573, Note_on_c, 0, 67, 53
1, 87584, Note_off_c, 0, 88, 67
1, 87595, Note_off_c, 0, 67, 60
1, 87633, Note_on_c, 0, 65, 82
1, 87644, Note_on_c, 0, 55, 89
1, 87646, Note_on_c, 0, 74, 90
1, 87647, Note_on_c, 0, 86, 100
1, 87648, Note_on_c, 0, 81, 83
1, 87654, Control_c, 0, 64, 56
1, 87658, Note_on_c, 0, 83, 75
1, 87669, Control_c, 0, 64, 74
1, 87672, Note_off_c, 0, 55, 67
1, 87677, Note_off_c, 0, 74, 64
1, 87679, Note_off_c, 0, 65, 64
1, 87680, Note_off_c, 0, 83, 69
1, 87684, Control_c, 0, 64, 85
1, 87688, Note_off_c, 0, 81, 63
1, 87690, Note_on_c, 0, 57, 19
1, 87691, Note_off_c, 0, 57, 127
1, 87692, Note_off_c, 0, 86, 66
1, 87699, Control_c, 0, 64, 96
1, 87714, Control_c, 0, 64, 106
1, 87728, Control_c, 0, 64, 119
1, 87741, Poly_aftertouch_c, 0, 57, 0
1, 87743, Control_c, 0, 64, 127
1, 87852, Note_on_c, 0, 84, 90
1, 87854, Note_on_c, 0, 64, 81
1, 87856, Note_on_c, 0, 72, 84
1, 87858, Note_on_c, 0, 79, 78
1, 87863, Note_on_c, 0, 53, 81
1, 87865, Note_on_c, 0, 81, 63
1, 87873, Note_off_c, 0, 79, 71
1, 87873, Note_off_c, 0, 84, 68
1, 87878, Note_off_c, 0, 64, 69
1, 87879, Note_off_c, 0, 72, 64
1, 87883, Note_off_c, 0, 81, 64
1, 87887, Note_off_c, 0, 53, 66
1, 87899, Note_on_c, 0, 74, 10
1, 87930, Note_on_c, 0, 83, 86
1, 87937, Note_on_c, 0, 79, 81
1, 87938, Note_on_c, 0, 77, 88
1, 87940, Note_on_c, 0, 71, 81
1, 87942, Note_off_c, 0, 74, 40
1, 87944, Note_on_c, 0, 62, 87
1, 87948, Note_on_c, 0, 52, 83
1, 87953, Note_on_c, 0, 72, 39
1, 87958, Control_c, 0, 64, 110
1, 87959, Note_off_c, 0, 79, 69
1, 87962, Note_off_c, 0, 71, 70
1, 87964, Note_off_c, 0, 77, 66
1, 87968, Note_off_c, 0, 62, 70
1, 87971, Note_off_c, 0, 52, 67
1, 87973, Note_off_c, 0, 72, 61
1, 87973, Control_c, 0, 64, 72
1, 87974, Note_off_c, 0, 83, 67
1, 87988, Control_c, 0, 64, 49
1, 88002, Control_c, 0, 64, 0
1, 88031, Note_on_c, 0, 81, 89
1, 88032, Control_c, 0, 64, 24
1, 88034, Note_on_c, 0, 69, 93
1, 88034, Note_on_c, 0, 76, 89
1, 88035, Note_on_c, 0, 60, 97
1, 88039, Note_on_c, 0, 50, 91
1, 88041, Note_on_c, 0, 77, 78
1, 88047, Control_c, 0, 64, 56
1, 88061, Note_off_c, 0, 69, 66
1, 88061, Control_c, 0, 64, 72
1, 88066, Note_off_c, 0, 77, 69
1, 88070, Note_off_c, 0, 50, 67
1, 88075, Note_off_c, 0, 60, 64
1, 88075, Note_off_c, 0, 76, 64
1, 88075, Note_off_c, 0, 81, 66
1, 88076, Control_c, 0, 64, 85
1, 88091, Control_c, 0, 64, 97
1, 88106, Control_c, 0, 64, 102
1, 88121, Control_c, 0, 64, 103
1, 88135, Control_c, 0, 64, 104
1, 88230, Poly_aftertouch_c, 0, 77, 0
1, 88231, Note_on_c, 0, 50, 88
1, 88231, Note_on_c, 0, 60, 91
1, 88231, Note_on_c, 0, 81, 98
1, 88233, Note_on_c, 0, 69, 94
1, 88235, Note_on_c, 0, 76, 88
1, 88236, Note_on_c, 0, 77, 79
1, 88254, Control_c, 0, 64, 104
1, 88261, Note_off_c, 0, 76, 65
1, 88272, Note_off_c, 0, 69, 64
1, 88276, Note_off_c, 0, 60, 62
1, 88281, Note_off_c, 0, 50, 67
1, 88284, Control_c, 0, 64, 105
1, 88299, Control_c, 0, 64, 106
1, 88303, Note_off_c, 0, 77, 58
1, 88314, Control_c, 0, 64, 107
1, 88320, Note_off_c, 0, 81, 60
1, 88344, Control_c, 0, 64, 98
1, 88358, Control_c, 0, 64, 72
1, 88373, Control_c, 0, 64, 45
1, 88388, Control_c, 0, 64, 0
1, 88427, Note_on_c, 0, 83, 103
1, 88433, Note_on_c, 0, 77, 98
1, 88433, Note_on_c, 0, 71, 96
1, 88436, Note_on_c, 0, 81, 92
1, 88439, Note_on_c, 0, 55, 89
1, 88441, Note_on_c, 0, 62, 90
1, 88454, Note_on_c, 0, 56, 63
1, 88463, Control_c, 0, 64, 56
1, 88464, Note_off_c, 0, 71, 64
1, 88467, Note_off_c, 0, 56, 42
1, 88471, Note_off_c, 0, 77, 68
1, 88472, Note_off_c, 0, 62, 64
1, 88477, Control_c, 0, 64, 72
1, 88483, Note_off_c, 0, 81, 63
1, 88484, Note_off_c, 0, 55, 65
1, 88492, Control_c, 0, 64, 85
1, 88496, Note_off_c, 0, 83, 66
1, 88507, Control_c, 0, 64, 103
1, 88522, Control_c, 0, 64, 127
1, 88545, Poly_aftertouch_c, 0, 53, 0
1, 88600, Poly_aftertouch_c, 0, 53, 0
1, 88650, Note_on_c, 0, 62, 84
1, 88653, Note_on_c, 0, 83, 105
1, 88654, Note_on_c, 0, 55, 91
1, 88657, Note_on_c, 0, 71, 88
1, 88658, Note_on_c, 0, 77, 87
1, 88661, Note_on_c, 0, 81, 88
1, 88662, Note_on_c, 0, 72, 82
1, 88671, Note_off_c, 0, 62, 70
1, 88678, Note_off_c, 0, 77, 72
1, 88680, Note_off_c, 0, 81, 68
1, 88680, Note_off_c, 0, 71, 65
1, 88686, Note_off_c, 0, 72, 68
1, 88686, Note_off_c, 0, 83, 67
1, 88691, Note_off_c, 0, 55, 63
1, 88716, Note_on_c, 0, 84, 12
1, 88737, Control_c, 0, 64, 87
1, 88742, Note_on_c, 0, 81, 20
1, 88743, Note_off_c, 0, 81, 127
1, 88744, Note_off_c, 0, 84, 42
1, 88751, Control_c, 0, 64, 62
1, 88766, Control_c, 0, 64, 30
1, 88781, Control_c, 0, 64, 0
1, 88782, Poly_aftertouch_c, 0, 62, 0
1, 88895, Note_on_c, 0, 55, 103
1, 88902, Note_on_c, 0, 91, 88
1, 88904, Note_on_c, 0, 43, 93
1, 88914, Control_c, 0, 64, 23
1, 88926, Note_off_c, 0, 43, 66
1, 88929, Note_on_c, 0, 44, 49
1, 88930, Note_off_c, 0, 44, 127
1, 88930, Note_off_c, 0, 55, 69
1, 88930, Control_c, 0, 64, 84
1, 88944, Control_c, 0, 64, 127
1, 88965, Poly_aftertouch_c, 0, 44, 0
1, 88975, Note_on_c, 0, 93, 72
1, 88980, Note_on_c, 0, 95, 77
1, 88990, Note_off_c, 0, 91, 64
1, 89005, Note_off_c, 0, 95, 66
1, 89011, Note_on_c, 0, 43, 10
1, 89028, Note_off_c, 0, 43, 38
1, 89032, Note_off_c, 0, 93, 66
1, 89052, Note_on_c, 0, 72, 90
1, 89059, Note_on_c, 0, 81, 80
1, 89059, Note_on_c, 0, 71, 73
1, 89060, Note_on_c, 0, 67, 74
1, 89071, Note_on_c, 0, 64, 52
1, 89074, Note_off_c, 0, 72, 68
1, 89078, Note_off_c, 0, 71, 66
1, 89091, Note_off_c, 0, 67, 65
1, 89094, Note_off_c, 0, 64, 62
1, 89109, Note_off_c, 0, 81, 65
1, 89161, Note_on_c, 0, 81, 92
1, 89166, Note_on_c, 0, 74, 100
1, 89174, Note_on_c, 0, 72, 61
1, 89175, Note_on_c, 0, 65, 85
1, 89176, Note_on_c, 0, 69, 81
1, 89187, Note_off_c, 0, 81, 66
1, 89195, Poly_aftertouch_c, 0, 43, 0
1, 89199, Note_off_c, 0, 72, 66
1, 89205, Note_off_c, 0, 65, 61
1, 89207, Note_off_c, 0, 74, 68
1, 89211, Note_off_c, 0, 69, 64
1, 89270, Poly_aftertouch_c, 0, 82, 0
1, 89353, Note_on_c, 0, 76, 98
1, 89366, Note_on_c, 0, 81, 93
1, 89366, Note_on_c, 0, 69, 75
1, 89370, Note_on_c, 0, 71, 60
1, 89372, Note_on_c, 0, 67, 63
1, 89380, Note_off_c, 0, 69, 75
1, 89386, Note_off_c, 0, 71, 65
1, 89386, Note_off_c, 0, 76, 62
1, 89388, Note_off_c, 0, 67, 68
1, 89402, Note_off_c, 0, 81, 67
1, 89457, Note_on_c, 0, 69, 79
1, 89457, Note_on_c, 0, 74, 94
1, 89459, Note_on_c, 0, 71, 76
1, 89467, Note_on_c, 0, 65, 70
1, 89469, Note_on_c, 0, 67, 62
1, 89470, Note_off_c, 0, 67, 127
1, 89474, Note_off_c, 0, 69, 69
1, 89485, Note_off_c, 0, 71, 68
1, 89485, Note_off_c, 0, 74, 64
1, 89492, Note_off_c, 0, 65, 67
1, 89545, Note_on_c, 0, 81, 82
1, 89554, Note_on_c, 0, 67, 84
1, 89558, Note_on_c, 0, 69, 62
1, 89560, Note_on_c, 0, 72, 87
1, 89564, Note_on_c, 0, 64, 71
1, 89564, Note_on_c, 0, 65, 53
1, 89566, Note_off_c, 0, 65, 46
1, 89571, Note_on_c, 0, 74, 59
1, 89577, Note_off_c, 0, 67, 67
1, 89581, Note_off_c, 0, 81, 65
1, 89583, Note_off_c, 0, 72, 67
1, 89584, Note_off_c, 0, 69, 68
1, 89587, Note_off_c, 0, 64, 68
1, 89589, Note_off_c, 0, 74, 67
1, 89643, Note_on_c, 0, 71, 89
1, 89647, Note_on_c, 0, 65, 85
1, 89647, Note_on_c, 0, 67, 66
1, 89651, Note_on_c, 0, 62, 81
1, 89657, Note_on_c, 0, 64, 54
1, 89675, Note_off_c, 0, 65, 64
1, 89680, Note_off_c, 0, 62, 69
1, 89682, Note_off_c, 0, 67, 67
1, 89682, Note_off_c, 0, 71, 64
1, 89685, Note_off_c, 0, 64, 59
1, 89722, Control_c, 0, 64, 84
1, 89737, Control_c, 0, 64, 65
1, 89738, Note_on_c, 0, 69, 93
1, 89744, Note_on_c, 0, 60, 86
1, 89747, Note_on_c, 0, 65, 76
1, 89748, Note_on_c, 0, 64, 85
1, 89750, Note_on_c, 0, 86, 81
1, 89752, Control_c, 0, 64, 65
1, 89755, Note_on_c, 0, 84, 89
1, 89767, Control_c, 0, 64, 75
1, 89776, Note_off_c, 0, 60, 64
1, 89777, Note_off_c, 0, 64, 65
1, 89780, Note_off_c, 0, 65, 61
1, 89781, Control_c, 0, 64, 103
1, 89783, Note_on_c, 0, 62, 21
1, 89783, Note_off_c, 0, 84, 63
1, 89786, Note_off_c, 0, 69, 67
1, 89795, Note_off_c, 0, 86, 65
1, 89796, Control_c, 0, 64, 127
1, 89819, Note_off_c, 0, 62, 43
1, 89834, Note_on_c, 0, 88, 96
1, 89892, Note_off_c, 0, 88, 64
1, 89914, Note_on_c, 0, 69, 76
1, 89914, Note_on_c, 0, 65, 86
1, 89920, Note_on_c, 0, 64, 82
1, 89925, Note_on_c, 0, 81, 99
1, 89935, Note_off_c, 0, 69, 73
1, 89935, Note_on_c, 0, 59, 59
1, 89938, Note_on_c, 0, 60, 68
1, 89939, Note_off_c, 0, 65, 67
1, 89948, Note_off_c, 0, 64, 68
1, 89963, Note_off_c, 0, 59, 67
1, 89963, Note_off_c, 0, 60, 66
1, 89969, Note_off_c, 0, 81, 65
1, 90013, Note_on_c, 0, 93, 78
1, 90031, Poly_aftertouch_c, 0, 85, 0
1, 90043, Poly_aftertouch_c, 0, 69, 127
1, 90045, Note_on_c, 0, 43, 87
1, 90046, Note_on_c, 0, 55, 85
1, 90049, Note_on_c, 0, 53, 84
1, 90058, Note_off_c, 0, 93, 0
1, 90064, Control_c, 0, 64, 93
1, 90067, Note_on_c, 0, 42, 48
1, 90069, Note_off_c, 0, 55, 67
1, 90072, Note_off_c, 0, 53, 66
1, 90074, Note_off_c, 0, 43, 66
1, 90078, Poly_aftertouch_c, 0, 69, 0
1, 90078, Control_c, 0, 64, 55
1, 90101, Control_c, 0, 64, 0
1, 90102, Poly_aftertouch_c, 0, 93, 127
1, 90105, Note_off_c, 0, 42, 55
1, 90131, Poly_aftertouch_c, 0, 93, 0
1, 90138, Note_on_c, 0, 79, 98
1, 90145, Control_c, 0, 64, 44
1, 90159, Note_on_c, 0, 71, 103
1, 90160, Control_c, 0, 64, 76
1, 90164, Note_on_c, 0, 69, 93
1, 90168, Note_on_c, 0, 65, 81
1, 90169, Note_on_c, 0, 62, 86
1, 90175, Control_c, 0, 64, 100
1, 90190, Control_c, 0, 64, 127
1, 90293, Note_off_c, 0, 79, 64
1, 90341, Note_off_c, 0, 71, 61
1, 90343, Note_on_c, 0, 77, 89
1, 90345, Note_off_c, 0, 69, 65
1, 90354, Note_off_c, 0, 62, 63
1, 90361, Note_off_c, 0, 65, 63
1, 90418, Note_off_c, 0, 77, 66
1, 90425, Note_on_c, 0, 79, 92
1, 90494, Note_off_c, 0, 79, 66
1, 90516, Note_on_c, 0, 81, 93
1, 90529, Note_on_c, 0, 71, 95
1, 90535, Note_on_c, 0, 65, 81
1, 90535, Note_on_c, 0, 69, 82
1, 90547, Note_on_c, 0, 62, 61
1, 90549, Note_off_c, 0, 71, 71
1, 90554, Note_off_c, 0, 81, 67
1, 90559, Note_off_c, 0, 65, 69
1, 90563, Note_off_c, 0, 69, 68
1, 90572, Note_off_c, 0, 62, 60
1, 90615, Note_on_c, 0, 71, 82
1, 90615, Note_on_c, 0, 72, 96
1, 90621, Note_on_c, 0, 67, 89
1, 90623, Note_on_c, 0, 64, 78
1, 90641, Note_off_c, 0, 71, 66
1, 90645, Note_off_c, 0, 67, 69
1, 90648, Note_off_c, 0, 72, 63
1, 90649, Note_off_c, 0, 64, 68
1, 90714, Note_on_c, 0, 76, 106
1, 90724, Note_on_c, 0, 65, 69
1, 90725, Note_on_c, 0, 69, 70
1, 90731, Note_on_c, 0, 81, 75
1, 90731, Note_on_c, 0, 83, 74
1, 90736, Note_on_c, 0, 67, 66
1, 90740, Note_on_c, 0, 72, 53
1, 90743, Note_off_c, 0, 69, 66
1, 90746, Note_on_c, 0, 71, 37
1, 90747, Note_off_c, 0, 76, 67
1, 90754, Note_off_c, 0, 81, 68
1, 90755, Note_off_c, 0, 83, 68
1, 90756, Note_off_c, 0, 65, 65
1, 90757, Note_off_c, 0, 67, 61
1, 90759, Note_off_c, 0, 72, 62
1, 90766, Note_off_c, 0, 71, 48
1, 90807, Note_on_c, 0, 76, 110
1, 90815, Note_on_c, 0, 67, 91
1, 90822, Note_on_c, 0, 71, 77
1, 90829, Note_on_c, 0, 72, 66
1, 90845, Note_off_c, 0, 71, 68
1, 90852, Note_off_c, 0, 67, 66
1, 90853, Note_off_c, 0, 76, 67
1, 90856, Note_off_c, 0, 72, 64
1, 90912, Note_on_c, 0, 76, 109
1, 90915, Note_on_c, 0, 83, 99
1, 90921, Note_on_c, 0, 71, 79
1, 90925, Note_on_c, 0, 67, 84
1, 90931, Note_on_c, 0, 72, 68
1, 90934, Note_on_c, 0, 69, 47
1, 90934, Note_off_c, 0, 71, 73
1, 90946, Note_off_c, 0, 67, 70
1, 90949, Note_off_c, 0, 76, 65
1, 90958, Note_off_c, 0, 83, 66
1, 90958, Note_off_c, 0, 69, 63
1, 90960, Note_off_c, 0, 72, 65
1, 91005, Note_on_c, 0, 74, 96
1, 91011, Note_on_c, 0, 67, 58
1, 91011, Note_on_c, 0, 95, 90
1, 91011, Note_on_c, 0, 71, 63
1, 91013, Note_on_c, 0, 65, 70
1, 91016, Note_on_c, 0, 69, 82
1, 91029, Note_off_c, 0, 67, 54
1, 91030, Note_off_c, 0, 69, 74
1, 91030, Note_off_c, 0, 71, 64
1, 91034, Note_off_c, 0, 74, 63
1, 91040, Note_off_c, 0, 65, 66
1, 91088, Note_on_c, 0, 93, 92
1, 91095, Note_on_c, 0, 72, 93
1, 91101, Note_on_c, 0, 69, 67
1, 91103, Note_on_c, 0, 67, 65
1, 91110, Note_on_c, 0, 64, 69
1, 91111, Note_on_c, 0, 65, 65
1, 91115, Note_off_c, 0, 95, 67
1, 91125, Note_off_c, 0, 67, 62
1, 91126, Note_off_c, 0, 72, 63
1, 91131, Note_off_c, 0, 69, 68
1, 91131, Note_off_c, 0, 64, 65
1, 91137, Note_off_c, 0, 65, 60
1, 91178, Note_on_c, 0, 71, 87
1, 91182, Note_on_c, 0, 88, 74
1, 91189, Note_on_c, 0, 62, 71
1, 91190, Note_off_c, 0, 93, 62
1, 91191, Note_on_c, 0, 67, 76
1, 91194, Note_on_c, 0, 89, 65
1, 91210, Note_on_c, 0, 65, 60
1, 91213, Note_off_c, 0, 89, 64
1, 91214, Note_off_c, 0, 71, 62
1, 91214, Note_off_c, 0, 67, 68
1, 91216, Note_off_c, 0, 62, 67
1, 91225, Note_on_c, 0, 64, 19
1, 91231, Note_off_c, 0, 88, 68
1, 91232, Note_off_c, 0, 65, 60
1, 91250, Control_c, 0, 64, 78
1, 91262, Note_on_c, 0, 86, 92
1, 91262, Note_off_c, 0, 64, 0
1, 91264, Control_c, 0, 64, 45
1, 91270, Note_on_c, 0, 69, 94
1, 91277, Note_on_c, 0, 60, 80
1, 91279, Control_c, 0, 64, 0
1, 91280, Note_on_c, 0, 64, 57
1, 91285, Note_on_c, 0, 65, 74
1, 91289, Note_on_c, 0, 62, 56
1, 91290, Note_off_c, 0, 62, 127
1, 91303, Note_off_c, 0, 86, 67
1, 91307, Note_off_c, 0, 60, 65
1, 91309, Control_c, 0, 64, 53
1, 91311, Note_off_c, 0, 65, 67
1, 91315, Note_off_c, 0, 64, 67
1, 91324, Control_c, 0, 64, 76
1, 91324, Note_off_c, 0, 69, 64
1, 91339, Control_c, 0, 64, 127
1, 91339, Note_on_c, 0, 88, 83
1, 91393, Note_off_c, 0, 88, 70
1, 91406, Note_on_c, 0, 93, 90
1, 91432, Note_on_c, 0, 65, 54
1, 91438, Note_on_c, 0, 64, 85
1, 91440, Note_on_c, 0, 69, 82
1, 91447, Note_on_c, 0, 60, 77
1, 91450, Note_off_c, 0, 93, 66
1, 91459, Note_off_c, 0, 69, 72
1, 91468, Note_on_c, 0, 81, 94
1, 91468, Note_off_c, 0, 65, 65
1, 91473, Note_off_c, 0, 64, 66
1, 91476, Note_off_c, 0, 60, 64
1, 91522, Note_on_c, 0, 69, 27
1, 91527, Note_off_c, 0, 81, 65
1, 91551, Note_off_c, 0, 69, 54
1, 91562, Note_on_c, 0, 43, 86
1, 91571, Note_on_c, 0, 55, 71
1, 91581, Note_on_c, 0, 53, 56
1, 91581, Note_off_c, 0, 43, 66
1, 91597, Note_off_c, 0, 55, 65
1, 91612, Note_off_c, 0, 53, 59
1, 91658, Control_c, 0, 64, 77
1, 91665, Note_on_c, 0, 81, 101
1, 91673, Control_c, 0, 64, 38
1, 91685, Note_on_c, 0, 71, 103
1, 91686, Note_off_c, 0, 81, 70
1, 91688, Control_c, 0, 64, 0
1, 91688, Note_on_c, 0, 69, 88
1, 91692, Note_on_c, 0, 65, 83
1, 91694, Note_on_c, 0, 62, 82
1, 91717, Control_c, 0, 64, 52
1, 91732, Control_c, 0, 64, 78
1, 91747, Control_c, 0, 64, 127
1, 91865, Note_on_c, 0, 81, 98
1, 91904, Note_off_c, 0, 81, 66
1, 91943, Note_off_c, 0, 69, 65
1, 91946, Note_off_c, 0, 71, 64
1, 91952, Note_off_c, 0, 65, 63
1, 91958, Note_off_c, 0, 62, 63
1, 92052, Note_on_c, 0, 71, 82
1, 92055, Note_on_c, 0, 69, 84
1, 92056, Note_on_c, 0, 65, 80
1, 92067, Note_on_c, 0, 86, 87
1, 92070, Note_on_c, 0, 62, 65
1, 92073, Note_off_c, 0, 71, 68
1, 92079, Note_off_c, 0, 65, 69
1, 92079, Note_off_c, 0, 69, 70
1, 92094, Note_off_c, 0, 62, 61
1, 92117, Note_off_c, 0, 86, 64
1, 92145, Note_on_c, 0, 71, 80
1, 92147, Note_on_c, 0, 72, 90
1, 92150, Note_on_c, 0, 67, 87
1, 92156, Note_on_c, 0, 65, 5
1, 92159, Note_on_c, 0, 64, 68
1, 92163, Note_off_c, 0, 71, 71
1, 92164, Note_on_c, 0, 89, 72
1, 92166, Note_off_c, 0, 72, 70
1, 92167, Note_on_c, 0, 88, 78
1, 92171, Note_off_c, 0, 67, 68
1, 92182, Poly_aftertouch_c, 0, 69, 127
1, 92184, Note_off_c, 0, 65, 37
1, 92189, Note_off_c, 0, 64, 66
1, 92191, Note_off_c, 0, 88, 70
1, 92192, Note_off_c, 0, 89, 67
1, 92222, Poly_aftertouch_c, 0, 69, 0
1, 92237, Note_on_c, 0, 72, 73
1, 92239, Note_on_c, 0, 74, 93
1, 92240, Note_on_c, 0, 81, 84
1, 92250, Note_on_c, 0, 69, 51
1, 92251, Note_on_c, 0, 65, 69
1, 92259, Note_on_c, 0, 71, 49
1, 92260, Note_off_c, 0, 72, 68
1, 92271, Note_off_c, 0, 69, 64
1, 92277, Note_off_c, 0, 71, 63
1, 92281, Note_off_c, 0, 65, 65
1, 92287, Note_off_c, 0, 81, 51
1, 92320, Note_on_c, 0, 93, 83
1, 92342, Note_on_c, 0, 72, 33
1, 92348, Note_on_c, 0, 67, 13
1, 92349, Note_on_c, 0, 71, 66
1, 92349, Note_off_c, 0, 74, 63
1, 92350, Note_off_c, 0, 93, 68
1, 92353, Note_on_c, 0, 76, 40
1, 92367, Note_off_c, 0, 71, 65
1, 92368, Note_off_c, 0, 72, 34
1, 92382, Note_off_c, 0, 76, 33
1, 92392, Control_c, 0, 64, 71
1, 92395, Note_off_c, 0, 67, 38
1, 92395, Note_on_c, 0, 93, 97
1, 92407, Control_c, 0, 64, 41
1, 92422, Control_c, 0, 64, 15
1, 92424, Note_on_c, 0, 76, 93
1, 92427, Note_on_c, 0, 65, 68
1, 92430, Note_on_c, 0, 71, 78
1, 92431, Note_on_c, 0, 79, 100
1, 92434, Note_on_c, 0, 74, 84
1, 92435, Note_on_c, 0, 72, 73
1, 92437, Control_c, 0, 64, 46
1, 92445, Note_off_c, 0, 93, 67
1, 92449, Note_off_c, 0, 74, 64
1, 92451, Note_on_c, 0, 67, 49
1, 92451, Control_c, 0, 64, 72
1, 92456, Note_off_c, 0, 71, 66
1, 92456, Note_off_c, 0, 76, 65
1, 92461, Note_off_c, 0, 65, 48
1, 92462, Note_off_c, 0, 72, 66
1, 92466, Control_c, 0, 64, 122
1, 92478, Note_off_c, 0, 67, 56
1, 92481, Control_c, 0, 64, 127
1, 92536, Poly_aftertouch_c, 0, 81, 0
1, 92562, Poly_aftertouch_c, 0, 91, 0
1, 92570, Note_off_c, 0, 79, 65
1, 92632, Note_on_c, 0, 74, 74
1, 92636, Note_on_c, 0, 77, 91
1, 92638, Note_on_c, 0, 67, 60
1, 92639, Note_off_c, 0, 67, 127
1, 92639, Note_on_c, 0, 69, 59
1, 92639, Note_on_c, 0, 65, 69
1, 92643, Note_on_c, 0, 72, 64
1, 92648, Note_off_c, 0, 74, 69
1, 92657, Note_off_c, 0, 65, 64
1, 92658, Note_off_c, 0, 69, 67
1, 92660, Note_off_c, 0, 72, 62
1, 92663, Note_on_c, 0, 71, 16
1, 92678, Note_off_c, 0, 77, 67
1, 92707, Note_off_c, 0, 71, 0
1, 92711, Note_on_c, 0, 79, 97
1, 92718, Note_on_c, 0, 71, 78
1, 92723, Note_on_c, 0, 65, 86
1, 92726, Note_on_c, 0, 67, 77
1, 92732, Note_on_c, 0, 62, 74
1, 92745, Note_on_c, 0, 64, 30
1, 92746, Note_off_c, 0, 64, 127
1, 92746, Note_off_c, 0, 65, 68
1, 92746, Note_off_c, 0, 71, 66
1, 92751, Note_off_c, 0, 67, 67
1, 92757, Note_off_c, 0, 79, 67
1, 92758, Note_off_c, 0, 62, 68
1, 92763, Control_c, 0, 64, 104
1, 92778, Control_c, 0, 64, 74
1, 92792, Control_c, 0, 64, 66
1, 92801, Note_on_c, 0, 81, 98
1, 92807, Control_c, 0, 64, 69
1, 92815, Note_on_c, 0, 65, 66
1, 92817, Note_on_c, 0, 60, 95
1, 92817, Note_on_c, 0, 69, 101
1, 92822, Control_c, 0, 64, 86
1, 92825, Note_on_c, 0, 64, 85
1, 92833, Note_off_c, 0, 81, 70
1, 92836, Control_c, 0, 64, 127
1, 92847, Note_on_c, 0, 62, 31
1, 92848, Note_off_c, 0, 62, 127
1, 92860, Note_off_c, 0, 64, 63
1, 92860, Note_off_c, 0, 60, 64
1, 92872, Note_off_c, 0, 65, 65
1, 92872, Note_off_c, 0, 69, 64
1, 92982, Note_on_c, 0, 65, 88
1, 92985, Note_on_c, 0, 64, 84
1, 92990, Note_on_c, 0, 69, 69
1, 92996, Note_on_c, 0, 81, 99
1, 93003, Note_off_c, 0, 65, 68
1, 93004, Note_off_c, 0, 64, 71
1, 93009, Note_off_c, 0, 69, 67
1, 93015, Note_on_c, 0, 59, 50
1, 93019, Note_on_c, 0, 60, 38
1, 93031, Note_off_c, 0, 81, 66
1, 93040, Note_off_c, 0, 59, 57
1, 93043, Note_off_c, 0, 60, 57
1, 93080, Note_on_c, 0, 64, 13
1, 93081, Note_on_c, 0, 65, 6
1, 93082, Note_off_c, 0, 65, 127
1, 93095, Control_c, 0, 64, 77
1, 93097, Note_on_c, 0, 43, 96
1, 93100, Note_on_c, 0, 55, 91
1, 93107, Note_on_c, 0, 53, 79
1, 93110, Control_c, 0, 64, 41
1, 93119, Note_off_c, 0, 64, 54
1, 93121, Note_off_c, 0, 43, 69
1, 93125, Note_off_c, 0, 53, 53
1, 93125, Note_off_c, 0, 55, 69
1, 93126, Control_c, 0, 64, 0
1, 93155, Control_c, 0, 64, 32
1, 93170, Control_c, 0, 64, 73
1, 93185, Control_c, 0, 64, 109
1, 93198, Note_on_c, 0, 83, 97
1, 93200, Control_c, 0, 64, 127
1, 93203, Note_on_c, 0, 69, 109
1, 93208, Note_on_c, 0, 65, 87
1, 93213, Note_on_c, 0, 43, 8
1, 93214, Note_on_c, 0, 71, 80
1, 93217, Note_on_c, 0, 62, 79
1, 93229, Note_off_c, 0, 69, 68
1, 93230, Note_off_c, 0, 71, 42
1, 93234, Note_off_c, 0, 65, 67
1, 93242, Note_off_c, 0, 62, 67
1, 93247, Note_off_c, 0, 43, 31
1, 93249, Note_off_c, 0, 83, 66
1, 93296, Note_on_c, 0, 95, 87
1, 93388, Note_on_c, 0, 93, 91
1, 93391, Note_on_c, 0, 71, 86
1, 93399, Note_on_c, 0, 69, 90
1, 93400, Note_on_c, 0, 65, 84
1, 93405, Note_on_c, 0, 62, 67
1, 93411, Note_off_c, 0, 95, 66
1, 93416, Note_on_c, 0, 91, 46
1, 93419, Note_off_c, 0, 65, 70
1, 93420, Note_off_c, 0, 69, 70
1, 93425, Note_off_c, 0, 71, 65
1, 93434, Note_off_c, 0, 62, 63
1, 93460, Note_off_c, 0, 91, 32
1, 93475, Note_off_c, 0, 93, 65
1, 93481, Note_on_c, 0, 88, 93
1, 93495, Note_on_c, 0, 65, 20
1, 93497, Note_on_c, 0, 69, 22
1, 93527, Note_off_c, 0, 65, 44
1, 93530, Note_off_c, 0, 88, 68
1, 93533, Note_off_c, 0, 69, 55
1, 93579, Note_on_c, 0, 86, 94
1, 93580, Note_on_c, 0, 71, 87
1, 93591, Note_on_c, 0, 62, 62
1, 93592, Note_on_c, 0, 65, 72
1, 93599, Note_on_c, 0, 69, 60
1, 93602, Note_off_c, 0, 71, 68
1, 93608, Note_off_c, 0, 62, 70
1, 93608, Note_off_c, 0, 65, 70
1, 93619, Note_off_c, 0, 86, 66
1, 93623, Note_off_c, 0, 69, 64
1, 93664, Note_on_c, 0, 88, 92
1, 93670, Note_on_c, 0, 71, 72
1, 93672, Note_on_c, 0, 72, 92
1, 93678, Note_on_c, 0, 67, 81
1, 93681, Note_on_c, 0, 64, 70
1, 93686, Note_off_c, 0, 71, 69
1, 93691, Note_off_c, 0, 72, 69
1, 93705, Note_off_c, 0, 67, 67
1, 93708, Note_off_c, 0, 88, 68
1, 93710, Note_off_c, 0, 64, 67
1, 93751, Note_on_c, 0, 72, 36
1, 93752, Note_off_c, 0, 72, 127
1, 93759, Note_on_c, 0, 81, 82
1, 93763, Note_on_c, 0, 74, 95
1, 93767, Note_on_c, 0, 65, 65
1, 93772, Note_on_c, 0, 69, 69
1, 93781, Note_on_c, 0, 83, 57
1, 93784, Note_on_c, 0, 71, 3
1, 93786, Note_off_c, 0, 74, 68
1, 93787, Poly_aftertouch_c, 0, 72, 0
1, 93788, Note_off_c, 0, 69, 70
1, 93793, Note_off_c, 0, 81, 62
1, 93799, Note_off_c, 0, 71, 42
1, 93802, Note_off_c, 0, 83, 62
1, 93804, Note_off_c, 0, 65, 65
1, 93844, Note_on_c, 0, 93, 84
1, 93856, Note_on_c, 0, 76, 98
1, 93858, Note_on_c, 0, 67, 65
1, 93866, Note_off_c, 0, 93, 70
1, 93870, Note_on_c, 0, 74, 61
1, 93879, Note_off_c, 0, 76, 66
1, 93889, Note_off_c, 0, 74, 66
1, 93891, Note_off_c, 0, 67, 66
1, 93903, Control_c, 0, 64, 76
1, 93915, Note_on_c, 0, 93, 99
1, 93918, Control_c, 0, 64, 52
1, 93933, Control_c, 0, 64, 37
1, 93948, Note_on_c, 0, 74, 99
1, 93948, Poly_aftertouch_c, 0, 69, 0
1, 93948, Control_c, 0, 64, 55
1, 93950, Note_on_c, 0, 79, 93
1, 93957, Note_off_c, 0, 93, 67
1, 93959, Note_on_c, 0, 65, 77
1, 93963, Control_c, 0, 64, 80
1, 93966, Note_on_c, 0, 71, 42
1, 93977, Control_c, 0, 64, 127
1, 93983, Note_on_c, 0, 67, 45
1, 93983, Note_off_c, 0, 74, 67
1, 93984, Note_off_c, 0, 65, 67
1, 93991, Poly_aftertouch_c, 0, 69, 0
1, 93992, Note_off_c, 0, 71, 50
1, 94009, Note_off_c, 0, 67, 60
1, 94052, Note_on_c, 0, 72, 94
1, 94055, Poly_aftertouch_c, 0, 91, 0
1, 94058, Note_on_c, 0, 65, 62
1, 94060, Note_on_c, 0, 64, 79
1, 94067, Note_on_c, 0, 67, 72
1, 94073, Note_on_c, 0, 69, 65
1, 94073, Note_off_c, 0, 79, 64
1, 94073, Note_off_c, 0, 72, 68
1, 94082, Note_off_c, 0, 65, 40
1, 94085, Note_off_c, 0, 64, 68
1, 94086, Note_off_c, 0, 67, 67
1, 94089, Note_off_c, 0, 69, 67
1, 94129, Note_on_c, 0, 77, 86
1, 94146, Note_on_c, 0, 71, 90
1, 94152, Note_on_c, 0, 65, 79
1, 94153, Note_on_c, 0, 67, 76
1, 94153, Note_on_c, 0, 64, 56
1, 94156, Note_on_c, 0, 62, 78
1, 94171, Note_off_c, 0, 65, 70
1, 94174, Note_off_c, 0, 71, 65
1, 94175, Note_off_c, 0, 67, 68
1, 94177, Note_off_c, 0, 77, 65
1, 94180, Note_off_c, 0, 62, 68
1, 94186, Note_off_c, 0, 64, 37
1, 94222, Note_on_c, 0, 79, 90
1, 94228, Note_on_c, 0, 69, 82
1, 94229, Note_on_c, 0, 65, 54
1, 94237, Note_on_c, 0, 67, 59
1, 94237, Note_on_c, 0, 60, 78
1, 94241, Note_on_c, 0, 64, 85
1, 94243, Note_on_c, 0, 62, 61
1, 94261, Note_off_c, 0, 79, 62
1, 94263, Note_off_c, 0, 60, 66
1, 94265, Note_off_c, 0, 65, 66
1, 94267, Note_off_c, 0, 64, 68
1, 94267, Note_off_c, 0, 67, 55
1, 94267, Note_off_c, 0, 62, 68
1, 94268, Note_off_c, 0, 69, 67
1, 94274, Control_c, 0, 64, 106
1, 94288, Control_c, 0, 64, 69
1, 94303, Control_c, 0, 64, 54
1, 94311, Note_on_c, 0, 81, 95
1, 94318, Control_c, 0, 64, 55
1, 94320, Note_on_c, 0, 60, 83
1, 94320, Note_on_c, 0, 69, 94
1, 94322, Note_on_c, 0, 64, 81
1, 94332, Note_on_c, 0, 65, 79
1, 94333, Control_c, 0, 64, 66
1, 94348, Control_c, 0, 64, 84
1, 94349, Note_off_c, 0, 64, 66
1, 94350, Note_off_c, 0, 60, 65
1, 94353, Note_off_c, 0, 65, 68
1, 94356, Note_off_c, 0, 69, 67
1, 94362, Control_c, 0, 64, 127
1, 94365, Note_off_c, 0, 81, 65
1, 94406, Note_on_c, 0, 88, 101
1, 94431, Note_on_c, 0, 65, 12
1, 94468, Note_off_c, 0, 65, 41
1, 94477, Note_off_c, 0, 88, 60
1, 94505, Note_on_c, 0, 81, 91
1, 94509, Note_on_c, 0, 64, 99
1, 94509, Note_on_c, 0, 69, 99
1, 94520, Note_on_c, 0, 60, 82
1, 94523, Note_on_c, 0, 65, 70
1, 94529, Note_off_c, 0, 69, 70
1, 94538, Note_off_c, 0, 64, 63
1, 94543, Note_off_c, 0, 65, 63
1, 94544, Note_off_c, 0, 60, 64
1, 94544, Note_on_c, 0, 79, 46
1, 94562, Note_off_c, 0, 81, 65
1, 94568, Note_off_c, 0, 79, 62
1, 94603, Note_on_c, 0, 93, 100
1, 94664, Note_off_c, 0, 93, 62
1, 94666, Control_c, 0, 64, 73
1, 94681, Control_c, 0, 64, 44
1, 94696, Control_c, 0, 64, 0
1, 94696, Note_on_c, 0, 71, 101
1, 94700, Note_on_c, 0, 65, 80
1, 94701, Note_on_c, 0, 69, 93
1, 94704, Note_on_c, 0, 79, 83
1, 94711, Note_on_c, 0, 62, 77
1, 94720, Note_off_c, 0, 71, 69
1, 94721, Note_off_c, 0, 69, 72
1, 94726, Control_c, 0, 64, 53
1, 94729, Note_off_c, 0, 65, 67
1, 94738, Note_off_c, 0, 62, 68
1, 94741, Control_c, 0, 64, 77
1, 94756, Note_off_c, 0, 79, 65
1, 94756, Control_c, 0, 64, 113
1, 94771, Control_c, 0, 64, 127
1, 94795, Note_on_c, 0, 69, 19
1, 94803, Note_on_c, 0, 95, 94
1, 94824, Note_off_c, 0, 69, 58
1, 94896, Note_on_c, 0, 93, 95
1, 94898, Note_on_c, 0, 69, 90
1, 94901, Note_on_c, 0, 71, 82
1, 94902, Note_on_c, 0, 65, 80
1, 94909, Note_on_c, 0, 62, 72
1, 94913, Note_off_c, 0, 69, 69
1, 94914, Note_off_c, 0, 95, 66
1, 94917, Note_off_c, 0, 71, 73
1, 94924, Note_off_c, 0, 65, 70
1, 94932, Note_off_c, 0, 62, 62
1, 94976, Note_on_c, 0, 69, 32
1, 94980, Note_off_c, 0, 93, 64
1, 94993, Control_c, 0, 64, 100
1, 94998, Note_on_c, 0, 88, 93
1, 95000, Note_off_c, 0, 69, 62
1, 95008, Control_c, 0, 64, 67
1, 95023, Control_c, 0, 64, 38
1, 95037, Control_c, 0, 64, 0
1, 95048, Note_off_c, 0, 88, 66
1, 95092, Note_on_c, 0, 86, 85
1, 95111, Control_c, 0, 64, 44
1, 95126, Control_c, 0, 64, 63
1, 95134, Note_off_c, 0, 86, 67
1, 95141, Control_c, 0, 64, 73
1, 95156, Control_c, 0, 64, 81
1, 95171, Control_c, 0, 64, 87
1, 95185, Control_c, 0, 64, 91
1, 95188, Note_on_c, 0, 88, 74
1, 95200, Control_c, 0, 64, 95
1, 95215, Control_c, 0, 64, 100
1, 95230, Control_c, 0, 64, 104
1, 95233, Note_off_c, 0, 88, 68
1, 95244, Control_c, 0, 64, 106
1, 95259, Control_c, 0, 64, 109
1, 95274, Control_c, 0, 64, 127
1, 95277, Note_on_c, 0, 62, 70
1, 95277, Note_on_c, 0, 81, 84
1, 95281, Note_on_c, 0, 65, 66
1, 95283, Note_on_c, 0, 64, 64
1, 95293, Note_on_c, 0, 55, 58
1, 95301, Note_off_c, 0, 65, 66
1, 95304, Note_off_c, 0, 62, 67
1, 95310, Note_off_c, 0, 64, 67
1, 95322, Note_off_c, 0, 55, 65
1, 95325, Note_on_c, 0, 59, 5
1, 95337, Note_off_c, 0, 81, 63
1, 95364, Note_off_c, 0, 59, 0
1, 95378, Poly_aftertouch_c, 0, 59, 0
1, 95378, Note_on_c, 0, 93, 84
1, 95429, Note_off_c, 0, 93, 67
1, 95477, Note_on_c, 0, 79, 84
1, 95479, Note_on_c, 0, 43, 75
1, 95528, Note_off_c, 0, 79, 63
1, 95529, Note_off_c, 0, 43, 61
1, 95549, Note_on_c, 0, 55, 71
1, 95568, Note_on_c, 0, 95, 84
1, 95575, Note_off_c, 0, 55, 66
1, 95596, Poly_aftertouch_c, 0, 81, 0
1, 95656, Note_on_c, 0, 93, 93
1, 95671, Note_on_c, 0, 67, 80
1, 95671, Note_on_c, 0, 69, 80
1, 95671, Note_off_c, 0, 95, 32
1, 95673, Note_on_c, 0, 64, 74
1, 95677, Note_on_c, 0, 60, 71
1, 95691, Note_off_c, 0, 67, 68
1, 95695, Note_off_c, 0, 69, 69
1, 95702, Note_off_c, 0, 64, 66
1, 95709, Note_off_c, 0, 60, 63
1, 95732, Note_off_c, 0, 93, 63
1, 95756, Note_on_c, 0, 88, 86
1, 95774, Note_on_c, 0, 67, 13
1, 95786, Control_c, 0, 64, 81
1, 95801, Control_c, 0, 64, 64
1, 95809, Note_off_c, 0, 88, 66
1, 95815, Control_c, 0, 64, 60
1, 95816, Note_off_c, 0, 67, 38
1, 95817, Poly_aftertouch_c, 0, 69, 0
1, 95830, Control_c, 0, 64, 65
1, 95845, Control_c, 0, 64, 77
1, 95846, Note_on_c, 0, 43, 92
1, 95848, Note_on_c, 0, 86, 91
1, 95859, Control_c, 0, 64, 113
1, 95874, Control_c, 0, 64, 127
1, 95895, Note_off_c, 0, 86, 65
1, 95906, Note_off_c, 0, 43, 64
1, 95929, Note_on_c, 0, 55, 60
1, 95940, Note_on_c, 0, 88, 85
1, 95953, Note_off_c, 0, 55, 59
1, 95984, Note_off_c, 0, 88, 68
1, 96019, Note_on_c, 0, 81, 83
1, 96037, Note_on_c, 0, 69, 81
1, 96042, Note_on_c, 0, 65, 72
1, 96045, Note_on_c, 0, 64, 67
1, 96049, Note_on_c, 0, 59, 66
1, 96052, Note_on_c, 0, 62, 60
1, 96061, Note_off_c, 0, 69, 70
1, 96061, Note_off_c, 0, 81, 65
1, 96067, Note_off_c, 0, 65, 67
1, 96070, Note_off_c, 0, 64, 68
1, 96084, Note_off_c, 0, 62, 64
1, 96091, Note_off_c, 0, 59, 66
1, 96094, Note_on_c, 0, 93, 68
1, 96111, Note_off_c, 0, 93, 68
1, 96162, Note_on_c, 0, 95, 75
1, 96165, Note_on_c, 0, 93, 92
1, 96171, Poly_aftertouch_c, 0, 69, 127
1, 96192, Note_off_c, 0, 95, 67
1, 96206, Note_on_c, 0, 79, 99
1, 96213, Note_off_c, 0, 93, 65
1, 96215, Poly_aftertouch_c, 0, 69, 0
1, 96216, Note_on_c, 0, 43, 91
1, 96229, Note_on_c, 0, 91, 51
1, 96252, Note_off_c, 0, 91, 60
1, 96277, Note_off_c, 0, 43, 64
1, 96300, Note_on_c, 0, 55, 72
1, 96320, Note_off_c, 0, 55, 64
1, 96336, Note_off_c, 0, 79, 64
1, 96395, Note_on_c, 0, 77, 86
1, 96415, Note_on_c, 0, 67, 85
1, 96422, Note_on_c, 0, 64, 74
1, 96422, Note_on_c, 0, 69, 73
1, 96431, Note_on_c, 0, 60, 69
1, 96437, Note_off_c, 0, 67, 69
1, 96439, Note_off_c, 0, 69, 70
1, 96448, Note_off_c, 0, 64, 67
1, 96448, Note_off_c, 0, 77, 65
1, 96458, Note_off_c, 0, 60, 64
1, 96480, Note_on_c, 0, 79, 91
1, 96505, Control_c, 0, 64, 109
1, 96520, Control_c, 0, 64, 71
1, 96522, Note_off_c, 0, 79, 66
1, 96535, Control_c, 0, 64, 54
1, 96550, Control_c, 0, 64, 50
1, 96565, Control_c, 0, 64, 60
1, 96571, Note_on_c, 0, 81, 88
1, 96580, Control_c, 0, 64, 74
1, 96584, Note_on_c, 0, 43, 90
1, 96585, Poly_aftertouch_c, 0, 64, 0
1, 96595, Control_c, 0, 64, 102
1, 96609, Control_c, 0, 64, 127
1, 96627, Note_off_c, 0, 81, 64
1, 96647, Note_off_c, 0, 43, 64
1, 96657, Note_on_c, 0, 55, 75
1, 96666, Note_on_c, 0, 95, 85
1, 96680, Note_off_c, 0, 55, 66
1, 96756, Note_on_c, 0, 93, 97
1, 96771, Note_off_c, 0, 95, 63
1, 96776, Note_on_c, 0, 64, 79
1, 96779, Note_on_c, 0, 65, 78
1, 96787, Note_on_c, 0, 62, 64
1, 96787, Note_on_c, 0, 69, 65
1, 96788, Note_on_c, 0, 59, 67
1, 96801, Note_off_c, 0, 65, 67
1, 96803, Note_off_c, 0, 64, 67
1, 96803, Note_off_c, 0, 69, 67
1, 96813, Note_off_c, 0, 62, 67
1, 96821, Note_off_c, 0, 59, 66
1, 96848, Note_off_c, 0, 93, 62
1, 96864, Note_on_c, 0, 88, 87
1, 96921, Note_off_c, 0, 88, 65
1, 96946, Poly_aftertouch_c, 0, 65, 0
1, 96957, Note_on_c, 0, 86, 91
1, 96960, Note_on_c, 0, 43, 95
1, 97000, Note_off_c, 0, 86, 66
1, 97022, Note_off_c, 0, 43, 63
1, 97045, Note_on_c, 0, 55, 62
1, 97052, Note_on_c, 0, 88, 94
1, 97061, Note_off_c, 0, 55, 68
1, 97101, Note_off_c, 0, 88, 67
1, 97140, Note_on_c, 0, 81, 87
1, 97155, Note_on_c, 0, 67, 90
1, 97164, Note_on_c, 0, 64, 72
1, 97172, Note_on_c, 0, 60, 64
1, 97175, Note_on_c, 0, 69, 51
1, 97177, Note_off_c, 0, 67, 69
1, 97185, Note_off_c, 0, 81, 65
1, 97191, Note_off_c, 0, 64, 68
1, 97197, Note_off_c, 0, 69, 62
1, 97201, Note_off_c, 0, 60, 64
1, 97217, Note_on_c, 0, 93, 69
1, 97233, Note_off_c, 0, 93, 67
1, 97281, Note_on_c, 0, 93, 101
1, 97284, Control_c, 0, 64, 79
1, 97299, Control_c, 0, 64, 63
1, 97313, Control_c, 0, 64, 62
1, 97322, Note_on_c, 0, 79, 90
1, 97322, Note_on_c, 0, 43, 93
1, 97328, Control_c, 0, 64, 72
1, 97334, Note_off_c, 0, 93, 68
1, 97343, Control_c, 0, 64, 99
1, 97344, Note_on_c, 0, 81, 48
1, 97358, Control_c, 0, 64, 127
1, 97367, Note_off_c, 0, 81, 36
1, 97400, Note_on_c, 0, 55, 80
1, 97400, Note_off_c, 0, 43, 64
1, 97423, Note_off_c, 0, 55, 67
1, 97457, Note_off_c, 0, 79, 63
1, 97503, Note_on_c, 0, 77, 91
1, 97526, Note_on_c, 0, 64, 82
1, 97526, Note_on_c, 0, 65, 83
1, 97532, Note_on_c, 0, 69, 72
1, 97534, Note_on_c, 0, 62, 73
1, 97551, Note_off_c, 0, 65, 67
1, 97551, Note_off_c, 0, 69, 69
1, 97558, Note_on_c, 0, 59, 34
1, 97558, Note_off_c, 0, 62, 67
1, 97561, Note_off_c, 0, 64, 62
1, 97569, Note_off_c, 0, 77, 64
1, 97574, Note_on_c, 0, 60, 31
1, 97596, Note_off_c, 0, 59, 47
1, 97605, Note_on_c, 0, 79, 94
1, 97618, Note_off_c, 0, 60, 44
1, 97657, Note_off_c, 0, 79, 65
1, 97677, Control_c, 0, 64, 89
1, 97692, Control_c, 0, 64, 86
1, 97697, Note_on_c, 0, 79, 85
1, 97704, Note_on_c, 0, 43, 93
1, 97704, Note_on_c, 0, 81, 79
1, 97706, Control_c, 0, 64, 91
1, 97721, Control_c, 0, 64, 127
1, 97731, Note_on_c, 0, 42, 52
1, 97741, Note_off_c, 0, 81, 0
1, 97741, Note_on_c, 0, 81, 37
1, 97755, Note_off_c, 0, 79, 64
1, 97763, Note_off_c, 0, 42, 57
1, 97767, Note_off_c, 0, 81, 57
1, 97773, Note_off_c, 0, 43, 63
1, 97776, Poly_aftertouch_c, 0, 41, 0
1, 97787, Note_on_c, 0, 55, 81
1, 97793, Note_on_c, 0, 95, 93
1, 97813, Poly_aftertouch_c, 0, 41, 127
1, 97817, Note_off_c, 0, 55, 65
1, 97835, Poly_aftertouch_c, 0, 41, 0
1, 97887, Note_on_c, 0, 93, 88
1, 97903, Note_off_c, 0, 95, 67
1, 97905, Note_on_c, 0, 91, 67
1, 97907, Note_on_c, 0, 65, 79
1, 97910, Note_on_c, 0, 60, 75
1, 97911, Note_on_c, 0, 64, 67
1, 97911, Note_on_c, 0, 69, 72
1, 97925, Note_on_c, 0, 67, 46
1, 97930, Note_on_c, 0, 62, 56
1, 97930, Note_off_c, 0, 65, 68
1, 97932, Note_off_c, 0, 69, 67
1, 97944, Note_off_c, 0, 64, 66
1, 97948, Note_off_c, 0, 62, 64
1, 97950, Note_off_c, 0, 60, 62
1, 97954, Note_off_c, 0, 67, 53
1, 97971, Note_off_c, 0, 93, 66
1, 97982, Note_on_c, 0, 88, 88
1, 98003, Control_c, 0, 64, 79
1, 98018, Control_c, 0, 64, 65
1, 98020, Note_off_c, 0, 91, 42
1, 98033, Control_c, 0, 64, 63
1, 98034, Note_off_c, 0, 88, 67
1, 98038, Poly_aftertouch_c, 0, 65, 0
1, 98048, Control_c, 0, 64, 71
1, 98062, Control_c, 0, 64, 88
1, 98065, Note_on_c, 0, 86, 97
1, 98070, Note_on_c, 0, 45, 79
1, 98073, Note_on_c, 0, 43, 84
1, 98077, Control_c, 0, 64, 127
1, 98094, Note_on_c, 0, 44, 48
1, 98112, Note_off_c, 0, 86, 66
1, 98114, Note_off_c, 0, 43, 59
1, 98126, Note_off_c, 0, 44, 53
1, 98132, Note_on_c, 0, 57, 81
1, 98133, Note_off_c, 0, 45, 65
1, 98158, Note_on_c, 0, 88, 91
1, 98162, Note_off_c, 0, 57, 67
1, 98220, Note_off_c, 0, 88, 67
1, 98251, Note_on_c, 0, 81, 93
1, 98259, Note_on_c, 0, 64, 78
1, 98259, Note_on_c, 0, 65, 81
1, 98267, Note_on_c, 0, 59, 67
1, 98267, Note_on_c, 0, 69, 65
1, 98277, Note_on_c, 0, 62, 52
1, 98284, Note_off_c, 0, 65, 66
1, 98288, Note_off_c, 0, 64, 67
1, 98288, Note_off_c, 0, 69, 66
1, 98301, Note_off_c, 0, 62, 65
1, 98306, Note_off_c, 0, 81, 63
1, 98307, Note_off_c, 0, 59, 66
1, 98352, Note_on_c, 0, 93, 92
1, 98418, Note_off_c, 0, 93, 66
1, 98443, Note_on_c, 0, 43, 90
1, 98446, Note_on_c, 0, 79, 91
1, 98505, Note_off_c, 0, 79, 65
1, 98507, Note_off_c, 0, 43, 63
1, 98511, Note_on_c, 0, 55, 71
1, 98521, Poly_aftertouch_c, 0, 42, 127
1, 98534, Note_off_c, 0, 55, 67
1, 98538, Note_on_c, 0, 95, 90
1, 98568, Poly_aftertouch_c, 0, 42, 0
1, 98622, Note_on_c, 0, 93, 100
1, 98628, Note_on_c, 0, 67, 90
1, 98631, Note_on_c, 0, 64, 84
1, 98637, Note_on_c, 0, 69, 74
1, 98639, Note_on_c, 0, 60, 73
1, 98645, Note_off_c, 0, 95, 67
1, 98652, Note_off_c, 0, 67, 69
1, 98656, Note_off_c, 0, 69, 68
1, 98667, Note_off_c, 0, 64, 64
1, 98673, Note_off_c, 0, 60, 64
1, 98719, Note_on_c, 0, 88, 93
1, 98727, Note_off_c, 0, 93, 61
1, 98752, Control_c, 0, 64, 96
1, 98767, Control_c, 0, 64, 67
1, 98771, Note_off_c, 0, 88, 68
1, 98782, Control_c, 0, 64, 49
1, 98797, Control_c, 0, 64, 49
1, 98807, Note_on_c, 0, 86, 97
1, 98808, Note_on_c, 0, 43, 96
1, 98812, Control_c, 0, 64, 64
1, 98826, Control_c, 0, 64, 85
1, 98841, Control_c, 0, 64, 127
1, 98851, Note_off_c, 0, 86, 67
1, 98875, Note_off_c, 0, 43, 65
1, 98887, Note_on_c, 0, 55, 80
1, 98901, Note_on_c, 0, 88, 94
1, 98913, Note_off_c, 0, 55, 65
1, 98954, Note_off_c, 0, 88, 66
1, 98988, Note_on_c, 0, 81, 89
1, 99002, Note_on_c, 0, 65, 82
1, 99004, Note_on_c, 0, 64, 74
1, 99009, Note_on_c, 0, 69, 71
1, 99016, Note_on_c, 0, 59, 63
1, 99023, Note_on_c, 0, 62, 53
1, 99024, Note_off_c, 0, 69, 69
1, 99024, Note_off_c, 0, 65, 68
1, 99027, Note_off_c, 0, 81, 64
1, 99031, Note_off_c, 0, 64, 67
1, 99048, Note_off_c, 0, 62, 65
1, 99049, Note_on_c, 0, 91, 84
1, 99054, Note_off_c, 0, 59, 67
1, 99099, Note_off_c, 0, 91, 60
1, 99122, Note_on_c, 0, 91, 77
1, 99169, Note_on_c, 0, 79, 98
1, 99181, Note_on_c, 0, 41, 84
1, 99181, Note_on_c, 0, 43, 78
1, 99183, Poly_aftertouch_c, 0, 64, 0
1, 99205, Note_off_c, 0, 91, 65
1, 99223, Note_on_c, 0, 42, 10
1, 99224, Note_off_c, 0, 41, 61
1, 99224, Note_on_c, 0, 55, 77
1, 99242, Note_off_c, 0, 43, 63
1, 99260, Note_off_c, 0, 55, 66
1, 99274, Note_off_c, 0, 42, 41
1, 99303, Note_off_c, 0, 79, 63
1, 99355, Note_on_c, 0, 77, 91
1, 99356, Note_on_c, 0, 67, 93
1, 99364, Note_on_c, 0, 64, 82
1, 99368, Note_on_c, 0, 69, 72
1, 99372, Note_on_c, 0, 60, 70
1, 99386, Note_off_c, 0, 69, 70
1, 99387, Note_off_c, 0, 67, 65
1, 99396, Note_off_c, 0, 64, 65
1, 99404, Note_off_c, 0, 60, 63
1, 99436, Note_off_c, 0, 77, 40
1, 99444, Note_on_c, 0, 79, 100
1, 99485, Control_c, 0, 64, 77
1, 99492, Note_off_c, 0, 79, 65
1, 99501, Control_c, 0, 64, 53
1, 99516, Control_c, 0, 64, 50
1, 99531, Control_c, 0, 64, 62
1, 99534, Note_on_c, 0, 81, 90
1, 99535, Note_on_c, 0, 43, 90
1, 99543, Note_on_c, 0, 45, 70
1, 99545, Note_on_c, 0, 79, 68
1, 99546, Control_c, 0, 64, 78
1, 99561, Control_c, 0, 64, 127
1, 99577, Note_off_c, 0, 45, 46
1, 99578, Note_off_c, 0, 79, 58
1, 99594, Note_off_c, 0, 81, 65
1, 99598, Note_off_c, 0, 43, 64
1, 99604, Note_on_c, 0, 55, 73
1, 99629, Note_off_c, 0, 55, 67
1, 99632, Note_on_c, 0, 96, 84
1, 99636, Note_on_c, 0, 95, 79
1, 99687, Note_off_c, 0, 96, 66
1, 99715, Note_on_c, 0, 93, 98
1, 99718, Note_on_c, 0, 65, 89
1, 99722, Note_on_c, 0, 64, 78
1, 99722, Note_on_c, 0, 69, 82
1, 99726, Note_on_c, 0, 62, 74
1, 99729, Note_on_c, 0, 59, 70
1, 99737, Note_off_c, 0, 95, 66
1, 99745, Note_off_c, 0, 69, 70
1, 99749, Note_off_c, 0, 65, 63
1, 99752, Note_off_c, 0, 64, 67
1, 99761, Note_off_c, 0, 62, 66
1, 99770, Note_off_c, 0, 59, 65
1, 99799, Note_off_c, 0, 93, 66
1, 99814, Note_on_c, 0, 88, 92
1, 99832, Note_on_c, 0, 69, 11
1, 99881, Note_off_c, 0, 69, 38
1, 99896, Note_off_c, 0, 88, 52
1, 99898, Note_on_c, 0, 43, 97
1, 99904, Note_on_c, 0, 86, 102
1, 99941, Note_on_c, 0, 42, 24
1, 99956, Note_off_c, 0, 86, 66
1, 99964, Note_on_c, 0, 55, 80
1, 99966, Note_off_c, 0, 43, 64
1, 99983, Note_off_c, 0, 42, 50
1, 99988, Note_off_c, 0, 55, 67
1, 99997, Note_on_c, 0, 88, 95
1, 100054, Note_off_c, 0, 88, 67
1, 100062, Poly_aftertouch_c, 0, 57, 0
1, 100084, Note_on_c, 0, 67, 91
1, 100085, Note_on_c, 0, 81, 89
1, 100087, Poly_aftertouch_c, 0, 57, 0
1, 100095, Note_on_c, 0, 64, 72
1, 100097, Note_on_c, 0, 60, 70
1, 100106, Note_on_c, 0, 69, 50
1, 100109, Note_off_c, 0, 67, 68
1, 100123, Note_off_c, 0, 64, 67
1, 100124, Note_off_c, 0, 81, 64
1, 100130, Note_off_c, 0, 60, 65
1, 100136, Note_off_c, 0, 69, 59
1, 100152, Note_on_c, 0, 91, 65
1, 100171, Note_off_c, 0, 91, 64
1, 100218, Note_on_c, 0, 93, 84
1, 100219, Control_c, 0, 64, 91
1, 100234, Control_c, 0, 64, 66
1, 100245, Note_on_c, 0, 91, 47
1, 100246, Note_off_c, 0, 91, 127
1, 100249, Control_c, 0, 64, 61
1, 100257, Note_on_c, 0, 41, 84
1, 100257, Note_on_c, 0, 43, 81
1, 100264, Control_c, 0, 64, 68
1, 100270, Note_on_c, 0, 79, 96
1, 100279, Control_c, 0, 64, 87
1, 100281, Note_off_c, 0, 93, 66
1, 100285, Note_on_c, 0, 42, 38
1, 100289, Poly_aftertouch_c, 0, 91, 0
1, 100294, Control_c, 0, 64, 127
1, 100302, Note_on_c, 0, 81, 42
1, 100303, Note_off_c, 0, 81, 127
1, 100303, Note_off_c, 0, 41, 61
1, 100309, Note_on_c, 0, 55, 77
1, 100325, Note_off_c, 0, 42, 51
1, 100325, Note_off_c, 0, 43, 65
1, 100326, Note_on_c, 0, 53, 50
1, 100342, Note_off_c, 0, 55, 65
1, 100353, Note_off_c, 0, 53, 57
1, 100401, Note_off_c, 0, 79, 58
1, 100431, Note_on_c, 0, 65, 88
1, 100437, Note_on_c, 0, 69, 80
1, 100437, Note_on_c, 0, 64, 79
1, 100443, Note_on_c, 0, 59, 72
1, 100446, Note_on_c, 0, 77, 93
1, 100449, Note_on_c, 0, 62, 61
1, 100452, Note_off_c, 0, 65, 68
1, 100452, Note_off_c, 0, 69, 72
1, 100461, Note_off_c, 0, 64, 68
1, 100462, Note_on_c, 0, 79, 18
1, 100471, Note_off_c, 0, 62, 64
1, 100488, Note_off_c, 0, 59, 67
1, 100496, Note_off_c, 0, 79, 56
1, 100531, Note_on_c, 0, 79, 98
1, 100541, Note_off_c, 0, 77, 67
1, 100562, Note_off_c, 0, 79, 70
1, 100610, Poly_aftertouch_c, 0, 64, 0
1, 100657, Control_c, 0, 64, 70
1, 100672, Control_c, 0, 64, 21
1, 100687, Control_c, 0, 64, 0
1, 100838, Note_on_c, 0, 84, 97
1, 100840, Note_on_c, 0, 76, 91
1, 100840, Note_on_c, 0, 79, 87
1, 100843, Note_on_c, 0, 72, 87
1, 100845, Note_on_c, 0, 40, 82
1, 100845, Note_on_c, 0, 81, 88
1, 100845, Note_on_c, 0, 31, 80
1, 100845, Note_on_c, 0, 36, 80
1, 100850, Note_on_c, 0, 43, 79
1, 100850, Control_c, 0, 64, 62
1, 100863, Note_off_c, 0, 72, 70
1, 100864, Control_c, 0, 64, 106
1, 100872, Note_off_c, 0, 43, 66
1, 100877, Note_off_c, 0, 76, 65
1, 100879, Control_c, 0, 64, 127
1, 100882, Note_off_c, 0, 84, 68
1, 100883, Note_off_c, 0, 79, 68
1, 100884, Note_off_c, 0, 81, 64
1, 100891, Note_off_c, 0, 31, 64
1, 100894, Note_off_c, 0, 40, 64
1, 100905, Note_off_c, 0, 36, 63
1, 100997, Control_c, 0, 64, 68
1, 101012, Control_c, 0, 64, 21
1, 101027, Control_c, 0, 64, 0
1, 101039, Poly_aftertouch_c, 0, 43, 0
1, 101087, Poly_aftertouch_c, 0, 32, 127
1, 101115, Poly_aftertouch_c, 0, 39, 127
1, 101120, Poly_aftertouch_c, 0, 32, 0
1, 101152, Poly_aftertouch_c, 0, 39, 0
1, 101246, Note_on_c, 0, 84, 93
1, 101251, Note_on_c, 0, 31, 63
1, 101251, Note_on_c, 0, 76, 92
1, 101253, Note_on_c, 0, 72, 97
1, 101253, Note_on_c, 0, 79, 88
1, 101253, Note_on_c, 0, 81, 93
1, 101254, Note_on_c, 0, 43, 87
1, 101254, Note_on_c, 0, 40, 81
1, 101257, Note_on_c, 0, 36, 77
1, 101266, Control_c, 0, 64, 63
1, 101277, Note_off_c, 0, 72, 68
1, 101280, Control_c, 0, 64, 107
1, 101295, Control_c, 0, 64, 127
1, 101301, Note_off_c, 0, 43, 65
1, 101307, Note_off_c, 0, 76, 64
1, 101307, Note_off_c, 0, 84, 68
1, 101319, Note_off_c, 0, 79, 67
1, 101331, Note_off_c, 0, 40, 63
1, 101331, Note_off_c, 0, 81, 62
1, 101342, Note_off_c, 0, 31, 58
1, 101348, Note_off_c, 0, 36, 62
1, 101406, Control_c, 0, 64, 82
1, 101421, Control_c, 0, 64, 56
1, 101436, Control_c, 0, 64, 0
1, 101453, Poly_aftertouch_c, 0, 33, 0
1, 101656, Note_on_c, 0, 84, 90
1, 101656, Note_on_c, 0, 81, 86
1, 101658, Note_on_c, 0, 43, 99
1, 101658, Note_on_c, 0, 72, 92
1, 101662, Note_on_c, 0, 79, 75
1, 101663, Note_on_c, 0, 40, 81
1, 101663, Note_on_c, 0, 76, 68
1, 101665, Note_on_c, 0, 36, 78
1, 101666, Note_on_c, 0, 31, 75
1, 101672, Control_c, 0, 64, 60
1, 101676, Note_off_c, 0, 72, 70
1, 101677, Note_off_c, 0, 79, 69
1, 101679, Note_off_c, 0, 76, 66
1, 101687, Control_c, 0, 64, 92
1, 101691, Note_off_c, 0, 31, 66
1, 101697, Note_off_c, 0, 81, 63
1, 101698, Note_off_c, 0, 36, 66
1, 101702, Control_c, 0, 64, 127
1, 101704, Note_off_c, 0, 84, 67
1, 101713, Note_off_c, 0, 40, 64
1, 101713, Note_off_c, 0, 43, 65
1, 101731, Note_on_c, 0, 82, 14
1, 101749, Note_on_c, 0, 72, 30
1, 101770, Note_off_c, 0, 82, 51
1, 101778, Note_off_c, 0, 72, 33
1, 101791, Control_c, 0, 64, 81
1, 101805, Control_c, 0, 64, 40
1, 101820, Control_c, 0, 64, 0
1, 101861, Note_on_c, 0, 86, 79
1, 101873, Note_on_c, 0, 43, 82
1, 101910, Control_c, 0, 64, 44
1, 101925, Control_c, 0, 64, 71
1, 101930, Note_on_c, 0, 55, 77
1, 101940, Control_c, 0, 64, 87
1, 101944, Note_off_c, 0, 43, 65
1, 101951, Note_on_c, 0, 88, 88
1, 101953, Note_off_c, 0, 86, 65
1, 101955, Control_c, 0, 64, 105
1, 101966, Note_off_c, 0, 55, 65
1, 101970, Control_c, 0, 64, 127
1, 102000, Note_off_c, 0, 88, 65
1, 102030, Note_on_c, 0, 84, 85
1, 102059, Note_on_c, 0, 67, 85
1, 102064, Note_on_c, 0, 69, 74
1, 102066, Note_on_c, 0, 64, 74
1, 102077, Note_off_c, 0, 84, 66
1, 102080, Note_on_c, 0, 60, 72
1, 102080, Note_on_c, 0, 86, 40
1, 102091, Note_off_c, 0, 67, 67
1, 102097, Note_off_c, 0, 69, 67
1, 102102, Note_on_c, 0, 96, 86
1, 102103, Note_off_c, 0, 64, 66
1, 102108, Note_off_c, 0, 86, 57
1, 102112, Note_off_c, 0, 60, 65
1, 102124, Note_off_c, 0, 96, 68
1, 102175, Note_on_c, 0, 96, 102
1, 102207, Note_on_c, 0, 83, 103
1, 102214, Note_on_c, 0, 43, 96
1, 102221, Note_off_c, 0, 96, 68
1, 102240, Note_on_c, 0, 42, 48
1, 102243, Note_on_c, 0, 95, 55
1, 102244, Note_on_c, 0, 41, 54
1, 102264, Note_off_c, 0, 95, 62
1, 102273, Note_off_c, 0, 42, 55
1, 102273, Note_on_c, 0, 55, 80
1, 102277, Note_off_c, 0, 41, 55
1, 102284, Note_off_c, 0, 43, 64
1, 102311, Note_off_c, 0, 55, 65
1, 102342, Note_off_c, 0, 83, 66
1, 102393, Note_on_c, 0, 65, 85
1, 102394, Note_on_c, 0, 69, 86
1, 102398, Note_on_c, 0, 64, 82
1, 102409, Note_on_c, 0, 59, 75
1, 102410, Note_on_c, 0, 81, 82
1, 102413, Note_on_c, 0, 79, 84
1, 102416, Note_off_c, 0, 69, 71
1, 102419, Note_on_c, 0, 62, 53
1, 102426, Note_off_c, 0, 65, 63
1, 102432, Note_off_c, 0, 64, 62
1, 102442, Note_off_c, 0, 62, 64
1, 102453, Note_off_c, 0, 79, 63
1, 102462, Note_off_c, 0, 59, 67
1, 102484, Note_on_c, 0, 83, 105
1, 102494, Note_off_c, 0, 81, 61
1, 102516, Note_off_c, 0, 83, 70
1, 102540, Control_c, 0, 64, 118
1, 102555, Control_c, 0, 64, 65
1, 102569, Control_c, 0, 64, 0
1, 102786, Note_on_c, 0, 72, 91
1, 102788, Note_on_c, 0, 77, 68
1, 102789, Note_on_c, 0, 81, 89
1, 102789, Note_on_c, 0, 84, 93
1, 102792, Note_on_c, 0, 38, 87
1, 102793, Note_on_c, 0, 41, 94
1, 102794, Note_on_c, 0, 35, 83
1, 102794, Note_on_c, 0, 74, 85
1, 102795, Note_on_c, 0, 31, 76
1, 102795, Note_on_c, 0, 43, 87
1, 102807, Note_off_c, 0, 74, 72
1, 102807, Control_c, 0, 64, 59
1, 102810, Note_off_c, 0, 72, 65
1, 102810, Note_off_c, 0, 77, 69
1, 102829, Note_off_c, 0, 31, 65
1, 102830, Control_c, 0, 64, 101
1, 102834, Note_off_c, 0, 81, 70
1, 102845, Control_c, 0, 64, 127
1, 102846, Note_off_c, 0, 35, 61
1, 102848, Note_off_c, 0, 84, 68
1, 102848, Note_off_c, 0, 41, 48
1, 102853, Note_off_c, 0, 43, 64
1, 102854, Note_off_c, 0, 38, 65
1, 102854, Poly_aftertouch_c, 0, 80, 0
1, 102948, Control_c, 0, 64, 85
1, 102963, Control_c, 0, 64, 51
1, 102973, Note_on_c, 0, 94, 16
1, 102978, Control_c, 0, 64, 0
1, 103001, Note_on_c, 0, 84, 72
1, 103011, Note_off_c, 0, 94, 30
1, 103013, Note_on_c, 0, 43, 78
1, 103051, Control_c, 0, 64, 49
1, 103066, Control_c, 0, 64, 71
1, 103072, Note_off_c, 0, 84, 63
1, 103076, Note_on_c, 0, 55, 73
1, 103081, Note_off_c, 0, 43, 63
1, 103081, Control_c, 0, 64, 84
1, 103096, Control_c, 0, 64, 99
1, 103099, Note_on_c, 0, 98, 86
1, 103102, Note_off_c, 0, 55, 66
1, 103111, Control_c, 0, 64, 127
1, 103191, Note_on_c, 0, 96, 99
1, 103202, Note_on_c, 0, 67, 88
1, 103205, Note_on_c, 0, 69, 82
1, 103209, Note_on_c, 0, 64, 74
1, 103212, Note_off_c, 0, 98, 64
1, 103215, Note_on_c, 0, 60, 73
1, 103225, Note_off_c, 0, 67, 69
1, 103228, Note_off_c, 0, 69, 69
1, 103240, Note_off_c, 0, 64, 67
1, 103253, Note_off_c, 0, 60, 63
1, 103279, Note_on_c, 0, 91, 96
1, 103299, Note_off_c, 0, 96, 62
1, 103331, Poly_aftertouch_c, 0, 69, 127
1, 103352, Note_off_c, 0, 91, 61
1, 103368, Note_on_c, 0, 43, 88
1, 103370, Note_on_c, 0, 86, 100
1, 103376, Poly_aftertouch_c, 0, 69, 0
1, 103388, Note_on_c, 0, 41, 69
1, 103396, Note_on_c, 0, 42, 45
1, 103409, Note_off_c, 0, 41, 64
1, 103427, Note_off_c, 0, 86, 59
1, 103430, Note_off_c, 0, 42, 53
1, 103436, Note_on_c, 0, 55, 87
1, 103451, Note_off_c, 0, 43, 64
1, 103456, Note_on_c, 0, 88, 92
1, 103469, Note_on_c, 0, 86, 32
1, 103477, Note_off_c, 0, 55, 65
1, 103503, Note_off_c, 0, 86, 30
1, 103516, Note_off_c, 0, 88, 67
1, 103549, Note_on_c, 0, 84, 97
1, 103574, Note_on_c, 0, 65, 79
1, 103576, Note_on_c, 0, 67, 78
1, 103579, Note_on_c, 0, 71, 69
1, 103585, Note_on_c, 0, 64, 57
1, 103587, Note_on_c, 0, 59, 60
1, 103595, Note_off_c, 0, 71, 67
1, 103598, Note_off_c, 0, 67, 68
1, 103602, Note_off_c, 0, 65, 67
1, 103603, Note_on_c, 0, 60, 61
1, 103604, Note_off_c, 0, 64, 64
1, 103624, Note_on_c, 0, 62, 20
1, 103624, Note_off_c, 0, 60, 58
1, 103635, Note_off_c, 0, 59, 66
1, 103639, Note_off_c, 0, 84, 67
1, 103645, Note_on_c, 0, 96, 102
1, 103661, Note_off_c, 0, 96, 76
1, 103662, Note_off_c, 0, 62, 47
1, 103734, Poly_aftertouch_c, 0, 67, 0
1, 103756, Control_c, 0, 64, 68
1, 103771, Control_c, 0, 64, 28
1, 103786, Control_c, 0, 64, 0
1, 103964, Note_on_c, 0, 84, 98
1, 103971, Note_on_c, 0, 74, 98
1, 103974, Note_on_c, 0, 43, 84
1, 103974, Note_on_c, 0, 77, 92
1, 103975, Note_on_c, 0, 81, 91
1, 103975, Note_on_c, 0, 72, 100
1, 103978, Note_on_c, 0, 38, 80
1, 103978, Control_c, 0, 64, 33
1, 103980, Note_on_c, 0, 35, 77
1, 103981, Note_on_c, 0, 41, 89
1, 103985, Note_on_c, 0, 31, 62
1, 103993, Control_c, 0, 64, 70
1, 104005, Note_off_c, 0, 74, 66
1, 104005, Note_off_c, 0, 72, 59
1, 104008, Control_c, 0, 64, 99
1, 104012, Note_off_c, 0, 41, 57
1, 104022, Note_off_c, 0, 31, 62
1, 104023, Control_c, 0, 64, 127
1, 104025, Note_off_c, 0, 43, 62
1, 104028, Note_off_c, 0, 84, 67
1, 104038, Note_off_c, 0, 77, 64
1, 104053, Note_off_c, 0, 81, 60
1, 104071, Note_off_c, 0, 38, 60
1, 104081, Note_off_c, 0, 35, 60
1, 104156, Control_c, 0, 64, 77
1, 104171, Control_c, 0, 64, 55
1, 104186, Control_c, 0, 64, 0
1, 104403, Note_on_c, 0, 84, 99
1, 104411, Note_on_c, 0, 72, 93
1, 104411, Note_on_c, 0, 74, 88
1, 104412, Note_on_c, 0, 43, 92
1, 104413, Note_on_c, 0, 81, 81
1, 104414, Note_on_c, 0, 38, 85
1, 104417, Control_c, 0, 64, 58
1, 104418, Note_on_c, 0, 35, 75
1, 104418, Note_on_c, 0, 41, 84
1, 104420, Note_on_c, 0, 31, 65
1, 104428, Note_off_c, 0, 72, 70
1, 104431, Control_c, 0, 64, 90
1, 104431, Note_off_c, 0, 74, 72
1, 104433, Note_off_c, 0, 81, 69
1, 104440, Note_off_c, 0, 41, 66
1, 104446, Control_c, 0, 64, 127
1, 104446, Note_off_c, 0, 35, 63
1, 104446, Note_off_c, 0, 38, 66
1, 104450, Note_off_c, 0, 31, 56
1, 104455, Note_off_c, 0, 84, 68
1, 104455, Note_off_c, 0, 43, 63
1, 104565, Control_c, 0, 64, 82
1, 104579, Control_c, 0, 64, 52
1, 104589, Poly_aftertouch_c, 0, 41, 0
1, 104594, Control_c, 0, 64, 0
1, 104631, Note_on_c, 0, 86, 89
1, 104634, Note_on_c, 0, 43, 80
1, 104668, Control_c, 0, 64, 35
1, 104683, Control_c, 0, 64, 66
1, 104697, Control_c, 0, 64, 82
1, 104700, Note_on_c, 0, 55, 80
1, 104705, Note_off_c, 0, 43, 65
1, 104706, Note_off_c, 0, 86, 61
1, 104712, Control_c, 0, 64, 102
1, 104717, Note_on_c, 0, 88, 86
1, 104727, Note_off_c, 0, 55, 65
1, 104727, Control_c, 0, 64, 127
1, 104783, Note_off_c, 0, 88, 65
1, 104798, Note_on_c, 0, 84, 90
1, 104820, Note_on_c, 0, 69, 84
1, 104822, Note_on_c, 0, 64, 75
1, 104823, Note_on_c, 0, 62, 75
1, 104833, Note_on_c, 0, 65, 56
1, 104843, Note_off_c, 0, 69, 69
1, 104844, Note_on_c, 0, 57, 62
1, 104844, Note_on_c, 0, 59, 54
1, 104846, Note_on_c, 0, 60, 51
1, 104852, Note_off_c, 0, 64, 65
1, 104856, Note_off_c, 0, 65, 59
1, 104856, Note_off_c, 0, 84, 64
1, 104858, Note_off_c, 0, 62, 65
1, 104872, Note_off_c, 0, 60, 56
1, 104873, Note_off_c, 0, 57, 65
1, 104874, Note_off_c, 0, 59, 66
1, 104886, Note_on_c, 0, 96, 90
1, 104926, Note_on_c, 0, 69, 7
1, 104943, Note_off_c, 0, 96, 67
1, 104958, Note_off_c, 0, 69, 0
1, 104965, Control_c, 0, 64, 111
1, 104974, Poly_aftertouch_c, 0, 69, 0
1, 104979, Note_on_c, 0, 86, 96
1, 104979, Control_c, 0, 64, 85
1, 104990, Note_on_c, 0, 43, 95
1, 104994, Control_c, 0, 64, 81
1, 105009, Control_c, 0, 64, 83
1, 105023, Control_c, 0, 64, 101
1, 105034, Note_off_c, 0, 86, 66
1, 105038, Control_c, 0, 64, 127
1, 105063, Note_off_c, 0, 43, 65
1, 105075, Note_on_c, 0, 55, 80
1, 105082, Note_on_c, 0, 88, 92
1, 105099, Note_off_c, 0, 55, 66
1, 105149, Note_off_c, 0, 88, 65
1, 105177, Note_on_c, 0, 84, 96
1, 105186, Note_on_c, 0, 67, 94
1, 105193, Note_on_c, 0, 64, 81
1, 105193, Note_on_c, 0, 69, 82
1, 105197, Note_on_c, 0, 60, 77
1, 105212, Note_off_c, 0, 69, 71
1, 105222, Note_off_c, 0, 67, 65
1, 105238, Note_off_c, 0, 64, 66
1, 105245, Note_off_c, 0, 60, 64
1, 105246, Note_off_c, 0, 84, 65
1, 105274, Note_on_c, 0, 96, 94
1, 105326, Poly_aftertouch_c, 0, 69, 127
1, 105358, Poly_aftertouch_c, 0, 69, 0
1, 105362, Note_on_c, 0, 43, 91
1, 105366, Note_on_c, 0, 86, 98
1, 105373, Note_off_c, 0, 96, 63
1, 105428, Note_on_c, 0, 55, 64
1, 105432, Note_off_c, 0, 43, 64
1, 105436, Note_off_c, 0, 86, 63
1, 105460, Note_off_c, 0, 55, 65
1, 105460, Note_on_c, 0, 98, 91
1, 105544, Note_on_c, 0, 67, 101
1, 105547, Note_on_c, 0, 64, 87
1, 105550, Note_on_c, 0, 96, 99
1, 105552, Note_on_c, 0, 69, 82
1, 105558, Note_on_c, 0, 60, 74
1, 105561, Note_off_c, 0, 98, 65
1, 105573, Note_off_c, 0, 69, 70
1, 105582, Note_off_c, 0, 67, 66
1, 105594, Note_off_c, 0, 64, 66
1, 105600, Note_off_c, 0, 60, 61
1, 105639, Note_on_c, 0, 69, 16
1, 105648, Note_on_c, 0, 91, 89
1, 105665, Note_off_c, 0, 96, 65
1, 105672, Note_off_c, 0, 69, 49
1, 105723, Note_off_c, 0, 91, 65
1, 105724, Note_on_c, 0, 43, 94
1, 105743, Note_on_c, 0, 86, 89
1, 105758, Note_on_c, 0, 88, 64
1, 105776, Note_off_c, 0, 88, 67
1, 105785, Note_on_c, 0, 55, 61
1, 105793, Note_off_c, 0, 86, 64
1, 105796, Note_off_c, 0, 43, 64
1, 105833, Note_on_c, 0, 88, 96
1, 105838, Note_off_c, 0, 55, 64
1, 105890, Note_off_c, 0, 88, 67
1, 105922, Note_on_c, 0, 84, 100
1, 105923, Note_on_c, 0, 71, 85
1, 105925, Note_on_c, 0, 64, 73
1, 105929, Note_on_c, 0, 62, 69
1, 105931, Note_on_c, 0, 65, 68
1, 105934, Note_on_c, 0, 67, 66
1, 105940, Note_on_c, 0, 59, 57
1, 105943, Note_off_c, 0, 71, 69
1, 105949, Note_off_c, 0, 67, 69
1, 105956, Note_off_c, 0, 65, 67
1, 105960, Note_off_c, 0, 64, 64
1, 105961, Note_off_c, 0, 62, 66
1, 105964, Note_on_c, 0, 60, 42
1, 105985, Note_off_c, 0, 59, 66
1, 105987, Note_off_c, 0, 60, 59
1, 106006, Note_off_c, 0, 84, 66
1, 106008, Note_on_c, 0, 96, 101
1, 106028, Note_off_c, 0, 96, 66
1, 106080, Poly_aftertouch_c, 0, 71, 0
1, 106121, Control_c, 0, 64, 116
1, 106136, Control_c, 0, 64, 60
1, 106142, Note_on_c, 0, 32, 34
1, 106150, Control_c, 0, 64, 0
1, 106192, Note_off_c, 0, 32, 47
1, 106347, Note_on_c, 0, 84, 94
1, 106350, Note_on_c, 0, 76, 95
1, 106352, Note_on_c, 0, 72, 102
1, 106352, Note_on_c, 0, 79, 87
1, 106353, Note_on_c, 0, 40, 85
1, 106354, Note_on_c, 0, 43, 85
1, 106357, Note_on_c, 0, 81, 91
1, 106359, Note_on_c, 0, 31, 76
1, 106363, Note_on_c, 0, 36, 68
1, 106372, Control_c, 0, 64, 55
1, 106387, Control_c, 0, 64, 94
1, 106393, Note_on_c, 0, 35, 31
1, 106394, Note_off_c, 0, 35, 127
1, 106397, Note_off_c, 0, 72, 64
1, 106402, Control_c, 0, 64, 127
1, 106411, Note_off_c, 0, 43, 64
1, 106420, Note_off_c, 0, 76, 64
1, 106420, Note_off_c, 0, 84, 66
1, 106439, Note_off_c, 0, 40, 62
1, 106447, Note_off_c, 0, 81, 59
1, 106448, Note_off_c, 0, 79, 63
1, 106455, Note_off_c, 0, 31, 55
1, 106464, Note_off_c, 0, 36, 62
1, 106536, Control_c, 0, 64, 77
1, 106551, Control_c, 0, 64, 56
1, 106573, Control_c, 0, 64, 0
1, 106794, Note_on_c, 0, 74, 96
1, 106794, Note_on_c, 0, 84, 92
1, 106795, Note_on_c, 0, 72, 101
1, 106795, Note_on_c, 0, 43, 93
1, 106796, Note_on_c, 0, 38, 85
1, 106796, Control_c, 0, 64, 56
1, 106797, Note_on_c, 0, 41, 91
1, 106797, Note_on_c, 0, 77, 85
1, 106798, Note_on_c, 0, 81, 86
1, 106801, Note_on_c, 0, 35, 73
1, 106803, Note_on_c, 0, 31, 74
1, 106811, Control_c, 0, 64, 127
1, 106816, Note_off_c, 0, 77, 72
1, 106825, Note_off_c, 0, 74, 64
1, 106825, Note_off_c, 0, 72, 60
1, 106827, Note_off_c, 0, 41, 58
1, 106828, Note_on_c, 0, 79, 50
1, 106833, Note_off_c, 0, 35, 63
1, 106834, Note_off_c, 0, 31, 65
1, 106837, Note_off_c, 0, 81, 68
1, 106839, Note_off_c, 0, 43, 65
1, 106843, Note_off_c, 0, 38, 63
1, 106849, Note_off_c, 0, 84, 68
1, 106858, Note_off_c, 0, 79, 55
1, 106870, Control_c, 0, 64, 96
1, 106885, Control_c, 0, 64, 65
1, 106894, Note_on_c, 0, 77, 14
1, 106900, Control_c, 0, 64, 25
1, 106913, Note_off_c, 0, 77, 39
1, 106915, Control_c, 0, 64, 0
1, 106998, Note_on_c, 0, 92, 13
1, 107033, Note_off_c, 0, 92, 36
1, 107068, Note_on_c, 0, 86, 108
1, 107078, Control_c, 0, 64, 26
1, 107079, Note_on_c, 0, 43, 102
1, 107092, Control_c, 0, 64, 127
1, 107102, Note_on_c, 0, 91, 52
1, 107103, Note_on_c, 0, 41, 68
1, 107129, Note_off_c, 0, 41, 60
1, 107131, Note_off_c, 0, 91, 56
1, 107168, Note_off_c, 0, 43, 63
1, 107186, Note_on_c, 0, 55, 84
1, 107195, Note_on_c, 0, 98, 87
1, 107210, Note_off_c, 0, 55, 68
1, 107302, Note_on_c, 0, 96, 100
1, 107321, Note_off_c, 0, 98, 64
1, 107326, Note_on_c, 0, 67, 82
1, 107327, Note_on_c, 0, 64, 84
1, 107335, Note_on_c, 0, 69, 68
1, 107340, Note_on_c, 0, 71, 62
1, 107348, Note_on_c, 0, 60, 54
1, 107350, Note_on_c, 0, 62, 63
1, 107355, Note_off_c, 0, 67, 66
1, 107361, Note_off_c, 0, 69, 68
1, 107361, Note_off_c, 0, 71, 63
1, 107361, Note_off_c, 0, 86, 64
1, 107377, Note_off_c, 0, 62, 67
1, 107377, Note_off_c, 0, 64, 63
1, 107378, Note_off_c, 0, 60, 64
1, 107409, Note_on_c, 0, 91, 92
1, 107441, Note_off_c, 0, 96, 62
1, 107478, Note_off_c, 0, 91, 65
1, 107502, Note_on_c, 0, 86, 95
1, 107508, Note_on_c, 0, 43, 90
1, 107559, Note_off_c, 0, 86, 65
1, 107580, Note_on_c, 0, 55, 82
1, 107583, Note_off_c, 0, 43, 62
1, 107592, Note_on_c, 0, 88, 90
1, 107606, Note_off_c, 0, 55, 67
1, 107654, Note_off_c, 0, 88, 66
1, 107686, Note_on_c, 0, 84, 96
1, 107701, Note_on_c, 0, 64, 84
1, 107702, Note_on_c, 0, 65, 82
1, 107711, Note_on_c, 0, 69, 68
1, 107712, Note_on_c, 0, 59, 71
1, 107723, Note_on_c, 0, 62, 54
1, 107725, Note_off_c, 0, 64, 68
1, 107725, Note_off_c, 0, 65, 68
1, 107730, Note_off_c, 0, 69, 67
1, 107746, Note_off_c, 0, 62, 61
1, 107746, Note_off_c, 0, 59, 67
1, 107770, Note_off_c, 0, 84, 65
1, 107786, Note_on_c, 0, 96, 92
1, 107827, Control_c, 0, 64, 82
1, 107841, Control_c, 0, 64, 27
1, 107856, Control_c, 0, 64, 0
1, 107871, Control_c, 0, 64, 28
1, 107879, Note_on_c, 0, 43, 91
1, 107882, Note_on_c, 0, 86, 93
1, 107886, Control_c, 0, 64, 66
1, 107889, Note_off_c, 0, 96, 62
1, 107901, Control_c, 0, 64, 127
1, 107961, Note_on_c, 0, 55, 88
1, 107961, Note_off_c, 0, 43, 63
1, 107964, Note_off_c, 0, 86, 64
1, 107980, Note_on_c, 0, 98, 95
1, 107984, Note_off_c, 0, 55, 68
1, 108053, Note_off_c, 0, 98, 65
1, 108074, Note_on_c, 0, 96, 99
1, 108083, Note_on_c, 0, 67, 97
1, 108086, Note_on_c, 0, 64, 91
1, 108092, Note_on_c, 0, 71, 79
1, 108095, Note_on_c, 0, 60, 84
1, 108111, Note_on_c, 0, 69, 56
1, 108116, Note_off_c, 0, 71, 69
1, 108118, Note_off_c, 0, 67, 67
1, 108131, Note_off_c, 0, 69, 65
1, 108138, Note_off_c, 0, 64, 67
1, 108143, Note_off_c, 0, 60, 63
1, 108171, Note_on_c, 0, 91, 90
1, 108199, Note_off_c, 0, 96, 63
1, 108241, Note_off_c, 0, 91, 64
1, 108264, Note_on_c, 0, 86, 96
1, 108271, Note_on_c, 0, 43, 91
1, 108316, Note_off_c, 0, 86, 67
1, 108348, Note_off_c, 0, 43, 63
1, 108350, Note_on_c, 0, 55, 85
1, 108357, Note_on_c, 0, 88, 93
1, 108380, Note_off_c, 0, 55, 66
1, 108423, Note_off_c, 0, 88, 65
1, 108447, Note_on_c, 0, 84, 101
1, 108459, Note_on_c, 0, 64, 88
1, 108462, Note_on_c, 0, 65, 85
1, 108466, Note_on_c, 0, 69, 85
1, 108469, Note_on_c, 0, 59, 77
1, 108472, Note_on_c, 0, 62, 71
1, 108488, Note_off_c, 0, 69, 70
1, 108493, Note_off_c, 0, 65, 63
1, 108503, Note_off_c, 0, 62, 66
1, 108505, Note_off_c, 0, 64, 66
1, 108517, Note_off_c, 0, 84, 65
1, 108521, Note_off_c, 0, 59, 66
1, 108542, Note_on_c, 0, 96, 98
1, 108561, Note_on_c, 0, 69, 19
1, 108590, Control_c, 0, 64, 79
1, 108599, Note_off_c, 0, 69, 43
1, 108605, Control_c, 0, 64, 48
1, 108620, Control_c, 0, 64, 0
1, 108635, Note_on_c, 0, 86, 99
1, 108635, Control_c, 0, 64, 37
1, 108638, Note_on_c, 0, 43, 98
1, 108649, Control_c, 0, 64, 71
1, 108652, Note_off_c, 0, 96, 65
1, 108662, Note_on_c, 0, 84, 55
1, 108664, Control_c, 0, 64, 127
1, 108682, Note_off_c, 0, 84, 65
1, 108703, Note_off_c, 0, 86, 65
1, 108708, Note_off_c, 0, 43, 66
1, 108713, Note_on_c, 0, 55, 78
1, 108735, Note_on_c, 0, 98, 98
1, 108743, Note_off_c, 0, 55, 66
1, 108831, Note_on_c, 0, 67, 102
1, 108834, Note_on_c, 0, 96, 105
1, 108837, Note_on_c, 0, 69, 92
1, 108841, Note_on_c, 0, 64, 78
1, 108846, Note_on_c, 0, 60, 78
1, 108859, Note_off_c, 0, 69, 71
1, 108864, Note_off_c, 0, 98, 63
1, 108864, Note_off_c, 0, 67, 68
1, 108866, Note_on_c, 0, 62, 46
1, 108882, Note_off_c, 0, 64, 66
1, 108886, Note_off_c, 0, 60, 62
1, 108894, Note_off_c, 0, 62, 61
1, 108930, Note_on_c, 0, 91, 91
1, 108936, Note_on_c, 0, 69, 7
1, 108963, Note_off_c, 0, 96, 59
1, 108983, Note_off_c, 0, 69, 37
1, 109006, Note_off_c, 0, 91, 62
1, 109012, Note_on_c, 0, 43, 84
1, 109022, Note_on_c, 0, 86, 91
1, 109070, Note_off_c, 0, 86, 67
1, 109087, Note_off_c, 0, 43, 63
1, 109099, Note_on_c, 0, 55, 68
1, 109100, Note_on_c, 0, 57, 73
1, 109108, Note_on_c, 0, 88, 93
1, 109126, Note_off_c, 0, 57, 67
1, 109126, Note_off_c, 0, 55, 66
1, 109183, Note_off_c, 0, 88, 65
1, 109201, Note_on_c, 0, 65, 98
1, 109202, Note_on_c, 0, 84, 96
1, 109210, Note_on_c, 0, 64, 83
1, 109216, Note_on_c, 0, 67, 62
1, 109217, Note_off_c, 0, 67, 127
1, 109217, Note_on_c, 0, 71, 77
1, 109219, Note_on_c, 0, 59, 66
1, 109232, Note_off_c, 0, 71, 68
1, 109239, Note_on_c, 0, 60, 60
1, 109240, Note_off_c, 0, 64, 0
1, 109241, Note_on_c, 0, 62, 47
1, 109249, Note_off_c, 0, 65, 62
1, 109261, Note_off_c, 0, 60, 62
1, 109264, Note_off_c, 0, 59, 65
1, 109271, Note_off_c, 0, 62, 54
1, 109277, Poly_aftertouch_c, 0, 64, 127
1, 109284, Note_off_c, 0, 84, 64
1, 109303, Note_on_c, 0, 96, 92
1, 109326, Poly_aftertouch_c, 0, 64, 0
1, 109347, Note_off_c, 0, 96, 67
1, 109385, Note_on_c, 0, 43, 88
1, 109385, Note_on_c, 0, 86, 95
1, 109472, Note_on_c, 0, 55, 69
1, 109476, Note_off_c, 0, 43, 62
1, 109479, Note_on_c, 0, 57, 62
1, 109481, Note_on_c, 0, 88, 102
1, 109481, Note_off_c, 0, 86, 63
1, 109499, Note_off_c, 0, 55, 66
1, 109508, Note_off_c, 0, 57, 64
1, 109564, Note_off_c, 0, 88, 58
1, 109573, Note_on_c, 0, 84, 99
1, 109582, Note_on_c, 0, 64, 94
1, 109584, Note_on_c, 0, 65, 98
1, 109588, Note_on_c, 0, 69, 97
1, 109591, Note_on_c, 0, 62, 82
1, 109592, Note_on_c, 0, 59, 83
1, 109609, Note_off_c, 0, 69, 69
1, 109621, Note_off_c, 0, 65, 67
1, 109625, Note_off_c, 0, 64, 66
1, 109630, Note_off_c, 0, 62, 61
1, 109645, Note_off_c, 0, 59, 65
1, 109657, Note_off_c, 0, 84, 64
1, 109672, Note_on_c, 0, 96, 98
1, 109717, Note_off_c, 0, 96, 67
1, 109759, Note_on_c, 0, 86, 90
1, 109761, Note_on_c, 0, 43, 92
1, 109771, Note_on_c, 0, 88, 71
1, 109791, Note_off_c, 0, 88, 40
1, 109841, Note_on_c, 0, 55, 83
1, 109841, Note_off_c, 0, 43, 63
1, 109845, Poly_aftertouch_c, 0, 95, 0
1, 109857, Note_on_c, 0, 88, 97
1, 109862, Note_off_c, 0, 86, 67
1, 109871, Note_off_c, 0, 55, 67
1, 109935, Note_off_c, 0, 88, 66
1, 109959, Note_on_c, 0, 84, 96
1, 109962, Note_on_c, 0, 65, 94
1, 109962, Note_on_c, 0, 69, 97
1, 109964, Note_on_c, 0, 64, 84
1, 109968, Note_on_c, 0, 62, 79
1, 109971, Note_on_c, 0, 59, 80
1, 109991, Note_off_c, 0, 69, 66
1, 109993, Note_off_c, 0, 64, 68
1, 109994, Note_off_c, 0, 62, 67
1, 109996, Note_off_c, 0, 65, 62
1, 110029, Note_off_c, 0, 59, 58
1, 110088, Note_on_c, 0, 96, 103
1, 110099, Note_off_c, 0, 84, 66
1, 110116, Note_off_c, 0, 96, 69
1, 110332, Control_c, 0, 64, 74
1, 110347, Control_c, 0, 64, 0
1, 110552, Note_on_c, 0, 84, 99
1, 110554, Note_on_c, 0, 48, 91
1, 110555, Note_on_c, 0, 50, 91
1, 110558, Note_on_c, 0, 72, 111
1, 110559, Note_on_c, 0, 76, 97
1, 110560, Note_on_c, 0, 45, 90
1, 110561, Note_on_c, 0, 79, 90
1, 110561, Note_on_c, 0, 81, 88
1, 110567, Note_on_c, 0, 40, 79
1, 110570, Note_on_c, 0, 38, 78
1, 110629, Control_c, 0, 64, 68
1, 110643, Control_c, 0, 64, 127
1, 110685, Note_off_c, 0, 50, 65
1, 110693, Note_off_c, 0, 48, 61
1, 110703, Note_off_c, 0, 45, 65
1, 110718, Note_off_c, 0, 76, 63
1, 110720, Note_off_c, 0, 79, 62
1, 110726, Note_off_c, 0, 38, 53
1, 110743, Note_off_c, 0, 40, 61
1, 110778, Note_off_c, 0, 84, 60
1, 110790, Note_off_c, 0, 72, 49
1, 110895, Note_off_c, 0, 81, 41
1, 110931, Poly_aftertouch_c, 0, 39, 127
1, 110953, Note_on_c, 0, 43, 100
1, 110955, Control_c, 0, 64, 65
1, 110957, Note_on_c, 0, 71, 114
1, 110957, Note_on_c, 0, 38, 92
1, 110957, Note_on_c, 0, 84, 90
1, 110958, Note_on_c, 0, 39, 37
1, 110968, Note_on_c, 0, 81, 83
1, 110970, Note_on_c, 0, 33, 79
1, 110970, Control_c, 0, 64, 0
1, 110975, Note_on_c, 0, 31, 76
1, 110978, Note_on_c, 0, 75, 64
1, 110991, Note_off_c, 0, 39, 56
1, 110993, Note_off_c, 0, 43, 66
1, 110995, Note_off_c, 0, 75, 68
1, 110995, Note_off_c, 0, 31, 67
1, 110998, Note_off_c, 0, 81, 64
1, 110998, Note_on_c, 0, 34, 15
1, 110998, Note_on_c, 0, 82, 41
1, 110998, Note_off_c, 0, 38, 63
1, 110999, Note_off_c, 0, 71, 68
1, 111007, Note_off_c, 0, 33, 65
1, 111023, Note_off_c, 0, 34, 46
1, 111028, Note_off_c, 0, 82, 36
1, 111043, Note_off_c, 0, 84, 63
1, 111185, Note_on_c, 0, 84, 98
1, 111190, Note_on_c, 0, 76, 94
1, 111192, Note_on_c, 0, 72, 97
1, 111195, Note_on_c, 0, 79, 87
1, 111195, Note_on_c, 0, 36, 102
1, 111198, Note_on_c, 0, 81, 83
1, 111198, Note_on_c, 0, 31, 100
1, 111201, Note_on_c, 0, 28, 90
1, 111205, Note_on_c, 0, 24, 89
1, 111213, Note_off_c, 0, 72, 68
1, 111214, Control_c, 0, 64, 79
1, 111220, Note_off_c, 0, 84, 70
1, 111221, Note_off_c, 0, 81, 69
1, 111224, Note_off_c, 0, 76, 67
1, 111227, Note_off_c, 0, 79, 67
1, 111228, Note_off_c, 0, 31, 68
1, 111229, Note_off_c, 0, 28, 67
1, 111229, Control_c, 0, 64, 127
1, 111234, Note_off_c, 0, 24, 66
1, 111235, Note_off_c, 0, 36, 66
1, 111556, Control_c, 0, 64, 113
1, 111571, Control_c, 0, 64, 69
1, 111586, Control_c, 0, 64, 34
1, 111601, Control_c, 0, 64, 0
1, 112507, Note_on_c, 0, 42, 98
1, 112517, Note_on_c, 0, 30, 80
1, 112527, Control_c, 0, 64, 24
1, 112542, Control_c, 0, 64, 127
1, 112544, Note_off_c, 0, 30, 69
1, 112548, Note_off_c, 0, 42, 65
1, 113040, Note_on_c, 0, 103, 112
1, 113041, Note_on_c, 0, 60, 80
1, 113045, Note_on_c, 0, 96, 88
1, 113046, Note_on_c, 0, 91, 92
1, 113068, Note_off_c, 0, 60, 67
1, 113097, Note_off_c, 0, 91, 65
1, 113129, Note_off_c, 0, 103, 69
1, 113147, Note_off_c, 0, 96, 65
1, 113322, Note_on_c, 0, 67, 87
1, 113337, Note_on_c, 0, 96, 101
1, 113341, Note_on_c, 0, 84, 93
1, 113343, Note_on_c, 0, 60, 67
1, 113383, Note_off_c, 0, 84, 67
1, 113407, Note_off_c, 0, 96, 67
1, 113428, Note_off_c, 0, 67, 57
1, 113437, Note_off_c, 0, 60, 56
1, 113519, Note_on_c, 0, 72, 84
1, 113525, Note_on_c, 0, 103, 103
1, 113531, Note_on_c, 0, 91, 94
1, 113543, Note_off_c, 0, 72, 66
1, 113547, Note_on_c, 0, 60, 34
1, 113562, Note_off_c, 0, 91, 64
1, 113586, Note_off_c, 0, 60, 42
1, 113708, Note_on_c, 0, 78, 78
1, 113710, Note_on_c, 0, 66, 77
1, 113719, Note_off_c, 0, 103, 64
1, 113720, Note_on_c, 0, 102, 97
1, 113730, Note_on_c, 0, 90, 78
1, 113732, Note_off_c, 0, 78, 68
1, 113754, Note_off_c, 0, 90, 69
1, 113763, Note_off_c, 0, 66, 63
1, 113767, Note_off_c, 0, 102, 66
1, 113797, Note_on_c, 0, 76, 72
1, 113799, Note_on_c, 0, 64, 68
1, 113809, Note_on_c, 0, 100, 89
1, 113818, Note_on_c, 0, 88, 70
1, 113823, Note_off_c, 0, 76, 67
1, 113827, Note_off_c, 0, 64, 66
1, 113834, Note_off_c, 0, 88, 71
1, 113889, Note_on_c, 0, 75, 90
1, 113890, Note_on_c, 0, 63, 91
1, 113891, Note_off_c, 0, 100, 41
1, 113894, Note_on_c, 0, 99, 98
1, 113899, Note_on_c, 0, 87, 94
1, 114091, Control_c, 0, 64, 108
1, 114106, Control_c, 0, 64, 87
1, 114121, Control_c, 0, 64, 76
1, 114136, Control_c, 0, 64, 67
1, 114151, Control_c, 0, 64, 61
1, 114165, Control_c, 0, 64, 55
1, 114180, Control_c, 0, 64, 53
1, 114195, Control_c, 0, 64, 55
1, 114209, Control_c, 0, 64, 59
1, 114224, Control_c, 0, 64, 63
1, 114239, Control_c, 0, 64, 64
1, 114269, Control_c, 0, 64, 64
1, 114283, Control_c, 0, 64, 65
1, 114298, Control_c, 0, 64, 67
1, 114313, Control_c, 0, 64, 69
1, 114328, Control_c, 0, 64, 70
1, 114343, Control_c, 0, 64, 71
1, 114358, Control_c, 0, 64, 70
1, 114388, Control_c, 0, 64, 69
1, 114403, Control_c, 0, 64, 66
1, 114417, Control_c, 0, 64, 62
1, 114432, Control_c, 0, 64, 56
1, 114447, Control_c, 0, 64, 49
1, 114462, Control_c, 0, 64, 45
1, 114476, Control_c, 0, 64, 41
1, 114491, Control_c, 0, 64, 39
1, 114506, Control_c, 0, 64, 40
1, 114521, Control_c, 0, 64, 41
1, 114536, Control_c, 0, 64, 43
1, 114550, Control_c, 0, 64, 48
1, 114565, Control_c, 0, 64, 51
1, 114580, Control_c, 0, 64, 55
1, 114595, Control_c, 0, 64, 59
1, 114609, Control_c, 0, 64, 63
1, 114624, Control_c, 0, 64, 65
1, 114639, Control_c, 0, 64, 68
1, 114654, Control_c, 0, 64, 72
1, 114669, Control_c, 0, 64, 79
1, 114685, Control_c, 0, 64, 84
1, 114699, Control_c, 0, 64, 90
1, 114714, Control_c, 0, 64, 93
1, 114729, Control_c, 0, 64, 95
1, 114744, Control_c, 0, 64, 100
1, 114759, Control_c, 0, 64, 111
1, 114774, Control_c, 0, 64, 127
1, 114889, Note_off_c, 0, 99, 61
1, 114907, Note_off_c, 0, 87, 54
1, 114960, Note_off_c, 0, 75, 60
1, 115478, Control_c, 0, 64, 104
1, 115493, Control_c, 0, 64, 96
1, 115508, Control_c, 0, 64, 92
1, 115522, Control_c, 0, 64, 88
1, 115537, Control_c, 0, 64, 82
1, 115559, Control_c, 0, 64, 76
1, 115574, Control_c, 0, 64, 70
1, 115589, Control_c, 0, 64, 64
1, 115604, Control_c, 0, 64, 57
1, 115619, Control_c, 0, 64, 51
1, 115634, Control_c, 0, 64, 41
1, 115649, Control_c, 0, 64, 26
1, 115663, Control_c, 0, 64, 0
1, 116048, Control_c, 0, 64, 12
1, 116078, Control_c, 0, 64, 15
1, 116093, Control_c, 0, 64, 24
1, 116108, Control_c, 0, 64, 34
1, 116123, Control_c, 0, 64, 40
1, 116137, Control_c, 0, 64, 44
1, 116152, Control_c, 0, 64, 48
1, 116167, Control_c, 0, 64, 51
1, 116181, Control_c, 0, 64, 55
1, 116196, Control_c, 0, 64, 60
1, 116211, Control_c, 0, 64, 63
1, 116226, Control_c, 0, 64, 65
1, 116241, Control_c, 0, 64, 67
1, 116241, Control_c, 0, 67, 10
1, 116255, Control_c, 0, 64, 70
1, 116255, Control_c, 0, 67, 12
1, 116271, Control_c, 0, 64, 75
1, 116271, Control_c, 0, 67, 14
1, 116286, Control_c, 0, 64, 79
1, 116286, Control_c, 0, 67, 17
1, 116308, Control_c, 0, 64, 83
1, 116308, Control_c, 0, 67, 20
1, 116323, Control_c, 0, 64, 88
1, 116323, Control_c, 0, 67, 26
1, 116338, Control_c, 0, 64, 94
1, 116338, Control_c, 0, 67, 34
1, 116352, Control_c, 0, 64, 101
1, 116352, Control_c, 0, 67, 42
1, 116367, Control_c, 0, 64, 109
1, 116367, Control_c, 0, 67, 50
1, 116382, Control_c, 0, 64, 127
1, 116382, Control_c, 0, 67, 55
1, 116397, Control_c, 0, 67, 61
1, 116412, Control_c, 0, 67, 68
1, 116427, Control_c, 0, 67, 77
1, 116442, Control_c, 0, 67, 86
1, 116446, Note_off_c, 0, 63, 60
1, 116456, Control_c, 0, 67, 97
1, 116471, Control_c, 0, 67, 103
1, 116486, Control_c, 0, 67, 106
1, 116501, Control_c, 0, 67, 109
1, 116516, Control_c, 0, 67, 113
1, 116531, Control_c, 0, 67, 117
1, 116546, Control_c, 0, 67, 121
1, 116560, Control_c, 0, 67, 124
1, 116575, Control_c, 0, 67, 126
1, 116590, Control_c, 0, 67, 127
1, 116707, Note_on_c, 0, 78, 65
1, 116741, Note_on_c, 0, 71, 36
1, 116749, Note_on_c, 0, 68, 40
1, 116758, Note_on_c, 0, 62, 38
1, 116826, Control_c, 0, 64, 95
1, 116841, Control_c, 0, 64, 77
1, 116856, Control_c, 0, 64, 67
1, 116871, Control_c, 0, 64, 63
1, 116878, Note_on_c, 0, 77, 75
1, 116886, Control_c, 0, 64, 66
1, 116891, Note_off_c, 0, 68, 59
1, 116901, Control_c, 0, 64, 72
1, 116903, Note_off_c, 0, 71, 60
1, 116915, Control_c, 0, 64, 82
1, 116922, Note_off_c, 0, 78, 59
1, 116930, Control_c, 0, 64, 93
1, 116945, Control_c, 0, 64, 94
1, 117008, Note_on_c, 0, 76, 83
1, 117008, Note_off_c, 0, 77, 65
1, 117055, Control_c, 0, 64, 92
1, 117070, Control_c, 0, 64, 87
1, 117085, Control_c, 0, 64, 80
1, 117100, Control_c, 0, 64, 73
1, 117115, Control_c, 0, 64, 68
1, 117130, Control_c, 0, 64, 65
1, 117145, Control_c, 0, 64, 63
1, 117160, Control_c, 0, 64, 61
1, 117174, Control_c, 0, 64, 59
1, 117189, Control_c, 0, 64, 57
1, 117204, Control_c, 0, 64, 55
1, 117219, Control_c, 0, 64, 53
1, 117223, Note_on_c, 0, 75, 78
1, 117233, Control_c, 0, 64, 49
1, 117248, Control_c, 0, 64, 43
1, 117252, Note_on_c, 0, 73, 48
1, 117258, Note_off_c, 0, 76, 60
1, 117260, Note_on_c, 0, 69, 49
1, 117263, Control_c, 0, 64, 38
1, 117267, Note_on_c, 0, 63, 44
1, 117278, Control_c, 0, 64, 32
1, 117293, Control_c, 0, 64, 23
1, 117307, Control_c, 0, 64, 12
1, 117321, Note_off_c, 0, 62, 42
1, 117322, Control_c, 0, 64, 0
1, 117693, Control_c, 0, 67, 127
1, 117722, Control_c, 0, 67, 126
1, 117752, Control_c, 0, 67, 126
1, 117849, Control_c, 0, 64, 12
1, 117849, Control_c, 0, 67, 125
1, 117863, Control_c, 0, 64, 19
1, 117879, Control_c, 0, 64, 28
1, 117894, Control_c, 0, 64, 37
1, 117894, Control_c, 0, 67, 125
1, 117909, Control_c, 0, 64, 41
1, 117924, Control_c, 0, 64, 43
1, 117924, Control_c, 0, 67, 124
1, 117938, Control_c, 0, 64, 45
1, 117938, Control_c, 0, 67, 124
1, 117953, Control_c, 0, 64, 47
1, 117953, Control_c, 0, 67, 123
1, 117968, Control_c, 0, 64, 50
1, 117983, Control_c, 0, 64, 53
1, 117983, Control_c, 0, 67, 122
1, 117998, Control_c, 0, 64, 56
1, 117998, Control_c, 0, 67, 121
1, 118012, Control_c, 0, 64, 57
1, 118012, Control_c, 0, 67, 120
1, 118027, Control_c, 0, 64, 58
1, 118042, Control_c, 0, 67, 120
1, 118057, Control_c, 0, 64, 58
1, 118057, Control_c, 0, 67, 119
1, 118087, Control_c, 0, 67, 119
1, 118117, Control_c, 0, 64, 58
1, 118131, Control_c, 0, 64, 57
1, 118146, Control_c, 0, 64, 55
1, 118146, Control_c, 0, 67, 118
1, 118191, Control_c, 0, 64, 56
1, 118191, Control_c, 0, 67, 118
1, 118205, Control_c, 0, 64, 57
1, 118220, Control_c, 0, 64, 60
1, 118220, Control_c, 0, 67, 117
1, 118235, Control_c, 0, 64, 63
1, 118235, Control_c, 0, 67, 116
1, 118249, Control_c, 0, 64, 67
1, 118249, Control_c, 0, 67, 116
1, 118264, Control_c, 0, 64, 71
1, 118264, Control_c, 0, 67, 115
1, 118279, Control_c, 0, 64, 76
1, 118279, Control_c, 0, 67, 113
1, 118294, Control_c, 0, 64, 83
1, 118294, Control_c, 0, 67, 112
1, 118309, Control_c, 0, 64, 90
1, 118309, Control_c, 0, 67, 110
1, 118323, Control_c, 0, 64, 97
1, 118323, Control_c, 0, 67, 108
1, 118338, Note_off_c, 0, 75, 56
1, 118338, Control_c, 0, 64, 106
1, 118338, Control_c, 0, 67, 106
1, 118353, Control_c, 0, 64, 124
1, 118353, Control_c, 0, 67, 105
1, 118367, Control_c, 0, 64, 127
1, 118367, Control_c, 0, 67, 102
1, 118382, Control_c, 0, 67, 98
1, 118388, Note_off_c, 0, 73, 58
1, 118397, Control_c, 0, 67, 94
1, 118410, Note_off_c, 0, 69, 52
1, 118412, Control_c, 0, 67, 87
1, 118422, Note_off_c, 0, 63, 56
1, 118427, Control_c, 0, 67, 78
1, 118442, Control_c, 0, 67, 68
1, 118457, Control_c, 0, 67, 58
1, 118472, Control_c, 0, 67, 45
1, 118486, Control_c, 0, 67, 32
1, 118501, Control_c, 0, 67, 20
1, 118516, Control_c, 0, 67, 10
1, 118531, Control_c, 0, 67, 0
1, 118642, Control_c, 0, 64, 122
1, 118656, Control_c, 0, 64, 90
1, 118671, Control_c, 0, 64, 74
1, 118671, Control_c, 0, 67, 8
1, 118687, Control_c, 0, 64, 64
1, 118687, Control_c, 0, 67, 10
1, 118702, Control_c, 0, 64, 51
1, 118702, Control_c, 0, 67, 11
1, 118717, Control_c, 0, 64, 40
1, 118717, Control_c, 0, 67, 11
1, 118732, Control_c, 0, 64, 28
1, 118747, Control_c, 0, 64, 0
1, 118747, Control_c, 0, 67, 12
1, 118761, Control_c, 0, 67, 14
1, 118776, Control_c, 0, 67, 14
1, 118791, Control_c, 0, 67, 15
1, 118806, Control_c, 0, 67, 16
1, 118821, Control_c, 0, 67, 17
1, 118835, Control_c, 0, 67, 18
1, 118850, Control_c, 0, 67, 20
1, 118865, Control_c, 0, 67, 21
1, 118895, Control_c, 0, 67, 21
1, 118910, Control_c, 0, 67, 22
1, 118922, Note_on_c, 0, 75, 80
1, 118940, Control_c, 0, 67, 22
1, 118940, Note_on_c, 0, 58, 69
1, 118940, Note_on_c, 0, 64, 75
1, 118945, Note_on_c, 0, 52, 70
1, 118954, Control_c, 0, 64, 47
1, 118954, Control_c, 0, 67, 23
1, 118961, Note_on_c, 0, 61, 53
1, 118964, Note_on_c, 0, 74, 71
1, 118969, Control_c, 0, 64, 54
1, 118984, Control_c, 0, 64, 35
1, 118986, Note_off_c, 0, 61, 58
1, 118998, Control_c, 0, 64, 0
1, 118998, Control_c, 0, 67, 23
1, 119002, Note_off_c, 0, 64, 62
1, 119004, Note_off_c, 0, 58, 63
1, 119006, Note_off_c, 0, 52, 61
1, 119013, Control_c, 0, 67, 24
1, 119017, Note_on_c, 0, 73, 79
1, 119019, Note_off_c, 0, 74, 65
1, 119036, Note_off_c, 0, 75, 63
1, 119067, Note_on_c, 0, 72, 74
1, 119077, Note_off_c, 0, 73, 65
1, 119081, Note_on_c, 0, 60, 39
1, 119087, Control_c, 0, 67, 23
1, 119092, Note_off_c, 0, 72, 66
1, 119102, Control_c, 0, 67, 20
1, 119114, Note_off_c, 0, 60, 46
1, 119117, Control_c, 0, 67, 17
1, 119132, Control_c, 0, 67, 13
1, 119144, Note_on_c, 0, 71, 90
1, 119146, Control_c, 0, 67, 10
1, 119147, Note_on_c, 0, 72, 81
1, 119150, Note_on_c, 0, 54, 76
1, 119151, Note_on_c, 0, 63, 84
1, 119157, Note_on_c, 0, 66, 68
1, 119161, Control_c, 0, 67, 0
1, 119164, Note_on_c, 0, 60, 51
1, 119175, Note_off_c, 0, 66, 65
1, 119253, Note_off_c, 0, 72, 54
1, 119396, Note_off_c, 0, 60, 59
1, 119416, Note_off_c, 0, 71, 63
1, 119419, Note_on_c, 0, 70, 82
1, 119452, Note_off_c, 0, 63, 64
1, 119464, Note_off_c, 0, 54, 62
1, 119480, Note_on_c, 0, 69, 72
1, 119522, Note_on_c, 0, 68, 84
1, 119524, Note_off_c, 0, 69, 67
1, 119536, Note_off_c, 0, 70, 63
1, 119571, Note_off_c, 0, 68, 68
1, 119580, Note_on_c, 0, 60, 82
1, 119580, Note_on_c, 0, 67, 96
1, 119584, Note_on_c, 0, 64, 88
1, 119592, Note_on_c, 0, 55, 77
1, 119605, Note_off_c, 0, 64, 70
1, 119622, Note_off_c, 0, 60, 62
1, 119625, Note_off_c, 0, 67, 66
1, 119634, Note_off_c, 0, 55, 63
1, 119877, Note_on_c, 0, 42, 89
1, 119884, Note_on_c, 0, 30, 74
1, 119895, Control_c, 0, 64, 13
1, 119905, Note_off_c, 0, 42, 67
1, 119907, Note_off_c, 0, 30, 67
1, 119910, Control_c, 0, 64, 61
1, 119925, Control_c, 0, 64, 68
1, 119940, Control_c, 0, 64, 71
1, 119955, Control_c, 0, 64, 74
1, 119969, Control_c, 0, 64, 77
1, 119984, Control_c, 0, 64, 77
1, 119999, Control_c, 0, 64, 77
1, 120014, Control_c, 0, 64, 75
1, 120028, Control_c, 0, 64, 68
1, 120051, Control_c, 0, 64, 60
1, 120066, Control_c, 0, 64, 51
1, 120081, Control_c, 0, 64, 45
1, 120095, Control_c, 0, 64, 42
1, 120110, Control_c, 0, 64, 36
1, 120125, Control_c, 0, 64, 27
1, 120140, Control_c, 0, 64, 17
1, 120155, Control_c, 0, 64, 0
1, 120228, Control_c, 0, 67, 9
1, 120243, Control_c, 0, 64, 18
1, 120243, Control_c, 0, 67, 10
1, 120258, Control_c, 0, 64, 53
1, 120260, Note_on_c, 0, 75, 68
1, 120264, Note_on_c, 0, 73, 65
1, 120268, Note_on_c, 0, 91, 87
1, 120269, Note_on_c, 0, 63, 60
1, 120273, Control_c, 0, 64, 68
1, 120273, Control_c, 0, 67, 9
1, 120284, Note_on_c, 0, 87, 70
1, 120288, Note_on_c, 0, 79, 62
1, 120288, Note_on_c, 0, 85, 63
1, 120289, Control_c, 0, 64, 77
1, 120304, Control_c, 0, 64, 86
1, 120304, Control_c, 0, 67, 8
1, 120316, Note_off_c, 0, 73, 63
1, 120319, Control_c, 0, 64, 93
1, 120319, Control_c, 0, 67, 8
1, 120328, Note_off_c, 0, 75, 65
1, 120333, Note_off_c, 0, 85, 61
1, 120333, Control_c, 0, 64, 94
1, 120333, Control_c, 0, 67, 0
1, 120338, Note_off_c, 0, 87, 66
1, 120357, Note_off_c, 0, 63, 60
1, 120363, Control_c, 0, 64, 92
1, 120378, Control_c, 0, 64, 80
1, 120393, Control_c, 0, 64, 68
1, 120407, Control_c, 0, 64, 55
1, 120422, Control_c, 0, 64, 42
1, 120430, Note_on_c, 0, 84, 69
1, 120430, Note_on_c, 0, 88, 67
1, 120437, Control_c, 0, 64, 34
1, 120445, Note_on_c, 0, 72, 46
1, 120445, Note_on_c, 0, 64, 46
1, 120448, Note_on_c, 0, 76, 48
1, 120451, Control_c, 0, 64, 24
1, 120466, Control_c, 0, 64, 0
1, 120630, Control_c, 0, 67, 8
1, 120718, Control_c, 0, 67, 8
1, 120919, Control_c, 0, 64, 10
1, 120933, Control_c, 0, 64, 12
1, 120948, Control_c, 0, 64, 16
1, 120963, Control_c, 0, 64, 19
1, 120977, Control_c, 0, 64, 23
1, 120992, Control_c, 0, 64, 25
1, 121007, Control_c, 0, 64, 25
1, 121022, Control_c, 0, 64, 27
1, 121037, Control_c, 0, 64, 32
1, 121051, Control_c, 0, 64, 36
1, 121067, Control_c, 0, 64, 39
1, 121082, Control_c, 0, 64, 40
1, 121097, Control_c, 0, 64, 41
1, 121112, Control_c, 0, 64, 43
1, 121127, Control_c, 0, 64, 46
1, 121141, Control_c, 0, 64, 47
1, 121171, Control_c, 0, 64, 48
1, 121186, Control_c, 0, 64, 48
1, 121201, Control_c, 0, 64, 49
1, 121215, Control_c, 0, 64, 50
1, 121230, Control_c, 0, 64, 51
1, 121245, Control_c, 0, 64, 53
1, 121260, Control_c, 0, 64, 53
1, 121274, Control_c, 0, 64, 54
1, 121334, Control_c, 0, 64, 54
1, 121348, Control_c, 0, 64, 55
1, 121363, Control_c, 0, 64, 56
1, 121378, Control_c, 0, 64, 56
1, 121393, Control_c, 0, 67, 8
1, 121408, Control_c, 0, 64, 57
1, 121423, Control_c, 0, 64, 57
1, 121438, Control_c, 0, 64, 58
1, 121438, Control_c, 0, 67, 0
1, 121452, Control_c, 0, 64, 59
1, 121482, Control_c, 0, 64, 59
1, 121527, Control_c, 0, 64, 60
1, 121548, Control_c, 0, 64, 61
1, 121563, Control_c, 0, 64, 62
1, 121578, Control_c, 0, 64, 63
1, 121593, Control_c, 0, 64, 63
1, 121607, Control_c, 0, 64, 64
1, 121622, Control_c, 0, 64, 64
1, 121652, Control_c, 0, 64, 65
1, 121667, Control_c, 0, 64, 65
1, 121697, Control_c, 0, 64, 66
1, 121712, Control_c, 0, 64, 66
1, 121727, Control_c, 0, 64, 67
1, 121742, Control_c, 0, 64, 68
1, 121756, Control_c, 0, 64, 69
1, 121771, Control_c, 0, 64, 69
1, 121786, Control_c, 0, 64, 70
1, 121800, Control_c, 0, 64, 70
1, 121815, Control_c, 0, 64, 71
1, 121845, Control_c, 0, 64, 71
1, 121890, Control_c, 0, 64, 72
1, 121905, Control_c, 0, 64, 73
1, 121920, Control_c, 0, 64, 73
1, 121935, Control_c, 0, 64, 74
1, 121950, Control_c, 0, 64, 74
1, 121964, Control_c, 0, 64, 75
1, 121979, Control_c, 0, 64, 75
1, 121994, Control_c, 0, 64, 76
1, 122023, Control_c, 0, 64, 76
1, 122038, Control_c, 0, 64, 77
1, 122083, Control_c, 0, 64, 77
1, 122112, Control_c, 0, 64, 78
1, 122142, Control_c, 0, 64, 78
1, 122157, Control_c, 0, 64, 79
1, 122171, Control_c, 0, 64, 79
1, 122186, Control_c, 0, 64, 80
1, 122201, Control_c, 0, 64, 81
1, 122216, Control_c, 0, 64, 83
1, 122230, Control_c, 0, 64, 84
1, 122245, Control_c, 0, 64, 85
1, 122260, Control_c, 0, 64, 87
1, 122275, Control_c, 0, 64, 88
1, 122297, Control_c, 0, 64, 89
1, 122312, Control_c, 0, 64, 90
1, 122327, Control_c, 0, 64, 93
1, 122342, Control_c, 0, 64, 95
1, 122357, Control_c, 0, 64, 97
1, 122371, Control_c, 0, 64, 100
1, 122386, Control_c, 0, 64, 102
1, 122401, Control_c, 0, 64, 104
1, 122416, Control_c, 0, 64, 106
1, 122430, Control_c, 0, 64, 109
1, 122445, Control_c, 0, 64, 112
1, 122460, Control_c, 0, 64, 115
1, 122475, Control_c, 0, 64, 120
1, 122490, Control_c, 0, 64, 127
1, 122567, Note_off_c, 0, 76, 40
1, 122658, Note_off_c, 0, 79, 41
1, 122682, Note_off_c, 0, 72, 33
1, 122703, Note_off_c, 0, 91, 57
1, 122725, Note_off_c, 0, 64, 47
1, 122733, Note_off_c, 0, 84, 60
1, 122767, Note_off_c, 0, 88, 46
1, 123224, Control_c, 0, 64, 109
1, 123239, Control_c, 0, 64, 99
1, 123253, Control_c, 0, 64, 90
1, 123268, Control_c, 0, 64, 83
1, 123283, Control_c, 0, 64, 78
1, 123298, Control_c, 0, 64, 73
1, 123313, Control_c, 0, 64, 70
1, 123327, Control_c, 0, 64, 67
1, 123342, Control_c, 0, 64, 65
1, 123357, Control_c, 0, 64, 62
1, 123372, Control_c, 0, 64, 59
1, 123387, Control_c, 0, 64, 56
1, 123402, Control_c, 0, 64, 53
1, 123417, Control_c, 0, 64, 48
1, 123432, Control_c, 0, 64, 42
1, 123446, Control_c, 0, 64, 34
1, 123462, Control_c, 0, 64, 20
1, 123476, Control_c, 0, 64, 0
1, 123551, Control_c, 0, 67, 8
1, 123566, Control_c, 0, 67, 12
1, 123581, Control_c, 0, 67, 17
1, 123596, Control_c, 0, 67, 22
1, 123611, Control_c, 0, 67, 29
1, 123625, Control_c, 0, 67, 34
1, 123640, Control_c, 0, 67, 40
1, 123655, Control_c, 0, 67, 44
1, 123669, Control_c, 0, 67, 49
1, 123684, Control_c, 0, 67, 53
1, 123699, Control_c, 0, 67, 58
1, 123714, Control_c, 0, 67, 64
1, 123729, Control_c, 0, 67, 70
1, 123743, Control_c, 0, 67, 75
1, 123758, Control_c, 0, 67, 80
1, 123773, Control_c, 0, 67, 85
1, 123795, Control_c, 0, 67, 92
1, 123810, Control_c, 0, 67, 98
1, 123825, Control_c, 0, 67, 102
1, 123840, Control_c, 0, 67, 106
1, 123855, Control_c, 0, 67, 108
1, 123869, Control_c, 0, 67, 111
1, 123884, Control_c, 0, 67, 113
1, 123899, Control_c, 0, 67, 114
1, 123914, Control_c, 0, 67, 115
1, 123929, Control_c, 0, 67, 116
1, 123943, Control_c, 0, 67, 117
1, 123958, Control_c, 0, 67, 117
1, 123973, Control_c, 0, 67, 118
1, 124002, Control_c, 0, 67, 118
1, 124017, Control_c, 0, 67, 119
1, 124032, Control_c, 0, 67, 119
1, 124062, Control_c, 0, 67, 120
1, 124091, Control_c, 0, 67, 120
1, 124106, Control_c, 0, 67, 121
1, 124113, Note_on_c, 0, 60, 53
1, 124114, Note_on_c, 0, 58, 31
1, 124121, Control_c, 0, 67, 123
1, 124136, Control_c, 0, 67, 124
1, 124150, Control_c, 0, 67, 124
1, 124165, Control_c, 0, 67, 125
1, 124180, Control_c, 0, 67, 125
1, 124183, Note_off_c, 0, 60, 60
1, 124186, Note_off_c, 0, 58, 59
1, 124226, Note_on_c, 0, 61, 39
1, 124231, Note_on_c, 0, 64, 56
1, 124240, Control_c, 0, 67, 126
1, 124270, Control_c, 0, 67, 126
1, 124299, Control_c, 0, 67, 127
1, 124309, Note_off_c, 0, 61, 59
1, 124311, Note_off_c, 0, 64, 62
1, 124314, Control_c, 0, 67, 127
1, 124327, Note_on_c, 0, 66, 40
1, 124332, Note_on_c, 0, 67, 56
1, 124451, Note_off_c, 0, 66, 57
1, 124454, Note_off_c, 0, 67, 61
1, 124457, Note_on_c, 0, 72, 62
1, 124467, Note_on_c, 0, 70, 46
1, 125975, Note_on_c, 0, 67, 53
1, 125995, Note_on_c, 0, 66, 43
1, 126014, Note_off_c, 0, 72, 59
1, 126065, Note_off_c, 0, 70, 50
1, 126153, Note_off_c, 0, 66, 56
1, 126180, Note_on_c, 0, 72, 61
1, 126195, Note_on_c, 0, 70, 51
1, 126202, Note_off_c, 0, 67, 45
1, 126346, Note_off_c, 0, 70, 61
1, 126351, Note_off_c, 0, 72, 61
1, 126354, Note_on_c, 0, 67, 58
1, 126371, Note_on_c, 0, 66, 50
1, 126582, Note_off_c, 0, 66, 57
1, 126594, Note_on_c, 0, 70, 52
1, 126629, Note_on_c, 0, 72, 58
1, 126642, Note_on_c, 0, 68, 58
1, 126667, Note_off_c, 0, 67, 56
1, 126836, Note_on_c, 0, 66, 63
1, 126866, Note_off_c, 0, 68, 58
1, 127086, Control_c, 0, 64, 20
1, 127101, Control_c, 0, 64, 38
1, 127116, Control_c, 0, 64, 49
1, 127131, Control_c, 0, 64, 55
1, 127146, Control_c, 0, 64, 58
1, 127161, Control_c, 0, 64, 60
1, 127176, Control_c, 0, 64, 61
1, 127191, Control_c, 0, 64, 63
1, 127206, Control_c, 0, 64, 64
1, 127220, Control_c, 0, 64, 65
1, 127235, Control_c, 0, 64, 66
1, 127250, Control_c, 0, 64, 67
1, 127265, Control_c, 0, 64, 68
1, 127280, Control_c, 0, 64, 68
1, 127398, Control_c, 0, 64, 67
1, 127412, Control_c, 0, 64, 66
1, 127427, Control_c, 0, 64, 65
1, 127442, Control_c, 0, 64, 64
1, 127458, Control_c, 0, 64, 62
1, 127473, Control_c, 0, 64, 60
1, 127488, Control_c, 0, 64, 59
1, 127502, Control_c, 0, 64, 58
1, 127514, Note_on_c, 0, 68, 59
1, 127517, Control_c, 0, 64, 56
1, 127522, Note_off_c, 0, 66, 63
1, 127539, Control_c, 0, 64, 55
1, 127554, Control_c, 0, 64, 53
1, 127569, Control_c, 0, 64, 51
1, 127584, Control_c, 0, 64, 48
1, 127599, Control_c, 0, 64, 43
1, 127614, Control_c, 0, 64, 37
1, 127629, Control_c, 0, 64, 30
1, 127643, Control_c, 0, 64, 28
1, 127673, Control_c, 0, 64, 26
1, 127688, Control_c, 0, 64, 23
1, 127703, Control_c, 0, 64, 17
1, 127717, Control_c, 0, 64, 9
1, 127729, Note_on_c, 0, 66, 63
1, 127732, Control_c, 0, 64, 0
1, 127738, Note_off_c, 0, 68, 60
1, 128206, Control_c, 0, 64, 19
1, 128221, Control_c, 0, 64, 42
1, 128235, Control_c, 0, 64, 57
1, 128250, Control_c, 0, 64, 63
1, 128267, Control_c, 0, 64, 65
1, 128289, Control_c, 0, 64, 66
1, 128304, Control_c, 0, 64, 68
1, 128319, Control_c, 0, 64, 70
1, 128334, Control_c, 0, 64, 74
1, 128348, Control_c, 0, 64, 77
1, 128363, Control_c, 0, 64, 79
1, 128378, Control_c, 0, 64, 81
1, 128393, Control_c, 0, 64, 82
1, 128407, Note_off_c, 0, 70, 30
1, 128408, Control_c, 0, 64, 83
1, 128410, Note_off_c, 0, 72, 63
1, 128438, Control_c, 0, 64, 83
1, 128701, Note_off_c, 0, 66, 37
1, 128764, Control_c, 0, 64, 83
1, 128869, Note_on_c, 0, 72, 52
1, 128874, Note_on_c, 0, 70, 42
1, 128932, Note_off_c, 0, 70, 0
1, 128932, Note_on_c, 0, 70, 5
1, 128956, Control_c, 0, 64, 82
1, 129000, Control_c, 0, 64, 82
1, 129051, Control_c, 0, 64, 81
1, 129066, Note_on_c, 0, 66, 52
1, 129066, Note_on_c, 0, 67, 62
1, 129066, Note_off_c, 0, 72, 58
1, 129067, Control_c, 0, 64, 80
1, 129074, Note_off_c, 0, 70, 42
1, 129082, Control_c, 0, 64, 80
1, 129096, Control_c, 0, 64, 79
1, 129111, Control_c, 0, 64, 79
1, 129126, Control_c, 0, 64, 78
1, 129141, Control_c, 0, 64, 77
1, 129156, Control_c, 0, 64, 75
1, 129170, Control_c, 0, 64, 73
1, 129185, Control_c, 0, 64, 72
1, 129200, Control_c, 0, 64, 70
1, 129215, Control_c, 0, 64, 69
1, 129230, Control_c, 0, 64, 67
1, 129245, Control_c, 0, 64, 65
1, 129259, Control_c, 0, 64, 62
1, 129274, Control_c, 0, 64, 61
1, 129285, Note_on_c, 0, 72, 59
1, 129289, Control_c, 0, 64, 60
1, 129304, Control_c, 0, 64, 59
1, 129309, Note_on_c, 0, 70, 45
1, 129312, Note_off_c, 0, 67, 57
1, 129319, Control_c, 0, 64, 58
1, 129334, Control_c, 0, 64, 56
1, 129349, Control_c, 0, 64, 54
1, 129363, Control_c, 0, 64, 49
1, 129376, Note_off_c, 0, 66, 57
1, 129378, Control_c, 0, 64, 45
1, 129393, Control_c, 0, 64, 41
1, 129407, Control_c, 0, 64, 36
1, 129422, Control_c, 0, 64, 31
1, 129437, Control_c, 0, 64, 25
1, 129452, Control_c, 0, 64, 20
1, 129467, Control_c, 0, 64, 16
1, 129481, Control_c, 0, 64, 12
1, 129496, Control_c, 0, 64, 0
1, 130092, Note_on_c, 0, 68, 58
1, 130297, Note_on_c, 0, 66, 61
1, 130327, Note_off_c, 0, 68, 57
1, 130964, Control_c, 0, 64, 11
1, 130979, Control_c, 0, 64, 15
1, 130994, Control_c, 0, 64, 19
1, 131009, Control_c, 0, 64, 21
1, 131024, Control_c, 0, 64, 22
1, 131039, Control_c, 0, 64, 23
1, 131053, Control_c, 0, 64, 24
1, 131068, Control_c, 0, 64, 26
1, 131083, Control_c, 0, 64, 27
1, 131127, Control_c, 0, 64, 27
1, 131142, Control_c, 0, 64, 28
1, 131157, Control_c, 0, 64, 30
1, 131260, Control_c, 0, 64, 29
1, 131283, Control_c, 0, 64, 28
1, 131298, Control_c, 0, 64, 28
1, 131357, Control_c, 0, 64, 27
1, 131372, Control_c, 0, 64, 25
1, 131386, Control_c, 0, 64, 24
1, 131401, Control_c, 0, 64, 22
1, 131416, Control_c, 0, 64, 18
1, 131431, Control_c, 0, 64, 13
1, 131446, Control_c, 0, 64, 0
1, 132180, Control_c, 0, 64, 8
1, 132209, Control_c, 0, 64, 9
1, 132308, Note_on_c, 0, 68, 42
1, 132339, Note_off_c, 0, 66, 56
1, 132593, Note_on_c, 0, 66, 42
1, 132595, Control_c, 0, 64, 10
1, 132610, Control_c, 0, 64, 11
1, 132625, Control_c, 0, 64, 12
1, 132646, Note_off_c, 0, 68, 41
1, 132655, Control_c, 0, 64, 12
1, 132684, Control_c, 0, 64, 13
1, 132714, Control_c, 0, 64, 13
1, 132759, Control_c, 0, 64, 14
1, 132780, Control_c, 0, 64, 16
1, 132795, Control_c, 0, 64, 17
1, 132825, Control_c, 0, 64, 17
1, 132839, Control_c, 0, 64, 18
1, 132854, Control_c, 0, 64, 19
1, 132869, Control_c, 0, 64, 20
1, 132884, Control_c, 0, 64, 21
1, 132899, Control_c, 0, 67, 127
1, 132914, Control_c, 0, 67, 126
1, 132929, Control_c, 0, 67, 124
1, 132944, Control_c, 0, 64, 22
1, 132944, Control_c, 0, 67, 123
1, 132958, Control_c, 0, 64, 23
1, 132958, Control_c, 0, 67, 122
1, 132973, Control_c, 0, 64, 23
1, 132973, Control_c, 0, 67, 121
1, 132988, Control_c, 0, 64, 24
1, 132988, Control_c, 0, 67, 120
1, 133003, Control_c, 0, 64, 24
1, 133003, Control_c, 0, 67, 119
1, 133018, Control_c, 0, 64, 25
1, 133018, Control_c, 0, 67, 119
1, 133032, Control_c, 0, 64, 26
1, 133032, Control_c, 0, 67, 118
1, 133048, Control_c, 0, 64, 28
1, 133048, Control_c, 0, 67, 118
1, 133063, Control_c, 0, 64, 28
1, 133063, Control_c, 0, 67, 117
1, 133078, Control_c, 0, 64, 29
1, 133078, Control_c, 0, 67, 116
1, 133093, Control_c, 0, 64, 29
1, 133093, Control_c, 0, 67, 115
1, 133108, Control_c, 0, 64, 30
1, 133108, Control_c, 0, 67, 114
1, 133122, Control_c, 0, 67, 113
1, 133137, Control_c, 0, 64, 31
1, 133137, Control_c, 0, 67, 112
1, 133152, Control_c, 0, 64, 31
1, 133152, Control_c, 0, 67, 111
1, 133167, Control_c, 0, 67, 109
1, 133182, Control_c, 0, 64, 32
1, 133182, Control_c, 0, 67, 107
1, 133196, Control_c, 0, 64, 33
1, 133196, Control_c, 0, 67, 105
1, 133211, Control_c, 0, 64, 34
1, 133211, Control_c, 0, 67, 104
1, 133226, Control_c, 0, 64, 34
1, 133226, Control_c, 0, 67, 101
1, 133241, Control_c, 0, 67, 100
1, 133255, Control_c, 0, 64, 35
1, 133255, Control_c, 0, 67, 99
1, 133270, Control_c, 0, 64, 36
1, 133285, Control_c, 0, 64, 37
1, 133285, Control_c, 0, 67, 98
1, 133300, Control_c, 0, 67, 98
1, 133315, Control_c, 0, 64, 37
1, 133315, Control_c, 0, 67, 97
1, 133329, Control_c, 0, 67, 97
1, 133344, Control_c, 0, 67, 96
1, 133359, Control_c, 0, 64, 38
1, 133374, Control_c, 0, 64, 39
1, 133389, Control_c, 0, 64, 39
1, 133433, Control_c, 0, 64, 40
1, 133448, Control_c, 0, 64, 40
1, 133462, Control_c, 0, 64, 41
1, 133492, Control_c, 0, 67, 97
1, 133559, Control_c, 0, 67, 97
1, 133574, Control_c, 0, 67, 98
1, 133588, Control_c, 0, 67, 99
1, 133603, Control_c, 0, 64, 41
1, 133603, Control_c, 0, 67, 100
1, 133618, Control_c, 0, 64, 42
1, 133633, Control_c, 0, 64, 45
1, 133648, Control_c, 0, 64, 49
1, 133662, Control_c, 0, 64, 53
1, 133662, Control_c, 0, 67, 100
1, 133677, Control_c, 0, 64, 56
1, 133677, Control_c, 0, 67, 101
1, 133692, Control_c, 0, 64, 58
1, 133692, Control_c, 0, 67, 101
1, 133707, Control_c, 0, 64, 60
1, 133722, Control_c, 0, 64, 61
1, 133737, Control_c, 0, 64, 63
1, 133737, Control_c, 0, 67, 102
1, 133752, Control_c, 0, 64, 64
1, 133767, Control_c, 0, 64, 67
1, 133767, Control_c, 0, 67, 102
1, 133775, Note_off_c, 0, 70, 60
1, 133781, Control_c, 0, 64, 70
1, 133796, Control_c, 0, 64, 73
1, 133796, Control_c, 0, 67, 103
1, 133811, Control_c, 0, 64, 76
1, 133826, Control_c, 0, 64, 78
1, 133841, Control_c, 0, 64, 80
1, 133856, Control_c, 0, 64, 82
1, 133856, Control_c, 0, 67, 103
1, 133871, Control_c, 0, 64, 83
1, 133880, Note_off_c, 0, 66, 50
1, 133881, Note_off_c, 0, 72, 61
1, 133886, Control_c, 0, 64, 84
1, 133886, Control_c, 0, 67, 104
1, 133901, Control_c, 0, 64, 84
1, 133916, Control_c, 0, 64, 85
1, 133916, Control_c, 0, 67, 104
1, 134019, Control_c, 0, 67, 105
1, 134064, Control_c, 0, 64, 84
1, 134078, Control_c, 0, 64, 82
1, 134093, Control_c, 0, 64, 78
1, 134108, Control_c, 0, 64, 74
1, 134123, Control_c, 0, 64, 70
1, 134123, Control_c, 0, 67, 105
1, 134138, Control_c, 0, 64, 66
1, 134152, Control_c, 0, 64, 64
1, 134152, Control_c, 0, 67, 106
1, 134167, Control_c, 0, 64, 61
1, 134182, Control_c, 0, 64, 61
1, 134182, Control_c, 0, 67, 106
1, 134226, Control_c, 0, 67, 107
1, 134278, Control_c, 0, 64, 60
1, 134293, Control_c, 0, 64, 59
1, 134308, Control_c, 0, 64, 57
1, 134308, Control_c, 0, 67, 106
1, 134323, Control_c, 0, 64, 52
1, 134323, Control_c, 0, 67, 105
1, 134336, Note_on_c, 0, 68, 81
1, 134338, Control_c, 0, 64, 42
1, 134338, Control_c, 0, 67, 103
1, 134352, Control_c, 0, 64, 26
1, 134352, Control_c, 0, 67, 101
1, 134367, Control_c, 0, 64, 0
1, 134367, Control_c, 0, 67, 99
1, 134382, Control_c, 0, 67, 97
1, 134397, Control_c, 0, 67, 94
1, 134411, Control_c, 0, 67, 88
1, 134426, Control_c, 0, 67, 80
1, 134441, Control_c, 0, 67, 70
1, 134456, Control_c, 0, 67, 60
1, 134471, Control_c, 0, 67, 46
1, 134485, Control_c, 0, 67, 35
1, 134500, Control_c, 0, 64, 24
1, 134500, Control_c, 0, 67, 25
1, 134515, Control_c, 0, 64, 41
1, 134515, Control_c, 0, 67, 13
1, 134530, Control_c, 0, 64, 54
1, 134530, Control_c, 0, 67, 0
1, 134545, Control_c, 0, 64, 63
1, 134559, Control_c, 0, 64, 69
1, 134574, Control_c, 0, 64, 73
1, 134583, Note_off_c, 0, 68, 64
1, 134589, Control_c, 0, 64, 76
1, 134604, Control_c, 0, 64, 80
1, 134619, Control_c, 0, 64, 85
1, 134634, Control_c, 0, 64, 93
1, 134649, Control_c, 0, 64, 101
1, 134664, Control_c, 0, 64, 106
1, 134679, Control_c, 0, 64, 110
1, 134694, Control_c, 0, 64, 116
1, 134709, Control_c, 0, 64, 120
1, 134723, Control_c, 0, 64, 124
1, 134738, Control_c, 0, 64, 127
1, 134828, Note_on_c, 0, 66, 57
1, 134857, Control_c, 0, 64, 113
1, 134872, Control_c, 0, 64, 87
1, 134881, Note_on_c, 0, 63, 65
1, 134887, Control_c, 0, 64, 65
1, 134901, Control_c, 0, 64, 43
1, 134916, Control_c, 0, 64, 0
1, 134932, Note_on_c, 0, 60, 60
1, 134955, Note_off_c, 0, 63, 63
1, 134958, Note_on_c, 0, 57, 72
1, 134975, Control_c, 0, 64, 16
1, 134978, Note_off_c, 0, 66, 63
1, 134983, Note_off_c, 0, 60, 60
1, 134990, Control_c, 0, 64, 45
1, 135005, Control_c, 0, 64, 57
1, 135011, Note_off_c, 0, 57, 65
1, 135027, Control_c, 0, 64, 63
1, 135042, Control_c, 0, 64, 67
1, 135057, Control_c, 0, 64, 73
1, 135072, Control_c, 0, 64, 84
1, 135087, Control_c, 0, 64, 99
1, 135101, Control_c, 0, 64, 102
1, 135131, Control_c, 0, 64, 102
1, 135146, Control_c, 0, 64, 102
1, 135161, Control_c, 0, 64, 101
1, 135175, Control_c, 0, 64, 93
1, 135190, Control_c, 0, 64, 82
1, 135205, Control_c, 0, 64, 72
1, 135220, Control_c, 0, 64, 65
1, 135234, Control_c, 0, 64, 60
1, 135249, Control_c, 0, 64, 57
1, 135264, Control_c, 0, 64, 53
1, 135279, Control_c, 0, 64, 46
1, 135294, Control_c, 0, 64, 34
1, 135308, Control_c, 0, 64, 17
1, 135323, Control_c, 0, 64, 0
1, 135586, Note_on_c, 0, 61, 61
1, 135776, Control_c, 0, 67, 8
1, 135791, Control_c, 0, 67, 9
1, 135805, Control_c, 0, 67, 10
1, 135820, Control_c, 0, 67, 11
1, 135835, Control_c, 0, 64, 10
1, 135835, Control_c, 0, 67, 13
1, 135850, Control_c, 0, 64, 13
1, 135850, Control_c, 0, 67, 14
1, 135865, Control_c, 0, 64, 16
1, 135865, Control_c, 0, 67, 16
1, 135880, Control_c, 0, 64, 23
1, 135880, Control_c, 0, 67, 18
1, 135895, Control_c, 0, 64, 37
1, 135895, Control_c, 0, 67, 20
1, 135910, Control_c, 0, 64, 49
1, 135910, Control_c, 0, 67, 21
1, 135924, Control_c, 0, 64, 57
1, 135924, Control_c, 0, 67, 22
1, 135939, Control_c, 0, 64, 60
1, 135939, Control_c, 0, 67, 23
1, 135954, Control_c, 0, 67, 24
1, 135968, Control_c, 0, 64, 61
1, 135968, Control_c, 0, 67, 25
1, 135983, Control_c, 0, 64, 63
1, 135983, Control_c, 0, 67, 26
1, 135998, Control_c, 0, 64, 65
1, 136013, Control_c, 0, 64, 67
1, 136028, Control_c, 0, 64, 68
1, 136028, Control_c, 0, 67, 26
1, 136043, Control_c, 0, 64, 70
1, 136057, Control_c, 0, 64, 71
1, 136072, Control_c, 0, 64, 73
1, 136087, Control_c, 0, 64, 74
1, 136087, Control_c, 0, 67, 27
1, 136102, Control_c, 0, 64, 77
1, 136117, Control_c, 0, 64, 79
1, 136131, Control_c, 0, 64, 81
1, 136131, Control_c, 0, 67, 27
1, 136146, Control_c, 0, 64, 82
1, 136161, Control_c, 0, 64, 84
1, 136175, Control_c, 0, 64, 85
1, 136190, Control_c, 0, 64, 87
1, 136190, Control_c, 0, 67, 28
1, 136205, Control_c, 0, 64, 88
1, 136220, Control_c, 0, 64, 89
1, 136220, Control_c, 0, 67, 30
1, 136235, Control_c, 0, 64, 91
1, 136235, Control_c, 0, 67, 35
1, 136251, Control_c, 0, 64, 93
1, 136251, Control_c, 0, 67, 39
1, 136266, Control_c, 0, 64, 95
1, 136266, Control_c, 0, 67, 43
1, 136280, Control_c, 0, 64, 98
1, 136280, Control_c, 0, 67, 45
1, 136295, Control_c, 0, 64, 100
1, 136295, Control_c, 0, 67, 45
1, 136310, Control_c, 0, 64, 102
1, 136325, Control_c, 0, 64, 103
1, 136340, Control_c, 0, 64, 104
1, 136354, Control_c, 0, 64, 104
1, 136369, Control_c, 0, 64, 105
1, 136525, Control_c, 0, 67, 46
1, 136554, Note_on_c, 0, 68, 50
1, 136732, Note_off_c, 0, 68, 32
1, 136733, Control_c, 0, 64, 104
1, 136733, Note_on_c, 0, 67, 60
1, 136782, Note_off_c, 0, 67, 62
1, 137258, Note_on_c, 0, 68, 67
1, 137392, Control_c, 0, 64, 99
1, 137407, Control_c, 0, 64, 83
1, 137421, Control_c, 0, 64, 72
1, 137433, Note_on_c, 0, 67, 79
1, 137436, Control_c, 0, 64, 64
1, 137451, Control_c, 0, 64, 60
1, 137461, Note_off_c, 0, 68, 63
1, 137466, Control_c, 0, 64, 61
1, 137481, Control_c, 0, 64, 65
1, 137496, Control_c, 0, 64, 71
1, 137511, Control_c, 0, 64, 81
1, 137525, Control_c, 0, 64, 92
1, 137540, Control_c, 0, 64, 98
1, 137540, Control_c, 0, 67, 46
1, 137555, Control_c, 0, 64, 101
1, 137570, Control_c, 0, 64, 105
1, 137585, Control_c, 0, 64, 112
1, 137600, Control_c, 0, 64, 127
1, 137718, Control_c, 0, 67, 46
1, 137778, Note_off_c, 0, 61, 63
1, 137922, Note_on_c, 0, 68, 79
1, 137949, Note_off_c, 0, 68, 68
1, 137982, Note_off_c, 0, 67, 58
1, 138097, Control_c, 0, 67, 45
1, 138112, Control_c, 0, 67, 43
1, 138114, Note_on_c, 0, 61, 63
1, 138116, Note_on_c, 0, 67, 82
1, 138126, Control_c, 0, 67, 42
1, 138141, Control_c, 0, 67, 40
1, 138156, Control_c, 0, 67, 38
1, 138166, Note_off_c, 0, 67, 65
1, 138171, Control_c, 0, 67, 37
1, 138184, Note_off_c, 0, 61, 59
1, 138186, Note_on_c, 0, 71, 80
1, 138186, Control_c, 0, 67, 35
1, 138193, Note_on_c, 0, 66, 70
1, 138200, Control_c, 0, 67, 34
1, 138215, Control_c, 0, 67, 33
1, 138230, Control_c, 0, 67, 32
1, 138244, Control_c, 0, 67, 31
1, 138246, Note_off_c, 0, 71, 64
1, 138247, Note_on_c, 0, 74, 85
1, 138252, Note_off_c, 0, 66, 61
1, 138259, Control_c, 0, 67, 29
1, 138267, Note_on_c, 0, 70, 65
1, 138274, Control_c, 0, 67, 27
1, 138289, Control_c, 0, 67, 25
1, 138301, Note_off_c, 0, 70, 65
1, 138304, Control_c, 0, 67, 23
1, 138315, Note_on_c, 0, 79, 98
1, 138316, Note_off_c, 0, 74, 69
1, 138318, Control_c, 0, 67, 21
1, 138333, Control_c, 0, 64, 73
1, 138333, Control_c, 0, 67, 18
1, 138348, Note_on_c, 0, 73, 66
1, 138348, Control_c, 0, 64, 43
1, 138348, Control_c, 0, 67, 14
1, 138357, Note_on_c, 0, 76, 24
1, 138363, Control_c, 0, 64, 0
1, 138363, Control_c, 0, 67, 8
1, 138378, Control_c, 0, 67, 0
1, 138397, Note_off_c, 0, 76, 30
1, 138646, Control_c, 0, 64, 35
1, 138660, Control_c, 0, 64, 54
1, 138675, Control_c, 0, 64, 63
1, 138690, Control_c, 0, 64, 69
1, 138705, Control_c, 0, 64, 76
1, 138720, Control_c, 0, 64, 88
1, 138734, Control_c, 0, 64, 104
1, 138741, Note_off_c, 0, 73, 58
1, 138750, Control_c, 0, 64, 127
1, 138861, Control_c, 0, 67, 8
1, 138875, Note_off_c, 0, 79, 54
1, 138876, Control_c, 0, 67, 9
1, 138963, Note_on_c, 0, 76, 86
1, 138965, Control_c, 0, 67, 9
1, 138987, Note_on_c, 0, 70, 58
1, 138994, Control_c, 0, 67, 10
1, 139050, Note_on_c, 0, 72, 78
1, 139057, Note_off_c, 0, 76, 61
1, 139064, Note_off_c, 0, 70, 63
1, 139068, Control_c, 0, 67, 10
1, 139073, Note_on_c, 0, 66, 57
1, 139083, Control_c, 0, 67, 11
1, 139084, Note_off_c, 0, 72, 62
1, 139098, Control_c, 0, 67, 11
1, 139108, Note_off_c, 0, 66, 65
1, 139113, Control_c, 0, 67, 12
1, 139126, Note_on_c, 0, 67, 80
1, 139128, Control_c, 0, 67, 12
1, 139133, Note_on_c, 0, 61, 69
1, 139152, Note_off_c, 0, 67, 66
1, 139183, Note_on_c, 0, 71, 83
1, 139183, Note_off_c, 0, 61, 62
1, 139191, Note_on_c, 0, 66, 69
1, 139226, Note_off_c, 0, 66, 64
1, 139234, Note_on_c, 0, 70, 66
1, 139236, Note_off_c, 0, 71, 61
1, 139246, Control_c, 0, 67, 12
1, 139250, Note_on_c, 0, 74, 77
1, 139260, Note_off_c, 0, 70, 66
1, 139277, Note_on_c, 0, 73, 74
1, 139294, Note_off_c, 0, 74, 64
1, 139299, Note_on_c, 0, 79, 84
1, 139301, Note_off_c, 0, 73, 69
1, 139335, Control_c, 0, 64, 104
1, 139339, Note_on_c, 0, 70, 65
1, 139350, Control_c, 0, 64, 81
1, 139360, Note_on_c, 0, 76, 89
1, 139365, Control_c, 0, 64, 67
1, 139380, Control_c, 0, 64, 57
1, 139394, Control_c, 0, 64, 45
1, 139395, Note_off_c, 0, 79, 65
1, 139398, Note_off_c, 0, 70, 62
1, 139406, Note_on_c, 0, 66, 70
1, 139409, Control_c, 0, 64, 35
1, 139420, Note_on_c, 0, 72, 88
1, 139424, Control_c, 0, 64, 25
1, 139424, Poly_aftertouch_c, 0, 73, 0
1, 139430, Note_off_c, 0, 76, 63
1, 139439, Control_c, 0, 64, 0
1, 139454, Control_c, 0, 67, 12
1, 139466, Note_off_c, 0, 72, 64
1, 139471, Note_off_c, 0, 66, 64
1, 139484, Note_on_c, 0, 61, 81
1, 139484, Control_c, 0, 67, 13
1, 139486, Note_on_c, 0, 67, 86
1, 139520, Control_c, 0, 67, 14
1, 139535, Control_c, 0, 67, 14
1, 139624, Control_c, 0, 67, 15
1, 139802, Control_c, 0, 67, 14
1, 139816, Control_c, 0, 64, 32
1, 139831, Control_c, 0, 64, 53
1, 139846, Control_c, 0, 64, 63
1, 139846, Control_c, 0, 67, 14
1, 139861, Control_c, 0, 64, 65
1, 139876, Control_c, 0, 64, 67
1, 139890, Control_c, 0, 64, 69
1, 139890, Control_c, 0, 67, 13
1, 139905, Control_c, 0, 64, 74
1, 139905, Control_c, 0, 67, 12
1, 139920, Control_c, 0, 64, 83
1, 139920, Control_c, 0, 67, 11
1, 139935, Control_c, 0, 64, 90
1, 139935, Control_c, 0, 67, 9
1, 139950, Control_c, 0, 64, 95
1, 139950, Control_c, 0, 67, 0
1, 139964, Control_c, 0, 64, 102
1, 139979, Control_c, 0, 64, 115
1, 139994, Control_c, 0, 64, 127
1, 140006, Note_off_c, 0, 67, 62
1, 140299, Control_c, 0, 67, 9
1, 140314, Control_c, 0, 67, 11
1, 140328, Control_c, 0, 67, 14
1, 140343, Control_c, 0, 67, 19
1, 140358, Control_c, 0, 67, 27
1, 140373, Control_c, 0, 67, 39
1, 140388, Control_c, 0, 64, 85
1, 140388, Control_c, 0, 67, 55
1, 140402, Control_c, 0, 64, 69
1, 140402, Control_c, 0, 67, 73
1, 140417, Control_c, 0, 64, 57
1, 140417, Control_c, 0, 67, 94
1, 140432, Control_c, 0, 64, 40
1, 140432, Control_c, 0, 67, 106
1, 140447, Control_c, 0, 64, 20
1, 140447, Control_c, 0, 67, 109
1, 140462, Control_c, 0, 64, 0
1, 140477, Control_c, 0, 67, 110
1, 140491, Control_c, 0, 67, 111
1, 140506, Control_c, 0, 67, 111
1, 140521, Control_c, 0, 67, 112
1, 140536, Control_c, 0, 67, 113
1, 140728, Control_c, 0, 67, 112
1, 140846, Control_c, 0, 67, 112
1, 140925, Note_on_c, 0, 69, 57
1, 140965, Control_c, 0, 67, 111
1, 140989, Note_on_c, 0, 74, 66
1, 141012, Note_off_c, 0, 69, 64
1, 141027, Note_off_c, 0, 74, 66
1, 141046, Note_on_c, 0, 70, 55
1, 141062, Control_c, 0, 67, 111
1, 141090, Note_off_c, 0, 70, 64
1, 141111, Note_on_c, 0, 75, 59
1, 141154, Note_on_c, 0, 63, 57
1, 141173, Note_off_c, 0, 75, 60
1, 141177, Note_off_c, 0, 63, 63
1, 141220, Note_on_c, 0, 69, 60
1, 141255, Control_c, 0, 67, 111
1, 141267, Note_off_c, 0, 69, 60
1, 141269, Note_on_c, 0, 71, 57
1, 141299, Control_c, 0, 67, 111
1, 141310, Note_off_c, 0, 71, 64
1, 141316, Note_on_c, 0, 68, 50
1, 141356, Note_off_c, 0, 68, 60
1, 141373, Control_c, 0, 67, 111
1, 141374, Note_on_c, 0, 73, 61
1, 141420, Note_off_c, 0, 73, 58
1, 141448, Note_on_c, 0, 67, 53
1, 141550, Control_c, 0, 67, 111
1, 141624, Control_c, 0, 67, 110
1, 141654, Control_c, 0, 67, 110
1, 141684, Control_c, 0, 67, 109
1, 141714, Control_c, 0, 67, 109
1, 141742, Control_c, 0, 64, 13
1, 141757, Control_c, 0, 64, 30
1, 141779, Control_c, 0, 64, 45
1, 141779, Control_c, 0, 67, 108
1, 141794, Control_c, 0, 64, 55
1, 141809, Control_c, 0, 64, 60
1, 141809, Control_c, 0, 67, 108
1, 141824, Control_c, 0, 64, 62
1, 141839, Control_c, 0, 64, 63
1, 141854, Control_c, 0, 64, 65
1, 141854, Control_c, 0, 67, 107
1, 141869, Control_c, 0, 64, 68
1, 141884, Control_c, 0, 64, 72
1, 141898, Control_c, 0, 64, 75
1, 141913, Control_c, 0, 64, 78
1, 141913, Control_c, 0, 67, 107
1, 141928, Control_c, 0, 64, 80
1, 141943, Control_c, 0, 64, 81
1, 141943, Control_c, 0, 67, 106
1, 141958, Control_c, 0, 64, 82
1, 141973, Control_c, 0, 64, 83
1, 142003, Note_off_c, 0, 67, 61
1, 142121, Control_c, 0, 67, 106
1, 142269, Control_c, 0, 67, 105
1, 142313, Control_c, 0, 64, 82
1, 142328, Control_c, 0, 64, 82
1, 142343, Control_c, 0, 64, 81
1, 142358, Control_c, 0, 64, 81
1, 142372, Control_c, 0, 64, 80
1, 142387, Control_c, 0, 64, 79
1, 142402, Control_c, 0, 64, 79
1, 142417, Control_c, 0, 64, 77
1, 142432, Control_c, 0, 64, 74
1, 142435, Note_on_c, 0, 69, 46
1, 142447, Control_c, 0, 64, 71
1, 142462, Control_c, 0, 64, 68
1, 142477, Control_c, 0, 64, 65
1, 142492, Control_c, 0, 64, 63
1, 142514, Control_c, 0, 64, 60
1, 142529, Control_c, 0, 64, 57
1, 142544, Control_c, 0, 64, 55
1, 142559, Control_c, 0, 64, 51
1, 142573, Control_c, 0, 64, 48
1, 142586, Note_on_c, 0, 71, 48
1, 142588, Control_c, 0, 64, 43
1, 142593, Note_off_c, 0, 69, 45
1, 142603, Control_c, 0, 64, 39
1, 142617, Control_c, 0, 64, 35
1, 142632, Control_c, 0, 64, 32
1, 142648, Control_c, 0, 64, 30
1, 142663, Control_c, 0, 64, 29
1, 142678, Control_c, 0, 64, 28
1, 142693, Control_c, 0, 64, 27
1, 142708, Control_c, 0, 64, 26
1, 142722, Note_off_c, 0, 71, 58
1, 142722, Control_c, 0, 64, 26
1, 142753, Note_on_c, 0, 68, 48
1, 142767, Control_c, 0, 64, 25
1, 142811, Control_c, 0, 64, 25
1, 142840, Control_c, 0, 64, 24
1, 142882, Note_off_c, 0, 68, 59
1, 142885, Control_c, 0, 64, 23
1, 142900, Control_c, 0, 64, 22
1, 142915, Control_c, 0, 64, 22
1, 142927, Note_on_c, 0, 73, 43
1, 142930, Control_c, 0, 64, 21
1, 142975, Control_c, 0, 64, 20
1, 143019, Control_c, 0, 64, 20
1, 143271, Note_on_c, 0, 67, 42
1, 143273, Note_off_c, 0, 73, 59
1, 143278, Control_c, 0, 64, 19
1, 143293, Control_c, 0, 64, 16
1, 143308, Control_c, 0, 64, 0
1, 143452, Note_off_c, 0, 61, 52
1, 143960, Control_c, 0, 67, 105
1, 143975, Control_c, 0, 67, 104
1, 143989, Control_c, 0, 67, 103
1, 144012, Control_c, 0, 67, 101
1, 144027, Control_c, 0, 67, 99
1, 144042, Control_c, 0, 67, 97
1, 144057, Control_c, 0, 67, 96
1, 144071, Control_c, 0, 67, 93
1, 144086, Control_c, 0, 67, 90
1, 144101, Control_c, 0, 67, 87
1, 144116, Control_c, 0, 67, 84
1, 144131, Control_c, 0, 67, 81
1, 144145, Control_c, 0, 64, 19
1, 144145, Control_c, 0, 67, 78
1, 144160, Control_c, 0, 64, 33
1, 144160, Control_c, 0, 67, 76
1, 144175, Control_c, 0, 64, 42
1, 144175, Control_c, 0, 67, 75
1, 144189, Control_c, 0, 64, 45
1, 144189, Control_c, 0, 67, 73
1, 144204, Control_c, 0, 64, 43
1, 144204, Control_c, 0, 67, 70
1, 144219, Control_c, 0, 64, 39
1, 144219, Control_c, 0, 67, 68
1, 144235, Control_c, 0, 64, 25
1, 144235, Control_c, 0, 67, 68
1, 144250, Control_c, 0, 64, 0
1, 144250, Control_c, 0, 67, 67
1, 144265, Control_c, 0, 67, 67
1, 144279, Control_c, 0, 67, 66
1, 144294, Control_c, 0, 67, 63
1, 144309, Control_c, 0, 67, 58
1, 144324, Control_c, 0, 67, 53
1, 144339, Control_c, 0, 67, 46
1, 144353, Control_c, 0, 67, 36
1, 144368, Control_c, 0, 67, 26
1, 144383, Control_c, 0, 67, 16
1, 144398, Control_c, 0, 67, 8
1, 144412, Control_c, 0, 67, 0
1, 144463, Note_off_c, 0, 67, 61
1, 144531, Control_c, 0, 64, 29
1, 144546, Control_c, 0, 64, 46
1, 144557, Note_on_c, 0, 67, 52
1, 144560, Control_c, 0, 64, 52
1, 144575, Note_on_c, 0, 61, 41
1, 144575, Control_c, 0, 64, 53
1, 144590, Control_c, 0, 64, 55
1, 144605, Control_c, 0, 64, 59
1, 144612, Note_off_c, 0, 67, 62
1, 144618, Note_off_c, 0, 61, 60
1, 144620, Control_c, 0, 64, 62
1, 144635, Control_c, 0, 64, 65
1, 144650, Control_c, 0, 64, 65
1, 144653, Note_on_c, 0, 71, 52
1, 144665, Control_c, 0, 64, 66
1, 144669, Note_on_c, 0, 66, 35
1, 144679, Control_c, 0, 64, 66
1, 144694, Control_c, 0, 64, 67
1, 144700, Note_off_c, 0, 71, 61
1, 144703, Note_off_c, 0, 66, 53
1, 144709, Control_c, 0, 64, 68
1, 144724, Control_c, 0, 64, 69
1, 144739, Control_c, 0, 64, 70
1, 144742, Note_on_c, 0, 74, 51
1, 144745, Note_on_c, 0, 70, 40
1, 144780, Note_off_c, 0, 70, 54
1, 144798, Note_off_c, 0, 74, 62
1, 144805, Control_c, 0, 64, 70
1, 144817, Note_on_c, 0, 73, 53
1, 144820, Control_c, 0, 64, 71
1, 144829, Note_on_c, 0, 79, 65
1, 144835, Control_c, 0, 64, 72
1, 144856, Note_off_c, 0, 73, 66
1, 144894, Control_c, 0, 64, 70
1, 144898, Note_on_c, 0, 70, 47
1, 144909, Control_c, 0, 64, 67
1, 144909, Note_off_c, 0, 79, 64
1, 144921, Note_on_c, 0, 76, 62
1, 144924, Control_c, 0, 64, 63
1, 144939, Control_c, 0, 64, 57
1, 144954, Control_c, 0, 64, 51
1, 144968, Control_c, 0, 64, 44
1, 144980, Note_off_c, 0, 70, 57
1, 144983, Control_c, 0, 64, 32
1, 144993, Note_off_c, 0, 76, 61
1, 144998, Control_c, 0, 64, 0
1, 144999, Note_on_c, 0, 72, 58
1, 145011, Note_on_c, 0, 66, 47
1, 145037, Note_off_c, 0, 72, 62
1, 145047, Note_off_c, 0, 66, 61
1, 145058, Control_c, 0, 64, 25
1, 145073, Control_c, 0, 64, 50
1, 145081, Note_on_c, 0, 67, 67
1, 145088, Control_c, 0, 64, 64
1, 145090, Note_on_c, 0, 61, 52
1, 145103, Control_c, 0, 64, 70
1, 145117, Control_c, 0, 64, 73
1, 145121, Note_off_c, 0, 67, 62
1, 145132, Control_c, 0, 64, 74
1, 145146, Note_off_c, 0, 61, 59
1, 145147, Control_c, 0, 64, 74
1, 145160, Note_on_c, 0, 71, 63
1, 145162, Control_c, 0, 64, 75
1, 145164, Note_on_c, 0, 66, 54
1, 145177, Control_c, 0, 64, 76
1, 145191, Control_c, 0, 64, 76
1, 145206, Control_c, 0, 64, 77
1, 145211, Note_off_c, 0, 66, 60
1, 145213, Note_off_c, 0, 71, 59
1, 145221, Control_c, 0, 64, 77
1, 145235, Control_c, 0, 64, 78
1, 145242, Note_on_c, 0, 70, 60
1, 145247, Note_on_c, 0, 74, 63
1, 145265, Control_c, 0, 64, 78
1, 145276, Note_off_c, 0, 70, 66
1, 145294, Note_off_c, 0, 74, 60
1, 145318, Note_on_c, 0, 73, 58
1, 145330, Note_on_c, 0, 79, 70
1, 145357, Note_off_c, 0, 73, 65
1, 145406, Note_on_c, 0, 70, 45
1, 145410, Note_off_c, 0, 79, 64
1, 145419, Note_on_c, 0, 76, 67
1, 145443, Control_c, 0, 64, 75
1, 145458, Control_c, 0, 64, 68
1, 145464, Note_off_c, 0, 70, 42
1, 145473, Control_c, 0, 64, 57
1, 145482, Note_on_c, 0, 66, 54
1, 145487, Control_c, 0, 64, 34
1, 145496, Note_off_c, 0, 76, 62
1, 145509, Control_c, 0, 64, 0
1, 145510, Note_on_c, 0, 72, 64
1, 145536, Note_off_c, 0, 66, 62
1, 145542, Note_off_c, 0, 72, 65
1, 145567, Note_on_c, 0, 61, 61
1, 145568, Control_c, 0, 64, 27
1, 145583, Control_c, 0, 64, 51
1, 145586, Note_on_c, 0, 67, 70
1, 145598, Control_c, 0, 64, 65
1, 145613, Control_c, 0, 64, 71
1, 145622, Note_off_c, 0, 67, 65
1, 145628, Control_c, 0, 64, 73
1, 145631, Note_off_c, 0, 61, 62
1, 145642, Note_on_c, 0, 66, 57
1, 145642, Control_c, 0, 64, 74
1, 145653, Note_on_c, 0, 71, 68
1, 145657, Control_c, 0, 64, 75
1, 145672, Control_c, 0, 64, 77
1, 145687, Control_c, 0, 64, 79
1, 145691, Note_off_c, 0, 66, 61
1, 145702, Control_c, 0, 64, 81
1, 145706, Note_off_c, 0, 71, 62
1, 145717, Control_c, 0, 64, 83
1, 145720, Note_on_c, 0, 70, 54
1, 145732, Note_on_c, 0, 74, 68
1, 145732, Control_c, 0, 64, 84
1, 145744, Note_off_c, 0, 70, 60
1, 145788, Note_off_c, 0, 74, 63
1, 145789, Note_on_c, 0, 73, 65
1, 145791, Control_c, 0, 64, 83
1, 145815, Note_on_c, 0, 79, 73
1, 145849, Note_on_c, 0, 70, 55
1, 145853, Note_off_c, 0, 73, 61
1, 145900, Note_off_c, 0, 70, 61
1, 145905, Note_off_c, 0, 79, 62
1, 145907, Note_on_c, 0, 76, 69
1, 145911, Control_c, 0, 64, 81
1, 145926, Control_c, 0, 64, 74
1, 145933, Note_on_c, 0, 66, 55
1, 145940, Control_c, 0, 64, 65
1, 145946, Note_off_c, 0, 76, 62
1, 145955, Control_c, 0, 64, 47
1, 145970, Control_c, 0, 64, 17
1, 145985, Control_c, 0, 64, 0
1, 145986, Note_on_c, 0, 72, 69
1, 145995, Note_off_c, 0, 66, 59
1, 146024, Note_off_c, 0, 72, 63
1, 146044, Control_c, 0, 64, 40
1, 146051, Note_on_c, 0, 73, 59
1, 146058, Control_c, 0, 64, 58
1, 146066, Note_on_c, 0, 79, 73
1, 146073, Control_c, 0, 64, 67
1, 146088, Control_c, 0, 64, 72
1, 146103, Control_c, 0, 64, 74
1, 146104, Note_off_c, 0, 73, 59
1, 146118, Control_c, 0, 64, 75
1, 146132, Control_c, 0, 64, 77
1, 146139, Note_on_c, 0, 70, 59
1, 146146, Note_on_c, 0, 74, 66
1, 146147, Control_c, 0, 64, 79
1, 146155, Note_off_c, 0, 79, 62
1, 146162, Control_c, 0, 64, 83
1, 146176, Control_c, 0, 64, 86
1, 146181, Note_off_c, 0, 70, 61
1, 146191, Note_off_c, 0, 74, 59
1, 146191, Control_c, 0, 64, 89
1, 146206, Control_c, 0, 64, 91
1, 146224, Note_on_c, 0, 71, 70
1, 146227, Note_on_c, 0, 66, 62
1, 146236, Control_c, 0, 64, 87
1, 146258, Control_c, 0, 64, 73
1, 146273, Control_c, 0, 64, 62
1, 146274, Note_off_c, 0, 71, 59
1, 146277, Note_off_c, 0, 66, 61
1, 146288, Control_c, 0, 64, 52
1, 146303, Control_c, 0, 64, 49
1, 146307, Note_on_c, 0, 79, 71
1, 146314, Note_on_c, 0, 73, 65
1, 146318, Control_c, 0, 64, 54
1, 146332, Control_c, 0, 64, 63
1, 146347, Control_c, 0, 64, 70
1, 146362, Control_c, 0, 64, 78
1, 146369, Note_off_c, 0, 73, 56
1, 146377, Control_c, 0, 64, 84
1, 146391, Control_c, 0, 64, 85
1, 146394, Note_on_c, 0, 76, 70
1, 146397, Note_off_c, 0, 79, 62
1, 146405, Note_on_c, 0, 70, 58
1, 146406, Control_c, 0, 64, 86
1, 146421, Control_c, 0, 64, 87
1, 146436, Control_c, 0, 64, 87
1, 146442, Note_off_c, 0, 70, 64
1, 146451, Control_c, 0, 64, 86
1, 146453, Note_off_c, 0, 76, 63
1, 146465, Control_c, 0, 64, 76
1, 146468, Note_on_c, 0, 72, 72
1, 146480, Control_c, 0, 64, 64
1, 146483, Note_on_c, 0, 66, 63
1, 146495, Control_c, 0, 64, 50
1, 146510, Control_c, 0, 64, 36
1, 146525, Control_c, 0, 64, 35
1, 146528, Note_off_c, 0, 66, 62
1, 146528, Note_off_c, 0, 72, 59
1, 146540, Control_c, 0, 64, 46
1, 146552, Note_on_c, 0, 79, 78
1, 146555, Control_c, 0, 64, 62
1, 146564, Note_on_c, 0, 73, 62
1, 146570, Control_c, 0, 64, 72
1, 146584, Control_c, 0, 64, 80
1, 146599, Control_c, 0, 64, 85
1, 146609, Note_off_c, 0, 73, 57
1, 146614, Control_c, 0, 64, 87
1, 146629, Control_c, 0, 64, 89
1, 146635, Note_on_c, 0, 74, 69
1, 146641, Note_on_c, 0, 70, 61
1, 146644, Control_c, 0, 64, 93
1, 146655, Note_off_c, 0, 79, 62
1, 146659, Control_c, 0, 64, 100
1, 146674, Control_c, 0, 64, 109
1, 146680, Note_off_c, 0, 70, 63
1, 146689, Control_c, 0, 64, 113
1, 146704, Control_c, 0, 64, 111
1, 146715, Note_on_c, 0, 71, 69
1, 146719, Control_c, 0, 64, 92
1, 146719, Note_off_c, 0, 74, 61
1, 146723, Note_on_c, 0, 66, 66
1, 146733, Control_c, 0, 64, 73
1, 146748, Control_c, 0, 64, 58
1, 146761, Note_off_c, 0, 71, 61
1, 146763, Control_c, 0, 64, 46
1, 146766, Note_off_c, 0, 66, 58
1, 146778, Control_c, 0, 64, 45
1, 146784, Note_on_c, 0, 79, 78
1, 146793, Control_c, 0, 64, 53
1, 146795, Note_on_c, 0, 73, 64
1, 146807, Control_c, 0, 64, 64
1, 146822, Control_c, 0, 64, 72
1, 146837, Control_c, 0, 64, 81
1, 146847, Note_off_c, 0, 73, 58
1, 146852, Control_c, 0, 64, 88
1, 146867, Note_on_c, 0, 76, 72
1, 146867, Control_c, 0, 64, 89
1, 146877, Note_on_c, 0, 70, 64
1, 146881, Control_c, 0, 64, 91
1, 146890, Note_off_c, 0, 79, 62
1, 146896, Control_c, 0, 64, 94
1, 146911, Control_c, 0, 64, 95
1, 146919, Note_off_c, 0, 70, 60
1, 146926, Control_c, 0, 64, 94
1, 146933, Note_off_c, 0, 76, 63
1, 146936, Note_on_c, 0, 72, 74
1, 146941, Control_c, 0, 64, 82
1, 146952, Note_on_c, 0, 66, 70
1, 146955, Control_c, 0, 64, 65
1, 146970, Control_c, 0, 64, 52
1, 146985, Control_c, 0, 64, 41
1, 146993, Note_off_c, 0, 72, 61
1, 147007, Control_c, 0, 64, 42
1, 147017, Note_on_c, 0, 79, 82
1, 147017, Note_off_c, 0, 66, 61
1, 147022, Control_c, 0, 64, 53
1, 147033, Note_on_c, 0, 73, 64
1, 147037, Control_c, 0, 64, 64
1, 147052, Control_c, 0, 64, 74
1, 147067, Control_c, 0, 64, 85
1, 147081, Control_c, 0, 64, 91
1, 147082, Note_off_c, 0, 73, 56
1, 147096, Control_c, 0, 64, 92
1, 147097, Note_on_c, 0, 74, 73
1, 147106, Note_on_c, 0, 70, 69
1, 147111, Control_c, 0, 64, 96
1, 147126, Control_c, 0, 64, 105
1, 147141, Control_c, 0, 64, 127
1, 147142, Note_off_c, 0, 79, 65
1, 147151, Note_off_c, 0, 70, 61
1, 147174, Note_on_c, 0, 71, 78
1, 147184, Note_off_c, 0, 74, 64
1, 147187, Note_on_c, 0, 66, 67
1, 147200, Control_c, 0, 64, 87
1, 147214, Control_c, 0, 64, 68
1, 147219, Note_off_c, 0, 71, 65
1, 147229, Control_c, 0, 64, 54
1, 147244, Control_c, 0, 64, 42
1, 147251, Note_on_c, 0, 79, 82
1, 147251, Note_off_c, 0, 66, 62
1, 147259, Control_c, 0, 64, 47
1, 147263, Note_on_c, 0, 73, 73
1, 147274, Control_c, 0, 64, 60
1, 147288, Control_c, 0, 64, 71
1, 147303, Control_c, 0, 64, 85
1, 147313, Note_off_c, 0, 73, 61
1, 147318, Control_c, 0, 64, 103
1, 147333, Control_c, 0, 64, 119
1, 147339, Note_on_c, 0, 70, 68
1, 147340, Note_on_c, 0, 76, 72
1, 147348, Control_c, 0, 64, 127
1, 147367, Note_on_c, 0, 74, 45
1, 147368, Note_off_c, 0, 74, 127
1, 147373, Note_off_c, 0, 79, 65
1, 147388, Note_off_c, 0, 70, 59
1, 147412, Note_on_c, 0, 66, 70
1, 147416, Note_on_c, 0, 72, 80
1, 147420, Note_off_c, 0, 76, 65
1, 147467, Control_c, 0, 64, 87
1, 147479, Note_off_c, 0, 66, 62
1, 147479, Note_off_c, 0, 72, 60
1, 147482, Control_c, 0, 64, 69
1, 147486, Note_on_c, 0, 79, 87
1, 147489, Note_on_c, 0, 73, 69
1, 147497, Control_c, 0, 64, 60
1, 147511, Control_c, 0, 64, 61
1, 147526, Control_c, 0, 64, 69
1, 147541, Control_c, 0, 64, 86
1, 147549, Note_off_c, 0, 73, 58
1, 147556, Control_c, 0, 64, 127
1, 147565, Note_on_c, 0, 70, 74
1, 147572, Note_on_c, 0, 76, 81
1, 147598, Note_off_c, 0, 79, 65
1, 147605, Note_on_c, 0, 74, 52
1, 147626, Note_off_c, 0, 70, 61
1, 147638, Note_off_c, 0, 74, 53
1, 147642, Note_on_c, 0, 72, 85
1, 147645, Note_off_c, 0, 76, 64
1, 147655, Note_on_c, 0, 66, 71
1, 147702, Note_off_c, 0, 72, 61
1, 147711, Note_on_c, 0, 79, 91
1, 147718, Note_off_c, 0, 66, 61
1, 147720, Note_on_c, 0, 73, 78
1, 147791, Note_off_c, 0, 73, 60
1, 147801, Note_on_c, 0, 76, 86
1, 147828, Note_on_c, 0, 70, 71
1, 147834, Note_off_c, 0, 79, 63
1, 147871, Note_on_c, 0, 72, 88
1, 147878, Note_on_c, 0, 66, 64
1, 147881, Note_off_c, 0, 76, 64
1, 147885, Note_off_c, 0, 70, 63
1, 147919, Note_off_c, 0, 66, 59
1, 147920, Note_off_c, 0, 72, 65
1, 147941, Poly_aftertouch_c, 0, 74, 0
1, 147963, Control_c, 0, 64, 98
1, 147978, Control_c, 0, 64, 66
1, 147993, Control_c, 0, 64, 41
1, 148008, Note_on_c, 0, 66, 78
1, 148008, Control_c, 0, 64, 0
1, 148052, Control_c, 0, 64, 34
1, 148053, Note_off_c, 0, 66, 58
1, 148067, Control_c, 0, 64, 62
1, 148082, Control_c, 0, 64, 74
1, 148097, Control_c, 0, 64, 84
1, 148103, Note_on_c, 0, 67, 65
1, 148111, Control_c, 0, 64, 91
1, 148126, Control_c, 0, 64, 95
1, 148129, Note_off_c, 0, 67, 65
1, 148141, Control_c, 0, 64, 99
1, 148155, Control_c, 0, 64, 104
1, 148167, Note_on_c, 0, 70, 56
1, 148170, Control_c, 0, 64, 109
1, 148185, Control_c, 0, 64, 113
1, 148191, Note_off_c, 0, 70, 63
1, 148200, Control_c, 0, 64, 122
1, 148215, Control_c, 0, 64, 127
1, 148219, Note_on_c, 0, 71, 63
1, 148262, Note_on_c, 0, 73, 64
1, 148269, Note_off_c, 0, 71, 56
1, 148304, Note_off_c, 0, 73, 64
1, 148333, Note_on_c, 0, 74, 67
1, 148374, Note_on_c, 0, 78, 75
1, 148395, Note_off_c, 0, 74, 64
1, 148397, Note_off_c, 0, 78, 67
1, 148421, Note_on_c, 0, 79, 75
1, 148453, Control_c, 0, 64, 76
1, 148457, Note_off_c, 0, 79, 62
1, 148468, Control_c, 0, 64, 49
1, 148475, Note_on_c, 0, 70, 77
1, 148483, Control_c, 0, 64, 0
1, 148520, Control_c, 0, 64, 25
1, 148534, Control_c, 0, 64, 58
1, 148542, Note_off_c, 0, 70, 62
1, 148544, Note_on_c, 0, 72, 70
1, 148549, Control_c, 0, 64, 76
1, 148564, Control_c, 0, 64, 107
1, 148568, Note_off_c, 0, 72, 66
1, 148579, Control_c, 0, 64, 127
1, 148593, Note_on_c, 0, 73, 77
1, 148627, Note_off_c, 0, 73, 62
1, 148653, Note_on_c, 0, 76, 76
1, 148699, Note_off_c, 0, 76, 61
1, 148707, Note_on_c, 0, 78, 88
1, 148762, Note_on_c, 0, 79, 79
1, 148766, Note_off_c, 0, 78, 61
1, 148809, Note_on_c, 0, 82, 81
1, 148809, Note_off_c, 0, 79, 63
1, 148830, Note_off_c, 0, 82, 68
1, 148849, Note_on_c, 0, 84, 84
1, 148890, Control_c, 0, 64, 76
1, 148901, Note_off_c, 0, 84, 66
1, 148902, Note_on_c, 0, 73, 88
1, 148903, Note_on_c, 0, 82, 16
1, 148905, Control_c, 0, 64, 53
1, 148920, Control_c, 0, 64, 31
1, 148925, Note_off_c, 0, 82, 47
1, 148934, Control_c, 0, 64, 43
1, 148949, Control_c, 0, 64, 62
1, 148955, Note_on_c, 0, 76, 85
1, 148958, Note_off_c, 0, 73, 63
1, 148964, Control_c, 0, 64, 86
1, 148973, Note_off_c, 0, 76, 71
1, 148978, Control_c, 0, 64, 127
1, 149008, Note_on_c, 0, 78, 85
1, 149041, Note_on_c, 0, 76, 38
1, 149056, Note_on_c, 0, 79, 85
1, 149056, Note_off_c, 0, 78, 64
1, 149066, Note_off_c, 0, 76, 52
1, 149113, Note_off_c, 0, 79, 65
1, 149116, Note_on_c, 0, 82, 96
1, 149163, Note_on_c, 0, 84, 74
1, 149180, Note_off_c, 0, 82, 63
1, 149214, Note_off_c, 0, 84, 67
1, 149223, Note_on_c, 0, 85, 84
1, 149246, Note_off_c, 0, 85, 69
1, 149261, Note_on_c, 0, 88, 89
1, 149314, Control_c, 0, 64, 81
1, 149324, Note_off_c, 0, 88, 64
1, 149325, Note_on_c, 0, 78, 94
1, 149329, Control_c, 0, 64, 58
1, 149344, Control_c, 0, 64, 27
1, 149358, Control_c, 0, 64, 25
1, 149373, Control_c, 0, 64, 53
1, 149383, Note_off_c, 0, 78, 66
1, 149388, Control_c, 0, 64, 71
1, 149401, Note_on_c, 0, 79, 77
1, 149402, Control_c, 0, 64, 98
1, 149410, Note_on_c, 0, 82, 83
1, 149417, Control_c, 0, 64, 127
1, 149422, Note_off_c, 0, 79, 69
1, 149454, Note_off_c, 0, 82, 63
1, 149488, Note_on_c, 0, 83, 82
1, 149526, Note_on_c, 0, 85, 96
1, 149561, Note_on_c, 0, 84, 49
1, 149565, Note_off_c, 0, 83, 62
1, 149574, Note_off_c, 0, 85, 66
1, 149576, Note_on_c, 0, 86, 81
1, 149586, Note_off_c, 0, 84, 57
1, 149608, Note_on_c, 0, 90, 94
1, 149634, Note_off_c, 0, 90, 66
1, 149643, Note_off_c, 0, 86, 65
1, 149654, Note_on_c, 0, 91, 99
1, 149699, Control_c, 0, 64, 94
1, 149714, Control_c, 0, 64, 65
1, 149716, Note_off_c, 0, 91, 65
1, 149729, Control_c, 0, 64, 36
1, 149744, Control_c, 0, 64, 0
1, 149817, Control_c, 0, 67, 8
1, 149825, Note_on_c, 0, 90, 89
1, 149833, Control_c, 0, 67, 9
1, 149848, Control_c, 0, 64, 37
1, 149863, Control_c, 0, 64, 63
1, 149863, Control_c, 0, 67, 9
1, 149874, Note_on_c, 0, 86, 74
1, 149878, Control_c, 0, 64, 69
1, 149879, Note_off_c, 0, 90, 68
1, 149892, Control_c, 0, 64, 73
1, 149901, Note_on_c, 0, 92, 47
1, 149907, Control_c, 0, 64, 78
1, 149907, Control_c, 0, 67, 9
1, 149922, Control_c, 0, 64, 85
1, 149922, Control_c, 0, 67, 8
1, 149923, Note_off_c, 0, 92, 60
1, 149934, Note_off_c, 0, 86, 65
1, 149937, Control_c, 0, 64, 97
1, 149950, Note_on_c, 0, 91, 72
1, 149952, Control_c, 0, 64, 119
1, 149967, Control_c, 0, 64, 127
1, 149991, Note_on_c, 0, 79, 69
1, 149995, Control_c, 0, 67, 0
1, 150015, Note_off_c, 0, 91, 58
1, 150050, Note_off_c, 0, 79, 64
1, 150058, Note_on_c, 0, 85, 88
1, 150107, Note_off_c, 0, 85, 65
1, 150110, Note_on_c, 0, 87, 73
1, 150117, Note_on_c, 0, 84, 75
1, 150141, Note_off_c, 0, 87, 67
1, 150179, Note_off_c, 0, 84, 66
1, 150188, Note_on_c, 0, 89, 78
1, 150236, Note_on_c, 0, 83, 78
1, 150269, Note_off_c, 0, 89, 59
1, 150278, Note_on_c, 0, 85, 83
1, 150286, Note_off_c, 0, 83, 66
1, 150317, Note_on_c, 0, 90, 84
1, 150323, Note_off_c, 0, 85, 65
1, 150351, Note_on_c, 0, 86, 78
1, 150371, Note_off_c, 0, 90, 66
1, 150405, Note_off_c, 0, 86, 66
1, 150408, Note_on_c, 0, 91, 83
1, 150452, Note_on_c, 0, 79, 79
1, 150476, Note_off_c, 0, 79, 71
1, 150493, Note_on_c, 0, 85, 95
1, 150528, Note_off_c, 0, 91, 57
1, 150543, Note_on_c, 0, 87, 80
1, 150549, Note_off_c, 0, 85, 64
1, 150569, Note_on_c, 0, 84, 82
1, 150572, Note_off_c, 0, 87, 65
1, 150624, Note_on_c, 0, 89, 82
1, 150627, Note_off_c, 0, 84, 66
1, 150670, Control_c, 0, 64, 86
1, 150680, Note_on_c, 0, 83, 76
1, 150685, Control_c, 0, 64, 58
1, 150691, Note_off_c, 0, 89, 64
1, 150700, Control_c, 0, 64, 0
1, 150732, Note_off_c, 0, 83, 56
1, 150734, Note_on_c, 0, 90, 86
1, 150767, Control_c, 0, 64, 49
1, 150782, Control_c, 0, 64, 72
1, 150796, Control_c, 0, 64, 88
1, 150802, Note_on_c, 0, 94, 87
1, 150803, Note_off_c, 0, 90, 67
1, 150811, Control_c, 0, 64, 127
1, 150826, Note_on_c, 0, 86, 79
1, 150835, Note_off_c, 0, 94, 63
1, 150874, Note_off_c, 0, 86, 65
1, 150875, Note_on_c, 0, 91, 84
1, 150916, Note_on_c, 0, 79, 79
1, 150941, Note_off_c, 0, 79, 70
1, 150960, Note_on_c, 0, 85, 99
1, 150996, Note_off_c, 0, 91, 57
1, 151014, Note_on_c, 0, 87, 80
1, 151014, Note_off_c, 0, 85, 64
1, 151027, Note_on_c, 0, 84, 78
1, 151047, Note_off_c, 0, 87, 64
1, 151080, Note_on_c, 0, 89, 86
1, 151086, Note_off_c, 0, 84, 67
1, 151134, Note_on_c, 0, 83, 79
1, 151136, Control_c, 0, 64, 72
1, 151151, Control_c, 0, 64, 44
1, 151164, Note_off_c, 0, 89, 61
1, 151166, Control_c, 0, 64, 0
1, 151168, Note_on_c, 0, 90, 90
1, 151187, Note_off_c, 0, 83, 66
1, 151196, Control_c, 0, 64, 47
1, 151211, Control_c, 0, 64, 70
1, 151220, Note_on_c, 0, 94, 90
1, 151226, Control_c, 0, 64, 98
1, 151227, Note_off_c, 0, 90, 67
1, 151241, Note_on_c, 0, 86, 84
1, 151241, Control_c, 0, 64, 127
1, 151255, Note_off_c, 0, 94, 64
1, 151297, Note_on_c, 0, 91, 84
1, 151299, Note_off_c, 0, 86, 67
1, 151346, Note_on_c, 0, 79, 85
1, 151373, Note_off_c, 0, 79, 68
1, 151381, Note_on_c, 0, 85, 103
1, 151440, Note_off_c, 0, 85, 67
1, 151441, Note_off_c, 0, 91, 63
1, 151443, Note_on_c, 0, 87, 84
1, 151473, Note_off_c, 0, 87, 65
1, 151476, Note_on_c, 0, 84, 85
1, 151524, Note_on_c, 0, 89, 87
1, 151530, Note_off_c, 0, 84, 67
1, 151586, Note_on_c, 0, 83, 86
1, 151597, Note_off_c, 0, 89, 64
1, 151615, Note_off_c, 0, 83, 65
1, 151619, Control_c, 0, 64, 74
1, 151634, Control_c, 0, 64, 50
1, 151649, Control_c, 0, 64, 0
1, 151686, Poly_aftertouch_c, 0, 91, 0
1, 151700, Note_on_c, 0, 90, 98
1, 151708, Control_c, 0, 64, 43
1, 151723, Control_c, 0, 64, 64
1, 151738, Control_c, 0, 64, 77
1, 151747, Note_off_c, 0, 90, 66
1, 151752, Control_c, 0, 64, 89
1, 151767, Control_c, 0, 64, 105
1, 151780, Note_on_c, 0, 91, 87
1, 151782, Control_c, 0, 64, 127
1, 151828, Note_off_c, 0, 91, 65
1, 151846, Note_on_c, 0, 85, 93
1, 151897, Note_off_c, 0, 85, 63
1, 151899, Note_on_c, 0, 86, 87
1, 151929, Note_off_c, 0, 86, 62
1, 151944, Note_on_c, 0, 87, 92
1, 151998, Note_on_c, 0, 89, 84
1, 151998, Note_off_c, 0, 87, 66
1, 152028, Note_off_c, 0, 89, 64
1, 152035, Note_on_c, 0, 85, 75
1, 152056, Note_off_c, 0, 85, 69
1, 152090, Note_on_c, 0, 83, 101
1, 152108, Control_c, 0, 64, 102
1, 152123, Control_c, 0, 64, 59
1, 152138, Control_c, 0, 64, 0
1, 152457, Control_c, 0, 64, 15
1, 152472, Control_c, 0, 64, 46
1, 152487, Control_c, 0, 64, 64
1, 152501, Control_c, 0, 64, 72
1, 152516, Control_c, 0, 64, 83
1, 152529, Note_off_c, 0, 83, 59
1, 152531, Control_c, 0, 64, 114
1, 152546, Control_c, 0, 64, 127
1, 152573, Note_on_c, 0, 85, 81
1, 152601, Note_off_c, 0, 85, 65
1, 152658, Note_on_c, 0, 81, 74
1, 152696, Note_off_c, 0, 81, 64
1, 152703, Note_on_c, 0, 80, 75
1, 152758, Note_on_c, 0, 89, 88
1, 152768, Note_off_c, 0, 80, 63
1, 152800, Note_off_c, 0, 89, 66
1, 152815, Note_on_c, 0, 82, 89
1, 152856, Note_off_c, 0, 82, 65
1, 152865, Note_on_c, 0, 86, 83
1, 152888, Note_off_c, 0, 86, 67
1, 152905, Note_on_c, 0, 80, 85
1, 152925, Note_off_c, 0, 80, 69
1, 152963, Note_on_c, 0, 77, 98
1, 153004, Note_on_c, 0, 80, 18
1, 153011, Control_c, 0, 64, 79
1, 153027, Control_c, 0, 64, 39
1, 153033, Note_off_c, 0, 80, 45
1, 153042, Control_c, 0, 64, 0
1, 153264, Control_c, 0, 64, 39
1, 153279, Control_c, 0, 64, 56
1, 153294, Control_c, 0, 64, 66
1, 153309, Control_c, 0, 64, 77
1, 153323, Control_c, 0, 64, 100
1, 153338, Control_c, 0, 64, 127
1, 153363, Note_off_c, 0, 77, 63
1, 153369, Note_on_c, 0, 80, 77
1, 153397, Note_off_c, 0, 80, 64
1, 153435, Note_on_c, 0, 81, 70
1, 153482, Note_off_c, 0, 81, 57
1, 153495, Note_on_c, 0, 75, 73
1, 153543, Note_on_c, 0, 74, 72
1, 153551, Note_off_c, 0, 75, 63
1, 153569, Note_off_c, 0, 74, 67
1, 153588, Note_on_c, 0, 78, 87
1, 153630, Note_off_c, 0, 78, 61
1, 153631, Note_on_c, 0, 71, 78
1, 153658, Note_off_c, 0, 71, 67
1, 153685, Note_on_c, 0, 75, 84
1, 153723, Note_on_c, 0, 77, 98
1, 153723, Control_c, 0, 64, 88
1, 153724, Note_off_c, 0, 75, 67
1, 153745, Control_c, 0, 64, 59
1, 153760, Control_c, 0, 64, 0
1, 153789, Control_c, 0, 64, 27
1, 153804, Control_c, 0, 64, 63
1, 153820, Control_c, 0, 64, 79
1, 153835, Control_c, 0, 64, 97
1, 153850, Control_c, 0, 64, 127
1, 153936, Note_off_c, 0, 77, 63
1, 153974, Note_on_c, 0, 78, 73
1, 153998, Note_off_c, 0, 78, 66
1, 154040, Note_on_c, 0, 79, 75
1, 154073, Note_off_c, 0, 79, 62
1, 154085, Note_on_c, 0, 73, 73
1, 154147, Note_off_c, 0, 73, 64
1, 154148, Note_on_c, 0, 74, 68
1, 154174, Note_off_c, 0, 74, 67
1, 154198, Note_on_c, 0, 75, 84
1, 154223, Note_off_c, 0, 75, 67
1, 154239, Note_on_c, 0, 77, 73
1, 154264, Note_off_c, 0, 77, 70
1, 154312, Note_on_c, 0, 73, 87
1, 154336, Note_on_c, 0, 71, 86
1, 154358, Note_off_c, 0, 73, 64
1, 154374, Note_off_c, 0, 71, 62
1, 154418, Note_on_c, 0, 73, 85
1, 154433, Note_on_c, 0, 69, 82
1, 154460, Note_off_c, 0, 69, 70
1, 154463, Note_off_c, 0, 73, 65
1, 154529, Note_on_c, 0, 68, 87
1, 154542, Note_on_c, 0, 77, 90
1, 154568, Control_c, 0, 64, 101
1, 154579, Note_off_c, 0, 77, 62
1, 154583, Control_c, 0, 64, 65
1, 154596, Note_off_c, 0, 68, 54
1, 154597, Control_c, 0, 64, 54
1, 154612, Control_c, 0, 64, 61
1, 154624, Note_on_c, 0, 70, 87
1, 154628, Control_c, 0, 64, 76
1, 154643, Control_c, 0, 64, 127
1, 154671, Note_off_c, 0, 70, 65
1, 154681, Note_on_c, 0, 74, 92
1, 154731, Note_off_c, 0, 74, 65
1, 154735, Note_on_c, 0, 68, 88
1, 154779, Note_off_c, 0, 68, 65
1, 154787, Note_on_c, 0, 65, 89
1, 154832, Note_off_c, 0, 65, 64
1, 154842, Note_on_c, 0, 68, 82
1, 154873, Note_off_c, 0, 68, 62
1, 154889, Note_on_c, 0, 69, 94
1, 154938, Note_on_c, 0, 63, 93
1, 154943, Note_off_c, 0, 69, 65
1, 155010, Note_off_c, 0, 63, 60
1, 155011, Note_on_c, 0, 62, 85
1, 155034, Note_on_c, 0, 66, 88
1, 155052, Note_off_c, 0, 62, 64
1, 155089, Note_on_c, 0, 59, 84
1, 155121, Note_off_c, 0, 59, 69
1, 155145, Note_off_c, 0, 66, 64
1, 155146, Note_on_c, 0, 63, 72
1, 155178, Note_on_c, 0, 65, 89
1, 155214, Note_off_c, 0, 65, 67
1, 155227, Note_off_c, 0, 63, 62
1, 155390, Note_on_c, 0, 66, 12
1, 155432, Note_off_c, 0, 66, 45
1, 155450, Note_on_c, 0, 79, 105
1, 155456, Note_on_c, 0, 58, 86
1, 155457, Note_on_c, 0, 60, 70
1, 155458, Note_on_c, 0, 67, 89
1, 155462, Note_on_c, 0, 64, 83
1, 155463, Note_on_c, 0, 61, 80
1, 155496, Control_c, 0, 64, 62
1, 155506, Note_on_c, 0, 77, 65
1, 155511, Control_c, 0, 64, 0
1, 155531, Note_on_c, 0, 66, 65
1, 155570, Control_c, 0, 64, 26
1, 155585, Control_c, 0, 64, 51
1, 155590, Note_off_c, 0, 58, 62
1, 155597, Note_off_c, 0, 64, 61
1, 155599, Note_off_c, 0, 61, 62
1, 155599, Control_c, 0, 64, 66
1, 155609, Note_off_c, 0, 60, 58
1, 155614, Control_c, 0, 64, 87
1, 155629, Control_c, 0, 64, 127
1, 155648, Note_on_c, 0, 60, 53
1, 155649, Note_off_c, 0, 66, 65
1, 155664, Note_on_c, 0, 58, 53
1, 155665, Note_on_c, 0, 61, 56
1, 155668, Note_on_c, 0, 64, 44
1, 155670, Note_off_c, 0, 77, 58
1, 155699, Note_off_c, 0, 61, 50
1, 155704, Note_off_c, 0, 64, 49
1, 155709, Note_off_c, 0, 60, 60
1, 155712, Note_off_c, 0, 58, 59
1, 155712, Note_on_c, 0, 66, 65
1, 155768, Note_off_c, 0, 66, 64
1, 155778, Note_on_c, 0, 58, 54
1, 155781, Note_on_c, 0, 60, 63
1, 155791, Note_on_c, 0, 61, 55
1, 155810, Note_off_c, 0, 61, 64
1, 155811, Note_off_c, 0, 58, 61
1, 155816, Note_off_c, 0, 60, 61
1, 155825, Note_on_c, 0, 66, 69
1, 155855, Note_off_c, 0, 79, 62
1, 155875, Note_on_c, 0, 60, 79
1, 155879, Note_on_c, 0, 61, 74
1, 155885, Note_off_c, 0, 66, 64
1, 155896, Poly_aftertouch_c, 0, 58, 127
1, 155911, Poly_aftertouch_c, 0, 58, 0
1, 155912, Note_off_c, 0, 61, 63
1, 155914, Note_off_c, 0, 60, 60
1, 155934, Note_on_c, 0, 66, 70
1, 155974, Note_on_c, 0, 58, 71
1, 155991, Note_on_c, 0, 60, 79
1, 155995, Note_off_c, 0, 66, 62
1, 155995, Note_on_c, 0, 61, 76
1, 156018, Note_off_c, 0, 61, 68
1, 156026, Note_off_c, 0, 60, 61
1, 156030, Note_off_c, 0, 58, 64
1, 156037, Note_on_c, 0, 66, 72
1, 156086, Note_on_c, 0, 61, 55
1, 156088, Note_on_c, 0, 60, 82
1, 156094, Note_on_c, 0, 58, 47
1, 156099, Note_off_c, 0, 66, 62
1, 156100, Note_on_c, 0, 64, 35
1, 156123, Note_off_c, 0, 61, 66
1, 156124, Note_off_c, 0, 58, 63
1, 156129, Note_off_c, 0, 60, 58
1, 156135, Note_off_c, 0, 64, 55
1, 156141, Note_on_c, 0, 66, 69
1, 156197, Note_on_c, 0, 58, 62
1, 156200, Note_on_c, 0, 76, 102
1, 156204, Note_on_c, 0, 60, 76
1, 156206, Note_on_c, 0, 61, 74
1, 156206, Note_off_c, 0, 66, 65
1, 156227, Note_on_c, 0, 64, 47
1, 156234, Note_off_c, 0, 61, 65
1, 156240, Note_off_c, 0, 60, 63
1, 156248, Note_on_c, 0, 69, 5
1, 156254, Note_off_c, 0, 58, 64
1, 156257, Note_off_c, 0, 64, 56
1, 156257, Note_on_c, 0, 66, 74
1, 156296, Note_off_c, 0, 69, 0
1, 156316, Note_on_c, 0, 61, 53
1, 156317, Note_on_c, 0, 60, 67
1, 156322, Note_off_c, 0, 66, 64
1, 156322, Poly_aftertouch_c, 0, 69, 0
1, 156329, Note_on_c, 0, 58, 45
1, 156332, Note_on_c, 0, 64, 65
1, 156353, Note_on_c, 0, 72, 95
1, 156361, Note_off_c, 0, 61, 63
1, 156362, Note_off_c, 0, 60, 62
1, 156363, Note_off_c, 0, 58, 52
1, 156373, Note_on_c, 0, 66, 68
1, 156374, Note_off_c, 0, 64, 64
1, 156377, Note_off_c, 0, 76, 66
1, 156392, Note_off_c, 0, 67, 64
1, 156412, Note_off_c, 0, 72, 65
1, 156428, Poly_aftertouch_c, 0, 69, 0
1, 156430, Note_off_c, 0, 66, 64
1, 156447, Note_on_c, 0, 58, 56
1, 156453, Note_on_c, 0, 60, 62
1, 156479, Note_off_c, 0, 58, 59
1, 156492, Note_off_c, 0, 60, 56
1, 156505, Note_on_c, 0, 67, 103
1, 156508, Note_on_c, 0, 66, 75
1, 156559, Note_off_c, 0, 66, 63
1, 156565, Note_on_c, 0, 60, 61
1, 156588, Note_on_c, 0, 58, 40
1, 156603, Note_off_c, 0, 60, 61
1, 156603, Note_on_c, 0, 61, 8
1, 156623, Note_off_c, 0, 58, 45
1, 156627, Note_on_c, 0, 66, 68
1, 156652, Note_off_c, 0, 61, 53
1, 156656, Note_on_c, 0, 64, 62
1, 156679, Note_off_c, 0, 67, 61
1, 156681, Note_off_c, 0, 64, 64
1, 156681, Note_off_c, 0, 66, 64
1, 156683, Note_on_c, 0, 60, 63
1, 156692, Note_on_c, 0, 61, 57
1, 156699, Note_on_c, 0, 58, 47
1, 156716, Note_off_c, 0, 60, 64
1, 156719, Note_off_c, 0, 61, 66
1, 156724, Note_off_c, 0, 58, 57
1, 156749, Note_on_c, 0, 66, 71
1, 156797, Note_on_c, 0, 60, 68
1, 156802, Note_off_c, 0, 66, 64
1, 156803, Note_on_c, 0, 58, 57
1, 156803, Note_on_c, 0, 61, 69
1, 156833, Note_off_c, 0, 58, 63
1, 156836, Note_off_c, 0, 61, 64
1, 156842, Note_off_c, 0, 60, 60
1, 156855, Note_on_c, 0, 66, 73
1, 156880, Poly_aftertouch_c, 0, 64, 0
1, 156908, Note_on_c, 0, 58, 69
1, 156908, Note_on_c, 0, 60, 73
1, 156912, Note_on_c, 0, 61, 81
1, 156916, Note_off_c, 0, 66, 64
1, 156931, Poly_aftertouch_c, 0, 64, 0
1, 156939, Note_off_c, 0, 58, 61
1, 156942, Note_off_c, 0, 60, 62
1, 156943, Note_off_c, 0, 61, 61
1, 156967, Note_on_c, 0, 66, 77
1, 157015, Note_on_c, 0, 58, 50
1, 157021, Note_off_c, 0, 66, 65
1, 157022, Note_on_c, 0, 60, 78
1, 157022, Note_on_c, 0, 61, 79
1, 157036, Note_on_c, 0, 64, 56
1, 157053, Note_off_c, 0, 60, 64
1, 157057, Note_off_c, 0, 61, 63
1, 157062, Note_off_c, 0, 64, 58
1, 157074, Note_off_c, 0, 58, 43
1, 157077, Note_on_c, 0, 66, 82
1, 157133, Note_on_c, 0, 60, 66
1, 157134, Note_on_c, 0, 61, 83
1, 157134, Note_off_c, 0, 66, 64
1, 157139, Note_on_c, 0, 64, 56
1, 157140, Note_on_c, 0, 58, 42
1, 157164, Note_off_c, 0, 60, 63
1, 157165, Note_off_c, 0, 61, 64
1, 157166, Note_off_c, 0, 58, 66
1, 157167, Note_off_c, 0, 64, 52
1, 157184, Note_on_c, 0, 66, 74
1, 157239, Note_on_c, 0, 58, 62
1, 157239, Note_on_c, 0, 60, 69
1, 157245, Note_off_c, 0, 66, 64
1, 157247, Note_on_c, 0, 61, 79
1, 157253, Note_on_c, 0, 64, 54
1, 157275, Note_off_c, 0, 61, 65
1, 157277, Note_off_c, 0, 58, 63
1, 157277, Note_off_c, 0, 60, 64
1, 157277, Note_off_c, 0, 64, 61
1, 157300, Note_on_c, 0, 66, 71
1, 157351, Note_on_c, 0, 58, 58
1, 157360, Note_on_c, 0, 60, 70
1, 157360, Note_on_c, 0, 61, 58
1, 157360, Note_off_c, 0, 66, 63
1, 157363, Note_on_c, 0, 64, 52
1, 157387, Note_off_c, 0, 60, 65
1, 157389, Note_off_c, 0, 61, 66
1, 157396, Note_off_c, 0, 58, 64
1, 157408, Note_off_c, 0, 64, 62
1, 157414, Note_on_c, 0, 66, 67
1, 157460, Note_on_c, 0, 60, 55
1, 157470, Note_off_c, 0, 66, 63
1, 157480, Note_on_c, 0, 58, 54
1, 157492, Note_on_c, 0, 61, 47
1, 157512, Note_off_c, 0, 58, 66
1, 157517, Note_off_c, 0, 60, 61
1, 157527, Note_off_c, 0, 61, 48
1, 157536, Note_on_c, 0, 66, 69
1, 157554, Poly_aftertouch_c, 0, 64, 0
1, 157569, Note_on_c, 0, 79, 104
1, 157580, Note_on_c, 0, 67, 85
1, 157587, Note_on_c, 0, 58, 57
1, 157590, Note_on_c, 0, 60, 77
1, 157593, Control_c, 0, 64, 103
1, 157596, Note_off_c, 0, 66, 66
1, 157602, Note_on_c, 0, 61, 73
1, 157608, Control_c, 0, 64, 64
1, 157622, Poly_aftertouch_c, 0, 64, 0
1, 157623, Control_c, 0, 64, 25
1, 157635, Note_off_c, 0, 61, 58
1, 157638, Control_c, 0, 64, 35
1, 157639, Note_on_c, 0, 77, 32
1, 157653, Note_off_c, 0, 58, 62
1, 157653, Control_c, 0, 64, 61
1, 157655, Note_off_c, 0, 60, 61
1, 157661, Note_on_c, 0, 66, 80
1, 157667, Control_c, 0, 64, 81
1, 157682, Control_c, 0, 64, 127
1, 157722, Note_off_c, 0, 66, 64
1, 157724, Note_on_c, 0, 60, 61
1, 157727, Note_on_c, 0, 58, 37
1, 157728, Note_off_c, 0, 77, 41
1, 157736, Note_on_c, 0, 61, 55
1, 157757, Note_off_c, 0, 61, 64
1, 157768, Note_off_c, 0, 60, 60
1, 157776, Note_off_c, 0, 58, 52
1, 157781, Note_on_c, 0, 66, 74
1, 157801, Poly_aftertouch_c, 0, 64, 127
1, 157845, Note_off_c, 0, 66, 64
1, 157848, Note_on_c, 0, 58, 55
1, 157848, Note_on_c, 0, 60, 71
1, 157849, Note_on_c, 0, 61, 61
1, 157883, Note_off_c, 0, 61, 62
1, 157884, Note_off_c, 0, 60, 63
1, 157889, Note_off_c, 0, 58, 54
1, 157905, Note_on_c, 0, 66, 71
1, 157928, Poly_aftertouch_c, 0, 64, 0
1, 157935, Note_off_c, 0, 79, 61
1, 157966, Note_on_c, 0, 60, 70
1, 157966, Note_on_c, 0, 58, 57
1, 157966, Note_off_c, 0, 66, 64
1, 157972, Note_on_c, 0, 61, 64
1, 157994, Note_off_c, 0, 58, 65
1, 157995, Note_off_c, 0, 60, 63
1, 157998, Note_off_c, 0, 61, 66
1, 158020, Note_on_c, 0, 66, 69
1, 158073, Note_on_c, 0, 60, 67
1, 158076, Note_on_c, 0, 58, 56
1, 158076, Note_off_c, 0, 66, 63
1, 158082, Note_on_c, 0, 61, 60
1, 158085, Poly_aftertouch_c, 0, 64, 0
1, 158109, Note_off_c, 0, 60, 63
1, 158109, Note_off_c, 0, 61, 66
1, 158112, Note_off_c, 0, 58, 52
1, 158122, Poly_aftertouch_c, 0, 64, 127
1, 158129, Note_on_c, 0, 66, 69
1, 158153, Note_on_c, 0, 76, 102
1, 158164, Poly_aftertouch_c, 0, 64, 0
1, 158191, Note_on_c, 0, 58, 55
1, 158196, Note_off_c, 0, 66, 63
1, 158199, Note_on_c, 0, 60, 71
1, 158228, Note_off_c, 0, 60, 62
1, 158229, Note_on_c, 0, 64, 15
1, 158229, Note_off_c, 0, 58, 51
1, 158248, Note_on_c, 0, 66, 64
1, 158279, Note_off_c, 0, 64, 45
1, 158287, Note_on_c, 0, 72, 96
1, 158311, Note_off_c, 0, 76, 64
1, 158315, Note_on_c, 0, 60, 51
1, 158320, Note_off_c, 0, 66, 64
1, 158329, Note_on_c, 0, 58, 42
1, 158338, Note_off_c, 0, 67, 63
1, 158345, Note_off_c, 0, 72, 65
1, 158350, Note_on_c, 0, 64, 41
1, 158353, Note_off_c, 0, 60, 62
1, 158359, Note_off_c, 0, 58, 48
1, 158362, Note_on_c, 0, 61, 25
1, 158374, Note_on_c, 0, 66, 66
1, 158377, Note_off_c, 0, 64, 57
1, 158404, Note_off_c, 0, 61, 42
1, 158430, Note_off_c, 0, 66, 63
1, 158436, Note_on_c, 0, 67, 102
1, 158442, Note_on_c, 0, 60, 58
1, 158450, Note_on_c, 0, 58, 40
1, 158464, Note_on_c, 0, 61, 46
1, 158477, Note_off_c, 0, 58, 51
1, 158477, Note_off_c, 0, 60, 59
1, 158493, Note_off_c, 0, 61, 53
1, 158497, Note_on_c, 0, 66, 73
1, 158550, Note_on_c, 0, 58, 57
1, 158553, Note_off_c, 0, 66, 62
1, 158559, Note_on_c, 0, 60, 65
1, 158559, Note_off_c, 0, 67, 63
1, 158564, Note_on_c, 0, 64, 61
1, 158565, Note_on_c, 0, 61, 73
1, 158570, Note_on_c, 0, 65, 62
1, 158591, Note_off_c, 0, 61, 65
1, 158594, Note_off_c, 0, 58, 58
1, 158594, Note_off_c, 0, 64, 60
1, 158596, Note_off_c, 0, 60, 63
1, 158599, Note_off_c, 0, 65, 65
1, 158614, Note_on_c, 0, 66, 68
1, 158668, Note_off_c, 0, 66, 63
1, 158671, Note_on_c, 0, 58, 67
1, 158673, Note_on_c, 0, 60, 74
1, 158676, Note_on_c, 0, 61, 53
1, 158687, Note_on_c, 0, 64, 42
1, 158705, Note_off_c, 0, 60, 61
1, 158705, Note_off_c, 0, 61, 64
1, 158708, Note_off_c, 0, 58, 60
1, 158717, Note_off_c, 0, 64, 55
1, 158730, Note_on_c, 0, 66, 73
1, 158781, Note_on_c, 0, 58, 68
1, 158788, Note_off_c, 0, 66, 63
1, 158789, Note_on_c, 0, 60, 73
1, 158794, Note_on_c, 0, 61, 70
1, 158808, Note_on_c, 0, 64, 40
1, 158822, Note_off_c, 0, 60, 63
1, 158823, Note_off_c, 0, 61, 64
1, 158841, Note_off_c, 0, 58, 64
1, 158841, Note_off_c, 0, 64, 53
1, 158843, Note_on_c, 0, 66, 76
1, 158903, Note_on_c, 0, 58, 47
1, 158905, Note_on_c, 0, 60, 67
1, 158905, Note_off_c, 0, 66, 64
1, 158911, Note_on_c, 0, 61, 63
1, 158927, Note_on_c, 0, 64, 47
1, 158937, Note_off_c, 0, 60, 63
1, 158940, Note_off_c, 0, 61, 64
1, 158943, Note_off_c, 0, 58, 65
1, 158955, Note_on_c, 0, 66, 72
1, 158955, Note_off_c, 0, 64, 56
1, 159020, Note_on_c, 0, 58, 69
1, 159022, Note_on_c, 0, 60, 59
1, 159025, Note_off_c, 0, 66, 63
1, 159035, Note_on_c, 0, 61, 62
1, 159037, Note_on_c, 0, 64, 62
1, 159053, Note_off_c, 0, 61, 65
1, 159060, Note_off_c, 0, 60, 62
1, 159063, Note_off_c, 0, 58, 63
1, 159065, Note_on_c, 0, 66, 65
1, 159067, Note_off_c, 0, 64, 60
1, 159134, Note_off_c, 0, 66, 62
1, 159135, Note_on_c, 0, 60, 73
1, 159139, Note_on_c, 0, 58, 56
1, 159142, Note_on_c, 0, 61, 58
1, 159150, Note_on_c, 0, 64, 42
1, 159164, Note_off_c, 0, 58, 64
1, 159166, Note_off_c, 0, 60, 64
1, 159170, Note_off_c, 0, 61, 64
1, 159173, Note_off_c, 0, 64, 61
1, 159181, Note_on_c, 0, 66, 70
1, 159194, Control_c, 0, 64, 93
1, 159206, Note_on_c, 0, 79, 103
1, 159209, Control_c, 0, 64, 57
1, 159224, Control_c, 0, 64, 34
1, 159226, Note_on_c, 0, 67, 72
1, 159235, Note_on_c, 0, 60, 68
1, 159237, Note_off_c, 0, 66, 65
1, 159239, Note_on_c, 0, 58, 61
1, 159239, Control_c, 0, 64, 57
1, 159241, Note_on_c, 0, 61, 83
1, 159249, Note_on_c, 0, 64, 48
1, 159254, Control_c, 0, 64, 87
1, 159268, Control_c, 0, 64, 127
1, 159277, Note_off_c, 0, 61, 62
1, 159285, Note_off_c, 0, 60, 60
1, 159286, Note_off_c, 0, 58, 63
1, 159288, Note_off_c, 0, 64, 45
1, 159293, Note_on_c, 0, 66, 82
1, 159351, Note_off_c, 0, 66, 64
1, 159356, Note_on_c, 0, 58, 49
1, 159357, Note_on_c, 0, 60, 67
1, 159361, Note_on_c, 0, 61, 76
1, 159361, Note_off_c, 0, 79, 66
1, 159385, Note_off_c, 0, 61, 66
1, 159386, Note_off_c, 0, 58, 64
1, 159391, Note_off_c, 0, 60, 62
1, 159406, Note_on_c, 0, 66, 78
1, 159460, Note_on_c, 0, 58, 73
1, 159462, Note_on_c, 0, 60, 80
1, 159465, Note_off_c, 0, 66, 64
1, 159472, Note_on_c, 0, 61, 69
1, 159486, Note_on_c, 0, 64, 41
1, 159500, Note_off_c, 0, 61, 63
1, 159504, Note_off_c, 0, 58, 63
1, 159511, Note_off_c, 0, 60, 61
1, 159520, Note_off_c, 0, 64, 55
1, 159528, Note_on_c, 0, 66, 78
1, 159590, Note_on_c, 0, 58, 68
1, 159591, Note_on_c, 0, 76, 100
1, 159592, Note_off_c, 0, 66, 64
1, 159593, Note_on_c, 0, 60, 76
1, 159596, Note_on_c, 0, 61, 71
1, 159611, Note_on_c, 0, 64, 50
1, 159628, Note_off_c, 0, 60, 60
1, 159628, Note_off_c, 0, 61, 64
1, 159629, Note_off_c, 0, 58, 63
1, 159633, Note_off_c, 0, 64, 61
1, 159651, Note_off_c, 0, 67, 64
1, 159652, Note_on_c, 0, 66, 79
1, 159697, Note_on_c, 0, 72, 96
1, 159704, Note_on_c, 0, 58, 69
1, 159712, Note_off_c, 0, 66, 64
1, 159713, Note_on_c, 0, 64, 51
1, 159715, Note_on_c, 0, 61, 71
1, 159715, Note_off_c, 0, 76, 62
1, 159717, Note_on_c, 0, 60, 77
1, 159754, Note_off_c, 0, 64, 47
1, 159757, Note_off_c, 0, 61, 63
1, 159758, Note_off_c, 0, 60, 60
1, 159773, Note_off_c, 0, 58, 60
1, 159779, Note_off_c, 0, 72, 64
1, 159781, Note_on_c, 0, 66, 77
1, 159802, Note_on_c, 0, 67, 90
1, 159838, Note_off_c, 0, 66, 65
1, 159842, Note_on_c, 0, 60, 60
1, 159843, Note_on_c, 0, 58, 55
1, 159846, Note_on_c, 0, 61, 64
1, 159865, Note_on_c, 0, 64, 45
1, 159883, Note_off_c, 0, 61, 64
1, 159888, Note_off_c, 0, 60, 63
1, 159891, Note_on_c, 0, 70, 100
1, 159896, Note_on_c, 0, 66, 81
1, 159897, Note_off_c, 0, 58, 63
1, 159897, Note_off_c, 0, 64, 54
1, 159900, Note_off_c, 0, 67, 67
1, 159940, Note_off_c, 0, 70, 66
1, 159963, Note_off_c, 0, 66, 64
1, 159966, Note_on_c, 0, 58, 39
1, 159969, Note_on_c, 0, 60, 73
1, 159972, Note_on_c, 0, 61, 78
1, 159984, Note_on_c, 0, 64, 48
1, 160001, Note_off_c, 0, 60, 61
1, 160001, Note_off_c, 0, 61, 63
1, 160009, Note_off_c, 0, 58, 56
1, 160010, Note_off_c, 0, 64, 57
1, 160021, Note_on_c, 0, 66, 71
1, 160081, Note_off_c, 0, 66, 63
1, 160084, Note_on_c, 0, 58, 68
1, 160090, Note_on_c, 0, 61, 59
1, 160091, Note_on_c, 0, 60, 71
1, 160095, Note_on_c, 0, 64, 48
1, 160122, Note_off_c, 0, 60, 61
1, 160123, Note_off_c, 0, 61, 65
1, 160133, Note_off_c, 0, 58, 61
1, 160139, Note_off_c, 0, 64, 49
1, 160141, Note_on_c, 0, 66, 73
1, 160200, Note_on_c, 0, 58, 59
1, 160203, Note_off_c, 0, 66, 64
1, 160208, Note_on_c, 0, 60, 67
1, 160214, Note_on_c, 0, 61, 74
1, 160224, Note_on_c, 0, 64, 44
1, 160246, Note_off_c, 0, 61, 63
1, 160251, Note_off_c, 0, 60, 59
1, 160255, Note_off_c, 0, 58, 61
1, 160261, Note_off_c, 0, 64, 52
1, 160267, Note_on_c, 0, 66, 78
1, 160268, Note_on_c, 0, 72, 95
1, 160331, Note_off_c, 0, 66, 64
1, 160342, Note_on_c, 0, 60, 68
1, 160344, Note_on_c, 0, 58, 49
1, 160350, Note_on_c, 0, 61, 61
1, 160358, Note_on_c, 0, 64, 51
1, 160375, Note_off_c, 0, 60, 63
1, 160376, Note_off_c, 0, 61, 65
1, 160377, Note_off_c, 0, 58, 59
1, 160386, Note_off_c, 0, 64, 57
1, 160392, Note_on_c, 0, 66, 76
1, 160404, Note_on_c, 0, 73, 93
1, 160428, Note_off_c, 0, 72, 61
1, 160455, Note_on_c, 0, 58, 68
1, 160461, Note_off_c, 0, 66, 64
1, 160464, Note_on_c, 0, 60, 71
1, 160466, Note_on_c, 0, 61, 65
1, 160470, Note_on_c, 0, 64, 53
1, 160505, Note_off_c, 0, 60, 60
1, 160505, Note_off_c, 0, 61, 64
1, 160509, Note_on_c, 0, 77, 81
1, 160513, Note_off_c, 0, 64, 51
1, 160517, Note_off_c, 0, 58, 60
1, 160517, Note_off_c, 0, 73, 66
1, 160527, Note_on_c, 0, 66, 73
1, 160534, Note_off_c, 0, 77, 68
1, 160591, Note_off_c, 0, 66, 63
1, 160592, Note_on_c, 0, 76, 86
1, 160594, Note_on_c, 0, 58, 51
1, 160594, Note_on_c, 0, 60, 71
1, 160601, Note_on_c, 0, 61, 66
1, 160603, Note_on_c, 0, 64, 54
1, 160624, Note_off_c, 0, 61, 67
1, 160628, Note_off_c, 0, 60, 62
1, 160632, Note_off_c, 0, 58, 62
1, 160633, Note_off_c, 0, 64, 52
1, 160639, Note_on_c, 0, 66, 77
1, 160669, Note_on_c, 0, 72, 94
1, 160687, Note_off_c, 0, 76, 63
1, 160699, Note_on_c, 0, 60, 65
1, 160702, Note_off_c, 0, 66, 60
1, 160713, Note_on_c, 0, 64, 60
1, 160715, Note_on_c, 0, 61, 51
1, 160722, Note_on_c, 0, 58, 44
1, 160730, Note_off_c, 0, 72, 61
1, 160739, Note_off_c, 0, 61, 60
1, 160745, Note_off_c, 0, 58, 57
1, 160750, Note_on_c, 0, 66, 67
1, 160751, Note_off_c, 0, 60, 57
1, 160754, Note_on_c, 0, 67, 91
1, 160777, Note_off_c, 0, 64, 65
1, 160802, Note_off_c, 0, 67, 65
1, 160824, Note_on_c, 0, 58, 77
1, 160826, Control_c, 0, 64, 79
1, 160833, Note_on_c, 0, 61, 65
1, 160834, Note_on_c, 0, 70, 105
1, 160840, Control_c, 0, 64, 53
1, 160845, Note_on_c, 0, 67, 53
1, 160855, Control_c, 0, 64, 53
1, 160862, Note_off_c, 0, 67, 36
1, 160869, Note_off_c, 0, 66, 38
1, 160870, Control_c, 0, 64, 67
1, 160885, Control_c, 0, 64, 99
1, 160887, Note_off_c, 0, 61, 58
1, 160900, Control_c, 0, 64, 127
1, 160912, Note_off_c, 0, 58, 62
1, 160920, Note_on_c, 0, 65, 48
1, 160923, Note_on_c, 0, 64, 61
1, 160952, Note_off_c, 0, 65, 64
1, 160958, Note_off_c, 0, 64, 66
1, 160964, Note_on_c, 0, 58, 41
1, 160970, Note_on_c, 0, 60, 63
1, 160979, Note_on_c, 0, 61, 62
1, 161002, Note_off_c, 0, 61, 66
1, 161007, Note_off_c, 0, 58, 65
1, 161009, Note_off_c, 0, 60, 63
1, 161037, Note_on_c, 0, 64, 71
1, 161078, Note_off_c, 0, 64, 64
1, 161081, Note_on_c, 0, 60, 70
1, 161087, Note_on_c, 0, 61, 50
1, 161094, Note_on_c, 0, 58, 70
1, 161098, Note_on_c, 0, 66, 85
1, 161111, Note_off_c, 0, 61, 62
1, 161119, Note_off_c, 0, 58, 68
1, 161122, Note_off_c, 0, 60, 60
1, 161153, Note_on_c, 0, 64, 70
1, 161193, Note_on_c, 0, 58, 51
1, 161199, Note_off_c, 0, 66, 63
1, 161201, Note_on_c, 0, 60, 73
1, 161201, Note_on_c, 0, 61, 56
1, 161202, Note_off_c, 0, 64, 65
1, 161239, Note_off_c, 0, 60, 59
1, 161247, Note_off_c, 0, 58, 65
1, 161247, Note_off_c, 0, 61, 56
1, 161277, Note_on_c, 0, 64, 69
1, 161297, Note_on_c, 0, 67, 93
1, 161319, Note_on_c, 0, 58, 68
1, 161321, Note_on_c, 0, 61, 66
1, 161329, Note_off_c, 0, 64, 64
1, 161331, Note_on_c, 0, 60, 63
1, 161361, Note_off_c, 0, 60, 59
1, 161373, Note_off_c, 0, 58, 65
1, 161380, Note_off_c, 0, 61, 56
1, 161385, Note_on_c, 0, 64, 64
1, 161414, Note_off_c, 0, 70, 62
1, 161435, Note_on_c, 0, 61, 56
1, 161439, Note_on_c, 0, 58, 67
1, 161444, Note_off_c, 0, 64, 65
1, 161446, Note_on_c, 0, 60, 70
1, 161453, Note_on_c, 0, 72, 92
1, 161480, Note_off_c, 0, 60, 57
1, 161492, Note_off_c, 0, 58, 64
1, 161496, Note_off_c, 0, 61, 61
1, 161507, Note_on_c, 0, 64, 77
1, 161569, Note_on_c, 0, 58, 74
1, 161575, Note_off_c, 0, 64, 64
1, 161580, Note_on_c, 0, 60, 66
1, 161594, Note_off_c, 0, 67, 62
1, 161613, Note_off_c, 0, 72, 49
1, 161622, Note_on_c, 0, 70, 94
1, 161632, Note_off_c, 0, 58, 64
1, 161634, Note_on_c, 0, 64, 73
1, 161641, Note_off_c, 0, 60, 62
1, 161706, Note_on_c, 0, 60, 72
1, 161709, Note_on_c, 0, 58, 71
1, 161711, Note_off_c, 0, 64, 63
1, 161730, Note_off_c, 0, 70, 62
1, 161737, Note_on_c, 0, 66, 94
1, 161751, Note_off_c, 0, 58, 65
1, 161760, Note_off_c, 0, 60, 60
1, 161779, Note_on_c, 0, 64, 72
1, 161792, Note_off_c, 0, 66, 66
1, 161829, Note_off_c, 0, 64, 64
1, 161852, Note_on_c, 0, 61, 90
1, 161859, Note_on_c, 0, 60, 74
1, 161894, Note_off_c, 0, 61, 65
1, 161899, Note_on_c, 0, 59, 49
1, 161908, Note_off_c, 0, 60, 62
1, 161924, Note_off_c, 0, 59, 65
1, 161947, Control_c, 0, 64, 68
1, 161961, Control_c, 0, 64, 60
1, 161966, Note_on_c, 0, 64, 98
1, 161984, Control_c, 0, 64, 67
1, 161999, Control_c, 0, 64, 92
1, 162013, Control_c, 0, 64, 127
1, 162079, Note_off_c, 0, 64, 61
1, 162103, Note_on_c, 0, 61, 57
1, 162121, Note_on_c, 0, 58, 25
1, 162121, Note_on_c, 0, 66, 36
1, 162143, Note_off_c, 0, 61, 61
1, 162151, Note_off_c, 0, 66, 55
1, 162156, Note_off_c, 0, 58, 43
1, 162201, Note_on_c, 0, 60, 39
1, 162229, Note_off_c, 0, 60, 51
1, 162239, Note_on_c, 0, 66, 40
1, 162243, Note_on_c, 0, 64, 3
1, 162246, Note_on_c, 0, 61, 53
1, 162276, Note_off_c, 0, 66, 51
1, 162277, Note_off_c, 0, 61, 57
1, 162282, Note_off_c, 0, 64, 53
1, 162311, Note_on_c, 0, 60, 60
1, 162324, Poly_aftertouch_c, 0, 58, 0
1, 162338, Note_off_c, 0, 60, 60
1, 162365, Note_on_c, 0, 61, 61
1, 162372, Note_on_c, 0, 66, 42
1, 162379, Poly_aftertouch_c, 0, 67, 127
1, 162397, Note_off_c, 0, 61, 62
1, 162398, Note_off_c, 0, 66, 56
1, 162428, Note_on_c, 0, 60, 55
1, 162432, Poly_aftertouch_c, 0, 67, 0
1, 162452, Note_on_c, 0, 67, 23
1, 162453, Note_on_c, 0, 64, 37
1, 162464, Note_off_c, 0, 60, 60
1, 162476, Note_on_c, 0, 66, 55
1, 162483, Note_on_c, 0, 61, 58
1, 162485, Note_off_c, 0, 64, 53
1, 162494, Note_off_c, 0, 67, 47
1, 162510, Note_off_c, 0, 66, 51
1, 162516, Note_off_c, 0, 61, 60
1, 162547, Poly_aftertouch_c, 0, 58, 127
1, 162548, Note_on_c, 0, 60, 57
1, 162574, Note_on_c, 0, 64, 53
1, 162574, Note_on_c, 0, 67, 48
1, 162585, Note_off_c, 0, 60, 59
1, 162588, Poly_aftertouch_c, 0, 58, 0
1, 162594, Note_off_c, 0, 64, 65
1, 162601, Note_on_c, 0, 66, 50
1, 162601, Note_off_c, 0, 67, 57
1, 162601, Note_on_c, 0, 61, 54
1, 162625, Note_off_c, 0, 66, 56
1, 162626, Poly_aftertouch_c, 0, 58, 127
1, 162634, Note_off_c, 0, 61, 58
1, 162658, Poly_aftertouch_c, 0, 58, 0
1, 162670, Note_on_c, 0, 60, 48
1, 162678, Note_on_c, 0, 64, 51
1, 162699, Note_on_c, 0, 67, 48
1, 162702, Note_off_c, 0, 60, 52
1, 162706, Note_on_c, 0, 66, 56
1, 162707, Note_off_c, 0, 64, 59
1, 162731, Note_on_c, 0, 61, 55
1, 162731, Note_off_c, 0, 67, 55
1, 162753, Note_off_c, 0, 66, 50
1, 162759, Note_off_c, 0, 61, 58
1, 162793, Poly_aftertouch_c, 0, 58, 0
1, 162795, Note_on_c, 0, 60, 46
1, 162809, Note_on_c, 0, 67, 43
1, 162811, Note_on_c, 0, 64, 35
1, 162826, Note_off_c, 0, 60, 49
1, 162837, Poly_aftertouch_c, 0, 58, 0
1, 162839, Note_off_c, 0, 67, 52
1, 162840, Note_on_c, 0, 66, 55
1, 162840, Note_off_c, 0, 64, 53
1, 162845, Note_on_c, 0, 61, 59
1, 162869, Note_off_c, 0, 66, 54
1, 162875, Poly_aftertouch_c, 0, 58, 127
1, 162881, Note_off_c, 0, 61, 61
1, 162903, Note_on_c, 0, 60, 49
1, 162911, Note_on_c, 0, 67, 45
1, 162928, Note_on_c, 0, 64, 35
1, 162928, Note_off_c, 0, 60, 55
1, 162935, Poly_aftertouch_c, 0, 58, 0
1, 162946, Note_off_c, 0, 67, 49
1, 162952, Note_on_c, 0, 58, 34
1, 162952, Note_on_c, 0, 66, 61
1, 162954, Note_on_c, 0, 61, 60
1, 162970, Note_off_c, 0, 64, 44
1, 162987, Note_off_c, 0, 66, 58
1, 162996, Note_off_c, 0, 61, 57
1, 163001, Note_on_c, 0, 60, 63
1, 163006, Note_off_c, 0, 58, 54
1, 163008, Note_on_c, 0, 67, 55
1, 163016, Note_on_c, 0, 64, 46
1, 163031, Note_off_c, 0, 60, 62
1, 163043, Note_off_c, 0, 64, 64
1, 163046, Note_off_c, 0, 67, 58
1, 163066, Note_on_c, 0, 58, 45
1, 163067, Note_on_c, 0, 61, 68
1, 163071, Note_on_c, 0, 66, 63
1, 163096, Note_off_c, 0, 66, 60
1, 163102, Note_off_c, 0, 61, 60
1, 163104, Note_on_c, 0, 60, 66
1, 163105, Note_off_c, 0, 58, 59
1, 163119, Note_on_c, 0, 67, 59
1, 163125, Note_on_c, 0, 64, 65
1, 163146, Note_off_c, 0, 60, 59
1, 163155, Note_off_c, 0, 64, 67
1, 163155, Note_off_c, 0, 67, 61
1, 163170, Note_on_c, 0, 66, 73
1, 163172, Note_on_c, 0, 61, 62
1, 163177, Note_on_c, 0, 58, 57
1, 163205, Note_off_c, 0, 66, 57
1, 163209, Note_off_c, 0, 61, 61
1, 163212, Note_off_c, 0, 58, 60
1, 163222, Note_on_c, 0, 64, 63
1, 163224, Note_on_c, 0, 60, 72
1, 163224, Note_on_c, 0, 67, 68
1, 163255, Note_off_c, 0, 60, 63
1, 163260, Note_off_c, 0, 64, 64
1, 163263, Note_off_c, 0, 67, 59
1, 163280, Note_on_c, 0, 66, 70
1, 163283, Note_on_c, 0, 61, 66
1, 163298, Note_on_c, 0, 58, 53
1, 163308, Note_off_c, 0, 66, 62
1, 163313, Note_off_c, 0, 61, 65
1, 163319, Note_off_c, 0, 58, 63
1, 163326, Note_on_c, 0, 60, 68
1, 163334, Note_on_c, 0, 64, 67
1, 163351, Poly_aftertouch_c, 0, 67, 127
1, 163364, Note_off_c, 0, 64, 63
1, 163366, Note_off_c, 0, 60, 61
1, 163370, Poly_aftertouch_c, 0, 67, 0
1, 163375, Note_on_c, 0, 66, 70
1, 163385, Note_on_c, 0, 58, 70
1, 163385, Note_on_c, 0, 61, 74
1, 163412, Note_off_c, 0, 66, 59
1, 163415, Note_off_c, 0, 61, 63
1, 163418, Note_off_c, 0, 58, 62
1, 163437, Note_on_c, 0, 64, 60
1, 163441, Note_on_c, 0, 60, 71
1, 163447, Note_on_c, 0, 67, 63
1, 163470, Note_off_c, 0, 60, 63
1, 163480, Note_off_c, 0, 64, 62
1, 163482, Note_off_c, 0, 67, 65
1, 163493, Note_on_c, 0, 61, 64
1, 163495, Note_on_c, 0, 66, 77
1, 163499, Note_on_c, 0, 58, 65
1, 163522, Note_off_c, 0, 66, 65
1, 163528, Note_off_c, 0, 58, 66
1, 163531, Note_off_c, 0, 61, 64
1, 163549, Note_on_c, 0, 60, 74
1, 163554, Note_on_c, 0, 67, 64
1, 163561, Note_on_c, 0, 64, 73
1, 163587, Note_off_c, 0, 64, 66
1, 163590, Note_off_c, 0, 60, 61
1, 163593, Note_off_c, 0, 67, 63
1, 163595, Note_on_c, 0, 66, 70
1, 163605, Note_on_c, 0, 58, 70
1, 163605, Note_on_c, 0, 61, 75
1, 163630, Note_off_c, 0, 58, 68
1, 163630, Note_off_c, 0, 66, 61
1, 163635, Note_off_c, 0, 61, 64
1, 163654, Note_on_c, 0, 64, 69
1, 163657, Note_on_c, 0, 60, 74
1, 163664, Note_on_c, 0, 67, 72
1, 163689, Note_off_c, 0, 64, 65
1, 163691, Note_off_c, 0, 60, 64
1, 163693, Note_off_c, 0, 67, 64
1, 163701, Note_on_c, 0, 58, 54
1, 163706, Note_on_c, 0, 61, 82
1, 163708, Note_on_c, 0, 66, 80
1, 163735, Note_off_c, 0, 66, 66
1, 163744, Note_off_c, 0, 58, 64
1, 163745, Note_off_c, 0, 61, 65
1, 163756, Note_on_c, 0, 67, 63
1, 163760, Note_on_c, 0, 60, 81
1, 163769, Note_on_c, 0, 64, 76
1, 163790, Note_off_c, 0, 60, 62
1, 163792, Note_off_c, 0, 64, 67
1, 163799, Note_off_c, 0, 67, 63
1, 163804, Note_on_c, 0, 66, 84
1, 163818, Note_on_c, 0, 61, 76
1, 163824, Note_on_c, 0, 58, 60
1, 163831, Note_off_c, 0, 66, 63
1, 163841, Note_off_c, 0, 61, 67
1, 163852, Note_off_c, 0, 58, 65
1, 163857, Note_on_c, 0, 64, 66
1, 163865, Note_on_c, 0, 60, 81
1, 163868, Note_on_c, 0, 67, 72
1, 163897, Note_off_c, 0, 67, 65
1, 163898, Note_off_c, 0, 60, 64
1, 163898, Note_off_c, 0, 64, 63
1, 163906, Note_on_c, 0, 66, 87
1, 163907, Note_on_c, 0, 61, 73
1, 163924, Note_on_c, 0, 58, 70
1, 163934, Note_off_c, 0, 66, 63
1, 163939, Note_off_c, 0, 61, 64
1, 163948, Note_off_c, 0, 58, 69
1, 163960, Note_on_c, 0, 67, 69
1, 163962, Note_on_c, 0, 60, 81
1, 163969, Note_on_c, 0, 64, 79
1, 163992, Note_off_c, 0, 60, 63
1, 163992, Note_off_c, 0, 64, 69
1, 164005, Note_off_c, 0, 67, 64
1, 164007, Note_on_c, 0, 58, 63
1, 164008, Note_on_c, 0, 66, 91
1, 164014, Note_on_c, 0, 61, 87
1, 164042, Note_off_c, 0, 61, 63
1, 164044, Note_off_c, 0, 66, 61
1, 164047, Note_off_c, 0, 58, 66
1, 164061, Note_on_c, 0, 64, 66
1, 164064, Note_on_c, 0, 67, 79
1, 164070, Note_on_c, 0, 60, 84
1, 164098, Note_off_c, 0, 60, 65
1, 164102, Note_off_c, 0, 64, 64
1, 164109, Note_on_c, 0, 66, 88
1, 164109, Note_off_c, 0, 67, 61
1, 164113, Note_on_c, 0, 61, 82
1, 164133, Note_on_c, 0, 58, 66
1, 164173, Note_off_c, 0, 66, 69
1, 164177, Note_on_c, 0, 60, 85
1, 164182, Note_on_c, 0, 64, 77
1, 164188, Note_on_c, 0, 67, 64
1, 164199, Note_off_c, 0, 61, 63
1, 164214, Note_off_c, 0, 58, 66
1, 164218, Note_off_c, 0, 60, 60
1, 164218, Note_off_c, 0, 67, 51
1, 164252, Note_off_c, 0, 64, 60
1, 164270, Note_on_c, 0, 67, 60
1, 164420, Note_off_c, 0, 67, 62
1, 164437, Control_c, 0, 64, 70
1, 164440, Note_on_c, 0, 62, 77
1, 164440, Note_on_c, 0, 66, 94
1, 164448, Note_on_c, 0, 57, 89
1, 164452, Control_c, 0, 64, 0
1, 164458, Note_on_c, 0, 34, 66
1, 164463, Note_on_c, 0, 38, 69
1, 164466, Note_on_c, 0, 26, 72
1, 164467, Note_on_c, 0, 40, 77
1, 164473, Note_off_c, 0, 57, 70
1, 164476, Note_on_c, 0, 28, 67
1, 164483, Note_off_c, 0, 62, 67
1, 164489, Note_off_c, 0, 66, 67
1, 164506, Note_off_c, 0, 40, 60
1, 164507, Note_off_c, 0, 28, 59
1, 164512, Control_c, 0, 64, 26
1, 164516, Note_off_c, 0, 34, 39
1, 164526, Control_c, 0, 64, 56
1, 164536, Note_off_c, 0, 26, 65
1, 164538, Note_off_c, 0, 38, 64
1, 164541, Control_c, 0, 64, 67
1, 164556, Control_c, 0, 64, 75
1, 164571, Control_c, 0, 64, 93
1, 164576, Poly_aftertouch_c, 0, 35, 0
1, 164586, Control_c, 0, 64, 127
1, 164837, Control_c, 0, 64, 105
1, 164852, Control_c, 0, 64, 65
1, 164867, Control_c, 0, 64, 19
1, 164881, Control_c, 0, 64, 0
1, 165585, Control_c, 0, 64, 17
1, 165600, Control_c, 0, 64, 35
1, 165615, Control_c, 0, 64, 45
1, 165629, Control_c, 0, 64, 51
1, 165644, Control_c, 0, 64, 55
1, 165659, Control_c, 0, 64, 59
1, 165674, Control_c, 0, 64, 62
1, 165689, Control_c, 0, 64, 65
1, 165704, Control_c, 0, 64, 68
1, 165726, Control_c, 0, 64, 69
1, 165741, Control_c, 0, 64, 72
1, 165741, Control_c, 0, 67, 9
1, 165755, Control_c, 0, 64, 76
1, 165755, Control_c, 0, 67, 13
1, 165770, Control_c, 0, 64, 86
1, 165770, Control_c, 0, 67, 19
1, 165785, Control_c, 0, 64, 96
1, 165785, Control_c, 0, 67, 28
1, 165801, Control_c, 0, 64, 101
1, 165801, Control_c, 0, 67, 38
1, 165816, Control_c, 0, 64, 104
1, 165816, Control_c, 0, 67, 51
1, 165831, Control_c, 0, 64, 108
1, 165831, Control_c, 0, 67, 62
1, 165838, Note_on_c, 0, 62, 39
1, 165846, Control_c, 0, 64, 118
1, 165846, Control_c, 0, 67, 74
1, 165860, Control_c, 0, 64, 127
1, 165860, Control_c, 0, 67, 84
1, 165875, Control_c, 0, 67, 94
1, 165890, Control_c, 0, 67, 103
1, 165905, Control_c, 0, 67, 108
1, 165920, Control_c, 0, 67, 110
1, 165934, Control_c, 0, 67, 112
1, 165949, Control_c, 0, 67, 115
1, 165952, Note_off_c, 0, 62, 58
1, 165964, Control_c, 0, 67, 117
1, 165979, Control_c, 0, 67, 119
1, 165994, Control_c, 0, 67, 121
1, 166008, Control_c, 0, 67, 123
1, 166023, Control_c, 0, 67, 125
1, 166038, Control_c, 0, 67, 127
1, 166048, Note_on_c, 0, 66, 44
1, 166053, Control_c, 0, 67, 127
1, 166113, Note_off_c, 0, 66, 51
1, 166147, Note_on_c, 0, 68, 36
1, 166210, Note_off_c, 0, 68, 50
1, 166235, Note_on_c, 0, 69, 42
1, 166264, Note_off_c, 0, 69, 57
1, 166300, Note_on_c, 0, 73, 35
1, 166329, Note_off_c, 0, 73, 49
1, 166330, Note_on_c, 0, 74, 57
1, 166369, Note_off_c, 0, 74, 60
1, 166401, Note_on_c, 0, 78, 63
1, 166443, Note_off_c, 0, 78, 58
1, 166475, Note_on_c, 0, 80, 72
1, 166499, Note_off_c, 0, 80, 67
1, 166568, Note_on_c, 0, 81, 65
1, 166606, Note_off_c, 0, 81, 57
1, 166642, Note_on_c, 0, 85, 65
1, 166708, Note_off_c, 0, 85, 63
1, 166744, Note_on_c, 0, 86, 60
1, 166818, Note_off_c, 0, 86, 63
1, 166844, Note_on_c, 0, 90, 60
1, 167008, Control_c, 0, 64, 107
1, 167023, Control_c, 0, 64, 97
1, 167038, Control_c, 0, 64, 88
1, 167053, Control_c, 0, 64, 81
1, 167067, Control_c, 0, 64, 73
1, 167082, Control_c, 0, 64, 69
1, 167097, Control_c, 0, 64, 66
1, 167112, Control_c, 0, 64, 64
1, 167127, Control_c, 0, 64, 63
1, 167141, Control_c, 0, 64, 62
1, 167156, Control_c, 0, 64, 57
1, 167171, Control_c, 0, 64, 46
1, 167186, Note_on_c, 0, 92, 74
1, 167186, Control_c, 0, 64, 23
1, 167196, Note_off_c, 0, 90, 59
1, 167201, Control_c, 0, 64, 0
1, 167207, Note_on_c, 0, 80, 48
1, 167224, Note_on_c, 0, 62, 31
1, 167226, Note_on_c, 0, 69, 34
1, 167283, Control_c, 0, 64, 37
1, 167298, Control_c, 0, 64, 59
1, 167313, Control_c, 0, 64, 69
1, 167328, Control_c, 0, 64, 74
1, 167332, Note_off_c, 0, 62, 57
1, 167332, Note_off_c, 0, 69, 52
1, 167343, Control_c, 0, 64, 80
1, 167357, Control_c, 0, 64, 86
1, 167372, Control_c, 0, 64, 95
1, 167387, Control_c, 0, 64, 103
1, 167403, Control_c, 0, 64, 104
1, 167432, Control_c, 0, 64, 101
1, 167447, Control_c, 0, 64, 89
1, 167462, Control_c, 0, 64, 76
1, 167477, Control_c, 0, 64, 64
1, 167492, Control_c, 0, 64, 55
1, 167506, Control_c, 0, 64, 50
1, 167521, Control_c, 0, 64, 45
1, 167536, Control_c, 0, 64, 39
1, 167551, Control_c, 0, 64, 32
1, 167566, Control_c, 0, 64, 27
1, 167580, Control_c, 0, 64, 26
1, 167654, Control_c, 0, 64, 26
1, 167669, Control_c, 0, 64, 28
1, 167684, Control_c, 0, 64, 29
1, 167698, Control_c, 0, 64, 29
1, 167743, Control_c, 0, 64, 30
1, 167788, Control_c, 0, 64, 29
1, 167801, Note_on_c, 0, 76, 38
1, 167802, Control_c, 0, 64, 26
1, 167817, Control_c, 0, 64, 21
1, 167832, Control_c, 0, 64, 0
1, 167834, Note_on_c, 0, 74, 42
1, 167843, Note_off_c, 0, 76, 50
1, 167857, Note_on_c, 0, 78, 50
1, 167888, Note_off_c, 0, 78, 64
1, 167893, Note_off_c, 0, 74, 63
1, 167951, Control_c, 0, 64, 14
1, 167966, Control_c, 0, 64, 34
1, 167987, Control_c, 0, 64, 52
1, 168002, Control_c, 0, 64, 60
1, 168017, Control_c, 0, 64, 64
1, 168032, Control_c, 0, 64, 65
1, 168047, Control_c, 0, 64, 67
1, 168062, Control_c, 0, 64, 69
1, 168077, Control_c, 0, 64, 73
1, 168092, Control_c, 0, 64, 77
1, 168106, Control_c, 0, 64, 79
1, 168121, Control_c, 0, 64, 79
1, 168136, Control_c, 0, 64, 80
1, 168282, Note_off_c, 0, 80, 31
1, 168316, Note_off_c, 0, 92, 57
1, 168418, Control_c, 0, 64, 78
1, 168433, Control_c, 0, 64, 74
1, 168440, Note_on_c, 0, 90, 49
1, 168447, Control_c, 0, 64, 69
1, 168462, Control_c, 0, 64, 63
1, 168477, Control_c, 0, 64, 55
1, 168477, Control_c, 0, 67, 124
1, 168481, Note_on_c, 0, 80, 54
1, 168482, Note_on_c, 0, 92, 68
1, 168492, Control_c, 0, 64, 49
1, 168492, Control_c, 0, 67, 121
1, 168493, Note_on_c, 0, 62, 41
1, 168494, Note_off_c, 0, 90, 54
1, 168496, Note_on_c, 0, 69, 43
1, 168507, Control_c, 0, 64, 42
1, 168507, Control_c, 0, 67, 119
1, 168521, Control_c, 0, 64, 36
1, 168521, Control_c, 0, 67, 116
1, 168536, Note_off_c, 0, 69, 56
1, 168536, Control_c, 0, 64, 28
1, 168536, Control_c, 0, 67, 113
1, 168541, Note_off_c, 0, 62, 59
1, 168551, Control_c, 0, 64, 19
1, 168551, Control_c, 0, 67, 110
1, 168566, Control_c, 0, 64, 15
1, 168566, Control_c, 0, 67, 105
1, 168581, Control_c, 0, 64, 19
1, 168581, Control_c, 0, 67, 98
1, 168595, Control_c, 0, 64, 33
1, 168595, Control_c, 0, 67, 85
1, 168610, Control_c, 0, 64, 46
1, 168610, Control_c, 0, 67, 72
1, 168625, Control_c, 0, 64, 55
1, 168625, Control_c, 0, 67, 60
1, 168640, Control_c, 0, 64, 60
1, 168640, Control_c, 0, 67, 52
1, 168655, Control_c, 0, 64, 64
1, 168655, Control_c, 0, 67, 49
1, 168670, Control_c, 0, 64, 66
1, 168670, Control_c, 0, 67, 50
1, 168685, Control_c, 0, 64, 69
1, 168685, Control_c, 0, 67, 56
1, 168700, Control_c, 0, 64, 71
1, 168700, Control_c, 0, 67, 60
1, 168715, Control_c, 0, 64, 72
1, 168715, Control_c, 0, 67, 62
1, 168736, Control_c, 0, 64, 73
1, 168736, Control_c, 0, 67, 66
1, 168751, Control_c, 0, 67, 77
1, 168766, Control_c, 0, 67, 93
1, 168780, Control_c, 0, 67, 107
1, 168795, Control_c, 0, 67, 109
1, 168810, Control_c, 0, 64, 72
1, 168810, Control_c, 0, 67, 110
1, 168825, Control_c, 0, 64, 71
1, 168825, Control_c, 0, 67, 111
1, 168840, Control_c, 0, 64, 70
1, 168840, Control_c, 0, 67, 114
1, 168855, Control_c, 0, 64, 69
1, 168855, Control_c, 0, 67, 116
1, 168870, Control_c, 0, 64, 68
1, 168870, Control_c, 0, 67, 118
1, 168885, Control_c, 0, 64, 66
1, 168885, Control_c, 0, 67, 118
1, 168899, Control_c, 0, 64, 65
1, 168914, Control_c, 0, 64, 63
1, 168929, Control_c, 0, 64, 63
1, 168929, Control_c, 0, 67, 119
1, 168944, Control_c, 0, 64, 62
1, 168944, Control_c, 0, 67, 119
1, 168959, Control_c, 0, 64, 62
1, 168959, Control_c, 0, 67, 120
1, 168973, Control_c, 0, 64, 61
1, 168973, Control_c, 0, 67, 121
1, 168988, Control_c, 0, 64, 60
1, 168988, Control_c, 0, 67, 122
1, 169004, Control_c, 0, 64, 59
1, 169019, Control_c, 0, 64, 59
1, 169019, Control_c, 0, 67, 122
1, 169034, Control_c, 0, 64, 58
1, 169049, Control_c, 0, 64, 57
1, 169049, Control_c, 0, 67, 123
1, 169063, Control_c, 0, 64, 54
1, 169063, Control_c, 0, 67, 123
1, 169071, Note_on_c, 0, 76, 36
1, 169078, Control_c, 0, 64, 50
1, 169078, Control_c, 0, 67, 124
1, 169093, Control_c, 0, 64, 42
1, 169093, Control_c, 0, 67, 126
1, 169108, Note_off_c, 0, 76, 50
1, 169108, Control_c, 0, 64, 36
1, 169108, Control_c, 0, 67, 127
1, 169117, Note_on_c, 0, 74, 43
1, 169123, Control_c, 0, 64, 35
1, 169126, Note_on_c, 0, 78, 47
1, 169138, Control_c, 0, 64, 41
1, 169152, Control_c, 0, 64, 52
1, 169165, Note_off_c, 0, 78, 63
1, 169167, Control_c, 0, 64, 62
1, 169174, Note_off_c, 0, 74, 63
1, 169182, Control_c, 0, 64, 69
1, 169196, Control_c, 0, 64, 73
1, 169211, Control_c, 0, 64, 76
1, 169220, Note_off_c, 0, 80, 58
1, 169226, Control_c, 0, 64, 76
1, 169241, Control_c, 0, 64, 77
1, 169256, Control_c, 0, 64, 78
1, 169270, Control_c, 0, 64, 79
1, 169285, Control_c, 0, 64, 80
1, 169312, Note_off_c, 0, 92, 65
1, 169359, Control_c, 0, 64, 80
1, 169374, Control_c, 0, 64, 77
1, 169388, Control_c, 0, 64, 73
1, 169403, Control_c, 0, 64, 69
1, 169418, Control_c, 0, 64, 66
1, 169433, Control_c, 0, 64, 64
1, 169448, Control_c, 0, 64, 63
1, 169470, Control_c, 0, 64, 62
1, 169485, Control_c, 0, 64, 62
1, 169500, Control_c, 0, 64, 61
1, 169515, Control_c, 0, 64, 60
1, 169530, Control_c, 0, 64, 59
1, 169603, Control_c, 0, 64, 59
1, 169633, Control_c, 0, 64, 60
1, 169648, Control_c, 0, 64, 61
1, 169663, Note_on_c, 0, 92, 56
1, 169677, Control_c, 0, 64, 60
1, 169692, Control_c, 0, 64, 57
1, 169707, Control_c, 0, 64, 52
1, 169722, Control_c, 0, 64, 43
1, 169729, Note_on_c, 0, 97, 66
1, 169737, Control_c, 0, 64, 31
1, 169740, Note_on_c, 0, 85, 40
1, 169741, Note_off_c, 0, 92, 65
1, 169750, Note_on_c, 0, 62, 33
1, 169752, Control_c, 0, 64, 19
1, 169755, Note_on_c, 0, 69, 35
1, 169767, Control_c, 0, 64, 9
1, 169773, Note_off_c, 0, 85, 53
1, 169782, Control_c, 0, 64, 0
1, 169797, Note_off_c, 0, 97, 64
1, 169801, Note_off_c, 0, 62, 46
1, 169802, Note_off_c, 0, 69, 48
1, 169931, Control_c, 0, 64, 17
1, 169946, Control_c, 0, 64, 37
1, 169961, Control_c, 0, 64, 52
1, 169975, Control_c, 0, 64, 58
1, 169990, Control_c, 0, 64, 57
1, 169992, Note_on_c, 0, 90, 51
1, 170005, Control_c, 0, 64, 52
1, 170014, Note_on_c, 0, 92, 70
1, 170019, Control_c, 0, 64, 45
1, 170023, Note_off_c, 0, 90, 64
1, 170034, Control_c, 0, 64, 37
1, 170049, Control_c, 0, 64, 31
1, 170064, Control_c, 0, 64, 25
1, 170065, Note_off_c, 0, 92, 64
1, 170079, Control_c, 0, 64, 22
1, 170093, Control_c, 0, 64, 20
1, 170108, Control_c, 0, 64, 19
1, 170249, Control_c, 0, 64, 18
1, 170257, Note_on_c, 0, 76, 46
1, 170264, Control_c, 0, 64, 12
1, 170279, Control_c, 0, 64, 0
1, 170298, Note_off_c, 0, 76, 55
1, 170323, Control_c, 0, 64, 10
1, 170338, Control_c, 0, 64, 32
1, 170344, Note_on_c, 0, 74, 44
1, 170344, Note_on_c, 0, 92, 76
1, 170345, Note_on_c, 0, 78, 39
1, 170353, Control_c, 0, 64, 49
1, 170367, Control_c, 0, 64, 60
1, 170380, Note_off_c, 0, 78, 56
1, 170382, Control_c, 0, 64, 65
1, 170391, Note_off_c, 0, 74, 60
1, 170391, Note_off_c, 0, 92, 65
1, 170397, Control_c, 0, 64, 66
1, 170412, Control_c, 0, 64, 66
1, 170560, Control_c, 0, 64, 66
1, 170575, Control_c, 0, 64, 64
1, 170588, Note_on_c, 0, 92, 59
1, 170590, Control_c, 0, 64, 61
1, 170605, Control_c, 0, 64, 56
1, 170620, Control_c, 0, 64, 51
1, 170631, Note_off_c, 0, 92, 63
1, 170635, Control_c, 0, 64, 46
1, 170641, Note_on_c, 0, 95, 69
1, 170649, Note_on_c, 0, 83, 48
1, 170649, Control_c, 0, 64, 37
1, 170664, Control_c, 0, 64, 23
1, 170676, Note_off_c, 0, 83, 57
1, 170679, Control_c, 0, 64, 0
1, 170701, Note_off_c, 0, 95, 64
1, 170947, Note_on_c, 0, 95, 48
1, 170985, Note_on_c, 0, 83, 20
1, 171007, Note_on_c, 0, 90, 70
1, 171013, Control_c, 0, 64, 17
1, 171020, Note_on_c, 0, 62, 35
1, 171023, Note_off_c, 0, 95, 50
1, 171028, Control_c, 0, 64, 36
1, 171031, Note_on_c, 0, 69, 33
1, 171031, Note_off_c, 0, 83, 48
1, 171042, Control_c, 0, 64, 53
1, 171057, Control_c, 0, 64, 63
1, 171072, Control_c, 0, 64, 66
1, 171087, Control_c, 0, 64, 67
1, 171102, Control_c, 0, 64, 68
1, 171116, Control_c, 0, 64, 69
1, 171126, Note_off_c, 0, 62, 52
1, 171131, Control_c, 0, 64, 70
1, 171146, Control_c, 0, 64, 71
1, 171161, Control_c, 0, 64, 72
1, 171165, Note_off_c, 0, 69, 43
1, 171175, Control_c, 0, 64, 72
1, 171190, Control_c, 0, 64, 73
1, 171323, Control_c, 0, 64, 72
1, 171338, Control_c, 0, 64, 70
1, 171353, Control_c, 0, 64, 68
1, 171368, Control_c, 0, 64, 66
1, 171383, Control_c, 0, 64, 64
1, 171399, Control_c, 0, 64, 61
1, 171414, Control_c, 0, 64, 59
1, 171428, Control_c, 0, 64, 58
1, 171443, Control_c, 0, 64, 58
1, 171458, Control_c, 0, 64, 56
1, 171472, Control_c, 0, 64, 55
1, 171487, Control_c, 0, 64, 53
1, 171502, Control_c, 0, 64, 52
1, 171517, Control_c, 0, 64, 51
1, 171532, Control_c, 0, 64, 51
1, 171547, Control_c, 0, 64, 50
1, 171561, Control_c, 0, 64, 49
1, 171576, Control_c, 0, 64, 47
1, 171591, Control_c, 0, 64, 45
1, 171600, Note_on_c, 0, 76, 23
1, 171606, Control_c, 0, 64, 41
1, 171621, Control_c, 0, 64, 34
1, 171636, Control_c, 0, 64, 23
1, 171639, Note_off_c, 0, 76, 48
1, 171648, Note_on_c, 0, 74, 47
1, 171651, Control_c, 0, 64, 10
1, 171660, Note_on_c, 0, 78, 48
1, 171665, Control_c, 0, 64, 0
1, 171695, Control_c, 0, 64, 11
1, 171710, Control_c, 0, 64, 27
1, 171713, Note_off_c, 0, 78, 58
1, 171732, Control_c, 0, 64, 42
1, 171734, Note_off_c, 0, 74, 62
1, 171746, Control_c, 0, 64, 54
1, 171761, Control_c, 0, 64, 61
1, 171776, Control_c, 0, 64, 64
1, 171851, Control_c, 0, 64, 63
1, 171865, Control_c, 0, 64, 63
1, 171880, Control_c, 0, 64, 61
1, 171895, Control_c, 0, 64, 59
1, 171910, Control_c, 0, 64, 57
1, 171925, Control_c, 0, 64, 54
1, 171939, Control_c, 0, 64, 49
1, 171954, Control_c, 0, 64, 44
1, 171969, Control_c, 0, 64, 38
1, 171984, Control_c, 0, 64, 31
1, 171998, Control_c, 0, 64, 23
1, 172013, Control_c, 0, 64, 18
1, 172028, Control_c, 0, 64, 13
1, 172043, Control_c, 0, 64, 12
1, 172102, Control_c, 0, 64, 11
1, 172192, Control_c, 0, 64, 10
1, 172207, Control_c, 0, 64, 9
1, 172221, Control_c, 0, 64, 0
1, 172304, Note_on_c, 0, 85, 58
1, 172327, Note_on_c, 0, 62, 33
1, 172333, Note_on_c, 0, 69, 39
1, 172340, Control_c, 0, 64, 20
1, 172355, Control_c, 0, 64, 40
1, 172369, Control_c, 0, 64, 55
1, 172371, Note_off_c, 0, 90, 55
1, 172384, Control_c, 0, 64, 63
1, 172399, Control_c, 0, 64, 67
1, 172405, Note_off_c, 0, 62, 53
1, 172411, Note_off_c, 0, 69, 58
1, 172414, Control_c, 0, 64, 67
1, 172429, Control_c, 0, 64, 68
1, 172444, Control_c, 0, 64, 69
1, 172459, Control_c, 0, 64, 70
1, 172481, Control_c, 0, 64, 71
1, 172495, Control_c, 0, 64, 72
1, 172510, Control_c, 0, 64, 73
1, 172525, Control_c, 0, 64, 73
1, 172599, Control_c, 0, 64, 73
1, 172614, Control_c, 0, 64, 70
1, 172629, Control_c, 0, 64, 67
1, 172640, Note_on_c, 0, 90, 60
1, 172643, Control_c, 0, 64, 63
1, 172654, Note_off_c, 0, 85, 58
1, 172658, Control_c, 0, 64, 57
1, 172669, Note_off_c, 0, 90, 66
1, 172673, Control_c, 0, 64, 52
1, 172688, Control_c, 0, 64, 47
1, 172703, Control_c, 0, 64, 43
1, 172718, Control_c, 0, 64, 38
1, 172733, Control_c, 0, 64, 33
1, 172748, Control_c, 0, 64, 29
1, 172762, Control_c, 0, 64, 27
1, 172792, Control_c, 0, 64, 27
1, 172807, Control_c, 0, 64, 26
1, 172821, Control_c, 0, 64, 24
1, 172836, Control_c, 0, 64, 22
1, 172851, Control_c, 0, 64, 20
1, 172866, Control_c, 0, 64, 17
1, 172867, Note_on_c, 0, 76, 39
1, 172881, Control_c, 0, 64, 13
1, 172895, Note_on_c, 0, 90, 38
1, 172895, Control_c, 0, 64, 0
1, 172934, Note_off_c, 0, 76, 49
1, 172941, Note_on_c, 0, 83, 61
1, 172948, Note_off_c, 0, 90, 46
1, 172954, Control_c, 0, 64, 8
1, 172956, Note_on_c, 0, 74, 38
1, 172963, Note_on_c, 0, 78, 37
1, 172969, Control_c, 0, 64, 27
1, 172985, Control_c, 0, 64, 43
1, 173000, Control_c, 0, 64, 56
1, 173015, Note_off_c, 0, 78, 56
1, 173015, Control_c, 0, 64, 63
1, 173030, Control_c, 0, 64, 65
1, 173039, Note_off_c, 0, 74, 60
1, 173074, Control_c, 0, 64, 66
1, 173148, Control_c, 0, 64, 65
1, 173163, Control_c, 0, 64, 63
1, 173178, Control_c, 0, 64, 61
1, 173192, Control_c, 0, 64, 57
1, 173215, Control_c, 0, 64, 52
1, 173230, Control_c, 0, 64, 46
1, 173244, Control_c, 0, 64, 41
1, 173259, Control_c, 0, 64, 36
1, 173274, Control_c, 0, 64, 31
1, 173289, Control_c, 0, 64, 26
1, 173304, Control_c, 0, 64, 21
1, 173318, Control_c, 0, 64, 15
1, 173333, Control_c, 0, 64, 9
1, 173348, Control_c, 0, 64, 0
1, 173478, Note_off_c, 0, 83, 59
1, 173493, Note_on_c, 0, 85, 50
1, 173571, Note_off_c, 0, 85, 61
1, 173579, Note_on_c, 0, 90, 56
1, 173591, Note_on_c, 0, 62, 32
1, 173591, Note_on_c, 0, 69, 36
1, 173659, Control_c, 0, 64, 11
1, 173674, Control_c, 0, 64, 36
1, 173684, Note_off_c, 0, 69, 55
1, 173689, Control_c, 0, 64, 50
1, 173690, Note_off_c, 0, 62, 46
1, 173704, Control_c, 0, 64, 56
1, 173718, Control_c, 0, 64, 57
1, 173748, Control_c, 0, 64, 56
1, 173762, Control_c, 0, 64, 54
1, 173777, Control_c, 0, 64, 50
1, 173794, Control_c, 0, 64, 45
1, 173808, Control_c, 0, 64, 39
1, 173823, Control_c, 0, 64, 36
1, 173838, Control_c, 0, 64, 33
1, 173853, Control_c, 0, 64, 31
1, 173867, Control_c, 0, 64, 28
1, 173882, Control_c, 0, 64, 22
1, 173889, Note_off_c, 0, 90, 59
1, 173893, Note_on_c, 0, 83, 52
1, 173897, Control_c, 0, 64, 17
1, 173912, Control_c, 0, 64, 16
1, 173927, Control_c, 0, 64, 15
1, 173931, Note_off_c, 0, 83, 55
1, 173964, Control_c, 0, 64, 15
1, 173994, Control_c, 0, 64, 14
1, 174142, Control_c, 0, 64, 13
1, 174157, Control_c, 0, 64, 13
1, 174164, Note_on_c, 0, 76, 43
1, 174172, Control_c, 0, 64, 12
1, 174179, Note_on_c, 0, 90, 43
1, 174186, Control_c, 0, 64, 10
1, 174201, Control_c, 0, 64, 0
1, 174229, Note_off_c, 0, 76, 55
1, 174244, Note_on_c, 0, 74, 30
1, 174248, Note_on_c, 0, 83, 51
1, 174248, Note_off_c, 0, 90, 56
1, 174283, Note_on_c, 0, 78, 29
1, 174355, Note_off_c, 0, 78, 39
1, 174371, Note_off_c, 0, 74, 54
1, 174468, Control_c, 0, 67, 127
1, 174476, Note_off_c, 0, 83, 44
1, 174483, Control_c, 0, 67, 125
1, 174498, Control_c, 0, 67, 124
1, 174527, Control_c, 0, 67, 124
1, 174542, Control_c, 0, 67, 123
1, 174557, Control_c, 0, 67, 121
1, 174572, Control_c, 0, 67, 119
1, 174587, Control_c, 0, 67, 117
1, 174602, Control_c, 0, 67, 114
1, 174617, Control_c, 0, 67, 112
1, 174632, Control_c, 0, 67, 110
1, 174647, Control_c, 0, 67, 109
1, 174662, Control_c, 0, 67, 107
1, 174676, Control_c, 0, 67, 105
1, 174690, Control_c, 0, 67, 103
1, 174712, Control_c, 0, 67, 102
1, 174727, Control_c, 0, 67, 101
1, 174742, Control_c, 0, 67, 101
1, 174757, Control_c, 0, 67, 100
1, 174772, Control_c, 0, 67, 97
1, 174787, Control_c, 0, 67, 93
1, 174802, Control_c, 0, 67, 90
1, 174816, Control_c, 0, 67, 88
1, 174831, Control_c, 0, 67, 87
1, 174846, Control_c, 0, 67, 87
1, 174861, Control_c, 0, 67, 86
1, 174876, Control_c, 0, 67, 85
1, 174890, Control_c, 0, 67, 83
1, 174905, Control_c, 0, 67, 81
1, 174920, Control_c, 0, 67, 81
1, 174964, Control_c, 0, 67, 80
1, 174979, Control_c, 0, 67, 80
1, 174994, Control_c, 0, 67, 79
1, 175008, Control_c, 0, 67, 76
1, 175023, Control_c, 0, 67, 73
1, 175038, Control_c, 0, 64, 17
1, 175038, Control_c, 0, 67, 69
1, 175053, Control_c, 0, 64, 38
1, 175053, Control_c, 0, 67, 64
1, 175068, Control_c, 0, 64, 57
1, 175068, Control_c, 0, 67, 59
1, 175080, Note_on_c, 0, 92, 85
1, 175083, Control_c, 0, 64, 67
1, 175083, Control_c, 0, 67, 51
1, 175097, Control_c, 0, 64, 73
1, 175097, Control_c, 0, 67, 42
1, 175112, Control_c, 0, 64, 80
1, 175112, Control_c, 0, 67, 32
1, 175116, Note_off_c, 0, 92, 64
1, 175127, Control_c, 0, 64, 89
1, 175127, Control_c, 0, 67, 23
1, 175142, Control_c, 0, 64, 103
1, 175142, Control_c, 0, 67, 15
1, 175157, Control_c, 0, 64, 127
1, 175157, Control_c, 0, 67, 8
1, 175171, Control_c, 0, 67, 0
1, 175678, Note_on_c, 0, 95, 75
1, 175743, Control_c, 0, 67, 8
1, 175787, Control_c, 0, 67, 8
1, 175802, Control_c, 0, 67, 9
1, 175817, Control_c, 0, 67, 10
1, 175846, Control_c, 0, 67, 10
1, 175861, Control_c, 0, 67, 11
1, 175881, Note_off_c, 0, 95, 65
1, 175891, Control_c, 0, 67, 11
1, 175905, Control_c, 0, 67, 12
1, 175907, Note_on_c, 0, 97, 61
1, 175920, Control_c, 0, 67, 14
1, 175950, Control_c, 0, 67, 14
1, 175986, Note_on_c, 0, 95, 66
1, 176027, Note_off_c, 0, 95, 65
1, 176030, Note_on_c, 0, 92, 67
1, 176055, Note_off_c, 0, 97, 33
1, 176069, Control_c, 0, 67, 14
1, 176083, Control_c, 0, 67, 13
1, 176084, Note_off_c, 0, 92, 65
1, 176089, Note_on_c, 0, 88, 53
1, 176098, Control_c, 0, 67, 13
1, 176106, Note_on_c, 0, 86, 64
1, 176110, Note_off_c, 0, 88, 65
1, 176113, Control_c, 0, 67, 12
1, 176139, Note_off_c, 0, 86, 67
1, 176143, Control_c, 0, 67, 12
1, 176147, Note_on_c, 0, 83, 58
1, 176157, Control_c, 0, 67, 11
1, 176172, Note_on_c, 0, 80, 72
1, 176172, Control_c, 0, 67, 11
1, 176174, Note_off_c, 0, 83, 68
1, 176199, Note_off_c, 0, 80, 67
1, 176203, Control_c, 0, 67, 10
1, 176239, Control_c, 0, 67, 10
1, 176254, Note_on_c, 0, 85, 64
1, 176254, Control_c, 0, 67, 8
1, 176268, Control_c, 0, 67, 0
1, 176276, Note_on_c, 0, 83, 68
1, 176333, Note_on_c, 0, 80, 57
1, 176338, Note_off_c, 0, 83, 64
1, 176354, Note_off_c, 0, 85, 59
1, 176368, Note_on_c, 0, 76, 65
1, 176376, Note_off_c, 0, 80, 58
1, 176382, Note_on_c, 0, 74, 59
1, 176396, Note_off_c, 0, 76, 62
1, 176411, Note_off_c, 0, 74, 63
1, 176440, Note_on_c, 0, 71, 62
1, 176494, Note_off_c, 0, 71, 58
1, 176516, Note_on_c, 0, 68, 65
1, 176623, Note_on_c, 0, 66, 68
1, 176624, Control_c, 0, 64, 110
1, 176635, Note_off_c, 0, 68, 60
1, 176639, Control_c, 0, 64, 90
1, 176653, Control_c, 0, 64, 80
1, 176668, Control_c, 0, 64, 73
1, 176683, Control_c, 0, 64, 68
1, 176698, Control_c, 0, 64, 64
1, 176713, Control_c, 0, 64, 60
1, 176727, Control_c, 0, 64, 56
1, 176742, Control_c, 0, 64, 52
1, 176757, Control_c, 0, 64, 48
1, 176772, Control_c, 0, 64, 44
1, 176787, Control_c, 0, 64, 40
1, 176802, Control_c, 0, 64, 35
1, 176817, Control_c, 0, 64, 30
1, 176832, Control_c, 0, 64, 21
1, 176847, Control_c, 0, 64, 8
1, 176861, Control_c, 0, 64, 0
1, 177136, Control_c, 0, 64, 12
1, 177136, Control_c, 0, 67, 8
1, 177151, Control_c, 0, 64, 15
1, 177151, Control_c, 0, 67, 9
1, 177165, Control_c, 0, 64, 16
1, 177165, Control_c, 0, 67, 11
1, 177180, Control_c, 0, 64, 20
1, 177180, Control_c, 0, 67, 11
1, 177195, Control_c, 0, 64, 29
1, 177195, Control_c, 0, 67, 12
1, 177209, Control_c, 0, 64, 41
1, 177209, Control_c, 0, 67, 13
1, 177224, Control_c, 0, 64, 52
1, 177224, Control_c, 0, 67, 15
1, 177239, Control_c, 0, 64, 58
1, 177239, Control_c, 0, 67, 17
1, 177254, Control_c, 0, 64, 60
1, 177254, Control_c, 0, 67, 19
1, 177269, Control_c, 0, 64, 61
1, 177283, Control_c, 0, 64, 63
1, 177298, Control_c, 0, 64, 67
1, 177298, Control_c, 0, 67, 19
1, 177313, Control_c, 0, 64, 71
1, 177313, Control_c, 0, 67, 20
1, 177328, Control_c, 0, 64, 76
1, 177328, Control_c, 0, 67, 20
1, 177343, Control_c, 0, 64, 80
1, 177343, Control_c, 0, 67, 23
1, 177357, Control_c, 0, 64, 84
1, 177357, Control_c, 0, 67, 27
1, 177372, Control_c, 0, 64, 90
1, 177372, Control_c, 0, 67, 30
1, 177383, Note_off_c, 0, 66, 63
1, 177387, Control_c, 0, 64, 96
1, 177387, Control_c, 0, 67, 32
1, 177401, Control_c, 0, 64, 102
1, 177401, Control_c, 0, 67, 34
1, 177416, Control_c, 0, 64, 107
1, 177416, Control_c, 0, 67, 37
1, 177431, Control_c, 0, 64, 115
1, 177431, Control_c, 0, 67, 39
1, 177446, Control_c, 0, 64, 127
1, 177446, Control_c, 0, 67, 42
1, 177461, Control_c, 0, 67, 43
1, 177490, Control_c, 0, 67, 43
1, 177520, Control_c, 0, 67, 44
1, 177609, Control_c, 0, 67, 44
1, 177639, Control_c, 0, 67, 45
1, 177654, Control_c, 0, 67, 47
1, 177669, Control_c, 0, 67, 52
1, 177684, Control_c, 0, 67, 59
1, 177706, Control_c, 0, 67, 66
1, 177721, Control_c, 0, 67, 72
1, 177736, Control_c, 0, 67, 77
1, 177751, Control_c, 0, 67, 84
1, 177765, Control_c, 0, 67, 92
1, 177781, Control_c, 0, 67, 101
1, 177796, Control_c, 0, 67, 109
1, 177811, Control_c, 0, 64, 93
1, 177811, Control_c, 0, 67, 114
1, 177826, Control_c, 0, 64, 75
1, 177826, Control_c, 0, 67, 119
1, 177840, Control_c, 0, 64, 61
1, 177840, Control_c, 0, 67, 123
1, 177855, Control_c, 0, 64, 50
1, 177855, Control_c, 0, 67, 126
1, 177870, Control_c, 0, 64, 42
1, 177870, Control_c, 0, 67, 127
1, 177885, Control_c, 0, 64, 34
1, 177900, Control_c, 0, 64, 21
1, 177914, Control_c, 0, 64, 0
1, 177961, Note_on_c, 0, 80, 47
1, 177997, Note_off_c, 0, 80, 56
1, 178009, Note_on_c, 0, 85, 53
1, 178041, Note_off_c, 0, 85, 65
1, 178063, Note_on_c, 0, 81, 42
1, 178089, Note_off_c, 0, 81, 59
1, 178125, Note_on_c, 0, 86, 51
1, 178158, Note_on_c, 0, 74, 55
1, 178162, Note_off_c, 0, 86, 64
1, 178190, Note_off_c, 0, 74, 64
1, 178221, Note_on_c, 0, 80, 56
1, 178274, Note_off_c, 0, 80, 58
1, 178279, Note_on_c, 0, 82, 53
1, 178312, Note_off_c, 0, 82, 65
1, 178313, Note_on_c, 0, 79, 50
1, 178377, Note_off_c, 0, 79, 54
1, 178388, Note_on_c, 0, 84, 15
1, 178432, Note_on_c, 0, 78, 46
1, 178435, Note_off_c, 0, 84, 40
1, 178487, Note_off_c, 0, 78, 60
1, 178936, Note_on_c, 0, 70, 51
1, 179036, Note_off_c, 0, 70, 48
1, 179054, Note_on_c, 0, 72, 57
1, 179157, Note_off_c, 0, 72, 58
1, 179181, Note_on_c, 0, 69, 54
1, 179299, Note_off_c, 0, 69, 51
1, 179320, Note_on_c, 0, 74, 44
1, 179529, Note_off_c, 0, 74, 53
1, 179535, Note_on_c, 0, 68, 48
1, 179738, Control_c, 0, 64, 17
1, 179753, Control_c, 0, 64, 41
1, 179768, Control_c, 0, 64, 53
1, 179783, Control_c, 0, 64, 60
1, 179798, Control_c, 0, 64, 63
1, 179807, Note_off_c, 0, 68, 63
1, 179812, Control_c, 0, 64, 66
1, 179827, Control_c, 0, 64, 71
1, 179842, Control_c, 0, 64, 78
1, 179857, Control_c, 0, 64, 85
1, 179872, Control_c, 0, 64, 90
1, 179886, Control_c, 0, 64, 98
1, 179901, Control_c, 0, 64, 111
1, 179916, Control_c, 0, 64, 127
1, 179991, Note_on_c, 0, 68, 21
1, 180033, Note_off_c, 0, 68, 46
1, 180156, Note_on_c, 0, 68, 43
1, 180334, Note_on_c, 0, 71, 37
1, 180400, Note_on_c, 0, 76, 35
1, 180418, Note_off_c, 0, 68, 0
1, 180440, Note_off_c, 0, 76, 48
1, 180455, Poly_aftertouch_c, 0, 68, 127
1, 180464, Note_on_c, 0, 74, 37
1, 180498, Note_off_c, 0, 74, 52
1, 180519, Note_on_c, 0, 78, 36
1, 180522, Note_off_c, 0, 71, 38
1, 180561, Note_off_c, 0, 78, 48
1, 180592, Note_on_c, 0, 83, 47
1, 180641, Poly_aftertouch_c, 0, 68, 0
1, 180650, Note_off_c, 0, 83, 54
1, 180665, Note_on_c, 0, 80, 48
1, 180728, Note_on_c, 0, 78, 45
1, 180738, Note_off_c, 0, 80, 46
1, 180779, Note_off_c, 0, 78, 58
1, 180793, Note_on_c, 0, 76, 53
1, 180841, Note_off_c, 0, 76, 60
1, 180844, Note_on_c, 0, 71, 48
1, 180869, Note_on_c, 0, 74, 41
1, 180902, Note_off_c, 0, 74, 52
1, 180915, Note_off_c, 0, 71, 55
1, 180966, Note_on_c, 0, 68, 60
1, 180969, Poly_aftertouch_c, 0, 69, 127
1, 181011, Poly_aftertouch_c, 0, 69, 0
1, 181047, Note_on_c, 0, 71, 58
1, 181088, Note_on_c, 0, 76, 49
1, 181119, Note_off_c, 0, 76, 53
1, 181127, Note_on_c, 0, 74, 55
1, 181153, Note_off_c, 0, 71, 59
1, 181162, Note_off_c, 0, 68, 45
1, 181175, Note_off_c, 0, 74, 60
1, 181180, Note_on_c, 0, 78, 58
1, 181238, Note_off_c, 0, 78, 61
1, 181249, Note_on_c, 0, 83, 67
1, 181310, Control_c, 0, 67, 127
1, 181318, Note_on_c, 0, 80, 65
1, 181324, Control_c, 0, 67, 124
1, 181330, Note_off_c, 0, 83, 59
1, 181339, Control_c, 0, 67, 121
1, 181354, Control_c, 0, 67, 120
1, 181364, Note_on_c, 0, 78, 63
1, 181369, Control_c, 0, 67, 119
1, 181383, Control_c, 0, 67, 117
1, 181398, Control_c, 0, 67, 114
1, 181413, Control_c, 0, 67, 111
1, 181415, Note_off_c, 0, 78, 60
1, 181418, Note_on_c, 0, 76, 69
1, 181419, Note_off_c, 0, 80, 60
1, 181428, Control_c, 0, 67, 109
1, 181450, Control_c, 0, 67, 106
1, 181465, Control_c, 0, 67, 103
1, 181467, Note_off_c, 0, 76, 59
1, 181478, Note_on_c, 0, 74, 59
1, 181480, Control_c, 0, 67, 100
1, 181495, Control_c, 0, 67, 98
1, 181505, Note_on_c, 0, 71, 51
1, 181524, Note_off_c, 0, 74, 60
1, 181525, Control_c, 0, 67, 99
1, 181539, Control_c, 0, 67, 102
1, 181541, Note_off_c, 0, 71, 61
1, 181554, Control_c, 0, 67, 105
1, 181569, Control_c, 0, 67, 107
1, 181583, Control_c, 0, 67, 110
1, 181595, Note_on_c, 0, 69, 44
1, 181598, Control_c, 0, 67, 111
1, 181613, Control_c, 0, 67, 113
1, 181628, Control_c, 0, 67, 115
1, 181642, Note_off_c, 0, 69, 49
1, 181643, Control_c, 0, 67, 117
1, 181658, Control_c, 0, 67, 119
1, 181673, Control_c, 0, 67, 120
1, 181688, Control_c, 0, 67, 121
1, 181689, Note_on_c, 0, 74, 64
1, 181695, Note_on_c, 0, 68, 47
1, 181702, Control_c, 0, 67, 121
1, 181717, Control_c, 0, 64, 89
1, 181717, Control_c, 0, 67, 122
1, 181727, Note_off_c, 0, 74, 59
1, 181732, Control_c, 0, 64, 73
1, 181732, Control_c, 0, 67, 124
1, 181747, Control_c, 0, 64, 64
1, 181747, Control_c, 0, 67, 125
1, 181756, Note_off_c, 0, 68, 57
1, 181757, Note_on_c, 0, 76, 61
1, 181762, Control_c, 0, 64, 61
1, 181762, Control_c, 0, 67, 125
1, 181777, Control_c, 0, 64, 63
1, 181777, Control_c, 0, 67, 126
1, 181792, Control_c, 0, 64, 67
1, 181802, Note_off_c, 0, 76, 61
1, 181807, Control_c, 0, 64, 74
1, 181819, Note_on_c, 0, 69, 36
1, 181822, Control_c, 0, 64, 83
1, 181832, Note_on_c, 0, 78, 63
1, 181837, Control_c, 0, 64, 93
1, 181851, Note_off_c, 0, 69, 54
1, 181851, Control_c, 0, 64, 99
1, 181866, Control_c, 0, 64, 100
1, 181881, Control_c, 0, 64, 102
1, 181885, Note_off_c, 0, 78, 63
1, 181888, Note_on_c, 0, 80, 55
1, 181896, Control_c, 0, 64, 104
1, 181909, Note_on_c, 0, 71, 44
1, 181911, Note_off_c, 0, 80, 64
1, 181911, Control_c, 0, 64, 106
1, 181926, Control_c, 0, 64, 106
1, 181932, Note_on_c, 0, 81, 63
1, 181941, Control_c, 0, 67, 125
1, 181952, Note_off_c, 0, 71, 55
1, 181970, Control_c, 0, 64, 107
1, 181970, Control_c, 0, 67, 125
1, 181973, Note_off_c, 0, 81, 61
1, 181985, Control_c, 0, 64, 107
1, 181999, Control_c, 0, 67, 124
1, 182001, Note_on_c, 0, 83, 52
1, 182004, Note_on_c, 0, 73, 50
1, 182014, Control_c, 0, 67, 123
1, 182029, Control_c, 0, 64, 108
1, 182029, Control_c, 0, 67, 123
1, 182032, Note_off_c, 0, 83, 55
1, 182044, Control_c, 0, 67, 122
1, 182053, Note_on_c, 0, 85, 68
1, 182059, Note_off_c, 0, 73, 58
1, 182059, Control_c, 0, 67, 122
1, 182073, Control_c, 0, 67, 120
1, 182083, Note_off_c, 0, 85, 67
1, 182088, Control_c, 0, 67, 117
1, 182103, Control_c, 0, 67, 114
1, 182118, Control_c, 0, 67, 112
1, 182124, Note_on_c, 0, 74, 42
1, 182133, Control_c, 0, 67, 110
1, 182137, Note_on_c, 0, 86, 63
1, 182147, Control_c, 0, 67, 107
1, 182151, Note_off_c, 0, 74, 62
1, 182162, Control_c, 0, 67, 102
1, 182177, Control_c, 0, 67, 98
1, 182178, Note_off_c, 0, 86, 61
1, 182199, Control_c, 0, 67, 93
1, 182203, Note_on_c, 0, 88, 55
1, 182214, Control_c, 0, 67, 89
1, 182219, Note_on_c, 0, 76, 45
1, 182229, Control_c, 0, 67, 87
1, 182244, Control_c, 0, 64, 107
1, 182271, Note_off_c, 0, 76, 53
1, 182271, Note_off_c, 0, 88, 66
1, 182278, Note_on_c, 0, 90, 66
1, 182288, Control_c, 0, 67, 88
1, 182303, Control_c, 0, 67, 90
1, 182318, Control_c, 0, 67, 91
1, 182328, Note_off_c, 0, 90, 62
1, 182333, Control_c, 0, 67, 92
1, 182347, Control_c, 0, 64, 107
1, 182347, Control_c, 0, 67, 93
1, 182362, Control_c, 0, 64, 106
1, 182362, Control_c, 0, 67, 94
1, 182377, Control_c, 0, 64, 105
1, 182377, Control_c, 0, 67, 95
1, 182392, Control_c, 0, 64, 103
1, 182406, Control_c, 0, 64, 101
1, 182406, Control_c, 0, 67, 95
1, 182421, Control_c, 0, 64, 99
1, 182436, Control_c, 0, 64, 97
1, 182451, Control_c, 0, 64, 95
1, 182451, Control_c, 0, 67, 96
1, 182466, Control_c, 0, 64, 90
1, 182466, Control_c, 0, 67, 97
1, 182480, Control_c, 0, 64, 86
1, 182480, Control_c, 0, 67, 98
1, 182495, Control_c, 0, 64, 83
1, 182510, Control_c, 0, 64, 81
1, 182510, Control_c, 0, 67, 98
1, 182525, Control_c, 0, 64, 79
1, 182540, Control_c, 0, 64, 77
1, 182540, Control_c, 0, 67, 99
1, 182555, Control_c, 0, 64, 74
1, 182570, Control_c, 0, 64, 71
1, 182570, Control_c, 0, 67, 99
1, 182585, Control_c, 0, 64, 67
1, 182600, Control_c, 0, 64, 63
1, 182603, Note_on_c, 0, 92, 67
1, 182615, Control_c, 0, 64, 58
1, 182626, Note_on_c, 0, 62, 34
1, 182630, Control_c, 0, 64, 50
1, 182634, Note_on_c, 0, 69, 38
1, 182639, Note_on_c, 0, 78, 36
1, 182644, Control_c, 0, 64, 38
1, 182659, Control_c, 0, 64, 17
1, 182674, Control_c, 0, 64, 0
1, 182674, Control_c, 0, 67, 98
1, 182689, Control_c, 0, 67, 98
1, 182694, Note_off_c, 0, 78, 0
1, 182694, Note_on_c, 0, 78, 9
1, 182704, Control_c, 0, 64, 20
1, 182704, Control_c, 0, 67, 97
1, 182719, Control_c, 0, 64, 43
1, 182719, Control_c, 0, 67, 95
1, 182734, Control_c, 0, 64, 60
1, 182734, Control_c, 0, 67, 92
1, 182749, Control_c, 0, 64, 69
1, 182749, Control_c, 0, 67, 89
1, 182764, Control_c, 0, 64, 77
1, 182764, Control_c, 0, 67, 87
1, 182778, Control_c, 0, 64, 82
1, 182778, Control_c, 0, 67, 85
1, 182790, Note_off_c, 0, 62, 54
1, 182793, Control_c, 0, 64, 84
1, 182793, Control_c, 0, 67, 84
1, 182808, Control_c, 0, 64, 86
1, 182808, Control_c, 0, 67, 84
1, 182810, Note_off_c, 0, 69, 56
1, 182822, Control_c, 0, 64, 89
1, 182832, Note_off_c, 0, 78, 48
1, 182837, Control_c, 0, 64, 93
1, 182837, Control_c, 0, 67, 86
1, 182852, Control_c, 0, 64, 96
1, 182852, Control_c, 0, 67, 91
1, 182867, Control_c, 0, 64, 98
1, 182867, Control_c, 0, 67, 95
1, 182875, Note_off_c, 0, 92, 57
1, 182882, Control_c, 0, 64, 99
1, 182882, Control_c, 0, 67, 98
1, 182896, Control_c, 0, 67, 100
1, 182911, Control_c, 0, 67, 103
1, 182926, Control_c, 0, 67, 106
1, 182941, Control_c, 0, 67, 106
1, 183008, Control_c, 0, 67, 107
1, 183067, Control_c, 0, 67, 106
1, 183092, Note_on_c, 0, 80, 42
1, 183173, Note_on_c, 0, 78, 49
1, 183174, Note_on_c, 0, 90, 58
1, 183185, Control_c, 0, 64, 97
1, 183200, Control_c, 0, 64, 89
1, 183214, Note_off_c, 0, 80, 34
1, 183215, Control_c, 0, 64, 79
1, 183223, Note_on_c, 0, 92, 67
1, 183229, Control_c, 0, 64, 69
1, 183231, Note_off_c, 0, 90, 58
1, 183235, Note_on_c, 0, 71, 40
1, 183244, Note_on_c, 0, 76, 44
1, 183244, Control_c, 0, 64, 61
1, 183247, Note_on_c, 0, 74, 34
1, 183259, Control_c, 0, 64, 58
1, 183259, Control_c, 0, 67, 106
1, 183274, Control_c, 0, 64, 61
1, 183288, Note_off_c, 0, 78, 50
1, 183289, Control_c, 0, 64, 65
1, 183303, Control_c, 0, 64, 72
1, 183318, Control_c, 0, 64, 81
1, 183333, Control_c, 0, 64, 92
1, 183348, Control_c, 0, 64, 98
1, 183363, Control_c, 0, 64, 99
1, 183379, Control_c, 0, 64, 100
1, 183379, Control_c, 0, 67, 105
1, 183393, Control_c, 0, 64, 102
1, 183404, Note_off_c, 0, 76, 50
1, 183408, Control_c, 0, 64, 103
1, 183417, Note_off_c, 0, 74, 47
1, 183454, Note_off_c, 0, 71, 32
1, 183495, Note_off_c, 0, 92, 32
1, 183644, Note_on_c, 0, 78, 58
1, 183675, Control_c, 0, 67, 106
1, 183687, Note_off_c, 0, 78, 60
1, 183712, Control_c, 0, 64, 102
1, 183713, Note_on_c, 0, 76, 31
1, 183722, Note_on_c, 0, 90, 40
1, 183726, Control_c, 0, 64, 101
1, 183741, Control_c, 0, 64, 100
1, 183741, Control_c, 0, 67, 106
1, 183756, Control_c, 0, 64, 98
1, 183771, Note_off_c, 0, 90, 49
1, 183771, Control_c, 0, 64, 96
1, 183786, Control_c, 0, 64, 93
1, 183786, Note_on_c, 0, 92, 67
1, 183795, Note_on_c, 0, 74, 48
1, 183795, Note_off_c, 0, 76, 39
1, 183801, Control_c, 0, 64, 88
1, 183816, Note_on_c, 0, 80, 51
1, 183816, Control_c, 0, 64, 80
1, 183818, Note_on_c, 0, 85, 46
1, 183831, Control_c, 0, 64, 70
1, 183831, Control_c, 0, 67, 107
1, 183846, Control_c, 0, 64, 62
1, 183860, Control_c, 0, 64, 53
1, 183875, Control_c, 0, 64, 47
1, 183890, Control_c, 0, 64, 47
1, 183905, Control_c, 0, 64, 52
1, 183920, Control_c, 0, 64, 59
1, 183934, Control_c, 0, 64, 66
1, 183949, Control_c, 0, 64, 73
1, 183964, Control_c, 0, 64, 83
1, 183977, Note_off_c, 0, 74, 64
1, 183978, Control_c, 0, 64, 93
1, 183993, Control_c, 0, 64, 95
1, 184008, Control_c, 0, 64, 96
1, 184008, Control_c, 0, 67, 106
1, 184023, Control_c, 0, 64, 98
1, 184038, Control_c, 0, 64, 100
1, 184052, Control_c, 0, 64, 101
1, 184067, Control_c, 0, 64, 102
1, 184216, Control_c, 0, 67, 107
1, 184227, Note_on_c, 0, 73, 42
1, 184297, Note_off_c, 0, 73, 55
1, 184311, Note_on_c, 0, 74, 45
1, 184335, Control_c, 0, 67, 107
1, 184364, Control_c, 0, 64, 100
1, 184366, Note_on_c, 0, 71, 39
1, 184366, Note_on_c, 0, 76, 43
1, 184379, Control_c, 0, 64, 87
1, 184394, Control_c, 0, 64, 74
1, 184409, Control_c, 0, 64, 65
1, 184409, Control_c, 0, 67, 108
1, 184424, Control_c, 0, 64, 59
1, 184427, Note_off_c, 0, 74, 57
1, 184439, Control_c, 0, 64, 60
1, 184461, Control_c, 0, 64, 64
1, 184475, Control_c, 0, 64, 71
1, 184490, Control_c, 0, 64, 82
1, 184490, Control_c, 0, 67, 108
1, 184500, Note_off_c, 0, 80, 54
1, 184502, Note_off_c, 0, 71, 61
1, 184505, Control_c, 0, 64, 96
1, 184516, Note_off_c, 0, 85, 57
1, 184520, Control_c, 0, 64, 104
1, 184532, Note_off_c, 0, 76, 55
1, 184535, Control_c, 0, 64, 105
1, 184535, Control_c, 0, 67, 109
1, 184538, Note_off_c, 0, 92, 64
1, 184549, Control_c, 0, 64, 107
1, 184549, Control_c, 0, 67, 109
1, 184564, Control_c, 0, 64, 110
1, 184579, Control_c, 0, 64, 114
1, 184594, Control_c, 0, 64, 115
1, 184609, Control_c, 0, 67, 110
1, 184624, Control_c, 0, 64, 116
1, 184639, Control_c, 0, 67, 110
1, 184683, Control_c, 0, 64, 117
1, 184698, Control_c, 0, 67, 111
1, 184713, Control_c, 0, 67, 112
1, 184713, Note_on_c, 0, 74, 35
1, 184728, Control_c, 0, 67, 113
1, 184753, Note_off_c, 0, 74, 54
1, 184755, Note_on_c, 0, 76, 50
1, 184776, Note_on_c, 0, 92, 60
1, 184778, Note_off_c, 0, 76, 61
1, 184787, Control_c, 0, 67, 113
1, 184795, Note_off_c, 0, 92, 65
1, 184878, Note_on_c, 0, 92, 51
1, 184890, Control_c, 0, 64, 113
1, 184890, Control_c, 0, 67, 113
1, 184905, Control_c, 0, 64, 99
1, 184917, Note_off_c, 0, 92, 49
1, 184920, Control_c, 0, 64, 83
1, 184935, Control_c, 0, 64, 70
1, 184935, Control_c, 0, 67, 112
1, 184949, Note_on_c, 0, 97, 72
1, 184949, Control_c, 0, 64, 60
1, 184965, Control_c, 0, 64, 53
1, 184980, Control_c, 0, 64, 54
1, 184995, Control_c, 0, 64, 59
1, 184999, Note_on_c, 0, 85, 43
1, 184999, Note_on_c, 0, 62, 43
1, 185001, Note_on_c, 0, 69, 40
1, 185010, Control_c, 0, 64, 66
1, 185024, Control_c, 0, 64, 75
1, 185024, Control_c, 0, 67, 113
1, 185039, Control_c, 0, 64, 89
1, 185054, Note_off_c, 0, 85, 45
1, 185054, Control_c, 0, 64, 105
1, 185065, Note_off_c, 0, 97, 64
1, 185069, Control_c, 0, 64, 111
1, 185079, Note_off_c, 0, 69, 58
1, 185082, Note_off_c, 0, 62, 63
1, 185084, Control_c, 0, 64, 113
1, 185098, Control_c, 0, 64, 119
1, 185113, Control_c, 0, 64, 127
1, 185113, Control_c, 0, 67, 112
1, 185179, Note_on_c, 0, 90, 65
1, 185222, Note_off_c, 0, 90, 64
1, 185224, Control_c, 0, 67, 112
1, 185253, Note_on_c, 0, 92, 63
1, 185268, Note_on_c, 0, 80, 61
1, 185269, Control_c, 0, 67, 112
1, 185296, Note_off_c, 0, 80, 65
1, 185303, Note_off_c, 0, 92, 55
1, 185386, Note_on_c, 0, 80, 61
1, 185417, Control_c, 0, 67, 113
1, 185446, Note_off_c, 0, 80, 61
1, 185467, Note_on_c, 0, 78, 37
1, 185476, Control_c, 0, 64, 118
1, 185491, Control_c, 0, 64, 98
1, 185506, Control_c, 0, 64, 83
1, 185518, Note_on_c, 0, 92, 71
1, 185520, Note_off_c, 0, 78, 46
1, 185521, Control_c, 0, 64, 71
1, 185533, Note_on_c, 0, 71, 40
1, 185535, Note_on_c, 0, 76, 46
1, 185536, Control_c, 0, 64, 62
1, 185550, Control_c, 0, 64, 56
1, 185577, Note_off_c, 0, 92, 61
1, 185580, Control_c, 0, 64, 62
1, 185595, Control_c, 0, 64, 68
1, 185598, Poly_aftertouch_c, 0, 74, 127
1, 185610, Control_c, 0, 64, 78
1, 185624, Control_c, 0, 64, 91
1, 185639, Control_c, 0, 64, 99
1, 185640, Poly_aftertouch_c, 0, 74, 0
1, 185654, Control_c, 0, 64, 100
1, 185684, Control_c, 0, 64, 101
1, 185697, Note_off_c, 0, 76, 32
1, 185698, Control_c, 0, 64, 102
1, 185700, Note_off_c, 0, 71, 30
1, 185724, Note_on_c, 0, 92, 64
1, 185777, Note_off_c, 0, 92, 63
1, 185801, Note_on_c, 0, 95, 75
1, 185812, Note_on_c, 0, 83, 55
1, 185837, Note_off_c, 0, 83, 58
1, 185862, Note_off_c, 0, 95, 61
1, 185877, Control_c, 0, 67, 113
1, 185958, Note_on_c, 0, 78, 47
1, 185959, Control_c, 0, 67, 114
1, 185974, Control_c, 0, 64, 101
1, 185989, Control_c, 0, 64, 101
1, 186003, Control_c, 0, 64, 99
1, 186004, Note_off_c, 0, 78, 59
1, 186018, Control_c, 0, 64, 97
1, 186033, Control_c, 0, 64, 94
1, 186041, Note_on_c, 0, 76, 43
1, 186046, Note_on_c, 0, 95, 57
1, 186047, Control_c, 0, 64, 91
1, 186062, Control_c, 0, 64, 88
1, 186062, Control_c, 0, 67, 114
1, 186077, Control_c, 0, 64, 86
1, 186092, Control_c, 0, 64, 83
1, 186107, Control_c, 0, 64, 79
1, 186109, Note_off_c, 0, 95, 57
1, 186118, Note_off_c, 0, 76, 58
1, 186121, Control_c, 0, 64, 74
1, 186125, Note_on_c, 0, 90, 68
1, 186136, Control_c, 0, 64, 69
1, 186151, Note_on_c, 0, 85, 56
1, 186151, Control_c, 0, 64, 64
1, 186153, Note_on_c, 0, 74, 45
1, 186165, Control_c, 0, 64, 59
1, 186180, Control_c, 0, 64, 54
1, 186180, Control_c, 0, 67, 115
1, 186195, Control_c, 0, 64, 52
1, 186210, Control_c, 0, 64, 53
1, 186225, Control_c, 0, 64, 58
1, 186240, Control_c, 0, 64, 64
1, 186254, Control_c, 0, 64, 72
1, 186269, Control_c, 0, 64, 82
1, 186284, Control_c, 0, 64, 98
1, 186299, Control_c, 0, 64, 105
1, 186299, Control_c, 0, 67, 114
1, 186300, Note_off_c, 0, 74, 63
1, 186314, Control_c, 0, 64, 106
1, 186329, Control_c, 0, 64, 109
1, 186344, Control_c, 0, 64, 117
1, 186359, Control_c, 0, 64, 127
1, 186433, Control_c, 0, 67, 114
1, 186602, Note_on_c, 0, 73, 24
1, 186640, Note_on_c, 0, 74, 44
1, 186660, Note_off_c, 0, 73, 42
1, 186660, Note_on_c, 0, 71, 27
1, 186705, Note_on_c, 0, 76, 49
1, 186737, Control_c, 0, 64, 122
1, 186752, Control_c, 0, 64, 93
1, 186767, Control_c, 0, 64, 77
1, 186767, Control_c, 0, 67, 114
1, 186782, Control_c, 0, 64, 67
1, 186793, Note_off_c, 0, 90, 64
1, 186796, Control_c, 0, 64, 64
1, 186797, Note_off_c, 0, 85, 62
1, 186811, Control_c, 0, 64, 66
1, 186826, Control_c, 0, 64, 73
1, 186829, Note_off_c, 0, 76, 61
1, 186841, Control_c, 0, 64, 85
1, 186848, Note_off_c, 0, 74, 64
1, 186856, Control_c, 0, 64, 109
1, 186860, Note_off_c, 0, 71, 57
1, 186870, Control_c, 0, 64, 127
1, 187089, Note_on_c, 0, 74, 48
1, 187092, Control_c, 0, 67, 114
1, 187128, Note_off_c, 0, 74, 64
1, 187158, Note_on_c, 0, 76, 42
1, 187190, Note_off_c, 0, 76, 58
1, 187208, Note_on_c, 0, 78, 58
1, 187250, Note_off_c, 0, 78, 64
1, 187307, Poly_aftertouch_c, 0, 79, 127
1, 187330, Control_c, 0, 64, 111
1, 187344, Control_c, 0, 64, 97
1, 187359, Control_c, 0, 64, 82
1, 187375, Control_c, 0, 64, 70
1, 187386, Note_on_c, 0, 62, 40
1, 187390, Note_on_c, 0, 69, 38
1, 187390, Control_c, 0, 64, 60
1, 187405, Control_c, 0, 64, 51
1, 187419, Control_c, 0, 64, 47
1, 187429, Note_on_c, 0, 85, 62
1, 187434, Control_c, 0, 64, 48
1, 187456, Control_c, 0, 64, 53
1, 187471, Control_c, 0, 64, 61
1, 187471, Control_c, 0, 67, 114
1, 187486, Control_c, 0, 64, 70
1, 187500, Control_c, 0, 64, 80
1, 187504, Note_off_c, 0, 62, 58
1, 187515, Control_c, 0, 64, 95
1, 187519, Note_off_c, 0, 85, 53
1, 187530, Control_c, 0, 64, 108
1, 187538, Note_off_c, 0, 69, 54
1, 187545, Control_c, 0, 64, 112
1, 187560, Control_c, 0, 64, 118
1, 187560, Control_c, 0, 67, 114
1, 187575, Control_c, 0, 64, 127
1, 187617, Poly_aftertouch_c, 0, 79, 0
1, 187720, Note_on_c, 0, 90, 59
1, 187807, Note_off_c, 0, 90, 63
1, 187822, Note_on_c, 0, 81, 40
1, 187849, Note_off_c, 0, 81, 59
1, 187865, Note_on_c, 0, 79, 65
1, 187892, Note_off_c, 0, 79, 67
1, 187933, Note_on_c, 0, 90, 64
1, 187974, Control_c, 0, 64, 103
1, 187989, Control_c, 0, 64, 81
1, 187998, Note_on_c, 0, 83, 71
1, 188004, Note_on_c, 0, 78, 52
1, 188004, Control_c, 0, 64, 68
1, 188004, Control_c, 0, 67, 114
1, 188011, Note_on_c, 0, 67, 44
1, 188019, Note_on_c, 0, 74, 39
1, 188019, Control_c, 0, 64, 58
1, 188034, Control_c, 0, 64, 52
1, 188049, Control_c, 0, 64, 53
1, 188049, Control_c, 0, 67, 114
1, 188061, Note_off_c, 0, 90, 33
1, 188064, Control_c, 0, 64, 58
1, 188079, Control_c, 0, 64, 65
1, 188093, Control_c, 0, 64, 73
1, 188105, Note_off_c, 0, 67, 62
1, 188108, Control_c, 0, 64, 84
1, 188120, Note_off_c, 0, 74, 60
1, 188123, Control_c, 0, 64, 99
1, 188137, Control_c, 0, 64, 108
1, 188152, Control_c, 0, 64, 109
1, 188168, Control_c, 0, 64, 111
1, 188180, Note_off_c, 0, 78, 57
1, 188183, Control_c, 0, 64, 115
1, 188204, Control_c, 0, 64, 116
1, 188204, Control_c, 0, 67, 113
1, 188463, Note_off_c, 0, 83, 58
1, 188466, Note_on_c, 0, 85, 62
1, 188469, Note_on_c, 0, 79, 41
1, 188471, Control_c, 0, 67, 114
1, 188492, Note_on_c, 0, 78, 51
1, 188502, Note_off_c, 0, 79, 52
1, 188545, Control_c, 0, 64, 115
1, 188574, Control_c, 0, 64, 111
1, 188589, Control_c, 0, 64, 99
1, 188604, Control_c, 0, 64, 85
1, 188619, Control_c, 0, 64, 72
1, 188621, Note_on_c, 0, 90, 65
1, 188632, Note_on_c, 0, 81, 53
1, 188633, Control_c, 0, 64, 62
1, 188633, Control_c, 0, 67, 114
1, 188636, Note_on_c, 0, 76, 37
1, 188636, Note_on_c, 0, 74, 41
1, 188648, Control_c, 0, 64, 52
1, 188663, Control_c, 0, 64, 49
1, 188672, Note_off_c, 0, 78, 33
1, 188678, Control_c, 0, 64, 51
1, 188693, Control_c, 0, 64, 59
1, 188708, Control_c, 0, 64, 65
1, 188713, Note_off_c, 0, 76, 53
1, 188722, Note_off_c, 0, 85, 31
1, 188722, Control_c, 0, 64, 74
1, 188730, Note_off_c, 0, 74, 64
1, 188730, Note_off_c, 0, 81, 59
1, 188737, Control_c, 0, 64, 87
1, 188752, Control_c, 0, 64, 106
1, 188767, Control_c, 0, 64, 118
1, 188782, Control_c, 0, 64, 120
1, 188797, Control_c, 0, 64, 127
1, 188797, Control_c, 0, 67, 114
1, 188871, Control_c, 0, 67, 114
1, 188899, Note_off_c, 0, 90, 59
1, 188927, Note_on_c, 0, 83, 67
1, 188980, Note_off_c, 0, 83, 57
1, 189112, Note_on_c, 0, 76, 49
1, 189141, Note_on_c, 0, 90, 59
1, 189205, Control_c, 0, 64, 107
1, 189208, Note_off_c, 0, 76, 58
1, 189214, Note_off_c, 0, 90, 61
1, 189220, Control_c, 0, 64, 88
1, 189231, Note_on_c, 0, 83, 70
1, 189235, Control_c, 0, 64, 74
1, 189240, Note_on_c, 0, 74, 49
1, 189250, Control_c, 0, 64, 63
1, 189264, Control_c, 0, 64, 56
1, 189279, Control_c, 0, 64, 54
1, 189279, Control_c, 0, 67, 115
1, 189292, Note_on_c, 0, 78, 38
1, 189294, Control_c, 0, 64, 57
1, 189309, Note_on_c, 0, 67, 37
1, 189309, Control_c, 0, 64, 63
1, 189324, Control_c, 0, 64, 69
1, 189338, Control_c, 0, 64, 79
1, 189353, Control_c, 0, 64, 96
1, 189368, Control_c, 0, 64, 127
1, 189375, Note_off_c, 0, 78, 52
1, 189397, Note_off_c, 0, 74, 64
1, 189423, Note_off_c, 0, 67, 49
1, 189641, Note_on_c, 0, 76, 53
1, 189677, Note_off_c, 0, 76, 58
1, 189693, Note_off_c, 0, 83, 60
1, 189728, Note_on_c, 0, 78, 52
1, 189748, Note_off_c, 0, 78, 63
1, 189815, Note_on_c, 0, 79, 61
1, 189835, Control_c, 0, 67, 115
1, 189880, Control_c, 0, 64, 115
1, 189894, Control_c, 0, 64, 92
1, 189909, Control_c, 0, 64, 72
1, 189914, Note_on_c, 0, 85, 65
1, 189924, Note_on_c, 0, 62, 38
1, 189924, Control_c, 0, 64, 61
1, 189930, Note_on_c, 0, 69, 38
1, 189939, Control_c, 0, 64, 50
1, 189954, Control_c, 0, 64, 44
1, 189983, Control_c, 0, 64, 47
1, 189998, Control_c, 0, 64, 57
1, 190013, Control_c, 0, 64, 66
1, 190028, Control_c, 0, 64, 75
1, 190043, Control_c, 0, 64, 89
1, 190044, Note_off_c, 0, 62, 55
1, 190054, Note_off_c, 0, 69, 58
1, 190058, Control_c, 0, 64, 109
1, 190073, Control_c, 0, 64, 127
1, 190102, Control_c, 0, 67, 115
1, 190136, Note_off_c, 0, 79, 53
1, 190228, Note_off_c, 0, 85, 61
1, 190235, Note_on_c, 0, 90, 66
1, 190298, Note_off_c, 0, 90, 64
1, 190324, Control_c, 0, 67, 115
1, 190363, Note_on_c, 0, 81, 54
1, 190396, Note_on_c, 0, 79, 56
1, 190419, Note_off_c, 0, 81, 52
1, 190472, Note_off_c, 0, 79, 52
1, 190524, Control_c, 0, 64, 108
1, 190526, Note_on_c, 0, 90, 67
1, 190535, Note_on_c, 0, 78, 36
1, 190538, Note_on_c, 0, 67, 50
1, 190538, Control_c, 0, 64, 84
1, 190550, Note_on_c, 0, 74, 29
1, 190553, Control_c, 0, 64, 71
1, 190570, Control_c, 0, 64, 64
1, 190584, Control_c, 0, 64, 64
1, 190599, Control_c, 0, 64, 66
1, 190614, Control_c, 0, 64, 71
1, 190620, Note_off_c, 0, 67, 44
1, 190629, Control_c, 0, 64, 80
1, 190642, Note_off_c, 0, 74, 50
1, 190643, Control_c, 0, 64, 91
1, 190645, Note_off_c, 0, 90, 52
1, 190658, Control_c, 0, 64, 101
1, 190669, Note_on_c, 0, 95, 67
1, 190673, Control_c, 0, 64, 105
1, 190678, Note_off_c, 0, 78, 56
1, 190688, Control_c, 0, 64, 108
1, 190703, Control_c, 0, 64, 114
1, 190717, Control_c, 0, 64, 122
1, 190732, Control_c, 0, 64, 127
1, 190732, Control_c, 0, 67, 115
1, 190802, Note_off_c, 0, 95, 62
1, 190803, Note_on_c, 0, 90, 63
1, 190884, Note_off_c, 0, 90, 64
1, 190910, Control_c, 0, 67, 115
1, 190925, Note_on_c, 0, 79, 53
1, 190931, Note_on_c, 0, 85, 56
1, 190958, Note_off_c, 0, 85, 64
1, 190984, Note_off_c, 0, 79, 57
1, 191037, Note_on_c, 0, 78, 50
1, 191043, Control_c, 0, 64, 124
1, 191058, Control_c, 0, 64, 105
1, 191073, Control_c, 0, 64, 89
1, 191088, Control_c, 0, 64, 75
1, 191094, Note_on_c, 0, 90, 65
1, 191098, Note_on_c, 0, 76, 46
1, 191103, Control_c, 0, 64, 61
1, 191103, Control_c, 0, 67, 116
1, 191113, Note_on_c, 0, 74, 39
1, 191117, Control_c, 0, 64, 50
1, 191132, Control_c, 0, 64, 41
1, 191147, Control_c, 0, 64, 40
1, 191147, Control_c, 0, 67, 116
1, 191161, Control_c, 0, 64, 44
1, 191164, Note_off_c, 0, 78, 34
1, 191165, Poly_aftertouch_c, 0, 81, 127
1, 191184, Control_c, 0, 64, 53
1, 191199, Control_c, 0, 64, 63
1, 191200, Note_off_c, 0, 76, 64
1, 191211, Note_off_c, 0, 74, 64
1, 191214, Control_c, 0, 64, 72
1, 191229, Control_c, 0, 64, 83
1, 191243, Control_c, 0, 64, 94
1, 191243, Control_c, 0, 67, 116
1, 191258, Control_c, 0, 64, 100
1, 191273, Control_c, 0, 64, 102
1, 191277, Poly_aftertouch_c, 0, 81, 0
1, 191288, Control_c, 0, 64, 105
1, 191288, Control_c, 0, 67, 115
1, 191303, Control_c, 0, 64, 115
1, 191317, Control_c, 0, 64, 127
1, 191375, Note_off_c, 0, 90, 36
1, 191390, Note_on_c, 0, 83, 65
1, 191407, Control_c, 0, 67, 115
1, 191430, Note_off_c, 0, 83, 60
1, 191466, Control_c, 0, 67, 115
1, 191499, Note_on_c, 0, 74, 44
1, 191553, Note_on_c, 0, 76, 28
1, 191557, Note_off_c, 0, 74, 57
1, 191587, Note_off_c, 0, 76, 51
1, 191629, Note_on_c, 0, 90, 64
1, 191674, Control_c, 0, 64, 106
1, 191688, Control_c, 0, 64, 89
1, 191703, Control_c, 0, 64, 71
1, 191718, Control_c, 0, 64, 60
1, 191724, Note_on_c, 0, 83, 60
1, 191733, Control_c, 0, 64, 49
1, 191733, Note_on_c, 0, 78, 45
1, 191739, Note_on_c, 0, 67, 43
1, 191748, Control_c, 0, 64, 45
1, 191763, Control_c, 0, 64, 49
1, 191772, Note_off_c, 0, 90, 31
1, 191778, Control_c, 0, 64, 58
1, 191781, Note_on_c, 0, 74, 19
1, 191792, Control_c, 0, 64, 66
1, 191792, Control_c, 0, 67, 116
1, 191802, Note_off_c, 0, 67, 62
1, 191807, Control_c, 0, 64, 78
1, 191811, Note_off_c, 0, 74, 47
1, 191822, Control_c, 0, 64, 95
1, 191835, Note_off_c, 0, 78, 60
1, 191837, Control_c, 0, 64, 124
1, 191852, Control_c, 0, 64, 127
1, 191978, Control_c, 0, 67, 115
1, 192007, Control_c, 0, 67, 115
1, 192071, Note_on_c, 0, 76, 63
1, 192081, Control_c, 0, 67, 115
1, 192126, Note_off_c, 0, 76, 57
1, 192126, Control_c, 0, 67, 116
1, 192163, Note_on_c, 0, 78, 60
1, 192171, Control_c, 0, 67, 116
1, 192218, Note_off_c, 0, 78, 61
1, 192249, Note_on_c, 0, 79, 70
1, 192284, Note_off_c, 0, 83, 60
1, 192291, Note_off_c, 0, 79, 59
1, 192386, Note_on_c, 0, 90, 66
1, 192392, Note_on_c, 0, 81, 72
1, 192393, Control_c, 0, 64, 105
1, 192407, Control_c, 0, 64, 84
1, 192413, Note_on_c, 0, 71, 58
1, 192422, Control_c, 0, 64, 66
1, 192435, Note_on_c, 0, 64, 43
1, 192437, Control_c, 0, 64, 53
1, 192452, Control_c, 0, 64, 38
1, 192467, Control_c, 0, 64, 32
1, 192481, Control_c, 0, 64, 34
1, 192496, Control_c, 0, 64, 44
1, 192511, Control_c, 0, 64, 59
1, 192526, Control_c, 0, 64, 68
1, 192541, Control_c, 0, 64, 79
1, 192550, Note_off_c, 0, 81, 52
1, 192553, Note_on_c, 0, 93, 76
1, 192556, Control_c, 0, 64, 93
1, 192571, Control_c, 0, 64, 105
1, 192574, Note_off_c, 0, 90, 64
1, 192586, Control_c, 0, 64, 109
1, 192600, Control_c, 0, 64, 114
1, 192615, Control_c, 0, 64, 127
1, 192615, Control_c, 0, 67, 116
1, 192624, Note_off_c, 0, 64, 60
1, 192642, Note_off_c, 0, 71, 60
1, 192655, Note_off_c, 0, 93, 54
1, 192693, Note_on_c, 0, 95, 73
1, 192778, Note_off_c, 0, 95, 60
1, 192791, Note_on_c, 0, 93, 72
1, 192835, Note_off_c, 0, 93, 64
1, 192892, Note_on_c, 0, 83, 73
1, 192924, Note_off_c, 0, 83, 60
1, 192968, Note_on_c, 0, 81, 50
1, 193016, Note_on_c, 0, 83, 6
1, 193023, Note_off_c, 0, 81, 43
1, 193031, Note_on_c, 0, 79, 46
1, 193035, Note_on_c, 0, 67, 43
1, 193038, Control_c, 0, 67, 116
1, 193039, Note_on_c, 0, 74, 37
1, 193048, Note_on_c, 0, 90, 71
1, 193053, Control_c, 0, 64, 92
1, 193066, Note_off_c, 0, 83, 52
1, 193068, Control_c, 0, 64, 76
1, 193083, Control_c, 0, 64, 66
1, 193083, Control_c, 0, 67, 117
1, 193098, Control_c, 0, 64, 61
1, 193112, Control_c, 0, 64, 63
1, 193127, Control_c, 0, 64, 67
1, 193142, Control_c, 0, 64, 74
1, 193149, Note_on_c, 0, 85, 72
1, 193149, Note_off_c, 0, 90, 55
1, 193149, Note_off_c, 0, 67, 62
1, 193157, Control_c, 0, 64, 85
1, 193172, Control_c, 0, 64, 101
1, 193176, Note_off_c, 0, 74, 64
1, 193186, Control_c, 0, 64, 114
1, 193190, Note_off_c, 0, 85, 58
1, 193201, Control_c, 0, 64, 122
1, 193216, Control_c, 0, 64, 127
1, 193220, Note_off_c, 0, 79, 33
1, 193230, Control_c, 0, 67, 116
1, 193243, Note_on_c, 0, 83, 73
1, 193284, Note_off_c, 0, 83, 54
1, 193317, Note_on_c, 0, 85, 70
1, 193383, Note_off_c, 0, 85, 63
1, 193412, Note_on_c, 0, 90, 69
1, 193477, Note_on_c, 0, 81, 56
1, 193488, Note_off_c, 0, 90, 64
1, 193501, Note_on_c, 0, 95, 72
1, 193525, Note_off_c, 0, 81, 57
1, 193553, Note_on_c, 0, 79, 53
1, 193578, Control_c, 0, 64, 111
1, 193593, Control_c, 0, 64, 87
1, 193608, Control_c, 0, 64, 70
1, 193618, Note_on_c, 0, 90, 79
1, 193619, Note_on_c, 0, 78, 59
1, 193620, Note_on_c, 0, 71, 54
1, 193623, Note_off_c, 0, 79, 62
1, 193623, Control_c, 0, 64, 57
1, 193638, Control_c, 0, 64, 48
1, 193651, Note_off_c, 0, 95, 61
1, 193653, Control_c, 0, 64, 46
1, 193668, Control_c, 0, 64, 50
1, 193683, Control_c, 0, 64, 57
1, 193683, Control_c, 0, 67, 116
1, 193698, Control_c, 0, 64, 64
1, 193698, Control_c, 0, 67, 115
1, 193712, Control_c, 0, 64, 72
1, 193727, Control_c, 0, 64, 85
1, 193727, Control_c, 0, 67, 114
1, 193742, Control_c, 0, 64, 99
1, 193742, Control_c, 0, 67, 113
1, 193757, Control_c, 0, 64, 108
1, 193757, Control_c, 0, 67, 111
1, 193772, Control_c, 0, 64, 112
1, 193772, Control_c, 0, 67, 109
1, 193787, Control_c, 0, 64, 122
1, 193787, Control_c, 0, 67, 107
1, 193802, Control_c, 0, 64, 127
1, 193802, Control_c, 0, 67, 105
1, 193817, Control_c, 0, 67, 104
1, 193832, Control_c, 0, 67, 103
1, 193847, Control_c, 0, 67, 101
1, 193860, Note_off_c, 0, 90, 66
1, 193861, Control_c, 0, 67, 100
1, 193864, Note_off_c, 0, 71, 30
1, 193876, Control_c, 0, 67, 99
1, 193891, Control_c, 0, 67, 97
1, 193897, Note_on_c, 0, 83, 73
1, 193906, Control_c, 0, 67, 97
1, 193921, Control_c, 0, 67, 96
1, 193928, Note_off_c, 0, 78, 27
1, 193942, Note_off_c, 0, 83, 64
1, 194024, Control_c, 0, 67, 97
1, 194068, Control_c, 0, 67, 97
1, 194127, Note_on_c, 0, 90, 58
1, 194142, Control_c, 0, 64, 102
1, 194142, Control_c, 0, 67, 97
1, 194157, Control_c, 0, 64, 84
1, 194157, Control_c, 0, 67, 96
1, 194179, Control_c, 0, 64, 72
1, 194179, Control_c, 0, 67, 95
1, 194187, Note_off_c, 0, 90, 57
1, 194191, Note_on_c, 0, 74, 46
1, 194191, Note_on_c, 0, 79, 53
1, 194194, Control_c, 0, 64, 67
1, 194194, Control_c, 0, 67, 94
1, 194195, Note_on_c, 0, 83, 72
1, 194209, Control_c, 0, 64, 68
1, 194209, Control_c, 0, 67, 92
1, 194224, Control_c, 0, 64, 76
1, 194224, Control_c, 0, 67, 90
1, 194239, Control_c, 0, 64, 91
1, 194239, Control_c, 0, 67, 87
1, 194253, Control_c, 0, 64, 127
1, 194253, Control_c, 0, 67, 82
1, 194268, Control_c, 0, 67, 77
1, 194269, Note_off_c, 0, 74, 63
1, 194283, Control_c, 0, 67, 69
1, 194298, Control_c, 0, 67, 63
1, 194300, Note_off_c, 0, 83, 64
1, 194313, Control_c, 0, 67, 56
1, 194327, Control_c, 0, 67, 48
1, 194342, Control_c, 0, 67, 39
1, 194357, Control_c, 0, 67, 29
1, 194372, Control_c, 0, 67, 18
1, 194386, Control_c, 0, 67, 10
1, 194401, Control_c, 0, 67, 0
1, 194412, Note_off_c, 0, 79, 50
1, 194475, Note_on_c, 0, 78, 56
1, 194536, Note_off_c, 0, 78, 57
1, 194579, Note_on_c, 0, 79, 55
1, 194619, Note_off_c, 0, 79, 65
1, 194666, Note_on_c, 0, 81, 64
1, 194669, Control_c, 0, 67, 8
1, 194684, Control_c, 0, 67, 9
1, 194715, Note_off_c, 0, 81, 55
1, 194729, Control_c, 0, 64, 101
1, 194744, Control_c, 0, 64, 75
1, 194744, Control_c, 0, 67, 9
1, 194758, Control_c, 0, 64, 62
1, 194758, Control_c, 0, 67, 10
1, 194771, Note_on_c, 0, 90, 71
1, 194773, Control_c, 0, 64, 55
1, 194775, Note_on_c, 0, 83, 38
1, 194788, Control_c, 0, 64, 57
1, 194802, Control_c, 0, 64, 63
1, 194804, Note_off_c, 0, 83, 45
1, 194813, Note_on_c, 0, 73, 46
1, 194817, Control_c, 0, 64, 72
1, 194817, Control_c, 0, 67, 11
1, 194820, Note_on_c, 0, 66, 50
1, 194832, Control_c, 0, 64, 92
1, 194832, Control_c, 0, 67, 11
1, 194835, Note_off_c, 0, 90, 65
1, 194847, Control_c, 0, 64, 127
1, 194847, Control_c, 0, 67, 12
1, 194862, Control_c, 0, 67, 13
1, 194876, Control_c, 0, 67, 13
1, 194891, Control_c, 0, 67, 14
1, 194900, Note_on_c, 0, 93, 70
1, 194906, Control_c, 0, 67, 14
1, 194908, Note_off_c, 0, 66, 62
1, 194908, Note_off_c, 0, 73, 64
1, 194921, Control_c, 0, 67, 16
1, 194944, Control_c, 0, 67, 19
1, 194959, Note_off_c, 0, 93, 63
1, 195014, Note_on_c, 0, 95, 74
1, 195085, Note_off_c, 0, 95, 65
1, 195120, Note_on_c, 0, 102, 73
1, 195143, Poly_aftertouch_c, 0, 85, 0
1, 195188, Note_on_c, 0, 85, 54
1, 195204, Note_on_c, 0, 95, 76
1, 195230, Note_off_c, 0, 102, 63
1, 195245, Note_off_c, 0, 95, 65
1, 195248, Note_on_c, 0, 83, 64
1, 195265, Note_off_c, 0, 85, 63
1, 195272, Note_off_c, 0, 83, 68
1, 195307, Note_on_c, 0, 93, 68
1, 195337, Note_off_c, 0, 93, 65
1, 195373, Control_c, 0, 67, 18
1, 195400, Note_on_c, 0, 90, 77
1, 195403, Control_c, 0, 64, 96
1, 195406, Note_on_c, 0, 81, 63
1, 195417, Note_on_c, 0, 76, 52
1, 195418, Control_c, 0, 64, 73
1, 195432, Control_c, 0, 64, 58
1, 195447, Control_c, 0, 64, 43
1, 195447, Control_c, 0, 67, 19
1, 195448, Note_on_c, 0, 69, 50
1, 195462, Control_c, 0, 64, 35
1, 195462, Control_c, 0, 67, 19
1, 195477, Control_c, 0, 64, 36
1, 195477, Control_c, 0, 67, 20
1, 195478, Note_off_c, 0, 90, 65
1, 195492, Control_c, 0, 64, 46
1, 195492, Control_c, 0, 67, 21
1, 195504, Note_on_c, 0, 85, 74
1, 195507, Control_c, 0, 64, 59
1, 195507, Control_c, 0, 67, 24
1, 195522, Control_c, 0, 64, 70
1, 195522, Control_c, 0, 67, 29
1, 195534, Note_off_c, 0, 69, 65
1, 195537, Control_c, 0, 64, 79
1, 195537, Control_c, 0, 67, 33
1, 195546, Note_off_c, 0, 81, 58
1, 195550, Note_off_c, 0, 85, 61
1, 195552, Control_c, 0, 64, 89
1, 195555, Note_off_c, 0, 76, 59
1, 195567, Control_c, 0, 64, 92
1, 195593, Note_on_c, 0, 83, 70
1, 195626, Note_off_c, 0, 83, 62
1, 195680, Note_on_c, 0, 85, 75
1, 195707, Control_c, 0, 67, 32
1, 195722, Control_c, 0, 67, 31
1, 195731, Note_off_c, 0, 85, 65
1, 195737, Control_c, 0, 67, 31
1, 195800, Note_on_c, 0, 90, 51
1, 195811, Control_c, 0, 67, 30
1, 195817, Note_on_c, 0, 83, 54
1, 195828, Note_off_c, 0, 90, 61
1, 195840, Control_c, 0, 67, 30
1, 195848, Note_on_c, 0, 95, 61
1, 195870, Note_off_c, 0, 83, 60
1, 195880, Note_on_c, 0, 81, 51
1, 195885, Control_c, 0, 64, 91
1, 195900, Control_c, 0, 64, 91
1, 195929, Control_c, 0, 64, 90
1, 195944, Control_c, 0, 64, 90
1, 195958, Control_c, 0, 64, 87
1, 195973, Control_c, 0, 64, 78
1, 195988, Control_c, 0, 64, 68
1, 195989, Note_on_c, 0, 73, 49
1, 195994, Note_off_c, 0, 81, 60
1, 195997, Note_on_c, 0, 90, 59
1, 196003, Note_off_c, 0, 95, 63
1, 196003, Control_c, 0, 64, 58
1, 196018, Control_c, 0, 64, 46
1, 196025, Note_on_c, 0, 79, 45
1, 196032, Control_c, 0, 64, 40
1, 196047, Control_c, 0, 64, 41
1, 196062, Control_c, 0, 64, 49
1, 196077, Control_c, 0, 64, 59
1, 196077, Control_c, 0, 67, 30
1, 196092, Control_c, 0, 64, 68
1, 196092, Control_c, 0, 67, 31
1, 196106, Control_c, 0, 64, 76
1, 196121, Note_off_c, 0, 79, 64
1, 196121, Control_c, 0, 64, 86
1, 196121, Control_c, 0, 67, 31
1, 196136, Control_c, 0, 64, 93
1, 196152, Control_c, 0, 64, 94
1, 196167, Control_c, 0, 64, 95
1, 196182, Control_c, 0, 64, 97
1, 196196, Control_c, 0, 64, 99
1, 196211, Control_c, 0, 64, 100
1, 196213, Note_off_c, 0, 90, 64
1, 196217, Note_off_c, 0, 73, 36
1, 196226, Control_c, 0, 64, 101
1, 196273, Note_on_c, 0, 83, 56
1, 196318, Note_off_c, 0, 83, 52
1, 196360, Control_c, 0, 64, 100
1, 196488, Note_on_c, 0, 79, 36
1, 196510, Note_on_c, 0, 90, 49
1, 196544, Control_c, 0, 64, 99
1, 196559, Control_c, 0, 64, 98
1, 196571, Note_off_c, 0, 79, 58
1, 196574, Control_c, 0, 64, 96
1, 196589, Control_c, 0, 64, 95
1, 196600, Note_on_c, 0, 78, 47
1, 196619, Control_c, 0, 64, 95
1, 196634, Control_c, 0, 64, 94
1, 196649, Control_c, 0, 64, 92
1, 196649, Control_c, 0, 67, 32
1, 196663, Control_c, 0, 64, 89
1, 196678, Control_c, 0, 64, 86
1, 196690, Note_off_c, 0, 90, 33
1, 196693, Control_c, 0, 64, 81
1, 196699, Note_off_c, 0, 78, 53
1, 196708, Control_c, 0, 64, 74
1, 196723, Control_c, 0, 64, 66
1, 196737, Control_c, 0, 64, 58
1, 196737, Control_c, 0, 67, 31
1, 196739, Note_on_c, 0, 83, 49
1, 196752, Control_c, 0, 64, 54
1, 196752, Control_c, 0, 67, 31
1, 196767, Control_c, 0, 64, 55
1, 196767, Control_c, 0, 67, 29
1, 196780, Note_on_c, 0, 76, 43
1, 196781, Control_c, 0, 64, 60
1, 196781, Control_c, 0, 67, 28
1, 196784, Note_on_c, 0, 81, 39
1, 196796, Control_c, 0, 64, 66
1, 196796, Control_c, 0, 67, 26
1, 196811, Control_c, 0, 64, 74
1, 196811, Control_c, 0, 67, 25
1, 196826, Control_c, 0, 64, 85
1, 196826, Control_c, 0, 67, 23
1, 196841, Control_c, 0, 64, 102
1, 196841, Control_c, 0, 67, 20
1, 196850, Note_off_c, 0, 81, 56
1, 196855, Control_c, 0, 64, 127
1, 196855, Control_c, 0, 67, 16
1, 196862, Note_off_c, 0, 76, 45
1, 196870, Control_c, 0, 67, 11
1, 196885, Control_c, 0, 67, 0
1, 197126, Note_off_c, 0, 83, 38
1, 197175, Control_c, 0, 67, 9
1, 197190, Control_c, 0, 67, 11
1, 197204, Control_c, 0, 67, 12
1, 197219, Control_c, 0, 67, 16
1, 197234, Control_c, 0, 67, 25
1, 197249, Control_c, 0, 67, 40
1, 197264, Control_c, 0, 67, 56
1, 197278, Control_c, 0, 67, 72
1, 197293, Control_c, 0, 67, 88
1, 197308, Control_c, 0, 67, 101
1, 197323, Control_c, 0, 67, 109
1, 197338, Control_c, 0, 67, 110
1, 197352, Control_c, 0, 67, 111
1, 197367, Control_c, 0, 67, 113
1, 197382, Control_c, 0, 67, 115
1, 197397, Control_c, 0, 67, 117
1, 197412, Control_c, 0, 67, 118
1, 197427, Control_c, 0, 64, 122
1, 197427, Control_c, 0, 67, 119
1, 197442, Control_c, 0, 64, 120
1, 197442, Control_c, 0, 67, 119
1, 197457, Control_c, 0, 64, 119
1, 197457, Control_c, 0, 67, 120
1, 197471, Control_c, 0, 67, 120
1, 197486, Control_c, 0, 64, 118
1, 197486, Control_c, 0, 67, 121
1, 197501, Control_c, 0, 67, 121
1, 197514, Note_on_c, 0, 79, 41
1, 197531, Control_c, 0, 64, 117
1, 197570, Note_off_c, 0, 79, 59
1, 197590, Control_c, 0, 64, 116
1, 197594, Note_on_c, 0, 81, 39
1, 197643, Note_on_c, 0, 83, 47
1, 197644, Note_off_c, 0, 81, 52
1, 197668, Note_off_c, 0, 83, 59
1, 197715, Note_on_c, 0, 88, 50
1, 197737, Control_c, 0, 67, 122
1, 197754, Control_c, 0, 64, 115
1, 197754, Control_c, 0, 67, 122
1, 197758, Note_off_c, 0, 88, 50
1, 197768, Control_c, 0, 64, 101
1, 197768, Control_c, 0, 67, 124
1, 197783, Control_c, 0, 64, 84
1, 197783, Control_c, 0, 67, 126
1, 197798, Control_c, 0, 64, 69
1, 197798, Control_c, 0, 67, 127
1, 197813, Control_c, 0, 64, 56
1, 197815, Note_on_c, 0, 40, 41
1, 197815, Note_on_c, 0, 90, 63
1, 197827, Control_c, 0, 64, 43
1, 197838, Note_on_c, 0, 45, 24
1, 197842, Control_c, 0, 64, 34
1, 197857, Control_c, 0, 64, 27
1, 197862, Note_off_c, 0, 45, 50
1, 197872, Control_c, 0, 64, 9
1, 197887, Control_c, 0, 64, 0
1, 198165, Note_on_c, 0, 45, 51
1, 198166, Note_off_c, 0, 40, 56
1, 198190, Note_off_c, 0, 45, 57
1, 198373, Note_off_c, 0, 90, 34
1, 198474, Note_on_c, 0, 90, 62
1, 198476, Note_on_c, 0, 78, 58
1, 198482, Note_on_c, 0, 60, 52
1, 198489, Note_on_c, 0, 69, 36
1, 198512, Note_off_c, 0, 60, 64
1, 198520, Note_off_c, 0, 69, 55
1, 198778, Note_on_c, 0, 52, 45
1, 198791, Control_c, 0, 64, 38
1, 198806, Control_c, 0, 64, 54
1, 198807, Note_off_c, 0, 52, 60
1, 198820, Note_off_c, 0, 78, 49
1, 198821, Control_c, 0, 64, 62
1, 198825, Note_off_c, 0, 90, 61
1, 198836, Control_c, 0, 64, 65
1, 198850, Control_c, 0, 64, 67
1, 198865, Control_c, 0, 64, 70
1, 198880, Control_c, 0, 64, 74
1, 198895, Control_c, 0, 64, 78
1, 198910, Control_c, 0, 64, 81
1, 198924, Control_c, 0, 64, 82
1, 198926, Note_on_c, 0, 90, 62
1, 198938, Note_on_c, 0, 78, 58
1, 198939, Control_c, 0, 64, 83
1, 198953, Note_off_c, 0, 90, 68
1, 198954, Control_c, 0, 64, 84
1, 198966, Note_off_c, 0, 78, 61
1, 198998, Control_c, 0, 64, 84
1, 199028, Control_c, 0, 64, 85
1, 199102, Control_c, 0, 64, 81
1, 199117, Control_c, 0, 64, 74
1, 199127, Note_on_c, 0, 40, 47
1, 199131, Note_on_c, 0, 47, 26
1, 199132, Control_c, 0, 64, 66
1, 199147, Control_c, 0, 64, 56
1, 199153, Note_on_c, 0, 67, 56
1, 199162, Control_c, 0, 64, 48
1, 199171, Note_off_c, 0, 47, 43
1, 199176, Control_c, 0, 64, 43
1, 199191, Control_c, 0, 64, 41
1, 199206, Control_c, 0, 64, 40
1, 199221, Control_c, 0, 64, 38
1, 199236, Control_c, 0, 64, 35
1, 199250, Control_c, 0, 64, 31
1, 199265, Control_c, 0, 64, 30
1, 199280, Control_c, 0, 64, 29
1, 199295, Control_c, 0, 64, 28
1, 199355, Control_c, 0, 64, 28
1, 199370, Control_c, 0, 64, 26
1, 199385, Control_c, 0, 64, 24
1, 199400, Note_on_c, 0, 45, 29
1, 199400, Control_c, 0, 64, 21
1, 199415, Control_c, 0, 64, 18
1, 199437, Control_c, 0, 64, 16
1, 199446, Note_off_c, 0, 45, 58
1, 199452, Control_c, 0, 64, 15
1, 199457, Note_on_c, 0, 47, 51
1, 199462, Note_off_c, 0, 40, 53
1, 199483, Note_off_c, 0, 47, 63
1, 199511, Control_c, 0, 64, 14
1, 199555, Control_c, 0, 64, 13
1, 199585, Control_c, 0, 64, 13
1, 199674, Control_c, 0, 64, 14
1, 199719, Control_c, 0, 64, 9
1, 199734, Control_c, 0, 64, 0
1, 199762, Note_on_c, 0, 62, 58
1, 199797, Note_off_c, 0, 62, 64
1, 199999, Control_c, 0, 64, 39
1, 200014, Control_c, 0, 64, 56
1, 200029, Control_c, 0, 64, 64
1, 200044, Control_c, 0, 64, 66
1, 200056, Note_off_c, 0, 67, 63
1, 200059, Control_c, 0, 64, 68
1, 200074, Control_c, 0, 64, 70
1, 200080, Note_on_c, 0, 52, 49
1, 200089, Control_c, 0, 64, 72
1, 200104, Control_c, 0, 64, 75
1, 200113, Note_off_c, 0, 52, 65
1, 200118, Control_c, 0, 64, 77
1, 200133, Control_c, 0, 64, 78
1, 200148, Control_c, 0, 64, 79
1, 200163, Control_c, 0, 64, 79
1, 200360, Note_on_c, 0, 86, 49
1, 200363, Control_c, 0, 64, 76
1, 200377, Control_c, 0, 64, 69
1, 200392, Control_c, 0, 64, 60
1, 200407, Control_c, 0, 64, 47
1, 200408, Note_on_c, 0, 88, 68
1, 200412, Note_on_c, 0, 76, 63
1, 200416, Note_off_c, 0, 86, 58
1, 200420, Note_on_c, 0, 40, 49
1, 200421, Control_c, 0, 64, 29
1, 200427, Note_on_c, 0, 48, 25
1, 200436, Control_c, 0, 64, 13
1, 200451, Control_c, 0, 64, 0
1, 200458, Note_off_c, 0, 40, 63
1, 200470, Note_off_c, 0, 48, 37
1, 200688, Note_on_c, 0, 47, 34
1, 200706, Note_on_c, 0, 48, 58
1, 200713, Note_off_c, 0, 47, 50
1, 200718, Control_c, 0, 64, 13
1, 200733, Note_off_c, 0, 48, 66
1, 200733, Control_c, 0, 64, 42
1, 200747, Control_c, 0, 64, 56
1, 200762, Control_c, 0, 64, 63
1, 200777, Control_c, 0, 64, 64
1, 200807, Control_c, 0, 64, 65
1, 200821, Control_c, 0, 64, 66
1, 200836, Control_c, 0, 64, 67
1, 200851, Control_c, 0, 64, 67
1, 200866, Control_c, 0, 64, 68
1, 200895, Control_c, 0, 64, 69
1, 200917, Control_c, 0, 64, 69
1, 200932, Control_c, 0, 64, 70
1, 200944, Note_off_c, 0, 76, 57
1, 200948, Control_c, 0, 64, 71
1, 200952, Note_off_c, 0, 88, 61
1, 200963, Control_c, 0, 64, 71
1, 201007, Control_c, 0, 64, 70
1, 201022, Control_c, 0, 64, 66
1, 201037, Control_c, 0, 64, 59
1, 201049, Note_on_c, 0, 76, 71
1, 201049, Note_on_c, 0, 88, 77
1, 201049, Note_on_c, 0, 64, 50
1, 201051, Control_c, 0, 64, 47
1, 201057, Note_on_c, 0, 66, 44
1, 201066, Control_c, 0, 64, 25
1, 201081, Control_c, 0, 64, 0
1, 201082, Note_off_c, 0, 64, 66
1, 201085, Note_off_c, 0, 66, 60
1, 201126, Control_c, 0, 64, 23
1, 201141, Control_c, 0, 64, 41
1, 201156, Control_c, 0, 64, 55
1, 201170, Control_c, 0, 64, 63
1, 201185, Control_c, 0, 64, 66
1, 201200, Control_c, 0, 64, 67
1, 201215, Control_c, 0, 64, 67
1, 201230, Control_c, 0, 64, 69
1, 201244, Control_c, 0, 64, 69
1, 201259, Control_c, 0, 64, 68
1, 201274, Control_c, 0, 64, 62
1, 201289, Control_c, 0, 64, 53
1, 201304, Control_c, 0, 64, 39
1, 201318, Control_c, 0, 64, 33
1, 201333, Control_c, 0, 64, 40
1, 201348, Control_c, 0, 64, 51
1, 201362, Note_on_c, 0, 52, 48
1, 201363, Control_c, 0, 64, 63
1, 201377, Control_c, 0, 64, 70
1, 201391, Note_off_c, 0, 52, 64
1, 201392, Control_c, 0, 64, 75
1, 201399, Note_off_c, 0, 76, 55
1, 201407, Control_c, 0, 64, 80
1, 201412, Note_off_c, 0, 88, 63
1, 201422, Control_c, 0, 64, 81
1, 201437, Control_c, 0, 64, 83
1, 201451, Control_c, 0, 64, 85
1, 201466, Control_c, 0, 64, 87
1, 201481, Control_c, 0, 64, 87
1, 201494, Note_on_c, 0, 88, 65
1, 201511, Control_c, 0, 64, 88
1, 201513, Note_on_c, 0, 76, 63
1, 201538, Note_off_c, 0, 88, 65
1, 201540, Control_c, 0, 64, 89
1, 201544, Note_off_c, 0, 76, 66
1, 201555, Control_c, 0, 64, 89
1, 201699, Note_on_c, 0, 47, 39
1, 201722, Note_on_c, 0, 40, 33
1, 201725, Control_c, 0, 64, 87
1, 201740, Control_c, 0, 64, 81
1, 201743, Note_on_c, 0, 66, 74
1, 201756, Control_c, 0, 64, 73
1, 201761, Note_off_c, 0, 47, 52
1, 201771, Control_c, 0, 64, 63
1, 201786, Control_c, 0, 64, 54
1, 201800, Control_c, 0, 64, 46
1, 201815, Control_c, 0, 64, 41
1, 201830, Control_c, 0, 64, 37
1, 201845, Control_c, 0, 64, 32
1, 201860, Control_c, 0, 64, 25
1, 201874, Control_c, 0, 64, 15
1, 201889, Control_c, 0, 64, 9
1, 201904, Control_c, 0, 64, 8
1, 201934, Control_c, 0, 64, 0
1, 201999, Note_off_c, 0, 40, 39
1, 202008, Note_on_c, 0, 45, 21
1, 202038, Note_off_c, 0, 45, 51
1, 202045, Note_on_c, 0, 47, 53
1, 202072, Note_off_c, 0, 47, 63
1, 202353, Note_on_c, 0, 62, 40
1, 202356, Note_on_c, 0, 67, 50
1, 202382, Note_off_c, 0, 62, 58
1, 202402, Note_off_c, 0, 67, 62
1, 202682, Note_on_c, 0, 52, 45
1, 202683, Control_c, 0, 64, 22
1, 202697, Control_c, 0, 64, 46
1, 202712, Control_c, 0, 64, 59
1, 202727, Control_c, 0, 64, 64
1, 202742, Control_c, 0, 64, 65
1, 202747, Note_off_c, 0, 66, 63
1, 202752, Note_off_c, 0, 52, 55
1, 202757, Control_c, 0, 64, 67
1, 202771, Control_c, 0, 64, 69
1, 202786, Control_c, 0, 64, 73
1, 202801, Control_c, 0, 64, 77
1, 202816, Control_c, 0, 64, 79
1, 202831, Control_c, 0, 64, 81
1, 202846, Control_c, 0, 64, 82
1, 202861, Control_c, 0, 64, 83
1, 202876, Control_c, 0, 64, 83
1, 202935, Control_c, 0, 64, 84
1, 202964, Control_c, 0, 64, 85
1, 202979, Control_c, 0, 64, 85
1, 202994, Control_c, 0, 64, 86
1, 203031, Note_on_c, 0, 90, 70
1, 203038, Control_c, 0, 64, 85
1, 203050, Note_on_c, 0, 40, 47
1, 203053, Control_c, 0, 64, 79
1, 203055, Note_on_c, 0, 45, 50
1, 203068, Control_c, 0, 64, 71
1, 203083, Control_c, 0, 64, 65
1, 203097, Control_c, 0, 64, 59
1, 203105, Note_off_c, 0, 90, 65
1, 203112, Control_c, 0, 64, 53
1, 203127, Control_c, 0, 64, 46
1, 203141, Control_c, 0, 64, 37
1, 203156, Control_c, 0, 64, 23
1, 203179, Control_c, 0, 64, 0
1, 203219, Note_off_c, 0, 45, 62
1, 203291, Note_on_c, 0, 43, 31
1, 203295, Note_on_c, 0, 93, 70
1, 203342, Note_off_c, 0, 43, 57
1, 203349, Note_off_c, 0, 40, 61
1, 203352, Note_on_c, 0, 45, 51
1, 203359, Note_on_c, 0, 91, 73
1, 203375, Note_on_c, 0, 79, 61
1, 203378, Note_off_c, 0, 45, 57
1, 203385, Note_off_c, 0, 93, 64
1, 203406, Note_off_c, 0, 79, 65
1, 203407, Note_off_c, 0, 91, 63
1, 203509, Note_on_c, 0, 79, 64
1, 203533, Note_off_c, 0, 79, 68
1, 203659, Note_on_c, 0, 90, 82
1, 203663, Note_on_c, 0, 69, 56
1, 203675, Note_on_c, 0, 78, 58
1, 203677, Note_on_c, 0, 60, 52
1, 203686, Note_off_c, 0, 69, 66
1, 203710, Note_off_c, 0, 60, 63
1, 203713, Control_c, 0, 64, 19
1, 203728, Control_c, 0, 64, 44
1, 203743, Control_c, 0, 64, 58
1, 203758, Control_c, 0, 64, 63
1, 203772, Control_c, 0, 64, 64
1, 203787, Control_c, 0, 64, 65
1, 203802, Control_c, 0, 64, 65
1, 203817, Control_c, 0, 64, 66
1, 203832, Control_c, 0, 64, 67
1, 203876, Control_c, 0, 64, 62
1, 203891, Control_c, 0, 64, 54
1, 203906, Control_c, 0, 64, 37
1, 203928, Control_c, 0, 64, 0
1, 203970, Note_on_c, 0, 52, 49
1, 203987, Control_c, 0, 64, 13
1, 204002, Note_off_c, 0, 52, 65
1, 204002, Control_c, 0, 64, 42
1, 204017, Control_c, 0, 64, 59
1, 204032, Control_c, 0, 64, 67
1, 204035, Note_off_c, 0, 90, 63
1, 204046, Control_c, 0, 64, 71
1, 204047, Note_off_c, 0, 78, 59
1, 204061, Control_c, 0, 64, 74
1, 204076, Control_c, 0, 64, 77
1, 204091, Control_c, 0, 64, 81
1, 204106, Control_c, 0, 64, 86
1, 204120, Control_c, 0, 64, 90
1, 204130, Note_on_c, 0, 90, 77
1, 204135, Control_c, 0, 64, 92
1, 204136, Note_on_c, 0, 78, 65
1, 204151, Control_c, 0, 64, 95
1, 204166, Control_c, 0, 64, 97
1, 204168, Note_off_c, 0, 78, 65
1, 204177, Note_off_c, 0, 90, 65
1, 204181, Control_c, 0, 64, 98
1, 204303, Note_on_c, 0, 47, 37
1, 204314, Control_c, 0, 64, 94
1, 204329, Control_c, 0, 64, 88
1, 204342, Note_on_c, 0, 40, 39
1, 204343, Control_c, 0, 64, 79
1, 204351, Note_on_c, 0, 71, 72
1, 204358, Control_c, 0, 64, 70
1, 204371, Note_off_c, 0, 47, 54
1, 204373, Control_c, 0, 64, 61
1, 204387, Control_c, 0, 64, 53
1, 204402, Control_c, 0, 64, 48
1, 204417, Control_c, 0, 64, 45
1, 204432, Control_c, 0, 64, 43
1, 204447, Control_c, 0, 64, 39
1, 204462, Control_c, 0, 64, 34
1, 204477, Control_c, 0, 64, 27
1, 204491, Control_c, 0, 64, 22
1, 204506, Control_c, 0, 64, 18
1, 204521, Control_c, 0, 64, 10
1, 204536, Control_c, 0, 64, 0
1, 204597, Note_on_c, 0, 45, 34
1, 204627, Note_off_c, 0, 40, 54
1, 204632, Note_off_c, 0, 45, 58
1, 204643, Note_on_c, 0, 47, 48
1, 204678, Note_off_c, 0, 47, 60
1, 204706, Control_c, 0, 64, 26
1, 204721, Control_c, 0, 64, 45
1, 204736, Control_c, 0, 64, 57
1, 204751, Control_c, 0, 64, 61
1, 204781, Control_c, 0, 64, 62
1, 204795, Control_c, 0, 64, 64
1, 204810, Control_c, 0, 64, 66
1, 204825, Control_c, 0, 64, 67
1, 204840, Control_c, 0, 64, 67
1, 204864, Note_off_c, 0, 71, 62
1, 204945, Control_c, 0, 64, 67
1, 204971, Note_on_c, 0, 71, 67
1, 204974, Control_c, 0, 64, 66
1, 204977, Note_on_c, 0, 62, 54
1, 204989, Control_c, 0, 64, 63
1, 205004, Control_c, 0, 64, 60
1, 205010, Note_off_c, 0, 62, 65
1, 205014, Note_on_c, 0, 67, 30
1, 205018, Control_c, 0, 64, 57
1, 205033, Control_c, 0, 64, 52
1, 205044, Note_off_c, 0, 67, 50
1, 205048, Control_c, 0, 64, 47
1, 205063, Control_c, 0, 64, 41
1, 205078, Control_c, 0, 64, 33
1, 205092, Control_c, 0, 64, 24
1, 205107, Control_c, 0, 64, 14
1, 205122, Control_c, 0, 64, 0
1, 205255, Control_c, 0, 67, 124
1, 205270, Control_c, 0, 67, 121
1, 205284, Control_c, 0, 67, 117
1, 205293, Note_on_c, 0, 52, 46
1, 205299, Control_c, 0, 67, 114
1, 205314, Control_c, 0, 67, 111
1, 205329, Control_c, 0, 64, 35
1, 205329, Control_c, 0, 67, 108
1, 205337, Note_off_c, 0, 52, 63
1, 205344, Control_c, 0, 64, 54
1, 205344, Control_c, 0, 67, 106
1, 205359, Control_c, 0, 64, 63
1, 205359, Control_c, 0, 67, 104
1, 205374, Control_c, 0, 64, 67
1, 205389, Control_c, 0, 64, 68
1, 205410, Control_c, 0, 64, 69
1, 205410, Control_c, 0, 67, 105
1, 205425, Control_c, 0, 64, 71
1, 205425, Control_c, 0, 67, 105
1, 205440, Control_c, 0, 64, 74
1, 205440, Control_c, 0, 67, 107
1, 205455, Control_c, 0, 64, 76
1, 205455, Control_c, 0, 67, 109
1, 205470, Control_c, 0, 64, 78
1, 205470, Control_c, 0, 67, 111
1, 205484, Control_c, 0, 64, 79
1, 205484, Control_c, 0, 67, 112
1, 205499, Control_c, 0, 64, 80
1, 205499, Control_c, 0, 67, 113
1, 205514, Control_c, 0, 67, 114
1, 205529, Control_c, 0, 64, 81
1, 205529, Control_c, 0, 67, 116
1, 205544, Control_c, 0, 67, 117
1, 205559, Control_c, 0, 64, 81
1, 205559, Control_c, 0, 67, 119
1, 205561, Note_off_c, 0, 71, 51
1, 205574, Control_c, 0, 67, 120
1, 205588, Control_c, 0, 67, 122
1, 205603, Control_c, 0, 67, 123
1, 205618, Control_c, 0, 64, 78
1, 205618, Control_c, 0, 67, 124
1, 205633, Control_c, 0, 64, 70
1, 205633, Control_c, 0, 67, 125
1, 205648, Control_c, 0, 64, 61
1, 205648, Control_c, 0, 67, 125
1, 205656, Note_on_c, 0, 48, 40
1, 205656, Note_on_c, 0, 83, 63
1, 205663, Control_c, 0, 64, 49
1, 205663, Control_c, 0, 67, 126
1, 205664, Note_on_c, 0, 71, 43
1, 205678, Control_c, 0, 64, 32
1, 205678, Control_c, 0, 67, 126
1, 205679, Note_on_c, 0, 40, 34
1, 205692, Control_c, 0, 64, 30
1, 205692, Control_c, 0, 67, 127
1, 205707, Control_c, 0, 64, 37
1, 205722, Control_c, 0, 64, 50
1, 205730, Note_off_c, 0, 48, 53
1, 205737, Control_c, 0, 64, 62
1, 205737, Control_c, 0, 67, 127
1, 205750, Note_off_c, 0, 40, 52
1, 205750, Note_off_c, 0, 71, 62
1, 205752, Control_c, 0, 64, 69
1, 205767, Control_c, 0, 64, 76
1, 205770, Note_off_c, 0, 83, 64
1, 205782, Control_c, 0, 64, 82
1, 205797, Control_c, 0, 64, 85
1, 205812, Control_c, 0, 64, 86
1, 205827, Control_c, 0, 64, 89
1, 205841, Control_c, 0, 64, 92
1, 205856, Control_c, 0, 64, 97
1, 205871, Control_c, 0, 64, 103
1, 205886, Control_c, 0, 64, 110
1, 205901, Control_c, 0, 64, 115
1, 205915, Control_c, 0, 64, 115
1, 205930, Control_c, 0, 64, 113
1, 205943, Note_on_c, 0, 47, 40
1, 205945, Control_c, 0, 64, 95
1, 205960, Control_c, 0, 64, 76
1, 205975, Control_c, 0, 64, 62
1, 205979, Note_off_c, 0, 47, 66
1, 205984, Note_on_c, 0, 84, 75
1, 205989, Control_c, 0, 64, 42
1, 205994, Note_on_c, 0, 48, 56
1, 206004, Control_c, 0, 64, 22
1, 206019, Control_c, 0, 64, 15
1, 206024, Note_off_c, 0, 48, 65
1, 206033, Control_c, 0, 64, 16
1, 206048, Control_c, 0, 64, 25
1, 206063, Control_c, 0, 64, 41
1, 206078, Control_c, 0, 64, 57
1, 206093, Control_c, 0, 64, 64
1, 206107, Control_c, 0, 64, 67
1, 206122, Control_c, 0, 64, 70
1, 206137, Control_c, 0, 64, 73
1, 206152, Control_c, 0, 64, 78
1, 206174, Control_c, 0, 64, 82
1, 206189, Control_c, 0, 64, 85
1, 206204, Control_c, 0, 64, 86
1, 206223, Note_off_c, 0, 84, 61
1, 206233, Control_c, 0, 64, 84
1, 206248, Control_c, 0, 64, 74
1, 206263, Control_c, 0, 64, 63
1, 206278, Control_c, 0, 64, 50
1, 206293, Control_c, 0, 64, 30
1, 206301, Note_on_c, 0, 74, 66
1, 206307, Control_c, 0, 64, 24
1, 206313, Note_on_c, 0, 66, 46
1, 206318, Note_on_c, 0, 64, 45
1, 206322, Control_c, 0, 64, 31
1, 206337, Control_c, 0, 64, 45
1, 206340, Note_off_c, 0, 66, 59
1, 206343, Note_off_c, 0, 64, 60
1, 206352, Control_c, 0, 64, 58
1, 206352, Control_c, 0, 67, 125
1, 206366, Control_c, 0, 64, 66
1, 206366, Control_c, 0, 67, 122
1, 206380, Note_off_c, 0, 74, 62
1, 206381, Control_c, 0, 64, 73
1, 206381, Control_c, 0, 67, 120
1, 206396, Control_c, 0, 64, 77
1, 206396, Control_c, 0, 67, 117
1, 206411, Control_c, 0, 64, 79
1, 206411, Control_c, 0, 67, 116
1, 206426, Control_c, 0, 64, 79
1, 206426, Control_c, 0, 67, 114
1, 206441, Control_c, 0, 64, 80
1, 206441, Control_c, 0, 67, 113
1, 206456, Control_c, 0, 64, 81
1, 206456, Control_c, 0, 67, 113
1, 206471, Control_c, 0, 64, 81
1, 206486, Control_c, 0, 64, 82
1, 206486, Control_c, 0, 67, 113
1, 206515, Control_c, 0, 67, 114
1, 206530, Control_c, 0, 64, 76
1, 206545, Control_c, 0, 64, 66
1, 206545, Control_c, 0, 67, 115
1, 206560, Control_c, 0, 64, 55
1, 206560, Control_c, 0, 67, 115
1, 206575, Control_c, 0, 64, 37
1, 206575, Control_c, 0, 67, 116
1, 206590, Control_c, 0, 64, 17
1, 206590, Control_c, 0, 67, 116
1, 206605, Control_c, 0, 67, 117
1, 206609, Note_on_c, 0, 88, 67
1, 206611, Note_on_c, 0, 52, 45
1, 206614, Note_on_c, 0, 76, 63
1, 206620, Control_c, 0, 64, 27
1, 206620, Control_c, 0, 67, 118
1, 206635, Control_c, 0, 64, 44
1, 206635, Control_c, 0, 67, 119
1, 206640, Note_off_c, 0, 52, 62
1, 206650, Control_c, 0, 64, 58
1, 206650, Control_c, 0, 67, 120
1, 206652, Note_off_c, 0, 76, 63
1, 206664, Control_c, 0, 64, 66
1, 206664, Control_c, 0, 67, 121
1, 206673, Note_off_c, 0, 88, 64
1, 206679, Control_c, 0, 64, 70
1, 206679, Control_c, 0, 67, 122
1, 206694, Control_c, 0, 64, 74
1, 206694, Control_c, 0, 67, 122
1, 206709, Control_c, 0, 64, 76
1, 206724, Control_c, 0, 64, 79
1, 206724, Control_c, 0, 67, 123
1, 206738, Control_c, 0, 64, 80
1, 206738, Control_c, 0, 67, 123
1, 206753, Control_c, 0, 64, 81
1, 206768, Control_c, 0, 64, 82
1, 206768, Control_c, 0, 67, 124
1, 206812, Control_c, 0, 64, 82
1, 206812, Control_c, 0, 67, 124
1, 206827, Control_c, 0, 67, 125
1, 206842, Control_c, 0, 67, 125
1, 206871, Control_c, 0, 64, 82
1, 206886, Control_c, 0, 64, 74
1, 206886, Control_c, 0, 67, 126
1, 206901, Control_c, 0, 64, 64
1, 206901, Control_c, 0, 67, 126
1, 206924, Control_c, 0, 64, 51
1, 206924, Control_c, 0, 67, 127
1, 206935, Note_on_c, 0, 90, 73
1, 206938, Control_c, 0, 64, 23
1, 206942, Note_on_c, 0, 78, 62
1, 206947, Note_on_c, 0, 40, 44
1, 206953, Control_c, 0, 64, 0
1, 206963, Note_on_c, 0, 47, 42
1, 206997, Control_c, 0, 64, 30
1, 207012, Control_c, 0, 64, 48
1, 207027, Control_c, 0, 64, 59
1, 207042, Control_c, 0, 64, 64
1, 207057, Control_c, 0, 64, 67
1, 207071, Control_c, 0, 64, 69
1, 207086, Control_c, 0, 64, 73
1, 207101, Control_c, 0, 64, 77
1, 207116, Control_c, 0, 64, 80
1, 207118, Note_off_c, 0, 47, 34
1, 207131, Control_c, 0, 64, 81
1, 207160, Control_c, 0, 64, 79
1, 207175, Control_c, 0, 64, 71
1, 207189, Control_c, 0, 64, 60
1, 207204, Control_c, 0, 64, 47
1, 207219, Control_c, 0, 64, 42
1, 207222, Note_on_c, 0, 45, 10
1, 207234, Control_c, 0, 64, 48
1, 207249, Control_c, 0, 64, 58
1, 207251, Note_off_c, 0, 45, 51
1, 207252, Note_on_c, 0, 47, 50
1, 207264, Note_off_c, 0, 40, 40
1, 207264, Control_c, 0, 64, 65
1, 207278, Note_off_c, 0, 47, 59
1, 207279, Control_c, 0, 64, 70
1, 207294, Control_c, 0, 64, 74
1, 207308, Control_c, 0, 64, 77
1, 207323, Control_c, 0, 64, 78
1, 207339, Control_c, 0, 64, 79
1, 207340, Note_off_c, 0, 90, 63
1, 207353, Control_c, 0, 64, 79
1, 207398, Control_c, 0, 64, 80
1, 207413, Control_c, 0, 64, 80
1, 207428, Control_c, 0, 64, 81
1, 207443, Control_c, 0, 64, 81
1, 207481, Note_off_c, 0, 78, 33
1, 207487, Control_c, 0, 64, 82
1, 207502, Control_c, 0, 64, 82
1, 207547, Control_c, 0, 64, 78
1, 207555, Note_on_c, 0, 90, 68
1, 207561, Control_c, 0, 64, 69
1, 207572, Note_on_c, 0, 76, 54
1, 207576, Control_c, 0, 64, 59
1, 207578, Note_on_c, 0, 78, 66
1, 207590, Note_on_c, 0, 67, 47
1, 207591, Control_c, 0, 64, 41
1, 207593, Note_off_c, 0, 76, 60
1, 207605, Control_c, 0, 64, 25
1, 207615, Note_off_c, 0, 67, 58
1, 207620, Control_c, 0, 64, 18
1, 207635, Control_c, 0, 64, 18
1, 207650, Control_c, 0, 64, 17
1, 207672, Control_c, 0, 64, 12
1, 207687, Control_c, 0, 64, 0
1, 207881, Note_on_c, 0, 52, 52
1, 207909, Control_c, 0, 64, 39
1, 207911, Note_off_c, 0, 52, 65
1, 207924, Control_c, 0, 64, 57
1, 207938, Control_c, 0, 64, 65
1, 207953, Control_c, 0, 64, 67
1, 207968, Control_c, 0, 64, 67
1, 207998, Control_c, 0, 64, 68
1, 208012, Control_c, 0, 64, 68
1, 208057, Control_c, 0, 64, 69
1, 208072, Control_c, 0, 64, 69
1, 208086, Control_c, 0, 64, 70
1, 208101, Control_c, 0, 64, 70
1, 208128, Note_off_c, 0, 78, 32
1, 208131, Note_off_c, 0, 90, 31
1, 208162, Control_c, 0, 64, 66
1, 208176, Control_c, 0, 64, 58
1, 208191, Control_c, 0, 64, 43
1, 208206, Control_c, 0, 64, 26
1, 208207, Note_on_c, 0, 90, 77
1, 208214, Note_on_c, 0, 40, 47
1, 208220, Note_on_c, 0, 45, 43
1, 208221, Control_c, 0, 64, 29
1, 208235, Control_c, 0, 64, 43
1, 208250, Note_off_c, 0, 90, 61
1, 208250, Control_c, 0, 64, 57
1, 208256, Note_off_c, 0, 45, 57
1, 208265, Control_c, 0, 64, 65
1, 208280, Control_c, 0, 64, 69
1, 208295, Control_c, 0, 64, 71
1, 208325, Control_c, 0, 64, 72
1, 208340, Control_c, 0, 64, 72
1, 208354, Control_c, 0, 64, 73
1, 208369, Control_c, 0, 64, 74
1, 208384, Control_c, 0, 64, 76
1, 208399, Control_c, 0, 64, 79
1, 208421, Control_c, 0, 64, 79
1, 208450, Control_c, 0, 64, 78
1, 208465, Control_c, 0, 64, 70
1, 208480, Control_c, 0, 64, 60
1, 208493, Note_on_c, 0, 93, 56
1, 208495, Control_c, 0, 64, 44
1, 208508, Note_on_c, 0, 43, 22
1, 208510, Note_on_c, 0, 91, 75
1, 208510, Control_c, 0, 64, 38
1, 208525, Control_c, 0, 64, 44
1, 208528, Note_on_c, 0, 45, 52
1, 208539, Note_on_c, 0, 79, 61
1, 208540, Note_off_c, 0, 93, 63
1, 208540, Control_c, 0, 64, 55
1, 208550, Note_off_c, 0, 43, 48
1, 208554, Note_off_c, 0, 40, 57
1, 208554, Control_c, 0, 64, 64
1, 208556, Note_off_c, 0, 45, 63
1, 208558, Note_off_c, 0, 91, 65
1, 208569, Note_off_c, 0, 79, 67
1, 208569, Control_c, 0, 64, 69
1, 208584, Control_c, 0, 64, 72
1, 208599, Control_c, 0, 64, 73
1, 208614, Control_c, 0, 64, 73
1, 208658, Control_c, 0, 64, 74
1, 208673, Control_c, 0, 64, 74
1, 208688, Control_c, 0, 64, 75
1, 208703, Control_c, 0, 64, 76
1, 208717, Control_c, 0, 64, 76
1, 208776, Control_c, 0, 64, 76
1, 208791, Control_c, 0, 64, 73
1, 208806, Control_c, 0, 64, 64
1, 208821, Control_c, 0, 64, 54
1, 208826, Note_on_c, 0, 78, 72
1, 208835, Control_c, 0, 64, 37
1, 208839, Note_on_c, 0, 74, 42
1, 208848, Note_on_c, 0, 69, 50
1, 208850, Control_c, 0, 64, 20
1, 208864, Note_off_c, 0, 74, 56
1, 208865, Control_c, 0, 64, 0
1, 208919, Note_off_c, 0, 69, 65
1, 209118, Control_c, 0, 64, 29
1, 209133, Control_c, 0, 64, 52
1, 209140, Note_on_c, 0, 52, 54
1, 209155, Control_c, 0, 64, 63
1, 209170, Control_c, 0, 64, 67
1, 209176, Note_off_c, 0, 52, 64
1, 209184, Control_c, 0, 64, 69
1, 209198, Note_off_c, 0, 78, 63
1, 209199, Control_c, 0, 64, 70
1, 209214, Control_c, 0, 64, 74
1, 209229, Control_c, 0, 64, 77
1, 209244, Control_c, 0, 64, 80
1, 209258, Control_c, 0, 64, 82
1, 209273, Control_c, 0, 64, 83
1, 209288, Control_c, 0, 64, 83
1, 209435, Note_on_c, 0, 86, 57
1, 209437, Control_c, 0, 64, 79
1, 209452, Control_c, 0, 64, 70
1, 209466, Control_c, 0, 64, 62
1, 209470, Note_on_c, 0, 88, 71
1, 209480, Note_on_c, 0, 40, 43
1, 209481, Control_c, 0, 64, 50
1, 209481, Note_on_c, 0, 76, 63
1, 209485, Note_off_c, 0, 86, 60
1, 209492, Note_on_c, 0, 43, 38
1, 209496, Control_c, 0, 64, 38
1, 209511, Control_c, 0, 64, 26
1, 209526, Control_c, 0, 64, 20
1, 209528, Note_off_c, 0, 43, 55
1, 209540, Control_c, 0, 64, 9
1, 209555, Control_c, 0, 64, 0
1, 209735, Note_on_c, 0, 42, 39
1, 209778, Control_c, 0, 64, 42
1, 209785, Note_off_c, 0, 42, 61
1, 209793, Control_c, 0, 64, 58
1, 209797, Note_on_c, 0, 43, 33
1, 209807, Control_c, 0, 64, 66
1, 209818, Note_off_c, 0, 40, 33
1, 209822, Control_c, 0, 64, 68
1, 209834, Note_off_c, 0, 43, 46
1, 209837, Control_c, 0, 64, 69
1, 209837, Control_c, 0, 67, 127
1, 209852, Control_c, 0, 64, 71
1, 209852, Control_c, 0, 67, 126
1, 209867, Control_c, 0, 64, 72
1, 209867, Control_c, 0, 67, 126
1, 209882, Control_c, 0, 64, 74
1, 209897, Control_c, 0, 64, 76
1, 209920, Control_c, 0, 64, 77
1, 209935, Control_c, 0, 64, 77
1, 209935, Control_c, 0, 67, 126
1, 209964, Control_c, 0, 67, 127
1, 209994, Control_c, 0, 67, 127
1, 210000, Note_off_c, 0, 76, 58
1, 210008, Control_c, 0, 64, 78
1, 210011, Note_off_c, 0, 88, 60
1, 210023, Control_c, 0, 64, 78
1, 210068, Control_c, 0, 64, 77
1, 210082, Control_c, 0, 64, 73
1, 210097, Control_c, 0, 64, 65
1, 210107, Note_on_c, 0, 72, 53
1, 210112, Note_on_c, 0, 88, 77
1, 210112, Control_c, 0, 64, 52
1, 210113, Note_on_c, 0, 76, 68
1, 210116, Note_on_c, 0, 71, 46
1, 210127, Control_c, 0, 64, 36
1, 210128, Note_off_c, 0, 72, 62
1, 210142, Control_c, 0, 64, 24
1, 210144, Note_off_c, 0, 71, 64
1, 210156, Control_c, 0, 64, 25
1, 210171, Control_c, 0, 64, 34
1, 210186, Control_c, 0, 64, 45
1, 210200, Control_c, 0, 64, 56
1, 210215, Control_c, 0, 64, 63
1, 210230, Control_c, 0, 64, 65
1, 210245, Control_c, 0, 64, 66
1, 210275, Control_c, 0, 64, 66
1, 210304, Control_c, 0, 64, 65
1, 210319, Control_c, 0, 64, 60
1, 210334, Control_c, 0, 64, 51
1, 210349, Control_c, 0, 64, 41
1, 210364, Control_c, 0, 64, 39
1, 210379, Control_c, 0, 64, 47
1, 210394, Control_c, 0, 64, 58
1, 210405, Note_on_c, 0, 52, 45
1, 210408, Control_c, 0, 64, 67
1, 210423, Control_c, 0, 64, 73
1, 210436, Note_off_c, 0, 52, 49
1, 210438, Control_c, 0, 64, 78
1, 210444, Note_off_c, 0, 76, 58
1, 210450, Note_off_c, 0, 88, 61
1, 210453, Control_c, 0, 64, 80
1, 210468, Control_c, 0, 64, 81
1, 210482, Control_c, 0, 64, 82
1, 210497, Control_c, 0, 64, 83
1, 210512, Control_c, 0, 64, 85
1, 210528, Control_c, 0, 64, 86
1, 210541, Note_on_c, 0, 88, 68
1, 210549, Note_on_c, 0, 76, 62
1, 210571, Note_off_c, 0, 76, 62
1, 210574, Note_off_c, 0, 88, 67
1, 210719, Note_on_c, 0, 40, 45
1, 210727, Control_c, 0, 64, 85
1, 210739, Note_on_c, 0, 45, 37
1, 210742, Control_c, 0, 64, 81
1, 210757, Control_c, 0, 64, 74
1, 210772, Note_on_c, 0, 66, 72
1, 210772, Control_c, 0, 64, 66
1, 210786, Control_c, 0, 64, 58
1, 210801, Control_c, 0, 64, 47
1, 210816, Control_c, 0, 64, 37
1, 210830, Control_c, 0, 64, 32
1, 210845, Control_c, 0, 64, 28
1, 210860, Control_c, 0, 64, 24
1, 210872, Note_off_c, 0, 45, 26
1, 210875, Control_c, 0, 64, 19
1, 210890, Control_c, 0, 64, 17
1, 210904, Control_c, 0, 64, 15
1, 210949, Control_c, 0, 64, 19
1, 210963, Control_c, 0, 64, 30
1, 210978, Control_c, 0, 64, 40
1, 210993, Control_c, 0, 64, 41
1, 211008, Control_c, 0, 64, 33
1, 211009, Note_on_c, 0, 43, 21
1, 211023, Control_c, 0, 64, 0
1, 211048, Note_on_c, 0, 45, 57
1, 211053, Note_off_c, 0, 43, 46
1, 211070, Note_off_c, 0, 40, 60
1, 211081, Note_off_c, 0, 45, 65
1, 211275, Control_c, 0, 64, 10
1, 211290, Control_c, 0, 64, 13
1, 211350, Control_c, 0, 64, 14
1, 211365, Control_c, 0, 64, 24
1, 211373, Note_on_c, 0, 74, 51
1, 211378, Control_c, 0, 64, 39
1, 211380, Note_on_c, 0, 69, 55
1, 211393, Control_c, 0, 64, 53
1, 211416, Control_c, 0, 64, 63
1, 211419, Note_off_c, 0, 74, 62
1, 211431, Control_c, 0, 64, 65
1, 211439, Note_off_c, 0, 69, 60
1, 211446, Control_c, 0, 64, 66
1, 211460, Control_c, 0, 64, 67
1, 211475, Control_c, 0, 64, 68
1, 211490, Control_c, 0, 64, 68
1, 211505, Control_c, 0, 64, 69
1, 211578, Control_c, 0, 64, 67
1, 211593, Control_c, 0, 64, 62
1, 211608, Control_c, 0, 64, 54
1, 211623, Control_c, 0, 64, 43
1, 211638, Control_c, 0, 64, 41
1, 211652, Control_c, 0, 64, 45
1, 211667, Control_c, 0, 64, 54
1, 211682, Control_c, 0, 64, 62
1, 211685, Note_on_c, 0, 52, 52
1, 211697, Control_c, 0, 64, 67
1, 211709, Note_off_c, 0, 66, 63
1, 211712, Control_c, 0, 64, 71
1, 211718, Note_off_c, 0, 52, 65
1, 211726, Control_c, 0, 64, 74
1, 211741, Control_c, 0, 64, 75
1, 211756, Control_c, 0, 64, 76
1, 211771, Control_c, 0, 64, 77
1, 211786, Control_c, 0, 64, 77
1, 211801, Control_c, 0, 64, 78
1, 211964, Control_c, 0, 64, 75
1, 211978, Control_c, 0, 64, 67
1, 211993, Control_c, 0, 64, 57
1, 212008, Control_c, 0, 64, 41
1, 212022, Note_on_c, 0, 90, 73
1, 212023, Control_c, 0, 64, 21
1, 212033, Note_on_c, 0, 40, 46
1, 212038, Control_c, 0, 64, 20
1, 212040, Note_on_c, 0, 47, 43
1, 212052, Control_c, 0, 64, 30
1, 212067, Control_c, 0, 64, 44
1, 212081, Note_off_c, 0, 90, 64
1, 212082, Control_c, 0, 64, 58
1, 212096, Control_c, 0, 64, 65
1, 212111, Control_c, 0, 64, 70
1, 212128, Control_c, 0, 64, 72
1, 212143, Control_c, 0, 64, 72
1, 212164, Control_c, 0, 64, 73
1, 212179, Control_c, 0, 64, 73
1, 212194, Control_c, 0, 64, 74
1, 212209, Control_c, 0, 64, 74
1, 212219, Note_off_c, 0, 47, 44
1, 212224, Control_c, 0, 64, 75
1, 212239, Control_c, 0, 64, 75
1, 212254, Control_c, 0, 64, 76
1, 212269, Control_c, 0, 64, 77
1, 212283, Control_c, 0, 64, 78
1, 212290, Note_on_c, 0, 93, 64
1, 212298, Control_c, 0, 64, 78
1, 212299, Note_on_c, 0, 45, 47
1, 212313, Control_c, 0, 64, 79
1, 212328, Control_c, 0, 64, 80
1, 212328, Note_off_c, 0, 45, 61
1, 212337, Note_on_c, 0, 47, 44
1, 212341, Note_off_c, 0, 40, 39
1, 212343, Control_c, 0, 64, 81
1, 212349, Note_on_c, 0, 91, 69
1, 212370, Note_off_c, 0, 47, 50
1, 212378, Note_off_c, 0, 93, 63
1, 212387, Control_c, 0, 64, 78
1, 212399, Note_off_c, 0, 91, 65
1, 212401, Control_c, 0, 64, 69
1, 212403, Note_on_c, 0, 79, 37
1, 212416, Control_c, 0, 64, 61
1, 212429, Note_off_c, 0, 79, 52
1, 212431, Control_c, 0, 64, 48
1, 212446, Control_c, 0, 64, 40
1, 212461, Control_c, 0, 64, 35
1, 212475, Control_c, 0, 64, 34
1, 212490, Control_c, 0, 64, 33
1, 212500, Note_on_c, 0, 79, 67
1, 212505, Control_c, 0, 64, 32
1, 212518, Note_off_c, 0, 79, 67
1, 212520, Control_c, 0, 64, 30
1, 212534, Control_c, 0, 64, 28
1, 212549, Control_c, 0, 64, 26
1, 212564, Control_c, 0, 64, 26
1, 212579, Control_c, 0, 64, 27
1, 212594, Control_c, 0, 64, 34
1, 212608, Control_c, 0, 64, 47
1, 212623, Control_c, 0, 64, 60
1, 212635, Note_on_c, 0, 76, 61
1, 212635, Note_on_c, 0, 90, 84
1, 212638, Control_c, 0, 64, 65
1, 212646, Note_on_c, 0, 67, 58
1, 212646, Note_on_c, 0, 78, 64
1, 212653, Control_c, 0, 64, 68
1, 212661, Note_off_c, 0, 76, 66
1, 212668, Control_c, 0, 64, 69
1, 212676, Note_off_c, 0, 67, 65
1, 212683, Control_c, 0, 64, 70
1, 212713, Control_c, 0, 64, 70
1, 212831, Control_c, 0, 64, 69
1, 212846, Control_c, 0, 64, 64
1, 212861, Control_c, 0, 64, 58
1, 212875, Control_c, 0, 64, 48
1, 212890, Control_c, 0, 64, 37
1, 212913, Control_c, 0, 64, 32
1, 212928, Control_c, 0, 64, 37
1, 212938, Note_on_c, 0, 52, 56
1, 212943, Control_c, 0, 64, 48
1, 212958, Control_c, 0, 64, 59
1, 212968, Note_off_c, 0, 52, 66
1, 212972, Control_c, 0, 64, 66
1, 212979, Note_off_c, 0, 78, 58
1, 212987, Control_c, 0, 64, 69
1, 213002, Control_c, 0, 64, 71
1, 213008, Note_off_c, 0, 90, 64
1, 213017, Control_c, 0, 64, 72
1, 213032, Control_c, 0, 64, 72
1, 213047, Control_c, 0, 64, 73
1, 213133, Note_on_c, 0, 90, 72
1, 213136, Note_on_c, 0, 78, 58
1, 213180, Note_off_c, 0, 78, 59
1, 213195, Control_c, 0, 64, 72
1, 213210, Control_c, 0, 64, 69
1, 213224, Control_c, 0, 64, 61
1, 213239, Control_c, 0, 64, 50
1, 213254, Control_c, 0, 64, 32
1, 213258, Note_on_c, 0, 83, 80
1, 213261, Note_on_c, 0, 40, 49
1, 213268, Note_off_c, 0, 90, 58
1, 213269, Control_c, 0, 64, 13
1, 213279, Note_on_c, 0, 45, 42
1, 213284, Control_c, 0, 64, 0
1, 213328, Control_c, 0, 64, 22
1, 213343, Control_c, 0, 64, 33
1, 213357, Control_c, 0, 64, 41
1, 213372, Control_c, 0, 64, 44
1, 213387, Control_c, 0, 64, 46
1, 213402, Control_c, 0, 64, 46
1, 213417, Control_c, 0, 64, 46
1, 213431, Control_c, 0, 64, 44
1, 213439, Note_off_c, 0, 45, 33
1, 213446, Control_c, 0, 64, 41
1, 213461, Control_c, 0, 64, 39
1, 213476, Control_c, 0, 64, 37
1, 213491, Control_c, 0, 64, 38
1, 213506, Control_c, 0, 64, 42
1, 213520, Note_on_c, 0, 43, 31
1, 213521, Control_c, 0, 64, 51
1, 213536, Control_c, 0, 64, 60
1, 213547, Note_off_c, 0, 40, 60
1, 213550, Control_c, 0, 64, 66
1, 213551, Note_on_c, 0, 45, 52
1, 213554, Note_off_c, 0, 43, 54
1, 213565, Control_c, 0, 64, 69
1, 213577, Note_off_c, 0, 45, 57
1, 213580, Control_c, 0, 64, 72
1, 213595, Control_c, 0, 64, 74
1, 213610, Control_c, 0, 64, 76
1, 213624, Control_c, 0, 64, 77
1, 213639, Control_c, 0, 64, 79
1, 213661, Control_c, 0, 64, 80
1, 213676, Control_c, 0, 64, 81
1, 213792, Note_off_c, 0, 83, 63
1, 213825, Control_c, 0, 64, 77
1, 213840, Control_c, 0, 64, 69
1, 213854, Control_c, 0, 64, 60
1, 213869, Control_c, 0, 64, 47
1, 213884, Control_c, 0, 64, 27
1, 213893, Note_on_c, 0, 83, 78
1, 213899, Control_c, 0, 64, 0
1, 213902, Note_on_c, 0, 74, 50
1, 213912, Note_on_c, 0, 69, 54
1, 213917, Note_on_c, 0, 71, 44
1, 213924, Note_off_c, 0, 74, 60
1, 213941, Note_off_c, 0, 69, 67
1, 213973, Control_c, 0, 64, 38
1, 213988, Control_c, 0, 64, 57
1, 214003, Control_c, 0, 64, 66
1, 214017, Note_off_c, 0, 71, 0
1, 214017, Note_on_c, 0, 71, 3
1, 214018, Control_c, 0, 64, 70
1, 214033, Control_c, 0, 64, 72
1, 214047, Control_c, 0, 64, 74
1, 214062, Control_c, 0, 64, 75
1, 214077, Control_c, 0, 64, 77
1, 214092, Control_c, 0, 64, 79
1, 214107, Control_c, 0, 64, 80
1, 214121, Control_c, 0, 64, 81
1, 214156, Note_off_c, 0, 71, 57
1, 214180, Control_c, 0, 64, 81
1, 214197, Note_off_c, 0, 83, 50
1, 214210, Control_c, 0, 64, 82
1, 214214, Note_on_c, 0, 52, 57
1, 214245, Note_off_c, 0, 52, 65
1, 214269, Control_c, 0, 64, 82
1, 214311, Note_on_c, 0, 72, 50
1, 214328, Control_c, 0, 64, 83
1, 214332, Note_off_c, 0, 72, 59
1, 214383, Note_on_c, 0, 83, 64
1, 214434, Note_off_c, 0, 83, 62
1, 214479, Note_on_c, 0, 71, 59
1, 214511, Note_off_c, 0, 71, 65
1, 214542, Note_on_c, 0, 40, 47
1, 214574, Control_c, 0, 64, 82
1, 214589, Control_c, 0, 64, 80
1, 214603, Control_c, 0, 64, 75
1, 214613, Note_on_c, 0, 43, 40
1, 214618, Control_c, 0, 64, 70
1, 214633, Control_c, 0, 64, 62
1, 214642, Note_on_c, 0, 59, 63
1, 214648, Control_c, 0, 64, 53
1, 214663, Control_c, 0, 64, 45
1, 214677, Control_c, 0, 64, 41
1, 214692, Control_c, 0, 64, 38
1, 214707, Control_c, 0, 64, 34
1, 214722, Control_c, 0, 64, 30
1, 214737, Control_c, 0, 64, 26
1, 214752, Control_c, 0, 64, 24
1, 214767, Control_c, 0, 64, 23
1, 214782, Control_c, 0, 64, 22
1, 214796, Control_c, 0, 64, 21
1, 214800, Note_off_c, 0, 43, 41
1, 214811, Control_c, 0, 64, 19
1, 214826, Control_c, 0, 64, 19
1, 214856, Control_c, 0, 64, 18
1, 214868, Note_on_c, 0, 42, 30
1, 214871, Control_c, 0, 64, 15
1, 214885, Control_c, 0, 64, 0
1, 214952, Note_on_c, 0, 43, 43
1, 214958, Note_off_c, 0, 42, 38
1, 214959, Control_c, 0, 64, 29
1, 214974, Control_c, 0, 64, 48
1, 214977, Note_off_c, 0, 40, 60
1, 214984, Note_off_c, 0, 43, 59
1, 214989, Control_c, 0, 64, 61
1, 215003, Control_c, 0, 64, 66
1, 215018, Control_c, 0, 64, 68
1, 215033, Control_c, 0, 64, 69
1, 215048, Control_c, 0, 64, 70
1, 215063, Control_c, 0, 64, 71
1, 215077, Control_c, 0, 64, 72
1, 215092, Control_c, 0, 64, 74
1, 215107, Control_c, 0, 64, 74
1, 215121, Control_c, 0, 64, 75
1, 215136, Control_c, 0, 64, 75
1, 215174, Control_c, 0, 64, 76
1, 215307, Control_c, 0, 64, 72
1, 215323, Control_c, 0, 64, 67
1, 215338, Control_c, 0, 64, 58
1, 215344, Note_on_c, 0, 72, 46
1, 215353, Control_c, 0, 64, 46
1, 215355, Note_on_c, 0, 71, 45
1, 215367, Control_c, 0, 64, 32
1, 215382, Control_c, 0, 64, 12
1, 215397, Control_c, 0, 64, 0
1, 215420, Note_off_c, 0, 71, 60
1, 215425, Note_off_c, 0, 72, 62
1, 215486, Control_c, 0, 64, 36
1, 215500, Control_c, 0, 64, 53
1, 215515, Control_c, 0, 64, 62
1, 215530, Control_c, 0, 64, 64
1, 215545, Control_c, 0, 64, 64
1, 215560, Control_c, 0, 64, 65
1, 215574, Control_c, 0, 64, 67
1, 215589, Control_c, 0, 64, 69
1, 215604, Control_c, 0, 64, 72
1, 215619, Control_c, 0, 64, 73
1, 215634, Control_c, 0, 64, 74
1, 215664, Control_c, 0, 64, 75
1, 215723, Control_c, 0, 64, 72
1, 215738, Control_c, 0, 64, 64
1, 215752, Control_c, 0, 64, 53
1, 215767, Control_c, 0, 64, 36
1, 215782, Note_on_c, 0, 52, 45
1, 215782, Control_c, 0, 64, 13
1, 215797, Control_c, 0, 64, 0
1, 215841, Control_c, 0, 64, 32
1, 215856, Control_c, 0, 64, 52
1, 215861, Note_off_c, 0, 52, 62
1, 215871, Control_c, 0, 64, 63
1, 215886, Control_c, 0, 64, 69
1, 215908, Control_c, 0, 64, 72
1, 215923, Control_c, 0, 64, 74
1, 215938, Control_c, 0, 64, 76
1, 215952, Control_c, 0, 64, 77
1, 216041, Control_c, 0, 64, 76
1, 216056, Control_c, 0, 64, 73
1, 216071, Control_c, 0, 64, 69
1, 216086, Control_c, 0, 64, 65
1, 216100, Control_c, 0, 64, 60
1, 216115, Control_c, 0, 64, 56
1, 216115, Control_c, 0, 67, 126
1, 216131, Control_c, 0, 64, 53
1, 216131, Control_c, 0, 67, 123
1, 216146, Control_c, 0, 64, 51
1, 216146, Control_c, 0, 67, 119
1, 216161, Control_c, 0, 64, 51
1, 216161, Control_c, 0, 67, 116
1, 216175, Control_c, 0, 64, 53
1, 216175, Control_c, 0, 67, 112
1, 216190, Control_c, 0, 64, 57
1, 216190, Control_c, 0, 67, 108
1, 216205, Control_c, 0, 64, 63
1, 216205, Control_c, 0, 67, 103
1, 216220, Control_c, 0, 64, 68
1, 216220, Control_c, 0, 67, 95
1, 216235, Control_c, 0, 64, 75
1, 216235, Control_c, 0, 67, 86
1, 216249, Control_c, 0, 64, 81
1, 216249, Control_c, 0, 67, 77
1, 216264, Control_c, 0, 64, 84
1, 216264, Control_c, 0, 67, 68
1, 216279, Control_c, 0, 64, 85
1, 216279, Control_c, 0, 67, 63
1, 216294, Control_c, 0, 64, 86
1, 216294, Control_c, 0, 67, 61
1, 216309, Control_c, 0, 64, 87
1, 216323, Control_c, 0, 64, 88
1, 216323, Control_c, 0, 67, 62
1, 216338, Control_c, 0, 64, 88
1, 216338, Control_c, 0, 67, 65
1, 216353, Control_c, 0, 67, 67
1, 216367, Note_off_c, 0, 59, 59
1, 216367, Control_c, 0, 67, 68
1, 216382, Control_c, 0, 67, 69
1, 216397, Control_c, 0, 67, 69
1, 216412, Control_c, 0, 67, 70
1, 216427, Control_c, 0, 67, 71
1, 216442, Control_c, 0, 64, 88
1, 216457, Control_c, 0, 64, 87
1, 216472, Control_c, 0, 64, 85
1, 216472, Control_c, 0, 67, 71
1, 216487, Control_c, 0, 64, 82
1, 216487, Control_c, 0, 67, 72
1, 216502, Control_c, 0, 64, 80
1, 216516, Control_c, 0, 64, 77
1, 216516, Control_c, 0, 67, 72
1, 216531, Control_c, 0, 64, 73
1, 216546, Control_c, 0, 64, 69
1, 216561, Control_c, 0, 64, 67
1, 216575, Control_c, 0, 64, 65
1, 216575, Control_c, 0, 67, 73
1, 216582, Note_on_c, 0, 66, 66
1, 216590, Control_c, 0, 64, 64
1, 216590, Control_c, 0, 67, 73
1, 216605, Control_c, 0, 64, 63
1, 216605, Control_c, 0, 67, 74
1, 216613, Note_on_c, 0, 51, 35
1, 216620, Control_c, 0, 64, 60
1, 216620, Control_c, 0, 67, 74
1, 216642, Control_c, 0, 64, 57
1, 216657, Control_c, 0, 64, 54
1, 216657, Control_c, 0, 67, 75
1, 216671, Control_c, 0, 64, 50
1, 216671, Control_c, 0, 67, 75
1, 216686, Control_c, 0, 64, 45
1, 216686, Control_c, 0, 67, 78
1, 216701, Control_c, 0, 64, 37
1, 216701, Control_c, 0, 67, 85
1, 216716, Control_c, 0, 64, 28
1, 216716, Control_c, 0, 67, 92
1, 216731, Control_c, 0, 64, 18
1, 216731, Control_c, 0, 67, 100
1, 216746, Control_c, 0, 64, 0
1, 216746, Control_c, 0, 67, 104
1, 216761, Control_c, 0, 67, 106
1, 216775, Control_c, 0, 67, 109
1, 216790, Control_c, 0, 67, 114
1, 216805, Control_c, 0, 67, 116
1, 216820, Control_c, 0, 67, 118
1, 216835, Control_c, 0, 67, 119
1, 216849, Control_c, 0, 67, 121
1, 216864, Control_c, 0, 67, 122
1, 216879, Control_c, 0, 64, 10
1, 216879, Control_c, 0, 67, 123
1, 216894, Control_c, 0, 64, 25
1, 216894, Control_c, 0, 67, 124
1, 216909, Control_c, 0, 64, 35
1, 216925, Control_c, 0, 64, 45
1, 216925, Control_c, 0, 67, 125
1, 216940, Control_c, 0, 64, 55
1, 216940, Control_c, 0, 67, 125
1, 216954, Control_c, 0, 64, 61
1, 216954, Control_c, 0, 67, 126
1, 216969, Control_c, 0, 64, 63
1, 216969, Control_c, 0, 67, 126
1, 216984, Control_c, 0, 64, 64
1, 216984, Control_c, 0, 67, 127
1, 217013, Control_c, 0, 64, 65
1, 217028, Control_c, 0, 64, 66
1, 217043, Control_c, 0, 64, 67
1, 217044, Note_on_c, 0, 57, 44
1, 217058, Control_c, 0, 64, 69
1, 217072, Control_c, 0, 64, 70
1, 217072, Control_c, 0, 67, 127
1, 217087, Control_c, 0, 64, 71
1, 217102, Control_c, 0, 64, 71
1, 217132, Control_c, 0, 64, 72
1, 217161, Control_c, 0, 64, 72
1, 217207, Note_on_c, 0, 92, 51
1, 217237, Note_off_c, 0, 57, 35
1, 217255, Note_off_c, 0, 92, 64
1, 217264, Note_on_c, 0, 93, 61
1, 217265, Control_c, 0, 64, 72
1, 217270, Note_off_c, 0, 66, 63
1, 217280, Control_c, 0, 64, 68
1, 217294, Control_c, 0, 64, 59
1, 217309, Note_on_c, 0, 81, 46
1, 217309, Control_c, 0, 64, 40
1, 217313, Note_off_c, 0, 93, 54
1, 217324, Control_c, 0, 64, 0
1, 217339, Note_off_c, 0, 81, 52
1, 217360, Note_on_c, 0, 94, 74
1, 217369, Note_on_c, 0, 66, 77
1, 217386, Note_off_c, 0, 94, 66
1, 217413, Note_on_c, 0, 58, 32
1, 217447, Note_off_c, 0, 58, 50
1, 217584, Control_c, 0, 64, 10
1, 217598, Control_c, 0, 64, 23
1, 217613, Control_c, 0, 64, 26
1, 217628, Control_c, 0, 64, 27
1, 217643, Control_c, 0, 64, 33
1, 217658, Control_c, 0, 64, 43
1, 217664, Note_off_c, 0, 51, 41
1, 217672, Control_c, 0, 64, 50
1, 217687, Control_c, 0, 64, 51
1, 217691, Note_on_c, 0, 58, 39
1, 217753, Note_off_c, 0, 58, 57
1, 217762, Control_c, 0, 64, 48
1, 217777, Control_c, 0, 64, 39
1, 217792, Control_c, 0, 64, 14
1, 217807, Control_c, 0, 64, 0
1, 217836, Control_c, 0, 64, 11
1, 217847, Note_on_c, 0, 50, 53
1, 217851, Control_c, 0, 64, 44
1, 217866, Control_c, 0, 64, 61
1, 217881, Control_c, 0, 64, 69
1, 217895, Control_c, 0, 64, 74
1, 217910, Control_c, 0, 64, 77
1, 217912, Note_off_c, 0, 50, 62
1, 217925, Control_c, 0, 64, 79
1, 217940, Control_c, 0, 64, 81
1, 217955, Control_c, 0, 64, 83
1, 217969, Control_c, 0, 64, 85
1, 217984, Control_c, 0, 64, 87
1, 217999, Control_c, 0, 64, 88
1, 218013, Control_c, 0, 64, 88
1, 218016, Note_off_c, 0, 66, 62
1, 218028, Control_c, 0, 64, 89
1, 218043, Control_c, 0, 64, 89
1, 218058, Control_c, 0, 64, 91
1, 218073, Control_c, 0, 64, 92
1, 218087, Control_c, 0, 64, 96
1, 218102, Control_c, 0, 64, 99
1, 218103, Note_on_c, 0, 69, 73
1, 218117, Control_c, 0, 64, 101
1, 218154, Control_c, 0, 64, 100
1, 218169, Control_c, 0, 64, 92
1, 218184, Control_c, 0, 64, 83
1, 218199, Control_c, 0, 64, 78
1, 218214, Control_c, 0, 64, 76
1, 218228, Control_c, 0, 64, 77
1, 218243, Control_c, 0, 64, 80
1, 218258, Control_c, 0, 64, 85
1, 218273, Control_c, 0, 64, 89
1, 218288, Control_c, 0, 64, 90
1, 218302, Control_c, 0, 64, 91
1, 218332, Control_c, 0, 64, 91
1, 218377, Control_c, 0, 64, 92
1, 218401, Note_on_c, 0, 67, 74
1, 218439, Note_on_c, 0, 58, 53
1, 218452, Note_off_c, 0, 69, 63
1, 218502, Note_off_c, 0, 58, 50
1, 218538, Note_on_c, 0, 93, 64
1, 218570, Note_off_c, 0, 93, 64
1, 218572, Note_on_c, 0, 94, 70
1, 218616, Note_on_c, 0, 82, 73
1, 218644, Control_c, 0, 64, 87
1, 218646, Note_off_c, 0, 82, 64
1, 218659, Control_c, 0, 64, 77
1, 218672, Note_on_c, 0, 95, 81
1, 218674, Control_c, 0, 64, 68
1, 218687, Note_off_c, 0, 94, 61
1, 218689, Control_c, 0, 64, 60
1, 218697, Note_on_c, 0, 66, 80
1, 218698, Note_off_c, 0, 95, 67
1, 218704, Control_c, 0, 64, 52
1, 218718, Control_c, 0, 64, 45
1, 218731, Note_off_c, 0, 67, 63
1, 218733, Control_c, 0, 64, 40
1, 218748, Control_c, 0, 64, 36
1, 218758, Note_on_c, 0, 59, 33
1, 218762, Control_c, 0, 64, 28
1, 218777, Control_c, 0, 64, 25
1, 218792, Control_c, 0, 64, 30
1, 218797, Note_off_c, 0, 59, 51
1, 218807, Control_c, 0, 64, 44
1, 218822, Control_c, 0, 64, 58
1, 218836, Control_c, 0, 64, 67
1, 218851, Control_c, 0, 64, 73
1, 218866, Control_c, 0, 64, 75
1, 218881, Control_c, 0, 64, 76
1, 218904, Control_c, 0, 64, 77
1, 218918, Control_c, 0, 64, 78
1, 218933, Control_c, 0, 64, 79
1, 218977, Control_c, 0, 64, 78
1, 218992, Control_c, 0, 64, 74
1, 219000, Note_on_c, 0, 64, 80
1, 219007, Control_c, 0, 64, 68
1, 219022, Control_c, 0, 64, 61
1, 219037, Control_c, 0, 64, 53
1, 219045, Note_on_c, 0, 59, 41
1, 219051, Control_c, 0, 64, 44
1, 219066, Control_c, 0, 64, 25
1, 219069, Note_off_c, 0, 66, 61
1, 219081, Control_c, 0, 64, 0
1, 219140, Control_c, 0, 64, 33
1, 219155, Control_c, 0, 64, 59
1, 219160, Note_off_c, 0, 59, 64
1, 219169, Control_c, 0, 64, 69
1, 219184, Control_c, 0, 64, 74
1, 219199, Control_c, 0, 64, 77
1, 219214, Control_c, 0, 64, 79
1, 219229, Control_c, 0, 64, 81
1, 219244, Control_c, 0, 64, 83
1, 219259, Control_c, 0, 64, 84
1, 219274, Control_c, 0, 64, 85
1, 219299, Note_off_c, 0, 64, 61
1, 219333, Control_c, 0, 64, 85
1, 219384, Note_on_c, 0, 64, 72
1, 219423, Control_c, 0, 64, 85
1, 219453, Control_c, 0, 64, 79
1, 219467, Control_c, 0, 64, 69
1, 219482, Control_c, 0, 64, 59
1, 219497, Control_c, 0, 64, 45
1, 219512, Control_c, 0, 64, 29
1, 219527, Control_c, 0, 64, 21
1, 219541, Control_c, 0, 64, 19
1, 219571, Control_c, 0, 64, 25
1, 219585, Control_c, 0, 64, 35
1, 219600, Control_c, 0, 64, 44
1, 219615, Control_c, 0, 64, 51
1, 219630, Control_c, 0, 64, 58
1, 219652, Control_c, 0, 64, 63
1, 219667, Control_c, 0, 64, 68
1, 219673, Note_on_c, 0, 59, 60
1, 219682, Control_c, 0, 64, 71
1, 219697, Control_c, 0, 64, 74
1, 219712, Control_c, 0, 64, 77
1, 219727, Control_c, 0, 64, 78
1, 219741, Control_c, 0, 64, 80
1, 219756, Control_c, 0, 64, 82
1, 219771, Control_c, 0, 64, 85
1, 219786, Control_c, 0, 64, 86
1, 219800, Control_c, 0, 64, 88
1, 219815, Control_c, 0, 64, 88
1, 219817, Note_on_c, 0, 94, 57
1, 219830, Control_c, 0, 64, 89
1, 219860, Control_c, 0, 64, 90
1, 219870, Note_on_c, 0, 95, 60
1, 219874, Control_c, 0, 64, 90
1, 219877, Note_off_c, 0, 64, 62
1, 219886, Note_off_c, 0, 94, 49
1, 219906, Note_off_c, 0, 59, 44
1, 219908, Note_on_c, 0, 83, 59
1, 219948, Control_c, 0, 64, 90
1, 219950, Note_off_c, 0, 83, 64
1, 219963, Control_c, 0, 64, 86
1, 219967, Note_on_c, 0, 96, 70
1, 219974, Note_off_c, 0, 95, 55
1, 219978, Control_c, 0, 64, 80
1, 219986, Note_on_c, 0, 64, 72
1, 219992, Control_c, 0, 64, 73
1, 220001, Note_off_c, 0, 96, 62
1, 220007, Control_c, 0, 64, 66
1, 220010, Note_on_c, 0, 60, 51
1, 220022, Control_c, 0, 64, 61
1, 220037, Control_c, 0, 64, 55
1, 220052, Control_c, 0, 64, 52
1, 220067, Control_c, 0, 64, 47
1, 220067, Note_off_c, 0, 60, 59
1, 220082, Control_c, 0, 64, 42
1, 220096, Control_c, 0, 64, 39
1, 220112, Control_c, 0, 64, 39
1, 220171, Control_c, 0, 64, 38
1, 220186, Control_c, 0, 64, 37
1, 220201, Control_c, 0, 64, 36
1, 220216, Control_c, 0, 64, 35
1, 220231, Control_c, 0, 64, 33
1, 220246, Control_c, 0, 64, 30
1, 220260, Control_c, 0, 64, 23
1, 220275, Control_c, 0, 64, 18
1, 220290, Control_c, 0, 64, 15
1, 220293, Note_on_c, 0, 60, 49
1, 220305, Control_c, 0, 64, 14
1, 220335, Control_c, 0, 64, 16
1, 220336, Note_off_c, 0, 60, 61
1, 220350, Control_c, 0, 64, 26
1, 220365, Control_c, 0, 64, 42
1, 220380, Control_c, 0, 64, 55
1, 220402, Control_c, 0, 64, 63
1, 220416, Control_c, 0, 64, 65
1, 220431, Control_c, 0, 64, 66
1, 220476, Control_c, 0, 64, 66
1, 220589, Note_on_c, 0, 66, 63
1, 220639, Control_c, 0, 64, 65
1, 220654, Control_c, 0, 64, 64
1, 220669, Control_c, 0, 64, 61
1, 220684, Note_off_c, 0, 64, 62
1, 220684, Control_c, 0, 64, 56
1, 220698, Control_c, 0, 64, 50
1, 220713, Control_c, 0, 64, 44
1, 220728, Control_c, 0, 64, 38
1, 220742, Control_c, 0, 64, 35
1, 220846, Control_c, 0, 64, 36
1, 220861, Control_c, 0, 64, 38
1, 220873, Note_on_c, 0, 67, 65
1, 220876, Control_c, 0, 64, 43
1, 220890, Control_c, 0, 64, 49
1, 220894, Note_on_c, 0, 60, 44
1, 220905, Control_c, 0, 64, 55
1, 220921, Control_c, 0, 64, 60
1, 220931, Note_off_c, 0, 66, 59
1, 220936, Control_c, 0, 64, 63
1, 220951, Control_c, 0, 64, 64
1, 220966, Control_c, 0, 64, 65
1, 220967, Note_on_c, 0, 95, 57
1, 220981, Control_c, 0, 64, 66
1, 220995, Control_c, 0, 64, 67
1, 221022, Note_off_c, 0, 95, 61
1, 221030, Note_on_c, 0, 96, 59
1, 221034, Note_off_c, 0, 60, 57
1, 221084, Control_c, 0, 64, 66
1, 221089, Note_on_c, 0, 84, 51
1, 221099, Control_c, 0, 64, 66
1, 221103, Note_off_c, 0, 96, 55
1, 221113, Control_c, 0, 64, 65
1, 221114, Note_off_c, 0, 84, 55
1, 221128, Control_c, 0, 64, 63
1, 221150, Control_c, 0, 64, 60
1, 221164, Control_c, 0, 64, 55
1, 221170, Note_on_c, 0, 97, 55
1, 221175, Note_on_c, 0, 66, 61
1, 221179, Control_c, 0, 64, 45
1, 221191, Note_on_c, 0, 61, 51
1, 221194, Control_c, 0, 64, 37
1, 221198, Note_off_c, 0, 97, 65
1, 221209, Control_c, 0, 64, 31
1, 221217, Note_off_c, 0, 67, 59
1, 221224, Control_c, 0, 64, 30
1, 221235, Note_off_c, 0, 61, 66
1, 221238, Control_c, 0, 64, 31
1, 221253, Control_c, 0, 64, 38
1, 221268, Control_c, 0, 64, 51
1, 221283, Control_c, 0, 64, 60
1, 221298, Control_c, 0, 64, 65
1, 221313, Control_c, 0, 64, 67
1, 221387, Control_c, 0, 64, 66
1, 221402, Control_c, 0, 64, 64
1, 221417, Control_c, 0, 64, 60
1, 221432, Control_c, 0, 64, 52
1, 221446, Control_c, 0, 64, 41
1, 221461, Control_c, 0, 64, 22
1, 221476, Control_c, 0, 64, 0
1, 221486, Note_on_c, 0, 61, 52
1, 221520, Control_c, 0, 64, 27
1, 221535, Control_c, 0, 64, 50
1, 221550, Control_c, 0, 64, 65
1, 221564, Control_c, 0, 64, 74
1, 221579, Control_c, 0, 64, 80
1, 221594, Control_c, 0, 64, 83
1, 221609, Control_c, 0, 64, 85
1, 221623, Note_off_c, 0, 66, 61
1, 221624, Control_c, 0, 64, 87
1, 221638, Control_c, 0, 64, 89
1, 221653, Control_c, 0, 64, 91
1, 221665, Note_off_c, 0, 61, 40
1, 221668, Control_c, 0, 64, 91
1, 221758, Control_c, 0, 64, 92
1, 221784, Note_on_c, 0, 95, 57
1, 221802, Note_on_c, 0, 66, 74
1, 221802, Control_c, 0, 64, 90
1, 221817, Control_c, 0, 64, 81
1, 221832, Control_c, 0, 64, 69
1, 221834, Note_on_c, 0, 51, 50
1, 221847, Control_c, 0, 64, 60
1, 221861, Control_c, 0, 64, 51
1, 221876, Control_c, 0, 64, 49
1, 221899, Control_c, 0, 64, 55
1, 221912, Note_on_c, 0, 96, 59
1, 221914, Control_c, 0, 64, 63
1, 221924, Note_off_c, 0, 95, 61
1, 221929, Control_c, 0, 64, 70
1, 221943, Control_c, 0, 64, 78
1, 221951, Note_off_c, 0, 96, 61
1, 221958, Control_c, 0, 64, 85
1, 221973, Control_c, 0, 64, 87
1, 221996, Note_on_c, 0, 84, 51
1, 222002, Control_c, 0, 64, 87
1, 222010, Note_off_c, 0, 66, 64
1, 222018, Note_off_c, 0, 84, 62
1, 222032, Control_c, 0, 64, 88
1, 222091, Note_on_c, 0, 84, 53
1, 222091, Control_c, 0, 64, 87
1, 222098, Note_on_c, 0, 67, 78
1, 222102, Note_on_c, 0, 60, 59
1, 222106, Control_c, 0, 64, 81
1, 222113, Note_off_c, 0, 84, 64
1, 222121, Control_c, 0, 64, 70
1, 222135, Control_c, 0, 64, 62
1, 222150, Control_c, 0, 64, 53
1, 222165, Control_c, 0, 64, 50
1, 222179, Note_on_c, 0, 83, 57
1, 222180, Control_c, 0, 64, 55
1, 222195, Control_c, 0, 64, 62
1, 222210, Control_c, 0, 64, 68
1, 222224, Note_off_c, 0, 83, 51
1, 222225, Control_c, 0, 64, 75
1, 222240, Control_c, 0, 64, 83
1, 222255, Control_c, 0, 64, 86
1, 222262, Note_on_c, 0, 94, 59
1, 222269, Control_c, 0, 64, 87
1, 222274, Note_off_c, 0, 67, 62
1, 222284, Control_c, 0, 64, 88
1, 222299, Control_c, 0, 64, 88
1, 222305, Note_off_c, 0, 94, 57
1, 222314, Control_c, 0, 64, 89
1, 222323, Note_on_c, 0, 95, 72
1, 222343, Control_c, 0, 64, 89
1, 222378, Note_off_c, 0, 95, 66
1, 222381, Note_on_c, 0, 66, 90
1, 222387, Control_c, 0, 64, 88
1, 222402, Control_c, 0, 64, 79
1, 222410, Note_on_c, 0, 83, 69
1, 222417, Control_c, 0, 64, 68
1, 222432, Control_c, 0, 64, 58
1, 222436, Note_off_c, 0, 51, 59
1, 222447, Control_c, 0, 64, 48
1, 222461, Control_c, 0, 64, 44
1, 222476, Control_c, 0, 64, 48
1, 222487, Note_off_c, 0, 60, 60
1, 222491, Control_c, 0, 64, 57
1, 222507, Control_c, 0, 64, 65
1, 222522, Control_c, 0, 64, 73
1, 222537, Control_c, 0, 64, 81
1, 222552, Control_c, 0, 64, 88
1, 222566, Control_c, 0, 64, 90
1, 222581, Control_c, 0, 64, 91
1, 222596, Control_c, 0, 64, 93
1, 222610, Control_c, 0, 64, 96
1, 222625, Control_c, 0, 64, 98
1, 222648, Control_c, 0, 64, 99
1, 222663, Control_c, 0, 64, 97
1, 222676, Note_on_c, 0, 59, 69
1, 222678, Control_c, 0, 64, 83
1, 222692, Control_c, 0, 64, 69
1, 222707, Control_c, 0, 64, 60
1, 222722, Control_c, 0, 64, 54
1, 222737, Control_c, 0, 64, 57
1, 222752, Control_c, 0, 64, 63
1, 222761, Note_off_c, 0, 83, 54
1, 222766, Control_c, 0, 64, 71
1, 222781, Control_c, 0, 64, 84
1, 222796, Control_c, 0, 64, 95
1, 222810, Control_c, 0, 64, 97
1, 222825, Note_off_c, 0, 66, 62
1, 222825, Control_c, 0, 64, 98
1, 222840, Control_c, 0, 64, 98
1, 222855, Control_c, 0, 64, 99
1, 222870, Control_c, 0, 67, 126
1, 222884, Control_c, 0, 67, 124
1, 222899, Control_c, 0, 67, 121
1, 222914, Control_c, 0, 67, 119
1, 222929, Control_c, 0, 67, 116
1, 222944, Control_c, 0, 67, 114
1, 222949, Note_on_c, 0, 81, 51
1, 222958, Control_c, 0, 67, 113
1, 222968, Note_on_c, 0, 71, 82
1, 222973, Control_c, 0, 64, 93
1, 222973, Control_c, 0, 67, 111
1, 222988, Control_c, 0, 64, 79
1, 222988, Control_c, 0, 67, 109
1, 223003, Control_c, 0, 64, 67
1, 223003, Control_c, 0, 67, 109
1, 223018, Control_c, 0, 64, 57
1, 223018, Control_c, 0, 67, 108
1, 223033, Control_c, 0, 64, 49
1, 223033, Control_c, 0, 67, 107
1, 223040, Note_off_c, 0, 81, 62
1, 223048, Control_c, 0, 64, 50
1, 223048, Control_c, 0, 67, 106
1, 223062, Note_on_c, 0, 82, 45
1, 223062, Control_c, 0, 64, 56
1, 223077, Control_c, 0, 64, 65
1, 223092, Control_c, 0, 64, 73
1, 223107, Control_c, 0, 64, 86
1, 223110, Note_off_c, 0, 82, 45
1, 223122, Control_c, 0, 64, 98
1, 223136, Control_c, 0, 64, 100
1, 223136, Control_c, 0, 67, 106
1, 223137, Note_on_c, 0, 70, 54
1, 223151, Control_c, 0, 67, 107
1, 223158, Note_off_c, 0, 70, 62
1, 223166, Control_c, 0, 64, 101
1, 223181, Control_c, 0, 64, 102
1, 223181, Control_c, 0, 67, 108
1, 223196, Control_c, 0, 67, 108
1, 223221, Note_on_c, 0, 82, 69
1, 223225, Control_c, 0, 64, 101
1, 223225, Control_c, 0, 67, 109
1, 223240, Control_c, 0, 67, 110
1, 223253, Note_off_c, 0, 82, 65
1, 223255, Note_on_c, 0, 66, 83
1, 223255, Control_c, 0, 64, 98
1, 223270, Control_c, 0, 64, 90
1, 223284, Control_c, 0, 64, 75
1, 223290, Note_on_c, 0, 58, 60
1, 223299, Control_c, 0, 64, 64
1, 223299, Control_c, 0, 67, 109
1, 223306, Note_off_c, 0, 59, 63
1, 223315, Control_c, 0, 64, 50
1, 223315, Control_c, 0, 67, 109
1, 223324, Note_on_c, 0, 81, 51
1, 223330, Control_c, 0, 64, 38
1, 223345, Control_c, 0, 64, 35
1, 223345, Control_c, 0, 67, 108
1, 223360, Control_c, 0, 64, 37
1, 223360, Control_c, 0, 67, 108
1, 223367, Note_off_c, 0, 81, 60
1, 223373, Control_c, 0, 64, 48
1, 223373, Control_c, 0, 67, 107
1, 223395, Control_c, 0, 64, 60
1, 223410, Control_c, 0, 64, 69
1, 223425, Control_c, 0, 64, 77
1, 223439, Note_on_c, 0, 93, 62
1, 223439, Control_c, 0, 64, 86
1, 223444, Note_off_c, 0, 71, 61
1, 223454, Control_c, 0, 64, 88
1, 223469, Control_c, 0, 64, 89
1, 223508, Note_off_c, 0, 66, 60
1, 223513, Note_off_c, 0, 93, 59
1, 223513, Control_c, 0, 67, 108
1, 223528, Control_c, 0, 67, 109
1, 223542, Note_on_c, 0, 81, 59
1, 223543, Control_c, 0, 64, 88
1, 223543, Control_c, 0, 67, 110
1, 223557, Note_on_c, 0, 71, 76
1, 223557, Control_c, 0, 64, 84
1, 223572, Control_c, 0, 64, 76
1, 223587, Control_c, 0, 64, 64
1, 223602, Control_c, 0, 64, 51
1, 223602, Control_c, 0, 67, 111
1, 223617, Control_c, 0, 64, 37
1, 223617, Control_c, 0, 67, 111
1, 223632, Control_c, 0, 64, 32
1, 223632, Control_c, 0, 67, 112
1, 223647, Control_c, 0, 64, 39
1, 223647, Control_c, 0, 67, 112
1, 223662, Control_c, 0, 64, 52
1, 223677, Control_c, 0, 64, 66
1, 223677, Control_c, 0, 67, 113
1, 223691, Control_c, 0, 64, 75
1, 223706, Control_c, 0, 64, 87
1, 223706, Control_c, 0, 67, 113
1, 223721, Control_c, 0, 64, 98
1, 223721, Control_c, 0, 67, 114
1, 223736, Control_c, 0, 64, 101
1, 223736, Control_c, 0, 67, 115
1, 223751, Control_c, 0, 64, 105
1, 223751, Control_c, 0, 67, 117
1, 223765, Control_c, 0, 64, 112
1, 223765, Control_c, 0, 67, 118
1, 223780, Control_c, 0, 64, 127
1, 223780, Control_c, 0, 67, 121
1, 223795, Control_c, 0, 67, 123
1, 223805, Note_off_c, 0, 58, 62
1, 223810, Control_c, 0, 67, 125
1, 223825, Control_c, 0, 64, 109
1, 223825, Control_c, 0, 67, 126
1, 223839, Control_c, 0, 64, 87
1, 223839, Control_c, 0, 67, 126
1, 223843, Note_off_c, 0, 81, 45
1, 223846, Note_on_c, 0, 66, 73
1, 223854, Control_c, 0, 64, 71
1, 223856, Note_on_c, 0, 57, 49
1, 223869, Control_c, 0, 64, 60
1, 223884, Control_c, 0, 64, 50
1, 223899, Control_c, 0, 64, 51
1, 223913, Control_c, 0, 64, 58
1, 223913, Control_c, 0, 67, 126
1, 223928, Control_c, 0, 64, 66
1, 223943, Control_c, 0, 64, 74
1, 223954, Note_off_c, 0, 71, 59
1, 223957, Control_c, 0, 64, 89
1, 223957, Control_c, 0, 67, 126
1, 223972, Control_c, 0, 64, 111
1, 223972, Control_c, 0, 67, 127
1, 223987, Control_c, 0, 64, 118
1, 224002, Control_c, 0, 64, 124
1, 224017, Control_c, 0, 64, 127
1, 224091, Control_c, 0, 67, 127
1, 224092, Note_off_c, 0, 66, 62
1, 224140, Note_on_c, 0, 91, 59
1, 224146, Note_on_c, 0, 71, 64
1, 224159, Control_c, 0, 64, 118
1, 224168, Note_on_c, 0, 59, 43
1, 224173, Note_off_c, 0, 57, 63
1, 224174, Control_c, 0, 64, 93
1, 224189, Control_c, 0, 64, 74
1, 224204, Control_c, 0, 64, 64
1, 224219, Control_c, 0, 64, 57
1, 224234, Control_c, 0, 64, 58
1, 224240, Note_on_c, 0, 92, 53
1, 224249, Control_c, 0, 64, 63
1, 224263, Note_off_c, 0, 91, 64
1, 224263, Control_c, 0, 64, 68
1, 224278, Control_c, 0, 64, 75
1, 224282, Note_off_c, 0, 92, 60
1, 224293, Control_c, 0, 64, 86
1, 224308, Control_c, 0, 64, 91
1, 224312, Note_on_c, 0, 80, 57
1, 224323, Control_c, 0, 64, 92
1, 224337, Control_c, 0, 64, 93
1, 224345, Note_off_c, 0, 80, 64
1, 224352, Control_c, 0, 64, 94
1, 224367, Control_c, 0, 64, 94
1, 224396, Control_c, 0, 64, 95
1, 224451, Note_on_c, 0, 66, 61
1, 224455, Note_on_c, 0, 56, 54
1, 224455, Control_c, 0, 64, 89
1, 224459, Note_off_c, 0, 59, 54
1, 224470, Control_c, 0, 64, 78
1, 224485, Control_c, 0, 64, 67
1, 224487, Poly_aftertouch_c, 0, 79, 127
1, 224500, Control_c, 0, 64, 60
1, 224500, Control_c, 0, 67, 126
1, 224515, Control_c, 0, 64, 57
1, 224515, Control_c, 0, 67, 125
1, 224529, Control_c, 0, 64, 60
1, 224529, Control_c, 0, 67, 124
1, 224544, Control_c, 0, 64, 65
1, 224544, Control_c, 0, 67, 123
1, 224559, Control_c, 0, 64, 72
1, 224559, Control_c, 0, 67, 122
1, 224574, Control_c, 0, 64, 81
1, 224574, Control_c, 0, 67, 121
1, 224589, Control_c, 0, 64, 92
1, 224589, Control_c, 0, 67, 120
1, 224598, Note_on_c, 0, 90, 58
1, 224601, Poly_aftertouch_c, 0, 79, 0
1, 224604, Control_c, 0, 64, 94
1, 224604, Control_c, 0, 67, 120
1, 224619, Control_c, 0, 67, 119
1, 224631, Note_off_c, 0, 71, 54
1, 224633, Control_c, 0, 67, 119
1, 224645, Note_off_c, 0, 90, 52
1, 224648, Control_c, 0, 67, 118
1, 224663, Control_c, 0, 67, 118
1, 224676, Note_off_c, 0, 56, 34
1, 224681, Note_on_c, 0, 91, 51
1, 224721, Note_off_c, 0, 91, 62
1, 224723, Control_c, 0, 67, 118
1, 224737, Control_c, 0, 64, 93
1, 224739, Note_off_c, 0, 66, 38
1, 224749, Note_on_c, 0, 79, 56
1, 224752, Control_c, 0, 64, 91
1, 224753, Note_on_c, 0, 71, 65
1, 224767, Control_c, 0, 64, 86
1, 224781, Control_c, 0, 64, 77
1, 224796, Control_c, 0, 64, 70
1, 224811, Control_c, 0, 64, 68
1, 224826, Control_c, 0, 64, 70
1, 224841, Control_c, 0, 64, 75
1, 224855, Control_c, 0, 64, 85
1, 224870, Control_c, 0, 64, 99
1, 224893, Control_c, 0, 64, 110
1, 224898, Note_off_c, 0, 71, 36
1, 224908, Control_c, 0, 64, 111
1, 224923, Control_c, 0, 64, 113
1, 224938, Control_c, 0, 64, 117
1, 224952, Control_c, 0, 64, 120
1, 224952, Control_c, 0, 67, 118
1, 224967, Control_c, 0, 64, 127
1, 225027, Control_c, 0, 64, 109
1, 225042, Control_c, 0, 64, 89
1, 225042, Control_c, 0, 67, 117
1, 225057, Control_c, 0, 64, 75
1, 225057, Control_c, 0, 67, 116
1, 225061, Note_on_c, 0, 66, 65
1, 225072, Control_c, 0, 64, 66
1, 225072, Control_c, 0, 67, 115
1, 225081, Note_on_c, 0, 55, 44
1, 225086, Note_off_c, 0, 79, 34
1, 225086, Control_c, 0, 64, 62
1, 225086, Control_c, 0, 67, 114
1, 225101, Control_c, 0, 64, 64
1, 225101, Control_c, 0, 67, 113
1, 225116, Control_c, 0, 64, 70
1, 225116, Control_c, 0, 67, 112
1, 225131, Control_c, 0, 64, 79
1, 225131, Control_c, 0, 67, 111
1, 225146, Control_c, 0, 64, 95
1, 225160, Control_c, 0, 64, 113
1, 225175, Control_c, 0, 64, 124
1, 225190, Control_c, 0, 64, 127
1, 225199, Note_off_c, 0, 66, 64
1, 225219, Control_c, 0, 67, 111
1, 225249, Control_c, 0, 67, 112
1, 225264, Control_c, 0, 67, 112
1, 225278, Control_c, 0, 67, 113
1, 225293, Note_off_c, 0, 55, 53
1, 225293, Control_c, 0, 67, 114
1, 225337, Control_c, 0, 67, 114
1, 225352, Control_c, 0, 67, 115
1, 225367, Control_c, 0, 67, 115
1, 225382, Control_c, 0, 67, 116
1, 225418, Note_on_c, 0, 89, 58
1, 225435, Note_on_c, 0, 59, 78
1, 225441, Control_c, 0, 67, 116
1, 225462, Note_on_c, 0, 50, 48
1, 225471, Control_c, 0, 67, 117
1, 225486, Control_c, 0, 64, 120
1, 225501, Control_c, 0, 64, 109
1, 225501, Control_c, 0, 67, 117
1, 225516, Control_c, 0, 64, 96
1, 225516, Control_c, 0, 67, 118
1, 225530, Control_c, 0, 64, 81
1, 225545, Control_c, 0, 64, 68
1, 225552, Note_on_c, 0, 90, 57
1, 225560, Control_c, 0, 64, 57
1, 225572, Note_off_c, 0, 89, 55
1, 225575, Control_c, 0, 64, 45
1, 225590, Control_c, 0, 64, 39
1, 225604, Control_c, 0, 64, 39
1, 225604, Control_c, 0, 67, 117
1, 225619, Control_c, 0, 64, 45
1, 225640, Note_off_c, 0, 90, 63
1, 225641, Control_c, 0, 64, 55
1, 225656, Control_c, 0, 64, 65
1, 225670, Note_on_c, 0, 78, 51
1, 225671, Control_c, 0, 64, 72
1, 225686, Control_c, 0, 64, 82
1, 225686, Control_c, 0, 67, 118
1, 225701, Control_c, 0, 64, 93
1, 225704, Note_off_c, 0, 78, 56
1, 225716, Control_c, 0, 64, 96
1, 225731, Control_c, 0, 64, 98
1, 225746, Control_c, 0, 64, 102
1, 225761, Control_c, 0, 64, 111
1, 225761, Control_c, 0, 67, 118
1, 225776, Control_c, 0, 64, 127
1, 225776, Control_c, 0, 67, 119
1, 225788, Note_on_c, 0, 78, 53
1, 225790, Control_c, 0, 67, 119
1, 225805, Control_c, 0, 67, 120
1, 225820, Control_c, 0, 67, 120
1, 225826, Note_on_c, 0, 54, 46
1, 225827, Note_off_c, 0, 78, 61
1, 225879, Control_c, 0, 67, 121
1, 225894, Control_c, 0, 67, 121
1, 225907, Note_on_c, 0, 77, 33
1, 225909, Control_c, 0, 67, 122
1, 225939, Control_c, 0, 67, 122
1, 225941, Note_off_c, 0, 77, 50
1, 225953, Control_c, 0, 67, 123
1, 225983, Control_c, 0, 67, 123
1, 226013, Control_c, 0, 67, 124
1, 226016, Note_on_c, 0, 88, 42
1, 226027, Control_c, 0, 67, 124
1, 226043, Note_off_c, 0, 59, 61
1, 226057, Control_c, 0, 67, 125
1, 226093, Note_on_c, 0, 89, 50
1, 226094, Note_off_c, 0, 88, 40
1, 226118, Note_on_c, 0, 59, 69
1, 226131, Control_c, 0, 64, 110
1, 226142, Note_off_c, 0, 89, 61
1, 226146, Control_c, 0, 64, 86
1, 226160, Control_c, 0, 64, 69
1, 226175, Control_c, 0, 64, 58
1, 226175, Control_c, 0, 67, 124
1, 226188, Note_off_c, 0, 54, 57
1, 226190, Note_on_c, 0, 77, 58
1, 226190, Control_c, 0, 64, 49
1, 226190, Control_c, 0, 67, 123
1, 226205, Control_c, 0, 64, 51
1, 226205, Control_c, 0, 67, 121
1, 226220, Control_c, 0, 64, 59
1, 226220, Control_c, 0, 67, 119
1, 226234, Control_c, 0, 64, 67
1, 226234, Control_c, 0, 67, 117
1, 226249, Control_c, 0, 64, 77
1, 226249, Control_c, 0, 67, 115
1, 226264, Control_c, 0, 64, 98
1, 226264, Control_c, 0, 67, 114
1, 226279, Control_c, 0, 64, 127
1, 226279, Control_c, 0, 67, 112
1, 226294, Control_c, 0, 67, 110
1, 226309, Control_c, 0, 67, 108
1, 226321, Note_off_c, 0, 77, 63
1, 226324, Control_c, 0, 67, 105
1, 226338, Control_c, 0, 67, 102
1, 226353, Control_c, 0, 67, 99
1, 226368, Control_c, 0, 67, 96
1, 226390, Control_c, 0, 67, 92
1, 226405, Control_c, 0, 67, 89
1, 226420, Control_c, 0, 67, 86
1, 226434, Control_c, 0, 67, 82
1, 226447, Note_on_c, 0, 53, 48
1, 226449, Control_c, 0, 67, 76
1, 226464, Control_c, 0, 67, 69
1, 226479, Control_c, 0, 67, 60
1, 226494, Control_c, 0, 67, 54
1, 226510, Control_c, 0, 67, 53
1, 226544, Note_off_c, 0, 50, 62
1, 226569, Control_c, 0, 67, 51
1, 226583, Control_c, 0, 67, 49
1, 226598, Control_c, 0, 67, 42
1, 226613, Control_c, 0, 67, 32
1, 226625, Note_off_c, 0, 53, 53
1, 226628, Control_c, 0, 67, 18
1, 226643, Control_c, 0, 67, 0
1, 226729, Note_off_c, 0, 59, 56
1, 226762, Control_c, 0, 67, 8
1, 226776, Control_c, 0, 67, 11
1, 226791, Control_c, 0, 67, 13
1, 226806, Control_c, 0, 67, 15
1, 226821, Control_c, 0, 67, 18
1, 226821, Note_on_c, 0, 64, 49
1, 226836, Control_c, 0, 67, 20
1, 226850, Control_c, 0, 67, 22
1, 226854, Note_on_c, 0, 59, 64
1, 226865, Control_c, 0, 64, 82
1, 226865, Control_c, 0, 67, 24
1, 226880, Control_c, 0, 64, 65
1, 226880, Control_c, 0, 67, 25
1, 226895, Control_c, 0, 64, 50
1, 226895, Control_c, 0, 67, 29
1, 226896, Note_on_c, 0, 54, 34
1, 226898, Note_on_c, 0, 49, 38
1, 226910, Control_c, 0, 64, 40
1, 226910, Control_c, 0, 67, 33
1, 226924, Control_c, 0, 64, 40
1, 226924, Control_c, 0, 67, 39
1, 226939, Control_c, 0, 64, 44
1, 226939, Control_c, 0, 67, 46
1, 226954, Control_c, 0, 64, 54
1, 226954, Control_c, 0, 67, 50
1, 226969, Control_c, 0, 64, 64
1, 226969, Control_c, 0, 67, 54
1, 226983, Control_c, 0, 64, 74
1, 226983, Control_c, 0, 67, 57
1, 226998, Control_c, 0, 64, 94
1, 226998, Control_c, 0, 67, 59
1, 227013, Control_c, 0, 64, 127
1, 227013, Control_c, 0, 67, 59
1, 227028, Control_c, 0, 67, 60
1, 227066, Note_on_c, 0, 66, 54
1, 227105, Note_off_c, 0, 49, 38
1, 227117, Note_off_c, 0, 54, 53
1, 227148, Note_off_c, 0, 66, 62
1, 227168, Note_off_c, 0, 64, 54
1, 227199, Note_on_c, 0, 76, 63
1, 227257, Control_c, 0, 67, 60
1, 227289, Note_off_c, 0, 76, 60
1, 227310, Note_on_c, 0, 75, 61
1, 227392, Control_c, 0, 67, 61
1, 227401, Note_on_c, 0, 76, 70
1, 227416, Note_off_c, 0, 75, 62
1, 227435, Note_off_c, 0, 76, 61
1, 227504, Note_on_c, 0, 64, 75
1, 227520, Note_off_c, 0, 59, 54
1, 227522, Note_on_c, 0, 76, 40
1, 227525, Control_c, 0, 67, 61
1, 227534, Note_on_c, 0, 77, 52
1, 227549, Note_on_c, 0, 55, 50
1, 227555, Control_c, 0, 64, 94
1, 227570, Control_c, 0, 64, 73
1, 227571, Note_off_c, 0, 77, 48
1, 227585, Control_c, 0, 64, 62
1, 227590, Note_off_c, 0, 76, 48
1, 227599, Control_c, 0, 64, 60
1, 227614, Control_c, 0, 64, 64
1, 227629, Control_c, 0, 64, 73
1, 227644, Control_c, 0, 64, 88
1, 227644, Note_off_c, 0, 55, 59
1, 227646, Note_on_c, 0, 78, 68
1, 227659, Control_c, 0, 64, 127
1, 227659, Control_c, 0, 67, 62
1, 227718, Note_off_c, 0, 78, 62
1, 227718, Control_c, 0, 67, 61
1, 227765, Note_on_c, 0, 88, 69
1, 227843, Note_off_c, 0, 64, 49
1, 227846, Note_off_c, 0, 88, 58
1, 227854, Note_on_c, 0, 87, 70
1, 227878, Note_off_c, 0, 87, 69
1, 227942, Note_on_c, 0, 88, 62
1, 228051, Control_c, 0, 67, 62
1, 228053, Note_on_c, 0, 64, 72
1, 228056, Note_on_c, 0, 90, 76
1, 228062, Note_off_c, 0, 88, 34
1, 228076, Note_on_c, 0, 59, 55
1, 228111, Control_c, 0, 64, 105
1, 228126, Control_c, 0, 64, 84
1, 228141, Control_c, 0, 64, 75
1, 228146, Note_off_c, 0, 90, 66
1, 228156, Control_c, 0, 64, 73
1, 228171, Control_c, 0, 64, 76
1, 228174, Note_on_c, 0, 100, 73
1, 228185, Control_c, 0, 64, 83
1, 228200, Control_c, 0, 64, 95
1, 228200, Control_c, 0, 67, 61
1, 228211, Note_off_c, 0, 100, 63
1, 228215, Control_c, 0, 64, 124
1, 228229, Control_c, 0, 64, 127
1, 228259, Control_c, 0, 67, 61
1, 228273, Note_on_c, 0, 88, 62
1, 228342, Note_on_c, 0, 67, 83
1, 228347, Note_off_c, 0, 88, 59
1, 228353, Note_off_c, 0, 64, 63
1, 228382, Note_on_c, 0, 87, 71
1, 228431, Note_off_c, 0, 59, 65
1, 228447, Note_off_c, 0, 87, 64
1, 228476, Note_on_c, 0, 88, 71
1, 228556, Note_off_c, 0, 88, 64
1, 228597, Note_on_c, 0, 78, 74
1, 228615, Control_c, 0, 64, 83
1, 228618, Note_on_c, 0, 66, 82
1, 228622, Note_off_c, 0, 67, 62
1, 228637, Control_c, 0, 64, 67
1, 228652, Control_c, 0, 64, 57
1, 228667, Control_c, 0, 64, 55
1, 228681, Control_c, 0, 64, 60
1, 228681, Control_c, 0, 67, 60
1, 228689, Note_off_c, 0, 78, 60
1, 228696, Control_c, 0, 64, 67
1, 228696, Control_c, 0, 67, 59
1, 228711, Control_c, 0, 64, 81
1, 228711, Control_c, 0, 67, 58
1, 228720, Note_on_c, 0, 88, 68
1, 228726, Control_c, 0, 64, 127
1, 228726, Control_c, 0, 67, 58
1, 228741, Control_c, 0, 67, 56
1, 228755, Control_c, 0, 67, 55
1, 228770, Control_c, 0, 67, 53
1, 228772, Note_off_c, 0, 88, 67
1, 228785, Control_c, 0, 67, 51
1, 228800, Control_c, 0, 67, 48
1, 228815, Control_c, 0, 67, 45
1, 228829, Control_c, 0, 67, 38
1, 228832, Note_on_c, 0, 76, 69
1, 228832, Note_off_c, 0, 66, 63
1, 228844, Control_c, 0, 67, 25
1, 228859, Control_c, 0, 67, 0
1, 228895, Note_off_c, 0, 76, 61
1, 228935, Note_on_c, 0, 75, 69
1, 228992, Note_off_c, 0, 75, 62
1, 229008, Control_c, 0, 67, 9
1, 229018, Note_on_c, 0, 76, 68
1, 229023, Control_c, 0, 67, 11
1, 229038, Control_c, 0, 67, 13
1, 229052, Control_c, 0, 67, 15
1, 229067, Control_c, 0, 67, 17
1, 229080, Note_on_c, 0, 48, 62
1, 229082, Control_c, 0, 67, 19
1, 229097, Control_c, 0, 67, 20
1, 229112, Control_c, 0, 67, 21
1, 229126, Control_c, 0, 64, 102
1, 229126, Control_c, 0, 67, 22
1, 229141, Control_c, 0, 64, 71
1, 229141, Control_c, 0, 67, 24
1, 229142, Note_off_c, 0, 76, 64
1, 229156, Control_c, 0, 64, 54
1, 229156, Control_c, 0, 67, 27
1, 229157, Note_on_c, 0, 58, 70
1, 229170, Control_c, 0, 64, 39
1, 229170, Control_c, 0, 67, 29
1, 229183, Note_on_c, 0, 66, 74
1, 229185, Control_c, 0, 64, 41
1, 229185, Control_c, 0, 67, 32
1, 229200, Control_c, 0, 64, 53
1, 229200, Control_c, 0, 67, 35
1, 229209, Note_off_c, 0, 48, 62
1, 229215, Control_c, 0, 64, 66
1, 229215, Control_c, 0, 67, 37
1, 229230, Control_c, 0, 64, 79
1, 229230, Control_c, 0, 67, 39
1, 229245, Note_off_c, 0, 66, 63
1, 229245, Control_c, 0, 64, 108
1, 229245, Control_c, 0, 67, 42
1, 229260, Control_c, 0, 64, 127
1, 229260, Control_c, 0, 67, 43
1, 229275, Control_c, 0, 67, 44
1, 229275, Note_on_c, 0, 64, 71
1, 229356, Note_off_c, 0, 64, 55
1, 229377, Note_on_c, 0, 66, 72
1, 229385, Control_c, 0, 67, 44
1, 229414, Note_off_c, 0, 66, 64
1, 229448, Note_on_c, 0, 64, 82
1, 229462, Note_on_c, 0, 76, 65
1, 229504, Control_c, 0, 67, 45
1, 229530, Note_off_c, 0, 64, 63
1, 229536, Note_off_c, 0, 76, 50
1, 229541, Note_on_c, 0, 75, 65
1, 229576, Note_off_c, 0, 75, 67
1, 229627, Note_on_c, 0, 76, 67
1, 229638, Control_c, 0, 67, 45
1, 229667, Control_c, 0, 67, 46
1, 229732, Note_off_c, 0, 76, 50
1, 229757, Control_c, 0, 67, 46
1, 229772, Note_on_c, 0, 66, 71
1, 229787, Control_c, 0, 64, 114
1, 229787, Control_c, 0, 67, 47
1, 229791, Note_on_c, 0, 78, 58
1, 229799, Note_on_c, 0, 49, 66
1, 229801, Control_c, 0, 64, 77
1, 229816, Control_c, 0, 64, 57
1, 229831, Control_c, 0, 64, 36
1, 229846, Control_c, 0, 64, 28
1, 229861, Control_c, 0, 64, 35
1, 229868, Note_off_c, 0, 78, 57
1, 229875, Control_c, 0, 64, 51
1, 229890, Control_c, 0, 64, 65
1, 229890, Control_c, 0, 67, 47
1, 229905, Control_c, 0, 64, 79
1, 229905, Control_c, 0, 67, 48
1, 229911, Note_on_c, 0, 76, 63
1, 229913, Note_off_c, 0, 49, 64
1, 229920, Control_c, 0, 64, 107
1, 229920, Control_c, 0, 67, 50
1, 229935, Control_c, 0, 64, 127
1, 229935, Control_c, 0, 67, 51
1, 229977, Note_off_c, 0, 66, 63
1, 229993, Control_c, 0, 67, 51
1, 230004, Note_on_c, 0, 78, 64
1, 230007, Note_off_c, 0, 76, 44
1, 230038, Control_c, 0, 67, 51
1, 230054, Note_on_c, 0, 67, 79
1, 230075, Note_off_c, 0, 78, 61
1, 230100, Note_on_c, 0, 88, 61
1, 230142, Note_off_c, 0, 67, 63
1, 230153, Note_off_c, 0, 88, 58
1, 230168, Note_on_c, 0, 87, 65
1, 230197, Note_off_c, 0, 87, 68
1, 230246, Note_on_c, 0, 88, 67
1, 230297, Control_c, 0, 67, 52
1, 230324, Note_off_c, 0, 88, 62
1, 230379, Note_on_c, 0, 100, 62
1, 230398, Note_on_c, 0, 64, 54
1, 230414, Note_on_c, 0, 54, 60
1, 230431, Control_c, 0, 64, 114
1, 230431, Note_off_c, 0, 100, 63
1, 230446, Control_c, 0, 64, 94
1, 230461, Control_c, 0, 64, 81
1, 230475, Control_c, 0, 64, 71
1, 230490, Control_c, 0, 64, 63
1, 230490, Control_c, 0, 67, 52
1, 230506, Control_c, 0, 64, 54
1, 230521, Control_c, 0, 64, 43
1, 230536, Control_c, 0, 64, 34
1, 230551, Control_c, 0, 64, 23
1, 230565, Control_c, 0, 64, 0
1, 230723, Note_on_c, 0, 76, 65
1, 230760, Note_off_c, 0, 76, 62
1, 230787, Control_c, 0, 67, 52
1, 230929, Control_c, 0, 67, 51
1, 231003, Control_c, 0, 67, 51
1, 231018, Control_c, 0, 67, 50
1, 231060, Note_on_c, 0, 76, 47
1, 231062, Control_c, 0, 67, 50
1, 231106, Control_c, 0, 67, 49
1, 231129, Note_off_c, 0, 76, 56
1, 231150, Control_c, 0, 67, 49
1, 231168, Note_on_c, 0, 67, 49
1, 231195, Control_c, 0, 67, 48
1, 231208, Note_on_c, 0, 51, 26
1, 231214, Note_off_c, 0, 64, 45
1, 231224, Control_c, 0, 67, 48
1, 231239, Control_c, 0, 67, 47
1, 231254, Control_c, 0, 67, 47
1, 231258, Note_off_c, 0, 54, 40
1, 231269, Control_c, 0, 67, 46
1, 231284, Control_c, 0, 67, 45
1, 231300, Control_c, 0, 67, 44
1, 231315, Control_c, 0, 67, 43
1, 231329, Control_c, 0, 67, 42
1, 231344, Control_c, 0, 67, 41
1, 231359, Control_c, 0, 64, 37
1, 231359, Control_c, 0, 67, 40
1, 231373, Control_c, 0, 64, 52
1, 231373, Control_c, 0, 67, 39
1, 231388, Control_c, 0, 64, 58
1, 231388, Control_c, 0, 67, 38
1, 231403, Control_c, 0, 64, 60
1, 231403, Control_c, 0, 67, 37
1, 231418, Control_c, 0, 64, 63
1, 231418, Control_c, 0, 67, 36
1, 231433, Control_c, 0, 64, 68
1, 231433, Control_c, 0, 67, 33
1, 231448, Control_c, 0, 64, 74
1, 231448, Control_c, 0, 67, 29
1, 231463, Control_c, 0, 64, 81
1, 231463, Control_c, 0, 67, 25
1, 231478, Control_c, 0, 64, 86
1, 231478, Control_c, 0, 67, 18
1, 231492, Note_off_c, 0, 67, 62
1, 231492, Control_c, 0, 64, 87
1, 231492, Control_c, 0, 67, 10
1, 231507, Control_c, 0, 64, 90
1, 231507, Control_c, 0, 67, 0
1, 231522, Control_c, 0, 64, 96
1, 231537, Control_c, 0, 64, 103
1, 231546, Note_off_c, 0, 51, 55
1, 231552, Control_c, 0, 64, 113
1, 231558, Note_off_c, 0, 58, 51
1, 231566, Control_c, 0, 64, 127
1, 231707, Control_c, 0, 67, 9
1, 231722, Control_c, 0, 67, 11
1, 231736, Control_c, 0, 67, 14
1, 231751, Control_c, 0, 67, 17
1, 231766, Control_c, 0, 67, 20
1, 231780, Control_c, 0, 67, 23
1, 231795, Control_c, 0, 67, 26
1, 231810, Control_c, 0, 67, 28
1, 231825, Control_c, 0, 67, 30
1, 231840, Control_c, 0, 67, 32
1, 231854, Control_c, 0, 67, 34
1, 231869, Control_c, 0, 67, 35
1, 231884, Control_c, 0, 67, 36
1, 231899, Control_c, 0, 67, 37
1, 231914, Control_c, 0, 64, 120
1, 231914, Control_c, 0, 67, 37
1, 231928, Control_c, 0, 64, 116
1, 231943, Control_c, 0, 64, 113
1, 231943, Control_c, 0, 67, 38
1, 231958, Control_c, 0, 64, 110
1, 231972, Control_c, 0, 64, 105
1, 231987, Control_c, 0, 64, 100
1, 232002, Control_c, 0, 64, 94
1, 232017, Control_c, 0, 64, 87
1, 232032, Control_c, 0, 64, 80
1, 232047, Control_c, 0, 64, 75
1, 232062, Note_on_c, 0, 76, 64
1, 232062, Control_c, 0, 64, 69
1, 232077, Control_c, 0, 64, 65
1, 232092, Control_c, 0, 64, 61
1, 232107, Control_c, 0, 64, 57
1, 232113, Note_on_c, 0, 71, 32
1, 232121, Note_on_c, 0, 64, 32
1, 232122, Control_c, 0, 64, 53
1, 232137, Control_c, 0, 64, 49
1, 232151, Control_c, 0, 64, 42
1, 232151, Control_c, 0, 67, 38
1, 232166, Control_c, 0, 64, 33
1, 232181, Control_c, 0, 64, 19
1, 232196, Control_c, 0, 64, 0
1, 232211, Control_c, 0, 67, 39
1, 232241, Control_c, 0, 67, 40
1, 232256, Control_c, 0, 67, 44
1, 232270, Control_c, 0, 67, 48
1, 232285, Control_c, 0, 67, 51
1, 232300, Control_c, 0, 64, 22
1, 232300, Control_c, 0, 67, 53
1, 232315, Control_c, 0, 64, 46
1, 232315, Control_c, 0, 67, 56
1, 232330, Control_c, 0, 64, 62
1, 232330, Control_c, 0, 67, 59
1, 232344, Control_c, 0, 64, 67
1, 232344, Control_c, 0, 67, 62
1, 232359, Control_c, 0, 64, 69
1, 232359, Control_c, 0, 67, 64
1, 232381, Control_c, 0, 64, 71
1, 232396, Control_c, 0, 64, 74
1, 232411, Control_c, 0, 64, 78
1, 232426, Control_c, 0, 64, 83
1, 232439, Note_off_c, 0, 76, 61
1, 232440, Control_c, 0, 64, 87
1, 232455, Control_c, 0, 64, 89
1, 232470, Control_c, 0, 64, 91
1, 232485, Control_c, 0, 64, 92
1, 232552, Note_off_c, 0, 64, 43
1, 232663, Control_c, 0, 67, 64
1, 232677, Control_c, 0, 64, 91
1, 232692, Control_c, 0, 64, 89
1, 232697, Note_on_c, 0, 76, 79
1, 232707, Control_c, 0, 64, 87
1, 232721, Control_c, 0, 64, 83
1, 232726, Note_on_c, 0, 63, 46
1, 232736, Control_c, 0, 64, 78
1, 232736, Control_c, 0, 67, 65
1, 232751, Control_c, 0, 64, 72
1, 232766, Control_c, 0, 64, 66
1, 232781, Control_c, 0, 64, 60
1, 232781, Control_c, 0, 67, 65
1, 232795, Control_c, 0, 64, 52
1, 232810, Control_c, 0, 64, 42
1, 232825, Control_c, 0, 64, 27
1, 232840, Control_c, 0, 64, 12
1, 232855, Control_c, 0, 64, 0
1, 232855, Control_c, 0, 67, 65
1, 232885, Control_c, 0, 64, 23
1, 232900, Control_c, 0, 64, 45
1, 232915, Control_c, 0, 64, 61
1, 232930, Control_c, 0, 64, 73
1, 232945, Control_c, 0, 64, 81
1, 232960, Control_c, 0, 64, 87
1, 232974, Control_c, 0, 64, 90
1, 232974, Control_c, 0, 67, 64
1, 232989, Note_off_c, 0, 76, 62
1, 232989, Control_c, 0, 64, 93
1, 233004, Control_c, 0, 64, 98
1, 233019, Control_c, 0, 64, 106
1, 233034, Control_c, 0, 64, 118
1, 233034, Control_c, 0, 67, 64
1, 233038, Note_off_c, 0, 63, 43
1, 233049, Control_c, 0, 64, 127
1, 233248, Control_c, 0, 64, 117
1, 233263, Control_c, 0, 64, 111
1, 233278, Control_c, 0, 64, 105
1, 233293, Control_c, 0, 64, 98
1, 233308, Control_c, 0, 64, 91
1, 233311, Note_on_c, 0, 76, 77
1, 233323, Control_c, 0, 64, 83
1, 233338, Control_c, 0, 64, 75
1, 233352, Control_c, 0, 64, 70
1, 233367, Control_c, 0, 64, 65
1, 233372, Note_on_c, 0, 62, 33
1, 233382, Control_c, 0, 64, 61
1, 233397, Control_c, 0, 64, 58
1, 233412, Control_c, 0, 64, 55
1, 233426, Control_c, 0, 64, 51
1, 233441, Control_c, 0, 64, 42
1, 233456, Control_c, 0, 64, 31
1, 233456, Control_c, 0, 67, 64
1, 233471, Control_c, 0, 64, 12
1, 233486, Control_c, 0, 64, 0
1, 233574, Control_c, 0, 64, 34
1, 233589, Control_c, 0, 64, 53
1, 233604, Control_c, 0, 64, 64
1, 233618, Control_c, 0, 64, 69
1, 233633, Control_c, 0, 64, 72
1, 233648, Control_c, 0, 64, 74
1, 233663, Control_c, 0, 64, 76
1, 233677, Note_off_c, 0, 62, 42
1, 233678, Control_c, 0, 64, 79
1, 233694, Control_c, 0, 64, 82
1, 233709, Control_c, 0, 64, 84
1, 233723, Control_c, 0, 64, 85
1, 233738, Control_c, 0, 64, 86
1, 233753, Control_c, 0, 67, 65
1, 233841, Control_c, 0, 64, 85
1, 233856, Control_c, 0, 64, 81
1, 233879, Control_c, 0, 64, 75
1, 233879, Control_c, 0, 67, 65
1, 233894, Control_c, 0, 64, 68
1, 233909, Control_c, 0, 64, 60
1, 233914, Note_on_c, 0, 61, 41
1, 233923, Control_c, 0, 64, 50
1, 233938, Control_c, 0, 64, 40
1, 233953, Control_c, 0, 64, 37
1, 233967, Control_c, 0, 64, 39
1, 233982, Control_c, 0, 64, 49
1, 233997, Control_c, 0, 64, 60
1, 233999, Note_off_c, 0, 71, 50
1, 234012, Control_c, 0, 64, 68
1, 234012, Control_c, 0, 67, 66
1, 234027, Control_c, 0, 64, 77
1, 234041, Control_c, 0, 64, 87
1, 234053, Note_off_c, 0, 61, 53
1, 234056, Control_c, 0, 64, 93
1, 234071, Control_c, 0, 64, 95
1, 234086, Control_c, 0, 64, 99
1, 234101, Control_c, 0, 64, 104
1, 234116, Control_c, 0, 64, 111
1, 234131, Control_c, 0, 64, 119
1, 234145, Control_c, 0, 64, 127
1, 234175, Note_off_c, 0, 76, 55
1, 234202, Note_on_c, 0, 80, 65
1, 234324, Note_off_c, 0, 80, 60
1, 234373, Note_on_c, 0, 78, 43
1, 234400, Note_off_c, 0, 78, 52
1, 234423, Note_on_c, 0, 80, 53
1, 234456, Control_c, 0, 64, 114
1, 234465, Note_off_c, 0, 80, 60
1, 234468, Note_on_c, 0, 78, 73
1, 234471, Control_c, 0, 64, 106
1, 234480, Note_on_c, 0, 72, 53
1, 234487, Control_c, 0, 64, 98
1, 234497, Note_on_c, 0, 60, 40
1, 234502, Control_c, 0, 64, 90
1, 234517, Control_c, 0, 64, 80
1, 234532, Control_c, 0, 64, 71
1, 234546, Control_c, 0, 64, 63
1, 234561, Control_c, 0, 64, 57
1, 234576, Control_c, 0, 64, 52
1, 234591, Control_c, 0, 64, 48
1, 234606, Control_c, 0, 64, 44
1, 234628, Control_c, 0, 64, 39
1, 234643, Control_c, 0, 64, 31
1, 234658, Control_c, 0, 64, 26
1, 234673, Control_c, 0, 64, 25
1, 234688, Control_c, 0, 67, 66
1, 234757, Note_on_c, 0, 76, 66
1, 234757, Note_off_c, 0, 78, 63
1, 235021, Note_on_c, 0, 78, 60
1, 235036, Note_on_c, 0, 71, 34
1, 235036, Note_off_c, 0, 72, 56
1, 235063, Note_off_c, 0, 76, 58
1, 235265, Control_c, 0, 64, 26
1, 235296, Control_c, 0, 64, 26
1, 235316, Note_off_c, 0, 78, 62
1, 235328, Note_on_c, 0, 80, 53
1, 235376, Control_c, 0, 64, 27
1, 235391, Control_c, 0, 67, 66
1, 235406, Control_c, 0, 64, 28
1, 235420, Control_c, 0, 64, 29
1, 235435, Control_c, 0, 64, 30
1, 235450, Control_c, 0, 64, 31
1, 235465, Control_c, 0, 64, 31
1, 235524, Control_c, 0, 64, 32
1, 235554, Control_c, 0, 64, 32
1, 235583, Control_c, 0, 64, 33
1, 235598, Control_c, 0, 64, 33
1, 235612, Control_c, 0, 64, 34
1, 235664, Note_on_c, 0, 76, 55
1, 235680, Note_on_c, 0, 70, 38
1, 235688, Note_off_c, 0, 80, 55
1, 235716, Control_c, 0, 64, 33
1, 235731, Control_c, 0, 64, 33
1, 235740, Note_off_c, 0, 71, 39
1, 235746, Control_c, 0, 64, 32
1, 235761, Control_c, 0, 64, 31
1, 235806, Control_c, 0, 64, 32
1, 235820, Control_c, 0, 64, 35
1, 235835, Control_c, 0, 64, 43
1, 235850, Control_c, 0, 64, 56
1, 235865, Control_c, 0, 64, 64
1, 235880, Control_c, 0, 64, 69
1, 235894, Control_c, 0, 64, 74
1, 235909, Control_c, 0, 64, 78
1, 235924, Control_c, 0, 64, 80
1, 235924, Control_c, 0, 67, 66
1, 235938, Control_c, 0, 64, 82
1, 235953, Control_c, 0, 64, 86
1, 235968, Control_c, 0, 64, 89
1, 235981, Note_off_c, 0, 76, 53
1, 235983, Control_c, 0, 64, 93
1, 235998, Control_c, 0, 64, 96
1, 236012, Control_c, 0, 64, 98
1, 236027, Control_c, 0, 64, 99
1, 236042, Control_c, 0, 64, 100
1, 236088, Control_c, 0, 67, 67
1, 236119, Note_off_c, 0, 70, 42
1, 236125, Control_c, 0, 67, 67
1, 236140, Control_c, 0, 67, 69
1, 236155, Control_c, 0, 67, 74
1, 236169, Control_c, 0, 67, 78
1, 236184, Control_c, 0, 67, 80
1, 236199, Control_c, 0, 67, 81
1, 236214, Control_c, 0, 67, 82
1, 236229, Control_c, 0, 67, 83
1, 236243, Control_c, 0, 64, 99
1, 236243, Control_c, 0, 67, 85
1, 236258, Control_c, 0, 64, 99
1, 236258, Control_c, 0, 67, 87
1, 236273, Control_c, 0, 64, 97
1, 236273, Control_c, 0, 67, 88
1, 236288, Control_c, 0, 64, 92
1, 236288, Control_c, 0, 67, 90
1, 236303, Control_c, 0, 64, 86
1, 236303, Control_c, 0, 67, 90
1, 236317, Control_c, 0, 64, 79
1, 236332, Control_c, 0, 64, 73
1, 236347, Control_c, 0, 64, 69
1, 236347, Control_c, 0, 67, 91
1, 236362, Control_c, 0, 64, 65
1, 236368, Note_on_c, 0, 76, 52
1, 236376, Control_c, 0, 64, 61
1, 236390, Note_on_c, 0, 69, 35
1, 236391, Control_c, 0, 64, 56
1, 236406, Control_c, 0, 64, 49
1, 236421, Control_c, 0, 64, 42
1, 236435, Control_c, 0, 64, 34
1, 236450, Control_c, 0, 64, 27
1, 236450, Control_c, 0, 67, 91
1, 236465, Control_c, 0, 64, 21
1, 236480, Control_c, 0, 64, 19
1, 236495, Control_c, 0, 67, 91
1, 236509, Control_c, 0, 64, 19
1, 236524, Control_c, 0, 64, 24
1, 236539, Control_c, 0, 64, 35
1, 236554, Control_c, 0, 64, 51
1, 236569, Control_c, 0, 64, 63
1, 236569, Control_c, 0, 67, 91
1, 236584, Control_c, 0, 64, 71
1, 236599, Control_c, 0, 64, 77
1, 236614, Control_c, 0, 64, 81
1, 236629, Control_c, 0, 64, 84
1, 236643, Control_c, 0, 64, 87
1, 236658, Control_c, 0, 64, 94
1, 236673, Control_c, 0, 64, 105
1, 236688, Control_c, 0, 64, 127
1, 236703, Control_c, 0, 67, 92
1, 236703, Note_off_c, 0, 76, 60
1, 236761, Control_c, 0, 67, 91
1, 236977, Control_c, 0, 67, 92
1, 237103, Note_on_c, 0, 76, 46
1, 237111, Control_c, 0, 64, 118
1, 237123, Note_on_c, 0, 68, 42
1, 237126, Control_c, 0, 64, 103
1, 237140, Control_c, 0, 64, 94
1, 237140, Control_c, 0, 67, 92
1, 237155, Control_c, 0, 64, 85
1, 237170, Control_c, 0, 64, 78
1, 237184, Control_c, 0, 64, 72
1, 237199, Control_c, 0, 64, 67
1, 237214, Control_c, 0, 64, 63
1, 237217, Note_off_c, 0, 68, 0
1, 237217, Note_on_c, 0, 68, 5
1, 237224, Note_off_c, 0, 69, 43
1, 237229, Control_c, 0, 64, 60
1, 237244, Control_c, 0, 64, 57
1, 237258, Control_c, 0, 64, 54
1, 237273, Control_c, 0, 64, 51
1, 237288, Control_c, 0, 64, 47
1, 237303, Control_c, 0, 64, 41
1, 237318, Control_c, 0, 64, 37
1, 237333, Control_c, 0, 64, 33
1, 237347, Control_c, 0, 64, 31
1, 237362, Control_c, 0, 64, 31
1, 237377, Control_c, 0, 64, 30
1, 237392, Control_c, 0, 64, 29
1, 237407, Control_c, 0, 64, 28
1, 237510, Control_c, 0, 67, 92
1, 237570, Control_c, 0, 64, 28
1, 237599, Control_c, 0, 64, 29
1, 237621, Control_c, 0, 64, 30
1, 237636, Control_c, 0, 64, 30
1, 237651, Control_c, 0, 67, 91
1, 237666, Control_c, 0, 64, 31
1, 237696, Control_c, 0, 64, 31
1, 237711, Control_c, 0, 64, 32
1, 237785, Control_c, 0, 67, 91
1, 237845, Control_c, 0, 64, 32
1, 237860, Control_c, 0, 64, 33
1, 237875, Control_c, 0, 64, 34
1, 237934, Control_c, 0, 64, 34
1, 237949, Control_c, 0, 64, 35
1, 237963, Control_c, 0, 64, 35
1, 238022, Control_c, 0, 64, 36
1, 238081, Control_c, 0, 64, 36
1, 238185, Control_c, 0, 64, 37
1, 238214, Control_c, 0, 64, 37
1, 238244, Control_c, 0, 64, 38
1, 238274, Control_c, 0, 64, 38
1, 238289, Note_on_c, 0, 67, 29
1, 238385, Control_c, 0, 64, 39
1, 238404, Note_off_c, 0, 68, 44
1, 238459, Control_c, 0, 67, 90
1, 238474, Control_c, 0, 64, 39
1, 238490, Control_c, 0, 64, 40
1, 238490, Control_c, 0, 67, 90
1, 238505, Control_c, 0, 64, 40
1, 238505, Control_c, 0, 67, 89
1, 238519, Control_c, 0, 64, 41
1, 238534, Control_c, 0, 64, 42
1, 238534, Control_c, 0, 67, 89
1, 238549, Control_c, 0, 64, 42
1, 238549, Control_c, 0, 67, 88
1, 238564, Control_c, 0, 64, 44
1, 238579, Control_c, 0, 64, 46
1, 238579, Control_c, 0, 67, 88
1, 238593, Control_c, 0, 64, 46
1, 238593, Control_c, 0, 67, 87
1, 238608, Control_c, 0, 64, 47
1, 238608, Control_c, 0, 67, 86
1, 238623, Control_c, 0, 64, 48
1, 238623, Control_c, 0, 67, 86
1, 238638, Control_c, 0, 64, 49
1, 238638, Control_c, 0, 67, 85
1, 238653, Control_c, 0, 64, 50
1, 238653, Control_c, 0, 67, 85
1, 238668, Control_c, 0, 64, 51
1, 238682, Control_c, 0, 64, 52
1, 238682, Control_c, 0, 67, 84
1, 238697, Control_c, 0, 64, 53
1, 238697, Control_c, 0, 67, 83
1, 238712, Control_c, 0, 64, 53
1, 238712, Control_c, 0, 67, 83
1, 238727, Control_c, 0, 64, 54
1, 238727, Control_c, 0, 67, 82
1, 238742, Control_c, 0, 64, 55
1, 238756, Control_c, 0, 64, 56
1, 238756, Control_c, 0, 67, 81
1, 238771, Control_c, 0, 64, 57
1, 238771, Control_c, 0, 67, 80
1, 238786, Control_c, 0, 64, 59
1, 238786, Control_c, 0, 67, 80
1, 238801, Control_c, 0, 64, 60
1, 238801, Control_c, 0, 67, 79
1, 238816, Control_c, 0, 64, 61
1, 238816, Control_c, 0, 67, 78
1, 238830, Control_c, 0, 64, 62
1, 238830, Control_c, 0, 67, 78
1, 238845, Control_c, 0, 64, 63
1, 238845, Control_c, 0, 67, 77
1, 238860, Control_c, 0, 64, 65
1, 238860, Control_c, 0, 67, 76
1, 238875, Control_c, 0, 64, 68
1, 238875, Control_c, 0, 67, 75
1, 238890, Control_c, 0, 64, 72
1, 238890, Control_c, 0, 67, 74
1, 238904, Control_c, 0, 64, 75
1, 238904, Control_c, 0, 67, 73
1, 238919, Control_c, 0, 64, 78
1, 238919, Control_c, 0, 67, 69
1, 238934, Control_c, 0, 64, 80
1, 238934, Control_c, 0, 67, 65
1, 238949, Control_c, 0, 64, 84
1, 238949, Control_c, 0, 67, 63
1, 238963, Control_c, 0, 64, 89
1, 238963, Control_c, 0, 67, 61
1, 238978, Control_c, 0, 64, 92
1, 238978, Control_c, 0, 67, 59
1, 238993, Control_c, 0, 64, 96
1, 238993, Control_c, 0, 67, 57
1, 239008, Control_c, 0, 64, 100
1, 239008, Control_c, 0, 67, 55
1, 239023, Control_c, 0, 64, 105
1, 239023, Control_c, 0, 67, 51
1, 239037, Control_c, 0, 64, 112
1, 239037, Control_c, 0, 67, 48
1, 239052, Control_c, 0, 64, 127
1, 239052, Control_c, 0, 67, 45
1, 239067, Control_c, 0, 67, 42
1, 239082, Control_c, 0, 67, 39
1, 239097, Control_c, 0, 67, 36
1, 239119, Control_c, 0, 67, 33
1, 239134, Control_c, 0, 67, 31
1, 239144, Note_off_c, 0, 67, 41
1, 239149, Control_c, 0, 67, 28
1, 239163, Control_c, 0, 67, 25
1, 239178, Control_c, 0, 67, 21
1, 239193, Control_c, 0, 67, 18
1, 239208, Control_c, 0, 67, 13
1, 239223, Control_c, 0, 67, 8
1, 239228, Note_off_c, 0, 76, 43
1, 239229, Note_off_c, 0, 60, 41
1, 239237, Control_c, 0, 67, 0
1, 239742, Control_c, 0, 64, 88
1, 239757, Control_c, 0, 64, 70
1, 239772, Control_c, 0, 64, 57
1, 239786, Control_c, 0, 64, 48
1, 239801, Control_c, 0, 64, 37
1, 239816, Control_c, 0, 64, 20
1, 239831, Control_c, 0, 64, 0
1, 239944, Note_on_c, 0, 74, 42
1, 239997, Note_off_c, 0, 74, 60
1, 240016, Control_c, 0, 67, 9
1, 240031, Control_c, 0, 67, 10
1, 240046, Control_c, 0, 67, 9
1, 240051, Note_on_c, 0, 76, 63
1, 240052, Note_on_c, 0, 36, 48
1, 240055, Note_on_c, 0, 64, 54
1, 240056, Note_on_c, 0, 72, 60
1, 240060, Control_c, 0, 67, 10
1, 240063, Note_on_c, 0, 43, 45
1, 240075, Control_c, 0, 67, 12
1, 240076, Note_off_c, 0, 64, 63
1, 240082, Note_off_c, 0, 36, 54
1, 240086, Note_off_c, 0, 72, 66
1, 240091, Control_c, 0, 67, 16
1, 240095, Note_off_c, 0, 76, 59
1, 240098, Note_off_c, 0, 43, 53
1, 240136, Control_c, 0, 67, 15
1, 240199, Note_on_c, 0, 74, 61
1, 240203, Note_on_c, 0, 71, 60
1, 240209, Control_c, 0, 67, 15
1, 240223, Note_off_c, 0, 71, 62
1, 240228, Note_off_c, 0, 74, 66
1, 240239, Control_c, 0, 67, 16
1, 240254, Control_c, 0, 67, 20
1, 240269, Control_c, 0, 67, 30
1, 240283, Control_c, 0, 67, 43
1, 240298, Control_c, 0, 67, 58
1, 240313, Control_c, 0, 67, 70
1, 240325, Note_on_c, 0, 67, 63
1, 240325, Note_on_c, 0, 72, 64
1, 240325, Note_on_c, 0, 76, 73
1, 240328, Note_on_c, 0, 60, 62
1, 240328, Control_c, 0, 67, 75
1, 240329, Note_on_c, 0, 69, 65
1, 240343, Note_off_c, 0, 72, 64
1, 240343, Control_c, 0, 67, 76
1, 240345, Note_off_c, 0, 67, 64
1, 240348, Note_off_c, 0, 69, 66
1, 240355, Note_off_c, 0, 60, 65
1, 240387, Control_c, 0, 67, 75
1, 240394, Note_off_c, 0, 76, 59
1, 240439, Note_on_c, 0, 67, 58
1, 240443, Note_on_c, 0, 71, 59
1, 240472, Note_off_c, 0, 71, 65
1, 240476, Control_c, 0, 67, 75
1, 240484, Note_off_c, 0, 67, 65
1, 240488, Note_on_c, 0, 74, 61
1, 240506, Control_c, 0, 67, 74
1, 240521, Control_c, 0, 67, 74
1, 240523, Note_off_c, 0, 74, 61
1, 240535, Control_c, 0, 64, 13
1, 240535, Control_c, 0, 67, 73
1, 240550, Control_c, 0, 64, 44
1, 240550, Control_c, 0, 67, 74
1, 240557, Note_on_c, 0, 76, 79
1, 240562, Note_on_c, 0, 55, 66
1, 240565, Control_c, 0, 64, 36
1, 240566, Note_on_c, 0, 48, 68
1, 240580, Control_c, 0, 64, 29
1, 240585, Note_on_c, 0, 69, 50
1, 240590, Note_off_c, 0, 55, 66
1, 240591, Note_on_c, 0, 65, 36
1, 240592, Note_off_c, 0, 48, 66
1, 240595, Control_c, 0, 64, 31
1, 240595, Control_c, 0, 67, 73
1, 240616, Note_on_c, 0, 67, 26
1, 240617, Note_off_c, 0, 69, 60
1, 240617, Control_c, 0, 64, 41
1, 240617, Control_c, 0, 67, 73
1, 240632, Control_c, 0, 64, 47
1, 240632, Control_c, 0, 67, 72
1, 240632, Note_off_c, 0, 65, 44
1, 240647, Control_c, 0, 64, 48
1, 240651, Note_off_c, 0, 67, 32
1, 240662, Control_c, 0, 67, 72
1, 240677, Control_c, 0, 64, 48
1, 240691, Note_on_c, 0, 71, 67
1, 240691, Control_c, 0, 64, 50
1, 240691, Control_c, 0, 67, 72
1, 240694, Note_on_c, 0, 67, 49
1, 240706, Control_c, 0, 64, 54
1, 240717, Note_off_c, 0, 71, 67
1, 240718, Note_off_c, 0, 67, 59
1, 240719, Note_off_c, 0, 76, 59
1, 240721, Control_c, 0, 64, 55
1, 240735, Control_c, 0, 64, 55
1, 240750, Control_c, 0, 64, 54
1, 240765, Control_c, 0, 64, 52
1, 240765, Control_c, 0, 67, 73
1, 240780, Control_c, 0, 64, 47
1, 240795, Control_c, 0, 64, 40
1, 240799, Note_on_c, 0, 72, 74
1, 240805, Note_on_c, 0, 69, 50
1, 240809, Control_c, 0, 64, 28
1, 240809, Control_c, 0, 67, 72
1, 240824, Control_c, 0, 64, 0
1, 240826, Note_off_c, 0, 72, 65
1, 240828, Note_off_c, 0, 69, 62
1, 240839, Control_c, 0, 67, 73
1, 240914, Control_c, 0, 67, 72
1, 240915, Note_on_c, 0, 79, 65
1, 240918, Note_on_c, 0, 74, 60
1, 240933, Note_on_c, 0, 71, 39
1, 240938, Note_off_c, 0, 74, 64
1, 240944, Note_off_c, 0, 79, 65
1, 240960, Note_off_c, 0, 71, 36
1, 241011, Note_on_c, 0, 36, 62
1, 241018, Control_c, 0, 64, 35
1, 241018, Control_c, 0, 67, 73
1, 241022, Note_on_c, 0, 78, 78
1, 241032, Control_c, 0, 64, 57
1, 241047, Control_c, 0, 64, 63
1, 241047, Control_c, 0, 67, 72
1, 241049, Note_on_c, 0, 76, 35
1, 241062, Control_c, 0, 64, 64
1, 241068, Note_off_c, 0, 78, 56
1, 241076, Note_off_c, 0, 36, 62
1, 241077, Control_c, 0, 64, 65
1, 241082, Note_off_c, 0, 76, 32
1, 241092, Control_c, 0, 64, 66
1, 241098, Note_on_c, 0, 43, 31
1, 241106, Control_c, 0, 64, 68
1, 241121, Control_c, 0, 64, 69
1, 241132, Note_on_c, 0, 48, 65
1, 241135, Note_on_c, 0, 74, 73
1, 241137, Note_off_c, 0, 43, 50
1, 241139, Note_on_c, 0, 79, 74
1, 241158, Note_off_c, 0, 48, 66
1, 241158, Note_off_c, 0, 74, 68
1, 241166, Note_off_c, 0, 79, 66
1, 241180, Control_c, 0, 64, 67
1, 241195, Control_c, 0, 64, 64
1, 241195, Control_c, 0, 67, 73
1, 241210, Control_c, 0, 64, 60
1, 241210, Control_c, 0, 67, 73
1, 241225, Control_c, 0, 64, 54
1, 241240, Control_c, 0, 64, 47
1, 241240, Note_on_c, 0, 78, 75
1, 241255, Note_on_c, 0, 48, 29
1, 241255, Control_c, 0, 64, 40
1, 241265, Note_on_c, 0, 55, 59
1, 241269, Note_on_c, 0, 72, 38
1, 241270, Control_c, 0, 64, 28
1, 241276, Note_off_c, 0, 78, 61
1, 241285, Control_c, 0, 64, 13
1, 241291, Note_off_c, 0, 48, 44
1, 241292, Note_off_c, 0, 55, 66
1, 241299, Control_c, 0, 64, 0
1, 241300, Note_off_c, 0, 72, 33
1, 241358, Note_on_c, 0, 83, 79
1, 241359, Note_on_c, 0, 60, 61
1, 241361, Note_on_c, 0, 71, 76
1, 241382, Note_off_c, 0, 83, 65
1, 241386, Note_off_c, 0, 71, 68
1, 241391, Note_off_c, 0, 60, 63
1, 241453, Note_on_c, 0, 66, 64
1, 241455, Control_c, 0, 64, 51
1, 241455, Control_c, 0, 67, 74
1, 241465, Note_on_c, 0, 78, 85
1, 241470, Control_c, 0, 64, 64
1, 241470, Control_c, 0, 67, 73
1, 241475, Note_off_c, 0, 66, 64
1, 241485, Control_c, 0, 64, 67
1, 241499, Note_on_c, 0, 67, 42
1, 241500, Control_c, 0, 64, 69
1, 241514, Control_c, 0, 64, 70
1, 241514, Control_c, 0, 67, 73
1, 241521, Note_off_c, 0, 78, 63
1, 241528, Note_off_c, 0, 67, 50
1, 241529, Control_c, 0, 64, 72
1, 241529, Control_c, 0, 67, 72
1, 241544, Control_c, 0, 64, 73
1, 241544, Control_c, 0, 67, 72
1, 241559, Control_c, 0, 64, 74
1, 241568, Note_on_c, 0, 62, 72
1, 241574, Control_c, 0, 64, 75
1, 241580, Note_on_c, 0, 76, 81
1, 241584, Note_on_c, 0, 67, 67
1, 241589, Control_c, 0, 64, 76
1, 241601, Note_off_c, 0, 62, 67
1, 241604, Note_off_c, 0, 67, 64
1, 241604, Note_off_c, 0, 76, 66
1, 241604, Control_c, 0, 64, 78
1, 241619, Control_c, 0, 64, 80
1, 241633, Control_c, 0, 64, 81
1, 241663, Control_c, 0, 64, 76
1, 241678, Note_on_c, 0, 78, 91
1, 241678, Control_c, 0, 64, 64
1, 241683, Note_on_c, 0, 57, 74
1, 241688, Note_on_c, 0, 69, 63
1, 241693, Control_c, 0, 64, 47
1, 241708, Note_off_c, 0, 69, 66
1, 241708, Control_c, 0, 64, 0
1, 241720, Note_off_c, 0, 57, 65
1, 241726, Note_off_c, 0, 78, 65
1, 241753, Control_c, 0, 67, 72
1, 241765, Note_on_c, 0, 50, 68
1, 241789, Note_off_c, 0, 50, 68
1, 241790, Note_on_c, 0, 81, 77
1, 241811, Note_off_c, 0, 81, 68
1, 241827, Control_c, 0, 67, 72
1, 241842, Control_c, 0, 67, 71
1, 241856, Control_c, 0, 67, 70
1, 241871, Control_c, 0, 67, 69
1, 241886, Control_c, 0, 67, 68
1, 241894, Note_on_c, 0, 76, 84
1, 241901, Control_c, 0, 64, 54
1, 241901, Control_c, 0, 67, 66
1, 241904, Note_on_c, 0, 38, 60
1, 241908, Note_on_c, 0, 40, 65
1, 241916, Control_c, 0, 64, 67
1, 241916, Control_c, 0, 67, 63
1, 241926, Note_on_c, 0, 45, 57
1, 241928, Note_on_c, 0, 71, 72
1, 241930, Control_c, 0, 64, 70
1, 241930, Control_c, 0, 67, 61
1, 241941, Note_off_c, 0, 38, 62
1, 241945, Control_c, 0, 64, 73
1, 241945, Control_c, 0, 67, 55
1, 241948, Note_off_c, 0, 40, 65
1, 241959, Note_off_c, 0, 76, 55
1, 241960, Control_c, 0, 64, 79
1, 241960, Control_c, 0, 67, 45
1, 241963, Note_off_c, 0, 45, 51
1, 241975, Control_c, 0, 64, 91
1, 241975, Control_c, 0, 67, 31
1, 241982, Note_off_c, 0, 71, 63
1, 241989, Control_c, 0, 64, 124
1, 241989, Control_c, 0, 67, 12
1, 241994, Note_on_c, 0, 67, 62
1, 242003, Note_on_c, 0, 69, 67
1, 242004, Control_c, 0, 64, 127
1, 242004, Control_c, 0, 67, 0
1, 242022, Note_off_c, 0, 69, 67
1, 242125, Note_on_c, 0, 68, 48
1, 242144, Note_on_c, 0, 71, 68
1, 242146, Note_off_c, 0, 67, 34
1, 242149, Note_off_c, 0, 68, 62
1, 242173, Note_off_c, 0, 71, 65
1, 242175, Note_on_c, 0, 76, 74
1, 242178, Note_on_c, 0, 62, 58
1, 242188, Control_c, 0, 64, 101
1, 242191, Note_off_c, 0, 76, 47
1, 242200, Note_off_c, 0, 62, 64
1, 242203, Control_c, 0, 64, 74
1, 242218, Control_c, 0, 64, 59
1, 242233, Control_c, 0, 64, 43
1, 242248, Control_c, 0, 64, 29
1, 242262, Control_c, 0, 64, 17
1, 242277, Control_c, 0, 64, 0
1, 242358, Note_on_c, 0, 74, 62
1, 242385, Note_off_c, 0, 74, 67
1, 242426, Control_c, 0, 64, 33
1, 242435, Note_on_c, 0, 41, 77
1, 242438, Note_on_c, 0, 76, 77
1, 242440, Note_on_c, 0, 72, 81
1, 242441, Control_c, 0, 64, 33
1, 242444, Note_on_c, 0, 35, 67
1, 242455, Control_c, 0, 64, 0
1, 242465, Note_off_c, 0, 41, 67
1, 242468, Note_off_c, 0, 72, 67
1, 242474, Note_off_c, 0, 35, 64
1, 242489, Note_off_c, 0, 76, 65
1, 242561, Note_on_c, 0, 74, 79
1, 242564, Note_on_c, 0, 71, 69
1, 242588, Note_off_c, 0, 71, 65
1, 242589, Note_off_c, 0, 74, 66
1, 242634, Control_c, 0, 64, 33
1, 242649, Control_c, 0, 64, 36
1, 242664, Control_c, 0, 64, 0
1, 242665, Note_on_c, 0, 67, 65
1, 242670, Note_on_c, 0, 76, 87
1, 242671, Note_on_c, 0, 60, 68
1, 242672, Note_on_c, 0, 69, 80
1, 242672, Note_on_c, 0, 72, 76
1, 242683, Note_off_c, 0, 67, 65
1, 242695, Note_off_c, 0, 60, 65
1, 242697, Note_off_c, 0, 69, 69
1, 242697, Note_off_c, 0, 72, 64
1, 242764, Note_off_c, 0, 76, 61
1, 242771, Note_on_c, 0, 67, 75
1, 242781, Note_on_c, 0, 71, 72
1, 242807, Note_off_c, 0, 71, 66
1, 242808, Note_off_c, 0, 67, 64
1, 242835, Note_on_c, 0, 74, 55
1, 242868, Note_off_c, 0, 74, 56
1, 242879, Control_c, 0, 64, 32
1, 242884, Note_on_c, 0, 76, 84
1, 242887, Note_on_c, 0, 55, 79
1, 242893, Control_c, 0, 64, 61
1, 242894, Note_on_c, 0, 48, 71
1, 242903, Note_on_c, 0, 70, 60
1, 242904, Note_off_c, 0, 70, 127
1, 242908, Note_off_c, 0, 55, 68
1, 242908, Control_c, 0, 64, 64
1, 242916, Note_on_c, 0, 65, 51
1, 242918, Note_off_c, 0, 48, 65
1, 242926, Note_on_c, 0, 67, 49
1, 242934, Note_on_c, 0, 69, 34
1, 242937, Control_c, 0, 64, 65
1, 242938, Note_off_c, 0, 65, 59
1, 242952, Control_c, 0, 64, 65
1, 242953, Note_off_c, 0, 67, 56
1, 242967, Control_c, 0, 64, 66
1, 242971, Note_off_c, 0, 69, 30
1, 243014, Note_on_c, 0, 67, 75
1, 243020, Note_on_c, 0, 71, 76
1, 243032, Note_off_c, 0, 67, 66
1, 243041, Note_off_c, 0, 71, 68
1, 243041, Control_c, 0, 64, 67
1, 243053, Note_off_c, 0, 76, 62
1, 243121, Note_on_c, 0, 69, 74
1, 243125, Note_on_c, 0, 72, 79
1, 243145, Control_c, 0, 64, 66
1, 243149, Note_off_c, 0, 72, 67
1, 243150, Note_off_c, 0, 69, 68
1, 243160, Control_c, 0, 64, 64
1, 243175, Control_c, 0, 64, 62
1, 243190, Control_c, 0, 64, 59
1, 243204, Control_c, 0, 64, 56
1, 243219, Control_c, 0, 64, 50
1, 243226, Poly_aftertouch_c, 0, 77, 0
1, 243229, Note_on_c, 0, 74, 81
1, 243229, Note_on_c, 0, 79, 82
1, 243234, Control_c, 0, 64, 25
1, 243249, Control_c, 0, 64, 0
1, 243254, Note_off_c, 0, 74, 69
1, 243264, Note_off_c, 0, 79, 62
1, 243324, Note_on_c, 0, 36, 77
1, 243340, Note_on_c, 0, 76, 71
1, 243340, Note_on_c, 0, 78, 80
1, 243353, Control_c, 0, 64, 50
1, 243362, Note_off_c, 0, 76, 66
1, 243368, Control_c, 0, 64, 64
1, 243378, Note_off_c, 0, 78, 58
1, 243383, Control_c, 0, 64, 67
1, 243389, Note_off_c, 0, 36, 64
1, 243398, Note_on_c, 0, 43, 51
1, 243398, Control_c, 0, 64, 67
1, 243413, Control_c, 0, 64, 69
1, 243427, Note_off_c, 0, 43, 60
1, 243427, Control_c, 0, 64, 71
1, 243442, Control_c, 0, 64, 73
1, 243451, Note_on_c, 0, 79, 78
1, 243455, Note_on_c, 0, 74, 61
1, 243457, Note_on_c, 0, 48, 49
1, 243457, Control_c, 0, 64, 74
1, 243474, Note_off_c, 0, 74, 64
1, 243476, Note_off_c, 0, 79, 68
1, 243485, Note_off_c, 0, 48, 50
1, 243531, Control_c, 0, 64, 72
1, 243533, Note_on_c, 0, 48, 61
1, 243543, Note_on_c, 0, 78, 82
1, 243546, Control_c, 0, 64, 66
1, 243560, Control_c, 0, 64, 56
1, 243573, Note_on_c, 0, 55, 58
1, 243575, Control_c, 0, 64, 37
1, 243586, Note_off_c, 0, 78, 59
1, 243590, Control_c, 0, 64, 0
1, 243594, Note_off_c, 0, 48, 57
1, 243609, Note_off_c, 0, 55, 65
1, 243650, Note_on_c, 0, 60, 75
1, 243658, Note_on_c, 0, 83, 89
1, 243661, Note_on_c, 0, 71, 64
1, 243689, Note_off_c, 0, 60, 61
1, 243690, Note_off_c, 0, 71, 66
1, 243696, Note_off_c, 0, 83, 65
1, 243757, Note_on_c, 0, 66, 77
1, 243760, Control_c, 0, 64, 55
1, 243762, Note_on_c, 0, 78, 97
1, 243775, Control_c, 0, 64, 68
1, 243779, Note_off_c, 0, 66, 69
1, 243785, Note_on_c, 0, 67, 60
1, 243790, Control_c, 0, 64, 72
1, 243791, Note_on_c, 0, 69, 50
1, 243805, Control_c, 0, 64, 74
1, 243806, Note_off_c, 0, 67, 62
1, 243816, Note_off_c, 0, 69, 59
1, 243820, Control_c, 0, 64, 77
1, 243823, Note_off_c, 0, 78, 62
1, 243834, Control_c, 0, 64, 80
1, 243849, Control_c, 0, 64, 83
1, 243862, Note_on_c, 0, 62, 83
1, 243864, Control_c, 0, 64, 85
1, 243872, Note_on_c, 0, 67, 83
1, 243879, Note_on_c, 0, 76, 82
1, 243879, Control_c, 0, 64, 86
1, 243894, Note_on_c, 0, 69, 52
1, 243894, Control_c, 0, 64, 88
1, 243899, Note_off_c, 0, 62, 63
1, 243902, Note_off_c, 0, 67, 65
1, 243906, Note_off_c, 0, 76, 64
1, 243908, Control_c, 0, 64, 91
1, 243919, Note_off_c, 0, 69, 60
1, 243923, Control_c, 0, 64, 93
1, 243938, Control_c, 0, 64, 95
1, 243973, Note_on_c, 0, 78, 93
1, 243982, Control_c, 0, 64, 94
1, 243984, Note_on_c, 0, 59, 60
1, 243984, Note_on_c, 0, 69, 74
1, 243985, Note_on_c, 0, 57, 64
1, 243997, Control_c, 0, 64, 87
1, 243998, Note_off_c, 0, 69, 73
1, 244010, Note_off_c, 0, 59, 67
1, 244012, Control_c, 0, 64, 74
1, 244015, Note_off_c, 0, 78, 62
1, 244021, Note_off_c, 0, 57, 65
1, 244027, Control_c, 0, 64, 63
1, 244042, Control_c, 0, 64, 48
1, 244051, Note_on_c, 0, 50, 75
1, 244057, Control_c, 0, 64, 17
1, 244072, Control_c, 0, 64, 0
1, 244075, Note_on_c, 0, 81, 85
1, 244081, Note_off_c, 0, 50, 69
1, 244096, Note_off_c, 0, 81, 70
1, 244184, Note_on_c, 0, 40, 82
1, 244186, Note_on_c, 0, 76, 83
1, 244199, Note_on_c, 0, 71, 83
1, 244203, Note_on_c, 0, 47, 75
1, 244206, Control_c, 0, 64, 35
1, 244221, Control_c, 0, 64, 69
1, 244236, Control_c, 0, 64, 83
1, 244241, Note_off_c, 0, 40, 62
1, 244250, Control_c, 0, 64, 94
1, 244254, Note_off_c, 0, 76, 54
1, 244258, Note_on_c, 0, 52, 81
1, 244258, Note_on_c, 0, 69, 81
1, 244258, Note_off_c, 0, 71, 63
1, 244264, Note_off_c, 0, 47, 66
1, 244265, Control_c, 0, 64, 113
1, 244280, Control_c, 0, 64, 127
1, 244286, Note_off_c, 0, 52, 66
1, 244306, Note_off_c, 0, 69, 64
1, 244307, Note_on_c, 0, 67, 67
1, 244326, Note_off_c, 0, 67, 64
1, 244415, Note_on_c, 0, 69, 80
1, 244418, Note_on_c, 0, 66, 68
1, 244438, Note_on_c, 0, 76, 96
1, 244439, Note_on_c, 0, 62, 71
1, 244449, Note_off_c, 0, 66, 64
1, 244457, Note_off_c, 0, 76, 68
1, 244465, Note_off_c, 0, 62, 68
1, 244465, Note_off_c, 0, 69, 66
1, 244539, Control_c, 0, 64, 87
1, 244547, Note_on_c, 0, 78, 60
1, 244554, Control_c, 0, 64, 68
1, 244567, Note_off_c, 0, 78, 61
1, 244569, Control_c, 0, 64, 51
1, 244583, Control_c, 0, 64, 13
1, 244598, Control_c, 0, 64, 0
1, 244638, Note_on_c, 0, 78, 91
1, 244643, Control_c, 0, 64, 22
1, 244645, Note_on_c, 0, 69, 86
1, 244652, Note_on_c, 0, 66, 79
1, 244657, Control_c, 0, 64, 58
1, 244672, Control_c, 0, 64, 79
1, 244679, Note_off_c, 0, 78, 64
1, 244680, Note_off_c, 0, 66, 68
1, 244687, Control_c, 0, 64, 114
1, 244698, Note_off_c, 0, 69, 66
1, 244701, Control_c, 0, 64, 127
1, 244759, Note_on_c, 0, 76, 86
1, 244781, Note_on_c, 0, 67, 56
1, 244801, Note_off_c, 0, 76, 65
1, 244804, Note_off_c, 0, 67, 60
1, 244859, Poly_aftertouch_c, 0, 69, 0
1, 244864, Poly_aftertouch_c, 0, 65, 0
1, 244875, Note_on_c, 0, 69, 63
1, 244876, Note_on_c, 0, 78, 93
1, 244888, Note_on_c, 0, 72, 67
1, 244901, Note_off_c, 0, 69, 68
1, 244904, Note_off_c, 0, 72, 64
1, 244907, Note_off_c, 0, 78, 52
1, 244965, Poly_aftertouch_c, 0, 73, 0
1, 244978, Note_on_c, 0, 81, 69
1, 244983, Note_on_c, 0, 74, 65
1, 244984, Control_c, 0, 64, 77
1, 244985, Note_on_c, 0, 79, 73
1, 244993, Note_off_c, 0, 81, 68
1, 244998, Note_on_c, 0, 71, 44
1, 244999, Control_c, 0, 64, 50
1, 245000, Note_off_c, 0, 74, 65
1, 245001, Note_off_c, 0, 79, 69
1, 245014, Control_c, 0, 64, 0
1, 245024, Note_off_c, 0, 71, 39
1, 245077, Note_on_c, 0, 43, 84
1, 245085, Note_on_c, 0, 36, 73
1, 245091, Note_on_c, 0, 76, 94
1, 245106, Note_on_c, 0, 67, 88
1, 245111, Control_c, 0, 64, 18
1, 245114, Note_off_c, 0, 43, 68
1, 245115, Note_off_c, 0, 36, 67
1, 245126, Control_c, 0, 64, 64
1, 245128, Note_off_c, 0, 67, 69
1, 245133, Note_on_c, 0, 72, 33
1, 245133, Note_off_c, 0, 76, 66
1, 245141, Control_c, 0, 64, 81
1, 245155, Control_c, 0, 64, 99
1, 245164, Note_off_c, 0, 72, 35
1, 245170, Control_c, 0, 64, 127
1, 245339, Note_on_c, 0, 60, 85
1, 245339, Note_on_c, 0, 64, 83
1, 245340, Note_on_c, 0, 67, 92
1, 245341, Note_on_c, 0, 76, 94
1, 245360, Note_off_c, 0, 64, 69
1, 245367, Note_off_c, 0, 60, 66
1, 245376, Note_off_c, 0, 67, 61
1, 245378, Control_c, 0, 64, 84
1, 245386, Note_off_c, 0, 76, 66
1, 245392, Control_c, 0, 64, 61
1, 245407, Control_c, 0, 64, 0
1, 245467, Poly_aftertouch_c, 0, 64, 0
1, 245597, Note_on_c, 0, 49, 86
1, 245597, Note_on_c, 0, 56, 87
1, 245599, Note_on_c, 0, 76, 94
1, 245601, Note_on_c, 0, 64, 93
1, 245614, Control_c, 0, 64, 45
1, 245620, Note_off_c, 0, 49, 67
1, 245620, Note_off_c, 0, 56, 69
1, 245629, Control_c, 0, 64, 71
1, 245644, Control_c, 0, 64, 90
1, 245659, Control_c, 0, 64, 127
1, 245726, Poly_aftertouch_c, 0, 49, 127
1, 245744, Poly_aftertouch_c, 0, 56, 127
1, 245768, Poly_aftertouch_c, 0, 49, 0
1, 245768, Poly_aftertouch_c, 0, 56, 0
1, 245861, Note_on_c, 0, 84, 77
1, 245875, Note_off_c, 0, 84, 71
1, 245881, Note_on_c, 0, 88, 94
1, 245915, Note_off_c, 0, 88, 67
1, 245968, Note_off_c, 0, 64, 62
1, 245998, Note_off_c, 0, 76, 63
1, 246031, Note_on_c, 0, 68, 87
1, 246081, Note_off_c, 0, 68, 64
1, 246126, Control_c, 0, 64, 77
1, 246141, Control_c, 0, 64, 39
1, 246146, Note_on_c, 0, 49, 62
1, 246155, Note_on_c, 0, 66, 85
1, 246155, Control_c, 0, 64, 0
1, 246185, Control_c, 0, 64, 57
1, 246200, Control_c, 0, 64, 80
1, 246207, Note_off_c, 0, 66, 64
1, 246215, Control_c, 0, 64, 127
1, 246228, Note_off_c, 0, 49, 60
1, 246236, Note_on_c, 0, 56, 75
1, 246267, Note_on_c, 0, 76, 90
1, 246274, Note_off_c, 0, 56, 64
1, 246286, Note_on_c, 0, 64, 43
1, 246306, Note_on_c, 0, 61, 72
1, 246308, Note_off_c, 0, 76, 62
1, 246314, Note_off_c, 0, 64, 56
1, 246329, Note_off_c, 0, 61, 67
1, 246381, Note_on_c, 0, 78, 93
1, 246382, Note_on_c, 0, 66, 87
1, 246402, Note_off_c, 0, 78, 68
1, 246445, Note_off_c, 0, 66, 62
1, 246478, Note_on_c, 0, 68, 77
1, 246492, Note_on_c, 0, 92, 88
1, 246498, Note_on_c, 0, 80, 85
1, 246501, Note_off_c, 0, 68, 69
1, 246509, Note_off_c, 0, 92, 75
1, 246516, Note_off_c, 0, 80, 70
1, 246570, Control_c, 0, 64, 115
1, 246583, Note_on_c, 0, 68, 5
1, 246585, Control_c, 0, 64, 64
1, 246608, Control_c, 0, 64, 37
1, 246611, Note_on_c, 0, 65, 95
1, 246612, Note_off_c, 0, 68, 49
1, 246617, Note_on_c, 0, 50, 57
1, 246623, Note_on_c, 0, 48, 62
1, 246623, Control_c, 0, 64, 47
1, 246638, Control_c, 0, 64, 69
1, 246649, Note_off_c, 0, 65, 64
1, 246650, Note_off_c, 0, 48, 64
1, 246652, Control_c, 0, 64, 109
1, 246667, Control_c, 0, 64, 127
1, 246674, Note_on_c, 0, 57, 54
1, 246682, Note_off_c, 0, 50, 65
1, 246698, Note_off_c, 0, 57, 60
1, 246713, Note_on_c, 0, 62, 80
1, 246716, Note_on_c, 0, 76, 91
1, 246738, Note_on_c, 0, 68, 40
1, 246739, Note_off_c, 0, 68, 127
1, 246742, Note_off_c, 0, 62, 66
1, 246745, Note_on_c, 0, 77, 62
1, 246755, Note_off_c, 0, 76, 67
1, 246764, Note_off_c, 0, 77, 64
1, 246815, Note_on_c, 0, 65, 71
1, 246818, Note_on_c, 0, 66, 67
1, 246822, Note_on_c, 0, 77, 98
1, 246840, Note_off_c, 0, 66, 62
1, 246842, Note_off_c, 0, 65, 66
1, 246842, Note_off_c, 0, 77, 70
1, 246922, Note_on_c, 0, 92, 95
1, 246927, Note_on_c, 0, 82, 91
1, 246938, Note_off_c, 0, 92, 72
1, 246943, Note_off_c, 0, 82, 73
1, 246993, Control_c, 0, 64, 92
1, 247008, Control_c, 0, 64, 0
1, 247035, Note_on_c, 0, 59, 72
1, 247042, Note_on_c, 0, 76, 102
1, 247045, Note_on_c, 0, 71, 103
1, 247047, Note_on_c, 0, 52, 79
1, 247052, Control_c, 0, 64, 59
1, 247062, Note_off_c, 0, 71, 71
1, 247067, Control_c, 0, 64, 127
1, 247074, Note_off_c, 0, 59, 67
1, 247077, Note_off_c, 0, 76, 68
1, 247080, Note_off_c, 0, 52, 65
1, 247156, Control_c, 0, 64, 81
1, 247170, Control_c, 0, 64, 48
1, 247181, Note_on_c, 0, 73, 53
1, 247185, Control_c, 0, 64, 0
1, 247204, Note_off_c, 0, 73, 37
1, 247247, Note_on_c, 0, 66, 72
1, 247259, Control_c, 0, 64, 25
1, 247266, Note_off_c, 0, 66, 66
1, 247269, Note_on_c, 0, 60, 36
1, 247275, Control_c, 0, 64, 62
1, 247279, Note_on_c, 0, 53, 47
1, 247289, Note_on_c, 0, 67, 46
1, 247290, Control_c, 0, 64, 80
1, 247291, Note_on_c, 0, 59, 9
1, 247298, Note_on_c, 0, 72, 69
1, 247302, Note_off_c, 0, 60, 33
1, 247303, Note_off_c, 0, 53, 59
1, 247305, Control_c, 0, 64, 127
1, 247315, Note_off_c, 0, 67, 57
1, 247318, Note_on_c, 0, 48, 36
1, 247326, Note_off_c, 0, 72, 65
1, 247331, Note_off_c, 0, 59, 54
1, 247332, Note_on_c, 0, 76, 78
1, 247353, Note_off_c, 0, 76, 70
1, 247365, Note_off_c, 0, 48, 42
1, 247378, Note_on_c, 0, 74, 57
1, 247415, Poly_aftertouch_c, 0, 75, 0
1, 247430, Control_c, 0, 64, 104
1, 247431, Note_on_c, 0, 81, 79
1, 247433, Note_off_c, 0, 74, 66
1, 247445, Control_c, 0, 64, 60
1, 247457, Note_on_c, 0, 84, 74
1, 247460, Control_c, 0, 64, 0
1, 247469, Note_off_c, 0, 81, 61
1, 247486, Note_on_c, 0, 88, 102
1, 247488, Note_off_c, 0, 84, 65
1, 247489, Note_on_c, 0, 43, 90
1, 247496, Note_on_c, 0, 36, 83
1, 247516, Note_on_c, 0, 86, 9
1, 247517, Note_off_c, 0, 86, 127
1, 247518, Note_off_c, 0, 88, 70
1, 247519, Control_c, 0, 64, 96
1, 247530, Note_off_c, 0, 36, 66
1, 247530, Note_off_c, 0, 43, 67
1, 247534, Control_c, 0, 64, 127
1, 247721, Note_on_c, 0, 74, 65
1, 247725, Poly_aftertouch_c, 0, 61, 127
1, 247741, Note_on_c, 0, 67, 92
1, 247747, Note_on_c, 0, 64, 81
1, 247749, Note_on_c, 0, 76, 86
1, 247750, Note_on_c, 0, 60, 79
1, 247759, Note_off_c, 0, 74, 65
1, 247767, Note_off_c, 0, 67, 66
1, 247771, Note_off_c, 0, 64, 68
1, 247777, Note_off_c, 0, 60, 65
1, 247782, Note_on_c, 0, 59, 40
1, 247784, Note_off_c, 0, 76, 64
1, 247789, Poly_aftertouch_c, 0, 61, 0
1, 247800, Control_c, 0, 64, 69
1, 247810, Note_off_c, 0, 59, 54
1, 247815, Control_c, 0, 64, 0
1, 247909, Poly_aftertouch_c, 0, 64, 0
1, 247960, Note_on_c, 0, 74, 59
1, 247965, Note_on_c, 0, 49, 80
1, 247991, Note_on_c, 0, 76, 88
1, 247996, Note_on_c, 0, 56, 92
1, 248001, Note_off_c, 0, 74, 67
1, 248003, Note_on_c, 0, 64, 70
1, 248008, Note_on_c, 0, 62, 86
1, 248008, Control_c, 0, 64, 37
1, 248023, Control_c, 0, 64, 68
1, 248029, Note_off_c, 0, 49, 65
1, 248035, Note_off_c, 0, 56, 64
1, 248038, Control_c, 0, 64, 90
1, 248053, Control_c, 0, 64, 127
1, 248114, Note_off_c, 0, 62, 56
1, 248119, Poly_aftertouch_c, 0, 74, 0
1, 248217, Note_on_c, 0, 85, 73
1, 248223, Note_on_c, 0, 88, 97
1, 248233, Note_off_c, 0, 85, 70
1, 248252, Note_off_c, 0, 88, 66
1, 248302, Note_off_c, 0, 64, 62
1, 248329, Note_off_c, 0, 76, 61
1, 248364, Note_on_c, 0, 68, 85
1, 248417, Note_off_c, 0, 68, 64
1, 248430, Control_c, 0, 64, 83
1, 248445, Control_c, 0, 64, 47
1, 248460, Control_c, 0, 64, 0
1, 248472, Note_on_c, 0, 66, 84
1, 248490, Control_c, 0, 64, 44
1, 248500, Note_on_c, 0, 49, 3
1, 248504, Control_c, 0, 64, 68
1, 248519, Control_c, 0, 64, 84
1, 248526, Note_off_c, 0, 66, 64
1, 248534, Control_c, 0, 64, 101
1, 248536, Note_on_c, 0, 56, 75
1, 248547, Note_off_c, 0, 49, 46
1, 248549, Control_c, 0, 64, 127
1, 248579, Note_off_c, 0, 56, 57
1, 248582, Note_on_c, 0, 76, 89
1, 248603, Note_on_c, 0, 61, 79
1, 248609, Note_off_c, 0, 76, 62
1, 248627, Note_off_c, 0, 61, 67
1, 248687, Note_on_c, 0, 66, 87
1, 248704, Note_on_c, 0, 78, 69
1, 248721, Note_off_c, 0, 78, 65
1, 248723, Note_on_c, 0, 79, 57
1, 248740, Note_off_c, 0, 66, 60
1, 248743, Note_off_c, 0, 79, 63
1, 248785, Note_on_c, 0, 68, 81
1, 248804, Note_on_c, 0, 92, 96
1, 248807, Note_on_c, 0, 80, 95
1, 248808, Note_off_c, 0, 68, 69
1, 248820, Note_off_c, 0, 92, 76
1, 248824, Note_off_c, 0, 80, 71
1, 248892, Note_on_c, 0, 68, 14
1, 248899, Control_c, 0, 64, 73
1, 248907, Note_on_c, 0, 50, 84
1, 248914, Control_c, 0, 64, 41
1, 248919, Note_off_c, 0, 68, 52
1, 248928, Control_c, 0, 64, 23
1, 248929, Note_on_c, 0, 65, 91
1, 248943, Control_c, 0, 64, 57
1, 248958, Control_c, 0, 64, 82
1, 248972, Note_off_c, 0, 65, 66
1, 248972, Control_c, 0, 64, 127
1, 248996, Note_off_c, 0, 50, 66
1, 248999, Note_on_c, 0, 57, 47
1, 249020, Note_on_c, 0, 62, 86
1, 249029, Note_off_c, 0, 57, 55
1, 249034, Note_on_c, 0, 76, 94
1, 249051, Note_off_c, 0, 62, 64
1, 249069, Note_on_c, 0, 65, 19
1, 249070, Note_off_c, 0, 65, 127
1, 249073, Note_off_c, 0, 76, 66
1, 249104, Poly_aftertouch_c, 0, 65, 0
1, 249122, Poly_aftertouch_c, 0, 68, 0
1, 249124, Note_on_c, 0, 65, 73
1, 249137, Note_on_c, 0, 77, 95
1, 249157, Note_off_c, 0, 77, 72
1, 249159, Note_off_c, 0, 65, 65
1, 249235, Note_on_c, 0, 92, 89
1, 249253, Note_off_c, 0, 92, 73
1, 249257, Note_on_c, 0, 80, 69
1, 249262, Note_on_c, 0, 82, 50
1, 249263, Note_off_c, 0, 82, 127
1, 249273, Note_off_c, 0, 80, 67
1, 249314, Control_c, 0, 64, 69
1, 249328, Control_c, 0, 64, 0
1, 249354, Note_on_c, 0, 59, 81
1, 249358, Control_c, 0, 64, 25
1, 249360, Note_on_c, 0, 71, 100
1, 249361, Note_on_c, 0, 77, 87
1, 249363, Note_on_c, 0, 76, 88
1, 249372, Note_on_c, 0, 52, 68
1, 249372, Control_c, 0, 64, 74
1, 249375, Note_off_c, 0, 71, 71
1, 249381, Note_off_c, 0, 59, 71
1, 249381, Note_off_c, 0, 77, 72
1, 249385, Note_off_c, 0, 76, 70
1, 249387, Control_c, 0, 64, 127
1, 249390, Note_on_c, 0, 53, 46
1, 249402, Note_off_c, 0, 52, 66
1, 249416, Note_off_c, 0, 53, 54
1, 249423, Note_on_c, 0, 60, 6
1, 249434, Note_on_c, 0, 71, 36
1, 249446, Control_c, 0, 64, 79
1, 249458, Note_off_c, 0, 60, 32
1, 249461, Note_off_c, 0, 71, 56
1, 249461, Control_c, 0, 64, 48
1, 249476, Control_c, 0, 64, 0
1, 249567, Note_on_c, 0, 66, 73
1, 249581, Note_on_c, 0, 60, 78
1, 249599, Note_off_c, 0, 66, 67
1, 249601, Note_on_c, 0, 54, 75
1, 249602, Control_c, 0, 64, 58
1, 249610, Note_on_c, 0, 67, 56
1, 249613, Note_off_c, 0, 60, 66
1, 249614, Note_on_c, 0, 50, 71
1, 249617, Control_c, 0, 64, 79
1, 249619, Note_on_c, 0, 72, 77
1, 249632, Note_off_c, 0, 54, 68
1, 249632, Control_c, 0, 64, 127
1, 249635, Note_off_c, 0, 67, 59
1, 249646, Note_off_c, 0, 50, 67
1, 249654, Note_on_c, 0, 75, 55
1, 249658, Note_on_c, 0, 76, 80
1, 249662, Note_off_c, 0, 72, 64
1, 249676, Note_off_c, 0, 75, 63
1, 249679, Note_off_c, 0, 76, 68
1, 249692, Note_on_c, 0, 74, 22
1, 249714, Note_on_c, 0, 76, 91
1, 249730, Note_off_c, 0, 74, 0
1, 249730, Note_on_c, 0, 74, 21
1, 249759, Poly_aftertouch_c, 0, 60, 0
1, 249768, Note_off_c, 0, 76, 62
1, 249778, Note_off_c, 0, 74, 65
1, 249798, Note_on_c, 0, 81, 61
1, 249804, Note_on_c, 0, 83, 71
1, 249825, Note_on_c, 0, 86, 80
1, 249825, Control_c, 0, 64, 62
1, 249828, Note_off_c, 0, 83, 69
1, 249830, Note_off_c, 0, 81, 67
1, 249832, Note_on_c, 0, 84, 82
1, 249840, Control_c, 0, 64, 0
1, 249844, Note_on_c, 0, 88, 97
1, 249845, Note_on_c, 0, 43, 92
1, 249848, Note_off_c, 0, 86, 71
1, 249849, Note_on_c, 0, 36, 80
1, 249851, Note_off_c, 0, 84, 65
1, 249870, Control_c, 0, 64, 49
1, 249877, Note_off_c, 0, 88, 69
1, 249885, Control_c, 0, 64, 92
1, 249893, Note_off_c, 0, 43, 67
1, 249894, Note_off_c, 0, 36, 64
1, 249900, Control_c, 0, 64, 127
1, 250099, Note_on_c, 0, 74, 62
1, 250138, Note_on_c, 0, 67, 95
1, 250140, Note_on_c, 0, 64, 77
1, 250141, Note_on_c, 0, 76, 92
1, 250146, Note_on_c, 0, 59, 73
1, 250147, Note_on_c, 0, 60, 77
1, 250154, Note_off_c, 0, 74, 64
1, 250156, Note_on_c, 0, 62, 65
1, 250166, Note_off_c, 0, 64, 68
1, 250172, Note_off_c, 0, 60, 65
1, 250174, Note_off_c, 0, 62, 66
1, 250175, Note_on_c, 0, 70, 44
1, 250176, Note_off_c, 0, 59, 67
1, 250177, Note_off_c, 0, 67, 65
1, 250184, Note_off_c, 0, 76, 66
1, 250200, Note_off_c, 0, 70, 59
1, 250210, Control_c, 0, 64, 86
1, 250225, Control_c, 0, 64, 51
1, 250240, Control_c, 0, 64, 0
1, 250376, Note_on_c, 0, 74, 62
1, 250414, Note_off_c, 0, 74, 65
1, 250433, Note_on_c, 0, 76, 86
1, 250434, Note_on_c, 0, 56, 92
1, 250436, Note_on_c, 0, 49, 90
1, 250439, Note_on_c, 0, 64, 89
1, 250471, Control_c, 0, 64, 56
1, 250477, Note_off_c, 0, 56, 66
1, 250481, Note_off_c, 0, 49, 63
1, 250486, Control_c, 0, 64, 78
1, 250500, Control_c, 0, 64, 114
1, 250515, Control_c, 0, 64, 127
1, 250717, Note_on_c, 0, 85, 87
1, 250745, Note_off_c, 0, 85, 66
1, 250773, Note_on_c, 0, 88, 101
1, 250802, Note_off_c, 0, 88, 71
1, 250870, Note_off_c, 0, 64, 60
1, 250917, Note_off_c, 0, 76, 61
1, 250953, Note_on_c, 0, 68, 86
1, 250995, Note_off_c, 0, 68, 65
1, 251063, Control_c, 0, 64, 104
1, 251078, Control_c, 0, 64, 74
1, 251100, Control_c, 0, 64, 54
1, 251115, Control_c, 0, 64, 0
1, 251155, Note_on_c, 0, 49, 76
1, 251168, Note_on_c, 0, 66, 88
1, 251174, Control_c, 0, 64, 29
1, 251189, Control_c, 0, 64, 58
1, 251204, Control_c, 0, 64, 72
1, 251218, Control_c, 0, 64, 86
1, 251231, Note_off_c, 0, 66, 63
1, 251233, Control_c, 0, 64, 127
1, 251259, Note_off_c, 0, 49, 60
1, 251285, Note_on_c, 0, 56, 69
1, 251307, Note_on_c, 0, 76, 82
1, 251324, Note_off_c, 0, 56, 62
1, 251338, Note_off_c, 0, 76, 62
1, 251375, Note_on_c, 0, 61, 60
1, 251380, Poly_aftertouch_c, 0, 64, 0
1, 251398, Note_off_c, 0, 61, 65
1, 251467, Note_on_c, 0, 79, 57
1, 251469, Note_on_c, 0, 66, 56
1, 251483, Note_on_c, 0, 67, 41
1, 251488, Note_off_c, 0, 79, 61
1, 251499, Note_off_c, 0, 66, 54
1, 251514, Note_off_c, 0, 67, 51
1, 251567, Note_on_c, 0, 68, 77
1, 251575, Note_on_c, 0, 92, 90
1, 251578, Note_on_c, 0, 80, 86
1, 251591, Note_off_c, 0, 68, 68
1, 251593, Note_off_c, 0, 92, 75
1, 251599, Note_off_c, 0, 80, 68
1, 251664, Control_c, 0, 64, 71
1, 251679, Control_c, 0, 64, 38
1, 251693, Note_on_c, 0, 50, 76
1, 251694, Control_c, 0, 64, 8
1, 251707, Note_on_c, 0, 65, 82
1, 251708, Control_c, 0, 64, 46
1, 251723, Control_c, 0, 64, 70
1, 251738, Control_c, 0, 64, 127
1, 251754, Note_off_c, 0, 65, 62
1, 251773, Note_off_c, 0, 50, 66
1, 251789, Note_on_c, 0, 57, 76
1, 251825, Note_off_c, 0, 57, 64
1, 251826, Note_on_c, 0, 76, 89
1, 251840, Note_on_c, 0, 62, 81
1, 251863, Note_on_c, 0, 65, 32
1, 251871, Note_off_c, 0, 76, 59
1, 251880, Note_on_c, 0, 77, 33
1, 251886, Note_off_c, 0, 65, 60
1, 251894, Note_off_c, 0, 62, 63
1, 251912, Note_off_c, 0, 77, 51
1, 251944, Note_on_c, 0, 65, 86
1, 251969, Note_on_c, 0, 66, 65
1, 251974, Note_on_c, 0, 77, 65
1, 251980, Note_on_c, 0, 79, 60
1, 251989, Note_off_c, 0, 66, 61
1, 251993, Note_off_c, 0, 77, 66
1, 252000, Note_off_c, 0, 79, 63
1, 252004, Note_off_c, 0, 65, 62
1, 252046, Note_on_c, 0, 68, 85
1, 252067, Note_off_c, 0, 68, 71
1, 252073, Note_on_c, 0, 80, 92
1, 252089, Note_off_c, 0, 80, 73
1, 252108, Note_on_c, 0, 90, 23
1, 252131, Note_on_c, 0, 68, 34
1, 252132, Control_c, 0, 64, 122
1, 252144, Note_off_c, 0, 90, 52
1, 252146, Control_c, 0, 64, 63
1, 252160, Note_off_c, 0, 68, 54
1, 252161, Control_c, 0, 64, 34
1, 252164, Note_on_c, 0, 49, 77
1, 252176, Control_c, 0, 64, 43
1, 252186, Note_on_c, 0, 66, 86
1, 252190, Control_c, 0, 64, 65
1, 252205, Control_c, 0, 64, 96
1, 252220, Control_c, 0, 64, 127
1, 252229, Note_off_c, 0, 66, 63
1, 252242, Note_on_c, 0, 56, 77
1, 252252, Note_off_c, 0, 49, 62
1, 252298, Note_on_c, 0, 76, 91
1, 252299, Note_off_c, 0, 56, 64
1, 252310, Note_on_c, 0, 61, 86
1, 252336, Note_off_c, 0, 76, 61
1, 252340, Note_off_c, 0, 61, 62
1, 252362, Poly_aftertouch_c, 0, 64, 127
1, 252400, Note_on_c, 0, 66, 94
1, 252400, Poly_aftertouch_c, 0, 64, 0
1, 252409, Note_on_c, 0, 78, 96
1, 252445, Note_off_c, 0, 78, 65
1, 252469, Note_off_c, 0, 66, 58
1, 252498, Note_on_c, 0, 68, 95
1, 252522, Note_on_c, 0, 92, 90
1, 252525, Note_on_c, 0, 80, 95
1, 252536, Note_off_c, 0, 92, 76
1, 252540, Note_off_c, 0, 68, 67
1, 252541, Note_off_c, 0, 80, 71
1, 252597, Control_c, 0, 64, 108
1, 252612, Control_c, 0, 64, 65
1, 252620, Note_on_c, 0, 50, 88
1, 252627, Control_c, 0, 64, 59
1, 252641, Note_on_c, 0, 66, 75
1, 252642, Note_off_c, 0, 66, 127
1, 252642, Control_c, 0, 64, 72
1, 252643, Note_on_c, 0, 65, 102
1, 252657, Control_c, 0, 64, 127
1, 252678, Note_off_c, 0, 65, 62
1, 252705, Note_on_c, 0, 57, 83
1, 252719, Note_off_c, 0, 50, 64
1, 252742, Note_on_c, 0, 66, 11
1, 252752, Note_on_c, 0, 76, 98
1, 252758, Note_off_c, 0, 57, 63
1, 252761, Note_on_c, 0, 62, 83
1, 252779, Note_on_c, 0, 64, 34
1, 252783, Note_off_c, 0, 66, 53
1, 252791, Note_off_c, 0, 76, 66
1, 252803, Note_off_c, 0, 62, 64
1, 252810, Note_off_c, 0, 64, 55
1, 252842, Note_on_c, 0, 65, 68
1, 252857, Note_on_c, 0, 76, 104
1, 252884, Note_off_c, 0, 76, 65
1, 252914, Note_off_c, 0, 65, 64
1, 252943, Note_on_c, 0, 68, 95
1, 252961, Note_on_c, 0, 92, 99
1, 252962, Note_on_c, 0, 80, 94
1, 252975, Note_off_c, 0, 92, 76
1, 252982, Note_off_c, 0, 80, 69
1, 252983, Note_off_c, 0, 68, 66
1, 253028, Control_c, 0, 64, 73
1, 253043, Control_c, 0, 64, 0
1, 253065, Note_on_c, 0, 49, 81
1, 253073, Control_c, 0, 64, 43
1, 253075, Note_on_c, 0, 67, 97
1, 253087, Control_c, 0, 64, 72
1, 253098, Note_off_c, 0, 67, 69
1, 253102, Control_c, 0, 64, 127
1, 253116, Note_on_c, 0, 56, 74
1, 253156, Note_off_c, 0, 49, 63
1, 253174, Note_off_c, 0, 56, 63
1, 253177, Note_on_c, 0, 76, 99
1, 253182, Note_on_c, 0, 64, 72
1, 253184, Note_on_c, 0, 61, 88
1, 253199, Note_off_c, 0, 64, 67
1, 253215, Note_off_c, 0, 76, 64
1, 253221, Note_off_c, 0, 61, 60
1, 253274, Note_on_c, 0, 66, 99
1, 253283, Note_on_c, 0, 78, 96
1, 253320, Note_off_c, 0, 78, 63
1, 253343, Note_off_c, 0, 66, 63
1, 253381, Note_on_c, 0, 68, 95
1, 253399, Note_on_c, 0, 80, 108
1, 253399, Note_on_c, 0, 92, 96
1, 253414, Note_off_c, 0, 92, 73
1, 253420, Note_off_c, 0, 68, 67
1, 253432, Note_off_c, 0, 80, 64
1, 253503, Note_on_c, 0, 50, 95
1, 253524, Control_c, 0, 64, 105
1, 253528, Note_on_c, 0, 65, 104
1, 253539, Control_c, 0, 64, 53
1, 253543, Note_on_c, 0, 52, 42
1, 253554, Control_c, 0, 64, 0
1, 253573, Note_off_c, 0, 52, 43
1, 253573, Note_off_c, 0, 65, 65
1, 253608, Note_on_c, 0, 57, 92
1, 253613, Control_c, 0, 64, 48
1, 253628, Control_c, 0, 64, 68
1, 253639, Note_off_c, 0, 50, 65
1, 253643, Note_on_c, 0, 76, 96
1, 253643, Control_c, 0, 64, 80
1, 253651, Note_on_c, 0, 64, 74
1, 253658, Control_c, 0, 64, 104
1, 253667, Note_on_c, 0, 65, 59
1, 253668, Note_off_c, 0, 65, 127
1, 253669, Note_off_c, 0, 64, 67
1, 253673, Note_off_c, 0, 57, 64
1, 253673, Control_c, 0, 64, 127
1, 253684, Note_off_c, 0, 76, 67
1, 253691, Note_on_c, 0, 62, 97
1, 253745, Note_off_c, 0, 62, 67
1, 253787, Note_on_c, 0, 77, 92
1, 253792, Note_on_c, 0, 79, 91
1, 253808, Note_on_c, 0, 65, 74
1, 253811, Note_off_c, 0, 79, 71
1, 253813, Note_off_c, 0, 77, 68
1, 253819, Note_on_c, 0, 67, 58
1, 253840, Note_off_c, 0, 67, 62
1, 253855, Note_off_c, 0, 65, 60
1, 253879, Note_on_c, 0, 79, 29
1, 253880, Note_off_c, 0, 79, 127
1, 253947, Note_on_c, 0, 68, 97
1, 253948, Note_on_c, 0, 80, 96
1, 253948, Note_on_c, 0, 92, 107
1, 253954, Note_on_c, 0, 57, 79
1, 253971, Note_off_c, 0, 80, 64
1, 253980, Note_off_c, 0, 92, 68
1, 253986, Note_off_c, 0, 57, 67
1, 253995, Note_off_c, 0, 68, 65
1, 254035, Poly_aftertouch_c, 0, 70, 127
1, 254067, Poly_aftertouch_c, 0, 70, 0
1, 254125, Control_c, 0, 64, 99
1, 254140, Control_c, 0, 64, 60
1, 254155, Control_c, 0, 64, 0
1, 254214, Control_c, 0, 64, 29
1, 254229, Control_c, 0, 64, 54
1, 254243, Control_c, 0, 64, 65
1, 254246, Note_on_c, 0, 67, 62
1, 254250, Note_on_c, 0, 60, 56
1, 254252, Note_on_c, 0, 64, 62
1, 254252, Note_on_c, 0, 76, 74
1, 254254, Note_on_c, 0, 88, 76
1, 254256, Note_on_c, 0, 71, 70
1, 254258, Control_c, 0, 64, 78
1, 254273, Control_c, 0, 64, 112
1, 254283, Note_off_c, 0, 67, 62
1, 254287, Note_off_c, 0, 76, 61
1, 254288, Control_c, 0, 64, 127
1, 254302, Note_off_c, 0, 71, 62
1, 254308, Note_off_c, 0, 88, 66
1, 254310, Note_off_c, 0, 64, 64
1, 254326, Note_off_c, 0, 60, 61
1, 254387, Note_on_c, 0, 69, 72
1, 254391, Note_on_c, 0, 77, 71
1, 254403, Note_on_c, 0, 89, 59
1, 254414, Note_off_c, 0, 77, 67
1, 254415, Note_off_c, 0, 69, 67
1, 254422, Note_off_c, 0, 89, 64
1, 254424, Note_on_c, 0, 91, 45
1, 254449, Note_off_c, 0, 91, 57
1, 254495, Note_on_c, 0, 79, 83
1, 254496, Note_on_c, 0, 67, 83
1, 254499, Note_on_c, 0, 91, 85
1, 254517, Note_off_c, 0, 79, 71
1, 254522, Note_off_c, 0, 91, 68
1, 254525, Note_off_c, 0, 67, 65
1, 254592, Note_on_c, 0, 93, 93
1, 254592, Note_on_c, 0, 81, 83
1, 254614, Note_on_c, 0, 60, 46
1, 254614, Note_off_c, 0, 81, 69
1, 254615, Note_on_c, 0, 67, 50
1, 254618, Note_on_c, 0, 69, 56
1, 254619, Note_on_c, 0, 57, 51
1, 254623, Note_off_c, 0, 93, 64
1, 254624, Note_on_c, 0, 65, 43
1, 254639, Note_off_c, 0, 67, 59
1, 254640, Note_off_c, 0, 60, 55
1, 254642, Note_on_c, 0, 64, 4
1, 254644, Note_off_c, 0, 69, 64
1, 254645, Note_off_c, 0, 57, 58
1, 254645, Control_c, 0, 64, 75
1, 254652, Note_off_c, 0, 65, 54
1, 254659, Control_c, 0, 64, 73
1, 254672, Note_off_c, 0, 64, 0
1, 254674, Control_c, 0, 64, 85
1, 254686, Note_on_c, 0, 64, 26
1, 254689, Note_on_c, 0, 95, 97
1, 254689, Control_c, 0, 64, 127
1, 254696, Note_on_c, 0, 83, 82
1, 254701, Note_on_c, 0, 60, 81
1, 254703, Note_on_c, 0, 57, 79
1, 254705, Note_on_c, 0, 84, 66
1, 254713, Note_on_c, 0, 67, 51
1, 254719, Note_off_c, 0, 83, 70
1, 254721, Note_off_c, 0, 84, 67
1, 254724, Note_off_c, 0, 95, 68
1, 254725, Note_off_c, 0, 60, 65
1, 254727, Note_off_c, 0, 64, 65
1, 254735, Note_off_c, 0, 57, 65
1, 254738, Note_off_c, 0, 67, 60
1, 254791, Note_on_c, 0, 93, 99
1, 254794, Note_on_c, 0, 81, 83
1, 254798, Note_on_c, 0, 60, 38
1, 254802, Note_on_c, 0, 64, 56
1, 254802, Note_on_c, 0, 65, 53
1, 254815, Note_off_c, 0, 81, 69
1, 254816, Note_off_c, 0, 93, 63
1, 254832, Note_off_c, 0, 65, 61
1, 254833, Note_off_c, 0, 64, 61
1, 254835, Note_off_c, 0, 60, 33
1, 254840, Note_on_c, 0, 67, 8
1, 254872, Note_off_c, 0, 67, 0
1, 254884, Note_on_c, 0, 91, 86
1, 254889, Note_on_c, 0, 79, 88
1, 254891, Note_on_c, 0, 65, 78
1, 254900, Note_on_c, 0, 67, 27
1, 254913, Note_off_c, 0, 79, 68
1, 254914, Note_off_c, 0, 65, 68
1, 254915, Note_off_c, 0, 91, 63
1, 254919, Note_on_c, 0, 64, 35
1, 254920, Note_off_c, 0, 64, 127
1, 254920, Note_on_c, 0, 60, 42
1, 254942, Note_off_c, 0, 67, 40
1, 254943, Note_off_c, 0, 60, 57
1, 254946, Poly_aftertouch_c, 0, 64, 0
1, 254970, Poly_aftertouch_c, 0, 62, 0
1, 254973, Poly_aftertouch_c, 0, 64, 0
1, 254976, Note_on_c, 0, 67, 86
1, 254981, Note_on_c, 0, 89, 93
1, 254981, Note_on_c, 0, 64, 60
1, 254982, Note_on_c, 0, 77, 90
1, 254985, Note_on_c, 0, 65, 44
1, 255000, Note_off_c, 0, 67, 68
1, 255000, Note_on_c, 0, 79, 57
1, 255005, Note_off_c, 0, 77, 70
1, 255007, Control_c, 0, 64, 87
1, 255008, Note_off_c, 0, 89, 64
1, 255009, Note_off_c, 0, 64, 67
1, 255015, Note_off_c, 0, 65, 57
1, 255018, Note_off_c, 0, 79, 39
1, 255022, Control_c, 0, 64, 63
1, 255037, Control_c, 0, 64, 62
1, 255046, Poly_aftertouch_c, 0, 69, 0
1, 255052, Control_c, 0, 64, 82
1, 255060, Note_on_c, 0, 67, 91
1, 255065, Note_on_c, 0, 60, 52
1, 255066, Control_c, 0, 64, 127
1, 255067, Note_on_c, 0, 71, 90
1, 255069, Note_on_c, 0, 64, 81
1, 255071, Note_on_c, 0, 88, 98
1, 255072, Note_on_c, 0, 76, 95
1, 255087, Note_off_c, 0, 71, 68
1, 255089, Note_off_c, 0, 67, 65
1, 255093, Note_off_c, 0, 64, 68
1, 255100, Note_off_c, 0, 76, 64
1, 255105, Note_off_c, 0, 88, 70
1, 255111, Note_off_c, 0, 60, 63
1, 255157, Note_on_c, 0, 69, 96
1, 255166, Note_on_c, 0, 89, 96
1, 255167, Note_on_c, 0, 77, 90
1, 255177, Note_on_c, 0, 65, 45
1, 255180, Note_off_c, 0, 69, 68
1, 255181, Note_on_c, 0, 62, 50
1, 255191, Note_off_c, 0, 77, 68
1, 255200, Note_off_c, 0, 89, 67
1, 255205, Note_off_c, 0, 62, 60
1, 255206, Note_off_c, 0, 65, 53
1, 255223, Note_on_c, 0, 60, 3
1, 255234, Note_off_c, 0, 60, 0
1, 255244, Poly_aftertouch_c, 0, 64, 0
1, 255252, Note_on_c, 0, 67, 93
1, 255252, Note_on_c, 0, 91, 95
1, 255253, Note_on_c, 0, 79, 91
1, 255262, Poly_aftertouch_c, 0, 64, 0
1, 255272, Poly_aftertouch_c, 0, 60, 127
1, 255278, Note_off_c, 0, 67, 65
1, 255279, Note_off_c, 0, 79, 68
1, 255286, Note_off_c, 0, 91, 68
1, 255286, Note_on_c, 0, 85, 38
1, 255287, Note_on_c, 0, 60, 3
1, 255299, Poly_aftertouch_c, 0, 64, 127
1, 255315, Note_off_c, 0, 85, 58
1, 255325, Note_off_c, 0, 60, 32
1, 255327, Poly_aftertouch_c, 0, 62, 0
1, 255340, Note_on_c, 0, 65, 88
1, 255343, Note_on_c, 0, 59, 56
1, 255343, Note_on_c, 0, 62, 26
1, 255344, Poly_aftertouch_c, 0, 64, 0
1, 255347, Note_on_c, 0, 93, 97
1, 255348, Note_on_c, 0, 81, 93
1, 255369, Note_off_c, 0, 59, 67
1, 255370, Note_off_c, 0, 81, 69
1, 255372, Note_off_c, 0, 62, 61
1, 255372, Note_off_c, 0, 65, 64
1, 255378, Control_c, 0, 64, 95
1, 255379, Note_off_c, 0, 93, 66
1, 255393, Control_c, 0, 64, 72
1, 255408, Control_c, 0, 64, 72
1, 255423, Control_c, 0, 64, 87
1, 255429, Note_on_c, 0, 64, 96
1, 255432, Poly_aftertouch_c, 0, 55, 0
1, 255435, Note_on_c, 0, 53, 83
1, 255435, Note_on_c, 0, 57, 85
1, 255435, Note_on_c, 0, 95, 103
1, 255436, Note_on_c, 0, 83, 102
1, 255438, Control_c, 0, 64, 127
1, 255438, Note_on_c, 0, 60, 85
1, 255450, Poly_aftertouch_c, 0, 55, 0
1, 255460, Note_off_c, 0, 60, 66
1, 255461, Note_off_c, 0, 57, 69
1, 255464, Note_off_c, 0, 64, 67
1, 255468, Note_off_c, 0, 53, 64
1, 255468, Note_off_c, 0, 83, 68
1, 255468, Note_off_c, 0, 95, 70
1, 255522, Note_on_c, 0, 65, 94
1, 255530, Note_on_c, 0, 95, 95
1, 255533, Note_on_c, 0, 81, 87
1, 255537, Note_on_c, 0, 93, 94
1, 255538, Note_on_c, 0, 60, 25
1, 255542, Note_on_c, 0, 83, 74
1, 255549, Note_on_c, 0, 57, 51
1, 255550, Note_off_c, 0, 57, 127
1, 255552, Note_off_c, 0, 81, 71
1, 255554, Note_off_c, 0, 93, 73
1, 255555, Note_off_c, 0, 95, 66
1, 255556, Note_off_c, 0, 83, 70
1, 255561, Note_off_c, 0, 65, 66
1, 255565, Note_off_c, 0, 60, 45
1, 255622, Note_on_c, 0, 93, 90
1, 255624, Note_on_c, 0, 67, 98
1, 255625, Note_on_c, 0, 79, 94
1, 255628, Note_on_c, 0, 91, 95
1, 255631, Note_on_c, 0, 81, 73
1, 255646, Note_off_c, 0, 81, 68
1, 255649, Note_off_c, 0, 79, 68
1, 255652, Note_on_c, 0, 61, 13
1, 255653, Note_off_c, 0, 61, 127
1, 255654, Note_off_c, 0, 91, 61
1, 255657, Note_off_c, 0, 93, 66
1, 255662, Note_off_c, 0, 67, 64
1, 255697, Poly_aftertouch_c, 0, 61, 0
1, 255712, Control_c, 0, 64, 97
1, 255713, Note_on_c, 0, 77, 104
1, 255714, Note_on_c, 0, 89, 99
1, 255715, Note_on_c, 0, 69, 99
1, 255723, Note_on_c, 0, 91, 68
1, 255727, Control_c, 0, 64, 59
1, 255730, Note_on_c, 0, 81, 17
1, 255738, Note_off_c, 0, 69, 68
1, 255739, Note_off_c, 0, 91, 40
1, 255739, Note_off_c, 0, 81, 48
1, 255742, Control_c, 0, 64, 38
1, 255745, Note_off_c, 0, 77, 68
1, 255747, Note_off_c, 0, 89, 69
1, 255757, Control_c, 0, 64, 54
1, 255760, Note_on_c, 0, 62, 12
1, 255761, Note_off_c, 0, 62, 127
1, 255772, Control_c, 0, 64, 73
1, 255787, Control_c, 0, 64, 127
1, 255805, Note_on_c, 0, 76, 105
1, 255807, Note_on_c, 0, 71, 98
1, 255807, Note_on_c, 0, 88, 103
1, 255814, Note_on_c, 0, 60, 81
1, 255818, Note_on_c, 0, 64, 70
1, 255819, Note_on_c, 0, 67, 74
1, 255820, Note_on_c, 0, 72, 66
1, 255821, Note_off_c, 0, 72, 127
1, 255829, Poly_aftertouch_c, 0, 62, 0
1, 255835, Note_off_c, 0, 67, 66
1, 255837, Note_off_c, 0, 76, 67
1, 255838, Note_off_c, 0, 71, 66
1, 255838, Note_off_c, 0, 88, 70
1, 255845, Note_off_c, 0, 60, 64
1, 255846, Note_off_c, 0, 64, 68
1, 255897, Poly_aftertouch_c, 0, 63, 0
1, 255900, Note_on_c, 0, 69, 103
1, 255902, Note_on_c, 0, 77, 97
1, 255904, Note_on_c, 0, 89, 99
1, 255913, Poly_aftertouch_c, 0, 63, 0
1, 255922, Note_on_c, 0, 62, 65
1, 255923, Note_off_c, 0, 62, 127
1, 255934, Note_off_c, 0, 69, 68
1, 255936, Note_off_c, 0, 89, 68
1, 255939, Note_off_c, 0, 77, 66
1, 255991, Poly_aftertouch_c, 0, 64, 0
1, 255993, Note_on_c, 0, 79, 98
1, 255993, Note_on_c, 0, 91, 97
1, 255997, Note_on_c, 0, 67, 93
1, 256004, Poly_aftertouch_c, 0, 65, 0
1, 256007, Note_on_c, 0, 64, 45
1, 256018, Note_on_c, 0, 60, 50
1, 256019, Poly_aftertouch_c, 0, 59, 0
1, 256029, Note_off_c, 0, 79, 67
1, 256031, Note_off_c, 0, 91, 67
1, 256034, Note_on_c, 0, 62, 35
1, 256035, Note_off_c, 0, 62, 127
1, 256038, Note_off_c, 0, 64, 57
1, 256040, Note_off_c, 0, 60, 61
1, 256042, Note_off_c, 0, 67, 66
1, 256094, Note_on_c, 0, 93, 102
1, 256094, Note_on_c, 0, 81, 98
1, 256101, Note_on_c, 0, 65, 88
1, 256118, Note_on_c, 0, 57, 38
1, 256124, Note_off_c, 0, 65, 69
1, 256127, Note_on_c, 0, 60, 39
1, 256127, Note_on_c, 0, 64, 52
1, 256127, Note_off_c, 0, 81, 67
1, 256128, Note_off_c, 0, 93, 68
1, 256128, Control_c, 0, 64, 89
1, 256143, Control_c, 0, 64, 62
1, 256149, Note_off_c, 0, 57, 55
1, 256150, Note_off_c, 0, 64, 63
1, 256157, Control_c, 0, 64, 35
1, 256158, Note_off_c, 0, 60, 36
1, 256172, Control_c, 0, 64, 38
1, 256187, Control_c, 0, 64, 63
1, 256192, Note_on_c, 0, 83, 104
1, 256192, Note_on_c, 0, 95, 109
1, 256195, Note_on_c, 0, 60, 86
1, 256196, Note_on_c, 0, 50, 87
1, 256198, Note_on_c, 0, 53, 85
1, 256201, Note_on_c, 0, 57, 85
1, 256202, Control_c, 0, 64, 107
1, 256217, Note_off_c, 0, 57, 69
1, 256217, Note_off_c, 0, 60, 66
1, 256217, Control_c, 0, 64, 127
1, 256222, Note_off_c, 0, 53, 66
1, 256227, Note_off_c, 0, 83, 68
1, 256228, Note_off_c, 0, 50, 67
1, 256228, Note_off_c, 0, 95, 70
1, 256281, Note_on_c, 0, 64, 92
1, 256290, Note_on_c, 0, 96, 105
1, 256291, Note_on_c, 0, 84, 107
1, 256292, Poly_aftertouch_c, 0, 62, 0
1, 256303, Note_on_c, 0, 57, 39
1, 256313, Note_on_c, 0, 52, 55
1, 256314, Note_off_c, 0, 52, 127
1, 256318, Note_off_c, 0, 64, 66
1, 256323, Note_off_c, 0, 57, 0
1, 256323, Note_off_c, 0, 84, 68
1, 256325, Note_on_c, 0, 60, 2
1, 256325, Note_off_c, 0, 96, 66
1, 256345, Poly_aftertouch_c, 0, 57, 0
1, 256351, Poly_aftertouch_c, 0, 52, 0
1, 256373, Note_off_c, 0, 60, 32
1, 256394, Poly_aftertouch_c, 0, 59, 0
1, 256395, Note_on_c, 0, 98, 105
1, 256398, Note_on_c, 0, 86, 101
1, 256399, Note_on_c, 0, 65, 98
1, 256407, Poly_aftertouch_c, 0, 55, 0
1, 256410, Poly_aftertouch_c, 0, 59, 0
1, 256422, Note_off_c, 0, 86, 66
1, 256428, Note_off_c, 0, 98, 66
1, 256449, Note_off_c, 0, 65, 65
1, 256490, Note_on_c, 0, 100, 107
1, 256492, Note_on_c, 0, 88, 98
1, 256527, Note_off_c, 0, 88, 67
1, 256529, Note_off_c, 0, 100, 68
1, 256554, Note_on_c, 0, 71, 22
1, 256592, Note_off_c, 0, 71, 39
1, 256594, Control_c, 0, 64, 51
1, 256609, Control_c, 0, 64, 0
1, 256642, Note_on_c, 0, 65, 86
1, 256642, Note_on_c, 0, 68, 98
1, 256644, Note_on_c, 0, 71, 102
1, 256645, Note_on_c, 0, 101, 108
1, 256646, Note_on_c, 0, 89, 97
1, 256646, Note_on_c, 0, 94, 98
1, 256647, Note_on_c, 0, 62, 89
1, 256663, Note_off_c, 0, 89, 71
1, 256668, Control_c, 0, 64, 62
1, 256669, Note_off_c, 0, 94, 63
1, 256674, Note_off_c, 0, 101, 67
1, 256677, Note_off_c, 0, 71, 61
1, 256683, Control_c, 0, 64, 127
1, 256693, Note_off_c, 0, 68, 69
1, 256698, Note_off_c, 0, 65, 67
1, 256705, Note_off_c, 0, 62, 67
1, 256863, Note_on_c, 0, 78, 54
1, 256911, Note_off_c, 0, 78, 62
1, 256916, Note_on_c, 0, 50, 76
1, 256920, Note_on_c, 0, 53, 72
1, 256925, Note_on_c, 0, 59, 72
1, 256938, Note_on_c, 0, 70, 85
1, 256941, Note_on_c, 0, 82, 63
1, 256944, Note_on_c, 0, 56, 45
1, 256946, Note_off_c, 0, 50, 67
1, 256949, Note_on_c, 0, 71, 73
1, 256952, Note_off_c, 0, 53, 67
1, 256952, Note_off_c, 0, 59, 68
1, 256968, Note_off_c, 0, 71, 66
1, 256970, Note_off_c, 0, 82, 66
1, 256973, Note_off_c, 0, 56, 55
1, 256987, Note_off_c, 0, 70, 64
1, 257027, Poly_aftertouch_c, 0, 52, 0
1, 257039, Note_on_c, 0, 71, 57
1, 257050, Note_on_c, 0, 70, 104
1, 257055, Note_on_c, 0, 68, 86
1, 257071, Note_on_c, 0, 62, 69
1, 257072, Note_on_c, 0, 63, 63
1, 257073, Note_off_c, 0, 63, 127
1, 257083, Note_off_c, 0, 71, 65
1, 257084, Note_off_c, 0, 68, 68
1, 257089, Note_on_c, 0, 65, 42
1, 257100, Note_off_c, 0, 62, 69
1, 257117, Note_off_c, 0, 65, 57
1, 257162, Note_off_c, 0, 70, 33
1, 257178, Note_on_c, 0, 78, 41
1, 257188, Poly_aftertouch_c, 0, 68, 127
1, 257229, Poly_aftertouch_c, 0, 68, 0
1, 257234, Note_off_c, 0, 78, 0
1, 257245, Poly_aftertouch_c, 0, 62, 0
1, 257248, Note_on_c, 0, 59, 75
1, 257254, Note_on_c, 0, 56, 79
1, 257254, Note_on_c, 0, 78, 37
1, 257254, Note_on_c, 0, 71, 86
1, 257256, Note_on_c, 0, 53, 62
1, 257259, Note_on_c, 0, 50, 62
1, 257259, Note_on_c, 0, 70, 84
1, 257264, Note_on_c, 0, 82, 70
1, 257274, Note_off_c, 0, 59, 69
1, 257279, Note_off_c, 0, 56, 66
1, 257279, Note_off_c, 0, 71, 67
1, 257283, Note_off_c, 0, 50, 63
1, 257283, Note_off_c, 0, 78, 57
1, 257288, Note_off_c, 0, 53, 64
1, 257292, Note_off_c, 0, 82, 67
1, 257313, Note_off_c, 0, 70, 62
1, 257344, Note_on_c, 0, 70, 93
1, 257349, Note_on_c, 0, 71, 96
1, 257356, Note_on_c, 0, 69, 88
1, 257362, Note_on_c, 0, 60, 77
1, 257363, Note_on_c, 0, 67, 72
1, 257369, Note_off_c, 0, 71, 66
1, 257369, Poly_aftertouch_c, 0, 80, 0
1, 257370, Note_off_c, 0, 69, 74
1, 257373, Note_on_c, 0, 64, 51
1, 257380, Note_off_c, 0, 67, 67
1, 257385, Note_on_c, 0, 62, 51
1, 257397, Note_off_c, 0, 64, 60
1, 257401, Note_off_c, 0, 60, 62
1, 257408, Poly_aftertouch_c, 0, 59, 0
1, 257412, Note_off_c, 0, 62, 60
1, 257416, Poly_aftertouch_c, 0, 77, 127
1, 257424, Poly_aftertouch_c, 0, 80, 0
1, 257440, Note_off_c, 0, 70, 63
1, 257453, Note_on_c, 0, 69, 11
1, 257455, Poly_aftertouch_c, 0, 77, 0
1, 257499, Note_on_c, 0, 59, 91
1, 257502, Note_off_c, 0, 69, 39
1, 257504, Note_on_c, 0, 56, 84
1, 257506, Note_on_c, 0, 50, 76
1, 257509, Note_on_c, 0, 53, 66
1, 257519, Note_on_c, 0, 71, 91
1, 257520, Note_off_c, 0, 56, 69
1, 257520, Note_off_c, 0, 59, 72
1, 257526, Note_on_c, 0, 70, 78
1, 257527, Note_off_c, 0, 50, 65
1, 257528, Note_on_c, 0, 82, 71
1, 257528, Note_off_c, 0, 53, 66
1, 257537, Note_off_c, 0, 71, 66
1, 257543, Note_on_c, 0, 77, 52
1, 257555, Note_off_c, 0, 70, 66
1, 257563, Note_off_c, 0, 77, 62
1, 257596, Note_on_c, 0, 71, 82
1, 257599, Note_on_c, 0, 59, 13
1, 257605, Note_on_c, 0, 70, 98
1, 257606, Note_on_c, 0, 68, 90
1, 257618, Note_on_c, 0, 62, 73
1, 257620, Note_on_c, 0, 65, 66
1, 257624, Note_off_c, 0, 82, 61
1, 257627, Note_off_c, 0, 68, 64
1, 257629, Note_off_c, 0, 59, 53
1, 257632, Note_off_c, 0, 71, 66
1, 257637, Note_off_c, 0, 65, 66
1, 257648, Note_off_c, 0, 62, 68
1, 257673, Poly_aftertouch_c, 0, 56, 0
1, 257695, Note_off_c, 0, 70, 62
1, 257710, Poly_aftertouch_c, 0, 77, 0
1, 257729, Poly_aftertouch_c, 0, 77, 0
1, 257745, Note_on_c, 0, 59, 94
1, 257751, Note_on_c, 0, 56, 82
1, 257757, Note_on_c, 0, 50, 76
1, 257758, Note_on_c, 0, 53, 70
1, 257769, Note_on_c, 0, 71, 91
1, 257771, Note_off_c, 0, 59, 66
1, 257772, Note_off_c, 0, 56, 70
1, 257773, Note_off_c, 0, 50, 71
1, 257776, Note_off_c, 0, 53, 68
1, 257782, Note_on_c, 0, 82, 75
1, 257783, Note_on_c, 0, 70, 77
1, 257794, Note_off_c, 0, 71, 64
1, 257801, Note_on_c, 0, 77, 46
1, 257843, Note_off_c, 0, 70, 62
1, 257845, Note_off_c, 0, 77, 54
1, 257870, Note_off_c, 0, 82, 63
1, 257872, Note_on_c, 0, 71, 103
1, 257878, Note_on_c, 0, 70, 101
1, 257880, Note_on_c, 0, 68, 79
1, 257885, Note_off_c, 0, 71, 73
1, 257885, Note_on_c, 0, 62, 78
1, 257887, Note_on_c, 0, 65, 67
1, 257906, Note_off_c, 0, 65, 65
1, 257908, Note_off_c, 0, 68, 68
1, 257912, Note_off_c, 0, 62, 67
1, 257930, Poly_aftertouch_c, 0, 56, 0
1, 257942, Note_on_c, 0, 71, 38
1, 257943, Note_off_c, 0, 71, 127
1, 257963, Note_off_c, 0, 70, 62
1, 257971, Poly_aftertouch_c, 0, 71, 0
1, 258020, Note_on_c, 0, 59, 101
1, 258023, Note_on_c, 0, 50, 73
1, 258025, Note_on_c, 0, 56, 70
1, 258031, Note_on_c, 0, 53, 63
1, 258040, Note_on_c, 0, 71, 80
1, 258041, Note_on_c, 0, 82, 79
1, 258043, Note_off_c, 0, 59, 69
1, 258046, Note_off_c, 0, 50, 71
1, 258049, Note_on_c, 0, 70, 73
1, 258052, Note_off_c, 0, 56, 64
1, 258053, Note_on_c, 0, 77, 56
1, 258054, Note_off_c, 0, 71, 73
1, 258055, Note_off_c, 0, 53, 60
1, 258061, Note_on_c, 0, 69, 53
1, 258079, Note_off_c, 0, 70, 65
1, 258084, Note_off_c, 0, 69, 66
1, 258085, Note_off_c, 0, 77, 51
1, 258133, Note_on_c, 0, 71, 91
1, 258136, Note_off_c, 0, 82, 63
1, 258142, Note_on_c, 0, 70, 106
1, 258146, Note_on_c, 0, 68, 78
1, 258149, Note_on_c, 0, 62, 76
1, 258156, Note_off_c, 0, 71, 69
1, 258165, Note_on_c, 0, 60, 58
1, 258168, Note_off_c, 0, 68, 70
1, 258174, Note_on_c, 0, 69, 33
1, 258175, Note_off_c, 0, 69, 127
1, 258177, Note_off_c, 0, 62, 67
1, 258183, Poly_aftertouch_c, 0, 59, 0
1, 258187, Note_on_c, 0, 64, 9
1, 258190, Note_off_c, 0, 60, 60
1, 258243, Note_off_c, 0, 64, 41
1, 258264, Note_off_c, 0, 70, 54
1, 258331, Note_on_c, 0, 50, 92
1, 258345, Note_on_c, 0, 53, 75
1, 258346, Note_on_c, 0, 56, 90
1, 258361, Note_on_c, 0, 82, 99
1, 258363, Note_on_c, 0, 59, 82
1, 258366, Note_on_c, 0, 70, 93
1, 258366, Note_on_c, 0, 77, 64
1, 258371, Note_on_c, 0, 71, 71
1, 258373, Note_on_c, 0, 69, 72
1, 258373, Note_off_c, 0, 50, 67
1, 258377, Note_off_c, 0, 53, 64
1, 258391, Note_off_c, 0, 69, 68
1, 258392, Note_off_c, 0, 59, 68
1, 258394, Note_off_c, 0, 71, 68
1, 258396, Note_off_c, 0, 56, 65
1, 258422, Note_off_c, 0, 70, 66
1, 258456, Note_on_c, 0, 71, 37
1, 258462, Note_off_c, 0, 77, 62
1, 258481, Note_off_c, 0, 71, 58
1, 258532, Note_off_c, 0, 82, 61
1, 258747, Note_on_c, 0, 85, 110
1, 258781, Note_off_c, 0, 85, 69
1, 258873, Note_on_c, 0, 97, 66
1, 258887, Note_on_c, 0, 85, 100
1, 258955, Note_off_c, 0, 85, 57
1, 259000, Note_off_c, 0, 97, 65
1, 259006, Note_on_c, 0, 82, 103
1, 259021, Note_on_c, 0, 80, 82
1, 259041, Note_off_c, 0, 82, 68
1, 259042, Note_off_c, 0, 80, 63
1, 259085, Note_on_c, 0, 82, 97
1, 259086, Note_on_c, 0, 94, 86
1, 259140, Note_off_c, 0, 82, 63
1, 259152, Note_off_c, 0, 94, 63
1, 259165, Note_on_c, 0, 79, 87
1, 259173, Note_on_c, 0, 77, 89
1, 259195, Note_off_c, 0, 77, 69
1, 259200, Note_off_c, 0, 79, 67
1, 259218, Note_on_c, 0, 79, 80
1, 259227, Note_on_c, 0, 91, 72
1, 259252, Note_off_c, 0, 91, 68
1, 259255, Note_off_c, 0, 79, 61
1, 259277, Note_on_c, 0, 76, 96
1, 259299, Note_off_c, 0, 76, 68
1, 259328, Poly_aftertouch_c, 0, 81, 0
1, 259331, Note_on_c, 0, 77, 46
1, 259343, Note_on_c, 0, 88, 67
1, 259360, Note_off_c, 0, 77, 55
1, 259360, Note_off_c, 0, 88, 69
1, 259379, Note_on_c, 0, 80, 82
1, 259392, Note_on_c, 0, 78, 74
1, 259409, Note_off_c, 0, 78, 69
1, 259412, Note_off_c, 0, 80, 63
1, 259459, Note_on_c, 0, 92, 58
1, 259472, Note_on_c, 0, 73, 94
1, 259477, Note_off_c, 0, 92, 64
1, 259513, Note_off_c, 0, 73, 61
1, 259596, Note_on_c, 0, 71, 97
1, 260018, Control_c, 0, 64, 104
1, 260033, Control_c, 0, 64, 77
1, 260037, Note_on_c, 0, 62, 8
1, 260049, Control_c, 0, 64, 62
1, 260064, Control_c, 0, 64, 43
1, 260064, Poly_aftertouch_c, 0, 68, 127
1, 260077, Poly_aftertouch_c, 0, 65, 127
1, 260085, Control_c, 0, 64, 0
1, 260234, Control_c, 0, 64, 37
1, 260249, Control_c, 0, 64, 56
1, 260264, Control_c, 0, 64, 68
1, 260278, Control_c, 0, 64, 87
1, 260293, Control_c, 0, 64, 127
1, 260306, Note_off_c, 0, 71, 61
1, 260352, Poly_aftertouch_c, 0, 65, 0
1, 260355, Poly_aftertouch_c, 0, 68, 0
1, 260362, Note_off_c, 0, 62, 44
1, 260602, Note_on_c, 0, 61, 93
1, 260654, Note_off_c, 0, 61, 63
1, 260791, Note_on_c, 0, 61, 69
1, 260801, Note_on_c, 0, 73, 54
1, 260826, Note_off_c, 0, 61, 65
1, 260843, Note_off_c, 0, 73, 63
1, 260922, Note_on_c, 0, 64, 86
1, 260947, Note_off_c, 0, 64, 67
1, 261022, Note_on_c, 0, 64, 72
1, 261030, Note_on_c, 0, 76, 62
1, 261078, Note_off_c, 0, 76, 56
1, 261090, Note_off_c, 0, 64, 58
1, 261101, Note_on_c, 0, 62, 87
1, 261152, Note_off_c, 0, 62, 63
1, 261215, Note_on_c, 0, 62, 60
1, 261225, Note_on_c, 0, 74, 59
1, 261315, Note_off_c, 0, 62, 57
1, 261415, Note_on_c, 0, 59, 82
1, 261441, Note_off_c, 0, 74, 54
1, 261657, Control_c, 0, 64, 104
1, 261672, Control_c, 0, 64, 83
1, 261687, Control_c, 0, 64, 69
1, 261702, Control_c, 0, 64, 59
1, 261717, Control_c, 0, 64, 46
1, 261731, Control_c, 0, 64, 28
1, 261746, Control_c, 0, 64, 0
1, 261939, Control_c, 0, 64, 31
1, 261954, Control_c, 0, 64, 46
1, 261968, Control_c, 0, 64, 57
1, 261983, Control_c, 0, 64, 66
1, 261998, Control_c, 0, 64, 78
1, 262013, Control_c, 0, 64, 94
1, 262018, Note_off_c, 0, 59, 66
1, 262028, Control_c, 0, 64, 127
1, 262249, Control_c, 0, 64, 77
1, 262263, Note_on_c, 0, 61, 88
1, 262264, Control_c, 0, 64, 51
1, 262275, Note_on_c, 0, 73, 74
1, 262279, Control_c, 0, 64, 0
1, 262309, Control_c, 0, 64, 42
1, 262331, Control_c, 0, 64, 68
1, 262346, Control_c, 0, 64, 127
1, 262363, Note_off_c, 0, 61, 64
1, 262368, Note_off_c, 0, 73, 63
1, 262416, Note_on_c, 0, 61, 80
1, 262468, Note_off_c, 0, 61, 66
1, 262505, Note_on_c, 0, 64, 88
1, 262515, Note_on_c, 0, 76, 89
1, 262552, Note_off_c, 0, 64, 65
1, 262555, Note_off_c, 0, 76, 61
1, 262586, Note_on_c, 0, 64, 71
1, 262613, Note_off_c, 0, 64, 67
1, 262673, Note_on_c, 0, 67, 88
1, 262680, Note_on_c, 0, 79, 86
1, 262714, Note_off_c, 0, 79, 62
1, 262724, Note_off_c, 0, 67, 0
1, 262761, Poly_aftertouch_c, 0, 67, 127
1, 262788, Poly_aftertouch_c, 0, 67, 0
1, 262815, Note_on_c, 0, 65, 82
1, 262823, Note_on_c, 0, 77, 80
1, 262849, Note_off_c, 0, 77, 69
1, 262935, Note_on_c, 0, 62, 86
1, 262937, Note_on_c, 0, 74, 86
1, 262956, Note_off_c, 0, 65, 63
1, 262996, Note_off_c, 0, 74, 64
1, 263018, Note_off_c, 0, 62, 63
1, 263030, Note_on_c, 0, 61, 72
1, 263043, Control_c, 0, 64, 94
1, 263058, Control_c, 0, 64, 59
1, 263080, Control_c, 0, 64, 0
1, 263095, Note_on_c, 0, 59, 50
1, 263110, Control_c, 0, 64, 35
1, 263124, Control_c, 0, 64, 65
1, 263139, Control_c, 0, 64, 93
1, 263150, Note_on_c, 0, 64, 55
1, 263154, Control_c, 0, 64, 127
1, 263155, Note_on_c, 0, 67, 81
1, 263160, Note_off_c, 0, 59, 60
1, 263176, Note_off_c, 0, 61, 62
1, 263181, Note_off_c, 0, 64, 66
1, 263187, Note_off_c, 0, 67, 65
1, 263208, Note_on_c, 0, 71, 67
1, 263209, Note_on_c, 0, 79, 79
1, 263224, Note_off_c, 0, 71, 66
1, 263248, Note_on_c, 0, 73, 79
1, 263277, Note_off_c, 0, 79, 64
1, 263303, Note_on_c, 0, 70, 77
1, 263321, Note_on_c, 0, 65, 59
1, 263321, Note_off_c, 0, 73, 66
1, 263329, Note_off_c, 0, 70, 67
1, 263341, Note_off_c, 0, 65, 63
1, 263388, Note_on_c, 0, 65, 84
1, 263421, Control_c, 0, 64, 78
1, 263429, Note_on_c, 0, 71, 70
1, 263436, Control_c, 0, 64, 58
1, 263451, Control_c, 0, 64, 43
1, 263453, Note_on_c, 0, 74, 78
1, 263466, Control_c, 0, 64, 50
1, 263481, Control_c, 0, 64, 64
1, 263487, Note_on_c, 0, 77, 82
1, 263495, Control_c, 0, 64, 87
1, 263497, Note_off_c, 0, 71, 63
1, 263504, Note_off_c, 0, 74, 64
1, 263509, Note_off_c, 0, 77, 70
1, 263510, Control_c, 0, 64, 127
1, 263522, Note_on_c, 0, 82, 82
1, 263531, Note_off_c, 0, 65, 62
1, 263561, Note_on_c, 0, 80, 67
1, 263596, Note_on_c, 0, 77, 71
1, 263617, Note_on_c, 0, 74, 78
1, 263617, Note_off_c, 0, 82, 61
1, 263656, Note_on_c, 0, 71, 65
1, 263656, Note_off_c, 0, 80, 61
1, 263662, Note_off_c, 0, 77, 65
1, 263683, Note_on_c, 0, 70, 78
1, 263685, Note_off_c, 0, 74, 63
1, 263686, Note_off_c, 0, 71, 67
1, 263691, Note_on_c, 0, 68, 46
1, 263704, Note_off_c, 0, 70, 68
1, 263770, Note_on_c, 0, 65, 70
1, 263777, Note_off_c, 0, 68, 64
1, 263820, Note_on_c, 0, 62, 76
1, 263830, Note_off_c, 0, 65, 64
1, 263856, Poly_aftertouch_c, 0, 70, 0
1, 263910, Note_on_c, 0, 59, 88
1, 263930, Note_off_c, 0, 62, 66
1, 264185, Control_c, 0, 64, 106
1, 264200, Control_c, 0, 64, 78
1, 264215, Control_c, 0, 64, 65
1, 264230, Control_c, 0, 64, 54
1, 264244, Control_c, 0, 64, 35
1, 264259, Control_c, 0, 64, 0
1, 264512, Control_c, 0, 64, 21
1, 264526, Control_c, 0, 64, 51
1, 264539, Note_off_c, 0, 59, 66
1, 264541, Control_c, 0, 64, 71
1, 264556, Control_c, 0, 64, 117
1, 264578, Control_c, 0, 64, 127
1, 264682, Control_c, 0, 64, 78
1, 264697, Control_c, 0, 64, 53
1, 264712, Control_c, 0, 64, 0
1, 264770, Control_c, 0, 64, 27
1, 264777, Note_on_c, 0, 73, 83
1, 264780, Note_on_c, 0, 61, 79
1, 264785, Control_c, 0, 64, 59
1, 264800, Control_c, 0, 64, 79
1, 264815, Control_c, 0, 64, 127
1, 264842, Note_off_c, 0, 61, 63
1, 264871, Note_off_c, 0, 73, 63
1, 264917, Note_on_c, 0, 61, 79
1, 264971, Note_off_c, 0, 61, 63
1, 265019, Note_on_c, 0, 76, 92
1, 265020, Note_on_c, 0, 64, 80
1, 265049, Note_off_c, 0, 64, 66
1, 265063, Note_off_c, 0, 76, 64
1, 265099, Note_on_c, 0, 64, 89
1, 265129, Note_off_c, 0, 64, 66
1, 265178, Note_on_c, 0, 79, 93
1, 265182, Note_on_c, 0, 67, 82
1, 265207, Note_off_c, 0, 67, 68
1, 265218, Note_off_c, 0, 79, 65
1, 265251, Note_on_c, 0, 67, 80
1, 265275, Note_off_c, 0, 67, 67
1, 265298, Note_on_c, 0, 77, 99
1, 265323, Note_on_c, 0, 65, 51
1, 265342, Note_off_c, 0, 77, 67
1, 265349, Note_off_c, 0, 65, 0
1, 265365, Note_on_c, 0, 65, 67
1, 265412, Note_off_c, 0, 65, 64
1, 265425, Note_on_c, 0, 83, 103
1, 265442, Note_on_c, 0, 71, 58
1, 265458, Note_off_c, 0, 71, 0
1, 265466, Note_off_c, 0, 83, 68
1, 265472, Note_on_c, 0, 71, 66
1, 265514, Note_off_c, 0, 71, 64
1, 265659, Note_on_c, 0, 88, 99
1, 265678, Note_on_c, 0, 76, 69
1, 265698, Control_c, 0, 64, 96
1, 265713, Control_c, 0, 64, 53
1, 265728, Control_c, 0, 64, 0
1, 265890, Control_c, 0, 64, 13
1, 265905, Control_c, 0, 64, 42
1, 265920, Control_c, 0, 64, 53
1, 265934, Control_c, 0, 64, 60
1, 265949, Control_c, 0, 64, 65
1, 265964, Control_c, 0, 64, 73
1, 265979, Control_c, 0, 64, 86
1, 265994, Control_c, 0, 64, 109
1, 266008, Control_c, 0, 64, 127
1, 266083, Note_off_c, 0, 76, 59
1, 266091, Note_on_c, 0, 85, 101
1, 266106, Note_off_c, 0, 88, 66
1, 266130, Note_off_c, 0, 85, 64
1, 266323, Note_on_c, 0, 85, 97
1, 266409, Note_off_c, 0, 85, 62
1, 266503, Note_on_c, 0, 85, 86
1, 266541, Note_off_c, 0, 85, 61
1, 266560, Note_on_c, 0, 76, 94
1, 266560, Note_on_c, 0, 88, 94
1, 266637, Note_off_c, 0, 76, 63
1, 266659, Note_off_c, 0, 88, 65
1, 266835, Note_on_c, 0, 85, 100
1, 266876, Note_off_c, 0, 85, 67
1, 267269, Control_c, 0, 64, 68
1, 267284, Control_c, 0, 64, 0
1, 267298, Note_on_c, 0, 47, 73
1, 267299, Note_on_c, 0, 41, 70
1, 267299, Note_on_c, 0, 46, 73
1, 267304, Note_on_c, 0, 44, 70
1, 267306, Note_on_c, 0, 35, 105
1, 267318, Note_on_c, 0, 32, 76
1, 267319, Note_off_c, 0, 32, 127
1, 267323, Note_on_c, 0, 28, 53
1, 267329, Control_c, 0, 64, 28
1, 267335, Note_on_c, 0, 30, 44
1, 267338, Note_off_c, 0, 41, 63
1, 267344, Control_c, 0, 64, 63
1, 267359, Control_c, 0, 64, 101
1, 267371, Note_on_c, 0, 33, 12
1, 267371, Note_off_c, 0, 35, 41
1, 267374, Control_c, 0, 64, 127
1, 267375, Note_off_c, 0, 28, 50
1, 267377, Note_off_c, 0, 44, 60
1, 267384, Note_off_c, 0, 47, 65
1, 267401, Note_off_c, 0, 46, 64
1, 267460, Note_on_c, 0, 50, 78
1, 267470, Note_on_c, 0, 37, 72
1, 267497, Note_off_c, 0, 33, 31
1, 267514, Note_on_c, 0, 36, 48
1, 267518, Note_off_c, 0, 30, 17
1, 267518, Note_off_c, 0, 37, 63
1, 267525, Note_off_c, 0, 50, 63
1, 267540, Note_on_c, 0, 53, 76
1, 267550, Note_off_c, 0, 36, 52
1, 267555, Note_on_c, 0, 41, 52
1, 267582, Note_on_c, 0, 40, 5
1, 267593, Note_off_c, 0, 41, 54
1, 267606, Note_off_c, 0, 53, 62
1, 267613, Note_off_c, 0, 40, 0
1, 267618, Note_on_c, 0, 56, 80
1, 267632, Poly_aftertouch_c, 0, 40, 0
1, 267663, Note_on_c, 0, 46, 62
1, 267663, Note_off_c, 0, 56, 65
1, 267700, Note_on_c, 0, 60, 71
1, 267701, Note_on_c, 0, 48, 54
1, 267725, Note_on_c, 0, 49, 32
1, 267731, Note_on_c, 0, 59, 31
1, 267733, Note_on_c, 0, 53, 71
1, 267743, Note_off_c, 0, 60, 61
1, 267757, Note_off_c, 0, 46, 51
1, 267764, Note_on_c, 0, 64, 68
1, 267767, Note_on_c, 0, 62, 67
1, 267767, Note_off_c, 0, 59, 55
1, 267776, Note_off_c, 0, 48, 64
1, 267776, Note_off_c, 0, 53, 65
1, 267784, Note_off_c, 0, 49, 41
1, 267785, Note_on_c, 0, 58, 85
1, 267795, Note_off_c, 0, 62, 64
1, 267798, Note_off_c, 0, 64, 67
1, 267811, Note_off_c, 0, 58, 69
1, 267826, Note_on_c, 0, 65, 60
1, 267831, Note_on_c, 0, 67, 63
1, 267853, Note_on_c, 0, 68, 64
1, 267854, Note_off_c, 0, 65, 66
1, 267854, Note_off_c, 0, 67, 67
1, 267873, Note_off_c, 0, 68, 63
1, 267880, Note_on_c, 0, 58, 73
1, 267910, Note_on_c, 0, 61, 77
1, 267919, Note_on_c, 0, 71, 62
1, 267932, Note_on_c, 0, 72, 55
1, 267952, Note_off_c, 0, 71, 65
1, 267952, Note_off_c, 0, 72, 59
1, 267973, Note_on_c, 0, 74, 82
1, 267976, Note_on_c, 0, 65, 52
1, 267997, Note_off_c, 0, 58, 61
1, 268012, Note_off_c, 0, 65, 66
1, 268020, Note_on_c, 0, 77, 67
1, 268023, Note_on_c, 0, 70, 88
1, 268043, Note_off_c, 0, 74, 61
1, 268044, Note_off_c, 0, 61, 64
1, 268055, Note_on_c, 0, 80, 71
1, 268065, Note_off_c, 0, 70, 65
1, 268090, Note_off_c, 0, 77, 66
1, 268102, Note_on_c, 0, 83, 93
1, 268141, Note_off_c, 0, 80, 62
1, 268213, Note_on_c, 0, 85, 102
1, 268214, Note_off_c, 0, 83, 61
1, 268275, Note_off_c, 0, 85, 62
1, 268369, Note_on_c, 0, 85, 90
1, 268387, Note_on_c, 0, 73, 61
1, 268414, Note_off_c, 0, 73, 66
1, 268434, Note_off_c, 0, 85, 63
1, 268460, Note_on_c, 0, 85, 86
1, 268489, Note_off_c, 0, 85, 64
1, 268546, Note_on_c, 0, 85, 85
1, 268560, Note_on_c, 0, 73, 55
1, 268581, Note_off_c, 0, 73, 65
1, 268592, Note_off_c, 0, 85, 62
1, 268614, Note_on_c, 0, 85, 87
1, 268649, Note_off_c, 0, 85, 64
1, 268683, Poly_aftertouch_c, 0, 85, 0
1, 268688, Note_on_c, 0, 85, 80
1, 268691, Note_on_c, 0, 73, 63
1, 268719, Note_off_c, 0, 73, 67
1, 268736, Note_off_c, 0, 85, 63
1, 268745, Note_on_c, 0, 85, 94
1, 268780, Note_off_c, 0, 85, 64
1, 268812, Poly_aftertouch_c, 0, 85, 0
1, 268818, Note_on_c, 0, 85, 84
1, 268822, Note_on_c, 0, 73, 60
1, 268850, Note_off_c, 0, 73, 67
1, 268856, Note_off_c, 0, 85, 62
1, 268882, Note_on_c, 0, 85, 92
1, 268910, Note_off_c, 0, 85, 65
1, 268950, Note_on_c, 0, 85, 87
1, 268954, Note_on_c, 0, 73, 59
1, 268977, Note_off_c, 0, 85, 65
1, 268979, Note_off_c, 0, 73, 67
1, 269017, Note_on_c, 0, 85, 90
1, 269040, Note_off_c, 0, 85, 65
1, 269076, Note_on_c, 0, 85, 90
1, 269088, Note_on_c, 0, 73, 55
1, 269106, Note_off_c, 0, 73, 66
1, 269117, Note_off_c, 0, 85, 64
1, 269143, Note_on_c, 0, 85, 92
1, 269178, Note_off_c, 0, 85, 62
1, 269203, Note_on_c, 0, 85, 80
1, 269208, Note_on_c, 0, 73, 69
1, 269234, Note_off_c, 0, 73, 69
1, 269243, Note_off_c, 0, 85, 67
1, 269269, Note_on_c, 0, 85, 98
1, 269297, Note_off_c, 0, 85, 65
1, 269333, Note_on_c, 0, 85, 88
1, 269344, Note_on_c, 0, 73, 72
1, 269368, Note_off_c, 0, 73, 69
1, 269377, Note_off_c, 0, 85, 66
1, 269725, Control_c, 0, 64, 77
1, 269730, Note_on_c, 0, 47, 82
1, 269737, Note_on_c, 0, 46, 73
1, 269739, Control_c, 0, 64, 44
1, 269749, Note_on_c, 0, 35, 104
1, 269754, Note_on_c, 0, 44, 57
1, 269754, Control_c, 0, 64, 24
1, 269756, Note_on_c, 0, 41, 58
1, 269759, Note_on_c, 0, 32, 81
1, 269769, Control_c, 0, 64, 55
1, 269781, Note_off_c, 0, 35, 64
1, 269783, Control_c, 0, 64, 78
1, 269788, Note_off_c, 0, 41, 63
1, 269799, Control_c, 0, 64, 127
1, 269800, Note_off_c, 0, 32, 55
1, 269833, Note_off_c, 0, 44, 62
1, 269845, Note_off_c, 0, 47, 65
1, 269851, Note_off_c, 0, 46, 64
1, 269877, Poly_aftertouch_c, 0, 31, 0
1, 269913, Note_on_c, 0, 50, 81
1, 269918, Note_on_c, 0, 37, 89
1, 269970, Note_off_c, 0, 50, 64
1, 269985, Note_off_c, 0, 37, 59
1, 270000, Note_on_c, 0, 53, 84
1, 270033, Note_on_c, 0, 41, 83
1, 270055, Note_on_c, 0, 29, 55
1, 270062, Note_off_c, 0, 41, 67
1, 270070, Note_off_c, 0, 53, 62
1, 270081, Note_on_c, 0, 56, 89
1, 270086, Note_off_c, 0, 29, 52
1, 270137, Note_off_c, 0, 56, 65
1, 270165, Note_on_c, 0, 34, 78
1, 270165, Note_on_c, 0, 46, 72
1, 270167, Note_on_c, 0, 59, 86
1, 270184, Note_off_c, 0, 46, 64
1, 270193, Note_off_c, 0, 34, 62
1, 270221, Note_off_c, 0, 59, 66
1, 270256, Note_on_c, 0, 62, 81
1, 270286, Note_on_c, 0, 37, 32
1, 270286, Note_on_c, 0, 49, 61
1, 270289, Note_on_c, 0, 64, 39
1, 270291, Note_on_c, 0, 39, 63
1, 270307, Note_off_c, 0, 37, 65
1, 270312, Note_off_c, 0, 49, 58
1, 270317, Note_off_c, 0, 39, 63
1, 270321, Note_off_c, 0, 64, 36
1, 270325, Note_on_c, 0, 65, 83
1, 270328, Note_off_c, 0, 62, 65
1, 270380, Note_on_c, 0, 53, 90
1, 270386, Note_on_c, 0, 41, 59
1, 270395, Note_off_c, 0, 65, 65
1, 270402, Note_off_c, 0, 53, 70
1, 270404, Note_on_c, 0, 68, 80
1, 270408, Note_on_c, 0, 42, 42
1, 270415, Note_off_c, 0, 41, 56
1, 270439, Note_off_c, 0, 42, 57
1, 270456, Note_off_c, 0, 68, 68
1, 270486, Note_on_c, 0, 71, 87
1, 270488, Note_on_c, 0, 46, 92
1, 270493, Note_on_c, 0, 58, 88
1, 270515, Note_off_c, 0, 58, 69
1, 270515, Note_off_c, 0, 46, 67
1, 270537, Note_off_c, 0, 71, 64
1, 270581, Note_on_c, 0, 74, 88
1, 270584, Note_on_c, 0, 58, 33
1, 270590, Note_on_c, 0, 61, 90
1, 270594, Note_on_c, 0, 49, 84
1, 270611, Note_off_c, 0, 58, 55
1, 270612, Note_off_c, 0, 61, 70
1, 270620, Note_off_c, 0, 49, 67
1, 270651, Note_on_c, 0, 77, 83
1, 270653, Note_off_c, 0, 74, 64
1, 270688, Note_on_c, 0, 65, 93
1, 270690, Note_on_c, 0, 53, 82
1, 270712, Note_on_c, 0, 54, 59
1, 270717, Note_off_c, 0, 65, 68
1, 270721, Note_off_c, 0, 53, 63
1, 270724, Note_on_c, 0, 80, 87
1, 270726, Note_off_c, 0, 77, 67
1, 270737, Note_off_c, 0, 54, 59
1, 270776, Note_off_c, 0, 80, 67
1, 270802, Note_on_c, 0, 58, 91
1, 270805, Note_on_c, 0, 70, 94
1, 270807, Note_on_c, 0, 83, 97
1, 270843, Note_off_c, 0, 58, 66
1, 270846, Note_off_c, 0, 70, 61
1, 270868, Note_off_c, 0, 83, 65
1, 270905, Note_on_c, 0, 86, 97
1, 270927, Note_on_c, 0, 63, 87
1, 270929, Note_on_c, 0, 73, 80
1, 270937, Note_on_c, 0, 75, 79
1, 270951, Note_off_c, 0, 73, 69
1, 270962, Note_off_c, 0, 75, 69
1, 270975, Note_off_c, 0, 86, 63
1, 270980, Note_on_c, 0, 62, 20
1, 270981, Note_off_c, 0, 63, 62
1, 270983, Note_on_c, 0, 89, 75
1, 271024, Note_off_c, 0, 62, 40
1, 271036, Note_on_c, 0, 92, 88
1, 271042, Note_on_c, 0, 79, 93
1, 271044, Note_on_c, 0, 65, 72
1, 271052, Note_on_c, 0, 67, 78
1, 271054, Note_off_c, 0, 89, 66
1, 271064, Note_off_c, 0, 65, 66
1, 271072, Note_off_c, 0, 79, 65
1, 271075, Note_off_c, 0, 67, 65
1, 271147, Note_on_c, 0, 95, 83
1, 271153, Poly_aftertouch_c, 0, 68, 0
1, 271153, Note_off_c, 0, 92, 66
1, 271154, Note_on_c, 0, 82, 103
1, 271162, Note_on_c, 0, 93, 65
1, 271163, Note_on_c, 0, 70, 81
1, 271177, Note_off_c, 0, 93, 42
1, 271192, Note_off_c, 0, 70, 67
1, 271205, Note_off_c, 0, 95, 68
1, 271206, Note_off_c, 0, 82, 63
1, 271359, Note_on_c, 0, 85, 99
1, 271367, Note_on_c, 0, 97, 98
1, 271416, Note_off_c, 0, 85, 60
1, 271416, Note_off_c, 0, 97, 66
1, 271459, Note_on_c, 0, 96, 47
1, 271486, Note_off_c, 0, 96, 53
1, 271586, Note_on_c, 0, 85, 103
1, 271608, Note_on_c, 0, 86, 72
1, 271623, Note_off_c, 0, 85, 65
1, 271624, Note_off_c, 0, 86, 69
1, 271759, Note_on_c, 0, 85, 102
1, 271774, Note_on_c, 0, 97, 78
1, 271866, Note_off_c, 0, 85, 62
1, 271911, Note_on_c, 0, 85, 99
1, 271944, Note_on_c, 0, 86, 48
1, 271945, Note_off_c, 0, 86, 127
1, 271947, Note_off_c, 0, 85, 65
1, 271974, Note_off_c, 0, 97, 34
1, 272063, Note_on_c, 0, 85, 104
1, 272071, Note_on_c, 0, 97, 84
1, 272138, Note_off_c, 0, 85, 59
1, 272184, Note_off_c, 0, 97, 61
1, 272189, Note_on_c, 0, 85, 108
1, 272221, Note_off_c, 0, 85, 66
1, 272327, Note_on_c, 0, 85, 87
1, 272329, Note_on_c, 0, 97, 81
1, 272360, Note_off_c, 0, 85, 62
1, 272377, Control_c, 0, 64, 87
1, 272382, Note_off_c, 0, 97, 65
1, 272392, Control_c, 0, 64, 45
1, 272407, Control_c, 0, 64, 0
1, 272435, Note_on_c, 0, 97, 78
1, 272451, Control_c, 0, 64, 42
1, 272466, Control_c, 0, 64, 74
1, 272477, Note_on_c, 0, 89, 63
1, 272480, Note_on_c, 0, 94, 80
1, 272481, Control_c, 0, 64, 127
1, 272515, Note_off_c, 0, 89, 65
1, 272524, Note_off_c, 0, 97, 62
1, 272543, Note_on_c, 0, 91, 80
1, 272547, Note_off_c, 0, 94, 64
1, 272575, Note_on_c, 0, 81, 43
1, 272580, Note_off_c, 0, 91, 64
1, 272587, Note_on_c, 0, 88, 81
1, 272599, Note_off_c, 0, 81, 55
1, 272609, Note_off_c, 0, 88, 72
1, 272632, Note_on_c, 0, 80, 77
1, 272653, Note_off_c, 0, 80, 67
1, 272661, Note_on_c, 0, 93, 68
1, 272685, Note_on_c, 0, 92, 38
1, 272690, Note_on_c, 0, 85, 83
1, 272703, Note_off_c, 0, 93, 66
1, 272709, Note_on_c, 0, 77, 61
1, 272714, Note_off_c, 0, 92, 58
1, 272727, Note_off_c, 0, 77, 65
1, 272735, Note_off_c, 0, 85, 63
1, 272747, Note_on_c, 0, 82, 78
1, 272762, Poly_aftertouch_c, 0, 80, 127
1, 272764, Note_on_c, 0, 74, 39
1, 272770, Note_off_c, 0, 82, 69
1, 272784, Note_on_c, 0, 71, 51
1, 272790, Poly_aftertouch_c, 0, 80, 0
1, 272792, Note_off_c, 0, 74, 55
1, 272815, Note_off_c, 0, 71, 56
1, 272831, Note_on_c, 0, 79, 77
1, 272863, Note_on_c, 0, 68, 67
1, 272882, Note_off_c, 0, 79, 63
1, 272886, Note_off_c, 0, 68, 68
1, 272889, Note_on_c, 0, 76, 80
1, 272921, Note_on_c, 0, 65, 74
1, 272947, Note_off_c, 0, 76, 64
1, 272951, Note_on_c, 0, 82, 67
1, 272974, Note_off_c, 0, 65, 51
1, 272978, Note_on_c, 0, 62, 66
1, 272990, Note_on_c, 0, 73, 79
1, 272994, Note_off_c, 0, 82, 57
1, 273025, Note_off_c, 0, 73, 64
1, 273052, Note_off_c, 0, 62, 65
1, 273070, Note_on_c, 0, 59, 65
1, 273081, Note_on_c, 0, 71, 93
1, 273112, Control_c, 0, 64, 95
1, 273126, Control_c, 0, 64, 60
1, 273141, Control_c, 0, 64, 0
1, 273274, Control_c, 0, 64, 15
1, 273289, Control_c, 0, 64, 40
1, 273304, Control_c, 0, 64, 60
1, 273312, Note_off_c, 0, 71, 64
1, 273319, Control_c, 0, 64, 73
1, 273329, Note_on_c, 0, 73, 22
1, 273333, Control_c, 0, 64, 82
1, 273348, Control_c, 0, 64, 94
1, 273363, Control_c, 0, 64, 102
1, 273370, Note_off_c, 0, 73, 41
1, 273378, Control_c, 0, 64, 117
1, 273393, Control_c, 0, 64, 127
1, 273401, Note_on_c, 0, 71, 84
1, 273445, Note_off_c, 0, 71, 63
1, 273612, Note_on_c, 0, 71, 84
1, 273668, Note_off_c, 0, 71, 64
1, 273790, Note_on_c, 0, 71, 80
1, 273834, Note_off_c, 0, 71, 63
1, 273838, Note_off_c, 0, 59, 64
1, 273994, Note_on_c, 0, 71, 84
1, 274143, Note_on_c, 0, 69, 40
1, 274173, Note_off_c, 0, 69, 56
1, 274216, Control_c, 0, 64, 80
1, 274230, Control_c, 0, 64, 57
1, 274245, Control_c, 0, 64, 0
1, 274312, Control_c, 0, 64, 41
1, 274324, Note_on_c, 0, 61, 57
1, 274327, Control_c, 0, 64, 61
1, 274337, Note_off_c, 0, 71, 64
1, 274342, Control_c, 0, 64, 72
1, 274356, Control_c, 0, 64, 83
1, 274371, Control_c, 0, 64, 96
1, 274386, Control_c, 0, 64, 124
1, 274401, Control_c, 0, 64, 127
1, 274420, Note_on_c, 0, 66, 59
1, 274434, Note_off_c, 0, 61, 63
1, 274462, Note_off_c, 0, 66, 56
1, 274465, Note_on_c, 0, 73, 76
1, 274492, Note_off_c, 0, 73, 67
1, 274530, Note_on_c, 0, 78, 84
1, 274577, Note_off_c, 0, 78, 64
1, 274590, Note_on_c, 0, 86, 70
1, 274643, Note_off_c, 0, 86, 66
1, 274648, Note_on_c, 0, 91, 80
1, 274672, Note_off_c, 0, 91, 68
1, 274702, Note_on_c, 0, 79, 71
1, 274720, Note_off_c, 0, 79, 68
1, 274778, Note_on_c, 0, 65, 78
1, 274806, Note_off_c, 0, 65, 65
1, 274847, Note_on_c, 0, 73, 74
1, 274906, Control_c, 0, 64, 75
1, 274920, Control_c, 0, 64, 55
1, 274931, Note_on_c, 0, 75, 83
1, 274935, Control_c, 0, 64, 27
1, 274950, Control_c, 0, 64, 27
1, 274965, Control_c, 0, 64, 49
1, 274979, Control_c, 0, 64, 65
1, 274985, Note_off_c, 0, 73, 60
1, 274994, Control_c, 0, 64, 82
1, 274999, Note_on_c, 0, 72, 80
1, 275009, Note_off_c, 0, 75, 65
1, 275009, Control_c, 0, 64, 106
1, 275024, Control_c, 0, 64, 127
1, 275068, Note_on_c, 0, 77, 76
1, 275076, Note_off_c, 0, 72, 64
1, 275121, Note_on_c, 0, 71, 84
1, 275157, Note_off_c, 0, 77, 64
1, 275176, Note_off_c, 0, 71, 64
1, 275279, Note_on_c, 0, 69, 72
1, 275344, Note_on_c, 0, 71, 87
1, 275366, Note_off_c, 0, 69, 64
1, 275417, Control_c, 0, 64, 97
1, 275432, Control_c, 0, 64, 70
1, 275447, Control_c, 0, 64, 52
1, 275462, Control_c, 0, 64, 13
1, 275476, Control_c, 0, 64, 0
1, 275521, Control_c, 0, 64, 15
1, 275535, Control_c, 0, 64, 38
1, 275550, Control_c, 0, 64, 52
1, 275565, Control_c, 0, 64, 60
1, 275580, Control_c, 0, 64, 63
1, 275595, Control_c, 0, 64, 65
1, 275610, Control_c, 0, 64, 69
1, 275625, Control_c, 0, 64, 76
1, 275640, Control_c, 0, 64, 86
1, 275655, Control_c, 0, 64, 94
1, 275664, Note_off_c, 0, 71, 65
1, 275669, Control_c, 0, 64, 101
1, 275684, Control_c, 0, 64, 113
1, 275699, Control_c, 0, 64, 127
1, 275738, Note_on_c, 0, 71, 85
1, 276166, Note_on_c, 0, 73, 65
1, 276167, Control_c, 0, 64, 100
1, 276181, Control_c, 0, 64, 72
1, 276196, Control_c, 0, 64, 57
1, 276211, Control_c, 0, 64, 44
1, 276225, Control_c, 0, 64, 47
1, 276230, Note_off_c, 0, 71, 56
1, 276240, Control_c, 0, 64, 57
1, 276255, Control_c, 0, 64, 67
1, 276266, Note_on_c, 0, 78, 38
1, 276270, Control_c, 0, 64, 80
1, 276279, Note_off_c, 0, 73, 62
1, 276285, Control_c, 0, 64, 101
1, 276299, Control_c, 0, 64, 127
1, 276304, Note_off_c, 0, 78, 55
1, 276312, Note_on_c, 0, 74, 52
1, 276353, Note_off_c, 0, 74, 65
1, 276358, Note_on_c, 0, 79, 63
1, 276415, Note_on_c, 0, 67, 68
1, 276463, Note_off_c, 0, 67, 63
1, 276465, Note_off_c, 0, 79, 54
1, 276489, Note_on_c, 0, 78, 55
1, 276507, Control_c, 0, 64, 88
1, 276522, Control_c, 0, 64, 81
1, 276532, Note_on_c, 0, 80, 66
1, 276537, Control_c, 0, 64, 82
1, 276539, Note_off_c, 0, 78, 62
1, 276558, Control_c, 0, 64, 92
1, 276569, Note_on_c, 0, 74, 66
1, 276570, Note_off_c, 0, 80, 65
1, 276573, Control_c, 0, 64, 127
1, 276631, Note_on_c, 0, 81, 68
1, 276638, Note_off_c, 0, 74, 64
1, 276678, Note_on_c, 0, 69, 70
1, 276722, Control_c, 0, 64, 108
1, 276722, Note_on_c, 0, 73, 69
1, 276722, Note_off_c, 0, 69, 64
1, 276737, Control_c, 0, 64, 75
1, 276751, Control_c, 0, 64, 61
1, 276766, Control_c, 0, 64, 53
1, 276774, Note_on_c, 0, 75, 74
1, 276781, Control_c, 0, 64, 57
1, 276787, Note_off_c, 0, 81, 33
1, 276794, Note_off_c, 0, 73, 65
1, 276796, Control_c, 0, 64, 65
1, 276811, Control_c, 0, 64, 77
1, 276814, Note_on_c, 0, 72, 69
1, 276826, Control_c, 0, 64, 101
1, 276831, Note_off_c, 0, 75, 65
1, 276841, Control_c, 0, 64, 127
1, 276876, Note_on_c, 0, 77, 69
1, 276876, Note_off_c, 0, 72, 62
1, 276932, Note_on_c, 0, 71, 70
1, 276955, Note_off_c, 0, 77, 64
1, 276981, Note_off_c, 0, 71, 56
1, 277046, Note_on_c, 0, 69, 72
1, 277103, Note_on_c, 0, 71, 84
1, 277108, Control_c, 0, 64, 87
1, 277122, Control_c, 0, 64, 65
1, 277133, Note_off_c, 0, 69, 64
1, 277137, Control_c, 0, 64, 45
1, 277152, Control_c, 0, 64, 8
1, 277167, Control_c, 0, 64, 0
1, 277226, Control_c, 0, 64, 22
1, 277241, Control_c, 0, 64, 51
1, 277255, Control_c, 0, 64, 66
1, 277270, Control_c, 0, 64, 76
1, 277285, Control_c, 0, 64, 84
1, 277308, Control_c, 0, 64, 93
1, 277323, Control_c, 0, 64, 106
1, 277329, Note_off_c, 0, 71, 62
1, 277337, Control_c, 0, 64, 127
1, 277416, Note_on_c, 0, 71, 89
1, 277646, Note_off_c, 0, 71, 60
1, 277820, Note_on_c, 0, 71, 73
1, 277901, Control_c, 0, 64, 105
1, 277916, Control_c, 0, 64, 77
1, 277931, Control_c, 0, 64, 63
1, 277945, Control_c, 0, 64, 55
1, 277960, Control_c, 0, 64, 56
1, 277975, Control_c, 0, 64, 62
1, 277989, Control_c, 0, 64, 68
1, 278004, Control_c, 0, 64, 78
1, 278019, Control_c, 0, 64, 97
1, 278034, Control_c, 0, 64, 127
1, 278057, Note_off_c, 0, 71, 64
1, 278442, Control_c, 0, 67, 11
1, 278457, Control_c, 0, 67, 13
1, 278471, Note_on_c, 0, 78, 63
1, 278472, Control_c, 0, 67, 15
1, 278487, Control_c, 0, 64, 82
1, 278487, Control_c, 0, 67, 19
1, 278501, Control_c, 0, 64, 66
1, 278501, Control_c, 0, 67, 28
1, 278516, Control_c, 0, 64, 58
1, 278516, Control_c, 0, 67, 39
1, 278531, Control_c, 0, 64, 59
1, 278531, Control_c, 0, 67, 49
1, 278546, Control_c, 0, 64, 63
1, 278546, Control_c, 0, 67, 56
1, 278561, Control_c, 0, 64, 68
1, 278561, Control_c, 0, 67, 61
1, 278571, Note_on_c, 0, 80, 43
1, 278576, Control_c, 0, 64, 81
1, 278576, Control_c, 0, 67, 63
1, 278591, Control_c, 0, 64, 127
1, 278591, Control_c, 0, 67, 64
1, 278606, Control_c, 0, 67, 63
1, 278612, Note_off_c, 0, 78, 63
1, 278613, Note_off_c, 0, 80, 57
1, 278623, Note_on_c, 0, 74, 47
1, 278650, Control_c, 0, 67, 64
1, 278665, Control_c, 0, 67, 63
1, 278683, Note_off_c, 0, 74, 62
1, 278694, Control_c, 0, 67, 63
1, 278701, Note_on_c, 0, 81, 56
1, 278724, Control_c, 0, 67, 63
1, 278768, Control_c, 0, 67, 64
1, 278774, Note_off_c, 0, 81, 45
1, 278776, Note_on_c, 0, 69, 40
1, 278805, Control_c, 0, 67, 63
1, 278816, Note_off_c, 0, 69, 65
1, 278820, Control_c, 0, 64, 88
1, 278829, Note_on_c, 0, 73, 49
1, 278835, Control_c, 0, 64, 72
1, 278850, Control_c, 0, 64, 67
1, 278850, Control_c, 0, 67, 64
1, 278865, Control_c, 0, 64, 70
1, 278880, Control_c, 0, 64, 81
1, 278880, Control_c, 0, 67, 63
1, 278894, Control_c, 0, 64, 127
1, 278894, Control_c, 0, 67, 63
1, 278909, Control_c, 0, 67, 62
1, 278918, Note_on_c, 0, 75, 49
1, 278918, Note_off_c, 0, 73, 64
1, 278924, Control_c, 0, 67, 61
1, 278939, Control_c, 0, 67, 60
1, 278943, Note_off_c, 0, 75, 63
1, 278953, Control_c, 0, 67, 59
1, 278957, Note_on_c, 0, 72, 59
1, 278968, Control_c, 0, 67, 58
1, 278983, Control_c, 0, 67, 58
1, 279013, Control_c, 0, 67, 57
1, 279023, Note_off_c, 0, 72, 63
1, 279038, Note_on_c, 0, 77, 57
1, 279042, Control_c, 0, 67, 57
1, 279087, Control_c, 0, 67, 56
1, 279093, Note_on_c, 0, 71, 65
1, 279101, Control_c, 0, 64, 87
1, 279116, Control_c, 0, 64, 76
1, 279116, Control_c, 0, 67, 56
1, 279131, Control_c, 0, 64, 79
1, 279131, Control_c, 0, 67, 55
1, 279133, Note_off_c, 0, 77, 52
1, 279137, Note_on_c, 0, 78, 57
1, 279145, Control_c, 0, 64, 104
1, 279145, Control_c, 0, 67, 54
1, 279152, Note_off_c, 0, 71, 60
1, 279160, Control_c, 0, 64, 127
1, 279160, Control_c, 0, 67, 53
1, 279190, Control_c, 0, 67, 53
1, 279205, Control_c, 0, 67, 52
1, 279211, Note_on_c, 0, 80, 63
1, 279221, Control_c, 0, 67, 50
1, 279222, Note_off_c, 0, 78, 63
1, 279236, Control_c, 0, 67, 50
1, 279248, Note_off_c, 0, 80, 61
1, 279250, Control_c, 0, 67, 48
1, 279270, Note_on_c, 0, 74, 65
1, 279323, Note_on_c, 0, 81, 67
1, 279338, Note_off_c, 0, 74, 64
1, 279339, Control_c, 0, 67, 49
1, 279354, Control_c, 0, 67, 49
1, 279369, Control_c, 0, 67, 50
1, 279385, Note_on_c, 0, 69, 66
1, 279413, Control_c, 0, 64, 79
1, 279413, Control_c, 0, 67, 50
1, 279417, Note_off_c, 0, 69, 68
1, 279428, Control_c, 0, 64, 65
1, 279437, Note_off_c, 0, 81, 54
1, 279443, Control_c, 0, 64, 64
1, 279450, Note_on_c, 0, 73, 65
1, 279458, Control_c, 0, 64, 74
1, 279458, Control_c, 0, 67, 51
1, 279473, Control_c, 0, 64, 116
1, 279488, Control_c, 0, 64, 127
1, 279488, Control_c, 0, 67, 50
1, 279503, Control_c, 0, 67, 49
1, 279517, Note_on_c, 0, 75, 72
1, 279517, Control_c, 0, 67, 48
1, 279520, Note_off_c, 0, 73, 66
1, 279532, Control_c, 0, 67, 47
1, 279554, Control_c, 0, 67, 45
1, 279559, Note_off_c, 0, 75, 66
1, 279566, Note_on_c, 0, 72, 69
1, 279568, Control_c, 0, 67, 40
1, 279583, Control_c, 0, 67, 29
1, 279598, Control_c, 0, 67, 14
1, 279604, Note_off_c, 0, 72, 61
1, 279613, Control_c, 0, 67, 0
1, 279623, Note_on_c, 0, 77, 62
1, 279665, Note_off_c, 0, 77, 59
1, 279670, Note_on_c, 0, 71, 75
1, 279703, Control_c, 0, 64, 85
1, 279716, Note_off_c, 0, 71, 62
1, 279718, Control_c, 0, 64, 75
1, 279732, Control_c, 0, 64, 77
1, 279742, Note_on_c, 0, 73, 78
1, 279747, Control_c, 0, 64, 100
1, 279762, Control_c, 0, 64, 127
1, 279800, Note_on_c, 0, 71, 82
1, 279800, Note_on_c, 0, 83, 89
1, 279811, Note_off_c, 0, 73, 63
1, 279824, Note_on_c, 0, 72, 41
1, 279825, Note_off_c, 0, 71, 67
1, 279840, Note_off_c, 0, 83, 67
1, 279854, Note_off_c, 0, 72, 32
1, 279859, Note_on_c, 0, 75, 93
1, 279908, Note_on_c, 0, 86, 90
1, 279911, Note_on_c, 0, 74, 80
1, 279911, Note_off_c, 0, 75, 65
1, 279935, Note_off_c, 0, 74, 69
1, 279950, Note_off_c, 0, 86, 67
1, 279959, Poly_aftertouch_c, 0, 71, 0
1, 279969, Note_on_c, 0, 78, 95
1, 280007, Note_off_c, 0, 78, 65
1, 280024, Note_on_c, 0, 91, 95
1, 280027, Note_on_c, 0, 79, 80
1, 280044, Control_c, 0, 64, 79
1, 280048, Note_off_c, 0, 79, 70
1, 280059, Control_c, 0, 64, 64
1, 280060, Note_off_c, 0, 91, 65
1, 280073, Control_c, 0, 64, 61
1, 280078, Note_on_c, 0, 80, 91
1, 280088, Control_c, 0, 64, 74
1, 280103, Control_c, 0, 64, 127
1, 280124, Note_on_c, 0, 79, 18
1, 280126, Note_off_c, 0, 80, 65
1, 280129, Note_off_c, 0, 79, 48
1, 280138, Note_on_c, 0, 93, 94
1, 280146, Note_on_c, 0, 81, 78
1, 280164, Note_off_c, 0, 93, 66
1, 280169, Note_off_c, 0, 81, 69
1, 280177, Note_on_c, 0, 78, 53
1, 280222, Note_off_c, 0, 78, 62
1, 280254, Note_on_c, 0, 89, 79
1, 280259, Note_on_c, 0, 77, 67
1, 280262, Note_on_c, 0, 91, 64
1, 280275, Note_on_c, 0, 75, 79
1, 280276, Note_off_c, 0, 77, 68
1, 280281, Note_off_c, 0, 91, 65
1, 280284, Note_off_c, 0, 89, 66
1, 280332, Note_off_c, 0, 75, 60
1, 280407, Control_c, 0, 64, 75
1, 280413, Note_on_c, 0, 78, 84
1, 280422, Control_c, 0, 64, 57
1, 280437, Control_c, 0, 64, 39
1, 280452, Control_c, 0, 64, 43
1, 280467, Control_c, 0, 64, 57
1, 280477, Note_off_c, 0, 78, 63
1, 280481, Control_c, 0, 64, 70
1, 280483, Note_on_c, 0, 80, 76
1, 280496, Control_c, 0, 64, 92
1, 280511, Control_c, 0, 64, 127
1, 280516, Note_off_c, 0, 80, 59
1, 280543, Note_on_c, 0, 74, 49
1, 280585, Note_off_c, 0, 74, 65
1, 280588, Note_on_c, 0, 81, 62
1, 280643, Note_on_c, 0, 69, 61
1, 280652, Note_off_c, 0, 81, 60
1, 280678, Note_off_c, 0, 69, 50
1, 280700, Note_on_c, 0, 73, 66
1, 280718, Control_c, 0, 64, 80
1, 280733, Control_c, 0, 64, 64
1, 280748, Control_c, 0, 64, 60
1, 280760, Note_off_c, 0, 73, 65
1, 280763, Control_c, 0, 64, 64
1, 280764, Note_on_c, 0, 75, 69
1, 280778, Control_c, 0, 64, 76
1, 280792, Note_off_c, 0, 75, 66
1, 280792, Control_c, 0, 64, 122
1, 280799, Note_on_c, 0, 72, 67
1, 280807, Control_c, 0, 64, 127
1, 280835, Note_off_c, 0, 72, 63
1, 280850, Note_on_c, 0, 77, 67
1, 280884, Note_off_c, 0, 77, 64
1, 280912, Note_on_c, 0, 71, 76
1, 280943, Note_off_c, 0, 71, 62
1, 280956, Control_c, 0, 64, 96
1, 280971, Control_c, 0, 64, 67
1, 280986, Control_c, 0, 64, 47
1, 280998, Note_on_c, 0, 73, 79
1, 281001, Control_c, 0, 64, 28
1, 281015, Control_c, 0, 64, 39
1, 281027, Note_off_c, 0, 73, 64
1, 281030, Control_c, 0, 64, 60
1, 281053, Control_c, 0, 64, 76
1, 281056, Note_on_c, 0, 71, 75
1, 281060, Note_on_c, 0, 83, 82
1, 281068, Control_c, 0, 64, 103
1, 281080, Note_off_c, 0, 71, 67
1, 281083, Control_c, 0, 64, 127
1, 281095, Note_off_c, 0, 83, 65
1, 281128, Note_on_c, 0, 75, 85
1, 281163, Note_off_c, 0, 75, 64
1, 281172, Note_on_c, 0, 86, 80
1, 281179, Note_on_c, 0, 74, 65
1, 281199, Note_off_c, 0, 86, 68
1, 281203, Note_off_c, 0, 74, 66
1, 281208, Note_on_c, 0, 72, 22
1, 281215, Poly_aftertouch_c, 0, 71, 0
1, 281235, Note_on_c, 0, 78, 92
1, 281247, Note_off_c, 0, 72, 50
1, 281271, Note_off_c, 0, 78, 66
1, 281285, Note_on_c, 0, 77, 76
1, 281285, Note_on_c, 0, 89, 85
1, 281304, Control_c, 0, 64, 76
1, 281307, Note_off_c, 0, 89, 70
1, 281308, Note_off_c, 0, 77, 70
1, 281319, Control_c, 0, 64, 61
1, 281334, Control_c, 0, 64, 55
1, 281348, Note_on_c, 0, 80, 93
1, 281348, Control_c, 0, 64, 64
1, 281363, Control_c, 0, 64, 85
1, 281378, Control_c, 0, 64, 127
1, 281395, Note_off_c, 0, 80, 64
1, 281396, Note_on_c, 0, 93, 89
1, 281398, Note_on_c, 0, 81, 83
1, 281420, Note_off_c, 0, 81, 70
1, 281427, Note_off_c, 0, 93, 64
1, 281459, Note_on_c, 0, 78, 82
1, 281482, Note_off_c, 0, 78, 67
1, 281506, Note_on_c, 0, 89, 82
1, 281515, Note_on_c, 0, 77, 71
1, 281518, Note_on_c, 0, 79, 54
1, 281530, Note_off_c, 0, 89, 69
1, 281533, Note_off_c, 0, 77, 68
1, 281539, Note_off_c, 0, 79, 61
1, 281554, Note_on_c, 0, 75, 83
1, 281595, Note_off_c, 0, 75, 63
1, 281609, Note_on_c, 0, 86, 36
1, 281615, Note_on_c, 0, 74, 76
1, 281616, Control_c, 0, 64, 75
1, 281631, Control_c, 0, 64, 60
1, 281638, Note_off_c, 0, 74, 69
1, 281646, Control_c, 0, 64, 57
1, 281648, Note_off_c, 0, 86, 66
1, 281661, Control_c, 0, 64, 67
1, 281672, Note_on_c, 0, 80, 84
1, 281676, Control_c, 0, 64, 88
1, 281691, Control_c, 0, 64, 127
1, 281709, Poly_aftertouch_c, 0, 83, 0
1, 281713, Note_off_c, 0, 80, 64
1, 281739, Note_on_c, 0, 81, 79
1, 281742, Note_on_c, 0, 93, 79
1, 281762, Note_off_c, 0, 81, 69
1, 281764, Note_off_c, 0, 93, 67
1, 281777, Note_on_c, 0, 78, 85
1, 281830, Note_off_c, 0, 78, 65
1, 281853, Note_on_c, 0, 77, 79
1, 281854, Note_on_c, 0, 89, 82
1, 281877, Note_off_c, 0, 77, 70
1, 281885, Note_off_c, 0, 89, 64
1, 281896, Note_on_c, 0, 75, 89
1, 281935, Note_off_c, 0, 75, 62
1, 281959, Note_on_c, 0, 74, 76
1, 281961, Note_on_c, 0, 86, 80
1, 281964, Control_c, 0, 64, 83
1, 281978, Control_c, 0, 64, 66
1, 281981, Note_off_c, 0, 74, 67
1, 281983, Note_off_c, 0, 86, 70
1, 281993, Control_c, 0, 64, 63
1, 282002, Note_on_c, 0, 80, 90
1, 282008, Control_c, 0, 64, 76
1, 282023, Control_c, 0, 64, 127
1, 282044, Note_off_c, 0, 80, 65
1, 282075, Note_on_c, 0, 81, 80
1, 282076, Note_on_c, 0, 93, 85
1, 282095, Note_off_c, 0, 93, 71
1, 282097, Note_off_c, 0, 81, 68
1, 282108, Note_on_c, 0, 78, 81
1, 282167, Note_off_c, 0, 78, 62
1, 282182, Note_on_c, 0, 77, 84
1, 282186, Note_on_c, 0, 89, 84
1, 282204, Note_off_c, 0, 77, 70
1, 282208, Note_off_c, 0, 89, 69
1, 282227, Note_on_c, 0, 75, 86
1, 282272, Note_off_c, 0, 75, 64
1, 282282, Note_on_c, 0, 86, 81
1, 282284, Note_on_c, 0, 74, 81
1, 282289, Control_c, 0, 64, 91
1, 282304, Control_c, 0, 64, 62
1, 282314, Note_off_c, 0, 74, 66
1, 282316, Note_off_c, 0, 86, 65
1, 282319, Control_c, 0, 64, 49
1, 282334, Control_c, 0, 64, 58
1, 282337, Note_on_c, 0, 73, 86
1, 282349, Control_c, 0, 64, 74
1, 282363, Control_c, 0, 64, 127
1, 282379, Note_off_c, 0, 73, 65
1, 282403, Note_on_c, 0, 71, 72
1, 282412, Note_on_c, 0, 83, 62
1, 282415, Note_on_c, 0, 84, 69
1, 282416, Note_on_c, 0, 72, 59
1, 282419, Note_off_c, 0, 71, 68
1, 282433, Note_off_c, 0, 83, 67
1, 282435, Note_off_c, 0, 72, 61
1, 282439, Note_off_c, 0, 84, 67
1, 282463, Note_on_c, 0, 75, 89
1, 282503, Note_on_c, 0, 86, 89
1, 282505, Note_off_c, 0, 75, 62
1, 282506, Note_on_c, 0, 74, 85
1, 282528, Note_off_c, 0, 74, 70
1, 282549, Note_off_c, 0, 86, 64
1, 282580, Note_on_c, 0, 78, 95
1, 282608, Control_c, 0, 64, 88
1, 282612, Note_on_c, 0, 77, 85
1, 282613, Note_on_c, 0, 89, 93
1, 282619, Note_off_c, 0, 78, 63
1, 282623, Control_c, 0, 64, 63
1, 282633, Note_off_c, 0, 77, 71
1, 282636, Note_off_c, 0, 89, 67
1, 282638, Control_c, 0, 64, 44
1, 282653, Control_c, 0, 64, 46
1, 282667, Control_c, 0, 64, 64
1, 282682, Control_c, 0, 64, 98
1, 282687, Note_on_c, 0, 80, 98
1, 282697, Control_c, 0, 64, 127
1, 282724, Note_on_c, 0, 93, 94
1, 282728, Note_on_c, 0, 81, 83
1, 282729, Note_off_c, 0, 80, 63
1, 282747, Note_off_c, 0, 81, 70
1, 282751, Note_off_c, 0, 93, 64
1, 282788, Note_on_c, 0, 78, 87
1, 282828, Note_off_c, 0, 78, 61
1, 282836, Note_on_c, 0, 77, 85
1, 282836, Note_on_c, 0, 89, 91
1, 282858, Note_off_c, 0, 77, 70
1, 282862, Note_off_c, 0, 89, 66
1, 282900, Note_on_c, 0, 75, 87
1, 282931, Note_off_c, 0, 75, 62
1, 282944, Note_on_c, 0, 74, 82
1, 282949, Control_c, 0, 64, 71
1, 282949, Note_on_c, 0, 86, 74
1, 282962, Note_on_c, 0, 88, 53
1, 282964, Control_c, 0, 64, 48
1, 282968, Note_off_c, 0, 74, 69
1, 282975, Note_off_c, 0, 86, 68
1, 282979, Control_c, 0, 64, 0
1, 282985, Note_off_c, 0, 88, 37
1, 282993, Control_c, 0, 64, 18
1, 283004, Note_on_c, 0, 73, 86
1, 283008, Control_c, 0, 64, 56
1, 283023, Control_c, 0, 64, 78
1, 283038, Control_c, 0, 64, 110
1, 283044, Note_off_c, 0, 73, 64
1, 283053, Control_c, 0, 64, 127
1, 283058, Note_on_c, 0, 83, 87
1, 283058, Note_on_c, 0, 71, 77
1, 283079, Note_off_c, 0, 83, 71
1, 283080, Note_off_c, 0, 71, 66
1, 283115, Note_on_c, 0, 75, 90
1, 283158, Note_off_c, 0, 75, 62
1, 283164, Note_on_c, 0, 86, 95
1, 283165, Note_on_c, 0, 74, 75
1, 283183, Note_off_c, 0, 86, 69
1, 283187, Note_off_c, 0, 74, 69
1, 283218, Note_on_c, 0, 78, 97
1, 283259, Note_off_c, 0, 78, 64
1, 283261, Control_c, 0, 64, 104
1, 283265, Note_on_c, 0, 89, 93
1, 283270, Note_on_c, 0, 77, 78
1, 283276, Control_c, 0, 64, 66
1, 283295, Note_off_c, 0, 89, 68
1, 283298, Control_c, 0, 64, 44
1, 283302, Note_off_c, 0, 77, 69
1, 283311, Poly_aftertouch_c, 0, 74, 0
1, 283313, Control_c, 0, 64, 35
1, 283327, Control_c, 0, 64, 58
1, 283334, Note_on_c, 0, 80, 94
1, 283342, Control_c, 0, 64, 88
1, 283357, Control_c, 0, 64, 127
1, 283372, Note_off_c, 0, 80, 65
1, 283384, Note_on_c, 0, 93, 94
1, 283384, Note_on_c, 0, 81, 85
1, 283403, Note_off_c, 0, 81, 70
1, 283404, Note_off_c, 0, 93, 66
1, 283437, Note_on_c, 0, 78, 89
1, 283479, Note_off_c, 0, 78, 61
1, 283483, Note_on_c, 0, 77, 86
1, 283484, Note_on_c, 0, 89, 93
1, 283490, Poly_aftertouch_c, 0, 87, 0
1, 283503, Note_off_c, 0, 77, 71
1, 283512, Note_off_c, 0, 89, 63
1, 283545, Note_on_c, 0, 75, 86
1, 283572, Note_off_c, 0, 75, 66
1, 283579, Control_c, 0, 64, 81
1, 283584, Note_on_c, 0, 86, 80
1, 283589, Note_on_c, 0, 74, 76
1, 283594, Control_c, 0, 64, 53
1, 283604, Note_off_c, 0, 74, 69
1, 283608, Control_c, 0, 64, 11
1, 283609, Note_off_c, 0, 86, 67
1, 283623, Control_c, 0, 64, 48
1, 283638, Control_c, 0, 64, 80
1, 283642, Note_on_c, 0, 80, 76
1, 283653, Control_c, 0, 64, 127
1, 283691, Note_off_c, 0, 80, 65
1, 283711, Note_on_c, 0, 93, 73
1, 283715, Note_on_c, 0, 81, 58
1, 283720, Note_on_c, 0, 91, 60
1, 283726, Note_off_c, 0, 93, 68
1, 283729, Note_on_c, 0, 79, 52
1, 283734, Note_off_c, 0, 81, 63
1, 283736, Note_off_c, 0, 91, 66
1, 283751, Note_off_c, 0, 79, 61
1, 283754, Note_on_c, 0, 78, 93
1, 283795, Note_off_c, 0, 78, 62
1, 283810, Note_on_c, 0, 89, 86
1, 283813, Note_on_c, 0, 77, 78
1, 283832, Note_off_c, 0, 89, 68
1, 283837, Note_off_c, 0, 77, 69
1, 283866, Note_on_c, 0, 75, 95
1, 283895, Note_off_c, 0, 75, 64
1, 283914, Note_on_c, 0, 86, 84
1, 283918, Note_on_c, 0, 74, 61
1, 283920, Control_c, 0, 64, 74
1, 283934, Note_off_c, 0, 86, 69
1, 283934, Control_c, 0, 64, 56
1, 283936, Note_off_c, 0, 74, 65
1, 283949, Control_c, 0, 64, 54
1, 283964, Control_c, 0, 64, 67
1, 283967, Note_on_c, 0, 80, 95
1, 283979, Control_c, 0, 64, 93
1, 283994, Control_c, 0, 64, 127
1, 284006, Note_off_c, 0, 80, 65
1, 284022, Note_on_c, 0, 93, 91
1, 284024, Note_on_c, 0, 81, 83
1, 284047, Poly_aftertouch_c, 0, 86, 0
1, 284051, Note_off_c, 0, 81, 70
1, 284052, Note_off_c, 0, 93, 66
1, 284082, Note_on_c, 0, 78, 92
1, 284123, Note_off_c, 0, 78, 64
1, 284130, Note_on_c, 0, 89, 91
1, 284135, Note_on_c, 0, 77, 79
1, 284158, Note_off_c, 0, 77, 69
1, 284162, Note_off_c, 0, 89, 64
1, 284186, Note_on_c, 0, 75, 95
1, 284224, Note_off_c, 0, 75, 64
1, 284232, Note_on_c, 0, 74, 82
1, 284233, Note_on_c, 0, 86, 92
1, 284239, Control_c, 0, 64, 118
1, 284251, Note_off_c, 0, 86, 71
1, 284252, Note_off_c, 0, 74, 69
1, 284254, Control_c, 0, 64, 95
1, 284269, Control_c, 0, 64, 96
1, 284282, Note_on_c, 0, 80, 92
1, 284284, Control_c, 0, 64, 120
1, 284299, Control_c, 0, 64, 127
1, 284321, Note_off_c, 0, 80, 65
1, 284326, Note_on_c, 0, 74, 18
1, 284327, Note_off_c, 0, 74, 127
1, 284344, Note_on_c, 0, 93, 100
1, 284346, Note_on_c, 0, 81, 87
1, 284366, Note_off_c, 0, 81, 70
1, 284366, Note_off_c, 0, 93, 64
1, 284387, Note_on_c, 0, 78, 100
1, 284426, Note_off_c, 0, 78, 66
1, 284448, Note_on_c, 0, 89, 95
1, 284451, Note_on_c, 0, 77, 89
1, 284472, Note_off_c, 0, 77, 72
1, 284482, Note_off_c, 0, 89, 64
1, 284484, Note_on_c, 0, 82, 36
1, 284485, Note_off_c, 0, 82, 127
1, 284496, Note_on_c, 0, 75, 105
1, 284520, Poly_aftertouch_c, 0, 82, 0
1, 284531, Note_off_c, 0, 75, 68
1, 284556, Note_on_c, 0, 86, 83
1, 284562, Note_on_c, 0, 74, 63
1, 284570, Note_on_c, 0, 76, 57
1, 284575, Note_off_c, 0, 86, 71
1, 284579, Note_off_c, 0, 74, 66
1, 284579, Control_c, 0, 64, 79
1, 284585, Note_on_c, 0, 88, 47
1, 284593, Note_off_c, 0, 76, 59
1, 284594, Control_c, 0, 64, 73
1, 284595, Note_on_c, 0, 80, 100
1, 284609, Control_c, 0, 64, 82
1, 284612, Note_off_c, 0, 88, 57
1, 284624, Control_c, 0, 64, 127
1, 284643, Note_off_c, 0, 80, 65
1, 284651, Note_on_c, 0, 86, 13
1, 284663, Note_on_c, 0, 93, 95
1, 284669, Note_on_c, 0, 81, 73
1, 284676, Note_off_c, 0, 86, 45
1, 284684, Note_off_c, 0, 93, 66
1, 284693, Note_off_c, 0, 81, 69
1, 284702, Note_on_c, 0, 78, 94
1, 284746, Note_off_c, 0, 78, 65
1, 284773, Note_on_c, 0, 79, 72
1, 284774, Note_on_c, 0, 91, 74
1, 284779, Note_on_c, 0, 89, 80
1, 284797, Note_off_c, 0, 79, 71
1, 284799, Note_on_c, 0, 77, 51
1, 284806, Note_off_c, 0, 91, 69
1, 284809, Note_off_c, 0, 89, 69
1, 284820, Note_on_c, 0, 75, 89
1, 284822, Note_off_c, 0, 77, 62
1, 284863, Note_off_c, 0, 75, 66
1, 284869, Control_c, 0, 64, 114
1, 284883, Note_on_c, 0, 86, 90
1, 284884, Control_c, 0, 64, 63
1, 284885, Note_on_c, 0, 74, 80
1, 284899, Control_c, 0, 64, 10
1, 284904, Poly_aftertouch_c, 0, 89, 0
1, 284910, Note_off_c, 0, 74, 68
1, 284914, Control_c, 0, 64, 13
1, 284929, Note_off_c, 0, 86, 65
1, 284929, Control_c, 0, 64, 56
1, 284943, Note_on_c, 0, 75, 93
1, 284943, Control_c, 0, 64, 82
1, 284958, Control_c, 0, 64, 127
1, 284991, Note_off_c, 0, 75, 62
1, 285019, Note_on_c, 0, 89, 86
1, 285024, Note_on_c, 0, 77, 78
1, 285047, Note_off_c, 0, 77, 69
1, 285063, Note_off_c, 0, 89, 64
1, 285077, Note_on_c, 0, 78, 83
1, 285108, Note_off_c, 0, 78, 62
1, 285146, Note_on_c, 0, 93, 83
1, 285155, Note_on_c, 0, 81, 60
1, 285167, Note_on_c, 0, 91, 53
1, 285168, Note_off_c, 0, 91, 127
1, 285173, Note_off_c, 0, 81, 64
1, 285176, Note_off_c, 0, 93, 65
1, 285196, Note_on_c, 0, 80, 85
1, 285221, Note_off_c, 0, 80, 63
1, 285252, Note_on_c, 0, 95, 94
1, 285271, Note_on_c, 0, 83, 56
1, 285289, Note_off_c, 0, 95, 69
1, 285292, Note_off_c, 0, 83, 63
1, 285304, Note_on_c, 0, 82, 96
1, 285352, Note_off_c, 0, 82, 61
1, 285354, Note_on_c, 0, 80, 5
1, 285363, Note_on_c, 0, 98, 96
1, 285384, Note_on_c, 0, 86, 58
1, 285400, Note_off_c, 0, 98, 65
1, 285407, Note_off_c, 0, 86, 63
1, 285411, Note_on_c, 0, 85, 105
1, 285411, Note_off_c, 0, 80, 32
1, 285456, Note_off_c, 0, 85, 65
1, 285472, Note_on_c, 0, 101, 101
1, 285492, Note_on_c, 0, 89, 68
1, 285508, Note_off_c, 0, 89, 68
1, 285513, Note_off_c, 0, 101, 67
1, 285521, Note_on_c, 0, 87, 103
1, 285569, Note_off_c, 0, 87, 69
1, 285593, Note_on_c, 0, 105, 107
1, 285618, Note_on_c, 0, 93, 62
1, 285619, Note_off_c, 0, 93, 127
1, 285636, Note_off_c, 0, 105, 69
1, 285665, Note_on_c, 0, 90, 112
1, 285712, Note_off_c, 0, 90, 67
1, 285748, Note_on_c, 0, 107, 103
1, 285789, Note_off_c, 0, 107, 67
1, 285807, Note_on_c, 0, 87, 94
1, 285852, Note_off_c, 0, 87, 64
1, 285867, Note_on_c, 0, 105, 100
1, 285897, Note_on_c, 0, 93, 50
1, 285899, Note_on_c, 0, 95, 49
1, 285901, Note_off_c, 0, 105, 69
1, 285921, Note_on_c, 0, 85, 94
1, 285922, Note_off_c, 0, 93, 60
1, 285924, Note_off_c, 0, 95, 62
1, 285963, Note_off_c, 0, 85, 65
1, 285977, Note_on_c, 0, 101, 100
1, 285992, Note_on_c, 0, 89, 68
1, 286002, Note_on_c, 0, 91, 46
1, 286008, Note_off_c, 0, 89, 68
1, 286012, Note_off_c, 0, 101, 65
1, 286025, Note_on_c, 0, 82, 104
1, 286026, Note_off_c, 0, 91, 58
1, 286064, Note_off_c, 0, 82, 67
1, 286082, Note_on_c, 0, 100, 89
1, 286083, Note_on_c, 0, 98, 94
1, 286085, Note_on_c, 0, 88, 73
1, 286094, Note_on_c, 0, 86, 70
1, 286100, Note_off_c, 0, 100, 73
1, 286102, Note_off_c, 0, 88, 70
1, 286104, Note_off_c, 0, 98, 68
1, 286111, Note_off_c, 0, 86, 67
1, 286120, Note_on_c, 0, 92, 29
1, 286121, Note_off_c, 0, 92, 127
1, 286128, Note_on_c, 0, 80, 105
1, 286158, Poly_aftertouch_c, 0, 92, 0
1, 286165, Note_off_c, 0, 80, 63
1, 286179, Note_on_c, 0, 96, 98
1, 286182, Note_on_c, 0, 84, 91
1, 286194, Note_on_c, 0, 95, 77
1, 286200, Note_off_c, 0, 84, 73
1, 286201, Note_off_c, 0, 96, 66
1, 286209, Note_off_c, 0, 95, 43
1, 286228, Note_on_c, 0, 78, 105
1, 286267, Note_off_c, 0, 78, 64
1, 286273, Note_on_c, 0, 93, 102
1, 286290, Note_on_c, 0, 81, 77
1, 286310, Note_off_c, 0, 93, 63
1, 286314, Note_off_c, 0, 81, 69
1, 286332, Note_on_c, 0, 75, 103
1, 286348, Poly_aftertouch_c, 0, 84, 0
1, 286371, Note_off_c, 0, 75, 68
1, 286378, Note_on_c, 0, 91, 101
1, 286383, Note_on_c, 0, 79, 81
1, 286403, Note_off_c, 0, 79, 72
1, 286409, Note_off_c, 0, 91, 63
1, 286431, Note_on_c, 0, 73, 108
1, 286463, Note_off_c, 0, 73, 68
1, 286475, Note_on_c, 0, 88, 102
1, 286477, Note_on_c, 0, 76, 91
1, 286496, Note_off_c, 0, 76, 70
1, 286496, Note_off_c, 0, 88, 70
1, 286508, Note_on_c, 0, 80, 37
1, 286509, Note_off_c, 0, 80, 127
1, 286526, Note_on_c, 0, 70, 75
1, 286537, Poly_aftertouch_c, 0, 80, 0
1, 286541, Note_on_c, 0, 72, 64
1, 286542, Note_off_c, 0, 72, 127
1, 286552, Note_on_c, 0, 68, 40
1, 286564, Note_on_c, 0, 72, 76
1, 286565, Note_on_c, 0, 84, 96
1, 286574, Note_off_c, 0, 70, 63
1, 286577, Note_off_c, 0, 68, 63
1, 286600, Note_off_c, 0, 84, 67
1, 286605, Note_off_c, 0, 72, 64
1, 286608, Note_on_c, 0, 74, 23
1, 286629, Poly_aftertouch_c, 0, 71, 0
1, 286661, Note_off_c, 0, 74, 35
1, 286674, Note_on_c, 0, 61, 32
1, 286678, Control_c, 0, 64, 63
1, 286693, Control_c, 0, 64, 0
1, 286696, Note_off_c, 0, 61, 54
1, 286708, Note_on_c, 0, 74, 56
1, 286709, Note_on_c, 0, 77, 78
1, 286722, Note_on_c, 0, 69, 81
1, 286722, Note_on_c, 0, 81, 82
1, 286732, Note_on_c, 0, 71, 63
1, 286735, Note_on_c, 0, 61, 68
1, 286738, Control_c, 0, 64, 41
1, 286738, Note_on_c, 0, 65, 63
1, 286739, Note_on_c, 0, 66, 55
1, 286741, Note_off_c, 0, 74, 69
1, 286747, Note_off_c, 0, 69, 69
1, 286750, Note_off_c, 0, 71, 63
1, 286752, Note_off_c, 0, 77, 66
1, 286752, Control_c, 0, 64, 97
1, 286761, Note_off_c, 0, 81, 67
1, 286767, Note_on_c, 0, 62, 56
1, 286767, Control_c, 0, 64, 127
1, 286780, Note_on_c, 0, 83, 11
1, 286781, Note_off_c, 0, 83, 127
1, 286792, Note_off_c, 0, 65, 51
1, 286802, Note_on_c, 0, 69, 76
1, 286807, Note_off_c, 0, 62, 46
1, 286807, Note_off_c, 0, 66, 45
1, 286819, Poly_aftertouch_c, 0, 83, 0
1, 286831, Note_on_c, 0, 86, 101
1, 286832, Note_on_c, 0, 74, 91
1, 286835, Note_off_c, 0, 61, 62
1, 286849, Note_off_c, 0, 69, 65
1, 286852, Note_off_c, 0, 74, 71
1, 286859, Note_off_c, 0, 86, 63
1, 286890, Note_on_c, 0, 80, 3
1, 286891, Note_off_c, 0, 80, 127
1, 286901, Note_on_c, 0, 65, 82
1, 286905, Note_on_c, 0, 61, 57
1, 286917, Note_on_c, 0, 66, 56
1, 286920, Poly_aftertouch_c, 0, 80, 0
1, 286929, Note_on_c, 0, 62, 23
1, 286934, Note_on_c, 0, 89, 92
1, 286934, Note_on_c, 0, 77, 85
1, 286937, Note_on_c, 0, 91, 93
1, 286950, Note_off_c, 0, 61, 59
1, 286952, Note_off_c, 0, 89, 73
1, 286953, Note_off_c, 0, 66, 49
1, 286954, Note_off_c, 0, 91, 73
1, 286956, Note_off_c, 0, 77, 71
1, 286964, Note_off_c, 0, 62, 55
1, 286965, Note_off_c, 0, 65, 60
1, 286966, Note_on_c, 0, 69, 60
1, 286979, Note_on_c, 0, 79, 11
1, 286991, Poly_aftertouch_c, 0, 74, 0
1, 287003, Note_off_c, 0, 69, 66
1, 287020, Note_off_c, 0, 79, 52
1, 287024, Note_on_c, 0, 93, 101
1, 287040, Note_on_c, 0, 95, 71
1, 287041, Note_off_c, 0, 95, 127
1, 287042, Note_on_c, 0, 61, 77
1, 287053, Note_on_c, 0, 65, 82
1, 287055, Note_on_c, 0, 62, 64
1, 287056, Note_off_c, 0, 93, 69
1, 287059, Note_on_c, 0, 66, 30
1, 287092, Note_off_c, 0, 66, 50
1, 287099, Poly_aftertouch_c, 0, 91, 0
1, 287106, Note_on_c, 0, 69, 70
1, 287129, Note_off_c, 0, 65, 63
1, 287143, Note_off_c, 0, 62, 61
1, 287148, Note_off_c, 0, 69, 63
1, 287162, Note_on_c, 0, 66, 79
1, 287217, Note_off_c, 0, 66, 63
1, 287253, Note_on_c, 0, 65, 50
1, 287277, Note_on_c, 0, 62, 74
1, 287290, Note_on_c, 0, 69, 57
1, 287297, Note_off_c, 0, 61, 31
1, 287304, Note_off_c, 0, 62, 67
1, 287310, Note_on_c, 0, 70, 62
1, 287316, Note_off_c, 0, 69, 67
1, 287317, Note_off_c, 0, 65, 63
1, 287366, Note_off_c, 0, 70, 62
1, 287385, Note_on_c, 0, 62, 73
1, 287385, Note_on_c, 0, 69, 68
1, 287393, Note_on_c, 0, 65, 68
1, 287422, Note_on_c, 0, 70, 67
1, 287423, Note_on_c, 0, 61, 66
1, 287423, Note_off_c, 0, 65, 65
1, 287426, Note_off_c, 0, 62, 66
1, 287430, Note_on_c, 0, 66, 73
1, 287433, Note_off_c, 0, 69, 65
1, 287463, Note_off_c, 0, 66, 61
1, 287463, Note_off_c, 0, 70, 61
1, 287471, Note_off_c, 0, 61, 62
1, 287492, Note_on_c, 0, 65, 68
1, 287496, Note_on_c, 0, 62, 86
1, 287506, Note_on_c, 0, 69, 63
1, 287524, Note_off_c, 0, 65, 64
1, 287525, Note_off_c, 0, 69, 69
1, 287527, Note_off_c, 0, 62, 67
1, 287533, Note_on_c, 0, 61, 79
1, 287536, Note_on_c, 0, 70, 81
1, 287539, Note_on_c, 0, 66, 79
1, 287568, Note_off_c, 0, 66, 65
1, 287568, Note_off_c, 0, 70, 57
1, 287570, Note_off_c, 0, 61, 61
1, 287590, Note_on_c, 0, 65, 78
1, 287590, Note_on_c, 0, 69, 77
1, 287591, Note_on_c, 0, 62, 83
1, 287634, Note_on_c, 0, 70, 89
1, 287635, Note_off_c, 0, 65, 65
1, 287638, Note_off_c, 0, 69, 66
1, 287639, Note_on_c, 0, 66, 78
1, 287639, Note_off_c, 0, 62, 66
1, 287642, Note_on_c, 0, 61, 85
1, 287671, Note_off_c, 0, 61, 63
1, 287684, Note_off_c, 0, 66, 64
1, 287688, Note_off_c, 0, 70, 60
1, 287697, Note_on_c, 0, 62, 83
1, 287700, Note_on_c, 0, 65, 87
1, 287700, Note_on_c, 0, 69, 82
1, 287733, Note_on_c, 0, 70, 69
1, 287740, Note_off_c, 0, 62, 66
1, 287740, Note_off_c, 0, 69, 62
1, 287744, Note_off_c, 0, 65, 60
1, 287745, Note_on_c, 0, 66, 76
1, 287748, Note_on_c, 0, 61, 70
1, 287786, Note_off_c, 0, 61, 65
1, 287799, Note_on_c, 0, 69, 76
1, 287800, Note_off_c, 0, 66, 63
1, 287801, Note_on_c, 0, 65, 74
1, 287802, Note_on_c, 0, 62, 76
1, 287852, Note_on_c, 0, 61, 86
1, 287852, Note_off_c, 0, 62, 64
1, 287855, Note_off_c, 0, 70, 62
1, 287860, Note_on_c, 0, 66, 74
1, 287872, Note_off_c, 0, 65, 64
1, 287884, Note_off_c, 0, 69, 64
1, 287897, Note_off_c, 0, 61, 63
1, 287902, Note_on_c, 0, 70, 65
1, 287913, Note_off_c, 0, 66, 64
1, 287958, Note_on_c, 0, 61, 71
1, 287968, Note_on_c, 0, 66, 73
1, 287971, Note_off_c, 0, 70, 62
1, 288012, Note_off_c, 0, 61, 62
1, 288019, Note_off_c, 0, 66, 58
1, 288022, Note_on_c, 0, 70, 61
1, 288077, Note_on_c, 0, 66, 65
1, 288083, Note_on_c, 0, 60, 57
1, 288084, Note_off_c, 0, 70, 63
1, 288103, Note_on_c, 0, 64, 59
1, 288122, Note_off_c, 0, 60, 59
1, 288124, Note_on_c, 0, 61, 3
1, 288126, Note_on_c, 0, 70, 64
1, 288130, Note_off_c, 0, 64, 60
1, 288147, Note_off_c, 0, 66, 62
1, 288162, Note_off_c, 0, 61, 51
1, 288176, Control_c, 0, 64, 82
1, 288183, Note_off_c, 0, 70, 52
1, 288191, Control_c, 0, 64, 47
1, 288192, Poly_aftertouch_c, 0, 84, 127
1, 288198, Note_on_c, 0, 60, 83
1, 288201, Note_on_c, 0, 91, 102
1, 288201, Note_on_c, 0, 79, 103
1, 288202, Note_on_c, 0, 88, 47
1, 288203, Note_on_c, 0, 64, 74
1, 288205, Note_on_c, 0, 66, 76
1, 288205, Control_c, 0, 64, 0
1, 288235, Control_c, 0, 64, 42
1, 288250, Control_c, 0, 64, 77
1, 288265, Control_c, 0, 64, 127
1, 288268, Note_on_c, 0, 70, 76
1, 288288, Note_off_c, 0, 60, 60
1, 288289, Note_off_c, 0, 64, 65
1, 288289, Note_off_c, 0, 79, 64
1, 288290, Note_off_c, 0, 91, 67
1, 288299, Note_off_c, 0, 88, 67
1, 288300, Note_off_c, 0, 66, 65
1, 288312, Poly_aftertouch_c, 0, 84, 0
1, 288353, Note_off_c, 0, 70, 51
1, 288362, Note_on_c, 0, 60, 73
1, 288365, Note_on_c, 0, 66, 66
1, 288370, Note_on_c, 0, 64, 68
1, 288379, Note_on_c, 0, 76, 85
1, 288386, Note_on_c, 0, 88, 83
1, 288399, Note_off_c, 0, 76, 68
1, 288404, Note_off_c, 0, 64, 62
1, 288407, Note_off_c, 0, 88, 72
1, 288416, Note_on_c, 0, 70, 67
1, 288427, Note_off_c, 0, 66, 61
1, 288434, Note_off_c, 0, 60, 57
1, 288467, Note_on_c, 0, 60, 58
1, 288483, Note_on_c, 0, 72, 96
1, 288487, Note_on_c, 0, 84, 95
1, 288490, Note_off_c, 0, 70, 63
1, 288494, Note_on_c, 0, 64, 65
1, 288496, Note_on_c, 0, 66, 57
1, 288516, Note_off_c, 0, 84, 65
1, 288517, Note_off_c, 0, 72, 61
1, 288538, Note_off_c, 0, 60, 59
1, 288549, Note_off_c, 0, 64, 62
1, 288556, Note_off_c, 0, 66, 54
1, 288575, Note_on_c, 0, 70, 44
1, 288598, Note_off_c, 0, 70, 60
1, 288611, Note_on_c, 0, 67, 102
1, 288613, Note_on_c, 0, 79, 104
1, 288627, Note_on_c, 0, 60, 77
1, 288633, Note_on_c, 0, 64, 73
1, 288645, Note_on_c, 0, 66, 52
1, 288648, Note_on_c, 0, 69, 28
1, 288649, Note_off_c, 0, 69, 127
1, 288667, Note_off_c, 0, 67, 0
1, 288677, Note_on_c, 0, 70, 77
1, 288682, Note_off_c, 0, 79, 65
1, 288687, Poly_aftertouch_c, 0, 69, 0
1, 288691, Poly_aftertouch_c, 0, 67, 0
1, 288695, Note_off_c, 0, 60, 62
1, 288701, Note_off_c, 0, 64, 64
1, 288702, Note_off_c, 0, 66, 64
1, 288738, Note_off_c, 0, 70, 63
1, 288771, Note_on_c, 0, 60, 81
1, 288777, Note_on_c, 0, 64, 69
1, 288779, Note_on_c, 0, 66, 71
1, 288813, Note_on_c, 0, 70, 62
1, 288818, Note_off_c, 0, 60, 62
1, 288832, Note_off_c, 0, 66, 61
1, 288840, Note_on_c, 0, 67, 74
1, 288848, Note_off_c, 0, 70, 64
1, 288856, Note_on_c, 0, 72, 59
1, 288866, Note_off_c, 0, 67, 67
1, 288875, Note_off_c, 0, 64, 65
1, 288876, Note_off_c, 0, 72, 62
1, 288895, Note_on_c, 0, 61, 79
1, 288919, Note_on_c, 0, 66, 53
1, 288942, Note_off_c, 0, 61, 62
1, 288942, Note_off_c, 0, 66, 59
1, 288946, Note_on_c, 0, 67, 65
1, 288953, Note_on_c, 0, 72, 74
1, 288958, Note_on_c, 0, 64, 75
1, 288983, Note_off_c, 0, 72, 63
1, 288985, Note_off_c, 0, 64, 66
1, 288985, Note_off_c, 0, 67, 65
1, 288987, Poly_aftertouch_c, 0, 70, 127
1, 289011, Note_on_c, 0, 66, 80
1, 289011, Note_on_c, 0, 70, 52
1, 289013, Note_on_c, 0, 61, 84
1, 289048, Note_off_c, 0, 61, 57
1, 289051, Note_off_c, 0, 70, 64
1, 289057, Note_on_c, 0, 64, 68
1, 289058, Note_on_c, 0, 72, 74
1, 289059, Note_off_c, 0, 66, 62
1, 289064, Note_on_c, 0, 67, 80
1, 289089, Note_off_c, 0, 67, 67
1, 289092, Note_off_c, 0, 64, 67
1, 289097, Note_off_c, 0, 72, 59
1, 289120, Note_on_c, 0, 61, 83
1, 289120, Note_on_c, 0, 70, 90
1, 289122, Note_on_c, 0, 66, 76
1, 289150, Note_off_c, 0, 61, 61
1, 289154, Note_on_c, 0, 67, 74
1, 289158, Note_off_c, 0, 66, 61
1, 289159, Note_on_c, 0, 72, 85
1, 289162, Note_on_c, 0, 64, 89
1, 289164, Note_off_c, 0, 70, 60
1, 289190, Note_off_c, 0, 64, 68
1, 289193, Note_off_c, 0, 67, 65
1, 289203, Note_off_c, 0, 72, 64
1, 289214, Note_on_c, 0, 70, 80
1, 289215, Note_on_c, 0, 61, 83
1, 289219, Note_on_c, 0, 66, 84
1, 289248, Note_off_c, 0, 61, 63
1, 289259, Note_on_c, 0, 72, 84
1, 289259, Note_on_c, 0, 64, 95
1, 289264, Note_on_c, 0, 67, 90
1, 289265, Note_off_c, 0, 66, 63
1, 289273, Note_off_c, 0, 70, 62
1, 289302, Note_off_c, 0, 67, 67
1, 289307, Note_off_c, 0, 64, 65
1, 289311, Note_off_c, 0, 72, 62
1, 289322, Note_on_c, 0, 70, 65
1, 289328, Note_on_c, 0, 66, 81
1, 289329, Note_on_c, 0, 61, 87
1, 289358, Note_on_c, 0, 64, 80
1, 289360, Note_on_c, 0, 72, 78
1, 289368, Note_on_c, 0, 67, 85
1, 289369, Note_off_c, 0, 61, 63
1, 289383, Note_off_c, 0, 66, 59
1, 289388, Note_off_c, 0, 64, 61
1, 289417, Note_off_c, 0, 67, 65
1, 289432, Note_off_c, 0, 72, 63
1, 289435, Note_off_c, 0, 70, 62
1, 289444, Note_on_c, 0, 66, 65
1, 289445, Note_on_c, 0, 61, 75
1, 289504, Note_on_c, 0, 70, 91
1, 289527, Note_on_c, 0, 73, 38
1, 289528, Note_off_c, 0, 66, 63
1, 289563, Note_on_c, 0, 68, 13
1, 289564, Note_off_c, 0, 70, 65
1, 289592, Note_off_c, 0, 61, 63
1, 289608, Note_off_c, 0, 73, 34
1, 289614, Note_off_c, 0, 68, 38
1, 289629, Control_c, 0, 64, 67
1, 289635, Note_on_c, 0, 61, 66
1, 289644, Control_c, 0, 64, 0
1, 289657, Note_on_c, 0, 74, 98
1, 289659, Note_on_c, 0, 69, 95
1, 289659, Note_on_c, 0, 77, 92
1, 289659, Note_on_c, 0, 81, 97
1, 289660, Note_on_c, 0, 65, 64
1, 289666, Note_on_c, 0, 62, 54
1, 289689, Control_c, 0, 64, 47
1, 289704, Note_off_c, 0, 74, 66
1, 289704, Control_c, 0, 64, 78
1, 289710, Note_off_c, 0, 69, 0
1, 289718, Note_off_c, 0, 62, 56
1, 289718, Control_c, 0, 64, 127
1, 289723, Note_off_c, 0, 77, 66
1, 289724, Note_off_c, 0, 81, 66
1, 289732, Note_off_c, 0, 65, 64
1, 289745, Note_off_c, 0, 61, 60
1, 289746, Poly_aftertouch_c, 0, 69, 127
1, 289756, Poly_aftertouch_c, 0, 64, 0
1, 289804, Note_on_c, 0, 86, 99
1, 289805, Note_on_c, 0, 61, 62
1, 289805, Note_on_c, 0, 74, 80
1, 289817, Poly_aftertouch_c, 0, 69, 0
1, 289820, Note_on_c, 0, 62, 58
1, 289825, Note_on_c, 0, 66, 64
1, 289826, Note_on_c, 0, 84, 55
1, 289827, Note_off_c, 0, 84, 127
1, 289827, Note_off_c, 0, 74, 71
1, 289832, Note_on_c, 0, 65, 45
1, 289838, Note_off_c, 0, 86, 70
1, 289874, Note_on_c, 0, 69, 68
1, 289885, Note_off_c, 0, 66, 42
1, 289900, Note_off_c, 0, 65, 40
1, 289905, Note_on_c, 0, 89, 103
1, 289913, Note_on_c, 0, 77, 78
1, 289927, Note_off_c, 0, 69, 64
1, 289935, Note_off_c, 0, 89, 69
1, 289936, Note_off_c, 0, 77, 69
1, 289962, Poly_aftertouch_c, 0, 74, 0
1, 289963, Note_on_c, 0, 65, 57
1, 289996, Note_on_c, 0, 69, 92
1, 289996, Note_off_c, 0, 61, 52
1, 289999, Note_on_c, 0, 93, 104
1, 290005, Note_off_c, 0, 65, 59
1, 290007, Note_on_c, 0, 81, 92
1, 290059, Note_off_c, 0, 62, 0
1, 290060, Note_off_c, 0, 69, 62
1, 290064, Note_on_c, 0, 61, 46
1, 290073, Note_on_c, 0, 62, 53
1, 290080, Note_on_c, 0, 65, 73
1, 290108, Note_on_c, 0, 66, 49
1, 290132, Note_on_c, 0, 69, 74
1, 290132, Note_off_c, 0, 62, 60
1, 290133, Note_off_c, 0, 65, 62
1, 290136, Note_off_c, 0, 66, 52
1, 290148, Note_off_c, 0, 61, 0
1, 290163, Note_on_c, 0, 61, 50
1, 290177, Note_on_c, 0, 62, 60
1, 290186, Note_off_c, 0, 69, 66
1, 290198, Note_on_c, 0, 65, 52
1, 290198, Note_off_c, 0, 93, 64
1, 290214, Note_off_c, 0, 81, 58
1, 290217, Note_on_c, 0, 64, 36
1, 290219, Note_on_c, 0, 66, 45
1, 290232, Note_off_c, 0, 65, 59
1, 290240, Note_on_c, 0, 69, 70
1, 290242, Note_off_c, 0, 62, 62
1, 290248, Note_off_c, 0, 61, 63
1, 290248, Note_off_c, 0, 66, 56
1, 290251, Note_off_c, 0, 64, 55
1, 290283, Poly_aftertouch_c, 0, 90, 0
1, 290288, Poly_aftertouch_c, 0, 61, 0
1, 290297, Note_off_c, 0, 69, 64
1, 290300, Note_on_c, 0, 61, 53
1, 290309, Note_on_c, 0, 62, 65
1, 290326, Note_on_c, 0, 65, 40
1, 290341, Note_on_c, 0, 66, 34
1, 290344, Note_off_c, 0, 61, 65
1, 290346, Note_on_c, 0, 69, 77
1, 290360, Note_off_c, 0, 65, 50
1, 290362, Control_c, 0, 64, 101
1, 290366, Note_off_c, 0, 62, 65
1, 290370, Note_off_c, 0, 66, 54
1, 290377, Control_c, 0, 64, 58
1, 290391, Note_off_c, 0, 69, 68
1, 290392, Control_c, 0, 64, 0
1, 290396, Note_on_c, 0, 88, 46
1, 290400, Note_on_c, 0, 84, 83
1, 290404, Note_on_c, 0, 91, 97
1, 290404, Note_on_c, 0, 79, 94
1, 290411, Note_on_c, 0, 60, 78
1, 290422, Note_on_c, 0, 66, 72
1, 290422, Control_c, 0, 64, 55
1, 290428, Note_on_c, 0, 64, 57
1, 290437, Control_c, 0, 64, 92
1, 290452, Note_off_c, 0, 79, 65
1, 290452, Control_c, 0, 64, 127
1, 290453, Note_off_c, 0, 88, 67
1, 290458, Note_off_c, 0, 91, 66
1, 290467, Note_off_c, 0, 84, 65
1, 290494, Note_off_c, 0, 64, 63
1, 290498, Note_off_c, 0, 60, 57
1, 290503, Note_off_c, 0, 66, 62
1, 290513, Note_on_c, 0, 70, 72
1, 290530, Note_on_c, 0, 76, 90
1, 290532, Note_on_c, 0, 88, 93
1, 290550, Note_on_c, 0, 60, 73
1, 290564, Note_off_c, 0, 88, 65
1, 290566, Note_on_c, 0, 66, 58
1, 290566, Note_off_c, 0, 70, 64
1, 290570, Note_off_c, 0, 76, 64
1, 290571, Note_on_c, 0, 64, 66
1, 290607, Note_off_c, 0, 64, 60
1, 290631, Note_off_c, 0, 60, 56
1, 290634, Note_on_c, 0, 70, 42
1, 290639, Note_on_c, 0, 84, 92
1, 290640, Note_on_c, 0, 72, 99
1, 290662, Note_off_c, 0, 70, 55
1, 290675, Note_off_c, 0, 72, 64
1, 290676, Note_off_c, 0, 84, 66
1, 290693, Note_off_c, 0, 66, 60
1, 290732, Note_on_c, 0, 60, 89
1, 290737, Note_on_c, 0, 70, 96
1, 290741, Note_on_c, 0, 64, 67
1, 290748, Note_on_c, 0, 82, 85
1, 290761, Note_on_c, 0, 80, 59
1, 290763, Note_on_c, 0, 66, 45
1, 290767, Note_off_c, 0, 82, 71
1, 290779, Note_on_c, 0, 65, 38
1, 290780, Note_off_c, 0, 65, 127
1, 290785, Note_off_c, 0, 70, 65
1, 290788, Note_off_c, 0, 80, 65
1, 290839, Note_off_c, 0, 64, 65
1, 290840, Note_on_c, 0, 70, 70
1, 290845, Note_on_c, 0, 82, 26
1, 290847, Note_off_c, 0, 60, 62
1, 290869, Note_off_c, 0, 70, 57
1, 290880, Note_off_c, 0, 66, 46
1, 290885, Note_off_c, 0, 82, 40
1, 290909, Note_on_c, 0, 60, 78
1, 290916, Note_on_c, 0, 66, 57
1, 290922, Note_on_c, 0, 64, 60
1, 290956, Note_off_c, 0, 64, 63
1, 290959, Note_off_c, 0, 60, 62
1, 290965, Poly_aftertouch_c, 0, 70, 127
1, 290977, Note_off_c, 0, 66, 62
1, 290988, Poly_aftertouch_c, 0, 70, 0
1, 291060, Note_on_c, 0, 61, 77
1, 291069, Note_on_c, 0, 70, 67
1, 291075, Note_on_c, 0, 66, 60
1, 291090, Poly_aftertouch_c, 0, 64, 0
1, 291091, Note_off_c, 0, 61, 62
1, 291093, Note_off_c, 0, 70, 55
1, 291099, Note_off_c, 0, 66, 64
1, 291111, Note_on_c, 0, 64, 44
1, 291119, Note_on_c, 0, 67, 62
1, 291134, Note_on_c, 0, 72, 53
1, 291149, Note_off_c, 0, 67, 65
1, 291155, Note_off_c, 0, 64, 64
1, 291156, Note_off_c, 0, 72, 62
1, 291170, Note_on_c, 0, 61, 72
1, 291170, Note_on_c, 0, 66, 77
1, 291176, Note_on_c, 0, 70, 73
1, 291206, Note_off_c, 0, 61, 63
1, 291206, Note_off_c, 0, 66, 63
1, 291207, Note_off_c, 0, 70, 57
1, 291230, Note_on_c, 0, 72, 78
1, 291233, Note_on_c, 0, 67, 66
1, 291234, Note_on_c, 0, 64, 74
1, 291259, Note_off_c, 0, 67, 64
1, 291260, Note_off_c, 0, 72, 61
1, 291260, Note_off_c, 0, 64, 67
1, 291277, Note_on_c, 0, 61, 79
1, 291277, Note_on_c, 0, 70, 82
1, 291288, Note_on_c, 0, 66, 78
1, 291314, Note_off_c, 0, 66, 64
1, 291321, Note_off_c, 0, 61, 62
1, 291322, Note_on_c, 0, 64, 81
1, 291322, Note_off_c, 0, 70, 60
1, 291325, Note_on_c, 0, 72, 74
1, 291328, Note_on_c, 0, 67, 81
1, 291363, Note_off_c, 0, 72, 56
1, 291365, Note_off_c, 0, 67, 64
1, 291370, Note_off_c, 0, 64, 65
1, 291374, Note_on_c, 0, 70, 77
1, 291376, Note_on_c, 0, 66, 85
1, 291382, Note_on_c, 0, 61, 71
1, 291418, Note_off_c, 0, 61, 64
1, 291423, Note_on_c, 0, 72, 64
1, 291424, Note_off_c, 0, 66, 63
1, 291438, Note_on_c, 0, 64, 58
1, 291441, Note_off_c, 0, 70, 52
1, 291469, Note_on_c, 0, 67, 50
1, 291474, Note_on_c, 0, 61, 77
1, 291480, Note_on_c, 0, 66, 69
1, 291498, Note_off_c, 0, 64, 65
1, 291516, Note_off_c, 0, 67, 65
1, 291529, Note_on_c, 0, 70, 87
1, 291529, Note_off_c, 0, 72, 65
1, 291538, Note_off_c, 0, 61, 62
1, 291577, Note_off_c, 0, 70, 66
1, 291614, Note_off_c, 0, 66, 0
1, 291621, Note_on_c, 0, 64, 80
1, 291623, Poly_aftertouch_c, 0, 68, 127
1, 291633, Note_on_c, 0, 66, 33
1, 291634, Note_on_c, 0, 70, 99
1, 291639, Note_on_c, 0, 61, 50
1, 291650, Poly_aftertouch_c, 0, 68, 0
1, 291656, Note_on_c, 0, 60, 62
1, 291683, Note_off_c, 0, 70, 64
1, 291707, Note_on_c, 0, 67, 79
1, 291721, Note_off_c, 0, 64, 63
1, 291754, Note_off_c, 0, 61, 0
1, 291763, Note_on_c, 0, 72, 93
1, 291771, Note_on_c, 0, 71, 81
1, 291774, Note_off_c, 0, 60, 0
1, 291778, Note_off_c, 0, 67, 58
1, 291781, Note_off_c, 0, 66, 0
1, 291784, Note_on_c, 0, 64, 61
1, 291784, Note_on_c, 0, 61, 6
1, 291790, Note_off_c, 0, 71, 60
1, 291790, Note_on_c, 0, 60, 30
1, 291795, Note_on_c, 0, 66, 46
1, 291811, Note_off_c, 0, 72, 65
1, 291852, Note_on_c, 0, 67, 74
1, 291852, Note_off_c, 0, 66, 55
1, 291855, Note_off_c, 0, 64, 64
1, 291867, Note_on_c, 0, 73, 99
1, 291883, Note_off_c, 0, 60, 52
1, 291897, Note_off_c, 0, 67, 61
1, 291912, Note_off_c, 0, 73, 67
1, 291926, Note_off_c, 0, 61, 0
1, 291948, Note_on_c, 0, 61, 25
1, 291951, Note_on_c, 0, 66, 60
1, 291963, Note_on_c, 0, 60, 30
1, 291963, Note_on_c, 0, 78, 97
1, 291974, Note_on_c, 0, 64, 54
1, 291985, Note_on_c, 0, 67, 66
1, 292001, Note_off_c, 0, 78, 65
1, 292002, Note_off_c, 0, 64, 56
1, 292037, Note_off_c, 0, 67, 62
1, 292042, Note_off_c, 0, 60, 0
1, 292043, Note_off_c, 0, 66, 60
1, 292054, Note_on_c, 0, 76, 102
1, 292054, Control_c, 0, 64, 113
1, 292057, Note_on_c, 0, 60, 28
1, 292069, Control_c, 0, 64, 96
1, 292084, Note_on_c, 0, 77, 34
1, 292085, Note_off_c, 0, 77, 127
1, 292085, Control_c, 0, 64, 101
1, 292099, Control_c, 0, 64, 127
1, 292114, Note_on_c, 0, 64, 55
1, 292133, Note_on_c, 0, 72, 92
1, 292145, Note_off_c, 0, 76, 62
1, 292159, Note_off_c, 0, 61, 20
1, 292166, Note_off_c, 0, 64, 55
1, 292174, Note_on_c, 0, 66, 74
1, 292186, Note_off_c, 0, 72, 61
1, 292197, Note_on_c, 0, 67, 96
1, 292207, Poly_aftertouch_c, 0, 62, 0
1, 292213, Note_off_c, 0, 60, 37
1, 292229, Poly_aftertouch_c, 0, 62, 0
1, 292237, Note_off_c, 0, 67, 65
1, 292262, Note_off_c, 0, 66, 62
1, 292267, Note_on_c, 0, 64, 68
1, 292280, Note_on_c, 0, 70, 99
1, 292287, Note_on_c, 0, 60, 42
1, 292289, Note_on_c, 0, 61, 68
1, 292305, Note_on_c, 0, 67, 46
1, 292333, Note_off_c, 0, 67, 39
1, 292354, Note_off_c, 0, 61, 54
1, 292365, Note_off_c, 0, 60, 59
1, 292381, Note_off_c, 0, 70, 63
1, 292387, Note_on_c, 0, 66, 93
1, 292390, Note_on_c, 0, 61, 61
1, 292419, Note_off_c, 0, 64, 65
1, 292422, Note_off_c, 0, 66, 67
1, 292446, Note_off_c, 0, 61, 65
1, 292489, Note_on_c, 0, 64, 84
1, 292496, Note_on_c, 0, 72, 74
1, 292500, Note_on_c, 0, 67, 65
1, 292502, Note_on_c, 0, 66, 66
1, 292503, Note_on_c, 0, 70, 56
1, 292517, Note_off_c, 0, 64, 61
1, 292520, Note_off_c, 0, 67, 67
1, 292524, Note_off_c, 0, 66, 69
1, 292531, Note_off_c, 0, 70, 65
1, 292533, Note_off_c, 0, 72, 61
1, 292578, Note_on_c, 0, 66, 77
1, 292583, Note_on_c, 0, 67, 72
1, 292588, Note_on_c, 0, 64, 72
1, 292588, Note_on_c, 0, 72, 68
1, 292622, Note_off_c, 0, 64, 57
1, 292623, Note_on_c, 0, 70, 45
1, 292624, Note_off_c, 0, 67, 63
1, 292628, Note_off_c, 0, 72, 53
1, 292634, Note_off_c, 0, 66, 63
1, 292644, Note_off_c, 0, 70, 60
1, 292696, Note_on_c, 0, 54, 114
1, 292714, Note_on_c, 0, 64, 73
1, 292719, Note_on_c, 0, 67, 78
1, 292720, Note_on_c, 0, 70, 58
1, 292721, Note_off_c, 0, 54, 67
1, 292727, Note_on_c, 0, 66, 62
1, 292740, Note_on_c, 0, 72, 40
1, 292740, Note_off_c, 0, 64, 67
1, 292750, Note_off_c, 0, 67, 64
1, 292753, Note_off_c, 0, 66, 64
1, 292755, Note_off_c, 0, 70, 63
1, 292767, Note_off_c, 0, 72, 48
1, 292817, Note_on_c, 0, 64, 56
1, 292827, Note_on_c, 0, 66, 66
1, 292837, Note_on_c, 0, 67, 58
1, 292869, Note_off_c, 0, 67, 58
1, 292869, Note_off_c, 0, 66, 56
1, 292871, Note_on_c, 0, 72, 32
1, 292875, Note_off_c, 0, 64, 58
1, 292882, Note_on_c, 0, 70, 12
1, 292904, Note_off_c, 0, 72, 43
1, 292921, Control_c, 0, 64, 94
1, 292925, Note_off_c, 0, 70, 54
1, 292936, Control_c, 0, 64, 56
1, 292950, Control_c, 0, 64, 0
1, 292964, Note_on_c, 0, 55, 112
1, 292965, Control_c, 0, 64, 19
1, 292971, Note_on_c, 0, 64, 85
1, 292978, Note_on_c, 0, 67, 76
1, 292980, Control_c, 0, 64, 65
1, 292981, Note_on_c, 0, 72, 73
1, 292983, Note_on_c, 0, 66, 70
1, 292995, Note_off_c, 0, 55, 65
1, 292995, Control_c, 0, 64, 127
1, 293002, Note_off_c, 0, 64, 62
1, 293009, Note_off_c, 0, 72, 61
1, 293010, Note_off_c, 0, 66, 64
1, 293012, Note_off_c, 0, 67, 65
1, 293033, Note_on_c, 0, 70, 38
1, 293063, Note_off_c, 0, 70, 54
1, 293087, Note_on_c, 0, 66, 77
1, 293094, Note_on_c, 0, 72, 66
1, 293096, Note_on_c, 0, 67, 80
1, 293096, Note_on_c, 0, 64, 68
1, 293121, Note_off_c, 0, 64, 69
1, 293123, Note_off_c, 0, 72, 62
1, 293128, Note_off_c, 0, 67, 59
1, 293132, Note_off_c, 0, 66, 61
1, 293192, Note_on_c, 0, 64, 59
1, 293196, Note_on_c, 0, 72, 70
1, 293198, Note_on_c, 0, 60, 104
1, 293198, Note_on_c, 0, 66, 80
1, 293203, Note_on_c, 0, 70, 44
1, 293206, Note_on_c, 0, 67, 78
1, 293224, Note_off_c, 0, 72, 64
1, 293230, Note_off_c, 0, 67, 67
1, 293234, Note_off_c, 0, 60, 65
1, 293234, Note_off_c, 0, 64, 65
1, 293239, Note_off_c, 0, 70, 64
1, 293244, Note_off_c, 0, 66, 62
1, 293289, Note_on_c, 0, 66, 70
1, 293295, Note_on_c, 0, 72, 70
1, 293302, Note_on_c, 0, 70, 82
1, 293319, Note_on_c, 0, 64, 35
1, 293322, Note_off_c, 0, 66, 64
1, 293338, Note_off_c, 0, 72, 61
1, 293341, Note_off_c, 0, 70, 62
1, 293347, Note_off_c, 0, 64, 56
1, 293388, Control_c, 0, 64, 68
1, 293402, Control_c, 0, 64, 51
1, 293407, Note_on_c, 0, 58, 97
1, 293417, Control_c, 0, 64, 57
1, 293421, Note_on_c, 0, 67, 80
1, 293432, Control_c, 0, 64, 74
1, 293437, Note_on_c, 0, 70, 60
1, 293447, Note_off_c, 0, 58, 64
1, 293447, Control_c, 0, 64, 127
1, 293451, Note_off_c, 0, 67, 62
1, 293460, Note_off_c, 0, 70, 60
1, 293462, Note_on_c, 0, 72, 22
1, 293464, Note_on_c, 0, 73, 13
1, 293497, Note_off_c, 0, 72, 0
1, 293504, Note_on_c, 0, 54, 97
1, 293516, Poly_aftertouch_c, 0, 72, 0
1, 293527, Poly_aftertouch_c, 0, 67, 0
1, 293528, Note_on_c, 0, 70, 76
1, 293534, Note_on_c, 0, 72, 23
1, 293549, Note_off_c, 0, 54, 65
1, 293569, Note_off_c, 0, 72, 50
1, 293579, Note_off_c, 0, 70, 58
1, 293587, Note_off_c, 0, 73, 44
1, 293591, Note_on_c, 0, 49, 90
1, 293645, Note_off_c, 0, 49, 63
1, 293654, Note_on_c, 0, 67, 97
1, 293662, Note_on_c, 0, 76, 87
1, 293663, Note_on_c, 0, 72, 69
1, 293665, Note_on_c, 0, 73, 78
1, 293665, Note_on_c, 0, 70, 84
1, 293672, Note_on_c, 0, 52, 104
1, 293679, Note_on_c, 0, 71, 67
1, 293685, Control_c, 0, 64, 119
1, 293697, Note_off_c, 0, 71, 40
1, 293699, Control_c, 0, 64, 68
1, 293705, Note_off_c, 0, 67, 65
1, 293714, Control_c, 0, 64, 25
1, 293717, Note_off_c, 0, 72, 63
1, 293717, Note_off_c, 0, 73, 60
1, 293717, Note_off_c, 0, 76, 61
1, 293726, Note_off_c, 0, 70, 63
1, 293729, Control_c, 0, 64, 0
1, 293785, Note_on_c, 0, 67, 91
1, 293789, Note_on_c, 0, 70, 72
1, 293791, Note_on_c, 0, 72, 74
1, 293793, Note_on_c, 0, 76, 74
1, 293797, Note_on_c, 0, 73, 65
1, 293810, Note_off_c, 0, 67, 68
1, 293819, Note_off_c, 0, 72, 67
1, 293820, Note_off_c, 0, 70, 63
1, 293823, Note_off_c, 0, 73, 67
1, 293823, Note_off_c, 0, 76, 66
1, 293840, Control_c, 0, 64, 58
1, 293855, Control_c, 0, 64, 99
1, 293870, Control_c, 0, 64, 127
1, 293895, Note_on_c, 0, 72, 101
1, 293896, Note_on_c, 0, 73, 82
1, 293898, Note_on_c, 0, 79, 97
1, 293899, Note_on_c, 0, 76, 89
1, 293907, Note_on_c, 0, 78, 70
1, 293933, Note_off_c, 0, 78, 62
1, 293935, Note_off_c, 0, 52, 65
1, 293938, Note_off_c, 0, 73, 63
1, 293939, Note_off_c, 0, 72, 62
1, 293941, Note_off_c, 0, 76, 65
1, 293945, Note_off_c, 0, 79, 66
1, 294008, Note_on_c, 0, 72, 91
1, 294011, Note_on_c, 0, 73, 84
1, 294012, Note_on_c, 0, 79, 83
1, 294014, Note_on_c, 0, 78, 58
1, 294017, Note_on_c, 0, 76, 82
1, 294044, Note_off_c, 0, 72, 62
1, 294049, Note_off_c, 0, 78, 63
1, 294050, Note_off_c, 0, 76, 58
1, 294052, Note_off_c, 0, 73, 65
1, 294056, Note_off_c, 0, 79, 65
1, 294118, Note_on_c, 0, 72, 90
1, 294118, Note_on_c, 0, 79, 81
1, 294120, Note_on_c, 0, 76, 86
1, 294124, Note_on_c, 0, 73, 82
1, 294124, Note_on_c, 0, 78, 76
1, 294142, Note_off_c, 0, 72, 63
1, 294148, Note_off_c, 0, 73, 66
1, 294148, Note_off_c, 0, 78, 66
1, 294149, Note_off_c, 0, 79, 66
1, 294151, Note_off_c, 0, 76, 63
1, 294217, Note_on_c, 0, 72, 91
1, 294218, Note_on_c, 0, 73, 88
1, 294221, Note_on_c, 0, 78, 81
1, 294225, Note_on_c, 0, 79, 84
1, 294241, Note_on_c, 0, 76, 63
1, 294249, Note_on_c, 0, 77, 55
1, 294255, Note_off_c, 0, 72, 60
1, 294255, Control_c, 0, 64, 59
1, 294261, Note_off_c, 0, 76, 62
1, 294262, Note_off_c, 0, 79, 61
1, 294270, Note_off_c, 0, 77, 62
1, 294270, Control_c, 0, 64, 0
1, 294273, Note_off_c, 0, 78, 65
1, 294274, Note_off_c, 0, 73, 62
1, 294338, Note_on_c, 0, 77, 83
1, 294339, Note_on_c, 0, 81, 102
1, 294342, Note_on_c, 0, 74, 87
1, 294342, Note_on_c, 0, 71, 87
1, 294343, Control_c, 0, 64, 55
1, 294358, Control_c, 0, 64, 104
1, 294361, Note_on_c, 0, 80, 62
1, 294373, Control_c, 0, 64, 127
1, 294384, Note_off_c, 0, 80, 59
1, 294387, Note_on_c, 0, 73, 90
1, 294387, Note_on_c, 0, 78, 90
1, 294391, Note_off_c, 0, 71, 63
1, 294398, Note_off_c, 0, 81, 63
1, 294403, Note_on_c, 0, 70, 72
1, 294406, Note_off_c, 0, 77, 64
1, 294414, Note_off_c, 0, 74, 68
1, 294420, Note_off_c, 0, 78, 62
1, 294428, Note_off_c, 0, 73, 65
1, 294430, Note_off_c, 0, 70, 65
1, 294462, Note_on_c, 0, 77, 78
1, 294463, Note_on_c, 0, 81, 89
1, 294465, Note_on_c, 0, 74, 77
1, 294466, Note_on_c, 0, 71, 78
1, 294488, Note_on_c, 0, 78, 94
1, 294488, Note_off_c, 0, 71, 67
1, 294489, Note_on_c, 0, 70, 73
1, 294494, Note_on_c, 0, 73, 84
1, 294494, Note_off_c, 0, 74, 64
1, 294507, Note_off_c, 0, 77, 67
1, 294524, Note_off_c, 0, 81, 62
1, 294527, Note_off_c, 0, 73, 66
1, 294534, Note_off_c, 0, 78, 63
1, 294543, Note_off_c, 0, 70, 62
1, 294567, Note_on_c, 0, 76, 66
1, 294574, Note_on_c, 0, 79, 88
1, 294575, Note_on_c, 0, 72, 86
1, 294602, Note_off_c, 0, 72, 64
1, 294606, Note_on_c, 0, 78, 87
1, 294607, Note_on_c, 0, 73, 82
1, 294613, Note_off_c, 0, 76, 66
1, 294615, Note_off_c, 0, 79, 66
1, 294618, Note_on_c, 0, 70, 67
1, 294633, Note_off_c, 0, 78, 66
1, 294638, Note_off_c, 0, 73, 62
1, 294642, Note_off_c, 0, 70, 68
1, 294680, Note_on_c, 0, 72, 84
1, 294681, Note_on_c, 0, 76, 89
1, 294682, Note_on_c, 0, 79, 93
1, 294717, Note_off_c, 0, 72, 62
1, 294719, Note_off_c, 0, 76, 63
1, 294720, Note_on_c, 0, 70, 48
1, 294722, Control_c, 0, 64, 58
1, 294724, Note_on_c, 0, 78, 89
1, 294729, Note_on_c, 0, 73, 85
1, 294730, Note_off_c, 0, 79, 67
1, 294736, Control_c, 0, 64, 0
1, 294759, Note_off_c, 0, 73, 62
1, 294766, Control_c, 0, 64, 49
1, 294768, Note_off_c, 0, 78, 64
1, 294776, Note_off_c, 0, 70, 64
1, 294780, Control_c, 0, 64, 79
1, 294795, Note_on_c, 0, 74, 91
1, 294795, Note_on_c, 0, 81, 96
1, 294795, Control_c, 0, 64, 127
1, 294798, Note_on_c, 0, 71, 89
1, 294798, Note_on_c, 0, 77, 89
1, 294821, Note_off_c, 0, 71, 68
1, 294830, Note_off_c, 0, 74, 65
1, 294841, Note_off_c, 0, 81, 66
1, 294842, Note_off_c, 0, 77, 63
1, 294853, Note_on_c, 0, 78, 89
1, 294858, Note_on_c, 0, 73, 76
1, 294861, Note_on_c, 0, 70, 82
1, 294882, Note_off_c, 0, 73, 68
1, 294885, Note_off_c, 0, 78, 61
1, 294887, Note_off_c, 0, 70, 64
1, 294905, Note_on_c, 0, 81, 98
1, 294908, Note_on_c, 0, 71, 80
1, 294909, Note_on_c, 0, 74, 87
1, 294911, Note_on_c, 0, 77, 84
1, 294926, Note_off_c, 0, 71, 72
1, 294933, Note_off_c, 0, 74, 67
1, 294943, Note_off_c, 0, 77, 66
1, 294954, Note_off_c, 0, 81, 67
1, 294964, Note_on_c, 0, 78, 93
1, 294966, Note_on_c, 0, 70, 78
1, 294967, Note_on_c, 0, 73, 78
1, 294989, Note_on_c, 0, 71, 39
1, 294998, Note_off_c, 0, 73, 63
1, 295000, Note_off_c, 0, 78, 61
1, 295008, Note_off_c, 0, 70, 59
1, 295015, Note_off_c, 0, 71, 49
1, 295016, Note_on_c, 0, 76, 96
1, 295019, Note_on_c, 0, 72, 88
1, 295020, Note_on_c, 0, 79, 92
1, 295052, Note_off_c, 0, 76, 67
1, 295057, Note_off_c, 0, 72, 61
1, 295057, Note_off_c, 0, 79, 68
1, 295075, Note_on_c, 0, 78, 84
1, 295078, Note_on_c, 0, 73, 83
1, 295084, Note_on_c, 0, 70, 79
1, 295108, Note_off_c, 0, 78, 61
1, 295112, Note_off_c, 0, 70, 59
1, 295117, Note_off_c, 0, 73, 59
1, 295125, Note_on_c, 0, 76, 95
1, 295127, Note_on_c, 0, 79, 92
1, 295129, Note_on_c, 0, 72, 87
1, 295163, Note_off_c, 0, 76, 65
1, 295169, Note_off_c, 0, 72, 61
1, 295176, Note_off_c, 0, 79, 66
1, 295185, Note_on_c, 0, 78, 92
1, 295185, Note_on_c, 0, 70, 78
1, 295189, Note_on_c, 0, 73, 86
1, 295228, Note_off_c, 0, 78, 62
1, 295231, Note_off_c, 0, 73, 63
1, 295237, Note_off_c, 0, 70, 62
1, 295243, Note_on_c, 0, 74, 90
1, 295243, Note_on_c, 0, 81, 95
1, 295244, Note_on_c, 0, 71, 91
1, 295246, Note_on_c, 0, 77, 84
1, 295280, Note_off_c, 0, 71, 61
1, 295289, Note_off_c, 0, 74, 64
1, 295296, Note_off_c, 0, 81, 67
1, 295299, Note_on_c, 0, 78, 91
1, 295305, Note_on_c, 0, 73, 81
1, 295307, Note_off_c, 0, 77, 64
1, 295309, Note_on_c, 0, 70, 76
1, 295342, Note_off_c, 0, 78, 65
1, 295351, Note_off_c, 0, 73, 65
1, 295353, Note_off_c, 0, 70, 46
1, 295362, Note_on_c, 0, 71, 93
1, 295362, Note_on_c, 0, 81, 100
1, 295367, Note_on_c, 0, 74, 86
1, 295368, Note_on_c, 0, 77, 84
1, 295398, Note_on_c, 0, 76, 33
1, 295399, Note_off_c, 0, 76, 127
1, 295401, Note_off_c, 0, 71, 62
1, 295403, Note_off_c, 0, 74, 64
1, 295407, Note_on_c, 0, 78, 78
1, 295415, Note_off_c, 0, 81, 65
1, 295415, Note_off_c, 0, 77, 64
1, 295418, Note_on_c, 0, 73, 88
1, 295421, Note_on_c, 0, 70, 83
1, 295469, Poly_aftertouch_c, 0, 80, 0
1, 295475, Note_on_c, 0, 76, 103
1, 295476, Note_on_c, 0, 72, 68
1, 295482, Note_off_c, 0, 73, 64
1, 295484, Note_on_c, 0, 79, 91
1, 295487, Note_on_c, 0, 81, 82
1, 295492, Note_off_c, 0, 70, 62
1, 295495, Note_off_c, 0, 78, 42
1, 295495, Note_on_c, 0, 74, 58
1, 295514, Note_off_c, 0, 74, 67
1, 295517, Note_off_c, 0, 81, 61
1, 295521, Note_off_c, 0, 76, 65
1, 295531, Note_off_c, 0, 72, 64
1, 295534, Note_off_c, 0, 79, 67
1, 295540, Note_on_c, 0, 78, 83
1, 295546, Note_on_c, 0, 70, 77
1, 295547, Note_on_c, 0, 73, 88
1, 295597, Note_on_c, 0, 76, 102
1, 295597, Note_on_c, 0, 72, 97
1, 295600, Note_on_c, 0, 79, 103
1, 295611, Note_off_c, 0, 73, 65
1, 295617, Note_off_c, 0, 78, 61
1, 295621, Note_off_c, 0, 70, 63
1, 295626, Note_on_c, 0, 74, 25
1, 295633, Note_off_c, 0, 72, 67
1, 295647, Note_off_c, 0, 79, 70
1, 295656, Poly_aftertouch_c, 0, 70, 0
1, 295658, Note_on_c, 0, 78, 84
1, 295662, Note_off_c, 0, 74, 57
1, 295663, Note_on_c, 0, 70, 74
1, 295663, Note_off_c, 0, 76, 41
1, 295665, Note_on_c, 0, 73, 87
1, 295701, Note_off_c, 0, 78, 65
1, 295707, Note_off_c, 0, 73, 66
1, 295713, Note_off_c, 0, 70, 65
1, 295959, Control_c, 0, 67, 13
1, 295974, Control_c, 0, 67, 20
1, 295989, Control_c, 0, 67, 30
1, 296005, Control_c, 0, 67, 42
1, 296026, Control_c, 0, 67, 56
1, 296041, Control_c, 0, 67, 75
1, 296056, Control_c, 0, 67, 90
1, 296071, Control_c, 0, 67, 102
1, 296086, Control_c, 0, 67, 108
1, 296101, Control_c, 0, 67, 113
1, 296115, Control_c, 0, 67, 119
1, 296130, Control_c, 0, 67, 123
1, 296145, Control_c, 0, 67, 126
1, 296160, Control_c, 0, 67, 127
1, 296175, Control_c, 0, 64, 104
1, 296190, Control_c, 0, 64, 74
1, 296205, Control_c, 0, 64, 61
1, 296219, Control_c, 0, 64, 53
1, 296234, Control_c, 0, 64, 47
1, 296249, Control_c, 0, 64, 29
1, 296264, Control_c, 0, 64, 0
1, 296367, Note_on_c, 0, 69, 46
1, 296369, Note_on_c, 0, 62, 49
1, 296373, Note_on_c, 0, 55, 47
1, 296375, Note_on_c, 0, 59, 50
1, 296377, Note_on_c, 0, 65, 42
1, 296408, Note_off_c, 0, 65, 56
1, 296418, Note_off_c, 0, 62, 58
1, 296418, Note_off_c, 0, 69, 46
1, 296424, Note_off_c, 0, 59, 57
1, 296430, Note_off_c, 0, 55, 57
1, 296730, Note_on_c, 0, 69, 50
1, 296748, Note_on_c, 0, 62, 35
1, 296749, Note_on_c, 0, 59, 40
1, 296749, Note_on_c, 0, 65, 44
1, 296753, Note_on_c, 0, 55, 38
1, 296805, Control_c, 0, 64, 13
1, 296820, Control_c, 0, 64, 38
1, 296835, Control_c, 0, 64, 53
1, 296849, Control_c, 0, 64, 61
1, 296864, Control_c, 0, 64, 65
1, 296879, Control_c, 0, 64, 69
1, 296891, Note_off_c, 0, 55, 48
1, 296894, Control_c, 0, 64, 76
1, 296909, Control_c, 0, 64, 85
1, 296923, Control_c, 0, 64, 93
1, 296938, Control_c, 0, 64, 99
1, 296953, Control_c, 0, 64, 106
1, 296968, Control_c, 0, 64, 122
1, 296983, Control_c, 0, 64, 127
1, 297001, Note_off_c, 0, 59, 55
1, 297035, Note_off_c, 0, 62, 36
1, 297052, Note_off_c, 0, 65, 47
1, 297083, Note_on_c, 0, 55, 38
1, 297091, Note_on_c, 0, 60, 46
1, 297101, Note_off_c, 0, 69, 37
1, 297102, Note_on_c, 0, 67, 47
1, 297110, Note_on_c, 0, 64, 39
1, 297131, Control_c, 0, 64, 102
1, 297146, Note_off_c, 0, 64, 54
1, 297146, Note_off_c, 0, 67, 59
1, 297146, Control_c, 0, 64, 86
1, 297161, Control_c, 0, 64, 72
1, 297163, Note_off_c, 0, 55, 59
1, 297172, Note_off_c, 0, 60, 55
1, 297175, Control_c, 0, 64, 60
1, 297190, Control_c, 0, 64, 49
1, 297205, Control_c, 0, 64, 43
1, 297220, Control_c, 0, 64, 39
1, 297235, Control_c, 0, 64, 31
1, 297249, Control_c, 0, 64, 23
1, 297264, Control_c, 0, 64, 19
1, 297279, Control_c, 0, 64, 17
1, 297382, Control_c, 0, 64, 17
1, 297397, Control_c, 0, 64, 19
1, 297412, Control_c, 0, 64, 23
1, 297426, Note_on_c, 0, 67, 41
1, 297427, Control_c, 0, 64, 32
1, 297433, Note_on_c, 0, 64, 43
1, 297436, Note_on_c, 0, 60, 25
1, 297436, Note_on_c, 0, 55, 31
1, 297442, Control_c, 0, 64, 45
1, 297457, Control_c, 0, 64, 57
1, 297472, Control_c, 0, 64, 64
1, 297486, Control_c, 0, 64, 68
1, 297501, Control_c, 0, 64, 72
1, 297523, Control_c, 0, 64, 76
1, 297538, Control_c, 0, 64, 81
1, 297553, Control_c, 0, 64, 84
1, 297561, Note_off_c, 0, 55, 0
1, 297567, Control_c, 0, 64, 88
1, 297582, Note_off_c, 0, 60, 34
1, 297582, Control_c, 0, 64, 91
1, 297594, Poly_aftertouch_c, 0, 55, 0
1, 297598, Control_c, 0, 64, 92
1, 297658, Control_c, 0, 64, 93
1, 297672, Control_c, 0, 64, 94
1, 297687, Control_c, 0, 64, 95
1, 297702, Control_c, 0, 64, 96
1, 297732, Control_c, 0, 64, 91
1, 297746, Control_c, 0, 64, 76
1, 297761, Control_c, 0, 64, 62
1, 297776, Control_c, 0, 64, 45
1, 297782, Note_off_c, 0, 67, 41
1, 297791, Control_c, 0, 64, 30
1, 297802, Note_on_c, 0, 69, 46
1, 297805, Note_on_c, 0, 62, 38
1, 297806, Control_c, 0, 64, 35
1, 297807, Note_on_c, 0, 59, 35
1, 297808, Note_on_c, 0, 65, 37
1, 297809, Note_on_c, 0, 55, 34
1, 297815, Note_off_c, 0, 64, 33
1, 297821, Control_c, 0, 64, 47
1, 297835, Control_c, 0, 64, 58
1, 297842, Note_off_c, 0, 65, 55
1, 297847, Note_off_c, 0, 69, 49
1, 297849, Note_off_c, 0, 59, 54
1, 297850, Control_c, 0, 64, 64
1, 297851, Note_off_c, 0, 55, 62
1, 297865, Note_off_c, 0, 62, 50
1, 297865, Control_c, 0, 64, 65
1, 297880, Control_c, 0, 64, 64
1, 297895, Control_c, 0, 64, 62
1, 297910, Control_c, 0, 64, 57
1, 297924, Control_c, 0, 64, 51
1, 297939, Control_c, 0, 64, 45
1, 297954, Control_c, 0, 64, 39
1, 297969, Control_c, 0, 64, 32
1, 297984, Control_c, 0, 64, 22
1, 297998, Control_c, 0, 64, 11
1, 298013, Control_c, 0, 64, 0
1, 298133, Note_on_c, 0, 65, 37
1, 298135, Note_on_c, 0, 69, 45
1, 298141, Note_on_c, 0, 59, 32
1, 298143, Note_on_c, 0, 55, 20
1, 298146, Control_c, 0, 64, 25
1, 298148, Note_on_c, 0, 62, 37
1, 298161, Control_c, 0, 64, 44
1, 298176, Control_c, 0, 64, 58
1, 298190, Control_c, 0, 64, 63
1, 298205, Control_c, 0, 64, 66
1, 298220, Control_c, 0, 64, 68
1, 298235, Control_c, 0, 64, 70
1, 298250, Control_c, 0, 64, 73
1, 298252, Note_off_c, 0, 59, 36
1, 298272, Control_c, 0, 64, 76
1, 298283, Note_off_c, 0, 55, 35
1, 298287, Control_c, 0, 64, 78
1, 298302, Control_c, 0, 64, 79
1, 298316, Control_c, 0, 64, 80
1, 298331, Control_c, 0, 64, 81
1, 298421, Control_c, 0, 64, 77
1, 298436, Control_c, 0, 64, 68
1, 298451, Control_c, 0, 64, 59
1, 298466, Control_c, 0, 64, 42
1, 298481, Note_on_c, 0, 55, 31
1, 298481, Note_on_c, 0, 60, 45
1, 298481, Control_c, 0, 64, 17
1, 298489, Note_on_c, 0, 67, 44
1, 298491, Note_on_c, 0, 64, 44
1, 298493, Note_off_c, 0, 65, 35
1, 298495, Control_c, 0, 64, 0
1, 298515, Note_off_c, 0, 69, 36
1, 298518, Note_off_c, 0, 62, 39
1, 298530, Note_off_c, 0, 64, 56
1, 298531, Note_off_c, 0, 67, 55
1, 298536, Note_off_c, 0, 55, 61
1, 298539, Note_off_c, 0, 60, 57
1, 298807, Control_c, 0, 64, 16
1, 298819, Note_on_c, 0, 67, 39
1, 298821, Control_c, 0, 64, 37
1, 298822, Note_on_c, 0, 64, 39
1, 298826, Note_on_c, 0, 60, 28
1, 298833, Note_on_c, 0, 55, 33
1, 298836, Control_c, 0, 64, 50
1, 298851, Control_c, 0, 64, 57
1, 298866, Control_c, 0, 64, 60
1, 298881, Control_c, 0, 64, 62
1, 298895, Control_c, 0, 64, 63
1, 298910, Control_c, 0, 64, 64
1, 298925, Control_c, 0, 64, 66
1, 298939, Control_c, 0, 64, 67
1, 298954, Control_c, 0, 64, 68
1, 298969, Control_c, 0, 64, 69
1, 298983, Note_off_c, 0, 55, 33
1, 299095, Control_c, 0, 64, 68
1, 299110, Control_c, 0, 64, 65
1, 299125, Control_c, 0, 64, 59
1, 299139, Control_c, 0, 64, 47
1, 299148, Note_off_c, 0, 67, 49
1, 299154, Control_c, 0, 64, 28
1, 299168, Note_off_c, 0, 60, 36
1, 299169, Control_c, 0, 64, 0
1, 299176, Note_on_c, 0, 69, 39
1, 299177, Note_on_c, 0, 65, 44
1, 299179, Note_on_c, 0, 55, 31
1, 299181, Note_on_c, 0, 59, 42
1, 299191, Note_on_c, 0, 62, 36
1, 299195, Note_off_c, 0, 64, 28
1, 299217, Note_off_c, 0, 65, 61
1, 299221, Note_off_c, 0, 55, 55
1, 299226, Note_off_c, 0, 59, 61
1, 299243, Note_off_c, 0, 69, 46
1, 299245, Note_off_c, 0, 62, 48
1, 299522, Note_on_c, 0, 59, 37
1, 299523, Note_on_c, 0, 69, 40
1, 299526, Note_on_c, 0, 55, 28
1, 299529, Note_on_c, 0, 65, 39
1, 299529, Note_on_c, 0, 62, 32
1, 299541, Control_c, 0, 64, 13
1, 299555, Control_c, 0, 64, 32
1, 299570, Control_c, 0, 64, 42
1, 299585, Control_c, 0, 64, 46
1, 299600, Control_c, 0, 64, 46
1, 299615, Control_c, 0, 64, 44
1, 299630, Control_c, 0, 64, 42
1, 299644, Control_c, 0, 64, 41
1, 299674, Control_c, 0, 64, 39
1, 299688, Control_c, 0, 64, 37
1, 299699, Note_off_c, 0, 55, 40
1, 299703, Control_c, 0, 64, 35
1, 299718, Control_c, 0, 64, 34
1, 299733, Control_c, 0, 64, 34
1, 299748, Control_c, 0, 64, 32
1, 299770, Control_c, 0, 64, 31
1, 299785, Control_c, 0, 64, 29
1, 299800, Control_c, 0, 64, 26
1, 299815, Control_c, 0, 64, 23
1, 299830, Control_c, 0, 64, 15
1, 299844, Control_c, 0, 64, 0
1, 299881, Note_on_c, 0, 67, 52
1, 299885, Note_on_c, 0, 60, 46
1, 299896, Note_off_c, 0, 62, 42
1, 299898, Note_on_c, 0, 64, 48
1, 299900, Note_on_c, 0, 55, 30
1, 299908, Note_off_c, 0, 59, 42
1, 299908, Note_off_c, 0, 65, 35
1, 299910, Note_off_c, 0, 69, 42
1, 299940, Note_off_c, 0, 64, 64
1, 299943, Note_off_c, 0, 67, 60
1, 299949, Note_off_c, 0, 55, 62
1, 299949, Note_off_c, 0, 60, 59
1, 300465, Note_on_c, 0, 72, 44
1, 300471, Note_on_c, 0, 70, 39
1, 300530, Note_off_c, 0, 72, 61
1, 300539, Note_off_c, 0, 70, 57
1, 300549, Note_on_c, 0, 73, 53
1, 300557, Note_on_c, 0, 76, 58
1, 300604, Note_off_c, 0, 73, 59
1, 300615, Note_off_c, 0, 76, 62
1, 300623, Note_on_c, 0, 78, 51
1, 300638, Note_on_c, 0, 79, 63
1, 300697, Note_off_c, 0, 78, 62
1, 300706, Note_off_c, 0, 79, 65
1, 300711, Control_c, 0, 67, 126
1, 300720, Note_on_c, 0, 82, 53
1, 300720, Note_on_c, 0, 84, 64
1, 300726, Control_c, 0, 67, 125
1, 300741, Control_c, 0, 67, 124
1, 300756, Control_c, 0, 67, 123
1, 300771, Control_c, 0, 67, 122
1, 300777, Note_off_c, 0, 82, 0
1, 300777, Note_on_c, 0, 82, 4
1, 300787, Control_c, 0, 67, 121
1, 300801, Control_c, 0, 67, 119
1, 300816, Control_c, 0, 67, 117
1, 300831, Control_c, 0, 67, 114
1, 300846, Control_c, 0, 67, 113
1, 300861, Control_c, 0, 67, 112
1, 300876, Control_c, 0, 67, 111
1, 300890, Control_c, 0, 67, 109
1, 300905, Control_c, 0, 67, 107
1, 300920, Control_c, 0, 67, 105
1, 300935, Control_c, 0, 67, 104
1, 300950, Control_c, 0, 67, 103
1, 300964, Control_c, 0, 67, 102
1, 300979, Control_c, 0, 67, 101
1, 300994, Control_c, 0, 67, 98
1, 301008, Control_c, 0, 67, 95
1, 301023, Control_c, 0, 67, 93
1, 301038, Control_c, 0, 67, 93
1, 301053, Control_c, 0, 67, 92
1, 301068, Control_c, 0, 67, 88
1, 301082, Control_c, 0, 67, 85
1, 301097, Control_c, 0, 67, 83
1, 301112, Control_c, 0, 67, 81
1, 301127, Control_c, 0, 67, 80
1, 301141, Control_c, 0, 67, 78
1, 301156, Control_c, 0, 67, 74
1, 301171, Control_c, 0, 67, 70
1, 301186, Control_c, 0, 67, 66
1, 301201, Control_c, 0, 67, 62
1, 301216, Control_c, 0, 67, 60
1, 301231, Control_c, 0, 67, 57
1, 301246, Control_c, 0, 67, 54
1, 301268, Control_c, 0, 67, 51
1, 301283, Control_c, 0, 67, 47
1, 301297, Control_c, 0, 67, 44
1, 301312, Control_c, 0, 67, 40
1, 301327, Control_c, 0, 67, 38
1, 301341, Control_c, 0, 67, 37
1, 301356, Control_c, 0, 67, 36
1, 301371, Control_c, 0, 67, 35
1, 301386, Control_c, 0, 67, 35
1, 301401, Control_c, 0, 67, 31
1, 301416, Control_c, 0, 67, 28
1, 301430, Control_c, 0, 67, 25
1, 301445, Control_c, 0, 67, 22
1, 301460, Control_c, 0, 67, 19
1, 301472, Note_off_c, 0, 82, 57
1, 301475, Control_c, 0, 67, 17
1, 301489, Note_off_c, 0, 84, 62
1, 301490, Control_c, 0, 67, 17
1, 301490, Note_on_c, 0, 78, 50
1, 301490, Note_on_c, 0, 79, 65
1, 301520, Control_c, 0, 67, 16
1, 301534, Control_c, 0, 67, 15
1, 301549, Control_c, 0, 67, 14
1, 301564, Control_c, 0, 67, 12
1, 301579, Control_c, 0, 67, 12
1, 301594, Control_c, 0, 67, 11
1, 301624, Note_off_c, 0, 78, 56
1, 301672, Note_on_c, 0, 84, 63
1, 301679, Note_on_c, 0, 82, 49
1, 301697, Note_off_c, 0, 79, 58
1, 301743, Control_c, 0, 67, 12
1, 301793, Note_off_c, 0, 82, 56
1, 301810, Note_off_c, 0, 84, 59
1, 301820, Note_on_c, 0, 79, 57
1, 301845, Note_on_c, 0, 78, 35
1, 301846, Control_c, 0, 67, 12
1, 301964, Control_c, 0, 67, 13
1, 302018, Note_off_c, 0, 79, 62
1, 302026, Note_off_c, 0, 78, 19
1, 302049, Note_on_c, 0, 84, 47
1, 302051, Note_on_c, 0, 82, 46
1, 302077, Control_c, 0, 67, 12
1, 302107, Control_c, 0, 67, 12
1, 302121, Control_c, 0, 67, 11
1, 302136, Note_off_c, 0, 82, 54
1, 302151, Control_c, 0, 67, 11
1, 302165, Control_c, 0, 67, 10
1, 302180, Control_c, 0, 67, 9
1, 302195, Control_c, 0, 67, 0
1, 302247, Note_off_c, 0, 84, 61
1, 302707, Note_on_c, 0, 32, 63
1, 302720, Note_on_c, 0, 39, 76
1, 302738, Note_on_c, 0, 80, 81
1, 302742, Note_on_c, 0, 44, 82
1, 302743, Control_c, 0, 64, 35
1, 302744, Note_on_c, 0, 75, 77
1, 302745, Note_on_c, 0, 68, 92
1, 302745, Note_on_c, 0, 72, 82
1, 302766, Control_c, 0, 64, 78
1, 302768, Note_off_c, 0, 32, 62
1, 302775, Note_off_c, 0, 39, 63
1, 302781, Control_c, 0, 64, 127
1, 302783, Note_off_c, 0, 44, 65
1, 302793, Note_off_c, 0, 75, 60
1, 302822, Note_off_c, 0, 80, 60
1, 302839, Note_off_c, 0, 68, 63
1, 302930, Note_off_c, 0, 72, 20
1, 302962, Note_on_c, 0, 68, 91
1, 302969, Note_on_c, 0, 80, 75
1, 303008, Note_off_c, 0, 68, 64
1, 303019, Note_off_c, 0, 80, 64
1, 303102, Note_on_c, 0, 68, 97
1, 303114, Note_on_c, 0, 56, 70
1, 303137, Note_off_c, 0, 68, 67
1, 303138, Note_off_c, 0, 56, 65
1, 303285, Control_c, 0, 64, 79
1, 303299, Control_c, 0, 64, 47
1, 303314, Control_c, 0, 64, 0
1, 303492, Control_c, 0, 64, 30
1, 303495, Note_on_c, 0, 68, 85
1, 303514, Control_c, 0, 64, 62
1, 303529, Control_c, 0, 64, 82
1, 303544, Control_c, 0, 64, 112
1, 303550, Note_on_c, 0, 80, 25
1, 303559, Control_c, 0, 64, 127
1, 303584, Note_off_c, 0, 68, 57
1, 303589, Note_off_c, 0, 80, 43
1, 303670, Note_on_c, 0, 68, 93
1, 303685, Note_on_c, 0, 56, 63
1, 303710, Note_off_c, 0, 68, 63
1, 303735, Note_off_c, 0, 56, 60
1, 303798, Note_on_c, 0, 68, 95
1, 303854, Note_off_c, 0, 68, 61
1, 303901, Note_on_c, 0, 68, 96
1, 303911, Poly_aftertouch_c, 0, 80, 0
1, 303927, Note_on_c, 0, 56, 63
1, 303940, Note_off_c, 0, 68, 67
1, 303978, Note_off_c, 0, 56, 60
1, 304001, Note_on_c, 0, 68, 96
1, 304029, Note_on_c, 0, 80, 45
1, 304054, Note_off_c, 0, 80, 58
1, 304063, Note_off_c, 0, 68, 64
1, 304089, Note_on_c, 0, 68, 97
1, 304103, Note_on_c, 0, 56, 75
1, 304134, Note_off_c, 0, 68, 67
1, 304187, Note_on_c, 0, 68, 95
1, 304187, Note_off_c, 0, 56, 59
1, 304188, Note_on_c, 0, 80, 74
1, 304221, Note_off_c, 0, 68, 62
1, 304245, Note_off_c, 0, 80, 63
1, 304268, Note_on_c, 0, 68, 91
1, 304283, Note_on_c, 0, 56, 87
1, 304290, Note_off_c, 0, 68, 68
1, 304310, Note_off_c, 0, 56, 65
1, 304384, Poly_aftertouch_c, 0, 66, 0
1, 304471, Control_c, 0, 64, 86
1, 304486, Control_c, 0, 64, 61
1, 304501, Control_c, 0, 64, 0
1, 304545, Note_on_c, 0, 94, 96
1, 304548, Note_on_c, 0, 85, 89
1, 304554, Note_on_c, 0, 30, 84
1, 304554, Note_on_c, 0, 82, 85
1, 304554, Note_on_c, 0, 90, 86
1, 304556, Note_on_c, 0, 42, 84
1, 304557, Note_on_c, 0, 37, 86
1, 304575, Note_off_c, 0, 82, 71
1, 304586, Note_off_c, 0, 94, 66
1, 304587, Note_off_c, 0, 85, 65
1, 304589, Control_c, 0, 64, 60
1, 304595, Note_off_c, 0, 30, 63
1, 304595, Note_off_c, 0, 90, 67
1, 304604, Control_c, 0, 64, 127
1, 304608, Note_off_c, 0, 42, 63
1, 304611, Note_off_c, 0, 37, 64
1, 304969, Note_on_c, 0, 66, 104
1, 304994, Note_off_c, 0, 66, 65
1, 305967, Control_c, 0, 64, 112
1, 305982, Control_c, 0, 64, 103
1, 305997, Control_c, 0, 64, 95
1, 306012, Control_c, 0, 64, 87
1, 306027, Control_c, 0, 64, 78
1, 306042, Control_c, 0, 64, 72
1, 306057, Control_c, 0, 64, 68
1, 306072, Control_c, 0, 64, 65
1, 306086, Control_c, 0, 64, 63
1, 306101, Control_c, 0, 64, 61
1, 306116, Control_c, 0, 64, 60
1, 306130, Control_c, 0, 64, 58
1, 306145, Control_c, 0, 64, 56
1, 306160, Control_c, 0, 64, 51
1, 306175, Control_c, 0, 64, 40
1, 306190, Control_c, 0, 64, 19
1, 306204, Control_c, 0, 64, 0
1, 307042, Control_c, 0, 64, 25
1, 307057, Control_c, 0, 64, 43
1, 307071, Control_c, 0, 64, 55
1, 307086, Control_c, 0, 64, 59
1, 307101, Control_c, 0, 64, 59
1, 307116, Control_c, 0, 64, 60
1, 307131, Control_c, 0, 64, 63
1, 307145, Control_c, 0, 64, 67
1, 307160, Control_c, 0, 64, 72
1, 307176, Control_c, 0, 64, 79
1, 307191, Control_c, 0, 64, 83
1, 307206, Control_c, 0, 64, 87
1, 307221, Control_c, 0, 64, 95
1, 307236, Control_c, 0, 64, 115
1, 307258, Control_c, 0, 64, 127
1, 307390, Note_on_c, 0, 50, 82
1, 307407, Note_on_c, 0, 38, 54
1, 307407, Note_on_c, 0, 42, 63
1, 307407, Note_on_c, 0, 45, 59
1, 307435, Note_off_c, 0, 45, 67
1, 307437, Note_off_c, 0, 38, 62
1, 307442, Note_off_c, 0, 42, 62
1, 307459, Note_off_c, 0, 50, 65
1, 307684, Note_on_c, 0, 81, 79
1, 307714, Note_on_c, 0, 74, 52
1, 307714, Note_on_c, 0, 78, 62
1, 307721, Note_on_c, 0, 62, 57
1, 307722, Note_on_c, 0, 69, 55
1, 307728, Note_on_c, 0, 66, 45
1, 307770, Note_off_c, 0, 69, 54
1, 307816, Note_off_c, 0, 81, 60
1, 307820, Note_off_c, 0, 74, 58
1, 307828, Note_on_c, 0, 76, 54
1, 307836, Control_c, 0, 67, 8
1, 307839, Note_off_c, 0, 66, 59
1, 307845, Note_off_c, 0, 78, 55
1, 307860, Note_on_c, 0, 73, 38
1, 307864, Note_off_c, 0, 62, 61
1, 307880, Control_c, 0, 67, 8
1, 307894, Control_c, 0, 67, 9
1, 307909, Control_c, 0, 67, 9
1, 307917, Note_off_c, 0, 73, 60
1, 307920, Note_off_c, 0, 76, 64
1, 307924, Control_c, 0, 67, 11
1, 307930, Note_on_c, 0, 81, 70
1, 307932, Note_on_c, 0, 64, 56
1, 307939, Note_on_c, 0, 67, 46
1, 307939, Control_c, 0, 67, 11
1, 307949, Note_on_c, 0, 74, 53
1, 307954, Control_c, 0, 67, 13
1, 307956, Note_on_c, 0, 78, 52
1, 307970, Control_c, 0, 67, 15
1, 307985, Control_c, 0, 67, 17
1, 308006, Control_c, 0, 67, 19
1, 308021, Control_c, 0, 67, 20
1, 308024, Note_off_c, 0, 74, 47
1, 308025, Note_off_c, 0, 81, 61
1, 308036, Control_c, 0, 67, 22
1, 308037, Note_on_c, 0, 76, 70
1, 308046, Note_off_c, 0, 78, 55
1, 308050, Note_on_c, 0, 73, 49
1, 308051, Control_c, 0, 67, 24
1, 308066, Control_c, 0, 67, 26
1, 308081, Control_c, 0, 67, 27
1, 308086, Note_off_c, 0, 64, 63
1, 308096, Control_c, 0, 67, 28
1, 308097, Note_off_c, 0, 67, 59
1, 308129, Note_off_c, 0, 76, 63
1, 308130, Note_on_c, 0, 62, 56
1, 308133, Note_off_c, 0, 73, 55
1, 308134, Note_on_c, 0, 69, 50
1, 308137, Note_on_c, 0, 66, 44
1, 308143, Note_on_c, 0, 74, 63
1, 308143, Note_on_c, 0, 81, 68
1, 308155, Control_c, 0, 67, 28
1, 308161, Note_on_c, 0, 78, 59
1, 308170, Control_c, 0, 67, 29
1, 308185, Control_c, 0, 67, 30
1, 308194, Note_off_c, 0, 69, 51
1, 308199, Control_c, 0, 67, 31
1, 308214, Control_c, 0, 67, 33
1, 308218, Note_off_c, 0, 74, 57
1, 308229, Control_c, 0, 67, 34
1, 308231, Note_off_c, 0, 81, 60
1, 308238, Note_on_c, 0, 76, 69
1, 308244, Control_c, 0, 67, 36
1, 308259, Note_on_c, 0, 73, 49
1, 308259, Control_c, 0, 67, 37
1, 308266, Note_off_c, 0, 78, 55
1, 308273, Control_c, 0, 67, 38
1, 308307, Note_off_c, 0, 66, 60
1, 308310, Note_off_c, 0, 62, 59
1, 308318, Control_c, 0, 67, 39
1, 308319, Note_on_c, 0, 64, 58
1, 308324, Note_off_c, 0, 76, 64
1, 308325, Note_off_c, 0, 73, 63
1, 308335, Note_on_c, 0, 71, 55
1, 308340, Note_on_c, 0, 67, 51
1, 308340, Note_on_c, 0, 74, 60
1, 308343, Note_on_c, 0, 78, 45
1, 308343, Note_on_c, 0, 81, 67
1, 308347, Control_c, 0, 67, 39
1, 308362, Control_c, 0, 67, 40
1, 308377, Control_c, 0, 67, 41
1, 308381, Note_off_c, 0, 71, 60
1, 308392, Control_c, 0, 67, 42
1, 308406, Control_c, 0, 67, 42
1, 308412, Note_off_c, 0, 74, 57
1, 308413, Note_off_c, 0, 81, 60
1, 308426, Note_on_c, 0, 76, 73
1, 308447, Note_off_c, 0, 78, 51
1, 308453, Note_on_c, 0, 73, 47
1, 308504, Note_off_c, 0, 64, 64
1, 308513, Note_off_c, 0, 67, 61
1, 308516, Note_off_c, 0, 73, 57
1, 308518, Note_off_c, 0, 76, 62
1, 308525, Note_on_c, 0, 66, 61
1, 308530, Note_on_c, 0, 62, 57
1, 308532, Note_on_c, 0, 74, 65
1, 308532, Note_on_c, 0, 81, 63
1, 308533, Note_on_c, 0, 69, 55
1, 308555, Note_on_c, 0, 78, 41
1, 308570, Control_c, 0, 67, 43
1, 308592, Note_off_c, 0, 69, 57
1, 308601, Note_off_c, 0, 81, 60
1, 308608, Note_off_c, 0, 74, 59
1, 308623, Note_on_c, 0, 76, 72
1, 308637, Note_on_c, 0, 73, 49
1, 308710, Note_off_c, 0, 73, 54
1, 308714, Note_off_c, 0, 76, 64
1, 308719, Note_off_c, 0, 78, 0
1, 308723, Note_off_c, 0, 62, 58
1, 308725, Note_off_c, 0, 66, 61
1, 308728, Note_on_c, 0, 74, 66
1, 308729, Note_on_c, 0, 81, 60
1, 308731, Note_on_c, 0, 78, 35
1, 308733, Note_on_c, 0, 64, 58
1, 308734, Note_on_c, 0, 67, 56
1, 308749, Note_on_c, 0, 71, 52
1, 308755, Control_c, 0, 67, 43
1, 308788, Note_off_c, 0, 71, 61
1, 308800, Control_c, 0, 67, 44
1, 308811, Note_off_c, 0, 81, 61
1, 308815, Note_off_c, 0, 74, 58
1, 308826, Note_on_c, 0, 76, 70
1, 308847, Note_off_c, 0, 78, 49
1, 308850, Note_on_c, 0, 73, 41
1, 308874, Control_c, 0, 67, 44
1, 308910, Note_off_c, 0, 67, 62
1, 308915, Note_off_c, 0, 76, 63
1, 308917, Note_off_c, 0, 73, 58
1, 308918, Note_off_c, 0, 64, 64
1, 308929, Note_on_c, 0, 66, 59
1, 308933, Control_c, 0, 67, 45
1, 308934, Note_on_c, 0, 81, 61
1, 308935, Note_on_c, 0, 74, 62
1, 308936, Note_on_c, 0, 62, 59
1, 308939, Note_on_c, 0, 69, 56
1, 308962, Note_on_c, 0, 78, 39
1, 308963, Control_c, 0, 67, 45
1, 308978, Control_c, 0, 67, 47
1, 308993, Control_c, 0, 67, 49
1, 308994, Note_off_c, 0, 69, 62
1, 309008, Control_c, 0, 67, 51
1, 309012, Note_off_c, 0, 74, 60
1, 309013, Note_off_c, 0, 81, 61
1, 309022, Control_c, 0, 67, 52
1, 309028, Note_on_c, 0, 76, 68
1, 309037, Control_c, 0, 67, 54
1, 309048, Note_off_c, 0, 78, 38
1, 309049, Note_on_c, 0, 73, 42
1, 309052, Control_c, 0, 67, 55
1, 309067, Control_c, 0, 67, 56
1, 309082, Control_c, 0, 67, 56
1, 309111, Control_c, 0, 67, 57
1, 309114, Note_off_c, 0, 73, 59
1, 309117, Note_off_c, 0, 66, 62
1, 309118, Note_off_c, 0, 62, 60
1, 309123, Note_off_c, 0, 76, 63
1, 309130, Note_on_c, 0, 71, 60
1, 309133, Note_on_c, 0, 74, 61
1, 309137, Note_on_c, 0, 67, 52
1, 309138, Note_on_c, 0, 81, 60
1, 309139, Note_on_c, 0, 64, 55
1, 309155, Control_c, 0, 67, 57
1, 309167, Note_on_c, 0, 78, 46
1, 309170, Control_c, 0, 67, 58
1, 309185, Control_c, 0, 67, 59
1, 309198, Note_off_c, 0, 71, 61
1, 309200, Control_c, 0, 67, 61
1, 309207, Note_off_c, 0, 74, 60
1, 309213, Note_off_c, 0, 81, 60
1, 309215, Control_c, 0, 67, 62
1, 309228, Note_on_c, 0, 76, 70
1, 309229, Control_c, 0, 67, 63
1, 309241, Note_on_c, 0, 73, 41
1, 309244, Control_c, 0, 67, 64
1, 309259, Control_c, 0, 67, 66
1, 309274, Control_c, 0, 67, 66
1, 309289, Control_c, 0, 67, 67
1, 309300, Note_off_c, 0, 73, 51
1, 309309, Note_off_c, 0, 76, 62
1, 309312, Note_off_c, 0, 78, 0
1, 309314, Note_off_c, 0, 64, 64
1, 309320, Note_off_c, 0, 67, 62
1, 309324, Note_on_c, 0, 74, 65
1, 309329, Note_on_c, 0, 78, 24
1, 309332, Note_on_c, 0, 66, 59
1, 309332, Note_on_c, 0, 81, 65
1, 309335, Note_on_c, 0, 69, 60
1, 309338, Note_on_c, 0, 62, 59
1, 309392, Note_off_c, 0, 69, 60
1, 309408, Note_off_c, 0, 74, 58
1, 309413, Note_off_c, 0, 81, 59
1, 309420, Note_on_c, 0, 76, 71
1, 309425, Note_on_c, 0, 73, 51
1, 309488, Note_off_c, 0, 78, 40
1, 309518, Note_off_c, 0, 73, 62
1, 309523, Note_off_c, 0, 76, 64
1, 309524, Note_off_c, 0, 66, 63
1, 309536, Note_on_c, 0, 71, 56
1, 309536, Note_on_c, 0, 74, 65
1, 309539, Note_on_c, 0, 81, 66
1, 309539, Note_off_c, 0, 62, 52
1, 309543, Note_on_c, 0, 64, 58
1, 309543, Note_on_c, 0, 67, 55
1, 309546, Note_on_c, 0, 78, 35
1, 309578, Control_c, 0, 67, 66
1, 309580, Note_off_c, 0, 71, 58
1, 309615, Note_off_c, 0, 74, 64
1, 309618, Note_off_c, 0, 81, 59
1, 309628, Note_on_c, 0, 76, 72
1, 309646, Note_on_c, 0, 73, 53
1, 309719, Note_off_c, 0, 67, 62
1, 309721, Note_off_c, 0, 76, 63
1, 309722, Note_off_c, 0, 64, 63
1, 309724, Note_off_c, 0, 73, 58
1, 309729, Note_off_c, 0, 78, 0
1, 309729, Note_on_c, 0, 78, 9
1, 309737, Note_on_c, 0, 74, 68
1, 309737, Note_on_c, 0, 81, 64
1, 309739, Note_on_c, 0, 69, 60
1, 309741, Note_on_c, 0, 62, 58
1, 309747, Note_on_c, 0, 66, 52
1, 309792, Note_off_c, 0, 69, 59
1, 309812, Note_off_c, 0, 74, 54
1, 309824, Note_on_c, 0, 76, 73
1, 309835, Note_off_c, 0, 81, 61
1, 309850, Note_on_c, 0, 73, 57
1, 309914, Note_off_c, 0, 66, 63
1, 309926, Note_on_c, 0, 64, 63
1, 309926, Note_on_c, 0, 67, 58
1, 309927, Note_off_c, 0, 62, 53
1, 309929, Note_on_c, 0, 81, 71
1, 309929, Note_off_c, 0, 73, 54
1, 309932, Note_on_c, 0, 71, 41
1, 309939, Note_off_c, 0, 76, 59
1, 309950, Note_on_c, 0, 74, 59
1, 309959, Note_off_c, 0, 71, 51
1, 310031, Note_off_c, 0, 78, 56
1, 310033, Note_off_c, 0, 74, 64
1, 310044, Note_off_c, 0, 81, 62
1, 310088, Note_off_c, 0, 64, 63
1, 310092, Note_off_c, 0, 67, 62
1, 310108, Note_on_c, 0, 69, 63
1, 310111, Note_on_c, 0, 66, 58
1, 310114, Note_on_c, 0, 62, 56
1, 310120, Note_on_c, 0, 81, 69
1, 310120, Note_on_c, 0, 78, 72
1, 310162, Note_off_c, 0, 69, 63
1, 310173, Note_off_c, 0, 78, 46
1, 310220, Note_on_c, 0, 83, 79
1, 310227, Note_off_c, 0, 81, 62
1, 310296, Control_c, 0, 67, 66
1, 310306, Note_off_c, 0, 83, 64
1, 310309, Note_off_c, 0, 66, 63
1, 310324, Note_on_c, 0, 78, 72
1, 310325, Note_on_c, 0, 64, 61
1, 310325, Note_on_c, 0, 67, 57
1, 310325, Note_on_c, 0, 71, 41
1, 310336, Note_on_c, 0, 81, 71
1, 310352, Note_off_c, 0, 71, 54
1, 310356, Note_off_c, 0, 62, 33
1, 310385, Note_off_c, 0, 78, 62
1, 310396, Note_off_c, 0, 81, 62
1, 310418, Note_on_c, 0, 79, 73
1, 310421, Note_on_c, 0, 83, 65
1, 310455, Note_off_c, 0, 83, 64
1, 310481, Note_off_c, 0, 79, 59
1, 310510, Note_on_c, 0, 85, 77
1, 310519, Note_on_c, 0, 81, 72
1, 310522, Note_on_c, 0, 69, 63
1, 310524, Note_off_c, 0, 67, 61
1, 310533, Note_on_c, 0, 66, 60
1, 310559, Note_on_c, 0, 62, 60
1, 310559, Note_off_c, 0, 64, 63
1, 310563, Note_off_c, 0, 85, 64
1, 310585, Note_off_c, 0, 69, 64
1, 310591, Note_off_c, 0, 81, 50
1, 310604, Note_on_c, 0, 83, 82
1, 310609, Note_on_c, 0, 79, 80
1, 310653, Note_off_c, 0, 79, 64
1, 310683, Note_off_c, 0, 62, 62
1, 310700, Note_on_c, 0, 78, 75
1, 310700, Note_on_c, 0, 81, 76
1, 310701, Note_off_c, 0, 83, 64
1, 310711, Note_off_c, 0, 66, 35
1, 310713, Control_c, 0, 67, 65
1, 310719, Note_on_c, 0, 71, 50
1, 310721, Note_on_c, 0, 67, 59
1, 310743, Note_on_c, 0, 64, 49
1, 310751, Note_off_c, 0, 71, 64
1, 310781, Note_off_c, 0, 78, 61
1, 310785, Note_on_c, 0, 76, 73
1, 310803, Note_on_c, 0, 79, 74
1, 310804, Note_off_c, 0, 81, 64
1, 310815, Note_off_c, 0, 67, 64
1, 310841, Note_off_c, 0, 64, 65
1, 310849, Note_off_c, 0, 76, 58
1, 310886, Note_on_c, 0, 78, 75
1, 310899, Note_off_c, 0, 79, 61
1, 310900, Note_on_c, 0, 81, 76
1, 310934, Control_c, 0, 67, 65
1, 310969, Note_off_c, 0, 81, 60
1, 310981, Note_off_c, 0, 78, 62
1, 310982, Note_on_c, 0, 76, 79
1, 310996, Note_on_c, 0, 79, 74
1, 311073, Note_on_c, 0, 50, 67
1, 311073, Note_on_c, 0, 42, 69
1, 311074, Note_on_c, 0, 45, 62
1, 311074, Note_on_c, 0, 38, 71
1, 311078, Note_off_c, 0, 76, 60
1, 311083, Note_on_c, 0, 74, 68
1, 311083, Note_off_c, 0, 79, 64
1, 311088, Note_on_c, 0, 78, 82
1, 311113, Note_off_c, 0, 38, 63
1, 311118, Note_off_c, 0, 45, 65
1, 311132, Note_off_c, 0, 42, 61
1, 311133, Note_off_c, 0, 50, 67
1, 311181, Note_on_c, 0, 76, 79
1, 311184, Note_off_c, 0, 74, 58
1, 311197, Note_on_c, 0, 79, 54
1, 311197, Note_off_c, 0, 78, 60
1, 311217, Note_off_c, 0, 79, 62
1, 311228, Note_off_c, 0, 76, 64
1, 311274, Note_on_c, 0, 81, 85
1, 311290, Note_on_c, 0, 62, 69
1, 311296, Note_on_c, 0, 66, 60
1, 311302, Note_on_c, 0, 74, 59
1, 311303, Note_on_c, 0, 69, 55
1, 311303, Note_on_c, 0, 78, 64
1, 311331, Note_off_c, 0, 69, 52
1, 311375, Note_off_c, 0, 81, 64
1, 311375, Note_on_c, 0, 76, 78
1, 311377, Note_off_c, 0, 74, 62
1, 311390, Note_on_c, 0, 73, 55
1, 311405, Note_off_c, 0, 78, 62
1, 311416, Control_c, 0, 67, 64
1, 311439, Note_off_c, 0, 66, 57
1, 311452, Note_off_c, 0, 62, 64
1, 311460, Note_off_c, 0, 73, 62
1, 311467, Note_off_c, 0, 76, 63
1, 311472, Note_on_c, 0, 67, 64
1, 311473, Note_on_c, 0, 81, 79
1, 311476, Note_on_c, 0, 64, 67
1, 311479, Note_on_c, 0, 71, 57
1, 311487, Note_on_c, 0, 74, 67
1, 311490, Note_on_c, 0, 78, 56
1, 311491, Control_c, 0, 67, 64
1, 311521, Note_off_c, 0, 71, 49
1, 311536, Control_c, 0, 67, 63
1, 311560, Note_off_c, 0, 81, 63
1, 311561, Note_off_c, 0, 74, 63
1, 311563, Note_on_c, 0, 76, 81
1, 311572, Note_on_c, 0, 73, 68
1, 311586, Note_off_c, 0, 78, 58
1, 311650, Note_off_c, 0, 64, 64
1, 311652, Note_off_c, 0, 67, 62
1, 311655, Note_off_c, 0, 73, 61
1, 311657, Note_off_c, 0, 76, 64
1, 311665, Note_on_c, 0, 66, 62
1, 311667, Note_on_c, 0, 81, 72
1, 311669, Note_on_c, 0, 62, 67
1, 311671, Note_on_c, 0, 74, 73
1, 311677, Note_on_c, 0, 69, 56
1, 311687, Note_on_c, 0, 78, 59
1, 311717, Note_off_c, 0, 69, 59
1, 311755, Note_off_c, 0, 74, 60
1, 311762, Note_off_c, 0, 81, 63
1, 311762, Note_on_c, 0, 76, 78
1, 311781, Note_on_c, 0, 73, 59
1, 311794, Note_off_c, 0, 78, 57
1, 311795, Control_c, 0, 67, 64
1, 311850, Note_off_c, 0, 73, 59
1, 311855, Note_off_c, 0, 76, 62
1, 311860, Note_off_c, 0, 66, 63
1, 311866, Note_off_c, 0, 62, 64
1, 311868, Note_on_c, 0, 64, 67
1, 311869, Note_on_c, 0, 74, 67
1, 311873, Note_on_c, 0, 81, 70
1, 311874, Note_on_c, 0, 67, 65
1, 311879, Note_on_c, 0, 78, 54
1, 311893, Note_on_c, 0, 71, 37
1, 311926, Note_off_c, 0, 71, 53
1, 311928, Control_c, 0, 67, 64
1, 311946, Note_off_c, 0, 74, 61
1, 311951, Note_off_c, 0, 81, 63
1, 311957, Control_c, 0, 67, 65
1, 311966, Note_on_c, 0, 76, 65
1, 311970, Note_on_c, 0, 73, 62
1, 311994, Note_off_c, 0, 78, 53
1, 312043, Note_off_c, 0, 73, 61
1, 312048, Note_off_c, 0, 67, 62
1, 312053, Note_off_c, 0, 64, 65
1, 312057, Note_off_c, 0, 76, 63
1, 312062, Control_c, 0, 67, 65
1, 312066, Note_on_c, 0, 74, 71
1, 312069, Note_on_c, 0, 78, 45
1, 312072, Note_on_c, 0, 66, 57
1, 312075, Note_on_c, 0, 62, 65
1, 312075, Note_on_c, 0, 81, 54
1, 312081, Note_on_c, 0, 69, 50
1, 312105, Note_on_c, 0, 79, 39
1, 312122, Note_off_c, 0, 69, 54
1, 312135, Note_off_c, 0, 79, 57
1, 312145, Note_off_c, 0, 81, 61
1, 312147, Note_off_c, 0, 74, 63
1, 312159, Note_on_c, 0, 76, 75
1, 312166, Note_on_c, 0, 73, 61
1, 312200, Note_off_c, 0, 78, 0
1, 312223, Note_off_c, 0, 73, 60
1, 312233, Note_on_c, 0, 78, 5
1, 312238, Note_off_c, 0, 76, 61
1, 312241, Note_off_c, 0, 62, 62
1, 312246, Note_on_c, 0, 71, 62
1, 312248, Note_off_c, 0, 66, 61
1, 312253, Note_on_c, 0, 81, 74
1, 312255, Note_on_c, 0, 74, 74
1, 312258, Note_on_c, 0, 64, 63
1, 312259, Note_on_c, 0, 67, 61
1, 312299, Control_c, 0, 67, 66
1, 312307, Note_off_c, 0, 71, 57
1, 312330, Note_off_c, 0, 74, 43
1, 312332, Note_on_c, 0, 76, 80
1, 312349, Note_on_c, 0, 73, 61
1, 312358, Note_off_c, 0, 81, 46
1, 312366, Note_off_c, 0, 76, 62
1, 312371, Note_off_c, 0, 73, 66
1, 312373, Control_c, 0, 67, 65
1, 312380, Note_off_c, 0, 78, 52
1, 312423, Note_off_c, 0, 64, 64
1, 312424, Note_off_c, 0, 67, 62
1, 312436, Note_on_c, 0, 66, 63
1, 312438, Note_on_c, 0, 69, 63
1, 312446, Note_on_c, 0, 62, 60
1, 312453, Note_on_c, 0, 78, 75
1, 312459, Note_on_c, 0, 81, 72
1, 312463, Note_on_c, 0, 74, 49
1, 312507, Note_off_c, 0, 69, 64
1, 312507, Note_off_c, 0, 74, 52
1, 312547, Note_off_c, 0, 78, 48
1, 312553, Note_on_c, 0, 79, 74
1, 312555, Note_on_c, 0, 83, 77
1, 312576, Note_off_c, 0, 81, 63
1, 312600, Note_off_c, 0, 62, 59
1, 312610, Note_off_c, 0, 83, 63
1, 312630, Note_off_c, 0, 66, 60
1, 312648, Note_on_c, 0, 78, 77
1, 312653, Note_off_c, 0, 79, 60
1, 312654, Note_on_c, 0, 71, 47
1, 312654, Note_on_c, 0, 64, 57
1, 312654, Note_on_c, 0, 67, 58
1, 312662, Note_on_c, 0, 81, 69
1, 312663, Note_on_c, 0, 74, 56
1, 312686, Note_off_c, 0, 71, 50
1, 312704, Note_off_c, 0, 74, 57
1, 312742, Note_on_c, 0, 83, 73
1, 312748, Note_on_c, 0, 79, 73
1, 312753, Note_off_c, 0, 78, 59
1, 312770, Note_off_c, 0, 81, 63
1, 312798, Note_off_c, 0, 83, 64
1, 312801, Note_off_c, 0, 79, 54
1, 312815, Note_off_c, 0, 64, 63
1, 312819, Note_off_c, 0, 67, 46
1, 312830, Note_on_c, 0, 78, 71
1, 312838, Note_on_c, 0, 74, 67
1, 312841, Note_on_c, 0, 66, 61
1, 312847, Note_on_c, 0, 62, 59
1, 312851, Note_on_c, 0, 81, 62
1, 312853, Note_on_c, 0, 69, 54
1, 312901, Note_off_c, 0, 69, 64
1, 312934, Note_on_c, 0, 83, 67
1, 312945, Note_off_c, 0, 81, 63
1, 312952, Poly_aftertouch_c, 0, 79, 0
1, 312960, Note_off_c, 0, 74, 52
1, 312961, Note_off_c, 0, 83, 67
1, 312972, Note_off_c, 0, 78, 62
1, 313021, Note_on_c, 0, 71, 67
1, 313023, Poly_aftertouch_c, 0, 74, 0
1, 313025, Note_off_c, 0, 66, 61
1, 313030, Note_on_c, 0, 78, 69
1, 313032, Note_on_c, 0, 81, 72
1, 313043, Note_on_c, 0, 64, 59
1, 313043, Note_on_c, 0, 67, 57
1, 313044, Note_on_c, 0, 74, 34
1, 313059, Note_off_c, 0, 62, 61
1, 313082, Note_off_c, 0, 74, 49
1, 313120, Note_off_c, 0, 81, 60
1, 313136, Note_on_c, 0, 76, 75
1, 313139, Note_off_c, 0, 71, 58
1, 313153, Note_on_c, 0, 79, 69
1, 313160, Note_off_c, 0, 78, 60
1, 313208, Note_on_c, 0, 66, 74
1, 313216, Note_on_c, 0, 62, 73
1, 313219, Note_off_c, 0, 67, 63
1, 313223, Note_off_c, 0, 64, 58
1, 313223, Note_off_c, 0, 76, 51
1, 313233, Note_off_c, 0, 66, 68
1, 313243, Note_on_c, 0, 74, 72
1, 313244, Note_on_c, 0, 81, 70
1, 313253, Note_off_c, 0, 62, 67
1, 313253, Note_off_c, 0, 79, 64
1, 313260, Note_on_c, 0, 78, 58
1, 313263, Control_c, 0, 67, 66
1, 313280, Note_off_c, 0, 74, 60
1, 313306, Note_off_c, 0, 81, 55
1, 313330, Note_on_c, 0, 76, 81
1, 313336, Control_c, 0, 67, 66
1, 313354, Note_on_c, 0, 79, 68
1, 313427, Note_on_c, 0, 81, 74
1, 313434, Note_on_c, 0, 74, 74
1, 313435, Note_off_c, 0, 76, 52
1, 313438, Note_off_c, 0, 79, 63
1, 313452, Note_on_c, 0, 50, 75
1, 313452, Note_on_c, 0, 42, 69
1, 313456, Note_on_c, 0, 38, 69
1, 313485, Note_on_c, 0, 45, 25
1, 313488, Note_off_c, 0, 38, 62
1, 313506, Note_on_c, 0, 76, 75
1, 313506, Note_off_c, 0, 42, 60
1, 313507, Note_off_c, 0, 81, 60
1, 313509, Note_off_c, 0, 50, 66
1, 313523, Note_off_c, 0, 74, 62
1, 313525, Note_off_c, 0, 45, 40
1, 313534, Note_on_c, 0, 79, 68
1, 313540, Note_off_c, 0, 78, 0
1, 313556, Note_off_c, 0, 76, 63
1, 313563, Note_off_c, 0, 79, 68
1, 313598, Poly_aftertouch_c, 0, 78, 0
1, 313634, Control_c, 0, 67, 67
1, 313652, Note_on_c, 0, 74, 72
1, 313652, Note_on_c, 0, 81, 72
1, 313662, Note_on_c, 0, 69, 84
1, 313670, Note_on_c, 0, 66, 70
1, 313679, Note_on_c, 0, 62, 64
1, 313697, Note_on_c, 0, 78, 53
1, 313700, Note_off_c, 0, 74, 54
1, 313732, Note_off_c, 0, 81, 63
1, 313747, Note_on_c, 0, 76, 68
1, 313756, Note_off_c, 0, 78, 54
1, 313762, Note_off_c, 0, 69, 64
1, 313771, Note_on_c, 0, 73, 51
1, 313813, Note_off_c, 0, 66, 62
1, 313834, Note_off_c, 0, 73, 57
1, 313835, Note_off_c, 0, 76, 60
1, 313847, Note_off_c, 0, 62, 64
1, 313871, Control_c, 0, 67, 67
1, 313873, Note_on_c, 0, 81, 60
1, 313881, Note_on_c, 0, 74, 64
1, 313885, Note_on_c, 0, 78, 61
1, 313900, Note_on_c, 0, 71, 65
1, 313903, Note_on_c, 0, 67, 62
1, 313909, Note_on_c, 0, 64, 60
1, 313946, Note_off_c, 0, 81, 61
1, 313955, Note_on_c, 0, 76, 67
1, 313956, Note_off_c, 0, 74, 56
1, 313971, Note_off_c, 0, 71, 60
1, 313973, Note_off_c, 0, 78, 58
1, 313977, Note_on_c, 0, 73, 49
1, 314028, Note_off_c, 0, 67, 54
1, 314055, Note_off_c, 0, 64, 62
1, 314055, Note_off_c, 0, 73, 57
1, 314065, Note_off_c, 0, 76, 62
1, 314073, Note_on_c, 0, 81, 65
1, 314078, Note_on_c, 0, 74, 71
1, 314086, Note_on_c, 0, 62, 68
1, 314086, Note_on_c, 0, 66, 67
1, 314090, Note_on_c, 0, 69, 69
1, 314096, Note_on_c, 0, 78, 63
1, 314143, Note_off_c, 0, 81, 60
1, 314153, Note_off_c, 0, 69, 64
1, 314153, Note_off_c, 0, 74, 58
1, 314166, Note_on_c, 0, 76, 75
1, 314175, Note_off_c, 0, 78, 55
1, 314182, Note_on_c, 0, 73, 55
1, 314239, Note_off_c, 0, 73, 53
1, 314241, Note_off_c, 0, 62, 61
1, 314252, Note_off_c, 0, 76, 63
1, 314260, Note_off_c, 0, 66, 59
1, 314268, Note_on_c, 0, 74, 73
1, 314268, Note_on_c, 0, 81, 66
1, 314274, Note_on_c, 0, 64, 60
1, 314279, Note_on_c, 0, 71, 60
1, 314289, Note_on_c, 0, 67, 60
1, 314293, Note_on_c, 0, 78, 58
1, 314333, Note_off_c, 0, 74, 53
1, 314337, Note_off_c, 0, 71, 53
1, 314344, Note_off_c, 0, 81, 61
1, 314361, Note_on_c, 0, 76, 73
1, 314374, Note_on_c, 0, 73, 54
1, 314385, Note_off_c, 0, 78, 55
1, 314435, Note_off_c, 0, 64, 63
1, 314436, Note_off_c, 0, 73, 53
1, 314442, Note_off_c, 0, 67, 61
1, 314450, Note_off_c, 0, 76, 63
1, 314457, Control_c, 0, 67, 68
1, 314461, Note_on_c, 0, 62, 61
1, 314463, Note_on_c, 0, 66, 62
1, 314465, Note_on_c, 0, 81, 71
1, 314466, Note_on_c, 0, 74, 64
1, 314475, Note_on_c, 0, 69, 52
1, 314480, Note_on_c, 0, 78, 53
1, 314517, Note_off_c, 0, 69, 58
1, 314530, Note_off_c, 0, 74, 51
1, 314545, Note_off_c, 0, 81, 61
1, 314556, Note_on_c, 0, 76, 75
1, 314561, Note_on_c, 0, 73, 56
1, 314590, Note_off_c, 0, 78, 57
1, 314627, Note_off_c, 0, 62, 60
1, 314633, Note_off_c, 0, 66, 62
1, 314646, Note_off_c, 0, 76, 63
1, 314649, Note_on_c, 0, 64, 56
1, 314657, Note_off_c, 0, 73, 51
1, 314659, Note_on_c, 0, 67, 59
1, 314659, Note_on_c, 0, 71, 48
1, 314660, Note_on_c, 0, 74, 68
1, 314664, Note_on_c, 0, 81, 65
1, 314675, Note_on_c, 0, 78, 40
1, 314704, Note_off_c, 0, 71, 54
1, 314731, Note_off_c, 0, 74, 61
1, 314746, Control_c, 0, 67, 67
1, 314751, Note_off_c, 0, 81, 62
1, 314759, Note_on_c, 0, 76, 70
1, 314773, Note_on_c, 0, 73, 49
1, 314824, Note_off_c, 0, 64, 64
1, 314828, Note_off_c, 0, 67, 62
1, 314833, Note_off_c, 0, 73, 54
1, 314833, Note_off_c, 0, 78, 0
1, 314844, Note_off_c, 0, 76, 62
1, 314852, Note_on_c, 0, 62, 62
1, 314852, Note_on_c, 0, 66, 56
1, 314856, Note_on_c, 0, 78, 13
1, 314858, Note_on_c, 0, 74, 65
1, 314860, Note_on_c, 0, 69, 58
1, 314866, Note_on_c, 0, 81, 69
1, 314907, Note_off_c, 0, 69, 63
1, 314937, Note_off_c, 0, 81, 60
1, 314940, Note_off_c, 0, 74, 61
1, 314949, Note_on_c, 0, 76, 73
1, 314962, Note_on_c, 0, 73, 50
1, 315021, Note_off_c, 0, 73, 56
1, 315021, Note_off_c, 0, 78, 0
1, 315029, Note_off_c, 0, 62, 59
1, 315039, Note_off_c, 0, 76, 62
1, 315040, Note_off_c, 0, 66, 61
1, 315048, Note_on_c, 0, 78, 10
1, 315051, Note_on_c, 0, 67, 58
1, 315053, Note_on_c, 0, 74, 68
1, 315053, Note_on_c, 0, 81, 68
1, 315054, Note_on_c, 0, 64, 56
1, 315058, Note_on_c, 0, 71, 46
1, 315082, Note_off_c, 0, 71, 57
1, 315115, Note_off_c, 0, 74, 53
1, 315131, Note_off_c, 0, 81, 60
1, 315146, Note_on_c, 0, 76, 70
1, 315150, Note_on_c, 0, 73, 63
1, 315219, Note_off_c, 0, 64, 63
1, 315219, Note_off_c, 0, 73, 61
1, 315230, Note_off_c, 0, 67, 62
1, 315240, Note_on_c, 0, 66, 64
1, 315241, Note_on_c, 0, 69, 62
1, 315243, Note_on_c, 0, 62, 61
1, 315247, Note_on_c, 0, 74, 66
1, 315247, Note_on_c, 0, 81, 69
1, 315261, Note_off_c, 0, 76, 56
1, 315296, Note_off_c, 0, 69, 63
1, 315307, Note_off_c, 0, 74, 43
1, 315325, Note_on_c, 0, 73, 69
1, 315338, Note_on_c, 0, 76, 14
1, 315351, Note_off_c, 0, 73, 68
1, 315362, Note_off_c, 0, 81, 62
1, 315364, Note_off_c, 0, 78, 56
1, 315382, Note_off_c, 0, 76, 38
1, 315419, Note_on_c, 0, 71, 67
1, 315431, Note_off_c, 0, 66, 62
1, 315435, Note_off_c, 0, 62, 57
1, 315441, Note_on_c, 0, 64, 62
1, 315441, Note_on_c, 0, 67, 63
1, 315456, Note_on_c, 0, 78, 57
1, 315474, Note_on_c, 0, 81, 33
1, 315508, Note_on_c, 0, 79, 19
1, 315514, Note_off_c, 0, 71, 59
1, 315527, Note_off_c, 0, 78, 63
1, 315530, Note_off_c, 0, 81, 61
1, 315536, Note_on_c, 0, 83, 77
1, 315547, Note_off_c, 0, 79, 40
1, 315595, Note_off_c, 0, 83, 62
1, 315607, Note_off_c, 0, 64, 61
1, 315624, Note_on_c, 0, 66, 70
1, 315627, Note_on_c, 0, 62, 67
1, 315634, Note_off_c, 0, 67, 63
1, 315634, Note_on_c, 0, 81, 72
1, 315636, Note_on_c, 0, 85, 78
1, 315646, Note_off_c, 0, 66, 67
1, 315661, Note_off_c, 0, 62, 66
1, 315697, Note_off_c, 0, 85, 65
1, 315702, Control_c, 0, 67, 68
1, 315703, Note_off_c, 0, 81, 61
1, 315727, Note_on_c, 0, 83, 80
1, 315736, Note_on_c, 0, 79, 80
1, 315776, Control_c, 0, 67, 67
1, 315809, Note_off_c, 0, 79, 42
1, 315815, Note_off_c, 0, 83, 64
1, 315816, Note_on_c, 0, 78, 77
1, 315823, Note_on_c, 0, 81, 76
1, 315835, Control_c, 0, 67, 67
1, 315853, Note_on_c, 0, 38, 68
1, 315855, Note_on_c, 0, 42, 66
1, 315868, Note_on_c, 0, 50, 56
1, 315891, Note_off_c, 0, 38, 65
1, 315903, Note_off_c, 0, 78, 58
1, 315906, Note_off_c, 0, 50, 67
1, 315906, Note_off_c, 0, 42, 60
1, 315910, Note_on_c, 0, 77, 72
1, 315911, Note_on_c, 0, 83, 80
1, 315912, Note_off_c, 0, 81, 64
1, 315918, Poly_aftertouch_c, 0, 45, 0
1, 315927, Note_on_c, 0, 79, 57
1, 315938, Note_off_c, 0, 83, 66
1, 315940, Note_off_c, 0, 77, 68
1, 315947, Note_off_c, 0, 79, 63
1, 316009, Note_on_c, 0, 81, 85
1, 316028, Note_on_c, 0, 78, 68
1, 316031, Note_on_c, 0, 74, 67
1, 316052, Note_on_c, 0, 62, 66
1, 316061, Note_on_c, 0, 69, 57
1, 316076, Note_off_c, 0, 74, 52
1, 316086, Note_off_c, 0, 69, 55
1, 316101, Note_off_c, 0, 81, 64
1, 316116, Note_on_c, 0, 76, 76
1, 316117, Control_c, 0, 67, 66
1, 316138, Note_off_c, 0, 78, 60
1, 316144, Note_on_c, 0, 73, 41
1, 316185, Note_off_c, 0, 73, 57
1, 316186, Note_off_c, 0, 62, 61
1, 316203, Note_off_c, 0, 76, 63
1, 316208, Note_on_c, 0, 81, 78
1, 316219, Note_on_c, 0, 64, 67
1, 316221, Note_on_c, 0, 71, 59
1, 316222, Note_on_c, 0, 67, 66
1, 316223, Note_on_c, 0, 74, 67
1, 316243, Note_on_c, 0, 78, 50
1, 316276, Note_off_c, 0, 71, 46
1, 316302, Note_off_c, 0, 81, 63
1, 316308, Note_off_c, 0, 74, 58
1, 316309, Note_on_c, 0, 76, 80
1, 316311, Note_on_c, 0, 73, 62
1, 316333, Note_off_c, 0, 78, 59
1, 316393, Note_off_c, 0, 67, 62
1, 316393, Note_off_c, 0, 76, 62
1, 316398, Note_off_c, 0, 73, 54
1, 316403, Note_off_c, 0, 64, 64
1, 316409, Note_on_c, 0, 66, 63
1, 316409, Note_on_c, 0, 81, 72
1, 316412, Note_on_c, 0, 62, 72
1, 316416, Note_on_c, 0, 74, 70
1, 316419, Note_on_c, 0, 69, 60
1, 316437, Note_on_c, 0, 78, 47
1, 316466, Note_off_c, 0, 69, 60
1, 316493, Note_off_c, 0, 81, 64
1, 316494, Note_off_c, 0, 74, 55
1, 316496, Control_c, 0, 67, 67
1, 316502, Note_on_c, 0, 76, 74
1, 316514, Note_on_c, 0, 73, 63
1, 316528, Note_off_c, 0, 78, 56
1, 316559, Note_off_c, 0, 62, 56
1, 316572, Note_off_c, 0, 73, 56
1, 316580, Note_off_c, 0, 76, 62
1, 316581, Note_off_c, 0, 66, 44
1, 316601, Note_on_c, 0, 81, 74
1, 316606, Note_on_c, 0, 74, 69
1, 316607, Note_on_c, 0, 64, 58
1, 316612, Note_on_c, 0, 71, 46
1, 316615, Note_on_c, 0, 67, 58
1, 316628, Note_on_c, 0, 78, 38
1, 316642, Note_off_c, 0, 71, 52
1, 316672, Note_off_c, 0, 74, 48
1, 316674, Control_c, 0, 67, 67
1, 316679, Note_off_c, 0, 81, 62
1, 316697, Note_on_c, 0, 76, 68
1, 316705, Note_on_c, 0, 73, 49
1, 316753, Note_off_c, 0, 73, 58
1, 316759, Note_off_c, 0, 78, 0
1, 316760, Note_off_c, 0, 64, 61
1, 316773, Note_off_c, 0, 76, 63
1, 316779, Note_off_c, 0, 67, 26
1, 316787, Note_on_c, 0, 78, 5
1, 316794, Note_on_c, 0, 74, 72
1, 316800, Note_on_c, 0, 81, 59
1, 316801, Note_on_c, 0, 62, 57
1, 316812, Note_on_c, 0, 66, 45
1, 316827, Note_on_c, 0, 69, 17
1, 316854, Note_off_c, 0, 74, 56
1, 316869, Note_off_c, 0, 69, 55
1, 316877, Note_off_c, 0, 81, 63
1, 316889, Note_on_c, 0, 76, 68
1, 316914, Note_on_c, 0, 73, 44
1, 316946, Note_off_c, 0, 73, 64
1, 316967, Note_off_c, 0, 62, 54
1, 316986, Note_on_c, 0, 71, 40
1, 316987, Note_off_c, 0, 66, 47
1, 316988, Note_on_c, 0, 74, 68
1, 316989, Note_off_c, 0, 76, 56
1, 316996, Note_on_c, 0, 81, 66
1, 316998, Note_on_c, 0, 64, 54
1, 317006, Note_on_c, 0, 67, 45
1, 317024, Note_off_c, 0, 71, 47
1, 317044, Note_off_c, 0, 74, 56
1, 317073, Note_on_c, 0, 73, 60
1, 317094, Note_on_c, 0, 76, 28
1, 317106, Note_off_c, 0, 73, 67
1, 317111, Control_c, 0, 67, 68
1, 317123, Note_off_c, 0, 78, 56
1, 317125, Note_off_c, 0, 81, 49
1, 317128, Note_off_c, 0, 76, 44
1, 317140, Control_c, 0, 67, 68
1, 317141, Note_off_c, 0, 64, 62
1, 317157, Note_off_c, 0, 67, 44
1, 317184, Note_on_c, 0, 66, 37
1, 317200, Note_on_c, 0, 62, 40
1, 317204, Note_on_c, 0, 69, 15
1, 317209, Note_on_c, 0, 81, 59
1, 317217, Note_on_c, 0, 74, 7
1, 317232, Note_on_c, 0, 78, 44
1, 317246, Note_off_c, 0, 74, 0
1, 317253, Note_off_c, 0, 69, 55
1, 317264, Poly_aftertouch_c, 0, 74, 0
1, 317289, Note_off_c, 0, 78, 59
1, 317297, Note_on_c, 0, 83, 73
1, 317301, Note_off_c, 0, 81, 61
1, 317359, Note_off_c, 0, 62, 40
1, 317369, Note_off_c, 0, 83, 64
1, 317383, Note_off_c, 0, 66, 39
1, 317391, Note_on_c, 0, 64, 52
1, 317396, Note_on_c, 0, 67, 47
1, 317396, Note_on_c, 0, 78, 70
1, 317415, Note_on_c, 0, 81, 62
1, 317454, Note_off_c, 0, 81, 57
1, 317466, Note_off_c, 0, 78, 61
1, 317486, Note_on_c, 0, 83, 71
1, 317501, Note_on_c, 0, 79, 66
1, 317524, Note_off_c, 0, 83, 61
1, 317536, Note_off_c, 0, 64, 63
1, 317539, Note_off_c, 0, 67, 51
1, 317550, Note_off_c, 0, 79, 53
1, 317582, Note_on_c, 0, 62, 46
1, 317587, Note_on_c, 0, 66, 45
1, 317590, Note_on_c, 0, 85, 70
1, 317597, Note_on_c, 0, 81, 70
1, 317600, Control_c, 0, 67, 69
1, 317623, Note_off_c, 0, 85, 63
1, 317645, Control_c, 0, 67, 69
1, 317652, Note_off_c, 0, 81, 59
1, 317674, Control_c, 0, 67, 70
1, 317682, Note_on_c, 0, 79, 75
1, 317683, Note_on_c, 0, 83, 69
1, 317704, Control_c, 0, 67, 70
1, 317718, Control_c, 0, 67, 71
1, 317725, Note_off_c, 0, 79, 64
1, 317740, Control_c, 0, 67, 72
1, 317745, Note_off_c, 0, 66, 51
1, 317750, Note_off_c, 0, 62, 36
1, 317770, Control_c, 0, 67, 72
1, 317778, Note_off_c, 0, 83, 62
1, 317780, Note_on_c, 0, 64, 51
1, 317784, Note_on_c, 0, 81, 70
1, 317787, Note_on_c, 0, 78, 71
1, 317791, Note_on_c, 0, 67, 52
1, 317814, Control_c, 0, 67, 73
1, 317829, Control_c, 0, 67, 73
1, 317846, Note_off_c, 0, 78, 56
1, 317882, Note_on_c, 0, 76, 65
1, 317886, Note_off_c, 0, 81, 64
1, 317891, Note_on_c, 0, 79, 68
1, 317921, Note_off_c, 0, 64, 60
1, 317948, Note_off_c, 0, 76, 45
1, 317950, Note_off_c, 0, 67, 32
1, 317978, Note_on_c, 0, 66, 43
1, 317979, Note_on_c, 0, 78, 62
1, 317983, Note_on_c, 0, 62, 45
1, 317986, Note_off_c, 0, 79, 58
1, 317992, Control_c, 0, 67, 74
1, 317995, Note_on_c, 0, 81, 66
1, 318025, Poly_aftertouch_c, 0, 69, 127
1, 318034, Note_off_c, 0, 81, 62
1, 318048, Note_off_c, 0, 78, 61
1, 318058, Poly_aftertouch_c, 0, 69, 0
1, 318063, Note_on_c, 0, 79, 56
1, 318071, Note_on_c, 0, 76, 68
1, 318110, Control_c, 0, 67, 73
1, 318124, Note_off_c, 0, 62, 54
1, 318132, Note_off_c, 0, 79, 62
1, 318138, Note_off_c, 0, 76, 45
1, 318140, Control_c, 0, 67, 73
1, 318141, Note_off_c, 0, 66, 52
1, 318159, Note_on_c, 0, 64, 52
1, 318161, Note_on_c, 0, 74, 61
1, 318166, Note_on_c, 0, 78, 61
1, 318170, Control_c, 0, 67, 72
1, 318180, Note_on_c, 0, 67, 47
1, 318230, Note_off_c, 0, 74, 63
1, 318233, Poly_aftertouch_c, 0, 71, 0
1, 318246, Note_off_c, 0, 78, 56
1, 318261, Note_on_c, 0, 76, 70
1, 318262, Note_on_c, 0, 79, 54
1, 318296, Note_off_c, 0, 79, 66
1, 318306, Note_off_c, 0, 64, 62
1, 318312, Note_off_c, 0, 76, 62
1, 318340, Note_off_c, 0, 67, 32
1, 318362, Note_on_c, 0, 66, 48
1, 318368, Note_on_c, 0, 62, 50
1, 318370, Note_on_c, 0, 78, 69
1, 318374, Note_on_c, 0, 81, 59
1, 318430, Note_off_c, 0, 78, 57
1, 318448, Note_off_c, 0, 81, 56
1, 318467, Note_on_c, 0, 79, 67
1, 318467, Control_c, 0, 67, 73
1, 318469, Note_on_c, 0, 83, 61
1, 318512, Note_off_c, 0, 79, 62
1, 318517, Note_off_c, 0, 62, 52
1, 318523, Note_off_c, 0, 66, 53
1, 318526, Note_off_c, 0, 83, 58
1, 318555, Note_on_c, 0, 71, 32
1, 318566, Note_on_c, 0, 78, 68
1, 318569, Note_on_c, 0, 64, 46
1, 318577, Note_on_c, 0, 67, 46
1, 318577, Note_on_c, 0, 81, 62
1, 318589, Note_off_c, 0, 71, 53
1, 318618, Note_off_c, 0, 81, 58
1, 318636, Note_off_c, 0, 78, 62
1, 318660, Note_on_c, 0, 83, 65
1, 318666, Note_on_c, 0, 79, 69
1, 318696, Control_c, 0, 67, 73
1, 318702, Note_off_c, 0, 83, 59
1, 318704, Note_off_c, 0, 64, 61
1, 318711, Note_off_c, 0, 79, 55
1, 318738, Note_off_c, 0, 67, 48
1, 318757, Note_on_c, 0, 81, 71
1, 318757, Note_on_c, 0, 85, 68
1, 318772, Note_on_c, 0, 66, 47
1, 318776, Note_on_c, 0, 69, 34
1, 318777, Note_on_c, 0, 62, 42
1, 318785, Control_c, 0, 67, 74
1, 318806, Note_off_c, 0, 85, 59
1, 318808, Note_off_c, 0, 69, 55
1, 318812, Note_off_c, 0, 81, 64
1, 318852, Note_on_c, 0, 79, 71
1, 318877, Note_on_c, 0, 83, 47
1, 318894, Note_off_c, 0, 79, 63
1, 318906, Note_off_c, 0, 66, 53
1, 318923, Note_off_c, 0, 83, 57
1, 318933, Note_on_c, 0, 78, 69
1, 318936, Note_on_c, 0, 71, 53
1, 318939, Note_on_c, 0, 81, 66
1, 318942, Note_off_c, 0, 62, 50
1, 318953, Note_on_c, 0, 64, 51
1, 318957, Note_on_c, 0, 67, 52
1, 318978, Control_c, 0, 67, 74
1, 318980, Note_off_c, 0, 71, 56
1, 319013, Note_off_c, 0, 78, 59
1, 319037, Note_on_c, 0, 76, 66
1, 319043, Note_off_c, 0, 81, 62
1, 319048, Note_on_c, 0, 79, 64
1, 319066, Control_c, 0, 67, 75
1, 319092, Note_off_c, 0, 76, 52
1, 319100, Note_off_c, 0, 64, 61
1, 319108, Note_off_c, 0, 67, 50
1, 319131, Note_on_c, 0, 78, 67
1, 319132, Note_off_c, 0, 79, 59
1, 319148, Note_on_c, 0, 66, 49
1, 319148, Note_on_c, 0, 81, 59
1, 319160, Note_on_c, 0, 69, 30
1, 319168, Note_on_c, 0, 62, 45
1, 319185, Note_off_c, 0, 81, 62
1, 319197, Note_off_c, 0, 69, 55
1, 319201, Control_c, 0, 67, 75
1, 319207, Note_off_c, 0, 78, 62
1, 319241, Note_on_c, 0, 76, 69
1, 319256, Note_on_c, 0, 79, 54
1, 319292, Note_off_c, 0, 76, 61
1, 319298, Control_c, 0, 67, 75
1, 319303, Note_off_c, 0, 66, 55
1, 319303, Note_off_c, 0, 79, 59
1, 319334, Note_on_c, 0, 64, 52
1, 319340, Note_on_c, 0, 71, 28
1, 319340, Note_on_c, 0, 74, 60
1, 319340, Note_on_c, 0, 78, 62
1, 319344, Note_off_c, 0, 62, 27
1, 319356, Note_on_c, 0, 67, 39
1, 319374, Note_off_c, 0, 71, 45
1, 319396, Note_off_c, 0, 74, 53
1, 319428, Note_off_c, 0, 78, 57
1, 319430, Note_on_c, 0, 76, 62
1, 319439, Note_on_c, 0, 79, 58
1, 319472, Note_off_c, 0, 76, 59
1, 319492, Note_off_c, 0, 64, 60
1, 319499, Note_off_c, 0, 67, 43
1, 319504, Note_off_c, 0, 79, 52
1, 319520, Note_on_c, 0, 62, 49
1, 319525, Note_on_c, 0, 69, 40
1, 319531, Note_on_c, 0, 74, 58
1, 319534, Note_on_c, 0, 66, 51
1, 319539, Note_on_c, 0, 78, 59
1, 319566, Note_off_c, 0, 69, 53
1, 319578, Note_off_c, 0, 74, 60
1, 319620, Note_off_c, 0, 78, 57
1, 319621, Note_on_c, 0, 76, 68
1, 319629, Note_on_c, 0, 79, 62
1, 319659, Note_off_c, 0, 66, 55
1, 319664, Note_off_c, 0, 76, 60
1, 319674, Note_off_c, 0, 79, 59
1, 319703, Note_on_c, 0, 64, 52
1, 319715, Note_on_c, 0, 71, 36
1, 319718, Note_on_c, 0, 78, 64
1, 319721, Note_off_c, 0, 62, 27
1, 319722, Note_on_c, 0, 74, 60
1, 319727, Note_on_c, 0, 67, 39
1, 319748, Note_off_c, 0, 71, 49
1, 319783, Note_off_c, 0, 74, 61
1, 319798, Note_off_c, 0, 78, 61
1, 319801, Control_c, 0, 67, 75
1, 319811, Note_on_c, 0, 79, 61
1, 319813, Note_on_c, 0, 76, 74
1, 319832, Note_off_c, 0, 79, 67
1, 319848, Note_off_c, 0, 76, 60
1, 319867, Note_off_c, 0, 64, 62
1, 319888, Note_off_c, 0, 67, 43
1, 319899, Note_on_c, 0, 62, 53
1, 319903, Note_on_c, 0, 66, 54
1, 319910, Note_on_c, 0, 69, 44
1, 319912, Note_on_c, 0, 81, 60
1, 319915, Note_on_c, 0, 78, 56
1, 319960, Note_off_c, 0, 69, 53
1, 319966, Note_off_c, 0, 78, 61
1, 319989, Note_off_c, 0, 81, 60
1, 319998, Note_on_c, 0, 79, 54
1, 320005, Note_on_c, 0, 83, 66
1, 320052, Note_off_c, 0, 79, 64
1, 320064, Note_off_c, 0, 83, 56
1, 320083, Note_off_c, 0, 66, 55
1, 320095, Note_on_c, 0, 78, 69
1, 320099, Note_on_c, 0, 64, 57
1, 320107, Note_on_c, 0, 71, 44
1, 320108, Note_on_c, 0, 81, 69
1, 320115, Note_on_c, 0, 67, 50
1, 320139, Note_off_c, 0, 71, 52
1, 320171, Note_off_c, 0, 62, 32
1, 320190, Note_off_c, 0, 78, 58
1, 320198, Note_on_c, 0, 83, 72
1, 320201, Note_on_c, 0, 79, 75
1, 320204, Note_off_c, 0, 81, 62
1, 320209, Control_c, 0, 67, 76
1, 320244, Note_off_c, 0, 79, 65
1, 320260, Note_off_c, 0, 83, 62
1, 320268, Control_c, 0, 67, 76
1, 320269, Note_off_c, 0, 64, 63
1, 320272, Note_off_c, 0, 67, 55
1, 320297, Note_on_c, 0, 78, 73
1, 320297, Note_on_c, 0, 69, 53
1, 320298, Note_on_c, 0, 62, 57
1, 320301, Note_on_c, 0, 66, 55
1, 320303, Note_on_c, 0, 81, 71
1, 320327, Control_c, 0, 67, 77
1, 320336, Note_off_c, 0, 69, 59
1, 320356, Note_off_c, 0, 78, 58
1, 320366, Note_on_c, 0, 79, 72
1, 320368, Note_off_c, 0, 81, 61
1, 320374, Note_on_c, 0, 83, 75
1, 320401, Control_c, 0, 67, 77
1, 320419, Note_off_c, 0, 79, 65
1, 320457, Note_off_c, 0, 83, 64
1, 320468, Note_on_c, 0, 78, 73
1, 320471, Note_off_c, 0, 66, 59
1, 320477, Note_on_c, 0, 81, 66
1, 320478, Note_off_c, 0, 62, 54
1, 320483, Note_on_c, 0, 64, 60
1, 320489, Note_on_c, 0, 71, 42
1, 320498, Note_on_c, 0, 67, 53
1, 320515, Note_off_c, 0, 71, 53
1, 320535, Control_c, 0, 67, 78
1, 320549, Note_off_c, 0, 78, 61
1, 320553, Note_on_c, 0, 79, 68
1, 320556, Note_off_c, 0, 81, 62
1, 320564, Note_on_c, 0, 83, 73
1, 320604, Note_off_c, 0, 83, 58
1, 320607, Note_off_c, 0, 79, 66
1, 320626, Note_off_c, 0, 64, 59
1, 320628, Note_off_c, 0, 67, 46
1, 320656, Note_on_c, 0, 69, 59
1, 320657, Note_on_c, 0, 62, 63
1, 320659, Note_on_c, 0, 78, 72
1, 320661, Note_on_c, 0, 66, 61
1, 320667, Note_on_c, 0, 81, 69
1, 320715, Note_off_c, 0, 69, 60
1, 320735, Control_c, 0, 67, 78
1, 320736, Note_off_c, 0, 78, 59
1, 320740, Note_on_c, 0, 79, 70
1, 320747, Note_off_c, 0, 81, 62
1, 320750, Note_on_c, 0, 83, 71
1, 320793, Note_off_c, 0, 79, 66
1, 320805, Note_off_c, 0, 62, 62
1, 320824, Note_off_c, 0, 66, 62
1, 320830, Note_off_c, 0, 83, 58
1, 320854, Note_on_c, 0, 64, 64
1, 320858, Note_on_c, 0, 81, 60
1, 320864, Note_on_c, 0, 67, 55
1, 320875, Note_on_c, 0, 71, 42
1, 320877, Note_off_c, 0, 81, 64
1, 320899, Control_c, 0, 67, 79
1, 320902, Note_off_c, 0, 71, 54
1, 320906, Note_on_c, 0, 83, 53
1, 320929, Control_c, 0, 67, 79
1, 320937, Note_on_c, 0, 79, 54
1, 320954, Note_off_c, 0, 83, 66
1, 320963, Note_on_c, 0, 82, 68
1, 320980, Note_off_c, 0, 82, 67
1, 320997, Note_off_c, 0, 64, 62
1, 321015, Note_off_c, 0, 67, 61
1, 321040, Note_on_c, 0, 69, 50
1, 321041, Note_on_c, 0, 62, 62
1, 321047, Control_c, 0, 67, 80
1, 321051, Note_on_c, 0, 66, 56
1, 321063, Note_on_c, 0, 83, 57
1, 321085, Note_off_c, 0, 69, 51
1, 321104, Note_off_c, 0, 79, 59
1, 321119, Note_on_c, 0, 78, 72
1, 321129, Note_off_c, 0, 83, 66
1, 321134, Note_on_c, 0, 81, 53
1, 321165, Control_c, 0, 67, 79
1, 321179, Note_off_c, 0, 62, 62
1, 321202, Note_off_c, 0, 66, 58
1, 321209, Note_off_c, 0, 78, 59
1, 321230, Note_on_c, 0, 64, 68
1, 321238, Note_on_c, 0, 76, 67
1, 321239, Note_on_c, 0, 67, 61
1, 321245, Note_on_c, 0, 71, 38
1, 321247, Note_on_c, 0, 77, 65
1, 321265, Note_off_c, 0, 77, 66
1, 321268, Note_off_c, 0, 76, 66
1, 321273, Note_off_c, 0, 71, 48
1, 321277, Note_off_c, 0, 81, 63
1, 321313, Control_c, 0, 67, 79
1, 321319, Note_on_c, 0, 74, 73
1, 321321, Note_on_c, 0, 78, 74
1, 321358, Control_c, 0, 67, 78
1, 321365, Note_off_c, 0, 74, 58
1, 321377, Note_off_c, 0, 78, 64
1, 321385, Note_off_c, 0, 64, 62
1, 321397, Note_off_c, 0, 67, 59
1, 321405, Note_on_c, 0, 69, 65
1, 321408, Note_on_c, 0, 62, 64
1, 321423, Note_on_c, 0, 66, 59
1, 321424, Note_on_c, 0, 73, 77
1, 321432, Control_c, 0, 67, 79
1, 321443, Note_off_c, 0, 73, 66
1, 321455, Note_on_c, 0, 72, 55
1, 321468, Note_off_c, 0, 69, 63
1, 321482, Note_off_c, 0, 72, 59
1, 321498, Control_c, 0, 67, 78
1, 321511, Note_on_c, 0, 74, 70
1, 321530, Note_on_c, 0, 76, 58
1, 321543, Control_c, 0, 67, 78
1, 321572, Note_off_c, 0, 66, 62
1, 321590, Note_on_c, 0, 67, 65
1, 321593, Note_on_c, 0, 78, 60
1, 321596, Note_off_c, 0, 62, 60
1, 321602, Note_on_c, 0, 64, 61
1, 321603, Note_on_c, 0, 71, 44
1, 321617, Note_off_c, 0, 76, 63
1, 321626, Note_off_c, 0, 74, 41
1, 321635, Note_off_c, 0, 71, 52
1, 321643, Note_on_c, 0, 79, 78
1, 321668, Note_off_c, 0, 78, 65
1, 321677, Control_c, 0, 67, 77
1, 321685, Note_off_c, 0, 79, 64
1, 321736, Control_c, 0, 67, 77
1, 321740, Note_off_c, 0, 64, 62
1, 321748, Note_off_c, 0, 67, 62
1, 321751, Control_c, 0, 67, 77
1, 321761, Note_on_c, 0, 69, 67
1, 321768, Note_on_c, 0, 62, 57
1, 321775, Note_on_c, 0, 66, 55
1, 321799, Note_on_c, 0, 93, 88
1, 321808, Note_on_c, 0, 81, 67
1, 321826, Note_off_c, 0, 81, 67
1, 321826, Note_off_c, 0, 69, 63
1, 321837, Note_off_c, 0, 93, 66
1, 321885, Control_c, 0, 67, 77
1, 321914, Control_c, 0, 67, 76
1, 321915, Note_on_c, 0, 95, 83
1, 321929, Note_on_c, 0, 83, 60
1, 321929, Control_c, 0, 67, 76
1, 321939, Note_off_c, 0, 66, 59
1, 321941, Note_off_c, 0, 62, 59
1, 321944, Control_c, 0, 67, 74
1, 321947, Note_off_c, 0, 83, 66
1, 321951, Note_off_c, 0, 95, 66
1, 321958, Control_c, 0, 67, 72
1, 321960, Note_on_c, 0, 71, 60
1, 321962, Note_on_c, 0, 93, 9
1, 321963, Note_off_c, 0, 93, 127
1, 321963, Note_on_c, 0, 64, 63
1, 321965, Note_on_c, 0, 67, 58
1, 321973, Control_c, 0, 67, 70
1, 321988, Control_c, 0, 67, 67
1, 322003, Control_c, 0, 67, 63
1, 322005, Note_off_c, 0, 71, 54
1, 322017, Note_on_c, 0, 86, 82
1, 322018, Note_on_c, 0, 98, 84
1, 322018, Control_c, 0, 67, 54
1, 322032, Control_c, 0, 67, 39
1, 322038, Note_off_c, 0, 98, 70
1, 322040, Note_off_c, 0, 86, 69
1, 322047, Control_c, 0, 67, 18
1, 322062, Control_c, 0, 67, 0
1, 322095, Note_on_c, 0, 98, 76
1, 322118, Note_off_c, 0, 64, 62
1, 322135, Note_off_c, 0, 67, 58
1, 322142, Note_on_c, 0, 69, 62
1, 322148, Note_on_c, 0, 62, 57
1, 322155, Note_on_c, 0, 66, 58
1, 322159, Note_on_c, 0, 97, 85
1, 322163, Note_off_c, 0, 98, 65
1, 322163, Note_on_c, 0, 85, 71
1, 322192, Note_off_c, 0, 85, 66
1, 322204, Note_off_c, 0, 69, 59
1, 322241, Note_off_c, 0, 97, 65
1, 322278, Note_on_c, 0, 95, 86
1, 322303, Note_on_c, 0, 83, 58
1, 322321, Note_off_c, 0, 83, 64
1, 322323, Note_off_c, 0, 66, 57
1, 322329, Note_off_c, 0, 95, 67
1, 322341, Note_off_c, 0, 62, 61
1, 322368, Note_on_c, 0, 64, 61
1, 322373, Note_on_c, 0, 71, 56
1, 322374, Note_on_c, 0, 67, 54
1, 322404, Note_on_c, 0, 93, 80
1, 322408, Note_on_c, 0, 81, 71
1, 322411, Note_off_c, 0, 71, 61
1, 322426, Note_off_c, 0, 93, 69
1, 322432, Note_off_c, 0, 81, 66
1, 322508, Note_on_c, 0, 95, 80
1, 322529, Note_off_c, 0, 95, 71
1, 322537, Note_off_c, 0, 64, 60
1, 322537, Note_off_c, 0, 67, 59
1, 322553, Note_on_c, 0, 69, 66
1, 322565, Note_on_c, 0, 62, 55
1, 322571, Note_on_c, 0, 66, 54
1, 322590, Poly_aftertouch_c, 0, 81, 0
1, 322615, Note_on_c, 0, 90, 92
1, 322619, Note_on_c, 0, 78, 77
1, 322619, Note_off_c, 0, 69, 60
1, 322636, Note_off_c, 0, 78, 68
1, 322660, Note_off_c, 0, 90, 66
1, 322723, Note_off_c, 0, 62, 60
1, 322726, Note_on_c, 0, 93, 75
1, 322729, Note_on_c, 0, 95, 81
1, 322735, Note_off_c, 0, 66, 58
1, 322750, Note_off_c, 0, 93, 67
1, 322752, Note_off_c, 0, 95, 71
1, 322756, Note_on_c, 0, 71, 53
1, 322768, Note_on_c, 0, 64, 51
1, 322768, Note_on_c, 0, 67, 51
1, 322796, Note_off_c, 0, 71, 55
1, 322812, Note_on_c, 0, 85, 79
1, 322819, Note_on_c, 0, 97, 63
1, 322836, Note_off_c, 0, 85, 68
1, 322837, Note_off_c, 0, 97, 64
1, 322905, Note_on_c, 0, 97, 26
1, 322919, Note_off_c, 0, 64, 63
1, 322935, Note_off_c, 0, 67, 57
1, 322940, Note_on_c, 0, 69, 61
1, 322943, Note_off_c, 0, 97, 48
1, 322952, Note_on_c, 0, 62, 62
1, 322956, Note_on_c, 0, 95, 73
1, 322962, Note_on_c, 0, 66, 57
1, 322990, Note_on_c, 0, 96, 13
1, 322990, Poly_aftertouch_c, 0, 85, 0
1, 322990, Note_off_c, 0, 95, 67
1, 323012, Note_off_c, 0, 69, 58
1, 323030, Note_off_c, 0, 96, 30
1, 323062, Poly_aftertouch_c, 0, 83, 0
1, 323094, Note_on_c, 0, 93, 79
1, 323114, Note_off_c, 0, 62, 60
1, 323119, Note_off_c, 0, 66, 61
1, 323143, Note_on_c, 0, 71, 72
1, 323146, Note_off_c, 0, 93, 64
1, 323149, Note_on_c, 0, 64, 62
1, 323163, Note_on_c, 0, 67, 61
1, 323197, Note_on_c, 0, 90, 82
1, 323208, Note_off_c, 0, 71, 58
1, 323209, Note_on_c, 0, 78, 79
1, 323232, Note_off_c, 0, 78, 68
1, 323249, Note_off_c, 0, 90, 66
1, 323323, Note_off_c, 0, 64, 62
1, 323333, Note_on_c, 0, 81, 63
1, 323358, Note_on_c, 0, 66, 52
1, 323362, Note_on_c, 0, 62, 53
1, 323367, Note_on_c, 0, 69, 54
1, 323377, Note_off_c, 0, 81, 0
1, 323382, Note_off_c, 0, 67, 23
1, 323424, Poly_aftertouch_c, 0, 81, 0
1, 323454, Note_off_c, 0, 69, 55
1, 323493, Note_off_c, 0, 62, 62
1, 323497, Note_off_c, 0, 66, 56
1, 323506, Note_on_c, 0, 83, 40
1, 323514, Note_on_c, 0, 81, 44
1, 323537, Note_off_c, 0, 81, 0
1, 323547, Note_off_c, 0, 83, 52
1, 323552, Note_on_c, 0, 67, 61
1, 323552, Poly_aftertouch_c, 0, 81, 0
1, 323554, Note_on_c, 0, 64, 63
1, 323555, Note_on_c, 0, 71, 60
1, 323556, Note_on_c, 0, 78, 75
1, 323567, Note_on_c, 0, 81, 51
1, 323585, Note_off_c, 0, 71, 65
1, 323614, Note_off_c, 0, 81, 62
1, 323619, Note_off_c, 0, 78, 60
1, 323648, Note_on_c, 0, 83, 66
1, 323662, Note_on_c, 0, 79, 71
1, 323687, Note_off_c, 0, 83, 62
1, 323692, Note_off_c, 0, 64, 60
1, 323700, Note_off_c, 0, 79, 58
1, 323701, Note_off_c, 0, 67, 37
1, 323740, Note_on_c, 0, 81, 72
1, 323745, Note_on_c, 0, 85, 74
1, 323753, Note_on_c, 0, 62, 57
1, 323754, Note_on_c, 0, 69, 67
1, 323762, Note_on_c, 0, 66, 50
1, 323778, Note_off_c, 0, 85, 63
1, 323784, Note_off_c, 0, 81, 61
1, 323802, Note_off_c, 0, 69, 63
1, 323830, Note_on_c, 0, 79, 69
1, 323838, Note_on_c, 0, 83, 62
1, 323850, Note_off_c, 0, 79, 65
1, 323883, Note_off_c, 0, 62, 61
1, 323898, Note_on_c, 0, 78, 58
1, 323903, Note_off_c, 0, 83, 64
1, 323912, Note_on_c, 0, 81, 68
1, 323919, Note_on_c, 0, 71, 65
1, 323925, Note_off_c, 0, 66, 35
1, 323933, Note_on_c, 0, 67, 55
1, 323938, Note_on_c, 0, 64, 50
1, 323964, Note_off_c, 0, 78, 60
1, 323973, Note_off_c, 0, 71, 57
1, 323976, Note_on_c, 0, 79, 60
1, 323999, Note_off_c, 0, 81, 62
1, 324000, Note_on_c, 0, 76, 52
1, 324011, Note_off_c, 0, 79, 68
1, 324023, Note_off_c, 0, 76, 58
1, 324053, Note_off_c, 0, 67, 50
1, 324072, Note_off_c, 0, 64, 59
1, 324089, Note_on_c, 0, 69, 72
1, 324099, Note_on_c, 0, 62, 61
1, 324103, Note_on_c, 0, 66, 54
1, 324112, Note_on_c, 0, 95, 76
1, 324121, Note_on_c, 0, 93, 72
1, 324138, Note_off_c, 0, 95, 69
1, 324140, Note_off_c, 0, 93, 66
1, 324157, Note_off_c, 0, 69, 61
1, 324211, Note_on_c, 0, 95, 79
1, 324232, Note_on_c, 0, 83, 67
1, 324240, Note_off_c, 0, 66, 56
1, 324249, Note_off_c, 0, 83, 68
1, 324251, Note_off_c, 0, 95, 68
1, 324254, Note_off_c, 0, 62, 62
1, 324287, Note_on_c, 0, 71, 67
1, 324295, Note_on_c, 0, 64, 62
1, 324301, Note_on_c, 0, 67, 59
1, 324321, Note_on_c, 0, 90, 93
1, 324326, Note_on_c, 0, 78, 80
1, 324327, Note_off_c, 0, 71, 57
1, 324348, Note_off_c, 0, 78, 69
1, 324352, Note_off_c, 0, 90, 60
1, 324419, Note_on_c, 0, 91, 81
1, 324422, Note_on_c, 0, 93, 76
1, 324429, Note_on_c, 0, 79, 63
1, 324432, Note_on_c, 0, 81, 56
1, 324444, Note_off_c, 0, 91, 68
1, 324446, Note_off_c, 0, 93, 68
1, 324448, Note_off_c, 0, 79, 65
1, 324449, Note_off_c, 0, 64, 61
1, 324451, Note_off_c, 0, 81, 63
1, 324508, Note_on_c, 0, 62, 59
1, 324510, Note_on_c, 0, 69, 47
1, 324512, Note_off_c, 0, 67, 33
1, 324518, Note_on_c, 0, 97, 93
1, 324520, Note_on_c, 0, 66, 46
1, 324524, Note_on_c, 0, 85, 79
1, 324536, Note_off_c, 0, 97, 69
1, 324547, Note_off_c, 0, 85, 68
1, 324560, Note_off_c, 0, 69, 57
1, 324601, Note_on_c, 0, 97, 101
1, 324604, Note_on_c, 0, 85, 76
1, 324631, Note_off_c, 0, 85, 65
1, 324640, Note_off_c, 0, 62, 61
1, 324646, Note_off_c, 0, 97, 66
1, 324655, Note_off_c, 0, 66, 52
1, 324684, Note_on_c, 0, 96, 87
1, 324687, Note_on_c, 0, 71, 65
1, 324693, Note_on_c, 0, 64, 66
1, 324702, Note_on_c, 0, 67, 54
1, 324709, Note_on_c, 0, 84, 47
1, 324717, Note_off_c, 0, 96, 63
1, 324718, Note_off_c, 0, 71, 64
1, 324735, Note_off_c, 0, 84, 58
1, 324799, Note_on_c, 0, 95, 66
1, 324802, Note_on_c, 0, 93, 70
1, 324817, Note_on_c, 0, 81, 48
1, 324831, Note_off_c, 0, 95, 68
1, 324835, Note_off_c, 0, 93, 63
1, 324839, Note_on_c, 0, 83, 15
1, 324840, Note_off_c, 0, 81, 56
1, 324845, Note_off_c, 0, 64, 58
1, 324858, Note_off_c, 0, 67, 50
1, 324872, Note_on_c, 0, 69, 72
1, 324878, Note_on_c, 0, 62, 65
1, 324881, Note_off_c, 0, 83, 38
1, 324891, Note_on_c, 0, 66, 64
1, 324916, Note_on_c, 0, 90, 88
1, 324925, Note_on_c, 0, 78, 73
1, 324928, Note_on_c, 0, 92, 61
1, 324932, Note_off_c, 0, 69, 64
1, 324942, Note_off_c, 0, 78, 67
1, 324947, Note_off_c, 0, 92, 65
1, 324958, Note_off_c, 0, 90, 64
1, 324995, Note_off_c, 0, 62, 57
1, 325068, Note_on_c, 0, 71, 62
1, 325069, Note_on_c, 0, 64, 58
1, 325070, Note_off_c, 0, 66, 30
1, 325075, Note_on_c, 0, 81, 72
1, 325083, Note_on_c, 0, 67, 49
1, 325108, Note_off_c, 0, 71, 60
1, 325109, Note_off_c, 0, 81, 63
1, 325175, Note_on_c, 0, 83, 79
1, 325221, Note_off_c, 0, 64, 60
1, 325248, Note_off_c, 0, 67, 47
1, 325266, Note_off_c, 0, 83, 65
1, 325267, Note_on_c, 0, 69, 55
1, 325268, Note_on_c, 0, 85, 72
1, 325269, Note_on_c, 0, 62, 54
1, 325280, Note_on_c, 0, 66, 43
1, 325313, Note_off_c, 0, 69, 55
1, 325322, Note_off_c, 0, 85, 62
1, 325361, Note_on_c, 0, 79, 72
1, 325379, Note_on_c, 0, 83, 58
1, 325385, Note_off_c, 0, 79, 66
1, 325387, Note_off_c, 0, 62, 62
1, 325399, Note_off_c, 0, 66, 58
1, 325437, Note_on_c, 0, 71, 57
1, 325441, Note_on_c, 0, 81, 72
1, 325443, Note_on_c, 0, 64, 56
1, 325444, Note_off_c, 0, 83, 63
1, 325445, Note_on_c, 0, 78, 68
1, 325448, Note_on_c, 0, 67, 46
1, 325451, Poly_aftertouch_c, 0, 84, 0
1, 325475, Note_off_c, 0, 71, 60
1, 325509, Note_off_c, 0, 78, 60
1, 325540, Note_on_c, 0, 79, 71
1, 325544, Note_off_c, 0, 81, 57
1, 325548, Note_on_c, 0, 76, 61
1, 325571, Note_off_c, 0, 64, 56
1, 325587, Note_off_c, 0, 76, 59
1, 325629, Note_on_c, 0, 69, 60
1, 325629, Note_off_c, 0, 67, 43
1, 325629, Note_on_c, 0, 66, 56
1, 325632, Note_on_c, 0, 62, 56
1, 325635, Note_on_c, 0, 78, 65
1, 325635, Note_off_c, 0, 79, 64
1, 325647, Note_on_c, 0, 81, 65
1, 325690, Note_off_c, 0, 69, 55
1, 325690, Note_off_c, 0, 81, 63
1, 325700, Note_off_c, 0, 78, 61
1, 325724, Note_off_c, 0, 62, 60
1, 325728, Note_on_c, 0, 76, 71
1, 325739, Note_on_c, 0, 79, 55
1, 325740, Note_off_c, 0, 66, 59
1, 325786, Note_off_c, 0, 76, 51
1, 325799, Note_off_c, 0, 79, 64
1, 325801, Note_on_c, 0, 74, 70
1, 325810, Note_on_c, 0, 64, 59
1, 325814, Note_on_c, 0, 67, 54
1, 325821, Note_on_c, 0, 78, 63
1, 325825, Note_on_c, 0, 71, 47
1, 325850, Note_off_c, 0, 71, 58
1, 325874, Note_off_c, 0, 74, 63
1, 325877, Note_off_c, 0, 78, 47
1, 325889, Note_off_c, 0, 67, 51
1, 325897, Note_on_c, 0, 76, 70
1, 325919, Note_on_c, 0, 79, 66
1, 325920, Note_off_c, 0, 64, 58
1, 325928, Note_off_c, 0, 76, 63
1, 325990, Note_on_c, 0, 66, 60
1, 325993, Note_on_c, 0, 62, 59
1, 325995, Note_on_c, 0, 69, 65
1, 326002, Note_off_c, 0, 79, 63
1, 326005, Note_on_c, 0, 74, 66
1, 326006, Note_on_c, 0, 78, 71
1, 326039, Note_off_c, 0, 69, 61
1, 326087, Note_off_c, 0, 62, 56
1, 326091, Note_on_c, 0, 76, 70
1, 326094, Note_off_c, 0, 74, 64
1, 326097, Note_off_c, 0, 78, 62
1, 326107, Note_off_c, 0, 66, 56
1, 326112, Note_on_c, 0, 73, 63
1, 326136, Note_off_c, 0, 73, 68
1, 326162, Note_on_c, 0, 71, 62
1, 326167, Note_on_c, 0, 64, 65
1, 326170, Note_on_c, 0, 67, 56
1, 326182, Note_on_c, 0, 74, 59
1, 326187, Note_off_c, 0, 76, 60
1, 326190, Note_on_c, 0, 78, 72
1, 326196, Note_off_c, 0, 71, 63
1, 326205, Note_off_c, 0, 67, 64
1, 326244, Note_off_c, 0, 64, 65
1, 326244, Note_off_c, 0, 74, 65
1, 326263, Note_on_c, 0, 79, 72
1, 326270, Note_off_c, 0, 78, 63
1, 326284, Note_on_c, 0, 76, 59
1, 326293, Note_off_c, 0, 79, 66
1, 326322, Note_on_c, 0, 69, 78
1, 326336, Note_on_c, 0, 66, 69
1, 326339, Note_off_c, 0, 76, 59
1, 326350, Note_on_c, 0, 57, 72
1, 326351, Note_off_c, 0, 69, 65
1, 326358, Note_on_c, 0, 62, 40
1, 326363, Note_on_c, 0, 81, 61
1, 326363, Control_c, 0, 64, 112
1, 326364, Note_on_c, 0, 78, 73
1, 326377, Note_off_c, 0, 66, 63
1, 326378, Control_c, 0, 64, 113
1, 326391, Note_off_c, 0, 62, 49
1, 326393, Control_c, 0, 64, 127
1, 326412, Note_off_c, 0, 57, 59
1, 326419, Note_off_c, 0, 78, 50
1, 326453, Note_off_c, 0, 81, 62
1, 326461, Note_on_c, 0, 59, 82
1, 326462, Note_on_c, 0, 83, 70
1, 326467, Note_on_c, 0, 79, 70
1, 326501, Note_off_c, 0, 79, 61
1, 326515, Note_off_c, 0, 83, 59
1, 326518, Note_off_c, 0, 59, 66
1, 326540, Note_on_c, 0, 78, 67
1, 326555, Control_c, 0, 64, 95
1, 326565, Note_on_c, 0, 81, 63
1, 326570, Control_c, 0, 64, 76
1, 326580, Note_on_c, 0, 62, 89
1, 326585, Control_c, 0, 64, 71
1, 326598, Note_off_c, 0, 78, 59
1, 326600, Note_off_c, 0, 81, 64
1, 326600, Control_c, 0, 64, 74
1, 326614, Control_c, 0, 64, 97
1, 326629, Control_c, 0, 64, 127
1, 326639, Note_on_c, 0, 83, 53
1, 326645, Note_on_c, 0, 79, 61
1, 326648, Note_off_c, 0, 62, 65
1, 326667, Note_off_c, 0, 83, 54
1, 326696, Note_on_c, 0, 61, 84
1, 326711, Note_on_c, 0, 81, 64
1, 326713, Note_off_c, 0, 79, 64
1, 326728, Note_on_c, 0, 85, 69
1, 326762, Note_off_c, 0, 85, 64
1, 326772, Note_off_c, 0, 61, 63
1, 326786, Note_off_c, 0, 81, 64
1, 326812, Note_on_c, 0, 59, 88
1, 326820, Note_on_c, 0, 79, 73
1, 326825, Note_on_c, 0, 83, 61
1, 326854, Note_off_c, 0, 79, 64
1, 326873, Note_off_c, 0, 59, 64
1, 326890, Control_c, 0, 64, 88
1, 326903, Note_on_c, 0, 78, 71
1, 326904, Control_c, 0, 64, 78
1, 326905, Note_off_c, 0, 83, 61
1, 326917, Note_on_c, 0, 57, 82
1, 326919, Control_c, 0, 64, 76
1, 326920, Note_on_c, 0, 81, 65
1, 326934, Control_c, 0, 64, 83
1, 326948, Control_c, 0, 64, 127
1, 326968, Note_off_c, 0, 57, 65
1, 326974, Note_off_c, 0, 78, 62
1, 326992, Note_off_c, 0, 81, 53
1, 327007, Note_on_c, 0, 76, 71
1, 327019, Note_on_c, 0, 79, 65
1, 327024, Note_on_c, 0, 59, 76
1, 327074, Note_off_c, 0, 76, 51
1, 327076, Note_off_c, 0, 59, 64
1, 327099, Note_on_c, 0, 78, 68
1, 327118, Note_off_c, 0, 79, 60
1, 327119, Note_on_c, 0, 81, 60
1, 327129, Note_on_c, 0, 54, 83
1, 327157, Control_c, 0, 64, 76
1, 327162, Note_off_c, 0, 81, 58
1, 327171, Control_c, 0, 64, 48
1, 327179, Note_off_c, 0, 78, 60
1, 327186, Control_c, 0, 64, 0
1, 327203, Note_on_c, 0, 79, 68
1, 327206, Note_off_c, 0, 54, 66
1, 327206, Note_on_c, 0, 76, 67
1, 327216, Control_c, 0, 64, 51
1, 327231, Control_c, 0, 64, 76
1, 327242, Note_on_c, 0, 57, 76
1, 327245, Control_c, 0, 64, 127
1, 327275, Note_off_c, 0, 76, 51
1, 327287, Note_off_c, 0, 79, 64
1, 327291, Note_on_c, 0, 74, 70
1, 327299, Note_off_c, 0, 57, 64
1, 327309, Note_on_c, 0, 61, 83
1, 327310, Note_on_c, 0, 78, 59
1, 327335, Note_off_c, 0, 61, 66
1, 327366, Note_off_c, 0, 74, 62
1, 327396, Note_on_c, 0, 76, 69
1, 327403, Note_off_c, 0, 78, 57
1, 327416, Note_on_c, 0, 79, 62
1, 327432, Note_off_c, 0, 76, 63
1, 327472, Note_on_c, 0, 69, 65
1, 327475, Note_on_c, 0, 62, 62
1, 327475, Note_on_c, 0, 66, 57
1, 327497, Note_on_c, 0, 74, 68
1, 327498, Note_off_c, 0, 79, 64
1, 327500, Note_off_c, 0, 69, 60
1, 327512, Note_on_c, 0, 78, 69
1, 327533, Note_off_c, 0, 66, 58
1, 327538, Note_off_c, 0, 62, 61
1, 327594, Note_off_c, 0, 74, 63
1, 327598, Note_off_c, 0, 78, 62
1, 327601, Note_on_c, 0, 76, 73
1, 327605, Note_on_c, 0, 73, 66
1, 327638, Note_off_c, 0, 73, 67
1, 327663, Note_on_c, 0, 67, 64
1, 327665, Note_on_c, 0, 64, 63
1, 327667, Note_on_c, 0, 71, 59
1, 327682, Note_off_c, 0, 76, 62
1, 327689, Note_on_c, 0, 74, 63
1, 327694, Note_off_c, 0, 71, 58
1, 327698, Note_on_c, 0, 78, 74
1, 327745, Note_off_c, 0, 74, 63
1, 327746, Note_off_c, 0, 67, 55
1, 327770, Note_off_c, 0, 78, 65
1, 327773, Note_off_c, 0, 64, 60
1, 327782, Note_on_c, 0, 76, 74
1, 327789, Note_on_c, 0, 79, 56
1, 327791, Note_on_c, 0, 81, 56
1, 327811, Note_off_c, 0, 79, 65
1, 327814, Note_off_c, 0, 81, 61
1, 327844, Note_on_c, 0, 69, 70
1, 327845, Note_on_c, 0, 62, 64
1, 327854, Note_on_c, 0, 66, 62
1, 327868, Note_on_c, 0, 78, 77
1, 327869, Note_off_c, 0, 76, 61
1, 327882, Note_on_c, 0, 81, 74
1, 327906, Note_off_c, 0, 69, 61
1, 327952, Note_on_c, 0, 83, 81
1, 327954, Note_off_c, 0, 66, 60
1, 327961, Note_off_c, 0, 81, 59
1, 327965, Note_off_c, 0, 62, 60
1, 327967, Note_off_c, 0, 78, 61
1, 328004, Note_off_c, 0, 83, 64
1, 328033, Note_on_c, 0, 81, 84
1, 328035, Note_on_c, 0, 71, 74
1, 328038, Note_on_c, 0, 64, 71
1, 328038, Control_c, 0, 64, 98
1, 328041, Note_on_c, 0, 67, 67
1, 328053, Control_c, 0, 64, 92
1, 328083, Control_c, 0, 64, 106
1, 328088, Note_off_c, 0, 71, 57
1, 328088, Note_off_c, 0, 81, 63
1, 328098, Control_c, 0, 64, 127
1, 328143, Note_on_c, 0, 83, 89
1, 328159, Note_off_c, 0, 67, 53
1, 328190, Note_off_c, 0, 64, 59
1, 328193, Note_off_c, 0, 83, 65
1, 328222, Note_on_c, 0, 69, 72
1, 328229, Note_on_c, 0, 62, 65
1, 328232, Note_on_c, 0, 66, 65
1, 328270, Note_on_c, 0, 86, 89
1, 328278, Note_off_c, 0, 69, 63
1, 328321, Note_off_c, 0, 86, 65
1, 328333, Note_off_c, 0, 66, 57
1, 328351, Note_off_c, 0, 62, 61
1, 328378, Note_on_c, 0, 85, 86
1, 328412, Note_on_c, 0, 64, 63
1, 328416, Note_on_c, 0, 67, 58
1, 328424, Note_off_c, 0, 85, 64
1, 328426, Note_on_c, 0, 71, 50
1, 328450, Note_off_c, 0, 71, 60
1, 328473, Note_on_c, 0, 83, 89
1, 328510, Note_off_c, 0, 83, 64
1, 328539, Note_off_c, 0, 67, 56
1, 328566, Note_off_c, 0, 64, 59
1, 328581, Note_on_c, 0, 69, 74
1, 328586, Note_on_c, 0, 62, 65
1, 328587, Note_on_c, 0, 93, 81
1, 328592, Note_on_c, 0, 66, 68
1, 328594, Note_on_c, 0, 81, 61
1, 328595, Note_on_c, 0, 91, 72
1, 328612, Note_off_c, 0, 81, 65
1, 328612, Note_off_c, 0, 91, 65
1, 328626, Note_off_c, 0, 93, 66
1, 328649, Note_off_c, 0, 69, 60
1, 328697, Note_on_c, 0, 95, 88
1, 328724, Note_off_c, 0, 66, 58
1, 328724, Note_on_c, 0, 83, 32
1, 328735, Note_off_c, 0, 95, 66
1, 328750, Note_off_c, 0, 62, 63
1, 328759, Note_off_c, 0, 83, 44
1, 328776, Note_on_c, 0, 71, 67
1, 328783, Note_on_c, 0, 64, 66
1, 328783, Note_on_c, 0, 67, 62
1, 328812, Note_on_c, 0, 98, 91
1, 328818, Note_off_c, 0, 71, 57
1, 328833, Note_on_c, 0, 86, 58
1, 328853, Note_off_c, 0, 86, 65
1, 328854, Note_off_c, 0, 98, 64
1, 328900, Note_off_c, 0, 67, 52
1, 328920, Note_on_c, 0, 97, 90
1, 328926, Note_on_c, 0, 85, 72
1, 328933, Note_off_c, 0, 64, 58
1, 328953, Note_off_c, 0, 85, 67
1, 328974, Note_off_c, 0, 97, 64
1, 328975, Note_on_c, 0, 69, 65
1, 328976, Note_on_c, 0, 62, 60
1, 328982, Note_on_c, 0, 66, 57
1, 329026, Note_on_c, 0, 95, 90
1, 329028, Note_off_c, 0, 69, 59
1, 329038, Note_on_c, 0, 83, 69
1, 329062, Note_off_c, 0, 83, 69
1, 329067, Note_off_c, 0, 95, 68
1, 329072, Note_off_c, 0, 66, 60
1, 329084, Note_off_c, 0, 62, 61
1, 329134, Note_on_c, 0, 93, 87
1, 329135, Note_on_c, 0, 71, 73
1, 329138, Note_on_c, 0, 67, 66
1, 329138, Note_on_c, 0, 81, 77
1, 329142, Note_on_c, 0, 64, 69
1, 329159, Note_off_c, 0, 93, 65
1, 329162, Note_off_c, 0, 81, 68
1, 329174, Note_off_c, 0, 71, 58
1, 329234, Note_on_c, 0, 95, 87
1, 329248, Note_on_c, 0, 83, 71
1, 329263, Note_off_c, 0, 83, 69
1, 329263, Note_off_c, 0, 95, 66
1, 329291, Note_off_c, 0, 64, 55
1, 329295, Poly_aftertouch_c, 0, 81, 0
1, 329314, Note_on_c, 0, 69, 75
1, 329315, Note_on_c, 0, 62, 70
1, 329326, Note_on_c, 0, 66, 60
1, 329331, Note_off_c, 0, 67, 24
1, 329350, Note_on_c, 0, 90, 89
1, 329353, Note_on_c, 0, 78, 71
1, 329361, Note_off_c, 0, 69, 58
1, 329368, Note_off_c, 0, 78, 68
1, 329395, Note_off_c, 0, 90, 66
1, 329400, Note_off_c, 0, 66, 55
1, 329427, Note_off_c, 0, 62, 56
1, 329458, Note_on_c, 0, 93, 88
1, 329475, Note_on_c, 0, 81, 46
1, 329479, Note_off_c, 0, 93, 68
1, 329480, Note_on_c, 0, 71, 74
1, 329483, Note_on_c, 0, 67, 63
1, 329485, Note_on_c, 0, 64, 68
1, 329497, Note_off_c, 0, 81, 59
1, 329535, Note_off_c, 0, 71, 60
1, 329556, Note_on_c, 0, 97, 89
1, 329561, Note_on_c, 0, 85, 80
1, 329584, Note_off_c, 0, 85, 68
1, 329591, Note_off_c, 0, 67, 54
1, 329593, Note_off_c, 0, 97, 62
1, 329627, Note_off_c, 0, 64, 57
1, 329653, Note_on_c, 0, 95, 90
1, 329659, Note_on_c, 0, 69, 81
1, 329661, Note_on_c, 0, 62, 71
1, 329666, Note_on_c, 0, 83, 68
1, 329668, Note_on_c, 0, 66, 67
1, 329684, Note_on_c, 0, 84, 45
1, 329691, Note_off_c, 0, 83, 68
1, 329691, Note_off_c, 0, 95, 66
1, 329715, Note_off_c, 0, 84, 56
1, 329749, Note_off_c, 0, 69, 56
1, 329758, Note_on_c, 0, 93, 93
1, 329764, Note_on_c, 0, 81, 87
1, 329785, Note_off_c, 0, 81, 69
1, 329792, Note_off_c, 0, 66, 61
1, 329798, Note_off_c, 0, 93, 67
1, 329802, Note_off_c, 0, 62, 59
1, 329844, Note_on_c, 0, 71, 82
1, 329850, Note_on_c, 0, 67, 71
1, 329852, Note_on_c, 0, 64, 73
1, 329871, Note_on_c, 0, 97, 96
1, 329879, Note_on_c, 0, 85, 67
1, 329895, Note_off_c, 0, 85, 69
1, 329907, Note_off_c, 0, 71, 58
1, 329907, Note_off_c, 0, 97, 66
1, 329976, Note_on_c, 0, 95, 84
1, 329980, Note_on_c, 0, 83, 84
1, 329986, Note_off_c, 0, 67, 58
1, 330001, Note_on_c, 0, 93, 58
1, 330002, Note_off_c, 0, 95, 68
1, 330002, Note_off_c, 0, 83, 71
1, 330016, Note_off_c, 0, 64, 58
1, 330020, Note_off_c, 0, 93, 63
1, 330038, Note_on_c, 0, 69, 79
1, 330040, Note_on_c, 0, 62, 71
1, 330047, Note_on_c, 0, 66, 67
1, 330089, Note_on_c, 0, 90, 93
1, 330089, Note_on_c, 0, 78, 83
1, 330104, Note_off_c, 0, 69, 61
1, 330110, Note_off_c, 0, 78, 69
1, 330143, Note_off_c, 0, 90, 63
1, 330150, Note_off_c, 0, 62, 59
1, 330151, Note_off_c, 0, 66, 60
1, 330197, Note_on_c, 0, 81, 77
1, 330200, Note_on_c, 0, 91, 81
1, 330214, Note_on_c, 0, 71, 76
1, 330219, Note_on_c, 0, 64, 71
1, 330219, Note_on_c, 0, 93, 58
1, 330221, Note_off_c, 0, 81, 68
1, 330223, Note_off_c, 0, 91, 68
1, 330232, Note_on_c, 0, 67, 58
1, 330237, Note_off_c, 0, 93, 62
1, 330268, Note_off_c, 0, 71, 58
1, 330285, Note_off_c, 0, 67, 46
1, 330303, Note_on_c, 0, 97, 98
1, 330308, Note_on_c, 0, 85, 82
1, 330332, Note_off_c, 0, 85, 68
1, 330352, Note_off_c, 0, 97, 66
1, 330364, Note_off_c, 0, 64, 59
1, 330396, Note_on_c, 0, 69, 75
1, 330408, Note_on_c, 0, 62, 65
1, 330411, Note_on_c, 0, 66, 65
1, 330429, Note_on_c, 0, 95, 91
1, 330438, Note_on_c, 0, 83, 77
1, 330454, Note_off_c, 0, 69, 64
1, 330457, Note_off_c, 0, 66, 56
1, 330468, Note_off_c, 0, 83, 70
1, 330476, Note_off_c, 0, 95, 68
1, 330479, Note_off_c, 0, 62, 57
1, 330563, Note_on_c, 0, 90, 95
1, 330563, Note_on_c, 0, 78, 90
1, 330583, Note_off_c, 0, 78, 68
1, 330591, Note_off_c, 0, 90, 61
1, 330593, Note_on_c, 0, 71, 66
1, 330604, Note_on_c, 0, 64, 54
1, 330612, Note_on_c, 0, 67, 49
1, 330640, Note_off_c, 0, 71, 58
1, 330657, Note_off_c, 0, 64, 61
1, 330659, Note_off_c, 0, 67, 54
1, 330810, Control_c, 0, 64, 71
1, 330825, Control_c, 0, 64, 48
1, 330840, Control_c, 0, 64, 0
1, 330860, Note_on_c, 0, 62, 47
1, 330862, Note_on_c, 0, 66, 40
1, 330870, Note_on_c, 0, 69, 43
1, 330913, Control_c, 0, 64, 17
1, 330928, Control_c, 0, 64, 46
1, 330943, Control_c, 0, 64, 63
1, 330953, Note_off_c, 0, 62, 59
1, 330958, Control_c, 0, 64, 74
1, 330969, Note_off_c, 0, 69, 39
1, 330971, Note_on_c, 0, 74, 59
1, 330973, Note_off_c, 0, 66, 36
1, 330973, Control_c, 0, 64, 87
1, 330987, Control_c, 0, 64, 106
1, 330989, Note_on_c, 0, 81, 51
1, 330998, Note_on_c, 0, 78, 37
1, 331002, Control_c, 0, 64, 127
1, 331013, Note_off_c, 0, 74, 61
1, 331028, Note_off_c, 0, 81, 58
1, 331031, Note_off_c, 0, 78, 49
1, 331069, Note_on_c, 0, 69, 48
1, 331104, Note_off_c, 0, 69, 51
1, 331106, Note_on_c, 0, 62, 33
1, 331110, Note_on_c, 0, 66, 31
1, 331139, Note_off_c, 0, 62, 50
1, 331148, Note_off_c, 0, 66, 49
1, 331156, Note_on_c, 0, 76, 58
1, 331184, Note_off_c, 0, 76, 63
1, 331198, Note_on_c, 0, 81, 15
1, 331219, Note_on_c, 0, 69, 40
1, 331248, Note_off_c, 0, 81, 37
1, 331254, Note_off_c, 0, 69, 51
1, 331265, Note_on_c, 0, 62, 24
1, 331302, Note_on_c, 0, 79, 63
1, 331305, Poly_aftertouch_c, 0, 66, 127
1, 331332, Note_off_c, 0, 79, 66
1, 331347, Note_on_c, 0, 69, 53
1, 331347, Note_off_c, 0, 62, 0
1, 331377, Note_off_c, 0, 69, 53
1, 331384, Poly_aftertouch_c, 0, 62, 127
1, 331420, Note_on_c, 0, 78, 63
1, 331424, Poly_aftertouch_c, 0, 66, 0
1, 331446, Note_on_c, 0, 81, 28
1, 331454, Note_off_c, 0, 78, 61
1, 331464, Note_on_c, 0, 69, 59
1, 331473, Poly_aftertouch_c, 0, 62, 0
1, 331481, Note_off_c, 0, 81, 45
1, 331499, Note_on_c, 0, 66, 23
1, 331508, Note_off_c, 0, 69, 60
1, 331510, Poly_aftertouch_c, 0, 62, 127
1, 331536, Note_off_c, 0, 66, 50
1, 331538, Note_on_c, 0, 76, 71
1, 331575, Note_off_c, 0, 76, 58
1, 331585, Poly_aftertouch_c, 0, 62, 0
1, 331600, Note_on_c, 0, 69, 60
1, 331607, Note_on_c, 0, 62, 24
1, 331630, Note_off_c, 0, 69, 52
1, 331648, Control_c, 0, 64, 89
1, 331654, Note_on_c, 0, 66, 16
1, 331654, Note_on_c, 0, 74, 73
1, 331655, Note_off_c, 0, 62, 48
1, 331663, Control_c, 0, 64, 70
1, 331678, Note_on_c, 0, 81, 17
1, 331678, Control_c, 0, 64, 67
1, 331691, Note_off_c, 0, 74, 58
1, 331692, Control_c, 0, 64, 71
1, 331707, Control_c, 0, 64, 83
1, 331717, Note_off_c, 0, 81, 55
1, 331722, Note_on_c, 0, 69, 57
1, 331722, Control_c, 0, 64, 127
1, 331731, Note_off_c, 0, 66, 0
1, 331737, Note_on_c, 0, 62, 39
1, 331751, Note_off_c, 0, 69, 54
1, 331769, Poly_aftertouch_c, 0, 66, 127
1, 331770, Note_off_c, 0, 62, 54
1, 331800, Note_on_c, 0, 76, 66
1, 331801, Poly_aftertouch_c, 0, 66, 0
1, 331806, Note_on_c, 0, 81, 60
1, 331828, Note_off_c, 0, 76, 65
1, 331842, Note_off_c, 0, 81, 61
1, 331845, Note_on_c, 0, 69, 55
1, 331865, Poly_aftertouch_c, 0, 66, 0
1, 331873, Note_on_c, 0, 62, 39
1, 331873, Note_off_c, 0, 69, 55
1, 331902, Poly_aftertouch_c, 0, 66, 127
1, 331903, Note_off_c, 0, 62, 53
1, 331917, Note_on_c, 0, 81, 65
1, 331924, Note_on_c, 0, 79, 71
1, 331940, Poly_aftertouch_c, 0, 66, 0
1, 331966, Note_off_c, 0, 79, 63
1, 331969, Note_off_c, 0, 81, 59
1, 331979, Note_on_c, 0, 69, 54
1, 331995, Note_on_c, 0, 62, 57
1, 332012, Note_off_c, 0, 69, 54
1, 332019, Note_off_c, 0, 62, 63
1, 332038, Note_on_c, 0, 78, 79
1, 332041, Poly_aftertouch_c, 0, 66, 127
1, 332094, Note_on_c, 0, 81, 11
1, 332095, Note_on_c, 0, 69, 62
1, 332095, Note_off_c, 0, 78, 62
1, 332099, Note_on_c, 0, 62, 63
1, 332109, Poly_aftertouch_c, 0, 66, 0
1, 332127, Note_off_c, 0, 69, 62
1, 332133, Note_on_c, 0, 66, 7
1, 332139, Note_off_c, 0, 81, 36
1, 332140, Note_off_c, 0, 62, 58
1, 332159, Note_on_c, 0, 76, 82
1, 332167, Note_off_c, 0, 66, 0
1, 332188, Poly_aftertouch_c, 0, 66, 0
1, 332204, Note_off_c, 0, 76, 63
1, 332211, Note_on_c, 0, 69, 60
1, 332222, Note_on_c, 0, 62, 62
1, 332239, Note_on_c, 0, 66, 33
1, 332248, Note_off_c, 0, 69, 62
1, 332262, Note_off_c, 0, 62, 59
1, 332276, Note_off_c, 0, 66, 51
1, 332278, Control_c, 0, 64, 99
1, 332285, Note_on_c, 0, 74, 82
1, 332293, Control_c, 0, 64, 74
1, 332300, Note_on_c, 0, 81, 39
1, 332307, Control_c, 0, 64, 67
1, 332322, Control_c, 0, 64, 69
1, 332333, Note_off_c, 0, 74, 58
1, 332337, Note_on_c, 0, 69, 63
1, 332337, Control_c, 0, 64, 80
1, 332344, Note_off_c, 0, 81, 46
1, 332352, Control_c, 0, 64, 127
1, 332358, Note_on_c, 0, 62, 58
1, 332362, Note_on_c, 0, 66, 48
1, 332380, Note_off_c, 0, 69, 58
1, 332390, Note_off_c, 0, 66, 57
1, 332393, Note_off_c, 0, 62, 62
1, 332415, Note_on_c, 0, 76, 74
1, 332443, Note_on_c, 0, 81, 46
1, 332444, Note_off_c, 0, 76, 64
1, 332467, Note_off_c, 0, 81, 57
1, 332479, Note_on_c, 0, 69, 61
1, 332489, Note_on_c, 0, 62, 51
1, 332497, Note_on_c, 0, 66, 40
1, 332515, Note_off_c, 0, 69, 57
1, 332525, Note_off_c, 0, 62, 62
1, 332530, Note_off_c, 0, 66, 53
1, 332545, Note_on_c, 0, 71, 67
1, 332554, Note_on_c, 0, 81, 54
1, 332578, Note_off_c, 0, 81, 63
1, 332578, Note_off_c, 0, 71, 63
1, 332620, Note_on_c, 0, 69, 62
1, 332626, Note_on_c, 0, 62, 54
1, 332631, Note_on_c, 0, 66, 44
1, 332649, Note_off_c, 0, 69, 57
1, 332659, Note_off_c, 0, 66, 57
1, 332662, Note_off_c, 0, 62, 61
1, 332668, Note_on_c, 0, 74, 73
1, 332681, Note_on_c, 0, 81, 49
1, 332698, Note_off_c, 0, 74, 65
1, 332710, Note_off_c, 0, 81, 60
1, 332754, Note_on_c, 0, 69, 58
1, 332766, Note_on_c, 0, 66, 48
1, 332768, Note_on_c, 0, 62, 57
1, 332790, Note_off_c, 0, 69, 56
1, 332796, Note_off_c, 0, 66, 59
1, 332800, Note_off_c, 0, 62, 64
1, 332805, Note_on_c, 0, 78, 77
1, 332807, Note_on_c, 0, 81, 55
1, 332844, Note_off_c, 0, 81, 59
1, 332852, Note_off_c, 0, 78, 57
1, 332877, Note_on_c, 0, 69, 67
1, 332887, Note_on_c, 0, 62, 58
1, 332892, Note_on_c, 0, 66, 50
1, 332894, Control_c, 0, 64, 105
1, 332909, Control_c, 0, 64, 71
1, 332923, Control_c, 0, 64, 55
1, 332928, Note_off_c, 0, 66, 57
1, 332930, Note_off_c, 0, 69, 59
1, 332933, Note_off_c, 0, 62, 56
1, 332938, Control_c, 0, 64, 44
1, 332942, Note_on_c, 0, 76, 75
1, 332953, Control_c, 0, 64, 48
1, 332959, Note_on_c, 0, 81, 53
1, 332968, Control_c, 0, 64, 60
1, 332983, Control_c, 0, 64, 77
1, 332997, Control_c, 0, 64, 104
1, 332998, Note_off_c, 0, 76, 64
1, 333011, Note_off_c, 0, 81, 52
1, 333012, Control_c, 0, 64, 127
1, 333026, Note_on_c, 0, 69, 63
1, 333041, Note_on_c, 0, 62, 53
1, 333049, Note_on_c, 0, 66, 42
1, 333066, Note_off_c, 0, 69, 58
1, 333075, Note_on_c, 0, 74, 77
1, 333077, Note_off_c, 0, 62, 63
1, 333079, Note_off_c, 0, 66, 54
1, 333121, Note_off_c, 0, 74, 63
1, 333154, Note_on_c, 0, 69, 65
1, 333170, Note_on_c, 0, 62, 58
1, 333173, Note_on_c, 0, 66, 53
1, 333193, Note_off_c, 0, 69, 60
1, 333203, Note_off_c, 0, 62, 63
1, 333204, Note_off_c, 0, 66, 62
1, 333207, Note_on_c, 0, 71, 77
1, 333209, Note_on_c, 0, 81, 43
1, 333237, Note_off_c, 0, 71, 63
1, 333252, Note_on_c, 0, 78, 16
1, 333255, Note_off_c, 0, 81, 61
1, 333281, Note_on_c, 0, 69, 67
1, 333295, Note_on_c, 0, 62, 54
1, 333296, Note_on_c, 0, 66, 55
1, 333297, Note_off_c, 0, 78, 36
1, 333317, Note_off_c, 0, 69, 60
1, 333326, Note_on_c, 0, 74, 80
1, 333330, Note_off_c, 0, 62, 63
1, 333331, Note_off_c, 0, 66, 64
1, 333344, Note_on_c, 0, 81, 62
1, 333367, Note_off_c, 0, 81, 65
1, 333376, Note_off_c, 0, 74, 64
1, 333397, Note_on_c, 0, 69, 72
1, 333422, Note_on_c, 0, 62, 61
1, 333422, Note_on_c, 0, 66, 53
1, 333439, Note_off_c, 0, 69, 60
1, 333457, Note_off_c, 0, 66, 59
1, 333463, Note_off_c, 0, 62, 63
1, 333467, Note_on_c, 0, 74, 82
1, 333468, Note_on_c, 0, 81, 57
1, 333489, Note_on_c, 0, 78, 56
1, 333514, Note_off_c, 0, 81, 60
1, 333517, Note_off_c, 0, 78, 63
1, 333519, Note_off_c, 0, 74, 64
1, 333539, Control_c, 0, 64, 99
1, 333541, Note_on_c, 0, 69, 63
1, 333553, Note_on_c, 0, 62, 49
1, 333554, Note_on_c, 0, 66, 49
1, 333554, Control_c, 0, 64, 75
1, 333569, Control_c, 0, 64, 68
1, 333584, Control_c, 0, 64, 70
1, 333586, Note_off_c, 0, 69, 61
1, 333591, Note_off_c, 0, 62, 56
1, 333598, Note_off_c, 0, 66, 47
1, 333599, Control_c, 0, 64, 80
1, 333609, Note_on_c, 0, 74, 88
1, 333613, Control_c, 0, 64, 111
1, 333623, Note_on_c, 0, 81, 67
1, 333627, Note_on_c, 0, 78, 53
1, 333628, Control_c, 0, 64, 127
1, 333655, Note_off_c, 0, 78, 58
1, 333660, Note_off_c, 0, 81, 60
1, 333669, Note_off_c, 0, 74, 65
1, 333681, Note_on_c, 0, 69, 64
1, 333693, Note_on_c, 0, 62, 58
1, 333697, Note_on_c, 0, 66, 53
1, 333719, Note_off_c, 0, 69, 62
1, 333728, Note_off_c, 0, 62, 63
1, 333731, Note_off_c, 0, 66, 62
1, 333751, Note_on_c, 0, 74, 83
1, 333762, Note_on_c, 0, 81, 62
1, 333770, Note_on_c, 0, 78, 40
1, 333794, Note_off_c, 0, 81, 66
1, 333799, Note_off_c, 0, 74, 63
1, 333800, Note_off_c, 0, 78, 51
1, 333811, Note_on_c, 0, 69, 58
1, 333821, Note_on_c, 0, 62, 57
1, 333832, Note_on_c, 0, 66, 44
1, 333842, Note_off_c, 0, 69, 56
1, 333858, Note_off_c, 0, 62, 63
1, 333866, Note_off_c, 0, 66, 52
1, 333875, Note_on_c, 0, 74, 79
1, 333880, Note_on_c, 0, 81, 60
1, 333893, Note_on_c, 0, 78, 45
1, 333909, Note_off_c, 0, 74, 64
1, 333916, Note_off_c, 0, 81, 61
1, 333921, Note_off_c, 0, 78, 52
1, 333928, Note_on_c, 0, 69, 63
1, 333949, Note_on_c, 0, 62, 62
1, 333953, Note_on_c, 0, 66, 54
1, 333976, Note_off_c, 0, 69, 60
1, 333979, Note_off_c, 0, 66, 60
1, 333985, Note_off_c, 0, 62, 61
1, 333995, Note_on_c, 0, 74, 80
1, 334009, Note_on_c, 0, 81, 54
1, 334018, Note_on_c, 0, 78, 35
1, 334024, Note_off_c, 0, 74, 61
1, 334032, Note_off_c, 0, 81, 61
1, 334053, Note_off_c, 0, 78, 44
1, 334058, Note_on_c, 0, 69, 67
1, 334067, Note_on_c, 0, 66, 55
1, 334070, Note_on_c, 0, 62, 62
1, 334102, Note_off_c, 0, 69, 61
1, 334107, Note_on_c, 0, 76, 79
1, 334107, Note_off_c, 0, 62, 61
1, 334107, Note_off_c, 0, 66, 60
1, 334114, Note_on_c, 0, 81, 59
1, 334139, Note_off_c, 0, 81, 63
1, 334150, Note_on_c, 0, 78, 30
1, 334153, Note_off_c, 0, 76, 62
1, 334171, Note_on_c, 0, 69, 76
1, 334186, Note_off_c, 0, 78, 43
1, 334194, Note_on_c, 0, 62, 63
1, 334210, Note_on_c, 0, 66, 55
1, 334230, Note_off_c, 0, 69, 59
1, 334232, Note_off_c, 0, 62, 62
1, 334232, Note_off_c, 0, 66, 63
1, 334241, Note_on_c, 0, 71, 73
1, 334245, Note_on_c, 0, 81, 57
1, 334256, Note_on_c, 0, 69, 58
1, 334283, Note_off_c, 0, 71, 61
1, 334286, Note_off_c, 0, 69, 0
1, 334291, Note_off_c, 0, 81, 58
1, 334304, Note_on_c, 0, 69, 71
1, 334315, Note_on_c, 0, 62, 64
1, 334317, Note_on_c, 0, 66, 56
1, 334358, Note_off_c, 0, 62, 60
1, 334363, Note_off_c, 0, 66, 54
1, 334368, Note_off_c, 0, 69, 61
1, 334373, Note_on_c, 0, 74, 78
1, 334394, Note_on_c, 0, 81, 49
1, 334423, Note_off_c, 0, 81, 53
1, 334426, Note_off_c, 0, 74, 65
1, 334448, Note_on_c, 0, 69, 79
1, 334456, Note_on_c, 0, 62, 60
1, 334467, Note_on_c, 0, 66, 54
1, 334514, Note_on_c, 0, 78, 82
1, 334516, Note_off_c, 0, 66, 54
1, 334519, Note_on_c, 0, 81, 68
1, 334521, Note_off_c, 0, 69, 58
1, 334543, Note_off_c, 0, 62, 57
1, 334593, Note_off_c, 0, 78, 60
1, 334596, Note_off_c, 0, 81, 59
1, 334639, Note_on_c, 0, 64, 76
1, 334685, Note_on_c, 0, 76, 78
1, 334699, Note_on_c, 0, 81, 72
1, 334732, Control_c, 0, 64, 102
1, 334747, Control_c, 0, 64, 99
1, 334761, Control_c, 0, 64, 102
1, 334767, Note_off_c, 0, 76, 61
1, 334776, Note_off_c, 0, 81, 58
1, 334776, Control_c, 0, 64, 127
1, 334800, Poly_aftertouch_c, 0, 78, 0
1, 334820, Note_off_c, 0, 64, 64
1, 334823, Note_on_c, 0, 66, 92
1, 334834, Note_on_c, 0, 74, 72
1, 334858, Note_on_c, 0, 81, 39
1, 334884, Note_off_c, 0, 74, 65
1, 334885, Note_off_c, 0, 81, 56
1, 334948, Poly_aftertouch_c, 0, 78, 0
1, 334975, Note_off_c, 0, 66, 62
1, 335052, Note_on_c, 0, 81, 59
1, 335065, Control_c, 0, 64, 116
1, 335079, Control_c, 0, 64, 69
1, 335084, Note_on_c, 0, 69, 70
1, 335088, Note_on_c, 0, 78, 48
1, 335091, Note_on_c, 0, 70, 47
1, 335094, Control_c, 0, 64, 47
1, 335103, Note_on_c, 0, 74, 31
1, 335109, Control_c, 0, 64, 0
1, 335146, Note_off_c, 0, 70, 0
1, 335146, Note_on_c, 0, 70, 19
1, 335199, Control_c, 0, 64, 56
1, 335214, Control_c, 0, 64, 72
1, 335228, Note_off_c, 0, 69, 62
1, 335229, Control_c, 0, 64, 85
1, 335244, Control_c, 0, 64, 100
1, 335258, Control_c, 0, 64, 127
1, 335265, Note_on_c, 0, 67, 79
1, 335311, Note_off_c, 0, 78, 56
1, 335314, Note_off_c, 0, 81, 62
1, 335324, Note_off_c, 0, 74, 46
1, 335384, Note_on_c, 0, 81, 69
1, 335397, Note_on_c, 0, 74, 61
1, 335400, Note_on_c, 0, 78, 58
1, 335407, Note_on_c, 0, 66, 79
1, 335414, Note_off_c, 0, 67, 31
1, 335483, Note_off_c, 0, 66, 62
1, 335531, Note_on_c, 0, 64, 88
1, 335556, Note_off_c, 0, 81, 58
1, 335585, Note_off_c, 0, 78, 29
1, 335587, Note_off_c, 0, 64, 64
1, 335596, Note_off_c, 0, 74, 36
1, 335633, Note_on_c, 0, 81, 73
1, 335640, Note_on_c, 0, 78, 54
1, 335641, Note_on_c, 0, 74, 40
1, 335657, Note_on_c, 0, 66, 87
1, 335681, Note_off_c, 0, 74, 61
1, 335714, Note_off_c, 0, 78, 59
1, 335719, Note_off_c, 0, 66, 64
1, 335726, Note_off_c, 0, 81, 60
1, 335731, Note_off_c, 0, 70, 38
1, 335857, Note_on_c, 0, 81, 70
1, 335876, Note_on_c, 0, 60, 90
1, 335878, Note_on_c, 0, 78, 57
1, 335948, Control_c, 0, 64, 96
1, 335949, Note_off_c, 0, 81, 62
1, 335958, Note_off_c, 0, 78, 60
1, 335963, Control_c, 0, 64, 68
1, 335978, Control_c, 0, 64, 48
1, 335982, Note_on_c, 0, 74, 48
1, 335993, Control_c, 0, 64, 0
1, 336014, Note_on_c, 0, 70, 3
1, 336027, Note_off_c, 0, 74, 65
1, 336030, Note_on_c, 0, 78, 54
1, 336036, Note_on_c, 0, 81, 57
1, 336037, Control_c, 0, 64, 28
1, 336052, Control_c, 0, 64, 54
1, 336053, Note_off_c, 0, 70, 37
1, 336067, Control_c, 0, 64, 71
1, 336081, Control_c, 0, 64, 88
1, 336096, Control_c, 0, 64, 127
1, 336099, Note_off_c, 0, 81, 59
1, 336100, Note_off_c, 0, 78, 57
1, 336111, Note_on_c, 0, 70, 52
1, 336114, Note_on_c, 0, 74, 66
1, 336139, Note_off_c, 0, 70, 59
1, 336158, Note_off_c, 0, 74, 60
1, 336170, Note_on_c, 0, 81, 51
1, 336173, Note_on_c, 0, 78, 51
1, 336212, Note_off_c, 0, 81, 62
1, 336221, Note_on_c, 0, 70, 64
1, 336222, Note_off_c, 0, 78, 59
1, 336244, Note_on_c, 0, 74, 60
1, 336265, Note_off_c, 0, 70, 61
1, 336282, Note_off_c, 0, 74, 63
1, 336307, Note_on_c, 0, 78, 59
1, 336307, Note_on_c, 0, 81, 50
1, 336334, Note_off_c, 0, 81, 55
1, 336345, Note_off_c, 0, 78, 59
1, 336367, Note_on_c, 0, 74, 57
1, 336368, Note_on_c, 0, 70, 52
1, 336389, Note_off_c, 0, 70, 59
1, 336402, Note_off_c, 0, 74, 64
1, 336416, Note_on_c, 0, 81, 61
1, 336423, Note_on_c, 0, 78, 58
1, 336464, Note_off_c, 0, 81, 59
1, 336469, Note_off_c, 0, 78, 58
1, 336482, Note_on_c, 0, 70, 56
1, 336492, Note_on_c, 0, 74, 58
1, 336495, Note_on_c, 0, 48, 53
1, 336519, Note_off_c, 0, 70, 63
1, 336526, Note_off_c, 0, 48, 64
1, 336532, Note_off_c, 0, 74, 63
1, 336551, Note_off_c, 0, 60, 17
1, 336555, Note_on_c, 0, 78, 56
1, 336564, Note_on_c, 0, 81, 41
1, 336592, Note_off_c, 0, 81, 55
1, 336597, Note_off_c, 0, 78, 57
1, 336619, Note_on_c, 0, 74, 57
1, 336623, Note_on_c, 0, 70, 53
1, 336653, Note_off_c, 0, 70, 62
1, 336659, Note_on_c, 0, 64, 38
1, 336668, Note_off_c, 0, 74, 61
1, 336674, Note_on_c, 0, 60, 45
1, 336683, Note_on_c, 0, 81, 59
1, 336690, Note_on_c, 0, 78, 54
1, 336695, Note_off_c, 0, 64, 52
1, 336709, Note_off_c, 0, 60, 59
1, 336731, Note_off_c, 0, 78, 59
1, 336734, Note_off_c, 0, 81, 53
1, 336741, Note_on_c, 0, 67, 48
1, 336748, Note_on_c, 0, 70, 56
1, 336769, Note_on_c, 0, 74, 57
1, 336772, Note_off_c, 0, 67, 53
1, 336776, Note_off_c, 0, 70, 60
1, 336806, Note_off_c, 0, 74, 61
1, 336817, Note_on_c, 0, 64, 30
1, 336823, Note_on_c, 0, 60, 38
1, 336824, Note_on_c, 0, 81, 53
1, 336830, Note_on_c, 0, 78, 47
1, 336847, Note_off_c, 0, 81, 58
1, 336848, Note_off_c, 0, 60, 54
1, 336851, Note_off_c, 0, 64, 55
1, 336854, Note_on_c, 0, 67, 68
1, 336855, Note_off_c, 0, 78, 59
1, 336860, Note_on_c, 0, 70, 63
1, 336885, Note_on_c, 0, 74, 60
1, 336897, Note_off_c, 0, 70, 61
1, 336902, Note_off_c, 0, 67, 58
1, 336918, Note_off_c, 0, 74, 63
1, 336921, Note_on_c, 0, 60, 64
1, 336926, Note_on_c, 0, 78, 73
1, 336930, Note_on_c, 0, 81, 65
1, 336936, Note_on_c, 0, 64, 57
1, 336964, Note_off_c, 0, 60, 59
1, 336967, Note_off_c, 0, 64, 64
1, 336974, Note_on_c, 0, 67, 64
1, 336979, Note_off_c, 0, 78, 52
1, 336985, Note_off_c, 0, 81, 60
1, 336993, Note_on_c, 0, 70, 69
1, 336994, Note_on_c, 0, 74, 66
1, 337023, Note_off_c, 0, 70, 64
1, 337037, Note_off_c, 0, 74, 62
1, 337044, Note_on_c, 0, 81, 62
1, 337049, Note_on_c, 0, 64, 65
1, 337049, Note_on_c, 0, 78, 62
1, 337051, Note_on_c, 0, 60, 61
1, 337054, Note_off_c, 0, 67, 55
1, 337088, Note_off_c, 0, 78, 58
1, 337090, Note_off_c, 0, 81, 60
1, 337100, Note_off_c, 0, 64, 64
1, 337101, Note_on_c, 0, 70, 73
1, 337115, Note_on_c, 0, 74, 51
1, 337127, Note_off_c, 0, 60, 62
1, 337146, Note_off_c, 0, 70, 57
1, 337154, Note_off_c, 0, 74, 64
1, 337160, Note_on_c, 0, 78, 75
1, 337164, Note_on_c, 0, 81, 68
1, 337209, Control_c, 0, 64, 83
1, 337224, Note_off_c, 0, 81, 58
1, 337224, Control_c, 0, 64, 69
1, 337228, Note_off_c, 0, 78, 62
1, 337231, Note_on_c, 0, 70, 70
1, 337231, Note_on_c, 0, 47, 88
1, 337238, Control_c, 0, 64, 72
1, 337240, Note_on_c, 0, 74, 68
1, 337253, Control_c, 0, 64, 114
1, 337263, Note_off_c, 0, 70, 65
1, 337267, Note_off_c, 0, 47, 66
1, 337268, Control_c, 0, 64, 127
1, 337283, Note_off_c, 0, 74, 62
1, 337286, Note_on_c, 0, 78, 68
1, 337299, Note_on_c, 0, 81, 59
1, 337335, Note_off_c, 0, 81, 58
1, 337357, Note_off_c, 0, 78, 61
1, 337369, Note_on_c, 0, 74, 60
1, 337379, Note_on_c, 0, 71, 49
1, 337396, Note_on_c, 0, 64, 76
1, 337403, Note_off_c, 0, 71, 56
1, 337409, Note_off_c, 0, 74, 61
1, 337414, Note_on_c, 0, 55, 52
1, 337414, Note_on_c, 0, 59, 53
1, 337417, Note_on_c, 0, 78, 62
1, 337419, Note_on_c, 0, 81, 62
1, 337431, Note_off_c, 0, 64, 61
1, 337436, Note_off_c, 0, 59, 61
1, 337443, Note_off_c, 0, 55, 53
1, 337449, Note_off_c, 0, 81, 63
1, 337463, Note_off_c, 0, 78, 56
1, 337473, Note_on_c, 0, 71, 72
1, 337475, Note_on_c, 0, 67, 75
1, 337485, Note_on_c, 0, 74, 68
1, 337512, Note_off_c, 0, 71, 62
1, 337516, Note_off_c, 0, 67, 59
1, 337523, Note_on_c, 0, 59, 56
1, 337532, Note_off_c, 0, 74, 60
1, 337532, Note_on_c, 0, 64, 69
1, 337537, Note_on_c, 0, 78, 75
1, 337537, Note_on_c, 0, 81, 70
1, 337544, Note_on_c, 0, 55, 43
1, 337569, Note_off_c, 0, 55, 58
1, 337574, Note_off_c, 0, 81, 60
1, 337585, Note_off_c, 0, 59, 63
1, 337591, Note_on_c, 0, 67, 85
1, 337593, Note_off_c, 0, 78, 63
1, 337594, Note_off_c, 0, 64, 62
1, 337598, Note_on_c, 0, 71, 73
1, 337601, Note_on_c, 0, 74, 62
1, 337639, Note_off_c, 0, 71, 61
1, 337651, Note_off_c, 0, 74, 53
1, 337652, Note_on_c, 0, 78, 74
1, 337657, Note_on_c, 0, 64, 86
1, 337660, Note_on_c, 0, 81, 77
1, 337661, Note_on_c, 0, 55, 68
1, 337665, Note_off_c, 0, 67, 63
1, 337687, Note_on_c, 0, 59, 44
1, 337688, Note_off_c, 0, 64, 63
1, 337694, Note_off_c, 0, 81, 57
1, 337710, Note_off_c, 0, 59, 61
1, 337710, Note_off_c, 0, 78, 63
1, 337717, Note_on_c, 0, 74, 64
1, 337721, Note_on_c, 0, 71, 75
1, 337724, Note_on_c, 0, 60, 17
1, 337730, Note_off_c, 0, 55, 64
1, 337764, Note_off_c, 0, 71, 55
1, 337766, Note_off_c, 0, 60, 39
1, 337774, Note_on_c, 0, 78, 75
1, 337776, Note_on_c, 0, 81, 80
1, 337778, Note_off_c, 0, 74, 65
1, 337836, Note_off_c, 0, 81, 62
1, 337840, Note_on_c, 0, 74, 62
1, 337843, Note_on_c, 0, 71, 73
1, 337848, Note_off_c, 0, 78, 63
1, 337889, Note_off_c, 0, 71, 63
1, 337895, Note_on_c, 0, 47, 93
1, 337899, Note_on_c, 0, 78, 71
1, 337903, Note_on_c, 0, 81, 73
1, 337905, Note_on_c, 0, 35, 82
1, 337908, Note_off_c, 0, 74, 65
1, 337927, Note_off_c, 0, 47, 66
1, 337932, Note_off_c, 0, 35, 65
1, 337969, Note_off_c, 0, 81, 62
1, 337976, Note_on_c, 0, 74, 69
1, 337976, Note_off_c, 0, 78, 62
1, 337978, Note_on_c, 0, 71, 80
1, 338016, Note_off_c, 0, 71, 61
1, 338038, Note_on_c, 0, 78, 71
1, 338042, Note_off_c, 0, 74, 65
1, 338044, Note_on_c, 0, 81, 66
1, 338081, Note_off_c, 0, 81, 56
1, 338100, Note_on_c, 0, 74, 67
1, 338103, Note_on_c, 0, 71, 76
1, 338103, Note_off_c, 0, 78, 64
1, 338144, Note_on_c, 0, 61, 99
1, 338150, Note_off_c, 0, 71, 61
1, 338152, Note_on_c, 0, 59, 81
1, 338160, Note_on_c, 0, 52, 76
1, 338162, Note_on_c, 0, 78, 77
1, 338163, Note_on_c, 0, 81, 82
1, 338172, Note_off_c, 0, 74, 63
1, 338173, Note_on_c, 0, 55, 65
1, 338181, Note_on_c, 0, 57, 59
1, 338186, Note_on_c, 0, 56, 29
1, 338192, Note_off_c, 0, 61, 65
1, 338204, Note_off_c, 0, 52, 62
1, 338205, Note_off_c, 0, 59, 66
1, 338209, Note_off_c, 0, 57, 65
1, 338215, Note_off_c, 0, 55, 64
1, 338225, Note_off_c, 0, 56, 52
1, 338228, Note_on_c, 0, 74, 66
1, 338230, Note_on_c, 0, 71, 64
1, 338230, Note_off_c, 0, 81, 63
1, 338245, Note_off_c, 0, 78, 63
1, 338284, Note_off_c, 0, 71, 59
1, 338290, Note_on_c, 0, 78, 70
1, 338295, Note_on_c, 0, 81, 73
1, 338302, Note_off_c, 0, 74, 66
1, 338355, Note_on_c, 0, 71, 71
1, 338357, Note_off_c, 0, 81, 63
1, 338360, Note_on_c, 0, 74, 67
1, 338367, Note_off_c, 0, 78, 63
1, 338408, Note_off_c, 0, 71, 64
1, 338422, Note_on_c, 0, 78, 73
1, 338426, Note_on_c, 0, 81, 72
1, 338427, Note_off_c, 0, 74, 66
1, 338470, Note_off_c, 0, 81, 59
1, 338479, Note_on_c, 0, 71, 81
1, 338485, Note_off_c, 0, 78, 63
1, 338486, Note_on_c, 0, 74, 68
1, 338543, Note_on_c, 0, 78, 82
1, 338551, Note_off_c, 0, 71, 52
1, 338552, Note_off_c, 0, 74, 64
1, 338555, Note_on_c, 0, 81, 76
1, 338589, Note_off_c, 0, 81, 57
1, 338604, Note_on_c, 0, 74, 68
1, 338605, Note_on_c, 0, 71, 61
1, 338619, Note_off_c, 0, 78, 63
1, 338639, Control_c, 0, 64, 90
1, 338654, Control_c, 0, 64, 69
1, 338656, Note_on_c, 0, 45, 97
1, 338661, Note_off_c, 0, 71, 61
1, 338668, Note_on_c, 0, 78, 72
1, 338669, Note_on_c, 0, 33, 80
1, 338670, Note_on_c, 0, 31, 83
1, 338671, Note_on_c, 0, 81, 78
1, 338683, Note_off_c, 0, 74, 65
1, 338683, Control_c, 0, 64, 93
1, 338689, Note_off_c, 0, 31, 68
1, 338693, Note_off_c, 0, 45, 67
1, 338703, Note_off_c, 0, 33, 65
1, 338706, Control_c, 0, 64, 127
1, 338744, Note_off_c, 0, 81, 61
1, 338746, Note_on_c, 0, 74, 72
1, 338753, Note_on_c, 0, 71, 75
1, 338759, Note_off_c, 0, 78, 64
1, 338796, Note_off_c, 0, 71, 64
1, 338811, Note_on_c, 0, 78, 74
1, 338812, Note_on_c, 0, 81, 77
1, 338819, Note_off_c, 0, 74, 65
1, 338876, Note_on_c, 0, 74, 70
1, 338877, Note_off_c, 0, 81, 62
1, 338880, Note_on_c, 0, 71, 78
1, 338889, Note_off_c, 0, 78, 63
1, 338938, Note_off_c, 0, 71, 63
1, 338949, Note_on_c, 0, 78, 76
1, 338950, Note_on_c, 0, 57, 96
1, 338951, Note_on_c, 0, 81, 81
1, 338953, Note_on_c, 0, 59, 96
1, 338954, Note_on_c, 0, 52, 80
1, 338954, Note_on_c, 0, 55, 85
1, 338954, Note_on_c, 0, 49, 89
1, 338958, Note_off_c, 0, 74, 63
1, 339016, Note_on_c, 0, 74, 71
1, 339023, Note_on_c, 0, 71, 76
1, 339026, Note_off_c, 0, 81, 63
1, 339035, Note_off_c, 0, 78, 62
1, 339054, Note_off_c, 0, 57, 56
1, 339055, Note_off_c, 0, 59, 63
1, 339076, Note_off_c, 0, 71, 64
1, 339094, Note_on_c, 0, 78, 78
1, 339094, Note_off_c, 0, 55, 62
1, 339097, Note_on_c, 0, 81, 75
1, 339102, Note_off_c, 0, 49, 60
1, 339103, Note_off_c, 0, 74, 64
1, 339107, Note_off_c, 0, 52, 63
1, 339156, Note_on_c, 0, 74, 70
1, 339159, Note_off_c, 0, 81, 62
1, 339160, Note_on_c, 0, 71, 81
1, 339170, Note_off_c, 0, 78, 63
1, 339218, Note_off_c, 0, 71, 64
1, 339228, Note_on_c, 0, 78, 81
1, 339231, Note_on_c, 0, 81, 80
1, 339235, Note_off_c, 0, 74, 65
1, 339288, Note_on_c, 0, 74, 74
1, 339293, Note_on_c, 0, 71, 81
1, 339297, Note_off_c, 0, 81, 62
1, 339306, Note_off_c, 0, 78, 62
1, 339348, Note_off_c, 0, 71, 63
1, 339364, Note_on_c, 0, 81, 84
1, 339365, Note_on_c, 0, 78, 82
1, 339383, Note_off_c, 0, 74, 62
1, 339426, Note_on_c, 0, 74, 72
1, 339437, Note_on_c, 0, 71, 85
1, 339453, Note_off_c, 0, 81, 64
1, 339458, Note_off_c, 0, 78, 63
1, 339500, Note_off_c, 0, 71, 63
1, 339515, Note_on_c, 0, 81, 88
1, 339516, Note_on_c, 0, 78, 79
1, 339529, Note_off_c, 0, 74, 64
1, 339577, Note_on_c, 0, 74, 74
1, 339590, Note_on_c, 0, 71, 83
1, 339594, Note_off_c, 0, 81, 64
1, 339598, Note_off_c, 0, 78, 64
1, 339649, Note_off_c, 0, 71, 62
1, 339663, Note_on_c, 0, 78, 89
1, 339666, Note_on_c, 0, 81, 83
1, 339675, Note_off_c, 0, 74, 64
1, 339747, Note_on_c, 0, 74, 64
1, 339747, Note_on_c, 0, 71, 73
1, 339747, Note_off_c, 0, 81, 59
1, 339757, Note_off_c, 0, 78, 61
1, 339789, Note_off_c, 0, 71, 56
1, 339895, Note_off_c, 0, 74, 0
1, 339906, Note_on_c, 0, 50, 91
1, 339906, Note_on_c, 0, 74, 68
1, 339908, Note_on_c, 0, 45, 84
1, 339912, Note_on_c, 0, 42, 85
1, 339912, Note_on_c, 0, 81, 94
1, 339913, Note_on_c, 0, 38, 70
1, 339914, Control_c, 0, 64, 68
1, 339916, Note_on_c, 0, 69, 88
1, 339922, Note_on_c, 0, 78, 90
1, 339929, Control_c, 0, 64, 0
1, 339952, Note_off_c, 0, 38, 64
1, 339959, Control_c, 0, 64, 52
1, 339971, Note_off_c, 0, 45, 65
1, 339974, Control_c, 0, 64, 91
1, 339977, Note_off_c, 0, 42, 62
1, 339988, Control_c, 0, 64, 127
1, 340000, Note_off_c, 0, 50, 58
1, 340031, Note_off_c, 0, 74, 64
1, 340045, Note_off_c, 0, 81, 59
1, 340059, Note_off_c, 0, 69, 57
1, 340120, Note_off_c, 0, 78, 60
1, 340172, Note_on_c, 0, 52, 79
1, 340173, Note_on_c, 0, 67, 88
1, 340173, Note_on_c, 0, 76, 79
1, 340173, Note_on_c, 0, 79, 86
1, 340173, Note_on_c, 0, 47, 76
1, 340175, Note_on_c, 0, 43, 77
1, 340176, Note_on_c, 0, 73, 83
1, 340230, Note_off_c, 0, 52, 64
1, 340278, Note_off_c, 0, 67, 62
1, 340284, Note_off_c, 0, 79, 63
1, 340294, Note_off_c, 0, 47, 65
1, 340304, Note_off_c, 0, 73, 37
1, 340341, Note_off_c, 0, 76, 61
1, 340369, Note_on_c, 0, 50, 76
1, 340379, Note_on_c, 0, 45, 63
1, 340379, Note_on_c, 0, 54, 78
1, 340381, Note_on_c, 0, 81, 91
1, 340382, Note_on_c, 0, 74, 79
1, 340390, Note_on_c, 0, 69, 84
1, 340391, Note_on_c, 0, 78, 82
1, 340400, Note_off_c, 0, 43, 31
1, 340402, Note_off_c, 0, 50, 67
1, 340411, Note_off_c, 0, 45, 65
1, 340443, Note_off_c, 0, 54, 62
1, 340470, Note_off_c, 0, 69, 53
1, 340498, Note_off_c, 0, 81, 58
1, 340507, Note_off_c, 0, 74, 63
1, 340532, Note_off_c, 0, 78, 62
1, 340579, Note_on_c, 0, 47, 81
1, 340579, Note_on_c, 0, 76, 94
1, 340585, Note_on_c, 0, 52, 81
1, 340585, Note_on_c, 0, 79, 91
1, 340585, Note_on_c, 0, 55, 85
1, 340587, Note_on_c, 0, 73, 79
1, 340588, Note_on_c, 0, 67, 86
1, 340634, Note_on_c, 0, 78, 19
1, 340649, Note_off_c, 0, 52, 63
1, 340664, Note_off_c, 0, 67, 61
1, 340670, Note_off_c, 0, 55, 57
1, 340683, Note_off_c, 0, 78, 35
1, 340696, Note_off_c, 0, 73, 60
1, 340710, Note_off_c, 0, 79, 64
1, 340742, Note_off_c, 0, 76, 61
1, 340766, Note_on_c, 0, 57, 84
1, 340772, Note_on_c, 0, 54, 79
1, 340776, Note_on_c, 0, 50, 76
1, 340778, Note_on_c, 0, 74, 83
1, 340780, Note_on_c, 0, 81, 92
1, 340782, Note_on_c, 0, 69, 89
1, 340787, Note_on_c, 0, 78, 81
1, 340795, Note_off_c, 0, 47, 51
1, 340851, Note_off_c, 0, 57, 60
1, 340874, Note_off_c, 0, 54, 63
1, 340887, Note_off_c, 0, 69, 61
1, 340889, Note_off_c, 0, 74, 60
1, 340898, Note_off_c, 0, 81, 62
1, 340932, Note_off_c, 0, 78, 62
1, 340968, Note_off_c, 0, 50, 62
1, 340973, Note_on_c, 0, 52, 82
1, 340975, Note_on_c, 0, 59, 85
1, 340975, Note_on_c, 0, 76, 89
1, 340977, Note_on_c, 0, 55, 80
1, 340984, Note_on_c, 0, 73, 80
1, 340985, Note_on_c, 0, 79, 85
1, 340986, Note_on_c, 0, 67, 81
1, 341033, Note_off_c, 0, 67, 56
1, 341045, Note_off_c, 0, 55, 58
1, 341054, Note_off_c, 0, 73, 59
1, 341072, Note_off_c, 0, 59, 62
1, 341110, Note_off_c, 0, 79, 63
1, 341133, Note_off_c, 0, 76, 62
1, 341172, Note_off_c, 0, 52, 59
1, 341177, Note_on_c, 0, 54, 82
1, 341178, Note_on_c, 0, 74, 83
1, 341178, Note_on_c, 0, 81, 99
1, 341183, Note_on_c, 0, 50, 76
1, 341183, Note_on_c, 0, 57, 85
1, 341184, Note_on_c, 0, 69, 86
1, 341190, Note_on_c, 0, 78, 87
1, 341249, Note_off_c, 0, 57, 61
1, 341285, Note_off_c, 0, 69, 59
1, 341287, Note_off_c, 0, 74, 40
1, 341297, Note_off_c, 0, 81, 60
1, 341306, Note_off_c, 0, 50, 60
1, 341315, Note_off_c, 0, 54, 62
1, 341333, Note_off_c, 0, 78, 62
1, 341369, Note_on_c, 0, 55, 81
1, 341377, Note_on_c, 0, 47, 69
1, 341378, Note_on_c, 0, 76, 85
1, 341380, Note_on_c, 0, 79, 87
1, 341382, Note_on_c, 0, 67, 83
1, 341382, Note_on_c, 0, 73, 75
1, 341414, Note_off_c, 0, 55, 66
1, 341417, Note_off_c, 0, 47, 64
1, 341437, Note_off_c, 0, 67, 62
1, 341442, Note_off_c, 0, 73, 60
1, 341495, Note_off_c, 0, 79, 63
1, 341516, Note_off_c, 0, 76, 62
1, 341559, Note_on_c, 0, 50, 81
1, 341561, Note_on_c, 0, 54, 88
1, 341563, Note_on_c, 0, 74, 81
1, 341564, Note_on_c, 0, 81, 89
1, 341569, Note_on_c, 0, 69, 88
1, 341572, Note_on_c, 0, 45, 69
1, 341575, Note_on_c, 0, 78, 83
1, 341616, Note_off_c, 0, 54, 63
1, 341658, Note_off_c, 0, 50, 55
1, 341668, Note_off_c, 0, 45, 56
1, 341673, Note_off_c, 0, 69, 61
1, 341673, Note_off_c, 0, 81, 59
1, 341688, Note_off_c, 0, 74, 60
1, 341725, Note_off_c, 0, 78, 62
1, 341756, Note_on_c, 0, 47, 69
1, 341758, Note_on_c, 0, 52, 78
1, 341763, Note_on_c, 0, 43, 62
1, 341769, Note_on_c, 0, 67, 87
1, 341769, Note_on_c, 0, 76, 88
1, 341771, Note_on_c, 0, 73, 81
1, 341774, Note_on_c, 0, 79, 85
1, 341781, Note_off_c, 0, 47, 68
1, 341791, Note_off_c, 0, 43, 64
1, 341831, Note_off_c, 0, 52, 36
1, 341837, Note_off_c, 0, 73, 57
1, 341846, Note_off_c, 0, 67, 55
1, 341887, Note_off_c, 0, 79, 63
1, 341910, Note_off_c, 0, 76, 61
1, 341959, Note_on_c, 0, 50, 96
1, 341961, Note_on_c, 0, 45, 83
1, 341968, Note_on_c, 0, 81, 92
1, 341971, Note_on_c, 0, 74, 76
1, 341973, Note_on_c, 0, 38, 77
1, 341974, Note_on_c, 0, 69, 83
1, 341976, Note_on_c, 0, 42, 67
1, 341980, Note_on_c, 0, 78, 79
1, 341995, Note_on_c, 0, 41, 73
1, 342048, Note_off_c, 0, 41, 40
1, 342075, Note_off_c, 0, 69, 62
1, 342078, Note_off_c, 0, 38, 61
1, 342081, Note_off_c, 0, 42, 62
1, 342082, Note_off_c, 0, 50, 65
1, 342088, Note_off_c, 0, 81, 61
1, 342090, Note_off_c, 0, 74, 63
1, 342091, Note_off_c, 0, 45, 65
1, 342120, Note_off_c, 0, 78, 61
1, 342164, Note_on_c, 0, 76, 86
1, 342168, Note_on_c, 0, 67, 81
1, 342171, Note_on_c, 0, 79, 81
1, 342176, Note_on_c, 0, 73, 72
1, 342178, Note_on_c, 0, 52, 89
1, 342230, Note_on_c, 0, 43, 39
1, 342231, Note_off_c, 0, 52, 64
1, 342236, Note_on_c, 0, 41, 34
1, 342245, Note_off_c, 0, 67, 54
1, 342264, Note_off_c, 0, 41, 56
1, 342267, Note_off_c, 0, 73, 59
1, 342269, Note_off_c, 0, 43, 51
1, 342278, Note_off_c, 0, 79, 62
1, 342294, Poly_aftertouch_c, 0, 46, 0
1, 342297, Poly_aftertouch_c, 0, 45, 0
1, 342318, Note_off_c, 0, 76, 62
1, 342362, Note_on_c, 0, 54, 88
1, 342363, Note_on_c, 0, 74, 81
1, 342364, Note_on_c, 0, 81, 86
1, 342368, Note_on_c, 0, 69, 84
1, 342370, Note_on_c, 0, 44, 78
1, 342372, Note_on_c, 0, 78, 85
1, 342379, Note_on_c, 0, 50, 68
1, 342398, Note_off_c, 0, 44, 64
1, 342416, Note_off_c, 0, 50, 60
1, 342417, Note_on_c, 0, 45, 33
1, 342454, Note_off_c, 0, 45, 48
1, 342466, Note_off_c, 0, 54, 62
1, 342469, Note_off_c, 0, 74, 61
1, 342472, Note_off_c, 0, 69, 64
1, 342483, Note_off_c, 0, 81, 61
1, 342517, Note_off_c, 0, 78, 60
1, 342556, Note_on_c, 0, 76, 84
1, 342558, Note_on_c, 0, 55, 83
1, 342558, Note_on_c, 0, 47, 81
1, 342562, Note_on_c, 0, 79, 86
1, 342564, Note_on_c, 0, 73, 76
1, 342564, Note_on_c, 0, 67, 78
1, 342567, Note_on_c, 0, 52, 72
1, 342600, Note_off_c, 0, 52, 66
1, 342618, Note_on_c, 0, 69, 10
1, 342638, Note_off_c, 0, 67, 60
1, 342641, Note_off_c, 0, 55, 56
1, 342669, Note_off_c, 0, 73, 61
1, 342672, Note_off_c, 0, 79, 64
1, 342673, Note_off_c, 0, 69, 50
1, 342716, Note_off_c, 0, 76, 57
1, 342719, Note_off_c, 0, 47, 54
1, 342743, Note_on_c, 0, 57, 87
1, 342748, Note_on_c, 0, 54, 75
1, 342748, Note_on_c, 0, 74, 81
1, 342749, Note_on_c, 0, 69, 84
1, 342749, Note_on_c, 0, 81, 88
1, 342752, Note_on_c, 0, 78, 82
1, 342758, Note_on_c, 0, 50, 74
1, 342802, Note_off_c, 0, 57, 63
1, 342838, Note_off_c, 0, 54, 64
1, 342840, Note_off_c, 0, 74, 57
1, 342849, Note_off_c, 0, 69, 58
1, 342855, Note_off_c, 0, 81, 61
1, 342897, Note_off_c, 0, 78, 62
1, 342913, Note_off_c, 0, 50, 65
1, 342932, Note_on_c, 0, 59, 83
1, 342934, Note_on_c, 0, 52, 75
1, 342936, Note_on_c, 0, 55, 74
1, 342938, Note_on_c, 0, 76, 84
1, 342940, Note_on_c, 0, 73, 80
1, 342940, Note_on_c, 0, 67, 86
1, 342941, Note_on_c, 0, 79, 86
1, 343006, Note_off_c, 0, 67, 58
1, 343014, Note_off_c, 0, 59, 63
1, 343022, Note_off_c, 0, 55, 62
1, 343034, Note_off_c, 0, 73, 63
1, 343050, Note_off_c, 0, 79, 63
1, 343087, Note_off_c, 0, 76, 58
1, 343124, Note_on_c, 0, 81, 88
1, 343127, Note_on_c, 0, 54, 81
1, 343127, Note_on_c, 0, 74, 80
1, 343130, Note_on_c, 0, 57, 83
1, 343133, Note_on_c, 0, 69, 81
1, 343138, Note_on_c, 0, 78, 80
1, 343138, Note_off_c, 0, 52, 53
1, 343142, Note_on_c, 0, 50, 68
1, 343180, Note_on_c, 0, 71, 12
1, 343181, Note_off_c, 0, 71, 127
1, 343195, Note_off_c, 0, 57, 63
1, 343211, Note_off_c, 0, 69, 61
1, 343220, Note_off_c, 0, 74, 59
1, 343236, Note_off_c, 0, 81, 59
1, 343238, Note_off_c, 0, 54, 54
1, 343267, Note_off_c, 0, 50, 60
1, 343279, Note_off_c, 0, 78, 61
1, 343315, Note_on_c, 0, 55, 83
1, 343319, Note_on_c, 0, 76, 81
1, 343321, Note_on_c, 0, 47, 70
1, 343327, Note_on_c, 0, 67, 81
1, 343327, Note_on_c, 0, 73, 75
1, 343330, Note_on_c, 0, 79, 79
1, 343359, Note_off_c, 0, 55, 64
1, 343366, Note_off_c, 0, 47, 63
1, 343373, Note_off_c, 0, 67, 59
1, 343381, Note_off_c, 0, 73, 63
1, 343440, Note_off_c, 0, 79, 62
1, 343442, Poly_aftertouch_c, 0, 69, 0
1, 343460, Note_off_c, 0, 76, 62
1, 343507, Note_on_c, 0, 50, 79
1, 343511, Note_on_c, 0, 81, 91
1, 343513, Note_on_c, 0, 74, 81
1, 343515, Note_on_c, 0, 54, 88
1, 343516, Note_on_c, 0, 69, 88
1, 343518, Note_on_c, 0, 45, 70
1, 343521, Note_on_c, 0, 78, 82
1, 343571, Note_off_c, 0, 54, 62
1, 343593, Note_off_c, 0, 69, 57
1, 343598, Note_off_c, 0, 74, 55
1, 343603, Note_off_c, 0, 81, 62
1, 343613, Note_off_c, 0, 45, 58
1, 343613, Note_off_c, 0, 50, 57
1, 343655, Note_off_c, 0, 78, 60
1, 343697, Note_on_c, 0, 47, 64
1, 343706, Note_on_c, 0, 43, 58
1, 343706, Note_on_c, 0, 52, 68
1, 343706, Note_on_c, 0, 73, 82
1, 343709, Note_on_c, 0, 76, 76
1, 343711, Note_on_c, 0, 67, 78
1, 343711, Note_on_c, 0, 79, 81
1, 343724, Note_off_c, 0, 47, 68
1, 343735, Note_off_c, 0, 43, 60
1, 343759, Note_off_c, 0, 67, 60
1, 343761, Note_off_c, 0, 73, 64
1, 343765, Note_off_c, 0, 52, 37
1, 343786, Note_off_c, 0, 76, 58
1, 343796, Note_off_c, 0, 79, 64
1, 343846, Note_on_c, 0, 46, 29
1, 343846, Poly_aftertouch_c, 0, 78, 0
1, 343879, Control_c, 0, 64, 82
1, 343894, Note_on_c, 0, 74, 33
1, 343894, Control_c, 0, 64, 69
1, 343900, Note_on_c, 0, 50, 90
1, 343905, Note_on_c, 0, 81, 88
1, 343908, Note_on_c, 0, 69, 86
1, 343909, Control_c, 0, 64, 70
1, 343912, Note_on_c, 0, 45, 82
1, 343914, Note_on_c, 0, 78, 79
1, 343917, Note_on_c, 0, 42, 79
1, 343918, Note_on_c, 0, 38, 78
1, 343925, Control_c, 0, 64, 96
1, 343947, Note_off_c, 0, 46, 32
1, 343947, Control_c, 0, 64, 127
1, 344002, Note_off_c, 0, 38, 63
1, 344002, Note_off_c, 0, 45, 64
1, 344010, Note_off_c, 0, 50, 65
1, 344013, Note_off_c, 0, 42, 61
1, 344023, Note_off_c, 0, 74, 60
1, 344025, Note_off_c, 0, 81, 61
1, 344025, Note_off_c, 0, 69, 64
1, 344065, Note_off_c, 0, 78, 62
1, 344102, Note_on_c, 0, 76, 82
1, 344107, Note_on_c, 0, 79, 83
1, 344108, Note_on_c, 0, 52, 83
1, 344110, Note_on_c, 0, 67, 81
1, 344113, Note_on_c, 0, 73, 69
1, 344116, Note_on_c, 0, 47, 71
1, 344121, Note_on_c, 0, 43, 69
1, 344147, Note_off_c, 0, 52, 63
1, 344156, Note_off_c, 0, 73, 51
1, 344174, Note_off_c, 0, 67, 59
1, 344200, Note_off_c, 0, 79, 63
1, 344214, Note_off_c, 0, 43, 63
1, 344216, Note_off_c, 0, 47, 57
1, 344251, Note_off_c, 0, 76, 58
1, 344283, Note_on_c, 0, 74, 78
1, 344284, Note_on_c, 0, 50, 77
1, 344285, Note_on_c, 0, 54, 79
1, 344287, Note_on_c, 0, 45, 72
1, 344288, Note_on_c, 0, 69, 87
1, 344291, Note_on_c, 0, 81, 80
1, 344294, Note_on_c, 0, 78, 84
1, 344336, Note_off_c, 0, 50, 64
1, 344344, Note_off_c, 0, 45, 64
1, 344382, Note_off_c, 0, 74, 61
1, 344384, Note_off_c, 0, 69, 62
1, 344393, Note_off_c, 0, 81, 62
1, 344397, Note_off_c, 0, 54, 62
1, 344429, Note_off_c, 0, 78, 62
1, 344464, Note_on_c, 0, 47, 79
1, 344469, Note_on_c, 0, 55, 82
1, 344474, Note_on_c, 0, 76, 72
1, 344478, Note_on_c, 0, 79, 80
1, 344483, Note_on_c, 0, 67, 79
1, 344485, Note_on_c, 0, 52, 60
1, 344487, Note_on_c, 0, 73, 72
1, 344505, Note_off_c, 0, 52, 63
1, 344530, Note_off_c, 0, 55, 61
1, 344540, Note_off_c, 0, 73, 54
1, 344547, Note_off_c, 0, 67, 54
1, 344579, Note_off_c, 0, 79, 63
1, 344634, Note_off_c, 0, 47, 60
1, 344636, Note_off_c, 0, 76, 62
1, 344667, Note_on_c, 0, 54, 79
1, 344672, Note_on_c, 0, 57, 83
1, 344673, Note_on_c, 0, 74, 79
1, 344676, Note_on_c, 0, 69, 88
1, 344678, Note_on_c, 0, 81, 83
1, 344679, Note_on_c, 0, 50, 78
1, 344679, Note_on_c, 0, 78, 84
1, 344770, Note_off_c, 0, 57, 56
1, 344773, Note_off_c, 0, 74, 62
1, 344779, Note_off_c, 0, 69, 64
1, 344793, Note_off_c, 0, 54, 63
1, 344800, Note_off_c, 0, 81, 61
1, 344834, Note_off_c, 0, 50, 64
1, 344848, Note_off_c, 0, 78, 54
1, 344857, Note_on_c, 0, 59, 83
1, 344859, Note_on_c, 0, 52, 74
1, 344860, Note_on_c, 0, 55, 75
1, 344865, Note_on_c, 0, 76, 84
1, 344867, Note_on_c, 0, 73, 80
1, 344874, Note_on_c, 0, 67, 76
1, 344877, Note_on_c, 0, 79, 80
1, 344916, Note_off_c, 0, 67, 54
1, 344961, Note_off_c, 0, 59, 61
1, 344962, Note_off_c, 0, 73, 62
1, 344964, Note_off_c, 0, 55, 63
1, 344965, Note_off_c, 0, 79, 62
1, 345036, Note_off_c, 0, 76, 50
1, 345048, Note_on_c, 0, 54, 82
1, 345049, Note_on_c, 0, 74, 78
1, 345053, Note_on_c, 0, 69, 84
1, 345053, Note_on_c, 0, 81, 83
1, 345054, Note_on_c, 0, 57, 83
1, 345058, Note_on_c, 0, 78, 86
1, 345068, Note_on_c, 0, 50, 74
1, 345096, Note_off_c, 0, 52, 61
1, 345139, Note_off_c, 0, 74, 62
1, 345143, Note_off_c, 0, 57, 61
1, 345145, Note_off_c, 0, 69, 61
1, 345165, Note_off_c, 0, 81, 63
1, 345202, Note_off_c, 0, 78, 61
1, 345209, Note_off_c, 0, 50, 62
1, 345213, Note_off_c, 0, 54, 62
1, 345239, Note_on_c, 0, 76, 82
1, 345241, Note_on_c, 0, 55, 82
1, 345242, Note_on_c, 0, 73, 79
1, 345243, Note_on_c, 0, 79, 84
1, 345244, Note_on_c, 0, 67, 79
1, 345244, Note_on_c, 0, 47, 72
1, 345284, Note_off_c, 0, 47, 66
1, 345290, Note_off_c, 0, 55, 65
1, 345298, Note_off_c, 0, 67, 61
1, 345300, Note_off_c, 0, 73, 63
1, 345359, Note_off_c, 0, 79, 63
1, 345382, Note_off_c, 0, 76, 62
1, 345425, Note_on_c, 0, 50, 67
1, 345426, Note_on_c, 0, 54, 84
1, 345428, Note_on_c, 0, 69, 89
1, 345428, Note_on_c, 0, 74, 77
1, 345430, Note_on_c, 0, 81, 82
1, 345433, Note_on_c, 0, 45, 60
1, 345443, Note_on_c, 0, 78, 85
1, 345494, Note_off_c, 0, 54, 61
1, 345507, Note_off_c, 0, 74, 56
1, 345525, Note_off_c, 0, 69, 59
1, 345536, Note_off_c, 0, 81, 63
1, 345551, Note_off_c, 0, 45, 60
1, 345559, Note_off_c, 0, 50, 62
1, 345582, Note_off_c, 0, 78, 60
1, 345629, Note_on_c, 0, 52, 75
1, 345630, Note_on_c, 0, 43, 65
1, 345632, Note_on_c, 0, 73, 80
1, 345634, Note_on_c, 0, 79, 84
1, 345636, Note_on_c, 0, 67, 80
1, 345637, Note_on_c, 0, 47, 59
1, 345645, Note_on_c, 0, 76, 60
1, 345662, Note_off_c, 0, 47, 59
1, 345664, Note_off_c, 0, 76, 63
1, 345664, Note_off_c, 0, 43, 60
1, 345672, Note_off_c, 0, 67, 59
1, 345679, Note_on_c, 0, 69, 23
1, 345680, Note_off_c, 0, 73, 65
1, 345681, Note_off_c, 0, 52, 58
1, 345705, Note_off_c, 0, 79, 63
1, 345709, Note_off_c, 0, 69, 57
1, 345886, Note_on_c, 0, 38, 87
1, 345888, Note_on_c, 0, 42, 86
1, 345889, Control_c, 0, 64, 105
1, 345890, Note_on_c, 0, 81, 80
1, 345891, Note_on_c, 0, 45, 85
1, 345891, Note_on_c, 0, 50, 84
1, 345895, Note_on_c, 0, 74, 72
1, 345895, Note_on_c, 0, 78, 77
1, 345899, Note_on_c, 0, 69, 79
1, 345904, Control_c, 0, 64, 62
1, 345918, Control_c, 0, 64, 0
1, 345948, Control_c, 0, 64, 28
1, 345963, Control_c, 0, 64, 63
1, 345978, Control_c, 0, 64, 87
1, 345984, Note_off_c, 0, 69, 61
1, 345992, Control_c, 0, 64, 127
1, 345998, Note_off_c, 0, 74, 60
1, 346010, Note_off_c, 0, 38, 62
1, 346016, Note_off_c, 0, 45, 65
1, 346019, Note_off_c, 0, 50, 64
1, 346020, Note_off_c, 0, 42, 62
1, 346026, Note_off_c, 0, 78, 56
1, 346105, Note_off_c, 0, 81, 51
1, 346121, Note_on_c, 0, 79, 87
1, 346129, Note_on_c, 0, 73, 81
1, 346132, Note_on_c, 0, 71, 80
1, 346150, Note_on_c, 0, 52, 70
1, 346153, Note_on_c, 0, 55, 65
1, 346154, Note_on_c, 0, 59, 66
1, 346198, Note_off_c, 0, 59, 63
1, 346199, Note_off_c, 0, 73, 65
1, 346210, Note_off_c, 0, 71, 60
1, 346256, Note_off_c, 0, 55, 49
1, 346294, Note_off_c, 0, 52, 60
1, 346296, Note_off_c, 0, 79, 62
1, 346328, Note_on_c, 0, 54, 68
1, 346329, Note_on_c, 0, 74, 74
1, 346329, Note_on_c, 0, 78, 73
1, 346332, Note_on_c, 0, 50, 65
1, 346332, Note_on_c, 0, 69, 79
1, 346332, Note_on_c, 0, 81, 81
1, 346336, Note_on_c, 0, 57, 73
1, 346382, Note_off_c, 0, 57, 62
1, 346401, Note_off_c, 0, 69, 57
1, 346402, Note_off_c, 0, 54, 61
1, 346415, Note_off_c, 0, 74, 61
1, 346431, Note_off_c, 0, 50, 59
1, 346459, Note_off_c, 0, 78, 62
1, 346497, Note_on_c, 0, 59, 69
1, 346504, Note_on_c, 0, 52, 78
1, 346520, Note_on_c, 0, 79, 82
1, 346525, Note_off_c, 0, 59, 67
1, 346529, Note_on_c, 0, 71, 82
1, 346531, Note_on_c, 0, 73, 78
1, 346536, Note_off_c, 0, 52, 66
1, 346573, Note_off_c, 0, 81, 32
1, 346580, Note_off_c, 0, 71, 55
1, 346585, Note_off_c, 0, 73, 64
1, 346624, Poly_aftertouch_c, 0, 77, 0
1, 346688, Note_off_c, 0, 79, 62
1, 346712, Control_c, 0, 64, 89
1, 346716, Note_on_c, 0, 42, 81
1, 346718, Note_on_c, 0, 50, 88
1, 346721, Note_on_c, 0, 45, 87
1, 346722, Note_on_c, 0, 38, 75
1, 346724, Note_on_c, 0, 74, 76
1, 346724, Note_on_c, 0, 78, 83
1, 346724, Note_on_c, 0, 81, 82
1, 346725, Note_on_c, 0, 69, 81
1, 346727, Control_c, 0, 64, 74
1, 346731, Note_on_c, 0, 36, 83
1, 346741, Control_c, 0, 64, 74
1, 346756, Control_c, 0, 64, 97
1, 346763, Note_off_c, 0, 36, 49
1, 346771, Control_c, 0, 64, 127
1, 346812, Note_off_c, 0, 38, 64
1, 346812, Note_off_c, 0, 50, 59
1, 346821, Note_off_c, 0, 45, 64
1, 346826, Note_off_c, 0, 69, 61
1, 346830, Note_off_c, 0, 78, 62
1, 346831, Note_off_c, 0, 42, 62
1, 346832, Note_off_c, 0, 74, 64
1, 346919, Note_on_c, 0, 79, 84
1, 346924, Note_on_c, 0, 71, 86
1, 346926, Note_on_c, 0, 73, 82
1, 346927, Note_on_c, 0, 76, 77
1, 346940, Note_on_c, 0, 52, 74
1, 346947, Note_on_c, 0, 55, 69
1, 346954, Note_on_c, 0, 59, 68
1, 346956, Note_off_c, 0, 81, 62
1, 346975, Note_off_c, 0, 76, 57
1, 346994, Note_off_c, 0, 59, 63
1, 347020, Note_off_c, 0, 71, 56
1, 347038, Note_off_c, 0, 73, 63
1, 347084, Note_off_c, 0, 52, 62
1, 347105, Note_on_c, 0, 54, 79
1, 347111, Note_off_c, 0, 55, 60
1, 347113, Note_on_c, 0, 74, 87
1, 347115, Note_on_c, 0, 50, 75
1, 347116, Note_on_c, 0, 78, 79
1, 347119, Note_on_c, 0, 69, 90
1, 347121, Note_on_c, 0, 81, 86
1, 347125, Note_on_c, 0, 57, 77
1, 347129, Note_off_c, 0, 79, 56
1, 347167, Note_off_c, 0, 57, 62
1, 347209, Note_off_c, 0, 54, 60
1, 347211, Note_off_c, 0, 69, 62
1, 347223, Note_off_c, 0, 78, 63
1, 347228, Note_off_c, 0, 74, 64
1, 347229, Note_off_c, 0, 50, 63
1, 347286, Note_on_c, 0, 59, 61
1, 347288, Note_on_c, 0, 52, 79
1, 347305, Note_off_c, 0, 59, 67
1, 347310, Note_on_c, 0, 79, 81
1, 347313, Note_on_c, 0, 71, 84
1, 347314, Note_on_c, 0, 73, 79
1, 347314, Note_on_c, 0, 76, 77
1, 347321, Note_off_c, 0, 81, 59
1, 347323, Note_off_c, 0, 52, 65
1, 347346, Note_off_c, 0, 76, 62
1, 347380, Note_off_c, 0, 71, 58
1, 347385, Note_off_c, 0, 73, 64
1, 347476, Control_c, 0, 64, 107
1, 347488, Note_off_c, 0, 79, 58
1, 347490, Control_c, 0, 64, 65
1, 347498, Note_on_c, 0, 38, 82
1, 347500, Note_on_c, 0, 45, 82
1, 347501, Note_on_c, 0, 42, 79
1, 347501, Note_on_c, 0, 50, 88
1, 347505, Control_c, 0, 64, 38
1, 347510, Note_on_c, 0, 74, 75
1, 347510, Note_on_c, 0, 78, 74
1, 347512, Note_on_c, 0, 69, 82
1, 347514, Note_on_c, 0, 81, 79
1, 347520, Control_c, 0, 64, 37
1, 347535, Control_c, 0, 64, 57
1, 347550, Control_c, 0, 64, 84
1, 347557, Note_off_c, 0, 50, 59
1, 347564, Control_c, 0, 64, 127
1, 347590, Note_off_c, 0, 38, 63
1, 347602, Note_off_c, 0, 45, 65
1, 347602, Note_off_c, 0, 78, 62
1, 347603, Note_off_c, 0, 74, 65
1, 347614, Note_off_c, 0, 69, 59
1, 347616, Note_off_c, 0, 42, 62
1, 347702, Note_on_c, 0, 79, 81
1, 347708, Note_on_c, 0, 71, 81
1, 347709, Note_on_c, 0, 76, 77
1, 347710, Note_on_c, 0, 73, 76
1, 347717, Note_on_c, 0, 52, 78
1, 347729, Note_on_c, 0, 55, 67
1, 347733, Note_on_c, 0, 59, 65
1, 347736, Note_off_c, 0, 81, 63
1, 347758, Note_off_c, 0, 76, 62
1, 347759, Note_off_c, 0, 59, 67
1, 347793, Note_off_c, 0, 71, 61
1, 347810, Note_off_c, 0, 73, 64
1, 347881, Note_off_c, 0, 52, 61
1, 347884, Note_on_c, 0, 54, 79
1, 347891, Note_on_c, 0, 74, 81
1, 347891, Note_off_c, 0, 79, 64
1, 347893, Note_on_c, 0, 78, 74
1, 347893, Note_on_c, 0, 81, 85
1, 347897, Note_on_c, 0, 57, 81
1, 347898, Note_on_c, 0, 69, 82
1, 347899, Note_on_c, 0, 50, 63
1, 347943, Note_off_c, 0, 55, 40
1, 347961, Note_off_c, 0, 57, 62
1, 347980, Note_off_c, 0, 78, 64
1, 347988, Note_off_c, 0, 69, 61
1, 347992, Note_off_c, 0, 54, 37
1, 347999, Note_off_c, 0, 74, 65
1, 348001, Note_off_c, 0, 50, 61
1, 348067, Note_on_c, 0, 59, 67
1, 348072, Note_on_c, 0, 55, 61
1, 348073, Note_on_c, 0, 52, 77
1, 348086, Note_off_c, 0, 59, 69
1, 348087, Note_on_c, 0, 79, 85
1, 348091, Note_on_c, 0, 71, 80
1, 348091, Note_on_c, 0, 76, 71
1, 348092, Note_on_c, 0, 73, 75
1, 348094, Note_off_c, 0, 55, 65
1, 348105, Note_off_c, 0, 52, 67
1, 348117, Note_off_c, 0, 81, 63
1, 348120, Note_off_c, 0, 76, 66
1, 348153, Note_off_c, 0, 71, 59
1, 348165, Note_off_c, 0, 73, 52
1, 348284, Note_off_c, 0, 79, 58
1, 348285, Control_c, 0, 64, 91
1, 348300, Control_c, 0, 64, 53
1, 348309, Note_on_c, 0, 38, 84
1, 348314, Note_on_c, 0, 50, 88
1, 348314, Control_c, 0, 64, 0
1, 348315, Note_on_c, 0, 42, 82
1, 348318, Note_on_c, 0, 45, 82
1, 348319, Note_on_c, 0, 81, 78
1, 348323, Note_on_c, 0, 69, 72
1, 348324, Note_on_c, 0, 78, 65
1, 348333, Note_on_c, 0, 74, 61
1, 348356, Note_off_c, 0, 50, 67
1, 348359, Control_c, 0, 64, 37
1, 348374, Control_c, 0, 64, 65
1, 348383, Note_off_c, 0, 74, 55
1, 348389, Control_c, 0, 64, 88
1, 348404, Control_c, 0, 64, 127
1, 348404, Note_off_c, 0, 45, 63
1, 348407, Note_off_c, 0, 78, 52
1, 348409, Note_off_c, 0, 38, 64
1, 348411, Note_off_c, 0, 69, 43
1, 348427, Note_off_c, 0, 42, 61
1, 348541, Note_off_c, 0, 81, 64
1, 348547, Note_on_c, 0, 73, 63
1, 348547, Note_on_c, 0, 79, 68
1, 348556, Note_on_c, 0, 71, 51
1, 348577, Note_on_c, 0, 52, 50
1, 348589, Note_on_c, 0, 55, 39
1, 348591, Note_off_c, 0, 73, 63
1, 348592, Note_off_c, 0, 71, 51
1, 348656, Poly_aftertouch_c, 0, 59, 0
1, 348675, Note_off_c, 0, 52, 60
1, 348715, Note_off_c, 0, 79, 64
1, 348721, Note_on_c, 0, 78, 62
1, 348723, Note_off_c, 0, 55, 29
1, 348726, Note_on_c, 0, 69, 72
1, 348728, Note_on_c, 0, 74, 62
1, 348729, Note_on_c, 0, 81, 68
1, 348738, Note_on_c, 0, 50, 53
1, 348746, Note_on_c, 0, 54, 44
1, 348775, Note_on_c, 0, 57, 13
1, 348794, Note_off_c, 0, 69, 59
1, 348803, Note_off_c, 0, 57, 0
1, 348806, Note_off_c, 0, 54, 54
1, 348807, Note_off_c, 0, 74, 64
1, 348809, Note_off_c, 0, 78, 60
1, 348822, Poly_aftertouch_c, 0, 57, 0
1, 348827, Note_off_c, 0, 50, 53
1, 348895, Note_off_c, 0, 81, 53
1, 348916, Note_on_c, 0, 79, 69
1, 348920, Note_on_c, 0, 71, 62
1, 348922, Note_on_c, 0, 73, 65
1, 348922, Note_on_c, 0, 52, 59
1, 348927, Note_on_c, 0, 59, 46
1, 348928, Note_on_c, 0, 55, 47
1, 348932, Note_on_c, 0, 76, 42
1, 348952, Note_off_c, 0, 59, 57
1, 348961, Note_off_c, 0, 76, 50
1, 348970, Note_off_c, 0, 71, 60
1, 348971, Note_off_c, 0, 73, 52
1, 349000, Note_off_c, 0, 55, 42
1, 349046, Note_off_c, 0, 52, 57
1, 349087, Note_off_c, 0, 79, 62
1, 349101, Note_on_c, 0, 78, 61
1, 349105, Note_on_c, 0, 57, 58
1, 349110, Note_on_c, 0, 81, 64
1, 349110, Note_on_c, 0, 69, 61
1, 349111, Note_on_c, 0, 50, 52
1, 349119, Note_on_c, 0, 54, 48
1, 349123, Note_on_c, 0, 74, 47
1, 349158, Note_off_c, 0, 74, 63
1, 349167, Note_off_c, 0, 57, 60
1, 349172, Note_off_c, 0, 69, 56
1, 349172, Note_off_c, 0, 78, 59
1, 349223, Note_off_c, 0, 54, 41
1, 349228, Note_off_c, 0, 50, 34
1, 349289, Note_off_c, 0, 81, 35
1, 349313, Note_on_c, 0, 79, 62
1, 349319, Note_on_c, 0, 71, 51
1, 349321, Note_on_c, 0, 73, 50
1, 349321, Note_on_c, 0, 76, 33
1, 349322, Note_on_c, 0, 55, 46
1, 349326, Note_on_c, 0, 52, 50
1, 349331, Note_on_c, 0, 59, 16
1, 349355, Note_off_c, 0, 76, 43
1, 349366, Note_off_c, 0, 73, 58
1, 349373, Note_off_c, 0, 71, 57
1, 349374, Note_off_c, 0, 59, 40
1, 349390, Note_off_c, 0, 55, 49
1, 349420, Note_off_c, 0, 52, 56
1, 349487, Note_off_c, 0, 79, 63
1, 349511, Note_on_c, 0, 57, 47
1, 349516, Note_on_c, 0, 81, 50
1, 349521, Note_on_c, 0, 69, 55
1, 349523, Note_on_c, 0, 74, 44
1, 349524, Note_on_c, 0, 50, 42
1, 349525, Note_on_c, 0, 78, 42
1, 349539, Note_on_c, 0, 54, 31
1, 349554, Note_off_c, 0, 78, 55
1, 349556, Note_off_c, 0, 57, 52
1, 349565, Note_off_c, 0, 50, 50
1, 349569, Note_off_c, 0, 74, 64
1, 349578, Note_off_c, 0, 54, 51
1, 349618, Note_off_c, 0, 69, 36
1, 349730, Note_off_c, 0, 81, 32
1, 349739, Note_on_c, 0, 52, 46
1, 349748, Note_on_c, 0, 55, 39
1, 349749, Note_on_c, 0, 79, 50
1, 349756, Note_on_c, 0, 71, 43
1, 349760, Note_on_c, 0, 73, 47
1, 349830, Note_off_c, 0, 71, 57
1, 349836, Note_off_c, 0, 73, 60
1, 349956, Note_off_c, 0, 55, 32
1, 349977, Note_off_c, 0, 52, 43
1, 349999, Note_off_c, 0, 79, 60
1, 350036, Note_on_c, 0, 50, 34
1, 350038, Note_on_c, 0, 81, 42
1, 350047, Note_on_c, 0, 54, 39
1, 350049, Note_on_c, 0, 57, 37
1, 350050, Note_on_c, 0, 74, 36
1, 350065, Note_on_c, 0, 69, 46
1, 350068, Note_on_c, 0, 78, 38
1, 350341, Note_off_c, 0, 57, 52
1, 350383, Note_off_c, 0, 50, 54
1, 350395, Note_off_c, 0, 54, 59
1, 350455, Note_off_c, 0, 69, 36
1, 350475, Note_off_c, 0, 74, 42
1, 350479, Note_off_c, 0, 78, 55
1, 350479, Note_off_c, 0, 81, 53
1, 350687, Control_c, 0, 67, 11
1, 350702, Control_c, 0, 67, 15
1, 350716, Control_c, 0, 67, 15
1, 350731, Control_c, 0, 67, 16
1, 350746, Control_c, 0, 67, 17
1, 350761, Control_c, 0, 67, 18
1, 350776, Control_c, 0, 67, 22
1, 350790, Control_c, 0, 67, 24
1, 350850, Control_c, 0, 67, 25
1, 350864, Control_c, 0, 67, 26
1, 350879, Control_c, 0, 67, 26
1, 350894, Control_c, 0, 67, 27
1, 350938, Control_c, 0, 67, 28
1, 350953, Control_c, 0, 67, 33
1, 350968, Control_c, 0, 67, 42
1, 350982, Control_c, 0, 67, 52
1, 350997, Control_c, 0, 67, 59
1, 351012, Control_c, 0, 67, 64
1, 351027, Control_c, 0, 67, 68
1, 351042, Control_c, 0, 67, 72
1, 351057, Control_c, 0, 67, 78
1, 351071, Control_c, 0, 67, 87
1, 351086, Control_c, 0, 67, 97
1, 351102, Control_c, 0, 67, 108
1, 351117, Control_c, 0, 67, 116
1, 351131, Control_c, 0, 64, 101
1, 351131, Control_c, 0, 67, 127
1, 351146, Control_c, 0, 64, 74
1, 351146, Control_c, 0, 67, 127
1, 351161, Control_c, 0, 64, 58
1, 351176, Control_c, 0, 64, 27
1, 351191, Control_c, 0, 64, 0
1, 351325, Note_on_c, 0, 62, 57
1, 351331, Note_on_c, 0, 60, 47
1, 351334, Note_on_c, 0, 57, 46
1, 351347, Note_off_c, 0, 62, 64
1, 351358, Note_off_c, 0, 60, 54
1, 351362, Note_off_c, 0, 57, 56
1, 351414, Note_on_c, 0, 58, 45
1, 351417, Note_on_c, 0, 55, 34
1, 351420, Note_on_c, 0, 62, 40
1, 351447, Note_off_c, 0, 58, 55
1, 351459, Note_off_c, 0, 62, 49
1, 351460, Note_off_c, 0, 55, 46
1, 351491, Note_on_c, 0, 60, 46
1, 351502, Note_on_c, 0, 57, 41
1, 351512, Note_on_c, 0, 62, 50
1, 351525, Note_off_c, 0, 60, 63
1, 351533, Note_off_c, 0, 57, 58
1, 351536, Note_off_c, 0, 62, 58
1, 351584, Note_on_c, 0, 55, 41
1, 351584, Note_on_c, 0, 62, 59
1, 351594, Poly_aftertouch_c, 0, 58, 127
1, 351606, Note_off_c, 0, 62, 65
1, 351616, Note_off_c, 0, 55, 54
1, 351619, Poly_aftertouch_c, 0, 58, 0
1, 351654, Note_on_c, 0, 60, 54
1, 351657, Note_on_c, 0, 57, 48
1, 351665, Note_on_c, 0, 64, 59
1, 351676, Note_on_c, 0, 67, 55
1, 351684, Note_off_c, 0, 60, 64
1, 351688, Note_off_c, 0, 57, 61
1, 351693, Note_off_c, 0, 64, 66
1, 351697, Note_off_c, 0, 67, 62
1, 351736, Note_on_c, 0, 62, 45
1, 351743, Note_on_c, 0, 55, 41
1, 351749, Note_on_c, 0, 58, 51
1, 351774, Note_off_c, 0, 62, 66
1, 351781, Note_off_c, 0, 58, 66
1, 351783, Note_off_c, 0, 55, 53
1, 351814, Note_on_c, 0, 57, 51
1, 351814, Note_on_c, 0, 64, 51
1, 351815, Note_on_c, 0, 60, 50
1, 351818, Note_on_c, 0, 67, 45
1, 351849, Note_off_c, 0, 60, 62
1, 351849, Note_off_c, 0, 64, 64
1, 351853, Note_off_c, 0, 57, 61
1, 351855, Note_off_c, 0, 67, 63
1, 351865, Control_c, 0, 64, 12
1, 351880, Control_c, 0, 64, 32
1, 351885, Note_on_c, 0, 62, 62
1, 351895, Control_c, 0, 64, 39
1, 351901, Note_on_c, 0, 58, 42
1, 351911, Control_c, 0, 64, 34
1, 351915, Note_on_c, 0, 55, 24
1, 351926, Note_off_c, 0, 62, 67
1, 351926, Control_c, 0, 64, 0
1, 351933, Note_off_c, 0, 58, 65
1, 351957, Note_off_c, 0, 55, 40
1, 351976, Note_on_c, 0, 57, 52
1, 351977, Note_on_c, 0, 60, 52
1, 351978, Note_on_c, 0, 62, 65
1, 352001, Note_off_c, 0, 60, 59
1, 352001, Note_off_c, 0, 57, 61
1, 352028, Note_off_c, 0, 62, 0
1, 352051, Note_on_c, 0, 58, 28
1, 352055, Note_on_c, 0, 55, 49
1, 352065, Poly_aftertouch_c, 0, 62, 127
1, 352076, Poly_aftertouch_c, 0, 62, 0
1, 352082, Note_off_c, 0, 58, 56
1, 352082, Note_off_c, 0, 55, 57
1, 352133, Control_c, 0, 64, 32
1, 352143, Note_on_c, 0, 62, 65
1, 352147, Note_on_c, 0, 57, 40
1, 352148, Control_c, 0, 64, 37
1, 352158, Poly_aftertouch_c, 0, 60, 127
1, 352162, Control_c, 0, 64, 33
1, 352169, Note_off_c, 0, 62, 66
1, 352185, Control_c, 0, 64, 18
1, 352189, Note_off_c, 0, 57, 53
1, 352200, Control_c, 0, 64, 0
1, 352209, Note_on_c, 0, 58, 39
1, 352212, Poly_aftertouch_c, 0, 60, 0
1, 352219, Note_on_c, 0, 55, 29
1, 352238, Poly_aftertouch_c, 0, 62, 0
1, 352249, Note_off_c, 0, 58, 63
1, 352256, Note_off_c, 0, 55, 46
1, 352259, Control_c, 0, 64, 26
1, 352274, Control_c, 0, 64, 54
1, 352289, Control_c, 0, 64, 66
1, 352303, Note_on_c, 0, 60, 60
1, 352304, Control_c, 0, 64, 68
1, 352308, Note_on_c, 0, 69, 62
1, 352316, Note_on_c, 0, 57, 41
1, 352317, Note_on_c, 0, 65, 51
1, 352318, Control_c, 0, 64, 68
1, 352332, Note_off_c, 0, 60, 63
1, 352335, Note_off_c, 0, 69, 64
1, 352341, Note_off_c, 0, 65, 58
1, 352348, Control_c, 0, 64, 69
1, 352350, Note_off_c, 0, 57, 50
1, 352362, Control_c, 0, 64, 69
1, 352370, Note_on_c, 0, 58, 33
1, 352377, Control_c, 0, 64, 67
1, 352385, Note_on_c, 0, 62, 54
1, 352392, Control_c, 0, 64, 60
1, 352398, Note_on_c, 0, 55, 9
1, 352407, Control_c, 0, 64, 50
1, 352408, Note_off_c, 0, 58, 57
1, 352408, Note_off_c, 0, 62, 61
1, 352422, Control_c, 0, 64, 36
1, 352437, Control_c, 0, 64, 21
1, 352446, Note_off_c, 0, 55, 38
1, 352452, Note_on_c, 0, 65, 49
1, 352452, Control_c, 0, 64, 0
1, 352454, Note_on_c, 0, 60, 52
1, 352456, Note_on_c, 0, 57, 52
1, 352456, Note_on_c, 0, 69, 53
1, 352490, Note_off_c, 0, 60, 62
1, 352491, Note_off_c, 0, 57, 62
1, 352493, Note_off_c, 0, 69, 63
1, 352501, Note_off_c, 0, 65, 63
1, 352527, Note_on_c, 0, 62, 51
1, 352539, Note_on_c, 0, 58, 42
1, 352541, Note_on_c, 0, 55, 47
1, 352568, Note_off_c, 0, 62, 65
1, 352572, Note_off_c, 0, 55, 54
1, 352573, Note_off_c, 0, 58, 66
1, 352585, Control_c, 0, 64, 46
1, 352600, Control_c, 0, 64, 62
1, 352612, Note_on_c, 0, 60, 51
1, 352615, Control_c, 0, 64, 68
1, 352616, Note_on_c, 0, 57, 53
1, 352620, Note_on_c, 0, 62, 59
1, 352629, Control_c, 0, 64, 70
1, 352644, Control_c, 0, 64, 72
1, 352645, Note_off_c, 0, 60, 59
1, 352648, Note_off_c, 0, 62, 67
1, 352650, Note_off_c, 0, 57, 61
1, 352659, Control_c, 0, 64, 74
1, 352674, Control_c, 0, 64, 76
1, 352688, Control_c, 0, 64, 78
1, 352694, Note_on_c, 0, 58, 29
1, 352696, Note_on_c, 0, 55, 28
1, 352705, Control_c, 0, 64, 80
1, 352714, Note_on_c, 0, 62, 48
1, 352720, Control_c, 0, 64, 80
1, 352732, Note_off_c, 0, 58, 53
1, 352734, Control_c, 0, 64, 81
1, 352736, Note_off_c, 0, 55, 52
1, 352737, Note_off_c, 0, 62, 61
1, 352749, Control_c, 0, 64, 83
1, 352764, Control_c, 0, 64, 86
1, 352778, Control_c, 0, 64, 91
1, 352779, Note_on_c, 0, 57, 54
1, 352781, Note_on_c, 0, 60, 32
1, 352784, Note_on_c, 0, 62, 66
1, 352793, Control_c, 0, 64, 94
1, 352808, Control_c, 0, 64, 96
1, 352818, Note_off_c, 0, 57, 60
1, 352821, Note_off_c, 0, 60, 47
1, 352844, Note_on_c, 0, 58, 46
1, 352848, Note_on_c, 0, 55, 45
1, 352852, Control_c, 0, 64, 93
1, 352867, Control_c, 0, 64, 79
1, 352875, Note_off_c, 0, 55, 57
1, 352881, Note_off_c, 0, 62, 58
1, 352882, Control_c, 0, 64, 63
1, 352883, Note_off_c, 0, 58, 63
1, 352896, Control_c, 0, 64, 46
1, 352910, Control_c, 0, 64, 26
1, 352922, Note_on_c, 0, 57, 60
1, 352932, Note_on_c, 0, 60, 52
1, 352932, Control_c, 0, 64, 27
1, 352940, Note_on_c, 0, 67, 66
1, 352943, Note_on_c, 0, 64, 60
1, 352947, Control_c, 0, 64, 41
1, 352962, Control_c, 0, 64, 56
1, 352969, Note_off_c, 0, 57, 60
1, 352969, Note_off_c, 0, 60, 62
1, 352973, Note_off_c, 0, 64, 65
1, 352977, Control_c, 0, 64, 66
1, 352979, Note_off_c, 0, 67, 62
1, 352991, Control_c, 0, 64, 73
1, 353006, Control_c, 0, 64, 77
1, 353021, Control_c, 0, 64, 79
1, 353026, Note_on_c, 0, 62, 54
1, 353036, Note_on_c, 0, 58, 33
1, 353039, Note_on_c, 0, 55, 18
1, 353053, Note_off_c, 0, 62, 58
1, 353069, Note_off_c, 0, 58, 52
1, 353084, Note_off_c, 0, 55, 54
1, 353090, Note_on_c, 0, 60, 55
1, 353091, Note_on_c, 0, 64, 52
1, 353098, Note_on_c, 0, 57, 49
1, 353110, Note_on_c, 0, 67, 42
1, 353124, Note_off_c, 0, 57, 59
1, 353125, Note_off_c, 0, 60, 59
1, 353128, Note_off_c, 0, 64, 63
1, 353137, Note_off_c, 0, 67, 55
1, 353140, Control_c, 0, 64, 78
1, 353155, Control_c, 0, 64, 72
1, 353170, Control_c, 0, 64, 63
1, 353170, Note_on_c, 0, 62, 56
1, 353177, Note_on_c, 0, 58, 46
1, 353179, Note_on_c, 0, 55, 49
1, 353184, Control_c, 0, 64, 44
1, 353199, Control_c, 0, 64, 0
1, 353208, Note_off_c, 0, 55, 54
1, 353209, Note_off_c, 0, 62, 65
1, 353212, Note_off_c, 0, 58, 65
1, 353263, Note_on_c, 0, 57, 45
1, 353265, Note_on_c, 0, 62, 69
1, 353270, Note_on_c, 0, 60, 38
1, 353273, Control_c, 0, 64, 32
1, 353288, Control_c, 0, 64, 55
1, 353295, Note_off_c, 0, 57, 58
1, 353302, Note_off_c, 0, 60, 46
1, 353302, Control_c, 0, 64, 64
1, 353310, Note_off_c, 0, 62, 0
1, 353317, Control_c, 0, 64, 67
1, 353326, Note_on_c, 0, 55, 42
1, 353331, Note_on_c, 0, 58, 31
1, 353332, Control_c, 0, 64, 68
1, 353347, Control_c, 0, 64, 68
1, 353348, Poly_aftertouch_c, 0, 62, 127
1, 353362, Note_off_c, 0, 55, 53
1, 353362, Control_c, 0, 64, 69
1, 353364, Note_off_c, 0, 58, 56
1, 353366, Poly_aftertouch_c, 0, 62, 0
1, 353376, Control_c, 0, 64, 69
1, 353406, Control_c, 0, 64, 70
1, 353414, Note_on_c, 0, 60, 41
1, 353417, Note_on_c, 0, 62, 73
1, 353421, Control_c, 0, 64, 70
1, 353427, Note_on_c, 0, 57, 36
1, 353436, Control_c, 0, 64, 72
1, 353447, Note_off_c, 0, 60, 53
1, 353450, Control_c, 0, 64, 74
1, 353462, Note_off_c, 0, 57, 49
1, 353463, Note_off_c, 0, 62, 0
1, 353465, Control_c, 0, 64, 75
1, 353476, Note_on_c, 0, 58, 39
1, 353480, Note_on_c, 0, 55, 41
1, 353495, Control_c, 0, 64, 74
1, 353501, Poly_aftertouch_c, 0, 62, 127
1, 353509, Note_off_c, 0, 58, 56
1, 353511, Control_c, 0, 64, 66
1, 353512, Poly_aftertouch_c, 0, 62, 0
1, 353524, Note_off_c, 0, 55, 47
1, 353525, Control_c, 0, 64, 55
1, 353540, Control_c, 0, 64, 37
1, 353555, Control_c, 0, 64, 19
1, 353570, Control_c, 0, 64, 21
1, 353573, Note_on_c, 0, 57, 57
1, 353573, Note_on_c, 0, 60, 54
1, 353576, Note_on_c, 0, 69, 62
1, 353578, Note_on_c, 0, 65, 60
1, 353585, Control_c, 0, 64, 40
1, 353596, Note_off_c, 0, 60, 59
1, 353599, Note_off_c, 0, 57, 59
1, 353599, Control_c, 0, 64, 57
1, 353614, Note_off_c, 0, 65, 62
1, 353614, Control_c, 0, 64, 66
1, 353616, Note_off_c, 0, 69, 62
1, 353629, Control_c, 0, 64, 71
1, 353644, Control_c, 0, 64, 74
1, 353649, Note_on_c, 0, 58, 29
1, 353651, Note_on_c, 0, 62, 63
1, 353659, Control_c, 0, 64, 74
1, 353681, Control_c, 0, 64, 75
1, 353683, Note_off_c, 0, 62, 62
1, 353696, Note_off_c, 0, 58, 63
1, 353699, Note_on_c, 0, 55, 7
1, 353706, Note_on_c, 0, 60, 25
1, 353725, Control_c, 0, 64, 76
1, 353736, Note_on_c, 0, 57, 48
1, 353738, Note_on_c, 0, 69, 67
1, 353740, Control_c, 0, 64, 78
1, 353745, Note_off_c, 0, 60, 62
1, 353747, Note_off_c, 0, 55, 52
1, 353750, Note_on_c, 0, 65, 46
1, 353755, Control_c, 0, 64, 81
1, 353762, Note_off_c, 0, 57, 57
1, 353770, Control_c, 0, 64, 84
1, 353772, Note_off_c, 0, 65, 59
1, 353773, Note_off_c, 0, 69, 62
1, 353785, Control_c, 0, 64, 86
1, 353799, Control_c, 0, 64, 87
1, 353818, Note_on_c, 0, 62, 57
1, 353829, Note_on_c, 0, 58, 42
1, 353838, Note_on_c, 0, 55, 61
1, 353844, Control_c, 0, 64, 80
1, 353858, Note_off_c, 0, 62, 65
1, 353859, Control_c, 0, 64, 66
1, 353860, Note_off_c, 0, 58, 62
1, 353873, Note_off_c, 0, 55, 64
1, 353873, Control_c, 0, 64, 46
1, 353888, Control_c, 0, 64, 0
1, 353891, Note_on_c, 0, 70, 69
1, 353902, Note_on_c, 0, 62, 53
1, 353904, Note_on_c, 0, 72, 44
1, 353909, Note_on_c, 0, 67, 33
1, 353915, Note_off_c, 0, 70, 67
1, 353928, Note_on_c, 0, 60, 25
1, 353929, Note_off_c, 0, 62, 54
1, 353930, Note_off_c, 0, 72, 35
1, 353944, Note_off_c, 0, 67, 31
1, 353961, Note_on_c, 0, 58, 42
1, 353969, Note_off_c, 0, 60, 30
1, 353977, Note_on_c, 0, 62, 59
1, 353981, Note_on_c, 0, 55, 34
1, 354009, Note_off_c, 0, 62, 65
1, 354012, Note_off_c, 0, 58, 64
1, 354014, Note_off_c, 0, 55, 55
1, 354017, Note_on_c, 0, 70, 53
1, 354052, Note_on_c, 0, 69, 62
1, 354055, Note_on_c, 0, 60, 45
1, 354057, Note_off_c, 0, 70, 62
1, 354083, Note_off_c, 0, 69, 65
1, 354085, Note_off_c, 0, 60, 63
1, 354095, Note_on_c, 0, 65, 13
1, 354118, Note_on_c, 0, 62, 30
1, 354120, Note_on_c, 0, 55, 53
1, 354121, Note_off_c, 0, 65, 45
1, 354134, Note_on_c, 0, 58, 43
1, 354157, Note_off_c, 0, 62, 63
1, 354161, Note_off_c, 0, 55, 62
1, 354162, Note_off_c, 0, 58, 62
1, 354181, Note_on_c, 0, 60, 61
1, 354192, Note_on_c, 0, 67, 65
1, 354192, Note_on_c, 0, 69, 52
1, 354194, Note_on_c, 0, 64, 48
1, 354228, Note_off_c, 0, 64, 63
1, 354229, Note_off_c, 0, 69, 65
1, 354231, Note_off_c, 0, 60, 60
1, 354231, Note_off_c, 0, 67, 63
1, 354274, Note_on_c, 0, 62, 59
1, 354276, Note_on_c, 0, 58, 36
1, 354288, Note_on_c, 0, 55, 35
1, 354305, Note_off_c, 0, 62, 60
1, 354315, Note_off_c, 0, 58, 59
1, 354321, Note_off_c, 0, 55, 58
1, 354341, Note_on_c, 0, 67, 54
1, 354347, Note_on_c, 0, 60, 62
1, 354353, Note_on_c, 0, 65, 54
1, 354364, Note_on_c, 0, 62, 43
1, 354385, Note_off_c, 0, 67, 58
1, 354386, Note_off_c, 0, 60, 57
1, 354386, Note_off_c, 0, 65, 64
1, 354390, Note_off_c, 0, 62, 54
1, 354430, Control_c, 0, 64, 26
1, 354445, Control_c, 0, 64, 54
1, 354449, Note_on_c, 0, 58, 49
1, 354452, Note_on_c, 0, 62, 62
1, 354460, Control_c, 0, 64, 64
1, 354461, Note_on_c, 0, 55, 35
1, 354473, Note_off_c, 0, 62, 63
1, 354474, Note_off_c, 0, 58, 63
1, 354475, Control_c, 0, 64, 69
1, 354490, Control_c, 0, 64, 73
1, 354498, Note_off_c, 0, 55, 43
1, 354502, Note_on_c, 0, 64, 79
1, 354503, Note_on_c, 0, 65, 50
1, 354504, Control_c, 0, 64, 78
1, 354517, Note_on_c, 0, 62, 58
1, 354519, Control_c, 0, 64, 83
1, 354527, Note_off_c, 0, 65, 59
1, 354534, Control_c, 0, 64, 86
1, 354536, Note_on_c, 0, 60, 44
1, 354536, Note_off_c, 0, 62, 66
1, 354538, Note_off_c, 0, 64, 62
1, 354548, Control_c, 0, 64, 89
1, 354563, Control_c, 0, 64, 90
1, 354564, Note_off_c, 0, 60, 53
1, 354578, Control_c, 0, 64, 91
1, 354592, Note_on_c, 0, 62, 78
1, 354601, Note_on_c, 0, 58, 42
1, 354606, Note_on_c, 0, 55, 47
1, 354616, Note_off_c, 0, 62, 66
1, 354623, Control_c, 0, 64, 90
1, 354631, Note_off_c, 0, 55, 61
1, 354631, Note_off_c, 0, 58, 60
1, 354637, Control_c, 0, 64, 84
1, 354652, Control_c, 0, 64, 75
1, 354660, Note_on_c, 0, 60, 61
1, 354664, Note_on_c, 0, 64, 63
1, 354667, Control_c, 0, 64, 66
1, 354682, Control_c, 0, 64, 59
1, 354684, Note_on_c, 0, 62, 55
1, 354691, Note_on_c, 0, 65, 3
1, 354696, Note_off_c, 0, 64, 62
1, 354696, Control_c, 0, 64, 51
1, 354702, Note_off_c, 0, 62, 66
1, 354702, Note_off_c, 0, 60, 63
1, 354705, Note_off_c, 0, 65, 42
1, 354711, Control_c, 0, 64, 46
1, 354726, Control_c, 0, 64, 41
1, 354741, Control_c, 0, 64, 34
1, 354747, Note_on_c, 0, 58, 37
1, 354756, Note_on_c, 0, 55, 36
1, 354756, Control_c, 0, 64, 19
1, 354765, Note_on_c, 0, 62, 55
1, 354771, Control_c, 0, 64, 0
1, 354780, Note_off_c, 0, 58, 59
1, 354788, Note_off_c, 0, 55, 52
1, 354792, Note_off_c, 0, 62, 37
1, 354810, Note_on_c, 0, 65, 69
1, 354814, Note_on_c, 0, 60, 68
1, 354821, Note_on_c, 0, 64, 60
1, 354848, Note_off_c, 0, 65, 62
1, 354853, Note_off_c, 0, 60, 61
1, 354861, Note_off_c, 0, 64, 63
1, 354898, Note_on_c, 0, 62, 61
1, 354899, Note_on_c, 0, 58, 46
1, 354911, Note_on_c, 0, 55, 39
1, 354924, Note_off_c, 0, 62, 67
1, 354936, Note_off_c, 0, 58, 64
1, 354941, Note_off_c, 0, 55, 58
1, 354964, Control_c, 0, 64, 15
1, 354976, Note_on_c, 0, 65, 54
1, 354978, Note_on_c, 0, 64, 62
1, 354979, Control_c, 0, 64, 42
1, 354982, Note_on_c, 0, 60, 55
1, 354994, Control_c, 0, 64, 59
1, 355006, Note_on_c, 0, 62, 44
1, 355006, Note_off_c, 0, 65, 64
1, 355009, Control_c, 0, 64, 65
1, 355020, Note_off_c, 0, 60, 56
1, 355021, Note_off_c, 0, 64, 64
1, 355023, Control_c, 0, 64, 67
1, 355038, Control_c, 0, 64, 68
1, 355053, Control_c, 0, 64, 68
1, 355061, Note_off_c, 0, 62, 0
1, 355061, Note_on_c, 0, 62, 47
1, 355066, Note_on_c, 0, 58, 42
1, 355067, Note_on_c, 0, 55, 38
1, 355068, Control_c, 0, 64, 68
1, 355082, Control_c, 0, 64, 66
1, 355090, Note_off_c, 0, 62, 65
1, 355096, Note_off_c, 0, 58, 60
1, 355099, Control_c, 0, 64, 60
1, 355102, Note_off_c, 0, 55, 60
1, 355114, Control_c, 0, 64, 50
1, 355128, Control_c, 0, 64, 38
1, 355131, Note_on_c, 0, 65, 59
1, 355134, Note_on_c, 0, 67, 61
1, 355143, Control_c, 0, 64, 25
1, 355152, Note_on_c, 0, 62, 51
1, 355155, Note_on_c, 0, 60, 35
1, 355158, Control_c, 0, 64, 9
1, 355178, Note_off_c, 0, 67, 61
1, 355179, Control_c, 0, 64, 0
1, 355185, Note_off_c, 0, 62, 58
1, 355194, Note_off_c, 0, 60, 48
1, 355203, Note_off_c, 0, 65, 59
1, 355234, Note_on_c, 0, 62, 62
1, 355236, Note_on_c, 0, 55, 36
1, 355237, Note_on_c, 0, 58, 31
1, 355262, Note_off_c, 0, 62, 66
1, 355270, Note_off_c, 0, 58, 56
1, 355272, Note_off_c, 0, 55, 56
1, 355301, Note_on_c, 0, 67, 59
1, 355310, Note_on_c, 0, 65, 66
1, 355312, Note_on_c, 0, 62, 58
1, 355313, Control_c, 0, 64, 31
1, 355328, Control_c, 0, 64, 49
1, 355337, Note_off_c, 0, 62, 59
1, 355340, Note_off_c, 0, 65, 64
1, 355343, Control_c, 0, 64, 59
1, 355343, Note_off_c, 0, 67, 65
1, 355355, Note_on_c, 0, 60, 3
1, 355358, Control_c, 0, 64, 61
1, 355364, Note_off_c, 0, 60, 43
1, 355394, Note_on_c, 0, 55, 46
1, 355395, Note_on_c, 0, 62, 67
1, 355402, Note_on_c, 0, 58, 33
1, 355402, Control_c, 0, 64, 57
1, 355417, Control_c, 0, 64, 47
1, 355418, Note_off_c, 0, 62, 66
1, 355429, Note_off_c, 0, 55, 62
1, 355432, Note_off_c, 0, 58, 56
1, 355432, Control_c, 0, 64, 24
1, 355447, Control_c, 0, 64, 0
1, 355455, Note_on_c, 0, 64, 71
1, 355469, Note_on_c, 0, 67, 63
1, 355469, Note_on_c, 0, 69, 45
1, 355477, Note_on_c, 0, 60, 47
1, 355483, Note_off_c, 0, 64, 67
1, 355495, Note_off_c, 0, 69, 58
1, 355498, Note_off_c, 0, 67, 65
1, 355502, Note_off_c, 0, 60, 56
1, 355539, Note_on_c, 0, 62, 57
1, 355545, Note_on_c, 0, 58, 42
1, 355553, Note_on_c, 0, 55, 41
1, 355572, Note_off_c, 0, 62, 64
1, 355577, Note_off_c, 0, 58, 63
1, 355584, Note_off_c, 0, 55, 58
1, 355588, Note_on_c, 0, 69, 61
1, 355603, Note_on_c, 0, 65, 63
1, 355605, Note_on_c, 0, 60, 42
1, 355637, Note_off_c, 0, 65, 61
1, 355638, Note_off_c, 0, 60, 53
1, 355654, Note_off_c, 0, 69, 66
1, 355680, Note_on_c, 0, 62, 53
1, 355686, Note_on_c, 0, 55, 47
1, 355686, Note_on_c, 0, 58, 49
1, 355718, Note_off_c, 0, 62, 64
1, 355722, Note_off_c, 0, 58, 64
1, 355725, Note_off_c, 0, 55, 61
1, 355728, Control_c, 0, 64, 29
1, 355743, Control_c, 0, 64, 54
1, 355746, Note_on_c, 0, 67, 72
1, 355757, Note_on_c, 0, 62, 55
1, 355757, Note_on_c, 0, 70, 59
1, 355757, Control_c, 0, 64, 63
1, 355766, Note_on_c, 0, 60, 29
1, 355769, Note_on_c, 0, 72, 49
1, 355772, Control_c, 0, 64, 67
1, 355781, Note_off_c, 0, 62, 59
1, 355785, Note_off_c, 0, 67, 62
1, 355787, Control_c, 0, 64, 70
1, 355794, Note_off_c, 0, 70, 59
1, 355796, Note_off_c, 0, 72, 57
1, 355802, Control_c, 0, 64, 74
1, 355805, Note_off_c, 0, 60, 41
1, 355817, Control_c, 0, 64, 79
1, 355832, Control_c, 0, 64, 85
1, 355846, Control_c, 0, 64, 89
1, 355849, Note_on_c, 0, 55, 45
1, 355851, Note_on_c, 0, 62, 65
1, 355854, Note_on_c, 0, 58, 34
1, 355861, Control_c, 0, 64, 92
1, 355871, Note_off_c, 0, 62, 65
1, 355876, Control_c, 0, 64, 95
1, 355883, Note_off_c, 0, 55, 57
1, 355886, Note_off_c, 0, 58, 55
1, 355891, Control_c, 0, 64, 98
1, 355906, Note_on_c, 0, 67, 65
1, 355906, Control_c, 0, 64, 103
1, 355922, Note_on_c, 0, 70, 64
1, 355928, Control_c, 0, 64, 109
1, 355930, Note_on_c, 0, 62, 56
1, 355930, Note_off_c, 0, 67, 68
1, 355939, Note_on_c, 0, 60, 31
1, 355943, Control_c, 0, 64, 117
1, 355952, Note_off_c, 0, 70, 66
1, 355954, Note_off_c, 0, 62, 60
1, 355958, Control_c, 0, 64, 127
1, 355975, Note_off_c, 0, 60, 45
1, 356010, Note_on_c, 0, 58, 44
1, 356020, Note_on_c, 0, 55, 43
1, 356023, Note_on_c, 0, 62, 60
1, 356032, Control_c, 0, 64, 108
1, 356047, Note_off_c, 0, 58, 62
1, 356047, Note_on_c, 0, 70, 69
1, 356047, Control_c, 0, 64, 83
1, 356048, Note_off_c, 0, 62, 58
1, 356053, Note_on_c, 0, 60, 68
1, 356055, Note_off_c, 0, 55, 51
1, 356059, Note_on_c, 0, 69, 75
1, 356062, Control_c, 0, 64, 66
1, 356070, Note_on_c, 0, 65, 62
1, 356076, Control_c, 0, 64, 49
1, 356079, Note_off_c, 0, 70, 64
1, 356091, Control_c, 0, 64, 23
1, 356103, Note_off_c, 0, 60, 62
1, 356106, Control_c, 0, 64, 0
1, 356119, Note_off_c, 0, 69, 64
1, 356121, Note_off_c, 0, 65, 52
1, 356155, Note_on_c, 0, 58, 51
1, 356158, Note_on_c, 0, 55, 49
1, 356158, Note_on_c, 0, 62, 56
1, 356185, Note_off_c, 0, 62, 65
1, 356194, Note_off_c, 0, 55, 62
1, 356198, Note_off_c, 0, 58, 63
1, 356216, Note_on_c, 0, 60, 62
1, 356225, Note_on_c, 0, 69, 63
1, 356231, Note_on_c, 0, 67, 55
1, 356237, Note_on_c, 0, 64, 38
1, 356256, Note_off_c, 0, 60, 50
1, 356261, Note_off_c, 0, 67, 60
1, 356263, Note_off_c, 0, 69, 65
1, 356267, Note_off_c, 0, 64, 52
1, 356302, Note_on_c, 0, 62, 57
1, 356306, Note_on_c, 0, 55, 46
1, 356309, Note_on_c, 0, 58, 47
1, 356314, Control_c, 0, 64, 23
1, 356328, Control_c, 0, 64, 52
1, 356331, Note_off_c, 0, 62, 64
1, 356338, Note_off_c, 0, 58, 62
1, 356339, Note_off_c, 0, 55, 63
1, 356343, Control_c, 0, 64, 63
1, 356358, Control_c, 0, 64, 68
1, 356366, Note_on_c, 0, 67, 50
1, 356368, Note_on_c, 0, 64, 56
1, 356369, Note_on_c, 0, 62, 67
1, 356370, Note_on_c, 0, 60, 57
1, 356373, Control_c, 0, 64, 73
1, 356380, Note_on_c, 0, 65, 55
1, 356388, Control_c, 0, 64, 79
1, 356392, Note_off_c, 0, 62, 61
1, 356395, Note_off_c, 0, 60, 57
1, 356402, Control_c, 0, 64, 85
1, 356404, Note_off_c, 0, 65, 57
1, 356407, Note_off_c, 0, 64, 64
1, 356410, Note_off_c, 0, 67, 45
1, 356417, Control_c, 0, 64, 89
1, 356432, Control_c, 0, 64, 91
1, 356447, Control_c, 0, 64, 93
1, 356456, Note_on_c, 0, 58, 48
1, 356460, Note_on_c, 0, 62, 75
1, 356467, Note_on_c, 0, 55, 44
1, 356488, Note_off_c, 0, 62, 67
1, 356493, Note_off_c, 0, 58, 64
1, 356501, Note_off_c, 0, 55, 55
1, 356509, Note_on_c, 0, 65, 61
1, 356519, Note_on_c, 0, 64, 71
1, 356523, Note_on_c, 0, 62, 66
1, 356535, Control_c, 0, 64, 90
1, 356541, Note_on_c, 0, 60, 47
1, 356544, Note_off_c, 0, 62, 61
1, 356550, Control_c, 0, 64, 85
1, 356560, Note_off_c, 0, 65, 61
1, 356565, Control_c, 0, 64, 76
1, 356567, Note_off_c, 0, 60, 57
1, 356567, Note_off_c, 0, 64, 64
1, 356580, Control_c, 0, 64, 67
1, 356595, Control_c, 0, 64, 57
1, 356607, Note_on_c, 0, 62, 75
1, 356610, Control_c, 0, 64, 44
1, 356610, Note_on_c, 0, 58, 56
1, 356613, Note_on_c, 0, 55, 46
1, 356625, Control_c, 0, 64, 34
1, 356634, Note_off_c, 0, 62, 66
1, 356640, Control_c, 0, 64, 26
1, 356644, Note_off_c, 0, 58, 64
1, 356649, Note_off_c, 0, 55, 59
1, 356655, Control_c, 0, 64, 16
1, 356667, Note_on_c, 0, 65, 74
1, 356676, Control_c, 0, 64, 0
1, 356681, Note_on_c, 0, 60, 54
1, 356692, Note_on_c, 0, 64, 62
1, 356699, Poly_aftertouch_c, 0, 62, 127
1, 356713, Note_off_c, 0, 60, 51
1, 356714, Poly_aftertouch_c, 0, 62, 0
1, 356721, Note_off_c, 0, 65, 62
1, 356732, Note_off_c, 0, 64, 64
1, 356769, Note_on_c, 0, 62, 69
1, 356771, Note_on_c, 0, 58, 50
1, 356781, Note_on_c, 0, 55, 30
1, 356798, Note_off_c, 0, 62, 66
1, 356807, Note_off_c, 0, 58, 64
1, 356816, Note_off_c, 0, 55, 50
1, 356825, Control_c, 0, 64, 15
1, 356835, Note_on_c, 0, 64, 68
1, 356840, Control_c, 0, 64, 37
1, 356842, Note_on_c, 0, 65, 64
1, 356855, Control_c, 0, 64, 38
1, 356863, Note_on_c, 0, 60, 21
1, 356870, Control_c, 0, 64, 28
1, 356874, Note_off_c, 0, 65, 62
1, 356880, Note_on_c, 0, 62, 28
1, 356885, Note_off_c, 0, 62, 41
1, 356885, Control_c, 0, 64, 0
1, 356886, Note_off_c, 0, 64, 64
1, 356896, Note_off_c, 0, 60, 44
1, 356917, Note_on_c, 0, 62, 38
1, 356926, Note_on_c, 0, 58, 55
1, 356932, Note_on_c, 0, 55, 39
1, 356955, Note_off_c, 0, 62, 64
1, 356959, Note_off_c, 0, 58, 65
1, 356963, Note_off_c, 0, 55, 60
1, 356990, Note_on_c, 0, 67, 74
1, 356991, Note_on_c, 0, 65, 68
1, 356993, Note_on_c, 0, 60, 60
1, 357018, Note_off_c, 0, 60, 60
1, 357024, Note_off_c, 0, 67, 66
1, 357028, Note_off_c, 0, 65, 64
1, 357078, Note_on_c, 0, 62, 66
1, 357080, Note_on_c, 0, 55, 41
1, 357080, Note_on_c, 0, 58, 47
1, 357106, Note_off_c, 0, 62, 66
1, 357114, Note_off_c, 0, 55, 59
1, 357114, Note_off_c, 0, 58, 65
1, 357147, Note_on_c, 0, 60, 50
1, 357149, Note_on_c, 0, 64, 66
1, 357156, Note_on_c, 0, 69, 54
1, 357157, Note_on_c, 0, 67, 64
1, 357174, Note_off_c, 0, 60, 58
1, 357175, Note_off_c, 0, 64, 63
1, 357178, Note_off_c, 0, 69, 64
1, 357186, Note_off_c, 0, 67, 66
1, 357227, Note_on_c, 0, 62, 55
1, 357233, Note_on_c, 0, 58, 47
1, 357238, Note_on_c, 0, 55, 40
1, 357263, Note_off_c, 0, 62, 62
1, 357266, Note_off_c, 0, 58, 63
1, 357270, Note_off_c, 0, 55, 57
1, 357289, Note_on_c, 0, 70, 76
1, 357306, Note_on_c, 0, 65, 48
1, 357325, Note_on_c, 0, 60, 12
1, 357334, Note_off_c, 0, 65, 55
1, 357346, Note_off_c, 0, 70, 63
1, 357373, Note_off_c, 0, 60, 36
1, 357379, Poly_aftertouch_c, 0, 67, 0
1, 357385, Note_on_c, 0, 58, 44
1, 357385, Note_on_c, 0, 55, 44
1, 357385, Note_on_c, 0, 62, 58
1, 357411, Note_off_c, 0, 62, 64
1, 357424, Note_off_c, 0, 58, 62
1, 357425, Note_off_c, 0, 55, 60
1, 357459, Note_on_c, 0, 70, 74
1, 357469, Note_on_c, 0, 67, 65
1, 357472, Note_on_c, 0, 60, 38
1, 357498, Note_off_c, 0, 67, 65
1, 357504, Note_off_c, 0, 60, 52
1, 357507, Note_off_c, 0, 70, 61
1, 357526, Note_on_c, 0, 62, 50
1, 357528, Note_on_c, 0, 55, 48
1, 357534, Note_on_c, 0, 58, 43
1, 357579, Note_off_c, 0, 58, 58
1, 357584, Note_off_c, 0, 62, 59
1, 357594, Note_off_c, 0, 55, 54
1, 357630, Note_on_c, 0, 72, 78
1, 357662, Note_on_c, 0, 62, 39
1, 357674, Note_on_c, 0, 60, 48
1, 357678, Control_c, 0, 64, 36
1, 357693, Control_c, 0, 64, 53
1, 357706, Note_off_c, 0, 60, 55
1, 357708, Control_c, 0, 64, 61
1, 357722, Control_c, 0, 64, 65
1, 357737, Control_c, 0, 64, 69
1, 357741, Note_on_c, 0, 58, 39
1, 357743, Note_on_c, 0, 55, 44
1, 357752, Control_c, 0, 64, 75
1, 357767, Control_c, 0, 64, 83
1, 357781, Control_c, 0, 64, 94
1, 357782, Note_off_c, 0, 58, 56
1, 357788, Note_off_c, 0, 62, 0
1, 357791, Note_off_c, 0, 55, 58
1, 357796, Control_c, 0, 64, 109
1, 357797, Note_on_c, 0, 60, 64
1, 357811, Control_c, 0, 64, 127
1, 357826, Poly_aftertouch_c, 0, 62, 127
1, 357855, Note_off_c, 0, 60, 59
1, 357859, Poly_aftertouch_c, 0, 62, 0
1, 357890, Note_on_c, 0, 62, 26
1, 357898, Note_off_c, 0, 72, 64
1, 357904, Note_on_c, 0, 55, 48
1, 357904, Note_on_c, 0, 58, 43
1, 357936, Note_off_c, 0, 58, 55
1, 357945, Note_off_c, 0, 55, 60
1, 357945, Note_off_c, 0, 62, 54
1, 357958, Note_on_c, 0, 72, 77
1, 357981, Note_on_c, 0, 60, 62
1, 358055, Note_on_c, 0, 62, 39
1, 358058, Note_off_c, 0, 60, 60
1, 358073, Note_on_c, 0, 55, 43
1, 358080, Note_on_c, 0, 58, 37
1, 358111, Note_off_c, 0, 58, 58
1, 358113, Note_off_c, 0, 62, 60
1, 358117, Note_off_c, 0, 55, 59
1, 358118, Note_on_c, 0, 69, 82
1, 358151, Note_off_c, 0, 72, 64
1, 358252, Note_on_c, 0, 62, 51
1, 358279, Note_on_c, 0, 58, 22
1, 358281, Note_on_c, 0, 55, 30
1, 358309, Control_c, 0, 64, 105
1, 358317, Note_off_c, 0, 62, 48
1, 358324, Control_c, 0, 64, 71
1, 358324, Note_off_c, 0, 55, 56
1, 358327, Note_on_c, 0, 70, 77
1, 358330, Note_off_c, 0, 58, 52
1, 358331, Note_off_c, 0, 69, 66
1, 358339, Control_c, 0, 64, 56
1, 358354, Control_c, 0, 64, 41
1, 358364, Note_on_c, 0, 60, 57
1, 358369, Control_c, 0, 64, 38
1, 358384, Control_c, 0, 64, 46
1, 358384, Poly_aftertouch_c, 0, 62, 127
1, 358398, Control_c, 0, 64, 58
1, 358399, Note_off_c, 0, 60, 47
1, 358413, Control_c, 0, 64, 71
1, 358419, Poly_aftertouch_c, 0, 62, 0
1, 358428, Control_c, 0, 64, 86
1, 358443, Control_c, 0, 64, 122
1, 358451, Note_on_c, 0, 58, 45
1, 358453, Note_on_c, 0, 55, 41
1, 358457, Poly_aftertouch_c, 0, 62, 127
1, 358458, Control_c, 0, 64, 127
1, 358485, Poly_aftertouch_c, 0, 62, 0
1, 358488, Note_off_c, 0, 58, 62
1, 358491, Note_off_c, 0, 55, 54
1, 358549, Note_on_c, 0, 62, 22
1, 358558, Note_on_c, 0, 60, 9
1, 358606, Note_off_c, 0, 60, 51
1, 358625, Note_off_c, 0, 62, 0
1, 358626, Note_on_c, 0, 55, 35
1, 358641, Note_on_c, 0, 58, 20
1, 358663, Poly_aftertouch_c, 0, 62, 127
1, 358674, Note_off_c, 0, 55, 47
1, 358676, Note_on_c, 0, 69, 73
1, 358686, Note_off_c, 0, 58, 53
1, 358688, Note_off_c, 0, 70, 62
1, 358707, Note_on_c, 0, 60, 54
1, 358711, Poly_aftertouch_c, 0, 62, 0
1, 358738, Control_c, 0, 67, 127
1, 358748, Note_off_c, 0, 60, 58
1, 358753, Control_c, 0, 67, 124
1, 358768, Control_c, 0, 67, 123
1, 358783, Control_c, 0, 67, 122
1, 358805, Note_on_c, 0, 58, 37
1, 358817, Note_on_c, 0, 55, 19
1, 358826, Note_on_c, 0, 62, 29
1, 358839, Note_on_c, 0, 67, 68
1, 358843, Control_c, 0, 67, 122
1, 358845, Note_off_c, 0, 58, 51
1, 358851, Note_on_c, 0, 60, 52
1, 358853, Note_off_c, 0, 55, 55
1, 358856, Note_off_c, 0, 69, 59
1, 358858, Control_c, 0, 67, 123
1, 358863, Note_off_c, 0, 62, 47
1, 358873, Note_off_c, 0, 67, 65
1, 358883, Note_off_c, 0, 60, 63
1, 358887, Control_c, 0, 67, 123
1, 358923, Control_c, 0, 67, 124
1, 358938, Control_c, 0, 67, 124
1, 358953, Control_c, 0, 67, 125
1, 358973, Note_on_c, 0, 62, 49
1, 358983, Note_on_c, 0, 58, 34
1, 359010, Note_off_c, 0, 62, 51
1, 359017, Note_off_c, 0, 58, 53
1, 359027, Control_c, 0, 64, 80
1, 359037, Poly_aftertouch_c, 0, 55, 127
1, 359039, Note_on_c, 0, 65, 72
1, 359042, Control_c, 0, 64, 65
1, 359051, Note_on_c, 0, 60, 45
1, 359057, Control_c, 0, 64, 61
1, 359060, Note_on_c, 0, 57, 51
1, 359062, Poly_aftertouch_c, 0, 55, 0
1, 359072, Control_c, 0, 64, 67
1, 359078, Note_off_c, 0, 60, 55
1, 359086, Note_off_c, 0, 57, 58
1, 359087, Control_c, 0, 64, 77
1, 359087, Control_c, 0, 67, 124
1, 359102, Control_c, 0, 64, 103
1, 359117, Control_c, 0, 64, 127
1, 359117, Control_c, 0, 67, 123
1, 359127, Note_on_c, 0, 62, 38
1, 359132, Control_c, 0, 67, 122
1, 359139, Note_on_c, 0, 58, 39
1, 359147, Control_c, 0, 67, 121
1, 359162, Control_c, 0, 67, 120
1, 359170, Note_off_c, 0, 58, 56
1, 359177, Control_c, 0, 67, 119
1, 359189, Note_on_c, 0, 57, 54
1, 359191, Control_c, 0, 67, 118
1, 359195, Note_on_c, 0, 60, 44
1, 359200, Poly_aftertouch_c, 0, 55, 127
1, 359206, Control_c, 0, 67, 118
1, 359213, Note_off_c, 0, 62, 0
1, 359213, Note_on_c, 0, 62, 15
1, 359221, Control_c, 0, 67, 116
1, 359236, Note_off_c, 0, 60, 58
1, 359236, Control_c, 0, 67, 113
1, 359246, Note_off_c, 0, 57, 58
1, 359251, Control_c, 0, 67, 110
1, 359266, Control_c, 0, 67, 107
1, 359269, Note_off_c, 0, 65, 63
1, 359274, Note_on_c, 0, 58, 46
1, 359274, Poly_aftertouch_c, 0, 55, 0
1, 359281, Control_c, 0, 67, 104
1, 359295, Control_c, 0, 67, 101
1, 359310, Note_off_c, 0, 58, 56
1, 359310, Control_c, 0, 67, 98
1, 359311, Poly_aftertouch_c, 0, 55, 127
1, 359323, Note_off_c, 0, 62, 57
1, 359325, Control_c, 0, 67, 94
1, 359339, Control_c, 0, 67, 90
1, 359354, Control_c, 0, 67, 85
1, 359360, Poly_aftertouch_c, 0, 55, 0
1, 359361, Note_on_c, 0, 60, 47
1, 359364, Note_on_c, 0, 57, 59
1, 359369, Control_c, 0, 67, 78
1, 359370, Note_on_c, 0, 67, 58
1, 359383, Note_on_c, 0, 64, 34
1, 359384, Control_c, 0, 67, 69
1, 359397, Note_off_c, 0, 60, 59
1, 359399, Control_c, 0, 67, 60
1, 359400, Note_off_c, 0, 57, 60
1, 359408, Note_off_c, 0, 67, 62
1, 359413, Control_c, 0, 67, 52
1, 359415, Note_off_c, 0, 64, 53
1, 359428, Control_c, 0, 67, 45
1, 359438, Note_on_c, 0, 62, 52
1, 359443, Control_c, 0, 67, 38
1, 359454, Note_on_c, 0, 58, 13
1, 359458, Control_c, 0, 67, 32
1, 359469, Note_off_c, 0, 62, 61
1, 359473, Control_c, 0, 67, 26
1, 359487, Control_c, 0, 67, 20
1, 359493, Poly_aftertouch_c, 0, 55, 127
1, 359495, Note_off_c, 0, 58, 40
1, 359502, Control_c, 0, 67, 15
1, 359507, Note_on_c, 0, 67, 62
1, 359510, Note_on_c, 0, 60, 52
1, 359511, Note_on_c, 0, 64, 49
1, 359513, Note_on_c, 0, 57, 50
1, 359517, Control_c, 0, 67, 10
1, 359532, Control_c, 0, 67, 0
1, 359549, Note_off_c, 0, 60, 58
1, 359554, Note_off_c, 0, 57, 60
1, 359560, Note_off_c, 0, 64, 60
1, 359560, Note_off_c, 0, 67, 56
1, 359566, Note_on_c, 0, 62, 64
1, 359572, Poly_aftertouch_c, 0, 55, 0
1, 359588, Note_on_c, 0, 55, 30
1, 359606, Note_on_c, 0, 58, 40
1, 359609, Note_off_c, 0, 62, 60
1, 359627, Note_off_c, 0, 55, 51
1, 359636, Control_c, 0, 64, 81
1, 359638, Note_off_c, 0, 58, 46
1, 359650, Control_c, 0, 64, 63
1, 359672, Control_c, 0, 64, 56
1, 359678, Note_on_c, 0, 62, 76
1, 359681, Note_on_c, 0, 60, 57
1, 359683, Note_on_c, 0, 57, 55
1, 359687, Control_c, 0, 64, 62
1, 359702, Control_c, 0, 64, 73
1, 359711, Note_off_c, 0, 60, 64
1, 359716, Note_off_c, 0, 57, 63
1, 359717, Control_c, 0, 64, 101
1, 359732, Control_c, 0, 64, 127
1, 359733, Note_on_c, 0, 55, 54
1, 359738, Note_on_c, 0, 58, 53
1, 359776, Note_off_c, 0, 58, 61
1, 359779, Note_off_c, 0, 62, 61
1, 359781, Note_off_c, 0, 55, 59
1, 359826, Note_on_c, 0, 62, 68
1, 359844, Note_on_c, 0, 57, 36
1, 359875, Note_off_c, 0, 57, 50
1, 359901, Note_on_c, 0, 55, 53
1, 359906, Note_on_c, 0, 58, 44
1, 359936, Note_off_c, 0, 55, 61
1, 359937, Note_off_c, 0, 62, 63
1, 359939, Note_off_c, 0, 58, 62
1, 359991, Note_on_c, 0, 72, 87
1, 360027, Note_on_c, 0, 60, 39
1, 360058, Note_on_c, 0, 55, 50
1, 360065, Note_off_c, 0, 60, 49
1, 360068, Note_on_c, 0, 62, 53
1, 360071, Note_on_c, 0, 58, 29
1, 360106, Note_off_c, 0, 62, 61
1, 360113, Note_off_c, 0, 58, 62
1, 360119, Note_off_c, 0, 55, 57
1, 360151, Note_on_c, 0, 69, 85
1, 360174, Note_off_c, 0, 72, 61
1, 360205, Note_on_c, 0, 62, 62
1, 360207, Control_c, 0, 67, 8
1, 360222, Control_c, 0, 67, 8
1, 360224, Note_on_c, 0, 58, 53
1, 360228, Note_on_c, 0, 55, 50
1, 360232, Poly_aftertouch_c, 0, 60, 127
1, 360236, Control_c, 0, 67, 9
1, 360257, Note_off_c, 0, 62, 60
1, 360259, Note_off_c, 0, 58, 63
1, 360262, Poly_aftertouch_c, 0, 60, 0
1, 360269, Note_off_c, 0, 55, 59
1, 360281, Control_c, 0, 67, 9
1, 360295, Control_c, 0, 64, 92
1, 360310, Control_c, 0, 64, 66
1, 360321, Note_on_c, 0, 74, 79
1, 360324, Note_off_c, 0, 69, 64
1, 360325, Control_c, 0, 64, 49
1, 360340, Control_c, 0, 64, 46
1, 360343, Note_on_c, 0, 62, 66
1, 360352, Note_on_c, 0, 60, 58
1, 360355, Control_c, 0, 64, 57
1, 360369, Control_c, 0, 64, 71
1, 360373, Note_off_c, 0, 60, 59
1, 360384, Control_c, 0, 64, 99
1, 360384, Control_c, 0, 67, 10
1, 360396, Note_on_c, 0, 55, 55
1, 360399, Control_c, 0, 64, 127
1, 360399, Control_c, 0, 67, 10
1, 360422, Note_on_c, 0, 58, 46
1, 360422, Control_c, 0, 67, 11
1, 360445, Note_off_c, 0, 62, 59
1, 360454, Note_off_c, 0, 58, 60
1, 360469, Note_off_c, 0, 55, 59
1, 360481, Control_c, 0, 67, 11
1, 360498, Note_on_c, 0, 62, 68
1, 360510, Control_c, 0, 67, 12
1, 360520, Note_on_c, 0, 60, 25
1, 360525, Control_c, 0, 67, 12
1, 360540, Control_c, 0, 67, 13
1, 360555, Control_c, 0, 67, 15
1, 360563, Note_off_c, 0, 74, 63
1, 360563, Note_off_c, 0, 60, 40
1, 360563, Note_on_c, 0, 58, 47
1, 360578, Note_on_c, 0, 55, 42
1, 360602, Note_off_c, 0, 62, 58
1, 360609, Note_off_c, 0, 55, 55
1, 360609, Note_off_c, 0, 58, 60
1, 360643, Control_c, 0, 67, 15
1, 360654, Note_on_c, 0, 74, 81
1, 360658, Control_c, 0, 67, 16
1, 360684, Note_on_c, 0, 60, 40
1, 360715, Note_off_c, 0, 60, 51
1, 360733, Note_on_c, 0, 62, 43
1, 360735, Note_on_c, 0, 55, 35
1, 360738, Note_on_c, 0, 58, 38
1, 360759, Note_off_c, 0, 62, 61
1, 360774, Note_off_c, 0, 55, 50
1, 360774, Note_off_c, 0, 58, 59
1, 360801, Note_on_c, 0, 60, 67
1, 360807, Control_c, 0, 67, 17
1, 360844, Note_off_c, 0, 60, 58
1, 360861, Note_on_c, 0, 62, 49
1, 360867, Note_on_c, 0, 55, 60
1, 360873, Note_on_c, 0, 58, 55
1, 360915, Note_off_c, 0, 58, 56
1, 360919, Note_off_c, 0, 62, 60
1, 360929, Note_off_c, 0, 55, 56
1, 360956, Control_c, 0, 64, 88
1, 360959, Note_off_c, 0, 74, 65
1, 360962, Note_on_c, 0, 72, 78
1, 360971, Control_c, 0, 64, 65
1, 360986, Control_c, 0, 64, 51
1, 360987, Note_on_c, 0, 62, 57
1, 360992, Note_on_c, 0, 60, 52
1, 361000, Control_c, 0, 64, 48
1, 361015, Control_c, 0, 64, 56
1, 361022, Note_off_c, 0, 60, 57
1, 361030, Control_c, 0, 64, 69
1, 361038, Note_off_c, 0, 62, 0
1, 361045, Control_c, 0, 64, 87
1, 361060, Control_c, 0, 64, 127
1, 361060, Control_c, 0, 67, 17
1, 361061, Note_on_c, 0, 55, 53
1, 361075, Poly_aftertouch_c, 0, 62, 127
1, 361090, Note_on_c, 0, 58, 34
1, 361094, Note_off_c, 0, 55, 52
1, 361095, Poly_aftertouch_c, 0, 62, 0
1, 361125, Note_off_c, 0, 58, 44
1, 361132, Note_on_c, 0, 62, 62
1, 361146, Note_on_c, 0, 60, 49
1, 361180, Note_off_c, 0, 62, 62
1, 361183, Note_off_c, 0, 60, 52
1, 361187, Note_off_c, 0, 72, 58
1, 361213, Note_on_c, 0, 55, 49
1, 361224, Note_on_c, 0, 58, 48
1, 361240, Poly_aftertouch_c, 0, 62, 127
1, 361248, Note_off_c, 0, 55, 51
1, 361253, Poly_aftertouch_c, 0, 62, 0
1, 361255, Note_off_c, 0, 58, 62
1, 361299, Note_on_c, 0, 72, 78
1, 361324, Note_on_c, 0, 60, 31
1, 361380, Note_off_c, 0, 60, 46
1, 361391, Note_on_c, 0, 62, 33
1, 361418, Note_off_c, 0, 62, 55
1, 361457, Note_on_c, 0, 69, 69
1, 361462, Poly_aftertouch_c, 0, 58, 0
1, 361466, Note_off_c, 0, 72, 59
1, 361528, Note_on_c, 0, 62, 42
1, 361558, Note_on_c, 0, 55, 30
1, 361574, Note_on_c, 0, 58, 26
1, 361584, Note_off_c, 0, 62, 51
1, 361586, Control_c, 0, 64, 88
1, 361586, Control_c, 0, 67, 18
1, 361595, Note_off_c, 0, 55, 46
1, 361601, Control_c, 0, 64, 67
1, 361601, Control_c, 0, 67, 19
1, 361614, Note_off_c, 0, 58, 40
1, 361615, Control_c, 0, 64, 60
1, 361615, Control_c, 0, 67, 21
1, 361630, Control_c, 0, 64, 65
1, 361630, Control_c, 0, 67, 25
1, 361631, Note_on_c, 0, 74, 70
1, 361633, Note_off_c, 0, 69, 58
1, 361645, Control_c, 0, 64, 75
1, 361645, Control_c, 0, 67, 31
1, 361648, Note_on_c, 0, 62, 58
1, 361651, Note_on_c, 0, 60, 52
1, 361660, Control_c, 0, 64, 99
1, 361660, Control_c, 0, 67, 38
1, 361675, Control_c, 0, 64, 127
1, 361675, Control_c, 0, 67, 47
1, 361689, Control_c, 0, 67, 53
1, 361695, Note_off_c, 0, 60, 55
1, 361704, Control_c, 0, 67, 58
1, 361712, Note_on_c, 0, 58, 47
1, 361713, Note_on_c, 0, 55, 38
1, 361719, Control_c, 0, 67, 62
1, 361734, Control_c, 0, 67, 66
1, 361747, Note_off_c, 0, 58, 55
1, 361749, Control_c, 0, 67, 72
1, 361749, Note_off_c, 0, 55, 51
1, 361754, Note_off_c, 0, 62, 58
1, 361764, Control_c, 0, 67, 79
1, 361779, Control_c, 0, 67, 84
1, 361794, Control_c, 0, 67, 87
1, 361809, Note_on_c, 0, 62, 51
1, 361809, Control_c, 0, 67, 90
1, 361813, Note_on_c, 0, 60, 48
1, 361823, Control_c, 0, 67, 92
1, 361838, Control_c, 0, 67, 93
1, 361846, Note_off_c, 0, 60, 51
1, 361853, Note_on_c, 0, 55, 47
1, 361866, Note_on_c, 0, 58, 38
1, 361873, Note_off_c, 0, 74, 62
1, 361891, Note_off_c, 0, 55, 51
1, 361898, Control_c, 0, 67, 92
1, 361904, Note_off_c, 0, 58, 51
1, 361919, Note_off_c, 0, 62, 52
1, 361964, Control_c, 0, 67, 92
1, 361975, Note_on_c, 0, 74, 66
1, 361994, Control_c, 0, 67, 91
1, 362009, Control_c, 0, 67, 91
1, 362029, Poly_aftertouch_c, 0, 60, 127
1, 362033, Note_on_c, 0, 62, 48
1, 362057, Note_on_c, 0, 58, 13
1, 362071, Note_off_c, 0, 62, 52
1, 362071, Poly_aftertouch_c, 0, 60, 0
1, 362072, Note_on_c, 0, 55, 3
1, 362092, Note_off_c, 0, 55, 0
1, 362099, Note_off_c, 0, 58, 41
1, 362108, Poly_aftertouch_c, 0, 55, 0
1, 362140, Note_on_c, 0, 60, 51
1, 362142, Control_c, 0, 67, 90
1, 362166, Note_off_c, 0, 60, 55
1, 362178, Note_on_c, 0, 62, 45
1, 362202, Control_c, 0, 67, 91
1, 362203, Note_on_c, 0, 55, 48
1, 362211, Note_on_c, 0, 58, 40
1, 362215, Note_off_c, 0, 74, 63
1, 362258, Note_off_c, 0, 58, 46
1, 362264, Note_off_c, 0, 55, 55
1, 362272, Note_off_c, 0, 62, 0
1, 362275, Control_c, 0, 64, 90
1, 362292, Control_c, 0, 64, 67
1, 362293, Note_on_c, 0, 60, 62
1, 362294, Note_on_c, 0, 72, 70
1, 362296, Note_on_c, 0, 62, 13
1, 362306, Control_c, 0, 64, 54
1, 362321, Control_c, 0, 64, 51
1, 362336, Control_c, 0, 64, 60
1, 362344, Note_off_c, 0, 60, 55
1, 362351, Control_c, 0, 64, 70
1, 362358, Note_off_c, 0, 62, 0
1, 362365, Control_c, 0, 64, 86
1, 362380, Control_c, 0, 64, 127
1, 362383, Note_on_c, 0, 62, 35
1, 362392, Note_on_c, 0, 55, 52
1, 362402, Note_on_c, 0, 58, 40
1, 362435, Note_off_c, 0, 55, 59
1, 362435, Note_off_c, 0, 58, 58
1, 362439, Control_c, 0, 67, 90
1, 362441, Note_off_c, 0, 62, 0
1, 362456, Note_on_c, 0, 60, 58
1, 362459, Note_on_c, 0, 62, 50
1, 362494, Note_off_c, 0, 60, 53
1, 362498, Note_off_c, 0, 62, 60
1, 362542, Note_on_c, 0, 55, 50
1, 362550, Note_on_c, 0, 62, 53
1, 362552, Note_on_c, 0, 58, 36
1, 362585, Note_off_c, 0, 58, 55
1, 362590, Note_off_c, 0, 55, 55
1, 362596, Note_off_c, 0, 62, 0
1, 362606, Note_on_c, 0, 60, 56
1, 362613, Note_on_c, 0, 62, 58
1, 362670, Note_off_c, 0, 62, 0
1, 362688, Note_off_c, 0, 60, 38
1, 362706, Poly_aftertouch_c, 0, 62, 127
1, 362712, Note_on_c, 0, 55, 40
1, 362716, Note_on_c, 0, 58, 23
1, 362735, Poly_aftertouch_c, 0, 62, 0
1, 362741, Note_off_c, 0, 55, 55
1, 362741, Note_off_c, 0, 72, 56
1, 362755, Note_off_c, 0, 58, 44
1, 362781, Note_on_c, 0, 60, 58
1, 362783, Note_on_c, 0, 62, 59
1, 362816, Note_off_c, 0, 60, 57
1, 362836, Note_on_c, 0, 55, 49
1, 362852, Note_on_c, 0, 58, 46
1, 362876, Control_c, 0, 64, 92
1, 362891, Control_c, 0, 64, 69
1, 362903, Note_off_c, 0, 58, 52
1, 362906, Control_c, 0, 64, 58
1, 362911, Note_off_c, 0, 62, 56
1, 362918, Note_off_c, 0, 55, 53
1, 362919, Note_on_c, 0, 72, 66
1, 362920, Note_on_c, 0, 67, 69
1, 362921, Control_c, 0, 64, 57
1, 362923, Note_on_c, 0, 60, 67
1, 362924, Note_on_c, 0, 70, 73
1, 362935, Control_c, 0, 64, 64
1, 362950, Control_c, 0, 64, 80
1, 362950, Control_c, 0, 67, 91
1, 362953, Note_off_c, 0, 67, 65
1, 362958, Note_off_c, 0, 72, 62
1, 362964, Note_off_c, 0, 60, 60
1, 362965, Control_c, 0, 64, 127
1, 362982, Note_off_c, 0, 70, 61
1, 362995, Control_c, 0, 67, 91
1, 363035, Note_on_c, 0, 62, 51
1, 363052, Note_on_c, 0, 58, 24
1, 363060, Note_on_c, 0, 55, 36
1, 363064, Note_off_c, 0, 62, 55
1, 363070, Note_on_c, 0, 60, 60
1, 363084, Note_on_c, 0, 69, 68
1, 363091, Note_off_c, 0, 55, 50
1, 363093, Note_off_c, 0, 58, 43
1, 363104, Note_on_c, 0, 71, 48
1, 363107, Note_on_c, 0, 65, 46
1, 363114, Control_c, 0, 67, 92
1, 363128, Note_off_c, 0, 71, 61
1, 363138, Note_off_c, 0, 60, 59
1, 363144, Note_off_c, 0, 65, 60
1, 363145, Note_off_c, 0, 69, 64
1, 363159, Control_c, 0, 64, 75
1, 363159, Control_c, 0, 67, 91
1, 363174, Control_c, 0, 64, 58
1, 363180, Note_on_c, 0, 62, 54
1, 363183, Note_on_c, 0, 55, 45
1, 363188, Control_c, 0, 64, 45
1, 363190, Note_on_c, 0, 58, 43
1, 363203, Control_c, 0, 64, 46
1, 363203, Control_c, 0, 67, 91
1, 363218, Control_c, 0, 64, 57
1, 363222, Note_off_c, 0, 62, 62
1, 363228, Note_off_c, 0, 58, 62
1, 363229, Note_off_c, 0, 55, 59
1, 363233, Control_c, 0, 64, 69
1, 363233, Control_c, 0, 67, 91
1, 363246, Note_on_c, 0, 60, 68
1, 363246, Note_on_c, 0, 67, 63
1, 363248, Control_c, 0, 64, 86
1, 363251, Note_on_c, 0, 64, 61
1, 363256, Note_on_c, 0, 69, 63
1, 363262, Control_c, 0, 64, 111
1, 363277, Control_c, 0, 64, 127
1, 363283, Note_off_c, 0, 60, 59
1, 363283, Note_off_c, 0, 64, 64
1, 363285, Note_off_c, 0, 69, 65
1, 363293, Note_off_c, 0, 67, 63
1, 363306, Control_c, 0, 67, 91
1, 363329, Note_on_c, 0, 62, 57
1, 363340, Note_on_c, 0, 55, 49
1, 363341, Note_on_c, 0, 58, 42
1, 363370, Note_off_c, 0, 55, 59
1, 363371, Note_off_c, 0, 58, 58
1, 363381, Control_c, 0, 67, 91
1, 363393, Note_on_c, 0, 60, 52
1, 363418, Note_on_c, 0, 65, 54
1, 363428, Note_on_c, 0, 67, 43
1, 363434, Note_off_c, 0, 62, 64
1, 363440, Note_off_c, 0, 60, 61
1, 363447, Control_c, 0, 64, 76
1, 363447, Control_c, 0, 67, 91
1, 363454, Note_off_c, 0, 65, 63
1, 363455, Note_off_c, 0, 67, 57
1, 363462, Control_c, 0, 64, 58
1, 363476, Control_c, 0, 64, 25
1, 363490, Note_on_c, 0, 62, 52
1, 363491, Control_c, 0, 64, 0
1, 363491, Control_c, 0, 67, 91
1, 363492, Note_on_c, 0, 55, 45
1, 363496, Note_on_c, 0, 58, 42
1, 363520, Control_c, 0, 67, 92
1, 363529, Note_off_c, 0, 62, 62
1, 363534, Note_off_c, 0, 58, 61
1, 363535, Control_c, 0, 67, 91
1, 363536, Note_off_c, 0, 55, 60
1, 363550, Control_c, 0, 67, 92
1, 363554, Note_on_c, 0, 65, 45
1, 363564, Note_on_c, 0, 62, 57
1, 363565, Control_c, 0, 64, 35
1, 363567, Note_on_c, 0, 64, 63
1, 363580, Control_c, 0, 64, 59
1, 363583, Note_off_c, 0, 65, 54
1, 363591, Note_on_c, 0, 60, 46
1, 363594, Control_c, 0, 64, 69
1, 363609, Control_c, 0, 64, 74
1, 363620, Note_off_c, 0, 64, 58
1, 363621, Note_off_c, 0, 60, 53
1, 363624, Control_c, 0, 64, 77
1, 363639, Control_c, 0, 64, 79
1, 363647, Note_on_c, 0, 55, 53
1, 363649, Note_on_c, 0, 58, 47
1, 363654, Control_c, 0, 64, 81
1, 363654, Control_c, 0, 67, 91
1, 363669, Control_c, 0, 64, 83
1, 363684, Control_c, 0, 64, 85
1, 363684, Note_off_c, 0, 58, 53
1, 363690, Note_off_c, 0, 55, 59
1, 363693, Note_off_c, 0, 62, 52
1, 363699, Control_c, 0, 64, 87
1, 363713, Control_c, 0, 64, 87
1, 363727, Note_on_c, 0, 65, 50
1, 363728, Control_c, 0, 64, 88
1, 363731, Note_on_c, 0, 60, 42
1, 363736, Note_on_c, 0, 64, 66
1, 363742, Note_on_c, 0, 62, 57
1, 363743, Control_c, 0, 64, 88
1, 363758, Control_c, 0, 64, 89
1, 363761, Note_off_c, 0, 65, 63
1, 363764, Note_off_c, 0, 62, 0
1, 363773, Control_c, 0, 67, 92
1, 363780, Poly_aftertouch_c, 0, 62, 0
1, 363781, Note_off_c, 0, 60, 47
1, 363787, Note_off_c, 0, 64, 60
1, 363787, Control_c, 0, 64, 89
1, 363799, Note_on_c, 0, 55, 49
1, 363799, Note_on_c, 0, 62, 44
1, 363804, Note_on_c, 0, 58, 39
1, 363817, Control_c, 0, 67, 91
1, 363832, Note_off_c, 0, 55, 58
1, 363833, Note_off_c, 0, 62, 59
1, 363834, Note_off_c, 0, 58, 58
1, 363879, Note_on_c, 0, 65, 66
1, 363888, Note_on_c, 0, 60, 68
1, 363907, Note_on_c, 0, 64, 58
1, 363931, Note_off_c, 0, 60, 54
1, 363932, Note_off_c, 0, 65, 61
1, 363940, Note_off_c, 0, 64, 63
1, 363950, Note_on_c, 0, 62, 59
1, 363951, Control_c, 0, 64, 90
1, 363951, Control_c, 0, 67, 92
1, 363959, Note_on_c, 0, 55, 44
1, 363963, Note_on_c, 0, 58, 34
1, 363966, Control_c, 0, 64, 90
1, 363992, Note_off_c, 0, 62, 61
1, 363994, Note_off_c, 0, 55, 57
1, 363996, Control_c, 0, 64, 91
1, 364000, Note_off_c, 0, 58, 55
1, 364043, Note_on_c, 0, 64, 66
1, 364048, Note_on_c, 0, 65, 64
1, 364051, Note_on_c, 0, 60, 65
1, 364084, Control_c, 0, 64, 90
1, 364086, Note_off_c, 0, 65, 59
1, 364093, Note_off_c, 0, 60, 59
1, 364099, Control_c, 0, 64, 78
1, 364105, Note_off_c, 0, 64, 65
1, 364111, Note_on_c, 0, 62, 68
1, 364114, Control_c, 0, 64, 63
1, 364120, Note_on_c, 0, 58, 43
1, 364125, Note_on_c, 0, 55, 47
1, 364129, Control_c, 0, 64, 41
1, 364143, Control_c, 0, 64, 0
1, 364163, Note_off_c, 0, 62, 62
1, 364168, Note_off_c, 0, 58, 61
1, 364173, Note_off_c, 0, 55, 61
1, 364181, Control_c, 0, 64, 12
1, 364196, Control_c, 0, 64, 40
1, 364209, Note_on_c, 0, 65, 67
1, 364211, Control_c, 0, 64, 59
1, 364214, Note_on_c, 0, 67, 61
1, 364214, Note_on_c, 0, 60, 57
1, 364217, Note_on_c, 0, 62, 59
1, 364225, Control_c, 0, 64, 69
1, 364240, Control_c, 0, 64, 75
1, 364248, Note_off_c, 0, 62, 57
1, 364249, Note_off_c, 0, 60, 60
1, 364255, Control_c, 0, 64, 80
1, 364259, Note_off_c, 0, 67, 57
1, 364269, Note_off_c, 0, 65, 56
1, 364270, Control_c, 0, 64, 82
1, 364285, Control_c, 0, 64, 83
1, 364295, Note_on_c, 0, 55, 45
1, 364298, Note_on_c, 0, 62, 51
1, 364299, Control_c, 0, 67, 91
1, 364303, Note_on_c, 0, 58, 37
1, 364314, Control_c, 0, 64, 83
1, 364330, Note_off_c, 0, 62, 56
1, 364336, Note_off_c, 0, 55, 54
1, 364336, Note_off_c, 0, 58, 55
1, 364343, Control_c, 0, 64, 84
1, 364358, Control_c, 0, 67, 92
1, 364372, Note_on_c, 0, 65, 70
1, 364373, Control_c, 0, 64, 84
1, 364379, Note_on_c, 0, 67, 66
1, 364393, Note_on_c, 0, 62, 47
1, 364398, Note_on_c, 0, 60, 33
1, 364405, Note_off_c, 0, 65, 63
1, 364420, Note_off_c, 0, 62, 58
1, 364421, Note_off_c, 0, 67, 61
1, 364430, Note_off_c, 0, 60, 48
1, 364462, Note_on_c, 0, 62, 58
1, 364466, Note_on_c, 0, 55, 52
1, 364468, Note_on_c, 0, 58, 44
1, 364485, Note_off_c, 0, 62, 62
1, 364497, Note_off_c, 0, 58, 57
1, 364497, Note_off_c, 0, 55, 58
1, 364521, Note_on_c, 0, 69, 70
1, 364524, Note_on_c, 0, 60, 66
1, 364536, Note_on_c, 0, 64, 62
1, 364545, Note_on_c, 0, 67, 68
1, 364551, Control_c, 0, 67, 91
1, 364559, Note_off_c, 0, 60, 61
1, 364565, Note_off_c, 0, 69, 59
1, 364566, Control_c, 0, 67, 92
1, 364567, Note_off_c, 0, 64, 66
1, 364579, Note_off_c, 0, 67, 65
1, 364611, Note_on_c, 0, 62, 56
1, 364615, Note_on_c, 0, 58, 49
1, 364618, Note_on_c, 0, 55, 49
1, 364651, Note_off_c, 0, 62, 60
1, 364657, Note_off_c, 0, 55, 57
1, 364658, Note_off_c, 0, 58, 61
1, 364678, Note_on_c, 0, 65, 67
1, 364678, Note_on_c, 0, 69, 70
1, 364685, Control_c, 0, 64, 85
1, 364688, Note_on_c, 0, 60, 56
1, 364700, Control_c, 0, 64, 86
1, 364715, Control_c, 0, 64, 86
1, 364726, Note_off_c, 0, 60, 62
1, 364729, Note_off_c, 0, 65, 60
1, 364747, Note_off_c, 0, 69, 64
1, 364755, Note_on_c, 0, 62, 70
1, 364759, Control_c, 0, 64, 81
1, 364761, Note_on_c, 0, 58, 60
1, 364766, Note_on_c, 0, 55, 46
1, 364774, Control_c, 0, 64, 67
1, 364789, Control_c, 0, 64, 49
1, 364804, Control_c, 0, 64, 0
1, 364805, Note_off_c, 0, 55, 54
1, 364807, Note_off_c, 0, 62, 62
1, 364810, Note_off_c, 0, 58, 61
1, 364829, Note_on_c, 0, 67, 71
1, 364833, Control_c, 0, 64, 23
1, 364839, Note_on_c, 0, 72, 66
1, 364843, Note_on_c, 0, 60, 53
1, 364845, Note_on_c, 0, 62, 51
1, 364846, Note_on_c, 0, 70, 61
1, 364848, Control_c, 0, 64, 52
1, 364848, Control_c, 0, 67, 92
1, 364863, Control_c, 0, 64, 67
1, 364878, Control_c, 0, 64, 78
1, 364892, Control_c, 0, 64, 89
1, 364899, Note_off_c, 0, 67, 60
1, 364914, Control_c, 0, 64, 95
1, 364916, Note_off_c, 0, 60, 57
1, 364919, Note_off_c, 0, 72, 61
1, 364929, Control_c, 0, 64, 98
1, 364932, Note_on_c, 0, 58, 64
1, 364936, Note_on_c, 0, 55, 50
1, 364936, Note_off_c, 0, 70, 62
1, 364944, Control_c, 0, 64, 101
1, 364944, Control_c, 0, 67, 92
1, 364958, Control_c, 0, 64, 103
1, 364966, Note_off_c, 0, 62, 64
1, 364973, Note_off_c, 0, 58, 63
1, 364973, Control_c, 0, 64, 104
1, 364977, Note_off_c, 0, 55, 59
1, 364988, Control_c, 0, 64, 105
1, 365003, Control_c, 0, 64, 106
1, 365003, Control_c, 0, 67, 92
1, 365013, Note_on_c, 0, 67, 72
1, 365014, Note_on_c, 0, 70, 72
1, 365018, Control_c, 0, 64, 109
1, 365020, Note_on_c, 0, 60, 71
1, 365027, Note_on_c, 0, 62, 59
1, 365032, Control_c, 0, 64, 115
1, 365043, Note_off_c, 0, 67, 66
1, 365047, Control_c, 0, 64, 120
1, 365047, Control_c, 0, 67, 93
1, 365053, Note_off_c, 0, 62, 57
1, 365060, Note_off_c, 0, 60, 57
1, 365062, Control_c, 0, 64, 127
1, 365071, Note_off_c, 0, 70, 62
1, 365100, Note_on_c, 0, 58, 62
1, 365108, Note_on_c, 0, 62, 49
1, 365110, Note_on_c, 0, 55, 48
1, 365132, Note_off_c, 0, 62, 62
1, 365136, Note_off_c, 0, 58, 63
1, 365136, Control_c, 0, 67, 93
1, 365140, Note_off_c, 0, 55, 65
1, 365156, Note_on_c, 0, 69, 73
1, 365161, Note_on_c, 0, 60, 59
1, 365163, Note_on_c, 0, 65, 69
1, 365165, Control_c, 0, 67, 93
1, 365180, Note_on_c, 0, 71, 45
1, 365204, Note_off_c, 0, 71, 57
1, 365216, Note_off_c, 0, 60, 61
1, 365220, Note_off_c, 0, 69, 65
1, 365241, Note_off_c, 0, 65, 59
1, 365253, Note_on_c, 0, 58, 59
1, 365261, Note_on_c, 0, 55, 47
1, 365265, Note_on_c, 0, 62, 55
1, 365286, Note_off_c, 0, 62, 63
1, 365290, Note_off_c, 0, 58, 63
1, 365293, Note_off_c, 0, 55, 63
1, 365319, Note_on_c, 0, 60, 68
1, 365326, Note_on_c, 0, 67, 56
1, 365330, Note_on_c, 0, 69, 60
1, 365334, Note_on_c, 0, 64, 41
1, 365358, Control_c, 0, 67, 93
1, 365366, Note_off_c, 0, 64, 53
1, 365366, Note_off_c, 0, 69, 50
1, 365371, Note_off_c, 0, 60, 55
1, 365377, Note_off_c, 0, 67, 59
1, 365399, Note_on_c, 0, 58, 64
1, 365401, Note_on_c, 0, 55, 55
1, 365403, Note_on_c, 0, 62, 62
1, 365403, Control_c, 0, 64, 88
1, 365418, Control_c, 0, 64, 67
1, 365432, Control_c, 0, 64, 48
1, 365446, Note_off_c, 0, 62, 52
1, 365447, Control_c, 0, 64, 19
1, 365448, Note_off_c, 0, 55, 61
1, 365451, Note_off_c, 0, 58, 63
1, 365462, Control_c, 0, 64, 23
1, 365473, Note_on_c, 0, 67, 67
1, 365475, Note_on_c, 0, 60, 76
1, 365477, Control_c, 0, 64, 46
1, 365481, Note_on_c, 0, 62, 60
1, 365483, Note_on_c, 0, 65, 54
1, 365488, Note_on_c, 0, 64, 42
1, 365493, Control_c, 0, 64, 64
1, 365508, Control_c, 0, 64, 78
1, 365508, Control_c, 0, 67, 94
1, 365523, Control_c, 0, 64, 96
1, 365524, Note_off_c, 0, 67, 57
1, 365526, Note_off_c, 0, 62, 65
1, 365526, Note_off_c, 0, 65, 61
1, 365530, Note_off_c, 0, 64, 61
1, 365535, Note_off_c, 0, 60, 60
1, 365537, Control_c, 0, 64, 119
1, 365552, Control_c, 0, 64, 127
1, 365558, Note_on_c, 0, 58, 67
1, 365564, Note_on_c, 0, 62, 54
1, 365567, Control_c, 0, 67, 93
1, 365568, Note_on_c, 0, 55, 60
1, 365596, Control_c, 0, 67, 93
1, 365597, Note_off_c, 0, 62, 64
1, 365600, Note_off_c, 0, 55, 60
1, 365603, Note_off_c, 0, 58, 63
1, 365622, Note_on_c, 0, 65, 66
1, 365626, Control_c, 0, 67, 93
1, 365631, Note_on_c, 0, 64, 64
1, 365651, Note_on_c, 0, 62, 53
1, 365663, Note_on_c, 0, 60, 55
1, 365685, Note_off_c, 0, 62, 54
1, 365687, Note_off_c, 0, 60, 63
1, 365700, Note_off_c, 0, 65, 63
1, 365703, Note_off_c, 0, 64, 65
1, 365730, Note_on_c, 0, 58, 64
1, 365735, Note_on_c, 0, 62, 52
1, 365738, Note_on_c, 0, 55, 41
1, 365761, Note_off_c, 0, 62, 62
1, 365763, Note_off_c, 0, 58, 64
1, 365767, Note_off_c, 0, 55, 63
1, 365808, Note_on_c, 0, 65, 58
1, 365809, Note_on_c, 0, 64, 71
1, 365812, Note_on_c, 0, 62, 64
1, 365816, Note_on_c, 0, 60, 50
1, 365835, Note_off_c, 0, 65, 65
1, 365855, Control_c, 0, 67, 93
1, 365863, Note_off_c, 0, 60, 56
1, 365870, Control_c, 0, 67, 93
1, 365874, Note_off_c, 0, 64, 63
1, 365880, Note_on_c, 0, 58, 54
1, 365886, Note_on_c, 0, 55, 44
1, 365917, Note_off_c, 0, 58, 60
1, 365918, Note_off_c, 0, 62, 60
1, 365922, Note_off_c, 0, 55, 61
1, 365951, Note_on_c, 0, 65, 66
1, 365959, Control_c, 0, 67, 93
1, 365973, Note_on_c, 0, 60, 64
1, 365981, Note_on_c, 0, 64, 76
1, 365988, Note_on_c, 0, 62, 58
1, 365988, Control_c, 0, 67, 93
1, 366009, Note_off_c, 0, 65, 63
1, 366018, Control_c, 0, 64, 85
1, 366020, Note_off_c, 0, 60, 59
1, 366030, Note_on_c, 0, 58, 64
1, 366030, Note_off_c, 0, 62, 0
1, 366030, Note_on_c, 0, 62, 54
1, 366033, Control_c, 0, 64, 64
1, 366035, Note_off_c, 0, 64, 64
1, 366037, Note_on_c, 0, 55, 51
1, 366048, Control_c, 0, 64, 47
1, 366048, Control_c, 0, 67, 94
1, 366062, Control_c, 0, 64, 42
1, 366075, Note_off_c, 0, 62, 66
1, 366077, Control_c, 0, 64, 54
1, 366077, Control_c, 0, 67, 93
1, 366084, Note_off_c, 0, 55, 56
1, 366092, Note_off_c, 0, 58, 58
1, 366092, Control_c, 0, 64, 66
1, 366107, Control_c, 0, 64, 80
1, 366120, Note_on_c, 0, 67, 78
1, 366122, Control_c, 0, 64, 103
1, 366124, Note_on_c, 0, 62, 80
1, 366128, Note_on_c, 0, 60, 78
1, 366128, Note_on_c, 0, 65, 75
1, 366137, Control_c, 0, 64, 127
1, 366158, Note_off_c, 0, 67, 58
1, 366164, Note_off_c, 0, 62, 60
1, 366167, Note_off_c, 0, 60, 52
1, 366167, Control_c, 0, 67, 93
1, 366181, Control_c, 0, 67, 92
1, 366202, Note_off_c, 0, 65, 54
1, 366220, Note_on_c, 0, 58, 64
1, 366228, Note_on_c, 0, 62, 58
1, 366241, Control_c, 0, 67, 93
1, 366291, Note_on_c, 0, 65, 81
1, 366293, Note_on_c, 0, 60, 79
1, 366294, Note_on_c, 0, 67, 71
1, 366336, Note_on_c, 0, 55, 60
1, 366341, Note_off_c, 0, 62, 52
1, 366345, Control_c, 0, 64, 103
1, 366345, Control_c, 0, 67, 92
1, 366352, Note_off_c, 0, 60, 54
1, 366357, Note_off_c, 0, 65, 59
1, 366360, Control_c, 0, 64, 68
1, 366360, Note_off_c, 0, 58, 65
1, 366364, Note_off_c, 0, 67, 52
1, 366375, Control_c, 0, 64, 54
1, 366390, Control_c, 0, 64, 52
1, 366390, Control_c, 0, 67, 93
1, 366409, Note_off_c, 0, 55, 58
1, 366411, Control_c, 0, 64, 60
1, 366426, Control_c, 0, 64, 71
1, 366435, Note_on_c, 0, 62, 68
1, 366441, Control_c, 0, 64, 87
1, 366441, Control_c, 0, 67, 92
1, 366445, Note_on_c, 0, 60, 58
1, 366456, Control_c, 0, 64, 127
1, 366458, Note_on_c, 0, 65, 84
1, 366467, Note_off_c, 0, 60, 62
1, 366471, Note_on_c, 0, 67, 80
1, 366471, Control_c, 0, 67, 92
1, 366481, Note_off_c, 0, 62, 46
1, 366481, Note_off_c, 0, 65, 68
1, 366483, Note_on_c, 0, 57, 8
1, 366486, Control_c, 0, 67, 91
1, 366492, Note_off_c, 0, 67, 67
1, 366508, Note_on_c, 0, 55, 65
1, 366545, Control_c, 0, 67, 92
1, 366548, Note_off_c, 0, 57, 46
1, 366573, Note_on_c, 0, 67, 9
1, 366590, Control_c, 0, 67, 92
1, 366616, Note_off_c, 0, 67, 36
1, 366619, Control_c, 0, 67, 93
1, 366623, Note_off_c, 0, 55, 59
1, 366623, Note_on_c, 0, 62, 43
1, 366629, Note_on_c, 0, 76, 75
1, 366638, Note_on_c, 0, 60, 44
1, 366638, Note_on_c, 0, 79, 66
1, 366649, Control_c, 0, 67, 92
1, 366662, Note_off_c, 0, 76, 59
1, 366664, Control_c, 0, 64, 96
1, 366668, Note_on_c, 0, 57, 49
1, 366668, Note_off_c, 0, 60, 50
1, 366678, Note_off_c, 0, 79, 42
1, 366678, Control_c, 0, 64, 68
1, 366682, Note_off_c, 0, 62, 56
1, 366693, Control_c, 0, 64, 52
1, 366693, Control_c, 0, 67, 93
1, 366700, Note_on_c, 0, 81, 64
1, 366708, Control_c, 0, 64, 50
1, 366712, Note_on_c, 0, 77, 37
1, 366715, Note_on_c, 0, 55, 57
1, 366716, Note_off_c, 0, 81, 66
1, 366723, Note_off_c, 0, 57, 63
1, 366723, Control_c, 0, 64, 62
1, 366737, Control_c, 0, 64, 79
1, 366737, Control_c, 0, 67, 93
1, 366739, Note_off_c, 0, 77, 36
1, 366752, Control_c, 0, 64, 127
1, 366752, Control_c, 0, 67, 94
1, 366767, Control_c, 0, 67, 94
1, 366769, Note_on_c, 0, 83, 33
1, 366784, Note_on_c, 0, 79, 76
1, 366785, Note_on_c, 0, 62, 67
1, 366792, Note_on_c, 0, 60, 63
1, 366794, Note_off_c, 0, 55, 63
1, 366796, Note_on_c, 0, 81, 49
1, 366802, Note_off_c, 0, 79, 58
1, 366804, Note_on_c, 0, 82, 29
1, 366811, Control_c, 0, 67, 94
1, 366819, Note_off_c, 0, 81, 57
1, 366826, Control_c, 0, 67, 93
1, 366831, Note_off_c, 0, 60, 52
1, 366837, Note_off_c, 0, 83, 65
1, 366838, Note_off_c, 0, 62, 61
1, 366841, Control_c, 0, 67, 92
1, 366849, Note_off_c, 0, 82, 41
1, 366856, Control_c, 0, 67, 92
1, 366857, Poly_aftertouch_c, 0, 57, 127
1, 366867, Note_on_c, 0, 55, 71
1, 366885, Control_c, 0, 67, 91
1, 366899, Poly_aftertouch_c, 0, 77, 0
1, 366915, Control_c, 0, 67, 91
1, 366930, Control_c, 0, 67, 90
1, 366935, Note_on_c, 0, 77, 63
1, 366937, Note_on_c, 0, 81, 63
1, 366945, Control_c, 0, 67, 89
1, 366951, Note_off_c, 0, 55, 62
1, 366954, Note_on_c, 0, 62, 59
1, 366960, Control_c, 0, 67, 89
1, 366961, Note_on_c, 0, 60, 56
1, 366975, Poly_aftertouch_c, 0, 58, 127
1, 366987, Note_off_c, 0, 60, 63
1, 366989, Note_off_c, 0, 62, 66
1, 366997, Note_off_c, 0, 81, 64
1, 367001, Poly_aftertouch_c, 0, 58, 0
1, 367008, Note_off_c, 0, 77, 65
1, 367019, Control_c, 0, 67, 88
1, 367031, Note_on_c, 0, 55, 71
1, 367034, Control_c, 0, 67, 87
1, 367049, Control_c, 0, 67, 85
1, 367063, Control_c, 0, 64, 87
1, 367063, Control_c, 0, 67, 83
1, 367076, Poly_aftertouch_c, 0, 57, 0
1, 367079, Control_c, 0, 64, 66
1, 367079, Control_c, 0, 67, 82
1, 367094, Control_c, 0, 64, 59
1, 367094, Control_c, 0, 67, 79
1, 367099, Note_off_c, 0, 55, 56
1, 367104, Note_on_c, 0, 60, 56
1, 367105, Note_on_c, 0, 81, 75
1, 367107, Note_on_c, 0, 64, 66
1, 367108, Note_on_c, 0, 76, 78
1, 367109, Control_c, 0, 64, 63
1, 367109, Control_c, 0, 67, 75
1, 367111, Note_on_c, 0, 79, 77
1, 367118, Note_on_c, 0, 57, 42
1, 367124, Control_c, 0, 64, 74
1, 367124, Control_c, 0, 67, 68
1, 367137, Note_off_c, 0, 64, 66
1, 367138, Control_c, 0, 64, 105
1, 367138, Control_c, 0, 67, 62
1, 367160, Control_c, 0, 64, 127
1, 367160, Control_c, 0, 67, 54
1, 367162, Note_off_c, 0, 76, 59
1, 367164, Note_off_c, 0, 81, 62
1, 367175, Note_off_c, 0, 79, 62
1, 367175, Control_c, 0, 67, 45
1, 367177, Note_off_c, 0, 60, 45
1, 367190, Control_c, 0, 67, 35
1, 367204, Note_off_c, 0, 57, 62
1, 367205, Control_c, 0, 67, 26
1, 367215, Note_on_c, 0, 58, 55
1, 367220, Control_c, 0, 67, 19
1, 367234, Control_c, 0, 67, 15
1, 367236, Note_on_c, 0, 55, 32
1, 367249, Control_c, 0, 67, 13
1, 367255, Note_on_c, 0, 64, 57
1, 367264, Note_off_c, 0, 55, 55
1, 367283, Note_on_c, 0, 74, 76
1, 367285, Note_on_c, 0, 60, 52
1, 367291, Note_on_c, 0, 77, 71
1, 367291, Note_on_c, 0, 79, 71
1, 367294, Control_c, 0, 67, 14
1, 367305, Note_off_c, 0, 64, 63
1, 367308, Control_c, 0, 67, 15
1, 367320, Note_off_c, 0, 79, 66
1, 367323, Control_c, 0, 67, 15
1, 367326, Note_off_c, 0, 74, 61
1, 367329, Note_off_c, 0, 60, 60
1, 367336, Note_on_c, 0, 55, 70
1, 367336, Note_off_c, 0, 58, 51
1, 367338, Note_off_c, 0, 77, 58
1, 367368, Control_c, 0, 64, 80
1, 367368, Control_c, 0, 67, 15
1, 367383, Control_c, 0, 64, 63
1, 367383, Control_c, 0, 67, 14
1, 367398, Control_c, 0, 64, 54
1, 367398, Control_c, 0, 67, 14
1, 367411, Note_off_c, 0, 55, 61
1, 367413, Control_c, 0, 64, 59
1, 367413, Control_c, 0, 67, 13
1, 367428, Control_c, 0, 64, 70
1, 367428, Control_c, 0, 67, 12
1, 367432, Note_on_c, 0, 62, 59
1, 367434, Note_on_c, 0, 60, 47
1, 367439, Note_on_c, 0, 72, 80
1, 367440, Note_on_c, 0, 57, 44
1, 367442, Control_c, 0, 64, 94
1, 367442, Control_c, 0, 67, 12
1, 367443, Note_on_c, 0, 77, 71
1, 367447, Note_on_c, 0, 76, 71
1, 367449, Note_on_c, 0, 58, 40
1, 367457, Control_c, 0, 64, 127
1, 367457, Control_c, 0, 67, 11
1, 367466, Note_off_c, 0, 60, 62
1, 367468, Note_off_c, 0, 62, 62
1, 367469, Note_off_c, 0, 77, 67
1, 367472, Control_c, 0, 67, 9
1, 367486, Note_off_c, 0, 72, 61
1, 367486, Control_c, 0, 67, 0
1, 367493, Note_off_c, 0, 58, 63
1, 367496, Note_off_c, 0, 57, 48
1, 367504, Note_off_c, 0, 76, 62
1, 367505, Note_on_c, 0, 55, 61
1, 367575, Note_off_c, 0, 55, 62
1, 367579, Note_on_c, 0, 62, 59
1, 367604, Note_on_c, 0, 58, 49
1, 367605, Note_on_c, 0, 60, 32
1, 367608, Note_on_c, 0, 72, 71
1, 367612, Note_on_c, 0, 77, 64
1, 367615, Note_on_c, 0, 76, 74
1, 367624, Note_off_c, 0, 62, 64
1, 367634, Note_off_c, 0, 58, 65
1, 367635, Note_off_c, 0, 77, 69
1, 367643, Note_off_c, 0, 60, 43
1, 367652, Note_off_c, 0, 72, 61
1, 367665, Poly_aftertouch_c, 0, 57, 127
1, 367668, Note_off_c, 0, 76, 63
1, 367672, Note_on_c, 0, 55, 71
1, 367702, Poly_aftertouch_c, 0, 57, 0
1, 367723, Control_c, 0, 64, 104
1, 367727, Note_off_c, 0, 55, 61
1, 367738, Control_c, 0, 64, 104
1, 367750, Note_on_c, 0, 64, 67
1, 367753, Control_c, 0, 64, 117
1, 367753, Control_c, 0, 67, 8
1, 367758, Note_on_c, 0, 60, 42
1, 367761, Note_on_c, 0, 77, 58
1, 367762, Note_on_c, 0, 72, 81
1, 367767, Control_c, 0, 64, 127
1, 367769, Note_on_c, 0, 76, 78
1, 367785, Note_off_c, 0, 64, 65
1, 367797, Control_c, 0, 67, 8
1, 367799, Note_on_c, 0, 57, 66
1, 367806, Note_off_c, 0, 72, 61
1, 367812, Control_c, 0, 67, 9
1, 367821, Note_off_c, 0, 77, 66
1, 367827, Control_c, 0, 67, 9
1, 367827, Note_off_c, 0, 76, 62
1, 367842, Control_c, 0, 67, 10
1, 367851, Note_off_c, 0, 60, 36
1, 367892, Note_off_c, 0, 57, 63
1, 367896, Note_on_c, 0, 58, 54
1, 367907, Note_on_c, 0, 64, 65
1, 367920, Note_on_c, 0, 72, 78
1, 367934, Note_on_c, 0, 76, 75
1, 367937, Note_on_c, 0, 60, 44
1, 367939, Poly_aftertouch_c, 0, 55, 127
1, 367941, Note_on_c, 0, 77, 69
1, 367959, Note_off_c, 0, 58, 51
1, 367963, Note_off_c, 0, 64, 65
1, 367968, Poly_aftertouch_c, 0, 55, 0
1, 367968, Note_off_c, 0, 72, 62
1, 367975, Note_off_c, 0, 77, 63
1, 367988, Note_off_c, 0, 76, 64
1, 367990, Note_off_c, 0, 60, 60
1, 367991, Note_on_c, 0, 55, 48
1, 368013, Control_c, 0, 64, 101
1, 368028, Control_c, 0, 64, 72
1, 368043, Control_c, 0, 64, 60
1, 368057, Control_c, 0, 64, 59
1, 368072, Control_c, 0, 64, 68
1, 368077, Note_off_c, 0, 55, 61
1, 368079, Note_on_c, 0, 74, 81
1, 368087, Control_c, 0, 64, 86
1, 368088, Note_on_c, 0, 62, 61
1, 368089, Note_on_c, 0, 79, 72
1, 368091, Note_on_c, 0, 57, 50
1, 368092, Note_on_c, 0, 77, 66
1, 368094, Note_on_c, 0, 60, 57
1, 368102, Control_c, 0, 64, 127
1, 368107, Note_on_c, 0, 58, 48
1, 368116, Control_c, 0, 67, 10
1, 368122, Note_off_c, 0, 60, 62
1, 368128, Note_off_c, 0, 62, 64
1, 368131, Control_c, 0, 67, 11
1, 368135, Note_off_c, 0, 74, 61
1, 368149, Note_off_c, 0, 77, 62
1, 368150, Note_off_c, 0, 57, 62
1, 368150, Note_off_c, 0, 58, 63
1, 368150, Note_off_c, 0, 79, 62
1, 368161, Note_on_c, 0, 55, 63
1, 368237, Note_off_c, 0, 55, 63
1, 368238, Note_on_c, 0, 62, 62
1, 368241, Note_on_c, 0, 74, 78
1, 368250, Note_on_c, 0, 79, 78
1, 368253, Note_on_c, 0, 58, 57
1, 368259, Note_on_c, 0, 60, 40
1, 368260, Note_on_c, 0, 77, 70
1, 368280, Note_off_c, 0, 62, 62
1, 368283, Note_on_c, 0, 57, 26
1, 368289, Note_off_c, 0, 74, 63
1, 368296, Note_off_c, 0, 58, 63
1, 368297, Note_off_c, 0, 60, 44
1, 368300, Note_off_c, 0, 77, 60
1, 368303, Note_off_c, 0, 79, 63
1, 368325, Note_off_c, 0, 57, 49
1, 368335, Note_on_c, 0, 55, 70
1, 368387, Note_off_c, 0, 55, 61
1, 368394, Note_on_c, 0, 76, 83
1, 368401, Note_on_c, 0, 81, 74
1, 368403, Note_on_c, 0, 79, 75
1, 368404, Note_on_c, 0, 64, 65
1, 368406, Note_on_c, 0, 60, 57
1, 368437, Note_off_c, 0, 76, 61
1, 368442, Note_off_c, 0, 64, 61
1, 368444, Note_on_c, 0, 57, 55
1, 368447, Note_off_c, 0, 79, 60
1, 368447, Note_off_c, 0, 81, 62
1, 368476, Note_off_c, 0, 60, 40
1, 368487, Control_c, 0, 67, 11
1, 368540, Note_on_c, 0, 58, 53
1, 368543, Note_on_c, 0, 55, 46
1, 368547, Note_on_c, 0, 77, 75
1, 368548, Note_off_c, 0, 57, 61
1, 368554, Note_on_c, 0, 64, 59
1, 368554, Note_on_c, 0, 80, 62
1, 368566, Note_off_c, 0, 55, 64
1, 368578, Note_on_c, 0, 60, 52
1, 368584, Note_off_c, 0, 58, 55
1, 368587, Note_on_c, 0, 81, 54
1, 368591, Note_off_c, 0, 64, 62
1, 368601, Note_on_c, 0, 83, 35
1, 368609, Note_off_c, 0, 80, 41
1, 368613, Note_off_c, 0, 77, 64
1, 368614, Note_off_c, 0, 60, 60
1, 368620, Note_off_c, 0, 81, 64
1, 368632, Note_off_c, 0, 83, 48
1, 368635, Note_on_c, 0, 55, 71
1, 368657, Control_c, 0, 64, 101
1, 368672, Control_c, 0, 64, 67
1, 368688, Control_c, 0, 64, 52
1, 368703, Control_c, 0, 64, 48
1, 368715, Note_on_c, 0, 84, 80
1, 368718, Note_on_c, 0, 79, 82
1, 368718, Control_c, 0, 64, 58
1, 368722, Note_off_c, 0, 55, 62
1, 368732, Note_on_c, 0, 62, 54
1, 368732, Control_c, 0, 64, 72
1, 368735, Note_on_c, 0, 60, 52
1, 368736, Note_on_c, 0, 82, 61
1, 368739, Note_on_c, 0, 57, 50
1, 368747, Control_c, 0, 64, 106
1, 368762, Control_c, 0, 64, 127
1, 368762, Control_c, 0, 67, 12
1, 368769, Note_off_c, 0, 60, 60
1, 368771, Note_off_c, 0, 62, 62
1, 368777, Control_c, 0, 67, 12
1, 368778, Note_off_c, 0, 57, 61
1, 368786, Note_off_c, 0, 82, 58
1, 368798, Note_off_c, 0, 79, 61
1, 368800, Note_on_c, 0, 55, 67
1, 368810, Note_off_c, 0, 84, 65
1, 368821, Control_c, 0, 67, 12
1, 368836, Control_c, 0, 67, 11
1, 368873, Note_off_c, 0, 55, 63
1, 368880, Note_on_c, 0, 62, 55
1, 368882, Note_on_c, 0, 79, 78
1, 368886, Note_on_c, 0, 58, 60
1, 368888, Note_on_c, 0, 82, 75
1, 368892, Note_on_c, 0, 60, 50
1, 368905, Note_on_c, 0, 57, 17
1, 368913, Note_off_c, 0, 58, 64
1, 368921, Note_off_c, 0, 60, 53
1, 368926, Note_off_c, 0, 62, 62
1, 368927, Note_off_c, 0, 79, 62
1, 368947, Note_off_c, 0, 82, 63
1, 368959, Note_off_c, 0, 57, 44
1, 368962, Note_on_c, 0, 55, 71
1, 368969, Control_c, 0, 67, 11
1, 368984, Control_c, 0, 67, 10
1, 369013, Control_c, 0, 64, 87
1, 369013, Control_c, 0, 67, 10
1, 369022, Note_off_c, 0, 55, 60
1, 369028, Control_c, 0, 64, 75
1, 369028, Control_c, 0, 67, 9
1, 369030, Note_on_c, 0, 82, 64
1, 369034, Note_on_c, 0, 60, 54
1, 369041, Note_on_c, 0, 64, 67
1, 369043, Control_c, 0, 64, 74
1, 369043, Control_c, 0, 67, 9
1, 369045, Note_on_c, 0, 77, 69
1, 369047, Note_on_c, 0, 81, 62
1, 369049, Note_off_c, 0, 82, 61
1, 369058, Control_c, 0, 64, 80
1, 369058, Control_c, 0, 67, 8
1, 369066, Note_on_c, 0, 83, 53
1, 369069, Note_on_c, 0, 57, 59
1, 369073, Control_c, 0, 64, 107
1, 369073, Control_c, 0, 67, 0
1, 369075, Note_off_c, 0, 64, 63
1, 369085, Note_off_c, 0, 83, 62
1, 369088, Control_c, 0, 64, 127
1, 369107, Note_off_c, 0, 60, 40
1, 369109, Note_off_c, 0, 77, 66
1, 369109, Note_off_c, 0, 81, 64
1, 369149, Note_on_c, 0, 58, 57
1, 369153, Note_on_c, 0, 55, 45
1, 369156, Note_off_c, 0, 57, 62
1, 369183, Note_off_c, 0, 55, 59
1, 369184, Note_on_c, 0, 64, 63
1, 369205, Note_on_c, 0, 81, 77
1, 369206, Note_on_c, 0, 79, 73
1, 369211, Note_on_c, 0, 76, 54
1, 369221, Note_off_c, 0, 58, 58
1, 369225, Note_on_c, 0, 60, 52
1, 369229, Note_on_c, 0, 77, 53
1, 369229, Note_off_c, 0, 64, 65
1, 369247, Note_off_c, 0, 81, 56
1, 369249, Note_off_c, 0, 77, 62
1, 369261, Note_on_c, 0, 55, 71
1, 369264, Note_off_c, 0, 60, 61
1, 369265, Note_off_c, 0, 76, 59
1, 369265, Control_c, 0, 67, 8
1, 369268, Note_off_c, 0, 79, 65
1, 369310, Control_c, 0, 64, 85
1, 369324, Control_c, 0, 64, 64
1, 369336, Note_off_c, 0, 55, 60
1, 369339, Control_c, 0, 64, 52
1, 369354, Note_on_c, 0, 62, 67
1, 369354, Control_c, 0, 64, 53
1, 369355, Note_on_c, 0, 77, 54
1, 369357, Note_on_c, 0, 74, 75
1, 369358, Note_on_c, 0, 79, 74
1, 369360, Note_on_c, 0, 57, 37
1, 369361, Note_on_c, 0, 60, 54
1, 369369, Control_c, 0, 64, 65
1, 369380, Note_on_c, 0, 58, 44
1, 369384, Control_c, 0, 64, 82
1, 369389, Note_off_c, 0, 79, 67
1, 369403, Note_off_c, 0, 60, 59
1, 369406, Control_c, 0, 64, 127
1, 369407, Note_off_c, 0, 62, 60
1, 369420, Note_off_c, 0, 58, 46
1, 369428, Note_off_c, 0, 74, 64
1, 369439, Note_off_c, 0, 77, 65
1, 369448, Note_on_c, 0, 55, 74
1, 369449, Note_off_c, 0, 57, 37
1, 369481, Control_c, 0, 67, 0
1, 369520, Note_on_c, 0, 62, 65
1, 369520, Note_off_c, 0, 55, 61
1, 369529, Note_on_c, 0, 77, 69
1, 369532, Note_on_c, 0, 58, 57
1, 369535, Note_on_c, 0, 60, 54
1, 369538, Note_on_c, 0, 72, 73
1, 369538, Note_on_c, 0, 76, 73
1, 369556, Note_off_c, 0, 60, 61
1, 369556, Note_off_c, 0, 77, 68
1, 369559, Note_off_c, 0, 58, 66
1, 369562, Note_off_c, 0, 62, 63
1, 369571, Note_off_c, 0, 76, 66
1, 369590, Note_off_c, 0, 72, 63
1, 369626, Note_on_c, 0, 55, 59
1, 369678, Note_on_c, 0, 60, 48
1, 369678, Note_off_c, 0, 55, 55
1, 369685, Note_on_c, 0, 77, 48
1, 369688, Note_on_c, 0, 64, 65
1, 369690, Note_on_c, 0, 57, 10
1, 369690, Note_on_c, 0, 76, 79
1, 369696, Note_on_c, 0, 72, 79
1, 369708, Note_off_c, 0, 77, 43
1, 369719, Note_off_c, 0, 64, 64
1, 369738, Note_off_c, 0, 72, 59
1, 369750, Note_off_c, 0, 76, 65
1, 369759, Note_off_c, 0, 60, 61
1, 369805, Note_on_c, 0, 55, 51
1, 369828, Note_off_c, 0, 57, 54
1, 369831, Note_on_c, 0, 64, 62
1, 369832, Note_on_c, 0, 58, 55
1, 369837, Note_off_c, 0, 55, 63
1, 369842, Note_on_c, 0, 77, 65
1, 369847, Note_on_c, 0, 72, 77
1, 369851, Note_on_c, 0, 76, 77
1, 369869, Note_off_c, 0, 58, 65
1, 369875, Note_on_c, 0, 60, 48
1, 369884, Note_off_c, 0, 77, 67
1, 369890, Note_off_c, 0, 64, 63
1, 369898, Note_off_c, 0, 72, 60
1, 369911, Note_off_c, 0, 76, 66
1, 369914, Note_off_c, 0, 60, 60
1, 369919, Note_on_c, 0, 55, 64
1, 369941, Control_c, 0, 64, 106
1, 369955, Control_c, 0, 64, 72
1, 369970, Control_c, 0, 64, 61
1, 369985, Control_c, 0, 64, 64
1, 370000, Control_c, 0, 64, 73
1, 370006, Note_off_c, 0, 55, 63
1, 370007, Note_on_c, 0, 62, 70
1, 370007, Note_on_c, 0, 79, 77
1, 370012, Note_on_c, 0, 74, 77
1, 370012, Note_on_c, 0, 57, 23
1, 370014, Note_on_c, 0, 77, 75
1, 370015, Control_c, 0, 64, 96
1, 370016, Note_on_c, 0, 60, 53
1, 370020, Note_on_c, 0, 58, 51
1, 370027, Note_off_c, 0, 79, 70
1, 370029, Control_c, 0, 64, 127
1, 370043, Note_off_c, 0, 60, 59
1, 370046, Note_off_c, 0, 62, 64
1, 370064, Note_off_c, 0, 74, 64
1, 370072, Note_off_c, 0, 77, 66
1, 370073, Note_off_c, 0, 57, 41
1, 370082, Note_off_c, 0, 58, 59
1, 370097, Note_on_c, 0, 55, 56
1, 370123, Note_on_c, 0, 57, 38
1, 370140, Note_off_c, 0, 55, 0
1, 370140, Note_on_c, 0, 55, 19
1, 370162, Note_on_c, 0, 62, 74
1, 370166, Note_off_c, 0, 57, 54
1, 370175, Note_on_c, 0, 77, 78
1, 370176, Note_on_c, 0, 74, 79
1, 370182, Note_on_c, 0, 79, 41
1, 370185, Note_off_c, 0, 55, 45
1, 370200, Note_on_c, 0, 59, 47
1, 370207, Note_off_c, 0, 79, 67
1, 370209, Note_off_c, 0, 62, 64
1, 370218, Note_off_c, 0, 74, 55
1, 370226, Note_off_c, 0, 59, 60
1, 370233, Note_off_c, 0, 77, 65
1, 370268, Note_on_c, 0, 55, 72
1, 370292, Note_on_c, 0, 57, 38
1, 370330, Note_off_c, 0, 57, 51
1, 370334, Note_on_c, 0, 74, 84
1, 370338, Note_on_c, 0, 79, 67
1, 370343, Note_off_c, 0, 55, 61
1, 370348, Note_on_c, 0, 77, 66
1, 370355, Note_on_c, 0, 67, 53
1, 370358, Note_off_c, 0, 74, 69
1, 370367, Note_on_c, 0, 76, 31
1, 370368, Note_off_c, 0, 76, 127
1, 370373, Note_on_c, 0, 65, 46
1, 370375, Note_off_c, 0, 77, 68
1, 370382, Note_off_c, 0, 79, 65
1, 370387, Note_on_c, 0, 60, 26
1, 370387, Note_off_c, 0, 67, 53
1, 370399, Note_off_c, 0, 65, 56
1, 370420, Note_on_c, 0, 57, 51
1, 370449, Note_off_c, 0, 60, 38
1, 370487, Note_on_c, 0, 76, 84
1, 370489, Note_on_c, 0, 55, 37
1, 370491, Poly_aftertouch_c, 0, 74, 0
1, 370493, Note_off_c, 0, 57, 60
1, 370512, Note_on_c, 0, 79, 48
1, 370531, Note_off_c, 0, 55, 44
1, 370534, Note_off_c, 0, 76, 64
1, 370534, Note_off_c, 0, 79, 61
1, 370544, Note_on_c, 0, 65, 16
1, 370546, Note_on_c, 0, 64, 28
1, 370584, Note_on_c, 0, 77, 76
1, 370584, Note_off_c, 0, 64, 46
1, 370585, Note_on_c, 0, 84, 72
1, 370587, Note_off_c, 0, 65, 39
1, 370599, Note_on_c, 0, 81, 50
1, 370631, Note_on_c, 0, 55, 55
1, 370631, Note_off_c, 0, 81, 62
1, 370649, Note_off_c, 0, 77, 64
1, 370651, Note_off_c, 0, 84, 62
1, 370674, Control_c, 0, 64, 102
1, 370681, Note_on_c, 0, 72, 94
1, 370689, Control_c, 0, 64, 66
1, 370704, Control_c, 0, 64, 51
1, 370710, Note_off_c, 0, 55, 60
1, 370719, Control_c, 0, 64, 48
1, 370733, Control_c, 0, 64, 58
1, 370735, Note_on_c, 0, 62, 36
1, 370739, Poly_aftertouch_c, 0, 57, 127
1, 370748, Control_c, 0, 64, 70
1, 370763, Control_c, 0, 64, 97
1, 370776, Note_off_c, 0, 62, 50
1, 370778, Control_c, 0, 64, 127
1, 370797, Poly_aftertouch_c, 0, 60, 127
1, 370808, Control_c, 0, 67, 8
1, 370823, Note_on_c, 0, 58, 43
1, 370826, Poly_aftertouch_c, 0, 60, 0
1, 370829, Poly_aftertouch_c, 0, 57, 0
1, 370832, Note_on_c, 0, 55, 58
1, 370847, Note_on_c, 0, 82, 64
1, 370849, Note_on_c, 0, 77, 61
1, 370865, Note_on_c, 0, 81, 47
1, 370876, Note_off_c, 0, 58, 56
1, 370877, Note_off_c, 0, 55, 59
1, 370890, Note_off_c, 0, 81, 59
1, 370904, Note_off_c, 0, 82, 64
1, 370918, Control_c, 0, 67, 9
1, 370930, Note_off_c, 0, 77, 63
1, 370933, Control_c, 0, 67, 9
1, 370961, Note_on_c, 0, 57, 41
1, 370994, Poly_aftertouch_c, 0, 62, 0
1, 370996, Note_on_c, 0, 55, 58
1, 371002, Note_off_c, 0, 57, 62
1, 371008, Note_on_c, 0, 81, 57
1, 371011, Note_on_c, 0, 76, 74
1, 371013, Note_on_c, 0, 58, 50
1, 371023, Note_on_c, 0, 79, 62
1, 371046, Note_off_c, 0, 55, 59
1, 371061, Note_off_c, 0, 58, 62
1, 371062, Note_off_c, 0, 79, 59
1, 371070, Note_off_c, 0, 76, 61
1, 371075, Note_off_c, 0, 81, 63
1, 371081, Note_off_c, 0, 72, 63
1, 371083, Note_on_c, 0, 62, 34
1, 371116, Note_on_c, 0, 57, 43
1, 371160, Note_off_c, 0, 62, 39
1, 371169, Note_on_c, 0, 55, 62
1, 371170, Note_on_c, 0, 69, 86
1, 371176, Note_off_c, 0, 57, 63
1, 371187, Note_on_c, 0, 79, 56
1, 371187, Poly_aftertouch_c, 0, 60, 0
1, 371190, Note_on_c, 0, 58, 44
1, 371196, Note_on_c, 0, 77, 43
1, 371217, Note_off_c, 0, 79, 66
1, 371224, Note_off_c, 0, 77, 57
1, 371229, Note_off_c, 0, 55, 58
1, 371246, Control_c, 0, 67, 10
1, 371250, Note_off_c, 0, 69, 66
1, 371261, Control_c, 0, 67, 11
1, 371275, Control_c, 0, 67, 12
1, 371277, Note_off_c, 0, 58, 49
1, 371290, Control_c, 0, 67, 14
1, 371305, Control_c, 0, 67, 18
1, 371315, Note_on_c, 0, 57, 38
1, 371320, Control_c, 0, 67, 21
1, 371334, Control_c, 0, 67, 26
1, 371349, Control_c, 0, 67, 33
1, 371364, Control_c, 0, 67, 38
1, 371379, Control_c, 0, 67, 43
1, 371381, Note_off_c, 0, 57, 62
1, 371388, Note_on_c, 0, 70, 88
1, 371393, Control_c, 0, 67, 45
1, 371401, Note_on_c, 0, 62, 42
1, 371402, Note_on_c, 0, 72, 32
1, 371404, Note_on_c, 0, 55, 15
1, 371407, Note_on_c, 0, 60, 40
1, 371408, Control_c, 0, 67, 46
1, 371417, Note_on_c, 0, 58, 46
1, 371423, Control_c, 0, 67, 47
1, 371435, Note_off_c, 0, 72, 50
1, 371438, Control_c, 0, 67, 49
1, 371443, Note_off_c, 0, 60, 51
1, 371444, Note_on_c, 0, 77, 3
1, 371445, Note_off_c, 0, 62, 57
1, 371453, Control_c, 0, 67, 51
1, 371467, Control_c, 0, 67, 52
1, 371482, Note_off_c, 0, 58, 60
1, 371482, Note_off_c, 0, 77, 35
1, 371482, Control_c, 0, 67, 53
1, 371497, Control_c, 0, 67, 54
1, 371508, Note_on_c, 0, 57, 56
1, 371537, Note_off_c, 0, 55, 45
1, 371541, Note_on_c, 0, 72, 57
1, 371541, Control_c, 0, 67, 54
1, 371553, Note_on_c, 0, 62, 52
1, 371556, Control_c, 0, 67, 55
1, 371566, Note_on_c, 0, 77, 68
1, 371567, Note_on_c, 0, 60, 42
1, 371571, Control_c, 0, 67, 55
1, 371577, Note_off_c, 0, 57, 62
1, 371590, Note_on_c, 0, 76, 44
1, 371595, Note_off_c, 0, 62, 51
1, 371596, Note_off_c, 0, 60, 51
1, 371628, Note_on_c, 0, 58, 40
1, 371646, Note_on_c, 0, 55, 63
1, 371651, Note_off_c, 0, 70, 62
1, 371652, Note_off_c, 0, 76, 41
1, 371663, Note_off_c, 0, 77, 54
1, 371676, Note_off_c, 0, 58, 52
1, 371719, Note_off_c, 0, 55, 60
1, 371727, Control_c, 0, 67, 56
1, 371731, Note_on_c, 0, 69, 84
1, 371735, Note_on_c, 0, 57, 49
1, 371738, Note_on_c, 0, 62, 49
1, 371739, Note_on_c, 0, 77, 41
1, 371756, Control_c, 0, 67, 56
1, 371762, Note_on_c, 0, 60, 29
1, 371782, Note_off_c, 0, 62, 49
1, 371785, Note_off_c, 0, 57, 56
1, 371786, Note_off_c, 0, 77, 61
1, 371786, Control_c, 0, 67, 57
1, 371803, Note_off_c, 0, 60, 41
1, 371810, Note_off_c, 0, 69, 61
1, 371827, Note_off_c, 0, 72, 0
1, 371830, Note_on_c, 0, 58, 32
1, 371848, Note_on_c, 0, 55, 53
1, 371853, Note_on_c, 0, 72, 18
1, 371887, Note_off_c, 0, 58, 40
1, 371893, Note_off_c, 0, 55, 58
1, 371910, Note_on_c, 0, 62, 56
1, 371913, Note_on_c, 0, 67, 84
1, 371923, Note_on_c, 0, 77, 43
1, 371926, Note_on_c, 0, 57, 39
1, 371932, Note_on_c, 0, 60, 33
1, 371934, Note_on_c, 0, 79, 38
1, 371938, Note_off_c, 0, 72, 60
1, 371959, Note_off_c, 0, 77, 65
1, 371959, Note_off_c, 0, 62, 60
1, 371961, Note_off_c, 0, 79, 55
1, 371970, Note_off_c, 0, 60, 44
1, 371993, Note_off_c, 0, 67, 62
1, 371994, Note_off_c, 0, 57, 55
1, 372039, Control_c, 0, 64, 88
1, 372041, Note_on_c, 0, 55, 55
1, 372042, Note_on_c, 0, 79, 74
1, 372043, Note_on_c, 0, 58, 43
1, 372054, Control_c, 0, 64, 78
1, 372060, Note_on_c, 0, 77, 65
1, 372069, Control_c, 0, 64, 81
1, 372073, Note_on_c, 0, 74, 39
1, 372084, Control_c, 0, 64, 107
1, 372091, Note_off_c, 0, 55, 59
1, 372094, Note_off_c, 0, 58, 61
1, 372096, Note_off_c, 0, 77, 61
1, 372097, Note_on_c, 0, 62, 56
1, 372098, Control_c, 0, 64, 127
1, 372098, Control_c, 0, 67, 57
1, 372102, Note_off_c, 0, 74, 55
1, 372102, Note_on_c, 0, 65, 83
1, 372104, Note_on_c, 0, 60, 52
1, 372108, Note_off_c, 0, 79, 65
1, 372128, Control_c, 0, 67, 58
1, 372143, Note_off_c, 0, 60, 57
1, 372147, Note_off_c, 0, 62, 62
1, 372158, Note_off_c, 0, 65, 63
1, 372164, Note_on_c, 0, 57, 29
1, 372199, Note_on_c, 0, 58, 59
1, 372207, Note_on_c, 0, 55, 59
1, 372208, Note_off_c, 0, 57, 59
1, 372251, Note_off_c, 0, 58, 47
1, 372261, Note_off_c, 0, 55, 61
1, 372261, Control_c, 0, 67, 58
1, 372265, Poly_aftertouch_c, 0, 74, 127
1, 372267, Note_on_c, 0, 67, 63
1, 372279, Note_on_c, 0, 62, 45
1, 372289, Note_on_c, 0, 60, 49
1, 372302, Note_on_c, 0, 69, 35
1, 372314, Note_off_c, 0, 60, 56
1, 372319, Note_off_c, 0, 62, 53
1, 372323, Note_off_c, 0, 67, 62
1, 372336, Note_on_c, 0, 57, 43
1, 372368, Note_on_c, 0, 55, 65
1, 372375, Note_on_c, 0, 70, 71
1, 372376, Note_off_c, 0, 69, 65
1, 372380, Control_c, 0, 67, 58
1, 372411, Note_off_c, 0, 70, 66
1, 372413, Poly_aftertouch_c, 0, 74, 0
1, 372428, Note_off_c, 0, 57, 59
1, 372434, Note_off_c, 0, 55, 60
1, 372435, Note_on_c, 0, 62, 67
1, 372449, Note_on_c, 0, 72, 82
1, 372452, Note_on_c, 0, 60, 45
1, 372473, Note_on_c, 0, 58, 24
1, 372480, Note_off_c, 0, 60, 53
1, 372484, Note_off_c, 0, 62, 61
1, 372498, Note_off_c, 0, 72, 56
1, 372507, Note_on_c, 0, 74, 74
1, 372523, Note_on_c, 0, 55, 68
1, 372526, Note_on_c, 0, 76, 76
1, 372530, Note_off_c, 0, 58, 63
1, 372531, Note_off_c, 0, 74, 68
1, 372549, Note_off_c, 0, 76, 68
1, 372552, Note_on_c, 0, 57, 49
1, 372565, Control_c, 0, 67, 57
1, 372584, Note_on_c, 0, 77, 87
1, 372594, Note_off_c, 0, 55, 61
1, 372595, Control_c, 0, 67, 57
1, 372597, Note_on_c, 0, 62, 71
1, 372606, Note_off_c, 0, 57, 61
1, 372608, Note_on_c, 0, 60, 58
1, 372610, Control_c, 0, 67, 56
1, 372624, Control_c, 0, 67, 55
1, 372631, Note_on_c, 0, 76, 13
1, 372632, Note_off_c, 0, 76, 127
1, 372638, Note_off_c, 0, 77, 66
1, 372639, Control_c, 0, 67, 53
1, 372648, Note_on_c, 0, 79, 70
1, 372649, Note_off_c, 0, 60, 57
1, 372650, Note_off_c, 0, 62, 62
1, 372650, Note_on_c, 0, 58, 55
1, 372654, Control_c, 0, 67, 52
1, 372669, Control_c, 0, 67, 51
1, 372676, Note_on_c, 0, 81, 58
1, 372685, Control_c, 0, 67, 48
1, 372694, Note_off_c, 0, 79, 61
1, 372695, Note_off_c, 0, 81, 64
1, 372699, Control_c, 0, 67, 45
1, 372706, Note_on_c, 0, 55, 64
1, 372710, Note_off_c, 0, 58, 59
1, 372714, Control_c, 0, 67, 41
1, 372717, Note_on_c, 0, 57, 51
1, 372726, Note_on_c, 0, 84, 97
1, 372729, Control_c, 0, 67, 31
1, 372744, Control_c, 0, 67, 15
1, 372759, Control_c, 0, 67, 0
1, 372768, Note_off_c, 0, 55, 62
1, 372769, Note_on_c, 0, 62, 60
1, 372787, Note_on_c, 0, 60, 49
1, 372795, Note_off_c, 0, 57, 62
1, 372808, Note_off_c, 0, 62, 61
1, 372811, Note_off_c, 0, 60, 56
1, 372833, Note_on_c, 0, 58, 57
1, 372853, Note_on_c, 0, 55, 65
1, 372882, Note_off_c, 0, 58, 57
1, 372908, Note_off_c, 0, 55, 59
1, 372909, Note_on_c, 0, 57, 41
1, 372913, Note_on_c, 0, 77, 44
1, 372930, Note_on_c, 0, 62, 57
1, 372934, Note_on_c, 0, 81, 26
1, 372937, Note_off_c, 0, 77, 58
1, 372954, Note_off_c, 0, 57, 57
1, 372963, Note_off_c, 0, 62, 54
1, 372968, Note_off_c, 0, 81, 43
1, 373003, Note_on_c, 0, 58, 48
1, 373011, Note_on_c, 0, 55, 70
1, 373059, Note_on_c, 0, 76, 61
1, 373067, Note_on_c, 0, 79, 52
1, 373069, Note_off_c, 0, 55, 60
1, 373088, Note_off_c, 0, 58, 57
1, 373090, Note_off_c, 0, 79, 62
1, 373090, Note_on_c, 0, 62, 36
1, 373091, Note_off_c, 0, 76, 64
1, 373127, Note_off_c, 0, 62, 50
1, 373169, Note_on_c, 0, 57, 48
1, 373173, Note_on_c, 0, 55, 68
1, 373179, Poly_aftertouch_c, 0, 60, 0
1, 373205, Poly_aftertouch_c, 0, 60, 0
1, 373213, Note_on_c, 0, 77, 67
1, 373225, Note_on_c, 0, 74, 59
1, 373237, Note_off_c, 0, 57, 61
1, 373247, Note_off_c, 0, 55, 60
1, 373258, Note_off_c, 0, 74, 66
1, 373266, Note_on_c, 0, 62, 42
1, 373270, Poly_aftertouch_c, 0, 58, 127
1, 373273, Note_off_c, 0, 77, 64
1, 373298, Note_off_c, 0, 62, 51
1, 373328, Poly_aftertouch_c, 0, 58, 0
1, 373367, Note_on_c, 0, 76, 73
1, 373368, Note_on_c, 0, 72, 69
1, 373376, Note_on_c, 0, 55, 37
1, 373379, Note_on_c, 0, 58, 46
1, 373383, Note_on_c, 0, 62, 52
1, 373398, Note_off_c, 0, 72, 64
1, 373401, Note_off_c, 0, 55, 58
1, 373401, Note_on_c, 0, 60, 50
1, 373404, Note_off_c, 0, 76, 57
1, 373428, Note_off_c, 0, 60, 55
1, 373430, Note_off_c, 0, 62, 48
1, 373464, Note_on_c, 0, 55, 70
1, 373472, Note_off_c, 0, 58, 57
1, 373488, Note_on_c, 0, 57, 45
1, 373523, Note_off_c, 0, 55, 55
1, 373526, Note_on_c, 0, 76, 74
1, 373530, Note_on_c, 0, 72, 61
1, 373531, Note_on_c, 0, 62, 63
1, 373542, Note_on_c, 0, 60, 50
1, 373551, Note_on_c, 0, 58, 51
1, 373552, Note_off_c, 0, 57, 62
1, 373565, Note_off_c, 0, 72, 63
1, 373575, Note_off_c, 0, 60, 54
1, 373579, Note_off_c, 0, 62, 54
1, 373583, Note_off_c, 0, 76, 62
1, 373621, Note_on_c, 0, 55, 74
1, 373634, Note_off_c, 0, 58, 63
1, 373667, Note_on_c, 0, 57, 44
1, 373688, Note_off_c, 0, 55, 59
1, 373694, Note_on_c, 0, 76, 82
1, 373698, Note_on_c, 0, 62, 60
1, 373706, Note_on_c, 0, 72, 62
1, 373707, Note_on_c, 0, 60, 56
1, 373709, Note_off_c, 0, 57, 62
1, 373720, Note_on_c, 0, 58, 53
1, 373734, Note_off_c, 0, 72, 65
1, 373742, Note_off_c, 0, 62, 59
1, 373743, Note_off_c, 0, 60, 56
1, 373765, Note_off_c, 0, 76, 61
1, 373781, Note_on_c, 0, 55, 75
1, 373783, Note_off_c, 0, 58, 58
1, 373816, Note_on_c, 0, 57, 41
1, 373847, Note_on_c, 0, 72, 68
1, 373851, Note_off_c, 0, 55, 61
1, 373860, Note_on_c, 0, 76, 74
1, 373865, Note_on_c, 0, 62, 56
1, 373866, Note_on_c, 0, 60, 58
1, 373873, Note_on_c, 0, 58, 61
1, 373876, Note_off_c, 0, 57, 57
1, 373899, Note_off_c, 0, 76, 62
1, 373902, Note_off_c, 0, 62, 61
1, 373907, Note_off_c, 0, 60, 61
1, 373911, Note_off_c, 0, 72, 63
1, 373938, Note_on_c, 0, 55, 71
1, 373938, Note_off_c, 0, 58, 59
1, 373968, Note_on_c, 0, 57, 33
1, 374016, Note_on_c, 0, 62, 57
1, 374016, Note_on_c, 0, 74, 74
1, 374016, Note_on_c, 0, 77, 75
1, 374016, Note_off_c, 0, 55, 63
1, 374018, Note_on_c, 0, 60, 56
1, 374020, Note_off_c, 0, 57, 55
1, 374025, Note_on_c, 0, 58, 65
1, 374050, Note_off_c, 0, 62, 64
1, 374051, Note_off_c, 0, 60, 61
1, 374060, Note_off_c, 0, 74, 64
1, 374074, Note_off_c, 0, 77, 63
1, 374081, Note_off_c, 0, 58, 54
1, 374084, Note_on_c, 0, 55, 67
1, 374131, Note_off_c, 0, 84, 49
1, 374144, Note_on_c, 0, 57, 44
1, 374164, Note_on_c, 0, 74, 67
1, 374169, Note_off_c, 0, 55, 61
1, 374171, Note_on_c, 0, 77, 70
1, 374176, Note_on_c, 0, 62, 58
1, 374178, Note_off_c, 0, 57, 62
1, 374179, Note_on_c, 0, 60, 52
1, 374180, Note_on_c, 0, 58, 68
1, 374191, Note_off_c, 0, 74, 67
1, 374196, Note_off_c, 0, 77, 69
1, 374204, Note_on_c, 0, 83, 31
1, 374218, Note_off_c, 0, 62, 60
1, 374218, Note_off_c, 0, 60, 58
1, 374230, Note_off_c, 0, 83, 46
1, 374246, Note_on_c, 0, 55, 65
1, 374257, Note_off_c, 0, 58, 61
1, 374277, Note_on_c, 0, 57, 52
1, 374328, Note_on_c, 0, 96, 89
1, 374336, Note_off_c, 0, 55, 62
1, 374340, Note_on_c, 0, 62, 62
1, 374345, Note_off_c, 0, 57, 63
1, 374347, Note_on_c, 0, 60, 60
1, 374354, Note_on_c, 0, 95, 75
1, 374360, Note_on_c, 0, 58, 59
1, 374364, Note_off_c, 0, 96, 64
1, 374377, Note_off_c, 0, 95, 68
1, 374385, Note_on_c, 0, 93, 79
1, 374391, Note_off_c, 0, 60, 52
1, 374393, Note_off_c, 0, 62, 58
1, 374405, Note_off_c, 0, 93, 67
1, 374413, Note_on_c, 0, 91, 67
1, 374415, Note_on_c, 0, 55, 74
1, 374432, Note_off_c, 0, 91, 44
1, 374433, Note_off_c, 0, 58, 62
1, 374440, Note_on_c, 0, 89, 46
1, 374441, Note_off_c, 0, 89, 127
1, 374445, Note_on_c, 0, 57, 54
1, 374456, Note_on_c, 0, 88, 38
1, 374457, Note_off_c, 0, 88, 127
1, 374466, Note_on_c, 0, 86, 42
1, 374467, Note_off_c, 0, 86, 127
1, 374477, Note_on_c, 0, 84, 40
1, 374478, Note_off_c, 0, 84, 127
1, 374494, Note_on_c, 0, 83, 30
1, 374495, Note_off_c, 0, 83, 127
1, 374504, Note_on_c, 0, 81, 21
1, 374505, Note_off_c, 0, 81, 127
1, 374507, Note_off_c, 0, 55, 60
1, 374508, Note_on_c, 0, 62, 61
1, 374514, Note_on_c, 0, 76, 66
1, 374519, Note_on_c, 0, 77, 38
1, 374520, Note_off_c, 0, 77, 127
1, 374521, Note_off_c, 0, 57, 62
1, 374522, Note_on_c, 0, 79, 13
1, 374523, Note_off_c, 0, 79, 127
1, 374528, Note_on_c, 0, 60, 57
1, 374532, Poly_aftertouch_c, 0, 83, 0
1, 374536, Note_on_c, 0, 58, 69
1, 374536, Note_on_c, 0, 74, 63
1, 374540, Note_off_c, 0, 76, 62
1, 374540, Poly_aftertouch_c, 0, 81, 0
1, 374554, Note_off_c, 0, 60, 52
1, 374560, Poly_aftertouch_c, 0, 79, 0
1, 374562, Note_off_c, 0, 74, 66
1, 374564, Note_off_c, 0, 62, 63
1, 374583, Note_on_c, 0, 55, 68
1, 374608, Note_off_c, 0, 58, 63
1, 374627, Control_c, 0, 64, 78
1, 374649, Control_c, 0, 64, 62
1, 374653, Note_on_c, 0, 57, 20
1, 374660, Note_on_c, 0, 84, 99
1, 374664, Control_c, 0, 64, 58
1, 374675, Note_on_c, 0, 62, 70
1, 374678, Control_c, 0, 64, 65
1, 374681, Note_off_c, 0, 55, 63
1, 374681, Note_on_c, 0, 79, 53
1, 374682, Note_on_c, 0, 72, 77
1, 374687, Note_on_c, 0, 60, 52
1, 374690, Note_on_c, 0, 58, 44
1, 374690, Note_off_c, 0, 57, 60
1, 374693, Control_c, 0, 64, 84
1, 374708, Control_c, 0, 64, 127
1, 374715, Note_off_c, 0, 60, 58
1, 374715, Note_off_c, 0, 62, 64
1, 374716, Note_off_c, 0, 79, 49
1, 374752, Note_on_c, 0, 55, 68
1, 374763, Note_off_c, 0, 58, 62
1, 374795, Note_on_c, 0, 57, 45
1, 374823, Note_on_c, 0, 81, 80
1, 374827, Note_off_c, 0, 55, 63
1, 374830, Note_off_c, 0, 57, 55
1, 374830, Note_on_c, 0, 77, 63
1, 374835, Note_on_c, 0, 62, 58
1, 374841, Note_on_c, 0, 60, 52
1, 374845, Note_on_c, 0, 58, 48
1, 374868, Note_off_c, 0, 62, 58
1, 374869, Note_off_c, 0, 60, 59
1, 374879, Poly_aftertouch_c, 0, 74, 127
1, 374899, Note_on_c, 0, 55, 65
1, 374903, Note_off_c, 0, 84, 64
1, 374904, Note_off_c, 0, 77, 60
1, 374911, Note_off_c, 0, 58, 61
1, 374914, Poly_aftertouch_c, 0, 74, 0
1, 374920, Note_off_c, 0, 72, 59
1, 374924, Note_off_c, 0, 81, 64
1, 374935, Note_on_c, 0, 57, 50
1, 374979, Note_off_c, 0, 57, 46
1, 374985, Note_on_c, 0, 72, 79
1, 374987, Note_on_c, 0, 84, 95
1, 374988, Note_on_c, 0, 62, 63
1, 374992, Note_off_c, 0, 55, 60
1, 374997, Note_on_c, 0, 60, 57
1, 374997, Note_on_c, 0, 76, 69
1, 375006, Note_on_c, 0, 79, 55
1, 375014, Note_on_c, 0, 82, 52
1, 375014, Note_off_c, 0, 76, 67
1, 375021, Note_off_c, 0, 72, 63
1, 375026, Note_off_c, 0, 79, 63
1, 375030, Note_on_c, 0, 58, 59
1, 375033, Note_off_c, 0, 60, 60
1, 375033, Note_off_c, 0, 62, 63
1, 375035, Note_off_c, 0, 82, 61
1, 375043, Note_off_c, 0, 84, 66
1, 375074, Note_on_c, 0, 55, 70
1, 375094, Note_off_c, 0, 58, 62
1, 375110, Note_on_c, 0, 57, 54
1, 375146, Note_on_c, 0, 81, 100
1, 375156, Note_off_c, 0, 55, 59
1, 375162, Note_on_c, 0, 69, 62
1, 375164, Note_on_c, 0, 62, 62
1, 375170, Note_on_c, 0, 60, 52
1, 375179, Note_off_c, 0, 57, 64
1, 375181, Note_off_c, 0, 69, 66
1, 375189, Note_off_c, 0, 81, 65
1, 375200, Note_on_c, 0, 58, 53
1, 375208, Note_off_c, 0, 60, 54
1, 375211, Note_off_c, 0, 62, 58
1, 375243, Note_on_c, 0, 55, 73
1, 375274, Note_on_c, 0, 57, 44
1, 375286, Note_off_c, 0, 58, 64
1, 375353, Note_off_c, 0, 55, 39
1, 375361, Note_on_c, 0, 62, 54
1, 375361, Note_on_c, 0, 86, 103
1, 375370, Note_on_c, 0, 60, 54
1, 375374, Note_on_c, 0, 76, 73
1, 375376, Note_off_c, 0, 57, 57
1, 375379, Note_on_c, 0, 58, 53
1, 375385, Note_on_c, 0, 74, 53
1, 375403, Note_on_c, 0, 72, 43
1, 375410, Note_off_c, 0, 62, 62
1, 375411, Note_off_c, 0, 60, 54
1, 375414, Note_off_c, 0, 74, 63
1, 375432, Note_off_c, 0, 72, 49
1, 375453, Note_on_c, 0, 55, 71
1, 375465, Note_off_c, 0, 76, 54
1, 375475, Note_off_c, 0, 58, 64
1, 375522, Note_on_c, 0, 57, 51
1, 375525, Note_off_c, 0, 55, 59
1, 375536, Note_on_c, 0, 76, 65
1, 375546, Note_on_c, 0, 62, 56
1, 375551, Note_off_c, 0, 57, 65
1, 375552, Note_on_c, 0, 60, 54
1, 375559, Note_on_c, 0, 72, 58
1, 375560, Note_on_c, 0, 58, 52
1, 375561, Note_on_c, 0, 74, 48
1, 375575, Note_off_c, 0, 62, 62
1, 375581, Note_off_c, 0, 60, 58
1, 375602, Note_off_c, 0, 72, 58
1, 375607, Note_off_c, 0, 74, 57
1, 375617, Note_on_c, 0, 55, 71
1, 375629, Note_off_c, 0, 58, 58
1, 375630, Note_off_c, 0, 86, 64
1, 375634, Note_off_c, 0, 76, 52
1, 375644, Note_on_c, 0, 57, 46
1, 375689, Note_on_c, 0, 62, 66
1, 375690, Note_off_c, 0, 55, 62
1, 375700, Note_on_c, 0, 74, 60
1, 375702, Note_on_c, 0, 86, 103
1, 375703, Note_on_c, 0, 60, 48
1, 375706, Note_on_c, 0, 72, 69
1, 375716, Note_on_c, 0, 76, 70
1, 375724, Note_off_c, 0, 57, 62
1, 375732, Note_off_c, 0, 60, 51
1, 375739, Note_off_c, 0, 62, 61
1, 375741, Note_off_c, 0, 72, 56
1, 375746, Note_off_c, 0, 74, 61
1, 375755, Note_on_c, 0, 58, 56
1, 375785, Note_off_c, 0, 76, 62
1, 375790, Note_on_c, 0, 55, 65
1, 375801, Note_off_c, 0, 58, 64
1, 375844, Note_off_c, 0, 55, 61
1, 375858, Note_on_c, 0, 76, 65
1, 375870, Note_on_c, 0, 62, 59
1, 375877, Note_on_c, 0, 74, 60
1, 375881, Note_on_c, 0, 72, 73
1, 375894, Note_on_c, 0, 60, 41
1, 375902, Note_on_c, 0, 57, 8
1, 375904, Note_off_c, 0, 62, 54
1, 375913, Note_on_c, 0, 58, 61
1, 375914, Note_off_c, 0, 86, 63
1, 375916, Note_off_c, 0, 76, 65
1, 375917, Note_off_c, 0, 72, 60
1, 375918, Note_off_c, 0, 74, 60
1, 375919, Note_off_c, 0, 60, 56
1, 375942, Note_on_c, 0, 55, 71
1, 375953, Note_off_c, 0, 58, 61
1, 375960, Note_off_c, 0, 57, 45
1, 376019, Note_off_c, 0, 55, 61
1, 376026, Note_on_c, 0, 62, 70
1, 376033, Note_on_c, 0, 60, 58
1, 376044, Note_on_c, 0, 83, 87
1, 376047, Note_on_c, 0, 84, 83
1, 376051, Note_on_c, 0, 72, 74
1, 376053, Note_on_c, 0, 58, 52
1, 376060, Note_off_c, 0, 84, 73
1, 376064, Note_off_c, 0, 72, 69
1, 376070, Note_on_c, 0, 74, 41
1, 376076, Note_off_c, 0, 60, 55
1, 376078, Note_off_c, 0, 83, 64
1, 376081, Note_off_c, 0, 62, 59
1, 376096, Note_off_c, 0, 74, 59
1, 376121, Note_on_c, 0, 55, 67
1, 376138, Note_off_c, 0, 58, 62
1, 376149, Poly_aftertouch_c, 0, 77, 0
1, 376159, Note_on_c, 0, 57, 30
1, 376179, Note_on_c, 0, 67, 74
1, 376186, Note_off_c, 0, 55, 62
1, 376204, Note_off_c, 0, 57, 48
1, 376217, Note_on_c, 0, 62, 48
1, 376228, Note_on_c, 0, 60, 51
1, 376236, Note_off_c, 0, 67, 58
1, 376238, Note_on_c, 0, 69, 71
1, 376239, Note_on_c, 0, 58, 43
1, 376246, Note_off_c, 0, 62, 59
1, 376252, Note_off_c, 0, 60, 57
1, 376291, Note_on_c, 0, 55, 70
1, 376294, Note_off_c, 0, 69, 66
1, 376295, Note_off_c, 0, 58, 63
1, 376301, Note_on_c, 0, 70, 74
1, 376313, Note_on_c, 0, 57, 50
1, 376336, Note_off_c, 0, 70, 65
1, 376350, Note_off_c, 0, 55, 60
1, 376359, Note_on_c, 0, 62, 59
1, 376360, Note_off_c, 0, 57, 58
1, 376361, Note_on_c, 0, 72, 80
1, 376362, Note_on_c, 0, 60, 52
1, 376396, Note_off_c, 0, 62, 64
1, 376397, Note_off_c, 0, 60, 61
1, 376416, Note_off_c, 0, 72, 61
1, 376422, Note_on_c, 0, 74, 74
1, 376428, Note_on_c, 0, 58, 51
1, 376444, Note_on_c, 0, 55, 67
1, 376451, Note_off_c, 0, 74, 68
1, 376455, Note_on_c, 0, 76, 74
1, 376461, Note_off_c, 0, 58, 65
1, 376467, Note_on_c, 0, 57, 48
1, 376479, Note_off_c, 0, 76, 67
1, 376483, Note_off_c, 0, 55, 59
1, 376503, Note_off_c, 0, 57, 52
1, 376506, Note_on_c, 0, 60, 53
1, 376508, Note_on_c, 0, 62, 56
1, 376509, Note_on_c, 0, 77, 79
1, 376543, Note_off_c, 0, 62, 60
1, 376544, Note_off_c, 0, 60, 57
1, 376569, Note_off_c, 0, 77, 64
1, 376579, Note_on_c, 0, 79, 73
1, 376580, Note_on_c, 0, 57, 71
1, 376584, Note_on_c, 0, 55, 66
1, 376587, Note_on_c, 0, 58, 57
1, 376608, Note_on_c, 0, 81, 74
1, 376619, Note_off_c, 0, 58, 64
1, 376626, Note_off_c, 0, 57, 60
1, 376638, Note_on_c, 0, 82, 61
1, 376643, Note_off_c, 0, 79, 66
1, 376646, Note_off_c, 0, 81, 64
1, 376651, Control_c, 0, 64, 85
1, 376658, Note_off_c, 0, 55, 52
1, 376664, Note_off_c, 0, 82, 66
1, 376667, Control_c, 0, 64, 76
1, 376682, Control_c, 0, 64, 78
1, 376690, Note_on_c, 0, 60, 61
1, 376690, Note_on_c, 0, 84, 101
1, 376692, Note_on_c, 0, 62, 71
1, 376696, Control_c, 0, 64, 112
1, 376699, Note_on_c, 0, 58, 60
1, 376711, Control_c, 0, 64, 127
1, 376729, Note_off_c, 0, 60, 59
1, 376729, Note_off_c, 0, 62, 62
1, 376764, Note_on_c, 0, 55, 64
1, 376786, Note_on_c, 0, 57, 9
1, 376796, Note_off_c, 0, 58, 58
1, 376845, Note_off_c, 0, 55, 59
1, 376855, Note_on_c, 0, 60, 56
1, 376855, Note_on_c, 0, 62, 59
1, 376857, Note_on_c, 0, 58, 43
1, 376857, Note_on_c, 0, 77, 50
1, 376857, Note_on_c, 0, 81, 59
1, 376878, Note_off_c, 0, 77, 65
1, 376884, Note_off_c, 0, 62, 64
1, 376885, Note_off_c, 0, 60, 61
1, 376907, Note_off_c, 0, 57, 34
1, 376915, Note_off_c, 0, 81, 56
1, 376928, Note_on_c, 0, 55, 67
1, 376948, Note_off_c, 0, 58, 59
1, 376971, Note_on_c, 0, 57, 15
1, 377005, Note_off_c, 0, 55, 62
1, 377012, Note_on_c, 0, 62, 55
1, 377012, Note_on_c, 0, 76, 78
1, 377018, Note_on_c, 0, 58, 44
1, 377019, Note_on_c, 0, 79, 69
1, 377021, Note_on_c, 0, 60, 50
1, 377035, Note_off_c, 0, 57, 44
1, 377040, Note_off_c, 0, 76, 63
1, 377045, Note_off_c, 0, 62, 66
1, 377048, Note_off_c, 0, 60, 58
1, 377056, Note_off_c, 0, 79, 60
1, 377080, Note_on_c, 0, 55, 69
1, 377111, Note_off_c, 0, 58, 59
1, 377143, Note_on_c, 0, 57, 18
1, 377158, Note_on_c, 0, 62, 71
1, 377161, Poly_aftertouch_c, 0, 58, 0
1, 377167, Note_off_c, 0, 55, 62
1, 377173, Note_on_c, 0, 58, 39
1, 377174, Note_on_c, 0, 60, 47
1, 377177, Note_on_c, 0, 77, 78
1, 377178, Note_off_c, 0, 57, 57
1, 377179, Note_on_c, 0, 74, 71
1, 377202, Note_off_c, 0, 60, 54
1, 377208, Note_off_c, 0, 62, 64
1, 377209, Note_off_c, 0, 74, 67
1, 377223, Note_off_c, 0, 77, 62
1, 377236, Note_on_c, 0, 55, 73
1, 377251, Note_off_c, 0, 58, 64
1, 377272, Note_on_c, 0, 57, 46
1, 377325, Note_on_c, 0, 62, 74
1, 377325, Note_off_c, 0, 57, 0
1, 377325, Note_on_c, 0, 57, 19
1, 377328, Note_off_c, 0, 55, 63
1, 377330, Note_on_c, 0, 60, 67
1, 377337, Note_on_c, 0, 76, 85
1, 377340, Note_on_c, 0, 72, 79
1, 377344, Note_on_c, 0, 58, 60
1, 377355, Note_off_c, 0, 62, 64
1, 377365, Note_off_c, 0, 72, 67
1, 377367, Note_off_c, 0, 60, 63
1, 377370, Note_off_c, 0, 57, 40
1, 377382, Note_off_c, 0, 76, 63
1, 377398, Note_off_c, 0, 58, 53
1, 377403, Note_on_c, 0, 55, 77
1, 377489, Note_on_c, 0, 57, 35
1, 377489, Note_off_c, 0, 55, 62
1, 377491, Note_on_c, 0, 76, 86
1, 377492, Note_on_c, 0, 72, 64
1, 377498, Note_on_c, 0, 58, 67
1, 377507, Note_on_c, 0, 62, 60
1, 377509, Note_on_c, 0, 60, 56
1, 377520, Note_off_c, 0, 57, 49
1, 377524, Note_off_c, 0, 72, 65
1, 377529, Note_off_c, 0, 60, 64
1, 377532, Note_off_c, 0, 62, 61
1, 377534, Note_off_c, 0, 76, 64
1, 377558, Note_on_c, 0, 55, 72
1, 377561, Note_off_c, 0, 58, 57
1, 377648, Note_on_c, 0, 62, 66
1, 377653, Note_off_c, 0, 55, 62
1, 377658, Note_on_c, 0, 76, 88
1, 377659, Note_on_c, 0, 60, 49
1, 377662, Note_on_c, 0, 72, 79
1, 377668, Note_on_c, 0, 58, 70
1, 377692, Note_off_c, 0, 60, 59
1, 377692, Note_off_c, 0, 72, 66
1, 377695, Note_off_c, 0, 62, 64
1, 377701, Note_off_c, 0, 76, 65
1, 377713, Poly_aftertouch_c, 0, 57, 127
1, 377719, Note_off_c, 0, 58, 52
1, 377728, Note_on_c, 0, 55, 76
1, 377741, Poly_aftertouch_c, 0, 57, 0
1, 377778, Poly_aftertouch_c, 0, 57, 127
1, 377807, Note_on_c, 0, 76, 91
1, 377815, Note_on_c, 0, 72, 74
1, 377820, Note_on_c, 0, 62, 71
1, 377827, Note_off_c, 0, 55, 64
1, 377828, Note_on_c, 0, 60, 68
1, 377835, Note_on_c, 0, 58, 68
1, 377853, Note_off_c, 0, 72, 54
1, 377853, Note_off_c, 0, 84, 64
1, 377865, Poly_aftertouch_c, 0, 57, 0
1, 377865, Note_off_c, 0, 60, 59
1, 377865, Note_off_c, 0, 76, 64
1, 377866, Note_off_c, 0, 62, 62
1, 377907, Note_on_c, 0, 55, 76
1, 377921, Note_on_c, 0, 57, 67
1, 377937, Note_off_c, 0, 58, 59
1, 377977, Note_on_c, 0, 77, 92
1, 377982, Note_on_c, 0, 58, 66
1, 377983, Note_on_c, 0, 74, 74
1, 377983, Note_off_c, 0, 55, 63
1, 377990, Note_off_c, 0, 57, 63
1, 378004, Note_on_c, 0, 60, 63
1, 378005, Note_on_c, 0, 62, 68
1, 378008, Note_off_c, 0, 74, 67
1, 378014, Note_off_c, 0, 77, 65
1, 378016, Note_off_c, 0, 58, 66
1, 378065, Note_off_c, 0, 60, 56
1, 378065, Note_off_c, 0, 62, 57
1, 378072, Note_on_c, 0, 55, 74
1, 378073, Note_on_c, 0, 57, 75
1, 378077, Note_on_c, 0, 84, 93
1, 378080, Note_on_c, 0, 72, 80
1, 378100, Note_off_c, 0, 72, 68
1, 378103, Note_off_c, 0, 84, 65
1, 378125, Note_off_c, 0, 57, 65
1, 378126, Note_off_c, 0, 55, 64
1, 378137, Note_on_c, 0, 58, 71
1, 378157, Note_on_c, 0, 62, 48
1, 378158, Note_on_c, 0, 74, 69
1, 378163, Note_on_c, 0, 86, 91
1, 378178, Note_off_c, 0, 62, 63
1, 378184, Note_on_c, 0, 72, 8
1, 378186, Note_on_c, 0, 60, 8
1, 378187, Note_off_c, 0, 74, 68
1, 378193, Note_off_c, 0, 58, 67
1, 378198, Note_off_c, 0, 86, 63
1, 378229, Note_off_c, 0, 72, 28
1, 378235, Note_off_c, 0, 60, 36
1, 378240, Note_on_c, 0, 88, 87
1, 378244, Note_on_c, 0, 76, 81
1, 378267, Note_off_c, 0, 76, 69
1, 378276, Note_off_c, 0, 88, 65
1, 378327, Note_on_c, 0, 77, 83
1, 378328, Note_on_c, 0, 89, 91
1, 378350, Note_off_c, 0, 77, 70
1, 378350, Note_off_c, 0, 89, 68
1, 378414, Note_on_c, 0, 91, 95
1, 378416, Poly_aftertouch_c, 0, 76, 0
1, 378424, Note_on_c, 0, 79, 78
1, 378445, Note_off_c, 0, 79, 69
1, 378449, Note_off_c, 0, 91, 65
1, 378495, Note_on_c, 0, 93, 96
1, 378497, Note_on_c, 0, 81, 83
1, 378512, Control_c, 0, 64, 82
1, 378521, Note_off_c, 0, 81, 68
1, 378526, Control_c, 0, 64, 0
1, 378539, Note_on_c, 0, 48, 93
1, 378551, Note_on_c, 0, 41, 89
1, 378556, Note_off_c, 0, 93, 62
1, 378571, Control_c, 0, 64, 46
1, 378586, Control_c, 0, 64, 79
1, 378592, Note_on_c, 0, 82, 90
1, 378595, Note_off_c, 0, 48, 65
1, 378600, Note_off_c, 0, 41, 62
1, 378600, Control_c, 0, 64, 127
1, 378608, Note_on_c, 0, 94, 91
1, 378665, Note_on_c, 0, 81, 2
1, 378668, Note_off_c, 0, 82, 63
1, 378704, Note_off_c, 0, 81, 32
1, 378750, Note_off_c, 0, 94, 59
1, 378841, Note_on_c, 0, 96, 105
1, 378842, Note_on_c, 0, 69, 71
1, 378845, Note_on_c, 0, 91, 26
1, 378846, Note_on_c, 0, 58, 65
1, 378854, Note_on_c, 0, 84, 86
1, 378876, Note_off_c, 0, 91, 51
1, 378896, Note_on_c, 0, 95, 61
1, 378976, Note_off_c, 0, 69, 60
1, 378978, Note_off_c, 0, 95, 63
1, 378986, Note_off_c, 0, 58, 59
1, 379084, Note_on_c, 0, 69, 80
1, 379089, Note_on_c, 0, 93, 82
1, 379094, Note_on_c, 0, 89, 65
1, 379103, Note_on_c, 0, 65, 62
1, 379120, Note_on_c, 0, 58, 58
1, 379120, Note_on_c, 0, 62, 56
1, 379174, Note_off_c, 0, 89, 59
1, 379198, Note_off_c, 0, 69, 64
1, 379218, Note_off_c, 0, 58, 58
1, 379224, Note_off_c, 0, 65, 60
1, 379239, Note_off_c, 0, 62, 58
1, 379282, Note_on_c, 0, 69, 90
1, 379288, Note_on_c, 0, 91, 87
1, 379298, Note_on_c, 0, 65, 61
1, 379302, Note_on_c, 0, 62, 42
1, 379308, Note_on_c, 0, 58, 58
1, 379335, Note_off_c, 0, 96, 63
1, 379340, Note_off_c, 0, 93, 65
1, 379359, Note_off_c, 0, 84, 64
1, 379368, Note_off_c, 0, 91, 65
1, 379382, Note_off_c, 0, 69, 62
1, 379393, Note_off_c, 0, 58, 57
1, 379395, Note_off_c, 0, 62, 59
1, 379398, Note_off_c, 0, 65, 57
1, 379445, Note_on_c, 0, 93, 105
1, 379460, Note_on_c, 0, 69, 72
1, 379468, Note_on_c, 0, 81, 76
1, 379472, Note_on_c, 0, 58, 30
1, 379483, Note_on_c, 0, 65, 39
1, 379492, Note_off_c, 0, 81, 67
1, 379493, Note_on_c, 0, 62, 19
1, 379524, Note_off_c, 0, 93, 64
1, 379525, Note_off_c, 0, 65, 49
1, 379525, Note_off_c, 0, 69, 57
1, 379528, Note_off_c, 0, 58, 44
1, 379553, Note_off_c, 0, 62, 43
1, 379665, Note_on_c, 0, 94, 99
1, 379666, Poly_aftertouch_c, 0, 88, 127
1, 379680, Note_on_c, 0, 84, 53
1, 379686, Note_on_c, 0, 82, 79
1, 379692, Note_on_c, 0, 69, 77
1, 379706, Note_on_c, 0, 58, 52
1, 379720, Poly_aftertouch_c, 0, 88, 0
1, 379723, Note_on_c, 0, 62, 42
1, 379730, Note_on_c, 0, 65, 35
1, 379755, Note_off_c, 0, 69, 62
1, 379765, Note_off_c, 0, 58, 52
1, 379765, Note_off_c, 0, 62, 48
1, 379770, Note_off_c, 0, 65, 48
1, 379790, Note_off_c, 0, 84, 54
1, 379862, Note_on_c, 0, 88, 61
1, 379869, Note_on_c, 0, 84, 15
1, 379874, Note_on_c, 0, 69, 66
1, 379896, Note_on_c, 0, 65, 42
1, 379899, Note_on_c, 0, 58, 47
1, 379907, Note_on_c, 0, 62, 33
1, 379915, Note_off_c, 0, 94, 63
1, 379922, Note_off_c, 0, 69, 60
1, 379928, Note_off_c, 0, 82, 61
1, 379932, Note_off_c, 0, 65, 57
1, 379939, Note_off_c, 0, 58, 59
1, 379948, Note_off_c, 0, 62, 51
1, 380022, Note_off_c, 0, 84, 0
1, 380022, Note_on_c, 0, 84, 38
1, 380026, Note_on_c, 0, 93, 95
1, 380034, Note_on_c, 0, 81, 73
1, 380036, Note_on_c, 0, 69, 67
1, 380041, Note_on_c, 0, 65, 56
1, 380048, Note_on_c, 0, 62, 54
1, 380059, Note_on_c, 0, 58, 46
1, 380091, Note_off_c, 0, 62, 57
1, 380095, Note_off_c, 0, 65, 54
1, 380100, Note_off_c, 0, 58, 59
1, 380104, Note_off_c, 0, 69, 63
1, 380124, Note_off_c, 0, 81, 56
1, 380133, Note_off_c, 0, 93, 65
1, 380170, Note_off_c, 0, 88, 61
1, 380196, Note_on_c, 0, 91, 94
1, 380202, Note_on_c, 0, 58, 58
1, 380205, Note_on_c, 0, 69, 69
1, 380206, Note_on_c, 0, 65, 45
1, 380213, Note_on_c, 0, 79, 72
1, 380229, Note_off_c, 0, 58, 65
1, 380232, Note_off_c, 0, 65, 57
1, 380252, Poly_aftertouch_c, 0, 62, 127
1, 380253, Note_off_c, 0, 69, 62
1, 380277, Poly_aftertouch_c, 0, 62, 0
1, 380295, Note_off_c, 0, 79, 58
1, 380300, Note_off_c, 0, 91, 63
1, 380355, Note_off_c, 0, 84, 59
1, 380381, Note_on_c, 0, 89, 97
1, 380382, Note_on_c, 0, 65, 33
1, 380393, Note_on_c, 0, 69, 60
1, 380395, Note_on_c, 0, 62, 59
1, 380401, Note_on_c, 0, 72, 67
1, 380407, Note_on_c, 0, 77, 70
1, 380440, Note_off_c, 0, 77, 64
1, 380449, Note_off_c, 0, 72, 58
1, 380459, Note_off_c, 0, 89, 65
1, 380496, Note_off_c, 0, 69, 63
1, 380510, Note_off_c, 0, 62, 62
1, 380524, Note_off_c, 0, 65, 49
1, 380568, Note_on_c, 0, 77, 75
1, 380582, Note_on_c, 0, 74, 55
1, 380684, Note_off_c, 0, 74, 44
1, 380752, Note_on_c, 0, 79, 83
1, 380753, Note_on_c, 0, 76, 71
1, 380763, Note_off_c, 0, 77, 58
1, 380835, Note_off_c, 0, 76, 55
1, 380891, Control_c, 0, 64, 83
1, 380906, Control_c, 0, 64, 70
1, 380913, Note_on_c, 0, 77, 55
1, 380914, Note_on_c, 0, 81, 83
1, 380920, Control_c, 0, 64, 70
1, 380926, Note_on_c, 0, 41, 84
1, 380926, Note_on_c, 0, 48, 93
1, 380930, Note_off_c, 0, 79, 65
1, 380933, Note_off_c, 0, 77, 63
1, 380935, Control_c, 0, 64, 77
1, 380941, Note_off_c, 0, 81, 67
1, 380950, Control_c, 0, 64, 100
1, 380965, Control_c, 0, 64, 127
1, 381010, Note_off_c, 0, 41, 62
1, 381019, Note_off_c, 0, 48, 63
1, 381088, Note_on_c, 0, 92, 27
1, 381141, Note_on_c, 0, 96, 69
1, 381148, Note_off_c, 0, 92, 0
1, 381148, Note_on_c, 0, 92, 23
1, 381166, Note_on_c, 0, 84, 82
1, 381178, Note_off_c, 0, 92, 64
1, 381236, Note_on_c, 0, 69, 37
1, 381263, Note_on_c, 0, 72, 3
1, 381275, Note_off_c, 0, 69, 49
1, 381299, Note_off_c, 0, 72, 34
1, 381330, Note_on_c, 0, 93, 93
1, 381344, Note_on_c, 0, 89, 66
1, 381347, Note_on_c, 0, 76, 64
1, 381352, Note_on_c, 0, 91, 38
1, 381354, Note_on_c, 0, 72, 54
1, 381355, Note_on_c, 0, 65, 57
1, 381361, Note_on_c, 0, 69, 65
1, 381387, Note_off_c, 0, 91, 57
1, 381392, Note_off_c, 0, 89, 61
1, 381410, Note_off_c, 0, 65, 60
1, 381411, Note_off_c, 0, 69, 58
1, 381415, Note_off_c, 0, 96, 66
1, 381421, Note_off_c, 0, 76, 61
1, 381428, Note_off_c, 0, 72, 58
1, 381439, Note_off_c, 0, 93, 66
1, 381447, Note_off_c, 0, 84, 64
1, 381495, Note_on_c, 0, 96, 108
1, 381518, Note_on_c, 0, 84, 42
1, 381521, Note_on_c, 0, 76, 73
1, 381523, Note_on_c, 0, 65, 69
1, 381532, Note_on_c, 0, 69, 50
1, 381533, Note_on_c, 0, 72, 58
1, 381547, Note_off_c, 0, 84, 53
1, 381551, Note_off_c, 0, 76, 60
1, 381552, Note_off_c, 0, 96, 67
1, 381557, Note_off_c, 0, 65, 59
1, 381564, Note_off_c, 0, 72, 64
1, 381566, Note_off_c, 0, 69, 55
1, 381656, Note_on_c, 0, 93, 99
1, 381668, Note_on_c, 0, 69, 59
1, 381670, Note_on_c, 0, 76, 69
1, 381671, Note_on_c, 0, 72, 55
1, 381674, Note_on_c, 0, 65, 59
1, 381703, Note_off_c, 0, 93, 65
1, 381720, Note_off_c, 0, 69, 55
1, 381728, Note_off_c, 0, 72, 51
1, 381729, Note_off_c, 0, 65, 51
1, 381738, Note_off_c, 0, 76, 57
1, 381768, Poly_aftertouch_c, 0, 81, 0
1, 381853, Note_on_c, 0, 98, 103
1, 381865, Note_on_c, 0, 76, 66
1, 381866, Note_on_c, 0, 65, 64
1, 381875, Note_on_c, 0, 88, 55
1, 381879, Note_on_c, 0, 69, 53
1, 381880, Note_on_c, 0, 72, 49
1, 381886, Note_on_c, 0, 84, 41
1, 381896, Note_off_c, 0, 88, 60
1, 381910, Note_off_c, 0, 76, 52
1, 381914, Note_off_c, 0, 84, 56
1, 381917, Note_off_c, 0, 65, 56
1, 381920, Note_off_c, 0, 69, 60
1, 381920, Note_off_c, 0, 72, 60
1, 382008, Note_on_c, 0, 88, 54
1, 382022, Note_on_c, 0, 72, 65
1, 382022, Note_on_c, 0, 76, 69
1, 382027, Note_on_c, 0, 65, 70
1, 382031, Note_on_c, 0, 84, 57
1, 382034, Note_on_c, 0, 69, 51
1, 382096, Note_off_c, 0, 69, 47
1, 382111, Note_off_c, 0, 76, 55
1, 382115, Note_off_c, 0, 65, 59
1, 382118, Note_off_c, 0, 72, 58
1, 382133, Note_off_c, 0, 98, 64
1, 382134, Note_off_c, 0, 84, 59
1, 382149, Note_off_c, 0, 88, 47
1, 382200, Note_on_c, 0, 98, 109
1, 382208, Note_on_c, 0, 76, 66
1, 382211, Note_on_c, 0, 84, 65
1, 382217, Note_on_c, 0, 72, 55
1, 382219, Note_on_c, 0, 65, 58
1, 382234, Note_on_c, 0, 86, 43
1, 382235, Note_on_c, 0, 69, 46
1, 382240, Note_off_c, 0, 84, 66
1, 382253, Note_off_c, 0, 76, 53
1, 382262, Note_off_c, 0, 72, 56
1, 382262, Note_off_c, 0, 86, 54
1, 382262, Note_off_c, 0, 65, 59
1, 382280, Note_off_c, 0, 69, 46
1, 382353, Note_on_c, 0, 88, 53
1, 382364, Note_on_c, 0, 76, 67
1, 382366, Note_on_c, 0, 72, 67
1, 382377, Note_on_c, 0, 65, 57
1, 382381, Note_on_c, 0, 84, 77
1, 382388, Note_on_c, 0, 69, 56
1, 382407, Note_off_c, 0, 88, 57
1, 382411, Note_off_c, 0, 76, 57
1, 382414, Note_on_c, 0, 86, 44
1, 382435, Note_off_c, 0, 72, 63
1, 382439, Note_off_c, 0, 69, 57
1, 382447, Note_off_c, 0, 98, 56
1, 382455, Note_off_c, 0, 65, 62
1, 382455, Note_off_c, 0, 86, 44
1, 382461, Note_off_c, 0, 84, 60
1, 382539, Note_on_c, 0, 96, 102
1, 382545, Note_on_c, 0, 72, 77
1, 382548, Note_on_c, 0, 69, 71
1, 382554, Note_on_c, 0, 86, 80
1, 382554, Note_on_c, 0, 84, 82
1, 382561, Note_on_c, 0, 65, 65
1, 382566, Note_on_c, 0, 62, 62
1, 382584, Note_off_c, 0, 86, 58
1, 382587, Note_off_c, 0, 72, 53
1, 382588, Note_off_c, 0, 84, 56
1, 382593, Note_on_c, 0, 90, 9
1, 382600, Note_off_c, 0, 62, 63
1, 382600, Note_off_c, 0, 69, 62
1, 382611, Note_off_c, 0, 65, 51
1, 382643, Note_off_c, 0, 90, 54
1, 382712, Note_on_c, 0, 72, 57
1, 382716, Note_on_c, 0, 69, 72
1, 382733, Note_on_c, 0, 62, 60
1, 382734, Note_off_c, 0, 72, 61
1, 382743, Note_on_c, 0, 84, 60
1, 382743, Note_on_c, 0, 89, 57
1, 382744, Note_on_c, 0, 88, 57
1, 382759, Note_off_c, 0, 69, 65
1, 382768, Note_on_c, 0, 86, 34
1, 382787, Note_off_c, 0, 62, 66
1, 382801, Note_off_c, 0, 86, 47
1, 382807, Poly_aftertouch_c, 0, 65, 0
1, 382808, Note_off_c, 0, 84, 61
1, 382825, Note_off_c, 0, 96, 65
1, 382828, Note_on_c, 0, 91, 35
1, 382828, Note_off_c, 0, 88, 60
1, 382837, Poly_aftertouch_c, 0, 65, 0
1, 382852, Note_off_c, 0, 89, 55
1, 382866, Note_off_c, 0, 91, 51
1, 382894, Note_on_c, 0, 96, 102
1, 382921, Note_on_c, 0, 84, 67
1, 382925, Note_on_c, 0, 83, 69
1, 382942, Note_off_c, 0, 83, 66
1, 382944, Note_off_c, 0, 84, 66
1, 382962, Note_off_c, 0, 96, 66
1, 383004, Control_c, 0, 64, 113
1, 383019, Control_c, 0, 64, 68
1, 383027, Note_on_c, 0, 41, 81
1, 383030, Note_on_c, 0, 48, 86
1, 383033, Control_c, 0, 64, 38
1, 383048, Control_c, 0, 64, 31
1, 383063, Control_c, 0, 64, 60
1, 383072, Note_on_c, 0, 91, 85
1, 383072, Note_on_c, 0, 93, 88
1, 383078, Control_c, 0, 64, 96
1, 383093, Control_c, 0, 64, 127
1, 383100, Note_off_c, 0, 41, 63
1, 383104, Note_off_c, 0, 48, 64
1, 383111, Note_off_c, 0, 93, 64
1, 383114, Note_on_c, 0, 81, 30
1, 383125, Note_on_c, 0, 79, 26
1, 383147, Note_off_c, 0, 81, 42
1, 383163, Note_off_c, 0, 79, 43
1, 383185, Note_off_c, 0, 91, 45
1, 383262, Note_on_c, 0, 91, 108
1, 383273, Note_on_c, 0, 69, 73
1, 383274, Note_on_c, 0, 79, 68
1, 383282, Note_on_c, 0, 58, 69
1, 383292, Note_on_c, 0, 82, 44
1, 383313, Note_off_c, 0, 69, 58
1, 383320, Note_off_c, 0, 82, 55
1, 383324, Note_off_c, 0, 58, 59
1, 383369, Note_off_c, 0, 79, 47
1, 383426, Note_on_c, 0, 79, 54
1, 383427, Note_on_c, 0, 89, 77
1, 383446, Note_on_c, 0, 69, 73
1, 383450, Note_on_c, 0, 65, 64
1, 383451, Note_on_c, 0, 58, 58
1, 383453, Note_on_c, 0, 62, 64
1, 383480, Note_off_c, 0, 91, 58
1, 383506, Note_off_c, 0, 69, 63
1, 383508, Note_off_c, 0, 62, 54
1, 383511, Note_off_c, 0, 58, 50
1, 383516, Note_off_c, 0, 65, 56
1, 383557, Note_off_c, 0, 89, 64
1, 383584, Note_off_c, 0, 79, 32
1, 383585, Note_on_c, 0, 88, 12
1, 383601, Note_on_c, 0, 91, 99
1, 383616, Note_on_c, 0, 79, 56
1, 383624, Note_on_c, 0, 69, 64
1, 383640, Note_on_c, 0, 58, 54
1, 383650, Note_on_c, 0, 62, 51
1, 383651, Note_off_c, 0, 79, 67
1, 383651, Note_on_c, 0, 65, 48
1, 383662, Note_off_c, 0, 88, 63
1, 383663, Note_off_c, 0, 69, 61
1, 383684, Note_off_c, 0, 58, 60
1, 383686, Note_off_c, 0, 65, 59
1, 383693, Note_off_c, 0, 62, 57
1, 383710, Note_off_c, 0, 91, 64
1, 383788, Note_on_c, 0, 69, 64
1, 383788, Note_on_c, 0, 93, 99
1, 383791, Note_on_c, 0, 58, 56
1, 383796, Note_on_c, 0, 65, 48
1, 383801, Note_on_c, 0, 62, 61
1, 383809, Note_on_c, 0, 89, 66
1, 383812, Note_on_c, 0, 86, 49
1, 383821, Note_on_c, 0, 81, 50
1, 383828, Note_off_c, 0, 69, 59
1, 383835, Note_off_c, 0, 86, 59
1, 383842, Note_off_c, 0, 62, 55
1, 383849, Note_off_c, 0, 81, 50
1, 383853, Note_off_c, 0, 65, 54
1, 383866, Note_off_c, 0, 58, 60
1, 383898, Note_off_c, 0, 93, 65
1, 383899, Note_off_c, 0, 89, 55
1, 383906, Note_on_c, 0, 81, 25
1, 383943, Note_off_c, 0, 81, 38
1, 383970, Note_on_c, 0, 91, 97
1, 383973, Note_on_c, 0, 69, 68
1, 383986, Note_on_c, 0, 58, 61
1, 383986, Note_on_c, 0, 65, 48
1, 383987, Note_on_c, 0, 62, 53
1, 384002, Note_on_c, 0, 79, 73
1, 384008, Note_on_c, 0, 84, 56
1, 384008, Note_on_c, 0, 88, 65
1, 384023, Note_off_c, 0, 79, 65
1, 384026, Note_off_c, 0, 69, 48
1, 384029, Note_off_c, 0, 84, 62
1, 384044, Note_off_c, 0, 65, 53
1, 384048, Note_off_c, 0, 62, 48
1, 384059, Note_off_c, 0, 88, 55
1, 384059, Note_off_c, 0, 58, 60
1, 384090, Note_on_c, 0, 79, 54
1, 384131, Note_on_c, 0, 84, 51
1, 384136, Note_on_c, 0, 58, 55
1, 384137, Note_on_c, 0, 69, 67
1, 384140, Note_on_c, 0, 88, 79
1, 384155, Note_on_c, 0, 65, 55
1, 384165, Note_on_c, 0, 62, 42
1, 384205, Note_off_c, 0, 79, 56
1, 384217, Note_off_c, 0, 69, 59
1, 384228, Note_off_c, 0, 84, 64
1, 384232, Note_off_c, 0, 91, 62
1, 384239, Note_off_c, 0, 58, 62
1, 384244, Note_off_c, 0, 65, 60
1, 384253, Note_off_c, 0, 62, 61
1, 384300, Note_off_c, 0, 88, 67
1, 384304, Note_on_c, 0, 89, 96
1, 384323, Note_on_c, 0, 69, 70
1, 384326, Note_on_c, 0, 84, 63
1, 384331, Note_on_c, 0, 58, 50
1, 384333, Note_on_c, 0, 77, 68
1, 384345, Note_on_c, 0, 65, 43
1, 384346, Note_on_c, 0, 62, 28
1, 384357, Note_off_c, 0, 69, 60
1, 384372, Note_off_c, 0, 77, 57
1, 384390, Note_off_c, 0, 65, 59
1, 384393, Note_off_c, 0, 58, 60
1, 384419, Note_off_c, 0, 62, 45
1, 384480, Note_on_c, 0, 88, 92
1, 384484, Note_on_c, 0, 65, 68
1, 384490, Note_on_c, 0, 58, 67
1, 384491, Note_on_c, 0, 69, 73
1, 384493, Note_on_c, 0, 76, 73
1, 384519, Note_on_c, 0, 62, 42
1, 384522, Note_off_c, 0, 58, 63
1, 384524, Note_off_c, 0, 65, 62
1, 384543, Note_off_c, 0, 84, 65
1, 384547, Note_off_c, 0, 89, 65
1, 384548, Note_off_c, 0, 62, 53
1, 384548, Note_off_c, 0, 69, 63
1, 384557, Note_off_c, 0, 76, 62
1, 384567, Note_off_c, 0, 88, 67
1, 384657, Note_on_c, 0, 86, 102
1, 384660, Note_on_c, 0, 62, 55
1, 384667, Note_on_c, 0, 65, 63
1, 384667, Note_on_c, 0, 69, 69
1, 384670, Note_on_c, 0, 72, 67
1, 384685, Note_on_c, 0, 77, 67
1, 384685, Note_on_c, 0, 74, 66
1, 384700, Note_off_c, 0, 77, 69
1, 384703, Note_off_c, 0, 74, 68
1, 384710, Note_off_c, 0, 72, 59
1, 384733, Note_off_c, 0, 69, 50
1, 384734, Note_off_c, 0, 62, 61
1, 384757, Note_off_c, 0, 65, 53
1, 384805, Note_on_c, 0, 77, 62
1, 384817, Note_on_c, 0, 74, 63
1, 384832, Note_on_c, 0, 72, 78
1, 384846, Note_on_c, 0, 69, 69
1, 384854, Note_on_c, 0, 65, 44
1, 384888, Note_off_c, 0, 74, 62
1, 384900, Note_off_c, 0, 72, 62
1, 384905, Note_off_c, 0, 86, 65
1, 384912, Note_off_c, 0, 77, 64
1, 384930, Note_on_c, 0, 62, 77
1, 384933, Note_off_c, 0, 65, 37
1, 384933, Note_off_c, 0, 69, 67
1, 384956, Note_off_c, 0, 62, 66
1, 384983, Note_on_c, 0, 84, 101
1, 385009, Note_on_c, 0, 76, 70
1, 385010, Note_on_c, 0, 79, 71
1, 385073, Note_off_c, 0, 76, 53
1, 385109, Control_c, 0, 64, 93
1, 385132, Control_c, 0, 64, 57
1, 385147, Control_c, 0, 64, 0
1, 385153, Poly_aftertouch_c, 0, 44, 0
1, 385156, Note_on_c, 0, 41, 82
1, 385156, Note_on_c, 0, 48, 92
1, 385161, Control_c, 0, 64, 22
1, 385162, Note_on_c, 0, 81, 82
1, 385176, Control_c, 0, 64, 62
1, 385182, Note_off_c, 0, 79, 62
1, 385191, Control_c, 0, 64, 100
1, 385206, Control_c, 0, 64, 127
1, 385213, Note_off_c, 0, 41, 63
1, 385215, Note_off_c, 0, 48, 64
1, 385238, Note_off_c, 0, 81, 64
1, 385243, Poly_aftertouch_c, 0, 76, 0
1, 385246, Note_off_c, 0, 84, 65
1, 385346, Note_on_c, 0, 89, 112
1, 385407, Note_on_c, 0, 69, 32
1, 385448, Note_off_c, 0, 69, 51
1, 385463, Poly_aftertouch_c, 0, 79, 0
1, 385478, Poly_aftertouch_c, 0, 72, 0
1, 385514, Poly_aftertouch_c, 0, 65, 0
1, 385520, Note_on_c, 0, 76, 79
1, 385520, Note_on_c, 0, 81, 83
1, 385525, Note_on_c, 0, 65, 52
1, 385527, Note_on_c, 0, 72, 52
1, 385532, Note_on_c, 0, 69, 71
1, 385597, Note_off_c, 0, 89, 63
1, 385601, Note_off_c, 0, 81, 64
1, 385614, Note_off_c, 0, 65, 58
1, 385620, Note_off_c, 0, 72, 60
1, 385620, Note_off_c, 0, 76, 61
1, 385628, Note_off_c, 0, 69, 61
1, 385687, Note_on_c, 0, 89, 97
1, 385702, Note_on_c, 0, 76, 72
1, 385702, Note_on_c, 0, 79, 78
1, 385721, Note_on_c, 0, 65, 61
1, 385722, Note_on_c, 0, 69, 49
1, 385754, Note_on_c, 0, 72, 13
1, 385762, Note_off_c, 0, 65, 56
1, 385764, Note_off_c, 0, 69, 59
1, 385771, Note_off_c, 0, 79, 45
1, 385776, Note_off_c, 0, 76, 60
1, 385799, Note_off_c, 0, 72, 38
1, 385851, Note_on_c, 0, 76, 80
1, 385857, Note_on_c, 0, 65, 65
1, 385865, Note_on_c, 0, 69, 61
1, 385869, Note_on_c, 0, 77, 74
1, 385879, Note_on_c, 0, 72, 76
1, 385931, Note_off_c, 0, 76, 63
1, 385955, Note_off_c, 0, 65, 58
1, 385960, Note_off_c, 0, 72, 60
1, 385969, Note_off_c, 0, 69, 63
1, 385971, Note_off_c, 0, 77, 64
1, 386043, Note_on_c, 0, 88, 95
1, 386050, Note_on_c, 0, 72, 77
1, 386065, Note_on_c, 0, 76, 70
1, 386068, Note_on_c, 0, 65, 65
1, 386077, Note_on_c, 0, 69, 54
1, 386080, Note_on_c, 0, 77, 55
1, 386112, Note_off_c, 0, 89, 61
1, 386114, Note_off_c, 0, 77, 47
1, 386119, Note_off_c, 0, 65, 58
1, 386120, Note_off_c, 0, 69, 59
1, 386121, Note_off_c, 0, 72, 56
1, 386216, Note_on_c, 0, 72, 83
1, 386223, Note_on_c, 0, 65, 71
1, 386226, Note_on_c, 0, 69, 60
1, 386293, Note_off_c, 0, 76, 62
1, 386299, Note_off_c, 0, 65, 58
1, 386310, Note_off_c, 0, 72, 60
1, 386322, Note_off_c, 0, 69, 48
1, 386371, Note_on_c, 0, 86, 95
1, 386390, Note_on_c, 0, 65, 60
1, 386390, Note_on_c, 0, 69, 45
1, 386393, Note_on_c, 0, 76, 72
1, 386394, Note_on_c, 0, 72, 57
1, 386399, Note_on_c, 0, 74, 70
1, 386420, Note_off_c, 0, 88, 68
1, 386436, Note_off_c, 0, 65, 56
1, 386444, Note_off_c, 0, 72, 56
1, 386444, Note_off_c, 0, 76, 59
1, 386447, Note_off_c, 0, 74, 56
1, 386464, Note_off_c, 0, 69, 58
1, 386544, Note_on_c, 0, 65, 70
1, 386545, Note_on_c, 0, 72, 75
1, 386550, Note_on_c, 0, 74, 70
1, 386575, Note_on_c, 0, 69, 53
1, 386593, Note_off_c, 0, 72, 61
1, 386601, Note_off_c, 0, 69, 59
1, 386604, Note_off_c, 0, 65, 61
1, 386605, Note_off_c, 0, 74, 58
1, 386636, Note_off_c, 0, 86, 64
1, 386728, Note_on_c, 0, 84, 96
1, 386730, Note_on_c, 0, 69, 59
1, 386735, Note_on_c, 0, 65, 64
1, 386735, Note_on_c, 0, 72, 64
1, 386742, Note_on_c, 0, 62, 62
1, 386756, Note_on_c, 0, 74, 72
1, 386760, Note_on_c, 0, 77, 70
1, 386796, Note_off_c, 0, 77, 60
1, 386802, Note_off_c, 0, 72, 59
1, 386805, Note_off_c, 0, 74, 57
1, 386810, Note_off_c, 0, 62, 60
1, 386822, Note_off_c, 0, 69, 52
1, 386843, Note_off_c, 0, 65, 55
1, 386891, Note_on_c, 0, 77, 80
1, 386904, Note_on_c, 0, 72, 80
1, 386905, Note_on_c, 0, 74, 74
1, 386918, Note_on_c, 0, 69, 74
1, 386927, Note_off_c, 0, 72, 67
1, 386932, Note_on_c, 0, 62, 70
1, 386939, Note_on_c, 0, 65, 44
1, 386947, Note_off_c, 0, 69, 69
1, 386964, Note_off_c, 0, 65, 61
1, 386966, Note_off_c, 0, 74, 63
1, 386975, Note_off_c, 0, 62, 67
1, 387014, Note_off_c, 0, 77, 62
1, 387065, Note_on_c, 0, 79, 98
1, 387074, Note_on_c, 0, 76, 81
1, 387145, Note_off_c, 0, 76, 53
1, 387179, Control_c, 0, 64, 107
1, 387194, Control_c, 0, 64, 52
1, 387209, Control_c, 0, 64, 0
1, 387224, Note_on_c, 0, 81, 67
1, 387225, Note_on_c, 0, 43, 97
1, 387228, Note_off_c, 0, 79, 65
1, 387231, Note_on_c, 0, 36, 88
1, 387243, Note_off_c, 0, 84, 65
1, 387244, Note_off_c, 0, 81, 67
1, 387253, Control_c, 0, 64, 49
1, 387268, Control_c, 0, 64, 127
1, 387307, Note_off_c, 0, 36, 64
1, 387323, Note_off_c, 0, 43, 65
1, 387471, Note_on_c, 0, 96, 104
1, 387492, Note_on_c, 0, 84, 80
1, 387520, Note_on_c, 0, 69, 73
1, 387531, Note_on_c, 0, 91, 3
1, 387561, Note_off_c, 0, 69, 59
1, 387566, Note_on_c, 0, 58, 10
1, 387574, Note_off_c, 0, 91, 34
1, 387619, Note_off_c, 0, 58, 36
1, 387657, Note_on_c, 0, 93, 88
1, 387660, Note_on_c, 0, 69, 90
1, 387666, Note_on_c, 0, 65, 76
1, 387669, Note_on_c, 0, 62, 72
1, 387672, Note_on_c, 0, 89, 66
1, 387676, Note_on_c, 0, 58, 76
1, 387699, Note_on_c, 0, 91, 22
1, 387733, Note_off_c, 0, 69, 64
1, 387738, Note_off_c, 0, 91, 45
1, 387739, Note_off_c, 0, 58, 61
1, 387741, Note_off_c, 0, 89, 63
1, 387753, Note_off_c, 0, 65, 62
1, 387770, Note_off_c, 0, 62, 62
1, 387812, Note_on_c, 0, 69, 88
1, 387818, Note_on_c, 0, 91, 83
1, 387822, Note_on_c, 0, 62, 60
1, 387824, Note_on_c, 0, 65, 68
1, 387836, Note_on_c, 0, 58, 73
1, 387863, Note_off_c, 0, 96, 64
1, 387870, Note_off_c, 0, 93, 65
1, 387882, Note_off_c, 0, 84, 64
1, 387896, Note_off_c, 0, 69, 64
1, 387900, Note_off_c, 0, 91, 66
1, 387904, Note_off_c, 0, 58, 61
1, 387918, Note_off_c, 0, 65, 62
1, 387924, Note_off_c, 0, 62, 62
1, 387977, Note_on_c, 0, 69, 90
1, 387980, Note_on_c, 0, 65, 68
1, 387980, Note_on_c, 0, 93, 98
1, 387983, Note_on_c, 0, 62, 60
1, 387991, Note_on_c, 0, 81, 86
1, 388002, Note_on_c, 0, 58, 64
1, 388021, Note_off_c, 0, 81, 64
1, 388031, Note_off_c, 0, 69, 64
1, 388031, Note_off_c, 0, 93, 66
1, 388038, Note_off_c, 0, 58, 60
1, 388062, Note_off_c, 0, 62, 61
1, 388068, Note_off_c, 0, 65, 56
1, 388134, Note_on_c, 0, 69, 74
1, 388149, Note_on_c, 0, 58, 64
1, 388155, Note_off_c, 0, 69, 73
1, 388169, Poly_aftertouch_c, 0, 84, 0
1, 388178, Note_off_c, 0, 58, 67
1, 388191, Note_on_c, 0, 94, 100
1, 388203, Note_on_c, 0, 82, 95
1, 388203, Poly_aftertouch_c, 0, 65, 127
1, 388206, Poly_aftertouch_c, 0, 84, 127
1, 388220, Note_on_c, 0, 84, 3
1, 388225, Poly_aftertouch_c, 0, 65, 0
1, 388240, Poly_aftertouch_c, 0, 62, 0
1, 388265, Poly_aftertouch_c, 0, 69, 127
1, 388283, Poly_aftertouch_c, 0, 92, 127
1, 388301, Poly_aftertouch_c, 0, 69, 0
1, 388334, Control_c, 0, 64, 59
1, 388336, Note_off_c, 0, 84, 0
1, 388349, Control_c, 0, 64, 0
1, 388354, Note_on_c, 0, 48, 96
1, 388356, Note_on_c, 0, 84, 36
1, 388357, Note_on_c, 0, 88, 80
1, 388358, Note_on_c, 0, 41, 88
1, 388360, Poly_aftertouch_c, 0, 42, 0
1, 388378, Control_c, 0, 64, 16
1, 388393, Control_c, 0, 64, 66
1, 388408, Control_c, 0, 64, 127
1, 388413, Note_off_c, 0, 41, 63
1, 388413, Note_off_c, 0, 94, 61
1, 388420, Note_off_c, 0, 82, 62
1, 388435, Note_off_c, 0, 48, 66
1, 388455, Poly_aftertouch_c, 0, 92, 0
1, 388525, Note_on_c, 0, 93, 102
1, 388532, Note_on_c, 0, 81, 88
1, 388560, Note_on_c, 0, 69, 86
1, 388585, Note_on_c, 0, 58, 62
1, 388610, Note_off_c, 0, 69, 64
1, 388613, Note_off_c, 0, 58, 66
1, 388630, Note_off_c, 0, 93, 65
1, 388633, Note_off_c, 0, 81, 63
1, 388688, Note_off_c, 0, 88, 61
1, 388697, Note_on_c, 0, 58, 62
1, 388700, Note_on_c, 0, 69, 80
1, 388702, Note_on_c, 0, 91, 91
1, 388713, Note_on_c, 0, 79, 84
1, 388727, Note_off_c, 0, 69, 69
1, 388730, Note_off_c, 0, 58, 67
1, 388791, Note_off_c, 0, 91, 64
1, 388792, Note_off_c, 0, 79, 61
1, 388832, Note_off_c, 0, 84, 59
1, 388860, Note_on_c, 0, 72, 76
1, 388864, Note_on_c, 0, 69, 66
1, 388866, Note_on_c, 0, 65, 65
1, 388882, Note_on_c, 0, 62, 63
1, 388886, Note_on_c, 0, 89, 104
1, 388903, Note_on_c, 0, 77, 83
1, 388921, Note_on_c, 0, 86, 61
1, 388940, Note_off_c, 0, 86, 64
1, 388946, Note_off_c, 0, 77, 58
1, 388950, Note_off_c, 0, 72, 61
1, 388954, Note_off_c, 0, 89, 66
1, 388956, Note_off_c, 0, 69, 64
1, 388960, Note_off_c, 0, 62, 63
1, 388961, Note_off_c, 0, 65, 60
1, 389040, Note_on_c, 0, 72, 91
1, 389058, Note_on_c, 0, 69, 73
1, 389058, Note_on_c, 0, 77, 74
1, 389060, Note_on_c, 0, 62, 69
1, 389071, Note_on_c, 0, 65, 62
1, 389078, Note_on_c, 0, 78, 55
1, 389100, Note_off_c, 0, 78, 62
1, 389131, Note_off_c, 0, 72, 59
1, 389133, Note_off_c, 0, 69, 59
1, 389136, Note_off_c, 0, 65, 48
1, 389139, Note_off_c, 0, 62, 60
1, 389139, Note_on_c, 0, 74, 36
1, 389172, Note_off_c, 0, 74, 49
1, 389212, Note_on_c, 0, 72, 89
1, 389217, Note_on_c, 0, 79, 88
1, 389219, Note_on_c, 0, 76, 78
1, 389225, Note_on_c, 0, 62, 75
1, 389228, Note_on_c, 0, 69, 79
1, 389237, Note_on_c, 0, 65, 67
1, 389294, Note_off_c, 0, 76, 57
1, 389303, Note_off_c, 0, 72, 59
1, 389307, Note_off_c, 0, 62, 62
1, 389309, Note_off_c, 0, 69, 61
1, 389320, Note_off_c, 0, 65, 56
1, 389356, Note_off_c, 0, 77, 42
1, 389357, Note_off_c, 0, 79, 55
1, 389377, Note_on_c, 0, 81, 95
1, 389389, Note_on_c, 0, 72, 87
1, 389401, Note_on_c, 0, 62, 69
1, 389403, Note_on_c, 0, 69, 71
1, 389413, Note_on_c, 0, 65, 57
1, 389431, Note_off_c, 0, 81, 65
1, 389437, Note_off_c, 0, 62, 63
1, 389443, Note_off_c, 0, 69, 62
1, 389446, Note_off_c, 0, 65, 62
1, 389449, Note_off_c, 0, 72, 62
1, 389552, Note_on_c, 0, 96, 110
1, 389568, Note_on_c, 0, 65, 64
1, 389572, Note_on_c, 0, 76, 74
1, 389574, Note_on_c, 0, 72, 64
1, 389578, Note_on_c, 0, 84, 73
1, 389584, Note_on_c, 0, 69, 51
1, 389635, Note_off_c, 0, 72, 55
1, 389644, Note_off_c, 0, 65, 62
1, 389645, Note_off_c, 0, 76, 60
1, 389653, Note_off_c, 0, 69, 55
1, 389678, Poly_aftertouch_c, 0, 91, 0
1, 389723, Note_on_c, 0, 93, 92
1, 389729, Note_on_c, 0, 76, 90
1, 389731, Note_on_c, 0, 89, 73
1, 389733, Note_on_c, 0, 72, 79
1, 389735, Note_on_c, 0, 65, 83
1, 389744, Note_on_c, 0, 69, 74
1, 389800, Note_off_c, 0, 96, 64
1, 389818, Note_off_c, 0, 76, 63
1, 389818, Note_off_c, 0, 65, 61
1, 389819, Note_off_c, 0, 72, 60
1, 389825, Note_off_c, 0, 89, 63
1, 389827, Note_off_c, 0, 69, 60
1, 389832, Note_off_c, 0, 84, 60
1, 389833, Note_off_c, 0, 93, 67
1, 389897, Note_on_c, 0, 76, 93
1, 389899, Note_on_c, 0, 96, 103
1, 389902, Note_on_c, 0, 65, 85
1, 389906, Note_on_c, 0, 72, 77
1, 389909, Note_on_c, 0, 69, 72
1, 389910, Note_on_c, 0, 84, 83
1, 389930, Note_on_c, 0, 95, 46
1, 389931, Note_off_c, 0, 95, 127
1, 389932, Note_off_c, 0, 84, 69
1, 389955, Note_off_c, 0, 96, 67
1, 389981, Note_off_c, 0, 65, 58
1, 389985, Note_off_c, 0, 72, 59
1, 389988, Note_off_c, 0, 76, 59
1, 390001, Note_off_c, 0, 69, 62
1, 390070, Poly_aftertouch_c, 0, 84, 0
1, 390078, Note_on_c, 0, 93, 107
1, 390083, Note_on_c, 0, 76, 92
1, 390085, Note_on_c, 0, 65, 82
1, 390090, Note_on_c, 0, 72, 80
1, 390096, Note_on_c, 0, 69, 73
1, 390097, Note_on_c, 0, 81, 70
1, 390113, Note_off_c, 0, 81, 66
1, 390122, Note_off_c, 0, 69, 66
1, 390122, Note_off_c, 0, 93, 66
1, 390127, Note_off_c, 0, 72, 55
1, 390170, Note_off_c, 0, 76, 53
1, 390175, Note_off_c, 0, 65, 51
1, 390201, Note_on_c, 0, 69, 43
1, 390229, Note_off_c, 0, 69, 58
1, 390295, Note_on_c, 0, 76, 69
1, 390302, Note_on_c, 0, 65, 80
1, 390312, Note_off_c, 0, 76, 68
1, 390315, Note_on_c, 0, 69, 55
1, 390316, Note_on_c, 0, 98, 103
1, 390320, Note_on_c, 0, 72, 40
1, 390328, Note_on_c, 0, 84, 79
1, 390331, Note_on_c, 0, 88, 69
1, 390335, Note_off_c, 0, 69, 65
1, 390339, Note_off_c, 0, 65, 65
1, 390351, Note_off_c, 0, 72, 51
1, 390352, Note_on_c, 0, 64, 32
1, 390353, Note_off_c, 0, 64, 127
1, 390355, Note_off_c, 0, 88, 68
1, 390377, Note_off_c, 0, 84, 56
1, 390378, Note_on_c, 0, 86, 27
1, 390379, Note_off_c, 0, 86, 127
1, 390394, Poly_aftertouch_c, 0, 64, 0
1, 390483, Note_on_c, 0, 42, 25
1, 390498, Note_on_c, 0, 88, 27
1, 390521, Control_c, 0, 64, 81
1, 390527, Note_off_c, 0, 42, 51
1, 390534, Note_on_c, 0, 43, 95
1, 390536, Control_c, 0, 64, 37
1, 390544, Note_on_c, 0, 36, 86
1, 390548, Note_on_c, 0, 84, 44
1, 390549, Note_off_c, 0, 88, 67
1, 390551, Control_c, 0, 64, 0
1, 390552, Note_on_c, 0, 38, 50
1, 390566, Control_c, 0, 64, 43
1, 390580, Control_c, 0, 64, 91
1, 390585, Note_off_c, 0, 38, 53
1, 390590, Note_off_c, 0, 36, 64
1, 390595, Control_c, 0, 64, 127
1, 390597, Note_off_c, 0, 43, 64
1, 390627, Note_off_c, 0, 84, 0
1, 390627, Note_on_c, 0, 84, 5
1, 390636, Note_off_c, 0, 98, 62
1, 390657, Poly_aftertouch_c, 0, 42, 0
1, 390664, Note_off_c, 0, 84, 35
1, 390706, Note_on_c, 0, 98, 101
1, 390712, Note_on_c, 0, 84, 75
1, 390715, Note_on_c, 0, 88, 70
1, 390737, Note_on_c, 0, 94, 56
1, 390754, Note_on_c, 0, 76, 60
1, 390757, Note_on_c, 0, 69, 57
1, 390757, Note_on_c, 0, 72, 55
1, 390757, Note_off_c, 0, 94, 63
1, 390760, Note_off_c, 0, 84, 56
1, 390764, Note_off_c, 0, 88, 53
1, 390796, Note_off_c, 0, 76, 57
1, 390799, Note_off_c, 0, 72, 58
1, 390823, Note_off_c, 0, 69, 61
1, 390873, Note_on_c, 0, 72, 80
1, 390875, Note_on_c, 0, 88, 60
1, 390876, Note_on_c, 0, 84, 84
1, 390876, Note_on_c, 0, 76, 73
1, 390879, Note_on_c, 0, 65, 71
1, 390888, Note_on_c, 0, 69, 55
1, 390895, Note_on_c, 0, 86, 67
1, 390903, Note_off_c, 0, 88, 69
1, 390906, Note_off_c, 0, 76, 67
1, 390908, Note_off_c, 0, 98, 54
1, 390919, Note_off_c, 0, 86, 53
1, 390928, Note_off_c, 0, 72, 63
1, 390936, Note_off_c, 0, 84, 62
1, 390946, Note_off_c, 0, 69, 63
1, 390955, Note_off_c, 0, 65, 63
1, 391032, Note_on_c, 0, 96, 98
1, 391043, Note_on_c, 0, 86, 81
1, 391048, Note_on_c, 0, 84, 84
1, 391055, Note_on_c, 0, 72, 66
1, 391060, Note_on_c, 0, 74, 65
1, 391062, Note_on_c, 0, 89, 58
1, 391067, Note_on_c, 0, 62, 63
1, 391067, Note_on_c, 0, 65, 59
1, 391070, Note_on_c, 0, 69, 47
1, 391084, Note_off_c, 0, 89, 60
1, 391099, Note_off_c, 0, 69, 52
1, 391101, Note_off_c, 0, 74, 61
1, 391108, Note_off_c, 0, 84, 58
1, 391110, Note_off_c, 0, 86, 56
1, 391127, Note_off_c, 0, 62, 58
1, 391131, Note_off_c, 0, 65, 49
1, 391134, Note_off_c, 0, 72, 61
1, 391200, Note_on_c, 0, 88, 57
1, 391202, Note_on_c, 0, 89, 65
1, 391207, Note_on_c, 0, 72, 85
1, 391210, Note_on_c, 0, 84, 65
1, 391212, Note_on_c, 0, 69, 74
1, 391214, Note_on_c, 0, 86, 49
1, 391219, Note_on_c, 0, 62, 75
1, 391239, Note_on_c, 0, 65, 52
1, 391242, Note_off_c, 0, 86, 55
1, 391255, Note_off_c, 0, 84, 60
1, 391269, Note_off_c, 0, 72, 62
1, 391282, Note_off_c, 0, 62, 60
1, 391291, Note_off_c, 0, 96, 65
1, 391304, Note_off_c, 0, 65, 56
1, 391307, Note_off_c, 0, 69, 63
1, 391309, Note_off_c, 0, 89, 57
1, 391310, Note_off_c, 0, 88, 59
1, 391370, Note_on_c, 0, 96, 108
1, 391376, Note_on_c, 0, 72, 89
1, 391383, Note_on_c, 0, 62, 70
1, 391386, Note_on_c, 0, 84, 90
1, 391393, Note_on_c, 0, 69, 66
1, 391409, Note_on_c, 0, 65, 58
1, 391435, Note_off_c, 0, 84, 65
1, 391440, Note_off_c, 0, 69, 52
1, 391447, Note_off_c, 0, 96, 66
1, 391455, Note_off_c, 0, 65, 56
1, 391455, Note_off_c, 0, 62, 63
1, 391468, Note_off_c, 0, 72, 58
1, 391525, Note_on_c, 0, 72, 79
1, 391539, Note_on_c, 0, 65, 72
1, 391541, Note_on_c, 0, 69, 70
1, 391542, Note_on_c, 0, 93, 93
1, 391548, Note_on_c, 0, 62, 65
1, 391557, Note_on_c, 0, 81, 80
1, 391573, Note_off_c, 0, 69, 64
1, 391577, Note_off_c, 0, 72, 63
1, 391581, Note_off_c, 0, 62, 65
1, 391612, Note_off_c, 0, 65, 62
1, 391613, Note_off_c, 0, 81, 55
1, 391625, Note_off_c, 0, 93, 61
1, 391664, Poly_aftertouch_c, 0, 91, 0
1, 391705, Note_on_c, 0, 69, 82
1, 391717, Note_on_c, 0, 91, 103
1, 391722, Note_on_c, 0, 58, 69
1, 391729, Note_on_c, 0, 79, 80
1, 391749, Note_on_c, 0, 66, 40
1, 391765, Note_off_c, 0, 58, 61
1, 391774, Note_off_c, 0, 69, 62
1, 391784, Note_off_c, 0, 66, 52
1, 391798, Note_off_c, 0, 79, 46
1, 391882, Note_on_c, 0, 69, 85
1, 391884, Note_on_c, 0, 79, 71
1, 391887, Note_on_c, 0, 89, 74
1, 391893, Note_on_c, 0, 62, 68
1, 391894, Note_on_c, 0, 58, 68
1, 391894, Note_on_c, 0, 65, 64
1, 391930, Note_off_c, 0, 91, 61
1, 391958, Note_off_c, 0, 69, 63
1, 391965, Note_off_c, 0, 58, 60
1, 391988, Note_off_c, 0, 65, 59
1, 391994, Note_off_c, 0, 62, 62
1, 391998, Note_off_c, 0, 79, 58
1, 392004, Note_on_c, 0, 87, 44
1, 392012, Note_off_c, 0, 89, 64
1, 392030, Note_off_c, 0, 87, 59
1, 392053, Note_on_c, 0, 69, 91
1, 392057, Note_on_c, 0, 88, 60
1, 392057, Note_on_c, 0, 91, 98
1, 392063, Note_on_c, 0, 62, 68
1, 392063, Note_on_c, 0, 65, 68
1, 392066, Note_on_c, 0, 79, 76
1, 392071, Note_on_c, 0, 58, 72
1, 392102, Note_off_c, 0, 79, 63
1, 392128, Note_off_c, 0, 69, 63
1, 392139, Note_off_c, 0, 88, 65
1, 392140, Note_off_c, 0, 58, 59
1, 392143, Note_off_c, 0, 91, 64
1, 392149, Note_off_c, 0, 65, 60
1, 392155, Note_off_c, 0, 62, 61
1, 392216, Note_on_c, 0, 93, 95
1, 392218, Note_on_c, 0, 69, 87
1, 392224, Note_on_c, 0, 58, 67
1, 392224, Note_on_c, 0, 62, 67
1, 392226, Note_on_c, 0, 65, 70
1, 392228, Note_on_c, 0, 81, 84
1, 392233, Note_on_c, 0, 86, 73
1, 392248, Note_on_c, 0, 89, 63
1, 392266, Note_off_c, 0, 86, 62
1, 392281, Note_off_c, 0, 81, 63
1, 392282, Note_off_c, 0, 69, 63
1, 392285, Note_off_c, 0, 89, 60
1, 392289, Note_off_c, 0, 93, 65
1, 392291, Note_off_c, 0, 58, 64
1, 392300, Note_off_c, 0, 62, 64
1, 392305, Note_off_c, 0, 65, 59
1, 392349, Note_on_c, 0, 69, 77
1, 392360, Note_on_c, 0, 58, 72
1, 392361, Note_on_c, 0, 62, 51
1, 392371, Note_off_c, 0, 69, 69
1, 392381, Note_off_c, 0, 62, 64
1, 392389, Note_on_c, 0, 91, 100
1, 392391, Note_off_c, 0, 58, 69
1, 392399, Note_on_c, 0, 79, 99
1, 392404, Poly_aftertouch_c, 0, 65, 127
1, 392408, Note_on_c, 0, 84, 79
1, 392416, Note_on_c, 0, 88, 65
1, 392438, Poly_aftertouch_c, 0, 65, 0
1, 392440, Note_off_c, 0, 84, 59
1, 392453, Note_off_c, 0, 88, 58
1, 392480, Poly_aftertouch_c, 0, 69, 127
1, 392514, Poly_aftertouch_c, 0, 69, 0
1, 392552, Control_c, 0, 64, 72
1, 392560, Note_on_c, 0, 48, 92
1, 392564, Note_on_c, 0, 41, 82
1, 392567, Control_c, 0, 64, 37
1, 392573, Note_on_c, 0, 88, 88
1, 392575, Note_on_c, 0, 84, 63
1, 392582, Control_c, 0, 64, 25
1, 392596, Control_c, 0, 64, 66
1, 392618, Control_c, 0, 64, 127
1, 392630, Note_off_c, 0, 41, 62
1, 392640, Note_off_c, 0, 48, 62
1, 392642, Note_off_c, 0, 91, 63
1, 392659, Note_off_c, 0, 79, 63
1, 392686, Note_off_c, 0, 84, 64
1, 392737, Note_on_c, 0, 84, 74
1, 392741, Note_on_c, 0, 89, 88
1, 392751, Note_on_c, 0, 77, 86
1, 392760, Note_on_c, 0, 69, 79
1, 392771, Note_on_c, 0, 58, 65
1, 392783, Note_off_c, 0, 88, 64
1, 392802, Note_off_c, 0, 58, 65
1, 392812, Note_off_c, 0, 69, 61
1, 392840, Note_off_c, 0, 77, 64
1, 392890, Note_on_c, 0, 58, 62
1, 392904, Note_on_c, 0, 69, 75
1, 392906, Note_on_c, 0, 88, 85
1, 392917, Note_on_c, 0, 76, 74
1, 392944, Note_off_c, 0, 69, 65
1, 392950, Note_off_c, 0, 58, 64
1, 392963, Note_off_c, 0, 89, 65
1, 392974, Note_off_c, 0, 84, 64
1, 392977, Note_off_c, 0, 76, 61
1, 392996, Note_off_c, 0, 88, 66
1, 393079, Note_on_c, 0, 86, 94
1, 393079, Note_on_c, 0, 69, 61
1, 393081, Note_on_c, 0, 72, 69
1, 393082, Note_on_c, 0, 62, 66
1, 393092, Note_on_c, 0, 65, 52
1, 393100, Note_on_c, 0, 74, 75
1, 393100, Note_on_c, 0, 77, 82
1, 393128, Note_off_c, 0, 77, 63
1, 393132, Note_off_c, 0, 74, 60
1, 393137, Note_off_c, 0, 72, 53
1, 393146, Note_off_c, 0, 65, 54
1, 393151, Note_off_c, 0, 69, 61
1, 393154, Note_off_c, 0, 62, 61
1, 393237, Note_on_c, 0, 72, 80
1, 393243, Note_on_c, 0, 62, 72
1, 393245, Note_on_c, 0, 65, 67
1, 393249, Note_on_c, 0, 69, 71
1, 393249, Note_on_c, 0, 77, 76
1, 393250, Note_on_c, 0, 74, 72
1, 393313, Note_off_c, 0, 74, 61
1, 393315, Note_off_c, 0, 77, 64
1, 393321, Note_off_c, 0, 86, 65
1, 393334, Note_off_c, 0, 72, 62
1, 393340, Note_off_c, 0, 69, 62
1, 393344, Note_off_c, 0, 62, 61
1, 393355, Note_off_c, 0, 65, 60
1, 393419, Note_on_c, 0, 84, 100
1, 393420, Note_on_c, 0, 72, 86
1, 393431, Note_on_c, 0, 79, 83
1, 393436, Note_on_c, 0, 62, 68
1, 393436, Note_on_c, 0, 69, 69
1, 393443, Note_on_c, 0, 65, 57
1, 393443, Note_on_c, 0, 76, 73
1, 393467, Note_off_c, 0, 76, 67
1, 393488, Note_off_c, 0, 69, 58
1, 393500, Note_off_c, 0, 65, 55
1, 393501, Note_off_c, 0, 72, 61
1, 393504, Note_off_c, 0, 62, 61
1, 393581, Note_on_c, 0, 72, 93
1, 393581, Note_on_c, 0, 81, 89
1, 393585, Note_on_c, 0, 62, 67
1, 393585, Note_on_c, 0, 69, 75
1, 393589, Note_off_c, 0, 79, 63
1, 393599, Note_on_c, 0, 65, 62
1, 393621, Note_off_c, 0, 84, 66
1, 393630, Note_off_c, 0, 81, 64
1, 393631, Note_off_c, 0, 62, 66
1, 393631, Note_off_c, 0, 69, 58
1, 393632, Note_off_c, 0, 65, 63
1, 393637, Note_off_c, 0, 72, 63
1, 393756, Note_on_c, 0, 89, 102
1, 393774, Note_on_c, 0, 76, 73
1, 393776, Note_on_c, 0, 65, 58
1, 393786, Note_on_c, 0, 72, 49
1, 393799, Note_on_c, 0, 79, 38
1, 393807, Note_on_c, 0, 69, 36
1, 393823, Note_off_c, 0, 65, 57
1, 393824, Note_off_c, 0, 72, 60
1, 393830, Note_off_c, 0, 79, 54
1, 393838, Note_off_c, 0, 76, 53
1, 393839, Note_off_c, 0, 69, 53
1, 393923, Note_on_c, 0, 81, 76
1, 393928, Note_on_c, 0, 65, 65
1, 393931, Note_on_c, 0, 72, 57
1, 393932, Note_on_c, 0, 69, 58
1, 393932, Note_on_c, 0, 76, 75
1, 393989, Note_off_c, 0, 72, 55
1, 394000, Note_off_c, 0, 69, 58
1, 394002, Note_off_c, 0, 89, 62
1, 394003, Note_off_c, 0, 76, 59
1, 394004, Note_off_c, 0, 65, 58
1, 394014, Note_off_c, 0, 81, 63
1, 394091, Note_on_c, 0, 89, 103
1, 394102, Note_on_c, 0, 76, 71
1, 394105, Note_on_c, 0, 72, 62
1, 394106, Note_on_c, 0, 79, 78
1, 394122, Note_on_c, 0, 65, 61
1, 394123, Note_on_c, 0, 69, 61
1, 394154, Note_off_c, 0, 72, 56
1, 394156, Note_off_c, 0, 69, 64
1, 394161, Note_off_c, 0, 79, 64
1, 394164, Note_off_c, 0, 65, 58
1, 394165, Note_off_c, 0, 76, 52
1, 394269, Note_on_c, 0, 76, 76
1, 394272, Note_on_c, 0, 77, 75
1, 394278, Note_on_c, 0, 65, 51
1, 394278, Note_on_c, 0, 69, 49
1, 394279, Note_on_c, 0, 72, 54
1, 394317, Note_off_c, 0, 72, 59
1, 394319, Note_off_c, 0, 65, 58
1, 394325, Note_off_c, 0, 69, 59
1, 394334, Note_off_c, 0, 76, 60
1, 394337, Note_off_c, 0, 77, 64
1, 394409, Note_on_c, 0, 65, 68
1, 394418, Note_on_c, 0, 72, 47
1, 394424, Note_on_c, 0, 69, 50
1, 394437, Note_on_c, 0, 88, 97
1, 394441, Note_off_c, 0, 72, 55
1, 394448, Note_on_c, 0, 76, 84
1, 394448, Note_off_c, 0, 69, 60
1, 394451, Note_off_c, 0, 65, 63
1, 394467, Note_off_c, 0, 89, 65
1, 394562, Control_c, 0, 64, 109
1, 394577, Control_c, 0, 64, 61
1, 394592, Control_c, 0, 64, 0
1, 394605, Note_on_c, 0, 36, 82
1, 394607, Control_c, 0, 64, 33
1, 394608, Note_on_c, 0, 43, 74
1, 394621, Control_c, 0, 64, 70
1, 394631, Note_off_c, 0, 43, 67
1, 394635, Note_off_c, 0, 36, 68
1, 394636, Control_c, 0, 64, 127
1, 394717, Note_off_c, 0, 76, 36
1, 394786, Note_on_c, 0, 86, 92
1, 394808, Note_on_c, 0, 74, 69
1, 394820, Note_on_c, 0, 72, 47
1, 394832, Note_off_c, 0, 88, 66
1, 394834, Note_on_c, 0, 69, 34
1, 394843, Note_off_c, 0, 72, 56
1, 394883, Note_off_c, 0, 69, 49
1, 394948, Note_on_c, 0, 72, 63
1, 394975, Note_on_c, 0, 69, 56
1, 394978, Note_off_c, 0, 74, 0
1, 394978, Note_on_c, 0, 74, 6
1, 394990, Note_off_c, 0, 72, 61
1, 395004, Note_on_c, 0, 65, 10
1, 395010, Note_off_c, 0, 69, 64
1, 395032, Note_off_c, 0, 74, 61
1, 395034, Note_off_c, 0, 86, 63
1, 395052, Note_off_c, 0, 65, 39
1, 395126, Note_on_c, 0, 84, 85
1, 395151, Note_on_c, 0, 74, 60
1, 395153, Note_on_c, 0, 65, 51
1, 395158, Note_on_c, 0, 77, 42
1, 395161, Note_on_c, 0, 62, 43
1, 395170, Note_on_c, 0, 72, 35
1, 395171, Note_on_c, 0, 69, 22
1, 395196, Note_off_c, 0, 77, 48
1, 395200, Note_off_c, 0, 65, 58
1, 395202, Note_off_c, 0, 72, 47
1, 395205, Note_off_c, 0, 62, 48
1, 395207, Note_off_c, 0, 74, 60
1, 395208, Note_off_c, 0, 69, 54
1, 395299, Note_on_c, 0, 77, 65
1, 395303, Note_on_c, 0, 69, 53
1, 395306, Note_on_c, 0, 72, 53
1, 395310, Note_on_c, 0, 62, 53
1, 395327, Note_on_c, 0, 65, 38
1, 395330, Note_on_c, 0, 74, 49
1, 395352, Note_off_c, 0, 69, 62
1, 395354, Note_off_c, 0, 72, 57
1, 395356, Note_off_c, 0, 74, 59
1, 395361, Note_off_c, 0, 62, 58
1, 395363, Note_off_c, 0, 65, 50
1, 395455, Note_off_c, 0, 77, 60
1, 395482, Note_on_c, 0, 72, 47
1, 395485, Note_on_c, 0, 62, 49
1, 395485, Note_on_c, 0, 79, 54
1, 395486, Note_on_c, 0, 76, 54
1, 395497, Note_on_c, 0, 65, 23
1, 395499, Note_on_c, 0, 69, 37
1, 395528, Note_off_c, 0, 62, 48
1, 395533, Note_off_c, 0, 72, 46
1, 395539, Note_off_c, 0, 69, 50
1, 395543, Note_off_c, 0, 76, 57
1, 395548, Note_off_c, 0, 65, 46
1, 395548, Note_off_c, 0, 79, 50
1, 395675, Note_on_c, 0, 62, 56
1, 395676, Note_on_c, 0, 69, 42
1, 395680, Note_on_c, 0, 79, 63
1, 395682, Note_on_c, 0, 76, 56
1, 395702, Note_off_c, 0, 69, 58
1, 395704, Note_off_c, 0, 76, 64
1, 395707, Note_off_c, 0, 79, 67
1, 395709, Note_off_c, 0, 84, 65
1, 395712, Note_off_c, 0, 62, 65
1, 395905, Note_on_c, 0, 81, 80
1, 395911, Control_c, 0, 67, 9
1, 395926, Control_c, 0, 64, 79
1, 395926, Control_c, 0, 67, 20
1, 395929, Note_on_c, 0, 57, 44
1, 395935, Note_on_c, 0, 60, 36
1, 395941, Note_on_c, 0, 62, 27
1, 395941, Control_c, 0, 64, 59
1, 395941, Control_c, 0, 67, 37
1, 395956, Control_c, 0, 64, 39
1, 395956, Control_c, 0, 67, 60
1, 395968, Note_off_c, 0, 60, 52
1, 395971, Control_c, 0, 64, 40
1, 395971, Control_c, 0, 67, 84
1, 395980, Note_off_c, 0, 62, 41
1, 395985, Control_c, 0, 64, 53
1, 395985, Control_c, 0, 67, 95
1, 395996, Note_on_c, 0, 58, 51
1, 395998, Poly_aftertouch_c, 0, 72, 127
1, 396000, Note_on_c, 0, 74, 61
1, 396000, Control_c, 0, 64, 68
1, 396000, Control_c, 0, 67, 97
1, 396001, Note_off_c, 0, 57, 46
1, 396009, Note_off_c, 0, 81, 62
1, 396015, Control_c, 0, 64, 88
1, 396015, Control_c, 0, 67, 97
1, 396030, Control_c, 0, 64, 127
1, 396030, Control_c, 0, 67, 98
1, 396042, Poly_aftertouch_c, 0, 72, 0
1, 396042, Note_off_c, 0, 74, 52
1, 396045, Control_c, 0, 67, 98
1, 396048, Note_on_c, 0, 65, 51
1, 396054, Note_off_c, 0, 58, 59
1, 396076, Note_on_c, 0, 60, 41
1, 396081, Note_off_c, 0, 65, 59
1, 396085, Note_on_c, 0, 81, 66
1, 396090, Note_on_c, 0, 72, 44
1, 396097, Note_on_c, 0, 77, 63
1, 396104, Control_c, 0, 67, 98
1, 396111, Poly_aftertouch_c, 0, 55, 0
1, 396120, Note_off_c, 0, 60, 53
1, 396120, Note_off_c, 0, 72, 53
1, 396120, Note_off_c, 0, 81, 59
1, 396127, Note_on_c, 0, 55, 41
1, 396133, Control_c, 0, 67, 97
1, 396138, Note_off_c, 0, 77, 62
1, 396148, Control_c, 0, 67, 97
1, 396169, Note_off_c, 0, 55, 62
1, 396178, Control_c, 0, 67, 98
1, 396192, Control_c, 0, 67, 100
1, 396207, Control_c, 0, 67, 104
1, 396222, Control_c, 0, 64, 91
1, 396222, Control_c, 0, 67, 112
1, 396236, Note_on_c, 0, 74, 80
1, 396237, Control_c, 0, 64, 65
1, 396237, Control_c, 0, 67, 117
1, 396245, Note_on_c, 0, 60, 52
1, 396251, Note_on_c, 0, 57, 60
1, 396252, Control_c, 0, 64, 37
1, 396252, Control_c, 0, 67, 120
1, 396264, Note_off_c, 0, 74, 67
1, 396266, Control_c, 0, 64, 0
1, 396266, Control_c, 0, 67, 123
1, 396272, Note_off_c, 0, 60, 53
1, 396281, Control_c, 0, 67, 125
1, 396293, Note_off_c, 0, 57, 59
1, 396296, Control_c, 0, 67, 127
1, 396307, Note_on_c, 0, 74, 70
1, 396311, Control_c, 0, 67, 127
1, 396326, Control_c, 0, 64, 15
1, 396332, Note_off_c, 0, 74, 67
1, 396340, Control_c, 0, 64, 43
1, 396352, Note_on_c, 0, 58, 46
1, 396363, Control_c, 0, 64, 61
1, 396378, Control_c, 0, 64, 70
1, 396390, Note_on_c, 0, 70, 50
1, 396392, Control_c, 0, 64, 78
1, 396394, Note_on_c, 0, 74, 71
1, 396402, Poly_aftertouch_c, 0, 60, 0
1, 396407, Control_c, 0, 64, 85
1, 396418, Note_off_c, 0, 74, 66
1, 396422, Control_c, 0, 64, 89
1, 396426, Note_off_c, 0, 70, 58
1, 396435, Poly_aftertouch_c, 0, 60, 0
1, 396437, Control_c, 0, 64, 93
1, 396438, Note_off_c, 0, 58, 54
1, 396452, Control_c, 0, 64, 100
1, 396454, Note_on_c, 0, 55, 53
1, 396466, Control_c, 0, 64, 108
1, 396480, Note_on_c, 0, 74, 71
1, 396481, Control_c, 0, 64, 111
1, 396486, Poly_aftertouch_c, 0, 70, 0
1, 396496, Control_c, 0, 64, 110
1, 396507, Note_off_c, 0, 74, 67
1, 396509, Note_off_c, 0, 55, 62
1, 396510, Control_c, 0, 64, 93
1, 396525, Control_c, 0, 64, 69
1, 396540, Control_c, 0, 64, 50
1, 396543, Note_on_c, 0, 60, 55
1, 396546, Note_on_c, 0, 79, 89
1, 396546, Note_on_c, 0, 64, 56
1, 396555, Control_c, 0, 64, 0
1, 396564, Note_on_c, 0, 76, 60
1, 396570, Note_on_c, 0, 72, 47
1, 396585, Control_c, 0, 64, 32
1, 396586, Note_on_c, 0, 57, 52
1, 396587, Note_off_c, 0, 76, 60
1, 396590, Note_off_c, 0, 64, 59
1, 396594, Note_off_c, 0, 72, 50
1, 396597, Note_off_c, 0, 60, 54
1, 396600, Control_c, 0, 64, 58
1, 396615, Control_c, 0, 64, 72
1, 396627, Poly_aftertouch_c, 0, 74, 127
1, 396630, Control_c, 0, 64, 85
1, 396630, Note_on_c, 0, 74, 5
1, 396635, Note_off_c, 0, 79, 63
1, 396645, Control_c, 0, 64, 93
1, 396660, Control_c, 0, 64, 96
1, 396675, Control_c, 0, 64, 99
1, 396683, Note_off_c, 0, 57, 63
1, 396689, Control_c, 0, 64, 104
1, 396691, Note_on_c, 0, 58, 43
1, 396704, Control_c, 0, 64, 113
1, 396706, Note_on_c, 0, 64, 60
1, 396716, Note_on_c, 0, 72, 55
1, 396719, Control_c, 0, 64, 127
1, 396727, Note_on_c, 0, 76, 70
1, 396731, Note_on_c, 0, 79, 72
1, 396737, Note_off_c, 0, 58, 57
1, 396743, Note_off_c, 0, 64, 65
1, 396755, Note_on_c, 0, 60, 24
1, 396756, Note_off_c, 0, 72, 58
1, 396760, Note_off_c, 0, 79, 63
1, 396773, Note_off_c, 0, 74, 34
1, 396783, Note_off_c, 0, 76, 64
1, 396785, Note_on_c, 0, 55, 52
1, 396792, Note_off_c, 0, 60, 52
1, 396848, Note_off_c, 0, 55, 63
1, 396853, Control_c, 0, 64, 83
1, 396868, Control_c, 0, 64, 67
1, 396882, Control_c, 0, 64, 63
1, 396888, Note_on_c, 0, 74, 78
1, 396889, Note_on_c, 0, 60, 61
1, 396897, Control_c, 0, 64, 66
1, 396907, Note_on_c, 0, 57, 54
1, 396911, Note_off_c, 0, 74, 69
1, 396912, Control_c, 0, 64, 77
1, 396927, Note_off_c, 0, 60, 59
1, 396927, Control_c, 0, 64, 105
1, 396941, Control_c, 0, 64, 127
1, 396952, Note_on_c, 0, 74, 83
1, 396968, Poly_aftertouch_c, 0, 70, 127
1, 396971, Note_off_c, 0, 57, 62
1, 396978, Note_off_c, 0, 74, 65
1, 396987, Note_on_c, 0, 55, 51
1, 396992, Poly_aftertouch_c, 0, 70, 0
1, 396994, Note_on_c, 0, 58, 52
1, 397015, Note_off_c, 0, 55, 60
1, 397018, Poly_aftertouch_c, 0, 73, 0
1, 397024, Note_on_c, 0, 60, 46
1, 397045, Note_on_c, 0, 74, 76
1, 397050, Note_on_c, 0, 70, 43
1, 397069, Note_off_c, 0, 60, 61
1, 397070, Note_off_c, 0, 74, 68
1, 397080, Note_off_c, 0, 58, 59
1, 397088, Note_off_c, 0, 70, 0
1, 397108, Note_on_c, 0, 70, 66
1, 397121, Note_on_c, 0, 55, 65
1, 397126, Note_on_c, 0, 74, 77
1, 397138, Note_off_c, 0, 70, 67
1, 397151, Note_off_c, 0, 74, 68
1, 397171, Control_c, 0, 64, 101
1, 397181, Note_off_c, 0, 55, 62
1, 397186, Control_c, 0, 64, 68
1, 397201, Control_c, 0, 64, 47
1, 397207, Note_on_c, 0, 81, 88
1, 397215, Control_c, 0, 64, 26
1, 397216, Note_on_c, 0, 65, 60
1, 397220, Note_on_c, 0, 60, 60
1, 397220, Note_on_c, 0, 72, 61
1, 397230, Control_c, 0, 64, 39
1, 397237, Note_on_c, 0, 74, 13
1, 397240, Note_off_c, 0, 72, 62
1, 397245, Control_c, 0, 64, 60
1, 397254, Note_off_c, 0, 65, 60
1, 397259, Control_c, 0, 64, 77
1, 397265, Note_off_c, 0, 60, 53
1, 397266, Note_on_c, 0, 57, 57
1, 397274, Control_c, 0, 64, 102
1, 397286, Note_off_c, 0, 81, 63
1, 397289, Control_c, 0, 64, 127
1, 397331, Note_off_c, 0, 74, 55
1, 397341, Note_off_c, 0, 57, 64
1, 397362, Note_on_c, 0, 72, 69
1, 397365, Note_on_c, 0, 58, 43
1, 397366, Note_on_c, 0, 65, 63
1, 397369, Note_on_c, 0, 81, 75
1, 397375, Note_on_c, 0, 77, 70
1, 397391, Note_off_c, 0, 65, 67
1, 397398, Note_on_c, 0, 60, 42
1, 397400, Note_off_c, 0, 58, 63
1, 397407, Note_off_c, 0, 81, 54
1, 397437, Note_off_c, 0, 72, 63
1, 397445, Note_off_c, 0, 77, 65
1, 397450, Note_off_c, 0, 60, 58
1, 397451, Note_on_c, 0, 55, 56
1, 397498, Control_c, 0, 64, 116
1, 397512, Note_off_c, 0, 55, 63
1, 397512, Control_c, 0, 64, 73
1, 397527, Control_c, 0, 64, 55
1, 397539, Note_on_c, 0, 74, 83
1, 397542, Note_on_c, 0, 60, 69
1, 397542, Note_on_c, 0, 69, 80
1, 397542, Control_c, 0, 64, 53
1, 397550, Note_on_c, 0, 57, 63
1, 397557, Control_c, 0, 64, 63
1, 397560, Note_off_c, 0, 74, 71
1, 397565, Note_off_c, 0, 69, 70
1, 397572, Control_c, 0, 64, 79
1, 397579, Note_off_c, 0, 60, 60
1, 397586, Control_c, 0, 64, 127
1, 397604, Note_off_c, 0, 57, 49
1, 397606, Note_on_c, 0, 74, 84
1, 397622, Note_on_c, 0, 69, 47
1, 397625, Note_on_c, 0, 70, 64
1, 397631, Note_off_c, 0, 74, 64
1, 397632, Note_on_c, 0, 67, 52
1, 397637, Note_on_c, 0, 55, 60
1, 397642, Note_off_c, 0, 70, 65
1, 397643, Note_off_c, 0, 69, 67
1, 397651, Note_on_c, 0, 58, 46
1, 397655, Note_off_c, 0, 67, 59
1, 397670, Note_off_c, 0, 55, 60
1, 397685, Note_on_c, 0, 60, 58
1, 397699, Note_on_c, 0, 74, 63
1, 397703, Note_on_c, 0, 70, 64
1, 397705, Note_off_c, 0, 58, 0
1, 397705, Note_on_c, 0, 58, 28
1, 397717, Note_off_c, 0, 74, 66
1, 397718, Note_off_c, 0, 70, 69
1, 397737, Note_off_c, 0, 60, 60
1, 397741, Note_off_c, 0, 58, 62
1, 397772, Note_on_c, 0, 70, 82
1, 397778, Note_on_c, 0, 74, 80
1, 397789, Note_on_c, 0, 55, 61
1, 397795, Note_off_c, 0, 70, 68
1, 397801, Note_off_c, 0, 74, 70
1, 397806, Note_on_c, 0, 53, 49
1, 397824, Control_c, 0, 64, 74
1, 397832, Note_off_c, 0, 53, 57
1, 397835, Note_off_c, 0, 55, 62
1, 397839, Control_c, 0, 64, 50
1, 397860, Note_on_c, 0, 79, 94
1, 397861, Control_c, 0, 64, 21
1, 397872, Note_on_c, 0, 72, 70
1, 397873, Note_on_c, 0, 64, 71
1, 397874, Note_on_c, 0, 76, 75
1, 397876, Control_c, 0, 64, 25
1, 397883, Note_on_c, 0, 74, 42
1, 397888, Note_on_c, 0, 60, 58
1, 397890, Control_c, 0, 64, 49
1, 397904, Note_off_c, 0, 76, 62
1, 397905, Control_c, 0, 64, 68
1, 397911, Note_off_c, 0, 64, 61
1, 397911, Note_off_c, 0, 74, 57
1, 397911, Note_off_c, 0, 72, 55
1, 397920, Control_c, 0, 64, 90
1, 397933, Note_off_c, 0, 60, 55
1, 397934, Note_on_c, 0, 57, 69
1, 397935, Control_c, 0, 64, 127
1, 397950, Note_on_c, 0, 74, 48
1, 397955, Note_off_c, 0, 79, 64
1, 397984, Poly_aftertouch_c, 0, 72, 0
1, 397988, Note_off_c, 0, 74, 58
1, 398000, Note_off_c, 0, 57, 64
1, 398026, Note_on_c, 0, 58, 42
1, 398031, Note_on_c, 0, 64, 67
1, 398032, Note_on_c, 0, 76, 72
1, 398033, Note_on_c, 0, 72, 70
1, 398040, Note_on_c, 0, 79, 64
1, 398048, Note_on_c, 0, 60, 53
1, 398054, Note_off_c, 0, 58, 58
1, 398058, Note_off_c, 0, 72, 66
1, 398061, Note_off_c, 0, 79, 64
1, 398067, Note_off_c, 0, 64, 65
1, 398080, Note_off_c, 0, 76, 64
1, 398099, Note_off_c, 0, 60, 54
1, 398113, Note_on_c, 0, 55, 66
1, 398143, Control_c, 0, 64, 68
1, 398157, Control_c, 0, 64, 45
1, 398162, Note_off_c, 0, 55, 61
1, 398172, Control_c, 0, 64, 11
1, 398178, Note_on_c, 0, 74, 85
1, 398187, Control_c, 0, 64, 34
1, 398190, Note_on_c, 0, 69, 72
1, 398193, Note_on_c, 0, 60, 68
1, 398202, Control_c, 0, 64, 61
1, 398203, Note_on_c, 0, 57, 50
1, 398206, Note_off_c, 0, 74, 66
1, 398216, Note_off_c, 0, 69, 67
1, 398217, Control_c, 0, 64, 83
1, 398233, Control_c, 0, 64, 127
1, 398235, Note_off_c, 0, 60, 57
1, 398257, Note_on_c, 0, 74, 77
1, 398269, Note_on_c, 0, 70, 63
1, 398275, Note_off_c, 0, 57, 64
1, 398284, Note_off_c, 0, 74, 68
1, 398287, Note_off_c, 0, 70, 66
1, 398289, Note_on_c, 0, 58, 57
1, 398293, Note_on_c, 0, 69, 28
1, 398300, Note_on_c, 0, 55, 46
1, 398323, Note_off_c, 0, 69, 53
1, 398330, Note_off_c, 0, 55, 51
1, 398332, Note_on_c, 0, 74, 81
1, 398344, Note_on_c, 0, 70, 71
1, 398346, Note_on_c, 0, 60, 53
1, 398369, Note_off_c, 0, 70, 66
1, 398373, Note_off_c, 0, 60, 56
1, 398373, Note_off_c, 0, 74, 64
1, 398394, Note_off_c, 0, 58, 62
1, 398410, Control_c, 0, 67, 124
1, 398415, Note_on_c, 0, 70, 86
1, 398424, Note_on_c, 0, 55, 62
1, 398425, Control_c, 0, 67, 120
1, 398429, Note_on_c, 0, 74, 65
1, 398437, Note_off_c, 0, 70, 69
1, 398440, Control_c, 0, 67, 119
1, 398447, Note_off_c, 0, 74, 68
1, 398454, Control_c, 0, 64, 79
1, 398454, Control_c, 0, 67, 121
1, 398469, Control_c, 0, 64, 56
1, 398469, Control_c, 0, 67, 123
1, 398478, Note_off_c, 0, 55, 59
1, 398484, Control_c, 0, 64, 13
1, 398484, Control_c, 0, 67, 125
1, 398499, Control_c, 0, 64, 0
1, 398499, Control_c, 0, 67, 127
1, 398506, Note_on_c, 0, 65, 75
1, 398508, Note_on_c, 0, 81, 88
1, 398510, Note_on_c, 0, 60, 49
1, 398514, Note_on_c, 0, 72, 69
1, 398514, Control_c, 0, 64, 42
1, 398524, Note_on_c, 0, 77, 63
1, 398528, Control_c, 0, 64, 65
1, 398540, Note_off_c, 0, 65, 62
1, 398541, Note_off_c, 0, 72, 66
1, 398543, Control_c, 0, 64, 95
1, 398553, Note_on_c, 0, 57, 65
1, 398555, Note_off_c, 0, 77, 60
1, 398558, Control_c, 0, 64, 127
1, 398560, Note_off_c, 0, 60, 57
1, 398562, Poly_aftertouch_c, 0, 74, 127
1, 398576, Note_off_c, 0, 81, 62
1, 398593, Note_on_c, 0, 74, 3
1, 398636, Note_off_c, 0, 57, 63
1, 398636, Note_off_c, 0, 74, 62
1, 398648, Note_on_c, 0, 58, 49
1, 398657, Note_on_c, 0, 65, 64
1, 398674, Note_on_c, 0, 60, 56
1, 398676, Note_on_c, 0, 72, 65
1, 398680, Note_on_c, 0, 81, 66
1, 398682, Note_off_c, 0, 65, 67
1, 398684, Note_off_c, 0, 58, 63
1, 398685, Note_on_c, 0, 77, 70
1, 398698, Note_off_c, 0, 81, 62
1, 398719, Note_off_c, 0, 72, 62
1, 398725, Note_off_c, 0, 60, 53
1, 398740, Note_off_c, 0, 77, 64
1, 398743, Note_on_c, 0, 55, 73
1, 398790, Note_off_c, 0, 55, 60
1, 398802, Control_c, 0, 64, 79
1, 398817, Control_c, 0, 64, 57
1, 398832, Control_c, 0, 64, 36
1, 398838, Note_on_c, 0, 74, 78
1, 398842, Note_on_c, 0, 60, 55
1, 398847, Control_c, 0, 64, 46
1, 398847, Note_on_c, 0, 57, 63
1, 398856, Note_on_c, 0, 69, 54
1, 398861, Control_c, 0, 64, 65
1, 398862, Note_off_c, 0, 74, 69
1, 398876, Control_c, 0, 64, 87
1, 398877, Note_off_c, 0, 69, 63
1, 398885, Note_off_c, 0, 60, 54
1, 398891, Control_c, 0, 64, 127
1, 398904, Note_off_c, 0, 57, 60
1, 398907, Note_on_c, 0, 74, 80
1, 398919, Note_on_c, 0, 70, 66
1, 398931, Note_off_c, 0, 74, 68
1, 398932, Note_on_c, 0, 58, 59
1, 398943, Note_on_c, 0, 55, 52
1, 398944, Note_off_c, 0, 70, 65
1, 398972, Note_off_c, 0, 55, 64
1, 398989, Note_on_c, 0, 74, 61
1, 398996, Note_on_c, 0, 60, 51
1, 399005, Note_on_c, 0, 70, 49
1, 399015, Note_off_c, 0, 74, 67
1, 399032, Note_off_c, 0, 58, 61
1, 399035, Note_off_c, 0, 60, 60
1, 399035, Note_off_c, 0, 70, 51
1, 399049, Note_on_c, 0, 57, 32
1, 399060, Note_on_c, 0, 55, 69
1, 399080, Note_off_c, 0, 57, 55
1, 399089, Note_on_c, 0, 74, 40
1, 399098, Note_on_c, 0, 71, 27
1, 399113, Note_off_c, 0, 55, 59
1, 399113, Note_off_c, 0, 74, 59
1, 399114, Control_c, 0, 64, 91
1, 399128, Control_c, 0, 64, 63
1, 399134, Note_off_c, 0, 71, 43
1, 399143, Control_c, 0, 64, 24
1, 399151, Note_on_c, 0, 79, 82
1, 399155, Note_on_c, 0, 76, 25
1, 399158, Control_c, 0, 64, 0
1, 399162, Note_on_c, 0, 72, 59
1, 399164, Note_on_c, 0, 60, 50
1, 399173, Control_c, 0, 64, 20
1, 399182, Note_on_c, 0, 64, 37
1, 399185, Note_on_c, 0, 57, 45
1, 399186, Note_off_c, 0, 72, 56
1, 399188, Control_c, 0, 64, 51
1, 399192, Note_off_c, 0, 76, 59
1, 399202, Control_c, 0, 64, 69
1, 399210, Note_off_c, 0, 79, 59
1, 399213, Note_off_c, 0, 64, 52
1, 399217, Note_off_c, 0, 60, 48
1, 399217, Control_c, 0, 64, 87
1, 399229, Note_on_c, 0, 74, 44
1, 399232, Control_c, 0, 64, 109
1, 399247, Control_c, 0, 64, 127
1, 399275, Note_off_c, 0, 74, 63
1, 399279, Note_off_c, 0, 57, 63
1, 399307, Note_on_c, 0, 58, 30
1, 399318, Note_on_c, 0, 64, 53
1, 399322, Note_on_c, 0, 79, 59
1, 399328, Note_on_c, 0, 76, 57
1, 399330, Note_on_c, 0, 72, 53
1, 399342, Note_on_c, 0, 60, 44
1, 399343, Note_off_c, 0, 58, 55
1, 399346, Poly_aftertouch_c, 0, 55, 127
1, 399360, Note_off_c, 0, 64, 64
1, 399363, Note_off_c, 0, 79, 60
1, 399371, Poly_aftertouch_c, 0, 55, 0
1, 399374, Note_off_c, 0, 72, 64
1, 399375, Note_off_c, 0, 76, 64
1, 399391, Note_off_c, 0, 60, 56
1, 399400, Note_on_c, 0, 55, 33
1, 399447, Control_c, 0, 64, 77
1, 399462, Control_c, 0, 64, 60
1, 399463, Note_off_c, 0, 55, 61
1, 399477, Control_c, 0, 64, 52
1, 399485, Note_on_c, 0, 74, 81
1, 399491, Control_c, 0, 64, 56
1, 399497, Note_on_c, 0, 60, 56
1, 399506, Control_c, 0, 64, 64
1, 399512, Note_on_c, 0, 70, 45
1, 399517, Note_off_c, 0, 74, 63
1, 399521, Control_c, 0, 64, 76
1, 399536, Control_c, 0, 64, 103
1, 399538, Note_on_c, 0, 57, 8
1, 399551, Control_c, 0, 64, 127
1, 399576, Poly_aftertouch_c, 0, 74, 0
1, 399580, Note_off_c, 0, 60, 48
1, 399582, Note_on_c, 0, 58, 60
1, 399591, Note_off_c, 0, 57, 53
1, 399591, Poly_aftertouch_c, 0, 73, 0
1, 399595, Note_on_c, 0, 55, 56
1, 399605, Note_off_c, 0, 70, 0
1, 399610, Note_off_c, 0, 58, 67
1, 399624, Note_off_c, 0, 55, 65
1, 399627, Note_on_c, 0, 70, 33
1, 399641, Note_on_c, 0, 74, 65
1, 399660, Note_off_c, 0, 74, 68
1, 399718, Note_on_c, 0, 74, 73
1, 399732, Note_off_c, 0, 74, 72
1, 399734, Note_off_c, 0, 70, 64
1, 399773, Control_c, 0, 64, 76
1, 399788, Control_c, 0, 64, 44
1, 399802, Note_on_c, 0, 72, 70
1, 399802, Control_c, 0, 64, 0
1, 399804, Note_on_c, 0, 79, 75
1, 399819, Note_on_c, 0, 69, 47
1, 399819, Note_off_c, 0, 72, 65
1, 399833, Note_off_c, 0, 79, 66
1, 399846, Note_off_c, 0, 69, 59
1, 399913, Note_on_c, 0, 67, 56
1, 399915, Note_on_c, 0, 71, 50
1, 399936, Note_off_c, 0, 71, 58
1, 399938, Note_off_c, 0, 67, 61
1, 399983, Note_on_c, 0, 69, 48
1, 399986, Note_on_c, 0, 72, 35
1, 399998, Note_on_c, 0, 79, 44
1, 400009, Note_off_c, 0, 69, 60
1, 400013, Note_off_c, 0, 72, 40
1, 400023, Note_off_c, 0, 79, 54
1, 400046, Note_on_c, 0, 67, 50
1, 400046, Note_on_c, 0, 71, 52
1, 400075, Note_off_c, 0, 71, 66
1, 400078, Note_off_c, 0, 67, 64
1, 400134, Note_on_c, 0, 72, 59
1, 400141, Note_on_c, 0, 74, 71
1, 400141, Note_on_c, 0, 69, 45
1, 400162, Note_off_c, 0, 72, 65
1, 400168, Note_off_c, 0, 69, 58
1, 400169, Note_off_c, 0, 74, 65
1, 400240, Poly_aftertouch_c, 0, 74, 0
1, 400241, Note_on_c, 0, 71, 27
1, 400262, Note_off_c, 0, 71, 47
1, 400305, Note_on_c, 0, 74, 69
1, 400309, Note_on_c, 0, 69, 38
1, 400310, Note_on_c, 0, 72, 38
1, 400336, Note_off_c, 0, 72, 51
1, 400339, Note_off_c, 0, 74, 60
1, 400348, Note_off_c, 0, 69, 48
1, 400387, Note_on_c, 0, 71, 60
1, 400390, Poly_aftertouch_c, 0, 74, 0
1, 400414, Note_off_c, 0, 71, 66
1, 400466, Note_on_c, 0, 78, 77
1, 400469, Note_on_c, 0, 69, 60
1, 400469, Note_on_c, 0, 72, 60
1, 400481, Note_on_c, 0, 76, 50
1, 400488, Note_off_c, 0, 72, 63
1, 400489, Note_off_c, 0, 69, 63
1, 400505, Note_off_c, 0, 76, 59
1, 400505, Note_off_c, 0, 78, 59
1, 400550, Note_on_c, 0, 71, 40
1, 400565, Note_on_c, 0, 67, 41
1, 400579, Note_off_c, 0, 71, 65
1, 400594, Note_off_c, 0, 67, 51
1, 400624, Note_on_c, 0, 78, 78
1, 400626, Note_on_c, 0, 72, 57
1, 400627, Note_on_c, 0, 69, 53
1, 400658, Note_off_c, 0, 72, 65
1, 400665, Note_off_c, 0, 69, 64
1, 400675, Note_off_c, 0, 78, 64
1, 400704, Note_on_c, 0, 67, 54
1, 400713, Note_on_c, 0, 71, 63
1, 400738, Note_off_c, 0, 71, 66
1, 400745, Note_off_c, 0, 67, 65
1, 400797, Note_on_c, 0, 74, 75
1, 400806, Note_on_c, 0, 69, 49
1, 400810, Note_on_c, 0, 72, 48
1, 400822, Note_off_c, 0, 74, 68
1, 400830, Note_off_c, 0, 69, 61
1, 400836, Note_off_c, 0, 72, 36
1, 400877, Note_on_c, 0, 74, 74
1, 400882, Note_on_c, 0, 70, 76
1, 400908, Note_off_c, 0, 74, 68
1, 400910, Note_off_c, 0, 70, 68
1, 400967, Note_on_c, 0, 69, 55
1, 400968, Note_on_c, 0, 72, 55
1, 400971, Note_on_c, 0, 74, 68
1, 400995, Note_off_c, 0, 72, 65
1, 400997, Note_off_c, 0, 69, 57
1, 401000, Note_off_c, 0, 74, 64
1, 401053, Note_on_c, 0, 71, 66
1, 401056, Note_on_c, 0, 67, 48
1, 401059, Poly_aftertouch_c, 0, 74, 0
1, 401080, Note_off_c, 0, 71, 66
1, 401083, Note_off_c, 0, 67, 54
1, 401121, Note_on_c, 0, 72, 65
1, 401121, Note_on_c, 0, 79, 84
1, 401129, Note_on_c, 0, 69, 49
1, 401143, Note_off_c, 0, 72, 64
1, 401155, Note_off_c, 0, 69, 60
1, 401158, Note_off_c, 0, 79, 64
1, 401186, Note_on_c, 0, 71, 51
1, 401206, Note_on_c, 0, 67, 41
1, 401232, Note_off_c, 0, 71, 66
1, 401235, Note_off_c, 0, 67, 58
1, 401273, Note_on_c, 0, 72, 65
1, 401286, Note_on_c, 0, 69, 51
1, 401287, Note_on_c, 0, 79, 75
1, 401304, Note_on_c, 0, 78, 46
1, 401306, Note_off_c, 0, 72, 64
1, 401310, Note_off_c, 0, 69, 60
1, 401326, Note_off_c, 0, 79, 63
1, 401330, Note_off_c, 0, 78, 52
1, 401364, Note_on_c, 0, 71, 73
1, 401365, Note_on_c, 0, 67, 62
1, 401389, Note_off_c, 0, 71, 67
1, 401396, Note_off_c, 0, 67, 65
1, 401454, Note_on_c, 0, 74, 74
1, 401458, Note_on_c, 0, 69, 49
1, 401473, Note_on_c, 0, 72, 38
1, 401480, Note_off_c, 0, 74, 67
1, 401482, Note_off_c, 0, 69, 61
1, 401503, Note_off_c, 0, 72, 34
1, 401539, Note_on_c, 0, 71, 30
1, 401546, Poly_aftertouch_c, 0, 74, 127
1, 401559, Poly_aftertouch_c, 0, 74, 0
1, 401563, Note_off_c, 0, 71, 56
1, 401623, Note_on_c, 0, 72, 52
1, 401626, Note_on_c, 0, 74, 70
1, 401626, Note_on_c, 0, 69, 48
1, 401652, Note_off_c, 0, 72, 64
1, 401659, Note_off_c, 0, 69, 66
1, 401659, Note_off_c, 0, 74, 62
1, 401701, Note_on_c, 0, 71, 55
1, 401718, Poly_aftertouch_c, 0, 74, 0
1, 401727, Note_on_c, 0, 67, 7
1, 401736, Note_off_c, 0, 71, 65
1, 401763, Note_off_c, 0, 67, 36
1, 401780, Note_on_c, 0, 72, 58
1, 401782, Note_on_c, 0, 78, 81
1, 401783, Note_on_c, 0, 69, 59
1, 401786, Note_on_c, 0, 76, 70
1, 401801, Note_off_c, 0, 69, 64
1, 401808, Note_off_c, 0, 72, 65
1, 401810, Note_off_c, 0, 76, 66
1, 401831, Note_off_c, 0, 78, 62
1, 401866, Note_on_c, 0, 71, 49
1, 401879, Note_on_c, 0, 67, 61
1, 401899, Note_off_c, 0, 71, 63
1, 401915, Note_off_c, 0, 67, 61
1, 401943, Note_on_c, 0, 72, 61
1, 401945, Note_on_c, 0, 78, 80
1, 401946, Note_on_c, 0, 69, 56
1, 401977, Note_off_c, 0, 72, 63
1, 401980, Note_off_c, 0, 69, 56
1, 402003, Note_off_c, 0, 78, 63
1, 402031, Note_on_c, 0, 71, 68
1, 402037, Note_on_c, 0, 67, 66
1, 402055, Note_off_c, 0, 71, 67
1, 402060, Note_off_c, 0, 67, 65
1, 402111, Note_on_c, 0, 74, 82
1, 402117, Note_on_c, 0, 69, 58
1, 402117, Note_on_c, 0, 72, 60
1, 402135, Note_off_c, 0, 72, 63
1, 402138, Note_off_c, 0, 69, 65
1, 402139, Note_off_c, 0, 74, 64
1, 402195, Note_on_c, 0, 74, 80
1, 402197, Note_on_c, 0, 71, 49
1, 402225, Note_off_c, 0, 74, 65
1, 402238, Note_off_c, 0, 71, 64
1, 402279, Note_on_c, 0, 72, 58
1, 402280, Note_on_c, 0, 74, 76
1, 402283, Note_on_c, 0, 69, 57
1, 402307, Note_off_c, 0, 72, 64
1, 402308, Note_off_c, 0, 69, 63
1, 402312, Note_off_c, 0, 74, 62
1, 402363, Note_on_c, 0, 74, 76
1, 402377, Note_on_c, 0, 71, 70
1, 402390, Note_off_c, 0, 74, 68
1, 402395, Note_on_c, 0, 67, 26
1, 402407, Note_off_c, 0, 71, 66
1, 402436, Note_off_c, 0, 67, 29
1, 402445, Note_on_c, 0, 76, 81
1, 402447, Note_on_c, 0, 69, 60
1, 402451, Note_on_c, 0, 72, 55
1, 402462, Note_on_c, 0, 74, 57
1, 402472, Note_off_c, 0, 72, 63
1, 402475, Note_off_c, 0, 69, 67
1, 402479, Note_off_c, 0, 76, 60
1, 402484, Note_off_c, 0, 74, 61
1, 402530, Note_on_c, 0, 67, 54
1, 402546, Note_on_c, 0, 71, 42
1, 402581, Note_off_c, 0, 71, 57
1, 402584, Note_off_c, 0, 67, 60
1, 402606, Note_on_c, 0, 76, 79
1, 402606, Note_on_c, 0, 72, 57
1, 402609, Note_on_c, 0, 69, 62
1, 402636, Note_off_c, 0, 72, 65
1, 402639, Note_off_c, 0, 69, 68
1, 402642, Note_off_c, 0, 76, 61
1, 402691, Poly_aftertouch_c, 0, 74, 0
1, 402693, Note_on_c, 0, 71, 69
1, 402709, Note_on_c, 0, 67, 60
1, 402722, Note_off_c, 0, 71, 66
1, 402729, Note_off_c, 0, 67, 63
1, 402773, Note_on_c, 0, 74, 77
1, 402782, Note_on_c, 0, 69, 54
1, 402785, Note_on_c, 0, 72, 58
1, 402799, Note_off_c, 0, 74, 66
1, 402803, Note_off_c, 0, 69, 64
1, 402805, Note_off_c, 0, 72, 60
1, 402846, Note_on_c, 0, 74, 71
1, 402863, Note_on_c, 0, 71, 54
1, 402883, Note_off_c, 0, 74, 64
1, 402890, Note_off_c, 0, 71, 66
1, 402939, Note_on_c, 0, 72, 52
1, 402940, Note_on_c, 0, 74, 75
1, 402948, Note_on_c, 0, 69, 47
1, 402962, Note_off_c, 0, 72, 61
1, 402974, Note_off_c, 0, 74, 63
1, 402976, Note_off_c, 0, 69, 60
1, 403021, Note_on_c, 0, 71, 63
1, 403024, Note_on_c, 0, 74, 67
1, 403028, Note_on_c, 0, 67, 46
1, 403049, Note_off_c, 0, 74, 68
1, 403054, Note_off_c, 0, 67, 54
1, 403057, Note_off_c, 0, 71, 65
1, 403122, Note_on_c, 0, 72, 48
1, 403122, Note_on_c, 0, 76, 67
1, 403125, Note_on_c, 0, 78, 68
1, 403136, Note_on_c, 0, 69, 29
1, 403140, Note_on_c, 0, 74, 25
1, 403141, Note_off_c, 0, 74, 127
1, 403144, Note_off_c, 0, 72, 59
1, 403150, Note_off_c, 0, 76, 65
1, 403154, Note_off_c, 0, 78, 66
1, 403173, Note_off_c, 0, 69, 44
1, 403195, Note_on_c, 0, 67, 48
1, 403209, Note_on_c, 0, 71, 51
1, 403231, Note_off_c, 0, 71, 62
1, 403245, Note_off_c, 0, 67, 62
1, 403275, Note_on_c, 0, 78, 70
1, 403277, Note_on_c, 0, 72, 49
1, 403282, Note_on_c, 0, 69, 53
1, 403313, Note_off_c, 0, 69, 57
1, 403316, Note_off_c, 0, 72, 61
1, 403341, Note_off_c, 0, 78, 61
1, 403355, Note_on_c, 0, 71, 56
1, 403360, Note_on_c, 0, 67, 61
1, 403384, Note_off_c, 0, 71, 66
1, 403384, Note_off_c, 0, 67, 65
1, 403454, Note_on_c, 0, 72, 66
1, 403461, Note_on_c, 0, 74, 59
1, 403471, Note_on_c, 0, 69, 36
1, 403481, Note_off_c, 0, 74, 65
1, 403482, Note_off_c, 0, 72, 66
1, 403504, Note_off_c, 0, 69, 52
1, 403529, Note_on_c, 0, 71, 42
1, 403533, Note_on_c, 0, 74, 57
1, 403560, Note_off_c, 0, 71, 61
1, 403560, Note_off_c, 0, 74, 65
1, 403613, Note_on_c, 0, 69, 49
1, 403619, Note_on_c, 0, 72, 42
1, 403622, Note_on_c, 0, 74, 69
1, 403643, Note_off_c, 0, 69, 57
1, 403643, Note_off_c, 0, 72, 52
1, 403648, Note_off_c, 0, 74, 67
1, 403686, Note_on_c, 0, 71, 56
1, 403694, Poly_aftertouch_c, 0, 74, 0
1, 403703, Note_on_c, 0, 67, 40
1, 403720, Note_off_c, 0, 71, 64
1, 403731, Note_off_c, 0, 67, 51
1, 403772, Note_on_c, 0, 72, 49
1, 403772, Note_on_c, 0, 76, 72
1, 403775, Note_on_c, 0, 69, 54
1, 403781, Note_on_c, 0, 74, 56
1, 403801, Note_off_c, 0, 74, 65
1, 403804, Note_off_c, 0, 69, 58
1, 403805, Note_off_c, 0, 72, 64
1, 403816, Note_off_c, 0, 76, 58
1, 403860, Note_on_c, 0, 67, 46
1, 403870, Note_on_c, 0, 71, 61
1, 403902, Note_off_c, 0, 67, 62
1, 403903, Note_off_c, 0, 71, 61
1, 403952, Note_on_c, 0, 76, 68
1, 403956, Note_on_c, 0, 69, 49
1, 403956, Note_on_c, 0, 72, 57
1, 403986, Note_off_c, 0, 69, 56
1, 403986, Note_off_c, 0, 72, 64
1, 403991, Note_off_c, 0, 76, 60
1, 404025, Note_on_c, 0, 71, 64
1, 404037, Note_on_c, 0, 67, 53
1, 404049, Note_off_c, 0, 71, 67
1, 404058, Note_off_c, 0, 67, 59
1, 404113, Note_on_c, 0, 74, 77
1, 404118, Note_on_c, 0, 72, 64
1, 404120, Note_on_c, 0, 69, 52
1, 404144, Note_off_c, 0, 74, 63
1, 404144, Note_off_c, 0, 72, 64
1, 404145, Note_off_c, 0, 69, 65
1, 404198, Note_on_c, 0, 71, 53
1, 404198, Note_on_c, 0, 74, 71
1, 404224, Note_off_c, 0, 74, 67
1, 404231, Note_off_c, 0, 71, 63
1, 404270, Note_on_c, 0, 74, 81
1, 404281, Note_on_c, 0, 69, 53
1, 404283, Note_on_c, 0, 72, 53
1, 404303, Note_off_c, 0, 72, 61
1, 404308, Note_off_c, 0, 69, 61
1, 404316, Note_off_c, 0, 74, 61
1, 404342, Poly_aftertouch_c, 0, 74, 0
1, 404352, Note_on_c, 0, 74, 65
1, 404358, Note_on_c, 0, 67, 61
1, 404358, Note_on_c, 0, 71, 65
1, 404379, Note_off_c, 0, 74, 67
1, 404386, Note_off_c, 0, 67, 66
1, 404387, Note_off_c, 0, 71, 65
1, 404438, Note_on_c, 0, 72, 52
1, 404446, Note_on_c, 0, 76, 72
1, 404448, Note_on_c, 0, 78, 72
1, 404465, Note_on_c, 0, 69, 28
1, 404466, Note_on_c, 0, 74, 9
1, 404467, Note_off_c, 0, 74, 127
1, 404470, Note_off_c, 0, 72, 64
1, 404473, Note_off_c, 0, 76, 64
1, 404494, Note_off_c, 0, 78, 53
1, 404501, Note_off_c, 0, 69, 52
1, 404530, Note_on_c, 0, 71, 54
1, 404535, Note_on_c, 0, 67, 49
1, 404571, Note_off_c, 0, 71, 63
1, 404580, Note_off_c, 0, 67, 62
1, 404615, Note_on_c, 0, 72, 65
1, 404615, Note_on_c, 0, 78, 75
1, 404624, Note_on_c, 0, 69, 54
1, 404644, Note_off_c, 0, 72, 65
1, 404653, Note_off_c, 0, 69, 65
1, 404690, Note_off_c, 0, 78, 56
1, 404710, Note_on_c, 0, 71, 52
1, 404716, Note_on_c, 0, 67, 49
1, 404733, Note_off_c, 0, 71, 58
1, 404764, Note_off_c, 0, 67, 60
1, 404778, Control_c, 0, 67, 124
1, 404793, Control_c, 0, 67, 115
1, 404808, Note_on_c, 0, 74, 84
1, 404808, Control_c, 0, 67, 105
1, 404813, Note_on_c, 0, 68, 78
1, 404822, Control_c, 0, 67, 91
1, 404833, Note_off_c, 0, 68, 66
1, 404837, Control_c, 0, 67, 73
1, 404852, Control_c, 0, 67, 51
1, 404858, Note_off_c, 0, 74, 65
1, 404867, Control_c, 0, 67, 30
1, 404881, Control_c, 0, 67, 12
1, 404896, Control_c, 0, 67, 0
1, 405021, Note_on_c, 0, 74, 84
1, 405038, Note_on_c, 0, 68, 70
1, 405108, Note_off_c, 0, 68, 55
1, 405183, Note_off_c, 0, 74, 63
1, 405207, Note_on_c, 0, 62, 77
1, 405220, Note_on_c, 0, 79, 85
1, 405221, Note_on_c, 0, 73, 78
1, 405222, Note_on_c, 0, 67, 79
1, 405233, Note_off_c, 0, 62, 68
1, 405246, Note_off_c, 0, 73, 69
1, 405250, Note_off_c, 0, 67, 66
1, 405275, Note_off_c, 0, 79, 66
1, 405428, Note_on_c, 0, 73, 58
1, 405430, Note_on_c, 0, 79, 53
1, 405455, Note_off_c, 0, 73, 67
1, 405475, Note_off_c, 0, 79, 47
1, 405509, Poly_aftertouch_c, 0, 67, 0
1, 405581, Note_on_c, 0, 85, 66
1, 405587, Note_on_c, 0, 86, 87
1, 405595, Note_on_c, 0, 79, 76
1, 405596, Note_on_c, 0, 67, 75
1, 405599, Note_on_c, 0, 73, 71
1, 405601, Note_off_c, 0, 85, 45
1, 405605, Note_off_c, 0, 86, 74
1, 405626, Note_off_c, 0, 67, 66
1, 405630, Note_off_c, 0, 73, 65
1, 405648, Note_off_c, 0, 79, 64
1, 405781, Note_on_c, 0, 79, 82
1, 405787, Note_on_c, 0, 73, 74
1, 405796, Note_on_c, 0, 67, 64
1, 405814, Note_on_c, 0, 77, 41
1, 405815, Note_off_c, 0, 77, 127
1, 405815, Note_off_c, 0, 67, 65
1, 405912, Note_off_c, 0, 79, 62
1, 405924, Note_off_c, 0, 73, 49
1, 405955, Note_on_c, 0, 78, 91
1, 405965, Note_on_c, 0, 62, 73
1, 405971, Note_on_c, 0, 66, 78
1, 405975, Note_on_c, 0, 72, 65
1, 405983, Note_off_c, 0, 62, 66
1, 406006, Note_off_c, 0, 72, 61
1, 406061, Note_off_c, 0, 66, 60
1, 406084, Poly_aftertouch_c, 0, 72, 0
1, 406127, Control_c, 0, 64, 23
1, 406142, Control_c, 0, 64, 28
1, 406151, Note_on_c, 0, 74, 71
1, 406157, Control_c, 0, 64, 29
1, 406158, Note_on_c, 0, 68, 62
1, 406167, Note_off_c, 0, 78, 61
1, 406171, Control_c, 0, 64, 32
1, 406186, Control_c, 0, 64, 33
1, 406189, Note_off_c, 0, 68, 66
1, 406225, Note_off_c, 0, 74, 49
1, 406231, Control_c, 0, 64, 33
1, 406246, Control_c, 0, 64, 31
1, 406261, Control_c, 0, 64, 30
1, 406276, Control_c, 0, 64, 30
1, 406291, Control_c, 0, 64, 29
1, 406306, Control_c, 0, 64, 25
1, 406318, Note_on_c, 0, 97, 88
1, 406320, Control_c, 0, 64, 13
1, 406320, Note_on_c, 0, 98, 99
1, 406329, Note_on_c, 0, 74, 77
1, 406332, Note_on_c, 0, 68, 73
1, 406335, Note_off_c, 0, 97, 73
1, 406335, Control_c, 0, 64, 0
1, 406341, Note_off_c, 0, 98, 68
1, 406363, Note_off_c, 0, 68, 65
1, 406380, Note_off_c, 0, 74, 57
1, 406503, Note_on_c, 0, 74, 87
1, 406513, Note_on_c, 0, 68, 77
1, 406578, Note_off_c, 0, 68, 62
1, 406601, Note_off_c, 0, 74, 63
1, 406675, Note_on_c, 0, 62, 85
1, 406675, Note_on_c, 0, 79, 90
1, 406676, Note_on_c, 0, 67, 86
1, 406676, Note_on_c, 0, 73, 85
1, 406696, Note_off_c, 0, 62, 69
1, 406705, Note_off_c, 0, 73, 63
1, 406705, Note_off_c, 0, 67, 66
1, 406725, Note_off_c, 0, 79, 66
1, 406867, Note_on_c, 0, 79, 82
1, 406874, Note_on_c, 0, 73, 66
1, 406877, Note_on_c, 0, 67, 60
1, 406892, Note_off_c, 0, 73, 67
1, 406896, Note_off_c, 0, 79, 62
1, 406896, Note_off_c, 0, 67, 63
1, 407026, Note_on_c, 0, 73, 68
1, 407026, Note_on_c, 0, 85, 72
1, 407027, Note_on_c, 0, 67, 63
1, 407031, Note_on_c, 0, 86, 81
1, 407034, Note_on_c, 0, 79, 81
1, 407043, Note_off_c, 0, 85, 68
1, 407054, Note_off_c, 0, 86, 69
1, 407055, Note_off_c, 0, 79, 69
1, 407058, Note_off_c, 0, 67, 65
1, 407058, Note_off_c, 0, 73, 66
1, 407202, Note_on_c, 0, 79, 67
1, 407211, Note_on_c, 0, 73, 71
1, 407214, Note_on_c, 0, 67, 70
1, 407245, Note_off_c, 0, 67, 58
1, 407283, Note_off_c, 0, 73, 59
1, 407301, Note_off_c, 0, 79, 64
1, 407375, Note_on_c, 0, 62, 86
1, 407383, Note_on_c, 0, 72, 51
1, 407388, Note_on_c, 0, 78, 96
1, 407397, Note_on_c, 0, 66, 81
1, 407402, Note_off_c, 0, 62, 70
1, 407410, Control_c, 0, 64, 47
1, 407424, Control_c, 0, 64, 50
1, 407439, Control_c, 0, 64, 48
1, 407525, Note_off_c, 0, 66, 63
1, 407543, Control_c, 0, 64, 49
1, 407558, Control_c, 0, 64, 50
1, 407644, Note_off_c, 0, 72, 34
1, 407698, Control_c, 0, 64, 49
1, 407713, Control_c, 0, 64, 49
1, 407725, Note_on_c, 0, 97, 75
1, 407726, Note_off_c, 0, 97, 127
1, 407729, Control_c, 0, 64, 47
1, 407730, Note_on_c, 0, 81, 77
1, 407730, Note_on_c, 0, 98, 93
1, 407731, Note_on_c, 0, 75, 71
1, 407731, Note_off_c, 0, 78, 61
1, 407743, Control_c, 0, 64, 45
1, 407746, Note_on_c, 0, 69, 55
1, 407746, Note_off_c, 0, 98, 75
1, 407755, Note_off_c, 0, 75, 68
1, 407758, Control_c, 0, 64, 41
1, 407768, Note_off_c, 0, 69, 62
1, 407773, Control_c, 0, 64, 34
1, 407785, Note_off_c, 0, 81, 57
1, 407788, Control_c, 0, 64, 14
1, 407803, Control_c, 0, 64, 0
1, 407868, Poly_aftertouch_c, 0, 72, 0
1, 407908, Note_on_c, 0, 78, 87
1, 407912, Note_on_c, 0, 72, 60
1, 407914, Note_on_c, 0, 66, 78
1, 407940, Note_off_c, 0, 72, 66
1, 407973, Note_off_c, 0, 66, 64
1, 407982, Note_off_c, 0, 78, 64
1, 408085, Note_on_c, 0, 62, 78
1, 408085, Note_on_c, 0, 76, 90
1, 408088, Note_on_c, 0, 64, 80
1, 408091, Note_on_c, 0, 70, 76
1, 408104, Note_off_c, 0, 62, 68
1, 408114, Note_off_c, 0, 64, 68
1, 408114, Note_off_c, 0, 70, 68
1, 408133, Note_off_c, 0, 76, 64
1, 408253, Note_on_c, 0, 70, 55
1, 408253, Note_on_c, 0, 76, 84
1, 408260, Note_on_c, 0, 64, 65
1, 408281, Note_off_c, 0, 70, 65
1, 408282, Note_off_c, 0, 64, 65
1, 408283, Note_off_c, 0, 76, 62
1, 408429, Note_on_c, 0, 85, 69
1, 408430, Note_off_c, 0, 85, 127
1, 408430, Note_on_c, 0, 86, 82
1, 408435, Note_on_c, 0, 70, 82
1, 408436, Note_on_c, 0, 64, 67
1, 408436, Note_on_c, 0, 76, 90
1, 408450, Note_off_c, 0, 86, 70
1, 408462, Note_off_c, 0, 70, 67
1, 408467, Note_off_c, 0, 64, 66
1, 408468, Note_on_c, 0, 65, 31
1, 408469, Note_off_c, 0, 76, 59
1, 408476, Note_off_c, 0, 65, 41
1, 408602, Note_on_c, 0, 76, 99
1, 408605, Note_on_c, 0, 70, 90
1, 408610, Note_on_c, 0, 64, 72
1, 408637, Note_off_c, 0, 64, 67
1, 408645, Note_off_c, 0, 70, 52
1, 408715, Note_off_c, 0, 76, 62
1, 408775, Note_on_c, 0, 78, 94
1, 408777, Note_on_c, 0, 62, 89
1, 408778, Note_on_c, 0, 72, 83
1, 408785, Note_on_c, 0, 66, 82
1, 408798, Note_off_c, 0, 62, 71
1, 408815, Note_off_c, 0, 72, 58
1, 408819, Note_off_c, 0, 66, 57
1, 408854, Note_off_c, 0, 78, 63
1, 408956, Note_on_c, 0, 78, 87
1, 408960, Note_on_c, 0, 72, 71
1, 408968, Note_on_c, 0, 66, 70
1, 409002, Note_off_c, 0, 66, 66
1, 409030, Note_off_c, 0, 72, 46
1, 409067, Note_off_c, 0, 78, 60
1, 409109, Control_c, 0, 64, 39
1, 409117, Note_on_c, 0, 97, 89
1, 409118, Note_on_c, 0, 75, 82
1, 409118, Note_on_c, 0, 98, 103
1, 409122, Note_on_c, 0, 81, 83
1, 409123, Note_on_c, 0, 69, 84
1, 409123, Control_c, 0, 64, 57
1, 409132, Note_off_c, 0, 97, 74
1, 409138, Control_c, 0, 64, 56
1, 409139, Note_off_c, 0, 98, 67
1, 409153, Control_c, 0, 64, 46
1, 409154, Note_on_c, 0, 72, 16
1, 409168, Control_c, 0, 64, 23
1, 409183, Control_c, 0, 64, 0
1, 409192, Note_off_c, 0, 81, 64
1, 409193, Note_off_c, 0, 69, 60
1, 409224, Note_off_c, 0, 75, 62
1, 409244, Note_off_c, 0, 72, 46
1, 409296, Note_on_c, 0, 78, 86
1, 409296, Note_on_c, 0, 72, 76
1, 409298, Note_on_c, 0, 66, 82
1, 409327, Note_off_c, 0, 72, 66
1, 409356, Note_off_c, 0, 66, 61
1, 409368, Note_off_c, 0, 78, 63
1, 409463, Note_on_c, 0, 64, 92
1, 409465, Note_on_c, 0, 76, 89
1, 409472, Note_on_c, 0, 70, 75
1, 409496, Note_off_c, 0, 70, 67
1, 409497, Note_off_c, 0, 64, 63
1, 409518, Note_off_c, 0, 76, 64
1, 409626, Note_on_c, 0, 70, 58
1, 409633, Note_on_c, 0, 64, 76
1, 409633, Note_on_c, 0, 76, 78
1, 409661, Note_off_c, 0, 64, 68
1, 409664, Note_off_c, 0, 76, 62
1, 409666, Note_off_c, 0, 70, 64
1, 409786, Note_on_c, 0, 85, 102
1, 409790, Note_on_c, 0, 86, 91
1, 409791, Control_c, 0, 64, 53
1, 409797, Note_on_c, 0, 70, 84
1, 409797, Note_on_c, 0, 64, 74
1, 409801, Note_off_c, 0, 85, 77
1, 409802, Note_on_c, 0, 76, 83
1, 409806, Control_c, 0, 64, 64
1, 409808, Note_off_c, 0, 86, 72
1, 409820, Control_c, 0, 64, 65
1, 409830, Note_off_c, 0, 76, 63
1, 409830, Note_off_c, 0, 64, 66
1, 409835, Control_c, 0, 64, 64
1, 409854, Note_off_c, 0, 70, 63
1, 409857, Control_c, 0, 64, 63
1, 409872, Control_c, 0, 64, 62
1, 409887, Control_c, 0, 64, 58
1, 409902, Control_c, 0, 64, 54
1, 409916, Control_c, 0, 64, 50
1, 409931, Control_c, 0, 64, 48
1, 409946, Control_c, 0, 64, 48
1, 409961, Control_c, 0, 64, 47
1, 409974, Note_on_c, 0, 64, 75
1, 409974, Note_on_c, 0, 70, 75
1, 409976, Note_on_c, 0, 76, 84
1, 409976, Control_c, 0, 64, 46
1, 409991, Control_c, 0, 64, 42
1, 410006, Control_c, 0, 64, 31
1, 410007, Note_off_c, 0, 64, 60
1, 410020, Control_c, 0, 64, 0
1, 410022, Note_off_c, 0, 70, 54
1, 410031, Note_off_c, 0, 76, 62
1, 410137, Note_on_c, 0, 62, 102
1, 410137, Note_on_c, 0, 77, 78
1, 410152, Note_on_c, 0, 75, 46
1, 410153, Note_off_c, 0, 75, 127
1, 410155, Note_off_c, 0, 62, 71
1, 410161, Note_off_c, 0, 77, 70
1, 410183, Control_c, 0, 64, 43
1, 410198, Control_c, 0, 64, 66
1, 410214, Control_c, 0, 64, 70
1, 410229, Control_c, 0, 64, 72
1, 410243, Control_c, 0, 64, 75
1, 410251, Note_on_c, 0, 82, 61
1, 410252, Note_off_c, 0, 82, 127
1, 410254, Note_on_c, 0, 73, 54
1, 410258, Control_c, 0, 64, 78
1, 410269, Note_on_c, 0, 84, 33
1, 410273, Control_c, 0, 64, 83
1, 410274, Note_off_c, 0, 73, 64
1, 410287, Control_c, 0, 64, 88
1, 410298, Note_off_c, 0, 84, 57
1, 410302, Control_c, 0, 64, 91
1, 410317, Control_c, 0, 64, 92
1, 410330, Note_on_c, 0, 87, 70
1, 410332, Control_c, 0, 64, 93
1, 410337, Note_on_c, 0, 85, 27
1, 410346, Note_off_c, 0, 87, 68
1, 410347, Control_c, 0, 64, 95
1, 410357, Note_on_c, 0, 74, 37
1, 410361, Control_c, 0, 64, 99
1, 410372, Note_off_c, 0, 85, 42
1, 410376, Control_c, 0, 64, 119
1, 410387, Note_off_c, 0, 74, 56
1, 410391, Control_c, 0, 64, 127
1, 410400, Note_on_c, 0, 76, 80
1, 410401, Note_on_c, 0, 88, 88
1, 410422, Note_off_c, 0, 88, 71
1, 410423, Note_off_c, 0, 76, 68
1, 410477, Note_on_c, 0, 78, 96
1, 410480, Note_on_c, 0, 90, 92
1, 410502, Note_off_c, 0, 78, 63
1, 410505, Note_on_c, 0, 91, 56
1, 410505, Note_off_c, 0, 90, 64
1, 410527, Note_off_c, 0, 91, 63
1, 410561, Poly_aftertouch_c, 0, 76, 0
1, 410562, Note_on_c, 0, 79, 88
1, 410565, Note_on_c, 0, 91, 91
1, 410591, Note_off_c, 0, 79, 70
1, 410595, Note_off_c, 0, 91, 67
1, 410649, Note_on_c, 0, 93, 96
1, 410652, Note_on_c, 0, 81, 90
1, 410657, Poly_aftertouch_c, 0, 85, 0
1, 410672, Note_off_c, 0, 81, 70
1, 410683, Note_off_c, 0, 93, 65
1, 410723, Note_on_c, 0, 83, 91
1, 410724, Note_on_c, 0, 95, 97
1, 410748, Note_off_c, 0, 83, 68
1, 410751, Note_off_c, 0, 95, 66
1, 410784, Control_c, 0, 64, 72
1, 410799, Control_c, 0, 64, 36
1, 410814, Control_c, 0, 64, 0
1, 410815, Note_on_c, 0, 96, 101
1, 410817, Note_on_c, 0, 91, 93
1, 410820, Note_on_c, 0, 95, 87
1, 410844, Control_c, 0, 64, 43
1, 410846, Note_on_c, 0, 92, 34
1, 410847, Note_off_c, 0, 92, 127
1, 410858, Control_c, 0, 64, 67
1, 410869, Note_off_c, 0, 91, 64
1, 410873, Control_c, 0, 64, 91
1, 410882, Note_off_c, 0, 95, 66
1, 410888, Control_c, 0, 64, 127
1, 410900, Note_off_c, 0, 96, 64
1, 410901, Note_on_c, 0, 84, 83
1, 410924, Note_off_c, 0, 84, 69
1, 410972, Note_on_c, 0, 60, 68
1, 410975, Note_on_c, 0, 84, 61
1, 410987, Note_on_c, 0, 79, 74
1, 410988, Note_on_c, 0, 82, 64
1, 410993, Note_on_c, 0, 83, 70
1, 411001, Note_off_c, 0, 60, 64
1, 411003, Note_off_c, 0, 84, 0
1, 411003, Note_on_c, 0, 84, 26
1, 411012, Note_off_c, 0, 83, 65
1, 411013, Note_off_c, 0, 79, 67
1, 411016, Note_off_c, 0, 82, 67
1, 411040, Note_on_c, 0, 72, 88
1, 411052, Note_off_c, 0, 84, 44
1, 411082, Note_off_c, 0, 72, 65
1, 411133, Note_on_c, 0, 72, 94
1, 411139, Note_on_c, 0, 85, 68
1, 411157, Note_off_c, 0, 85, 69
1, 411183, Note_off_c, 0, 72, 65
1, 411225, Note_on_c, 0, 86, 78
1, 411228, Note_on_c, 0, 84, 76
1, 411231, Note_on_c, 0, 83, 65
1, 411236, Note_on_c, 0, 81, 47
1, 411249, Note_off_c, 0, 86, 69
1, 411252, Note_off_c, 0, 84, 69
1, 411252, Note_off_c, 0, 83, 66
1, 411261, Note_off_c, 0, 81, 36
1, 411293, Note_on_c, 0, 84, 92
1, 411297, Note_on_c, 0, 86, 85
1, 411310, Note_on_c, 0, 61, 82
1, 411331, Note_off_c, 0, 86, 52
1, 411342, Note_off_c, 0, 61, 66
1, 411353, Note_off_c, 0, 84, 66
1, 411384, Note_on_c, 0, 96, 88
1, 411389, Note_on_c, 0, 95, 74
1, 411393, Note_on_c, 0, 94, 66
1, 411394, Note_off_c, 0, 94, 127
1, 411402, Note_on_c, 0, 91, 52
1, 411403, Note_off_c, 0, 91, 127
1, 411403, Note_off_c, 0, 95, 69
1, 411405, Note_off_c, 0, 96, 70
1, 411465, Note_on_c, 0, 95, 103
1, 411472, Note_on_c, 0, 93, 90
1, 411474, Control_c, 0, 64, 87
1, 411475, Note_on_c, 0, 94, 69
1, 411476, Note_off_c, 0, 94, 127
1, 411479, Note_on_c, 0, 91, 84
1, 411480, Poly_aftertouch_c, 0, 61, 0
1, 411488, Note_on_c, 0, 90, 76
1, 411489, Control_c, 0, 64, 56
1, 411504, Control_c, 0, 64, 0
1, 411506, Note_off_c, 0, 90, 64
1, 411509, Note_off_c, 0, 91, 65
1, 411523, Note_off_c, 0, 93, 65
1, 411533, Control_c, 0, 64, 13
1, 411537, Note_off_c, 0, 95, 66
1, 411548, Control_c, 0, 64, 55
1, 411550, Note_on_c, 0, 83, 92
1, 411563, Control_c, 0, 64, 70
1, 411570, Note_off_c, 0, 83, 71
1, 411578, Control_c, 0, 64, 76
1, 411592, Control_c, 0, 64, 83
1, 411607, Control_c, 0, 64, 88
1, 411622, Control_c, 0, 64, 95
1, 411625, Note_on_c, 0, 62, 89
1, 411636, Note_on_c, 0, 78, 86
1, 411637, Control_c, 0, 64, 127
1, 411647, Note_on_c, 0, 79, 70
1, 411648, Note_on_c, 0, 74, 66
1, 411649, Note_off_c, 0, 62, 70
1, 411672, Note_off_c, 0, 74, 68
1, 411690, Note_off_c, 0, 78, 64
1, 411704, Note_off_c, 0, 79, 65
1, 411714, Note_on_c, 0, 67, 85
1, 411761, Note_off_c, 0, 67, 64
1, 411794, Note_on_c, 0, 67, 86
1, 411807, Note_on_c, 0, 97, 45
1, 411808, Note_off_c, 0, 97, 127
1, 411839, Note_off_c, 0, 67, 67
1, 411887, Note_on_c, 0, 74, 55
1, 411887, Note_on_c, 0, 79, 55
1, 411890, Note_on_c, 0, 78, 75
1, 411907, Note_off_c, 0, 74, 64
1, 411908, Note_off_c, 0, 79, 65
1, 411911, Note_off_c, 0, 78, 67
1, 411914, Poly_aftertouch_c, 0, 69, 0
1, 411955, Note_on_c, 0, 79, 84
1, 411961, Note_on_c, 0, 63, 80
1, 411979, Note_on_c, 0, 77, 54
1, 411980, Note_off_c, 0, 77, 127
1, 411985, Note_off_c, 0, 63, 68
1, 412002, Poly_aftertouch_c, 0, 77, 0
1, 412010, Note_off_c, 0, 79, 65
1, 412031, Note_on_c, 0, 87, 94
1, 412034, Note_on_c, 0, 90, 88
1, 412035, Note_off_c, 0, 90, 127
1, 412049, Note_off_c, 0, 87, 74
1, 412051, Poly_aftertouch_c, 0, 78, 0
1, 412057, Note_on_c, 0, 91, 50
1, 412058, Note_off_c, 0, 91, 127
1, 412063, Note_on_c, 0, 93, 42
1, 412064, Note_on_c, 0, 63, 14
1, 412095, Note_off_c, 0, 93, 57
1, 412103, Note_off_c, 0, 63, 47
1, 412116, Note_on_c, 0, 90, 31
1, 412130, Note_on_c, 0, 96, 99
1, 412131, Note_on_c, 0, 94, 90
1, 412133, Note_on_c, 0, 91, 104
1, 412134, Note_on_c, 0, 95, 90
1, 412134, Control_c, 0, 64, 71
1, 412147, Note_off_c, 0, 90, 39
1, 412148, Control_c, 0, 64, 12
1, 412163, Control_c, 0, 64, 0
1, 412169, Note_off_c, 0, 94, 63
1, 412174, Note_off_c, 0, 91, 65
1, 412180, Note_off_c, 0, 95, 67
1, 412193, Control_c, 0, 64, 12
1, 412198, Note_off_c, 0, 96, 65
1, 412206, Note_on_c, 0, 84, 87
1, 412208, Control_c, 0, 64, 60
1, 412222, Control_c, 0, 64, 79
1, 412227, Note_off_c, 0, 84, 71
1, 412237, Control_c, 0, 64, 88
1, 412252, Control_c, 0, 64, 102
1, 412266, Control_c, 0, 64, 122
1, 412275, Note_on_c, 0, 64, 94
1, 412281, Control_c, 0, 64, 127
1, 412285, Note_on_c, 0, 79, 81
1, 412292, Note_on_c, 0, 84, 68
1, 412297, Note_off_c, 0, 64, 71
1, 412298, Note_on_c, 0, 83, 68
1, 412298, Note_on_c, 0, 82, 49
1, 412326, Note_off_c, 0, 83, 67
1, 412336, Note_off_c, 0, 82, 60
1, 412352, Note_on_c, 0, 72, 88
1, 412361, Note_off_c, 0, 84, 53
1, 412379, Note_off_c, 0, 72, 64
1, 412414, Note_off_c, 0, 79, 66
1, 412434, Note_on_c, 0, 85, 94
1, 412443, Note_on_c, 0, 72, 98
1, 412451, Poly_aftertouch_c, 0, 84, 127
1, 412452, Note_off_c, 0, 85, 71
1, 412483, Poly_aftertouch_c, 0, 84, 0
1, 412486, Note_off_c, 0, 72, 66
1, 412519, Note_on_c, 0, 85, 34
1, 412530, Note_on_c, 0, 79, 78
1, 412536, Note_on_c, 0, 83, 71
1, 412546, Note_off_c, 0, 79, 69
1, 412549, Note_on_c, 0, 84, 62
1, 412554, Note_off_c, 0, 85, 46
1, 412558, Note_off_c, 0, 83, 69
1, 412566, Note_off_c, 0, 84, 66
1, 412604, Note_on_c, 0, 84, 97
1, 412633, Note_on_c, 0, 63, 83
1, 412668, Note_off_c, 0, 84, 65
1, 412668, Note_off_c, 0, 63, 61
1, 412681, Note_on_c, 0, 96, 89
1, 412682, Poly_aftertouch_c, 0, 79, 0
1, 412698, Note_on_c, 0, 95, 56
1, 412700, Note_off_c, 0, 96, 71
1, 412707, Note_on_c, 0, 94, 41
1, 412708, Note_off_c, 0, 94, 127
1, 412710, Note_on_c, 0, 91, 33
1, 412711, Note_off_c, 0, 91, 127
1, 412720, Note_off_c, 0, 95, 43
1, 412766, Note_on_c, 0, 95, 105
1, 412771, Note_on_c, 0, 93, 91
1, 412772, Note_on_c, 0, 83, 100
1, 412781, Note_on_c, 0, 89, 83
1, 412801, Control_c, 0, 64, 72
1, 412816, Control_c, 0, 64, 32
1, 412838, Control_c, 0, 64, 0
1, 412885, Note_off_c, 0, 89, 63
1, 412912, Control_c, 0, 64, 9
1, 412927, Control_c, 0, 64, 61
1, 412932, Note_on_c, 0, 62, 95
1, 412942, Control_c, 0, 64, 77
1, 412957, Control_c, 0, 64, 99
1, 412961, Note_off_c, 0, 62, 65
1, 412971, Control_c, 0, 64, 127
1, 412979, Note_on_c, 0, 85, 58
1, 413017, Note_off_c, 0, 83, 63
1, 413019, Note_off_c, 0, 85, 62
1, 413027, Note_off_c, 0, 95, 61
1, 413030, Note_off_c, 0, 93, 63
1, 413108, Note_on_c, 0, 97, 84
1, 413109, Note_off_c, 0, 97, 127
1, 413109, Note_on_c, 0, 86, 68
1, 413109, Note_on_c, 0, 95, 85
1, 413116, Note_on_c, 0, 88, 65
1, 413118, Note_on_c, 0, 93, 62
1, 413125, Note_off_c, 0, 86, 67
1, 413134, Note_on_c, 0, 90, 47
1, 413134, Note_off_c, 0, 88, 67
1, 413157, Note_off_c, 0, 90, 51
1, 413160, Note_off_c, 0, 93, 65
1, 413189, Note_on_c, 0, 83, 87
1, 413207, Note_on_c, 0, 84, 59
1, 413226, Note_off_c, 0, 83, 66
1, 413229, Note_off_c, 0, 84, 37
1, 413255, Poly_aftertouch_c, 0, 97, 0
1, 413263, Note_on_c, 0, 61, 86
1, 413285, Note_on_c, 0, 83, 93
1, 413285, Note_off_c, 0, 61, 67
1, 413290, Note_off_c, 0, 95, 61
1, 413322, Note_on_c, 0, 84, 35
1, 413354, Note_off_c, 0, 84, 35
1, 413359, Note_on_c, 0, 90, 81
1, 413363, Note_on_c, 0, 92, 73
1, 413364, Note_off_c, 0, 83, 66
1, 413378, Note_on_c, 0, 95, 43
1, 413378, Note_off_c, 0, 92, 68
1, 413379, Note_off_c, 0, 90, 71
1, 413398, Poly_aftertouch_c, 0, 61, 0
1, 413408, Note_off_c, 0, 95, 37
1, 413425, Poly_aftertouch_c, 0, 61, 0
1, 413432, Note_on_c, 0, 90, 101
1, 413439, Note_on_c, 0, 88, 95
1, 413440, Note_on_c, 0, 93, 93
1, 413450, Note_on_c, 0, 92, 59
1, 413451, Note_off_c, 0, 92, 127
1, 413461, Control_c, 0, 64, 72
1, 413475, Note_off_c, 0, 90, 69
1, 413476, Control_c, 0, 64, 20
1, 413491, Control_c, 0, 64, 0
1, 413491, Note_off_c, 0, 88, 66
1, 413491, Note_off_c, 0, 93, 65
1, 413520, Control_c, 0, 64, 21
1, 413523, Note_on_c, 0, 81, 85
1, 413535, Control_c, 0, 64, 57
1, 413535, Note_off_c, 0, 81, 73
1, 413550, Control_c, 0, 64, 73
1, 413565, Control_c, 0, 64, 82
1, 413578, Note_on_c, 0, 60, 85
1, 413580, Control_c, 0, 64, 95
1, 413599, Note_on_c, 0, 78, 84
1, 413601, Note_on_c, 0, 81, 76
1, 413601, Control_c, 0, 64, 110
1, 413607, Note_off_c, 0, 60, 67
1, 413608, Note_on_c, 0, 76, 72
1, 413616, Control_c, 0, 64, 127
1, 413629, Note_off_c, 0, 76, 65
1, 413643, Note_on_c, 0, 80, 28
1, 413649, Note_off_c, 0, 78, 60
1, 413664, Note_off_c, 0, 81, 63
1, 413677, Note_on_c, 0, 67, 78
1, 413678, Note_off_c, 0, 80, 43
1, 413688, Note_on_c, 0, 69, 59
1, 413702, Note_off_c, 0, 67, 67
1, 413704, Note_on_c, 0, 75, 38
1, 413709, Note_off_c, 0, 69, 63
1, 413717, Note_on_c, 0, 60, 2
1, 413732, Note_off_c, 0, 75, 51
1, 413754, Note_on_c, 0, 85, 74
1, 413755, Note_off_c, 0, 60, 39
1, 413756, Note_on_c, 0, 67, 84
1, 413769, Note_off_c, 0, 85, 70
1, 413777, Note_on_c, 0, 69, 65
1, 413795, Note_off_c, 0, 69, 65
1, 413803, Note_off_c, 0, 67, 65
1, 413840, Note_on_c, 0, 76, 69
1, 413847, Note_on_c, 0, 78, 66
1, 413848, Note_on_c, 0, 81, 71
1, 413857, Note_off_c, 0, 76, 65
1, 413863, Note_off_c, 0, 78, 65
1, 413870, Note_off_c, 0, 81, 67
1, 413910, Note_on_c, 0, 81, 93
1, 413952, Note_on_c, 0, 79, 14
1, 413953, Note_off_c, 0, 79, 127
1, 413973, Note_off_c, 0, 81, 63
1, 413991, Note_on_c, 0, 90, 97
1, 413993, Poly_aftertouch_c, 0, 79, 0
1, 414005, Note_on_c, 0, 89, 61
1, 414006, Note_off_c, 0, 90, 74
1, 414010, Note_on_c, 0, 93, 59
1, 414024, Note_off_c, 0, 89, 65
1, 414030, Note_off_c, 0, 93, 42
1, 414071, Note_on_c, 0, 90, 91
1, 414072, Note_on_c, 0, 95, 95
1, 414073, Note_on_c, 0, 91, 97
1, 414075, Control_c, 0, 64, 78
1, 414090, Control_c, 0, 64, 36
1, 414100, Note_on_c, 0, 94, 61
1, 414105, Control_c, 0, 64, 0
1, 414126, Note_off_c, 0, 94, 55
1, 414131, Note_off_c, 0, 91, 63
1, 414134, Note_off_c, 0, 90, 64
1, 414148, Note_on_c, 0, 83, 86
1, 414149, Control_c, 0, 64, 49
1, 414164, Control_c, 0, 64, 66
1, 414179, Control_c, 0, 64, 74
1, 414184, Note_off_c, 0, 95, 64
1, 414194, Control_c, 0, 64, 82
1, 414203, Note_off_c, 0, 83, 66
1, 414209, Control_c, 0, 64, 94
1, 414212, Note_on_c, 0, 62, 95
1, 414224, Control_c, 0, 64, 127
1, 414229, Note_on_c, 0, 90, 83
1, 414230, Note_on_c, 0, 95, 63
1, 414231, Note_on_c, 0, 91, 84
1, 414237, Note_off_c, 0, 62, 68
1, 414245, Note_on_c, 0, 94, 46
1, 414268, Note_off_c, 0, 94, 61
1, 414269, Note_on_c, 0, 83, 71
1, 414269, Note_off_c, 0, 95, 62
1, 414270, Note_off_c, 0, 91, 61
1, 414280, Note_off_c, 0, 90, 64
1, 414321, Note_on_c, 0, 91, 65
1, 414336, Note_off_c, 0, 83, 67
1, 414343, Note_off_c, 0, 91, 66
1, 414377, Note_on_c, 0, 97, 116
1, 414388, Note_off_c, 0, 97, 79
1, 414406, Note_on_c, 0, 86, 86
1, 414407, Note_on_c, 0, 93, 67
1, 414409, Note_on_c, 0, 91, 69
1, 414412, Note_on_c, 0, 95, 86
1, 414425, Note_on_c, 0, 84, 46
1, 414430, Note_off_c, 0, 86, 68
1, 414449, Note_off_c, 0, 84, 63
1, 414450, Note_off_c, 0, 91, 65
1, 414477, Note_off_c, 0, 93, 65
1, 414479, Note_off_c, 0, 95, 64
1, 414482, Note_on_c, 0, 83, 96
1, 414522, Note_off_c, 0, 83, 69
1, 414544, Note_on_c, 0, 63, 98
1, 414564, Note_off_c, 0, 63, 72
1, 414572, Note_on_c, 0, 83, 87
1, 414602, Note_on_c, 0, 84, 45
1, 414619, Note_off_c, 0, 83, 67
1, 414627, Note_off_c, 0, 84, 58
1, 414642, Note_on_c, 0, 90, 80
1, 414662, Note_off_c, 0, 90, 70
1, 414668, Note_on_c, 0, 95, 34
1, 414669, Note_off_c, 0, 95, 127
1, 414672, Note_on_c, 0, 91, 28
1, 414673, Note_off_c, 0, 91, 127
1, 414712, Note_on_c, 0, 90, 100
1, 414722, Note_on_c, 0, 88, 86
1, 414722, Note_on_c, 0, 93, 81
1, 414763, Note_off_c, 0, 88, 66
1, 414767, Note_off_c, 0, 93, 66
1, 414770, Note_off_c, 0, 90, 66
1, 414798, Note_on_c, 0, 81, 81
1, 414819, Note_off_c, 0, 81, 68
1, 414824, Control_c, 0, 64, 95
1, 414839, Control_c, 0, 64, 72
1, 414853, Control_c, 0, 64, 59
1, 414868, Control_c, 0, 64, 45
1, 414869, Note_on_c, 0, 81, 72
1, 414878, Note_on_c, 0, 62, 79
1, 414883, Control_c, 0, 64, 23
1, 414889, Note_on_c, 0, 79, 54
1, 414891, Note_on_c, 0, 76, 50
1, 414896, Note_on_c, 0, 77, 37
1, 414896, Note_on_c, 0, 78, 28
1, 414898, Control_c, 0, 64, 0
1, 414910, Note_off_c, 0, 79, 65
1, 414915, Note_off_c, 0, 76, 57
1, 414926, Note_off_c, 0, 77, 34
1, 414927, Note_off_c, 0, 62, 65
1, 414932, Note_off_c, 0, 78, 52
1, 414939, Note_on_c, 0, 69, 83
1, 414964, Note_off_c, 0, 69, 69
1, 414979, Note_off_c, 0, 81, 0
1, 415017, Poly_aftertouch_c, 0, 81, 127
1, 415026, Note_on_c, 0, 69, 90
1, 415056, Note_on_c, 0, 61, 45
1, 415065, Poly_aftertouch_c, 0, 81, 0
1, 415090, Note_off_c, 0, 69, 66
1, 415091, Note_off_c, 0, 61, 37
1, 415115, Note_on_c, 0, 60, 3
1, 415121, Note_on_c, 0, 78, 84
1, 415124, Note_on_c, 0, 76, 66
1, 415132, Note_on_c, 0, 81, 73
1, 415142, Note_off_c, 0, 76, 65
1, 415148, Note_off_c, 0, 78, 66
1, 415154, Note_off_c, 0, 60, 25
1, 415157, Note_off_c, 0, 81, 68
1, 415194, Note_on_c, 0, 81, 96
1, 415202, Note_on_c, 0, 60, 75
1, 415234, Note_off_c, 0, 60, 65
1, 415266, Note_off_c, 0, 81, 64
1, 415271, Note_on_c, 0, 90, 91
1, 415282, Note_on_c, 0, 88, 64
1, 415286, Note_off_c, 0, 90, 75
1, 415301, Note_off_c, 0, 88, 40
1, 415337, Control_c, 0, 64, 30
1, 415348, Note_on_c, 0, 95, 97
1, 415349, Note_on_c, 0, 59, 91
1, 415352, Control_c, 0, 64, 53
1, 415354, Note_on_c, 0, 83, 95
1, 415356, Note_on_c, 0, 91, 83
1, 415366, Control_c, 0, 64, 64
1, 415368, Note_off_c, 0, 91, 71
1, 415369, Note_off_c, 0, 59, 72
1, 415370, Note_off_c, 0, 83, 74
1, 415372, Note_on_c, 0, 89, 52
1, 415373, Note_off_c, 0, 89, 127
1, 415378, Note_off_c, 0, 95, 64
1, 415381, Control_c, 0, 64, 65
1, 415396, Control_c, 0, 64, 63
1, 415411, Control_c, 0, 64, 53
1, 415426, Control_c, 0, 64, 0
1, 415459, Note_on_c, 0, 59, 3
1, 415464, Note_off_c, 0, 59, 49
1, 415562, Note_on_c, 0, 65, 68
1, 415564, Note_on_c, 0, 77, 71
1, 415707, Control_c, 0, 64, 27
1, 415722, Control_c, 0, 64, 55
1, 415737, Control_c, 0, 64, 64
1, 415766, Control_c, 0, 64, 67
1, 415781, Control_c, 0, 64, 74
1, 415796, Control_c, 0, 64, 88
1, 415811, Control_c, 0, 64, 113
1, 415834, Control_c, 0, 64, 127
1, 415848, Note_off_c, 0, 65, 63
1, 415854, Note_off_c, 0, 77, 65
1, 415914, Note_on_c, 0, 77, 89
1, 415924, Note_on_c, 0, 65, 69
1, 416189, Note_off_c, 0, 65, 62
1, 416199, Note_off_c, 0, 77, 65
1, 416263, Control_c, 0, 64, 97
1, 416263, Note_on_c, 0, 77, 80
1, 416269, Note_on_c, 0, 65, 64
1, 416278, Control_c, 0, 64, 72
1, 416293, Control_c, 0, 64, 58
1, 416307, Control_c, 0, 64, 44
1, 416322, Control_c, 0, 64, 39
1, 416352, Control_c, 0, 64, 41
1, 416367, Control_c, 0, 64, 49
1, 416381, Control_c, 0, 64, 60
1, 416396, Control_c, 0, 64, 68
1, 416411, Control_c, 0, 64, 75
1, 416426, Control_c, 0, 64, 82
1, 416440, Control_c, 0, 64, 86
1, 416455, Control_c, 0, 64, 87
1, 416470, Control_c, 0, 64, 89
1, 416485, Control_c, 0, 64, 91
1, 416500, Control_c, 0, 64, 95
1, 416514, Control_c, 0, 64, 102
1, 416525, Note_off_c, 0, 77, 62
1, 416529, Control_c, 0, 64, 109
1, 416537, Note_off_c, 0, 65, 60
1, 416559, Control_c, 0, 64, 108
1, 416574, Control_c, 0, 64, 95
1, 416596, Control_c, 0, 64, 77
1, 416612, Control_c, 0, 64, 64
1, 416623, Note_on_c, 0, 65, 56
1, 416623, Note_on_c, 0, 77, 68
1, 416626, Control_c, 0, 64, 53
1, 416641, Control_c, 0, 64, 47
1, 416656, Control_c, 0, 64, 48
1, 416671, Control_c, 0, 64, 52
1, 416686, Control_c, 0, 64, 59
1, 416701, Control_c, 0, 64, 65
1, 416716, Control_c, 0, 64, 71
1, 416730, Control_c, 0, 64, 77
1, 416745, Control_c, 0, 64, 85
1, 416760, Control_c, 0, 64, 87
1, 416775, Control_c, 0, 64, 89
1, 416790, Control_c, 0, 64, 91
1, 416804, Control_c, 0, 64, 93
1, 416819, Control_c, 0, 64, 94
1, 416834, Control_c, 0, 64, 95
1, 416849, Control_c, 0, 64, 98
1, 416864, Control_c, 0, 64, 101
1, 416878, Control_c, 0, 64, 102
1, 416879, Note_off_c, 0, 77, 62
1, 416891, Note_off_c, 0, 65, 63
1, 416908, Control_c, 0, 64, 98
1, 416923, Control_c, 0, 64, 86
1, 416937, Control_c, 0, 64, 72
1, 416952, Control_c, 0, 64, 64
1, 416967, Control_c, 0, 64, 60
1, 416975, Note_on_c, 0, 77, 64
1, 416981, Note_on_c, 0, 65, 56
1, 416982, Control_c, 0, 64, 62
1, 416997, Control_c, 0, 64, 65
1, 417011, Control_c, 0, 64, 70
1, 417026, Control_c, 0, 64, 77
1, 417041, Control_c, 0, 64, 85
1, 417056, Control_c, 0, 64, 88
1, 417106, Note_off_c, 0, 65, 62
1, 417130, Control_c, 0, 64, 89
1, 417145, Control_c, 0, 64, 92
1, 417160, Control_c, 0, 64, 95
1, 417163, Note_off_c, 0, 77, 53
1, 417175, Control_c, 0, 64, 97
1, 417190, Control_c, 0, 64, 99
1, 417204, Control_c, 0, 64, 99
1, 417234, Control_c, 0, 64, 100
1, 417315, Note_on_c, 0, 77, 59
1, 417323, Note_on_c, 0, 65, 56
1, 417360, Control_c, 0, 64, 98
1, 417375, Control_c, 0, 64, 93
1, 417390, Control_c, 0, 64, 85
1, 417405, Control_c, 0, 64, 74
1, 417420, Control_c, 0, 64, 64
1, 417434, Control_c, 0, 64, 53
1, 417449, Control_c, 0, 64, 37
1, 417464, Control_c, 0, 64, 22
1, 417479, Control_c, 0, 64, 0
1, 417497, Note_on_c, 0, 55, 47
1, 417539, Control_c, 0, 64, 26
1, 417553, Control_c, 0, 64, 48
1, 417568, Control_c, 0, 64, 49
1, 417583, Note_off_c, 0, 65, 57
1, 417583, Control_c, 0, 64, 37
1, 417583, Note_off_c, 0, 77, 61
1, 417598, Control_c, 0, 64, 0
1, 417668, Note_on_c, 0, 57, 50
1, 417668, Note_on_c, 0, 77, 49
1, 417670, Note_on_c, 0, 65, 48
1, 417673, Note_off_c, 0, 55, 63
1, 417697, Note_off_c, 0, 57, 63
1, 417805, Control_c, 0, 64, 11
1, 417820, Control_c, 0, 64, 29
1, 417834, Control_c, 0, 64, 41
1, 417849, Control_c, 0, 64, 53
1, 417854, Note_on_c, 0, 55, 47
1, 417864, Control_c, 0, 64, 61
1, 417878, Control_c, 0, 64, 64
1, 417918, Note_off_c, 0, 65, 54
1, 417923, Control_c, 0, 64, 63
1, 417927, Note_off_c, 0, 77, 64
1, 417938, Control_c, 0, 64, 58
1, 417953, Control_c, 0, 64, 50
1, 417968, Control_c, 0, 64, 39
1, 417983, Control_c, 0, 64, 23
1, 417998, Control_c, 0, 64, 0
1, 418002, Note_off_c, 0, 55, 61
1, 418013, Note_on_c, 0, 57, 53
1, 418024, Note_on_c, 0, 77, 52
1, 418029, Note_on_c, 0, 65, 47
1, 418042, Note_off_c, 0, 57, 64
1, 418168, Control_c, 0, 64, 19
1, 418183, Control_c, 0, 64, 42
1, 418197, Control_c, 0, 64, 55
1, 418205, Note_on_c, 0, 55, 58
1, 418213, Control_c, 0, 64, 60
1, 418228, Control_c, 0, 64, 63
1, 418243, Control_c, 0, 64, 64
1, 418257, Control_c, 0, 64, 64
1, 418272, Control_c, 0, 64, 64
1, 418287, Control_c, 0, 64, 63
1, 418293, Note_off_c, 0, 77, 62
1, 418298, Note_off_c, 0, 65, 48
1, 418302, Control_c, 0, 64, 59
1, 418317, Control_c, 0, 64, 48
1, 418332, Control_c, 0, 64, 26
1, 418346, Control_c, 0, 64, 0
1, 418366, Note_off_c, 0, 55, 62
1, 418373, Note_on_c, 0, 77, 71
1, 418375, Note_on_c, 0, 57, 61
1, 418377, Note_on_c, 0, 65, 65
1, 418398, Note_off_c, 0, 57, 64
1, 418524, Control_c, 0, 64, 36
1, 418539, Control_c, 0, 64, 51
1, 418548, Note_on_c, 0, 55, 71
1, 418554, Control_c, 0, 64, 60
1, 418569, Control_c, 0, 64, 64
1, 418583, Control_c, 0, 64, 67
1, 418598, Control_c, 0, 64, 69
1, 418613, Control_c, 0, 64, 70
1, 418628, Control_c, 0, 64, 69
1, 418643, Control_c, 0, 64, 64
1, 418645, Note_off_c, 0, 65, 56
1, 418651, Note_off_c, 0, 77, 61
1, 418657, Control_c, 0, 64, 54
1, 418672, Control_c, 0, 64, 31
1, 418687, Control_c, 0, 64, 0
1, 418710, Note_off_c, 0, 55, 63
1, 418710, Note_on_c, 0, 65, 59
1, 418712, Note_on_c, 0, 78, 76
1, 418713, Note_on_c, 0, 77, 57
1, 418716, Note_on_c, 0, 57, 65
1, 418744, Note_off_c, 0, 57, 66
1, 418858, Control_c, 0, 64, 9
1, 418873, Control_c, 0, 64, 37
1, 418883, Note_off_c, 0, 77, 58
1, 418888, Control_c, 0, 64, 53
1, 418894, Note_on_c, 0, 55, 73
1, 418897, Note_on_c, 0, 50, 70
1, 418902, Control_c, 0, 64, 62
1, 418917, Control_c, 0, 64, 65
1, 418932, Control_c, 0, 64, 68
1, 418943, Note_off_c, 0, 78, 54
1, 418947, Control_c, 0, 64, 72
1, 418962, Control_c, 0, 64, 74
1, 418991, Control_c, 0, 64, 72
1, 419005, Note_off_c, 0, 65, 52
1, 419007, Control_c, 0, 64, 65
1, 419022, Control_c, 0, 64, 54
1, 419037, Control_c, 0, 64, 32
1, 419052, Control_c, 0, 64, 0
1, 419058, Note_on_c, 0, 78, 85
1, 419061, Note_off_c, 0, 55, 63
1, 419062, Note_on_c, 0, 65, 63
1, 419065, Note_on_c, 0, 57, 66
1, 419074, Note_on_c, 0, 76, 70
1, 419076, Note_off_c, 0, 50, 61
1, 419098, Note_off_c, 0, 57, 60
1, 419185, Control_c, 0, 64, 22
1, 419200, Control_c, 0, 64, 45
1, 419214, Control_c, 0, 64, 59
1, 419229, Control_c, 0, 64, 66
1, 419234, Note_on_c, 0, 50, 67
1, 419237, Note_on_c, 0, 55, 71
1, 419244, Control_c, 0, 64, 69
1, 419259, Control_c, 0, 64, 73
1, 419274, Control_c, 0, 64, 74
1, 419303, Control_c, 0, 64, 73
1, 419318, Control_c, 0, 64, 68
1, 419321, Note_off_c, 0, 78, 63
1, 419322, Note_off_c, 0, 65, 54
1, 419333, Control_c, 0, 64, 59
1, 419348, Control_c, 0, 64, 42
1, 419350, Note_off_c, 0, 76, 31
1, 419363, Control_c, 0, 64, 17
1, 419378, Control_c, 0, 64, 0
1, 419392, Note_off_c, 0, 50, 63
1, 419396, Note_on_c, 0, 79, 87
1, 419396, Note_off_c, 0, 55, 63
1, 419403, Note_on_c, 0, 74, 62
1, 419406, Note_on_c, 0, 57, 59
1, 419411, Note_on_c, 0, 65, 62
1, 419446, Note_off_c, 0, 57, 60
1, 419462, Note_off_c, 0, 65, 0
1, 419462, Note_on_c, 0, 65, 41
1, 419540, Control_c, 0, 64, 27
1, 419554, Control_c, 0, 64, 45
1, 419577, Control_c, 0, 64, 49
1, 419581, Note_on_c, 0, 55, 71
1, 419584, Note_on_c, 0, 50, 67
1, 419592, Control_c, 0, 64, 47
1, 419606, Control_c, 0, 64, 43
1, 419621, Control_c, 0, 64, 33
1, 419636, Control_c, 0, 64, 0
1, 419638, Note_off_c, 0, 65, 56
1, 419641, Note_off_c, 0, 79, 58
1, 419716, Note_off_c, 0, 74, 35
1, 419727, Note_off_c, 0, 50, 64
1, 419733, Note_off_c, 0, 55, 62
1, 419746, Note_on_c, 0, 79, 80
1, 419750, Note_on_c, 0, 65, 67
1, 419753, Note_on_c, 0, 72, 60
1, 419761, Note_on_c, 0, 57, 65
1, 419768, Note_off_c, 0, 65, 65
1, 419782, Note_off_c, 0, 72, 65
1, 419793, Note_off_c, 0, 57, 61
1, 419920, Note_on_c, 0, 67, 83
1, 419933, Control_c, 0, 64, 24
1, 419935, Note_off_c, 0, 79, 55
1, 419948, Control_c, 0, 64, 46
1, 419953, Note_off_c, 0, 67, 62
1, 419962, Control_c, 0, 64, 54
1, 419977, Control_c, 0, 64, 55
1, 419979, Note_on_c, 0, 55, 25
1, 420016, Note_off_c, 0, 55, 41
1, 420022, Control_c, 0, 64, 54
1, 420037, Control_c, 0, 64, 47
1, 420052, Control_c, 0, 64, 20
1, 420066, Control_c, 0, 64, 0
1, 420089, Note_on_c, 0, 67, 81
1, 420089, Note_on_c, 0, 79, 75
1, 420108, Note_on_c, 0, 74, 56
1, 420119, Note_on_c, 0, 55, 25
1, 420119, Note_on_c, 0, 57, 36
1, 420141, Note_off_c, 0, 74, 62
1, 420153, Note_off_c, 0, 57, 32
1, 420158, Note_off_c, 0, 55, 41
1, 420244, Control_c, 0, 64, 39
1, 420259, Control_c, 0, 64, 54
1, 420266, Note_on_c, 0, 72, 79
1, 420270, Note_off_c, 0, 67, 33
1, 420271, Note_off_c, 0, 79, 65
1, 420273, Control_c, 0, 64, 55
1, 420275, Note_on_c, 0, 50, 56
1, 420278, Note_on_c, 0, 55, 41
1, 420284, Note_on_c, 0, 43, 55
1, 420288, Control_c, 0, 64, 54
1, 420303, Control_c, 0, 64, 52
1, 420308, Note_off_c, 0, 72, 59
1, 420309, Note_off_c, 0, 55, 59
1, 420326, Control_c, 0, 64, 52
1, 420332, Note_off_c, 0, 50, 56
1, 420341, Control_c, 0, 64, 49
1, 420355, Control_c, 0, 64, 38
1, 420370, Control_c, 0, 64, 0
1, 420438, Note_on_c, 0, 72, 74
1, 420443, Note_on_c, 0, 57, 65
1, 420451, Note_on_c, 0, 66, 69
1, 420457, Note_on_c, 0, 50, 12
1, 420466, Note_off_c, 0, 72, 65
1, 420472, Note_off_c, 0, 57, 64
1, 420479, Note_on_c, 0, 78, 32
1, 420481, Note_off_c, 0, 50, 47
1, 420481, Note_off_c, 0, 66, 65
1, 420509, Note_off_c, 0, 43, 46
1, 420513, Note_off_c, 0, 78, 41
1, 420606, Note_on_c, 0, 72, 59
1, 420623, Note_on_c, 0, 43, 57
1, 420624, Note_on_c, 0, 65, 63
1, 420627, Note_on_c, 0, 50, 53
1, 420645, Note_on_c, 0, 55, 37
1, 420649, Note_off_c, 0, 65, 65
1, 420670, Note_off_c, 0, 50, 60
1, 420675, Note_off_c, 0, 72, 63
1, 420678, Note_off_c, 0, 55, 46
1, 420781, Note_on_c, 0, 57, 62
1, 420786, Note_on_c, 0, 72, 68
1, 420793, Note_on_c, 0, 64, 66
1, 420803, Note_on_c, 0, 50, 29
1, 420812, Note_off_c, 0, 57, 64
1, 420821, Note_off_c, 0, 64, 67
1, 420830, Note_off_c, 0, 72, 59
1, 420831, Note_off_c, 0, 50, 50
1, 420842, Note_off_c, 0, 43, 43
1, 420934, Control_c, 0, 64, 21
1, 420949, Control_c, 0, 64, 45
1, 420952, Note_on_c, 0, 71, 79
1, 420956, Note_on_c, 0, 50, 45
1, 420958, Note_on_c, 0, 43, 53
1, 420962, Note_on_c, 0, 63, 69
1, 420964, Control_c, 0, 64, 58
1, 420967, Note_on_c, 0, 75, 69
1, 420974, Note_on_c, 0, 55, 46
1, 420978, Control_c, 0, 64, 60
1, 421008, Note_off_c, 0, 55, 61
1, 421023, Control_c, 0, 64, 58
1, 421025, Note_off_c, 0, 63, 63
1, 421038, Control_c, 0, 64, 52
1, 421052, Control_c, 0, 64, 41
1, 421061, Note_off_c, 0, 75, 63
1, 421067, Control_c, 0, 64, 23
1, 421086, Note_off_c, 0, 71, 54
1, 421089, Control_c, 0, 64, 0
1, 421129, Note_on_c, 0, 57, 62
1, 421130, Note_on_c, 0, 67, 77
1, 421142, Note_on_c, 0, 62, 64
1, 421160, Note_off_c, 0, 57, 64
1, 421160, Note_off_c, 0, 67, 67
1, 421162, Note_off_c, 0, 62, 66
1, 421171, Note_off_c, 0, 50, 59
1, 421212, Note_off_c, 0, 43, 35
1, 421301, Note_on_c, 0, 67, 84
1, 421305, Note_on_c, 0, 50, 52
1, 421309, Note_on_c, 0, 63, 69
1, 421321, Note_on_c, 0, 43, 62
1, 421328, Note_on_c, 0, 55, 35
1, 421335, Note_off_c, 0, 63, 66
1, 421339, Note_off_c, 0, 67, 61
1, 421347, Note_on_c, 0, 75, 27
1, 421363, Note_off_c, 0, 55, 46
1, 421386, Note_off_c, 0, 75, 40
1, 421445, Note_off_c, 0, 50, 0
1, 421465, Note_on_c, 0, 67, 78
1, 421470, Note_on_c, 0, 50, 18
1, 421471, Note_on_c, 0, 57, 67
1, 421481, Note_on_c, 0, 64, 64
1, 421492, Note_on_c, 0, 76, 65
1, 421492, Note_off_c, 0, 67, 68
1, 421510, Note_off_c, 0, 64, 66
1, 421512, Note_off_c, 0, 57, 62
1, 421521, Note_off_c, 0, 76, 65
1, 421526, Note_off_c, 0, 50, 57
1, 421557, Note_off_c, 0, 43, 45
1, 421639, Note_on_c, 0, 72, 82
1, 421649, Note_on_c, 0, 50, 64
1, 421653, Note_on_c, 0, 43, 65
1, 421653, Note_on_c, 0, 55, 58
1, 421655, Note_on_c, 0, 65, 56
1, 421669, Note_off_c, 0, 72, 63
1, 421675, Note_off_c, 0, 65, 60
1, 421684, Note_off_c, 0, 55, 64
1, 421712, Control_c, 0, 64, 11
1, 421727, Control_c, 0, 64, 26
1, 421742, Control_c, 0, 64, 40
1, 421757, Control_c, 0, 64, 51
1, 421772, Control_c, 0, 64, 52
1, 421783, Note_off_c, 0, 50, 0
1, 421801, Control_c, 0, 64, 51
1, 421804, Note_on_c, 0, 50, 28
1, 421808, Note_on_c, 0, 57, 64
1, 421810, Note_on_c, 0, 72, 82
1, 421816, Note_on_c, 0, 66, 71
1, 421816, Control_c, 0, 64, 49
1, 421838, Control_c, 0, 64, 45
1, 421844, Note_on_c, 0, 78, 49
1, 421845, Note_off_c, 0, 57, 65
1, 421846, Note_off_c, 0, 66, 67
1, 421847, Note_off_c, 0, 72, 65
1, 421853, Control_c, 0, 64, 39
1, 421854, Note_off_c, 0, 50, 62
1, 421865, Note_off_c, 0, 43, 57
1, 421868, Control_c, 0, 64, 28
1, 421870, Note_off_c, 0, 78, 55
1, 421882, Control_c, 0, 64, 16
1, 421897, Control_c, 0, 64, 0
1, 421986, Note_on_c, 0, 72, 89
1, 421989, Note_on_c, 0, 50, 62
1, 421994, Note_on_c, 0, 55, 63
1, 421994, Note_on_c, 0, 79, 79
1, 421995, Note_on_c, 0, 67, 76
1, 422001, Note_on_c, 0, 43, 62
1, 422020, Note_off_c, 0, 67, 66
1, 422021, Note_off_c, 0, 55, 66
1, 422025, Note_off_c, 0, 79, 64
1, 422035, Note_off_c, 0, 72, 64
1, 422046, Note_off_c, 0, 50, 55
1, 422151, Note_on_c, 0, 72, 85
1, 422155, Note_on_c, 0, 57, 67
1, 422159, Note_on_c, 0, 50, 42
1, 422168, Note_on_c, 0, 66, 72
1, 422179, Note_on_c, 0, 78, 62
1, 422185, Note_off_c, 0, 57, 64
1, 422201, Note_off_c, 0, 66, 60
1, 422204, Note_off_c, 0, 50, 60
1, 422207, Note_off_c, 0, 78, 61
1, 422216, Note_off_c, 0, 72, 62
1, 422229, Note_off_c, 0, 43, 47
1, 422327, Note_on_c, 0, 71, 91
1, 422329, Note_on_c, 0, 43, 65
1, 422335, Note_on_c, 0, 50, 58
1, 422335, Note_on_c, 0, 55, 64
1, 422339, Note_on_c, 0, 77, 85
1, 422342, Control_c, 0, 64, 19
1, 422343, Note_on_c, 0, 65, 77
1, 422357, Control_c, 0, 64, 45
1, 422372, Control_c, 0, 64, 55
1, 422374, Note_off_c, 0, 65, 64
1, 422385, Note_off_c, 0, 55, 60
1, 422387, Control_c, 0, 64, 55
1, 422406, Note_off_c, 0, 77, 63
1, 422416, Control_c, 0, 64, 55
1, 422431, Control_c, 0, 64, 51
1, 422446, Control_c, 0, 64, 42
1, 422461, Control_c, 0, 64, 18
1, 422475, Control_c, 0, 64, 0
1, 422493, Note_on_c, 0, 57, 66
1, 422502, Note_on_c, 0, 64, 75
1, 422524, Note_off_c, 0, 57, 64
1, 422535, Note_off_c, 0, 64, 60
1, 422556, Note_off_c, 0, 50, 58
1, 422576, Note_off_c, 0, 43, 53
1, 422660, Note_off_c, 0, 71, 60
1, 422675, Note_on_c, 0, 75, 73
1, 422677, Note_on_c, 0, 63, 84
1, 422682, Note_on_c, 0, 74, 73
1, 422693, Note_on_c, 0, 50, 67
1, 422696, Note_on_c, 0, 43, 67
1, 422697, Note_on_c, 0, 55, 61
1, 422706, Note_off_c, 0, 74, 67
1, 422724, Note_off_c, 0, 63, 56
1, 422725, Note_off_c, 0, 55, 65
1, 422736, Note_off_c, 0, 50, 58
1, 422751, Note_off_c, 0, 75, 51
1, 422837, Note_on_c, 0, 71, 75
1, 422848, Note_on_c, 0, 62, 79
1, 422856, Note_on_c, 0, 57, 63
1, 422871, Note_on_c, 0, 50, 27
1, 422874, Note_off_c, 0, 62, 67
1, 422883, Note_off_c, 0, 57, 65
1, 422887, Note_off_c, 0, 71, 65
1, 422897, Note_off_c, 0, 50, 45
1, 422918, Note_off_c, 0, 43, 44
1, 423014, Note_on_c, 0, 69, 85
1, 423021, Note_on_c, 0, 63, 75
1, 423021, Note_on_c, 0, 50, 59
1, 423025, Note_on_c, 0, 43, 62
1, 423030, Note_on_c, 0, 75, 68
1, 423032, Note_on_c, 0, 55, 62
1, 423040, Note_off_c, 0, 69, 68
1, 423046, Note_off_c, 0, 63, 66
1, 423064, Note_off_c, 0, 75, 60
1, 423065, Note_off_c, 0, 55, 60
1, 423118, Note_off_c, 0, 50, 36
1, 423188, Note_on_c, 0, 57, 65
1, 423188, Note_on_c, 0, 69, 91
1, 423191, Note_on_c, 0, 50, 33
1, 423196, Note_on_c, 0, 76, 84
1, 423199, Note_on_c, 0, 64, 71
1, 423216, Note_off_c, 0, 57, 65
1, 423228, Note_off_c, 0, 50, 57
1, 423229, Note_off_c, 0, 64, 66
1, 423232, Note_off_c, 0, 69, 64
1, 423251, Note_off_c, 0, 76, 63
1, 423268, Note_off_c, 0, 43, 47
1, 423360, Note_on_c, 0, 69, 90
1, 423367, Note_on_c, 0, 55, 73
1, 423368, Note_on_c, 0, 43, 69
1, 423368, Note_on_c, 0, 50, 61
1, 423368, Note_on_c, 0, 77, 84
1, 423369, Note_on_c, 0, 65, 83
1, 423396, Note_off_c, 0, 65, 66
1, 423400, Note_off_c, 0, 55, 65
1, 423413, Note_off_c, 0, 69, 65
1, 423414, Note_off_c, 0, 50, 59
1, 423440, Note_off_c, 0, 77, 60
1, 423475, Note_off_c, 0, 43, 55
1, 423526, Note_on_c, 0, 57, 76
1, 423528, Note_on_c, 0, 69, 80
1, 423529, Note_on_c, 0, 50, 56
1, 423539, Note_on_c, 0, 65, 68
1, 423542, Note_on_c, 0, 77, 72
1, 423551, Note_on_c, 0, 67, 59
1, 423557, Note_off_c, 0, 69, 67
1, 423563, Note_off_c, 0, 57, 62
1, 423563, Note_on_c, 0, 70, 37
1, 423564, Note_off_c, 0, 70, 127
1, 423566, Note_off_c, 0, 65, 65
1, 423571, Note_off_c, 0, 67, 61
1, 423579, Note_off_c, 0, 50, 60
1, 423579, Note_off_c, 0, 77, 60
1, 423614, Poly_aftertouch_c, 0, 43, 0
1, 423694, Note_on_c, 0, 71, 90
1, 423701, Note_on_c, 0, 50, 64
1, 423701, Note_on_c, 0, 55, 70
1, 423708, Note_on_c, 0, 43, 74
1, 423710, Note_on_c, 0, 67, 42
1, 423736, Note_off_c, 0, 55, 65
1, 423738, Note_off_c, 0, 71, 66
1, 423741, Note_off_c, 0, 67, 51
1, 423763, Note_off_c, 0, 50, 50
1, 423861, Note_on_c, 0, 57, 70
1, 423861, Note_on_c, 0, 71, 80
1, 423864, Note_on_c, 0, 66, 82
1, 423867, Note_on_c, 0, 50, 42
1, 423873, Note_on_c, 0, 78, 72
1, 423885, Note_on_c, 0, 72, 48
1, 423886, Note_off_c, 0, 72, 127
1, 423891, Note_off_c, 0, 66, 67
1, 423894, Note_off_c, 0, 57, 66
1, 423900, Note_off_c, 0, 78, 64
1, 423909, Note_off_c, 0, 50, 62
1, 423912, Note_off_c, 0, 71, 62
1, 423933, Note_off_c, 0, 43, 47
1, 424033, Note_on_c, 0, 43, 66
1, 424036, Note_on_c, 0, 74, 67
1, 424037, Note_on_c, 0, 50, 59
1, 424037, Note_on_c, 0, 65, 81
1, 424039, Note_on_c, 0, 55, 72
1, 424040, Note_on_c, 0, 72, 77
1, 424044, Note_on_c, 0, 77, 78
1, 424053, Note_off_c, 0, 74, 40
1, 424070, Note_off_c, 0, 65, 64
1, 424079, Note_off_c, 0, 77, 65
1, 424087, Note_off_c, 0, 72, 63
1, 424088, Note_off_c, 0, 55, 59
1, 424199, Note_on_c, 0, 57, 71
1, 424204, Note_on_c, 0, 64, 77
1, 424204, Note_on_c, 0, 71, 82
1, 424216, Note_on_c, 0, 76, 64
1, 424230, Note_off_c, 0, 64, 66
1, 424234, Note_off_c, 0, 76, 64
1, 424240, Note_off_c, 0, 57, 59
1, 424246, Note_off_c, 0, 71, 55
1, 424259, Note_off_c, 0, 50, 61
1, 424302, Note_off_c, 0, 43, 46
1, 424365, Note_on_c, 0, 69, 91
1, 424365, Control_c, 0, 64, 12
1, 424370, Note_on_c, 0, 63, 81
1, 424378, Note_on_c, 0, 55, 72
1, 424380, Note_on_c, 0, 50, 68
1, 424380, Control_c, 0, 64, 0
1, 424385, Note_on_c, 0, 43, 71
1, 424386, Note_on_c, 0, 75, 69
1, 424411, Note_off_c, 0, 63, 60
1, 424415, Note_off_c, 0, 75, 62
1, 424426, Note_off_c, 0, 55, 57
1, 424428, Note_off_c, 0, 69, 62
1, 424528, Note_on_c, 0, 69, 91
1, 424531, Note_on_c, 0, 57, 74
1, 424538, Note_on_c, 0, 74, 77
1, 424538, Note_on_c, 0, 62, 74
1, 424562, Note_off_c, 0, 62, 68
1, 424563, Note_off_c, 0, 74, 66
1, 424574, Note_off_c, 0, 57, 58
1, 424585, Note_off_c, 0, 69, 62
1, 424606, Note_off_c, 0, 50, 54
1, 424615, Note_off_c, 0, 43, 53
1, 424696, Note_on_c, 0, 69, 88
1, 424699, Note_on_c, 0, 63, 87
1, 424703, Note_on_c, 0, 55, 81
1, 424703, Note_on_c, 0, 75, 87
1, 424706, Note_on_c, 0, 43, 74
1, 424706, Note_on_c, 0, 50, 68
1, 424749, Note_off_c, 0, 63, 63
1, 424763, Note_off_c, 0, 75, 65
1, 424763, Note_off_c, 0, 55, 62
1, 424772, Note_off_c, 0, 69, 63
1, 424865, Note_off_c, 0, 50, 0
1, 424865, Note_on_c, 0, 50, 25
1, 424875, Note_on_c, 0, 57, 84
1, 424878, Note_on_c, 0, 69, 89
1, 424881, Note_on_c, 0, 64, 77
1, 424881, Note_on_c, 0, 68, 74
1, 424881, Note_on_c, 0, 76, 84
1, 424907, Note_off_c, 0, 68, 68
1, 424910, Note_off_c, 0, 64, 67
1, 424931, Note_off_c, 0, 69, 67
1, 424931, Note_off_c, 0, 76, 65
1, 424931, Note_off_c, 0, 57, 63
1, 424958, Note_off_c, 0, 43, 50
1, 424959, Note_off_c, 0, 50, 56
1, 425035, Note_on_c, 0, 71, 99
1, 425040, Control_c, 0, 64, 37
1, 425042, Note_on_c, 0, 77, 96
1, 425045, Note_on_c, 0, 55, 86
1, 425045, Note_on_c, 0, 65, 84
1, 425048, Note_on_c, 0, 50, 73
1, 425050, Note_on_c, 0, 43, 79
1, 425055, Control_c, 0, 64, 58
1, 425069, Control_c, 0, 64, 63
1, 425084, Control_c, 0, 64, 67
1, 425092, Note_off_c, 0, 65, 59
1, 425099, Control_c, 0, 64, 75
1, 425102, Note_off_c, 0, 55, 63
1, 425114, Control_c, 0, 64, 89
1, 425129, Control_c, 0, 64, 115
1, 425132, Note_off_c, 0, 77, 63
1, 425143, Control_c, 0, 64, 127
1, 425152, Note_off_c, 0, 50, 58
1, 425158, Note_off_c, 0, 43, 37
1, 425192, Note_on_c, 0, 57, 87
1, 425200, Note_on_c, 0, 50, 48
1, 425209, Note_on_c, 0, 64, 90
1, 425220, Note_on_c, 0, 43, 47
1, 425220, Note_off_c, 0, 57, 67
1, 425227, Note_on_c, 0, 76, 65
1, 425232, Note_off_c, 0, 50, 66
1, 425245, Note_off_c, 0, 76, 65
1, 425248, Note_off_c, 0, 64, 65
1, 425251, Note_off_c, 0, 43, 65
1, 425261, Note_off_c, 0, 71, 64
1, 425292, Control_c, 0, 64, 85
1, 425307, Control_c, 0, 64, 53
1, 425322, Control_c, 0, 64, 0
1, 425372, Note_on_c, 0, 38, 99
1, 425374, Note_on_c, 0, 79, 101
1, 425379, Note_on_c, 0, 65, 96
1, 425380, Note_on_c, 0, 31, 89
1, 425381, Control_c, 0, 64, 59
1, 425393, Note_on_c, 0, 67, 80
1, 425393, Note_on_c, 0, 77, 78
1, 425396, Control_c, 0, 64, 87
1, 425399, Note_on_c, 0, 73, 53
1, 425402, Note_off_c, 0, 65, 70
1, 425408, Note_off_c, 0, 77, 70
1, 425410, Note_off_c, 0, 67, 66
1, 425411, Control_c, 0, 64, 127
1, 425415, Note_on_c, 0, 43, 20
1, 425420, Note_off_c, 0, 73, 67
1, 425431, Note_off_c, 0, 79, 67
1, 425438, Note_off_c, 0, 31, 64
1, 425444, Note_off_c, 0, 38, 65
1, 425472, Note_off_c, 0, 43, 56
1, 425481, Poly_aftertouch_c, 0, 78, 0
1, 425540, Note_on_c, 0, 79, 95
1, 425542, Note_on_c, 0, 66, 92
1, 425545, Note_on_c, 0, 57, 94
1, 425568, Note_off_c, 0, 66, 70
1, 425576, Note_on_c, 0, 78, 53
1, 425577, Note_off_c, 0, 78, 127
1, 425582, Note_on_c, 0, 43, 72
1, 425587, Note_off_c, 0, 57, 65
1, 425589, Note_off_c, 0, 79, 67
1, 425596, Note_on_c, 0, 45, 44
1, 425609, Note_off_c, 0, 43, 64
1, 425628, Note_off_c, 0, 45, 51
1, 425671, Control_c, 0, 64, 99
1, 425685, Control_c, 0, 64, 51
1, 425700, Control_c, 0, 64, 0
1, 425705, Note_on_c, 0, 38, 102
1, 425711, Note_on_c, 0, 84, 98
1, 425712, Note_on_c, 0, 31, 92
1, 425712, Note_on_c, 0, 72, 95
1, 425712, Note_on_c, 0, 75, 90
1, 425715, Control_c, 0, 64, 37
1, 425730, Control_c, 0, 64, 84
1, 425736, Note_on_c, 0, 79, 46
1, 425745, Control_c, 0, 64, 127
1, 425766, Note_off_c, 0, 79, 56
1, 425769, Note_off_c, 0, 31, 64
1, 425769, Note_off_c, 0, 38, 63
1, 425775, Note_on_c, 0, 43, 90
1, 425787, Note_off_c, 0, 72, 62
1, 425798, Note_off_c, 0, 75, 65
1, 425805, Note_off_c, 0, 84, 62
1, 425816, Note_off_c, 0, 43, 65
1, 425876, Note_on_c, 0, 84, 95
1, 425879, Note_on_c, 0, 72, 95
1, 425880, Note_on_c, 0, 78, 89
1, 425883, Note_on_c, 0, 74, 78
1, 425905, Note_on_c, 0, 57, 80
1, 425906, Note_on_c, 0, 55, 84
1, 425913, Note_on_c, 0, 43, 86
1, 425929, Note_off_c, 0, 55, 68
1, 425930, Note_off_c, 0, 57, 66
1, 425945, Note_off_c, 0, 43, 68
1, 425951, Note_off_c, 0, 78, 62
1, 425957, Note_off_c, 0, 74, 65
1, 425957, Note_off_c, 0, 72, 61
1, 425977, Note_off_c, 0, 84, 67
1, 426037, Note_on_c, 0, 38, 99
1, 426040, Control_c, 0, 64, 109
1, 426044, Note_on_c, 0, 31, 87
1, 426051, Note_on_c, 0, 84, 97
1, 426052, Note_on_c, 0, 73, 87
1, 426052, Note_on_c, 0, 83, 87
1, 426055, Control_c, 0, 64, 127
1, 426056, Note_on_c, 0, 72, 84
1, 426062, Note_on_c, 0, 71, 83
1, 426085, Note_off_c, 0, 38, 64
1, 426103, Note_off_c, 0, 31, 63
1, 426108, Note_on_c, 0, 43, 96
1, 426109, Note_off_c, 0, 71, 57
1, 426120, Note_off_c, 0, 72, 63
1, 426146, Note_off_c, 0, 83, 67
1, 426147, Note_off_c, 0, 84, 66
1, 426152, Note_off_c, 0, 73, 63
1, 426153, Note_off_c, 0, 43, 64
1, 426216, Note_on_c, 0, 72, 106
1, 426217, Note_on_c, 0, 84, 98
1, 426222, Note_on_c, 0, 74, 81
1, 426228, Note_on_c, 0, 57, 96
1, 426228, Note_on_c, 0, 77, 61
1, 426240, Note_on_c, 0, 76, 63
1, 426242, Note_on_c, 0, 43, 87
1, 426258, Note_off_c, 0, 77, 67
1, 426258, Note_off_c, 0, 76, 63
1, 426260, Note_off_c, 0, 57, 63
1, 426276, Note_off_c, 0, 43, 63
1, 426285, Note_off_c, 0, 74, 66
1, 426302, Note_off_c, 0, 84, 64
1, 426302, Note_off_c, 0, 72, 62
1, 426329, Poly_aftertouch_c, 0, 83, 0
1, 426360, Control_c, 0, 64, 108
1, 426375, Control_c, 0, 64, 62
1, 426383, Note_on_c, 0, 38, 90
1, 426390, Control_c, 0, 64, 24
1, 426395, Note_on_c, 0, 31, 81
1, 426395, Note_on_c, 0, 71, 95
1, 426396, Note_on_c, 0, 75, 95
1, 426396, Note_on_c, 0, 83, 106
1, 426404, Control_c, 0, 64, 51
1, 426419, Control_c, 0, 64, 85
1, 426434, Control_c, 0, 64, 127
1, 426438, Note_off_c, 0, 38, 64
1, 426439, Note_off_c, 0, 31, 55
1, 426454, Note_on_c, 0, 43, 85
1, 426470, Note_off_c, 0, 83, 67
1, 426479, Note_off_c, 0, 71, 64
1, 426482, Note_off_c, 0, 75, 66
1, 426484, Note_off_c, 0, 43, 65
1, 426490, Note_on_c, 0, 45, 51
1, 426515, Note_off_c, 0, 45, 56
1, 426557, Note_on_c, 0, 79, 94
1, 426560, Note_on_c, 0, 74, 91
1, 426561, Note_on_c, 0, 57, 89
1, 426561, Note_on_c, 0, 67, 92
1, 426565, Note_on_c, 0, 76, 83
1, 426571, Note_on_c, 0, 43, 69
1, 426585, Note_off_c, 0, 57, 69
1, 426592, Note_off_c, 0, 76, 64
1, 426615, Note_off_c, 0, 43, 64
1, 426626, Note_off_c, 0, 67, 55
1, 426645, Note_off_c, 0, 74, 64
1, 426648, Note_off_c, 0, 79, 65
1, 426663, Poly_aftertouch_c, 0, 55, 0
1, 426681, Poly_aftertouch_c, 0, 55, 0
1, 426701, Control_c, 0, 64, 100
1, 426710, Note_on_c, 0, 38, 91
1, 426714, Note_on_c, 0, 31, 87
1, 426715, Control_c, 0, 64, 70
1, 426729, Note_on_c, 0, 75, 96
1, 426729, Note_on_c, 0, 79, 100
1, 426730, Control_c, 0, 64, 68
1, 426731, Note_on_c, 0, 67, 95
1, 426745, Control_c, 0, 64, 86
1, 426749, Note_on_c, 0, 37, 12
1, 426760, Control_c, 0, 64, 127
1, 426773, Note_off_c, 0, 38, 63
1, 426782, Note_on_c, 0, 43, 94
1, 426782, Note_off_c, 0, 31, 63
1, 426786, Note_off_c, 0, 67, 61
1, 426794, Note_off_c, 0, 37, 56
1, 426803, Note_off_c, 0, 79, 65
1, 426809, Note_off_c, 0, 75, 66
1, 426813, Note_off_c, 0, 43, 66
1, 426884, Note_on_c, 0, 67, 92
1, 426884, Note_on_c, 0, 79, 99
1, 426891, Note_on_c, 0, 74, 80
1, 426893, Note_on_c, 0, 76, 76
1, 426896, Note_on_c, 0, 59, 88
1, 426900, Note_on_c, 0, 57, 89
1, 426905, Note_on_c, 0, 45, 86
1, 426917, Note_off_c, 0, 67, 60
1, 426917, Note_off_c, 0, 76, 67
1, 426918, Note_off_c, 0, 59, 71
1, 426930, Note_off_c, 0, 57, 66
1, 426936, Note_off_c, 0, 79, 64
1, 426940, Note_off_c, 0, 74, 62
1, 426951, Note_off_c, 0, 45, 66
1, 427001, Poly_aftertouch_c, 0, 69, 0
1, 427027, Control_c, 0, 64, 67
1, 427039, Note_on_c, 0, 38, 98
1, 427042, Control_c, 0, 64, 48
1, 427046, Note_on_c, 0, 31, 85
1, 427050, Poly_aftertouch_c, 0, 76, 0
1, 427052, Note_on_c, 0, 73, 92
1, 427053, Note_on_c, 0, 72, 97
1, 427053, Note_on_c, 0, 84, 101
1, 427054, Poly_aftertouch_c, 0, 59, 0
1, 427057, Control_c, 0, 64, 60
1, 427068, Note_on_c, 0, 77, 72
1, 427080, Control_c, 0, 64, 106
1, 427085, Note_off_c, 0, 77, 69
1, 427094, Control_c, 0, 64, 127
1, 427115, Note_on_c, 0, 43, 102
1, 427116, Note_off_c, 0, 38, 61
1, 427120, Note_off_c, 0, 31, 61
1, 427124, Note_off_c, 0, 73, 66
1, 427142, Note_off_c, 0, 72, 63
1, 427150, Note_off_c, 0, 43, 68
1, 427163, Note_on_c, 0, 74, 39
1, 427164, Note_off_c, 0, 84, 66
1, 427192, Note_off_c, 0, 74, 0
1, 427213, Note_on_c, 0, 74, 60
1, 427221, Note_on_c, 0, 72, 105
1, 427224, Note_on_c, 0, 78, 86
1, 427225, Note_on_c, 0, 84, 92
1, 427236, Note_on_c, 0, 57, 91
1, 427244, Note_on_c, 0, 83, 70
1, 427247, Note_on_c, 0, 45, 84
1, 427264, Note_off_c, 0, 83, 39
1, 427266, Note_off_c, 0, 74, 65
1, 427267, Note_off_c, 0, 57, 67
1, 427282, Note_off_c, 0, 78, 63
1, 427285, Note_off_c, 0, 45, 63
1, 427290, Note_off_c, 0, 72, 61
1, 427313, Note_off_c, 0, 84, 66
1, 427371, Note_on_c, 0, 38, 97
1, 427378, Note_on_c, 0, 31, 84
1, 427382, Note_on_c, 0, 84, 94
1, 427384, Note_on_c, 0, 72, 103
1, 427384, Note_on_c, 0, 75, 87
1, 427399, Note_on_c, 0, 79, 69
1, 427420, Note_off_c, 0, 38, 63
1, 427421, Note_off_c, 0, 79, 68
1, 427423, Note_on_c, 0, 82, 50
1, 427426, Note_off_c, 0, 31, 64
1, 427443, Note_on_c, 0, 43, 91
1, 427447, Note_off_c, 0, 82, 62
1, 427465, Note_off_c, 0, 72, 63
1, 427470, Note_off_c, 0, 43, 68
1, 427489, Note_off_c, 0, 84, 66
1, 427495, Note_off_c, 0, 75, 64
1, 427551, Note_on_c, 0, 72, 102
1, 427552, Note_on_c, 0, 84, 99
1, 427554, Note_on_c, 0, 59, 104
1, 427555, Note_on_c, 0, 78, 92
1, 427574, Note_on_c, 0, 76, 59
1, 427575, Note_on_c, 0, 75, 43
1, 427587, Note_on_c, 0, 45, 71
1, 427591, Note_off_c, 0, 59, 67
1, 427595, Note_off_c, 0, 76, 61
1, 427603, Note_off_c, 0, 75, 51
1, 427613, Note_off_c, 0, 45, 68
1, 427632, Note_off_c, 0, 72, 62
1, 427634, Note_off_c, 0, 84, 64
1, 427662, Note_off_c, 0, 78, 62
1, 427668, Poly_aftertouch_c, 0, 47, 0
1, 427701, Control_c, 0, 64, 73
1, 427716, Control_c, 0, 64, 28
1, 427718, Note_on_c, 0, 38, 95
1, 427721, Note_on_c, 0, 31, 84
1, 427724, Note_on_c, 0, 83, 103
1, 427727, Note_on_c, 0, 77, 92
1, 427727, Note_on_c, 0, 71, 106
1, 427731, Control_c, 0, 64, 0
1, 427745, Control_c, 0, 64, 21
1, 427748, Note_on_c, 0, 72, 56
1, 427749, Note_off_c, 0, 72, 127
1, 427760, Control_c, 0, 64, 65
1, 427769, Note_off_c, 0, 38, 65
1, 427769, Note_off_c, 0, 31, 64
1, 427775, Control_c, 0, 64, 127
1, 427778, Note_on_c, 0, 43, 93
1, 427819, Note_off_c, 0, 43, 65
1, 427846, Note_off_c, 0, 77, 62
1, 427890, Note_on_c, 0, 59, 104
1, 427894, Note_on_c, 0, 78, 71
1, 427904, Note_off_c, 0, 83, 68
1, 427906, Note_on_c, 0, 79, 84
1, 427912, Note_off_c, 0, 71, 64
1, 427924, Note_on_c, 0, 45, 73
1, 427926, Note_off_c, 0, 59, 68
1, 427939, Note_on_c, 0, 47, 52
1, 427957, Note_off_c, 0, 79, 64
1, 427957, Note_off_c, 0, 45, 66
1, 427966, Note_off_c, 0, 47, 59
1, 427996, Note_off_c, 0, 78, 33
1, 428046, Note_on_c, 0, 38, 101
1, 428047, Note_on_c, 0, 31, 97
1, 428049, Note_on_c, 0, 86, 100
1, 428056, Note_on_c, 0, 75, 91
1, 428058, Note_on_c, 0, 74, 95
1, 428070, Note_on_c, 0, 79, 64
1, 428086, Note_off_c, 0, 38, 66
1, 428087, Note_off_c, 0, 79, 67
1, 428094, Note_off_c, 0, 31, 63
1, 428106, Note_on_c, 0, 43, 102
1, 428127, Note_off_c, 0, 86, 65
1, 428133, Note_off_c, 0, 43, 68
1, 428140, Note_off_c, 0, 74, 65
1, 428166, Note_off_c, 0, 75, 64
1, 428217, Note_on_c, 0, 75, 68
1, 428223, Note_on_c, 0, 83, 96
1, 428225, Note_on_c, 0, 57, 85
1, 428226, Note_on_c, 0, 71, 90
1, 428231, Note_on_c, 0, 78, 86
1, 428246, Note_on_c, 0, 45, 72
1, 428261, Note_off_c, 0, 57, 64
1, 428283, Note_off_c, 0, 45, 66
1, 428284, Note_off_c, 0, 75, 66
1, 428292, Note_off_c, 0, 71, 63
1, 428305, Note_off_c, 0, 83, 63
1, 428324, Poly_aftertouch_c, 0, 59, 0
1, 428329, Note_off_c, 0, 78, 62
1, 428347, Control_c, 0, 64, 85
1, 428361, Control_c, 0, 64, 54
1, 428376, Control_c, 0, 64, 0
1, 428379, Note_on_c, 0, 31, 92
1, 428380, Note_on_c, 0, 38, 98
1, 428383, Note_on_c, 0, 81, 97
1, 428390, Note_on_c, 0, 75, 94
1, 428391, Control_c, 0, 64, 10
1, 428392, Note_on_c, 0, 69, 98
1, 428393, Note_on_c, 0, 79, 72
1, 428406, Control_c, 0, 64, 60
1, 428421, Control_c, 0, 64, 127
1, 428425, Note_off_c, 0, 38, 63
1, 428430, Note_off_c, 0, 31, 64
1, 428444, Note_on_c, 0, 43, 92
1, 428449, Note_on_c, 0, 45, 84
1, 428473, Note_off_c, 0, 43, 68
1, 428473, Note_off_c, 0, 45, 67
1, 428474, Note_off_c, 0, 69, 64
1, 428500, Note_off_c, 0, 79, 64
1, 428508, Note_off_c, 0, 75, 64
1, 428508, Note_off_c, 0, 81, 62
1, 428553, Note_on_c, 0, 59, 102
1, 428555, Note_on_c, 0, 81, 87
1, 428565, Note_on_c, 0, 76, 83
1, 428568, Note_on_c, 0, 69, 89
1, 428568, Note_on_c, 0, 78, 83
1, 428592, Note_on_c, 0, 47, 62
1, 428594, Note_on_c, 0, 45, 60
1, 428595, Note_off_c, 0, 59, 65
1, 428620, Note_off_c, 0, 47, 56
1, 428627, Note_off_c, 0, 45, 66
1, 428631, Note_off_c, 0, 69, 64
1, 428648, Note_off_c, 0, 76, 63
1, 428656, Note_off_c, 0, 81, 63
1, 428665, Note_off_c, 0, 78, 63
1, 428712, Note_on_c, 0, 31, 97
1, 428717, Note_on_c, 0, 38, 90
1, 428726, Note_on_c, 0, 81, 85
1, 428729, Note_on_c, 0, 77, 91
1, 428735, Note_on_c, 0, 69, 87
1, 428742, Note_on_c, 0, 76, 72
1, 428759, Note_off_c, 0, 38, 62
1, 428763, Note_off_c, 0, 31, 63
1, 428768, Note_on_c, 0, 79, 38
1, 428780, Note_on_c, 0, 45, 97
1, 428798, Note_on_c, 0, 43, 52
1, 428800, Note_off_c, 0, 79, 34
1, 428802, Note_off_c, 0, 69, 62
1, 428809, Note_off_c, 0, 45, 66
1, 428821, Note_off_c, 0, 81, 61
1, 428822, Note_off_c, 0, 43, 64
1, 428822, Note_off_c, 0, 77, 67
1, 428826, Note_off_c, 0, 76, 63
1, 428889, Note_on_c, 0, 59, 98
1, 428895, Note_on_c, 0, 81, 99
1, 428900, Note_on_c, 0, 69, 92
1, 428904, Note_on_c, 0, 77, 88
1, 428908, Note_on_c, 0, 75, 74
1, 428914, Note_on_c, 0, 47, 82
1, 428923, Note_off_c, 0, 59, 66
1, 428935, Note_off_c, 0, 75, 67
1, 428954, Note_off_c, 0, 47, 66
1, 428970, Note_off_c, 0, 69, 63
1, 428988, Note_off_c, 0, 81, 63
1, 429004, Note_off_c, 0, 77, 66
1, 429021, Control_c, 0, 64, 79
1, 429036, Control_c, 0, 64, 44
1, 429051, Note_on_c, 0, 38, 89
1, 429051, Control_c, 0, 64, 0
1, 429055, Note_on_c, 0, 31, 82
1, 429066, Note_on_c, 0, 75, 73
1, 429069, Note_on_c, 0, 83, 91
1, 429071, Note_on_c, 0, 79, 85
1, 429076, Note_on_c, 0, 71, 79
1, 429076, Note_on_c, 0, 81, 83
1, 429077, Note_on_c, 0, 69, 81
1, 429081, Control_c, 0, 64, 47
1, 429091, Note_off_c, 0, 38, 62
1, 429096, Note_on_c, 0, 43, 90
1, 429096, Control_c, 0, 64, 81
1, 429099, Note_off_c, 0, 31, 52
1, 429110, Control_c, 0, 64, 127
1, 429137, Note_off_c, 0, 43, 64
1, 429146, Note_off_c, 0, 69, 64
1, 429146, Note_off_c, 0, 71, 61
1, 429167, Note_off_c, 0, 83, 62
1, 429168, Note_off_c, 0, 81, 59
1, 429173, Note_off_c, 0, 79, 66
1, 429183, Note_off_c, 0, 75, 64
1, 429223, Note_on_c, 0, 59, 84
1, 429227, Note_on_c, 0, 78, 94
1, 429232, Note_on_c, 0, 71, 91
1, 429234, Note_on_c, 0, 83, 89
1, 429237, Note_on_c, 0, 45, 80
1, 429245, Note_on_c, 0, 57, 66
1, 429249, Note_off_c, 0, 59, 70
1, 429259, Note_on_c, 0, 81, 58
1, 429266, Note_off_c, 0, 57, 64
1, 429275, Note_off_c, 0, 71, 65
1, 429281, Note_off_c, 0, 81, 39
1, 429283, Note_off_c, 0, 45, 64
1, 429293, Note_off_c, 0, 78, 64
1, 429313, Note_off_c, 0, 83, 60
1, 429348, Poly_aftertouch_c, 0, 47, 0
1, 429367, Note_on_c, 0, 77, 16
1, 429389, Note_on_c, 0, 38, 92
1, 429394, Note_on_c, 0, 31, 81
1, 429401, Note_off_c, 0, 77, 0
1, 429401, Note_on_c, 0, 77, 17
1, 429405, Note_on_c, 0, 86, 104
1, 429408, Note_on_c, 0, 74, 100
1, 429423, Note_off_c, 0, 38, 63
1, 429431, Note_on_c, 0, 76, 55
1, 429432, Note_off_c, 0, 76, 127
1, 429436, Note_off_c, 0, 31, 60
1, 429437, Note_on_c, 0, 43, 95
1, 429478, Note_off_c, 0, 43, 66
1, 429483, Note_off_c, 0, 86, 65
1, 429488, Note_off_c, 0, 74, 64
1, 429519, Note_off_c, 0, 77, 59
1, 429520, Poly_aftertouch_c, 0, 80, 0
1, 429560, Note_on_c, 0, 57, 88
1, 429570, Note_on_c, 0, 83, 94
1, 429572, Note_on_c, 0, 78, 89
1, 429573, Note_on_c, 0, 71, 105
1, 429573, Note_on_c, 0, 45, 86
1, 429590, Note_off_c, 0, 57, 66
1, 429616, Note_off_c, 0, 45, 63
1, 429632, Note_off_c, 0, 71, 58
1, 429656, Note_off_c, 0, 83, 62
1, 429671, Poly_aftertouch_c, 0, 76, 0
1, 429680, Note_off_c, 0, 78, 63
1, 429697, Control_c, 0, 64, 81
1, 429712, Control_c, 0, 64, 16
1, 429719, Note_on_c, 0, 38, 91
1, 429720, Note_on_c, 0, 31, 80
1, 429727, Control_c, 0, 64, 0
1, 429730, Note_on_c, 0, 81, 95
1, 429736, Note_on_c, 0, 75, 94
1, 429738, Note_on_c, 0, 69, 97
1, 429741, Control_c, 0, 64, 47
1, 429742, Note_on_c, 0, 79, 89
1, 429756, Control_c, 0, 64, 78
1, 429759, Note_off_c, 0, 38, 66
1, 429766, Note_off_c, 0, 31, 65
1, 429770, Note_on_c, 0, 43, 97
1, 429771, Control_c, 0, 64, 127
1, 429805, Note_off_c, 0, 43, 65
1, 429823, Note_off_c, 0, 69, 66
1, 429850, Note_off_c, 0, 75, 64
1, 429854, Note_off_c, 0, 81, 59
1, 429855, Note_off_c, 0, 79, 63
1, 429883, Note_on_c, 0, 59, 90
1, 429898, Note_on_c, 0, 81, 70
1, 429902, Note_on_c, 0, 69, 94
1, 429903, Note_on_c, 0, 78, 87
1, 429903, Note_on_c, 0, 79, 69
1, 429909, Note_on_c, 0, 76, 68
1, 429914, Note_on_c, 0, 47, 60
1, 429918, Note_off_c, 0, 59, 67
1, 429924, Note_on_c, 0, 45, 62
1, 429928, Note_on_c, 0, 75, 63
1, 429930, Note_on_c, 0, 57, 31
1, 429942, Note_off_c, 0, 47, 67
1, 429946, Note_off_c, 0, 75, 66
1, 429948, Note_off_c, 0, 45, 60
1, 429954, Note_off_c, 0, 76, 61
1, 429966, Note_off_c, 0, 57, 54
1, 429967, Note_off_c, 0, 69, 64
1, 429984, Note_off_c, 0, 79, 63
1, 429990, Note_off_c, 0, 81, 63
1, 429994, Note_off_c, 0, 78, 63
1, 430038, Note_on_c, 0, 38, 90
1, 430044, Note_on_c, 0, 31, 79
1, 430049, Note_on_c, 0, 29, 72
1, 430061, Note_on_c, 0, 81, 87
1, 430061, Note_on_c, 0, 76, 90
1, 430063, Note_on_c, 0, 77, 93
1, 430064, Note_on_c, 0, 69, 95
1, 430082, Note_off_c, 0, 29, 64
1, 430085, Note_off_c, 0, 38, 64
1, 430085, Note_off_c, 0, 31, 63
1, 430107, Note_on_c, 0, 71, 28
1, 430118, Note_on_c, 0, 47, 94
1, 430130, Note_off_c, 0, 69, 64
1, 430142, Note_off_c, 0, 71, 43
1, 430144, Note_off_c, 0, 47, 70
1, 430148, Note_off_c, 0, 81, 62
1, 430155, Note_off_c, 0, 76, 62
1, 430157, Note_off_c, 0, 77, 64
1, 430214, Note_on_c, 0, 57, 66
1, 430221, Note_on_c, 0, 69, 96
1, 430225, Note_on_c, 0, 77, 79
1, 430225, Note_on_c, 0, 81, 85
1, 430231, Note_on_c, 0, 75, 77
1, 430238, Note_off_c, 0, 57, 41
1, 430273, Note_off_c, 0, 69, 65
1, 430277, Note_off_c, 0, 75, 50
1, 430282, Note_off_c, 0, 77, 64
1, 430286, Note_off_c, 0, 81, 59
1, 430399, Note_on_c, 0, 83, 97
1, 430401, Control_c, 0, 64, 69
1, 430405, Note_on_c, 0, 31, 70
1, 430406, Note_on_c, 0, 75, 102
1, 430407, Note_on_c, 0, 71, 101
1, 430408, Note_on_c, 0, 38, 87
1, 430412, Note_on_c, 0, 77, 83
1, 430416, Control_c, 0, 64, 0
1, 430431, Note_on_c, 0, 43, 81
1, 430450, Note_off_c, 0, 83, 68
1, 430466, Note_off_c, 0, 38, 63
1, 430473, Note_off_c, 0, 71, 62
1, 430475, Control_c, 0, 64, 36
1, 430479, Note_off_c, 0, 31, 65
1, 430479, Note_off_c, 0, 77, 67
1, 430489, Control_c, 0, 64, 70
1, 430492, Note_off_c, 0, 75, 61
1, 430504, Control_c, 0, 64, 115
1, 430519, Control_c, 0, 64, 127
1, 430521, Note_off_c, 0, 43, 65
1, 430598, Poly_aftertouch_c, 0, 45, 0
1, 430602, Note_on_c, 0, 53, 56
1, 430638, Note_off_c, 0, 53, 62
1, 430640, Note_on_c, 0, 55, 79
1, 430661, Note_off_c, 0, 55, 68
1, 430664, Note_on_c, 0, 57, 79
1, 430685, Note_on_c, 0, 59, 75
1, 430688, Note_off_c, 0, 57, 66
1, 430702, Note_off_c, 0, 59, 69
1, 430703, Note_on_c, 0, 60, 75
1, 430718, Note_on_c, 0, 62, 76
1, 430721, Note_off_c, 0, 60, 64
1, 430732, Note_on_c, 0, 64, 72
1, 430736, Note_off_c, 0, 62, 67
1, 430744, Note_on_c, 0, 65, 75
1, 430750, Note_off_c, 0, 64, 68
1, 430756, Note_on_c, 0, 67, 75
1, 430760, Note_off_c, 0, 65, 69
1, 430767, Note_on_c, 0, 69, 78
1, 430772, Note_off_c, 0, 67, 69
1, 430777, Note_on_c, 0, 71, 75
1, 430783, Note_off_c, 0, 69, 70
1, 430789, Note_on_c, 0, 72, 76
1, 430791, Note_off_c, 0, 71, 71
1, 430799, Note_on_c, 0, 74, 75
1, 430812, Note_off_c, 0, 72, 67
1, 430816, Note_on_c, 0, 76, 78
1, 430822, Note_off_c, 0, 74, 71
1, 430828, Note_on_c, 0, 77, 80
1, 430831, Note_off_c, 0, 76, 70
1, 430837, Note_on_c, 0, 79, 81
1, 430842, Note_off_c, 0, 77, 71
1, 430844, Poly_aftertouch_c, 0, 57, 0
1, 430848, Note_on_c, 0, 81, 79
1, 430851, Note_off_c, 0, 79, 71
1, 430858, Note_on_c, 0, 83, 81
1, 430863, Note_off_c, 0, 81, 72
1, 430869, Note_on_c, 0, 84, 78
1, 430872, Note_off_c, 0, 83, 72
1, 430880, Note_on_c, 0, 86, 81
1, 430883, Note_off_c, 0, 84, 70
1, 430890, Note_on_c, 0, 88, 81
1, 430893, Note_off_c, 0, 86, 71
1, 430901, Note_on_c, 0, 89, 78
1, 430904, Note_off_c, 0, 88, 72
1, 430910, Note_on_c, 0, 91, 84
1, 430917, Note_off_c, 0, 89, 67
1, 430920, Note_on_c, 0, 93, 81
1, 430925, Note_off_c, 0, 91, 44
1, 430932, Note_on_c, 0, 95, 67
1, 430935, Note_off_c, 0, 93, 43
1, 430950, Note_off_c, 0, 95, 42
1, 430959, Note_on_c, 0, 96, 43
1, 430960, Note_off_c, 0, 96, 127
1, 431090, Control_c, 0, 64, 47
1, 431101, Note_on_c, 0, 96, 114
1, 431105, Control_c, 0, 64, 0
1, 431108, Note_on_c, 0, 60, 94
1, 431200, Note_off_c, 0, 96, 69
1, 431224, Control_c, 0, 64, 72
1, 431239, Control_c, 0, 64, 127
1, 431279, Note_on_c, 0, 69, 79
1, 431298, Note_on_c, 0, 65, 66
1, 431313, Note_on_c, 0, 84, 84
1, 431314, Note_on_c, 0, 72, 36
1, 431318, Note_on_c, 0, 77, 73
1, 431331, Note_on_c, 0, 81, 55
1, 431333, Note_off_c, 0, 69, 64
1, 431343, Note_off_c, 0, 72, 54
1, 431345, Note_off_c, 0, 77, 69
1, 431353, Note_off_c, 0, 81, 61
1, 431365, Note_off_c, 0, 65, 60
1, 431394, Note_on_c, 0, 72, 67
1, 431397, Note_on_c, 0, 71, 61
1, 431414, Note_off_c, 0, 84, 44
1, 431416, Note_off_c, 0, 72, 67
1, 431418, Note_off_c, 0, 71, 65
1, 431439, Note_on_c, 0, 74, 94
1, 431442, Note_on_c, 0, 67, 73
1, 431443, Note_on_c, 0, 79, 67
1, 431445, Note_on_c, 0, 70, 80
1, 431447, Note_on_c, 0, 76, 79
1, 431461, Note_off_c, 0, 74, 66
1, 431473, Note_on_c, 0, 77, 36
1, 431486, Note_off_c, 0, 70, 60
1, 431489, Note_off_c, 0, 76, 64
1, 431501, Note_off_c, 0, 79, 66
1, 431504, Note_off_c, 0, 77, 59
1, 431516, Note_off_c, 0, 67, 62
1, 431606, Note_on_c, 0, 70, 77
1, 431618, Note_on_c, 0, 67, 67
1, 431622, Note_on_c, 0, 79, 64
1, 431625, Note_on_c, 0, 76, 58
1, 431632, Note_on_c, 0, 84, 67
1, 431637, Note_on_c, 0, 83, 58
1, 431641, Note_off_c, 0, 70, 65
1, 431644, Note_off_c, 0, 76, 65
1, 431644, Note_off_c, 0, 79, 61
1, 431645, Note_on_c, 0, 77, 33
1, 431660, Note_off_c, 0, 67, 61
1, 431680, Poly_aftertouch_c, 0, 72, 0
1, 431680, Note_off_c, 0, 77, 47
1, 431692, Note_on_c, 0, 72, 50
1, 431711, Poly_aftertouch_c, 0, 74, 0
1, 431734, Control_c, 0, 64, 98
1, 431749, Control_c, 0, 64, 64
1, 431764, Control_c, 0, 64, 48
1, 431769, Note_on_c, 0, 69, 95
1, 431772, Note_on_c, 0, 77, 76
1, 431776, Note_off_c, 0, 84, 54
1, 431778, Note_on_c, 0, 81, 84
1, 431778, Note_off_c, 0, 83, 55
1, 431779, Control_c, 0, 64, 54
1, 431781, Note_on_c, 0, 65, 81
1, 431795, Control_c, 0, 64, 70
1, 431809, Note_off_c, 0, 77, 65
1, 431809, Control_c, 0, 64, 110
1, 431817, Note_off_c, 0, 72, 65
1, 431824, Control_c, 0, 64, 127
1, 431827, Note_off_c, 0, 81, 64
1, 431830, Note_off_c, 0, 69, 65
1, 431927, Note_on_c, 0, 77, 78
1, 431929, Note_on_c, 0, 72, 92
1, 431933, Note_on_c, 0, 81, 69
1, 431935, Note_on_c, 0, 84, 74
1, 431938, Note_on_c, 0, 69, 71
1, 431966, Note_off_c, 0, 77, 61
1, 431969, Note_off_c, 0, 72, 62
1, 431973, Note_off_c, 0, 81, 50
1, 431978, Note_off_c, 0, 69, 58
1, 432008, Note_on_c, 0, 72, 79
1, 432009, Note_off_c, 0, 65, 63
1, 432049, Note_off_c, 0, 72, 66
1, 432062, Control_c, 0, 64, 83
1, 432077, Control_c, 0, 64, 57
1, 432088, Note_on_c, 0, 76, 78
1, 432091, Control_c, 0, 64, 22
1, 432096, Note_on_c, 0, 79, 81
1, 432097, Note_on_c, 0, 74, 96
1, 432102, Note_off_c, 0, 84, 59
1, 432106, Control_c, 0, 64, 34
1, 432106, Note_on_c, 0, 67, 72
1, 432107, Note_on_c, 0, 70, 80
1, 432121, Control_c, 0, 64, 64
1, 432124, Note_off_c, 0, 76, 62
1, 432135, Note_off_c, 0, 74, 66
1, 432135, Control_c, 0, 64, 97
1, 432145, Note_off_c, 0, 79, 64
1, 432150, Control_c, 0, 64, 127
1, 432154, Note_off_c, 0, 70, 59
1, 432193, Note_off_c, 0, 67, 58
1, 432267, Note_on_c, 0, 70, 74
1, 432275, Note_on_c, 0, 84, 75
1, 432278, Note_on_c, 0, 79, 64
1, 432281, Note_on_c, 0, 67, 66
1, 432282, Note_on_c, 0, 76, 66
1, 432318, Note_off_c, 0, 76, 67
1, 432321, Note_off_c, 0, 79, 63
1, 432324, Note_off_c, 0, 70, 62
1, 432350, Note_off_c, 0, 67, 62
1, 432366, Note_on_c, 0, 72, 13
1, 432407, Note_off_c, 0, 72, 64
1, 432409, Control_c, 0, 64, 113
1, 432424, Control_c, 0, 64, 65
1, 432439, Control_c, 0, 64, 37
1, 432440, Note_on_c, 0, 69, 83
1, 432441, Note_on_c, 0, 77, 76
1, 432444, Note_on_c, 0, 81, 81
1, 432446, Note_on_c, 0, 72, 84
1, 432449, Poly_aftertouch_c, 0, 74, 0
1, 432453, Note_on_c, 0, 65, 74
1, 432453, Control_c, 0, 64, 19
1, 432454, Note_off_c, 0, 84, 65
1, 432468, Control_c, 0, 64, 46
1, 432469, Note_off_c, 0, 77, 67
1, 432479, Note_off_c, 0, 72, 65
1, 432483, Control_c, 0, 64, 69
1, 432493, Note_off_c, 0, 81, 64
1, 432498, Note_off_c, 0, 69, 66
1, 432498, Control_c, 0, 64, 104
1, 432513, Control_c, 0, 64, 127
1, 432542, Note_off_c, 0, 65, 59
1, 432616, Note_on_c, 0, 77, 71
1, 432618, Note_on_c, 0, 81, 60
1, 432619, Note_on_c, 0, 69, 65
1, 432619, Note_on_c, 0, 84, 73
1, 432621, Note_on_c, 0, 72, 69
1, 432622, Note_on_c, 0, 65, 60
1, 432640, Note_off_c, 0, 72, 62
1, 432643, Note_off_c, 0, 77, 64
1, 432662, Note_off_c, 0, 81, 57
1, 432676, Note_off_c, 0, 69, 63
1, 432698, Note_on_c, 0, 72, 83
1, 432709, Note_off_c, 0, 65, 54
1, 432719, Note_off_c, 0, 72, 67
1, 432736, Control_c, 0, 64, 95
1, 432750, Control_c, 0, 64, 65
1, 432765, Control_c, 0, 64, 45
1, 432776, Note_on_c, 0, 79, 78
1, 432780, Note_on_c, 0, 74, 91
1, 432780, Note_on_c, 0, 76, 68
1, 432780, Control_c, 0, 64, 44
1, 432786, Note_off_c, 0, 84, 62
1, 432788, Note_on_c, 0, 70, 77
1, 432790, Note_on_c, 0, 67, 72
1, 432795, Note_on_c, 0, 72, 17
1, 432795, Control_c, 0, 64, 62
1, 432810, Control_c, 0, 64, 86
1, 432813, Note_off_c, 0, 76, 64
1, 432814, Note_off_c, 0, 74, 63
1, 432825, Control_c, 0, 64, 127
1, 432829, Note_off_c, 0, 72, 31
1, 432836, Note_off_c, 0, 79, 65
1, 432846, Note_off_c, 0, 70, 63
1, 432875, Note_off_c, 0, 67, 56
1, 432952, Note_on_c, 0, 84, 76
1, 432953, Note_on_c, 0, 79, 69
1, 432955, Note_on_c, 0, 70, 71
1, 432962, Note_on_c, 0, 67, 65
1, 432971, Note_on_c, 0, 76, 46
1, 432986, Note_off_c, 0, 79, 62
1, 432998, Note_off_c, 0, 76, 56
1, 432998, Note_off_c, 0, 70, 52
1, 433023, Note_off_c, 0, 67, 62
1, 433026, Note_on_c, 0, 72, 78
1, 433028, Poly_aftertouch_c, 0, 74, 127
1, 433048, Note_off_c, 0, 72, 67
1, 433060, Poly_aftertouch_c, 0, 74, 0
1, 433070, Control_c, 0, 64, 105
1, 433084, Control_c, 0, 64, 69
1, 433099, Control_c, 0, 64, 52
1, 433114, Control_c, 0, 64, 49
1, 433116, Note_on_c, 0, 69, 81
1, 433117, Note_on_c, 0, 72, 67
1, 433117, Note_on_c, 0, 77, 69
1, 433120, Note_on_c, 0, 81, 76
1, 433129, Control_c, 0, 64, 65
1, 433132, Note_on_c, 0, 65, 68
1, 433144, Control_c, 0, 64, 93
1, 433151, Note_off_c, 0, 77, 66
1, 433151, Note_off_c, 0, 84, 64
1, 433159, Control_c, 0, 64, 127
1, 433160, Note_off_c, 0, 72, 61
1, 433174, Note_off_c, 0, 69, 64
1, 433175, Note_off_c, 0, 81, 64
1, 433219, Note_off_c, 0, 65, 58
1, 433288, Note_on_c, 0, 72, 79
1, 433290, Note_on_c, 0, 69, 70
1, 433293, Note_on_c, 0, 84, 70
1, 433296, Note_on_c, 0, 81, 56
1, 433296, Note_on_c, 0, 77, 58
1, 433310, Note_on_c, 0, 65, 56
1, 433329, Note_off_c, 0, 77, 66
1, 433334, Note_off_c, 0, 72, 60
1, 433343, Note_off_c, 0, 69, 65
1, 433364, Note_on_c, 0, 72, 70
1, 433388, Note_off_c, 0, 72, 67
1, 433403, Note_off_c, 0, 65, 61
1, 433427, Control_c, 0, 64, 71
1, 433442, Control_c, 0, 64, 52
1, 433448, Note_on_c, 0, 76, 76
1, 433451, Note_off_c, 0, 81, 39
1, 433451, Note_on_c, 0, 79, 76
1, 433454, Note_on_c, 0, 74, 86
1, 433456, Control_c, 0, 64, 43
1, 433457, Note_on_c, 0, 70, 77
1, 433463, Note_on_c, 0, 67, 69
1, 433471, Control_c, 0, 64, 56
1, 433486, Control_c, 0, 64, 73
1, 433492, Note_off_c, 0, 84, 59
1, 433493, Note_off_c, 0, 76, 62
1, 433497, Note_off_c, 0, 74, 62
1, 433500, Control_c, 0, 64, 124
1, 433510, Note_off_c, 0, 79, 65
1, 433515, Control_c, 0, 64, 127
1, 433524, Note_off_c, 0, 70, 59
1, 433542, Note_off_c, 0, 67, 63
1, 433621, Note_on_c, 0, 79, 77
1, 433622, Note_on_c, 0, 70, 63
1, 433623, Note_on_c, 0, 84, 72
1, 433627, Note_on_c, 0, 67, 62
1, 433627, Note_on_c, 0, 76, 62
1, 433648, Note_off_c, 0, 76, 62
1, 433652, Note_off_c, 0, 60, 60
1, 433665, Note_off_c, 0, 79, 63
1, 433669, Note_off_c, 0, 67, 62
1, 433673, Note_off_c, 0, 70, 60
1, 433707, Note_on_c, 0, 72, 78
1, 433740, Note_off_c, 0, 72, 62
1, 433752, Note_off_c, 0, 84, 64
1, 433834, Control_c, 0, 64, 70
1, 433849, Control_c, 0, 64, 45
1, 433863, Control_c, 0, 64, 0
1, 433868, Note_on_c, 0, 84, 102
1, 433880, Note_on_c, 0, 65, 82
1, 433922, Control_c, 0, 64, 13
1, 433937, Control_c, 0, 64, 57
1, 433952, Control_c, 0, 64, 77
1, 433967, Control_c, 0, 64, 118
1, 433981, Control_c, 0, 64, 127
1, 433984, Note_on_c, 0, 75, 55
1, 433999, Note_on_c, 0, 74, 68
1, 434008, Note_off_c, 0, 65, 64
1, 434013, Note_off_c, 0, 75, 54
1, 434062, Note_off_c, 0, 74, 0
1, 434077, Poly_aftertouch_c, 0, 74, 0
1, 434081, Note_on_c, 0, 65, 93
1, 434095, Note_on_c, 0, 70, 41
1, 434128, Note_off_c, 0, 70, 51
1, 434142, Note_on_c, 0, 74, 73
1, 434160, Note_off_c, 0, 65, 63
1, 434241, Note_on_c, 0, 65, 96
1, 434253, Note_on_c, 0, 70, 68
1, 434259, Note_off_c, 0, 74, 65
1, 434307, Note_off_c, 0, 70, 63
1, 434309, Note_off_c, 0, 65, 63
1, 434309, Note_off_c, 0, 84, 63
1, 434321, Note_on_c, 0, 74, 72
1, 434322, Note_on_c, 0, 83, 36
1, 434353, Note_off_c, 0, 83, 46
1, 434386, Note_off_c, 0, 74, 62
1, 434396, Note_on_c, 0, 65, 90
1, 434403, Note_on_c, 0, 81, 94
1, 434476, Note_off_c, 0, 65, 64
1, 434525, Note_on_c, 0, 74, 13
1, 434541, Note_off_c, 0, 81, 65
1, 434545, Control_c, 0, 64, 78
1, 434567, Control_c, 0, 64, 46
1, 434574, Note_off_c, 0, 74, 39
1, 434582, Control_c, 0, 64, 0
1, 434589, Note_on_c, 0, 64, 81
1, 434590, Note_on_c, 0, 82, 92
1, 434595, Note_on_c, 0, 67, 75
1, 434601, Note_on_c, 0, 70, 72
1, 434611, Control_c, 0, 64, 56
1, 434626, Control_c, 0, 64, 82
1, 434641, Control_c, 0, 64, 127
1, 434656, Note_off_c, 0, 70, 42
1, 434669, Note_off_c, 0, 67, 61
1, 434670, Note_off_c, 0, 64, 61
1, 434680, Note_on_c, 0, 76, 78
1, 434751, Note_on_c, 0, 67, 70
1, 434758, Note_on_c, 0, 60, 86
1, 434761, Note_on_c, 0, 72, 82
1, 434765, Note_on_c, 0, 70, 65
1, 434767, Note_off_c, 0, 76, 62
1, 434795, Note_off_c, 0, 70, 63
1, 434811, Note_off_c, 0, 67, 62
1, 434825, Note_off_c, 0, 60, 60
1, 434834, Note_off_c, 0, 82, 63
1, 434835, Note_on_c, 0, 76, 79
1, 434841, Note_off_c, 0, 72, 62
1, 434869, Note_off_c, 0, 76, 59
1, 434914, Note_on_c, 0, 60, 80
1, 434914, Note_on_c, 0, 81, 97
1, 434922, Note_on_c, 0, 70, 69
1, 434924, Note_on_c, 0, 67, 71
1, 434937, Note_on_c, 0, 72, 72
1, 434952, Note_off_c, 0, 70, 62
1, 434956, Note_off_c, 0, 72, 64
1, 434967, Note_off_c, 0, 67, 63
1, 434980, Note_off_c, 0, 60, 56
1, 435012, Note_on_c, 0, 76, 84
1, 435013, Note_off_c, 0, 81, 64
1, 435041, Note_off_c, 0, 76, 60
1, 435072, Note_on_c, 0, 68, 59
1, 435080, Note_on_c, 0, 79, 92
1, 435091, Note_on_c, 0, 67, 71
1, 435097, Note_off_c, 0, 68, 57
1, 435133, Note_off_c, 0, 67, 60
1, 435156, Note_on_c, 0, 76, 86
1, 435164, Note_off_c, 0, 79, 66
1, 435164, Poly_aftertouch_c, 0, 70, 127
1, 435181, Note_off_c, 0, 76, 66
1, 435190, Poly_aftertouch_c, 0, 70, 0
1, 435234, Control_c, 0, 64, 57
1, 435246, Note_on_c, 0, 65, 95
1, 435249, Control_c, 0, 64, 0
1, 435252, Note_on_c, 0, 77, 94
1, 435274, Note_on_c, 0, 76, 55
1, 435275, Note_off_c, 0, 65, 63
1, 435301, Control_c, 0, 64, 42
1, 435305, Note_off_c, 0, 76, 37
1, 435316, Control_c, 0, 64, 72
1, 435331, Control_c, 0, 64, 113
1, 435346, Control_c, 0, 64, 127
1, 435352, Note_on_c, 0, 69, 82
1, 435353, Note_on_c, 0, 72, 83
1, 435365, Note_off_c, 0, 77, 64
1, 435388, Note_off_c, 0, 69, 56
1, 435442, Note_off_c, 0, 72, 63
1, 435444, Note_on_c, 0, 70, 79
1, 435448, Note_on_c, 0, 74, 72
1, 435526, Note_on_c, 0, 76, 73
1, 435552, Note_off_c, 0, 74, 63
1, 435552, Note_off_c, 0, 76, 67
1, 435577, Note_off_c, 0, 70, 59
1, 435598, Note_on_c, 0, 77, 89
1, 435599, Note_on_c, 0, 71, 68
1, 435612, Note_on_c, 0, 74, 64
1, 435629, Note_off_c, 0, 74, 68
1, 435639, Note_off_c, 0, 71, 63
1, 435671, Note_on_c, 0, 76, 39
1, 435681, Note_on_c, 0, 79, 86
1, 435700, Note_off_c, 0, 76, 64
1, 435707, Note_off_c, 0, 77, 59
1, 435732, Note_off_c, 0, 79, 64
1, 435758, Note_on_c, 0, 77, 77
1, 435788, Note_on_c, 0, 67, 37
1, 435815, Note_on_c, 0, 81, 62
1, 435818, Note_off_c, 0, 77, 61
1, 435818, Poly_aftertouch_c, 0, 69, 127
1, 435821, Note_off_c, 0, 67, 53
1, 435848, Note_off_c, 0, 81, 66
1, 435852, Poly_aftertouch_c, 0, 69, 0
1, 435877, Note_on_c, 0, 83, 38
1, 435901, Note_on_c, 0, 60, 86
1, 435911, Note_on_c, 0, 84, 101
1, 435911, Note_off_c, 0, 83, 47
1, 435926, Note_on_c, 0, 77, 85
1, 435926, Note_on_c, 0, 81, 83
1, 435931, Poly_aftertouch_c, 0, 79, 0
1, 435939, Control_c, 0, 64, 85
1, 435954, Control_c, 0, 64, 44
1, 435969, Control_c, 0, 64, 0
1, 436013, Control_c, 0, 64, 25
1, 436027, Note_off_c, 0, 81, 62
1, 436027, Control_c, 0, 64, 54
1, 436034, Note_off_c, 0, 77, 63
1, 436039, Note_off_c, 0, 84, 64
1, 436042, Control_c, 0, 64, 69
1, 436064, Control_c, 0, 64, 79
1, 436078, Note_on_c, 0, 72, 65
1, 436079, Control_c, 0, 64, 92
1, 436094, Note_on_c, 0, 69, 69
1, 436094, Control_c, 0, 64, 113
1, 436097, Note_off_c, 0, 72, 64
1, 436104, Note_on_c, 0, 84, 75
1, 436108, Control_c, 0, 64, 127
1, 436119, Note_on_c, 0, 65, 46
1, 436125, Note_on_c, 0, 81, 70
1, 436130, Note_on_c, 0, 77, 39
1, 436132, Note_off_c, 0, 69, 64
1, 436159, Note_off_c, 0, 65, 48
1, 436162, Note_off_c, 0, 77, 49
1, 436167, Note_on_c, 0, 72, 77
1, 436209, Note_off_c, 0, 72, 66
1, 436256, Note_on_c, 0, 74, 77
1, 436257, Note_on_c, 0, 79, 72
1, 436259, Note_on_c, 0, 76, 64
1, 436265, Note_on_c, 0, 70, 69
1, 436281, Note_on_c, 0, 67, 58
1, 436282, Note_off_c, 0, 74, 67
1, 436290, Note_off_c, 0, 84, 56
1, 436297, Note_off_c, 0, 76, 60
1, 436303, Note_off_c, 0, 81, 40
1, 436314, Note_off_c, 0, 70, 57
1, 436319, Note_off_c, 0, 79, 63
1, 436338, Note_off_c, 0, 67, 53
1, 436427, Note_on_c, 0, 70, 67
1, 436432, Note_on_c, 0, 84, 75
1, 436433, Note_on_c, 0, 79, 70
1, 436437, Note_on_c, 0, 67, 66
1, 436440, Note_on_c, 0, 76, 61
1, 436447, Note_on_c, 0, 72, 33
1, 436462, Note_off_c, 0, 76, 63
1, 436467, Note_off_c, 0, 70, 58
1, 436468, Note_off_c, 0, 79, 63
1, 436477, Note_off_c, 0, 72, 46
1, 436493, Note_off_c, 0, 67, 59
1, 436512, Note_on_c, 0, 72, 65
1, 436538, Control_c, 0, 64, 110
1, 436545, Note_off_c, 0, 72, 66
1, 436553, Control_c, 0, 64, 70
1, 436568, Control_c, 0, 64, 59
1, 436584, Control_c, 0, 64, 60
1, 436590, Note_on_c, 0, 81, 72
1, 436590, Note_on_c, 0, 77, 67
1, 436592, Note_on_c, 0, 69, 75
1, 436593, Note_on_c, 0, 72, 73
1, 436598, Control_c, 0, 64, 69
1, 436603, Note_on_c, 0, 65, 64
1, 436613, Control_c, 0, 64, 87
1, 436628, Control_c, 0, 64, 127
1, 436628, Note_off_c, 0, 72, 61
1, 436652, Note_off_c, 0, 69, 65
1, 436661, Note_off_c, 0, 84, 62
1, 436664, Note_off_c, 0, 77, 62
1, 436671, Note_off_c, 0, 81, 63
1, 436740, Note_off_c, 0, 65, 0
1, 436751, Note_on_c, 0, 72, 76
1, 436761, Note_on_c, 0, 65, 16
1, 436768, Note_on_c, 0, 69, 65
1, 436770, Note_on_c, 0, 84, 83
1, 436772, Note_on_c, 0, 81, 74
1, 436774, Note_on_c, 0, 77, 67
1, 436785, Note_off_c, 0, 72, 59
1, 436811, Note_off_c, 0, 77, 68
1, 436836, Note_off_c, 0, 60, 48
1, 436839, Note_off_c, 0, 81, 59
1, 436844, Note_off_c, 0, 69, 61
1, 436849, Note_on_c, 0, 72, 82
1, 436870, Note_off_c, 0, 84, 65
1, 436879, Note_off_c, 0, 72, 64
1, 436887, Control_c, 0, 64, 119
1, 436902, Control_c, 0, 64, 79
1, 436917, Control_c, 0, 64, 70
1, 436922, Note_off_c, 0, 65, 41
1, 436931, Control_c, 0, 64, 72
1, 436940, Note_on_c, 0, 84, 107
1, 436946, Control_c, 0, 64, 96
1, 436947, Note_on_c, 0, 67, 88
1, 436961, Control_c, 0, 64, 127
1, 437031, Note_off_c, 0, 67, 54
1, 437040, Note_on_c, 0, 76, 76
1, 437067, Note_off_c, 0, 76, 66
1, 437067, Note_on_c, 0, 81, 84
1, 437108, Note_on_c, 0, 64, 87
1, 437117, Note_off_c, 0, 84, 63
1, 437148, Note_on_c, 0, 72, 60
1, 437167, Note_off_c, 0, 72, 60
1, 437174, Note_off_c, 0, 64, 62
1, 437182, Note_on_c, 0, 76, 75
1, 437190, Note_off_c, 0, 81, 63
1, 437213, Control_c, 0, 64, 78
1, 437228, Control_c, 0, 64, 55
1, 437228, Note_off_c, 0, 76, 63
1, 437242, Control_c, 0, 64, 25
1, 437257, Note_on_c, 0, 62, 76
1, 437257, Control_c, 0, 64, 47
1, 437260, Note_on_c, 0, 74, 86
1, 437263, Note_on_c, 0, 70, 72
1, 437264, Note_on_c, 0, 67, 69
1, 437270, Note_on_c, 0, 86, 94
1, 437272, Control_c, 0, 64, 73
1, 437287, Control_c, 0, 64, 127
1, 437293, Note_off_c, 0, 74, 63
1, 437310, Note_off_c, 0, 70, 60
1, 437325, Note_off_c, 0, 67, 64
1, 437333, Note_off_c, 0, 62, 64
1, 437347, Note_on_c, 0, 76, 86
1, 437413, Note_off_c, 0, 76, 62
1, 437430, Note_on_c, 0, 62, 80
1, 437434, Note_on_c, 0, 72, 86
1, 437436, Note_on_c, 0, 70, 73
1, 437437, Note_on_c, 0, 74, 79
1, 437441, Note_on_c, 0, 67, 68
1, 437458, Note_off_c, 0, 72, 68
1, 437463, Note_off_c, 0, 74, 69
1, 437465, Note_off_c, 0, 70, 63
1, 437480, Note_off_c, 0, 67, 63
1, 437488, Note_off_c, 0, 62, 64
1, 437521, Note_off_c, 0, 86, 27
1, 437523, Note_on_c, 0, 76, 71
1, 437527, Note_on_c, 0, 77, 74
1, 437556, Note_off_c, 0, 76, 67
1, 437561, Note_off_c, 0, 77, 68
1, 437599, Note_on_c, 0, 74, 61
1, 437600, Note_on_c, 0, 62, 84
1, 437613, Note_on_c, 0, 86, 84
1, 437615, Note_on_c, 0, 70, 66
1, 437615, Note_on_c, 0, 67, 63
1, 437618, Note_on_c, 0, 88, 83
1, 437630, Note_on_c, 0, 72, 31
1, 437630, Note_off_c, 0, 88, 73
1, 437636, Note_off_c, 0, 74, 65
1, 437642, Note_off_c, 0, 70, 66
1, 437653, Note_off_c, 0, 67, 62
1, 437660, Note_off_c, 0, 62, 62
1, 437667, Note_off_c, 0, 72, 42
1, 437669, Note_on_c, 0, 76, 88
1, 437731, Note_off_c, 0, 76, 62
1, 437749, Note_off_c, 0, 86, 51
1, 437761, Note_on_c, 0, 62, 79
1, 437762, Note_on_c, 0, 72, 73
1, 437767, Poly_aftertouch_c, 0, 88, 0
1, 437769, Note_on_c, 0, 70, 54
1, 437785, Note_off_c, 0, 72, 67
1, 437790, Note_on_c, 0, 67, 21
1, 437800, Note_off_c, 0, 70, 64
1, 437818, Note_off_c, 0, 62, 59
1, 437828, Note_off_c, 0, 67, 44
1, 437830, Note_on_c, 0, 76, 84
1, 437858, Control_c, 0, 64, 105
1, 437872, Control_c, 0, 64, 63
1, 437874, Note_off_c, 0, 76, 63
1, 437887, Control_c, 0, 64, 0
1, 437917, Note_on_c, 0, 84, 94
1, 437920, Note_on_c, 0, 64, 85
1, 437932, Control_c, 0, 64, 51
1, 437944, Note_on_c, 0, 65, 44
1, 437945, Note_off_c, 0, 65, 127
1, 437946, Control_c, 0, 64, 79
1, 437949, Note_off_c, 0, 64, 69
1, 437952, Note_off_c, 0, 84, 65
1, 437961, Control_c, 0, 64, 127
1, 438023, Note_on_c, 0, 73, 76
1, 438025, Note_on_c, 0, 69, 65
1, 438059, Note_off_c, 0, 69, 62
1, 438111, Note_off_c, 0, 73, 62
1, 438122, Note_on_c, 0, 71, 62
1, 438135, Note_on_c, 0, 74, 67
1, 438189, Note_on_c, 0, 77, 40
1, 438189, Note_off_c, 0, 74, 66
1, 438191, Note_on_c, 0, 70, 41
1, 438200, Note_off_c, 0, 71, 57
1, 438218, Note_off_c, 0, 77, 52
1, 438220, Note_off_c, 0, 70, 59
1, 438247, Note_on_c, 0, 77, 82
1, 438250, Note_on_c, 0, 71, 65
1, 438256, Note_on_c, 0, 74, 73
1, 438277, Note_off_c, 0, 77, 65
1, 438280, Poly_aftertouch_c, 0, 76, 0
1, 438282, Note_off_c, 0, 74, 68
1, 438287, Note_off_c, 0, 71, 62
1, 438319, Note_on_c, 0, 76, 80
1, 438337, Note_on_c, 0, 79, 74
1, 438345, Note_off_c, 0, 76, 67
1, 438350, Note_on_c, 0, 67, 64
1, 438352, Note_on_c, 0, 69, 45
1, 438361, Note_on_c, 0, 81, 46
1, 438369, Note_off_c, 0, 67, 65
1, 438374, Note_off_c, 0, 79, 65
1, 438387, Note_off_c, 0, 81, 56
1, 438405, Note_off_c, 0, 69, 0
1, 438406, Note_on_c, 0, 77, 84
1, 438420, Note_on_c, 0, 69, 43
1, 438444, Note_off_c, 0, 69, 62
1, 438479, Note_on_c, 0, 79, 80
1, 438483, Note_on_c, 0, 81, 52
1, 438492, Note_on_c, 0, 83, 76
1, 438492, Note_off_c, 0, 77, 43
1, 438503, Note_off_c, 0, 79, 68
1, 438512, Note_off_c, 0, 81, 52
1, 438515, Note_off_c, 0, 83, 68
1, 438563, Control_c, 0, 64, 124
1, 438563, Note_on_c, 0, 60, 89
1, 438572, Note_on_c, 0, 84, 107
1, 438577, Control_c, 0, 64, 60
1, 438586, Note_on_c, 0, 77, 80
1, 438586, Note_on_c, 0, 81, 84
1, 438592, Control_c, 0, 64, 0
1, 438666, Control_c, 0, 64, 22
1, 438679, Note_off_c, 0, 81, 63
1, 438680, Note_off_c, 0, 77, 62
1, 438681, Control_c, 0, 64, 49
1, 438694, Note_off_c, 0, 84, 63
1, 438695, Control_c, 0, 64, 63
1, 438710, Control_c, 0, 64, 71
1, 438725, Control_c, 0, 64, 78
1, 438736, Note_on_c, 0, 69, 71
1, 438740, Control_c, 0, 64, 88
1, 438750, Note_on_c, 0, 65, 51
1, 438752, Note_on_c, 0, 72, 40
1, 438755, Control_c, 0, 64, 101
1, 438758, Note_on_c, 0, 77, 61
1, 438763, Note_on_c, 0, 84, 77
1, 438769, Control_c, 0, 64, 127
1, 438781, Note_on_c, 0, 81, 62
1, 438789, Note_off_c, 0, 72, 0
1, 438790, Note_off_c, 0, 77, 64
1, 438793, Note_off_c, 0, 69, 62
1, 438801, Note_on_c, 0, 72, 57
1, 438812, Note_off_c, 0, 65, 56
1, 438837, Note_off_c, 0, 72, 66
1, 438897, Note_on_c, 0, 76, 77
1, 438900, Note_off_c, 0, 81, 45
1, 438900, Note_on_c, 0, 79, 74
1, 438903, Note_on_c, 0, 74, 71
1, 438914, Note_off_c, 0, 84, 56
1, 438915, Note_on_c, 0, 70, 65
1, 438916, Note_on_c, 0, 67, 62
1, 438921, Note_off_c, 0, 74, 67
1, 438945, Note_off_c, 0, 76, 62
1, 438953, Note_off_c, 0, 70, 59
1, 438964, Note_off_c, 0, 79, 65
1, 438986, Note_off_c, 0, 67, 59
1, 439072, Note_on_c, 0, 70, 62
1, 439081, Note_on_c, 0, 79, 70
1, 439083, Note_on_c, 0, 84, 71
1, 439084, Note_on_c, 0, 67, 60
1, 439089, Note_on_c, 0, 76, 60
1, 439119, Note_off_c, 0, 76, 65
1, 439120, Note_off_c, 0, 70, 58
1, 439123, Note_off_c, 0, 79, 60
1, 439145, Note_off_c, 0, 67, 62
1, 439159, Note_on_c, 0, 72, 53
1, 439193, Control_c, 0, 64, 87
1, 439207, Control_c, 0, 64, 66
1, 439211, Note_off_c, 0, 72, 64
1, 439222, Control_c, 0, 64, 58
1, 439228, Poly_aftertouch_c, 0, 74, 0
1, 439237, Note_on_c, 0, 81, 78
1, 439237, Control_c, 0, 64, 60
1, 439239, Note_on_c, 0, 77, 76
1, 439240, Note_on_c, 0, 72, 69
1, 439243, Note_on_c, 0, 69, 74
1, 439249, Note_on_c, 0, 65, 68
1, 439252, Control_c, 0, 64, 68
1, 439266, Control_c, 0, 64, 87
1, 439275, Note_off_c, 0, 72, 64
1, 439278, Note_off_c, 0, 84, 64
1, 439281, Note_off_c, 0, 77, 60
1, 439281, Control_c, 0, 64, 127
1, 439295, Note_off_c, 0, 69, 63
1, 439304, Note_off_c, 0, 81, 62
1, 439341, Note_off_c, 0, 65, 57
1, 439408, Note_on_c, 0, 65, 56
1, 439410, Note_on_c, 0, 72, 70
1, 439412, Note_on_c, 0, 84, 82
1, 439419, Note_on_c, 0, 69, 62
1, 439421, Note_on_c, 0, 81, 62
1, 439423, Note_on_c, 0, 77, 61
1, 439428, Note_off_c, 0, 72, 65
1, 439444, Note_off_c, 0, 77, 63
1, 439451, Note_off_c, 0, 69, 66
1, 439484, Note_on_c, 0, 72, 84
1, 439496, Note_off_c, 0, 65, 60
1, 439525, Note_off_c, 0, 72, 64
1, 439536, Note_off_c, 0, 81, 54
1, 439561, Note_on_c, 0, 76, 78
1, 439565, Note_on_c, 0, 79, 77
1, 439573, Note_on_c, 0, 74, 81
1, 439578, Note_on_c, 0, 70, 72
1, 439583, Note_on_c, 0, 67, 65
1, 439598, Note_off_c, 0, 74, 65
1, 439605, Note_off_c, 0, 84, 60
1, 439615, Note_off_c, 0, 76, 61
1, 439632, Note_off_c, 0, 79, 64
1, 439639, Note_off_c, 0, 70, 60
1, 439662, Note_off_c, 0, 67, 60
1, 439736, Note_on_c, 0, 79, 80
1, 439737, Note_on_c, 0, 84, 78
1, 439740, Note_on_c, 0, 76, 70
1, 439743, Note_on_c, 0, 70, 71
1, 439744, Note_on_c, 0, 67, 59
1, 439759, Poly_aftertouch_c, 0, 74, 127
1, 439772, Note_off_c, 0, 76, 65
1, 439775, Note_on_c, 0, 74, 3
1, 439797, Note_off_c, 0, 79, 65
1, 439815, Note_off_c, 0, 70, 60
1, 439820, Note_on_c, 0, 72, 73
1, 439821, Note_off_c, 0, 74, 53
1, 439827, Note_off_c, 0, 67, 62
1, 439854, Control_c, 0, 64, 96
1, 439864, Note_off_c, 0, 72, 65
1, 439869, Control_c, 0, 64, 68
1, 439883, Control_c, 0, 64, 64
1, 439898, Control_c, 0, 64, 71
1, 439902, Note_on_c, 0, 69, 82
1, 439908, Note_on_c, 0, 81, 79
1, 439910, Note_on_c, 0, 72, 74
1, 439910, Note_on_c, 0, 77, 69
1, 439913, Control_c, 0, 64, 98
1, 439913, Note_on_c, 0, 65, 72
1, 439928, Control_c, 0, 64, 127
1, 439945, Note_off_c, 0, 72, 58
1, 439949, Note_off_c, 0, 77, 61
1, 439954, Note_off_c, 0, 84, 63
1, 439973, Note_off_c, 0, 69, 64
1, 439976, Note_off_c, 0, 81, 63
1, 440007, Note_off_c, 0, 65, 59
1, 440071, Note_on_c, 0, 72, 79
1, 440074, Note_on_c, 0, 81, 81
1, 440077, Note_on_c, 0, 77, 72
1, 440078, Note_on_c, 0, 84, 84
1, 440081, Note_on_c, 0, 69, 70
1, 440090, Note_on_c, 0, 65, 53
1, 440104, Note_off_c, 0, 77, 69
1, 440111, Note_off_c, 0, 72, 56
1, 440128, Note_off_c, 0, 81, 61
1, 440155, Note_on_c, 0, 72, 83
1, 440159, Note_off_c, 0, 60, 58
1, 440163, Note_off_c, 0, 69, 61
1, 440194, Note_off_c, 0, 65, 61
1, 440194, Control_c, 0, 64, 112
1, 440199, Note_off_c, 0, 72, 64
1, 440202, Note_off_c, 0, 84, 65
1, 440209, Control_c, 0, 64, 79
1, 440223, Control_c, 0, 64, 74
1, 440238, Control_c, 0, 64, 79
1, 440243, Note_on_c, 0, 84, 79
1, 440248, Note_on_c, 0, 67, 89
1, 440253, Control_c, 0, 64, 127
1, 440340, Note_off_c, 0, 67, 55
1, 440358, Note_on_c, 0, 81, 75
1, 440411, Note_on_c, 0, 64, 79
1, 440426, Note_off_c, 0, 84, 60
1, 440452, Note_on_c, 0, 76, 86
1, 440464, Note_off_c, 0, 64, 64
1, 440475, Note_off_c, 0, 81, 64
1, 440519, Note_off_c, 0, 76, 64
1, 440534, Control_c, 0, 64, 71
1, 440556, Control_c, 0, 64, 48
1, 440572, Note_on_c, 0, 79, 95
1, 440572, Control_c, 0, 64, 35
1, 440578, Note_on_c, 0, 62, 72
1, 440580, Note_on_c, 0, 74, 90
1, 440582, Note_on_c, 0, 72, 47
1, 440585, Note_on_c, 0, 67, 71
1, 440585, Note_on_c, 0, 70, 72
1, 440587, Control_c, 0, 64, 57
1, 440602, Control_c, 0, 64, 84
1, 440608, Note_off_c, 0, 74, 64
1, 440617, Control_c, 0, 64, 127
1, 440623, Note_off_c, 0, 70, 60
1, 440623, Note_off_c, 0, 72, 63
1, 440635, Note_off_c, 0, 67, 60
1, 440644, Note_off_c, 0, 62, 63
1, 440674, Note_on_c, 0, 76, 78
1, 440736, Note_on_c, 0, 62, 82
1, 440739, Note_on_c, 0, 70, 67
1, 440740, Note_on_c, 0, 74, 72
1, 440744, Note_off_c, 0, 76, 65
1, 440745, Note_on_c, 0, 67, 67
1, 440754, Note_on_c, 0, 72, 77
1, 440764, Note_off_c, 0, 74, 65
1, 440770, Note_off_c, 0, 70, 63
1, 440777, Note_off_c, 0, 67, 63
1, 440793, Note_off_c, 0, 62, 63
1, 440827, Note_on_c, 0, 76, 84
1, 440832, Note_off_c, 0, 72, 64
1, 440834, Note_off_c, 0, 79, 66
1, 440878, Note_off_c, 0, 76, 62
1, 440893, Note_on_c, 0, 74, 77
1, 440894, Note_on_c, 0, 62, 83
1, 440896, Note_on_c, 0, 67, 66
1, 440896, Note_on_c, 0, 70, 71
1, 440897, Note_on_c, 0, 79, 96
1, 440909, Note_on_c, 0, 72, 83
1, 440925, Note_off_c, 0, 74, 64
1, 440933, Note_off_c, 0, 70, 61
1, 440946, Note_off_c, 0, 67, 60
1, 440958, Note_off_c, 0, 62, 59
1, 440983, Note_on_c, 0, 76, 87
1, 440998, Note_off_c, 0, 72, 63
1, 440998, Note_off_c, 0, 79, 65
1, 441034, Note_off_c, 0, 76, 65
1, 441049, Note_on_c, 0, 62, 70
1, 441052, Note_on_c, 0, 74, 58
1, 441063, Note_on_c, 0, 81, 92
1, 441070, Note_on_c, 0, 67, 49
1, 441076, Note_off_c, 0, 74, 58
1, 441080, Note_on_c, 0, 72, 68
1, 441107, Poly_aftertouch_c, 0, 70, 127
1, 441117, Note_off_c, 0, 62, 62
1, 441130, Note_on_c, 0, 76, 84
1, 441144, Poly_aftertouch_c, 0, 70, 0
1, 441149, Note_off_c, 0, 72, 60
1, 441156, Note_off_c, 0, 81, 64
1, 441174, Note_off_c, 0, 76, 64
1, 441194, Control_c, 0, 64, 104
1, 441209, Control_c, 0, 64, 63
1, 441219, Note_off_c, 0, 67, 0
1, 441224, Control_c, 0, 64, 40
1, 441228, Note_on_c, 0, 70, 82
1, 441230, Note_on_c, 0, 67, 61
1, 441233, Note_on_c, 0, 79, 101
1, 441238, Control_c, 0, 64, 50
1, 441240, Note_on_c, 0, 64, 74
1, 441244, Note_on_c, 0, 76, 89
1, 441245, Note_on_c, 0, 72, 86
1, 441253, Control_c, 0, 64, 71
1, 441268, Control_c, 0, 64, 127
1, 441271, Note_off_c, 0, 70, 66
1, 441274, Note_off_c, 0, 72, 59
1, 441291, Note_off_c, 0, 67, 64
1, 441300, Note_off_c, 0, 64, 66
1, 441362, Note_off_c, 0, 76, 64
1, 441423, Note_on_c, 0, 77, 95
1, 441426, Note_on_c, 0, 72, 89
1, 441451, Note_off_c, 0, 79, 64
1, 441490, Note_off_c, 0, 72, 61
1, 441511, Note_off_c, 0, 77, 63
1, 441573, Control_c, 0, 64, 84
1, 441588, Control_c, 0, 64, 57
1, 441590, Poly_aftertouch_c, 0, 25, 0
1, 441602, Control_c, 0, 64, 49
1, 441603, Note_on_c, 0, 36, 100
1, 441611, Note_on_c, 0, 76, 86
1, 441612, Note_on_c, 0, 24, 84
1, 441617, Control_c, 0, 64, 65
1, 441618, Note_on_c, 0, 70, 73
1, 441618, Note_on_c, 0, 72, 73
1, 441620, Note_on_c, 0, 67, 77
1, 441632, Control_c, 0, 64, 98
1, 441647, Control_c, 0, 64, 127
1, 441657, Note_off_c, 0, 67, 59
1, 441662, Note_on_c, 0, 74, 14
1, 441683, Poly_aftertouch_c, 0, 31, 0
1, 441710, Note_off_c, 0, 74, 47
1, 441720, Poly_aftertouch_c, 0, 31, 127
1, 441721, Note_off_c, 0, 36, 61
1, 441729, Note_off_c, 0, 76, 56
1, 441748, Note_off_c, 0, 72, 31
1, 441767, Note_off_c, 0, 70, 34
1, 441778, Note_off_c, 0, 24, 0
1, 441804, Poly_aftertouch_c, 0, 31, 0
1, 441812, Note_on_c, 0, 24, 13
1, 441815, Note_on_c, 0, 74, 85
1, 441819, Note_on_c, 0, 36, 98
1, 441823, Note_on_c, 0, 67, 68
1, 441830, Note_on_c, 0, 70, 46
1, 441841, Note_off_c, 0, 67, 65
1, 441844, Note_off_c, 0, 24, 63
1, 441849, Note_off_c, 0, 70, 61
1, 441857, Note_off_c, 0, 74, 68
1, 441863, Note_off_c, 0, 36, 67
1, 441912, Poly_aftertouch_c, 0, 27, 0
1, 442098, Control_c, 0, 64, 77
1, 442113, Control_c, 0, 64, 0
1, 442117, Note_on_c, 0, 41, 98
1, 442125, Note_on_c, 0, 96, 106
1, 442128, Note_on_c, 0, 29, 77
1, 442130, Note_on_c, 0, 89, 97
1, 442131, Note_on_c, 0, 84, 99
1, 442138, Note_on_c, 0, 93, 83
1, 442151, Note_off_c, 0, 29, 65
1, 442165, Note_off_c, 0, 41, 67
1, 442188, Control_c, 0, 64, 60
1, 442203, Control_c, 0, 64, 100
1, 442216, Note_off_c, 0, 96, 70
1, 442218, Control_c, 0, 64, 127
1, 442232, Note_off_c, 0, 93, 64
1, 442243, Note_off_c, 0, 84, 66
1, 442245, Note_off_c, 0, 89, 65
1, 442335, Note_on_c, 0, 53, 81
1, 442343, Note_on_c, 0, 43, 53
1, 442358, Note_off_c, 0, 53, 67
1, 442372, Note_on_c, 0, 83, 68
1, 442373, Note_off_c, 0, 43, 56
1, 442376, Note_on_c, 0, 76, 63
1, 442376, Note_on_c, 0, 84, 69
1, 442386, Note_on_c, 0, 77, 49
1, 442393, Note_off_c, 0, 84, 68
1, 442408, Note_off_c, 0, 77, 60
1, 442412, Note_off_c, 0, 76, 62
1, 442413, Note_off_c, 0, 83, 57
1, 442520, Note_on_c, 0, 67, 48
1, 442525, Note_on_c, 0, 70, 91
1, 442534, Note_on_c, 0, 79, 88
1, 442539, Note_on_c, 0, 72, 87
1, 442541, Note_on_c, 0, 77, 78
1, 442562, Note_on_c, 0, 62, 61
1, 442574, Note_off_c, 0, 70, 63
1, 442590, Note_off_c, 0, 67, 63
1, 442592, Note_off_c, 0, 72, 62
1, 442599, Note_off_c, 0, 62, 62
1, 442617, Note_off_c, 0, 77, 62
1, 442620, Note_off_c, 0, 79, 65
1, 442726, Note_on_c, 0, 81, 100
1, 442729, Note_on_c, 0, 72, 92
1, 442733, Note_on_c, 0, 40, 87
1, 442736, Note_on_c, 0, 53, 79
1, 442739, Note_on_c, 0, 52, 74
1, 442763, Note_off_c, 0, 52, 67
1, 442763, Note_off_c, 0, 53, 66
1, 442764, Note_off_c, 0, 40, 65
1, 442772, Note_off_c, 0, 72, 64
1, 442775, Note_off_c, 0, 81, 64
1, 442854, Poly_aftertouch_c, 0, 42, 0
1, 442951, Control_c, 0, 64, 92
1, 442953, Poly_aftertouch_c, 0, 78, 127
1, 442958, Note_on_c, 0, 40, 93
1, 442962, Note_on_c, 0, 82, 102
1, 442964, Note_on_c, 0, 28, 83
1, 442966, Control_c, 0, 64, 50
1, 442979, Note_on_c, 0, 72, 83
1, 442981, Control_c, 0, 64, 0
1, 442984, Note_on_c, 0, 30, 60
1, 442985, Note_off_c, 0, 30, 127
1, 442994, Note_off_c, 0, 72, 66
1, 443002, Note_off_c, 0, 28, 66
1, 443005, Poly_aftertouch_c, 0, 78, 0
1, 443008, Note_off_c, 0, 40, 64
1, 443026, Control_c, 0, 64, 58
1, 443040, Control_c, 0, 64, 92
1, 443055, Control_c, 0, 64, 127
1, 443067, Poly_aftertouch_c, 0, 77, 0
1, 443107, Poly_aftertouch_c, 0, 77, 0
1, 443124, Note_on_c, 0, 77, 36
1, 443135, Note_on_c, 0, 48, 97
1, 443138, Note_on_c, 0, 36, 86
1, 443138, Note_on_c, 0, 71, 51
1, 443140, Note_on_c, 0, 81, 56
1, 443147, Note_on_c, 0, 72, 28
1, 443154, Note_off_c, 0, 77, 64
1, 443160, Note_off_c, 0, 71, 61
1, 443162, Note_off_c, 0, 81, 67
1, 443169, Note_off_c, 0, 36, 67
1, 443174, Note_off_c, 0, 82, 54
1, 443177, Note_off_c, 0, 48, 64
1, 443179, Note_off_c, 0, 72, 40
1, 443196, Note_on_c, 0, 37, 6
1, 443251, Note_off_c, 0, 37, 50
1, 443258, Note_on_c, 0, 85, 32
1, 443289, Note_off_c, 0, 85, 56
1, 443315, Note_on_c, 0, 84, 80
1, 443318, Note_on_c, 0, 93, 101
1, 443323, Note_on_c, 0, 88, 73
1, 443332, Note_on_c, 0, 68, 51
1, 443333, Note_off_c, 0, 68, 127
1, 443333, Note_on_c, 0, 81, 80
1, 443335, Note_on_c, 0, 67, 68
1, 443341, Note_on_c, 0, 62, 64
1, 443347, Note_on_c, 0, 64, 54
1, 443351, Note_on_c, 0, 74, 24
1, 443353, Note_off_c, 0, 67, 65
1, 443362, Note_off_c, 0, 62, 66
1, 443363, Note_on_c, 0, 83, 46
1, 443364, Note_off_c, 0, 83, 127
1, 443371, Note_off_c, 0, 64, 61
1, 443391, Note_off_c, 0, 74, 45
1, 443398, Note_off_c, 0, 81, 64
1, 443419, Note_off_c, 0, 93, 65
1, 443453, Note_off_c, 0, 88, 62
1, 443469, Note_on_c, 0, 48, 83
1, 443481, Note_on_c, 0, 91, 92
1, 443488, Note_on_c, 0, 38, 44
1, 443490, Note_off_c, 0, 48, 68
1, 443490, Note_on_c, 0, 79, 88
1, 443499, Note_on_c, 0, 36, 27
1, 443515, Note_off_c, 0, 91, 68
1, 443517, Note_off_c, 0, 84, 25
1, 443526, Note_off_c, 0, 38, 49
1, 443550, Note_off_c, 0, 36, 48
1, 443553, Note_off_c, 0, 79, 65
1, 443627, Control_c, 0, 64, 75
1, 443633, Note_on_c, 0, 80, 8
1, 443641, Control_c, 0, 64, 31
1, 443654, Note_off_c, 0, 80, 47
1, 443656, Control_c, 0, 64, 0
1, 443668, Note_on_c, 0, 53, 95
1, 443675, Note_on_c, 0, 89, 98
1, 443680, Note_on_c, 0, 41, 74
1, 443681, Note_on_c, 0, 81, 85
1, 443684, Note_on_c, 0, 84, 84
1, 443684, Note_on_c, 0, 77, 102
1, 443685, Control_c, 0, 64, 43
1, 443692, Note_on_c, 0, 40, 68
1, 443693, Note_off_c, 0, 40, 127
1, 443699, Note_on_c, 0, 42, 57
1, 443700, Control_c, 0, 64, 86
1, 443711, Note_off_c, 0, 41, 67
1, 443712, Note_off_c, 0, 53, 65
1, 443715, Control_c, 0, 64, 127
1, 443729, Note_off_c, 0, 42, 61
1, 443739, Note_off_c, 0, 89, 66
1, 443740, Note_off_c, 0, 77, 62
1, 443757, Note_off_c, 0, 81, 64
1, 443757, Note_off_c, 0, 84, 66
1, 443835, Note_on_c, 0, 69, 82
1, 443842, Note_on_c, 0, 59, 68
1, 443844, Note_on_c, 0, 84, 85
1, 443853, Note_on_c, 0, 66, 37
1, 443854, Note_off_c, 0, 66, 127
1, 443854, Note_on_c, 0, 72, 83
1, 443857, Note_off_c, 0, 69, 69
1, 443863, Note_on_c, 0, 83, 70
1, 443881, Note_on_c, 0, 76, 37
1, 443883, Note_off_c, 0, 59, 48
1, 443900, Note_on_c, 0, 79, 43
1, 443920, Note_off_c, 0, 83, 0
1, 443920, Note_on_c, 0, 83, 25
1, 443934, Note_off_c, 0, 72, 61
1, 443935, Note_on_c, 0, 69, 16
1, 443936, Note_off_c, 0, 76, 39
1, 443979, Note_off_c, 0, 69, 54
1, 444003, Note_off_c, 0, 79, 0
1, 444005, Note_on_c, 0, 62, 83
1, 444009, Note_on_c, 0, 67, 61
1, 444018, Note_on_c, 0, 79, 62
1, 444020, Note_on_c, 0, 76, 88
1, 444023, Note_on_c, 0, 72, 83
1, 444029, Note_off_c, 0, 67, 62
1, 444032, Note_off_c, 0, 62, 69
1, 444054, Note_off_c, 0, 84, 63
1, 444076, Note_off_c, 0, 83, 46
1, 444079, Note_off_c, 0, 72, 60
1, 444111, Note_off_c, 0, 79, 62
1, 444123, Note_off_c, 0, 76, 34
1, 444168, Note_on_c, 0, 41, 87
1, 444175, Note_on_c, 0, 76, 68
1, 444178, Note_on_c, 0, 72, 88
1, 444179, Note_on_c, 0, 79, 83
1, 444179, Note_on_c, 0, 29, 76
1, 444205, Note_off_c, 0, 29, 63
1, 444215, Note_off_c, 0, 76, 62
1, 444221, Note_off_c, 0, 41, 61
1, 444239, Note_off_c, 0, 72, 61
1, 444295, Note_off_c, 0, 79, 59
1, 444316, Control_c, 0, 64, 81
1, 444331, Control_c, 0, 64, 45
1, 444346, Control_c, 0, 64, 0
1, 444349, Note_on_c, 0, 28, 89
1, 444349, Note_on_c, 0, 40, 96
1, 444356, Note_on_c, 0, 84, 103
1, 444361, Control_c, 0, 64, 24
1, 444369, Note_on_c, 0, 72, 89
1, 444372, Note_on_c, 0, 74, 82
1, 444374, Note_on_c, 0, 77, 68
1, 444376, Control_c, 0, 64, 62
1, 444376, Note_on_c, 0, 81, 74
1, 444380, Note_off_c, 0, 28, 68
1, 444389, Note_off_c, 0, 40, 64
1, 444390, Control_c, 0, 64, 110
1, 444405, Control_c, 0, 64, 127
1, 444420, Note_off_c, 0, 74, 54
1, 444428, Note_off_c, 0, 72, 58
1, 444444, Note_off_c, 0, 77, 0
1, 444449, Note_off_c, 0, 81, 60
1, 444481, Poly_aftertouch_c, 0, 77, 127
1, 444501, Poly_aftertouch_c, 0, 77, 0
1, 444516, Note_on_c, 0, 60, 78
1, 444516, Note_on_c, 0, 65, 69
1, 444517, Note_on_c, 0, 77, 31
1, 444524, Note_on_c, 0, 67, 61
1, 444530, Note_on_c, 0, 72, 77
1, 444531, Note_on_c, 0, 74, 82
1, 444534, Note_on_c, 0, 81, 75
1, 444540, Note_off_c, 0, 65, 64
1, 444545, Note_off_c, 0, 67, 62
1, 444546, Note_off_c, 0, 60, 64
1, 444600, Note_off_c, 0, 74, 61
1, 444601, Note_off_c, 0, 72, 60
1, 444608, Note_off_c, 0, 84, 65
1, 444641, Note_off_c, 0, 77, 55
1, 444651, Note_off_c, 0, 81, 63
1, 444685, Note_on_c, 0, 31, 88
1, 444686, Note_on_c, 0, 43, 94
1, 444686, Note_on_c, 0, 84, 102
1, 444698, Note_on_c, 0, 72, 94
1, 444701, Note_on_c, 0, 74, 84
1, 444716, Note_off_c, 0, 31, 67
1, 444716, Note_off_c, 0, 43, 67
1, 444717, Note_on_c, 0, 32, 39
1, 444723, Note_off_c, 0, 74, 70
1, 444723, Note_off_c, 0, 72, 64
1, 444730, Note_on_c, 0, 41, 16
1, 444731, Note_off_c, 0, 41, 127
1, 444732, Note_off_c, 0, 84, 66
1, 444757, Note_off_c, 0, 32, 46
1, 444766, Poly_aftertouch_c, 0, 41, 0
1, 444845, Note_on_c, 0, 70, 96
1, 444847, Note_on_c, 0, 52, 91
1, 444850, Note_on_c, 0, 81, 93
1, 444857, Poly_aftertouch_c, 0, 74, 0
1, 444858, Note_on_c, 0, 40, 86
1, 444883, Note_off_c, 0, 40, 65
1, 444891, Note_off_c, 0, 81, 61
1, 444904, Note_off_c, 0, 70, 62
1, 444906, Note_off_c, 0, 52, 59
1, 444945, Poly_aftertouch_c, 0, 75, 0
1, 444957, Note_on_c, 0, 40, 40
1, 444984, Note_off_c, 0, 40, 56
1, 445012, Control_c, 0, 64, 70
1, 445027, Control_c, 0, 64, 0
1, 445039, Note_on_c, 0, 50, 98
1, 445040, Note_on_c, 0, 77, 61
1, 445046, Note_on_c, 0, 86, 93
1, 445046, Note_on_c, 0, 38, 86
1, 445054, Note_on_c, 0, 72, 92
1, 445060, Note_on_c, 0, 81, 74
1, 445064, Control_c, 0, 64, 57
1, 445070, Note_on_c, 0, 84, 74
1, 445079, Control_c, 0, 64, 90
1, 445083, Note_on_c, 0, 74, 47
1, 445084, Note_off_c, 0, 74, 127
1, 445086, Note_off_c, 0, 38, 63
1, 445089, Note_off_c, 0, 50, 68
1, 445094, Note_on_c, 0, 40, 16
1, 445095, Note_off_c, 0, 40, 127
1, 445095, Control_c, 0, 64, 127
1, 445131, Note_off_c, 0, 72, 62
1, 445136, Poly_aftertouch_c, 0, 40, 0
1, 445145, Note_off_c, 0, 84, 64
1, 445148, Note_off_c, 0, 81, 63
1, 445154, Note_off_c, 0, 77, 64
1, 445212, Note_on_c, 0, 77, 65
1, 445218, Note_on_c, 0, 69, 83
1, 445222, Note_on_c, 0, 65, 76
1, 445227, Note_on_c, 0, 62, 63
1, 445228, Note_on_c, 0, 72, 77
1, 445231, Note_on_c, 0, 84, 63
1, 445243, Note_on_c, 0, 81, 28
1, 445252, Note_off_c, 0, 77, 65
1, 445276, Note_off_c, 0, 81, 44
1, 445281, Note_off_c, 0, 69, 61
1, 445288, Note_off_c, 0, 72, 56
1, 445307, Note_off_c, 0, 86, 63
1, 445315, Note_off_c, 0, 62, 61
1, 445321, Note_off_c, 0, 65, 62
1, 445330, Note_off_c, 0, 84, 65
1, 445377, Note_on_c, 0, 70, 81
1, 445380, Note_on_c, 0, 62, 71
1, 445381, Note_on_c, 0, 74, 84
1, 445382, Note_on_c, 0, 67, 82
1, 445383, Note_on_c, 0, 86, 97
1, 445384, Note_on_c, 0, 79, 86
1, 445400, Note_off_c, 0, 70, 67
1, 445407, Note_off_c, 0, 67, 68
1, 445422, Note_on_c, 0, 82, 32
1, 445425, Note_off_c, 0, 62, 65
1, 445447, Note_off_c, 0, 74, 50
1, 445458, Note_off_c, 0, 82, 54
1, 445473, Note_off_c, 0, 79, 59
1, 445480, Note_on_c, 0, 70, 9
1, 445525, Note_off_c, 0, 70, 41
1, 445530, Note_on_c, 0, 38, 86
1, 445539, Note_on_c, 0, 26, 88
1, 445540, Note_on_c, 0, 79, 75
1, 445547, Note_on_c, 0, 74, 81
1, 445553, Note_on_c, 0, 84, 81
1, 445559, Note_on_c, 0, 27, 54
1, 445566, Note_on_c, 0, 82, 43
1, 445582, Note_off_c, 0, 38, 63
1, 445583, Note_off_c, 0, 26, 66
1, 445595, Note_off_c, 0, 82, 56
1, 445599, Note_off_c, 0, 27, 45
1, 445602, Note_off_c, 0, 86, 64
1, 445611, Note_off_c, 0, 79, 65
1, 445613, Note_off_c, 0, 74, 64
1, 445622, Note_off_c, 0, 84, 66
1, 445657, Control_c, 0, 64, 66
1, 445672, Control_c, 0, 64, 0
1, 445701, Note_on_c, 0, 40, 93
1, 445702, Control_c, 0, 64, 51
1, 445705, Note_on_c, 0, 84, 99
1, 445706, Note_on_c, 0, 28, 95
1, 445708, Note_on_c, 0, 81, 91
1, 445713, Note_on_c, 0, 72, 89
1, 445714, Note_on_c, 0, 77, 81
1, 445717, Control_c, 0, 64, 85
1, 445732, Control_c, 0, 64, 127
1, 445735, Note_off_c, 0, 72, 68
1, 445739, Note_off_c, 0, 77, 70
1, 445740, Note_off_c, 0, 28, 67
1, 445741, Note_off_c, 0, 40, 65
1, 445755, Note_off_c, 0, 81, 63
1, 445760, Note_off_c, 0, 84, 66
1, 445868, Note_on_c, 0, 72, 68
1, 445869, Note_on_c, 0, 48, 74
1, 445887, Note_on_c, 0, 65, 61
1, 445893, Note_off_c, 0, 48, 65
1, 445902, Note_on_c, 0, 36, 28
1, 445904, Note_on_c, 0, 35, 41
1, 445908, Note_off_c, 0, 65, 63
1, 445914, Note_off_c, 0, 72, 65
1, 445951, Note_off_c, 0, 36, 39
1, 445953, Note_off_c, 0, 35, 45
1, 446005, Note_on_c, 0, 34, 24
1, 446045, Poly_aftertouch_c, 0, 31, 127
1, 446051, Note_on_c, 0, 96, 105
1, 446054, Note_on_c, 0, 43, 92
1, 446056, Note_on_c, 0, 31, 45
1, 446077, Note_on_c, 0, 84, 65
1, 446094, Note_off_c, 0, 84, 67
1, 446106, Note_off_c, 0, 43, 65
1, 446107, Note_off_c, 0, 96, 66
1, 446122, Note_off_c, 0, 31, 63
1, 446128, Note_off_c, 0, 34, 22
1, 446209, Note_on_c, 0, 40, 91
1, 446214, Note_on_c, 0, 28, 87
1, 446221, Note_on_c, 0, 93, 103
1, 446232, Note_on_c, 0, 26, 55
1, 446233, Note_off_c, 0, 26, 127
1, 446233, Note_off_c, 0, 40, 68
1, 446244, Note_off_c, 0, 28, 63
1, 446256, Note_on_c, 0, 81, 51
1, 446268, Note_off_c, 0, 93, 65
1, 446280, Note_off_c, 0, 81, 58
1, 446285, Poly_aftertouch_c, 0, 26, 0
1, 446323, Note_on_c, 0, 82, 67
1, 446348, Note_on_c, 0, 85, 49
1, 446354, Poly_aftertouch_c, 0, 40, 127
1, 446377, Control_c, 0, 64, 74
1, 446388, Poly_aftertouch_c, 0, 40, 0
1, 446391, Control_c, 0, 64, 0
1, 446401, Note_off_c, 0, 82, 0
1, 446409, Note_on_c, 0, 50, 102
1, 446415, Note_on_c, 0, 91, 104
1, 446419, Note_on_c, 0, 81, 76
1, 446420, Note_off_c, 0, 85, 0
1, 446421, Note_on_c, 0, 38, 94
1, 446427, Note_on_c, 0, 85, 23
1, 446430, Note_on_c, 0, 84, 86
1, 446433, Note_on_c, 0, 77, 79
1, 446434, Note_on_c, 0, 79, 71
1, 446449, Note_off_c, 0, 50, 67
1, 446453, Poly_aftertouch_c, 0, 82, 0
1, 446453, Note_off_c, 0, 38, 65
1, 446462, Note_off_c, 0, 85, 49
1, 446463, Note_on_c, 0, 39, 18
1, 446480, Control_c, 0, 64, 66
1, 446495, Control_c, 0, 64, 112
1, 446510, Control_c, 0, 64, 127
1, 446511, Note_off_c, 0, 39, 33
1, 446521, Note_off_c, 0, 77, 63
1, 446522, Note_off_c, 0, 79, 60
1, 446558, Note_off_c, 0, 84, 64
1, 446577, Note_off_c, 0, 81, 63
1, 446586, Note_on_c, 0, 38, 94
1, 446593, Note_on_c, 0, 26, 88
1, 446619, Note_off_c, 0, 38, 65
1, 446622, Note_off_c, 0, 26, 66
1, 446630, Note_on_c, 0, 77, 71
1, 446630, Note_on_c, 0, 79, 64
1, 446659, Note_off_c, 0, 77, 65
1, 446663, Note_off_c, 0, 79, 63
1, 446711, Note_off_c, 0, 91, 55
1, 446740, Control_c, 0, 64, 101
1, 446754, Control_c, 0, 64, 62
1, 446769, Control_c, 0, 64, 44
1, 446784, Control_c, 0, 64, 55
1, 446789, Note_on_c, 0, 91, 99
1, 446791, Note_on_c, 0, 72, 92
1, 446792, Note_on_c, 0, 82, 94
1, 446793, Note_on_c, 0, 67, 84
1, 446793, Note_on_c, 0, 79, 95
1, 446793, Note_on_c, 0, 86, 79
1, 446796, Note_on_c, 0, 62, 87
1, 446796, Note_on_c, 0, 70, 80
1, 446799, Control_c, 0, 64, 94
1, 446800, Note_on_c, 0, 74, 76
1, 446814, Note_off_c, 0, 72, 69
1, 446814, Control_c, 0, 64, 127
1, 446815, Note_off_c, 0, 74, 71
1, 446819, Note_off_c, 0, 70, 69
1, 446831, Note_off_c, 0, 67, 62
1, 446841, Note_off_c, 0, 62, 66
1, 446900, Note_off_c, 0, 79, 61
1, 446912, Poly_aftertouch_c, 0, 89, 0
1, 446924, Note_off_c, 0, 91, 67
1, 446939, Note_off_c, 0, 82, 63
1, 446951, Note_off_c, 0, 86, 61
1, 446963, Poly_aftertouch_c, 0, 70, 0
1, 446984, Note_on_c, 0, 52, 86
1, 446996, Note_on_c, 0, 93, 101
1, 446997, Note_on_c, 0, 40, 89
1, 446999, Note_on_c, 0, 82, 78
1, 447002, Note_on_c, 0, 79, 90
1, 447008, Note_on_c, 0, 50, 66
1, 447011, Note_off_c, 0, 52, 69
1, 447014, Note_on_c, 0, 86, 48
1, 447020, Note_off_c, 0, 40, 66
1, 447030, Note_off_c, 0, 50, 63
1, 447042, Note_off_c, 0, 86, 54
1, 447046, Note_on_c, 0, 81, 23
1, 447047, Note_off_c, 0, 82, 65
1, 447060, Note_off_c, 0, 93, 64
1, 447081, Note_off_c, 0, 81, 50
1, 447087, Note_off_c, 0, 79, 57
1, 447141, Poly_aftertouch_c, 0, 40, 127
1, 447176, Poly_aftertouch_c, 0, 40, 0
1, 447258, Control_c, 0, 64, 70
1, 447260, Note_on_c, 0, 86, 63
1, 447261, Note_on_c, 0, 91, 96
1, 447262, Note_on_c, 0, 40, 108
1, 447267, Note_on_c, 0, 82, 87
1, 447269, Note_on_c, 0, 79, 96
1, 447279, Note_on_c, 0, 28, 100
1, 447280, Control_c, 0, 64, 0
1, 447281, Note_on_c, 0, 84, 84
1, 447354, Control_c, 0, 64, 40
1, 447357, Note_off_c, 0, 28, 62
1, 447369, Control_c, 0, 64, 84
1, 447374, Note_off_c, 0, 40, 66
1, 447384, Control_c, 0, 64, 127
1, 447402, Note_off_c, 0, 91, 64
1, 447437, Note_off_c, 0, 79, 66
1, 447437, Note_off_c, 0, 86, 64
1, 447443, Note_off_c, 0, 84, 62
1, 447457, Note_off_c, 0, 82, 62
1, 447509, Note_on_c, 0, 61, 90
1, 447515, Note_on_c, 0, 49, 76
1, 447551, Note_on_c, 0, 47, 25
1, 447559, Note_off_c, 0, 61, 62
1, 447585, Note_off_c, 0, 47, 45
1, 447589, Note_off_c, 0, 49, 60
1, 447596, Note_on_c, 0, 48, 3
1, 447606, Note_off_c, 0, 48, 0
1, 447621, Note_on_c, 0, 65, 62
1, 447634, Poly_aftertouch_c, 0, 48, 0
1, 447637, Note_on_c, 0, 67, 77
1, 447644, Note_off_c, 0, 65, 64
1, 447649, Note_on_c, 0, 60, 95
1, 447652, Note_on_c, 0, 48, 64
1, 447666, Note_on_c, 0, 69, 79
1, 447675, Note_off_c, 0, 67, 63
1, 447687, Note_on_c, 0, 49, 47
1, 447689, Note_on_c, 0, 47, 19
1, 447690, Note_off_c, 0, 47, 127
1, 447698, Note_on_c, 0, 71, 80
1, 447698, Note_off_c, 0, 60, 63
1, 447705, Note_off_c, 0, 69, 64
1, 447707, Note_off_c, 0, 48, 64
1, 447709, Note_off_c, 0, 49, 63
1, 447725, Note_on_c, 0, 72, 85
1, 447725, Note_off_c, 0, 71, 66
1, 447729, Poly_aftertouch_c, 0, 47, 0
1, 447747, Note_on_c, 0, 74, 86
1, 447747, Note_off_c, 0, 72, 67
1, 447766, Note_on_c, 0, 59, 92
1, 447770, Note_on_c, 0, 76, 89
1, 447770, Note_off_c, 0, 74, 71
1, 447782, Note_on_c, 0, 47, 93
1, 447790, Note_off_c, 0, 76, 70
1, 447792, Note_on_c, 0, 77, 85
1, 447811, Note_on_c, 0, 79, 86
1, 447813, Note_off_c, 0, 77, 70
1, 447830, Note_on_c, 0, 81, 89
1, 447830, Note_off_c, 0, 79, 70
1, 447836, Note_off_c, 0, 59, 67
1, 447837, Note_off_c, 0, 47, 63
1, 447848, Note_on_c, 0, 83, 93
1, 447848, Note_off_c, 0, 81, 70
1, 447868, Note_off_c, 0, 83, 72
1, 447869, Note_on_c, 0, 84, 86
1, 447889, Note_on_c, 0, 86, 86
1, 447889, Note_off_c, 0, 84, 71
1, 447890, Note_on_c, 0, 79, 29
1, 447891, Note_off_c, 0, 79, 127
1, 447897, Note_on_c, 0, 58, 105
1, 447901, Poly_aftertouch_c, 0, 57, 0
1, 447907, Note_on_c, 0, 88, 88
1, 447908, Note_off_c, 0, 86, 70
1, 447909, Note_on_c, 0, 46, 99
1, 447911, Note_on_c, 0, 81, 26
1, 447912, Note_off_c, 0, 81, 127
1, 447924, Note_on_c, 0, 89, 92
1, 447926, Note_off_c, 0, 88, 71
1, 447928, Poly_aftertouch_c, 0, 76, 0
1, 447929, Note_on_c, 0, 83, 31
1, 447930, Note_off_c, 0, 83, 127
1, 447938, Note_off_c, 0, 58, 68
1, 447941, Note_on_c, 0, 91, 92
1, 447943, Note_off_c, 0, 89, 71
1, 447948, Note_on_c, 0, 84, 34
1, 447949, Note_off_c, 0, 84, 127
1, 447956, Note_on_c, 0, 93, 93
1, 447956, Note_off_c, 0, 91, 75
1, 447966, Note_off_c, 0, 46, 62
1, 447968, Note_on_c, 0, 86, 31
1, 447969, Note_off_c, 0, 86, 127
1, 447971, Note_on_c, 0, 95, 96
1, 447972, Note_off_c, 0, 93, 71
1, 447978, Poly_aftertouch_c, 0, 84, 0
1, 447982, Note_on_c, 0, 88, 32
1, 447983, Note_off_c, 0, 88, 127
1, 447986, Note_on_c, 0, 96, 98
1, 447987, Note_off_c, 0, 95, 70
1, 447995, Poly_aftertouch_c, 0, 59, 127
1, 448000, Note_on_c, 0, 89, 32
1, 448001, Note_off_c, 0, 89, 127
1, 448001, Note_on_c, 0, 98, 90
1, 448002, Poly_aftertouch_c, 0, 86, 0
1, 448004, Note_off_c, 0, 96, 75
1, 448013, Poly_aftertouch_c, 0, 88, 0
1, 448016, Note_on_c, 0, 100, 97
1, 448019, Note_off_c, 0, 98, 68
1, 448019, Poly_aftertouch_c, 0, 59, 0
1, 448038, Poly_aftertouch_c, 0, 89, 0
1, 448039, Note_on_c, 0, 101, 94
1, 448040, Note_off_c, 0, 100, 76
1, 448056, Note_off_c, 0, 101, 74
1, 448058, Note_on_c, 0, 103, 87
1, 448070, Note_off_c, 0, 103, 72
1, 448101, Poly_aftertouch_c, 0, 91, 0
1, 448104, Note_on_c, 0, 42, 32
1, 448154, Note_off_c, 0, 42, 46
1, 448219, Poly_aftertouch_c, 0, 32, 0
1, 448235, Note_on_c, 0, 42, 97
1, 448238, Note_on_c, 0, 103, 118
1, 448246, Note_on_c, 0, 34, 90
1, 448247, Note_on_c, 0, 30, 88
1, 448248, Note_on_c, 0, 100, 94
1, 448252, Note_on_c, 0, 91, 96
1, 448252, Note_on_c, 0, 98, 75
1, 448261, Note_on_c, 0, 35, 77
1, 448264, Note_on_c, 0, 32, 51
1, 448268, Note_off_c, 0, 91, 75
1, 448297, Control_c, 0, 64, 97
1, 448311, Note_on_c, 0, 36, 21
1, 448312, Control_c, 0, 64, 46
1, 448326, Control_c, 0, 64, 0
1, 448328, Note_off_c, 0, 35, 54
1, 448338, Note_off_c, 0, 30, 60
1, 448344, Note_off_c, 0, 32, 38
1, 448351, Note_off_c, 0, 36, 40
1, 448359, Poly_aftertouch_c, 0, 43, 0
1, 448405, Poly_aftertouch_c, 0, 97, 0
1, 448430, Control_c, 0, 64, 74
1, 448445, Control_c, 0, 64, 127
1, 448459, Note_on_c, 0, 97, 98
1, 448475, Note_on_c, 0, 32, 25
1, 448526, Note_off_c, 0, 32, 50
1, 448536, Poly_aftertouch_c, 0, 30, 0
1, 448541, Note_off_c, 0, 34, 62
1, 448541, Note_off_c, 0, 42, 61
1, 448544, Note_off_c, 0, 98, 48
1, 448551, Note_off_c, 0, 100, 50
1, 448594, Note_off_c, 0, 103, 60
1, 448597, Note_on_c, 0, 96, 109
1, 448600, Note_off_c, 0, 97, 65
1, 448705, Note_on_c, 0, 95, 95
1, 448803, Note_off_c, 0, 96, 64
1, 448812, Note_on_c, 0, 94, 102
1, 448828, Note_off_c, 0, 95, 65
1, 448857, Note_off_c, 0, 94, 66
1, 448906, Note_on_c, 0, 66, 88
1, 448906, Note_on_c, 0, 70, 87
1, 448906, Note_on_c, 0, 78, 104
1, 448941, Note_off_c, 0, 66, 62
1, 448943, Note_off_c, 0, 78, 67
1, 448943, Note_on_c, 0, 91, 95
1, 448949, Note_on_c, 0, 89, 88
1, 448949, Note_on_c, 0, 88, 91
1, 448952, Note_on_c, 0, 86, 89
1, 448955, Note_off_c, 0, 70, 64
1, 448972, Note_on_c, 0, 79, 55
1, 448974, Note_on_c, 0, 81, 58
1, 448983, Note_off_c, 0, 89, 0
1, 448983, Note_on_c, 0, 89, 54
1, 448993, Note_off_c, 0, 79, 63
1, 448996, Note_off_c, 0, 81, 57
1, 449007, Note_on_c, 0, 87, 22
1, 449019, Note_off_c, 0, 91, 68
1, 449051, Note_off_c, 0, 87, 40
1, 449103, Note_on_c, 0, 85, 95
1, 449136, Note_off_c, 0, 86, 57
1, 449226, Note_off_c, 0, 88, 29
1, 449227, Note_on_c, 0, 84, 99
1, 449260, Note_off_c, 0, 85, 61
1, 449290, Note_off_c, 0, 89, 48
1, 449320, Note_off_c, 0, 84, 0
1, 449340, Note_on_c, 0, 83, 93
1, 449358, Poly_aftertouch_c, 0, 84, 127
1, 449376, Poly_aftertouch_c, 0, 84, 0
1, 449449, Note_on_c, 0, 82, 95
1, 449464, Note_off_c, 0, 83, 65
1, 449478, Poly_aftertouch_c, 0, 32, 0
1, 449492, Note_off_c, 0, 82, 65
1, 449608, Note_on_c, 0, 40, 102
1, 449612, Note_on_c, 0, 79, 94
1, 449617, Note_on_c, 0, 31, 85
1, 449619, Note_on_c, 0, 28, 79
1, 449620, Note_on_c, 0, 76, 86
1, 449628, Note_on_c, 0, 74, 76
1, 449654, Note_on_c, 0, 38, 26
1, 449691, Control_c, 0, 64, 89
1, 449693, Note_off_c, 0, 38, 35
1, 449706, Control_c, 0, 64, 48
1, 449721, Control_c, 0, 64, 0
1, 449780, Control_c, 0, 64, 15
1, 449795, Control_c, 0, 64, 47
1, 449798, Note_on_c, 0, 73, 84
1, 449809, Control_c, 0, 64, 64
1, 449824, Control_c, 0, 64, 81
1, 449837, Note_off_c, 0, 74, 58
1, 449839, Control_c, 0, 64, 127
1, 449874, Note_off_c, 0, 28, 60
1, 449903, Note_off_c, 0, 31, 62
1, 449926, Note_off_c, 0, 40, 60
1, 449952, Note_on_c, 0, 72, 96
1, 449979, Note_off_c, 0, 79, 62
1, 449982, Note_off_c, 0, 76, 49
1, 449992, Note_off_c, 0, 73, 62
1, 450085, Note_on_c, 0, 71, 83
1, 450119, Note_off_c, 0, 72, 61
1, 450203, Note_on_c, 0, 70, 83
1, 450210, Note_off_c, 0, 71, 0
1, 450229, Poly_aftertouch_c, 0, 71, 0
1, 450258, Note_off_c, 0, 70, 62
1, 450376, Note_on_c, 0, 54, 108
1, 450383, Note_on_c, 0, 67, 79
1, 450387, Note_on_c, 0, 46, 95
1, 450393, Note_on_c, 0, 42, 81
1, 450407, Note_on_c, 0, 64, 50
1, 450410, Note_on_c, 0, 62, 53
1, 450484, Control_c, 0, 64, 102
1, 450499, Control_c, 0, 64, 92
1, 450514, Control_c, 0, 64, 98
1, 450529, Control_c, 0, 64, 127
1, 450556, Note_on_c, 0, 61, 76
1, 450607, Note_off_c, 0, 62, 55
1, 450610, Note_off_c, 0, 64, 57
1, 450708, Note_on_c, 0, 60, 75
1, 450716, Note_off_c, 0, 61, 54
1, 450733, Note_off_c, 0, 67, 62
1, 450793, Note_off_c, 0, 54, 61
1, 450840, Note_on_c, 0, 59, 77
1, 450843, Note_off_c, 0, 46, 64
1, 450862, Note_off_c, 0, 42, 61
1, 450870, Note_off_c, 0, 60, 59
1, 450976, Note_on_c, 0, 58, 84
1, 450985, Note_off_c, 0, 59, 66
1, 451054, Note_off_c, 0, 58, 64
1, 451133, Note_on_c, 0, 67, 77
1, 451135, Note_on_c, 0, 64, 70
1, 451139, Note_on_c, 0, 40, 83
1, 451143, Note_on_c, 0, 62, 59
1, 451158, Note_on_c, 0, 31, 66
1, 451161, Note_on_c, 0, 55, 42
1, 451168, Note_on_c, 0, 28, 42
1, 451181, Note_on_c, 0, 26, 49
1, 451194, Note_off_c, 0, 55, 57
1, 451229, Note_off_c, 0, 26, 47
1, 451278, Control_c, 0, 64, 102
1, 451292, Note_on_c, 0, 61, 75
1, 451292, Control_c, 0, 64, 92
1, 451307, Control_c, 0, 64, 94
1, 451322, Control_c, 0, 64, 127
1, 451426, Note_off_c, 0, 28, 62
1, 451431, Note_off_c, 0, 62, 25
1, 451441, Note_on_c, 0, 60, 82
1, 451452, Note_off_c, 0, 67, 56
1, 451455, Note_off_c, 0, 31, 60
1, 451460, Note_off_c, 0, 64, 36
1, 451478, Note_off_c, 0, 61, 62
1, 451483, Note_off_c, 0, 40, 62
1, 451582, Note_on_c, 0, 59, 76
1, 451630, Note_off_c, 0, 60, 54
1, 451731, Note_on_c, 0, 58, 76
1, 451734, Note_off_c, 0, 59, 65
1, 451852, Note_off_c, 0, 58, 64
1, 451928, Note_on_c, 0, 64, 63
1, 451929, Note_on_c, 0, 67, 69
1, 451942, Note_on_c, 0, 62, 53
1, 451946, Note_on_c, 0, 54, 111
1, 451955, Note_on_c, 0, 42, 86
1, 451958, Note_on_c, 0, 46, 84
1, 452100, Control_c, 0, 64, 80
1, 452115, Control_c, 0, 64, 63
1, 452121, Note_on_c, 0, 61, 71
1, 452130, Control_c, 0, 64, 62
1, 452145, Control_c, 0, 64, 71
1, 452160, Control_c, 0, 64, 101
1, 452175, Control_c, 0, 64, 127
1, 452181, Note_off_c, 0, 62, 50
1, 452258, Note_off_c, 0, 64, 52
1, 452285, Note_on_c, 0, 60, 78
1, 452318, Note_off_c, 0, 67, 59
1, 452323, Note_off_c, 0, 61, 62
1, 452442, Note_on_c, 0, 59, 70
1, 452468, Note_off_c, 0, 60, 56
1, 452561, Note_on_c, 0, 58, 79
1, 452563, Note_off_c, 0, 59, 65
1, 452612, Note_off_c, 0, 58, 65
1, 452720, Note_on_c, 0, 67, 68
1, 452721, Note_on_c, 0, 64, 61
1, 452732, Note_on_c, 0, 62, 52
1, 452741, Note_on_c, 0, 55, 39
1, 452774, Note_off_c, 0, 55, 50
1, 452878, Note_on_c, 0, 61, 66
1, 452916, Note_off_c, 0, 62, 57
1, 453019, Note_off_c, 0, 64, 36
1, 453025, Note_off_c, 0, 67, 62
1, 453031, Note_off_c, 0, 61, 63
1, 453039, Note_on_c, 0, 60, 67
1, 453170, Note_off_c, 0, 54, 53
1, 453176, Note_off_c, 0, 60, 54
1, 453186, Note_on_c, 0, 59, 66
1, 453314, Note_off_c, 0, 59, 64
1, 453325, Note_on_c, 0, 58, 70
1, 453325, Note_off_c, 0, 42, 34
1, 453409, Note_off_c, 0, 58, 64
1, 453500, Note_on_c, 0, 67, 66
1, 453503, Note_on_c, 0, 64, 59
1, 453509, Note_on_c, 0, 52, 98
1, 453522, Note_on_c, 0, 62, 49
1, 453523, Note_on_c, 0, 43, 78
1, 453540, Note_on_c, 0, 40, 68
1, 453545, Note_off_c, 0, 46, 58
1, 453564, Note_on_c, 0, 41, 55
1, 453657, Control_c, 0, 64, 104
1, 453669, Note_off_c, 0, 41, 26
1, 453672, Control_c, 0, 64, 72
1, 453687, Control_c, 0, 64, 58
1, 453696, Note_on_c, 0, 61, 69
1, 453701, Control_c, 0, 64, 48
1, 453716, Control_c, 0, 64, 47
1, 453731, Control_c, 0, 64, 48
1, 453746, Control_c, 0, 64, 56
1, 453761, Control_c, 0, 64, 69
1, 453775, Control_c, 0, 64, 104
1, 453790, Control_c, 0, 64, 127
1, 453832, Note_off_c, 0, 62, 29
1, 453856, Note_on_c, 0, 60, 75
1, 453874, Note_off_c, 0, 61, 60
1, 453875, Note_off_c, 0, 64, 49
1, 453902, Note_off_c, 0, 67, 62
1, 454003, Note_on_c, 0, 59, 74
1, 454034, Note_off_c, 0, 60, 53
1, 454118, Note_off_c, 0, 59, 59
1, 454139, Note_on_c, 0, 58, 71
1, 454208, Note_off_c, 0, 58, 64
1, 454299, Note_on_c, 0, 67, 67
1, 454305, Note_on_c, 0, 62, 60
1, 454305, Note_on_c, 0, 64, 58
1, 454397, Poly_aftertouch_c, 0, 55, 0
1, 454459, Note_on_c, 0, 61, 64
1, 454473, Note_off_c, 0, 62, 54
1, 454530, Note_off_c, 0, 64, 35
1, 454589, Note_off_c, 0, 61, 64
1, 454605, Note_on_c, 0, 60, 56
1, 454627, Note_off_c, 0, 52, 49
1, 454732, Note_off_c, 0, 40, 53
1, 454745, Note_on_c, 0, 59, 54
1, 454748, Note_off_c, 0, 43, 56
1, 454875, Note_off_c, 0, 59, 60
1, 454895, Note_on_c, 0, 58, 60
1, 454895, Note_off_c, 0, 60, 36
1, 454968, Note_off_c, 0, 58, 64
1, 455185, Note_on_c, 0, 62, 46
1, 455190, Note_on_c, 0, 34, 95
1, 455199, Note_on_c, 0, 42, 80
1, 455206, Note_on_c, 0, 65, 52
1, 455209, Note_on_c, 0, 30, 77
1, 455274, Note_off_c, 0, 62, 51
1, 455274, Control_c, 0, 64, 97
1, 455289, Control_c, 0, 64, 67
1, 455304, Control_c, 0, 64, 48
1, 455314, Note_off_c, 0, 65, 54
1, 455319, Control_c, 0, 64, 29
1, 455324, Note_on_c, 0, 64, 54
1, 455334, Control_c, 0, 64, 24
1, 455348, Control_c, 0, 64, 25
1, 455358, Note_on_c, 0, 60, 30
1, 455363, Control_c, 0, 64, 42
1, 455367, Note_off_c, 0, 67, 60
1, 455378, Control_c, 0, 64, 63
1, 455393, Control_c, 0, 64, 88
1, 455407, Note_off_c, 0, 60, 45
1, 455408, Control_c, 0, 64, 127
1, 455415, Note_off_c, 0, 64, 59
1, 455457, Note_on_c, 0, 62, 62
1, 455457, Note_on_c, 0, 65, 57
1, 455531, Note_off_c, 0, 62, 59
1, 455539, Note_off_c, 0, 65, 47
1, 455557, Note_on_c, 0, 64, 54
1, 455576, Note_on_c, 0, 60, 49
1, 455634, Note_off_c, 0, 60, 57
1, 455638, Note_off_c, 0, 64, 61
1, 455680, Note_on_c, 0, 62, 54
1, 455680, Note_on_c, 0, 65, 47
1, 455725, Note_off_c, 0, 62, 60
1, 455741, Note_off_c, 0, 65, 54
1, 455764, Note_on_c, 0, 64, 55
1, 455803, Note_off_c, 0, 64, 64
1, 455873, Note_on_c, 0, 65, 59
1, 455900, Note_on_c, 0, 69, 37
1, 455910, Note_off_c, 0, 65, 60
1, 455947, Note_off_c, 0, 69, 47
1, 455990, Note_on_c, 0, 64, 51
1, 455990, Note_on_c, 0, 67, 46
1, 456038, Note_off_c, 0, 64, 62
1, 456046, Note_off_c, 0, 67, 49
1, 456103, Note_on_c, 0, 69, 41
1, 456104, Note_on_c, 0, 65, 51
1, 456140, Note_off_c, 0, 65, 54
1, 456150, Note_off_c, 0, 69, 46
1, 456189, Note_on_c, 0, 67, 45
1, 456199, Note_on_c, 0, 64, 49
1, 456273, Note_off_c, 0, 64, 57
1, 456273, Note_off_c, 0, 67, 53
1, 456310, Note_on_c, 0, 65, 51
1, 456314, Note_on_c, 0, 69, 47
1, 456357, Note_off_c, 0, 65, 54
1, 456385, Note_off_c, 0, 69, 60
1, 456390, Note_off_c, 0, 34, 61
1, 456391, Note_off_c, 0, 42, 59
1, 456392, Note_off_c, 0, 30, 59
1, 456395, Note_on_c, 0, 64, 57
1, 456406, Note_on_c, 0, 67, 51
1, 456459, Control_c, 0, 64, 92
1, 456473, Note_off_c, 0, 64, 57
1, 456474, Note_off_c, 0, 67, 52
1, 456474, Control_c, 0, 64, 64
1, 456489, Control_c, 0, 64, 49
1, 456491, Note_on_c, 0, 42, 86
1, 456497, Note_on_c, 0, 34, 80
1, 456499, Note_on_c, 0, 30, 76
1, 456503, Control_c, 0, 64, 55
1, 456512, Note_on_c, 0, 69, 54
1, 456518, Note_on_c, 0, 65, 44
1, 456518, Control_c, 0, 64, 68
1, 456533, Control_c, 0, 64, 94
1, 456536, Note_off_c, 0, 30, 65
1, 456545, Note_off_c, 0, 42, 58
1, 456549, Control_c, 0, 64, 127
1, 456554, Note_off_c, 0, 34, 59
1, 456554, Note_off_c, 0, 65, 55
1, 456573, Note_off_c, 0, 69, 58
1, 456601, Note_on_c, 0, 64, 59
1, 456604, Note_on_c, 0, 67, 55
1, 456679, Note_off_c, 0, 67, 54
1, 456682, Note_off_c, 0, 64, 49
1, 456721, Note_on_c, 0, 65, 46
1, 456727, Note_on_c, 0, 69, 50
1, 456766, Note_off_c, 0, 65, 58
1, 456777, Note_off_c, 0, 69, 59
1, 456807, Note_on_c, 0, 67, 55
1, 456829, Note_on_c, 0, 64, 41
1, 456867, Note_off_c, 0, 64, 58
1, 456867, Note_off_c, 0, 67, 57
1, 456899, Note_on_c, 0, 65, 46
1, 456926, Note_on_c, 0, 69, 36
1, 456951, Note_off_c, 0, 65, 58
1, 456984, Note_on_c, 0, 64, 51
1, 457008, Note_on_c, 0, 67, 50
1, 457026, Note_off_c, 0, 64, 65
1, 457046, Note_off_c, 0, 69, 32
1, 457050, Note_off_c, 0, 67, 59
1, 457090, Control_c, 0, 67, 9
1, 457105, Control_c, 0, 67, 12
1, 457119, Control_c, 0, 67, 14
1, 457134, Control_c, 0, 67, 16
1, 457149, Control_c, 0, 67, 19
1, 457164, Control_c, 0, 67, 23
1, 457179, Control_c, 0, 67, 30
1, 457193, Control_c, 0, 67, 38
1, 457208, Control_c, 0, 67, 48
1, 457223, Control_c, 0, 67, 56
1, 457227, Note_on_c, 0, 74, 47
1, 457233, Note_on_c, 0, 69, 57
1, 457238, Control_c, 0, 67, 64
1, 457241, Note_on_c, 0, 71, 39
1, 457252, Control_c, 0, 67, 72
1, 457254, Note_off_c, 0, 69, 62
1, 457257, Note_on_c, 0, 64, 28
1, 457267, Note_off_c, 0, 71, 54
1, 457267, Control_c, 0, 67, 79
1, 457272, Note_on_c, 0, 60, 13
1, 457282, Control_c, 0, 67, 87
1, 457293, Note_off_c, 0, 64, 54
1, 457297, Control_c, 0, 67, 96
1, 457299, Note_off_c, 0, 74, 61
1, 457312, Control_c, 0, 67, 100
1, 457317, Note_off_c, 0, 60, 51
1, 457326, Control_c, 0, 67, 101
1, 457333, Note_on_c, 0, 76, 41
1, 457342, Control_c, 0, 67, 101
1, 457350, Note_on_c, 0, 72, 39
1, 457357, Control_c, 0, 67, 102
1, 457372, Control_c, 0, 67, 104
1, 457379, Note_off_c, 0, 76, 56
1, 457387, Control_c, 0, 67, 107
1, 457400, Note_off_c, 0, 72, 61
1, 457402, Control_c, 0, 67, 109
1, 457416, Control_c, 0, 67, 110
1, 457420, Note_on_c, 0, 64, 36
1, 457431, Note_on_c, 0, 74, 53
1, 457431, Control_c, 0, 67, 110
1, 457432, Note_on_c, 0, 67, 52
1, 457442, Note_on_c, 0, 71, 44
1, 457443, Note_on_c, 0, 60, 33
1, 457446, Control_c, 0, 67, 111
1, 457461, Control_c, 0, 67, 112
1, 457475, Control_c, 0, 67, 113
1, 457477, Note_off_c, 0, 67, 57
1, 457478, Note_off_c, 0, 60, 50
1, 457483, Note_off_c, 0, 64, 62
1, 457490, Control_c, 0, 67, 114
1, 457493, Note_off_c, 0, 74, 56
1, 457503, Note_off_c, 0, 71, 57
1, 457505, Control_c, 0, 67, 116
1, 457520, Control_c, 0, 67, 117
1, 457525, Note_on_c, 0, 76, 47
1, 457526, Note_on_c, 0, 72, 51
1, 457534, Control_c, 0, 67, 117
1, 457549, Control_c, 0, 67, 118
1, 457564, Control_c, 0, 67, 119
1, 457579, Control_c, 0, 67, 120
1, 457594, Control_c, 0, 67, 121
1, 457599, Note_off_c, 0, 72, 48
1, 457606, Note_off_c, 0, 76, 52
1, 457609, Control_c, 0, 67, 122
1, 457624, Control_c, 0, 67, 123
1, 457630, Note_on_c, 0, 65, 38
1, 457639, Control_c, 0, 67, 124
1, 457640, Note_on_c, 0, 74, 50
1, 457642, Note_on_c, 0, 62, 45
1, 457644, Note_on_c, 0, 71, 50
1, 457654, Control_c, 0, 67, 124
1, 457668, Control_c, 0, 67, 125
1, 457674, Note_off_c, 0, 65, 48
1, 457683, Control_c, 0, 67, 125
1, 457684, Note_off_c, 0, 62, 61
1, 457692, Note_off_c, 0, 71, 58
1, 457703, Note_off_c, 0, 74, 59
1, 457713, Control_c, 0, 67, 126
1, 457731, Note_on_c, 0, 72, 44
1, 457740, Note_on_c, 0, 76, 54
1, 457743, Control_c, 0, 67, 126
1, 457765, Control_c, 0, 67, 127
1, 457800, Note_off_c, 0, 72, 36
1, 457806, Note_off_c, 0, 76, 52
1, 457815, Note_on_c, 0, 60, 42
1, 457840, Note_on_c, 0, 64, 40
1, 457844, Note_on_c, 0, 74, 51
1, 457845, Note_on_c, 0, 71, 47
1, 457868, Control_c, 0, 67, 127
1, 457874, Note_off_c, 0, 60, 43
1, 457883, Control_c, 0, 67, 126
1, 457892, Poly_aftertouch_c, 0, 67, 0
1, 457897, Note_off_c, 0, 71, 57
1, 457898, Control_c, 0, 67, 126
1, 457917, Note_off_c, 0, 74, 64
1, 457928, Control_c, 0, 67, 125
1, 457934, Note_on_c, 0, 72, 52
1, 457935, Note_off_c, 0, 64, 35
1, 457943, Control_c, 0, 67, 125
1, 457945, Note_on_c, 0, 76, 51
1, 457988, Control_c, 0, 67, 124
1, 458012, Note_off_c, 0, 72, 56
1, 458017, Note_on_c, 0, 62, 41
1, 458021, Note_off_c, 0, 76, 56
1, 458032, Control_c, 0, 67, 124
1, 458032, Note_on_c, 0, 65, 38
1, 458041, Note_on_c, 0, 74, 58
1, 458044, Note_on_c, 0, 71, 51
1, 458062, Control_c, 0, 67, 123
1, 458095, Note_off_c, 0, 71, 58
1, 458097, Note_off_c, 0, 62, 52
1, 458101, Note_off_c, 0, 74, 54
1, 458108, Note_off_c, 0, 65, 36
1, 458138, Note_on_c, 0, 72, 51
1, 458146, Note_on_c, 0, 76, 60
1, 458185, Note_on_c, 0, 60, 31
1, 458190, Note_off_c, 0, 72, 57
1, 458203, Note_off_c, 0, 76, 53
1, 458220, Note_on_c, 0, 64, 35
1, 458231, Note_on_c, 0, 74, 52
1, 458236, Note_on_c, 0, 71, 48
1, 458258, Note_off_c, 0, 71, 64
1, 458268, Note_off_c, 0, 60, 33
1, 458295, Note_off_c, 0, 74, 64
1, 458299, Control_c, 0, 67, 124
1, 458308, Note_on_c, 0, 72, 42
1, 458321, Note_on_c, 0, 76, 58
1, 458329, Control_c, 0, 67, 123
1, 458335, Note_off_c, 0, 72, 50
1, 458345, Note_off_c, 0, 64, 25
1, 458348, Note_off_c, 0, 76, 67
1, 458373, Control_c, 0, 67, 123
1, 458388, Note_on_c, 0, 62, 42
1, 458396, Note_on_c, 0, 65, 46
1, 458403, Control_c, 0, 67, 122
1, 458418, Control_c, 0, 67, 122
1, 458421, Note_on_c, 0, 74, 51
1, 458421, Note_on_c, 0, 77, 57
1, 458447, Control_c, 0, 67, 121
1, 458453, Note_off_c, 0, 74, 56
1, 458462, Control_c, 0, 67, 121
1, 458483, Note_off_c, 0, 62, 60
1, 458491, Control_c, 0, 67, 120
1, 458498, Note_off_c, 0, 77, 62
1, 458514, Note_off_c, 0, 65, 53
1, 458529, Control_c, 0, 67, 120
1, 458530, Note_on_c, 0, 79, 53
1, 458537, Note_on_c, 0, 76, 33
1, 458544, Control_c, 0, 67, 119
1, 458559, Control_c, 0, 67, 119
1, 458573, Control_c, 0, 67, 118
1, 458579, Note_off_c, 0, 76, 48
1, 458586, Note_off_c, 0, 79, 59
1, 458588, Control_c, 0, 67, 118
1, 458602, Note_on_c, 0, 60, 27
1, 458611, Note_on_c, 0, 64, 40
1, 458629, Note_on_c, 0, 77, 59
1, 458630, Note_on_c, 0, 74, 45
1, 458671, Note_off_c, 0, 74, 53
1, 458703, Note_off_c, 0, 77, 62
1, 458704, Note_on_c, 0, 76, 57
1, 458718, Note_on_c, 0, 79, 60
1, 458726, Note_off_c, 0, 64, 61
1, 458730, Note_off_c, 0, 60, 39
1, 458777, Note_on_c, 0, 65, 40
1, 458780, Note_off_c, 0, 76, 53
1, 458780, Note_on_c, 0, 62, 45
1, 458791, Note_off_c, 0, 79, 61
1, 458816, Note_on_c, 0, 74, 53
1, 458820, Note_on_c, 0, 77, 59
1, 458825, Control_c, 0, 67, 118
1, 458858, Note_off_c, 0, 74, 62
1, 458894, Note_off_c, 0, 77, 61
1, 458895, Note_off_c, 0, 62, 58
1, 458897, Note_on_c, 0, 76, 63
1, 458909, Note_off_c, 0, 65, 55
1, 458915, Note_on_c, 0, 79, 63
1, 458946, Note_off_c, 0, 76, 55
1, 458972, Note_on_c, 0, 60, 39
1, 458976, Note_off_c, 0, 79, 59
1, 458998, Note_on_c, 0, 64, 40
1, 459004, Control_c, 0, 67, 119
1, 459009, Note_on_c, 0, 81, 61
1, 459016, Note_on_c, 0, 77, 62
1, 459044, Note_off_c, 0, 77, 64
1, 459063, Control_c, 0, 67, 118
1, 459076, Note_off_c, 0, 81, 60
1, 459100, Note_on_c, 0, 76, 59
1, 459100, Note_on_c, 0, 79, 62
1, 459109, Note_off_c, 0, 60, 39
1, 459119, Note_off_c, 0, 64, 55
1, 459137, Control_c, 0, 67, 119
1, 459144, Note_off_c, 0, 79, 56
1, 459153, Note_off_c, 0, 76, 56
1, 459179, Note_on_c, 0, 65, 40
1, 459180, Note_on_c, 0, 62, 41
1, 459206, Note_on_c, 0, 77, 47
1, 459207, Note_on_c, 0, 74, 59
1, 459239, Note_off_c, 0, 74, 61
1, 459251, Note_off_c, 0, 77, 62
1, 459291, Note_on_c, 0, 76, 62
1, 459295, Note_off_c, 0, 62, 63
1, 459306, Note_on_c, 0, 72, 51
1, 459306, Control_c, 0, 67, 119
1, 459314, Note_off_c, 0, 65, 48
1, 459335, Control_c, 0, 67, 120
1, 459345, Note_off_c, 0, 72, 46
1, 459362, Note_on_c, 0, 60, 41
1, 459380, Note_on_c, 0, 64, 32
1, 459380, Note_off_c, 0, 76, 59
1, 459380, Control_c, 0, 67, 120
1, 459386, Note_on_c, 0, 74, 60
1, 459407, Note_on_c, 0, 77, 47
1, 459421, Note_off_c, 0, 74, 62
1, 459424, Control_c, 0, 67, 121
1, 459469, Control_c, 0, 67, 121
1, 459474, Note_off_c, 0, 77, 61
1, 459478, Note_on_c, 0, 72, 53
1, 459491, Note_on_c, 0, 76, 65
1, 459520, Note_off_c, 0, 60, 32
1, 459528, Control_c, 0, 67, 122
1, 459538, Note_off_c, 0, 72, 56
1, 459543, Control_c, 0, 64, 106
1, 459543, Control_c, 0, 67, 122
1, 459547, Note_off_c, 0, 64, 39
1, 459558, Control_c, 0, 64, 91
1, 459564, Note_off_c, 0, 76, 58
1, 459573, Control_c, 0, 64, 90
1, 459573, Control_c, 0, 67, 123
1, 459574, Note_on_c, 0, 65, 46
1, 459575, Note_on_c, 0, 74, 55
1, 459581, Note_on_c, 0, 62, 47
1, 459587, Control_c, 0, 64, 93
1, 459588, Note_on_c, 0, 71, 54
1, 459594, Note_on_c, 0, 77, 55
1, 459595, Note_off_c, 0, 74, 66
1, 459602, Control_c, 0, 64, 116
1, 459611, Note_off_c, 0, 71, 64
1, 459613, Poly_aftertouch_c, 0, 69, 127
1, 459617, Control_c, 0, 64, 127
1, 459621, Note_off_c, 0, 77, 66
1, 459632, Note_off_c, 0, 65, 54
1, 459648, Note_off_c, 0, 62, 55
1, 459657, Poly_aftertouch_c, 0, 69, 0
1, 459661, Control_c, 0, 67, 122
1, 459676, Control_c, 0, 67, 122
1, 459681, Note_on_c, 0, 76, 62
1, 459682, Note_on_c, 0, 79, 57
1, 459720, Control_c, 0, 67, 121
1, 459748, Note_off_c, 0, 76, 47
1, 459758, Note_on_c, 0, 60, 40
1, 459766, Note_on_c, 0, 64, 44
1, 459769, Note_off_c, 0, 79, 45
1, 459789, Note_on_c, 0, 77, 55
1, 459796, Control_c, 0, 67, 122
1, 459803, Note_on_c, 0, 74, 37
1, 459815, Note_off_c, 0, 60, 52
1, 459831, Note_off_c, 0, 74, 51
1, 459839, Note_off_c, 0, 64, 49
1, 459840, Control_c, 0, 67, 122
1, 459848, Note_off_c, 0, 77, 56
1, 459863, Note_on_c, 0, 76, 63
1, 459884, Control_c, 0, 67, 123
1, 459893, Note_on_c, 0, 79, 62
1, 459907, Note_off_c, 0, 76, 52
1, 459936, Note_on_c, 0, 62, 43
1, 459948, Note_on_c, 0, 65, 44
1, 459958, Note_on_c, 0, 69, 25
1, 459961, Note_off_c, 0, 79, 62
1, 459963, Note_on_c, 0, 74, 48
1, 459973, Note_on_c, 0, 77, 61
1, 459973, Control_c, 0, 64, 100
1, 459988, Control_c, 0, 64, 78
1, 460003, Control_c, 0, 64, 68
1, 460006, Note_off_c, 0, 69, 49
1, 460020, Note_off_c, 0, 74, 58
1, 460025, Control_c, 0, 64, 64
1, 460040, Control_c, 0, 64, 67
1, 460047, Note_off_c, 0, 77, 60
1, 460055, Control_c, 0, 64, 77
1, 460059, Note_on_c, 0, 76, 58
1, 460065, Note_off_c, 0, 62, 61
1, 460069, Control_c, 0, 64, 109
1, 460079, Note_on_c, 0, 79, 63
1, 460084, Control_c, 0, 64, 127
1, 460098, Note_off_c, 0, 65, 55
1, 460099, Control_c, 0, 67, 123
1, 460127, Note_off_c, 0, 76, 51
1, 460134, Note_on_c, 0, 60, 44
1, 460140, Note_on_c, 0, 67, 50
1, 460151, Note_off_c, 0, 79, 63
1, 460155, Note_on_c, 0, 64, 46
1, 460166, Note_on_c, 0, 74, 49
1, 460169, Note_on_c, 0, 77, 63
1, 460173, Control_c, 0, 64, 107
1, 460173, Control_c, 0, 67, 124
1, 460188, Control_c, 0, 64, 77
1, 460193, Note_off_c, 0, 67, 56
1, 460203, Control_c, 0, 64, 63
1, 460208, Note_off_c, 0, 74, 60
1, 460217, Control_c, 0, 64, 53
1, 460232, Control_c, 0, 64, 51
1, 460232, Control_c, 0, 67, 124
1, 460235, Note_off_c, 0, 77, 63
1, 460241, Note_on_c, 0, 76, 64
1, 460247, Control_c, 0, 64, 57
1, 460259, Note_on_c, 0, 79, 64
1, 460262, Control_c, 0, 64, 66
1, 460277, Control_c, 0, 64, 82
1, 460284, Note_off_c, 0, 60, 53
1, 460292, Control_c, 0, 64, 115
1, 460299, Note_off_c, 0, 64, 61
1, 460307, Control_c, 0, 64, 127
1, 460328, Note_on_c, 0, 65, 47
1, 460330, Note_on_c, 0, 69, 38
1, 460331, Note_off_c, 0, 76, 59
1, 460333, Note_on_c, 0, 62, 50
1, 460340, Note_off_c, 0, 79, 62
1, 460345, Note_on_c, 0, 74, 53
1, 460354, Note_on_c, 0, 77, 62
1, 460366, Control_c, 0, 67, 124
1, 460372, Note_off_c, 0, 69, 50
1, 460394, Note_off_c, 0, 74, 60
1, 460419, Note_off_c, 0, 77, 63
1, 460426, Note_on_c, 0, 76, 60
1, 460445, Note_on_c, 0, 79, 60
1, 460456, Note_off_c, 0, 62, 61
1, 460495, Note_off_c, 0, 76, 54
1, 460506, Note_off_c, 0, 65, 35
1, 460515, Note_on_c, 0, 60, 44
1, 460519, Note_off_c, 0, 79, 61
1, 460522, Note_on_c, 0, 64, 48
1, 460530, Note_on_c, 0, 74, 58
1, 460536, Note_on_c, 0, 77, 63
1, 460537, Note_on_c, 0, 67, 20
1, 460568, Note_off_c, 0, 60, 58
1, 460573, Note_off_c, 0, 74, 62
1, 460581, Note_off_c, 0, 67, 40
1, 460596, Note_off_c, 0, 64, 51
1, 460605, Note_off_c, 0, 77, 63
1, 460612, Note_on_c, 0, 76, 61
1, 460636, Note_on_c, 0, 79, 64
1, 460663, Control_c, 0, 64, 113
1, 460676, Note_off_c, 0, 76, 55
1, 460678, Control_c, 0, 64, 86
1, 460692, Control_c, 0, 64, 82
1, 460704, Note_off_c, 0, 79, 61
1, 460707, Control_c, 0, 64, 84
1, 460712, Note_on_c, 0, 77, 69
1, 460715, Note_on_c, 0, 62, 55
1, 460718, Note_on_c, 0, 69, 38
1, 460719, Note_on_c, 0, 74, 55
1, 460720, Note_on_c, 0, 65, 50
1, 460722, Control_c, 0, 64, 96
1, 460737, Control_c, 0, 64, 127
1, 460752, Note_off_c, 0, 69, 54
1, 460765, Note_off_c, 0, 74, 62
1, 460777, Note_off_c, 0, 65, 50
1, 460793, Note_off_c, 0, 77, 62
1, 460796, Note_on_c, 0, 76, 69
1, 460811, Note_off_c, 0, 62, 60
1, 460825, Note_on_c, 0, 79, 68
1, 460869, Note_off_c, 0, 76, 59
1, 460893, Note_off_c, 0, 79, 61
1, 460901, Note_on_c, 0, 64, 50
1, 460903, Note_on_c, 0, 77, 69
1, 460904, Note_on_c, 0, 60, 45
1, 460905, Note_on_c, 0, 67, 36
1, 460909, Note_on_c, 0, 74, 62
1, 460922, Control_c, 0, 67, 124
1, 460936, Note_off_c, 0, 67, 54
1, 460959, Note_off_c, 0, 74, 57
1, 460974, Note_off_c, 0, 60, 47
1, 460978, Note_off_c, 0, 77, 60
1, 460983, Note_on_c, 0, 76, 70
1, 461001, Note_on_c, 0, 79, 78
1, 461025, Note_off_c, 0, 64, 62
1, 461043, Note_off_c, 0, 76, 57
1, 461070, Note_on_c, 0, 62, 45
1, 461071, Note_on_c, 0, 65, 48
1, 461079, Note_off_c, 0, 79, 63
1, 461082, Note_on_c, 0, 74, 69
1, 461094, Note_on_c, 0, 77, 69
1, 461117, Poly_aftertouch_c, 0, 69, 127
1, 461129, Note_off_c, 0, 74, 64
1, 461149, Poly_aftertouch_c, 0, 69, 0
1, 461150, Note_off_c, 0, 77, 46
1, 461160, Note_on_c, 0, 76, 65
1, 461180, Note_on_c, 0, 79, 74
1, 461186, Note_off_c, 0, 62, 60
1, 461189, Control_c, 0, 67, 125
1, 461189, Note_off_c, 0, 65, 36
1, 461210, Note_off_c, 0, 79, 62
1, 461216, Note_off_c, 0, 76, 61
1, 461248, Control_c, 0, 64, 106
1, 461255, Note_on_c, 0, 67, 51
1, 461262, Note_on_c, 0, 60, 49
1, 461263, Note_on_c, 0, 64, 50
1, 461263, Control_c, 0, 64, 80
1, 461269, Note_on_c, 0, 74, 61
1, 461271, Note_on_c, 0, 77, 71
1, 461278, Control_c, 0, 64, 73
1, 461292, Control_c, 0, 64, 75
1, 461299, Note_off_c, 0, 67, 46
1, 461307, Control_c, 0, 64, 86
1, 461307, Control_c, 0, 67, 125
1, 461322, Note_off_c, 0, 74, 61
1, 461322, Control_c, 0, 64, 122
1, 461338, Control_c, 0, 64, 127
1, 461347, Note_off_c, 0, 60, 42
1, 461357, Note_off_c, 0, 77, 64
1, 461359, Note_on_c, 0, 76, 62
1, 461369, Note_on_c, 0, 72, 54
1, 461404, Note_off_c, 0, 64, 53
1, 461422, Note_off_c, 0, 72, 55
1, 461427, Control_c, 0, 67, 125
1, 461448, Note_on_c, 0, 62, 50
1, 461448, Note_on_c, 0, 65, 43
1, 461448, Note_on_c, 0, 69, 34
1, 461455, Note_off_c, 0, 76, 62
1, 461458, Note_on_c, 0, 74, 66
1, 461476, Note_on_c, 0, 77, 59
1, 461481, Note_off_c, 0, 69, 54
1, 461496, Note_off_c, 0, 74, 60
1, 461524, Note_off_c, 0, 77, 62
1, 461555, Note_on_c, 0, 72, 63
1, 461562, Note_on_c, 0, 76, 63
1, 461563, Note_off_c, 0, 62, 58
1, 461576, Note_off_c, 0, 65, 33
1, 461618, Note_on_c, 0, 67, 50
1, 461621, Note_off_c, 0, 72, 55
1, 461623, Note_on_c, 0, 60, 48
1, 461626, Note_on_c, 0, 64, 45
1, 461642, Note_off_c, 0, 76, 60
1, 461651, Note_on_c, 0, 77, 66
1, 461655, Note_on_c, 0, 74, 65
1, 461666, Note_off_c, 0, 67, 61
1, 461689, Note_off_c, 0, 74, 61
1, 461712, Note_off_c, 0, 60, 53
1, 461714, Note_off_c, 0, 77, 61
1, 461739, Note_on_c, 0, 72, 70
1, 461743, Note_on_c, 0, 76, 72
1, 461760, Control_c, 0, 67, 124
1, 461767, Note_off_c, 0, 64, 33
1, 461797, Note_off_c, 0, 72, 60
1, 461805, Note_off_c, 0, 76, 62
1, 461818, Note_on_c, 0, 65, 53
1, 461819, Note_on_c, 0, 62, 53
1, 461833, Note_on_c, 0, 69, 40
1, 461834, Control_c, 0, 64, 94
1, 461837, Note_on_c, 0, 77, 62
1, 461845, Note_on_c, 0, 74, 64
1, 461849, Control_c, 0, 64, 77
1, 461856, Note_off_c, 0, 77, 65
1, 461863, Note_off_c, 0, 69, 55
1, 461863, Control_c, 0, 64, 73
1, 461878, Control_c, 0, 64, 78
1, 461893, Control_c, 0, 64, 92
1, 461907, Control_c, 0, 64, 127
1, 461910, Note_on_c, 0, 79, 73
1, 461910, Note_off_c, 0, 74, 62
1, 461917, Note_on_c, 0, 76, 66
1, 461922, Control_c, 0, 67, 124
1, 461928, Note_off_c, 0, 62, 56
1, 461952, Note_off_c, 0, 79, 60
1, 461970, Note_off_c, 0, 76, 62
1, 461979, Note_off_c, 0, 65, 26
1, 461997, Note_on_c, 0, 60, 50
1, 462001, Note_on_c, 0, 67, 54
1, 462003, Note_on_c, 0, 64, 49
1, 462005, Note_on_c, 0, 77, 56
1, 462012, Control_c, 0, 67, 123
1, 462016, Note_on_c, 0, 74, 73
1, 462039, Note_off_c, 0, 67, 56
1, 462047, Note_off_c, 0, 74, 63
1, 462069, Note_off_c, 0, 60, 49
1, 462072, Note_off_c, 0, 64, 48
1, 462086, Note_off_c, 0, 77, 62
1, 462097, Note_on_c, 0, 72, 69
1, 462099, Note_on_c, 0, 76, 64
1, 462161, Note_off_c, 0, 72, 57
1, 462177, Note_off_c, 0, 76, 58
1, 462182, Note_on_c, 0, 62, 54
1, 462183, Note_on_c, 0, 69, 49
1, 462183, Note_on_c, 0, 74, 73
1, 462187, Note_on_c, 0, 65, 51
1, 462198, Note_on_c, 0, 77, 65
1, 462205, Control_c, 0, 67, 123
1, 462211, Note_off_c, 0, 69, 55
1, 462217, Note_off_c, 0, 74, 64
1, 462235, Control_c, 0, 67, 122
1, 462248, Note_off_c, 0, 65, 48
1, 462277, Note_on_c, 0, 76, 76
1, 462281, Note_off_c, 0, 77, 61
1, 462283, Note_on_c, 0, 72, 65
1, 462286, Control_c, 0, 67, 122
1, 462301, Control_c, 0, 64, 101
1, 462304, Note_off_c, 0, 62, 62
1, 462316, Control_c, 0, 64, 77
1, 462327, Note_off_c, 0, 72, 57
1, 462331, Control_c, 0, 64, 67
1, 462331, Control_c, 0, 67, 122
1, 462346, Control_c, 0, 64, 66
1, 462358, Note_on_c, 0, 60, 53
1, 462361, Note_on_c, 0, 67, 56
1, 462361, Control_c, 0, 64, 72
1, 462366, Note_on_c, 0, 64, 57
1, 462367, Note_on_c, 0, 71, 72
1, 462374, Note_on_c, 0, 74, 70
1, 462374, Note_off_c, 0, 76, 63
1, 462375, Control_c, 0, 64, 86
1, 462390, Control_c, 0, 64, 127
1, 462395, Note_off_c, 0, 67, 56
1, 462404, Note_off_c, 0, 60, 58
1, 462404, Note_off_c, 0, 71, 61
1, 462415, Note_off_c, 0, 64, 57
1, 462452, Note_off_c, 0, 74, 64
1, 462459, Note_on_c, 0, 76, 75
1, 462463, Note_on_c, 0, 72, 56
1, 462479, Control_c, 0, 67, 122
1, 462482, Note_off_c, 0, 72, 64
1, 462495, Note_off_c, 0, 76, 60
1, 462535, Note_on_c, 0, 69, 53
1, 462538, Note_on_c, 0, 65, 57
1, 462538, Control_c, 0, 67, 122
1, 462542, Note_on_c, 0, 77, 76
1, 462545, Note_on_c, 0, 62, 56
1, 462547, Note_on_c, 0, 74, 72
1, 462560, Note_off_c, 0, 69, 59
1, 462575, Note_off_c, 0, 74, 64
1, 462581, Note_off_c, 0, 65, 58
1, 462612, Note_off_c, 0, 62, 54
1, 462626, Note_on_c, 0, 76, 76
1, 462632, Note_on_c, 0, 79, 79
1, 462632, Note_off_c, 0, 77, 65
1, 462691, Note_off_c, 0, 76, 56
1, 462711, Note_on_c, 0, 67, 59
1, 462718, Note_on_c, 0, 60, 52
1, 462722, Note_on_c, 0, 74, 72
1, 462724, Note_on_c, 0, 77, 80
1, 462725, Note_off_c, 0, 79, 65
1, 462726, Note_on_c, 0, 64, 58
1, 462748, Note_off_c, 0, 67, 55
1, 462754, Note_off_c, 0, 74, 64
1, 462762, Note_off_c, 0, 60, 57
1, 462772, Note_off_c, 0, 64, 58
1, 462790, Control_c, 0, 64, 82
1, 462800, Note_on_c, 0, 76, 81
1, 462802, Note_off_c, 0, 77, 65
1, 462805, Control_c, 0, 64, 64
1, 462810, Note_on_c, 0, 79, 81
1, 462820, Control_c, 0, 64, 51
1, 462834, Control_c, 0, 64, 48
1, 462849, Control_c, 0, 64, 57
1, 462859, Note_off_c, 0, 76, 61
1, 462864, Control_c, 0, 64, 69
1, 462864, Control_c, 0, 67, 122
1, 462879, Control_c, 0, 64, 93
1, 462881, Note_on_c, 0, 69, 64
1, 462887, Note_on_c, 0, 65, 64
1, 462888, Note_on_c, 0, 62, 63
1, 462891, Note_on_c, 0, 74, 77
1, 462893, Note_on_c, 0, 77, 85
1, 462894, Control_c, 0, 64, 127
1, 462899, Note_off_c, 0, 79, 65
1, 462909, Control_c, 0, 67, 121
1, 462912, Note_off_c, 0, 69, 64
1, 462926, Note_off_c, 0, 65, 60
1, 462933, Note_off_c, 0, 74, 62
1, 462939, Control_c, 0, 67, 121
1, 462951, Note_off_c, 0, 62, 61
1, 462954, Control_c, 0, 67, 120
1, 462969, Control_c, 0, 67, 120
1, 462972, Note_on_c, 0, 76, 82
1, 462978, Note_off_c, 0, 77, 65
1, 462984, Control_c, 0, 67, 119
1, 462986, Note_on_c, 0, 79, 85
1, 463049, Note_off_c, 0, 76, 59
1, 463050, Control_c, 0, 67, 120
1, 463061, Note_on_c, 0, 67, 57
1, 463066, Note_on_c, 0, 64, 52
1, 463070, Note_on_c, 0, 60, 47
1, 463076, Note_on_c, 0, 77, 81
1, 463079, Note_off_c, 0, 79, 62
1, 463082, Note_on_c, 0, 74, 71
1, 463091, Note_off_c, 0, 67, 51
1, 463103, Note_off_c, 0, 60, 52
1, 463116, Note_off_c, 0, 74, 63
1, 463121, Note_off_c, 0, 64, 56
1, 463124, Control_c, 0, 67, 120
1, 463151, Note_on_c, 0, 76, 81
1, 463153, Note_off_c, 0, 77, 63
1, 463164, Note_on_c, 0, 79, 82
1, 463168, Control_c, 0, 67, 121
1, 463217, Note_off_c, 0, 76, 62
1, 463226, Note_on_c, 0, 65, 56
1, 463227, Note_on_c, 0, 69, 52
1, 463234, Note_on_c, 0, 62, 53
1, 463245, Note_on_c, 0, 77, 81
1, 463249, Note_off_c, 0, 79, 64
1, 463251, Note_on_c, 0, 74, 73
1, 463257, Note_off_c, 0, 69, 55
1, 463258, Control_c, 0, 67, 121
1, 463281, Note_off_c, 0, 74, 63
1, 463287, Control_c, 0, 67, 122
1, 463302, Note_off_c, 0, 65, 53
1, 463317, Note_on_c, 0, 76, 78
1, 463329, Note_off_c, 0, 62, 62
1, 463340, Note_off_c, 0, 77, 63
1, 463342, Note_on_c, 0, 79, 81
1, 463376, Control_c, 0, 64, 106
1, 463379, Note_off_c, 0, 76, 62
1, 463391, Control_c, 0, 64, 74
1, 463398, Note_on_c, 0, 67, 69
1, 463406, Note_on_c, 0, 60, 54
1, 463406, Control_c, 0, 64, 69
1, 463410, Note_on_c, 0, 64, 59
1, 463419, Note_off_c, 0, 79, 62
1, 463421, Control_c, 0, 64, 72
1, 463422, Note_on_c, 0, 77, 83
1, 463424, Note_on_c, 0, 81, 74
1, 463435, Control_c, 0, 64, 87
1, 463449, Note_off_c, 0, 77, 67
1, 463450, Note_off_c, 0, 67, 57
1, 463450, Control_c, 0, 64, 127
1, 463458, Note_off_c, 0, 60, 53
1, 463475, Note_off_c, 0, 64, 55
1, 463502, Note_on_c, 0, 79, 83
1, 463503, Note_on_c, 0, 76, 77
1, 463503, Note_off_c, 0, 81, 64
1, 463561, Note_off_c, 0, 76, 62
1, 463570, Note_off_c, 0, 79, 61
1, 463577, Note_on_c, 0, 69, 55
1, 463579, Note_on_c, 0, 65, 55
1, 463584, Note_on_c, 0, 62, 58
1, 463591, Note_on_c, 0, 74, 78
1, 463598, Control_c, 0, 67, 122
1, 463604, Note_on_c, 0, 77, 65
1, 463605, Note_off_c, 0, 69, 58
1, 463613, Control_c, 0, 67, 123
1, 463624, Note_off_c, 0, 65, 57
1, 463637, Note_off_c, 0, 74, 64
1, 463646, Note_off_c, 0, 77, 58
1, 463654, Note_off_c, 0, 62, 60
1, 463657, Control_c, 0, 67, 123
1, 463671, Note_on_c, 0, 76, 78
1, 463677, Note_on_c, 0, 72, 76
1, 463717, Control_c, 0, 67, 124
1, 463737, Note_off_c, 0, 72, 52
1, 463741, Note_on_c, 0, 67, 56
1, 463743, Note_on_c, 0, 60, 52
1, 463759, Note_on_c, 0, 64, 51
1, 463770, Note_on_c, 0, 74, 81
1, 463770, Note_off_c, 0, 76, 62
1, 463774, Note_on_c, 0, 77, 75
1, 463777, Note_off_c, 0, 67, 53
1, 463787, Note_off_c, 0, 60, 61
1, 463792, Note_off_c, 0, 64, 63
1, 463814, Note_off_c, 0, 74, 65
1, 463830, Note_off_c, 0, 77, 58
1, 463855, Note_on_c, 0, 72, 80
1, 463858, Note_on_c, 0, 76, 81
1, 463873, Control_c, 0, 64, 95
1, 463883, Note_on_c, 0, 75, 38
1, 463888, Control_c, 0, 64, 70
1, 463903, Control_c, 0, 64, 58
1, 463905, Note_off_c, 0, 75, 55
1, 463917, Control_c, 0, 64, 61
1, 463919, Note_off_c, 0, 72, 60
1, 463925, Note_on_c, 0, 65, 71
1, 463926, Note_off_c, 0, 76, 62
1, 463931, Note_on_c, 0, 69, 66
1, 463932, Control_c, 0, 64, 70
1, 463934, Note_on_c, 0, 62, 65
1, 463940, Note_on_c, 0, 77, 79
1, 463943, Note_on_c, 0, 74, 82
1, 463947, Control_c, 0, 64, 93
1, 463957, Note_off_c, 0, 69, 67
1, 463962, Control_c, 0, 64, 127
1, 463962, Control_c, 0, 67, 124
1, 463967, Note_off_c, 0, 77, 70
1, 463971, Note_off_c, 0, 65, 60
1, 463991, Note_off_c, 0, 62, 62
1, 464006, Control_c, 0, 67, 124
1, 464011, Note_off_c, 0, 74, 49
1, 464021, Note_on_c, 0, 76, 84
1, 464025, Note_on_c, 0, 79, 79
1, 464036, Control_c, 0, 67, 123
1, 464075, Note_off_c, 0, 76, 63
1, 464075, Note_off_c, 0, 79, 52
1, 464101, Note_on_c, 0, 64, 62
1, 464101, Note_on_c, 0, 67, 61
1, 464110, Note_on_c, 0, 60, 51
1, 464110, Note_on_c, 0, 77, 79
1, 464110, Control_c, 0, 67, 124
1, 464111, Note_on_c, 0, 74, 84
1, 464125, Note_off_c, 0, 67, 59
1, 464140, Note_off_c, 0, 60, 57
1, 464140, Control_c, 0, 67, 124
1, 464143, Note_off_c, 0, 64, 59
1, 464154, Note_off_c, 0, 74, 66
1, 464167, Note_off_c, 0, 77, 61
1, 464189, Note_on_c, 0, 72, 81
1, 464194, Note_on_c, 0, 76, 74
1, 464253, Note_off_c, 0, 72, 60
1, 464260, Note_on_c, 0, 65, 63
1, 464265, Note_on_c, 0, 62, 61
1, 464265, Note_on_c, 0, 74, 84
1, 464267, Note_on_c, 0, 69, 48
1, 464267, Note_off_c, 0, 76, 61
1, 464271, Note_on_c, 0, 77, 77
1, 464292, Note_off_c, 0, 69, 60
1, 464306, Note_off_c, 0, 74, 64
1, 464311, Note_off_c, 0, 65, 59
1, 464336, Note_off_c, 0, 62, 63
1, 464350, Note_on_c, 0, 76, 83
1, 464352, Note_on_c, 0, 72, 83
1, 464358, Note_off_c, 0, 77, 63
1, 464406, Note_off_c, 0, 72, 61
1, 464406, Control_c, 0, 64, 85
1, 464421, Control_c, 0, 64, 64
1, 464428, Note_on_c, 0, 64, 76
1, 464429, Note_on_c, 0, 67, 71
1, 464435, Note_on_c, 0, 71, 79
1, 464435, Control_c, 0, 64, 55
1, 464435, Control_c, 0, 67, 124
1, 464436, Note_on_c, 0, 74, 83
1, 464438, Note_on_c, 0, 60, 59
1, 464444, Note_off_c, 0, 76, 61
1, 464450, Control_c, 0, 64, 60
1, 464450, Control_c, 0, 67, 123
1, 464461, Note_off_c, 0, 67, 65
1, 464462, Note_off_c, 0, 71, 68
1, 464465, Control_c, 0, 64, 71
1, 464468, Note_off_c, 0, 60, 63
1, 464480, Control_c, 0, 64, 100
1, 464481, Note_off_c, 0, 64, 59
1, 464495, Control_c, 0, 64, 127
1, 464495, Control_c, 0, 67, 122
1, 464517, Control_c, 0, 67, 122
1, 464528, Note_on_c, 0, 72, 77
1, 464528, Note_on_c, 0, 76, 86
1, 464529, Note_off_c, 0, 74, 65
1, 464533, Control_c, 0, 67, 121
1, 464548, Control_c, 0, 67, 121
1, 464554, Note_off_c, 0, 72, 66
1, 464563, Control_c, 0, 67, 120
1, 464576, Note_off_c, 0, 76, 67
1, 464578, Control_c, 0, 67, 119
1, 464593, Control_c, 0, 67, 118
1, 464596, Note_on_c, 0, 69, 69
1, 464599, Note_on_c, 0, 65, 69
1, 464605, Note_on_c, 0, 62, 64
1, 464607, Control_c, 0, 67, 118
1, 464614, Note_on_c, 0, 77, 87
1, 464620, Note_on_c, 0, 74, 77
1, 464622, Control_c, 0, 67, 117
1, 464629, Note_off_c, 0, 69, 66
1, 464640, Note_off_c, 0, 65, 59
1, 464642, Note_off_c, 0, 74, 70
1, 464652, Control_c, 0, 67, 117
1, 464667, Control_c, 0, 67, 116
1, 464674, Note_off_c, 0, 62, 62
1, 464681, Control_c, 0, 67, 114
1, 464688, Note_on_c, 0, 76, 85
1, 464695, Note_on_c, 0, 79, 86
1, 464696, Control_c, 0, 67, 113
1, 464700, Note_off_c, 0, 77, 64
1, 464711, Control_c, 0, 67, 112
1, 464721, Note_on_c, 0, 74, 9
1, 464722, Note_off_c, 0, 74, 127
1, 464726, Control_c, 0, 67, 111
1, 464740, Control_c, 0, 67, 111
1, 464746, Note_off_c, 0, 76, 63
1, 464755, Control_c, 0, 67, 110
1, 464769, Note_on_c, 0, 60, 64
1, 464770, Control_c, 0, 67, 108
1, 464775, Note_on_c, 0, 64, 61
1, 464781, Note_on_c, 0, 74, 67
1, 464782, Note_on_c, 0, 77, 93
1, 464785, Control_c, 0, 67, 106
1, 464787, Note_on_c, 0, 67, 52
1, 464794, Note_off_c, 0, 79, 65
1, 464800, Control_c, 0, 67, 102
1, 464813, Note_off_c, 0, 67, 56
1, 464814, Control_c, 0, 67, 97
1, 464824, Note_off_c, 0, 64, 61
1, 464828, Note_off_c, 0, 74, 66
1, 464829, Note_off_c, 0, 60, 52
1, 464829, Control_c, 0, 67, 90
1, 464844, Control_c, 0, 67, 79
1, 464858, Control_c, 0, 67, 61
1, 464861, Note_on_c, 0, 76, 81
1, 464868, Note_on_c, 0, 79, 89
1, 464871, Note_off_c, 0, 77, 64
1, 464873, Control_c, 0, 67, 32
1, 464888, Control_c, 0, 67, 0
1, 464910, Note_on_c, 0, 65, 79
1, 464918, Note_on_c, 0, 69, 59
1, 464926, Note_on_c, 0, 62, 72
1, 464927, Note_off_c, 0, 76, 54
1, 464939, Note_off_c, 0, 69, 63
1, 464941, Note_off_c, 0, 65, 65
1, 464945, Note_on_c, 0, 74, 90
1, 464950, Note_on_c, 0, 77, 95
1, 464954, Note_off_c, 0, 62, 67
1, 464962, Note_off_c, 0, 79, 67
1, 464994, Note_off_c, 0, 74, 66
1, 465026, Note_on_c, 0, 76, 59
1, 465037, Control_c, 0, 64, 115
1, 465039, Note_on_c, 0, 79, 85
1, 465045, Note_off_c, 0, 77, 64
1, 465051, Control_c, 0, 64, 83
1, 465066, Control_c, 0, 64, 79
1, 465081, Control_c, 0, 64, 86
1, 465096, Control_c, 0, 64, 127
1, 465097, Note_on_c, 0, 43, 98
1, 465116, Note_on_c, 0, 74, 82
1, 465120, Note_on_c, 0, 77, 82
1, 465121, Note_off_c, 0, 76, 66
1, 465126, Note_on_c, 0, 45, 64
1, 465127, Note_off_c, 0, 79, 65
1, 465133, Note_off_c, 0, 43, 64
1, 465158, Note_off_c, 0, 45, 55
1, 465170, Note_on_c, 0, 47, 85
1, 465192, Note_on_c, 0, 76, 85
1, 465192, Note_off_c, 0, 47, 69
1, 465195, Note_on_c, 0, 48, 86
1, 465203, Note_off_c, 0, 74, 63
1, 465204, Note_on_c, 0, 79, 88
1, 465204, Note_off_c, 0, 77, 65
1, 465217, Note_on_c, 0, 50, 91
1, 465217, Note_off_c, 0, 48, 67
1, 465240, Note_off_c, 0, 50, 70
1, 465241, Note_on_c, 0, 52, 84
1, 465264, Note_off_c, 0, 52, 69
1, 465265, Note_off_c, 0, 76, 59
1, 465269, Note_on_c, 0, 53, 77
1, 465288, Note_off_c, 0, 53, 66
1, 465288, Note_on_c, 0, 55, 66
1, 465294, Note_on_c, 0, 77, 85
1, 465299, Note_on_c, 0, 74, 79
1, 465301, Note_off_c, 0, 79, 65
1, 465306, Note_on_c, 0, 57, 65
1, 465307, Note_off_c, 0, 57, 127
1, 465315, Note_off_c, 0, 55, 62
1, 465334, Note_on_c, 0, 59, 42
1, 465335, Note_off_c, 0, 59, 127
1, 465336, Note_off_c, 0, 74, 62
1, 465356, Note_on_c, 0, 76, 87
1, 465373, Note_on_c, 0, 79, 85
1, 465377, Note_off_c, 0, 77, 65
1, 465399, Note_off_c, 0, 76, 63
1, 465401, Control_c, 0, 64, 79
1, 465416, Control_c, 0, 64, 34
1, 465418, Note_off_c, 0, 79, 66
1, 465430, Control_c, 0, 64, 0
1, 465450, Note_on_c, 0, 67, 106
1, 465467, Note_on_c, 0, 81, 81
1, 465468, Note_off_c, 0, 67, 72
1, 465473, Note_on_c, 0, 77, 80
1, 465475, Control_c, 0, 64, 45
1, 465489, Control_c, 0, 64, 71
1, 465500, Note_off_c, 0, 77, 64
1, 465504, Control_c, 0, 64, 111
1, 465519, Control_c, 0, 64, 127
1, 465537, Note_on_c, 0, 67, 25
1, 465552, Note_off_c, 0, 81, 64
1, 465554, Note_on_c, 0, 79, 71
1, 465559, Note_on_c, 0, 83, 80
1, 465562, Note_off_c, 0, 67, 49
1, 465614, Note_off_c, 0, 79, 58
1, 465646, Note_off_c, 0, 83, 63
1, 465648, Note_on_c, 0, 81, 76
1, 465654, Note_on_c, 0, 77, 67
1, 465698, Note_off_c, 0, 77, 50
1, 465709, Note_on_c, 0, 64, 93
1, 465720, Note_on_c, 0, 79, 79
1, 465722, Note_on_c, 0, 52, 87
1, 465726, Note_off_c, 0, 81, 64
1, 465733, Note_on_c, 0, 83, 81
1, 465744, Note_off_c, 0, 64, 68
1, 465747, Note_off_c, 0, 52, 67
1, 465768, Note_off_c, 0, 79, 64
1, 465809, Note_off_c, 0, 83, 65
1, 465815, Note_on_c, 0, 81, 80
1, 465827, Note_on_c, 0, 77, 64
1, 465867, Note_off_c, 0, 81, 63
1, 465870, Note_off_c, 0, 77, 53
1, 465876, Note_on_c, 0, 79, 73
1, 465905, Note_on_c, 0, 83, 82
1, 465934, Control_c, 0, 64, 66
1, 465941, Note_off_c, 0, 79, 62
1, 465948, Control_c, 0, 64, 0
1, 465959, Note_off_c, 0, 83, 63
1, 465977, Note_on_c, 0, 81, 80
1, 465981, Note_on_c, 0, 62, 99
1, 465991, Note_on_c, 0, 77, 72
1, 465991, Note_on_c, 0, 50, 92
1, 465993, Control_c, 0, 64, 51
1, 466015, Control_c, 0, 64, 82
1, 466019, Note_off_c, 0, 50, 73
1, 466021, Note_off_c, 0, 62, 69
1, 466023, Note_off_c, 0, 77, 68
1, 466030, Control_c, 0, 64, 127
1, 466068, Note_on_c, 0, 83, 87
1, 466078, Note_off_c, 0, 81, 64
1, 466122, Note_off_c, 0, 83, 66
1, 466130, Note_on_c, 0, 84, 79
1, 466176, Note_on_c, 0, 83, 67
1, 466198, Note_on_c, 0, 81, 71
1, 466200, Note_off_c, 0, 84, 65
1, 466239, Control_c, 0, 64, 83
1, 466242, Note_off_c, 0, 83, 64
1, 466253, Control_c, 0, 64, 74
1, 466254, Note_off_c, 0, 81, 65
1, 466255, Note_on_c, 0, 79, 77
1, 466268, Note_on_c, 0, 47, 91
1, 466268, Control_c, 0, 64, 78
1, 466279, Note_on_c, 0, 35, 85
1, 466283, Control_c, 0, 64, 124
1, 466284, Note_off_c, 0, 79, 68
1, 466298, Control_c, 0, 64, 127
1, 466304, Note_on_c, 0, 77, 74
1, 466312, Note_off_c, 0, 47, 69
1, 466313, Note_off_c, 0, 35, 65
1, 466330, Note_off_c, 0, 77, 68
1, 466358, Note_on_c, 0, 76, 78
1, 466398, Note_on_c, 0, 74, 76
1, 466429, Note_off_c, 0, 76, 61
1, 466449, Note_on_c, 0, 72, 80
1, 466453, Note_off_c, 0, 74, 65
1, 466475, Control_c, 0, 64, 92
1, 466490, Control_c, 0, 64, 59
1, 466497, Note_off_c, 0, 72, 64
1, 466504, Control_c, 0, 64, 0
1, 466510, Note_on_c, 0, 71, 71
1, 466538, Note_off_c, 0, 71, 66
1, 466543, Note_on_c, 0, 45, 92
1, 466550, Note_on_c, 0, 33, 87
1, 466564, Note_on_c, 0, 69, 74
1, 466564, Control_c, 0, 64, 42
1, 466578, Note_off_c, 0, 33, 67
1, 466578, Control_c, 0, 64, 70
1, 466587, Note_off_c, 0, 45, 67
1, 466593, Control_c, 0, 64, 99
1, 466608, Control_c, 0, 64, 127
1, 466611, Note_on_c, 0, 67, 79
1, 466618, Note_off_c, 0, 69, 67
1, 466652, Note_off_c, 0, 67, 63
1, 466683, Note_on_c, 0, 65, 70
1, 466718, Note_off_c, 0, 65, 62
1, 466732, Note_on_c, 0, 67, 69
1, 466786, Note_off_c, 0, 67, 57
1, 466797, Note_on_c, 0, 69, 75
1, 466831, Note_off_c, 0, 69, 67
1, 466842, Note_on_c, 0, 62, 90
1, 466853, Note_on_c, 0, 50, 84
1, 466858, Note_on_c, 0, 71, 85
1, 466874, Note_off_c, 0, 62, 65
1, 466900, Note_off_c, 0, 50, 67
1, 466912, Note_off_c, 0, 71, 64
1, 466919, Note_on_c, 0, 72, 75
1, 466960, Note_on_c, 0, 74, 80
1, 466962, Note_off_c, 0, 72, 62
1, 466997, Note_off_c, 0, 74, 62
1, 467026, Note_on_c, 0, 76, 85
1, 467046, Control_c, 0, 64, 75
1, 467061, Control_c, 0, 64, 51
1, 467073, Note_off_c, 0, 76, 64
1, 467076, Control_c, 0, 64, 0
1, 467078, Note_on_c, 0, 77, 76
1, 467097, Note_on_c, 0, 79, 69
1, 467139, Note_on_c, 0, 41, 79
1, 467140, Note_on_c, 0, 43, 83
1, 467141, Note_on_c, 0, 31, 74
1, 467142, Note_off_c, 0, 79, 65
1, 467150, Note_on_c, 0, 81, 84
1, 467162, Note_on_c, 0, 29, 40
1, 467165, Control_c, 0, 64, 49
1, 467175, Note_off_c, 0, 31, 67
1, 467180, Control_c, 0, 64, 72
1, 467195, Control_c, 0, 64, 87
1, 467201, Note_off_c, 0, 29, 34
1, 467209, Control_c, 0, 64, 109
1, 467224, Control_c, 0, 64, 127
1, 467236, Note_off_c, 0, 41, 62
1, 467238, Note_on_c, 0, 76, 80
1, 467249, Note_on_c, 0, 79, 69
1, 467249, Note_off_c, 0, 81, 63
1, 467260, Note_off_c, 0, 77, 59
1, 467265, Note_on_c, 0, 45, 75
1, 467299, Note_on_c, 0, 47, 72
1, 467301, Note_off_c, 0, 45, 66
1, 467330, Note_off_c, 0, 43, 32
1, 467334, Note_on_c, 0, 77, 54
1, 467334, Note_off_c, 0, 47, 67
1, 467338, Note_off_c, 0, 79, 65
1, 467339, Note_on_c, 0, 48, 83
1, 467342, Note_on_c, 0, 81, 82
1, 467359, Note_off_c, 0, 48, 67
1, 467368, Note_on_c, 0, 50, 84
1, 467378, Note_off_c, 0, 76, 29
1, 467391, Note_off_c, 0, 50, 68
1, 467398, Note_on_c, 0, 52, 79
1, 467413, Note_on_c, 0, 76, 63
1, 467419, Note_off_c, 0, 81, 64
1, 467420, Note_off_c, 0, 77, 60
1, 467423, Note_on_c, 0, 53, 79
1, 467425, Note_off_c, 0, 52, 66
1, 467426, Note_on_c, 0, 79, 79
1, 467449, Note_on_c, 0, 55, 85
1, 467451, Note_off_c, 0, 53, 65
1, 467456, Note_on_c, 0, 78, 25
1, 467473, Note_on_c, 0, 57, 84
1, 467475, Note_off_c, 0, 55, 66
1, 467486, Note_off_c, 0, 76, 61
1, 467493, Note_off_c, 0, 57, 66
1, 467504, Note_on_c, 0, 77, 74
1, 467504, Note_off_c, 0, 79, 65
1, 467505, Note_off_c, 0, 78, 39
1, 467506, Note_on_c, 0, 59, 79
1, 467513, Note_on_c, 0, 81, 74
1, 467521, Note_off_c, 0, 59, 69
1, 467531, Note_on_c, 0, 60, 70
1, 467549, Note_off_c, 0, 60, 66
1, 467558, Note_on_c, 0, 62, 64
1, 467574, Note_on_c, 0, 76, 78
1, 467577, Note_off_c, 0, 62, 68
1, 467583, Note_on_c, 0, 79, 81
1, 467604, Note_off_c, 0, 81, 55
1, 467606, Note_off_c, 0, 76, 62
1, 467606, Note_off_c, 0, 77, 39
1, 467613, Note_on_c, 0, 64, 4
1, 467614, Note_off_c, 0, 64, 127
1, 467616, Control_c, 0, 64, 72
1, 467630, Note_off_c, 0, 79, 67
1, 467631, Control_c, 0, 64, 43
1, 467643, Poly_aftertouch_c, 0, 57, 0
1, 467643, Poly_aftertouch_c, 0, 59, 0
1, 467646, Control_c, 0, 64, 0
1, 467660, Note_on_c, 0, 67, 104
1, 467675, Control_c, 0, 64, 45
1, 467683, Note_off_c, 0, 67, 70
1, 467685, Note_on_c, 0, 81, 83
1, 467687, Note_on_c, 0, 77, 67
1, 467690, Control_c, 0, 64, 71
1, 467705, Control_c, 0, 64, 116
1, 467717, Note_off_c, 0, 77, 67
1, 467720, Control_c, 0, 64, 127
1, 467776, Note_on_c, 0, 79, 79
1, 467777, Note_on_c, 0, 83, 84
1, 467779, Note_off_c, 0, 81, 64
1, 467865, Note_off_c, 0, 79, 39
1, 467869, Note_on_c, 0, 77, 77
1, 467872, Note_off_c, 0, 83, 65
1, 467875, Note_on_c, 0, 81, 81
1, 467917, Note_off_c, 0, 77, 64
1, 467944, Note_on_c, 0, 64, 100
1, 467957, Note_off_c, 0, 81, 64
1, 467960, Note_on_c, 0, 52, 82
1, 467960, Note_on_c, 0, 79, 82
1, 467963, Note_on_c, 0, 83, 85
1, 467987, Note_off_c, 0, 52, 65
1, 467987, Note_off_c, 0, 64, 68
1, 468011, Note_off_c, 0, 79, 64
1, 468050, Note_on_c, 0, 77, 72
1, 468053, Note_on_c, 0, 81, 81
1, 468054, Note_off_c, 0, 83, 66
1, 468102, Note_off_c, 0, 77, 63
1, 468127, Note_on_c, 0, 79, 81
1, 468132, Note_off_c, 0, 81, 65
1, 468140, Note_on_c, 0, 83, 81
1, 468150, Control_c, 0, 64, 101
1, 468165, Control_c, 0, 64, 63
1, 468180, Control_c, 0, 64, 0
1, 468182, Note_off_c, 0, 79, 60
1, 468206, Note_on_c, 0, 62, 102
1, 468222, Note_on_c, 0, 77, 80
1, 468225, Note_on_c, 0, 50, 85
1, 468226, Note_on_c, 0, 81, 83
1, 468233, Note_off_c, 0, 83, 64
1, 468240, Control_c, 0, 64, 51
1, 468252, Note_off_c, 0, 62, 69
1, 468256, Note_off_c, 0, 50, 68
1, 468263, Control_c, 0, 64, 70
1, 468277, Control_c, 0, 64, 87
1, 468278, Note_off_c, 0, 77, 66
1, 468292, Control_c, 0, 64, 106
1, 468307, Control_c, 0, 64, 127
1, 468314, Note_on_c, 0, 79, 82
1, 468319, Note_off_c, 0, 81, 65
1, 468326, Note_on_c, 0, 83, 86
1, 468376, Note_off_c, 0, 79, 64
1, 468406, Note_on_c, 0, 77, 78
1, 468413, Note_on_c, 0, 81, 81
1, 468415, Note_off_c, 0, 83, 65
1, 468455, Control_c, 0, 64, 122
1, 468467, Note_off_c, 0, 77, 51
1, 468470, Control_c, 0, 64, 109
1, 468483, Note_on_c, 0, 47, 94
1, 468483, Note_on_c, 0, 79, 78
1, 468484, Control_c, 0, 64, 113
1, 468487, Note_off_c, 0, 81, 63
1, 468498, Note_on_c, 0, 35, 76
1, 468499, Control_c, 0, 64, 127
1, 468504, Note_on_c, 0, 83, 75
1, 468523, Note_off_c, 0, 47, 68
1, 468527, Note_off_c, 0, 35, 64
1, 468546, Note_off_c, 0, 79, 62
1, 468576, Note_off_c, 0, 83, 66
1, 468584, Note_on_c, 0, 77, 72
1, 468585, Note_on_c, 0, 81, 74
1, 468618, Note_on_c, 0, 59, 96
1, 468626, Note_off_c, 0, 77, 60
1, 468644, Note_off_c, 0, 81, 54
1, 468648, Note_on_c, 0, 79, 74
1, 468648, Control_c, 0, 64, 107
1, 468656, Note_off_c, 0, 59, 66
1, 468663, Control_c, 0, 64, 69
1, 468668, Note_on_c, 0, 83, 90
1, 468678, Control_c, 0, 64, 36
1, 468692, Note_off_c, 0, 79, 65
1, 468693, Control_c, 0, 64, 0
1, 468721, Note_off_c, 0, 83, 66
1, 468755, Note_on_c, 0, 48, 95
1, 468761, Note_on_c, 0, 77, 74
1, 468767, Control_c, 0, 64, 49
1, 468768, Note_on_c, 0, 36, 75
1, 468776, Note_on_c, 0, 81, 70
1, 468781, Control_c, 0, 64, 75
1, 468787, Note_off_c, 0, 48, 68
1, 468790, Note_off_c, 0, 36, 62
1, 468796, Control_c, 0, 64, 100
1, 468808, Note_off_c, 0, 77, 66
1, 468811, Control_c, 0, 64, 127
1, 468848, Note_on_c, 0, 76, 76
1, 468856, Note_on_c, 0, 79, 73
1, 468863, Note_off_c, 0, 81, 64
1, 468885, Note_on_c, 0, 60, 94
1, 468908, Note_off_c, 0, 60, 68
1, 468934, Note_off_c, 0, 76, 62
1, 468947, Note_on_c, 0, 77, 75
1, 468947, Note_off_c, 0, 79, 64
1, 468954, Note_on_c, 0, 81, 75
1, 468980, Note_off_c, 0, 77, 65
1, 468998, Note_off_c, 0, 81, 56
1, 469018, Note_on_c, 0, 45, 94
1, 469031, Note_on_c, 0, 33, 84
1, 469036, Note_on_c, 0, 79, 84
1, 469040, Note_on_c, 0, 76, 72
1, 469054, Note_off_c, 0, 33, 66
1, 469056, Note_off_c, 0, 45, 67
1, 469104, Note_off_c, 0, 76, 63
1, 469109, Note_off_c, 0, 79, 63
1, 469118, Note_on_c, 0, 81, 72
1, 469123, Note_on_c, 0, 77, 76
1, 469151, Note_off_c, 0, 77, 62
1, 469153, Note_on_c, 0, 57, 91
1, 469178, Note_off_c, 0, 57, 67
1, 469198, Note_on_c, 0, 79, 78
1, 469199, Note_off_c, 0, 81, 62
1, 469201, Note_on_c, 0, 76, 48
1, 469223, Note_off_c, 0, 76, 61
1, 469223, Note_off_c, 0, 79, 68
1, 469248, Control_c, 0, 64, 77
1, 469263, Control_c, 0, 64, 47
1, 469278, Control_c, 0, 64, 0
1, 469296, Note_on_c, 0, 43, 96
1, 469297, Note_on_c, 0, 81, 84
1, 469299, Note_on_c, 0, 77, 70
1, 469312, Note_on_c, 0, 31, 82
1, 469325, Note_off_c, 0, 77, 69
1, 469374, Note_on_c, 0, 83, 73
1, 469375, Note_off_c, 0, 81, 65
1, 469383, Control_c, 0, 64, 47
1, 469397, Control_c, 0, 64, 73
1, 469400, Note_off_c, 0, 83, 69
1, 469412, Control_c, 0, 64, 88
1, 469419, Note_on_c, 0, 84, 68
1, 469427, Control_c, 0, 64, 107
1, 469442, Control_c, 0, 64, 127
1, 469459, Note_on_c, 0, 83, 81
1, 469459, Note_off_c, 0, 31, 62
1, 469485, Note_off_c, 0, 84, 66
1, 469488, Note_on_c, 0, 81, 77
1, 469494, Note_off_c, 0, 43, 63
1, 469530, Note_off_c, 0, 83, 60
1, 469541, Note_on_c, 0, 79, 89
1, 469544, Note_off_c, 0, 81, 66
1, 469584, Note_off_c, 0, 79, 67
1, 469589, Note_on_c, 0, 77, 78
1, 469626, Note_off_c, 0, 77, 63
1, 469640, Note_on_c, 0, 76, 87
1, 469682, Note_on_c, 0, 74, 78
1, 469717, Note_off_c, 0, 76, 63
1, 469727, Note_on_c, 0, 72, 82
1, 469733, Note_off_c, 0, 74, 67
1, 469782, Note_off_c, 0, 72, 63
1, 469786, Note_on_c, 0, 71, 83
1, 469804, Control_c, 0, 64, 98
1, 469819, Control_c, 0, 64, 61
1, 469831, Note_on_c, 0, 55, 100
1, 469834, Control_c, 0, 64, 0
1, 469838, Note_off_c, 0, 71, 49
1, 469840, Note_on_c, 0, 69, 85
1, 469853, Note_on_c, 0, 43, 78
1, 469863, Control_c, 0, 64, 48
1, 469875, Note_off_c, 0, 55, 67
1, 469876, Note_off_c, 0, 43, 66
1, 469878, Control_c, 0, 64, 74
1, 469893, Control_c, 0, 64, 127
1, 469900, Note_on_c, 0, 67, 83
1, 469913, Note_off_c, 0, 69, 65
1, 469948, Note_off_c, 0, 67, 63
1, 469973, Note_on_c, 0, 65, 78
1, 470019, Note_off_c, 0, 65, 62
1, 470024, Note_on_c, 0, 67, 70
1, 470080, Note_off_c, 0, 67, 62
1, 470082, Note_on_c, 0, 69, 75
1, 470100, Control_c, 0, 64, 75
1, 470111, Note_off_c, 0, 69, 66
1, 470115, Control_c, 0, 64, 61
1, 470129, Note_on_c, 0, 43, 101
1, 470131, Control_c, 0, 64, 61
1, 470137, Note_on_c, 0, 31, 87
1, 470144, Note_on_c, 0, 71, 71
1, 470145, Control_c, 0, 64, 73
1, 470160, Control_c, 0, 64, 104
1, 470161, Note_off_c, 0, 31, 69
1, 470168, Note_off_c, 0, 43, 66
1, 470175, Control_c, 0, 64, 127
1, 470201, Note_off_c, 0, 71, 64
1, 470203, Note_on_c, 0, 72, 78
1, 470236, Note_off_c, 0, 72, 62
1, 470243, Note_on_c, 0, 74, 77
1, 470266, Note_off_c, 0, 74, 68
1, 470299, Note_on_c, 0, 76, 84
1, 470341, Note_on_c, 0, 77, 75
1, 470342, Note_off_c, 0, 76, 64
1, 470352, Control_c, 0, 64, 70
1, 470367, Control_c, 0, 64, 26
1, 470369, Note_on_c, 0, 79, 67
1, 470382, Control_c, 0, 64, 0
1, 470398, Note_on_c, 0, 62, 98
1, 470402, Note_off_c, 0, 79, 60
1, 470403, Note_off_c, 0, 77, 58
1, 470412, Note_on_c, 0, 50, 91
1, 470412, Control_c, 0, 64, 22
1, 470421, Note_on_c, 0, 81, 84
1, 470422, Note_on_c, 0, 77, 66
1, 470427, Control_c, 0, 64, 63
1, 470440, Note_off_c, 0, 62, 69
1, 470442, Control_c, 0, 64, 87
1, 470447, Note_off_c, 0, 50, 60
1, 470457, Control_c, 0, 64, 127
1, 470474, Note_off_c, 0, 77, 60
1, 470516, Note_on_c, 0, 76, 86
1, 470525, Note_off_c, 0, 81, 63
1, 470527, Note_on_c, 0, 79, 76
1, 470595, Note_off_c, 0, 76, 63
1, 470613, Note_on_c, 0, 77, 73
1, 470618, Note_on_c, 0, 81, 82
1, 470618, Note_off_c, 0, 79, 66
1, 470667, Note_off_c, 0, 77, 55
1, 470680, Note_on_c, 0, 47, 96
1, 470691, Note_on_c, 0, 76, 91
1, 470692, Note_on_c, 0, 35, 84
1, 470701, Note_off_c, 0, 81, 61
1, 470704, Note_on_c, 0, 79, 83
1, 470725, Note_off_c, 0, 47, 68
1, 470725, Note_off_c, 0, 35, 64
1, 470785, Note_on_c, 0, 77, 73
1, 470793, Note_off_c, 0, 76, 36
1, 470796, Note_off_c, 0, 79, 63
1, 470797, Note_on_c, 0, 81, 77
1, 470850, Note_off_c, 0, 77, 49
1, 470856, Note_on_c, 0, 76, 74
1, 470870, Note_off_c, 0, 81, 60
1, 470878, Control_c, 0, 64, 62
1, 470880, Note_on_c, 0, 79, 81
1, 470893, Control_c, 0, 64, 0
1, 470932, Note_off_c, 0, 76, 59
1, 470936, Note_on_c, 0, 45, 96
1, 470945, Note_on_c, 0, 33, 93
1, 470945, Note_on_c, 0, 77, 69
1, 470949, Note_off_c, 0, 79, 59
1, 470968, Note_off_c, 0, 33, 68
1, 470969, Control_c, 0, 64, 58
1, 470975, Note_on_c, 0, 74, 67
1, 470977, Note_on_c, 0, 81, 73
1, 470977, Note_off_c, 0, 45, 68
1, 470983, Control_c, 0, 64, 88
1, 470998, Control_c, 0, 64, 127
1, 471005, Note_off_c, 0, 74, 66
1, 471041, Note_on_c, 0, 79, 76
1, 471042, Note_off_c, 0, 77, 66
1, 471047, Note_off_c, 0, 81, 64
1, 471062, Note_off_c, 0, 79, 69
1, 471092, Note_on_c, 0, 77, 77
1, 471143, Note_on_c, 0, 79, 64
1, 471157, Note_off_c, 0, 77, 65
1, 471200, Note_on_c, 0, 81, 72
1, 471205, Note_off_c, 0, 79, 65
1, 471217, Note_on_c, 0, 67, 99
1, 471218, Note_on_c, 0, 83, 72
1, 471226, Note_off_c, 0, 81, 67
1, 471229, Note_on_c, 0, 55, 85
1, 471248, Note_off_c, 0, 83, 69
1, 471258, Note_off_c, 0, 67, 67
1, 471276, Note_on_c, 0, 84, 90
1, 471280, Note_off_c, 0, 55, 66
1, 471330, Note_on_c, 0, 86, 80
1, 471334, Note_off_c, 0, 84, 65
1, 471358, Note_on_c, 0, 88, 83
1, 471372, Note_off_c, 0, 86, 64
1, 471390, Note_off_c, 0, 88, 67
1, 471413, Note_on_c, 0, 89, 75
1, 471461, Note_on_c, 0, 91, 80
1, 471461, Note_off_c, 0, 89, 65
1, 471479, Control_c, 0, 64, 67
1, 471487, Note_on_c, 0, 93, 81
1, 471493, Control_c, 0, 64, 0
1, 471509, Note_off_c, 0, 91, 64
1, 471512, Note_on_c, 0, 43, 94
1, 471518, Note_on_c, 0, 31, 84
1, 471528, Note_on_c, 0, 95, 64
1, 471528, Note_off_c, 0, 93, 66
1, 471545, Note_on_c, 0, 96, 81
1, 471553, Note_off_c, 0, 95, 69
1, 471553, Control_c, 0, 64, 62
1, 471554, Note_off_c, 0, 31, 65
1, 471567, Control_c, 0, 64, 88
1, 471570, Note_on_c, 0, 37, 4
1, 471582, Control_c, 0, 64, 127
1, 471600, Note_on_c, 0, 95, 93
1, 471611, Note_on_c, 0, 93, 87
1, 471623, Note_off_c, 0, 43, 65
1, 471628, Note_off_c, 0, 37, 50
1, 471635, Note_on_c, 0, 45, 81
1, 471635, Note_off_c, 0, 96, 63
1, 471656, Note_on_c, 0, 91, 78
1, 471670, Note_on_c, 0, 47, 70
1, 471670, Note_off_c, 0, 95, 66
1, 471671, Note_off_c, 0, 93, 66
1, 471673, Note_off_c, 0, 45, 62
1, 471703, Note_on_c, 0, 89, 90
1, 471705, Note_off_c, 0, 91, 65
1, 471706, Note_off_c, 0, 47, 63
1, 471712, Note_on_c, 0, 48, 84
1, 471741, Note_on_c, 0, 50, 78
1, 471741, Note_off_c, 0, 48, 63
1, 471743, Note_off_c, 0, 89, 64
1, 471770, Note_off_c, 0, 50, 64
1, 471773, Note_on_c, 0, 88, 81
1, 471777, Note_on_c, 0, 52, 78
1, 471797, Note_on_c, 0, 86, 81
1, 471801, Note_off_c, 0, 52, 67
1, 471804, Note_on_c, 0, 53, 82
1, 471832, Note_on_c, 0, 55, 77
1, 471832, Note_off_c, 0, 53, 65
1, 471842, Note_on_c, 0, 84, 82
1, 471851, Note_off_c, 0, 88, 66
1, 471858, Note_off_c, 0, 55, 67
1, 471858, Note_off_c, 0, 86, 65
1, 471859, Note_on_c, 0, 57, 83
1, 471882, Note_off_c, 0, 57, 67
1, 471884, Note_on_c, 0, 59, 84
1, 471894, Note_off_c, 0, 84, 65
1, 471895, Note_on_c, 0, 83, 72
1, 471910, Note_off_c, 0, 59, 64
1, 471914, Note_on_c, 0, 60, 82
1, 471923, Note_off_c, 0, 83, 68
1, 471940, Note_off_c, 0, 60, 64
1, 471949, Note_on_c, 0, 62, 78
1, 471952, Note_on_c, 0, 81, 26
1, 471967, Note_off_c, 0, 62, 69
1, 472020, Note_off_c, 0, 81, 64
1, 472028, Note_on_c, 0, 79, 92
1, 472031, Poly_aftertouch_c, 0, 57, 0
1, 472035, Control_c, 0, 64, 74
1, 472050, Control_c, 0, 64, 45
1, 472061, Note_on_c, 0, 67, 108
1, 472065, Control_c, 0, 64, 0
1, 472069, Note_off_c, 0, 79, 64
1, 472074, Note_on_c, 0, 81, 79
1, 472079, Control_c, 0, 64, 29
1, 472091, Note_off_c, 0, 67, 66
1, 472094, Control_c, 0, 64, 64
1, 472109, Control_c, 0, 64, 118
1, 472123, Note_on_c, 0, 79, 95
1, 472123, Control_c, 0, 64, 127
1, 472126, Note_off_c, 0, 81, 65
1, 472192, Note_on_c, 0, 81, 81
1, 472196, Note_off_c, 0, 79, 0
1, 472235, Poly_aftertouch_c, 0, 79, 0
1, 472236, Note_on_c, 0, 83, 84
1, 472239, Note_off_c, 0, 81, 64
1, 472272, Poly_aftertouch_c, 0, 79, 127
1, 472288, Poly_aftertouch_c, 0, 79, 0
1, 472302, Note_on_c, 0, 81, 82
1, 472306, Note_off_c, 0, 83, 67
1, 472310, Note_on_c, 0, 52, 97
1, 472316, Control_c, 0, 64, 106
1, 472317, Note_on_c, 0, 40, 83
1, 472331, Control_c, 0, 64, 105
1, 472341, Note_off_c, 0, 40, 65
1, 472344, Note_off_c, 0, 81, 63
1, 472346, Note_off_c, 0, 52, 65
1, 472346, Control_c, 0, 64, 127
1, 472350, Poly_aftertouch_c, 0, 84, 0
1, 472355, Note_on_c, 0, 79, 86
1, 472400, Note_off_c, 0, 79, 62
1, 472402, Note_on_c, 0, 81, 75
1, 472440, Note_on_c, 0, 64, 93
1, 472452, Note_off_c, 0, 81, 61
1, 472453, Note_on_c, 0, 83, 83
1, 472472, Note_off_c, 0, 64, 66
1, 472475, Note_off_c, 0, 83, 70
1, 472502, Note_on_c, 0, 84, 72
1, 472539, Control_c, 0, 64, 76
1, 472554, Control_c, 0, 64, 49
1, 472559, Note_on_c, 0, 86, 81
1, 472562, Note_off_c, 0, 84, 66
1, 472569, Control_c, 0, 64, 43
1, 472582, Note_on_c, 0, 52, 92
1, 472583, Note_on_c, 0, 50, 91
1, 472584, Control_c, 0, 64, 63
1, 472590, Note_on_c, 0, 38, 79
1, 472594, Note_on_c, 0, 88, 73
1, 472599, Control_c, 0, 64, 96
1, 472605, Note_off_c, 0, 86, 66
1, 472608, Note_off_c, 0, 50, 70
1, 472611, Note_off_c, 0, 52, 68
1, 472612, Note_off_c, 0, 38, 63
1, 472613, Control_c, 0, 64, 127
1, 472616, Note_on_c, 0, 40, 46
1, 472618, Note_off_c, 0, 88, 70
1, 472625, Note_on_c, 0, 39, 25
1, 472626, Note_off_c, 0, 39, 127
1, 472646, Note_on_c, 0, 89, 82
1, 472648, Note_off_c, 0, 40, 58
1, 472666, Poly_aftertouch_c, 0, 39, 0
1, 472689, Note_off_c, 0, 89, 66
1, 472692, Note_on_c, 0, 91, 70
1, 472710, Note_on_c, 0, 93, 79
1, 472711, Note_on_c, 0, 62, 93
1, 472741, Note_off_c, 0, 62, 69
1, 472744, Note_off_c, 0, 91, 62
1, 472747, Note_on_c, 0, 95, 66
1, 472764, Note_on_c, 0, 96, 90
1, 472769, Note_off_c, 0, 93, 58
1, 472774, Note_off_c, 0, 95, 50
1, 472814, Control_c, 0, 64, 77
1, 472822, Note_on_c, 0, 95, 74
1, 472828, Note_on_c, 0, 93, 81
1, 472828, Control_c, 0, 64, 66
1, 472843, Control_c, 0, 64, 69
1, 472851, Note_on_c, 0, 91, 83
1, 472853, Note_on_c, 0, 48, 88
1, 472855, Note_on_c, 0, 47, 90
1, 472858, Control_c, 0, 64, 93
1, 472859, Note_on_c, 0, 35, 82
1, 472866, Note_off_c, 0, 95, 61
1, 472872, Control_c, 0, 64, 127
1, 472874, Note_off_c, 0, 93, 66
1, 472878, Note_off_c, 0, 96, 62
1, 472880, Note_off_c, 0, 47, 70
1, 472880, Note_off_c, 0, 48, 68
1, 472882, Note_off_c, 0, 35, 64
1, 472906, Note_on_c, 0, 89, 89
1, 472906, Note_off_c, 0, 91, 64
1, 472946, Note_off_c, 0, 89, 65
1, 472972, Poly_aftertouch_c, 0, 36, 0
1, 472978, Note_on_c, 0, 88, 82
1, 472978, Note_on_c, 0, 59, 91
1, 472993, Note_on_c, 0, 86, 84
1, 473010, Note_off_c, 0, 59, 67
1, 473047, Note_on_c, 0, 84, 82
1, 473058, Note_off_c, 0, 86, 64
1, 473065, Control_c, 0, 64, 106
1, 473067, Note_off_c, 0, 88, 65
1, 473075, Note_on_c, 0, 83, 81
1, 473080, Control_c, 0, 64, 60
1, 473090, Note_off_c, 0, 84, 65
1, 473095, Control_c, 0, 64, 0
1, 473121, Note_on_c, 0, 45, 87
1, 473122, Note_on_c, 0, 47, 91
1, 473123, Note_off_c, 0, 83, 64
1, 473125, Note_on_c, 0, 33, 90
1, 473139, Control_c, 0, 64, 46
1, 473146, Note_off_c, 0, 33, 69
1, 473149, Note_off_c, 0, 45, 67
1, 473151, Note_off_c, 0, 47, 67
1, 473153, Note_on_c, 0, 34, 47
1, 473154, Note_off_c, 0, 34, 127
1, 473154, Control_c, 0, 64, 79
1, 473160, Note_on_c, 0, 81, 82
1, 473169, Control_c, 0, 64, 127
1, 473189, Poly_aftertouch_c, 0, 34, 0
1, 473204, Note_off_c, 0, 81, 65
1, 473211, Note_on_c, 0, 79, 86
1, 473255, Note_off_c, 0, 79, 63
1, 473262, Note_on_c, 0, 57, 97
1, 473273, Note_on_c, 0, 81, 77
1, 473296, Note_off_c, 0, 57, 62
1, 473327, Note_off_c, 0, 81, 62
1, 473333, Control_c, 0, 64, 84
1, 473343, Note_on_c, 0, 79, 66
1, 473348, Control_c, 0, 64, 46
1, 473360, Note_off_c, 0, 79, 64
1, 473362, Control_c, 0, 64, 0
1, 473375, Note_on_c, 0, 81, 33
1, 473377, Control_c, 0, 64, 35
1, 473388, Note_on_c, 0, 55, 98
1, 473391, Note_on_c, 0, 83, 75
1, 473392, Control_c, 0, 64, 68
1, 473402, Note_off_c, 0, 81, 48
1, 473402, Note_on_c, 0, 43, 75
1, 473407, Control_c, 0, 64, 127
1, 473412, Note_on_c, 0, 45, 68
1, 473421, Note_off_c, 0, 55, 66
1, 473424, Note_off_c, 0, 43, 65
1, 473432, Note_off_c, 0, 45, 64
1, 473456, Note_on_c, 0, 81, 79
1, 473457, Note_on_c, 0, 46, 3
1, 473458, Note_off_c, 0, 83, 64
1, 473483, Note_off_c, 0, 46, 51
1, 473506, Note_on_c, 0, 79, 76
1, 473509, Note_off_c, 0, 81, 63
1, 473533, Note_on_c, 0, 67, 99
1, 473554, Note_off_c, 0, 67, 69
1, 473564, Note_off_c, 0, 79, 59
1, 473570, Note_on_c, 0, 81, 76
1, 473629, Note_on_c, 0, 83, 77
1, 473631, Note_off_c, 0, 81, 64
1, 473654, Note_off_c, 0, 83, 69
1, 473682, Note_on_c, 0, 84, 85
1, 473695, Control_c, 0, 64, 82
1, 473699, Note_on_c, 0, 43, 101
1, 473709, Note_on_c, 0, 31, 92
1, 473710, Control_c, 0, 64, 33
1, 473725, Control_c, 0, 64, 0
1, 473742, Note_on_c, 0, 86, 81
1, 473755, Control_c, 0, 64, 48
1, 473769, Control_c, 0, 64, 80
1, 473774, Note_off_c, 0, 86, 65
1, 473774, Note_off_c, 0, 84, 63
1, 473784, Control_c, 0, 64, 127
1, 473785, Note_on_c, 0, 88, 63
1, 473803, Note_off_c, 0, 88, 66
1, 473827, Note_on_c, 0, 89, 83
1, 473861, Note_off_c, 0, 31, 64
1, 473876, Note_off_c, 0, 89, 65
1, 473882, Note_on_c, 0, 91, 67
1, 473888, Note_on_c, 0, 45, 65
1, 473896, Note_on_c, 0, 93, 89
1, 473897, Note_on_c, 0, 33, 55
1, 473903, Note_off_c, 0, 43, 63
1, 473917, Note_off_c, 0, 91, 63
1, 473932, Note_on_c, 0, 47, 81
1, 473932, Note_off_c, 0, 45, 65
1, 473933, Note_on_c, 0, 35, 61
1, 473939, Note_off_c, 0, 33, 46
1, 473943, Note_on_c, 0, 95, 55
1, 473943, Note_off_c, 0, 93, 66
1, 473958, Note_on_c, 0, 96, 87
1, 473961, Note_off_c, 0, 35, 56
1, 473965, Note_on_c, 0, 36, 74
1, 473966, Note_off_c, 0, 95, 66
1, 473968, Note_on_c, 0, 48, 83
1, 473969, Note_off_c, 0, 47, 53
1, 473992, Note_off_c, 0, 36, 60
1, 474010, Note_on_c, 0, 38, 63
1, 474012, Note_on_c, 0, 50, 83
1, 474015, Note_on_c, 0, 95, 72
1, 474015, Note_off_c, 0, 48, 64
1, 474026, Note_on_c, 0, 93, 82
1, 474035, Note_off_c, 0, 50, 61
1, 474040, Note_off_c, 0, 38, 55
1, 474050, Note_on_c, 0, 52, 76
1, 474052, Note_on_c, 0, 40, 57
1, 474064, Note_on_c, 0, 91, 79
1, 474069, Note_off_c, 0, 52, 67
1, 474071, Note_off_c, 0, 93, 65
1, 474074, Note_off_c, 0, 95, 64
1, 474075, Note_on_c, 0, 53, 82
1, 474078, Note_off_c, 0, 96, 55
1, 474081, Note_off_c, 0, 40, 59
1, 474083, Note_on_c, 0, 41, 52
1, 474095, Note_off_c, 0, 53, 63
1, 474100, Note_on_c, 0, 55, 87
1, 474106, Note_on_c, 0, 43, 58
1, 474114, Note_off_c, 0, 41, 57
1, 474114, Note_off_c, 0, 91, 64
1, 474114, Note_on_c, 0, 89, 79
1, 474119, Note_off_c, 0, 55, 65
1, 474129, Note_on_c, 0, 57, 80
1, 474129, Note_off_c, 0, 43, 66
1, 474132, Note_off_c, 0, 57, 0
1, 474132, Note_on_c, 0, 45, 60
1, 474150, Poly_aftertouch_c, 0, 57, 0
1, 474153, Note_off_c, 0, 89, 61
1, 474155, Note_on_c, 0, 59, 87
1, 474156, Note_off_c, 0, 45, 61
1, 474158, Note_on_c, 0, 47, 63
1, 474176, Note_off_c, 0, 47, 69
1, 474180, Note_off_c, 0, 59, 61
1, 474184, Note_on_c, 0, 60, 85
1, 474185, Note_on_c, 0, 48, 64
1, 474191, Note_on_c, 0, 88, 76
1, 474212, Note_off_c, 0, 48, 58
1, 474213, Note_on_c, 0, 86, 77
1, 474215, Note_on_c, 0, 50, 76
1, 474221, Note_on_c, 0, 62, 81
1, 474230, Note_off_c, 0, 60, 63
1, 474236, Note_off_c, 0, 50, 68
1, 474262, Note_on_c, 0, 52, 77
1, 474275, Note_on_c, 0, 84, 74
1, 474277, Note_on_c, 0, 64, 76
1, 474287, Note_off_c, 0, 62, 65
1, 474287, Note_off_c, 0, 86, 64
1, 474287, Note_off_c, 0, 88, 63
1, 474289, Note_off_c, 0, 52, 56
1, 474317, Note_on_c, 0, 83, 85
1, 474323, Note_off_c, 0, 84, 67
1, 474330, Note_on_c, 0, 53, 58
1, 474339, Note_off_c, 0, 64, 65
1, 474359, Note_off_c, 0, 83, 67
1, 474360, Note_off_c, 0, 53, 64
1, 474399, Note_on_c, 0, 81, 86
1, 474421, Note_on_c, 0, 67, 102
1, 474428, Note_on_c, 0, 55, 79
1, 474437, Note_on_c, 0, 53, 70
1, 474452, Note_off_c, 0, 81, 65
1, 474453, Note_off_c, 0, 53, 66
1, 474454, Note_on_c, 0, 56, 66
1, 474467, Note_on_c, 0, 79, 87
1, 474477, Note_off_c, 0, 56, 62
1, 474520, Note_on_c, 0, 81, 84
1, 474520, Note_off_c, 0, 79, 65
1, 474548, Control_c, 0, 64, 76
1, 474563, Control_c, 0, 64, 22
1, 474572, Note_off_c, 0, 81, 63
1, 474575, Note_on_c, 0, 79, 86
1, 474578, Control_c, 0, 64, 0
1, 474607, Control_c, 0, 64, 60
1, 474622, Control_c, 0, 64, 91
1, 474633, Note_off_c, 0, 79, 64
1, 474637, Control_c, 0, 64, 127
1, 474639, Note_on_c, 0, 81, 84
1, 474687, Note_on_c, 0, 83, 89
1, 474693, Note_off_c, 0, 81, 64
1, 474711, Note_on_c, 0, 84, 56
1, 474740, Note_off_c, 0, 84, 58
1, 474743, Note_on_c, 0, 81, 83
1, 474755, Note_off_c, 0, 83, 68
1, 474780, Note_off_c, 0, 67, 56
1, 474801, Note_off_c, 0, 81, 62
1, 474804, Note_on_c, 0, 79, 92
1, 474831, Note_off_c, 0, 55, 63
1, 474866, Note_off_c, 0, 79, 64
1, 474868, Note_on_c, 0, 81, 81
1, 474918, Note_on_c, 0, 83, 84
1, 474918, Note_off_c, 0, 81, 64
1, 474943, Note_off_c, 0, 83, 70
1, 474978, Note_on_c, 0, 84, 87
1, 475053, Note_on_c, 0, 86, 89
1, 475059, Note_off_c, 0, 84, 67
1, 475104, Note_on_c, 0, 88, 86
1, 475131, Note_off_c, 0, 86, 67
1, 475165, Note_on_c, 0, 89, 88
1, 475168, Note_off_c, 0, 88, 70
1, 475189, Note_on_c, 0, 91, 87
1, 475217, Note_off_c, 0, 89, 64
1, 475235, Note_off_c, 0, 91, 67
1, 475292, Note_on_c, 0, 45, 97
1, 475292, Note_on_c, 0, 95, 97
1, 475293, Note_on_c, 0, 93, 101
1, 475295, Note_on_c, 0, 38, 91
1, 475295, Note_on_c, 0, 50, 96
1, 475307, Note_on_c, 0, 81, 71
1, 475312, Control_c, 0, 64, 61
1, 475314, Note_on_c, 0, 86, 58
1, 475321, Note_off_c, 0, 81, 67
1, 475324, Note_off_c, 0, 95, 70
1, 475327, Control_c, 0, 64, 0
1, 475329, Note_off_c, 0, 93, 68
1, 475335, Note_off_c, 0, 86, 41
1, 475354, Note_off_c, 0, 38, 63
1, 475356, Control_c, 0, 64, 54
1, 475371, Control_c, 0, 64, 95
1, 475380, Note_off_c, 0, 45, 66
1, 475385, Note_off_c, 0, 50, 65
1, 475386, Control_c, 0, 64, 127
1, 475617, Note_on_c, 0, 74, 69
1, 475633, Poly_aftertouch_c, 0, 69, 127
1, 475643, Note_on_c, 0, 69, 3
1, 475659, Note_off_c, 0, 74, 59
1, 475671, Note_off_c, 0, 69, 0
1, 475696, Note_on_c, 0, 77, 71
1, 475700, Note_on_c, 0, 69, 39
1, 475726, Note_off_c, 0, 77, 67
1, 475727, Note_on_c, 0, 62, 26
1, 475749, Note_off_c, 0, 69, 52
1, 475767, Note_on_c, 0, 74, 80
1, 475772, Note_off_c, 0, 62, 48
1, 475788, Note_on_c, 0, 69, 57
1, 475810, Note_off_c, 0, 69, 67
1, 475815, Note_off_c, 0, 74, 60
1, 475828, Note_on_c, 0, 77, 66
1, 475859, Note_on_c, 0, 62, 58
1, 475880, Note_off_c, 0, 62, 65
1, 475882, Note_on_c, 0, 69, 39
1, 475883, Note_on_c, 0, 81, 74
1, 475888, Note_off_c, 0, 77, 65
1, 475928, Control_c, 0, 64, 93
1, 475943, Control_c, 0, 64, 50
1, 475946, Note_off_c, 0, 69, 64
1, 475953, Note_on_c, 0, 76, 88
1, 475958, Control_c, 0, 64, 0
1, 475958, Control_c, 0, 67, 12
1, 475959, Note_off_c, 0, 81, 52
1, 475970, Note_on_c, 0, 69, 66
1, 475972, Control_c, 0, 67, 18
1, 475974, Note_on_c, 0, 62, 64
1, 475987, Control_c, 0, 67, 29
1, 475995, Note_off_c, 0, 76, 63
1, 476002, Control_c, 0, 67, 43
1, 476008, Note_off_c, 0, 62, 68
1, 476009, Note_off_c, 0, 69, 66
1, 476017, Control_c, 0, 67, 59
1, 476032, Control_c, 0, 67, 71
1, 476044, Note_on_c, 0, 69, 60
1, 476046, Control_c, 0, 67, 81
1, 476061, Control_c, 0, 67, 89
1, 476072, Note_off_c, 0, 69, 67
1, 476076, Control_c, 0, 67, 96
1, 476091, Control_c, 0, 67, 101
1, 476105, Note_on_c, 0, 62, 58
1, 476105, Control_c, 0, 67, 103
1, 476108, Note_on_c, 0, 72, 65
1, 476116, Note_on_c, 0, 69, 53
1, 476132, Note_off_c, 0, 62, 69
1, 476135, Note_off_c, 0, 69, 65
1, 476142, Note_off_c, 0, 72, 61
1, 476150, Control_c, 0, 67, 104
1, 476165, Control_c, 0, 67, 105
1, 476180, Control_c, 0, 67, 105
1, 476195, Note_on_c, 0, 69, 45
1, 476195, Control_c, 0, 67, 106
1, 476218, Note_off_c, 0, 69, 0
1, 476225, Control_c, 0, 67, 106
1, 476239, Control_c, 0, 67, 107
1, 476243, Note_on_c, 0, 62, 56
1, 476244, Note_on_c, 0, 76, 79
1, 476249, Note_on_c, 0, 69, 47
1, 476270, Note_off_c, 0, 62, 67
1, 476275, Note_off_c, 0, 76, 65
1, 476296, Note_off_c, 0, 69, 0
1, 476312, Note_on_c, 0, 69, 51
1, 476342, Note_off_c, 0, 69, 66
1, 476374, Note_on_c, 0, 62, 56
1, 476380, Note_on_c, 0, 79, 80
1, 476381, Note_on_c, 0, 69, 54
1, 476407, Note_off_c, 0, 62, 65
1, 476408, Note_off_c, 0, 69, 60
1, 476411, Note_off_c, 0, 79, 67
1, 476416, Control_c, 0, 67, 107
1, 476431, Control_c, 0, 67, 106
1, 476446, Control_c, 0, 67, 105
1, 476451, Note_on_c, 0, 69, 60
1, 476461, Control_c, 0, 67, 103
1, 476475, Control_c, 0, 64, 44
1, 476475, Control_c, 0, 67, 102
1, 476492, Note_off_c, 0, 69, 0
1, 476497, Control_c, 0, 64, 60
1, 476497, Control_c, 0, 67, 101
1, 476513, Control_c, 0, 64, 70
1, 476513, Control_c, 0, 67, 100
1, 476520, Note_on_c, 0, 62, 65
1, 476521, Note_on_c, 0, 77, 87
1, 476528, Control_c, 0, 64, 82
1, 476528, Control_c, 0, 67, 99
1, 476530, Poly_aftertouch_c, 0, 69, 127
1, 476543, Control_c, 0, 64, 106
1, 476543, Control_c, 0, 67, 98
1, 476545, Poly_aftertouch_c, 0, 69, 0
1, 476547, Note_off_c, 0, 62, 66
1, 476548, Note_off_c, 0, 77, 68
1, 476558, Control_c, 0, 64, 127
1, 476558, Control_c, 0, 67, 97
1, 476573, Control_c, 0, 67, 97
1, 476600, Note_on_c, 0, 69, 67
1, 476617, Control_c, 0, 67, 96
1, 476629, Note_off_c, 0, 69, 0
1, 476660, Note_on_c, 0, 62, 51
1, 476666, Poly_aftertouch_c, 0, 69, 127
1, 476675, Note_on_c, 0, 77, 77
1, 476689, Note_off_c, 0, 62, 65
1, 476691, Control_c, 0, 67, 97
1, 476695, Poly_aftertouch_c, 0, 69, 0
1, 476707, Note_off_c, 0, 77, 64
1, 476745, Note_on_c, 0, 74, 71
1, 476749, Poly_aftertouch_c, 0, 69, 127
1, 476760, Poly_aftertouch_c, 0, 69, 0
1, 476779, Note_off_c, 0, 74, 64
1, 476797, Note_on_c, 0, 62, 60
1, 476805, Note_on_c, 0, 69, 64
1, 476807, Note_on_c, 0, 77, 72
1, 476824, Control_c, 0, 67, 97
1, 476830, Note_off_c, 0, 69, 66
1, 476833, Note_off_c, 0, 62, 63
1, 476836, Note_off_c, 0, 77, 63
1, 476876, Note_on_c, 0, 74, 69
1, 476878, Note_on_c, 0, 69, 64
1, 476898, Control_c, 0, 67, 98
1, 476904, Note_off_c, 0, 69, 68
1, 476912, Note_off_c, 0, 74, 59
1, 476937, Note_on_c, 0, 77, 68
1, 476940, Note_on_c, 0, 62, 54
1, 476956, Note_on_c, 0, 69, 55
1, 476958, Control_c, 0, 67, 98
1, 476971, Note_off_c, 0, 62, 64
1, 476987, Control_c, 0, 64, 97
1, 476987, Control_c, 0, 67, 98
1, 476996, Note_off_c, 0, 77, 62
1, 477000, Note_off_c, 0, 69, 0
1, 477002, Control_c, 0, 64, 68
1, 477003, Note_on_c, 0, 81, 69
1, 477013, Note_on_c, 0, 69, 55
1, 477017, Control_c, 0, 64, 49
1, 477017, Control_c, 0, 67, 98
1, 477031, Control_c, 0, 64, 27
1, 477042, Note_off_c, 0, 69, 66
1, 477046, Control_c, 0, 64, 37
1, 477046, Control_c, 0, 67, 98
1, 477061, Control_c, 0, 64, 62
1, 477076, Note_on_c, 0, 76, 81
1, 477076, Control_c, 0, 64, 82
1, 477078, Note_off_c, 0, 81, 61
1, 477079, Note_on_c, 0, 62, 56
1, 477091, Control_c, 0, 64, 127
1, 477097, Note_on_c, 0, 69, 52
1, 477111, Note_off_c, 0, 76, 59
1, 477113, Note_off_c, 0, 62, 64
1, 477120, Control_c, 0, 67, 97
1, 477142, Note_off_c, 0, 69, 0
1, 477150, Control_c, 0, 67, 97
1, 477155, Note_on_c, 0, 69, 56
1, 477185, Note_off_c, 0, 69, 65
1, 477213, Note_on_c, 0, 62, 67
1, 477226, Note_on_c, 0, 72, 75
1, 477243, Poly_aftertouch_c, 0, 69, 0
1, 477261, Note_off_c, 0, 62, 64
1, 477272, Note_off_c, 0, 72, 59
1, 477306, Control_c, 0, 67, 96
1, 477308, Poly_aftertouch_c, 0, 69, 127
1, 477319, Poly_aftertouch_c, 0, 69, 0
1, 477360, Note_on_c, 0, 62, 67
1, 477372, Poly_aftertouch_c, 0, 69, 0
1, 477378, Note_on_c, 0, 76, 79
1, 477388, Note_off_c, 0, 62, 64
1, 477410, Control_c, 0, 67, 96
1, 477420, Note_off_c, 0, 76, 62
1, 477435, Poly_aftertouch_c, 0, 69, 0
1, 477474, Note_on_c, 0, 62, 54
1, 477505, Note_on_c, 0, 69, 56
1, 477521, Note_on_c, 0, 79, 85
1, 477527, Note_off_c, 0, 69, 62
1, 477554, Note_off_c, 0, 62, 63
1, 477560, Note_on_c, 0, 69, 61
1, 477562, Note_off_c, 0, 79, 62
1, 477600, Note_off_c, 0, 69, 66
1, 477603, Control_c, 0, 67, 96
1, 477632, Control_c, 0, 67, 96
1, 477647, Control_c, 0, 64, 79
1, 477650, Note_on_c, 0, 69, 77
1, 477653, Note_on_c, 0, 65, 83
1, 477661, Control_c, 0, 64, 58
1, 477676, Control_c, 0, 64, 49
1, 477676, Control_c, 0, 67, 95
1, 477691, Control_c, 0, 64, 58
1, 477691, Control_c, 0, 67, 95
1, 477706, Control_c, 0, 64, 72
1, 477706, Control_c, 0, 67, 93
1, 477721, Control_c, 0, 64, 110
1, 477736, Control_c, 0, 64, 127
1, 477736, Control_c, 0, 67, 93
1, 477751, Control_c, 0, 67, 91
1, 477766, Control_c, 0, 67, 88
1, 477781, Control_c, 0, 67, 82
1, 477795, Note_on_c, 0, 67, 95
1, 477796, Control_c, 0, 67, 73
1, 477810, Control_c, 0, 67, 61
1, 477820, Note_off_c, 0, 67, 66
1, 477825, Control_c, 0, 67, 43
1, 477840, Control_c, 0, 67, 19
1, 477854, Control_c, 0, 67, 0
1, 477860, Note_off_c, 0, 69, 64
1, 477866, Note_off_c, 0, 65, 63
1, 477955, Note_on_c, 0, 65, 78
1, 477957, Note_on_c, 0, 69, 72
1, 478104, Note_on_c, 0, 67, 104
1, 478144, Note_off_c, 0, 67, 64
1, 478184, Note_off_c, 0, 69, 63
1, 478192, Note_off_c, 0, 65, 64
1, 478264, Note_on_c, 0, 65, 84
1, 478266, Note_on_c, 0, 69, 86
1, 478409, Note_on_c, 0, 67, 99
1, 478463, Note_off_c, 0, 67, 64
1, 478488, Note_off_c, 0, 69, 64
1, 478492, Note_off_c, 0, 65, 62
1, 478553, Note_on_c, 0, 69, 87
1, 478560, Note_on_c, 0, 65, 85
1, 478580, Note_off_c, 0, 69, 69
1, 478600, Note_off_c, 0, 65, 63
1, 478710, Note_on_c, 0, 67, 94
1, 478749, Note_off_c, 0, 67, 66
1, 478878, Control_c, 0, 64, 65
1, 478892, Control_c, 0, 64, 0
1, 478936, Note_on_c, 0, 93, 100
1, 478937, Note_on_c, 0, 45, 91
1, 478939, Note_on_c, 0, 50, 92
1, 478940, Note_on_c, 0, 38, 78
1, 478946, Note_on_c, 0, 86, 77
1, 478952, Control_c, 0, 64, 42
1, 478954, Note_on_c, 0, 81, 72
1, 478956, Note_on_c, 0, 89, 68
1, 478967, Control_c, 0, 64, 88
1, 478969, Note_off_c, 0, 86, 68
1, 478971, Note_off_c, 0, 38, 68
1, 478973, Note_off_c, 0, 89, 66
1, 478981, Note_off_c, 0, 81, 66
1, 478982, Control_c, 0, 64, 127
1, 478982, Note_off_c, 0, 45, 65
1, 478982, Note_off_c, 0, 50, 67
1, 479000, Note_off_c, 0, 93, 65
1, 479063, Note_on_c, 0, 86, 24
1, 479101, Note_off_c, 0, 86, 32
1, 479141, Note_on_c, 0, 62, 54
1, 479170, Note_on_c, 0, 69, 37
1, 479188, Note_off_c, 0, 62, 62
1, 479215, Note_off_c, 0, 69, 0
1, 479215, Note_on_c, 0, 69, 30
1, 479226, Note_on_c, 0, 74, 62
1, 479247, Note_off_c, 0, 69, 52
1, 479256, Note_off_c, 0, 74, 64
1, 479289, Note_on_c, 0, 77, 72
1, 479310, Note_on_c, 0, 62, 34
1, 479335, Note_off_c, 0, 77, 63
1, 479343, Note_off_c, 0, 62, 51
1, 479356, Note_on_c, 0, 69, 52
1, 479356, Note_on_c, 0, 74, 71
1, 479390, Note_off_c, 0, 69, 66
1, 479404, Note_off_c, 0, 74, 60
1, 479426, Note_on_c, 0, 77, 82
1, 479434, Note_on_c, 0, 62, 59
1, 479448, Note_on_c, 0, 69, 55
1, 479458, Note_off_c, 0, 62, 66
1, 479488, Note_off_c, 0, 69, 0
1, 479488, Note_on_c, 0, 69, 47
1, 479492, Note_off_c, 0, 77, 63
1, 479495, Note_on_c, 0, 81, 80
1, 479528, Note_off_c, 0, 69, 66
1, 479553, Control_c, 0, 64, 100
1, 479557, Note_on_c, 0, 76, 93
1, 479561, Note_on_c, 0, 62, 66
1, 479568, Control_c, 0, 64, 77
1, 479574, Note_on_c, 0, 69, 69
1, 479574, Note_off_c, 0, 81, 62
1, 479582, Control_c, 0, 64, 69
1, 479595, Note_off_c, 0, 69, 64
1, 479596, Note_off_c, 0, 62, 67
1, 479597, Control_c, 0, 64, 70
1, 479601, Note_off_c, 0, 76, 64
1, 479612, Control_c, 0, 64, 74
1, 479627, Control_c, 0, 64, 84
1, 479641, Control_c, 0, 64, 120
1, 479647, Note_on_c, 0, 69, 62
1, 479656, Control_c, 0, 64, 127
1, 479668, Note_off_c, 0, 69, 58
1, 479708, Note_on_c, 0, 62, 64
1, 479708, Note_on_c, 0, 72, 75
1, 479709, Note_on_c, 0, 69, 60
1, 479735, Note_off_c, 0, 62, 66
1, 479737, Note_off_c, 0, 69, 66
1, 479744, Note_off_c, 0, 72, 61
1, 479746, Control_c, 0, 64, 99
1, 479761, Control_c, 0, 64, 74
1, 479776, Control_c, 0, 64, 60
1, 479787, Poly_aftertouch_c, 0, 69, 127
1, 479791, Control_c, 0, 64, 43
1, 479802, Poly_aftertouch_c, 0, 69, 0
1, 479805, Control_c, 0, 64, 32
1, 479820, Control_c, 0, 64, 18
1, 479835, Control_c, 0, 64, 0
1, 479845, Note_on_c, 0, 62, 53
1, 479845, Note_on_c, 0, 76, 81
1, 479855, Note_on_c, 0, 69, 59
1, 479864, Control_c, 0, 64, 25
1, 479876, Note_off_c, 0, 62, 65
1, 479879, Control_c, 0, 64, 56
1, 479882, Note_off_c, 0, 76, 62
1, 479894, Control_c, 0, 64, 76
1, 479901, Note_off_c, 0, 69, 0
1, 479909, Control_c, 0, 64, 112
1, 479915, Note_on_c, 0, 69, 54
1, 479924, Control_c, 0, 64, 127
1, 479946, Note_off_c, 0, 69, 65
1, 479981, Note_on_c, 0, 62, 58
1, 479985, Note_on_c, 0, 79, 78
1, 480001, Note_on_c, 0, 69, 53
1, 480011, Note_off_c, 0, 62, 65
1, 480014, Note_off_c, 0, 79, 65
1, 480040, Note_off_c, 0, 69, 0
1, 480043, Control_c, 0, 64, 81
1, 480056, Note_on_c, 0, 69, 48
1, 480057, Control_c, 0, 64, 63
1, 480072, Control_c, 0, 64, 45
1, 480087, Control_c, 0, 64, 28
1, 480088, Note_off_c, 0, 69, 57
1, 480102, Control_c, 0, 64, 31
1, 480117, Control_c, 0, 64, 49
1, 480120, Note_on_c, 0, 77, 82
1, 480123, Note_on_c, 0, 62, 55
1, 480128, Note_on_c, 0, 69, 52
1, 480131, Control_c, 0, 64, 67
1, 480146, Control_c, 0, 64, 91
1, 480154, Note_off_c, 0, 62, 64
1, 480154, Note_off_c, 0, 69, 65
1, 480159, Note_off_c, 0, 77, 63
1, 480161, Control_c, 0, 64, 127
1, 480215, Note_on_c, 0, 69, 45
1, 480274, Note_off_c, 0, 69, 0
1, 480274, Note_on_c, 0, 69, 45
1, 480276, Note_on_c, 0, 62, 55
1, 480278, Note_on_c, 0, 77, 76
1, 480308, Note_off_c, 0, 62, 64
1, 480317, Note_off_c, 0, 69, 0
1, 480317, Note_off_c, 0, 77, 63
1, 480353, Note_on_c, 0, 74, 66
1, 480353, Poly_aftertouch_c, 0, 69, 127
1, 480376, Poly_aftertouch_c, 0, 69, 0
1, 480381, Note_off_c, 0, 74, 67
1, 480416, Note_on_c, 0, 62, 52
1, 480417, Note_on_c, 0, 77, 71
1, 480422, Note_on_c, 0, 69, 56
1, 480446, Note_off_c, 0, 77, 67
1, 480448, Note_off_c, 0, 69, 60
1, 480449, Note_off_c, 0, 62, 62
1, 480468, Note_on_c, 0, 74, 67
1, 480483, Note_on_c, 0, 69, 52
1, 480514, Note_off_c, 0, 69, 61
1, 480522, Note_off_c, 0, 74, 61
1, 480527, Note_on_c, 0, 77, 65
1, 480550, Note_on_c, 0, 62, 53
1, 480565, Note_on_c, 0, 69, 46
1, 480580, Note_off_c, 0, 62, 60
1, 480593, Note_off_c, 0, 77, 64
1, 480607, Note_off_c, 0, 69, 0
1, 480607, Note_on_c, 0, 69, 37
1, 480610, Note_on_c, 0, 81, 72
1, 480613, Control_c, 0, 64, 96
1, 480627, Control_c, 0, 64, 67
1, 480642, Control_c, 0, 64, 48
1, 480649, Note_off_c, 0, 69, 60
1, 480657, Control_c, 0, 64, 27
1, 480672, Control_c, 0, 64, 28
1, 480678, Note_on_c, 0, 62, 59
1, 480687, Control_c, 0, 64, 49
1, 480692, Note_on_c, 0, 76, 77
1, 480693, Note_on_c, 0, 69, 43
1, 480693, Note_off_c, 0, 81, 57
1, 480702, Control_c, 0, 64, 66
1, 480717, Control_c, 0, 64, 85
1, 480721, Note_off_c, 0, 62, 61
1, 480732, Control_c, 0, 64, 127
1, 480741, Note_off_c, 0, 69, 0
1, 480741, Note_on_c, 0, 69, 42
1, 480746, Note_off_c, 0, 76, 61
1, 480785, Note_off_c, 0, 69, 62
1, 480820, Note_on_c, 0, 62, 57
1, 480842, Note_on_c, 0, 69, 20
1, 480843, Note_on_c, 0, 72, 75
1, 480854, Note_off_c, 0, 62, 62
1, 480879, Note_off_c, 0, 72, 60
1, 480935, Note_off_c, 0, 69, 0
1, 480961, Note_on_c, 0, 62, 49
1, 480977, Note_on_c, 0, 69, 20
1, 480995, Note_on_c, 0, 76, 78
1, 480997, Note_off_c, 0, 62, 64
1, 481039, Note_off_c, 0, 76, 60
1, 481064, Note_off_c, 0, 69, 56
1, 481095, Note_on_c, 0, 62, 56
1, 481116, Poly_aftertouch_c, 0, 69, 127
1, 481119, Note_on_c, 0, 69, 17
1, 481134, Note_on_c, 0, 79, 81
1, 481165, Note_off_c, 0, 79, 63
1, 481170, Note_off_c, 0, 69, 0
1, 481170, Note_on_c, 0, 69, 30
1, 481173, Note_off_c, 0, 62, 61
1, 481212, Note_off_c, 0, 69, 63
1, 481257, Control_c, 0, 64, 88
1, 481272, Control_c, 0, 64, 64
1, 481280, Note_on_c, 0, 69, 56
1, 481284, Note_on_c, 0, 65, 56
1, 481286, Control_c, 0, 64, 30
1, 481302, Control_c, 0, 64, 0
1, 481391, Control_c, 0, 64, 38
1, 481406, Control_c, 0, 64, 59
1, 481421, Control_c, 0, 64, 69
1, 481432, Note_on_c, 0, 71, 59
1, 481436, Control_c, 0, 64, 76
1, 481450, Control_c, 0, 64, 82
1, 481465, Control_c, 0, 64, 86
1, 481468, Note_off_c, 0, 71, 59
1, 481477, Note_off_c, 0, 69, 60
1, 481480, Control_c, 0, 64, 89
1, 481486, Note_on_c, 0, 72, 50
1, 481492, Note_off_c, 0, 65, 61
1, 481495, Control_c, 0, 64, 94
1, 481510, Control_c, 0, 64, 99
1, 481524, Note_on_c, 0, 74, 59
1, 481525, Control_c, 0, 64, 100
1, 481528, Note_off_c, 0, 72, 59
1, 481540, Control_c, 0, 64, 98
1, 481555, Control_c, 0, 64, 84
1, 481569, Control_c, 0, 64, 70
1, 481571, Note_off_c, 0, 74, 64
1, 481578, Note_on_c, 0, 76, 66
1, 481583, Note_on_c, 0, 69, 51
1, 481584, Control_c, 0, 64, 61
1, 481587, Note_on_c, 0, 65, 44
1, 481599, Control_c, 0, 64, 57
1, 481614, Control_c, 0, 64, 64
1, 481629, Control_c, 0, 64, 77
1, 481644, Control_c, 0, 64, 100
1, 481658, Control_c, 0, 64, 127
1, 481721, Note_off_c, 0, 76, 61
1, 481741, Note_on_c, 0, 74, 59
1, 481762, Note_off_c, 0, 69, 41
1, 481762, Note_off_c, 0, 65, 59
1, 481779, Note_on_c, 0, 72, 65
1, 481807, Note_off_c, 0, 74, 63
1, 481814, Control_c, 0, 64, 95
1, 481820, Note_off_c, 0, 72, 60
1, 481828, Control_c, 0, 64, 72
1, 481832, Note_on_c, 0, 71, 71
1, 481843, Control_c, 0, 64, 60
1, 481858, Control_c, 0, 64, 57
1, 481867, Note_on_c, 0, 69, 55
1, 481873, Control_c, 0, 64, 64
1, 481886, Note_on_c, 0, 65, 58
1, 481888, Control_c, 0, 64, 76
1, 481902, Control_c, 0, 64, 127
1, 481920, Note_off_c, 0, 71, 60
1, 482039, Note_on_c, 0, 67, 78
1, 482046, Note_off_c, 0, 65, 48
1, 482053, Note_off_c, 0, 69, 31
1, 482061, Note_off_c, 0, 67, 62
1, 482179, Note_on_c, 0, 69, 52
1, 482187, Note_on_c, 0, 65, 55
1, 482339, Note_on_c, 0, 67, 86
1, 482368, Note_off_c, 0, 69, 39
1, 482371, Note_off_c, 0, 67, 64
1, 482388, Note_off_c, 0, 65, 33
1, 482496, Note_on_c, 0, 69, 42
1, 482517, Note_on_c, 0, 65, 47
1, 482648, Note_on_c, 0, 67, 88
1, 482657, Note_off_c, 0, 69, 32
1, 482660, Note_off_c, 0, 65, 25
1, 482687, Note_off_c, 0, 67, 63
1, 482802, Note_on_c, 0, 69, 48
1, 482815, Note_on_c, 0, 65, 48
1, 482908, Note_off_c, 0, 65, 34
1, 482953, Note_on_c, 0, 67, 88
1, 483003, Note_off_c, 0, 67, 64
1, 483010, Note_off_c, 0, 69, 19
1, 483114, Note_on_c, 0, 69, 64
1, 483139, Note_on_c, 0, 65, 48
1, 483146, Note_off_c, 0, 69, 61
1, 483166, Note_off_c, 0, 65, 58
1, 483272, Note_on_c, 0, 71, 54
1, 483292, Note_on_c, 0, 72, 56
1, 483310, Note_off_c, 0, 71, 59
1, 483344, Note_on_c, 0, 74, 59
1, 483370, Note_off_c, 0, 72, 57
1, 483399, Note_off_c, 0, 74, 65
1, 483403, Note_on_c, 0, 76, 67
1, 483414, Note_on_c, 0, 69, 56
1, 483421, Note_on_c, 0, 65, 54
1, 483450, Note_off_c, 0, 69, 59
1, 483462, Note_off_c, 0, 65, 60
1, 483548, Note_off_c, 0, 76, 58
1, 483555, Note_on_c, 0, 74, 60
1, 483601, Note_on_c, 0, 72, 54
1, 483635, Note_off_c, 0, 74, 59
1, 483640, Note_off_c, 0, 72, 64
1, 483651, Note_on_c, 0, 71, 66
1, 483688, Note_on_c, 0, 69, 63
1, 483710, Note_on_c, 0, 65, 57
1, 483717, Note_off_c, 0, 71, 55
1, 483754, Note_off_c, 0, 69, 59
1, 483758, Note_off_c, 0, 65, 55
1, 483852, Note_on_c, 0, 67, 80
1, 483884, Note_off_c, 0, 67, 64
1, 484014, Note_on_c, 0, 69, 68
1, 484031, Note_on_c, 0, 65, 56
1, 484044, Note_off_c, 0, 69, 68
1, 484062, Note_off_c, 0, 65, 65
1, 484157, Note_on_c, 0, 67, 92
1, 484187, Note_off_c, 0, 67, 64
1, 484319, Note_on_c, 0, 69, 51
1, 484320, Note_on_c, 0, 65, 56
1, 484460, Note_on_c, 0, 72, 55
1, 484473, Note_on_c, 0, 76, 65
1, 484500, Note_off_c, 0, 72, 63
1, 484503, Note_on_c, 0, 77, 71
1, 484511, Note_off_c, 0, 69, 56
1, 484515, Note_on_c, 0, 74, 58
1, 484518, Note_off_c, 0, 76, 52
1, 484524, Note_off_c, 0, 65, 61
1, 484528, Note_on_c, 0, 79, 70
1, 484556, Note_off_c, 0, 74, 65
1, 484563, Note_off_c, 0, 77, 61
1, 484587, Note_on_c, 0, 76, 84
1, 484589, Note_on_c, 0, 81, 85
1, 484597, Note_on_c, 0, 77, 59
1, 484599, Note_off_c, 0, 79, 0
1, 484632, Note_on_c, 0, 79, 22
1, 484636, Note_off_c, 0, 77, 65
1, 484636, Note_off_c, 0, 79, 50
1, 484637, Note_off_c, 0, 81, 66
1, 484640, Note_on_c, 0, 65, 43
1, 484643, Note_off_c, 0, 76, 62
1, 484655, Note_on_c, 0, 69, 33
1, 484699, Note_on_c, 0, 74, 56
1, 484734, Note_off_c, 0, 69, 0
1, 484754, Note_on_c, 0, 79, 77
1, 484768, Note_off_c, 0, 74, 65
1, 484771, Poly_aftertouch_c, 0, 69, 127
1, 484777, Note_off_c, 0, 65, 55
1, 484810, Note_on_c, 0, 77, 69
1, 484813, Note_off_c, 0, 79, 61
1, 484822, Note_on_c, 0, 76, 74
1, 484825, Poly_aftertouch_c, 0, 69, 0
1, 484875, Note_on_c, 0, 74, 78
1, 484877, Note_on_c, 0, 69, 75
1, 484878, Note_off_c, 0, 77, 59
1, 484884, Note_off_c, 0, 76, 59
1, 484888, Note_on_c, 0, 71, 83
1, 484893, Note_on_c, 0, 65, 61
1, 484905, Note_off_c, 0, 69, 68
1, 484909, Note_off_c, 0, 74, 62
1, 484921, Note_off_c, 0, 65, 66
1, 484927, Note_off_c, 0, 71, 63
1, 485033, Note_on_c, 0, 67, 80
1, 485037, Note_on_c, 0, 74, 74
1, 485042, Note_on_c, 0, 71, 65
1, 485081, Note_off_c, 0, 71, 59
1, 485089, Note_off_c, 0, 67, 64
1, 485119, Note_off_c, 0, 74, 60
1, 485166, Note_on_c, 0, 65, 71
1, 485167, Note_on_c, 0, 69, 66
1, 485185, Note_off_c, 0, 69, 69
1, 485194, Note_off_c, 0, 65, 65
1, 485321, Note_on_c, 0, 67, 83
1, 485325, Note_on_c, 0, 74, 80
1, 485328, Note_on_c, 0, 71, 76
1, 485398, Note_off_c, 0, 67, 63
1, 485428, Note_off_c, 0, 71, 64
1, 485443, Note_off_c, 0, 74, 64
1, 485463, Note_on_c, 0, 65, 66
1, 485501, Note_off_c, 0, 65, 65
1, 485623, Note_on_c, 0, 76, 74
1, 485670, Note_on_c, 0, 77, 71
1, 485672, Note_off_c, 0, 76, 63
1, 485730, Note_on_c, 0, 79, 78
1, 485753, Note_on_c, 0, 81, 86
1, 485756, Note_on_c, 0, 72, 73
1, 485781, Note_off_c, 0, 79, 62
1, 485788, Note_off_c, 0, 77, 66
1, 485789, Note_off_c, 0, 72, 64
1, 485794, Note_on_c, 0, 69, 24
1, 485803, Note_off_c, 0, 81, 64
1, 485836, Note_off_c, 0, 69, 47
1, 485838, Poly_aftertouch_c, 0, 65, 0
1, 485870, Poly_aftertouch_c, 0, 65, 0
1, 485904, Note_on_c, 0, 79, 76
1, 485928, Note_on_c, 0, 77, 77
1, 485972, Note_off_c, 0, 79, 62
1, 485980, Note_on_c, 0, 76, 75
1, 485996, Note_off_c, 0, 77, 65
1, 486002, Note_on_c, 0, 71, 55
1, 486019, Note_on_c, 0, 65, 85
1, 486023, Note_on_c, 0, 69, 82
1, 486026, Note_on_c, 0, 72, 39
1, 486048, Note_off_c, 0, 69, 69
1, 486050, Note_off_c, 0, 76, 63
1, 486052, Note_off_c, 0, 72, 35
1, 486055, Note_off_c, 0, 71, 60
1, 486071, Note_off_c, 0, 65, 64
1, 486168, Note_on_c, 0, 74, 87
1, 486178, Note_on_c, 0, 67, 83
1, 486196, Note_on_c, 0, 71, 61
1, 486256, Note_off_c, 0, 67, 62
1, 486273, Note_off_c, 0, 71, 64
1, 486292, Note_off_c, 0, 74, 64
1, 486316, Note_on_c, 0, 65, 68
1, 486329, Note_on_c, 0, 69, 47
1, 486349, Note_off_c, 0, 65, 64
1, 486350, Note_off_c, 0, 69, 62
1, 486446, Note_on_c, 0, 60, 76
1, 486454, Note_on_c, 0, 76, 78
1, 486488, Note_on_c, 0, 77, 59
1, 486505, Note_off_c, 0, 60, 59
1, 486509, Note_on_c, 0, 59, 43
1, 486516, Note_off_c, 0, 76, 63
1, 486534, Note_on_c, 0, 79, 79
1, 486536, Note_off_c, 0, 59, 53
1, 486542, Note_off_c, 0, 77, 65
1, 486553, Note_on_c, 0, 57, 61
1, 486564, Note_on_c, 0, 55, 66
1, 486580, Note_on_c, 0, 77, 82
1, 486588, Note_on_c, 0, 81, 85
1, 486592, Note_off_c, 0, 57, 65
1, 486596, Note_on_c, 0, 74, 79
1, 486601, Note_off_c, 0, 79, 66
1, 486622, Note_off_c, 0, 74, 65
1, 486639, Note_off_c, 0, 81, 64
1, 486648, Note_off_c, 0, 77, 62
1, 486664, Note_off_c, 0, 55, 63
1, 486731, Note_on_c, 0, 79, 69
1, 486746, Note_on_c, 0, 57, 65
1, 486751, Note_on_c, 0, 77, 76
1, 486758, Note_on_c, 0, 76, 61
1, 486780, Note_off_c, 0, 79, 65
1, 486785, Note_off_c, 0, 57, 64
1, 486797, Note_off_c, 0, 77, 66
1, 486798, Note_off_c, 0, 76, 54
1, 486846, Poly_aftertouch_c, 0, 59, 0
1, 486858, Note_on_c, 0, 74, 94
1, 486861, Note_on_c, 0, 65, 80
1, 486867, Note_on_c, 0, 66, 80
1, 486868, Note_on_c, 0, 67, 89
1, 486872, Note_on_c, 0, 71, 81
1, 486873, Note_on_c, 0, 69, 81
1, 486886, Note_on_c, 0, 62, 44
1, 486898, Note_off_c, 0, 69, 57
1, 486905, Note_off_c, 0, 67, 60
1, 486913, Note_off_c, 0, 66, 56
1, 486920, Note_off_c, 0, 62, 60
1, 486920, Note_off_c, 0, 65, 61
1, 486932, Poly_aftertouch_c, 0, 64, 127
1, 486933, Note_off_c, 0, 71, 54
1, 486934, Note_off_c, 0, 74, 63
1, 486972, Poly_aftertouch_c, 0, 64, 0
1, 487016, Note_on_c, 0, 67, 89
1, 487017, Note_on_c, 0, 71, 88
1, 487019, Note_on_c, 0, 74, 88
1, 487029, Note_on_c, 0, 62, 41
1, 487042, Note_off_c, 0, 67, 68
1, 487069, Note_off_c, 0, 71, 63
1, 487078, Note_off_c, 0, 62, 45
1, 487094, Note_off_c, 0, 74, 64
1, 487125, Note_on_c, 0, 65, 77
1, 487136, Poly_aftertouch_c, 0, 73, 0
1, 487167, Note_on_c, 0, 62, 77
1, 487180, Note_off_c, 0, 65, 63
1, 487198, Note_off_c, 0, 62, 66
1, 487254, Poly_aftertouch_c, 0, 61, 127
1, 487260, Note_on_c, 0, 57, 70
1, 487260, Note_on_c, 0, 76, 85
1, 487263, Poly_aftertouch_c, 0, 77, 0
1, 487281, Poly_aftertouch_c, 0, 61, 0
1, 487287, Note_on_c, 0, 55, 50
1, 487306, Note_on_c, 0, 77, 62
1, 487317, Note_off_c, 0, 55, 55
1, 487319, Note_off_c, 0, 57, 61
1, 487329, Note_off_c, 0, 76, 62
1, 487334, Note_on_c, 0, 79, 88
1, 487343, Note_on_c, 0, 52, 38
1, 487346, Note_on_c, 0, 50, 41
1, 487354, Note_off_c, 0, 77, 63
1, 487377, Note_off_c, 0, 52, 46
1, 487380, Note_off_c, 0, 50, 47
1, 487397, Note_on_c, 0, 43, 89
1, 487400, Note_on_c, 0, 81, 95
1, 487404, Note_on_c, 0, 77, 86
1, 487406, Poly_aftertouch_c, 0, 47, 127
1, 487412, Note_on_c, 0, 74, 95
1, 487420, Note_off_c, 0, 79, 61
1, 487437, Poly_aftertouch_c, 0, 47, 0
1, 487452, Note_on_c, 0, 50, 81
1, 487459, Note_off_c, 0, 74, 59
1, 487472, Note_off_c, 0, 81, 62
1, 487494, Note_off_c, 0, 43, 62
1, 487497, Note_off_c, 0, 77, 63
1, 487511, Note_off_c, 0, 50, 66
1, 487527, Note_on_c, 0, 55, 74
1, 487536, Note_on_c, 0, 53, 61
1, 487552, Note_off_c, 0, 55, 67
1, 487557, Note_off_c, 0, 53, 63
1, 487559, Note_on_c, 0, 79, 71
1, 487565, Note_on_c, 0, 77, 81
1, 487572, Note_on_c, 0, 71, 83
1, 487585, Note_on_c, 0, 76, 76
1, 487588, Note_on_c, 0, 74, 60
1, 487610, Note_off_c, 0, 79, 64
1, 487611, Note_off_c, 0, 71, 58
1, 487615, Note_off_c, 0, 77, 66
1, 487618, Note_off_c, 0, 74, 65
1, 487621, Note_on_c, 0, 60, 76
1, 487623, Note_off_c, 0, 76, 58
1, 487668, Note_off_c, 0, 60, 61
1, 487678, Note_on_c, 0, 62, 90
1, 487680, Note_on_c, 0, 74, 97
1, 487682, Note_on_c, 0, 71, 90
1, 487683, Note_on_c, 0, 67, 93
1, 487704, Note_off_c, 0, 67, 68
1, 487738, Note_off_c, 0, 71, 62
1, 487740, Note_on_c, 0, 72, 11
1, 487779, Note_off_c, 0, 74, 64
1, 487785, Note_on_c, 0, 60, 77
1, 487786, Note_off_c, 0, 62, 61
1, 487788, Note_off_c, 0, 72, 43
1, 487841, Note_on_c, 0, 76, 73
1, 487859, Note_on_c, 0, 77, 74
1, 487859, Note_off_c, 0, 76, 41
1, 487860, Note_on_c, 0, 59, 81
1, 487871, Note_on_c, 0, 79, 75
1, 487874, Note_off_c, 0, 77, 46
1, 487884, Note_on_c, 0, 81, 74
1, 487886, Note_off_c, 0, 60, 61
1, 487889, Note_off_c, 0, 79, 68
1, 487895, Note_on_c, 0, 83, 74
1, 487896, Note_off_c, 0, 83, 127
1, 487900, Poly_aftertouch_c, 0, 74, 0
1, 487901, Note_off_c, 0, 81, 46
1, 487910, Note_on_c, 0, 84, 69
1, 487911, Note_off_c, 0, 84, 127
1, 487915, Note_on_c, 0, 57, 73
1, 487926, Note_on_c, 0, 86, 55
1, 487927, Note_off_c, 0, 86, 127
1, 487942, Note_off_c, 0, 59, 64
1, 487993, Note_on_c, 0, 55, 96
1, 487999, Note_on_c, 0, 91, 108
1, 488023, Note_off_c, 0, 57, 40
1, 488058, Note_off_c, 0, 91, 63
1, 488106, Note_off_c, 0, 55, 62
1, 488117, Note_on_c, 0, 89, 92
1, 488121, Note_on_c, 0, 57, 74
1, 488132, Note_on_c, 0, 59, 60
1, 488136, Note_on_c, 0, 88, 97
1, 488137, Note_off_c, 0, 89, 67
1, 488151, Note_off_c, 0, 88, 76
1, 488152, Note_on_c, 0, 86, 94
1, 488169, Note_on_c, 0, 84, 84
1, 488171, Note_off_c, 0, 86, 72
1, 488174, Note_off_c, 0, 59, 0
1, 488174, Note_on_c, 0, 59, 51
1, 488181, Note_off_c, 0, 84, 72
1, 488187, Note_off_c, 0, 57, 62
1, 488191, Note_on_c, 0, 83, 70
1, 488192, Note_off_c, 0, 83, 127
1, 488197, Note_on_c, 0, 89, 22
1, 488198, Note_off_c, 0, 89, 127
1, 488212, Note_on_c, 0, 81, 48
1, 488213, Note_off_c, 0, 81, 127
1, 488228, Poly_aftertouch_c, 0, 89, 0
1, 488233, Note_on_c, 0, 79, 33
1, 488234, Note_off_c, 0, 79, 127
1, 488235, Note_on_c, 0, 60, 84
1, 488239, Note_off_c, 0, 59, 67
1, 488243, Note_on_c, 0, 88, 7
1, 488254, Note_off_c, 0, 88, 46
1, 488275, Note_on_c, 0, 84, 4
1, 488285, Note_on_c, 0, 74, 93
1, 488294, Note_on_c, 0, 71, 89
1, 488297, Note_off_c, 0, 60, 48
1, 488302, Note_on_c, 0, 65, 79
1, 488306, Note_on_c, 0, 62, 92
1, 488322, Note_on_c, 0, 67, 57
1, 488328, Note_off_c, 0, 84, 32
1, 488330, Note_off_c, 0, 65, 64
1, 488336, Note_on_c, 0, 70, 28
1, 488342, Note_off_c, 0, 67, 64
1, 488354, Note_off_c, 0, 71, 64
1, 488363, Note_off_c, 0, 62, 61
1, 488372, Note_off_c, 0, 70, 53
1, 488387, Note_off_c, 0, 74, 62
1, 488396, Note_on_c, 0, 60, 83
1, 488428, Note_off_c, 0, 60, 64
1, 488474, Note_on_c, 0, 76, 82
1, 488494, Note_on_c, 0, 53, 79
1, 488530, Note_off_c, 0, 53, 61
1, 488542, Note_on_c, 0, 77, 78
1, 488547, Note_off_c, 0, 76, 64
1, 488595, Note_on_c, 0, 79, 86
1, 488612, Control_c, 0, 64, 73
1, 488613, Note_on_c, 0, 43, 95
1, 488617, Note_on_c, 0, 81, 96
1, 488627, Note_on_c, 0, 74, 84
1, 488627, Control_c, 0, 64, 0
1, 488637, Note_off_c, 0, 79, 68
1, 488648, Note_off_c, 0, 74, 70
1, 488654, Note_off_c, 0, 77, 66
1, 488656, Note_off_c, 0, 43, 67
1, 488658, Note_off_c, 0, 81, 67
1, 488686, Control_c, 0, 64, 65
1, 488700, Control_c, 0, 64, 127
1, 488718, Note_on_c, 0, 74, 12
1, 488719, Note_off_c, 0, 74, 127
1, 488817, Note_on_c, 0, 69, 97
1, 488827, Note_on_c, 0, 62, 88
1, 488830, Note_on_c, 0, 65, 75
1, 488831, Note_on_c, 0, 55, 78
1, 488847, Note_off_c, 0, 69, 65
1, 488852, Note_off_c, 0, 62, 68
1, 488858, Note_off_c, 0, 65, 66
1, 488910, Note_off_c, 0, 55, 63
1, 488923, Note_on_c, 0, 57, 66
1, 488964, Note_off_c, 0, 57, 59
1, 488992, Note_on_c, 0, 55, 61
1, 489033, Note_off_c, 0, 55, 61
1, 489053, Note_on_c, 0, 57, 72
1, 489099, Note_off_c, 0, 57, 60
1, 489121, Note_on_c, 0, 55, 70
1, 489154, Note_on_c, 0, 81, 95
1, 489159, Note_on_c, 0, 77, 87
1, 489162, Note_on_c, 0, 74, 83
1, 489167, Note_off_c, 0, 55, 63
1, 489186, Note_on_c, 0, 57, 75
1, 489198, Note_off_c, 0, 74, 63
1, 489225, Note_off_c, 0, 81, 62
1, 489231, Note_off_c, 0, 57, 54
1, 489244, Note_off_c, 0, 77, 63
1, 489254, Note_on_c, 0, 55, 70
1, 489290, Note_off_c, 0, 55, 59
1, 489320, Note_on_c, 0, 57, 69
1, 489357, Note_off_c, 0, 57, 63
1, 489382, Note_on_c, 0, 55, 64
1, 489408, Note_off_c, 0, 55, 66
1, 489433, Note_on_c, 0, 57, 65
1, 489478, Note_off_c, 0, 57, 57
1, 489495, Note_on_c, 0, 55, 68
1, 489526, Note_off_c, 0, 55, 62
1, 489552, Note_on_c, 0, 69, 92
1, 489554, Note_on_c, 0, 65, 83
1, 489559, Note_on_c, 0, 62, 72
1, 489563, Note_on_c, 0, 57, 70
1, 489585, Note_off_c, 0, 62, 67
1, 489591, Note_off_c, 0, 65, 62
1, 489597, Note_off_c, 0, 57, 59
1, 489612, Note_on_c, 0, 55, 66
1, 489634, Note_off_c, 0, 69, 67
1, 489657, Note_off_c, 0, 55, 63
1, 489663, Note_on_c, 0, 57, 69
1, 489737, Note_on_c, 0, 53, 74
1, 489738, Note_off_c, 0, 57, 62
1, 489764, Note_off_c, 0, 53, 65
1, 489818, Poly_aftertouch_c, 0, 80, 127
1, 489830, Poly_aftertouch_c, 0, 57, 127
1, 489840, Note_on_c, 0, 45, 76
1, 489858, Poly_aftertouch_c, 0, 80, 0
1, 489874, Note_on_c, 0, 50, 72
1, 489876, Poly_aftertouch_c, 0, 57, 0
1, 489892, Note_on_c, 0, 81, 93
1, 489904, Note_on_c, 0, 74, 75
1, 489909, Note_on_c, 0, 77, 69
1, 489910, Note_off_c, 0, 45, 65
1, 489914, Note_off_c, 0, 50, 65
1, 489936, Note_on_c, 0, 57, 73
1, 489938, Note_off_c, 0, 74, 62
1, 489939, Note_off_c, 0, 77, 66
1, 489969, Note_off_c, 0, 57, 66
1, 489973, Note_off_c, 0, 81, 62
1, 490011, Note_on_c, 0, 60, 77
1, 490017, Note_on_c, 0, 59, 70
1, 490050, Note_off_c, 0, 59, 68
1, 490058, Note_off_c, 0, 60, 56
1, 490059, Note_on_c, 0, 62, 89
1, 490093, Poly_aftertouch_c, 0, 57, 0
1, 490122, Note_off_c, 0, 62, 65
1, 490123, Poly_aftertouch_c, 0, 57, 0
1, 490180, Note_on_c, 0, 60, 80
1, 490207, Note_on_c, 0, 65, 79
1, 490212, Note_on_c, 0, 69, 92
1, 490214, Note_on_c, 0, 62, 80
1, 490216, Note_off_c, 0, 60, 56
1, 490259, Note_on_c, 0, 55, 85
1, 490315, Note_off_c, 0, 55, 61
1, 490377, Control_c, 0, 64, 68
1, 490382, Note_on_c, 0, 43, 108
1, 490392, Control_c, 0, 64, 0
1, 490396, Note_off_c, 0, 62, 62
1, 490409, Note_off_c, 0, 65, 64
1, 490421, Control_c, 0, 64, 49
1, 490429, Note_off_c, 0, 69, 67
1, 490436, Control_c, 0, 64, 105
1, 490451, Control_c, 0, 64, 127
1, 490497, Note_off_c, 0, 43, 62
1, 490580, Note_on_c, 0, 81, 97
1, 490594, Note_on_c, 0, 74, 66
1, 490596, Note_on_c, 0, 57, 67
1, 490597, Note_on_c, 0, 83, 59
1, 490598, Note_off_c, 0, 83, 127
1, 490611, Note_off_c, 0, 74, 68
1, 490622, Note_off_c, 0, 81, 64
1, 490624, Note_on_c, 0, 77, 18
1, 490640, Note_off_c, 0, 57, 0
1, 490662, Note_off_c, 0, 77, 41
1, 490674, Note_on_c, 0, 59, 71
1, 490677, Poly_aftertouch_c, 0, 57, 127
1, 490714, Note_off_c, 0, 59, 67
1, 490729, Poly_aftertouch_c, 0, 57, 0
1, 490758, Note_on_c, 0, 55, 62
1, 490785, Note_off_c, 0, 55, 56
1, 490788, Note_on_c, 0, 57, 39
1, 490819, Note_off_c, 0, 57, 0
1, 490819, Note_on_c, 0, 57, 32
1, 490861, Note_off_c, 0, 57, 63
1, 490876, Note_on_c, 0, 55, 64
1, 490912, Note_off_c, 0, 55, 63
1, 490932, Note_on_c, 0, 65, 84
1, 490933, Note_on_c, 0, 69, 90
1, 490938, Note_on_c, 0, 57, 79
1, 490939, Note_on_c, 0, 62, 83
1, 490963, Note_off_c, 0, 62, 67
1, 490974, Note_off_c, 0, 65, 64
1, 490978, Note_off_c, 0, 57, 58
1, 490986, Note_on_c, 0, 55, 75
1, 490988, Note_off_c, 0, 69, 69
1, 491036, Note_off_c, 0, 55, 61
1, 491054, Note_on_c, 0, 57, 74
1, 491097, Note_off_c, 0, 57, 47
1, 491113, Note_on_c, 0, 55, 82
1, 491148, Note_off_c, 0, 55, 60
1, 491168, Note_on_c, 0, 57, 81
1, 491226, Poly_aftertouch_c, 0, 82, 0
1, 491229, Note_off_c, 0, 57, 61
1, 491239, Poly_aftertouch_c, 0, 74, 0
1, 491258, Note_on_c, 0, 45, 83
1, 491261, Note_on_c, 0, 50, 79
1, 491267, Note_on_c, 0, 81, 94
1, 491275, Note_on_c, 0, 77, 80
1, 491281, Note_on_c, 0, 74, 71
1, 491314, Note_off_c, 0, 74, 66
1, 491314, Note_off_c, 0, 77, 58
1, 491320, Note_off_c, 0, 50, 65
1, 491329, Note_off_c, 0, 45, 64
1, 491330, Note_on_c, 0, 55, 84
1, 491340, Note_off_c, 0, 81, 60
1, 491373, Note_off_c, 0, 55, 63
1, 491408, Note_on_c, 0, 57, 80
1, 491412, Note_on_c, 0, 59, 81
1, 491415, Note_on_c, 0, 60, 79
1, 491437, Note_off_c, 0, 57, 65
1, 491471, Note_off_c, 0, 59, 65
1, 491487, Note_off_c, 0, 60, 62
1, 491488, Note_on_c, 0, 62, 93
1, 491550, Note_off_c, 0, 62, 57
1, 491562, Poly_aftertouch_c, 0, 57, 127
1, 491598, Note_on_c, 0, 60, 85
1, 491606, Note_on_c, 0, 62, 81
1, 491607, Note_on_c, 0, 65, 84
1, 491607, Note_on_c, 0, 69, 79
1, 491607, Poly_aftertouch_c, 0, 57, 0
1, 491652, Note_off_c, 0, 60, 60
1, 491693, Note_on_c, 0, 55, 85
1, 491747, Note_on_c, 0, 50, 78
1, 491749, Note_off_c, 0, 55, 64
1, 491781, Note_on_c, 0, 45, 51
1, 491782, Note_off_c, 0, 50, 67
1, 491818, Note_off_c, 0, 62, 59
1, 491826, Note_on_c, 0, 43, 106
1, 491830, Note_off_c, 0, 45, 40
1, 491830, Note_off_c, 0, 65, 63
1, 491848, Note_on_c, 0, 70, 29
1, 491851, Note_off_c, 0, 69, 65
1, 491874, Control_c, 0, 64, 65
1, 491881, Note_off_c, 0, 70, 53
1, 491889, Control_c, 0, 64, 0
1, 491948, Control_c, 0, 64, 68
1, 491963, Control_c, 0, 64, 127
1, 492001, Note_on_c, 0, 45, 73
1, 492011, Note_on_c, 0, 81, 80
1, 492018, Note_on_c, 0, 77, 76
1, 492023, Note_on_c, 0, 74, 68
1, 492033, Note_off_c, 0, 43, 62
1, 492039, Note_on_c, 0, 50, 72
1, 492059, Note_off_c, 0, 45, 64
1, 492078, Note_off_c, 0, 50, 66
1, 492082, Note_off_c, 0, 81, 61
1, 492083, Note_on_c, 0, 53, 77
1, 492106, Note_off_c, 0, 77, 60
1, 492111, Note_off_c, 0, 53, 65
1, 492113, Note_on_c, 0, 76, 63
1, 492113, Note_on_c, 0, 79, 78
1, 492140, Note_off_c, 0, 76, 68
1, 492176, Note_on_c, 0, 53, 57
1, 492189, Note_off_c, 0, 74, 35
1, 492193, Note_on_c, 0, 59, 81
1, 492199, Note_on_c, 0, 77, 82
1, 492200, Note_on_c, 0, 81, 77
1, 492222, Note_off_c, 0, 79, 61
1, 492231, Note_off_c, 0, 53, 61
1, 492253, Note_on_c, 0, 62, 48
1, 492261, Poly_aftertouch_c, 0, 52, 0
1, 492265, Note_on_c, 0, 76, 71
1, 492272, Note_on_c, 0, 60, 18
1, 492275, Note_off_c, 0, 59, 66
1, 492283, Note_off_c, 0, 62, 53
1, 492285, Note_on_c, 0, 79, 76
1, 492286, Note_off_c, 0, 77, 66
1, 492308, Note_off_c, 0, 81, 64
1, 492309, Note_off_c, 0, 76, 64
1, 492318, Note_off_c, 0, 60, 49
1, 492328, Note_off_c, 0, 79, 67
1, 492336, Note_on_c, 0, 67, 104
1, 492376, Note_off_c, 0, 67, 69
1, 492383, Note_on_c, 0, 77, 81
1, 492383, Note_on_c, 0, 81, 84
1, 492424, Note_off_c, 0, 77, 57
1, 492469, Note_off_c, 0, 81, 65
1, 492471, Note_on_c, 0, 79, 69
1, 492474, Note_on_c, 0, 83, 80
1, 492527, Note_off_c, 0, 79, 55
1, 492563, Note_off_c, 0, 83, 65
1, 492568, Note_on_c, 0, 81, 76
1, 492578, Note_on_c, 0, 77, 69
1, 492631, Note_on_c, 0, 64, 99
1, 492639, Note_on_c, 0, 52, 96
1, 492644, Note_off_c, 0, 77, 38
1, 492651, Note_on_c, 0, 79, 71
1, 492657, Note_off_c, 0, 81, 63
1, 492658, Note_on_c, 0, 83, 83
1, 492661, Note_off_c, 0, 52, 70
1, 492663, Note_off_c, 0, 64, 69
1, 492700, Note_off_c, 0, 79, 58
1, 492742, Note_off_c, 0, 83, 63
1, 492743, Note_on_c, 0, 81, 79
1, 492754, Note_on_c, 0, 77, 73
1, 492790, Note_off_c, 0, 77, 58
1, 492810, Note_on_c, 0, 79, 48
1, 492819, Note_off_c, 0, 81, 64
1, 492824, Note_on_c, 0, 83, 79
1, 492846, Note_off_c, 0, 79, 64
1, 492874, Control_c, 0, 64, 75
1, 492881, Note_off_c, 0, 83, 63
1, 492889, Control_c, 0, 64, 40
1, 492903, Note_on_c, 0, 62, 103
1, 492904, Control_c, 0, 64, 0
1, 492905, Note_on_c, 0, 77, 79
1, 492908, Note_on_c, 0, 81, 85
1, 492910, Note_on_c, 0, 50, 95
1, 492919, Control_c, 0, 64, 36
1, 492933, Control_c, 0, 64, 76
1, 492937, Note_off_c, 0, 77, 66
1, 492938, Note_off_c, 0, 62, 68
1, 492942, Note_off_c, 0, 50, 59
1, 492949, Control_c, 0, 64, 127
1, 492988, Note_on_c, 0, 83, 85
1, 492988, Note_off_c, 0, 81, 65
1, 493025, Note_on_c, 0, 84, 79
1, 493040, Note_off_c, 0, 83, 59
1, 493079, Note_on_c, 0, 83, 60
1, 493097, Note_on_c, 0, 81, 76
1, 493100, Note_off_c, 0, 84, 64
1, 493138, Note_off_c, 0, 83, 66
1, 493147, Note_off_c, 0, 81, 65
1, 493148, Note_on_c, 0, 79, 74
1, 493177, Note_on_c, 0, 47, 94
1, 493188, Note_off_c, 0, 79, 62
1, 493190, Note_on_c, 0, 35, 85
1, 493198, Note_on_c, 0, 77, 72
1, 493222, Note_off_c, 0, 35, 66
1, 493222, Note_off_c, 0, 77, 70
1, 493226, Note_off_c, 0, 47, 68
1, 493251, Note_on_c, 0, 76, 79
1, 493287, Note_on_c, 0, 74, 71
1, 493324, Note_off_c, 0, 76, 63
1, 493341, Note_on_c, 0, 72, 74
1, 493342, Note_off_c, 0, 74, 65
1, 493386, Note_off_c, 0, 72, 64
1, 493387, Control_c, 0, 64, 73
1, 493394, Note_on_c, 0, 71, 73
1, 493402, Control_c, 0, 64, 15
1, 493417, Control_c, 0, 64, 0
1, 493424, Note_off_c, 0, 71, 64
1, 493449, Note_on_c, 0, 45, 98
1, 493454, Note_on_c, 0, 69, 77
1, 493457, Note_on_c, 0, 33, 94
1, 493483, Note_off_c, 0, 33, 67
1, 493490, Control_c, 0, 64, 67
1, 493493, Note_off_c, 0, 45, 67
1, 493505, Control_c, 0, 64, 103
1, 493510, Note_on_c, 0, 67, 72
1, 493512, Note_off_c, 0, 69, 65
1, 493520, Control_c, 0, 64, 127
1, 493547, Note_off_c, 0, 67, 63
1, 493569, Note_on_c, 0, 65, 74
1, 493616, Note_off_c, 0, 65, 63
1, 493620, Note_on_c, 0, 67, 73
1, 493666, Note_off_c, 0, 67, 59
1, 493678, Note_on_c, 0, 69, 77
1, 493716, Note_off_c, 0, 69, 66
1, 493727, Note_on_c, 0, 62, 92
1, 493737, Note_on_c, 0, 50, 85
1, 493749, Note_off_c, 0, 62, 72
1, 493749, Note_on_c, 0, 71, 75
1, 493779, Note_off_c, 0, 50, 65
1, 493800, Note_off_c, 0, 71, 65
1, 493804, Note_on_c, 0, 72, 75
1, 493824, Control_c, 0, 64, 95
1, 493836, Note_off_c, 0, 72, 64
1, 493839, Control_c, 0, 64, 76
1, 493839, Note_on_c, 0, 74, 82
1, 493854, Control_c, 0, 64, 66
1, 493869, Control_c, 0, 64, 59
1, 493883, Control_c, 0, 64, 57
1, 493884, Note_off_c, 0, 74, 62
1, 493898, Control_c, 0, 64, 55
1, 493912, Note_on_c, 0, 76, 69
1, 493913, Control_c, 0, 64, 46
1, 493916, Note_on_c, 0, 74, 61
1, 493928, Control_c, 0, 64, 20
1, 493943, Control_c, 0, 64, 0
1, 493949, Note_off_c, 0, 74, 67
1, 493951, Note_off_c, 0, 76, 64
1, 493961, Note_on_c, 0, 77, 68
1, 493972, Note_on_c, 0, 79, 70
1, 494000, Note_on_c, 0, 43, 95
1, 494005, Note_off_c, 0, 77, 60
1, 494009, Note_on_c, 0, 31, 86
1, 494012, Note_off_c, 0, 79, 66
1, 494016, Control_c, 0, 64, 42
1, 494022, Note_on_c, 0, 81, 83
1, 494031, Control_c, 0, 64, 74
1, 494039, Note_off_c, 0, 31, 66
1, 494046, Control_c, 0, 64, 127
1, 494050, Poly_aftertouch_c, 0, 77, 127
1, 494110, Poly_aftertouch_c, 0, 77, 0
1, 494113, Note_on_c, 0, 79, 79
1, 494114, Note_off_c, 0, 81, 64
1, 494116, Note_on_c, 0, 76, 76
1, 494152, Note_on_c, 0, 45, 72
1, 494152, Note_off_c, 0, 43, 57
1, 494185, Note_off_c, 0, 45, 65
1, 494193, Note_off_c, 0, 76, 61
1, 494200, Note_on_c, 0, 47, 75
1, 494207, Note_on_c, 0, 77, 82
1, 494208, Note_off_c, 0, 79, 63
1, 494216, Note_on_c, 0, 81, 78
1, 494226, Note_off_c, 0, 47, 67
1, 494227, Note_on_c, 0, 48, 82
1, 494250, Note_off_c, 0, 48, 67
1, 494254, Note_on_c, 0, 50, 84
1, 494276, Note_off_c, 0, 50, 68
1, 494282, Note_on_c, 0, 52, 82
1, 494283, Note_off_c, 0, 77, 65
1, 494289, Note_off_c, 0, 81, 63
1, 494292, Note_on_c, 0, 76, 70
1, 494293, Note_on_c, 0, 79, 78
1, 494303, Note_off_c, 0, 52, 67
1, 494308, Note_on_c, 0, 53, 79
1, 494331, Note_off_c, 0, 53, 66
1, 494334, Note_on_c, 0, 55, 78
1, 494358, Note_off_c, 0, 55, 68
1, 494359, Note_off_c, 0, 76, 62
1, 494360, Note_on_c, 0, 57, 83
1, 494368, Note_off_c, 0, 79, 65
1, 494376, Note_off_c, 0, 57, 69
1, 494378, Note_on_c, 0, 77, 65
1, 494381, Note_on_c, 0, 81, 72
1, 494382, Note_on_c, 0, 59, 79
1, 494398, Note_off_c, 0, 59, 68
1, 494404, Note_on_c, 0, 60, 77
1, 494421, Note_off_c, 0, 60, 65
1, 494424, Note_off_c, 0, 77, 54
1, 494431, Poly_aftertouch_c, 0, 76, 127
1, 494434, Note_on_c, 0, 62, 52
1, 494435, Note_off_c, 0, 62, 127
1, 494458, Note_on_c, 0, 79, 80
1, 494464, Note_off_c, 0, 81, 60
1, 494481, Poly_aftertouch_c, 0, 76, 0
1, 494495, Note_off_c, 0, 79, 63
1, 494498, Control_c, 0, 64, 109
1, 494507, Note_on_c, 0, 67, 111
1, 494512, Control_c, 0, 64, 81
1, 494527, Control_c, 0, 64, 79
1, 494537, Poly_aftertouch_c, 0, 57, 0
1, 494537, Note_off_c, 0, 67, 68
1, 494542, Control_c, 0, 64, 95
1, 494544, Note_on_c, 0, 81, 83
1, 494545, Note_on_c, 0, 77, 77
1, 494549, Poly_aftertouch_c, 0, 59, 0
1, 494557, Control_c, 0, 64, 127
1, 494576, Note_off_c, 0, 77, 58
1, 494635, Note_on_c, 0, 79, 79
1, 494635, Note_off_c, 0, 81, 64
1, 494636, Note_on_c, 0, 83, 81
1, 494694, Note_off_c, 0, 79, 60
1, 494724, Note_on_c, 0, 77, 78
1, 494730, Note_on_c, 0, 81, 86
1, 494734, Note_off_c, 0, 83, 66
1, 494773, Note_off_c, 0, 77, 65
1, 494778, Note_on_c, 0, 64, 96
1, 494793, Note_on_c, 0, 52, 89
1, 494804, Note_on_c, 0, 79, 78
1, 494808, Note_off_c, 0, 81, 66
1, 494814, Note_on_c, 0, 83, 84
1, 494817, Note_off_c, 0, 52, 69
1, 494821, Note_off_c, 0, 64, 67
1, 494885, Note_off_c, 0, 79, 41
1, 494894, Note_on_c, 0, 77, 74
1, 494894, Note_on_c, 0, 81, 86
1, 494903, Note_off_c, 0, 83, 63
1, 494940, Note_off_c, 0, 77, 62
1, 494968, Note_on_c, 0, 79, 83
1, 494971, Note_off_c, 0, 81, 66
1, 494978, Note_on_c, 0, 83, 81
1, 495016, Control_c, 0, 64, 68
1, 495031, Control_c, 0, 64, 30
1, 495043, Note_off_c, 0, 79, 45
1, 495046, Note_on_c, 0, 62, 104
1, 495046, Control_c, 0, 64, 0
1, 495052, Note_on_c, 0, 77, 76
1, 495058, Note_on_c, 0, 81, 82
1, 495058, Note_on_c, 0, 50, 90
1, 495061, Control_c, 0, 64, 43
1, 495064, Note_off_c, 0, 83, 66
1, 495076, Control_c, 0, 64, 76
1, 495088, Note_off_c, 0, 62, 68
1, 495091, Control_c, 0, 64, 127
1, 495103, Note_off_c, 0, 50, 57
1, 495103, Note_off_c, 0, 77, 65
1, 495132, Note_on_c, 0, 79, 82
1, 495137, Note_off_c, 0, 81, 66
1, 495141, Note_on_c, 0, 83, 84
1, 495195, Note_off_c, 0, 79, 61
1, 495232, Note_on_c, 0, 77, 77
1, 495234, Note_on_c, 0, 81, 81
1, 495242, Note_off_c, 0, 83, 64
1, 495282, Note_off_c, 0, 77, 62
1, 495303, Note_on_c, 0, 79, 82
1, 495304, Note_on_c, 0, 47, 99
1, 495314, Note_off_c, 0, 81, 64
1, 495317, Note_on_c, 0, 35, 75
1, 495322, Note_on_c, 0, 83, 82
1, 495340, Note_off_c, 0, 35, 63
1, 495344, Note_off_c, 0, 47, 69
1, 495363, Note_off_c, 0, 79, 61
1, 495401, Note_off_c, 0, 83, 66
1, 495401, Note_on_c, 0, 77, 71
1, 495407, Note_on_c, 0, 81, 76
1, 495446, Note_on_c, 0, 59, 98
1, 495446, Note_on_c, 0, 79, 74
1, 495450, Note_off_c, 0, 77, 59
1, 495471, Note_off_c, 0, 59, 67
1, 495475, Note_on_c, 0, 83, 84
1, 495477, Note_off_c, 0, 81, 62
1, 495498, Note_off_c, 0, 79, 64
1, 495518, Note_off_c, 0, 83, 62
1, 495527, Control_c, 0, 64, 78
1, 495542, Control_c, 0, 64, 39
1, 495557, Control_c, 0, 64, 0
1, 495562, Note_on_c, 0, 77, 72
1, 495572, Control_c, 0, 64, 25
1, 495577, Note_on_c, 0, 48, 100
1, 495583, Note_on_c, 0, 81, 73
1, 495587, Note_on_c, 0, 36, 89
1, 495587, Control_c, 0, 64, 63
1, 495601, Control_c, 0, 64, 108
1, 495610, Note_off_c, 0, 36, 66
1, 495616, Note_off_c, 0, 48, 66
1, 495616, Control_c, 0, 64, 127
1, 495619, Note_off_c, 0, 77, 64
1, 495657, Note_on_c, 0, 76, 79
1, 495661, Note_on_c, 0, 79, 71
1, 495666, Note_off_c, 0, 81, 63
1, 495705, Note_on_c, 0, 60, 97
1, 495728, Note_off_c, 0, 60, 68
1, 495741, Poly_aftertouch_c, 0, 36, 127
1, 495747, Note_off_c, 0, 76, 62
1, 495756, Note_on_c, 0, 77, 77
1, 495758, Note_off_c, 0, 79, 64
1, 495762, Note_on_c, 0, 81, 77
1, 495766, Poly_aftertouch_c, 0, 36, 0
1, 495803, Note_off_c, 0, 77, 63
1, 495834, Note_off_c, 0, 81, 61
1, 495835, Note_on_c, 0, 45, 97
1, 495843, Note_on_c, 0, 79, 77
1, 495845, Note_on_c, 0, 76, 78
1, 495845, Note_on_c, 0, 33, 87
1, 495866, Note_off_c, 0, 33, 67
1, 495874, Note_off_c, 0, 45, 67
1, 495899, Note_off_c, 0, 76, 59
1, 495914, Note_off_c, 0, 79, 63
1, 495926, Note_on_c, 0, 77, 72
1, 495930, Note_on_c, 0, 81, 73
1, 495970, Note_off_c, 0, 77, 59
1, 495976, Note_on_c, 0, 57, 94
1, 496004, Note_off_c, 0, 81, 59
1, 496006, Note_on_c, 0, 79, 84
1, 496007, Note_off_c, 0, 57, 66
1, 496009, Note_on_c, 0, 76, 55
1, 496029, Note_off_c, 0, 76, 63
1, 496051, Note_off_c, 0, 79, 65
1, 496117, Note_on_c, 0, 81, 88
1, 496128, Note_on_c, 0, 77, 63
1, 496128, Control_c, 0, 64, 99
1, 496131, Note_on_c, 0, 43, 96
1, 496141, Note_on_c, 0, 31, 88
1, 496143, Control_c, 0, 64, 63
1, 496147, Note_off_c, 0, 77, 66
1, 496149, Note_on_c, 0, 45, 69
1, 496158, Control_c, 0, 64, 0
1, 496164, Note_off_c, 0, 45, 44
1, 496164, Note_on_c, 0, 33, 47
1, 496165, Note_off_c, 0, 33, 127
1, 496191, Note_on_c, 0, 83, 71
1, 496199, Note_off_c, 0, 81, 64
1, 496233, Note_off_c, 0, 83, 65
1, 496238, Note_on_c, 0, 84, 79
1, 496262, Control_c, 0, 64, 55
1, 496276, Control_c, 0, 64, 79
1, 496286, Note_on_c, 0, 83, 75
1, 496291, Control_c, 0, 64, 97
1, 496306, Control_c, 0, 64, 127
1, 496313, Note_off_c, 0, 84, 65
1, 496317, Note_on_c, 0, 81, 77
1, 496338, Note_off_c, 0, 31, 63
1, 496357, Note_off_c, 0, 83, 65
1, 496361, Note_off_c, 0, 43, 63
1, 496367, Note_on_c, 0, 79, 85
1, 496371, Note_off_c, 0, 81, 66
1, 496413, Note_off_c, 0, 79, 65
1, 496414, Note_on_c, 0, 77, 76
1, 496444, Note_off_c, 0, 77, 64
1, 496470, Note_on_c, 0, 76, 84
1, 496516, Note_on_c, 0, 74, 75
1, 496556, Note_off_c, 0, 76, 62
1, 496563, Note_on_c, 0, 72, 82
1, 496572, Note_off_c, 0, 74, 65
1, 496613, Note_off_c, 0, 72, 64
1, 496617, Note_on_c, 0, 71, 77
1, 496647, Control_c, 0, 64, 99
1, 496662, Control_c, 0, 64, 68
1, 496663, Note_off_c, 0, 71, 61
1, 496677, Control_c, 0, 64, 58
1, 496684, Note_on_c, 0, 69, 82
1, 496689, Note_on_c, 0, 55, 98
1, 496700, Control_c, 0, 64, 66
1, 496710, Note_on_c, 0, 43, 86
1, 496715, Control_c, 0, 64, 90
1, 496730, Control_c, 0, 64, 127
1, 496738, Note_off_c, 0, 43, 68
1, 496739, Note_off_c, 0, 55, 67
1, 496746, Note_on_c, 0, 67, 77
1, 496755, Note_off_c, 0, 69, 65
1, 496793, Note_off_c, 0, 67, 63
1, 496820, Note_on_c, 0, 65, 78
1, 496872, Note_off_c, 0, 65, 63
1, 496876, Note_on_c, 0, 67, 74
1, 496942, Note_off_c, 0, 67, 63
1, 496943, Note_on_c, 0, 69, 77
1, 496983, Note_off_c, 0, 69, 65
1, 497005, Note_on_c, 0, 43, 101
1, 497008, Note_on_c, 0, 71, 79
1, 497012, Note_on_c, 0, 31, 93
1, 497040, Note_off_c, 0, 31, 68
1, 497046, Note_off_c, 0, 43, 66
1, 497070, Note_off_c, 0, 71, 62
1, 497076, Note_on_c, 0, 72, 78
1, 497133, Note_on_c, 0, 74, 70
1, 497133, Note_off_c, 0, 72, 63
1, 497157, Note_off_c, 0, 74, 68
1, 497186, Note_on_c, 0, 76, 80
1, 497198, Note_on_c, 0, 60, 36
1, 497231, Note_off_c, 0, 60, 48
1, 497241, Note_off_c, 0, 76, 64
1, 497243, Note_on_c, 0, 77, 78
1, 497263, Control_c, 0, 64, 86
1, 497266, Note_on_c, 0, 79, 68
1, 497279, Control_c, 0, 64, 37
1, 497280, Note_off_c, 0, 77, 56
1, 497294, Control_c, 0, 64, 0
1, 497294, Note_off_c, 0, 79, 65
1, 497312, Note_on_c, 0, 62, 103
1, 497320, Note_on_c, 0, 50, 96
1, 497320, Note_on_c, 0, 81, 80
1, 497335, Note_on_c, 0, 77, 72
1, 497338, Control_c, 0, 64, 17
1, 497353, Control_c, 0, 64, 63
1, 497355, Note_off_c, 0, 50, 67
1, 497357, Note_off_c, 0, 62, 68
1, 497365, Note_off_c, 0, 77, 63
1, 497368, Control_c, 0, 64, 91
1, 497383, Control_c, 0, 64, 127
1, 497397, Note_off_c, 0, 81, 55
1, 497411, Note_on_c, 0, 76, 81
1, 497413, Note_on_c, 0, 79, 68
1, 497494, Note_off_c, 0, 76, 62
1, 497511, Note_on_c, 0, 81, 80
1, 497517, Note_off_c, 0, 79, 66
1, 497519, Note_on_c, 0, 77, 77
1, 497545, Note_off_c, 0, 77, 68
1, 497576, Note_off_c, 0, 81, 55
1, 497593, Note_on_c, 0, 47, 99
1, 497599, Note_on_c, 0, 76, 86
1, 497604, Note_on_c, 0, 35, 94
1, 497608, Note_on_c, 0, 79, 81
1, 497639, Note_off_c, 0, 35, 62
1, 497642, Note_off_c, 0, 47, 66
1, 497647, Note_off_c, 0, 76, 62
1, 497691, Note_on_c, 0, 77, 72
1, 497695, Note_off_c, 0, 79, 60
1, 497705, Note_on_c, 0, 81, 67
1, 497745, Note_off_c, 0, 77, 61
1, 497759, Note_off_c, 0, 81, 49
1, 497763, Note_on_c, 0, 76, 71
1, 497806, Note_on_c, 0, 79, 63
1, 497818, Control_c, 0, 64, 63
1, 497832, Note_off_c, 0, 76, 52
1, 497833, Control_c, 0, 64, 0
1, 497847, Note_off_c, 0, 79, 59
1, 497858, Note_on_c, 0, 45, 103
1, 497862, Note_on_c, 0, 77, 70
1, 497866, Note_on_c, 0, 33, 96
1, 497883, Note_on_c, 0, 74, 74
1, 497887, Note_on_c, 0, 81, 68
1, 497892, Note_off_c, 0, 33, 67
1, 497893, Control_c, 0, 64, 65
1, 497899, Note_off_c, 0, 45, 67
1, 497908, Control_c, 0, 64, 127
1, 497912, Note_off_c, 0, 74, 67
1, 497940, Note_off_c, 0, 77, 65
1, 497943, Note_on_c, 0, 79, 70
1, 497954, Note_off_c, 0, 81, 63
1, 497962, Note_off_c, 0, 79, 67
1, 497994, Note_on_c, 0, 77, 81
1, 498052, Note_on_c, 0, 79, 68
1, 498062, Note_off_c, 0, 77, 64
1, 498110, Note_on_c, 0, 81, 73
1, 498120, Note_off_c, 0, 79, 64
1, 498139, Note_off_c, 0, 81, 68
1, 498145, Note_on_c, 0, 83, 61
1, 498147, Note_on_c, 0, 67, 103
1, 498156, Note_on_c, 0, 55, 94
1, 498163, Note_off_c, 0, 83, 64
1, 498179, Note_off_c, 0, 67, 68
1, 498190, Note_on_c, 0, 84, 93
1, 498211, Note_off_c, 0, 55, 65
1, 498242, Note_on_c, 0, 86, 85
1, 498248, Note_off_c, 0, 84, 67
1, 498292, Note_on_c, 0, 88, 68
1, 498292, Note_off_c, 0, 86, 65
1, 498310, Note_off_c, 0, 88, 69
1, 498335, Note_on_c, 0, 89, 86
1, 498382, Note_off_c, 0, 89, 65
1, 498388, Note_on_c, 0, 91, 79
1, 498405, Control_c, 0, 64, 70
1, 498412, Note_on_c, 0, 93, 79
1, 498420, Control_c, 0, 64, 0
1, 498438, Note_off_c, 0, 91, 63
1, 498444, Note_on_c, 0, 43, 102
1, 498451, Note_on_c, 0, 31, 93
1, 498453, Note_on_c, 0, 95, 70
1, 498453, Note_off_c, 0, 93, 66
1, 498459, Note_on_c, 0, 96, 86
1, 498477, Note_off_c, 0, 95, 68
1, 498478, Control_c, 0, 64, 61
1, 498480, Note_off_c, 0, 31, 68
1, 498493, Control_c, 0, 64, 127
1, 498529, Note_on_c, 0, 93, 87
1, 498536, Poly_aftertouch_c, 0, 95, 127
1, 498555, Note_on_c, 0, 91, 74
1, 498555, Note_off_c, 0, 96, 66
1, 498565, Poly_aftertouch_c, 0, 95, 0
1, 498576, Note_on_c, 0, 45, 78
1, 498580, Note_off_c, 0, 93, 65
1, 498585, Note_off_c, 0, 43, 48
1, 498607, Note_off_c, 0, 45, 68
1, 498614, Note_off_c, 0, 91, 64
1, 498618, Note_on_c, 0, 89, 84
1, 498632, Note_on_c, 0, 47, 70
1, 498652, Note_off_c, 0, 47, 63
1, 498655, Note_on_c, 0, 48, 87
1, 498658, Note_off_c, 0, 89, 63
1, 498672, Note_off_c, 0, 48, 66
1, 498675, Note_on_c, 0, 50, 86
1, 498680, Note_on_c, 0, 88, 82
1, 498700, Note_off_c, 0, 50, 68
1, 498701, Note_on_c, 0, 52, 84
1, 498703, Note_on_c, 0, 86, 81
1, 498725, Note_off_c, 0, 52, 65
1, 498726, Note_on_c, 0, 53, 77
1, 498744, Note_off_c, 0, 53, 66
1, 498750, Note_on_c, 0, 55, 73
1, 498755, Note_on_c, 0, 84, 79
1, 498764, Note_off_c, 0, 88, 65
1, 498767, Note_off_c, 0, 55, 68
1, 498771, Note_off_c, 0, 86, 66
1, 498772, Note_on_c, 0, 57, 75
1, 498790, Note_off_c, 0, 57, 68
1, 498793, Note_on_c, 0, 59, 70
1, 498805, Note_on_c, 0, 83, 81
1, 498806, Note_off_c, 0, 84, 66
1, 498809, Note_off_c, 0, 59, 67
1, 498811, Note_on_c, 0, 60, 72
1, 498828, Note_off_c, 0, 60, 66
1, 498832, Note_on_c, 0, 62, 81
1, 498847, Note_off_c, 0, 62, 70
1, 498849, Note_off_c, 0, 83, 66
1, 498856, Note_on_c, 0, 64, 83
1, 498879, Note_on_c, 0, 81, 82
1, 498880, Note_off_c, 0, 64, 69
1, 498928, Note_on_c, 0, 65, 11
1, 498929, Note_off_c, 0, 81, 64
1, 498939, Note_on_c, 0, 79, 83
1, 498976, Control_c, 0, 64, 70
1, 498980, Note_off_c, 0, 65, 51
1, 498990, Control_c, 0, 64, 0
1, 498991, Note_off_c, 0, 79, 64
1, 498995, Note_on_c, 0, 81, 77
1, 499001, Note_on_c, 0, 67, 115
1, 499020, Control_c, 0, 64, 48
1, 499031, Note_off_c, 0, 67, 65
1, 499035, Control_c, 0, 64, 87
1, 499050, Note_on_c, 0, 79, 86
1, 499050, Control_c, 0, 64, 127
1, 499051, Note_off_c, 0, 81, 64
1, 499104, Note_off_c, 0, 79, 65
1, 499110, Note_on_c, 0, 81, 74
1, 499154, Note_on_c, 0, 83, 87
1, 499160, Note_off_c, 0, 81, 65
1, 499222, Note_on_c, 0, 81, 81
1, 499226, Note_off_c, 0, 83, 68
1, 499268, Note_off_c, 0, 81, 63
1, 499274, Note_on_c, 0, 52, 97
1, 499276, Note_on_c, 0, 79, 84
1, 499286, Note_on_c, 0, 40, 79
1, 499302, Note_off_c, 0, 52, 66
1, 499313, Note_off_c, 0, 40, 65
1, 499327, Note_off_c, 0, 79, 60
1, 499339, Note_on_c, 0, 81, 82
1, 499400, Note_off_c, 0, 81, 64
1, 499401, Note_on_c, 0, 83, 80
1, 499414, Note_on_c, 0, 64, 94
1, 499422, Note_off_c, 0, 83, 69
1, 499434, Note_off_c, 0, 64, 70
1, 499452, Note_on_c, 0, 84, 83
1, 499494, Control_c, 0, 64, 117
1, 499509, Control_c, 0, 64, 62
1, 499510, Note_off_c, 0, 84, 65
1, 499523, Control_c, 0, 64, 0
1, 499526, Note_on_c, 0, 86, 64
1, 499530, Note_on_c, 0, 88, 66
1, 499545, Note_off_c, 0, 86, 68
1, 499551, Note_on_c, 0, 89, 69
1, 499553, Control_c, 0, 64, 40
1, 499561, Note_on_c, 0, 50, 100
1, 499564, Note_off_c, 0, 88, 63
1, 499568, Note_off_c, 0, 89, 66
1, 499568, Control_c, 0, 64, 75
1, 499569, Note_on_c, 0, 38, 84
1, 499583, Control_c, 0, 64, 127
1, 499587, Note_off_c, 0, 50, 68
1, 499589, Note_on_c, 0, 89, 76
1, 499598, Note_off_c, 0, 38, 64
1, 499616, Note_on_c, 0, 52, 11
1, 499636, Note_off_c, 0, 89, 66
1, 499641, Note_on_c, 0, 91, 82
1, 499655, Note_off_c, 0, 52, 40
1, 499669, Note_on_c, 0, 93, 53
1, 499697, Note_on_c, 0, 95, 71
1, 499704, Note_on_c, 0, 62, 104
1, 499706, Note_off_c, 0, 93, 39
1, 499714, Note_off_c, 0, 91, 44
1, 499722, Note_on_c, 0, 96, 90
1, 499726, Note_off_c, 0, 62, 67
1, 499735, Note_off_c, 0, 95, 61
1, 499781, Note_on_c, 0, 95, 65
1, 499793, Note_on_c, 0, 93, 81
1, 499824, Note_on_c, 0, 91, 77
1, 499824, Note_off_c, 0, 96, 62
1, 499831, Note_off_c, 0, 95, 66
1, 499836, Note_off_c, 0, 93, 63
1, 499838, Note_on_c, 0, 47, 98
1, 499847, Note_on_c, 0, 35, 92
1, 499857, Note_on_c, 0, 89, 85
1, 499866, Note_off_c, 0, 91, 63
1, 499874, Note_off_c, 0, 35, 65
1, 499874, Note_off_c, 0, 47, 68
1, 499901, Note_off_c, 0, 89, 66
1, 499932, Note_on_c, 0, 88, 77
1, 499948, Note_on_c, 0, 86, 82
1, 499980, Note_on_c, 0, 59, 94
1, 499996, Note_on_c, 0, 84, 81
1, 500000, Note_off_c, 0, 59, 69
1, 500008, Note_off_c, 0, 88, 65
1, 500012, Note_on_c, 0, 57, 51
1, 500016, Note_off_c, 0, 86, 65
1, 500036, Note_off_c, 0, 57, 61
1, 500039, Note_on_c, 0, 83, 77
1, 500042, Note_off_c, 0, 84, 66
1, 500065, Control_c, 0, 64, 76
1, 500080, Control_c, 0, 64, 25
1, 500083, Note_off_c, 0, 83, 66
1, 500095, Control_c, 0, 64, 0
1, 500115, Note_on_c, 0, 45, 96
1, 500118, Note_on_c, 0, 81, 80
1, 500123, Note_on_c, 0, 33, 90
1, 500124, Control_c, 0, 64, 58
1, 500139, Control_c, 0, 64, 100
1, 500151, Note_off_c, 0, 33, 66
1, 500151, Note_off_c, 0, 45, 68
1, 500154, Control_c, 0, 64, 127
1, 500167, Note_off_c, 0, 81, 64
1, 500174, Note_on_c, 0, 79, 83
1, 500228, Note_off_c, 0, 79, 64
1, 500230, Note_on_c, 0, 81, 80
1, 500275, Note_on_c, 0, 57, 102
1, 500296, Note_off_c, 0, 81, 64
1, 500298, Note_on_c, 0, 83, 80
1, 500311, Note_off_c, 0, 57, 64
1, 500355, Note_on_c, 0, 81, 79
1, 500363, Note_off_c, 0, 83, 67
1, 500408, Note_off_c, 0, 81, 64
1, 500422, Note_on_c, 0, 55, 102
1, 500425, Note_on_c, 0, 79, 87
1, 500429, Note_on_c, 0, 43, 93
1, 500462, Note_off_c, 0, 43, 69
1, 500462, Note_off_c, 0, 55, 68
1, 500481, Note_off_c, 0, 79, 63
1, 500502, Note_on_c, 0, 81, 82
1, 500550, Poly_aftertouch_c, 0, 44, 0
1, 500568, Note_off_c, 0, 81, 64
1, 500570, Note_on_c, 0, 83, 76
1, 500594, Note_off_c, 0, 83, 69
1, 500608, Control_c, 0, 64, 110
1, 500615, Note_on_c, 0, 67, 116
1, 500623, Control_c, 0, 64, 75
1, 500625, Note_on_c, 0, 84, 91
1, 500646, Note_off_c, 0, 67, 69
1, 500652, Control_c, 0, 64, 102
1, 500667, Control_c, 0, 64, 127
1, 500676, Note_on_c, 0, 86, 84
1, 500677, Note_off_c, 0, 84, 66
1, 500720, Note_on_c, 0, 88, 80
1, 500720, Note_off_c, 0, 86, 65
1, 500743, Note_off_c, 0, 88, 70
1, 500772, Note_on_c, 0, 89, 85
1, 500824, Note_on_c, 0, 91, 81
1, 500824, Note_off_c, 0, 89, 65
1, 500851, Note_on_c, 0, 93, 81
1, 500859, Poly_aftertouch_c, 0, 88, 0
1, 500869, Note_on_c, 0, 43, 107
1, 500877, Note_off_c, 0, 91, 64
1, 500879, Note_on_c, 0, 31, 95
1, 500889, Control_c, 0, 64, 86
1, 500892, Note_on_c, 0, 95, 69
1, 500898, Note_off_c, 0, 93, 65
1, 500904, Control_c, 0, 64, 36
1, 500906, Note_on_c, 0, 32, 52
1, 500916, Note_on_c, 0, 96, 81
1, 500918, Control_c, 0, 64, 0
1, 500920, Note_off_c, 0, 95, 69
1, 500933, Control_c, 0, 64, 52
1, 500943, Note_off_c, 0, 32, 36
1, 500948, Control_c, 0, 64, 92
1, 500963, Control_c, 0, 64, 127
1, 500970, Note_on_c, 0, 95, 87
1, 500990, Note_on_c, 0, 93, 78
1, 501003, Note_off_c, 0, 96, 63
1, 501012, Note_off_c, 0, 31, 63
1, 501019, Note_on_c, 0, 91, 85
1, 501031, Note_off_c, 0, 95, 65
1, 501037, Note_off_c, 0, 93, 65
1, 501044, Note_off_c, 0, 43, 65
1, 501047, Note_on_c, 0, 45, 67
1, 501054, Note_on_c, 0, 33, 52
1, 501070, Note_off_c, 0, 91, 65
1, 501073, Note_off_c, 0, 45, 58
1, 501077, Note_off_c, 0, 33, 61
1, 501079, Note_on_c, 0, 89, 80
1, 501086, Note_on_c, 0, 47, 74
1, 501088, Note_on_c, 0, 35, 58
1, 501115, Note_on_c, 0, 36, 76
1, 501115, Note_on_c, 0, 48, 87
1, 501115, Note_off_c, 0, 35, 58
1, 501124, Note_off_c, 0, 89, 60
1, 501127, Note_off_c, 0, 47, 67
1, 501139, Note_off_c, 0, 36, 63
1, 501139, Note_on_c, 0, 88, 79
1, 501157, Note_on_c, 0, 50, 78
1, 501157, Note_off_c, 0, 48, 65
1, 501158, Note_on_c, 0, 38, 64
1, 501174, Note_on_c, 0, 86, 79
1, 501175, Note_off_c, 0, 50, 66
1, 501183, Note_off_c, 0, 38, 58
1, 501187, Note_on_c, 0, 52, 76
1, 501200, Note_on_c, 0, 40, 55
1, 501215, Note_off_c, 0, 52, 68
1, 501218, Note_on_c, 0, 53, 73
1, 501223, Note_on_c, 0, 41, 57
1, 501230, Note_off_c, 0, 40, 60
1, 501231, Note_off_c, 0, 88, 66
1, 501234, Note_on_c, 0, 84, 79
1, 501237, Note_off_c, 0, 53, 68
1, 501237, Note_on_c, 0, 55, 79
1, 501245, Note_on_c, 0, 43, 55
1, 501251, Note_off_c, 0, 86, 66
1, 501255, Note_off_c, 0, 41, 57
1, 501258, Note_on_c, 0, 57, 84
1, 501258, Note_off_c, 0, 55, 67
1, 501265, Note_on_c, 0, 45, 56
1, 501266, Note_off_c, 0, 45, 127
1, 501278, Note_off_c, 0, 43, 59
1, 501279, Note_off_c, 0, 57, 40
1, 501281, Note_on_c, 0, 59, 75
1, 501287, Note_on_c, 0, 47, 52
1, 501292, Note_off_c, 0, 84, 66
1, 501294, Note_on_c, 0, 83, 83
1, 501298, Note_on_c, 0, 60, 83
1, 501298, Note_off_c, 0, 59, 72
1, 501303, Note_on_c, 0, 48, 69
1, 501315, Note_off_c, 0, 47, 41
1, 501319, Note_off_c, 0, 60, 64
1, 501321, Note_on_c, 0, 62, 87
1, 501321, Note_on_c, 0, 50, 61
1, 501333, Note_off_c, 0, 48, 56
1, 501339, Note_off_c, 0, 83, 66
1, 501344, Note_off_c, 0, 50, 62
1, 501345, Note_off_c, 0, 62, 63
1, 501351, Note_on_c, 0, 52, 65
1, 501351, Note_on_c, 0, 64, 80
1, 501369, Note_off_c, 0, 52, 64
1, 501372, Note_on_c, 0, 81, 84
1, 501375, Note_off_c, 0, 64, 57
1, 501386, Note_on_c, 0, 53, 52
1, 501394, Note_on_c, 0, 65, 63
1, 501395, Note_off_c, 0, 65, 127
1, 501416, Note_off_c, 0, 53, 51
1, 501424, Note_off_c, 0, 81, 65
1, 501446, Note_on_c, 0, 79, 84
1, 501501, Note_on_c, 0, 81, 89
1, 501501, Note_off_c, 0, 79, 63
1, 501503, Note_on_c, 0, 67, 104
1, 501511, Note_on_c, 0, 55, 91
1, 501555, Note_off_c, 0, 81, 65
1, 501577, Note_on_c, 0, 79, 91
1, 501577, Control_c, 0, 64, 74
1, 501592, Control_c, 0, 64, 35
1, 501607, Control_c, 0, 64, 0
1, 501623, Note_off_c, 0, 79, 66
1, 501637, Control_c, 0, 64, 55
1, 501640, Note_on_c, 0, 81, 88
1, 501652, Control_c, 0, 64, 101
1, 501667, Control_c, 0, 64, 127
1, 501692, Note_on_c, 0, 83, 89
1, 501696, Note_off_c, 0, 81, 66
1, 501716, Note_on_c, 0, 84, 56
1, 501742, Note_off_c, 0, 84, 57
1, 501749, Note_on_c, 0, 81, 92
1, 501759, Note_off_c, 0, 83, 66
1, 501799, Note_off_c, 0, 81, 61
1, 501811, Note_on_c, 0, 79, 93
1, 501820, Note_off_c, 0, 67, 61
1, 501870, Note_off_c, 0, 55, 62
1, 501872, Note_off_c, 0, 79, 65
1, 501876, Note_on_c, 0, 81, 95
1, 501934, Note_on_c, 0, 83, 86
1, 501947, Note_off_c, 0, 81, 65
1, 501962, Note_off_c, 0, 83, 71
1, 501991, Note_on_c, 0, 84, 90
1, 502069, Note_on_c, 0, 86, 95
1, 502071, Note_off_c, 0, 84, 64
1, 502116, Note_on_c, 0, 88, 82
1, 502143, Note_off_c, 0, 86, 66
1, 502172, Note_on_c, 0, 89, 84
1, 502178, Note_off_c, 0, 88, 68
1, 502194, Note_on_c, 0, 91, 93
1, 502221, Note_off_c, 0, 89, 66
1, 502238, Note_off_c, 0, 91, 65
1, 502267, Control_c, 0, 64, 86
1, 502277, Note_on_c, 0, 45, 98
1, 502278, Note_on_c, 0, 93, 100
1, 502280, Note_on_c, 0, 50, 90
1, 502281, Note_on_c, 0, 38, 91
1, 502282, Control_c, 0, 64, 54
1, 502292, Note_on_c, 0, 91, 76
1, 502297, Control_c, 0, 64, 13
1, 502306, Note_off_c, 0, 91, 71
1, 502308, Note_off_c, 0, 93, 69
1, 502312, Control_c, 0, 64, 60
1, 502326, Control_c, 0, 64, 98
1, 502333, Note_off_c, 0, 38, 64
1, 502341, Control_c, 0, 64, 127
1, 502343, Note_off_c, 0, 45, 66
1, 502354, Note_off_c, 0, 50, 65
1, 502541, Note_on_c, 0, 69, 39
1, 502546, Note_on_c, 0, 62, 43
1, 502572, Note_off_c, 0, 69, 55
1, 502579, Note_off_c, 0, 62, 66
1, 502592, Note_on_c, 0, 74, 64
1, 502624, Note_off_c, 0, 74, 63
1, 502656, Note_on_c, 0, 77, 73
1, 502675, Note_on_c, 0, 69, 54
1, 502700, Note_on_c, 0, 62, 43
1, 502704, Note_off_c, 0, 77, 63
1, 502722, Note_off_c, 0, 69, 64
1, 502723, Note_on_c, 0, 74, 71
1, 502728, Note_off_c, 0, 62, 57
1, 502770, Note_off_c, 0, 74, 60
1, 502789, Note_on_c, 0, 69, 40
1, 502805, Note_on_c, 0, 77, 76
1, 502826, Note_on_c, 0, 62, 58
1, 502833, Note_off_c, 0, 69, 0
1, 502833, Note_on_c, 0, 69, 38
1, 502839, Note_off_c, 0, 77, 63
1, 502840, Note_on_c, 0, 81, 78
1, 502857, Note_off_c, 0, 62, 66
1, 502862, Note_off_c, 0, 69, 60
1, 502883, Control_c, 0, 64, 88
1, 502883, Control_c, 0, 67, 12
1, 502898, Note_on_c, 0, 69, 62
1, 502898, Control_c, 0, 64, 57
1, 502898, Control_c, 0, 67, 17
1, 502910, Note_off_c, 0, 81, 52
1, 502913, Control_c, 0, 64, 0
1, 502913, Control_c, 0, 67, 19
1, 502915, Note_on_c, 0, 76, 89
1, 502928, Control_c, 0, 67, 21
1, 502928, Note_off_c, 0, 69, 65
1, 502942, Control_c, 0, 67, 25
1, 502952, Note_off_c, 0, 76, 63
1, 502957, Control_c, 0, 67, 32
1, 502957, Note_on_c, 0, 62, 59
1, 502972, Control_c, 0, 64, 55
1, 502972, Control_c, 0, 67, 41
1, 502973, Note_on_c, 0, 69, 56
1, 502987, Control_c, 0, 64, 72
1, 502987, Control_c, 0, 67, 50
1, 502987, Note_off_c, 0, 62, 66
1, 502996, Note_off_c, 0, 69, 61
1, 503002, Control_c, 0, 64, 83
1, 503002, Control_c, 0, 67, 58
1, 503016, Control_c, 0, 64, 127
1, 503016, Control_c, 0, 67, 62
1, 503031, Control_c, 0, 67, 66
1, 503036, Note_on_c, 0, 69, 50
1, 503046, Control_c, 0, 67, 71
1, 503057, Note_on_c, 0, 72, 69
1, 503061, Control_c, 0, 67, 77
1, 503062, Note_off_c, 0, 69, 59
1, 503075, Control_c, 0, 67, 84
1, 503090, Control_c, 0, 67, 90
1, 503091, Note_on_c, 0, 62, 51
1, 503101, Note_off_c, 0, 72, 59
1, 503105, Control_c, 0, 67, 95
1, 503112, Note_on_c, 0, 69, 35
1, 503116, Note_off_c, 0, 62, 62
1, 503120, Control_c, 0, 67, 98
1, 503135, Control_c, 0, 67, 101
1, 503149, Control_c, 0, 67, 104
1, 503157, Note_off_c, 0, 69, 0
1, 503157, Note_on_c, 0, 69, 34
1, 503164, Control_c, 0, 67, 106
1, 503179, Control_c, 0, 67, 108
1, 503191, Note_off_c, 0, 69, 63
1, 503192, Note_on_c, 0, 76, 72
1, 503194, Control_c, 0, 67, 110
1, 503209, Control_c, 0, 67, 111
1, 503216, Note_on_c, 0, 62, 57
1, 503223, Control_c, 0, 67, 112
1, 503229, Note_off_c, 0, 76, 60
1, 503238, Note_on_c, 0, 69, 40
1, 503247, Note_off_c, 0, 62, 65
1, 503283, Note_off_c, 0, 69, 0
1, 503283, Note_on_c, 0, 69, 38
1, 503297, Control_c, 0, 67, 112
1, 503326, Note_on_c, 0, 79, 77
1, 503326, Note_off_c, 0, 69, 0
1, 503327, Control_c, 0, 67, 113
1, 503336, Poly_aftertouch_c, 0, 69, 0
1, 503342, Control_c, 0, 67, 115
1, 503347, Note_on_c, 0, 62, 52
1, 503354, Note_on_c, 0, 69, 44
1, 503357, Control_c, 0, 67, 116
1, 503367, Note_off_c, 0, 79, 62
1, 503373, Note_off_c, 0, 62, 61
1, 503387, Control_c, 0, 64, 70
1, 503387, Control_c, 0, 67, 116
1, 503402, Control_c, 0, 64, 33
1, 503402, Control_c, 0, 67, 117
1, 503416, Control_c, 0, 64, 0
1, 503416, Control_c, 0, 67, 118
1, 503431, Control_c, 0, 67, 119
1, 503449, Note_off_c, 0, 69, 62
1, 503453, Control_c, 0, 64, 44
1, 503453, Control_c, 0, 67, 120
1, 503468, Control_c, 0, 64, 67
1, 503468, Control_c, 0, 67, 121
1, 503469, Note_on_c, 0, 77, 80
1, 503479, Note_on_c, 0, 69, 56
1, 503480, Note_on_c, 0, 62, 60
1, 503482, Control_c, 0, 64, 87
1, 503482, Control_c, 0, 67, 122
1, 503497, Control_c, 0, 64, 127
1, 503497, Control_c, 0, 67, 124
1, 503506, Note_off_c, 0, 77, 63
1, 503512, Control_c, 0, 67, 125
1, 503514, Note_off_c, 0, 62, 64
1, 503521, Note_off_c, 0, 69, 65
1, 503527, Control_c, 0, 67, 125
1, 503542, Control_c, 0, 67, 126
1, 503579, Poly_aftertouch_c, 0, 69, 127
1, 503586, Control_c, 0, 67, 126
1, 503595, Poly_aftertouch_c, 0, 69, 0
1, 503601, Control_c, 0, 67, 127
1, 503611, Note_on_c, 0, 77, 75
1, 503623, Note_on_c, 0, 62, 53
1, 503631, Poly_aftertouch_c, 0, 69, 127
1, 503654, Note_off_c, 0, 62, 60
1, 503656, Note_off_c, 0, 77, 63
1, 503664, Poly_aftertouch_c, 0, 69, 0
1, 503688, Note_on_c, 0, 74, 71
1, 503701, Poly_aftertouch_c, 0, 69, 127
1, 503717, Poly_aftertouch_c, 0, 69, 0
1, 503723, Note_off_c, 0, 74, 62
1, 503759, Note_on_c, 0, 77, 74
1, 503759, Note_on_c, 0, 62, 51
1, 503772, Poly_aftertouch_c, 0, 69, 127
1, 503785, Note_off_c, 0, 62, 62
1, 503788, Note_off_c, 0, 77, 63
1, 503789, Poly_aftertouch_c, 0, 69, 0
1, 503819, Note_on_c, 0, 74, 72
1, 503843, Poly_aftertouch_c, 0, 69, 127
1, 503855, Poly_aftertouch_c, 0, 69, 0
1, 503864, Note_off_c, 0, 74, 57
1, 503879, Note_on_c, 0, 77, 69
1, 503895, Note_on_c, 0, 62, 43
1, 503903, Note_on_c, 0, 69, 57
1, 503923, Note_off_c, 0, 62, 57
1, 503938, Note_off_c, 0, 77, 63
1, 503954, Note_on_c, 0, 81, 72
1, 503958, Control_c, 0, 64, 89
1, 503972, Control_c, 0, 64, 64
1, 503987, Control_c, 0, 64, 39
1, 503994, Note_off_c, 0, 69, 64
1, 504002, Control_c, 0, 64, 0
1, 504017, Control_c, 0, 64, 18
1, 504026, Note_on_c, 0, 62, 60
1, 504030, Note_on_c, 0, 69, 54
1, 504031, Note_on_c, 0, 76, 79
1, 504032, Note_off_c, 0, 81, 61
1, 504032, Control_c, 0, 64, 49
1, 504046, Control_c, 0, 64, 67
1, 504061, Control_c, 0, 64, 83
1, 504069, Note_off_c, 0, 62, 64
1, 504071, Note_off_c, 0, 76, 58
1, 504076, Control_c, 0, 64, 105
1, 504081, Note_off_c, 0, 69, 0
1, 504090, Control_c, 0, 64, 127
1, 504117, Poly_aftertouch_c, 0, 69, 127
1, 504139, Poly_aftertouch_c, 0, 69, 0
1, 504177, Poly_aftertouch_c, 0, 69, 127
1, 504178, Note_on_c, 0, 62, 64
1, 504180, Note_on_c, 0, 72, 73
1, 504215, Note_off_c, 0, 62, 66
1, 504222, Note_off_c, 0, 72, 60
1, 504224, Poly_aftertouch_c, 0, 69, 0
1, 504260, Poly_aftertouch_c, 0, 69, 127
1, 504307, Poly_aftertouch_c, 0, 69, 0
1, 504320, Note_on_c, 0, 62, 51
1, 504320, Note_on_c, 0, 69, 52
1, 504326, Note_on_c, 0, 76, 70
1, 504358, Note_off_c, 0, 62, 62
1, 504358, Note_off_c, 0, 69, 64
1, 504371, Note_off_c, 0, 76, 56
1, 504417, Note_on_c, 0, 69, 34
1, 504464, Note_off_c, 0, 69, 0
1, 504464, Note_on_c, 0, 69, 32
1, 504466, Note_on_c, 0, 62, 55
1, 504467, Note_on_c, 0, 79, 69
1, 504494, Note_off_c, 0, 79, 67
1, 504500, Note_off_c, 0, 62, 64
1, 504510, Note_off_c, 0, 69, 0
1, 504534, Note_on_c, 0, 69, 40
1, 504574, Control_c, 0, 64, 89
1, 504584, Note_off_c, 0, 69, 60
1, 504588, Control_c, 0, 64, 66
1, 504603, Control_c, 0, 64, 50
1, 504615, Note_on_c, 0, 69, 62
1, 504615, Note_on_c, 0, 88, 88
1, 504626, Note_on_c, 0, 62, 51
1, 504633, Control_c, 0, 64, 62
1, 504639, Note_on_c, 0, 77, 51
1, 504648, Control_c, 0, 64, 77
1, 504662, Note_off_c, 0, 69, 63
1, 504663, Control_c, 0, 64, 127
1, 504666, Note_off_c, 0, 62, 63
1, 504679, Note_off_c, 0, 77, 59
1, 504696, Note_on_c, 0, 69, 57
1, 504732, Note_off_c, 0, 69, 62
1, 504770, Note_on_c, 0, 62, 64
1, 504784, Poly_aftertouch_c, 0, 69, 127
1, 504794, Poly_aftertouch_c, 0, 69, 0
1, 504800, Note_off_c, 0, 62, 63
1, 504835, Note_off_c, 0, 88, 53
1, 504844, Note_on_c, 0, 69, 61
1, 504847, Note_on_c, 0, 74, 64
1, 504863, Note_off_c, 0, 69, 65
1, 504864, Note_off_c, 0, 74, 67
1, 504909, Note_on_c, 0, 62, 43
1, 504910, Note_on_c, 0, 77, 81
1, 504931, Note_off_c, 0, 62, 61
1, 504960, Poly_aftertouch_c, 0, 69, 127
1, 504971, Note_off_c, 0, 77, 63
1, 504993, Note_on_c, 0, 74, 53
1, 505018, Note_off_c, 0, 74, 67
1, 505041, Note_on_c, 0, 69, 21
1, 505066, Note_on_c, 0, 77, 54
1, 505089, Note_off_c, 0, 77, 60
1, 505092, Note_on_c, 0, 81, 81
1, 505101, Poly_aftertouch_c, 0, 62, 127
1, 505104, Note_off_c, 0, 69, 65
1, 505112, Note_off_c, 0, 81, 68
1, 505129, Control_c, 0, 64, 94
1, 505134, Poly_aftertouch_c, 0, 62, 0
1, 505144, Control_c, 0, 64, 71
1, 505159, Control_c, 0, 64, 68
1, 505174, Control_c, 0, 64, 78
1, 505175, Note_on_c, 0, 93, 93
1, 505178, Note_on_c, 0, 76, 73
1, 505179, Note_on_c, 0, 81, 18
1, 505188, Control_c, 0, 64, 127
1, 505199, Note_off_c, 0, 76, 68
1, 505205, Note_off_c, 0, 93, 65
1, 505214, Note_off_c, 0, 81, 58
1, 505238, Note_on_c, 0, 62, 14
1, 505268, Note_on_c, 0, 69, 70
1, 505322, Note_off_c, 0, 62, 58
1, 505324, Note_off_c, 0, 69, 63
1, 505332, Note_on_c, 0, 72, 67
1, 505360, Note_off_c, 0, 72, 65
1, 505361, Note_on_c, 0, 69, 45
1, 505384, Note_off_c, 0, 69, 63
1, 505397, Control_c, 0, 67, 126
1, 505412, Control_c, 0, 67, 125
1, 505426, Control_c, 0, 67, 124
1, 505439, Note_on_c, 0, 69, 31
1, 505441, Control_c, 0, 67, 124
1, 505456, Control_c, 0, 67, 123
1, 505464, Note_on_c, 0, 76, 74
1, 505470, Control_c, 0, 67, 123
1, 505485, Control_c, 0, 67, 122
1, 505500, Note_off_c, 0, 76, 62
1, 505500, Control_c, 0, 67, 121
1, 505516, Note_off_c, 0, 69, 0
1, 505545, Control_c, 0, 67, 122
1, 505553, Poly_aftertouch_c, 0, 69, 127
1, 505559, Note_on_c, 0, 62, 54
1, 505560, Control_c, 0, 67, 123
1, 505575, Control_c, 0, 67, 123
1, 505599, Note_on_c, 0, 79, 83
1, 505599, Note_off_c, 0, 62, 61
1, 505607, Poly_aftertouch_c, 0, 69, 0
1, 505619, Control_c, 0, 67, 124
1, 505620, Note_off_c, 0, 79, 70
1, 505624, Note_on_c, 0, 69, 55
1, 505634, Control_c, 0, 67, 125
1, 505663, Control_c, 0, 67, 125
1, 505691, Note_off_c, 0, 69, 65
1, 505700, Control_c, 0, 64, 77
1, 505715, Control_c, 0, 64, 57
1, 505715, Control_c, 0, 67, 126
1, 505730, Control_c, 0, 64, 44
1, 505730, Control_c, 0, 67, 126
1, 505734, Note_on_c, 0, 69, 78
1, 505744, Control_c, 0, 64, 56
1, 505744, Control_c, 0, 67, 127
1, 505745, Note_on_c, 0, 88, 97
1, 505749, Note_on_c, 0, 62, 68
1, 505755, Note_on_c, 0, 77, 70
1, 505759, Control_c, 0, 64, 73
1, 505770, Note_off_c, 0, 69, 63
1, 505774, Control_c, 0, 64, 127
1, 505780, Note_off_c, 0, 62, 66
1, 505782, Note_off_c, 0, 77, 68
1, 505804, Control_c, 0, 67, 126
1, 505818, Control_c, 0, 67, 126
1, 505829, Note_on_c, 0, 69, 73
1, 505855, Note_off_c, 0, 69, 67
1, 505892, Note_on_c, 0, 62, 56
1, 505900, Note_on_c, 0, 69, 76
1, 505911, Note_off_c, 0, 88, 64
1, 505926, Note_off_c, 0, 69, 66
1, 505931, Note_off_c, 0, 62, 66
1, 505962, Note_on_c, 0, 74, 77
1, 505975, Note_on_c, 0, 69, 72
1, 505988, Note_off_c, 0, 74, 70
1, 505995, Note_off_c, 0, 69, 68
1, 506010, Control_c, 0, 67, 126
1, 506025, Control_c, 0, 67, 127
1, 506038, Note_on_c, 0, 77, 76
1, 506045, Note_on_c, 0, 62, 60
1, 506046, Note_on_c, 0, 69, 70
1, 506062, Note_off_c, 0, 69, 71
1, 506069, Note_off_c, 0, 62, 65
1, 506071, Note_off_c, 0, 77, 60
1, 506089, Note_on_c, 0, 74, 79
1, 506117, Note_on_c, 0, 69, 60
1, 506120, Note_off_c, 0, 74, 66
1, 506140, Note_off_c, 0, 69, 61
1, 506158, Note_on_c, 0, 77, 78
1, 506170, Note_on_c, 0, 62, 61
1, 506177, Note_on_c, 0, 69, 65
1, 506187, Note_off_c, 0, 77, 60
1, 506204, Note_off_c, 0, 62, 63
1, 506215, Note_on_c, 0, 81, 81
1, 506215, Note_off_c, 0, 69, 65
1, 506234, Note_off_c, 0, 81, 69
1, 506234, Control_c, 0, 67, 127
1, 506248, Control_c, 0, 64, 104
1, 506263, Control_c, 0, 64, 69
1, 506278, Control_c, 0, 64, 53
1, 506293, Control_c, 0, 64, 51
1, 506304, Note_on_c, 0, 93, 92
1, 506307, Note_on_c, 0, 81, 21
1, 506308, Control_c, 0, 64, 64
1, 506323, Control_c, 0, 64, 96
1, 506329, Note_off_c, 0, 81, 64
1, 506330, Note_off_c, 0, 93, 66
1, 506338, Control_c, 0, 64, 127
1, 506367, Note_on_c, 0, 69, 74
1, 506400, Poly_aftertouch_c, 0, 83, 0
1, 506402, Note_off_c, 0, 69, 66
1, 506437, Poly_aftertouch_c, 0, 62, 0
1, 506456, Note_on_c, 0, 69, 73
1, 506470, Note_on_c, 0, 72, 68
1, 506492, Note_off_c, 0, 69, 61
1, 506502, Note_off_c, 0, 72, 64
1, 506562, Note_on_c, 0, 69, 55
1, 506590, Note_off_c, 0, 69, 0
1, 506600, Poly_aftertouch_c, 0, 69, 0
1, 506609, Note_on_c, 0, 76, 79
1, 506614, Note_on_c, 0, 69, 58
1, 506627, Note_on_c, 0, 62, 51
1, 506637, Note_off_c, 0, 76, 66
1, 506642, Note_off_c, 0, 69, 64
1, 506651, Note_off_c, 0, 62, 60
1, 506703, Note_on_c, 0, 69, 59
1, 506739, Note_on_c, 0, 62, 55
1, 506757, Note_on_c, 0, 79, 65
1, 506765, Note_off_c, 0, 62, 64
1, 506784, Note_off_c, 0, 79, 68
1, 506818, Note_off_c, 0, 69, 0
1, 506818, Note_on_c, 0, 69, 35
1, 506847, Note_off_c, 0, 69, 56
1, 506893, Control_c, 0, 64, 86
1, 506906, Note_on_c, 0, 67, 55
1, 506907, Note_on_c, 0, 61, 33
1, 506907, Control_c, 0, 64, 62
1, 506914, Note_on_c, 0, 65, 78
1, 506922, Control_c, 0, 64, 30
1, 506927, Note_on_c, 0, 60, 58
1, 506937, Control_c, 0, 64, 0
1, 506943, Note_off_c, 0, 61, 35
1, 506954, Note_off_c, 0, 60, 63
1, 506963, Note_off_c, 0, 67, 62
1, 506967, Control_c, 0, 64, 28
1, 506982, Control_c, 0, 64, 55
1, 506997, Control_c, 0, 64, 70
1, 507011, Control_c, 0, 64, 80
1, 507041, Control_c, 0, 64, 71
1, 507053, Note_on_c, 0, 60, 36
1, 507056, Control_c, 0, 64, 55
1, 507056, Note_on_c, 0, 67, 62
1, 507071, Control_c, 0, 64, 22
1, 507086, Control_c, 0, 64, 0
1, 507088, Note_off_c, 0, 65, 61
1, 507098, Note_off_c, 0, 67, 62
1, 507101, Control_c, 0, 64, 42
1, 507104, Note_off_c, 0, 60, 45
1, 507115, Control_c, 0, 64, 66
1, 507122, Note_on_c, 0, 62, 67
1, 507130, Control_c, 0, 64, 87
1, 507145, Control_c, 0, 64, 113
1, 507160, Control_c, 0, 64, 127
1, 507166, Note_off_c, 0, 62, 59
1, 507199, Note_on_c, 0, 65, 79
1, 507206, Note_on_c, 0, 60, 63
1, 507208, Note_on_c, 0, 67, 58
1, 507244, Note_off_c, 0, 67, 63
1, 507246, Note_off_c, 0, 60, 61
1, 507246, Note_off_c, 0, 65, 61
1, 507265, Note_on_c, 0, 62, 76
1, 507316, Note_off_c, 0, 62, 63
1, 507334, Note_on_c, 0, 65, 77
1, 507359, Note_on_c, 0, 67, 58
1, 507362, Note_on_c, 0, 60, 52
1, 507386, Note_on_c, 0, 69, 73
1, 507389, Note_off_c, 0, 65, 63
1, 507390, Control_c, 0, 64, 86
1, 507391, Note_off_c, 0, 67, 63
1, 507392, Note_off_c, 0, 60, 52
1, 507405, Control_c, 0, 64, 63
1, 507420, Control_c, 0, 64, 37
1, 507435, Control_c, 0, 64, 0
1, 507463, Note_off_c, 0, 69, 64
1, 507469, Note_on_c, 0, 64, 76
1, 507481, Note_on_c, 0, 67, 64
1, 507494, Control_c, 0, 64, 17
1, 507497, Note_on_c, 0, 60, 35
1, 507508, Control_c, 0, 64, 47
1, 507523, Control_c, 0, 64, 63
1, 507530, Note_off_c, 0, 60, 44
1, 507537, Note_off_c, 0, 67, 56
1, 507538, Control_c, 0, 64, 73
1, 507543, Note_off_c, 0, 64, 57
1, 507553, Control_c, 0, 64, 78
1, 507568, Control_c, 0, 64, 81
1, 507583, Control_c, 0, 64, 83
1, 507597, Control_c, 0, 64, 85
1, 507609, Note_on_c, 0, 60, 64
1, 507612, Control_c, 0, 64, 86
1, 507630, Note_on_c, 0, 67, 63
1, 507657, Control_c, 0, 64, 87
1, 507658, Note_off_c, 0, 67, 58
1, 507658, Note_off_c, 0, 60, 55
1, 507763, Note_on_c, 0, 64, 58
1, 507776, Note_on_c, 0, 67, 44
1, 507779, Note_on_c, 0, 60, 50
1, 507803, Note_off_c, 0, 67, 56
1, 507805, Note_off_c, 0, 64, 61
1, 507810, Note_off_c, 0, 60, 52
1, 507890, Note_on_c, 0, 67, 68
1, 507897, Note_on_c, 0, 60, 61
1, 507924, Control_c, 0, 64, 86
1, 507945, Control_c, 0, 64, 80
1, 507952, Note_off_c, 0, 60, 55
1, 507960, Control_c, 0, 64, 69
1, 507962, Note_off_c, 0, 67, 62
1, 507975, Control_c, 0, 64, 57
1, 507990, Control_c, 0, 64, 40
1, 508005, Control_c, 0, 64, 25
1, 508019, Control_c, 0, 64, 14
1, 508034, Control_c, 0, 64, 8
1, 508049, Control_c, 0, 64, 21
1, 508061, Note_on_c, 0, 65, 72
1, 508064, Control_c, 0, 64, 44
1, 508076, Note_on_c, 0, 60, 42
1, 508079, Note_on_c, 0, 67, 54
1, 508079, Control_c, 0, 64, 61
1, 508094, Control_c, 0, 64, 70
1, 508108, Control_c, 0, 64, 75
1, 508115, Note_off_c, 0, 67, 62
1, 508123, Control_c, 0, 64, 77
1, 508132, Note_off_c, 0, 60, 44
1, 508138, Control_c, 0, 64, 78
1, 508153, Control_c, 0, 64, 78
1, 508168, Control_c, 0, 64, 79
1, 508183, Control_c, 0, 64, 79
1, 508227, Control_c, 0, 64, 80
1, 508228, Note_on_c, 0, 67, 46
1, 508234, Note_off_c, 0, 65, 59
1, 508242, Note_on_c, 0, 60, 46
1, 508267, Note_off_c, 0, 67, 48
1, 508275, Note_off_c, 0, 60, 50
1, 508281, Note_on_c, 0, 62, 62
1, 508323, Note_off_c, 0, 62, 61
1, 508331, Control_c, 0, 64, 80
1, 508355, Note_on_c, 0, 65, 61
1, 508374, Note_on_c, 0, 67, 52
1, 508376, Note_on_c, 0, 60, 47
1, 508394, Note_off_c, 0, 65, 64
1, 508405, Control_c, 0, 64, 81
1, 508408, Note_off_c, 0, 67, 50
1, 508410, Note_off_c, 0, 60, 49
1, 508416, Note_on_c, 0, 62, 63
1, 508460, Note_off_c, 0, 62, 62
1, 508465, Control_c, 0, 64, 81
1, 508479, Control_c, 0, 64, 82
1, 508490, Note_on_c, 0, 65, 66
1, 508494, Control_c, 0, 64, 83
1, 508509, Control_c, 0, 64, 84
1, 508534, Note_on_c, 0, 67, 38
1, 508539, Control_c, 0, 64, 83
1, 508544, Note_off_c, 0, 65, 61
1, 508553, Control_c, 0, 64, 74
1, 508558, Note_on_c, 0, 69, 64
1, 508566, Note_off_c, 0, 67, 51
1, 508568, Control_c, 0, 64, 61
1, 508583, Control_c, 0, 64, 42
1, 508598, Control_c, 0, 64, 0
1, 508625, Note_off_c, 0, 69, 58
1, 508639, Note_on_c, 0, 64, 68
1, 508642, Poly_aftertouch_c, 0, 60, 0
1, 508642, Control_c, 0, 64, 18
1, 508657, Note_on_c, 0, 60, 33
1, 508657, Control_c, 0, 64, 44
1, 508663, Note_on_c, 0, 67, 39
1, 508672, Control_c, 0, 64, 61
1, 508694, Control_c, 0, 64, 70
1, 508701, Note_off_c, 0, 67, 55
1, 508709, Control_c, 0, 64, 75
1, 508719, Note_off_c, 0, 60, 44
1, 508722, Note_off_c, 0, 64, 56
1, 508724, Control_c, 0, 64, 77
1, 508739, Control_c, 0, 64, 79
1, 508754, Control_c, 0, 64, 80
1, 508768, Control_c, 0, 64, 82
1, 508783, Control_c, 0, 64, 83
1, 508798, Control_c, 0, 64, 84
1, 508799, Note_on_c, 0, 60, 65
1, 508812, Note_on_c, 0, 67, 46
1, 508813, Control_c, 0, 64, 85
1, 508842, Control_c, 0, 64, 85
1, 508845, Note_off_c, 0, 67, 52
1, 508860, Note_off_c, 0, 60, 54
1, 508916, Control_c, 0, 64, 86
1, 508946, Note_on_c, 0, 64, 55
1, 508958, Note_on_c, 0, 67, 43
1, 508984, Note_on_c, 0, 60, 12
1, 508989, Note_off_c, 0, 67, 52
1, 508991, Note_off_c, 0, 64, 60
1, 509059, Note_off_c, 0, 60, 0
1, 509073, Note_on_c, 0, 60, 36
1, 509078, Note_on_c, 0, 67, 63
1, 509107, Note_off_c, 0, 60, 51
1, 509136, Note_off_c, 0, 67, 57
1, 509139, Control_c, 0, 64, 83
1, 509154, Control_c, 0, 64, 71
1, 509168, Control_c, 0, 64, 57
1, 509183, Control_c, 0, 64, 33
1, 509198, Control_c, 0, 64, 0
1, 509212, Control_c, 0, 64, 12
1, 509227, Note_on_c, 0, 65, 66
1, 509227, Control_c, 0, 64, 34
1, 509231, Note_on_c, 0, 58, 65
1, 509242, Control_c, 0, 64, 57
1, 509258, Control_c, 0, 64, 69
1, 509273, Control_c, 0, 64, 77
1, 509276, Note_off_c, 0, 58, 63
1, 509288, Control_c, 0, 64, 81
1, 509295, Note_off_c, 0, 65, 61
1, 509303, Control_c, 0, 64, 82
1, 509317, Control_c, 0, 64, 82
1, 509332, Control_c, 0, 64, 83
1, 509376, Control_c, 0, 64, 83
1, 509391, Control_c, 0, 64, 84
1, 509395, Note_on_c, 0, 58, 54
1, 509411, Note_on_c, 0, 65, 56
1, 509440, Note_off_c, 0, 58, 64
1, 509456, Note_off_c, 0, 65, 64
1, 509487, Note_on_c, 0, 62, 63
1, 509530, Note_off_c, 0, 62, 62
1, 509555, Note_on_c, 0, 58, 25
1, 509557, Note_on_c, 0, 65, 60
1, 509584, Note_off_c, 0, 65, 63
1, 509594, Note_off_c, 0, 58, 40
1, 509623, Note_on_c, 0, 62, 63
1, 509653, Note_off_c, 0, 62, 61
1, 509673, Note_on_c, 0, 65, 63
1, 509691, Note_on_c, 0, 58, 32
1, 509724, Control_c, 0, 64, 81
1, 509729, Note_off_c, 0, 58, 41
1, 509739, Control_c, 0, 64, 68
1, 509742, Note_off_c, 0, 65, 61
1, 509754, Control_c, 0, 64, 53
1, 509759, Note_on_c, 0, 69, 60
1, 509769, Control_c, 0, 64, 15
1, 509784, Control_c, 0, 64, 0
1, 509830, Note_on_c, 0, 58, 42
1, 509840, Note_on_c, 0, 64, 65
1, 509853, Note_on_c, 0, 65, 51
1, 509858, Control_c, 0, 64, 36
1, 509873, Control_c, 0, 64, 55
1, 509885, Note_off_c, 0, 69, 52
1, 509888, Control_c, 0, 64, 63
1, 509891, Note_off_c, 0, 65, 61
1, 509903, Control_c, 0, 64, 65
1, 509917, Note_off_c, 0, 58, 38
1, 509959, Note_off_c, 0, 64, 53
1, 509977, Control_c, 0, 64, 66
1, 509988, Note_on_c, 0, 60, 54
1, 509991, Note_on_c, 0, 65, 49
1, 510000, Note_on_c, 0, 58, 37
1, 510006, Control_c, 0, 64, 67
1, 510021, Control_c, 0, 64, 68
1, 510027, Note_off_c, 0, 60, 60
1, 510033, Note_off_c, 0, 65, 61
1, 510035, Control_c, 0, 64, 70
1, 510040, Note_off_c, 0, 58, 51
1, 510050, Control_c, 0, 64, 73
1, 510066, Control_c, 0, 64, 74
1, 510081, Control_c, 0, 64, 75
1, 510096, Control_c, 0, 64, 76
1, 510111, Control_c, 0, 64, 76
1, 510126, Control_c, 0, 64, 77
1, 510140, Control_c, 0, 64, 78
1, 510147, Note_on_c, 0, 64, 57
1, 510150, Note_on_c, 0, 65, 55
1, 510154, Note_on_c, 0, 58, 42
1, 510189, Note_off_c, 0, 64, 64
1, 510195, Note_off_c, 0, 58, 52
1, 510199, Note_off_c, 0, 65, 61
1, 510222, Control_c, 0, 64, 77
1, 510237, Control_c, 0, 64, 72
1, 510252, Control_c, 0, 64, 65
1, 510266, Control_c, 0, 64, 57
1, 510281, Control_c, 0, 64, 46
1, 510296, Control_c, 0, 64, 35
1, 510304, Note_on_c, 0, 65, 51
1, 510305, Note_on_c, 0, 67, 63
1, 510311, Control_c, 0, 64, 22
1, 510314, Note_on_c, 0, 58, 40
1, 510326, Control_c, 0, 64, 0
1, 510350, Note_off_c, 0, 67, 61
1, 510351, Note_off_c, 0, 65, 60
1, 510358, Note_off_c, 0, 58, 58
1, 510454, Note_on_c, 0, 65, 65
1, 510458, Control_c, 0, 64, 23
1, 510473, Note_on_c, 0, 58, 45
1, 510473, Control_c, 0, 64, 47
1, 510488, Control_c, 0, 64, 60
1, 510503, Control_c, 0, 64, 65
1, 510514, Note_off_c, 0, 58, 53
1, 510518, Control_c, 0, 64, 66
1, 510532, Control_c, 0, 64, 66
1, 510547, Control_c, 0, 64, 67
1, 510562, Control_c, 0, 64, 68
1, 510577, Control_c, 0, 64, 68
1, 510592, Control_c, 0, 64, 68
1, 510606, Control_c, 0, 64, 66
1, 510621, Control_c, 0, 64, 61
1, 510632, Note_on_c, 0, 58, 46
1, 510632, Note_on_c, 0, 62, 53
1, 510636, Control_c, 0, 64, 52
1, 510651, Control_c, 0, 64, 38
1, 510666, Control_c, 0, 64, 23
1, 510677, Note_off_c, 0, 62, 59
1, 510678, Note_off_c, 0, 58, 59
1, 510681, Control_c, 0, 64, 0
1, 510685, Note_off_c, 0, 65, 48
1, 510755, Control_c, 0, 64, 19
1, 510770, Control_c, 0, 64, 44
1, 510783, Note_on_c, 0, 65, 62
1, 510785, Control_c, 0, 64, 59
1, 510799, Control_c, 0, 64, 65
1, 510802, Note_on_c, 0, 58, 49
1, 510814, Control_c, 0, 64, 67
1, 510829, Control_c, 0, 64, 68
1, 510844, Control_c, 0, 64, 69
1, 510849, Note_off_c, 0, 58, 55
1, 510854, Note_off_c, 0, 65, 58
1, 510860, Control_c, 0, 64, 71
1, 510875, Control_c, 0, 64, 72
1, 510889, Control_c, 0, 64, 74
1, 510904, Control_c, 0, 64, 74
1, 510942, Control_c, 0, 64, 74
1, 510957, Control_c, 0, 64, 69
1, 510971, Control_c, 0, 64, 63
1, 510984, Note_on_c, 0, 69, 49
1, 510986, Control_c, 0, 64, 54
1, 510989, Note_on_c, 0, 58, 45
1, 510989, Note_on_c, 0, 65, 54
1, 511001, Control_c, 0, 64, 41
1, 511016, Control_c, 0, 64, 25
1, 511027, Note_off_c, 0, 69, 61
1, 511030, Note_off_c, 0, 65, 61
1, 511030, Control_c, 0, 64, 0
1, 511036, Note_off_c, 0, 58, 57
1, 511134, Control_c, 0, 64, 14
1, 511149, Control_c, 0, 64, 42
1, 511164, Control_c, 0, 64, 58
1, 511176, Note_on_c, 0, 64, 52
1, 511179, Control_c, 0, 64, 65
1, 511184, Note_on_c, 0, 58, 34
1, 511194, Control_c, 0, 64, 67
1, 511199, Note_on_c, 0, 65, 51
1, 511209, Control_c, 0, 64, 68
1, 511223, Note_off_c, 0, 64, 59
1, 511223, Control_c, 0, 64, 69
1, 511227, Note_off_c, 0, 65, 55
1, 511238, Note_off_c, 0, 58, 48
1, 511238, Control_c, 0, 64, 70
1, 511253, Control_c, 0, 64, 72
1, 511268, Control_c, 0, 64, 74
1, 511297, Control_c, 0, 64, 74
1, 511342, Control_c, 0, 64, 74
1, 511356, Control_c, 0, 64, 71
1, 511371, Control_c, 0, 64, 67
1, 511375, Note_on_c, 0, 60, 49
1, 511386, Control_c, 0, 64, 61
1, 511387, Note_on_c, 0, 65, 50
1, 511391, Note_on_c, 0, 58, 37
1, 511400, Control_c, 0, 64, 54
1, 511415, Control_c, 0, 64, 47
1, 511421, Note_off_c, 0, 60, 53
1, 511430, Control_c, 0, 64, 40
1, 511436, Note_off_c, 0, 58, 62
1, 511437, Note_off_c, 0, 65, 59
1, 511445, Control_c, 0, 64, 36
1, 511460, Control_c, 0, 64, 41
1, 511474, Control_c, 0, 64, 49
1, 511489, Control_c, 0, 64, 55
1, 511504, Control_c, 0, 64, 54
1, 511519, Control_c, 0, 64, 48
1, 511534, Control_c, 0, 64, 38
1, 511548, Control_c, 0, 64, 27
1, 511563, Control_c, 0, 64, 25
1, 511578, Control_c, 0, 64, 28
1, 511593, Control_c, 0, 64, 38
1, 511608, Control_c, 0, 64, 53
1, 511610, Note_on_c, 0, 64, 53
1, 511620, Note_on_c, 0, 65, 44
1, 511622, Note_on_c, 0, 58, 27
1, 511623, Control_c, 0, 64, 63
1, 511638, Control_c, 0, 64, 69
1, 511653, Control_c, 0, 64, 72
1, 511654, Note_off_c, 0, 64, 59
1, 511658, Note_off_c, 0, 58, 55
1, 511662, Note_off_c, 0, 65, 61
1, 511668, Control_c, 0, 64, 73
1, 511690, Control_c, 0, 64, 74
1, 511705, Control_c, 0, 64, 76
1, 511719, Control_c, 0, 64, 79
1, 511734, Control_c, 0, 64, 81
1, 511749, Control_c, 0, 64, 82
1, 511764, Control_c, 0, 64, 83
1, 511779, Control_c, 0, 64, 83
1, 511823, Control_c, 0, 64, 80
1, 511838, Control_c, 0, 64, 71
1, 511853, Control_c, 0, 64, 60
1, 511867, Control_c, 0, 64, 52
1, 511882, Control_c, 0, 64, 51
1, 511897, Control_c, 0, 64, 56
1, 511912, Control_c, 0, 64, 63
1, 511914, Note_on_c, 0, 58, 28
1, 511918, Note_on_c, 0, 65, 46
1, 511923, Note_on_c, 0, 67, 50
1, 511927, Control_c, 0, 64, 71
1, 511942, Control_c, 0, 64, 79
1, 511957, Control_c, 0, 64, 89
1, 511966, Note_off_c, 0, 65, 64
1, 511972, Control_c, 0, 64, 92
1, 511977, Note_off_c, 0, 58, 63
1, 511986, Control_c, 0, 64, 93
1, 512000, Note_off_c, 0, 67, 59
1, 512001, Control_c, 0, 64, 96
1, 512016, Control_c, 0, 64, 99
1, 512030, Control_c, 0, 64, 103
1, 512045, Control_c, 0, 64, 105
1, 512060, Control_c, 0, 64, 106
1, 512075, Control_c, 0, 64, 109
1, 512075, Control_c, 0, 67, 124
1, 512090, Control_c, 0, 64, 114
1, 512090, Control_c, 0, 67, 121
1, 512104, Control_c, 0, 64, 127
1, 512104, Control_c, 0, 67, 117
1, 512119, Control_c, 0, 67, 113
1, 512134, Control_c, 0, 67, 108
1, 512149, Control_c, 0, 67, 102
1, 512164, Control_c, 0, 67, 94
1, 512178, Control_c, 0, 67, 82
1, 512193, Control_c, 0, 67, 64
1, 512208, Control_c, 0, 67, 46
1, 512223, Control_c, 0, 67, 28
1, 512237, Control_c, 0, 67, 12
1, 512252, Control_c, 0, 67, 0
1, 512282, Control_c, 0, 64, 106
1, 512297, Control_c, 0, 64, 84
1, 512312, Control_c, 0, 64, 70
1, 512326, Control_c, 0, 64, 61
1, 512341, Control_c, 0, 64, 55
1, 512356, Control_c, 0, 64, 51
1, 512371, Control_c, 0, 64, 46
1, 512386, Control_c, 0, 64, 37
1, 512401, Control_c, 0, 64, 25
1, 512416, Control_c, 0, 64, 8
1, 512437, Control_c, 0, 64, 0
1, 512684, Note_on_c, 0, 64, 87
1, 512690, Note_on_c, 0, 28, 94
1, 512690, Note_on_c, 0, 40, 92
1, 512690, Note_on_c, 0, 57, 84
1, 512691, Note_on_c, 0, 54, 82
1, 512696, Note_on_c, 0, 62, 80
1, 512717, Note_off_c, 0, 40, 66
1, 512720, Note_off_c, 0, 28, 68
1, 512720, Control_c, 0, 64, 72
1, 512735, Control_c, 0, 64, 127
1, 512738, Note_off_c, 0, 54, 62
1, 512804, Note_off_c, 0, 57, 59
1, 512829, Note_off_c, 0, 64, 62
1, 512836, Note_off_c, 0, 62, 60
1, 512872, Poly_aftertouch_c, 0, 40, 0
1, 512920, Note_on_c, 0, 57, 58
1, 512932, Note_on_c, 0, 64, 54
1, 512960, Note_on_c, 0, 62, 37
1, 512977, Note_on_c, 0, 54, 68
1, 513020, Note_off_c, 0, 57, 60
1, 513047, Note_off_c, 0, 64, 45
1, 513049, Note_off_c, 0, 54, 55
1, 513049, Note_off_c, 0, 62, 37
1, 513076, Note_on_c, 0, 52, 82
1, 513078, Note_on_c, 0, 40, 75
1, 513104, Note_off_c, 0, 52, 64
1, 513119, Note_off_c, 0, 40, 63
1, 513283, Note_on_c, 0, 64, 76
1, 513286, Note_on_c, 0, 57, 64
1, 513296, Note_on_c, 0, 62, 67
1, 513348, Note_on_c, 0, 54, 63
1, 513394, Note_off_c, 0, 57, 61
1, 513395, Control_c, 0, 64, 106
1, 513410, Control_c, 0, 64, 81
1, 513411, Note_off_c, 0, 54, 63
1, 513411, Note_off_c, 0, 64, 62
1, 513420, Note_off_c, 0, 62, 61
1, 513425, Control_c, 0, 64, 79
1, 513431, Note_on_c, 0, 52, 86
1, 513435, Note_on_c, 0, 40, 78
1, 513439, Control_c, 0, 64, 90
1, 513454, Control_c, 0, 64, 127
1, 513458, Note_off_c, 0, 52, 66
1, 513491, Note_off_c, 0, 40, 61
1, 513620, Note_on_c, 0, 64, 68
1, 513622, Note_on_c, 0, 57, 68
1, 513631, Note_on_c, 0, 62, 66
1, 513692, Note_on_c, 0, 54, 67
1, 513735, Note_off_c, 0, 64, 52
1, 513738, Note_off_c, 0, 57, 60
1, 513750, Control_c, 0, 64, 95
1, 513754, Note_off_c, 0, 54, 63
1, 513754, Note_off_c, 0, 62, 55
1, 513765, Control_c, 0, 64, 69
1, 513780, Control_c, 0, 64, 67
1, 513783, Note_on_c, 0, 52, 83
1, 513790, Note_on_c, 0, 40, 74
1, 513795, Control_c, 0, 64, 80
1, 513810, Control_c, 0, 64, 127
1, 513815, Note_off_c, 0, 52, 65
1, 513826, Note_off_c, 0, 40, 63
1, 513976, Note_on_c, 0, 64, 59
1, 513977, Note_on_c, 0, 57, 65
1, 513990, Note_on_c, 0, 62, 56
1, 514043, Note_on_c, 0, 54, 65
1, 514070, Note_off_c, 0, 57, 59
1, 514099, Control_c, 0, 64, 100
1, 514100, Note_off_c, 0, 62, 52
1, 514111, Note_off_c, 0, 54, 60
1, 514114, Control_c, 0, 64, 70
1, 514129, Control_c, 0, 64, 62
1, 514138, Note_off_c, 0, 64, 29
1, 514139, Note_on_c, 0, 52, 81
1, 514144, Control_c, 0, 64, 67
1, 514148, Note_on_c, 0, 40, 67
1, 514159, Control_c, 0, 64, 88
1, 514173, Note_off_c, 0, 52, 66
1, 514173, Control_c, 0, 64, 127
1, 514197, Note_off_c, 0, 40, 59
1, 514328, Note_on_c, 0, 64, 60
1, 514336, Note_on_c, 0, 62, 55
1, 514348, Note_on_c, 0, 57, 43
1, 514397, Note_on_c, 0, 54, 68
1, 514420, Note_off_c, 0, 57, 57
1, 514428, Note_off_c, 0, 62, 38
1, 514440, Control_c, 0, 64, 102
1, 514452, Note_off_c, 0, 54, 60
1, 514455, Control_c, 0, 64, 69
1, 514470, Control_c, 0, 64, 49
1, 514485, Note_off_c, 0, 64, 43
1, 514485, Control_c, 0, 64, 44
1, 514493, Note_on_c, 0, 52, 83
1, 514499, Control_c, 0, 64, 57
1, 514505, Note_on_c, 0, 40, 65
1, 514514, Control_c, 0, 64, 73
1, 514524, Note_off_c, 0, 52, 66
1, 514529, Control_c, 0, 64, 106
1, 514544, Control_c, 0, 64, 127
1, 514550, Note_off_c, 0, 40, 61
1, 514668, Note_on_c, 0, 57, 67
1, 514668, Note_on_c, 0, 64, 63
1, 514700, Note_on_c, 0, 62, 53
1, 514741, Note_off_c, 0, 62, 57
1, 514760, Note_on_c, 0, 54, 66
1, 514770, Note_off_c, 0, 64, 59
1, 514772, Note_off_c, 0, 57, 61
1, 514804, Note_off_c, 0, 54, 58
1, 514845, Note_on_c, 0, 52, 86
1, 514854, Note_on_c, 0, 40, 71
1, 514876, Note_off_c, 0, 52, 67
1, 514903, Note_off_c, 0, 40, 61
1, 515022, Note_on_c, 0, 64, 68
1, 515050, Note_on_c, 0, 57, 27
1, 515084, Poly_aftertouch_c, 0, 62, 127
1, 515098, Note_off_c, 0, 64, 59
1, 515099, Note_on_c, 0, 54, 63
1, 515101, Control_c, 0, 64, 101
1, 515116, Control_c, 0, 64, 71
1, 515127, Note_off_c, 0, 54, 66
1, 515130, Poly_aftertouch_c, 0, 62, 0
1, 515130, Control_c, 0, 64, 52
1, 515145, Control_c, 0, 64, 23
1, 515160, Control_c, 0, 64, 0
1, 515198, Note_off_c, 0, 57, 0
1, 515201, Note_on_c, 0, 64, 83
1, 515206, Note_on_c, 0, 52, 87
1, 515209, Note_on_c, 0, 40, 96
1, 515211, Note_on_c, 0, 50, 93
1, 515216, Note_on_c, 0, 62, 80
1, 515219, Control_c, 0, 64, 13
1, 515221, Note_on_c, 0, 28, 85
1, 515234, Control_c, 0, 64, 54
1, 515236, Poly_aftertouch_c, 0, 57, 127
1, 515239, Note_on_c, 0, 53, 45
1, 515248, Control_c, 0, 64, 74
1, 515263, Control_c, 0, 64, 97
1, 515269, Note_off_c, 0, 53, 37
1, 515273, Note_off_c, 0, 28, 62
1, 515278, Control_c, 0, 64, 127
1, 515280, Note_off_c, 0, 40, 62
1, 515286, Poly_aftertouch_c, 0, 57, 0
1, 515301, Note_off_c, 0, 50, 63
1, 515306, Note_off_c, 0, 52, 62
1, 515334, Note_off_c, 0, 64, 61
1, 515383, Note_on_c, 0, 57, 62
1, 515411, Note_off_c, 0, 62, 58
1, 515453, Note_on_c, 0, 54, 66
1, 515491, Note_off_c, 0, 54, 65
1, 515537, Control_c, 0, 64, 84
1, 515552, Control_c, 0, 64, 59
1, 515567, Control_c, 0, 64, 25
1, 515569, Note_on_c, 0, 64, 81
1, 515574, Note_on_c, 0, 62, 77
1, 515575, Note_on_c, 0, 52, 91
1, 515576, Note_on_c, 0, 40, 88
1, 515577, Note_on_c, 0, 50, 94
1, 515582, Control_c, 0, 64, 0
1, 515588, Note_on_c, 0, 28, 83
1, 515611, Control_c, 0, 64, 31
1, 515626, Control_c, 0, 64, 57
1, 515641, Note_off_c, 0, 40, 63
1, 515641, Control_c, 0, 64, 77
1, 515642, Note_off_c, 0, 57, 39
1, 515644, Note_off_c, 0, 28, 62
1, 515657, Control_c, 0, 64, 119
1, 515672, Control_c, 0, 64, 127
1, 515674, Note_off_c, 0, 50, 63
1, 515674, Note_off_c, 0, 52, 58
1, 515714, Note_off_c, 0, 64, 64
1, 515745, Note_on_c, 0, 57, 62
1, 515783, Note_off_c, 0, 62, 59
1, 515812, Note_on_c, 0, 54, 68
1, 515849, Note_off_c, 0, 54, 65
1, 515865, Control_c, 0, 64, 98
1, 515879, Control_c, 0, 64, 62
1, 515894, Control_c, 0, 64, 34
1, 515909, Control_c, 0, 64, 17
1, 515918, Note_on_c, 0, 64, 81
1, 515924, Note_on_c, 0, 52, 91
1, 515924, Control_c, 0, 64, 19
1, 515927, Note_on_c, 0, 40, 88
1, 515927, Note_on_c, 0, 50, 96
1, 515927, Note_on_c, 0, 62, 83
1, 515936, Note_on_c, 0, 28, 78
1, 515939, Control_c, 0, 64, 34
1, 515953, Control_c, 0, 64, 56
1, 515968, Control_c, 0, 64, 74
1, 515973, Note_off_c, 0, 57, 52
1, 515978, Note_off_c, 0, 28, 63
1, 515979, Note_off_c, 0, 40, 63
1, 515983, Control_c, 0, 64, 127
1, 516015, Note_off_c, 0, 50, 63
1, 516017, Note_off_c, 0, 52, 61
1, 516017, Poly_aftertouch_c, 0, 57, 0
1, 516034, Note_off_c, 0, 64, 62
1, 516114, Note_off_c, 0, 62, 60
1, 516124, Note_on_c, 0, 57, 59
1, 516154, Note_on_c, 0, 54, 70
1, 516211, Note_off_c, 0, 54, 62
1, 516226, Control_c, 0, 64, 103
1, 516241, Control_c, 0, 64, 65
1, 516256, Control_c, 0, 64, 29
1, 516270, Control_c, 0, 64, 0
1, 516282, Note_on_c, 0, 64, 79
1, 516289, Note_on_c, 0, 40, 87
1, 516291, Note_on_c, 0, 52, 87
1, 516291, Note_on_c, 0, 62, 82
1, 516292, Note_on_c, 0, 50, 95
1, 516294, Note_on_c, 0, 28, 75
1, 516300, Control_c, 0, 64, 22
1, 516315, Control_c, 0, 64, 54
1, 516319, Note_off_c, 0, 28, 65
1, 516330, Control_c, 0, 64, 74
1, 516335, Note_off_c, 0, 40, 64
1, 516345, Control_c, 0, 64, 103
1, 516345, Note_off_c, 0, 57, 43
1, 516353, Note_off_c, 0, 50, 63
1, 516355, Note_off_c, 0, 52, 57
1, 516360, Control_c, 0, 64, 127
1, 516374, Note_off_c, 0, 64, 63
1, 516448, Note_off_c, 0, 62, 54
1, 516457, Note_on_c, 0, 57, 63
1, 516550, Note_on_c, 0, 54, 61
1, 516568, Note_off_c, 0, 57, 60
1, 516583, Control_c, 0, 64, 79
1, 516598, Control_c, 0, 64, 61
1, 516601, Note_off_c, 0, 54, 51
1, 516613, Control_c, 0, 64, 50
1, 516622, Note_on_c, 0, 52, 76
1, 516628, Control_c, 0, 64, 57
1, 516629, Note_on_c, 0, 40, 67
1, 516643, Control_c, 0, 64, 69
1, 516648, Note_off_c, 0, 52, 66
1, 516655, Note_off_c, 0, 40, 65
1, 516657, Control_c, 0, 64, 89
1, 516672, Control_c, 0, 64, 127
1, 516811, Note_on_c, 0, 64, 63
1, 516818, Note_on_c, 0, 57, 54
1, 516820, Note_on_c, 0, 62, 58
1, 516879, Control_c, 0, 64, 106
1, 516881, Note_off_c, 0, 64, 61
1, 516888, Note_on_c, 0, 54, 68
1, 516893, Control_c, 0, 64, 69
1, 516899, Note_off_c, 0, 62, 56
1, 516903, Note_off_c, 0, 57, 59
1, 516908, Control_c, 0, 64, 48
1, 516931, Control_c, 0, 64, 19
1, 516933, Note_off_c, 0, 54, 64
1, 516946, Control_c, 0, 64, 14
1, 516961, Control_c, 0, 64, 9
1, 516975, Control_c, 0, 64, 17
1, 516990, Note_on_c, 0, 40, 60
1, 516990, Control_c, 0, 64, 47
1, 516992, Note_on_c, 0, 52, 73
1, 517005, Control_c, 0, 64, 67
1, 517018, Note_off_c, 0, 52, 66
1, 517019, Control_c, 0, 64, 91
1, 517034, Control_c, 0, 64, 127
1, 517036, Note_off_c, 0, 40, 62
1, 517172, Note_on_c, 0, 64, 50
1, 517173, Note_on_c, 0, 57, 58
1, 517175, Note_on_c, 0, 62, 49
1, 517234, Note_off_c, 0, 64, 57
1, 517237, Note_off_c, 0, 62, 54
1, 517242, Note_off_c, 0, 57, 51
1, 517249, Note_on_c, 0, 54, 65
1, 517286, Note_off_c, 0, 54, 62
1, 517287, Control_c, 0, 64, 88
1, 517302, Control_c, 0, 64, 68
1, 517317, Control_c, 0, 64, 60
1, 517331, Control_c, 0, 64, 63
1, 517333, Note_on_c, 0, 52, 74
1, 517335, Note_on_c, 0, 40, 59
1, 517346, Control_c, 0, 64, 75
1, 517361, Note_off_c, 0, 52, 65
1, 517361, Control_c, 0, 64, 109
1, 517371, Note_off_c, 0, 40, 61
1, 517376, Control_c, 0, 64, 127
1, 517507, Note_on_c, 0, 64, 65
1, 517513, Note_on_c, 0, 57, 58
1, 517528, Note_on_c, 0, 62, 56
1, 517578, Note_off_c, 0, 62, 53
1, 517588, Note_on_c, 0, 54, 68
1, 517598, Control_c, 0, 64, 85
1, 517602, Note_off_c, 0, 57, 57
1, 517603, Note_off_c, 0, 64, 56
1, 517613, Control_c, 0, 64, 63
1, 517628, Control_c, 0, 64, 47
1, 517637, Note_off_c, 0, 54, 59
1, 517642, Control_c, 0, 64, 46
1, 517657, Control_c, 0, 64, 56
1, 517674, Note_on_c, 0, 52, 84
1, 517680, Control_c, 0, 64, 68
1, 517682, Note_on_c, 0, 40, 68
1, 517695, Control_c, 0, 64, 93
1, 517710, Control_c, 0, 64, 127
1, 517716, Note_off_c, 0, 52, 63
1, 517731, Note_off_c, 0, 40, 60
1, 517860, Note_on_c, 0, 64, 54
1, 517865, Note_on_c, 0, 57, 53
1, 517871, Note_on_c, 0, 62, 48
1, 517922, Note_off_c, 0, 62, 49
1, 517925, Note_off_c, 0, 64, 53
1, 517929, Note_on_c, 0, 54, 70
1, 517954, Note_off_c, 0, 54, 67
1, 517976, Control_c, 0, 64, 74
1, 517990, Control_c, 0, 64, 52
1, 518005, Note_off_c, 0, 57, 0
1, 518005, Control_c, 0, 64, 36
1, 518020, Control_c, 0, 64, 33
1, 518026, Note_on_c, 0, 45, 89
1, 518027, Note_on_c, 0, 50, 90
1, 518029, Note_on_c, 0, 57, 29
1, 518032, Note_on_c, 0, 64, 83
1, 518032, Note_on_c, 0, 62, 85
1, 518038, Note_on_c, 0, 40, 76
1, 518042, Note_on_c, 0, 52, 77
1, 518051, Control_c, 0, 64, 43
1, 518065, Control_c, 0, 64, 60
1, 518074, Note_off_c, 0, 52, 63
1, 518080, Control_c, 0, 64, 76
1, 518095, Control_c, 0, 64, 127
1, 518114, Note_off_c, 0, 57, 53
1, 518147, Note_off_c, 0, 64, 61
1, 518157, Poly_aftertouch_c, 0, 53, 0
1, 518169, Note_off_c, 0, 50, 54
1, 518192, Note_on_c, 0, 57, 64
1, 518223, Note_off_c, 0, 62, 63
1, 518265, Note_on_c, 0, 54, 66
1, 518291, Note_off_c, 0, 54, 67
1, 518295, Note_off_c, 0, 57, 54
1, 518362, Control_c, 0, 64, 82
1, 518377, Control_c, 0, 64, 58
1, 518384, Note_off_c, 0, 40, 0
1, 518386, Note_on_c, 0, 49, 94
1, 518390, Note_on_c, 0, 61, 78
1, 518392, Control_c, 0, 64, 32
1, 518393, Note_on_c, 0, 57, 55
1, 518394, Note_on_c, 0, 64, 77
1, 518396, Note_on_c, 0, 62, 82
1, 518397, Note_on_c, 0, 40, 56
1, 518399, Note_on_c, 0, 50, 77
1, 518406, Control_c, 0, 64, 29
1, 518417, Note_off_c, 0, 45, 64
1, 518443, Control_c, 0, 64, 40
1, 518446, Note_on_c, 0, 52, 12
1, 518458, Control_c, 0, 64, 58
1, 518472, Control_c, 0, 64, 75
1, 518485, Note_off_c, 0, 57, 53
1, 518487, Control_c, 0, 64, 111
1, 518490, Note_off_c, 0, 64, 60
1, 518497, Note_off_c, 0, 52, 56
1, 518502, Control_c, 0, 64, 127
1, 518509, Note_off_c, 0, 50, 55
1, 518548, Note_on_c, 0, 57, 59
1, 518570, Note_off_c, 0, 61, 57
1, 518590, Note_off_c, 0, 62, 56
1, 518598, Note_off_c, 0, 40, 53
1, 518599, Note_off_c, 0, 49, 64
1, 518625, Note_on_c, 0, 54, 66
1, 518656, Note_off_c, 0, 57, 58
1, 518665, Note_off_c, 0, 54, 65
1, 518724, Control_c, 0, 64, 82
1, 518739, Control_c, 0, 64, 66
1, 518741, Note_on_c, 0, 47, 91
1, 518743, Note_on_c, 0, 64, 79
1, 518746, Note_on_c, 0, 59, 76
1, 518753, Control_c, 0, 64, 58
1, 518757, Note_on_c, 0, 50, 74
1, 518759, Note_on_c, 0, 40, 69
1, 518762, Note_on_c, 0, 52, 61
1, 518765, Note_on_c, 0, 62, 66
1, 518768, Control_c, 0, 64, 57
1, 518783, Control_c, 0, 64, 59
1, 518788, Note_off_c, 0, 52, 57
1, 518798, Control_c, 0, 64, 67
1, 518813, Control_c, 0, 64, 81
1, 518828, Control_c, 0, 64, 127
1, 518849, Note_off_c, 0, 64, 62
1, 518889, Poly_aftertouch_c, 0, 57, 0
1, 518890, Note_off_c, 0, 50, 55
1, 518910, Note_on_c, 0, 57, 32
1, 518950, Note_off_c, 0, 59, 55
1, 518977, Note_on_c, 0, 54, 67
1, 518993, Note_off_c, 0, 40, 0
1, 519004, Note_off_c, 0, 62, 31
1, 519019, Note_off_c, 0, 54, 64
1, 519030, Poly_aftertouch_c, 0, 40, 127
1, 519036, Control_c, 0, 64, 83
1, 519037, Note_off_c, 0, 57, 0
1, 519046, Note_off_c, 0, 47, 64
1, 519051, Control_c, 0, 64, 62
1, 519066, Control_c, 0, 64, 40
1, 519081, Control_c, 0, 64, 19
1, 519084, Poly_aftertouch_c, 0, 40, 0
1, 519087, Poly_aftertouch_c, 0, 57, 0
1, 519095, Control_c, 0, 64, 0
1, 519096, Note_on_c, 0, 40, 59
1, 519096, Note_on_c, 0, 45, 90
1, 519099, Note_on_c, 0, 64, 76
1, 519099, Note_on_c, 0, 57, 56
1, 519106, Note_on_c, 0, 52, 76
1, 519113, Note_on_c, 0, 59, 74
1, 519120, Note_on_c, 0, 62, 71
1, 519125, Control_c, 0, 64, 24
1, 519138, Note_off_c, 0, 52, 62
1, 519140, Control_c, 0, 64, 53
1, 519148, Note_on_c, 0, 53, 23
1, 519155, Control_c, 0, 64, 70
1, 519177, Control_c, 0, 64, 89
1, 519191, Control_c, 0, 64, 118
1, 519196, Note_off_c, 0, 53, 33
1, 519197, Note_off_c, 0, 64, 60
1, 519206, Control_c, 0, 64, 127
1, 519209, Note_off_c, 0, 57, 61
1, 519214, Note_off_c, 0, 45, 64
1, 519227, Note_off_c, 0, 40, 58
1, 519251, Note_off_c, 0, 59, 57
1, 519284, Note_on_c, 0, 57, 40
1, 519353, Note_on_c, 0, 54, 63
1, 519367, Note_off_c, 0, 57, 52
1, 519370, Note_off_c, 0, 62, 28
1, 519399, Control_c, 0, 64, 91
1, 519402, Note_off_c, 0, 54, 58
1, 519414, Control_c, 0, 64, 67
1, 519428, Control_c, 0, 64, 52
1, 519443, Control_c, 0, 64, 47
1, 519445, Note_on_c, 0, 52, 75
1, 519451, Note_on_c, 0, 40, 68
1, 519458, Control_c, 0, 64, 57
1, 519473, Control_c, 0, 64, 72
1, 519479, Note_off_c, 0, 52, 67
1, 519488, Control_c, 0, 64, 103
1, 519502, Control_c, 0, 64, 127
1, 519504, Note_off_c, 0, 40, 58
1, 519633, Note_on_c, 0, 57, 60
1, 519636, Note_on_c, 0, 64, 60
1, 519653, Note_on_c, 0, 62, 49
1, 519681, Control_c, 0, 64, 83
1, 519696, Control_c, 0, 64, 55
1, 519701, Note_off_c, 0, 62, 51
1, 519703, Note_on_c, 0, 54, 67
1, 519709, Note_off_c, 0, 64, 56
1, 519710, Control_c, 0, 64, 0
1, 519720, Note_off_c, 0, 57, 58
1, 519750, Note_off_c, 0, 54, 60
1, 519785, Control_c, 0, 64, 45
1, 519787, Note_on_c, 0, 52, 79
1, 519791, Note_on_c, 0, 40, 71
1, 519800, Control_c, 0, 64, 69
1, 519813, Note_off_c, 0, 52, 66
1, 519814, Control_c, 0, 64, 86
1, 519829, Control_c, 0, 64, 104
1, 519844, Control_c, 0, 64, 127
1, 519846, Note_off_c, 0, 40, 61
1, 519976, Note_on_c, 0, 57, 63
1, 519976, Note_on_c, 0, 64, 56
1, 519986, Note_on_c, 0, 62, 39
1, 520042, Note_on_c, 0, 54, 68
1, 520046, Note_off_c, 0, 64, 57
1, 520051, Note_off_c, 0, 62, 41
1, 520073, Note_off_c, 0, 54, 66
1, 520089, Control_c, 0, 64, 79
1, 520104, Control_c, 0, 64, 54
1, 520118, Control_c, 0, 64, 15
1, 520133, Control_c, 0, 64, 0
1, 520153, Note_on_c, 0, 40, 89
1, 520154, Note_on_c, 0, 64, 84
1, 520158, Note_on_c, 0, 52, 83
1, 520162, Note_on_c, 0, 28, 89
1, 520163, Note_on_c, 0, 62, 86
1, 520163, Note_on_c, 0, 50, 85
1, 520192, Control_c, 0, 64, 47
1, 520193, Note_on_c, 0, 53, 40
1, 520207, Control_c, 0, 64, 72
1, 520219, Note_off_c, 0, 50, 62
1, 520220, Note_off_c, 0, 57, 42
1, 520222, Control_c, 0, 64, 96
1, 520229, Note_off_c, 0, 53, 34
1, 520233, Note_off_c, 0, 52, 61
1, 520237, Control_c, 0, 64, 127
1, 520250, Note_off_c, 0, 40, 59
1, 520289, Note_off_c, 0, 64, 64
1, 520291, Note_off_c, 0, 28, 60
1, 520318, Note_on_c, 0, 57, 61
1, 520345, Note_off_c, 0, 62, 53
1, 520384, Note_on_c, 0, 54, 63
1, 520417, Note_off_c, 0, 54, 65
1, 520458, Note_off_c, 0, 57, 0
1, 520460, Control_c, 0, 64, 70
1, 520474, Control_c, 0, 64, 44
1, 520489, Control_c, 0, 64, 0
1, 520495, Poly_aftertouch_c, 0, 57, 127
1, 520513, Note_on_c, 0, 64, 82
1, 520515, Note_on_c, 0, 40, 94
1, 520516, Note_on_c, 0, 50, 90
1, 520518, Note_on_c, 0, 62, 83
1, 520518, Note_on_c, 0, 28, 89
1, 520519, Note_on_c, 0, 52, 84
1, 520526, Note_on_c, 0, 57, 5
1, 520533, Control_c, 0, 64, 42
1, 520548, Control_c, 0, 64, 67
1, 520554, Note_off_c, 0, 28, 64
1, 520563, Control_c, 0, 64, 94
1, 520572, Note_off_c, 0, 40, 63
1, 520578, Note_off_c, 0, 50, 61
1, 520578, Control_c, 0, 64, 127
1, 520584, Note_off_c, 0, 52, 41
1, 520592, Note_off_c, 0, 57, 44
1, 520617, Note_off_c, 0, 64, 62
1, 520690, Note_off_c, 0, 62, 63
1, 520702, Note_on_c, 0, 57, 64
1, 520779, Note_on_c, 0, 54, 59
1, 520786, Note_off_c, 0, 57, 58
1, 520822, Control_c, 0, 64, 91
1, 520830, Note_off_c, 0, 54, 56
1, 520837, Control_c, 0, 64, 63
1, 520852, Control_c, 0, 64, 34
1, 520862, Note_on_c, 0, 52, 74
1, 520865, Note_on_c, 0, 40, 67
1, 520867, Control_c, 0, 64, 13
1, 520882, Control_c, 0, 64, 22
1, 520890, Note_off_c, 0, 52, 66
1, 520897, Control_c, 0, 64, 43
1, 520902, Note_off_c, 0, 40, 65
1, 520911, Control_c, 0, 64, 66
1, 520926, Control_c, 0, 64, 87
1, 520941, Control_c, 0, 64, 127
1, 521053, Note_on_c, 0, 64, 63
1, 521063, Note_on_c, 0, 57, 59
1, 521067, Note_on_c, 0, 62, 59
1, 521117, Note_off_c, 0, 62, 54
1, 521117, Note_off_c, 0, 64, 63
1, 521119, Control_c, 0, 64, 89
1, 521128, Note_off_c, 0, 57, 42
1, 521134, Control_c, 0, 64, 62
1, 521140, Note_on_c, 0, 54, 61
1, 521148, Control_c, 0, 64, 25
1, 521163, Control_c, 0, 64, 0
1, 521182, Note_off_c, 0, 54, 63
1, 521206, Note_on_c, 0, 52, 80
1, 521212, Note_on_c, 0, 40, 73
1, 521222, Control_c, 0, 64, 23
1, 521236, Note_off_c, 0, 52, 68
1, 521238, Control_c, 0, 64, 56
1, 521253, Control_c, 0, 64, 73
1, 521256, Note_off_c, 0, 40, 62
1, 521268, Control_c, 0, 64, 91
1, 521283, Control_c, 0, 64, 127
1, 521379, Note_on_c, 0, 64, 65
1, 521383, Note_on_c, 0, 57, 63
1, 521394, Note_on_c, 0, 62, 55
1, 521454, Note_on_c, 0, 54, 75
1, 521456, Note_off_c, 0, 62, 50
1, 521457, Note_off_c, 0, 64, 60
1, 521487, Note_off_c, 0, 54, 66
1, 521488, Note_off_c, 0, 57, 59
1, 521513, Control_c, 0, 64, 69
1, 521528, Control_c, 0, 64, 43
1, 521543, Control_c, 0, 64, 0
1, 521552, Note_on_c, 0, 45, 90
1, 521557, Note_on_c, 0, 62, 80
1, 521558, Note_on_c, 0, 64, 79
1, 521562, Note_on_c, 0, 40, 77
1, 521564, Note_on_c, 0, 57, 53
1, 521593, Note_on_c, 0, 52, 39
1, 521602, Control_c, 0, 64, 9
1, 521617, Control_c, 0, 64, 55
1, 521631, Note_off_c, 0, 52, 31
1, 521632, Note_off_c, 0, 57, 54
1, 521632, Control_c, 0, 64, 73
1, 521646, Control_c, 0, 64, 93
1, 521661, Control_c, 0, 64, 127
1, 521675, Note_off_c, 0, 64, 62
1, 521725, Note_on_c, 0, 57, 76
1, 521727, Note_off_c, 0, 62, 59
1, 521799, Note_off_c, 0, 57, 60
1, 521803, Note_on_c, 0, 54, 57
1, 521819, Note_off_c, 0, 40, 29
1, 521828, Note_off_c, 0, 54, 59
1, 521906, Note_off_c, 0, 45, 64
1, 521913, Control_c, 0, 64, 84
1, 521928, Note_on_c, 0, 62, 81
1, 521928, Control_c, 0, 64, 51
1, 521929, Note_on_c, 0, 64, 79
1, 521931, Note_on_c, 0, 50, 97
1, 521943, Control_c, 0, 64, 0
1, 521943, Note_on_c, 0, 40, 84
1, 521976, Note_on_c, 0, 41, 43
1, 522002, Control_c, 0, 64, 39
1, 522014, Note_off_c, 0, 41, 54
1, 522016, Control_c, 0, 64, 66
1, 522031, Control_c, 0, 64, 90
1, 522047, Control_c, 0, 64, 127
1, 522094, Note_off_c, 0, 64, 61
1, 522098, Note_on_c, 0, 57, 67
1, 522112, Note_off_c, 0, 62, 58
1, 522169, Note_on_c, 0, 54, 74
1, 522202, Note_off_c, 0, 57, 57
1, 522215, Note_off_c, 0, 50, 60
1, 522218, Note_off_c, 0, 54, 63
1, 522224, Note_off_c, 0, 40, 54
1, 522261, Control_c, 0, 64, 76
1, 522271, Note_on_c, 0, 49, 100
1, 522276, Control_c, 0, 64, 53
1, 522278, Note_on_c, 0, 64, 73
1, 522281, Note_on_c, 0, 61, 72
1, 522286, Note_on_c, 0, 62, 78
1, 522289, Note_on_c, 0, 40, 69
1, 522289, Note_on_c, 0, 57, 53
1, 522291, Control_c, 0, 64, 22
1, 522297, Note_on_c, 0, 50, 56
1, 522306, Control_c, 0, 64, 27
1, 522319, Note_off_c, 0, 50, 60
1, 522320, Control_c, 0, 64, 53
1, 522335, Control_c, 0, 64, 71
1, 522336, Note_off_c, 0, 57, 55
1, 522350, Control_c, 0, 64, 101
1, 522365, Control_c, 0, 64, 127
1, 522396, Note_off_c, 0, 64, 58
1, 522433, Note_off_c, 0, 40, 47
1, 522441, Note_on_c, 0, 57, 66
1, 522459, Note_off_c, 0, 61, 61
1, 522467, Note_off_c, 0, 49, 62
1, 522490, Note_off_c, 0, 62, 0
1, 522503, Note_on_c, 0, 54, 69
1, 522527, Poly_aftertouch_c, 0, 62, 127
1, 522530, Note_off_c, 0, 57, 54
1, 522540, Note_off_c, 0, 54, 66
1, 522560, Poly_aftertouch_c, 0, 62, 0
1, 522587, Control_c, 0, 64, 90
1, 522602, Control_c, 0, 64, 61
1, 522610, Note_on_c, 0, 47, 98
1, 522613, Note_on_c, 0, 64, 77
1, 522616, Control_c, 0, 64, 0
1, 522617, Note_on_c, 0, 59, 77
1, 522624, Note_on_c, 0, 40, 78
1, 522627, Note_on_c, 0, 52, 72
1, 522643, Note_on_c, 0, 62, 59
1, 522647, Note_off_c, 0, 52, 64
1, 522661, Control_c, 0, 64, 26
1, 522665, Note_on_c, 0, 57, 15
1, 522676, Control_c, 0, 64, 57
1, 522691, Control_c, 0, 64, 75
1, 522705, Control_c, 0, 64, 96
1, 522711, Note_off_c, 0, 57, 52
1, 522717, Note_off_c, 0, 64, 61
1, 522720, Control_c, 0, 64, 127
1, 522722, Note_off_c, 0, 40, 57
1, 522748, Note_off_c, 0, 47, 58
1, 522789, Note_on_c, 0, 57, 69
1, 522792, Note_off_c, 0, 59, 57
1, 522851, Note_off_c, 0, 62, 21
1, 522866, Note_on_c, 0, 54, 61
1, 522871, Note_off_c, 0, 57, 51
1, 522930, Note_off_c, 0, 54, 54
1, 522950, Control_c, 0, 64, 78
1, 522960, Note_on_c, 0, 52, 78
1, 522965, Control_c, 0, 64, 61
1, 522971, Note_on_c, 0, 40, 66
1, 522980, Control_c, 0, 64, 56
1, 522992, Note_off_c, 0, 52, 68
1, 522995, Control_c, 0, 64, 65
1, 523005, Note_off_c, 0, 40, 65
1, 523010, Control_c, 0, 64, 81
1, 523025, Control_c, 0, 64, 127
1, 523135, Note_on_c, 0, 64, 69
1, 523137, Note_on_c, 0, 57, 69
1, 523162, Note_on_c, 0, 62, 49
1, 523198, Note_off_c, 0, 62, 52
1, 523217, Control_c, 0, 64, 92
1, 523228, Note_on_c, 0, 54, 66
1, 523228, Note_off_c, 0, 64, 56
1, 523232, Control_c, 0, 64, 63
1, 523241, Note_off_c, 0, 57, 61
1, 523247, Control_c, 0, 64, 32
1, 523261, Control_c, 0, 64, 0
1, 523276, Control_c, 0, 64, 17
1, 523291, Control_c, 0, 64, 40
1, 523305, Note_on_c, 0, 52, 81
1, 523305, Note_on_c, 0, 40, 70
1, 523306, Control_c, 0, 64, 61
1, 523321, Control_c, 0, 64, 82
1, 523323, Note_off_c, 0, 54, 37
1, 523334, Note_off_c, 0, 52, 68
1, 523335, Control_c, 0, 64, 127
1, 523343, Note_off_c, 0, 40, 64
1, 523460, Note_on_c, 0, 57, 69
1, 523473, Note_on_c, 0, 64, 60
1, 523530, Note_on_c, 0, 54, 74
1, 523544, Note_off_c, 0, 57, 62
1, 523561, Poly_aftertouch_c, 0, 62, 127
1, 523563, Note_off_c, 0, 64, 61
1, 523565, Note_off_c, 0, 54, 66
1, 523587, Control_c, 0, 64, 97
1, 523602, Control_c, 0, 64, 64
1, 523611, Poly_aftertouch_c, 0, 62, 0
1, 523617, Control_c, 0, 64, 27
1, 523633, Note_on_c, 0, 44, 96
1, 523633, Control_c, 0, 64, 0
1, 523639, Note_on_c, 0, 56, 83
1, 523642, Note_on_c, 0, 40, 77
1, 523645, Note_on_c, 0, 64, 67
1, 523671, Note_on_c, 0, 62, 53
1, 523675, Note_on_c, 0, 52, 47
1, 523684, Control_c, 0, 64, 30
1, 523695, Note_on_c, 0, 53, 18
1, 523696, Note_off_c, 0, 53, 127
1, 523699, Control_c, 0, 64, 58
1, 523706, Note_off_c, 0, 52, 34
1, 523714, Control_c, 0, 64, 77
1, 523729, Control_c, 0, 64, 127
1, 523731, Note_off_c, 0, 64, 55
1, 523741, Poly_aftertouch_c, 0, 53, 0
1, 523770, Note_off_c, 0, 56, 0
1, 523772, Poly_aftertouch_c, 0, 42, 0
1, 523808, Poly_aftertouch_c, 0, 56, 127
1, 523822, Note_off_c, 0, 62, 56
1, 523830, Note_on_c, 0, 57, 58
1, 523834, Poly_aftertouch_c, 0, 56, 0
1, 523837, Note_off_c, 0, 40, 55
1, 523875, Note_on_c, 0, 54, 70
1, 523904, Note_off_c, 0, 57, 60
1, 523931, Note_off_c, 0, 54, 64
1, 523970, Note_off_c, 0, 44, 62
1, 523996, Control_c, 0, 64, 92
1, 524011, Control_c, 0, 64, 61
1, 524012, Note_on_c, 0, 64, 78
1, 524015, Note_on_c, 0, 47, 94
1, 524019, Note_on_c, 0, 59, 74
1, 524024, Note_on_c, 0, 40, 84
1, 524026, Control_c, 0, 64, 19
1, 524029, Note_on_c, 0, 50, 81
1, 524031, Note_on_c, 0, 52, 52
1, 524032, Note_on_c, 0, 62, 65
1, 524040, Control_c, 0, 64, 0
1, 524055, Control_c, 0, 64, 25
1, 524059, Note_off_c, 0, 52, 52
1, 524062, Note_off_c, 0, 50, 61
1, 524070, Note_on_c, 0, 57, 17
1, 524070, Control_c, 0, 64, 52
1, 524084, Control_c, 0, 64, 72
1, 524099, Control_c, 0, 64, 95
1, 524114, Control_c, 0, 64, 127
1, 524116, Note_off_c, 0, 64, 62
1, 524119, Note_off_c, 0, 57, 40
1, 524173, Note_on_c, 0, 57, 66
1, 524223, Note_off_c, 0, 59, 54
1, 524247, Note_on_c, 0, 54, 73
1, 524278, Note_off_c, 0, 62, 20
1, 524285, Note_off_c, 0, 57, 57
1, 524300, Note_off_c, 0, 40, 57
1, 524300, Note_off_c, 0, 54, 63
1, 524336, Control_c, 0, 64, 85
1, 524343, Note_off_c, 0, 47, 65
1, 524351, Control_c, 0, 64, 61
1, 524357, Note_on_c, 0, 64, 79
1, 524360, Note_on_c, 0, 50, 96
1, 524364, Note_on_c, 0, 52, 82
1, 524366, Control_c, 0, 64, 38
1, 524374, Note_on_c, 0, 40, 76
1, 524375, Note_on_c, 0, 62, 75
1, 524376, Note_on_c, 0, 57, 47
1, 524380, Note_on_c, 0, 59, 60
1, 524381, Control_c, 0, 64, 44
1, 524396, Control_c, 0, 64, 62
1, 524399, Note_off_c, 0, 52, 63
1, 524417, Control_c, 0, 64, 78
1, 524434, Control_c, 0, 64, 127
1, 524440, Note_off_c, 0, 57, 57
1, 524491, Note_off_c, 0, 64, 53
1, 524530, Note_on_c, 0, 57, 68
1, 524542, Note_off_c, 0, 59, 58
1, 524576, Note_off_c, 0, 62, 34
1, 524601, Note_on_c, 0, 54, 72
1, 524618, Note_off_c, 0, 50, 58
1, 524622, Note_off_c, 0, 57, 54
1, 524650, Note_off_c, 0, 54, 63
1, 524670, Control_c, 0, 64, 86
1, 524685, Control_c, 0, 64, 60
1, 524700, Control_c, 0, 64, 30
1, 524703, Note_on_c, 0, 64, 77
1, 524706, Note_off_c, 0, 40, 0
1, 524709, Note_on_c, 0, 50, 106
1, 524715, Control_c, 0, 64, 21
1, 524715, Note_on_c, 0, 62, 74
1, 524716, Note_on_c, 0, 40, 69
1, 524717, Note_on_c, 0, 52, 82
1, 524718, Note_on_c, 0, 57, 64
1, 524730, Control_c, 0, 64, 48
1, 524731, Note_on_c, 0, 59, 60
1, 524745, Control_c, 0, 64, 66
1, 524753, Note_off_c, 0, 52, 64
1, 524760, Control_c, 0, 64, 86
1, 524770, Note_off_c, 0, 50, 61
1, 524775, Control_c, 0, 64, 127
1, 524786, Note_off_c, 0, 40, 58
1, 524795, Note_off_c, 0, 57, 61
1, 524829, Poly_aftertouch_c, 0, 53, 0
1, 524858, Note_off_c, 0, 64, 58
1, 524872, Note_on_c, 0, 57, 58
1, 524879, Note_off_c, 0, 59, 58
1, 524884, Note_off_c, 0, 62, 55
1, 524954, Note_on_c, 0, 54, 68
1, 524973, Note_off_c, 0, 57, 59
1, 525026, Control_c, 0, 64, 104
1, 525040, Control_c, 0, 64, 72
1, 525055, Control_c, 0, 64, 63
1, 525056, Note_on_c, 0, 52, 84
1, 525066, Note_on_c, 0, 40, 67
1, 525070, Control_c, 0, 64, 68
1, 525084, Note_off_c, 0, 52, 66
1, 525085, Control_c, 0, 64, 88
1, 525100, Control_c, 0, 64, 127
1, 525104, Note_off_c, 0, 40, 65
1, 525157, Note_off_c, 0, 54, 31
1, 525259, Note_on_c, 0, 57, 53
1, 525259, Note_on_c, 0, 64, 60
1, 525261, Note_on_c, 0, 62, 57
1, 525325, Note_on_c, 0, 54, 63
1, 525325, Note_off_c, 0, 64, 56
1, 525346, Control_c, 0, 64, 92
1, 525355, Note_off_c, 0, 57, 58
1, 525355, Note_off_c, 0, 62, 53
1, 525361, Control_c, 0, 64, 65
1, 525376, Control_c, 0, 64, 46
1, 525378, Note_off_c, 0, 54, 58
1, 525391, Control_c, 0, 64, 34
1, 525405, Control_c, 0, 64, 37
1, 525417, Note_on_c, 0, 52, 77
1, 525420, Control_c, 0, 64, 50
1, 525425, Note_on_c, 0, 40, 65
1, 525435, Control_c, 0, 64, 68
1, 525447, Note_off_c, 0, 52, 68
1, 525450, Control_c, 0, 64, 87
1, 525463, Note_off_c, 0, 40, 65
1, 525464, Control_c, 0, 64, 127
1, 525591, Note_on_c, 0, 64, 69
1, 525599, Note_on_c, 0, 57, 60
1, 525603, Note_on_c, 0, 62, 60
1, 525670, Note_off_c, 0, 62, 42
1, 525672, Note_on_c, 0, 54, 65
1, 525687, Control_c, 0, 64, 96
1, 525690, Note_off_c, 0, 57, 52
1, 525702, Control_c, 0, 64, 65
1, 525717, Control_c, 0, 64, 44
1, 525724, Note_off_c, 0, 64, 60
1, 525727, Note_off_c, 0, 54, 57
1, 525731, Control_c, 0, 64, 32
1, 525746, Control_c, 0, 64, 38
1, 525758, Note_on_c, 0, 52, 78
1, 525761, Control_c, 0, 64, 53
1, 525767, Note_on_c, 0, 40, 65
1, 525776, Control_c, 0, 64, 68
1, 525791, Control_c, 0, 64, 89
1, 525791, Note_off_c, 0, 52, 64
1, 525805, Control_c, 0, 64, 127
1, 525806, Note_off_c, 0, 40, 65
1, 525942, Note_on_c, 0, 64, 69
1, 525955, Note_on_c, 0, 57, 64
1, 525980, Note_on_c, 0, 62, 40
1, 526002, Note_on_c, 0, 54, 70
1, 526021, Note_off_c, 0, 57, 44
1, 526025, Note_off_c, 0, 62, 45
1, 526036, Control_c, 0, 64, 99
1, 526050, Control_c, 0, 64, 67
1, 526058, Note_off_c, 0, 64, 57
1, 526065, Control_c, 0, 64, 51
1, 526079, Note_off_c, 0, 54, 59
1, 526080, Control_c, 0, 64, 47
1, 526095, Control_c, 0, 64, 59
1, 526100, Note_on_c, 0, 52, 83
1, 526110, Control_c, 0, 64, 74
1, 526113, Note_on_c, 0, 40, 63
1, 526125, Control_c, 0, 64, 107
1, 526128, Note_off_c, 0, 52, 67
1, 526140, Control_c, 0, 64, 127
1, 526140, Note_off_c, 0, 40, 64
1, 526274, Note_on_c, 0, 64, 68
1, 526298, Note_on_c, 0, 57, 35
1, 526334, Note_off_c, 0, 57, 55
1, 526335, Note_on_c, 0, 54, 66
1, 526352, Note_off_c, 0, 64, 64
1, 526355, Note_off_c, 0, 54, 66
1, 526405, Control_c, 0, 64, 78
1, 526420, Control_c, 0, 64, 54
1, 526435, Control_c, 0, 64, 24
1, 526450, Control_c, 0, 64, 32
1, 526451, Note_on_c, 0, 52, 78
1, 526460, Note_on_c, 0, 40, 66
1, 526465, Control_c, 0, 64, 54
1, 526469, Note_on_c, 0, 76, 85
1, 526477, Note_on_c, 0, 77, 78
1, 526480, Control_c, 0, 64, 72
1, 526482, Note_on_c, 0, 64, 57
1, 526484, Note_off_c, 0, 52, 66
1, 526487, Note_off_c, 0, 40, 64
1, 526492, Note_off_c, 0, 77, 43
1, 526495, Control_c, 0, 64, 106
1, 526507, Note_off_c, 0, 64, 65
1, 526510, Control_c, 0, 64, 127
1, 526581, Poly_aftertouch_c, 0, 65, 0
1, 526608, Note_on_c, 0, 69, 61
1, 526639, Note_on_c, 0, 57, 52
1, 526640, Note_on_c, 0, 74, 56
1, 526648, Note_on_c, 0, 54, 49
1, 526672, Note_off_c, 0, 57, 57
1, 526682, Note_off_c, 0, 54, 58
1, 526700, Note_on_c, 0, 66, 77
1, 526714, Note_off_c, 0, 76, 61
1, 526727, Note_off_c, 0, 66, 67
1, 526733, Note_off_c, 0, 74, 63
1, 526754, Control_c, 0, 64, 84
1, 526765, Note_off_c, 0, 69, 22
1, 526768, Control_c, 0, 64, 54
1, 526783, Control_c, 0, 64, 0
1, 526810, Note_on_c, 0, 76, 98
1, 526812, Control_c, 0, 64, 39
1, 526815, Note_on_c, 0, 52, 78
1, 526824, Note_on_c, 0, 40, 66
1, 526826, Note_on_c, 0, 64, 77
1, 526827, Control_c, 0, 64, 65
1, 526843, Control_c, 0, 64, 100
1, 526852, Note_off_c, 0, 52, 65
1, 526858, Control_c, 0, 64, 127
1, 526858, Note_off_c, 0, 64, 60
1, 526859, Note_off_c, 0, 40, 63
1, 526956, Note_on_c, 0, 69, 53
1, 526978, Note_on_c, 0, 54, 61
1, 526987, Note_on_c, 0, 74, 59
1, 527002, Note_on_c, 0, 57, 18
1, 527006, Note_off_c, 0, 54, 65
1, 527037, Note_on_c, 0, 66, 77
1, 527045, Note_off_c, 0, 76, 61
1, 527046, Note_off_c, 0, 57, 40
1, 527064, Note_off_c, 0, 66, 67
1, 527070, Note_off_c, 0, 74, 63
1, 527100, Note_off_c, 0, 69, 48
1, 527109, Control_c, 0, 64, 86
1, 527124, Control_c, 0, 64, 68
1, 527139, Control_c, 0, 64, 65
1, 527146, Note_on_c, 0, 76, 96
1, 527147, Note_on_c, 0, 52, 85
1, 527154, Control_c, 0, 64, 81
1, 527162, Note_on_c, 0, 40, 70
1, 527165, Note_on_c, 0, 64, 76
1, 527169, Control_c, 0, 64, 127
1, 527186, Note_off_c, 0, 64, 68
1, 527189, Note_off_c, 0, 40, 64
1, 527190, Note_off_c, 0, 52, 64
1, 527305, Note_on_c, 0, 69, 58
1, 527306, Note_on_c, 0, 54, 61
1, 527311, Note_on_c, 0, 74, 76
1, 527332, Note_off_c, 0, 54, 65
1, 527365, Note_on_c, 0, 66, 69
1, 527375, Poly_aftertouch_c, 0, 57, 0
1, 527381, Note_off_c, 0, 76, 63
1, 527398, Note_off_c, 0, 66, 65
1, 527407, Poly_aftertouch_c, 0, 57, 0
1, 527421, Note_off_c, 0, 74, 62
1, 527435, Note_off_c, 0, 69, 0
1, 527443, Control_c, 0, 64, 102
1, 527457, Control_c, 0, 64, 65
1, 527469, Poly_aftertouch_c, 0, 69, 0
1, 527472, Control_c, 0, 64, 39
1, 527487, Control_c, 0, 64, 31
1, 527489, Note_on_c, 0, 52, 85
1, 527490, Note_on_c, 0, 76, 95
1, 527501, Note_on_c, 0, 64, 83
1, 527502, Note_on_c, 0, 40, 72
1, 527502, Control_c, 0, 64, 54
1, 527517, Control_c, 0, 64, 76
1, 527528, Note_off_c, 0, 40, 64
1, 527530, Note_off_c, 0, 52, 65
1, 527532, Control_c, 0, 64, 127
1, 527568, Note_off_c, 0, 64, 39
1, 527572, Poly_aftertouch_c, 0, 69, 127
1, 527639, Note_on_c, 0, 69, 36
1, 527656, Note_on_c, 0, 54, 68
1, 527663, Note_on_c, 0, 57, 54
1, 527667, Note_on_c, 0, 74, 62
1, 527685, Note_off_c, 0, 54, 67
1, 527688, Note_off_c, 0, 57, 58
1, 527737, Note_on_c, 0, 66, 68
1, 527785, Control_c, 0, 64, 83
1, 527800, Control_c, 0, 64, 63
1, 527809, Note_off_c, 0, 69, 48
1, 527814, Control_c, 0, 64, 55
1, 527816, Note_on_c, 0, 52, 87
1, 527821, Note_on_c, 0, 40, 80
1, 527829, Control_c, 0, 64, 62
1, 527844, Control_c, 0, 64, 81
1, 527847, Note_off_c, 0, 52, 67
1, 527854, Note_off_c, 0, 40, 66
1, 527857, Note_off_c, 0, 66, 0
1, 527858, Control_c, 0, 64, 127
1, 527881, Note_off_c, 0, 76, 54
1, 527894, Poly_aftertouch_c, 0, 66, 127
1, 527923, Note_off_c, 0, 74, 23
1, 527931, Poly_aftertouch_c, 0, 66, 0
1, 527986, Note_on_c, 0, 76, 78
1, 527991, Note_on_c, 0, 57, 65
1, 527995, Note_on_c, 0, 54, 60
1, 527995, Note_on_c, 0, 69, 69
1, 528012, Note_on_c, 0, 74, 66
1, 528016, Note_off_c, 0, 57, 57
1, 528017, Note_off_c, 0, 54, 64
1, 528045, Note_off_c, 0, 74, 63
1, 528063, Note_off_c, 0, 76, 54
1, 528067, Note_off_c, 0, 69, 39
1, 528069, Note_on_c, 0, 66, 66
1, 528095, Control_c, 0, 64, 96
1, 528109, Note_off_c, 0, 66, 62
1, 528110, Control_c, 0, 64, 65
1, 528125, Control_c, 0, 64, 43
1, 528140, Control_c, 0, 64, 33
1, 528157, Note_on_c, 0, 52, 88
1, 528162, Control_c, 0, 64, 56
1, 528167, Note_on_c, 0, 40, 81
1, 528177, Control_c, 0, 64, 77
1, 528192, Control_c, 0, 64, 127
1, 528195, Note_off_c, 0, 40, 66
1, 528198, Note_off_c, 0, 52, 64
1, 528331, Note_on_c, 0, 54, 73
1, 528334, Note_on_c, 0, 69, 71
1, 528334, Note_on_c, 0, 57, 68
1, 528339, Note_on_c, 0, 76, 77
1, 528356, Note_off_c, 0, 57, 64
1, 528360, Note_on_c, 0, 74, 41
1, 528363, Note_off_c, 0, 54, 65
1, 528388, Note_off_c, 0, 74, 57
1, 528399, Note_off_c, 0, 76, 63
1, 528399, Control_c, 0, 64, 93
1, 528414, Note_on_c, 0, 66, 50
1, 528414, Note_off_c, 0, 69, 61
1, 528414, Control_c, 0, 64, 61
1, 528429, Control_c, 0, 64, 0
1, 528441, Note_off_c, 0, 66, 56
1, 528501, Note_on_c, 0, 71, 88
1, 528502, Note_on_c, 0, 52, 88
1, 528508, Note_on_c, 0, 40, 75
1, 528526, Note_off_c, 0, 52, 70
1, 528532, Note_on_c, 0, 60, 38
1, 528534, Note_off_c, 0, 40, 64
1, 528537, Note_off_c, 0, 71, 64
1, 528563, Note_off_c, 0, 60, 35
1, 528666, Note_on_c, 0, 54, 98
1, 528670, Note_on_c, 0, 74, 80
1, 528676, Note_on_c, 0, 57, 69
1, 528680, Note_on_c, 0, 69, 66
1, 528688, Note_off_c, 0, 54, 69
1, 528698, Note_off_c, 0, 57, 63
1, 528727, Note_off_c, 0, 74, 60
1, 528727, Note_off_c, 0, 69, 57
1, 528844, Control_c, 0, 64, 58
1, 528852, Note_on_c, 0, 52, 91
1, 528852, Note_on_c, 0, 73, 73
1, 528857, Note_on_c, 0, 40, 83
1, 528859, Control_c, 0, 64, 74
1, 528860, Note_on_c, 0, 61, 84
1, 528869, Note_on_c, 0, 69, 45
1, 528873, Control_c, 0, 64, 86
1, 528876, Note_off_c, 0, 52, 69
1, 528882, Note_off_c, 0, 40, 65
1, 528889, Note_off_c, 0, 61, 64
1, 528889, Control_c, 0, 64, 105
1, 528906, Note_off_c, 0, 69, 57
1, 528912, Control_c, 0, 64, 127
1, 528944, Note_off_c, 0, 73, 63
1, 529016, Note_on_c, 0, 76, 76
1, 529019, Note_on_c, 0, 69, 62
1, 529025, Note_on_c, 0, 54, 68
1, 529032, Note_on_c, 0, 74, 62
1, 529046, Note_off_c, 0, 54, 67
1, 529061, Note_off_c, 0, 69, 61
1, 529067, Note_off_c, 0, 74, 65
1, 529071, Note_off_c, 0, 76, 60
1, 529089, Poly_aftertouch_c, 0, 57, 127
1, 529097, Note_on_c, 0, 66, 64
1, 529118, Poly_aftertouch_c, 0, 57, 0
1, 529118, Note_off_c, 0, 66, 65
1, 529119, Control_c, 0, 64, 81
1, 529134, Control_c, 0, 64, 55
1, 529148, Control_c, 0, 64, 0
1, 529163, Control_c, 0, 64, 35
1, 529178, Control_c, 0, 64, 63
1, 529185, Note_on_c, 0, 52, 84
1, 529189, Note_on_c, 0, 71, 92
1, 529192, Note_on_c, 0, 40, 76
1, 529193, Control_c, 0, 64, 90
1, 529203, Note_on_c, 0, 59, 69
1, 529207, Note_on_c, 0, 57, 57
1, 529207, Control_c, 0, 64, 127
1, 529217, Note_off_c, 0, 52, 66
1, 529229, Note_off_c, 0, 40, 63
1, 529231, Note_off_c, 0, 57, 63
1, 529231, Note_off_c, 0, 59, 67
1, 529241, Note_off_c, 0, 71, 65
1, 529347, Note_on_c, 0, 54, 66
1, 529349, Note_on_c, 0, 57, 35
1, 529354, Note_on_c, 0, 76, 78
1, 529371, Note_on_c, 0, 69, 60
1, 529377, Note_on_c, 0, 74, 57
1, 529378, Note_on_c, 0, 72, 45
1, 529379, Note_off_c, 0, 72, 127
1, 529379, Note_off_c, 0, 54, 66
1, 529380, Note_off_c, 0, 57, 53
1, 529391, Note_off_c, 0, 76, 61
1, 529392, Note_off_c, 0, 69, 63
1, 529400, Note_off_c, 0, 74, 65
1, 529437, Note_on_c, 0, 66, 75
1, 529446, Control_c, 0, 64, 109
1, 529461, Control_c, 0, 64, 65
1, 529464, Note_off_c, 0, 66, 68
1, 529476, Control_c, 0, 64, 21
1, 529490, Control_c, 0, 64, 0
1, 529517, Note_on_c, 0, 52, 81
1, 529520, Control_c, 0, 64, 40
1, 529523, Note_on_c, 0, 69, 80
1, 529528, Note_on_c, 0, 40, 74
1, 529532, Note_on_c, 0, 57, 80
1, 529535, Control_c, 0, 64, 65
1, 529549, Note_off_c, 0, 52, 67
1, 529550, Control_c, 0, 64, 90
1, 529553, Note_off_c, 0, 40, 65
1, 529556, Note_off_c, 0, 57, 66
1, 529565, Control_c, 0, 64, 127
1, 529580, Note_off_c, 0, 69, 66
1, 529678, Poly_aftertouch_c, 0, 57, 127
1, 529695, Note_on_c, 0, 56, 55
1, 529699, Note_on_c, 0, 76, 83
1, 529706, Note_on_c, 0, 69, 72
1, 529711, Poly_aftertouch_c, 0, 57, 0
1, 529714, Note_on_c, 0, 59, 28
1, 529718, Note_off_c, 0, 56, 61
1, 529731, Note_on_c, 0, 74, 43
1, 529735, Note_off_c, 0, 69, 61
1, 529748, Note_off_c, 0, 76, 62
1, 529750, Note_off_c, 0, 59, 52
1, 529758, Note_off_c, 0, 74, 55
1, 529777, Note_on_c, 0, 66, 86
1, 529809, Control_c, 0, 64, 82
1, 529820, Note_off_c, 0, 66, 61
1, 529824, Control_c, 0, 64, 61
1, 529838, Control_c, 0, 64, 44
1, 529853, Control_c, 0, 64, 55
1, 529861, Note_on_c, 0, 52, 94
1, 529862, Note_on_c, 0, 40, 86
1, 529868, Control_c, 0, 64, 75
1, 529883, Control_c, 0, 64, 127
1, 529884, Note_off_c, 0, 52, 70
1, 529888, Note_off_c, 0, 40, 66
1, 530032, Control_c, 0, 64, 81
1, 530039, Note_on_c, 0, 76, 83
1, 530044, Note_on_c, 0, 69, 75
1, 530046, Note_on_c, 0, 64, 98
1, 530047, Control_c, 0, 64, 64
1, 530053, Note_on_c, 0, 52, 76
1, 530054, Note_on_c, 0, 74, 60
1, 530057, Note_on_c, 0, 53, 73
1, 530061, Control_c, 0, 64, 49
1, 530069, Note_off_c, 0, 64, 69
1, 530076, Control_c, 0, 64, 38
1, 530081, Note_off_c, 0, 53, 64
1, 530083, Note_off_c, 0, 52, 67
1, 530091, Control_c, 0, 64, 26
1, 530106, Note_off_c, 0, 74, 55
1, 530106, Control_c, 0, 64, 0
1, 530117, Note_on_c, 0, 66, 71
1, 530125, Note_off_c, 0, 76, 63
1, 530131, Note_off_c, 0, 69, 63
1, 530174, Note_off_c, 0, 66, 59
1, 530224, Control_c, 0, 64, 24
1, 530229, Note_on_c, 0, 57, 96
1, 530231, Note_on_c, 0, 45, 88
1, 530239, Control_c, 0, 64, 63
1, 530252, Note_off_c, 0, 57, 69
1, 530254, Control_c, 0, 64, 83
1, 530260, Note_off_c, 0, 45, 67
1, 530268, Control_c, 0, 64, 105
1, 530283, Control_c, 0, 64, 127
1, 530284, Note_on_c, 0, 46, 8
1, 530340, Note_off_c, 0, 46, 35
1, 530385, Note_on_c, 0, 76, 74
1, 530386, Note_on_c, 0, 69, 95
1, 530411, Note_on_c, 0, 57, 82
1, 530438, Note_off_c, 0, 57, 67
1, 530452, Control_c, 0, 64, 89
1, 530467, Control_c, 0, 64, 64
1, 530477, Note_on_c, 0, 66, 74
1, 530482, Control_c, 0, 64, 40
1, 530486, Note_off_c, 0, 69, 60
1, 530497, Control_c, 0, 64, 0
1, 530522, Note_off_c, 0, 66, 58
1, 530541, Control_c, 0, 64, 22
1, 530556, Control_c, 0, 64, 57
1, 530571, Control_c, 0, 64, 76
1, 530578, Note_on_c, 0, 44, 84
1, 530578, Note_on_c, 0, 58, 89
1, 530586, Control_c, 0, 64, 111
1, 530594, Note_on_c, 0, 56, 58
1, 530600, Note_off_c, 0, 58, 69
1, 530600, Control_c, 0, 64, 127
1, 530604, Note_off_c, 0, 76, 30
1, 530608, Note_off_c, 0, 44, 65
1, 530617, Note_off_c, 0, 56, 60
1, 530696, Note_on_c, 0, 58, 3
1, 530725, Note_on_c, 0, 76, 64
1, 530739, Note_on_c, 0, 56, 75
1, 530739, Note_on_c, 0, 68, 85
1, 530742, Note_off_c, 0, 58, 31
1, 530760, Note_off_c, 0, 68, 70
1, 530778, Note_off_c, 0, 56, 64
1, 530793, Control_c, 0, 64, 119
1, 530797, Note_on_c, 0, 69, 4
1, 530798, Note_on_c, 0, 66, 87
1, 530808, Control_c, 0, 64, 75
1, 530823, Control_c, 0, 64, 56
1, 530838, Control_c, 0, 64, 0
1, 530844, Note_off_c, 0, 76, 52
1, 530851, Note_off_c, 0, 66, 63
1, 530853, Note_off_c, 0, 69, 45
1, 530912, Note_on_c, 0, 66, 103
1, 530927, Control_c, 0, 64, 48
1, 530942, Control_c, 0, 64, 69
1, 530957, Control_c, 0, 64, 91
1, 530972, Control_c, 0, 64, 127
1, 531009, Poly_aftertouch_c, 0, 62, 127
1, 531029, Note_off_c, 0, 66, 59
1, 531038, Poly_aftertouch_c, 0, 62, 0
1, 531058, Note_on_c, 0, 62, 56
1, 531062, Note_on_c, 0, 76, 67
1, 531077, Note_on_c, 0, 54, 69
1, 531077, Note_on_c, 0, 69, 67
1, 531079, Note_on_c, 0, 57, 56
1, 531086, Note_off_c, 0, 62, 66
1, 531102, Note_on_c, 0, 74, 45
1, 531103, Note_off_c, 0, 54, 67
1, 531103, Note_off_c, 0, 57, 60
1, 531154, Note_off_c, 0, 74, 53
1, 531154, Note_off_c, 0, 76, 54
1, 531167, Note_on_c, 0, 66, 68
1, 531176, Note_off_c, 0, 69, 61
1, 531210, Note_off_c, 0, 66, 59
1, 531256, Note_on_c, 0, 53, 75
1, 531268, Note_on_c, 0, 40, 51
1, 531269, Note_on_c, 0, 41, 57
1, 531279, Note_off_c, 0, 53, 66
1, 531297, Note_off_c, 0, 41, 56
1, 531300, Note_off_c, 0, 40, 54
1, 531415, Note_on_c, 0, 62, 79
1, 531419, Note_on_c, 0, 57, 75
1, 531425, Note_on_c, 0, 54, 71
1, 531425, Note_on_c, 0, 69, 71
1, 531428, Note_on_c, 0, 76, 75
1, 531440, Note_off_c, 0, 62, 68
1, 531444, Note_on_c, 0, 74, 54
1, 531444, Note_off_c, 0, 57, 66
1, 531453, Note_off_c, 0, 54, 67
1, 531498, Note_on_c, 0, 66, 77
1, 531504, Note_off_c, 0, 74, 52
1, 531512, Control_c, 0, 64, 91
1, 531526, Note_off_c, 0, 69, 56
1, 531527, Control_c, 0, 64, 66
1, 531542, Control_c, 0, 64, 54
1, 531556, Control_c, 0, 64, 59
1, 531570, Note_off_c, 0, 66, 60
1, 531571, Control_c, 0, 64, 72
1, 531586, Control_c, 0, 64, 98
1, 531587, Note_on_c, 0, 52, 91
1, 531588, Note_on_c, 0, 40, 88
1, 531600, Note_off_c, 0, 76, 28
1, 531601, Control_c, 0, 64, 127
1, 531611, Note_off_c, 0, 52, 69
1, 531618, Note_off_c, 0, 40, 64
1, 531743, Note_on_c, 0, 62, 85
1, 531747, Note_on_c, 0, 57, 75
1, 531747, Note_on_c, 0, 69, 71
1, 531748, Note_on_c, 0, 54, 72
1, 531750, Note_on_c, 0, 76, 70
1, 531771, Note_off_c, 0, 62, 67
1, 531772, Note_off_c, 0, 57, 66
1, 531774, Note_on_c, 0, 74, 47
1, 531789, Note_off_c, 0, 54, 64
1, 531808, Note_on_c, 0, 66, 81
1, 531839, Control_c, 0, 64, 80
1, 531841, Note_off_c, 0, 69, 62
1, 531854, Control_c, 0, 64, 58
1, 531868, Note_off_c, 0, 66, 63
1, 531869, Control_c, 0, 64, 25
1, 531884, Control_c, 0, 64, 24
1, 531905, Control_c, 0, 64, 49
1, 531920, Note_on_c, 0, 52, 87
1, 531920, Control_c, 0, 64, 68
1, 531924, Note_on_c, 0, 40, 91
1, 531935, Control_c, 0, 64, 95
1, 531938, Note_off_c, 0, 76, 35
1, 531950, Note_off_c, 0, 52, 67
1, 531950, Control_c, 0, 64, 127
1, 531951, Note_off_c, 0, 40, 67
1, 532024, Note_off_c, 0, 74, 17
1, 532090, Note_on_c, 0, 68, 92
1, 532097, Note_on_c, 0, 56, 88
1, 532117, Note_off_c, 0, 68, 65
1, 532120, Note_on_c, 0, 76, 58
1, 532143, Note_off_c, 0, 56, 60
1, 532160, Poly_aftertouch_c, 0, 74, 127
1, 532167, Note_on_c, 0, 66, 82
1, 532217, Control_c, 0, 64, 76
1, 532221, Note_off_c, 0, 76, 59
1, 532230, Note_off_c, 0, 66, 61
1, 532231, Control_c, 0, 64, 56
1, 532233, Poly_aftertouch_c, 0, 74, 0
1, 532246, Control_c, 0, 64, 35
1, 532261, Control_c, 0, 64, 46
1, 532266, Note_on_c, 0, 59, 100
1, 532267, Note_on_c, 0, 47, 91
1, 532276, Control_c, 0, 64, 68
1, 532291, Control_c, 0, 64, 102
1, 532292, Note_off_c, 0, 59, 67
1, 532294, Note_off_c, 0, 47, 70
1, 532303, Note_on_c, 0, 46, 36
1, 532305, Control_c, 0, 64, 127
1, 532337, Note_off_c, 0, 46, 52
1, 532428, Note_on_c, 0, 71, 89
1, 532433, Note_on_c, 0, 59, 94
1, 532434, Note_on_c, 0, 76, 85
1, 532450, Note_off_c, 0, 71, 69
1, 532459, Note_off_c, 0, 59, 66
1, 532478, Note_on_c, 0, 74, 40
1, 532479, Note_on_c, 0, 69, 28
1, 532511, Note_off_c, 0, 74, 52
1, 532517, Note_on_c, 0, 66, 83
1, 532532, Note_off_c, 0, 76, 63
1, 532558, Control_c, 0, 64, 77
1, 532573, Note_off_c, 0, 66, 64
1, 532573, Note_off_c, 0, 69, 42
1, 532573, Control_c, 0, 64, 45
1, 532588, Control_c, 0, 64, 0
1, 532596, Note_on_c, 0, 52, 94
1, 532604, Note_on_c, 0, 76, 93
1, 532617, Control_c, 0, 64, 26
1, 532632, Control_c, 0, 64, 57
1, 532654, Control_c, 0, 64, 76
1, 532669, Control_c, 0, 64, 127
1, 532769, Note_on_c, 0, 74, 75
1, 532770, Note_on_c, 0, 69, 72
1, 532781, Note_on_c, 0, 64, 87
1, 532787, Note_on_c, 0, 57, 72
1, 532798, Note_on_c, 0, 54, 63
1, 532811, Note_off_c, 0, 76, 60
1, 532835, Note_on_c, 0, 66, 86
1, 532841, Note_off_c, 0, 64, 63
1, 532847, Control_c, 0, 64, 91
1, 532862, Control_c, 0, 64, 60
1, 532871, Note_off_c, 0, 52, 61
1, 532871, Note_off_c, 0, 57, 61
1, 532877, Control_c, 0, 64, 0
1, 532886, Note_off_c, 0, 69, 58
1, 532896, Note_off_c, 0, 74, 61
1, 532902, Note_off_c, 0, 66, 62
1, 532913, Note_off_c, 0, 54, 62
1, 532936, Note_on_c, 0, 64, 102
1, 532945, Note_on_c, 0, 76, 87
1, 532951, Control_c, 0, 64, 45
1, 532965, Note_off_c, 0, 64, 69
1, 532966, Control_c, 0, 64, 70
1, 532980, Control_c, 0, 64, 90
1, 532995, Control_c, 0, 64, 127
1, 533111, Note_on_c, 0, 74, 65
1, 533121, Note_off_c, 0, 76, 62
1, 533122, Note_on_c, 0, 69, 51
1, 533169, Note_on_c, 0, 66, 68
1, 533172, Note_off_c, 0, 69, 61
1, 533225, Poly_aftertouch_c, 0, 92, 127
1, 533243, Note_off_c, 0, 66, 61
1, 533255, Poly_aftertouch_c, 0, 92, 0
1, 533285, Note_on_c, 0, 100, 102
1, 533288, Note_on_c, 0, 98, 89
1, 533295, Note_on_c, 0, 93, 77
1, 533295, Note_off_c, 0, 74, 0
1, 533297, Note_on_c, 0, 76, 81
1, 533297, Note_on_c, 0, 90, 83
1, 533307, Note_on_c, 0, 69, 67
1, 533310, Note_on_c, 0, 66, 73
1, 533312, Note_on_c, 0, 74, 36
1, 533319, Note_off_c, 0, 100, 68
1, 533323, Note_off_c, 0, 98, 66
1, 533339, Note_off_c, 0, 93, 65
1, 533340, Note_off_c, 0, 69, 61
1, 533348, Note_off_c, 0, 90, 67
1, 533364, Note_off_c, 0, 66, 57
1, 533367, Note_off_c, 0, 74, 47
1, 533407, Note_off_c, 0, 76, 60
1, 533537, Control_c, 0, 64, 81
1, 533551, Control_c, 0, 64, 65
1, 533566, Control_c, 0, 64, 52
1, 533581, Control_c, 0, 64, 37
1, 533596, Control_c, 0, 64, 18
1, 533611, Control_c, 0, 64, 0
1, 533689, Note_on_c, 0, 52, 91
1, 533698, Note_on_c, 0, 46, 76
1, 533699, Note_on_c, 0, 76, 76
1, 533701, Note_on_c, 0, 69, 76
1, 533702, Note_on_c, 0, 66, 82
1, 533703, Note_on_c, 0, 50, 75
1, 533706, Note_on_c, 0, 42, 68
1, 533713, Note_on_c, 0, 74, 66
1, 533714, Control_c, 0, 64, 22
1, 533726, Note_off_c, 0, 46, 66
1, 533729, Control_c, 0, 64, 62
1, 533744, Control_c, 0, 64, 80
1, 533759, Control_c, 0, 64, 106
1, 533765, Note_off_c, 0, 66, 62
1, 533774, Control_c, 0, 64, 127
1, 533786, Note_off_c, 0, 76, 60
1, 533789, Note_off_c, 0, 69, 64
1, 533791, Note_off_c, 0, 52, 64
1, 533810, Note_off_c, 0, 50, 67
1, 533813, Note_off_c, 0, 74, 60
1, 533836, Note_off_c, 0, 42, 63
1, 533847, Poly_aftertouch_c, 0, 45, 0
1, 534010, Control_c, 0, 64, 81
1, 534027, Control_c, 0, 64, 56
1, 534041, Control_c, 0, 64, 0
1, 534054, Note_on_c, 0, 47, 94
1, 534063, Note_on_c, 0, 35, 81
1, 534087, Note_off_c, 0, 47, 66
1, 534089, Note_off_c, 0, 35, 64
1, 534228, Note_on_c, 0, 76, 71
1, 534233, Note_on_c, 0, 62, 89
1, 534233, Note_on_c, 0, 69, 62
1, 534243, Note_on_c, 0, 50, 83
1, 534258, Note_off_c, 0, 62, 68
1, 534270, Note_off_c, 0, 50, 71
1, 534300, Note_on_c, 0, 66, 72
1, 534303, Poly_aftertouch_c, 0, 74, 127
1, 534308, Note_off_c, 0, 76, 62
1, 534314, Note_off_c, 0, 69, 38
1, 534327, Note_off_c, 0, 66, 67
1, 534401, Note_on_c, 0, 49, 93
1, 534403, Note_on_c, 0, 37, 81
1, 534404, Control_c, 0, 64, 56
1, 534406, Note_on_c, 0, 61, 104
1, 534418, Control_c, 0, 64, 77
1, 534426, Note_off_c, 0, 37, 67
1, 534426, Note_off_c, 0, 49, 67
1, 534433, Control_c, 0, 64, 93
1, 534436, Note_on_c, 0, 69, 33
1, 534448, Control_c, 0, 64, 119
1, 534461, Note_off_c, 0, 61, 58
1, 534463, Control_c, 0, 64, 127
1, 534475, Note_off_c, 0, 69, 52
1, 534490, Poly_aftertouch_c, 0, 74, 0
1, 534573, Note_on_c, 0, 54, 35
1, 534579, Note_on_c, 0, 69, 59
1, 534579, Note_on_c, 0, 76, 65
1, 534606, Note_off_c, 0, 54, 58
1, 534612, Note_on_c, 0, 74, 35
1, 534643, Note_off_c, 0, 76, 64
1, 534644, Note_off_c, 0, 74, 47
1, 534644, Note_on_c, 0, 66, 80
1, 534647, Note_off_c, 0, 69, 47
1, 534656, Control_c, 0, 64, 72
1, 534667, Note_off_c, 0, 66, 68
1, 534671, Control_c, 0, 64, 44
1, 534686, Control_c, 0, 64, 0
1, 534730, Control_c, 0, 64, 19
1, 534743, Note_on_c, 0, 47, 88
1, 534745, Control_c, 0, 64, 54
1, 534746, Note_on_c, 0, 59, 97
1, 534755, Note_on_c, 0, 35, 69
1, 534759, Control_c, 0, 64, 73
1, 534774, Control_c, 0, 64, 98
1, 534779, Note_off_c, 0, 35, 59
1, 534783, Note_off_c, 0, 47, 66
1, 534789, Control_c, 0, 64, 127
1, 534790, Note_off_c, 0, 59, 67
1, 534894, Note_on_c, 0, 54, 76
1, 534919, Note_off_c, 0, 54, 67
1, 534931, Note_on_c, 0, 76, 79
1, 534934, Note_on_c, 0, 69, 79
1, 534957, Note_off_c, 0, 69, 69
1, 534959, Note_off_c, 0, 76, 65
1, 534999, Note_on_c, 0, 66, 84
1, 535005, Control_c, 0, 64, 106
1, 535020, Control_c, 0, 64, 66
1, 535022, Note_off_c, 0, 66, 68
1, 535028, Poly_aftertouch_c, 0, 74, 0
1, 535035, Control_c, 0, 64, 0
1, 535085, Note_on_c, 0, 45, 86
1, 535092, Note_on_c, 0, 57, 95
1, 535093, Note_on_c, 0, 40, 63
1, 535094, Control_c, 0, 64, 29
1, 535109, Control_c, 0, 64, 61
1, 535123, Control_c, 0, 64, 79
1, 535124, Note_off_c, 0, 45, 66
1, 535127, Note_off_c, 0, 40, 63
1, 535130, Note_off_c, 0, 57, 66
1, 535138, Control_c, 0, 64, 97
1, 535153, Control_c, 0, 64, 115
1, 535168, Control_c, 0, 64, 127
1, 535248, Note_on_c, 0, 56, 62
1, 535257, Note_on_c, 0, 76, 88
1, 535263, Note_on_c, 0, 57, 23
1, 535264, Note_on_c, 0, 69, 66
1, 535269, Note_off_c, 0, 56, 64
1, 535282, Note_off_c, 0, 69, 70
1, 535294, Note_off_c, 0, 76, 56
1, 535297, Note_off_c, 0, 57, 57
1, 535302, Note_on_c, 0, 72, 11
1, 535303, Note_off_c, 0, 72, 127
1, 535324, Note_on_c, 0, 66, 82
1, 535338, Note_off_c, 0, 66, 74
1, 535339, Poly_aftertouch_c, 0, 72, 0
1, 535352, Poly_aftertouch_c, 0, 74, 0
1, 535405, Control_c, 0, 64, 83
1, 535419, Note_on_c, 0, 56, 93
1, 535419, Note_on_c, 0, 68, 95
1, 535419, Control_c, 0, 64, 58
1, 535426, Note_on_c, 0, 40, 80
1, 535430, Note_on_c, 0, 41, 70
1, 535434, Control_c, 0, 64, 0
1, 535446, Note_off_c, 0, 56, 65
1, 535451, Note_off_c, 0, 40, 66
1, 535455, Note_off_c, 0, 41, 66
1, 535462, Note_off_c, 0, 68, 65
1, 535594, Note_on_c, 0, 54, 82
1, 535598, Note_on_c, 0, 76, 87
1, 535598, Note_on_c, 0, 66, 68
1, 535618, Note_on_c, 0, 68, 55
1, 535618, Note_off_c, 0, 66, 63
1, 535622, Note_on_c, 0, 69, 48
1, 535623, Note_off_c, 0, 76, 66
1, 535624, Note_on_c, 0, 67, 40
1, 535625, Note_off_c, 0, 54, 67
1, 535648, Note_off_c, 0, 68, 61
1, 535658, Note_off_c, 0, 69, 36
1, 535662, Note_off_c, 0, 67, 36
1, 535683, Note_on_c, 0, 66, 77
1, 535684, Note_off_c, 0, 66, 127
1, 535768, Note_on_c, 0, 41, 72
1, 535771, Note_on_c, 0, 40, 82
1, 535774, Note_on_c, 0, 71, 91
1, 535779, Note_on_c, 0, 59, 83
1, 535784, Control_c, 0, 64, 62
1, 535790, Note_off_c, 0, 41, 66
1, 535792, Note_off_c, 0, 40, 65
1, 535798, Note_on_c, 0, 69, 46
1, 535799, Control_c, 0, 64, 86
1, 535801, Note_off_c, 0, 59, 69
1, 535814, Control_c, 0, 64, 109
1, 535819, Note_off_c, 0, 71, 65
1, 535828, Note_off_c, 0, 69, 32
1, 535828, Control_c, 0, 64, 127
1, 535879, Note_on_c, 0, 59, 16
1, 535917, Note_off_c, 0, 59, 42
1, 535938, Note_on_c, 0, 62, 74
1, 535939, Note_on_c, 0, 69, 71
1, 535944, Note_on_c, 0, 76, 76
1, 535945, Note_on_c, 0, 54, 61
1, 535950, Note_on_c, 0, 57, 53
1, 535962, Note_off_c, 0, 62, 68
1, 535975, Note_off_c, 0, 54, 66
1, 535975, Note_off_c, 0, 57, 58
1, 535984, Note_on_c, 0, 74, 28
1, 535994, Note_off_c, 0, 76, 60
1, 536012, Note_off_c, 0, 69, 0
1, 536019, Note_off_c, 0, 74, 48
1, 536025, Note_on_c, 0, 66, 83
1, 536048, Poly_aftertouch_c, 0, 69, 127
1, 536065, Control_c, 0, 64, 112
1, 536075, Note_off_c, 0, 66, 63
1, 536080, Control_c, 0, 64, 67
1, 536095, Control_c, 0, 64, 15
1, 536102, Poly_aftertouch_c, 0, 69, 0
1, 536110, Note_on_c, 0, 52, 94
1, 536110, Control_c, 0, 64, 0
1, 536120, Note_on_c, 0, 76, 94
1, 536139, Control_c, 0, 64, 31
1, 536147, Poly_aftertouch_c, 0, 69, 0
1, 536154, Control_c, 0, 64, 59
1, 536169, Control_c, 0, 64, 75
1, 536184, Control_c, 0, 64, 96
1, 536199, Control_c, 0, 64, 120
1, 536213, Control_c, 0, 64, 127
1, 536233, Poly_aftertouch_c, 0, 69, 0
1, 536275, Note_on_c, 0, 69, 61
1, 536280, Note_on_c, 0, 64, 82
1, 536280, Note_on_c, 0, 74, 78
1, 536280, Note_off_c, 0, 76, 63
1, 536290, Note_on_c, 0, 57, 64
1, 536296, Note_on_c, 0, 54, 60
1, 536324, Note_on_c, 0, 72, 35
1, 536338, Note_off_c, 0, 64, 65
1, 536351, Note_on_c, 0, 66, 90
1, 536357, Note_off_c, 0, 72, 42
1, 536376, Control_c, 0, 64, 76
1, 536381, Note_off_c, 0, 57, 61
1, 536398, Control_c, 0, 64, 26
1, 536404, Note_off_c, 0, 69, 63
1, 536415, Control_c, 0, 64, 0
1, 536417, Note_off_c, 0, 66, 63
1, 536419, Note_off_c, 0, 74, 63
1, 536435, Note_off_c, 0, 54, 63
1, 536448, Note_off_c, 0, 52, 62
1, 536451, Note_on_c, 0, 64, 103
1, 536470, Note_on_c, 0, 76, 97
1, 536474, Control_c, 0, 64, 35
1, 536477, Note_off_c, 0, 64, 68
1, 536488, Control_c, 0, 64, 65
1, 536503, Control_c, 0, 64, 77
1, 536518, Control_c, 0, 64, 92
1, 536533, Control_c, 0, 64, 127
1, 536560, Poly_aftertouch_c, 0, 74, 0
1, 536591, Poly_aftertouch_c, 0, 74, 0
1, 536596, Note_on_c, 0, 69, 26
1, 536606, Note_on_c, 0, 74, 54
1, 536624, Note_off_c, 0, 76, 60
1, 536636, Note_on_c, 0, 66, 82
1, 536653, Note_off_c, 0, 66, 68
1, 536698, Note_off_c, 0, 69, 46
1, 536699, Note_off_c, 0, 74, 64
1, 536725, Control_c, 0, 64, 75
1, 536740, Control_c, 0, 64, 45
1, 536755, Control_c, 0, 64, 0
1, 536788, Note_on_c, 0, 71, 80
1, 536795, Note_on_c, 0, 83, 82
1, 536800, Control_c, 0, 64, 58
1, 536803, Note_on_c, 0, 100, 97
1, 536814, Control_c, 0, 64, 96
1, 536818, Note_off_c, 0, 100, 74
1, 536829, Control_c, 0, 64, 127
1, 536829, Note_on_c, 0, 90, 47
1, 536830, Note_off_c, 0, 90, 127
1, 536832, Note_off_c, 0, 83, 64
1, 536845, Note_off_c, 0, 71, 65
1, 536977, Control_c, 0, 64, 108
1, 536992, Control_c, 0, 64, 74
1, 537007, Control_c, 0, 64, 61
1, 537021, Control_c, 0, 64, 49
1, 537036, Control_c, 0, 64, 42
1, 537051, Control_c, 0, 64, 36
1, 537066, Control_c, 0, 64, 21
1, 537081, Control_c, 0, 64, 0
1, 537148, Note_on_c, 0, 88, 87
1, 537150, Note_on_c, 0, 73, 98
1, 537151, Note_on_c, 0, 78, 101
1, 537157, Note_on_c, 0, 81, 80
1, 537157, Note_on_c, 0, 86, 85
1, 537162, Note_on_c, 0, 61, 81
1, 537162, Control_c, 0, 64, 37
1, 537176, Control_c, 0, 64, 72
1, 537185, Note_off_c, 0, 81, 66
1, 537191, Note_off_c, 0, 88, 68
1, 537191, Control_c, 0, 64, 127
1, 537193, Note_off_c, 0, 73, 67
1, 537196, Note_off_c, 0, 78, 63
1, 537203, Note_off_c, 0, 86, 65
1, 537209, Note_off_c, 0, 61, 64
1, 537473, Control_c, 0, 64, 77
1, 537488, Control_c, 0, 64, 55
1, 537503, Note_on_c, 0, 62, 100
1, 537503, Control_c, 0, 64, 39
1, 537504, Note_on_c, 0, 66, 98
1, 537505, Note_on_c, 0, 76, 88
1, 537509, Note_on_c, 0, 50, 81
1, 537509, Note_on_c, 0, 69, 85
1, 537513, Note_on_c, 0, 74, 81
1, 537518, Control_c, 0, 64, 59
1, 537533, Control_c, 0, 64, 84
1, 537546, Note_off_c, 0, 76, 65
1, 537548, Note_off_c, 0, 62, 68
1, 537548, Control_c, 0, 64, 127
1, 537552, Note_off_c, 0, 69, 62
1, 537563, Note_off_c, 0, 74, 64
1, 537566, Note_off_c, 0, 66, 59
1, 537567, Note_off_c, 0, 50, 65
1, 537755, Control_c, 0, 64, 109
1, 537761, Poly_aftertouch_c, 0, 63, 127
1, 537770, Control_c, 0, 64, 76
1, 537784, Control_c, 0, 64, 59
1, 537799, Control_c, 0, 64, 31
1, 537810, Poly_aftertouch_c, 0, 63, 0
1, 537814, Control_c, 0, 64, 0
1, 537923, Note_on_c, 0, 40, 92
1, 537923, Note_on_c, 0, 54, 87
1, 537925, Note_on_c, 0, 57, 77
1, 537926, Note_on_c, 0, 64, 78
1, 537927, Note_on_c, 0, 28, 100
1, 537927, Note_on_c, 0, 62, 79
1, 537940, Control_c, 0, 64, 60
1, 537948, Note_off_c, 0, 54, 70
1, 537950, Note_off_c, 0, 40, 68
1, 537955, Note_off_c, 0, 57, 67
1, 537955, Control_c, 0, 64, 80
1, 537956, Note_off_c, 0, 28, 67
1, 537970, Control_c, 0, 64, 102
1, 537985, Control_c, 0, 64, 127
1, 537989, Note_off_c, 0, 62, 64
1, 537993, Note_off_c, 0, 64, 62
1, 538039, Poly_aftertouch_c, 0, 56, 0
1, 538296, Control_c, 0, 64, 72
1, 538311, Control_c, 0, 64, 30
1, 538326, Control_c, 0, 64, 0
1, 538467, Note_on_c, 0, 86, 89
1, 538469, Note_on_c, 0, 52, 80
1, 538474, Note_on_c, 0, 78, 84
1, 538477, Note_on_c, 0, 62, 70
1, 538482, Note_on_c, 0, 76, 70
1, 538497, Note_off_c, 0, 52, 68
1, 538497, Note_off_c, 0, 78, 69
1, 538499, Note_off_c, 0, 62, 67
1, 538500, Note_off_c, 0, 76, 41
1, 538509, Note_off_c, 0, 86, 66
1, 538815, Note_on_c, 0, 85, 85
1, 538819, Note_on_c, 0, 76, 72
1, 538821, Note_on_c, 0, 52, 64
1, 538824, Note_on_c, 0, 62, 65
1, 538824, Note_on_c, 0, 78, 72
1, 538827, Note_on_c, 0, 54, 62
1, 538847, Note_off_c, 0, 76, 67
1, 538850, Note_off_c, 0, 62, 67
1, 538850, Note_off_c, 0, 78, 67
1, 538850, Note_off_c, 0, 52, 65
1, 538855, Note_off_c, 0, 54, 66
1, 538867, Note_off_c, 0, 85, 66
1, 539150, Note_on_c, 0, 76, 73
1, 539152, Note_on_c, 0, 83, 79
1, 539158, Note_on_c, 0, 78, 73
1, 539160, Note_on_c, 0, 54, 60
1, 539160, Note_on_c, 0, 62, 63
1, 539162, Note_on_c, 0, 52, 58
1, 539172, Note_on_c, 0, 56, 51
1, 539177, Note_on_c, 0, 88, 48
1, 539180, Note_off_c, 0, 76, 64
1, 539181, Note_off_c, 0, 62, 64
1, 539186, Note_off_c, 0, 78, 65
1, 539191, Note_off_c, 0, 54, 64
1, 539192, Note_off_c, 0, 52, 65
1, 539198, Note_off_c, 0, 56, 60
1, 539199, Note_off_c, 0, 83, 66
1, 539202, Note_off_c, 0, 88, 57
1, 539501, Note_on_c, 0, 81, 76
1, 539503, Note_on_c, 0, 78, 73
1, 539505, Note_on_c, 0, 76, 69
1, 539509, Note_on_c, 0, 62, 63
1, 539511, Note_on_c, 0, 57, 60
1, 539515, Note_on_c, 0, 52, 52
1, 539524, Note_off_c, 0, 76, 66
1, 539527, Note_on_c, 0, 54, 45
1, 539531, Note_off_c, 0, 62, 64
1, 539535, Note_off_c, 0, 78, 64
1, 539539, Note_off_c, 0, 57, 65
1, 539542, Note_off_c, 0, 52, 59
1, 539557, Note_off_c, 0, 54, 57
1, 539558, Note_off_c, 0, 81, 64
1, 539851, Note_on_c, 0, 81, 80
1, 539858, Note_on_c, 0, 62, 58
1, 539858, Note_on_c, 0, 78, 67
1, 539859, Note_on_c, 0, 57, 62
1, 539861, Note_on_c, 0, 52, 55
1, 539861, Note_on_c, 0, 76, 62
1, 539867, Note_on_c, 0, 54, 55
1, 539879, Note_off_c, 0, 62, 63
1, 539881, Note_off_c, 0, 76, 62
1, 539886, Note_off_c, 0, 52, 61
1, 539887, Note_off_c, 0, 57, 65
1, 539888, Note_off_c, 0, 78, 65
1, 539898, Note_off_c, 0, 54, 66
1, 539900, Note_off_c, 0, 81, 65
1, 540201, Note_on_c, 0, 86, 89
1, 540202, Control_c, 0, 64, 44
1, 540206, Note_on_c, 0, 78, 81
1, 540209, Note_on_c, 0, 76, 74
1, 540212, Note_on_c, 0, 52, 79
1, 540214, Note_on_c, 0, 62, 76
1, 540217, Control_c, 0, 64, 61
1, 540225, Note_off_c, 0, 76, 67
1, 540229, Note_off_c, 0, 78, 69
1, 540232, Control_c, 0, 64, 62
1, 540236, Note_off_c, 0, 62, 67
1, 540240, Note_off_c, 0, 52, 68
1, 540246, Control_c, 0, 64, 60
1, 540257, Note_off_c, 0, 86, 66
1, 540261, Control_c, 0, 64, 57
1, 540264, Note_on_c, 0, 88, 6
1, 540266, Note_off_c, 0, 88, 39
1, 540276, Control_c, 0, 64, 51
1, 540291, Control_c, 0, 64, 41
1, 540306, Control_c, 0, 64, 19
1, 540320, Control_c, 0, 64, 0
1, 540529, Control_c, 0, 64, 36
1, 540544, Control_c, 0, 64, 58
1, 540556, Note_on_c, 0, 85, 91
1, 540559, Note_on_c, 0, 76, 79
1, 540559, Control_c, 0, 64, 67
1, 540562, Note_on_c, 0, 62, 70
1, 540563, Note_on_c, 0, 52, 64
1, 540565, Note_on_c, 0, 78, 80
1, 540568, Note_on_c, 0, 54, 64
1, 540573, Control_c, 0, 64, 69
1, 540580, Note_on_c, 0, 56, 51
1, 540585, Note_off_c, 0, 76, 68
1, 540588, Note_off_c, 0, 78, 68
1, 540588, Note_off_c, 0, 62, 68
1, 540594, Note_off_c, 0, 52, 64
1, 540599, Note_off_c, 0, 54, 66
1, 540603, Control_c, 0, 64, 68
1, 540606, Note_off_c, 0, 56, 54
1, 540609, Note_off_c, 0, 85, 66
1, 540618, Control_c, 0, 64, 63
1, 540633, Control_c, 0, 64, 55
1, 540648, Control_c, 0, 64, 40
1, 540662, Control_c, 0, 64, 19
1, 540677, Control_c, 0, 64, 0
1, 540869, Control_c, 0, 64, 14
1, 540891, Control_c, 0, 64, 50
1, 540900, Note_on_c, 0, 83, 89
1, 540905, Note_on_c, 0, 78, 78
1, 540906, Control_c, 0, 64, 68
1, 540907, Note_on_c, 0, 52, 66
1, 540907, Note_on_c, 0, 56, 69
1, 540907, Note_on_c, 0, 62, 68
1, 540907, Note_on_c, 0, 76, 73
1, 540910, Note_on_c, 0, 54, 58
1, 540921, Control_c, 0, 64, 84
1, 540928, Note_off_c, 0, 76, 65
1, 540931, Note_off_c, 0, 62, 66
1, 540934, Note_off_c, 0, 78, 64
1, 540935, Control_c, 0, 64, 96
1, 540939, Note_off_c, 0, 56, 62
1, 540943, Note_off_c, 0, 52, 63
1, 540947, Note_off_c, 0, 54, 64
1, 540949, Note_off_c, 0, 83, 66
1, 540950, Control_c, 0, 64, 97
1, 540965, Control_c, 0, 64, 96
1, 540980, Control_c, 0, 64, 90
1, 540995, Control_c, 0, 64, 77
1, 541009, Control_c, 0, 64, 65
1, 541024, Control_c, 0, 64, 49
1, 541039, Control_c, 0, 64, 34
1, 541054, Control_c, 0, 64, 27
1, 541068, Control_c, 0, 64, 26
1, 541083, Control_c, 0, 64, 23
1, 541098, Control_c, 0, 64, 14
1, 541113, Control_c, 0, 64, 0
1, 541247, Control_c, 0, 64, 45
1, 541248, Note_on_c, 0, 88, 93
1, 541251, Note_on_c, 0, 76, 72
1, 541253, Note_on_c, 0, 57, 71
1, 541253, Note_on_c, 0, 78, 80
1, 541255, Note_on_c, 0, 52, 67
1, 541261, Note_on_c, 0, 62, 65
1, 541262, Note_on_c, 0, 54, 55
1, 541262, Control_c, 0, 64, 67
1, 541277, Note_off_c, 0, 78, 67
1, 541277, Control_c, 0, 64, 83
1, 541278, Note_off_c, 0, 76, 66
1, 541280, Note_off_c, 0, 62, 67
1, 541283, Note_off_c, 0, 57, 65
1, 541292, Note_off_c, 0, 52, 65
1, 541292, Note_off_c, 0, 54, 66
1, 541292, Control_c, 0, 64, 109
1, 541306, Note_off_c, 0, 88, 67
1, 541307, Control_c, 0, 64, 127
1, 541351, Control_c, 0, 64, 106
1, 541366, Control_c, 0, 64, 81
1, 541381, Control_c, 0, 64, 65
1, 541396, Control_c, 0, 64, 48
1, 541411, Control_c, 0, 64, 24
1, 541426, Control_c, 0, 64, 0
1, 541573, Control_c, 0, 64, 31
1, 541586, Note_on_c, 0, 86, 95
1, 541588, Control_c, 0, 64, 54
1, 541591, Note_on_c, 0, 59, 79
1, 541593, Note_on_c, 0, 78, 92
1, 541598, Note_on_c, 0, 76, 83
1, 541599, Note_on_c, 0, 62, 76
1, 541599, Note_on_c, 0, 52, 67
1, 541602, Note_on_c, 0, 54, 69
1, 541602, Control_c, 0, 64, 54
1, 541611, Note_off_c, 0, 76, 71
1, 541617, Note_off_c, 0, 78, 67
1, 541617, Control_c, 0, 64, 40
1, 541623, Note_off_c, 0, 59, 68
1, 541624, Note_off_c, 0, 62, 68
1, 541640, Control_c, 0, 64, 0
1, 541641, Note_off_c, 0, 54, 67
1, 541645, Note_off_c, 0, 52, 64
1, 541654, Note_off_c, 0, 86, 66
1, 541916, Note_on_c, 0, 61, 76
1, 541921, Note_on_c, 0, 85, 90
1, 541926, Note_on_c, 0, 62, 62
1, 541927, Note_on_c, 0, 76, 79
1, 541931, Note_on_c, 0, 54, 55
1, 541933, Note_on_c, 0, 78, 71
1, 541935, Note_on_c, 0, 52, 55
1, 541948, Note_off_c, 0, 78, 67
1, 541954, Note_off_c, 0, 76, 65
1, 541955, Note_off_c, 0, 62, 58
1, 541957, Note_off_c, 0, 61, 60
1, 541960, Note_off_c, 0, 85, 66
1, 541965, Note_off_c, 0, 54, 65
1, 541966, Note_off_c, 0, 52, 56
1, 542103, Note_on_c, 0, 83, 94
1, 542105, Note_on_c, 0, 76, 86
1, 542106, Note_on_c, 0, 52, 60
1, 542107, Note_on_c, 0, 62, 85
1, 542108, Note_on_c, 0, 54, 65
1, 542112, Note_on_c, 0, 78, 74
1, 542126, Note_off_c, 0, 76, 70
1, 542129, Control_c, 0, 64, 52
1, 542130, Note_on_c, 0, 88, 54
1, 542133, Note_off_c, 0, 52, 66
1, 542135, Note_off_c, 0, 78, 67
1, 542141, Note_off_c, 0, 54, 67
1, 542142, Note_off_c, 0, 62, 66
1, 542144, Control_c, 0, 64, 71
1, 542147, Note_on_c, 0, 86, 47
1, 542151, Note_off_c, 0, 83, 68
1, 542159, Control_c, 0, 64, 85
1, 542166, Note_off_c, 0, 88, 68
1, 542170, Note_off_c, 0, 86, 56
1, 542174, Control_c, 0, 64, 112
1, 542189, Control_c, 0, 64, 127
1, 542228, Note_on_c, 0, 76, 2
1, 542263, Control_c, 0, 64, 106
1, 542268, Note_off_c, 0, 76, 32
1, 542278, Control_c, 0, 64, 85
1, 542293, Control_c, 0, 64, 71
1, 542307, Control_c, 0, 64, 61
1, 542322, Control_c, 0, 64, 53
1, 542337, Control_c, 0, 64, 51
1, 542352, Control_c, 0, 64, 50
1, 542366, Control_c, 0, 64, 47
1, 542388, Control_c, 0, 64, 38
1, 542403, Control_c, 0, 64, 16
1, 542418, Control_c, 0, 64, 0
1, 542460, Note_on_c, 0, 100, 92
1, 542466, Note_on_c, 0, 90, 88
1, 542466, Note_on_c, 0, 93, 82
1, 542470, Note_on_c, 0, 98, 79
1, 542472, Note_on_c, 0, 83, 102
1, 542477, Note_on_c, 0, 71, 74
1, 542497, Note_on_c, 0, 99, 45
1, 542498, Note_off_c, 0, 99, 127
1, 542504, Note_off_c, 0, 100, 66
1, 542506, Control_c, 0, 64, 49
1, 542508, Note_off_c, 0, 93, 64
1, 542511, Note_off_c, 0, 90, 66
1, 542513, Note_off_c, 0, 98, 61
1, 542516, Note_off_c, 0, 83, 67
1, 542521, Control_c, 0, 64, 77
1, 542532, Note_off_c, 0, 71, 65
1, 542536, Control_c, 0, 64, 109
1, 542551, Control_c, 0, 64, 127
1, 542812, Note_on_c, 0, 73, 102
1, 542818, Note_on_c, 0, 88, 80
1, 542820, Note_on_c, 0, 78, 93
1, 542823, Note_on_c, 0, 81, 74
1, 542824, Note_on_c, 0, 61, 82
1, 542829, Note_on_c, 0, 86, 76
1, 542846, Note_off_c, 0, 88, 67
1, 542855, Note_off_c, 0, 73, 67
1, 542859, Note_off_c, 0, 86, 65
1, 542861, Note_off_c, 0, 81, 57
1, 542872, Note_off_c, 0, 78, 61
1, 542887, Note_off_c, 0, 61, 63
1, 543166, Note_on_c, 0, 66, 94
1, 543167, Note_on_c, 0, 76, 78
1, 543168, Note_on_c, 0, 62, 101
1, 543170, Note_on_c, 0, 69, 73
1, 543173, Note_on_c, 0, 74, 74
1, 543179, Note_on_c, 0, 50, 80
1, 543193, Note_off_c, 0, 76, 66
1, 543206, Note_off_c, 0, 74, 64
1, 543207, Note_off_c, 0, 62, 67
1, 543213, Note_off_c, 0, 69, 59
1, 543220, Note_off_c, 0, 50, 65
1, 543230, Note_off_c, 0, 66, 63
1, 543326, Poly_aftertouch_c, 0, 76, 0
1, 543507, Control_c, 0, 64, 60
1, 543522, Control_c, 0, 64, 0
1, 543536, Note_on_c, 0, 40, 98
1, 543536, Note_on_c, 0, 54, 86
1, 543539, Note_on_c, 0, 64, 82
1, 543542, Note_on_c, 0, 28, 97
1, 543549, Note_on_c, 0, 62, 73
1, 543551, Note_on_c, 0, 57, 58
1, 543551, Control_c, 0, 64, 24
1, 543563, Note_off_c, 0, 54, 69
1, 543566, Control_c, 0, 64, 65
1, 543578, Note_off_c, 0, 57, 66
1, 543581, Control_c, 0, 64, 127
1, 543584, Note_off_c, 0, 28, 64
1, 543584, Note_off_c, 0, 62, 67
1, 543587, Note_off_c, 0, 64, 65
1, 543608, Note_off_c, 0, 40, 64
1, 543653, Poly_aftertouch_c, 0, 56, 0
1, 543895, Note_on_c, 0, 71, 79
1, 543895, Note_on_c, 0, 88, 98
1, 543945, Note_off_c, 0, 88, 66
1, 543951, Note_off_c, 0, 71, 61
1, 544037, Note_on_c, 0, 81, 75
1, 544055, Note_on_c, 0, 74, 73
1, 544070, Note_on_c, 0, 78, 54
1, 544077, Note_on_c, 0, 62, 63
1, 544088, Note_off_c, 0, 81, 64
1, 544093, Note_off_c, 0, 78, 61
1, 544115, Note_off_c, 0, 74, 65
1, 544136, Note_on_c, 0, 71, 71
1, 544145, Note_off_c, 0, 62, 63
1, 544157, Note_off_c, 0, 71, 69
1, 544230, Note_on_c, 0, 88, 88
1, 544231, Poly_aftertouch_c, 0, 72, 0
1, 544237, Note_on_c, 0, 73, 96
1, 544251, Note_on_c, 0, 61, 78
1, 544262, Note_on_c, 0, 86, 44
1, 544263, Note_off_c, 0, 86, 127
1, 544299, Poly_aftertouch_c, 0, 71, 0
1, 544320, Note_off_c, 0, 61, 58
1, 544328, Note_off_c, 0, 73, 62
1, 544353, Poly_aftertouch_c, 0, 78, 0
1, 544384, Note_on_c, 0, 82, 75
1, 544407, Note_off_c, 0, 82, 60
1, 544418, Note_on_c, 0, 78, 63
1, 544418, Note_on_c, 0, 81, 70
1, 544455, Note_off_c, 0, 81, 63
1, 544489, Note_on_c, 0, 74, 75
1, 544496, Note_off_c, 0, 78, 59
1, 544521, Note_off_c, 0, 88, 61
1, 544541, Note_off_c, 0, 74, 61
1, 544580, Note_on_c, 0, 71, 102
1, 544592, Note_on_c, 0, 88, 85
1, 544595, Note_on_c, 0, 59, 77
1, 544680, Note_off_c, 0, 59, 64
1, 544684, Note_off_c, 0, 71, 60
1, 544756, Note_on_c, 0, 83, 71
1, 544774, Note_on_c, 0, 80, 59
1, 544833, Note_off_c, 0, 80, 0
1, 544833, Note_off_c, 0, 83, 58
1, 544849, Note_on_c, 0, 73, 74
1, 544865, Poly_aftertouch_c, 0, 80, 0
1, 544876, Note_off_c, 0, 73, 69
1, 544885, Note_off_c, 0, 88, 67
1, 544931, Control_c, 0, 64, 124
1, 544946, Control_c, 0, 64, 72
1, 544946, Note_on_c, 0, 69, 98
1, 544952, Note_on_c, 0, 88, 90
1, 544957, Note_on_c, 0, 57, 81
1, 544961, Control_c, 0, 64, 58
1, 544975, Control_c, 0, 64, 56
1, 544990, Control_c, 0, 64, 66
1, 545005, Control_c, 0, 64, 85
1, 545019, Control_c, 0, 64, 127
1, 545039, Note_off_c, 0, 69, 64
1, 545085, Note_off_c, 0, 57, 62
1, 545130, Note_on_c, 0, 85, 65
1, 545134, Note_on_c, 0, 78, 62
1, 545167, Note_off_c, 0, 88, 67
1, 545191, Note_off_c, 0, 78, 49
1, 545195, Note_off_c, 0, 85, 63
1, 545207, Note_on_c, 0, 74, 70
1, 545264, Note_off_c, 0, 74, 58
1, 545291, Note_on_c, 0, 88, 83
1, 545296, Note_on_c, 0, 64, 92
1, 545304, Note_on_c, 0, 52, 81
1, 545338, Note_off_c, 0, 52, 65
1, 545349, Note_off_c, 0, 64, 65
1, 545420, Note_off_c, 0, 88, 62
1, 545471, Note_on_c, 0, 86, 57
1, 545477, Note_on_c, 0, 64, 84
1, 545489, Note_on_c, 0, 83, 44
1, 545495, Note_on_c, 0, 80, 46
1, 545519, Note_off_c, 0, 83, 57
1, 545523, Note_off_c, 0, 64, 66
1, 545525, Note_off_c, 0, 80, 54
1, 545542, Note_on_c, 0, 76, 73
1, 545586, Note_off_c, 0, 86, 54
1, 545605, Control_c, 0, 64, 99
1, 545617, Note_off_c, 0, 76, 56
1, 545620, Control_c, 0, 64, 71
1, 545635, Control_c, 0, 64, 60
1, 545650, Control_c, 0, 64, 64
1, 545652, Note_on_c, 0, 69, 94
1, 545659, Note_on_c, 0, 57, 81
1, 545665, Control_c, 0, 64, 75
1, 545665, Note_on_c, 0, 88, 75
1, 545680, Control_c, 0, 64, 116
1, 545695, Control_c, 0, 64, 127
1, 545699, Note_off_c, 0, 57, 61
1, 545713, Note_off_c, 0, 69, 66
1, 545746, Note_off_c, 0, 88, 66
1, 545826, Note_on_c, 0, 69, 88
1, 545838, Note_on_c, 0, 88, 72
1, 545865, Note_off_c, 0, 69, 65
1, 545916, Note_on_c, 0, 78, 60
1, 545916, Note_off_c, 0, 88, 58
1, 545946, Control_c, 0, 64, 118
1, 545961, Control_c, 0, 64, 76
1, 545970, Note_off_c, 0, 78, 50
1, 545975, Control_c, 0, 64, 62
1, 545986, Note_on_c, 0, 68, 93
1, 545990, Control_c, 0, 64, 60
1, 546007, Control_c, 0, 64, 68
1, 546008, Note_on_c, 0, 56, 65
1, 546008, Note_on_c, 0, 88, 65
1, 546016, Note_on_c, 0, 89, 49
1, 546021, Control_c, 0, 64, 90
1, 546034, Note_off_c, 0, 56, 63
1, 546035, Note_off_c, 0, 68, 65
1, 546036, Control_c, 0, 64, 127
1, 546038, Note_off_c, 0, 89, 59
1, 546144, Note_off_c, 0, 88, 61
1, 546164, Note_on_c, 0, 68, 87
1, 546174, Note_on_c, 0, 90, 75
1, 546198, Note_on_c, 0, 83, 19
1, 546207, Note_off_c, 0, 68, 64
1, 546238, Note_off_c, 0, 83, 38
1, 546244, Note_on_c, 0, 80, 70
1, 546281, Note_off_c, 0, 90, 63
1, 546296, Control_c, 0, 64, 115
1, 546311, Control_c, 0, 64, 74
1, 546326, Control_c, 0, 64, 60
1, 546335, Note_on_c, 0, 66, 96
1, 546339, Note_on_c, 0, 88, 83
1, 546341, Control_c, 0, 64, 54
1, 546355, Control_c, 0, 64, 65
1, 546358, Note_on_c, 0, 54, 71
1, 546370, Control_c, 0, 64, 88
1, 546385, Control_c, 0, 64, 127
1, 546386, Note_off_c, 0, 80, 28
1, 546395, Note_off_c, 0, 66, 62
1, 546398, Note_off_c, 0, 54, 62
1, 546509, Note_on_c, 0, 92, 82
1, 546510, Note_off_c, 0, 88, 59
1, 546519, Note_on_c, 0, 85, 72
1, 546596, Note_on_c, 0, 81, 70
1, 546613, Note_off_c, 0, 92, 66
1, 546633, Note_off_c, 0, 85, 61
1, 546652, Note_on_c, 0, 83, 22
1, 546660, Note_on_c, 0, 64, 85
1, 546667, Note_on_c, 0, 52, 82
1, 546669, Note_on_c, 0, 88, 85
1, 546693, Note_off_c, 0, 83, 54
1, 546696, Note_off_c, 0, 81, 51
1, 546697, Note_off_c, 0, 52, 65
1, 546703, Note_off_c, 0, 64, 66
1, 546774, Note_off_c, 0, 88, 65
1, 546831, Note_on_c, 0, 68, 77
1, 546836, Note_on_c, 0, 93, 78
1, 546841, Note_on_c, 0, 90, 78
1, 546845, Note_on_c, 0, 86, 63
1, 546851, Note_on_c, 0, 58, 55
1, 546863, Note_off_c, 0, 86, 64
1, 546864, Note_off_c, 0, 68, 63
1, 546882, Note_off_c, 0, 58, 60
1, 546927, Note_on_c, 0, 83, 73
1, 546944, Poly_aftertouch_c, 0, 57, 0
1, 546952, Note_off_c, 0, 90, 61
1, 546955, Note_off_c, 0, 83, 68
1, 546961, Note_off_c, 0, 93, 62
1, 546965, Poly_aftertouch_c, 0, 57, 0
1, 546971, Control_c, 0, 64, 84
1, 546985, Control_c, 0, 64, 62
1, 546999, Note_on_c, 0, 59, 88
1, 547000, Control_c, 0, 64, 49
1, 547006, Note_on_c, 0, 47, 90
1, 547015, Control_c, 0, 64, 55
1, 547023, Note_on_c, 0, 88, 81
1, 547030, Control_c, 0, 64, 71
1, 547031, Note_off_c, 0, 47, 71
1, 547037, Note_off_c, 0, 59, 67
1, 547045, Control_c, 0, 64, 127
1, 547114, Note_off_c, 0, 88, 65
1, 547171, Note_on_c, 0, 95, 81
1, 547175, Note_on_c, 0, 71, 92
1, 547179, Note_on_c, 0, 59, 86
1, 547183, Note_on_c, 0, 91, 67
1, 547205, Note_off_c, 0, 59, 70
1, 547206, Note_off_c, 0, 91, 63
1, 547208, Note_off_c, 0, 71, 64
1, 547252, Note_off_c, 0, 95, 61
1, 547257, Note_on_c, 0, 86, 84
1, 547282, Control_c, 0, 64, 88
1, 547296, Control_c, 0, 64, 61
1, 547302, Note_off_c, 0, 86, 66
1, 547311, Control_c, 0, 64, 30
1, 547326, Control_c, 0, 64, 0
1, 547341, Control_c, 0, 64, 26
1, 547346, Note_on_c, 0, 76, 103
1, 547356, Control_c, 0, 64, 61
1, 547357, Note_on_c, 0, 64, 93
1, 547365, Note_on_c, 0, 88, 86
1, 547370, Control_c, 0, 64, 89
1, 547385, Control_c, 0, 64, 127
1, 547389, Note_off_c, 0, 76, 67
1, 547409, Note_off_c, 0, 64, 64
1, 547456, Note_off_c, 0, 88, 61
1, 547512, Note_on_c, 0, 90, 85
1, 547514, Note_on_c, 0, 97, 78
1, 547527, Note_on_c, 0, 93, 65
1, 547559, Note_on_c, 0, 94, 38
1, 547591, Note_off_c, 0, 94, 33
1, 547596, Note_on_c, 0, 86, 88
1, 547623, Note_off_c, 0, 97, 64
1, 547642, Note_off_c, 0, 90, 65
1, 547644, Note_off_c, 0, 86, 66
1, 547659, Control_c, 0, 64, 67
1, 547666, Note_off_c, 0, 93, 37
1, 547674, Control_c, 0, 64, 50
1, 547688, Note_on_c, 0, 64, 99
1, 547689, Control_c, 0, 64, 54
1, 547693, Note_on_c, 0, 52, 98
1, 547694, Note_on_c, 0, 88, 94
1, 547704, Control_c, 0, 64, 71
1, 547719, Control_c, 0, 64, 127
1, 547724, Note_off_c, 0, 52, 65
1, 547727, Note_off_c, 0, 64, 68
1, 547789, Note_off_c, 0, 88, 67
1, 547854, Note_on_c, 0, 98, 93
1, 547864, Note_on_c, 0, 92, 79
1, 547864, Note_on_c, 0, 95, 75
1, 547894, Note_off_c, 0, 95, 66
1, 547919, Note_off_c, 0, 98, 65
1, 547927, Note_off_c, 0, 92, 60
1, 547934, Note_on_c, 0, 88, 85
1, 547974, Note_off_c, 0, 88, 69
1, 548000, Control_c, 0, 64, 75
1, 548015, Control_c, 0, 64, 61
1, 548029, Note_on_c, 0, 93, 28
1, 548030, Control_c, 0, 64, 64
1, 548032, Note_on_c, 0, 100, 95
1, 548035, Note_on_c, 0, 62, 86
1, 548035, Note_on_c, 0, 74, 99
1, 548042, Note_on_c, 0, 90, 106
1, 548044, Control_c, 0, 64, 101
1, 548046, Note_on_c, 0, 98, 83
1, 548059, Control_c, 0, 64, 127
1, 548061, Note_on_c, 0, 99, 70
1, 548068, Note_on_c, 0, 89, 60
1, 548069, Note_off_c, 0, 89, 127
1, 548071, Note_off_c, 0, 74, 64
1, 548077, Note_off_c, 0, 99, 67
1, 548082, Note_off_c, 0, 100, 68
1, 548086, Note_off_c, 0, 90, 64
1, 548086, Note_off_c, 0, 93, 66
1, 548091, Note_off_c, 0, 98, 63
1, 548095, Note_off_c, 0, 62, 67
1, 548341, Control_c, 0, 64, 95
1, 548356, Control_c, 0, 64, 57
1, 548378, Control_c, 0, 64, 0
1, 548421, Note_on_c, 0, 64, 80
1, 548422, Note_on_c, 0, 54, 91
1, 548424, Note_on_c, 0, 57, 80
1, 548429, Note_on_c, 0, 40, 99
1, 548429, Note_on_c, 0, 62, 83
1, 548433, Note_on_c, 0, 28, 96
1, 548452, Note_off_c, 0, 54, 66
1, 548453, Control_c, 0, 64, 53
1, 548462, Note_on_c, 0, 56, 38
1, 548465, Note_off_c, 0, 57, 63
1, 548468, Control_c, 0, 64, 104
1, 548471, Note_off_c, 0, 64, 66
1, 548473, Note_off_c, 0, 28, 64
1, 548480, Note_off_c, 0, 40, 63
1, 548481, Note_off_c, 0, 62, 65
1, 548482, Control_c, 0, 64, 127
1, 548497, Note_off_c, 0, 56, 34
1, 548674, Note_on_c, 0, 60, 14
1, 548722, Note_off_c, 0, 60, 37
1, 548772, Note_on_c, 0, 59, 90
1, 548783, Note_on_c, 0, 47, 72
1, 548812, Note_off_c, 0, 47, 67
1, 548816, Note_off_c, 0, 59, 67
1, 548825, Note_on_c, 0, 60, 28
1, 548859, Note_off_c, 0, 60, 45
1, 548935, Note_on_c, 0, 86, 73
1, 548936, Note_on_c, 0, 83, 76
1, 548938, Note_on_c, 0, 76, 75
1, 548939, Note_on_c, 0, 74, 84
1, 548941, Note_on_c, 0, 80, 64
1, 548951, Note_off_c, 0, 83, 69
1, 548956, Note_off_c, 0, 76, 67
1, 548958, Note_on_c, 0, 62, 78
1, 548958, Note_off_c, 0, 86, 67
1, 548959, Note_off_c, 0, 80, 65
1, 548963, Note_off_c, 0, 74, 70
1, 548981, Note_off_c, 0, 62, 69
1, 549010, Note_on_c, 0, 76, 80
1, 549021, Note_on_c, 0, 80, 79
1, 549022, Note_on_c, 0, 83, 58
1, 549032, Poly_aftertouch_c, 0, 86, 127
1, 549037, Note_off_c, 0, 76, 64
1, 549040, Note_off_c, 0, 83, 65
1, 549051, Note_off_c, 0, 80, 62
1, 549054, Poly_aftertouch_c, 0, 86, 0
1, 549075, Control_c, 0, 64, 87
1, 549090, Control_c, 0, 64, 58
1, 549100, Note_on_c, 0, 61, 94
1, 549102, Poly_aftertouch_c, 0, 62, 0
1, 549105, Control_c, 0, 64, 50
1, 549111, Note_on_c, 0, 49, 89
1, 549127, Control_c, 0, 64, 64
1, 549142, Control_c, 0, 64, 92
1, 549152, Note_off_c, 0, 49, 62
1, 549154, Note_off_c, 0, 61, 64
1, 549156, Control_c, 0, 64, 127
1, 549287, Note_on_c, 0, 81, 81
1, 549291, Note_on_c, 0, 78, 72
1, 549294, Note_on_c, 0, 88, 69
1, 549296, Note_on_c, 0, 76, 80
1, 549300, Note_on_c, 0, 85, 62
1, 549311, Note_off_c, 0, 76, 71
1, 549314, Note_off_c, 0, 88, 68
1, 549316, Note_off_c, 0, 78, 67
1, 549319, Note_off_c, 0, 85, 65
1, 549320, Note_off_c, 0, 81, 61
1, 549364, Note_on_c, 0, 78, 86
1, 549365, Note_on_c, 0, 76, 82
1, 549365, Note_on_c, 0, 88, 90
1, 549371, Note_on_c, 0, 81, 61
1, 549379, Note_on_c, 0, 85, 88
1, 549389, Note_off_c, 0, 76, 63
1, 549397, Note_off_c, 0, 81, 66
1, 549409, Control_c, 0, 64, 109
1, 549412, Note_off_c, 0, 78, 63
1, 549424, Note_off_c, 0, 88, 66
1, 549424, Control_c, 0, 64, 66
1, 549435, Note_off_c, 0, 85, 64
1, 549439, Control_c, 0, 64, 43
1, 549448, Note_on_c, 0, 71, 102
1, 549454, Control_c, 0, 64, 46
1, 549457, Note_on_c, 0, 59, 99
1, 549468, Control_c, 0, 64, 68
1, 549483, Control_c, 0, 64, 127
1, 549508, Note_off_c, 0, 71, 62
1, 549553, Note_off_c, 0, 59, 66
1, 549596, Poly_aftertouch_c, 0, 80, 0
1, 549612, Note_on_c, 0, 80, 48
1, 549623, Note_on_c, 0, 90, 80
1, 549627, Note_on_c, 0, 86, 73
1, 549634, Note_on_c, 0, 78, 61
1, 549637, Note_on_c, 0, 83, 52
1, 549647, Note_off_c, 0, 90, 66
1, 549650, Note_off_c, 0, 80, 63
1, 549653, Note_off_c, 0, 86, 68
1, 549653, Note_off_c, 0, 78, 64
1, 549658, Note_off_c, 0, 83, 62
1, 549691, Note_on_c, 0, 90, 90
1, 549701, Note_on_c, 0, 78, 79
1, 549705, Note_on_c, 0, 80, 67
1, 549708, Note_on_c, 0, 86, 77
1, 549734, Note_off_c, 0, 80, 63
1, 549735, Note_off_c, 0, 78, 57
1, 549748, Note_off_c, 0, 86, 58
1, 549764, Control_c, 0, 64, 67
1, 549779, Control_c, 0, 64, 35
1, 549785, Note_off_c, 0, 90, 66
1, 549787, Note_on_c, 0, 57, 98
1, 549794, Control_c, 0, 64, 0
1, 549796, Note_on_c, 0, 45, 88
1, 549809, Control_c, 0, 64, 20
1, 549823, Control_c, 0, 64, 61
1, 549831, Note_off_c, 0, 45, 65
1, 549838, Control_c, 0, 64, 92
1, 549854, Control_c, 0, 64, 127
1, 549875, Note_off_c, 0, 57, 46
1, 549963, Note_on_c, 0, 92, 90
1, 549964, Note_on_c, 0, 81, 87
1, 549975, Note_on_c, 0, 88, 69
1, 549975, Note_on_c, 0, 85, 68
1, 549980, Note_on_c, 0, 80, 63
1, 549998, Note_off_c, 0, 92, 62
1, 550000, Note_off_c, 0, 88, 69
1, 550001, Note_off_c, 0, 80, 63
1, 550004, Note_off_c, 0, 85, 67
1, 550005, Note_off_c, 0, 81, 61
1, 550038, Note_on_c, 0, 92, 94
1, 550047, Note_on_c, 0, 81, 62
1, 550050, Note_on_c, 0, 80, 76
1, 550054, Note_on_c, 0, 88, 70
1, 550059, Note_on_c, 0, 85, 72
1, 550068, Note_on_c, 0, 82, 44
1, 550075, Note_off_c, 0, 81, 65
1, 550086, Note_off_c, 0, 85, 67
1, 550086, Note_off_c, 0, 88, 66
1, 550088, Note_off_c, 0, 80, 43
1, 550094, Note_off_c, 0, 82, 52
1, 550124, Note_on_c, 0, 68, 89
1, 550135, Note_on_c, 0, 56, 85
1, 550141, Note_off_c, 0, 92, 60
1, 550151, Note_on_c, 0, 66, 61
1, 550157, Note_off_c, 0, 68, 63
1, 550172, Note_off_c, 0, 66, 64
1, 550183, Note_off_c, 0, 56, 62
1, 550288, Note_on_c, 0, 85, 81
1, 550291, Note_on_c, 0, 54, 86
1, 550291, Note_on_c, 0, 81, 76
1, 550292, Note_on_c, 0, 93, 74
1, 550294, Note_on_c, 0, 42, 81
1, 550299, Note_on_c, 0, 88, 60
1, 550300, Note_on_c, 0, 83, 62
1, 550306, Note_off_c, 0, 81, 71
1, 550312, Note_off_c, 0, 85, 66
1, 550313, Note_off_c, 0, 54, 69
1, 550314, Note_on_c, 0, 90, 27
1, 550315, Note_off_c, 0, 90, 127
1, 550315, Note_off_c, 0, 88, 67
1, 550315, Note_off_c, 0, 93, 69
1, 550317, Note_off_c, 0, 83, 66
1, 550321, Note_off_c, 0, 42, 66
1, 550336, Control_c, 0, 64, 104
1, 550351, Control_c, 0, 64, 59
1, 550357, Note_on_c, 0, 93, 92
1, 550360, Note_on_c, 0, 85, 79
1, 550366, Control_c, 0, 64, 0
1, 550373, Note_on_c, 0, 81, 55
1, 550383, Note_on_c, 0, 88, 55
1, 550395, Note_off_c, 0, 81, 59
1, 550398, Note_off_c, 0, 85, 53
1, 550402, Note_off_c, 0, 88, 64
1, 550410, Note_off_c, 0, 93, 65
1, 550427, Note_on_c, 0, 83, 2
1, 550450, Note_off_c, 0, 83, 31
1, 550465, Note_on_c, 0, 71, 102
1, 550473, Note_on_c, 0, 59, 94
1, 550485, Control_c, 0, 64, 58
1, 550500, Control_c, 0, 64, 80
1, 550508, Note_on_c, 0, 83, 17
1, 550514, Control_c, 0, 64, 107
1, 550520, Note_off_c, 0, 71, 64
1, 550529, Control_c, 0, 64, 127
1, 550536, Note_on_c, 0, 85, 4
1, 550542, Note_on_c, 0, 95, 19
1, 550545, Note_off_c, 0, 59, 65
1, 550547, Note_off_c, 0, 83, 42
1, 550577, Note_off_c, 0, 95, 42
1, 550578, Note_off_c, 0, 85, 39
1, 550644, Note_on_c, 0, 83, 87
1, 550645, Note_on_c, 0, 88, 83
1, 550652, Note_on_c, 0, 85, 78
1, 550652, Note_on_c, 0, 95, 81
1, 550664, Note_on_c, 0, 92, 54
1, 550667, Note_off_c, 0, 83, 69
1, 550676, Note_off_c, 0, 85, 69
1, 550676, Note_off_c, 0, 95, 67
1, 550681, Note_off_c, 0, 88, 64
1, 550685, Note_off_c, 0, 92, 61
1, 550717, Note_on_c, 0, 83, 78
1, 550719, Note_on_c, 0, 85, 81
1, 550731, Note_on_c, 0, 88, 60
1, 550733, Note_on_c, 0, 92, 93
1, 550742, Poly_aftertouch_c, 0, 95, 127
1, 550746, Note_off_c, 0, 83, 65
1, 550752, Note_off_c, 0, 88, 63
1, 550770, Poly_aftertouch_c, 0, 95, 0
1, 550773, Note_off_c, 0, 85, 62
1, 550800, Note_off_c, 0, 92, 65
1, 550819, Control_c, 0, 64, 70
1, 550827, Note_on_c, 0, 64, 101
1, 550834, Control_c, 0, 64, 38
1, 550836, Note_on_c, 0, 52, 92
1, 550849, Control_c, 0, 64, 0
1, 550864, Control_c, 0, 64, 37
1, 550878, Control_c, 0, 64, 76
1, 550882, Note_off_c, 0, 52, 65
1, 550893, Control_c, 0, 64, 127
1, 550896, Note_on_c, 0, 92, 40
1, 550896, Note_off_c, 0, 64, 60
1, 550934, Note_off_c, 0, 92, 51
1, 551004, Note_on_c, 0, 97, 85
1, 551006, Note_on_c, 0, 86, 83
1, 551013, Note_on_c, 0, 85, 77
1, 551013, Note_on_c, 0, 90, 71
1, 551024, Note_off_c, 0, 97, 67
1, 551027, Note_off_c, 0, 85, 70
1, 551028, Note_on_c, 0, 93, 46
1, 551033, Note_off_c, 0, 86, 64
1, 551036, Note_off_c, 0, 90, 69
1, 551039, Note_on_c, 0, 87, 26
1, 551053, Note_off_c, 0, 93, 55
1, 551072, Note_on_c, 0, 97, 102
1, 551084, Note_on_c, 0, 85, 82
1, 551090, Note_off_c, 0, 87, 0
1, 551090, Note_on_c, 0, 87, 34
1, 551106, Note_on_c, 0, 86, 38
1, 551126, Note_on_c, 0, 93, 40
1, 551126, Note_off_c, 0, 87, 55
1, 551141, Note_off_c, 0, 86, 56
1, 551153, Note_off_c, 0, 93, 50
1, 551155, Note_off_c, 0, 85, 58
1, 551168, Note_on_c, 0, 76, 104
1, 551171, Note_off_c, 0, 97, 62
1, 551180, Note_on_c, 0, 64, 91
1, 551218, Note_off_c, 0, 76, 66
1, 551266, Note_off_c, 0, 64, 65
1, 551269, Poly_aftertouch_c, 0, 88, 127
1, 551293, Poly_aftertouch_c, 0, 88, 0
1, 551346, Note_on_c, 0, 98, 94
1, 551349, Note_on_c, 0, 88, 81
1, 551349, Note_on_c, 0, 92, 79
1, 551351, Note_on_c, 0, 95, 79
1, 551370, Note_on_c, 0, 86, 75
1, 551373, Note_off_c, 0, 95, 69
1, 551376, Note_off_c, 0, 92, 71
1, 551381, Note_off_c, 0, 88, 70
1, 551382, Note_off_c, 0, 98, 59
1, 551386, Note_off_c, 0, 86, 68
1, 551424, Note_on_c, 0, 92, 85
1, 551425, Note_on_c, 0, 98, 91
1, 551433, Note_on_c, 0, 95, 80
1, 551434, Note_on_c, 0, 88, 68
1, 551440, Note_on_c, 0, 86, 83
1, 551451, Poly_aftertouch_c, 0, 96, 0
1, 551459, Note_off_c, 0, 95, 66
1, 551470, Note_off_c, 0, 86, 55
1, 551476, Note_off_c, 0, 88, 58
1, 551477, Control_c, 0, 64, 73
1, 551492, Control_c, 0, 64, 58
1, 551505, Note_off_c, 0, 98, 60
1, 551507, Control_c, 0, 64, 56
1, 551508, Note_off_c, 0, 92, 66
1, 551517, Note_on_c, 0, 64, 94
1, 551522, Control_c, 0, 64, 67
1, 551526, Note_on_c, 0, 52, 95
1, 551536, Control_c, 0, 64, 90
1, 551549, Note_off_c, 0, 52, 70
1, 551551, Control_c, 0, 64, 127
1, 551558, Note_off_c, 0, 64, 68
1, 551591, Note_on_c, 0, 90, 23
1, 551632, Poly_aftertouch_c, 0, 88, 0
1, 551634, Note_off_c, 0, 90, 39
1, 551684, Note_on_c, 0, 88, 89
1, 551684, Note_on_c, 0, 100, 92
1, 551687, Note_on_c, 0, 90, 85
1, 551687, Note_on_c, 0, 94, 80
1, 551697, Note_off_c, 0, 88, 73
1, 551701, Note_off_c, 0, 94, 67
1, 551706, Note_off_c, 0, 90, 71
1, 551713, Note_off_c, 0, 100, 59
1, 551755, Note_on_c, 0, 100, 100
1, 551756, Note_on_c, 0, 88, 78
1, 551790, Note_on_c, 0, 89, 41
1, 551791, Note_off_c, 0, 89, 127
1, 551801, Note_off_c, 0, 88, 67
1, 551817, Note_off_c, 0, 100, 67
1, 551848, Note_on_c, 0, 76, 102
1, 551860, Note_on_c, 0, 64, 96
1, 551882, Note_off_c, 0, 76, 67
1, 551903, Note_off_c, 0, 64, 67
1, 552012, Note_on_c, 0, 90, 88
1, 552014, Note_on_c, 0, 102, 94
1, 552031, Note_off_c, 0, 90, 71
1, 552033, Note_off_c, 0, 102, 70
1, 552085, Note_on_c, 0, 102, 87
1, 552090, Note_on_c, 0, 90, 79
1, 552128, Note_off_c, 0, 90, 63
1, 552145, Note_off_c, 0, 102, 64
1, 552150, Note_on_c, 0, 96, 12
1, 552166, Control_c, 0, 64, 64
1, 552172, Note_off_c, 0, 96, 0
1, 552181, Control_c, 0, 64, 0
1, 552187, Note_on_c, 0, 96, 40
1, 552191, Note_on_c, 0, 103, 102
1, 552196, Note_on_c, 0, 91, 90
1, 552197, Note_on_c, 0, 43, 93
1, 552198, Note_on_c, 0, 100, 87
1, 552199, Note_on_c, 0, 31, 82
1, 552237, Note_off_c, 0, 31, 66
1, 552238, Note_off_c, 0, 91, 66
1, 552251, Note_off_c, 0, 43, 66
1, 552253, Note_off_c, 0, 96, 65
1, 552256, Control_c, 0, 64, 57
1, 552259, Note_off_c, 0, 103, 68
1, 552266, Note_off_c, 0, 100, 68
1, 552271, Control_c, 0, 64, 86
1, 552285, Control_c, 0, 64, 127
1, 552409, Note_on_c, 0, 55, 75
1, 552411, Note_on_c, 0, 50, 70
1, 552431, Note_on_c, 0, 47, 58
1, 552496, Note_off_c, 0, 50, 64
1, 552504, Note_off_c, 0, 47, 59
1, 552522, Note_off_c, 0, 55, 61
1, 552739, Note_on_c, 0, 76, 90
1, 552745, Control_c, 0, 64, 93
1, 552748, Note_on_c, 0, 57, 67
1, 552760, Control_c, 0, 64, 73
1, 552762, Note_on_c, 0, 48, 47
1, 552765, Note_on_c, 0, 52, 55
1, 552775, Control_c, 0, 64, 69
1, 552789, Control_c, 0, 64, 77
1, 552804, Control_c, 0, 64, 111
1, 552819, Control_c, 0, 64, 127
1, 552895, Note_off_c, 0, 57, 57
1, 552908, Note_off_c, 0, 52, 59
1, 552929, Note_on_c, 0, 77, 83
1, 552930, Control_c, 0, 64, 82
1, 552938, Note_on_c, 0, 65, 75
1, 552944, Note_off_c, 0, 48, 38
1, 552945, Control_c, 0, 64, 61
1, 552952, Note_off_c, 0, 76, 61
1, 552960, Control_c, 0, 64, 33
1, 552975, Control_c, 0, 64, 0
1, 553063, Control_c, 0, 64, 22
1, 553078, Control_c, 0, 64, 60
1, 553093, Control_c, 0, 64, 75
1, 553098, Note_on_c, 0, 59, 65
1, 553102, Note_on_c, 0, 50, 61
1, 553108, Note_on_c, 0, 53, 56
1, 553108, Control_c, 0, 64, 91
1, 553123, Control_c, 0, 64, 127
1, 553150, Note_off_c, 0, 50, 63
1, 553150, Note_off_c, 0, 59, 65
1, 553153, Note_off_c, 0, 53, 63
1, 553176, Note_off_c, 0, 77, 63
1, 553179, Note_off_c, 0, 65, 62
1, 553272, Note_on_c, 0, 76, 83
1, 553281, Note_on_c, 0, 64, 73
1, 553356, Note_off_c, 0, 64, 62
1, 553429, Note_on_c, 0, 74, 81
1, 553439, Note_on_c, 0, 50, 64
1, 553442, Note_on_c, 0, 59, 59
1, 553444, Note_on_c, 0, 62, 73
1, 553447, Note_on_c, 0, 53, 59
1, 553459, Note_off_c, 0, 59, 67
1, 553464, Note_off_c, 0, 76, 63
1, 553468, Note_off_c, 0, 50, 66
1, 553477, Note_off_c, 0, 53, 64
1, 553483, Note_off_c, 0, 62, 62
1, 553542, Note_off_c, 0, 74, 63
1, 553589, Note_on_c, 0, 72, 84
1, 553597, Control_c, 0, 64, 69
1, 553619, Control_c, 0, 64, 33
1, 553634, Control_c, 0, 64, 0
1, 553683, Note_on_c, 0, 65, 78
1, 553689, Note_on_c, 0, 60, 54
1, 553693, Control_c, 0, 64, 55
1, 553697, Note_on_c, 0, 57, 61
1, 553706, Note_off_c, 0, 65, 68
1, 553708, Control_c, 0, 64, 77
1, 553711, Note_off_c, 0, 60, 58
1, 553719, Note_off_c, 0, 57, 61
1, 553723, Control_c, 0, 64, 84
1, 553737, Control_c, 0, 64, 77
1, 553752, Control_c, 0, 64, 52
1, 553767, Control_c, 0, 64, 0
1, 553779, Note_on_c, 0, 64, 58
1, 553786, Note_on_c, 0, 55, 51
1, 553788, Note_on_c, 0, 59, 47
1, 553797, Control_c, 0, 64, 25
1, 553800, Note_off_c, 0, 64, 62
1, 553812, Note_off_c, 0, 55, 57
1, 553812, Control_c, 0, 64, 62
1, 553816, Note_off_c, 0, 59, 34
1, 553827, Control_c, 0, 64, 81
1, 553829, Note_on_c, 0, 62, 83
1, 553835, Note_on_c, 0, 57, 63
1, 553837, Note_on_c, 0, 53, 75
1, 553841, Control_c, 0, 64, 83
1, 553855, Note_off_c, 0, 62, 69
1, 553856, Control_c, 0, 64, 83
1, 553860, Note_off_c, 0, 57, 66
1, 553865, Note_off_c, 0, 53, 65
1, 553913, Note_on_c, 0, 60, 96
1, 553915, Note_on_c, 0, 52, 86
1, 553916, Note_on_c, 0, 55, 75
1, 553943, Note_off_c, 0, 60, 61
1, 553944, Note_off_c, 0, 55, 67
1, 553945, Note_off_c, 0, 52, 65
1, 553945, Control_c, 0, 64, 83
1, 553960, Control_c, 0, 64, 77
1, 553975, Control_c, 0, 64, 67
1, 553990, Control_c, 0, 64, 49
1, 554005, Control_c, 0, 64, 0
1, 554094, Control_c, 0, 64, 23
1, 554109, Control_c, 0, 64, 50
1, 554110, Note_on_c, 0, 55, 73
1, 554111, Note_on_c, 0, 52, 71
1, 554116, Note_on_c, 0, 59, 63
1, 554124, Control_c, 0, 64, 68
1, 554125, Note_on_c, 0, 60, 47
1, 554134, Note_off_c, 0, 55, 67
1, 554134, Note_off_c, 0, 59, 65
1, 554139, Control_c, 0, 64, 82
1, 554140, Note_off_c, 0, 52, 66
1, 554153, Note_off_c, 0, 60, 35
1, 554154, Control_c, 0, 64, 99
1, 554168, Control_c, 0, 64, 127
1, 554292, Note_on_c, 0, 79, 90
1, 554316, Control_c, 0, 64, 108
1, 554318, Note_on_c, 0, 67, 56
1, 554331, Control_c, 0, 64, 75
1, 554342, Note_off_c, 0, 72, 61
1, 554346, Control_c, 0, 64, 57
1, 554368, Control_c, 0, 64, 24
1, 554383, Control_c, 0, 64, 0
1, 554412, Control_c, 0, 64, 36
1, 554427, Control_c, 0, 64, 58
1, 554442, Control_c, 0, 64, 74
1, 554457, Control_c, 0, 64, 93
1, 554458, Note_on_c, 0, 55, 67
1, 554458, Note_on_c, 0, 62, 73
1, 554464, Note_on_c, 0, 59, 64
1, 554472, Control_c, 0, 64, 127
1, 554496, Note_off_c, 0, 59, 65
1, 554497, Note_off_c, 0, 62, 63
1, 554500, Note_off_c, 0, 55, 59
1, 554573, Note_off_c, 0, 79, 65
1, 554577, Note_off_c, 0, 67, 62
1, 554628, Note_on_c, 0, 79, 93
1, 554653, Note_on_c, 0, 67, 68
1, 554664, Control_c, 0, 64, 77
1, 554679, Control_c, 0, 64, 62
1, 554694, Control_c, 0, 64, 51
1, 554709, Control_c, 0, 64, 56
1, 554724, Control_c, 0, 64, 68
1, 554739, Control_c, 0, 64, 87
1, 554754, Control_c, 0, 64, 127
1, 554801, Note_on_c, 0, 76, 92
1, 554802, Note_on_c, 0, 57, 61
1, 554809, Note_on_c, 0, 64, 59
1, 554810, Note_on_c, 0, 60, 62
1, 554823, Note_off_c, 0, 67, 62
1, 554837, Note_off_c, 0, 60, 64
1, 554841, Note_off_c, 0, 57, 58
1, 554842, Note_off_c, 0, 64, 66
1, 554888, Note_off_c, 0, 79, 61
1, 555005, Note_on_c, 0, 81, 88
1, 555006, Control_c, 0, 64, 87
1, 555013, Note_off_c, 0, 76, 63
1, 555021, Control_c, 0, 64, 64
1, 555035, Control_c, 0, 64, 42
1, 555036, Note_on_c, 0, 69, 56
1, 555050, Control_c, 0, 64, 12
1, 555065, Control_c, 0, 64, 0
1, 555080, Control_c, 0, 64, 29
1, 555095, Control_c, 0, 64, 56
1, 555117, Control_c, 0, 64, 73
1, 555132, Control_c, 0, 64, 99
1, 555147, Control_c, 0, 64, 127
1, 555174, Note_on_c, 0, 65, 64
1, 555179, Note_on_c, 0, 59, 52
1, 555179, Note_on_c, 0, 62, 61
1, 555217, Note_off_c, 0, 59, 63
1, 555219, Note_off_c, 0, 65, 62
1, 555220, Note_off_c, 0, 62, 65
1, 555264, Note_off_c, 0, 69, 60
1, 555268, Note_off_c, 0, 81, 64
1, 555344, Note_on_c, 0, 81, 98
1, 555364, Note_on_c, 0, 69, 77
1, 555399, Note_off_c, 0, 69, 54
1, 555466, Poly_aftertouch_c, 0, 69, 127
1, 555501, Note_on_c, 0, 65, 72
1, 555508, Note_on_c, 0, 59, 69
1, 555512, Note_on_c, 0, 62, 63
1, 555528, Note_off_c, 0, 65, 66
1, 555540, Note_off_c, 0, 62, 67
1, 555547, Note_off_c, 0, 59, 66
1, 555601, Poly_aftertouch_c, 0, 69, 0
1, 555677, Note_on_c, 0, 79, 96
1, 555681, Control_c, 0, 64, 122
1, 555696, Control_c, 0, 64, 66
1, 555696, Note_on_c, 0, 67, 71
1, 555710, Control_c, 0, 64, 36
1, 555711, Note_off_c, 0, 81, 61
1, 555725, Control_c, 0, 64, 0
1, 555735, Note_on_c, 0, 69, 23
1, 555755, Control_c, 0, 64, 13
1, 555761, Note_on_c, 0, 50, 74
1, 555764, Note_on_c, 0, 47, 71
1, 555770, Note_on_c, 0, 43, 63
1, 555770, Control_c, 0, 64, 50
1, 555776, Note_off_c, 0, 69, 30
1, 555782, Note_off_c, 0, 50, 67
1, 555784, Note_off_c, 0, 47, 65
1, 555785, Control_c, 0, 64, 68
1, 555797, Note_off_c, 0, 43, 59
1, 555800, Control_c, 0, 64, 87
1, 555814, Control_c, 0, 64, 127
1, 555847, Note_on_c, 0, 47, 70
1, 555849, Note_on_c, 0, 52, 71
1, 555868, Note_on_c, 0, 50, 52
1, 555868, Note_on_c, 0, 45, 54
1, 555868, Note_on_c, 0, 48, 55
1, 555873, Note_off_c, 0, 47, 67
1, 555876, Note_off_c, 0, 52, 65
1, 555892, Note_off_c, 0, 48, 58
1, 555895, Note_off_c, 0, 45, 57
1, 555902, Note_off_c, 0, 50, 51
1, 555924, Note_on_c, 0, 50, 81
1, 555926, Note_on_c, 0, 47, 85
1, 555931, Note_on_c, 0, 53, 78
1, 555944, Note_off_c, 0, 79, 62
1, 555958, Note_off_c, 0, 53, 66
1, 555961, Note_off_c, 0, 50, 67
1, 555965, Note_off_c, 0, 47, 67
1, 555982, Note_off_c, 0, 67, 38
1, 555998, Note_on_c, 0, 52, 88
1, 556000, Control_c, 0, 64, 79
1, 556003, Note_on_c, 0, 79, 90
1, 556004, Note_on_c, 0, 55, 90
1, 556013, Note_on_c, 0, 47, 73
1, 556014, Control_c, 0, 64, 61
1, 556015, Note_on_c, 0, 48, 63
1, 556029, Control_c, 0, 64, 36
1, 556030, Note_on_c, 0, 53, 42
1, 556031, Note_off_c, 0, 53, 127
1, 556036, Note_off_c, 0, 47, 68
1, 556038, Note_on_c, 0, 67, 18
1, 556044, Control_c, 0, 64, 0
1, 556045, Note_off_c, 0, 55, 62
1, 556051, Note_off_c, 0, 48, 63
1, 556054, Note_off_c, 0, 52, 64
1, 556065, Note_off_c, 0, 67, 45
1, 556147, Control_c, 0, 64, 9
1, 556159, Note_on_c, 0, 52, 83
1, 556162, Control_c, 0, 64, 55
1, 556171, Note_on_c, 0, 76, 91
1, 556176, Note_on_c, 0, 55, 54
1, 556177, Control_c, 0, 64, 70
1, 556180, Note_off_c, 0, 52, 68
1, 556190, Note_off_c, 0, 79, 64
1, 556191, Control_c, 0, 64, 83
1, 556193, Note_on_c, 0, 50, 42
1, 556202, Note_off_c, 0, 55, 59
1, 556206, Control_c, 0, 64, 106
1, 556221, Control_c, 0, 64, 127
1, 556225, Note_off_c, 0, 50, 55
1, 556246, Note_off_c, 0, 76, 64
1, 556255, Poly_aftertouch_c, 0, 48, 0
1, 556325, Poly_aftertouch_c, 0, 52, 0
1, 556348, Note_on_c, 0, 74, 91
1, 556372, Note_on_c, 0, 62, 65
1, 556400, Control_c, 0, 64, 76
1, 556405, Note_off_c, 0, 62, 66
1, 556415, Control_c, 0, 64, 59
1, 556429, Control_c, 0, 64, 34
1, 556444, Control_c, 0, 64, 0
1, 556488, Control_c, 0, 64, 20
1, 556503, Control_c, 0, 64, 50
1, 556509, Note_on_c, 0, 69, 75
1, 556512, Note_on_c, 0, 65, 73
1, 556514, Note_on_c, 0, 62, 66
1, 556518, Control_c, 0, 64, 68
1, 556533, Note_off_c, 0, 69, 68
1, 556533, Control_c, 0, 64, 89
1, 556545, Note_off_c, 0, 65, 63
1, 556548, Control_c, 0, 64, 127
1, 556554, Note_off_c, 0, 62, 64
1, 556626, Note_off_c, 0, 74, 63
1, 556683, Poly_aftertouch_c, 0, 69, 0
1, 556688, Control_c, 0, 64, 122
1, 556694, Note_on_c, 0, 74, 87
1, 556703, Control_c, 0, 64, 85
1, 556718, Control_c, 0, 64, 79
1, 556748, Control_c, 0, 64, 86
1, 556763, Control_c, 0, 64, 108
1, 556778, Control_c, 0, 64, 127
1, 556790, Poly_aftertouch_c, 0, 62, 127
1, 556810, Poly_aftertouch_c, 0, 62, 0
1, 556853, Note_on_c, 0, 60, 71
1, 556854, Note_on_c, 0, 64, 70
1, 556856, Note_on_c, 0, 76, 89
1, 556858, Note_on_c, 0, 67, 61
1, 556877, Note_off_c, 0, 67, 63
1, 556902, Note_off_c, 0, 74, 63
1, 556905, Note_off_c, 0, 60, 61
1, 556921, Note_off_c, 0, 64, 60
1, 556946, Note_off_c, 0, 76, 63
1, 557014, Control_c, 0, 64, 88
1, 557029, Control_c, 0, 64, 64
1, 557037, Note_on_c, 0, 74, 88
1, 557044, Control_c, 0, 64, 42
1, 557057, Note_on_c, 0, 62, 70
1, 557059, Control_c, 0, 64, 0
1, 557088, Control_c, 0, 64, 32
1, 557103, Control_c, 0, 64, 57
1, 557118, Control_c, 0, 64, 72
1, 557133, Control_c, 0, 64, 88
1, 557148, Control_c, 0, 64, 127
1, 557192, Note_on_c, 0, 65, 82
1, 557207, Note_on_c, 0, 59, 68
1, 557220, Note_off_c, 0, 65, 64
1, 557266, Note_off_c, 0, 59, 65
1, 557282, Note_off_c, 0, 74, 64
1, 557285, Note_off_c, 0, 62, 63
1, 557368, Note_on_c, 0, 72, 88
1, 557384, Note_on_c, 0, 60, 73
1, 557460, Note_off_c, 0, 60, 59
1, 557523, Note_on_c, 0, 62, 65
1, 557533, Note_on_c, 0, 59, 79
1, 557534, Note_on_c, 0, 71, 83
1, 557546, Note_off_c, 0, 62, 62
1, 557562, Note_off_c, 0, 72, 63
1, 557612, Note_off_c, 0, 59, 64
1, 557620, Note_off_c, 0, 71, 62
1, 557690, Control_c, 0, 64, 78
1, 557694, Note_on_c, 0, 69, 91
1, 557705, Control_c, 0, 64, 48
1, 557714, Note_on_c, 0, 57, 66
1, 557720, Control_c, 0, 64, 0
1, 557746, Note_off_c, 0, 57, 63
1, 557764, Control_c, 0, 64, 14
1, 557779, Control_c, 0, 64, 50
1, 557790, Note_on_c, 0, 55, 71
1, 557794, Note_on_c, 0, 47, 84
1, 557794, Control_c, 0, 64, 68
1, 557798, Note_on_c, 0, 52, 63
1, 557800, Note_on_c, 0, 57, 71
1, 557809, Control_c, 0, 64, 84
1, 557815, Note_off_c, 0, 55, 67
1, 557816, Note_off_c, 0, 47, 69
1, 557820, Note_off_c, 0, 57, 66
1, 557821, Note_off_c, 0, 52, 61
1, 557824, Control_c, 0, 64, 122
1, 557838, Control_c, 0, 64, 127
1, 557873, Note_on_c, 0, 45, 89
1, 557874, Note_on_c, 0, 53, 81
1, 557878, Note_on_c, 0, 50, 79
1, 557897, Note_off_c, 0, 45, 67
1, 557899, Note_on_c, 0, 52, 51
1, 557899, Note_off_c, 0, 53, 67
1, 557904, Note_off_c, 0, 50, 67
1, 557922, Note_off_c, 0, 52, 64
1, 557947, Note_on_c, 0, 52, 90
1, 557950, Note_on_c, 0, 48, 95
1, 557953, Note_on_c, 0, 43, 93
1, 557965, Note_on_c, 0, 50, 66
1, 557981, Note_off_c, 0, 48, 65
1, 557981, Note_off_c, 0, 52, 65
1, 557985, Note_off_c, 0, 43, 67
1, 557988, Control_c, 0, 64, 77
1, 557988, Note_off_c, 0, 50, 63
1, 558002, Control_c, 0, 64, 59
1, 558017, Control_c, 0, 64, 8
1, 558027, Note_on_c, 0, 67, 89
1, 558030, Note_on_c, 0, 50, 99
1, 558032, Control_c, 0, 64, 0
1, 558036, Note_on_c, 0, 47, 92
1, 558042, Note_on_c, 0, 41, 69
1, 558047, Note_on_c, 0, 55, 63
1, 558050, Note_on_c, 0, 43, 75
1, 558063, Note_off_c, 0, 69, 65
1, 558070, Note_off_c, 0, 50, 68
1, 558072, Note_off_c, 0, 41, 64
1, 558074, Note_off_c, 0, 55, 65
1, 558074, Note_off_c, 0, 43, 66
1, 558074, Note_off_c, 0, 47, 62
1, 558142, Control_c, 0, 64, 23
1, 558157, Control_c, 0, 64, 50
1, 558172, Control_c, 0, 64, 63
1, 558187, Control_c, 0, 64, 69
1, 558202, Control_c, 0, 64, 80
1, 558211, Note_on_c, 0, 50, 85
1, 558212, Note_on_c, 0, 47, 81
1, 558215, Note_on_c, 0, 48, 81
1, 558216, Control_c, 0, 64, 114
1, 558230, Note_on_c, 0, 40, 54
1, 558230, Note_on_c, 0, 41, 48
1, 558231, Control_c, 0, 64, 127
1, 558234, Note_off_c, 0, 50, 69
1, 558236, Note_off_c, 0, 47, 68
1, 558241, Note_off_c, 0, 48, 66
1, 558259, Note_off_c, 0, 40, 56
1, 558262, Note_off_c, 0, 41, 56
1, 558277, Note_off_c, 0, 67, 64
1, 558364, Control_c, 0, 64, 101
1, 558379, Control_c, 0, 64, 70
1, 558382, Note_on_c, 0, 72, 94
1, 558394, Control_c, 0, 64, 50
1, 558396, Note_on_c, 0, 60, 72
1, 558408, Control_c, 0, 64, 0
1, 558513, Control_c, 0, 64, 47
1, 558521, Note_off_c, 0, 60, 0
1, 558527, Control_c, 0, 64, 66
1, 558535, Note_on_c, 0, 60, 52
1, 558542, Control_c, 0, 64, 81
1, 558548, Note_on_c, 0, 65, 79
1, 558557, Control_c, 0, 64, 113
1, 558557, Note_on_c, 0, 57, 71
1, 558572, Control_c, 0, 64, 127
1, 558575, Note_off_c, 0, 65, 67
1, 558601, Note_off_c, 0, 57, 60
1, 558636, Note_off_c, 0, 60, 50
1, 558646, Note_off_c, 0, 72, 63
1, 558725, Note_on_c, 0, 72, 95
1, 558745, Note_on_c, 0, 60, 76
1, 558888, Note_on_c, 0, 55, 71
1, 558898, Note_on_c, 0, 64, 69
1, 558899, Note_on_c, 0, 59, 71
1, 558917, Note_off_c, 0, 64, 67
1, 558923, Note_off_c, 0, 59, 67
1, 558936, Note_off_c, 0, 55, 64
1, 558975, Note_off_c, 0, 60, 58
1, 558984, Note_off_c, 0, 72, 62
1, 559054, Control_c, 0, 64, 94
1, 559064, Note_on_c, 0, 71, 96
1, 559069, Control_c, 0, 64, 65
1, 559082, Note_on_c, 0, 59, 59
1, 559083, Control_c, 0, 64, 48
1, 559098, Control_c, 0, 64, 49
1, 559113, Control_c, 0, 64, 67
1, 559128, Control_c, 0, 64, 91
1, 559143, Control_c, 0, 64, 127
1, 559219, Note_on_c, 0, 62, 81
1, 559222, Note_on_c, 0, 53, 70
1, 559223, Note_on_c, 0, 57, 76
1, 559246, Note_off_c, 0, 62, 67
1, 559256, Note_off_c, 0, 57, 67
1, 559259, Note_off_c, 0, 53, 64
1, 559317, Note_off_c, 0, 59, 61
1, 559326, Note_off_c, 0, 71, 62
1, 559402, Note_on_c, 0, 69, 96
1, 559421, Note_on_c, 0, 57, 74
1, 559426, Note_on_c, 0, 61, 31
1, 559447, Note_on_c, 0, 68, 34
1, 559459, Note_off_c, 0, 61, 51
1, 559471, Note_off_c, 0, 57, 59
1, 559481, Note_off_c, 0, 68, 52
1, 559550, Note_on_c, 0, 53, 70
1, 559550, Note_on_c, 0, 62, 74
1, 559553, Note_on_c, 0, 57, 72
1, 559577, Note_off_c, 0, 57, 67
1, 559577, Note_off_c, 0, 62, 67
1, 559582, Note_off_c, 0, 53, 63
1, 559699, Control_c, 0, 64, 77
1, 559703, Note_off_c, 0, 69, 57
1, 559714, Control_c, 0, 64, 30
1, 559729, Control_c, 0, 64, 0
1, 559732, Note_on_c, 0, 67, 95
1, 559735, Note_on_c, 0, 55, 77
1, 559742, Poly_aftertouch_c, 0, 57, 0
1, 559744, Control_c, 0, 64, 46
1, 559756, Note_on_c, 0, 69, 34
1, 559759, Control_c, 0, 64, 74
1, 559759, Note_off_c, 0, 55, 66
1, 559760, Note_on_c, 0, 57, 32
1, 559773, Control_c, 0, 64, 127
1, 559791, Note_off_c, 0, 69, 58
1, 559796, Note_off_c, 0, 57, 56
1, 559830, Note_on_c, 0, 55, 68
1, 559834, Note_on_c, 0, 52, 72
1, 559842, Note_on_c, 0, 60, 59
1, 559847, Note_off_c, 0, 55, 68
1, 559863, Note_off_c, 0, 60, 61
1, 559864, Note_off_c, 0, 52, 66
1, 559884, Note_on_c, 0, 69, 52
1, 559899, Note_on_c, 0, 57, 83
1, 559903, Note_off_c, 0, 67, 63
1, 559906, Note_on_c, 0, 62, 88
1, 559922, Note_off_c, 0, 69, 67
1, 559931, Note_on_c, 0, 71, 66
1, 559932, Note_off_c, 0, 62, 69
1, 559940, Note_on_c, 0, 52, 22
1, 559943, Note_off_c, 0, 57, 64
1, 559958, Note_on_c, 0, 72, 63
1, 559958, Note_off_c, 0, 71, 66
1, 559979, Note_off_c, 0, 72, 64
1, 559979, Note_on_c, 0, 74, 62
1, 559987, Note_on_c, 0, 59, 90
1, 559988, Note_on_c, 0, 55, 62
1, 559989, Note_off_c, 0, 52, 37
1, 559995, Note_on_c, 0, 76, 72
1, 559997, Note_off_c, 0, 74, 67
1, 559999, Note_on_c, 0, 64, 68
1, 560012, Note_on_c, 0, 77, 74
1, 560018, Note_off_c, 0, 64, 67
1, 560021, Note_off_c, 0, 76, 67
1, 560027, Note_on_c, 0, 79, 79
1, 560030, Note_off_c, 0, 59, 67
1, 560033, Note_off_c, 0, 77, 70
1, 560045, Note_on_c, 0, 81, 79
1, 560048, Note_off_c, 0, 79, 70
1, 560062, Note_on_c, 0, 83, 83
1, 560063, Note_on_c, 0, 65, 50
1, 560065, Note_off_c, 0, 81, 69
1, 560070, Note_on_c, 0, 60, 88
1, 560078, Note_on_c, 0, 84, 80
1, 560080, Note_off_c, 0, 83, 71
1, 560095, Note_on_c, 0, 86, 78
1, 560100, Note_off_c, 0, 84, 70
1, 560109, Note_on_c, 0, 88, 80
1, 560115, Note_off_c, 0, 86, 69
1, 560122, Note_off_c, 0, 55, 62
1, 560124, Note_on_c, 0, 89, 79
1, 560133, Note_off_c, 0, 88, 69
1, 560136, Note_on_c, 0, 91, 81
1, 560147, Note_off_c, 0, 89, 68
1, 560148, Note_on_c, 0, 93, 85
1, 560153, Note_on_c, 0, 81, 5
1, 560155, Note_off_c, 0, 65, 64
1, 560155, Note_on_c, 0, 83, 18
1, 560157, Note_off_c, 0, 60, 61
1, 560157, Note_off_c, 0, 91, 70
1, 560161, Note_on_c, 0, 95, 87
1, 560161, Note_off_c, 0, 83, 46
1, 560168, Note_off_c, 0, 93, 70
1, 560173, Note_on_c, 0, 96, 91
1, 560173, Poly_aftertouch_c, 0, 77, 0
1, 560176, Note_on_c, 0, 84, 17
1, 560178, Note_off_c, 0, 95, 74
1, 560185, Poly_aftertouch_c, 0, 79, 0
1, 560186, Note_on_c, 0, 98, 93
1, 560191, Note_off_c, 0, 96, 75
1, 560195, Note_on_c, 0, 86, 8
1, 560200, Note_on_c, 0, 100, 91
1, 560205, Note_off_c, 0, 98, 69
1, 560209, Note_off_c, 0, 81, 26
1, 560217, Note_on_c, 0, 101, 86
1, 560218, Note_off_c, 0, 100, 69
1, 560225, Note_off_c, 0, 84, 37
1, 560232, Note_on_c, 0, 60, 92
1, 560233, Note_on_c, 0, 65, 94
1, 560236, Note_on_c, 0, 103, 81
1, 560236, Note_off_c, 0, 101, 71
1, 560237, Note_on_c, 0, 57, 89
1, 560240, Note_off_c, 0, 86, 35
1, 560251, Note_off_c, 0, 103, 70
1, 560259, Poly_aftertouch_c, 0, 89, 0
1, 560264, Poly_aftertouch_c, 0, 88, 0
1, 560286, Note_off_c, 0, 65, 65
1, 560289, Poly_aftertouch_c, 0, 91, 0
1, 560293, Note_off_c, 0, 57, 63
1, 560293, Note_off_c, 0, 60, 62
1, 560419, Control_c, 0, 64, 96
1, 560430, Note_on_c, 0, 67, 105
1, 560434, Control_c, 0, 64, 50
1, 560435, Note_on_c, 0, 103, 94
1, 560437, Note_on_c, 0, 105, 101
1, 560448, Note_on_c, 0, 91, 66
1, 560449, Control_c, 0, 64, 0
1, 560474, Note_off_c, 0, 105, 66
1, 560486, Note_on_c, 0, 93, 20
1, 560487, Note_off_c, 0, 93, 127
1, 560500, Note_off_c, 0, 67, 65
1, 560508, Control_c, 0, 64, 43
1, 560523, Control_c, 0, 64, 87
1, 560537, Control_c, 0, 64, 127
1, 560603, Note_on_c, 0, 55, 84
1, 560617, Note_on_c, 0, 50, 71
1, 560618, Note_off_c, 0, 91, 54
1, 560637, Note_on_c, 0, 101, 13
1, 560641, Note_on_c, 0, 47, 61
1, 560686, Note_off_c, 0, 50, 61
1, 560690, Note_off_c, 0, 55, 61
1, 560707, Note_off_c, 0, 103, 52
1, 560710, Poly_aftertouch_c, 0, 54, 0
1, 560714, Note_off_c, 0, 47, 60
1, 560814, Note_off_c, 0, 101, 36
1, 560949, Note_on_c, 0, 57, 80
1, 560949, Note_on_c, 0, 64, 90
1, 560952, Note_on_c, 0, 100, 103
1, 560961, Note_on_c, 0, 88, 85
1, 560963, Note_on_c, 0, 52, 74
1, 560966, Note_on_c, 0, 48, 71
1, 561049, Note_off_c, 0, 57, 63
1, 561052, Note_off_c, 0, 48, 62
1, 561061, Note_off_c, 0, 52, 63
1, 561114, Note_off_c, 0, 88, 66
1, 561121, Note_off_c, 0, 64, 65
1, 561199, Note_on_c, 0, 101, 94
1, 561203, Note_on_c, 0, 65, 100
1, 561206, Note_on_c, 0, 89, 93
1, 561213, Control_c, 0, 64, 84
1, 561227, Control_c, 0, 64, 45
1, 561238, Note_off_c, 0, 100, 58
1, 561242, Control_c, 0, 64, 0
1, 561331, Control_c, 0, 64, 65
1, 561346, Control_c, 0, 64, 127
1, 561360, Note_off_c, 0, 101, 55
1, 561377, Note_on_c, 0, 53, 64
1, 561377, Note_on_c, 0, 59, 76
1, 561387, Note_off_c, 0, 89, 59
1, 561388, Note_on_c, 0, 50, 68
1, 561418, Poly_aftertouch_c, 0, 100, 127
1, 561452, Note_off_c, 0, 50, 65
1, 561454, Note_off_c, 0, 65, 60
1, 561465, Poly_aftertouch_c, 0, 100, 0
1, 561479, Note_off_c, 0, 53, 59
1, 561481, Note_on_c, 0, 92, 21
1, 561497, Poly_aftertouch_c, 0, 97, 127
1, 561523, Poly_aftertouch_c, 0, 97, 0
1, 561525, Note_off_c, 0, 92, 53
1, 561535, Note_on_c, 0, 100, 100
1, 561540, Note_on_c, 0, 64, 89
1, 561545, Note_on_c, 0, 88, 86
1, 561573, Note_off_c, 0, 59, 66
1, 561631, Note_off_c, 0, 64, 62
1, 561645, Note_off_c, 0, 88, 66
1, 561704, Note_on_c, 0, 62, 88
1, 561704, Note_on_c, 0, 98, 97
1, 561705, Note_on_c, 0, 59, 74
1, 561711, Note_on_c, 0, 50, 68
1, 561714, Note_on_c, 0, 53, 63
1, 561714, Note_on_c, 0, 86, 83
1, 561741, Note_off_c, 0, 100, 65
1, 561746, Note_off_c, 0, 62, 62
1, 561753, Note_off_c, 0, 53, 63
1, 561755, Note_off_c, 0, 50, 66
1, 561757, Note_off_c, 0, 59, 65
1, 561771, Note_off_c, 0, 86, 65
1, 561789, Note_off_c, 0, 98, 62
1, 561819, Control_c, 0, 64, 79
1, 561833, Control_c, 0, 64, 41
1, 561856, Control_c, 0, 64, 0
1, 561871, Control_c, 0, 64, 32
1, 561875, Note_on_c, 0, 84, 103
1, 561880, Note_on_c, 0, 60, 100
1, 561881, Note_on_c, 0, 96, 93
1, 561885, Control_c, 0, 64, 71
1, 561896, Note_off_c, 0, 96, 75
1, 561900, Control_c, 0, 64, 127
1, 561911, Note_off_c, 0, 84, 65
1, 561914, Note_on_c, 0, 95, 46
1, 561915, Note_off_c, 0, 95, 127
1, 561919, Note_off_c, 0, 60, 65
1, 562067, Note_on_c, 0, 53, 68
1, 562071, Note_on_c, 0, 45, 65
1, 562074, Note_on_c, 0, 57, 79
1, 562083, Note_on_c, 0, 65, 61
1, 562084, Note_on_c, 0, 48, 42
1, 562088, Note_off_c, 0, 53, 62
1, 562091, Note_off_c, 0, 57, 67
1, 562093, Note_off_c, 0, 45, 60
1, 562102, Note_off_c, 0, 65, 64
1, 562107, Note_on_c, 0, 60, 17
1, 562119, Note_off_c, 0, 48, 48
1, 562143, Note_on_c, 0, 52, 63
1, 562143, Note_on_c, 0, 55, 87
1, 562144, Note_off_c, 0, 60, 53
1, 562150, Note_on_c, 0, 57, 57
1, 562156, Note_on_c, 0, 59, 61
1, 562158, Note_on_c, 0, 47, 69
1, 562166, Note_off_c, 0, 55, 68
1, 562167, Note_on_c, 0, 43, 54
1, 562169, Note_off_c, 0, 52, 65
1, 562172, Note_on_c, 0, 64, 22
1, 562173, Note_off_c, 0, 57, 63
1, 562178, Note_off_c, 0, 59, 63
1, 562179, Note_off_c, 0, 47, 63
1, 562194, Note_off_c, 0, 43, 57
1, 562210, Note_off_c, 0, 64, 47
1, 562220, Note_on_c, 0, 52, 98
1, 562221, Note_on_c, 0, 55, 82
1, 562224, Poly_aftertouch_c, 0, 45, 127
1, 562227, Note_on_c, 0, 60, 76
1, 562228, Note_on_c, 0, 50, 91
1, 562232, Note_on_c, 0, 53, 60
1, 562232, Note_on_c, 0, 62, 73
1, 562242, Note_on_c, 0, 41, 67
1, 562249, Note_off_c, 0, 50, 69
1, 562250, Note_off_c, 0, 52, 66
1, 562252, Note_off_c, 0, 60, 65
1, 562254, Note_off_c, 0, 55, 67
1, 562257, Note_off_c, 0, 62, 67
1, 562261, Note_off_c, 0, 53, 55
1, 562263, Poly_aftertouch_c, 0, 45, 0
1, 562265, Note_off_c, 0, 41, 0
1, 562272, Note_on_c, 0, 43, 22
1, 562282, Note_on_c, 0, 50, 93
1, 562285, Note_on_c, 0, 41, 64
1, 562285, Note_on_c, 0, 52, 90
1, 562289, Note_on_c, 0, 45, 53
1, 562294, Note_on_c, 0, 55, 87
1, 562307, Poly_aftertouch_c, 0, 48, 0
1, 562310, Note_on_c, 0, 53, 67
1, 562313, Poly_aftertouch_c, 0, 60, 127
1, 562320, Note_off_c, 0, 50, 68
1, 562324, Poly_aftertouch_c, 0, 60, 0
1, 562325, Note_off_c, 0, 45, 66
1, 562327, Note_off_c, 0, 53, 68
1, 562328, Note_off_c, 0, 52, 66
1, 562331, Note_off_c, 0, 41, 61
1, 562331, Note_off_c, 0, 43, 64
1, 562334, Note_off_c, 0, 55, 66
1, 562356, Poly_aftertouch_c, 0, 48, 0
1, 562429, Note_on_c, 0, 43, 92
1, 562430, Note_on_c, 0, 48, 93
1, 562433, Note_on_c, 0, 52, 94
1, 562438, Note_on_c, 0, 40, 78
1, 562443, Note_on_c, 0, 60, 66
1, 562444, Note_on_c, 0, 55, 70
1, 562450, Note_off_c, 0, 48, 71
1, 562453, Note_on_c, 0, 57, 65
1, 562455, Note_off_c, 0, 43, 67
1, 562455, Note_off_c, 0, 52, 70
1, 562462, Note_off_c, 0, 40, 60
1, 562464, Note_on_c, 0, 62, 58
1, 562466, Note_off_c, 0, 55, 67
1, 562478, Note_off_c, 0, 57, 66
1, 562483, Note_off_c, 0, 60, 62
1, 562483, Note_off_c, 0, 62, 66
1, 562501, Poly_aftertouch_c, 0, 53, 0
1, 562581, Poly_aftertouch_c, 0, 43, 127
1, 562593, Note_on_c, 0, 63, 43
1, 562595, Poly_aftertouch_c, 0, 48, 0
1, 562610, Note_on_c, 0, 56, 29
1, 562610, Note_on_c, 0, 61, 32
1, 562619, Poly_aftertouch_c, 0, 43, 0
1, 562636, Note_off_c, 0, 63, 52
1, 562640, Note_off_c, 0, 61, 54
1, 562647, Note_off_c, 0, 56, 44
1, 562657, Note_on_c, 0, 67, 96
1, 562664, Control_c, 0, 64, 79
1, 562665, Note_on_c, 0, 103, 92
1, 562666, Note_on_c, 0, 101, 82
1, 562671, Note_on_c, 0, 91, 65
1, 562677, Note_on_c, 0, 69, 50
1, 562679, Control_c, 0, 64, 42
1, 562680, Note_on_c, 0, 89, 52
1, 562686, Note_off_c, 0, 69, 42
1, 562694, Control_c, 0, 64, 0
1, 562701, Note_off_c, 0, 89, 59
1, 562799, Control_c, 0, 64, 33
1, 562813, Control_c, 0, 64, 59
1, 562825, Note_on_c, 0, 59, 72
1, 562826, Note_on_c, 0, 62, 80
1, 562828, Control_c, 0, 64, 78
1, 562829, Note_on_c, 0, 55, 76
1, 562843, Control_c, 0, 64, 127
1, 562901, Note_off_c, 0, 91, 62
1, 562902, Note_off_c, 0, 103, 65
1, 562906, Note_off_c, 0, 101, 65
1, 562933, Note_off_c, 0, 59, 65
1, 562937, Note_off_c, 0, 67, 62
1, 562938, Note_off_c, 0, 62, 65
1, 562939, Note_off_c, 0, 55, 61
1, 562984, Note_on_c, 0, 103, 106
1, 562993, Note_on_c, 0, 91, 86
1, 562996, Note_on_c, 0, 67, 88
1, 563035, Note_off_c, 0, 91, 65
1, 563148, Note_on_c, 0, 64, 87
1, 563151, Note_on_c, 0, 100, 88
1, 563160, Note_on_c, 0, 57, 67
1, 563164, Note_on_c, 0, 60, 64
1, 563164, Note_on_c, 0, 98, 80
1, 563176, Note_off_c, 0, 67, 65
1, 563204, Note_off_c, 0, 103, 65
1, 563214, Note_off_c, 0, 98, 0
1, 563214, Note_on_c, 0, 98, 34
1, 563236, Note_off_c, 0, 57, 60
1, 563240, Note_off_c, 0, 60, 60
1, 563251, Note_off_c, 0, 98, 25
1, 563263, Note_off_c, 0, 100, 67
1, 563268, Note_off_c, 0, 64, 64
1, 563287, Control_c, 0, 64, 81
1, 563302, Control_c, 0, 64, 46
1, 563311, Note_on_c, 0, 69, 88
1, 563315, Note_on_c, 0, 105, 105
1, 563316, Control_c, 0, 64, 0
1, 563332, Note_on_c, 0, 93, 79
1, 563368, Control_c, 0, 64, 46
1, 563383, Control_c, 0, 64, 71
1, 563398, Control_c, 0, 64, 113
1, 563413, Control_c, 0, 64, 127
1, 563476, Note_on_c, 0, 65, 77
1, 563480, Note_on_c, 0, 59, 67
1, 563488, Note_on_c, 0, 62, 64
1, 563551, Note_off_c, 0, 93, 55
1, 563570, Note_off_c, 0, 69, 64
1, 563579, Note_off_c, 0, 59, 56
1, 563583, Note_off_c, 0, 62, 52
1, 563594, Note_off_c, 0, 105, 67
1, 563615, Note_off_c, 0, 65, 62
1, 563652, Note_on_c, 0, 105, 107
1, 563655, Note_on_c, 0, 69, 97
1, 563658, Note_on_c, 0, 93, 94
1, 563800, Note_on_c, 0, 65, 82
1, 563812, Note_on_c, 0, 59, 64
1, 563812, Note_on_c, 0, 62, 68
1, 563840, Note_off_c, 0, 69, 64
1, 563841, Note_off_c, 0, 93, 62
1, 563851, Note_off_c, 0, 59, 61
1, 563855, Note_off_c, 0, 62, 59
1, 563857, Note_off_c, 0, 65, 64
1, 563956, Note_on_c, 0, 67, 77
1, 563956, Note_on_c, 0, 103, 107
1, 563964, Note_on_c, 0, 91, 91
1, 563982, Note_off_c, 0, 67, 66
1, 563987, Note_off_c, 0, 105, 67
1, 564062, Note_on_c, 0, 50, 83
1, 564063, Note_on_c, 0, 47, 85
1, 564077, Note_on_c, 0, 43, 62
1, 564083, Note_off_c, 0, 50, 70
1, 564085, Note_off_c, 0, 47, 69
1, 564111, Note_off_c, 0, 43, 58
1, 564132, Note_off_c, 0, 91, 0
1, 564153, Note_on_c, 0, 48, 97
1, 564156, Note_on_c, 0, 52, 86
1, 564159, Note_on_c, 0, 45, 79
1, 564169, Poly_aftertouch_c, 0, 91, 127
1, 564175, Note_on_c, 0, 53, 61
1, 564176, Note_off_c, 0, 53, 127
1, 564176, Note_on_c, 0, 91, 8
1, 564176, Note_off_c, 0, 48, 68
1, 564177, Note_on_c, 0, 50, 32
1, 564180, Note_off_c, 0, 52, 68
1, 564182, Note_off_c, 0, 45, 68
1, 564214, Note_off_c, 0, 50, 54
1, 564226, Note_off_c, 0, 91, 47
1, 564236, Note_on_c, 0, 50, 89
1, 564237, Note_on_c, 0, 53, 104
1, 564243, Note_off_c, 0, 103, 61
1, 564245, Note_on_c, 0, 47, 73
1, 564269, Note_on_c, 0, 52, 23
1, 564271, Note_off_c, 0, 53, 63
1, 564272, Note_off_c, 0, 47, 68
1, 564274, Note_off_c, 0, 50, 65
1, 564304, Note_off_c, 0, 52, 55
1, 564304, Note_on_c, 0, 103, 99
1, 564313, Note_on_c, 0, 91, 93
1, 564326, Note_on_c, 0, 55, 80
1, 564336, Note_on_c, 0, 53, 76
1, 564349, Note_on_c, 0, 47, 44
1, 564349, Note_off_c, 0, 55, 66
1, 564361, Note_off_c, 0, 53, 67
1, 564370, Control_c, 0, 64, 79
1, 564385, Note_off_c, 0, 91, 63
1, 564385, Control_c, 0, 64, 50
1, 564397, Note_off_c, 0, 47, 0
1, 564400, Control_c, 0, 64, 0
1, 564403, Note_on_c, 0, 48, 52
1, 564404, Note_on_c, 0, 52, 79
1, 564412, Note_on_c, 0, 53, 73
1, 564413, Note_on_c, 0, 47, 51
1, 564415, Control_c, 0, 64, 40
1, 564418, Note_on_c, 0, 55, 69
1, 564430, Control_c, 0, 64, 67
1, 564441, Note_off_c, 0, 47, 52
1, 564445, Control_c, 0, 64, 127
1, 564446, Note_off_c, 0, 48, 64
1, 564455, Note_off_c, 0, 53, 63
1, 564455, Note_off_c, 0, 55, 63
1, 564470, Note_on_c, 0, 100, 99
1, 564471, Note_off_c, 0, 52, 64
1, 564473, Note_on_c, 0, 64, 108
1, 564483, Note_on_c, 0, 88, 83
1, 564493, Note_off_c, 0, 103, 67
1, 564501, Note_on_c, 0, 89, 58
1, 564505, Note_off_c, 0, 64, 68
1, 564505, Note_off_c, 0, 88, 71
1, 564521, Note_off_c, 0, 100, 68
1, 564522, Note_off_c, 0, 89, 39
1, 564622, Control_c, 0, 64, 86
1, 564637, Control_c, 0, 64, 58
1, 564641, Note_on_c, 0, 74, 89
1, 564647, Note_on_c, 0, 98, 103
1, 564652, Control_c, 0, 64, 0
1, 564654, Note_on_c, 0, 86, 83
1, 564697, Note_on_c, 0, 70, 19
1, 564726, Control_c, 0, 64, 16
1, 564734, Note_off_c, 0, 70, 44
1, 564741, Control_c, 0, 64, 62
1, 564756, Control_c, 0, 64, 80
1, 564770, Control_c, 0, 64, 109
1, 564781, Note_on_c, 0, 69, 75
1, 564784, Note_on_c, 0, 60, 81
1, 564785, Control_c, 0, 64, 127
1, 564794, Note_on_c, 0, 65, 69
1, 564829, Note_off_c, 0, 74, 62
1, 564860, Note_off_c, 0, 60, 62
1, 564882, Note_off_c, 0, 86, 61
1, 564890, Note_off_c, 0, 98, 63
1, 564901, Note_off_c, 0, 69, 65
1, 564907, Note_off_c, 0, 65, 62
1, 564933, Note_on_c, 0, 74, 82
1, 564959, Note_on_c, 0, 98, 98
1, 564970, Note_off_c, 0, 74, 64
1, 564971, Note_on_c, 0, 86, 87
1, 564989, Note_on_c, 0, 59, 80
1, 565008, Note_off_c, 0, 86, 57
1, 565039, Note_on_c, 0, 64, 70
1, 565049, Note_off_c, 0, 59, 66
1, 565060, Note_on_c, 0, 67, 66
1, 565079, Note_off_c, 0, 67, 65
1, 565090, Note_off_c, 0, 98, 62
1, 565091, Note_off_c, 0, 64, 64
1, 565117, Note_on_c, 0, 76, 96
1, 565130, Note_on_c, 0, 100, 97
1, 565134, Note_on_c, 0, 88, 83
1, 565155, Note_off_c, 0, 76, 64
1, 565164, Note_off_c, 0, 88, 66
1, 565179, Note_off_c, 0, 100, 67
1, 565238, Control_c, 0, 64, 93
1, 565253, Control_c, 0, 64, 61
1, 565267, Control_c, 0, 64, 41
1, 565282, Control_c, 0, 64, 49
1, 565285, Note_on_c, 0, 76, 87
1, 565291, Note_on_c, 0, 74, 82
1, 565291, Note_on_c, 0, 98, 102
1, 565297, Control_c, 0, 64, 68
1, 565303, Note_on_c, 0, 86, 83
1, 565312, Control_c, 0, 64, 127
1, 565320, Note_on_c, 0, 88, 58
1, 565334, Note_off_c, 0, 76, 64
1, 565342, Note_off_c, 0, 74, 61
1, 565348, Note_off_c, 0, 88, 35
1, 565437, Note_on_c, 0, 65, 81
1, 565444, Note_on_c, 0, 62, 83
1, 565454, Note_on_c, 0, 57, 76
1, 565479, Note_off_c, 0, 62, 65
1, 565481, Note_off_c, 0, 65, 65
1, 565490, Note_off_c, 0, 57, 64
1, 565496, Note_off_c, 0, 86, 61
1, 565512, Note_off_c, 0, 98, 62
1, 565621, Note_on_c, 0, 72, 93
1, 565624, Note_on_c, 0, 96, 106
1, 565638, Note_on_c, 0, 84, 85
1, 565682, Note_off_c, 0, 72, 59
1, 565683, Note_on_c, 0, 86, 4
1, 565684, Note_off_c, 0, 86, 127
1, 565744, Note_off_c, 0, 84, 65
1, 565802, Note_on_c, 0, 71, 97
1, 565803, Note_on_c, 0, 65, 84
1, 565806, Note_on_c, 0, 57, 76
1, 565809, Note_on_c, 0, 95, 98
1, 565813, Note_on_c, 0, 62, 72
1, 565816, Note_on_c, 0, 83, 88
1, 565856, Note_off_c, 0, 96, 66
1, 565863, Note_off_c, 0, 71, 62
1, 565870, Note_off_c, 0, 83, 64
1, 565875, Note_off_c, 0, 65, 62
1, 565875, Note_off_c, 0, 62, 64
1, 565883, Note_off_c, 0, 57, 62
1, 565893, Note_off_c, 0, 95, 67
1, 565918, Poly_aftertouch_c, 0, 90, 0
1, 565950, Note_on_c, 0, 69, 83
1, 565968, Note_on_c, 0, 81, 86
1, 565968, Note_on_c, 0, 93, 94
1, 565974, Note_off_c, 0, 69, 70
1, 565980, Note_on_c, 0, 67, 48
1, 565981, Note_on_c, 0, 95, 71
1, 565982, Note_off_c, 0, 95, 127
1, 566007, Note_off_c, 0, 67, 59
1, 566063, Note_on_c, 0, 55, 80
1, 566069, Note_on_c, 0, 52, 80
1, 566069, Note_on_c, 0, 47, 82
1, 566087, Note_off_c, 0, 55, 67
1, 566089, Poly_aftertouch_c, 0, 69, 127
1, 566091, Note_off_c, 0, 47, 69
1, 566098, Note_off_c, 0, 52, 66
1, 566104, Note_off_c, 0, 81, 60
1, 566116, Poly_aftertouch_c, 0, 69, 0
1, 566135, Note_on_c, 0, 55, 87
1, 566144, Note_on_c, 0, 45, 85
1, 566144, Note_on_c, 0, 50, 87
1, 566159, Note_on_c, 0, 53, 58
1, 566160, Note_off_c, 0, 53, 127
1, 566166, Note_off_c, 0, 50, 70
1, 566167, Note_off_c, 0, 45, 68
1, 566170, Note_off_c, 0, 55, 66
1, 566178, Control_c, 0, 64, 99
1, 566193, Control_c, 0, 64, 68
1, 566208, Control_c, 0, 64, 51
1, 566215, Note_on_c, 0, 52, 52
1, 566219, Note_on_c, 0, 48, 92
1, 566222, Control_c, 0, 64, 47
1, 566224, Note_on_c, 0, 43, 84
1, 566237, Control_c, 0, 64, 63
1, 566242, Note_off_c, 0, 48, 69
1, 566246, Note_off_c, 0, 43, 67
1, 566251, Note_off_c, 0, 52, 66
1, 566252, Control_c, 0, 64, 106
1, 566266, Control_c, 0, 64, 127
1, 566293, Note_on_c, 0, 47, 102
1, 566298, Note_on_c, 0, 41, 90
1, 566300, Note_on_c, 0, 91, 94
1, 566303, Poly_aftertouch_c, 0, 50, 127
1, 566305, Note_on_c, 0, 43, 77
1, 566305, Note_on_c, 0, 79, 88
1, 566306, Note_on_c, 0, 52, 81
1, 566326, Note_off_c, 0, 93, 67
1, 566326, Note_off_c, 0, 52, 66
1, 566349, Note_on_c, 0, 48, 3
1, 566351, Note_off_c, 0, 43, 61
1, 566351, Note_off_c, 0, 47, 67
1, 566351, Poly_aftertouch_c, 0, 50, 0
1, 566352, Note_off_c, 0, 79, 57
1, 566357, Note_off_c, 0, 41, 61
1, 566378, Note_off_c, 0, 48, 53
1, 566409, Note_off_c, 0, 91, 63
1, 566427, Poly_aftertouch_c, 0, 87, 0
1, 566458, Note_on_c, 0, 50, 98
1, 566463, Note_on_c, 0, 47, 94
1, 566471, Note_on_c, 0, 41, 80
1, 566485, Note_off_c, 0, 47, 70
1, 566485, Note_off_c, 0, 50, 66
1, 566488, Note_off_c, 0, 41, 70
1, 566615, Poly_aftertouch_c, 0, 41, 0
1, 566630, Control_c, 0, 64, 90
1, 566643, Poly_aftertouch_c, 0, 41, 0
1, 566644, Note_on_c, 0, 96, 107
1, 566644, Control_c, 0, 64, 51
1, 566647, Note_on_c, 0, 84, 95
1, 566650, Note_on_c, 0, 72, 96
1, 566659, Control_c, 0, 64, 0
1, 566665, Note_on_c, 0, 71, 70
1, 566674, Control_c, 0, 64, 8
1, 566689, Control_c, 0, 64, 49
1, 566704, Control_c, 0, 64, 77
1, 566705, Note_off_c, 0, 72, 62
1, 566719, Control_c, 0, 64, 127
1, 566763, Note_off_c, 0, 71, 27
1, 566793, Note_on_c, 0, 65, 92
1, 566803, Note_on_c, 0, 60, 79
1, 566810, Note_on_c, 0, 55, 70
1, 566833, Note_off_c, 0, 60, 65
1, 566835, Note_on_c, 0, 57, 54
1, 566838, Note_off_c, 0, 55, 66
1, 566838, Note_off_c, 0, 65, 65
1, 566860, Note_off_c, 0, 57, 60
1, 566873, Note_off_c, 0, 84, 64
1, 566903, Note_off_c, 0, 96, 64
1, 566927, Control_c, 0, 64, 109
1, 566942, Control_c, 0, 64, 68
1, 566957, Control_c, 0, 64, 53
1, 566971, Control_c, 0, 64, 61
1, 566974, Note_on_c, 0, 72, 96
1, 566980, Note_on_c, 0, 84, 98
1, 566980, Note_on_c, 0, 96, 107
1, 566986, Control_c, 0, 64, 80
1, 567001, Control_c, 0, 64, 127
1, 567023, Note_on_c, 0, 94, 34
1, 567027, Note_on_c, 0, 71, 59
1, 567033, Note_off_c, 0, 72, 57
1, 567048, Note_off_c, 0, 71, 62
1, 567053, Note_off_c, 0, 94, 53
1, 567141, Note_on_c, 0, 64, 94
1, 567148, Note_on_c, 0, 55, 86
1, 567151, Note_on_c, 0, 59, 66
1, 567193, Note_off_c, 0, 55, 65
1, 567193, Note_off_c, 0, 59, 66
1, 567197, Note_off_c, 0, 64, 67
1, 567226, Note_off_c, 0, 84, 60
1, 567237, Note_off_c, 0, 96, 54
1, 567304, Control_c, 0, 64, 68
1, 567319, Control_c, 0, 64, 0
1, 567340, Note_on_c, 0, 71, 98
1, 567345, Note_on_c, 0, 95, 109
1, 567349, Note_on_c, 0, 83, 101
1, 567349, Control_c, 0, 64, 33
1, 567363, Control_c, 0, 64, 70
1, 567378, Control_c, 0, 64, 127
1, 567393, Note_off_c, 0, 71, 60
1, 567503, Note_on_c, 0, 62, 96
1, 567519, Note_on_c, 0, 53, 77
1, 567519, Note_on_c, 0, 57, 80
1, 567550, Note_off_c, 0, 57, 67
1, 567551, Note_off_c, 0, 53, 66
1, 567554, Note_off_c, 0, 62, 68
1, 567597, Note_off_c, 0, 95, 59
1, 567609, Note_off_c, 0, 83, 63
1, 567686, Note_on_c, 0, 69, 93
1, 567694, Note_on_c, 0, 93, 104
1, 567700, Note_on_c, 0, 81, 96
1, 567747, Note_off_c, 0, 69, 63
1, 567859, Note_on_c, 0, 62, 92
1, 567870, Note_on_c, 0, 53, 73
1, 567876, Note_on_c, 0, 57, 74
1, 567902, Note_off_c, 0, 57, 66
1, 567910, Note_off_c, 0, 62, 66
1, 567914, Note_off_c, 0, 53, 62
1, 567939, Note_off_c, 0, 81, 45
1, 567962, Note_off_c, 0, 93, 35
1, 568010, Control_c, 0, 64, 90
1, 568025, Control_c, 0, 64, 58
1, 568039, Control_c, 0, 64, 0
1, 568058, Note_on_c, 0, 67, 103
1, 568064, Note_on_c, 0, 79, 102
1, 568066, Note_on_c, 0, 91, 105
1, 568069, Control_c, 0, 64, 46
1, 568084, Control_c, 0, 64, 102
1, 568094, Note_off_c, 0, 67, 63
1, 568099, Control_c, 0, 64, 127
1, 568099, Note_off_c, 0, 79, 68
1, 568101, Note_off_c, 0, 91, 69
1, 568218, Note_on_c, 0, 48, 79
1, 568222, Note_on_c, 0, 40, 71
1, 568224, Note_on_c, 0, 43, 65
1, 568242, Note_off_c, 0, 48, 66
1, 568246, Note_off_c, 0, 40, 62
1, 568250, Note_off_c, 0, 43, 60
1, 568299, Note_on_c, 0, 55, 62
1, 568300, Note_on_c, 0, 50, 90
1, 568302, Note_on_c, 0, 45, 87
1, 568309, Note_on_c, 0, 41, 75
1, 568309, Note_on_c, 0, 57, 64
1, 568324, Note_off_c, 0, 55, 65
1, 568329, Note_off_c, 0, 45, 69
1, 568331, Note_off_c, 0, 50, 64
1, 568335, Note_off_c, 0, 41, 64
1, 568348, Note_off_c, 0, 57, 64
1, 568354, Note_on_c, 0, 59, 75
1, 568381, Note_off_c, 0, 59, 64
1, 568387, Note_on_c, 0, 60, 80
1, 568389, Note_on_c, 0, 52, 93
1, 568395, Note_on_c, 0, 47, 87
1, 568400, Note_on_c, 0, 43, 62
1, 568408, Note_on_c, 0, 45, 58
1, 568412, Note_off_c, 0, 60, 62
1, 568412, Note_on_c, 0, 62, 83
1, 568424, Note_off_c, 0, 45, 68
1, 568435, Note_off_c, 0, 43, 66
1, 568435, Note_off_c, 0, 52, 66
1, 568437, Note_on_c, 0, 64, 84
1, 568437, Note_off_c, 0, 62, 69
1, 568442, Note_off_c, 0, 47, 67
1, 568459, Note_off_c, 0, 64, 69
1, 568461, Note_on_c, 0, 65, 87
1, 568482, Note_off_c, 0, 65, 69
1, 568484, Note_on_c, 0, 67, 92
1, 568487, Note_on_c, 0, 45, 79
1, 568489, Note_on_c, 0, 48, 90
1, 568489, Note_on_c, 0, 53, 92
1, 568505, Note_on_c, 0, 69, 91
1, 568506, Note_off_c, 0, 67, 68
1, 568527, Note_on_c, 0, 71, 87
1, 568529, Note_off_c, 0, 69, 67
1, 568537, Note_on_c, 0, 64, 8
1, 568549, Note_off_c, 0, 71, 68
1, 568549, Note_on_c, 0, 72, 92
1, 568549, Poly_aftertouch_c, 0, 62, 0
1, 568565, Note_on_c, 0, 65, 5
1, 568570, Note_off_c, 0, 72, 69
1, 568572, Note_on_c, 0, 74, 86
1, 568578, Poly_aftertouch_c, 0, 62, 0
1, 568591, Note_off_c, 0, 64, 54
1, 568600, Note_off_c, 0, 65, 37
1, 568600, Note_off_c, 0, 74, 70
1, 568600, Note_on_c, 0, 76, 88
1, 568620, Note_off_c, 0, 76, 70
1, 568621, Note_on_c, 0, 77, 88
1, 568640, Note_off_c, 0, 77, 73
1, 568642, Note_on_c, 0, 79, 89
1, 568654, Note_on_c, 0, 72, 9
1, 568655, Note_off_c, 0, 72, 127
1, 568657, Note_on_c, 0, 74, 31
1, 568658, Note_off_c, 0, 74, 127
1, 568663, Note_off_c, 0, 79, 72
1, 568664, Note_on_c, 0, 81, 89
1, 568674, Note_off_c, 0, 53, 61
1, 568679, Note_on_c, 0, 76, 34
1, 568680, Note_off_c, 0, 76, 127
1, 568684, Note_off_c, 0, 48, 64
1, 568684, Note_off_c, 0, 81, 72
1, 568687, Note_on_c, 0, 83, 90
1, 568690, Note_off_c, 0, 45, 62
1, 568707, Note_off_c, 0, 83, 72
1, 568710, Note_on_c, 0, 84, 91
1, 568710, Poly_aftertouch_c, 0, 76, 0
1, 568723, Note_on_c, 0, 77, 12
1, 568729, Note_off_c, 0, 84, 72
1, 568732, Note_on_c, 0, 86, 88
1, 568750, Note_on_c, 0, 53, 96
1, 568752, Note_off_c, 0, 86, 71
1, 568753, Note_on_c, 0, 48, 94
1, 568753, Note_on_c, 0, 88, 88
1, 568754, Note_on_c, 0, 45, 84
1, 568768, Note_off_c, 0, 77, 35
1, 568772, Note_off_c, 0, 53, 69
1, 568772, Note_off_c, 0, 88, 73
1, 568774, Note_on_c, 0, 89, 88
1, 568787, Note_off_c, 0, 48, 64
1, 568792, Note_off_c, 0, 89, 72
1, 568794, Note_on_c, 0, 91, 91
1, 568804, Note_off_c, 0, 45, 68
1, 568808, Note_on_c, 0, 84, 25
1, 568814, Note_off_c, 0, 91, 68
1, 568815, Note_on_c, 0, 93, 95
1, 568836, Note_on_c, 0, 95, 94
1, 568839, Note_off_c, 0, 93, 67
1, 568857, Note_on_c, 0, 96, 91
1, 568858, Note_off_c, 0, 84, 36
1, 568861, Note_off_c, 0, 95, 67
1, 568875, Note_off_c, 0, 96, 72
1, 568879, Note_on_c, 0, 98, 90
1, 568890, Poly_aftertouch_c, 0, 86, 0
1, 568897, Note_off_c, 0, 98, 72
1, 568904, Note_on_c, 0, 100, 76
1, 568904, Poly_aftertouch_c, 0, 88, 0
1, 568928, Note_off_c, 0, 100, 69
1, 569038, Poly_aftertouch_c, 0, 30, 0
1, 569084, Control_c, 0, 64, 109
1, 569093, Note_on_c, 0, 100, 110
1, 569095, Note_on_c, 0, 40, 104
1, 569099, Control_c, 0, 64, 60
1, 569100, Note_on_c, 0, 28, 105
1, 569114, Control_c, 0, 64, 0
1, 569163, Note_off_c, 0, 100, 64
1, 569174, Control_c, 0, 64, 69
1, 569189, Control_c, 0, 64, 127
1, 569210, Note_off_c, 0, 28, 64
1, 569227, Note_off_c, 0, 40, 65
1, 569347, Note_on_c, 0, 57, 79
1, 569348, Note_on_c, 0, 54, 75
1, 569358, Note_on_c, 0, 76, 83
1, 569362, Note_on_c, 0, 69, 72
1, 569373, Note_off_c, 0, 57, 66
1, 569380, Note_off_c, 0, 54, 65
1, 569386, Note_on_c, 0, 68, 12
1, 569428, Poly_aftertouch_c, 0, 55, 127
1, 569439, Note_off_c, 0, 68, 48
1, 569445, Note_on_c, 0, 66, 82
1, 569458, Poly_aftertouch_c, 0, 55, 0
1, 569474, Note_off_c, 0, 69, 54
1, 569498, Note_on_c, 0, 40, 94
1, 569507, Note_on_c, 0, 28, 87
1, 569525, Poly_aftertouch_c, 0, 57, 0
1, 569531, Note_off_c, 0, 40, 65
1, 569539, Note_off_c, 0, 66, 54
1, 569546, Note_off_c, 0, 28, 63
1, 569594, Note_off_c, 0, 76, 61
1, 569679, Note_on_c, 0, 76, 95
1, 569681, Note_on_c, 0, 54, 86
1, 569681, Note_on_c, 0, 69, 81
1, 569683, Note_on_c, 0, 73, 79
1, 569703, Note_on_c, 0, 57, 40
1, 569706, Note_off_c, 0, 54, 69
1, 569730, Note_off_c, 0, 57, 61
1, 569761, Note_on_c, 0, 66, 79
1, 569811, Note_off_c, 0, 69, 57
1, 569841, Note_on_c, 0, 40, 91
1, 569843, Note_on_c, 0, 28, 94
1, 569865, Note_off_c, 0, 40, 67
1, 569868, Note_off_c, 0, 66, 60
1, 569869, Note_off_c, 0, 28, 68
1, 569927, Note_off_c, 0, 73, 59
1, 569932, Note_off_c, 0, 76, 60
1, 569944, Note_on_c, 0, 40, 23
1, 569978, Note_off_c, 0, 40, 55
1, 570014, Note_on_c, 0, 76, 104
1, 570021, Note_on_c, 0, 73, 80
1, 570023, Note_on_c, 0, 69, 81
1, 570023, Note_on_c, 0, 54, 85
1, 570025, Note_on_c, 0, 57, 73
1, 570044, Note_off_c, 0, 57, 66
1, 570047, Note_off_c, 0, 54, 70
1, 570106, Note_on_c, 0, 66, 86
1, 570177, Note_off_c, 0, 73, 63
1, 570184, Note_on_c, 0, 40, 91
1, 570185, Note_on_c, 0, 28, 92
1, 570198, Note_off_c, 0, 66, 56
1, 570206, Note_off_c, 0, 40, 70
1, 570216, Note_off_c, 0, 28, 66
1, 570253, Note_off_c, 0, 76, 56
1, 570295, Note_off_c, 0, 69, 51
1, 570300, Poly_aftertouch_c, 0, 27, 0
1, 570352, Note_on_c, 0, 76, 101
1, 570359, Note_on_c, 0, 73, 79
1, 570363, Note_on_c, 0, 54, 89
1, 570366, Note_on_c, 0, 69, 80
1, 570368, Note_on_c, 0, 57, 71
1, 570383, Note_off_c, 0, 54, 71
1, 570388, Note_off_c, 0, 57, 64
1, 570433, Note_on_c, 0, 66, 80
1, 570479, Control_c, 0, 64, 79
1, 570494, Control_c, 0, 64, 74
1, 570508, Control_c, 0, 64, 83
1, 570518, Note_on_c, 0, 40, 93
1, 570522, Note_on_c, 0, 28, 95
1, 570523, Control_c, 0, 64, 127
1, 570550, Note_off_c, 0, 40, 65
1, 570551, Note_on_c, 0, 29, 39
1, 570552, Note_off_c, 0, 29, 127
1, 570552, Note_off_c, 0, 28, 66
1, 570585, Note_off_c, 0, 66, 38
1, 570589, Poly_aftertouch_c, 0, 29, 0
1, 570605, Note_off_c, 0, 76, 60
1, 570615, Note_off_c, 0, 69, 64
1, 570619, Note_off_c, 0, 73, 63
1, 570698, Note_on_c, 0, 54, 94
1, 570699, Note_on_c, 0, 76, 100
1, 570702, Note_on_c, 0, 57, 72
1, 570703, Note_on_c, 0, 73, 87
1, 570709, Note_on_c, 0, 69, 82
1, 570718, Note_off_c, 0, 57, 69
1, 570722, Note_off_c, 0, 54, 68
1, 570786, Note_on_c, 0, 66, 81
1, 570805, Control_c, 0, 64, 119
1, 570820, Control_c, 0, 64, 111
1, 570842, Poly_aftertouch_c, 0, 54, 127
1, 570843, Control_c, 0, 64, 127
1, 570849, Note_off_c, 0, 69, 48
1, 570863, Note_on_c, 0, 40, 93
1, 570869, Note_on_c, 0, 28, 93
1, 570878, Poly_aftertouch_c, 0, 54, 0
1, 570878, Poly_aftertouch_c, 0, 57, 0
1, 570888, Note_off_c, 0, 40, 69
1, 570904, Note_off_c, 0, 28, 63
1, 570909, Note_off_c, 0, 66, 55
1, 570917, Note_off_c, 0, 73, 54
1, 570942, Note_off_c, 0, 76, 57
1, 571030, Note_on_c, 0, 69, 80
1, 571030, Note_on_c, 0, 74, 84
1, 571031, Note_on_c, 0, 76, 94
1, 571039, Note_on_c, 0, 54, 88
1, 571060, Note_on_c, 0, 57, 41
1, 571062, Note_off_c, 0, 54, 69
1, 571091, Note_off_c, 0, 57, 55
1, 571116, Note_on_c, 0, 66, 76
1, 571176, Poly_aftertouch_c, 0, 54, 0
1, 571194, Note_on_c, 0, 40, 92
1, 571197, Note_on_c, 0, 28, 94
1, 571207, Poly_aftertouch_c, 0, 54, 0
1, 571221, Note_off_c, 0, 28, 66
1, 571227, Note_off_c, 0, 40, 64
1, 571235, Note_off_c, 0, 66, 50
1, 571238, Note_off_c, 0, 76, 49
1, 571241, Note_off_c, 0, 74, 57
1, 571308, Note_off_c, 0, 69, 22
1, 571367, Poly_aftertouch_c, 0, 28, 0
1, 571374, Note_on_c, 0, 73, 89
1, 571376, Note_on_c, 0, 76, 90
1, 571378, Note_on_c, 0, 54, 83
1, 571382, Note_on_c, 0, 69, 90
1, 571397, Note_on_c, 0, 57, 46
1, 571404, Note_off_c, 0, 54, 68
1, 571432, Note_off_c, 0, 57, 55
1, 571453, Note_on_c, 0, 66, 84
1, 571516, Poly_aftertouch_c, 0, 54, 127
1, 571530, Note_on_c, 0, 40, 91
1, 571534, Note_on_c, 0, 28, 87
1, 571558, Poly_aftertouch_c, 0, 54, 0
1, 571558, Note_off_c, 0, 40, 68
1, 571564, Note_off_c, 0, 28, 64
1, 571573, Note_off_c, 0, 66, 53
1, 571627, Note_off_c, 0, 76, 57
1, 571635, Note_off_c, 0, 73, 58
1, 571655, Note_off_c, 0, 69, 21
1, 571712, Note_on_c, 0, 54, 83
1, 571714, Note_on_c, 0, 76, 96
1, 571715, Note_on_c, 0, 73, 85
1, 571718, Note_on_c, 0, 69, 83
1, 571721, Note_on_c, 0, 57, 65
1, 571737, Note_off_c, 0, 54, 68
1, 571740, Note_off_c, 0, 57, 66
1, 571790, Note_on_c, 0, 66, 80
1, 571843, Poly_aftertouch_c, 0, 54, 127
1, 571875, Note_on_c, 0, 40, 92
1, 571877, Note_on_c, 0, 28, 94
1, 571886, Poly_aftertouch_c, 0, 54, 0
1, 571902, Note_off_c, 0, 28, 70
1, 571906, Note_off_c, 0, 40, 66
1, 571938, Note_off_c, 0, 66, 36
1, 571957, Note_off_c, 0, 76, 58
1, 571968, Note_off_c, 0, 69, 60
1, 571975, Note_off_c, 0, 73, 63
1, 572055, Note_on_c, 0, 73, 92
1, 572055, Note_on_c, 0, 76, 95
1, 572058, Note_on_c, 0, 54, 90
1, 572059, Note_on_c, 0, 69, 92
1, 572071, Note_on_c, 0, 57, 59
1, 572078, Note_off_c, 0, 54, 70
1, 572096, Note_off_c, 0, 57, 60
1, 572130, Note_on_c, 0, 66, 82
1, 572174, Note_off_c, 0, 69, 62
1, 572205, Poly_aftertouch_c, 0, 54, 0
1, 572211, Note_off_c, 0, 76, 60
1, 572219, Note_on_c, 0, 40, 89
1, 572220, Note_on_c, 0, 28, 93
1, 572223, Poly_aftertouch_c, 0, 54, 0
1, 572226, Note_off_c, 0, 73, 56
1, 572234, Note_off_c, 0, 66, 50
1, 572248, Note_off_c, 0, 40, 67
1, 572251, Note_off_c, 0, 28, 67
1, 572393, Note_on_c, 0, 74, 89
1, 572396, Note_on_c, 0, 69, 92
1, 572402, Note_on_c, 0, 76, 85
1, 572406, Note_on_c, 0, 54, 86
1, 572410, Note_on_c, 0, 57, 74
1, 572425, Note_off_c, 0, 57, 68
1, 572428, Note_off_c, 0, 54, 69
1, 572481, Note_on_c, 0, 66, 79
1, 572543, Poly_aftertouch_c, 0, 54, 0
1, 572555, Note_off_c, 0, 69, 57
1, 572566, Note_on_c, 0, 40, 90
1, 572568, Note_on_c, 0, 28, 92
1, 572572, Poly_aftertouch_c, 0, 54, 0
1, 572577, Poly_aftertouch_c, 0, 57, 0
1, 572581, Note_off_c, 0, 74, 55
1, 572592, Note_off_c, 0, 40, 66
1, 572601, Note_off_c, 0, 28, 65
1, 572606, Note_off_c, 0, 66, 46
1, 572641, Note_off_c, 0, 76, 27
1, 572727, Note_on_c, 0, 73, 88
1, 572729, Note_on_c, 0, 69, 90
1, 572731, Note_on_c, 0, 76, 90
1, 572734, Note_on_c, 0, 54, 90
1, 572741, Note_on_c, 0, 57, 78
1, 572756, Note_off_c, 0, 57, 69
1, 572767, Note_off_c, 0, 54, 63
1, 572813, Note_on_c, 0, 66, 80
1, 572848, Note_off_c, 0, 69, 64
1, 572870, Note_off_c, 0, 76, 61
1, 572870, Poly_aftertouch_c, 0, 57, 127
1, 572871, Note_off_c, 0, 73, 64
1, 572896, Note_on_c, 0, 40, 95
1, 572900, Note_on_c, 0, 28, 93
1, 572908, Poly_aftertouch_c, 0, 57, 0
1, 572922, Note_off_c, 0, 28, 72
1, 572924, Note_off_c, 0, 40, 66
1, 572931, Note_off_c, 0, 66, 55
1, 573062, Poly_aftertouch_c, 0, 28, 0
1, 573063, Note_on_c, 0, 69, 93
1, 573064, Note_on_c, 0, 74, 88
1, 573069, Note_on_c, 0, 76, 92
1, 573070, Note_on_c, 0, 54, 86
1, 573086, Note_on_c, 0, 57, 65
1, 573102, Note_off_c, 0, 57, 68
1, 573105, Note_off_c, 0, 54, 68
1, 573150, Note_on_c, 0, 66, 79
1, 573236, Note_on_c, 0, 40, 93
1, 573244, Note_on_c, 0, 28, 91
1, 573254, Note_off_c, 0, 69, 52
1, 573258, Poly_aftertouch_c, 0, 54, 0
1, 573266, Note_off_c, 0, 74, 60
1, 573269, Note_off_c, 0, 40, 66
1, 573274, Note_off_c, 0, 28, 63
1, 573276, Note_off_c, 0, 76, 50
1, 573352, Note_off_c, 0, 66, 29
1, 573412, Note_on_c, 0, 73, 84
1, 573414, Note_on_c, 0, 69, 86
1, 573415, Note_on_c, 0, 54, 81
1, 573417, Note_on_c, 0, 76, 87
1, 573419, Note_on_c, 0, 57, 72
1, 573439, Note_off_c, 0, 57, 64
1, 573441, Note_off_c, 0, 54, 66
1, 573499, Note_on_c, 0, 66, 80
1, 573540, Note_off_c, 0, 69, 63
1, 573573, Note_on_c, 0, 40, 89
1, 573576, Note_on_c, 0, 28, 92
1, 573576, Note_off_c, 0, 73, 51
1, 573602, Note_off_c, 0, 40, 66
1, 573606, Note_off_c, 0, 28, 67
1, 573621, Note_off_c, 0, 66, 57
1, 573657, Note_off_c, 0, 76, 52
1, 573737, Note_on_c, 0, 69, 86
1, 573739, Note_on_c, 0, 73, 87
1, 573743, Note_on_c, 0, 76, 88
1, 573747, Note_on_c, 0, 56, 90
1, 573757, Note_on_c, 0, 59, 63
1, 573771, Note_off_c, 0, 56, 68
1, 573776, Note_off_c, 0, 59, 66
1, 573778, Note_on_c, 0, 57, 37
1, 573809, Note_off_c, 0, 57, 52
1, 573832, Note_on_c, 0, 66, 85
1, 573869, Poly_aftertouch_c, 0, 54, 0
1, 573877, Note_off_c, 0, 69, 59
1, 573892, Note_off_c, 0, 73, 52
1, 573918, Poly_aftertouch_c, 0, 56, 0
1, 573922, Note_on_c, 0, 38, 85
1, 573931, Note_on_c, 0, 28, 71
1, 573932, Note_on_c, 0, 26, 71
1, 573934, Note_off_c, 0, 66, 48
1, 573947, Note_off_c, 0, 38, 66
1, 573962, Note_off_c, 0, 26, 56
1, 573966, Note_off_c, 0, 28, 62
1, 573994, Note_off_c, 0, 76, 58
1, 574071, Note_on_c, 0, 73, 55
1, 574077, Note_on_c, 0, 69, 64
1, 574086, Note_on_c, 0, 54, 85
1, 574092, Note_on_c, 0, 76, 74
1, 574104, Poly_aftertouch_c, 0, 38, 0
1, 574107, Note_on_c, 0, 57, 49
1, 574113, Note_off_c, 0, 54, 66
1, 574135, Note_off_c, 0, 57, 57
1, 574138, Note_on_c, 0, 66, 88
1, 574175, Note_off_c, 0, 73, 63
1, 574197, Note_off_c, 0, 66, 64
1, 574197, Note_off_c, 0, 69, 53
1, 574208, Note_off_c, 0, 76, 53
1, 574238, Control_c, 0, 64, 77
1, 574253, Control_c, 0, 64, 42
1, 574259, Note_on_c, 0, 76, 82
1, 574262, Note_on_c, 0, 40, 92
1, 574265, Note_on_c, 0, 64, 110
1, 574268, Control_c, 0, 64, 33
1, 574269, Note_on_c, 0, 28, 89
1, 574281, Note_on_c, 0, 69, 68
1, 574282, Control_c, 0, 64, 62
1, 574292, Note_off_c, 0, 28, 67
1, 574294, Note_off_c, 0, 40, 63
1, 574297, Control_c, 0, 64, 127
1, 574304, Note_off_c, 0, 69, 68
1, 574432, Note_on_c, 0, 54, 83
1, 574433, Note_on_c, 0, 69, 59
1, 574436, Poly_aftertouch_c, 0, 28, 0
1, 574439, Note_on_c, 0, 57, 68
1, 574445, Note_on_c, 0, 74, 73
1, 574459, Note_off_c, 0, 54, 67
1, 574459, Note_off_c, 0, 57, 64
1, 574477, Note_off_c, 0, 76, 64
1, 574495, Note_off_c, 0, 64, 61
1, 574496, Note_off_c, 0, 69, 61
1, 574515, Note_off_c, 0, 74, 65
1, 574601, Control_c, 0, 64, 78
1, 574616, Control_c, 0, 64, 27
1, 574620, Poly_aftertouch_c, 0, 54, 0
1, 574627, Note_on_c, 0, 64, 112
1, 574628, Note_on_c, 0, 76, 99
1, 574629, Note_on_c, 0, 40, 93
1, 574631, Control_c, 0, 64, 0
1, 574634, Note_on_c, 0, 28, 96
1, 574646, Control_c, 0, 64, 40
1, 574661, Control_c, 0, 64, 71
1, 574662, Note_off_c, 0, 40, 64
1, 574664, Note_off_c, 0, 28, 68
1, 574676, Control_c, 0, 64, 127
1, 574765, Poly_aftertouch_c, 0, 73, 0
1, 574799, Note_on_c, 0, 69, 77
1, 574800, Note_on_c, 0, 54, 83
1, 574800, Note_on_c, 0, 57, 76
1, 574803, Note_on_c, 0, 73, 72
1, 574825, Note_off_c, 0, 57, 65
1, 574826, Note_off_c, 0, 54, 67
1, 574830, Note_off_c, 0, 76, 63
1, 574843, Note_off_c, 0, 64, 61
1, 574849, Note_off_c, 0, 69, 63
1, 574873, Note_off_c, 0, 73, 65
1, 574928, Control_c, 0, 64, 104
1, 574937, Poly_aftertouch_c, 0, 54, 127
1, 574943, Control_c, 0, 64, 108
1, 574958, Control_c, 0, 64, 127
1, 574964, Note_on_c, 0, 64, 107
1, 574966, Note_on_c, 0, 76, 103
1, 574970, Note_on_c, 0, 40, 94
1, 574971, Note_on_c, 0, 28, 87
1, 574976, Poly_aftertouch_c, 0, 54, 0
1, 575001, Note_off_c, 0, 28, 67
1, 575004, Note_off_c, 0, 40, 63
1, 575133, Note_on_c, 0, 54, 86
1, 575135, Note_on_c, 0, 57, 80
1, 575143, Note_on_c, 0, 69, 74
1, 575149, Note_on_c, 0, 74, 75
1, 575159, Note_off_c, 0, 54, 68
1, 575162, Note_off_c, 0, 57, 65
1, 575181, Note_off_c, 0, 76, 61
1, 575189, Note_on_c, 0, 51, 10
1, 575217, Note_off_c, 0, 74, 63
1, 575220, Note_off_c, 0, 69, 56
1, 575222, Note_off_c, 0, 64, 62
1, 575235, Note_off_c, 0, 51, 52
1, 575284, Control_c, 0, 64, 78
1, 575298, Control_c, 0, 64, 14
1, 575313, Control_c, 0, 64, 0
1, 575335, Note_on_c, 0, 40, 94
1, 575337, Note_on_c, 0, 64, 99
1, 575338, Note_on_c, 0, 76, 94
1, 575340, Note_on_c, 0, 28, 99
1, 575365, Control_c, 0, 64, 44
1, 575365, Note_off_c, 0, 28, 69
1, 575368, Note_off_c, 0, 40, 65
1, 575379, Control_c, 0, 64, 75
1, 575394, Control_c, 0, 64, 127
1, 575505, Poly_aftertouch_c, 0, 28, 0
1, 575508, Note_off_c, 0, 64, 63
1, 575509, Note_on_c, 0, 69, 59
1, 575510, Note_on_c, 0, 73, 76
1, 575513, Note_on_c, 0, 54, 74
1, 575513, Note_on_c, 0, 57, 71
1, 575519, Note_off_c, 0, 76, 63
1, 575529, Note_off_c, 0, 69, 64
1, 575531, Note_off_c, 0, 54, 70
1, 575532, Note_off_c, 0, 57, 65
1, 575544, Note_off_c, 0, 73, 65
1, 575688, Note_on_c, 0, 76, 97
1, 575689, Note_on_c, 0, 88, 100
1, 575702, Note_on_c, 0, 71, 78
1, 575704, Note_on_c, 0, 59, 75
1, 575717, Note_on_c, 0, 86, 47
1, 575718, Note_off_c, 0, 86, 127
1, 575743, Note_off_c, 0, 76, 58
1, 575747, Note_off_c, 0, 71, 64
1, 575770, Note_off_c, 0, 59, 63
1, 575809, Note_on_c, 0, 86, 14
1, 575847, Note_on_c, 0, 62, 72
1, 575856, Note_off_c, 0, 88, 56
1, 575859, Note_off_c, 0, 86, 47
1, 575865, Note_on_c, 0, 74, 87
1, 575887, Note_off_c, 0, 62, 64
1, 575922, Note_off_c, 0, 74, 65
1, 575988, Control_c, 0, 64, 90
1, 576002, Control_c, 0, 64, 86
1, 576017, Control_c, 0, 64, 124
1, 576029, Note_on_c, 0, 73, 87
1, 576032, Control_c, 0, 64, 127
1, 576034, Note_on_c, 0, 61, 81
1, 576040, Note_on_c, 0, 76, 108
1, 576042, Note_on_c, 0, 88, 100
1, 576047, Note_off_c, 0, 73, 73
1, 576048, Note_on_c, 0, 85, 95
1, 576080, Note_off_c, 0, 61, 67
1, 576117, Note_on_c, 0, 73, 35
1, 576138, Note_off_c, 0, 73, 61
1, 576210, Note_on_c, 0, 40, 93
1, 576214, Note_on_c, 0, 28, 90
1, 576231, Note_off_c, 0, 88, 63
1, 576237, Note_off_c, 0, 40, 67
1, 576247, Note_off_c, 0, 28, 65
1, 576248, Note_off_c, 0, 85, 56
1, 576266, Note_off_c, 0, 76, 0
1, 576266, Note_on_c, 0, 76, 11
1, 576290, Note_off_c, 0, 76, 49
1, 576336, Control_c, 0, 64, 79
1, 576351, Control_c, 0, 64, 39
1, 576366, Control_c, 0, 64, 15
1, 576381, Control_c, 0, 64, 59
1, 576396, Note_on_c, 0, 76, 100
1, 576396, Note_on_c, 0, 88, 99
1, 576396, Control_c, 0, 64, 127
1, 576399, Note_on_c, 0, 83, 95
1, 576400, Note_on_c, 0, 60, 94
1, 576402, Note_on_c, 0, 59, 92
1, 576420, Note_off_c, 0, 60, 69
1, 576423, Note_off_c, 0, 59, 71
1, 576495, Note_on_c, 0, 60, 23
1, 576503, Note_on_c, 0, 59, 12
1, 576520, Note_off_c, 0, 60, 48
1, 576539, Note_off_c, 0, 59, 38
1, 576569, Note_on_c, 0, 28, 98
1, 576569, Note_on_c, 0, 40, 93
1, 576594, Note_off_c, 0, 28, 69
1, 576596, Note_off_c, 0, 40, 66
1, 576608, Note_off_c, 0, 83, 63
1, 576666, Note_off_c, 0, 76, 60
1, 576677, Control_c, 0, 64, 122
1, 576692, Control_c, 0, 64, 59
1, 576705, Note_off_c, 0, 88, 35
1, 576707, Control_c, 0, 64, 0
1, 576759, Note_on_c, 0, 76, 102
1, 576762, Note_on_c, 0, 88, 100
1, 576763, Note_on_c, 0, 81, 92
1, 576764, Note_on_c, 0, 69, 93
1, 576766, Control_c, 0, 64, 65
1, 576767, Note_on_c, 0, 57, 96
1, 576781, Control_c, 0, 64, 127
1, 576783, Note_off_c, 0, 69, 72
1, 576798, Note_off_c, 0, 57, 64
1, 576863, Note_on_c, 0, 69, 26
1, 576868, Poly_aftertouch_c, 0, 80, 127
1, 576900, Note_off_c, 0, 69, 55
1, 576938, Note_on_c, 0, 29, 84
1, 576940, Note_on_c, 0, 40, 87
1, 576941, Note_on_c, 0, 28, 89
1, 576950, Note_on_c, 0, 41, 59
1, 576961, Note_off_c, 0, 29, 66
1, 576961, Note_off_c, 0, 40, 68
1, 576965, Note_off_c, 0, 28, 66
1, 576967, Poly_aftertouch_c, 0, 80, 0
1, 576978, Note_off_c, 0, 41, 58
1, 576998, Note_off_c, 0, 81, 57
1, 577000, Note_off_c, 0, 88, 62
1, 577004, Note_off_c, 0, 76, 57
1, 577027, Note_on_c, 0, 40, 21
1, 577054, Note_off_c, 0, 40, 61
1, 577108, Note_on_c, 0, 76, 94
1, 577109, Note_on_c, 0, 64, 95
1, 577112, Note_on_c, 0, 83, 101
1, 577123, Note_on_c, 0, 52, 82
1, 577129, Note_on_c, 0, 53, 71
1, 577134, Note_off_c, 0, 64, 68
1, 577150, Note_off_c, 0, 53, 66
1, 577151, Note_off_c, 0, 52, 67
1, 577168, Note_off_c, 0, 76, 64
1, 577174, Note_off_c, 0, 83, 65
1, 577276, Note_on_c, 0, 52, 76
1, 577281, Note_on_c, 0, 40, 93
1, 577287, Note_on_c, 0, 76, 86
1, 577287, Note_on_c, 0, 86, 92
1, 577289, Note_on_c, 0, 74, 87
1, 577306, Note_off_c, 0, 52, 67
1, 577311, Note_off_c, 0, 40, 63
1, 577320, Note_off_c, 0, 76, 63
1, 577323, Note_off_c, 0, 74, 64
1, 577329, Note_off_c, 0, 86, 66
1, 577381, Control_c, 0, 64, 87
1, 577396, Control_c, 0, 64, 31
1, 577411, Control_c, 0, 64, 0
1, 577454, Note_on_c, 0, 85, 94
1, 577454, Note_on_c, 0, 73, 95
1, 577455, Note_on_c, 0, 81, 83
1, 577455, Control_c, 0, 64, 63
1, 577457, Note_on_c, 0, 69, 95
1, 577461, Note_on_c, 0, 57, 92
1, 577470, Control_c, 0, 64, 127
1, 577481, Note_off_c, 0, 69, 69
1, 577490, Note_off_c, 0, 81, 64
1, 577499, Note_off_c, 0, 57, 63
1, 577506, Note_off_c, 0, 73, 62
1, 577515, Note_off_c, 0, 85, 64
1, 577566, Poly_aftertouch_c, 0, 75, 0
1, 577630, Note_on_c, 0, 50, 93
1, 577640, Note_on_c, 0, 40, 74
1, 577643, Note_on_c, 0, 38, 66
1, 577643, Note_on_c, 0, 69, 75
1, 577645, Note_on_c, 0, 67, 78
1, 577651, Note_off_c, 0, 50, 71
1, 577669, Note_off_c, 0, 67, 66
1, 577669, Note_off_c, 0, 38, 60
1, 577671, Note_off_c, 0, 40, 56
1, 577689, Note_off_c, 0, 69, 63
1, 577743, Control_c, 0, 64, 95
1, 577758, Control_c, 0, 64, 62
1, 577773, Control_c, 0, 64, 41
1, 577788, Control_c, 0, 64, 53
1, 577803, Note_on_c, 0, 68, 94
1, 577803, Control_c, 0, 64, 78
1, 577805, Note_on_c, 0, 80, 92
1, 577805, Note_on_c, 0, 83, 94
1, 577806, Note_on_c, 0, 71, 101
1, 577812, Note_on_c, 0, 56, 92
1, 577818, Control_c, 0, 64, 127
1, 577828, Note_off_c, 0, 68, 66
1, 577839, Note_on_c, 0, 58, 37
1, 577841, Note_off_c, 0, 71, 66
1, 577851, Note_off_c, 0, 80, 63
1, 577853, Note_off_c, 0, 83, 65
1, 577860, Note_off_c, 0, 56, 61
1, 577869, Note_off_c, 0, 58, 49
1, 577973, Note_on_c, 0, 68, 90
1, 577975, Note_on_c, 0, 40, 76
1, 577976, Note_on_c, 0, 52, 76
1, 577985, Note_on_c, 0, 50, 56
1, 578003, Note_off_c, 0, 52, 66
1, 578003, Note_off_c, 0, 40, 63
1, 578009, Note_off_c, 0, 50, 61
1, 578029, Note_off_c, 0, 68, 63
1, 578059, Poly_aftertouch_c, 0, 38, 0
1, 578077, Poly_aftertouch_c, 0, 38, 0
1, 578093, Poly_aftertouch_c, 0, 80, 0
1, 578100, Control_c, 0, 64, 75
1, 578115, Control_c, 0, 64, 0
1, 578149, Note_on_c, 0, 81, 86
1, 578151, Note_on_c, 0, 69, 96
1, 578152, Note_on_c, 0, 78, 91
1, 578158, Note_on_c, 0, 66, 84
1, 578159, Control_c, 0, 64, 66
1, 578162, Note_on_c, 0, 54, 92
1, 578174, Control_c, 0, 64, 127
1, 578179, Note_off_c, 0, 66, 69
1, 578191, Note_off_c, 0, 81, 65
1, 578193, Note_off_c, 0, 69, 67
1, 578198, Note_off_c, 0, 78, 64
1, 578214, Note_off_c, 0, 54, 61
1, 578238, Note_on_c, 0, 66, 39
1, 578262, Note_off_c, 0, 66, 60
1, 578356, Note_on_c, 0, 61, 87
1, 578380, Note_on_c, 0, 57, 35
1, 578384, Note_off_c, 0, 61, 68
1, 578399, Note_on_c, 0, 64, 25
1, 578413, Note_off_c, 0, 57, 60
1, 578416, Note_on_c, 0, 54, 91
1, 578423, Poly_aftertouch_c, 0, 39, 127
1, 578438, Note_off_c, 0, 64, 45
1, 578454, Poly_aftertouch_c, 0, 39, 0
1, 578459, Note_off_c, 0, 54, 65
1, 578500, Note_on_c, 0, 40, 102
1, 578503, Note_on_c, 0, 28, 95
1, 578533, Note_off_c, 0, 28, 68
1, 578536, Note_off_c, 0, 40, 66
1, 578663, Note_on_c, 0, 66, 98
1, 578667, Note_on_c, 0, 76, 95
1, 578673, Note_on_c, 0, 69, 69
1, 578675, Note_on_c, 0, 74, 78
1, 578683, Note_on_c, 0, 54, 74
1, 578685, Note_on_c, 0, 42, 60
1, 578691, Note_off_c, 0, 69, 67
1, 578697, Note_off_c, 0, 74, 69
1, 578699, Note_off_c, 0, 66, 62
1, 578703, Note_on_c, 0, 44, 47
1, 578709, Note_off_c, 0, 42, 61
1, 578709, Note_off_c, 0, 54, 67
1, 578710, Note_off_c, 0, 76, 66
1, 578733, Note_off_c, 0, 44, 59
1, 578773, Note_on_c, 0, 74, 19
1, 578790, Control_c, 0, 64, 77
1, 578793, Note_off_c, 0, 74, 38
1, 578805, Control_c, 0, 64, 0
1, 578849, Control_c, 0, 64, 41
1, 578855, Note_on_c, 0, 59, 86
1, 578857, Note_on_c, 0, 47, 92
1, 578858, Note_on_c, 0, 69, 105
1, 578858, Note_on_c, 0, 81, 95
1, 578863, Note_on_c, 0, 57, 88
1, 578864, Control_c, 0, 64, 79
1, 578879, Control_c, 0, 64, 127
1, 578879, Note_off_c, 0, 59, 69
1, 578885, Note_off_c, 0, 57, 67
1, 578897, Note_off_c, 0, 47, 68
1, 578939, Poly_aftertouch_c, 0, 49, 0
1, 578953, Note_off_c, 0, 69, 64
1, 578976, Poly_aftertouch_c, 0, 49, 0
1, 578980, Note_off_c, 0, 81, 55
1, 579003, Poly_aftertouch_c, 0, 59, 0
1, 579022, Note_on_c, 0, 28, 85
1, 579022, Note_on_c, 0, 38, 81
1, 579022, Note_on_c, 0, 40, 84
1, 579022, Poly_aftertouch_c, 0, 59, 0
1, 579023, Note_on_c, 0, 26, 82
1, 579026, Note_on_c, 0, 69, 78
1, 579026, Note_on_c, 0, 78, 79
1, 579028, Note_on_c, 0, 73, 63
1, 579045, Note_off_c, 0, 28, 63
1, 579047, Note_off_c, 0, 40, 66
1, 579049, Note_off_c, 0, 38, 65
1, 579050, Note_on_c, 0, 27, 31
1, 579051, Note_off_c, 0, 27, 127
1, 579051, Note_off_c, 0, 26, 59
1, 579055, Note_off_c, 0, 73, 68
1, 579064, Note_off_c, 0, 69, 63
1, 579083, Note_off_c, 0, 78, 64
1, 579100, Poly_aftertouch_c, 0, 27, 0
1, 579138, Control_c, 0, 64, 81
1, 579152, Control_c, 0, 64, 53
1, 579167, Control_c, 0, 64, 34
1, 579174, Poly_aftertouch_c, 0, 40, 0
1, 579182, Control_c, 0, 64, 59
1, 579193, Note_on_c, 0, 68, 101
1, 579196, Note_on_c, 0, 80, 96
1, 579196, Control_c, 0, 64, 100
1, 579197, Note_on_c, 0, 64, 94
1, 579199, Note_on_c, 0, 52, 96
1, 579211, Control_c, 0, 64, 127
1, 579214, Note_off_c, 0, 80, 70
1, 579217, Note_off_c, 0, 64, 70
1, 579234, Note_off_c, 0, 68, 65
1, 579237, Note_off_c, 0, 52, 67
1, 579362, Note_on_c, 0, 40, 90
1, 579364, Note_on_c, 0, 69, 64
1, 579365, Note_on_c, 0, 76, 84
1, 579368, Note_on_c, 0, 28, 73
1, 579370, Note_on_c, 0, 66, 92
1, 579377, Note_on_c, 0, 29, 64
1, 579383, Note_off_c, 0, 40, 68
1, 579391, Note_off_c, 0, 69, 68
1, 579401, Note_off_c, 0, 28, 55
1, 579407, Note_off_c, 0, 29, 56
1, 579425, Note_off_c, 0, 66, 63
1, 579433, Note_off_c, 0, 76, 63
1, 579445, Poly_aftertouch_c, 0, 74, 127
1, 579467, Poly_aftertouch_c, 0, 74, 0
1, 579478, Control_c, 0, 64, 60
1, 579489, Note_on_c, 0, 40, 2
1, 579493, Control_c, 0, 64, 0
1, 579524, Note_off_c, 0, 40, 36
1, 579529, Note_on_c, 0, 64, 104
1, 579534, Note_on_c, 0, 78, 101
1, 579536, Note_on_c, 0, 66, 107
1, 579538, Control_c, 0, 64, 50
1, 579553, Control_c, 0, 64, 91
1, 579555, Note_off_c, 0, 64, 68
1, 579568, Control_c, 0, 64, 127
1, 579573, Note_off_c, 0, 66, 65
1, 579577, Note_off_c, 0, 78, 62
1, 579708, Note_on_c, 0, 54, 87
1, 579717, Note_on_c, 0, 65, 83
1, 579756, Note_off_c, 0, 54, 61
1, 579759, Note_on_c, 0, 64, 33
1, 579760, Note_off_c, 0, 65, 55
1, 579769, Poly_aftertouch_c, 0, 39, 127
1, 579801, Note_off_c, 0, 64, 44
1, 579815, Poly_aftertouch_c, 0, 39, 0
1, 579878, Note_on_c, 0, 40, 99
1, 579882, Note_on_c, 0, 59, 85
1, 579885, Note_on_c, 0, 28, 85
1, 579893, Note_on_c, 0, 29, 81
1, 579902, Note_off_c, 0, 40, 70
1, 579906, Note_off_c, 0, 59, 70
1, 579914, Note_off_c, 0, 28, 65
1, 579922, Note_off_c, 0, 29, 53
1, 580026, Poly_aftertouch_c, 0, 59, 0
1, 580051, Poly_aftertouch_c, 0, 59, 0
1, 580053, Note_on_c, 0, 62, 92
1, 580055, Note_on_c, 0, 68, 89
1, 580057, Note_on_c, 0, 80, 93
1, 580069, Note_on_c, 0, 75, 60
1, 580075, Note_off_c, 0, 68, 71
1, 580077, Note_off_c, 0, 62, 70
1, 580089, Note_off_c, 0, 75, 65
1, 580110, Note_off_c, 0, 80, 60
1, 580181, Poly_aftertouch_c, 0, 68, 127
1, 580197, Control_c, 0, 64, 83
1, 580212, Control_c, 0, 64, 52
1, 580215, Poly_aftertouch_c, 0, 68, 0
1, 580226, Control_c, 0, 64, 46
1, 580231, Note_on_c, 0, 61, 81
1, 580231, Note_on_c, 0, 71, 97
1, 580232, Note_on_c, 0, 83, 99
1, 580234, Note_on_c, 0, 73, 95
1, 580241, Control_c, 0, 64, 71
1, 580254, Note_off_c, 0, 71, 67
1, 580256, Control_c, 0, 64, 127
1, 580272, Note_off_c, 0, 73, 63
1, 580280, Note_off_c, 0, 83, 69
1, 580386, Note_on_c, 0, 57, 81
1, 580388, Note_on_c, 0, 64, 83
1, 580392, Note_on_c, 0, 54, 72
1, 580401, Note_off_c, 0, 61, 62
1, 580418, Note_off_c, 0, 57, 66
1, 580420, Note_off_c, 0, 64, 65
1, 580423, Note_off_c, 0, 54, 66
1, 580559, Note_on_c, 0, 88, 91
1, 580561, Note_on_c, 0, 76, 106
1, 580574, Note_on_c, 0, 71, 94
1, 580581, Note_on_c, 0, 59, 89
1, 580601, Note_off_c, 0, 88, 68
1, 580606, Note_off_c, 0, 76, 67
1, 580607, Note_off_c, 0, 71, 68
1, 580665, Note_off_c, 0, 59, 0
1, 580680, Poly_aftertouch_c, 0, 87, 0
1, 580703, Poly_aftertouch_c, 0, 59, 127
1, 580707, Note_on_c, 0, 59, 18
1, 580726, Note_off_c, 0, 59, 49
1, 580729, Note_on_c, 0, 66, 86
1, 580738, Note_on_c, 0, 77, 68
1, 580742, Note_on_c, 0, 76, 76
1, 580749, Note_off_c, 0, 66, 70
1, 580768, Note_off_c, 0, 76, 66
1, 580770, Note_off_c, 0, 77, 67
1, 580796, Note_on_c, 0, 69, 23
1, 580835, Note_off_c, 0, 69, 55
1, 580857, Control_c, 0, 64, 98
1, 580872, Control_c, 0, 64, 51
1, 580887, Control_c, 0, 64, 0
1, 580911, Note_on_c, 0, 69, 99
1, 580916, Note_on_c, 0, 57, 97
1, 580916, Control_c, 0, 64, 13
1, 580920, Note_on_c, 0, 81, 85
1, 580921, Note_on_c, 0, 76, 92
1, 580921, Note_on_c, 0, 88, 104
1, 580931, Control_c, 0, 64, 77
1, 580946, Note_off_c, 0, 69, 67
1, 580946, Control_c, 0, 64, 127
1, 580964, Note_off_c, 0, 57, 65
1, 581023, Note_off_c, 0, 88, 66
1, 581034, Note_off_c, 0, 76, 62
1, 581042, Note_off_c, 0, 81, 64
1, 581080, Note_on_c, 0, 40, 100
1, 581084, Note_on_c, 0, 28, 95
1, 581111, Note_off_c, 0, 40, 65
1, 581112, Note_off_c, 0, 28, 65
1, 581226, Poly_aftertouch_c, 0, 71, 0
1, 581259, Note_on_c, 0, 83, 99
1, 581261, Note_on_c, 0, 71, 83
1, 581263, Note_on_c, 0, 68, 94
1, 581270, Note_on_c, 0, 56, 82
1, 581290, Note_off_c, 0, 68, 62
1, 581291, Note_off_c, 0, 71, 64
1, 581298, Note_off_c, 0, 56, 65
1, 581298, Note_off_c, 0, 83, 68
1, 581433, Note_on_c, 0, 66, 96
1, 581440, Note_on_c, 0, 74, 95
1, 581440, Note_on_c, 0, 86, 106
1, 581441, Note_on_c, 0, 54, 91
1, 581465, Note_off_c, 0, 54, 69
1, 581475, Note_off_c, 0, 74, 65
1, 581475, Note_off_c, 0, 66, 64
1, 581477, Note_off_c, 0, 86, 66
1, 581571, Poly_aftertouch_c, 0, 54, 127
1, 581577, Control_c, 0, 64, 88
1, 581592, Control_c, 0, 64, 40
1, 581606, Control_c, 0, 64, 0
1, 581610, Poly_aftertouch_c, 0, 54, 0
1, 581620, Note_on_c, 0, 73, 95
1, 581620, Note_on_c, 0, 85, 104
1, 581621, Note_on_c, 0, 64, 103
1, 581627, Note_on_c, 0, 52, 92
1, 581636, Control_c, 0, 64, 55
1, 581648, Note_on_c, 0, 75, 60
1, 581651, Control_c, 0, 64, 92
1, 581665, Control_c, 0, 64, 127
1, 581670, Note_off_c, 0, 64, 61
1, 581753, Note_off_c, 0, 75, 25
1, 581765, Note_off_c, 0, 52, 43
1, 581769, Note_off_c, 0, 85, 60
1, 581782, Note_off_c, 0, 73, 63
1, 581789, Note_on_c, 0, 54, 45
1, 581790, Note_on_c, 0, 61, 91
1, 581792, Note_on_c, 0, 64, 71
1, 581800, Note_on_c, 0, 57, 80
1, 581821, Note_off_c, 0, 64, 66
1, 581828, Note_off_c, 0, 61, 66
1, 581840, Note_off_c, 0, 57, 63
1, 581854, Note_off_c, 0, 54, 64
1, 581917, Control_c, 0, 64, 91
1, 581932, Control_c, 0, 64, 49
1, 581948, Control_c, 0, 64, 0
1, 581962, Control_c, 0, 64, 23
1, 581967, Note_on_c, 0, 28, 101
1, 581967, Note_on_c, 0, 40, 96
1, 581969, Note_on_c, 0, 71, 92
1, 581970, Note_on_c, 0, 41, 95
1, 581972, Note_on_c, 0, 83, 105
1, 581977, Control_c, 0, 64, 64
1, 581991, Note_off_c, 0, 28, 67
1, 581992, Control_c, 0, 64, 116
1, 581995, Note_off_c, 0, 40, 68
1, 581996, Note_off_c, 0, 41, 66
1, 582007, Control_c, 0, 64, 127
1, 582012, Note_on_c, 0, 29, 26
1, 582054, Note_off_c, 0, 29, 48
1, 582121, Poly_aftertouch_c, 0, 41, 127
1, 582124, Note_off_c, 0, 71, 52
1, 582143, Note_on_c, 0, 64, 89
1, 582149, Note_on_c, 0, 54, 79
1, 582150, Note_on_c, 0, 62, 77
1, 582152, Poly_aftertouch_c, 0, 41, 0
1, 582156, Note_off_c, 0, 83, 55
1, 582160, Note_on_c, 0, 57, 61
1, 582192, Note_off_c, 0, 62, 61
1, 582194, Note_off_c, 0, 64, 63
1, 582200, Note_off_c, 0, 57, 64
1, 582203, Note_off_c, 0, 54, 61
1, 582282, Control_c, 0, 64, 61
1, 582296, Control_c, 0, 64, 0
1, 582321, Note_on_c, 0, 64, 105
1, 582325, Note_on_c, 0, 76, 97
1, 582325, Note_on_c, 0, 81, 96
1, 582326, Control_c, 0, 64, 54
1, 582328, Note_on_c, 0, 69, 95
1, 582341, Control_c, 0, 64, 102
1, 582356, Control_c, 0, 64, 127
1, 582358, Note_off_c, 0, 64, 66
1, 582435, Note_off_c, 0, 69, 64
1, 582444, Note_off_c, 0, 76, 62
1, 582449, Note_off_c, 0, 81, 62
1, 582457, Poly_aftertouch_c, 0, 80, 0
1, 582488, Note_on_c, 0, 40, 92
1, 582492, Note_on_c, 0, 28, 95
1, 582519, Note_off_c, 0, 40, 65
1, 582525, Note_off_c, 0, 28, 65
1, 582546, Note_on_c, 0, 27, 12
1, 582602, Note_off_c, 0, 27, 37
1, 582671, Note_on_c, 0, 68, 96
1, 582672, Note_on_c, 0, 80, 89
1, 582682, Note_on_c, 0, 64, 109
1, 582708, Note_off_c, 0, 64, 72
1, 582714, Note_off_c, 0, 80, 64
1, 582718, Note_off_c, 0, 68, 65
1, 582811, Note_on_c, 0, 73, 17
1, 582856, Note_on_c, 0, 78, 92
1, 582863, Note_off_c, 0, 73, 39
1, 582870, Note_on_c, 0, 66, 87
1, 582871, Note_on_c, 0, 69, 67
1, 582959, Note_off_c, 0, 78, 63
1, 582984, Note_off_c, 0, 69, 0
1, 582993, Note_off_c, 0, 66, 58
1, 583021, Poly_aftertouch_c, 0, 69, 127
1, 583057, Note_on_c, 0, 64, 118
1, 583064, Note_on_c, 0, 76, 92
1, 583076, Note_on_c, 0, 69, 21
1, 583082, Note_off_c, 0, 64, 71
1, 583094, Note_on_c, 0, 66, 66
1, 583116, Note_off_c, 0, 69, 53
1, 583127, Note_off_c, 0, 66, 59
1, 583223, Note_off_c, 0, 76, 57
1, 583239, Note_on_c, 0, 66, 76
1, 583241, Note_on_c, 0, 73, 87
1, 583261, Note_off_c, 0, 66, 68
1, 583285, Note_off_c, 0, 73, 69
1, 583445, Note_on_c, 0, 64, 99
1, 583448, Note_on_c, 0, 100, 103
1, 583452, Note_on_c, 0, 52, 93
1, 583457, Note_on_c, 0, 88, 87
1, 583469, Note_off_c, 0, 88, 76
1, 583479, Note_off_c, 0, 64, 67
1, 583481, Note_off_c, 0, 100, 67
1, 583495, Note_off_c, 0, 52, 65
1, 583674, Note_on_c, 0, 78, 82
1, 583675, Note_on_c, 0, 86, 86
1, 583680, Note_on_c, 0, 88, 87
1, 583693, Note_off_c, 0, 78, 70
1, 583696, Note_on_c, 0, 81, 31
1, 583717, Note_off_c, 0, 86, 65
1, 583726, Note_off_c, 0, 88, 67
1, 583728, Note_off_c, 0, 81, 51
1, 583853, Control_c, 0, 64, 72
1, 583867, Control_c, 0, 64, 0
1, 583891, Note_on_c, 0, 40, 100
1, 583891, Note_on_c, 0, 88, 90
1, 583891, Note_on_c, 0, 100, 93
1, 583893, Note_on_c, 0, 28, 98
1, 583912, Control_c, 0, 64, 45
1, 583918, Note_on_c, 0, 34, 68
1, 583919, Note_off_c, 0, 34, 127
1, 583920, Note_off_c, 0, 100, 66
1, 583924, Note_off_c, 0, 88, 70
1, 583927, Control_c, 0, 64, 127
1, 583933, Note_off_c, 0, 28, 63
1, 583939, Note_off_c, 0, 40, 63
1, 584135, Note_on_c, 0, 56, 44
1, 584141, Note_on_c, 0, 81, 48
1, 584143, Note_on_c, 0, 54, 15
1, 584147, Note_on_c, 0, 78, 85
1, 584149, Note_on_c, 0, 88, 82
1, 584153, Note_on_c, 0, 61, 79
1, 584162, Note_on_c, 0, 64, 76
1, 584168, Note_on_c, 0, 84, 74
1, 584179, Note_off_c, 0, 81, 66
1, 584187, Note_off_c, 0, 78, 65
1, 584189, Note_on_c, 0, 62, 40
1, 584196, Note_off_c, 0, 64, 65
1, 584196, Note_off_c, 0, 56, 62
1, 584199, Note_off_c, 0, 84, 68
1, 584202, Note_off_c, 0, 61, 65
1, 584203, Note_off_c, 0, 54, 62
1, 584218, Note_off_c, 0, 88, 67
1, 584220, Note_off_c, 0, 62, 57
1, 584340, Note_on_c, 0, 88, 104
1, 584340, Note_on_c, 0, 71, 100
1, 584340, Note_on_c, 0, 100, 98
1, 584346, Note_on_c, 0, 59, 91
1, 584364, Note_off_c, 0, 100, 67
1, 584373, Note_off_c, 0, 88, 65
1, 584376, Note_off_c, 0, 59, 66
1, 584379, Note_off_c, 0, 71, 67
1, 584516, Note_on_c, 0, 81, 39
1, 584525, Note_on_c, 0, 78, 87
1, 584527, Note_on_c, 0, 74, 92
1, 584531, Note_on_c, 0, 88, 86
1, 584531, Note_on_c, 0, 62, 85
1, 584534, Note_on_c, 0, 86, 77
1, 584541, Note_off_c, 0, 81, 64
1, 584544, Note_off_c, 0, 78, 71
1, 584567, Note_off_c, 0, 62, 64
1, 584571, Note_off_c, 0, 88, 67
1, 584575, Note_off_c, 0, 86, 65
1, 584576, Note_off_c, 0, 74, 66
1, 584583, Note_on_c, 0, 63, 14
1, 584626, Note_off_c, 0, 63, 43
1, 584703, Note_on_c, 0, 73, 104
1, 584710, Note_on_c, 0, 100, 95
1, 584710, Note_on_c, 0, 88, 97
1, 584714, Note_on_c, 0, 61, 89
1, 584726, Note_off_c, 0, 100, 74
1, 584730, Note_off_c, 0, 88, 73
1, 584737, Note_off_c, 0, 61, 67
1, 584745, Note_on_c, 0, 98, 48
1, 584746, Note_off_c, 0, 98, 127
1, 584746, Note_off_c, 0, 73, 66
1, 584749, Note_on_c, 0, 62, 65
1, 584767, Note_off_c, 0, 62, 67
1, 584784, Poly_aftertouch_c, 0, 63, 127
1, 584819, Poly_aftertouch_c, 0, 63, 0
1, 584880, Note_on_c, 0, 78, 81
1, 584883, Note_on_c, 0, 85, 85
1, 584884, Note_on_c, 0, 52, 98
1, 584890, Note_on_c, 0, 40, 93
1, 584900, Note_off_c, 0, 78, 69
1, 584916, Note_off_c, 0, 40, 68
1, 584921, Note_off_c, 0, 52, 65
1, 584921, Note_off_c, 0, 85, 63
1, 584972, Note_on_c, 0, 78, 21
1, 585008, Note_off_c, 0, 78, 41
1, 585078, Note_on_c, 0, 100, 89
1, 585083, Note_on_c, 0, 71, 100
1, 585085, Note_on_c, 0, 88, 81
1, 585088, Note_on_c, 0, 59, 92
1, 585094, Note_on_c, 0, 89, 64
1, 585100, Note_on_c, 0, 69, 63
1, 585108, Note_off_c, 0, 88, 70
1, 585111, Note_off_c, 0, 89, 66
1, 585115, Note_off_c, 0, 71, 67
1, 585115, Note_off_c, 0, 100, 66
1, 585121, Note_off_c, 0, 69, 38
1, 585126, Note_off_c, 0, 59, 69
1, 585258, Note_on_c, 0, 86, 84
1, 585260, Note_on_c, 0, 78, 77
1, 585261, Note_on_c, 0, 53, 91
1, 585263, Note_on_c, 0, 41, 96
1, 585284, Note_off_c, 0, 53, 68
1, 585284, Note_off_c, 0, 78, 67
1, 585285, Note_off_c, 0, 41, 66
1, 585299, Note_off_c, 0, 86, 65
1, 585398, Poly_aftertouch_c, 0, 41, 127
1, 585437, Poly_aftertouch_c, 0, 41, 0
1, 585439, Control_c, 0, 64, 84
1, 585454, Control_c, 0, 64, 17
1, 585469, Control_c, 0, 64, 0
1, 585484, Note_on_c, 0, 93, 92
1, 585485, Note_on_c, 0, 69, 107
1, 585487, Note_on_c, 0, 100, 96
1, 585488, Note_on_c, 0, 88, 86
1, 585490, Note_on_c, 0, 59, 96
1, 585499, Note_on_c, 0, 101, 68
1, 585499, Control_c, 0, 64, 29
1, 585504, Note_on_c, 0, 71, 67
1, 585505, Note_off_c, 0, 71, 127
1, 585513, Control_c, 0, 64, 77
1, 585518, Note_off_c, 0, 101, 42
1, 585520, Note_off_c, 0, 69, 69
1, 585528, Control_c, 0, 64, 127
1, 585540, Note_off_c, 0, 59, 63
1, 585609, Note_off_c, 0, 100, 60
1, 585612, Note_off_c, 0, 88, 66
1, 585688, Note_off_c, 0, 93, 47
1, 585712, Note_on_c, 0, 41, 94
1, 585714, Note_on_c, 0, 28, 99
1, 585716, Note_on_c, 0, 40, 102
1, 585742, Note_off_c, 0, 40, 67
1, 585747, Note_off_c, 0, 28, 64
1, 585750, Note_off_c, 0, 41, 63
1, 585792, Poly_aftertouch_c, 0, 83, 0
1, 585830, Poly_aftertouch_c, 0, 83, 0
1, 585918, Note_on_c, 0, 95, 96
1, 585923, Note_on_c, 0, 83, 92
1, 585933, Note_on_c, 0, 76, 103
1, 585936, Note_on_c, 0, 92, 70
1, 585940, Note_on_c, 0, 64, 98
1, 585953, Note_off_c, 0, 92, 68
1, 585962, Note_off_c, 0, 76, 62
1, 585964, Note_off_c, 0, 64, 67
1, 585973, Note_off_c, 0, 83, 64
1, 586042, Note_off_c, 0, 95, 66
1, 586092, Note_on_c, 0, 64, 97
1, 586095, Note_on_c, 0, 52, 95
1, 586095, Note_on_c, 0, 98, 97
1, 586100, Note_on_c, 0, 86, 85
1, 586132, Note_off_c, 0, 64, 66
1, 586133, Note_off_c, 0, 52, 64
1, 586135, Note_off_c, 0, 86, 63
1, 586225, Note_off_c, 0, 98, 64
1, 586269, Note_on_c, 0, 97, 100
1, 586275, Note_on_c, 0, 85, 90
1, 586275, Note_on_c, 0, 69, 100
1, 586283, Note_on_c, 0, 57, 94
1, 586284, Note_on_c, 0, 87, 74
1, 586300, Note_off_c, 0, 87, 70
1, 586302, Note_off_c, 0, 85, 66
1, 586307, Note_off_c, 0, 69, 69
1, 586307, Note_off_c, 0, 97, 67
1, 586319, Note_off_c, 0, 57, 67
1, 586437, Note_on_c, 0, 81, 87
1, 586441, Note_on_c, 0, 52, 102
1, 586443, Note_on_c, 0, 40, 94
1, 586445, Note_on_c, 0, 78, 67
1, 586446, Note_on_c, 0, 69, 74
1, 586448, Note_on_c, 0, 73, 68
1, 586462, Note_off_c, 0, 69, 70
1, 586466, Note_off_c, 0, 52, 66
1, 586470, Note_off_c, 0, 78, 66
1, 586471, Note_off_c, 0, 40, 66
1, 586474, Note_off_c, 0, 73, 67
1, 586474, Note_off_c, 0, 81, 61
1, 586586, Poly_aftertouch_c, 0, 69, 127
1, 586613, Poly_aftertouch_c, 0, 69, 0
1, 586618, Note_on_c, 0, 83, 96
1, 586620, Note_on_c, 0, 95, 89
1, 586621, Note_on_c, 0, 68, 101
1, 586629, Note_on_c, 0, 93, 87
1, 586629, Note_on_c, 0, 56, 96
1, 586639, Note_off_c, 0, 95, 69
1, 586647, Note_off_c, 0, 93, 71
1, 586653, Note_off_c, 0, 83, 66
1, 586654, Note_off_c, 0, 68, 68
1, 586677, Note_off_c, 0, 56, 59
1, 586784, Note_on_c, 0, 73, 73
1, 586785, Note_on_c, 0, 69, 82
1, 586785, Note_on_c, 0, 75, 75
1, 586785, Note_on_c, 0, 80, 83
1, 586786, Note_on_c, 0, 53, 88
1, 586791, Note_on_c, 0, 41, 73
1, 586799, Note_off_c, 0, 69, 76
1, 586799, Note_off_c, 0, 73, 70
1, 586803, Note_off_c, 0, 75, 69
1, 586805, Note_on_c, 0, 78, 53
1, 586807, Note_off_c, 0, 53, 68
1, 586814, Note_off_c, 0, 41, 63
1, 586826, Note_off_c, 0, 78, 60
1, 586829, Note_off_c, 0, 80, 63
1, 586862, Poly_aftertouch_c, 0, 43, 127
1, 586907, Poly_aftertouch_c, 0, 43, 0
1, 586923, Control_c, 0, 64, 65
1, 586938, Control_c, 0, 64, 0
1, 586967, Control_c, 0, 64, 43
1, 586969, Note_on_c, 0, 66, 98
1, 586971, Note_on_c, 0, 81, 102
1, 586971, Note_on_c, 0, 93, 99
1, 586974, Note_on_c, 0, 54, 90
1, 586982, Control_c, 0, 64, 87
1, 586986, Note_off_c, 0, 93, 76
1, 586995, Note_on_c, 0, 91, 70
1, 586997, Note_off_c, 0, 81, 64
1, 586997, Control_c, 0, 64, 127
1, 587007, Note_off_c, 0, 66, 64
1, 587012, Note_off_c, 0, 91, 67
1, 587024, Note_off_c, 0, 54, 66
1, 587139, Note_on_c, 0, 76, 83
1, 587144, Note_on_c, 0, 73, 72
1, 587145, Note_on_c, 0, 66, 83
1, 587168, Note_off_c, 0, 66, 69
1, 587183, Note_on_c, 0, 69, 14
1, 587190, Note_off_c, 0, 76, 64
1, 587193, Note_off_c, 0, 73, 66
1, 587198, Note_on_c, 0, 30, 23
1, 587217, Poly_aftertouch_c, 0, 39, 127
1, 587234, Note_off_c, 0, 69, 54
1, 587242, Note_off_c, 0, 30, 41
1, 587255, Poly_aftertouch_c, 0, 39, 0
1, 587273, Poly_aftertouch_c, 0, 28, 0
1, 587303, Note_on_c, 0, 40, 91
1, 587315, Note_on_c, 0, 38, 94
1, 587320, Note_on_c, 0, 28, 81
1, 587321, Note_on_c, 0, 26, 90
1, 587339, Note_off_c, 0, 40, 67
1, 587341, Note_off_c, 0, 38, 67
1, 587342, Note_on_c, 0, 27, 44
1, 587343, Note_off_c, 0, 27, 127
1, 587343, Note_off_c, 0, 28, 66
1, 587346, Note_off_c, 0, 26, 66
1, 587354, Note_on_c, 0, 87, 10
1, 587380, Poly_aftertouch_c, 0, 27, 0
1, 587413, Note_off_c, 0, 87, 48
1, 587465, Poly_aftertouch_c, 0, 38, 0
1, 587481, Note_on_c, 0, 78, 94
1, 587484, Note_on_c, 0, 88, 85
1, 587490, Note_on_c, 0, 54, 89
1, 587491, Note_on_c, 0, 81, 59
1, 587491, Poly_aftertouch_c, 0, 38, 0
1, 587492, Note_on_c, 0, 42, 82
1, 587494, Note_on_c, 0, 89, 72
1, 587509, Note_off_c, 0, 81, 63
1, 587512, Note_off_c, 0, 89, 41
1, 587515, Note_off_c, 0, 54, 65
1, 587522, Note_off_c, 0, 78, 64
1, 587529, Note_off_c, 0, 88, 67
1, 587532, Note_off_c, 0, 42, 63
1, 587653, Note_on_c, 0, 93, 109
1, 587654, Note_on_c, 0, 83, 105
1, 587656, Note_on_c, 0, 59, 90
1, 587658, Note_on_c, 0, 81, 87
1, 587663, Note_on_c, 0, 47, 99
1, 587679, Note_off_c, 0, 81, 70
1, 587683, Note_off_c, 0, 83, 66
1, 587683, Note_off_c, 0, 93, 65
1, 587685, Note_off_c, 0, 59, 67
1, 587703, Note_on_c, 0, 57, 27
1, 587704, Note_off_c, 0, 57, 127
1, 587704, Note_off_c, 0, 47, 65
1, 587746, Poly_aftertouch_c, 0, 57, 0
1, 587813, Note_on_c, 0, 75, 84
1, 587815, Note_on_c, 0, 29, 84
1, 587815, Note_on_c, 0, 41, 84
1, 587816, Note_on_c, 0, 43, 84
1, 587819, Note_on_c, 0, 78, 78
1, 587825, Note_on_c, 0, 67, 61
1, 587827, Note_on_c, 0, 69, 58
1, 587828, Note_on_c, 0, 30, 60
1, 587829, Note_on_c, 0, 72, 56
1, 587831, Note_on_c, 0, 31, 64
1, 587835, Note_off_c, 0, 75, 71
1, 587837, Note_off_c, 0, 41, 66
1, 587838, Note_off_c, 0, 29, 66
1, 587838, Note_off_c, 0, 43, 67
1, 587845, Note_off_c, 0, 67, 65
1, 587848, Note_off_c, 0, 69, 65
1, 587851, Note_off_c, 0, 72, 59
1, 587862, Note_off_c, 0, 30, 56
1, 587862, Note_off_c, 0, 31, 58
1, 587864, Note_off_c, 0, 78, 64
1, 587978, Note_on_c, 0, 92, 108
1, 587979, Note_on_c, 0, 64, 96
1, 587985, Note_on_c, 0, 52, 93
1, 587987, Note_on_c, 0, 80, 97
1, 587998, Poly_aftertouch_c, 0, 43, 0
1, 588004, Note_on_c, 0, 55, 69
1, 588005, Note_off_c, 0, 55, 127
1, 588007, Note_off_c, 0, 80, 67
1, 588010, Note_off_c, 0, 64, 66
1, 588010, Note_off_c, 0, 92, 68
1, 588021, Note_off_c, 0, 52, 67
1, 588149, Note_on_c, 0, 66, 95
1, 588151, Note_on_c, 0, 31, 90
1, 588153, Note_on_c, 0, 76, 91
1, 588171, Note_off_c, 0, 66, 69
1, 588178, Note_off_c, 0, 31, 65
1, 588184, Note_off_c, 0, 76, 62
1, 588256, Control_c, 0, 64, 66
1, 588271, Control_c, 0, 64, 0
1, 588315, Control_c, 0, 64, 39
1, 588331, Control_c, 0, 64, 94
1, 588333, Note_on_c, 0, 90, 108
1, 588334, Note_on_c, 0, 76, 100
1, 588335, Note_on_c, 0, 64, 90
1, 588340, Note_on_c, 0, 78, 102
1, 588346, Control_c, 0, 64, 127
1, 588350, Note_off_c, 0, 76, 74
1, 588357, Note_off_c, 0, 78, 69
1, 588365, Note_off_c, 0, 64, 65
1, 588366, Note_on_c, 0, 65, 46
1, 588367, Note_off_c, 0, 65, 127
1, 588370, Note_off_c, 0, 90, 62
1, 588412, Note_on_c, 0, 76, 28
1, 588436, Note_off_c, 0, 76, 57
1, 588513, Note_on_c, 0, 76, 82
1, 588519, Note_on_c, 0, 66, 96
1, 588531, Note_on_c, 0, 42, 44
1, 588557, Note_off_c, 0, 66, 58
1, 588558, Note_off_c, 0, 76, 63
1, 588567, Note_off_c, 0, 42, 52
1, 588626, Poly_aftertouch_c, 0, 33, 0
1, 588710, Note_on_c, 0, 40, 106
1, 588713, Note_on_c, 0, 71, 94
1, 588716, Note_on_c, 0, 59, 80
1, 588717, Note_on_c, 0, 28, 89
1, 588719, Note_on_c, 0, 26, 93
1, 588727, Note_on_c, 0, 38, 64
1, 588728, Note_off_c, 0, 38, 127
1, 588731, Note_off_c, 0, 59, 71
1, 588733, Note_on_c, 0, 27, 67
1, 588741, Note_off_c, 0, 26, 64
1, 588743, Note_off_c, 0, 40, 65
1, 588743, Note_off_c, 0, 71, 62
1, 588746, Note_off_c, 0, 28, 66
1, 588763, Note_off_c, 0, 27, 59
1, 588921, Note_on_c, 0, 92, 90
1, 588922, Note_on_c, 0, 80, 74
1, 588922, Note_on_c, 0, 94, 91
1, 588943, Note_off_c, 0, 94, 65
1, 588944, Note_on_c, 0, 62, 73
1, 588945, Note_on_c, 0, 82, 50
1, 588949, Note_off_c, 0, 80, 66
1, 588949, Note_on_c, 0, 61, 55
1, 588967, Note_off_c, 0, 82, 60
1, 588970, Note_on_c, 0, 74, 25
1, 588972, Note_off_c, 0, 61, 60
1, 588980, Note_off_c, 0, 62, 58
1, 589005, Note_off_c, 0, 74, 55
1, 589008, Note_off_c, 0, 92, 61
1, 589022, Note_on_c, 0, 70, 43
1, 589057, Note_off_c, 0, 70, 54
1, 589065, Control_c, 0, 64, 79
1, 589080, Control_c, 0, 64, 60
1, 589095, Control_c, 0, 64, 63
1, 589101, Note_on_c, 0, 73, 99
1, 589104, Note_on_c, 0, 61, 69
1, 589104, Note_on_c, 0, 95, 84
1, 589106, Note_on_c, 0, 96, 91
1, 589110, Control_c, 0, 64, 85
1, 589113, Note_on_c, 0, 84, 84
1, 589115, Note_on_c, 0, 83, 86
1, 589124, Note_off_c, 0, 96, 73
1, 589124, Control_c, 0, 64, 127
1, 589136, Note_off_c, 0, 83, 72
1, 589136, Note_off_c, 0, 84, 71
1, 589147, Note_off_c, 0, 95, 69
1, 589223, Note_off_c, 0, 73, 62
1, 589251, Note_on_c, 0, 82, 38
1, 589262, Note_off_c, 0, 61, 52
1, 589268, Note_on_c, 0, 88, 92
1, 589270, Note_on_c, 0, 83, 50
1, 589273, Note_on_c, 0, 69, 82
1, 589282, Note_on_c, 0, 66, 86
1, 589292, Note_on_c, 0, 80, 56
1, 589296, Note_off_c, 0, 82, 62
1, 589296, Note_off_c, 0, 83, 68
1, 589312, Note_off_c, 0, 80, 62
1, 589324, Note_off_c, 0, 88, 69
1, 589333, Note_off_c, 0, 69, 66
1, 589350, Note_off_c, 0, 66, 64
1, 589368, Poly_aftertouch_c, 0, 89, 0
1, 589444, Note_on_c, 0, 100, 105
1, 589454, Note_on_c, 0, 59, 93
1, 589455, Note_on_c, 0, 71, 94
1, 589456, Note_on_c, 0, 88, 91
1, 589464, Note_off_c, 0, 100, 71
1, 589475, Note_off_c, 0, 88, 73
1, 589503, Note_off_c, 0, 71, 61
1, 589529, Note_off_c, 0, 59, 46
1, 589580, Note_on_c, 0, 82, 59
1, 589610, Note_off_c, 0, 82, 65
1, 589611, Note_on_c, 0, 69, 72
1, 589619, Note_on_c, 0, 66, 79
1, 589626, Note_on_c, 0, 86, 73
1, 589629, Note_on_c, 0, 78, 70
1, 589632, Note_on_c, 0, 89, 66
1, 589637, Note_on_c, 0, 88, 67
1, 589637, Note_off_c, 0, 69, 68
1, 589647, Note_off_c, 0, 78, 65
1, 589648, Note_off_c, 0, 66, 66
1, 589649, Note_off_c, 0, 86, 69
1, 589658, Note_off_c, 0, 89, 67
1, 589664, Note_off_c, 0, 88, 69
1, 589691, Note_on_c, 0, 69, 62
1, 589712, Note_off_c, 0, 69, 67
1, 589783, Control_c, 0, 64, 69
1, 589798, Control_c, 0, 64, 33
1, 589806, Note_on_c, 0, 69, 90
1, 589810, Note_on_c, 0, 100, 104
1, 589812, Control_c, 0, 64, 0
1, 589816, Note_on_c, 0, 88, 100
1, 589816, Note_on_c, 0, 93, 87
1, 589818, Note_on_c, 0, 57, 94
1, 589827, Control_c, 0, 64, 47
1, 589842, Control_c, 0, 64, 87
1, 589847, Note_off_c, 0, 69, 67
1, 589857, Control_c, 0, 64, 127
1, 589873, Note_off_c, 0, 57, 65
1, 589882, Note_on_c, 0, 61, 2
1, 589928, Note_off_c, 0, 61, 43
1, 589929, Note_off_c, 0, 100, 56
1, 589936, Note_off_c, 0, 88, 66
1, 589943, Note_off_c, 0, 93, 65
1, 589947, Note_on_c, 0, 98, 27
1, 589982, Note_off_c, 0, 98, 38
1, 589985, Note_on_c, 0, 40, 101
1, 589989, Note_on_c, 0, 28, 94
1, 590008, Note_on_c, 0, 38, 60
1, 590009, Note_off_c, 0, 38, 127
1, 590016, Note_on_c, 0, 27, 50
1, 590017, Note_off_c, 0, 27, 127
1, 590019, Note_off_c, 0, 28, 67
1, 590024, Note_off_c, 0, 40, 63
1, 590027, Note_on_c, 0, 92, 56
1, 590038, Poly_aftertouch_c, 0, 38, 0
1, 590048, Poly_aftertouch_c, 0, 27, 0
1, 590049, Note_off_c, 0, 92, 63
1, 590049, Note_on_c, 0, 83, 46
1, 590076, Note_off_c, 0, 83, 52
1, 590156, Note_on_c, 0, 92, 76
1, 590160, Note_on_c, 0, 81, 87
1, 590162, Note_on_c, 0, 93, 91
1, 590162, Note_on_c, 0, 95, 90
1, 590165, Note_on_c, 0, 83, 72
1, 590171, Note_on_c, 0, 68, 97
1, 590178, Note_on_c, 0, 56, 85
1, 590184, Note_off_c, 0, 81, 68
1, 590185, Note_on_c, 0, 90, 50
1, 590206, Note_off_c, 0, 92, 63
1, 590206, Note_off_c, 0, 83, 58
1, 590206, Note_off_c, 0, 90, 62
1, 590212, Note_off_c, 0, 56, 61
1, 590212, Note_off_c, 0, 68, 62
1, 590219, Note_on_c, 0, 91, 27
1, 590246, Note_off_c, 0, 91, 50
1, 590246, Note_off_c, 0, 93, 63
1, 590251, Note_off_c, 0, 95, 66
1, 590338, Note_on_c, 0, 66, 97
1, 590341, Note_on_c, 0, 98, 97
1, 590344, Note_on_c, 0, 54, 88
1, 590349, Note_on_c, 0, 86, 94
1, 590353, Note_on_c, 0, 90, 79
1, 590363, Note_on_c, 0, 88, 65
1, 590379, Note_off_c, 0, 88, 69
1, 590382, Note_off_c, 0, 54, 66
1, 590382, Note_off_c, 0, 86, 62
1, 590384, Note_off_c, 0, 66, 65
1, 590403, Note_off_c, 0, 98, 59
1, 590410, Note_off_c, 0, 90, 40
1, 590487, Control_c, 0, 64, 68
1, 590502, Control_c, 0, 64, 51
1, 590517, Control_c, 0, 64, 61
1, 590527, Note_on_c, 0, 64, 103
1, 590528, Note_on_c, 0, 97, 112
1, 590530, Note_on_c, 0, 85, 102
1, 590531, Note_on_c, 0, 52, 99
1, 590531, Control_c, 0, 64, 90
1, 590546, Control_c, 0, 64, 127
1, 590576, Note_off_c, 0, 64, 66
1, 590612, Poly_aftertouch_c, 0, 54, 127
1, 590615, Note_on_c, 0, 54, 2
1, 590651, Note_off_c, 0, 52, 56
1, 590659, Note_off_c, 0, 54, 47
1, 590670, Note_off_c, 0, 97, 63
1, 590686, Note_off_c, 0, 85, 63
1, 590698, Note_on_c, 0, 61, 89
1, 590699, Note_on_c, 0, 64, 85
1, 590706, Note_on_c, 0, 57, 79
1, 590716, Note_on_c, 0, 54, 82
1, 590719, Note_off_c, 0, 64, 71
1, 590737, Note_off_c, 0, 61, 67
1, 590744, Note_off_c, 0, 54, 68
1, 590750, Note_off_c, 0, 57, 64
1, 590779, Note_on_c, 0, 55, 28
1, 590816, Note_off_c, 0, 55, 47
1, 590858, Control_c, 0, 64, 67
1, 590862, Poly_aftertouch_c, 0, 54, 127
1, 590873, Control_c, 0, 64, 0
1, 590887, Poly_aftertouch_c, 0, 54, 0
1, 590898, Note_on_c, 0, 40, 103
1, 590901, Note_on_c, 0, 95, 104
1, 590903, Note_on_c, 0, 28, 98
1, 590903, Control_c, 0, 64, 60
1, 590904, Note_on_c, 0, 83, 108
1, 590918, Control_c, 0, 64, 127
1, 590924, Note_off_c, 0, 28, 70
1, 590928, Note_on_c, 0, 29, 59
1, 590934, Note_off_c, 0, 40, 67
1, 590961, Note_off_c, 0, 29, 51
1, 590995, Note_on_c, 0, 28, 29
1, 591019, Note_off_c, 0, 28, 49
1, 591107, Note_on_c, 0, 62, 83
1, 591110, Note_on_c, 0, 64, 96
1, 591113, Note_on_c, 0, 54, 81
1, 591116, Note_on_c, 0, 57, 80
1, 591136, Note_on_c, 0, 63, 52
1, 591165, Note_off_c, 0, 63, 55
1, 591167, Note_off_c, 0, 64, 65
1, 591170, Note_off_c, 0, 54, 63
1, 591170, Note_off_c, 0, 57, 64
1, 591173, Note_off_c, 0, 95, 53
1, 591180, Note_off_c, 0, 62, 66
1, 591235, Note_off_c, 0, 83, 38
1, 591321, Note_on_c, 0, 88, 101
1, 591322, Note_on_c, 0, 93, 100
1, 591323, Note_on_c, 0, 76, 107
1, 591323, Note_on_c, 0, 81, 101
1, 591327, Note_on_c, 0, 64, 94
1, 591355, Note_off_c, 0, 76, 68
1, 591364, Note_off_c, 0, 64, 66
1, 591534, Note_off_c, 0, 81, 63
1, 591550, Note_on_c, 0, 40, 100
1, 591557, Note_on_c, 0, 28, 97
1, 591563, Note_on_c, 0, 38, 75
1, 591584, Note_off_c, 0, 28, 66
1, 591585, Note_off_c, 0, 40, 65
1, 591586, Note_off_c, 0, 38, 38
1, 591678, Note_on_c, 0, 28, 3
1, 591701, Note_off_c, 0, 93, 64
1, 591715, Note_off_c, 0, 28, 27
1, 591731, Note_off_c, 0, 88, 63
1, 591794, Note_on_c, 0, 80, 101
1, 591795, Note_on_c, 0, 92, 102
1, 591807, Note_on_c, 0, 64, 100
1, 591811, Note_on_c, 0, 52, 102
1, 591830, Note_on_c, 0, 93, 53
1, 591844, Note_off_c, 0, 52, 66
1, 591844, Note_off_c, 0, 64, 68
1, 591851, Note_off_c, 0, 93, 60
1, 591853, Note_on_c, 0, 54, 29
1, 591854, Note_off_c, 0, 54, 127
1, 591869, Note_off_c, 0, 92, 66
1, 591882, Note_off_c, 0, 80, 45
1, 591894, Poly_aftertouch_c, 0, 54, 0
1, 592080, Note_on_c, 0, 90, 99
1, 592083, Note_on_c, 0, 76, 107
1, 592084, Note_on_c, 0, 74, 95
1, 592084, Note_on_c, 0, 78, 94
1, 592091, Note_on_c, 0, 69, 85
1, 592091, Note_on_c, 0, 81, 70
1, 592091, Note_on_c, 0, 86, 60
1, 592095, Note_on_c, 0, 66, 86
1, 592102, Note_off_c, 0, 78, 71
1, 592108, Note_off_c, 0, 81, 67
1, 592111, Note_off_c, 0, 86, 64
1, 592116, Note_off_c, 0, 76, 68
1, 592125, Note_off_c, 0, 74, 67
1, 592129, Note_on_c, 0, 87, 25
1, 592136, Note_off_c, 0, 90, 67
1, 592146, Note_off_c, 0, 69, 67
1, 592166, Note_off_c, 0, 66, 65
1, 592176, Note_off_c, 0, 87, 51
1, 592400, Control_c, 0, 64, 68
1, 592415, Control_c, 0, 64, 0
1, 592420, Note_on_c, 0, 100, 97
1, 592422, Note_on_c, 0, 88, 94
1, 592430, Note_on_c, 0, 40, 104
1, 592439, Note_on_c, 0, 28, 102
1, 592459, Note_off_c, 0, 88, 68
1, 592459, Note_off_c, 0, 100, 69
1, 592460, Control_c, 0, 64, 19
1, 592462, Note_off_c, 0, 28, 69
1, 592466, Note_off_c, 0, 40, 66
1, 592475, Control_c, 0, 64, 73
1, 592490, Control_c, 0, 64, 127
1, 592617, Poly_aftertouch_c, 0, 28, 0
1, 592716, Note_on_c, 0, 76, 83
1, 592717, Note_on_c, 0, 73, 79
1, 592718, Note_on_c, 0, 66, 79
1, 592719, Note_on_c, 0, 54, 86
1, 592719, Note_on_c, 0, 69, 72
1, 592721, Note_on_c, 0, 57, 83
1, 592741, Note_off_c, 0, 57, 67
1, 592742, Note_off_c, 0, 66, 67
1, 592742, Note_off_c, 0, 69, 69
1, 592762, Note_off_c, 0, 54, 63
1, 592769, Note_off_c, 0, 73, 67
1, 592773, Note_off_c, 0, 76, 66
1, 592825, Note_on_c, 0, 57, 15
1, 592866, Note_off_c, 0, 57, 41
1, 592949, Note_on_c, 0, 40, 90
1, 592952, Note_on_c, 0, 28, 86
1, 592953, Note_on_c, 0, 100, 101
1, 592967, Note_on_c, 0, 88, 86
1, 592968, Note_off_c, 0, 88, 127
1, 592982, Note_off_c, 0, 100, 67
1, 592987, Note_off_c, 0, 28, 64
1, 592996, Note_off_c, 0, 40, 63
1, 593114, Poly_aftertouch_c, 0, 88, 0
1, 593166, Note_on_c, 0, 54, 80
1, 593170, Note_on_c, 0, 57, 76
1, 593170, Note_on_c, 0, 75, 85
1, 593176, Note_on_c, 0, 71, 51
1, 593178, Note_on_c, 0, 77, 83
1, 593178, Note_on_c, 0, 68, 78
1, 593191, Note_off_c, 0, 57, 68
1, 593196, Note_on_c, 0, 70, 37
1, 593199, Note_off_c, 0, 71, 67
1, 593205, Note_off_c, 0, 68, 68
1, 593206, Note_off_c, 0, 54, 65
1, 593227, Note_off_c, 0, 70, 59
1, 593230, Note_off_c, 0, 75, 66
1, 593234, Note_off_c, 0, 77, 65
1, 593318, Poly_aftertouch_c, 0, 57, 0
1, 593335, Control_c, 0, 64, 85
1, 593344, Poly_aftertouch_c, 0, 57, 0
1, 593350, Control_c, 0, 64, 61
1, 593365, Control_c, 0, 64, 62
1, 593374, Note_on_c, 0, 100, 103
1, 593375, Note_on_c, 0, 40, 96
1, 593378, Note_on_c, 0, 28, 95
1, 593380, Control_c, 0, 64, 73
1, 593381, Note_on_c, 0, 88, 100
1, 593395, Control_c, 0, 64, 127
1, 593397, Note_off_c, 0, 88, 75
1, 593403, Note_off_c, 0, 100, 68
1, 593416, Note_off_c, 0, 28, 64
1, 593423, Note_off_c, 0, 40, 63
1, 593471, Poly_aftertouch_c, 0, 34, 0
1, 593498, Poly_aftertouch_c, 0, 34, 0
1, 593569, Note_on_c, 0, 76, 89
1, 593579, Note_on_c, 0, 59, 80
1, 593580, Note_on_c, 0, 73, 84
1, 593581, Note_on_c, 0, 66, 80
1, 593595, Note_off_c, 0, 59, 70
1, 593596, Note_on_c, 0, 54, 58
1, 593598, Note_on_c, 0, 69, 50
1, 593602, Note_off_c, 0, 66, 69
1, 593621, Note_off_c, 0, 54, 66
1, 593621, Note_off_c, 0, 69, 62
1, 593630, Note_off_c, 0, 73, 68
1, 593636, Note_off_c, 0, 76, 65
1, 593688, Poly_aftertouch_c, 0, 57, 0
1, 593694, Poly_aftertouch_c, 0, 55, 0
1, 593707, Poly_aftertouch_c, 0, 66, 127
1, 593748, Poly_aftertouch_c, 0, 66, 0
1, 593765, Note_on_c, 0, 100, 99
1, 593769, Note_on_c, 0, 88, 100
1, 593773, Note_on_c, 0, 26, 83
1, 593773, Note_on_c, 0, 38, 84
1, 593776, Note_on_c, 0, 40, 77
1, 593783, Note_off_c, 0, 100, 70
1, 593787, Note_off_c, 0, 88, 73
1, 593804, Note_off_c, 0, 26, 65
1, 593804, Note_off_c, 0, 38, 66
1, 593811, Note_off_c, 0, 40, 64
1, 593891, Poly_aftertouch_c, 0, 28, 0
1, 593942, Note_on_c, 0, 54, 77
1, 593947, Note_on_c, 0, 69, 57
1, 593948, Note_on_c, 0, 66, 85
1, 593951, Note_on_c, 0, 57, 69
1, 593953, Note_on_c, 0, 76, 73
1, 593956, Note_on_c, 0, 77, 79
1, 593957, Note_on_c, 0, 74, 80
1, 593971, Note_off_c, 0, 57, 65
1, 593977, Note_off_c, 0, 54, 66
1, 593979, Note_off_c, 0, 69, 67
1, 593986, Note_off_c, 0, 66, 64
1, 594006, Note_off_c, 0, 77, 67
1, 594006, Note_off_c, 0, 74, 65
1, 594016, Note_off_c, 0, 76, 66
1, 594114, Control_c, 0, 64, 95
1, 594129, Control_c, 0, 64, 85
1, 594144, Control_c, 0, 64, 94
1, 594149, Note_on_c, 0, 100, 102
1, 594156, Note_on_c, 0, 40, 81
1, 594156, Note_on_c, 0, 88, 89
1, 594158, Control_c, 0, 64, 127
1, 594161, Note_on_c, 0, 28, 78
1, 594168, Note_on_c, 0, 38, 61
1, 594173, Note_on_c, 0, 26, 56
1, 594174, Note_off_c, 0, 88, 74
1, 594180, Note_off_c, 0, 100, 66
1, 594186, Note_off_c, 0, 28, 65
1, 594192, Note_off_c, 0, 38, 63
1, 594198, Note_off_c, 0, 40, 64
1, 594210, Note_off_c, 0, 26, 53
1, 594246, Poly_aftertouch_c, 0, 89, 0
1, 594329, Note_on_c, 0, 54, 91
1, 594338, Note_on_c, 0, 77, 76
1, 594339, Note_on_c, 0, 76, 76
1, 594340, Note_on_c, 0, 73, 73
1, 594344, Note_on_c, 0, 66, 69
1, 594350, Note_on_c, 0, 57, 50
1, 594356, Note_on_c, 0, 69, 42
1, 594360, Note_off_c, 0, 66, 68
1, 594365, Note_off_c, 0, 54, 63
1, 594368, Note_off_c, 0, 73, 65
1, 594371, Note_off_c, 0, 57, 62
1, 594384, Note_off_c, 0, 69, 62
1, 594392, Note_off_c, 0, 76, 62
1, 594394, Note_off_c, 0, 77, 65
1, 594521, Note_on_c, 0, 100, 102
1, 594528, Note_on_c, 0, 40, 88
1, 594529, Note_on_c, 0, 88, 97
1, 594544, Note_on_c, 0, 26, 65
1, 594545, Note_off_c, 0, 88, 74
1, 594550, Note_off_c, 0, 100, 69
1, 594559, Note_on_c, 0, 28, 56
1, 594569, Note_off_c, 0, 26, 59
1, 594570, Note_off_c, 0, 40, 65
1, 594582, Note_off_c, 0, 28, 62
1, 594691, Note_on_c, 0, 54, 75
1, 594699, Note_on_c, 0, 76, 94
1, 594699, Note_on_c, 0, 57, 57
1, 594700, Note_on_c, 0, 66, 88
1, 594709, Note_on_c, 0, 73, 73
1, 594717, Note_off_c, 0, 54, 67
1, 594723, Note_off_c, 0, 66, 69
1, 594726, Note_off_c, 0, 57, 59
1, 594739, Note_off_c, 0, 73, 68
1, 594754, Note_off_c, 0, 76, 64
1, 594786, Note_on_c, 0, 66, 36
1, 594814, Note_off_c, 0, 66, 62
1, 594863, Control_c, 0, 64, 66
1, 594878, Control_c, 0, 64, 54
1, 594892, Control_c, 0, 64, 67
1, 594894, Note_on_c, 0, 38, 95
1, 594896, Note_on_c, 0, 100, 90
1, 594898, Note_on_c, 0, 26, 95
1, 594904, Note_on_c, 0, 89, 83
1, 594905, Note_on_c, 0, 101, 78
1, 594906, Note_off_c, 0, 101, 127
1, 594906, Note_on_c, 0, 88, 81
1, 594907, Control_c, 0, 64, 127
1, 594918, Note_off_c, 0, 100, 71
1, 594925, Note_off_c, 0, 26, 69
1, 594929, Note_off_c, 0, 88, 72
1, 594930, Note_off_c, 0, 89, 68
1, 594940, Note_off_c, 0, 38, 65
1, 595062, Note_on_c, 0, 54, 85
1, 595067, Note_on_c, 0, 57, 69
1, 595070, Note_on_c, 0, 76, 87
1, 595075, Note_on_c, 0, 66, 76
1, 595083, Note_on_c, 0, 73, 71
1, 595089, Note_off_c, 0, 54, 69
1, 595089, Note_off_c, 0, 57, 64
1, 595099, Note_off_c, 0, 66, 67
1, 595120, Note_off_c, 0, 76, 64
1, 595122, Note_off_c, 0, 73, 64
1, 595175, Poly_aftertouch_c, 0, 69, 0
1, 595218, Control_c, 0, 64, 97
1, 595232, Control_c, 0, 64, 83
1, 595247, Control_c, 0, 64, 90
1, 595254, Note_on_c, 0, 100, 105
1, 595261, Note_on_c, 0, 40, 91
1, 595262, Control_c, 0, 64, 127
1, 595264, Note_on_c, 0, 28, 87
1, 595267, Note_on_c, 0, 88, 95
1, 595278, Note_off_c, 0, 88, 78
1, 595285, Note_off_c, 0, 100, 69
1, 595301, Note_off_c, 0, 28, 65
1, 595305, Note_off_c, 0, 40, 62
1, 595416, Poly_aftertouch_c, 0, 88, 0
1, 595417, Note_on_c, 0, 54, 78
1, 595430, Note_on_c, 0, 76, 84
1, 595436, Note_on_c, 0, 73, 76
1, 595438, Note_off_c, 0, 54, 68
1, 595441, Note_on_c, 0, 66, 68
1, 595447, Note_on_c, 0, 57, 32
1, 595459, Note_off_c, 0, 66, 66
1, 595465, Note_off_c, 0, 73, 66
1, 595482, Note_off_c, 0, 76, 63
1, 595486, Note_off_c, 0, 57, 43
1, 595582, Control_c, 0, 64, 117
1, 595597, Control_c, 0, 64, 104
1, 595607, Poly_aftertouch_c, 0, 54, 0
1, 595611, Control_c, 0, 64, 127
1, 595613, Note_on_c, 0, 100, 106
1, 595622, Note_on_c, 0, 38, 96
1, 595624, Note_on_c, 0, 88, 97
1, 595626, Note_on_c, 0, 26, 87
1, 595641, Note_off_c, 0, 88, 75
1, 595647, Note_off_c, 0, 26, 71
1, 595648, Note_on_c, 0, 28, 57
1, 595649, Note_off_c, 0, 100, 68
1, 595657, Note_off_c, 0, 38, 65
1, 595673, Note_off_c, 0, 28, 37
1, 595773, Poly_aftertouch_c, 0, 88, 0
1, 595794, Note_on_c, 0, 57, 62
1, 595797, Note_on_c, 0, 77, 82
1, 595798, Note_on_c, 0, 76, 76
1, 595799, Note_on_c, 0, 54, 54
1, 595802, Note_on_c, 0, 73, 72
1, 595802, Note_on_c, 0, 70, 64
1, 595811, Note_on_c, 0, 66, 51
1, 595812, Note_off_c, 0, 66, 127
1, 595816, Note_off_c, 0, 57, 62
1, 595817, Note_off_c, 0, 73, 69
1, 595821, Note_off_c, 0, 70, 65
1, 595832, Note_off_c, 0, 54, 64
1, 595838, Note_off_c, 0, 76, 59
1, 595840, Note_off_c, 0, 77, 63
1, 595967, Control_c, 0, 64, 100
1, 595972, Note_on_c, 0, 100, 103
1, 595977, Note_on_c, 0, 38, 98
1, 595982, Control_c, 0, 64, 69
1, 595983, Note_on_c, 0, 88, 86
1, 595984, Note_on_c, 0, 26, 92
1, 595990, Note_on_c, 0, 89, 63
1, 595995, Note_off_c, 0, 88, 74
1, 595996, Control_c, 0, 64, 70
1, 596001, Note_off_c, 0, 100, 68
1, 596007, Note_off_c, 0, 26, 65
1, 596007, Note_off_c, 0, 38, 66
1, 596009, Note_off_c, 0, 89, 65
1, 596011, Control_c, 0, 64, 92
1, 596026, Control_c, 0, 64, 127
1, 596088, Note_on_c, 0, 26, 16
1, 596126, Note_off_c, 0, 26, 38
1, 596130, Poly_aftertouch_c, 0, 88, 0
1, 596137, Note_on_c, 0, 54, 89
1, 596153, Note_on_c, 0, 76, 91
1, 596158, Note_on_c, 0, 75, 48
1, 596159, Note_off_c, 0, 75, 127
1, 596162, Note_off_c, 0, 54, 70
1, 596167, Note_on_c, 0, 73, 68
1, 596168, Note_on_c, 0, 66, 58
1, 596171, Note_on_c, 0, 57, 23
1, 596188, Note_off_c, 0, 66, 64
1, 596194, Note_off_c, 0, 73, 67
1, 596198, Note_off_c, 0, 76, 62
1, 596213, Note_off_c, 0, 57, 40
1, 596316, Control_c, 0, 64, 75
1, 596332, Control_c, 0, 64, 52
1, 596347, Control_c, 0, 64, 65
1, 596349, Note_on_c, 0, 100, 106
1, 596351, Note_on_c, 0, 38, 94
1, 596354, Note_on_c, 0, 26, 95
1, 596357, Note_on_c, 0, 88, 91
1, 596361, Control_c, 0, 64, 127
1, 596363, Note_on_c, 0, 89, 74
1, 596377, Note_off_c, 0, 88, 75
1, 596379, Note_off_c, 0, 100, 68
1, 596380, Note_off_c, 0, 89, 68
1, 596388, Note_off_c, 0, 38, 63
1, 596391, Note_off_c, 0, 26, 57
1, 596399, Note_on_c, 0, 32, 11
1, 596446, Note_off_c, 0, 32, 47
1, 596454, Poly_aftertouch_c, 0, 27, 0
1, 596467, Poly_aftertouch_c, 0, 27, 0
1, 596543, Note_on_c, 0, 76, 78
1, 596549, Note_on_c, 0, 59, 39
1, 596550, Note_on_c, 0, 66, 72
1, 596551, Note_on_c, 0, 73, 77
1, 596562, Note_on_c, 0, 54, 40
1, 596568, Note_off_c, 0, 66, 67
1, 596575, Note_on_c, 0, 77, 32
1, 596578, Note_off_c, 0, 73, 69
1, 596580, Note_off_c, 0, 59, 54
1, 596593, Note_off_c, 0, 76, 64
1, 596595, Note_off_c, 0, 54, 57
1, 596607, Note_off_c, 0, 77, 57
1, 596732, Control_c, 0, 64, 75
1, 596746, Control_c, 0, 64, 51
1, 596761, Control_c, 0, 64, 56
1, 596768, Note_on_c, 0, 28, 90
1, 596768, Note_on_c, 0, 40, 91
1, 596770, Note_on_c, 0, 100, 95
1, 596773, Note_on_c, 0, 101, 91
1, 596774, Note_on_c, 0, 88, 88
1, 596776, Control_c, 0, 64, 90
1, 596781, Note_on_c, 0, 89, 65
1, 596785, Note_off_c, 0, 101, 46
1, 596786, Note_off_c, 0, 100, 74
1, 596787, Note_off_c, 0, 88, 72
1, 596790, Control_c, 0, 64, 127
1, 596797, Note_off_c, 0, 28, 66
1, 596798, Note_off_c, 0, 89, 68
1, 596799, Note_off_c, 0, 40, 65
1, 596860, Note_on_c, 0, 101, 13
1, 596887, Note_on_c, 0, 88, 16
1, 596899, Note_off_c, 0, 101, 36
1, 596921, Note_off_c, 0, 88, 38
1, 597081, Note_on_c, 0, 70, 44
1, 597095, Note_on_c, 0, 76, 85
1, 597096, Note_on_c, 0, 57, 85
1, 597097, Note_on_c, 0, 54, 91
1, 597101, Note_on_c, 0, 66, 83
1, 597103, Note_on_c, 0, 73, 85
1, 597104, Note_on_c, 0, 69, 88
1, 597125, Note_off_c, 0, 66, 69
1, 597125, Note_off_c, 0, 70, 50
1, 597152, Note_off_c, 0, 69, 63
1, 597168, Note_off_c, 0, 57, 61
1, 597182, Note_off_c, 0, 54, 63
1, 597191, Note_off_c, 0, 76, 64
1, 597198, Note_off_c, 0, 73, 65
1, 598034, Note_on_c, 0, 74, 98
1, 598036, Control_c, 0, 64, 87
1, 598050, Control_c, 0, 64, 53
1, 598065, Control_c, 0, 64, 0
1, 598067, Note_on_c, 0, 62, 55
1, 598074, Note_on_c, 0, 60, 60
1, 598100, Note_off_c, 0, 60, 63
1, 598118, Note_off_c, 0, 74, 62
1, 598124, Control_c, 0, 64, 19
1, 598134, Note_off_c, 0, 62, 54
1, 598136, Note_on_c, 0, 76, 72
1, 598139, Control_c, 0, 64, 74
1, 598154, Control_c, 0, 64, 119
1, 598165, Note_on_c, 0, 66, 45
1, 598169, Control_c, 0, 64, 127
1, 598192, Note_off_c, 0, 66, 56
1, 598200, Note_on_c, 0, 74, 79
1, 598204, Note_off_c, 0, 76, 58
1, 598216, Note_on_c, 0, 64, 60
1, 598253, Note_off_c, 0, 64, 62
1, 598255, Note_off_c, 0, 74, 64
1, 598262, Note_on_c, 0, 66, 74
1, 598263, Note_on_c, 0, 78, 76
1, 598297, Note_off_c, 0, 66, 62
1, 598315, Note_on_c, 0, 74, 72
1, 598329, Note_off_c, 0, 78, 58
1, 598335, Note_on_c, 0, 62, 67
1, 598367, Note_off_c, 0, 62, 64
1, 598370, Note_off_c, 0, 74, 60
1, 598372, Note_on_c, 0, 76, 79
1, 598373, Note_on_c, 0, 66, 74
1, 598408, Note_off_c, 0, 66, 61
1, 598434, Note_on_c, 0, 74, 74
1, 598437, Note_off_c, 0, 76, 58
1, 598448, Note_on_c, 0, 64, 67
1, 598483, Note_on_c, 0, 78, 79
1, 598484, Note_off_c, 0, 64, 64
1, 598488, Note_on_c, 0, 66, 79
1, 598488, Note_off_c, 0, 74, 63
1, 598525, Note_off_c, 0, 66, 64
1, 598556, Note_on_c, 0, 74, 81
1, 598568, Note_on_c, 0, 62, 79
1, 598571, Note_off_c, 0, 78, 57
1, 598608, Note_on_c, 0, 76, 75
1, 598610, Note_on_c, 0, 66, 73
1, 598613, Note_off_c, 0, 74, 66
1, 598614, Note_off_c, 0, 62, 61
1, 598645, Note_off_c, 0, 66, 58
1, 598673, Note_off_c, 0, 76, 63
1, 598689, Note_on_c, 0, 74, 73
1, 598694, Note_on_c, 0, 64, 64
1, 598723, Note_off_c, 0, 74, 60
1, 598736, Note_on_c, 0, 78, 76
1, 598737, Note_off_c, 0, 64, 62
1, 598739, Note_on_c, 0, 66, 72
1, 598773, Note_off_c, 0, 66, 60
1, 598803, Note_on_c, 0, 74, 81
1, 598811, Note_off_c, 0, 78, 62
1, 598815, Note_on_c, 0, 62, 72
1, 598856, Note_off_c, 0, 74, 64
1, 598861, Note_off_c, 0, 62, 66
1, 598866, Note_on_c, 0, 66, 70
1, 598867, Note_on_c, 0, 75, 54
1, 598868, Note_off_c, 0, 75, 127
1, 598881, Note_on_c, 0, 76, 73
1, 598900, Note_off_c, 0, 66, 60
1, 598917, Note_off_c, 0, 76, 59
1, 598936, Note_on_c, 0, 74, 62
1, 598940, Note_on_c, 0, 64, 68
1, 598965, Note_off_c, 0, 74, 66
1, 598977, Note_off_c, 0, 64, 63
1, 598985, Note_on_c, 0, 66, 76
1, 598988, Note_on_c, 0, 78, 78
1, 599022, Control_c, 0, 64, 83
1, 599024, Note_off_c, 0, 66, 60
1, 599037, Control_c, 0, 64, 79
1, 599039, Note_on_c, 0, 74, 74
1, 599051, Note_on_c, 0, 62, 77
1, 599052, Control_c, 0, 64, 88
1, 599057, Note_off_c, 0, 78, 59
1, 599066, Control_c, 0, 64, 127
1, 599102, Note_off_c, 0, 74, 61
1, 599107, Note_off_c, 0, 62, 64
1, 599109, Note_on_c, 0, 76, 74
1, 599113, Note_on_c, 0, 66, 74
1, 599137, Poly_aftertouch_c, 0, 64, 0
1, 599145, Note_off_c, 0, 66, 62
1, 599167, Note_on_c, 0, 64, 37
1, 599173, Note_off_c, 0, 76, 62
1, 599178, Note_on_c, 0, 74, 66
1, 599211, Note_off_c, 0, 74, 63
1, 599230, Note_off_c, 0, 64, 63
1, 599231, Note_on_c, 0, 66, 73
1, 599241, Note_on_c, 0, 78, 63
1, 599245, Control_c, 0, 64, 87
1, 599259, Control_c, 0, 64, 78
1, 599266, Note_off_c, 0, 66, 58
1, 599274, Control_c, 0, 64, 80
1, 599283, Note_off_c, 0, 78, 58
1, 599295, Note_on_c, 0, 74, 77
1, 599296, Control_c, 0, 64, 127
1, 599304, Note_on_c, 0, 62, 76
1, 599357, Note_off_c, 0, 74, 62
1, 599361, Note_off_c, 0, 62, 63
1, 599363, Note_on_c, 0, 76, 70
1, 599369, Note_on_c, 0, 66, 65
1, 599397, Note_off_c, 0, 66, 65
1, 599418, Note_on_c, 0, 74, 64
1, 599426, Note_on_c, 0, 64, 70
1, 599428, Note_off_c, 0, 76, 56
1, 599462, Note_off_c, 0, 74, 57
1, 599467, Note_off_c, 0, 64, 62
1, 599474, Note_on_c, 0, 66, 74
1, 599488, Note_on_c, 0, 78, 67
1, 599489, Control_c, 0, 64, 82
1, 599504, Control_c, 0, 64, 65
1, 599514, Note_off_c, 0, 66, 62
1, 599519, Control_c, 0, 64, 67
1, 599534, Control_c, 0, 64, 127
1, 599543, Note_on_c, 0, 74, 79
1, 599545, Note_off_c, 0, 78, 54
1, 599547, Note_on_c, 0, 62, 77
1, 599600, Note_off_c, 0, 62, 63
1, 599600, Note_off_c, 0, 74, 59
1, 599603, Note_on_c, 0, 66, 75
1, 599607, Note_on_c, 0, 76, 73
1, 599638, Note_off_c, 0, 66, 60
1, 599663, Note_on_c, 0, 74, 60
1, 599675, Note_on_c, 0, 64, 70
1, 599701, Note_off_c, 0, 76, 0
1, 599718, Note_off_c, 0, 74, 59
1, 599719, Note_off_c, 0, 64, 62
1, 599725, Note_on_c, 0, 66, 67
1, 599727, Control_c, 0, 64, 99
1, 599729, Note_on_c, 0, 76, 29
1, 599742, Control_c, 0, 64, 67
1, 599757, Control_c, 0, 64, 53
1, 599759, Note_off_c, 0, 76, 53
1, 599762, Note_off_c, 0, 66, 63
1, 599771, Control_c, 0, 64, 60
1, 599786, Control_c, 0, 64, 89
1, 599793, Note_on_c, 0, 74, 72
1, 599801, Control_c, 0, 64, 127
1, 599803, Note_on_c, 0, 62, 68
1, 599838, Note_off_c, 0, 74, 56
1, 599841, Note_on_c, 0, 66, 68
1, 599841, Note_on_c, 0, 76, 58
1, 599866, Note_off_c, 0, 76, 65
1, 599872, Poly_aftertouch_c, 0, 64, 127
1, 599880, Note_on_c, 0, 72, 13
1, 599883, Note_off_c, 0, 66, 52
1, 599903, Note_on_c, 0, 74, 69
1, 599909, Poly_aftertouch_c, 0, 64, 0
1, 599924, Note_off_c, 0, 62, 0
1, 599924, Note_on_c, 0, 62, 6
1, 599927, Note_off_c, 0, 72, 36
1, 599935, Note_on_c, 0, 78, 37
1, 599960, Note_off_c, 0, 74, 66
1, 599972, Note_off_c, 0, 78, 60
1, 599996, Note_off_c, 0, 62, 42
1, 599999, Note_on_c, 0, 77, 53
1, 600021, Note_off_c, 0, 77, 61
1, 600057, Note_on_c, 0, 64, 65
1, 600070, Note_on_c, 0, 62, 70
1, 600076, Control_c, 0, 64, 66
1, 600089, Note_on_c, 0, 80, 70
1, 600091, Control_c, 0, 64, 0
1, 600098, Note_off_c, 0, 62, 67
1, 600106, Note_off_c, 0, 64, 64
1, 600153, Note_off_c, 0, 80, 60
1, 600166, Note_on_c, 0, 77, 60
1, 600197, Note_on_c, 0, 69, 60
1, 600212, Note_on_c, 0, 71, 40
1, 600222, Note_off_c, 0, 69, 68
1, 600225, Note_off_c, 0, 77, 66
1, 600240, Note_off_c, 0, 71, 35
1, 600244, Note_on_c, 0, 66, 79
1, 600291, Note_off_c, 0, 66, 63
1, 600297, Control_c, 0, 64, 33
1, 600312, Note_on_c, 0, 78, 76
1, 600313, Control_c, 0, 64, 53
1, 600328, Control_c, 0, 64, 47
1, 600340, Note_on_c, 0, 64, 55
1, 600341, Note_on_c, 0, 62, 58
1, 600343, Control_c, 0, 64, 0
1, 600363, Note_off_c, 0, 62, 60
1, 600363, Note_off_c, 0, 64, 60
1, 600374, Note_off_c, 0, 78, 62
1, 600387, Note_on_c, 0, 80, 65
1, 600456, Note_on_c, 0, 77, 60
1, 600458, Note_on_c, 0, 71, 51
1, 600461, Note_off_c, 0, 80, 58
1, 600479, Note_off_c, 0, 71, 57
1, 600485, Note_off_c, 0, 77, 67
1, 600503, Note_on_c, 0, 66, 76
1, 600550, Control_c, 0, 64, 48
1, 600552, Note_off_c, 0, 66, 64
1, 600565, Control_c, 0, 64, 63
1, 600578, Note_on_c, 0, 78, 76
1, 600580, Control_c, 0, 64, 68
1, 600586, Note_on_c, 0, 64, 62
1, 600595, Control_c, 0, 64, 70
1, 600605, Note_on_c, 0, 62, 38
1, 600610, Control_c, 0, 64, 72
1, 600613, Note_off_c, 0, 78, 61
1, 600625, Control_c, 0, 64, 76
1, 600630, Note_off_c, 0, 64, 63
1, 600637, Note_on_c, 0, 74, 35
1, 600639, Control_c, 0, 64, 82
1, 600642, Note_on_c, 0, 80, 72
1, 600646, Note_off_c, 0, 62, 49
1, 600652, Note_on_c, 0, 69, 45
1, 600654, Control_c, 0, 64, 87
1, 600669, Control_c, 0, 64, 92
1, 600678, Note_off_c, 0, 69, 57
1, 600684, Control_c, 0, 64, 98
1, 600699, Control_c, 0, 64, 115
1, 600708, Note_on_c, 0, 77, 72
1, 600713, Control_c, 0, 64, 127
1, 600728, Note_off_c, 0, 80, 61
1, 600738, Note_off_c, 0, 74, 34
1, 600742, Note_off_c, 0, 77, 64
1, 600758, Control_c, 0, 64, 93
1, 600759, Note_on_c, 0, 66, 83
1, 600771, Control_c, 0, 64, 65
1, 600793, Control_c, 0, 64, 37
1, 600794, Note_off_c, 0, 66, 67
1, 600808, Control_c, 0, 64, 0
1, 600827, Note_on_c, 0, 48, 70
1, 600834, Note_on_c, 0, 80, 89
1, 600838, Control_c, 0, 64, 47
1, 600852, Control_c, 0, 64, 72
1, 600860, Note_on_c, 0, 62, 69
1, 600860, Note_off_c, 0, 48, 67
1, 600867, Control_c, 0, 64, 96
1, 600882, Control_c, 0, 64, 127
1, 600885, Note_on_c, 0, 60, 23
1, 600888, Note_on_c, 0, 81, 68
1, 600893, Note_off_c, 0, 62, 64
1, 600893, Note_off_c, 0, 80, 63
1, 600921, Note_off_c, 0, 60, 44
1, 600937, Note_off_c, 0, 81, 56
1, 600953, Note_on_c, 0, 77, 60
1, 601020, Note_off_c, 0, 77, 62
1, 601045, Control_c, 0, 64, 86
1, 601060, Control_c, 0, 64, 57
1, 601070, Note_on_c, 0, 78, 85
1, 601075, Control_c, 0, 64, 0
1, 601088, Note_on_c, 0, 64, 73
1, 601102, Note_on_c, 0, 62, 58
1, 601120, Control_c, 0, 64, 17
1, 601121, Note_off_c, 0, 64, 65
1, 601132, Note_off_c, 0, 62, 67
1, 601135, Control_c, 0, 64, 52
1, 601138, Note_on_c, 0, 80, 78
1, 601139, Note_off_c, 0, 78, 57
1, 601149, Control_c, 0, 64, 70
1, 601164, Control_c, 0, 64, 80
1, 601179, Control_c, 0, 64, 88
1, 601188, Note_on_c, 0, 77, 65
1, 601194, Control_c, 0, 64, 95
1, 601209, Note_off_c, 0, 80, 65
1, 601209, Control_c, 0, 64, 103
1, 601224, Control_c, 0, 64, 127
1, 601234, Note_on_c, 0, 69, 19
1, 601235, Note_off_c, 0, 77, 63
1, 601258, Note_on_c, 0, 66, 80
1, 601278, Note_off_c, 0, 69, 55
1, 601283, Control_c, 0, 64, 79
1, 601296, Note_off_c, 0, 66, 63
1, 601298, Control_c, 0, 64, 56
1, 601313, Control_c, 0, 64, 0
1, 601334, Note_on_c, 0, 48, 69
1, 601342, Note_on_c, 0, 80, 72
1, 601357, Control_c, 0, 64, 38
1, 601367, Note_off_c, 0, 48, 67
1, 601372, Control_c, 0, 64, 61
1, 601386, Control_c, 0, 64, 73
1, 601387, Note_on_c, 0, 62, 70
1, 601390, Note_off_c, 0, 80, 64
1, 601394, Note_on_c, 0, 81, 70
1, 601401, Control_c, 0, 64, 82
1, 601416, Control_c, 0, 64, 90
1, 601431, Control_c, 0, 64, 98
1, 601433, Note_off_c, 0, 62, 60
1, 601445, Note_off_c, 0, 81, 59
1, 601446, Control_c, 0, 64, 109
1, 601452, Note_on_c, 0, 77, 74
1, 601460, Control_c, 0, 64, 127
1, 601528, Note_off_c, 0, 77, 64
1, 601557, Control_c, 0, 64, 88
1, 601572, Control_c, 0, 64, 62
1, 601586, Control_c, 0, 64, 29
1, 601599, Note_on_c, 0, 64, 72
1, 601601, Control_c, 0, 64, 0
1, 601610, Note_on_c, 0, 62, 55
1, 601615, Note_off_c, 0, 64, 69
1, 601622, Note_on_c, 0, 79, 8
1, 601631, Control_c, 0, 64, 43
1, 601633, Note_off_c, 0, 62, 61
1, 601646, Control_c, 0, 64, 63
1, 601650, Note_on_c, 0, 80, 73
1, 601660, Control_c, 0, 64, 79
1, 601664, Poly_aftertouch_c, 0, 75, 127
1, 601665, Note_off_c, 0, 79, 28
1, 601675, Control_c, 0, 64, 93
1, 601690, Control_c, 0, 64, 105
1, 601698, Poly_aftertouch_c, 0, 75, 0
1, 601705, Control_c, 0, 64, 109
1, 601716, Note_on_c, 0, 77, 74
1, 601720, Control_c, 0, 64, 115
1, 601727, Note_on_c, 0, 69, 46
1, 601735, Control_c, 0, 64, 127
1, 601740, Note_off_c, 0, 80, 60
1, 601752, Note_off_c, 0, 69, 59
1, 601775, Note_on_c, 0, 66, 81
1, 601778, Note_off_c, 0, 77, 65
1, 601808, Control_c, 0, 64, 77
1, 601809, Note_off_c, 0, 66, 64
1, 601823, Control_c, 0, 64, 55
1, 601838, Control_c, 0, 64, 0
1, 601858, Note_on_c, 0, 64, 63
1, 601862, Note_on_c, 0, 78, 78
1, 601873, Note_on_c, 0, 62, 54
1, 601880, Note_on_c, 0, 73, 50
1, 601898, Control_c, 0, 64, 46
1, 601901, Note_off_c, 0, 64, 61
1, 601902, Note_off_c, 0, 62, 58
1, 601912, Note_off_c, 0, 73, 64
1, 601913, Control_c, 0, 64, 65
1, 601916, Note_on_c, 0, 80, 73
1, 601918, Note_off_c, 0, 78, 63
1, 601928, Control_c, 0, 64, 81
1, 601943, Control_c, 0, 64, 105
1, 601958, Control_c, 0, 64, 127
1, 601965, Note_off_c, 0, 80, 65
1, 601975, Note_on_c, 0, 70, 58
1, 601984, Note_on_c, 0, 77, 65
1, 601995, Note_off_c, 0, 70, 62
1, 602009, Note_on_c, 0, 66, 66
1, 602012, Note_off_c, 0, 77, 68
1, 602047, Control_c, 0, 64, 92
1, 602062, Control_c, 0, 64, 64
1, 602071, Note_off_c, 0, 66, 44
1, 602076, Control_c, 0, 64, 37
1, 602091, Control_c, 0, 64, 0
1, 602091, Note_on_c, 0, 64, 63
1, 602118, Note_on_c, 0, 62, 44
1, 602121, Control_c, 0, 64, 28
1, 602128, Note_on_c, 0, 78, 62
1, 602136, Note_off_c, 0, 64, 66
1, 602136, Control_c, 0, 64, 55
1, 602151, Control_c, 0, 64, 75
1, 602151, Note_off_c, 0, 62, 63
1, 602165, Control_c, 0, 64, 93
1, 602180, Control_c, 0, 64, 117
1, 602183, Note_on_c, 0, 80, 72
1, 602184, Note_off_c, 0, 78, 57
1, 602195, Control_c, 0, 64, 127
1, 602223, Note_on_c, 0, 77, 66
1, 602257, Note_off_c, 0, 77, 66
1, 602269, Note_off_c, 0, 80, 62
1, 602298, Note_on_c, 0, 66, 75
1, 602306, Control_c, 0, 64, 88
1, 602321, Control_c, 0, 64, 63
1, 602321, Note_off_c, 0, 66, 67
1, 602336, Control_c, 0, 64, 33
1, 602349, Note_on_c, 0, 63, 61
1, 602351, Control_c, 0, 64, 0
1, 602370, Note_on_c, 0, 60, 49
1, 602378, Note_on_c, 0, 80, 72
1, 602380, Control_c, 0, 64, 18
1, 602386, Note_off_c, 0, 63, 64
1, 602395, Control_c, 0, 64, 50
1, 602409, Control_c, 0, 64, 68
1, 602412, Note_off_c, 0, 60, 54
1, 602423, Note_off_c, 0, 80, 56
1, 602424, Control_c, 0, 64, 82
1, 602439, Control_c, 0, 64, 97
1, 602445, Note_on_c, 0, 81, 71
1, 602454, Control_c, 0, 64, 127
1, 602483, Note_on_c, 0, 77, 68
1, 602487, Note_off_c, 0, 81, 65
1, 602515, Note_off_c, 0, 77, 67
1, 602544, Note_on_c, 0, 66, 80
1, 602557, Control_c, 0, 64, 105
1, 602572, Control_c, 0, 64, 69
1, 602576, Note_off_c, 0, 66, 64
1, 602587, Control_c, 0, 64, 47
1, 602602, Control_c, 0, 64, 0
1, 602612, Note_on_c, 0, 80, 76
1, 602619, Note_on_c, 0, 62, 66
1, 602629, Note_on_c, 0, 60, 49
1, 602631, Control_c, 0, 64, 17
1, 602646, Control_c, 0, 64, 50
1, 602655, Note_off_c, 0, 80, 63
1, 602655, Note_off_c, 0, 60, 55
1, 602659, Note_off_c, 0, 62, 64
1, 602661, Control_c, 0, 64, 70
1, 602676, Control_c, 0, 64, 86
1, 602682, Note_on_c, 0, 81, 78
1, 602691, Control_c, 0, 64, 106
1, 602705, Control_c, 0, 64, 127
1, 602735, Note_off_c, 0, 81, 64
1, 602735, Note_on_c, 0, 77, 71
1, 602775, Note_off_c, 0, 77, 63
1, 602785, Note_on_c, 0, 66, 65
1, 602795, Control_c, 0, 64, 98
1, 602809, Poly_aftertouch_c, 0, 69, 127
1, 602810, Note_off_c, 0, 66, 65
1, 602810, Control_c, 0, 64, 66
1, 602825, Control_c, 0, 64, 34
1, 602829, Poly_aftertouch_c, 0, 69, 0
1, 602840, Control_c, 0, 64, 0
1, 602854, Note_on_c, 0, 80, 76
1, 602877, Note_on_c, 0, 66, 66
1, 602886, Note_on_c, 0, 64, 34
1, 602899, Control_c, 0, 64, 28
1, 602914, Note_off_c, 0, 66, 60
1, 602914, Control_c, 0, 64, 55
1, 602921, Note_off_c, 0, 64, 32
1, 602929, Control_c, 0, 64, 71
1, 602942, Note_off_c, 0, 80, 62
1, 602944, Control_c, 0, 64, 87
1, 602959, Control_c, 0, 64, 127
1, 602968, Note_on_c, 0, 79, 80
1, 602988, Note_on_c, 0, 73, 64
1, 603015, Note_off_c, 0, 79, 64
1, 603017, Note_off_c, 0, 73, 66
1, 603041, Note_on_c, 0, 68, 61
1, 603055, Control_c, 0, 64, 119
1, 603070, Control_c, 0, 64, 71
1, 603081, Note_off_c, 0, 68, 57
1, 603085, Control_c, 0, 64, 46
1, 603100, Control_c, 0, 64, 0
1, 603115, Note_on_c, 0, 80, 86
1, 603129, Note_on_c, 0, 64, 62
1, 603138, Note_on_c, 0, 66, 65
1, 603144, Control_c, 0, 64, 41
1, 603155, Note_off_c, 0, 80, 59
1, 603159, Control_c, 0, 64, 68
1, 603161, Note_off_c, 0, 64, 53
1, 603165, Note_off_c, 0, 66, 66
1, 603171, Note_on_c, 0, 82, 78
1, 603174, Control_c, 0, 64, 92
1, 603188, Control_c, 0, 64, 127
1, 603191, Note_off_c, 0, 82, 68
1, 603227, Note_on_c, 0, 79, 71
1, 603242, Note_on_c, 0, 71, 51
1, 603263, Note_off_c, 0, 71, 61
1, 603267, Note_on_c, 0, 73, 70
1, 603269, Note_on_c, 0, 68, 75
1, 603285, Note_off_c, 0, 68, 69
1, 603291, Note_off_c, 0, 73, 68
1, 603291, Note_off_c, 0, 79, 65
1, 603307, Control_c, 0, 64, 70
1, 603322, Control_c, 0, 64, 40
1, 603337, Control_c, 0, 64, 0
1, 603366, Control_c, 0, 64, 15
1, 603381, Control_c, 0, 64, 54
1, 603391, Note_on_c, 0, 82, 67
1, 603396, Control_c, 0, 64, 74
1, 603411, Control_c, 0, 64, 112
1, 603414, Note_on_c, 0, 62, 37
1, 603423, Note_on_c, 0, 64, 50
1, 603423, Note_off_c, 0, 82, 64
1, 603426, Control_c, 0, 64, 127
1, 603437, Note_on_c, 0, 83, 78
1, 603446, Note_off_c, 0, 62, 51
1, 603448, Note_off_c, 0, 64, 59
1, 603510, Note_on_c, 0, 79, 80
1, 603511, Note_off_c, 0, 83, 64
1, 603512, Note_on_c, 0, 73, 70
1, 603513, Note_on_c, 0, 71, 59
1, 603534, Note_off_c, 0, 71, 63
1, 603541, Note_off_c, 0, 73, 67
1, 603548, Note_on_c, 0, 68, 66
1, 603548, Note_off_c, 0, 79, 64
1, 603575, Control_c, 0, 64, 102
1, 603590, Control_c, 0, 64, 68
1, 603605, Control_c, 0, 64, 43
1, 603610, Note_off_c, 0, 68, 64
1, 603619, Control_c, 0, 64, 0
1, 603635, Note_on_c, 0, 82, 85
1, 603642, Note_on_c, 0, 64, 54
1, 603647, Note_on_c, 0, 66, 43
1, 603649, Control_c, 0, 64, 25
1, 603663, Control_c, 0, 64, 59
1, 603676, Note_off_c, 0, 66, 55
1, 603678, Control_c, 0, 64, 80
1, 603686, Note_off_c, 0, 82, 66
1, 603689, Note_off_c, 0, 64, 64
1, 603693, Control_c, 0, 64, 127
1, 603701, Note_on_c, 0, 83, 82
1, 603743, Note_on_c, 0, 71, 53
1, 603757, Note_on_c, 0, 79, 77
1, 603764, Note_off_c, 0, 83, 65
1, 603765, Note_off_c, 0, 71, 60
1, 603776, Note_on_c, 0, 73, 65
1, 603798, Note_on_c, 0, 68, 72
1, 603808, Note_off_c, 0, 79, 62
1, 603808, Note_off_c, 0, 73, 67
1, 603848, Note_off_c, 0, 68, 59
1, 603862, Control_c, 0, 64, 69
1, 603866, Note_on_c, 0, 63, 73
1, 603877, Control_c, 0, 64, 47
1, 603892, Control_c, 0, 64, 15
1, 603893, Note_off_c, 0, 63, 67
1, 603901, Note_on_c, 0, 66, 37
1, 603902, Note_on_c, 0, 82, 76
1, 603907, Control_c, 0, 64, 33
1, 603922, Control_c, 0, 64, 60
1, 603934, Note_off_c, 0, 66, 50
1, 603937, Control_c, 0, 64, 85
1, 603951, Control_c, 0, 64, 127
1, 603959, Note_off_c, 0, 82, 64
1, 603974, Note_on_c, 0, 84, 54
1, 603992, Note_on_c, 0, 86, 38
1, 604007, Note_on_c, 0, 75, 64
1, 604009, Note_on_c, 0, 72, 66
1, 604010, Note_on_c, 0, 81, 75
1, 604020, Note_off_c, 0, 86, 50
1, 604036, Note_off_c, 0, 75, 68
1, 604038, Note_off_c, 0, 84, 65
1, 604039, Note_off_c, 0, 72, 64
1, 604056, Note_off_c, 0, 81, 63
1, 604074, Note_on_c, 0, 70, 76
1, 604098, Note_off_c, 0, 70, 67
1, 604100, Control_c, 0, 64, 78
1, 604115, Control_c, 0, 64, 55
1, 604123, Note_on_c, 0, 66, 63
1, 604130, Control_c, 0, 64, 16
1, 604139, Note_on_c, 0, 68, 49
1, 604144, Control_c, 0, 64, 0
1, 604147, Note_on_c, 0, 82, 84
1, 604157, Note_off_c, 0, 66, 65
1, 604159, Control_c, 0, 64, 41
1, 604162, Note_off_c, 0, 68, 61
1, 604174, Control_c, 0, 64, 63
1, 604188, Control_c, 0, 64, 82
1, 604203, Control_c, 0, 64, 127
1, 604208, Note_off_c, 0, 82, 65
1, 604222, Note_on_c, 0, 84, 80
1, 604255, Note_on_c, 0, 73, 64
1, 604264, Note_on_c, 0, 81, 79
1, 604273, Note_on_c, 0, 75, 32
1, 604286, Note_off_c, 0, 73, 66
1, 604303, Note_off_c, 0, 84, 64
1, 604304, Note_off_c, 0, 75, 48
1, 604309, Note_off_c, 0, 81, 64
1, 604332, Note_on_c, 0, 70, 78
1, 604352, Control_c, 0, 64, 101
1, 604367, Control_c, 0, 64, 64
1, 604370, Note_off_c, 0, 70, 63
1, 604382, Note_on_c, 0, 66, 78
1, 604382, Control_c, 0, 64, 35
1, 604396, Note_on_c, 0, 82, 84
1, 604397, Control_c, 0, 64, 0
1, 604402, Note_on_c, 0, 68, 59
1, 604411, Note_off_c, 0, 66, 65
1, 604422, Note_off_c, 0, 68, 63
1, 604427, Control_c, 0, 64, 42
1, 604441, Control_c, 0, 64, 64
1, 604449, Note_off_c, 0, 82, 67
1, 604456, Control_c, 0, 64, 88
1, 604462, Note_on_c, 0, 84, 82
1, 604471, Control_c, 0, 64, 127
1, 604513, Note_on_c, 0, 81, 80
1, 604524, Note_on_c, 0, 75, 61
1, 604538, Note_on_c, 0, 73, 60
1, 604549, Note_off_c, 0, 84, 66
1, 604551, Note_off_c, 0, 75, 65
1, 604564, Note_off_c, 0, 73, 68
1, 604568, Note_off_c, 0, 81, 65
1, 604596, Note_on_c, 0, 70, 81
1, 604629, Note_off_c, 0, 70, 63
1, 604641, Control_c, 0, 64, 81
1, 604656, Control_c, 0, 64, 61
1, 604657, Note_on_c, 0, 78, 32
1, 604658, Note_on_c, 0, 82, 86
1, 604660, Note_on_c, 0, 66, 77
1, 604667, Note_on_c, 0, 68, 71
1, 604671, Control_c, 0, 64, 49
1, 604685, Control_c, 0, 64, 56
1, 604691, Note_off_c, 0, 66, 62
1, 604694, Note_off_c, 0, 68, 69
1, 604700, Note_off_c, 0, 82, 55
1, 604700, Control_c, 0, 64, 72
1, 604715, Control_c, 0, 64, 107
1, 604721, Note_on_c, 0, 84, 86
1, 604730, Control_c, 0, 64, 127
1, 604768, Note_off_c, 0, 78, 35
1, 604773, Note_on_c, 0, 81, 79
1, 604790, Note_on_c, 0, 75, 67
1, 604798, Note_on_c, 0, 73, 66
1, 604816, Note_off_c, 0, 75, 68
1, 604818, Note_off_c, 0, 81, 64
1, 604819, Note_off_c, 0, 84, 49
1, 604830, Note_off_c, 0, 73, 67
1, 604838, Note_on_c, 0, 70, 83
1, 604861, Note_off_c, 0, 70, 70
1, 604879, Control_c, 0, 64, 72
1, 604893, Control_c, 0, 64, 54
1, 604908, Control_c, 0, 64, 45
1, 604911, Note_on_c, 0, 66, 72
1, 604917, Note_on_c, 0, 84, 84
1, 604923, Control_c, 0, 64, 59
1, 604924, Note_on_c, 0, 68, 67
1, 604938, Control_c, 0, 64, 79
1, 604945, Note_off_c, 0, 66, 62
1, 604947, Note_off_c, 0, 68, 68
1, 604953, Control_c, 0, 64, 127
1, 604971, Note_on_c, 0, 86, 88
1, 604983, Note_off_c, 0, 84, 58
1, 605018, Note_on_c, 0, 83, 85
1, 605032, Note_on_c, 0, 75, 79
1, 605045, Note_on_c, 0, 77, 57
1, 605063, Note_off_c, 0, 75, 66
1, 605064, Note_off_c, 0, 86, 62
1, 605066, Note_off_c, 0, 77, 63
1, 605072, Note_off_c, 0, 83, 64
1, 605090, Note_on_c, 0, 72, 81
1, 605101, Control_c, 0, 64, 74
1, 605116, Control_c, 0, 64, 49
1, 605120, Note_off_c, 0, 72, 67
1, 605131, Control_c, 0, 64, 0
1, 605161, Control_c, 0, 64, 42
1, 605162, Note_on_c, 0, 84, 89
1, 605164, Note_on_c, 0, 68, 74
1, 605167, Note_on_c, 0, 70, 83
1, 605175, Control_c, 0, 64, 71
1, 605190, Control_c, 0, 64, 110
1, 605199, Note_off_c, 0, 70, 65
1, 605205, Control_c, 0, 64, 127
1, 605213, Note_on_c, 0, 86, 84
1, 605221, Note_off_c, 0, 68, 64
1, 605238, Note_off_c, 0, 84, 66
1, 605261, Note_on_c, 0, 77, 60
1, 605263, Note_on_c, 0, 75, 83
1, 605287, Note_on_c, 0, 83, 86
1, 605293, Note_off_c, 0, 77, 67
1, 605306, Note_off_c, 0, 75, 64
1, 605339, Note_off_c, 0, 86, 64
1, 605346, Note_off_c, 0, 83, 61
1, 605358, Note_on_c, 0, 72, 83
1, 605361, Control_c, 0, 64, 111
1, 605376, Control_c, 0, 64, 63
1, 605390, Control_c, 0, 64, 40
1, 605405, Control_c, 0, 64, 49
1, 605406, Note_off_c, 0, 72, 65
1, 605417, Note_on_c, 0, 54, 72
1, 605420, Control_c, 0, 64, 69
1, 605424, Note_on_c, 0, 57, 72
1, 605434, Control_c, 0, 64, 127
1, 605442, Note_off_c, 0, 57, 65
1, 605445, Note_on_c, 0, 84, 91
1, 605445, Note_off_c, 0, 54, 67
1, 605452, Note_on_c, 0, 67, 52
1, 605476, Note_off_c, 0, 67, 59
1, 605490, Note_on_c, 0, 86, 80
1, 605515, Note_on_c, 0, 80, 3
1, 605541, Note_on_c, 0, 77, 74
1, 605548, Note_on_c, 0, 83, 90
1, 605554, Note_off_c, 0, 80, 33
1, 605557, Note_off_c, 0, 77, 70
1, 605558, Note_on_c, 0, 75, 68
1, 605572, Note_on_c, 0, 76, 38
1, 605575, Note_off_c, 0, 75, 68
1, 605580, Note_off_c, 0, 84, 60
1, 605595, Note_off_c, 0, 86, 62
1, 605603, Note_off_c, 0, 76, 57
1, 605603, Note_off_c, 0, 83, 67
1, 605612, Control_c, 0, 64, 70
1, 605615, Note_on_c, 0, 72, 86
1, 605627, Control_c, 0, 64, 46
1, 605642, Control_c, 0, 64, 25
1, 605657, Control_c, 0, 64, 51
1, 605662, Note_off_c, 0, 72, 66
1, 605671, Control_c, 0, 64, 87
1, 605685, Note_on_c, 0, 68, 76
1, 605686, Control_c, 0, 64, 127
1, 605691, Note_on_c, 0, 70, 78
1, 605695, Note_on_c, 0, 84, 89
1, 605713, Note_off_c, 0, 68, 62
1, 605744, Note_off_c, 0, 70, 64
1, 605747, Note_on_c, 0, 86, 78
1, 605800, Note_on_c, 0, 83, 87
1, 605800, Note_on_c, 0, 75, 77
1, 605809, Note_on_c, 0, 77, 63
1, 605831, Note_off_c, 0, 84, 63
1, 605838, Note_off_c, 0, 77, 68
1, 605847, Note_off_c, 0, 86, 65
1, 605863, Note_on_c, 0, 72, 88
1, 605863, Note_off_c, 0, 75, 63
1, 605864, Control_c, 0, 64, 104
1, 605879, Control_c, 0, 64, 65
1, 605888, Note_off_c, 0, 83, 59
1, 605894, Control_c, 0, 64, 27
1, 605906, Note_off_c, 0, 72, 66
1, 605910, Control_c, 0, 64, 0
1, 605916, Note_on_c, 0, 66, 73
1, 605924, Note_on_c, 0, 69, 74
1, 605924, Control_c, 0, 64, 29
1, 605939, Control_c, 0, 64, 67
1, 605952, Note_on_c, 0, 84, 87
1, 605954, Control_c, 0, 64, 127
1, 606000, Note_on_c, 0, 86, 82
1, 606010, Note_on_c, 0, 75, 78
1, 606013, Note_off_c, 0, 66, 64
1, 606038, Note_off_c, 0, 69, 62
1, 606044, Note_on_c, 0, 78, 47
1, 606071, Note_on_c, 0, 83, 86
1, 606074, Note_off_c, 0, 75, 60
1, 606107, Note_off_c, 0, 84, 64
1, 606122, Note_off_c, 0, 78, 63
1, 606123, Note_off_c, 0, 86, 65
1, 606136, Note_on_c, 0, 72, 89
1, 606169, Note_off_c, 0, 83, 55
1, 606169, Control_c, 0, 64, 67
1, 606179, Note_off_c, 0, 72, 66
1, 606184, Control_c, 0, 64, 0
1, 606194, Note_on_c, 0, 68, 78
1, 606208, Note_on_c, 0, 70, 76
1, 606213, Control_c, 0, 64, 50
1, 606220, Note_on_c, 0, 84, 85
1, 606228, Control_c, 0, 64, 78
1, 606238, Note_on_c, 0, 83, 20
1, 606243, Control_c, 0, 64, 127
1, 606254, Note_on_c, 0, 86, 79
1, 606279, Note_off_c, 0, 70, 64
1, 606280, Note_off_c, 0, 68, 64
1, 606285, Note_off_c, 0, 83, 48
1, 606287, Note_on_c, 0, 75, 66
1, 606312, Note_on_c, 0, 77, 76
1, 606321, Note_on_c, 0, 83, 73
1, 606321, Note_off_c, 0, 75, 61
1, 606348, Note_off_c, 0, 77, 61
1, 606351, Note_off_c, 0, 84, 65
1, 606361, Control_c, 0, 64, 80
1, 606362, Note_off_c, 0, 86, 64
1, 606376, Control_c, 0, 64, 61
1, 606378, Note_on_c, 0, 72, 90
1, 606390, Control_c, 0, 64, 58
1, 606405, Control_c, 0, 64, 65
1, 606419, Note_off_c, 0, 72, 67
1, 606420, Control_c, 0, 64, 79
1, 606421, Note_on_c, 0, 67, 52
1, 606422, Note_on_c, 0, 69, 62
1, 606435, Control_c, 0, 64, 127
1, 606436, Note_on_c, 0, 78, 84
1, 606446, Note_off_c, 0, 67, 62
1, 606450, Note_off_c, 0, 69, 68
1, 606464, Note_off_c, 0, 78, 65
1, 606479, Note_on_c, 0, 84, 62
1, 606499, Note_off_c, 0, 83, 65
1, 606523, Note_on_c, 0, 86, 86
1, 606554, Note_on_c, 0, 89, 122
1, 606559, Note_off_c, 0, 84, 59
1, 606570, Note_on_c, 0, 87, 80
1, 606576, Note_off_c, 0, 89, 74
1, 606591, Note_off_c, 0, 87, 70
1, 606599, Note_on_c, 0, 83, 85
1, 606646, Note_off_c, 0, 86, 65
1, 606648, Note_on_c, 0, 72, 85
1, 606667, Note_on_c, 0, 87, 17
1, 606673, Note_off_c, 0, 87, 46
1, 606679, Note_off_c, 0, 72, 64
1, 606712, Note_on_c, 0, 68, 74
1, 606736, Note_on_c, 0, 84, 81
1, 606747, Note_on_c, 0, 70, 69
1, 606756, Note_off_c, 0, 83, 64
1, 606783, Note_on_c, 0, 86, 76
1, 606788, Note_off_c, 0, 68, 63
1, 606795, Note_off_c, 0, 70, 63
1, 606798, Note_on_c, 0, 75, 59
1, 606818, Note_off_c, 0, 75, 64
1, 606837, Note_on_c, 0, 77, 72
1, 606844, Control_c, 0, 64, 74
1, 606855, Note_on_c, 0, 83, 85
1, 606859, Control_c, 0, 64, 49
1, 606874, Control_c, 0, 64, 0
1, 606882, Note_off_c, 0, 84, 63
1, 606888, Note_off_c, 0, 77, 53
1, 606888, Control_c, 0, 64, 32
1, 606897, Note_off_c, 0, 86, 65
1, 606903, Control_c, 0, 64, 60
1, 606904, Note_on_c, 0, 72, 77
1, 606913, Note_on_c, 0, 66, 71
1, 606918, Control_c, 0, 64, 79
1, 606920, Note_on_c, 0, 69, 70
1, 606933, Control_c, 0, 64, 98
1, 606948, Control_c, 0, 64, 127
1, 606953, Note_off_c, 0, 72, 65
1, 606970, Note_off_c, 0, 66, 63
1, 606973, Note_off_c, 0, 69, 64
1, 606991, Note_on_c, 0, 78, 57
1, 606996, Note_on_c, 0, 84, 75
1, 607010, Note_off_c, 0, 78, 62
1, 607032, Note_on_c, 0, 86, 85
1, 607035, Note_off_c, 0, 83, 65
1, 607090, Note_on_c, 0, 91, 117
1, 607114, Note_off_c, 0, 91, 72
1, 607131, Note_on_c, 0, 88, 39
1, 607132, Note_off_c, 0, 88, 127
1, 607145, Note_off_c, 0, 84, 66
1, 607152, Note_on_c, 0, 83, 51
1, 607153, Note_off_c, 0, 86, 65
1, 607155, Note_on_c, 0, 80, 39
1, 607160, Note_on_c, 0, 74, 27
1, 607176, Note_off_c, 0, 83, 58
1, 607183, Note_off_c, 0, 80, 54
1, 607197, Note_off_c, 0, 74, 44
1, 607228, Poly_aftertouch_c, 0, 72, 0
1, 607229, Control_c, 0, 64, 86
1, 607244, Control_c, 0, 64, 56
1, 607249, Note_on_c, 0, 82, 50
1, 607250, Note_on_c, 0, 89, 90
1, 607259, Control_c, 0, 64, 0
1, 607263, Note_on_c, 0, 77, 95
1, 607264, Note_on_c, 0, 81, 77
1, 607268, Note_off_c, 0, 82, 37
1, 607286, Note_on_c, 0, 66, 56
1, 607286, Note_on_c, 0, 78, 57
1, 607302, Note_on_c, 0, 84, 33
1, 607305, Note_on_c, 0, 69, 27
1, 607308, Note_off_c, 0, 78, 59
1, 607310, Note_off_c, 0, 77, 64
1, 607318, Control_c, 0, 64, 58
1, 607321, Note_off_c, 0, 66, 63
1, 607323, Note_off_c, 0, 89, 65
1, 607333, Control_c, 0, 64, 85
1, 607335, Note_off_c, 0, 81, 61
1, 607336, Note_off_c, 0, 84, 53
1, 607341, Note_off_c, 0, 69, 47
1, 607348, Control_c, 0, 64, 127
1, 607389, Note_on_c, 0, 89, 99
1, 607397, Note_on_c, 0, 78, 73
1, 607397, Note_on_c, 0, 72, 23
1, 607400, Note_on_c, 0, 81, 58
1, 607403, Note_on_c, 0, 77, 56
1, 607409, Note_on_c, 0, 69, 54
1, 607409, Note_on_c, 0, 84, 75
1, 607412, Note_on_c, 0, 66, 51
1, 607425, Note_off_c, 0, 77, 63
1, 607430, Note_off_c, 0, 78, 62
1, 607439, Note_off_c, 0, 66, 58
1, 607441, Note_off_c, 0, 72, 61
1, 607442, Note_off_c, 0, 69, 53
1, 607453, Note_off_c, 0, 89, 64
1, 607460, Note_off_c, 0, 81, 63
1, 607465, Note_off_c, 0, 84, 63
1, 607515, Note_on_c, 0, 77, 60
1, 607535, Note_on_c, 0, 66, 59
1, 607535, Note_on_c, 0, 69, 61
1, 607538, Note_on_c, 0, 89, 92
1, 607543, Note_on_c, 0, 72, 68
1, 607544, Note_on_c, 0, 78, 84
1, 607557, Note_on_c, 0, 84, 63
1, 607560, Note_on_c, 0, 81, 58
1, 607573, Note_off_c, 0, 77, 63
1, 607575, Note_off_c, 0, 66, 60
1, 607577, Note_off_c, 0, 69, 62
1, 607577, Note_off_c, 0, 72, 61
1, 607606, Note_off_c, 0, 78, 53
1, 607642, Note_off_c, 0, 84, 60
1, 607650, Note_off_c, 0, 89, 62
1, 607660, Note_off_c, 0, 81, 60
1, 607669, Note_on_c, 0, 72, 65
1, 607674, Note_on_c, 0, 77, 73
1, 607675, Note_on_c, 0, 66, 62
1, 607677, Note_on_c, 0, 69, 62
1, 607705, Note_off_c, 0, 77, 63
1, 607713, Note_off_c, 0, 69, 63
1, 607716, Note_off_c, 0, 66, 59
1, 607719, Note_off_c, 0, 72, 58
1, 607732, Note_on_c, 0, 89, 93
1, 607745, Note_on_c, 0, 78, 77
1, 607755, Note_on_c, 0, 84, 66
1, 607760, Note_on_c, 0, 81, 56
1, 607796, Note_off_c, 0, 78, 52
1, 607797, Note_off_c, 0, 84, 59
1, 607808, Note_on_c, 0, 77, 66
1, 607820, Note_on_c, 0, 66, 57
1, 607821, Note_on_c, 0, 69, 50
1, 607824, Note_on_c, 0, 72, 61
1, 607845, Note_off_c, 0, 81, 0
1, 607846, Note_off_c, 0, 77, 58
1, 607858, Note_off_c, 0, 66, 60
1, 607860, Note_off_c, 0, 72, 61
1, 607866, Note_off_c, 0, 69, 50
1, 607874, Note_off_c, 0, 89, 64
1, 607892, Poly_aftertouch_c, 0, 81, 0
1, 607935, Note_on_c, 0, 89, 92
1, 607946, Note_on_c, 0, 77, 67
1, 607952, Note_on_c, 0, 72, 62
1, 607952, Note_on_c, 0, 78, 76
1, 607956, Note_on_c, 0, 66, 55
1, 607962, Note_on_c, 0, 81, 54
1, 607963, Note_on_c, 0, 69, 55
1, 607966, Note_on_c, 0, 84, 51
1, 607973, Note_off_c, 0, 78, 54
1, 607982, Note_off_c, 0, 77, 57
1, 607988, Note_off_c, 0, 66, 62
1, 607988, Note_off_c, 0, 69, 64
1, 607988, Note_off_c, 0, 72, 60
1, 608014, Note_off_c, 0, 84, 47
1, 608018, Note_off_c, 0, 89, 65
1, 608026, Note_off_c, 0, 81, 58
1, 608080, Note_on_c, 0, 77, 68
1, 608080, Note_on_c, 0, 89, 97
1, 608084, Note_on_c, 0, 69, 54
1, 608088, Note_on_c, 0, 72, 62
1, 608090, Note_on_c, 0, 66, 56
1, 608095, Note_on_c, 0, 81, 56
1, 608097, Note_on_c, 0, 78, 67
1, 608110, Note_on_c, 0, 84, 62
1, 608114, Note_off_c, 0, 77, 63
1, 608125, Note_off_c, 0, 69, 63
1, 608126, Note_off_c, 0, 66, 62
1, 608128, Note_off_c, 0, 72, 60
1, 608204, Note_off_c, 0, 78, 32
1, 608205, Note_off_c, 0, 89, 63
1, 608209, Note_on_c, 0, 77, 73
1, 608219, Note_on_c, 0, 72, 63
1, 608223, Note_on_c, 0, 69, 62
1, 608227, Note_on_c, 0, 66, 55
1, 608229, Note_off_c, 0, 84, 60
1, 608251, Note_off_c, 0, 81, 0
1, 608259, Note_off_c, 0, 69, 62
1, 608262, Note_off_c, 0, 66, 60
1, 608263, Note_off_c, 0, 72, 56
1, 608268, Note_off_c, 0, 77, 63
1, 608269, Note_on_c, 0, 81, 38
1, 608277, Note_on_c, 0, 89, 96
1, 608285, Note_on_c, 0, 78, 79
1, 608286, Note_on_c, 0, 84, 50
1, 608345, Note_off_c, 0, 78, 56
1, 608360, Note_on_c, 0, 77, 87
1, 608372, Note_on_c, 0, 66, 62
1, 608375, Note_on_c, 0, 72, 72
1, 608380, Note_on_c, 0, 69, 56
1, 608401, Note_off_c, 0, 89, 62
1, 608420, Note_off_c, 0, 66, 55
1, 608426, Note_off_c, 0, 84, 58
1, 608430, Note_off_c, 0, 81, 57
1, 608431, Note_off_c, 0, 69, 58
1, 608432, Note_off_c, 0, 77, 63
1, 608441, Note_off_c, 0, 72, 58
1, 608489, Note_on_c, 0, 89, 99
1, 608500, Note_on_c, 0, 78, 79
1, 608502, Note_on_c, 0, 81, 55
1, 608504, Note_on_c, 0, 84, 66
1, 608505, Note_on_c, 0, 77, 78
1, 608516, Note_on_c, 0, 72, 61
1, 608533, Note_on_c, 0, 66, 53
1, 608534, Note_on_c, 0, 69, 57
1, 608543, Note_off_c, 0, 78, 60
1, 608555, Note_off_c, 0, 66, 62
1, 608562, Note_off_c, 0, 77, 61
1, 608565, Note_off_c, 0, 69, 63
1, 608572, Note_off_c, 0, 72, 55
1, 608573, Note_off_c, 0, 89, 64
1, 608590, Note_off_c, 0, 84, 66
1, 608593, Note_off_c, 0, 81, 63
1, 608641, Note_on_c, 0, 89, 104
1, 608646, Note_on_c, 0, 77, 73
1, 608648, Note_on_c, 0, 66, 55
1, 608649, Note_on_c, 0, 69, 66
1, 608651, Note_on_c, 0, 78, 83
1, 608653, Note_on_c, 0, 72, 61
1, 608655, Note_on_c, 0, 81, 59
1, 608658, Note_on_c, 0, 84, 65
1, 608688, Note_off_c, 0, 77, 56
1, 608694, Note_off_c, 0, 66, 59
1, 608700, Note_off_c, 0, 72, 60
1, 608711, Note_off_c, 0, 69, 62
1, 608713, Note_off_c, 0, 78, 53
1, 608763, Note_off_c, 0, 89, 62
1, 608769, Note_on_c, 0, 77, 84
1, 608781, Note_on_c, 0, 72, 75
1, 608781, Note_on_c, 0, 66, 73
1, 608781, Note_on_c, 0, 69, 56
1, 608784, Note_off_c, 0, 81, 63
1, 608787, Note_off_c, 0, 84, 62
1, 608831, Note_off_c, 0, 77, 63
1, 608837, Note_on_c, 0, 89, 95
1, 608842, Note_on_c, 0, 81, 65
1, 608843, Note_on_c, 0, 78, 82
1, 608843, Note_off_c, 0, 69, 64
1, 608846, Note_on_c, 0, 84, 67
1, 608849, Note_off_c, 0, 66, 61
1, 608855, Note_off_c, 0, 72, 62
1, 608912, Note_on_c, 0, 77, 93
1, 608918, Note_off_c, 0, 78, 58
1, 608919, Note_on_c, 0, 72, 76
1, 608927, Note_on_c, 0, 69, 79
1, 608931, Note_on_c, 0, 66, 73
1, 608953, Note_off_c, 0, 89, 60
1, 608966, Note_off_c, 0, 81, 59
1, 608977, Note_off_c, 0, 84, 63
1, 608978, Note_off_c, 0, 66, 59
1, 608980, Note_off_c, 0, 77, 62
1, 608995, Note_off_c, 0, 69, 64
1, 609001, Note_off_c, 0, 72, 60
1, 609042, Note_on_c, 0, 89, 96
1, 609045, Note_on_c, 0, 78, 87
1, 609052, Note_on_c, 0, 81, 69
1, 609052, Note_on_c, 0, 84, 59
1, 609062, Note_on_c, 0, 77, 84
1, 609067, Note_on_c, 0, 72, 73
1, 609075, Note_on_c, 0, 69, 69
1, 609083, Note_on_c, 0, 66, 69
1, 609109, Note_off_c, 0, 66, 64
1, 609113, Note_off_c, 0, 78, 60
1, 609114, Note_off_c, 0, 77, 65
1, 609127, Note_off_c, 0, 72, 62
1, 609132, Note_off_c, 0, 89, 63
1, 609132, Note_off_c, 0, 69, 64
1, 609145, Note_off_c, 0, 81, 62
1, 609150, Note_off_c, 0, 84, 65
1, 609189, Note_on_c, 0, 77, 92
1, 609192, Note_on_c, 0, 89, 87
1, 609195, Note_on_c, 0, 66, 69
1, 609197, Note_on_c, 0, 72, 78
1, 609198, Note_on_c, 0, 81, 66
1, 609198, Note_on_c, 0, 78, 91
1, 609201, Note_on_c, 0, 84, 64
1, 609204, Note_on_c, 0, 69, 62
1, 609240, Note_off_c, 0, 77, 65
1, 609254, Note_off_c, 0, 72, 61
1, 609255, Note_off_c, 0, 69, 60
1, 609257, Note_off_c, 0, 66, 61
1, 609257, Note_off_c, 0, 78, 62
1, 609287, Note_off_c, 0, 89, 58
1, 609296, Note_off_c, 0, 81, 62
1, 609312, Note_on_c, 0, 77, 80
1, 609316, Note_on_c, 0, 72, 68
1, 609326, Note_on_c, 0, 66, 65
1, 609341, Note_off_c, 0, 77, 68
1, 609357, Note_off_c, 0, 72, 63
1, 609359, Note_on_c, 0, 89, 53
1, 609360, Note_off_c, 0, 66, 66
1, 609377, Note_off_c, 0, 84, 0
1, 609377, Note_on_c, 0, 84, 10
1, 609392, Note_on_c, 0, 78, 81
1, 609393, Note_on_c, 0, 81, 49
1, 609439, Note_off_c, 0, 78, 62
1, 609452, Note_off_c, 0, 81, 41
1, 609456, Note_off_c, 0, 89, 58
1, 609475, Control_c, 0, 64, 88
1, 609490, Control_c, 0, 64, 87
1, 609505, Control_c, 0, 64, 127
1, 609513, Note_on_c, 0, 63, 111
1, 609523, Note_on_c, 0, 51, 88
1, 609524, Note_off_c, 0, 84, 35
1, 609528, Note_on_c, 0, 75, 86
1, 609544, Note_off_c, 0, 63, 68
1, 609544, Note_off_c, 0, 51, 69
1, 609574, Note_off_c, 0, 75, 61
1, 609663, Note_on_c, 0, 89, 81
1, 609666, Poly_aftertouch_c, 0, 51, 0
1, 609669, Note_on_c, 0, 78, 82
1, 609672, Note_on_c, 0, 81, 67
1, 609676, Note_on_c, 0, 84, 66
1, 609682, Poly_aftertouch_c, 0, 51, 0
1, 609722, Note_off_c, 0, 78, 61
1, 609737, Note_off_c, 0, 89, 62
1, 609742, Note_off_c, 0, 81, 61
1, 609748, Note_off_c, 0, 84, 63
1, 609800, Note_on_c, 0, 77, 75
1, 609801, Note_on_c, 0, 72, 70
1, 609812, Note_on_c, 0, 69, 58
1, 609817, Note_on_c, 0, 66, 60
1, 609818, Note_on_c, 0, 89, 79
1, 609824, Note_on_c, 0, 78, 87
1, 609827, Note_on_c, 0, 84, 73
1, 609833, Note_on_c, 0, 81, 64
1, 609837, Note_off_c, 0, 77, 59
1, 609845, Note_off_c, 0, 72, 58
1, 609847, Note_off_c, 0, 66, 65
1, 609852, Note_off_c, 0, 69, 64
1, 609888, Note_off_c, 0, 78, 59
1, 609916, Note_off_c, 0, 84, 60
1, 609916, Note_off_c, 0, 89, 62
1, 609920, Note_off_c, 0, 81, 61
1, 609929, Note_on_c, 0, 77, 85
1, 609939, Note_on_c, 0, 66, 67
1, 609940, Note_on_c, 0, 72, 76
1, 609948, Note_on_c, 0, 69, 57
1, 609961, Note_off_c, 0, 77, 61
1, 609983, Note_off_c, 0, 69, 64
1, 609985, Note_off_c, 0, 66, 58
1, 609989, Note_off_c, 0, 72, 59
1, 610000, Note_on_c, 0, 89, 77
1, 610005, Note_on_c, 0, 78, 80
1, 610014, Note_on_c, 0, 84, 77
1, 610015, Note_on_c, 0, 81, 70
1, 610056, Note_off_c, 0, 78, 62
1, 610083, Note_off_c, 0, 84, 61
1, 610087, Note_on_c, 0, 75, 107
1, 610095, Note_off_c, 0, 89, 57
1, 610098, Note_on_c, 0, 63, 90
1, 610110, Note_off_c, 0, 81, 56
1, 610232, Note_on_c, 0, 89, 84
1, 610236, Note_on_c, 0, 78, 89
1, 610239, Note_on_c, 0, 81, 76
1, 610243, Note_on_c, 0, 84, 76
1, 610276, Note_off_c, 0, 78, 62
1, 610286, Note_off_c, 0, 75, 57
1, 610295, Note_off_c, 0, 63, 60
1, 610307, Note_off_c, 0, 89, 63
1, 610314, Note_off_c, 0, 81, 62
1, 610318, Note_off_c, 0, 84, 64
1, 610381, Note_on_c, 0, 75, 102
1, 610382, Note_on_c, 0, 89, 87
1, 610389, Note_on_c, 0, 78, 91
1, 610395, Note_on_c, 0, 84, 75
1, 610396, Note_on_c, 0, 63, 95
1, 610397, Note_on_c, 0, 81, 71
1, 610414, Note_off_c, 0, 78, 64
1, 610418, Note_off_c, 0, 75, 69
1, 610432, Note_off_c, 0, 84, 64
1, 610434, Note_off_c, 0, 89, 64
1, 610435, Note_off_c, 0, 81, 61
1, 610439, Note_off_c, 0, 63, 65
1, 610503, Note_on_c, 0, 89, 85
1, 610518, Note_on_c, 0, 81, 70
1, 610527, Note_on_c, 0, 84, 69
1, 610532, Note_off_c, 0, 89, 71
1, 610546, Note_off_c, 0, 81, 68
1, 610554, Note_off_c, 0, 84, 69
1, 610593, Note_on_c, 0, 78, 62
1, 610596, Note_on_c, 0, 89, 66
1, 610600, Note_on_c, 0, 81, 78
1, 610613, Note_on_c, 0, 84, 65
1, 610614, Note_off_c, 0, 81, 72
1, 610614, Note_off_c, 0, 89, 66
1, 610626, Note_off_c, 0, 78, 66
1, 610630, Note_off_c, 0, 84, 65
1, 610733, Note_on_c, 0, 50, 102
1, 610736, Control_c, 0, 64, 89
1, 610742, Note_on_c, 0, 38, 94
1, 610748, Note_on_c, 0, 60, 67
1, 610748, Note_on_c, 0, 62, 74
1, 610751, Control_c, 0, 64, 42
1, 610766, Note_off_c, 0, 60, 61
1, 610766, Note_off_c, 0, 62, 67
1, 610766, Control_c, 0, 64, 0
1, 610825, Control_c, 0, 64, 32
1, 610840, Control_c, 0, 64, 77
1, 610844, Note_off_c, 0, 38, 64
1, 610855, Control_c, 0, 64, 127
1, 610872, Note_off_c, 0, 50, 66
1, 610898, Note_on_c, 0, 80, 83
1, 610912, Note_off_c, 0, 80, 68
1, 610918, Note_on_c, 0, 89, 66
1, 610925, Note_on_c, 0, 78, 74
1, 610928, Note_on_c, 0, 81, 71
1, 610941, Note_off_c, 0, 78, 66
1, 610952, Note_on_c, 0, 84, 34
1, 610959, Note_off_c, 0, 89, 54
1, 610960, Note_off_c, 0, 81, 62
1, 610984, Note_off_c, 0, 84, 46
1, 611025, Note_on_c, 0, 89, 92
1, 611028, Note_on_c, 0, 72, 67
1, 611028, Note_on_c, 0, 77, 73
1, 611028, Note_on_c, 0, 78, 84
1, 611029, Note_on_c, 0, 81, 76
1, 611040, Note_on_c, 0, 69, 58
1, 611047, Note_on_c, 0, 66, 44
1, 611048, Note_on_c, 0, 84, 79
1, 611052, Poly_aftertouch_c, 0, 80, 0
1, 611058, Note_off_c, 0, 77, 66
1, 611075, Note_off_c, 0, 66, 56
1, 611077, Note_off_c, 0, 69, 63
1, 611078, Note_off_c, 0, 72, 61
1, 611086, Note_off_c, 0, 78, 61
1, 611127, Note_off_c, 0, 89, 63
1, 611132, Note_off_c, 0, 81, 62
1, 611135, Note_on_c, 0, 77, 87
1, 611141, Note_off_c, 0, 84, 61
1, 611144, Note_on_c, 0, 72, 72
1, 611148, Note_on_c, 0, 66, 79
1, 611156, Note_on_c, 0, 69, 70
1, 611160, Note_off_c, 0, 77, 70
1, 611174, Note_off_c, 0, 72, 64
1, 611182, Note_off_c, 0, 69, 68
1, 611195, Note_off_c, 0, 66, 65
1, 611210, Note_on_c, 0, 89, 88
1, 611224, Note_on_c, 0, 78, 83
1, 611225, Note_on_c, 0, 81, 79
1, 611227, Note_on_c, 0, 84, 73
1, 611290, Note_off_c, 0, 78, 59
1, 611308, Note_on_c, 0, 62, 101
1, 611314, Note_on_c, 0, 50, 94
1, 611319, Note_off_c, 0, 84, 58
1, 611332, Note_on_c, 0, 64, 48
1, 611333, Note_off_c, 0, 64, 127
1, 611334, Note_off_c, 0, 89, 60
1, 611336, Note_off_c, 0, 81, 54
1, 611450, Note_on_c, 0, 89, 78
1, 611455, Note_on_c, 0, 81, 73
1, 611456, Note_on_c, 0, 84, 72
1, 611457, Note_on_c, 0, 78, 85
1, 611481, Note_off_c, 0, 78, 61
1, 611511, Note_off_c, 0, 89, 65
1, 611511, Note_off_c, 0, 81, 63
1, 611513, Note_off_c, 0, 84, 65
1, 611515, Note_off_c, 0, 62, 64
1, 611520, Note_off_c, 0, 50, 65
1, 611589, Note_on_c, 0, 89, 80
1, 611599, Note_on_c, 0, 81, 72
1, 611603, Note_on_c, 0, 78, 49
1, 611608, Note_on_c, 0, 84, 63
1, 611610, Note_on_c, 0, 62, 100
1, 611619, Note_off_c, 0, 89, 64
1, 611619, Note_on_c, 0, 50, 91
1, 611622, Note_off_c, 0, 81, 68
1, 611624, Note_off_c, 0, 78, 54
1, 611632, Note_off_c, 0, 84, 68
1, 611717, Note_on_c, 0, 81, 65
1, 611721, Note_on_c, 0, 84, 68
1, 611721, Note_on_c, 0, 89, 82
1, 611729, Note_on_c, 0, 78, 62
1, 611735, Note_off_c, 0, 89, 70
1, 611742, Note_off_c, 0, 81, 64
1, 611747, Note_off_c, 0, 84, 68
1, 611752, Note_off_c, 0, 78, 36
1, 611778, Note_on_c, 0, 89, 91
1, 611794, Note_on_c, 0, 78, 80
1, 611794, Poly_aftertouch_c, 0, 81, 0
1, 611797, Note_off_c, 0, 89, 71
1, 611808, Note_on_c, 0, 84, 62
1, 611808, Note_off_c, 0, 62, 64
1, 611818, Note_off_c, 0, 50, 65
1, 611819, Note_off_c, 0, 78, 63
1, 611827, Note_off_c, 0, 84, 65
1, 611902, Note_on_c, 0, 60, 106
1, 611908, Note_on_c, 0, 71, 90
1, 611911, Note_on_c, 0, 48, 96
1, 611915, Control_c, 0, 64, 81
1, 611930, Control_c, 0, 64, 51
1, 611934, Note_off_c, 0, 71, 64
1, 611944, Control_c, 0, 64, 0
1, 612003, Control_c, 0, 64, 44
1, 612021, Note_off_c, 0, 48, 64
1, 612025, Control_c, 0, 64, 73
1, 612040, Control_c, 0, 64, 127
1, 612042, Note_off_c, 0, 60, 64
1, 612052, Note_on_c, 0, 80, 93
1, 612065, Note_on_c, 0, 89, 80
1, 612071, Note_on_c, 0, 88, 66
1, 612099, Note_on_c, 0, 78, 35
1, 612113, Note_on_c, 0, 81, 48
1, 612113, Note_off_c, 0, 88, 57
1, 612116, Note_off_c, 0, 89, 55
1, 612127, Note_off_c, 0, 80, 59
1, 612131, Note_off_c, 0, 78, 47
1, 612146, Note_off_c, 0, 81, 63
1, 612166, Poly_aftertouch_c, 0, 84, 0
1, 612186, Note_on_c, 0, 89, 96
1, 612188, Note_on_c, 0, 84, 36
1, 612188, Note_on_c, 0, 72, 59
1, 612193, Note_on_c, 0, 78, 98
1, 612193, Note_on_c, 0, 81, 81
1, 612196, Note_on_c, 0, 77, 82
1, 612197, Note_on_c, 0, 69, 62
1, 612206, Note_on_c, 0, 66, 70
1, 612244, Note_off_c, 0, 78, 62
1, 612251, Note_off_c, 0, 77, 65
1, 612259, Note_off_c, 0, 72, 63
1, 612260, Note_off_c, 0, 69, 65
1, 612262, Note_off_c, 0, 66, 62
1, 612276, Note_off_c, 0, 89, 64
1, 612277, Note_off_c, 0, 81, 62
1, 612294, Note_off_c, 0, 84, 65
1, 612327, Note_on_c, 0, 77, 92
1, 612337, Note_on_c, 0, 72, 71
1, 612342, Note_on_c, 0, 66, 74
1, 612346, Note_on_c, 0, 69, 68
1, 612354, Note_off_c, 0, 77, 64
1, 612364, Note_off_c, 0, 72, 65
1, 612371, Note_on_c, 0, 89, 86
1, 612373, Note_off_c, 0, 69, 68
1, 612382, Note_on_c, 0, 81, 78
1, 612382, Note_off_c, 0, 66, 63
1, 612384, Note_on_c, 0, 78, 85
1, 612384, Note_on_c, 0, 84, 69
1, 612436, Note_off_c, 0, 78, 62
1, 612457, Note_on_c, 0, 72, 91
1, 612470, Note_on_c, 0, 60, 94
1, 612477, Note_off_c, 0, 89, 62
1, 612482, Note_off_c, 0, 84, 61
1, 612517, Note_off_c, 0, 81, 36
1, 612601, Note_on_c, 0, 89, 85
1, 612608, Note_on_c, 0, 78, 96
1, 612611, Note_on_c, 0, 81, 83
1, 612614, Note_on_c, 0, 84, 73
1, 612645, Note_off_c, 0, 72, 63
1, 612647, Note_off_c, 0, 78, 62
1, 612657, Note_off_c, 0, 60, 60
1, 612677, Note_off_c, 0, 81, 62
1, 612682, Note_off_c, 0, 89, 65
1, 612686, Note_off_c, 0, 84, 63
1, 612733, Note_on_c, 0, 89, 72
1, 612733, Note_on_c, 0, 72, 110
1, 612745, Note_on_c, 0, 78, 86
1, 612748, Note_on_c, 0, 60, 85
1, 612748, Note_on_c, 0, 81, 75
1, 612751, Note_on_c, 0, 84, 59
1, 612771, Note_off_c, 0, 78, 71
1, 612784, Note_on_c, 0, 63, 43
1, 612795, Note_off_c, 0, 89, 65
1, 612795, Note_off_c, 0, 84, 66
1, 612801, Note_off_c, 0, 81, 64
1, 612813, Note_off_c, 0, 63, 59
1, 612876, Note_on_c, 0, 89, 72
1, 612877, Note_on_c, 0, 81, 76
1, 612882, Note_on_c, 0, 78, 75
1, 612882, Note_on_c, 0, 84, 75
1, 612891, Note_off_c, 0, 89, 70
1, 612899, Note_off_c, 0, 78, 67
1, 612900, Note_off_c, 0, 81, 67
1, 612906, Note_off_c, 0, 84, 67
1, 612945, Note_on_c, 0, 81, 80
1, 612954, Note_on_c, 0, 89, 72
1, 612955, Note_off_c, 0, 72, 61
1, 612956, Note_on_c, 0, 78, 71
1, 612956, Note_on_c, 0, 84, 83
1, 612962, Note_off_c, 0, 60, 60
1, 612971, Note_off_c, 0, 89, 64
1, 612973, Note_off_c, 0, 78, 65
1, 612996, Control_c, 0, 64, 117
1, 613011, Control_c, 0, 64, 59
1, 613025, Control_c, 0, 64, 0
1, 613033, Note_on_c, 0, 72, 107
1, 613039, Note_on_c, 0, 89, 49
1, 613040, Note_on_c, 0, 60, 84
1, 613042, Note_on_c, 0, 75, 94
1, 613043, Note_on_c, 0, 63, 95
1, 613055, Control_c, 0, 64, 49
1, 613063, Note_off_c, 0, 60, 65
1, 613063, Note_off_c, 0, 89, 60
1, 613070, Control_c, 0, 64, 81
1, 613074, Note_off_c, 0, 63, 58
1, 613084, Note_off_c, 0, 84, 55
1, 613085, Control_c, 0, 64, 127
1, 613088, Note_off_c, 0, 81, 63
1, 613094, Note_off_c, 0, 75, 65
1, 613099, Note_on_c, 0, 85, 5
1, 613130, Note_off_c, 0, 72, 59
1, 613136, Note_off_c, 0, 85, 0
1, 613158, Note_on_c, 0, 81, 84
1, 613167, Note_on_c, 0, 84, 73
1, 613174, Note_on_c, 0, 89, 37
1, 613188, Note_off_c, 0, 81, 62
1, 613192, Note_off_c, 0, 84, 69
1, 613193, Poly_aftertouch_c, 0, 85, 0
1, 613196, Note_on_c, 0, 78, 90
1, 613207, Note_off_c, 0, 89, 0
1, 613217, Note_on_c, 0, 79, 58
1, 613219, Note_on_c, 0, 89, 82
1, 613224, Note_on_c, 0, 81, 85
1, 613230, Note_on_c, 0, 84, 93
1, 613230, Poly_aftertouch_c, 0, 77, 127
1, 613241, Note_off_c, 0, 79, 58
1, 613246, Poly_aftertouch_c, 0, 77, 0
1, 613254, Note_off_c, 0, 78, 61
1, 613282, Note_off_c, 0, 89, 65
1, 613296, Note_off_c, 0, 81, 62
1, 613298, Note_off_c, 0, 84, 64
1, 613377, Note_on_c, 0, 78, 107
1, 613387, Note_on_c, 0, 81, 88
1, 613389, Note_on_c, 0, 84, 83
1, 613390, Note_on_c, 0, 89, 83
1, 613397, Note_on_c, 0, 77, 83
1, 613411, Note_off_c, 0, 77, 71
1, 613413, Note_off_c, 0, 81, 64
1, 613413, Note_off_c, 0, 89, 67
1, 613413, Note_off_c, 0, 78, 61
1, 613413, Note_off_c, 0, 84, 68
1, 613455, Note_on_c, 0, 89, 90
1, 613464, Note_on_c, 0, 81, 92
1, 613464, Note_on_c, 0, 84, 93
1, 613489, Note_on_c, 0, 77, 36
1, 613501, Note_off_c, 0, 89, 65
1, 613529, Note_off_c, 0, 77, 59
1, 613529, Note_off_c, 0, 81, 62
1, 613535, Note_off_c, 0, 84, 63
1, 613580, Note_on_c, 0, 72, 109
1, 613586, Note_on_c, 0, 63, 89
1, 613597, Note_on_c, 0, 60, 57
1, 613601, Note_on_c, 0, 75, 88
1, 613602, Note_on_c, 0, 81, 84
1, 613609, Note_off_c, 0, 63, 70
1, 613618, Note_off_c, 0, 60, 61
1, 613624, Note_off_c, 0, 75, 70
1, 613627, Note_off_c, 0, 72, 62
1, 613629, Note_off_c, 0, 81, 65
1, 613634, Note_on_c, 0, 88, 5
1, 613663, Poly_aftertouch_c, 0, 84, 0
1, 613680, Note_off_c, 0, 88, 42
1, 613685, Note_on_c, 0, 81, 89
1, 613687, Note_on_c, 0, 84, 17
1, 613691, Note_on_c, 0, 89, 77
1, 613707, Note_off_c, 0, 89, 69
1, 613709, Note_off_c, 0, 81, 68
1, 613724, Note_off_c, 0, 84, 66
1, 613761, Note_on_c, 0, 84, 75
1, 613762, Note_on_c, 0, 78, 11
1, 613764, Note_on_c, 0, 89, 81
1, 613765, Note_on_c, 0, 81, 92
1, 613787, Note_off_c, 0, 89, 67
1, 613790, Note_off_c, 0, 78, 59
1, 613794, Note_on_c, 0, 88, 33
1, 613795, Note_off_c, 0, 88, 127
1, 613795, Note_off_c, 0, 81, 61
1, 613805, Note_off_c, 0, 84, 65
1, 613831, Note_on_c, 0, 78, 85
1, 613833, Note_on_c, 0, 81, 84
1, 613834, Note_on_c, 0, 84, 72
1, 613851, Poly_aftertouch_c, 0, 89, 127
1, 613853, Note_off_c, 0, 78, 69
1, 613860, Poly_aftertouch_c, 0, 89, 0
1, 613875, Note_off_c, 0, 81, 65
1, 613884, Note_off_c, 0, 84, 65
1, 613898, Note_on_c, 0, 72, 100
1, 613908, Note_on_c, 0, 60, 86
1, 613912, Note_on_c, 0, 81, 77
1, 613914, Note_on_c, 0, 78, 91
1, 613914, Note_on_c, 0, 84, 79
1, 613922, Note_on_c, 0, 63, 57
1, 613924, Note_on_c, 0, 64, 71
1, 613932, Note_off_c, 0, 72, 66
1, 613936, Poly_aftertouch_c, 0, 89, 127
1, 613940, Note_off_c, 0, 78, 63
1, 613943, Poly_aftertouch_c, 0, 89, 0
1, 613946, Note_on_c, 0, 62, 42
1, 613947, Note_off_c, 0, 62, 127
1, 613948, Note_off_c, 0, 63, 61
1, 613958, Note_off_c, 0, 64, 66
1, 613960, Note_off_c, 0, 60, 62
1, 613961, Note_off_c, 0, 81, 65
1, 613964, Note_off_c, 0, 84, 67
1, 613998, Note_on_c, 0, 78, 101
1, 613999, Note_on_c, 0, 89, 90
1, 613999, Poly_aftertouch_c, 0, 81, 0
1, 614006, Note_on_c, 0, 81, 78
1, 614007, Note_on_c, 0, 84, 78
1, 614011, Poly_aftertouch_c, 0, 88, 0
1, 614031, Note_off_c, 0, 89, 60
1, 614035, Note_off_c, 0, 78, 63
1, 614051, Note_off_c, 0, 81, 65
1, 614053, Note_off_c, 0, 84, 66
1, 614082, Note_on_c, 0, 89, 92
1, 614084, Note_on_c, 0, 78, 99
1, 614093, Note_on_c, 0, 81, 76
1, 614095, Note_on_c, 0, 85, 72
1, 614101, Note_off_c, 0, 89, 71
1, 614109, Note_on_c, 0, 84, 67
1, 614113, Note_off_c, 0, 85, 45
1, 614123, Note_off_c, 0, 78, 64
1, 614128, Note_off_c, 0, 84, 67
1, 614137, Note_off_c, 0, 81, 64
1, 614271, Control_c, 0, 64, 65
1, 614286, Control_c, 0, 64, 0
1, 614294, Note_on_c, 0, 47, 107
1, 614298, Note_on_c, 0, 63, 93
1, 614299, Note_on_c, 0, 59, 83
1, 614300, Note_on_c, 0, 35, 98
1, 614321, Note_off_c, 0, 59, 69
1, 614331, Control_c, 0, 64, 74
1, 614340, Note_off_c, 0, 63, 62
1, 614346, Control_c, 0, 64, 127
1, 614380, Note_on_c, 0, 36, 2
1, 614395, Note_off_c, 0, 35, 64
1, 614404, Note_on_c, 0, 59, 16
1, 614420, Note_off_c, 0, 36, 34
1, 614420, Note_off_c, 0, 47, 66
1, 614435, Note_off_c, 0, 59, 40
1, 614525, Note_on_c, 0, 81, 92
1, 614525, Note_on_c, 0, 77, 94
1, 614533, Note_on_c, 0, 84, 78
1, 614544, Note_off_c, 0, 77, 71
1, 614546, Note_off_c, 0, 81, 65
1, 614555, Note_off_c, 0, 84, 67
1, 614569, Note_on_c, 0, 78, 70
1, 614581, Note_on_c, 0, 89, 66
1, 614587, Note_off_c, 0, 78, 67
1, 614592, Note_on_c, 0, 84, 101
1, 614608, Note_on_c, 0, 77, 63
1, 614609, Poly_aftertouch_c, 0, 81, 127
1, 614623, Note_off_c, 0, 77, 72
1, 614647, Poly_aftertouch_c, 0, 81, 0
1, 614649, Note_off_c, 0, 89, 66
1, 614653, Note_off_c, 0, 84, 65
1, 614663, Note_on_c, 0, 78, 98
1, 614690, Note_off_c, 0, 78, 60
1, 614715, Note_on_c, 0, 81, 89
1, 614719, Note_on_c, 0, 77, 81
1, 614721, Note_on_c, 0, 84, 89
1, 614727, Note_on_c, 0, 89, 82
1, 614741, Note_off_c, 0, 77, 69
1, 614744, Note_off_c, 0, 89, 69
1, 614748, Note_off_c, 0, 84, 65
1, 614755, Note_off_c, 0, 81, 67
1, 614792, Note_on_c, 0, 81, 86
1, 614792, Note_on_c, 0, 89, 87
1, 614795, Note_on_c, 0, 84, 95
1, 614804, Note_on_c, 0, 77, 55
1, 614831, Note_off_c, 0, 77, 59
1, 614847, Note_off_c, 0, 89, 65
1, 614857, Note_off_c, 0, 84, 65
1, 614859, Note_off_c, 0, 81, 64
1, 614879, Note_on_c, 0, 59, 101
1, 614889, Note_on_c, 0, 51, 88
1, 614890, Note_on_c, 0, 47, 94
1, 614956, Note_on_c, 0, 85, 87
1, 614961, Note_on_c, 0, 78, 86
1, 614962, Note_on_c, 0, 89, 78
1, 614963, Note_on_c, 0, 81, 79
1, 614966, Note_on_c, 0, 90, 74
1, 614967, Note_on_c, 0, 82, 46
1, 614970, Note_off_c, 0, 85, 67
1, 614980, Note_off_c, 0, 90, 71
1, 614984, Note_off_c, 0, 78, 69
1, 614984, Note_off_c, 0, 89, 68
1, 614985, Note_off_c, 0, 81, 69
1, 614990, Note_off_c, 0, 82, 63
1, 615037, Note_on_c, 0, 84, 33
1, 615039, Note_on_c, 0, 81, 87
1, 615042, Note_on_c, 0, 78, 95
1, 615042, Note_on_c, 0, 89, 74
1, 615062, Note_off_c, 0, 78, 70
1, 615064, Note_off_c, 0, 89, 64
1, 615079, Note_off_c, 0, 81, 64
1, 615080, Note_off_c, 0, 84, 67
1, 615081, Note_on_c, 0, 87, 39
1, 615093, Note_off_c, 0, 59, 66
1, 615097, Note_off_c, 0, 51, 61
1, 615111, Note_off_c, 0, 47, 61
1, 615116, Note_on_c, 0, 78, 86
1, 615116, Note_on_c, 0, 81, 79
1, 615117, Note_on_c, 0, 89, 83
1, 615118, Note_on_c, 0, 84, 86
1, 615130, Note_off_c, 0, 87, 41
1, 615137, Note_off_c, 0, 78, 68
1, 615142, Note_off_c, 0, 89, 67
1, 615158, Note_off_c, 0, 81, 64
1, 615163, Note_off_c, 0, 84, 66
1, 615176, Note_on_c, 0, 59, 101
1, 615178, Note_on_c, 0, 51, 101
1, 615185, Note_on_c, 0, 47, 89
1, 615194, Note_on_c, 0, 78, 95
1, 615195, Note_on_c, 0, 89, 89
1, 615196, Note_on_c, 0, 81, 79
1, 615198, Note_on_c, 0, 84, 82
1, 615217, Note_off_c, 0, 78, 61
1, 615219, Note_off_c, 0, 47, 66
1, 615225, Note_off_c, 0, 89, 61
1, 615228, Note_off_c, 0, 59, 66
1, 615238, Note_off_c, 0, 81, 66
1, 615243, Note_off_c, 0, 84, 65
1, 615248, Note_off_c, 0, 51, 62
1, 615286, Note_on_c, 0, 78, 97
1, 615288, Note_on_c, 0, 89, 90
1, 615292, Note_on_c, 0, 84, 78
1, 615293, Note_on_c, 0, 81, 80
1, 615293, Poly_aftertouch_c, 0, 87, 127
1, 615308, Note_off_c, 0, 78, 63
1, 615311, Note_off_c, 0, 89, 65
1, 615317, Poly_aftertouch_c, 0, 87, 0
1, 615330, Note_off_c, 0, 84, 65
1, 615331, Note_off_c, 0, 81, 63
1, 615371, Note_on_c, 0, 89, 81
1, 615372, Note_on_c, 0, 78, 95
1, 615386, Note_on_c, 0, 81, 75
1, 615395, Note_off_c, 0, 89, 68
1, 615397, Note_on_c, 0, 84, 64
1, 615412, Note_off_c, 0, 81, 66
1, 615414, Note_off_c, 0, 84, 66
1, 615417, Note_off_c, 0, 78, 66
1, 615450, Control_c, 0, 64, 86
1, 615465, Control_c, 0, 64, 37
1, 615480, Note_on_c, 0, 69, 109
1, 615480, Control_c, 0, 64, 0
1, 615484, Note_on_c, 0, 60, 93
1, 615490, Note_on_c, 0, 57, 86
1, 615498, Note_on_c, 0, 71, 99
1, 615509, Note_on_c, 0, 72, 71
1, 615511, Control_c, 0, 64, 48
1, 615514, Note_on_c, 0, 73, 60
1, 615525, Control_c, 0, 64, 106
1, 615526, Note_off_c, 0, 72, 64
1, 615532, Note_off_c, 0, 71, 64
1, 615534, Note_off_c, 0, 73, 66
1, 615540, Control_c, 0, 64, 127
1, 615547, Note_off_c, 0, 57, 63
1, 615555, Note_off_c, 0, 60, 61
1, 615583, Note_off_c, 0, 69, 69
1, 615639, Note_on_c, 0, 81, 90
1, 615643, Note_on_c, 0, 84, 80
1, 615651, Note_on_c, 0, 77, 79
1, 615657, Note_on_c, 0, 78, 90
1, 615658, Note_off_c, 0, 81, 71
1, 615666, Note_off_c, 0, 77, 72
1, 615669, Note_off_c, 0, 84, 69
1, 615675, Note_off_c, 0, 78, 72
1, 615682, Note_on_c, 0, 89, 18
1, 615683, Note_off_c, 0, 89, 127
1, 615698, Note_on_c, 0, 81, 88
1, 615710, Note_on_c, 0, 84, 90
1, 615713, Note_on_c, 0, 77, 80
1, 615714, Note_on_c, 0, 83, 89
1, 615719, Note_on_c, 0, 88, 61
1, 615720, Note_on_c, 0, 80, 62
1, 615729, Note_off_c, 0, 77, 71
1, 615729, Poly_aftertouch_c, 0, 89, 127
1, 615741, Note_off_c, 0, 88, 61
1, 615741, Note_off_c, 0, 80, 64
1, 615751, Note_off_c, 0, 83, 62
1, 615753, Note_off_c, 0, 84, 64
1, 615754, Poly_aftertouch_c, 0, 89, 0
1, 615756, Note_off_c, 0, 81, 64
1, 615840, Note_on_c, 0, 78, 91
1, 615854, Note_on_c, 0, 81, 97
1, 615857, Note_on_c, 0, 77, 84
1, 615858, Note_on_c, 0, 84, 91
1, 615864, Note_off_c, 0, 78, 66
1, 615867, Note_on_c, 0, 89, 76
1, 615876, Note_off_c, 0, 81, 68
1, 615876, Note_off_c, 0, 84, 72
1, 615881, Note_off_c, 0, 77, 69
1, 615882, Note_off_c, 0, 89, 68
1, 615930, Note_on_c, 0, 84, 87
1, 615935, Note_on_c, 0, 89, 85
1, 615936, Note_on_c, 0, 81, 94
1, 615949, Poly_aftertouch_c, 0, 87, 0
1, 615956, Note_off_c, 0, 89, 71
1, 615968, Note_off_c, 0, 84, 63
1, 615972, Note_off_c, 0, 81, 61
1, 616030, Note_on_c, 0, 61, 86
1, 616039, Note_on_c, 0, 69, 106
1, 616045, Note_on_c, 0, 57, 68
1, 616064, Note_off_c, 0, 57, 65
1, 616067, Note_on_c, 0, 72, 78
1, 616073, Note_off_c, 0, 61, 66
1, 616087, Note_off_c, 0, 72, 64
1, 616093, Note_off_c, 0, 69, 70
1, 616164, Note_on_c, 0, 84, 80
1, 616165, Note_on_c, 0, 81, 83
1, 616186, Note_off_c, 0, 81, 69
1, 616189, Note_on_c, 0, 89, 33
1, 616189, Note_off_c, 0, 84, 68
1, 616224, Note_off_c, 0, 89, 0
1, 616226, Note_on_c, 0, 78, 91
1, 616240, Poly_aftertouch_c, 0, 82, 0
1, 616242, Poly_aftertouch_c, 0, 89, 0
1, 616244, Note_off_c, 0, 78, 70
1, 616245, Poly_aftertouch_c, 0, 81, 127
1, 616249, Poly_aftertouch_c, 0, 84, 0
1, 616259, Poly_aftertouch_c, 0, 81, 0
1, 616298, Note_on_c, 0, 78, 82
1, 616300, Note_on_c, 0, 81, 92
1, 616303, Note_on_c, 0, 84, 87
1, 616321, Note_off_c, 0, 78, 68
1, 616337, Note_off_c, 0, 81, 63
1, 616343, Note_on_c, 0, 69, 105
1, 616345, Note_off_c, 0, 84, 64
1, 616349, Note_on_c, 0, 60, 93
1, 616355, Note_on_c, 0, 57, 78
1, 616373, Note_on_c, 0, 78, 99
1, 616375, Note_on_c, 0, 81, 89
1, 616376, Note_on_c, 0, 84, 85
1, 616377, Note_off_c, 0, 69, 69
1, 616378, Note_on_c, 0, 89, 88
1, 616394, Poly_aftertouch_c, 0, 88, 127
1, 616400, Note_off_c, 0, 78, 59
1, 616400, Note_off_c, 0, 89, 69
1, 616402, Note_off_c, 0, 60, 63
1, 616409, Note_off_c, 0, 57, 65
1, 616426, Note_off_c, 0, 81, 64
1, 616426, Note_off_c, 0, 84, 66
1, 616459, Note_on_c, 0, 89, 78
1, 616460, Note_on_c, 0, 78, 100
1, 616460, Note_on_c, 0, 81, 82
1, 616463, Poly_aftertouch_c, 0, 88, 0
1, 616464, Note_on_c, 0, 84, 89
1, 616474, Poly_aftertouch_c, 0, 77, 0
1, 616490, Note_off_c, 0, 89, 61
1, 616496, Note_off_c, 0, 78, 66
1, 616498, Note_on_c, 0, 90, 25
1, 616499, Note_off_c, 0, 90, 127
1, 616519, Note_off_c, 0, 84, 68
1, 616520, Note_off_c, 0, 81, 67
1, 616553, Note_on_c, 0, 87, 9
1, 616554, Note_on_c, 0, 78, 99
1, 616555, Note_on_c, 0, 85, 93
1, 616556, Note_on_c, 0, 81, 87
1, 616570, Note_off_c, 0, 85, 75
1, 616578, Note_on_c, 0, 89, 50
1, 616579, Note_off_c, 0, 89, 127
1, 616582, Note_off_c, 0, 87, 38
1, 616588, Note_off_c, 0, 78, 62
1, 616593, Note_off_c, 0, 81, 66
1, 616617, Note_on_c, 0, 85, 47
1, 616636, Note_off_c, 0, 85, 66
1, 616727, Control_c, 0, 64, 96
1, 616741, Control_c, 0, 64, 43
1, 616756, Control_c, 0, 64, 0
1, 616757, Note_on_c, 0, 44, 122
1, 616768, Note_on_c, 0, 60, 89
1, 616769, Note_on_c, 0, 32, 98
1, 616775, Note_on_c, 0, 56, 88
1, 616786, Control_c, 0, 64, 47
1, 616793, Note_on_c, 0, 39, 52
1, 616794, Note_off_c, 0, 39, 127
1, 616800, Control_c, 0, 64, 127
1, 616818, Note_off_c, 0, 56, 64
1, 616825, Poly_aftertouch_c, 0, 39, 0
1, 616847, Note_off_c, 0, 60, 62
1, 616865, Note_off_c, 0, 32, 62
1, 616876, Poly_aftertouch_c, 0, 34, 0
1, 616886, Note_off_c, 0, 44, 65
1, 616893, Poly_aftertouch_c, 0, 34, 0
1, 617016, Note_on_c, 0, 81, 98
1, 617021, Note_on_c, 0, 77, 83
1, 617021, Note_on_c, 0, 84, 83
1, 617025, Note_on_c, 0, 78, 98
1, 617026, Note_on_c, 0, 89, 76
1, 617032, Note_on_c, 0, 87, 60
1, 617035, Note_off_c, 0, 77, 73
1, 617035, Note_off_c, 0, 81, 69
1, 617042, Note_off_c, 0, 78, 71
1, 617044, Note_off_c, 0, 84, 69
1, 617049, Note_off_c, 0, 89, 67
1, 617055, Note_off_c, 0, 87, 40
1, 617070, Note_on_c, 0, 75, 12
1, 617071, Note_off_c, 0, 75, 127
1, 617077, Note_on_c, 0, 79, 3
1, 617083, Note_on_c, 0, 81, 103
1, 617084, Note_on_c, 0, 84, 93
1, 617086, Note_on_c, 0, 89, 101
1, 617115, Note_off_c, 0, 79, 35
1, 617118, Poly_aftertouch_c, 0, 75, 0
1, 617126, Note_on_c, 0, 77, 14
1, 617132, Note_off_c, 0, 89, 65
1, 617148, Note_off_c, 0, 84, 65
1, 617154, Note_off_c, 0, 81, 63
1, 617170, Note_off_c, 0, 77, 43
1, 617172, Note_on_c, 0, 78, 102
1, 617176, Note_on_c, 0, 80, 90
1, 617189, Note_off_c, 0, 80, 73
1, 617191, Note_off_c, 0, 78, 61
1, 617219, Note_on_c, 0, 81, 99
1, 617221, Note_on_c, 0, 84, 93
1, 617225, Note_on_c, 0, 77, 98
1, 617227, Note_on_c, 0, 89, 85
1, 617242, Note_off_c, 0, 89, 71
1, 617243, Note_off_c, 0, 84, 68
1, 617245, Note_off_c, 0, 77, 72
1, 617252, Note_on_c, 0, 87, 35
1, 617253, Note_off_c, 0, 87, 127
1, 617253, Note_off_c, 0, 81, 60
1, 617269, Note_on_c, 0, 80, 36
1, 617270, Note_off_c, 0, 80, 127
1, 617300, Note_on_c, 0, 84, 96
1, 617300, Note_on_c, 0, 81, 90
1, 617300, Note_on_c, 0, 89, 89
1, 617356, Note_off_c, 0, 89, 64
1, 617377, Note_off_c, 0, 84, 64
1, 617386, Note_off_c, 0, 81, 63
1, 617411, Note_on_c, 0, 56, 110
1, 617425, Note_on_c, 0, 48, 78
1, 617428, Note_on_c, 0, 44, 81
1, 617446, Note_on_c, 0, 46, 47
1, 617447, Note_off_c, 0, 46, 127
1, 617488, Note_on_c, 0, 78, 93
1, 617488, Note_on_c, 0, 81, 80
1, 617488, Note_on_c, 0, 84, 79
1, 617497, Note_on_c, 0, 89, 69
1, 617507, Note_off_c, 0, 78, 71
1, 617507, Note_off_c, 0, 81, 69
1, 617511, Note_off_c, 0, 84, 69
1, 617514, Note_off_c, 0, 89, 67
1, 617559, Note_on_c, 0, 81, 68
1, 617561, Note_on_c, 0, 84, 88
1, 617564, Note_on_c, 0, 89, 98
1, 617566, Note_on_c, 0, 78, 96
1, 617583, Note_off_c, 0, 78, 70
1, 617583, Note_off_c, 0, 89, 68
1, 617599, Note_off_c, 0, 81, 65
1, 617603, Note_off_c, 0, 84, 63
1, 617637, Note_on_c, 0, 89, 75
1, 617637, Note_on_c, 0, 81, 81
1, 617638, Note_on_c, 0, 84, 83
1, 617640, Note_on_c, 0, 78, 82
1, 617657, Note_off_c, 0, 56, 61
1, 617659, Note_off_c, 0, 78, 70
1, 617665, Note_off_c, 0, 89, 65
1, 617667, Note_off_c, 0, 48, 59
1, 617678, Note_off_c, 0, 81, 66
1, 617681, Note_off_c, 0, 44, 59
1, 617681, Note_off_c, 0, 84, 67
1, 617719, Note_on_c, 0, 78, 86
1, 617722, Note_on_c, 0, 89, 97
1, 617723, Note_on_c, 0, 81, 90
1, 617725, Note_on_c, 0, 56, 109
1, 617725, Note_on_c, 0, 84, 85
1, 617731, Poly_aftertouch_c, 0, 44, 0
1, 617736, Note_on_c, 0, 44, 77
1, 617738, Note_on_c, 0, 47, 78
1, 617752, Note_off_c, 0, 78, 63
1, 617758, Note_on_c, 0, 48, 58
1, 617758, Note_off_c, 0, 89, 63
1, 617768, Note_off_c, 0, 44, 64
1, 617769, Note_off_c, 0, 81, 65
1, 617771, Note_off_c, 0, 84, 67
1, 617771, Note_off_c, 0, 56, 64
1, 617773, Note_off_c, 0, 47, 68
1, 617796, Note_off_c, 0, 48, 33
1, 617822, Note_on_c, 0, 81, 92
1, 617824, Note_on_c, 0, 78, 95
1, 617824, Note_on_c, 0, 84, 87
1, 617825, Note_on_c, 0, 89, 89
1, 617846, Note_off_c, 0, 78, 65
1, 617846, Note_off_c, 0, 89, 68
1, 617865, Note_off_c, 0, 84, 67
1, 617869, Note_off_c, 0, 81, 66
1, 617918, Note_on_c, 0, 89, 82
1, 617922, Note_on_c, 0, 78, 101
1, 617922, Note_on_c, 0, 81, 97
1, 617926, Note_on_c, 0, 84, 98
1, 617959, Note_off_c, 0, 78, 62
1, 617959, Note_off_c, 0, 89, 66
1, 617962, Note_off_c, 0, 81, 67
1, 617967, Note_off_c, 0, 84, 65
1, 617991, Note_on_c, 0, 66, 19
1, 618040, Note_off_c, 0, 66, 46
1, 618062, Control_c, 0, 64, 58
1, 618077, Control_c, 0, 64, 0
1, 618114, Note_on_c, 0, 69, 92
1, 618118, Note_on_c, 0, 72, 87
1, 618119, Note_on_c, 0, 68, 83
1, 618120, Note_off_c, 0, 68, 127
1, 618120, Note_on_c, 0, 77, 85
1, 618127, Note_on_c, 0, 73, 83
1, 618135, Note_off_c, 0, 69, 72
1, 618138, Note_on_c, 0, 67, 78
1, 618141, Note_off_c, 0, 72, 68
1, 618144, Note_on_c, 0, 75, 39
1, 618145, Note_off_c, 0, 75, 127
1, 618147, Note_off_c, 0, 73, 71
1, 618150, Note_off_c, 0, 77, 66
1, 618155, Note_on_c, 0, 64, 49
1, 618160, Note_off_c, 0, 67, 68
1, 618182, Note_off_c, 0, 64, 56
1, 618251, Note_on_c, 0, 67, 56
1, 618252, Note_on_c, 0, 72, 40
1, 618254, Note_on_c, 0, 69, 79
1, 618260, Poly_aftertouch_c, 0, 68, 0
1, 618262, Note_on_c, 0, 77, 73
1, 618268, Poly_aftertouch_c, 0, 73, 127
1, 618272, Note_on_c, 0, 63, 52
1, 618273, Note_on_c, 0, 75, 49
1, 618274, Note_off_c, 0, 75, 127
1, 618280, Note_off_c, 0, 69, 71
1, 618283, Note_off_c, 0, 72, 62
1, 618287, Note_off_c, 0, 67, 64
1, 618289, Note_off_c, 0, 77, 69
1, 618296, Poly_aftertouch_c, 0, 73, 0
1, 618296, Note_off_c, 0, 63, 62
1, 618390, Note_on_c, 0, 69, 73
1, 618391, Note_on_c, 0, 72, 64
1, 618396, Note_on_c, 0, 63, 51
1, 618397, Note_on_c, 0, 73, 59
1, 618402, Note_on_c, 0, 77, 52
1, 618403, Note_on_c, 0, 67, 51
1, 618419, Note_off_c, 0, 72, 65
1, 618423, Note_off_c, 0, 69, 66
1, 618423, Note_off_c, 0, 73, 67
1, 618424, Note_off_c, 0, 77, 65
1, 618427, Note_off_c, 0, 67, 62
1, 618430, Note_off_c, 0, 63, 64
1, 618532, Note_on_c, 0, 69, 77
1, 618534, Note_on_c, 0, 72, 67
1, 618535, Note_on_c, 0, 77, 64
1, 618536, Note_on_c, 0, 67, 55
1, 618537, Note_on_c, 0, 63, 58
1, 618537, Note_on_c, 0, 73, 56
1, 618558, Note_off_c, 0, 69, 68
1, 618558, Note_off_c, 0, 67, 64
1, 618559, Note_off_c, 0, 72, 66
1, 618560, Note_off_c, 0, 73, 66
1, 618564, Note_off_c, 0, 63, 66
1, 618564, Note_off_c, 0, 77, 67
1, 618656, Note_on_c, 0, 69, 52
1, 618661, Note_on_c, 0, 72, 74
1, 618661, Note_on_c, 0, 77, 82
1, 618664, Note_on_c, 0, 73, 69
1, 618668, Note_on_c, 0, 67, 60
1, 618668, Note_on_c, 0, 63, 60
1, 618688, Note_off_c, 0, 73, 67
1, 618689, Note_off_c, 0, 72, 65
1, 618691, Note_off_c, 0, 77, 63
1, 618697, Note_off_c, 0, 67, 66
1, 618698, Note_off_c, 0, 63, 66
1, 618700, Note_off_c, 0, 69, 66
1, 618804, Note_on_c, 0, 72, 59
1, 618806, Note_on_c, 0, 73, 60
1, 618808, Note_on_c, 0, 69, 78
1, 618808, Note_on_c, 0, 63, 63
1, 618811, Note_on_c, 0, 67, 60
1, 618811, Note_on_c, 0, 77, 82
1, 618829, Note_off_c, 0, 73, 68
1, 618835, Note_off_c, 0, 69, 69
1, 618837, Note_off_c, 0, 77, 65
1, 618838, Note_off_c, 0, 63, 66
1, 618839, Note_off_c, 0, 72, 63
1, 618840, Note_off_c, 0, 67, 65
1, 618944, Note_on_c, 0, 73, 66
1, 618944, Note_on_c, 0, 77, 70
1, 618946, Note_on_c, 0, 69, 77
1, 618948, Note_on_c, 0, 72, 77
1, 618951, Note_on_c, 0, 67, 52
1, 618954, Note_on_c, 0, 63, 53
1, 618974, Note_off_c, 0, 73, 67
1, 618977, Note_off_c, 0, 63, 61
1, 618978, Note_off_c, 0, 67, 61
1, 618979, Note_off_c, 0, 69, 65
1, 618979, Note_off_c, 0, 72, 63
1, 618994, Note_off_c, 0, 77, 65
1, 619068, Note_on_c, 0, 73, 74
1, 619070, Note_on_c, 0, 63, 77
1, 619077, Note_on_c, 0, 72, 84
1, 619077, Note_on_c, 0, 69, 83
1, 619078, Note_on_c, 0, 77, 90
1, 619087, Note_on_c, 0, 67, 37
1, 619093, Note_off_c, 0, 73, 69
1, 619100, Note_off_c, 0, 63, 68
1, 619101, Note_off_c, 0, 69, 70
1, 619101, Note_off_c, 0, 72, 69
1, 619105, Note_off_c, 0, 77, 66
1, 619118, Note_off_c, 0, 67, 34
1, 619210, Note_on_c, 0, 71, 96
1, 619211, Note_on_c, 0, 79, 89
1, 619214, Note_on_c, 0, 74, 88
1, 619222, Note_on_c, 0, 61, 80
1, 619226, Note_on_c, 0, 65, 71
1, 619240, Note_off_c, 0, 74, 66
1, 619245, Note_off_c, 0, 71, 62
1, 619252, Note_off_c, 0, 79, 67
1, 619253, Note_off_c, 0, 61, 64
1, 619255, Note_off_c, 0, 65, 65
1, 619350, Note_on_c, 0, 71, 82
1, 619351, Note_on_c, 0, 65, 51
1, 619352, Note_on_c, 0, 79, 82
1, 619359, Note_on_c, 0, 74, 70
1, 619360, Note_on_c, 0, 61, 61
1, 619382, Note_off_c, 0, 71, 66
1, 619382, Note_off_c, 0, 74, 68
1, 619387, Note_off_c, 0, 65, 64
1, 619391, Note_off_c, 0, 79, 64
1, 619393, Note_off_c, 0, 61, 62
1, 619484, Note_on_c, 0, 74, 64
1, 619488, Note_on_c, 0, 79, 91
1, 619490, Note_on_c, 0, 65, 65
1, 619494, Note_on_c, 0, 71, 68
1, 619496, Note_on_c, 0, 72, 74
1, 619497, Note_on_c, 0, 61, 54
1, 619525, Note_off_c, 0, 74, 68
1, 619525, Note_off_c, 0, 79, 65
1, 619527, Note_off_c, 0, 71, 66
1, 619531, Note_off_c, 0, 72, 65
1, 619534, Note_off_c, 0, 65, 62
1, 619536, Note_off_c, 0, 61, 65
1, 619604, Control_c, 0, 64, 8
1, 619617, Note_on_c, 0, 63, 73
1, 619618, Control_c, 0, 64, 64
1, 619622, Note_on_c, 0, 71, 84
1, 619624, Note_on_c, 0, 81, 97
1, 619626, Note_on_c, 0, 73, 90
1, 619627, Note_on_c, 0, 76, 89
1, 619633, Control_c, 0, 64, 74
1, 619634, Note_on_c, 0, 60, 55
1, 619640, Note_off_c, 0, 71, 69
1, 619643, Note_on_c, 0, 78, 62
1, 619644, Note_off_c, 0, 78, 127
1, 619646, Note_off_c, 0, 76, 70
1, 619647, Note_off_c, 0, 63, 68
1, 619648, Control_c, 0, 64, 73
1, 619650, Note_off_c, 0, 73, 64
1, 619658, Note_off_c, 0, 60, 58
1, 619659, Note_off_c, 0, 81, 61
1, 619663, Control_c, 0, 64, 71
1, 619672, Note_on_c, 0, 66, 8
1, 619678, Control_c, 0, 64, 65
1, 619692, Control_c, 0, 64, 56
1, 619707, Control_c, 0, 64, 44
1, 619708, Note_on_c, 0, 71, 23
1, 619722, Control_c, 0, 64, 30
1, 619723, Note_off_c, 0, 66, 42
1, 619727, Note_on_c, 0, 76, 14
1, 619734, Note_off_c, 0, 71, 51
1, 619737, Control_c, 0, 64, 15
1, 619752, Control_c, 0, 64, 0
1, 619754, Note_on_c, 0, 66, 70
1, 619756, Note_on_c, 0, 77, 88
1, 619757, Note_on_c, 0, 70, 74
1, 619759, Note_on_c, 0, 69, 79
1, 619759, Note_on_c, 0, 72, 77
1, 619773, Note_off_c, 0, 70, 67
1, 619774, Note_on_c, 0, 62, 57
1, 619779, Note_off_c, 0, 76, 27
1, 619782, Note_off_c, 0, 69, 69
1, 619783, Note_off_c, 0, 66, 66
1, 619784, Note_off_c, 0, 72, 66
1, 619792, Note_off_c, 0, 77, 64
1, 619797, Note_off_c, 0, 62, 60
1, 619879, Note_on_c, 0, 71, 102
1, 619885, Note_on_c, 0, 61, 73
1, 619887, Note_on_c, 0, 74, 86
1, 619888, Note_on_c, 0, 79, 92
1, 619893, Note_on_c, 0, 65, 74
1, 619913, Note_off_c, 0, 74, 68
1, 619914, Note_off_c, 0, 71, 63
1, 619915, Note_off_c, 0, 61, 65
1, 619916, Note_off_c, 0, 79, 67
1, 619919, Note_off_c, 0, 65, 66
1, 619920, Poly_aftertouch_c, 0, 69, 0
1, 620011, Note_on_c, 0, 65, 57
1, 620013, Note_on_c, 0, 71, 81
1, 620016, Note_on_c, 0, 79, 90
1, 620016, Note_on_c, 0, 61, 67
1, 620026, Note_on_c, 0, 74, 72
1, 620042, Note_off_c, 0, 61, 65
1, 620042, Note_off_c, 0, 71, 66
1, 620046, Note_off_c, 0, 65, 63
1, 620051, Note_off_c, 0, 74, 68
1, 620060, Note_off_c, 0, 79, 66
1, 620147, Note_on_c, 0, 61, 64
1, 620147, Note_on_c, 0, 71, 75
1, 620149, Note_on_c, 0, 65, 60
1, 620155, Note_on_c, 0, 74, 52
1, 620155, Note_on_c, 0, 79, 85
1, 620173, Note_off_c, 0, 61, 65
1, 620176, Note_off_c, 0, 71, 66
1, 620179, Note_off_c, 0, 65, 65
1, 620183, Note_off_c, 0, 74, 67
1, 620184, Note_off_c, 0, 79, 63
1, 620293, Note_on_c, 0, 61, 67
1, 620294, Note_on_c, 0, 65, 64
1, 620295, Note_on_c, 0, 71, 78
1, 620305, Note_on_c, 0, 74, 72
1, 620305, Note_on_c, 0, 79, 86
1, 620324, Note_off_c, 0, 71, 64
1, 620327, Note_off_c, 0, 61, 65
1, 620329, Note_off_c, 0, 65, 65
1, 620330, Note_off_c, 0, 74, 68
1, 620332, Note_off_c, 0, 79, 64
1, 620430, Note_on_c, 0, 71, 86
1, 620432, Note_on_c, 0, 74, 65
1, 620435, Note_on_c, 0, 65, 66
1, 620436, Note_on_c, 0, 61, 68
1, 620439, Note_on_c, 0, 79, 86
1, 620461, Note_off_c, 0, 71, 65
1, 620465, Note_off_c, 0, 61, 66
1, 620465, Note_off_c, 0, 79, 66
1, 620467, Note_off_c, 0, 74, 66
1, 620468, Note_off_c, 0, 65, 64
1, 620568, Note_on_c, 0, 65, 68
1, 620568, Note_on_c, 0, 71, 88
1, 620569, Note_on_c, 0, 61, 67
1, 620575, Note_on_c, 0, 74, 84
1, 620576, Note_on_c, 0, 79, 83
1, 620598, Note_off_c, 0, 74, 69
1, 620603, Note_off_c, 0, 65, 64
1, 620603, Note_off_c, 0, 71, 63
1, 620603, Note_off_c, 0, 79, 66
1, 620606, Note_off_c, 0, 61, 64
1, 620697, Note_on_c, 0, 71, 91
1, 620701, Note_on_c, 0, 65, 77
1, 620704, Note_on_c, 0, 79, 87
1, 620705, Note_on_c, 0, 74, 77
1, 620706, Note_on_c, 0, 61, 73
1, 620729, Note_off_c, 0, 74, 69
1, 620731, Note_off_c, 0, 79, 66
1, 620731, Note_off_c, 0, 65, 66
1, 620734, Note_off_c, 0, 71, 64
1, 620737, Note_off_c, 0, 61, 67
1, 620833, Note_on_c, 0, 69, 92
1, 620835, Note_on_c, 0, 73, 91
1, 620836, Note_on_c, 0, 63, 91
1, 620838, Note_on_c, 0, 76, 93
1, 620838, Note_on_c, 0, 81, 90
1, 620844, Note_on_c, 0, 59, 77
1, 620853, Note_on_c, 0, 78, 67
1, 620854, Note_off_c, 0, 78, 127
1, 620857, Note_off_c, 0, 69, 67
1, 620861, Note_off_c, 0, 63, 66
1, 620871, Note_off_c, 0, 59, 68
1, 620876, Note_off_c, 0, 76, 62
1, 620878, Note_off_c, 0, 73, 64
1, 620880, Note_off_c, 0, 81, 64
1, 620964, Note_on_c, 0, 63, 63
1, 620966, Note_on_c, 0, 59, 34
1, 620967, Note_on_c, 0, 73, 83
1, 620968, Note_on_c, 0, 76, 86
1, 620969, Note_on_c, 0, 69, 82
1, 620971, Note_on_c, 0, 81, 82
1, 621001, Note_on_c, 0, 78, 26
1, 621001, Note_off_c, 0, 69, 65
1, 621014, Note_off_c, 0, 63, 65
1, 621017, Note_off_c, 0, 59, 67
1, 621017, Note_off_c, 0, 76, 64
1, 621020, Note_off_c, 0, 73, 64
1, 621020, Note_off_c, 0, 81, 63
1, 621041, Note_off_c, 0, 78, 41
1, 621115, Note_on_c, 0, 81, 89
1, 621122, Note_on_c, 0, 67, 82
1, 621125, Note_on_c, 0, 76, 73
1, 621127, Note_on_c, 0, 77, 74
1, 621133, Note_on_c, 0, 62, 74
1, 621135, Note_on_c, 0, 74, 63
1, 621140, Note_on_c, 0, 57, 56
1, 621149, Note_off_c, 0, 67, 66
1, 621149, Note_off_c, 0, 77, 69
1, 621150, Note_on_c, 0, 59, 39
1, 621150, Note_off_c, 0, 76, 66
1, 621153, Note_off_c, 0, 74, 66
1, 621157, Note_off_c, 0, 81, 65
1, 621160, Note_off_c, 0, 62, 67
1, 621163, Note_off_c, 0, 57, 59
1, 621181, Note_off_c, 0, 59, 46
1, 621247, Note_on_c, 0, 78, 95
1, 621250, Note_on_c, 0, 57, 76
1, 621250, Note_on_c, 0, 83, 91
1, 621250, Note_on_c, 0, 75, 92
1, 621250, Control_c, 0, 64, 60
1, 621251, Note_on_c, 0, 62, 75
1, 621255, Note_on_c, 0, 69, 90
1, 621265, Control_c, 0, 64, 76
1, 621273, Note_on_c, 0, 59, 41
1, 621275, Note_off_c, 0, 69, 70
1, 621278, Note_off_c, 0, 62, 68
1, 621279, Note_off_c, 0, 75, 62
1, 621279, Control_c, 0, 64, 81
1, 621280, Note_off_c, 0, 57, 68
1, 621282, Note_off_c, 0, 83, 64
1, 621284, Note_off_c, 0, 78, 66
1, 621294, Control_c, 0, 64, 83
1, 621303, Note_off_c, 0, 59, 36
1, 621339, Control_c, 0, 64, 80
1, 621354, Control_c, 0, 64, 67
1, 621369, Control_c, 0, 64, 39
1, 621375, Note_on_c, 0, 71, 93
1, 621381, Note_on_c, 0, 65, 78
1, 621382, Note_on_c, 0, 79, 93
1, 621383, Control_c, 0, 64, 0
1, 621384, Note_on_c, 0, 74, 81
1, 621393, Poly_aftertouch_c, 0, 69, 127
1, 621405, Note_on_c, 0, 60, 50
1, 621407, Note_on_c, 0, 59, 35
1, 621410, Note_off_c, 0, 74, 67
1, 621411, Note_off_c, 0, 65, 65
1, 621414, Note_off_c, 0, 71, 64
1, 621427, Note_off_c, 0, 79, 66
1, 621431, Note_off_c, 0, 60, 57
1, 621435, Poly_aftertouch_c, 0, 69, 0
1, 621443, Note_off_c, 0, 59, 34
1, 621472, Control_c, 0, 64, 35
1, 621487, Control_c, 0, 64, 51
1, 621502, Control_c, 0, 64, 58
1, 621515, Note_on_c, 0, 59, 80
1, 621515, Note_on_c, 0, 69, 84
1, 621519, Note_on_c, 0, 81, 89
1, 621520, Note_on_c, 0, 73, 86
1, 621521, Note_on_c, 0, 76, 89
1, 621531, Control_c, 0, 64, 58
1, 621545, Note_on_c, 0, 63, 25
1, 621546, Note_off_c, 0, 63, 127
1, 621546, Control_c, 0, 64, 59
1, 621549, Note_off_c, 0, 69, 65
1, 621550, Note_off_c, 0, 59, 63
1, 621558, Note_off_c, 0, 76, 61
1, 621561, Control_c, 0, 64, 60
1, 621563, Note_off_c, 0, 81, 64
1, 621566, Note_off_c, 0, 73, 64
1, 621576, Control_c, 0, 64, 62
1, 621605, Control_c, 0, 64, 61
1, 621620, Control_c, 0, 64, 57
1, 621635, Control_c, 0, 64, 54
1, 621643, Note_on_c, 0, 69, 91
1, 621648, Note_on_c, 0, 59, 81
1, 621648, Note_on_c, 0, 63, 87
1, 621650, Control_c, 0, 64, 54
1, 621652, Note_on_c, 0, 81, 93
1, 621652, Note_on_c, 0, 73, 92
1, 621652, Note_on_c, 0, 76, 92
1, 621664, Control_c, 0, 64, 52
1, 621675, Note_off_c, 0, 69, 63
1, 621676, Note_off_c, 0, 63, 65
1, 621679, Control_c, 0, 64, 40
1, 621682, Note_off_c, 0, 59, 64
1, 621693, Note_off_c, 0, 76, 66
1, 621694, Control_c, 0, 64, 0
1, 621699, Note_off_c, 0, 73, 65
1, 621699, Note_off_c, 0, 81, 65
1, 621738, Control_c, 0, 64, 36
1, 621761, Control_c, 0, 64, 56
1, 621776, Control_c, 0, 64, 63
1, 621787, Note_on_c, 0, 78, 93
1, 621789, Note_on_c, 0, 75, 93
1, 621789, Note_on_c, 0, 83, 92
1, 621793, Note_on_c, 0, 67, 94
1, 621798, Note_on_c, 0, 57, 83
1, 621804, Note_on_c, 0, 61, 77
1, 621820, Control_c, 0, 64, 59
1, 621829, Note_on_c, 0, 80, 37
1, 621831, Note_off_c, 0, 61, 65
1, 621834, Note_off_c, 0, 67, 61
1, 621835, Control_c, 0, 64, 30
1, 621837, Note_off_c, 0, 83, 66
1, 621840, Note_off_c, 0, 57, 61
1, 621840, Note_off_c, 0, 78, 65
1, 621842, Note_off_c, 0, 75, 66
1, 621850, Control_c, 0, 64, 0
1, 621861, Note_off_c, 0, 80, 33
1, 621895, Control_c, 0, 64, 31
1, 621910, Control_c, 0, 64, 62
1, 621925, Note_on_c, 0, 67, 98
1, 621925, Control_c, 0, 64, 77
1, 621926, Note_on_c, 0, 61, 59
1, 621928, Note_on_c, 0, 78, 95
1, 621928, Note_on_c, 0, 83, 94
1, 621930, Note_on_c, 0, 75, 92
1, 621932, Note_on_c, 0, 57, 87
1, 621940, Control_c, 0, 64, 91
1, 621953, Note_on_c, 0, 80, 39
1, 621955, Control_c, 0, 64, 127
1, 621966, Note_off_c, 0, 57, 62
1, 621966, Note_off_c, 0, 61, 65
1, 621970, Note_off_c, 0, 67, 65
1, 621977, Note_off_c, 0, 80, 61
1, 621980, Note_off_c, 0, 83, 66
1, 621983, Note_off_c, 0, 78, 64
1, 621983, Note_off_c, 0, 75, 65
1, 622058, Note_on_c, 0, 67, 92
1, 622066, Note_on_c, 0, 61, 81
1, 622067, Note_on_c, 0, 78, 93
1, 622068, Note_on_c, 0, 57, 80
1, 622068, Note_on_c, 0, 83, 92
1, 622069, Note_on_c, 0, 75, 91
1, 622095, Note_off_c, 0, 61, 63
1, 622100, Note_off_c, 0, 57, 65
1, 622102, Note_off_c, 0, 67, 64
1, 622112, Note_off_c, 0, 83, 67
1, 622115, Note_off_c, 0, 75, 65
1, 622119, Note_off_c, 0, 78, 65
1, 622193, Note_on_c, 0, 67, 97
1, 622199, Note_on_c, 0, 61, 75
1, 622199, Note_on_c, 0, 83, 93
1, 622201, Note_on_c, 0, 78, 92
1, 622201, Note_on_c, 0, 75, 94
1, 622203, Note_on_c, 0, 57, 79
1, 622234, Note_off_c, 0, 57, 63
1, 622236, Note_off_c, 0, 61, 62
1, 622239, Note_off_c, 0, 67, 64
1, 622249, Note_off_c, 0, 83, 66
1, 622252, Note_off_c, 0, 75, 65
1, 622252, Note_off_c, 0, 78, 65
1, 622329, Note_on_c, 0, 67, 95
1, 622332, Note_on_c, 0, 75, 96
1, 622334, Note_on_c, 0, 78, 97
1, 622335, Note_on_c, 0, 83, 95
1, 622336, Note_on_c, 0, 57, 84
1, 622338, Note_on_c, 0, 61, 85
1, 622374, Note_off_c, 0, 61, 63
1, 622378, Note_off_c, 0, 67, 65
1, 622379, Note_off_c, 0, 57, 63
1, 622383, Note_off_c, 0, 83, 66
1, 622391, Note_off_c, 0, 78, 64
1, 622397, Note_off_c, 0, 75, 65
1, 622470, Note_on_c, 0, 67, 100
1, 622474, Note_on_c, 0, 75, 100
1, 622475, Note_on_c, 0, 78, 96
1, 622476, Note_on_c, 0, 83, 94
1, 622477, Note_on_c, 0, 61, 90
1, 622477, Note_on_c, 0, 57, 90
1, 622516, Note_off_c, 0, 61, 59
1, 622519, Note_off_c, 0, 67, 65
1, 622528, Note_off_c, 0, 57, 62
1, 622537, Note_off_c, 0, 83, 66
1, 622540, Note_off_c, 0, 78, 64
1, 622546, Note_off_c, 0, 75, 65
1, 622624, Note_on_c, 0, 67, 92
1, 622631, Note_on_c, 0, 57, 88
1, 622633, Note_on_c, 0, 61, 86
1, 622639, Note_on_c, 0, 75, 94
1, 622639, Note_on_c, 0, 78, 92
1, 622643, Note_on_c, 0, 83, 89
1, 622650, Note_off_c, 0, 67, 68
1, 622662, Note_off_c, 0, 61, 55
1, 622665, Note_off_c, 0, 83, 71
1, 622683, Note_off_c, 0, 57, 61
1, 622685, Note_off_c, 0, 78, 65
1, 622700, Note_off_c, 0, 75, 66
1, 622737, Note_on_c, 0, 83, 13
1, 622738, Note_off_c, 0, 83, 127
1, 622865, Control_c, 0, 64, 75
1, 622869, Note_on_c, 0, 46, 110
1, 622880, Control_c, 0, 64, 64
1, 622888, Note_on_c, 0, 34, 84
1, 622895, Control_c, 0, 64, 68
1, 622910, Note_off_c, 0, 34, 69
1, 622910, Control_c, 0, 64, 106
1, 622911, Note_off_c, 0, 46, 67
1, 622925, Control_c, 0, 64, 127
1, 623041, Note_on_c, 0, 48, 99
1, 623100, Note_off_c, 0, 48, 62
1, 623160, Note_on_c, 0, 51, 106
1, 623162, Control_c, 0, 64, 91
1, 623176, Note_on_c, 0, 39, 84
1, 623191, Control_c, 0, 64, 127
1, 623214, Note_off_c, 0, 51, 64
1, 623235, Note_off_c, 0, 39, 62
1, 623265, Note_on_c, 0, 62, 52
1, 623297, Note_on_c, 0, 50, 107
1, 623314, Note_off_c, 0, 62, 59
1, 623357, Note_off_c, 0, 50, 66
1, 623369, Poly_aftertouch_c, 0, 55, 127
1, 623402, Poly_aftertouch_c, 0, 55, 0
1, 623426, Note_on_c, 0, 48, 100
1, 623436, Note_on_c, 0, 47, 83
1, 623438, Note_on_c, 0, 36, 84
1, 623464, Note_on_c, 0, 37, 50
1, 623467, Note_off_c, 0, 47, 50
1, 623481, Control_c, 0, 64, 67
1, 623496, Control_c, 0, 64, 62
1, 623499, Note_off_c, 0, 36, 59
1, 623508, Poly_aftertouch_c, 0, 56, 127
1, 623511, Control_c, 0, 64, 76
1, 623514, Note_off_c, 0, 48, 54
1, 623525, Control_c, 0, 64, 127
1, 623531, Note_off_c, 0, 37, 39
1, 623553, Note_on_c, 0, 46, 102
1, 623576, Poly_aftertouch_c, 0, 56, 0
1, 623615, Note_off_c, 0, 46, 64
1, 623680, Note_on_c, 0, 48, 99
1, 623691, Note_on_c, 0, 36, 82
1, 623715, Note_off_c, 0, 48, 67
1, 623736, Note_off_c, 0, 36, 61
1, 623760, Note_on_c, 0, 54, 41
1, 623805, Note_on_c, 0, 43, 93
1, 623844, Note_off_c, 0, 43, 62
1, 623844, Note_off_c, 0, 54, 60
1, 623922, Note_on_c, 0, 46, 101
1, 623934, Note_on_c, 0, 34, 87
1, 623966, Note_off_c, 0, 34, 66
1, 623972, Note_off_c, 0, 46, 65
1, 624021, Poly_aftertouch_c, 0, 47, 0
1, 624050, Note_on_c, 0, 50, 103
1, 624052, Poly_aftertouch_c, 0, 47, 0
1, 624062, Note_on_c, 0, 62, 37
1, 624099, Note_off_c, 0, 62, 44
1, 624117, Note_off_c, 0, 50, 66
1, 624140, Control_c, 0, 64, 67
1, 624155, Control_c, 0, 64, 47
1, 624170, Control_c, 0, 64, 54
1, 624171, Note_on_c, 0, 48, 103
1, 624182, Note_on_c, 0, 36, 88
1, 624184, Control_c, 0, 64, 75
1, 624199, Control_c, 0, 64, 127
1, 624210, Note_off_c, 0, 48, 67
1, 624222, Note_off_c, 0, 36, 65
1, 624228, Note_on_c, 0, 56, 19
1, 624280, Note_off_c, 0, 56, 47
1, 624301, Note_on_c, 0, 46, 102
1, 624333, Note_on_c, 0, 58, 24
1, 624338, Poly_aftertouch_c, 0, 38, 0
1, 624348, Note_off_c, 0, 46, 66
1, 624372, Note_off_c, 0, 58, 42
1, 624466, Note_on_c, 0, 43, 98
1, 624482, Note_on_c, 0, 31, 80
1, 624493, Note_on_c, 0, 29, 64
1, 624505, Note_on_c, 0, 41, 29
1, 624506, Note_off_c, 0, 41, 127
1, 624511, Control_c, 0, 64, 79
1, 624520, Note_off_c, 0, 29, 56
1, 624526, Control_c, 0, 64, 47
1, 624541, Control_c, 0, 64, 0
1, 624660, Control_c, 0, 64, 59
1, 624664, Note_off_c, 0, 31, 64
1, 624674, Control_c, 0, 64, 96
1, 624689, Control_c, 0, 64, 127
1, 624704, Note_off_c, 0, 43, 63
1, 624914, Note_on_c, 0, 77, 86
1, 624922, Note_on_c, 0, 72, 68
1, 624936, Note_on_c, 0, 65, 64
1, 624946, Note_on_c, 0, 63, 71
1, 624948, Note_on_c, 0, 58, 71
1, 624970, Note_off_c, 0, 65, 64
1, 624972, Note_on_c, 0, 51, 49
1, 624980, Note_off_c, 0, 63, 65
1, 624986, Note_off_c, 0, 77, 65
1, 624987, Note_off_c, 0, 58, 65
1, 624994, Note_off_c, 0, 72, 61
1, 625002, Note_off_c, 0, 51, 64
1, 625049, Note_on_c, 0, 79, 93
1, 625053, Note_on_c, 0, 67, 83
1, 625056, Note_on_c, 0, 74, 81
1, 625059, Note_on_c, 0, 63, 74
1, 625082, Note_off_c, 0, 67, 66
1, 625085, Note_on_c, 0, 56, 56
1, 625093, Note_off_c, 0, 63, 64
1, 625105, Note_off_c, 0, 74, 64
1, 625108, Note_off_c, 0, 56, 60
1, 625108, Note_off_c, 0, 79, 65
1, 625110, Note_on_c, 0, 51, 36
1, 625148, Note_off_c, 0, 51, 42
1, 625164, Note_on_c, 0, 67, 82
1, 625165, Note_on_c, 0, 79, 89
1, 625171, Note_on_c, 0, 74, 81
1, 625178, Note_on_c, 0, 63, 77
1, 625182, Note_on_c, 0, 56, 75
1, 625205, Note_off_c, 0, 63, 65
1, 625205, Note_off_c, 0, 67, 63
1, 625207, Note_off_c, 0, 56, 66
1, 625212, Note_on_c, 0, 51, 39
1, 625218, Note_off_c, 0, 74, 65
1, 625219, Note_off_c, 0, 79, 65
1, 625241, Note_off_c, 0, 51, 50
1, 625275, Note_on_c, 0, 79, 85
1, 625276, Note_on_c, 0, 74, 90
1, 625277, Note_on_c, 0, 67, 87
1, 625280, Note_on_c, 0, 56, 68
1, 625282, Note_on_c, 0, 63, 79
1, 625302, Note_off_c, 0, 67, 65
1, 625319, Note_off_c, 0, 63, 65
1, 625319, Note_off_c, 0, 79, 66
1, 625322, Note_off_c, 0, 56, 63
1, 625334, Note_off_c, 0, 74, 65
1, 625378, Note_on_c, 0, 67, 89
1, 625384, Note_on_c, 0, 74, 87
1, 625386, Note_on_c, 0, 79, 92
1, 625388, Poly_aftertouch_c, 0, 51, 127
1, 625397, Note_on_c, 0, 63, 95
1, 625410, Note_on_c, 0, 56, 73
1, 625417, Note_on_c, 0, 51, 3
1, 625420, Note_off_c, 0, 67, 63
1, 625423, Note_off_c, 0, 63, 65
1, 625425, Note_off_c, 0, 74, 66
1, 625430, Note_off_c, 0, 79, 66
1, 625434, Note_off_c, 0, 51, 58
1, 625437, Note_off_c, 0, 56, 63
1, 625521, Note_on_c, 0, 72, 98
1, 625521, Note_on_c, 0, 84, 98
1, 625524, Note_on_c, 0, 70, 85
1, 625532, Note_on_c, 0, 78, 71
1, 625546, Note_off_c, 0, 70, 69
1, 625548, Note_off_c, 0, 78, 67
1, 625551, Note_off_c, 0, 72, 61
1, 625552, Note_off_c, 0, 84, 63
1, 625563, Note_on_c, 0, 62, 40
1, 625596, Note_off_c, 0, 62, 49
1, 625645, Note_on_c, 0, 63, 95
1, 625645, Note_on_c, 0, 79, 87
1, 625646, Note_on_c, 0, 67, 92
1, 625652, Note_on_c, 0, 81, 77
1, 625653, Note_on_c, 0, 56, 82
1, 625668, Note_off_c, 0, 81, 42
1, 625672, Note_off_c, 0, 63, 63
1, 625673, Note_on_c, 0, 69, 54
1, 625674, Note_off_c, 0, 69, 127
1, 625676, Note_on_c, 0, 51, 46
1, 625680, Note_off_c, 0, 56, 63
1, 625686, Note_off_c, 0, 67, 62
1, 625692, Note_off_c, 0, 79, 68
1, 625704, Note_off_c, 0, 51, 53
1, 625730, Poly_aftertouch_c, 0, 54, 0
1, 625772, Note_on_c, 0, 56, 85
1, 625778, Note_on_c, 0, 63, 97
1, 625778, Note_on_c, 0, 67, 98
1, 625778, Note_on_c, 0, 79, 103
1, 625780, Poly_aftertouch_c, 0, 54, 0
1, 625784, Note_on_c, 0, 51, 73
1, 625825, Note_off_c, 0, 67, 64
1, 625828, Note_off_c, 0, 79, 67
1, 625874, Note_off_c, 0, 63, 62
1, 625937, Note_off_c, 0, 51, 59
1, 625957, Note_off_c, 0, 56, 60
1, 626256, Note_on_c, 0, 46, 104
1, 626275, Note_on_c, 0, 34, 86
1, 626312, Control_c, 0, 64, 85
1, 626326, Control_c, 0, 64, 55
1, 626341, Control_c, 0, 64, 16
1, 626344, Note_off_c, 0, 34, 59
1, 626356, Control_c, 0, 64, 41
1, 626362, Note_off_c, 0, 46, 64
1, 626371, Control_c, 0, 64, 68
1, 626386, Control_c, 0, 64, 127
1, 626416, Note_on_c, 0, 48, 112
1, 626478, Note_off_c, 0, 48, 63
1, 626553, Note_on_c, 0, 51, 103
1, 626567, Note_on_c, 0, 39, 79
1, 626612, Note_on_c, 0, 62, 51
1, 626623, Note_off_c, 0, 51, 64
1, 626639, Note_off_c, 0, 39, 60
1, 626678, Note_on_c, 0, 50, 108
1, 626696, Note_off_c, 0, 62, 47
1, 626738, Note_off_c, 0, 50, 67
1, 626801, Note_on_c, 0, 48, 104
1, 626821, Note_on_c, 0, 36, 81
1, 626861, Control_c, 0, 64, 106
1, 626873, Note_on_c, 0, 58, 15
1, 626875, Control_c, 0, 64, 66
1, 626890, Control_c, 0, 64, 45
1, 626893, Note_off_c, 0, 36, 60
1, 626899, Note_off_c, 0, 48, 59
1, 626905, Control_c, 0, 64, 49
1, 626920, Note_off_c, 0, 58, 49
1, 626920, Control_c, 0, 64, 66
1, 626927, Note_on_c, 0, 46, 104
1, 626935, Control_c, 0, 64, 108
1, 626949, Control_c, 0, 64, 127
1, 626998, Note_off_c, 0, 46, 63
1, 627054, Note_on_c, 0, 48, 98
1, 627068, Note_on_c, 0, 36, 79
1, 627095, Note_off_c, 0, 48, 67
1, 627122, Note_off_c, 0, 36, 57
1, 627138, Note_on_c, 0, 54, 27
1, 627170, Note_on_c, 0, 49, 48
1, 627171, Note_on_c, 0, 43, 100
1, 627207, Note_off_c, 0, 49, 64
1, 627217, Note_off_c, 0, 54, 59
1, 627223, Note_off_c, 0, 43, 64
1, 627298, Note_on_c, 0, 46, 109
1, 627312, Note_on_c, 0, 34, 88
1, 627351, Note_off_c, 0, 46, 63
1, 627357, Control_c, 0, 64, 81
1, 627359, Note_off_c, 0, 34, 63
1, 627372, Control_c, 0, 64, 69
1, 627387, Control_c, 0, 64, 73
1, 627401, Control_c, 0, 64, 127
1, 627423, Note_on_c, 0, 50, 105
1, 627471, Poly_aftertouch_c, 0, 62, 127
1, 627488, Note_off_c, 0, 50, 63
1, 627510, Poly_aftertouch_c, 0, 62, 0
1, 627554, Note_on_c, 0, 48, 103
1, 627566, Note_on_c, 0, 36, 82
1, 627580, Control_c, 0, 64, 78
1, 627595, Control_c, 0, 64, 60
1, 627610, Control_c, 0, 64, 63
1, 627624, Control_c, 0, 64, 81
1, 627636, Poly_aftertouch_c, 0, 56, 127
1, 627639, Control_c, 0, 64, 127
1, 627668, Note_off_c, 0, 48, 50
1, 627679, Note_on_c, 0, 46, 107
1, 627721, Note_off_c, 0, 36, 23
1, 627738, Poly_aftertouch_c, 0, 56, 0
1, 627769, Note_off_c, 0, 46, 63
1, 627820, Note_on_c, 0, 50, 104
1, 627825, Control_c, 0, 64, 101
1, 627831, Note_on_c, 0, 38, 88
1, 627840, Control_c, 0, 64, 69
1, 627855, Control_c, 0, 64, 65
1, 627868, Note_off_c, 0, 50, 66
1, 627870, Control_c, 0, 64, 75
1, 627885, Control_c, 0, 64, 127
1, 627914, Note_off_c, 0, 38, 59
1, 627945, Note_on_c, 0, 48, 105
1, 627999, Note_on_c, 0, 60, 10
1, 628024, Note_off_c, 0, 48, 63
1, 628035, Note_off_c, 0, 60, 35
1, 628079, Note_on_c, 0, 43, 104
1, 628092, Note_on_c, 0, 31, 85
1, 628106, Control_c, 0, 64, 71
1, 628121, Control_c, 0, 64, 50
1, 628131, Note_off_c, 0, 31, 65
1, 628136, Control_c, 0, 64, 51
1, 628151, Control_c, 0, 64, 66
1, 628158, Note_off_c, 0, 43, 57
1, 628166, Control_c, 0, 64, 94
1, 628180, Control_c, 0, 64, 127
1, 628207, Note_on_c, 0, 52, 9
1, 628208, Note_on_c, 0, 46, 100
1, 628283, Note_off_c, 0, 46, 64
1, 628285, Note_off_c, 0, 52, 36
1, 628335, Note_on_c, 0, 50, 105
1, 628348, Note_on_c, 0, 38, 87
1, 628373, Note_off_c, 0, 50, 67
1, 628380, Note_off_c, 0, 38, 65
1, 628470, Note_on_c, 0, 48, 99
1, 628488, Note_on_c, 0, 60, 40
1, 628522, Note_off_c, 0, 60, 55
1, 628540, Note_off_c, 0, 48, 63
1, 628691, Note_on_c, 0, 43, 108
1, 628705, Note_on_c, 0, 31, 90
1, 628722, Control_c, 0, 64, 106
1, 628737, Control_c, 0, 64, 60
1, 628752, Control_c, 0, 64, 0
1, 628855, Control_c, 0, 64, 55
1, 628870, Control_c, 0, 64, 77
1, 628880, Note_off_c, 0, 31, 64
1, 628885, Control_c, 0, 64, 127
1, 628914, Note_off_c, 0, 43, 66
1, 628984, Poly_aftertouch_c, 0, 67, 127
1, 629005, Poly_aftertouch_c, 0, 67, 0
1, 629101, Note_on_c, 0, 77, 85
1, 629107, Note_on_c, 0, 63, 77
1, 629109, Note_on_c, 0, 72, 65
1, 629116, Note_on_c, 0, 65, 69
1, 629116, Note_on_c, 0, 58, 64
1, 629122, Note_on_c, 0, 51, 56
1, 629170, Note_off_c, 0, 63, 62
1, 629174, Note_off_c, 0, 51, 57
1, 629176, Note_off_c, 0, 58, 62
1, 629177, Note_off_c, 0, 65, 57
1, 629196, Note_off_c, 0, 72, 62
1, 629212, Note_off_c, 0, 77, 65
1, 629268, Note_on_c, 0, 67, 77
1, 629271, Note_on_c, 0, 79, 89
1, 629274, Note_on_c, 0, 74, 84
1, 629277, Note_on_c, 0, 63, 75
1, 629282, Note_on_c, 0, 56, 69
1, 629295, Note_on_c, 0, 51, 50
1, 629306, Note_off_c, 0, 63, 66
1, 629313, Note_off_c, 0, 67, 63
1, 629322, Note_off_c, 0, 56, 62
1, 629324, Note_off_c, 0, 74, 64
1, 629334, Note_off_c, 0, 51, 60
1, 629334, Note_off_c, 0, 79, 64
1, 629391, Note_on_c, 0, 79, 83
1, 629395, Note_on_c, 0, 63, 64
1, 629396, Note_on_c, 0, 67, 84
1, 629399, Note_on_c, 0, 74, 81
1, 629402, Note_on_c, 0, 56, 70
1, 629424, Note_on_c, 0, 51, 51
1, 629432, Note_off_c, 0, 56, 64
1, 629432, Note_off_c, 0, 63, 65
1, 629433, Note_off_c, 0, 67, 62
1, 629444, Note_off_c, 0, 74, 63
1, 629446, Note_off_c, 0, 79, 63
1, 629448, Note_off_c, 0, 51, 62
1, 629502, Note_on_c, 0, 79, 83
1, 629503, Note_on_c, 0, 74, 83
1, 629504, Note_on_c, 0, 67, 83
1, 629508, Note_on_c, 0, 56, 74
1, 629509, Note_on_c, 0, 63, 75
1, 629534, Note_off_c, 0, 67, 60
1, 629537, Note_off_c, 0, 63, 65
1, 629538, Note_off_c, 0, 56, 61
1, 629540, Note_on_c, 0, 51, 41
1, 629548, Note_off_c, 0, 79, 64
1, 629554, Note_off_c, 0, 74, 65
1, 629565, Note_off_c, 0, 51, 55
1, 629605, Note_on_c, 0, 67, 83
1, 629606, Note_on_c, 0, 79, 85
1, 629609, Note_on_c, 0, 74, 82
1, 629614, Note_on_c, 0, 63, 79
1, 629616, Note_on_c, 0, 56, 83
1, 629633, Note_off_c, 0, 67, 64
1, 629647, Note_off_c, 0, 63, 65
1, 629650, Note_off_c, 0, 56, 65
1, 629650, Note_off_c, 0, 74, 66
1, 629653, Note_on_c, 0, 51, 33
1, 629657, Note_off_c, 0, 79, 66
1, 629687, Note_off_c, 0, 51, 44
1, 629730, Note_on_c, 0, 84, 96
1, 629737, Note_on_c, 0, 63, 89
1, 629742, Note_on_c, 0, 72, 69
1, 629748, Note_on_c, 0, 70, 64
1, 629757, Note_off_c, 0, 84, 63
1, 629765, Note_off_c, 0, 63, 65
1, 629767, Note_off_c, 0, 72, 63
1, 629768, Note_off_c, 0, 70, 64
1, 629769, Note_on_c, 0, 78, 32
1, 629811, Note_off_c, 0, 78, 39
1, 629842, Note_on_c, 0, 81, 91
1, 629848, Note_on_c, 0, 74, 64
1, 629850, Note_on_c, 0, 69, 80
1, 629861, Note_on_c, 0, 63, 52
1, 629872, Note_off_c, 0, 74, 67
1, 629875, Note_on_c, 0, 58, 40
1, 629876, Note_off_c, 0, 69, 70
1, 629881, Note_off_c, 0, 81, 63
1, 629890, Note_off_c, 0, 63, 56
1, 629900, Note_off_c, 0, 58, 54
1, 629939, Note_on_c, 0, 69, 78
1, 629944, Note_on_c, 0, 74, 84
1, 629945, Note_on_c, 0, 81, 84
1, 629958, Note_on_c, 0, 51, 67
1, 629960, Note_on_c, 0, 63, 77
1, 629966, Note_off_c, 0, 69, 66
1, 629969, Note_off_c, 0, 74, 69
1, 629972, Note_off_c, 0, 81, 61
1, 629982, Note_off_c, 0, 63, 69
1, 630001, Note_off_c, 0, 51, 63
1, 630034, Note_on_c, 0, 75, 89
1, 630038, Note_on_c, 0, 81, 89
1, 630046, Note_on_c, 0, 69, 81
1, 630050, Note_on_c, 0, 63, 68
1, 630054, Note_on_c, 0, 74, 78
1, 630057, Note_off_c, 0, 75, 67
1, 630067, Note_on_c, 0, 56, 54
1, 630068, Note_off_c, 0, 81, 63
1, 630070, Poly_aftertouch_c, 0, 58, 0
1, 630073, Note_on_c, 0, 51, 43
1, 630073, Note_off_c, 0, 69, 67
1, 630075, Note_off_c, 0, 74, 69
1, 630079, Note_off_c, 0, 63, 66
1, 630089, Note_off_c, 0, 56, 61
1, 630096, Note_off_c, 0, 51, 58
1, 630130, Control_c, 0, 64, 101
1, 630131, Note_on_c, 0, 74, 70
1, 630136, Note_on_c, 0, 69, 91
1, 630138, Note_on_c, 0, 81, 105
1, 630144, Note_on_c, 0, 63, 80
1, 630145, Control_c, 0, 64, 73
1, 630147, Note_on_c, 0, 56, 87
1, 630160, Control_c, 0, 64, 70
1, 630164, Note_on_c, 0, 51, 47
1, 630174, Control_c, 0, 64, 88
1, 630178, Note_off_c, 0, 63, 63
1, 630181, Note_off_c, 0, 69, 60
1, 630189, Note_off_c, 0, 56, 57
1, 630189, Control_c, 0, 64, 127
1, 630195, Note_off_c, 0, 51, 51
1, 630250, Note_off_c, 0, 74, 64
1, 630381, Poly_aftertouch_c, 0, 64, 127
1, 630422, Poly_aftertouch_c, 0, 64, 0
1, 630515, Control_c, 0, 64, 84
1, 630530, Control_c, 0, 64, 59
1, 630545, Control_c, 0, 64, 30
1, 630560, Control_c, 0, 64, 38
1, 630562, Note_on_c, 0, 70, 53
1, 630568, Note_on_c, 0, 77, 63
1, 630574, Control_c, 0, 64, 63
1, 630589, Control_c, 0, 64, 93
1, 630595, Note_on_c, 0, 72, 52
1, 630604, Control_c, 0, 64, 127
1, 630621, Note_off_c, 0, 72, 59
1, 630648, Note_off_c, 0, 70, 58
1, 630678, Note_off_c, 0, 77, 57
1, 630706, Note_on_c, 0, 68, 53
1, 630716, Note_on_c, 0, 79, 62
1, 630717, Note_on_c, 0, 75, 46
1, 630746, Note_off_c, 0, 68, 61
1, 630752, Note_off_c, 0, 81, 59
1, 630753, Note_on_c, 0, 74, 45
1, 630767, Note_off_c, 0, 75, 62
1, 630774, Note_off_c, 0, 79, 60
1, 630783, Note_off_c, 0, 74, 55
1, 630820, Control_c, 0, 64, 89
1, 630835, Control_c, 0, 64, 71
1, 630841, Note_on_c, 0, 68, 58
1, 630848, Note_on_c, 0, 79, 62
1, 630849, Control_c, 0, 64, 64
1, 630863, Note_on_c, 0, 75, 53
1, 630863, Note_on_c, 0, 74, 56
1, 630864, Control_c, 0, 64, 68
1, 630879, Control_c, 0, 64, 87
1, 630888, Note_off_c, 0, 75, 65
1, 630893, Note_off_c, 0, 68, 59
1, 630894, Control_c, 0, 64, 127
1, 630896, Note_off_c, 0, 74, 63
1, 630899, Note_off_c, 0, 79, 61
1, 630965, Note_on_c, 0, 79, 67
1, 630966, Note_on_c, 0, 75, 72
1, 630977, Note_on_c, 0, 74, 57
1, 630982, Note_on_c, 0, 68, 56
1, 631002, Note_off_c, 0, 75, 63
1, 631002, Note_off_c, 0, 79, 62
1, 631006, Note_off_c, 0, 74, 66
1, 631017, Note_off_c, 0, 68, 64
1, 631081, Note_on_c, 0, 74, 70
1, 631086, Note_on_c, 0, 75, 64
1, 631091, Note_on_c, 0, 79, 79
1, 631103, Note_on_c, 0, 68, 64
1, 631112, Note_off_c, 0, 74, 64
1, 631113, Note_off_c, 0, 75, 68
1, 631140, Note_off_c, 0, 79, 61
1, 631144, Note_off_c, 0, 68, 61
1, 631205, Note_on_c, 0, 84, 82
1, 631205, Control_c, 0, 64, 94
1, 631220, Control_c, 0, 64, 92
1, 631221, Note_on_c, 0, 77, 57
1, 631226, Note_on_c, 0, 70, 58
1, 631235, Control_c, 0, 64, 99
1, 631238, Note_on_c, 0, 76, 30
1, 631240, Note_off_c, 0, 77, 65
1, 631249, Control_c, 0, 64, 127
1, 631261, Note_off_c, 0, 70, 53
1, 631273, Note_off_c, 0, 76, 43
1, 631303, Note_off_c, 0, 84, 44
1, 631336, Note_on_c, 0, 81, 71
1, 631343, Note_on_c, 0, 74, 50
1, 631349, Note_on_c, 0, 75, 55
1, 631356, Note_on_c, 0, 70, 55
1, 631373, Note_off_c, 0, 74, 58
1, 631375, Note_off_c, 0, 75, 66
1, 631381, Note_off_c, 0, 70, 62
1, 631387, Note_off_c, 0, 81, 61
1, 631435, Poly_aftertouch_c, 0, 76, 0
1, 631454, Note_on_c, 0, 81, 73
1, 631460, Note_on_c, 0, 74, 63
1, 631461, Note_on_c, 0, 75, 66
1, 631471, Note_on_c, 0, 70, 59
1, 631496, Note_off_c, 0, 74, 56
1, 631498, Note_off_c, 0, 75, 67
1, 631507, Note_off_c, 0, 70, 64
1, 631519, Note_off_c, 0, 81, 62
1, 631555, Control_c, 0, 64, 92
1, 631570, Control_c, 0, 64, 79
1, 631572, Note_on_c, 0, 81, 69
1, 631582, Note_on_c, 0, 75, 66
1, 631584, Note_on_c, 0, 74, 61
1, 631597, Note_on_c, 0, 70, 49
1, 631599, Control_c, 0, 64, 89
1, 631606, Note_off_c, 0, 74, 60
1, 631614, Note_off_c, 0, 75, 65
1, 631614, Control_c, 0, 64, 127
1, 631617, Note_off_c, 0, 70, 61
1, 631623, Note_off_c, 0, 81, 63
1, 631694, Note_on_c, 0, 70, 63
1, 631701, Note_on_c, 0, 75, 68
1, 631701, Note_on_c, 0, 81, 76
1, 631702, Note_on_c, 0, 74, 60
1, 631728, Note_off_c, 0, 74, 64
1, 631733, Note_off_c, 0, 75, 65
1, 631748, Note_off_c, 0, 70, 57
1, 631751, Note_off_c, 0, 81, 63
1, 631814, Note_on_c, 0, 79, 80
1, 631821, Control_c, 0, 64, 117
1, 631823, Note_on_c, 0, 74, 62
1, 631829, Note_on_c, 0, 67, 68
1, 631836, Control_c, 0, 64, 99
1, 631841, Note_on_c, 0, 72, 53
1, 631846, Note_on_c, 0, 77, 44
1, 631851, Control_c, 0, 64, 99
1, 631853, Note_off_c, 0, 74, 66
1, 631865, Control_c, 0, 64, 124
1, 631868, Note_off_c, 0, 72, 61
1, 631869, Note_off_c, 0, 67, 62
1, 631871, Note_off_c, 0, 79, 63
1, 631873, Note_off_c, 0, 77, 55
1, 631880, Control_c, 0, 64, 127
1, 631942, Note_on_c, 0, 81, 80
1, 631943, Note_on_c, 0, 77, 75
1, 631949, Note_on_c, 0, 76, 69
1, 631951, Note_on_c, 0, 70, 58
1, 631969, Note_off_c, 0, 77, 68
1, 631971, Note_on_c, 0, 69, 43
1, 631975, Note_off_c, 0, 70, 63
1, 631978, Note_off_c, 0, 76, 66
1, 631984, Control_c, 0, 64, 101
1, 631992, Note_off_c, 0, 81, 63
1, 631998, Note_off_c, 0, 69, 57
1, 631999, Control_c, 0, 64, 78
1, 632014, Control_c, 0, 64, 72
1, 632029, Control_c, 0, 64, 77
1, 632043, Control_c, 0, 64, 106
1, 632058, Control_c, 0, 64, 127
1, 632058, Note_on_c, 0, 76, 71
1, 632060, Note_on_c, 0, 77, 57
1, 632060, Note_on_c, 0, 81, 83
1, 632064, Note_on_c, 0, 70, 58
1, 632073, Note_on_c, 0, 69, 62
1, 632089, Note_off_c, 0, 77, 67
1, 632091, Note_off_c, 0, 76, 61
1, 632094, Note_off_c, 0, 69, 66
1, 632097, Note_off_c, 0, 70, 63
1, 632110, Note_off_c, 0, 81, 63
1, 632170, Note_on_c, 0, 70, 69
1, 632172, Note_on_c, 0, 76, 72
1, 632176, Note_on_c, 0, 69, 61
1, 632177, Note_on_c, 0, 81, 84
1, 632178, Note_on_c, 0, 77, 67
1, 632191, Control_c, 0, 64, 83
1, 632201, Note_off_c, 0, 70, 61
1, 632204, Note_off_c, 0, 69, 68
1, 632206, Control_c, 0, 64, 76
1, 632209, Note_off_c, 0, 76, 61
1, 632211, Note_off_c, 0, 77, 67
1, 632221, Control_c, 0, 64, 88
1, 632229, Note_off_c, 0, 81, 63
1, 632243, Control_c, 0, 64, 127
1, 632294, Note_on_c, 0, 76, 80
1, 632294, Note_on_c, 0, 69, 66
1, 632296, Note_on_c, 0, 70, 69
1, 632300, Note_on_c, 0, 81, 77
1, 632300, Note_on_c, 0, 77, 70
1, 632319, Note_off_c, 0, 76, 66
1, 632327, Note_off_c, 0, 77, 69
1, 632328, Note_off_c, 0, 69, 65
1, 632330, Note_off_c, 0, 70, 61
1, 632348, Note_off_c, 0, 81, 63
1, 632407, Control_c, 0, 64, 120
1, 632413, Note_on_c, 0, 77, 71
1, 632413, Note_on_c, 0, 86, 84
1, 632422, Control_c, 0, 64, 73
1, 632425, Note_on_c, 0, 79, 72
1, 632426, Note_on_c, 0, 71, 64
1, 632427, Note_on_c, 0, 74, 62
1, 632437, Control_c, 0, 64, 66
1, 632440, Note_on_c, 0, 72, 47
1, 632442, Note_off_c, 0, 77, 66
1, 632442, Note_off_c, 0, 79, 68
1, 632448, Note_off_c, 0, 71, 61
1, 632449, Note_off_c, 0, 74, 62
1, 632452, Control_c, 0, 64, 69
1, 632465, Note_off_c, 0, 72, 50
1, 632467, Control_c, 0, 64, 89
1, 632474, Note_off_c, 0, 86, 61
1, 632482, Control_c, 0, 64, 127
1, 632535, Note_on_c, 0, 72, 73
1, 632538, Note_on_c, 0, 77, 73
1, 632538, Note_on_c, 0, 83, 85
1, 632538, Note_on_c, 0, 71, 60
1, 632539, Note_on_c, 0, 76, 81
1, 632564, Note_off_c, 0, 77, 69
1, 632566, Note_off_c, 0, 76, 67
1, 632566, Note_off_c, 0, 72, 63
1, 632568, Note_off_c, 0, 71, 64
1, 632584, Note_off_c, 0, 83, 66
1, 632646, Note_on_c, 0, 72, 66
1, 632650, Note_on_c, 0, 71, 61
1, 632652, Note_on_c, 0, 83, 90
1, 632658, Note_on_c, 0, 76, 74
1, 632659, Note_on_c, 0, 77, 70
1, 632682, Note_off_c, 0, 72, 62
1, 632683, Note_off_c, 0, 71, 63
1, 632685, Note_off_c, 0, 76, 66
1, 632685, Note_off_c, 0, 77, 68
1, 632699, Note_off_c, 0, 83, 65
1, 632760, Note_on_c, 0, 72, 65
1, 632762, Note_on_c, 0, 83, 90
1, 632764, Note_on_c, 0, 77, 69
1, 632765, Note_on_c, 0, 76, 75
1, 632766, Note_on_c, 0, 71, 62
1, 632789, Note_off_c, 0, 76, 65
1, 632791, Note_off_c, 0, 77, 67
1, 632795, Note_off_c, 0, 72, 58
1, 632797, Note_off_c, 0, 71, 65
1, 632815, Note_off_c, 0, 83, 65
1, 632880, Note_on_c, 0, 77, 69
1, 632881, Note_on_c, 0, 76, 65
1, 632884, Note_on_c, 0, 83, 88
1, 632887, Note_on_c, 0, 72, 76
1, 632898, Note_on_c, 0, 71, 61
1, 632906, Note_off_c, 0, 77, 68
1, 632907, Note_off_c, 0, 76, 66
1, 632926, Control_c, 0, 64, 115
1, 632930, Note_off_c, 0, 83, 66
1, 632934, Note_off_c, 0, 71, 61
1, 632935, Note_off_c, 0, 72, 60
1, 632941, Control_c, 0, 64, 70
1, 632956, Control_c, 0, 64, 57
1, 632969, Control_c, 0, 64, 58
1, 632991, Control_c, 0, 64, 70
1, 633006, Note_on_c, 0, 74, 77
1, 633006, Control_c, 0, 64, 102
1, 633008, Note_on_c, 0, 86, 78
1, 633009, Note_on_c, 0, 72, 59
1, 633009, Note_on_c, 0, 79, 79
1, 633015, Note_on_c, 0, 81, 70
1, 633016, Note_on_c, 0, 67, 71
1, 633019, Note_on_c, 0, 84, 79
1, 633021, Control_c, 0, 64, 127
1, 633033, Note_off_c, 0, 81, 69
1, 633035, Note_off_c, 0, 79, 69
1, 633038, Note_off_c, 0, 84, 61
1, 633040, Note_off_c, 0, 72, 64
1, 633040, Note_off_c, 0, 74, 59
1, 633048, Note_off_c, 0, 86, 67
1, 633069, Note_off_c, 0, 67, 62
1, 633129, Note_on_c, 0, 71, 71
1, 633129, Note_on_c, 0, 77, 77
1, 633130, Note_on_c, 0, 88, 79
1, 633134, Note_on_c, 0, 72, 55
1, 633138, Note_on_c, 0, 83, 66
1, 633144, Note_on_c, 0, 65, 59
1, 633155, Note_off_c, 0, 83, 68
1, 633156, Note_off_c, 0, 77, 68
1, 633159, Note_off_c, 0, 71, 66
1, 633164, Note_off_c, 0, 72, 64
1, 633168, Note_off_c, 0, 65, 61
1, 633170, Note_off_c, 0, 88, 65
1, 633243, Note_on_c, 0, 77, 73
1, 633246, Note_on_c, 0, 83, 73
1, 633247, Note_on_c, 0, 72, 70
1, 633247, Note_on_c, 0, 88, 92
1, 633248, Note_on_c, 0, 71, 64
1, 633254, Note_on_c, 0, 65, 59
1, 633271, Note_off_c, 0, 77, 68
1, 633272, Note_off_c, 0, 83, 68
1, 633273, Note_off_c, 0, 72, 62
1, 633275, Note_off_c, 0, 71, 66
1, 633284, Note_off_c, 0, 65, 65
1, 633284, Note_off_c, 0, 88, 64
1, 633355, Note_on_c, 0, 71, 58
1, 633358, Note_on_c, 0, 83, 65
1, 633358, Note_on_c, 0, 72, 57
1, 633364, Note_on_c, 0, 88, 89
1, 633367, Note_on_c, 0, 77, 77
1, 633379, Note_on_c, 0, 65, 44
1, 633382, Note_off_c, 0, 72, 60
1, 633387, Note_off_c, 0, 71, 62
1, 633388, Note_off_c, 0, 88, 66
1, 633392, Note_off_c, 0, 77, 69
1, 633394, Note_off_c, 0, 83, 66
1, 633409, Note_off_c, 0, 65, 52
1, 633472, Note_on_c, 0, 72, 66
1, 633473, Note_on_c, 0, 88, 89
1, 633474, Note_on_c, 0, 71, 64
1, 633476, Note_on_c, 0, 77, 77
1, 633488, Note_on_c, 0, 83, 69
1, 633489, Note_on_c, 0, 65, 60
1, 633501, Note_off_c, 0, 77, 69
1, 633502, Note_off_c, 0, 71, 66
1, 633503, Note_off_c, 0, 72, 65
1, 633504, Note_off_c, 0, 83, 69
1, 633513, Note_off_c, 0, 65, 64
1, 633525, Control_c, 0, 64, 80
1, 633530, Note_off_c, 0, 88, 66
1, 633540, Control_c, 0, 64, 72
1, 633555, Control_c, 0, 64, 78
1, 633570, Control_c, 0, 64, 127
1, 633589, Note_on_c, 0, 72, 72
1, 633591, Note_on_c, 0, 86, 90
1, 633594, Note_on_c, 0, 79, 75
1, 633598, Note_on_c, 0, 74, 65
1, 633600, Note_on_c, 0, 67, 70
1, 633603, Note_on_c, 0, 81, 67
1, 633617, Note_off_c, 0, 74, 66
1, 633620, Note_off_c, 0, 81, 65
1, 633622, Note_off_c, 0, 79, 68
1, 633624, Note_off_c, 0, 72, 64
1, 633636, Note_off_c, 0, 86, 65
1, 633639, Note_off_c, 0, 67, 62
1, 633707, Note_on_c, 0, 88, 94
1, 633713, Note_on_c, 0, 83, 80
1, 633716, Note_on_c, 0, 72, 68
1, 633717, Note_on_c, 0, 77, 70
1, 633725, Note_on_c, 0, 71, 65
1, 633738, Note_on_c, 0, 87, 50
1, 633740, Note_off_c, 0, 72, 65
1, 633746, Note_off_c, 0, 77, 67
1, 633746, Note_off_c, 0, 83, 69
1, 633754, Note_on_c, 0, 65, 47
1, 633754, Note_off_c, 0, 88, 66
1, 633758, Note_off_c, 0, 71, 67
1, 633763, Note_off_c, 0, 87, 61
1, 633781, Note_off_c, 0, 65, 53
1, 633838, Note_on_c, 0, 83, 63
1, 633839, Note_on_c, 0, 88, 97
1, 633842, Note_on_c, 0, 72, 61
1, 633843, Note_on_c, 0, 77, 76
1, 633845, Note_on_c, 0, 71, 64
1, 633858, Note_on_c, 0, 65, 63
1, 633865, Note_off_c, 0, 77, 67
1, 633867, Note_off_c, 0, 83, 67
1, 633871, Note_off_c, 0, 71, 67
1, 633873, Note_off_c, 0, 72, 64
1, 633876, Note_off_c, 0, 88, 66
1, 633880, Note_off_c, 0, 65, 63
1, 633954, Note_on_c, 0, 72, 76
1, 633954, Note_on_c, 0, 71, 62
1, 633955, Note_on_c, 0, 88, 100
1, 633958, Note_on_c, 0, 77, 75
1, 633960, Note_on_c, 0, 83, 78
1, 633961, Note_on_c, 0, 65, 67
1, 633984, Note_off_c, 0, 83, 67
1, 633988, Note_off_c, 0, 72, 62
1, 633989, Note_off_c, 0, 77, 68
1, 633992, Note_off_c, 0, 65, 62
1, 633992, Note_off_c, 0, 71, 63
1, 633993, Note_off_c, 0, 88, 68
1, 634068, Note_on_c, 0, 83, 56
1, 634070, Note_on_c, 0, 88, 101
1, 634073, Note_on_c, 0, 65, 53
1, 634079, Note_on_c, 0, 72, 76
1, 634084, Note_on_c, 0, 71, 72
1, 634086, Note_on_c, 0, 77, 62
1, 634103, Note_off_c, 0, 83, 68
1, 634104, Note_off_c, 0, 77, 68
1, 634109, Note_off_c, 0, 71, 67
1, 634111, Note_off_c, 0, 72, 64
1, 634112, Note_off_c, 0, 65, 61
1, 634138, Note_off_c, 0, 88, 65
1, 634185, Control_c, 0, 64, 67
1, 634200, Control_c, 0, 64, 28
1, 634215, Note_on_c, 0, 70, 99
1, 634215, Control_c, 0, 64, 0
1, 634245, Control_c, 0, 64, 25
1, 634259, Control_c, 0, 64, 58
1, 634274, Control_c, 0, 64, 81
1, 634276, Note_on_c, 0, 94, 37
1, 634289, Control_c, 0, 64, 127
1, 634303, Note_off_c, 0, 94, 53
1, 634346, Note_on_c, 0, 72, 71
1, 634353, Note_off_c, 0, 70, 32
1, 634385, Note_off_c, 0, 72, 62
1, 634417, Note_on_c, 0, 94, 100
1, 634425, Note_on_c, 0, 74, 62
1, 634454, Note_off_c, 0, 74, 66
1, 634461, Note_off_c, 0, 94, 64
1, 634508, Note_on_c, 0, 75, 58
1, 634524, Note_on_c, 0, 84, 49
1, 634547, Note_off_c, 0, 75, 65
1, 634553, Note_off_c, 0, 84, 60
1, 634567, Note_on_c, 0, 77, 57
1, 634567, Note_on_c, 0, 82, 66
1, 634587, Note_off_c, 0, 77, 65
1, 634594, Note_off_c, 0, 82, 67
1, 634629, Note_on_c, 0, 84, 75
1, 634643, Note_on_c, 0, 79, 53
1, 634655, Note_off_c, 0, 84, 69
1, 634666, Note_off_c, 0, 79, 60
1, 634680, Note_on_c, 0, 77, 59
1, 634705, Note_on_c, 0, 96, 95
1, 634733, Note_off_c, 0, 77, 63
1, 634742, Note_off_c, 0, 96, 66
1, 634744, Note_on_c, 0, 75, 69
1, 634760, Note_on_c, 0, 84, 53
1, 634771, Note_off_c, 0, 75, 68
1, 634826, Note_on_c, 0, 74, 43
1, 634831, Note_off_c, 0, 84, 57
1, 634837, Note_on_c, 0, 82, 73
1, 634857, Note_off_c, 0, 74, 54
1, 634863, Note_off_c, 0, 82, 68
1, 634897, Note_on_c, 0, 72, 54
1, 634924, Note_off_c, 0, 72, 60
1, 634971, Note_on_c, 0, 99, 98
1, 634986, Note_on_c, 0, 70, 48
1, 634988, Note_off_c, 0, 99, 74
1, 634995, Note_on_c, 0, 71, 57
1, 635015, Note_off_c, 0, 71, 63
1, 635020, Note_off_c, 0, 70, 52
1, 635051, Note_on_c, 0, 72, 43
1, 635054, Note_on_c, 0, 84, 64
1, 635071, Note_on_c, 0, 74, 30
1, 635075, Note_off_c, 0, 72, 53
1, 635114, Note_on_c, 0, 82, 67
1, 635114, Note_off_c, 0, 84, 64
1, 635136, Note_off_c, 0, 82, 66
1, 635153, Note_on_c, 0, 75, 67
1, 635167, Note_off_c, 0, 74, 41
1, 635203, Note_off_c, 0, 75, 55
1, 635235, Note_on_c, 0, 77, 60
1, 635243, Note_on_c, 0, 98, 96
1, 635254, Note_off_c, 0, 77, 66
1, 635274, Poly_aftertouch_c, 0, 84, 0
1, 635287, Note_off_c, 0, 98, 65
1, 635296, Note_on_c, 0, 79, 54
1, 635308, Note_on_c, 0, 84, 74
1, 635317, Note_off_c, 0, 79, 62
1, 635338, Note_on_c, 0, 77, 64
1, 635355, Note_off_c, 0, 84, 62
1, 635372, Note_off_c, 0, 77, 56
1, 635383, Note_on_c, 0, 82, 71
1, 635407, Note_on_c, 0, 75, 64
1, 635409, Note_off_c, 0, 82, 67
1, 635437, Note_off_c, 0, 75, 68
1, 635463, Note_on_c, 0, 84, 52
1, 635480, Note_on_c, 0, 74, 60
1, 635487, Note_off_c, 0, 84, 60
1, 635496, Note_on_c, 0, 96, 93
1, 635514, Note_off_c, 0, 74, 62
1, 635528, Note_on_c, 0, 95, 45
1, 635529, Note_off_c, 0, 95, 127
1, 635532, Note_off_c, 0, 96, 66
1, 635554, Note_on_c, 0, 84, 78
1, 635556, Note_on_c, 0, 72, 65
1, 635594, Note_off_c, 0, 72, 61
1, 635615, Note_on_c, 0, 82, 81
1, 635618, Note_off_c, 0, 84, 65
1, 635629, Note_on_c, 0, 70, 65
1, 635638, Note_off_c, 0, 82, 69
1, 635666, Note_off_c, 0, 70, 61
1, 635688, Note_on_c, 0, 72, 54
1, 635692, Note_on_c, 0, 84, 75
1, 635708, Note_off_c, 0, 72, 57
1, 635722, Note_on_c, 0, 74, 61
1, 635728, Note_off_c, 0, 84, 65
1, 635730, Note_on_c, 0, 86, 36
1, 635749, Note_on_c, 0, 94, 99
1, 635750, Note_off_c, 0, 74, 65
1, 635760, Note_off_c, 0, 86, 55
1, 635787, Note_on_c, 0, 75, 68
1, 635802, Note_off_c, 0, 94, 64
1, 635825, Note_off_c, 0, 75, 60
1, 635837, Note_on_c, 0, 84, 59
1, 635852, Note_on_c, 0, 83, 53
1, 635856, Note_off_c, 0, 84, 66
1, 635861, Note_on_c, 0, 77, 51
1, 635873, Note_on_c, 0, 96, 95
1, 635874, Note_off_c, 0, 83, 62
1, 635884, Note_off_c, 0, 77, 61
1, 635918, Note_off_c, 0, 96, 67
1, 635919, Note_on_c, 0, 79, 58
1, 635939, Note_off_c, 0, 79, 62
1, 635975, Note_on_c, 0, 77, 57
1, 635997, Note_on_c, 0, 91, 94
1, 636009, Note_off_c, 0, 77, 52
1, 636038, Note_on_c, 0, 75, 61
1, 636059, Note_off_c, 0, 75, 65
1, 636059, Note_off_c, 0, 91, 63
1, 636063, Note_on_c, 0, 84, 83
1, 636089, Note_on_c, 0, 74, 62
1, 636110, Note_off_c, 0, 84, 66
1, 636127, Note_off_c, 0, 74, 60
1, 636143, Note_on_c, 0, 82, 79
1, 636168, Note_off_c, 0, 82, 68
1, 636169, Note_on_c, 0, 72, 51
1, 636199, Note_off_c, 0, 72, 60
1, 636208, Note_on_c, 0, 84, 74
1, 636226, Note_off_c, 0, 84, 67
1, 636233, Note_on_c, 0, 70, 75
1, 636235, Note_on_c, 0, 86, 43
1, 636261, Note_off_c, 0, 86, 58
1, 636263, Note_on_c, 0, 94, 101
1, 636290, Note_off_c, 0, 70, 63
1, 636294, Note_off_c, 0, 94, 60
1, 636312, Note_on_c, 0, 72, 50
1, 636321, Note_on_c, 0, 84, 77
1, 636330, Note_on_c, 0, 74, 69
1, 636338, Note_off_c, 0, 72, 50
1, 636366, Note_off_c, 0, 74, 63
1, 636378, Note_off_c, 0, 84, 64
1, 636380, Note_on_c, 0, 82, 78
1, 636399, Note_on_c, 0, 75, 75
1, 636420, Note_off_c, 0, 82, 63
1, 636448, Note_on_c, 0, 84, 83
1, 636449, Note_off_c, 0, 75, 64
1, 636470, Note_on_c, 0, 77, 47
1, 636475, Note_off_c, 0, 84, 66
1, 636493, Note_off_c, 0, 77, 60
1, 636514, Note_on_c, 0, 98, 93
1, 636521, Note_on_c, 0, 79, 73
1, 636548, Note_off_c, 0, 79, 68
1, 636555, Note_off_c, 0, 98, 63
1, 636570, Note_on_c, 0, 77, 68
1, 636574, Note_on_c, 0, 84, 83
1, 636608, Note_off_c, 0, 84, 66
1, 636624, Note_off_c, 0, 77, 62
1, 636632, Note_on_c, 0, 96, 87
1, 636637, Note_on_c, 0, 75, 74
1, 636667, Note_off_c, 0, 75, 65
1, 636674, Note_off_c, 0, 96, 66
1, 636697, Note_on_c, 0, 82, 87
1, 636710, Note_on_c, 0, 74, 66
1, 636746, Note_off_c, 0, 74, 64
1, 636752, Note_off_c, 0, 82, 64
1, 636764, Note_on_c, 0, 94, 90
1, 636785, Note_on_c, 0, 72, 74
1, 636808, Note_off_c, 0, 94, 61
1, 636817, Note_off_c, 0, 72, 60
1, 636830, Note_on_c, 0, 84, 85
1, 636858, Note_on_c, 0, 70, 77
1, 636869, Note_off_c, 0, 84, 67
1, 636890, Note_on_c, 0, 91, 86
1, 636914, Note_on_c, 0, 72, 73
1, 636915, Note_off_c, 0, 70, 64
1, 636929, Note_off_c, 0, 91, 65
1, 636939, Note_off_c, 0, 72, 66
1, 636951, Note_on_c, 0, 82, 94
1, 636960, Note_on_c, 0, 74, 63
1, 636987, Note_off_c, 0, 74, 66
1, 637002, Note_off_c, 0, 82, 64
1, 637016, Note_on_c, 0, 75, 78
1, 637020, Note_on_c, 0, 94, 100
1, 637078, Note_off_c, 0, 94, 64
1, 637080, Note_off_c, 0, 75, 65
1, 637082, Note_on_c, 0, 77, 76
1, 637098, Note_on_c, 0, 84, 89
1, 637108, Note_off_c, 0, 77, 68
1, 637144, Note_on_c, 0, 79, 75
1, 637144, Note_off_c, 0, 84, 68
1, 637159, Note_on_c, 0, 96, 91
1, 637165, Note_off_c, 0, 79, 69
1, 637183, Note_on_c, 0, 77, 65
1, 637210, Note_off_c, 0, 96, 66
1, 637216, Note_on_c, 0, 82, 93
1, 637262, Note_on_c, 0, 75, 86
1, 637262, Note_off_c, 0, 77, 63
1, 637274, Note_off_c, 0, 82, 65
1, 637290, Note_on_c, 0, 91, 81
1, 637291, Note_off_c, 0, 75, 63
1, 637308, Note_on_c, 0, 92, 47
1, 637325, Note_on_c, 0, 74, 71
1, 637329, Note_off_c, 0, 91, 67
1, 637335, Note_off_c, 0, 92, 54
1, 637352, Note_on_c, 0, 84, 99
1, 637367, Note_off_c, 0, 74, 52
1, 637385, Note_off_c, 0, 84, 68
1, 637391, Note_on_c, 0, 72, 80
1, 637413, Note_on_c, 0, 94, 100
1, 637457, Note_off_c, 0, 94, 64
1, 637460, Note_off_c, 0, 72, 60
1, 637462, Note_on_c, 0, 70, 84
1, 637466, Note_on_c, 0, 82, 90
1, 637514, Note_off_c, 0, 82, 66
1, 637532, Note_on_c, 0, 72, 75
1, 637537, Note_off_c, 0, 70, 63
1, 637550, Note_on_c, 0, 98, 106
1, 637568, Note_off_c, 0, 72, 63
1, 637591, Note_on_c, 0, 74, 76
1, 637600, Note_off_c, 0, 98, 65
1, 637615, Note_on_c, 0, 84, 88
1, 637635, Note_off_c, 0, 74, 66
1, 637654, Note_on_c, 0, 75, 81
1, 637663, Note_off_c, 0, 84, 67
1, 637683, Note_on_c, 0, 96, 97
1, 637716, Note_on_c, 0, 77, 82
1, 637723, Note_off_c, 0, 75, 65
1, 637750, Note_on_c, 0, 82, 94
1, 637754, Note_off_c, 0, 77, 64
1, 637761, Note_off_c, 0, 96, 66
1, 637778, Note_on_c, 0, 79, 78
1, 637803, Note_off_c, 0, 82, 65
1, 637815, Note_off_c, 0, 79, 58
1, 637825, Note_on_c, 0, 94, 98
1, 637836, Note_on_c, 0, 77, 76
1, 637889, Note_on_c, 0, 84, 75
1, 637892, Note_off_c, 0, 94, 65
1, 637901, Note_on_c, 0, 75, 87
1, 637908, Note_off_c, 0, 77, 64
1, 637911, Note_on_c, 0, 93, 48
1, 637937, Note_off_c, 0, 93, 39
1, 637954, Note_off_c, 0, 75, 65
1, 637967, Note_on_c, 0, 91, 98
1, 637975, Note_on_c, 0, 74, 86
1, 637987, Note_off_c, 0, 84, 66
1, 637993, Note_off_c, 0, 91, 66
1, 638032, Note_off_c, 0, 74, 65
1, 638078, Note_on_c, 0, 72, 82
1, 638083, Note_on_c, 0, 75, 105
1, 638119, Note_off_c, 0, 72, 65
1, 638241, Note_on_c, 0, 51, 87
1, 638245, Note_on_c, 0, 44, 93
1, 638265, Note_on_c, 0, 52, 63
1, 638274, Note_off_c, 0, 44, 62
1, 638281, Note_off_c, 0, 51, 58
1, 638288, Note_off_c, 0, 52, 62
1, 638289, Note_on_c, 0, 53, 39
1, 638321, Note_off_c, 0, 53, 47
1, 638326, Note_off_c, 0, 75, 63
1, 638394, Note_on_c, 0, 82, 108
1, 638396, Note_on_c, 0, 51, 79
1, 638402, Note_on_c, 0, 44, 81
1, 638427, Note_on_c, 0, 74, 61
1, 638438, Note_off_c, 0, 44, 61
1, 638445, Note_off_c, 0, 74, 66
1, 638447, Note_off_c, 0, 51, 60
1, 638545, Note_on_c, 0, 51, 84
1, 638551, Note_on_c, 0, 44, 75
1, 638650, Note_off_c, 0, 82, 63
1, 638672, Note_off_c, 0, 51, 31
1, 638687, Note_on_c, 0, 84, 110
1, 638698, Note_on_c, 0, 72, 93
1, 638719, Note_off_c, 0, 72, 67
1, 638762, Note_off_c, 0, 44, 23
1, 638792, Note_off_c, 0, 84, 63
1, 638838, Note_on_c, 0, 51, 65
1, 638838, Note_on_c, 0, 58, 94
1, 638848, Note_on_c, 0, 44, 74
1, 638914, Poly_aftertouch_c, 0, 82, 127
1, 638932, Note_off_c, 0, 58, 63
1, 638941, Note_off_c, 0, 51, 63
1, 638950, Note_off_c, 0, 44, 56
1, 638968, Note_on_c, 0, 82, 43
1, 638980, Note_on_c, 0, 87, 102
1, 638981, Note_on_c, 0, 75, 84
1, 638992, Poly_aftertouch_c, 0, 51, 0
1, 638994, Note_on_c, 0, 58, 79
1, 639001, Note_on_c, 0, 51, 60
1, 639013, Note_on_c, 0, 44, 38
1, 639019, Note_off_c, 0, 82, 65
1, 639064, Note_off_c, 0, 44, 58
1, 639064, Note_off_c, 0, 58, 65
1, 639090, Note_off_c, 0, 51, 63
1, 639137, Note_on_c, 0, 84, 88
1, 639147, Note_on_c, 0, 58, 98
1, 639156, Note_on_c, 0, 51, 72
1, 639157, Note_on_c, 0, 44, 77
1, 639174, Note_off_c, 0, 75, 65
1, 639176, Note_off_c, 0, 87, 63
1, 639200, Note_off_c, 0, 44, 61
1, 639201, Note_off_c, 0, 58, 65
1, 639242, Note_off_c, 0, 51, 60
1, 639261, Note_off_c, 0, 84, 63
1, 639278, Note_on_c, 0, 79, 46
1, 639288, Note_on_c, 0, 86, 108
1, 639299, Note_on_c, 0, 74, 88
1, 639406, Note_off_c, 0, 74, 64
1, 639440, Note_on_c, 0, 58, 99
1, 639447, Note_on_c, 0, 44, 57
1, 639457, Note_on_c, 0, 51, 75
1, 639482, Note_off_c, 0, 86, 55
1, 639496, Note_off_c, 0, 58, 65
1, 639517, Note_off_c, 0, 51, 59
1, 639522, Note_off_c, 0, 44, 61
1, 639562, Poly_aftertouch_c, 0, 84, 0
1, 639579, Note_on_c, 0, 84, 93
1, 639590, Note_on_c, 0, 70, 90
1, 639591, Note_off_c, 0, 79, 0
1, 639591, Note_on_c, 0, 79, 17
1, 639616, Note_off_c, 0, 79, 56
1, 639623, Note_off_c, 0, 70, 61
1, 639694, Control_c, 0, 64, 118
1, 639708, Control_c, 0, 64, 75
1, 639723, Control_c, 0, 64, 69
1, 639735, Note_on_c, 0, 58, 83
1, 639743, Note_on_c, 0, 51, 76
1, 639744, Note_on_c, 0, 44, 75
1, 639746, Control_c, 0, 64, 81
1, 639760, Control_c, 0, 64, 127
1, 639773, Note_off_c, 0, 58, 66
1, 639775, Note_off_c, 0, 44, 64
1, 639794, Note_off_c, 0, 51, 60
1, 639899, Note_on_c, 0, 82, 99
1, 639911, Note_on_c, 0, 74, 82
1, 639928, Note_off_c, 0, 84, 65
1, 639950, Note_off_c, 0, 74, 63
1, 639996, Note_off_c, 0, 82, 63
1, 640039, Note_on_c, 0, 58, 79
1, 640042, Note_on_c, 0, 51, 49
1, 640044, Note_on_c, 0, 84, 99
1, 640055, Note_on_c, 0, 72, 78
1, 640056, Note_on_c, 0, 44, 71
1, 640074, Note_off_c, 0, 51, 65
1, 640074, Note_off_c, 0, 58, 62
1, 640078, Note_off_c, 0, 72, 67
1, 640080, Note_off_c, 0, 84, 64
1, 640086, Note_off_c, 0, 44, 64
1, 640188, Note_on_c, 0, 79, 111
1, 640193, Note_on_c, 0, 58, 83
1, 640197, Note_on_c, 0, 44, 62
1, 640201, Note_on_c, 0, 51, 70
1, 640208, Note_on_c, 0, 70, 72
1, 640218, Note_off_c, 0, 58, 66
1, 640226, Note_off_c, 0, 51, 68
1, 640232, Note_off_c, 0, 70, 67
1, 640243, Note_off_c, 0, 44, 63
1, 640338, Note_on_c, 0, 67, 91
1, 640342, Note_on_c, 0, 58, 89
1, 640345, Note_on_c, 0, 51, 69
1, 640351, Note_on_c, 0, 44, 78
1, 640368, Note_off_c, 0, 51, 67
1, 640368, Note_off_c, 0, 58, 65
1, 640373, Note_off_c, 0, 44, 67
1, 640375, Note_off_c, 0, 67, 63
1, 640390, Note_off_c, 0, 79, 64
1, 640490, Note_on_c, 0, 82, 104
1, 640501, Poly_aftertouch_c, 0, 51, 0
1, 640503, Note_on_c, 0, 70, 78
1, 640527, Note_off_c, 0, 70, 68
1, 640557, Poly_aftertouch_c, 0, 51, 0
1, 640633, Note_on_c, 0, 72, 87
1, 640643, Note_on_c, 0, 58, 83
1, 640652, Note_on_c, 0, 51, 74
1, 640653, Note_on_c, 0, 44, 75
1, 640676, Note_off_c, 0, 58, 67
1, 640678, Note_off_c, 0, 72, 62
1, 640679, Note_off_c, 0, 51, 66
1, 640684, Note_off_c, 0, 82, 65
1, 640688, Note_off_c, 0, 44, 61
1, 640775, Note_on_c, 0, 51, 42
1, 640777, Note_on_c, 0, 86, 101
1, 640787, Note_on_c, 0, 58, 73
1, 640787, Note_on_c, 0, 79, 84
1, 640795, Note_on_c, 0, 44, 64
1, 640796, Note_on_c, 0, 84, 61
1, 640807, Note_off_c, 0, 79, 70
1, 640813, Note_off_c, 0, 51, 62
1, 640818, Note_off_c, 0, 58, 66
1, 640818, Note_off_c, 0, 84, 43
1, 640820, Note_off_c, 0, 86, 68
1, 640833, Note_off_c, 0, 44, 62
1, 640882, Note_on_c, 0, 79, 21
1, 640889, Note_off_c, 0, 79, 47
1, 640921, Note_on_c, 0, 58, 83
1, 640922, Note_on_c, 0, 84, 94
1, 640926, Note_on_c, 0, 51, 78
1, 640929, Note_on_c, 0, 44, 77
1, 640935, Note_on_c, 0, 72, 92
1, 640941, Note_off_c, 0, 58, 72
1, 640947, Note_off_c, 0, 51, 69
1, 640950, Note_on_c, 0, 83, 41
1, 640951, Note_off_c, 0, 83, 127
1, 640953, Note_off_c, 0, 44, 65
1, 640955, Note_off_c, 0, 72, 70
1, 640972, Note_off_c, 0, 84, 67
1, 641064, Note_on_c, 0, 82, 95
1, 641068, Note_on_c, 0, 70, 91
1, 641099, Poly_aftertouch_c, 0, 51, 0
1, 641110, Note_off_c, 0, 70, 62
1, 641128, Note_off_c, 0, 82, 62
1, 641210, Note_on_c, 0, 79, 96
1, 641219, Note_on_c, 0, 72, 79
1, 641219, Note_on_c, 0, 58, 86
1, 641234, Note_on_c, 0, 51, 72
1, 641239, Note_on_c, 0, 44, 72
1, 641251, Note_off_c, 0, 72, 67
1, 641253, Note_off_c, 0, 58, 68
1, 641257, Note_off_c, 0, 51, 66
1, 641257, Note_off_c, 0, 79, 67
1, 641266, Note_off_c, 0, 44, 65
1, 641359, Note_on_c, 0, 82, 105
1, 641362, Note_on_c, 0, 70, 91
1, 641365, Note_on_c, 0, 58, 73
1, 641368, Note_on_c, 0, 44, 54
1, 641370, Note_on_c, 0, 51, 63
1, 641387, Note_off_c, 0, 70, 67
1, 641395, Note_off_c, 0, 58, 67
1, 641397, Note_off_c, 0, 51, 66
1, 641404, Note_off_c, 0, 82, 66
1, 641404, Note_off_c, 0, 44, 64
1, 641504, Note_on_c, 0, 84, 98
1, 641505, Note_on_c, 0, 58, 69
1, 641510, Note_on_c, 0, 51, 73
1, 641511, Note_on_c, 0, 72, 92
1, 641512, Note_on_c, 0, 44, 80
1, 641512, Note_on_c, 0, 79, 86
1, 641530, Note_off_c, 0, 51, 69
1, 641532, Note_off_c, 0, 72, 68
1, 641533, Note_off_c, 0, 58, 67
1, 641536, Note_off_c, 0, 79, 70
1, 641538, Note_off_c, 0, 44, 65
1, 641554, Note_off_c, 0, 84, 67
1, 641643, Note_on_c, 0, 84, 96
1, 641647, Note_on_c, 0, 79, 89
1, 641649, Poly_aftertouch_c, 0, 51, 0
1, 641684, Note_off_c, 0, 84, 66
1, 641696, Note_off_c, 0, 79, 66
1, 641700, Poly_aftertouch_c, 0, 51, 0
1, 641724, Poly_aftertouch_c, 0, 58, 127
1, 641753, Poly_aftertouch_c, 0, 58, 0
1, 641779, Note_on_c, 0, 82, 97
1, 641783, Note_on_c, 0, 78, 73
1, 641793, Note_on_c, 0, 58, 92
1, 641800, Note_on_c, 0, 51, 82
1, 641807, Note_off_c, 0, 78, 65
1, 641809, Note_on_c, 0, 44, 80
1, 641821, Note_off_c, 0, 51, 68
1, 641825, Note_off_c, 0, 58, 66
1, 641833, Note_off_c, 0, 44, 67
1, 641833, Note_off_c, 0, 82, 67
1, 641927, Note_on_c, 0, 86, 113
1, 641938, Note_on_c, 0, 58, 94
1, 641940, Note_on_c, 0, 51, 35
1, 641940, Note_on_c, 0, 77, 86
1, 641941, Note_on_c, 0, 44, 63
1, 641962, Note_off_c, 0, 77, 73
1, 641966, Note_off_c, 0, 51, 66
1, 641968, Note_off_c, 0, 86, 64
1, 641976, Note_off_c, 0, 58, 64
1, 641991, Note_off_c, 0, 44, 64
1, 642084, Note_on_c, 0, 84, 99
1, 642092, Note_on_c, 0, 58, 101
1, 642095, Note_on_c, 0, 51, 78
1, 642100, Note_on_c, 0, 44, 82
1, 642102, Note_on_c, 0, 83, 56
1, 642103, Note_off_c, 0, 83, 127
1, 642108, Note_on_c, 0, 78, 51
1, 642109, Note_off_c, 0, 78, 127
1, 642113, Note_on_c, 0, 77, 71
1, 642114, Note_off_c, 0, 58, 71
1, 642116, Note_off_c, 0, 51, 69
1, 642126, Note_off_c, 0, 44, 66
1, 642131, Note_off_c, 0, 84, 67
1, 642146, Note_off_c, 0, 77, 66
1, 642223, Note_on_c, 0, 82, 98
1, 642268, Note_off_c, 0, 82, 62
1, 642282, Note_on_c, 0, 83, 10
1, 642331, Note_off_c, 0, 83, 36
1, 642334, Control_c, 0, 64, 73
1, 642348, Control_c, 0, 64, 44
1, 642363, Control_c, 0, 64, 0
1, 642387, Note_on_c, 0, 58, 92
1, 642387, Note_on_c, 0, 89, 89
1, 642389, Note_on_c, 0, 79, 100
1, 642390, Note_on_c, 0, 87, 102
1, 642392, Note_on_c, 0, 51, 83
1, 642393, Control_c, 0, 64, 42
1, 642394, Note_on_c, 0, 82, 82
1, 642397, Note_on_c, 0, 44, 78
1, 642405, Note_off_c, 0, 79, 74
1, 642405, Note_off_c, 0, 89, 72
1, 642407, Control_c, 0, 64, 73
1, 642408, Note_off_c, 0, 82, 69
1, 642422, Control_c, 0, 64, 127
1, 642423, Note_off_c, 0, 58, 64
1, 642426, Note_off_c, 0, 51, 65
1, 642431, Note_off_c, 0, 87, 67
1, 642433, Note_off_c, 0, 44, 65
1, 642476, Note_on_c, 0, 79, 29
1, 642515, Note_off_c, 0, 79, 40
1, 642660, Control_c, 0, 64, 68
1, 642675, Control_c, 0, 64, 25
1, 642688, Note_on_c, 0, 87, 92
1, 642690, Control_c, 0, 64, 0
1, 642694, Note_on_c, 0, 58, 89
1, 642694, Note_on_c, 0, 73, 93
1, 642695, Note_on_c, 0, 44, 71
1, 642696, Note_on_c, 0, 80, 94
1, 642699, Note_on_c, 0, 51, 68
1, 642700, Note_on_c, 0, 85, 98
1, 642704, Control_c, 0, 64, 20
1, 642727, Control_c, 0, 64, 60
1, 642738, Note_off_c, 0, 51, 67
1, 642742, Control_c, 0, 64, 98
1, 642742, Note_off_c, 0, 87, 68
1, 642744, Note_off_c, 0, 58, 64
1, 642745, Note_off_c, 0, 73, 65
1, 642757, Control_c, 0, 64, 127
1, 642764, Note_off_c, 0, 80, 61
1, 642766, Note_off_c, 0, 85, 67
1, 642772, Note_off_c, 0, 44, 61
1, 642888, Note_on_c, 0, 44, 78
1, 642930, Note_on_c, 0, 55, 41
1, 642945, Note_off_c, 0, 44, 63
1, 642980, Note_on_c, 0, 60, 78
1, 642993, Note_off_c, 0, 55, 0
1, 642993, Control_c, 0, 64, 100
1, 643003, Note_on_c, 0, 82, 79
1, 643004, Note_on_c, 0, 68, 88
1, 643005, Note_on_c, 0, 75, 90
1, 643007, Note_on_c, 0, 80, 89
1, 643007, Note_off_c, 0, 60, 64
1, 643008, Control_c, 0, 64, 88
1, 643022, Control_c, 0, 64, 96
1, 643028, Note_off_c, 0, 68, 65
1, 643030, Poly_aftertouch_c, 0, 55, 127
1, 643037, Control_c, 0, 64, 127
1, 643043, Note_off_c, 0, 75, 61
1, 643048, Note_off_c, 0, 82, 61
1, 643059, Note_off_c, 0, 80, 61
1, 643073, Poly_aftertouch_c, 0, 55, 0
1, 643098, Note_on_c, 0, 44, 78
1, 643127, Note_off_c, 0, 44, 66
1, 643146, Note_on_c, 0, 68, 89
1, 643150, Note_on_c, 0, 75, 78
1, 643151, Note_on_c, 0, 82, 81
1, 643153, Note_on_c, 0, 55, 23
1, 643156, Note_on_c, 0, 80, 78
1, 643170, Poly_aftertouch_c, 0, 60, 0
1, 643181, Note_on_c, 0, 60, 35
1, 643183, Note_off_c, 0, 82, 62
1, 643183, Note_off_c, 0, 75, 58
1, 643189, Note_on_c, 0, 59, 42
1, 643190, Note_off_c, 0, 59, 127
1, 643190, Note_off_c, 0, 68, 62
1, 643206, Note_off_c, 0, 60, 57
1, 643213, Note_off_c, 0, 80, 62
1, 643221, Poly_aftertouch_c, 0, 59, 0
1, 643230, Control_c, 0, 64, 68
1, 643231, Note_off_c, 0, 55, 35
1, 643245, Control_c, 0, 64, 34
1, 643260, Control_c, 0, 64, 0
1, 643292, Note_on_c, 0, 44, 64
1, 643301, Note_on_c, 0, 68, 105
1, 643305, Note_on_c, 0, 80, 91
1, 643311, Note_on_c, 0, 55, 70
1, 643313, Note_on_c, 0, 75, 68
1, 643317, Note_on_c, 0, 60, 79
1, 643317, Note_off_c, 0, 44, 59
1, 643319, Control_c, 0, 64, 33
1, 643332, Note_off_c, 0, 75, 46
1, 643334, Control_c, 0, 64, 66
1, 643336, Note_off_c, 0, 80, 63
1, 643344, Note_off_c, 0, 68, 64
1, 643348, Note_off_c, 0, 55, 65
1, 643348, Control_c, 0, 64, 122
1, 643352, Note_on_c, 0, 74, 28
1, 643363, Control_c, 0, 64, 127
1, 643374, Note_off_c, 0, 60, 61
1, 643388, Note_off_c, 0, 74, 51
1, 643398, Poly_aftertouch_c, 0, 46, 0
1, 643490, Control_c, 0, 64, 94
1, 643502, Note_on_c, 0, 58, 30
1, 643505, Control_c, 0, 64, 65
1, 643520, Control_c, 0, 64, 38
1, 643527, Note_off_c, 0, 58, 48
1, 643534, Control_c, 0, 64, 0
1, 643650, Note_on_c, 0, 70, 97
1, 643657, Note_on_c, 0, 58, 55
1, 643667, Control_c, 0, 64, 44
1, 643678, Note_on_c, 0, 44, 47
1, 643680, Note_on_c, 0, 51, 46
1, 643682, Control_c, 0, 64, 69
1, 643697, Control_c, 0, 64, 88
1, 643699, Note_off_c, 0, 58, 64
1, 643707, Note_off_c, 0, 51, 62
1, 643712, Control_c, 0, 64, 127
1, 643719, Note_off_c, 0, 44, 58
1, 643827, Note_on_c, 0, 58, 56
1, 643828, Note_on_c, 0, 51, 36
1, 643836, Note_on_c, 0, 44, 44
1, 643871, Note_off_c, 0, 58, 62
1, 643876, Note_off_c, 0, 51, 58
1, 643890, Note_off_c, 0, 44, 50
1, 643917, Note_off_c, 0, 70, 56
1, 643993, Control_c, 0, 64, 83
1, 644008, Control_c, 0, 64, 60
1, 644023, Control_c, 0, 64, 36
1, 644027, Note_on_c, 0, 58, 74
1, 644027, Note_on_c, 0, 70, 100
1, 644029, Note_on_c, 0, 44, 64
1, 644036, Note_on_c, 0, 51, 62
1, 644038, Control_c, 0, 64, 45
1, 644052, Control_c, 0, 64, 67
1, 644054, Note_off_c, 0, 58, 67
1, 644065, Note_off_c, 0, 51, 66
1, 644067, Control_c, 0, 64, 127
1, 644068, Note_off_c, 0, 44, 64
1, 644366, Note_on_c, 0, 75, 97
1, 644372, Control_c, 0, 64, 87
1, 644380, Note_on_c, 0, 58, 62
1, 644381, Note_on_c, 0, 44, 52
1, 644385, Note_on_c, 0, 51, 56
1, 644387, Note_off_c, 0, 70, 64
1, 644387, Control_c, 0, 64, 76
1, 644401, Control_c, 0, 64, 78
1, 644405, Note_off_c, 0, 58, 60
1, 644416, Control_c, 0, 64, 106
1, 644417, Note_off_c, 0, 51, 49
1, 644420, Note_off_c, 0, 44, 49
1, 644431, Control_c, 0, 64, 127
1, 644534, Note_on_c, 0, 44, 56
1, 644539, Note_on_c, 0, 58, 46
1, 644546, Note_on_c, 0, 51, 47
1, 644584, Note_off_c, 0, 58, 63
1, 644612, Note_off_c, 0, 51, 55
1, 644623, Note_off_c, 0, 44, 55
1, 644653, Control_c, 0, 64, 75
1, 644668, Control_c, 0, 64, 43
1, 644668, Note_off_c, 0, 75, 64
1, 644679, Note_on_c, 0, 73, 99
1, 644683, Control_c, 0, 64, 0
1, 644683, Note_on_c, 0, 58, 77
1, 644697, Control_c, 0, 64, 48
1, 644712, Control_c, 0, 64, 78
1, 644727, Control_c, 0, 64, 127
1, 644736, Note_off_c, 0, 58, 60
1, 644773, Note_off_c, 0, 73, 55
1, 644799, Note_on_c, 0, 44, 69
1, 644817, Note_on_c, 0, 51, 65
1, 644859, Note_off_c, 0, 44, 57
1, 644878, Note_off_c, 0, 51, 63
1, 644900, Note_on_c, 0, 60, 52
1, 644925, Note_off_c, 0, 60, 59
1, 644985, Note_on_c, 0, 87, 42
1, 644990, Note_on_c, 0, 75, 84
1, 644996, Note_on_c, 0, 72, 93
1, 645012, Note_off_c, 0, 75, 70
1, 645012, Note_off_c, 0, 87, 57
1, 645019, Note_off_c, 0, 72, 67
1, 645033, Poly_aftertouch_c, 0, 82, 0
1, 645156, Note_on_c, 0, 70, 73
1, 645162, Note_on_c, 0, 44, 62
1, 645163, Note_on_c, 0, 68, 62
1, 645181, Note_off_c, 0, 68, 67
1, 645183, Note_off_c, 0, 70, 66
1, 645191, Note_on_c, 0, 53, 64
1, 645210, Note_off_c, 0, 44, 61
1, 645228, Note_off_c, 0, 53, 63
1, 645269, Control_c, 0, 64, 77
1, 645283, Poly_aftertouch_c, 0, 46, 0
1, 645284, Control_c, 0, 64, 15
1, 645298, Control_c, 0, 64, 0
1, 645300, Note_on_c, 0, 68, 95
1, 645308, Note_on_c, 0, 73, 89
1, 645328, Control_c, 0, 64, 52
1, 645332, Note_off_c, 0, 73, 66
1, 645339, Note_off_c, 0, 68, 67
1, 645343, Control_c, 0, 64, 84
1, 645358, Control_c, 0, 64, 127
1, 645450, Note_on_c, 0, 54, 65
1, 645478, Note_off_c, 0, 54, 65
1, 645547, Note_on_c, 0, 44, 65
1, 645561, Note_on_c, 0, 55, 58
1, 645595, Control_c, 0, 64, 65
1, 645610, Control_c, 0, 64, 24
1, 645616, Note_on_c, 0, 72, 96
1, 645624, Control_c, 0, 64, 0
1, 645624, Note_on_c, 0, 60, 82
1, 645625, Note_off_c, 0, 55, 62
1, 645627, Note_on_c, 0, 68, 76
1, 645631, Note_on_c, 0, 75, 90
1, 645638, Note_on_c, 0, 80, 78
1, 645648, Note_off_c, 0, 44, 53
1, 645651, Note_off_c, 0, 68, 69
1, 645654, Control_c, 0, 64, 48
1, 645654, Poly_aftertouch_c, 0, 54, 0
1, 645656, Note_off_c, 0, 60, 64
1, 645660, Note_off_c, 0, 72, 65
1, 645664, Note_off_c, 0, 80, 68
1, 645669, Note_on_c, 0, 59, 29
1, 645669, Control_c, 0, 64, 71
1, 645674, Note_off_c, 0, 75, 66
1, 645684, Control_c, 0, 64, 101
1, 645699, Control_c, 0, 64, 127
1, 645702, Note_off_c, 0, 59, 57
1, 645740, Poly_aftertouch_c, 0, 49, 0
1, 645753, Note_on_c, 0, 44, 60
1, 645753, Note_on_c, 0, 51, 78
1, 645784, Note_off_c, 0, 44, 62
1, 645822, Note_on_c, 0, 60, 79
1, 645828, Note_off_c, 0, 51, 63
1, 645839, Note_off_c, 0, 60, 65
1, 645900, Control_c, 0, 64, 72
1, 645915, Control_c, 0, 64, 49
1, 645927, Note_on_c, 0, 75, 95
1, 645929, Control_c, 0, 64, 35
1, 645940, Note_on_c, 0, 70, 105
1, 645943, Note_on_c, 0, 87, 67
1, 645944, Control_c, 0, 64, 59
1, 645952, Note_off_c, 0, 75, 66
1, 645959, Control_c, 0, 64, 96
1, 645961, Note_off_c, 0, 87, 67
1, 645974, Control_c, 0, 64, 127
1, 645982, Note_off_c, 0, 70, 63
1, 646211, Control_c, 0, 64, 111
1, 646226, Control_c, 0, 64, 66
1, 646241, Control_c, 0, 64, 21
1, 646247, Note_on_c, 0, 70, 101
1, 646255, Control_c, 0, 64, 0
1, 646258, Note_on_c, 0, 44, 66
1, 646258, Note_on_c, 0, 53, 70
1, 646265, Note_on_c, 0, 85, 59
1, 646280, Note_on_c, 0, 80, 50
1, 646284, Note_off_c, 0, 53, 65
1, 646286, Note_off_c, 0, 85, 37
1, 646300, Control_c, 0, 64, 37
1, 646303, Note_off_c, 0, 80, 59
1, 646315, Control_c, 0, 64, 59
1, 646317, Note_off_c, 0, 44, 61
1, 646319, Note_off_c, 0, 70, 63
1, 646329, Control_c, 0, 64, 68
1, 646344, Control_c, 0, 64, 76
1, 646359, Control_c, 0, 64, 94
1, 646373, Control_c, 0, 64, 127
1, 646463, Poly_aftertouch_c, 0, 56, 0
1, 646495, Poly_aftertouch_c, 0, 56, 0
1, 646499, Note_on_c, 0, 44, 65
1, 646544, Note_on_c, 0, 55, 71
1, 646573, Control_c, 0, 64, 69
1, 646584, Note_on_c, 0, 72, 100
1, 646588, Control_c, 0, 64, 23
1, 646591, Note_on_c, 0, 75, 88
1, 646594, Note_on_c, 0, 68, 79
1, 646596, Note_on_c, 0, 80, 83
1, 646603, Control_c, 0, 64, 0
1, 646615, Note_off_c, 0, 68, 69
1, 646617, Note_off_c, 0, 44, 55
1, 646618, Control_c, 0, 64, 57
1, 646622, Note_on_c, 0, 60, 51
1, 646629, Poly_aftertouch_c, 0, 54, 0
1, 646633, Control_c, 0, 64, 92
1, 646634, Note_off_c, 0, 55, 64
1, 646638, Note_off_c, 0, 72, 65
1, 646647, Note_off_c, 0, 60, 56
1, 646649, Control_c, 0, 64, 127
1, 646657, Note_off_c, 0, 75, 68
1, 646668, Note_off_c, 0, 80, 62
1, 646698, Note_on_c, 0, 68, 5
1, 646724, Note_on_c, 0, 44, 57
1, 646742, Note_off_c, 0, 68, 39
1, 646756, Note_on_c, 0, 51, 65
1, 646794, Note_off_c, 0, 44, 60
1, 646812, Note_on_c, 0, 60, 71
1, 646828, Note_off_c, 0, 51, 64
1, 646839, Note_off_c, 0, 60, 64
1, 646905, Note_on_c, 0, 75, 94
1, 646920, Note_on_c, 0, 70, 101
1, 646939, Note_off_c, 0, 75, 68
1, 646943, Note_off_c, 0, 70, 65
1, 646996, Poly_aftertouch_c, 0, 87, 0
1, 647070, Note_on_c, 0, 68, 85
1, 647079, Note_on_c, 0, 66, 81
1, 647105, Note_off_c, 0, 66, 67
1, 647109, Note_off_c, 0, 68, 66
1, 647182, Control_c, 0, 64, 70
1, 647196, Control_c, 0, 64, 28
1, 647211, Control_c, 0, 64, 0
1, 647224, Poly_aftertouch_c, 0, 66, 0
1, 647234, Note_on_c, 0, 53, 74
1, 647234, Control_c, 0, 64, 36
1, 647234, Note_on_c, 0, 61, 82
1, 647240, Note_on_c, 0, 44, 78
1, 647241, Note_on_c, 0, 70, 101
1, 647249, Control_c, 0, 64, 72
1, 647258, Note_off_c, 0, 61, 70
1, 647261, Note_on_c, 0, 80, 65
1, 647264, Control_c, 0, 64, 127
1, 647264, Note_on_c, 0, 85, 63
1, 647275, Note_off_c, 0, 44, 64
1, 647275, Note_off_c, 0, 53, 61
1, 647277, Note_off_c, 0, 80, 65
1, 647282, Note_off_c, 0, 85, 65
1, 647303, Note_off_c, 0, 70, 63
1, 647531, Control_c, 0, 64, 88
1, 647543, Note_on_c, 0, 55, 83
1, 647544, Note_on_c, 0, 44, 76
1, 647546, Control_c, 0, 64, 60
1, 647551, Note_on_c, 0, 68, 102
1, 647553, Note_on_c, 0, 60, 70
1, 647557, Note_on_c, 0, 80, 77
1, 647560, Note_on_c, 0, 72, 74
1, 647561, Control_c, 0, 64, 14
1, 647565, Note_on_c, 0, 75, 69
1, 647569, Note_off_c, 0, 60, 63
1, 647575, Control_c, 0, 64, 0
1, 647576, Note_off_c, 0, 44, 64
1, 647586, Note_off_c, 0, 55, 61
1, 647590, Control_c, 0, 64, 36
1, 647601, Note_off_c, 0, 72, 52
1, 647601, Note_off_c, 0, 75, 61
1, 647605, Control_c, 0, 64, 70
1, 647610, Note_off_c, 0, 80, 61
1, 647619, Control_c, 0, 64, 104
1, 647634, Control_c, 0, 64, 127
1, 647706, Note_on_c, 0, 75, 74
1, 647709, Note_on_c, 0, 80, 80
1, 647710, Note_on_c, 0, 72, 68
1, 647743, Note_off_c, 0, 72, 61
1, 647771, Note_off_c, 0, 75, 63
1, 647782, Note_off_c, 0, 80, 58
1, 647790, Note_off_c, 0, 68, 57
1, 647812, Control_c, 0, 64, 114
1, 647827, Control_c, 0, 64, 68
1, 647842, Control_c, 0, 64, 37
1, 647857, Control_c, 0, 64, 0
1, 647872, Control_c, 0, 64, 17
1, 647874, Note_on_c, 0, 55, 75
1, 647879, Note_on_c, 0, 72, 91
1, 647881, Note_on_c, 0, 44, 67
1, 647887, Control_c, 0, 64, 61
1, 647888, Note_on_c, 0, 75, 90
1, 647897, Note_on_c, 0, 68, 66
1, 647899, Note_on_c, 0, 80, 71
1, 647901, Note_on_c, 0, 54, 43
1, 647901, Control_c, 0, 64, 127
1, 647915, Note_off_c, 0, 68, 66
1, 647919, Note_off_c, 0, 55, 62
1, 647933, Note_off_c, 0, 54, 55
1, 647934, Note_off_c, 0, 72, 64
1, 647942, Note_off_c, 0, 44, 62
1, 647950, Note_off_c, 0, 80, 60
1, 647977, Note_off_c, 0, 75, 63
1, 648158, Note_on_c, 0, 53, 81
1, 648158, Control_c, 0, 64, 70
1, 648170, Note_on_c, 0, 61, 79
1, 648173, Control_c, 0, 64, 34
1, 648188, Control_c, 0, 64, 0
1, 648193, Note_off_c, 0, 61, 68
1, 648194, Note_on_c, 0, 44, 52
1, 648207, Note_on_c, 0, 77, 89
1, 648210, Note_on_c, 0, 70, 91
1, 648211, Note_on_c, 0, 82, 79
1, 648217, Note_off_c, 0, 53, 60
1, 648218, Control_c, 0, 64, 45
1, 648226, Note_off_c, 0, 44, 54
1, 648233, Control_c, 0, 64, 68
1, 648248, Note_off_c, 0, 70, 61
1, 648248, Control_c, 0, 64, 86
1, 648261, Note_off_c, 0, 82, 59
1, 648263, Control_c, 0, 64, 127
1, 648292, Note_off_c, 0, 77, 58
1, 648335, Poly_aftertouch_c, 0, 61, 0
1, 648340, Note_on_c, 0, 44, 70
1, 648349, Note_on_c, 0, 68, 89
1, 648373, Note_on_c, 0, 51, 69
1, 648373, Note_off_c, 0, 68, 64
1, 648414, Note_off_c, 0, 44, 62
1, 648418, Note_on_c, 0, 58, 87
1, 648436, Note_off_c, 0, 51, 63
1, 648442, Note_off_c, 0, 58, 69
1, 648471, Control_c, 0, 64, 82
1, 648486, Control_c, 0, 64, 62
1, 648501, Control_c, 0, 64, 61
1, 648515, Control_c, 0, 64, 93
1, 648522, Note_on_c, 0, 75, 94
1, 648528, Note_on_c, 0, 70, 102
1, 648530, Control_c, 0, 64, 127
1, 648537, Note_on_c, 0, 87, 75
1, 648541, Note_off_c, 0, 75, 70
1, 648543, Note_on_c, 0, 82, 56
1, 648552, Note_off_c, 0, 87, 68
1, 648564, Note_off_c, 0, 82, 63
1, 648567, Note_off_c, 0, 70, 65
1, 648819, Control_c, 0, 64, 70
1, 648834, Control_c, 0, 64, 40
1, 648838, Note_on_c, 0, 70, 98
1, 648841, Note_on_c, 0, 58, 85
1, 648844, Note_on_c, 0, 53, 72
1, 648847, Note_on_c, 0, 85, 75
1, 648848, Control_c, 0, 64, 0
1, 648850, Note_on_c, 0, 80, 79
1, 648853, Note_on_c, 0, 44, 64
1, 648871, Note_off_c, 0, 85, 67
1, 648878, Control_c, 0, 64, 60
1, 648879, Note_off_c, 0, 53, 65
1, 648889, Note_off_c, 0, 58, 60
1, 648893, Control_c, 0, 64, 98
1, 648895, Note_off_c, 0, 80, 57
1, 648899, Note_off_c, 0, 44, 60
1, 648908, Control_c, 0, 64, 127
1, 648930, Note_off_c, 0, 70, 64
1, 649045, Note_on_c, 0, 44, 70
1, 649101, Control_c, 0, 64, 83
1, 649104, Note_on_c, 0, 51, 57
1, 649116, Control_c, 0, 64, 48
1, 649122, Note_off_c, 0, 44, 63
1, 649131, Control_c, 0, 64, 0
1, 649149, Note_on_c, 0, 60, 88
1, 649154, Note_on_c, 0, 68, 94
1, 649157, Note_on_c, 0, 75, 87
1, 649160, Control_c, 0, 64, 21
1, 649161, Note_on_c, 0, 72, 76
1, 649163, Note_on_c, 0, 80, 83
1, 649175, Control_c, 0, 64, 68
1, 649180, Note_off_c, 0, 68, 66
1, 649183, Note_off_c, 0, 72, 68
1, 649186, Note_off_c, 0, 60, 60
1, 649190, Control_c, 0, 64, 127
1, 649205, Note_off_c, 0, 75, 67
1, 649213, Note_off_c, 0, 51, 64
1, 649224, Note_off_c, 0, 80, 64
1, 649348, Note_on_c, 0, 44, 89
1, 649359, Note_on_c, 0, 32, 67
1, 649377, Note_off_c, 0, 44, 67
1, 649386, Note_off_c, 0, 32, 64
1, 649503, Note_on_c, 0, 87, 93
1, 649509, Note_on_c, 0, 75, 90
1, 649512, Note_on_c, 0, 82, 87
1, 649523, Note_on_c, 0, 51, 81
1, 649524, Note_on_c, 0, 58, 86
1, 649529, Note_on_c, 0, 44, 85
1, 649532, Note_on_c, 0, 56, 77
1, 649562, Note_on_c, 0, 46, 33
1, 649601, Note_off_c, 0, 46, 46
1, 649656, Note_off_c, 0, 56, 48
1, 649664, Note_off_c, 0, 75, 57
1, 649667, Note_off_c, 0, 87, 63
1, 649669, Note_off_c, 0, 58, 54
1, 649747, Note_off_c, 0, 44, 59
1, 649755, Note_off_c, 0, 51, 61
1, 649790, Note_off_c, 0, 82, 62
1, 649808, Note_on_c, 0, 51, 74
1, 649810, Note_on_c, 0, 58, 88
1, 649814, Note_on_c, 0, 73, 96
1, 649814, Note_on_c, 0, 85, 93
1, 649818, Note_on_c, 0, 80, 90
1, 649830, Note_on_c, 0, 44, 66
1, 649857, Note_off_c, 0, 58, 64
1, 649866, Note_off_c, 0, 51, 64
1, 649867, Note_off_c, 0, 73, 63
1, 649872, Note_off_c, 0, 80, 61
1, 649876, Note_off_c, 0, 85, 65
1, 649896, Note_off_c, 0, 44, 60
1, 649970, Note_on_c, 0, 44, 70
1, 650049, Note_off_c, 0, 44, 62
1, 650078, Note_on_c, 0, 60, 85
1, 650081, Note_on_c, 0, 51, 3
1, 650102, Note_off_c, 0, 60, 68
1, 650122, Note_on_c, 0, 80, 95
1, 650123, Note_on_c, 0, 75, 82
1, 650125, Note_on_c, 0, 68, 84
1, 650139, Note_off_c, 0, 51, 61
1, 650149, Note_off_c, 0, 68, 68
1, 650160, Note_off_c, 0, 75, 63
1, 650214, Note_off_c, 0, 80, 62
1, 650301, Note_on_c, 0, 44, 86
1, 650308, Note_on_c, 0, 39, 86
1, 650310, Note_on_c, 0, 32, 76
1, 650319, Note_on_c, 0, 75, 32
1, 650332, Note_off_c, 0, 32, 66
1, 650337, Note_off_c, 0, 44, 63
1, 650343, Note_off_c, 0, 39, 62
1, 650354, Note_off_c, 0, 75, 53
1, 650361, Control_c, 0, 64, 93
1, 650376, Control_c, 0, 64, 69
1, 650391, Control_c, 0, 64, 70
1, 650406, Control_c, 0, 64, 114
1, 650420, Control_c, 0, 64, 127
1, 650434, Note_on_c, 0, 75, 94
1, 650435, Note_on_c, 0, 87, 94
1, 650441, Note_on_c, 0, 58, 92
1, 650445, Note_on_c, 0, 51, 85
1, 650446, Note_on_c, 0, 82, 88
1, 650459, Note_on_c, 0, 44, 69
1, 650459, Note_on_c, 0, 46, 71
1, 650484, Note_off_c, 0, 58, 61
1, 650491, Note_off_c, 0, 44, 57
1, 650504, Note_off_c, 0, 51, 62
1, 650510, Note_off_c, 0, 46, 44
1, 650512, Note_off_c, 0, 75, 62
1, 650535, Note_off_c, 0, 82, 60
1, 650546, Note_off_c, 0, 87, 63
1, 650556, Poly_aftertouch_c, 0, 50, 0
1, 650736, Note_on_c, 0, 58, 94
1, 650740, Note_on_c, 0, 53, 85
1, 650743, Note_on_c, 0, 44, 81
1, 650745, Note_on_c, 0, 85, 101
1, 650747, Note_on_c, 0, 73, 90
1, 650748, Note_on_c, 0, 80, 89
1, 650790, Note_off_c, 0, 73, 64
1, 650798, Note_off_c, 0, 58, 64
1, 650800, Note_off_c, 0, 80, 61
1, 650801, Note_off_c, 0, 53, 57
1, 650804, Note_off_c, 0, 44, 63
1, 650809, Note_off_c, 0, 85, 64
1, 650912, Note_on_c, 0, 44, 76
1, 650969, Note_on_c, 0, 53, 61
1, 650976, Note_off_c, 0, 44, 63
1, 651007, Note_on_c, 0, 60, 76
1, 651012, Note_on_c, 0, 62, 78
1, 651020, Note_on_c, 0, 54, 47
1, 651029, Note_off_c, 0, 62, 69
1, 651038, Note_off_c, 0, 60, 64
1, 651050, Note_off_c, 0, 54, 57
1, 651061, Note_off_c, 0, 53, 64
1, 651062, Note_on_c, 0, 75, 91
1, 651062, Note_on_c, 0, 80, 101
1, 651064, Note_on_c, 0, 68, 94
1, 651086, Note_off_c, 0, 68, 70
1, 651096, Note_off_c, 0, 75, 64
1, 651142, Note_off_c, 0, 80, 63
1, 651245, Note_on_c, 0, 32, 91
1, 651246, Note_on_c, 0, 44, 92
1, 651251, Note_on_c, 0, 39, 89
1, 651301, Note_off_c, 0, 32, 60
1, 651306, Note_off_c, 0, 44, 63
1, 651312, Note_off_c, 0, 39, 65
1, 651397, Note_on_c, 0, 87, 110
1, 651400, Note_on_c, 0, 75, 98
1, 651401, Note_on_c, 0, 82, 97
1, 651401, Note_on_c, 0, 56, 88
1, 651404, Note_on_c, 0, 51, 88
1, 651418, Note_on_c, 0, 44, 81
1, 651429, Note_off_c, 0, 56, 66
1, 651435, Note_off_c, 0, 51, 66
1, 651439, Note_on_c, 0, 58, 27
1, 651440, Note_off_c, 0, 58, 127
1, 651453, Note_off_c, 0, 44, 65
1, 651472, Poly_aftertouch_c, 0, 58, 0
1, 651589, Note_off_c, 0, 82, 60
1, 651607, Note_on_c, 0, 46, 101
1, 651610, Note_on_c, 0, 34, 83
1, 651614, Note_on_c, 0, 41, 81
1, 651614, Control_c, 0, 64, 108
1, 651626, Note_off_c, 0, 75, 55
1, 651629, Note_off_c, 0, 87, 60
1, 651629, Control_c, 0, 64, 127
1, 651643, Note_on_c, 0, 40, 55
1, 651644, Note_off_c, 0, 40, 127
1, 651649, Note_off_c, 0, 41, 66
1, 651656, Note_off_c, 0, 34, 64
1, 651658, Note_off_c, 0, 46, 66
1, 651673, Poly_aftertouch_c, 0, 40, 0
1, 651780, Note_on_c, 0, 58, 92
1, 651783, Note_on_c, 0, 85, 103
1, 651786, Note_on_c, 0, 73, 92
1, 651786, Note_on_c, 0, 80, 86
1, 651790, Note_on_c, 0, 46, 66
1, 651798, Note_on_c, 0, 53, 67
1, 651819, Note_off_c, 0, 58, 67
1, 651831, Note_off_c, 0, 53, 66
1, 651857, Note_off_c, 0, 46, 65
1, 651888, Note_off_c, 0, 73, 61
1, 651907, Note_off_c, 0, 85, 63
1, 651908, Note_off_c, 0, 80, 61
1, 652033, Note_on_c, 0, 43, 76
1, 652033, Note_on_c, 0, 48, 87
1, 652041, Note_on_c, 0, 36, 71
1, 652066, Note_off_c, 0, 36, 66
1, 652068, Note_off_c, 0, 43, 66
1, 652081, Note_off_c, 0, 48, 65
1, 652314, Note_on_c, 0, 68, 91
1, 652314, Note_on_c, 0, 80, 98
1, 652317, Note_on_c, 0, 75, 87
1, 652320, Note_on_c, 0, 60, 88
1, 652326, Note_on_c, 0, 48, 80
1, 652326, Note_on_c, 0, 55, 84
1, 652460, Control_c, 0, 64, 105
1, 652475, Control_c, 0, 64, 65
1, 652489, Control_c, 0, 64, 28
1, 652504, Control_c, 0, 64, 36
1, 652519, Control_c, 0, 64, 74
1, 652534, Control_c, 0, 64, 127
1, 652637, Note_off_c, 0, 68, 62
1, 652642, Note_off_c, 0, 60, 59
1, 652643, Note_off_c, 0, 80, 62
1, 652650, Note_off_c, 0, 48, 62
1, 652685, Note_off_c, 0, 75, 63
1, 652706, Note_off_c, 0, 55, 60
1, 653038, Control_c, 0, 64, 84
1, 653053, Control_c, 0, 64, 53
1, 653068, Control_c, 0, 64, 0
1, 653160, Note_on_c, 0, 79, 70
1, 653161, Note_on_c, 0, 55, 68
1, 653162, Note_on_c, 0, 74, 73
1, 653165, Note_on_c, 0, 48, 60
1, 653165, Note_on_c, 0, 67, 75
1, 653178, Note_on_c, 0, 60, 46
1, 653182, Note_off_c, 0, 74, 69
1, 653185, Note_off_c, 0, 55, 66
1, 653190, Note_off_c, 0, 67, 67
1, 653211, Note_off_c, 0, 79, 60
1, 653213, Note_off_c, 0, 48, 66
1, 653215, Note_off_c, 0, 60, 50
1, 653400, Note_on_c, 0, 77, 65
1, 653402, Note_on_c, 0, 65, 68
1, 653407, Note_on_c, 0, 72, 48
1, 653408, Note_on_c, 0, 57, 61
1, 653413, Note_on_c, 0, 62, 60
1, 653417, Note_on_c, 0, 50, 45
1, 653431, Note_off_c, 0, 72, 52
1, 653434, Note_off_c, 0, 57, 66
1, 653435, Note_off_c, 0, 77, 65
1, 653439, Note_off_c, 0, 65, 60
1, 653440, Note_off_c, 0, 62, 67
1, 653443, Note_off_c, 0, 50, 57
1, 653609, Control_c, 0, 64, 38
1, 653622, Note_on_c, 0, 72, 55
1, 653624, Control_c, 0, 64, 15
1, 653637, Note_on_c, 0, 59, 59
1, 653638, Control_c, 0, 64, 0
1, 653641, Note_on_c, 0, 64, 59
1, 653654, Note_on_c, 0, 67, 7
1, 653655, Note_on_c, 0, 52, 42
1, 653661, Note_off_c, 0, 72, 65
1, 653662, Note_off_c, 0, 64, 62
1, 653663, Note_off_c, 0, 59, 67
1, 653684, Note_off_c, 0, 67, 31
1, 653685, Note_off_c, 0, 52, 60
1, 653831, Note_on_c, 0, 52, 38
1, 653838, Note_on_c, 0, 59, 61
1, 653842, Note_on_c, 0, 79, 68
1, 653844, Note_on_c, 0, 74, 60
1, 653849, Note_on_c, 0, 62, 59
1, 653863, Note_off_c, 0, 74, 64
1, 653867, Note_off_c, 0, 59, 66
1, 653871, Note_off_c, 0, 62, 63
1, 653876, Note_off_c, 0, 79, 63
1, 653879, Note_off_c, 0, 52, 64
1, 654062, Note_on_c, 0, 72, 70
1, 654064, Note_on_c, 0, 54, 72
1, 654064, Note_on_c, 0, 77, 76
1, 654065, Note_on_c, 0, 65, 80
1, 654066, Note_on_c, 0, 60, 62
1, 654066, Note_on_c, 0, 63, 75
1, 654087, Note_off_c, 0, 72, 66
1, 654092, Note_off_c, 0, 60, 65
1, 654093, Note_off_c, 0, 65, 66
1, 654095, Note_off_c, 0, 63, 65
1, 654099, Note_off_c, 0, 77, 65
1, 654101, Note_off_c, 0, 54, 64
1, 654276, Note_on_c, 0, 67, 73
1, 654280, Note_on_c, 0, 61, 81
1, 654282, Note_on_c, 0, 72, 85
1, 654290, Note_on_c, 0, 64, 66
1, 654304, Note_off_c, 0, 67, 66
1, 654307, Note_off_c, 0, 61, 67
1, 654308, Note_on_c, 0, 54, 44
1, 654314, Note_off_c, 0, 72, 66
1, 654320, Note_off_c, 0, 64, 67
1, 654338, Note_off_c, 0, 54, 54
1, 654460, Control_c, 0, 64, 44
1, 654475, Control_c, 0, 64, 42
1, 654490, Control_c, 0, 64, 0
1, 654493, Note_on_c, 0, 74, 80
1, 654493, Note_on_c, 0, 79, 77
1, 654494, Note_on_c, 0, 62, 86
1, 654495, Note_on_c, 0, 52, 71
1, 654499, Note_on_c, 0, 56, 52
1, 654500, Note_off_c, 0, 56, 127
1, 654500, Note_on_c, 0, 67, 76
1, 654515, Note_on_c, 0, 57, 61
1, 654517, Note_off_c, 0, 74, 70
1, 654519, Note_off_c, 0, 62, 70
1, 654526, Note_off_c, 0, 67, 67
1, 654537, Note_off_c, 0, 57, 61
1, 654537, Note_off_c, 0, 79, 59
1, 654538, Note_off_c, 0, 52, 59
1, 654585, Poly_aftertouch_c, 0, 54, 0
1, 654654, Control_c, 0, 64, 12
1, 654669, Control_c, 0, 64, 42
1, 654683, Control_c, 0, 64, 36
1, 654706, Control_c, 0, 64, 0
1, 654710, Note_on_c, 0, 72, 77
1, 654712, Note_on_c, 0, 77, 81
1, 654714, Note_on_c, 0, 63, 87
1, 654715, Poly_aftertouch_c, 0, 56, 0
1, 654716, Note_on_c, 0, 65, 82
1, 654716, Note_on_c, 0, 53, 72
1, 654719, Note_on_c, 0, 57, 69
1, 654737, Note_off_c, 0, 72, 66
1, 654743, Note_off_c, 0, 63, 63
1, 654748, Note_off_c, 0, 53, 66
1, 654751, Note_off_c, 0, 57, 64
1, 654758, Note_off_c, 0, 77, 63
1, 654764, Note_off_c, 0, 65, 59
1, 654898, Control_c, 0, 64, 51
1, 654913, Control_c, 0, 64, 52
1, 654922, Note_on_c, 0, 64, 90
1, 654923, Note_on_c, 0, 54, 72
1, 654924, Note_on_c, 0, 72, 83
1, 654926, Note_on_c, 0, 58, 82
1, 654928, Control_c, 0, 64, 25
1, 654930, Note_on_c, 0, 71, 73
1, 654943, Note_on_c, 0, 67, 32
1, 654943, Control_c, 0, 64, 0
1, 654955, Note_off_c, 0, 71, 67
1, 654956, Note_off_c, 0, 58, 67
1, 654957, Note_off_c, 0, 72, 65
1, 654958, Note_off_c, 0, 64, 63
1, 654965, Note_on_c, 0, 56, 9
1, 654967, Note_off_c, 0, 54, 61
1, 654976, Note_off_c, 0, 67, 32
1, 655014, Note_off_c, 0, 56, 27
1, 655091, Control_c, 0, 64, 36
1, 655106, Control_c, 0, 64, 44
1, 655121, Control_c, 0, 64, 15
1, 655122, Note_on_c, 0, 52, 70
1, 655122, Note_on_c, 0, 56, 75
1, 655125, Note_on_c, 0, 62, 94
1, 655125, Note_on_c, 0, 79, 83
1, 655126, Note_on_c, 0, 74, 81
1, 655128, Note_on_c, 0, 67, 82
1, 655136, Control_c, 0, 64, 0
1, 655154, Note_on_c, 0, 54, 38
1, 655156, Note_off_c, 0, 62, 66
1, 655156, Note_off_c, 0, 74, 66
1, 655163, Note_off_c, 0, 67, 61
1, 655169, Note_on_c, 0, 58, 14
1, 655173, Note_off_c, 0, 56, 63
1, 655179, Note_off_c, 0, 52, 63
1, 655182, Note_off_c, 0, 79, 64
1, 655185, Note_off_c, 0, 54, 52
1, 655214, Note_off_c, 0, 58, 29
1, 655328, Control_c, 0, 64, 46
1, 655331, Note_on_c, 0, 72, 86
1, 655333, Note_on_c, 0, 63, 99
1, 655333, Note_on_c, 0, 65, 102
1, 655334, Note_on_c, 0, 77, 94
1, 655338, Note_on_c, 0, 57, 87
1, 655339, Note_on_c, 0, 53, 79
1, 655343, Control_c, 0, 64, 28
1, 655357, Control_c, 0, 64, 0
1, 655375, Note_off_c, 0, 72, 65
1, 655380, Note_off_c, 0, 65, 63
1, 655386, Note_off_c, 0, 63, 59
1, 655388, Note_off_c, 0, 57, 62
1, 655394, Note_off_c, 0, 77, 66
1, 655402, Note_off_c, 0, 53, 59
1, 655414, Note_on_c, 0, 55, 4
1, 655415, Note_off_c, 0, 55, 127
1, 655536, Note_on_c, 0, 64, 85
1, 655539, Note_on_c, 0, 61, 79
1, 655542, Note_on_c, 0, 54, 73
1, 655543, Note_on_c, 0, 72, 95
1, 655544, Note_on_c, 0, 67, 96
1, 655544, Control_c, 0, 64, 60
1, 655546, Note_on_c, 0, 58, 78
1, 655559, Note_off_c, 0, 64, 71
1, 655559, Control_c, 0, 64, 74
1, 655562, Note_off_c, 0, 67, 70
1, 655565, Note_off_c, 0, 61, 69
1, 655566, Note_on_c, 0, 56, 57
1, 655574, Control_c, 0, 64, 75
1, 655577, Note_off_c, 0, 58, 67
1, 655581, Note_off_c, 0, 54, 65
1, 655587, Note_off_c, 0, 72, 65
1, 655588, Control_c, 0, 64, 73
1, 655590, Note_off_c, 0, 56, 58
1, 655603, Control_c, 0, 64, 65
1, 655618, Control_c, 0, 64, 57
1, 655625, Note_on_c, 0, 67, 34
1, 655626, Note_off_c, 0, 67, 127
1, 655632, Control_c, 0, 64, 41
1, 655647, Control_c, 0, 64, 0
1, 655740, Note_on_c, 0, 47, 78
1, 655744, Note_on_c, 0, 50, 91
1, 655744, Note_on_c, 0, 53, 82
1, 655751, Control_c, 0, 64, 12
1, 655754, Note_on_c, 0, 79, 98
1, 655754, Note_on_c, 0, 83, 90
1, 655754, Note_on_c, 0, 91, 94
1, 655757, Note_on_c, 0, 41, 67
1, 655757, Note_on_c, 0, 43, 73
1, 655759, Note_on_c, 0, 86, 88
1, 655766, Note_on_c, 0, 93, 72
1, 655766, Control_c, 0, 64, 127
1, 655767, Note_on_c, 0, 84, 65
1, 655779, Note_off_c, 0, 93, 43
1, 655783, Note_off_c, 0, 50, 66
1, 655784, Note_off_c, 0, 41, 57
1, 655785, Note_off_c, 0, 43, 65
1, 655786, Note_off_c, 0, 47, 66
1, 655786, Note_off_c, 0, 84, 39
1, 655788, Note_on_c, 0, 87, 28
1, 655788, Note_off_c, 0, 86, 65
1, 655794, Note_off_c, 0, 83, 67
1, 655795, Note_off_c, 0, 53, 64
1, 655817, Note_off_c, 0, 87, 60
1, 655823, Note_off_c, 0, 91, 64
1, 655830, Note_off_c, 0, 79, 62
1, 655894, Note_on_c, 0, 82, 66
1, 655899, Control_c, 0, 64, 65
1, 655908, Note_on_c, 0, 85, 48
1, 655914, Control_c, 0, 64, 0
1, 655923, Note_off_c, 0, 82, 64
1, 655936, Note_on_c, 0, 66, 84
1, 655944, Control_c, 0, 64, 67
1, 655944, Note_on_c, 0, 63, 80
1, 655948, Note_off_c, 0, 85, 0
1, 655948, Note_on_c, 0, 85, 70
1, 655956, Note_on_c, 0, 56, 73
1, 655956, Note_on_c, 0, 77, 102
1, 655958, Note_on_c, 0, 89, 91
1, 655958, Control_c, 0, 64, 127
1, 655959, Note_on_c, 0, 81, 88
1, 655960, Note_off_c, 0, 66, 69
1, 655967, Note_on_c, 0, 79, 78
1, 655968, Poly_aftertouch_c, 0, 58, 127
1, 655971, Note_on_c, 0, 91, 70
1, 655971, Note_off_c, 0, 63, 69
1, 655972, Note_on_c, 0, 60, 54
1, 655975, Note_off_c, 0, 85, 67
1, 655976, Note_on_c, 0, 58, 2
1, 655983, Note_off_c, 0, 79, 63
1, 655986, Note_on_c, 0, 84, 61
1, 655989, Note_off_c, 0, 91, 45
1, 655990, Note_on_c, 0, 87, 17
1, 655991, Note_off_c, 0, 56, 65
1, 655995, Note_off_c, 0, 58, 59
1, 655995, Note_off_c, 0, 81, 66
1, 655998, Note_off_c, 0, 60, 55
1, 656000, Note_off_c, 0, 87, 0
1, 656003, Note_off_c, 0, 84, 65
1, 656004, Note_off_c, 0, 89, 65
1, 656012, Note_on_c, 0, 55, 14
1, 656021, Note_off_c, 0, 77, 65
1, 656037, Poly_aftertouch_c, 0, 87, 0
1, 656052, Note_off_c, 0, 55, 51
1, 656106, Control_c, 0, 64, 73
1, 656121, Control_c, 0, 64, 0
1, 656136, Note_on_c, 0, 49, 73
1, 656138, Note_on_c, 0, 52, 94
1, 656140, Note_on_c, 0, 55, 93
1, 656141, Note_on_c, 0, 76, 82
1, 656143, Note_on_c, 0, 45, 78
1, 656144, Note_on_c, 0, 72, 99
1, 656144, Note_on_c, 0, 84, 86
1, 656150, Control_c, 0, 64, 24
1, 656155, Note_on_c, 0, 79, 69
1, 656165, Note_on_c, 0, 75, 40
1, 656166, Note_off_c, 0, 75, 127
1, 656166, Control_c, 0, 64, 78
1, 656171, Note_off_c, 0, 45, 69
1, 656172, Note_on_c, 0, 82, 60
1, 656172, Note_off_c, 0, 72, 65
1, 656173, Note_off_c, 0, 76, 67
1, 656179, Note_off_c, 0, 79, 69
1, 656181, Note_off_c, 0, 55, 67
1, 656182, Control_c, 0, 64, 127
1, 656190, Note_off_c, 0, 49, 65
1, 656193, Note_off_c, 0, 52, 65
1, 656193, Note_off_c, 0, 82, 62
1, 656210, Note_off_c, 0, 84, 67
1, 656217, Note_on_c, 0, 83, 2
1, 656218, Note_off_c, 0, 83, 127
1, 656309, Note_on_c, 0, 87, 27
1, 656324, Control_c, 0, 64, 92
1, 656339, Control_c, 0, 64, 92
1, 656348, Note_on_c, 0, 68, 97
1, 656351, Note_on_c, 0, 84, 64
1, 656352, Note_on_c, 0, 58, 82
1, 656352, Note_on_c, 0, 65, 87
1, 656354, Control_c, 0, 64, 127
1, 656359, Note_on_c, 0, 91, 96
1, 656360, Note_on_c, 0, 79, 105
1, 656360, Note_off_c, 0, 87, 0
1, 656365, Note_on_c, 0, 83, 63
1, 656366, Note_on_c, 0, 86, 86
1, 656368, Note_on_c, 0, 62, 67
1, 656375, Note_on_c, 0, 93, 52
1, 656376, Note_off_c, 0, 93, 127
1, 656387, Note_off_c, 0, 62, 66
1, 656387, Note_off_c, 0, 86, 70
1, 656389, Note_off_c, 0, 83, 58
1, 656399, Note_off_c, 0, 65, 63
1, 656401, Note_on_c, 0, 81, 34
1, 656402, Note_off_c, 0, 81, 127
1, 656402, Note_off_c, 0, 84, 67
1, 656415, Poly_aftertouch_c, 0, 87, 0
1, 656424, Note_off_c, 0, 58, 61
1, 656425, Note_off_c, 0, 68, 64
1, 656426, Note_off_c, 0, 79, 58
1, 656429, Note_off_c, 0, 91, 61
1, 656464, Note_on_c, 0, 86, 5
1, 656495, Note_off_c, 0, 86, 50
1, 656503, Control_c, 0, 64, 72
1, 656511, Note_on_c, 0, 85, 31
1, 656513, Note_on_c, 0, 82, 38
1, 656518, Control_c, 0, 64, 23
1, 656532, Control_c, 0, 64, 0
1, 656540, Note_on_c, 0, 69, 89
1, 656544, Note_on_c, 0, 66, 91
1, 656547, Control_c, 0, 64, 58
1, 656548, Note_on_c, 0, 59, 57
1, 656548, Note_on_c, 0, 81, 80
1, 656549, Note_on_c, 0, 63, 87
1, 656550, Note_on_c, 0, 89, 95
1, 656553, Note_on_c, 0, 77, 108
1, 656560, Note_on_c, 0, 84, 94
1, 656562, Control_c, 0, 64, 127
1, 656563, Note_on_c, 0, 61, 64
1, 656566, Note_off_c, 0, 69, 68
1, 656570, Note_off_c, 0, 66, 68
1, 656581, Note_off_c, 0, 84, 71
1, 656583, Note_off_c, 0, 85, 45
1, 656587, Note_off_c, 0, 81, 66
1, 656589, Note_off_c, 0, 63, 67
1, 656590, Note_off_c, 0, 61, 66
1, 656590, Note_off_c, 0, 89, 65
1, 656591, Note_on_c, 0, 79, 23
1, 656592, Note_off_c, 0, 79, 127
1, 656595, Note_off_c, 0, 59, 66
1, 656597, Note_off_c, 0, 82, 37
1, 656604, Note_off_c, 0, 77, 67
1, 656661, Note_on_c, 0, 84, 20
1, 656710, Control_c, 0, 64, 74
1, 656714, Note_off_c, 0, 84, 33
1, 656723, Note_on_c, 0, 79, 38
1, 656724, Control_c, 0, 64, 64
1, 656735, Note_on_c, 0, 76, 76
1, 656739, Control_c, 0, 64, 71
1, 656741, Note_on_c, 0, 58, 96
1, 656742, Note_on_c, 0, 55, 81
1, 656745, Note_on_c, 0, 52, 82
1, 656745, Note_on_c, 0, 72, 99
1, 656747, Note_on_c, 0, 84, 85
1, 656753, Note_on_c, 0, 48, 76
1, 656754, Control_c, 0, 64, 127
1, 656770, Note_off_c, 0, 72, 62
1, 656776, Note_off_c, 0, 76, 64
1, 656776, Note_off_c, 0, 79, 66
1, 656795, Note_off_c, 0, 48, 44
1, 656801, Note_off_c, 0, 55, 64
1, 656803, Note_off_c, 0, 84, 67
1, 656815, Note_off_c, 0, 52, 63
1, 656838, Poly_aftertouch_c, 0, 50, 0
1, 656847, Note_off_c, 0, 58, 63
1, 656882, Poly_aftertouch_c, 0, 50, 0
1, 656888, Control_c, 0, 64, 84
1, 656903, Control_c, 0, 64, 44
1, 656918, Control_c, 0, 64, 0
1, 656932, Control_c, 0, 64, 48
1, 656934, Note_on_c, 0, 91, 91
1, 656935, Note_on_c, 0, 56, 94
1, 656936, Note_on_c, 0, 59, 96
1, 656938, Note_on_c, 0, 49, 85
1, 656940, Note_on_c, 0, 79, 96
1, 656941, Note_on_c, 0, 53, 72
1, 656942, Note_on_c, 0, 84, 70
1, 656945, Note_on_c, 0, 83, 71
1, 656945, Note_on_c, 0, 86, 74
1, 656954, Control_c, 0, 64, 127
1, 656971, Note_on_c, 0, 50, 42
1, 656978, Note_off_c, 0, 86, 69
1, 656982, Note_off_c, 0, 83, 67
1, 656983, Note_off_c, 0, 84, 67
1, 656995, Note_off_c, 0, 53, 61
1, 657008, Note_off_c, 0, 50, 43
1, 657018, Note_off_c, 0, 49, 65
1, 657018, Note_off_c, 0, 56, 54
1, 657031, Note_off_c, 0, 91, 59
1, 657041, Note_off_c, 0, 79, 60
1, 657062, Note_off_c, 0, 59, 60
1, 657083, Note_on_c, 0, 82, 51
1, 657097, Note_on_c, 0, 85, 34
1, 657136, Note_on_c, 0, 60, 102
1, 657137, Note_on_c, 0, 57, 90
1, 657137, Poly_aftertouch_c, 0, 54, 127
1, 657139, Note_on_c, 0, 50, 84
1, 657142, Note_on_c, 0, 89, 91
1, 657145, Note_on_c, 0, 77, 99
1, 657164, Note_off_c, 0, 85, 61
1, 657171, Note_on_c, 0, 79, 48
1, 657172, Note_off_c, 0, 79, 127
1, 657176, Note_off_c, 0, 82, 66
1, 657182, Note_off_c, 0, 50, 60
1, 657182, Note_off_c, 0, 89, 64
1, 657193, Note_off_c, 0, 60, 47
1, 657195, Note_off_c, 0, 57, 61
1, 657196, Note_off_c, 0, 77, 68
1, 657243, Poly_aftertouch_c, 0, 54, 0
1, 657296, Control_c, 0, 64, 69
1, 657301, Note_on_c, 0, 79, 8
1, 657311, Control_c, 0, 64, 33
1, 657325, Note_on_c, 0, 76, 64
1, 657326, Note_on_c, 0, 61, 109
1, 657326, Control_c, 0, 64, 43
1, 657328, Note_on_c, 0, 58, 94
1, 657330, Note_on_c, 0, 72, 95
1, 657335, Note_on_c, 0, 51, 77
1, 657335, Note_on_c, 0, 84, 85
1, 657341, Control_c, 0, 64, 78
1, 657346, Note_on_c, 0, 55, 63
1, 657355, Control_c, 0, 64, 127
1, 657359, Note_off_c, 0, 76, 66
1, 657366, Note_off_c, 0, 79, 63
1, 657368, Note_off_c, 0, 72, 61
1, 657374, Note_off_c, 0, 55, 65
1, 657385, Note_off_c, 0, 58, 65
1, 657401, Note_off_c, 0, 84, 64
1, 657413, Note_off_c, 0, 61, 62
1, 657429, Note_off_c, 0, 51, 64
1, 657488, Control_c, 0, 64, 75
1, 657502, Poly_aftertouch_c, 0, 56, 0
1, 657503, Control_c, 0, 64, 77
1, 657508, Note_on_c, 0, 83, 49
1, 657513, Note_on_c, 0, 62, 107
1, 657516, Note_on_c, 0, 52, 86
1, 657518, Control_c, 0, 64, 127
1, 657519, Note_on_c, 0, 56, 46
1, 657520, Note_on_c, 0, 59, 94
1, 657522, Note_on_c, 0, 79, 93
1, 657526, Note_on_c, 0, 91, 94
1, 657533, Note_on_c, 0, 86, 63
1, 657556, Note_off_c, 0, 86, 68
1, 657559, Note_on_c, 0, 54, 28
1, 657571, Note_off_c, 0, 83, 66
1, 657586, Note_off_c, 0, 56, 62
1, 657586, Note_off_c, 0, 52, 63
1, 657589, Note_off_c, 0, 62, 52
1, 657598, Note_off_c, 0, 91, 55
1, 657600, Note_off_c, 0, 79, 56
1, 657601, Note_off_c, 0, 54, 55
1, 657631, Note_off_c, 0, 59, 55
1, 657665, Note_on_c, 0, 82, 56
1, 657679, Note_on_c, 0, 85, 28
1, 657681, Control_c, 0, 64, 62
1, 657696, Control_c, 0, 64, 0
1, 657725, Note_on_c, 0, 63, 109
1, 657728, Note_off_c, 0, 85, 0
1, 657728, Note_on_c, 0, 85, 56
1, 657733, Note_on_c, 0, 61, 61
1, 657733, Note_on_c, 0, 89, 88
1, 657733, Control_c, 0, 64, 45
1, 657736, Note_on_c, 0, 57, 52
1, 657737, Note_on_c, 0, 77, 100
1, 657741, Note_on_c, 0, 53, 74
1, 657741, Note_on_c, 0, 60, 77
1, 657747, Note_off_c, 0, 82, 67
1, 657748, Control_c, 0, 64, 85
1, 657752, Note_on_c, 0, 81, 85
1, 657762, Control_c, 0, 64, 127
1, 657764, Note_off_c, 0, 61, 50
1, 657767, Note_on_c, 0, 84, 58
1, 657772, Note_off_c, 0, 60, 62
1, 657775, Note_off_c, 0, 81, 66
1, 657781, Note_off_c, 0, 85, 63
1, 657785, Note_off_c, 0, 84, 66
1, 657785, Note_off_c, 0, 89, 63
1, 657801, Note_off_c, 0, 57, 64
1, 657807, Note_off_c, 0, 53, 62
1, 657812, Note_off_c, 0, 77, 68
1, 657836, Note_off_c, 0, 63, 59
1, 657897, Note_on_c, 0, 78, 45
1, 657926, Control_c, 0, 64, 63
1, 657930, Note_off_c, 0, 78, 53
1, 657941, Control_c, 0, 64, 0
1, 657961, Note_on_c, 0, 61, 57
1, 657964, Note_on_c, 0, 64, 105
1, 657965, Note_on_c, 0, 58, 78
1, 657973, Note_on_c, 0, 54, 70
1, 657987, Note_on_c, 0, 72, 113
1, 657987, Note_on_c, 0, 76, 87
1, 657988, Note_on_c, 0, 84, 90
1, 657990, Note_on_c, 0, 79, 90
1, 658008, Note_off_c, 0, 54, 66
1, 658015, Control_c, 0, 64, 48
1, 658024, Note_off_c, 0, 58, 64
1, 658026, Note_off_c, 0, 64, 68
1, 658030, Control_c, 0, 64, 127
1, 658036, Note_off_c, 0, 61, 59
1, 658042, Note_on_c, 0, 62, 3
1, 658082, Note_off_c, 0, 62, 55
1, 658102, Note_off_c, 0, 76, 58
1, 658110, Note_off_c, 0, 79, 58
1, 658125, Note_off_c, 0, 72, 57
1, 658130, Note_off_c, 0, 84, 58
1, 658164, Note_on_c, 0, 70, 65
1, 658167, Note_on_c, 0, 78, 71
1, 658179, Note_on_c, 0, 73, 44
1, 658185, Note_off_c, 0, 78, 63
1, 658196, Note_off_c, 0, 70, 62
1, 658205, Note_off_c, 0, 73, 58
1, 658226, Note_on_c, 0, 76, 22
1, 658230, Note_on_c, 0, 79, 71
1, 658235, Note_on_c, 0, 72, 60
1, 658268, Note_off_c, 0, 72, 61
1, 658272, Note_off_c, 0, 79, 58
1, 658284, Note_off_c, 0, 76, 59
1, 658292, Note_on_c, 0, 78, 60
1, 658295, Note_on_c, 0, 73, 58
1, 658320, Note_off_c, 0, 78, 65
1, 658328, Note_off_c, 0, 73, 64
1, 658361, Note_on_c, 0, 72, 61
1, 658377, Note_on_c, 0, 76, 47
1, 658382, Note_on_c, 0, 79, 40
1, 658393, Note_off_c, 0, 72, 64
1, 658405, Note_off_c, 0, 76, 57
1, 658408, Note_on_c, 0, 78, 70
1, 658410, Note_off_c, 0, 79, 58
1, 658412, Note_on_c, 0, 73, 66
1, 658429, Poly_aftertouch_c, 0, 83, 127
1, 658432, Note_off_c, 0, 78, 67
1, 658436, Note_off_c, 0, 73, 69
1, 658467, Poly_aftertouch_c, 0, 70, 127
1, 658477, Note_on_c, 0, 72, 63
1, 658491, Note_on_c, 0, 76, 63
1, 658498, Note_on_c, 0, 79, 58
1, 658509, Note_off_c, 0, 72, 65
1, 658517, Note_off_c, 0, 76, 66
1, 658519, Note_off_c, 0, 79, 65
1, 658522, Note_on_c, 0, 78, 71
1, 658529, Note_on_c, 0, 73, 51
1, 658530, Poly_aftertouch_c, 0, 70, 0
1, 658548, Note_on_c, 0, 70, 30
1, 658551, Note_off_c, 0, 78, 63
1, 658554, Note_off_c, 0, 73, 65
1, 658570, Control_c, 0, 64, 76
1, 658573, Poly_aftertouch_c, 0, 83, 0
1, 658581, Note_off_c, 0, 70, 49
1, 658582, Note_on_c, 0, 72, 70
1, 658584, Control_c, 0, 64, 71
1, 658587, Note_on_c, 0, 76, 68
1, 658587, Note_on_c, 0, 79, 71
1, 658599, Control_c, 0, 64, 86
1, 658610, Poly_aftertouch_c, 0, 83, 127
1, 658614, Control_c, 0, 64, 127
1, 658618, Note_off_c, 0, 72, 63
1, 658622, Note_off_c, 0, 76, 63
1, 658623, Note_off_c, 0, 79, 62
1, 658636, Note_on_c, 0, 78, 77
1, 658640, Note_on_c, 0, 73, 65
1, 658662, Note_off_c, 0, 78, 65
1, 658666, Note_off_c, 0, 73, 66
1, 658667, Poly_aftertouch_c, 0, 83, 0
1, 658668, Note_on_c, 0, 70, 46
1, 658686, Note_on_c, 0, 72, 73
1, 658691, Note_on_c, 0, 76, 74
1, 658695, Note_off_c, 0, 70, 56
1, 658700, Note_on_c, 0, 79, 68
1, 658719, Note_off_c, 0, 72, 60
1, 658726, Note_off_c, 0, 76, 63
1, 658727, Note_off_c, 0, 79, 65
1, 658736, Note_on_c, 0, 78, 77
1, 658745, Note_on_c, 0, 73, 64
1, 658769, Note_off_c, 0, 73, 68
1, 658774, Note_off_c, 0, 78, 61
1, 658774, Poly_aftertouch_c, 0, 83, 0
1, 658777, Note_on_c, 0, 70, 52
1, 658790, Note_on_c, 0, 79, 72
1, 658798, Note_off_c, 0, 70, 62
1, 658799, Note_on_c, 0, 72, 74
1, 658799, Note_on_c, 0, 76, 74
1, 658826, Note_off_c, 0, 72, 65
1, 658829, Note_off_c, 0, 76, 65
1, 658842, Note_on_c, 0, 73, 70
1, 658843, Note_on_c, 0, 78, 82
1, 658843, Note_off_c, 0, 79, 65
1, 658856, Poly_aftertouch_c, 0, 83, 0
1, 658870, Note_off_c, 0, 78, 63
1, 658871, Note_on_c, 0, 70, 61
1, 658876, Note_off_c, 0, 73, 66
1, 658889, Note_off_c, 0, 70, 67
1, 658890, Note_on_c, 0, 72, 77
1, 658896, Note_on_c, 0, 76, 83
1, 658896, Note_on_c, 0, 79, 69
1, 658924, Note_off_c, 0, 76, 62
1, 658930, Note_off_c, 0, 72, 60
1, 658938, Note_off_c, 0, 79, 63
1, 658943, Note_on_c, 0, 78, 83
1, 658951, Note_on_c, 0, 70, 74
1, 658954, Note_on_c, 0, 73, 79
1, 658969, Note_off_c, 0, 78, 62
1, 658976, Note_off_c, 0, 73, 70
1, 658981, Note_off_c, 0, 70, 64
1, 658991, Note_on_c, 0, 72, 77
1, 658991, Note_on_c, 0, 76, 82
1, 658991, Note_on_c, 0, 79, 76
1, 659026, Note_off_c, 0, 72, 61
1, 659028, Note_off_c, 0, 76, 62
1, 659032, Note_on_c, 0, 73, 70
1, 659035, Note_on_c, 0, 78, 90
1, 659037, Note_off_c, 0, 79, 66
1, 659039, Note_on_c, 0, 70, 73
1, 659075, Note_off_c, 0, 73, 64
1, 659077, Note_off_c, 0, 70, 60
1, 659078, Note_on_c, 0, 79, 76
1, 659079, Note_off_c, 0, 78, 61
1, 659079, Note_on_c, 0, 76, 71
1, 659080, Note_on_c, 0, 72, 75
1, 659119, Note_off_c, 0, 72, 59
1, 659122, Note_off_c, 0, 76, 66
1, 659130, Note_off_c, 0, 79, 66
1, 659133, Note_on_c, 0, 78, 78
1, 659140, Note_on_c, 0, 73, 73
1, 659143, Note_on_c, 0, 70, 71
1, 659162, Note_off_c, 0, 78, 65
1, 659164, Note_off_c, 0, 73, 69
1, 659172, Note_off_c, 0, 70, 64
1, 659174, Note_on_c, 0, 79, 82
1, 659175, Note_on_c, 0, 72, 85
1, 659178, Note_on_c, 0, 76, 87
1, 659223, Note_off_c, 0, 72, 61
1, 659225, Note_off_c, 0, 76, 63
1, 659229, Note_off_c, 0, 79, 66
1, 659239, Note_on_c, 0, 73, 80
1, 659240, Note_on_c, 0, 78, 90
1, 659241, Note_on_c, 0, 70, 77
1, 659260, Note_off_c, 0, 78, 65
1, 659264, Note_off_c, 0, 73, 68
1, 659276, Note_off_c, 0, 70, 63
1, 659282, Note_on_c, 0, 72, 85
1, 659282, Note_on_c, 0, 79, 88
1, 659283, Note_on_c, 0, 76, 85
1, 659309, Note_off_c, 0, 72, 64
1, 659311, Note_off_c, 0, 76, 65
1, 659321, Note_off_c, 0, 79, 68
1, 659328, Note_on_c, 0, 78, 90
1, 659336, Note_on_c, 0, 73, 88
1, 659339, Note_on_c, 0, 70, 79
1, 659364, Note_off_c, 0, 73, 66
1, 659368, Note_off_c, 0, 70, 65
1, 659371, Note_off_c, 0, 78, 65
1, 659380, Note_on_c, 0, 72, 85
1, 659382, Note_on_c, 0, 76, 92
1, 659382, Note_on_c, 0, 79, 92
1, 659402, Note_off_c, 0, 72, 67
1, 659404, Note_off_c, 0, 76, 66
1, 659423, Note_off_c, 0, 79, 63
1, 659425, Note_on_c, 0, 78, 88
1, 659431, Note_on_c, 0, 70, 78
1, 659431, Note_on_c, 0, 73, 88
1, 659454, Note_off_c, 0, 73, 66
1, 659461, Note_off_c, 0, 70, 64
1, 659463, Note_off_c, 0, 78, 61
1, 659473, Note_on_c, 0, 76, 92
1, 659473, Note_on_c, 0, 79, 78
1, 659473, Note_on_c, 0, 72, 84
1, 659500, Note_off_c, 0, 72, 66
1, 659509, Note_off_c, 0, 76, 64
1, 659515, Note_off_c, 0, 79, 66
1, 659517, Note_on_c, 0, 78, 87
1, 659520, Note_on_c, 0, 70, 70
1, 659520, Note_on_c, 0, 73, 82
1, 659553, Note_off_c, 0, 70, 57
1, 659554, Note_off_c, 0, 73, 62
1, 659556, Poly_aftertouch_c, 0, 79, 0
1, 659562, Note_on_c, 0, 76, 90
1, 659562, Note_on_c, 0, 79, 82
1, 659562, Note_off_c, 0, 78, 65
1, 659562, Note_on_c, 0, 72, 87
1, 659582, Note_on_c, 0, 81, 56
1, 659583, Note_off_c, 0, 72, 68
1, 659592, Note_off_c, 0, 76, 64
1, 659604, Note_off_c, 0, 81, 58
1, 659609, Note_off_c, 0, 79, 65
1, 659613, Note_on_c, 0, 73, 93
1, 659613, Note_on_c, 0, 78, 80
1, 659633, Note_on_c, 0, 70, 54
1, 659638, Note_on_c, 0, 79, 48
1, 659649, Note_on_c, 0, 72, 29
1, 659650, Note_off_c, 0, 72, 127
1, 659653, Note_off_c, 0, 70, 62
1, 659665, Note_off_c, 0, 79, 59
1, 659673, Note_off_c, 0, 73, 67
1, 659675, Note_off_c, 0, 78, 61
1, 659683, Note_on_c, 0, 91, 94
1, 659684, Note_on_c, 0, 79, 78
1, 659684, Note_on_c, 0, 88, 88
1, 659685, Note_on_c, 0, 84, 91
1, 659695, Note_on_c, 0, 81, 45
1, 659705, Note_off_c, 0, 84, 72
1, 659706, Note_off_c, 0, 79, 69
1, 659707, Note_off_c, 0, 88, 70
1, 659720, Note_off_c, 0, 81, 60
1, 659725, Note_off_c, 0, 91, 65
1, 659729, Note_on_c, 0, 78, 91
1, 659736, Note_on_c, 0, 70, 69
1, 659762, Note_off_c, 0, 70, 66
1, 659768, Note_off_c, 0, 78, 65
1, 659777, Note_on_c, 0, 84, 43
1, 659780, Note_on_c, 0, 79, 25
1, 659785, Note_on_c, 0, 88, 81
1, 659790, Note_on_c, 0, 91, 87
1, 659807, Note_off_c, 0, 88, 71
1, 659809, Note_off_c, 0, 91, 71
1, 659809, Note_off_c, 0, 79, 64
1, 659809, Note_off_c, 0, 84, 67
1, 659831, Note_on_c, 0, 78, 107
1, 659837, Note_on_c, 0, 70, 85
1, 659848, Note_on_c, 0, 73, 61
1, 659848, Note_on_c, 0, 87, 23
1, 659849, Note_off_c, 0, 87, 127
1, 659866, Note_off_c, 0, 78, 65
1, 659868, Note_off_c, 0, 73, 65
1, 659875, Note_on_c, 0, 88, 72
1, 659879, Note_on_c, 0, 84, 93
1, 659881, Note_on_c, 0, 79, 99
1, 659881, Note_on_c, 0, 91, 84
1, 659883, Note_off_c, 0, 70, 62
1, 659889, Poly_aftertouch_c, 0, 87, 0
1, 659896, Note_off_c, 0, 84, 75
1, 659897, Note_off_c, 0, 79, 74
1, 659904, Note_off_c, 0, 88, 69
1, 659910, Note_off_c, 0, 91, 62
1, 659932, Note_on_c, 0, 78, 113
1, 659939, Note_on_c, 0, 70, 81
1, 659939, Note_on_c, 0, 73, 77
1, 659971, Note_off_c, 0, 78, 67
1, 659972, Note_off_c, 0, 73, 68
1, 659974, Note_off_c, 0, 70, 65
1, 659974, Note_on_c, 0, 84, 93
1, 659976, Note_on_c, 0, 79, 99
1, 659981, Note_on_c, 0, 91, 94
1, 659983, Note_on_c, 0, 88, 98
1, 660001, Note_off_c, 0, 88, 69
1, 660001, Note_off_c, 0, 79, 67
1, 660007, Note_off_c, 0, 84, 65
1, 660021, Note_off_c, 0, 91, 65
1, 660039, Note_on_c, 0, 78, 105
1, 660045, Note_on_c, 0, 73, 80
1, 660051, Note_on_c, 0, 70, 86
1, 660069, Note_on_c, 0, 88, 88
1, 660070, Note_off_c, 0, 73, 65
1, 660070, Note_off_c, 0, 78, 66
1, 660071, Note_on_c, 0, 79, 104
1, 660072, Note_on_c, 0, 91, 90
1, 660073, Note_on_c, 0, 84, 100
1, 660076, Note_off_c, 0, 70, 65
1, 660097, Note_off_c, 0, 84, 65
1, 660099, Note_off_c, 0, 79, 65
1, 660108, Note_off_c, 0, 88, 66
1, 660114, Note_off_c, 0, 91, 65
1, 660137, Note_on_c, 0, 78, 100
1, 660140, Note_on_c, 0, 73, 75
1, 660142, Note_on_c, 0, 70, 79
1, 660162, Note_on_c, 0, 79, 106
1, 660163, Note_on_c, 0, 91, 93
1, 660164, Note_on_c, 0, 84, 106
1, 660165, Note_on_c, 0, 88, 94
1, 660170, Note_off_c, 0, 78, 61
1, 660176, Note_off_c, 0, 73, 65
1, 660181, Note_off_c, 0, 70, 60
1, 660192, Note_off_c, 0, 79, 64
1, 660197, Note_off_c, 0, 84, 64
1, 660197, Note_off_c, 0, 88, 66
1, 660203, Note_off_c, 0, 91, 66
1, 660228, Note_on_c, 0, 78, 96
1, 660236, Note_on_c, 0, 70, 80
1, 660238, Note_on_c, 0, 73, 84
1, 660260, Note_on_c, 0, 79, 96
1, 660265, Note_on_c, 0, 88, 96
1, 660265, Note_off_c, 0, 70, 65
1, 660266, Note_on_c, 0, 84, 100
1, 660266, Note_on_c, 0, 91, 90
1, 660271, Note_off_c, 0, 78, 66
1, 660277, Note_off_c, 0, 73, 63
1, 660281, Note_on_c, 0, 85, 44
1, 660282, Note_off_c, 0, 85, 127
1, 660284, Note_off_c, 0, 84, 70
1, 660290, Note_off_c, 0, 79, 64
1, 660290, Note_off_c, 0, 88, 68
1, 660290, Note_off_c, 0, 91, 64
1, 660322, Note_on_c, 0, 78, 98
1, 660331, Note_on_c, 0, 70, 81
1, 660332, Note_on_c, 0, 73, 84
1, 660347, Note_on_c, 0, 84, 73
1, 660349, Note_off_c, 0, 70, 71
1, 660353, Note_on_c, 0, 79, 93
1, 660354, Note_on_c, 0, 88, 94
1, 660354, Note_on_c, 0, 91, 87
1, 660364, Note_off_c, 0, 78, 64
1, 660376, Note_off_c, 0, 73, 64
1, 660377, Note_off_c, 0, 91, 64
1, 660380, Note_off_c, 0, 79, 66
1, 660391, Note_off_c, 0, 84, 65
1, 660396, Note_off_c, 0, 88, 68
1, 660404, Note_on_c, 0, 70, 45
1, 660422, Note_off_c, 0, 70, 0
1, 660430, Note_on_c, 0, 78, 117
1, 660437, Note_on_c, 0, 70, 76
1, 660453, Note_on_c, 0, 74, 77
1, 660458, Note_on_c, 0, 79, 105
1, 660461, Note_off_c, 0, 78, 67
1, 660462, Note_on_c, 0, 91, 94
1, 660462, Note_off_c, 0, 70, 69
1, 660462, Note_on_c, 0, 84, 106
1, 660463, Note_on_c, 0, 88, 103
1, 660473, Note_on_c, 0, 75, 36
1, 660473, Note_off_c, 0, 74, 70
1, 660488, Note_off_c, 0, 79, 70
1, 660495, Note_off_c, 0, 84, 67
1, 660500, Note_off_c, 0, 88, 68
1, 660504, Note_off_c, 0, 91, 65
1, 660506, Note_off_c, 0, 75, 43
1, 660603, Control_c, 0, 64, 118
1, 660617, Control_c, 0, 64, 63
1, 660632, Control_c, 0, 64, 0
1, 660666, Note_on_c, 0, 65, 74
1, 660675, Note_on_c, 0, 67, 78
1, 660682, Note_off_c, 0, 65, 66
1, 660700, Note_on_c, 0, 69, 86
1, 660703, Note_off_c, 0, 67, 68
1, 660720, Note_on_c, 0, 71, 88
1, 660721, Note_off_c, 0, 69, 70
1, 660737, Note_off_c, 0, 71, 70
1, 660741, Note_on_c, 0, 72, 85
1, 660760, Note_on_c, 0, 74, 81
1, 660761, Note_off_c, 0, 72, 68
1, 660775, Note_on_c, 0, 76, 90
1, 660781, Note_off_c, 0, 74, 69
1, 660784, Note_on_c, 0, 69, 22
1, 660792, Note_on_c, 0, 71, 40
1, 660793, Note_off_c, 0, 71, 127
1, 660795, Note_on_c, 0, 77, 83
1, 660796, Note_off_c, 0, 76, 70
1, 660810, Note_on_c, 0, 79, 85
1, 660814, Note_off_c, 0, 69, 57
1, 660815, Poly_aftertouch_c, 0, 71, 0
1, 660820, Note_off_c, 0, 77, 67
1, 660825, Note_on_c, 0, 81, 84
1, 660829, Note_on_c, 0, 72, 24
1, 660830, Note_off_c, 0, 72, 127
1, 660830, Note_off_c, 0, 79, 67
1, 660839, Note_on_c, 0, 83, 86
1, 660839, Note_off_c, 0, 81, 71
1, 660853, Note_on_c, 0, 84, 87
1, 660860, Note_on_c, 0, 74, 7
1, 660861, Note_off_c, 0, 74, 127
1, 660861, Note_off_c, 0, 83, 71
1, 660867, Note_on_c, 0, 86, 86
1, 660876, Note_off_c, 0, 84, 70
1, 660877, Note_on_c, 0, 76, 11
1, 660880, Note_on_c, 0, 88, 84
1, 660890, Note_off_c, 0, 86, 70
1, 660895, Note_on_c, 0, 89, 89
1, 660901, Note_off_c, 0, 88, 72
1, 660907, Note_on_c, 0, 91, 89
1, 660914, Note_off_c, 0, 89, 71
1, 660921, Note_on_c, 0, 93, 88
1, 660925, Note_off_c, 0, 91, 72
1, 660935, Note_off_c, 0, 76, 49
1, 660936, Note_on_c, 0, 95, 93
1, 660939, Note_off_c, 0, 93, 72
1, 660948, Note_on_c, 0, 96, 92
1, 660953, Note_off_c, 0, 95, 73
1, 660960, Note_on_c, 0, 98, 93
1, 660966, Note_off_c, 0, 96, 73
1, 660972, Note_on_c, 0, 100, 89
1, 660980, Note_off_c, 0, 98, 71
1, 660988, Note_on_c, 0, 101, 79
1, 660992, Note_off_c, 0, 100, 68
1, 661002, Note_off_c, 0, 101, 69
1, 661059, Note_on_c, 0, 100, 15
1, 661060, Note_off_c, 0, 100, 127
1, 661084, Control_c, 0, 64, 56
1, 661089, Note_on_c, 0, 78, 83
1, 661089, Note_on_c, 0, 90, 98
1, 661094, Note_on_c, 0, 85, 83
1, 661099, Control_c, 0, 64, 127
1, 661104, Note_on_c, 0, 103, 122
1, 661105, Note_on_c, 0, 101, 97
1, 661117, Note_off_c, 0, 90, 65
1, 661118, Note_off_c, 0, 85, 68
1, 661127, Note_off_c, 0, 78, 60
1, 661131, Note_off_c, 0, 103, 69
1, 661133, Note_on_c, 0, 82, 33
1, 661133, Note_off_c, 0, 101, 68
1, 661164, Note_off_c, 0, 82, 54
1, 661168, Note_on_c, 0, 103, 96
1, 661189, Note_on_c, 0, 101, 75
1, 661216, Note_off_c, 0, 103, 66
1, 661240, Note_on_c, 0, 100, 90
1, 661240, Note_off_c, 0, 101, 60
1, 661273, Note_on_c, 0, 98, 83
1, 661277, Note_off_c, 0, 100, 62
1, 661306, Note_on_c, 0, 96, 85
1, 661314, Note_off_c, 0, 98, 62
1, 661342, Note_on_c, 0, 95, 86
1, 661346, Note_off_c, 0, 96, 62
1, 661372, Note_on_c, 0, 93, 90
1, 661376, Note_off_c, 0, 95, 64
1, 661403, Note_on_c, 0, 91, 85
1, 661413, Note_off_c, 0, 93, 64
1, 661445, Note_on_c, 0, 89, 87
1, 661455, Note_off_c, 0, 91, 61
1, 661479, Note_on_c, 0, 88, 86
1, 661488, Note_off_c, 0, 89, 62
1, 661510, Note_on_c, 0, 86, 86
1, 661515, Note_off_c, 0, 88, 62
1, 661538, Note_on_c, 0, 84, 89
1, 661542, Note_off_c, 0, 86, 61
1, 661565, Note_on_c, 0, 83, 88
1, 661568, Note_off_c, 0, 84, 60
1, 661591, Note_on_c, 0, 81, 89
1, 661592, Note_off_c, 0, 83, 63
1, 661617, Note_on_c, 0, 79, 87
1, 661621, Note_off_c, 0, 81, 60
1, 661644, Note_on_c, 0, 77, 89
1, 661646, Note_off_c, 0, 79, 58
1, 661668, Note_off_c, 0, 77, 59
1, 661670, Note_on_c, 0, 76, 91
1, 661695, Note_on_c, 0, 74, 88
1, 661696, Note_off_c, 0, 76, 55
1, 661720, Note_on_c, 0, 72, 88
1, 661720, Note_off_c, 0, 74, 56
1, 661743, Note_off_c, 0, 72, 55
1, 661746, Note_on_c, 0, 71, 89
1, 661766, Note_off_c, 0, 71, 60
1, 661771, Note_on_c, 0, 69, 93
1, 661792, Note_off_c, 0, 69, 69
1, 661795, Note_on_c, 0, 67, 92
1, 661820, Note_on_c, 0, 65, 85
1, 661820, Note_off_c, 0, 67, 63
1, 661846, Note_on_c, 0, 64, 89
1, 661846, Note_off_c, 0, 65, 56
1, 661866, Note_off_c, 0, 64, 70
1, 661870, Note_on_c, 0, 62, 90
1, 661892, Note_off_c, 0, 62, 69
1, 661894, Note_on_c, 0, 60, 89
1, 661918, Note_on_c, 0, 59, 86
1, 661918, Note_off_c, 0, 60, 59
1, 661938, Note_on_c, 0, 64, 29
1, 661943, Note_on_c, 0, 57, 88
1, 661943, Note_off_c, 0, 59, 64
1, 661965, Note_off_c, 0, 57, 60
1, 661968, Note_on_c, 0, 55, 89
1, 661974, Note_off_c, 0, 64, 55
1, 661989, Note_off_c, 0, 55, 67
1, 661993, Note_on_c, 0, 53, 89
1, 662015, Note_off_c, 0, 53, 66
1, 662017, Note_on_c, 0, 52, 91
1, 662040, Note_on_c, 0, 50, 88
1, 662042, Note_off_c, 0, 52, 67
1, 662057, Note_off_c, 0, 50, 68
1, 662060, Note_on_c, 0, 48, 82
1, 662075, Note_on_c, 0, 47, 80
1, 662078, Note_off_c, 0, 48, 66
1, 662090, Note_on_c, 0, 45, 84
1, 662093, Note_on_c, 0, 30, 73
1, 662094, Note_off_c, 0, 47, 67
1, 662106, Note_off_c, 0, 45, 69
1, 662111, Note_on_c, 0, 43, 91
1, 662139, Note_off_c, 0, 43, 50
1, 662162, Note_on_c, 0, 34, 69
1, 662165, Note_on_c, 0, 31, 15
1, 662169, Note_on_c, 0, 41, 47
1, 662170, Note_off_c, 0, 41, 127
1, 662213, Poly_aftertouch_c, 0, 41, 0
1, 662221, Note_on_c, 0, 37, 65
1, 662284, Control_c, 0, 64, 74
1, 662295, Note_off_c, 0, 31, 34
1, 662299, Control_c, 0, 64, 29
1, 662314, Control_c, 0, 64, 0
1, 662350, Note_off_c, 0, 30, 63
1, 662373, Note_on_c, 0, 42, 112
1, 662376, Note_on_c, 0, 43, 85
1, 662377, Note_on_c, 0, 41, 90
1, 662380, Note_on_c, 0, 40, 90
1, 662382, Note_on_c, 0, 36, 77
1, 662382, Note_on_c, 0, 38, 82
1, 662382, Note_on_c, 0, 35, 89
1, 662388, Control_c, 0, 64, 54
1, 662391, Note_off_c, 0, 37, 0
1, 662391, Note_on_c, 0, 37, 54
1, 662400, Note_off_c, 0, 40, 66
1, 662400, Note_off_c, 0, 35, 65
1, 662400, Note_off_c, 0, 36, 68
1, 662403, Control_c, 0, 64, 127
1, 662405, Note_off_c, 0, 38, 65
1, 662405, Note_off_c, 0, 43, 67
1, 662408, Note_off_c, 0, 41, 68
1, 662415, Note_off_c, 0, 34, 61
1, 662418, Note_off_c, 0, 42, 70
1, 662426, Note_off_c, 0, 37, 56
1, 662481, Note_on_c, 0, 40, 22
1, 662502, Note_off_c, 0, 40, 65
1, 662506, Note_on_c, 0, 36, 3
1, 662522, Poly_aftertouch_c, 0, 38, 127
1, 662525, Note_off_c, 0, 36, 47
1, 662551, Poly_aftertouch_c, 0, 35, 0
1, 662560, Poly_aftertouch_c, 0, 38, 0
1, 662617, Note_on_c, 0, 40, 3
1, 662653, Note_off_c, 0, 40, 34
1, 663033, Control_c, 0, 64, 88
1, 663048, Control_c, 0, 64, 50
1, 663063, Control_c, 0, 64, 0
1, 663138, End_track
0, 0, End_of_file
