0, 0, Header, 0, 1, 384
1, 0, Start_track
1, 0, Title_t, "Sonata Op. 31/1--Arthur Khmara  "
1, 0, Text_t, "2008 e-Piano Junior Competition recital round"
1, 0, Text_t, "recorded July 2008"
1, 0, Text_t, "http://www.piano-e-competition.com/"
1, 0, Text_t, "File processed for distribution by software from Zenph Studios, Inc., http://www.zenph.com"
1, 0, Instrument_name_t, "Yamaha Disklavier Pro Mark IV concert grand piano, model DCFIIISM4PRO"
1, 0, Sequencer_specific, 39, 67, 113, 0, 1, 0, 1, 0, 83, 111, 110, 97, 116, 97, 32, 79, 112, 46, 32, 51, 49, 47, 49, 32, 65, 114, 116, 104, 117, 114, 32, 75, 104, 109, 97, 114, 97, 32, 32, 32
1, 0, Sequencer_specific, 6, 67, 113, 0, 0, 0, 69
1, 0, System_exclusive, 21, 67, 113, 126, 21, 0, 2, 2, 0, 3, 14, 1, 4, 1, 13, 13, 10, 11, 9, 2, 7, 247
1, 0, Sequencer_specific, 5, 67, 123, 12, 2, 1
1, 0, Tempo, 512820
1, 0, Time_signature, 4, 2, 24, 8
1, 0, System_exclusive, 5, 126, 127, 9, 1, 247
1, 1, System_exclusive, 8, 67, 16, 76, 0, 0, 126, 0, 247
1, 2, System_exclusive, 8, 67, 16, 76, 8, 9, 7, 1, 247
1, 3, Control_c, 0, 0, 0
1, 3, Control_c, 1, 0, 0
1, 3, Control_c, 2, 0, 0
1, 3, Control_c, 3, 0, 0
1, 3, Control_c, 4, 0, 0
1, 3, Control_c, 5, 0, 0
1, 3, Control_c, 6, 0, 0
1, 3, Control_c, 7, 0, 0
1, 3, Control_c, 8, 0, 0
1, 3, Control_c, 9, 0, 127
1, 3, Control_c, 10, 0, 0
1, 3, Control_c, 11, 0, 0
1, 3, Control_c, 12, 0, 0
1, 3, Control_c, 13, 0, 0
1, 3, Control_c, 14, 0, 0
1, 3, Control_c, 15, 0, 0
1, 4, Control_c, 0, 32, 0
1, 4, Control_c, 1, 32, 0
1, 4, Control_c, 2, 32, 0
1, 4, Control_c, 3, 32, 0
1, 4, Control_c, 4, 32, 0
1, 4, Control_c, 5, 32, 0
1, 4, Control_c, 6, 32, 0
1, 4, Control_c, 7, 32, 0
1, 4, Control_c, 8, 32, 0
1, 4, Control_c, 9, 32, 0
1, 4, Control_c, 10, 32, 0
1, 4, Control_c, 11, 32, 0
1, 4, Control_c, 12, 32, 0
1, 4, Control_c, 13, 32, 0
1, 4, Control_c, 14, 32, 0
1, 4, Control_c, 15, 32, 0
1, 5, Program_c, 0, 0
1, 5, Program_c, 1, 0
1, 5, Program_c, 2, 0
1, 5, Program_c, 3, 0
1, 5, Program_c, 4, 0
1, 5, Program_c, 5, 0
1, 5, Program_c, 6, 0
1, 5, Program_c, 7, 0
1, 5, Program_c, 8, 0
1, 5, Program_c, 9, 0
1, 5, Program_c, 10, 0
1, 5, Program_c, 11, 0
1, 5, Program_c, 12, 0
1, 5, Program_c, 13, 0
1, 5, Program_c, 14, 0
1, 5, Program_c, 15, 0
1, 6, Control_c, 0, 7, 100
1, 6, Control_c, 1, 7, 100
1, 6, Control_c, 2, 7, 100
1, 6, Control_c, 3, 7, 100
1, 6, Control_c, 4, 7, 100
1, 6, Control_c, 5, 7, 100
1, 6, Control_c, 6, 7, 100
1, 6, Control_c, 7, 7, 100
1, 6, Control_c, 8, 7, 100
1, 6, Control_c, 9, 7, 100
1, 6, Control_c, 10, 7, 100
1, 6, Control_c, 11, 7, 100
1, 6, Control_c, 12, 7, 100
1, 6, Control_c, 13, 7, 100
1, 6, Control_c, 14, 7, 100
1, 6, Control_c, 15, 7, 100
1, 1129, Note_on_c, 0, 79, 75
1, 1197, Note_on_c, 0, 62, 58
1, 1207, Note_on_c, 0, 59, 56
1, 1208, Note_on_c, 0, 55, 57
1, 1290, Note_off_c, 0, 59, 64
1, 1291, Note_off_c, 0, 55, 64
1, 1291, Note_off_c, 0, 62, 63
1, 1688, Note_on_c, 0, 78, 66
1, 1690, Note_off_c, 0, 79, 54
1, 1748, Note_on_c, 0, 76, 65
1, 1749, Note_off_c, 0, 78, 64
1, 1795, Note_off_c, 0, 76, 67
1, 1817, Note_on_c, 0, 74, 67
1, 1888, Note_on_c, 0, 75, 70
1, 1888, Note_off_c, 0, 74, 64
1, 1958, Note_off_c, 0, 75, 67
1, 1960, Note_on_c, 0, 76, 74
1, 2017, Note_off_c, 0, 76, 66
1, 2038, Note_on_c, 0, 71, 68
1, 2101, Note_off_c, 0, 71, 62
1, 2106, Note_on_c, 0, 74, 69
1, 2182, Note_on_c, 0, 72, 75
1, 2190, Note_off_c, 0, 74, 61
1, 2252, Note_on_c, 0, 71, 65
1, 2273, Note_off_c, 0, 72, 62
1, 2308, Note_off_c, 0, 71, 61
1, 2316, Note_on_c, 0, 69, 74
1, 2372, Note_off_c, 0, 69, 64
1, 2387, Note_on_c, 0, 67, 71
1, 2640, Note_off_c, 0, 67, 62
1, 2932, Note_on_c, 0, 62, 43
1, 2935, Note_on_c, 0, 67, 48
1, 2943, Note_on_c, 0, 59, 39
1, 3000, Note_on_c, 0, 43, 61
1, 3005, Note_on_c, 0, 55, 52
1, 3019, Note_off_c, 0, 62, 59
1, 3028, Note_off_c, 0, 67, 59
1, 3029, Note_off_c, 0, 43, 63
1, 3030, Note_off_c, 0, 55, 63
1, 3034, Note_off_c, 0, 59, 52
1, 3227, Note_on_c, 0, 71, 52
1, 3237, Note_on_c, 0, 59, 44
1, 3239, Note_on_c, 0, 62, 47
1, 3303, Note_off_c, 0, 62, 54
1, 3311, Note_off_c, 0, 71, 57
1, 3314, Note_on_c, 0, 43, 52
1, 3314, Note_on_c, 0, 55, 56
1, 3318, Note_off_c, 0, 59, 54
1, 3338, Note_off_c, 0, 55, 63
1, 3344, Note_off_c, 0, 43, 54
1, 3544, Note_on_c, 0, 67, 51
1, 3550, Note_on_c, 0, 62, 45
1, 3555, Note_on_c, 0, 59, 41
1, 3627, Note_on_c, 0, 43, 62
1, 3635, Note_on_c, 0, 55, 51
1, 3657, Note_off_c, 0, 43, 63
1, 3659, Note_off_c, 0, 55, 58
1, 3745, Note_off_c, 0, 59, 62
1, 3764, Note_off_c, 0, 62, 62
1, 3775, Note_off_c, 0, 67, 62
1, 4171, Note_on_c, 0, 67, 54
1, 4175, Note_on_c, 0, 62, 54
1, 4184, Note_on_c, 0, 59, 52
1, 4228, Note_off_c, 0, 59, 61
1, 4242, Note_off_c, 0, 62, 62
1, 4256, Note_on_c, 0, 43, 62
1, 4261, Note_on_c, 0, 55, 57
1, 4268, Note_off_c, 0, 67, 62
1, 4291, Note_off_c, 0, 55, 65
1, 4293, Note_off_c, 0, 43, 61
1, 4484, Note_on_c, 0, 74, 61
1, 4493, Note_on_c, 0, 62, 58
1, 4494, Note_on_c, 0, 67, 54
1, 4509, Note_on_c, 0, 71, 46
1, 4541, Note_off_c, 0, 71, 54
1, 4542, Note_off_c, 0, 67, 62
1, 4548, Note_off_c, 0, 74, 65
1, 4561, Note_on_c, 0, 43, 62
1, 4561, Note_on_c, 0, 55, 61
1, 4576, Note_off_c, 0, 62, 60
1, 4591, Note_off_c, 0, 55, 66
1, 4593, Note_off_c, 0, 43, 62
1, 4791, Note_on_c, 0, 67, 60
1, 4796, Note_on_c, 0, 62, 56
1, 4797, Note_on_c, 0, 59, 57
1, 4879, Note_on_c, 0, 55, 67
1, 4879, Note_on_c, 0, 43, 67
1, 4906, Note_off_c, 0, 55, 66
1, 4906, Note_off_c, 0, 43, 63
1, 4992, Note_off_c, 0, 59, 62
1, 5025, Note_off_c, 0, 62, 61
1, 5037, Note_off_c, 0, 67, 61
1, 5423, Note_on_c, 0, 71, 87
1, 5424, Note_on_c, 0, 59, 85
1, 5424, Note_on_c, 0, 62, 90
1, 5433, Note_on_c, 0, 67, 79
1, 5460, Note_off_c, 0, 59, 65
1, 5477, Note_off_c, 0, 62, 64
1, 5482, Control_c, 0, 64, 73
1, 5490, Note_on_c, 0, 55, 90
1, 5491, Note_off_c, 0, 67, 63
1, 5495, Note_on_c, 0, 43, 91
1, 5497, Control_c, 0, 64, 104
1, 5511, Note_off_c, 0, 71, 62
1, 5512, Control_c, 0, 64, 127
1, 5525, Note_off_c, 0, 55, 67
1, 5535, Note_off_c, 0, 43, 64
1, 5719, Control_c, 0, 64, 96
1, 5727, Note_on_c, 0, 67, 98
1, 5727, Note_on_c, 0, 79, 91
1, 5734, Control_c, 0, 64, 65
1, 5736, Note_on_c, 0, 71, 84
1, 5736, Note_on_c, 0, 76, 80
1, 5749, Control_c, 0, 64, 0
1, 5790, Note_off_c, 0, 67, 60
1, 5791, Note_on_c, 0, 52, 96
1, 5793, Note_on_c, 0, 40, 93
1, 5795, Note_off_c, 0, 79, 65
1, 5802, Note_off_c, 0, 71, 61
1, 5808, Control_c, 0, 64, 73
1, 5809, Note_off_c, 0, 76, 67
1, 5823, Control_c, 0, 64, 110
1, 5824, Note_off_c, 0, 52, 70
1, 5831, Note_off_c, 0, 40, 66
1, 5838, Control_c, 0, 64, 127
1, 6051, Note_on_c, 0, 66, 100
1, 6052, Note_on_c, 0, 78, 97
1, 6056, Note_on_c, 0, 69, 88
1, 6060, Note_on_c, 0, 74, 80
1, 6113, Control_c, 0, 64, 95
1, 6125, Note_on_c, 0, 57, 100
1, 6128, Note_on_c, 0, 45, 96
1, 6128, Control_c, 0, 64, 69
1, 6143, Control_c, 0, 64, 0
1, 6165, Note_off_c, 0, 57, 66
1, 6166, Note_off_c, 0, 45, 68
1, 6210, Note_off_c, 0, 66, 64
1, 6241, Note_off_c, 0, 78, 63
1, 6243, Note_off_c, 0, 69, 65
1, 6255, Note_off_c, 0, 74, 60
1, 6787, Note_on_c, 0, 74, 66
1, 6789, Note_on_c, 0, 66, 61
1, 6790, Note_on_c, 0, 69, 65
1, 6796, Note_on_c, 0, 57, 55
1, 6798, Note_on_c, 0, 45, 64
1, 6815, Note_off_c, 0, 74, 65
1, 6818, Note_off_c, 0, 69, 69
1, 6819, Note_off_c, 0, 57, 56
1, 6822, Note_off_c, 0, 66, 66
1, 6826, Note_off_c, 0, 45, 66
1, 7102, Note_on_c, 0, 73, 77
1, 7116, Note_on_c, 0, 33, 67
1, 7116, Note_on_c, 0, 64, 62
1, 7117, Note_on_c, 0, 45, 67
1, 7126, Note_on_c, 0, 67, 52
1, 7130, Note_on_c, 0, 69, 53
1, 7142, Note_off_c, 0, 45, 67
1, 7144, Note_off_c, 0, 33, 66
1, 7148, Note_off_c, 0, 67, 62
1, 7149, Note_off_c, 0, 64, 65
1, 7152, Note_off_c, 0, 69, 62
1, 7161, Note_off_c, 0, 73, 61
1, 7421, Note_on_c, 0, 74, 63
1, 7428, Note_on_c, 0, 66, 58
1, 7428, Note_on_c, 0, 69, 50
1, 7429, Note_on_c, 0, 62, 52
1, 7439, Note_on_c, 0, 38, 72
1, 7440, Note_on_c, 0, 50, 69
1, 7462, Note_off_c, 0, 62, 63
1, 7469, Note_off_c, 0, 66, 66
1, 7472, Note_off_c, 0, 38, 63
1, 7472, Note_off_c, 0, 50, 65
1, 7475, Note_off_c, 0, 69, 64
1, 7484, Note_off_c, 0, 74, 65
1, 8001, Note_on_c, 0, 77, 92
1, 8086, Note_on_c, 0, 65, 89
1, 8495, Note_off_c, 0, 65, 59
1, 8498, Note_on_c, 0, 64, 61
1, 8502, Note_on_c, 0, 76, 70
1, 8515, Note_off_c, 0, 77, 55
1, 8572, Note_off_c, 0, 76, 66
1, 8576, Note_on_c, 0, 74, 64
1, 8578, Note_off_c, 0, 64, 64
1, 8584, Note_on_c, 0, 62, 60
1, 8627, Note_off_c, 0, 74, 65
1, 8638, Note_on_c, 0, 72, 74
1, 8653, Note_off_c, 0, 62, 61
1, 8672, Note_on_c, 0, 60, 52
1, 8710, Note_off_c, 0, 72, 65
1, 8712, Note_on_c, 0, 73, 74
1, 8735, Note_on_c, 0, 61, 64
1, 8738, Note_off_c, 0, 60, 63
1, 8775, Note_off_c, 0, 61, 62
1, 8783, Note_on_c, 0, 62, 67
1, 8795, Note_off_c, 0, 73, 63
1, 8798, Note_on_c, 0, 74, 68
1, 8839, Note_off_c, 0, 62, 58
1, 8856, Note_on_c, 0, 57, 70
1, 8878, Note_on_c, 0, 69, 77
1, 8879, Note_off_c, 0, 74, 64
1, 8920, Note_off_c, 0, 57, 60
1, 8946, Note_on_c, 0, 60, 61
1, 8953, Note_on_c, 0, 72, 77
1, 8966, Note_off_c, 0, 69, 62
1, 8998, Note_off_c, 0, 60, 57
1, 9001, Note_on_c, 0, 58, 60
1, 9024, Note_on_c, 0, 70, 77
1, 9041, Note_off_c, 0, 72, 61
1, 9080, Note_on_c, 0, 57, 69
1, 9084, Note_off_c, 0, 58, 63
1, 9099, Note_on_c, 0, 69, 74
1, 9101, Note_off_c, 0, 70, 64
1, 9150, Note_on_c, 0, 55, 70
1, 9153, Note_off_c, 0, 57, 61
1, 9158, Note_off_c, 0, 69, 66
1, 9160, Note_on_c, 0, 67, 79
1, 9221, Note_off_c, 0, 55, 65
1, 9226, Note_on_c, 0, 53, 73
1, 9234, Note_on_c, 0, 65, 78
1, 9243, Note_off_c, 0, 67, 60
1, 9484, Note_off_c, 0, 65, 64
1, 9488, Note_off_c, 0, 53, 67
1, 9785, Note_on_c, 0, 65, 47
1, 9793, Note_on_c, 0, 57, 42
1, 9793, Note_on_c, 0, 60, 43
1, 9842, Note_off_c, 0, 60, 58
1, 9860, Note_on_c, 0, 41, 62
1, 9861, Note_on_c, 0, 53, 57
1, 9861, Note_off_c, 0, 57, 53
1, 9864, Note_off_c, 0, 65, 60
1, 9883, Note_off_c, 0, 53, 64
1, 9887, Note_off_c, 0, 41, 62
1, 10096, Note_on_c, 0, 69, 55
1, 10109, Note_on_c, 0, 60, 48
1, 10111, Note_on_c, 0, 57, 41
1, 10158, Note_off_c, 0, 60, 56
1, 10163, Note_on_c, 0, 41, 54
1, 10169, Note_on_c, 0, 53, 42
1, 10170, Note_off_c, 0, 69, 62
1, 10173, Note_off_c, 0, 57, 55
1, 10191, Note_off_c, 0, 41, 61
1, 10194, Note_off_c, 0, 53, 53
1, 10423, Note_on_c, 0, 65, 47
1, 10427, Note_on_c, 0, 60, 46
1, 10432, Note_on_c, 0, 57, 42
1, 10488, Note_on_c, 0, 41, 57
1, 10494, Note_on_c, 0, 53, 50
1, 10517, Note_off_c, 0, 41, 66
1, 10518, Note_off_c, 0, 53, 60
1, 10569, Note_off_c, 0, 57, 60
1, 10573, Note_off_c, 0, 60, 60
1, 10582, Note_off_c, 0, 65, 62
1, 11056, Note_on_c, 0, 65, 56
1, 11058, Note_on_c, 0, 57, 53
1, 11061, Note_on_c, 0, 60, 54
1, 11115, Note_off_c, 0, 60, 60
1, 11121, Note_off_c, 0, 57, 59
1, 11137, Note_on_c, 0, 41, 66
1, 11139, Note_on_c, 0, 53, 60
1, 11153, Note_off_c, 0, 65, 64
1, 11167, Note_off_c, 0, 41, 67
1, 11169, Note_off_c, 0, 53, 67
1, 11368, Note_on_c, 0, 72, 67
1, 11376, Note_on_c, 0, 65, 59
1, 11383, Note_on_c, 0, 60, 55
1, 11399, Note_on_c, 0, 69, 44
1, 11432, Note_off_c, 0, 69, 60
1, 11437, Note_off_c, 0, 72, 64
1, 11442, Note_off_c, 0, 65, 63
1, 11445, Note_on_c, 0, 53, 70
1, 11446, Note_on_c, 0, 41, 71
1, 11461, Note_off_c, 0, 60, 60
1, 11469, Note_off_c, 0, 53, 68
1, 11473, Note_off_c, 0, 41, 67
1, 11684, Note_on_c, 0, 65, 61
1, 11687, Note_on_c, 0, 57, 56
1, 11689, Note_on_c, 0, 60, 54
1, 11759, Note_on_c, 0, 53, 68
1, 11760, Note_on_c, 0, 41, 72
1, 11785, Note_off_c, 0, 53, 68
1, 11787, Note_off_c, 0, 41, 68
1, 11826, Note_off_c, 0, 57, 62
1, 11828, Note_off_c, 0, 60, 62
1, 11845, Note_off_c, 0, 65, 64
1, 12323, Note_on_c, 0, 57, 90
1, 12325, Note_on_c, 0, 60, 92
1, 12325, Note_on_c, 0, 69, 91
1, 12333, Note_on_c, 0, 65, 84
1, 12364, Note_off_c, 0, 57, 68
1, 12377, Note_off_c, 0, 60, 65
1, 12384, Control_c, 0, 64, 64
1, 12399, Control_c, 0, 64, 88
1, 12400, Note_on_c, 0, 53, 98
1, 12400, Note_off_c, 0, 65, 66
1, 12403, Note_on_c, 0, 41, 94
1, 12414, Control_c, 0, 64, 127
1, 12416, Note_off_c, 0, 69, 67
1, 12433, Note_off_c, 0, 53, 69
1, 12442, Note_off_c, 0, 41, 69
1, 12629, Control_c, 0, 64, 97
1, 12636, Note_on_c, 0, 65, 100
1, 12638, Note_on_c, 0, 69, 91
1, 12638, Note_on_c, 0, 77, 91
1, 12643, Note_on_c, 0, 74, 83
1, 12645, Control_c, 0, 64, 54
1, 12659, Control_c, 0, 64, 0
1, 12700, Note_on_c, 0, 50, 97
1, 12701, Note_on_c, 0, 38, 91
1, 12710, Note_off_c, 0, 69, 66
1, 12713, Note_off_c, 0, 65, 58
1, 12713, Note_off_c, 0, 77, 62
1, 12718, Control_c, 0, 64, 50
1, 12732, Note_off_c, 0, 50, 67
1, 12733, Control_c, 0, 64, 85
1, 12736, Note_off_c, 0, 38, 66
1, 12742, Note_off_c, 0, 74, 61
1, 12748, Control_c, 0, 64, 127
1, 12945, Note_on_c, 0, 76, 92
1, 12948, Note_on_c, 0, 64, 94
1, 12949, Note_on_c, 0, 67, 86
1, 12951, Note_on_c, 0, 72, 85
1, 13025, Note_on_c, 0, 55, 99
1, 13026, Note_on_c, 0, 43, 95
1, 13045, Control_c, 0, 64, 108
1, 13059, Control_c, 0, 64, 89
1, 13064, Note_off_c, 0, 43, 65
1, 13065, Note_off_c, 0, 55, 66
1, 13074, Control_c, 0, 64, 70
1, 13085, Note_off_c, 0, 64, 65
1, 13089, Control_c, 0, 64, 0
1, 13113, Note_off_c, 0, 67, 61
1, 13121, Note_off_c, 0, 76, 66
1, 13135, Note_off_c, 0, 72, 61
1, 13669, Note_on_c, 0, 72, 66
1, 13674, Note_on_c, 0, 64, 62
1, 13680, Note_on_c, 0, 67, 58
1, 13683, Note_on_c, 0, 55, 53
1, 13684, Note_on_c, 0, 43, 65
1, 13699, Note_off_c, 0, 72, 65
1, 13708, Note_off_c, 0, 55, 57
1, 13708, Note_off_c, 0, 64, 65
1, 13711, Note_off_c, 0, 43, 63
1, 13711, Note_off_c, 0, 67, 65
1, 14002, Note_on_c, 0, 71, 67
1, 14010, Note_on_c, 0, 62, 61
1, 14011, Note_on_c, 0, 31, 67
1, 14014, Note_on_c, 0, 43, 63
1, 14014, Note_on_c, 0, 67, 62
1, 14026, Note_on_c, 0, 65, 43
1, 14042, Note_off_c, 0, 31, 64
1, 14043, Note_off_c, 0, 62, 63
1, 14044, Note_off_c, 0, 43, 62
1, 14046, Note_off_c, 0, 67, 64
1, 14049, Note_off_c, 0, 71, 59
1, 14051, Note_off_c, 0, 65, 54
1, 14355, Note_on_c, 0, 72, 71
1, 14364, Note_on_c, 0, 67, 64
1, 14365, Note_on_c, 0, 64, 60
1, 14368, Note_on_c, 0, 36, 70
1, 14372, Note_on_c, 0, 48, 68
1, 14393, Note_off_c, 0, 36, 66
1, 14397, Note_off_c, 0, 48, 67
1, 14401, Note_off_c, 0, 64, 64
1, 14402, Note_off_c, 0, 67, 61
1, 14412, Note_off_c, 0, 72, 63
1, 14911, Note_on_c, 0, 76, 95
1, 14912, Note_on_c, 0, 64, 93
1, 14916, Note_on_c, 0, 69, 91
1, 14924, Note_on_c, 0, 72, 81
1, 14966, Note_off_c, 0, 64, 66
1, 14978, Note_off_c, 0, 69, 68
1, 14979, Control_c, 0, 64, 76
1, 14989, Note_off_c, 0, 72, 65
1, 14991, Note_on_c, 0, 60, 105
1, 14994, Note_on_c, 0, 48, 98
1, 14994, Control_c, 0, 64, 108
1, 15009, Control_c, 0, 64, 127
1, 15011, Note_off_c, 0, 76, 68
1, 15029, Note_off_c, 0, 60, 65
1, 15034, Note_off_c, 0, 48, 67
1, 15202, Control_c, 0, 64, 110
1, 15207, Note_on_c, 0, 72, 101
1, 15207, Note_on_c, 0, 84, 98
1, 15210, Note_on_c, 0, 76, 92
1, 15214, Note_on_c, 0, 81, 88
1, 15216, Control_c, 0, 64, 72
1, 15231, Control_c, 0, 64, 0
1, 15284, Note_on_c, 0, 57, 96
1, 15285, Note_on_c, 0, 45, 91
1, 15289, Note_off_c, 0, 72, 58
1, 15289, Note_off_c, 0, 76, 66
1, 15291, Control_c, 0, 64, 58
1, 15291, Note_off_c, 0, 84, 60
1, 15305, Control_c, 0, 64, 83
1, 15315, Note_off_c, 0, 81, 59
1, 15318, Note_off_c, 0, 57, 66
1, 15319, Note_off_c, 0, 45, 68
1, 15320, Control_c, 0, 64, 127
1, 15525, Note_on_c, 0, 83, 91
1, 15529, Note_on_c, 0, 74, 89
1, 15529, Note_on_c, 0, 71, 100
1, 15532, Note_on_c, 0, 79, 89
1, 15608, Note_on_c, 0, 50, 94
1, 15608, Note_on_c, 0, 62, 100
1, 15624, Control_c, 0, 64, 114
1, 15639, Control_c, 0, 64, 89
1, 15642, Note_off_c, 0, 71, 61
1, 15646, Note_off_c, 0, 50, 66
1, 15649, Note_off_c, 0, 62, 65
1, 15654, Control_c, 0, 64, 68
1, 15667, Note_off_c, 0, 83, 60
1, 15669, Control_c, 0, 64, 0
1, 15675, Note_off_c, 0, 74, 64
1, 15688, Note_off_c, 0, 79, 61
1, 16252, Note_on_c, 0, 79, 62
1, 16260, Note_on_c, 0, 62, 65
1, 16264, Note_on_c, 0, 71, 55
1, 16264, Note_on_c, 0, 74, 51
1, 16268, Note_on_c, 0, 50, 59
1, 16281, Note_off_c, 0, 62, 63
1, 16294, Note_off_c, 0, 79, 59
1, 16295, Note_off_c, 0, 50, 65
1, 16296, Note_off_c, 0, 74, 65
1, 16299, Note_off_c, 0, 71, 63
1, 16584, Note_on_c, 0, 69, 63
1, 16587, Note_on_c, 0, 78, 66
1, 16593, Note_on_c, 0, 50, 58
1, 16594, Note_on_c, 0, 38, 55
1, 16598, Note_on_c, 0, 74, 48
1, 16615, Note_off_c, 0, 50, 63
1, 16617, Note_off_c, 0, 69, 65
1, 16620, Note_off_c, 0, 74, 64
1, 16622, Note_off_c, 0, 38, 56
1, 16638, Note_off_c, 0, 78, 59
1, 16919, Note_on_c, 0, 79, 61
1, 16925, Note_on_c, 0, 74, 61
1, 16928, Note_on_c, 0, 71, 55
1, 16931, Note_on_c, 0, 55, 65
1, 16932, Note_on_c, 0, 43, 66
1, 16957, Note_off_c, 0, 55, 67
1, 16958, Note_off_c, 0, 74, 63
1, 16961, Note_off_c, 0, 43, 63
1, 16963, Note_off_c, 0, 71, 64
1, 16967, Note_off_c, 0, 79, 63
1, 17565, Note_on_c, 0, 83, 64
1, 17571, Note_on_c, 0, 71, 62
1, 17576, Note_on_c, 0, 74, 56
1, 17577, Note_on_c, 0, 50, 62
1, 17578, Note_on_c, 0, 62, 53
1, 17589, Note_on_c, 0, 79, 44
1, 17602, Note_off_c, 0, 62, 57
1, 17602, Note_off_c, 0, 71, 63
1, 17602, Note_off_c, 0, 74, 67
1, 17602, Note_off_c, 0, 83, 55
1, 17606, Note_off_c, 0, 50, 64
1, 17613, Note_off_c, 0, 79, 58
1, 17912, Note_on_c, 0, 78, 60
1, 17914, Note_on_c, 0, 81, 63
1, 17915, Note_on_c, 0, 69, 59
1, 17923, Note_on_c, 0, 38, 47
1, 17923, Note_on_c, 0, 50, 53
1, 17923, Note_on_c, 0, 74, 52
1, 17942, Note_off_c, 0, 69, 64
1, 17946, Note_off_c, 0, 74, 65
1, 17949, Note_off_c, 0, 50, 52
1, 17952, Note_off_c, 0, 78, 59
1, 17954, Note_off_c, 0, 81, 56
1, 17957, Note_off_c, 0, 38, 48
1, 18239, Note_on_c, 0, 74, 58
1, 18240, Note_on_c, 0, 83, 65
1, 18243, Note_on_c, 0, 71, 61
1, 18250, Note_on_c, 0, 43, 63
1, 18254, Note_on_c, 0, 79, 54
1, 18259, Note_on_c, 0, 55, 51
1, 18271, Note_off_c, 0, 74, 65
1, 18274, Note_off_c, 0, 71, 65
1, 18277, Note_off_c, 0, 43, 58
1, 18277, Note_off_c, 0, 79, 63
1, 18284, Note_off_c, 0, 55, 56
1, 18286, Note_off_c, 0, 83, 57
1, 18871, Note_on_c, 0, 86, 70
1, 18880, Note_on_c, 0, 50, 64
1, 18884, Note_on_c, 0, 62, 46
1, 18885, Note_on_c, 0, 74, 48
1, 18898, Note_on_c, 0, 83, 42
1, 18904, Note_on_c, 0, 79, 18
1, 18908, Note_off_c, 0, 74, 58
1, 18908, Note_off_c, 0, 50, 65
1, 18911, Note_off_c, 0, 62, 49
1, 18916, Note_off_c, 0, 86, 58
1, 18922, Note_off_c, 0, 83, 54
1, 18947, Note_off_c, 0, 79, 29
1, 19200, Note_on_c, 0, 86, 77
1, 19205, Note_on_c, 0, 38, 63
1, 19208, Note_on_c, 0, 50, 55
1, 19208, Note_on_c, 0, 81, 62
1, 19210, Note_on_c, 0, 74, 53
1, 19217, Note_on_c, 0, 78, 46
1, 19229, Note_off_c, 0, 74, 63
1, 19232, Note_off_c, 0, 38, 61
1, 19234, Note_off_c, 0, 50, 63
1, 19237, Note_off_c, 0, 81, 65
1, 19241, Note_off_c, 0, 78, 46
1, 19258, Note_off_c, 0, 86, 64
1, 19528, Note_on_c, 0, 79, 68
1, 19544, Note_on_c, 0, 55, 56
1, 19545, Note_on_c, 0, 43, 56
1, 19594, Note_off_c, 0, 79, 61
1, 19610, Note_on_c, 0, 82, 66
1, 19672, Note_off_c, 0, 82, 61
1, 19677, Note_on_c, 0, 83, 68
1, 19749, Note_off_c, 0, 83, 59
1, 19762, Note_on_c, 0, 78, 71
1, 19771, Note_off_c, 0, 43, 63
1, 19811, Note_off_c, 0, 55, 65
1, 19838, Note_on_c, 0, 81, 74
1, 19841, Note_off_c, 0, 78, 63
1, 19912, Note_on_c, 0, 79, 74
1, 19932, Note_off_c, 0, 81, 54
1, 19980, Note_on_c, 0, 78, 67
1, 20006, Note_off_c, 0, 79, 54
1, 20059, Note_off_c, 0, 78, 65
1, 20061, Note_on_c, 0, 76, 69
1, 20111, Note_off_c, 0, 76, 67
1, 20136, Note_on_c, 0, 74, 71
1, 20150, Note_on_c, 0, 62, 51
1, 20209, Note_off_c, 0, 74, 64
1, 20216, Note_off_c, 0, 62, 62
1, 20224, Note_on_c, 0, 63, 49
1, 20227, Note_on_c, 0, 75, 63
1, 20254, Note_off_c, 0, 63, 56
1, 20280, Note_on_c, 0, 64, 64
1, 20281, Note_on_c, 0, 76, 73
1, 20293, Note_off_c, 0, 75, 63
1, 20323, Note_off_c, 0, 64, 66
1, 20343, Note_off_c, 0, 76, 65
1, 20359, Note_on_c, 0, 71, 79
1, 20365, Note_on_c, 0, 59, 65
1, 20429, Note_off_c, 0, 59, 60
1, 20434, Note_on_c, 0, 74, 76
1, 20437, Note_off_c, 0, 71, 62
1, 20441, Note_on_c, 0, 62, 66
1, 20484, Note_off_c, 0, 62, 58
1, 20502, Note_on_c, 0, 60, 68
1, 20508, Note_on_c, 0, 72, 79
1, 20534, Note_off_c, 0, 74, 56
1, 20579, Note_on_c, 0, 71, 73
1, 20582, Note_off_c, 0, 60, 60
1, 20589, Note_on_c, 0, 59, 61
1, 20601, Note_off_c, 0, 72, 58
1, 20648, Note_on_c, 0, 57, 56
1, 20650, Note_off_c, 0, 71, 62
1, 20654, Note_off_c, 0, 59, 59
1, 20657, Note_on_c, 0, 69, 75
1, 20695, Note_off_c, 0, 69, 69
1, 20721, Note_on_c, 0, 67, 80
1, 20723, Note_off_c, 0, 57, 62
1, 20730, Note_on_c, 0, 55, 67
1, 20793, Note_on_c, 0, 58, 62
1, 20800, Note_off_c, 0, 67, 61
1, 20802, Note_on_c, 0, 70, 71
1, 20802, Note_off_c, 0, 55, 64
1, 20870, Note_off_c, 0, 58, 63
1, 20877, Note_on_c, 0, 71, 74
1, 20882, Note_off_c, 0, 70, 61
1, 20895, Note_on_c, 0, 59, 67
1, 20933, Note_off_c, 0, 59, 62
1, 20946, Note_on_c, 0, 66, 85
1, 20948, Note_off_c, 0, 71, 59
1, 20959, Note_on_c, 0, 54, 68
1, 21010, Note_off_c, 0, 54, 61
1, 21025, Note_on_c, 0, 69, 81
1, 21032, Note_on_c, 0, 57, 72
1, 21035, Note_off_c, 0, 66, 65
1, 21088, Note_off_c, 0, 57, 59
1, 21101, Note_on_c, 0, 55, 68
1, 21103, Note_on_c, 0, 67, 80
1, 21132, Note_off_c, 0, 69, 59
1, 21153, Note_off_c, 0, 55, 65
1, 21169, Note_on_c, 0, 66, 74
1, 21172, Note_on_c, 0, 54, 66
1, 21202, Note_off_c, 0, 67, 59
1, 21234, Note_on_c, 0, 52, 71
1, 21248, Note_off_c, 0, 54, 61
1, 21248, Note_off_c, 0, 66, 68
1, 21250, Note_on_c, 0, 64, 70
1, 21298, Note_off_c, 0, 52, 66
1, 21301, Note_off_c, 0, 64, 64
1, 21315, Note_on_c, 0, 62, 76
1, 21321, Note_on_c, 0, 50, 65
1, 21389, Note_on_c, 0, 63, 73
1, 21391, Note_on_c, 0, 51, 67
1, 21392, Note_off_c, 0, 62, 62
1, 21395, Note_off_c, 0, 50, 62
1, 21436, Note_off_c, 0, 51, 62
1, 21455, Note_on_c, 0, 64, 74
1, 21461, Note_off_c, 0, 63, 63
1, 21462, Note_on_c, 0, 52, 75
1, 21503, Note_off_c, 0, 52, 68
1, 21522, Note_off_c, 0, 64, 63
1, 21529, Note_on_c, 0, 59, 79
1, 21537, Note_on_c, 0, 47, 69
1, 21577, Note_off_c, 0, 47, 61
1, 21609, Note_on_c, 0, 62, 81
1, 21611, Note_on_c, 0, 50, 74
1, 21616, Note_off_c, 0, 59, 62
1, 21655, Note_off_c, 0, 50, 60
1, 21682, Note_on_c, 0, 48, 66
1, 21685, Note_on_c, 0, 60, 78
1, 21714, Note_off_c, 0, 62, 60
1, 21741, Note_off_c, 0, 48, 64
1, 21755, Note_on_c, 0, 47, 67
1, 21757, Note_on_c, 0, 59, 74
1, 21785, Note_off_c, 0, 60, 58
1, 21812, Note_on_c, 0, 45, 65
1, 21816, Note_off_c, 0, 47, 63
1, 21825, Note_off_c, 0, 59, 65
1, 21829, Note_on_c, 0, 57, 75
1, 21874, Note_off_c, 0, 57, 63
1, 21890, Note_off_c, 0, 45, 64
1, 21896, Note_on_c, 0, 55, 78
1, 21899, Note_on_c, 0, 43, 70
1, 21968, Note_on_c, 0, 58, 71
1, 21968, Note_off_c, 0, 55, 63
1, 21974, Note_on_c, 0, 46, 65
1, 21976, Note_off_c, 0, 43, 62
1, 22036, Note_off_c, 0, 46, 60
1, 22039, Note_on_c, 0, 59, 74
1, 22043, Note_off_c, 0, 58, 64
1, 22058, Note_on_c, 0, 47, 71
1, 22097, Note_off_c, 0, 47, 64
1, 22110, Note_off_c, 0, 59, 63
1, 22114, Note_on_c, 0, 54, 81
1, 22126, Note_on_c, 0, 42, 74
1, 22177, Note_off_c, 0, 42, 60
1, 22187, Note_off_c, 0, 54, 61
1, 22190, Note_on_c, 0, 57, 79
1, 22199, Note_on_c, 0, 45, 72
1, 22248, Note_off_c, 0, 45, 62
1, 22260, Note_on_c, 0, 43, 74
1, 22260, Note_on_c, 0, 55, 80
1, 22291, Note_off_c, 0, 57, 62
1, 22322, Note_off_c, 0, 43, 60
1, 22329, Note_on_c, 0, 42, 72
1, 22332, Note_on_c, 0, 54, 76
1, 22374, Note_off_c, 0, 55, 62
1, 22409, Note_on_c, 0, 40, 68
1, 22411, Note_off_c, 0, 54, 64
1, 22412, Note_off_c, 0, 42, 63
1, 22418, Note_on_c, 0, 52, 69
1, 22463, Note_off_c, 0, 52, 68
1, 22464, Note_off_c, 0, 40, 63
1, 22476, Note_on_c, 0, 50, 75
1, 22486, Note_on_c, 0, 38, 71
1, 22548, Note_on_c, 0, 51, 73
1, 22553, Note_off_c, 0, 50, 62
1, 22564, Note_on_c, 0, 39, 61
1, 22579, Note_off_c, 0, 38, 62
1, 22600, Note_off_c, 0, 39, 60
1, 22621, Note_on_c, 0, 52, 71
1, 22628, Note_on_c, 0, 40, 64
1, 22628, Note_off_c, 0, 51, 62
1, 22657, Note_off_c, 0, 40, 65
1, 22692, Note_on_c, 0, 47, 81
1, 22693, Note_off_c, 0, 52, 65
1, 22694, Note_on_c, 0, 35, 66
1, 22736, Note_off_c, 0, 35, 61
1, 22758, Note_on_c, 0, 38, 78
1, 22764, Note_on_c, 0, 50, 81
1, 22780, Note_off_c, 0, 47, 64
1, 22809, Note_off_c, 0, 38, 54
1, 22833, Note_on_c, 0, 36, 70
1, 22840, Note_on_c, 0, 48, 82
1, 22877, Note_off_c, 0, 50, 60
1, 22890, Note_off_c, 0, 36, 61
1, 22903, Note_on_c, 0, 35, 71
1, 22913, Note_on_c, 0, 47, 75
1, 22955, Note_off_c, 0, 48, 61
1, 22958, Note_off_c, 0, 35, 62
1, 22984, Note_off_c, 0, 47, 64
1, 22985, Note_on_c, 0, 45, 76
1, 22989, Note_on_c, 0, 33, 73
1, 23031, Note_off_c, 0, 45, 65
1, 23045, Note_off_c, 0, 33, 62
1, 23055, Note_on_c, 0, 43, 79
1, 23059, Note_on_c, 0, 31, 75
1, 23137, Note_off_c, 0, 43, 59
1, 23140, Note_off_c, 0, 31, 60
1, 23151, Note_on_c, 0, 30, 74
1, 23155, Note_on_c, 0, 42, 73
1, 23220, Note_off_c, 0, 42, 63
1, 23226, Note_on_c, 0, 31, 67
1, 23228, Note_on_c, 0, 43, 71
1, 23232, Note_off_c, 0, 30, 63
1, 23271, Note_off_c, 0, 31, 63
1, 23295, Note_on_c, 0, 33, 73
1, 23303, Note_on_c, 0, 45, 77
1, 23303, Note_off_c, 0, 43, 62
1, 23337, Note_off_c, 0, 33, 66
1, 23367, Note_off_c, 0, 45, 64
1, 23373, Note_on_c, 0, 34, 73
1, 23374, Note_on_c, 0, 46, 86
1, 23438, Note_off_c, 0, 46, 63
1, 23438, Note_on_c, 0, 35, 69
1, 23449, Note_off_c, 0, 34, 63
1, 23450, Note_on_c, 0, 47, 82
1, 23487, Note_off_c, 0, 35, 63
1, 23507, Note_on_c, 0, 36, 73
1, 23523, Note_off_c, 0, 47, 62
1, 23528, Note_on_c, 0, 48, 82
1, 23562, Note_off_c, 0, 36, 63
1, 23592, Note_on_c, 0, 37, 74
1, 23592, Note_off_c, 0, 48, 65
1, 23595, Note_on_c, 0, 49, 83
1, 23649, Note_off_c, 0, 37, 64
1, 23664, Note_on_c, 0, 38, 76
1, 23667, Note_off_c, 0, 49, 62
1, 23668, Note_on_c, 0, 50, 78
1, 23709, Note_off_c, 0, 38, 60
1, 23733, Note_on_c, 0, 37, 76
1, 23750, Note_off_c, 0, 50, 62
1, 23752, Note_on_c, 0, 49, 81
1, 23804, Note_off_c, 0, 49, 61
1, 23813, Note_off_c, 0, 37, 63
1, 23816, Note_on_c, 0, 50, 72
1, 23819, Note_on_c, 0, 38, 71
1, 23898, Note_on_c, 0, 40, 84
1, 23904, Note_off_c, 0, 38, 61
1, 23908, Note_on_c, 0, 52, 84
1, 23909, Note_off_c, 0, 50, 62
1, 23978, Note_on_c, 0, 54, 82
1, 23982, Note_off_c, 0, 52, 67
1, 23985, Note_off_c, 0, 40, 63
1, 23993, Note_on_c, 0, 42, 74
1, 24049, Note_off_c, 0, 54, 61
1, 24057, Note_on_c, 0, 50, 75
1, 24061, Note_on_c, 0, 38, 71
1, 24067, Note_off_c, 0, 42, 58
1, 24132, Note_on_c, 0, 52, 81
1, 24132, Note_off_c, 0, 50, 62
1, 24141, Note_on_c, 0, 40, 72
1, 24160, Note_off_c, 0, 38, 59
1, 24208, Note_off_c, 0, 52, 66
1, 24209, Note_on_c, 0, 54, 80
1, 24210, Note_on_c, 0, 42, 75
1, 24213, Note_off_c, 0, 40, 64
1, 24282, Note_off_c, 0, 54, 62
1, 24288, Note_off_c, 0, 42, 63
1, 24290, Note_on_c, 0, 43, 76
1, 24293, Note_on_c, 0, 55, 75
1, 24365, Note_on_c, 0, 54, 74
1, 24366, Note_off_c, 0, 55, 64
1, 24371, Note_on_c, 0, 42, 77
1, 24372, Note_off_c, 0, 43, 61
1, 24422, Note_off_c, 0, 54, 62
1, 24430, Note_on_c, 0, 55, 78
1, 24432, Note_on_c, 0, 43, 71
1, 24444, Note_off_c, 0, 42, 63
1, 24487, Note_off_c, 0, 43, 60
1, 24504, Note_on_c, 0, 45, 77
1, 24510, Note_off_c, 0, 55, 62
1, 24514, Note_on_c, 0, 57, 84
1, 24560, Note_off_c, 0, 45, 64
1, 24575, Note_off_c, 0, 57, 63
1, 24579, Note_on_c, 0, 58, 85
1, 24590, Note_on_c, 0, 46, 79
1, 24642, Note_off_c, 0, 58, 66
1, 24655, Note_on_c, 0, 47, 78
1, 24657, Note_on_c, 0, 59, 85
1, 24665, Note_off_c, 0, 46, 62
1, 24700, Note_off_c, 0, 47, 66
1, 24722, Note_on_c, 0, 48, 77
1, 24726, Note_off_c, 0, 59, 60
1, 24732, Note_on_c, 0, 60, 85
1, 24767, Note_off_c, 0, 48, 66
1, 24790, Note_off_c, 0, 60, 62
1, 24795, Note_on_c, 0, 61, 89
1, 24796, Note_on_c, 0, 49, 83
1, 24859, Note_off_c, 0, 61, 64
1, 24860, Note_off_c, 0, 49, 63
1, 24878, Note_on_c, 0, 62, 85
1, 24878, Note_on_c, 0, 50, 72
1, 24903, Note_off_c, 0, 50, 66
1, 24907, Control_c, 0, 64, 55
1, 24921, Note_off_c, 0, 62, 62
1, 24922, Control_c, 0, 64, 74
1, 24937, Control_c, 0, 64, 81
1, 24952, Control_c, 0, 64, 92
1, 24960, Note_on_c, 0, 50, 86
1, 24966, Control_c, 0, 64, 118
1, 24970, Note_on_c, 0, 62, 83
1, 24981, Control_c, 0, 64, 127
1, 25042, Note_on_c, 0, 66, 82
1, 25043, Note_on_c, 0, 54, 73
1, 25062, Note_on_c, 0, 65, 77
1, 25064, Note_off_c, 0, 62, 59
1, 25071, Note_off_c, 0, 66, 48
1, 25071, Note_off_c, 0, 50, 58
1, 25098, Note_on_c, 0, 57, 81
1, 25099, Note_on_c, 0, 68, 80
1, 25114, Note_off_c, 0, 65, 64
1, 25122, Note_off_c, 0, 54, 62
1, 25133, Note_on_c, 0, 69, 76
1, 25141, Note_off_c, 0, 68, 64
1, 25156, Note_off_c, 0, 57, 64
1, 25179, Note_off_c, 0, 69, 66
1, 25185, Note_on_c, 0, 74, 87
1, 25187, Note_on_c, 0, 62, 69
1, 25214, Note_off_c, 0, 62, 64
1, 25220, Note_off_c, 0, 74, 65
1, 25266, Note_on_c, 0, 74, 86
1, 25268, Note_on_c, 0, 62, 86
1, 25340, Note_on_c, 0, 66, 80
1, 25353, Note_on_c, 0, 78, 93
1, 25361, Note_off_c, 0, 74, 41
1, 25372, Note_off_c, 0, 62, 62
1, 25408, Note_on_c, 0, 69, 80
1, 25408, Note_off_c, 0, 78, 64
1, 25411, Note_on_c, 0, 81, 93
1, 25423, Note_off_c, 0, 66, 64
1, 25478, Control_c, 0, 64, 106
1, 25493, Control_c, 0, 64, 71
1, 25500, Note_off_c, 0, 69, 58
1, 25504, Note_off_c, 0, 81, 61
1, 25508, Control_c, 0, 64, 0
1, 25512, Note_on_c, 0, 74, 82
1, 25515, Note_on_c, 0, 86, 86
1, 25548, Note_off_c, 0, 86, 58
1, 25549, Note_off_c, 0, 74, 68
1, 25552, Control_c, 0, 64, 79
1, 25567, Control_c, 0, 64, 110
1, 25582, Control_c, 0, 64, 127
1, 25587, Note_on_c, 0, 86, 82
1, 25599, Note_on_c, 0, 74, 72
1, 25662, Note_on_c, 0, 81, 88
1, 25667, Note_off_c, 0, 74, 60
1, 25668, Note_off_c, 0, 86, 64
1, 25673, Note_on_c, 0, 69, 84
1, 25728, Note_off_c, 0, 81, 61
1, 25733, Note_on_c, 0, 78, 92
1, 25737, Note_on_c, 0, 66, 75
1, 25741, Note_off_c, 0, 69, 61
1, 25792, Note_off_c, 0, 78, 65
1, 25810, Note_on_c, 0, 62, 48
1, 25810, Note_off_c, 0, 66, 66
1, 25816, Note_on_c, 0, 74, 81
1, 25833, Note_off_c, 0, 62, 58
1, 25848, Note_off_c, 0, 74, 65
1, 25885, Note_on_c, 0, 62, 73
1, 25893, Note_on_c, 0, 72, 77
1, 25923, Note_off_c, 0, 62, 53
1, 25945, Note_on_c, 0, 57, 84
1, 25960, Note_on_c, 0, 69, 74
1, 25960, Note_off_c, 0, 72, 64
1, 25989, Note_on_c, 0, 67, 48
1, 26003, Note_off_c, 0, 57, 60
1, 26012, Note_on_c, 0, 54, 76
1, 26016, Note_off_c, 0, 67, 37
1, 26022, Note_off_c, 0, 69, 67
1, 26025, Note_on_c, 0, 66, 83
1, 26107, Note_on_c, 0, 50, 85
1, 26108, Note_off_c, 0, 54, 62
1, 26109, Note_on_c, 0, 62, 91
1, 26124, Control_c, 0, 64, 79
1, 26137, Note_off_c, 0, 66, 66
1, 26138, Control_c, 0, 64, 0
1, 26146, Note_off_c, 0, 50, 63
1, 26153, Note_off_c, 0, 62, 65
1, 26183, Control_c, 0, 64, 65
1, 26198, Control_c, 0, 64, 89
1, 26201, Note_on_c, 0, 50, 68
1, 26201, Note_on_c, 0, 62, 84
1, 26212, Control_c, 0, 64, 127
1, 26273, Note_on_c, 0, 66, 87
1, 26283, Note_on_c, 0, 54, 75
1, 26292, Note_off_c, 0, 62, 58
1, 26297, Note_off_c, 0, 50, 61
1, 26344, Note_on_c, 0, 57, 77
1, 26347, Note_on_c, 0, 69, 85
1, 26364, Note_off_c, 0, 66, 64
1, 26371, Note_off_c, 0, 54, 61
1, 26405, Note_off_c, 0, 57, 61
1, 26421, Note_on_c, 0, 62, 81
1, 26428, Note_on_c, 0, 74, 82
1, 26432, Note_off_c, 0, 69, 66
1, 26458, Note_off_c, 0, 62, 64
1, 26458, Note_off_c, 0, 74, 64
1, 26510, Note_on_c, 0, 74, 84
1, 26520, Note_on_c, 0, 62, 76
1, 26570, Note_on_c, 0, 66, 77
1, 26581, Note_on_c, 0, 78, 91
1, 26589, Note_off_c, 0, 74, 58
1, 26596, Note_off_c, 0, 62, 60
1, 26639, Note_on_c, 0, 69, 78
1, 26648, Note_off_c, 0, 78, 66
1, 26651, Note_on_c, 0, 81, 91
1, 26652, Note_off_c, 0, 66, 65
1, 26716, Control_c, 0, 64, 89
1, 26718, Note_off_c, 0, 69, 63
1, 26730, Control_c, 0, 64, 64
1, 26740, Note_on_c, 0, 74, 80
1, 26743, Note_on_c, 0, 86, 82
1, 26745, Control_c, 0, 64, 0
1, 26750, Note_off_c, 0, 81, 59
1, 26760, Control_c, 0, 64, 63
1, 26768, Note_off_c, 0, 86, 66
1, 26775, Control_c, 0, 64, 84
1, 26784, Note_off_c, 0, 74, 64
1, 26789, Control_c, 0, 64, 127
1, 26821, Note_on_c, 0, 86, 87
1, 26834, Note_on_c, 0, 74, 69
1, 26892, Note_off_c, 0, 74, 58
1, 26898, Note_on_c, 0, 81, 89
1, 26904, Note_off_c, 0, 86, 65
1, 26905, Note_on_c, 0, 69, 83
1, 26964, Note_off_c, 0, 81, 62
1, 26966, Note_on_c, 0, 78, 90
1, 26966, Note_off_c, 0, 69, 64
1, 26968, Note_on_c, 0, 66, 75
1, 27021, Note_off_c, 0, 78, 66
1, 27036, Note_on_c, 0, 62, 58
1, 27039, Note_on_c, 0, 74, 80
1, 27040, Note_off_c, 0, 66, 65
1, 27069, Note_off_c, 0, 62, 63
1, 27079, Note_off_c, 0, 74, 63
1, 27121, Note_on_c, 0, 62, 72
1, 27121, Note_on_c, 0, 72, 77
1, 27177, Note_on_c, 0, 57, 80
1, 27179, Note_off_c, 0, 62, 58
1, 27191, Note_off_c, 0, 72, 64
1, 27194, Note_on_c, 0, 69, 76
1, 27212, Poly_aftertouch_c, 0, 74, 0
1, 27245, Note_on_c, 0, 54, 72
1, 27247, Note_off_c, 0, 57, 60
1, 27257, Note_on_c, 0, 66, 81
1, 27260, Note_off_c, 0, 69, 65
1, 27321, Note_on_c, 0, 50, 84
1, 27323, Note_off_c, 0, 54, 52
1, 27323, Note_off_c, 0, 66, 57
1, 27328, Note_on_c, 0, 62, 87
1, 27331, Control_c, 0, 64, 101
1, 27346, Control_c, 0, 64, 68
1, 27355, Note_off_c, 0, 50, 64
1, 27361, Control_c, 0, 64, 0
1, 27367, Note_off_c, 0, 62, 64
1, 27390, Control_c, 0, 64, 70
1, 27402, Note_on_c, 0, 74, 86
1, 27405, Control_c, 0, 64, 92
1, 27408, Note_on_c, 0, 62, 63
1, 27420, Control_c, 0, 64, 127
1, 27461, Note_off_c, 0, 62, 53
1, 27469, Note_on_c, 0, 57, 75
1, 27479, Note_on_c, 0, 70, 83
1, 27493, Note_off_c, 0, 74, 64
1, 27526, Note_off_c, 0, 70, 60
1, 27543, Note_on_c, 0, 54, 73
1, 27546, Note_on_c, 0, 66, 85
1, 27546, Note_off_c, 0, 57, 56
1, 27611, Note_off_c, 0, 66, 66
1, 27613, Note_on_c, 0, 50, 59
1, 27620, Note_off_c, 0, 54, 62
1, 27640, Note_on_c, 0, 62, 82
1, 27653, Note_off_c, 0, 50, 63
1, 27677, Note_off_c, 0, 62, 60
1, 27698, Note_on_c, 0, 50, 69
1, 27716, Note_on_c, 0, 62, 71
1, 27761, Note_off_c, 0, 50, 60
1, 27763, Note_on_c, 0, 45, 75
1, 27787, Note_on_c, 0, 57, 75
1, 27796, Note_off_c, 0, 62, 60
1, 27831, Note_on_c, 0, 42, 77
1, 27837, Note_off_c, 0, 45, 65
1, 27851, Note_off_c, 0, 57, 62
1, 27863, Note_on_c, 0, 54, 71
1, 27947, Control_c, 0, 64, 110
1, 27949, Note_off_c, 0, 54, 58
1, 27953, Note_on_c, 0, 50, 84
1, 27954, Note_off_c, 0, 42, 63
1, 27955, Note_on_c, 0, 38, 75
1, 27962, Control_c, 0, 64, 92
1, 27977, Control_c, 0, 64, 75
1, 27991, Control_c, 0, 64, 19
1, 28006, Control_c, 0, 64, 0
1, 28696, Control_c, 0, 64, 34
1, 28711, Control_c, 0, 64, 54
1, 28726, Control_c, 0, 64, 61
1, 28741, Control_c, 0, 64, 64
1, 28756, Control_c, 0, 64, 67
1, 28771, Control_c, 0, 64, 71
1, 28786, Control_c, 0, 64, 76
1, 28800, Control_c, 0, 64, 81
1, 28815, Control_c, 0, 64, 85
1, 28830, Control_c, 0, 64, 90
1, 28845, Control_c, 0, 64, 95
1, 28859, Control_c, 0, 64, 101
1, 28874, Control_c, 0, 64, 110
1, 28889, Control_c, 0, 64, 123
1, 28904, Control_c, 0, 64, 127
1, 29158, Poly_aftertouch_c, 0, 58, 127
1, 29160, Note_off_c, 0, 50, 61
1, 29179, Note_off_c, 0, 38, 58
1, 29231, Poly_aftertouch_c, 0, 58, 0
1, 29781, Note_on_c, 0, 79, 72
1, 29838, Control_c, 0, 64, 103
1, 29853, Control_c, 0, 64, 80
1, 29862, Note_on_c, 0, 62, 62
1, 29866, Note_on_c, 0, 55, 55
1, 29866, Note_on_c, 0, 59, 58
1, 29867, Control_c, 0, 64, 52
1, 29881, Control_c, 0, 64, 0
1, 29926, Note_off_c, 0, 59, 62
1, 29930, Note_off_c, 0, 55, 63
1, 29930, Note_off_c, 0, 62, 61
1, 30372, Note_on_c, 0, 78, 67
1, 30401, Note_off_c, 0, 79, 55
1, 30437, Note_off_c, 0, 78, 63
1, 30444, Note_on_c, 0, 76, 65
1, 30491, Note_off_c, 0, 76, 66
1, 30513, Note_on_c, 0, 74, 66
1, 30591, Note_off_c, 0, 74, 64
1, 30592, Note_on_c, 0, 75, 65
1, 30664, Note_off_c, 0, 75, 64
1, 30668, Note_on_c, 0, 76, 70
1, 30721, Note_off_c, 0, 76, 64
1, 30750, Note_on_c, 0, 71, 64
1, 30807, Note_off_c, 0, 71, 60
1, 30820, Note_on_c, 0, 74, 67
1, 30891, Note_on_c, 0, 72, 69
1, 30892, Note_off_c, 0, 74, 63
1, 30958, Note_on_c, 0, 71, 67
1, 30967, Note_off_c, 0, 72, 58
1, 31009, Note_off_c, 0, 71, 60
1, 31030, Note_on_c, 0, 69, 67
1, 31074, Note_off_c, 0, 69, 64
1, 31103, Note_on_c, 0, 67, 66
1, 31357, Note_off_c, 0, 67, 62
1, 31673, Note_on_c, 0, 67, 42
1, 31674, Note_on_c, 0, 59, 44
1, 31683, Note_on_c, 0, 62, 40
1, 31742, Note_off_c, 0, 62, 54
1, 31753, Note_off_c, 0, 59, 57
1, 31756, Note_on_c, 0, 43, 48
1, 31756, Note_off_c, 0, 67, 57
1, 31761, Note_on_c, 0, 55, 42
1, 31787, Note_off_c, 0, 43, 55
1, 31789, Note_off_c, 0, 55, 54
1, 31987, Note_on_c, 0, 71, 50
1, 31992, Note_on_c, 0, 62, 45
1, 31993, Note_on_c, 0, 59, 45
1, 32081, Note_off_c, 0, 71, 57
1, 32082, Note_on_c, 0, 43, 48
1, 32084, Note_on_c, 0, 55, 49
1, 32085, Note_off_c, 0, 62, 54
1, 32089, Note_off_c, 0, 59, 54
1, 32109, Note_off_c, 0, 55, 58
1, 32115, Note_off_c, 0, 43, 54
1, 32333, Note_on_c, 0, 67, 48
1, 32340, Note_on_c, 0, 59, 39
1, 32343, Note_on_c, 0, 62, 45
1, 32409, Note_on_c, 0, 55, 53
1, 32416, Note_on_c, 0, 43, 46
1, 32440, Note_off_c, 0, 55, 65
1, 32449, Note_off_c, 0, 43, 50
1, 32495, Note_off_c, 0, 62, 61
1, 32497, Note_off_c, 0, 59, 56
1, 32509, Note_off_c, 0, 67, 62
1, 33007, Note_on_c, 0, 67, 51
1, 33011, Note_on_c, 0, 59, 50
1, 33011, Note_on_c, 0, 62, 54
1, 33061, Note_off_c, 0, 59, 59
1, 33062, Note_off_c, 0, 62, 58
1, 33081, Note_on_c, 0, 43, 65
1, 33084, Note_on_c, 0, 55, 61
1, 33102, Note_off_c, 0, 67, 62
1, 33112, Note_off_c, 0, 55, 66
1, 33114, Note_off_c, 0, 43, 62
1, 33318, Note_on_c, 0, 74, 60
1, 33334, Note_on_c, 0, 62, 50
1, 33334, Note_on_c, 0, 67, 52
1, 33349, Note_on_c, 0, 71, 36
1, 33392, Note_off_c, 0, 74, 64
1, 33394, Note_off_c, 0, 71, 47
1, 33405, Note_on_c, 0, 43, 64
1, 33406, Note_off_c, 0, 67, 63
1, 33411, Note_on_c, 0, 55, 58
1, 33415, Note_off_c, 0, 62, 57
1, 33433, Note_off_c, 0, 55, 65
1, 33436, Note_off_c, 0, 43, 62
1, 33647, Note_on_c, 0, 67, 55
1, 33657, Note_on_c, 0, 62, 46
1, 33659, Note_on_c, 0, 59, 46
1, 33743, Note_on_c, 0, 43, 52
1, 33752, Note_on_c, 0, 55, 37
1, 33772, Note_off_c, 0, 43, 55
1, 33779, Note_off_c, 0, 59, 61
1, 33783, Note_off_c, 0, 55, 49
1, 33785, Note_off_c, 0, 62, 61
1, 33802, Note_off_c, 0, 67, 61
1, 34306, Note_on_c, 0, 71, 89
1, 34309, Note_on_c, 0, 62, 89
1, 34309, Note_on_c, 0, 59, 87
1, 34322, Note_on_c, 0, 67, 84
1, 34363, Note_off_c, 0, 59, 65
1, 34374, Note_off_c, 0, 62, 63
1, 34390, Control_c, 0, 64, 70
1, 34393, Note_off_c, 0, 67, 63
1, 34404, Control_c, 0, 64, 90
1, 34406, Note_on_c, 0, 55, 93
1, 34409, Note_on_c, 0, 43, 90
1, 34411, Note_off_c, 0, 71, 63
1, 34419, Control_c, 0, 64, 127
1, 34443, Note_off_c, 0, 55, 66
1, 34452, Note_off_c, 0, 43, 64
1, 34619, Note_on_c, 0, 67, 97
1, 34621, Note_on_c, 0, 79, 93
1, 34624, Note_on_c, 0, 71, 85
1, 34626, Note_on_c, 0, 76, 83
1, 34626, Control_c, 0, 64, 114
1, 34641, Control_c, 0, 64, 76
1, 34656, Control_c, 0, 64, 0
1, 34700, Control_c, 0, 64, 60
1, 34703, Note_off_c, 0, 67, 59
1, 34712, Note_on_c, 0, 52, 104
1, 34713, Note_on_c, 0, 40, 92
1, 34715, Note_off_c, 0, 79, 57
1, 34715, Control_c, 0, 64, 92
1, 34721, Note_off_c, 0, 71, 59
1, 34730, Control_c, 0, 64, 127
1, 34736, Note_off_c, 0, 76, 65
1, 34745, Note_off_c, 0, 52, 67
1, 34754, Note_off_c, 0, 40, 64
1, 34950, Note_on_c, 0, 78, 91
1, 34954, Note_on_c, 0, 66, 97
1, 34954, Note_on_c, 0, 70, 86
1, 34958, Note_on_c, 0, 73, 81
1, 35041, Note_on_c, 0, 54, 100
1, 35042, Control_c, 0, 64, 115
1, 35043, Note_on_c, 0, 42, 94
1, 35057, Control_c, 0, 64, 95
1, 35065, Note_off_c, 0, 66, 66
1, 35079, Control_c, 0, 64, 77
1, 35087, Note_off_c, 0, 54, 66
1, 35089, Note_off_c, 0, 42, 65
1, 35094, Control_c, 0, 64, 46
1, 35097, Note_off_c, 0, 70, 64
1, 35108, Note_off_c, 0, 73, 64
1, 35109, Control_c, 0, 64, 0
1, 35119, Note_off_c, 0, 78, 67
1, 35737, Note_on_c, 0, 76, 49
1, 35741, Note_on_c, 0, 71, 43
1, 35746, Note_on_c, 0, 67, 40
1, 35770, Note_off_c, 0, 76, 59
1, 35776, Note_off_c, 0, 67, 47
1, 35777, Note_off_c, 0, 71, 53
1, 36077, Note_on_c, 0, 77, 53
1, 36091, Note_on_c, 0, 67, 45
1, 36091, Note_on_c, 0, 71, 44
1, 36116, Note_off_c, 0, 67, 51
1, 36119, Note_off_c, 0, 71, 57
1, 36120, Note_off_c, 0, 77, 58
1, 36434, Note_on_c, 0, 78, 58
1, 36438, Note_on_c, 0, 70, 58
1, 36446, Note_on_c, 0, 66, 63
1, 36474, Note_off_c, 0, 66, 68
1, 36478, Note_off_c, 0, 70, 63
1, 36479, Note_off_c, 0, 78, 63
1, 36993, Note_on_c, 0, 71, 90
1, 36994, Note_on_c, 0, 59, 93
1, 36998, Note_on_c, 0, 64, 82
1, 36998, Note_on_c, 0, 67, 81
1, 37041, Note_off_c, 0, 59, 65
1, 37051, Control_c, 0, 64, 71
1, 37061, Note_off_c, 0, 64, 66
1, 37065, Control_c, 0, 64, 102
1, 37075, Note_off_c, 0, 67, 63
1, 37076, Note_on_c, 0, 55, 95
1, 37079, Note_on_c, 0, 43, 93
1, 37080, Control_c, 0, 64, 127
1, 37084, Note_off_c, 0, 71, 63
1, 37115, Note_off_c, 0, 55, 64
1, 37119, Note_off_c, 0, 43, 63
1, 37304, Note_on_c, 0, 79, 95
1, 37305, Note_on_c, 0, 67, 99
1, 37308, Note_on_c, 0, 71, 85
1, 37326, Note_on_c, 0, 76, 84
1, 37326, Control_c, 0, 64, 81
1, 37341, Control_c, 0, 64, 0
1, 37382, Note_off_c, 0, 67, 58
1, 37393, Note_on_c, 0, 52, 97
1, 37393, Note_off_c, 0, 79, 59
1, 37397, Note_on_c, 0, 40, 94
1, 37406, Note_off_c, 0, 71, 61
1, 37414, Control_c, 0, 64, 82
1, 37422, Note_off_c, 0, 76, 64
1, 37426, Note_off_c, 0, 52, 67
1, 37429, Control_c, 0, 64, 127
1, 37434, Note_off_c, 0, 40, 66
1, 37636, Note_on_c, 0, 78, 93
1, 37642, Note_on_c, 0, 66, 99
1, 37643, Note_on_c, 0, 70, 81
1, 37648, Note_on_c, 0, 73, 82
1, 37723, Note_on_c, 0, 54, 98
1, 37725, Note_on_c, 0, 42, 91
1, 37725, Control_c, 0, 64, 125
1, 37740, Control_c, 0, 64, 100
1, 37743, Note_off_c, 0, 42, 70
1, 37746, Note_off_c, 0, 66, 66
1, 37755, Control_c, 0, 64, 82
1, 37761, Note_off_c, 0, 78, 63
1, 37766, Note_off_c, 0, 54, 63
1, 37770, Note_off_c, 0, 70, 64
1, 37770, Control_c, 0, 64, 64
1, 37775, Note_off_c, 0, 73, 62
1, 37785, Control_c, 0, 64, 0
1, 38388, Note_on_c, 0, 71, 57
1, 38390, Note_on_c, 0, 55, 51
1, 38391, Note_on_c, 0, 64, 46
1, 38417, Note_off_c, 0, 55, 59
1, 38424, Note_off_c, 0, 64, 60
1, 38429, Note_off_c, 0, 71, 59
1, 38713, Note_on_c, 0, 71, 57
1, 38719, Note_on_c, 0, 55, 48
1, 38728, Note_on_c, 0, 65, 43
1, 38744, Note_off_c, 0, 55, 60
1, 38754, Note_off_c, 0, 71, 58
1, 38757, Note_off_c, 0, 65, 58
1, 39061, Note_on_c, 0, 70, 57
1, 39071, Note_on_c, 0, 66, 59
1, 39076, Note_on_c, 0, 54, 53
1, 39103, Note_off_c, 0, 54, 59
1, 39107, Note_off_c, 0, 66, 66
1, 39110, Note_off_c, 0, 70, 62
1, 39738, Note_on_c, 0, 71, 50
1, 39740, Note_on_c, 0, 67, 56
1, 39743, Note_on_c, 0, 76, 48
1, 39768, Note_off_c, 0, 67, 61
1, 39771, Note_off_c, 0, 76, 58
1, 39784, Note_off_c, 0, 71, 56
1, 40071, Note_on_c, 0, 77, 49
1, 40076, Note_on_c, 0, 67, 52
1, 40080, Note_on_c, 0, 71, 42
1, 40098, Note_off_c, 0, 67, 60
1, 40110, Note_off_c, 0, 71, 55
1, 40112, Note_off_c, 0, 77, 60
1, 40421, Note_on_c, 0, 70, 58
1, 40426, Note_on_c, 0, 78, 60
1, 40438, Note_on_c, 0, 66, 51
1, 40460, Note_off_c, 0, 66, 64
1, 40461, Note_off_c, 0, 78, 63
1, 40462, Note_off_c, 0, 70, 62
1, 41108, Note_on_c, 0, 71, 54
1, 41112, Note_on_c, 0, 31, 57
1, 41116, Note_on_c, 0, 64, 48
1, 41119, Note_on_c, 0, 59, 49
1, 41121, Note_on_c, 0, 43, 44
1, 41146, Note_off_c, 0, 31, 63
1, 41147, Note_off_c, 0, 71, 58
1, 41153, Note_off_c, 0, 43, 54
1, 41153, Note_off_c, 0, 59, 53
1, 41156, Note_off_c, 0, 64, 64
1, 41434, Note_on_c, 0, 65, 60
1, 41435, Note_on_c, 0, 43, 52
1, 41437, Note_on_c, 0, 71, 56
1, 41440, Note_on_c, 0, 31, 60
1, 41448, Note_on_c, 0, 59, 39
1, 41468, Note_off_c, 0, 43, 62
1, 41471, Note_off_c, 0, 71, 51
1, 41473, Note_off_c, 0, 31, 63
1, 41476, Note_off_c, 0, 59, 52
1, 41476, Note_off_c, 0, 65, 62
1, 41764, Note_on_c, 0, 70, 59
1, 41766, Note_on_c, 0, 66, 51
1, 41770, Note_on_c, 0, 30, 58
1, 41774, Note_on_c, 0, 58, 36
1, 41776, Note_on_c, 0, 42, 43
1, 41780, Control_c, 0, 64, 56
1, 41795, Control_c, 0, 64, 69
1, 41797, Note_off_c, 0, 66, 62
1, 41802, Note_off_c, 0, 58, 51
1, 41805, Note_off_c, 0, 30, 62
1, 41805, Note_off_c, 0, 42, 55
1, 41818, Control_c, 0, 64, 84
1, 41833, Note_off_c, 0, 70, 53
1, 41833, Control_c, 0, 64, 104
1, 41848, Control_c, 0, 64, 127
1, 41923, Note_on_c, 0, 66, 51
1, 41984, Note_off_c, 0, 66, 64
1, 42013, Note_on_c, 0, 65, 55
1, 42053, Note_off_c, 0, 65, 62
1, 42088, Note_on_c, 0, 66, 65
1, 42101, Control_c, 0, 64, 127
1, 42116, Control_c, 0, 64, 115
1, 42130, Note_off_c, 0, 66, 60
1, 42131, Control_c, 0, 64, 106
1, 42146, Control_c, 0, 64, 98
1, 42158, Note_on_c, 0, 65, 64
1, 42161, Control_c, 0, 64, 88
1, 42175, Control_c, 0, 64, 77
1, 42190, Control_c, 0, 64, 61
1, 42204, Control_c, 0, 64, 0
1, 42206, Note_off_c, 0, 65, 62
1, 42228, Note_on_c, 0, 66, 74
1, 42281, Note_off_c, 0, 66, 65
1, 42306, Note_on_c, 0, 65, 70
1, 42362, Note_off_c, 0, 65, 64
1, 42374, Note_on_c, 0, 66, 72
1, 42438, Note_off_c, 0, 66, 66
1, 42452, Note_on_c, 0, 65, 69
1, 42513, Note_off_c, 0, 65, 64
1, 42528, Note_on_c, 0, 66, 70
1, 42589, Note_off_c, 0, 66, 65
1, 42612, Note_on_c, 0, 65, 58
1, 42661, Note_off_c, 0, 65, 64
1, 42677, Note_on_c, 0, 66, 67
1, 42738, Note_off_c, 0, 66, 64
1, 42765, Note_on_c, 0, 65, 55
1, 42808, Note_off_c, 0, 65, 65
1, 42829, Note_on_c, 0, 66, 63
1, 42906, Note_off_c, 0, 66, 62
1, 42927, Note_on_c, 0, 68, 60
1, 42969, Note_off_c, 0, 68, 65
1, 43011, Note_on_c, 0, 66, 45
1, 43036, Note_off_c, 0, 66, 56
1, 43087, Control_c, 0, 64, 54
1, 43093, Note_on_c, 0, 47, 53
1, 43102, Control_c, 0, 64, 70
1, 43109, Note_on_c, 0, 66, 40
1, 43116, Control_c, 0, 64, 81
1, 43120, Note_off_c, 0, 47, 61
1, 43131, Control_c, 0, 64, 98
1, 43143, Note_off_c, 0, 66, 51
1, 43146, Control_c, 0, 64, 127
1, 43274, Note_on_c, 0, 75, 63
1, 43285, Note_on_c, 0, 58, 22
1, 43310, Note_on_c, 0, 54, 37
1, 43329, Note_off_c, 0, 58, 49
1, 43344, Note_off_c, 0, 54, 50
1, 43375, Control_c, 0, 64, 116
1, 43390, Control_c, 0, 64, 103
1, 43405, Control_c, 0, 64, 91
1, 43420, Control_c, 0, 64, 78
1, 43434, Control_c, 0, 64, 52
1, 43446, Note_on_c, 0, 54, 47
1, 43449, Control_c, 0, 64, 0
1, 43452, Note_on_c, 0, 59, 40
1, 43453, Note_on_c, 0, 63, 54
1, 43495, Note_off_c, 0, 59, 60
1, 43496, Note_off_c, 0, 54, 58
1, 43504, Note_off_c, 0, 63, 59
1, 43611, Note_on_c, 0, 59, 55
1, 43617, Note_on_c, 0, 73, 63
1, 43622, Note_on_c, 0, 54, 56
1, 43639, Note_off_c, 0, 59, 65
1, 43653, Note_off_c, 0, 54, 63
1, 43656, Note_off_c, 0, 75, 58
1, 43799, Note_on_c, 0, 47, 57
1, 43804, Note_on_c, 0, 71, 62
1, 43806, Control_c, 0, 64, 55
1, 43821, Control_c, 0, 64, 71
1, 43827, Note_off_c, 0, 47, 63
1, 43830, Note_off_c, 0, 73, 61
1, 43836, Control_c, 0, 64, 85
1, 43851, Control_c, 0, 64, 110
1, 43866, Control_c, 0, 64, 127
1, 43881, Note_off_c, 0, 71, 58
1, 43971, Note_on_c, 0, 75, 72
1, 43978, Note_on_c, 0, 63, 42
1, 43982, Note_on_c, 0, 59, 43
1, 43985, Note_on_c, 0, 54, 35
1, 44010, Note_off_c, 0, 63, 52
1, 44015, Note_off_c, 0, 59, 57
1, 44020, Note_off_c, 0, 54, 51
1, 44066, Control_c, 0, 64, 114
1, 44081, Control_c, 0, 64, 100
1, 44095, Control_c, 0, 64, 87
1, 44109, Control_c, 0, 64, 70
1, 44124, Control_c, 0, 64, 0
1, 44134, Note_on_c, 0, 54, 50
1, 44135, Note_on_c, 0, 63, 56
1, 44137, Note_on_c, 0, 59, 53
1, 44176, Note_off_c, 0, 59, 62
1, 44182, Note_off_c, 0, 54, 60
1, 44182, Note_off_c, 0, 63, 59
1, 44302, Note_on_c, 0, 71, 67
1, 44308, Note_on_c, 0, 54, 57
1, 44340, Note_off_c, 0, 54, 63
1, 44342, Note_off_c, 0, 75, 60
1, 44460, Note_off_c, 0, 71, 56
1, 44466, Note_on_c, 0, 42, 63
1, 44474, Note_on_c, 0, 70, 72
1, 44480, Control_c, 0, 64, 59
1, 44495, Control_c, 0, 64, 74
1, 44498, Note_off_c, 0, 42, 65
1, 44510, Control_c, 0, 64, 93
1, 44525, Control_c, 0, 64, 127
1, 44536, Note_off_c, 0, 70, 63
1, 44635, Note_on_c, 0, 78, 76
1, 44646, Note_on_c, 0, 61, 53
1, 44654, Note_on_c, 0, 64, 41
1, 44656, Note_on_c, 0, 54, 45
1, 44680, Note_off_c, 0, 61, 62
1, 44685, Note_off_c, 0, 54, 55
1, 44687, Note_off_c, 0, 64, 52
1, 44777, Control_c, 0, 64, 104
1, 44792, Control_c, 0, 64, 88
1, 44793, Note_on_c, 0, 61, 56
1, 44798, Note_on_c, 0, 54, 56
1, 44813, Note_on_c, 0, 64, 52
1, 44814, Control_c, 0, 64, 70
1, 44829, Control_c, 0, 64, 0
1, 44842, Note_off_c, 0, 78, 59
1, 44842, Note_off_c, 0, 61, 63
1, 44848, Note_off_c, 0, 64, 55
1, 44850, Note_off_c, 0, 54, 60
1, 44974, Note_on_c, 0, 78, 73
1, 44978, Note_on_c, 0, 61, 49
1, 44985, Note_on_c, 0, 54, 56
1, 45002, Note_off_c, 0, 61, 59
1, 45029, Note_off_c, 0, 54, 62
1, 45136, Note_on_c, 0, 46, 69
1, 45140, Control_c, 0, 64, 32
1, 45155, Control_c, 0, 64, 66
1, 45162, Note_off_c, 0, 46, 65
1, 45170, Control_c, 0, 64, 82
1, 45185, Control_c, 0, 64, 109
1, 45200, Control_c, 0, 64, 127
1, 45303, Note_off_c, 0, 78, 62
1, 45311, Note_on_c, 0, 80, 70
1, 45315, Note_on_c, 0, 64, 44
1, 45317, Note_on_c, 0, 61, 46
1, 45325, Note_on_c, 0, 54, 55
1, 45341, Note_off_c, 0, 61, 57
1, 45342, Note_off_c, 0, 64, 50
1, 45356, Note_off_c, 0, 54, 63
1, 45363, Control_c, 0, 64, 114
1, 45378, Control_c, 0, 64, 93
1, 45392, Note_off_c, 0, 80, 60
1, 45393, Control_c, 0, 64, 71
1, 45402, Note_on_c, 0, 78, 69
1, 45408, Control_c, 0, 64, 0
1, 45461, Note_off_c, 0, 78, 63
1, 45462, Note_on_c, 0, 42, 58
1, 45474, Note_on_c, 0, 76, 72
1, 45482, Control_c, 0, 64, 68
1, 45488, Note_off_c, 0, 42, 57
1, 45497, Control_c, 0, 64, 78
1, 45511, Control_c, 0, 64, 88
1, 45526, Control_c, 0, 64, 96
1, 45541, Control_c, 0, 64, 106
1, 45546, Note_off_c, 0, 76, 64
1, 45559, Note_on_c, 0, 75, 75
1, 45563, Control_c, 0, 64, 114
1, 45578, Control_c, 0, 64, 117
1, 45608, Control_c, 0, 64, 116
1, 45622, Note_on_c, 0, 61, 52
1, 45623, Control_c, 0, 64, 112
1, 45624, Note_off_c, 0, 75, 64
1, 45628, Note_on_c, 0, 64, 49
1, 45629, Note_on_c, 0, 76, 69
1, 45637, Control_c, 0, 64, 101
1, 45639, Note_on_c, 0, 54, 47
1, 45649, Note_off_c, 0, 61, 63
1, 45652, Note_off_c, 0, 64, 56
1, 45652, Control_c, 0, 64, 88
1, 45665, Note_off_c, 0, 54, 60
1, 45667, Control_c, 0, 64, 69
1, 45682, Control_c, 0, 64, 0
1, 45701, Note_off_c, 0, 76, 67
1, 45703, Note_on_c, 0, 73, 76
1, 45790, Note_off_c, 0, 73, 62
1, 45795, Note_on_c, 0, 71, 73
1, 45798, Note_on_c, 0, 47, 66
1, 45815, Control_c, 0, 64, 66
1, 45824, Note_off_c, 0, 47, 66
1, 45830, Control_c, 0, 64, 84
1, 45845, Control_c, 0, 64, 114
1, 45860, Control_c, 0, 64, 127
1, 45861, Note_off_c, 0, 71, 57
1, 45960, Note_on_c, 0, 75, 74
1, 45962, Note_on_c, 0, 54, 53
1, 45979, Note_on_c, 0, 63, 45
1, 45990, Note_on_c, 0, 59, 21
1, 46010, Note_off_c, 0, 54, 57
1, 46012, Note_off_c, 0, 63, 51
1, 46030, Note_off_c, 0, 59, 51
1, 46054, Control_c, 0, 64, 108
1, 46068, Control_c, 0, 64, 93
1, 46083, Control_c, 0, 64, 76
1, 46098, Control_c, 0, 64, 35
1, 46113, Control_c, 0, 64, 0
1, 46131, Note_on_c, 0, 59, 53
1, 46135, Note_on_c, 0, 63, 58
1, 46142, Note_on_c, 0, 54, 47
1, 46171, Note_off_c, 0, 59, 62
1, 46176, Note_off_c, 0, 54, 57
1, 46177, Note_off_c, 0, 63, 60
1, 46283, Note_on_c, 0, 73, 65
1, 46287, Note_on_c, 0, 59, 46
1, 46288, Note_on_c, 0, 54, 56
1, 46319, Note_off_c, 0, 59, 56
1, 46330, Note_off_c, 0, 75, 58
1, 46331, Note_off_c, 0, 54, 62
1, 46455, Note_on_c, 0, 47, 59
1, 46461, Control_c, 0, 64, 65
1, 46463, Note_off_c, 0, 73, 57
1, 46466, Note_on_c, 0, 71, 68
1, 46476, Control_c, 0, 64, 77
1, 46483, Note_off_c, 0, 47, 66
1, 46491, Control_c, 0, 64, 96
1, 46506, Control_c, 0, 64, 127
1, 46519, Note_off_c, 0, 71, 57
1, 46619, Note_on_c, 0, 59, 53
1, 46629, Note_on_c, 0, 75, 70
1, 46629, Note_on_c, 0, 63, 47
1, 46632, Note_on_c, 0, 54, 49
1, 46666, Note_off_c, 0, 54, 59
1, 46666, Note_off_c, 0, 63, 49
1, 46671, Note_off_c, 0, 59, 60
1, 46698, Control_c, 0, 64, 104
1, 46713, Control_c, 0, 64, 89
1, 46728, Control_c, 0, 64, 72
1, 46743, Control_c, 0, 64, 0
1, 46777, Note_on_c, 0, 54, 49
1, 46789, Note_on_c, 0, 63, 43
1, 46802, Note_on_c, 0, 59, 40
1, 46822, Note_off_c, 0, 54, 60
1, 46828, Note_off_c, 0, 59, 56
1, 46829, Note_off_c, 0, 63, 51
1, 46927, Note_on_c, 0, 59, 47
1, 46945, Note_on_c, 0, 54, 54
1, 46951, Note_on_c, 0, 71, 64
1, 46960, Note_off_c, 0, 59, 63
1, 46972, Note_off_c, 0, 75, 61
1, 46989, Note_off_c, 0, 54, 65
1, 47103, Note_off_c, 0, 71, 57
1, 47115, Note_on_c, 0, 42, 57
1, 47120, Control_c, 0, 64, 64
1, 47124, Note_on_c, 0, 70, 65
1, 47134, Control_c, 0, 64, 76
1, 47145, Note_off_c, 0, 42, 62
1, 47149, Control_c, 0, 64, 95
1, 47164, Control_c, 0, 64, 127
1, 47191, Note_off_c, 0, 70, 62
1, 47293, Note_on_c, 0, 73, 61
1, 47295, Note_on_c, 0, 61, 61
1, 47300, Note_on_c, 0, 64, 53
1, 47324, Note_on_c, 0, 54, 22
1, 47332, Note_off_c, 0, 61, 59
1, 47343, Note_off_c, 0, 64, 59
1, 47357, Control_c, 0, 64, 110
1, 47360, Note_on_c, 0, 71, 68
1, 47364, Note_off_c, 0, 54, 40
1, 47371, Control_c, 0, 64, 98
1, 47386, Control_c, 0, 64, 84
1, 47398, Note_off_c, 0, 73, 36
1, 47401, Control_c, 0, 64, 66
1, 47416, Control_c, 0, 64, 0
1, 47435, Note_off_c, 0, 71, 60
1, 47440, Note_on_c, 0, 70, 73
1, 47444, Note_on_c, 0, 61, 53
1, 47455, Note_on_c, 0, 64, 40
1, 47457, Note_on_c, 0, 54, 52
1, 47485, Note_off_c, 0, 54, 59
1, 47486, Note_off_c, 0, 61, 62
1, 47495, Note_off_c, 0, 64, 51
1, 47512, Note_off_c, 0, 70, 57
1, 47517, Note_on_c, 0, 71, 68
1, 47589, Note_on_c, 0, 73, 76
1, 47590, Note_off_c, 0, 71, 60
1, 47593, Note_on_c, 0, 54, 47
1, 47597, Note_on_c, 0, 61, 46
1, 47620, Note_off_c, 0, 61, 57
1, 47640, Note_off_c, 0, 54, 64
1, 47661, Note_on_c, 0, 70, 77
1, 47664, Note_off_c, 0, 73, 60
1, 47698, Control_c, 0, 64, 13
1, 47713, Control_c, 0, 64, 64
1, 47726, Note_off_c, 0, 70, 64
1, 47728, Control_c, 0, 64, 73
1, 47738, Note_on_c, 0, 71, 74
1, 47743, Control_c, 0, 64, 89
1, 47744, Note_on_c, 0, 47, 75
1, 47757, Control_c, 0, 64, 105
1, 47772, Control_c, 0, 64, 119
1, 47787, Control_c, 0, 64, 127
1, 47807, Note_off_c, 0, 47, 61
1, 47837, Note_on_c, 0, 59, 73
1, 47842, Note_off_c, 0, 71, 57
1, 47908, Note_on_c, 0, 57, 73
1, 47928, Control_c, 0, 64, 118
1, 47931, Note_off_c, 0, 59, 60
1, 47943, Control_c, 0, 64, 106
1, 47957, Control_c, 0, 64, 96
1, 47972, Control_c, 0, 64, 84
1, 47981, Note_on_c, 0, 55, 79
1, 47987, Control_c, 0, 64, 69
1, 47989, Note_off_c, 0, 57, 61
1, 48002, Control_c, 0, 64, 0
1, 48053, Note_on_c, 0, 54, 76
1, 48077, Note_off_c, 0, 55, 65
1, 48111, Note_off_c, 0, 54, 64
1, 48135, Note_on_c, 0, 52, 88
1, 48206, Note_on_c, 0, 50, 84
1, 48213, Note_off_c, 0, 52, 62
1, 48276, Note_on_c, 0, 49, 83
1, 48284, Note_off_c, 0, 50, 63
1, 48361, Note_on_c, 0, 47, 84
1, 48377, Note_on_c, 0, 62, 68
1, 48383, Note_off_c, 0, 49, 61
1, 48386, Note_on_c, 0, 59, 53
1, 48426, Note_off_c, 0, 47, 64
1, 48430, Note_off_c, 0, 59, 56
1, 48448, Note_off_c, 0, 62, 62
1, 48461, Note_on_c, 0, 66, 63
1, 48531, Note_on_c, 0, 50, 87
1, 48535, Note_on_c, 0, 59, 56
1, 48537, Note_off_c, 0, 66, 65
1, 48551, Note_on_c, 0, 62, 66
1, 48601, Note_off_c, 0, 59, 57
1, 48618, Note_off_c, 0, 62, 60
1, 48629, Note_on_c, 0, 66, 59
1, 48704, Note_off_c, 0, 66, 65
1, 48712, Note_on_c, 0, 59, 55
1, 48722, Note_on_c, 0, 62, 55
1, 48752, Note_off_c, 0, 59, 60
1, 48775, Note_off_c, 0, 62, 57
1, 48781, Note_on_c, 0, 66, 63
1, 48869, Note_off_c, 0, 66, 64
1, 48873, Note_on_c, 0, 49, 79
1, 48881, Note_on_c, 0, 59, 41
1, 48885, Note_on_c, 0, 62, 61
1, 48889, Note_off_c, 0, 50, 54
1, 48929, Note_off_c, 0, 59, 49
1, 48949, Note_off_c, 0, 62, 58
1, 48952, Note_on_c, 0, 66, 59
1, 49036, Note_on_c, 0, 47, 84
1, 49037, Note_off_c, 0, 66, 65
1, 49039, Note_on_c, 0, 59, 53
1, 49050, Note_on_c, 0, 62, 66
1, 49053, Note_off_c, 0, 49, 60
1, 49094, Note_off_c, 0, 59, 54
1, 49097, Note_off_c, 0, 47, 65
1, 49112, Note_off_c, 0, 62, 59
1, 49119, Note_on_c, 0, 66, 61
1, 49204, Note_off_c, 0, 66, 64
1, 49205, Note_on_c, 0, 50, 81
1, 49212, Note_on_c, 0, 59, 58
1, 49220, Note_on_c, 0, 62, 65
1, 49267, Note_off_c, 0, 59, 53
1, 49282, Note_off_c, 0, 62, 60
1, 49288, Note_on_c, 0, 66, 59
1, 49390, Note_on_c, 0, 59, 52
1, 49390, Note_off_c, 0, 66, 62
1, 49393, Note_on_c, 0, 62, 53
1, 49435, Note_off_c, 0, 59, 59
1, 49466, Note_off_c, 0, 62, 62
1, 49473, Note_on_c, 0, 66, 57
1, 49537, Note_off_c, 0, 50, 38
1, 49541, Note_off_c, 0, 66, 63
1, 49543, Note_on_c, 0, 47, 76
1, 49547, Note_on_c, 0, 62, 65
1, 49551, Note_on_c, 0, 59, 38
1, 49580, Note_off_c, 0, 59, 49
1, 49615, Note_off_c, 0, 62, 60
1, 49625, Note_on_c, 0, 66, 61
1, 49682, Note_off_c, 0, 47, 60
1, 49712, Note_off_c, 0, 66, 64
1, 49714, Note_on_c, 0, 46, 80
1, 49717, Note_on_c, 0, 64, 64
1, 49718, Note_on_c, 0, 61, 63
1, 49752, Note_off_c, 0, 46, 65
1, 49771, Note_off_c, 0, 61, 54
1, 49806, Note_on_c, 0, 66, 68
1, 49807, Note_off_c, 0, 64, 59
1, 49881, Note_off_c, 0, 66, 65
1, 49884, Note_on_c, 0, 54, 81
1, 49888, Note_on_c, 0, 61, 61
1, 49890, Note_on_c, 0, 58, 60
1, 49946, Note_off_c, 0, 58, 55
1, 49953, Note_off_c, 0, 61, 62
1, 49958, Note_on_c, 0, 66, 67
1, 50063, Note_off_c, 0, 66, 64
1, 50071, Note_on_c, 0, 58, 55
1, 50084, Note_on_c, 0, 61, 60
1, 50123, Note_off_c, 0, 58, 58
1, 50144, Note_off_c, 0, 54, 61
1, 50145, Note_off_c, 0, 61, 60
1, 50152, Note_on_c, 0, 66, 69
1, 50221, Note_on_c, 0, 54, 75
1, 50235, Note_off_c, 0, 66, 62
1, 50238, Note_on_c, 0, 58, 61
1, 50251, Note_on_c, 0, 61, 62
1, 50290, Note_off_c, 0, 58, 56
1, 50306, Note_off_c, 0, 61, 56
1, 50318, Note_on_c, 0, 66, 60
1, 50397, Note_off_c, 0, 66, 65
1, 50403, Note_on_c, 0, 58, 58
1, 50415, Note_on_c, 0, 61, 62
1, 50448, Note_off_c, 0, 58, 59
1, 50470, Note_off_c, 0, 61, 58
1, 50479, Note_on_c, 0, 66, 64
1, 50487, Note_off_c, 0, 54, 58
1, 50543, Note_on_c, 0, 55, 77
1, 50550, Note_off_c, 0, 66, 65
1, 50555, Note_on_c, 0, 58, 61
1, 50570, Note_on_c, 0, 61, 60
1, 50600, Note_off_c, 0, 58, 58
1, 50621, Note_on_c, 0, 54, 69
1, 50622, Note_off_c, 0, 55, 61
1, 50624, Note_off_c, 0, 61, 58
1, 50627, Note_on_c, 0, 66, 62
1, 50695, Note_on_c, 0, 52, 76
1, 50700, Note_off_c, 0, 66, 66
1, 50705, Note_off_c, 0, 54, 61
1, 50710, Note_on_c, 0, 58, 60
1, 50716, Note_on_c, 0, 61, 64
1, 50761, Note_off_c, 0, 58, 56
1, 50779, Note_on_c, 0, 50, 66
1, 50782, Note_off_c, 0, 52, 64
1, 50791, Note_off_c, 0, 61, 62
1, 50803, Note_on_c, 0, 66, 71
1, 50836, Note_off_c, 0, 50, 63
1, 50868, Note_on_c, 0, 52, 66
1, 50870, Note_off_c, 0, 66, 64
1, 50890, Note_on_c, 0, 58, 48
1, 50891, Note_on_c, 0, 61, 59
1, 50938, Note_off_c, 0, 58, 60
1, 50940, Note_on_c, 0, 49, 77
1, 50949, Note_on_c, 0, 66, 67
1, 50958, Note_off_c, 0, 52, 64
1, 50970, Note_off_c, 0, 61, 57
1, 51022, Note_off_c, 0, 66, 64
1, 51036, Note_on_c, 0, 47, 85
1, 51049, Note_on_c, 0, 62, 63
1, 51053, Note_off_c, 0, 49, 62
1, 51056, Note_on_c, 0, 59, 60
1, 51090, Note_off_c, 0, 47, 64
1, 51098, Note_off_c, 0, 59, 57
1, 51116, Note_off_c, 0, 62, 61
1, 51122, Note_on_c, 0, 66, 70
1, 51169, Note_off_c, 0, 66, 61
1, 51198, Note_on_c, 0, 50, 83
1, 51208, Note_on_c, 0, 62, 66
1, 51213, Note_on_c, 0, 59, 58
1, 51251, Note_off_c, 0, 59, 58
1, 51276, Note_off_c, 0, 62, 61
1, 51278, Note_on_c, 0, 66, 71
1, 51352, Note_on_c, 0, 59, 70
1, 51360, Note_off_c, 0, 66, 66
1, 51372, Note_on_c, 0, 65, 61
1, 51416, Note_off_c, 0, 59, 60
1, 51423, Note_off_c, 0, 50, 60
1, 51443, Note_off_c, 0, 65, 64
1, 51447, Note_on_c, 0, 68, 72
1, 51506, Note_off_c, 0, 68, 61
1, 51527, Note_on_c, 0, 50, 72
1, 51530, Note_on_c, 0, 59, 50
1, 51532, Note_on_c, 0, 65, 46
1, 51560, Note_off_c, 0, 59, 59
1, 51576, Note_off_c, 0, 50, 59
1, 51584, Note_off_c, 0, 65, 52
1, 51607, Note_on_c, 0, 68, 67
1, 51668, Note_off_c, 0, 68, 59
1, 51688, Control_c, 0, 64, 62
1, 51697, Note_on_c, 0, 67, 69
1, 51703, Control_c, 0, 64, 68
1, 51705, Note_on_c, 0, 49, 72
1, 51706, Note_on_c, 0, 64, 56
1, 51718, Control_c, 0, 64, 74
1, 51733, Control_c, 0, 64, 79
1, 51742, Note_off_c, 0, 64, 62
1, 51744, Note_off_c, 0, 49, 64
1, 51747, Control_c, 0, 64, 82
1, 51762, Control_c, 0, 64, 83
1, 51802, Note_on_c, 0, 69, 70
1, 51807, Note_off_c, 0, 67, 56
1, 51867, Note_off_c, 0, 69, 63
1, 51876, Note_on_c, 0, 52, 62
1, 51886, Note_on_c, 0, 64, 62
1, 51891, Note_on_c, 0, 67, 70
1, 51895, Control_c, 0, 64, 83
1, 51910, Control_c, 0, 64, 82
1, 51924, Control_c, 0, 64, 78
1, 51925, Note_off_c, 0, 64, 63
1, 51939, Control_c, 0, 64, 71
1, 51945, Note_off_c, 0, 52, 66
1, 51953, Note_on_c, 0, 50, 68
1, 51954, Control_c, 0, 64, 13
1, 51958, Note_off_c, 0, 67, 57
1, 51966, Note_on_c, 0, 69, 78
1, 51969, Control_c, 0, 64, 0
1, 52022, Note_off_c, 0, 50, 62
1, 52024, Note_off_c, 0, 69, 63
1, 52028, Note_on_c, 0, 49, 79
1, 52040, Note_on_c, 0, 67, 75
1, 52041, Note_on_c, 0, 64, 63
1, 52078, Note_off_c, 0, 64, 61
1, 52101, Note_off_c, 0, 49, 61
1, 52102, Note_on_c, 0, 50, 66
1, 52115, Note_on_c, 0, 69, 79
1, 52118, Note_off_c, 0, 67, 61
1, 52165, Note_off_c, 0, 50, 61
1, 52180, Note_on_c, 0, 52, 72
1, 52187, Note_off_c, 0, 69, 64
1, 52189, Note_on_c, 0, 64, 69
1, 52194, Note_on_c, 0, 67, 73
1, 52234, Note_off_c, 0, 64, 63
1, 52251, Note_on_c, 0, 49, 74
1, 52252, Note_off_c, 0, 52, 62
1, 52272, Note_on_c, 0, 69, 77
1, 52275, Note_off_c, 0, 67, 61
1, 52341, Note_off_c, 0, 69, 60
1, 52351, Note_on_c, 0, 50, 85
1, 52355, Note_off_c, 0, 49, 56
1, 52357, Note_on_c, 0, 66, 82
1, 52358, Note_on_c, 0, 62, 75
1, 52385, Note_off_c, 0, 50, 66
1, 52410, Note_off_c, 0, 62, 57
1, 52438, Note_off_c, 0, 66, 66
1, 52442, Note_on_c, 0, 69, 75
1, 52492, Note_off_c, 0, 69, 64
1, 52519, Note_on_c, 0, 66, 79
1, 52523, Note_on_c, 0, 54, 80
1, 52525, Note_on_c, 0, 62, 65
1, 52552, Note_off_c, 0, 62, 64
1, 52585, Note_off_c, 0, 66, 64
1, 52597, Note_on_c, 0, 69, 73
1, 52615, Control_c, 0, 64, 48
1, 52629, Control_c, 0, 64, 66
1, 52644, Control_c, 0, 64, 74
1, 52649, Note_off_c, 0, 69, 64
1, 52659, Control_c, 0, 64, 84
1, 52674, Control_c, 0, 64, 95
1, 52679, Note_on_c, 0, 69, 55
1, 52681, Note_on_c, 0, 63, 73
1, 52689, Control_c, 0, 64, 101
1, 52702, Note_on_c, 0, 68, 29
1, 52703, Control_c, 0, 64, 103
1, 52715, Note_off_c, 0, 54, 59
1, 52734, Note_off_c, 0, 63, 59
1, 52740, Note_off_c, 0, 68, 53
1, 52762, Control_c, 0, 64, 100
1, 52767, Note_off_c, 0, 69, 64
1, 52768, Note_on_c, 0, 72, 77
1, 52777, Control_c, 0, 64, 94
1, 52792, Control_c, 0, 64, 84
1, 52807, Control_c, 0, 64, 68
1, 52821, Control_c, 0, 64, 0
1, 52829, Note_off_c, 0, 72, 64
1, 52841, Note_on_c, 0, 54, 76
1, 52841, Note_on_c, 0, 69, 65
1, 52844, Note_on_c, 0, 63, 65
1, 52878, Note_off_c, 0, 63, 66
1, 52902, Note_off_c, 0, 69, 64
1, 52906, Note_on_c, 0, 72, 63
1, 52907, Note_off_c, 0, 54, 56
1, 52947, Note_off_c, 0, 72, 64
1, 53002, Note_on_c, 0, 71, 67
1, 53005, Note_on_c, 0, 68, 68
1, 53014, Note_on_c, 0, 53, 82
1, 53029, Control_c, 0, 64, 65
1, 53051, Control_c, 0, 64, 70
1, 53066, Control_c, 0, 64, 78
1, 53068, Note_off_c, 0, 68, 56
1, 53070, Note_off_c, 0, 53, 66
1, 53081, Control_c, 0, 64, 85
1, 53095, Control_c, 0, 64, 90
1, 53110, Control_c, 0, 64, 94
1, 53112, Note_on_c, 0, 73, 72
1, 53117, Note_off_c, 0, 71, 57
1, 53125, Control_c, 0, 64, 96
1, 53140, Control_c, 0, 64, 97
1, 53154, Control_c, 0, 64, 98
1, 53178, Note_off_c, 0, 73, 60
1, 53187, Note_on_c, 0, 68, 73
1, 53192, Note_on_c, 0, 56, 72
1, 53201, Note_on_c, 0, 71, 65
1, 53245, Note_off_c, 0, 68, 62
1, 53253, Note_off_c, 0, 56, 61
1, 53258, Note_on_c, 0, 54, 73
1, 53278, Note_on_c, 0, 73, 76
1, 53281, Note_off_c, 0, 71, 57
1, 53289, Control_c, 0, 64, 96
1, 53304, Control_c, 0, 64, 93
1, 53318, Control_c, 0, 64, 86
1, 53333, Control_c, 0, 64, 76
1, 53336, Note_off_c, 0, 73, 62
1, 53344, Note_on_c, 0, 53, 70
1, 53344, Note_on_c, 0, 71, 62
1, 53347, Note_on_c, 0, 68, 73
1, 53348, Control_c, 0, 64, 61
1, 53363, Control_c, 0, 64, 0
1, 53384, Note_off_c, 0, 68, 60
1, 53398, Note_off_c, 0, 54, 0
1, 53410, Note_on_c, 0, 54, 49
1, 53415, Note_off_c, 0, 53, 65
1, 53429, Note_on_c, 0, 73, 70
1, 53437, Note_off_c, 0, 71, 59
1, 53490, Note_on_c, 0, 56, 72
1, 53491, Note_off_c, 0, 54, 58
1, 53491, Note_off_c, 0, 73, 62
1, 53499, Note_on_c, 0, 68, 71
1, 53509, Note_on_c, 0, 71, 57
1, 53547, Note_off_c, 0, 68, 60
1, 53567, Note_off_c, 0, 56, 52
1, 53578, Note_on_c, 0, 53, 69
1, 53581, Note_on_c, 0, 73, 75
1, 53611, Note_off_c, 0, 71, 59
1, 53649, Note_off_c, 0, 53, 64
1, 53661, Note_on_c, 0, 54, 82
1, 53671, Note_on_c, 0, 66, 69
1, 53672, Note_on_c, 0, 69, 75
1, 53672, Note_off_c, 0, 73, 60
1, 53714, Note_off_c, 0, 54, 63
1, 53715, Note_off_c, 0, 66, 62
1, 53750, Note_on_c, 0, 73, 65
1, 53751, Note_off_c, 0, 69, 64
1, 53838, Note_on_c, 0, 66, 73
1, 53839, Note_on_c, 0, 57, 82
1, 53840, Note_off_c, 0, 73, 62
1, 53848, Note_on_c, 0, 69, 66
1, 53891, Note_off_c, 0, 66, 63
1, 53919, Note_on_c, 0, 73, 67
1, 53921, Note_off_c, 0, 69, 64
1, 53990, Note_on_c, 0, 66, 69
1, 54002, Note_off_c, 0, 73, 62
1, 54008, Note_on_c, 0, 69, 66
1, 54049, Note_off_c, 0, 66, 63
1, 54067, Control_c, 0, 64, 52
1, 54070, Note_off_c, 0, 57, 60
1, 54079, Note_on_c, 0, 73, 66
1, 54080, Note_off_c, 0, 69, 65
1, 54082, Control_c, 0, 64, 65
1, 54097, Control_c, 0, 64, 71
1, 54112, Control_c, 0, 64, 79
1, 54126, Control_c, 0, 64, 89
1, 54141, Control_c, 0, 64, 95
1, 54156, Control_c, 0, 64, 100
1, 54161, Note_on_c, 0, 66, 59
1, 54162, Note_off_c, 0, 73, 62
1, 54163, Note_on_c, 0, 57, 79
1, 54164, Note_on_c, 0, 69, 66
1, 54171, Control_c, 0, 64, 102
1, 54186, Control_c, 0, 64, 103
1, 54201, Control_c, 0, 64, 104
1, 54204, Note_off_c, 0, 66, 62
1, 54216, Control_c, 0, 64, 105
1, 54219, Note_off_c, 0, 57, 58
1, 54231, Note_off_c, 0, 69, 65
1, 54237, Note_on_c, 0, 73, 64
1, 54245, Control_c, 0, 64, 106
1, 54333, Note_off_c, 0, 73, 61
1, 54346, Note_on_c, 0, 57, 83
1, 54348, Note_on_c, 0, 66, 72
1, 54393, Control_c, 0, 64, 105
1, 54423, Control_c, 0, 64, 104
1, 54434, Note_on_c, 0, 75, 69
1, 54438, Control_c, 0, 64, 101
1, 54443, Note_off_c, 0, 66, 57
1, 54453, Control_c, 0, 64, 97
1, 54467, Control_c, 0, 64, 89
1, 54482, Control_c, 0, 64, 78
1, 54497, Control_c, 0, 64, 64
1, 54504, Note_off_c, 0, 75, 63
1, 54507, Note_on_c, 0, 47, 70
1, 54511, Control_c, 0, 64, 0
1, 54520, Note_off_c, 0, 57, 56
1, 54520, Note_on_c, 0, 71, 61
1, 54582, Note_off_c, 0, 71, 60
1, 54594, Note_on_c, 0, 75, 62
1, 54638, Control_c, 0, 64, 56
1, 54653, Control_c, 0, 64, 66
1, 54664, Note_off_c, 0, 75, 62
1, 54667, Control_c, 0, 64, 73
1, 54669, Note_on_c, 0, 67, 70
1, 54682, Control_c, 0, 64, 82
1, 54697, Control_c, 0, 64, 87
1, 54712, Control_c, 0, 64, 88
1, 54739, Note_off_c, 0, 67, 51
1, 54752, Note_on_c, 0, 76, 68
1, 54809, Note_off_c, 0, 47, 55
1, 54821, Note_off_c, 0, 76, 66
1, 54831, Control_c, 0, 64, 88
1, 54832, Note_on_c, 0, 71, 71
1, 54833, Note_on_c, 0, 55, 81
1, 54888, Note_off_c, 0, 55, 59
1, 54895, Note_off_c, 0, 71, 61
1, 54906, Note_on_c, 0, 76, 66
1, 54920, Control_c, 0, 64, 87
1, 54964, Control_c, 0, 64, 87
1, 54979, Control_c, 0, 64, 86
1, 54985, Note_off_c, 0, 76, 64
1, 54994, Note_on_c, 0, 55, 88
1, 54994, Control_c, 0, 64, 85
1, 55009, Control_c, 0, 64, 83
1, 55014, Note_on_c, 0, 64, 70
1, 55023, Control_c, 0, 64, 79
1, 55038, Control_c, 0, 64, 73
1, 55053, Control_c, 0, 64, 62
1, 55068, Control_c, 0, 64, 0
1, 55069, Note_off_c, 0, 64, 59
1, 55084, Note_on_c, 0, 73, 68
1, 55159, Note_on_c, 0, 45, 69
1, 55170, Note_off_c, 0, 73, 59
1, 55170, Note_on_c, 0, 69, 66
1, 55190, Note_off_c, 0, 55, 48
1, 55230, Note_off_c, 0, 69, 64
1, 55254, Note_on_c, 0, 73, 59
1, 55298, Control_c, 0, 64, 51
1, 55313, Control_c, 0, 64, 62
1, 55328, Control_c, 0, 64, 63
1, 55333, Note_on_c, 0, 66, 69
1, 55342, Control_c, 0, 64, 61
1, 55357, Control_c, 0, 64, 53
1, 55372, Control_c, 0, 64, 0
1, 55375, Note_off_c, 0, 73, 50
1, 55408, Note_off_c, 0, 66, 59
1, 55428, Note_on_c, 0, 74, 64
1, 55490, Note_on_c, 0, 54, 70
1, 55492, Note_off_c, 0, 45, 63
1, 55492, Note_off_c, 0, 74, 65
1, 55502, Note_on_c, 0, 69, 73
1, 55505, Control_c, 0, 64, 56
1, 55520, Control_c, 0, 64, 67
1, 55535, Control_c, 0, 64, 74
1, 55539, Note_off_c, 0, 54, 57
1, 55549, Control_c, 0, 64, 81
1, 55564, Control_c, 0, 64, 86
1, 55565, Note_off_c, 0, 69, 64
1, 55575, Note_on_c, 0, 74, 69
1, 55579, Control_c, 0, 64, 88
1, 55594, Control_c, 0, 64, 91
1, 55609, Control_c, 0, 64, 92
1, 55625, Control_c, 0, 64, 93
1, 55646, Note_off_c, 0, 74, 64
1, 55653, Note_on_c, 0, 54, 77
1, 55676, Note_on_c, 0, 62, 74
1, 55699, Control_c, 0, 64, 91
1, 55713, Control_c, 0, 64, 83
1, 55728, Control_c, 0, 64, 69
1, 55741, Note_off_c, 0, 62, 56
1, 55743, Control_c, 0, 64, 0
1, 55751, Note_on_c, 0, 71, 69
1, 55817, Note_off_c, 0, 54, 62
1, 55817, Control_c, 0, 64, 59
1, 55827, Note_on_c, 0, 43, 72
1, 55832, Control_c, 0, 64, 66
1, 55833, Note_off_c, 0, 71, 58
1, 55842, Note_on_c, 0, 67, 65
1, 55846, Control_c, 0, 64, 70
1, 55861, Control_c, 0, 64, 75
1, 55876, Control_c, 0, 64, 80
1, 55891, Control_c, 0, 64, 82
1, 55906, Control_c, 0, 64, 83
1, 55906, Note_off_c, 0, 67, 63
1, 55927, Note_on_c, 0, 71, 61
1, 55951, Control_c, 0, 64, 81
1, 55965, Control_c, 0, 64, 73
1, 55980, Control_c, 0, 64, 53
1, 55985, Note_off_c, 0, 71, 59
1, 55995, Control_c, 0, 64, 0
1, 56006, Note_on_c, 0, 64, 62
1, 56058, Note_off_c, 0, 64, 60
1, 56076, Control_c, 0, 64, 61
1, 56091, Control_c, 0, 64, 66
1, 56091, Note_on_c, 0, 73, 62
1, 56106, Control_c, 0, 64, 70
1, 56111, Note_off_c, 0, 43, 58
1, 56120, Control_c, 0, 64, 74
1, 56135, Control_c, 0, 64, 78
1, 56150, Control_c, 0, 64, 80
1, 56162, Note_off_c, 0, 73, 60
1, 56165, Control_c, 0, 64, 82
1, 56169, Note_on_c, 0, 67, 72
1, 56180, Note_on_c, 0, 52, 84
1, 56180, Control_c, 0, 64, 84
1, 56195, Control_c, 0, 64, 85
1, 56210, Control_c, 0, 64, 85
1, 56225, Control_c, 0, 64, 86
1, 56226, Note_off_c, 0, 67, 60
1, 56242, Note_off_c, 0, 52, 64
1, 56244, Note_on_c, 0, 73, 70
1, 56298, Control_c, 0, 64, 82
1, 56313, Control_c, 0, 64, 73
1, 56325, Note_off_c, 0, 73, 61
1, 56328, Control_c, 0, 64, 0
1, 56333, Note_on_c, 0, 52, 87
1, 56338, Note_on_c, 0, 61, 72
1, 56416, Note_on_c, 0, 70, 65
1, 56424, Note_off_c, 0, 61, 57
1, 56448, Control_c, 0, 64, 57
1, 56462, Control_c, 0, 64, 69
1, 56477, Control_c, 0, 64, 78
1, 56485, Note_off_c, 0, 70, 61
1, 56491, Note_on_c, 0, 66, 74
1, 56492, Control_c, 0, 64, 87
1, 56495, Note_on_c, 0, 42, 75
1, 56507, Control_c, 0, 64, 93
1, 56521, Control_c, 0, 64, 96
1, 56536, Control_c, 0, 64, 98
1, 56551, Control_c, 0, 64, 100
1, 56552, Note_off_c, 0, 66, 64
1, 56559, Note_off_c, 0, 42, 62
1, 56566, Control_c, 0, 64, 102
1, 56571, Note_on_c, 0, 70, 74
1, 56581, Control_c, 0, 64, 103
1, 56633, Note_off_c, 0, 70, 63
1, 56640, Control_c, 0, 64, 100
1, 56651, Note_on_c, 0, 43, 84
1, 56655, Control_c, 0, 64, 92
1, 56658, Note_on_c, 0, 59, 79
1, 56669, Control_c, 0, 64, 78
1, 56684, Note_off_c, 0, 52, 54
1, 56684, Control_c, 0, 64, 21
1, 56699, Control_c, 0, 64, 0
1, 56721, Note_off_c, 0, 59, 60
1, 56734, Note_on_c, 0, 71, 79
1, 56758, Control_c, 0, 64, 34
1, 56773, Control_c, 0, 64, 65
1, 56795, Control_c, 0, 64, 67
1, 56803, Note_off_c, 0, 71, 61
1, 56810, Control_c, 0, 64, 69
1, 56825, Control_c, 0, 64, 72
1, 56826, Note_on_c, 0, 59, 77
1, 56827, Note_on_c, 0, 50, 73
1, 56840, Control_c, 0, 64, 79
1, 56851, Note_off_c, 0, 43, 56
1, 56855, Control_c, 0, 64, 85
1, 56869, Control_c, 0, 64, 90
1, 56879, Note_off_c, 0, 59, 62
1, 56884, Control_c, 0, 64, 92
1, 56885, Note_off_c, 0, 50, 59
1, 56899, Control_c, 0, 64, 94
1, 56901, Note_on_c, 0, 71, 82
1, 56913, Control_c, 0, 64, 95
1, 56928, Note_off_c, 0, 71, 59
1, 56958, Control_c, 0, 64, 94
1, 56973, Control_c, 0, 64, 86
1, 56988, Note_on_c, 0, 67, 93
1, 56988, Control_c, 0, 64, 69
1, 56991, Note_on_c, 0, 50, 84
1, 56994, Note_on_c, 0, 40, 82
1, 57003, Control_c, 0, 64, 0
1, 57057, Note_off_c, 0, 67, 62
1, 57076, Note_on_c, 0, 79, 91
1, 57077, Control_c, 0, 64, 63
1, 57088, Note_off_c, 0, 50, 59
1, 57092, Control_c, 0, 64, 69
1, 57107, Control_c, 0, 64, 76
1, 57121, Control_c, 0, 64, 87
1, 57136, Control_c, 0, 64, 96
1, 57142, Note_off_c, 0, 79, 61
1, 57149, Note_on_c, 0, 49, 77
1, 57151, Control_c, 0, 64, 104
1, 57158, Note_on_c, 0, 67, 90
1, 57166, Control_c, 0, 64, 110
1, 57181, Control_c, 0, 64, 114
1, 57195, Control_c, 0, 64, 118
1, 57208, Note_off_c, 0, 67, 63
1, 57211, Control_c, 0, 64, 126
1, 57225, Note_on_c, 0, 79, 85
1, 57226, Control_c, 0, 64, 127
1, 57254, Note_off_c, 0, 49, 61
1, 57259, Note_off_c, 0, 79, 66
1, 57300, Control_c, 0, 64, 119
1, 57315, Control_c, 0, 64, 98
1, 57319, Note_on_c, 0, 47, 80
1, 57322, Note_on_c, 0, 61, 90
1, 57330, Control_c, 0, 64, 79
1, 57344, Control_c, 0, 64, 0
1, 57373, Note_off_c, 0, 61, 59
1, 57399, Note_on_c, 0, 73, 84
1, 57418, Control_c, 0, 64, 61
1, 57426, Note_off_c, 0, 47, 57
1, 57433, Note_off_c, 0, 73, 64
1, 57433, Control_c, 0, 64, 69
1, 57448, Note_on_c, 0, 46, 74
1, 57448, Control_c, 0, 64, 78
1, 57454, Note_off_c, 0, 40, 62
1, 57462, Control_c, 0, 64, 87
1, 57477, Control_c, 0, 64, 95
1, 57490, Note_on_c, 0, 66, 77
1, 57492, Control_c, 0, 64, 99
1, 57506, Note_off_c, 0, 46, 63
1, 57507, Control_c, 0, 64, 102
1, 57522, Control_c, 0, 64, 102
1, 57551, Note_off_c, 0, 66, 64
1, 57561, Note_on_c, 0, 78, 79
1, 57574, Control_c, 0, 64, 101
1, 57582, Note_off_c, 0, 78, 70
1, 57589, Control_c, 0, 64, 94
1, 57604, Control_c, 0, 64, 77
1, 57618, Control_c, 0, 64, 0
1, 57691, Note_on_c, 0, 35, 66
1, 57693, Note_on_c, 0, 59, 59
1, 57697, Note_on_c, 0, 47, 68
1, 57701, Note_on_c, 0, 71, 68
1, 57707, Control_c, 0, 64, 62
1, 57711, Note_off_c, 0, 59, 63
1, 57718, Note_off_c, 0, 35, 66
1, 57722, Control_c, 0, 64, 76
1, 57723, Note_off_c, 0, 47, 65
1, 57725, Note_on_c, 0, 60, 34
1, 57736, Control_c, 0, 64, 91
1, 57739, Note_off_c, 0, 71, 60
1, 57751, Control_c, 0, 64, 108
1, 57754, Note_off_c, 0, 60, 54
1, 57766, Control_c, 0, 64, 121
1, 57781, Control_c, 0, 64, 125
1, 57796, Control_c, 0, 64, 127
1, 57811, Control_c, 0, 64, 127
1, 57855, Control_c, 0, 64, 126
1, 57858, Note_on_c, 0, 74, 68
1, 57870, Control_c, 0, 64, 116
1, 57885, Control_c, 0, 64, 99
1, 57890, Note_on_c, 0, 62, 35
1, 57900, Control_c, 0, 64, 83
1, 57915, Control_c, 0, 64, 61
1, 57922, Note_off_c, 0, 62, 49
1, 57930, Control_c, 0, 64, 0
1, 58029, Note_on_c, 0, 62, 60
1, 58039, Note_off_c, 0, 74, 64
1, 58046, Note_on_c, 0, 59, 58
1, 58064, Note_off_c, 0, 62, 63
1, 58067, Note_off_c, 0, 59, 63
1, 58194, Note_on_c, 0, 74, 60
1, 58201, Note_on_c, 0, 62, 51
1, 58219, Note_on_c, 0, 59, 37
1, 58225, Note_off_c, 0, 62, 57
1, 58244, Note_off_c, 0, 59, 52
1, 58371, Note_off_c, 0, 74, 59
1, 58383, Control_c, 0, 64, 18
1, 58391, Note_on_c, 0, 73, 64
1, 58398, Control_c, 0, 64, 67
1, 58413, Control_c, 0, 64, 83
1, 58428, Control_c, 0, 64, 112
1, 58442, Control_c, 0, 64, 127
1, 58449, Note_off_c, 0, 73, 62
1, 58463, Poly_aftertouch_c, 0, 45, 127
1, 58489, Poly_aftertouch_c, 0, 45, 0
1, 58535, Note_on_c, 0, 56, 58
1, 58567, Note_on_c, 0, 76, 63
1, 58583, Note_off_c, 0, 56, 62
1, 58633, Poly_aftertouch_c, 0, 64, 0
1, 58634, Note_on_c, 0, 74, 67
1, 58634, Control_c, 0, 64, 120
1, 58642, Note_off_c, 0, 76, 62
1, 58649, Control_c, 0, 64, 101
1, 58664, Control_c, 0, 64, 88
1, 58679, Control_c, 0, 64, 73
1, 58693, Control_c, 0, 64, 0
1, 58696, Note_off_c, 0, 74, 64
1, 58708, Note_on_c, 0, 73, 73
1, 58729, Note_on_c, 0, 57, 47
1, 58738, Note_on_c, 0, 61, 41
1, 58741, Note_on_c, 0, 64, 39
1, 58755, Note_off_c, 0, 57, 58
1, 58762, Note_off_c, 0, 73, 62
1, 58764, Note_off_c, 0, 61, 49
1, 58769, Note_off_c, 0, 64, 53
1, 58777, Note_on_c, 0, 74, 71
1, 58854, Note_on_c, 0, 76, 76
1, 58855, Note_off_c, 0, 74, 63
1, 58857, Note_on_c, 0, 61, 50
1, 58858, Note_on_c, 0, 57, 45
1, 58879, Note_on_c, 0, 64, 32
1, 58888, Note_off_c, 0, 57, 64
1, 58890, Note_off_c, 0, 61, 64
1, 58911, Note_off_c, 0, 64, 33
1, 58926, Note_off_c, 0, 76, 65
1, 58935, Note_on_c, 0, 73, 74
1, 59013, Note_off_c, 0, 73, 57
1, 59026, Note_on_c, 0, 50, 65
1, 59039, Note_on_c, 0, 74, 69
1, 59058, Control_c, 0, 64, 64
1, 59062, Note_off_c, 0, 50, 65
1, 59071, Control_c, 0, 64, 75
1, 59074, Note_off_c, 0, 74, 65
1, 59086, Control_c, 0, 64, 93
1, 59101, Control_c, 0, 64, 118
1, 59115, Control_c, 0, 64, 127
1, 59200, Note_on_c, 0, 78, 78
1, 59215, Note_on_c, 0, 66, 59
1, 59217, Note_on_c, 0, 62, 59
1, 59234, Control_c, 0, 64, 115
1, 59249, Control_c, 0, 64, 98
1, 59251, Note_off_c, 0, 62, 62
1, 59253, Note_off_c, 0, 66, 58
1, 59263, Control_c, 0, 64, 81
1, 59278, Control_c, 0, 64, 58
1, 59293, Control_c, 0, 64, 0
1, 59377, Note_off_c, 0, 78, 59
1, 59387, Note_on_c, 0, 66, 48
1, 59391, Note_on_c, 0, 62, 58
1, 59423, Note_off_c, 0, 66, 56
1, 59429, Note_off_c, 0, 62, 57
1, 59530, Note_on_c, 0, 66, 52
1, 59536, Note_on_c, 0, 62, 54
1, 59539, Note_on_c, 0, 78, 66
1, 59560, Note_off_c, 0, 66, 63
1, 59570, Note_off_c, 0, 62, 63
1, 59708, Note_on_c, 0, 49, 58
1, 59712, Note_on_c, 0, 77, 66
1, 59724, Control_c, 0, 64, 63
1, 59734, Note_off_c, 0, 49, 63
1, 59738, Control_c, 0, 64, 76
1, 59753, Note_off_c, 0, 78, 52
1, 59753, Control_c, 0, 64, 94
1, 59768, Control_c, 0, 64, 118
1, 59783, Note_off_c, 0, 77, 60
1, 59790, Control_c, 0, 64, 127
1, 59886, Note_on_c, 0, 65, 47
1, 59888, Note_on_c, 0, 68, 45
1, 59890, Note_on_c, 0, 61, 54
1, 59894, Note_on_c, 0, 80, 67
1, 59930, Note_off_c, 0, 61, 60
1, 59932, Note_off_c, 0, 68, 48
1, 59936, Note_off_c, 0, 65, 63
1, 59953, Control_c, 0, 64, 114
1, 59959, Note_on_c, 0, 78, 76
1, 59968, Control_c, 0, 64, 101
1, 59983, Control_c, 0, 64, 88
1, 59990, Note_off_c, 0, 80, 55
1, 59998, Control_c, 0, 64, 69
1, 60012, Control_c, 0, 64, 0
1, 60033, Note_off_c, 0, 78, 62
1, 60040, Note_on_c, 0, 77, 67
1, 60049, Note_on_c, 0, 65, 60
1, 60049, Note_on_c, 0, 68, 47
1, 60049, Note_on_c, 0, 61, 49
1, 60085, Note_off_c, 0, 61, 63
1, 60086, Note_off_c, 0, 68, 49
1, 60088, Note_off_c, 0, 65, 64
1, 60112, Note_on_c, 0, 78, 79
1, 60113, Note_off_c, 0, 77, 60
1, 60184, Note_off_c, 0, 78, 62
1, 60186, Note_on_c, 0, 80, 82
1, 60198, Note_on_c, 0, 68, 45
1, 60201, Note_on_c, 0, 65, 43
1, 60205, Note_on_c, 0, 61, 44
1, 60225, Note_off_c, 0, 68, 56
1, 60227, Note_off_c, 0, 65, 58
1, 60240, Note_off_c, 0, 61, 64
1, 60273, Note_on_c, 0, 77, 75
1, 60298, Note_off_c, 0, 80, 59
1, 60353, Note_off_c, 0, 77, 60
1, 60355, Note_on_c, 0, 54, 62
1, 60363, Note_on_c, 0, 78, 74
1, 60383, Control_c, 0, 64, 64
1, 60391, Note_off_c, 0, 54, 63
1, 60398, Control_c, 0, 64, 75
1, 60413, Note_off_c, 0, 78, 59
1, 60413, Control_c, 0, 64, 89
1, 60428, Control_c, 0, 64, 106
1, 60443, Control_c, 0, 64, 123
1, 60458, Control_c, 0, 64, 127
1, 60545, Note_on_c, 0, 81, 72
1, 60547, Note_on_c, 0, 66, 58
1, 60568, Control_c, 0, 64, 125
1, 60569, Note_on_c, 0, 69, 41
1, 60580, Note_off_c, 0, 66, 65
1, 60583, Control_c, 0, 64, 108
1, 60598, Note_off_c, 0, 69, 55
1, 60598, Control_c, 0, 64, 92
1, 60613, Control_c, 0, 64, 74
1, 60628, Control_c, 0, 64, 0
1, 60687, Control_c, 0, 64, 40
1, 60702, Control_c, 0, 64, 65
1, 60717, Note_on_c, 0, 66, 48
1, 60717, Control_c, 0, 64, 75
1, 60723, Note_on_c, 0, 69, 36
1, 60732, Control_c, 0, 64, 87
1, 60737, Note_off_c, 0, 81, 56
1, 60747, Control_c, 0, 64, 100
1, 60753, Note_off_c, 0, 66, 65
1, 60759, Note_off_c, 0, 69, 53
1, 60761, Control_c, 0, 64, 118
1, 60776, Control_c, 0, 64, 127
1, 60884, Note_on_c, 0, 66, 52
1, 60884, Note_on_c, 0, 69, 31
1, 60890, Note_on_c, 0, 81, 60
1, 60907, Note_off_c, 0, 66, 63
1, 60920, Note_off_c, 0, 69, 42
1, 60926, Note_off_c, 0, 81, 59
1, 61075, Note_on_c, 0, 81, 60
1, 61077, Note_on_c, 0, 51, 58
1, 61102, Control_c, 0, 64, 100
1, 61116, Note_off_c, 0, 51, 63
1, 61116, Control_c, 0, 64, 81
1, 61131, Control_c, 0, 64, 62
1, 61146, Control_c, 0, 64, 41
1, 61161, Control_c, 0, 64, 62
1, 61176, Control_c, 0, 64, 73
1, 61179, Note_on_c, 0, 71, 56
1, 61191, Control_c, 0, 64, 87
1, 61206, Control_c, 0, 64, 105
1, 61221, Control_c, 0, 64, 127
1, 61231, Note_on_c, 0, 66, 46
1, 61234, Note_off_c, 0, 71, 57
1, 61244, Note_on_c, 0, 70, 67
1, 61248, Note_on_c, 0, 63, 36
1, 61268, Note_off_c, 0, 66, 50
1, 61287, Note_off_c, 0, 63, 47
1, 61317, Note_off_c, 0, 70, 62
1, 61327, Note_on_c, 0, 71, 68
1, 61355, Note_off_c, 0, 71, 65
1, 61397, Note_off_c, 0, 81, 61
1, 61406, Control_c, 0, 64, 111
1, 61415, Note_on_c, 0, 52, 71
1, 61421, Control_c, 0, 64, 83
1, 61432, Note_on_c, 0, 71, 69
1, 61436, Control_c, 0, 64, 57
1, 61443, Note_off_c, 0, 52, 68
1, 61451, Control_c, 0, 64, 0
1, 61491, Note_on_c, 0, 79, 76
1, 61492, Note_off_c, 0, 71, 54
1, 61495, Control_c, 0, 64, 60
1, 61510, Control_c, 0, 64, 73
1, 61525, Control_c, 0, 64, 91
1, 61540, Control_c, 0, 64, 113
1, 61554, Note_on_c, 0, 67, 56
1, 61555, Control_c, 0, 64, 127
1, 61571, Note_off_c, 0, 79, 60
1, 61573, Note_on_c, 0, 78, 83
1, 61576, Note_on_c, 0, 64, 37
1, 61579, Note_off_c, 0, 67, 64
1, 61608, Note_off_c, 0, 64, 46
1, 61661, Note_on_c, 0, 79, 79
1, 61662, Note_off_c, 0, 78, 63
1, 61685, Note_off_c, 0, 79, 65
1, 61732, Control_c, 0, 64, 122
1, 61739, Note_on_c, 0, 49, 71
1, 61747, Control_c, 0, 64, 91
1, 61751, Note_on_c, 0, 79, 83
1, 61762, Control_c, 0, 64, 67
1, 61776, Control_c, 0, 64, 0
1, 61784, Note_off_c, 0, 49, 61
1, 61821, Control_c, 0, 64, 70
1, 61830, Note_on_c, 0, 69, 70
1, 61835, Control_c, 0, 64, 86
1, 61850, Control_c, 0, 64, 109
1, 61865, Control_c, 0, 64, 127
1, 61886, Note_on_c, 0, 64, 56
1, 61887, Note_on_c, 0, 61, 58
1, 61891, Note_off_c, 0, 69, 62
1, 61899, Note_on_c, 0, 68, 75
1, 61919, Note_off_c, 0, 61, 63
1, 61938, Note_off_c, 0, 64, 58
1, 61968, Note_off_c, 0, 68, 63
1, 61970, Note_on_c, 0, 69, 79
1, 62014, Note_off_c, 0, 69, 64
1, 62052, Control_c, 0, 64, 94
1, 62067, Control_c, 0, 64, 68
1, 62081, Note_on_c, 0, 50, 66
1, 62081, Control_c, 0, 64, 0
1, 62091, Note_on_c, 0, 69, 74
1, 62104, Note_off_c, 0, 50, 66
1, 62126, Control_c, 0, 64, 64
1, 62140, Control_c, 0, 64, 79
1, 62155, Control_c, 0, 64, 99
1, 62162, Note_on_c, 0, 78, 73
1, 62165, Note_off_c, 0, 69, 62
1, 62170, Control_c, 0, 64, 127
1, 62214, Note_on_c, 0, 61, 40
1, 62234, Note_on_c, 0, 66, 51
1, 62239, Note_off_c, 0, 79, 34
1, 62242, Note_on_c, 0, 77, 78
1, 62243, Note_off_c, 0, 61, 53
1, 62255, Note_off_c, 0, 66, 62
1, 62256, Note_off_c, 0, 78, 61
1, 62311, Note_on_c, 0, 78, 83
1, 62316, Note_off_c, 0, 77, 59
1, 62321, Poly_aftertouch_c, 0, 62, 0
1, 62348, Control_c, 0, 64, 110
1, 62360, Note_off_c, 0, 78, 66
1, 62362, Control_c, 0, 64, 84
1, 62377, Control_c, 0, 64, 0
1, 62400, Note_on_c, 0, 47, 78
1, 62411, Note_on_c, 0, 78, 77
1, 62434, Note_off_c, 0, 47, 67
1, 62451, Control_c, 0, 64, 67
1, 62466, Control_c, 0, 64, 77
1, 62481, Control_c, 0, 64, 93
1, 62490, Note_on_c, 0, 67, 70
1, 62496, Control_c, 0, 64, 106
1, 62511, Control_c, 0, 64, 122
1, 62525, Control_c, 0, 64, 127
1, 62560, Note_on_c, 0, 59, 33
1, 62561, Note_on_c, 0, 62, 34
1, 62564, Note_off_c, 0, 67, 57
1, 62568, Note_on_c, 0, 66, 76
1, 62592, Note_off_c, 0, 59, 52
1, 62600, Note_off_c, 0, 62, 50
1, 62642, Note_on_c, 0, 67, 73
1, 62644, Note_off_c, 0, 66, 66
1, 62666, Note_off_c, 0, 67, 65
1, 62673, Control_c, 0, 64, 92
1, 62688, Control_c, 0, 64, 65
1, 62703, Control_c, 0, 64, 0
1, 62717, Note_on_c, 0, 49, 77
1, 62727, Note_on_c, 0, 67, 73
1, 62747, Control_c, 0, 64, 66
1, 62753, Note_off_c, 0, 49, 63
1, 62762, Control_c, 0, 64, 86
1, 62785, Control_c, 0, 64, 117
1, 62786, Note_off_c, 0, 78, 61
1, 62800, Control_c, 0, 64, 127
1, 62809, Note_on_c, 0, 76, 78
1, 62810, Note_off_c, 0, 67, 58
1, 62888, Note_on_c, 0, 78, 88
1, 62890, Note_off_c, 0, 76, 59
1, 62893, Note_on_c, 0, 61, 64
1, 62893, Note_on_c, 0, 64, 52
1, 62920, Note_off_c, 0, 64, 64
1, 62921, Note_off_c, 0, 61, 65
1, 62949, Control_c, 0, 64, 118
1, 62960, Note_on_c, 0, 76, 79
1, 62963, Control_c, 0, 64, 93
1, 62967, Note_off_c, 0, 78, 59
1, 62978, Control_c, 0, 64, 68
1, 62993, Control_c, 0, 64, 0
1, 63030, Note_off_c, 0, 76, 66
1, 63045, Note_on_c, 0, 46, 85
1, 63048, Note_on_c, 0, 66, 85
1, 63052, Control_c, 0, 64, 65
1, 63067, Control_c, 0, 64, 79
1, 63080, Note_off_c, 0, 46, 64
1, 63081, Control_c, 0, 64, 100
1, 63096, Control_c, 0, 64, 127
1, 63130, Note_on_c, 0, 76, 68
1, 63131, Note_off_c, 0, 66, 61
1, 63208, Note_on_c, 0, 61, 69
1, 63210, Note_on_c, 0, 78, 84
1, 63215, Note_off_c, 0, 76, 66
1, 63221, Note_on_c, 0, 58, 66
1, 63251, Note_off_c, 0, 58, 64
1, 63260, Note_off_c, 0, 61, 59
1, 63274, Control_c, 0, 64, 109
1, 63289, Control_c, 0, 64, 81
1, 63290, Note_on_c, 0, 76, 77
1, 63304, Control_c, 0, 64, 0
1, 63312, Note_off_c, 0, 78, 62
1, 63356, Note_off_c, 0, 76, 65
1, 63363, Control_c, 0, 64, 31
1, 63372, Note_on_c, 0, 66, 78
1, 63378, Control_c, 0, 64, 73
1, 63382, Note_on_c, 0, 47, 87
1, 63393, Control_c, 0, 64, 87
1, 63406, Note_off_c, 0, 66, 67
1, 63408, Control_c, 0, 64, 105
1, 63421, Note_off_c, 0, 47, 62
1, 63422, Control_c, 0, 64, 118
1, 63437, Control_c, 0, 64, 127
1, 63447, Note_on_c, 0, 74, 74
1, 63534, Note_on_c, 0, 59, 51
1, 63540, Note_off_c, 0, 74, 63
1, 63545, Note_on_c, 0, 76, 86
1, 63556, Note_off_c, 0, 59, 57
1, 63623, Control_c, 0, 64, 116
1, 63624, Note_on_c, 0, 74, 66
1, 63638, Control_c, 0, 64, 94
1, 63653, Control_c, 0, 64, 70
1, 63668, Control_c, 0, 64, 0
1, 63670, Note_off_c, 0, 76, 56
1, 63679, Note_off_c, 0, 74, 66
1, 63686, Note_on_c, 0, 67, 80
1, 63687, Note_on_c, 0, 40, 81
1, 63713, Note_on_c, 0, 64, 56
1, 63722, Note_off_c, 0, 40, 67
1, 63734, Note_off_c, 0, 67, 61
1, 63742, Control_c, 0, 64, 64
1, 63747, Note_off_c, 0, 64, 47
1, 63757, Control_c, 0, 64, 77
1, 63760, Note_on_c, 0, 73, 73
1, 63772, Control_c, 0, 64, 87
1, 63786, Control_c, 0, 64, 93
1, 63801, Control_c, 0, 64, 96
1, 63816, Control_c, 0, 64, 102
1, 63831, Control_c, 0, 64, 108
1, 63842, Note_off_c, 0, 73, 62
1, 63846, Note_on_c, 0, 74, 79
1, 63846, Control_c, 0, 64, 114
1, 63849, Note_on_c, 0, 52, 57
1, 63860, Control_c, 0, 64, 118
1, 63875, Control_c, 0, 64, 122
1, 63890, Control_c, 0, 64, 123
1, 63894, Note_off_c, 0, 52, 64
1, 63904, Control_c, 0, 64, 125
1, 63919, Control_c, 0, 64, 126
1, 63927, Note_off_c, 0, 74, 63
1, 63931, Note_on_c, 0, 73, 64
1, 63934, Control_c, 0, 64, 127
1, 63949, Note_off_c, 0, 73, 39
1, 63956, Note_on_c, 0, 72, 65
1, 63987, Note_off_c, 0, 72, 65
1, 63992, Note_on_c, 0, 61, 68
1, 64008, Control_c, 0, 64, 123
1, 64012, Note_on_c, 0, 42, 74
1, 64015, Note_on_c, 0, 64, 66
1, 64023, Control_c, 0, 64, 112
1, 64038, Control_c, 0, 64, 98
1, 64044, Note_off_c, 0, 61, 59
1, 64053, Control_c, 0, 64, 82
1, 64068, Control_c, 0, 64, 64
1, 64074, Note_off_c, 0, 64, 62
1, 64082, Control_c, 0, 64, 0
1, 64093, Note_on_c, 0, 70, 70
1, 64111, Note_off_c, 0, 42, 52
1, 64126, Note_on_c, 0, 54, 48
1, 64165, Note_off_c, 0, 70, 62
1, 64176, Note_on_c, 0, 71, 67
1, 64190, Note_off_c, 0, 54, 49
1, 64233, Note_off_c, 0, 71, 59
1, 64240, Note_on_c, 0, 70, 68
1, 64319, Note_off_c, 0, 70, 53
1, 64343, Note_on_c, 0, 47, 56
1, 64349, Note_on_c, 0, 71, 60
1, 64514, Note_on_c, 0, 54, 47
1, 64515, Note_on_c, 0, 66, 39
1, 64525, Note_on_c, 0, 62, 43
1, 64541, Note_off_c, 0, 66, 58
1, 64546, Note_off_c, 0, 54, 51
1, 64566, Note_off_c, 0, 62, 49
1, 64671, Note_on_c, 0, 66, 44
1, 64685, Note_on_c, 0, 54, 40
1, 64694, Note_off_c, 0, 47, 61
1, 64716, Note_off_c, 0, 66, 63
1, 64721, Note_off_c, 0, 54, 48
1, 64723, Poly_aftertouch_c, 0, 62, 0
1, 64729, Note_off_c, 0, 71, 51
1, 64835, Note_on_c, 0, 54, 40
1, 64846, Note_on_c, 0, 74, 47
1, 64871, Note_off_c, 0, 54, 49
1, 65027, Note_on_c, 0, 73, 56
1, 65030, Note_on_c, 0, 42, 46
1, 65039, Note_on_c, 0, 66, 47
1, 65048, Note_on_c, 0, 64, 35
1, 65052, Note_off_c, 0, 74, 38
1, 65069, Note_off_c, 0, 66, 57
1, 65084, Note_off_c, 0, 64, 52
1, 65197, Note_on_c, 0, 64, 46
1, 65199, Note_on_c, 0, 66, 41
1, 65202, Note_on_c, 0, 54, 45
1, 65239, Note_off_c, 0, 64, 53
1, 65239, Note_off_c, 0, 54, 50
1, 65240, Note_off_c, 0, 66, 56
1, 65382, Note_on_c, 0, 66, 48
1, 65385, Note_on_c, 0, 54, 41
1, 65415, Note_off_c, 0, 54, 53
1, 65435, Note_off_c, 0, 66, 57
1, 65504, Note_off_c, 0, 42, 36
1, 65524, Note_off_c, 0, 73, 58
1, 65530, Note_on_c, 0, 70, 61
1, 65534, Note_on_c, 0, 54, 40
1, 65590, Note_off_c, 0, 54, 42
1, 65695, Note_off_c, 0, 70, 54
1, 65704, Note_on_c, 0, 47, 48
1, 65710, Note_on_c, 0, 71, 59
1, 65871, Note_on_c, 0, 54, 49
1, 65879, Note_on_c, 0, 66, 63
1, 65886, Note_on_c, 0, 63, 48
1, 65910, Note_off_c, 0, 54, 51
1, 65917, Note_off_c, 0, 66, 62
1, 65918, Note_off_c, 0, 63, 55
1, 65925, Note_off_c, 0, 71, 56
1, 65946, Note_off_c, 0, 47, 45
1, 66037, Note_on_c, 0, 54, 56
1, 66043, Note_on_c, 0, 63, 57
1, 66043, Note_on_c, 0, 66, 64
1, 66079, Note_off_c, 0, 54, 58
1, 66083, Note_off_c, 0, 66, 60
1, 66086, Note_off_c, 0, 63, 60
1, 66192, Note_on_c, 0, 75, 82
1, 66197, Note_on_c, 0, 63, 70
1, 66200, Note_on_c, 0, 54, 58
1, 66214, Note_on_c, 0, 66, 50
1, 66239, Note_off_c, 0, 66, 60
1, 66247, Note_off_c, 0, 63, 53
1, 66249, Note_off_c, 0, 54, 55
1, 66370, Note_on_c, 0, 42, 66
1, 66371, Note_on_c, 0, 73, 78
1, 66380, Note_on_c, 0, 64, 68
1, 66384, Note_off_c, 0, 75, 63
1, 66391, Note_on_c, 0, 66, 49
1, 66415, Note_off_c, 0, 66, 60
1, 66418, Note_off_c, 0, 64, 58
1, 66548, Note_on_c, 0, 66, 54
1, 66550, Note_on_c, 0, 54, 57
1, 66556, Note_on_c, 0, 64, 57
1, 66592, Note_off_c, 0, 54, 57
1, 66597, Note_off_c, 0, 64, 61
1, 66601, Note_off_c, 0, 66, 60
1, 66721, Note_on_c, 0, 54, 58
1, 66722, Note_on_c, 0, 66, 65
1, 66735, Note_on_c, 0, 64, 40
1, 66759, Note_off_c, 0, 54, 61
1, 66769, Note_off_c, 0, 64, 54
1, 66797, Note_off_c, 0, 66, 54
1, 66868, Note_on_c, 0, 54, 49
1, 66869, Note_off_c, 0, 42, 38
1, 66880, Note_on_c, 0, 70, 69
1, 66897, Note_off_c, 0, 73, 59
1, 66923, Note_off_c, 0, 54, 58
1, 67048, Note_on_c, 0, 47, 55
1, 67048, Note_on_c, 0, 71, 69
1, 67048, Note_off_c, 0, 70, 57
1, 67209, Note_on_c, 0, 54, 44
1, 67227, Note_on_c, 0, 66, 42
1, 67236, Note_on_c, 0, 62, 34
1, 67248, Note_off_c, 0, 54, 48
1, 67258, Note_off_c, 0, 66, 55
1, 67297, Note_off_c, 0, 62, 40
1, 67385, Note_on_c, 0, 66, 51
1, 67387, Note_off_c, 0, 47, 35
1, 67402, Note_on_c, 0, 54, 40
1, 67420, Note_off_c, 0, 71, 55
1, 67429, Note_off_c, 0, 66, 62
1, 67432, Note_off_c, 0, 54, 51
1, 67544, Note_on_c, 0, 54, 44
1, 67548, Note_on_c, 0, 74, 55
1, 67588, Note_off_c, 0, 54, 54
1, 67715, Note_off_c, 0, 74, 58
1, 67731, Note_on_c, 0, 42, 46
1, 67735, Note_on_c, 0, 73, 50
1, 67740, Note_on_c, 0, 66, 46
1, 67744, Note_on_c, 0, 64, 38
1, 67772, Note_off_c, 0, 66, 55
1, 67782, Note_off_c, 0, 64, 48
1, 67910, Note_on_c, 0, 54, 28
1, 67910, Note_on_c, 0, 66, 41
1, 67917, Note_on_c, 0, 64, 36
1, 67940, Note_off_c, 0, 66, 55
1, 67945, Note_off_c, 0, 54, 45
1, 67948, Note_off_c, 0, 64, 51
1, 68081, Note_on_c, 0, 54, 42
1, 68092, Note_on_c, 0, 66, 46
1, 68117, Note_off_c, 0, 54, 52
1, 68145, Note_off_c, 0, 66, 45
1, 68173, Poly_aftertouch_c, 0, 64, 0
1, 68187, Note_off_c, 0, 42, 41
1, 68224, Note_off_c, 0, 73, 54
1, 68235, Note_on_c, 0, 54, 44
1, 68238, Note_on_c, 0, 70, 61
1, 68266, Note_off_c, 0, 54, 53
1, 68278, Note_off_c, 0, 70, 56
1, 68411, Note_on_c, 0, 47, 55
1, 68413, Note_on_c, 0, 71, 60
1, 68416, Note_on_c, 0, 54, 35
1, 68427, Note_on_c, 0, 62, 38
1, 68439, Note_on_c, 0, 66, 22
1, 68442, Note_off_c, 0, 47, 65
1, 68451, Note_off_c, 0, 54, 49
1, 68455, Note_off_c, 0, 71, 56
1, 68458, Note_off_c, 0, 62, 50
1, 68478, Note_off_c, 0, 66, 40
1, 68571, Note_on_c, 0, 62, 52
1, 68572, Note_on_c, 0, 54, 54
1, 68575, Note_on_c, 0, 66, 50
1, 68589, Note_on_c, 0, 74, 53
1, 68603, Note_off_c, 0, 54, 58
1, 68604, Note_off_c, 0, 62, 58
1, 68606, Note_off_c, 0, 66, 55
1, 68626, Note_off_c, 0, 74, 56
1, 68737, Note_on_c, 0, 66, 50
1, 68739, Note_on_c, 0, 54, 53
1, 68745, Note_on_c, 0, 42, 61
1, 68748, Note_on_c, 0, 73, 57
1, 68754, Note_on_c, 0, 64, 46
1, 68784, Note_off_c, 0, 66, 52
1, 68786, Note_off_c, 0, 64, 56
1, 68788, Note_off_c, 0, 42, 64
1, 68789, Note_off_c, 0, 54, 55
1, 68813, Note_off_c, 0, 73, 50
1, 68917, Note_on_c, 0, 70, 73
1, 68917, Note_on_c, 0, 54, 56
1, 68927, Note_on_c, 0, 64, 40
1, 68950, Note_off_c, 0, 54, 61
1, 68955, Note_off_c, 0, 64, 58
1, 68956, Note_off_c, 0, 70, 60
1, 69079, Note_on_c, 0, 54, 52
1, 69081, Note_on_c, 0, 47, 68
1, 69083, Note_on_c, 0, 62, 65
1, 69085, Note_on_c, 0, 71, 69
1, 69092, Note_on_c, 0, 66, 54
1, 69113, Note_off_c, 0, 66, 62
1, 69117, Note_off_c, 0, 54, 52
1, 69119, Note_off_c, 0, 62, 59
1, 69120, Note_off_c, 0, 47, 64
1, 69137, Note_off_c, 0, 71, 58
1, 69241, Note_on_c, 0, 62, 63
1, 69242, Note_on_c, 0, 54, 73
1, 69247, Note_on_c, 0, 74, 67
1, 69248, Note_on_c, 0, 66, 48
1, 69280, Note_off_c, 0, 66, 57
1, 69281, Note_off_c, 0, 62, 57
1, 69290, Note_off_c, 0, 54, 57
1, 69313, Note_off_c, 0, 74, 55
1, 69407, Note_on_c, 0, 54, 72
1, 69412, Note_on_c, 0, 66, 64
1, 69412, Note_on_c, 0, 73, 72
1, 69415, Note_on_c, 0, 42, 71
1, 69420, Note_on_c, 0, 64, 62
1, 69453, Note_off_c, 0, 66, 58
1, 69454, Note_off_c, 0, 64, 63
1, 69460, Note_off_c, 0, 54, 49
1, 69461, Note_off_c, 0, 42, 59
1, 69487, Note_off_c, 0, 73, 59
1, 69573, Note_on_c, 0, 54, 74
1, 69576, Note_on_c, 0, 70, 79
1, 69582, Note_on_c, 0, 64, 64
1, 69618, Note_off_c, 0, 64, 62
1, 69628, Note_off_c, 0, 54, 52
1, 69638, Note_off_c, 0, 70, 60
1, 69735, Note_on_c, 0, 54, 73
1, 69740, Note_on_c, 0, 47, 76
1, 69745, Note_on_c, 0, 71, 71
1, 69746, Note_on_c, 0, 62, 71
1, 69755, Note_on_c, 0, 66, 57
1, 69777, Note_off_c, 0, 66, 67
1, 69786, Note_off_c, 0, 62, 56
1, 69805, Note_off_c, 0, 54, 52
1, 69809, Note_off_c, 0, 71, 59
1, 69900, Note_on_c, 0, 54, 72
1, 69901, Note_on_c, 0, 62, 70
1, 69907, Note_on_c, 0, 66, 57
1, 69907, Note_on_c, 0, 74, 71
1, 69937, Note_off_c, 0, 62, 57
1, 69946, Note_off_c, 0, 66, 62
1, 69979, Note_off_c, 0, 74, 61
1, 69992, Note_off_c, 0, 54, 54
1, 70061, Note_on_c, 0, 54, 66
1, 70062, Note_off_c, 0, 47, 60
1, 70068, Note_on_c, 0, 42, 74
1, 70074, Note_on_c, 0, 73, 75
1, 70076, Note_on_c, 0, 64, 66
1, 70076, Note_on_c, 0, 66, 66
1, 70108, Note_off_c, 0, 66, 65
1, 70111, Note_off_c, 0, 64, 58
1, 70129, Note_off_c, 0, 54, 50
1, 70147, Note_off_c, 0, 73, 59
1, 70221, Note_on_c, 0, 54, 63
1, 70229, Note_on_c, 0, 64, 70
1, 70229, Note_on_c, 0, 70, 79
1, 70287, Note_off_c, 0, 54, 54
1, 70289, Note_off_c, 0, 64, 59
1, 70299, Note_off_c, 0, 70, 59
1, 70402, Note_on_c, 0, 54, 76
1, 70403, Note_on_c, 0, 62, 75
1, 70403, Note_on_c, 0, 71, 75
1, 70407, Note_on_c, 0, 47, 71
1, 70407, Note_off_c, 0, 42, 63
1, 70411, Note_on_c, 0, 66, 66
1, 70437, Note_off_c, 0, 66, 68
1, 70443, Note_off_c, 0, 62, 59
1, 70465, Note_off_c, 0, 71, 57
1, 70472, Note_off_c, 0, 54, 53
1, 70555, Note_on_c, 0, 62, 75
1, 70563, Note_on_c, 0, 54, 71
1, 70564, Note_on_c, 0, 66, 61
1, 70564, Note_on_c, 0, 74, 69
1, 70593, Note_off_c, 0, 62, 54
1, 70599, Note_off_c, 0, 66, 62
1, 70622, Note_off_c, 0, 54, 47
1, 70634, Note_off_c, 0, 74, 59
1, 70694, Note_off_c, 0, 47, 55
1, 70725, Note_on_c, 0, 54, 63
1, 70732, Note_on_c, 0, 42, 59
1, 70733, Note_on_c, 0, 73, 63
1, 70733, Note_on_c, 0, 64, 59
1, 70734, Note_on_c, 0, 66, 50
1, 70762, Note_off_c, 0, 66, 56
1, 70764, Note_off_c, 0, 54, 58
1, 70769, Note_off_c, 0, 64, 62
1, 70811, Note_off_c, 0, 73, 57
1, 70897, Note_on_c, 0, 70, 60
1, 70900, Note_on_c, 0, 54, 43
1, 70933, Note_off_c, 0, 54, 52
1, 70936, Note_off_c, 0, 70, 58
1, 71126, Note_off_c, 0, 42, 33
1, 71139, Note_on_c, 0, 54, 34
1, 71141, Note_on_c, 0, 47, 44
1, 71143, Note_on_c, 0, 71, 47
1, 71144, Note_on_c, 0, 66, 35
1, 71147, Note_on_c, 0, 62, 40
1, 71211, Note_off_c, 0, 62, 0
1, 71211, Note_on_c, 0, 62, 5
1, 71216, Note_off_c, 0, 66, 0
1, 71216, Note_on_c, 0, 66, 10
1, 71386, Note_off_c, 0, 71, 61
1, 71412, Note_off_c, 0, 54, 57
1, 71418, Note_off_c, 0, 62, 57
1, 71421, Note_off_c, 0, 66, 60
1, 71423, Note_off_c, 0, 47, 59
1, 71770, Note_on_c, 0, 54, 41
1, 71773, Note_on_c, 0, 59, 44
1, 71773, Note_on_c, 0, 62, 42
1, 71829, Note_on_c, 0, 35, 52
1, 71832, Note_on_c, 0, 47, 44
1, 71856, Note_off_c, 0, 35, 56
1, 71863, Note_off_c, 0, 47, 48
1, 72067, Note_off_c, 0, 59, 62
1, 72077, Note_off_c, 0, 62, 61
1, 72095, Note_off_c, 0, 54, 55
1, 72492, Note_on_c, 0, 54, 43
1, 72492, Note_on_c, 0, 59, 42
1, 72494, Note_on_c, 0, 50, 45
1, 72565, Note_on_c, 0, 35, 60
1, 72570, Note_on_c, 0, 47, 56
1, 72595, Note_off_c, 0, 35, 64
1, 72596, Note_off_c, 0, 47, 62
1, 72819, Note_off_c, 0, 59, 60
1, 72840, Note_off_c, 0, 50, 44
1, 72861, Note_off_c, 0, 54, 56
1, 73265, Note_on_c, 0, 47, 53
1, 73270, Note_on_c, 0, 35, 52
1, 73292, Note_off_c, 0, 47, 62
1, 73296, Note_off_c, 0, 35, 56
1, 73630, Note_on_c, 0, 38, 69
1, 73633, Note_on_c, 0, 50, 73
1, 73657, Note_off_c, 0, 38, 65
1, 73658, Note_off_c, 0, 50, 65
1, 73958, Note_on_c, 0, 79, 99
1, 74039, Note_on_c, 0, 31, 90
1, 74039, Note_on_c, 0, 43, 96
1, 74062, Control_c, 0, 64, 75
1, 74076, Note_off_c, 0, 43, 65
1, 74077, Control_c, 0, 64, 106
1, 74078, Note_off_c, 0, 31, 64
1, 74092, Control_c, 0, 64, 127
1, 74515, Note_on_c, 0, 78, 83
1, 74556, Note_off_c, 0, 79, 59
1, 74593, Note_on_c, 0, 76, 77
1, 74597, Note_off_c, 0, 78, 64
1, 74644, Note_off_c, 0, 76, 67
1, 74656, Note_on_c, 0, 74, 78
1, 74684, Control_c, 0, 64, 116
1, 74699, Control_c, 0, 64, 105
1, 74713, Control_c, 0, 64, 91
1, 74728, Control_c, 0, 64, 78
1, 74733, Note_on_c, 0, 75, 80
1, 74738, Note_off_c, 0, 74, 64
1, 74743, Control_c, 0, 64, 63
1, 74766, Control_c, 0, 64, 0
1, 74826, Note_on_c, 0, 76, 80
1, 74829, Note_off_c, 0, 75, 63
1, 74888, Note_off_c, 0, 76, 65
1, 74890, Note_on_c, 0, 71, 83
1, 74967, Note_off_c, 0, 71, 62
1, 74968, Note_on_c, 0, 74, 85
1, 75039, Note_on_c, 0, 72, 80
1, 75078, Note_off_c, 0, 74, 61
1, 75105, Note_on_c, 0, 71, 74
1, 75147, Note_off_c, 0, 72, 61
1, 75179, Note_on_c, 0, 69, 80
1, 75187, Note_off_c, 0, 71, 63
1, 75249, Note_off_c, 0, 69, 62
1, 75255, Note_on_c, 0, 67, 80
1, 75547, Note_off_c, 0, 67, 62
1, 75853, Note_on_c, 0, 62, 45
1, 75854, Note_on_c, 0, 67, 42
1, 75857, Note_on_c, 0, 59, 45
1, 75922, Note_on_c, 0, 43, 60
1, 75923, Note_on_c, 0, 55, 58
1, 75924, Note_off_c, 0, 62, 54
1, 75936, Note_off_c, 0, 59, 55
1, 75943, Note_off_c, 0, 67, 58
1, 75949, Note_off_c, 0, 55, 65
1, 75953, Note_off_c, 0, 43, 62
1, 76186, Note_on_c, 0, 71, 46
1, 76188, Note_on_c, 0, 59, 41
1, 76193, Note_on_c, 0, 62, 43
1, 76268, Note_on_c, 0, 43, 54
1, 76268, Note_off_c, 0, 71, 58
1, 76270, Note_on_c, 0, 55, 52
1, 76271, Note_off_c, 0, 62, 56
1, 76278, Note_off_c, 0, 59, 54
1, 76293, Note_off_c, 0, 55, 59
1, 76296, Note_off_c, 0, 43, 56
1, 76517, Note_on_c, 0, 67, 47
1, 76520, Note_on_c, 0, 62, 44
1, 76523, Note_on_c, 0, 59, 39
1, 76584, Note_on_c, 0, 43, 58
1, 76589, Note_on_c, 0, 55, 53
1, 76611, Note_off_c, 0, 43, 58
1, 76612, Note_off_c, 0, 55, 59
1, 76635, Note_off_c, 0, 62, 61
1, 76638, Note_off_c, 0, 59, 56
1, 76645, Note_off_c, 0, 67, 61
1, 77191, Note_on_c, 0, 62, 47
1, 77192, Note_on_c, 0, 59, 45
1, 77192, Note_on_c, 0, 67, 50
1, 77249, Note_off_c, 0, 59, 62
1, 77249, Note_off_c, 0, 62, 60
1, 77258, Note_on_c, 0, 43, 66
1, 77264, Note_on_c, 0, 55, 57
1, 77281, Note_off_c, 0, 67, 63
1, 77291, Note_off_c, 0, 43, 62
1, 77292, Note_off_c, 0, 55, 66
1, 77493, Note_on_c, 0, 74, 58
1, 77494, Note_on_c, 0, 67, 54
1, 77498, Note_on_c, 0, 62, 50
1, 77517, Note_on_c, 0, 71, 39
1, 77550, Note_off_c, 0, 74, 61
1, 77556, Note_off_c, 0, 71, 50
1, 77559, Note_off_c, 0, 67, 60
1, 77575, Note_on_c, 0, 43, 65
1, 77575, Note_on_c, 0, 55, 66
1, 77576, Note_off_c, 0, 62, 54
1, 77601, Note_off_c, 0, 55, 67
1, 77603, Note_off_c, 0, 43, 63
1, 77835, Note_on_c, 0, 67, 57
1, 77840, Note_on_c, 0, 62, 51
1, 77847, Note_on_c, 0, 59, 48
1, 77909, Note_on_c, 0, 43, 63
1, 77916, Note_on_c, 0, 55, 57
1, 77935, Note_off_c, 0, 43, 63
1, 77938, Note_off_c, 0, 55, 62
1, 77998, Note_off_c, 0, 62, 57
1, 77999, Note_off_c, 0, 59, 57
1, 78015, Note_off_c, 0, 67, 56
1, 78515, Note_on_c, 0, 55, 94
1, 78516, Note_on_c, 0, 67, 93
1, 78564, Note_off_c, 0, 55, 66
1, 78570, Control_c, 0, 64, 72
1, 78585, Control_c, 0, 64, 98
1, 78596, Note_on_c, 0, 41, 97
1, 78596, Note_on_c, 0, 53, 100
1, 78599, Note_off_c, 0, 67, 67
1, 78599, Control_c, 0, 64, 127
1, 78632, Note_off_c, 0, 41, 67
1, 78632, Note_off_c, 0, 53, 68
1, 78837, Note_on_c, 0, 67, 90
1, 78838, Note_on_c, 0, 79, 93
1, 78895, Note_off_c, 0, 79, 66
1, 78910, Note_off_c, 0, 67, 58
1, 78912, Note_on_c, 0, 62, 88
1, 78915, Note_on_c, 0, 59, 86
1, 78915, Note_on_c, 0, 53, 86
1, 78935, Note_off_c, 0, 62, 68
1, 78948, Note_off_c, 0, 59, 64
1, 78960, Note_off_c, 0, 53, 68
1, 79137, Note_on_c, 0, 55, 98
1, 79137, Note_on_c, 0, 67, 96
1, 79163, Control_c, 0, 64, 90
1, 79178, Control_c, 0, 64, 47
1, 79189, Note_off_c, 0, 55, 66
1, 79193, Control_c, 0, 64, 0
1, 79219, Note_on_c, 0, 51, 105
1, 79222, Note_on_c, 0, 39, 87
1, 79225, Note_off_c, 0, 67, 65
1, 79255, Note_off_c, 0, 39, 70
1, 79260, Control_c, 0, 64, 71
1, 79264, Note_off_c, 0, 51, 67
1, 79275, Control_c, 0, 64, 91
1, 79290, Control_c, 0, 64, 127
1, 79465, Note_on_c, 0, 67, 93
1, 79467, Note_on_c, 0, 79, 96
1, 79521, Note_off_c, 0, 79, 65
1, 79530, Note_off_c, 0, 67, 60
1, 79538, Note_on_c, 0, 60, 84
1, 79539, Note_on_c, 0, 55, 86
1, 79546, Note_on_c, 0, 51, 85
1, 79556, Note_off_c, 0, 60, 71
1, 79567, Note_off_c, 0, 55, 68
1, 79581, Note_off_c, 0, 51, 66
1, 79760, Note_on_c, 0, 67, 93
1, 79761, Note_on_c, 0, 55, 97
1, 79780, Control_c, 0, 64, 115
1, 79795, Control_c, 0, 64, 75
1, 79809, Note_off_c, 0, 55, 66
1, 79809, Control_c, 0, 64, 0
1, 79834, Note_on_c, 0, 38, 89
1, 79835, Note_on_c, 0, 50, 92
1, 79844, Note_off_c, 0, 67, 64
1, 79871, Note_off_c, 0, 50, 65
1, 79878, Note_off_c, 0, 38, 65
1, 79883, Control_c, 0, 64, 81
1, 79898, Control_c, 0, 64, 106
1, 79913, Control_c, 0, 64, 127
1, 80077, Note_on_c, 0, 67, 96
1, 80078, Note_on_c, 0, 79, 93
1, 80128, Note_off_c, 0, 79, 64
1, 80136, Note_off_c, 0, 67, 64
1, 80147, Note_on_c, 0, 59, 89
1, 80150, Note_on_c, 0, 53, 90
1, 80157, Note_on_c, 0, 50, 86
1, 80166, Note_off_c, 0, 59, 72
1, 80178, Note_off_c, 0, 53, 69
1, 80182, Note_off_c, 0, 50, 68
1, 80364, Control_c, 0, 64, 117
1, 80379, Control_c, 0, 64, 90
1, 80394, Control_c, 0, 64, 65
1, 80400, Note_on_c, 0, 67, 92
1, 80404, Note_on_c, 0, 55, 93
1, 80409, Control_c, 0, 64, 0
1, 80474, Note_on_c, 0, 48, 95
1, 80474, Note_on_c, 0, 36, 88
1, 80477, Note_on_c, 0, 43, 93
1, 80482, Note_on_c, 0, 39, 84
1, 80493, Note_off_c, 0, 55, 65
1, 80498, Control_c, 0, 64, 76
1, 80510, Note_off_c, 0, 48, 67
1, 80513, Control_c, 0, 64, 112
1, 80513, Note_off_c, 0, 43, 64
1, 80514, Note_off_c, 0, 39, 67
1, 80519, Note_off_c, 0, 36, 63
1, 80528, Control_c, 0, 64, 127
1, 80540, Note_off_c, 0, 67, 64
1, 80690, Control_c, 0, 64, 121
1, 80705, Control_c, 0, 64, 90
1, 80720, Control_c, 0, 64, 69
1, 80735, Control_c, 0, 64, 0
1, 81068, Note_on_c, 0, 72, 54
1, 81165, Note_off_c, 0, 72, 55
1, 81170, Note_on_c, 0, 67, 41
1, 81178, Note_on_c, 0, 63, 37
1, 81207, Note_on_c, 0, 60, 6
1, 81207, Note_off_c, 0, 67, 52
1, 81209, Note_off_c, 0, 63, 55
1, 81229, Note_off_c, 0, 60, 42
1, 81404, Note_on_c, 0, 75, 51
1, 81504, Note_on_c, 0, 67, 40
1, 81509, Note_on_c, 0, 63, 38
1, 81510, Note_on_c, 0, 60, 35
1, 81517, Note_off_c, 0, 75, 60
1, 81537, Note_off_c, 0, 63, 56
1, 81539, Note_off_c, 0, 67, 52
1, 81543, Note_off_c, 0, 60, 53
1, 81736, Note_on_c, 0, 72, 52
1, 81838, Note_on_c, 0, 67, 42
1, 81840, Note_on_c, 0, 60, 41
1, 81840, Note_on_c, 0, 63, 43
1, 81875, Note_off_c, 0, 60, 64
1, 81875, Note_off_c, 0, 63, 65
1, 81879, Note_off_c, 0, 72, 64
1, 81881, Note_off_c, 0, 67, 62
1, 82440, Note_on_c, 0, 72, 55
1, 82498, Note_on_c, 0, 67, 54
1, 82501, Note_on_c, 0, 63, 49
1, 82512, Note_on_c, 0, 60, 43
1, 82534, Note_off_c, 0, 63, 62
1, 82538, Note_off_c, 0, 60, 57
1, 82543, Note_off_c, 0, 67, 59
1, 82606, Note_off_c, 0, 72, 39
1, 82753, Note_on_c, 0, 84, 63
1, 82825, Note_on_c, 0, 63, 52
1, 82826, Note_on_c, 0, 67, 50
1, 82826, Note_off_c, 0, 84, 60
1, 82833, Note_on_c, 0, 60, 47
1, 82862, Note_off_c, 0, 63, 61
1, 82866, Note_off_c, 0, 60, 59
1, 82870, Note_off_c, 0, 67, 60
1, 83080, Note_on_c, 0, 72, 57
1, 83158, Note_on_c, 0, 63, 53
1, 83163, Note_on_c, 0, 67, 48
1, 83173, Note_on_c, 0, 60, 42
1, 83193, Note_off_c, 0, 63, 65
1, 83198, Note_off_c, 0, 60, 56
1, 83199, Note_off_c, 0, 67, 65
1, 83258, Note_off_c, 0, 72, 65
1, 83767, Note_on_c, 0, 60, 94
1, 83767, Note_on_c, 0, 72, 94
1, 83809, Note_on_c, 0, 70, 46
1, 83813, Note_off_c, 0, 60, 66
1, 83819, Note_on_c, 0, 66, 26
1, 83823, Note_off_c, 0, 66, 41
1, 83834, Note_off_c, 0, 70, 53
1, 83840, Note_on_c, 0, 58, 99
1, 83842, Control_c, 0, 64, 84
1, 83846, Note_on_c, 0, 46, 87
1, 83849, Note_off_c, 0, 72, 66
1, 83857, Control_c, 0, 64, 118
1, 83864, Note_off_c, 0, 46, 69
1, 83872, Control_c, 0, 64, 127
1, 83876, Note_off_c, 0, 58, 67
1, 84086, Note_on_c, 0, 84, 98
1, 84087, Note_on_c, 0, 72, 96
1, 84138, Note_off_c, 0, 84, 69
1, 84147, Note_off_c, 0, 72, 63
1, 84147, Note_on_c, 0, 67, 82
1, 84148, Note_on_c, 0, 64, 80
1, 84156, Note_on_c, 0, 58, 85
1, 84170, Note_off_c, 0, 67, 69
1, 84177, Note_off_c, 0, 64, 67
1, 84192, Note_off_c, 0, 58, 69
1, 84391, Control_c, 0, 64, 107
1, 84393, Note_on_c, 0, 72, 97
1, 84394, Note_on_c, 0, 60, 95
1, 84406, Control_c, 0, 64, 77
1, 84421, Control_c, 0, 64, 0
1, 84445, Note_off_c, 0, 60, 65
1, 84463, Note_on_c, 0, 57, 100
1, 84463, Note_on_c, 0, 45, 89
1, 84482, Note_off_c, 0, 72, 68
1, 84502, Control_c, 0, 64, 77
1, 84511, Note_off_c, 0, 57, 66
1, 84512, Note_off_c, 0, 45, 67
1, 84517, Control_c, 0, 64, 108
1, 84531, Control_c, 0, 64, 127
1, 84708, Note_on_c, 0, 72, 92
1, 84713, Note_on_c, 0, 84, 88
1, 84729, Note_on_c, 0, 83, 55
1, 84730, Note_off_c, 0, 83, 127
1, 84764, Note_off_c, 0, 84, 66
1, 84771, Note_off_c, 0, 72, 64
1, 84778, Note_on_c, 0, 65, 88
1, 84782, Note_on_c, 0, 60, 85
1, 84789, Note_on_c, 0, 57, 83
1, 84800, Note_off_c, 0, 65, 72
1, 84814, Note_off_c, 0, 60, 63
1, 84818, Note_off_c, 0, 57, 63
1, 85003, Note_on_c, 0, 72, 96
1, 85004, Note_on_c, 0, 60, 95
1, 85019, Note_on_c, 0, 70, 33
1, 85020, Control_c, 0, 64, 102
1, 85035, Control_c, 0, 64, 77
1, 85047, Note_off_c, 0, 70, 59
1, 85050, Control_c, 0, 64, 0
1, 85053, Note_off_c, 0, 60, 65
1, 85081, Note_on_c, 0, 43, 95
1, 85083, Note_on_c, 0, 55, 94
1, 85088, Note_off_c, 0, 72, 67
1, 85110, Control_c, 0, 64, 18
1, 85117, Note_off_c, 0, 55, 67
1, 85121, Note_off_c, 0, 43, 63
1, 85124, Control_c, 0, 64, 82
1, 85139, Control_c, 0, 64, 108
1, 85154, Control_c, 0, 64, 127
1, 85321, Note_on_c, 0, 72, 94
1, 85322, Note_on_c, 0, 84, 93
1, 85369, Note_off_c, 0, 84, 68
1, 85372, Note_off_c, 0, 72, 65
1, 85388, Note_on_c, 0, 64, 82
1, 85393, Note_on_c, 0, 58, 90
1, 85398, Note_on_c, 0, 55, 83
1, 85408, Note_off_c, 0, 64, 71
1, 85427, Note_off_c, 0, 58, 65
1, 85428, Note_off_c, 0, 55, 68
1, 85625, Note_on_c, 0, 72, 93
1, 85627, Note_on_c, 0, 60, 95
1, 85651, Control_c, 0, 64, 95
1, 85665, Control_c, 0, 64, 65
1, 85673, Note_off_c, 0, 60, 65
1, 85680, Control_c, 0, 64, 0
1, 85683, Note_on_c, 0, 70, 22
1, 85694, Note_on_c, 0, 41, 91
1, 85696, Note_on_c, 0, 53, 95
1, 85706, Note_off_c, 0, 72, 68
1, 85722, Note_off_c, 0, 70, 30
1, 85730, Note_off_c, 0, 53, 70
1, 85733, Note_off_c, 0, 41, 67
1, 85739, Control_c, 0, 64, 69
1, 85754, Control_c, 0, 64, 90
1, 85769, Control_c, 0, 64, 124
1, 85784, Control_c, 0, 64, 127
1, 85935, Note_on_c, 0, 84, 85
1, 85941, Note_on_c, 0, 72, 83
1, 85995, Note_off_c, 0, 84, 66
1, 85997, Note_off_c, 0, 72, 64
1, 86007, Note_on_c, 0, 57, 82
1, 86007, Note_on_c, 0, 60, 81
1, 86013, Note_on_c, 0, 53, 81
1, 86028, Note_off_c, 0, 60, 67
1, 86030, Note_off_c, 0, 57, 69
1, 86035, Note_off_c, 0, 53, 72
1, 86221, Control_c, 0, 64, 95
1, 86236, Control_c, 0, 64, 65
1, 86237, Note_on_c, 0, 65, 99
1, 86240, Note_on_c, 0, 77, 86
1, 86251, Control_c, 0, 64, 0
1, 86269, Note_on_c, 0, 76, 55
1, 86270, Note_off_c, 0, 76, 127
1, 86284, Note_off_c, 0, 65, 68
1, 86317, Note_off_c, 0, 77, 65
1, 86328, Note_on_c, 0, 63, 99
1, 86334, Note_on_c, 0, 51, 85
1, 86340, Control_c, 0, 64, 73
1, 86351, Note_off_c, 0, 51, 70
1, 86355, Control_c, 0, 64, 91
1, 86361, Note_off_c, 0, 63, 69
1, 86369, Control_c, 0, 64, 127
1, 86490, Poly_aftertouch_c, 0, 51, 0
1, 86560, Note_on_c, 0, 77, 94
1, 86560, Note_on_c, 0, 89, 90
1, 86610, Note_off_c, 0, 89, 67
1, 86618, Note_off_c, 0, 77, 63
1, 86627, Note_on_c, 0, 72, 82
1, 86630, Note_on_c, 0, 69, 84
1, 86639, Note_on_c, 0, 63, 84
1, 86647, Note_off_c, 0, 72, 72
1, 86651, Note_off_c, 0, 69, 71
1, 86673, Note_off_c, 0, 63, 66
1, 86874, Note_on_c, 0, 77, 94
1, 86877, Note_on_c, 0, 65, 98
1, 86881, Control_c, 0, 64, 93
1, 86896, Control_c, 0, 64, 65
1, 86911, Control_c, 0, 64, 0
1, 86920, Note_off_c, 0, 65, 69
1, 86949, Note_on_c, 0, 62, 92
1, 86950, Note_on_c, 0, 50, 91
1, 86951, Note_off_c, 0, 77, 65
1, 86970, Control_c, 0, 64, 59
1, 86984, Note_off_c, 0, 62, 66
1, 86985, Note_off_c, 0, 50, 68
1, 86985, Control_c, 0, 64, 83
1, 87000, Control_c, 0, 64, 111
1, 87015, Control_c, 0, 64, 127
1, 87174, Note_on_c, 0, 77, 92
1, 87175, Note_on_c, 0, 89, 93
1, 87226, Note_off_c, 0, 89, 67
1, 87231, Note_off_c, 0, 77, 63
1, 87248, Note_on_c, 0, 70, 84
1, 87253, Note_on_c, 0, 65, 86
1, 87264, Note_on_c, 0, 62, 78
1, 87268, Note_off_c, 0, 70, 72
1, 87280, Note_off_c, 0, 65, 69
1, 87290, Note_off_c, 0, 62, 67
1, 87471, Note_on_c, 0, 65, 99
1, 87472, Note_on_c, 0, 77, 93
1, 87510, Control_c, 0, 64, 91
1, 87526, Control_c, 0, 64, 57
1, 87532, Note_off_c, 0, 65, 67
1, 87541, Control_c, 0, 64, 0
1, 87557, Note_on_c, 0, 48, 91
1, 87559, Note_on_c, 0, 60, 98
1, 87560, Note_off_c, 0, 77, 66
1, 87593, Note_off_c, 0, 48, 68
1, 87596, Note_off_c, 0, 60, 66
1, 87601, Control_c, 0, 64, 68
1, 87616, Control_c, 0, 64, 87
1, 87631, Control_c, 0, 64, 113
1, 87646, Control_c, 0, 64, 127
1, 87746, Poly_aftertouch_c, 0, 85, 127
1, 87783, Poly_aftertouch_c, 0, 85, 0
1, 87789, Note_on_c, 0, 89, 94
1, 87790, Note_on_c, 0, 77, 94
1, 87841, Note_off_c, 0, 89, 68
1, 87848, Note_off_c, 0, 77, 62
1, 87861, Note_on_c, 0, 69, 82
1, 87870, Note_on_c, 0, 63, 83
1, 87874, Note_on_c, 0, 60, 84
1, 87882, Note_off_c, 0, 69, 72
1, 87898, Note_off_c, 0, 63, 68
1, 87906, Note_off_c, 0, 60, 61
1, 88099, Note_on_c, 0, 65, 92
1, 88100, Note_on_c, 0, 77, 91
1, 88105, Control_c, 0, 64, 121
1, 88120, Control_c, 0, 64, 91
1, 88135, Control_c, 0, 64, 64
1, 88149, Control_c, 0, 64, 0
1, 88162, Note_off_c, 0, 65, 67
1, 88204, Note_off_c, 0, 77, 62
1, 88213, Note_on_c, 0, 46, 81
1, 88214, Note_on_c, 0, 58, 87
1, 88222, Note_on_c, 0, 53, 76
1, 88222, Note_on_c, 0, 50, 75
1, 88246, Control_c, 0, 64, 78
1, 88261, Note_off_c, 0, 50, 65
1, 88261, Control_c, 0, 64, 98
1, 88262, Note_off_c, 0, 53, 66
1, 88265, Note_off_c, 0, 58, 60
1, 88274, Note_off_c, 0, 46, 63
1, 88275, Control_c, 0, 64, 127
1, 88311, Note_on_c, 0, 85, 89
1, 88399, Note_on_c, 0, 86, 83
1, 88405, Note_off_c, 0, 85, 65
1, 88444, Note_on_c, 0, 84, 7
1, 88445, Note_off_c, 0, 84, 127
1, 88468, Note_off_c, 0, 86, 61
1, 88475, Note_on_c, 0, 81, 95
1, 88513, Control_c, 0, 64, 103
1, 88528, Control_c, 0, 64, 83
1, 88541, Note_off_c, 0, 81, 66
1, 88543, Control_c, 0, 64, 59
1, 88547, Note_on_c, 0, 84, 94
1, 88558, Control_c, 0, 64, 0
1, 88618, Note_on_c, 0, 82, 87
1, 88639, Note_off_c, 0, 84, 62
1, 88696, Note_on_c, 0, 81, 86
1, 88709, Note_off_c, 0, 82, 64
1, 88755, Note_off_c, 0, 81, 63
1, 88761, Note_on_c, 0, 79, 80
1, 88839, Note_off_c, 0, 79, 63
1, 88848, Note_on_c, 0, 77, 81
1, 88871, Note_on_c, 0, 78, 19
1, 88872, Note_off_c, 0, 78, 127
1, 88907, Note_on_c, 0, 78, 46
1, 88922, Note_off_c, 0, 77, 60
1, 88975, Note_off_c, 0, 78, 63
1, 89005, Note_on_c, 0, 79, 73
1, 89020, Note_on_c, 0, 77, 65
1, 89067, Note_off_c, 0, 77, 40
1, 89072, Note_on_c, 0, 74, 85
1, 89074, Note_off_c, 0, 79, 60
1, 89144, Note_on_c, 0, 77, 87
1, 89152, Note_off_c, 0, 74, 64
1, 89224, Note_on_c, 0, 75, 84
1, 89238, Note_off_c, 0, 77, 60
1, 89302, Note_on_c, 0, 74, 82
1, 89307, Note_off_c, 0, 75, 65
1, 89349, Note_off_c, 0, 74, 67
1, 89369, Note_on_c, 0, 72, 77
1, 89438, Note_on_c, 0, 70, 86
1, 89438, Note_off_c, 0, 72, 63
1, 89447, Note_on_c, 0, 58, 77
1, 89507, Note_off_c, 0, 70, 62
1, 89513, Note_on_c, 0, 73, 83
1, 89536, Note_off_c, 0, 58, 64
1, 89536, Note_on_c, 0, 61, 63
1, 89587, Note_off_c, 0, 61, 62
1, 89588, Note_on_c, 0, 74, 85
1, 89593, Note_on_c, 0, 62, 79
1, 89597, Note_off_c, 0, 73, 60
1, 89640, Note_off_c, 0, 62, 61
1, 89659, Note_off_c, 0, 74, 56
1, 89666, Note_on_c, 0, 69, 89
1, 89667, Note_on_c, 0, 57, 68
1, 89725, Note_on_c, 0, 60, 70
1, 89727, Note_off_c, 0, 57, 61
1, 89742, Note_on_c, 0, 72, 82
1, 89747, Note_off_c, 0, 69, 64
1, 89796, Note_off_c, 0, 60, 60
1, 89805, Note_on_c, 0, 58, 66
1, 89815, Note_on_c, 0, 70, 82
1, 89837, Note_off_c, 0, 72, 55
1, 89879, Note_on_c, 0, 57, 66
1, 89882, Note_off_c, 0, 58, 63
1, 89896, Note_on_c, 0, 69, 82
1, 89902, Note_off_c, 0, 70, 63
1, 89954, Note_off_c, 0, 69, 67
1, 89963, Note_on_c, 0, 67, 80
1, 89975, Note_on_c, 0, 55, 70
1, 89984, Note_off_c, 0, 57, 60
1, 90020, Note_off_c, 0, 55, 66
1, 90040, Note_off_c, 0, 67, 62
1, 90043, Note_on_c, 0, 65, 83
1, 90049, Note_on_c, 0, 53, 68
1, 90102, Note_off_c, 0, 65, 66
1, 90104, Note_on_c, 0, 66, 90
1, 90118, Note_on_c, 0, 54, 71
1, 90131, Note_off_c, 0, 53, 61
1, 90176, Note_off_c, 0, 54, 61
1, 90183, Note_off_c, 0, 66, 66
1, 90186, Note_on_c, 0, 67, 83
1, 90198, Note_on_c, 0, 55, 77
1, 90244, Note_off_c, 0, 55, 62
1, 90256, Note_off_c, 0, 67, 60
1, 90258, Note_on_c, 0, 62, 86
1, 90267, Note_on_c, 0, 50, 67
1, 90310, Note_off_c, 0, 50, 65
1, 90330, Note_on_c, 0, 65, 85
1, 90341, Note_on_c, 0, 53, 65
1, 90343, Note_off_c, 0, 62, 62
1, 90386, Note_off_c, 0, 53, 66
1, 90398, Note_on_c, 0, 51, 73
1, 90407, Note_on_c, 0, 63, 85
1, 90425, Note_off_c, 0, 65, 62
1, 90484, Note_on_c, 0, 50, 55
1, 90499, Note_on_c, 0, 62, 84
1, 90504, Note_off_c, 0, 63, 65
1, 90537, Note_off_c, 0, 51, 62
1, 90547, Note_off_c, 0, 62, 65
1, 90550, Note_off_c, 0, 50, 62
1, 90552, Note_on_c, 0, 48, 71
1, 90562, Note_on_c, 0, 60, 79
1, 90620, Note_off_c, 0, 48, 64
1, 90628, Note_on_c, 0, 46, 72
1, 90637, Note_on_c, 0, 58, 83
1, 90639, Note_off_c, 0, 60, 61
1, 90708, Note_on_c, 0, 61, 78
1, 90710, Note_on_c, 0, 49, 53
1, 90715, Note_off_c, 0, 58, 63
1, 90740, Note_off_c, 0, 46, 63
1, 90756, Note_off_c, 0, 49, 63
1, 90762, Note_on_c, 0, 50, 75
1, 90782, Note_on_c, 0, 62, 81
1, 90788, Note_off_c, 0, 61, 63
1, 90806, Note_off_c, 0, 50, 64
1, 90848, Note_on_c, 0, 45, 61
1, 90849, Note_on_c, 0, 57, 86
1, 90851, Note_off_c, 0, 62, 60
1, 90896, Note_off_c, 0, 45, 64
1, 90898, Note_on_c, 0, 48, 73
1, 90924, Note_on_c, 0, 60, 84
1, 90936, Note_off_c, 0, 57, 61
1, 90964, Note_off_c, 0, 48, 64
1, 90974, Note_on_c, 0, 46, 75
1, 90995, Note_on_c, 0, 58, 88
1, 91009, Note_off_c, 0, 60, 62
1, 91054, Note_on_c, 0, 45, 77
1, 91054, Note_off_c, 0, 46, 62
1, 91074, Note_on_c, 0, 57, 82
1, 91081, Note_off_c, 0, 58, 64
1, 91134, Note_off_c, 0, 57, 62
1, 91139, Note_on_c, 0, 55, 81
1, 91152, Note_on_c, 0, 43, 70
1, 91159, Note_off_c, 0, 45, 62
1, 91195, Note_on_c, 0, 41, 68
1, 91201, Note_off_c, 0, 43, 57
1, 91216, Note_on_c, 0, 53, 85
1, 91218, Note_off_c, 0, 55, 62
1, 91290, Note_on_c, 0, 43, 57
1, 91290, Note_on_c, 0, 55, 79
1, 91290, Note_off_c, 0, 53, 67
1, 91301, Note_off_c, 0, 41, 62
1, 91367, Note_off_c, 0, 43, 62
1, 91368, Note_on_c, 0, 56, 80
1, 91374, Note_off_c, 0, 55, 65
1, 91376, Note_on_c, 0, 44, 74
1, 91439, Note_on_c, 0, 43, 73
1, 91439, Note_off_c, 0, 44, 64
1, 91441, Note_on_c, 0, 55, 79
1, 91477, Note_off_c, 0, 43, 64
1, 91484, Note_off_c, 0, 56, 60
1, 91509, Note_off_c, 0, 55, 66
1, 91510, Note_on_c, 0, 41, 70
1, 91519, Note_on_c, 0, 53, 83
1, 91579, Note_off_c, 0, 41, 62
1, 91582, Note_on_c, 0, 39, 76
1, 91584, Note_off_c, 0, 53, 62
1, 91607, Note_on_c, 0, 51, 79
1, 91644, Note_off_c, 0, 39, 62
1, 91651, Note_on_c, 0, 38, 75
1, 91675, Note_on_c, 0, 50, 78
1, 91681, Note_off_c, 0, 51, 56
1, 91729, Note_on_c, 0, 36, 73
1, 91731, Note_off_c, 0, 50, 65
1, 91740, Note_off_c, 0, 38, 61
1, 91747, Note_on_c, 0, 48, 80
1, 91809, Note_on_c, 0, 35, 79
1, 91811, Note_off_c, 0, 36, 63
1, 91829, Note_off_c, 0, 48, 66
1, 91830, Note_on_c, 0, 47, 76
1, 91861, Note_off_c, 0, 47, 69
1, 91872, Note_on_c, 0, 38, 75
1, 91897, Note_off_c, 0, 35, 64
1, 91962, Note_on_c, 0, 36, 70
1, 91992, Note_off_c, 0, 38, 59
1, 92018, Note_on_c, 0, 39, 75
1, 92031, Note_off_c, 0, 36, 64
1, 92106, Note_on_c, 0, 38, 77
1, 92112, Note_off_c, 0, 39, 61
1, 92139, Note_on_c, 0, 79, 96
1, 92174, Note_off_c, 0, 38, 62
1, 92179, Note_on_c, 0, 41, 78
1, 92255, Note_on_c, 0, 39, 76
1, 92255, Note_off_c, 0, 41, 62
1, 92315, Note_off_c, 0, 39, 64
1, 92335, Note_on_c, 0, 43, 76
1, 92405, Note_on_c, 0, 41, 76
1, 92413, Note_off_c, 0, 43, 62
1, 92470, Note_off_c, 0, 41, 66
1, 92479, Note_on_c, 0, 44, 81
1, 92532, Note_off_c, 0, 44, 63
1, 92552, Note_on_c, 0, 43, 78
1, 92622, Note_off_c, 0, 43, 61
1, 92624, Note_on_c, 0, 41, 78
1, 92690, Note_off_c, 0, 41, 66
1, 92696, Note_on_c, 0, 39, 74
1, 92715, Note_off_c, 0, 79, 61
1, 92717, Note_on_c, 0, 77, 87
1, 92736, Note_off_c, 0, 39, 67
1, 92767, Note_on_c, 0, 38, 61
1, 92786, Note_off_c, 0, 77, 61
1, 92797, Note_on_c, 0, 79, 83
1, 92843, Note_off_c, 0, 38, 62
1, 92845, Note_on_c, 0, 36, 75
1, 92847, Note_on_c, 0, 77, 74
1, 92851, Note_off_c, 0, 79, 61
1, 92896, Note_on_c, 0, 79, 76
1, 92904, Note_off_c, 0, 77, 62
1, 92917, Note_off_c, 0, 36, 65
1, 92920, Note_on_c, 0, 35, 76
1, 92952, Note_on_c, 0, 78, 84
1, 92964, Note_off_c, 0, 79, 63
1, 92973, Note_off_c, 0, 78, 70
1, 92993, Note_on_c, 0, 36, 86
1, 93003, Note_off_c, 0, 35, 63
1, 93008, Note_on_c, 0, 77, 20
1, 93009, Note_off_c, 0, 77, 127
1, 93051, Note_on_c, 0, 75, 49
1, 93079, Note_on_c, 0, 87, 86
1, 93099, Note_off_c, 0, 75, 59
1, 93108, Note_on_c, 0, 86, 78
1, 93191, Note_off_c, 0, 86, 63
1, 93219, Note_off_c, 0, 87, 64
1, 93244, Note_on_c, 0, 83, 82
1, 93274, Note_off_c, 0, 36, 64
1, 93299, Note_off_c, 0, 83, 63
1, 93310, Note_on_c, 0, 86, 88
1, 93385, Note_on_c, 0, 84, 84
1, 93418, Note_off_c, 0, 86, 61
1, 93459, Note_on_c, 0, 82, 79
1, 93505, Note_off_c, 0, 84, 63
1, 93539, Note_on_c, 0, 80, 82
1, 93547, Note_off_c, 0, 82, 64
1, 93600, Note_on_c, 0, 79, 76
1, 93600, Note_off_c, 0, 80, 64
1, 93664, Note_off_c, 0, 79, 63
1, 93685, Note_on_c, 0, 80, 82
1, 93742, Note_off_c, 0, 80, 64
1, 93754, Note_on_c, 0, 79, 81
1, 93826, Note_on_c, 0, 78, 83
1, 93830, Note_off_c, 0, 79, 61
1, 93890, Note_off_c, 0, 78, 64
1, 93902, Note_on_c, 0, 79, 78
1, 93971, Note_on_c, 0, 77, 83
1, 94020, Note_off_c, 0, 79, 60
1, 94039, Note_on_c, 0, 75, 81
1, 94087, Note_off_c, 0, 77, 58
1, 94122, Note_on_c, 0, 74, 73
1, 94132, Note_off_c, 0, 75, 59
1, 94173, Note_on_c, 0, 60, 70
1, 94198, Note_off_c, 0, 74, 63
1, 94201, Note_on_c, 0, 72, 75
1, 94271, Note_on_c, 0, 62, 71
1, 94278, Note_off_c, 0, 72, 65
1, 94279, Note_on_c, 0, 74, 70
1, 94282, Note_off_c, 0, 60, 58
1, 94347, Note_off_c, 0, 62, 61
1, 94348, Note_on_c, 0, 63, 71
1, 94349, Note_on_c, 0, 75, 82
1, 94352, Note_off_c, 0, 74, 66
1, 94413, Note_off_c, 0, 63, 64
1, 94415, Note_off_c, 0, 75, 63
1, 94420, Note_on_c, 0, 71, 83
1, 94423, Note_on_c, 0, 59, 46
1, 94449, Note_off_c, 0, 59, 59
1, 94476, Note_on_c, 0, 62, 75
1, 94489, Note_on_c, 0, 74, 81
1, 94492, Note_off_c, 0, 71, 63
1, 94541, Note_off_c, 0, 62, 59
1, 94547, Note_on_c, 0, 60, 73
1, 94561, Note_on_c, 0, 72, 81
1, 94598, Note_off_c, 0, 74, 64
1, 94599, Note_off_c, 0, 60, 62
1, 94617, Note_on_c, 0, 58, 69
1, 94635, Note_on_c, 0, 70, 81
1, 94664, Note_off_c, 0, 72, 62
1, 94688, Note_off_c, 0, 58, 61
1, 94693, Note_on_c, 0, 56, 67
1, 94714, Note_on_c, 0, 68, 75
1, 94724, Note_off_c, 0, 70, 61
1, 94760, Note_off_c, 0, 56, 64
1, 94772, Note_on_c, 0, 55, 67
1, 94778, Note_on_c, 0, 67, 69
1, 94778, Note_off_c, 0, 68, 64
1, 94842, Note_off_c, 0, 67, 61
1, 94854, Note_on_c, 0, 68, 76
1, 94857, Note_off_c, 0, 55, 63
1, 94860, Note_on_c, 0, 56, 63
1, 94893, Note_off_c, 0, 56, 62
1, 94915, Note_off_c, 0, 68, 65
1, 94923, Note_on_c, 0, 55, 71
1, 94925, Note_on_c, 0, 67, 82
1, 94971, Note_off_c, 0, 55, 65
1, 95005, Note_on_c, 0, 66, 83
1, 95014, Note_off_c, 0, 67, 61
1, 95018, Note_on_c, 0, 53, 64
1, 95051, Note_off_c, 0, 53, 66
1, 95055, Note_off_c, 0, 66, 67
1, 95073, Note_on_c, 0, 55, 79
1, 95082, Note_on_c, 0, 67, 78
1, 95133, Note_off_c, 0, 55, 61
1, 95138, Note_on_c, 0, 65, 49
1, 95141, Note_on_c, 0, 53, 69
1, 95191, Note_off_c, 0, 67, 60
1, 95211, Note_off_c, 0, 53, 65
1, 95215, Note_on_c, 0, 51, 72
1, 95218, Note_on_c, 0, 63, 82
1, 95259, Note_off_c, 0, 65, 64
1, 95300, Note_on_c, 0, 50, 74
1, 95301, Note_off_c, 0, 63, 62
1, 95306, Note_on_c, 0, 62, 60
1, 95316, Note_on_c, 0, 60, 60
1, 95327, Note_off_c, 0, 51, 59
1, 95352, Note_off_c, 0, 60, 0
1, 95372, Note_off_c, 0, 62, 60
1, 95389, Note_on_c, 0, 48, 77
1, 95389, Poly_aftertouch_c, 0, 60, 127
1, 95404, Note_off_c, 0, 50, 62
1, 95437, Poly_aftertouch_c, 0, 60, 0
1, 95443, Note_on_c, 0, 62, 76
1, 95446, Note_on_c, 0, 50, 58
1, 95458, Note_off_c, 0, 48, 64
1, 95510, Note_off_c, 0, 50, 64
1, 95516, Note_on_c, 0, 51, 73
1, 95520, Note_on_c, 0, 63, 81
1, 95526, Note_off_c, 0, 62, 63
1, 95583, Note_on_c, 0, 47, 75
1, 95587, Note_off_c, 0, 63, 64
1, 95588, Note_on_c, 0, 59, 82
1, 95598, Note_off_c, 0, 51, 62
1, 95629, Note_off_c, 0, 47, 66
1, 95656, Note_on_c, 0, 50, 73
1, 95657, Note_on_c, 0, 62, 85
1, 95661, Note_off_c, 0, 59, 63
1, 95704, Note_off_c, 0, 50, 59
1, 95736, Note_on_c, 0, 48, 71
1, 95740, Note_on_c, 0, 60, 79
1, 95772, Note_off_c, 0, 62, 63
1, 95775, Note_off_c, 0, 48, 66
1, 95793, Note_on_c, 0, 46, 78
1, 95805, Note_on_c, 0, 58, 83
1, 95838, Note_off_c, 0, 60, 60
1, 95875, Note_on_c, 0, 56, 80
1, 95892, Note_off_c, 0, 58, 64
1, 95901, Note_on_c, 0, 43, 68
1, 95907, Note_off_c, 0, 46, 57
1, 95948, Note_off_c, 0, 56, 63
1, 95951, Note_on_c, 0, 55, 78
1, 95981, Poly_aftertouch_c, 0, 44, 0
1, 96013, Note_on_c, 0, 45, 70
1, 96018, Note_off_c, 0, 55, 64
1, 96028, Note_off_c, 0, 43, 61
1, 96031, Note_on_c, 0, 57, 77
1, 96085, Note_off_c, 0, 45, 65
1, 96097, Note_on_c, 0, 46, 76
1, 96103, Note_on_c, 0, 58, 85
1, 96109, Note_off_c, 0, 57, 63
1, 96166, Note_off_c, 0, 46, 63
1, 96167, Note_on_c, 0, 45, 75
1, 96174, Note_on_c, 0, 57, 83
1, 96213, Note_off_c, 0, 58, 61
1, 96216, Note_off_c, 0, 45, 64
1, 96249, Note_on_c, 0, 55, 80
1, 96253, Note_on_c, 0, 43, 77
1, 96253, Note_off_c, 0, 57, 65
1, 96300, Note_off_c, 0, 55, 65
1, 96312, Note_on_c, 0, 53, 82
1, 96321, Note_off_c, 0, 43, 59
1, 96324, Note_on_c, 0, 41, 76
1, 96380, Note_off_c, 0, 53, 62
1, 96382, Note_on_c, 0, 40, 77
1, 96391, Note_on_c, 0, 52, 87
1, 96426, Note_off_c, 0, 41, 32
1, 96451, Note_off_c, 0, 52, 67
1, 96454, Note_off_c, 0, 40, 63
1, 96457, Note_on_c, 0, 38, 70
1, 96464, Note_on_c, 0, 50, 86
1, 96539, Note_on_c, 0, 37, 79
1, 96548, Note_off_c, 0, 38, 61
1, 96550, Note_on_c, 0, 49, 92
1, 96563, Note_off_c, 0, 50, 60
1, 96595, Note_off_c, 0, 49, 65
1, 96608, Note_on_c, 0, 40, 70
1, 96614, Note_off_c, 0, 37, 66
1, 96698, Note_on_c, 0, 38, 68
1, 96701, Note_off_c, 0, 40, 63
1, 96753, Note_on_c, 0, 41, 78
1, 96767, Note_off_c, 0, 38, 62
1, 96832, Note_on_c, 0, 40, 73
1, 96842, Note_off_c, 0, 41, 65
1, 96878, Note_on_c, 0, 81, 98
1, 96896, Note_off_c, 0, 40, 63
1, 96908, Note_on_c, 0, 43, 79
1, 96960, Note_off_c, 0, 43, 61
1, 96986, Note_on_c, 0, 41, 76
1, 97054, Note_off_c, 0, 41, 66
1, 97061, Note_on_c, 0, 45, 79
1, 97125, Note_off_c, 0, 45, 65
1, 97127, Note_on_c, 0, 43, 69
1, 97170, Note_off_c, 0, 43, 64
1, 97191, Note_on_c, 0, 46, 83
1, 97249, Note_off_c, 0, 46, 63
1, 97276, Note_on_c, 0, 45, 82
1, 97344, Note_off_c, 0, 45, 63
1, 97355, Note_on_c, 0, 43, 73
1, 97391, Note_off_c, 0, 43, 61
1, 97412, Note_off_c, 0, 81, 61
1, 97422, Note_on_c, 0, 79, 85
1, 97439, Poly_aftertouch_c, 0, 41, 127
1, 97486, Note_off_c, 0, 79, 62
1, 97493, Poly_aftertouch_c, 0, 41, 0
1, 97500, Note_on_c, 0, 38, 72
1, 97501, Note_on_c, 0, 81, 84
1, 97551, Note_on_c, 0, 79, 72
1, 97556, Note_off_c, 0, 81, 62
1, 97605, Note_on_c, 0, 37, 72
1, 97610, Note_on_c, 0, 81, 70
1, 97615, Note_off_c, 0, 38, 62
1, 97619, Note_off_c, 0, 79, 62
1, 97686, Note_on_c, 0, 38, 76
1, 97698, Note_off_c, 0, 37, 64
1, 97701, Note_off_c, 0, 81, 62
1, 97717, Note_on_c, 0, 79, 43
1, 97731, Note_on_c, 0, 77, 72
1, 97743, Note_off_c, 0, 79, 60
1, 97808, Note_on_c, 0, 76, 84
1, 97810, Note_off_c, 0, 77, 61
1, 97878, Note_off_c, 0, 76, 66
1, 97879, Note_on_c, 0, 77, 80
1, 97963, Note_on_c, 0, 73, 84
1, 97963, Note_off_c, 0, 77, 55
1, 97976, Note_off_c, 0, 38, 62
1, 98041, Note_off_c, 0, 73, 57
1, 98047, Note_on_c, 0, 76, 83
1, 98110, Note_on_c, 0, 74, 81
1, 98150, Note_off_c, 0, 76, 65
1, 98179, Note_on_c, 0, 72, 79
1, 98220, Note_off_c, 0, 74, 60
1, 98253, Note_off_c, 0, 72, 64
1, 98258, Note_on_c, 0, 70, 76
1, 98321, Note_on_c, 0, 69, 75
1, 98321, Note_off_c, 0, 70, 60
1, 98385, Note_off_c, 0, 69, 63
1, 98399, Note_on_c, 0, 70, 80
1, 98456, Note_off_c, 0, 70, 63
1, 98469, Note_on_c, 0, 69, 82
1, 98536, Note_on_c, 0, 68, 86
1, 98545, Note_off_c, 0, 69, 63
1, 98592, Note_off_c, 0, 68, 65
1, 98613, Note_on_c, 0, 69, 84
1, 98688, Note_on_c, 0, 67, 85
1, 98759, Note_off_c, 0, 69, 60
1, 98762, Note_on_c, 0, 65, 81
1, 98806, Note_off_c, 0, 67, 56
1, 98837, Note_off_c, 0, 65, 67
1, 98840, Note_on_c, 0, 64, 76
1, 98893, Note_on_c, 0, 50, 73
1, 98898, Note_off_c, 0, 64, 66
1, 98918, Note_on_c, 0, 62, 78
1, 98970, Note_on_c, 0, 52, 68
1, 98972, Note_off_c, 0, 50, 62
1, 98982, Note_on_c, 0, 64, 80
1, 98983, Note_off_c, 0, 62, 60
1, 99024, Note_off_c, 0, 52, 64
1, 99042, Note_on_c, 0, 53, 75
1, 99057, Note_off_c, 0, 64, 63
1, 99060, Note_on_c, 0, 65, 82
1, 99086, Note_off_c, 0, 53, 66
1, 99118, Note_on_c, 0, 49, 77
1, 99120, Note_off_c, 0, 65, 65
1, 99122, Note_on_c, 0, 61, 81
1, 99167, Note_off_c, 0, 61, 66
1, 99179, Note_off_c, 0, 49, 59
1, 99193, Note_on_c, 0, 52, 78
1, 99198, Note_on_c, 0, 64, 82
1, 99239, Note_off_c, 0, 52, 61
1, 99258, Note_on_c, 0, 50, 74
1, 99264, Note_on_c, 0, 62, 76
1, 99294, Note_off_c, 0, 64, 66
1, 99325, Note_off_c, 0, 50, 63
1, 99339, Note_on_c, 0, 48, 71
1, 99340, Note_on_c, 0, 60, 58
1, 99379, Note_off_c, 0, 62, 54
1, 99405, Note_off_c, 0, 60, 63
1, 99406, Note_on_c, 0, 58, 76
1, 99424, Note_off_c, 0, 48, 63
1, 99433, Note_on_c, 0, 46, 70
1, 99482, Note_off_c, 0, 46, 63
1, 99493, Note_off_c, 0, 58, 62
1, 99496, Note_on_c, 0, 45, 60
1, 99497, Note_on_c, 0, 57, 73
1, 99566, Note_on_c, 0, 58, 71
1, 99567, Note_off_c, 0, 57, 62
1, 99569, Note_on_c, 0, 46, 76
1, 99585, Note_off_c, 0, 45, 61
1, 99610, Note_off_c, 0, 46, 61
1, 99639, Note_on_c, 0, 48, 77
1, 99642, Note_off_c, 0, 58, 66
1, 99644, Note_on_c, 0, 60, 80
1, 99701, Note_off_c, 0, 48, 61
1, 99706, Note_on_c, 0, 46, 77
1, 99713, Note_on_c, 0, 58, 77
1, 99723, Note_off_c, 0, 60, 57
1, 99777, Note_off_c, 0, 46, 62
1, 99784, Note_on_c, 0, 45, 73
1, 99785, Note_off_c, 0, 58, 65
1, 99787, Note_on_c, 0, 57, 80
1, 99846, Note_off_c, 0, 45, 64
1, 99847, Note_on_c, 0, 58, 78
1, 99851, Note_on_c, 0, 46, 74
1, 99852, Note_off_c, 0, 57, 62
1, 99922, Note_on_c, 0, 57, 77
1, 99924, Note_off_c, 0, 58, 66
1, 99925, Note_on_c, 0, 45, 67
1, 99970, Note_off_c, 0, 46, 37
1, 99973, Note_off_c, 0, 57, 64
1, 99987, Note_on_c, 0, 55, 79
1, 100002, Note_off_c, 0, 45, 64
1, 100009, Note_on_c, 0, 43, 69
1, 100066, Note_off_c, 0, 43, 60
1, 100066, Note_off_c, 0, 55, 62
1, 100071, Note_on_c, 0, 54, 80
1, 100073, Note_on_c, 0, 42, 66
1, 100123, Note_on_c, 0, 45, 66
1, 100134, Note_off_c, 0, 42, 59
1, 100141, Note_off_c, 0, 54, 64
1, 100145, Note_on_c, 0, 57, 81
1, 100200, Note_on_c, 0, 43, 67
1, 100207, Note_off_c, 0, 45, 61
1, 100227, Note_off_c, 0, 57, 62
1, 100237, Note_on_c, 0, 55, 77
1, 100286, Note_off_c, 0, 55, 64
1, 100290, Note_on_c, 0, 46, 63
1, 100297, Note_off_c, 0, 43, 61
1, 100306, Note_on_c, 0, 58, 84
1, 100356, Note_on_c, 0, 45, 67
1, 100357, Note_off_c, 0, 58, 66
1, 100371, Note_on_c, 0, 57, 82
1, 100385, Note_off_c, 0, 46, 55
1, 100412, Note_off_c, 0, 45, 64
1, 100426, Note_on_c, 0, 48, 79
1, 100437, Note_off_c, 0, 57, 61
1, 100442, Note_on_c, 0, 60, 74
1, 100476, Note_off_c, 0, 48, 62
1, 100500, Note_on_c, 0, 46, 78
1, 100523, Note_on_c, 0, 58, 85
1, 100554, Note_off_c, 0, 46, 64
1, 100557, Note_off_c, 0, 60, 60
1, 100579, Note_on_c, 0, 50, 73
1, 100609, Note_on_c, 0, 62, 81
1, 100623, Note_off_c, 0, 58, 63
1, 100653, Note_off_c, 0, 50, 61
1, 100656, Note_on_c, 0, 48, 76
1, 100683, Note_on_c, 0, 60, 77
1, 100703, Note_off_c, 0, 48, 66
1, 100703, Note_off_c, 0, 62, 62
1, 100710, Note_on_c, 0, 59, 45
1, 100711, Note_off_c, 0, 59, 127
1, 100725, Note_on_c, 0, 51, 79
1, 100751, Note_on_c, 0, 63, 87
1, 100768, Note_off_c, 0, 60, 62
1, 100783, Note_off_c, 0, 51, 63
1, 100810, Note_on_c, 0, 50, 75
1, 100823, Note_on_c, 0, 62, 82
1, 100853, Note_off_c, 0, 63, 66
1, 100883, Note_off_c, 0, 50, 65
1, 100885, Note_on_c, 0, 48, 85
1, 100895, Note_on_c, 0, 60, 81
1, 100930, Note_off_c, 0, 62, 60
1, 100959, Note_on_c, 0, 46, 81
1, 100959, Note_off_c, 0, 48, 63
1, 100975, Note_on_c, 0, 58, 81
1, 100979, Note_off_c, 0, 60, 64
1, 101019, Note_off_c, 0, 46, 64
1, 101040, Note_off_c, 0, 58, 65
1, 101043, Note_on_c, 0, 57, 78
1, 101057, Note_on_c, 0, 45, 78
1, 101113, Note_off_c, 0, 45, 61
1, 101120, Note_on_c, 0, 43, 75
1, 101121, Note_on_c, 0, 55, 78
1, 101121, Note_off_c, 0, 57, 57
1, 101185, Note_off_c, 0, 43, 60
1, 101190, Note_on_c, 0, 42, 74
1, 101192, Note_off_c, 0, 55, 63
1, 101194, Note_on_c, 0, 54, 83
1, 101251, Note_on_c, 0, 43, 70
1, 101262, Note_off_c, 0, 42, 63
1, 101263, Note_off_c, 0, 54, 62
1, 101278, Note_on_c, 0, 55, 83
1, 101302, Note_off_c, 0, 43, 62
1, 101327, Note_on_c, 0, 45, 73
1, 101348, Note_on_c, 0, 57, 82
1, 101348, Note_off_c, 0, 55, 63
1, 101374, Note_off_c, 0, 45, 64
1, 101406, Note_on_c, 0, 46, 82
1, 101416, Note_on_c, 0, 58, 80
1, 101424, Note_off_c, 0, 57, 60
1, 101472, Note_off_c, 0, 46, 61
1, 101487, Note_on_c, 0, 45, 77
1, 101490, Note_on_c, 0, 57, 79
1, 101497, Note_off_c, 0, 58, 66
1, 101535, Note_off_c, 0, 45, 63
1, 101544, Note_on_c, 0, 55, 81
1, 101544, Note_off_c, 0, 57, 64
1, 101564, Note_on_c, 0, 43, 82
1, 101602, Note_off_c, 0, 43, 64
1, 101621, Note_off_c, 0, 55, 62
1, 101629, Note_on_c, 0, 53, 82
1, 101644, Note_on_c, 0, 41, 76
1, 101689, Note_off_c, 0, 41, 61
1, 101706, Note_on_c, 0, 52, 85
1, 101706, Note_off_c, 0, 53, 67
1, 101718, Note_on_c, 0, 40, 77
1, 101770, Note_off_c, 0, 52, 68
1, 101787, Note_off_c, 0, 40, 64
1, 101794, Note_on_c, 0, 50, 83
1, 101799, Note_on_c, 0, 38, 75
1, 101862, Note_on_c, 0, 37, 79
1, 101868, Note_off_c, 0, 38, 62
1, 101871, Note_on_c, 0, 49, 85
1, 101871, Note_off_c, 0, 50, 59
1, 101934, Note_on_c, 0, 38, 69
1, 101940, Note_on_c, 0, 50, 74
1, 101946, Note_off_c, 0, 49, 63
1, 101946, Note_off_c, 0, 37, 65
1, 102003, Note_on_c, 0, 40, 74
1, 102005, Note_off_c, 0, 38, 62
1, 102019, Note_on_c, 0, 52, 82
1, 102036, Note_off_c, 0, 50, 64
1, 102090, Note_on_c, 0, 38, 75
1, 102095, Note_off_c, 0, 40, 64
1, 102096, Note_on_c, 0, 50, 72
1, 102133, Note_off_c, 0, 52, 65
1, 102155, Note_on_c, 0, 37, 72
1, 102158, Note_on_c, 0, 49, 80
1, 102161, Note_off_c, 0, 38, 62
1, 102194, Note_off_c, 0, 50, 52
1, 102223, Note_off_c, 0, 37, 64
1, 102238, Note_on_c, 0, 43, 71
1, 102252, Note_on_c, 0, 55, 83
1, 102283, Note_off_c, 0, 49, 61
1, 102304, Note_on_c, 0, 40, 74
1, 102311, Note_off_c, 0, 43, 60
1, 102324, Note_on_c, 0, 52, 81
1, 102353, Note_off_c, 0, 55, 64
1, 102369, Note_on_c, 0, 37, 86
1, 102379, Note_off_c, 0, 40, 63
1, 102384, Note_on_c, 0, 49, 86
1, 102399, Note_off_c, 0, 37, 71
1, 102408, Note_off_c, 0, 52, 66
1, 102442, Note_off_c, 0, 49, 64
1, 102452, Note_on_c, 0, 50, 87
1, 102460, Note_on_c, 0, 38, 84
1, 102538, Note_on_c, 0, 42, 78
1, 102545, Note_on_c, 0, 54, 84
1, 102557, Note_off_c, 0, 50, 59
1, 102559, Note_off_c, 0, 38, 62
1, 102593, Note_off_c, 0, 42, 64
1, 102602, Note_on_c, 0, 45, 72
1, 102608, Note_on_c, 0, 57, 78
1, 102617, Note_off_c, 0, 54, 61
1, 102643, Note_off_c, 0, 45, 67
1, 102669, Note_on_c, 0, 42, 84
1, 102690, Note_on_c, 0, 54, 90
1, 102699, Note_off_c, 0, 57, 62
1, 102746, Note_off_c, 0, 42, 64
1, 102756, Note_on_c, 0, 58, 94
1, 102763, Note_on_c, 0, 46, 95
1, 102769, Note_off_c, 0, 54, 63
1, 102798, Control_c, 0, 64, 47
1, 102813, Control_c, 0, 64, 87
1, 102817, Note_on_c, 0, 43, 75
1, 102827, Note_on_c, 0, 55, 78
1, 102828, Control_c, 0, 64, 127
1, 102849, Note_off_c, 0, 58, 63
1, 102849, Note_off_c, 0, 46, 61
1, 102868, Note_on_c, 0, 51, 77
1, 102898, Note_off_c, 0, 55, 62
1, 102903, Note_on_c, 0, 39, 66
1, 102915, Note_off_c, 0, 43, 57
1, 102935, Note_on_c, 0, 49, 86
1, 102949, Note_off_c, 0, 51, 63
1, 102950, Note_on_c, 0, 37, 71
1, 102983, Note_off_c, 0, 39, 63
1, 102998, Note_off_c, 0, 37, 66
1, 103004, Note_off_c, 0, 49, 62
1, 103061, Note_on_c, 0, 50, 98
1, 103064, Note_on_c, 0, 38, 96
1, 103075, Poly_aftertouch_c, 0, 56, 0
1, 103080, Control_c, 0, 64, 115
1, 103093, Note_on_c, 0, 56, 16
1, 103095, Control_c, 0, 64, 80
1, 103110, Control_c, 0, 64, 0
1, 103113, Note_off_c, 0, 56, 50
1, 103119, Note_off_c, 0, 50, 62
1, 103128, Note_on_c, 0, 42, 80
1, 103142, Note_on_c, 0, 54, 90
1, 103144, Note_off_c, 0, 38, 59
1, 103187, Note_off_c, 0, 42, 65
1, 103200, Note_on_c, 0, 45, 75
1, 103228, Note_on_c, 0, 57, 79
1, 103243, Note_off_c, 0, 54, 59
1, 103249, Note_off_c, 0, 45, 66
1, 103278, Note_on_c, 0, 42, 84
1, 103311, Note_on_c, 0, 54, 82
1, 103331, Note_off_c, 0, 57, 55
1, 103373, Note_off_c, 0, 42, 64
1, 103386, Note_on_c, 0, 58, 93
1, 103387, Note_on_c, 0, 46, 94
1, 103407, Note_off_c, 0, 54, 61
1, 103428, Control_c, 0, 64, 43
1, 103442, Control_c, 0, 64, 87
1, 103443, Note_on_c, 0, 43, 73
1, 103457, Control_c, 0, 64, 123
1, 103459, Note_on_c, 0, 55, 81
1, 103469, Note_off_c, 0, 46, 61
1, 103472, Control_c, 0, 64, 127
1, 103482, Note_off_c, 0, 58, 63
1, 103507, Note_on_c, 0, 51, 73
1, 103528, Note_on_c, 0, 39, 68
1, 103529, Note_off_c, 0, 43, 61
1, 103532, Note_off_c, 0, 55, 62
1, 103577, Note_off_c, 0, 51, 62
1, 103579, Note_on_c, 0, 49, 86
1, 103589, Note_on_c, 0, 37, 75
1, 103622, Note_off_c, 0, 39, 63
1, 103637, Note_off_c, 0, 37, 66
1, 103644, Note_off_c, 0, 49, 62
1, 103702, Note_on_c, 0, 50, 94
1, 103706, Note_on_c, 0, 38, 94
1, 103740, Control_c, 0, 64, 100
1, 103753, Note_off_c, 0, 50, 62
1, 103755, Control_c, 0, 64, 69
1, 103770, Control_c, 0, 64, 0
1, 103784, Note_on_c, 0, 42, 74
1, 103785, Note_on_c, 0, 54, 93
1, 103788, Note_off_c, 0, 38, 60
1, 103815, Note_off_c, 0, 42, 64
1, 103828, Note_on_c, 0, 45, 63
1, 103864, Note_on_c, 0, 57, 83
1, 103879, Note_off_c, 0, 54, 62
1, 103889, Note_on_c, 0, 42, 76
1, 103893, Note_off_c, 0, 45, 64
1, 103934, Note_on_c, 0, 54, 82
1, 103969, Note_off_c, 0, 57, 62
1, 103993, Note_off_c, 0, 42, 64
1, 104013, Note_on_c, 0, 46, 94
1, 104018, Note_on_c, 0, 58, 95
1, 104040, Note_off_c, 0, 54, 61
1, 104059, Control_c, 0, 64, 68
1, 104074, Control_c, 0, 64, 96
1, 104078, Note_on_c, 0, 43, 80
1, 104089, Control_c, 0, 64, 127
1, 104091, Note_on_c, 0, 55, 82
1, 104098, Note_off_c, 0, 46, 60
1, 104115, Note_off_c, 0, 58, 64
1, 104143, Note_on_c, 0, 51, 71
1, 104155, Note_off_c, 0, 43, 61
1, 104162, Note_on_c, 0, 39, 72
1, 104181, Note_off_c, 0, 55, 0
1, 104210, Note_on_c, 0, 49, 84
1, 104212, Note_off_c, 0, 51, 62
1, 104217, Poly_aftertouch_c, 0, 55, 127
1, 104221, Note_on_c, 0, 37, 68
1, 104236, Note_off_c, 0, 39, 62
1, 104262, Note_off_c, 0, 37, 67
1, 104274, Note_off_c, 0, 49, 62
1, 104299, Poly_aftertouch_c, 0, 55, 0
1, 104335, Note_on_c, 0, 50, 93
1, 104337, Note_on_c, 0, 38, 92
1, 104386, Control_c, 0, 64, 90
1, 104387, Note_off_c, 0, 50, 63
1, 104401, Control_c, 0, 64, 55
1, 104406, Note_on_c, 0, 42, 79
1, 104413, Note_on_c, 0, 54, 85
1, 104414, Note_off_c, 0, 38, 62
1, 104416, Control_c, 0, 64, 0
1, 104462, Note_off_c, 0, 42, 65
1, 104472, Note_on_c, 0, 45, 70
1, 104491, Note_on_c, 0, 57, 76
1, 104498, Note_off_c, 0, 54, 63
1, 104516, Note_off_c, 0, 45, 65
1, 104543, Note_on_c, 0, 42, 86
1, 104570, Note_on_c, 0, 54, 82
1, 104586, Note_off_c, 0, 57, 63
1, 104633, Note_off_c, 0, 42, 62
1, 104641, Note_on_c, 0, 46, 92
1, 104643, Note_on_c, 0, 58, 95
1, 104664, Note_off_c, 0, 54, 61
1, 104715, Note_on_c, 0, 43, 77
1, 104719, Control_c, 0, 64, 75
1, 104730, Note_on_c, 0, 55, 81
1, 104733, Note_off_c, 0, 46, 60
1, 104734, Control_c, 0, 64, 91
1, 104746, Note_off_c, 0, 58, 65
1, 104748, Control_c, 0, 64, 118
1, 104763, Control_c, 0, 64, 127
1, 104767, Note_on_c, 0, 51, 72
1, 104791, Note_off_c, 0, 43, 61
1, 104795, Note_on_c, 0, 39, 69
1, 104800, Note_off_c, 0, 55, 64
1, 104842, Note_off_c, 0, 51, 60
1, 104843, Note_on_c, 0, 37, 79
1, 104852, Note_on_c, 0, 49, 90
1, 104871, Note_off_c, 0, 39, 62
1, 104905, Note_off_c, 0, 37, 65
1, 104915, Note_off_c, 0, 49, 62
1, 104985, Control_c, 0, 64, 84
1, 105000, Note_on_c, 0, 38, 87
1, 105000, Control_c, 0, 64, 0
1, 105004, Note_on_c, 0, 50, 86
1, 105021, Note_on_c, 0, 58, 71
1, 105034, Note_off_c, 0, 50, 67
1, 105043, Note_off_c, 0, 38, 61
1, 105052, Note_off_c, 0, 58, 56
1, 105074, Control_c, 0, 64, 72
1, 105088, Control_c, 0, 64, 87
1, 105092, Note_on_c, 0, 50, 90
1, 105100, Note_on_c, 0, 38, 78
1, 105103, Control_c, 0, 64, 107
1, 105118, Control_c, 0, 64, 127
1, 105126, Note_on_c, 0, 58, 39
1, 105149, Note_off_c, 0, 58, 58
1, 105165, Note_on_c, 0, 54, 83
1, 105181, Note_on_c, 0, 42, 78
1, 105195, Note_off_c, 0, 38, 60
1, 105226, Note_on_c, 0, 57, 76
1, 105228, Note_off_c, 0, 50, 51
1, 105249, Note_on_c, 0, 45, 70
1, 105263, Note_off_c, 0, 54, 61
1, 105276, Note_off_c, 0, 42, 62
1, 105309, Note_off_c, 0, 45, 64
1, 105316, Note_on_c, 0, 62, 87
1, 105322, Note_off_c, 0, 57, 62
1, 105327, Note_on_c, 0, 50, 82
1, 105352, Note_off_c, 0, 50, 69
1, 105354, Note_off_c, 0, 62, 61
1, 105398, Note_on_c, 0, 62, 86
1, 105422, Note_on_c, 0, 50, 74
1, 105484, Note_on_c, 0, 54, 79
1, 105491, Note_on_c, 0, 66, 90
1, 105517, Note_off_c, 0, 50, 59
1, 105524, Note_off_c, 0, 62, 56
1, 105556, Note_on_c, 0, 69, 85
1, 105556, Note_on_c, 0, 57, 75
1, 105574, Note_off_c, 0, 54, 61
1, 105575, Note_off_c, 0, 66, 65
1, 105612, Note_off_c, 0, 57, 62
1, 105633, Note_on_c, 0, 62, 84
1, 105645, Note_on_c, 0, 74, 76
1, 105647, Note_off_c, 0, 69, 64
1, 105654, Note_on_c, 0, 72, 71
1, 105667, Note_off_c, 0, 74, 68
1, 105669, Note_off_c, 0, 72, 67
1, 105671, Note_off_c, 0, 62, 62
1, 105715, Note_on_c, 0, 74, 90
1, 105726, Note_on_c, 0, 62, 78
1, 105776, Note_off_c, 0, 74, 64
1, 105785, Note_on_c, 0, 66, 82
1, 105809, Note_on_c, 0, 78, 92
1, 105816, Note_off_c, 0, 62, 60
1, 105850, Note_on_c, 0, 69, 82
1, 105865, Note_on_c, 0, 81, 93
1, 105875, Note_off_c, 0, 66, 64
1, 105886, Note_off_c, 0, 78, 61
1, 105969, Note_off_c, 0, 69, 65
1, 105987, Control_c, 0, 64, 99
1, 105997, Note_on_c, 0, 74, 90
1, 106002, Control_c, 0, 64, 59
1, 106003, Note_off_c, 0, 81, 63
1, 106004, Note_on_c, 0, 86, 87
1, 106016, Control_c, 0, 64, 0
1, 106029, Note_off_c, 0, 86, 61
1, 106031, Control_c, 0, 64, 57
1, 106044, Note_off_c, 0, 74, 67
1, 106046, Control_c, 0, 64, 85
1, 106061, Control_c, 0, 64, 127
1, 106081, Note_on_c, 0, 86, 87
1, 106088, Note_on_c, 0, 74, 75
1, 106153, Note_on_c, 0, 81, 90
1, 106160, Note_off_c, 0, 74, 61
1, 106161, Note_on_c, 0, 69, 86
1, 106163, Note_off_c, 0, 86, 64
1, 106231, Note_on_c, 0, 78, 90
1, 106240, Note_off_c, 0, 81, 63
1, 106241, Note_off_c, 0, 69, 63
1, 106242, Note_on_c, 0, 66, 73
1, 106288, Note_off_c, 0, 78, 66
1, 106310, Note_off_c, 0, 66, 66
1, 106313, Note_on_c, 0, 62, 59
1, 106316, Note_on_c, 0, 74, 77
1, 106339, Note_off_c, 0, 74, 68
1, 106343, Note_off_c, 0, 62, 64
1, 106382, Note_on_c, 0, 72, 17
1, 106392, Note_on_c, 0, 62, 80
1, 106451, Note_on_c, 0, 57, 80
1, 106451, Note_off_c, 0, 62, 58
1, 106466, Note_on_c, 0, 69, 78
1, 106466, Note_off_c, 0, 72, 63
1, 106522, Note_on_c, 0, 54, 75
1, 106523, Note_on_c, 0, 66, 86
1, 106528, Note_off_c, 0, 57, 60
1, 106531, Note_off_c, 0, 69, 66
1, 106580, Note_off_c, 0, 66, 65
1, 106590, Note_on_c, 0, 50, 69
1, 106600, Note_off_c, 0, 54, 62
1, 106607, Note_on_c, 0, 62, 82
1, 106621, Note_off_c, 0, 50, 67
1, 106633, Note_off_c, 0, 62, 67
1, 106681, Note_on_c, 0, 50, 69
1, 106695, Note_on_c, 0, 62, 74
1, 106697, Note_on_c, 0, 48, 50
1, 106703, Note_on_c, 0, 60, 65
1, 106727, Note_off_c, 0, 48, 57
1, 106730, Note_off_c, 0, 50, 57
1, 106740, Note_off_c, 0, 60, 55
1, 106745, Note_on_c, 0, 45, 84
1, 106745, Note_off_c, 0, 62, 59
1, 106754, Note_on_c, 0, 57, 76
1, 106813, Note_off_c, 0, 45, 64
1, 106816, Note_on_c, 0, 42, 78
1, 106828, Note_on_c, 0, 54, 76
1, 106829, Note_off_c, 0, 57, 63
1, 106899, Control_c, 0, 64, 110
1, 106913, Control_c, 0, 64, 75
1, 106923, Note_on_c, 0, 50, 89
1, 106926, Note_off_c, 0, 42, 63
1, 106927, Note_on_c, 0, 38, 71
1, 106928, Control_c, 0, 64, 0
1, 106932, Note_on_c, 0, 36, 70
1, 106952, Note_off_c, 0, 38, 65
1, 106965, Note_off_c, 0, 36, 58
1, 106967, Note_off_c, 0, 54, 62
1, 106975, Note_off_c, 0, 50, 64
1, 106980, Control_c, 0, 64, 64
1, 106996, Control_c, 0, 64, 87
1, 107010, Control_c, 0, 64, 127
1, 107019, Note_on_c, 0, 38, 87
1, 107023, Note_on_c, 0, 50, 85
1, 107088, Note_off_c, 0, 50, 53
1, 107103, Note_on_c, 0, 54, 81
1, 107112, Note_on_c, 0, 42, 73
1, 107117, Note_off_c, 0, 38, 63
1, 107156, Note_on_c, 0, 57, 78
1, 107174, Note_off_c, 0, 54, 63
1, 107177, Note_on_c, 0, 45, 77
1, 107212, Note_off_c, 0, 42, 62
1, 107247, Control_c, 0, 64, 123
1, 107262, Control_c, 0, 64, 85
1, 107277, Control_c, 0, 64, 50
1, 107282, Note_on_c, 0, 50, 91
1, 107285, Note_on_c, 0, 62, 89
1, 107291, Control_c, 0, 64, 0
1, 107296, Note_off_c, 0, 45, 59
1, 107298, Note_off_c, 0, 57, 61
1, 107306, Control_c, 0, 64, 67
1, 107321, Control_c, 0, 64, 91
1, 107326, Note_off_c, 0, 50, 63
1, 107331, Note_off_c, 0, 62, 65
1, 107336, Control_c, 0, 64, 127
1, 107371, Note_on_c, 0, 62, 85
1, 107387, Note_on_c, 0, 50, 77
1, 107456, Note_on_c, 0, 57, 85
1, 107464, Note_on_c, 0, 45, 82
1, 107467, Note_off_c, 0, 62, 61
1, 107469, Note_off_c, 0, 50, 62
1, 107541, Note_off_c, 0, 57, 63
1, 107548, Note_on_c, 0, 42, 79
1, 107553, Note_off_c, 0, 45, 64
1, 107554, Note_on_c, 0, 54, 81
1, 107671, Note_off_c, 0, 42, 61
1, 107678, Control_c, 0, 64, 112
1, 107693, Control_c, 0, 64, 77
1, 107714, Control_c, 0, 64, 0
1, 107720, Note_on_c, 0, 38, 92
1, 107723, Note_on_c, 0, 50, 94
1, 107753, Note_on_c, 0, 58, 51
1, 107761, Note_off_c, 0, 54, 62
1, 107765, Note_off_c, 0, 50, 64
1, 107767, Note_off_c, 0, 38, 63
1, 107774, Control_c, 0, 64, 65
1, 107778, Note_off_c, 0, 58, 55
1, 107788, Control_c, 0, 64, 80
1, 107803, Control_c, 0, 64, 100
1, 107818, Control_c, 0, 64, 127
1, 107820, Note_on_c, 0, 50, 83
1, 107832, Note_on_c, 0, 38, 73
1, 107898, Note_on_c, 0, 54, 82
1, 107911, Note_on_c, 0, 42, 74
1, 107927, Note_off_c, 0, 38, 60
1, 107932, Note_off_c, 0, 50, 52
1, 107968, Note_on_c, 0, 57, 77
1, 107976, Note_on_c, 0, 45, 69
1, 107988, Note_off_c, 0, 42, 61
1, 108003, Note_off_c, 0, 54, 62
1, 108036, Note_off_c, 0, 45, 64
1, 108045, Note_on_c, 0, 48, 87
1, 108050, Note_on_c, 0, 60, 80
1, 108057, Note_off_c, 0, 57, 63
1, 108075, Note_off_c, 0, 48, 66
1, 108078, Note_off_c, 0, 60, 64
1, 108134, Note_on_c, 0, 62, 94
1, 108148, Note_on_c, 0, 50, 79
1, 108212, Note_on_c, 0, 54, 72
1, 108221, Note_on_c, 0, 66, 91
1, 108243, Note_off_c, 0, 50, 60
1, 108253, Note_off_c, 0, 62, 57
1, 108274, Note_on_c, 0, 57, 78
1, 108281, Note_on_c, 0, 69, 83
1, 108295, Note_off_c, 0, 54, 59
1, 108298, Note_off_c, 0, 66, 65
1, 108337, Note_off_c, 0, 57, 62
1, 108353, Note_on_c, 0, 60, 85
1, 108367, Note_on_c, 0, 72, 80
1, 108370, Note_off_c, 0, 69, 65
1, 108381, Note_on_c, 0, 71, 60
1, 108384, Note_off_c, 0, 60, 65
1, 108391, Note_off_c, 0, 72, 68
1, 108400, Note_off_c, 0, 71, 58
1, 108447, Note_on_c, 0, 62, 90
1, 108450, Note_on_c, 0, 74, 78
1, 108460, Note_on_c, 0, 72, 83
1, 108507, Note_off_c, 0, 72, 62
1, 108513, Note_off_c, 0, 74, 63
1, 108519, Note_on_c, 0, 66, 74
1, 108539, Note_on_c, 0, 78, 95
1, 108559, Note_off_c, 0, 62, 55
1, 108574, Note_on_c, 0, 68, 65
1, 108587, Note_on_c, 0, 69, 85
1, 108602, Note_off_c, 0, 66, 63
1, 108604, Note_on_c, 0, 81, 90
1, 108618, Note_off_c, 0, 78, 62
1, 108634, Poly_aftertouch_c, 0, 65, 0
1, 108658, Note_off_c, 0, 68, 31
1, 108704, Note_off_c, 0, 69, 63
1, 108716, Control_c, 0, 64, 95
1, 108726, Note_on_c, 0, 72, 95
1, 108727, Note_on_c, 0, 84, 93
1, 108730, Control_c, 0, 64, 63
1, 108733, Note_off_c, 0, 81, 62
1, 108745, Control_c, 0, 64, 0
1, 108758, Note_off_c, 0, 84, 64
1, 108772, Note_off_c, 0, 72, 68
1, 108775, Control_c, 0, 64, 75
1, 108790, Control_c, 0, 64, 108
1, 108805, Control_c, 0, 64, 127
1, 108806, Note_on_c, 0, 84, 84
1, 108829, Note_on_c, 0, 72, 77
1, 108878, Note_on_c, 0, 81, 89
1, 108892, Note_on_c, 0, 69, 84
1, 108892, Note_off_c, 0, 84, 63
1, 108906, Note_off_c, 0, 72, 62
1, 108948, Note_on_c, 0, 78, 86
1, 108966, Note_off_c, 0, 81, 62
1, 108975, Note_on_c, 0, 66, 68
1, 109011, Note_off_c, 0, 69, 62
1, 109015, Note_off_c, 0, 78, 65
1, 109023, Note_on_c, 0, 62, 72
1, 109029, Note_on_c, 0, 74, 78
1, 109040, Note_off_c, 0, 66, 66
1, 109054, Note_off_c, 0, 62, 64
1, 109069, Note_off_c, 0, 74, 64
1, 109105, Note_on_c, 0, 72, 82
1, 109119, Note_on_c, 0, 60, 79
1, 109179, Note_on_c, 0, 57, 81
1, 109180, Note_on_c, 0, 69, 82
1, 109180, Note_off_c, 0, 60, 60
1, 109181, Note_off_c, 0, 72, 62
1, 109257, Note_on_c, 0, 66, 83
1, 109262, Note_off_c, 0, 69, 65
1, 109264, Note_on_c, 0, 54, 66
1, 109295, Note_off_c, 0, 57, 46
1, 109301, Note_off_c, 0, 66, 68
1, 109326, Note_on_c, 0, 50, 71
1, 109330, Note_on_c, 0, 62, 83
1, 109336, Note_off_c, 0, 54, 63
1, 109351, Note_off_c, 0, 50, 66
1, 109365, Note_off_c, 0, 62, 60
1, 109407, Note_on_c, 0, 48, 87
1, 109413, Note_on_c, 0, 60, 84
1, 109464, Note_off_c, 0, 48, 54
1, 109476, Note_off_c, 0, 60, 61
1, 109479, Note_on_c, 0, 45, 85
1, 109480, Note_on_c, 0, 57, 79
1, 109538, Note_off_c, 0, 45, 65
1, 109542, Note_on_c, 0, 42, 74
1, 109551, Note_off_c, 0, 57, 63
1, 109559, Note_on_c, 0, 54, 74
1, 109626, Control_c, 0, 64, 90
1, 109627, Note_on_c, 0, 38, 89
1, 109628, Note_off_c, 0, 42, 51
1, 109639, Note_on_c, 0, 50, 88
1, 109640, Control_c, 0, 64, 0
1, 109647, Note_off_c, 0, 54, 52
1, 109665, Note_off_c, 0, 38, 64
1, 109668, Note_off_c, 0, 50, 67
1, 109699, Control_c, 0, 64, 74
1, 109714, Control_c, 0, 64, 103
1, 109719, Note_on_c, 0, 50, 81
1, 109726, Note_on_c, 0, 40, 68
1, 109728, Note_on_c, 0, 38, 74
1, 109729, Control_c, 0, 64, 127
1, 109801, Note_on_c, 0, 42, 75
1, 109801, Note_off_c, 0, 38, 61
1, 109802, Note_off_c, 0, 40, 64
1, 109815, Note_on_c, 0, 55, 70
1, 109815, Note_off_c, 0, 50, 44
1, 109821, Note_on_c, 0, 54, 37
1, 109843, Note_on_c, 0, 58, 55
1, 109874, Note_off_c, 0, 55, 64
1, 109881, Note_off_c, 0, 54, 46
1, 109884, Note_on_c, 0, 45, 69
1, 109890, Note_off_c, 0, 42, 62
1, 109907, Control_c, 0, 64, 108
1, 109920, Note_off_c, 0, 58, 64
1, 109923, Control_c, 0, 64, 69
1, 109925, Note_on_c, 0, 57, 54
1, 109938, Control_c, 0, 64, 0
1, 109962, Note_on_c, 0, 48, 90
1, 109975, Control_c, 0, 64, 24
1, 109976, Note_off_c, 0, 45, 64
1, 109977, Note_off_c, 0, 57, 41
1, 109984, Note_on_c, 0, 60, 76
1, 109989, Control_c, 0, 64, 81
1, 109996, Note_off_c, 0, 48, 67
1, 110004, Control_c, 0, 64, 127
1, 110012, Note_off_c, 0, 60, 62
1, 110054, Note_on_c, 0, 48, 81
1, 110054, Note_on_c, 0, 60, 76
1, 110138, Note_on_c, 0, 57, 80
1, 110140, Note_on_c, 0, 45, 83
1, 110152, Note_off_c, 0, 60, 56
1, 110154, Note_off_c, 0, 48, 60
1, 110212, Note_on_c, 0, 42, 79
1, 110220, Note_on_c, 0, 54, 81
1, 110220, Note_off_c, 0, 45, 63
1, 110233, Note_off_c, 0, 57, 61
1, 110345, Control_c, 0, 64, 104
1, 110360, Control_c, 0, 64, 70
1, 110375, Control_c, 0, 64, 0
1, 110376, Note_off_c, 0, 54, 61
1, 110381, Note_off_c, 0, 42, 56
1, 110390, Note_on_c, 0, 38, 87
1, 110391, Note_on_c, 0, 50, 83
1, 110429, Note_off_c, 0, 38, 65
1, 110449, Control_c, 0, 64, 65
1, 110451, Note_off_c, 0, 50, 64
1, 110463, Control_c, 0, 64, 79
1, 110478, Control_c, 0, 64, 100
1, 110493, Control_c, 0, 64, 127
1, 110665, Note_on_c, 0, 50, 54
1, 110760, Note_on_c, 0, 54, 41
1, 110769, Note_off_c, 0, 50, 57
1, 110786, Note_off_c, 0, 54, 57
1, 110813, Control_c, 0, 67, 16
1, 110828, Control_c, 0, 67, 30
1, 110843, Control_c, 0, 67, 47
1, 110858, Control_c, 0, 67, 69
1, 110873, Control_c, 0, 67, 94
1, 110887, Control_c, 0, 67, 119
1, 110902, Control_c, 0, 67, 127
1, 110985, Note_on_c, 0, 50, 54
1, 111059, Note_on_c, 0, 57, 56
1, 111081, Note_off_c, 0, 57, 58
1, 111096, Note_off_c, 0, 50, 56
1, 111288, Note_on_c, 0, 50, 52
1, 111357, Note_on_c, 0, 60, 64
1, 111386, Note_off_c, 0, 60, 64
1, 111421, Note_off_c, 0, 50, 57
1, 111598, Note_on_c, 0, 50, 48
1, 111676, Note_on_c, 0, 66, 67
1, 111702, Note_off_c, 0, 66, 68
1, 111735, Note_off_c, 0, 50, 54
1, 111919, Note_on_c, 0, 50, 45
1, 111996, Note_on_c, 0, 69, 69
1, 112021, Note_off_c, 0, 69, 71
1, 112079, Note_off_c, 0, 50, 37
1, 112233, Note_on_c, 0, 50, 46
1, 112305, Note_on_c, 0, 72, 67
1, 112324, Note_off_c, 0, 72, 67
1, 112392, Note_off_c, 0, 50, 40
1, 112519, Note_on_c, 0, 50, 53
1, 112621, Note_on_c, 0, 78, 70
1, 112644, Note_off_c, 0, 78, 69
1, 112657, Note_off_c, 0, 50, 53
1, 112843, Control_c, 0, 67, 123
1, 112858, Control_c, 0, 67, 113
1, 112873, Control_c, 0, 67, 104
1, 112884, Note_on_c, 0, 50, 51
1, 112888, Control_c, 0, 67, 97
1, 112902, Control_c, 0, 67, 89
1, 112917, Control_c, 0, 67, 82
1, 112932, Control_c, 0, 64, 88
1, 112932, Control_c, 0, 67, 76
1, 112954, Control_c, 0, 64, 0
1, 112954, Control_c, 0, 67, 74
1, 112969, Control_c, 0, 67, 71
1, 112973, Note_on_c, 0, 38, 77
1, 112984, Control_c, 0, 67, 63
1, 112999, Control_c, 0, 64, 68
1, 112999, Control_c, 0, 67, 51
1, 113008, Note_off_c, 0, 38, 65
1, 113014, Control_c, 0, 64, 95
1, 113014, Control_c, 0, 67, 37
1, 113028, Control_c, 0, 64, 127
1, 113028, Control_c, 0, 67, 34
1, 113030, Note_off_c, 0, 50, 57
1, 113043, Control_c, 0, 67, 39
1, 113058, Control_c, 0, 67, 40
1, 113133, Control_c, 0, 67, 41
1, 113148, Control_c, 0, 67, 42
1, 113163, Control_c, 0, 67, 44
1, 113178, Control_c, 0, 67, 44
1, 113184, Note_on_c, 0, 50, 51
1, 113207, Control_c, 0, 67, 44
1, 113222, Control_c, 0, 67, 44
1, 113237, Control_c, 0, 67, 46
1, 113252, Control_c, 0, 67, 58
1, 113267, Control_c, 0, 67, 80
1, 113280, Note_on_c, 0, 54, 52
1, 113281, Control_c, 0, 67, 107
1, 113285, Note_on_c, 0, 57, 42
1, 113296, Control_c, 0, 67, 127
1, 113303, Note_off_c, 0, 54, 57
1, 113313, Note_off_c, 0, 57, 54
1, 113324, Note_off_c, 0, 50, 56
1, 113526, Note_on_c, 0, 50, 52
1, 113598, Note_on_c, 0, 60, 57
1, 113606, Note_on_c, 0, 57, 55
1, 113619, Note_off_c, 0, 60, 59
1, 113631, Note_off_c, 0, 57, 55
1, 113660, Note_off_c, 0, 50, 56
1, 113843, Note_on_c, 0, 50, 46
1, 113914, Note_on_c, 0, 66, 52
1, 113936, Note_off_c, 0, 66, 62
1, 113939, Note_on_c, 0, 60, 25
1, 113968, Note_off_c, 0, 60, 47
1, 113981, Note_off_c, 0, 50, 56
1, 114155, Note_on_c, 0, 50, 43
1, 114236, Note_on_c, 0, 66, 52
1, 114238, Note_on_c, 0, 69, 55
1, 114259, Note_off_c, 0, 66, 61
1, 114260, Note_off_c, 0, 69, 66
1, 114323, Note_off_c, 0, 50, 37
1, 114500, Note_on_c, 0, 50, 38
1, 114569, Note_on_c, 0, 72, 55
1, 114578, Note_on_c, 0, 69, 49
1, 114588, Note_off_c, 0, 72, 61
1, 114600, Note_off_c, 0, 69, 56
1, 114634, Note_off_c, 0, 50, 45
1, 114822, Note_on_c, 0, 50, 45
1, 114866, Note_on_c, 0, 78, 68
1, 114887, Note_on_c, 0, 72, 40
1, 114892, Note_off_c, 0, 78, 68
1, 114912, Note_off_c, 0, 72, 56
1, 114922, Note_off_c, 0, 50, 60
1, 115112, Note_on_c, 0, 50, 41
1, 115186, Note_on_c, 0, 78, 70
1, 115187, Note_on_c, 0, 81, 67
1, 115217, Note_off_c, 0, 78, 69
1, 115221, Note_off_c, 0, 81, 67
1, 115274, Note_off_c, 0, 50, 36
1, 115473, Note_on_c, 0, 50, 50
1, 115512, Control_c, 0, 64, 107
1, 115527, Control_c, 0, 64, 76
1, 115542, Control_c, 0, 64, 0
1, 115554, Note_on_c, 0, 38, 79
1, 115578, Note_off_c, 0, 38, 66
1, 115587, Control_c, 0, 64, 65
1, 115592, Note_off_c, 0, 50, 58
1, 115601, Control_c, 0, 64, 82
1, 115616, Control_c, 0, 64, 110
1, 115631, Control_c, 0, 64, 127
1, 115788, Note_on_c, 0, 50, 43
1, 115869, Note_on_c, 0, 60, 50
1, 115892, Note_off_c, 0, 60, 55
1, 115897, Note_on_c, 0, 57, 25
1, 115933, Note_off_c, 0, 57, 44
1, 115953, Note_off_c, 0, 50, 40
1, 116104, Note_on_c, 0, 50, 44
1, 116182, Note_on_c, 0, 66, 50
1, 116200, Note_on_c, 0, 60, 32
1, 116204, Note_off_c, 0, 66, 59
1, 116229, Note_off_c, 0, 60, 48
1, 116230, Note_off_c, 0, 50, 59
1, 116419, Note_on_c, 0, 50, 39
1, 116493, Note_on_c, 0, 66, 55
1, 116496, Note_on_c, 0, 69, 48
1, 116514, Note_off_c, 0, 66, 64
1, 116518, Note_off_c, 0, 69, 64
1, 116548, Note_off_c, 0, 50, 52
1, 116713, Note_on_c, 0, 50, 46
1, 116810, Note_on_c, 0, 72, 55
1, 116815, Note_on_c, 0, 69, 52
1, 116829, Note_off_c, 0, 72, 60
1, 116835, Note_off_c, 0, 69, 58
1, 116848, Note_off_c, 0, 50, 60
1, 117032, Note_on_c, 0, 50, 40
1, 117118, Note_on_c, 0, 78, 61
1, 117130, Note_on_c, 0, 72, 50
1, 117140, Note_off_c, 0, 78, 64
1, 117151, Note_off_c, 0, 72, 59
1, 117167, Note_off_c, 0, 50, 49
1, 117355, Note_on_c, 0, 50, 37
1, 117456, Note_on_c, 0, 81, 58
1, 117461, Note_on_c, 0, 78, 50
1, 117477, Note_off_c, 0, 81, 62
1, 117484, Note_off_c, 0, 78, 52
1, 117488, Note_off_c, 0, 50, 50
1, 117680, Note_on_c, 0, 50, 43
1, 117758, Note_on_c, 0, 84, 58
1, 117765, Note_off_c, 0, 50, 54
1, 117766, Note_on_c, 0, 81, 51
1, 117776, Note_off_c, 0, 84, 65
1, 117786, Note_off_c, 0, 81, 59
1, 118012, Note_on_c, 0, 50, 45
1, 118056, Note_on_c, 0, 87, 61
1, 118073, Note_on_c, 0, 84, 47
1, 118082, Note_off_c, 0, 87, 64
1, 118086, Control_c, 0, 64, 116
1, 118092, Note_off_c, 0, 50, 62
1, 118097, Note_off_c, 0, 84, 57
1, 118101, Control_c, 0, 64, 99
1, 118115, Control_c, 0, 64, 84
1, 118130, Control_c, 0, 64, 66
1, 118145, Control_c, 0, 64, 0
1, 118657, Note_on_c, 0, 60, 41
1, 118662, Note_on_c, 0, 54, 40
1, 118666, Note_on_c, 0, 57, 38
1, 118672, Note_on_c, 0, 50, 38
1, 118720, Note_on_c, 0, 38, 67
1, 118745, Note_off_c, 0, 38, 62
1, 118795, Note_off_c, 0, 57, 55
1, 118821, Note_off_c, 0, 50, 51
1, 118832, Note_off_c, 0, 54, 40
1, 118861, Note_off_c, 0, 60, 29
1, 119360, Note_on_c, 0, 50, 49
1, 119414, Note_on_c, 0, 87, 73
1, 119423, Note_on_c, 0, 84, 64
1, 119437, Note_off_c, 0, 87, 69
1, 119443, Note_off_c, 0, 84, 67
1, 119497, Note_off_c, 0, 50, 56
1, 120042, Note_on_c, 0, 54, 42
1, 120043, Note_on_c, 0, 57, 42
1, 120045, Note_on_c, 0, 60, 47
1, 120052, Note_on_c, 0, 50, 44
1, 120092, Note_on_c, 0, 38, 69
1, 120121, Note_off_c, 0, 38, 63
1, 120186, Note_off_c, 0, 57, 55
1, 120191, Note_off_c, 0, 50, 51
1, 120219, Note_off_c, 0, 54, 41
1, 120277, Note_off_c, 0, 60, 31
1, 120726, Note_on_c, 0, 50, 46
1, 120778, Note_on_c, 0, 87, 64
1, 120782, Note_on_c, 0, 84, 61
1, 120803, Note_off_c, 0, 84, 67
1, 120804, Note_off_c, 0, 87, 67
1, 120867, Note_off_c, 0, 50, 50
1, 121392, Note_on_c, 0, 60, 45
1, 121393, Note_on_c, 0, 57, 37
1, 121396, Note_on_c, 0, 50, 35
1, 121398, Note_on_c, 0, 54, 36
1, 121455, Note_on_c, 0, 38, 69
1, 121485, Note_off_c, 0, 38, 63
1, 121601, Note_off_c, 0, 57, 48
1, 121606, Note_off_c, 0, 60, 52
1, 121627, Note_off_c, 0, 54, 40
1, 121643, Note_off_c, 0, 50, 41
1, 122108, Note_on_c, 0, 57, 38
1, 122109, Note_on_c, 0, 54, 37
1, 122111, Note_on_c, 0, 60, 47
1, 122112, Note_on_c, 0, 50, 40
1, 122155, Note_on_c, 0, 38, 50
1, 122186, Note_off_c, 0, 38, 48
1, 122295, Note_off_c, 0, 57, 59
1, 122297, Note_off_c, 0, 60, 54
1, 122308, Note_off_c, 0, 54, 49
1, 122313, Note_off_c, 0, 50, 47
1, 123347, Note_on_c, 0, 60, 41
1, 123348, Note_on_c, 0, 50, 41
1, 123349, Note_on_c, 0, 57, 37
1, 123353, Note_on_c, 0, 54, 33
1, 123407, Note_on_c, 0, 51, 63
1, 123440, Note_off_c, 0, 51, 65
1, 123663, Note_off_c, 0, 57, 55
1, 123668, Note_off_c, 0, 60, 52
1, 123680, Note_off_c, 0, 54, 46
1, 123687, Note_off_c, 0, 50, 41
1, 124686, Note_on_c, 0, 60, 42
1, 124697, Note_on_c, 0, 57, 37
1, 124702, Note_on_c, 0, 54, 36
1, 124707, Note_on_c, 0, 50, 29
1, 124750, Note_on_c, 0, 38, 58
1, 124777, Note_off_c, 0, 38, 58
1, 125061, Note_off_c, 0, 50, 56
1, 125099, Note_off_c, 0, 60, 60
1, 125103, Note_off_c, 0, 54, 53
1, 125105, Note_off_c, 0, 57, 57
1, 125203, Control_c, 0, 67, 123
1, 125218, Control_c, 0, 67, 106
1, 125232, Control_c, 0, 67, 90
1, 125247, Control_c, 0, 67, 74
1, 125262, Control_c, 0, 67, 58
1, 125277, Control_c, 0, 67, 39
1, 125292, Control_c, 0, 67, 19
1, 125306, Control_c, 0, 67, 0
1, 125993, Note_on_c, 0, 79, 91
1, 126054, Control_c, 0, 64, 62
1, 126069, Control_c, 0, 64, 69
1, 126077, Note_on_c, 0, 31, 89
1, 126084, Control_c, 0, 64, 81
1, 126099, Control_c, 0, 64, 107
1, 126112, Note_off_c, 0, 31, 66
1, 126114, Control_c, 0, 64, 127
1, 126560, Note_on_c, 0, 78, 75
1, 126587, Note_off_c, 0, 79, 55
1, 126635, Note_off_c, 0, 78, 65
1, 126636, Note_on_c, 0, 76, 69
1, 126689, Note_off_c, 0, 76, 66
1, 126700, Note_on_c, 0, 74, 78
1, 126773, Note_on_c, 0, 75, 79
1, 126774, Control_c, 0, 64, 116
1, 126777, Note_off_c, 0, 74, 64
1, 126789, Control_c, 0, 64, 103
1, 126804, Control_c, 0, 64, 90
1, 126819, Control_c, 0, 64, 75
1, 126833, Control_c, 0, 64, 35
1, 126848, Control_c, 0, 64, 0
1, 126849, Note_on_c, 0, 76, 77
1, 126852, Note_off_c, 0, 75, 64
1, 126913, Note_off_c, 0, 76, 66
1, 126914, Note_on_c, 0, 71, 83
1, 126987, Note_on_c, 0, 74, 82
1, 126987, Note_off_c, 0, 71, 63
1, 127063, Note_on_c, 0, 72, 83
1, 127117, Note_off_c, 0, 74, 62
1, 127135, Note_on_c, 0, 71, 73
1, 127188, Note_off_c, 0, 72, 62
1, 127213, Note_on_c, 0, 69, 80
1, 127220, Note_off_c, 0, 71, 63
1, 127291, Note_on_c, 0, 67, 78
1, 127301, Note_off_c, 0, 69, 63
1, 127345, Control_c, 0, 67, 12
1, 127359, Control_c, 0, 67, 22
1, 127374, Control_c, 0, 67, 34
1, 127389, Control_c, 0, 67, 46
1, 127403, Control_c, 0, 67, 58
1, 127418, Control_c, 0, 67, 71
1, 127433, Control_c, 0, 67, 83
1, 127448, Control_c, 0, 67, 96
1, 127463, Control_c, 0, 67, 108
1, 127477, Control_c, 0, 67, 120
1, 127492, Control_c, 0, 67, 127
1, 127551, Note_off_c, 0, 67, 62
1, 127853, Note_on_c, 0, 67, 45
1, 127860, Note_on_c, 0, 62, 44
1, 127863, Note_on_c, 0, 59, 48
1, 127932, Note_on_c, 0, 55, 51
1, 127934, Note_on_c, 0, 43, 49
1, 127953, Note_off_c, 0, 59, 56
1, 127955, Note_off_c, 0, 62, 57
1, 127956, Note_off_c, 0, 55, 63
1, 127963, Note_off_c, 0, 43, 55
1, 127969, Note_off_c, 0, 67, 54
1, 128184, Note_on_c, 0, 71, 52
1, 128191, Note_on_c, 0, 59, 38
1, 128200, Note_on_c, 0, 62, 37
1, 128254, Note_on_c, 0, 43, 52
1, 128255, Note_on_c, 0, 55, 49
1, 128270, Note_off_c, 0, 71, 58
1, 128272, Note_off_c, 0, 62, 52
1, 128284, Note_off_c, 0, 55, 65
1, 128285, Note_off_c, 0, 43, 61
1, 128292, Note_off_c, 0, 59, 42
1, 128506, Note_on_c, 0, 67, 45
1, 128514, Note_on_c, 0, 62, 45
1, 128519, Note_on_c, 0, 59, 37
1, 128593, Note_on_c, 0, 55, 51
1, 128595, Note_on_c, 0, 43, 52
1, 128616, Note_off_c, 0, 55, 63
1, 128623, Note_off_c, 0, 43, 54
1, 128658, Note_off_c, 0, 62, 58
1, 128674, Note_off_c, 0, 67, 59
1, 128692, Note_off_c, 0, 59, 46
1, 129197, Note_on_c, 0, 67, 54
1, 129199, Note_on_c, 0, 59, 47
1, 129203, Note_on_c, 0, 62, 48
1, 129260, Note_off_c, 0, 59, 60
1, 129262, Note_off_c, 0, 62, 60
1, 129266, Note_on_c, 0, 43, 64
1, 129268, Note_on_c, 0, 55, 62
1, 129294, Note_off_c, 0, 55, 67
1, 129294, Note_off_c, 0, 67, 61
1, 129300, Note_off_c, 0, 43, 62
1, 129524, Note_on_c, 0, 67, 56
1, 129526, Note_on_c, 0, 62, 54
1, 129527, Note_on_c, 0, 74, 54
1, 129546, Note_on_c, 0, 71, 45
1, 129586, Note_off_c, 0, 74, 63
1, 129590, Note_on_c, 0, 55, 64
1, 129590, Note_off_c, 0, 71, 60
1, 129591, Note_on_c, 0, 43, 62
1, 129591, Note_off_c, 0, 67, 61
1, 129608, Note_off_c, 0, 62, 60
1, 129617, Note_off_c, 0, 55, 67
1, 129621, Note_off_c, 0, 43, 63
1, 129832, Note_on_c, 0, 67, 55
1, 129842, Note_on_c, 0, 59, 45
1, 129844, Note_on_c, 0, 62, 51
1, 129916, Note_on_c, 0, 55, 62
1, 129917, Note_on_c, 0, 43, 62
1, 129945, Note_off_c, 0, 55, 67
1, 129946, Note_off_c, 0, 43, 62
1, 129974, Note_off_c, 0, 62, 59
1, 129975, Note_off_c, 0, 59, 58
1, 129987, Note_off_c, 0, 67, 59
1, 130544, Note_on_c, 0, 62, 87
1, 130545, Note_on_c, 0, 59, 88
1, 130547, Note_on_c, 0, 71, 84
1, 130547, Control_c, 0, 67, 109
1, 130552, Note_on_c, 0, 67, 81
1, 130562, Control_c, 0, 67, 58
1, 130577, Control_c, 0, 67, 0
1, 130589, Note_off_c, 0, 59, 65
1, 130592, Control_c, 0, 64, 66
1, 130602, Note_off_c, 0, 62, 63
1, 130607, Control_c, 0, 64, 79
1, 130619, Note_off_c, 0, 67, 62
1, 130621, Control_c, 0, 64, 100
1, 130624, Note_on_c, 0, 55, 95
1, 130626, Note_on_c, 0, 43, 91
1, 130636, Control_c, 0, 64, 127
1, 130640, Note_off_c, 0, 71, 63
1, 130663, Note_off_c, 0, 55, 63
1, 130667, Note_off_c, 0, 43, 64
1, 130849, Note_on_c, 0, 67, 98
1, 130851, Note_on_c, 0, 79, 90
1, 130853, Note_on_c, 0, 71, 82
1, 130859, Note_on_c, 0, 76, 86
1, 130859, Control_c, 0, 64, 99
1, 130874, Control_c, 0, 64, 64
1, 130889, Control_c, 0, 64, 0
1, 130930, Note_off_c, 0, 67, 59
1, 130932, Note_off_c, 0, 79, 64
1, 130936, Note_on_c, 0, 52, 97
1, 130939, Note_on_c, 0, 40, 93
1, 130941, Control_c, 0, 64, 66
1, 130944, Note_off_c, 0, 71, 62
1, 130950, Note_off_c, 0, 76, 64
1, 130956, Control_c, 0, 64, 89
1, 130971, Control_c, 0, 64, 127
1, 130974, Note_off_c, 0, 52, 65
1, 130974, Note_off_c, 0, 40, 66
1, 131170, Note_on_c, 0, 66, 95
1, 131172, Note_on_c, 0, 78, 93
1, 131174, Note_on_c, 0, 69, 85
1, 131180, Note_on_c, 0, 74, 74
1, 131223, Control_c, 0, 64, 108
1, 131238, Control_c, 0, 64, 88
1, 131242, Note_on_c, 0, 57, 98
1, 131244, Note_on_c, 0, 45, 90
1, 131253, Control_c, 0, 64, 69
1, 131268, Control_c, 0, 64, 0
1, 131272, Note_off_c, 0, 66, 66
1, 131281, Note_off_c, 0, 57, 65
1, 131283, Note_off_c, 0, 45, 66
1, 131295, Note_off_c, 0, 78, 64
1, 131299, Note_off_c, 0, 69, 64
1, 131307, Note_off_c, 0, 74, 61
1, 131967, Note_on_c, 0, 66, 63
1, 131970, Note_on_c, 0, 57, 57
1, 131971, Note_on_c, 0, 69, 61
1, 131971, Note_on_c, 0, 74, 61
1, 131978, Note_on_c, 0, 45, 59
1, 131995, Note_off_c, 0, 57, 63
1, 131998, Note_off_c, 0, 74, 68
1, 132000, Note_off_c, 0, 66, 67
1, 132001, Note_off_c, 0, 69, 69
1, 132008, Note_off_c, 0, 45, 65
1, 132306, Note_on_c, 0, 73, 65
1, 132311, Note_on_c, 0, 64, 59
1, 132321, Note_on_c, 0, 33, 53
1, 132321, Note_on_c, 0, 45, 54
1, 132328, Note_on_c, 0, 67, 45
1, 132343, Note_on_c, 0, 69, 25
1, 132346, Note_off_c, 0, 45, 59
1, 132350, Note_off_c, 0, 33, 59
1, 132350, Note_off_c, 0, 64, 64
1, 132354, Note_off_c, 0, 67, 58
1, 132365, Note_off_c, 0, 73, 62
1, 132372, Note_off_c, 0, 69, 44
1, 132643, Note_on_c, 0, 74, 59
1, 132646, Note_on_c, 0, 69, 52
1, 132647, Note_on_c, 0, 66, 49
1, 132651, Note_on_c, 0, 62, 49
1, 132658, Note_on_c, 0, 38, 53
1, 132659, Note_on_c, 0, 50, 51
1, 132683, Note_off_c, 0, 50, 55
1, 132683, Note_off_c, 0, 62, 56
1, 132688, Note_off_c, 0, 38, 51
1, 132689, Note_off_c, 0, 66, 66
1, 132690, Note_off_c, 0, 69, 65
1, 132697, Note_off_c, 0, 74, 61
1, 133266, Note_on_c, 0, 76, 87
1, 133269, Note_on_c, 0, 64, 87
1, 133271, Note_on_c, 0, 69, 84
1, 133278, Note_on_c, 0, 72, 76
1, 133323, Control_c, 0, 64, 56
1, 133326, Note_off_c, 0, 64, 65
1, 133338, Control_c, 0, 64, 82
1, 133343, Note_on_c, 0, 48, 95
1, 133344, Note_off_c, 0, 69, 67
1, 133344, Note_on_c, 0, 60, 93
1, 133353, Control_c, 0, 64, 117
1, 133360, Note_off_c, 0, 72, 63
1, 133368, Control_c, 0, 64, 127
1, 133380, Note_off_c, 0, 60, 62
1, 133380, Note_off_c, 0, 76, 68
1, 133384, Note_off_c, 0, 48, 67
1, 133574, Control_c, 0, 64, 118
1, 133585, Note_on_c, 0, 72, 97
1, 133586, Note_on_c, 0, 76, 90
1, 133588, Note_on_c, 0, 84, 94
1, 133588, Note_on_c, 0, 81, 87
1, 133589, Control_c, 0, 64, 88
1, 133604, Control_c, 0, 64, 58
1, 133619, Control_c, 0, 64, 0
1, 133654, Note_on_c, 0, 57, 97
1, 133657, Note_on_c, 0, 45, 89
1, 133671, Note_off_c, 0, 84, 61
1, 133678, Control_c, 0, 64, 71
1, 133679, Note_off_c, 0, 76, 66
1, 133686, Note_off_c, 0, 57, 66
1, 133687, Note_off_c, 0, 45, 69
1, 133690, Note_off_c, 0, 72, 60
1, 133693, Control_c, 0, 64, 95
1, 133698, Note_off_c, 0, 81, 57
1, 133708, Control_c, 0, 64, 127
1, 133911, Note_on_c, 0, 83, 88
1, 133913, Note_on_c, 0, 71, 97
1, 133923, Note_on_c, 0, 74, 84
1, 133927, Note_on_c, 0, 79, 85
1, 133976, Note_on_c, 0, 62, 97
1, 133980, Note_on_c, 0, 50, 88
1, 133982, Control_c, 0, 64, 127
1, 133996, Control_c, 0, 64, 97
1, 134011, Control_c, 0, 64, 76
1, 134013, Note_off_c, 0, 62, 65
1, 134014, Note_off_c, 0, 50, 66
1, 134024, Note_off_c, 0, 71, 60
1, 134026, Control_c, 0, 64, 0
1, 134044, Note_off_c, 0, 83, 60
1, 134048, Note_off_c, 0, 74, 66
1, 134066, Note_off_c, 0, 79, 61
1, 134650, Note_on_c, 0, 79, 54
1, 134652, Note_on_c, 0, 62, 59
1, 134652, Note_on_c, 0, 71, 52
1, 134656, Note_on_c, 0, 74, 50
1, 134659, Note_on_c, 0, 50, 55
1, 134679, Note_off_c, 0, 62, 60
1, 134691, Note_off_c, 0, 50, 63
1, 134698, Note_off_c, 0, 74, 66
1, 134703, Note_off_c, 0, 79, 56
1, 134703, Note_off_c, 0, 71, 58
1, 134983, Note_on_c, 0, 69, 55
1, 134987, Note_on_c, 0, 50, 57
1, 134989, Note_on_c, 0, 38, 54
1, 134989, Note_on_c, 0, 78, 58
1, 134992, Note_on_c, 0, 74, 51
1, 135010, Note_off_c, 0, 50, 61
1, 135017, Note_off_c, 0, 38, 56
1, 135018, Note_off_c, 0, 69, 68
1, 135022, Note_off_c, 0, 74, 63
1, 135031, Note_off_c, 0, 78, 57
1, 135326, Note_on_c, 0, 79, 60
1, 135329, Note_on_c, 0, 55, 60
1, 135329, Note_on_c, 0, 71, 53
1, 135332, Note_on_c, 0, 74, 54
1, 135334, Note_on_c, 0, 43, 50
1, 135353, Note_off_c, 0, 55, 65
1, 135362, Note_off_c, 0, 79, 60
1, 135363, Note_off_c, 0, 74, 67
1, 135367, Note_off_c, 0, 43, 51
1, 135367, Note_off_c, 0, 71, 63
1, 135932, Note_on_c, 0, 64, 94
1, 135932, Note_on_c, 0, 76, 91
1, 135935, Note_on_c, 0, 69, 85
1, 135943, Note_on_c, 0, 72, 81
1, 135976, Note_off_c, 0, 64, 68
1, 135990, Note_off_c, 0, 69, 67
1, 135997, Control_c, 0, 64, 63
1, 136002, Note_off_c, 0, 72, 65
1, 136012, Control_c, 0, 64, 88
1, 136015, Note_on_c, 0, 60, 96
1, 136019, Note_on_c, 0, 48, 95
1, 136027, Note_off_c, 0, 76, 68
1, 136027, Control_c, 0, 64, 127
1, 136055, Note_off_c, 0, 60, 64
1, 136059, Note_off_c, 0, 48, 67
1, 136245, Note_on_c, 0, 84, 95
1, 136246, Note_on_c, 0, 72, 98
1, 136249, Note_on_c, 0, 76, 87
1, 136252, Note_on_c, 0, 81, 87
1, 136256, Control_c, 0, 64, 104
1, 136271, Control_c, 0, 64, 74
1, 136286, Control_c, 0, 64, 0
1, 136328, Note_on_c, 0, 57, 95
1, 136330, Note_on_c, 0, 45, 90
1, 136346, Control_c, 0, 64, 65
1, 136351, Note_off_c, 0, 76, 62
1, 136360, Control_c, 0, 64, 87
1, 136361, Note_off_c, 0, 57, 66
1, 136361, Note_off_c, 0, 72, 55
1, 136363, Note_off_c, 0, 84, 60
1, 136365, Note_off_c, 0, 45, 68
1, 136375, Control_c, 0, 64, 127
1, 136390, Note_off_c, 0, 81, 55
1, 136576, Note_on_c, 0, 83, 95
1, 136581, Note_on_c, 0, 71, 90
1, 136583, Note_on_c, 0, 78, 87
1, 136584, Note_on_c, 0, 75, 90
1, 136627, Control_c, 0, 64, 103
1, 136642, Control_c, 0, 64, 82
1, 136657, Control_c, 0, 64, 51
1, 136659, Note_on_c, 0, 59, 94
1, 136660, Note_on_c, 0, 47, 90
1, 136671, Control_c, 0, 64, 0
1, 136682, Note_off_c, 0, 71, 63
1, 136694, Note_off_c, 0, 47, 67
1, 136694, Note_off_c, 0, 59, 68
1, 136711, Note_off_c, 0, 75, 65
1, 136718, Note_off_c, 0, 78, 67
1, 136732, Note_off_c, 0, 83, 61
1, 137302, Note_on_c, 0, 76, 58
1, 137303, Note_on_c, 0, 81, 59
1, 137310, Note_on_c, 0, 72, 48
1, 137331, Note_off_c, 0, 72, 59
1, 137336, Note_off_c, 0, 76, 63
1, 137338, Note_off_c, 0, 81, 60
1, 137632, Note_on_c, 0, 82, 60
1, 137634, Note_on_c, 0, 76, 60
1, 137643, Note_on_c, 0, 72, 62
1, 137679, Note_off_c, 0, 72, 66
1, 137685, Note_off_c, 0, 76, 59
1, 137693, Note_off_c, 0, 82, 60
1, 137978, Note_on_c, 0, 83, 62
1, 137981, Note_on_c, 0, 75, 63
1, 137994, Note_on_c, 0, 71, 48
1, 138014, Note_off_c, 0, 75, 65
1, 138016, Note_off_c, 0, 71, 53
1, 138018, Note_off_c, 0, 83, 59
1, 138644, Note_on_c, 0, 76, 60
1, 138650, Note_on_c, 0, 69, 56
1, 138653, Note_on_c, 0, 60, 55
1, 138674, Note_off_c, 0, 60, 62
1, 138686, Note_off_c, 0, 69, 67
1, 138690, Note_off_c, 0, 76, 62
1, 138984, Note_on_c, 0, 70, 57
1, 138984, Note_on_c, 0, 76, 53
1, 138987, Note_on_c, 0, 60, 54
1, 139008, Note_off_c, 0, 60, 62
1, 139019, Note_off_c, 0, 70, 64
1, 139051, Note_off_c, 0, 76, 52
1, 139326, Note_on_c, 0, 71, 54
1, 139328, Note_on_c, 0, 75, 57
1, 139330, Note_on_c, 0, 59, 56
1, 139351, Note_off_c, 0, 59, 62
1, 139361, Note_off_c, 0, 71, 63
1, 139362, Note_off_c, 0, 75, 66
1, 139987, Note_on_c, 0, 69, 62
1, 140000, Note_on_c, 0, 64, 49
1, 140001, Note_on_c, 0, 57, 45
1, 140005, Note_on_c, 0, 36, 48
1, 140007, Note_on_c, 0, 48, 44
1, 140030, Note_off_c, 0, 57, 55
1, 140031, Note_off_c, 0, 64, 58
1, 140033, Note_off_c, 0, 69, 57
1, 140033, Note_off_c, 0, 36, 59
1, 140036, Note_off_c, 0, 48, 52
1, 140318, Note_on_c, 0, 48, 47
1, 140318, Note_on_c, 0, 70, 62
1, 140328, Note_on_c, 0, 58, 53
1, 140329, Note_on_c, 0, 64, 51
1, 140332, Note_on_c, 0, 36, 54
1, 140352, Note_off_c, 0, 48, 66
1, 140355, Note_off_c, 0, 58, 63
1, 140359, Note_off_c, 0, 64, 64
1, 140364, Note_off_c, 0, 36, 64
1, 140380, Note_off_c, 0, 70, 54
1, 140632, Note_on_c, 0, 71, 51
1, 140656, Note_on_c, 0, 35, 54
1, 140657, Note_on_c, 0, 47, 42
1, 140662, Control_c, 0, 64, 62
1, 140677, Control_c, 0, 64, 71
1, 140689, Note_off_c, 0, 35, 65
1, 140690, Note_off_c, 0, 47, 58
1, 140691, Control_c, 0, 64, 81
1, 140705, Control_c, 0, 64, 94
1, 140717, Note_off_c, 0, 71, 60
1, 140720, Control_c, 0, 64, 106
1, 140725, Poly_aftertouch_c, 0, 63, 0
1, 140735, Control_c, 0, 64, 118
1, 140750, Control_c, 0, 64, 127
1, 140837, Note_on_c, 0, 70, 50
1, 140896, Note_off_c, 0, 70, 62
1, 140916, Note_on_c, 0, 71, 58
1, 140980, Note_off_c, 0, 71, 57
1, 140998, Note_on_c, 0, 70, 68
1, 141017, Control_c, 0, 64, 117
1, 141031, Control_c, 0, 64, 105
1, 141046, Control_c, 0, 64, 95
1, 141050, Note_off_c, 0, 70, 60
1, 141061, Note_on_c, 0, 71, 64
1, 141061, Control_c, 0, 64, 84
1, 141076, Control_c, 0, 64, 71
1, 141091, Control_c, 0, 64, 0
1, 141137, Note_off_c, 0, 71, 62
1, 141140, Note_on_c, 0, 70, 70
1, 141201, Note_off_c, 0, 70, 62
1, 141201, Note_on_c, 0, 71, 68
1, 141285, Note_off_c, 0, 71, 62
1, 141291, Note_on_c, 0, 70, 74
1, 141349, Note_off_c, 0, 70, 58
1, 141352, Note_on_c, 0, 71, 66
1, 141444, Note_off_c, 0, 71, 63
1, 141451, Note_on_c, 0, 70, 64
1, 141525, Note_off_c, 0, 70, 62
1, 141536, Note_on_c, 0, 71, 48
1, 141631, Note_on_c, 0, 70, 73
1, 141632, Note_off_c, 0, 71, 60
1, 141689, Note_off_c, 0, 70, 56
1, 141709, Note_on_c, 0, 71, 55
1, 141789, Note_off_c, 0, 71, 61
1, 141804, Note_on_c, 0, 73, 64
1, 141869, Note_on_c, 0, 71, 60
1, 141882, Note_off_c, 0, 73, 58
1, 141900, Note_off_c, 0, 71, 65
1, 141983, Note_on_c, 0, 71, 69
1, 141988, Control_c, 0, 64, 53
1, 141989, Note_on_c, 0, 52, 53
1, 142003, Control_c, 0, 64, 71
1, 142013, Note_off_c, 0, 52, 63
1, 142018, Control_c, 0, 64, 87
1, 142028, Note_off_c, 0, 71, 55
1, 142033, Control_c, 0, 64, 115
1, 142048, Control_c, 0, 64, 127
1, 142172, Note_on_c, 0, 80, 71
1, 142173, Note_on_c, 0, 64, 55
1, 142188, Note_on_c, 0, 59, 43
1, 142201, Note_on_c, 0, 68, 47
1, 142224, Note_off_c, 0, 59, 50
1, 142227, Note_off_c, 0, 68, 56
1, 142233, Control_c, 0, 64, 125
1, 142237, Note_off_c, 0, 64, 63
1, 142248, Control_c, 0, 64, 103
1, 142263, Control_c, 0, 64, 86
1, 142278, Control_c, 0, 64, 70
1, 142292, Control_c, 0, 64, 0
1, 142340, Note_on_c, 0, 68, 51
1, 142343, Note_on_c, 0, 59, 49
1, 142351, Note_on_c, 0, 64, 53
1, 142386, Note_off_c, 0, 64, 64
1, 142388, Note_off_c, 0, 59, 60
1, 142396, Note_off_c, 0, 68, 60
1, 142492, Note_on_c, 0, 78, 71
1, 142498, Note_on_c, 0, 64, 49
1, 142501, Note_on_c, 0, 59, 56
1, 142525, Note_off_c, 0, 64, 64
1, 142531, Note_off_c, 0, 59, 64
1, 142532, Note_off_c, 0, 80, 57
1, 142662, Control_c, 0, 64, 47
1, 142670, Note_on_c, 0, 52, 52
1, 142676, Note_on_c, 0, 76, 68
1, 142678, Control_c, 0, 64, 68
1, 142692, Note_off_c, 0, 78, 57
1, 142693, Control_c, 0, 64, 78
1, 142699, Note_off_c, 0, 52, 65
1, 142707, Control_c, 0, 64, 95
1, 142722, Control_c, 0, 64, 117
1, 142737, Control_c, 0, 64, 127
1, 142743, Note_off_c, 0, 76, 62
1, 142821, Note_on_c, 0, 64, 56
1, 142838, Note_on_c, 0, 80, 73
1, 142851, Note_on_c, 0, 59, 38
1, 142880, Note_off_c, 0, 59, 50
1, 142886, Control_c, 0, 64, 115
1, 142892, Note_off_c, 0, 64, 56
1, 142901, Control_c, 0, 64, 100
1, 142922, Control_c, 0, 64, 84
1, 142938, Control_c, 0, 64, 62
1, 142953, Control_c, 0, 64, 0
1, 143012, Note_on_c, 0, 59, 40
1, 143012, Note_on_c, 0, 68, 60
1, 143022, Note_on_c, 0, 64, 57
1, 143050, Note_off_c, 0, 59, 48
1, 143056, Note_off_c, 0, 64, 63
1, 143062, Note_off_c, 0, 68, 60
1, 143166, Note_on_c, 0, 59, 53
1, 143169, Note_on_c, 0, 76, 69
1, 143170, Note_on_c, 0, 64, 42
1, 143195, Note_off_c, 0, 64, 51
1, 143197, Note_off_c, 0, 59, 65
1, 143207, Note_off_c, 0, 80, 56
1, 143258, Note_off_c, 0, 76, 52
1, 143327, Note_on_c, 0, 47, 65
1, 143338, Control_c, 0, 64, 26
1, 143340, Note_on_c, 0, 75, 68
1, 143352, Control_c, 0, 64, 67
1, 143355, Note_off_c, 0, 47, 66
1, 143367, Control_c, 0, 64, 77
1, 143382, Control_c, 0, 64, 91
1, 143392, Note_off_c, 0, 75, 60
1, 143397, Control_c, 0, 64, 107
1, 143412, Control_c, 0, 64, 127
1, 143500, Note_on_c, 0, 69, 56
1, 143503, Note_on_c, 0, 59, 58
1, 143503, Note_on_c, 0, 66, 60
1, 143506, Note_on_c, 0, 83, 72
1, 143535, Note_off_c, 0, 66, 65
1, 143536, Note_off_c, 0, 59, 60
1, 143537, Note_off_c, 0, 69, 57
1, 143546, Control_c, 0, 64, 112
1, 143561, Control_c, 0, 64, 96
1, 143575, Control_c, 0, 64, 79
1, 143590, Control_c, 0, 64, 32
1, 143605, Control_c, 0, 64, 0
1, 143674, Note_on_c, 0, 66, 54
1, 143679, Note_on_c, 0, 59, 51
1, 143683, Note_off_c, 0, 83, 60
1, 143684, Note_on_c, 0, 69, 46
1, 143705, Note_off_c, 0, 66, 66
1, 143705, Note_off_c, 0, 59, 57
1, 143711, Note_off_c, 0, 69, 56
1, 143831, Note_on_c, 0, 69, 46
1, 143840, Note_on_c, 0, 66, 57
1, 143845, Note_on_c, 0, 59, 48
1, 143850, Note_on_c, 0, 83, 59
1, 143854, Note_off_c, 0, 69, 62
1, 143869, Note_off_c, 0, 66, 67
1, 143880, Note_off_c, 0, 59, 63
1, 143999, Note_on_c, 0, 51, 58
1, 144023, Note_off_c, 0, 51, 60
1, 144027, Control_c, 0, 64, 70
1, 144042, Control_c, 0, 64, 85
1, 144057, Control_c, 0, 64, 111
1, 144072, Control_c, 0, 64, 127
1, 144158, Note_off_c, 0, 83, 60
1, 144164, Note_on_c, 0, 66, 52
1, 144167, Note_on_c, 0, 69, 38
1, 144169, Note_on_c, 0, 85, 65
1, 144170, Note_on_c, 0, 59, 58
1, 144175, Control_c, 0, 64, 125
1, 144187, Note_off_c, 0, 66, 59
1, 144190, Control_c, 0, 64, 103
1, 144191, Note_off_c, 0, 59, 63
1, 144195, Note_off_c, 0, 69, 49
1, 144205, Control_c, 0, 64, 85
1, 144220, Control_c, 0, 64, 65
1, 144235, Control_c, 0, 64, 0
1, 144240, Note_off_c, 0, 85, 58
1, 144253, Note_on_c, 0, 83, 59
1, 144304, Note_off_c, 0, 83, 61
1, 144326, Note_on_c, 0, 81, 71
1, 144327, Note_on_c, 0, 47, 62
1, 144350, Note_off_c, 0, 47, 60
1, 144354, Control_c, 0, 64, 63
1, 144369, Control_c, 0, 64, 78
1, 144383, Note_off_c, 0, 81, 60
1, 144384, Control_c, 0, 64, 97
1, 144399, Control_c, 0, 64, 117
1, 144400, Note_on_c, 0, 80, 72
1, 144421, Control_c, 0, 64, 126
1, 144435, Control_c, 0, 64, 125
1, 144450, Control_c, 0, 64, 124
1, 144465, Control_c, 0, 64, 113
1, 144479, Note_on_c, 0, 66, 70
1, 144479, Note_off_c, 0, 80, 60
1, 144479, Control_c, 0, 64, 99
1, 144488, Note_on_c, 0, 81, 72
1, 144494, Control_c, 0, 64, 83
1, 144496, Note_on_c, 0, 69, 41
1, 144498, Note_on_c, 0, 59, 56
1, 144506, Note_off_c, 0, 66, 68
1, 144509, Control_c, 0, 64, 63
1, 144519, Note_off_c, 0, 59, 58
1, 144522, Note_off_c, 0, 69, 50
1, 144524, Control_c, 0, 64, 0
1, 144554, Note_off_c, 0, 81, 60
1, 144562, Note_on_c, 0, 78, 75
1, 144636, Note_off_c, 0, 78, 61
1, 144651, Note_on_c, 0, 52, 61
1, 144653, Note_on_c, 0, 76, 69
1, 144672, Control_c, 0, 64, 54
1, 144677, Note_off_c, 0, 52, 65
1, 144686, Control_c, 0, 64, 71
1, 144701, Note_off_c, 0, 76, 63
1, 144701, Control_c, 0, 64, 85
1, 144716, Control_c, 0, 64, 104
1, 144731, Control_c, 0, 64, 127
1, 144816, Note_on_c, 0, 80, 74
1, 144821, Note_on_c, 0, 59, 49
1, 144828, Note_on_c, 0, 68, 45
1, 144830, Note_on_c, 0, 64, 34
1, 144852, Note_off_c, 0, 59, 54
1, 144865, Note_off_c, 0, 64, 52
1, 144865, Control_c, 0, 64, 117
1, 144866, Note_off_c, 0, 68, 49
1, 144879, Control_c, 0, 64, 102
1, 144894, Control_c, 0, 64, 87
1, 144909, Control_c, 0, 64, 69
1, 144923, Control_c, 0, 64, 0
1, 144980, Note_on_c, 0, 68, 55
1, 144990, Note_on_c, 0, 64, 47
1, 144990, Note_on_c, 0, 59, 43
1, 145026, Note_off_c, 0, 59, 52
1, 145027, Note_off_c, 0, 64, 64
1, 145035, Note_off_c, 0, 68, 61
1, 145145, Note_on_c, 0, 59, 48
1, 145154, Note_on_c, 0, 78, 65
1, 145160, Note_on_c, 0, 64, 36
1, 145181, Note_off_c, 0, 59, 64
1, 145187, Note_off_c, 0, 64, 47
1, 145197, Note_off_c, 0, 80, 59
1, 145329, Note_on_c, 0, 76, 64
1, 145332, Control_c, 0, 64, 59
1, 145342, Note_off_c, 0, 78, 56
1, 145347, Control_c, 0, 64, 69
1, 145361, Control_c, 0, 64, 82
1, 145376, Control_c, 0, 64, 105
1, 145382, Note_off_c, 0, 76, 62
1, 145391, Control_c, 0, 64, 127
1, 145478, Note_on_c, 0, 64, 53
1, 145485, Note_on_c, 0, 80, 75
1, 145497, Note_on_c, 0, 68, 46
1, 145525, Note_off_c, 0, 64, 59
1, 145528, Note_off_c, 0, 68, 52
1, 145539, Control_c, 0, 64, 126
1, 145554, Control_c, 0, 64, 106
1, 145568, Control_c, 0, 64, 91
1, 145583, Control_c, 0, 64, 73
1, 145598, Control_c, 0, 64, 0
1, 145644, Note_on_c, 0, 68, 47
1, 145652, Note_on_c, 0, 59, 52
1, 145653, Note_on_c, 0, 64, 54
1, 145682, Note_off_c, 0, 59, 54
1, 145686, Note_off_c, 0, 64, 65
1, 145695, Note_off_c, 0, 68, 55
1, 145796, Note_on_c, 0, 59, 52
1, 145810, Note_on_c, 0, 76, 69
1, 145824, Note_off_c, 0, 80, 60
1, 145834, Note_off_c, 0, 59, 66
1, 145969, Note_off_c, 0, 76, 62
1, 145976, Note_on_c, 0, 47, 65
1, 145989, Note_on_c, 0, 75, 69
1, 145992, Control_c, 0, 64, 59
1, 146003, Note_off_c, 0, 47, 66
1, 146007, Control_c, 0, 64, 72
1, 146022, Control_c, 0, 64, 88
1, 146036, Control_c, 0, 64, 114
1, 146051, Control_c, 0, 64, 127
1, 146067, Note_off_c, 0, 75, 59
1, 146154, Note_on_c, 0, 66, 59
1, 146156, Note_on_c, 0, 78, 72
1, 146156, Note_on_c, 0, 69, 57
1, 146164, Note_on_c, 0, 59, 54
1, 146194, Note_off_c, 0, 66, 64
1, 146194, Note_off_c, 0, 59, 56
1, 146197, Note_off_c, 0, 69, 60
1, 146214, Control_c, 0, 64, 113
1, 146229, Note_on_c, 0, 76, 71
1, 146229, Control_c, 0, 64, 99
1, 146243, Control_c, 0, 64, 84
1, 146258, Control_c, 0, 64, 68
1, 146263, Note_off_c, 0, 78, 39
1, 146273, Control_c, 0, 64, 0
1, 146293, Note_off_c, 0, 76, 66
1, 146304, Note_on_c, 0, 75, 77
1, 146305, Note_on_c, 0, 59, 54
1, 146309, Note_on_c, 0, 66, 60
1, 146312, Note_on_c, 0, 69, 56
1, 146343, Note_off_c, 0, 66, 66
1, 146346, Note_off_c, 0, 59, 63
1, 146350, Note_off_c, 0, 69, 62
1, 146378, Note_off_c, 0, 75, 63
1, 146384, Note_on_c, 0, 76, 69
1, 146432, Note_on_c, 0, 66, 63
1, 146454, Note_on_c, 0, 59, 60
1, 146454, Note_off_c, 0, 76, 64
1, 146456, Note_on_c, 0, 78, 80
1, 146464, Note_off_c, 0, 66, 66
1, 146485, Note_off_c, 0, 59, 64
1, 146527, Note_on_c, 0, 75, 78
1, 146533, Note_off_c, 0, 78, 63
1, 146597, Note_on_c, 0, 52, 76
1, 146606, Note_off_c, 0, 75, 65
1, 146612, Note_on_c, 0, 76, 70
1, 146652, Note_off_c, 0, 52, 64
1, 146705, Note_on_c, 0, 64, 71
1, 146749, Note_off_c, 0, 76, 64
1, 146769, Note_on_c, 0, 62, 77
1, 146786, Note_off_c, 0, 64, 61
1, 146843, Note_on_c, 0, 60, 77
1, 146858, Note_off_c, 0, 62, 61
1, 146901, Note_off_c, 0, 60, 63
1, 146926, Note_on_c, 0, 59, 79
1, 146995, Note_off_c, 0, 59, 62
1, 146996, Note_on_c, 0, 57, 79
1, 147068, Note_off_c, 0, 57, 62
1, 147071, Note_on_c, 0, 55, 74
1, 147145, Note_on_c, 0, 54, 72
1, 147163, Note_off_c, 0, 55, 62
1, 147226, Note_on_c, 0, 52, 80
1, 147232, Note_off_c, 0, 54, 62
1, 147240, Note_on_c, 0, 64, 57
1, 147241, Note_on_c, 0, 67, 66
1, 147278, Note_off_c, 0, 52, 63
1, 147296, Note_off_c, 0, 64, 58
1, 147300, Note_off_c, 0, 67, 62
1, 147312, Note_on_c, 0, 71, 66
1, 147402, Note_off_c, 0, 71, 60
1, 147409, Note_on_c, 0, 55, 88
1, 147411, Note_on_c, 0, 64, 60
1, 147420, Note_on_c, 0, 67, 64
1, 147470, Note_off_c, 0, 64, 60
1, 147471, Note_off_c, 0, 67, 56
1, 147483, Note_on_c, 0, 71, 65
1, 147572, Note_off_c, 0, 71, 59
1, 147585, Note_on_c, 0, 64, 60
1, 147586, Note_on_c, 0, 67, 63
1, 147627, Note_off_c, 0, 64, 60
1, 147646, Note_off_c, 0, 67, 54
1, 147655, Note_on_c, 0, 71, 66
1, 147741, Note_off_c, 0, 71, 58
1, 147744, Note_on_c, 0, 54, 76
1, 147745, Note_off_c, 0, 55, 57
1, 147755, Note_on_c, 0, 64, 53
1, 147759, Note_on_c, 0, 67, 64
1, 147798, Note_off_c, 0, 64, 61
1, 147819, Note_off_c, 0, 67, 57
1, 147828, Note_on_c, 0, 71, 66
1, 147904, Note_on_c, 0, 52, 84
1, 147907, Note_off_c, 0, 54, 53
1, 147910, Note_off_c, 0, 71, 60
1, 147923, Note_on_c, 0, 64, 58
1, 147927, Note_on_c, 0, 67, 70
1, 147956, Note_off_c, 0, 52, 67
1, 147968, Note_off_c, 0, 64, 60
1, 147986, Note_off_c, 0, 67, 51
1, 148003, Note_on_c, 0, 71, 61
1, 148079, Note_off_c, 0, 71, 60
1, 148081, Note_on_c, 0, 55, 81
1, 148086, Note_on_c, 0, 64, 65
1, 148096, Note_on_c, 0, 67, 68
1, 148147, Note_off_c, 0, 64, 62
1, 148158, Note_off_c, 0, 67, 49
1, 148180, Note_on_c, 0, 71, 66
1, 148255, Note_off_c, 0, 71, 61
1, 148266, Note_on_c, 0, 64, 46
1, 148272, Note_on_c, 0, 67, 64
1, 148301, Note_off_c, 0, 64, 59
1, 148332, Note_off_c, 0, 67, 56
1, 148349, Note_on_c, 0, 71, 51
1, 148392, Note_off_c, 0, 55, 47
1, 148403, Note_on_c, 0, 64, 50
1, 148407, Note_off_c, 0, 71, 50
1, 148421, Note_on_c, 0, 52, 69
1, 148430, Note_on_c, 0, 67, 61
1, 148439, Note_off_c, 0, 64, 58
1, 148477, Note_off_c, 0, 67, 58
1, 148496, Note_on_c, 0, 71, 61
1, 148558, Note_off_c, 0, 52, 59
1, 148565, Note_off_c, 0, 71, 61
1, 148578, Note_on_c, 0, 51, 81
1, 148583, Note_on_c, 0, 69, 65
1, 148592, Note_on_c, 0, 66, 70
1, 148616, Note_off_c, 0, 51, 66
1, 148623, Control_c, 0, 64, 16
1, 148638, Control_c, 0, 64, 18
1, 148649, Note_off_c, 0, 66, 61
1, 148652, Control_c, 0, 64, 19
1, 148674, Note_off_c, 0, 69, 61
1, 148675, Note_on_c, 0, 71, 70
1, 148696, Control_c, 0, 64, 18
1, 148726, Control_c, 0, 64, 16
1, 148737, Note_off_c, 0, 71, 60
1, 148748, Note_on_c, 0, 59, 84
1, 148754, Note_on_c, 0, 63, 67
1, 148761, Note_on_c, 0, 66, 66
1, 148785, Control_c, 0, 64, 13
1, 148809, Note_off_c, 0, 63, 58
1, 148815, Note_off_c, 0, 66, 59
1, 148833, Note_on_c, 0, 71, 64
1, 148907, Note_off_c, 0, 71, 59
1, 148927, Note_on_c, 0, 63, 62
1, 148934, Note_on_c, 0, 66, 64
1, 148970, Control_c, 0, 64, 10
1, 148971, Note_off_c, 0, 63, 61
1, 148984, Note_off_c, 0, 66, 61
1, 148994, Note_off_c, 0, 59, 62
1, 148997, Note_on_c, 0, 71, 65
1, 149015, Control_c, 0, 64, 0
1, 149075, Note_off_c, 0, 71, 58
1, 149089, Note_on_c, 0, 63, 63
1, 149092, Note_on_c, 0, 59, 84
1, 149098, Note_on_c, 0, 66, 69
1, 149139, Note_off_c, 0, 63, 59
1, 149158, Note_off_c, 0, 66, 63
1, 149170, Note_on_c, 0, 71, 66
1, 149193, Control_c, 0, 64, 10
1, 149238, Control_c, 0, 64, 13
1, 149243, Note_off_c, 0, 71, 60
1, 149249, Note_on_c, 0, 63, 63
1, 149264, Note_on_c, 0, 66, 67
1, 149268, Control_c, 0, 64, 16
1, 149283, Control_c, 0, 64, 18
1, 149299, Note_off_c, 0, 63, 59
1, 149321, Note_off_c, 0, 66, 62
1, 149325, Note_on_c, 0, 71, 67
1, 149357, Control_c, 0, 64, 19
1, 149360, Note_off_c, 0, 59, 56
1, 149387, Control_c, 0, 64, 21
1, 149399, Note_off_c, 0, 71, 60
1, 149401, Control_c, 0, 64, 22
1, 149409, Note_on_c, 0, 63, 63
1, 149416, Control_c, 0, 64, 24
1, 149420, Note_on_c, 0, 66, 65
1, 149423, Note_on_c, 0, 60, 73
1, 149431, Control_c, 0, 64, 25
1, 149446, Control_c, 0, 64, 26
1, 149457, Note_off_c, 0, 63, 59
1, 149476, Note_off_c, 0, 66, 62
1, 149481, Note_on_c, 0, 71, 65
1, 149494, Note_off_c, 0, 60, 59
1, 149500, Note_on_c, 0, 59, 67
1, 149519, Control_c, 0, 64, 27
1, 149554, Note_off_c, 0, 71, 60
1, 149563, Note_off_c, 0, 59, 62
1, 149564, Control_c, 0, 64, 28
1, 149566, Note_on_c, 0, 63, 59
1, 149573, Note_on_c, 0, 66, 65
1, 149574, Note_on_c, 0, 57, 68
1, 149606, Note_off_c, 0, 63, 63
1, 149634, Note_off_c, 0, 66, 64
1, 149643, Note_on_c, 0, 71, 71
1, 149650, Note_off_c, 0, 57, 61
1, 149651, Note_on_c, 0, 55, 66
1, 149691, Control_c, 0, 64, 29
1, 149701, Note_off_c, 0, 55, 67
1, 149706, Control_c, 0, 64, 30
1, 149713, Note_off_c, 0, 71, 61
1, 149722, Note_on_c, 0, 63, 58
1, 149734, Note_on_c, 0, 57, 71
1, 149738, Note_on_c, 0, 66, 64
1, 149765, Control_c, 0, 64, 31
1, 149777, Note_off_c, 0, 63, 61
1, 149790, Note_off_c, 0, 66, 59
1, 149793, Note_on_c, 0, 71, 72
1, 149794, Control_c, 0, 64, 32
1, 149805, Note_on_c, 0, 54, 69
1, 149818, Note_off_c, 0, 57, 57
1, 149873, Note_off_c, 0, 71, 60
1, 149888, Note_on_c, 0, 64, 66
1, 149888, Note_on_c, 0, 67, 66
1, 149890, Note_on_c, 0, 52, 83
1, 149904, Note_off_c, 0, 54, 63
1, 149914, Control_c, 0, 64, 32
1, 149931, Note_off_c, 0, 52, 67
1, 149940, Note_off_c, 0, 64, 60
1, 149943, Control_c, 0, 64, 33
1, 149947, Note_off_c, 0, 67, 61
1, 149950, Note_on_c, 0, 71, 67
1, 149958, Control_c, 0, 64, 34
1, 150003, Control_c, 0, 64, 34
1, 150026, Note_off_c, 0, 71, 59
1, 150047, Control_c, 0, 64, 35
1, 150056, Note_on_c, 0, 55, 88
1, 150060, Note_on_c, 0, 64, 63
1, 150062, Note_on_c, 0, 67, 71
1, 150062, Control_c, 0, 64, 36
1, 150077, Control_c, 0, 64, 36
1, 150091, Control_c, 0, 64, 38
1, 150102, Note_off_c, 0, 64, 62
1, 150106, Control_c, 0, 64, 38
1, 150123, Note_off_c, 0, 67, 61
1, 150131, Note_on_c, 0, 71, 71
1, 150165, Control_c, 0, 64, 39
1, 150209, Note_off_c, 0, 71, 59
1, 150222, Note_on_c, 0, 64, 55
1, 150225, Control_c, 0, 64, 39
1, 150231, Note_on_c, 0, 67, 67
1, 150254, Control_c, 0, 64, 40
1, 150269, Control_c, 0, 64, 41
1, 150271, Note_off_c, 0, 64, 56
1, 150297, Note_on_c, 0, 71, 72
1, 150299, Control_c, 0, 64, 41
1, 150302, Note_off_c, 0, 67, 61
1, 150329, Control_c, 0, 64, 42
1, 150343, Control_c, 0, 64, 42
1, 150358, Control_c, 0, 64, 43
1, 150368, Note_off_c, 0, 71, 59
1, 150373, Control_c, 0, 64, 44
1, 150379, Note_off_c, 0, 55, 58
1, 150383, Note_on_c, 0, 54, 72
1, 150383, Note_on_c, 0, 64, 54
1, 150395, Note_on_c, 0, 67, 71
1, 150410, Control_c, 0, 64, 44
1, 150432, Note_off_c, 0, 64, 61
1, 150439, Control_c, 0, 64, 45
1, 150454, Control_c, 0, 64, 45
1, 150467, Note_off_c, 0, 67, 62
1, 150469, Control_c, 0, 64, 46
1, 150469, Note_on_c, 0, 71, 71
1, 150484, Control_c, 0, 64, 46
1, 150523, Note_off_c, 0, 54, 60
1, 150531, Note_off_c, 0, 71, 58
1, 150548, Note_on_c, 0, 52, 76
1, 150549, Note_on_c, 0, 64, 60
1, 150551, Note_on_c, 0, 67, 69
1, 150591, Note_off_c, 0, 52, 66
1, 150608, Note_off_c, 0, 64, 53
1, 150627, Note_on_c, 0, 71, 74
1, 150627, Note_off_c, 0, 67, 62
1, 150678, Control_c, 0, 64, 46
1, 150689, Note_off_c, 0, 71, 58
1, 150707, Note_on_c, 0, 67, 67
1, 150713, Note_on_c, 0, 55, 78
1, 150715, Note_on_c, 0, 64, 58
1, 150764, Note_off_c, 0, 64, 54
1, 150781, Control_c, 0, 64, 45
1, 150791, Note_on_c, 0, 71, 71
1, 150794, Note_off_c, 0, 67, 62
1, 150843, Note_off_c, 0, 71, 57
1, 150868, Note_on_c, 0, 67, 58
1, 150871, Note_on_c, 0, 64, 65
1, 150885, Control_c, 0, 64, 46
1, 150888, Note_on_c, 0, 70, 60
1, 150899, Control_c, 0, 64, 46
1, 150912, Note_off_c, 0, 64, 58
1, 150914, Control_c, 0, 64, 47
1, 150929, Control_c, 0, 64, 48
1, 150932, Note_off_c, 0, 55, 47
1, 150944, Control_c, 0, 64, 49
1, 150949, Note_off_c, 0, 67, 61
1, 150953, Note_on_c, 0, 73, 74
1, 150958, Control_c, 0, 64, 49
1, 150961, Note_off_c, 0, 70, 63
1, 150973, Control_c, 0, 64, 50
1, 150988, Control_c, 0, 64, 51
1, 151003, Control_c, 0, 64, 51
1, 151008, Note_off_c, 0, 73, 61
1, 151018, Control_c, 0, 64, 52
1, 151031, Note_on_c, 0, 67, 49
1, 151033, Control_c, 0, 64, 53
1, 151047, Control_c, 0, 64, 53
1, 151049, Note_on_c, 0, 55, 73
1, 151062, Control_c, 0, 64, 54
1, 151087, Note_on_c, 0, 73, 78
1, 151092, Note_off_c, 0, 67, 62
1, 151114, Note_off_c, 0, 55, 58
1, 151155, Note_off_c, 0, 73, 64
1, 151159, Control_c, 0, 64, 54
1, 151194, Note_on_c, 0, 54, 76
1, 151211, Note_on_c, 0, 72, 57
1, 151224, Note_on_c, 0, 69, 67
1, 151232, Control_c, 0, 64, 53
1, 151236, Note_off_c, 0, 54, 62
1, 151242, Note_off_c, 0, 72, 54
1, 151262, Note_off_c, 0, 69, 58
1, 151283, Note_on_c, 0, 57, 65
1, 151291, Control_c, 0, 64, 53
1, 151304, Note_on_c, 0, 74, 72
1, 151316, Note_off_c, 0, 57, 62
1, 151336, Control_c, 0, 64, 52
1, 151353, Note_on_c, 0, 55, 70
1, 151381, Note_on_c, 0, 72, 43
1, 151417, Note_off_c, 0, 74, 60
1, 151423, Note_off_c, 0, 55, 65
1, 151428, Note_on_c, 0, 59, 73
1, 151430, Note_off_c, 0, 72, 51
1, 151439, Control_c, 0, 64, 53
1, 151496, Note_on_c, 0, 69, 58
1, 151500, Note_on_c, 0, 57, 73
1, 151503, Note_off_c, 0, 59, 60
1, 151509, Note_on_c, 0, 66, 61
1, 151544, Control_c, 0, 64, 52
1, 151545, Note_off_c, 0, 66, 64
1, 151557, Note_off_c, 0, 57, 62
1, 151566, Note_off_c, 0, 69, 66
1, 151568, Note_on_c, 0, 74, 66
1, 151579, Note_on_c, 0, 60, 70
1, 151588, Control_c, 0, 64, 52
1, 151603, Control_c, 0, 64, 51
1, 151629, Note_off_c, 0, 60, 59
1, 151632, Note_off_c, 0, 74, 63
1, 151633, Control_c, 0, 64, 51
1, 151652, Note_on_c, 0, 59, 75
1, 151655, Note_on_c, 0, 66, 62
1, 151663, Note_on_c, 0, 69, 62
1, 151677, Control_c, 0, 64, 51
1, 151692, Control_c, 0, 64, 52
1, 151703, Note_off_c, 0, 66, 61
1, 151707, Control_c, 0, 64, 52
1, 151708, Note_off_c, 0, 59, 63
1, 151724, Note_off_c, 0, 69, 64
1, 151735, Note_on_c, 0, 62, 75
1, 151737, Note_on_c, 0, 74, 62
1, 151803, Note_off_c, 0, 74, 62
1, 151804, Note_on_c, 0, 60, 80
1, 151807, Note_off_c, 0, 62, 60
1, 151808, Note_on_c, 0, 66, 74
1, 151810, Note_on_c, 0, 69, 64
1, 151855, Note_off_c, 0, 60, 62
1, 151856, Note_off_c, 0, 66, 61
1, 151881, Note_on_c, 0, 74, 69
1, 151892, Control_c, 0, 64, 53
1, 151893, Note_off_c, 0, 69, 65
1, 151904, Note_on_c, 0, 59, 75
1, 151936, Control_c, 0, 64, 52
1, 151962, Note_off_c, 0, 59, 59
1, 151962, Note_off_c, 0, 74, 64
1, 151968, Note_on_c, 0, 66, 67
1, 151974, Note_on_c, 0, 57, 71
1, 151977, Note_on_c, 0, 69, 60
1, 151981, Control_c, 0, 64, 52
1, 151995, Control_c, 0, 64, 51
1, 152010, Control_c, 0, 64, 47
1, 152012, Note_off_c, 0, 66, 63
1, 152025, Control_c, 0, 64, 36
1, 152031, Note_off_c, 0, 57, 62
1, 152040, Control_c, 0, 64, 0
1, 152041, Note_on_c, 0, 74, 71
1, 152048, Note_on_c, 0, 55, 71
1, 152048, Note_off_c, 0, 69, 66
1, 152112, Note_off_c, 0, 74, 64
1, 152117, Note_on_c, 0, 66, 70
1, 152119, Note_on_c, 0, 54, 73
1, 152127, Note_off_c, 0, 55, 63
1, 152129, Note_on_c, 0, 69, 54
1, 152156, Note_off_c, 0, 54, 65
1, 152170, Note_off_c, 0, 66, 60
1, 152192, Note_on_c, 0, 74, 69
1, 152195, Note_off_c, 0, 69, 66
1, 152209, Note_on_c, 0, 52, 70
1, 152250, Note_off_c, 0, 74, 64
1, 152251, Note_off_c, 0, 52, 64
1, 152264, Note_on_c, 0, 70, 63
1, 152271, Note_on_c, 0, 66, 50
1, 152282, Note_off_c, 0, 70, 40
1, 152285, Note_on_c, 0, 50, 68
1, 152293, Note_off_c, 0, 66, 61
1, 152299, Note_on_c, 0, 69, 53
1, 152320, Note_off_c, 0, 69, 61
1, 152338, Note_off_c, 0, 50, 60
1, 152343, Note_on_c, 0, 74, 66
1, 152357, Note_on_c, 0, 48, 70
1, 152384, Note_off_c, 0, 74, 64
1, 152425, Note_off_c, 0, 48, 63
1, 152442, Control_c, 0, 64, 64
1, 152447, Note_on_c, 0, 47, 64
1, 152447, Note_on_c, 0, 69, 50
1, 152454, Note_on_c, 0, 76, 55
1, 152457, Control_c, 0, 64, 75
1, 152472, Control_c, 0, 64, 93
1, 152474, Note_off_c, 0, 47, 65
1, 152475, Note_off_c, 0, 76, 59
1, 152481, Note_off_c, 0, 69, 67
1, 152486, Control_c, 0, 64, 118
1, 152501, Control_c, 0, 64, 127
1, 152590, Control_c, 0, 64, 119
1, 152603, Note_on_c, 0, 83, 72
1, 152605, Control_c, 0, 64, 101
1, 152619, Control_c, 0, 64, 84
1, 152642, Control_c, 0, 64, 65
1, 152657, Control_c, 0, 64, 0
1, 152700, Poly_aftertouch_c, 0, 62, 0
1, 152780, Note_on_c, 0, 43, 67
1, 152809, Note_off_c, 0, 43, 62
1, 152946, Note_on_c, 0, 59, 49
1, 152951, Note_on_c, 0, 55, 54
1, 152952, Note_on_c, 0, 81, 71
1, 152952, Note_off_c, 0, 83, 56
1, 152983, Note_off_c, 0, 59, 63
1, 152994, Note_off_c, 0, 55, 66
1, 153131, Note_on_c, 0, 43, 56
1, 153143, Note_on_c, 0, 79, 68
1, 153146, Note_off_c, 0, 81, 58
1, 153146, Control_c, 0, 64, 59
1, 153158, Note_off_c, 0, 43, 57
1, 153161, Control_c, 0, 64, 74
1, 153176, Control_c, 0, 64, 90
1, 153191, Control_c, 0, 64, 114
1, 153205, Control_c, 0, 64, 127
1, 153207, Note_off_c, 0, 79, 60
1, 153290, Note_on_c, 0, 59, 56
1, 153302, Note_on_c, 0, 83, 76
1, 153303, Note_on_c, 0, 62, 49
1, 153322, Note_on_c, 0, 55, 35
1, 153331, Note_off_c, 0, 59, 59
1, 153337, Note_off_c, 0, 62, 50
1, 153339, Control_c, 0, 64, 107
1, 153354, Control_c, 0, 64, 90
1, 153357, Note_off_c, 0, 55, 47
1, 153368, Control_c, 0, 64, 74
1, 153390, Control_c, 0, 64, 0
1, 153479, Note_on_c, 0, 55, 39
1, 153486, Note_on_c, 0, 59, 50
1, 153498, Note_on_c, 0, 62, 35
1, 153514, Note_off_c, 0, 59, 56
1, 153518, Note_off_c, 0, 55, 54
1, 153530, Note_off_c, 0, 62, 52
1, 153638, Note_on_c, 0, 79, 71
1, 153645, Note_on_c, 0, 59, 37
1, 153647, Note_off_c, 0, 83, 57
1, 153654, Note_on_c, 0, 55, 52
1, 153675, Note_off_c, 0, 59, 56
1, 153707, Note_off_c, 0, 55, 56
1, 153778, Note_off_c, 0, 79, 57
1, 153807, Note_on_c, 0, 50, 35
1, 153810, Note_on_c, 0, 78, 75
1, 153834, Note_off_c, 0, 50, 46
1, 153836, Control_c, 0, 64, 60
1, 153850, Control_c, 0, 64, 70
1, 153866, Control_c, 0, 64, 81
1, 153870, Note_off_c, 0, 78, 63
1, 153881, Control_c, 0, 64, 95
1, 153896, Control_c, 0, 64, 104
1, 153910, Control_c, 0, 64, 108
1, 153925, Control_c, 0, 64, 109
1, 153940, Control_c, 0, 64, 110
1, 153970, Note_on_c, 0, 57, 46
1, 153971, Note_on_c, 0, 60, 43
1, 153975, Note_on_c, 0, 86, 69
1, 153978, Note_on_c, 0, 62, 38
1, 154007, Note_off_c, 0, 57, 60
1, 154007, Note_off_c, 0, 60, 51
1, 154014, Control_c, 0, 64, 110
1, 154018, Note_off_c, 0, 62, 48
1, 154029, Control_c, 0, 64, 106
1, 154044, Control_c, 0, 64, 99
1, 154058, Control_c, 0, 64, 89
1, 154073, Control_c, 0, 64, 76
1, 154088, Control_c, 0, 64, 51
1, 154103, Control_c, 0, 64, 0
1, 154162, Note_on_c, 0, 57, 35
1, 154162, Note_on_c, 0, 60, 36
1, 154169, Note_on_c, 0, 62, 34
1, 154190, Note_off_c, 0, 57, 55
1, 154190, Note_off_c, 0, 86, 54
1, 154192, Note_off_c, 0, 60, 52
1, 154205, Note_off_c, 0, 62, 48
1, 154308, Note_on_c, 0, 86, 71
1, 154317, Note_on_c, 0, 62, 43
1, 154320, Note_on_c, 0, 57, 37
1, 154329, Note_on_c, 0, 60, 30
1, 154356, Note_off_c, 0, 62, 48
1, 154358, Note_off_c, 0, 60, 50
1, 154368, Note_off_c, 0, 57, 58
1, 154477, Note_on_c, 0, 54, 58
1, 154510, Control_c, 0, 64, 69
1, 154514, Note_off_c, 0, 54, 57
1, 154525, Control_c, 0, 64, 78
1, 154540, Control_c, 0, 64, 88
1, 154555, Control_c, 0, 64, 95
1, 154570, Control_c, 0, 64, 98
1, 154584, Control_c, 0, 64, 101
1, 154599, Control_c, 0, 64, 103
1, 154614, Control_c, 0, 64, 104
1, 154626, Note_off_c, 0, 86, 63
1, 154629, Control_c, 0, 64, 105
1, 154638, Note_on_c, 0, 88, 70
1, 154644, Note_on_c, 0, 62, 38
1, 154662, Note_on_c, 0, 60, 35
1, 154664, Note_on_c, 0, 57, 35
1, 154694, Note_off_c, 0, 62, 44
1, 154699, Note_off_c, 0, 60, 47
1, 154705, Note_off_c, 0, 57, 48
1, 154720, Note_off_c, 0, 88, 60
1, 154726, Note_on_c, 0, 86, 71
1, 154733, Control_c, 0, 64, 102
1, 154748, Control_c, 0, 64, 94
1, 154763, Control_c, 0, 64, 80
1, 154778, Control_c, 0, 64, 60
1, 154793, Note_on_c, 0, 84, 63
1, 154793, Control_c, 0, 64, 0
1, 154812, Note_off_c, 0, 86, 56
1, 154822, Note_on_c, 0, 50, 52
1, 154859, Note_off_c, 0, 50, 48
1, 154860, Note_off_c, 0, 84, 64
1, 154865, Note_on_c, 0, 83, 65
1, 154882, Control_c, 0, 64, 53
1, 154904, Control_c, 0, 64, 66
1, 154915, Note_on_c, 0, 60, 40
1, 154918, Control_c, 0, 64, 73
1, 154932, Note_on_c, 0, 62, 40
1, 154933, Control_c, 0, 64, 81
1, 154935, Note_off_c, 0, 83, 61
1, 154938, Note_on_c, 0, 84, 72
1, 154947, Note_off_c, 0, 60, 58
1, 154947, Control_c, 0, 64, 85
1, 154962, Control_c, 0, 64, 86
1, 154968, Note_off_c, 0, 62, 48
1, 154992, Control_c, 0, 64, 85
1, 155004, Note_off_c, 0, 84, 64
1, 155007, Control_c, 0, 64, 81
1, 155021, Note_on_c, 0, 81, 63
1, 155021, Control_c, 0, 64, 72
1, 155036, Control_c, 0, 64, 0
1, 155091, Note_off_c, 0, 81, 55
1, 155098, Note_on_c, 0, 55, 63
1, 155099, Note_on_c, 0, 79, 75
1, 155125, Note_off_c, 0, 55, 67
1, 155125, Control_c, 0, 64, 65
1, 155140, Control_c, 0, 64, 73
1, 155151, Note_off_c, 0, 79, 60
1, 155155, Control_c, 0, 64, 82
1, 155170, Control_c, 0, 64, 93
1, 155185, Control_c, 0, 64, 103
1, 155200, Control_c, 0, 64, 107
1, 155214, Control_c, 0, 64, 107
1, 155229, Control_c, 0, 64, 107
1, 155244, Control_c, 0, 64, 106
1, 155258, Control_c, 0, 64, 102
1, 155272, Note_on_c, 0, 62, 49
1, 155273, Control_c, 0, 64, 91
1, 155274, Note_on_c, 0, 83, 72
1, 155277, Note_on_c, 0, 59, 57
1, 155288, Control_c, 0, 64, 76
1, 155298, Note_off_c, 0, 59, 61
1, 155298, Note_off_c, 0, 62, 55
1, 155303, Control_c, 0, 64, 22
1, 155318, Control_c, 0, 64, 0
1, 155431, Note_on_c, 0, 43, 70
1, 155451, Control_c, 0, 64, 46
1, 155465, Note_off_c, 0, 43, 62
1, 155467, Control_c, 0, 64, 71
1, 155482, Control_c, 0, 64, 86
1, 155497, Control_c, 0, 64, 109
1, 155511, Control_c, 0, 64, 127
1, 155570, Control_c, 0, 64, 118
1, 155585, Control_c, 0, 64, 103
1, 155592, Note_on_c, 0, 81, 76
1, 155593, Note_on_c, 0, 62, 53
1, 155600, Control_c, 0, 64, 90
1, 155602, Note_on_c, 0, 59, 43
1, 155615, Note_on_c, 0, 55, 37
1, 155615, Control_c, 0, 64, 76
1, 155618, Note_off_c, 0, 62, 54
1, 155626, Note_off_c, 0, 59, 55
1, 155629, Note_off_c, 0, 83, 58
1, 155637, Control_c, 0, 64, 51
1, 155648, Note_off_c, 0, 55, 49
1, 155652, Control_c, 0, 64, 0
1, 155775, Note_on_c, 0, 43, 62
1, 155784, Note_on_c, 0, 79, 73
1, 155795, Note_off_c, 0, 81, 54
1, 155800, Control_c, 0, 64, 61
1, 155804, Note_off_c, 0, 43, 63
1, 155815, Control_c, 0, 64, 71
1, 155830, Control_c, 0, 64, 83
1, 155844, Note_off_c, 0, 79, 62
1, 155844, Control_c, 0, 64, 100
1, 155859, Control_c, 0, 64, 111
1, 155874, Control_c, 0, 64, 114
1, 155888, Control_c, 0, 64, 116
1, 155903, Control_c, 0, 64, 116
1, 155939, Note_on_c, 0, 62, 56
1, 155946, Note_on_c, 0, 59, 50
1, 155946, Note_on_c, 0, 83, 73
1, 155959, Note_on_c, 0, 55, 42
1, 155978, Control_c, 0, 64, 115
1, 155980, Note_off_c, 0, 59, 62
1, 155988, Note_off_c, 0, 62, 53
1, 155989, Note_off_c, 0, 55, 55
1, 155993, Control_c, 0, 64, 110
1, 156008, Control_c, 0, 64, 101
1, 156022, Control_c, 0, 64, 88
1, 156037, Control_c, 0, 64, 70
1, 156052, Control_c, 0, 64, 0
1, 156109, Note_on_c, 0, 59, 49
1, 156113, Note_on_c, 0, 55, 32
1, 156115, Note_on_c, 0, 62, 48
1, 156142, Note_off_c, 0, 59, 62
1, 156145, Note_off_c, 0, 55, 57
1, 156145, Note_off_c, 0, 62, 55
1, 156273, Note_on_c, 0, 79, 67
1, 156274, Note_on_c, 0, 59, 45
1, 156274, Note_on_c, 0, 62, 40
1, 156285, Note_on_c, 0, 55, 39
1, 156288, Note_off_c, 0, 83, 56
1, 156305, Note_off_c, 0, 59, 63
1, 156315, Note_off_c, 0, 62, 49
1, 156327, Note_off_c, 0, 55, 48
1, 156402, Note_off_c, 0, 79, 60
1, 156447, Note_on_c, 0, 78, 69
1, 156455, Note_on_c, 0, 50, 26
1, 156476, Control_c, 0, 64, 62
1, 156490, Control_c, 0, 64, 71
1, 156493, Note_off_c, 0, 50, 38
1, 156505, Control_c, 0, 64, 82
1, 156508, Note_off_c, 0, 78, 59
1, 156520, Control_c, 0, 64, 95
1, 156535, Control_c, 0, 64, 102
1, 156550, Control_c, 0, 64, 105
1, 156565, Control_c, 0, 64, 106
1, 156615, Note_on_c, 0, 57, 50
1, 156623, Note_on_c, 0, 60, 41
1, 156627, Note_on_c, 0, 62, 32
1, 156628, Note_on_c, 0, 81, 59
1, 156639, Control_c, 0, 64, 105
1, 156654, Control_c, 0, 64, 103
1, 156655, Note_off_c, 0, 57, 58
1, 156660, Note_off_c, 0, 60, 47
1, 156668, Control_c, 0, 64, 96
1, 156671, Note_off_c, 0, 62, 46
1, 156683, Note_off_c, 0, 81, 50
1, 156683, Control_c, 0, 64, 86
1, 156694, Note_on_c, 0, 79, 66
1, 156698, Control_c, 0, 64, 71
1, 156712, Control_c, 0, 64, 0
1, 156752, Note_off_c, 0, 79, 60
1, 156764, Note_on_c, 0, 78, 73
1, 156765, Note_on_c, 0, 57, 48
1, 156773, Note_on_c, 0, 62, 50
1, 156778, Note_on_c, 0, 60, 50
1, 156798, Note_off_c, 0, 57, 63
1, 156800, Note_off_c, 0, 60, 58
1, 156804, Note_off_c, 0, 62, 55
1, 156833, Note_off_c, 0, 78, 61
1, 156842, Note_on_c, 0, 79, 68
1, 156894, Note_on_c, 0, 60, 52
1, 156908, Note_off_c, 0, 79, 58
1, 156912, Note_on_c, 0, 57, 43
1, 156917, Note_on_c, 0, 81, 73
1, 156924, Note_off_c, 0, 60, 64
1, 156938, Note_off_c, 0, 57, 58
1, 156981, Note_off_c, 0, 81, 61
1, 156982, Note_on_c, 0, 78, 76
1, 157038, Control_c, 0, 64, 60
1, 157054, Control_c, 0, 64, 70
1, 157069, Note_off_c, 0, 78, 64
1, 157069, Control_c, 0, 64, 79
1, 157074, Note_on_c, 0, 43, 68
1, 157076, Note_on_c, 0, 79, 73
1, 157084, Control_c, 0, 64, 91
1, 157099, Control_c, 0, 64, 98
1, 157113, Control_c, 0, 64, 102
1, 157119, Note_off_c, 0, 43, 60
1, 157135, Control_c, 0, 64, 104
1, 157150, Control_c, 0, 64, 104
1, 157163, Note_off_c, 0, 79, 61
1, 157165, Control_c, 0, 64, 105
1, 157184, Note_on_c, 0, 55, 66
1, 157248, Note_on_c, 0, 54, 71
1, 157254, Note_off_c, 0, 55, 60
1, 157268, Control_c, 0, 64, 103
1, 157283, Control_c, 0, 64, 98
1, 157298, Control_c, 0, 64, 90
1, 157313, Control_c, 0, 64, 79
1, 157325, Note_off_c, 0, 54, 63
1, 157328, Note_on_c, 0, 52, 76
1, 157328, Control_c, 0, 64, 62
1, 157343, Control_c, 0, 64, 0
1, 157379, Note_off_c, 0, 52, 65
1, 157402, Note_on_c, 0, 50, 80
1, 157472, Note_off_c, 0, 50, 62
1, 157480, Note_on_c, 0, 48, 74
1, 157544, Note_on_c, 0, 47, 79
1, 157544, Note_off_c, 0, 48, 65
1, 157614, Note_on_c, 0, 45, 75
1, 157620, Note_off_c, 0, 47, 65
1, 157707, Note_off_c, 0, 45, 64
1, 157711, Note_on_c, 0, 43, 80
1, 157728, Note_on_c, 0, 55, 53
1, 157728, Note_on_c, 0, 59, 61
1, 157757, Note_off_c, 0, 43, 59
1, 157769, Note_off_c, 0, 59, 61
1, 157776, Note_off_c, 0, 55, 61
1, 157784, Note_on_c, 0, 62, 64
1, 157886, Note_on_c, 0, 47, 88
1, 157886, Note_off_c, 0, 62, 61
1, 157894, Note_on_c, 0, 55, 57
1, 157900, Note_on_c, 0, 59, 63
1, 157957, Note_off_c, 0, 55, 60
1, 157966, Note_off_c, 0, 59, 59
1, 157969, Note_on_c, 0, 62, 65
1, 158059, Note_off_c, 0, 62, 58
1, 158078, Note_on_c, 0, 55, 51
1, 158088, Note_on_c, 0, 59, 54
1, 158124, Note_off_c, 0, 55, 60
1, 158136, Note_off_c, 0, 59, 56
1, 158143, Note_on_c, 0, 62, 66
1, 158228, Note_on_c, 0, 45, 73
1, 158231, Note_off_c, 0, 62, 59
1, 158248, Note_on_c, 0, 59, 63
1, 158251, Note_on_c, 0, 55, 47
1, 158277, Note_off_c, 0, 47, 54
1, 158292, Note_off_c, 0, 55, 60
1, 158313, Note_off_c, 0, 59, 54
1, 158321, Note_on_c, 0, 62, 64
1, 158387, Note_on_c, 0, 43, 81
1, 158387, Note_off_c, 0, 45, 64
1, 158404, Note_off_c, 0, 62, 60
1, 158407, Note_on_c, 0, 55, 51
1, 158418, Control_c, 0, 64, 13
1, 158423, Note_on_c, 0, 59, 61
1, 158428, Note_off_c, 0, 43, 63
1, 158432, Control_c, 0, 64, 18
1, 158455, Note_off_c, 0, 55, 60
1, 158462, Control_c, 0, 64, 19
1, 158469, Note_off_c, 0, 59, 53
1, 158484, Note_on_c, 0, 62, 64
1, 158563, Note_on_c, 0, 47, 81
1, 158568, Note_off_c, 0, 62, 59
1, 158581, Note_on_c, 0, 55, 50
1, 158583, Note_on_c, 0, 59, 64
1, 158635, Note_off_c, 0, 55, 61
1, 158642, Note_off_c, 0, 59, 48
1, 158660, Note_on_c, 0, 62, 65
1, 158661, Control_c, 0, 64, 18
1, 158720, Control_c, 0, 64, 13
1, 158750, Note_off_c, 0, 62, 62
1, 158750, Control_c, 0, 64, 10
1, 158764, Note_on_c, 0, 55, 49
1, 158765, Note_on_c, 0, 59, 56
1, 158765, Control_c, 0, 64, 0
1, 158817, Note_off_c, 0, 59, 54
1, 158824, Note_off_c, 0, 55, 60
1, 158838, Note_on_c, 0, 62, 55
1, 158839, Control_c, 0, 64, 10
1, 158854, Control_c, 0, 64, 13
1, 158869, Control_c, 0, 64, 18
1, 158875, Note_off_c, 0, 47, 57
1, 158884, Note_on_c, 0, 43, 71
1, 158884, Control_c, 0, 64, 21
1, 158899, Control_c, 0, 64, 22
1, 158905, Note_off_c, 0, 62, 61
1, 158914, Note_on_c, 0, 55, 43
1, 158928, Control_c, 0, 64, 21
1, 158930, Note_on_c, 0, 59, 52
1, 158943, Control_c, 0, 64, 16
1, 158945, Note_off_c, 0, 55, 57
1, 158958, Control_c, 0, 64, 0
1, 158977, Note_off_c, 0, 59, 54
1, 158984, Note_on_c, 0, 62, 65
1, 159012, Note_off_c, 0, 43, 59
1, 159050, Note_on_c, 0, 42, 84
1, 159055, Note_off_c, 0, 62, 61
1, 159063, Note_on_c, 0, 60, 67
1, 159072, Note_on_c, 0, 57, 64
1, 159090, Note_off_c, 0, 42, 64
1, 159123, Note_off_c, 0, 57, 54
1, 159135, Note_off_c, 0, 60, 61
1, 159148, Note_on_c, 0, 62, 70
1, 159191, Note_off_c, 0, 62, 62
1, 159219, Note_on_c, 0, 50, 80
1, 159227, Note_on_c, 0, 57, 65
1, 159230, Note_on_c, 0, 54, 64
1, 159284, Note_off_c, 0, 54, 58
1, 159292, Note_off_c, 0, 57, 60
1, 159303, Note_on_c, 0, 62, 65
1, 159385, Note_off_c, 0, 62, 59
1, 159401, Note_on_c, 0, 54, 61
1, 159401, Note_on_c, 0, 57, 60
1, 159456, Note_off_c, 0, 54, 57
1, 159462, Note_off_c, 0, 50, 63
1, 159474, Note_off_c, 0, 57, 61
1, 159477, Note_on_c, 0, 62, 68
1, 159557, Note_off_c, 0, 62, 59
1, 159558, Note_on_c, 0, 50, 83
1, 159567, Note_on_c, 0, 54, 65
1, 159572, Note_on_c, 0, 57, 63
1, 159613, Note_off_c, 0, 54, 60
1, 159632, Note_off_c, 0, 57, 59
1, 159635, Note_on_c, 0, 62, 62
1, 159716, Note_off_c, 0, 62, 60
1, 159725, Note_on_c, 0, 54, 59
1, 159726, Note_on_c, 0, 57, 60
1, 159774, Note_off_c, 0, 54, 56
1, 159799, Note_on_c, 0, 62, 58
1, 159801, Note_off_c, 0, 57, 57
1, 159838, Note_off_c, 0, 50, 56
1, 159874, Note_off_c, 0, 62, 61
1, 159885, Note_on_c, 0, 54, 62
1, 159887, Note_on_c, 0, 57, 52
1, 159890, Note_on_c, 0, 52, 75
1, 159948, Note_off_c, 0, 54, 59
1, 159957, Note_on_c, 0, 62, 68
1, 159960, Note_off_c, 0, 57, 61
1, 159964, Note_on_c, 0, 50, 68
1, 159965, Note_off_c, 0, 52, 64
1, 160031, Note_off_c, 0, 50, 63
1, 160034, Note_off_c, 0, 62, 61
1, 160038, Note_on_c, 0, 48, 74
1, 160043, Note_on_c, 0, 54, 59
1, 160048, Note_on_c, 0, 57, 54
1, 160088, Note_off_c, 0, 54, 59
1, 160100, Note_on_c, 0, 62, 62
1, 160108, Note_off_c, 0, 48, 64
1, 160110, Note_on_c, 0, 47, 71
1, 160110, Note_off_c, 0, 57, 60
1, 160163, Note_off_c, 0, 47, 66
1, 160180, Note_off_c, 0, 62, 62
1, 160181, Note_on_c, 0, 54, 61
1, 160193, Note_on_c, 0, 48, 68
1, 160203, Note_on_c, 0, 57, 42
1, 160238, Note_off_c, 0, 54, 61
1, 160258, Note_off_c, 0, 57, 57
1, 160259, Note_on_c, 0, 62, 66
1, 160270, Note_off_c, 0, 48, 64
1, 160272, Note_on_c, 0, 45, 78
1, 160340, Note_off_c, 0, 62, 62
1, 160347, Note_off_c, 0, 45, 62
1, 160357, Note_on_c, 0, 43, 83
1, 160360, Note_on_c, 0, 55, 66
1, 160366, Note_on_c, 0, 59, 59
1, 160393, Note_off_c, 0, 43, 65
1, 160411, Note_off_c, 0, 55, 63
1, 160434, Note_off_c, 0, 59, 60
1, 160437, Note_on_c, 0, 62, 68
1, 160510, Note_off_c, 0, 62, 60
1, 160527, Note_on_c, 0, 55, 66
1, 160530, Note_on_c, 0, 47, 87
1, 160546, Note_on_c, 0, 59, 52
1, 160571, Note_off_c, 0, 55, 64
1, 160598, Note_off_c, 0, 59, 63
1, 160619, Control_c, 0, 64, 47
1, 160628, Note_on_c, 0, 62, 43
1, 160634, Control_c, 0, 64, 64
1, 160649, Control_c, 0, 64, 69
1, 160655, Note_off_c, 0, 62, 56
1, 160664, Control_c, 0, 64, 75
1, 160678, Control_c, 0, 64, 82
1, 160686, Note_on_c, 0, 62, 53
1, 160688, Note_on_c, 0, 56, 72
1, 160693, Control_c, 0, 64, 86
1, 160708, Control_c, 0, 64, 87
1, 160739, Note_off_c, 0, 47, 61
1, 160749, Note_off_c, 0, 56, 58
1, 160752, Control_c, 0, 64, 85
1, 160767, Control_c, 0, 64, 77
1, 160782, Note_on_c, 0, 65, 73
1, 160782, Control_c, 0, 64, 64
1, 160783, Note_off_c, 0, 62, 62
1, 160797, Control_c, 0, 64, 0
1, 160839, Note_off_c, 0, 65, 63
1, 160857, Note_on_c, 0, 62, 62
1, 160864, Note_on_c, 0, 47, 77
1, 160868, Note_on_c, 0, 56, 53
1, 160905, Note_off_c, 0, 56, 62
1, 160917, Note_off_c, 0, 47, 63
1, 160923, Note_off_c, 0, 62, 60
1, 160937, Note_on_c, 0, 65, 60
1, 160974, Note_off_c, 0, 65, 67
1, 161026, Control_c, 0, 64, 64
1, 161030, Note_on_c, 0, 61, 65
1, 161031, Note_on_c, 0, 46, 86
1, 161039, Note_on_c, 0, 64, 55
1, 161041, Control_c, 0, 64, 72
1, 161057, Control_c, 0, 64, 81
1, 161068, Note_off_c, 0, 46, 64
1, 161072, Control_c, 0, 64, 90
1, 161076, Note_off_c, 0, 61, 53
1, 161087, Control_c, 0, 64, 94
1, 161101, Control_c, 0, 64, 97
1, 161116, Control_c, 0, 64, 98
1, 161131, Control_c, 0, 64, 99
1, 161135, Note_on_c, 0, 66, 69
1, 161143, Note_off_c, 0, 64, 57
1, 161146, Control_c, 0, 64, 99
1, 161203, Note_off_c, 0, 66, 64
1, 161206, Note_on_c, 0, 61, 65
1, 161209, Note_on_c, 0, 49, 72
1, 161215, Note_on_c, 0, 64, 69
1, 161220, Control_c, 0, 64, 99
1, 161235, Control_c, 0, 64, 96
1, 161249, Control_c, 0, 64, 88
1, 161252, Note_off_c, 0, 61, 59
1, 161264, Control_c, 0, 64, 77
1, 161269, Note_off_c, 0, 49, 62
1, 161274, Note_on_c, 0, 47, 73
1, 161279, Control_c, 0, 64, 59
1, 161293, Note_on_c, 0, 66, 70
1, 161294, Control_c, 0, 64, 0
1, 161296, Note_off_c, 0, 64, 63
1, 161348, Note_on_c, 0, 46, 80
1, 161351, Note_off_c, 0, 47, 65
1, 161354, Note_off_c, 0, 66, 67
1, 161356, Note_on_c, 0, 61, 68
1, 161358, Note_on_c, 0, 64, 62
1, 161401, Note_off_c, 0, 61, 58
1, 161437, Note_on_c, 0, 66, 72
1, 161438, Note_on_c, 0, 47, 62
1, 161444, Note_off_c, 0, 46, 60
1, 161445, Note_off_c, 0, 64, 64
1, 161500, Note_off_c, 0, 66, 66
1, 161503, Note_on_c, 0, 61, 70
1, 161512, Note_on_c, 0, 49, 73
1, 161513, Note_off_c, 0, 47, 64
1, 161517, Note_on_c, 0, 64, 61
1, 161534, Note_off_c, 0, 61, 61
1, 161585, Note_on_c, 0, 66, 83
1, 161591, Note_off_c, 0, 49, 61
1, 161595, Note_on_c, 0, 46, 70
1, 161615, Note_off_c, 0, 64, 63
1, 161671, Note_on_c, 0, 47, 84
1, 161677, Note_off_c, 0, 66, 64
1, 161679, Note_on_c, 0, 59, 71
1, 161681, Note_on_c, 0, 62, 72
1, 161695, Note_off_c, 0, 46, 64
1, 161707, Note_off_c, 0, 47, 68
1, 161739, Note_off_c, 0, 59, 60
1, 161769, Note_on_c, 0, 66, 71
1, 161769, Note_off_c, 0, 62, 63
1, 161820, Note_off_c, 0, 66, 61
1, 161841, Note_on_c, 0, 50, 89
1, 161844, Note_on_c, 0, 62, 68
1, 161850, Note_on_c, 0, 59, 64
1, 161887, Note_off_c, 0, 59, 57
1, 161911, Note_off_c, 0, 62, 62
1, 161913, Note_on_c, 0, 66, 76
1, 161968, Control_c, 0, 64, 54
1, 161983, Control_c, 0, 64, 66
1, 161993, Note_on_c, 0, 59, 68
1, 161993, Note_off_c, 0, 66, 64
1, 161996, Note_on_c, 0, 65, 73
1, 161997, Control_c, 0, 64, 73
1, 162012, Control_c, 0, 64, 81
1, 162022, Note_off_c, 0, 50, 53
1, 162027, Control_c, 0, 64, 87
1, 162042, Control_c, 0, 64, 89
1, 162065, Note_off_c, 0, 59, 58
1, 162086, Control_c, 0, 64, 88
1, 162092, Note_off_c, 0, 65, 64
1, 162092, Note_on_c, 0, 68, 75
1, 162101, Control_c, 0, 64, 84
1, 162115, Control_c, 0, 64, 75
1, 162130, Control_c, 0, 64, 61
1, 162145, Control_c, 0, 64, 0
1, 162147, Note_on_c, 0, 50, 78
1, 162169, Note_off_c, 0, 68, 57
1, 162185, Note_on_c, 0, 65, 53
1, 162187, Note_on_c, 0, 59, 39
1, 162199, Note_off_c, 0, 50, 61
1, 162215, Note_off_c, 0, 59, 51
1, 162227, Note_off_c, 0, 65, 65
1, 162228, Note_on_c, 0, 68, 56
1, 162275, Note_off_c, 0, 68, 64
1, 162315, Note_on_c, 0, 67, 76
1, 162320, Note_on_c, 0, 49, 89
1, 162322, Note_on_c, 0, 64, 65
1, 162353, Control_c, 0, 64, 48
1, 162372, Note_off_c, 0, 49, 63
1, 162375, Control_c, 0, 64, 68
1, 162378, Note_off_c, 0, 64, 61
1, 162390, Control_c, 0, 64, 76
1, 162405, Control_c, 0, 64, 84
1, 162419, Control_c, 0, 64, 90
1, 162434, Control_c, 0, 64, 94
1, 162445, Note_off_c, 0, 67, 59
1, 162449, Control_c, 0, 64, 96
1, 162455, Note_on_c, 0, 69, 59
1, 162464, Control_c, 0, 64, 98
1, 162479, Control_c, 0, 64, 99
1, 162494, Control_c, 0, 64, 99
1, 162497, Note_on_c, 0, 52, 73
1, 162509, Note_on_c, 0, 64, 64
1, 162509, Control_c, 0, 64, 100
1, 162518, Note_off_c, 0, 69, 63
1, 162528, Note_on_c, 0, 67, 64
1, 162554, Note_off_c, 0, 64, 61
1, 162562, Note_off_c, 0, 52, 66
1, 162563, Note_on_c, 0, 50, 76
1, 162583, Control_c, 0, 64, 99
1, 162597, Control_c, 0, 64, 96
1, 162598, Note_on_c, 0, 69, 78
1, 162598, Note_off_c, 0, 67, 60
1, 162612, Control_c, 0, 64, 90
1, 162627, Control_c, 0, 64, 79
1, 162642, Note_off_c, 0, 50, 62
1, 162642, Control_c, 0, 64, 58
1, 162649, Note_on_c, 0, 49, 78
1, 162658, Control_c, 0, 64, 0
1, 162662, Note_off_c, 0, 69, 65
1, 162672, Note_on_c, 0, 64, 59
1, 162678, Note_on_c, 0, 67, 66
1, 162706, Note_off_c, 0, 64, 65
1, 162741, Note_off_c, 0, 49, 62
1, 162748, Note_on_c, 0, 50, 53
1, 162752, Note_off_c, 0, 67, 62
1, 162754, Note_on_c, 0, 69, 74
1, 162816, Note_on_c, 0, 52, 67
1, 162817, Note_off_c, 0, 69, 65
1, 162819, Note_on_c, 0, 64, 62
1, 162824, Note_off_c, 0, 50, 60
1, 162829, Note_on_c, 0, 67, 69
1, 162864, Note_off_c, 0, 64, 64
1, 162882, Note_on_c, 0, 49, 73
1, 162899, Note_off_c, 0, 52, 59
1, 162900, Note_on_c, 0, 69, 78
1, 162920, Note_off_c, 0, 67, 56
1, 162976, Note_off_c, 0, 69, 62
1, 162978, Note_on_c, 0, 50, 82
1, 162985, Note_on_c, 0, 65, 74
1, 162989, Note_on_c, 0, 62, 69
1, 162989, Note_off_c, 0, 49, 62
1, 163016, Note_off_c, 0, 50, 66
1, 163030, Note_off_c, 0, 62, 60
1, 163062, Note_off_c, 0, 65, 64
1, 163071, Note_on_c, 0, 69, 77
1, 163157, Note_on_c, 0, 53, 87
1, 163157, Note_on_c, 0, 62, 68
1, 163160, Note_off_c, 0, 69, 63
1, 163167, Note_on_c, 0, 65, 72
1, 163205, Note_off_c, 0, 62, 60
1, 163241, Note_on_c, 0, 69, 69
1, 163241, Note_off_c, 0, 65, 63
1, 163312, Note_on_c, 0, 62, 68
1, 163321, Note_off_c, 0, 69, 64
1, 163332, Note_on_c, 0, 65, 67
1, 163374, Note_off_c, 0, 62, 59
1, 163376, Control_c, 0, 64, 41
1, 163377, Note_off_c, 0, 53, 60
1, 163391, Control_c, 0, 64, 63
1, 163403, Note_on_c, 0, 69, 71
1, 163406, Control_c, 0, 64, 70
1, 163409, Note_off_c, 0, 65, 64
1, 163421, Control_c, 0, 64, 75
1, 163436, Control_c, 0, 64, 81
1, 163451, Control_c, 0, 64, 84
1, 163466, Control_c, 0, 64, 85
1, 163476, Note_off_c, 0, 69, 65
1, 163478, Note_on_c, 0, 53, 86
1, 163478, Note_on_c, 0, 62, 59
1, 163480, Note_on_c, 0, 65, 74
1, 163481, Control_c, 0, 64, 86
1, 163496, Control_c, 0, 64, 86
1, 163510, Control_c, 0, 64, 87
1, 163522, Note_off_c, 0, 62, 56
1, 163528, Note_off_c, 0, 53, 63
1, 163550, Note_off_c, 0, 65, 64
1, 163561, Note_on_c, 0, 69, 72
1, 163628, Note_off_c, 0, 69, 63
1, 163652, Note_on_c, 0, 53, 92
1, 163652, Note_on_c, 0, 62, 75
1, 163674, Control_c, 0, 64, 86
1, 163689, Control_c, 0, 64, 83
1, 163703, Control_c, 0, 64, 77
1, 163718, Control_c, 0, 64, 68
1, 163733, Control_c, 0, 64, 0
1, 163739, Note_on_c, 0, 71, 65
1, 163740, Note_off_c, 0, 62, 56
1, 163803, Note_off_c, 0, 53, 58
1, 163806, Note_off_c, 0, 71, 59
1, 163807, Note_on_c, 0, 43, 72
1, 163823, Note_on_c, 0, 67, 66
1, 163889, Note_off_c, 0, 67, 62
1, 163909, Note_on_c, 0, 71, 64
1, 163948, Control_c, 0, 64, 38
1, 163963, Control_c, 0, 64, 63
1, 163977, Control_c, 0, 64, 68
1, 163978, Note_off_c, 0, 71, 57
1, 163992, Control_c, 0, 64, 71
1, 163994, Note_on_c, 0, 64, 69
1, 164007, Control_c, 0, 64, 74
1, 164021, Control_c, 0, 64, 75
1, 164065, Note_off_c, 0, 64, 58
1, 164066, Control_c, 0, 64, 75
1, 164080, Note_on_c, 0, 72, 66
1, 164081, Control_c, 0, 64, 73
1, 164086, Note_off_c, 0, 43, 56
1, 164095, Control_c, 0, 64, 69
1, 164110, Control_c, 0, 64, 61
1, 164125, Control_c, 0, 64, 0
1, 164127, Note_off_c, 0, 72, 62
1, 164154, Note_on_c, 0, 67, 70
1, 164165, Note_on_c, 0, 52, 82
1, 164215, Note_off_c, 0, 67, 61
1, 164216, Note_on_c, 0, 72, 70
1, 164224, Note_off_c, 0, 52, 62
1, 164298, Note_off_c, 0, 72, 64
1, 164325, Note_on_c, 0, 52, 88
1, 164326, Note_on_c, 0, 61, 78
1, 164408, Control_c, 0, 64, 44
1, 164411, Note_off_c, 0, 61, 56
1, 164413, Note_on_c, 0, 70, 67
1, 164423, Control_c, 0, 64, 65
1, 164438, Control_c, 0, 64, 70
1, 164452, Control_c, 0, 64, 77
1, 164467, Control_c, 0, 64, 81
1, 164476, Note_off_c, 0, 70, 61
1, 164482, Control_c, 0, 64, 82
1, 164489, Note_on_c, 0, 42, 74
1, 164491, Note_on_c, 0, 66, 67
1, 164497, Control_c, 0, 64, 83
1, 164506, Note_off_c, 0, 52, 56
1, 164542, Note_off_c, 0, 66, 62
1, 164562, Note_on_c, 0, 70, 70
1, 164586, Control_c, 0, 64, 82
1, 164600, Control_c, 0, 64, 79
1, 164622, Control_c, 0, 64, 70
1, 164637, Control_c, 0, 64, 0
1, 164644, Note_off_c, 0, 70, 54
1, 164657, Note_on_c, 0, 62, 75
1, 164736, Note_off_c, 0, 62, 59
1, 164742, Note_on_c, 0, 71, 62
1, 164771, Control_c, 0, 64, 47
1, 164786, Control_c, 0, 64, 61
1, 164793, Note_off_c, 0, 42, 63
1, 164800, Control_c, 0, 64, 65
1, 164806, Note_off_c, 0, 71, 61
1, 164809, Note_on_c, 0, 66, 77
1, 164815, Control_c, 0, 64, 66
1, 164816, Note_on_c, 0, 50, 76
1, 164830, Control_c, 0, 64, 67
1, 164844, Control_c, 0, 64, 69
1, 164845, Note_off_c, 0, 50, 66
1, 164859, Control_c, 0, 64, 70
1, 164879, Note_off_c, 0, 66, 66
1, 164885, Note_on_c, 0, 71, 68
1, 164889, Control_c, 0, 64, 69
1, 164904, Control_c, 0, 64, 64
1, 164918, Control_c, 0, 64, 0
1, 164966, Note_off_c, 0, 71, 61
1, 164974, Note_on_c, 0, 50, 90
1, 164998, Note_on_c, 0, 59, 65
1, 165037, Control_c, 0, 64, 47
1, 165053, Control_c, 0, 64, 63
1, 165062, Note_on_c, 0, 68, 76
1, 165062, Note_off_c, 0, 59, 58
1, 165067, Control_c, 0, 64, 67
1, 165082, Control_c, 0, 64, 71
1, 165097, Control_c, 0, 64, 75
1, 165112, Control_c, 0, 64, 79
1, 165127, Control_c, 0, 64, 82
1, 165129, Note_off_c, 0, 50, 54
1, 165139, Note_on_c, 0, 40, 74
1, 165140, Note_off_c, 0, 68, 62
1, 165141, Control_c, 0, 64, 84
1, 165150, Note_on_c, 0, 64, 69
1, 165156, Control_c, 0, 64, 84
1, 165171, Control_c, 0, 64, 85
1, 165204, Note_off_c, 0, 64, 62
1, 165220, Note_on_c, 0, 68, 70
1, 165230, Control_c, 0, 64, 84
1, 165245, Control_c, 0, 64, 80
1, 165260, Control_c, 0, 64, 69
1, 165275, Control_c, 0, 64, 0
1, 165292, Note_off_c, 0, 68, 59
1, 165305, Note_on_c, 0, 60, 71
1, 165371, Control_c, 0, 64, 25
1, 165382, Note_off_c, 0, 60, 59
1, 165384, Note_on_c, 0, 69, 71
1, 165386, Control_c, 0, 64, 57
1, 165400, Note_off_c, 0, 40, 62
1, 165400, Control_c, 0, 64, 64
1, 165415, Control_c, 0, 64, 68
1, 165430, Control_c, 0, 64, 72
1, 165445, Control_c, 0, 64, 76
1, 165454, Note_off_c, 0, 69, 64
1, 165457, Note_on_c, 0, 48, 83
1, 165460, Control_c, 0, 64, 78
1, 165464, Note_on_c, 0, 64, 71
1, 165474, Control_c, 0, 64, 78
1, 165489, Control_c, 0, 64, 79
1, 165498, Note_off_c, 0, 48, 64
1, 165524, Note_off_c, 0, 64, 63
1, 165538, Note_on_c, 0, 69, 77
1, 165563, Control_c, 0, 64, 77
1, 165578, Control_c, 0, 64, 68
1, 165593, Control_c, 0, 64, 0
1, 165598, Note_off_c, 0, 69, 64
1, 165618, Note_on_c, 0, 48, 85
1, 165627, Note_on_c, 0, 57, 76
1, 165681, Control_c, 0, 64, 30
1, 165696, Note_on_c, 0, 66, 66
1, 165696, Control_c, 0, 64, 62
1, 165698, Note_off_c, 0, 57, 57
1, 165711, Control_c, 0, 64, 66
1, 165726, Control_c, 0, 64, 70
1, 165740, Control_c, 0, 64, 75
1, 165755, Control_c, 0, 64, 81
1, 165770, Control_c, 0, 64, 85
1, 165771, Note_off_c, 0, 66, 63
1, 165779, Note_on_c, 0, 62, 66
1, 165782, Note_on_c, 0, 38, 72
1, 165785, Control_c, 0, 64, 88
1, 165800, Control_c, 0, 64, 90
1, 165815, Control_c, 0, 64, 92
1, 165826, Note_off_c, 0, 62, 58
1, 165830, Control_c, 0, 64, 95
1, 165834, Note_off_c, 0, 38, 58
1, 165839, Note_off_c, 0, 48, 0
1, 165839, Note_on_c, 0, 48, 5
1, 165845, Control_c, 0, 64, 99
1, 165848, Note_on_c, 0, 66, 73
1, 165860, Control_c, 0, 64, 102
1, 165861, Note_off_c, 0, 48, 54
1, 165875, Control_c, 0, 64, 103
1, 165904, Control_c, 0, 64, 101
1, 165909, Note_off_c, 0, 66, 65
1, 165919, Control_c, 0, 64, 91
1, 165931, Note_on_c, 0, 55, 82
1, 165934, Control_c, 0, 64, 73
1, 165949, Note_on_c, 0, 40, 61
1, 165949, Control_c, 0, 64, 0
1, 165986, Note_off_c, 0, 55, 64
1, 166008, Control_c, 0, 64, 58
1, 166009, Note_on_c, 0, 67, 73
1, 166023, Control_c, 0, 64, 70
1, 166032, Note_off_c, 0, 67, 68
1, 166038, Control_c, 0, 64, 79
1, 166053, Control_c, 0, 64, 92
1, 166066, Note_on_c, 0, 47, 71
1, 166068, Control_c, 0, 64, 105
1, 166083, Control_c, 0, 64, 127
1, 166094, Note_on_c, 0, 67, 80
1, 166098, Note_off_c, 0, 40, 63
1, 166125, Note_off_c, 0, 47, 61
1, 166154, Note_off_c, 0, 67, 62
1, 166169, Note_on_c, 0, 79, 81
1, 166195, Note_off_c, 0, 79, 63
1, 166253, Control_c, 0, 64, 108
1, 166259, Note_on_c, 0, 64, 82
1, 166266, Note_on_c, 0, 36, 73
1, 166268, Control_c, 0, 64, 85
1, 166269, Note_on_c, 0, 47, 77
1, 166283, Control_c, 0, 64, 0
1, 166322, Note_off_c, 0, 64, 59
1, 166332, Note_on_c, 0, 76, 80
1, 166340, Note_off_c, 0, 47, 61
1, 166357, Control_c, 0, 64, 59
1, 166372, Control_c, 0, 64, 67
1, 166387, Control_c, 0, 64, 74
1, 166391, Note_off_c, 0, 76, 66
1, 166402, Control_c, 0, 64, 85
1, 166415, Note_on_c, 0, 45, 71
1, 166417, Control_c, 0, 64, 100
1, 166419, Note_on_c, 0, 64, 83
1, 166432, Control_c, 0, 64, 125
1, 166447, Control_c, 0, 64, 127
1, 166468, Note_off_c, 0, 64, 64
1, 166489, Note_on_c, 0, 76, 72
1, 166490, Note_off_c, 0, 45, 62
1, 166512, Note_off_c, 0, 76, 70
1, 166578, Note_on_c, 0, 43, 73
1, 166590, Note_on_c, 0, 57, 86
1, 166610, Control_c, 0, 64, 119
1, 166620, Note_off_c, 0, 43, 61
1, 166624, Control_c, 0, 64, 90
1, 166640, Control_c, 0, 64, 65
1, 166646, Note_off_c, 0, 57, 61
1, 166655, Control_c, 0, 64, 0
1, 166679, Note_on_c, 0, 71, 75
1, 166700, Control_c, 0, 64, 58
1, 166711, Note_off_c, 0, 71, 60
1, 166714, Control_c, 0, 64, 73
1, 166729, Control_c, 0, 64, 87
1, 166736, Note_off_c, 0, 36, 61
1, 166744, Control_c, 0, 64, 107
1, 166745, Note_on_c, 0, 42, 65
1, 166759, Control_c, 0, 64, 127
1, 166766, Note_on_c, 0, 62, 78
1, 166786, Note_off_c, 0, 42, 62
1, 166821, Note_on_c, 0, 74, 79
1, 166824, Note_off_c, 0, 62, 60
1, 166852, Note_off_c, 0, 74, 62
1, 166915, Control_c, 0, 64, 104
1, 166929, Control_c, 0, 64, 78
1, 166944, Control_c, 0, 64, 0
1, 166967, Note_on_c, 0, 55, 71
1, 166969, Note_on_c, 0, 31, 57
1, 166980, Note_on_c, 0, 67, 62
1, 166986, Note_on_c, 0, 43, 48
1, 166994, Note_off_c, 0, 55, 65
1, 166999, Note_off_c, 0, 31, 63
1, 167017, Note_off_c, 0, 43, 61
1, 167018, Control_c, 0, 64, 64
1, 167033, Control_c, 0, 64, 75
1, 167034, Note_off_c, 0, 67, 61
1, 167047, Control_c, 0, 64, 97
1, 167062, Control_c, 0, 64, 127
1, 167147, Note_on_c, 0, 59, 64
1, 167147, Note_on_c, 0, 71, 72
1, 167151, Control_c, 0, 64, 103
1, 167166, Control_c, 0, 64, 85
1, 167170, Note_off_c, 0, 59, 62
1, 167180, Note_on_c, 0, 55, 15
1, 167181, Control_c, 0, 64, 65
1, 167195, Control_c, 0, 64, 0
1, 167213, Note_off_c, 0, 55, 41
1, 167310, Note_on_c, 0, 59, 59
1, 167311, Note_on_c, 0, 55, 53
1, 167319, Note_off_c, 0, 71, 59
1, 167346, Note_off_c, 0, 59, 61
1, 167346, Note_off_c, 0, 55, 64
1, 167480, Note_on_c, 0, 59, 55
1, 167487, Note_on_c, 0, 71, 60
1, 167502, Note_off_c, 0, 59, 61
1, 167519, Note_on_c, 0, 55, 11
1, 167567, Note_off_c, 0, 55, 27
1, 167641, Note_off_c, 0, 71, 59
1, 167660, Note_on_c, 0, 70, 72
1, 167663, Control_c, 0, 64, 55
1, 167665, Note_on_c, 0, 42, 60
1, 167678, Control_c, 0, 64, 67
1, 167693, Control_c, 0, 64, 80
1, 167699, Note_off_c, 0, 42, 63
1, 167708, Control_c, 0, 64, 113
1, 167722, Note_off_c, 0, 70, 59
1, 167722, Control_c, 0, 64, 127
1, 167831, Note_on_c, 0, 58, 58
1, 167837, Note_on_c, 0, 73, 66
1, 167840, Note_on_c, 0, 61, 50
1, 167846, Note_on_c, 0, 54, 47
1, 167869, Note_off_c, 0, 61, 52
1, 167872, Note_off_c, 0, 58, 61
1, 167877, Note_off_c, 0, 54, 57
1, 167885, Control_c, 0, 64, 124
1, 167900, Control_c, 0, 64, 103
1, 167907, Note_on_c, 0, 71, 66
1, 167915, Control_c, 0, 64, 88
1, 167930, Control_c, 0, 64, 71
1, 167944, Control_c, 0, 64, 0
1, 167945, Note_off_c, 0, 73, 40
1, 167983, Note_on_c, 0, 70, 71
1, 167985, Note_off_c, 0, 71, 59
1, 167994, Note_on_c, 0, 54, 49
1, 167995, Note_on_c, 0, 58, 57
1, 168006, Note_on_c, 0, 61, 35
1, 168029, Note_off_c, 0, 54, 60
1, 168035, Note_off_c, 0, 58, 63
1, 168038, Note_off_c, 0, 61, 51
1, 168055, Note_on_c, 0, 71, 65
1, 168102, Note_off_c, 0, 70, 34
1, 168134, Note_on_c, 0, 73, 70
1, 168137, Note_on_c, 0, 58, 53
1, 168140, Note_on_c, 0, 61, 40
1, 168140, Note_off_c, 0, 71, 60
1, 168146, Note_on_c, 0, 54, 46
1, 168165, Note_off_c, 0, 61, 57
1, 168172, Note_off_c, 0, 58, 65
1, 168173, Note_off_c, 0, 54, 60
1, 168205, Note_on_c, 0, 70, 75
1, 168229, Note_off_c, 0, 73, 59
1, 168269, Note_off_c, 0, 70, 63
1, 168295, Note_on_c, 0, 71, 70
1, 168308, Note_on_c, 0, 47, 53
1, 168316, Control_c, 0, 64, 39
1, 168331, Control_c, 0, 64, 68
1, 168337, Note_off_c, 0, 47, 54
1, 168343, Note_off_c, 0, 71, 60
1, 168346, Control_c, 0, 64, 81
1, 168367, Control_c, 0, 64, 99
1, 168382, Control_c, 0, 64, 123
1, 168397, Control_c, 0, 64, 127
1, 168476, Note_on_c, 0, 59, 59
1, 168479, Note_on_c, 0, 74, 77
1, 168483, Note_on_c, 0, 62, 47
1, 168486, Control_c, 0, 64, 123
1, 168501, Control_c, 0, 64, 105
1, 168510, Note_off_c, 0, 59, 62
1, 168515, Control_c, 0, 64, 88
1, 168516, Note_off_c, 0, 62, 56
1, 168530, Control_c, 0, 64, 68
1, 168545, Control_c, 0, 64, 0
1, 168644, Note_on_c, 0, 59, 60
1, 168646, Note_on_c, 0, 62, 53
1, 168674, Note_off_c, 0, 74, 60
1, 168678, Note_off_c, 0, 59, 62
1, 168692, Note_off_c, 0, 62, 57
1, 168799, Note_on_c, 0, 62, 51
1, 168802, Note_on_c, 0, 74, 66
1, 168807, Note_on_c, 0, 59, 53
1, 168824, Note_off_c, 0, 62, 59
1, 168833, Note_off_c, 0, 59, 61
1, 168964, Note_off_c, 0, 74, 62
1, 168980, Note_on_c, 0, 73, 70
1, 169004, Control_c, 0, 64, 58
1, 169014, Note_on_c, 0, 45, 12
1, 169019, Control_c, 0, 64, 70
1, 169035, Control_c, 0, 64, 81
1, 169044, Note_off_c, 0, 73, 60
1, 169050, Control_c, 0, 64, 98
1, 169061, Note_off_c, 0, 45, 55
1, 169064, Control_c, 0, 64, 118
1, 169079, Control_c, 0, 64, 127
1, 169163, Note_on_c, 0, 76, 64
1, 169167, Note_on_c, 0, 61, 53
1, 169174, Note_on_c, 0, 64, 40
1, 169199, Note_on_c, 0, 57, 28
1, 169203, Note_off_c, 0, 61, 61
1, 169209, Note_off_c, 0, 64, 52
1, 169229, Note_on_c, 0, 74, 71
1, 169236, Note_off_c, 0, 57, 42
1, 169236, Note_off_c, 0, 76, 63
1, 169236, Control_c, 0, 64, 122
1, 169250, Control_c, 0, 64, 111
1, 169265, Control_c, 0, 64, 95
1, 169280, Control_c, 0, 64, 78
1, 169295, Control_c, 0, 64, 25
1, 169301, Note_off_c, 0, 74, 63
1, 169306, Note_on_c, 0, 73, 76
1, 169310, Control_c, 0, 64, 0
1, 169320, Note_on_c, 0, 61, 50
1, 169321, Note_on_c, 0, 64, 46
1, 169329, Note_on_c, 0, 57, 46
1, 169353, Note_off_c, 0, 61, 63
1, 169353, Note_off_c, 0, 64, 58
1, 169354, Note_off_c, 0, 57, 58
1, 169375, Note_off_c, 0, 73, 64
1, 169386, Note_on_c, 0, 74, 66
1, 169454, Note_off_c, 0, 74, 63
1, 169454, Note_on_c, 0, 76, 75
1, 169467, Note_on_c, 0, 61, 41
1, 169471, Note_on_c, 0, 57, 19
1, 169478, Note_on_c, 0, 64, 23
1, 169504, Note_off_c, 0, 61, 63
1, 169505, Note_off_c, 0, 64, 46
1, 169508, Note_off_c, 0, 57, 61
1, 169526, Note_off_c, 0, 76, 64
1, 169530, Note_on_c, 0, 73, 75
1, 169595, Note_off_c, 0, 73, 62
1, 169634, Note_on_c, 0, 50, 61
1, 169637, Note_on_c, 0, 74, 65
1, 169660, Note_off_c, 0, 50, 65
1, 169680, Control_c, 0, 64, 59
1, 169687, Note_off_c, 0, 74, 64
1, 169695, Control_c, 0, 64, 70
1, 169709, Control_c, 0, 64, 82
1, 169724, Control_c, 0, 64, 98
1, 169739, Control_c, 0, 64, 109
1, 169754, Control_c, 0, 64, 115
1, 169769, Control_c, 0, 64, 117
1, 169783, Control_c, 0, 64, 118
1, 169802, Note_on_c, 0, 62, 57
1, 169804, Note_on_c, 0, 77, 69
1, 169819, Note_on_c, 0, 65, 48
1, 169828, Control_c, 0, 64, 116
1, 169844, Control_c, 0, 64, 104
1, 169848, Note_off_c, 0, 62, 57
1, 169862, Note_off_c, 0, 65, 57
1, 169866, Control_c, 0, 64, 87
1, 169881, Control_c, 0, 64, 66
1, 169895, Control_c, 0, 64, 0
1, 169969, Control_c, 0, 64, 53
1, 169984, Control_c, 0, 64, 66
1, 169989, Note_on_c, 0, 62, 48
1, 169989, Note_on_c, 0, 65, 42
1, 169999, Control_c, 0, 64, 75
1, 170013, Note_off_c, 0, 77, 56
1, 170013, Control_c, 0, 64, 93
1, 170016, Note_off_c, 0, 62, 60
1, 170028, Control_c, 0, 64, 110
1, 170036, Note_off_c, 0, 65, 54
1, 170043, Control_c, 0, 64, 127
1, 170131, Note_on_c, 0, 62, 52
1, 170141, Note_on_c, 0, 65, 30
1, 170141, Note_on_c, 0, 77, 62
1, 170157, Note_off_c, 0, 62, 63
1, 170171, Note_off_c, 0, 65, 52
1, 170182, Note_off_c, 0, 77, 55
1, 170316, Note_on_c, 0, 77, 68
1, 170331, Note_on_c, 0, 47, 59
1, 170339, Control_c, 0, 64, 110
1, 170354, Control_c, 0, 64, 89
1, 170363, Note_off_c, 0, 47, 64
1, 170369, Control_c, 0, 64, 70
1, 170383, Control_c, 0, 64, 0
1, 170413, Control_c, 0, 64, 52
1, 170418, Note_on_c, 0, 67, 62
1, 170428, Control_c, 0, 64, 71
1, 170443, Control_c, 0, 64, 86
1, 170457, Control_c, 0, 64, 104
1, 170470, Note_on_c, 0, 62, 50
1, 170472, Control_c, 0, 64, 122
1, 170478, Note_on_c, 0, 59, 50
1, 170483, Note_off_c, 0, 67, 62
1, 170487, Control_c, 0, 64, 127
1, 170489, Note_on_c, 0, 66, 71
1, 170501, Note_off_c, 0, 59, 58
1, 170504, Note_off_c, 0, 62, 49
1, 170557, Note_off_c, 0, 66, 64
1, 170559, Note_on_c, 0, 67, 73
1, 170599, Note_off_c, 0, 67, 60
1, 170647, Note_off_c, 0, 77, 60
1, 170659, Control_c, 0, 64, 105
1, 170668, Note_on_c, 0, 48, 71
1, 170671, Note_on_c, 0, 67, 73
1, 170674, Control_c, 0, 64, 77
1, 170688, Control_c, 0, 64, 0
1, 170698, Note_off_c, 0, 48, 65
1, 170739, Note_on_c, 0, 76, 73
1, 170742, Note_off_c, 0, 67, 57
1, 170748, Control_c, 0, 64, 68
1, 170762, Control_c, 0, 64, 81
1, 170777, Control_c, 0, 64, 100
1, 170792, Control_c, 0, 64, 117
1, 170803, Note_on_c, 0, 64, 39
1, 170806, Note_on_c, 0, 60, 49
1, 170807, Control_c, 0, 64, 127
1, 170820, Note_off_c, 0, 76, 66
1, 170822, Note_on_c, 0, 75, 77
1, 170829, Note_off_c, 0, 60, 59
1, 170832, Note_off_c, 0, 64, 49
1, 170907, Note_off_c, 0, 75, 63
1, 170911, Note_on_c, 0, 76, 71
1, 170936, Note_off_c, 0, 76, 67
1, 170984, Control_c, 0, 64, 109
1, 170987, Note_on_c, 0, 46, 78
1, 170988, Note_on_c, 0, 76, 87
1, 170999, Control_c, 0, 64, 84
1, 171013, Control_c, 0, 64, 54
1, 171019, Note_off_c, 0, 46, 65
1, 171028, Control_c, 0, 64, 0
1, 171073, Control_c, 0, 64, 65
1, 171080, Note_on_c, 0, 66, 74
1, 171088, Control_c, 0, 64, 79
1, 171103, Control_c, 0, 64, 98
1, 171118, Control_c, 0, 64, 127
1, 171138, Note_on_c, 0, 58, 56
1, 171138, Note_on_c, 0, 61, 51
1, 171140, Note_off_c, 0, 66, 65
1, 171145, Note_on_c, 0, 65, 75
1, 171169, Note_off_c, 0, 61, 64
1, 171173, Note_off_c, 0, 58, 65
1, 171218, Note_off_c, 0, 65, 60
1, 171231, Note_on_c, 0, 66, 75
1, 171256, Note_off_c, 0, 66, 66
1, 171318, Note_on_c, 0, 47, 80
1, 171320, Note_off_c, 0, 76, 64
1, 171325, Control_c, 0, 64, 97
1, 171326, Note_on_c, 0, 66, 85
1, 171340, Control_c, 0, 64, 69
1, 171350, Note_off_c, 0, 47, 67
1, 171362, Control_c, 0, 64, 0
1, 171410, Note_on_c, 0, 74, 78
1, 171420, Control_c, 0, 64, 33
1, 171436, Control_c, 0, 64, 66
1, 171444, Note_off_c, 0, 66, 61
1, 171451, Control_c, 0, 64, 76
1, 171466, Control_c, 0, 64, 89
1, 171467, Note_on_c, 0, 62, 54
1, 171473, Note_on_c, 0, 59, 47
1, 171481, Control_c, 0, 64, 105
1, 171490, Note_on_c, 0, 73, 84
1, 171490, Note_off_c, 0, 62, 59
1, 171496, Control_c, 0, 64, 127
1, 171498, Note_off_c, 0, 59, 55
1, 171499, Note_off_c, 0, 74, 62
1, 171577, Note_on_c, 0, 74, 82
1, 171582, Note_off_c, 0, 73, 64
1, 171602, Note_off_c, 0, 74, 64
1, 171657, Note_on_c, 0, 44, 76
1, 171658, Control_c, 0, 64, 97
1, 171664, Note_on_c, 0, 74, 85
1, 171673, Control_c, 0, 64, 72
1, 171685, Note_off_c, 0, 44, 66
1, 171688, Control_c, 0, 64, 0
1, 171732, Control_c, 0, 64, 35
1, 171747, Note_on_c, 0, 64, 74
1, 171747, Control_c, 0, 64, 71
1, 171762, Control_c, 0, 64, 86
1, 171777, Control_c, 0, 64, 107
1, 171791, Control_c, 0, 64, 127
1, 171814, Note_on_c, 0, 63, 82
1, 171815, Note_off_c, 0, 64, 63
1, 171836, Note_on_c, 0, 59, 32
1, 171870, Note_off_c, 0, 59, 49
1, 171884, Note_off_c, 0, 63, 64
1, 171888, Note_on_c, 0, 64, 73
1, 171923, Note_off_c, 0, 64, 66
1, 171940, Control_c, 0, 64, 116
1, 171955, Control_c, 0, 64, 89
1, 171970, Control_c, 0, 64, 64
1, 171970, Note_off_c, 0, 74, 60
1, 171984, Control_c, 0, 64, 0
1, 171985, Note_on_c, 0, 64, 79
1, 171986, Note_on_c, 0, 45, 77
1, 172016, Note_off_c, 0, 45, 69
1, 172028, Control_c, 0, 64, 10
1, 172043, Control_c, 0, 64, 68
1, 172058, Control_c, 0, 64, 79
1, 172066, Note_on_c, 0, 72, 80
1, 172073, Control_c, 0, 64, 96
1, 172081, Note_off_c, 0, 64, 62
1, 172088, Control_c, 0, 64, 112
1, 172110, Control_c, 0, 64, 124
1, 172125, Control_c, 0, 64, 127
1, 172130, Note_on_c, 0, 57, 64
1, 172156, Note_off_c, 0, 57, 65
1, 172161, Note_off_c, 0, 72, 64
1, 172162, Note_on_c, 0, 74, 84
1, 172228, Control_c, 0, 64, 112
1, 172242, Note_on_c, 0, 72, 83
1, 172242, Note_off_c, 0, 74, 63
1, 172244, Control_c, 0, 64, 90
1, 172258, Control_c, 0, 64, 66
1, 172273, Control_c, 0, 64, 0
1, 172292, Note_off_c, 0, 72, 65
1, 172298, Note_on_c, 0, 42, 87
1, 172307, Note_on_c, 0, 62, 80
1, 172332, Control_c, 0, 64, 47
1, 172333, Note_off_c, 0, 42, 66
1, 172347, Control_c, 0, 64, 69
1, 172362, Control_c, 0, 64, 80
1, 172377, Control_c, 0, 64, 94
1, 172383, Note_on_c, 0, 72, 85
1, 172388, Note_off_c, 0, 62, 56
1, 172392, Control_c, 0, 64, 111
1, 172406, Control_c, 0, 64, 123
1, 172421, Control_c, 0, 64, 127
1, 172463, Note_off_c, 0, 72, 63
1, 172467, Note_on_c, 0, 74, 80
1, 172477, Note_on_c, 0, 57, 55
1, 172489, Note_on_c, 0, 54, 50
1, 172512, Note_off_c, 0, 54, 59
1, 172512, Note_off_c, 0, 57, 60
1, 172525, Control_c, 0, 64, 116
1, 172540, Control_c, 0, 64, 96
1, 172546, Note_on_c, 0, 72, 84
1, 172552, Note_off_c, 0, 74, 61
1, 172555, Control_c, 0, 64, 72
1, 172569, Control_c, 0, 64, 0
1, 172603, Note_off_c, 0, 72, 65
1, 172628, Note_on_c, 0, 43, 77
1, 172628, Note_on_c, 0, 62, 85
1, 172644, Control_c, 0, 64, 66
1, 172652, Note_off_c, 0, 43, 65
1, 172658, Control_c, 0, 64, 77
1, 172666, Note_on_c, 0, 45, 35
1, 172673, Control_c, 0, 64, 92
1, 172688, Control_c, 0, 64, 111
1, 172691, Note_off_c, 0, 62, 59
1, 172699, Note_on_c, 0, 71, 79
1, 172700, Note_off_c, 0, 45, 55
1, 172703, Control_c, 0, 64, 127
1, 172755, Note_on_c, 0, 55, 73
1, 172771, Note_off_c, 0, 71, 59
1, 172778, Note_on_c, 0, 72, 85
1, 172779, Note_off_c, 0, 55, 67
1, 172871, Note_on_c, 0, 71, 75
1, 172873, Control_c, 0, 64, 121
1, 172888, Control_c, 0, 64, 96
1, 172899, Note_off_c, 0, 72, 60
1, 172903, Control_c, 0, 64, 72
1, 172918, Control_c, 0, 64, 0
1, 172930, Note_off_c, 0, 71, 60
1, 172935, Note_on_c, 0, 64, 77
1, 172936, Note_on_c, 0, 60, 68
1, 172939, Note_on_c, 0, 36, 77
1, 172971, Note_off_c, 0, 36, 65
1, 172978, Note_off_c, 0, 60, 53
1, 172979, Note_off_c, 0, 64, 63
1, 172992, Control_c, 0, 64, 64
1, 173007, Control_c, 0, 64, 74
1, 173015, Note_on_c, 0, 69, 77
1, 173022, Control_c, 0, 64, 83
1, 173037, Control_c, 0, 64, 90
1, 173052, Control_c, 0, 64, 94
1, 173067, Control_c, 0, 64, 100
1, 173080, Note_off_c, 0, 69, 64
1, 173082, Control_c, 0, 64, 105
1, 173097, Control_c, 0, 64, 113
1, 173100, Note_on_c, 0, 71, 77
1, 173103, Note_on_c, 0, 48, 59
1, 173112, Control_c, 0, 64, 125
1, 173127, Control_c, 0, 64, 127
1, 173167, Note_off_c, 0, 48, 56
1, 173171, Control_c, 0, 64, 117
1, 173175, Note_on_c, 0, 69, 77
1, 173186, Control_c, 0, 64, 92
1, 173201, Control_c, 0, 64, 66
1, 173204, Note_off_c, 0, 71, 60
1, 173213, Note_off_c, 0, 69, 64
1, 173215, Control_c, 0, 64, 0
1, 173255, Note_on_c, 0, 38, 65
1, 173258, Note_on_c, 0, 57, 68
1, 173260, Control_c, 0, 64, 66
1, 173261, Note_on_c, 0, 60, 70
1, 173275, Control_c, 0, 64, 79
1, 173288, Note_off_c, 0, 60, 67
1, 173289, Control_c, 0, 64, 92
1, 173304, Control_c, 0, 64, 95
1, 173321, Note_off_c, 0, 38, 56
1, 173341, Note_on_c, 0, 66, 76
1, 173356, Note_off_c, 0, 57, 53
1, 173363, Control_c, 0, 64, 95
1, 173378, Control_c, 0, 64, 94
1, 173393, Control_c, 0, 64, 90
1, 173407, Control_c, 0, 64, 82
1, 173412, Note_off_c, 0, 66, 64
1, 173422, Control_c, 0, 64, 70
1, 173429, Note_on_c, 0, 67, 69
1, 173437, Control_c, 0, 64, 0
1, 173479, Note_off_c, 0, 67, 51
1, 173502, Note_on_c, 0, 66, 65
1, 173562, Note_off_c, 0, 66, 63
1, 173583, Note_on_c, 0, 43, 50
1, 173586, Note_on_c, 0, 67, 68
1, 173756, Note_on_c, 0, 62, 44
1, 173771, Note_on_c, 0, 50, 40
1, 173771, Note_on_c, 0, 59, 38
1, 173789, Note_off_c, 0, 62, 56
1, 173801, Note_off_c, 0, 50, 51
1, 173817, Note_off_c, 0, 59, 44
1, 173943, Note_on_c, 0, 62, 47
1, 173954, Note_on_c, 0, 50, 43
1, 173971, Note_off_c, 0, 67, 56
1, 173976, Note_off_c, 0, 43, 52
1, 173976, Note_off_c, 0, 62, 57
1, 173981, Note_off_c, 0, 50, 52
1, 174103, Note_on_c, 0, 71, 59
1, 174104, Note_on_c, 0, 50, 34
1, 174140, Note_off_c, 0, 50, 48
1, 174264, Note_off_c, 0, 71, 60
1, 174276, Note_on_c, 0, 69, 55
1, 174281, Note_on_c, 0, 38, 50
1, 174288, Note_on_c, 0, 60, 47
1, 174306, Note_on_c, 0, 62, 25
1, 174331, Note_off_c, 0, 60, 52
1, 174341, Note_off_c, 0, 62, 45
1, 174456, Note_on_c, 0, 62, 49
1, 174457, Note_on_c, 0, 50, 48
1, 174465, Note_on_c, 0, 60, 39
1, 174488, Note_off_c, 0, 50, 55
1, 174494, Note_off_c, 0, 60, 52
1, 174497, Note_off_c, 0, 62, 60
1, 174624, Note_on_c, 0, 50, 48
1, 174629, Note_on_c, 0, 62, 51
1, 174653, Note_off_c, 0, 50, 57
1, 174675, Note_off_c, 0, 62, 56
1, 174700, Note_off_c, 0, 38, 38
1, 174786, Note_on_c, 0, 50, 38
1, 174786, Note_on_c, 0, 66, 60
1, 174802, Note_off_c, 0, 69, 62
1, 174830, Note_off_c, 0, 50, 52
1, 174933, Note_off_c, 0, 66, 63
1, 174957, Note_on_c, 0, 43, 48
1, 174959, Note_on_c, 0, 67, 52
1, 175131, Note_on_c, 0, 50, 40
1, 175136, Note_on_c, 0, 62, 45
1, 175139, Note_on_c, 0, 58, 43
1, 175163, Note_off_c, 0, 50, 53
1, 175166, Note_off_c, 0, 58, 55
1, 175170, Note_off_c, 0, 62, 56
1, 175242, Note_off_c, 0, 43, 44
1, 175267, Note_off_c, 0, 67, 56
1, 175295, Note_on_c, 0, 58, 57
1, 175297, Note_on_c, 0, 62, 57
1, 175312, Note_on_c, 0, 50, 43
1, 175333, Note_off_c, 0, 58, 64
1, 175340, Note_off_c, 0, 62, 60
1, 175342, Note_off_c, 0, 50, 53
1, 175440, Note_on_c, 0, 70, 81
1, 175444, Note_on_c, 0, 50, 59
1, 175449, Note_on_c, 0, 58, 66
1, 175460, Note_on_c, 0, 62, 54
1, 175462, Control_c, 0, 64, 59
1, 175476, Control_c, 0, 64, 71
1, 175491, Control_c, 0, 64, 84
1, 175498, Note_off_c, 0, 58, 61
1, 175500, Note_off_c, 0, 62, 57
1, 175506, Control_c, 0, 64, 100
1, 175521, Control_c, 0, 64, 112
1, 175536, Control_c, 0, 64, 117
1, 175547, Note_off_c, 0, 70, 62
1, 175550, Control_c, 0, 64, 120
1, 175564, Note_off_c, 0, 50, 37
1, 175565, Control_c, 0, 64, 122
1, 175595, Control_c, 0, 64, 121
1, 175610, Control_c, 0, 64, 119
1, 175625, Note_on_c, 0, 69, 83
1, 175625, Control_c, 0, 64, 109
1, 175631, Note_on_c, 0, 38, 69
1, 175640, Control_c, 0, 64, 94
1, 175655, Control_c, 0, 64, 79
1, 175670, Control_c, 0, 64, 59
1, 175684, Control_c, 0, 64, 0
1, 175789, Note_on_c, 0, 50, 59
1, 175804, Note_on_c, 0, 62, 56
1, 175806, Note_on_c, 0, 60, 52
1, 175826, Note_off_c, 0, 50, 61
1, 175837, Note_off_c, 0, 62, 63
1, 175843, Note_off_c, 0, 60, 61
1, 175973, Note_on_c, 0, 62, 62
1, 175979, Note_on_c, 0, 50, 58
1, 176009, Note_off_c, 0, 50, 64
1, 176027, Note_off_c, 0, 62, 56
1, 176055, Note_off_c, 0, 38, 50
1, 176135, Note_on_c, 0, 50, 44
1, 176138, Note_on_c, 0, 66, 68
1, 176165, Note_off_c, 0, 69, 61
1, 176179, Note_off_c, 0, 50, 57
1, 176305, Note_off_c, 0, 66, 55
1, 176310, Note_on_c, 0, 67, 64
1, 176316, Note_on_c, 0, 43, 52
1, 176477, Note_on_c, 0, 50, 45
1, 176485, Note_on_c, 0, 62, 45
1, 176495, Note_on_c, 0, 59, 34
1, 176512, Note_off_c, 0, 50, 51
1, 176515, Note_off_c, 0, 62, 54
1, 176528, Note_off_c, 0, 59, 49
1, 176652, Note_on_c, 0, 62, 47
1, 176662, Note_off_c, 0, 67, 55
1, 176665, Note_on_c, 0, 50, 42
1, 176665, Note_off_c, 0, 43, 42
1, 176693, Note_off_c, 0, 50, 53
1, 176693, Note_off_c, 0, 62, 60
1, 176805, Note_on_c, 0, 50, 48
1, 176814, Note_on_c, 0, 71, 51
1, 176838, Note_off_c, 0, 50, 58
1, 177000, Note_on_c, 0, 38, 50
1, 177004, Note_on_c, 0, 60, 47
1, 177005, Note_on_c, 0, 69, 50
1, 177009, Note_on_c, 0, 62, 43
1, 177020, Note_off_c, 0, 71, 51
1, 177041, Note_off_c, 0, 62, 53
1, 177046, Note_off_c, 0, 60, 52
1, 177172, Note_on_c, 0, 50, 47
1, 177177, Note_on_c, 0, 60, 41
1, 177205, Note_off_c, 0, 50, 52
1, 177208, Note_off_c, 0, 60, 53
1, 177259, Poly_aftertouch_c, 0, 62, 0
1, 177350, Note_on_c, 0, 50, 45
1, 177360, Note_on_c, 0, 62, 49
1, 177378, Note_off_c, 0, 50, 56
1, 177394, Note_off_c, 0, 38, 40
1, 177398, Note_off_c, 0, 62, 52
1, 177492, Note_off_c, 0, 69, 56
1, 177501, Note_on_c, 0, 66, 60
1, 177508, Note_on_c, 0, 50, 37
1, 177542, Note_off_c, 0, 50, 54
1, 177546, Note_off_c, 0, 66, 62
1, 177680, Note_on_c, 0, 67, 58
1, 177688, Note_on_c, 0, 50, 40
1, 177689, Note_on_c, 0, 43, 48
1, 177690, Note_on_c, 0, 59, 46
1, 177692, Note_on_c, 0, 62, 46
1, 177720, Note_off_c, 0, 43, 53
1, 177721, Note_off_c, 0, 62, 55
1, 177723, Note_off_c, 0, 50, 49
1, 177726, Note_off_c, 0, 59, 49
1, 177756, Note_off_c, 0, 67, 53
1, 177843, Note_on_c, 0, 59, 52
1, 177845, Note_on_c, 0, 71, 61
1, 177849, Note_on_c, 0, 50, 57
1, 177883, Note_off_c, 0, 59, 51
1, 177890, Note_off_c, 0, 50, 62
1, 177897, Note_off_c, 0, 71, 57
1, 177906, Poly_aftertouch_c, 0, 62, 0
1, 178004, Note_on_c, 0, 69, 68
1, 178014, Note_on_c, 0, 50, 59
1, 178016, Note_on_c, 0, 38, 63
1, 178021, Note_on_c, 0, 62, 49
1, 178048, Note_off_c, 0, 38, 64
1, 178048, Note_off_c, 0, 62, 56
1, 178050, Note_off_c, 0, 50, 63
1, 178058, Note_off_c, 0, 69, 58
1, 178176, Note_on_c, 0, 66, 75
1, 178183, Note_on_c, 0, 50, 60
1, 178184, Note_on_c, 0, 60, 55
1, 178218, Note_off_c, 0, 60, 64
1, 178221, Note_off_c, 0, 50, 62
1, 178255, Note_off_c, 0, 66, 50
1, 178339, Note_on_c, 0, 43, 69
1, 178352, Note_on_c, 0, 67, 67
1, 178357, Note_on_c, 0, 50, 51
1, 178358, Note_on_c, 0, 59, 63
1, 178360, Note_on_c, 0, 62, 57
1, 178376, Note_off_c, 0, 43, 62
1, 178385, Note_off_c, 0, 50, 56
1, 178388, Note_off_c, 0, 62, 61
1, 178396, Note_off_c, 0, 59, 57
1, 178436, Note_off_c, 0, 67, 50
1, 178504, Note_on_c, 0, 50, 67
1, 178506, Note_on_c, 0, 71, 65
1, 178508, Note_on_c, 0, 59, 63
1, 178516, Note_on_c, 0, 62, 40
1, 178550, Note_off_c, 0, 62, 55
1, 178551, Note_off_c, 0, 50, 60
1, 178556, Note_off_c, 0, 59, 55
1, 178566, Note_off_c, 0, 71, 58
1, 178667, Note_on_c, 0, 62, 55
1, 178668, Note_on_c, 0, 69, 72
1, 178669, Note_on_c, 0, 50, 76
1, 178676, Note_on_c, 0, 38, 73
1, 178680, Note_on_c, 0, 60, 50
1, 178710, Note_off_c, 0, 50, 61
1, 178710, Note_off_c, 0, 62, 59
1, 178713, Note_off_c, 0, 60, 51
1, 178714, Note_off_c, 0, 38, 65
1, 178734, Note_off_c, 0, 69, 60
1, 178826, Note_on_c, 0, 60, 67
1, 178829, Note_on_c, 0, 66, 75
1, 178831, Note_on_c, 0, 50, 75
1, 178876, Note_off_c, 0, 60, 60
1, 178892, Note_off_c, 0, 50, 59
1, 178906, Note_off_c, 0, 66, 60
1, 178999, Note_on_c, 0, 43, 81
1, 179006, Note_on_c, 0, 50, 75
1, 179006, Note_on_c, 0, 67, 73
1, 179011, Note_on_c, 0, 59, 72
1, 179019, Note_on_c, 0, 62, 60
1, 179049, Note_off_c, 0, 62, 64
1, 179068, Note_off_c, 0, 50, 54
1, 179069, Note_off_c, 0, 59, 61
1, 179114, Note_off_c, 0, 67, 58
1, 179164, Note_on_c, 0, 71, 77
1, 179165, Note_on_c, 0, 50, 74
1, 179174, Note_on_c, 0, 59, 70
1, 179190, Note_on_c, 0, 62, 49
1, 179221, Note_off_c, 0, 62, 52
1, 179231, Note_off_c, 0, 59, 48
1, 179234, Note_off_c, 0, 71, 60
1, 179250, Note_off_c, 0, 50, 58
1, 179329, Note_on_c, 0, 69, 83
1, 179330, Note_on_c, 0, 50, 82
1, 179333, Note_on_c, 0, 38, 81
1, 179339, Note_on_c, 0, 60, 71
1, 179339, Note_off_c, 0, 43, 55
1, 179340, Note_on_c, 0, 62, 57
1, 179384, Note_off_c, 0, 50, 58
1, 179384, Note_off_c, 0, 62, 56
1, 179387, Note_off_c, 0, 60, 53
1, 179404, Note_off_c, 0, 69, 61
1, 179491, Note_on_c, 0, 50, 77
1, 179493, Note_on_c, 0, 66, 75
1, 179499, Note_on_c, 0, 60, 71
1, 179536, Note_off_c, 0, 60, 59
1, 179557, Note_off_c, 0, 50, 57
1, 179599, Note_off_c, 0, 66, 46
1, 179657, Note_off_c, 0, 38, 55
1, 179663, Note_on_c, 0, 67, 77
1, 179664, Note_on_c, 0, 43, 81
1, 179667, Note_on_c, 0, 50, 82
1, 179669, Note_on_c, 0, 59, 77
1, 179674, Note_on_c, 0, 62, 70
1, 179708, Note_off_c, 0, 62, 60
1, 179731, Note_off_c, 0, 59, 60
1, 179733, Note_off_c, 0, 50, 58
1, 179774, Note_off_c, 0, 67, 55
1, 179825, Note_on_c, 0, 71, 80
1, 179825, Note_on_c, 0, 50, 81
1, 179828, Note_on_c, 0, 59, 77
1, 179840, Note_on_c, 0, 62, 57
1, 179879, Note_off_c, 0, 62, 55
1, 179888, Note_off_c, 0, 59, 60
1, 179902, Note_off_c, 0, 71, 60
1, 179913, Note_off_c, 0, 50, 57
1, 179986, Note_on_c, 0, 50, 85
1, 179989, Note_on_c, 0, 69, 85
1, 179989, Note_on_c, 0, 38, 86
1, 179992, Note_on_c, 0, 60, 78
1, 179995, Note_off_c, 0, 43, 55
1, 180003, Note_on_c, 0, 62, 56
1, 180030, Note_off_c, 0, 62, 62
1, 180039, Note_off_c, 0, 50, 61
1, 180044, Note_off_c, 0, 60, 57
1, 180060, Note_off_c, 0, 69, 62
1, 180144, Note_on_c, 0, 60, 82
1, 180145, Note_on_c, 0, 50, 84
1, 180146, Note_on_c, 0, 66, 87
1, 180194, Note_off_c, 0, 60, 60
1, 180200, Note_off_c, 0, 50, 54
1, 180232, Note_off_c, 0, 66, 53
1, 180377, Note_on_c, 0, 43, 86
1, 180378, Note_on_c, 0, 67, 87
1, 180379, Note_on_c, 0, 59, 78
1, 180382, Note_on_c, 0, 62, 81
1, 180382, Note_on_c, 0, 50, 79
1, 180394, Note_off_c, 0, 38, 60
1, 180680, Note_off_c, 0, 67, 60
1, 180688, Note_off_c, 0, 50, 62
1, 180701, Note_off_c, 0, 62, 60
1, 180707, Note_off_c, 0, 59, 61
1, 180710, Note_off_c, 0, 43, 63
1, 181007, Note_on_c, 0, 62, 43
1, 181009, Note_on_c, 0, 55, 41
1, 181019, Note_on_c, 0, 59, 44
1, 181068, Note_on_c, 0, 31, 59
1, 181070, Note_on_c, 0, 43, 52
1, 181104, Note_off_c, 0, 31, 59
1, 181107, Note_off_c, 0, 43, 55
1, 181334, Note_off_c, 0, 62, 60
1, 181346, Note_off_c, 0, 55, 60
1, 181348, Note_off_c, 0, 59, 59
1, 181716, Note_on_c, 0, 59, 42
1, 181721, Note_on_c, 0, 55, 42
1, 181722, Note_on_c, 0, 50, 40
1, 181777, Note_on_c, 0, 31, 63
1, 181785, Note_on_c, 0, 43, 56
1, 181810, Note_off_c, 0, 31, 63
1, 181815, Note_off_c, 0, 43, 56
1, 182045, Note_off_c, 0, 50, 54
1, 182068, Note_off_c, 0, 59, 61
1, 182073, Note_off_c, 0, 55, 57
1, 182474, Note_on_c, 0, 47, 56
1, 182478, Note_on_c, 0, 35, 57
1, 182505, Note_off_c, 0, 35, 60
1, 182508, Note_off_c, 0, 47, 64
1, 182828, Note_on_c, 0, 38, 69
1, 182839, Note_on_c, 0, 50, 69
1, 182856, Note_off_c, 0, 38, 64
1, 182866, Note_off_c, 0, 50, 66
1, 183132, Note_on_c, 0, 79, 93
1, 183200, Note_on_c, 0, 43, 93
1, 183202, Note_on_c, 0, 31, 90
1, 183217, Control_c, 0, 64, 68
1, 183232, Control_c, 0, 64, 82
1, 183240, Note_off_c, 0, 31, 65
1, 183245, Note_off_c, 0, 43, 61
1, 183247, Control_c, 0, 64, 110
1, 183261, Control_c, 0, 64, 127
1, 183685, Note_on_c, 0, 78, 80
1, 183723, Note_off_c, 0, 79, 57
1, 183762, Note_on_c, 0, 76, 73
1, 183763, Note_off_c, 0, 78, 64
1, 183814, Note_off_c, 0, 76, 67
1, 183816, Control_c, 0, 64, 113
1, 183823, Note_on_c, 0, 74, 78
1, 183831, Control_c, 0, 64, 102
1, 183846, Control_c, 0, 64, 91
1, 183861, Control_c, 0, 64, 79
1, 183876, Control_c, 0, 64, 62
1, 183890, Control_c, 0, 64, 0
1, 183894, Note_on_c, 0, 75, 77
1, 183901, Note_off_c, 0, 74, 64
1, 183974, Note_on_c, 0, 76, 79
1, 183981, Note_off_c, 0, 75, 64
1, 184036, Note_off_c, 0, 76, 65
1, 184046, Note_on_c, 0, 71, 80
1, 184129, Note_on_c, 0, 74, 79
1, 184135, Note_off_c, 0, 71, 62
1, 184201, Note_on_c, 0, 72, 80
1, 184257, Note_off_c, 0, 74, 57
1, 184276, Note_on_c, 0, 71, 73
1, 184341, Note_off_c, 0, 72, 57
1, 184366, Note_on_c, 0, 69, 69
1, 184370, Note_off_c, 0, 71, 60
1, 184425, Note_on_c, 0, 55, 65
1, 184432, Note_off_c, 0, 69, 66
1, 184434, Note_on_c, 0, 67, 71
1, 184482, Note_off_c, 0, 55, 65
1, 184495, Note_on_c, 0, 58, 66
1, 184513, Note_off_c, 0, 67, 61
1, 184518, Note_on_c, 0, 70, 72
1, 184557, Note_off_c, 0, 58, 64
1, 184576, Note_on_c, 0, 59, 72
1, 184586, Note_off_c, 0, 70, 62
1, 184589, Note_on_c, 0, 71, 73
1, 184625, Note_off_c, 0, 59, 59
1, 184648, Note_on_c, 0, 54, 73
1, 184661, Note_off_c, 0, 71, 59
1, 184663, Note_on_c, 0, 66, 84
1, 184714, Note_off_c, 0, 54, 60
1, 184727, Note_on_c, 0, 57, 70
1, 184736, Note_on_c, 0, 69, 81
1, 184745, Note_off_c, 0, 66, 65
1, 184785, Note_off_c, 0, 57, 61
1, 184792, Note_on_c, 0, 55, 69
1, 184816, Note_on_c, 0, 67, 80
1, 184870, Note_off_c, 0, 55, 64
1, 184874, Note_off_c, 0, 69, 55
1, 184878, Note_on_c, 0, 54, 70
1, 184891, Note_on_c, 0, 66, 75
1, 184927, Note_off_c, 0, 67, 59
1, 184952, Note_on_c, 0, 52, 75
1, 184956, Note_off_c, 0, 54, 62
1, 184970, Note_on_c, 0, 64, 63
1, 184975, Note_off_c, 0, 66, 67
1, 185008, Note_off_c, 0, 52, 66
1, 185024, Note_off_c, 0, 64, 65
1, 185030, Note_on_c, 0, 62, 75
1, 185038, Note_on_c, 0, 50, 63
1, 185104, Note_on_c, 0, 63, 70
1, 185107, Note_off_c, 0, 62, 62
1, 185111, Note_on_c, 0, 51, 68
1, 185122, Note_off_c, 0, 50, 60
1, 185151, Note_off_c, 0, 51, 63
1, 185174, Note_on_c, 0, 64, 77
1, 185175, Note_on_c, 0, 52, 76
1, 185182, Note_off_c, 0, 63, 63
1, 185215, Note_off_c, 0, 52, 66
1, 185235, Note_off_c, 0, 64, 63
1, 185243, Note_on_c, 0, 59, 77
1, 185253, Note_on_c, 0, 47, 70
1, 185295, Note_off_c, 0, 47, 58
1, 185310, Note_on_c, 0, 50, 75
1, 185313, Note_on_c, 0, 62, 84
1, 185322, Note_off_c, 0, 59, 62
1, 185368, Note_off_c, 0, 50, 62
1, 185384, Note_on_c, 0, 48, 72
1, 185392, Note_on_c, 0, 60, 79
1, 185453, Note_off_c, 0, 48, 65
1, 185456, Note_off_c, 0, 62, 56
1, 185459, Note_on_c, 0, 47, 67
1, 185465, Note_on_c, 0, 59, 73
1, 185512, Note_off_c, 0, 60, 58
1, 185522, Note_on_c, 0, 45, 69
1, 185525, Note_off_c, 0, 47, 64
1, 185543, Note_on_c, 0, 57, 71
1, 185548, Note_off_c, 0, 59, 63
1, 185596, Note_off_c, 0, 57, 64
1, 185605, Note_off_c, 0, 45, 65
1, 185614, Note_on_c, 0, 43, 72
1, 185617, Note_on_c, 0, 55, 79
1, 185684, Note_on_c, 0, 46, 65
1, 185688, Note_on_c, 0, 58, 78
1, 185689, Note_off_c, 0, 43, 62
1, 185693, Note_off_c, 0, 55, 63
1, 185748, Note_off_c, 0, 46, 63
1, 185762, Note_on_c, 0, 59, 78
1, 185766, Note_off_c, 0, 58, 64
1, 185766, Note_on_c, 0, 47, 74
1, 185814, Note_off_c, 0, 47, 62
1, 185831, Note_off_c, 0, 59, 62
1, 185833, Note_on_c, 0, 54, 86
1, 185838, Note_on_c, 0, 42, 74
1, 185900, Note_off_c, 0, 42, 62
1, 185908, Note_on_c, 0, 57, 84
1, 185911, Note_on_c, 0, 45, 74
1, 185914, Note_off_c, 0, 54, 62
1, 185972, Note_off_c, 0, 45, 63
1, 185975, Note_on_c, 0, 43, 71
1, 185982, Note_on_c, 0, 55, 79
1, 186025, Note_off_c, 0, 57, 61
1, 186040, Note_off_c, 0, 43, 62
1, 186050, Note_on_c, 0, 42, 71
1, 186055, Note_on_c, 0, 54, 73
1, 186102, Note_off_c, 0, 55, 61
1, 186114, Note_on_c, 0, 40, 73
1, 186124, Note_off_c, 0, 42, 63
1, 186141, Note_on_c, 0, 52, 69
1, 186143, Note_off_c, 0, 54, 63
1, 186182, Note_off_c, 0, 40, 65
1, 186186, Note_off_c, 0, 52, 68
1, 186200, Note_on_c, 0, 38, 71
1, 186202, Note_on_c, 0, 50, 75
1, 186275, Note_on_c, 0, 51, 75
1, 186278, Note_off_c, 0, 50, 61
1, 186279, Note_on_c, 0, 39, 69
1, 186291, Note_off_c, 0, 38, 59
1, 186317, Note_off_c, 0, 39, 65
1, 186347, Note_on_c, 0, 40, 70
1, 186360, Note_on_c, 0, 52, 74
1, 186360, Note_off_c, 0, 51, 62
1, 186384, Note_off_c, 0, 40, 66
1, 186416, Note_off_c, 0, 52, 62
1, 186419, Note_on_c, 0, 35, 69
1, 186425, Note_on_c, 0, 47, 83
1, 186460, Note_off_c, 0, 35, 60
1, 186483, Note_on_c, 0, 38, 79
1, 186499, Note_on_c, 0, 50, 80
1, 186505, Note_off_c, 0, 47, 65
1, 186547, Note_off_c, 0, 38, 61
1, 186559, Note_on_c, 0, 36, 73
1, 186574, Note_on_c, 0, 48, 79
1, 186614, Note_off_c, 0, 50, 58
1, 186624, Note_off_c, 0, 36, 64
1, 186633, Note_on_c, 0, 35, 68
1, 186648, Note_on_c, 0, 47, 71
1, 186684, Note_off_c, 0, 48, 62
1, 186684, Note_off_c, 0, 35, 62
1, 186717, Note_on_c, 0, 45, 71
1, 186717, Note_off_c, 0, 47, 64
1, 186718, Note_on_c, 0, 33, 71
1, 186766, Note_off_c, 0, 45, 65
1, 186781, Note_off_c, 0, 33, 63
1, 186788, Note_on_c, 0, 43, 75
1, 186792, Note_on_c, 0, 31, 71
1, 186856, Note_off_c, 0, 43, 59
1, 186861, Note_off_c, 0, 31, 62
1, 186876, Note_on_c, 0, 30, 77
1, 186876, Note_on_c, 0, 42, 75
1, 186940, Note_off_c, 0, 42, 64
1, 186946, Note_on_c, 0, 31, 73
1, 186950, Note_off_c, 0, 30, 62
1, 186952, Note_on_c, 0, 43, 69
1, 186994, Note_off_c, 0, 31, 63
1, 187018, Note_on_c, 0, 45, 80
1, 187021, Note_on_c, 0, 33, 76
1, 187024, Note_off_c, 0, 43, 60
1, 187068, Note_off_c, 0, 33, 64
1, 187100, Note_off_c, 0, 45, 64
1, 187104, Note_on_c, 0, 34, 75
1, 187104, Note_on_c, 0, 46, 86
1, 187160, Note_on_c, 0, 35, 72
1, 187161, Note_off_c, 0, 46, 63
1, 187169, Note_on_c, 0, 47, 85
1, 187174, Note_off_c, 0, 34, 64
1, 187222, Note_off_c, 0, 35, 63
1, 187238, Note_on_c, 0, 36, 74
1, 187249, Note_off_c, 0, 47, 63
1, 187252, Note_on_c, 0, 48, 81
1, 187298, Note_off_c, 0, 36, 64
1, 187318, Note_on_c, 0, 49, 85
1, 187318, Note_off_c, 0, 48, 65
1, 187323, Note_on_c, 0, 37, 77
1, 187376, Note_off_c, 0, 37, 63
1, 187390, Note_on_c, 0, 38, 83
1, 187395, Note_on_c, 0, 50, 82
1, 187396, Note_off_c, 0, 49, 61
1, 187450, Note_off_c, 0, 38, 62
1, 187468, Note_off_c, 0, 50, 61
1, 187473, Note_on_c, 0, 37, 76
1, 187484, Note_on_c, 0, 49, 76
1, 187525, Note_off_c, 0, 49, 64
1, 187537, Note_off_c, 0, 37, 64
1, 187546, Note_on_c, 0, 38, 71
1, 187548, Note_on_c, 0, 50, 77
1, 187601, Note_off_c, 0, 38, 60
1, 187620, Note_on_c, 0, 40, 69
1, 187622, Note_off_c, 0, 50, 60
1, 187632, Note_on_c, 0, 52, 83
1, 187698, Note_off_c, 0, 40, 62
1, 187701, Note_on_c, 0, 54, 76
1, 187704, Note_off_c, 0, 52, 66
1, 187715, Note_on_c, 0, 42, 68
1, 187771, Note_on_c, 0, 50, 76
1, 187772, Note_off_c, 0, 54, 60
1, 187778, Note_on_c, 0, 38, 73
1, 187778, Note_off_c, 0, 42, 57
1, 187856, Note_off_c, 0, 50, 62
1, 187864, Note_on_c, 0, 52, 76
1, 187870, Note_on_c, 0, 40, 71
1, 187888, Note_off_c, 0, 38, 59
1, 187937, Note_off_c, 0, 52, 67
1, 187940, Note_on_c, 0, 54, 76
1, 187945, Note_on_c, 0, 42, 77
1, 187947, Note_off_c, 0, 40, 65
1, 188018, Note_on_c, 0, 55, 75
1, 188021, Note_off_c, 0, 54, 60
1, 188026, Note_on_c, 0, 43, 77
1, 188028, Note_off_c, 0, 42, 63
1, 188096, Note_off_c, 0, 55, 63
1, 188100, Note_on_c, 0, 54, 68
1, 188109, Note_off_c, 0, 43, 61
1, 188110, Note_on_c, 0, 42, 74
1, 188148, Note_off_c, 0, 54, 63
1, 188160, Note_on_c, 0, 55, 77
1, 188175, Note_on_c, 0, 43, 69
1, 188184, Note_off_c, 0, 42, 63
1, 188230, Note_off_c, 0, 43, 61
1, 188238, Note_off_c, 0, 55, 60
1, 188240, Note_on_c, 0, 45, 77
1, 188245, Note_on_c, 0, 57, 81
1, 188296, Note_off_c, 0, 45, 64
1, 188312, Note_off_c, 0, 57, 61
1, 188317, Note_on_c, 0, 58, 83
1, 188320, Note_on_c, 0, 46, 83
1, 188371, Note_off_c, 0, 58, 67
1, 188384, Note_on_c, 0, 47, 84
1, 188384, Note_on_c, 0, 59, 85
1, 188397, Note_off_c, 0, 46, 62
1, 188432, Note_off_c, 0, 47, 64
1, 188454, Note_off_c, 0, 59, 60
1, 188455, Note_on_c, 0, 48, 79
1, 188460, Note_on_c, 0, 60, 82
1, 188516, Note_off_c, 0, 48, 64
1, 188517, Note_off_c, 0, 60, 63
1, 188526, Note_on_c, 0, 61, 89
1, 188536, Note_on_c, 0, 49, 84
1, 188604, Note_off_c, 0, 49, 62
1, 188606, Note_off_c, 0, 61, 64
1, 188612, Note_on_c, 0, 50, 76
1, 188631, Note_on_c, 0, 62, 66
1, 188636, Note_on_c, 0, 60, 61
1, 188643, Note_off_c, 0, 50, 66
1, 188657, Control_c, 0, 64, 65
1, 188660, Note_off_c, 0, 62, 64
1, 188666, Note_off_c, 0, 60, 66
1, 188672, Control_c, 0, 64, 74
1, 188687, Control_c, 0, 64, 85
1, 188702, Control_c, 0, 64, 97
1, 188706, Note_on_c, 0, 50, 72
1, 188713, Note_on_c, 0, 62, 90
1, 188717, Control_c, 0, 64, 112
1, 188731, Control_c, 0, 64, 127
1, 188783, Note_on_c, 0, 54, 73
1, 188785, Note_on_c, 0, 66, 84
1, 188800, Note_off_c, 0, 62, 58
1, 188819, Note_off_c, 0, 50, 58
1, 188846, Note_on_c, 0, 57, 73
1, 188848, Note_on_c, 0, 69, 85
1, 188851, Note_off_c, 0, 66, 66
1, 188865, Note_off_c, 0, 54, 62
1, 188898, Note_off_c, 0, 57, 63
1, 188920, Note_off_c, 0, 69, 66
1, 188924, Note_on_c, 0, 62, 68
1, 188925, Note_on_c, 0, 74, 82
1, 188942, Note_off_c, 0, 74, 74
1, 188947, Note_off_c, 0, 62, 64
1, 189000, Note_on_c, 0, 74, 94
1, 189010, Note_on_c, 0, 62, 85
1, 189066, Note_on_c, 0, 66, 76
1, 189081, Note_on_c, 0, 78, 90
1, 189088, Note_off_c, 0, 74, 58
1, 189092, Note_off_c, 0, 62, 58
1, 189137, Note_on_c, 0, 69, 78
1, 189146, Note_on_c, 0, 81, 90
1, 189146, Note_off_c, 0, 78, 62
1, 189148, Note_off_c, 0, 66, 66
1, 189206, Control_c, 0, 64, 107
1, 189221, Control_c, 0, 64, 68
1, 189223, Note_off_c, 0, 69, 61
1, 189236, Note_on_c, 0, 74, 86
1, 189236, Control_c, 0, 64, 0
1, 189239, Note_off_c, 0, 81, 63
1, 189246, Note_on_c, 0, 86, 88
1, 189265, Control_c, 0, 64, 57
1, 189279, Note_off_c, 0, 86, 57
1, 189280, Note_off_c, 0, 74, 67
1, 189280, Control_c, 0, 64, 77
1, 189295, Control_c, 0, 64, 101
1, 189310, Control_c, 0, 64, 127
1, 189317, Note_on_c, 0, 86, 82
1, 189343, Note_on_c, 0, 74, 72
1, 189405, Note_on_c, 0, 81, 88
1, 189406, Note_on_c, 0, 69, 81
1, 189408, Note_off_c, 0, 74, 62
1, 189415, Note_off_c, 0, 86, 63
1, 189471, Note_on_c, 0, 66, 72
1, 189474, Note_off_c, 0, 69, 64
1, 189476, Note_off_c, 0, 81, 63
1, 189477, Note_on_c, 0, 78, 89
1, 189527, Note_off_c, 0, 78, 67
1, 189537, Note_on_c, 0, 62, 59
1, 189546, Note_off_c, 0, 66, 66
1, 189554, Note_on_c, 0, 74, 81
1, 189572, Note_off_c, 0, 62, 63
1, 189593, Note_off_c, 0, 74, 64
1, 189626, Note_on_c, 0, 62, 79
1, 189632, Note_on_c, 0, 74, 68
1, 189684, Note_off_c, 0, 62, 54
1, 189692, Note_on_c, 0, 57, 82
1, 189701, Note_on_c, 0, 69, 78
1, 189705, Note_off_c, 0, 74, 64
1, 189748, Note_off_c, 0, 57, 61
1, 189758, Note_on_c, 0, 54, 78
1, 189769, Note_off_c, 0, 69, 66
1, 189770, Note_on_c, 0, 66, 86
1, 189839, Note_off_c, 0, 54, 61
1, 189853, Control_c, 0, 64, 119
1, 189859, Note_on_c, 0, 62, 90
1, 189863, Note_on_c, 0, 50, 87
1, 189868, Control_c, 0, 64, 82
1, 189883, Control_c, 0, 64, 0
1, 189883, Note_off_c, 0, 66, 64
1, 189893, Note_off_c, 0, 50, 63
1, 189897, Note_off_c, 0, 62, 64
1, 189927, Control_c, 0, 64, 63
1, 189942, Control_c, 0, 64, 81
1, 189945, Note_on_c, 0, 62, 87
1, 189951, Note_on_c, 0, 50, 71
1, 189957, Control_c, 0, 64, 106
1, 189972, Control_c, 0, 64, 127
1, 190017, Note_on_c, 0, 66, 86
1, 190023, Note_off_c, 0, 50, 61
1, 190025, Note_on_c, 0, 54, 70
1, 190045, Note_off_c, 0, 62, 58
1, 190097, Note_on_c, 0, 57, 73
1, 190101, Note_off_c, 0, 66, 67
1, 190103, Note_on_c, 0, 69, 77
1, 190119, Note_off_c, 0, 54, 62
1, 190155, Note_off_c, 0, 57, 62
1, 190169, Note_on_c, 0, 62, 83
1, 190176, Note_off_c, 0, 69, 65
1, 190177, Note_on_c, 0, 74, 77
1, 190196, Note_off_c, 0, 74, 72
1, 190209, Note_off_c, 0, 62, 60
1, 190253, Note_on_c, 0, 74, 92
1, 190267, Note_on_c, 0, 62, 80
1, 190324, Note_on_c, 0, 66, 78
1, 190333, Note_on_c, 0, 78, 91
1, 190336, Note_off_c, 0, 74, 56
1, 190348, Note_off_c, 0, 62, 58
1, 190392, Note_on_c, 0, 69, 72
1, 190398, Note_on_c, 0, 81, 91
1, 190400, Note_off_c, 0, 78, 66
1, 190407, Note_off_c, 0, 66, 64
1, 190476, Note_off_c, 0, 69, 65
1, 190497, Control_c, 0, 64, 114
1, 190500, Note_on_c, 0, 74, 89
1, 190500, Note_on_c, 0, 86, 87
1, 190507, Note_off_c, 0, 81, 61
1, 190524, Note_off_c, 0, 86, 64
1, 190526, Control_c, 0, 64, 127
1, 190540, Note_off_c, 0, 74, 68
1, 190541, Control_c, 0, 64, 127
1, 190575, Note_on_c, 0, 86, 93
1, 190602, Note_on_c, 0, 74, 75
1, 190650, Note_on_c, 0, 81, 92
1, 190659, Note_off_c, 0, 86, 63
1, 190661, Note_on_c, 0, 69, 79
1, 190664, Note_off_c, 0, 74, 64
1, 190725, Note_off_c, 0, 81, 61
1, 190726, Note_on_c, 0, 66, 70
1, 190727, Note_on_c, 0, 78, 91
1, 190729, Note_off_c, 0, 69, 64
1, 190784, Note_off_c, 0, 78, 64
1, 190788, Note_off_c, 0, 66, 66
1, 190796, Note_on_c, 0, 74, 86
1, 190814, Note_on_c, 0, 62, 18
1, 190840, Note_off_c, 0, 74, 67
1, 190850, Note_off_c, 0, 62, 0
1, 190868, Note_on_c, 0, 62, 51
1, 190875, Poly_aftertouch_c, 0, 74, 0
1, 190880, Note_on_c, 0, 74, 72
1, 190929, Note_off_c, 0, 62, 59
1, 190936, Note_on_c, 0, 57, 81
1, 190956, Note_off_c, 0, 74, 62
1, 190957, Note_on_c, 0, 69, 73
1, 191003, Note_off_c, 0, 57, 61
1, 191007, Note_on_c, 0, 54, 71
1, 191024, Note_on_c, 0, 66, 85
1, 191024, Note_off_c, 0, 69, 67
1, 191082, Control_c, 0, 64, 110
1, 191087, Note_off_c, 0, 54, 60
1, 191097, Control_c, 0, 64, 78
1, 191098, Note_on_c, 0, 50, 82
1, 191102, Note_off_c, 0, 66, 57
1, 191106, Note_on_c, 0, 62, 85
1, 191112, Control_c, 0, 64, 0
1, 191134, Note_off_c, 0, 50, 65
1, 191141, Control_c, 0, 64, 51
1, 191154, Note_off_c, 0, 62, 58
1, 191156, Control_c, 0, 64, 76
1, 191171, Control_c, 0, 64, 99
1, 191182, Note_on_c, 0, 74, 85
1, 191186, Control_c, 0, 64, 127
1, 191188, Note_on_c, 0, 62, 63
1, 191251, Note_off_c, 0, 62, 58
1, 191253, Note_on_c, 0, 57, 79
1, 191265, Note_on_c, 0, 69, 81
1, 191273, Note_off_c, 0, 74, 63
1, 191323, Note_on_c, 0, 54, 72
1, 191325, Note_off_c, 0, 57, 61
1, 191333, Note_on_c, 0, 66, 82
1, 191333, Note_off_c, 0, 69, 67
1, 191390, Note_off_c, 0, 66, 68
1, 191393, Note_on_c, 0, 50, 59
1, 191396, Note_off_c, 0, 54, 62
1, 191412, Note_on_c, 0, 62, 86
1, 191423, Note_off_c, 0, 50, 65
1, 191454, Note_off_c, 0, 62, 63
1, 191483, Note_on_c, 0, 50, 67
1, 191494, Note_on_c, 0, 62, 68
1, 191520, Note_off_c, 0, 50, 55
1, 191539, Note_on_c, 0, 45, 79
1, 191560, Note_on_c, 0, 57, 76
1, 191569, Note_off_c, 0, 62, 59
1, 191614, Note_off_c, 0, 45, 64
1, 191620, Note_on_c, 0, 42, 73
1, 191643, Note_off_c, 0, 57, 62
1, 191646, Note_on_c, 0, 54, 73
1, 191724, Note_off_c, 0, 42, 57
1, 191738, Note_off_c, 0, 54, 56
1, 191740, Note_on_c, 0, 38, 84
1, 191740, Note_on_c, 0, 50, 87
1, 191743, Control_c, 0, 64, 115
1, 191757, Control_c, 0, 64, 96
1, 191772, Control_c, 0, 64, 79
1, 191787, Control_c, 0, 64, 57
1, 191802, Control_c, 0, 64, 0
1, 192921, Control_c, 0, 64, 43
1, 192936, Control_c, 0, 64, 59
1, 192951, Control_c, 0, 64, 63
1, 192966, Control_c, 0, 64, 67
1, 192980, Control_c, 0, 64, 71
1, 192995, Control_c, 0, 64, 79
1, 193011, Control_c, 0, 64, 90
1, 193026, Control_c, 0, 64, 101
1, 193041, Control_c, 0, 64, 115
1, 193056, Control_c, 0, 64, 127
1, 193090, Note_off_c, 0, 50, 59
1, 193135, Note_off_c, 0, 38, 39
1, 193636, Note_on_c, 0, 66, 48
1, 193640, Note_on_c, 0, 62, 43
1, 193653, Note_on_c, 0, 69, 42
1, 193685, Control_c, 0, 64, 119
1, 193700, Control_c, 0, 64, 106
1, 193708, Note_on_c, 0, 60, 50
1, 193711, Note_on_c, 0, 54, 49
1, 193715, Note_on_c, 0, 57, 47
1, 193715, Control_c, 0, 64, 93
1, 193716, Note_on_c, 0, 50, 48
1, 193729, Control_c, 0, 64, 77
1, 193744, Control_c, 0, 64, 61
1, 193759, Control_c, 0, 64, 0
1, 194019, Note_off_c, 0, 62, 58
1, 194047, Note_off_c, 0, 66, 67
1, 194062, Note_off_c, 0, 50, 59
1, 194071, Note_off_c, 0, 54, 63
1, 194071, Note_off_c, 0, 69, 67
1, 194074, Note_off_c, 0, 57, 62
1, 194074, Note_off_c, 0, 60, 63
1, 194405, Note_on_c, 0, 69, 62
1, 194406, Note_on_c, 0, 81, 65
1, 194426, Note_off_c, 0, 69, 67
1, 194430, Note_off_c, 0, 81, 67
1, 194752, Note_on_c, 0, 84, 59
1, 194771, Note_on_c, 0, 72, 40
1, 194777, Note_off_c, 0, 84, 61
1, 194798, Note_off_c, 0, 72, 48
1, 195121, Note_on_c, 0, 74, 55
1, 195122, Note_on_c, 0, 62, 49
1, 195146, Note_off_c, 0, 62, 56
1, 195150, Note_off_c, 0, 74, 68
1, 196286, Note_on_c, 0, 69, 47
1, 196287, Note_on_c, 0, 66, 41
1, 196294, Note_on_c, 0, 62, 38
1, 196345, Note_on_c, 0, 54, 38
1, 196354, Note_on_c, 0, 57, 36
1, 196354, Note_on_c, 0, 60, 31
1, 196356, Note_on_c, 0, 50, 35
1, 196384, Control_c, 0, 64, 59
1, 196384, Note_off_c, 0, 62, 60
1, 196399, Control_c, 0, 64, 69
1, 196414, Control_c, 0, 64, 82
1, 196428, Control_c, 0, 64, 94
1, 196430, Note_off_c, 0, 66, 65
1, 196443, Control_c, 0, 64, 105
1, 196458, Control_c, 0, 64, 115
1, 196460, Note_off_c, 0, 69, 63
1, 196473, Control_c, 0, 64, 127
1, 196840, Note_on_c, 0, 73, 52
1, 196870, Note_off_c, 0, 73, 56
1, 196897, Note_on_c, 0, 74, 65
1, 196927, Note_off_c, 0, 57, 57
1, 196928, Note_off_c, 0, 50, 51
1, 196941, Note_off_c, 0, 74, 61
1, 196947, Note_off_c, 0, 54, 50
1, 196950, Note_on_c, 0, 76, 72
1, 196950, Note_off_c, 0, 60, 36
1, 196983, Control_c, 0, 64, 118
1, 196998, Control_c, 0, 64, 99
1, 197005, Note_on_c, 0, 74, 67
1, 197013, Control_c, 0, 64, 84
1, 197016, Note_off_c, 0, 76, 64
1, 197028, Control_c, 0, 64, 67
1, 197043, Control_c, 0, 64, 0
1, 197277, Note_off_c, 0, 74, 65
1, 197650, Note_on_c, 0, 71, 53
1, 197651, Note_on_c, 0, 62, 46
1, 197654, Note_on_c, 0, 59, 45
1, 197656, Note_on_c, 0, 67, 41
1, 197711, Note_on_c, 0, 43, 50
1, 197713, Note_on_c, 0, 55, 47
1, 197718, Note_on_c, 0, 50, 43
1, 197719, Note_on_c, 0, 47, 45
1, 197743, Note_off_c, 0, 59, 61
1, 197746, Control_c, 0, 64, 59
1, 197761, Control_c, 0, 64, 70
1, 197776, Control_c, 0, 64, 82
1, 197791, Control_c, 0, 64, 98
1, 197797, Note_off_c, 0, 62, 60
1, 197806, Control_c, 0, 64, 115
1, 197821, Control_c, 0, 64, 127
1, 197833, Note_off_c, 0, 67, 58
1, 197833, Note_off_c, 0, 71, 61
1, 198224, Note_on_c, 0, 73, 53
1, 198255, Note_off_c, 0, 73, 57
1, 198288, Note_on_c, 0, 74, 58
1, 198332, Note_off_c, 0, 74, 62
1, 198342, Note_on_c, 0, 76, 75
1, 198392, Control_c, 0, 64, 102
1, 198394, Note_on_c, 0, 74, 79
1, 198407, Control_c, 0, 64, 84
1, 198414, Note_off_c, 0, 76, 60
1, 198422, Control_c, 0, 64, 58
1, 198437, Control_c, 0, 64, 0
1, 198614, Note_off_c, 0, 43, 52
1, 198631, Note_off_c, 0, 47, 59
1, 198641, Note_off_c, 0, 50, 58
1, 198643, Note_off_c, 0, 55, 64
1, 198665, Note_off_c, 0, 74, 65
1, 199007, Note_on_c, 0, 72, 50
1, 199014, Note_on_c, 0, 66, 46
1, 199022, Note_on_c, 0, 62, 45
1, 199077, Note_on_c, 0, 50, 56
1, 199082, Note_on_c, 0, 57, 52
1, 199091, Note_on_c, 0, 60, 42
1, 199101, Note_off_c, 0, 50, 59
1, 199105, Note_off_c, 0, 57, 56
1, 199117, Note_off_c, 0, 60, 46
1, 199314, Note_off_c, 0, 62, 55
1, 199371, Note_off_c, 0, 66, 66
1, 199383, Note_off_c, 0, 72, 65
1, 199706, Note_on_c, 0, 78, 63
1, 199714, Note_on_c, 0, 66, 53
1, 199720, Note_on_c, 0, 72, 51
1, 199777, Note_on_c, 0, 38, 60
1, 199781, Note_on_c, 0, 50, 57
1, 199808, Note_off_c, 0, 38, 65
1, 199809, Note_off_c, 0, 50, 66
1, 200069, Note_off_c, 0, 66, 64
1, 200082, Note_off_c, 0, 72, 62
1, 200366, Note_off_c, 0, 78, 58
1, 200369, Note_on_c, 0, 71, 48
1, 200376, Note_on_c, 0, 79, 57
1, 200385, Note_on_c, 0, 67, 49
1, 200417, Note_off_c, 0, 79, 60
1, 200423, Note_on_c, 0, 43, 59
1, 200432, Note_off_c, 0, 71, 62
1, 200435, Note_on_c, 0, 55, 42
1, 200446, Note_off_c, 0, 67, 61
1, 200454, Note_off_c, 0, 43, 62
1, 200464, Note_off_c, 0, 55, 51
1, 200794, Note_on_c, 0, 67, 57
1, 200796, Note_on_c, 0, 59, 50
1, 200797, Note_on_c, 0, 43, 59
1, 200799, Note_on_c, 0, 62, 49
1, 200800, Note_on_c, 0, 55, 51
1, 200819, Note_off_c, 0, 59, 59
1, 200823, Note_off_c, 0, 62, 60
1, 200824, Note_off_c, 0, 43, 58
1, 200826, Note_off_c, 0, 55, 64
1, 200829, Note_off_c, 0, 67, 63
1, 201739, Note_on_c, 0, 72, 53
1, 201744, Note_on_c, 0, 69, 44
1, 201744, Note_on_c, 0, 62, 39
1, 201751, Note_on_c, 0, 66, 41
1, 201803, Note_on_c, 0, 60, 46
1, 201806, Note_on_c, 0, 57, 43
1, 201812, Note_on_c, 0, 54, 41
1, 201818, Note_on_c, 0, 50, 46
1, 201832, Note_off_c, 0, 62, 59
1, 201848, Control_c, 0, 64, 46
1, 201863, Control_c, 0, 64, 67
1, 201875, Note_off_c, 0, 66, 65
1, 201878, Control_c, 0, 64, 77
1, 201891, Note_off_c, 0, 72, 62
1, 201893, Control_c, 0, 64, 91
1, 201904, Note_off_c, 0, 69, 64
1, 201907, Control_c, 0, 64, 106
1, 201922, Control_c, 0, 64, 120
1, 201937, Control_c, 0, 64, 127
1, 202322, Note_on_c, 0, 74, 58
1, 202386, Note_on_c, 0, 78, 50
1, 202399, Note_off_c, 0, 74, 59
1, 202418, Note_off_c, 0, 78, 59
1, 202430, Note_on_c, 0, 81, 61
1, 202434, Control_c, 0, 64, 104
1, 202448, Control_c, 0, 64, 88
1, 202463, Control_c, 0, 64, 71
1, 202478, Control_c, 0, 64, 0
1, 202489, Note_on_c, 0, 86, 70
1, 202490, Note_off_c, 0, 81, 59
1, 202495, Note_off_c, 0, 57, 62
1, 202496, Note_off_c, 0, 50, 63
1, 202497, Note_off_c, 0, 54, 57
1, 202505, Note_off_c, 0, 60, 62
1, 202733, Note_off_c, 0, 86, 65
1, 203103, Note_on_c, 0, 67, 49
1, 203104, Note_on_c, 0, 71, 59
1, 203108, Note_on_c, 0, 62, 47
1, 203109, Note_on_c, 0, 59, 48
1, 203162, Note_on_c, 0, 55, 61
1, 203170, Note_on_c, 0, 50, 53
1, 203173, Note_on_c, 0, 43, 58
1, 203180, Note_on_c, 0, 47, 51
1, 203181, Note_off_c, 0, 59, 63
1, 203197, Control_c, 0, 64, 64
1, 203212, Control_c, 0, 64, 73
1, 203222, Note_off_c, 0, 62, 61
1, 203227, Control_c, 0, 64, 87
1, 203242, Control_c, 0, 64, 103
1, 203243, Note_off_c, 0, 67, 58
1, 203246, Note_off_c, 0, 71, 62
1, 203257, Control_c, 0, 64, 118
1, 203271, Control_c, 0, 64, 127
1, 203674, Note_on_c, 0, 74, 66
1, 203723, Note_off_c, 0, 74, 54
1, 203736, Note_on_c, 0, 79, 60
1, 203771, Note_off_c, 0, 79, 61
1, 203789, Note_on_c, 0, 83, 79
1, 203833, Note_off_c, 0, 43, 60
1, 203842, Note_off_c, 0, 50, 62
1, 203846, Note_off_c, 0, 83, 62
1, 203855, Note_off_c, 0, 47, 45
1, 203857, Control_c, 0, 64, 112
1, 203858, Note_off_c, 0, 55, 63
1, 203865, Note_on_c, 0, 86, 72
1, 203872, Control_c, 0, 64, 86
1, 203887, Control_c, 0, 64, 65
1, 203902, Control_c, 0, 64, 0
1, 204120, Note_off_c, 0, 86, 66
1, 204454, Note_on_c, 0, 72, 60
1, 204468, Note_on_c, 0, 66, 47
1, 204472, Note_on_c, 0, 62, 40
1, 204526, Note_on_c, 0, 50, 59
1, 204529, Note_on_c, 0, 57, 50
1, 204534, Note_on_c, 0, 60, 51
1, 204549, Note_off_c, 0, 50, 63
1, 204554, Note_off_c, 0, 57, 55
1, 204557, Note_off_c, 0, 60, 55
1, 204757, Note_off_c, 0, 62, 39
1, 204810, Note_off_c, 0, 66, 66
1, 204826, Note_off_c, 0, 72, 65
1, 205144, Note_on_c, 0, 78, 66
1, 205148, Note_on_c, 0, 72, 57
1, 205151, Note_on_c, 0, 66, 52
1, 205232, Note_on_c, 0, 38, 62
1, 205233, Note_on_c, 0, 50, 60
1, 205261, Note_off_c, 0, 50, 64
1, 205262, Note_off_c, 0, 38, 64
1, 205509, Note_off_c, 0, 72, 62
1, 205514, Note_off_c, 0, 66, 64
1, 205784, Note_off_c, 0, 78, 60
1, 205795, Note_on_c, 0, 71, 48
1, 205807, Note_on_c, 0, 79, 65
1, 205819, Note_on_c, 0, 67, 48
1, 205861, Note_off_c, 0, 79, 60
1, 205869, Note_off_c, 0, 71, 62
1, 205874, Note_on_c, 0, 43, 59
1, 205875, Note_on_c, 0, 55, 57
1, 205888, Note_off_c, 0, 67, 61
1, 205899, Note_off_c, 0, 55, 65
1, 205905, Note_off_c, 0, 43, 62
1, 206205, Note_on_c, 0, 59, 54
1, 206207, Note_on_c, 0, 67, 54
1, 206211, Note_on_c, 0, 62, 53
1, 206216, Note_on_c, 0, 43, 62
1, 206221, Note_on_c, 0, 55, 55
1, 206240, Note_off_c, 0, 59, 63
1, 206245, Note_off_c, 0, 55, 64
1, 206245, Note_off_c, 0, 62, 63
1, 206248, Note_off_c, 0, 43, 63
1, 206254, Note_off_c, 0, 67, 61
1, 207124, Note_on_c, 0, 72, 49
1, 207130, Note_on_c, 0, 66, 46
1, 207136, Note_on_c, 0, 62, 41
1, 207180, Note_on_c, 0, 57, 56
1, 207184, Note_on_c, 0, 50, 52
1, 207184, Note_on_c, 0, 60, 52
1, 207203, Note_off_c, 0, 57, 62
1, 207206, Note_off_c, 0, 60, 59
1, 207208, Note_off_c, 0, 50, 57
1, 207424, Note_off_c, 0, 62, 50
1, 207480, Note_off_c, 0, 66, 66
1, 207501, Note_off_c, 0, 72, 65
1, 207787, Note_on_c, 0, 69, 58
1, 207788, Note_on_c, 0, 78, 59
1, 207789, Note_on_c, 0, 81, 62
1, 207872, Note_on_c, 0, 50, 62
1, 207874, Note_on_c, 0, 38, 65
1, 207902, Note_off_c, 0, 50, 65
1, 207902, Note_off_c, 0, 38, 64
1, 208144, Note_off_c, 0, 69, 59
1, 208170, Note_off_c, 0, 81, 58
1, 208422, Note_off_c, 0, 78, 54
1, 208426, Note_on_c, 0, 83, 64
1, 208436, Note_on_c, 0, 71, 55
1, 208436, Note_on_c, 0, 79, 53
1, 208478, Note_off_c, 0, 83, 59
1, 208485, Note_off_c, 0, 79, 60
1, 208492, Note_on_c, 0, 43, 59
1, 208495, Note_on_c, 0, 55, 54
1, 208502, Note_off_c, 0, 71, 60
1, 208524, Note_off_c, 0, 55, 66
1, 208527, Note_off_c, 0, 43, 62
1, 208844, Note_on_c, 0, 59, 53
1, 208845, Note_on_c, 0, 62, 52
1, 208848, Note_on_c, 0, 67, 43
1, 208848, Note_on_c, 0, 71, 55
1, 208853, Note_on_c, 0, 43, 61
1, 208859, Note_on_c, 0, 55, 53
1, 208882, Note_off_c, 0, 55, 61
1, 208883, Note_off_c, 0, 43, 62
1, 208886, Note_off_c, 0, 59, 62
1, 208888, Note_off_c, 0, 62, 63
1, 208894, Note_off_c, 0, 67, 61
1, 208913, Note_off_c, 0, 71, 59
1, 209769, Note_on_c, 0, 74, 93
1, 209775, Note_on_c, 0, 62, 100
1, 209777, Note_on_c, 0, 69, 89
1, 209778, Note_on_c, 0, 72, 85
1, 209847, Note_on_c, 0, 50, 91
1, 209849, Note_on_c, 0, 57, 90
1, 209849, Note_on_c, 0, 60, 92
1, 209863, Control_c, 0, 64, 58
1, 209874, Note_off_c, 0, 57, 67
1, 209874, Note_off_c, 0, 60, 67
1, 209878, Control_c, 0, 64, 78
1, 209879, Note_off_c, 0, 50, 67
1, 209893, Control_c, 0, 64, 104
1, 209906, Note_off_c, 0, 62, 57
1, 209907, Control_c, 0, 64, 127
1, 209977, Note_off_c, 0, 69, 54
1, 210031, Note_off_c, 0, 74, 64
1, 210034, Note_off_c, 0, 72, 61
1, 210248, Control_c, 0, 64, 122
1, 210263, Control_c, 0, 64, 93
1, 210278, Control_c, 0, 64, 66
1, 210299, Control_c, 0, 64, 0
1, 210412, Note_on_c, 0, 74, 89
1, 210412, Note_on_c, 0, 86, 94
1, 210416, Note_on_c, 0, 81, 87
1, 210418, Note_on_c, 0, 78, 85
1, 210487, Note_on_c, 0, 50, 99
1, 210488, Note_on_c, 0, 38, 91
1, 210507, Control_c, 0, 64, 66
1, 210522, Control_c, 0, 64, 93
1, 210525, Note_off_c, 0, 50, 65
1, 210531, Note_off_c, 0, 38, 62
1, 210537, Note_off_c, 0, 86, 61
1, 210537, Control_c, 0, 64, 127
1, 210579, Note_off_c, 0, 81, 57
1, 210604, Note_off_c, 0, 74, 59
1, 210605, Note_off_c, 0, 78, 61
1, 211013, Note_on_c, 0, 83, 92
1, 211015, Note_on_c, 0, 71, 95
1, 211017, Note_on_c, 0, 74, 87
1, 211026, Note_on_c, 0, 79, 86
1, 211026, Control_c, 0, 64, 122
1, 211041, Control_c, 0, 64, 91
1, 211063, Control_c, 0, 64, 67
1, 211078, Control_c, 0, 64, 0
1, 211080, Note_off_c, 0, 83, 63
1, 211099, Note_off_c, 0, 74, 66
1, 211101, Note_off_c, 0, 79, 60
1, 211104, Note_on_c, 0, 55, 103
1, 211104, Note_off_c, 0, 71, 57
1, 211106, Note_on_c, 0, 43, 95
1, 211139, Note_off_c, 0, 43, 66
1, 211141, Note_off_c, 0, 55, 62
1, 211445, Note_on_c, 0, 59, 96
1, 211452, Note_on_c, 0, 43, 89
1, 211454, Note_on_c, 0, 55, 94
1, 211480, Note_off_c, 0, 43, 66
1, 211486, Note_off_c, 0, 55, 66
1, 211491, Note_off_c, 0, 59, 69
1, 211745, Control_c, 0, 67, 9
1, 211760, Control_c, 0, 67, 20
1, 211775, Control_c, 0, 67, 42
1, 211790, Control_c, 0, 67, 79
1, 211813, Control_c, 0, 67, 127
1, 212479, Note_on_c, 0, 79, 66
1, 212489, Note_on_c, 0, 67, 49
1, 212490, Note_on_c, 0, 43, 55
1, 212493, Note_on_c, 0, 31, 59
1, 212494, Note_on_c, 0, 71, 46
1, 212504, Note_off_c, 0, 79, 67
1, 212514, Note_off_c, 0, 67, 60
1, 212516, Note_off_c, 0, 71, 59
1, 212517, Note_on_c, 0, 74, 13
1, 212522, Note_off_c, 0, 43, 62
1, 212523, Note_off_c, 0, 31, 62
1, 212564, Note_off_c, 0, 74, 30
1, 212862, Note_on_c, 0, 47, 70
1, 212868, Note_on_c, 0, 43, 62
1, 212869, Note_on_c, 0, 31, 62
1, 212869, Note_on_c, 0, 55, 60
1, 212874, Note_on_c, 0, 50, 54
1, 212891, Note_off_c, 0, 47, 65
1, 212897, Note_off_c, 0, 43, 63
1, 212897, Note_off_c, 0, 50, 62
1, 212898, Note_off_c, 0, 31, 62
1, 212898, Note_off_c, 0, 55, 67
1, 213739, Control_c, 0, 67, 126
1, 213754, Control_c, 0, 67, 102
1, 213770, Control_c, 0, 67, 77
1, 213785, Control_c, 0, 67, 53
1, 213800, Control_c, 0, 67, 29
1, 213814, Control_c, 0, 67, 0
1, 213814, End_track
0, 0, End_of_file
