0, 0, Header, 0, 1, 384
1, 0, Start_track
1, 0, Title_t, "Ballade No. 4--Arthur Khmara       "
1, 0, Text_t, "2008 e-Piano Junior Competition virtual audition round"
1, 0, Text_t, "recorded January and February 2008"
1, 0, Text_t, "http://www.piano-e-competition.com/"
1, 0, Text_t, "File processed for distribution by software from Zenph Studios, Inc., http://www.zenph.com"
1, 0, Instrument_name_t, "Yamaha Disklavier Pro Mark IV concert grand piano, model DCFIIISM4PRO"
1, 0, Sequencer_specific, 39, 67, 113, 0, 1, 0, 1, 0, 66, 97, 108, 108, 97, 100, 101, 32, 78, 111, 46, 32, 52, 32, 32, 32, 65, 114, 116, 104, 117, 114, 32, 75, 104, 109, 97, 114, 97, 32, 32, 32
1, 0, Sequencer_specific, 6, 67, 113, 0, 0, 0, 69
1, 0, System_exclusive, 21, 67, 113, 126, 21, 0, 2, 2, 1, 9, 2, 9, 4, 7, 10, 3, 2, 0, 6, 8, 3, 247
1, 0, Sequencer_specific, 5, 67, 123, 12, 2, 1
1, 0, Tempo, 512820
1, 0, Time_signature, 4, 2, 24, 8
1, 0, System_exclusive, 5, 126, 127, 9, 1, 247
1, 1, System_exclusive, 8, 67, 16, 76, 0, 0, 126, 0, 247
1, 2, System_exclusive, 8, 67, 16, 76, 8, 9, 7, 1, 247
1, 3, Control_c, 0, 0, 0
1, 3, Control_c, 1, 0, 0
1, 3, Control_c, 2, 0, 0
1, 3, Control_c, 3, 0, 0
1, 3, Control_c, 4, 0, 0
1, 3, Control_c, 5, 0, 0
1, 3, Control_c, 6, 0, 0
1, 3, Control_c, 7, 0, 0
1, 3, Control_c, 8, 0, 0
1, 3, Control_c, 9, 0, 127
1, 3, Control_c, 10, 0, 0
1, 3, Control_c, 11, 0, 0
1, 3, Control_c, 12, 0, 0
1, 3, Control_c, 13, 0, 0
1, 3, Control_c, 14, 0, 0
1, 3, Control_c, 15, 0, 0
1, 4, Control_c, 0, 32, 0
1, 4, Control_c, 1, 32, 0
1, 4, Control_c, 2, 32, 0
1, 4, Control_c, 3, 32, 0
1, 4, Control_c, 4, 32, 0
1, 4, Control_c, 5, 32, 0
1, 4, Control_c, 6, 32, 0
1, 4, Control_c, 7, 32, 0
1, 4, Control_c, 8, 32, 0
1, 4, Control_c, 9, 32, 0
1, 4, Control_c, 10, 32, 0
1, 4, Control_c, 11, 32, 0
1, 4, Control_c, 12, 32, 0
1, 4, Control_c, 13, 32, 0
1, 4, Control_c, 14, 32, 0
1, 4, Control_c, 15, 32, 0
1, 5, Program_c, 0, 0
1, 5, Program_c, 1, 0
1, 5, Program_c, 2, 0
1, 5, Program_c, 3, 0
1, 5, Program_c, 4, 0
1, 5, Program_c, 5, 0
1, 5, Program_c, 6, 0
1, 5, Program_c, 7, 0
1, 5, Program_c, 8, 0
1, 5, Program_c, 9, 0
1, 5, Program_c, 10, 0
1, 5, Program_c, 11, 0
1, 5, Program_c, 12, 0
1, 5, Program_c, 13, 0
1, 5, Program_c, 14, 0
1, 5, Program_c, 15, 0
1, 6, Control_c, 0, 7, 100
1, 117, Control_c, 0, 64, 15
1, 117, Control_c, 0, 67, 15
1, 229, Control_c, 0, 64, 31
1, 229, Control_c, 0, 67, 31
1, 341, Control_c, 0, 64, 46
1, 341, Control_c, 0, 67, 46
1, 452, Control_c, 0, 64, 63
1, 452, Control_c, 0, 67, 63
1, 564, Control_c, 0, 64, 77
1, 564, Control_c, 0, 67, 77
1, 676, Control_c, 0, 64, 94
1, 676, Control_c, 0, 67, 94
1, 787, Control_c, 0, 64, 108
1, 787, Control_c, 0, 67, 108
1, 899, Control_c, 0, 64, 127
1, 899, Control_c, 0, 67, 127
1, 899, Control_c, 1, 7, 100
1, 899, Control_c, 2, 7, 100
1, 899, Control_c, 3, 7, 100
1, 899, Control_c, 4, 7, 100
1, 899, Control_c, 5, 7, 100
1, 899, Control_c, 6, 7, 100
1, 899, Control_c, 7, 7, 100
1, 899, Control_c, 8, 7, 100
1, 899, Control_c, 9, 7, 100
1, 899, Control_c, 10, 7, 100
1, 899, Control_c, 11, 7, 100
1, 899, Control_c, 12, 7, 100
1, 899, Control_c, 13, 7, 100
1, 899, Control_c, 14, 7, 100
1, 899, Control_c, 15, 7, 100
1, 1133, Note_on_c, 0, 67, 41
1, 1135, Note_on_c, 0, 79, 40
1, 1343, Note_off_c, 0, 67, 0
1, 1381, Poly_aftertouch_c, 0, 67, 0
1, 1398, Note_off_c, 0, 79, 31
1, 1660, Note_on_c, 0, 67, 37
1, 1660, Note_on_c, 0, 79, 44
1, 1857, Note_off_c, 0, 67, 42
1, 1873, Note_off_c, 0, 79, 32
1, 1916, Control_c, 0, 67, 127
1, 1945, Control_c, 0, 67, 126
1, 2005, Control_c, 0, 67, 126
1, 2077, Note_on_c, 0, 79, 46
1, 2078, Control_c, 0, 67, 125
1, 2083, Note_on_c, 0, 67, 40
1, 2124, Control_c, 0, 67, 125
1, 2168, Control_c, 0, 67, 124
1, 2205, Note_off_c, 0, 67, 0
1, 2227, Control_c, 0, 67, 124
1, 2255, Poly_aftertouch_c, 0, 67, 0
1, 2255, Note_off_c, 0, 79, 31
1, 2330, Control_c, 0, 67, 123
1, 2398, Control_c, 0, 67, 123
1, 2457, Control_c, 0, 67, 122
1, 2486, Control_c, 0, 67, 122
1, 2509, Note_on_c, 0, 79, 40
1, 2527, Note_on_c, 0, 67, 37
1, 2528, Note_on_c, 0, 64, 40
1, 2575, Control_c, 0, 67, 121
1, 2709, Control_c, 0, 67, 122
1, 2760, Note_off_c, 0, 64, 35
1, 2769, Note_on_c, 0, 72, 46
1, 2783, Control_c, 0, 67, 121
1, 2831, Note_off_c, 0, 79, 39
1, 2866, Note_off_c, 0, 67, 42
1, 2925, Note_off_c, 0, 72, 56
1, 2931, Control_c, 0, 67, 121
1, 2947, Note_on_c, 0, 79, 53
1, 2959, Note_on_c, 0, 64, 37
1, 2974, Note_on_c, 0, 67, 34
1, 2990, Control_c, 0, 67, 120
1, 3034, Control_c, 0, 67, 120
1, 3049, Control_c, 0, 67, 119
1, 3093, Control_c, 0, 67, 119
1, 3131, Note_on_c, 0, 72, 44
1, 3157, Note_off_c, 0, 79, 34
1, 3202, Note_off_c, 0, 67, 31
1, 3205, Control_c, 0, 67, 118
1, 3274, Note_off_c, 0, 72, 57
1, 3287, Note_on_c, 0, 79, 55
1, 3294, Note_on_c, 0, 62, 49
1, 3308, Control_c, 0, 64, 93
1, 3314, Note_on_c, 0, 67, 45
1, 3323, Control_c, 0, 64, 70
1, 3338, Control_c, 0, 64, 59
1, 3353, Control_c, 0, 64, 57
1, 3367, Control_c, 0, 64, 63
1, 3383, Control_c, 0, 64, 69
1, 3398, Control_c, 0, 64, 81
1, 3413, Control_c, 0, 64, 127
1, 3430, Note_off_c, 0, 64, 43
1, 3448, Note_on_c, 0, 72, 53
1, 3463, Note_off_c, 0, 62, 56
1, 3488, Note_off_c, 0, 79, 34
1, 3498, Note_off_c, 0, 67, 42
1, 3516, Control_c, 0, 67, 118
1, 3546, Control_c, 0, 67, 117
1, 3576, Control_c, 0, 67, 117
1, 3597, Note_off_c, 0, 72, 60
1, 3606, Control_c, 0, 67, 116
1, 3609, Note_on_c, 0, 79, 61
1, 3611, Note_on_c, 0, 62, 49
1, 3621, Control_c, 0, 64, 84
1, 3629, Note_on_c, 0, 67, 49
1, 3635, Control_c, 0, 64, 65
1, 3650, Control_c, 0, 64, 53
1, 3665, Control_c, 0, 64, 56
1, 3680, Control_c, 0, 64, 63
1, 3695, Control_c, 0, 64, 71
1, 3709, Control_c, 0, 64, 83
1, 3709, Control_c, 0, 67, 116
1, 3724, Control_c, 0, 64, 127
1, 3775, Note_on_c, 0, 72, 55
1, 3789, Note_on_c, 0, 70, 51
1, 3813, Control_c, 0, 67, 115
1, 3825, Note_off_c, 0, 79, 31
1, 3842, Control_c, 0, 67, 115
1, 3848, Note_off_c, 0, 67, 31
1, 3895, Control_c, 0, 67, 114
1, 3910, Control_c, 0, 67, 112
1, 3924, Control_c, 0, 67, 112
1, 3939, Control_c, 0, 67, 111
1, 3954, Control_c, 0, 67, 111
1, 3969, Control_c, 0, 67, 110
1, 3980, Note_on_c, 0, 79, 57
1, 3983, Control_c, 0, 67, 109
1, 3984, Note_on_c, 0, 67, 49
1, 3987, Note_off_c, 0, 70, 51
1, 3987, Note_off_c, 0, 72, 48
1, 3992, Note_on_c, 0, 60, 45
1, 3998, Control_c, 0, 67, 106
1, 4013, Control_c, 0, 67, 104
1, 4028, Control_c, 0, 67, 103
1, 4042, Control_c, 0, 64, 105
1, 4057, Control_c, 0, 64, 80
1, 4057, Control_c, 0, 67, 102
1, 4072, Control_c, 0, 64, 61
1, 4072, Control_c, 0, 67, 102
1, 4087, Control_c, 0, 64, 42
1, 4087, Control_c, 0, 67, 101
1, 4102, Control_c, 0, 64, 40
1, 4102, Control_c, 0, 67, 100
1, 4116, Control_c, 0, 64, 50
1, 4116, Control_c, 0, 67, 98
1, 4131, Control_c, 0, 64, 62
1, 4131, Control_c, 0, 67, 96
1, 4146, Control_c, 0, 64, 68
1, 4146, Control_c, 0, 67, 91
1, 4151, Note_on_c, 0, 72, 57
1, 4157, Note_off_c, 0, 62, 34
1, 4160, Control_c, 0, 64, 76
1, 4160, Control_c, 0, 67, 87
1, 4164, Note_on_c, 0, 70, 47
1, 4175, Control_c, 0, 64, 92
1, 4175, Control_c, 0, 67, 85
1, 4190, Note_off_c, 0, 67, 0
1, 4192, Control_c, 0, 64, 127
1, 4192, Control_c, 0, 67, 83
1, 4206, Control_c, 0, 67, 82
1, 4211, Note_off_c, 0, 79, 32
1, 4221, Control_c, 0, 67, 79
1, 4236, Control_c, 0, 67, 77
1, 4247, Poly_aftertouch_c, 0, 67, 0
1, 4251, Control_c, 0, 67, 76
1, 4280, Control_c, 0, 67, 77
1, 4319, Note_off_c, 0, 60, 64
1, 4325, Control_c, 0, 67, 77
1, 4344, Note_off_c, 0, 72, 57
1, 4351, Note_on_c, 0, 79, 61
1, 4354, Note_on_c, 0, 67, 60
1, 4354, Control_c, 0, 67, 78
1, 4393, Note_off_c, 0, 70, 34
1, 4541, Note_on_c, 0, 72, 55
1, 4542, Note_on_c, 0, 70, 52
1, 4552, Note_off_c, 0, 67, 49
1, 4584, Note_off_c, 0, 79, 32
1, 4834, Note_on_c, 0, 79, 57
1, 4846, Note_on_c, 0, 67, 43
1, 4851, Control_c, 0, 64, 91
1, 4857, Note_on_c, 0, 41, 50
1, 4865, Control_c, 0, 64, 66
1, 4865, Control_c, 0, 67, 78
1, 4880, Control_c, 0, 64, 45
1, 4887, Note_off_c, 0, 72, 30
1, 4895, Control_c, 0, 64, 35
1, 4910, Control_c, 0, 64, 51
1, 4910, Control_c, 0, 67, 79
1, 4916, Note_off_c, 0, 70, 43
1, 4925, Control_c, 0, 64, 65
1, 4939, Control_c, 0, 64, 76
1, 4950, Note_off_c, 0, 41, 63
1, 4954, Control_c, 0, 64, 97
1, 4969, Control_c, 0, 64, 127
1, 5066, Note_on_c, 0, 72, 54
1, 5073, Note_off_c, 0, 67, 59
1, 5074, Note_off_c, 0, 79, 37
1, 5074, Control_c, 0, 67, 79
1, 5078, Note_on_c, 0, 60, 57
1, 5078, Note_on_c, 0, 69, 54
1, 5133, Control_c, 0, 67, 80
1, 5211, Note_off_c, 0, 69, 55
1, 5220, Note_off_c, 0, 72, 57
1, 5225, Note_off_c, 0, 60, 54
1, 5226, Note_on_c, 0, 77, 68
1, 5236, Note_on_c, 0, 57, 52
1, 5236, Control_c, 0, 67, 80
1, 5237, Note_on_c, 0, 65, 57
1, 5326, Control_c, 0, 67, 81
1, 5335, Note_off_c, 0, 57, 52
1, 5359, Note_off_c, 0, 77, 51
1, 5362, Control_c, 0, 67, 81
1, 5378, Note_off_c, 0, 65, 62
1, 5382, Note_on_c, 0, 69, 50
1, 5388, Note_on_c, 0, 60, 52
1, 5389, Note_on_c, 0, 72, 50
1, 5406, Control_c, 0, 67, 82
1, 5511, Control_c, 0, 67, 82
1, 5526, Note_off_c, 0, 60, 50
1, 5529, Note_off_c, 0, 72, 57
1, 5530, Note_off_c, 0, 69, 56
1, 5537, Note_on_c, 0, 76, 70
1, 5540, Control_c, 0, 64, 84
1, 5540, Control_c, 0, 67, 83
1, 5541, Note_on_c, 0, 64, 60
1, 5546, Note_on_c, 0, 50, 58
1, 5555, Control_c, 0, 64, 64
1, 5570, Control_c, 0, 64, 48
1, 5600, Control_c, 0, 64, 61
1, 5614, Control_c, 0, 64, 72
1, 5614, Control_c, 0, 67, 83
1, 5629, Control_c, 0, 64, 95
1, 5644, Control_c, 0, 64, 127
1, 5664, Note_off_c, 0, 50, 57
1, 5675, Note_off_c, 0, 76, 54
1, 5678, Note_on_c, 0, 69, 50
1, 5683, Note_on_c, 0, 72, 55
1, 5686, Note_on_c, 0, 60, 53
1, 5710, Note_off_c, 0, 64, 0
1, 5725, Note_off_c, 0, 60, 63
1, 5737, Poly_aftertouch_c, 0, 64, 0
1, 5762, Control_c, 0, 67, 83
1, 5768, Note_off_c, 0, 72, 0
1, 5768, Note_on_c, 0, 72, 8
1, 5858, Note_off_c, 0, 69, 58
1, 5868, Control_c, 0, 64, 80
1, 5868, Control_c, 0, 67, 83
1, 5883, Note_off_c, 0, 72, 52
1, 5883, Control_c, 0, 64, 60
1, 5886, Note_on_c, 0, 43, 48
1, 5887, Note_on_c, 0, 76, 63
1, 5898, Control_c, 0, 64, 33
1, 5907, Note_on_c, 0, 64, 33
1, 5912, Control_c, 0, 64, 28
1, 5912, Control_c, 0, 67, 84
1, 5927, Control_c, 0, 64, 49
1, 5942, Control_c, 0, 64, 65
1, 5953, Note_off_c, 0, 43, 62
1, 5957, Control_c, 0, 64, 78
1, 5972, Control_c, 0, 64, 99
1, 5986, Control_c, 0, 64, 127
1, 6034, Note_off_c, 0, 76, 32
1, 6063, Note_on_c, 0, 67, 47
1, 6063, Note_off_c, 0, 64, 39
1, 6065, Note_on_c, 0, 71, 40
1, 6078, Note_on_c, 0, 55, 47
1, 6158, Note_off_c, 0, 55, 48
1, 6196, Note_off_c, 0, 67, 57
1, 6220, Note_on_c, 0, 74, 59
1, 6232, Note_on_c, 0, 59, 30
1, 6232, Note_off_c, 0, 71, 47
1, 6233, Note_on_c, 0, 62, 50
1, 6241, Note_on_c, 0, 53, 44
1, 6290, Control_c, 0, 64, 119
1, 6305, Control_c, 0, 64, 75
1, 6319, Control_c, 0, 64, 62
1, 6334, Control_c, 0, 64, 62
1, 6349, Control_c, 0, 64, 69
1, 6363, Control_c, 0, 64, 84
1, 6369, Note_off_c, 0, 59, 40
1, 6378, Control_c, 0, 64, 127
1, 6382, Note_on_c, 0, 55, 42
1, 6384, Note_on_c, 0, 67, 51
1, 6413, Note_off_c, 0, 62, 35
1, 6418, Note_off_c, 0, 74, 35
1, 6421, Note_off_c, 0, 53, 41
1, 6453, Control_c, 0, 67, 83
1, 6548, Note_off_c, 0, 55, 0
1, 6570, Note_off_c, 0, 67, 56
1, 6583, Note_on_c, 0, 72, 54
1, 6598, Note_on_c, 0, 52, 42
1, 6598, Note_on_c, 0, 60, 47
1, 6599, Poly_aftertouch_c, 0, 55, 0
1, 6616, Control_c, 0, 64, 102
1, 6631, Control_c, 0, 64, 73
1, 6646, Control_c, 0, 64, 55
1, 6661, Control_c, 0, 64, 34
1, 6691, Control_c, 0, 64, 50
1, 6706, Control_c, 0, 64, 64
1, 6721, Control_c, 0, 64, 74
1, 6735, Control_c, 0, 64, 87
1, 6750, Control_c, 0, 64, 108
1, 6757, Note_on_c, 0, 67, 41
1, 6765, Control_c, 0, 64, 127
1, 6771, Note_on_c, 0, 55, 38
1, 6783, Note_off_c, 0, 60, 31
1, 6794, Control_c, 0, 67, 83
1, 6821, Note_off_c, 0, 52, 37
1, 6868, Note_off_c, 0, 72, 41
1, 6980, Note_off_c, 0, 55, 32
1, 7009, Control_c, 0, 67, 82
1, 7048, Note_on_c, 0, 76, 51
1, 7058, Note_on_c, 0, 64, 41
1, 7066, Note_on_c, 0, 48, 38
1, 7073, Note_off_c, 0, 67, 31
1, 7186, Control_c, 0, 64, 94
1, 7201, Control_c, 0, 64, 70
1, 7216, Control_c, 0, 64, 53
1, 7231, Control_c, 0, 64, 37
1, 7246, Control_c, 0, 64, 45
1, 7260, Control_c, 0, 64, 59
1, 7275, Control_c, 0, 64, 68
1, 7287, Note_off_c, 0, 64, 42
1, 7290, Note_on_c, 0, 72, 34
1, 7290, Control_c, 0, 64, 77
1, 7300, Note_on_c, 0, 67, 24
1, 7301, Note_on_c, 0, 55, 42
1, 7305, Control_c, 0, 64, 90
1, 7320, Control_c, 0, 64, 110
1, 7335, Control_c, 0, 64, 127
1, 7350, Control_c, 0, 67, 82
1, 7421, Note_off_c, 0, 67, 43
1, 7453, Note_off_c, 0, 55, 42
1, 7462, Note_on_c, 0, 64, 39
1, 7469, Control_c, 0, 67, 81
1, 7480, Note_on_c, 0, 60, 42
1, 7508, Note_off_c, 0, 72, 34
1, 7620, Note_off_c, 0, 64, 44
1, 7654, Note_on_c, 0, 72, 47
1, 7654, Control_c, 0, 67, 81
1, 7655, Note_off_c, 0, 60, 42
1, 7663, Note_on_c, 0, 65, 39
1, 7674, Note_on_c, 0, 57, 38
1, 7787, Control_c, 0, 67, 80
1, 7848, Note_off_c, 0, 65, 49
1, 7905, Control_c, 0, 67, 80
1, 7917, Note_on_c, 0, 55, 39
1, 7920, Note_on_c, 0, 64, 38
1, 7934, Control_c, 0, 64, 89
1, 7949, Control_c, 0, 64, 66
1, 7958, Note_off_c, 0, 57, 31
1, 7964, Control_c, 0, 64, 45
1, 7979, Control_c, 0, 64, 0
1, 7994, Control_c, 0, 64, 18
1, 8000, Note_off_c, 0, 72, 32
1, 8009, Control_c, 0, 64, 46
1, 8023, Control_c, 0, 64, 63
1, 8038, Control_c, 0, 64, 72
1, 8053, Control_c, 0, 64, 84
1, 8068, Control_c, 0, 64, 98
1, 8083, Control_c, 0, 64, 127
1, 8098, Note_off_c, 0, 55, 57
1, 8128, Note_off_c, 0, 64, 36
1, 8132, Note_off_c, 0, 48, 35
1, 8168, Note_on_c, 0, 72, 40
1, 8176, Note_off_c, 0, 76, 34
1, 8179, Note_on_c, 0, 67, 41
1, 8234, Note_off_c, 0, 67, 49
1, 8247, Control_c, 0, 67, 80
1, 8296, Note_on_c, 0, 64, 49
1, 8324, Note_off_c, 0, 72, 33
1, 8372, Control_c, 0, 67, 81
1, 8447, Control_c, 0, 67, 80
1, 8626, Note_on_c, 0, 79, 57
1, 8639, Control_c, 0, 64, 107
1, 8642, Note_on_c, 0, 36, 40
1, 8654, Control_c, 0, 64, 74
1, 8669, Control_c, 0, 64, 51
1, 8684, Control_c, 0, 64, 34
1, 8699, Control_c, 0, 64, 44
1, 8713, Control_c, 0, 64, 61
1, 8728, Control_c, 0, 64, 75
1, 8743, Control_c, 0, 64, 108
1, 8747, Note_off_c, 0, 36, 55
1, 8757, Control_c, 0, 64, 127
1, 8814, Note_off_c, 0, 64, 36
1, 8911, Note_off_c, 0, 79, 0
1, 8965, Poly_aftertouch_c, 0, 79, 0
1, 9028, Note_on_c, 0, 72, 50
1, 9057, Note_on_c, 0, 55, 49
1, 9211, Control_c, 0, 67, 81
1, 9257, Note_off_c, 0, 72, 54
1, 9269, Note_on_c, 0, 79, 58
1, 9275, Note_on_c, 0, 60, 44
1, 9296, Note_on_c, 0, 67, 45
1, 9389, Control_c, 0, 67, 80
1, 9450, Note_on_c, 0, 72, 55
1, 9464, Note_on_c, 0, 70, 52
1, 9466, Note_on_c, 0, 62, 49
1, 9493, Note_off_c, 0, 79, 34
1, 9507, Note_off_c, 0, 67, 33
1, 9611, Control_c, 0, 67, 80
1, 9626, Note_on_c, 0, 79, 67
1, 9627, Note_off_c, 0, 72, 58
1, 9638, Note_on_c, 0, 67, 55
1, 9640, Note_on_c, 0, 64, 51
1, 9648, Note_off_c, 0, 70, 35
1, 9700, Note_off_c, 0, 64, 52
1, 9715, Note_off_c, 0, 55, 33
1, 9720, Note_off_c, 0, 62, 28
1, 9732, Note_off_c, 0, 60, 51
1, 9797, Note_on_c, 0, 72, 54
1, 9807, Note_on_c, 0, 70, 49
1, 9856, Note_off_c, 0, 79, 32
1, 9886, Note_off_c, 0, 67, 27
1, 10093, Control_c, 0, 64, 79
1, 10095, Note_on_c, 0, 41, 41
1, 10096, Note_on_c, 0, 79, 55
1, 10105, Note_on_c, 0, 67, 39
1, 10108, Control_c, 0, 64, 61
1, 10123, Control_c, 0, 64, 35
1, 10124, Note_off_c, 0, 72, 34
1, 10137, Control_c, 0, 64, 0
1, 10143, Note_off_c, 0, 70, 35
1, 10152, Control_c, 0, 64, 18
1, 10167, Control_c, 0, 64, 48
1, 10182, Control_c, 0, 64, 63
1, 10197, Note_off_c, 0, 41, 63
1, 10197, Control_c, 0, 64, 73
1, 10211, Control_c, 0, 64, 84
1, 10226, Control_c, 0, 64, 96
1, 10241, Control_c, 0, 64, 108
1, 10256, Control_c, 0, 64, 127
1, 10314, Note_off_c, 0, 79, 39
1, 10319, Note_on_c, 0, 72, 50
1, 10332, Note_on_c, 0, 69, 44
1, 10338, Note_on_c, 0, 60, 52
1, 10339, Note_off_c, 0, 67, 40
1, 10468, Note_off_c, 0, 69, 54
1, 10474, Note_off_c, 0, 72, 57
1, 10485, Note_on_c, 0, 77, 63
1, 10487, Note_on_c, 0, 65, 55
1, 10487, Note_off_c, 0, 60, 37
1, 10496, Note_on_c, 0, 57, 50
1, 10559, Note_off_c, 0, 57, 48
1, 10626, Note_off_c, 0, 77, 52
1, 10642, Note_on_c, 0, 69, 46
1, 10644, Note_on_c, 0, 60, 32
1, 10647, Note_on_c, 0, 72, 51
1, 10650, Note_off_c, 0, 65, 57
1, 10791, Note_off_c, 0, 60, 45
1, 10800, Note_off_c, 0, 69, 59
1, 10801, Note_off_c, 0, 72, 57
1, 10807, Note_on_c, 0, 76, 67
1, 10816, Note_on_c, 0, 50, 51
1, 10816, Note_on_c, 0, 64, 55
1, 10842, Control_c, 0, 64, 89
1, 10857, Control_c, 0, 64, 68
1, 10871, Control_c, 0, 64, 52
1, 10886, Control_c, 0, 64, 46
1, 10901, Control_c, 0, 64, 56
1, 10916, Control_c, 0, 64, 66
1, 10931, Control_c, 0, 64, 77
1, 10946, Control_c, 0, 64, 100
1, 10960, Control_c, 0, 64, 127
1, 10964, Note_off_c, 0, 76, 55
1, 10966, Note_on_c, 0, 69, 46
1, 10972, Note_on_c, 0, 60, 48
1, 10972, Note_on_c, 0, 72, 47
1, 10978, Note_off_c, 0, 50, 32
1, 11006, Note_off_c, 0, 60, 65
1, 11021, Note_off_c, 0, 64, 29
1, 11130, Note_off_c, 0, 69, 57
1, 11162, Note_on_c, 0, 76, 62
1, 11168, Note_on_c, 0, 43, 50
1, 11168, Note_off_c, 0, 72, 36
1, 11182, Control_c, 0, 64, 111
1, 11185, Note_on_c, 0, 64, 38
1, 11197, Control_c, 0, 64, 76
1, 11212, Control_c, 0, 64, 57
1, 11226, Control_c, 0, 64, 50
1, 11228, Note_off_c, 0, 43, 62
1, 11241, Control_c, 0, 64, 59
1, 11241, Control_c, 0, 67, 80
1, 11256, Control_c, 0, 64, 69
1, 11270, Control_c, 0, 64, 83
1, 11285, Control_c, 0, 64, 127
1, 11341, Note_off_c, 0, 76, 40
1, 11356, Note_on_c, 0, 67, 49
1, 11357, Note_on_c, 0, 71, 45
1, 11363, Note_off_c, 0, 64, 37
1, 11371, Note_on_c, 0, 55, 47
1, 11446, Note_off_c, 0, 55, 47
1, 11472, Note_off_c, 0, 67, 58
1, 11487, Control_c, 0, 67, 81
1, 11490, Note_on_c, 0, 74, 60
1, 11492, Note_off_c, 0, 71, 0
1, 11507, Note_on_c, 0, 62, 50
1, 11510, Note_on_c, 0, 59, 33
1, 11514, Note_on_c, 0, 53, 46
1, 11514, Poly_aftertouch_c, 0, 71, 0
1, 11635, Note_off_c, 0, 74, 52
1, 11639, Note_off_c, 0, 59, 30
1, 11654, Note_on_c, 0, 67, 45
1, 11668, Note_on_c, 0, 55, 45
1, 11669, Note_off_c, 0, 62, 33
1, 11679, Control_c, 0, 67, 81
1, 11687, Note_off_c, 0, 53, 50
1, 11738, Control_c, 0, 67, 82
1, 11820, Note_off_c, 0, 67, 59
1, 11835, Note_off_c, 0, 55, 44
1, 11839, Note_on_c, 0, 72, 56
1, 11842, Control_c, 0, 64, 111
1, 11846, Note_on_c, 0, 52, 46
1, 11854, Note_on_c, 0, 60, 43
1, 11857, Control_c, 0, 64, 77
1, 11872, Control_c, 0, 64, 59
1, 11887, Control_c, 0, 64, 32
1, 11901, Control_c, 0, 64, 0
1, 11916, Control_c, 0, 64, 16
1, 11931, Control_c, 0, 64, 42
1, 11946, Control_c, 0, 64, 58
1, 11961, Control_c, 0, 64, 65
1, 11975, Control_c, 0, 64, 71
1, 11985, Note_off_c, 0, 60, 37
1, 11990, Control_c, 0, 64, 79
1, 12005, Control_c, 0, 64, 93
1, 12014, Note_on_c, 0, 67, 42
1, 12020, Control_c, 0, 64, 127
1, 12031, Note_off_c, 0, 72, 0
1, 12032, Note_on_c, 0, 55, 35
1, 12060, Note_off_c, 0, 52, 39
1, 12103, Poly_aftertouch_c, 0, 72, 0
1, 12152, Note_off_c, 0, 55, 27
1, 12265, Control_c, 0, 67, 82
1, 12274, Note_off_c, 0, 67, 39
1, 12276, Note_on_c, 0, 76, 53
1, 12297, Note_on_c, 0, 64, 37
1, 12307, Note_on_c, 0, 48, 34
1, 12354, Control_c, 0, 64, 111
1, 12369, Control_c, 0, 64, 80
1, 12369, Control_c, 0, 67, 83
1, 12384, Control_c, 0, 64, 64
1, 12398, Control_c, 0, 64, 44
1, 12413, Control_c, 0, 64, 14
1, 12428, Control_c, 0, 64, 16
1, 12442, Control_c, 0, 64, 44
1, 12457, Control_c, 0, 64, 61
1, 12471, Note_off_c, 0, 64, 38
1, 12472, Control_c, 0, 64, 69
1, 12487, Control_c, 0, 64, 79
1, 12502, Note_on_c, 0, 67, 35
1, 12502, Control_c, 0, 64, 95
1, 12505, Note_on_c, 0, 72, 41
1, 12506, Note_on_c, 0, 55, 42
1, 12516, Control_c, 0, 64, 127
1, 12640, Note_off_c, 0, 67, 42
1, 12649, Note_off_c, 0, 72, 39
1, 12660, Note_off_c, 0, 55, 32
1, 12674, Note_on_c, 0, 64, 46
1, 12687, Note_on_c, 0, 60, 38
1, 12829, Control_c, 0, 67, 83
1, 12832, Note_off_c, 0, 64, 46
1, 12853, Note_off_c, 0, 60, 38
1, 12865, Note_on_c, 0, 72, 42
1, 12868, Note_on_c, 0, 57, 40
1, 12868, Note_on_c, 0, 65, 34
1, 12895, Control_c, 0, 67, 84
1, 13033, Note_off_c, 0, 65, 41
1, 13082, Note_on_c, 0, 64, 41
1, 13106, Note_on_c, 0, 55, 37
1, 13118, Control_c, 0, 64, 108
1, 13133, Control_c, 0, 64, 75
1, 13148, Note_off_c, 0, 72, 32
1, 13148, Control_c, 0, 64, 55
1, 13148, Control_c, 0, 67, 84
1, 13163, Control_c, 0, 64, 39
1, 13171, Note_off_c, 0, 57, 37
1, 13177, Control_c, 0, 64, 42
1, 13192, Control_c, 0, 64, 57
1, 13207, Control_c, 0, 64, 67
1, 13222, Control_c, 0, 64, 76
1, 13237, Control_c, 0, 64, 92
1, 13252, Control_c, 0, 64, 127
1, 13254, Note_off_c, 0, 55, 54
1, 13295, Note_on_c, 0, 72, 39
1, 13306, Note_off_c, 0, 48, 40
1, 13311, Control_c, 0, 67, 84
1, 13312, Note_on_c, 0, 67, 42
1, 13379, Note_off_c, 0, 76, 45
1, 13387, Note_off_c, 0, 64, 35
1, 13603, Note_off_c, 0, 72, 0
1, 13608, Note_on_c, 0, 43, 37
1, 13611, Note_off_c, 0, 67, 39
1, 13613, Note_on_c, 0, 76, 48
1, 13628, Note_on_c, 0, 64, 32
1, 13659, Control_c, 0, 64, 107
1, 13673, Control_c, 0, 64, 74
1, 13688, Control_c, 0, 64, 60
1, 13690, Poly_aftertouch_c, 0, 72, 0
1, 13703, Control_c, 0, 64, 54
1, 13718, Control_c, 0, 64, 61
1, 13727, Note_off_c, 0, 43, 61
1, 13733, Control_c, 0, 64, 71
1, 13747, Control_c, 0, 64, 90
1, 13762, Control_c, 0, 64, 127
1, 13838, Note_off_c, 0, 76, 34
1, 13845, Note_on_c, 0, 67, 46
1, 13855, Note_on_c, 0, 71, 43
1, 13869, Note_on_c, 0, 55, 46
1, 13890, Note_off_c, 0, 64, 40
1, 13954, Note_off_c, 0, 55, 45
1, 14001, Note_off_c, 0, 67, 44
1, 14023, Note_on_c, 0, 59, 35
1, 14028, Note_off_c, 0, 71, 43
1, 14030, Note_on_c, 0, 74, 52
1, 14036, Note_on_c, 0, 53, 43
1, 14044, Note_on_c, 0, 62, 37
1, 14185, Note_off_c, 0, 59, 41
1, 14188, Note_off_c, 0, 62, 41
1, 14191, Note_on_c, 0, 67, 43
1, 14195, Note_on_c, 0, 55, 39
1, 14204, Note_off_c, 0, 74, 34
1, 14223, Note_off_c, 0, 53, 41
1, 14370, Note_off_c, 0, 67, 58
1, 14387, Note_on_c, 0, 52, 46
1, 14390, Note_off_c, 0, 55, 39
1, 14392, Note_on_c, 0, 72, 49
1, 14393, Control_c, 0, 64, 89
1, 14400, Note_on_c, 0, 60, 41
1, 14408, Control_c, 0, 64, 69
1, 14422, Control_c, 0, 64, 54
1, 14437, Control_c, 0, 64, 41
1, 14452, Control_c, 0, 64, 42
1, 14467, Control_c, 0, 64, 56
1, 14482, Control_c, 0, 64, 65
1, 14496, Control_c, 0, 64, 72
1, 14511, Control_c, 0, 64, 82
1, 14526, Control_c, 0, 64, 96
1, 14541, Control_c, 0, 64, 127
1, 14550, Note_off_c, 0, 60, 36
1, 14572, Control_c, 0, 67, 83
1, 14577, Note_on_c, 0, 67, 40
1, 14581, Note_on_c, 0, 55, 39
1, 14629, Note_off_c, 0, 52, 43
1, 14631, Control_c, 0, 67, 83
1, 14656, Note_off_c, 0, 72, 38
1, 14707, Note_off_c, 0, 55, 0
1, 14762, Poly_aftertouch_c, 0, 55, 0
1, 14846, Note_on_c, 0, 76, 46
1, 14856, Note_on_c, 0, 64, 34
1, 14861, Note_on_c, 0, 48, 32
1, 14863, Note_off_c, 0, 67, 30
1, 14940, Control_c, 0, 64, 103
1, 14955, Control_c, 0, 64, 76
1, 14970, Control_c, 0, 64, 57
1, 14985, Control_c, 0, 64, 38
1, 14999, Control_c, 0, 64, 37
1, 15014, Control_c, 0, 64, 50
1, 15014, Control_c, 0, 67, 82
1, 15029, Control_c, 0, 64, 63
1, 15043, Control_c, 0, 64, 71
1, 15058, Control_c, 0, 64, 81
1, 15070, Note_off_c, 0, 64, 37
1, 15073, Control_c, 0, 64, 98
1, 15094, Note_on_c, 0, 55, 41
1, 15096, Control_c, 0, 64, 127
1, 15097, Note_on_c, 0, 67, 35
1, 15102, Note_on_c, 0, 72, 33
1, 15190, Note_off_c, 0, 55, 35
1, 15233, Note_off_c, 0, 67, 37
1, 15260, Note_on_c, 0, 64, 40
1, 15276, Note_off_c, 0, 72, 32
1, 15280, Note_on_c, 0, 60, 35
1, 15378, Control_c, 0, 67, 82
1, 15399, Note_off_c, 0, 64, 41
1, 15434, Note_on_c, 0, 72, 40
1, 15435, Note_on_c, 0, 65, 40
1, 15436, Note_on_c, 0, 57, 42
1, 15440, Note_off_c, 0, 60, 39
1, 15501, Note_off_c, 0, 65, 0
1, 15538, Poly_aftertouch_c, 0, 65, 127
1, 15547, Note_off_c, 0, 57, 0
1, 15578, Poly_aftertouch_c, 0, 65, 0
1, 15607, Note_on_c, 0, 55, 43
1, 15607, Note_off_c, 0, 48, 30
1, 15610, Note_on_c, 0, 64, 41
1, 15610, Poly_aftertouch_c, 0, 57, 0
1, 15616, Control_c, 0, 64, 91
1, 15631, Control_c, 0, 64, 69
1, 15644, Note_off_c, 0, 72, 29
1, 15646, Control_c, 0, 64, 55
1, 15661, Control_c, 0, 64, 51
1, 15675, Control_c, 0, 64, 59
1, 15682, Note_off_c, 0, 64, 0
1, 15690, Control_c, 0, 64, 68
1, 15705, Control_c, 0, 64, 79
1, 15720, Poly_aftertouch_c, 0, 64, 127
1, 15720, Control_c, 0, 64, 102
1, 15720, Note_off_c, 0, 55, 0
1, 15735, Control_c, 0, 64, 127
1, 15757, Poly_aftertouch_c, 0, 55, 127
1, 15771, Note_on_c, 0, 48, 43
1, 15779, Note_on_c, 0, 72, 47
1, 15780, Note_on_c, 0, 67, 42
1, 15793, Poly_aftertouch_c, 0, 64, 0
1, 15927, Poly_aftertouch_c, 0, 55, 0
1, 15945, Note_off_c, 0, 67, 44
1, 15961, Note_on_c, 0, 64, 44
1, 15971, Note_on_c, 0, 60, 41
1, 15974, Note_off_c, 0, 72, 29
1, 16053, Control_c, 0, 67, 81
1, 16158, Note_off_c, 0, 64, 45
1, 16167, Note_on_c, 0, 72, 43
1, 16174, Note_on_c, 0, 57, 37
1, 16174, Note_on_c, 0, 65, 25
1, 16220, Note_off_c, 0, 60, 24
1, 16352, Note_off_c, 0, 48, 23
1, 16363, Note_off_c, 0, 65, 39
1, 16388, Note_on_c, 0, 64, 40
1, 16409, Control_c, 0, 64, 84
1, 16410, Note_on_c, 0, 55, 33
1, 16422, Note_off_c, 0, 72, 22
1, 16424, Control_c, 0, 64, 66
1, 16426, Note_off_c, 0, 57, 22
1, 16439, Control_c, 0, 64, 54
1, 16453, Control_c, 0, 64, 53
1, 16468, Control_c, 0, 64, 60
1, 16483, Control_c, 0, 64, 67
1, 16498, Control_c, 0, 64, 76
1, 16507, Note_off_c, 0, 55, 0
1, 16513, Control_c, 0, 64, 86
1, 16528, Control_c, 0, 64, 97
1, 16543, Control_c, 0, 64, 112
1, 16545, Poly_aftertouch_c, 0, 55, 127
1, 16558, Control_c, 0, 64, 127
1, 16604, Note_on_c, 0, 72, 33
1, 16614, Note_on_c, 0, 67, 39
1, 16616, Note_on_c, 0, 48, 40
1, 16647, Note_off_c, 0, 64, 31
1, 16832, Note_off_c, 0, 67, 39
1, 16846, Poly_aftertouch_c, 0, 55, 0
1, 16859, Note_on_c, 0, 64, 36
1, 16860, Note_on_c, 0, 60, 35
1, 16861, Note_off_c, 0, 72, 31
1, 16920, Control_c, 0, 64, 108
1, 16935, Control_c, 0, 64, 79
1, 16949, Control_c, 0, 64, 66
1, 16966, Control_c, 0, 64, 60
1, 16981, Control_c, 0, 64, 62
1, 16995, Control_c, 0, 64, 68
1, 17010, Control_c, 0, 64, 80
1, 17025, Control_c, 0, 64, 105
1, 17039, Control_c, 0, 64, 127
1, 17113, Control_c, 0, 67, 81
1, 17120, Note_off_c, 0, 64, 37
1, 17144, Note_on_c, 0, 72, 43
1, 17158, Note_on_c, 0, 65, 32
1, 17161, Note_on_c, 0, 57, 40
1, 17292, Note_off_c, 0, 60, 33
1, 17598, Note_on_c, 0, 64, 38
1, 17625, Control_c, 0, 64, 101
1, 17628, Note_on_c, 0, 55, 31
1, 17639, Control_c, 0, 64, 88
1, 17654, Control_c, 0, 64, 80
1, 17669, Control_c, 0, 64, 75
1, 17684, Control_c, 0, 64, 72
1, 17699, Control_c, 0, 64, 69
1, 17708, Note_off_c, 0, 65, 32
1, 17713, Control_c, 0, 64, 66
1, 17728, Control_c, 0, 64, 62
1, 17743, Control_c, 0, 64, 58
1, 17758, Control_c, 0, 64, 56
1, 17774, Control_c, 0, 64, 55
1, 17777, Note_off_c, 0, 57, 25
1, 17788, Control_c, 0, 64, 53
1, 17803, Control_c, 0, 64, 49
1, 17818, Control_c, 0, 64, 41
1, 17833, Control_c, 0, 64, 27
1, 17846, Note_off_c, 0, 72, 24
1, 17847, Control_c, 0, 64, 14
1, 17861, Control_c, 0, 64, 14
1, 17876, Control_c, 0, 64, 19
1, 17891, Control_c, 0, 64, 33
1, 17906, Control_c, 0, 64, 47
1, 17921, Control_c, 0, 64, 58
1, 17935, Control_c, 0, 64, 63
1, 17950, Control_c, 0, 64, 65
1, 17965, Control_c, 0, 64, 65
1, 17980, Control_c, 0, 64, 66
1, 17995, Control_c, 0, 64, 68
1, 17997, Note_off_c, 0, 76, 30
1, 18009, Control_c, 0, 64, 71
1, 18024, Control_c, 0, 64, 75
1, 18039, Control_c, 0, 64, 77
1, 18054, Control_c, 0, 64, 77
1, 18069, Control_c, 0, 67, 81
1, 18165, Control_c, 0, 64, 77
1, 18194, Control_c, 0, 64, 76
1, 18209, Control_c, 0, 64, 75
1, 18224, Control_c, 0, 64, 75
1, 18239, Control_c, 0, 64, 74
1, 18254, Control_c, 0, 64, 73
1, 18269, Control_c, 0, 64, 72
1, 18284, Control_c, 0, 64, 71
1, 18299, Control_c, 0, 64, 70
1, 18314, Control_c, 0, 64, 69
1, 18328, Control_c, 0, 64, 69
1, 18343, Control_c, 0, 64, 68
1, 18358, Control_c, 0, 64, 67
1, 18373, Control_c, 0, 64, 67
1, 18387, Control_c, 0, 64, 66
1, 18402, Control_c, 0, 64, 65
1, 18417, Control_c, 0, 64, 65
1, 18432, Control_c, 0, 64, 64
1, 18447, Control_c, 0, 64, 63
1, 18461, Control_c, 0, 64, 62
1, 18476, Control_c, 0, 64, 62
1, 18535, Control_c, 0, 64, 61
1, 18566, Control_c, 0, 64, 60
1, 18581, Control_c, 0, 64, 60
1, 18597, Control_c, 0, 64, 59
1, 18611, Control_c, 0, 64, 59
1, 18626, Control_c, 0, 64, 58
1, 18641, Control_c, 0, 64, 58
1, 18671, Control_c, 0, 64, 57
1, 18685, Control_c, 0, 64, 56
1, 18700, Control_c, 0, 64, 56
1, 18700, Control_c, 0, 67, 82
1, 18730, Control_c, 0, 64, 55
1, 18745, Control_c, 0, 64, 54
1, 18759, Control_c, 0, 64, 54
1, 18774, Control_c, 0, 64, 53
1, 18789, Control_c, 0, 64, 52
1, 18804, Control_c, 0, 64, 52
1, 18818, Control_c, 0, 64, 51
1, 18841, Control_c, 0, 64, 49
1, 18856, Control_c, 0, 64, 46
1, 18871, Control_c, 0, 64, 43
1, 18886, Control_c, 0, 64, 42
1, 18900, Control_c, 0, 64, 41
1, 18915, Control_c, 0, 64, 38
1, 18930, Control_c, 0, 64, 32
1, 18944, Control_c, 0, 64, 21
1, 18959, Control_c, 0, 64, 0
1, 18974, Control_c, 0, 67, 82
1, 19256, Control_c, 0, 67, 82
1, 19375, Control_c, 0, 67, 81
1, 19419, Control_c, 0, 67, 81
1, 19434, Control_c, 0, 67, 80
1, 19449, Control_c, 0, 67, 80
1, 19464, Control_c, 0, 67, 79
1, 19479, Control_c, 0, 67, 79
1, 19494, Control_c, 0, 67, 78
1, 19508, Control_c, 0, 67, 77
1, 19523, Control_c, 0, 67, 77
1, 19553, Control_c, 0, 67, 76
1, 19567, Control_c, 0, 67, 75
1, 19589, Control_c, 0, 67, 74
1, 19604, Control_c, 0, 67, 73
1, 19619, Control_c, 0, 67, 71
1, 19634, Control_c, 0, 67, 62
1, 19649, Control_c, 0, 64, 9
1, 19649, Control_c, 0, 67, 55
1, 19664, Control_c, 0, 64, 21
1, 19664, Control_c, 0, 67, 48
1, 19679, Control_c, 0, 64, 27
1, 19679, Control_c, 0, 67, 42
1, 19693, Note_off_c, 0, 64, 41
1, 19694, Control_c, 0, 64, 30
1, 19694, Control_c, 0, 67, 35
1, 19709, Control_c, 0, 64, 31
1, 19709, Control_c, 0, 67, 27
1, 19723, Control_c, 0, 64, 31
1, 19723, Control_c, 0, 67, 16
1, 19738, Control_c, 0, 64, 32
1, 19738, Control_c, 0, 67, 8
1, 19753, Control_c, 0, 64, 33
1, 19753, Control_c, 0, 67, 0
1, 19767, Control_c, 0, 64, 35
1, 19782, Control_c, 0, 64, 36
1, 19797, Control_c, 0, 64, 37
1, 19840, Note_off_c, 0, 55, 35
1, 19845, Note_off_c, 0, 48, 32
1, 19871, Control_c, 0, 64, 38
1, 20262, Note_on_c, 0, 72, 49
1, 20472, Control_c, 0, 64, 37
1, 21695, Note_on_c, 0, 73, 48
1, 21835, Control_c, 0, 64, 37
1, 21850, Control_c, 0, 64, 36
1, 21865, Control_c, 0, 64, 32
1, 21880, Control_c, 0, 64, 25
1, 21895, Control_c, 0, 64, 0
1, 21902, Note_off_c, 0, 72, 33
1, 22139, Note_on_c, 0, 71, 51
1, 22252, Note_off_c, 0, 73, 53
1, 22563, Control_c, 0, 64, 26
1, 22585, Control_c, 0, 64, 44
1, 22600, Control_c, 0, 64, 55
1, 22615, Control_c, 0, 64, 60
1, 22621, Note_on_c, 0, 41, 46
1, 22630, Control_c, 0, 64, 62
1, 22645, Control_c, 0, 64, 64
1, 22659, Control_c, 0, 64, 68
1, 22674, Control_c, 0, 64, 73
1, 22689, Control_c, 0, 64, 83
1, 22703, Control_c, 0, 64, 97
1, 22718, Control_c, 0, 64, 127
1, 22767, Note_off_c, 0, 41, 63
1, 23140, Note_on_c, 0, 72, 50
1, 23146, Note_on_c, 0, 65, 33
1, 23152, Note_on_c, 0, 68, 41
1, 23161, Note_on_c, 0, 60, 44
1, 23304, Note_off_c, 0, 60, 47
1, 23310, Note_off_c, 0, 65, 52
1, 23314, Note_off_c, 0, 71, 31
1, 23315, Note_off_c, 0, 68, 46
1, 23469, Note_on_c, 0, 77, 63
1, 23477, Note_on_c, 0, 60, 46
1, 23480, Note_on_c, 0, 65, 45
1, 23492, Note_on_c, 0, 56, 45
1, 23522, Note_off_c, 0, 72, 56
1, 23577, Note_off_c, 0, 60, 51
1, 23617, Note_off_c, 0, 65, 32
1, 23646, Note_off_c, 0, 56, 30
1, 23819, Note_on_c, 0, 76, 61
1, 23839, Note_on_c, 0, 53, 49
1, 23862, Note_off_c, 0, 77, 56
1, 23882, Control_c, 0, 64, 81
1, 23897, Control_c, 0, 64, 63
1, 23912, Control_c, 0, 64, 41
1, 23926, Control_c, 0, 64, 23
1, 23941, Control_c, 0, 64, 43
1, 23956, Control_c, 0, 64, 63
1, 23971, Control_c, 0, 64, 77
1, 23986, Control_c, 0, 64, 106
1, 23996, Note_off_c, 0, 53, 61
1, 24000, Control_c, 0, 64, 127
1, 24177, Note_on_c, 0, 70, 56
1, 24195, Note_on_c, 0, 67, 29
1, 24202, Note_on_c, 0, 64, 34
1, 24206, Note_on_c, 0, 61, 39
1, 24252, Note_off_c, 0, 76, 50
1, 24344, Note_off_c, 0, 64, 28
1, 24350, Note_off_c, 0, 67, 36
1, 24352, Note_off_c, 0, 61, 45
1, 24505, Note_on_c, 0, 73, 53
1, 24516, Note_on_c, 0, 61, 28
1, 24516, Note_on_c, 0, 64, 24
1, 24529, Note_on_c, 0, 58, 46
1, 24553, Note_off_c, 0, 70, 35
1, 24627, Note_off_c, 0, 64, 40
1, 24640, Note_off_c, 0, 61, 42
1, 24663, Note_off_c, 0, 58, 31
1, 24941, Note_on_c, 0, 41, 50
1, 25009, Control_c, 0, 64, 110
1, 25024, Control_c, 0, 64, 74
1, 25039, Control_c, 0, 64, 56
1, 25053, Control_c, 0, 64, 40
1, 25068, Control_c, 0, 64, 55
1, 25083, Control_c, 0, 64, 71
1, 25086, Note_off_c, 0, 41, 64
1, 25098, Control_c, 0, 64, 102
1, 25113, Control_c, 0, 64, 127
1, 25351, Note_on_c, 0, 72, 53
1, 25365, Note_on_c, 0, 65, 39
1, 25390, Note_on_c, 0, 68, 42
1, 25390, Note_on_c, 0, 60, 35
1, 25406, Note_off_c, 0, 73, 50
1, 25530, Note_off_c, 0, 68, 50
1, 25534, Note_off_c, 0, 60, 38
1, 25557, Note_off_c, 0, 65, 32
1, 25650, Note_on_c, 0, 77, 65
1, 25665, Note_on_c, 0, 60, 43
1, 25674, Note_on_c, 0, 56, 44
1, 25687, Note_on_c, 0, 65, 38
1, 25733, Note_off_c, 0, 65, 46
1, 25763, Note_off_c, 0, 56, 49
1, 25764, Note_off_c, 0, 60, 36
1, 25788, Note_off_c, 0, 72, 34
1, 25959, Note_on_c, 0, 76, 65
1, 25971, Note_on_c, 0, 53, 51
1, 26010, Control_c, 0, 64, 80
1, 26020, Note_off_c, 0, 77, 58
1, 26025, Control_c, 0, 64, 59
1, 26040, Control_c, 0, 64, 32
1, 26055, Control_c, 0, 64, 28
1, 26070, Control_c, 0, 64, 51
1, 26084, Control_c, 0, 64, 70
1, 26099, Control_c, 0, 64, 89
1, 26114, Control_c, 0, 64, 127
1, 26118, Note_off_c, 0, 53, 60
1, 26280, Note_on_c, 0, 70, 59
1, 26306, Note_on_c, 0, 61, 41
1, 26306, Note_on_c, 0, 67, 34
1, 26310, Note_on_c, 0, 64, 29
1, 26392, Note_off_c, 0, 76, 53
1, 26451, Note_off_c, 0, 64, 37
1, 26462, Note_off_c, 0, 67, 38
1, 26465, Note_off_c, 0, 61, 38
1, 26636, Note_on_c, 0, 73, 59
1, 26656, Note_on_c, 0, 64, 27
1, 26658, Note_on_c, 0, 58, 39
1, 26675, Note_on_c, 0, 61, 27
1, 26753, Note_off_c, 0, 70, 31
1, 26771, Note_off_c, 0, 64, 33
1, 26771, Note_off_c, 0, 58, 34
1, 26811, Note_off_c, 0, 61, 30
1, 27027, Note_on_c, 0, 53, 49
1, 27040, Control_c, 0, 64, 91
1, 27055, Control_c, 0, 64, 65
1, 27077, Control_c, 0, 64, 43
1, 27092, Control_c, 0, 64, 33
1, 27107, Control_c, 0, 64, 53
1, 27122, Control_c, 0, 64, 68
1, 27137, Control_c, 0, 64, 86
1, 27147, Note_off_c, 0, 73, 60
1, 27151, Control_c, 0, 64, 127
1, 27161, Note_off_c, 0, 53, 60
1, 27377, Note_on_c, 0, 65, 33
1, 27378, Note_on_c, 0, 68, 45
1, 27378, Note_on_c, 0, 72, 55
1, 27399, Note_on_c, 0, 60, 46
1, 27503, Note_off_c, 0, 60, 58
1, 27524, Note_on_c, 0, 73, 69
1, 27528, Note_off_c, 0, 72, 56
1, 27530, Note_off_c, 0, 65, 41
1, 27552, Note_off_c, 0, 68, 34
1, 27650, Note_off_c, 0, 73, 59
1, 27657, Note_on_c, 0, 65, 46
1, 27657, Note_on_c, 0, 72, 71
1, 27659, Note_on_c, 0, 60, 44
1, 27666, Note_on_c, 0, 56, 54
1, 27729, Note_off_c, 0, 65, 53
1, 27745, Note_off_c, 0, 60, 52
1, 27767, Note_off_c, 0, 56, 60
1, 27780, Note_on_c, 0, 73, 74
1, 27870, Note_off_c, 0, 72, 35
1, 27992, Note_on_c, 0, 75, 66
1, 28000, Note_on_c, 0, 51, 51
1, 28033, Control_c, 0, 64, 84
1, 28048, Control_c, 0, 64, 65
1, 28058, Note_off_c, 0, 73, 55
1, 28063, Control_c, 0, 64, 43
1, 28078, Control_c, 0, 64, 0
1, 28122, Control_c, 0, 64, 36
1, 28137, Control_c, 0, 64, 56
1, 28153, Control_c, 0, 64, 68
1, 28168, Control_c, 0, 64, 84
1, 28183, Control_c, 0, 64, 127
1, 28199, Note_off_c, 0, 51, 63
1, 28253, Note_off_c, 0, 75, 58
1, 28374, Note_on_c, 0, 75, 69
1, 28380, Note_on_c, 0, 68, 49
1, 28381, Note_on_c, 0, 60, 46
1, 28467, Note_off_c, 0, 68, 59
1, 28553, Note_off_c, 0, 60, 32
1, 28584, Note_off_c, 0, 75, 61
1, 28678, Note_on_c, 0, 51, 56
1, 28696, Note_on_c, 0, 75, 71
1, 28746, Note_off_c, 0, 51, 62
1, 28873, Note_off_c, 0, 75, 55
1, 29010, Note_on_c, 0, 75, 66
1, 29019, Note_on_c, 0, 39, 56
1, 29035, Control_c, 0, 64, 74
1, 29050, Control_c, 0, 64, 54
1, 29065, Control_c, 0, 64, 35
1, 29080, Control_c, 0, 64, 46
1, 29095, Control_c, 0, 64, 63
1, 29110, Control_c, 0, 64, 78
1, 29125, Control_c, 0, 64, 127
1, 29131, Note_off_c, 0, 39, 63
1, 29384, Note_on_c, 0, 73, 57
1, 29395, Note_on_c, 0, 67, 29
1, 29404, Note_on_c, 0, 61, 33
1, 29405, Note_on_c, 0, 63, 34
1, 29444, Note_off_c, 0, 75, 48
1, 29528, Note_off_c, 0, 73, 60
1, 29539, Note_on_c, 0, 72, 61
1, 29556, Note_off_c, 0, 61, 44
1, 29567, Note_off_c, 0, 63, 33
1, 29570, Note_off_c, 0, 67, 36
1, 29679, Note_off_c, 0, 72, 59
1, 29680, Control_c, 0, 64, 100
1, 29693, Note_on_c, 0, 61, 42
1, 29695, Control_c, 0, 64, 68
1, 29696, Note_on_c, 0, 70, 63
1, 29707, Note_on_c, 0, 63, 42
1, 29707, Note_on_c, 0, 55, 40
1, 29710, Control_c, 0, 64, 49
1, 29724, Control_c, 0, 64, 40
1, 29739, Control_c, 0, 64, 56
1, 29755, Control_c, 0, 64, 71
1, 29769, Control_c, 0, 64, 95
1, 29784, Control_c, 0, 64, 127
1, 29811, Note_off_c, 0, 55, 56
1, 29816, Note_off_c, 0, 61, 41
1, 29835, Note_off_c, 0, 63, 33
1, 29847, Note_on_c, 0, 72, 60
1, 29847, Note_off_c, 0, 70, 56
1, 30100, Note_on_c, 0, 68, 49
1, 30104, Note_on_c, 0, 44, 45
1, 30145, Control_c, 0, 64, 122
1, 30160, Control_c, 0, 64, 72
1, 30173, Note_off_c, 0, 72, 39
1, 30175, Control_c, 0, 64, 50
1, 30190, Control_c, 0, 64, 0
1, 30219, Control_c, 0, 64, 20
1, 30234, Control_c, 0, 64, 53
1, 30249, Control_c, 0, 64, 68
1, 30264, Control_c, 0, 64, 88
1, 30271, Note_off_c, 0, 44, 63
1, 30279, Control_c, 0, 64, 127
1, 30501, Note_off_c, 0, 68, 35
1, 30514, Note_on_c, 0, 60, 38
1, 30531, Note_on_c, 0, 63, 28
1, 30541, Note_on_c, 0, 56, 28
1, 30659, Note_off_c, 0, 60, 46
1, 30681, Note_off_c, 0, 56, 39
1, 30694, Note_off_c, 0, 63, 32
1, 30824, Note_on_c, 0, 60, 47
1, 30833, Note_on_c, 0, 56, 40
1, 30848, Note_on_c, 0, 51, 41
1, 30947, Note_off_c, 0, 60, 50
1, 30949, Note_off_c, 0, 56, 58
1, 30970, Note_off_c, 0, 51, 34
1, 31162, Note_on_c, 0, 60, 41
1, 31182, Note_on_c, 0, 65, 34
1, 31183, Note_on_c, 0, 56, 42
1, 31221, Control_c, 0, 64, 84
1, 31235, Control_c, 0, 64, 63
1, 31250, Control_c, 0, 64, 50
1, 31265, Control_c, 0, 64, 57
1, 31280, Control_c, 0, 64, 72
1, 31294, Control_c, 0, 64, 100
1, 31309, Control_c, 0, 64, 127
1, 31330, Note_off_c, 0, 65, 57
1, 31346, Note_off_c, 0, 60, 62
1, 31364, Note_off_c, 0, 56, 63
1, 31527, Note_on_c, 0, 56, 47
1, 31531, Note_on_c, 0, 63, 42
1, 31531, Note_on_c, 0, 60, 39
1, 31669, Note_off_c, 0, 60, 46
1, 31670, Note_off_c, 0, 56, 56
1, 31690, Note_off_c, 0, 63, 33
1, 31859, Note_on_c, 0, 60, 41
1, 31869, Note_on_c, 0, 56, 40
1, 31876, Note_on_c, 0, 51, 50
1, 31917, Note_off_c, 0, 60, 61
1, 31965, Note_off_c, 0, 56, 58
1, 31996, Note_off_c, 0, 51, 61
1, 32337, Note_on_c, 0, 32, 60
1, 32392, Control_c, 0, 64, 76
1, 32407, Control_c, 0, 64, 56
1, 32422, Control_c, 0, 64, 29
1, 32437, Control_c, 0, 64, 37
1, 32452, Control_c, 0, 64, 60
1, 32467, Control_c, 0, 64, 79
1, 32474, Note_off_c, 0, 32, 62
1, 32482, Control_c, 0, 64, 127
1, 32840, Note_on_c, 0, 75, 58
1, 32841, Note_on_c, 0, 72, 41
1, 32856, Note_on_c, 0, 68, 41
1, 32865, Note_on_c, 0, 63, 37
1, 33006, Note_off_c, 0, 63, 53
1, 33018, Note_off_c, 0, 68, 47
1, 33069, Note_off_c, 0, 72, 31
1, 33146, Note_on_c, 0, 68, 44
1, 33147, Note_on_c, 0, 80, 69
1, 33168, Note_on_c, 0, 60, 47
1, 33171, Note_on_c, 0, 63, 37
1, 33216, Note_off_c, 0, 75, 57
1, 33262, Note_off_c, 0, 60, 51
1, 33290, Note_off_c, 0, 68, 33
1, 33309, Note_off_c, 0, 63, 33
1, 33484, Note_on_c, 0, 79, 64
1, 33501, Note_on_c, 0, 56, 45
1, 33545, Note_off_c, 0, 80, 52
1, 33556, Control_c, 0, 64, 108
1, 33570, Control_c, 0, 64, 71
1, 33585, Control_c, 0, 64, 48
1, 33600, Control_c, 0, 64, 24
1, 33615, Control_c, 0, 64, 44
1, 33630, Control_c, 0, 64, 63
1, 33644, Control_c, 0, 64, 78
1, 33650, Note_off_c, 0, 56, 63
1, 33659, Control_c, 0, 64, 127
1, 33805, Note_on_c, 0, 73, 60
1, 33829, Note_on_c, 0, 70, 38
1, 33832, Note_on_c, 0, 64, 47
1, 33840, Note_on_c, 0, 67, 37
1, 33898, Note_off_c, 0, 79, 47
1, 33938, Note_off_c, 0, 64, 56
1, 33972, Note_off_c, 0, 70, 45
1, 33978, Note_off_c, 0, 67, 32
1, 34166, Note_on_c, 0, 67, 38
1, 34167, Note_on_c, 0, 76, 57
1, 34173, Note_on_c, 0, 64, 42
1, 34184, Note_on_c, 0, 61, 42
1, 34253, Note_off_c, 0, 73, 33
1, 34264, Note_off_c, 0, 67, 53
1, 34285, Note_off_c, 0, 64, 0
1, 34309, Note_off_c, 0, 61, 61
1, 34317, Poly_aftertouch_c, 0, 64, 0
1, 34570, Note_on_c, 0, 44, 56
1, 34595, Control_c, 0, 64, 100
1, 34610, Control_c, 0, 64, 71
1, 34624, Control_c, 0, 64, 52
1, 34639, Control_c, 0, 64, 27
1, 34654, Control_c, 0, 64, 37
1, 34669, Control_c, 0, 64, 58
1, 34684, Control_c, 0, 64, 72
1, 34689, Note_off_c, 0, 44, 63
1, 34698, Control_c, 0, 64, 96
1, 34713, Control_c, 0, 64, 127
1, 34929, Note_on_c, 0, 75, 64
1, 34944, Note_on_c, 0, 72, 36
1, 34950, Note_on_c, 0, 63, 41
1, 34953, Note_on_c, 0, 68, 45
1, 34985, Note_off_c, 0, 76, 33
1, 35083, Note_off_c, 0, 63, 54
1, 35098, Note_off_c, 0, 72, 50
1, 35112, Note_off_c, 0, 68, 36
1, 35212, Note_on_c, 0, 80, 67
1, 35222, Note_on_c, 0, 68, 49
1, 35235, Note_on_c, 0, 63, 43
1, 35242, Note_on_c, 0, 60, 49
1, 35281, Note_off_c, 0, 68, 51
1, 35284, Note_off_c, 0, 75, 51
1, 35284, Note_off_c, 0, 63, 56
1, 35333, Note_off_c, 0, 60, 52
1, 35540, Note_on_c, 0, 79, 65
1, 35543, Note_on_c, 0, 56, 50
1, 35565, Control_c, 0, 64, 91
1, 35580, Control_c, 0, 64, 65
1, 35581, Note_off_c, 0, 80, 57
1, 35595, Control_c, 0, 64, 37
1, 35610, Control_c, 0, 64, 0
1, 35639, Control_c, 0, 64, 37
1, 35654, Control_c, 0, 64, 62
1, 35669, Control_c, 0, 64, 76
1, 35683, Control_c, 0, 64, 96
1, 35696, Note_off_c, 0, 56, 64
1, 35698, Control_c, 0, 64, 127
1, 35862, Note_on_c, 0, 73, 62
1, 35864, Note_on_c, 0, 70, 47
1, 35874, Note_on_c, 0, 67, 38
1, 35881, Note_on_c, 0, 64, 42
1, 35930, Note_off_c, 0, 79, 54
1, 35998, Note_off_c, 0, 67, 31
1, 36012, Note_off_c, 0, 64, 29
1, 36039, Note_off_c, 0, 70, 31
1, 36206, Note_on_c, 0, 76, 58
1, 36220, Note_on_c, 0, 64, 36
1, 36226, Note_on_c, 0, 67, 37
1, 36227, Note_on_c, 0, 61, 46
1, 36261, Note_off_c, 0, 73, 35
1, 36273, Note_off_c, 0, 67, 57
1, 36283, Note_off_c, 0, 64, 48
1, 36329, Note_off_c, 0, 61, 59
1, 36589, Note_on_c, 0, 44, 56
1, 36640, Control_c, 0, 64, 81
1, 36655, Control_c, 0, 64, 58
1, 36670, Control_c, 0, 64, 23
1, 36685, Control_c, 0, 64, 38
1, 36700, Control_c, 0, 64, 61
1, 36714, Control_c, 0, 64, 81
1, 36724, Note_off_c, 0, 44, 62
1, 36729, Control_c, 0, 64, 127
1, 36733, Note_off_c, 0, 76, 55
1, 37010, Note_on_c, 0, 72, 49
1, 37019, Note_on_c, 0, 75, 61
1, 37037, Note_on_c, 0, 68, 43
1, 37050, Note_on_c, 0, 63, 39
1, 37178, Note_off_c, 0, 63, 56
1, 37181, Note_on_c, 0, 77, 66
1, 37196, Note_off_c, 0, 68, 44
1, 37196, Note_off_c, 0, 75, 53
1, 37239, Note_off_c, 0, 72, 33
1, 37309, Note_on_c, 0, 68, 45
1, 37310, Note_on_c, 0, 75, 73
1, 37320, Note_on_c, 0, 60, 55
1, 37320, Note_on_c, 0, 63, 49
1, 37322, Note_off_c, 0, 77, 58
1, 37353, Note_off_c, 0, 68, 64
1, 37367, Note_off_c, 0, 63, 55
1, 37368, Note_off_c, 0, 60, 61
1, 37445, Note_on_c, 0, 77, 76
1, 37498, Note_off_c, 0, 75, 56
1, 37659, Note_on_c, 0, 78, 71
1, 37673, Note_on_c, 0, 39, 56
1, 37707, Control_c, 0, 64, 78
1, 37715, Note_off_c, 0, 77, 58
1, 37722, Control_c, 0, 64, 55
1, 37738, Control_c, 0, 64, 0
1, 37767, Control_c, 0, 64, 13
1, 37782, Control_c, 0, 64, 54
1, 37794, Note_off_c, 0, 39, 63
1, 37797, Control_c, 0, 64, 75
1, 37812, Control_c, 0, 64, 127
1, 37897, Note_off_c, 0, 78, 60
1, 38028, Note_on_c, 0, 78, 75
1, 38043, Note_on_c, 0, 70, 52
1, 38048, Note_on_c, 0, 66, 46
1, 38068, Note_on_c, 0, 63, 33
1, 38202, Note_off_c, 0, 70, 55
1, 38215, Note_off_c, 0, 63, 58
1, 38222, Note_off_c, 0, 66, 55
1, 38236, Note_off_c, 0, 78, 60
1, 38348, Note_on_c, 0, 78, 79
1, 38352, Note_on_c, 0, 58, 53
1, 38375, Note_on_c, 0, 63, 40
1, 38380, Note_on_c, 0, 66, 34
1, 38404, Note_off_c, 0, 63, 54
1, 38408, Note_off_c, 0, 66, 50
1, 38438, Note_off_c, 0, 58, 60
1, 38495, Note_off_c, 0, 78, 57
1, 38739, Note_on_c, 0, 78, 64
1, 38757, Note_on_c, 0, 41, 49
1, 38813, Control_c, 0, 64, 105
1, 38828, Control_c, 0, 64, 70
1, 38843, Control_c, 0, 64, 48
1, 38858, Control_c, 0, 64, 0
1, 38888, Control_c, 0, 64, 44
1, 38902, Control_c, 0, 64, 64
1, 38917, Control_c, 0, 64, 81
1, 38918, Note_off_c, 0, 41, 63
1, 38932, Control_c, 0, 64, 127
1, 39171, Note_on_c, 0, 77, 56
1, 39203, Note_on_c, 0, 69, 36
1, 39225, Note_off_c, 0, 78, 29
1, 39227, Note_on_c, 0, 63, 31
1, 39368, Note_on_c, 0, 72, 53
1, 39374, Note_off_c, 0, 63, 29
1, 39386, Note_off_c, 0, 77, 31
1, 39406, Note_off_c, 0, 69, 31
1, 39535, Note_on_c, 0, 75, 60
1, 39547, Note_on_c, 0, 63, 25
1, 39560, Note_off_c, 0, 72, 34
1, 39565, Note_on_c, 0, 57, 39
1, 39574, Note_on_c, 0, 65, 36
1, 39576, Control_c, 0, 64, 97
1, 39591, Control_c, 0, 64, 70
1, 39606, Control_c, 0, 64, 56
1, 39621, Control_c, 0, 64, 53
1, 39636, Control_c, 0, 64, 62
1, 39651, Control_c, 0, 64, 73
1, 39666, Control_c, 0, 64, 95
1, 39667, Note_off_c, 0, 65, 37
1, 39681, Control_c, 0, 64, 127
1, 39690, Note_off_c, 0, 75, 55
1, 39702, Note_on_c, 0, 73, 57
1, 39704, Note_off_c, 0, 63, 37
1, 39708, Note_off_c, 0, 57, 57
1, 39779, Note_off_c, 0, 73, 0
1, 39779, Note_on_c, 0, 73, 6
1, 39968, Note_on_c, 0, 70, 51
1, 39975, Note_on_c, 0, 46, 45
1, 40044, Control_c, 0, 64, 76
1, 40053, Note_off_c, 0, 73, 39
1, 40058, Control_c, 0, 64, 57
1, 40073, Control_c, 0, 64, 34
1, 40088, Control_c, 0, 64, 39
1, 40103, Control_c, 0, 64, 58
1, 40118, Control_c, 0, 64, 72
1, 40134, Control_c, 0, 64, 99
1, 40149, Control_c, 0, 64, 127
1, 40171, Note_off_c, 0, 46, 62
1, 40387, Note_off_c, 0, 70, 34
1, 40408, Note_on_c, 0, 65, 35
1, 40418, Note_on_c, 0, 61, 35
1, 40426, Note_on_c, 0, 58, 30
1, 40575, Note_off_c, 0, 61, 42
1, 40575, Note_off_c, 0, 58, 40
1, 40609, Note_off_c, 0, 65, 33
1, 40732, Note_on_c, 0, 61, 38
1, 40740, Note_on_c, 0, 58, 37
1, 40752, Note_on_c, 0, 53, 46
1, 40811, Note_off_c, 0, 61, 52
1, 40840, Note_off_c, 0, 53, 55
1, 40847, Note_off_c, 0, 58, 46
1, 41147, Note_on_c, 0, 42, 54
1, 41207, Control_c, 0, 64, 78
1, 41222, Control_c, 0, 64, 59
1, 41237, Control_c, 0, 64, 34
1, 41252, Control_c, 0, 64, 34
1, 41267, Control_c, 0, 64, 55
1, 41281, Control_c, 0, 64, 70
1, 41303, Control_c, 0, 64, 96
1, 41318, Control_c, 0, 64, 127
1, 41332, Note_off_c, 0, 42, 64
1, 41602, Note_on_c, 0, 73, 51
1, 41621, Note_on_c, 0, 58, 40
1, 41628, Note_on_c, 0, 66, 30
1, 41630, Note_on_c, 0, 61, 38
1, 41785, Note_on_c, 0, 75, 63
1, 41786, Note_off_c, 0, 73, 56
1, 41794, Note_off_c, 0, 58, 55
1, 41814, Note_off_c, 0, 61, 39
1, 41840, Note_off_c, 0, 66, 33
1, 41919, Note_on_c, 0, 73, 65
1, 41923, Note_off_c, 0, 75, 60
1, 41945, Note_on_c, 0, 58, 44
1, 41946, Note_on_c, 0, 61, 44
1, 41950, Note_on_c, 0, 54, 49
1, 41982, Note_off_c, 0, 61, 56
1, 41990, Note_off_c, 0, 58, 60
1, 42028, Note_off_c, 0, 54, 64
1, 42065, Note_on_c, 0, 75, 69
1, 42088, Note_off_c, 0, 73, 53
1, 42288, Note_on_c, 0, 77, 63
1, 42310, Note_on_c, 0, 37, 51
1, 42317, Note_off_c, 0, 75, 51
1, 42334, Control_c, 0, 64, 77
1, 42349, Control_c, 0, 64, 55
1, 42363, Control_c, 0, 64, 0
1, 42393, Control_c, 0, 64, 46
1, 42408, Control_c, 0, 64, 66
1, 42423, Control_c, 0, 64, 82
1, 42425, Note_off_c, 0, 37, 63
1, 42438, Control_c, 0, 64, 127
1, 42517, Note_off_c, 0, 77, 55
1, 42682, Note_on_c, 0, 77, 66
1, 42712, Note_on_c, 0, 56, 44
1, 42712, Note_on_c, 0, 65, 37
1, 42714, Note_on_c, 0, 61, 39
1, 42867, Note_off_c, 0, 56, 57
1, 42869, Note_off_c, 0, 61, 56
1, 42871, Note_off_c, 0, 65, 50
1, 42886, Note_off_c, 0, 77, 60
1, 43008, Note_on_c, 0, 77, 75
1, 43017, Note_on_c, 0, 61, 46
1, 43020, Note_on_c, 0, 56, 46
1, 43022, Note_on_c, 0, 53, 48
1, 43063, Note_off_c, 0, 61, 58
1, 43088, Note_off_c, 0, 56, 47
1, 43106, Note_off_c, 0, 53, 57
1, 43159, Note_off_c, 0, 77, 51
1, 43378, Note_on_c, 0, 77, 65
1, 43388, Note_on_c, 0, 39, 51
1, 43440, Control_c, 0, 64, 82
1, 43454, Control_c, 0, 64, 61
1, 43469, Control_c, 0, 64, 38
1, 43484, Control_c, 0, 64, 38
1, 43499, Control_c, 0, 64, 60
1, 43514, Control_c, 0, 64, 78
1, 43529, Control_c, 0, 64, 127
1, 43549, Note_off_c, 0, 39, 64
1, 43779, Note_off_c, 0, 77, 48
1, 43785, Note_on_c, 0, 75, 57
1, 43809, Note_on_c, 0, 66, 28
1, 43813, Note_on_c, 0, 60, 42
1, 43827, Note_on_c, 0, 58, 32
1, 43952, Note_off_c, 0, 66, 49
1, 43968, Note_off_c, 0, 60, 48
1, 43972, Note_off_c, 0, 75, 52
1, 43976, Note_on_c, 0, 70, 57
1, 43976, Note_off_c, 0, 58, 41
1, 44140, Note_off_c, 0, 70, 56
1, 44149, Note_on_c, 0, 58, 35
1, 44156, Note_on_c, 0, 73, 50
1, 44167, Note_on_c, 0, 54, 43
1, 44173, Note_on_c, 0, 63, 40
1, 44173, Control_c, 0, 64, 102
1, 44188, Control_c, 0, 64, 71
1, 44203, Control_c, 0, 64, 50
1, 44218, Control_c, 0, 64, 42
1, 44233, Control_c, 0, 64, 52
1, 44247, Control_c, 0, 64, 64
1, 44262, Control_c, 0, 64, 74
1, 44277, Control_c, 0, 64, 90
1, 44299, Control_c, 0, 64, 127
1, 44307, Note_off_c, 0, 58, 43
1, 44328, Note_off_c, 0, 63, 33
1, 44346, Note_off_c, 0, 54, 55
1, 44363, Note_on_c, 0, 72, 50
1, 44402, Note_off_c, 0, 73, 35
1, 44598, Note_off_c, 0, 72, 0
1, 44640, Note_on_c, 0, 41, 44
1, 44645, Note_on_c, 0, 69, 42
1, 44659, Poly_aftertouch_c, 0, 72, 0
1, 44685, Control_c, 0, 64, 84
1, 44699, Control_c, 0, 64, 65
1, 44714, Control_c, 0, 64, 40
1, 44729, Control_c, 0, 64, 20
1, 44744, Control_c, 0, 64, 31
1, 44759, Control_c, 0, 64, 55
1, 44773, Control_c, 0, 64, 69
1, 44788, Control_c, 0, 64, 86
1, 44799, Note_off_c, 0, 41, 62
1, 44802, Control_c, 0, 64, 127
1, 44838, Note_off_c, 0, 69, 53
1, 45109, Note_on_c, 0, 72, 43
1, 45127, Note_on_c, 0, 60, 40
1, 45133, Note_on_c, 0, 69, 37
1, 45141, Note_on_c, 0, 65, 33
1, 45285, Note_off_c, 0, 65, 36
1, 45293, Note_off_c, 0, 60, 33
1, 45312, Note_off_c, 0, 69, 31
1, 45425, Note_on_c, 0, 65, 32
1, 45425, Note_on_c, 0, 77, 62
1, 45436, Note_on_c, 0, 60, 34
1, 45439, Note_on_c, 0, 57, 44
1, 45508, Note_off_c, 0, 72, 45
1, 45520, Note_off_c, 0, 65, 52
1, 45549, Note_off_c, 0, 57, 54
1, 45570, Note_off_c, 0, 60, 42
1, 45739, Note_on_c, 0, 76, 62
1, 45761, Note_on_c, 0, 53, 50
1, 45800, Note_off_c, 0, 77, 54
1, 45812, Control_c, 0, 64, 89
1, 45826, Control_c, 0, 64, 65
1, 45841, Control_c, 0, 64, 36
1, 45856, Control_c, 0, 64, 19
1, 45871, Control_c, 0, 64, 39
1, 45886, Control_c, 0, 64, 62
1, 45900, Control_c, 0, 64, 78
1, 45915, Control_c, 0, 64, 124
1, 45930, Control_c, 0, 64, 127
1, 45937, Note_off_c, 0, 53, 61
1, 46082, Note_on_c, 0, 70, 62
1, 46098, Note_on_c, 0, 67, 38
1, 46103, Note_on_c, 0, 64, 38
1, 46105, Note_on_c, 0, 61, 40
1, 46193, Note_off_c, 0, 76, 34
1, 46242, Note_off_c, 0, 64, 29
1, 46247, Note_off_c, 0, 67, 34
1, 46249, Note_off_c, 0, 61, 34
1, 46410, Note_on_c, 0, 73, 51
1, 46415, Note_on_c, 0, 61, 27
1, 46415, Note_on_c, 0, 64, 30
1, 46423, Note_on_c, 0, 58, 43
1, 46475, Note_off_c, 0, 70, 32
1, 46496, Note_off_c, 0, 58, 51
1, 46506, Note_off_c, 0, 61, 0
1, 46525, Note_off_c, 0, 64, 33
1, 46577, Poly_aftertouch_c, 0, 61, 0
1, 46828, Note_on_c, 0, 41, 56
1, 46841, Control_c, 0, 64, 83
1, 46856, Control_c, 0, 64, 60
1, 46871, Control_c, 0, 64, 39
1, 46886, Control_c, 0, 64, 39
1, 46900, Control_c, 0, 64, 56
1, 46915, Control_c, 0, 64, 72
1, 46930, Control_c, 0, 64, 104
1, 46945, Control_c, 0, 64, 127
1, 46947, Note_off_c, 0, 41, 59
1, 47236, Note_on_c, 0, 72, 51
1, 47249, Note_on_c, 0, 69, 39
1, 47273, Note_on_c, 0, 60, 33
1, 47297, Note_on_c, 0, 65, 10
1, 47335, Note_off_c, 0, 73, 33
1, 47392, Note_off_c, 0, 60, 55
1, 47410, Note_off_c, 0, 69, 32
1, 47415, Note_off_c, 0, 65, 54
1, 47548, Note_on_c, 0, 77, 62
1, 47551, Note_on_c, 0, 60, 47
1, 47551, Note_on_c, 0, 65, 40
1, 47565, Note_on_c, 0, 57, 33
1, 47597, Note_off_c, 0, 72, 53
1, 47601, Note_off_c, 0, 65, 55
1, 47641, Note_off_c, 0, 57, 0
1, 47657, Note_off_c, 0, 60, 30
1, 47692, Poly_aftertouch_c, 0, 57, 0
1, 47865, Note_on_c, 0, 53, 49
1, 47867, Note_on_c, 0, 76, 65
1, 47901, Control_c, 0, 64, 92
1, 47913, Note_off_c, 0, 77, 56
1, 47915, Control_c, 0, 64, 66
1, 47930, Control_c, 0, 64, 42
1, 47945, Control_c, 0, 64, 0
1, 47975, Control_c, 0, 64, 39
1, 47989, Control_c, 0, 64, 59
1, 48004, Control_c, 0, 64, 69
1, 48014, Note_off_c, 0, 53, 63
1, 48019, Control_c, 0, 64, 80
1, 48041, Control_c, 0, 64, 107
1, 48056, Control_c, 0, 64, 127
1, 48191, Note_on_c, 0, 70, 62
1, 48204, Note_on_c, 0, 61, 36
1, 48212, Note_on_c, 0, 67, 34
1, 48219, Note_on_c, 0, 64, 18
1, 48262, Note_off_c, 0, 76, 45
1, 48346, Note_off_c, 0, 61, 40
1, 48349, Note_off_c, 0, 67, 39
1, 48353, Note_off_c, 0, 64, 38
1, 48496, Note_on_c, 0, 64, 41
1, 48512, Note_on_c, 0, 61, 31
1, 48516, Note_on_c, 0, 73, 50
1, 48523, Note_on_c, 0, 58, 49
1, 48558, Note_off_c, 0, 64, 58
1, 48578, Note_off_c, 0, 58, 55
1, 48585, Note_off_c, 0, 61, 48
1, 48591, Note_off_c, 0, 70, 33
1, 48899, Note_on_c, 0, 41, 54
1, 48940, Control_c, 0, 64, 87
1, 48942, Note_off_c, 0, 73, 45
1, 48955, Control_c, 0, 64, 64
1, 48969, Control_c, 0, 64, 45
1, 48984, Control_c, 0, 64, 46
1, 48999, Control_c, 0, 64, 64
1, 49014, Control_c, 0, 64, 82
1, 49029, Control_c, 0, 64, 127
1, 49046, Note_off_c, 0, 41, 64
1, 49307, Note_on_c, 0, 72, 53
1, 49316, Note_on_c, 0, 63, 34
1, 49324, Note_on_c, 0, 66, 40
1, 49333, Note_on_c, 0, 60, 46
1, 49464, Note_off_c, 0, 60, 56
1, 49475, Note_on_c, 0, 73, 59
1, 49481, Note_off_c, 0, 72, 54
1, 49500, Note_off_c, 0, 63, 41
1, 49521, Note_off_c, 0, 66, 33
1, 49607, Note_off_c, 0, 73, 59
1, 49617, Note_on_c, 0, 54, 49
1, 49620, Note_on_c, 0, 72, 67
1, 49621, Note_on_c, 0, 63, 49
1, 49639, Note_on_c, 0, 58, 41
1, 49704, Note_off_c, 0, 58, 39
1, 49724, Note_off_c, 0, 63, 53
1, 49738, Note_on_c, 0, 73, 67
1, 49754, Note_off_c, 0, 54, 33
1, 49834, Note_off_c, 0, 72, 30
1, 49908, Note_on_c, 0, 75, 67
1, 49938, Note_on_c, 0, 53, 26
1, 49956, Control_c, 0, 64, 76
1, 49960, Note_on_c, 0, 54, 39
1, 49968, Note_off_c, 0, 73, 46
1, 49971, Control_c, 0, 64, 53
1, 49985, Control_c, 0, 64, 0
1, 50015, Control_c, 0, 64, 51
1, 50030, Control_c, 0, 64, 67
1, 50033, Note_off_c, 0, 54, 32
1, 50044, Control_c, 0, 64, 81
1, 50059, Control_c, 0, 64, 127
1, 50073, Note_off_c, 0, 53, 58
1, 50139, Note_off_c, 0, 75, 61
1, 50257, Note_on_c, 0, 75, 69
1, 50274, Note_on_c, 0, 66, 42
1, 50274, Note_on_c, 0, 70, 46
1, 50297, Note_on_c, 0, 63, 37
1, 50444, Note_off_c, 0, 63, 56
1, 50464, Note_off_c, 0, 66, 40
1, 50469, Note_off_c, 0, 75, 60
1, 50507, Note_off_c, 0, 70, 33
1, 50579, Note_on_c, 0, 66, 47
1, 50579, Note_on_c, 0, 75, 71
1, 50581, Note_on_c, 0, 60, 54
1, 50589, Note_on_c, 0, 63, 49
1, 50618, Note_off_c, 0, 66, 59
1, 50627, Note_off_c, 0, 63, 63
1, 50653, Note_off_c, 0, 60, 59
1, 50829, Note_off_c, 0, 75, 33
1, 50939, Note_on_c, 0, 75, 62
1, 50971, Note_on_c, 0, 41, 43
1, 51014, Control_c, 0, 64, 101
1, 51037, Control_c, 0, 64, 67
1, 51052, Control_c, 0, 64, 44
1, 51066, Control_c, 0, 64, 0
1, 51081, Control_c, 0, 64, 22
1, 51096, Control_c, 0, 64, 52
1, 51109, Note_off_c, 0, 41, 63
1, 51111, Control_c, 0, 64, 69
1, 51126, Control_c, 0, 64, 86
1, 51140, Control_c, 0, 64, 127
1, 51363, Note_on_c, 0, 77, 52
1, 51377, Note_on_c, 0, 63, 44
1, 51384, Note_on_c, 0, 69, 39
1, 51423, Note_off_c, 0, 75, 34
1, 51526, Note_off_c, 0, 63, 45
1, 51559, Note_on_c, 0, 72, 59
1, 51560, Note_off_c, 0, 77, 54
1, 51577, Note_off_c, 0, 69, 31
1, 51640, Note_off_c, 0, 72, 0
1, 51640, Note_on_c, 0, 72, 8
1, 51735, Note_off_c, 0, 72, 45
1, 51737, Note_on_c, 0, 65, 37
1, 51738, Note_on_c, 0, 75, 58
1, 51748, Control_c, 0, 64, 104
1, 51753, Note_on_c, 0, 57, 42
1, 51755, Note_on_c, 0, 63, 38
1, 51763, Control_c, 0, 64, 72
1, 51786, Control_c, 0, 64, 54
1, 51801, Control_c, 0, 64, 30
1, 51815, Control_c, 0, 64, 29
1, 51830, Control_c, 0, 64, 49
1, 51845, Control_c, 0, 64, 68
1, 51860, Control_c, 0, 64, 84
1, 51868, Note_off_c, 0, 65, 34
1, 51875, Control_c, 0, 64, 127
1, 51889, Note_off_c, 0, 57, 55
1, 51908, Note_off_c, 0, 63, 33
1, 51914, Note_on_c, 0, 73, 57
1, 51942, Note_off_c, 0, 75, 34
1, 52196, Note_on_c, 0, 70, 46
1, 52205, Note_on_c, 0, 46, 41
1, 52260, Control_c, 0, 64, 101
1, 52261, Note_off_c, 0, 73, 40
1, 52275, Control_c, 0, 64, 73
1, 52291, Control_c, 0, 64, 56
1, 52305, Control_c, 0, 64, 30
1, 52320, Control_c, 0, 64, 0
1, 52335, Control_c, 0, 64, 30
1, 52350, Control_c, 0, 64, 54
1, 52364, Control_c, 0, 64, 67
1, 52379, Control_c, 0, 64, 78
1, 52394, Control_c, 0, 64, 103
1, 52400, Note_off_c, 0, 46, 63
1, 52409, Control_c, 0, 64, 127
1, 52692, Note_on_c, 0, 65, 37
1, 52700, Note_on_c, 0, 61, 32
1, 52721, Note_on_c, 0, 58, 32
1, 52859, Note_off_c, 0, 58, 47
1, 52872, Note_off_c, 0, 61, 40
1, 52892, Note_off_c, 0, 65, 34
1, 53020, Note_on_c, 0, 58, 25
1, 53020, Note_on_c, 0, 61, 32
1, 53041, Note_on_c, 0, 53, 42
1, 53140, Note_off_c, 0, 58, 45
1, 53156, Note_off_c, 0, 61, 37
1, 53163, Note_off_c, 0, 53, 58
1, 53410, Note_on_c, 0, 67, 36
1, 53420, Note_on_c, 0, 48, 36
1, 53454, Note_off_c, 0, 70, 38
1, 53476, Control_c, 0, 64, 86
1, 53491, Control_c, 0, 64, 64
1, 53506, Control_c, 0, 64, 44
1, 53521, Control_c, 0, 64, 30
1, 53536, Control_c, 0, 64, 41
1, 53551, Control_c, 0, 64, 61
1, 53566, Control_c, 0, 64, 73
1, 53580, Control_c, 0, 64, 99
1, 53581, Note_off_c, 0, 48, 61
1, 53595, Control_c, 0, 64, 127
1, 53782, Note_off_c, 0, 67, 34
1, 53816, Note_on_c, 0, 60, 36
1, 53818, Note_on_c, 0, 64, 27
1, 53824, Note_on_c, 0, 58, 30
1, 53974, Note_off_c, 0, 58, 42
1, 53987, Note_off_c, 0, 64, 36
1, 53998, Note_off_c, 0, 60, 33
1, 54181, Note_on_c, 0, 60, 31
1, 54185, Note_on_c, 0, 58, 35
1, 54188, Note_on_c, 0, 52, 40
1, 54270, Note_off_c, 0, 60, 52
1, 54300, Note_off_c, 0, 58, 45
1, 54317, Note_off_c, 0, 52, 58
1, 54661, Note_on_c, 0, 41, 54
1, 54745, Control_c, 0, 64, 98
1, 54759, Control_c, 0, 64, 70
1, 54782, Control_c, 0, 64, 52
1, 54797, Control_c, 0, 64, 42
1, 54812, Control_c, 0, 64, 57
1, 54827, Control_c, 0, 64, 71
1, 54841, Control_c, 0, 64, 100
1, 54856, Control_c, 0, 64, 127
1, 54864, Note_off_c, 0, 41, 63
1, 55146, Note_on_c, 0, 72, 52
1, 55170, Note_on_c, 0, 65, 43
1, 55174, Note_on_c, 0, 68, 37
1, 55187, Note_on_c, 0, 60, 37
1, 55335, Note_off_c, 0, 60, 56
1, 55338, Note_off_c, 0, 65, 57
1, 55387, Note_off_c, 0, 68, 34
1, 55457, Note_on_c, 0, 77, 66
1, 55481, Note_on_c, 0, 56, 48
1, 55493, Note_on_c, 0, 60, 46
1, 55497, Note_on_c, 0, 65, 37
1, 55531, Note_off_c, 0, 72, 50
1, 55564, Note_off_c, 0, 65, 56
1, 55599, Note_off_c, 0, 60, 35
1, 55604, Note_off_c, 0, 56, 53
1, 55793, Note_on_c, 0, 76, 66
1, 55809, Note_on_c, 0, 53, 52
1, 55851, Note_off_c, 0, 77, 50
1, 55871, Control_c, 0, 64, 78
1, 55886, Control_c, 0, 64, 56
1, 55900, Control_c, 0, 64, 0
1, 55930, Control_c, 0, 64, 49
1, 55945, Control_c, 0, 64, 68
1, 55960, Control_c, 0, 64, 89
1, 55971, Note_off_c, 0, 53, 60
1, 55974, Control_c, 0, 64, 127
1, 56115, Note_on_c, 0, 70, 65
1, 56138, Note_on_c, 0, 61, 38
1, 56141, Note_on_c, 0, 67, 40
1, 56142, Note_on_c, 0, 64, 38
1, 56225, Note_off_c, 0, 76, 50
1, 56262, Note_off_c, 0, 64, 30
1, 56284, Note_off_c, 0, 67, 43
1, 56291, Note_off_c, 0, 61, 35
1, 56445, Note_on_c, 0, 61, 32
1, 56445, Note_on_c, 0, 64, 36
1, 56451, Note_on_c, 0, 73, 48
1, 56459, Note_on_c, 0, 58, 46
1, 56516, Note_off_c, 0, 70, 34
1, 56527, Note_off_c, 0, 64, 48
1, 56591, Note_off_c, 0, 61, 43
1, 56603, Note_off_c, 0, 58, 31
1, 56814, Note_on_c, 0, 41, 57
1, 56872, Control_c, 0, 64, 75
1, 56886, Control_c, 0, 64, 59
1, 56902, Control_c, 0, 64, 54
1, 56917, Control_c, 0, 64, 63
1, 56930, Note_off_c, 0, 41, 63
1, 56932, Control_c, 0, 64, 80
1, 56946, Control_c, 0, 64, 127
1, 57160, Note_on_c, 0, 72, 63
1, 57171, Note_on_c, 0, 65, 51
1, 57186, Note_on_c, 0, 60, 47
1, 57200, Note_on_c, 0, 68, 46
1, 57257, Note_off_c, 0, 73, 35
1, 57324, Note_off_c, 0, 65, 60
1, 57330, Note_off_c, 0, 60, 44
1, 57363, Note_off_c, 0, 68, 33
1, 57456, Note_on_c, 0, 77, 70
1, 57459, Note_on_c, 0, 60, 46
1, 57470, Note_on_c, 0, 65, 51
1, 57474, Note_on_c, 0, 56, 49
1, 57520, Note_off_c, 0, 65, 56
1, 57559, Note_off_c, 0, 72, 33
1, 57578, Note_off_c, 0, 60, 32
1, 57614, Note_off_c, 0, 56, 32
1, 57808, Note_on_c, 0, 53, 57
1, 57851, Control_c, 0, 64, 100
1, 57866, Control_c, 0, 64, 66
1, 57881, Control_c, 0, 64, 46
1, 57896, Control_c, 0, 64, 40
1, 57910, Control_c, 0, 64, 53
1, 57925, Control_c, 0, 64, 66
1, 57940, Control_c, 0, 64, 79
1, 57955, Control_c, 0, 64, 127
1, 57966, Note_on_c, 0, 76, 63
1, 57974, Note_off_c, 0, 53, 60
1, 58028, Note_off_c, 0, 77, 33
1, 58180, Note_on_c, 0, 70, 60
1, 58186, Note_on_c, 0, 61, 39
1, 58195, Note_on_c, 0, 64, 35
1, 58197, Note_on_c, 0, 67, 31
1, 58207, Control_c, 0, 64, 88
1, 58221, Control_c, 0, 64, 68
1, 58236, Control_c, 0, 64, 58
1, 58246, Note_off_c, 0, 76, 45
1, 58251, Control_c, 0, 64, 60
1, 58266, Control_c, 0, 64, 72
1, 58281, Control_c, 0, 64, 103
1, 58295, Control_c, 0, 64, 127
1, 58338, Note_on_c, 0, 72, 62
1, 58343, Note_off_c, 0, 61, 60
1, 58344, Note_off_c, 0, 64, 53
1, 58344, Note_off_c, 0, 67, 50
1, 58357, Note_off_c, 0, 70, 47
1, 58478, Note_on_c, 0, 64, 53
1, 58482, Note_on_c, 0, 75, 62
1, 58484, Note_on_c, 0, 61, 47
1, 58488, Control_c, 0, 64, 77
1, 58489, Note_off_c, 0, 72, 55
1, 58493, Note_on_c, 0, 58, 54
1, 58504, Control_c, 0, 64, 61
1, 58526, Control_c, 0, 64, 55
1, 58541, Control_c, 0, 64, 65
1, 58556, Control_c, 0, 64, 77
1, 58571, Control_c, 0, 64, 127
1, 58578, Note_off_c, 0, 64, 58
1, 58601, Note_off_c, 0, 58, 44
1, 58624, Note_off_c, 0, 61, 44
1, 58629, Note_on_c, 0, 73, 65
1, 58643, Note_off_c, 0, 75, 58
1, 58741, Note_off_c, 0, 73, 51
1, 58789, Note_on_c, 0, 53, 65
1, 58851, Control_c, 0, 64, 90
1, 58866, Control_c, 0, 64, 66
1, 58881, Control_c, 0, 64, 47
1, 58896, Control_c, 0, 64, 52
1, 58911, Control_c, 0, 64, 65
1, 58925, Control_c, 0, 64, 82
1, 58940, Control_c, 0, 64, 127
1, 58992, Note_off_c, 0, 53, 63
1, 59093, Note_on_c, 0, 72, 61
1, 59094, Note_on_c, 0, 68, 50
1, 59102, Note_on_c, 0, 60, 41
1, 59110, Note_on_c, 0, 56, 51
1, 59202, Note_off_c, 0, 68, 59
1, 59241, Note_on_c, 0, 73, 67
1, 59262, Note_off_c, 0, 56, 55
1, 59265, Note_off_c, 0, 72, 53
1, 59381, Note_on_c, 0, 52, 67
1, 59382, Note_on_c, 0, 72, 72
1, 59387, Note_off_c, 0, 73, 57
1, 59423, Control_c, 0, 64, 87
1, 59438, Control_c, 0, 64, 65
1, 59453, Control_c, 0, 64, 54
1, 59468, Control_c, 0, 64, 58
1, 59482, Control_c, 0, 64, 68
1, 59486, Note_off_c, 0, 60, 34
1, 59497, Control_c, 0, 64, 90
1, 59501, Note_on_c, 0, 73, 78
1, 59512, Control_c, 0, 64, 127
1, 59544, Note_off_c, 0, 52, 64
1, 59580, Note_off_c, 0, 72, 47
1, 59703, Note_on_c, 0, 75, 71
1, 59704, Note_on_c, 0, 51, 57
1, 59763, Control_c, 0, 64, 102
1, 59778, Control_c, 0, 64, 69
1, 59784, Note_off_c, 0, 73, 58
1, 59793, Control_c, 0, 64, 30
1, 59808, Control_c, 0, 64, 0
1, 59852, Control_c, 0, 64, 35
1, 59867, Control_c, 0, 64, 56
1, 59882, Control_c, 0, 64, 67
1, 59897, Control_c, 0, 64, 89
1, 59912, Note_off_c, 0, 51, 64
1, 59912, Control_c, 0, 64, 127
1, 59948, Note_off_c, 0, 75, 62
1, 60067, Note_on_c, 0, 60, 48
1, 60068, Note_on_c, 0, 68, 53
1, 60076, Note_on_c, 0, 75, 78
1, 60195, Note_off_c, 0, 68, 53
1, 60246, Note_off_c, 0, 60, 56
1, 60273, Note_off_c, 0, 75, 62
1, 60356, Note_on_c, 0, 51, 61
1, 60365, Note_on_c, 0, 75, 79
1, 60439, Note_off_c, 0, 51, 63
1, 60542, Note_off_c, 0, 75, 48
1, 60683, Note_on_c, 0, 75, 66
1, 60703, Note_on_c, 0, 39, 62
1, 60771, Control_c, 0, 64, 79
1, 60786, Control_c, 0, 64, 57
1, 60801, Control_c, 0, 64, 40
1, 60816, Control_c, 0, 64, 57
1, 60830, Control_c, 0, 64, 74
1, 60845, Control_c, 0, 64, 127
1, 60847, Note_off_c, 0, 39, 63
1, 61106, Note_on_c, 0, 73, 56
1, 61117, Note_on_c, 0, 67, 41
1, 61118, Note_on_c, 0, 61, 38
1, 61128, Note_on_c, 0, 63, 30
1, 61161, Note_off_c, 0, 75, 34
1, 61272, Note_on_c, 0, 72, 63
1, 61284, Note_off_c, 0, 63, 44
1, 61291, Note_off_c, 0, 61, 35
1, 61300, Note_off_c, 0, 73, 35
1, 61325, Note_off_c, 0, 67, 31
1, 61417, Note_off_c, 0, 72, 58
1, 61429, Note_on_c, 0, 63, 36
1, 61434, Note_on_c, 0, 61, 39
1, 61434, Note_on_c, 0, 70, 60
1, 61446, Note_on_c, 0, 55, 45
1, 61452, Control_c, 0, 64, 92
1, 61467, Control_c, 0, 64, 69
1, 61482, Control_c, 0, 64, 59
1, 61497, Control_c, 0, 64, 62
1, 61519, Control_c, 0, 64, 72
1, 61534, Control_c, 0, 64, 102
1, 61549, Control_c, 0, 64, 127
1, 61565, Note_off_c, 0, 63, 51
1, 61568, Note_off_c, 0, 61, 50
1, 61583, Note_off_c, 0, 55, 47
1, 61595, Note_off_c, 0, 70, 58
1, 61596, Note_on_c, 0, 72, 57
1, 61844, Note_on_c, 0, 68, 49
1, 61851, Note_on_c, 0, 44, 46
1, 61888, Note_off_c, 0, 72, 26
1, 61890, Control_c, 0, 64, 110
1, 61905, Control_c, 0, 64, 75
1, 61920, Control_c, 0, 64, 55
1, 61935, Control_c, 0, 64, 0
1, 61979, Control_c, 0, 64, 35
1, 61993, Control_c, 0, 64, 60
1, 62008, Control_c, 0, 64, 76
1, 62024, Control_c, 0, 64, 120
1, 62027, Note_off_c, 0, 44, 63
1, 62039, Control_c, 0, 64, 127
1, 62318, Note_on_c, 0, 60, 37
1, 62330, Note_on_c, 0, 56, 36
1, 62345, Note_on_c, 0, 63, 28
1, 62349, Note_off_c, 0, 68, 42
1, 62466, Note_off_c, 0, 60, 53
1, 62471, Note_off_c, 0, 56, 53
1, 62510, Note_off_c, 0, 63, 33
1, 62629, Note_on_c, 0, 60, 43
1, 62643, Note_on_c, 0, 56, 39
1, 62646, Note_on_c, 0, 51, 49
1, 62702, Note_off_c, 0, 60, 57
1, 62735, Note_off_c, 0, 56, 60
1, 62740, Note_off_c, 0, 51, 62
1, 62946, Note_on_c, 0, 44, 61
1, 62980, Control_c, 0, 64, 78
1, 62995, Control_c, 0, 64, 59
1, 63017, Control_c, 0, 64, 45
1, 63032, Control_c, 0, 64, 51
1, 63047, Control_c, 0, 64, 63
1, 63062, Control_c, 0, 64, 81
1, 63065, Note_off_c, 0, 44, 63
1, 63077, Control_c, 0, 64, 127
1, 63293, Note_on_c, 0, 64, 50
1, 63298, Note_on_c, 0, 60, 44
1, 63309, Note_on_c, 0, 56, 43
1, 63443, Note_off_c, 0, 56, 54
1, 63470, Note_off_c, 0, 60, 34
1, 63487, Note_off_c, 0, 64, 34
1, 63611, Note_on_c, 0, 56, 48
1, 63614, Note_on_c, 0, 52, 53
1, 63624, Note_on_c, 0, 60, 9
1, 63667, Note_off_c, 0, 60, 36
1, 63699, Note_off_c, 0, 56, 62
1, 63712, Note_off_c, 0, 52, 61
1, 64064, Note_on_c, 0, 32, 66
1, 64108, Control_c, 0, 64, 76
1, 64123, Control_c, 0, 64, 53
1, 64137, Control_c, 0, 64, 0
1, 64167, Control_c, 0, 64, 51
1, 64182, Control_c, 0, 64, 72
1, 64196, Control_c, 0, 64, 105
1, 64200, Note_off_c, 0, 32, 63
1, 64211, Control_c, 0, 64, 127
1, 64532, Note_on_c, 0, 75, 64
1, 64543, Note_on_c, 0, 72, 42
1, 64559, Note_on_c, 0, 68, 43
1, 64567, Note_on_c, 0, 63, 36
1, 64704, Note_off_c, 0, 63, 52
1, 64722, Note_off_c, 0, 68, 42
1, 64774, Note_off_c, 0, 72, 30
1, 64828, Note_on_c, 0, 68, 51
1, 64831, Note_on_c, 0, 80, 70
1, 64849, Note_on_c, 0, 60, 50
1, 64854, Note_on_c, 0, 63, 46
1, 64904, Note_off_c, 0, 63, 54
1, 64922, Note_off_c, 0, 75, 55
1, 64935, Note_off_c, 0, 68, 0
1, 64938, Note_off_c, 0, 60, 48
1, 64967, Poly_aftertouch_c, 0, 68, 0
1, 65161, Note_on_c, 0, 79, 67
1, 65180, Note_on_c, 0, 56, 52
1, 65212, Note_off_c, 0, 80, 54
1, 65227, Control_c, 0, 64, 76
1, 65242, Control_c, 0, 64, 52
1, 65264, Control_c, 0, 64, 0
1, 65293, Control_c, 0, 64, 48
1, 65308, Control_c, 0, 64, 67
1, 65323, Control_c, 0, 64, 86
1, 65337, Note_off_c, 0, 56, 63
1, 65337, Control_c, 0, 64, 127
1, 65469, Note_on_c, 0, 73, 69
1, 65487, Note_on_c, 0, 70, 44
1, 65492, Note_on_c, 0, 64, 44
1, 65500, Note_on_c, 0, 67, 38
1, 65552, Note_off_c, 0, 79, 58
1, 65638, Note_off_c, 0, 64, 45
1, 65642, Note_off_c, 0, 67, 32
1, 65649, Note_off_c, 0, 70, 35
1, 65776, Note_on_c, 0, 67, 43
1, 65780, Note_on_c, 0, 64, 45
1, 65787, Note_on_c, 0, 76, 67
1, 65802, Note_on_c, 0, 61, 51
1, 65895, Note_off_c, 0, 73, 33
1, 65910, Note_off_c, 0, 67, 32
1, 65911, Note_off_c, 0, 61, 62
1, 65913, Note_off_c, 0, 64, 33
1, 65980, Note_on_c, 0, 77, 48
1, 66017, Note_off_c, 0, 77, 53
1, 66169, Note_on_c, 0, 44, 61
1, 66205, Control_c, 0, 64, 98
1, 66220, Control_c, 0, 64, 61
1, 66235, Control_c, 0, 64, 0
1, 66264, Control_c, 0, 64, 10
1, 66279, Control_c, 0, 64, 55
1, 66287, Note_off_c, 0, 44, 63
1, 66294, Control_c, 0, 64, 74
1, 66309, Control_c, 0, 64, 127
1, 66521, Note_on_c, 0, 75, 70
1, 66523, Note_on_c, 0, 72, 49
1, 66530, Note_on_c, 0, 68, 49
1, 66537, Note_on_c, 0, 63, 45
1, 66544, Note_off_c, 0, 76, 55
1, 66661, Note_off_c, 0, 63, 54
1, 66670, Note_off_c, 0, 68, 50
1, 66715, Note_off_c, 0, 72, 34
1, 66818, Note_on_c, 0, 80, 67
1, 66822, Note_on_c, 0, 63, 43
1, 66825, Note_on_c, 0, 60, 51
1, 66828, Note_on_c, 0, 68, 51
1, 66870, Note_off_c, 0, 68, 57
1, 66880, Note_off_c, 0, 63, 56
1, 66895, Note_off_c, 0, 60, 52
1, 66897, Note_off_c, 0, 75, 58
1, 67102, Control_c, 0, 64, 107
1, 67104, Note_on_c, 0, 56, 59
1, 67117, Control_c, 0, 64, 71
1, 67132, Control_c, 0, 64, 52
1, 67147, Control_c, 0, 64, 47
1, 67162, Control_c, 0, 64, 58
1, 67177, Control_c, 0, 64, 72
1, 67191, Control_c, 0, 64, 99
1, 67206, Control_c, 0, 64, 127
1, 67240, Note_off_c, 0, 56, 64
1, 67261, Note_on_c, 0, 79, 62
1, 67289, Note_off_c, 0, 80, 52
1, 67452, Note_on_c, 0, 70, 42
1, 67460, Note_off_c, 0, 79, 57
1, 67463, Note_on_c, 0, 73, 63
1, 67473, Note_on_c, 0, 64, 43
1, 67474, Note_on_c, 0, 67, 36
1, 67488, Control_c, 0, 64, 110
1, 67510, Control_c, 0, 64, 72
1, 67525, Control_c, 0, 64, 56
1, 67540, Control_c, 0, 64, 55
1, 67555, Control_c, 0, 64, 66
1, 67570, Control_c, 0, 64, 88
1, 67585, Control_c, 0, 64, 127
1, 67632, Note_on_c, 0, 75, 67
1, 67642, Note_off_c, 0, 64, 51
1, 67656, Note_off_c, 0, 73, 54
1, 67669, Note_off_c, 0, 67, 37
1, 67682, Note_off_c, 0, 70, 34
1, 67805, Note_on_c, 0, 78, 62
1, 67807, Note_on_c, 0, 67, 45
1, 67807, Control_c, 0, 64, 91
1, 67811, Note_on_c, 0, 64, 36
1, 67821, Control_c, 0, 64, 69
1, 67824, Note_on_c, 0, 61, 48
1, 67836, Control_c, 0, 64, 57
1, 67844, Note_off_c, 0, 75, 47
1, 67851, Control_c, 0, 64, 60
1, 67865, Control_c, 0, 64, 73
1, 67880, Control_c, 0, 64, 115
1, 67895, Control_c, 0, 64, 127
1, 67931, Note_off_c, 0, 67, 52
1, 67940, Note_off_c, 0, 64, 57
1, 67964, Note_off_c, 0, 61, 64
1, 67984, Note_on_c, 0, 76, 63
1, 68073, Note_off_c, 0, 78, 34
1, 68122, Note_off_c, 0, 76, 48
1, 68263, Note_on_c, 0, 44, 54
1, 68333, Control_c, 0, 64, 110
1, 68348, Control_c, 0, 64, 68
1, 68363, Control_c, 0, 64, 49
1, 68378, Control_c, 0, 64, 45
1, 68393, Control_c, 0, 64, 60
1, 68408, Control_c, 0, 64, 79
1, 68423, Control_c, 0, 64, 127
1, 68430, Note_off_c, 0, 44, 61
1, 68718, Note_on_c, 0, 75, 56
1, 68733, Note_on_c, 0, 72, 37
1, 68758, Note_on_c, 0, 68, 31
1, 68772, Note_on_c, 0, 63, 27
1, 68896, Note_on_c, 0, 77, 62
1, 68918, Note_off_c, 0, 68, 46
1, 68926, Note_off_c, 0, 63, 36
1, 68938, Note_off_c, 0, 75, 37
1, 68947, Note_off_c, 0, 72, 39
1, 69043, Note_off_c, 0, 77, 59
1, 69044, Note_on_c, 0, 75, 70
1, 69047, Note_on_c, 0, 68, 48
1, 69052, Note_on_c, 0, 63, 46
1, 69093, Note_off_c, 0, 68, 61
1, 69102, Note_off_c, 0, 63, 56
1, 69157, Poly_aftertouch_c, 0, 60, 0
1, 69159, Poly_aftertouch_c, 0, 61, 0
1, 69177, Note_on_c, 0, 77, 71
1, 69210, Note_off_c, 0, 75, 55
1, 69403, Note_on_c, 0, 78, 66
1, 69420, Note_on_c, 0, 39, 51
1, 69453, Note_off_c, 0, 77, 56
1, 69468, Control_c, 0, 64, 72
1, 69483, Control_c, 0, 64, 49
1, 69498, Control_c, 0, 64, 0
1, 69526, Control_c, 0, 64, 46
1, 69541, Control_c, 0, 64, 67
1, 69543, Note_off_c, 0, 39, 63
1, 69556, Control_c, 0, 64, 87
1, 69571, Control_c, 0, 64, 127
1, 69647, Note_off_c, 0, 78, 59
1, 69800, Note_on_c, 0, 78, 74
1, 69818, Note_on_c, 0, 70, 49
1, 69821, Note_on_c, 0, 63, 37
1, 69824, Note_on_c, 0, 66, 43
1, 69978, Note_off_c, 0, 70, 55
1, 69984, Note_off_c, 0, 63, 57
1, 69993, Note_off_c, 0, 66, 55
1, 70011, Note_off_c, 0, 78, 60
1, 70121, Note_on_c, 0, 78, 75
1, 70123, Note_on_c, 0, 58, 53
1, 70135, Note_on_c, 0, 63, 42
1, 70143, Note_on_c, 0, 66, 36
1, 70167, Note_off_c, 0, 63, 57
1, 70172, Note_off_c, 0, 66, 54
1, 70199, Note_off_c, 0, 58, 56
1, 70268, Note_off_c, 0, 78, 61
1, 70485, Note_on_c, 0, 78, 68
1, 70506, Note_on_c, 0, 41, 52
1, 70580, Control_c, 0, 64, 82
1, 70595, Control_c, 0, 64, 59
1, 70610, Control_c, 0, 64, 48
1, 70625, Control_c, 0, 64, 57
1, 70639, Control_c, 0, 64, 70
1, 70654, Control_c, 0, 64, 99
1, 70661, Note_off_c, 0, 41, 64
1, 70669, Control_c, 0, 64, 127
1, 70932, Note_on_c, 0, 77, 56
1, 70946, Note_on_c, 0, 69, 37
1, 70950, Note_on_c, 0, 63, 40
1, 71022, Note_off_c, 0, 78, 33
1, 71122, Note_off_c, 0, 63, 32
1, 71129, Note_on_c, 0, 72, 58
1, 71152, Note_off_c, 0, 77, 31
1, 71157, Note_off_c, 0, 69, 33
1, 71303, Note_off_c, 0, 72, 56
1, 71306, Note_on_c, 0, 63, 26
1, 71308, Note_on_c, 0, 75, 59
1, 71314, Control_c, 0, 64, 85
1, 71315, Note_on_c, 0, 65, 37
1, 71324, Note_on_c, 0, 57, 40
1, 71329, Control_c, 0, 64, 66
1, 71344, Control_c, 0, 64, 53
1, 71359, Control_c, 0, 64, 52
1, 71374, Control_c, 0, 64, 60
1, 71382, Note_off_c, 0, 57, 0
1, 71388, Control_c, 0, 64, 73
1, 71403, Control_c, 0, 64, 127
1, 71419, Poly_aftertouch_c, 0, 57, 127
1, 71426, Note_off_c, 0, 65, 42
1, 71445, Note_off_c, 0, 63, 40
1, 71473, Poly_aftertouch_c, 0, 57, 0
1, 71474, Note_on_c, 0, 73, 57
1, 71475, Note_off_c, 0, 75, 48
1, 71740, Note_on_c, 0, 70, 50
1, 71755, Note_on_c, 0, 46, 43
1, 71788, Control_c, 0, 64, 99
1, 71803, Control_c, 0, 64, 72
1, 71818, Control_c, 0, 64, 53
1, 71821, Note_off_c, 0, 73, 42
1, 71832, Control_c, 0, 64, 33
1, 71847, Control_c, 0, 64, 29
1, 71862, Control_c, 0, 64, 43
1, 71877, Control_c, 0, 64, 61
1, 71892, Control_c, 0, 64, 75
1, 71906, Control_c, 0, 64, 127
1, 71929, Note_off_c, 0, 46, 61
1, 72135, Note_off_c, 0, 70, 35
1, 72195, Note_on_c, 0, 65, 38
1, 72199, Note_on_c, 0, 61, 35
1, 72211, Note_on_c, 0, 58, 34
1, 72349, Note_off_c, 0, 61, 49
1, 72360, Note_off_c, 0, 58, 39
1, 72384, Note_off_c, 0, 65, 33
1, 72518, Note_on_c, 0, 61, 38
1, 72533, Note_on_c, 0, 58, 35
1, 72535, Note_on_c, 0, 53, 42
1, 72627, Note_off_c, 0, 61, 48
1, 72643, Note_off_c, 0, 58, 60
1, 72654, Note_off_c, 0, 53, 50
1, 72974, Note_on_c, 0, 42, 53
1, 73049, Control_c, 0, 64, 94
1, 73064, Control_c, 0, 64, 69
1, 73079, Control_c, 0, 64, 52
1, 73094, Control_c, 0, 64, 37
1, 73109, Control_c, 0, 64, 43
1, 73123, Control_c, 0, 64, 60
1, 73138, Control_c, 0, 64, 78
1, 73153, Control_c, 0, 64, 127
1, 73164, Note_off_c, 0, 42, 64
1, 73454, Note_on_c, 0, 73, 49
1, 73467, Note_on_c, 0, 58, 37
1, 73472, Note_on_c, 0, 66, 25
1, 73475, Note_on_c, 0, 61, 35
1, 73646, Note_off_c, 0, 58, 55
1, 73648, Note_on_c, 0, 75, 63
1, 73648, Note_off_c, 0, 61, 50
1, 73652, Note_off_c, 0, 73, 55
1, 73696, Note_off_c, 0, 66, 37
1, 73794, Note_on_c, 0, 73, 60
1, 73796, Note_off_c, 0, 75, 60
1, 73806, Note_on_c, 0, 54, 50
1, 73807, Note_on_c, 0, 58, 42
1, 73817, Note_on_c, 0, 61, 38
1, 73853, Note_off_c, 0, 61, 51
1, 73855, Note_off_c, 0, 58, 57
1, 73894, Note_off_c, 0, 54, 63
1, 73939, Note_on_c, 0, 75, 67
1, 73961, Note_off_c, 0, 73, 50
1, 74177, Note_on_c, 0, 77, 60
1, 74188, Note_on_c, 0, 37, 50
1, 74227, Control_c, 0, 64, 88
1, 74240, Note_off_c, 0, 75, 34
1, 74242, Control_c, 0, 64, 63
1, 74265, Control_c, 0, 64, 27
1, 74280, Control_c, 0, 64, 0
1, 74295, Control_c, 0, 64, 24
1, 74309, Control_c, 0, 64, 57
1, 74323, Note_off_c, 0, 37, 62
1, 74324, Control_c, 0, 64, 73
1, 74339, Control_c, 0, 64, 107
1, 74353, Control_c, 0, 64, 127
1, 74422, Note_off_c, 0, 77, 55
1, 74593, Note_on_c, 0, 77, 69
1, 74603, Note_on_c, 0, 61, 45
1, 74612, Note_on_c, 0, 56, 46
1, 74614, Note_on_c, 0, 65, 35
1, 74769, Note_off_c, 0, 56, 56
1, 74779, Note_off_c, 0, 61, 59
1, 74796, Note_off_c, 0, 65, 41
1, 74802, Note_off_c, 0, 77, 60
1, 74918, Note_on_c, 0, 77, 73
1, 74925, Note_on_c, 0, 61, 48
1, 74930, Note_on_c, 0, 56, 41
1, 74930, Note_on_c, 0, 53, 50
1, 74975, Note_off_c, 0, 61, 58
1, 75013, Note_off_c, 0, 56, 49
1, 75027, Note_off_c, 0, 53, 59
1, 75070, Note_off_c, 0, 77, 48
1, 75296, Note_on_c, 0, 77, 56
1, 75309, Note_on_c, 0, 39, 50
1, 75341, Control_c, 0, 64, 98
1, 75355, Control_c, 0, 64, 68
1, 75370, Control_c, 0, 64, 43
1, 75385, Control_c, 0, 64, 0
1, 75414, Control_c, 0, 64, 44
1, 75429, Control_c, 0, 64, 66
1, 75444, Control_c, 0, 64, 86
1, 75459, Control_c, 0, 64, 127
1, 75463, Note_off_c, 0, 39, 61
1, 75699, Note_on_c, 0, 75, 57
1, 75717, Note_off_c, 0, 77, 35
1, 75720, Note_on_c, 0, 60, 43
1, 75730, Note_on_c, 0, 66, 39
1, 75747, Note_on_c, 0, 58, 41
1, 75868, Note_off_c, 0, 66, 54
1, 75879, Note_off_c, 0, 58, 52
1, 75899, Note_on_c, 0, 70, 56
1, 75899, Note_off_c, 0, 60, 41
1, 75936, Note_off_c, 0, 75, 35
1, 76069, Note_on_c, 0, 58, 34
1, 76073, Note_off_c, 0, 70, 56
1, 76075, Control_c, 0, 64, 101
1, 76086, Note_on_c, 0, 73, 51
1, 76086, Note_on_c, 0, 63, 45
1, 76087, Note_on_c, 0, 54, 44
1, 76090, Control_c, 0, 64, 70
1, 76104, Control_c, 0, 64, 57
1, 76119, Control_c, 0, 64, 53
1, 76134, Control_c, 0, 64, 59
1, 76149, Control_c, 0, 64, 67
1, 76164, Control_c, 0, 64, 78
1, 76179, Control_c, 0, 64, 104
1, 76194, Control_c, 0, 64, 127
1, 76211, Note_off_c, 0, 63, 45
1, 76220, Note_off_c, 0, 58, 43
1, 76242, Note_off_c, 0, 54, 41
1, 76289, Note_on_c, 0, 72, 51
1, 76323, Note_off_c, 0, 73, 39
1, 76522, Note_off_c, 0, 72, 0
1, 76547, Note_on_c, 0, 41, 49
1, 76553, Note_on_c, 0, 69, 47
1, 76554, Control_c, 0, 64, 80
1, 76569, Control_c, 0, 64, 62
1, 76584, Control_c, 0, 64, 37
1, 76587, Poly_aftertouch_c, 0, 72, 0
1, 76599, Control_c, 0, 64, 0
1, 76629, Control_c, 0, 64, 42
1, 76644, Control_c, 0, 64, 62
1, 76659, Control_c, 0, 64, 74
1, 76672, Note_off_c, 0, 41, 63
1, 76674, Control_c, 0, 64, 96
1, 76689, Control_c, 0, 64, 127
1, 76732, Note_off_c, 0, 69, 51
1, 76950, Note_on_c, 0, 72, 48
1, 76972, Note_on_c, 0, 60, 40
1, 76974, Note_on_c, 0, 65, 37
1, 76979, Note_on_c, 0, 69, 36
1, 77124, Note_off_c, 0, 60, 51
1, 77157, Note_off_c, 0, 65, 33
1, 77166, Note_off_c, 0, 69, 33
1, 77255, Note_on_c, 0, 77, 62
1, 77266, Note_on_c, 0, 57, 49
1, 77266, Note_on_c, 0, 60, 38
1, 77276, Note_on_c, 0, 65, 45
1, 77312, Note_off_c, 0, 72, 56
1, 77316, Note_off_c, 0, 65, 59
1, 77347, Note_off_c, 0, 60, 43
1, 77368, Note_off_c, 0, 57, 52
1, 77556, Note_on_c, 0, 76, 63
1, 77562, Note_on_c, 0, 53, 53
1, 77585, Control_c, 0, 64, 93
1, 77600, Control_c, 0, 64, 66
1, 77601, Note_off_c, 0, 77, 55
1, 77615, Control_c, 0, 64, 38
1, 77630, Control_c, 0, 64, 32
1, 77644, Control_c, 0, 64, 53
1, 77659, Control_c, 0, 64, 68
1, 77675, Control_c, 0, 64, 84
1, 77690, Control_c, 0, 64, 127
1, 77724, Note_off_c, 0, 53, 62
1, 77885, Note_on_c, 0, 70, 60
1, 77902, Note_on_c, 0, 67, 35
1, 77905, Note_on_c, 0, 64, 35
1, 77908, Note_on_c, 0, 61, 35
1, 77973, Note_off_c, 0, 76, 54
1, 78052, Note_off_c, 0, 64, 41
1, 78063, Note_off_c, 0, 67, 33
1, 78064, Note_off_c, 0, 61, 34
1, 78215, Note_on_c, 0, 64, 30
1, 78218, Note_on_c, 0, 73, 49
1, 78222, Note_on_c, 0, 61, 27
1, 78230, Note_on_c, 0, 58, 45
1, 78273, Note_off_c, 0, 70, 31
1, 78293, Note_off_c, 0, 58, 54
1, 78300, Note_off_c, 0, 64, 50
1, 78358, Note_off_c, 0, 61, 42
1, 78644, Note_on_c, 0, 41, 42
1, 78646, Control_c, 0, 64, 98
1, 78661, Control_c, 0, 64, 69
1, 78676, Control_c, 0, 64, 47
1, 78690, Control_c, 0, 64, 0
1, 78720, Control_c, 0, 64, 45
1, 78742, Control_c, 0, 64, 66
1, 78757, Control_c, 0, 64, 80
1, 78765, Note_off_c, 0, 41, 63
1, 78772, Control_c, 0, 64, 127
1, 79057, Note_on_c, 0, 72, 51
1, 79070, Note_on_c, 0, 65, 34
1, 79083, Note_on_c, 0, 69, 39
1, 79085, Note_on_c, 0, 60, 44
1, 79143, Note_off_c, 0, 73, 36
1, 79240, Note_off_c, 0, 65, 39
1, 79250, Note_off_c, 0, 60, 34
1, 79252, Note_off_c, 0, 69, 34
1, 79364, Note_on_c, 0, 77, 62
1, 79381, Note_on_c, 0, 65, 36
1, 79389, Note_on_c, 0, 60, 47
1, 79395, Note_on_c, 0, 57, 43
1, 79434, Note_off_c, 0, 72, 34
1, 79436, Note_off_c, 0, 65, 60
1, 79446, Note_off_c, 0, 60, 56
1, 79469, Note_off_c, 0, 57, 53
1, 79717, Note_on_c, 0, 53, 48
1, 79717, Note_on_c, 0, 76, 57
1, 79762, Note_off_c, 0, 77, 51
1, 79773, Control_c, 0, 64, 76
1, 79788, Control_c, 0, 64, 58
1, 79803, Control_c, 0, 64, 38
1, 79817, Control_c, 0, 64, 43
1, 79832, Control_c, 0, 64, 60
1, 79847, Control_c, 0, 64, 75
1, 79862, Control_c, 0, 64, 127
1, 79875, Note_off_c, 0, 53, 62
1, 80036, Note_on_c, 0, 70, 57
1, 80039, Control_c, 0, 64, 114
1, 80048, Note_on_c, 0, 67, 37
1, 80051, Note_on_c, 0, 64, 38
1, 80054, Note_on_c, 0, 61, 40
1, 80054, Control_c, 0, 64, 71
1, 80069, Control_c, 0, 64, 58
1, 80084, Control_c, 0, 64, 57
1, 80099, Control_c, 0, 64, 67
1, 80111, Note_off_c, 0, 76, 50
1, 80114, Control_c, 0, 64, 88
1, 80129, Control_c, 0, 64, 127
1, 80206, Note_off_c, 0, 64, 46
1, 80213, Note_off_c, 0, 61, 43
1, 80224, Note_off_c, 0, 67, 40
1, 80390, Note_on_c, 0, 64, 25
1, 80403, Note_on_c, 0, 73, 51
1, 80413, Note_on_c, 0, 61, 23
1, 80414, Note_on_c, 0, 58, 40
1, 80459, Note_off_c, 0, 64, 39
1, 80467, Note_off_c, 0, 58, 57
1, 80468, Note_off_c, 0, 61, 42
1, 80471, Note_off_c, 0, 70, 31
1, 80820, Note_on_c, 0, 41, 51
1, 80874, Note_off_c, 0, 73, 42
1, 80877, Control_c, 0, 64, 88
1, 80892, Control_c, 0, 64, 65
1, 80907, Control_c, 0, 64, 50
1, 80922, Control_c, 0, 64, 54
1, 80936, Control_c, 0, 64, 67
1, 80951, Control_c, 0, 64, 87
1, 80966, Control_c, 0, 64, 127
1, 80987, Note_off_c, 0, 41, 64
1, 81306, Note_on_c, 0, 72, 46
1, 81318, Note_on_c, 0, 66, 34
1, 81321, Note_on_c, 0, 60, 41
1, 81324, Note_on_c, 0, 63, 28
1, 81471, Note_off_c, 0, 60, 58
1, 81497, Note_on_c, 0, 73, 58
1, 81508, Note_off_c, 0, 63, 40
1, 81538, Note_off_c, 0, 72, 34
1, 81539, Note_off_c, 0, 66, 33
1, 81629, Note_on_c, 0, 63, 49
1, 81631, Note_off_c, 0, 73, 57
1, 81643, Note_on_c, 0, 54, 45
1, 81647, Note_on_c, 0, 72, 66
1, 81658, Note_on_c, 0, 58, 41
1, 81762, Note_off_c, 0, 63, 52
1, 81780, Note_on_c, 0, 73, 65
1, 81798, Note_off_c, 0, 54, 33
1, 81811, Note_off_c, 0, 58, 41
1, 81836, Note_off_c, 0, 72, 49
1, 81959, Note_on_c, 0, 75, 65
1, 81965, Note_on_c, 0, 53, 55
1, 82004, Control_c, 0, 64, 69
1, 82018, Control_c, 0, 64, 48
1, 82033, Control_c, 0, 64, 30
1, 82048, Control_c, 0, 64, 39
1, 82051, Note_off_c, 0, 73, 36
1, 82063, Control_c, 0, 64, 58
1, 82078, Control_c, 0, 64, 70
1, 82093, Control_c, 0, 64, 88
1, 82108, Control_c, 0, 64, 127
1, 82120, Note_off_c, 0, 53, 62
1, 82187, Note_off_c, 0, 75, 61
1, 82317, Note_on_c, 0, 75, 70
1, 82328, Note_on_c, 0, 70, 46
1, 82337, Note_on_c, 0, 66, 43
1, 82345, Note_on_c, 0, 63, 42
1, 82524, Note_off_c, 0, 63, 56
1, 82527, Note_off_c, 0, 66, 55
1, 82552, Note_off_c, 0, 75, 61
1, 82564, Note_off_c, 0, 70, 35
1, 82656, Note_on_c, 0, 75, 72
1, 82668, Note_on_c, 0, 63, 48
1, 82669, Note_on_c, 0, 60, 56
1, 82672, Note_on_c, 0, 66, 46
1, 82709, Note_off_c, 0, 63, 62
1, 82709, Note_off_c, 0, 66, 62
1, 82749, Note_off_c, 0, 60, 58
1, 82907, Note_off_c, 0, 75, 47
1, 83065, Note_on_c, 0, 75, 51
1, 83074, Note_on_c, 0, 41, 53
1, 83139, Control_c, 0, 64, 98
1, 83153, Control_c, 0, 64, 70
1, 83168, Control_c, 0, 64, 52
1, 83183, Control_c, 0, 64, 39
1, 83198, Control_c, 0, 64, 50
1, 83213, Control_c, 0, 64, 65
1, 83235, Control_c, 0, 64, 86
1, 83244, Note_off_c, 0, 41, 63
1, 83250, Control_c, 0, 64, 127
1, 83526, Note_on_c, 0, 77, 54
1, 83552, Note_on_c, 0, 69, 35
1, 83561, Note_on_c, 0, 63, 38
1, 83571, Note_off_c, 0, 75, 34
1, 83734, Note_off_c, 0, 63, 35
1, 83738, Note_on_c, 0, 72, 55
1, 83774, Note_off_c, 0, 77, 34
1, 83786, Note_off_c, 0, 69, 41
1, 83930, Note_on_c, 0, 75, 53
1, 83943, Note_on_c, 0, 65, 36
1, 83950, Note_off_c, 0, 72, 34
1, 83953, Note_on_c, 0, 57, 41
1, 83953, Note_on_c, 0, 63, 21
1, 83983, Control_c, 0, 64, 87
1, 83998, Control_c, 0, 64, 65
1, 84013, Control_c, 0, 64, 44
1, 84028, Control_c, 0, 64, 35
1, 84043, Control_c, 0, 64, 49
1, 84059, Control_c, 0, 64, 64
1, 84074, Control_c, 0, 64, 74
1, 84088, Control_c, 0, 64, 90
1, 84103, Control_c, 0, 64, 127
1, 84109, Note_off_c, 0, 65, 39
1, 84127, Note_off_c, 0, 63, 43
1, 84148, Note_on_c, 0, 73, 57
1, 84162, Note_off_c, 0, 57, 38
1, 84193, Note_off_c, 0, 75, 33
1, 84455, Note_on_c, 0, 70, 46
1, 84480, Note_on_c, 0, 46, 36
1, 84532, Control_c, 0, 64, 109
1, 84534, Note_off_c, 0, 73, 37
1, 84547, Control_c, 0, 64, 78
1, 84561, Control_c, 0, 64, 62
1, 84576, Control_c, 0, 64, 42
1, 84591, Control_c, 0, 64, 20
1, 84606, Control_c, 0, 64, 23
1, 84621, Control_c, 0, 64, 45
1, 84636, Control_c, 0, 64, 62
1, 84651, Control_c, 0, 64, 75
1, 84665, Control_c, 0, 64, 96
1, 84680, Control_c, 0, 64, 127
1, 84707, Note_off_c, 0, 46, 60
1, 84952, Note_off_c, 0, 70, 32
1, 85053, Note_on_c, 0, 65, 31
1, 85058, Note_on_c, 0, 61, 32
1, 85068, Note_on_c, 0, 58, 34
1, 85231, Note_off_c, 0, 58, 47
1, 85244, Note_off_c, 0, 61, 40
1, 85253, Note_off_c, 0, 65, 35
1, 85387, Note_on_c, 0, 61, 37
1, 85392, Note_on_c, 0, 58, 32
1, 85395, Note_on_c, 0, 53, 49
1, 85500, Note_off_c, 0, 53, 58
1, 85555, Note_off_c, 0, 58, 40
1, 85560, Note_off_c, 0, 61, 35
1, 85756, Note_on_c, 0, 66, 44
1, 85768, Note_on_c, 0, 61, 29
1, 85778, Control_c, 0, 64, 78
1, 85786, Note_on_c, 0, 58, 32
1, 85793, Control_c, 0, 64, 62
1, 85808, Control_c, 0, 64, 54
1, 85823, Control_c, 0, 64, 61
1, 85838, Control_c, 0, 64, 73
1, 85852, Control_c, 0, 64, 110
1, 85867, Control_c, 0, 64, 127
1, 85951, Note_off_c, 0, 58, 43
1, 85954, Note_off_c, 0, 66, 57
1, 85971, Note_off_c, 0, 61, 39
1, 86098, Note_on_c, 0, 61, 47
1, 86104, Note_on_c, 0, 58, 32
1, 86114, Note_on_c, 0, 65, 44
1, 86231, Note_off_c, 0, 61, 49
1, 86254, Note_off_c, 0, 58, 43
1, 86301, Note_off_c, 0, 65, 33
1, 86396, Note_on_c, 0, 58, 44
1, 86402, Note_on_c, 0, 61, 50
1, 86418, Note_on_c, 0, 53, 49
1, 86503, Note_off_c, 0, 58, 53
1, 86508, Note_off_c, 0, 61, 49
1, 86515, Note_off_c, 0, 53, 61
1, 86788, Note_on_c, 0, 58, 38
1, 86789, Note_on_c, 0, 49, 50
1, 86798, Note_on_c, 0, 53, 30
1, 86868, Control_c, 0, 64, 96
1, 86883, Control_c, 0, 64, 69
1, 86898, Control_c, 0, 64, 60
1, 86913, Control_c, 0, 64, 61
1, 86927, Control_c, 0, 64, 72
1, 86942, Control_c, 0, 64, 106
1, 86943, Note_off_c, 0, 58, 60
1, 86957, Control_c, 0, 64, 127
1, 86965, Note_off_c, 0, 53, 61
1, 87014, Note_off_c, 0, 49, 62
1, 87258, Note_on_c, 0, 46, 44
1, 87260, Note_on_c, 0, 34, 38
1, 87336, Control_c, 0, 64, 96
1, 87351, Control_c, 0, 64, 74
1, 87365, Control_c, 0, 64, 63
1, 87380, Control_c, 0, 64, 60
1, 87395, Control_c, 0, 64, 67
1, 87410, Control_c, 0, 64, 86
1, 87424, Control_c, 0, 64, 127
1, 87441, Note_off_c, 0, 46, 55
1, 87507, Note_off_c, 0, 34, 50
1, 87634, Note_on_c, 0, 44, 39
1, 87646, Note_on_c, 0, 32, 42
1, 87691, Control_c, 0, 64, 78
1, 87706, Control_c, 0, 64, 59
1, 87728, Control_c, 0, 64, 50
1, 87743, Control_c, 0, 64, 58
1, 87757, Control_c, 0, 64, 72
1, 87772, Control_c, 0, 64, 103
1, 87787, Control_c, 0, 64, 127
1, 87858, Note_off_c, 0, 44, 54
1, 87908, Note_off_c, 0, 32, 59
1, 87950, Control_c, 0, 67, 9
1, 87965, Control_c, 0, 67, 11
1, 87980, Control_c, 0, 67, 11
1, 87995, Control_c, 0, 67, 14
1, 88010, Control_c, 0, 67, 16
1, 88024, Control_c, 0, 67, 17
1, 88039, Control_c, 0, 67, 19
1, 88055, Control_c, 0, 67, 21
1, 88070, Control_c, 0, 67, 24
1, 88085, Control_c, 0, 67, 27
1, 88099, Control_c, 0, 67, 32
1, 88114, Control_c, 0, 67, 38
1, 88129, Control_c, 0, 67, 44
1, 88144, Control_c, 0, 67, 51
1, 88159, Control_c, 0, 67, 57
1, 88173, Control_c, 0, 67, 63
1, 88188, Control_c, 0, 67, 70
1, 88203, Control_c, 0, 67, 75
1, 88210, Note_on_c, 0, 42, 36
1, 88212, Note_on_c, 0, 30, 45
1, 88218, Control_c, 0, 67, 81
1, 88232, Control_c, 0, 67, 87
1, 88247, Control_c, 0, 67, 93
1, 88261, Control_c, 0, 67, 99
1, 88276, Control_c, 0, 67, 105
1, 88291, Control_c, 0, 67, 112
1, 88305, Control_c, 0, 67, 118
1, 88320, Control_c, 0, 64, 88
1, 88320, Control_c, 0, 67, 123
1, 88335, Control_c, 0, 64, 65
1, 88335, Control_c, 0, 67, 127
1, 88350, Control_c, 0, 64, 41
1, 88350, Control_c, 0, 67, 127
1, 88365, Control_c, 0, 64, 0
1, 88395, Control_c, 0, 64, 41
1, 88409, Control_c, 0, 64, 64
1, 88424, Control_c, 0, 64, 78
1, 88439, Control_c, 0, 64, 127
1, 88462, Note_off_c, 0, 30, 62
1, 88508, Note_off_c, 0, 42, 55
1, 88728, Note_on_c, 0, 49, 49
1, 88743, Control_c, 0, 67, 127
1, 88766, Note_on_c, 0, 37, 40
1, 88772, Control_c, 0, 67, 126
1, 88787, Control_c, 0, 67, 126
1, 88802, Control_c, 0, 67, 125
1, 88817, Control_c, 0, 67, 124
1, 88832, Control_c, 0, 67, 124
1, 88833, Note_off_c, 0, 37, 56
1, 88860, Note_off_c, 0, 49, 58
1, 88877, Control_c, 0, 67, 123
1, 88892, Control_c, 0, 67, 123
1, 88936, Control_c, 0, 67, 122
1, 88951, Control_c, 0, 67, 122
1, 89026, Control_c, 0, 67, 121
1, 89044, Note_on_c, 0, 54, 53
1, 89050, Note_on_c, 0, 42, 54
1, 89128, Note_off_c, 0, 54, 59
1, 89134, Note_off_c, 0, 42, 51
1, 89359, Control_c, 0, 67, 121
1, 89374, Control_c, 0, 67, 120
1, 89403, Control_c, 0, 67, 120
1, 89418, Control_c, 0, 67, 119
1, 89433, Control_c, 0, 67, 119
1, 89438, Note_on_c, 0, 78, 57
1, 89447, Control_c, 0, 67, 118
1, 89454, Note_on_c, 0, 66, 40
1, 89454, Note_on_c, 0, 70, 48
1, 89468, Note_on_c, 0, 58, 28
1, 89477, Control_c, 0, 67, 118
1, 89484, Note_on_c, 0, 46, 35
1, 89492, Control_c, 0, 64, 86
1, 89507, Control_c, 0, 64, 63
1, 89521, Control_c, 0, 64, 44
1, 89536, Control_c, 0, 64, 47
1, 89551, Control_c, 0, 64, 63
1, 89566, Control_c, 0, 64, 84
1, 89581, Control_c, 0, 64, 127
1, 89581, Control_c, 0, 67, 117
1, 89599, Note_off_c, 0, 58, 56
1, 89600, Note_off_c, 0, 46, 60
1, 89611, Control_c, 0, 67, 117
1, 89626, Control_c, 0, 67, 116
1, 89641, Control_c, 0, 67, 116
1, 89686, Control_c, 0, 67, 115
1, 89745, Control_c, 0, 67, 116
1, 89749, Note_off_c, 0, 66, 54
1, 89753, Note_on_c, 0, 63, 49
1, 89775, Note_off_c, 0, 78, 53
1, 89784, Note_on_c, 0, 51, 46
1, 89796, Note_off_c, 0, 70, 61
1, 89816, Note_off_c, 0, 63, 48
1, 89888, Note_off_c, 0, 51, 60
1, 90001, Note_on_c, 0, 78, 68
1, 90004, Note_on_c, 0, 66, 53
1, 90008, Note_on_c, 0, 58, 48
1, 90018, Poly_aftertouch_c, 0, 73, 127
1, 90019, Note_on_c, 0, 70, 54
1, 90026, Note_on_c, 0, 46, 38
1, 90059, Poly_aftertouch_c, 0, 73, 0
1, 90094, Note_off_c, 0, 46, 61
1, 90099, Note_off_c, 0, 58, 56
1, 90157, Note_off_c, 0, 70, 53
1, 90186, Note_off_c, 0, 66, 35
1, 90237, Note_off_c, 0, 78, 35
1, 90345, Control_c, 0, 67, 115
1, 90347, Note_on_c, 0, 78, 57
1, 90363, Note_on_c, 0, 66, 42
1, 90368, Note_on_c, 0, 70, 44
1, 90371, Note_on_c, 0, 61, 35
1, 90374, Control_c, 0, 67, 115
1, 90376, Note_on_c, 0, 49, 35
1, 90404, Control_c, 0, 67, 115
1, 90419, Control_c, 0, 64, 86
1, 90434, Control_c, 0, 64, 65
1, 90449, Control_c, 0, 64, 46
1, 90464, Control_c, 0, 64, 46
1, 90479, Control_c, 0, 64, 60
1, 90493, Control_c, 0, 64, 76
1, 90508, Control_c, 0, 64, 127
1, 90520, Note_off_c, 0, 61, 59
1, 90553, Control_c, 0, 67, 115
1, 90597, Control_c, 0, 67, 115
1, 90635, Note_off_c, 0, 49, 34
1, 90649, Note_on_c, 0, 51, 44
1, 90662, Note_on_c, 0, 63, 40
1, 90703, Note_off_c, 0, 63, 47
1, 90797, Control_c, 0, 67, 115
1, 90800, Note_off_c, 0, 51, 56
1, 90827, Control_c, 0, 67, 115
1, 90842, Control_c, 0, 67, 115
1, 90875, Note_on_c, 0, 46, 43
1, 90901, Control_c, 0, 67, 115
1, 90916, Note_on_c, 0, 58, 28
1, 90955, Note_off_c, 0, 58, 41
1, 90961, Control_c, 0, 67, 116
1, 90983, Note_off_c, 0, 46, 56
1, 91049, Control_c, 0, 67, 115
1, 91173, Note_on_c, 0, 49, 44
1, 91182, Note_on_c, 0, 61, 46
1, 91197, Control_c, 0, 64, 78
1, 91212, Control_c, 0, 64, 61
1, 91226, Control_c, 0, 64, 49
1, 91243, Control_c, 0, 64, 57
1, 91243, Control_c, 0, 67, 116
1, 91258, Control_c, 0, 64, 71
1, 91272, Note_off_c, 0, 61, 62
1, 91272, Control_c, 0, 64, 127
1, 91330, Note_off_c, 0, 49, 58
1, 91426, Note_on_c, 0, 44, 47
1, 91441, Note_on_c, 0, 56, 43
1, 91500, Note_off_c, 0, 56, 62
1, 91568, Note_off_c, 0, 44, 34
1, 91665, Control_c, 0, 67, 116
1, 91697, Note_on_c, 0, 46, 44
1, 91707, Note_on_c, 0, 58, 38
1, 91724, Control_c, 0, 67, 117
1, 91754, Note_off_c, 0, 58, 45
1, 91798, Control_c, 0, 67, 117
1, 91872, Control_c, 0, 67, 117
1, 91954, Note_off_c, 0, 46, 26
1, 92012, Note_on_c, 0, 54, 42
1, 92017, Note_on_c, 0, 42, 45
1, 92050, Control_c, 0, 64, 85
1, 92064, Control_c, 0, 64, 63
1, 92079, Control_c, 0, 64, 39
1, 92109, Control_c, 0, 64, 58
1, 92124, Control_c, 0, 64, 75
1, 92139, Control_c, 0, 64, 127
1, 92144, Note_off_c, 0, 54, 60
1, 92168, Control_c, 0, 67, 116
1, 92172, Note_off_c, 0, 42, 64
1, 92198, Control_c, 0, 67, 116
1, 92235, Control_c, 0, 67, 115
1, 92250, Control_c, 0, 67, 115
1, 92321, Note_on_c, 0, 51, 44
1, 92327, Note_on_c, 0, 39, 41
1, 92353, Control_c, 0, 67, 114
1, 92375, Note_off_c, 0, 51, 60
1, 92395, Note_off_c, 0, 39, 62
1, 92428, Control_c, 0, 67, 114
1, 92460, Note_off_c, 0, 66, 34
1, 92473, Note_off_c, 0, 78, 34
1, 92527, Note_off_c, 0, 70, 57
1, 92541, Note_on_c, 0, 46, 49
1, 92546, Control_c, 0, 67, 113
1, 92558, Note_on_c, 0, 34, 44
1, 92603, Note_off_c, 0, 34, 62
1, 92603, Note_off_c, 0, 46, 59
1, 92738, Control_c, 0, 67, 113
1, 92783, Control_c, 0, 67, 112
1, 92798, Note_on_c, 0, 78, 61
1, 92802, Note_on_c, 0, 49, 41
1, 92806, Note_on_c, 0, 66, 49
1, 92815, Note_on_c, 0, 70, 49
1, 92818, Note_on_c, 0, 37, 42
1, 92888, Control_c, 0, 64, 77
1, 92902, Control_c, 0, 64, 72
1, 92914, Note_off_c, 0, 49, 57
1, 92917, Control_c, 0, 64, 84
1, 92932, Control_c, 0, 64, 127
1, 92962, Control_c, 0, 67, 113
1, 92984, Control_c, 0, 67, 112
1, 93000, Note_off_c, 0, 37, 58
1, 93070, Note_on_c, 0, 32, 54
1, 93075, Note_on_c, 0, 44, 53
1, 93088, Control_c, 0, 67, 113
1, 93111, Note_off_c, 0, 66, 47
1, 93117, Control_c, 0, 67, 113
1, 93125, Note_off_c, 0, 78, 59
1, 93132, Note_off_c, 0, 44, 60
1, 93147, Control_c, 0, 67, 114
1, 93149, Note_off_c, 0, 70, 59
1, 93162, Control_c, 0, 67, 114
1, 93176, Control_c, 0, 67, 115
1, 93191, Control_c, 0, 67, 115
1, 93197, Note_off_c, 0, 32, 60
1, 93206, Control_c, 0, 67, 116
1, 93221, Control_c, 0, 67, 116
1, 93236, Control_c, 0, 67, 117
1, 93250, Control_c, 0, 67, 117
1, 93280, Control_c, 0, 67, 118
1, 93295, Control_c, 0, 67, 118
1, 93308, Note_on_c, 0, 78, 71
1, 93319, Note_on_c, 0, 66, 57
1, 93319, Note_on_c, 0, 70, 51
1, 93325, Control_c, 0, 67, 118
1, 93327, Note_on_c, 0, 46, 47
1, 93332, Note_on_c, 0, 34, 46
1, 93355, Control_c, 0, 67, 118
1, 93439, Note_off_c, 0, 46, 53
1, 93477, Note_off_c, 0, 70, 53
1, 93483, Note_off_c, 0, 78, 50
1, 93516, Note_off_c, 0, 66, 34
1, 93547, Control_c, 0, 67, 118
1, 93666, Note_off_c, 0, 34, 32
1, 93667, Note_on_c, 0, 66, 49
1, 93668, Note_on_c, 0, 78, 65
1, 93673, Note_on_c, 0, 70, 46
1, 93678, Note_on_c, 0, 42, 51
1, 93686, Note_on_c, 0, 30, 52
1, 93718, Control_c, 0, 64, 86
1, 93733, Control_c, 0, 64, 60
1, 93748, Control_c, 0, 64, 0
1, 93763, Control_c, 0, 67, 118
1, 93778, Control_c, 0, 64, 29
1, 93793, Control_c, 0, 64, 58
1, 93805, Note_off_c, 0, 30, 63
1, 93807, Control_c, 0, 64, 73
1, 93822, Control_c, 0, 64, 122
1, 93826, Note_off_c, 0, 42, 64
1, 93837, Control_c, 0, 64, 127
1, 93866, Control_c, 0, 67, 118
1, 93896, Control_c, 0, 67, 117
1, 93955, Control_c, 0, 67, 117
1, 93999, Control_c, 0, 67, 116
1, 94000, Note_on_c, 0, 63, 43
1, 94014, Control_c, 0, 67, 116
1, 94016, Note_on_c, 0, 51, 48
1, 94043, Control_c, 0, 67, 115
1, 94118, Note_off_c, 0, 63, 38
1, 94118, Control_c, 0, 67, 115
1, 94120, Note_off_c, 0, 51, 62
1, 94148, Control_c, 0, 67, 114
1, 94207, Control_c, 0, 67, 114
1, 94220, Note_off_c, 0, 66, 54
1, 94234, Note_off_c, 0, 78, 57
1, 94235, Note_on_c, 0, 58, 59
1, 94240, Note_on_c, 0, 46, 56
1, 94247, Note_off_c, 0, 70, 60
1, 94266, Control_c, 0, 67, 113
1, 94285, Note_off_c, 0, 58, 57
1, 94369, Control_c, 0, 67, 114
1, 94377, Note_off_c, 0, 46, 61
1, 94414, Control_c, 0, 67, 113
1, 94482, Control_c, 0, 67, 113
1, 94511, Control_c, 0, 67, 112
1, 94533, Note_on_c, 0, 77, 66
1, 94538, Note_on_c, 0, 68, 51
1, 94541, Note_on_c, 0, 65, 53
1, 94547, Note_on_c, 0, 61, 48
1, 94554, Note_on_c, 0, 49, 45
1, 94615, Control_c, 0, 64, 92
1, 94630, Control_c, 0, 64, 61
1, 94645, Control_c, 0, 64, 30
1, 94655, Note_off_c, 0, 61, 61
1, 94660, Control_c, 0, 64, 0
1, 94674, Control_c, 0, 64, 38
1, 94674, Control_c, 0, 67, 112
1, 94689, Control_c, 0, 64, 64
1, 94704, Control_c, 0, 64, 83
1, 94704, Control_c, 0, 67, 111
1, 94719, Control_c, 0, 64, 127
1, 94734, Control_c, 0, 67, 111
1, 94748, Control_c, 0, 67, 110
1, 94751, Note_off_c, 0, 49, 58
1, 94763, Control_c, 0, 67, 109
1, 94778, Control_c, 0, 67, 108
1, 94792, Control_c, 0, 67, 107
1, 94804, Note_on_c, 0, 44, 56
1, 94807, Control_c, 0, 67, 107
1, 94815, Note_on_c, 0, 56, 49
1, 94822, Control_c, 0, 67, 106
1, 94837, Control_c, 0, 67, 106
1, 94866, Control_c, 0, 67, 106
1, 94926, Control_c, 0, 64, 85
1, 94926, Control_c, 0, 67, 107
1, 94936, Note_off_c, 0, 56, 59
1, 94941, Control_c, 0, 64, 63
1, 94956, Control_c, 0, 64, 50
1, 94970, Control_c, 0, 64, 55
1, 94984, Control_c, 0, 64, 66
1, 94999, Control_c, 0, 64, 84
1, 95014, Control_c, 0, 64, 127
1, 95044, Control_c, 0, 67, 106
1, 95065, Note_on_c, 0, 46, 52
1, 95078, Note_on_c, 0, 58, 46
1, 95101, Note_off_c, 0, 44, 51
1, 95125, Note_off_c, 0, 65, 58
1, 95132, Control_c, 0, 67, 107
1, 95143, Note_off_c, 0, 77, 30
1, 95150, Note_off_c, 0, 68, 53
1, 95185, Note_off_c, 0, 58, 57
1, 95191, Control_c, 0, 67, 107
1, 95214, Control_c, 0, 67, 108
1, 95229, Control_c, 0, 67, 108
1, 95260, Control_c, 0, 67, 109
1, 95272, Note_off_c, 0, 46, 34
1, 95275, Control_c, 0, 67, 109
1, 95289, Control_c, 0, 67, 110
1, 95349, Control_c, 0, 67, 109
1, 95430, Note_on_c, 0, 76, 56
1, 95438, Note_on_c, 0, 68, 42
1, 95446, Note_on_c, 0, 64, 43
1, 95450, Note_on_c, 0, 47, 46
1, 95454, Note_on_c, 0, 59, 41
1, 95482, Control_c, 0, 67, 110
1, 95511, Control_c, 0, 64, 81
1, 95511, Control_c, 0, 67, 110
1, 95526, Control_c, 0, 64, 60
1, 95541, Control_c, 0, 64, 25
1, 95556, Control_c, 0, 64, 0
1, 95570, Control_c, 0, 64, 14
1, 95570, Control_c, 0, 67, 110
1, 95585, Control_c, 0, 64, 54
1, 95597, Note_off_c, 0, 59, 59
1, 95600, Control_c, 0, 64, 72
1, 95614, Control_c, 0, 64, 103
1, 95614, Control_c, 0, 67, 109
1, 95629, Control_c, 0, 64, 127
1, 95629, Control_c, 0, 67, 110
1, 95662, Note_off_c, 0, 47, 62
1, 95689, Control_c, 0, 67, 109
1, 95734, Control_c, 0, 67, 109
1, 95749, Control_c, 0, 67, 108
1, 95763, Control_c, 0, 67, 108
1, 95778, Control_c, 0, 67, 107
1, 95817, Note_on_c, 0, 35, 50
1, 95817, Note_on_c, 0, 47, 57
1, 95823, Control_c, 0, 67, 107
1, 95880, Note_off_c, 0, 35, 62
1, 95889, Note_off_c, 0, 47, 61
1, 95900, Note_off_c, 0, 76, 41
1, 95941, Control_c, 0, 67, 107
1, 95968, Note_off_c, 0, 64, 31
1, 96029, Note_off_c, 0, 68, 53
1, 96073, Note_on_c, 0, 52, 55
1, 96075, Note_on_c, 0, 40, 59
1, 96112, Note_off_c, 0, 52, 62
1, 96127, Note_off_c, 0, 40, 61
1, 96345, Note_on_c, 0, 76, 65
1, 96351, Note_on_c, 0, 68, 51
1, 96354, Note_on_c, 0, 64, 51
1, 96367, Note_on_c, 0, 44, 49
1, 96367, Note_on_c, 0, 56, 47
1, 96394, Control_c, 0, 67, 107
1, 96409, Control_c, 0, 64, 114
1, 96424, Control_c, 0, 64, 75
1, 96438, Control_c, 0, 64, 64
1, 96453, Control_c, 0, 64, 66
1, 96468, Control_c, 0, 64, 88
1, 96477, Note_off_c, 0, 56, 60
1, 96483, Control_c, 0, 64, 127
1, 96485, Note_off_c, 0, 44, 60
1, 96512, Control_c, 0, 67, 107
1, 96527, Control_c, 0, 67, 107
1, 96542, Control_c, 0, 67, 107
1, 96594, Note_on_c, 0, 61, 66
1, 96604, Note_off_c, 0, 64, 58
1, 96610, Note_on_c, 0, 49, 62
1, 96616, Control_c, 0, 67, 107
1, 96626, Note_off_c, 0, 76, 57
1, 96631, Control_c, 0, 67, 107
1, 96661, Note_off_c, 0, 68, 61
1, 96677, Note_off_c, 0, 61, 61
1, 96705, Control_c, 0, 67, 108
1, 96740, Note_off_c, 0, 49, 61
1, 96757, Control_c, 0, 67, 108
1, 96786, Control_c, 0, 67, 109
1, 96831, Control_c, 0, 67, 109
1, 96845, Note_on_c, 0, 76, 73
1, 96848, Note_on_c, 0, 68, 56
1, 96855, Note_on_c, 0, 64, 62
1, 96856, Note_on_c, 0, 44, 54
1, 96856, Note_on_c, 0, 56, 54
1, 96861, Control_c, 0, 67, 110
1, 96891, Control_c, 0, 67, 109
1, 96906, Control_c, 0, 67, 110
1, 96949, Note_off_c, 0, 44, 54
1, 96962, Note_off_c, 0, 56, 35
1, 97002, Note_off_c, 0, 76, 56
1, 97006, Note_off_c, 0, 68, 54
1, 97042, Note_off_c, 0, 64, 34
1, 97099, Control_c, 0, 67, 109
1, 97177, Note_on_c, 0, 76, 67
1, 97179, Note_on_c, 0, 68, 48
1, 97180, Note_on_c, 0, 59, 45
1, 97182, Note_on_c, 0, 64, 59
1, 97185, Note_on_c, 0, 47, 53
1, 97232, Control_c, 0, 64, 97
1, 97247, Control_c, 0, 64, 69
1, 97247, Control_c, 0, 67, 110
1, 97261, Control_c, 0, 64, 50
1, 97276, Control_c, 0, 64, 36
1, 97276, Control_c, 0, 67, 109
1, 97291, Control_c, 0, 64, 47
1, 97305, Control_c, 0, 64, 65
1, 97320, Control_c, 0, 64, 87
1, 97335, Control_c, 0, 64, 127
1, 97345, Note_off_c, 0, 59, 51
1, 97447, Note_off_c, 0, 47, 62
1, 97470, Note_on_c, 0, 49, 60
1, 97477, Note_on_c, 0, 61, 57
1, 97522, Note_off_c, 0, 61, 57
1, 97576, Note_off_c, 0, 49, 59
1, 97640, Control_c, 0, 67, 109
1, 97670, Control_c, 0, 67, 108
1, 97680, Note_on_c, 0, 56, 55
1, 97684, Note_on_c, 0, 44, 56
1, 97699, Control_c, 0, 67, 108
1, 97722, Note_off_c, 0, 56, 60
1, 97756, Note_off_c, 0, 44, 59
1, 97832, Control_c, 0, 67, 107
1, 97922, Control_c, 0, 67, 107
1, 97933, Note_on_c, 0, 59, 52
1, 97936, Control_c, 0, 64, 96
1, 97940, Note_on_c, 0, 47, 49
1, 97951, Control_c, 0, 64, 65
1, 97966, Control_c, 0, 64, 36
1, 97981, Control_c, 0, 64, 18
1, 97981, Control_c, 0, 67, 106
1, 97996, Control_c, 0, 64, 50
1, 98010, Control_c, 0, 64, 69
1, 98025, Control_c, 0, 64, 92
1, 98026, Note_off_c, 0, 59, 63
1, 98040, Control_c, 0, 64, 127
1, 98059, Note_off_c, 0, 47, 61
1, 98084, Control_c, 0, 67, 106
1, 98114, Control_c, 0, 67, 105
1, 98143, Control_c, 0, 67, 105
1, 98173, Control_c, 0, 67, 104
1, 98187, Note_on_c, 0, 54, 54
1, 98189, Note_on_c, 0, 42, 47
1, 98210, Control_c, 0, 67, 104
1, 98270, Control_c, 0, 64, 88
1, 98284, Control_c, 0, 64, 62
1, 98296, Note_off_c, 0, 54, 61
1, 98299, Control_c, 0, 64, 48
1, 98314, Control_c, 0, 64, 59
1, 98314, Control_c, 0, 67, 104
1, 98329, Control_c, 0, 64, 72
1, 98343, Control_c, 0, 64, 102
1, 98358, Control_c, 0, 64, 127
1, 98432, Control_c, 0, 67, 105
1, 98438, Note_on_c, 0, 44, 42
1, 98440, Note_on_c, 0, 56, 47
1, 98442, Note_off_c, 0, 42, 62
1, 98478, Control_c, 0, 67, 105
1, 98492, Note_off_c, 0, 56, 59
1, 98508, Control_c, 0, 67, 106
1, 98566, Control_c, 0, 67, 106
1, 98703, Note_off_c, 0, 44, 35
1, 98761, Note_on_c, 0, 40, 42
1, 98761, Note_on_c, 0, 52, 45
1, 98774, Control_c, 0, 64, 107
1, 98789, Control_c, 0, 64, 72
1, 98804, Control_c, 0, 64, 51
1, 98819, Control_c, 0, 64, 44
1, 98819, Control_c, 0, 67, 106
1, 98833, Control_c, 0, 64, 57
1, 98848, Control_c, 0, 64, 71
1, 98857, Note_off_c, 0, 52, 63
1, 98863, Control_c, 0, 64, 102
1, 98877, Control_c, 0, 64, 127
1, 98880, Note_off_c, 0, 40, 62
1, 98922, Control_c, 0, 67, 105
1, 98974, Control_c, 0, 67, 105
1, 99019, Note_on_c, 0, 49, 50
1, 99035, Note_on_c, 0, 37, 44
1, 99075, Note_off_c, 0, 49, 59
1, 99102, Note_off_c, 0, 37, 61
1, 99163, Note_off_c, 0, 64, 54
1, 99236, Note_on_c, 0, 32, 53
1, 99238, Note_on_c, 0, 44, 51
1, 99240, Note_off_c, 0, 76, 34
1, 99255, Note_off_c, 0, 68, 60
1, 99279, Note_off_c, 0, 44, 61
1, 99281, Note_off_c, 0, 32, 61
1, 99493, Note_on_c, 0, 76, 64
1, 99499, Note_on_c, 0, 68, 51
1, 99500, Note_on_c, 0, 64, 52
1, 99510, Note_on_c, 0, 47, 48
1, 99516, Note_on_c, 0, 35, 46
1, 99537, Control_c, 0, 64, 112
1, 99552, Control_c, 0, 64, 70
1, 99567, Control_c, 0, 64, 50
1, 99582, Control_c, 0, 64, 44
1, 99597, Control_c, 0, 64, 60
1, 99612, Control_c, 0, 64, 83
1, 99616, Note_off_c, 0, 47, 61
1, 99627, Control_c, 0, 64, 127
1, 99645, Note_off_c, 0, 35, 63
1, 99757, Note_off_c, 0, 64, 52
1, 99767, Note_on_c, 0, 42, 60
1, 99773, Note_on_c, 0, 30, 54
1, 99781, Note_off_c, 0, 76, 54
1, 99792, Note_off_c, 0, 68, 56
1, 99843, Note_off_c, 0, 42, 63
1, 99915, Control_c, 0, 67, 105
1, 99975, Control_c, 0, 67, 106
1, 99989, Control_c, 0, 67, 106
1, 99994, Note_on_c, 0, 76, 69
1, 99996, Note_on_c, 0, 68, 53
1, 99999, Note_on_c, 0, 64, 62
1, 100005, Note_off_c, 0, 30, 44
1, 100011, Note_on_c, 0, 32, 51
1, 100020, Note_on_c, 0, 44, 41
1, 100050, Control_c, 0, 67, 107
1, 100078, Note_off_c, 0, 44, 43
1, 100153, Note_off_c, 0, 68, 51
1, 100177, Note_off_c, 0, 64, 35
1, 100178, Note_off_c, 0, 76, 35
1, 100256, Note_off_c, 0, 32, 52
1, 100330, Control_c, 0, 64, 109
1, 100332, Note_on_c, 0, 76, 62
1, 100340, Note_on_c, 0, 64, 52
1, 100342, Note_on_c, 0, 68, 51
1, 100345, Control_c, 0, 64, 73
1, 100351, Note_on_c, 0, 40, 48
1, 100354, Note_on_c, 0, 28, 48
1, 100360, Control_c, 0, 64, 52
1, 100375, Control_c, 0, 64, 0
1, 100390, Control_c, 0, 67, 107
1, 100420, Control_c, 0, 64, 52
1, 100420, Control_c, 0, 67, 107
1, 100428, Note_off_c, 0, 28, 64
1, 100434, Control_c, 0, 64, 74
1, 100441, Note_off_c, 0, 40, 59
1, 100449, Control_c, 0, 64, 110
1, 100471, Control_c, 0, 64, 127
1, 100640, Note_on_c, 0, 61, 61
1, 100662, Note_on_c, 0, 49, 57
1, 100664, Control_c, 0, 67, 106
1, 100726, Note_off_c, 0, 61, 62
1, 100753, Control_c, 0, 67, 106
1, 100769, Note_off_c, 0, 49, 61
1, 100800, Note_off_c, 0, 64, 51
1, 100811, Note_off_c, 0, 76, 35
1, 100888, Note_off_c, 0, 68, 62
1, 100888, Note_on_c, 0, 56, 58
1, 100894, Note_on_c, 0, 44, 63
1, 100965, Note_off_c, 0, 56, 55
1, 100966, Note_off_c, 0, 44, 58
1, 100991, Control_c, 0, 67, 106
1, 101139, Control_c, 0, 67, 106
1, 101196, Note_on_c, 0, 75, 70
1, 101218, Note_on_c, 0, 63, 51
1, 101220, Note_on_c, 0, 68, 54
1, 101232, Note_on_c, 0, 47, 52
1, 101232, Note_on_c, 0, 59, 46
1, 101235, Control_c, 0, 67, 105
1, 101280, Control_c, 0, 64, 88
1, 101294, Control_c, 0, 64, 63
1, 101309, Control_c, 0, 64, 35
1, 101324, Control_c, 0, 64, 0
1, 101324, Control_c, 0, 67, 105
1, 101339, Control_c, 0, 64, 41
1, 101354, Control_c, 0, 64, 66
1, 101354, Control_c, 0, 67, 104
1, 101368, Control_c, 0, 64, 87
1, 101368, Control_c, 0, 67, 104
1, 101378, Note_off_c, 0, 59, 62
1, 101383, Control_c, 0, 64, 127
1, 101442, Control_c, 0, 67, 103
1, 101514, Note_on_c, 0, 46, 56
1, 101521, Note_on_c, 0, 58, 51
1, 101524, Note_on_c, 0, 70, 64
1, 101561, Control_c, 0, 64, 99
1, 101561, Note_off_c, 0, 47, 33
1, 101576, Control_c, 0, 64, 64
1, 101576, Control_c, 0, 67, 103
1, 101582, Note_off_c, 0, 68, 35
1, 101591, Control_c, 0, 64, 29
1, 101606, Control_c, 0, 64, 0
1, 101621, Control_c, 0, 64, 48
1, 101636, Control_c, 0, 64, 70
1, 101651, Control_c, 0, 64, 108
1, 101666, Control_c, 0, 64, 127
1, 101675, Note_off_c, 0, 58, 51
1, 101695, Control_c, 0, 67, 102
1, 101706, Note_off_c, 0, 46, 63
1, 101740, Control_c, 0, 67, 102
1, 101770, Control_c, 0, 67, 101
1, 101784, Control_c, 0, 67, 101
1, 101821, Note_on_c, 0, 71, 57
1, 101829, Note_on_c, 0, 44, 49
1, 101835, Note_on_c, 0, 56, 55
1, 101844, Control_c, 0, 64, 74
1, 101856, Note_off_c, 0, 70, 56
1, 101858, Control_c, 0, 64, 40
1, 101873, Control_c, 0, 64, 0
1, 101873, Control_c, 0, 67, 101
1, 101888, Control_c, 0, 64, 23
1, 101902, Control_c, 0, 64, 57
1, 101902, Control_c, 0, 67, 102
1, 101911, Note_off_c, 0, 63, 34
1, 101917, Control_c, 0, 64, 74
1, 101918, Note_off_c, 0, 75, 47
1, 101921, Note_off_c, 0, 56, 57
1, 101932, Control_c, 0, 64, 107
1, 101955, Control_c, 0, 64, 127
1, 101984, Control_c, 0, 67, 102
1, 101992, Note_off_c, 0, 44, 62
1, 102117, Control_c, 0, 67, 103
1, 102162, Control_c, 0, 67, 103
1, 102177, Control_c, 0, 67, 104
1, 102206, Control_c, 0, 67, 104
1, 102250, Control_c, 0, 67, 105
1, 102265, Note_off_c, 0, 71, 32
1, 102271, Note_on_c, 0, 46, 39
1, 102277, Note_on_c, 0, 62, 46
1, 102284, Note_on_c, 0, 34, 43
1, 102295, Control_c, 0, 64, 85
1, 102309, Control_c, 0, 64, 63
1, 102309, Control_c, 0, 67, 105
1, 102324, Control_c, 0, 64, 25
1, 102339, Control_c, 0, 64, 0
1, 102384, Control_c, 0, 64, 29
1, 102399, Control_c, 0, 64, 59
1, 102414, Control_c, 0, 64, 72
1, 102421, Note_off_c, 0, 34, 62
1, 102429, Control_c, 0, 64, 98
1, 102444, Control_c, 0, 64, 127
1, 102449, Note_off_c, 0, 62, 61
1, 102461, Note_off_c, 0, 46, 60
1, 102504, Control_c, 0, 67, 105
1, 102763, Control_c, 0, 67, 105
1, 102786, Note_on_c, 0, 74, 49
1, 102789, Note_on_c, 0, 62, 39
1, 102794, Note_on_c, 0, 56, 37
1, 102882, Control_c, 0, 67, 106
1, 102911, Note_off_c, 0, 62, 59
1, 102934, Note_off_c, 0, 74, 58
1, 102953, Note_on_c, 0, 75, 55
1, 102956, Control_c, 0, 67, 106
1, 102971, Control_c, 0, 67, 107
1, 103054, Note_on_c, 0, 62, 48
1, 103061, Note_on_c, 0, 68, 44
1, 103074, Note_off_c, 0, 75, 60
1, 103080, Note_on_c, 0, 74, 58
1, 103089, Control_c, 0, 67, 107
1, 103104, Control_c, 0, 67, 108
1, 103144, Note_off_c, 0, 56, 35
1, 103163, Control_c, 0, 67, 108
1, 103189, Note_on_c, 0, 75, 74
1, 103195, Note_off_c, 0, 74, 56
1, 103285, Note_off_c, 0, 68, 0
1, 103323, Poly_aftertouch_c, 0, 68, 127
1, 103343, Note_on_c, 0, 77, 72
1, 103371, Control_c, 0, 64, 110
1, 103386, Control_c, 0, 64, 64
1, 103386, Note_off_c, 0, 75, 56
1, 103400, Control_c, 0, 64, 36
1, 103415, Control_c, 0, 64, 26
1, 103418, Poly_aftertouch_c, 0, 68, 0
1, 103427, Note_off_c, 0, 62, 16
1, 103430, Control_c, 0, 64, 52
1, 103430, Control_c, 0, 67, 108
1, 103452, Control_c, 0, 64, 72
1, 103467, Control_c, 0, 64, 127
1, 103467, Control_c, 0, 67, 107
1, 103511, Control_c, 0, 67, 107
1, 103526, Control_c, 0, 67, 106
1, 103529, Note_off_c, 0, 77, 60
1, 103541, Control_c, 0, 67, 105
1, 103600, Control_c, 0, 67, 105
1, 103636, Note_on_c, 0, 62, 41
1, 103639, Note_on_c, 0, 56, 50
1, 103642, Note_on_c, 0, 68, 53
1, 103642, Note_on_c, 0, 77, 72
1, 103645, Control_c, 0, 67, 105
1, 103660, Control_c, 0, 67, 106
1, 103689, Control_c, 0, 67, 106
1, 103704, Control_c, 0, 67, 107
1, 103719, Control_c, 0, 67, 107
1, 103734, Control_c, 0, 67, 108
1, 103755, Note_off_c, 0, 68, 62
1, 103784, Note_off_c, 0, 56, 35
1, 103793, Control_c, 0, 67, 107
1, 103798, Note_off_c, 0, 62, 53
1, 103821, Note_off_c, 0, 77, 62
1, 103852, Control_c, 0, 67, 107
1, 103881, Control_c, 0, 67, 106
1, 103901, Note_on_c, 0, 62, 38
1, 103901, Note_on_c, 0, 77, 71
1, 103907, Note_on_c, 0, 56, 54
1, 103907, Note_on_c, 0, 53, 55
1, 103911, Control_c, 0, 67, 106
1, 103940, Note_off_c, 0, 62, 64
1, 103979, Note_off_c, 0, 56, 55
1, 103990, Note_off_c, 0, 53, 61
1, 104045, Note_off_c, 0, 77, 54
1, 104178, Control_c, 0, 67, 105
1, 104245, Control_c, 0, 67, 105
1, 104257, Note_on_c, 0, 47, 59
1, 104257, Note_on_c, 0, 77, 70
1, 104319, Control_c, 0, 64, 88
1, 104334, Control_c, 0, 64, 63
1, 104349, Control_c, 0, 64, 54
1, 104364, Control_c, 0, 64, 64
1, 104378, Control_c, 0, 64, 87
1, 104392, Note_off_c, 0, 47, 63
1, 104393, Control_c, 0, 64, 127
1, 104393, Control_c, 0, 67, 104
1, 104408, Control_c, 0, 67, 104
1, 104468, Control_c, 0, 67, 103
1, 104555, Note_off_c, 0, 77, 61
1, 104566, Note_on_c, 0, 78, 71
1, 104568, Note_on_c, 0, 68, 49
1, 104569, Note_on_c, 0, 63, 48
1, 104572, Note_on_c, 0, 56, 57
1, 104586, Control_c, 0, 67, 104
1, 104630, Note_off_c, 0, 68, 61
1, 104660, Note_off_c, 0, 56, 61
1, 104675, Control_c, 0, 67, 104
1, 104677, Note_on_c, 0, 77, 79
1, 104684, Note_off_c, 0, 63, 51
1, 104704, Control_c, 0, 67, 105
1, 104712, Note_off_c, 0, 78, 56
1, 104734, Control_c, 0, 67, 105
1, 104764, Control_c, 0, 67, 106
1, 104793, Control_c, 0, 67, 106
1, 104796, Note_on_c, 0, 75, 76
1, 104798, Note_on_c, 0, 56, 54
1, 104801, Note_on_c, 0, 63, 37
1, 104805, Note_off_c, 0, 77, 60
1, 104809, Note_on_c, 0, 53, 56
1, 104837, Note_off_c, 0, 63, 55
1, 104846, Note_off_c, 0, 56, 57
1, 104863, Note_off_c, 0, 53, 60
1, 104903, Note_on_c, 0, 68, 81
1, 104909, Note_off_c, 0, 75, 58
1, 104995, Control_c, 0, 67, 107
1, 105123, Note_on_c, 0, 41, 52
1, 105123, Note_on_c, 0, 83, 71
1, 105142, Control_c, 0, 64, 105
1, 105157, Control_c, 0, 64, 68
1, 105157, Control_c, 0, 67, 107
1, 105172, Control_c, 0, 64, 41
1, 105186, Control_c, 0, 64, 0
1, 105201, Control_c, 0, 64, 17
1, 105201, Control_c, 0, 67, 108
1, 105216, Control_c, 0, 64, 55
1, 105231, Note_off_c, 0, 68, 51
1, 105231, Control_c, 0, 64, 80
1, 105231, Control_c, 0, 67, 108
1, 105246, Control_c, 0, 64, 127
1, 105247, Note_off_c, 0, 41, 64
1, 105305, Control_c, 0, 67, 107
1, 105320, Control_c, 0, 67, 107
1, 105379, Control_c, 0, 67, 106
1, 105424, Control_c, 0, 67, 106
1, 105439, Control_c, 0, 67, 105
1, 105469, Control_c, 0, 67, 106
1, 105478, Note_on_c, 0, 63, 46
1, 105485, Note_on_c, 0, 68, 49
1, 105499, Control_c, 0, 67, 105
1, 105500, Note_on_c, 0, 56, 49
1, 105587, Control_c, 0, 67, 105
1, 105588, Note_off_c, 0, 56, 50
1, 105615, Note_off_c, 0, 68, 34
1, 105617, Note_off_c, 0, 63, 54
1, 105648, Control_c, 0, 67, 104
1, 105663, Control_c, 0, 67, 104
1, 105699, Control_c, 0, 67, 103
1, 105714, Note_off_c, 0, 83, 54
1, 105744, Control_c, 0, 67, 102
1, 105758, Control_c, 0, 67, 101
1, 105780, Note_on_c, 0, 56, 36
1, 105788, Control_c, 0, 67, 100
1, 105792, Note_on_c, 0, 63, 42
1, 105799, Note_on_c, 0, 53, 47
1, 105803, Control_c, 0, 67, 100
1, 105818, Control_c, 0, 67, 98
1, 105833, Control_c, 0, 67, 93
1, 105846, Note_off_c, 0, 63, 56
1, 105848, Control_c, 0, 67, 84
1, 105863, Control_c, 0, 67, 75
1, 105876, Note_off_c, 0, 53, 55
1, 105877, Control_c, 0, 67, 67
1, 105889, Note_off_c, 0, 56, 58
1, 105892, Control_c, 0, 67, 61
1, 105907, Control_c, 0, 67, 55
1, 105922, Control_c, 0, 67, 48
1, 105937, Control_c, 0, 67, 40
1, 105951, Control_c, 0, 67, 30
1, 105966, Control_c, 0, 67, 20
1, 105981, Control_c, 0, 67, 11
1, 105996, Control_c, 0, 67, 0
1, 106187, Note_on_c, 0, 46, 60
1, 106247, Control_c, 0, 64, 70
1, 106262, Control_c, 0, 64, 50
1, 106277, Control_c, 0, 64, 41
1, 106292, Control_c, 0, 64, 57
1, 106307, Control_c, 0, 64, 74
1, 106322, Control_c, 0, 64, 127
1, 106352, Note_off_c, 0, 46, 64
1, 106539, Note_on_c, 0, 74, 56
1, 106548, Note_on_c, 0, 62, 53
1, 106575, Note_on_c, 0, 56, 40
1, 106651, Note_off_c, 0, 62, 58
1, 106676, Note_off_c, 0, 74, 60
1, 106680, Note_on_c, 0, 75, 69
1, 106789, Note_on_c, 0, 74, 74
1, 106790, Note_on_c, 0, 68, 60
1, 106792, Note_on_c, 0, 62, 53
1, 106792, Note_off_c, 0, 75, 60
1, 106820, Note_off_c, 0, 68, 67
1, 106841, Note_off_c, 0, 62, 56
1, 106849, Note_off_c, 0, 56, 58
1, 106891, Note_on_c, 0, 75, 82
1, 106907, Note_off_c, 0, 74, 54
1, 107043, Note_on_c, 0, 77, 79
1, 107054, Note_on_c, 0, 47, 65
1, 107077, Note_off_c, 0, 75, 60
1, 107098, Control_c, 0, 64, 112
1, 107113, Control_c, 0, 64, 67
1, 107128, Control_c, 0, 64, 35
1, 107142, Control_c, 0, 64, 11
1, 107151, Note_off_c, 0, 47, 63
1, 107157, Control_c, 0, 64, 56
1, 107172, Control_c, 0, 64, 81
1, 107187, Control_c, 0, 64, 127
1, 107228, Note_off_c, 0, 77, 60
1, 107328, Note_on_c, 0, 77, 84
1, 107335, Note_on_c, 0, 63, 59
1, 107342, Note_on_c, 0, 68, 58
1, 107347, Note_on_c, 0, 56, 55
1, 107443, Note_off_c, 0, 56, 61
1, 107466, Note_off_c, 0, 68, 63
1, 107491, Note_off_c, 0, 63, 60
1, 107498, Note_off_c, 0, 77, 64
1, 107564, Note_on_c, 0, 77, 80
1, 107571, Note_on_c, 0, 63, 56
1, 107574, Note_on_c, 0, 56, 64
1, 107583, Note_on_c, 0, 53, 68
1, 107633, Note_off_c, 0, 63, 62
1, 107655, Note_off_c, 0, 56, 56
1, 107670, Note_off_c, 0, 53, 62
1, 107733, Note_off_c, 0, 77, 56
1, 107855, Note_on_c, 0, 48, 67
1, 107857, Note_on_c, 0, 77, 78
1, 107907, Control_c, 0, 64, 93
1, 107921, Control_c, 0, 64, 64
1, 107936, Control_c, 0, 64, 52
1, 107958, Control_c, 0, 64, 63
1, 107973, Control_c, 0, 64, 97
1, 107988, Control_c, 0, 64, 127
1, 108004, Note_off_c, 0, 48, 62
1, 108154, Note_on_c, 0, 78, 78
1, 108159, Note_on_c, 0, 57, 67
1, 108161, Note_off_c, 0, 77, 59
1, 108162, Note_on_c, 0, 69, 63
1, 108170, Note_on_c, 0, 63, 55
1, 108256, Note_off_c, 0, 57, 61
1, 108278, Note_on_c, 0, 77, 85
1, 108291, Note_off_c, 0, 69, 53
1, 108292, Note_off_c, 0, 63, 56
1, 108314, Note_off_c, 0, 78, 63
1, 108408, Note_on_c, 0, 57, 55
1, 108411, Note_on_c, 0, 75, 84
1, 108417, Note_on_c, 0, 63, 66
1, 108419, Note_on_c, 0, 53, 69
1, 108436, Note_off_c, 0, 77, 62
1, 108470, Note_off_c, 0, 63, 63
1, 108476, Note_off_c, 0, 57, 63
1, 108501, Note_off_c, 0, 53, 63
1, 108520, Note_on_c, 0, 69, 83
1, 108573, Note_off_c, 0, 75, 63
1, 108778, Note_on_c, 0, 84, 83
1, 108779, Note_on_c, 0, 41, 68
1, 108811, Control_c, 0, 64, 108
1, 108826, Control_c, 0, 64, 66
1, 108841, Control_c, 0, 64, 30
1, 108856, Control_c, 0, 64, 0
1, 108871, Control_c, 0, 64, 46
1, 108886, Control_c, 0, 64, 72
1, 108900, Control_c, 0, 64, 127
1, 108917, Note_off_c, 0, 41, 64
1, 108936, Note_off_c, 0, 69, 58
1, 109123, Note_on_c, 0, 57, 61
1, 109138, Note_on_c, 0, 69, 54
1, 109170, Note_off_c, 0, 57, 0
1, 109170, Note_on_c, 0, 57, 32
1, 109237, Note_off_c, 0, 57, 62
1, 109310, Note_off_c, 0, 69, 60
1, 109401, Note_on_c, 0, 53, 72
1, 109405, Note_on_c, 0, 57, 66
1, 109410, Note_off_c, 0, 84, 39
1, 109411, Note_on_c, 0, 63, 72
1, 109502, Note_off_c, 0, 57, 64
1, 109506, Note_off_c, 0, 63, 62
1, 109511, Note_off_c, 0, 53, 61
1, 109807, Note_on_c, 0, 82, 86
1, 109821, Note_on_c, 0, 46, 77
1, 109872, Control_c, 0, 64, 87
1, 109887, Control_c, 0, 64, 52
1, 109902, Control_c, 0, 64, 0
1, 109916, Control_c, 0, 64, 38
1, 109931, Control_c, 0, 64, 74
1, 109946, Control_c, 0, 64, 127
1, 109950, Note_off_c, 0, 46, 65
1, 110102, Note_on_c, 0, 68, 72
1, 110107, Note_on_c, 0, 58, 62
1, 110118, Note_on_c, 0, 62, 53
1, 110218, Note_off_c, 0, 68, 59
1, 110245, Note_off_c, 0, 58, 61
1, 110251, Note_off_c, 0, 62, 61
1, 110360, Note_on_c, 0, 53, 70
1, 110369, Note_on_c, 0, 58, 71
1, 110369, Note_on_c, 0, 62, 68
1, 110394, Note_off_c, 0, 62, 68
1, 110405, Note_off_c, 0, 58, 63
1, 110406, Note_on_c, 0, 56, 29
1, 110426, Note_off_c, 0, 53, 66
1, 110443, Note_off_c, 0, 56, 42
1, 110635, Note_on_c, 0, 79, 76
1, 110639, Note_on_c, 0, 73, 60
1, 110659, Note_on_c, 0, 39, 78
1, 110688, Note_off_c, 0, 82, 63
1, 110695, Control_c, 0, 64, 72
1, 110710, Control_c, 0, 64, 38
1, 110724, Control_c, 0, 64, 50
1, 110739, Control_c, 0, 64, 81
1, 110754, Control_c, 0, 64, 127
1, 110762, Note_off_c, 0, 39, 63
1, 110787, Note_off_c, 0, 79, 64
1, 110790, Note_on_c, 0, 80, 76
1, 110852, Note_on_c, 0, 79, 71
1, 110856, Note_off_c, 0, 80, 57
1, 110918, Note_off_c, 0, 79, 63
1, 110919, Note_on_c, 0, 80, 64
1, 110960, Note_on_c, 0, 58, 69
1, 110966, Note_on_c, 0, 67, 67
1, 110970, Note_on_c, 0, 61, 60
1, 110985, Note_on_c, 0, 79, 69
1, 110996, Note_off_c, 0, 80, 55
1, 111043, Note_on_c, 0, 80, 66
1, 111051, Note_off_c, 0, 79, 64
1, 111076, Note_off_c, 0, 67, 59
1, 111094, Note_off_c, 0, 58, 57
1, 111097, Note_off_c, 0, 61, 56
1, 111100, Note_on_c, 0, 79, 68
1, 111106, Note_off_c, 0, 80, 62
1, 111144, Poly_aftertouch_c, 0, 80, 0
1, 111151, Note_on_c, 0, 80, 67
1, 111154, Note_off_c, 0, 79, 63
1, 111204, Note_off_c, 0, 80, 59
1, 111206, Note_on_c, 0, 79, 55
1, 111240, Note_on_c, 0, 80, 74
1, 111241, Note_on_c, 0, 58, 66
1, 111243, Note_on_c, 0, 61, 59
1, 111246, Note_on_c, 0, 51, 68
1, 111255, Note_off_c, 0, 79, 61
1, 111286, Note_on_c, 0, 79, 68
1, 111314, Note_off_c, 0, 61, 62
1, 111318, Note_off_c, 0, 58, 60
1, 111332, Note_off_c, 0, 80, 61
1, 111351, Note_off_c, 0, 51, 62
1, 111395, Note_on_c, 0, 77, 87
1, 111413, Note_off_c, 0, 79, 63
1, 111437, Note_off_c, 0, 73, 46
1, 111469, Note_on_c, 0, 79, 80
1, 111482, Note_off_c, 0, 77, 64
1, 111657, Note_on_c, 0, 82, 81
1, 111664, Note_on_c, 0, 44, 65
1, 111669, Note_on_c, 0, 73, 68
1, 111698, Note_off_c, 0, 79, 62
1, 111732, Control_c, 0, 64, 67
1, 111747, Control_c, 0, 64, 0
1, 111777, Control_c, 0, 64, 55
1, 111792, Control_c, 0, 64, 87
1, 111807, Note_off_c, 0, 44, 64
1, 111807, Control_c, 0, 64, 127
1, 111874, Note_off_c, 0, 73, 58
1, 111968, Note_on_c, 0, 72, 69
1, 111978, Note_on_c, 0, 80, 78
1, 111982, Note_on_c, 0, 63, 55
1, 111985, Note_on_c, 0, 66, 58
1, 111989, Note_on_c, 0, 56, 58
1, 112050, Note_off_c, 0, 63, 61
1, 112051, Note_off_c, 0, 82, 57
1, 112073, Note_off_c, 0, 66, 53
1, 112079, Note_off_c, 0, 56, 62
1, 112110, Note_on_c, 0, 75, 85
1, 112120, Note_off_c, 0, 80, 62
1, 112230, Note_on_c, 0, 60, 74
1, 112231, Note_on_c, 0, 56, 66
1, 112233, Note_on_c, 0, 80, 87
1, 112238, Note_off_c, 0, 75, 64
1, 112241, Note_on_c, 0, 51, 65
1, 112275, Note_off_c, 0, 60, 65
1, 112295, Note_off_c, 0, 56, 63
1, 112309, Note_off_c, 0, 51, 64
1, 112334, Note_on_c, 0, 78, 89
1, 112362, Note_off_c, 0, 80, 64
1, 112431, Note_off_c, 0, 78, 60
1, 112500, Note_on_c, 0, 78, 81
1, 112506, Note_on_c, 0, 75, 78
1, 112507, Note_on_c, 0, 37, 73
1, 112538, Note_off_c, 0, 72, 61
1, 112541, Control_c, 0, 64, 64
1, 112549, Note_on_c, 0, 39, 39
1, 112556, Control_c, 0, 64, 0
1, 112570, Control_c, 0, 64, 35
1, 112572, Note_off_c, 0, 37, 64
1, 112585, Control_c, 0, 64, 69
1, 112586, Note_off_c, 0, 39, 33
1, 112600, Control_c, 0, 64, 127
1, 112766, Note_on_c, 0, 65, 63
1, 112769, Note_off_c, 0, 75, 61
1, 112771, Note_on_c, 0, 61, 60
1, 112771, Note_on_c, 0, 73, 77
1, 112775, Note_on_c, 0, 77, 77
1, 112778, Note_on_c, 0, 56, 60
1, 112839, Note_off_c, 0, 78, 56
1, 112877, Note_on_c, 0, 68, 86
1, 112879, Note_off_c, 0, 56, 58
1, 112881, Note_off_c, 0, 61, 57
1, 112883, Note_off_c, 0, 73, 58
1, 112921, Note_off_c, 0, 65, 31
1, 112989, Note_on_c, 0, 73, 82
1, 112990, Note_on_c, 0, 53, 69
1, 112996, Note_on_c, 0, 56, 72
1, 113003, Note_on_c, 0, 61, 59
1, 113029, Note_off_c, 0, 61, 62
1, 113035, Note_off_c, 0, 56, 59
1, 113040, Note_off_c, 0, 68, 64
1, 113041, Note_off_c, 0, 73, 65
1, 113044, Note_off_c, 0, 53, 64
1, 113082, Note_on_c, 0, 72, 83
1, 113149, Note_off_c, 0, 72, 62
1, 113286, Note_on_c, 0, 42, 72
1, 113288, Note_on_c, 0, 80, 79
1, 113295, Note_on_c, 0, 72, 72
1, 113305, Control_c, 0, 64, 83
1, 113319, Control_c, 0, 64, 49
1, 113334, Control_c, 0, 64, 0
1, 113342, Note_off_c, 0, 77, 59
1, 113349, Control_c, 0, 64, 49
1, 113364, Control_c, 0, 64, 73
1, 113379, Control_c, 0, 64, 127
1, 113390, Note_off_c, 0, 42, 64
1, 113403, Note_off_c, 0, 72, 62
1, 113556, Note_on_c, 0, 78, 82
1, 113558, Note_on_c, 0, 70, 80
1, 113569, Note_on_c, 0, 58, 60
1, 113572, Note_on_c, 0, 65, 55
1, 113575, Note_on_c, 0, 61, 60
1, 113589, Note_on_c, 0, 64, 57
1, 113597, Note_off_c, 0, 80, 62
1, 113653, Note_off_c, 0, 64, 0
1, 113667, Note_off_c, 0, 58, 61
1, 113670, Note_off_c, 0, 61, 59
1, 113688, Note_on_c, 0, 73, 85
1, 113689, Poly_aftertouch_c, 0, 64, 127
1, 113699, Note_off_c, 0, 78, 60
1, 113717, Note_off_c, 0, 65, 60
1, 113730, Poly_aftertouch_c, 0, 64, 0
1, 113802, Note_on_c, 0, 78, 89
1, 113804, Note_on_c, 0, 54, 73
1, 113804, Note_on_c, 0, 61, 66
1, 113810, Note_on_c, 0, 58, 62
1, 113825, Note_off_c, 0, 73, 62
1, 113839, Note_off_c, 0, 61, 65
1, 113842, Note_off_c, 0, 58, 64
1, 113863, Note_off_c, 0, 54, 64
1, 113908, Note_on_c, 0, 77, 85
1, 113969, Note_off_c, 0, 70, 59
1, 113979, Note_off_c, 0, 78, 55
1, 114018, Note_off_c, 0, 77, 61
1, 114095, Note_on_c, 0, 77, 81
1, 114098, Note_on_c, 0, 70, 76
1, 114099, Note_on_c, 0, 36, 67
1, 114127, Control_c, 0, 64, 96
1, 114141, Control_c, 0, 64, 57
1, 114156, Control_c, 0, 64, 0
1, 114186, Control_c, 0, 64, 60
1, 114197, Note_off_c, 0, 36, 64
1, 114201, Control_c, 0, 64, 98
1, 114215, Control_c, 0, 64, 127
1, 114287, Note_off_c, 0, 70, 51
1, 114382, Note_on_c, 0, 75, 79
1, 114382, Note_on_c, 0, 72, 72
1, 114402, Note_on_c, 0, 63, 68
1, 114421, Note_off_c, 0, 77, 56
1, 114426, Note_on_c, 0, 54, 58
1, 114508, Note_off_c, 0, 72, 59
1, 114534, Note_on_c, 0, 73, 78
1, 114537, Note_on_c, 0, 77, 79
1, 114556, Note_off_c, 0, 75, 61
1, 114586, Note_off_c, 0, 63, 61
1, 114627, Note_off_c, 0, 73, 62
1, 114667, Note_on_c, 0, 70, 78
1, 114668, Note_off_c, 0, 54, 64
1, 114671, Note_on_c, 0, 80, 77
1, 114672, Note_off_c, 0, 77, 61
1, 114783, Note_off_c, 0, 70, 0
1, 114798, Note_on_c, 0, 78, 82
1, 114804, Note_on_c, 0, 72, 74
1, 114820, Poly_aftertouch_c, 0, 70, 127
1, 114825, Note_off_c, 0, 80, 62
1, 114839, Poly_aftertouch_c, 0, 70, 0
1, 114854, Note_off_c, 0, 72, 61
1, 114871, Poly_aftertouch_c, 0, 70, 0
1, 114977, Note_on_c, 0, 70, 40
1, 115001, Note_off_c, 0, 70, 57
1, 115051, Note_on_c, 0, 69, 70
1, 115073, Note_on_c, 0, 41, 47
1, 115075, Note_on_c, 0, 63, 63
1, 115083, Control_c, 0, 64, 118
1, 115098, Control_c, 0, 64, 63
1, 115112, Control_c, 0, 64, 0
1, 115142, Note_off_c, 0, 78, 60
1, 115157, Control_c, 0, 64, 49
1, 115172, Control_c, 0, 64, 69
1, 115175, Note_off_c, 0, 41, 64
1, 115187, Control_c, 0, 64, 95
1, 115202, Control_c, 0, 64, 127
1, 115235, Note_off_c, 0, 63, 57
1, 115279, Note_off_c, 0, 69, 59
1, 115384, Note_on_c, 0, 63, 50
1, 115401, Note_on_c, 0, 66, 52
1, 115405, Note_on_c, 0, 72, 55
1, 115435, Note_on_c, 0, 69, 40
1, 115524, Note_off_c, 0, 63, 52
1, 115525, Note_off_c, 0, 69, 0
1, 115539, Note_on_c, 0, 53, 64
1, 115539, Note_on_c, 0, 73, 71
1, 115545, Note_off_c, 0, 72, 56
1, 115547, Note_on_c, 0, 69, 14
1, 115604, Note_off_c, 0, 53, 46
1, 115640, Note_off_c, 0, 73, 52
1, 115643, Note_off_c, 0, 69, 0
1, 115643, Note_on_c, 0, 69, 11
1, 115657, Note_on_c, 0, 63, 62
1, 115667, Note_on_c, 0, 72, 77
1, 115764, Note_on_c, 0, 73, 81
1, 115771, Note_on_c, 0, 60, 56
1, 115849, Note_off_c, 0, 63, 40
1, 115862, Note_off_c, 0, 66, 41
1, 115875, Note_off_c, 0, 69, 40
1, 115899, Note_on_c, 0, 75, 75
1, 115902, Note_off_c, 0, 72, 25
1, 115914, Note_on_c, 0, 58, 54
1, 116011, Control_c, 0, 64, 79
1, 116025, Note_off_c, 0, 73, 27
1, 116026, Control_c, 0, 64, 45
1, 116041, Control_c, 0, 64, 0
1, 116060, Note_off_c, 0, 60, 55
1, 116085, Control_c, 0, 64, 51
1, 116100, Control_c, 0, 64, 74
1, 116115, Control_c, 0, 64, 127
1, 116118, Note_on_c, 0, 65, 60
1, 116138, Note_off_c, 0, 58, 63
1, 116290, Note_off_c, 0, 65, 0
1, 116319, Note_on_c, 0, 58, 54
1, 116321, Note_on_c, 0, 73, 69
1, 116327, Poly_aftertouch_c, 0, 65, 127
1, 116332, Note_on_c, 0, 70, 62
1, 116357, Note_off_c, 0, 75, 59
1, 116393, Note_off_c, 0, 58, 57
1, 116395, Note_off_c, 0, 70, 48
1, 116400, Poly_aftertouch_c, 0, 65, 0
1, 116437, Note_off_c, 0, 73, 56
1, 116605, Note_on_c, 0, 73, 57
1, 116611, Control_c, 0, 64, 89
1, 116617, Note_on_c, 0, 58, 44
1, 116618, Note_on_c, 0, 65, 55
1, 116621, Note_on_c, 0, 70, 59
1, 116626, Control_c, 0, 64, 58
1, 116641, Control_c, 0, 64, 37
1, 116655, Control_c, 0, 64, 51
1, 116670, Control_c, 0, 64, 70
1, 116685, Control_c, 0, 64, 116
1, 116695, Note_off_c, 0, 65, 53
1, 116700, Control_c, 0, 64, 127
1, 116763, Note_off_c, 0, 73, 56
1, 116769, Note_off_c, 0, 58, 57
1, 116780, Note_off_c, 0, 70, 50
1, 116865, Note_on_c, 0, 64, 58
1, 116871, Note_on_c, 0, 67, 66
1, 116874, Note_on_c, 0, 70, 52
1, 116884, Note_on_c, 0, 73, 66
1, 116961, Note_off_c, 0, 73, 62
1, 116979, Note_off_c, 0, 64, 35
1, 116990, Note_off_c, 0, 70, 0
1, 116990, Note_on_c, 0, 70, 11
1, 116996, Note_on_c, 0, 54, 67
1, 117003, Note_on_c, 0, 75, 66
1, 117004, Note_off_c, 0, 67, 0
1, 117004, Note_on_c, 0, 67, 9
1, 117005, Note_on_c, 0, 72, 72
1, 117026, Note_off_c, 0, 70, 51
1, 117073, Note_off_c, 0, 54, 62
1, 117092, Note_off_c, 0, 75, 55
1, 117103, Note_on_c, 0, 73, 76
1, 117106, Note_on_c, 0, 64, 69
1, 117107, Note_on_c, 0, 70, 82
1, 117110, Note_off_c, 0, 72, 61
1, 117122, Note_off_c, 0, 67, 0
1, 117122, Note_on_c, 0, 67, 3
1, 117202, Note_on_c, 0, 75, 86
1, 117206, Note_on_c, 0, 63, 71
1, 117207, Note_on_c, 0, 72, 78
1, 117216, Note_off_c, 0, 70, 59
1, 117295, Note_off_c, 0, 75, 63
1, 117326, Note_off_c, 0, 64, 34
1, 117331, Note_off_c, 0, 73, 43
1, 117342, Note_off_c, 0, 67, 47
1, 117372, Note_on_c, 0, 70, 75
1, 117374, Note_on_c, 0, 76, 80
1, 117378, Note_on_c, 0, 61, 72
1, 117380, Note_off_c, 0, 72, 58
1, 117404, Control_c, 0, 64, 114
1, 117419, Control_c, 0, 64, 69
1, 117433, Control_c, 0, 64, 36
1, 117448, Control_c, 0, 64, 0
1, 117477, Control_c, 0, 64, 29
1, 117485, Note_off_c, 0, 63, 59
1, 117492, Control_c, 0, 64, 62
1, 117507, Control_c, 0, 64, 80
1, 117522, Control_c, 0, 64, 127
1, 117536, Note_off_c, 0, 70, 60
1, 117585, Note_on_c, 0, 66, 74
1, 117787, Note_off_c, 0, 61, 51
1, 117819, Note_on_c, 0, 70, 72
1, 117820, Note_on_c, 0, 75, 76
1, 117826, Control_c, 0, 64, 84
1, 117828, Note_on_c, 0, 60, 65
1, 117841, Control_c, 0, 64, 59
1, 117856, Control_c, 0, 64, 0
1, 117889, Note_off_c, 0, 66, 36
1, 117895, Note_off_c, 0, 76, 60
1, 117901, Control_c, 0, 64, 52
1, 117915, Control_c, 0, 64, 70
1, 117930, Control_c, 0, 64, 102
1, 117945, Control_c, 0, 64, 127
1, 117962, Note_off_c, 0, 60, 63
1, 118005, Note_off_c, 0, 70, 57
1, 118013, Note_off_c, 0, 75, 58
1, 118137, Note_on_c, 0, 75, 75
1, 118147, Note_on_c, 0, 63, 62
1, 118150, Note_on_c, 0, 60, 59
1, 118152, Control_c, 0, 64, 69
1, 118159, Note_on_c, 0, 70, 54
1, 118167, Control_c, 0, 64, 44
1, 118182, Control_c, 0, 64, 0
1, 118212, Control_c, 0, 64, 55
1, 118226, Control_c, 0, 64, 79
1, 118232, Note_off_c, 0, 63, 61
1, 118241, Control_c, 0, 64, 127
1, 118299, Note_off_c, 0, 60, 55
1, 118314, Note_off_c, 0, 70, 60
1, 118341, Note_off_c, 0, 75, 64
1, 118515, Note_on_c, 0, 75, 64
1, 118645, Note_on_c, 0, 77, 67
1, 118652, Note_off_c, 0, 75, 58
1, 118724, Control_c, 0, 64, 101
1, 118738, Control_c, 0, 64, 88
1, 118753, Control_c, 0, 64, 80
1, 118768, Control_c, 0, 64, 74
1, 118773, Note_on_c, 0, 75, 71
1, 118779, Note_off_c, 0, 77, 60
1, 118782, Control_c, 0, 64, 71
1, 118797, Control_c, 0, 64, 68
1, 118812, Control_c, 0, 64, 66
1, 118827, Control_c, 0, 64, 63
1, 118842, Control_c, 0, 64, 60
1, 118856, Control_c, 0, 64, 59
1, 118871, Control_c, 0, 64, 58
1, 118886, Control_c, 0, 64, 56
1, 118898, Note_on_c, 0, 77, 74
1, 118901, Control_c, 0, 64, 53
1, 118916, Control_c, 0, 64, 50
1, 118931, Control_c, 0, 64, 47
1, 118946, Control_c, 0, 64, 42
1, 118958, Note_off_c, 0, 75, 54
1, 118961, Control_c, 0, 64, 38
1, 118976, Control_c, 0, 64, 27
1, 118991, Control_c, 0, 64, 0
1, 119113, Note_on_c, 0, 78, 66
1, 119185, Note_off_c, 0, 77, 57
1, 119280, Control_c, 0, 64, 29
1, 119295, Control_c, 0, 64, 49
1, 119310, Control_c, 0, 64, 59
1, 119325, Control_c, 0, 64, 65
1, 119340, Control_c, 0, 64, 71
1, 119354, Control_c, 0, 64, 83
1, 119357, Note_off_c, 0, 78, 60
1, 119369, Control_c, 0, 64, 127
1, 119553, Note_on_c, 0, 78, 70
1, 119757, Note_off_c, 0, 78, 59
1, 119892, Note_on_c, 0, 78, 73
1, 120033, Note_off_c, 0, 78, 57
1, 120375, Note_on_c, 0, 78, 59
1, 120636, Control_c, 0, 64, 120
1, 120651, Control_c, 0, 64, 106
1, 120666, Control_c, 0, 64, 102
1, 120688, Control_c, 0, 64, 100
1, 120703, Control_c, 0, 64, 98
1, 120718, Control_c, 0, 64, 93
1, 120733, Control_c, 0, 64, 88
1, 120748, Control_c, 0, 64, 84
1, 120762, Control_c, 0, 64, 81
1, 120777, Control_c, 0, 64, 79
1, 120792, Control_c, 0, 64, 78
1, 120808, Control_c, 0, 64, 76
1, 120823, Control_c, 0, 64, 75
1, 120838, Control_c, 0, 64, 73
1, 120852, Control_c, 0, 64, 71
1, 120867, Control_c, 0, 64, 70
1, 120882, Control_c, 0, 64, 68
1, 120897, Control_c, 0, 64, 67
1, 120912, Control_c, 0, 64, 66
1, 120926, Control_c, 0, 64, 65
1, 120941, Control_c, 0, 64, 64
1, 120956, Control_c, 0, 64, 64
1, 120971, Control_c, 0, 64, 63
1, 120985, Control_c, 0, 64, 63
1, 121000, Control_c, 0, 64, 61
1, 121015, Control_c, 0, 64, 60
1, 121030, Control_c, 0, 64, 59
1, 121045, Control_c, 0, 64, 57
1, 121059, Control_c, 0, 64, 55
1, 121074, Control_c, 0, 64, 53
1, 121089, Control_c, 0, 64, 49
1, 121104, Control_c, 0, 64, 46
1, 121119, Control_c, 0, 64, 42
1, 121134, Control_c, 0, 64, 39
1, 121149, Control_c, 0, 64, 33
1, 121164, Control_c, 0, 64, 24
1, 121178, Control_c, 0, 64, 11
1, 121193, Control_c, 0, 64, 0
1, 121705, Control_c, 0, 64, 8
1, 121720, Control_c, 0, 64, 26
1, 121734, Control_c, 0, 64, 39
1, 121749, Control_c, 0, 64, 48
1, 121764, Control_c, 0, 64, 55
1, 121779, Control_c, 0, 64, 59
1, 121794, Control_c, 0, 64, 61
1, 121808, Control_c, 0, 64, 63
1, 121823, Control_c, 0, 64, 65
1, 121838, Control_c, 0, 64, 67
1, 121843, Note_on_c, 0, 41, 49
1, 121853, Control_c, 0, 64, 71
1, 121868, Control_c, 0, 64, 77
1, 121882, Control_c, 0, 64, 85
1, 121897, Control_c, 0, 64, 93
1, 121912, Control_c, 0, 64, 104
1, 121927, Control_c, 0, 64, 127
1, 122023, Note_off_c, 0, 41, 61
1, 122431, Note_on_c, 0, 77, 46
1, 122473, Note_on_c, 0, 63, 29
1, 122478, Note_on_c, 0, 69, 31
1, 122483, Note_off_c, 0, 78, 29
1, 122631, Note_off_c, 0, 63, 39
1, 122639, Note_on_c, 0, 72, 57
1, 122672, Note_off_c, 0, 77, 32
1, 122684, Note_off_c, 0, 69, 42
1, 122803, Note_off_c, 0, 72, 56
1, 122806, Note_on_c, 0, 75, 62
1, 122832, Note_on_c, 0, 65, 36
1, 122837, Note_on_c, 0, 57, 41
1, 122838, Control_c, 0, 64, 92
1, 122842, Note_on_c, 0, 63, 30
1, 122853, Control_c, 0, 64, 69
1, 122867, Control_c, 0, 64, 57
1, 122882, Control_c, 0, 64, 57
1, 122897, Control_c, 0, 64, 66
1, 122912, Control_c, 0, 64, 82
1, 122934, Control_c, 0, 64, 127
1, 122974, Note_off_c, 0, 65, 35
1, 122983, Note_off_c, 0, 63, 41
1, 122985, Note_on_c, 0, 73, 61
1, 122993, Note_off_c, 0, 57, 59
1, 123062, Note_off_c, 0, 75, 32
1, 123268, Note_on_c, 0, 70, 55
1, 123277, Note_on_c, 0, 46, 46
1, 123290, Control_c, 0, 64, 110
1, 123305, Control_c, 0, 64, 81
1, 123320, Control_c, 0, 64, 64
1, 123335, Control_c, 0, 64, 46
1, 123338, Note_off_c, 0, 73, 47
1, 123350, Control_c, 0, 64, 10
1, 123364, Control_c, 0, 64, 0
1, 123379, Control_c, 0, 64, 21
1, 123394, Control_c, 0, 64, 45
1, 123409, Control_c, 0, 64, 61
1, 123424, Control_c, 0, 64, 70
1, 123439, Control_c, 0, 64, 83
1, 123453, Control_c, 0, 64, 127
1, 123469, Note_off_c, 0, 46, 63
1, 123774, Note_on_c, 0, 65, 31
1, 123785, Note_on_c, 0, 61, 38
1, 123798, Note_on_c, 0, 58, 35
1, 123949, Note_off_c, 0, 61, 51
1, 123955, Note_off_c, 0, 58, 45
1, 123996, Note_off_c, 0, 65, 33
1, 124133, Note_on_c, 0, 61, 33
1, 124148, Note_on_c, 0, 58, 30
1, 124148, Note_on_c, 0, 53, 42
1, 124235, Note_off_c, 0, 61, 0
1, 124276, Poly_aftertouch_c, 0, 61, 0
1, 124293, Note_off_c, 0, 58, 33
1, 124311, Note_off_c, 0, 53, 35
1, 124532, Note_on_c, 0, 67, 38
1, 124544, Note_on_c, 0, 48, 36
1, 124594, Control_c, 0, 64, 107
1, 124609, Control_c, 0, 64, 73
1, 124621, Note_off_c, 0, 70, 42
1, 124624, Control_c, 0, 64, 54
1, 124639, Control_c, 0, 64, 26
1, 124668, Control_c, 0, 64, 50
1, 124683, Control_c, 0, 64, 71
1, 124698, Control_c, 0, 64, 94
1, 124713, Control_c, 0, 64, 127
1, 124746, Note_off_c, 0, 48, 60
1, 124967, Note_on_c, 0, 64, 37
1, 124973, Note_on_c, 0, 60, 31
1, 124985, Note_on_c, 0, 58, 33
1, 125174, Note_off_c, 0, 60, 41
1, 125179, Note_off_c, 0, 58, 37
1, 125185, Note_off_c, 0, 64, 33
1, 125368, Note_off_c, 0, 67, 33
1, 125397, Note_on_c, 0, 52, 37
1, 125401, Note_on_c, 0, 58, 35
1, 125412, Note_on_c, 0, 60, 25
1, 125512, Note_off_c, 0, 60, 50
1, 125527, Note_off_c, 0, 58, 57
1, 125542, Note_off_c, 0, 52, 58
1, 125947, Note_on_c, 0, 41, 49
1, 126004, Control_c, 0, 64, 122
1, 126018, Control_c, 0, 64, 77
1, 126033, Control_c, 0, 64, 60
1, 126048, Control_c, 0, 64, 42
1, 126063, Control_c, 0, 64, 45
1, 126078, Control_c, 0, 64, 60
1, 126092, Control_c, 0, 64, 75
1, 126107, Control_c, 0, 64, 127
1, 126156, Note_off_c, 0, 41, 62
1, 126216, Note_on_c, 0, 68, 49
1, 126335, Note_off_c, 0, 68, 32
1, 126420, Note_on_c, 0, 72, 47
1, 126432, Note_on_c, 0, 68, 48
1, 126442, Note_on_c, 0, 56, 43
1, 126444, Note_on_c, 0, 60, 34
1, 126459, Note_on_c, 0, 53, 46
1, 126565, Note_off_c, 0, 68, 54
1, 126575, Note_off_c, 0, 56, 59
1, 126580, Note_on_c, 0, 67, 60
1, 126592, Note_off_c, 0, 60, 38
1, 126682, Note_off_c, 0, 67, 0
1, 126705, Note_on_c, 0, 67, 13
1, 126720, Note_on_c, 0, 77, 71
1, 126721, Note_on_c, 0, 60, 51
1, 126735, Note_on_c, 0, 56, 56
1, 126750, Note_off_c, 0, 72, 58
1, 126765, Note_off_c, 0, 60, 63
1, 126777, Note_off_c, 0, 53, 57
1, 126805, Note_off_c, 0, 56, 62
1, 126819, Note_off_c, 0, 77, 53
1, 126820, Note_off_c, 0, 67, 56
1, 126839, Note_on_c, 0, 65, 59
1, 126995, Note_on_c, 0, 76, 62
1, 127006, Note_on_c, 0, 41, 55
1, 127006, Note_on_c, 0, 67, 55
1, 127019, Control_c, 0, 64, 81
1, 127034, Control_c, 0, 64, 61
1, 127041, Note_on_c, 0, 49, 47
1, 127042, Note_on_c, 0, 73, 42
1, 127042, Note_off_c, 0, 67, 64
1, 127048, Note_on_c, 0, 55, 43
1, 127048, Control_c, 0, 64, 54
1, 127057, Note_off_c, 0, 65, 40
1, 127063, Control_c, 0, 64, 65
1, 127068, Note_off_c, 0, 41, 62
1, 127078, Control_c, 0, 64, 83
1, 127093, Note_off_c, 0, 49, 62
1, 127093, Control_c, 0, 64, 127
1, 127134, Note_off_c, 0, 55, 58
1, 127149, Note_on_c, 0, 68, 61
1, 127171, Note_off_c, 0, 76, 34
1, 127251, Note_off_c, 0, 73, 59
1, 127261, Note_on_c, 0, 70, 75
1, 127261, Note_off_c, 0, 68, 59
1, 127274, Note_on_c, 0, 61, 50
1, 127280, Note_on_c, 0, 53, 53
1, 127286, Note_on_c, 0, 58, 46
1, 127361, Note_off_c, 0, 58, 50
1, 127373, Note_off_c, 0, 61, 53
1, 127394, Note_on_c, 0, 65, 58
1, 127483, Note_off_c, 0, 65, 58
1, 127516, Note_off_c, 0, 70, 57
1, 127519, Note_on_c, 0, 73, 61
1, 127535, Note_on_c, 0, 61, 52
1, 127541, Note_on_c, 0, 58, 51
1, 127581, Note_off_c, 0, 61, 63
1, 127590, Note_off_c, 0, 53, 22
1, 127590, Note_off_c, 0, 58, 58
1, 127648, Note_on_c, 0, 70, 59
1, 127680, Note_off_c, 0, 70, 62
1, 127856, Note_on_c, 0, 41, 49
1, 127877, Note_on_c, 0, 70, 51
1, 127880, Note_on_c, 0, 60, 50
1, 127901, Control_c, 0, 64, 95
1, 127915, Control_c, 0, 64, 66
1, 127930, Control_c, 0, 64, 46
1, 127945, Control_c, 0, 64, 56
1, 127954, Note_off_c, 0, 60, 39
1, 127960, Control_c, 0, 64, 73
1, 127975, Control_c, 0, 64, 127
1, 127981, Note_off_c, 0, 41, 64
1, 128017, Note_on_c, 0, 68, 55
1, 128057, Note_off_c, 0, 70, 56
1, 128071, Note_off_c, 0, 68, 55
1, 128135, Note_on_c, 0, 72, 69
1, 128164, Note_on_c, 0, 68, 61
1, 128167, Note_on_c, 0, 56, 53
1, 128172, Note_on_c, 0, 53, 56
1, 128177, Note_off_c, 0, 73, 59
1, 128202, Poly_aftertouch_c, 0, 60, 127
1, 128260, Note_off_c, 0, 68, 60
1, 128264, Note_off_c, 0, 56, 60
1, 128266, Poly_aftertouch_c, 0, 59, 0
1, 128275, Note_on_c, 0, 67, 64
1, 128280, Poly_aftertouch_c, 0, 60, 0
1, 128355, Note_off_c, 0, 67, 0
1, 128370, Note_on_c, 0, 67, 34
1, 128370, Note_on_c, 0, 77, 73
1, 128387, Note_off_c, 0, 72, 61
1, 128395, Note_on_c, 0, 60, 65
1, 128396, Note_on_c, 0, 56, 64
1, 128419, Note_off_c, 0, 53, 53
1, 128422, Note_on_c, 0, 76, 19
1, 128424, Note_off_c, 0, 60, 68
1, 128452, Note_off_c, 0, 56, 62
1, 128469, Note_off_c, 0, 77, 59
1, 128477, Note_off_c, 0, 67, 54
1, 128483, Note_off_c, 0, 76, 41
1, 128490, Note_on_c, 0, 65, 65
1, 128612, Note_on_c, 0, 67, 66
1, 128613, Note_on_c, 0, 76, 64
1, 128619, Control_c, 0, 64, 87
1, 128624, Note_on_c, 0, 41, 67
1, 128634, Control_c, 0, 64, 59
1, 128644, Note_on_c, 0, 73, 52
1, 128649, Control_c, 0, 64, 52
1, 128656, Note_on_c, 0, 55, 51
1, 128660, Note_off_c, 0, 65, 46
1, 128665, Control_c, 0, 64, 67
1, 128671, Note_off_c, 0, 67, 63
1, 128679, Control_c, 0, 64, 97
1, 128686, Note_on_c, 0, 49, 41
1, 128690, Note_off_c, 0, 41, 64
1, 128694, Control_c, 0, 64, 127
1, 128719, Note_off_c, 0, 49, 43
1, 128732, Note_off_c, 0, 55, 63
1, 128758, Note_on_c, 0, 68, 74
1, 128831, Note_off_c, 0, 76, 31
1, 128860, Note_on_c, 0, 70, 78
1, 128866, Note_off_c, 0, 68, 59
1, 128869, Note_on_c, 0, 53, 65
1, 128870, Note_on_c, 0, 61, 63
1, 128872, Note_on_c, 0, 58, 58
1, 128895, Note_off_c, 0, 73, 60
1, 128977, Note_on_c, 0, 65, 68
1, 128988, Note_off_c, 0, 58, 56
1, 128994, Note_off_c, 0, 61, 53
1, 129075, Note_off_c, 0, 65, 58
1, 129096, Note_on_c, 0, 73, 80
1, 129122, Note_on_c, 0, 58, 67
1, 129122, Note_on_c, 0, 61, 72
1, 129128, Note_off_c, 0, 70, 59
1, 129169, Note_off_c, 0, 53, 26
1, 129173, Note_off_c, 0, 61, 63
1, 129185, Note_off_c, 0, 58, 61
1, 129230, Note_on_c, 0, 67, 59
1, 129232, Note_on_c, 0, 70, 62
1, 129239, Note_off_c, 0, 73, 64
1, 129267, Note_off_c, 0, 67, 60
1, 129310, Note_off_c, 0, 70, 57
1, 129407, Note_on_c, 0, 70, 55
1, 129413, Note_on_c, 0, 72, 68
1, 129423, Note_on_c, 0, 41, 66
1, 129425, Note_on_c, 0, 60, 60
1, 129429, Note_on_c, 0, 67, 37
1, 129443, Control_c, 0, 64, 90
1, 129458, Control_c, 0, 64, 61
1, 129462, Note_off_c, 0, 67, 55
1, 129473, Control_c, 0, 64, 0
1, 129503, Control_c, 0, 64, 46
1, 129517, Control_c, 0, 64, 72
1, 129532, Control_c, 0, 64, 127
1, 129540, Note_off_c, 0, 41, 64
1, 129561, Note_off_c, 0, 60, 53
1, 129582, Note_on_c, 0, 68, 62
1, 129585, Note_on_c, 0, 65, 61
1, 129607, Note_off_c, 0, 70, 32
1, 129636, Note_off_c, 0, 65, 61
1, 129659, Note_off_c, 0, 68, 60
1, 129671, Note_off_c, 0, 72, 33
1, 129740, Note_on_c, 0, 68, 56
1, 129742, Note_on_c, 0, 72, 66
1, 129744, Note_on_c, 0, 60, 60
1, 129746, Note_on_c, 0, 53, 54
1, 129749, Note_on_c, 0, 65, 66
1, 129755, Note_on_c, 0, 56, 53
1, 129775, Note_on_c, 0, 48, 59
1, 129832, Note_off_c, 0, 60, 57
1, 129857, Note_off_c, 0, 56, 61
1, 129859, Note_off_c, 0, 53, 61
1, 129878, Note_on_c, 0, 70, 77
1, 129880, Note_off_c, 0, 72, 62
1, 129889, Note_off_c, 0, 65, 35
1, 129890, Note_on_c, 0, 73, 73
1, 129894, Note_off_c, 0, 68, 49
1, 129901, Note_off_c, 0, 48, 60
1, 130013, Note_on_c, 0, 68, 67
1, 130014, Note_on_c, 0, 72, 81
1, 130017, Note_on_c, 0, 64, 73
1, 130019, Note_on_c, 0, 52, 68
1, 130021, Note_off_c, 0, 70, 60
1, 130024, Note_on_c, 0, 40, 75
1, 130044, Control_c, 0, 64, 88
1, 130059, Control_c, 0, 64, 65
1, 130074, Control_c, 0, 64, 59
1, 130088, Control_c, 0, 64, 70
1, 130103, Note_off_c, 0, 64, 54
1, 130103, Control_c, 0, 64, 102
1, 130118, Control_c, 0, 64, 127
1, 130133, Note_off_c, 0, 73, 0
1, 130133, Note_on_c, 0, 73, 37
1, 130139, Note_on_c, 0, 70, 76
1, 130142, Note_off_c, 0, 52, 60
1, 130165, Note_off_c, 0, 40, 62
1, 130166, Note_off_c, 0, 72, 61
1, 130265, Note_off_c, 0, 68, 42
1, 130270, Note_off_c, 0, 73, 63
1, 130344, Note_on_c, 0, 75, 80
1, 130345, Note_on_c, 0, 63, 69
1, 130352, Note_on_c, 0, 51, 70
1, 130354, Note_on_c, 0, 39, 73
1, 130374, Note_off_c, 0, 70, 56
1, 130401, Control_c, 0, 64, 74
1, 130422, Control_c, 0, 64, 52
1, 130437, Control_c, 0, 64, 20
1, 130452, Control_c, 0, 64, 31
1, 130467, Control_c, 0, 64, 60
1, 130474, Note_off_c, 0, 39, 63
1, 130482, Control_c, 0, 64, 89
1, 130497, Control_c, 0, 64, 127
1, 130506, Note_off_c, 0, 51, 63
1, 130515, Note_on_c, 0, 70, 78
1, 130547, Note_off_c, 0, 75, 63
1, 130553, Note_off_c, 0, 63, 60
1, 130623, Note_on_c, 0, 61, 78
1, 130633, Note_on_c, 0, 75, 84
1, 130637, Note_on_c, 0, 51, 65
1, 130647, Note_on_c, 0, 63, 68
1, 130662, Note_off_c, 0, 70, 59
1, 130740, Note_on_c, 0, 60, 72
1, 130744, Note_off_c, 0, 51, 61
1, 130750, Note_on_c, 0, 68, 83
1, 130757, Note_off_c, 0, 61, 60
1, 130778, Note_off_c, 0, 63, 60
1, 130779, Note_off_c, 0, 75, 63
1, 130789, Note_off_c, 0, 60, 65
1, 130851, Note_on_c, 0, 75, 82
1, 130859, Note_off_c, 0, 68, 63
1, 130860, Note_on_c, 0, 63, 75
1, 130869, Note_on_c, 0, 60, 69
1, 130870, Note_on_c, 0, 51, 73
1, 130896, Note_on_c, 0, 58, 66
1, 130900, Note_off_c, 0, 63, 59
1, 130906, Note_off_c, 0, 60, 53
1, 130928, Note_off_c, 0, 58, 64
1, 130931, Note_on_c, 0, 68, 67
1, 130957, Note_off_c, 0, 51, 63
1, 130986, Note_on_c, 0, 61, 79
1, 130988, Note_off_c, 0, 68, 63
1, 131051, Note_off_c, 0, 75, 62
1, 131052, Note_on_c, 0, 67, 79
1, 131080, Note_off_c, 0, 61, 62
1, 131108, Poly_aftertouch_c, 0, 71, 127
1, 131134, Poly_aftertouch_c, 0, 71, 0
1, 131245, Note_on_c, 0, 75, 78
1, 131247, Note_on_c, 0, 39, 65
1, 131305, Control_c, 0, 64, 73
1, 131320, Control_c, 0, 64, 41
1, 131335, Control_c, 0, 64, 0
1, 131364, Control_c, 0, 64, 52
1, 131379, Control_c, 0, 64, 74
1, 131394, Control_c, 0, 64, 114
1, 131397, Note_off_c, 0, 67, 62
1, 131409, Control_c, 0, 64, 127
1, 131415, Note_on_c, 0, 65, 70
1, 131418, Note_off_c, 0, 39, 64
1, 131428, Note_on_c, 0, 51, 65
1, 131460, Note_off_c, 0, 51, 65
1, 131581, Note_on_c, 0, 58, 71
1, 131585, Note_on_c, 0, 73, 65
1, 131585, Note_on_c, 0, 67, 68
1, 131588, Note_off_c, 0, 65, 0
1, 131588, Note_on_c, 0, 65, 5
1, 131593, Note_on_c, 0, 51, 50
1, 131621, Note_off_c, 0, 65, 49
1, 131627, Note_off_c, 0, 75, 63
1, 131650, Note_off_c, 0, 67, 59
1, 131659, Note_off_c, 0, 73, 56
1, 131699, Note_off_c, 0, 58, 51
1, 131712, Note_on_c, 0, 72, 79
1, 131716, Note_on_c, 0, 67, 62
1, 131731, Note_on_c, 0, 63, 63
1, 131836, Note_on_c, 0, 65, 74
1, 131838, Note_off_c, 0, 67, 60
1, 131838, Note_on_c, 0, 61, 72
1, 131840, Note_on_c, 0, 70, 78
1, 131890, Note_off_c, 0, 63, 28
1, 131923, Note_off_c, 0, 61, 61
1, 131937, Note_off_c, 0, 72, 0
1, 131946, Note_on_c, 0, 72, 59
1, 131966, Note_off_c, 0, 70, 59
1, 131966, Note_on_c, 0, 67, 67
1, 131981, Note_on_c, 0, 63, 69
1, 131993, Note_off_c, 0, 65, 34
1, 132025, Note_off_c, 0, 63, 55
1, 132156, Note_off_c, 0, 67, 61
1, 132167, Note_on_c, 0, 68, 65
1, 132172, Note_on_c, 0, 56, 52
1, 132172, Control_c, 0, 64, 73
1, 132176, Note_on_c, 0, 61, 60
1, 132182, Note_on_c, 0, 65, 51
1, 132187, Note_off_c, 0, 51, 32
1, 132187, Control_c, 0, 64, 45
1, 132196, Note_off_c, 0, 72, 42
1, 132202, Control_c, 0, 64, 0
1, 132217, Control_c, 0, 64, 20
1, 132232, Control_c, 0, 64, 57
1, 132247, Control_c, 0, 64, 75
1, 132254, Note_off_c, 0, 61, 61
1, 132261, Control_c, 0, 64, 101
1, 132269, Note_off_c, 0, 56, 55
1, 132276, Note_off_c, 0, 65, 53
1, 132276, Control_c, 0, 64, 127
1, 132322, Note_on_c, 0, 63, 63
1, 132326, Note_on_c, 0, 56, 30
1, 132329, Note_on_c, 0, 60, 67
1, 132368, Note_off_c, 0, 60, 58
1, 132370, Note_off_c, 0, 56, 61
1, 132375, Note_off_c, 0, 63, 61
1, 132439, Note_on_c, 0, 60, 68
1, 132447, Note_on_c, 0, 63, 66
1, 132482, Note_on_c, 0, 56, 42
1, 132486, Note_off_c, 0, 60, 62
1, 132506, Note_off_c, 0, 63, 62
1, 132508, Note_off_c, 0, 56, 50
1, 132541, Note_on_c, 0, 62, 69
1, 132548, Note_on_c, 0, 59, 67
1, 132551, Note_on_c, 0, 53, 68
1, 132576, Note_off_c, 0, 59, 68
1, 132579, Note_off_c, 0, 62, 62
1, 132592, Note_off_c, 0, 53, 60
1, 132655, Note_on_c, 0, 53, 66
1, 132660, Note_on_c, 0, 59, 68
1, 132661, Note_on_c, 0, 62, 73
1, 132725, Note_off_c, 0, 59, 56
1, 132753, Note_off_c, 0, 62, 56
1, 132765, Note_on_c, 0, 61, 77
1, 132770, Note_on_c, 0, 56, 71
1, 132771, Note_on_c, 0, 52, 62
1, 132804, Note_off_c, 0, 53, 36
1, 132841, Note_off_c, 0, 61, 63
1, 132843, Note_off_c, 0, 52, 63
1, 132847, Control_c, 0, 64, 68
1, 132855, Note_off_c, 0, 56, 62
1, 132862, Control_c, 0, 64, 51
1, 132877, Control_c, 0, 64, 61
1, 132891, Control_c, 0, 64, 79
1, 132905, Note_on_c, 0, 56, 61
1, 132906, Note_on_c, 0, 61, 77
1, 132906, Control_c, 0, 64, 127
1, 132920, Note_on_c, 0, 52, 70
1, 132974, Note_off_c, 0, 56, 63
1, 132998, Note_off_c, 0, 52, 64
1, 133019, Note_off_c, 0, 61, 57
1, 133043, Note_on_c, 0, 60, 81
1, 133046, Note_on_c, 0, 51, 83
1, 133110, Note_off_c, 0, 60, 60
1, 133111, Note_off_c, 0, 51, 63
1, 133180, Note_on_c, 0, 51, 89
1, 133182, Note_on_c, 0, 60, 86
1, 133247, Note_off_c, 0, 51, 63
1, 133308, Note_on_c, 0, 49, 89
1, 133314, Note_on_c, 0, 65, 86
1, 133320, Note_on_c, 0, 37, 83
1, 133320, Control_c, 0, 64, 83
1, 133335, Control_c, 0, 64, 65
1, 133343, Note_off_c, 0, 60, 61
1, 133348, Note_off_c, 0, 68, 64
1, 133350, Control_c, 0, 64, 76
1, 133365, Control_c, 0, 64, 127
1, 133409, Note_off_c, 0, 37, 64
1, 133418, Note_off_c, 0, 49, 62
1, 133449, Poly_aftertouch_c, 0, 39, 0
1, 133451, Note_off_c, 0, 65, 65
1, 133466, Note_on_c, 0, 48, 92
1, 133468, Note_on_c, 0, 63, 86
1, 133473, Note_on_c, 0, 36, 86
1, 133525, Note_off_c, 0, 48, 62
1, 133535, Note_off_c, 0, 36, 63
1, 133601, Note_on_c, 0, 46, 89
1, 133602, Note_on_c, 0, 61, 85
1, 133603, Note_on_c, 0, 70, 88
1, 133611, Note_on_c, 0, 67, 76
1, 133617, Note_on_c, 0, 34, 86
1, 133630, Note_off_c, 0, 63, 34
1, 133688, Note_off_c, 0, 46, 60
1, 133699, Note_off_c, 0, 61, 61
1, 133702, Note_off_c, 0, 34, 61
1, 133752, Note_off_c, 0, 70, 61
1, 133830, Note_on_c, 0, 72, 86
1, 133833, Control_c, 0, 64, 107
1, 133835, Note_on_c, 0, 44, 88
1, 133835, Note_on_c, 0, 60, 81
1, 133841, Note_on_c, 0, 32, 82
1, 133847, Control_c, 0, 64, 54
1, 133862, Control_c, 0, 64, 0
1, 133864, Note_off_c, 0, 67, 64
1, 133907, Control_c, 0, 64, 42
1, 133920, Note_off_c, 0, 32, 64
1, 133922, Control_c, 0, 64, 78
1, 133937, Control_c, 0, 64, 127
1, 133947, Note_off_c, 0, 44, 62
1, 133969, Note_off_c, 0, 60, 63
1, 134002, Note_on_c, 0, 63, 75
1, 134046, Note_off_c, 0, 72, 58
1, 134056, Note_off_c, 0, 63, 63
1, 134142, Note_on_c, 0, 61, 68
1, 134145, Note_on_c, 0, 51, 78
1, 134160, Note_on_c, 0, 56, 70
1, 134161, Note_on_c, 0, 75, 83
1, 134163, Note_on_c, 0, 63, 84
1, 134191, Note_on_c, 0, 72, 33
1, 134214, Note_on_c, 0, 73, 16
1, 134235, Note_on_c, 0, 60, 44
1, 134254, Note_off_c, 0, 73, 41
1, 134280, Note_on_c, 0, 70, 86
1, 134288, Note_off_c, 0, 63, 62
1, 134309, Note_off_c, 0, 60, 45
1, 134315, Note_off_c, 0, 61, 33
1, 134330, Note_off_c, 0, 72, 57
1, 134335, Note_off_c, 0, 56, 29
1, 134336, Note_off_c, 0, 75, 63
1, 134349, Note_off_c, 0, 70, 64
1, 134401, Note_on_c, 0, 63, 80
1, 134402, Note_on_c, 0, 80, 87
1, 134405, Note_on_c, 0, 56, 78
1, 134406, Note_on_c, 0, 70, 68
1, 134408, Note_on_c, 0, 60, 72
1, 134426, Note_off_c, 0, 63, 64
1, 134430, Note_off_c, 0, 70, 61
1, 134432, Note_off_c, 0, 60, 69
1, 134447, Note_off_c, 0, 51, 63
1, 134450, Note_off_c, 0, 56, 66
1, 134457, Note_off_c, 0, 80, 65
1, 134504, Note_on_c, 0, 68, 83
1, 134566, Note_on_c, 0, 44, 85
1, 134580, Note_off_c, 0, 68, 63
1, 134608, Poly_aftertouch_c, 0, 78, 0
1, 134612, Note_on_c, 0, 51, 34
1, 134619, Note_on_c, 0, 52, 77
1, 134655, Note_off_c, 0, 51, 46
1, 134670, Control_c, 0, 64, 76
1, 134676, Note_on_c, 0, 73, 85
1, 134676, Note_on_c, 0, 79, 83
1, 134681, Note_on_c, 0, 76, 82
1, 134685, Control_c, 0, 64, 31
1, 134692, Note_on_c, 0, 58, 87
1, 134700, Control_c, 0, 64, 0
1, 134715, Control_c, 0, 64, 62
1, 134721, Note_off_c, 0, 44, 64
1, 134730, Control_c, 0, 64, 105
1, 134745, Control_c, 0, 64, 127
1, 134759, Note_off_c, 0, 52, 64
1, 134783, Note_off_c, 0, 58, 63
1, 134816, Note_on_c, 0, 72, 80
1, 134816, Note_on_c, 0, 75, 79
1, 134816, Note_off_c, 0, 79, 61
1, 134823, Note_off_c, 0, 73, 62
1, 134826, Note_off_c, 0, 76, 61
1, 134874, Note_off_c, 0, 75, 62
1, 134891, Note_off_c, 0, 72, 63
1, 134940, Note_on_c, 0, 55, 75
1, 134944, Note_on_c, 0, 52, 55
1, 134944, Note_on_c, 0, 73, 87
1, 134945, Note_on_c, 0, 61, 81
1, 134951, Note_on_c, 0, 70, 82
1, 134956, Note_on_c, 0, 58, 68
1, 135001, Note_off_c, 0, 55, 63
1, 135014, Note_off_c, 0, 52, 64
1, 135030, Note_off_c, 0, 58, 63
1, 135045, Note_off_c, 0, 61, 64
1, 135068, Note_on_c, 0, 69, 84
1, 135072, Note_off_c, 0, 70, 50
1, 135124, Note_off_c, 0, 73, 60
1, 135137, Note_off_c, 0, 69, 64
1, 135170, Note_on_c, 0, 61, 75
1, 135173, Note_on_c, 0, 55, 74
1, 135176, Note_on_c, 0, 58, 76
1, 135177, Note_on_c, 0, 76, 89
1, 135225, Note_off_c, 0, 61, 65
1, 135233, Note_off_c, 0, 58, 63
1, 135248, Note_off_c, 0, 55, 64
1, 135281, Note_on_c, 0, 73, 87
1, 135370, Note_off_c, 0, 73, 63
1, 135451, Note_on_c, 0, 63, 81
1, 135453, Note_on_c, 0, 44, 91
1, 135460, Note_on_c, 0, 73, 90
1, 135466, Note_on_c, 0, 32, 84
1, 135479, Control_c, 0, 64, 68
1, 135494, Control_c, 0, 64, 47
1, 135509, Control_c, 0, 64, 32
1, 135523, Control_c, 0, 64, 34
1, 135527, Note_off_c, 0, 32, 64
1, 135528, Note_off_c, 0, 76, 58
1, 135538, Control_c, 0, 64, 61
1, 135552, Note_off_c, 0, 63, 60
1, 135553, Control_c, 0, 64, 127
1, 135558, Note_off_c, 0, 44, 62
1, 135612, Note_on_c, 0, 72, 82
1, 135694, Note_off_c, 0, 72, 59
1, 135737, Note_on_c, 0, 51, 80
1, 135742, Note_on_c, 0, 72, 73
1, 135747, Note_on_c, 0, 75, 86
1, 135749, Note_on_c, 0, 56, 76
1, 135749, Note_on_c, 0, 60, 77
1, 135772, Note_off_c, 0, 73, 59
1, 135773, Note_on_c, 0, 61, 38
1, 135808, Note_off_c, 0, 61, 32
1, 135850, Note_on_c, 0, 73, 88
1, 135858, Note_off_c, 0, 56, 60
1, 135877, Note_off_c, 0, 60, 61
1, 135877, Note_off_c, 0, 72, 62
1, 135913, Note_off_c, 0, 75, 56
1, 135951, Note_off_c, 0, 73, 65
1, 135956, Note_on_c, 0, 80, 87
1, 135958, Note_on_c, 0, 72, 83
1, 135966, Note_on_c, 0, 56, 85
1, 135966, Note_on_c, 0, 63, 74
1, 135969, Note_on_c, 0, 60, 80
1, 135991, Note_off_c, 0, 60, 70
1, 135993, Note_off_c, 0, 63, 68
1, 136012, Note_off_c, 0, 56, 65
1, 136020, Note_off_c, 0, 72, 58
1, 136025, Note_off_c, 0, 51, 63
1, 136053, Note_on_c, 0, 68, 93
1, 136129, Note_on_c, 0, 44, 80
1, 136134, Note_off_c, 0, 68, 65
1, 136148, Note_off_c, 0, 80, 60
1, 136174, Note_on_c, 0, 52, 62
1, 136183, Control_c, 0, 64, 69
1, 136188, Note_on_c, 0, 51, 49
1, 136198, Control_c, 0, 64, 0
1, 136205, Note_on_c, 0, 76, 82
1, 136206, Note_off_c, 0, 51, 51
1, 136208, Note_on_c, 0, 73, 82
1, 136210, Note_on_c, 0, 79, 79
1, 136224, Note_on_c, 0, 58, 90
1, 136227, Control_c, 0, 64, 41
1, 136242, Control_c, 0, 64, 92
1, 136257, Control_c, 0, 64, 127
1, 136259, Note_off_c, 0, 44, 63
1, 136268, Note_on_c, 0, 49, 10
1, 136283, Note_off_c, 0, 52, 64
1, 136307, Note_off_c, 0, 49, 37
1, 136310, Note_off_c, 0, 58, 63
1, 136316, Note_on_c, 0, 72, 77
1, 136325, Note_off_c, 0, 79, 61
1, 136329, Note_on_c, 0, 75, 78
1, 136330, Note_off_c, 0, 73, 63
1, 136333, Note_off_c, 0, 76, 57
1, 136383, Note_off_c, 0, 75, 63
1, 136400, Note_off_c, 0, 72, 64
1, 136438, Note_on_c, 0, 52, 70
1, 136439, Note_on_c, 0, 61, 89
1, 136443, Note_on_c, 0, 73, 93
1, 136449, Note_on_c, 0, 58, 72
1, 136452, Note_on_c, 0, 70, 88
1, 136453, Note_on_c, 0, 55, 79
1, 136521, Note_off_c, 0, 55, 62
1, 136527, Note_off_c, 0, 52, 62
1, 136536, Note_off_c, 0, 70, 60
1, 136548, Note_off_c, 0, 58, 61
1, 136557, Note_on_c, 0, 69, 89
1, 136563, Note_off_c, 0, 61, 60
1, 136608, Note_off_c, 0, 73, 61
1, 136630, Note_off_c, 0, 69, 65
1, 136661, Note_on_c, 0, 76, 96
1, 136664, Note_on_c, 0, 61, 89
1, 136668, Note_on_c, 0, 55, 77
1, 136669, Note_on_c, 0, 58, 83
1, 136724, Note_off_c, 0, 61, 66
1, 136736, Note_off_c, 0, 55, 64
1, 136745, Note_off_c, 0, 58, 62
1, 136773, Note_on_c, 0, 70, 93
1, 136773, Note_on_c, 0, 73, 82
1, 136846, Note_off_c, 0, 73, 65
1, 136852, Note_off_c, 0, 70, 64
1, 136948, Note_on_c, 0, 44, 93
1, 136948, Note_on_c, 0, 72, 85
1, 136950, Note_on_c, 0, 63, 88
1, 136954, Note_on_c, 0, 32, 84
1, 136963, Note_on_c, 0, 68, 79
1, 136991, Control_c, 0, 64, 69
1, 137006, Control_c, 0, 64, 0
1, 137036, Control_c, 0, 64, 60
1, 137043, Note_off_c, 0, 32, 64
1, 137050, Control_c, 0, 64, 86
1, 137056, Note_off_c, 0, 68, 62
1, 137065, Control_c, 0, 64, 127
1, 137067, Note_off_c, 0, 44, 63
1, 137069, Poly_aftertouch_c, 0, 34, 0
1, 137078, Note_off_c, 0, 63, 62
1, 137130, Note_off_c, 0, 72, 56
1, 137135, Note_on_c, 0, 73, 84
1, 137136, Note_on_c, 0, 70, 89
1, 137138, Note_off_c, 0, 76, 40
1, 137209, Note_off_c, 0, 73, 65
1, 137261, Note_on_c, 0, 60, 69
1, 137269, Note_on_c, 0, 51, 79
1, 137278, Note_on_c, 0, 75, 91
1, 137278, Note_on_c, 0, 56, 71
1, 137279, Note_on_c, 0, 72, 92
1, 137288, Note_on_c, 0, 63, 75
1, 137291, Note_off_c, 0, 70, 63
1, 137368, Note_off_c, 0, 56, 61
1, 137386, Note_off_c, 0, 51, 64
1, 137392, Note_off_c, 0, 60, 64
1, 137406, Note_on_c, 0, 73, 90
1, 137407, Note_on_c, 0, 77, 94
1, 137412, Note_off_c, 0, 63, 63
1, 137433, Note_off_c, 0, 75, 63
1, 137442, Note_off_c, 0, 72, 28
1, 137529, Note_on_c, 0, 68, 81
1, 137530, Note_on_c, 0, 72, 98
1, 137533, Note_on_c, 0, 58, 78
1, 137534, Note_on_c, 0, 60, 76
1, 137535, Note_on_c, 0, 75, 89
1, 137552, Note_off_c, 0, 73, 62
1, 137555, Note_off_c, 0, 77, 45
1, 137560, Note_on_c, 0, 61, 41
1, 137562, Note_on_c, 0, 57, 62
1, 137563, Note_off_c, 0, 68, 64
1, 137577, Note_off_c, 0, 61, 38
1, 137584, Note_off_c, 0, 57, 64
1, 137584, Note_off_c, 0, 60, 64
1, 137585, Note_off_c, 0, 58, 60
1, 137601, Note_off_c, 0, 72, 64
1, 137645, Note_on_c, 0, 77, 92
1, 137645, Note_on_c, 0, 73, 94
1, 137674, Note_off_c, 0, 75, 62
1, 137735, Note_on_c, 0, 39, 82
1, 137754, Note_on_c, 0, 46, 76
1, 137842, Note_off_c, 0, 77, 62
1, 137848, Note_on_c, 0, 51, 78
1, 137851, Note_on_c, 0, 78, 91
1, 137856, Note_on_c, 0, 66, 88
1, 137858, Control_c, 0, 64, 59
1, 137863, Note_on_c, 0, 75, 77
1, 137868, Note_off_c, 0, 73, 61
1, 137873, Control_c, 0, 64, 0
1, 137910, Control_c, 0, 64, 57
1, 137919, Note_off_c, 0, 39, 65
1, 137925, Control_c, 0, 64, 127
1, 137949, Note_off_c, 0, 46, 63
1, 137951, Note_off_c, 0, 51, 63
1, 138026, Note_on_c, 0, 77, 84
1, 138060, Note_off_c, 0, 75, 63
1, 138068, Note_off_c, 0, 66, 58
1, 138080, Note_off_c, 0, 78, 61
1, 138147, Note_on_c, 0, 51, 67
1, 138147, Note_on_c, 0, 58, 69
1, 138150, Note_on_c, 0, 78, 92
1, 138161, Note_on_c, 0, 62, 65
1, 138161, Note_on_c, 0, 75, 87
1, 138162, Note_on_c, 0, 66, 87
1, 138164, Note_on_c, 0, 60, 66
1, 138165, Note_on_c, 0, 54, 58
1, 138186, Note_off_c, 0, 77, 59
1, 138203, Note_off_c, 0, 51, 62
1, 138203, Note_off_c, 0, 54, 65
1, 138216, Note_off_c, 0, 58, 63
1, 138219, Note_off_c, 0, 62, 62
1, 138221, Note_off_c, 0, 60, 61
1, 138266, Note_on_c, 0, 73, 85
1, 138293, Note_off_c, 0, 66, 57
1, 138311, Note_off_c, 0, 78, 62
1, 138340, Note_off_c, 0, 73, 65
1, 138387, Note_on_c, 0, 63, 79
1, 138387, Note_on_c, 0, 78, 93
1, 138395, Note_on_c, 0, 72, 85
1, 138396, Note_on_c, 0, 60, 78
1, 138401, Note_on_c, 0, 58, 75
1, 138401, Note_off_c, 0, 75, 63
1, 138429, Note_on_c, 0, 57, 63
1, 138448, Note_off_c, 0, 60, 65
1, 138450, Note_off_c, 0, 57, 63
1, 138450, Note_off_c, 0, 63, 64
1, 138456, Note_off_c, 0, 58, 64
1, 138475, Note_on_c, 0, 70, 94
1, 138481, Note_off_c, 0, 72, 62
1, 138508, Note_on_c, 0, 76, 60
1, 138515, Note_off_c, 0, 70, 64
1, 138558, Note_off_c, 0, 78, 60
1, 138590, Note_on_c, 0, 63, 85
1, 138597, Note_off_c, 0, 76, 0
1, 138615, Note_on_c, 0, 76, 36
1, 138617, Note_on_c, 0, 75, 37
1, 138647, Note_on_c, 0, 69, 80
1, 138650, Note_on_c, 0, 74, 40
1, 138662, Note_on_c, 0, 73, 20
1, 138684, Note_off_c, 0, 76, 56
1, 138691, Note_off_c, 0, 75, 58
1, 138819, Note_on_c, 0, 78, 97
1, 138823, Note_on_c, 0, 41, 81
1, 138866, Control_c, 0, 64, 88
1, 138880, Control_c, 0, 64, 49
1, 138895, Control_c, 0, 64, 0
1, 138940, Control_c, 0, 64, 16
1, 138954, Control_c, 0, 64, 55
1, 138969, Control_c, 0, 64, 74
1, 138984, Control_c, 0, 64, 127
1, 139001, Note_off_c, 0, 41, 61
1, 139034, Note_on_c, 0, 53, 82
1, 139066, Note_off_c, 0, 53, 65
1, 139078, Note_off_c, 0, 63, 57
1, 139079, Note_off_c, 0, 78, 62
1, 139133, Note_off_c, 0, 69, 61
1, 139149, Note_off_c, 0, 74, 0
1, 139174, Note_on_c, 0, 77, 86
1, 139177, Note_on_c, 0, 60, 77
1, 139182, Note_on_c, 0, 53, 74
1, 139187, Poly_aftertouch_c, 0, 74, 127
1, 139233, Poly_aftertouch_c, 0, 74, 0
1, 139263, Note_off_c, 0, 73, 35
1, 139287, Note_off_c, 0, 60, 64
1, 139323, Note_on_c, 0, 63, 77
1, 139323, Note_on_c, 0, 72, 85
1, 139332, Note_off_c, 0, 77, 61
1, 139378, Note_on_c, 0, 66, 36
1, 139379, Note_off_c, 0, 53, 61
1, 139419, Note_off_c, 0, 66, 45
1, 139426, Note_off_c, 0, 63, 60
1, 139454, Note_on_c, 0, 75, 88
1, 139459, Note_off_c, 0, 72, 62
1, 139475, Note_on_c, 0, 53, 81
1, 139478, Note_on_c, 0, 65, 72
1, 139514, Note_off_c, 0, 65, 63
1, 139578, Note_on_c, 0, 73, 85
1, 139595, Note_on_c, 0, 65, 84
1, 139595, Poly_aftertouch_c, 0, 64, 0
1, 139629, Note_off_c, 0, 75, 63
1, 139636, Note_off_c, 0, 53, 61
1, 139749, Note_off_c, 0, 65, 49
1, 139764, Note_on_c, 0, 70, 81
1, 139765, Note_on_c, 0, 61, 71
1, 139776, Note_on_c, 0, 58, 70
1, 139794, Note_off_c, 0, 73, 62
1, 139821, Control_c, 0, 64, 101
1, 139836, Control_c, 0, 64, 61
1, 139851, Control_c, 0, 64, 0
1, 139881, Control_c, 0, 64, 30
1, 139896, Control_c, 0, 64, 68
1, 139902, Note_off_c, 0, 70, 61
1, 139904, Note_off_c, 0, 61, 65
1, 139911, Control_c, 0, 64, 127
1, 139911, Note_on_c, 0, 54, 80
1, 139912, Note_on_c, 0, 63, 80
1, 139934, Note_off_c, 0, 58, 62
1, 139974, Note_off_c, 0, 54, 65
1, 139990, Note_off_c, 0, 63, 63
1, 140024, Note_on_c, 0, 61, 83
1, 140028, Note_on_c, 0, 53, 84
1, 140048, Note_on_c, 0, 52, 73
1, 140071, Note_off_c, 0, 52, 60
1, 140077, Note_off_c, 0, 53, 64
1, 140117, Note_off_c, 0, 61, 63
1, 140153, Note_on_c, 0, 58, 89
1, 140161, Note_on_c, 0, 51, 90
1, 140163, Note_on_c, 0, 66, 86
1, 140167, Note_on_c, 0, 39, 88
1, 140200, Note_on_c, 0, 49, 38
1, 140203, Note_off_c, 0, 51, 61
1, 140208, Note_off_c, 0, 39, 58
1, 140212, Note_off_c, 0, 58, 62
1, 140227, Note_on_c, 0, 38, 6
1, 140229, Note_off_c, 0, 49, 58
1, 140236, Note_off_c, 0, 66, 60
1, 140271, Note_on_c, 0, 65, 87
1, 140272, Note_on_c, 0, 49, 92
1, 140280, Note_off_c, 0, 38, 33
1, 140280, Note_on_c, 0, 37, 87
1, 140322, Note_off_c, 0, 49, 64
1, 140336, Note_off_c, 0, 37, 62
1, 140390, Note_on_c, 0, 72, 85
1, 140391, Note_on_c, 0, 48, 88
1, 140391, Note_on_c, 0, 69, 80
1, 140394, Note_on_c, 0, 63, 87
1, 140402, Note_on_c, 0, 36, 91
1, 140423, Note_off_c, 0, 65, 62
1, 140449, Note_off_c, 0, 48, 61
1, 140460, Note_off_c, 0, 36, 61
1, 140491, Note_off_c, 0, 63, 62
1, 140509, Note_off_c, 0, 72, 64
1, 140570, Control_c, 0, 64, 74
1, 140578, Note_on_c, 0, 46, 96
1, 140585, Control_c, 0, 64, 16
1, 140587, Note_on_c, 0, 34, 86
1, 140591, Note_on_c, 0, 61, 92
1, 140597, Note_on_c, 0, 73, 84
1, 140600, Control_c, 0, 64, 0
1, 140615, Control_c, 0, 64, 25
1, 140626, Note_off_c, 0, 69, 60
1, 140630, Control_c, 0, 64, 65
1, 140639, Note_off_c, 0, 34, 64
1, 140644, Control_c, 0, 64, 127
1, 140659, Note_off_c, 0, 46, 61
1, 140732, Note_on_c, 0, 66, 64
1, 140745, Note_on_c, 0, 65, 81
1, 140748, Note_off_c, 0, 61, 37
1, 140771, Note_off_c, 0, 66, 44
1, 140795, Note_off_c, 0, 65, 64
1, 140825, Note_off_c, 0, 73, 62
1, 140876, Note_on_c, 0, 53, 80
1, 140881, Note_on_c, 0, 61, 77
1, 140882, Note_on_c, 0, 70, 95
1, 140894, Note_on_c, 0, 73, 76
1, 140900, Note_on_c, 0, 58, 77
1, 141008, Note_on_c, 0, 75, 87
1, 141013, Note_on_c, 0, 72, 80
1, 141020, Note_off_c, 0, 73, 60
1, 141021, Note_off_c, 0, 58, 61
1, 141026, Note_off_c, 0, 61, 62
1, 141033, Note_off_c, 0, 70, 0
1, 141044, Note_on_c, 0, 71, 45
1, 141078, Note_off_c, 0, 71, 35
1, 141088, Poly_aftertouch_c, 0, 70, 0
1, 141127, Note_on_c, 0, 65, 85
1, 141130, Note_on_c, 0, 61, 85
1, 141132, Note_on_c, 0, 70, 91
1, 141132, Note_off_c, 0, 75, 52
1, 141133, Note_on_c, 0, 58, 80
1, 141135, Note_on_c, 0, 73, 86
1, 141143, Note_off_c, 0, 72, 60
1, 141149, Note_off_c, 0, 65, 70
1, 141175, Note_off_c, 0, 61, 66
1, 141179, Note_off_c, 0, 53, 64
1, 141182, Note_off_c, 0, 58, 65
1, 141201, Note_off_c, 0, 70, 63
1, 141235, Note_on_c, 0, 72, 89
1, 141238, Note_on_c, 0, 75, 91
1, 141273, Note_off_c, 0, 73, 62
1, 141312, Note_on_c, 0, 37, 81
1, 141341, Note_on_c, 0, 44, 79
1, 141425, Note_off_c, 0, 75, 57
1, 141438, Control_c, 0, 64, 87
1, 141447, Note_on_c, 0, 77, 93
1, 141448, Note_on_c, 0, 49, 98
1, 141449, Note_on_c, 0, 65, 91
1, 141453, Note_on_c, 0, 73, 87
1, 141453, Control_c, 0, 64, 43
1, 141467, Control_c, 0, 64, 0
1, 141473, Note_on_c, 0, 75, 31
1, 141478, Note_off_c, 0, 37, 64
1, 141482, Control_c, 0, 64, 36
1, 141484, Note_off_c, 0, 72, 61
1, 141497, Control_c, 0, 64, 60
1, 141511, Control_c, 0, 64, 100
1, 141518, Note_off_c, 0, 44, 63
1, 141520, Note_off_c, 0, 75, 44
1, 141520, Note_off_c, 0, 49, 64
1, 141526, Control_c, 0, 64, 127
1, 141547, Note_off_c, 0, 65, 65
1, 141598, Note_off_c, 0, 77, 61
1, 141602, Note_on_c, 0, 72, 83
1, 141724, Note_on_c, 0, 61, 84
1, 141726, Note_on_c, 0, 53, 74
1, 141732, Note_off_c, 0, 72, 61
1, 141732, Note_on_c, 0, 70, 96
1, 141735, Note_on_c, 0, 77, 89
1, 141742, Note_on_c, 0, 56, 58
1, 141766, Note_off_c, 0, 73, 61
1, 141783, Note_off_c, 0, 56, 62
1, 141794, Note_off_c, 0, 53, 62
1, 141828, Note_off_c, 0, 61, 63
1, 141836, Note_on_c, 0, 68, 88
1, 141852, Note_off_c, 0, 70, 61
1, 141896, Note_off_c, 0, 77, 60
1, 141952, Note_on_c, 0, 63, 72
1, 141958, Note_on_c, 0, 56, 74
1, 141958, Note_on_c, 0, 66, 94
1, 141964, Note_on_c, 0, 77, 87
1, 142008, Note_off_c, 0, 63, 64
1, 142024, Note_off_c, 0, 66, 60
1, 142024, Note_off_c, 0, 68, 0
1, 142029, Note_off_c, 0, 56, 64
1, 142039, Note_off_c, 0, 77, 60
1, 142052, Poly_aftertouch_c, 0, 68, 0
1, 142058, Poly_aftertouch_c, 0, 75, 0
1, 142080, Poly_aftertouch_c, 0, 75, 0
1, 142084, Note_on_c, 0, 65, 87
1, 142158, Note_off_c, 0, 65, 59
1, 142271, Note_on_c, 0, 77, 87
1, 142283, Note_on_c, 0, 66, 82
1, 142289, Note_on_c, 0, 51, 88
1, 142298, Note_on_c, 0, 39, 81
1, 142335, Control_c, 0, 64, 124
1, 142350, Control_c, 0, 64, 58
1, 142366, Control_c, 0, 64, 0
1, 142392, Note_off_c, 0, 39, 67
1, 142403, Control_c, 0, 64, 31
1, 142418, Control_c, 0, 64, 72
1, 142432, Note_on_c, 0, 73, 84
1, 142433, Control_c, 0, 64, 127
1, 142438, Note_off_c, 0, 51, 64
1, 142463, Note_off_c, 0, 77, 60
1, 142468, Note_off_c, 0, 66, 55
1, 142510, Poly_aftertouch_c, 0, 52, 0
1, 142596, Note_on_c, 0, 72, 84
1, 142605, Note_on_c, 0, 75, 80
1, 142611, Note_on_c, 0, 63, 74
1, 142617, Note_on_c, 0, 58, 51
1, 142624, Note_on_c, 0, 54, 42
1, 142636, Note_on_c, 0, 56, 69
1, 142637, Note_off_c, 0, 73, 56
1, 142642, Note_on_c, 0, 59, 65
1, 142655, Note_off_c, 0, 58, 46
1, 142661, Note_on_c, 0, 64, 31
1, 142662, Note_on_c, 0, 55, 65
1, 142671, Note_on_c, 0, 60, 31
1, 142678, Note_off_c, 0, 72, 61
1, 142698, Note_off_c, 0, 64, 43
1, 142707, Note_off_c, 0, 60, 42
1, 142710, Note_off_c, 0, 63, 54
1, 142713, Note_off_c, 0, 56, 54
1, 142729, Note_off_c, 0, 59, 62
1, 142754, Note_on_c, 0, 66, 80
1, 142754, Note_on_c, 0, 70, 91
1, 142758, Note_off_c, 0, 55, 62
1, 142763, Note_off_c, 0, 54, 21
1, 142767, Note_off_c, 0, 75, 65
1, 142805, Note_off_c, 0, 66, 59
1, 142883, Note_on_c, 0, 54, 79
1, 142894, Note_on_c, 0, 63, 85
1, 142898, Note_on_c, 0, 42, 74
1, 142898, Note_on_c, 0, 73, 76
1, 142906, Note_off_c, 0, 70, 61
1, 142958, Note_off_c, 0, 63, 61
1, 142990, Note_off_c, 0, 42, 59
1, 142992, Note_off_c, 0, 54, 59
1, 143016, Note_off_c, 0, 73, 32
1, 143021, Note_on_c, 0, 72, 92
1, 143030, Note_on_c, 0, 64, 85
1, 143118, Note_off_c, 0, 64, 52
1, 143232, Note_on_c, 0, 41, 88
1, 143234, Note_on_c, 0, 53, 82
1, 143241, Note_on_c, 0, 65, 85
1, 143242, Note_on_c, 0, 69, 82
1, 143255, Control_c, 0, 64, 107
1, 143266, Note_off_c, 0, 41, 66
1, 143267, Note_off_c, 0, 53, 64
1, 143270, Control_c, 0, 64, 62
1, 143285, Control_c, 0, 64, 0
1, 143315, Control_c, 0, 64, 47
1, 143317, Note_off_c, 0, 72, 56
1, 143330, Control_c, 0, 64, 68
1, 143344, Control_c, 0, 64, 127
1, 143346, Note_off_c, 0, 65, 58
1, 143388, Note_on_c, 0, 66, 90
1, 143398, Note_on_c, 0, 54, 82
1, 143442, Note_off_c, 0, 66, 62
1, 143449, Note_off_c, 0, 54, 63
1, 143503, Note_off_c, 0, 69, 27
1, 143503, Note_on_c, 0, 72, 93
1, 143510, Note_on_c, 0, 65, 91
1, 143513, Note_on_c, 0, 53, 92
1, 143513, Note_on_c, 0, 60, 91
1, 143543, Note_on_c, 0, 71, 34
1, 143558, Note_off_c, 0, 65, 66
1, 143564, Note_off_c, 0, 53, 64
1, 143586, Note_off_c, 0, 71, 46
1, 143597, Note_off_c, 0, 60, 61
1, 143620, Note_on_c, 0, 64, 94
1, 143624, Note_on_c, 0, 52, 93
1, 143660, Note_off_c, 0, 64, 66
1, 143665, Note_off_c, 0, 52, 65
1, 143706, Note_off_c, 0, 72, 61
1, 143710, Poly_aftertouch_c, 0, 71, 127
1, 143732, Note_on_c, 0, 69, 88
1, 143736, Note_on_c, 0, 63, 95
1, 143737, Note_on_c, 0, 65, 93
1, 143737, Note_on_c, 0, 77, 101
1, 143741, Poly_aftertouch_c, 0, 71, 0
1, 143744, Note_on_c, 0, 51, 93
1, 143783, Note_off_c, 0, 63, 65
1, 143801, Note_off_c, 0, 69, 61
1, 143805, Note_off_c, 0, 51, 60
1, 143845, Note_on_c, 0, 60, 91
1, 143847, Note_on_c, 0, 48, 90
1, 143851, Note_off_c, 0, 65, 60
1, 143905, Note_off_c, 0, 60, 65
1, 143962, Note_off_c, 0, 48, 60
1, 143974, Control_c, 0, 64, 60
1, 143989, Note_on_c, 0, 76, 85
1, 143989, Control_c, 0, 64, 0
1, 143995, Note_on_c, 0, 70, 97
1, 143998, Note_on_c, 0, 64, 92
1, 144000, Note_on_c, 0, 61, 93
1, 144001, Note_on_c, 0, 49, 86
1, 144018, Control_c, 0, 64, 28
1, 144033, Control_c, 0, 64, 78
1, 144048, Control_c, 0, 64, 127
1, 144049, Note_off_c, 0, 61, 64
1, 144060, Note_off_c, 0, 77, 58
1, 144065, Note_off_c, 0, 49, 64
1, 144086, Note_off_c, 0, 64, 63
1, 144096, Note_off_c, 0, 76, 64
1, 144119, Note_on_c, 0, 58, 85
1, 144133, Note_on_c, 0, 46, 82
1, 144149, Note_off_c, 0, 70, 61
1, 144162, Note_on_c, 0, 56, 35
1, 144172, Note_off_c, 0, 58, 64
1, 144191, Note_off_c, 0, 46, 62
1, 144194, Note_off_c, 0, 56, 45
1, 144233, Note_on_c, 0, 70, 92
1, 144242, Note_on_c, 0, 55, 78
1, 144250, Note_on_c, 0, 41, 80
1, 144254, Note_on_c, 0, 53, 77
1, 144255, Note_on_c, 0, 43, 78
1, 144272, Note_off_c, 0, 53, 63
1, 144284, Note_off_c, 0, 55, 65
1, 144292, Note_off_c, 0, 43, 58
1, 144293, Note_off_c, 0, 41, 62
1, 144327, Note_off_c, 0, 70, 62
1, 144360, Note_on_c, 0, 57, 84
1, 144361, Note_on_c, 0, 54, 93
1, 144361, Note_on_c, 0, 68, 28
1, 144364, Note_on_c, 0, 42, 83
1, 144398, Note_on_c, 0, 64, 75
1, 144401, Note_on_c, 0, 69, 43
1, 144404, Note_off_c, 0, 57, 62
1, 144414, Note_off_c, 0, 54, 64
1, 144425, Note_off_c, 0, 68, 43
1, 144430, Note_off_c, 0, 42, 64
1, 144432, Note_off_c, 0, 69, 53
1, 144506, Note_on_c, 0, 49, 100
1, 144514, Note_on_c, 0, 37, 92
1, 144519, Note_on_c, 0, 73, 96
1, 144544, Note_off_c, 0, 49, 64
1, 144553, Note_off_c, 0, 64, 64
1, 144572, Note_off_c, 0, 37, 62
1, 144642, Note_on_c, 0, 42, 93
1, 144649, Note_on_c, 0, 30, 94
1, 144652, Note_on_c, 0, 58, 94
1, 144691, Note_off_c, 0, 42, 64
1, 144704, Note_off_c, 0, 30, 64
1, 144716, Note_off_c, 0, 58, 64
1, 144731, Note_off_c, 0, 73, 63
1, 144743, Poly_aftertouch_c, 0, 70, 0
1, 144766, Poly_aftertouch_c, 0, 70, 0
1, 144812, Control_c, 0, 64, 92
1, 144827, Control_c, 0, 64, 49
1, 144833, Note_on_c, 0, 60, 94
1, 144834, Note_on_c, 0, 69, 87
1, 144835, Note_on_c, 0, 29, 87
1, 144835, Note_on_c, 0, 65, 80
1, 144836, Note_on_c, 0, 41, 90
1, 144841, Control_c, 0, 64, 0
1, 144849, Note_off_c, 0, 60, 73
1, 144861, Note_off_c, 0, 29, 70
1, 144865, Note_on_c, 0, 31, 59
1, 144874, Note_off_c, 0, 41, 64
1, 144886, Control_c, 0, 64, 50
1, 144897, Note_off_c, 0, 31, 39
1, 144901, Control_c, 0, 64, 127
1, 144901, Note_off_c, 0, 65, 66
1, 144909, Note_on_c, 0, 60, 39
1, 144917, Note_off_c, 0, 69, 67
1, 144924, Note_off_c, 0, 60, 45
1, 144999, Note_on_c, 0, 54, 94
1, 144999, Note_on_c, 0, 66, 89
1, 145047, Note_on_c, 0, 56, 32
1, 145050, Note_off_c, 0, 66, 62
1, 145053, Note_off_c, 0, 54, 64
1, 145063, Note_on_c, 0, 85, 10
1, 145082, Note_off_c, 0, 56, 43
1, 145111, Poly_aftertouch_c, 0, 68, 0
1, 145116, Note_off_c, 0, 85, 30
1, 145121, Note_on_c, 0, 84, 92
1, 145124, Note_on_c, 0, 72, 97
1, 145127, Note_on_c, 0, 65, 89
1, 145137, Note_on_c, 0, 53, 93
1, 145163, Note_on_c, 0, 56, 51
1, 145169, Note_on_c, 0, 83, 43
1, 145171, Note_off_c, 0, 65, 65
1, 145187, Note_off_c, 0, 56, 60
1, 145190, Note_off_c, 0, 53, 64
1, 145231, Note_off_c, 0, 72, 61
1, 145248, Note_on_c, 0, 64, 97
1, 145252, Note_on_c, 0, 52, 101
1, 145289, Note_off_c, 0, 64, 66
1, 145300, Note_off_c, 0, 52, 61
1, 145316, Note_off_c, 0, 83, 20
1, 145325, Note_off_c, 0, 84, 63
1, 145354, Note_on_c, 0, 82, 96
1, 145360, Note_on_c, 0, 63, 93
1, 145363, Note_on_c, 0, 89, 101
1, 145365, Note_on_c, 0, 77, 96
1, 145373, Note_on_c, 0, 51, 90
1, 145426, Note_off_c, 0, 63, 65
1, 145432, Note_off_c, 0, 82, 63
1, 145443, Note_off_c, 0, 51, 63
1, 145470, Note_off_c, 0, 77, 58
1, 145484, Note_on_c, 0, 60, 101
1, 145488, Note_on_c, 0, 48, 98
1, 145534, Note_off_c, 0, 60, 67
1, 145544, Note_on_c, 0, 59, 4
1, 145602, Note_off_c, 0, 59, 33
1, 145623, Note_on_c, 0, 88, 61
1, 145633, Note_on_c, 0, 76, 98
1, 145636, Note_on_c, 0, 82, 96
1, 145636, Control_c, 0, 64, 61
1, 145640, Note_on_c, 0, 61, 98
1, 145645, Note_on_c, 0, 49, 88
1, 145651, Control_c, 0, 64, 0
1, 145665, Control_c, 0, 64, 26
1, 145668, Note_off_c, 0, 48, 62
1, 145680, Control_c, 0, 64, 62
1, 145687, Note_off_c, 0, 89, 66
1, 145691, Note_off_c, 0, 61, 66
1, 145695, Control_c, 0, 64, 101
1, 145707, Note_off_c, 0, 49, 64
1, 145709, Control_c, 0, 64, 127
1, 145744, Note_off_c, 0, 88, 66
1, 145756, Note_on_c, 0, 58, 92
1, 145759, Note_off_c, 0, 76, 62
1, 145768, Note_on_c, 0, 46, 89
1, 145777, Note_on_c, 0, 56, 72
1, 145795, Note_off_c, 0, 56, 66
1, 145804, Note_off_c, 0, 82, 63
1, 145811, Note_off_c, 0, 58, 64
1, 145825, Note_off_c, 0, 46, 64
1, 145871, Note_on_c, 0, 55, 99
1, 145876, Note_on_c, 0, 82, 94
1, 145884, Note_on_c, 0, 43, 75
1, 145887, Note_on_c, 0, 41, 91
1, 145913, Note_off_c, 0, 55, 65
1, 145917, Note_off_c, 0, 41, 64
1, 145923, Note_on_c, 0, 70, 42
1, 145923, Note_off_c, 0, 43, 63
1, 145952, Note_off_c, 0, 70, 53
1, 145990, Note_on_c, 0, 54, 93
1, 145998, Note_on_c, 0, 80, 25
1, 145998, Note_on_c, 0, 42, 90
1, 146007, Note_on_c, 0, 69, 85
1, 146039, Note_off_c, 0, 80, 49
1, 146042, Note_off_c, 0, 54, 65
1, 146053, Note_on_c, 0, 76, 80
1, 146053, Note_off_c, 0, 82, 62
1, 146057, Note_off_c, 0, 42, 64
1, 146070, Note_off_c, 0, 69, 61
1, 146100, Poly_aftertouch_c, 0, 75, 0
1, 146137, Poly_aftertouch_c, 0, 75, 0
1, 146140, Note_on_c, 0, 49, 99
1, 146150, Note_on_c, 0, 37, 93
1, 146169, Note_on_c, 0, 85, 95
1, 146185, Note_off_c, 0, 49, 66
1, 146191, Note_on_c, 0, 79, 30
1, 146204, Note_off_c, 0, 37, 63
1, 146206, Note_off_c, 0, 76, 62
1, 146226, Note_off_c, 0, 79, 43
1, 146284, Note_on_c, 0, 42, 100
1, 146289, Note_on_c, 0, 30, 95
1, 146296, Note_on_c, 0, 70, 99
1, 146314, Note_on_c, 0, 41, 53
1, 146316, Note_on_c, 0, 40, 54
1, 146317, Note_off_c, 0, 40, 127
1, 146320, Note_on_c, 0, 29, 57
1, 146325, Note_off_c, 0, 42, 66
1, 146334, Note_off_c, 0, 85, 64
1, 146335, Note_off_c, 0, 41, 63
1, 146346, Poly_aftertouch_c, 0, 40, 0
1, 146350, Note_off_c, 0, 29, 58
1, 146358, Note_off_c, 0, 70, 61
1, 146372, Note_off_c, 0, 30, 59
1, 146484, Note_on_c, 0, 40, 85
1, 146488, Note_on_c, 0, 28, 92
1, 146492, Note_on_c, 0, 73, 99
1, 146492, Note_on_c, 0, 85, 96
1, 146494, Note_on_c, 0, 82, 82
1, 146518, Control_c, 0, 64, 97
1, 146532, Control_c, 0, 64, 58
1, 146547, Control_c, 0, 64, 0
1, 146577, Control_c, 0, 64, 48
1, 146592, Control_c, 0, 64, 115
1, 146606, Control_c, 0, 64, 127
1, 146619, Note_off_c, 0, 28, 64
1, 146624, Poly_aftertouch_c, 0, 32, 127
1, 146627, Note_off_c, 0, 40, 63
1, 146629, Note_off_c, 0, 85, 66
1, 146638, Note_off_c, 0, 73, 65
1, 146668, Poly_aftertouch_c, 0, 32, 0
1, 146687, Note_on_c, 0, 41, 99
1, 146688, Note_on_c, 0, 72, 98
1, 146688, Note_on_c, 0, 84, 99
1, 146689, Note_on_c, 0, 29, 94
1, 146714, Note_on_c, 0, 32, 32
1, 146717, Note_off_c, 0, 29, 67
1, 146717, Note_off_c, 0, 82, 62
1, 146739, Note_off_c, 0, 41, 64
1, 146760, Note_off_c, 0, 32, 27
1, 146784, Note_off_c, 0, 72, 60
1, 146805, Note_off_c, 0, 84, 63
1, 146874, Note_on_c, 0, 66, 101
1, 146883, Note_on_c, 0, 72, 93
1, 146883, Note_on_c, 0, 84, 88
1, 146886, Note_on_c, 0, 54, 93
1, 146890, Note_on_c, 0, 81, 81
1, 146919, Note_on_c, 0, 53, 59
1, 146939, Note_off_c, 0, 53, 61
1, 146939, Control_c, 0, 64, 66
1, 146954, Control_c, 0, 64, 63
1, 146969, Control_c, 0, 64, 101
1, 146977, Note_off_c, 0, 72, 63
1, 146984, Control_c, 0, 64, 127
1, 146999, Note_off_c, 0, 54, 63
1, 146999, Note_off_c, 0, 84, 65
1, 147005, Note_off_c, 0, 66, 63
1, 147016, Note_on_c, 0, 82, 7
1, 147026, Note_off_c, 0, 81, 62
1, 147053, Note_on_c, 0, 65, 99
1, 147053, Note_on_c, 0, 85, 100
1, 147054, Note_on_c, 0, 53, 86
1, 147055, Note_on_c, 0, 73, 100
1, 147060, Note_on_c, 0, 83, 38
1, 147065, Note_off_c, 0, 82, 28
1, 147089, Note_on_c, 0, 56, 45
1, 147105, Note_off_c, 0, 65, 65
1, 147116, Note_off_c, 0, 73, 64
1, 147119, Note_off_c, 0, 56, 49
1, 147124, Note_off_c, 0, 53, 63
1, 147124, Note_off_c, 0, 85, 62
1, 147135, Poly_aftertouch_c, 0, 81, 0
1, 147183, Note_on_c, 0, 63, 99
1, 147184, Note_on_c, 0, 75, 99
1, 147188, Note_on_c, 0, 87, 102
1, 147191, Note_on_c, 0, 51, 99
1, 147197, Note_off_c, 0, 83, 22
1, 147234, Note_off_c, 0, 75, 65
1, 147247, Note_off_c, 0, 87, 64
1, 147250, Note_off_c, 0, 63, 62
1, 147256, Note_off_c, 0, 51, 63
1, 147289, Poly_aftertouch_c, 0, 54, 0
1, 147306, Note_on_c, 0, 77, 100
1, 147306, Note_on_c, 0, 89, 103
1, 147310, Note_on_c, 0, 61, 106
1, 147320, Note_on_c, 0, 49, 97
1, 147354, Note_off_c, 0, 77, 63
1, 147405, Poly_aftertouch_c, 0, 87, 127
1, 147409, Note_off_c, 0, 89, 62
1, 147418, Note_off_c, 0, 49, 63
1, 147431, Note_off_c, 0, 61, 62
1, 147471, Poly_aftertouch_c, 0, 87, 0
1, 147487, Note_on_c, 0, 87, 51
1, 147491, Note_on_c, 0, 78, 100
1, 147496, Note_on_c, 0, 90, 102
1, 147498, Note_on_c, 0, 60, 100
1, 147502, Note_on_c, 0, 48, 95
1, 147533, Control_c, 0, 64, 90
1, 147548, Control_c, 0, 64, 50
1, 147562, Control_c, 0, 64, 0
1, 147576, Note_off_c, 0, 60, 65
1, 147577, Control_c, 0, 64, 57
1, 147586, Note_off_c, 0, 48, 63
1, 147592, Control_c, 0, 64, 111
1, 147607, Control_c, 0, 64, 127
1, 147660, Note_on_c, 0, 58, 105
1, 147666, Note_on_c, 0, 46, 95
1, 147714, Note_off_c, 0, 58, 62
1, 147723, Note_off_c, 0, 46, 66
1, 147726, Note_off_c, 0, 78, 56
1, 147728, Note_off_c, 0, 90, 61
1, 147733, Note_off_c, 0, 87, 58
1, 147788, Note_on_c, 0, 57, 97
1, 147789, Note_on_c, 0, 90, 93
1, 147791, Note_on_c, 0, 78, 102
1, 147796, Note_on_c, 0, 87, 85
1, 147797, Note_on_c, 0, 45, 98
1, 147810, Note_on_c, 0, 80, 67
1, 147831, Note_off_c, 0, 80, 53
1, 147840, Note_off_c, 0, 57, 67
1, 147846, Note_off_c, 0, 45, 65
1, 147908, Note_on_c, 0, 54, 99
1, 147917, Note_on_c, 0, 42, 99
1, 147931, Note_off_c, 0, 87, 58
1, 147945, Note_off_c, 0, 78, 58
1, 147946, Note_on_c, 0, 41, 61
1, 147957, Note_off_c, 0, 54, 66
1, 147968, Note_off_c, 0, 42, 66
1, 147970, Note_off_c, 0, 41, 59
1, 147970, Note_off_c, 0, 90, 58
1, 148037, Note_on_c, 0, 51, 102
1, 148039, Note_on_c, 0, 78, 106
1, 148043, Note_on_c, 0, 90, 99
1, 148044, Note_on_c, 0, 39, 92
1, 148045, Note_on_c, 0, 87, 95
1, 148087, Note_off_c, 0, 51, 64
1, 148104, Note_off_c, 0, 39, 63
1, 148175, Note_on_c, 0, 48, 99
1, 148180, Note_on_c, 0, 36, 91
1, 148192, Note_off_c, 0, 78, 54
1, 148199, Note_off_c, 0, 87, 59
1, 148221, Note_off_c, 0, 48, 65
1, 148227, Note_off_c, 0, 36, 63
1, 148248, Note_off_c, 0, 90, 52
1, 148291, Poly_aftertouch_c, 0, 39, 0
1, 148421, Note_on_c, 0, 90, 92
1, 148424, Note_on_c, 0, 45, 103
1, 148427, Note_on_c, 0, 87, 93
1, 148430, Note_on_c, 0, 78, 102
1, 148430, Note_on_c, 0, 33, 94
1, 148496, Control_c, 0, 64, 78
1, 148510, Control_c, 0, 64, 29
1, 148519, Poly_aftertouch_c, 0, 88, 127
1, 148525, Control_c, 0, 64, 0
1, 148585, Control_c, 0, 64, 29
1, 148596, Note_off_c, 0, 90, 65
1, 148600, Control_c, 0, 64, 74
1, 148609, Poly_aftertouch_c, 0, 88, 0
1, 148615, Control_c, 0, 64, 127
1, 148625, Note_off_c, 0, 87, 65
1, 148634, Note_off_c, 0, 78, 62
1, 148643, Note_off_c, 0, 33, 64
1, 148649, Note_off_c, 0, 45, 62
1, 148920, Note_on_c, 0, 63, 79
1, 148924, Note_on_c, 0, 54, 91
1, 148928, Note_on_c, 0, 59, 80
1, 148932, Note_on_c, 0, 45, 92
1, 148937, Note_on_c, 0, 33, 87
1, 149016, Control_c, 0, 64, 81
1, 149031, Control_c, 0, 64, 40
1, 149046, Control_c, 0, 64, 0
1, 149105, Control_c, 0, 64, 56
1, 149120, Control_c, 0, 64, 99
1, 149135, Note_off_c, 0, 45, 60
1, 149142, Control_c, 0, 64, 127
1, 149159, Note_off_c, 0, 59, 53
1, 149203, Note_off_c, 0, 54, 56
1, 149225, Note_off_c, 0, 63, 57
1, 149246, Note_on_c, 0, 62, 11
1, 149277, Poly_aftertouch_c, 0, 61, 127
1, 149309, Note_on_c, 0, 54, 95
1, 149316, Note_on_c, 0, 63, 86
1, 149317, Note_on_c, 0, 58, 79
1, 149318, Note_on_c, 0, 46, 89
1, 149325, Note_on_c, 0, 34, 77
1, 149375, Note_off_c, 0, 33, 60
1, 149379, Control_c, 0, 64, 68
1, 149388, Note_off_c, 0, 62, 22
1, 149393, Control_c, 0, 64, 19
1, 149408, Control_c, 0, 64, 0
1, 149438, Control_c, 0, 64, 48
1, 149452, Control_c, 0, 64, 79
1, 149467, Control_c, 0, 64, 127
1, 149525, Note_off_c, 0, 58, 55
1, 149532, Note_off_c, 0, 54, 58
1, 149533, Note_off_c, 0, 63, 57
1, 149534, Poly_aftertouch_c, 0, 62, 127
1, 149548, Note_off_c, 0, 46, 62
1, 149555, Note_off_c, 0, 34, 61
1, 149610, Poly_aftertouch_c, 0, 61, 0
1, 149617, Note_on_c, 0, 46, 91
1, 149624, Note_on_c, 0, 54, 92
1, 149625, Note_on_c, 0, 63, 87
1, 149631, Note_on_c, 0, 58, 82
1, 149632, Note_on_c, 0, 34, 84
1, 149646, Poly_aftertouch_c, 0, 61, 127
1, 149716, Poly_aftertouch_c, 0, 62, 0
1, 149727, Note_off_c, 0, 58, 61
1, 149741, Note_off_c, 0, 54, 61
1, 149753, Poly_aftertouch_c, 0, 62, 127
1, 149761, Note_off_c, 0, 34, 61
1, 149765, Note_off_c, 0, 46, 62
1, 149805, Poly_aftertouch_c, 0, 62, 0
1, 149843, Poly_aftertouch_c, 0, 62, 127
1, 149885, Note_off_c, 0, 63, 50
1, 149891, Control_c, 0, 64, 78
1, 149896, Note_on_c, 0, 57, 73
1, 149899, Note_on_c, 0, 66, 88
1, 149900, Note_on_c, 0, 47, 91
1, 149903, Poly_aftertouch_c, 0, 61, 0
1, 149903, Note_on_c, 0, 35, 82
1, 149906, Control_c, 0, 64, 55
1, 149910, Poly_aftertouch_c, 0, 62, 0
1, 149911, Note_on_c, 0, 51, 74
1, 149920, Control_c, 0, 64, 0
1, 149935, Control_c, 0, 64, 30
1, 149950, Control_c, 0, 64, 66
1, 149961, Note_off_c, 0, 47, 62
1, 149965, Control_c, 0, 64, 91
1, 149980, Control_c, 0, 64, 127
1, 150000, Note_off_c, 0, 35, 64
1, 150035, Note_off_c, 0, 51, 49
1, 150045, Note_on_c, 0, 61, 29
1, 150047, Note_off_c, 0, 66, 57
1, 150059, Note_off_c, 0, 57, 60
1, 150061, Note_on_c, 0, 63, 43
1, 150106, Note_off_c, 0, 63, 59
1, 150128, Control_c, 0, 64, 99
1, 150143, Control_c, 0, 64, 56
1, 150147, Note_on_c, 0, 51, 87
1, 150149, Note_on_c, 0, 39, 88
1, 150153, Note_on_c, 0, 27, 88
1, 150157, Control_c, 0, 64, 0
1, 150168, Note_on_c, 0, 57, 62
1, 150172, Control_c, 0, 64, 36
1, 150173, Note_on_c, 0, 65, 67
1, 150187, Control_c, 0, 64, 74
1, 150201, Control_c, 0, 64, 127
1, 150205, Note_on_c, 0, 64, 43
1, 150207, Note_off_c, 0, 39, 61
1, 150229, Note_off_c, 0, 51, 62
1, 150234, Note_off_c, 0, 64, 55
1, 150243, Note_off_c, 0, 27, 59
1, 150254, Note_off_c, 0, 65, 61
1, 150294, Note_off_c, 0, 61, 51
1, 150448, Note_off_c, 0, 57, 23
1, 150469, Control_c, 0, 64, 93
1, 150484, Control_c, 0, 64, 62
1, 150492, Note_on_c, 0, 61, 78
1, 150499, Control_c, 0, 64, 0
1, 150499, Note_on_c, 0, 42, 78
1, 150502, Note_on_c, 0, 30, 79
1, 150588, Control_c, 0, 64, 59
1, 150594, Note_off_c, 0, 30, 62
1, 150603, Control_c, 0, 64, 89
1, 150618, Control_c, 0, 64, 127
1, 150630, Note_off_c, 0, 42, 62
1, 150679, Note_off_c, 0, 61, 59
1, 150708, Note_on_c, 0, 54, 63
1, 150715, Note_on_c, 0, 59, 68
1, 150718, Note_on_c, 0, 57, 60
1, 150734, Note_off_c, 0, 54, 65
1, 150752, Note_off_c, 0, 57, 62
1, 150767, Note_off_c, 0, 59, 52
1, 150838, Note_on_c, 0, 64, 72
1, 150900, Note_off_c, 0, 64, 60
1, 150907, Note_on_c, 0, 54, 59
1, 150942, Note_on_c, 0, 63, 70
1, 150975, Note_off_c, 0, 54, 62
1, 150980, Control_c, 0, 64, 81
1, 150995, Note_off_c, 0, 63, 62
1, 150995, Control_c, 0, 64, 53
1, 151010, Control_c, 0, 64, 42
1, 151017, Note_on_c, 0, 59, 68
1, 151024, Control_c, 0, 64, 65
1, 151039, Control_c, 0, 64, 89
1, 151049, Note_on_c, 0, 68, 76
1, 151054, Control_c, 0, 64, 127
1, 151098, Note_on_c, 0, 57, 73
1, 151108, Note_off_c, 0, 59, 64
1, 151121, Note_off_c, 0, 57, 68
1, 151131, Note_on_c, 0, 66, 73
1, 151134, Note_off_c, 0, 68, 60
1, 151294, Note_on_c, 0, 44, 79
1, 151295, Note_on_c, 0, 71, 80
1, 151297, Note_on_c, 0, 32, 77
1, 151298, Note_off_c, 0, 66, 58
1, 151307, Control_c, 0, 64, 97
1, 151321, Control_c, 0, 64, 63
1, 151333, Note_off_c, 0, 32, 67
1, 151336, Control_c, 0, 64, 0
1, 151366, Note_off_c, 0, 44, 58
1, 151387, Control_c, 0, 64, 48
1, 151401, Note_off_c, 0, 71, 53
1, 151402, Control_c, 0, 64, 77
1, 151417, Control_c, 0, 64, 127
1, 151426, Note_on_c, 0, 61, 74
1, 151429, Note_on_c, 0, 59, 58
1, 151435, Note_on_c, 0, 66, 65
1, 151470, Note_off_c, 0, 59, 63
1, 151483, Note_off_c, 0, 66, 51
1, 151490, Note_off_c, 0, 61, 63
1, 151543, Note_on_c, 0, 66, 73
1, 151595, Note_on_c, 0, 56, 68
1, 151621, Note_off_c, 0, 66, 61
1, 151634, Note_on_c, 0, 65, 83
1, 151684, Note_off_c, 0, 56, 62
1, 151694, Note_off_c, 0, 65, 63
1, 151718, Note_on_c, 0, 61, 73
1, 151739, Note_on_c, 0, 68, 77
1, 151769, Note_off_c, 0, 61, 64
1, 151797, Note_on_c, 0, 59, 63
1, 151822, Note_off_c, 0, 59, 64
1, 151867, Note_off_c, 0, 68, 57
1, 151899, Poly_aftertouch_c, 0, 58, 0
1, 151936, Control_c, 0, 64, 74
1, 151941, Note_on_c, 0, 72, 82
1, 151947, Note_on_c, 0, 46, 85
1, 151952, Control_c, 0, 64, 41
1, 151967, Control_c, 0, 64, 0
1, 151977, Note_on_c, 0, 61, 47
1, 151978, Note_on_c, 0, 35, 37
1, 151979, Note_off_c, 0, 46, 62
1, 151982, Control_c, 0, 64, 36
1, 151996, Control_c, 0, 64, 65
1, 152003, Note_off_c, 0, 61, 56
1, 152011, Control_c, 0, 64, 105
1, 152016, Note_off_c, 0, 35, 35
1, 152026, Control_c, 0, 64, 127
1, 152044, Note_on_c, 0, 68, 76
1, 152045, Note_on_c, 0, 63, 45
1, 152045, Note_off_c, 0, 72, 56
1, 152058, Note_on_c, 0, 61, 51
1, 152082, Note_off_c, 0, 61, 60
1, 152105, Note_off_c, 0, 68, 63
1, 152111, Note_off_c, 0, 63, 63
1, 152158, Note_on_c, 0, 68, 75
1, 152238, Note_off_c, 0, 68, 63
1, 152239, Note_on_c, 0, 58, 70
1, 152249, Note_on_c, 0, 67, 79
1, 152308, Note_off_c, 0, 58, 63
1, 152326, Note_off_c, 0, 67, 62
1, 152328, Note_on_c, 0, 71, 89
1, 152352, Note_on_c, 0, 63, 73
1, 152395, Note_off_c, 0, 63, 62
1, 152405, Note_off_c, 0, 71, 61
1, 152408, Note_on_c, 0, 61, 71
1, 152418, Note_on_c, 0, 70, 85
1, 152436, Note_off_c, 0, 61, 67
1, 152523, Note_off_c, 0, 70, 59
1, 152537, Control_c, 0, 64, 74
1, 152543, Note_on_c, 0, 75, 89
1, 152550, Note_on_c, 0, 63, 70
1, 152550, Note_on_c, 0, 36, 73
1, 152552, Note_on_c, 0, 48, 76
1, 152552, Control_c, 0, 64, 33
1, 152567, Control_c, 0, 64, 0
1, 152578, Note_on_c, 0, 38, 51
1, 152579, Note_off_c, 0, 38, 127
1, 152582, Control_c, 0, 64, 53
1, 152583, Note_off_c, 0, 36, 66
1, 152589, Note_off_c, 0, 63, 59
1, 152594, Note_off_c, 0, 48, 59
1, 152596, Control_c, 0, 64, 77
1, 152607, Note_off_c, 0, 75, 63
1, 152611, Control_c, 0, 64, 127
1, 152650, Note_on_c, 0, 70, 79
1, 152654, Note_on_c, 0, 66, 73
1, 152672, Note_on_c, 0, 63, 45
1, 152708, Note_off_c, 0, 63, 44
1, 152711, Note_off_c, 0, 66, 62
1, 152715, Note_off_c, 0, 70, 59
1, 152750, Note_on_c, 0, 70, 66
1, 152836, Note_off_c, 0, 70, 61
1, 152854, Note_on_c, 0, 69, 82
1, 152858, Note_on_c, 0, 60, 77
1, 152910, Note_off_c, 0, 69, 65
1, 152925, Note_off_c, 0, 60, 61
1, 152969, Note_on_c, 0, 65, 72
1, 152973, Note_on_c, 0, 73, 89
1, 153041, Note_off_c, 0, 65, 65
1, 153047, Note_on_c, 0, 63, 69
1, 153059, Note_on_c, 0, 72, 86
1, 153066, Note_off_c, 0, 63, 63
1, 153070, Note_off_c, 0, 73, 60
1, 153104, Note_off_c, 0, 72, 63
1, 153197, Control_c, 0, 64, 93
1, 153212, Control_c, 0, 64, 55
1, 153215, Note_on_c, 0, 78, 87
1, 153216, Note_on_c, 0, 41, 76
1, 153220, Note_on_c, 0, 29, 72
1, 153226, Control_c, 0, 64, 0
1, 153241, Control_c, 0, 64, 32
1, 153244, Note_on_c, 0, 72, 37
1, 153248, Note_off_c, 0, 29, 62
1, 153249, Note_off_c, 0, 41, 67
1, 153256, Control_c, 0, 64, 63
1, 153259, Note_on_c, 0, 31, 30
1, 153271, Note_off_c, 0, 72, 53
1, 153271, Control_c, 0, 64, 78
1, 153286, Control_c, 0, 64, 127
1, 153301, Note_off_c, 0, 31, 36
1, 153322, Note_on_c, 0, 75, 85
1, 153334, Note_on_c, 0, 72, 43
1, 153346, Note_off_c, 0, 75, 64
1, 153357, Note_off_c, 0, 78, 62
1, 153360, Note_off_c, 0, 72, 52
1, 153363, Note_on_c, 0, 76, 48
1, 153387, Note_off_c, 0, 76, 59
1, 153427, Note_on_c, 0, 82, 86
1, 153485, Note_on_c, 0, 71, 41
1, 153489, Note_on_c, 0, 72, 45
1, 153512, Note_on_c, 0, 81, 84
1, 153524, Note_off_c, 0, 82, 40
1, 153536, Note_off_c, 0, 72, 59
1, 153539, Note_off_c, 0, 71, 60
1, 153556, Note_off_c, 0, 81, 66
1, 153569, Note_on_c, 0, 77, 62
1, 153625, Note_on_c, 0, 87, 87
1, 153644, Note_off_c, 0, 77, 49
1, 153645, Note_on_c, 0, 75, 75
1, 153676, Note_off_c, 0, 87, 63
1, 153745, Note_on_c, 0, 81, 77
1, 153747, Note_off_c, 0, 75, 48
1, 153813, Note_on_c, 0, 90, 71
1, 153888, Note_off_c, 0, 90, 63
1, 153909, Note_on_c, 0, 89, 74
1, 153932, Note_off_c, 0, 81, 34
1, 153945, Note_on_c, 0, 87, 15
1, 153966, Note_off_c, 0, 89, 63
1, 153974, Note_on_c, 0, 91, 80
1, 153989, Note_off_c, 0, 87, 36
1, 154051, Note_off_c, 0, 91, 65
1, 154067, Note_on_c, 0, 84, 61
1, 154073, Note_on_c, 0, 89, 59
1, 154079, Note_on_c, 0, 72, 60
1, 154085, Note_on_c, 0, 87, 49
1, 154104, Note_off_c, 0, 84, 57
1, 154110, Note_off_c, 0, 87, 59
1, 154117, Note_off_c, 0, 89, 45
1, 154131, Note_off_c, 0, 72, 53
1, 154144, Note_on_c, 0, 90, 70
1, 154196, Note_on_c, 0, 81, 50
1, 154208, Note_on_c, 0, 84, 66
1, 154208, Note_off_c, 0, 90, 61
1, 154211, Note_on_c, 0, 87, 61
1, 154216, Note_on_c, 0, 89, 69
1, 154228, Note_off_c, 0, 81, 49
1, 154276, Note_off_c, 0, 84, 50
1, 154287, Note_off_c, 0, 87, 37
1, 154288, Note_off_c, 0, 89, 57
1, 154295, Note_on_c, 0, 91, 75
1, 154338, Note_on_c, 0, 65, 30
1, 154345, Control_c, 0, 64, 94
1, 154353, Note_on_c, 0, 67, 43
1, 154360, Control_c, 0, 64, 62
1, 154375, Note_off_c, 0, 91, 66
1, 154379, Note_off_c, 0, 65, 54
1, 154383, Control_c, 0, 64, 11
1, 154389, Note_off_c, 0, 67, 47
1, 154389, Note_on_c, 0, 84, 51
1, 154397, Control_c, 0, 64, 0
1, 154401, Note_on_c, 0, 89, 52
1, 154404, Note_on_c, 0, 87, 51
1, 154412, Control_c, 0, 64, 36
1, 154427, Control_c, 0, 64, 65
1, 154434, Note_on_c, 0, 81, 54
1, 154439, Note_off_c, 0, 84, 58
1, 154442, Control_c, 0, 64, 83
1, 154445, Note_off_c, 0, 87, 59
1, 154454, Note_off_c, 0, 89, 55
1, 154457, Control_c, 0, 64, 127
1, 154473, Note_on_c, 0, 90, 67
1, 154481, Note_off_c, 0, 81, 48
1, 154502, Note_on_c, 0, 72, 55
1, 154530, Note_off_c, 0, 72, 64
1, 154535, Note_off_c, 0, 90, 61
1, 154547, Note_on_c, 0, 84, 61
1, 154550, Note_on_c, 0, 87, 57
1, 154553, Note_on_c, 0, 89, 70
1, 154594, Note_on_c, 0, 81, 36
1, 154606, Note_off_c, 0, 84, 56
1, 154622, Note_off_c, 0, 89, 61
1, 154623, Note_off_c, 0, 81, 48
1, 154633, Note_on_c, 0, 91, 73
1, 154636, Note_off_c, 0, 87, 34
1, 154649, Control_c, 0, 64, 94
1, 154653, Note_on_c, 0, 65, 65
1, 154664, Control_c, 0, 64, 67
1, 154678, Control_c, 0, 64, 59
1, 154686, Note_off_c, 0, 65, 60
1, 154693, Control_c, 0, 64, 66
1, 154702, Note_off_c, 0, 91, 65
1, 154708, Control_c, 0, 64, 80
1, 154717, Note_on_c, 0, 84, 62
1, 154717, Note_on_c, 0, 89, 60
1, 154723, Note_on_c, 0, 87, 54
1, 154723, Control_c, 0, 64, 127
1, 154734, Note_on_c, 0, 81, 50
1, 154765, Note_off_c, 0, 84, 52
1, 154774, Note_off_c, 0, 87, 49
1, 154797, Note_on_c, 0, 90, 73
1, 154800, Note_off_c, 0, 89, 51
1, 154801, Note_off_c, 0, 81, 61
1, 154809, Note_on_c, 0, 72, 64
1, 154841, Note_off_c, 0, 72, 62
1, 154875, Note_off_c, 0, 90, 63
1, 154895, Note_on_c, 0, 84, 51
1, 154902, Note_on_c, 0, 81, 33
1, 154902, Note_on_c, 0, 87, 50
1, 154909, Note_on_c, 0, 89, 49
1, 154933, Note_off_c, 0, 84, 56
1, 154936, Note_off_c, 0, 81, 46
1, 154943, Note_off_c, 0, 87, 59
1, 154945, Control_c, 0, 64, 104
1, 154955, Note_off_c, 0, 89, 60
1, 154960, Control_c, 0, 64, 69
1, 154968, Note_on_c, 0, 91, 67
1, 154973, Note_on_c, 0, 65, 61
1, 154975, Control_c, 0, 64, 56
1, 154989, Control_c, 0, 64, 60
1, 155004, Control_c, 0, 64, 71
1, 155007, Note_off_c, 0, 65, 60
1, 155019, Control_c, 0, 64, 98
1, 155034, Control_c, 0, 64, 127
1, 155042, Note_off_c, 0, 91, 63
1, 155047, Note_on_c, 0, 84, 59
1, 155060, Note_on_c, 0, 87, 52
1, 155066, Note_on_c, 0, 89, 61
1, 155067, Note_on_c, 0, 81, 45
1, 155124, Note_off_c, 0, 84, 57
1, 155125, Note_off_c, 0, 87, 48
1, 155131, Note_off_c, 0, 81, 55
1, 155146, Note_off_c, 0, 89, 55
1, 155147, Note_on_c, 0, 72, 55
1, 155164, Note_on_c, 0, 90, 66
1, 155183, Note_off_c, 0, 72, 64
1, 155243, Note_on_c, 0, 81, 42
1, 155250, Note_off_c, 0, 90, 60
1, 155265, Note_on_c, 0, 84, 40
1, 155269, Note_on_c, 0, 89, 62
1, 155277, Note_off_c, 0, 81, 48
1, 155280, Note_on_c, 0, 87, 45
1, 155309, Control_c, 0, 64, 78
1, 155310, Note_off_c, 0, 84, 53
1, 155324, Control_c, 0, 64, 65
1, 155325, Note_off_c, 0, 87, 54
1, 155338, Note_on_c, 0, 65, 53
1, 155338, Note_off_c, 0, 89, 60
1, 155339, Control_c, 0, 64, 67
1, 155353, Control_c, 0, 64, 81
1, 155361, Note_on_c, 0, 91, 63
1, 155368, Control_c, 0, 64, 127
1, 155384, Note_off_c, 0, 65, 48
1, 155432, Note_off_c, 0, 91, 62
1, 155438, Note_on_c, 0, 84, 58
1, 155459, Note_on_c, 0, 89, 64
1, 155473, Note_on_c, 0, 81, 34
1, 155505, Note_off_c, 0, 81, 54
1, 155516, Note_off_c, 0, 84, 58
1, 155521, Note_off_c, 0, 89, 55
1, 155522, Note_on_c, 0, 72, 42
1, 155551, Note_off_c, 0, 72, 53
1, 155557, Note_on_c, 0, 91, 65
1, 155614, Note_on_c, 0, 81, 45
1, 155644, Note_off_c, 0, 91, 60
1, 155657, Note_on_c, 0, 84, 46
1, 155658, Note_on_c, 0, 89, 58
1, 155723, Note_off_c, 0, 84, 47
1, 155784, Note_off_c, 0, 89, 58
1, 155811, Note_on_c, 0, 88, 61
1, 155828, Note_on_c, 0, 75, 46
1, 155857, Note_off_c, 0, 81, 36
1, 155858, Control_c, 0, 64, 79
1, 155879, Control_c, 0, 64, 59
1, 155883, Note_off_c, 0, 88, 59
1, 155894, Control_c, 0, 64, 35
1, 155909, Control_c, 0, 64, 28
1, 155923, Note_on_c, 0, 89, 61
1, 155924, Control_c, 0, 64, 47
1, 155939, Control_c, 0, 64, 65
1, 155955, Control_c, 0, 64, 79
1, 155969, Control_c, 0, 64, 99
1, 155984, Control_c, 0, 64, 127
1, 155990, Note_off_c, 0, 75, 56
1, 155999, Note_off_c, 0, 89, 51
1, 156031, Note_on_c, 0, 101, 72
1, 156118, Note_off_c, 0, 101, 58
1, 156147, Note_on_c, 0, 90, 59
1, 156184, Note_off_c, 0, 90, 58
1, 156225, Note_on_c, 0, 101, 74
1, 156267, Note_off_c, 0, 101, 55
1, 156293, Note_on_c, 0, 91, 77
1, 156355, Note_off_c, 0, 91, 64
1, 156380, Note_on_c, 0, 92, 65
1, 156429, Control_c, 0, 64, 102
1, 156439, Note_off_c, 0, 92, 58
1, 156443, Control_c, 0, 64, 70
1, 156455, Note_on_c, 0, 93, 72
1, 156458, Control_c, 0, 64, 53
1, 156473, Control_c, 0, 64, 56
1, 156487, Control_c, 0, 64, 67
1, 156502, Control_c, 0, 64, 84
1, 156506, Note_off_c, 0, 93, 64
1, 156517, Control_c, 0, 64, 127
1, 156523, Note_on_c, 0, 98, 62
1, 156592, Note_on_c, 0, 96, 69
1, 156610, Note_off_c, 0, 98, 50
1, 156673, Note_off_c, 0, 96, 59
1, 156676, Note_on_c, 0, 94, 69
1, 156717, Control_c, 0, 64, 82
1, 156724, Note_off_c, 0, 94, 58
1, 156732, Control_c, 0, 64, 66
1, 156738, Note_on_c, 0, 91, 63
1, 156748, Control_c, 0, 64, 64
1, 156763, Control_c, 0, 64, 76
1, 156778, Control_c, 0, 64, 106
1, 156783, Note_off_c, 0, 91, 60
1, 156792, Control_c, 0, 64, 127
1, 156810, Note_on_c, 0, 89, 74
1, 156866, Note_off_c, 0, 89, 63
1, 156888, Note_on_c, 0, 86, 63
1, 156917, Note_off_c, 0, 86, 61
1, 156955, Control_c, 0, 64, 89
1, 156959, Note_on_c, 0, 87, 67
1, 156970, Control_c, 0, 64, 63
1, 156985, Control_c, 0, 64, 57
1, 157000, Control_c, 0, 64, 65
1, 157015, Control_c, 0, 64, 78
1, 157015, Note_off_c, 0, 87, 58
1, 157018, Note_on_c, 0, 91, 68
1, 157030, Control_c, 0, 64, 127
1, 157098, Note_on_c, 0, 89, 69
1, 157101, Note_off_c, 0, 91, 56
1, 157146, Note_on_c, 0, 87, 65
1, 157146, Note_off_c, 0, 89, 56
1, 157200, Note_off_c, 0, 87, 61
1, 157209, Note_on_c, 0, 84, 63
1, 157239, Note_off_c, 0, 84, 65
1, 157285, Note_on_c, 0, 81, 67
1, 157324, Note_off_c, 0, 81, 56
1, 157369, Note_on_c, 0, 82, 57
1, 157377, Control_c, 0, 64, 81
1, 157391, Control_c, 0, 64, 69
1, 157405, Note_off_c, 0, 82, 61
1, 157406, Control_c, 0, 64, 70
1, 157421, Control_c, 0, 64, 84
1, 157430, Note_on_c, 0, 86, 66
1, 157436, Control_c, 0, 64, 127
1, 157501, Note_off_c, 0, 86, 58
1, 157506, Note_on_c, 0, 84, 70
1, 157566, Note_off_c, 0, 84, 63
1, 157578, Note_on_c, 0, 82, 64
1, 157614, Note_off_c, 0, 82, 57
1, 157614, Control_c, 0, 64, 75
1, 157629, Control_c, 0, 64, 60
1, 157641, Note_on_c, 0, 79, 60
1, 157644, Control_c, 0, 64, 60
1, 157659, Control_c, 0, 64, 68
1, 157673, Note_off_c, 0, 79, 63
1, 157674, Control_c, 0, 64, 84
1, 157689, Control_c, 0, 64, 127
1, 157715, Note_on_c, 0, 77, 70
1, 157765, Note_off_c, 0, 77, 60
1, 157793, Note_on_c, 0, 74, 55
1, 157817, Note_off_c, 0, 74, 65
1, 157849, Note_on_c, 0, 75, 66
1, 157910, Note_off_c, 0, 75, 63
1, 157924, Note_on_c, 0, 79, 62
1, 158000, Note_off_c, 0, 79, 52
1, 158005, Note_on_c, 0, 77, 61
1, 158052, Note_off_c, 0, 77, 51
1, 158061, Note_on_c, 0, 75, 61
1, 158073, Control_c, 0, 64, 83
1, 158088, Control_c, 0, 64, 58
1, 158103, Control_c, 0, 64, 33
1, 158118, Note_off_c, 0, 75, 58
1, 158126, Control_c, 0, 64, 33
1, 158130, Note_on_c, 0, 72, 64
1, 158140, Control_c, 0, 64, 51
1, 158155, Control_c, 0, 64, 65
1, 158170, Control_c, 0, 64, 77
1, 158181, Note_off_c, 0, 72, 57
1, 158185, Control_c, 0, 64, 120
1, 158200, Control_c, 0, 64, 127
1, 158234, Note_on_c, 0, 69, 61
1, 158252, Note_on_c, 0, 60, 56
1, 158296, Note_off_c, 0, 69, 56
1, 158324, Note_on_c, 0, 70, 54
1, 158343, Note_off_c, 0, 60, 50
1, 158365, Note_on_c, 0, 65, 53
1, 158380, Note_off_c, 0, 70, 56
1, 158389, Note_on_c, 0, 74, 65
1, 158449, Note_off_c, 0, 65, 52
1, 158454, Note_on_c, 0, 62, 50
1, 158468, Note_off_c, 0, 74, 56
1, 158473, Note_on_c, 0, 72, 66
1, 158495, Note_off_c, 0, 62, 62
1, 158547, Note_on_c, 0, 63, 35
1, 158547, Note_off_c, 0, 72, 60
1, 158558, Note_on_c, 0, 70, 66
1, 158571, Control_c, 0, 64, 102
1, 158580, Note_off_c, 0, 63, 45
1, 158586, Control_c, 0, 64, 69
1, 158592, Note_on_c, 0, 62, 62
1, 158601, Control_c, 0, 64, 40
1, 158616, Control_c, 0, 64, 8
1, 158625, Note_off_c, 0, 70, 57
1, 158631, Control_c, 0, 64, 32
1, 158632, Note_on_c, 0, 67, 60
1, 158646, Control_c, 0, 64, 56
1, 158649, Note_off_c, 0, 62, 52
1, 158660, Control_c, 0, 64, 70
1, 158675, Control_c, 0, 64, 84
1, 158681, Note_on_c, 0, 58, 59
1, 158685, Note_off_c, 0, 67, 55
1, 158690, Control_c, 0, 64, 127
1, 158729, Note_on_c, 0, 65, 60
1, 158770, Note_off_c, 0, 58, 56
1, 158789, Note_on_c, 0, 57, 51
1, 158793, Note_off_c, 0, 65, 62
1, 158812, Note_on_c, 0, 62, 62
1, 158834, Note_off_c, 0, 57, 58
1, 158865, Note_on_c, 0, 53, 47
1, 158890, Note_off_c, 0, 62, 62
1, 158918, Note_on_c, 0, 63, 61
1, 158960, Note_off_c, 0, 53, 59
1, 158979, Control_c, 0, 64, 74
1, 158985, Note_on_c, 0, 55, 50
1, 158994, Control_c, 0, 64, 54
1, 159004, Note_off_c, 0, 63, 58
1, 159009, Control_c, 0, 64, 31
1, 159009, Note_on_c, 0, 67, 61
1, 159023, Control_c, 0, 64, 45
1, 159038, Control_c, 0, 64, 63
1, 159048, Note_off_c, 0, 55, 41
1, 159053, Control_c, 0, 64, 77
1, 159056, Note_on_c, 0, 58, 48
1, 159068, Control_c, 0, 64, 105
1, 159083, Control_c, 0, 64, 127
1, 159135, Note_off_c, 0, 67, 55
1, 159160, Note_on_c, 0, 65, 59
1, 159166, Note_off_c, 0, 58, 45
1, 159185, Note_on_c, 0, 57, 57
1, 159217, Control_c, 0, 64, 110
1, 159232, Control_c, 0, 64, 75
1, 159247, Control_c, 0, 64, 57
1, 159261, Note_off_c, 0, 65, 57
1, 159261, Control_c, 0, 64, 29
1, 159276, Control_c, 0, 64, 23
1, 159283, Note_on_c, 0, 63, 57
1, 159291, Control_c, 0, 64, 46
1, 159301, Note_on_c, 0, 55, 51
1, 159306, Control_c, 0, 64, 68
1, 159313, Note_off_c, 0, 57, 34
1, 159320, Control_c, 0, 64, 86
1, 159335, Control_c, 0, 64, 127
1, 159378, Note_off_c, 0, 55, 56
1, 159393, Note_off_c, 0, 63, 56
1, 159397, Note_on_c, 0, 60, 60
1, 159403, Note_on_c, 0, 51, 53
1, 159477, Note_off_c, 0, 60, 57
1, 159491, Note_off_c, 0, 51, 52
1, 159504, Note_on_c, 0, 48, 55
1, 159514, Note_on_c, 0, 57, 56
1, 159683, Note_off_c, 0, 57, 50
1, 159692, Note_on_c, 0, 51, 40
1, 159704, Note_on_c, 0, 60, 61
1, 159757, Control_c, 0, 64, 110
1, 159772, Control_c, 0, 64, 81
1, 159787, Control_c, 0, 64, 65
1, 159799, Note_off_c, 0, 48, 35
1, 159802, Control_c, 0, 64, 47
1, 159817, Control_c, 0, 64, 0
1, 159860, Note_on_c, 0, 55, 60
1, 159874, Note_off_c, 0, 60, 50
1, 159876, Control_c, 0, 64, 27
1, 159891, Control_c, 0, 64, 49
1, 159906, Control_c, 0, 64, 62
1, 159920, Control_c, 0, 64, 74
1, 159936, Control_c, 0, 64, 91
1, 159951, Control_c, 0, 64, 127
1, 160039, Note_off_c, 0, 55, 51
1, 160050, Note_on_c, 0, 53, 57
1, 160143, Control_c, 0, 64, 106
1, 160158, Control_c, 0, 64, 72
1, 160158, Control_c, 0, 67, 9
1, 160172, Note_off_c, 0, 51, 54
1, 160173, Control_c, 0, 64, 55
1, 160173, Control_c, 0, 67, 10
1, 160188, Control_c, 0, 64, 47
1, 160188, Control_c, 0, 67, 11
1, 160193, Note_on_c, 0, 50, 48
1, 160203, Control_c, 0, 64, 60
1, 160203, Control_c, 0, 67, 13
1, 160217, Control_c, 0, 64, 73
1, 160217, Control_c, 0, 67, 15
1, 160232, Control_c, 0, 64, 94
1, 160232, Control_c, 0, 67, 16
1, 160247, Control_c, 0, 64, 127
1, 160247, Control_c, 0, 67, 18
1, 160261, Control_c, 0, 67, 20
1, 160276, Control_c, 0, 67, 23
1, 160291, Control_c, 0, 67, 27
1, 160306, Control_c, 0, 67, 32
1, 160321, Control_c, 0, 67, 38
1, 160336, Control_c, 0, 67, 44
1, 160351, Control_c, 0, 67, 52
1, 160354, Note_on_c, 0, 48, 50
1, 160373, Control_c, 0, 67, 62
1, 160387, Control_c, 0, 67, 71
1, 160402, Control_c, 0, 67, 81
1, 160417, Control_c, 0, 67, 92
1, 160432, Control_c, 0, 67, 105
1, 160447, Control_c, 0, 67, 117
1, 160461, Control_c, 0, 67, 122
1, 160476, Control_c, 0, 67, 123
1, 160491, Control_c, 0, 67, 125
1, 160506, Control_c, 0, 67, 127
1, 160507, Note_off_c, 0, 50, 16
1, 160510, Note_on_c, 0, 46, 52
1, 160521, Control_c, 0, 67, 127
1, 160535, Control_c, 0, 64, 103
1, 160550, Control_c, 0, 64, 94
1, 160564, Note_off_c, 0, 48, 33
1, 160565, Control_c, 0, 64, 88
1, 160580, Control_c, 0, 64, 84
1, 160595, Control_c, 0, 64, 81
1, 160610, Control_c, 0, 64, 77
1, 160625, Control_c, 0, 64, 73
1, 160640, Control_c, 0, 64, 69
1, 160655, Control_c, 0, 64, 65
1, 160669, Control_c, 0, 64, 62
1, 160684, Control_c, 0, 64, 57
1, 160699, Control_c, 0, 64, 53
1, 160714, Control_c, 0, 64, 46
1, 160715, Note_on_c, 0, 62, 47
1, 160725, Note_on_c, 0, 57, 38
1, 160729, Control_c, 0, 64, 32
1, 160731, Note_on_c, 0, 41, 43
1, 160744, Control_c, 0, 64, 0
1, 160810, Note_off_c, 0, 53, 22
1, 160823, Note_off_c, 0, 46, 39
1, 160848, Control_c, 0, 64, 26
1, 160863, Control_c, 0, 64, 49
1, 160878, Control_c, 0, 64, 61
1, 160878, Control_c, 0, 67, 127
1, 160892, Control_c, 0, 64, 67
1, 160892, Control_c, 0, 67, 126
1, 160907, Control_c, 0, 64, 72
1, 160907, Control_c, 0, 67, 125
1, 160922, Control_c, 0, 64, 80
1, 160922, Control_c, 0, 67, 125
1, 160937, Control_c, 0, 64, 97
1, 160952, Control_c, 0, 64, 127
1, 160952, Control_c, 0, 67, 124
1, 160966, Note_off_c, 0, 62, 34
1, 160966, Control_c, 0, 67, 124
1, 160981, Control_c, 0, 67, 123
1, 160996, Control_c, 0, 67, 123
1, 160997, Note_off_c, 0, 41, 34
1, 161010, Control_c, 0, 67, 122
1, 161070, Control_c, 0, 67, 122
1, 161210, Control_c, 0, 67, 121
1, 161218, Note_on_c, 0, 62, 43
1, 161236, Note_on_c, 0, 46, 36
1, 161236, Note_on_c, 0, 53, 39
1, 161239, Note_on_c, 0, 58, 42
1, 161270, Control_c, 0, 67, 121
1, 161272, Note_off_c, 0, 57, 26
1, 161314, Control_c, 0, 67, 120
1, 161358, Control_c, 0, 64, 95
1, 161373, Control_c, 0, 64, 76
1, 161388, Control_c, 0, 64, 63
1, 161403, Control_c, 0, 64, 47
1, 161418, Control_c, 0, 64, 20
1, 161433, Control_c, 0, 64, 0
1, 161477, Control_c, 0, 64, 43
1, 161492, Control_c, 0, 64, 61
1, 161507, Control_c, 0, 64, 71
1, 161507, Control_c, 0, 67, 119
1, 161522, Control_c, 0, 64, 89
1, 161522, Control_c, 0, 67, 119
1, 161537, Control_c, 0, 64, 127
1, 161552, Control_c, 0, 67, 118
1, 161567, Control_c, 0, 67, 118
1, 161586, Note_off_c, 0, 53, 34
1, 161597, Control_c, 0, 67, 117
1, 161608, Note_off_c, 0, 46, 58
1, 161611, Control_c, 0, 67, 117
1, 161625, Note_off_c, 0, 62, 36
1, 161714, Control_c, 0, 67, 116
1, 161806, Note_on_c, 0, 57, 44
1, 161814, Note_on_c, 0, 41, 41
1, 161816, Note_on_c, 0, 62, 51
1, 161817, Note_on_c, 0, 53, 36
1, 161843, Note_off_c, 0, 58, 33
1, 161847, Control_c, 0, 67, 117
1, 161885, Control_c, 0, 67, 117
1, 161946, Note_off_c, 0, 53, 54
1, 161963, Note_off_c, 0, 41, 52
1, 161965, Note_off_c, 0, 62, 46
1, 161988, Control_c, 0, 67, 118
1, 162062, Control_c, 0, 67, 118
1, 162106, Control_c, 0, 67, 119
1, 162138, Note_on_c, 0, 62, 50
1, 162152, Note_on_c, 0, 53, 38
1, 162154, Note_on_c, 0, 58, 48
1, 162166, Note_on_c, 0, 46, 42
1, 162211, Control_c, 0, 64, 98
1, 162226, Control_c, 0, 64, 81
1, 162235, Note_off_c, 0, 57, 31
1, 162240, Control_c, 0, 64, 67
1, 162255, Control_c, 0, 64, 51
1, 162270, Control_c, 0, 64, 27
1, 162270, Control_c, 0, 67, 118
1, 162285, Control_c, 0, 64, 0
1, 162330, Control_c, 0, 64, 8
1, 162345, Control_c, 0, 64, 42
1, 162360, Control_c, 0, 64, 62
1, 162360, Control_c, 0, 67, 118
1, 162375, Control_c, 0, 64, 72
1, 162390, Control_c, 0, 64, 90
1, 162391, Note_off_c, 0, 62, 62
1, 162404, Control_c, 0, 64, 127
1, 162420, Note_off_c, 0, 53, 50
1, 162434, Control_c, 0, 67, 117
1, 162467, Note_off_c, 0, 46, 58
1, 162744, Note_on_c, 0, 70, 57
1, 162756, Note_on_c, 0, 62, 44
1, 162774, Note_on_c, 0, 41, 37
1, 162778, Note_on_c, 0, 53, 31
1, 162827, Control_c, 0, 67, 118
1, 162871, Control_c, 0, 67, 118
1, 162877, Note_off_c, 0, 62, 55
1, 162883, Note_off_c, 0, 58, 40
1, 162886, Control_c, 0, 67, 119
1, 162916, Control_c, 0, 67, 119
1, 162929, Note_off_c, 0, 53, 35
1, 162930, Control_c, 0, 67, 120
1, 162945, Control_c, 0, 67, 120
1, 162946, Note_off_c, 0, 41, 33
1, 163034, Control_c, 0, 67, 120
1, 163108, Control_c, 0, 67, 119
1, 163197, Note_on_c, 0, 62, 44
1, 163199, Note_on_c, 0, 58, 41
1, 163209, Note_on_c, 0, 46, 28
1, 163216, Note_on_c, 0, 53, 27
1, 163227, Control_c, 0, 67, 119
1, 163317, Control_c, 0, 67, 118
1, 163363, Note_off_c, 0, 70, 31
1, 163383, Control_c, 0, 64, 112
1, 163398, Control_c, 0, 64, 81
1, 163412, Control_c, 0, 64, 65
1, 163412, Control_c, 0, 67, 119
1, 163427, Control_c, 0, 64, 48
1, 163442, Control_c, 0, 64, 29
1, 163457, Control_c, 0, 64, 14
1, 163472, Control_c, 0, 64, 25
1, 163487, Control_c, 0, 64, 47
1, 163501, Control_c, 0, 64, 62
1, 163516, Control_c, 0, 64, 70
1, 163531, Control_c, 0, 64, 81
1, 163546, Control_c, 0, 64, 105
1, 163561, Control_c, 0, 64, 127
1, 163576, Control_c, 0, 67, 118
1, 163616, Note_off_c, 0, 53, 36
1, 163628, Note_off_c, 0, 46, 60
1, 163635, Control_c, 0, 67, 118
1, 163681, Note_off_c, 0, 58, 34
1, 163694, Control_c, 0, 67, 117
1, 163738, Control_c, 0, 67, 117
1, 163857, Control_c, 0, 67, 116
1, 163880, Note_on_c, 0, 56, 41
1, 163895, Note_on_c, 0, 40, 40
1, 163901, Note_on_c, 0, 52, 32
1, 163947, Control_c, 0, 64, 94
1, 163961, Control_c, 0, 64, 70
1, 163976, Control_c, 0, 64, 60
1, 163976, Control_c, 0, 67, 117
1, 163991, Control_c, 0, 64, 63
1, 164006, Control_c, 0, 64, 72
1, 164021, Control_c, 0, 64, 93
1, 164035, Control_c, 0, 64, 127
1, 164115, Note_off_c, 0, 40, 33
1, 164122, Note_off_c, 0, 52, 33
1, 164132, Control_c, 0, 67, 116
1, 164176, Note_off_c, 0, 56, 31
1, 164364, Note_on_c, 0, 61, 44
1, 164366, Note_on_c, 0, 45, 39
1, 164372, Note_on_c, 0, 52, 29
1, 164376, Note_on_c, 0, 57, 39
1, 164428, Control_c, 0, 67, 116
1, 164452, Note_off_c, 0, 62, 34
1, 164517, Control_c, 0, 64, 84
1, 164532, Control_c, 0, 64, 64
1, 164547, Control_c, 0, 64, 46
1, 164561, Control_c, 0, 64, 31
1, 164576, Control_c, 0, 64, 40
1, 164591, Control_c, 0, 64, 60
1, 164606, Control_c, 0, 64, 76
1, 164621, Control_c, 0, 64, 105
1, 164635, Control_c, 0, 64, 127
1, 164680, Control_c, 0, 67, 115
1, 164709, Control_c, 0, 67, 115
1, 164724, Note_off_c, 0, 52, 32
1, 164728, Note_off_c, 0, 45, 58
1, 164750, Note_off_c, 0, 61, 55
1, 164814, Control_c, 0, 67, 114
1, 164957, Note_on_c, 0, 52, 37
1, 164963, Note_on_c, 0, 40, 39
1, 164966, Note_on_c, 0, 69, 55
1, 164970, Note_on_c, 0, 61, 44
1, 165100, Note_off_c, 0, 61, 50
1, 165117, Note_off_c, 0, 57, 42
1, 165123, Note_off_c, 0, 52, 48
1, 165177, Note_off_c, 0, 40, 32
1, 165309, Note_on_c, 0, 61, 57
1, 165311, Note_on_c, 0, 57, 50
1, 165318, Note_on_c, 0, 52, 36
1, 165329, Note_on_c, 0, 45, 41
1, 165390, Note_off_c, 0, 69, 47
1, 165414, Control_c, 0, 64, 83
1, 165429, Control_c, 0, 64, 61
1, 165444, Control_c, 0, 64, 43
1, 165458, Control_c, 0, 64, 37
1, 165458, Control_c, 0, 67, 115
1, 165473, Control_c, 0, 64, 49
1, 165488, Control_c, 0, 64, 65
1, 165502, Control_c, 0, 64, 78
1, 165502, Control_c, 0, 67, 114
1, 165517, Control_c, 0, 64, 127
1, 165621, Note_off_c, 0, 52, 33
1, 165630, Control_c, 0, 67, 114
1, 165646, Note_off_c, 0, 45, 58
1, 165656, Note_off_c, 0, 61, 62
1, 165660, Control_c, 0, 67, 114
1, 165689, Control_c, 0, 67, 114
1, 165719, Control_c, 0, 67, 114
1, 165879, Note_on_c, 0, 60, 56
1, 165885, Note_on_c, 0, 38, 39
1, 165885, Note_on_c, 0, 54, 53
1, 165892, Note_on_c, 0, 50, 33
1, 165939, Note_off_c, 0, 57, 31
1, 165955, Control_c, 0, 64, 78
1, 165970, Control_c, 0, 64, 61
1, 165985, Control_c, 0, 64, 49
1, 165999, Control_c, 0, 64, 54
1, 165999, Control_c, 0, 67, 115
1, 166014, Control_c, 0, 64, 66
1, 166014, Control_c, 0, 67, 114
1, 166029, Control_c, 0, 64, 85
1, 166044, Control_c, 0, 64, 127
1, 166059, Control_c, 0, 67, 115
1, 166074, Note_off_c, 0, 50, 51
1, 166074, Control_c, 0, 67, 114
1, 166125, Note_off_c, 0, 38, 33
1, 166252, Control_c, 0, 67, 115
1, 166275, Note_on_c, 0, 55, 42
1, 166280, Note_on_c, 0, 50, 34
1, 166281, Note_on_c, 0, 58, 50
1, 166296, Note_on_c, 0, 43, 38
1, 166354, Note_off_c, 0, 54, 42
1, 166399, Note_off_c, 0, 60, 33
1, 166408, Control_c, 0, 64, 91
1, 166423, Control_c, 0, 64, 73
1, 166438, Control_c, 0, 64, 61
1, 166453, Control_c, 0, 64, 44
1, 166467, Control_c, 0, 64, 28
1, 166482, Control_c, 0, 64, 18
1, 166497, Control_c, 0, 64, 27
1, 166512, Control_c, 0, 64, 45
1, 166527, Control_c, 0, 64, 59
1, 166542, Control_c, 0, 64, 69
1, 166556, Control_c, 0, 64, 78
1, 166571, Control_c, 0, 64, 96
1, 166586, Control_c, 0, 64, 127
1, 166625, Note_off_c, 0, 50, 32
1, 166637, Note_off_c, 0, 43, 59
1, 166689, Note_off_c, 0, 55, 34
1, 166691, Note_off_c, 0, 58, 34
1, 166763, Control_c, 0, 67, 114
1, 166963, Note_on_c, 0, 60, 38
1, 166965, Note_on_c, 0, 63, 48
1, 166971, Note_on_c, 0, 36, 39
1, 166981, Note_on_c, 0, 55, 39
1, 167016, Control_c, 0, 67, 115
1, 167030, Control_c, 0, 64, 80
1, 167045, Control_c, 0, 64, 61
1, 167060, Control_c, 0, 64, 46
1, 167074, Control_c, 0, 64, 45
1, 167089, Control_c, 0, 64, 58
1, 167111, Control_c, 0, 64, 72
1, 167127, Control_c, 0, 64, 96
1, 167142, Control_c, 0, 64, 127
1, 167189, Note_off_c, 0, 55, 38
1, 167196, Note_off_c, 0, 63, 32
1, 167222, Note_off_c, 0, 36, 30
1, 167397, Note_off_c, 0, 60, 28
1, 167401, Note_on_c, 0, 58, 38
1, 167403, Note_on_c, 0, 62, 44
1, 167407, Note_on_c, 0, 53, 39
1, 167446, Note_on_c, 0, 41, 37
1, 167557, Control_c, 0, 64, 87
1, 167571, Control_c, 0, 64, 70
1, 167586, Control_c, 0, 64, 58
1, 167601, Control_c, 0, 64, 42
1, 167616, Control_c, 0, 64, 21
1, 167631, Control_c, 0, 64, 0
1, 167660, Control_c, 0, 64, 18
1, 167660, Control_c, 0, 67, 115
1, 167675, Control_c, 0, 64, 41
1, 167690, Control_c, 0, 64, 58
1, 167705, Control_c, 0, 64, 67
1, 167719, Control_c, 0, 64, 74
1, 167734, Control_c, 0, 64, 85
1, 167749, Control_c, 0, 64, 101
1, 167749, Control_c, 0, 67, 115
1, 167764, Control_c, 0, 64, 127
1, 167836, Note_off_c, 0, 62, 33
1, 167851, Note_off_c, 0, 41, 49
1, 167895, Note_off_c, 0, 53, 34
1, 167913, Note_off_c, 0, 58, 33
1, 167950, Control_c, 0, 67, 114
1, 168024, Control_c, 0, 67, 114
1, 168054, Control_c, 0, 67, 113
1, 168068, Note_on_c, 0, 60, 50
1, 168079, Note_on_c, 0, 53, 41
1, 168083, Control_c, 0, 67, 114
1, 168089, Note_on_c, 0, 41, 40
1, 168089, Note_on_c, 0, 57, 45
1, 168195, Note_off_c, 0, 41, 53
1, 168246, Note_off_c, 0, 57, 30
1, 168293, Note_off_c, 0, 53, 32
1, 168526, Note_on_c, 0, 62, 43
1, 168527, Control_c, 0, 67, 113
1, 168533, Note_on_c, 0, 46, 25
1, 168536, Note_on_c, 0, 53, 33
1, 168537, Note_on_c, 0, 34, 31
1, 168545, Note_on_c, 0, 58, 35
1, 168547, Note_off_c, 0, 60, 27
1, 168557, Control_c, 0, 67, 114
1, 168587, Control_c, 0, 67, 113
1, 168639, Control_c, 0, 64, 97
1, 168653, Control_c, 0, 64, 78
1, 168668, Control_c, 0, 64, 63
1, 168683, Control_c, 0, 64, 38
1, 168698, Control_c, 0, 64, 0
1, 168788, Control_c, 0, 64, 41
1, 168803, Control_c, 0, 64, 59
1, 168813, Note_off_c, 0, 53, 53
1, 168818, Control_c, 0, 64, 68
1, 168832, Note_off_c, 0, 34, 61
1, 168832, Control_c, 0, 64, 80
1, 168847, Control_c, 0, 64, 105
1, 168862, Control_c, 0, 64, 127
1, 168862, Control_c, 0, 67, 113
1, 168890, Note_off_c, 0, 46, 57
1, 168912, Note_off_c, 0, 58, 62
1, 168915, Note_off_c, 0, 62, 62
1, 168936, Control_c, 0, 67, 112
1, 169010, Control_c, 0, 67, 113
1, 169143, Control_c, 0, 67, 112
1, 169225, Note_on_c, 0, 74, 67
1, 169234, Note_on_c, 0, 62, 56
1, 169240, Note_on_c, 0, 65, 49
1, 169250, Note_on_c, 0, 46, 43
1, 169250, Note_on_c, 0, 58, 42
1, 169263, Note_on_c, 0, 53, 42
1, 169320, Control_c, 0, 67, 113
1, 169435, Note_off_c, 0, 58, 51
1, 169439, Note_off_c, 0, 65, 54
1, 169446, Note_off_c, 0, 53, 43
1, 169458, Note_off_c, 0, 62, 36
1, 169469, Note_off_c, 0, 46, 52
1, 169499, Note_off_c, 0, 74, 33
1, 169630, Poly_aftertouch_c, 0, 68, 127
1, 169632, Poly_aftertouch_c, 0, 69, 127
1, 169714, Control_c, 0, 67, 113
1, 169720, Poly_aftertouch_c, 0, 70, 127
1, 169722, Poly_aftertouch_c, 0, 71, 127
1, 169744, Note_on_c, 0, 74, 67
1, 169761, Note_on_c, 0, 62, 35
1, 169761, Note_on_c, 0, 66, 49
1, 169764, Note_on_c, 0, 57, 40
1, 169769, Note_on_c, 0, 60, 47
1, 169770, Note_on_c, 0, 45, 44
1, 169778, Note_on_c, 0, 50, 45
1, 169780, Poly_aftertouch_c, 0, 71, 0
1, 169795, Poly_aftertouch_c, 0, 70, 0
1, 169797, Poly_aftertouch_c, 0, 69, 0
1, 169803, Control_c, 0, 67, 113
1, 169803, Poly_aftertouch_c, 0, 68, 0
1, 169965, Control_c, 0, 64, 95
1, 169980, Control_c, 0, 64, 74
1, 169995, Control_c, 0, 64, 58
1, 170010, Control_c, 0, 64, 35
1, 170010, Control_c, 0, 67, 113
1, 170024, Control_c, 0, 64, 0
1, 170166, Control_c, 0, 64, 30
1, 170180, Control_c, 0, 64, 43
1, 170195, Control_c, 0, 64, 55
1, 170210, Control_c, 0, 64, 64
1, 170224, Control_c, 0, 64, 70
1, 170239, Control_c, 0, 64, 76
1, 170254, Control_c, 0, 64, 88
1, 170269, Control_c, 0, 64, 127
1, 170357, Note_off_c, 0, 57, 36
1, 170383, Note_off_c, 0, 74, 58
1, 170425, Note_off_c, 0, 60, 49
1, 170435, Note_off_c, 0, 62, 39
1, 170440, Note_off_c, 0, 45, 28
1, 170702, Note_off_c, 0, 66, 54
1, 170769, Note_on_c, 0, 70, 58
1, 170780, Note_on_c, 0, 67, 37
1, 170787, Note_on_c, 0, 62, 33
1, 170790, Note_on_c, 0, 43, 46
1, 170795, Note_on_c, 0, 58, 36
1, 170947, Note_off_c, 0, 50, 16
1, 170959, Control_c, 0, 64, 81
1, 170974, Control_c, 0, 64, 60
1, 170974, Control_c, 0, 67, 114
1, 170989, Control_c, 0, 64, 30
1, 170989, Control_c, 0, 67, 114
1, 171003, Control_c, 0, 64, 0
1, 171018, Control_c, 0, 64, 45
1, 171033, Control_c, 0, 64, 66
1, 171047, Control_c, 0, 64, 83
1, 171062, Control_c, 0, 64, 127
1, 171097, Note_off_c, 0, 62, 56
1, 171134, Note_off_c, 0, 58, 52
1, 171134, Note_off_c, 0, 67, 0
1, 171138, Control_c, 0, 67, 114
1, 171167, Control_c, 0, 67, 113
1, 171170, Poly_aftertouch_c, 0, 67, 0
1, 171241, Control_c, 0, 67, 113
1, 171317, Note_on_c, 0, 67, 58
1, 171329, Note_on_c, 0, 48, 51
1, 171334, Note_on_c, 0, 58, 45
1, 171344, Note_on_c, 0, 63, 40
1, 171352, Note_off_c, 0, 70, 60
1, 171419, Control_c, 0, 67, 112
1, 171453, Note_off_c, 0, 58, 56
1, 171456, Note_off_c, 0, 63, 57
1, 171463, Control_c, 0, 67, 112
1, 171466, Note_off_c, 0, 43, 30
1, 171485, Note_off_c, 0, 48, 45
1, 171523, Note_on_c, 0, 69, 61
1, 171523, Note_off_c, 0, 67, 27
1, 171523, Control_c, 0, 67, 111
1, 171567, Control_c, 0, 67, 111
1, 171612, Note_on_c, 0, 58, 53
1, 171618, Control_c, 0, 67, 110
1, 171619, Note_on_c, 0, 63, 49
1, 171619, Note_on_c, 0, 67, 69
1, 171625, Note_on_c, 0, 48, 44
1, 171676, Note_off_c, 0, 69, 30
1, 171752, Control_c, 0, 64, 109
1, 171752, Control_c, 0, 67, 110
1, 171767, Control_c, 0, 64, 70
1, 171782, Control_c, 0, 64, 46
1, 171782, Control_c, 0, 67, 110
1, 171796, Control_c, 0, 64, 0
1, 171796, Control_c, 0, 67, 110
1, 171826, Control_c, 0, 64, 42
1, 171826, Control_c, 0, 67, 110
1, 171841, Control_c, 0, 64, 68
1, 171856, Control_c, 0, 64, 87
1, 171870, Control_c, 0, 64, 127
1, 171900, Control_c, 0, 67, 111
1, 171917, Note_off_c, 0, 58, 61
1, 171920, Note_off_c, 0, 63, 57
1, 171946, Control_c, 0, 67, 110
1, 171961, Control_c, 0, 67, 111
1, 172039, Note_off_c, 0, 48, 55
1, 172177, Note_on_c, 0, 65, 61
1, 172182, Control_c, 0, 67, 111
1, 172190, Note_on_c, 0, 57, 48
1, 172212, Note_on_c, 0, 41, 43
1, 172212, Control_c, 0, 64, 116
1, 172214, Note_on_c, 0, 53, 38
1, 172227, Control_c, 0, 64, 74
1, 172237, Note_off_c, 0, 67, 32
1, 172241, Control_c, 0, 64, 50
1, 172241, Control_c, 0, 67, 112
1, 172256, Control_c, 0, 64, 0
1, 172271, Control_c, 0, 64, 17
1, 172286, Control_c, 0, 64, 52
1, 172301, Note_off_c, 0, 53, 62
1, 172301, Control_c, 0, 64, 71
1, 172316, Control_c, 0, 64, 95
1, 172331, Control_c, 0, 64, 127
1, 172331, Control_c, 0, 67, 112
1, 172349, Note_off_c, 0, 41, 63
1, 172362, Note_off_c, 0, 57, 35
1, 172397, Control_c, 0, 67, 113
1, 172420, Note_off_c, 0, 65, 61
1, 172486, Control_c, 0, 67, 113
1, 172642, Note_on_c, 0, 65, 48
1, 172647, Note_on_c, 0, 58, 38
1, 172652, Note_on_c, 0, 62, 40
1, 172653, Note_on_c, 0, 34, 41
1, 172658, Note_on_c, 0, 46, 37
1, 172708, Control_c, 0, 67, 113
1, 172724, Control_c, 0, 67, 113
1, 172739, Control_c, 0, 64, 95
1, 172754, Control_c, 0, 64, 69
1, 172769, Control_c, 0, 64, 50
1, 172784, Control_c, 0, 64, 0
1, 172842, Control_c, 0, 64, 35
1, 172857, Control_c, 0, 64, 62
1, 172866, Note_off_c, 0, 58, 53
1, 172872, Control_c, 0, 64, 73
1, 172883, Note_off_c, 0, 34, 62
1, 172887, Control_c, 0, 64, 93
1, 172902, Control_c, 0, 64, 127
1, 172910, Note_off_c, 0, 62, 58
1, 172935, Note_off_c, 0, 46, 57
1, 172966, Note_off_c, 0, 65, 61
1, 172976, Control_c, 0, 67, 113
1, 173079, Control_c, 0, 67, 112
1, 173175, Control_c, 0, 67, 113
1, 173231, Note_on_c, 0, 74, 70
1, 173241, Note_on_c, 0, 65, 47
1, 173252, Note_on_c, 0, 58, 45
1, 173252, Note_on_c, 0, 62, 54
1, 173253, Note_on_c, 0, 46, 41
1, 173261, Note_on_c, 0, 53, 40
1, 173383, Note_off_c, 0, 65, 59
1, 173397, Note_off_c, 0, 62, 54
1, 173413, Control_c, 0, 67, 113
1, 173452, Note_off_c, 0, 46, 53
1, 173460, Note_off_c, 0, 53, 34
1, 173467, Note_off_c, 0, 58, 32
1, 173580, Note_on_c, 0, 70, 79
1, 173595, Note_on_c, 0, 58, 54
1, 173595, Note_on_c, 0, 62, 54
1, 173601, Note_on_c, 0, 46, 51
1, 173601, Note_on_c, 0, 53, 48
1, 173665, Control_c, 0, 64, 109
1, 173665, Control_c, 0, 67, 114
1, 173680, Control_c, 0, 64, 72
1, 173695, Control_c, 0, 64, 53
1, 173695, Control_c, 0, 67, 114
1, 173710, Control_c, 0, 64, 44
1, 173725, Control_c, 0, 64, 60
1, 173739, Control_c, 0, 64, 79
1, 173754, Control_c, 0, 64, 127
1, 173754, Control_c, 0, 67, 115
1, 173758, Note_off_c, 0, 74, 52
1, 173777, Note_off_c, 0, 62, 54
1, 173787, Note_off_c, 0, 46, 64
1, 173816, Note_off_c, 0, 53, 62
1, 173845, Note_off_c, 0, 58, 55
1, 173903, Note_off_c, 0, 70, 61
1, 174206, Control_c, 0, 67, 115
1, 174268, Note_on_c, 0, 79, 67
1, 174283, Note_on_c, 0, 67, 52
1, 174288, Note_on_c, 0, 64, 44
1, 174291, Note_on_c, 0, 70, 51
1, 174296, Note_on_c, 0, 61, 43
1, 174312, Note_on_c, 0, 58, 40
1, 174370, Control_c, 0, 67, 115
1, 174474, Control_c, 0, 64, 89
1, 174488, Control_c, 0, 64, 67
1, 174488, Control_c, 0, 67, 115
1, 174503, Control_c, 0, 64, 53
1, 174518, Control_c, 0, 64, 32
1, 174533, Control_c, 0, 64, 0
1, 174629, Control_c, 0, 64, 25
1, 174644, Control_c, 0, 64, 47
1, 174659, Control_c, 0, 64, 59
1, 174674, Control_c, 0, 64, 64
1, 174689, Control_c, 0, 64, 69
1, 174703, Control_c, 0, 64, 76
1, 174718, Control_c, 0, 64, 91
1, 174733, Control_c, 0, 64, 127
1, 174792, Control_c, 0, 67, 115
1, 174822, Note_off_c, 0, 64, 40
1, 174828, Note_off_c, 0, 61, 0
1, 174868, Note_off_c, 0, 58, 38
1, 174884, Poly_aftertouch_c, 0, 61, 0
1, 174887, Note_off_c, 0, 79, 51
1, 174895, Control_c, 0, 67, 114
1, 174897, Note_off_c, 0, 70, 56
1, 174901, Note_off_c, 0, 67, 41
1, 174999, Control_c, 0, 67, 114
1, 175103, Control_c, 0, 67, 113
1, 175157, Note_on_c, 0, 77, 53
1, 175171, Note_on_c, 0, 70, 49
1, 175182, Note_on_c, 0, 62, 26
1, 175189, Note_on_c, 0, 65, 36
1, 175196, Note_on_c, 0, 58, 40
1, 175237, Control_c, 0, 64, 99
1, 175252, Control_c, 0, 64, 68
1, 175267, Control_c, 0, 64, 51
1, 175282, Control_c, 0, 64, 49
1, 175297, Control_c, 0, 64, 65
1, 175312, Control_c, 0, 64, 84
1, 175312, Control_c, 0, 67, 113
1, 175327, Control_c, 0, 64, 127
1, 175354, Note_off_c, 0, 70, 59
1, 175368, Note_off_c, 0, 58, 44
1, 175368, Note_off_c, 0, 62, 35
1, 175393, Control_c, 0, 67, 112
1, 175409, Note_off_c, 0, 65, 33
1, 175437, Control_c, 0, 67, 112
1, 175452, Control_c, 0, 67, 111
1, 175497, Control_c, 0, 67, 112
1, 175503, Note_on_c, 0, 76, 68
1, 175511, Note_on_c, 0, 70, 57
1, 175512, Control_c, 0, 67, 111
1, 175514, Note_on_c, 0, 58, 42
1, 175519, Note_on_c, 0, 61, 39
1, 175533, Note_on_c, 0, 67, 41
1, 175556, Control_c, 0, 64, 77
1, 175571, Control_c, 0, 64, 62
1, 175583, Note_off_c, 0, 77, 35
1, 175586, Control_c, 0, 64, 60
1, 175601, Control_c, 0, 64, 69
1, 175616, Control_c, 0, 64, 98
1, 175625, Note_off_c, 0, 70, 58
1, 175631, Control_c, 0, 64, 127
1, 175693, Note_off_c, 0, 61, 41
1, 175708, Note_off_c, 0, 58, 46
1, 175728, Note_off_c, 0, 67, 34
1, 175734, Control_c, 0, 67, 111
1, 175883, Note_on_c, 0, 77, 57
1, 175893, Note_on_c, 0, 58, 34
1, 175896, Note_on_c, 0, 62, 42
1, 175900, Note_on_c, 0, 70, 38
1, 175901, Note_on_c, 0, 68, 49
1, 175927, Note_off_c, 0, 76, 31
1, 175927, Control_c, 0, 67, 110
1, 176000, Control_c, 0, 64, 124
1, 176015, Control_c, 0, 64, 73
1, 176030, Control_c, 0, 64, 52
1, 176045, Control_c, 0, 64, 0
1, 176060, Control_c, 0, 67, 110
1, 176112, Control_c, 0, 64, 11
1, 176127, Control_c, 0, 64, 48
1, 176141, Control_c, 0, 64, 61
1, 176149, Note_off_c, 0, 62, 58
1, 176156, Control_c, 0, 64, 70
1, 176171, Control_c, 0, 64, 83
1, 176185, Control_c, 0, 64, 127
1, 176200, Note_off_c, 0, 58, 55
1, 176245, Control_c, 0, 67, 109
1, 176453, Control_c, 0, 67, 110
1, 176482, Control_c, 0, 67, 109
1, 176541, Note_on_c, 0, 46, 32
1, 176557, Note_on_c, 0, 34, 33
1, 176585, Control_c, 0, 67, 110
1, 176719, Note_off_c, 0, 34, 41
1, 176723, Note_off_c, 0, 46, 34
1, 176807, Note_off_c, 0, 77, 41
1, 176877, Note_on_c, 0, 46, 41
1, 176878, Note_on_c, 0, 34, 39
1, 176930, Note_off_c, 0, 68, 34
1, 176954, Note_off_c, 0, 34, 58
1, 176974, Note_off_c, 0, 70, 41
1, 176980, Note_off_c, 0, 46, 61
1, 177127, Control_c, 0, 67, 110
1, 177377, Note_on_c, 0, 70, 54
1, 177382, Note_on_c, 0, 62, 43
1, 177386, Note_on_c, 0, 58, 41
1, 177393, Note_on_c, 0, 53, 42
1, 177394, Note_on_c, 0, 46, 39
1, 177394, Note_on_c, 0, 68, 39
1, 177542, Note_off_c, 0, 53, 50
1, 177547, Note_off_c, 0, 46, 48
1, 177562, Note_off_c, 0, 68, 44
1, 177574, Note_off_c, 0, 58, 34
1, 177588, Note_off_c, 0, 70, 35
1, 177594, Note_off_c, 0, 62, 32
1, 177684, Control_c, 0, 67, 110
1, 177826, Note_on_c, 0, 70, 60
1, 177831, Note_on_c, 0, 62, 48
1, 177833, Note_on_c, 0, 68, 46
1, 177844, Note_on_c, 0, 58, 35
1, 177856, Note_on_c, 0, 46, 28
1, 177861, Note_on_c, 0, 53, 40
1, 177876, Control_c, 0, 67, 109
1, 177995, Control_c, 0, 67, 109
1, 178024, Control_c, 0, 64, 114
1, 178039, Control_c, 0, 64, 79
1, 178054, Control_c, 0, 64, 58
1, 178069, Control_c, 0, 64, 28
1, 178083, Control_c, 0, 64, 0
1, 178128, Control_c, 0, 64, 29
1, 178143, Control_c, 0, 64, 51
1, 178157, Control_c, 0, 64, 62
1, 178157, Control_c, 0, 67, 109
1, 178172, Control_c, 0, 64, 68
1, 178187, Control_c, 0, 64, 76
1, 178202, Control_c, 0, 64, 94
1, 178217, Control_c, 0, 64, 127
1, 178224, Note_off_c, 0, 62, 33
1, 178276, Note_off_c, 0, 68, 0
1, 178278, Note_off_c, 0, 53, 56
1, 178285, Note_off_c, 0, 58, 35
1, 178302, Note_off_c, 0, 46, 36
1, 178305, Poly_aftertouch_c, 0, 68, 0
1, 178625, Note_on_c, 0, 67, 34
1, 178641, Note_on_c, 0, 58, 30
1, 178647, Note_on_c, 0, 63, 32
1, 178653, Note_on_c, 0, 51, 33
1, 178669, Control_c, 0, 64, 76
1, 178684, Control_c, 0, 64, 59
1, 178699, Control_c, 0, 64, 43
1, 178713, Control_c, 0, 64, 46
1, 178728, Control_c, 0, 64, 60
1, 178743, Control_c, 0, 64, 74
1, 178758, Control_c, 0, 64, 127
1, 178773, Control_c, 0, 67, 110
1, 178802, Control_c, 0, 67, 109
1, 178827, Note_off_c, 0, 67, 40
1, 178831, Note_off_c, 0, 58, 41
1, 178832, Note_off_c, 0, 63, 37
1, 178846, Note_off_c, 0, 51, 38
1, 178971, Note_on_c, 0, 67, 40
1, 178974, Note_on_c, 0, 51, 42
1, 178977, Note_on_c, 0, 63, 36
1, 178990, Note_on_c, 0, 58, 35
1, 179175, Note_off_c, 0, 58, 33
1, 179201, Note_off_c, 0, 67, 34
1, 179226, Control_c, 0, 67, 109
1, 179284, Note_off_c, 0, 63, 32
1, 179286, Note_off_c, 0, 51, 30
1, 179300, Control_c, 0, 67, 108
1, 179524, Note_on_c, 0, 75, 55
1, 179532, Note_on_c, 0, 63, 37
1, 179551, Note_on_c, 0, 67, 42
1, 179562, Note_on_c, 0, 48, 39
1, 179563, Note_on_c, 0, 60, 35
1, 179582, Control_c, 0, 64, 99
1, 179597, Control_c, 0, 64, 72
1, 179611, Control_c, 0, 64, 58
1, 179626, Control_c, 0, 64, 51
1, 179637, Note_off_c, 0, 70, 39
1, 179641, Control_c, 0, 64, 58
1, 179655, Control_c, 0, 64, 68
1, 179670, Control_c, 0, 64, 87
1, 179685, Control_c, 0, 64, 127
1, 179741, Note_off_c, 0, 60, 40
1, 179742, Note_off_c, 0, 75, 55
1, 179743, Note_off_c, 0, 48, 51
1, 179765, Note_off_c, 0, 67, 39
1, 179773, Note_off_c, 0, 63, 33
1, 179881, Note_on_c, 0, 75, 62
1, 179899, Note_on_c, 0, 60, 38
1, 179900, Note_on_c, 0, 63, 49
1, 179901, Note_on_c, 0, 67, 55
1, 179904, Note_on_c, 0, 48, 51
1, 180092, Note_off_c, 0, 67, 56
1, 180133, Note_off_c, 0, 75, 61
1, 180165, Note_off_c, 0, 60, 48
1, 180194, Note_off_c, 0, 63, 60
1, 180197, Control_c, 0, 67, 109
1, 180218, Note_off_c, 0, 48, 54
1, 180448, Control_c, 0, 67, 108
1, 180463, Control_c, 0, 67, 109
1, 180472, Note_on_c, 0, 60, 37
1, 180475, Note_on_c, 0, 67, 40
1, 180492, Note_on_c, 0, 55, 32
1, 180492, Note_on_c, 0, 63, 28
1, 180509, Note_on_c, 0, 48, 23
1, 180656, Note_off_c, 0, 63, 44
1, 180680, Note_off_c, 0, 55, 33
1, 180683, Note_off_c, 0, 60, 33
1, 180693, Note_off_c, 0, 67, 32
1, 180710, Note_off_c, 0, 48, 35
1, 180857, Note_on_c, 0, 67, 42
1, 180861, Note_on_c, 0, 60, 39
1, 180866, Note_on_c, 0, 55, 30
1, 180868, Note_on_c, 0, 48, 38
1, 180871, Control_c, 0, 67, 109
1, 180883, Note_on_c, 0, 63, 30
1, 181020, Control_c, 0, 67, 110
1, 181036, Note_off_c, 0, 63, 42
1, 181044, Note_off_c, 0, 60, 34
1, 181101, Note_off_c, 0, 48, 57
1, 181104, Note_off_c, 0, 55, 34
1, 181422, Note_on_c, 0, 70, 54
1, 181426, Note_on_c, 0, 58, 43
1, 181439, Note_on_c, 0, 62, 38
1, 181451, Note_on_c, 0, 43, 35
1, 181464, Note_on_c, 0, 55, 32
1, 181502, Control_c, 0, 64, 96
1, 181517, Control_c, 0, 64, 68
1, 181518, Note_off_c, 0, 67, 45
1, 181531, Control_c, 0, 64, 54
1, 181561, Control_c, 0, 64, 64
1, 181576, Control_c, 0, 64, 79
1, 181591, Control_c, 0, 64, 127
1, 181591, Control_c, 0, 67, 110
1, 181652, Note_off_c, 0, 62, 41
1, 181657, Note_off_c, 0, 55, 38
1, 181667, Note_off_c, 0, 43, 38
1, 181673, Note_off_c, 0, 58, 43
1, 181694, Note_off_c, 0, 70, 35
1, 181813, Note_on_c, 0, 70, 64
1, 181822, Note_on_c, 0, 58, 46
1, 181824, Note_on_c, 0, 43, 34
1, 181831, Note_on_c, 0, 55, 38
1, 181833, Note_on_c, 0, 62, 43
1, 181932, Control_c, 0, 64, 89
1, 181947, Control_c, 0, 64, 67
1, 181962, Control_c, 0, 64, 52
1, 181977, Control_c, 0, 64, 50
1, 181992, Control_c, 0, 64, 61
1, 181998, Note_off_c, 0, 62, 46
1, 182006, Control_c, 0, 64, 75
1, 182021, Control_c, 0, 64, 127
1, 182177, Control_c, 0, 67, 111
1, 182198, Note_off_c, 0, 58, 33
1, 182257, Note_off_c, 0, 55, 41
1, 182326, Control_c, 0, 67, 111
1, 182345, Note_off_c, 0, 43, 35
1, 182371, Note_on_c, 0, 72, 60
1, 182372, Note_on_c, 0, 58, 48
1, 182392, Note_on_c, 0, 48, 40
1, 182394, Note_on_c, 0, 64, 46
1, 182430, Note_off_c, 0, 70, 60
1, 182472, Note_off_c, 0, 64, 48
1, 182488, Control_c, 0, 67, 111
1, 182520, Note_off_c, 0, 48, 55
1, 182577, Control_c, 0, 67, 111
1, 182588, Note_off_c, 0, 58, 31
1, 182785, Note_on_c, 0, 65, 45
1, 182797, Note_on_c, 0, 41, 35
1, 182812, Note_on_c, 0, 63, 39
1, 182812, Note_on_c, 0, 48, 34
1, 182815, Note_on_c, 0, 58, 49
1, 182834, Note_off_c, 0, 72, 39
1, 182866, Control_c, 0, 64, 89
1, 182880, Control_c, 0, 64, 70
1, 182895, Control_c, 0, 64, 53
1, 182910, Control_c, 0, 64, 9
1, 182910, Control_c, 0, 67, 112
1, 182925, Control_c, 0, 64, 0
1, 182955, Control_c, 0, 64, 43
1, 182970, Control_c, 0, 64, 63
1, 182985, Control_c, 0, 64, 79
1, 183000, Control_c, 0, 64, 127
1, 183029, Note_off_c, 0, 58, 48
1, 183074, Control_c, 0, 67, 111
1, 183144, Note_on_c, 0, 57, 55
1, 183208, Control_c, 0, 64, 86
1, 183222, Control_c, 0, 64, 67
1, 183237, Control_c, 0, 64, 62
1, 183252, Control_c, 0, 64, 74
1, 183252, Control_c, 0, 67, 112
1, 183267, Control_c, 0, 64, 114
1, 183282, Control_c, 0, 64, 127
1, 183403, Note_off_c, 0, 57, 34
1, 183429, Control_c, 0, 64, 81
1, 183432, Note_on_c, 0, 62, 58
1, 183444, Control_c, 0, 64, 64
1, 183459, Control_c, 0, 64, 63
1, 183474, Control_c, 0, 64, 70
1, 183489, Control_c, 0, 64, 89
1, 183503, Control_c, 0, 64, 127
1, 183548, Control_c, 0, 67, 112
1, 183703, Control_c, 0, 67, 113
1, 183718, Control_c, 0, 67, 112
1, 183748, Control_c, 0, 67, 113
1, 183790, Note_off_c, 0, 62, 37
1, 183792, Control_c, 0, 67, 112
1, 183794, Note_on_c, 0, 60, 52
1, 183867, Note_off_c, 0, 63, 41
1, 183882, Control_c, 0, 67, 113
1, 183897, Control_c, 0, 64, 96
1, 183912, Control_c, 0, 64, 69
1, 183927, Control_c, 0, 64, 51
1, 183941, Control_c, 0, 64, 41
1, 183956, Control_c, 0, 64, 51
1, 183956, Control_c, 0, 67, 113
1, 183971, Control_c, 0, 64, 68
1, 183986, Control_c, 0, 64, 89
1, 184001, Control_c, 0, 64, 127
1, 184016, Control_c, 0, 67, 113
1, 184031, Control_c, 0, 67, 113
1, 184046, Control_c, 0, 67, 113
1, 184060, Note_off_c, 0, 48, 33
1, 184099, Note_off_c, 0, 60, 55
1, 184106, Note_on_c, 0, 55, 45
1, 184133, Control_c, 0, 67, 112
1, 184173, Note_off_c, 0, 41, 24
1, 184348, Note_off_c, 0, 55, 53
1, 184401, Note_on_c, 0, 57, 46
1, 184466, Control_c, 0, 67, 112
1, 184511, Control_c, 0, 67, 112
1, 184526, Control_c, 0, 67, 112
1, 184553, Note_off_c, 0, 57, 31
1, 184788, Note_on_c, 0, 55, 31
1, 184788, Note_on_c, 0, 62, 43
1, 184801, Note_on_c, 0, 46, 39
1, 184985, Control_c, 0, 64, 91
1, 185000, Control_c, 0, 64, 65
1, 185015, Control_c, 0, 64, 42
1, 185030, Control_c, 0, 64, 0
1, 185059, Control_c, 0, 64, 45
1, 185081, Control_c, 0, 64, 67
1, 185096, Control_c, 0, 64, 81
1, 185111, Control_c, 0, 64, 119
1, 185126, Control_c, 0, 64, 127
1, 185160, Note_off_c, 0, 62, 59
1, 185170, Control_c, 0, 67, 111
1, 185198, Note_on_c, 0, 53, 47
1, 185211, Note_off_c, 0, 65, 39
1, 185244, Control_c, 0, 67, 111
1, 185304, Control_c, 0, 67, 110
1, 185307, Note_off_c, 0, 55, 33
1, 185392, Control_c, 0, 67, 110
1, 185422, Control_c, 0, 67, 110
1, 185452, Control_c, 0, 67, 110
1, 185466, Control_c, 0, 64, 84
1, 185481, Control_c, 0, 64, 61
1, 185497, Control_c, 0, 64, 44
1, 185497, Control_c, 0, 67, 110
1, 185512, Control_c, 0, 64, 46
1, 185527, Control_c, 0, 64, 58
1, 185542, Control_c, 0, 64, 71
1, 185542, Control_c, 0, 67, 110
1, 185557, Control_c, 0, 64, 90
1, 185557, Control_c, 0, 67, 110
1, 185572, Control_c, 0, 64, 127
1, 185596, Note_on_c, 0, 74, 48
1, 185619, Note_on_c, 0, 62, 35
1, 185654, Note_off_c, 0, 53, 32
1, 185661, Control_c, 0, 67, 110
1, 185695, Note_off_c, 0, 46, 38
1, 185760, Note_off_c, 0, 62, 34
1, 185761, Note_off_c, 0, 74, 34
1, 185794, Control_c, 0, 67, 109
1, 186038, Control_c, 0, 67, 109
1, 186070, Note_on_c, 0, 74, 49
1, 186076, Note_on_c, 0, 62, 44
1, 186082, Note_on_c, 0, 53, 36
1, 186084, Note_on_c, 0, 46, 32
1, 186320, Control_c, 0, 67, 109
1, 186429, Note_off_c, 0, 53, 33
1, 186453, Control_c, 0, 67, 109
1, 186473, Note_off_c, 0, 46, 32
1, 186498, Control_c, 0, 67, 108
1, 186511, Note_off_c, 0, 62, 32
1, 186685, Note_on_c, 0, 70, 63
1, 186700, Note_on_c, 0, 54, 38
1, 186707, Note_on_c, 0, 46, 30
1, 186711, Note_on_c, 0, 62, 37
1, 186713, Control_c, 0, 67, 109
1, 186762, Note_off_c, 0, 74, 53
1, 186875, Note_off_c, 0, 54, 38
1, 186884, Note_off_c, 0, 46, 36
1, 186886, Note_off_c, 0, 70, 58
1, 186899, Note_off_c, 0, 62, 27
1, 187008, Note_on_c, 0, 70, 69
1, 187011, Note_on_c, 0, 54, 46
1, 187017, Note_on_c, 0, 46, 39
1, 187024, Note_on_c, 0, 62, 47
1, 187068, Control_c, 0, 67, 108
1, 187143, Control_c, 0, 64, 99
1, 187158, Control_c, 0, 64, 73
1, 187173, Control_c, 0, 64, 60
1, 187187, Control_c, 0, 64, 57
1, 187202, Control_c, 0, 64, 63
1, 187217, Control_c, 0, 64, 77
1, 187232, Control_c, 0, 64, 127
1, 187335, Note_off_c, 0, 46, 57
1, 187343, Note_off_c, 0, 62, 55
1, 187417, Control_c, 0, 67, 109
1, 187418, Note_off_c, 0, 54, 32
1, 187504, Note_on_c, 0, 46, 44
1, 187510, Note_off_c, 0, 70, 60
1, 187519, Note_on_c, 0, 67, 61
1, 187522, Note_on_c, 0, 55, 46
1, 187522, Note_on_c, 0, 62, 49
1, 187582, Note_off_c, 0, 62, 53
1, 187594, Control_c, 0, 67, 109
1, 187607, Note_off_c, 0, 67, 46
1, 187616, Note_off_c, 0, 46, 62
1, 187624, Control_c, 0, 67, 110
1, 187631, Note_off_c, 0, 55, 52
1, 187654, Control_c, 0, 67, 110
1, 187668, Control_c, 0, 67, 111
1, 187727, Note_on_c, 0, 69, 54
1, 187757, Control_c, 0, 67, 110
1, 187791, Note_on_c, 0, 63, 54
1, 187792, Note_on_c, 0, 58, 54
1, 187803, Note_on_c, 0, 67, 65
1, 187805, Note_on_c, 0, 55, 51
1, 187825, Note_on_c, 0, 48, 50
1, 187887, Note_off_c, 0, 69, 38
1, 187951, Control_c, 0, 64, 105
1, 187966, Control_c, 0, 64, 73
1, 187966, Control_c, 0, 67, 110
1, 187981, Control_c, 0, 64, 51
1, 187981, Control_c, 0, 67, 110
1, 187996, Control_c, 0, 64, 0
1, 188025, Control_c, 0, 67, 110
1, 188040, Control_c, 0, 64, 53
1, 188055, Control_c, 0, 64, 71
1, 188077, Control_c, 0, 64, 95
1, 188091, Control_c, 0, 64, 127
1, 188091, Control_c, 0, 67, 110
1, 188128, Note_off_c, 0, 63, 56
1, 188146, Note_off_c, 0, 55, 50
1, 188165, Control_c, 0, 67, 110
1, 188197, Note_off_c, 0, 58, 0
1, 188225, Control_c, 0, 67, 109
1, 188235, Note_off_c, 0, 48, 32
1, 188242, Poly_aftertouch_c, 0, 58, 0
1, 188302, Note_on_c, 0, 48, 51
1, 188313, Note_on_c, 0, 65, 65
1, 188318, Note_on_c, 0, 63, 56
1, 188326, Note_on_c, 0, 57, 56
1, 188388, Control_c, 0, 67, 110
1, 188462, Note_off_c, 0, 67, 35
1, 188478, Note_off_c, 0, 57, 59
1, 188518, Note_off_c, 0, 65, 32
1, 188640, Note_on_c, 0, 65, 67
1, 188647, Note_on_c, 0, 57, 54
1, 188650, Note_on_c, 0, 62, 60
1, 188661, Note_on_c, 0, 50, 59
1, 188678, Note_off_c, 0, 63, 58
1, 188720, Note_off_c, 0, 48, 55
1, 188760, Control_c, 0, 67, 109
1, 188774, Control_c, 0, 64, 124
1, 188789, Control_c, 0, 64, 78
1, 188804, Control_c, 0, 64, 58
1, 188804, Control_c, 0, 67, 110
1, 188827, Control_c, 0, 64, 17
1, 188827, Control_c, 0, 67, 109
1, 188841, Control_c, 0, 64, 0
1, 188901, Control_c, 0, 67, 109
1, 188915, Control_c, 0, 64, 49
1, 188915, Control_c, 0, 67, 107
1, 188930, Control_c, 0, 64, 67
1, 188930, Control_c, 0, 67, 107
1, 188945, Control_c, 0, 64, 84
1, 188949, Note_off_c, 0, 65, 63
1, 188960, Control_c, 0, 64, 127
1, 188974, Control_c, 0, 67, 106
1, 189004, Control_c, 0, 67, 106
1, 189041, Note_off_c, 0, 57, 35
1, 189043, Note_off_c, 0, 62, 59
1, 189045, Note_off_c, 0, 50, 58
1, 189184, Note_on_c, 0, 74, 78
1, 189186, Note_on_c, 0, 66, 58
1, 189188, Note_on_c, 0, 50, 58
1, 189194, Note_on_c, 0, 57, 61
1, 189199, Note_on_c, 0, 60, 62
1, 189256, Control_c, 0, 67, 105
1, 189359, Control_c, 0, 67, 105
1, 189364, Note_off_c, 0, 60, 59
1, 189376, Note_off_c, 0, 66, 35
1, 189382, Note_off_c, 0, 74, 60
1, 189388, Note_off_c, 0, 57, 47
1, 189404, Control_c, 0, 67, 104
1, 189419, Control_c, 0, 67, 102
1, 189434, Control_c, 0, 67, 101
1, 189448, Control_c, 0, 67, 100
1, 189478, Control_c, 0, 67, 101
1, 189565, Note_on_c, 0, 70, 85
1, 189575, Note_on_c, 0, 55, 66
1, 189575, Control_c, 0, 67, 100
1, 189578, Note_on_c, 0, 58, 70
1, 189583, Note_on_c, 0, 67, 55
1, 189589, Note_on_c, 0, 51, 61
1, 189611, Note_off_c, 0, 50, 55
1, 189635, Control_c, 0, 64, 103
1, 189635, Control_c, 0, 67, 100
1, 189650, Control_c, 0, 64, 72
1, 189664, Control_c, 0, 64, 45
1, 189679, Control_c, 0, 64, 0
1, 189679, Control_c, 0, 67, 99
1, 189709, Control_c, 0, 67, 99
1, 189723, Control_c, 0, 67, 98
1, 189753, Control_c, 0, 64, 40
1, 189768, Control_c, 0, 64, 62
1, 189783, Control_c, 0, 64, 77
1, 189783, Control_c, 0, 67, 98
1, 189795, Note_off_c, 0, 58, 60
1, 189797, Control_c, 0, 64, 127
1, 189812, Control_c, 0, 67, 97
1, 189826, Note_off_c, 0, 55, 58
1, 189842, Control_c, 0, 67, 97
1, 189843, Note_off_c, 0, 67, 56
1, 189857, Control_c, 0, 67, 96
1, 189863, Note_off_c, 0, 51, 63
1, 189871, Control_c, 0, 67, 95
1, 189886, Control_c, 0, 67, 95
1, 189901, Control_c, 0, 67, 94
1, 189915, Control_c, 0, 67, 94
1, 189930, Control_c, 0, 67, 93
1, 189935, Note_off_c, 0, 70, 62
1, 189945, Control_c, 0, 67, 92
1, 189960, Control_c, 0, 67, 90
1, 189975, Control_c, 0, 67, 89
1, 189990, Control_c, 0, 67, 88
1, 190005, Control_c, 0, 67, 88
1, 190020, Control_c, 0, 67, 87
1, 190108, Control_c, 0, 67, 88
1, 190168, Control_c, 0, 67, 88
1, 190310, Note_on_c, 0, 79, 71
1, 190318, Note_on_c, 0, 67, 55
1, 190322, Note_on_c, 0, 70, 56
1, 190323, Note_on_c, 0, 61, 49
1, 190325, Note_on_c, 0, 58, 51
1, 190327, Note_on_c, 0, 52, 45
1, 190458, Control_c, 0, 67, 89
1, 190532, Control_c, 0, 64, 95
1, 190532, Control_c, 0, 67, 89
1, 190546, Control_c, 0, 64, 71
1, 190561, Control_c, 0, 64, 54
1, 190576, Control_c, 0, 64, 14
1, 190591, Control_c, 0, 64, 0
1, 190606, Control_c, 0, 67, 90
1, 190650, Control_c, 0, 64, 18
1, 190664, Control_c, 0, 64, 40
1, 190679, Control_c, 0, 64, 56
1, 190694, Control_c, 0, 64, 65
1, 190694, Control_c, 0, 67, 90
1, 190709, Control_c, 0, 64, 72
1, 190724, Control_c, 0, 64, 86
1, 190738, Control_c, 0, 64, 127
1, 190800, Note_off_c, 0, 52, 50
1, 190897, Note_off_c, 0, 67, 51
1, 190925, Note_off_c, 0, 79, 56
1, 190938, Note_off_c, 0, 58, 33
1, 190956, Note_off_c, 0, 70, 36
1, 190960, Note_off_c, 0, 61, 34
1, 191161, Control_c, 0, 67, 90
1, 191231, Note_on_c, 0, 77, 53
1, 191247, Note_on_c, 0, 65, 36
1, 191250, Note_on_c, 0, 53, 33
1, 191254, Note_on_c, 0, 70, 40
1, 191258, Note_on_c, 0, 58, 38
1, 191266, Note_on_c, 0, 62, 29
1, 191339, Control_c, 0, 64, 74
1, 191354, Control_c, 0, 64, 54
1, 191368, Control_c, 0, 64, 41
1, 191383, Control_c, 0, 64, 58
1, 191393, Note_off_c, 0, 65, 59
1, 191398, Control_c, 0, 64, 82
1, 191413, Control_c, 0, 64, 127
1, 191414, Note_off_c, 0, 70, 54
1, 191428, Control_c, 0, 67, 90
1, 191434, Note_off_c, 0, 53, 44
1, 191457, Control_c, 0, 67, 90
1, 191483, Note_off_c, 0, 62, 33
1, 191486, Note_off_c, 0, 58, 32
1, 191565, Note_on_c, 0, 76, 66
1, 191566, Note_on_c, 0, 61, 48
1, 191567, Note_on_c, 0, 58, 11
1, 191567, Note_on_c, 0, 70, 46
1, 191571, Note_on_c, 0, 64, 54
1, 191579, Note_on_c, 0, 55, 48
1, 191621, Control_c, 0, 64, 97
1, 191635, Control_c, 0, 64, 69
1, 191638, Note_off_c, 0, 77, 35
1, 191650, Control_c, 0, 64, 54
1, 191680, Control_c, 0, 64, 66
1, 191695, Control_c, 0, 64, 91
1, 191710, Control_c, 0, 64, 127
1, 191731, Note_off_c, 0, 70, 28
1, 191760, Note_off_c, 0, 61, 57
1, 191765, Note_off_c, 0, 58, 28
1, 191787, Note_off_c, 0, 64, 32
1, 191862, Note_off_c, 0, 55, 49
1, 192020, Note_on_c, 0, 77, 56
1, 192027, Note_on_c, 0, 65, 46
1, 192042, Note_on_c, 0, 62, 29
1, 192050, Note_on_c, 0, 70, 34
1, 192054, Note_on_c, 0, 58, 27
1, 192072, Note_on_c, 0, 56, 27
1, 192075, Note_off_c, 0, 76, 29
1, 192147, Note_off_c, 0, 70, 0
1, 192147, Note_on_c, 0, 70, 3
1, 192178, Control_c, 0, 64, 101
1, 192192, Control_c, 0, 64, 74
1, 192207, Control_c, 0, 64, 51
1, 192222, Control_c, 0, 64, 0
1, 192222, Control_c, 0, 67, 89
1, 192296, Control_c, 0, 64, 42
1, 192311, Control_c, 0, 64, 59
1, 192326, Control_c, 0, 64, 67
1, 192341, Control_c, 0, 64, 76
1, 192356, Control_c, 0, 64, 92
1, 192371, Control_c, 0, 64, 127
1, 192371, Control_c, 0, 67, 89
1, 192386, Note_off_c, 0, 62, 34
1, 192425, Note_off_c, 0, 58, 54
1, 192433, Note_off_c, 0, 56, 61
1, 192571, Control_c, 0, 67, 88
1, 192600, Control_c, 0, 67, 88
1, 192779, Control_c, 0, 67, 88
1, 192813, Note_on_c, 0, 46, 30
1, 192817, Note_on_c, 0, 34, 39
1, 192867, Control_c, 0, 67, 89
1, 192986, Note_off_c, 0, 34, 53
1, 193007, Note_off_c, 0, 46, 34
1, 193060, Control_c, 0, 67, 89
1, 193086, Note_off_c, 0, 77, 39
1, 193158, Note_on_c, 0, 46, 35
1, 193164, Control_c, 0, 67, 90
1, 193173, Note_off_c, 0, 65, 31
1, 193185, Note_on_c, 0, 34, 31
1, 193208, Control_c, 0, 67, 90
1, 193262, Note_off_c, 0, 70, 40
1, 193266, Note_off_c, 0, 34, 56
1, 193314, Note_off_c, 0, 46, 35
1, 193364, Control_c, 0, 67, 91
1, 193438, Control_c, 0, 67, 91
1, 193778, Note_on_c, 0, 70, 48
1, 193781, Note_on_c, 0, 46, 36
1, 193781, Note_on_c, 0, 62, 39
1, 193784, Note_on_c, 0, 68, 38
1, 193785, Note_on_c, 0, 53, 33
1, 193795, Note_on_c, 0, 58, 35
1, 193928, Control_c, 0, 67, 91
1, 193939, Note_off_c, 0, 53, 50
1, 193948, Note_off_c, 0, 68, 41
1, 193965, Note_off_c, 0, 58, 36
1, 193969, Note_off_c, 0, 46, 33
1, 193993, Note_off_c, 0, 62, 31
1, 194005, Note_off_c, 0, 70, 32
1, 194127, Control_c, 0, 67, 90
1, 194279, Note_on_c, 0, 70, 53
1, 194289, Note_on_c, 0, 62, 41
1, 194300, Note_on_c, 0, 58, 34
1, 194300, Note_on_c, 0, 68, 43
1, 194311, Note_on_c, 0, 46, 30
1, 194324, Note_on_c, 0, 53, 35
1, 194469, Control_c, 0, 64, 100
1, 194484, Control_c, 0, 64, 76
1, 194499, Control_c, 0, 64, 61
1, 194513, Control_c, 0, 64, 45
1, 194528, Control_c, 0, 64, 35
1, 194543, Control_c, 0, 64, 36
1, 194557, Control_c, 0, 64, 49
1, 194572, Control_c, 0, 64, 62
1, 194586, Control_c, 0, 64, 72
1, 194601, Control_c, 0, 64, 88
1, 194616, Control_c, 0, 64, 127
1, 194640, Note_off_c, 0, 62, 31
1, 194681, Note_off_c, 0, 68, 40
1, 194691, Note_off_c, 0, 58, 37
1, 194692, Note_off_c, 0, 53, 55
1, 194694, Note_off_c, 0, 46, 51
1, 194905, Control_c, 0, 67, 90
1, 194995, Note_on_c, 0, 58, 23
1, 195011, Note_on_c, 0, 51, 33
1, 195011, Note_on_c, 0, 67, 33
1, 195014, Note_on_c, 0, 63, 25
1, 195038, Control_c, 0, 64, 104
1, 195053, Control_c, 0, 64, 73
1, 195068, Control_c, 0, 64, 55
1, 195084, Control_c, 0, 64, 50
1, 195099, Control_c, 0, 64, 61
1, 195114, Control_c, 0, 64, 74
1, 195129, Control_c, 0, 64, 113
1, 195143, Control_c, 0, 64, 127
1, 195143, Control_c, 0, 67, 90
1, 195178, Note_off_c, 0, 51, 50
1, 195182, Note_off_c, 0, 58, 36
1, 195203, Note_off_c, 0, 67, 39
1, 195204, Note_off_c, 0, 63, 34
1, 195342, Note_on_c, 0, 67, 42
1, 195347, Note_on_c, 0, 58, 42
1, 195355, Note_on_c, 0, 63, 34
1, 195357, Note_on_c, 0, 51, 37
1, 195590, Note_off_c, 0, 58, 30
1, 195603, Note_off_c, 0, 51, 33
1, 195612, Note_off_c, 0, 67, 31
1, 195639, Note_off_c, 0, 63, 36
1, 195640, Control_c, 0, 67, 91
1, 195714, Control_c, 0, 67, 91
1, 195847, Control_c, 0, 67, 92
1, 195899, Note_on_c, 0, 75, 53
1, 195916, Note_on_c, 0, 63, 34
1, 195919, Note_on_c, 0, 58, 35
1, 195922, Note_on_c, 0, 51, 30
1, 195922, Control_c, 0, 67, 92
1, 195923, Note_on_c, 0, 67, 42
1, 195996, Control_c, 0, 67, 93
1, 195998, Note_off_c, 0, 70, 32
1, 196056, Control_c, 0, 67, 93
1, 196079, Note_off_c, 0, 51, 44
1, 196080, Note_off_c, 0, 58, 41
1, 196085, Control_c, 0, 67, 94
1, 196107, Note_off_c, 0, 67, 41
1, 196119, Note_off_c, 0, 75, 35
1, 196124, Note_off_c, 0, 63, 32
1, 196405, Note_on_c, 0, 75, 43
1, 196411, Note_on_c, 0, 63, 31
1, 196417, Note_on_c, 0, 67, 38
1, 196430, Note_on_c, 0, 58, 29
1, 196434, Note_on_c, 0, 51, 28
1, 196522, Control_c, 0, 67, 93
1, 196551, Control_c, 0, 67, 94
1, 196596, Control_c, 0, 67, 93
1, 196640, Control_c, 0, 67, 94
1, 196686, Control_c, 0, 64, 118
1, 196700, Control_c, 0, 64, 84
1, 196715, Control_c, 0, 64, 70
1, 196730, Control_c, 0, 64, 61
1, 196745, Control_c, 0, 64, 52
1, 196745, Control_c, 0, 67, 93
1, 196760, Control_c, 0, 64, 49
1, 196774, Control_c, 0, 64, 53
1, 196789, Control_c, 0, 64, 59
1, 196804, Control_c, 0, 64, 66
1, 196819, Control_c, 0, 64, 71
1, 196834, Control_c, 0, 64, 77
1, 196849, Control_c, 0, 64, 85
1, 196849, Control_c, 0, 67, 94
1, 196864, Control_c, 0, 64, 95
1, 196879, Control_c, 0, 64, 112
1, 196894, Control_c, 0, 64, 127
1, 196894, Control_c, 0, 67, 93
1, 196923, Control_c, 0, 67, 94
1, 197553, Control_c, 0, 67, 93
1, 197569, Note_off_c, 0, 58, 35
1, 197595, Note_off_c, 0, 75, 42
1, 197642, Note_off_c, 0, 51, 37
1, 197652, Note_off_c, 0, 67, 39
1, 197755, Note_off_c, 0, 63, 32
1, 197842, Control_c, 0, 67, 93
1, 198108, Control_c, 0, 67, 92
1, 198211, Note_on_c, 0, 67, 49
1, 198225, Note_on_c, 0, 60, 45
1, 198237, Note_on_c, 0, 51, 41
1, 198352, Note_off_c, 0, 51, 0
1, 198352, Note_on_c, 0, 51, 5
1, 198391, Control_c, 0, 67, 93
1, 198394, Note_off_c, 0, 60, 50
1, 198494, Control_c, 0, 67, 92
1, 198524, Control_c, 0, 67, 93
1, 198573, Note_off_c, 0, 51, 36
1, 198576, Control_c, 0, 67, 92
1, 198679, Control_c, 0, 67, 93
1, 198712, Note_on_c, 0, 70, 54
1, 198733, Note_on_c, 0, 58, 40
1, 198739, Note_on_c, 0, 62, 38
1, 198741, Note_off_c, 0, 67, 35
1, 198751, Note_on_c, 0, 55, 41
1, 198757, Note_on_c, 0, 43, 35
1, 198887, Control_c, 0, 64, 81
1, 198902, Control_c, 0, 64, 62
1, 198917, Control_c, 0, 64, 43
1, 198931, Control_c, 0, 64, 27
1, 198946, Control_c, 0, 64, 36
1, 198961, Control_c, 0, 64, 56
1, 198976, Control_c, 0, 64, 68
1, 198991, Control_c, 0, 64, 81
1, 199005, Control_c, 0, 64, 116
1, 199020, Control_c, 0, 64, 127
1, 199043, Note_off_c, 0, 62, 52
1, 199140, Note_off_c, 0, 55, 32
1, 199208, Note_off_c, 0, 58, 33
1, 199287, Note_off_c, 0, 43, 30
1, 199447, Note_on_c, 0, 58, 46
1, 199454, Note_on_c, 0, 72, 52
1, 199477, Note_on_c, 0, 64, 41
1, 199502, Note_on_c, 0, 48, 35
1, 199523, Note_off_c, 0, 70, 49
1, 199532, Control_c, 0, 64, 118
1, 199547, Control_c, 0, 64, 74
1, 199561, Control_c, 0, 64, 58
1, 199576, Control_c, 0, 64, 46
1, 199591, Control_c, 0, 64, 53
1, 199606, Control_c, 0, 64, 66
1, 199621, Control_c, 0, 64, 86
1, 199625, Note_off_c, 0, 72, 49
1, 199636, Control_c, 0, 64, 127
1, 199657, Note_off_c, 0, 58, 53
1, 199690, Note_off_c, 0, 64, 59
1, 199766, Note_off_c, 0, 48, 32
1, 199798, Control_c, 0, 67, 93
1, 199819, Note_on_c, 0, 41, 42
1, 199827, Control_c, 0, 67, 94
1, 199888, Control_c, 0, 67, 94
1, 199903, Control_c, 0, 67, 95
1, 199917, Control_c, 0, 67, 95
1, 199942, Note_on_c, 0, 57, 54
1, 199962, Control_c, 0, 67, 96
1, 199991, Control_c, 0, 64, 87
1, 200006, Control_c, 0, 64, 63
1, 200006, Control_c, 0, 67, 96
1, 200021, Control_c, 0, 64, 45
1, 200036, Control_c, 0, 64, 48
1, 200036, Control_c, 0, 67, 97
1, 200037, Note_on_c, 0, 63, 47
1, 200058, Control_c, 0, 64, 65
1, 200073, Control_c, 0, 64, 83
1, 200088, Control_c, 0, 64, 127
1, 200103, Control_c, 0, 67, 97
1, 200280, Control_c, 0, 67, 97
1, 200379, Note_on_c, 0, 72, 54
1, 200458, Control_c, 0, 67, 96
1, 200517, Control_c, 0, 64, 107
1, 200532, Control_c, 0, 64, 85
1, 200532, Control_c, 0, 67, 97
1, 200547, Control_c, 0, 64, 70
1, 200562, Control_c, 0, 64, 55
1, 200576, Control_c, 0, 64, 27
1, 200591, Control_c, 0, 64, 0
1, 200636, Control_c, 0, 64, 14
1, 200650, Control_c, 0, 64, 45
1, 200665, Control_c, 0, 64, 61
1, 200681, Control_c, 0, 64, 67
1, 200696, Control_c, 0, 64, 73
1, 200711, Control_c, 0, 64, 83
1, 200725, Control_c, 0, 64, 101
1, 200725, Control_c, 0, 67, 96
1, 200740, Control_c, 0, 64, 127
1, 200801, Note_off_c, 0, 41, 52
1, 200822, Control_c, 0, 67, 96
1, 200834, Note_off_c, 0, 57, 37
1, 200848, Note_off_c, 0, 72, 32
1, 200881, Control_c, 0, 67, 95
1, 200915, Note_off_c, 0, 63, 61
1, 200955, Control_c, 0, 67, 95
1, 201029, Control_c, 0, 67, 94
1, 201297, Note_on_c, 0, 70, 45
1, 201302, Note_on_c, 0, 34, 37
1, 201311, Note_on_c, 0, 62, 34
1, 201314, Note_on_c, 0, 58, 34
1, 201369, Control_c, 0, 64, 109
1, 201384, Control_c, 0, 64, 71
1, 201398, Control_c, 0, 64, 54
1, 201413, Control_c, 0, 64, 46
1, 201428, Control_c, 0, 64, 57
1, 201442, Control_c, 0, 64, 71
1, 201457, Control_c, 0, 64, 95
1, 201474, Control_c, 0, 64, 127
1, 201474, Control_c, 0, 67, 95
1, 201483, Note_off_c, 0, 34, 60
1, 201503, Control_c, 0, 67, 94
1, 201584, Note_off_c, 0, 62, 39
1, 201585, Control_c, 0, 67, 94
1, 201588, Note_off_c, 0, 58, 37
1, 201603, Note_off_c, 0, 70, 32
1, 201718, Control_c, 0, 67, 93
1, 201908, Note_on_c, 0, 70, 41
1, 201912, Note_on_c, 0, 53, 25
1, 201913, Note_on_c, 0, 46, 25
1, 201924, Note_on_c, 0, 62, 32
1, 201926, Note_on_c, 0, 58, 34
1, 202208, Control_c, 0, 64, 101
1, 202222, Control_c, 0, 64, 78
1, 202237, Control_c, 0, 64, 63
1, 202252, Control_c, 0, 64, 46
1, 202268, Control_c, 0, 64, 30
1, 202283, Control_c, 0, 64, 28
1, 202304, Control_c, 0, 64, 44
1, 202319, Control_c, 0, 64, 60
1, 202334, Control_c, 0, 64, 67
1, 202349, Control_c, 0, 64, 72
1, 202364, Control_c, 0, 64, 75
1, 202378, Control_c, 0, 64, 78
1, 202393, Control_c, 0, 64, 82
1, 202408, Control_c, 0, 64, 94
1, 202423, Control_c, 0, 64, 127
1, 202648, Note_off_c, 0, 53, 33
1, 202676, Note_off_c, 0, 70, 40
1, 202678, Note_off_c, 0, 58, 40
1, 202737, Note_off_c, 0, 62, 49
1, 202803, Note_off_c, 0, 46, 35
1, 203001, Control_c, 0, 67, 93
1, 203127, Control_c, 0, 67, 92
1, 203216, Control_c, 0, 67, 92
1, 203288, Note_on_c, 0, 50, 44
1, 203290, Note_on_c, 0, 62, 42
1, 203335, Control_c, 0, 67, 92
1, 203365, Control_c, 0, 67, 92
1, 203394, Control_c, 0, 67, 92
1, 203409, Control_c, 0, 64, 100
1, 203424, Control_c, 0, 64, 83
1, 203439, Control_c, 0, 64, 75
1, 203453, Control_c, 0, 64, 70
1, 203468, Control_c, 0, 64, 66
1, 203483, Control_c, 0, 64, 61
1, 203498, Control_c, 0, 64, 54
1, 203513, Control_c, 0, 64, 44
1, 203527, Control_c, 0, 64, 28
1, 203542, Control_c, 0, 64, 0
1, 203542, Control_c, 0, 67, 93
1, 203572, Control_c, 0, 67, 92
1, 203705, Control_c, 0, 64, 10
1, 203720, Control_c, 0, 64, 37
1, 203720, Note_on_c, 0, 42, 43
1, 203735, Control_c, 0, 64, 51
1, 203739, Note_on_c, 0, 60, 40
1, 203750, Control_c, 0, 64, 60
1, 203764, Control_c, 0, 64, 64
1, 203779, Control_c, 0, 64, 65
1, 203801, Control_c, 0, 64, 68
1, 203812, Note_off_c, 0, 62, 42
1, 203816, Control_c, 0, 64, 74
1, 203831, Control_c, 0, 64, 91
1, 203845, Control_c, 0, 64, 127
1, 203876, Note_off_c, 0, 50, 29
1, 203930, Note_on_c, 0, 51, 45
1, 203936, Note_on_c, 0, 63, 38
1, 204128, Control_c, 0, 67, 92
1, 204131, Note_on_c, 0, 62, 49
1, 204141, Note_off_c, 0, 63, 34
1, 204146, Note_on_c, 0, 50, 51
1, 204173, Control_c, 0, 64, 109
1, 204188, Control_c, 0, 64, 80
1, 204203, Control_c, 0, 64, 63
1, 204217, Control_c, 0, 64, 47
1, 204224, Note_off_c, 0, 62, 54
1, 204232, Control_c, 0, 64, 37
1, 204247, Control_c, 0, 64, 43
1, 204250, Note_on_c, 0, 69, 54
1, 204261, Control_c, 0, 64, 59
1, 204276, Control_c, 0, 64, 70
1, 204276, Control_c, 0, 67, 91
1, 204291, Control_c, 0, 64, 88
1, 204306, Control_c, 0, 64, 127
1, 204323, Note_off_c, 0, 69, 60
1, 204331, Note_off_c, 0, 60, 35
1, 204334, Note_off_c, 0, 42, 55
1, 204354, Note_on_c, 0, 66, 62
1, 204382, Note_off_c, 0, 51, 21
1, 204394, Control_c, 0, 67, 91
1, 204409, Control_c, 0, 67, 89
1, 204424, Control_c, 0, 67, 88
1, 204439, Control_c, 0, 67, 87
1, 204449, Note_on_c, 0, 63, 63
1, 204449, Note_off_c, 0, 66, 55
1, 204454, Control_c, 0, 67, 87
1, 204468, Control_c, 0, 67, 85
1, 204483, Control_c, 0, 67, 83
1, 204498, Control_c, 0, 67, 77
1, 204513, Control_c, 0, 67, 70
1, 204528, Control_c, 0, 67, 64
1, 204550, Control_c, 0, 67, 59
1, 204560, Note_off_c, 0, 63, 53
1, 204565, Note_on_c, 0, 43, 58
1, 204565, Control_c, 0, 67, 52
1, 204569, Note_on_c, 0, 58, 60
1, 204578, Note_on_c, 0, 62, 59
1, 204580, Control_c, 0, 67, 45
1, 204594, Control_c, 0, 67, 38
1, 204609, Control_c, 0, 67, 31
1, 204624, Control_c, 0, 64, 96
1, 204624, Control_c, 0, 67, 23
1, 204639, Control_c, 0, 64, 67
1, 204639, Control_c, 0, 67, 18
1, 204646, Note_off_c, 0, 50, 34
1, 204654, Control_c, 0, 64, 47
1, 204654, Control_c, 0, 67, 12
1, 204670, Note_on_c, 0, 51, 49
1, 204670, Control_c, 0, 64, 27
1, 204670, Control_c, 0, 67, 0
1, 204677, Note_off_c, 0, 62, 60
1, 204685, Control_c, 0, 64, 33
1, 204692, Note_on_c, 0, 63, 59
1, 204698, Note_off_c, 0, 58, 34
1, 204699, Control_c, 0, 64, 55
1, 204714, Control_c, 0, 64, 71
1, 204729, Control_c, 0, 64, 89
1, 204744, Control_c, 0, 64, 127
1, 204783, Note_on_c, 0, 50, 53
1, 204785, Note_on_c, 0, 62, 67
1, 204802, Note_off_c, 0, 63, 0
1, 204827, Poly_aftertouch_c, 0, 63, 0
1, 204861, Note_on_c, 0, 70, 75
1, 204862, Note_off_c, 0, 43, 32
1, 204862, Note_off_c, 0, 51, 31
1, 204864, Note_off_c, 0, 62, 59
1, 204954, Note_off_c, 0, 70, 60
1, 204955, Note_on_c, 0, 67, 67
1, 205027, Note_on_c, 0, 63, 72
1, 205031, Note_off_c, 0, 67, 58
1, 205055, Control_c, 0, 64, 82
1, 205070, Control_c, 0, 64, 62
1, 205084, Control_c, 0, 64, 37
1, 205099, Control_c, 0, 64, 0
1, 205114, Control_c, 0, 64, 28
1, 205129, Control_c, 0, 64, 56
1, 205135, Note_on_c, 0, 45, 57
1, 205135, Note_off_c, 0, 63, 56
1, 205136, Note_off_c, 0, 50, 61
1, 205141, Note_on_c, 0, 54, 77
1, 205144, Control_c, 0, 64, 76
1, 205158, Control_c, 0, 64, 120
1, 205173, Control_c, 0, 64, 127
1, 205195, Note_off_c, 0, 54, 64
1, 205254, Note_off_c, 0, 45, 64
1, 205261, Note_on_c, 0, 63, 68
1, 205315, Note_off_c, 0, 63, 61
1, 205371, Note_on_c, 0, 60, 63
1, 205371, Note_on_c, 0, 62, 71
1, 205403, Control_c, 0, 64, 81
1, 205417, Control_c, 0, 64, 66
1, 205430, Note_off_c, 0, 60, 57
1, 205432, Control_c, 0, 64, 66
1, 205446, Note_off_c, 0, 62, 61
1, 205447, Control_c, 0, 64, 85
1, 205455, Note_on_c, 0, 66, 73
1, 205462, Control_c, 0, 64, 127
1, 205506, Note_off_c, 0, 66, 65
1, 205529, Note_on_c, 0, 72, 76
1, 205576, Note_off_c, 0, 72, 65
1, 205614, Note_on_c, 0, 74, 76
1, 205700, Control_c, 0, 64, 84
1, 205702, Note_off_c, 0, 74, 58
1, 205710, Note_on_c, 0, 78, 82
1, 205714, Control_c, 0, 64, 57
1, 205729, Control_c, 0, 64, 11
1, 205744, Control_c, 0, 64, 30
1, 205759, Control_c, 0, 64, 63
1, 205774, Control_c, 0, 64, 87
1, 205776, Note_off_c, 0, 78, 64
1, 205789, Control_c, 0, 64, 127
1, 205792, Note_on_c, 0, 84, 76
1, 205833, Note_off_c, 0, 84, 65
1, 205854, Note_on_c, 0, 84, 70
1, 205920, Note_off_c, 0, 84, 64
1, 205942, Note_on_c, 0, 93, 89
1, 206044, Note_off_c, 0, 93, 63
1, 206147, Note_on_c, 0, 91, 83
1, 206159, Note_on_c, 0, 82, 65
1, 206191, Note_off_c, 0, 82, 61
1, 206289, Note_off_c, 0, 91, 59
1, 206296, Note_on_c, 0, 81, 76
1, 206301, Control_c, 0, 64, 108
1, 206304, Note_on_c, 0, 38, 61
1, 206316, Control_c, 0, 64, 67
1, 206331, Control_c, 0, 64, 53
1, 206345, Control_c, 0, 64, 59
1, 206360, Control_c, 0, 64, 70
1, 206361, Note_off_c, 0, 81, 59
1, 206375, Control_c, 0, 64, 106
1, 206382, Note_off_c, 0, 38, 61
1, 206387, Note_on_c, 0, 90, 72
1, 206390, Control_c, 0, 64, 127
1, 206450, Note_off_c, 0, 90, 63
1, 206473, Note_on_c, 0, 50, 47
1, 206477, Note_on_c, 0, 87, 74
1, 206485, Note_on_c, 0, 79, 78
1, 206500, Note_off_c, 0, 87, 70
1, 206501, Note_off_c, 0, 50, 49
1, 206583, Note_on_c, 0, 78, 80
1, 206620, Note_off_c, 0, 79, 27
1, 206622, Note_on_c, 0, 57, 68
1, 206677, Note_on_c, 0, 86, 84
1, 206702, Note_off_c, 0, 78, 62
1, 206757, Note_on_c, 0, 84, 82
1, 206796, Note_off_c, 0, 86, 59
1, 206844, Note_off_c, 0, 84, 61
1, 206860, Note_on_c, 0, 60, 64
1, 206874, Note_on_c, 0, 75, 81
1, 206883, Note_off_c, 0, 57, 62
1, 206968, Note_on_c, 0, 82, 75
1, 206972, Note_off_c, 0, 75, 39
1, 207023, Note_off_c, 0, 82, 64
1, 207075, Note_on_c, 0, 66, 60
1, 207081, Note_on_c, 0, 81, 84
1, 207139, Note_off_c, 0, 66, 62
1, 207139, Note_off_c, 0, 60, 38
1, 207145, Note_off_c, 0, 81, 63
1, 207162, Note_on_c, 0, 75, 83
1, 207249, Note_on_c, 0, 84, 80
1, 207267, Note_off_c, 0, 75, 62
1, 207331, Note_on_c, 0, 82, 83
1, 207363, Note_off_c, 0, 84, 63
1, 207433, Note_off_c, 0, 82, 62
1, 207455, Note_on_c, 0, 72, 75
1, 207461, Note_on_c, 0, 43, 67
1, 207494, Control_c, 0, 64, 82
1, 207509, Control_c, 0, 64, 58
1, 207523, Control_c, 0, 64, 29
1, 207546, Control_c, 0, 64, 41
1, 207561, Control_c, 0, 64, 62
1, 207565, Note_on_c, 0, 81, 77
1, 207575, Control_c, 0, 64, 83
1, 207590, Control_c, 0, 64, 127
1, 207610, Note_off_c, 0, 72, 30
1, 207644, Note_off_c, 0, 81, 62
1, 207646, Note_off_c, 0, 43, 31
1, 207656, Note_on_c, 0, 74, 74
1, 207672, Note_on_c, 0, 82, 71
1, 207679, Note_on_c, 0, 50, 65
1, 207705, Note_off_c, 0, 74, 62
1, 207723, Note_off_c, 0, 50, 58
1, 207743, Note_off_c, 0, 82, 63
1, 207747, Note_on_c, 0, 78, 77
1, 207748, Note_on_c, 0, 69, 69
1, 207782, Note_off_c, 0, 69, 59
1, 207842, Note_off_c, 0, 78, 61
1, 207848, Note_on_c, 0, 81, 75
1, 207849, Note_on_c, 0, 73, 67
1, 207853, Note_on_c, 0, 62, 68
1, 207904, Note_off_c, 0, 81, 60
1, 207918, Note_off_c, 0, 73, 61
1, 207919, Note_off_c, 0, 62, 60
1, 207999, Note_on_c, 0, 66, 63
1, 208033, Note_on_c, 0, 70, 73
1, 208039, Note_on_c, 0, 79, 70
1, 208067, Note_off_c, 0, 79, 62
1, 208072, Note_off_c, 0, 70, 55
1, 208111, Note_off_c, 0, 66, 56
1, 208139, Control_c, 0, 64, 77
1, 208154, Control_c, 0, 64, 52
1, 208168, Control_c, 0, 64, 0
1, 208176, Note_on_c, 0, 79, 59
1, 208183, Note_on_c, 0, 67, 62
1, 208191, Note_on_c, 0, 70, 58
1, 208213, Control_c, 0, 64, 46
1, 208223, Note_off_c, 0, 79, 58
1, 208228, Control_c, 0, 64, 67
1, 208240, Note_off_c, 0, 67, 63
1, 208242, Control_c, 0, 64, 92
1, 208257, Control_c, 0, 64, 127
1, 208297, Note_off_c, 0, 70, 56
1, 208402, Note_on_c, 0, 54, 64
1, 208403, Note_on_c, 0, 66, 65
1, 208436, Note_off_c, 0, 66, 59
1, 208439, Note_off_c, 0, 54, 64
1, 208534, Note_on_c, 0, 54, 75
1, 208534, Note_on_c, 0, 66, 71
1, 208572, Note_off_c, 0, 54, 63
1, 208578, Note_off_c, 0, 66, 57
1, 208626, Note_on_c, 0, 65, 70
1, 208635, Note_on_c, 0, 53, 69
1, 208668, Note_off_c, 0, 65, 61
1, 208674, Note_off_c, 0, 53, 64
1, 208734, Note_on_c, 0, 53, 73
1, 208735, Poly_aftertouch_c, 0, 52, 0
1, 208737, Note_on_c, 0, 65, 74
1, 208824, Note_on_c, 0, 64, 80
1, 208826, Note_on_c, 0, 52, 75
1, 208826, Note_off_c, 0, 53, 54
1, 208838, Note_off_c, 0, 65, 61
1, 209002, Note_on_c, 0, 44, 69
1, 209010, Note_on_c, 0, 62, 70
1, 209022, Control_c, 0, 64, 102
1, 209044, Control_c, 0, 64, 67
1, 209053, Note_off_c, 0, 64, 57
1, 209059, Control_c, 0, 64, 41
1, 209073, Control_c, 0, 64, 0
1, 209078, Note_off_c, 0, 52, 60
1, 209088, Control_c, 0, 64, 29
1, 209103, Control_c, 0, 64, 61
1, 209118, Control_c, 0, 64, 83
1, 209133, Control_c, 0, 64, 127
1, 209139, Note_on_c, 0, 53, 63
1, 209166, Note_on_c, 0, 65, 59
1, 209242, Note_off_c, 0, 65, 62
1, 209249, Note_on_c, 0, 64, 74
1, 209258, Note_on_c, 0, 52, 63
1, 209270, Note_off_c, 0, 62, 52
1, 209321, Note_off_c, 0, 64, 61
1, 209324, Note_on_c, 0, 71, 76
1, 209345, Note_off_c, 0, 44, 62
1, 209407, Note_on_c, 0, 68, 81
1, 209449, Note_off_c, 0, 71, 55
1, 209449, Note_off_c, 0, 53, 25
1, 209484, Note_on_c, 0, 65, 77
1, 209528, Note_off_c, 0, 68, 63
1, 209537, Note_off_c, 0, 52, 57
1, 209555, Note_on_c, 0, 45, 75
1, 209570, Note_off_c, 0, 65, 64
1, 209571, Note_on_c, 0, 60, 78
1, 209585, Note_on_c, 0, 64, 77
1, 209592, Control_c, 0, 64, 72
1, 209607, Control_c, 0, 64, 52
1, 209622, Control_c, 0, 64, 48
1, 209633, Note_off_c, 0, 60, 60
1, 209637, Control_c, 0, 64, 64
1, 209652, Note_on_c, 0, 53, 68
1, 209652, Control_c, 0, 64, 78
1, 209658, Note_off_c, 0, 64, 62
1, 209661, Note_on_c, 0, 65, 81
1, 209667, Control_c, 0, 64, 127
1, 209726, Note_off_c, 0, 65, 61
1, 209727, Note_on_c, 0, 52, 68
1, 209732, Note_off_c, 0, 45, 54
1, 209734, Note_on_c, 0, 64, 83
1, 209811, Note_off_c, 0, 53, 29
1, 209814, Note_on_c, 0, 72, 83
1, 209828, Note_off_c, 0, 64, 53
1, 209896, Note_on_c, 0, 69, 79
1, 209903, Note_off_c, 0, 72, 59
1, 209978, Note_on_c, 0, 65, 77
1, 209991, Note_off_c, 0, 69, 62
1, 210014, Control_c, 0, 64, 74
1, 210027, Note_off_c, 0, 52, 63
1, 210029, Control_c, 0, 64, 39
1, 210044, Control_c, 0, 64, 0
1, 210056, Note_off_c, 0, 65, 65
1, 210072, Note_on_c, 0, 47, 75
1, 210075, Note_on_c, 0, 56, 86
1, 210088, Control_c, 0, 64, 53
1, 210094, Note_on_c, 0, 68, 37
1, 210103, Control_c, 0, 64, 78
1, 210118, Control_c, 0, 64, 127
1, 210126, Note_off_c, 0, 56, 64
1, 210128, Note_off_c, 0, 68, 45
1, 210164, Note_on_c, 0, 65, 75
1, 210170, Note_off_c, 0, 47, 61
1, 210216, Note_off_c, 0, 65, 62
1, 210254, Note_on_c, 0, 64, 85
1, 210269, Note_on_c, 0, 62, 70
1, 210297, Control_c, 0, 64, 107
1, 210305, Note_off_c, 0, 62, 60
1, 210311, Control_c, 0, 64, 86
1, 210326, Control_c, 0, 64, 95
1, 210332, Note_on_c, 0, 68, 83
1, 210338, Note_off_c, 0, 64, 63
1, 210341, Control_c, 0, 64, 127
1, 210393, Note_off_c, 0, 68, 66
1, 210404, Note_on_c, 0, 74, 85
1, 210450, Note_off_c, 0, 74, 66
1, 210489, Note_on_c, 0, 76, 92
1, 210615, Control_c, 0, 64, 75
1, 210618, Note_on_c, 0, 80, 89
1, 210621, Note_off_c, 0, 76, 54
1, 210630, Control_c, 0, 64, 47
1, 210644, Control_c, 0, 64, 0
1, 210674, Control_c, 0, 64, 55
1, 210689, Control_c, 0, 64, 79
1, 210690, Note_off_c, 0, 80, 64
1, 210704, Control_c, 0, 64, 127
1, 210704, Note_on_c, 0, 86, 82
1, 210751, Note_off_c, 0, 86, 66
1, 210783, Note_on_c, 0, 86, 81
1, 210855, Note_on_c, 0, 95, 99
1, 210878, Note_off_c, 0, 86, 37
1, 210942, Note_off_c, 0, 95, 61
1, 210964, Note_on_c, 0, 92, 43
1, 211008, Note_on_c, 0, 90, 23
1, 211009, Note_off_c, 0, 92, 45
1, 211056, Note_off_c, 0, 90, 44
1, 211076, Note_on_c, 0, 93, 82
1, 211082, Note_on_c, 0, 84, 73
1, 211134, Note_off_c, 0, 84, 61
1, 211185, Note_off_c, 0, 93, 60
1, 211206, Note_on_c, 0, 84, 75
1, 211215, Note_on_c, 0, 40, 72
1, 211223, Control_c, 0, 64, 109
1, 211238, Control_c, 0, 64, 67
1, 211253, Control_c, 0, 64, 67
1, 211267, Control_c, 0, 64, 98
1, 211268, Note_off_c, 0, 84, 65
1, 211290, Control_c, 0, 64, 127
1, 211306, Note_on_c, 0, 93, 80
1, 211320, Note_off_c, 0, 40, 62
1, 211376, Note_on_c, 0, 52, 51
1, 211397, Note_on_c, 0, 92, 80
1, 211399, Note_on_c, 0, 83, 77
1, 211401, Note_off_c, 0, 52, 55
1, 211422, Note_off_c, 0, 93, 64
1, 211423, Note_off_c, 0, 83, 66
1, 211440, Note_off_c, 0, 92, 61
1, 211491, Note_on_c, 0, 83, 69
1, 211569, Note_off_c, 0, 83, 40
1, 211581, Note_on_c, 0, 59, 61
1, 211582, Note_on_c, 0, 89, 69
1, 211585, Note_on_c, 0, 80, 62
1, 211592, Note_on_c, 0, 60, 71
1, 211645, Note_off_c, 0, 80, 54
1, 211681, Note_on_c, 0, 88, 81
1, 211738, Note_off_c, 0, 89, 51
1, 211750, Note_off_c, 0, 60, 18
1, 211768, Note_off_c, 0, 59, 60
1, 211774, Note_off_c, 0, 88, 60
1, 211780, Note_on_c, 0, 77, 84
1, 211782, Note_on_c, 0, 62, 71
1, 211845, Note_off_c, 0, 77, 58
1, 211865, Note_on_c, 0, 86, 84
1, 211974, Note_on_c, 0, 84, 82
1, 211987, Note_off_c, 0, 86, 51
1, 211988, Note_on_c, 0, 76, 81
1, 211992, Note_on_c, 0, 68, 77
1, 212037, Note_on_c, 0, 74, 32
1, 212047, Note_off_c, 0, 68, 65
1, 212057, Note_off_c, 0, 62, 62
1, 212060, Note_off_c, 0, 76, 58
1, 212066, Note_off_c, 0, 74, 55
1, 212090, Note_on_c, 0, 83, 89
1, 212098, Note_off_c, 0, 84, 65
1, 212176, Note_on_c, 0, 86, 89
1, 212194, Note_off_c, 0, 83, 63
1, 212269, Note_on_c, 0, 84, 82
1, 212309, Note_off_c, 0, 86, 59
1, 212409, Control_c, 0, 64, 90
1, 212417, Note_on_c, 0, 74, 80
1, 212418, Note_on_c, 0, 33, 76
1, 212424, Control_c, 0, 64, 58
1, 212427, Note_off_c, 0, 84, 49
1, 212439, Control_c, 0, 64, 35
1, 212451, Note_off_c, 0, 33, 67
1, 212454, Control_c, 0, 64, 52
1, 212469, Control_c, 0, 64, 74
1, 212484, Control_c, 0, 64, 127
1, 212511, Note_off_c, 0, 74, 51
1, 212522, Note_on_c, 0, 83, 79
1, 212632, Note_off_c, 0, 83, 60
1, 212654, Note_on_c, 0, 84, 72
1, 212658, Note_on_c, 0, 76, 66
1, 212668, Note_on_c, 0, 45, 54
1, 212689, Note_on_c, 0, 43, 31
1, 212719, Note_off_c, 0, 76, 62
1, 212726, Note_off_c, 0, 43, 40
1, 212733, Note_off_c, 0, 84, 63
1, 212737, Note_off_c, 0, 45, 60
1, 212761, Note_on_c, 0, 80, 72
1, 212763, Note_on_c, 0, 52, 68
1, 212777, Note_on_c, 0, 71, 66
1, 212837, Note_off_c, 0, 71, 55
1, 212892, Control_c, 0, 64, 105
1, 212901, Note_on_c, 0, 83, 73
1, 212904, Note_on_c, 0, 74, 70
1, 212904, Note_off_c, 0, 52, 61
1, 212907, Control_c, 0, 64, 67
1, 212909, Note_on_c, 0, 57, 74
1, 212909, Note_off_c, 0, 80, 59
1, 212922, Control_c, 0, 64, 53
1, 212937, Control_c, 0, 64, 63
1, 212952, Control_c, 0, 64, 87
1, 212963, Note_off_c, 0, 57, 65
1, 212966, Control_c, 0, 64, 127
1, 212993, Note_off_c, 0, 74, 62
1, 213017, Note_off_c, 0, 83, 59
1, 213023, Note_on_c, 0, 81, 67
1, 213026, Note_on_c, 0, 64, 70
1, 213034, Note_on_c, 0, 72, 63
1, 213053, Note_off_c, 0, 64, 67
1, 213206, Note_off_c, 0, 72, 37
1, 213217, Note_off_c, 0, 81, 59
1, 213235, Note_on_c, 0, 69, 67
1, 213350, Control_c, 0, 64, 75
1, 213365, Note_on_c, 0, 81, 64
1, 213365, Control_c, 0, 64, 53
1, 213376, Note_on_c, 0, 72, 51
1, 213380, Control_c, 0, 64, 0
1, 213410, Control_c, 0, 64, 49
1, 213424, Control_c, 0, 64, 70
1, 213439, Control_c, 0, 64, 95
1, 213455, Control_c, 0, 64, 127
1, 213497, Note_on_c, 0, 64, 68
1, 213503, Note_off_c, 0, 81, 58
1, 213507, Note_off_c, 0, 72, 46
1, 213631, Note_off_c, 0, 69, 53
1, 213640, Control_c, 0, 64, 81
1, 213646, Note_on_c, 0, 81, 62
1, 213651, Note_on_c, 0, 72, 60
1, 213655, Control_c, 0, 64, 60
1, 213670, Control_c, 0, 64, 48
1, 213685, Control_c, 0, 64, 59
1, 213700, Control_c, 0, 64, 76
1, 213714, Control_c, 0, 64, 127
1, 213780, Note_off_c, 0, 81, 59
1, 213787, Note_off_c, 0, 72, 55
1, 213792, Note_on_c, 0, 63, 59
1, 213835, Note_off_c, 0, 64, 58
1, 213934, Note_on_c, 0, 81, 53
1, 213938, Note_on_c, 0, 72, 55
1, 214114, Note_on_c, 0, 62, 51
1, 214149, Note_off_c, 0, 63, 30
1, 214159, Control_c, 0, 64, 79
1, 214173, Control_c, 0, 64, 59
1, 214188, Control_c, 0, 64, 27
1, 214203, Control_c, 0, 64, 0
1, 214232, Control_c, 0, 64, 43
1, 214248, Control_c, 0, 64, 63
1, 214263, Note_off_c, 0, 81, 63
1, 214263, Control_c, 0, 64, 74
1, 214285, Control_c, 0, 64, 94
1, 214290, Note_on_c, 0, 82, 62
1, 214299, Note_on_c, 0, 74, 47
1, 214300, Control_c, 0, 64, 127
1, 214305, Note_off_c, 0, 72, 40
1, 214606, Note_on_c, 0, 81, 58
1, 214621, Note_on_c, 0, 72, 54
1, 214633, Note_off_c, 0, 74, 32
1, 214667, Note_off_c, 0, 82, 40
1, 214728, Note_on_c, 0, 54, 46
1, 214834, Note_off_c, 0, 54, 35
1, 214871, Note_on_c, 0, 84, 60
1, 214887, Note_on_c, 0, 75, 53
1, 214898, Note_off_c, 0, 81, 36
1, 214901, Note_off_c, 0, 72, 30
1, 215011, Note_on_c, 0, 55, 49
1, 215033, Control_c, 0, 64, 73
1, 215049, Control_c, 0, 64, 54
1, 215064, Control_c, 0, 64, 46
1, 215077, Note_off_c, 0, 84, 44
1, 215078, Control_c, 0, 64, 58
1, 215093, Control_c, 0, 64, 73
1, 215108, Control_c, 0, 64, 107
1, 215123, Control_c, 0, 64, 127
1, 215132, Note_off_c, 0, 75, 58
1, 215140, Note_on_c, 0, 82, 63
1, 215146, Note_on_c, 0, 74, 61
1, 215178, Note_off_c, 0, 62, 51
1, 215220, Note_off_c, 0, 74, 53
1, 215225, Note_off_c, 0, 55, 49
1, 215263, Note_on_c, 0, 57, 58
1, 215346, Note_off_c, 0, 82, 61
1, 215359, Note_on_c, 0, 78, 76
1, 215368, Note_on_c, 0, 72, 60
1, 215400, Note_off_c, 0, 72, 65
1, 215415, Note_off_c, 0, 57, 36
1, 215479, Note_on_c, 0, 58, 55
1, 215485, Note_on_c, 0, 70, 75
1, 215485, Note_on_c, 0, 79, 72
1, 215506, Note_off_c, 0, 78, 34
1, 215511, Note_off_c, 0, 58, 63
1, 215558, Note_off_c, 0, 70, 52
1, 215584, Note_on_c, 0, 50, 68
1, 215593, Note_off_c, 0, 79, 62
1, 215596, Note_on_c, 0, 74, 56
1, 215597, Note_on_c, 0, 82, 70
1, 215612, Note_off_c, 0, 50, 64
1, 215682, Note_off_c, 0, 74, 0
1, 215682, Note_on_c, 0, 74, 5
1, 215781, Control_c, 0, 64, 95
1, 215783, Note_on_c, 0, 38, 68
1, 215796, Control_c, 0, 64, 63
1, 215810, Control_c, 0, 64, 30
1, 215825, Control_c, 0, 64, 13
1, 215835, Note_off_c, 0, 38, 63
1, 215840, Control_c, 0, 64, 56
1, 215856, Control_c, 0, 64, 80
1, 215871, Control_c, 0, 64, 127
1, 215906, Note_off_c, 0, 74, 53
1, 215918, Note_on_c, 0, 81, 63
1, 215931, Note_on_c, 0, 72, 57
1, 215952, Note_off_c, 0, 82, 58
1, 216040, Note_on_c, 0, 62, 63
1, 216084, Note_off_c, 0, 72, 31
1, 216120, Note_off_c, 0, 81, 34
1, 216141, Note_on_c, 0, 82, 63
1, 216151, Note_on_c, 0, 74, 65
1, 216183, Note_off_c, 0, 82, 54
1, 216208, Note_off_c, 0, 74, 62
1, 216249, Note_on_c, 0, 66, 56
1, 216252, Note_on_c, 0, 69, 59
1, 216252, Note_on_c, 0, 78, 63
1, 216266, Note_on_c, 0, 60, 53
1, 216297, Note_off_c, 0, 62, 36
1, 216308, Note_off_c, 0, 69, 44
1, 216347, Note_on_c, 0, 72, 56
1, 216349, Note_off_c, 0, 78, 59
1, 216359, Note_on_c, 0, 81, 57
1, 216373, Note_off_c, 0, 66, 32
1, 216383, Note_off_c, 0, 72, 61
1, 216399, Note_off_c, 0, 81, 56
1, 216524, Note_on_c, 0, 81, 61
1, 216533, Note_on_c, 0, 55, 52
1, 216541, Note_on_c, 0, 72, 58
1, 216551, Note_off_c, 0, 60, 37
1, 216589, Control_c, 0, 64, 100
1, 216600, Note_off_c, 0, 72, 61
1, 216604, Control_c, 0, 64, 67
1, 216619, Control_c, 0, 64, 49
1, 216633, Control_c, 0, 64, 51
1, 216649, Control_c, 0, 64, 66
1, 216664, Control_c, 0, 64, 95
1, 216665, Note_off_c, 0, 81, 60
1, 216677, Note_on_c, 0, 79, 70
1, 216679, Control_c, 0, 64, 127
1, 216681, Note_on_c, 0, 70, 63
1, 216708, Note_off_c, 0, 79, 60
1, 216713, Note_off_c, 0, 70, 63
1, 216790, Note_on_c, 0, 62, 47
1, 216794, Note_on_c, 0, 70, 60
1, 216806, Note_on_c, 0, 81, 38
1, 216811, Note_on_c, 0, 79, 63
1, 216866, Note_off_c, 0, 70, 61
1, 216898, Note_off_c, 0, 81, 50
1, 216943, Note_on_c, 0, 69, 59
1, 216946, Note_on_c, 0, 78, 61
1, 216991, Note_off_c, 0, 79, 31
1, 217095, Control_c, 0, 64, 110
1, 217110, Control_c, 0, 64, 71
1, 217122, Note_off_c, 0, 69, 44
1, 217122, Note_on_c, 0, 61, 52
1, 217124, Control_c, 0, 64, 49
1, 217137, Note_off_c, 0, 55, 28
1, 217139, Control_c, 0, 64, 0
1, 217168, Control_c, 0, 64, 47
1, 217183, Note_off_c, 0, 78, 50
1, 217183, Control_c, 0, 64, 65
1, 217198, Control_c, 0, 64, 77
1, 217201, Note_off_c, 0, 62, 40
1, 217213, Control_c, 0, 64, 96
1, 217228, Control_c, 0, 64, 127
1, 217272, Note_on_c, 0, 79, 58
1, 217286, Note_on_c, 0, 70, 55
1, 217550, Note_on_c, 0, 60, 48
1, 217614, Note_off_c, 0, 61, 0
1, 217636, Control_c, 0, 64, 93
1, 217651, Control_c, 0, 64, 67
1, 217666, Control_c, 0, 64, 45
1, 217671, Poly_aftertouch_c, 0, 61, 0
1, 217680, Control_c, 0, 64, 11
1, 217695, Control_c, 0, 64, 19
1, 217710, Control_c, 0, 64, 46
1, 217725, Control_c, 0, 64, 64
1, 217740, Control_c, 0, 64, 76
1, 217753, Note_off_c, 0, 70, 0
1, 217754, Control_c, 0, 64, 95
1, 217768, Note_on_c, 0, 80, 55
1, 217769, Control_c, 0, 64, 127
1, 217770, Note_on_c, 0, 72, 47
1, 217824, Poly_aftertouch_c, 0, 70, 0
1, 217853, Note_off_c, 0, 79, 44
1, 218043, Note_off_c, 0, 72, 51
1, 218057, Note_on_c, 0, 79, 57
1, 218067, Note_on_c, 0, 70, 50
1, 218132, Note_off_c, 0, 80, 39
1, 218167, Note_on_c, 0, 52, 48
1, 218300, Note_off_c, 0, 79, 53
1, 218314, Note_on_c, 0, 82, 54
1, 218334, Note_on_c, 0, 73, 47
1, 218339, Note_off_c, 0, 70, 33
1, 218459, Note_on_c, 0, 53, 52
1, 218489, Control_c, 0, 64, 106
1, 218503, Control_c, 0, 64, 70
1, 218519, Control_c, 0, 64, 51
1, 218534, Control_c, 0, 64, 37
1, 218547, Note_off_c, 0, 52, 36
1, 218549, Control_c, 0, 64, 49
1, 218564, Control_c, 0, 64, 65
1, 218574, Note_off_c, 0, 73, 58
1, 218578, Control_c, 0, 64, 82
1, 218588, Note_on_c, 0, 80, 57
1, 218589, Note_on_c, 0, 72, 57
1, 218593, Control_c, 0, 64, 127
1, 218620, Note_off_c, 0, 82, 31
1, 218693, Note_off_c, 0, 72, 34
1, 218695, Note_off_c, 0, 60, 34
1, 218716, Note_off_c, 0, 53, 34
1, 218732, Note_on_c, 0, 55, 60
1, 218801, Note_off_c, 0, 80, 61
1, 218821, Note_on_c, 0, 76, 62
1, 218829, Note_on_c, 0, 70, 59
1, 218869, Note_off_c, 0, 70, 62
1, 218930, Note_off_c, 0, 55, 34
1, 218946, Note_on_c, 0, 68, 70
1, 218953, Note_on_c, 0, 56, 54
1, 218955, Note_on_c, 0, 77, 63
1, 218973, Note_off_c, 0, 76, 33
1, 219047, Note_off_c, 0, 56, 53
1, 219053, Note_on_c, 0, 48, 58
1, 219056, Note_off_c, 0, 77, 56
1, 219060, Note_on_c, 0, 80, 66
1, 219068, Note_on_c, 0, 72, 55
1, 219091, Note_off_c, 0, 48, 62
1, 219092, Note_off_c, 0, 68, 32
1, 219238, Control_c, 0, 64, 94
1, 219249, Note_on_c, 0, 36, 66
1, 219253, Control_c, 0, 64, 65
1, 219268, Control_c, 0, 64, 46
1, 219283, Control_c, 0, 64, 47
1, 219298, Control_c, 0, 64, 64
1, 219305, Note_off_c, 0, 36, 62
1, 219313, Control_c, 0, 64, 101
1, 219327, Control_c, 0, 64, 127
1, 219384, Note_off_c, 0, 72, 58
1, 219392, Note_on_c, 0, 79, 70
1, 219411, Note_on_c, 0, 70, 57
1, 219450, Note_off_c, 0, 80, 32
1, 219526, Note_on_c, 0, 60, 58
1, 219578, Note_off_c, 0, 70, 57
1, 219614, Note_off_c, 0, 79, 34
1, 219636, Note_on_c, 0, 80, 70
1, 219648, Note_on_c, 0, 72, 63
1, 219715, Note_off_c, 0, 80, 60
1, 219743, Note_off_c, 0, 72, 60
1, 219753, Note_on_c, 0, 76, 66
1, 219760, Note_on_c, 0, 67, 60
1, 219762, Note_on_c, 0, 58, 57
1, 219775, Note_on_c, 0, 64, 49
1, 219833, Note_off_c, 0, 60, 32
1, 219855, Note_off_c, 0, 76, 49
1, 219870, Note_on_c, 0, 70, 65
1, 219874, Note_on_c, 0, 79, 62
1, 219892, Note_off_c, 0, 67, 29
1, 219908, Note_off_c, 0, 70, 59
1, 219918, Note_off_c, 0, 79, 51
1, 220003, Note_off_c, 0, 58, 0
1, 220040, Poly_aftertouch_c, 0, 58, 127
1, 220040, Note_on_c, 0, 53, 49
1, 220044, Note_on_c, 0, 70, 58
1, 220054, Note_on_c, 0, 79, 56
1, 220075, Control_c, 0, 64, 79
1, 220078, Note_off_c, 0, 64, 26
1, 220090, Control_c, 0, 64, 61
1, 220105, Control_c, 0, 64, 49
1, 220109, Poly_aftertouch_c, 0, 58, 0
1, 220118, Note_off_c, 0, 70, 58
1, 220120, Control_c, 0, 64, 53
1, 220134, Control_c, 0, 64, 65
1, 220149, Control_c, 0, 64, 84
1, 220164, Control_c, 0, 64, 127
1, 220175, Note_off_c, 0, 79, 52
1, 220180, Note_on_c, 0, 68, 64
1, 220188, Note_on_c, 0, 77, 67
1, 220230, Note_off_c, 0, 68, 55
1, 220230, Note_off_c, 0, 77, 57
1, 220299, Note_on_c, 0, 60, 45
1, 220332, Note_on_c, 0, 79, 68
1, 220342, Note_on_c, 0, 68, 67
1, 220377, Note_off_c, 0, 53, 39
1, 220397, Note_on_c, 0, 77, 32
1, 220397, Note_off_c, 0, 68, 61
1, 220432, Note_off_c, 0, 79, 50
1, 220440, Note_off_c, 0, 77, 47
1, 220487, Note_on_c, 0, 76, 60
1, 220493, Note_on_c, 0, 67, 60
1, 220630, Control_c, 0, 64, 69
1, 220639, Note_off_c, 0, 67, 53
1, 220646, Control_c, 0, 64, 46
1, 220661, Control_c, 0, 64, 22
1, 220672, Note_on_c, 0, 65, 43
1, 220674, Note_on_c, 0, 56, 46
1, 220676, Control_c, 0, 64, 39
1, 220690, Control_c, 0, 64, 63
1, 220705, Control_c, 0, 64, 82
1, 220713, Note_off_c, 0, 60, 29
1, 220720, Control_c, 0, 64, 127
1, 220767, Note_off_c, 0, 65, 63
1, 220812, Note_off_c, 0, 56, 62
1, 220845, Note_on_c, 0, 77, 58
1, 220846, Note_on_c, 0, 68, 47
1, 220857, Note_off_c, 0, 76, 50
1, 220921, Note_off_c, 0, 68, 56
1, 220924, Note_off_c, 0, 77, 56
1, 221140, Note_on_c, 0, 77, 53
1, 221143, Note_on_c, 0, 44, 50
1, 221146, Note_on_c, 0, 68, 41
1, 221187, Control_c, 0, 64, 107
1, 221202, Control_c, 0, 64, 72
1, 221216, Control_c, 0, 64, 54
1, 221231, Control_c, 0, 64, 45
1, 221246, Control_c, 0, 64, 58
1, 221261, Control_c, 0, 64, 73
1, 221276, Control_c, 0, 64, 127
1, 221282, Note_off_c, 0, 44, 56
1, 221349, Note_off_c, 0, 77, 59
1, 221366, Note_on_c, 0, 70, 52
1, 221368, Note_on_c, 0, 78, 54
1, 221376, Note_off_c, 0, 68, 47
1, 221516, Note_on_c, 0, 56, 43
1, 221554, Note_off_c, 0, 56, 58
1, 221579, Note_on_c, 0, 58, 54
1, 221626, Note_off_c, 0, 70, 50
1, 221638, Note_off_c, 0, 58, 55
1, 221638, Note_off_c, 0, 78, 49
1, 221640, Note_on_c, 0, 77, 60
1, 221641, Note_on_c, 0, 68, 55
1, 221662, Note_on_c, 0, 56, 51
1, 221686, Note_off_c, 0, 68, 58
1, 221732, Note_on_c, 0, 58, 51
1, 221742, Note_off_c, 0, 56, 50
1, 221820, Note_on_c, 0, 75, 59
1, 221822, Note_on_c, 0, 66, 47
1, 221835, Note_on_c, 0, 48, 48
1, 221852, Note_off_c, 0, 58, 0
1, 221874, Note_off_c, 0, 77, 27
1, 221894, Poly_aftertouch_c, 0, 58, 0
1, 221932, Note_on_c, 0, 78, 60
1, 221943, Note_off_c, 0, 66, 35
1, 221949, Note_on_c, 0, 70, 55
1, 221976, Note_off_c, 0, 75, 36
1, 222087, Note_off_c, 0, 70, 58
1, 222106, Note_off_c, 0, 78, 54
1, 222113, Control_c, 0, 64, 83
1, 222116, Note_on_c, 0, 77, 57
1, 222119, Note_on_c, 0, 68, 53
1, 222121, Note_on_c, 0, 49, 52
1, 222128, Control_c, 0, 64, 60
1, 222133, Note_off_c, 0, 48, 48
1, 222143, Control_c, 0, 64, 21
1, 222158, Control_c, 0, 64, 0
1, 222172, Control_c, 0, 64, 41
1, 222187, Control_c, 0, 64, 67
1, 222202, Control_c, 0, 64, 95
1, 222215, Note_off_c, 0, 49, 61
1, 222217, Control_c, 0, 64, 127
1, 222236, Note_off_c, 0, 68, 43
1, 222247, Note_off_c, 0, 77, 54
1, 222256, Note_on_c, 0, 70, 66
1, 222265, Note_on_c, 0, 78, 54
1, 222346, Note_off_c, 0, 78, 55
1, 222363, Note_on_c, 0, 56, 48
1, 222374, Note_on_c, 0, 77, 57
1, 222387, Note_on_c, 0, 68, 61
1, 222402, Note_off_c, 0, 56, 63
1, 222412, Note_on_c, 0, 58, 46
1, 222434, Note_off_c, 0, 70, 33
1, 222454, Note_off_c, 0, 58, 49
1, 222457, Note_on_c, 0, 55, 60
1, 222463, Note_off_c, 0, 68, 52
1, 222482, Note_off_c, 0, 77, 33
1, 222485, Note_on_c, 0, 72, 71
1, 222499, Poly_aftertouch_c, 0, 76, 0
1, 222517, Note_on_c, 0, 56, 56
1, 222526, Note_off_c, 0, 55, 61
1, 222584, Note_on_c, 0, 61, 48
1, 222595, Note_off_c, 0, 72, 55
1, 222610, Note_on_c, 0, 73, 72
1, 222621, Note_off_c, 0, 56, 50
1, 222623, Note_on_c, 0, 65, 58
1, 222643, Note_off_c, 0, 61, 61
1, 222666, Note_off_c, 0, 65, 57
1, 222714, Note_off_c, 0, 73, 64
1, 222723, Note_on_c, 0, 77, 67
1, 222725, Note_on_c, 0, 68, 52
1, 222892, Note_off_c, 0, 77, 54
1, 222893, Control_c, 0, 64, 116
1, 222900, Note_off_c, 0, 68, 59
1, 222903, Note_on_c, 0, 39, 54
1, 222908, Control_c, 0, 64, 73
1, 222911, Note_on_c, 0, 75, 64
1, 222921, Note_on_c, 0, 67, 49
1, 222922, Control_c, 0, 64, 52
1, 222937, Control_c, 0, 64, 24
1, 222952, Control_c, 0, 64, 26
1, 222967, Control_c, 0, 64, 52
1, 222975, Note_off_c, 0, 39, 59
1, 222982, Control_c, 0, 64, 73
1, 222996, Control_c, 0, 64, 113
1, 223011, Control_c, 0, 64, 127
1, 223019, Note_off_c, 0, 67, 35
1, 223050, Note_off_c, 0, 75, 63
1, 223051, Note_on_c, 0, 68, 55
1, 223063, Note_on_c, 0, 77, 62
1, 223159, Note_off_c, 0, 68, 34
1, 223182, Note_on_c, 0, 51, 62
1, 223182, Note_on_c, 0, 75, 67
1, 223189, Note_on_c, 0, 67, 57
1, 223224, Note_off_c, 0, 77, 32
1, 223245, Note_off_c, 0, 67, 53
1, 223297, Note_off_c, 0, 75, 59
1, 223303, Note_on_c, 0, 77, 68
1, 223334, Note_off_c, 0, 51, 56
1, 223397, Note_off_c, 0, 77, 51
1, 223421, Note_on_c, 0, 55, 54
1, 223421, Note_on_c, 0, 73, 63
1, 223422, Note_on_c, 0, 65, 60
1, 223434, Control_c, 0, 64, 84
1, 223444, Note_on_c, 0, 63, 26
1, 223449, Control_c, 0, 64, 64
1, 223463, Control_c, 0, 64, 58
1, 223467, Note_off_c, 0, 55, 62
1, 223470, Note_off_c, 0, 65, 60
1, 223471, Note_off_c, 0, 73, 51
1, 223471, Note_off_c, 0, 63, 42
1, 223478, Control_c, 0, 64, 65
1, 223493, Control_c, 0, 64, 83
1, 223508, Control_c, 0, 64, 127
1, 223524, Note_on_c, 0, 75, 71
1, 223643, Note_off_c, 0, 75, 59
1, 223662, Note_on_c, 0, 72, 58
1, 223668, Note_on_c, 0, 63, 55
1, 223670, Note_on_c, 0, 44, 51
1, 223701, Control_c, 0, 64, 88
1, 223716, Control_c, 0, 64, 65
1, 223731, Control_c, 0, 64, 43
1, 223742, Note_off_c, 0, 63, 54
1, 223745, Control_c, 0, 64, 28
1, 223759, Control_c, 0, 64, 42
1, 223774, Control_c, 0, 64, 63
1, 223789, Control_c, 0, 64, 79
1, 223801, Note_on_c, 0, 73, 66
1, 223801, Note_off_c, 0, 72, 43
1, 223804, Control_c, 0, 64, 127
1, 223910, Note_off_c, 0, 73, 53
1, 223919, Note_off_c, 0, 44, 34
1, 223931, Note_on_c, 0, 51, 48
1, 223933, Note_on_c, 0, 61, 51
1, 223948, Note_on_c, 0, 70, 54
1, 223999, Note_off_c, 0, 61, 57
1, 224066, Note_off_c, 0, 70, 49
1, 224079, Note_on_c, 0, 72, 51
1, 224241, Control_c, 0, 64, 93
1, 224256, Control_c, 0, 64, 71
1, 224271, Control_c, 0, 64, 56
1, 224273, Note_off_c, 0, 51, 47
1, 224284, Note_on_c, 0, 68, 45
1, 224285, Control_c, 0, 64, 40
1, 224287, Note_on_c, 0, 60, 44
1, 224290, Note_off_c, 0, 72, 34
1, 224292, Note_on_c, 0, 56, 37
1, 224300, Control_c, 0, 64, 37
1, 224315, Note_on_c, 0, 63, 35
1, 224315, Control_c, 0, 64, 50
1, 224330, Control_c, 0, 64, 63
1, 224345, Control_c, 0, 64, 77
1, 224357, Note_off_c, 0, 60, 60
1, 224360, Control_c, 0, 64, 113
1, 224374, Control_c, 0, 64, 127
1, 224394, Note_off_c, 0, 63, 53
1, 224430, Note_off_c, 0, 68, 63
1, 224431, Note_off_c, 0, 56, 46
1, 224786, Note_on_c, 0, 89, 59
1, 224788, Note_on_c, 0, 44, 47
1, 224788, Note_on_c, 0, 80, 50
1, 224842, Control_c, 0, 64, 87
1, 224857, Control_c, 0, 64, 65
1, 224872, Control_c, 0, 64, 54
1, 224887, Control_c, 0, 64, 60
1, 224889, Note_off_c, 0, 44, 59
1, 224902, Control_c, 0, 64, 72
1, 224916, Control_c, 0, 64, 127
1, 225023, Note_off_c, 0, 80, 51
1, 225024, Note_on_c, 0, 90, 55
1, 225042, Note_on_c, 0, 82, 48
1, 225042, Note_off_c, 0, 89, 37
1, 225205, Note_on_c, 0, 68, 47
1, 225240, Note_off_c, 0, 68, 61
1, 225291, Note_on_c, 0, 70, 49
1, 225325, Note_off_c, 0, 70, 53
1, 225328, Note_off_c, 0, 90, 55
1, 225332, Note_on_c, 0, 89, 61
1, 225336, Note_off_c, 0, 82, 44
1, 225339, Note_on_c, 0, 68, 54
1, 225343, Note_on_c, 0, 80, 45
1, 225389, Note_off_c, 0, 68, 59
1, 225394, Note_off_c, 0, 80, 43
1, 225414, Note_on_c, 0, 70, 64
1, 225471, Note_off_c, 0, 89, 51
1, 225496, Note_on_c, 0, 87, 62
1, 225510, Note_on_c, 0, 60, 54
1, 225527, Note_on_c, 0, 78, 57
1, 225532, Note_off_c, 0, 70, 33
1, 225633, Note_off_c, 0, 78, 34
1, 225638, Note_on_c, 0, 82, 55
1, 225643, Note_on_c, 0, 90, 57
1, 225644, Note_off_c, 0, 87, 57
1, 225755, Control_c, 0, 64, 119
1, 225761, Note_off_c, 0, 82, 45
1, 225770, Control_c, 0, 64, 75
1, 225775, Note_off_c, 0, 90, 58
1, 225781, Note_off_c, 0, 60, 34
1, 225783, Note_on_c, 0, 61, 53
1, 225784, Control_c, 0, 64, 56
1, 225787, Note_on_c, 0, 89, 59
1, 225790, Note_on_c, 0, 80, 57
1, 225799, Control_c, 0, 64, 38
1, 225814, Control_c, 0, 64, 46
1, 225829, Control_c, 0, 64, 67
1, 225844, Control_c, 0, 64, 88
1, 225858, Control_c, 0, 64, 127
1, 225861, Note_off_c, 0, 61, 53
1, 225913, Note_off_c, 0, 80, 34
1, 225926, Note_on_c, 0, 82, 62
1, 225946, Note_off_c, 0, 89, 34
1, 225947, Note_on_c, 0, 90, 50
1, 226010, Note_off_c, 0, 90, 54
1, 226035, Note_on_c, 0, 70, 53
1, 226036, Note_on_c, 0, 80, 66
1, 226038, Note_on_c, 0, 89, 66
1, 226064, Poly_aftertouch_c, 0, 68, 127
1, 226088, Note_off_c, 0, 82, 34
1, 226090, Note_off_c, 0, 70, 61
1, 226097, Poly_aftertouch_c, 0, 68, 0
1, 226103, Note_on_c, 0, 67, 54
1, 226106, Note_off_c, 0, 89, 58
1, 226109, Note_off_c, 0, 80, 55
1, 226142, Note_off_c, 0, 67, 61
1, 226143, Note_on_c, 0, 84, 70
1, 226146, Note_on_c, 0, 68, 44
1, 226199, Note_on_c, 0, 73, 57
1, 226241, Note_off_c, 0, 84, 59
1, 226241, Note_off_c, 0, 73, 61
1, 226258, Note_off_c, 0, 68, 57
1, 226271, Note_on_c, 0, 85, 69
1, 226282, Note_on_c, 0, 77, 60
1, 226328, Note_off_c, 0, 77, 52
1, 226369, Note_off_c, 0, 85, 61
1, 226378, Note_on_c, 0, 89, 66
1, 226402, Note_on_c, 0, 80, 45
1, 226521, Note_off_c, 0, 89, 33
1, 226533, Control_c, 0, 64, 101
1, 226539, Note_on_c, 0, 51, 52
1, 226539, Note_off_c, 0, 80, 54
1, 226548, Control_c, 0, 64, 72
1, 226558, Note_on_c, 0, 87, 54
1, 226562, Control_c, 0, 64, 55
1, 226564, Note_on_c, 0, 79, 45
1, 226577, Control_c, 0, 64, 50
1, 226592, Control_c, 0, 64, 61
1, 226607, Control_c, 0, 64, 75
1, 226622, Control_c, 0, 64, 113
1, 226622, Note_off_c, 0, 51, 62
1, 226637, Control_c, 0, 64, 127
1, 226675, Note_off_c, 0, 79, 35
1, 226682, Note_off_c, 0, 87, 59
1, 226691, Note_on_c, 0, 89, 71
1, 226703, Note_on_c, 0, 80, 33
1, 226781, Note_off_c, 0, 80, 39
1, 226787, Note_off_c, 0, 89, 55
1, 226809, Note_on_c, 0, 79, 63
1, 226812, Note_on_c, 0, 63, 50
1, 226816, Note_on_c, 0, 87, 67
1, 226877, Note_off_c, 0, 79, 48
1, 226902, Note_on_c, 0, 89, 78
1, 226908, Note_off_c, 0, 87, 59
1, 226983, Note_off_c, 0, 63, 34
1, 226995, Note_off_c, 0, 89, 61
1, 227004, Note_on_c, 0, 75, 51
1, 227012, Note_on_c, 0, 67, 50
1, 227023, Note_on_c, 0, 85, 63
1, 227031, Note_on_c, 0, 77, 56
1, 227037, Note_off_c, 0, 75, 66
1, 227054, Note_off_c, 0, 67, 63
1, 227071, Note_off_c, 0, 77, 59
1, 227077, Note_off_c, 0, 85, 48
1, 227133, Note_on_c, 0, 87, 67
1, 227247, Note_off_c, 0, 87, 59
1, 227257, Note_on_c, 0, 75, 58
1, 227259, Note_on_c, 0, 56, 47
1, 227268, Note_on_c, 0, 84, 47
1, 227311, Control_c, 0, 64, 124
1, 227326, Control_c, 0, 64, 77
1, 227341, Control_c, 0, 64, 60
1, 227356, Control_c, 0, 64, 52
1, 227359, Note_off_c, 0, 75, 48
1, 227367, Note_off_c, 0, 84, 27
1, 227371, Control_c, 0, 64, 61
1, 227385, Control_c, 0, 64, 72
1, 227400, Note_on_c, 0, 85, 64
1, 227400, Control_c, 0, 64, 94
1, 227415, Control_c, 0, 64, 127
1, 227502, Note_off_c, 0, 85, 50
1, 227511, Note_on_c, 0, 63, 45
1, 227526, Note_on_c, 0, 73, 51
1, 227535, Note_off_c, 0, 56, 34
1, 227538, Note_on_c, 0, 82, 53
1, 227572, Note_off_c, 0, 73, 57
1, 227656, Note_on_c, 0, 84, 54
1, 227674, Note_off_c, 0, 82, 33
1, 227793, Note_off_c, 0, 84, 55
1, 227808, Control_c, 0, 64, 88
1, 227823, Control_c, 0, 64, 69
1, 227829, Note_off_c, 0, 63, 54
1, 227838, Control_c, 0, 64, 61
1, 227841, Note_on_c, 0, 80, 42
1, 227846, Note_on_c, 0, 68, 43
1, 227849, Note_on_c, 0, 75, 43
1, 227851, Note_on_c, 0, 72, 32
1, 227853, Control_c, 0, 64, 65
1, 227868, Control_c, 0, 64, 84
1, 227883, Control_c, 0, 64, 127
1, 227884, Note_off_c, 0, 72, 46
1, 227896, Note_off_c, 0, 75, 62
1, 227901, Note_off_c, 0, 80, 53
1, 227937, Note_off_c, 0, 68, 49
1, 228039, Note_on_c, 0, 89, 59
1, 228200, Note_off_c, 0, 89, 55
1, 228247, Note_on_c, 0, 79, 42
1, 228247, Note_on_c, 0, 87, 43
1, 228253, Note_on_c, 0, 51, 50
1, 228267, Control_c, 0, 64, 107
1, 228282, Control_c, 0, 64, 76
1, 228297, Control_c, 0, 64, 62
1, 228312, Control_c, 0, 64, 60
1, 228322, Note_off_c, 0, 51, 59
1, 228326, Control_c, 0, 64, 67
1, 228341, Control_c, 0, 64, 85
1, 228356, Control_c, 0, 64, 127
1, 228387, Note_off_c, 0, 87, 36
1, 228394, Note_on_c, 0, 89, 61
1, 228398, Note_off_c, 0, 79, 32
1, 228526, Note_on_c, 0, 87, 60
1, 228534, Note_off_c, 0, 89, 35
1, 228540, Note_on_c, 0, 63, 44
1, 228622, Note_off_c, 0, 87, 60
1, 228639, Note_on_c, 0, 89, 71
1, 228674, Note_off_c, 0, 89, 57
1, 228704, Note_off_c, 0, 63, 43
1, 228712, Note_on_c, 0, 75, 47
1, 228726, Note_on_c, 0, 67, 53
1, 228735, Note_on_c, 0, 85, 54
1, 228738, Note_on_c, 0, 77, 46
1, 228743, Note_off_c, 0, 75, 66
1, 228757, Note_off_c, 0, 67, 67
1, 228767, Note_off_c, 0, 77, 57
1, 228796, Note_off_c, 0, 85, 55
1, 228825, Note_on_c, 0, 87, 73
1, 228909, Note_off_c, 0, 87, 58
1, 228921, Note_on_c, 0, 75, 72
1, 228923, Note_on_c, 0, 56, 50
1, 228927, Control_c, 0, 64, 113
1, 228931, Note_on_c, 0, 84, 60
1, 228942, Control_c, 0, 64, 76
1, 228956, Control_c, 0, 64, 66
1, 228971, Control_c, 0, 64, 69
1, 228981, Note_off_c, 0, 75, 62
1, 228982, Note_off_c, 0, 84, 57
1, 228986, Control_c, 0, 64, 95
1, 229001, Control_c, 0, 64, 127
1, 229024, Note_on_c, 0, 85, 76
1, 229132, Note_on_c, 0, 73, 61
1, 229141, Note_on_c, 0, 63, 58
1, 229141, Note_on_c, 0, 82, 65
1, 229141, Note_off_c, 0, 56, 33
1, 229154, Note_off_c, 0, 85, 36
1, 229159, Note_off_c, 0, 73, 68
1, 229213, Note_off_c, 0, 82, 57
1, 229227, Note_on_c, 0, 84, 74
1, 229350, Control_c, 0, 64, 79
1, 229364, Control_c, 0, 64, 59
1, 229375, Note_on_c, 0, 72, 67
1, 229379, Note_on_c, 0, 75, 69
1, 229379, Note_on_c, 0, 80, 74
1, 229379, Control_c, 0, 64, 43
1, 229385, Note_on_c, 0, 68, 64
1, 229394, Note_off_c, 0, 63, 62
1, 229394, Control_c, 0, 64, 56
1, 229399, Note_off_c, 0, 72, 67
1, 229405, Note_off_c, 0, 75, 66
1, 229409, Control_c, 0, 64, 71
1, 229424, Control_c, 0, 64, 99
1, 229439, Control_c, 0, 64, 127
1, 229442, Note_off_c, 0, 80, 64
1, 229453, Note_off_c, 0, 84, 35
1, 229454, Note_off_c, 0, 68, 63
1, 229780, Note_on_c, 0, 91, 84
1, 229780, Note_on_c, 0, 99, 91
1, 229791, Note_on_c, 0, 39, 86
1, 229818, Note_on_c, 0, 38, 65
1, 229839, Control_c, 0, 64, 82
1, 229854, Control_c, 0, 64, 45
1, 229869, Control_c, 0, 64, 0
1, 229871, Note_off_c, 0, 38, 37
1, 229884, Control_c, 0, 64, 38
1, 229898, Control_c, 0, 64, 72
1, 229913, Control_c, 0, 64, 127
1, 229916, Note_on_c, 0, 101, 90
1, 229926, Note_off_c, 0, 91, 58
1, 229942, Note_off_c, 0, 99, 66
1, 230008, Note_on_c, 0, 51, 85
1, 230008, Note_off_c, 0, 39, 62
1, 230023, Note_on_c, 0, 91, 81
1, 230023, Note_on_c, 0, 99, 87
1, 230032, Note_off_c, 0, 51, 68
1, 230034, Note_off_c, 0, 101, 64
1, 230085, Note_off_c, 0, 91, 64
1, 230098, Note_on_c, 0, 101, 91
1, 230112, Note_off_c, 0, 99, 68
1, 230157, Note_off_c, 0, 101, 63
1, 230168, Note_on_c, 0, 61, 65
1, 230172, Note_on_c, 0, 63, 79
1, 230181, Note_on_c, 0, 97, 86
1, 230187, Note_on_c, 0, 88, 78
1, 230199, Note_on_c, 0, 55, 59
1, 230234, Note_off_c, 0, 88, 64
1, 230238, Note_off_c, 0, 61, 59
1, 230238, Note_off_c, 0, 63, 61
1, 230251, Note_off_c, 0, 55, 60
1, 230254, Note_off_c, 0, 97, 66
1, 230264, Note_on_c, 0, 99, 95
1, 230354, Note_on_c, 0, 87, 89
1, 230354, Note_off_c, 0, 99, 66
1, 230356, Note_on_c, 0, 96, 86
1, 230369, Note_on_c, 0, 67, 79
1, 230404, Note_off_c, 0, 67, 65
1, 230429, Note_off_c, 0, 87, 61
1, 230439, Note_on_c, 0, 97, 92
1, 230447, Note_off_c, 0, 96, 63
1, 230530, Note_on_c, 0, 94, 78
1, 230532, Note_on_c, 0, 85, 74
1, 230538, Note_off_c, 0, 97, 65
1, 230544, Note_on_c, 0, 75, 81
1, 230594, Note_off_c, 0, 85, 61
1, 230606, Note_on_c, 0, 96, 93
1, 230622, Note_off_c, 0, 75, 61
1, 230622, Note_off_c, 0, 94, 59
1, 230685, Note_on_c, 0, 67, 72
1, 230691, Note_off_c, 0, 96, 60
1, 230696, Note_on_c, 0, 92, 80
1, 230697, Note_on_c, 0, 84, 73
1, 230753, Note_off_c, 0, 84, 65
1, 230760, Note_off_c, 0, 92, 62
1, 230783, Note_on_c, 0, 94, 84
1, 230887, Note_off_c, 0, 94, 64
1, 230897, Note_on_c, 0, 79, 64
1, 230897, Note_on_c, 0, 75, 62
1, 230901, Note_on_c, 0, 73, 61
1, 230906, Note_on_c, 0, 82, 79
1, 230906, Control_c, 0, 64, 101
1, 230909, Note_on_c, 0, 91, 76
1, 230921, Control_c, 0, 64, 67
1, 230936, Control_c, 0, 64, 60
1, 230937, Note_off_c, 0, 67, 38
1, 230951, Control_c, 0, 64, 70
1, 230959, Note_off_c, 0, 91, 61
1, 230966, Control_c, 0, 64, 101
1, 230970, Note_off_c, 0, 82, 63
1, 230980, Control_c, 0, 64, 127
1, 230994, Note_on_c, 0, 92, 83
1, 231029, Note_off_c, 0, 79, 51
1, 231063, Note_off_c, 0, 92, 60
1, 231070, Note_on_c, 0, 80, 75
1, 231085, Note_on_c, 0, 89, 61
1, 231117, Note_off_c, 0, 75, 58
1, 231120, Note_off_c, 0, 80, 60
1, 231140, Note_on_c, 0, 91, 84
1, 231142, Note_off_c, 0, 89, 61
1, 231149, Note_off_c, 0, 73, 34
1, 231194, Note_off_c, 0, 91, 59
1, 231228, Note_on_c, 0, 87, 74
1, 231234, Note_on_c, 0, 79, 69
1, 231269, Note_off_c, 0, 79, 56
1, 231298, Note_on_c, 0, 89, 78
1, 231301, Note_off_c, 0, 87, 60
1, 231352, Note_off_c, 0, 89, 63
1, 231389, Note_on_c, 0, 85, 70
1, 231403, Note_on_c, 0, 76, 42
1, 231412, Note_on_c, 0, 77, 35
1, 231431, Note_off_c, 0, 76, 51
1, 231445, Note_off_c, 0, 85, 41
1, 231446, Note_off_c, 0, 77, 43
1, 231467, Note_on_c, 0, 87, 80
1, 231528, Note_off_c, 0, 87, 65
1, 231557, Note_on_c, 0, 75, 81
1, 231585, Note_on_c, 0, 84, 50
1, 231588, Note_on_c, 0, 83, 42
1, 231610, Note_off_c, 0, 75, 63
1, 231624, Note_off_c, 0, 83, 49
1, 231629, Note_off_c, 0, 84, 58
1, 231642, Note_on_c, 0, 85, 80
1, 231716, Note_off_c, 0, 85, 62
1, 231722, Note_on_c, 0, 73, 65
1, 231726, Note_on_c, 0, 82, 68
1, 231739, Note_on_c, 0, 75, 44
1, 231761, Note_off_c, 0, 75, 58
1, 231775, Note_off_c, 0, 73, 60
1, 231794, Note_off_c, 0, 82, 61
1, 231797, Note_on_c, 0, 84, 83
1, 231868, Note_off_c, 0, 84, 60
1, 231886, Note_on_c, 0, 72, 68
1, 231890, Note_on_c, 0, 80, 71
1, 231916, Note_off_c, 0, 72, 62
1, 231934, Note_off_c, 0, 80, 48
1, 231967, Note_on_c, 0, 82, 81
1, 232105, Note_off_c, 0, 82, 61
1, 232127, Note_on_c, 0, 61, 77
1, 232127, Note_on_c, 0, 70, 69
1, 232128, Note_on_c, 0, 79, 63
1, 232192, Note_off_c, 0, 79, 55
1, 232204, Note_off_c, 0, 70, 58
1, 232218, Control_c, 0, 64, 88
1, 232232, Note_on_c, 0, 80, 74
1, 232233, Control_c, 0, 64, 64
1, 232256, Control_c, 0, 64, 62
1, 232271, Control_c, 0, 64, 76
1, 232286, Control_c, 0, 64, 127
1, 232304, Note_off_c, 0, 80, 58
1, 232325, Note_on_c, 0, 68, 64
1, 232342, Note_on_c, 0, 77, 53
1, 232367, Note_off_c, 0, 68, 58
1, 232391, Note_off_c, 0, 77, 55
1, 232417, Note_on_c, 0, 79, 75
1, 232474, Note_off_c, 0, 79, 57
1, 232512, Note_on_c, 0, 67, 64
1, 232513, Note_on_c, 0, 75, 60
1, 232554, Note_off_c, 0, 67, 56
1, 232563, Note_off_c, 0, 75, 54
1, 232594, Note_on_c, 0, 77, 65
1, 232657, Note_off_c, 0, 77, 57
1, 232697, Note_on_c, 0, 65, 59
1, 232710, Note_on_c, 0, 73, 52
1, 232730, Note_off_c, 0, 61, 36
1, 232737, Note_off_c, 0, 65, 61
1, 232743, Note_off_c, 0, 73, 63
1, 232815, Note_on_c, 0, 75, 65
1, 232943, Note_off_c, 0, 75, 53
1, 232959, Note_on_c, 0, 63, 51
1, 232962, Note_on_c, 0, 72, 53
1, 232964, Note_on_c, 0, 51, 50
1, 233019, Control_c, 0, 64, 103
1, 233034, Control_c, 0, 64, 74
1, 233049, Control_c, 0, 64, 63
1, 233064, Control_c, 0, 64, 65
1, 233079, Control_c, 0, 64, 77
1, 233094, Control_c, 0, 64, 127
1, 233114, Note_off_c, 0, 63, 35
1, 233117, Note_on_c, 0, 73, 59
1, 233119, Note_off_c, 0, 72, 31
1, 233285, Note_on_c, 0, 44, 41
1, 233315, Note_off_c, 0, 73, 35
1, 233328, Note_on_c, 0, 70, 49
1, 233331, Note_on_c, 0, 61, 41
1, 233360, Control_c, 0, 64, 110
1, 233374, Control_c, 0, 64, 73
1, 233389, Control_c, 0, 64, 54
1, 233404, Control_c, 0, 64, 30
1, 233409, Note_off_c, 0, 51, 30
1, 233420, Control_c, 0, 64, 27
1, 233435, Control_c, 0, 64, 48
1, 233450, Control_c, 0, 64, 67
1, 233459, Note_off_c, 0, 70, 57
1, 233465, Control_c, 0, 64, 94
1, 233479, Control_c, 0, 64, 127
1, 233490, Note_on_c, 0, 72, 50
1, 233529, Note_off_c, 0, 72, 59
1, 233571, Note_on_c, 0, 52, 49
1, 233596, Note_on_c, 0, 70, 45
1, 233627, Note_off_c, 0, 70, 55
1, 233646, Note_on_c, 0, 72, 55
1, 233710, Note_off_c, 0, 72, 52
1, 233723, Note_on_c, 0, 70, 54
1, 233731, Note_off_c, 0, 52, 53
1, 233779, Note_on_c, 0, 53, 47
1, 233784, Note_off_c, 0, 70, 53
1, 233803, Note_on_c, 0, 72, 61
1, 233861, Note_off_c, 0, 72, 57
1, 233904, Note_on_c, 0, 70, 54
1, 233956, Note_off_c, 0, 70, 60
1, 233976, Note_on_c, 0, 72, 70
1, 234025, Note_on_c, 0, 70, 65
1, 234031, Note_off_c, 0, 72, 62
1, 234038, Note_off_c, 0, 53, 32
1, 234080, Note_on_c, 0, 54, 49
1, 234104, Note_on_c, 0, 69, 68
1, 234109, Control_c, 0, 64, 86
1, 234113, Note_off_c, 0, 70, 60
1, 234123, Control_c, 0, 64, 63
1, 234138, Control_c, 0, 64, 43
1, 234153, Control_c, 0, 64, 45
1, 234168, Control_c, 0, 64, 62
1, 234183, Control_c, 0, 64, 82
1, 234197, Control_c, 0, 64, 127
1, 234226, Note_on_c, 0, 70, 78
1, 234228, Note_off_c, 0, 69, 52
1, 234272, Poly_aftertouch_c, 0, 49, 127
1, 234352, Note_off_c, 0, 54, 31
1, 234383, Note_off_c, 0, 70, 59
1, 234390, Note_on_c, 0, 72, 65
1, 234403, Note_on_c, 0, 55, 42
1, 234420, Control_c, 0, 64, 90
1, 234435, Control_c, 0, 64, 68
1, 234450, Control_c, 0, 64, 50
1, 234465, Control_c, 0, 64, 34
1, 234480, Control_c, 0, 64, 43
1, 234501, Control_c, 0, 64, 62
1, 234516, Control_c, 0, 64, 77
1, 234531, Control_c, 0, 64, 127
1, 234539, Note_off_c, 0, 72, 58
1, 234559, Note_on_c, 0, 70, 62
1, 234692, Note_off_c, 0, 70, 57
1, 234700, Note_off_c, 0, 55, 30
1, 234722, Note_on_c, 0, 73, 56
1, 234736, Note_on_c, 0, 51, 40
1, 234753, Control_c, 0, 64, 99
1, 234768, Control_c, 0, 64, 73
1, 234783, Control_c, 0, 64, 57
1, 234798, Control_c, 0, 64, 34
1, 234812, Control_c, 0, 64, 22
1, 234827, Control_c, 0, 64, 32
1, 234842, Control_c, 0, 64, 53
1, 234857, Control_c, 0, 64, 67
1, 234861, Note_off_c, 0, 73, 54
1, 234871, Control_c, 0, 64, 79
1, 234886, Control_c, 0, 64, 111
1, 234890, Note_on_c, 0, 67, 49
1, 234901, Control_c, 0, 64, 127
1, 234911, Note_off_c, 0, 61, 41
1, 234946, Poly_aftertouch_c, 0, 49, 0
1, 235033, Note_off_c, 0, 51, 31
1, 235144, Note_off_c, 0, 67, 33
1, 235165, Note_on_c, 0, 68, 49
1, 235177, Note_on_c, 0, 60, 41
1, 235183, Note_on_c, 0, 56, 31
1, 235229, Control_c, 0, 64, 81
1, 235251, Control_c, 0, 64, 62
1, 235266, Control_c, 0, 64, 43
1, 235281, Control_c, 0, 64, 34
1, 235295, Control_c, 0, 64, 45
1, 235310, Control_c, 0, 64, 62
1, 235325, Control_c, 0, 64, 75
1, 235331, Note_off_c, 0, 60, 43
1, 235340, Control_c, 0, 64, 98
1, 235355, Control_c, 0, 64, 127
1, 235404, Note_on_c, 0, 63, 37
1, 235432, Note_off_c, 0, 56, 40
1, 235475, Note_off_c, 0, 63, 56
1, 235501, Note_on_c, 0, 51, 43
1, 235523, Note_on_c, 0, 58, 46
1, 235612, Note_off_c, 0, 58, 32
1, 235643, Note_on_c, 0, 63, 41
1, 235736, Note_off_c, 0, 63, 57
1, 235755, Note_on_c, 0, 54, 57
1, 235770, Note_on_c, 0, 60, 53
1, 235839, Note_off_c, 0, 51, 59
1, 235885, Note_on_c, 0, 63, 48
1, 235896, Note_off_c, 0, 60, 35
1, 236033, Note_off_c, 0, 63, 58
1, 236051, Note_on_c, 0, 52, 60
1, 236067, Note_on_c, 0, 61, 48
1, 236089, Control_c, 0, 64, 86
1, 236104, Control_c, 0, 64, 64
1, 236118, Control_c, 0, 64, 39
1, 236133, Control_c, 0, 64, 28
1, 236148, Control_c, 0, 64, 43
1, 236163, Control_c, 0, 64, 64
1, 236178, Control_c, 0, 64, 81
1, 236192, Note_off_c, 0, 54, 0
1, 236192, Control_c, 0, 64, 127
1, 236223, Note_on_c, 0, 64, 48
1, 236236, Note_off_c, 0, 61, 34
1, 236237, Poly_aftertouch_c, 0, 54, 0
1, 236384, Note_off_c, 0, 64, 53
1, 236398, Note_on_c, 0, 67, 57
1, 236422, Note_on_c, 0, 48, 52
1, 236423, Note_on_c, 0, 63, 43
1, 236439, Note_off_c, 0, 68, 43
1, 236444, Control_c, 0, 64, 89
1, 236459, Control_c, 0, 64, 65
1, 236474, Control_c, 0, 64, 46
1, 236489, Control_c, 0, 64, 39
1, 236504, Control_c, 0, 64, 53
1, 236518, Control_c, 0, 64, 72
1, 236533, Control_c, 0, 64, 99
1, 236548, Control_c, 0, 64, 127
1, 236557, Note_on_c, 0, 68, 66
1, 236564, Note_off_c, 0, 67, 59
1, 236574, Note_off_c, 0, 52, 46
1, 236584, Note_on_c, 0, 66, 49
1, 236584, Note_off_c, 0, 63, 35
1, 236623, Note_off_c, 0, 44, 35
1, 236680, Note_off_c, 0, 68, 61
1, 236683, Note_on_c, 0, 49, 66
1, 236693, Note_on_c, 0, 61, 63
1, 236693, Note_on_c, 0, 67, 64
1, 236718, Note_off_c, 0, 48, 57
1, 236815, Note_on_c, 0, 68, 66
1, 236816, Note_off_c, 0, 67, 55
1, 236821, Note_off_c, 0, 61, 57
1, 236824, Note_on_c, 0, 64, 63
1, 236870, Note_off_c, 0, 66, 32
1, 236920, Note_off_c, 0, 68, 61
1, 237019, Note_on_c, 0, 42, 59
1, 237021, Note_on_c, 0, 69, 65
1, 237029, Note_off_c, 0, 64, 55
1, 237050, Note_on_c, 0, 61, 53
1, 237089, Control_c, 0, 64, 108
1, 237104, Control_c, 0, 64, 72
1, 237119, Control_c, 0, 64, 53
1, 237134, Control_c, 0, 64, 38
1, 237148, Control_c, 0, 64, 51
1, 237151, Note_off_c, 0, 49, 61
1, 237163, Control_c, 0, 64, 67
1, 237169, Note_on_c, 0, 63, 62
1, 237169, Note_off_c, 0, 61, 57
1, 237178, Control_c, 0, 64, 84
1, 237193, Control_c, 0, 64, 127
1, 237276, Note_off_c, 0, 63, 58
1, 237277, Note_on_c, 0, 68, 70
1, 237286, Note_on_c, 0, 44, 70
1, 237296, Note_on_c, 0, 61, 64
1, 237313, Note_off_c, 0, 69, 35
1, 237365, Note_off_c, 0, 61, 60
1, 237392, Note_on_c, 0, 64, 77
1, 237410, Note_off_c, 0, 68, 61
1, 237445, Note_off_c, 0, 42, 53
1, 237458, Note_off_c, 0, 64, 60
1, 237497, Control_c, 0, 64, 109
1, 237510, Note_on_c, 0, 54, 75
1, 237512, Control_c, 0, 64, 75
1, 237514, Note_on_c, 0, 66, 75
1, 237515, Note_on_c, 0, 45, 81
1, 237527, Control_c, 0, 64, 68
1, 237528, Note_off_c, 0, 44, 61
1, 237542, Control_c, 0, 64, 78
1, 237557, Control_c, 0, 64, 127
1, 237598, Note_off_c, 0, 54, 57
1, 237631, Note_on_c, 0, 61, 67
1, 237691, Note_off_c, 0, 66, 62
1, 237800, Note_on_c, 0, 46, 70
1, 237800, Note_on_c, 0, 64, 77
1, 237818, Note_off_c, 0, 61, 59
1, 237819, Note_on_c, 0, 55, 67
1, 237821, Note_off_c, 0, 45, 63
1, 237883, Control_c, 0, 64, 96
1, 237897, Control_c, 0, 64, 66
1, 237912, Control_c, 0, 64, 35
1, 237927, Note_off_c, 0, 55, 54
1, 237927, Control_c, 0, 64, 0
1, 237941, Note_on_c, 0, 61, 69
1, 237957, Control_c, 0, 64, 39
1, 237971, Control_c, 0, 64, 64
1, 237986, Control_c, 0, 64, 83
1, 238001, Control_c, 0, 64, 127
1, 238023, Note_off_c, 0, 61, 61
1, 238038, Note_on_c, 0, 38, 74
1, 238053, Note_on_c, 0, 55, 61
1, 238078, Note_off_c, 0, 46, 34
1, 238103, Note_off_c, 0, 55, 53
1, 238135, Note_on_c, 0, 61, 66
1, 238173, Note_on_c, 0, 63, 61
1, 238178, Note_off_c, 0, 61, 63
1, 238178, Note_off_c, 0, 64, 60
1, 238191, Note_on_c, 0, 39, 72
1, 238196, Note_on_c, 0, 66, 76
1, 238196, Note_off_c, 0, 38, 60
1, 238265, Note_off_c, 0, 63, 52
1, 238292, Note_on_c, 0, 64, 83
1, 238302, Note_off_c, 0, 39, 60
1, 238329, Note_on_c, 0, 38, 72
1, 238414, Note_on_c, 0, 63, 77
1, 238432, Note_off_c, 0, 66, 57
1, 238453, Note_off_c, 0, 64, 60
1, 238500, Note_off_c, 0, 38, 62
1, 238511, Note_on_c, 0, 39, 52
1, 238540, Note_off_c, 0, 39, 63
1, 238639, Note_on_c, 0, 68, 83
1, 238647, Note_on_c, 0, 44, 68
1, 238654, Note_on_c, 0, 60, 69
1, 238669, Note_on_c, 0, 32, 73
1, 238676, Note_off_c, 0, 63, 61
1, 238676, Control_c, 0, 64, 96
1, 238691, Control_c, 0, 64, 63
1, 238706, Control_c, 0, 64, 0
1, 238750, Control_c, 0, 64, 22
1, 238763, Note_off_c, 0, 60, 63
1, 238765, Control_c, 0, 64, 62
1, 238780, Control_c, 0, 64, 83
1, 238781, Note_off_c, 0, 32, 63
1, 238792, Note_off_c, 0, 44, 62
1, 238794, Control_c, 0, 64, 127
1, 238811, Note_on_c, 0, 63, 71
1, 238915, Note_off_c, 0, 63, 58
1, 238919, Note_on_c, 0, 51, 81
1, 238927, Note_on_c, 0, 39, 71
1, 238930, Note_on_c, 0, 58, 72
1, 239015, Note_off_c, 0, 39, 63
1, 239016, Note_off_c, 0, 51, 63
1, 239033, Note_on_c, 0, 63, 81
1, 239053, Note_off_c, 0, 68, 64
1, 239091, Note_off_c, 0, 58, 29
1, 239127, Note_on_c, 0, 54, 79
1, 239130, Note_on_c, 0, 68, 87
1, 239142, Note_on_c, 0, 42, 69
1, 239147, Note_on_c, 0, 60, 76
1, 239148, Note_off_c, 0, 63, 60
1, 239220, Note_off_c, 0, 60, 62
1, 239245, Note_off_c, 0, 54, 62
1, 239257, Note_on_c, 0, 63, 77
1, 239281, Note_off_c, 0, 42, 62
1, 239356, Note_off_c, 0, 63, 62
1, 239380, Note_on_c, 0, 56, 88
1, 239384, Note_on_c, 0, 52, 76
1, 239386, Note_on_c, 0, 40, 80
1, 239395, Control_c, 0, 64, 109
1, 239410, Control_c, 0, 64, 67
1, 239425, Control_c, 0, 64, 33
1, 239440, Control_c, 0, 64, 0
1, 239455, Control_c, 0, 64, 46
1, 239470, Control_c, 0, 64, 72
1, 239485, Control_c, 0, 64, 114
1, 239493, Note_off_c, 0, 52, 58
1, 239500, Control_c, 0, 64, 127
1, 239506, Note_on_c, 0, 61, 75
1, 239523, Note_off_c, 0, 56, 46
1, 239526, Note_off_c, 0, 40, 64
1, 239637, Note_on_c, 0, 48, 82
1, 239646, Note_on_c, 0, 36, 81
1, 239648, Control_c, 0, 64, 116
1, 239651, Note_on_c, 0, 56, 79
1, 239659, Note_on_c, 0, 67, 79
1, 239662, Control_c, 0, 64, 70
1, 239677, Control_c, 0, 64, 50
1, 239692, Control_c, 0, 64, 57
1, 239696, Note_off_c, 0, 68, 64
1, 239707, Control_c, 0, 64, 72
1, 239722, Control_c, 0, 64, 127
1, 239762, Note_off_c, 0, 48, 61
1, 239763, Note_off_c, 0, 56, 0
1, 239783, Note_on_c, 0, 56, 24
1, 239784, Note_on_c, 0, 68, 85
1, 239796, Note_on_c, 0, 66, 71
1, 239798, Note_off_c, 0, 61, 59
1, 239804, Note_off_c, 0, 67, 59
1, 239875, Note_off_c, 0, 56, 39
1, 239892, Note_off_c, 0, 68, 63
1, 239923, Note_on_c, 0, 67, 84
1, 239929, Note_on_c, 0, 56, 81
1, 239930, Note_on_c, 0, 49, 89
1, 239935, Note_on_c, 0, 37, 78
1, 239971, Note_off_c, 0, 36, 60
1, 240001, Note_off_c, 0, 56, 63
1, 240036, Note_off_c, 0, 49, 62
1, 240037, Note_on_c, 0, 68, 85
1, 240055, Note_off_c, 0, 67, 60
1, 240057, Note_on_c, 0, 64, 72
1, 240069, Note_on_c, 0, 65, 70
1, 240090, Note_off_c, 0, 65, 59
1, 240096, Note_off_c, 0, 37, 63
1, 240136, Note_off_c, 0, 68, 62
1, 240144, Note_off_c, 0, 66, 40
1, 240243, Note_on_c, 0, 42, 81
1, 240244, Note_on_c, 0, 71, 90
1, 240258, Note_on_c, 0, 30, 76
1, 240259, Note_on_c, 0, 61, 80
1, 240271, Note_off_c, 0, 64, 63
1, 240278, Control_c, 0, 64, 101
1, 240292, Control_c, 0, 64, 61
1, 240307, Control_c, 0, 64, 34
1, 240322, Control_c, 0, 64, 50
1, 240337, Control_c, 0, 64, 73
1, 240352, Control_c, 0, 64, 127
1, 240387, Note_on_c, 0, 63, 79
1, 240394, Note_on_c, 0, 69, 69
1, 240407, Note_off_c, 0, 61, 59
1, 240412, Note_off_c, 0, 71, 60
1, 240433, Note_off_c, 0, 42, 63
1, 240439, Note_off_c, 0, 30, 62
1, 240464, Note_off_c, 0, 69, 60
1, 240495, Note_off_c, 0, 63, 61
1, 240515, Poly_aftertouch_c, 0, 69, 0
1, 240522, Note_on_c, 0, 44, 89
1, 240522, Note_on_c, 0, 69, 77
1, 240523, Note_on_c, 0, 61, 87
1, 240534, Note_on_c, 0, 32, 79
1, 240632, Note_off_c, 0, 32, 63
1, 240638, Note_off_c, 0, 69, 64
1, 240639, Note_on_c, 0, 68, 82
1, 240642, Note_on_c, 0, 64, 78
1, 240644, Note_off_c, 0, 44, 61
1, 240664, Note_off_c, 0, 61, 29
1, 240709, Note_off_c, 0, 64, 62
1, 240710, Note_off_c, 0, 68, 65
1, 240737, Note_on_c, 0, 45, 88
1, 240744, Note_on_c, 0, 33, 87
1, 240746, Note_on_c, 0, 68, 80
1, 240746, Control_c, 0, 64, 115
1, 240754, Note_on_c, 0, 54, 90
1, 240760, Control_c, 0, 64, 68
1, 240775, Control_c, 0, 64, 63
1, 240790, Control_c, 0, 64, 84
1, 240805, Control_c, 0, 64, 127
1, 240818, Note_off_c, 0, 45, 63
1, 240818, Note_off_c, 0, 54, 57
1, 240859, Note_on_c, 0, 61, 84
1, 240866, Note_on_c, 0, 66, 74
1, 240895, Note_on_c, 0, 65, 63
1, 240910, Note_off_c, 0, 66, 0
1, 240926, Note_on_c, 0, 66, 37
1, 240935, Note_off_c, 0, 65, 60
1, 240958, Note_off_c, 0, 66, 56
1, 240978, Note_off_c, 0, 68, 64
1, 241030, Note_off_c, 0, 61, 56
1, 241036, Note_on_c, 0, 64, 87
1, 241043, Note_on_c, 0, 55, 83
1, 241053, Note_on_c, 0, 46, 90
1, 241056, Control_c, 0, 64, 73
1, 241060, Note_on_c, 0, 34, 79
1, 241071, Control_c, 0, 64, 40
1, 241086, Control_c, 0, 64, 0
1, 241094, Note_off_c, 0, 33, 64
1, 241101, Control_c, 0, 64, 56
1, 241115, Control_c, 0, 64, 89
1, 241130, Control_c, 0, 64, 127
1, 241147, Note_off_c, 0, 55, 62
1, 241181, Note_off_c, 0, 46, 64
1, 241183, Note_on_c, 0, 61, 85
1, 241192, Note_on_c, 0, 63, 83
1, 241192, Note_off_c, 0, 64, 62
1, 241257, Note_off_c, 0, 34, 62
1, 241259, Note_off_c, 0, 61, 62
1, 241286, Note_off_c, 0, 63, 62
1, 241338, Note_on_c, 0, 39, 96
1, 241345, Note_on_c, 0, 27, 85
1, 241346, Note_on_c, 0, 71, 98
1, 241353, Note_on_c, 0, 61, 92
1, 241379, Note_off_c, 0, 27, 65
1, 241415, Note_off_c, 0, 39, 64
1, 241447, Note_off_c, 0, 61, 64
1, 241483, Note_off_c, 0, 71, 61
1, 241492, Note_on_c, 0, 67, 91
1, 241500, Note_on_c, 0, 70, 94
1, 241547, Note_off_c, 0, 67, 65
1, 241627, Note_off_c, 0, 70, 61
1, 241684, Note_on_c, 0, 76, 96
1, 241686, Note_on_c, 0, 67, 88
1, 241694, Note_on_c, 0, 51, 98
1, 241700, Note_on_c, 0, 39, 86
1, 241747, Control_c, 0, 64, 74
1, 241762, Control_c, 0, 64, 58
1, 241777, Control_c, 0, 64, 65
1, 241791, Control_c, 0, 64, 83
1, 241806, Control_c, 0, 64, 127
1, 241846, Note_off_c, 0, 51, 63
1, 241855, Note_off_c, 0, 39, 63
1, 241869, Note_on_c, 0, 44, 28
1, 241872, Note_on_c, 0, 73, 90
1, 241872, Note_on_c, 0, 75, 91
1, 241873, Note_off_c, 0, 76, 63
1, 241903, Note_off_c, 0, 67, 62
1, 241908, Note_off_c, 0, 44, 39
1, 241962, Note_off_c, 0, 73, 62
1, 241981, Note_off_c, 0, 75, 64
1, 242171, Note_on_c, 0, 80, 96
1, 242179, Note_on_c, 0, 44, 93
1, 242182, Note_on_c, 0, 75, 83
1, 242185, Note_on_c, 0, 73, 84
1, 242185, Note_on_c, 0, 32, 81
1, 242244, Control_c, 0, 64, 122
1, 242259, Control_c, 0, 64, 63
1, 242274, Control_c, 0, 64, 0
1, 242303, Control_c, 0, 64, 60
1, 242318, Control_c, 0, 64, 114
1, 242333, Control_c, 0, 64, 127
1, 242338, Note_off_c, 0, 75, 61
1, 242340, Note_off_c, 0, 73, 61
1, 242346, Note_on_c, 0, 72, 69
1, 242355, Note_off_c, 0, 32, 64
1, 242378, Note_off_c, 0, 44, 61
1, 242397, Note_off_c, 0, 80, 61
1, 242422, Note_off_c, 0, 72, 63
1, 242477, Note_on_c, 0, 80, 93
1, 242481, Note_on_c, 0, 75, 76
1, 242487, Note_on_c, 0, 51, 92
1, 242496, Note_on_c, 0, 39, 83
1, 242497, Note_on_c, 0, 72, 64
1, 242539, Note_off_c, 0, 72, 56
1, 242553, Note_off_c, 0, 75, 60
1, 242599, Note_on_c, 0, 70, 81
1, 242621, Note_off_c, 0, 80, 57
1, 242624, Note_off_c, 0, 51, 54
1, 242659, Note_on_c, 0, 69, 14
1, 242679, Note_off_c, 0, 39, 62
1, 242685, Note_off_c, 0, 70, 61
1, 242706, Note_off_c, 0, 69, 36
1, 242715, Note_on_c, 0, 80, 93
1, 242721, Note_on_c, 0, 44, 86
1, 242721, Note_on_c, 0, 72, 74
1, 242730, Note_on_c, 0, 75, 78
1, 242734, Note_on_c, 0, 51, 87
1, 242783, Note_off_c, 0, 72, 61
1, 242814, Note_off_c, 0, 75, 61
1, 242829, Poly_aftertouch_c, 0, 77, 127
1, 242835, Note_on_c, 0, 68, 92
1, 242876, Note_off_c, 0, 80, 58
1, 242926, Poly_aftertouch_c, 0, 77, 0
1, 243002, Note_on_c, 0, 80, 87
1, 243006, Note_on_c, 0, 70, 86
1, 243007, Control_c, 0, 64, 65
1, 243008, Note_on_c, 0, 75, 85
1, 243022, Control_c, 0, 64, 43
1, 243034, Note_off_c, 0, 51, 62
1, 243035, Note_off_c, 0, 68, 62
1, 243036, Control_c, 0, 64, 59
1, 243051, Control_c, 0, 64, 84
1, 243066, Control_c, 0, 64, 127
1, 243126, Note_on_c, 0, 68, 88
1, 243126, Note_off_c, 0, 75, 61
1, 243131, Note_off_c, 0, 70, 60
1, 243159, Note_off_c, 0, 80, 63
1, 243189, Note_off_c, 0, 68, 62
1, 243232, Note_on_c, 0, 79, 88
1, 243234, Note_on_c, 0, 58, 90
1, 243240, Note_on_c, 0, 70, 79
1, 243244, Note_on_c, 0, 75, 80
1, 243261, Note_on_c, 0, 46, 34
1, 243294, Note_off_c, 0, 46, 42
1, 243312, Note_off_c, 0, 70, 62
1, 243315, Note_off_c, 0, 79, 60
1, 243329, Note_off_c, 0, 75, 62
1, 243345, Note_on_c, 0, 67, 80
1, 243361, Note_off_c, 0, 58, 59
1, 243389, Note_off_c, 0, 67, 65
1, 243451, Control_c, 0, 64, 86
1, 243452, Note_on_c, 0, 58, 98
1, 243453, Note_on_c, 0, 75, 84
1, 243455, Note_on_c, 0, 70, 80
1, 243458, Note_on_c, 0, 67, 76
1, 243466, Control_c, 0, 64, 64
1, 243485, Note_on_c, 0, 56, 61
1, 243488, Control_c, 0, 64, 67
1, 243503, Control_c, 0, 64, 110
1, 243514, Note_off_c, 0, 56, 49
1, 243518, Control_c, 0, 64, 127
1, 243524, Note_off_c, 0, 67, 63
1, 243552, Note_off_c, 0, 70, 60
1, 243559, Note_off_c, 0, 75, 63
1, 243561, Note_off_c, 0, 44, 62
1, 243585, Note_on_c, 0, 63, 81
1, 243634, Note_off_c, 0, 63, 60
1, 243737, Note_on_c, 0, 78, 89
1, 243744, Note_on_c, 0, 75, 65
1, 243748, Note_on_c, 0, 70, 74
1, 243754, Control_c, 0, 64, 67
1, 243769, Control_c, 0, 64, 49
1, 243784, Control_c, 0, 64, 61
1, 243799, Control_c, 0, 64, 89
1, 243815, Control_c, 0, 64, 127
1, 243831, Note_off_c, 0, 58, 60
1, 243863, Note_off_c, 0, 70, 58
1, 243869, Note_on_c, 0, 69, 79
1, 243892, Note_off_c, 0, 75, 51
1, 243894, Note_off_c, 0, 78, 59
1, 243944, Note_off_c, 0, 69, 60
1, 243989, Note_on_c, 0, 78, 79
1, 243992, Note_on_c, 0, 70, 73
1, 243997, Note_on_c, 0, 57, 83
1, 244002, Note_on_c, 0, 75, 73
1, 244045, Note_off_c, 0, 70, 63
1, 244098, Note_on_c, 0, 66, 82
1, 244101, Note_off_c, 0, 78, 59
1, 244108, Note_on_c, 0, 58, 84
1, 244110, Note_off_c, 0, 57, 65
1, 244113, Note_off_c, 0, 75, 63
1, 244204, Note_on_c, 0, 78, 85
1, 244207, Note_on_c, 0, 70, 75
1, 244216, Note_on_c, 0, 75, 80
1, 244233, Note_on_c, 0, 57, 85
1, 244233, Note_off_c, 0, 66, 58
1, 244234, Note_off_c, 0, 58, 61
1, 244294, Note_off_c, 0, 70, 60
1, 244325, Note_on_c, 0, 66, 84
1, 244326, Note_off_c, 0, 78, 62
1, 244331, Note_on_c, 0, 58, 86
1, 244344, Note_off_c, 0, 75, 57
1, 244373, Note_off_c, 0, 57, 60
1, 244506, Note_on_c, 0, 63, 59
1, 244506, Note_on_c, 0, 78, 83
1, 244513, Note_on_c, 0, 70, 81
1, 244516, Note_on_c, 0, 75, 79
1, 244547, Note_off_c, 0, 66, 39
1, 244556, Note_off_c, 0, 58, 60
1, 244592, Control_c, 0, 64, 75
1, 244608, Control_c, 0, 64, 47
1, 244623, Control_c, 0, 64, 0
1, 244625, Note_off_c, 0, 70, 59
1, 244651, Note_on_c, 0, 66, 71
1, 244653, Control_c, 0, 64, 44
1, 244668, Control_c, 0, 64, 74
1, 244682, Control_c, 0, 64, 127
1, 244716, Note_off_c, 0, 75, 60
1, 244760, Note_on_c, 0, 74, 69
1, 244764, Note_on_c, 0, 70, 67
1, 244779, Note_off_c, 0, 63, 52
1, 244810, Note_off_c, 0, 66, 51
1, 244874, Note_off_c, 0, 74, 59
1, 244880, Note_on_c, 0, 66, 73
1, 244880, Note_off_c, 0, 70, 56
1, 245000, Note_on_c, 0, 70, 80
1, 245010, Note_on_c, 0, 73, 76
1, 245033, Note_off_c, 0, 66, 57
1, 245120, Note_off_c, 0, 70, 62
1, 245122, Note_on_c, 0, 66, 76
1, 245140, Note_off_c, 0, 73, 62
1, 245141, Note_off_c, 0, 78, 59
1, 245325, Note_on_c, 0, 78, 92
1, 245327, Note_on_c, 0, 72, 74
1, 245330, Note_on_c, 0, 69, 72
1, 245336, Note_off_c, 0, 66, 61
1, 245339, Note_on_c, 0, 44, 83
1, 245349, Note_on_c, 0, 32, 76
1, 245402, Control_c, 0, 64, 71
1, 245417, Control_c, 0, 64, 56
1, 245431, Control_c, 0, 64, 68
1, 245446, Control_c, 0, 64, 92
1, 245461, Control_c, 0, 64, 127
1, 245472, Note_on_c, 0, 68, 84
1, 245479, Note_off_c, 0, 32, 63
1, 245497, Note_off_c, 0, 72, 51
1, 245502, Note_off_c, 0, 44, 61
1, 245515, Note_off_c, 0, 69, 30
1, 245529, Note_off_c, 0, 78, 61
1, 245547, Note_off_c, 0, 68, 63
1, 245590, Note_on_c, 0, 78, 91
1, 245593, Note_on_c, 0, 72, 71
1, 245596, Note_on_c, 0, 51, 91
1, 245598, Note_on_c, 0, 68, 69
1, 245599, Note_on_c, 0, 39, 84
1, 245640, Note_off_c, 0, 51, 64
1, 245660, Note_off_c, 0, 39, 62
1, 245701, Note_on_c, 0, 67, 86
1, 245729, Note_off_c, 0, 68, 0
1, 245730, Note_off_c, 0, 78, 59
1, 245745, Poly_aftertouch_c, 0, 74, 127
1, 245762, Note_off_c, 0, 67, 62
1, 245764, Note_off_c, 0, 72, 26
1, 245787, Poly_aftertouch_c, 0, 74, 0
1, 245791, Poly_aftertouch_c, 0, 68, 0
1, 245804, Note_on_c, 0, 68, 51
1, 245818, Note_on_c, 0, 72, 63
1, 245819, Note_on_c, 0, 56, 91
1, 245819, Note_on_c, 0, 78, 94
1, 245824, Note_on_c, 0, 44, 85
1, 245855, Control_c, 0, 64, 81
1, 245870, Control_c, 0, 64, 75
1, 245882, Note_off_c, 0, 68, 62
1, 245884, Control_c, 0, 64, 90
1, 245899, Control_c, 0, 64, 127
1, 245909, Note_on_c, 0, 74, 35
1, 245926, Note_on_c, 0, 63, 88
1, 245957, Note_off_c, 0, 72, 35
1, 245968, Note_off_c, 0, 78, 63
1, 245992, Note_off_c, 0, 63, 62
1, 245999, Note_off_c, 0, 74, 53
1, 246032, Control_c, 0, 64, 76
1, 246047, Control_c, 0, 64, 65
1, 246054, Note_on_c, 0, 72, 72
1, 246055, Note_on_c, 0, 78, 93
1, 246062, Control_c, 0, 64, 71
1, 246067, Note_on_c, 0, 68, 68
1, 246076, Control_c, 0, 64, 127
1, 246119, Note_on_c, 0, 49, 15
1, 246129, Note_on_c, 0, 51, 25
1, 246129, Note_off_c, 0, 56, 61
1, 246162, Note_on_c, 0, 67, 83
1, 246162, Note_off_c, 0, 68, 48
1, 246165, Note_off_c, 0, 51, 52
1, 246186, Note_off_c, 0, 78, 63
1, 246189, Note_off_c, 0, 49, 37
1, 246239, Note_off_c, 0, 67, 62
1, 246269, Control_c, 0, 64, 87
1, 246279, Note_on_c, 0, 77, 88
1, 246280, Note_on_c, 0, 68, 83
1, 246284, Control_c, 0, 64, 92
1, 246293, Note_on_c, 0, 56, 87
1, 246298, Control_c, 0, 64, 127
1, 246350, Note_off_c, 0, 68, 64
1, 246359, Note_off_c, 0, 77, 64
1, 246380, Note_off_c, 0, 72, 30
1, 246393, Note_off_c, 0, 56, 62
1, 246395, Note_on_c, 0, 64, 84
1, 246465, Note_off_c, 0, 64, 62
1, 246533, Note_on_c, 0, 72, 85
1, 246539, Note_on_c, 0, 65, 82
1, 246540, Note_on_c, 0, 56, 86
1, 246573, Control_c, 0, 64, 80
1, 246587, Control_c, 0, 64, 61
1, 246589, Note_off_c, 0, 65, 65
1, 246602, Control_c, 0, 64, 64
1, 246617, Control_c, 0, 64, 94
1, 246632, Control_c, 0, 64, 127
1, 246664, Note_on_c, 0, 60, 74
1, 246690, Note_off_c, 0, 72, 63
1, 246719, Note_off_c, 0, 60, 58
1, 246770, Note_off_c, 0, 44, 59
1, 246839, Note_on_c, 0, 71, 70
1, 246839, Note_on_c, 0, 76, 84
1, 246847, Note_on_c, 0, 64, 71
1, 246881, Note_off_c, 0, 64, 58
1, 246898, Control_c, 0, 64, 78
1, 246913, Control_c, 0, 64, 56
1, 246928, Control_c, 0, 64, 58
1, 246935, Note_off_c, 0, 71, 60
1, 246943, Control_c, 0, 64, 75
1, 246958, Control_c, 0, 64, 127
1, 246990, Note_off_c, 0, 76, 55
1, 247003, Note_off_c, 0, 56, 53
1, 247010, Note_on_c, 0, 63, 73
1, 247101, Note_off_c, 0, 63, 60
1, 247146, Note_on_c, 0, 76, 74
1, 247147, Note_on_c, 0, 55, 75
1, 247157, Note_on_c, 0, 71, 57
1, 247181, Control_c, 0, 64, 98
1, 247195, Control_c, 0, 64, 65
1, 247210, Control_c, 0, 64, 53
1, 247232, Control_c, 0, 64, 66
1, 247247, Control_c, 0, 64, 100
1, 247249, Note_off_c, 0, 71, 56
1, 247262, Control_c, 0, 64, 127
1, 247308, Note_on_c, 0, 56, 74
1, 247312, Note_off_c, 0, 76, 48
1, 247313, Note_on_c, 0, 64, 67
1, 247346, Note_off_c, 0, 55, 62
1, 247445, Note_on_c, 0, 76, 76
1, 247450, Note_on_c, 0, 71, 66
1, 247453, Note_on_c, 0, 55, 83
1, 247454, Control_c, 0, 64, 82
1, 247469, Control_c, 0, 64, 57
1, 247473, Note_off_c, 0, 64, 34
1, 247478, Note_off_c, 0, 56, 60
1, 247484, Control_c, 0, 64, 46
1, 247499, Control_c, 0, 64, 64
1, 247514, Control_c, 0, 64, 97
1, 247528, Control_c, 0, 64, 127
1, 247551, Note_off_c, 0, 71, 53
1, 247579, Note_on_c, 0, 56, 87
1, 247581, Note_off_c, 0, 76, 58
1, 247582, Note_off_c, 0, 55, 63
1, 247593, Note_on_c, 0, 64, 73
1, 247644, Note_off_c, 0, 56, 65
1, 247847, Note_on_c, 0, 76, 68
1, 247864, Note_on_c, 0, 71, 51
1, 247864, Note_on_c, 0, 68, 77
1, 247927, Note_off_c, 0, 64, 28
1, 247981, Control_c, 0, 64, 80
1, 247996, Control_c, 0, 64, 54
1, 248011, Control_c, 0, 64, 0
1, 248055, Control_c, 0, 64, 37
1, 248061, Note_off_c, 0, 71, 56
1, 248070, Control_c, 0, 64, 61
1, 248085, Control_c, 0, 64, 72
1, 248091, Note_on_c, 0, 64, 50
1, 248099, Control_c, 0, 64, 87
1, 248114, Control_c, 0, 64, 127
1, 248240, Note_off_c, 0, 64, 46
1, 248259, Note_on_c, 0, 71, 68
1, 248415, Note_off_c, 0, 68, 40
1, 248450, Note_off_c, 0, 71, 56
1, 248456, Note_on_c, 0, 63, 55
1, 248706, Note_on_c, 0, 71, 53
1, 248761, Control_c, 0, 64, 106
1, 248775, Control_c, 0, 64, 69
1, 248790, Control_c, 0, 64, 45
1, 248793, Note_off_c, 0, 63, 39
1, 248805, Control_c, 0, 64, 0
1, 248864, Control_c, 0, 64, 27
1, 248879, Control_c, 0, 64, 55
1, 248894, Control_c, 0, 64, 70
1, 248908, Control_c, 0, 64, 82
1, 248923, Control_c, 0, 64, 105
1, 248938, Control_c, 0, 64, 127
1, 249032, Note_on_c, 0, 62, 47
1, 249164, Note_off_c, 0, 71, 47
1, 249175, Control_c, 0, 67, 8
1, 249185, Note_off_c, 0, 76, 43
1, 249190, Control_c, 0, 67, 11
1, 249205, Control_c, 0, 67, 12
1, 249218, Control_c, 0, 67, 14
1, 249233, Control_c, 0, 67, 15
1, 249248, Control_c, 0, 67, 17
1, 249263, Control_c, 0, 67, 19
1, 249278, Control_c, 0, 67, 21
1, 249292, Control_c, 0, 67, 25
1, 249307, Control_c, 0, 67, 30
1, 249322, Control_c, 0, 67, 38
1, 249337, Control_c, 0, 67, 47
1, 249352, Control_c, 0, 67, 54
1, 249366, Control_c, 0, 67, 62
1, 249381, Control_c, 0, 67, 68
1, 249397, Control_c, 0, 67, 75
1, 249412, Control_c, 0, 67, 83
1, 249427, Control_c, 0, 67, 91
1, 249442, Control_c, 0, 67, 100
1, 249456, Control_c, 0, 67, 109
1, 249479, Control_c, 0, 67, 115
1, 249481, Note_on_c, 0, 33, 45
1, 249481, Note_on_c, 0, 61, 49
1, 249494, Control_c, 0, 67, 118
1, 249509, Control_c, 0, 67, 119
1, 249520, Note_off_c, 0, 62, 36
1, 249523, Control_c, 0, 67, 122
1, 249538, Control_c, 0, 67, 125
1, 249553, Control_c, 0, 67, 127
1, 249597, Control_c, 0, 64, 80
1, 249612, Control_c, 0, 64, 62
1, 249627, Control_c, 0, 64, 53
1, 249641, Control_c, 0, 64, 61
1, 249656, Control_c, 0, 64, 72
1, 249671, Control_c, 0, 64, 110
1, 249686, Control_c, 0, 64, 127
1, 249697, Note_off_c, 0, 33, 64
1, 249984, Note_off_c, 0, 61, 41
1, 250010, Note_on_c, 0, 69, 45
1, 250017, Note_on_c, 0, 52, 45
1, 250019, Note_on_c, 0, 67, 42
1, 250356, Note_on_c, 0, 57, 45
1, 250356, Note_on_c, 0, 76, 63
1, 250380, Note_off_c, 0, 67, 43
1, 250380, Note_on_c, 0, 64, 36
1, 250410, Note_off_c, 0, 69, 31
1, 250576, Note_on_c, 0, 69, 52
1, 250597, Note_on_c, 0, 59, 45
1, 250607, Note_on_c, 0, 67, 43
1, 250630, Note_off_c, 0, 76, 34
1, 250651, Note_off_c, 0, 64, 38
1, 250763, Note_on_c, 0, 76, 68
1, 250779, Note_on_c, 0, 61, 51
1, 250781, Note_on_c, 0, 64, 47
1, 250791, Note_off_c, 0, 69, 47
1, 250816, Note_off_c, 0, 67, 33
1, 250824, Note_off_c, 0, 52, 32
1, 250829, Note_off_c, 0, 57, 40
1, 250837, Note_off_c, 0, 59, 39
1, 250865, Note_off_c, 0, 61, 54
1, 250947, Note_on_c, 0, 69, 53
1, 250961, Note_on_c, 0, 67, 38
1, 251033, Note_off_c, 0, 76, 32
1, 251044, Note_off_c, 0, 64, 26
1, 251125, Control_c, 0, 67, 127
1, 251155, Control_c, 0, 67, 126
1, 251169, Control_c, 0, 67, 126
1, 251228, Control_c, 0, 67, 125
1, 251239, Note_on_c, 0, 76, 62
1, 251241, Note_on_c, 0, 64, 45
1, 251259, Note_on_c, 0, 38, 41
1, 251284, Note_off_c, 0, 69, 31
1, 251288, Control_c, 0, 64, 86
1, 251294, Note_off_c, 0, 67, 43
1, 251302, Control_c, 0, 64, 64
1, 251317, Control_c, 0, 64, 46
1, 251332, Control_c, 0, 64, 44
1, 251347, Control_c, 0, 64, 60
1, 251362, Control_c, 0, 64, 76
1, 251376, Control_c, 0, 64, 127
1, 251376, Control_c, 0, 67, 125
1, 251381, Note_off_c, 0, 38, 63
1, 251406, Control_c, 0, 67, 125
1, 251420, Control_c, 0, 67, 125
1, 251450, Control_c, 0, 67, 124
1, 251465, Control_c, 0, 67, 124
1, 251489, Note_off_c, 0, 76, 35
1, 251502, Note_on_c, 0, 66, 47
1, 251506, Note_on_c, 0, 69, 43
1, 251507, Note_off_c, 0, 64, 41
1, 251516, Note_on_c, 0, 57, 52
1, 251618, Note_off_c, 0, 57, 51
1, 251643, Control_c, 0, 67, 123
1, 251645, Note_off_c, 0, 66, 47
1, 251653, Note_on_c, 0, 74, 70
1, 251671, Note_off_c, 0, 69, 49
1, 251673, Control_c, 0, 67, 123
1, 251681, Note_on_c, 0, 62, 43
1, 251683, Note_on_c, 0, 54, 41
1, 251702, Control_c, 0, 67, 122
1, 251739, Control_c, 0, 67, 122
1, 251754, Control_c, 0, 67, 121
1, 251759, Note_off_c, 0, 62, 49
1, 251769, Control_c, 0, 67, 121
1, 251774, Note_off_c, 0, 54, 36
1, 251814, Note_on_c, 0, 57, 39
1, 251814, Control_c, 0, 67, 120
1, 251820, Note_on_c, 0, 69, 52
1, 251829, Control_c, 0, 67, 120
1, 251833, Note_on_c, 0, 66, 43
1, 251843, Control_c, 0, 67, 119
1, 251858, Control_c, 0, 67, 119
1, 251888, Control_c, 0, 67, 118
1, 251918, Control_c, 0, 67, 118
1, 251957, Note_off_c, 0, 57, 34
1, 251971, Note_on_c, 0, 73, 69
1, 251972, Note_off_c, 0, 69, 51
1, 251978, Control_c, 0, 67, 117
1, 251978, Note_off_c, 0, 66, 55
1, 251984, Note_on_c, 0, 47, 50
1, 251990, Note_on_c, 0, 61, 57
1, 252077, Note_off_c, 0, 47, 48
1, 252081, Control_c, 0, 67, 117
1, 252082, Note_off_c, 0, 74, 32
1, 252126, Note_on_c, 0, 66, 39
1, 252133, Note_on_c, 0, 69, 51
1, 252134, Note_on_c, 0, 57, 40
1, 252142, Note_off_c, 0, 61, 52
1, 252155, Control_c, 0, 67, 118
1, 252165, Note_off_c, 0, 57, 62
1, 252183, Note_off_c, 0, 73, 36
1, 252304, Control_c, 0, 67, 117
1, 252334, Note_off_c, 0, 69, 55
1, 252336, Note_on_c, 0, 73, 57
1, 252350, Note_on_c, 0, 40, 49
1, 252353, Note_on_c, 0, 61, 37
1, 252369, Note_off_c, 0, 66, 30
1, 252392, Control_c, 0, 64, 122
1, 252407, Control_c, 0, 64, 72
1, 252422, Control_c, 0, 64, 54
1, 252437, Control_c, 0, 64, 34
1, 252452, Control_c, 0, 64, 37
1, 252474, Control_c, 0, 64, 56
1, 252489, Control_c, 0, 64, 71
1, 252504, Control_c, 0, 64, 95
1, 252518, Control_c, 0, 64, 127
1, 252522, Note_off_c, 0, 40, 58
1, 252526, Note_off_c, 0, 73, 61
1, 252539, Note_on_c, 0, 68, 53
1, 252551, Note_on_c, 0, 52, 48
1, 252557, Note_on_c, 0, 64, 44
1, 252563, Note_off_c, 0, 61, 35
1, 252577, Control_c, 0, 67, 117
1, 252580, Note_off_c, 0, 52, 61
1, 252667, Control_c, 0, 67, 117
1, 252708, Note_on_c, 0, 71, 63
1, 252708, Note_off_c, 0, 68, 57
1, 252717, Note_off_c, 0, 64, 34
1, 252729, Note_on_c, 0, 56, 51
1, 252732, Note_on_c, 0, 59, 39
1, 252832, Note_off_c, 0, 56, 0
1, 252879, Note_on_c, 0, 68, 48
1, 252883, Note_on_c, 0, 52, 40
1, 252887, Note_off_c, 0, 71, 53
1, 252906, Note_on_c, 0, 64, 30
1, 252908, Poly_aftertouch_c, 0, 56, 0
1, 252912, Note_off_c, 0, 59, 40
1, 252935, Control_c, 0, 67, 117
1, 252949, Control_c, 0, 67, 117
1, 252978, Control_c, 0, 67, 117
1, 253094, Note_on_c, 0, 69, 57
1, 253100, Note_off_c, 0, 68, 0
1, 253104, Note_on_c, 0, 49, 44
1, 253108, Note_off_c, 0, 64, 41
1, 253112, Note_on_c, 0, 57, 44
1, 253121, Note_off_c, 0, 52, 33
1, 253140, Poly_aftertouch_c, 0, 68, 0
1, 253140, Control_c, 0, 64, 114
1, 253155, Control_c, 0, 64, 82
1, 253170, Control_c, 0, 64, 64
1, 253185, Control_c, 0, 64, 47
1, 253200, Control_c, 0, 64, 31
1, 253222, Control_c, 0, 64, 33
1, 253237, Control_c, 0, 64, 54
1, 253252, Control_c, 0, 64, 66
1, 253266, Control_c, 0, 64, 78
1, 253280, Note_off_c, 0, 57, 32
1, 253281, Control_c, 0, 64, 97
1, 253296, Control_c, 0, 64, 127
1, 253310, Note_on_c, 0, 64, 47
1, 253331, Note_on_c, 0, 52, 35
1, 253387, Note_off_c, 0, 49, 31
1, 253433, Note_off_c, 0, 52, 50
1, 253445, Control_c, 0, 67, 117
1, 253574, Note_off_c, 0, 64, 52
1, 253582, Note_off_c, 0, 69, 0
1, 253611, Note_on_c, 0, 73, 55
1, 253636, Note_on_c, 0, 45, 42
1, 253640, Note_on_c, 0, 61, 41
1, 253662, Poly_aftertouch_c, 0, 69, 0
1, 253771, Control_c, 0, 64, 87
1, 253786, Control_c, 0, 64, 67
1, 253801, Control_c, 0, 64, 53
1, 253815, Control_c, 0, 64, 43
1, 253830, Control_c, 0, 64, 47
1, 253845, Control_c, 0, 64, 58
1, 253860, Control_c, 0, 64, 66
1, 253875, Control_c, 0, 64, 75
1, 253883, Note_on_c, 0, 69, 38
1, 253889, Control_c, 0, 64, 86
1, 253890, Note_off_c, 0, 61, 36
1, 253898, Note_on_c, 0, 52, 44
1, 253904, Control_c, 0, 64, 112
1, 253918, Note_on_c, 0, 64, 29
1, 253919, Control_c, 0, 64, 127
1, 254054, Note_off_c, 0, 52, 31
1, 254061, Note_off_c, 0, 64, 37
1, 254086, Note_off_c, 0, 69, 28
1, 254088, Note_on_c, 0, 61, 39
1, 254089, Control_c, 0, 67, 117
1, 254094, Note_on_c, 0, 57, 44
1, 254238, Note_off_c, 0, 61, 35
1, 254261, Note_on_c, 0, 69, 39
1, 254285, Note_on_c, 0, 54, 40
1, 254308, Note_on_c, 0, 62, 19
1, 254312, Control_c, 0, 67, 117
1, 254408, Note_off_c, 0, 57, 33
1, 254436, Note_off_c, 0, 62, 24
1, 254502, Note_on_c, 0, 52, 49
1, 254503, Note_on_c, 0, 61, 35
1, 254529, Note_off_c, 0, 69, 36
1, 254579, Control_c, 0, 64, 79
1, 254594, Control_c, 0, 64, 60
1, 254598, Note_off_c, 0, 54, 35
1, 254609, Control_c, 0, 64, 39
1, 254624, Control_c, 0, 64, 36
1, 254638, Control_c, 0, 64, 51
1, 254638, Control_c, 0, 67, 117
1, 254653, Control_c, 0, 64, 68
1, 254668, Control_c, 0, 64, 87
1, 254683, Control_c, 0, 64, 127
1, 254698, Control_c, 0, 67, 116
1, 254735, Control_c, 0, 67, 116
1, 254750, Control_c, 0, 67, 115
1, 254768, Note_on_c, 0, 69, 45
1, 254771, Note_off_c, 0, 52, 59
1, 254784, Note_off_c, 0, 61, 41
1, 254799, Note_off_c, 0, 45, 32
1, 254809, Control_c, 0, 67, 115
1, 254810, Note_on_c, 0, 64, 30
1, 254857, Note_off_c, 0, 64, 47
1, 254883, Control_c, 0, 67, 115
1, 254884, Note_off_c, 0, 69, 0
1, 254903, Note_on_c, 0, 61, 51
1, 254944, Poly_aftertouch_c, 0, 69, 0
1, 254957, Control_c, 0, 67, 116
1, 254973, Note_off_c, 0, 73, 35
1, 255047, Control_c, 0, 67, 115
1, 255274, Note_on_c, 0, 76, 60
1, 255284, Control_c, 0, 67, 116
1, 255304, Note_on_c, 0, 33, 47
1, 255328, Control_c, 0, 64, 81
1, 255340, Note_off_c, 0, 61, 40
1, 255343, Control_c, 0, 64, 64
1, 255358, Control_c, 0, 64, 52
1, 255373, Control_c, 0, 64, 57
1, 255388, Control_c, 0, 64, 69
1, 255403, Control_c, 0, 64, 95
1, 255418, Control_c, 0, 64, 127
1, 255418, Control_c, 0, 67, 116
1, 255421, Note_off_c, 0, 33, 63
1, 255647, Note_on_c, 0, 69, 52
1, 255661, Note_on_c, 0, 45, 51
1, 255662, Control_c, 0, 67, 117
1, 255678, Note_on_c, 0, 67, 42
1, 255707, Control_c, 0, 67, 117
1, 255713, Note_off_c, 0, 76, 38
1, 255721, Control_c, 0, 67, 118
1, 255811, Control_c, 0, 67, 117
1, 255871, Note_on_c, 0, 52, 52
1, 255871, Note_off_c, 0, 67, 36
1, 255883, Note_off_c, 0, 69, 57
1, 255883, Note_on_c, 0, 64, 52
1, 255888, Note_on_c, 0, 76, 61
1, 255912, Note_off_c, 0, 45, 31
1, 255985, Note_off_c, 0, 52, 60
1, 256035, Note_on_c, 0, 69, 62
1, 256043, Note_off_c, 0, 76, 56
1, 256048, Control_c, 0, 67, 118
1, 256053, Note_on_c, 0, 67, 49
1, 256055, Note_on_c, 0, 59, 51
1, 256058, Note_off_c, 0, 64, 0
1, 256082, Poly_aftertouch_c, 0, 64, 0
1, 256176, Note_off_c, 0, 59, 51
1, 256181, Control_c, 0, 67, 118
1, 256198, Note_off_c, 0, 67, 55
1, 256201, Note_on_c, 0, 76, 67
1, 256201, Note_off_c, 0, 69, 56
1, 256212, Note_on_c, 0, 64, 59
1, 256217, Note_on_c, 0, 61, 56
1, 256263, Control_c, 0, 67, 119
1, 256267, Note_off_c, 0, 61, 58
1, 256351, Control_c, 0, 67, 118
1, 256367, Note_on_c, 0, 69, 55
1, 256371, Note_on_c, 0, 67, 47
1, 256375, Note_off_c, 0, 76, 51
1, 256377, Note_off_c, 0, 64, 50
1, 256425, Control_c, 0, 67, 118
1, 256470, Control_c, 0, 67, 117
1, 256500, Control_c, 0, 67, 117
1, 256559, Control_c, 0, 64, 89
1, 256574, Note_on_c, 0, 76, 65
1, 256574, Control_c, 0, 64, 64
1, 256575, Note_off_c, 0, 67, 58
1, 256580, Note_on_c, 0, 64, 48
1, 256585, Note_on_c, 0, 38, 50
1, 256589, Note_off_c, 0, 69, 52
1, 256589, Control_c, 0, 64, 43
1, 256604, Control_c, 0, 64, 44
1, 256604, Control_c, 0, 67, 117
1, 256619, Control_c, 0, 64, 62
1, 256634, Control_c, 0, 64, 84
1, 256649, Note_off_c, 0, 38, 63
1, 256649, Control_c, 0, 64, 127
1, 256723, Control_c, 0, 67, 117
1, 256732, Note_off_c, 0, 76, 54
1, 256738, Control_c, 0, 67, 117
1, 256751, Note_on_c, 0, 69, 47
1, 256758, Note_on_c, 0, 66, 54
1, 256770, Note_on_c, 0, 57, 57
1, 256783, Note_off_c, 0, 64, 32
1, 256865, Note_off_c, 0, 57, 57
1, 256902, Note_off_c, 0, 66, 46
1, 256905, Note_on_c, 0, 74, 72
1, 256915, Note_off_c, 0, 69, 55
1, 256917, Note_on_c, 0, 54, 49
1, 256918, Note_on_c, 0, 62, 57
1, 256945, Control_c, 0, 67, 118
1, 257012, Note_off_c, 0, 62, 53
1, 257052, Note_on_c, 0, 69, 57
1, 257062, Note_on_c, 0, 66, 40
1, 257071, Note_on_c, 0, 57, 43
1, 257076, Note_off_c, 0, 54, 34
1, 257096, Note_off_c, 0, 57, 58
1, 257100, Control_c, 0, 67, 118
1, 257115, Control_c, 0, 67, 118
1, 257188, Note_off_c, 0, 66, 0
1, 257216, Note_on_c, 0, 73, 69
1, 257224, Note_on_c, 0, 42, 58
1, 257225, Note_on_c, 0, 61, 56
1, 257255, Note_off_c, 0, 69, 33
1, 257260, Poly_aftertouch_c, 0, 66, 0
1, 257263, Control_c, 0, 64, 93
1, 257278, Control_c, 0, 64, 67
1, 257293, Control_c, 0, 64, 50
1, 257293, Control_c, 0, 67, 118
1, 257307, Control_c, 0, 64, 47
1, 257322, Control_c, 0, 64, 64
1, 257337, Control_c, 0, 64, 89
1, 257352, Control_c, 0, 64, 127
1, 257367, Control_c, 0, 67, 119
1, 257370, Note_on_c, 0, 69, 60
1, 257385, Note_on_c, 0, 49, 55
1, 257394, Note_off_c, 0, 42, 54
1, 257402, Note_off_c, 0, 74, 42
1, 257412, Note_off_c, 0, 61, 35
1, 257412, Note_off_c, 0, 73, 59
1, 257427, Control_c, 0, 67, 118
1, 257579, Note_off_c, 0, 69, 55
1, 257595, Note_on_c, 0, 73, 58
1, 257602, Note_on_c, 0, 41, 46
1, 257606, Note_on_c, 0, 61, 39
1, 257649, Control_c, 0, 64, 97
1, 257655, Note_off_c, 0, 49, 28
1, 257663, Control_c, 0, 64, 70
1, 257678, Control_c, 0, 64, 55
1, 257693, Control_c, 0, 64, 50
1, 257715, Control_c, 0, 64, 63
1, 257730, Control_c, 0, 64, 80
1, 257745, Control_c, 0, 64, 127
1, 257777, Note_off_c, 0, 73, 54
1, 257791, Note_on_c, 0, 68, 52
1, 257795, Note_off_c, 0, 61, 49
1, 257801, Note_on_c, 0, 49, 47
1, 257856, Note_off_c, 0, 41, 32
1, 257863, Control_c, 0, 67, 118
1, 257943, Note_off_c, 0, 68, 55
1, 257964, Note_on_c, 0, 71, 59
1, 257977, Note_on_c, 0, 59, 50
1, 257981, Control_c, 0, 67, 118
1, 257983, Note_on_c, 0, 56, 45
1, 258016, Note_off_c, 0, 49, 28
1, 258115, Control_c, 0, 67, 119
1, 258130, Note_off_c, 0, 71, 57
1, 258148, Note_on_c, 0, 49, 46
1, 258160, Note_on_c, 0, 68, 41
1, 258168, Note_on_c, 0, 61, 44
1, 258179, Note_off_c, 0, 59, 35
1, 258190, Control_c, 0, 67, 119
1, 258208, Note_off_c, 0, 56, 39
1, 258235, Control_c, 0, 67, 119
1, 258249, Control_c, 0, 67, 119
1, 258279, Control_c, 0, 67, 119
1, 258368, Control_c, 0, 67, 118
1, 258372, Note_off_c, 0, 49, 49
1, 258384, Note_off_c, 0, 61, 35
1, 258392, Note_off_c, 0, 68, 40
1, 258398, Note_on_c, 0, 42, 43
1, 258404, Note_on_c, 0, 69, 49
1, 258409, Note_on_c, 0, 57, 41
1, 258442, Control_c, 0, 64, 120
1, 258442, Control_c, 0, 67, 119
1, 258464, Control_c, 0, 64, 75
1, 258479, Control_c, 0, 64, 57
1, 258494, Control_c, 0, 64, 41
1, 258494, Control_c, 0, 67, 118
1, 258509, Control_c, 0, 64, 46
1, 258524, Control_c, 0, 64, 65
1, 258538, Control_c, 0, 64, 84
1, 258553, Control_c, 0, 64, 127
1, 258594, Note_off_c, 0, 57, 44
1, 258627, Control_c, 0, 67, 118
1, 258636, Note_off_c, 0, 69, 48
1, 258645, Note_on_c, 0, 49, 40
1, 258658, Note_on_c, 0, 66, 44
1, 258661, Note_off_c, 0, 42, 41
1, 258686, Control_c, 0, 67, 117
1, 258701, Note_off_c, 0, 49, 56
1, 258724, Poly_aftertouch_c, 0, 61, 0
1, 258750, Poly_aftertouch_c, 0, 61, 0
1, 258775, Control_c, 0, 67, 117
1, 258786, Note_on_c, 0, 56, 49
1, 258812, Note_off_c, 0, 66, 39
1, 258861, Note_off_c, 0, 56, 58
1, 259093, Note_on_c, 0, 73, 57
1, 259119, Note_on_c, 0, 37, 38
1, 259132, Control_c, 0, 67, 116
1, 259243, Control_c, 0, 64, 102
1, 259258, Control_c, 0, 64, 70
1, 259273, Control_c, 0, 64, 50
1, 259287, Control_c, 0, 64, 25
1, 259302, Control_c, 0, 64, 32
1, 259317, Control_c, 0, 64, 56
1, 259332, Control_c, 0, 64, 72
1, 259347, Control_c, 0, 64, 101
1, 259361, Control_c, 0, 64, 127
1, 259376, Note_off_c, 0, 37, 52
1, 259378, Note_on_c, 0, 44, 47
1, 259379, Note_on_c, 0, 68, 50
1, 259400, Note_on_c, 0, 65, 40
1, 259451, Control_c, 0, 67, 116
1, 259453, Note_off_c, 0, 44, 58
1, 259480, Control_c, 0, 67, 116
1, 259532, Note_off_c, 0, 68, 51
1, 259549, Note_off_c, 0, 65, 38
1, 259560, Note_on_c, 0, 56, 52
1, 259568, Note_on_c, 0, 61, 47
1, 259677, Note_off_c, 0, 56, 53
1, 259687, Control_c, 0, 67, 116
1, 259731, Note_on_c, 0, 68, 46
1, 259734, Note_on_c, 0, 49, 52
1, 259740, Note_on_c, 0, 65, 35
1, 259747, Note_off_c, 0, 61, 42
1, 259881, Control_c, 0, 67, 116
1, 259893, Note_off_c, 0, 65, 58
1, 259922, Note_on_c, 0, 61, 55
1, 259925, Control_c, 0, 67, 117
1, 259928, Note_off_c, 0, 68, 35
1, 259963, Control_c, 0, 67, 117
1, 260007, Control_c, 0, 67, 118
1, 260051, Control_c, 0, 67, 118
1, 260058, Note_off_c, 0, 49, 53
1, 260096, Control_c, 0, 67, 119
1, 260118, Note_on_c, 0, 68, 43
1, 260124, Note_on_c, 0, 65, 35
1, 260125, Control_c, 0, 67, 119
1, 260127, Note_off_c, 0, 61, 39
1, 260128, Note_off_c, 0, 73, 51
1, 260303, Control_c, 0, 67, 119
1, 260362, Note_off_c, 0, 65, 40
1, 260381, Note_on_c, 0, 73, 47
1, 260399, Note_on_c, 0, 61, 29
1, 260400, Note_on_c, 0, 40, 39
1, 260429, Note_off_c, 0, 68, 25
1, 260466, Control_c, 0, 67, 119
1, 260481, Control_c, 0, 64, 82
1, 260496, Control_c, 0, 64, 62
1, 260510, Control_c, 0, 64, 39
1, 260525, Control_c, 0, 64, 18
1, 260540, Control_c, 0, 64, 32
1, 260555, Control_c, 0, 64, 60
1, 260555, Control_c, 0, 67, 119
1, 260570, Control_c, 0, 64, 74
1, 260578, Note_off_c, 0, 40, 49
1, 260586, Control_c, 0, 64, 96
1, 260588, Note_off_c, 0, 73, 59
1, 260600, Control_c, 0, 64, 127
1, 260615, Note_on_c, 0, 68, 42
1, 260615, Control_c, 0, 67, 119
1, 260616, Note_off_c, 0, 61, 41
1, 260625, Note_on_c, 0, 52, 41
1, 260631, Note_on_c, 0, 64, 37
1, 260654, Note_off_c, 0, 52, 56
1, 260779, Note_off_c, 0, 68, 53
1, 260786, Control_c, 0, 67, 120
1, 260786, Note_off_c, 0, 64, 45
1, 260788, Note_on_c, 0, 71, 57
1, 260803, Note_on_c, 0, 59, 36
1, 260812, Note_on_c, 0, 56, 50
1, 260874, Control_c, 0, 67, 120
1, 260915, Note_off_c, 0, 56, 51
1, 260938, Note_off_c, 0, 71, 56
1, 260944, Note_on_c, 0, 68, 51
1, 260968, Note_on_c, 0, 52, 38
1, 260982, Note_off_c, 0, 59, 37
1, 260998, Note_on_c, 0, 64, 10
1, 261052, Control_c, 0, 67, 120
1, 261126, Control_c, 0, 67, 119
1, 261135, Note_off_c, 0, 68, 0
1, 261138, Note_off_c, 0, 52, 48
1, 261139, Note_on_c, 0, 69, 53
1, 261152, Note_on_c, 0, 49, 46
1, 261152, Note_off_c, 0, 64, 39
1, 261153, Note_on_c, 0, 57, 47
1, 261156, Control_c, 0, 67, 120
1, 261172, Poly_aftertouch_c, 0, 68, 127
1, 261199, Control_c, 0, 64, 95
1, 261199, Control_c, 0, 67, 120
1, 261214, Control_c, 0, 64, 71
1, 261229, Control_c, 0, 64, 56
1, 261235, Poly_aftertouch_c, 0, 68, 0
1, 261244, Control_c, 0, 64, 42
1, 261244, Control_c, 0, 67, 121
1, 261258, Control_c, 0, 64, 41
1, 261273, Control_c, 0, 64, 51
1, 261273, Control_c, 0, 67, 121
1, 261288, Control_c, 0, 64, 62
1, 261288, Control_c, 0, 67, 121
1, 261303, Control_c, 0, 64, 70
1, 261305, Note_off_c, 0, 57, 41
1, 261318, Control_c, 0, 64, 80
1, 261332, Control_c, 0, 64, 104
1, 261341, Note_on_c, 0, 64, 44
1, 261347, Control_c, 0, 64, 127
1, 261353, Note_on_c, 0, 52, 36
1, 261388, Note_off_c, 0, 49, 36
1, 261393, Control_c, 0, 67, 120
1, 261437, Control_c, 0, 67, 121
1, 261475, Control_c, 0, 67, 120
1, 261505, Note_off_c, 0, 52, 34
1, 261519, Control_c, 0, 67, 120
1, 261534, Control_c, 0, 67, 119
1, 261578, Control_c, 0, 67, 119
1, 261607, Control_c, 0, 67, 118
1, 261626, Note_off_c, 0, 64, 45
1, 261663, Note_on_c, 0, 73, 47
1, 261667, Note_off_c, 0, 69, 39
1, 261671, Note_on_c, 0, 61, 38
1, 261673, Note_on_c, 0, 45, 44
1, 261696, Control_c, 0, 67, 119
1, 261815, Control_c, 0, 64, 101
1, 261830, Control_c, 0, 64, 73
1, 261844, Control_c, 0, 64, 55
1, 261859, Control_c, 0, 64, 24
1, 261874, Control_c, 0, 64, 0
1, 261904, Control_c, 0, 64, 12
1, 261910, Note_off_c, 0, 61, 38
1, 261919, Control_c, 0, 64, 47
1, 261920, Note_on_c, 0, 69, 26
1, 261934, Control_c, 0, 64, 64
1, 261934, Control_c, 0, 67, 118
1, 261940, Note_on_c, 0, 52, 33
1, 261948, Control_c, 0, 64, 74
1, 261954, Note_on_c, 0, 64, 22
1, 261963, Control_c, 0, 64, 92
1, 261978, Control_c, 0, 64, 127
1, 262079, Note_off_c, 0, 69, 41
1, 262082, Note_off_c, 0, 64, 40
1, 262084, Note_off_c, 0, 52, 39
1, 262117, Note_on_c, 0, 61, 46
1, 262126, Control_c, 0, 67, 119
1, 262137, Note_on_c, 0, 57, 38
1, 262171, Control_c, 0, 67, 118
1, 262274, Note_off_c, 0, 61, 52
1, 262306, Note_on_c, 0, 69, 49
1, 262314, Note_on_c, 0, 54, 44
1, 262327, Note_off_c, 0, 57, 37
1, 262341, Note_on_c, 0, 62, 34
1, 262357, Control_c, 0, 67, 119
1, 262372, Control_c, 0, 67, 118
1, 262401, Control_c, 0, 67, 119
1, 262438, Note_off_c, 0, 62, 33
1, 262445, Control_c, 0, 67, 118
1, 262478, Note_off_c, 0, 45, 19
1, 262487, Note_on_c, 0, 52, 47
1, 262494, Note_on_c, 0, 61, 36
1, 262498, Note_off_c, 0, 54, 44
1, 262516, Note_off_c, 0, 69, 40
1, 262628, Note_on_c, 0, 45, 48
1, 262633, Note_on_c, 0, 69, 50
1, 262637, Control_c, 0, 67, 119
1, 262640, Note_off_c, 0, 61, 38
1, 262645, Note_off_c, 0, 52, 31
1, 262655, Note_on_c, 0, 64, 45
1, 262697, Control_c, 0, 67, 119
1, 262729, Note_off_c, 0, 64, 54
1, 262771, Control_c, 0, 67, 120
1, 262783, Note_on_c, 0, 61, 48
1, 262786, Control_c, 0, 67, 120
1, 262799, Note_off_c, 0, 69, 28
1, 262801, Control_c, 0, 64, 102
1, 262810, Note_on_c, 0, 57, 46
1, 262816, Control_c, 0, 64, 75
1, 262830, Control_c, 0, 64, 65
1, 262845, Control_c, 0, 64, 66
1, 262860, Control_c, 0, 64, 74
1, 262875, Control_c, 0, 64, 93
1, 262890, Control_c, 0, 64, 127
1, 262937, Note_on_c, 0, 69, 54
1, 262958, Note_on_c, 0, 54, 49
1, 262971, Note_on_c, 0, 62, 38
1, 262971, Note_off_c, 0, 61, 31
1, 262986, Note_off_c, 0, 57, 35
1, 263031, Control_c, 0, 67, 121
1, 263040, Note_off_c, 0, 45, 26
1, 263067, Note_off_c, 0, 62, 29
1, 263090, Control_c, 0, 67, 121
1, 263123, Note_off_c, 0, 54, 43
1, 263134, Note_on_c, 0, 61, 50
1, 263150, Control_c, 0, 64, 91
1, 263150, Control_c, 0, 67, 122
1, 263150, Note_on_c, 0, 52, 49
1, 263165, Control_c, 0, 64, 67
1, 263173, Note_off_c, 0, 69, 31
1, 263179, Control_c, 0, 64, 52
1, 263194, Control_c, 0, 64, 51
1, 263209, Control_c, 0, 64, 63
1, 263224, Control_c, 0, 64, 77
1, 263239, Control_c, 0, 64, 119
1, 263253, Control_c, 0, 64, 127
1, 263253, Control_c, 0, 67, 121
1, 263311, Note_off_c, 0, 61, 57
1, 263314, Note_on_c, 0, 69, 42
1, 263325, Note_on_c, 0, 64, 43
1, 263327, Control_c, 0, 67, 121
1, 263336, Note_on_c, 0, 45, 48
1, 263425, Note_off_c, 0, 52, 26
1, 263445, Control_c, 0, 64, 101
1, 263460, Control_c, 0, 64, 72
1, 263460, Control_c, 0, 67, 120
1, 263475, Control_c, 0, 64, 58
1, 263475, Control_c, 0, 67, 121
1, 263481, Note_off_c, 0, 64, 47
1, 263490, Control_c, 0, 64, 57
1, 263505, Control_c, 0, 64, 66
1, 263517, Note_on_c, 0, 61, 39
1, 263519, Control_c, 0, 64, 86
1, 263534, Control_c, 0, 64, 127
1, 263535, Note_on_c, 0, 57, 40
1, 263537, Note_off_c, 0, 69, 28
1, 263619, Note_off_c, 0, 73, 35
1, 263638, Control_c, 0, 67, 120
1, 263793, Note_on_c, 0, 69, 47
1, 263794, Note_on_c, 0, 62, 43
1, 263799, Note_on_c, 0, 54, 43
1, 263799, Note_off_c, 0, 61, 37
1, 263890, Note_off_c, 0, 57, 16
1, 263898, Control_c, 0, 67, 120
1, 263902, Note_off_c, 0, 45, 33
1, 263913, Control_c, 0, 67, 120
1, 263964, Note_off_c, 0, 54, 37
1, 264167, Note_off_c, 0, 62, 0
1, 264208, Control_c, 0, 67, 120
1, 264231, Poly_aftertouch_c, 0, 62, 0
1, 264240, Note_on_c, 0, 61, 41
1, 264266, Note_on_c, 0, 52, 37
1, 264269, Note_on_c, 0, 45, 41
1, 264313, Control_c, 0, 67, 120
1, 264333, Note_off_c, 0, 69, 39
1, 264342, Control_c, 0, 67, 120
1, 264387, Control_c, 0, 67, 120
1, 264416, Control_c, 0, 67, 120
1, 264431, Control_c, 0, 67, 120
1, 264483, Control_c, 0, 64, 109
1, 264497, Control_c, 0, 64, 101
1, 264512, Control_c, 0, 64, 96
1, 264527, Control_c, 0, 64, 88
1, 264542, Control_c, 0, 64, 81
1, 264557, Control_c, 0, 64, 75
1, 264572, Control_c, 0, 64, 72
1, 264587, Control_c, 0, 64, 70
1, 264587, Control_c, 0, 67, 121
1, 264602, Control_c, 0, 64, 69
1, 264617, Control_c, 0, 64, 68
1, 264632, Control_c, 0, 64, 66
1, 264646, Control_c, 0, 64, 63
1, 264661, Control_c, 0, 64, 62
1, 264676, Control_c, 0, 64, 61
1, 264676, Control_c, 0, 67, 121
1, 264691, Control_c, 0, 64, 59
1, 264706, Control_c, 0, 64, 56
1, 264721, Control_c, 0, 64, 53
1, 264736, Control_c, 0, 64, 50
1, 264750, Control_c, 0, 64, 46
1, 264765, Control_c, 0, 64, 40
1, 264765, Control_c, 0, 67, 122
1, 264780, Control_c, 0, 64, 29
1, 264795, Control_c, 0, 64, 0
1, 264913, Control_c, 0, 67, 122
1, 264943, Control_c, 0, 67, 122
1, 265121, Control_c, 0, 67, 121
1, 265150, Control_c, 0, 64, 29
1, 265165, Control_c, 0, 64, 41
1, 265180, Control_c, 0, 64, 48
1, 265203, Control_c, 0, 64, 54
1, 265203, Control_c, 0, 67, 121
1, 265218, Control_c, 0, 64, 59
1, 265232, Control_c, 0, 64, 63
1, 265247, Control_c, 0, 64, 65
1, 265262, Control_c, 0, 64, 68
1, 265277, Control_c, 0, 64, 71
1, 265292, Control_c, 0, 64, 76
1, 265306, Control_c, 0, 64, 84
1, 265321, Control_c, 0, 64, 96
1, 265336, Control_c, 0, 64, 116
1, 265350, Control_c, 0, 64, 127
1, 265350, Control_c, 0, 67, 120
1, 265365, Control_c, 0, 67, 121
1, 265411, Control_c, 0, 67, 120
1, 265485, Control_c, 0, 67, 120
1, 265524, Note_off_c, 0, 52, 38
1, 265529, Control_c, 0, 67, 119
1, 265589, Note_off_c, 0, 61, 56
1, 265696, Note_off_c, 0, 45, 32
1, 265722, Control_c, 0, 67, 119
1, 265841, Control_c, 0, 67, 118
1, 265867, Note_on_c, 0, 64, 38
1, 265869, Note_on_c, 0, 57, 33
1, 266012, Note_off_c, 0, 57, 55
1, 266043, Note_off_c, 0, 64, 40
1, 266078, Note_on_c, 0, 61, 44
1, 266083, Note_on_c, 0, 69, 40
1, 266139, Note_off_c, 0, 69, 55
1, 266158, Note_off_c, 0, 61, 36
1, 266188, Note_on_c, 0, 73, 60
1, 266198, Note_on_c, 0, 64, 45
1, 266226, Note_off_c, 0, 64, 60
1, 266247, Note_off_c, 0, 73, 61
1, 266296, Note_on_c, 0, 76, 64
1, 266303, Note_on_c, 0, 67, 49
1, 266328, Note_off_c, 0, 67, 63
1, 266370, Note_off_c, 0, 76, 55
1, 266386, Note_on_c, 0, 81, 57
1, 266396, Control_c, 0, 67, 119
1, 266418, Note_off_c, 0, 81, 65
1, 266423, Note_on_c, 0, 73, 38
1, 266426, Control_c, 0, 67, 118
1, 266449, Note_off_c, 0, 73, 58
1, 266453, Note_on_c, 0, 85, 60
1, 266470, Note_on_c, 0, 76, 44
1, 266473, Note_off_c, 0, 85, 64
1, 266501, Note_off_c, 0, 76, 53
1, 266501, Control_c, 0, 67, 118
1, 266546, Note_on_c, 0, 81, 58
1, 266547, Note_on_c, 0, 93, 63
1, 266575, Control_c, 0, 67, 117
1, 266581, Note_off_c, 0, 81, 59
1, 266596, Note_off_c, 0, 93, 57
1, 266619, Control_c, 0, 67, 117
1, 266624, Note_on_c, 0, 85, 54
1, 266634, Control_c, 0, 67, 116
1, 266662, Note_on_c, 0, 76, 13
1, 266700, Note_off_c, 0, 85, 62
1, 266712, Note_on_c, 0, 88, 60
1, 266715, Control_c, 0, 67, 116
1, 266718, Note_off_c, 0, 76, 35
1, 266730, Note_on_c, 0, 77, 41
1, 266751, Note_off_c, 0, 88, 58
1, 266759, Note_off_c, 0, 77, 53
1, 266781, Note_on_c, 0, 76, 54
1, 266787, Note_on_c, 0, 86, 25
1, 266812, Note_on_c, 0, 81, 64
1, 266822, Note_off_c, 0, 86, 41
1, 266824, Note_off_c, 0, 76, 59
1, 266836, Note_off_c, 0, 81, 68
1, 266875, Note_on_c, 0, 73, 34
1, 266893, Control_c, 0, 67, 115
1, 266897, Note_on_c, 0, 76, 60
1, 266900, Note_on_c, 0, 69, 56
1, 266907, Note_off_c, 0, 73, 45
1, 266908, Control_c, 0, 67, 115
1, 266941, Note_off_c, 0, 69, 60
1, 266962, Note_on_c, 0, 79, 56
1, 266968, Control_c, 0, 67, 114
1, 266970, Note_off_c, 0, 76, 50
1, 266993, Note_on_c, 0, 74, 52
1, 267012, Note_on_c, 0, 77, 48
1, 267027, Control_c, 0, 67, 114
1, 267037, Note_off_c, 0, 79, 58
1, 267051, Note_off_c, 0, 77, 63
1, 267057, Control_c, 0, 67, 113
1, 267069, Note_on_c, 0, 76, 39
1, 267072, Control_c, 0, 67, 113
1, 267091, Note_off_c, 0, 74, 0
1, 267113, Note_off_c, 0, 76, 63
1, 267130, Poly_aftertouch_c, 0, 74, 0
1, 267141, Note_on_c, 0, 81, 71
1, 267183, Note_on_c, 0, 64, 45
1, 267192, Note_off_c, 0, 81, 61
1, 267210, Note_off_c, 0, 64, 60
1, 267219, Note_on_c, 0, 73, 66
1, 267219, Control_c, 0, 67, 113
1, 267240, Note_on_c, 0, 57, 43
1, 267249, Control_c, 0, 67, 114
1, 267271, Note_off_c, 0, 57, 49
1, 267279, Control_c, 0, 67, 114
1, 267285, Note_off_c, 0, 73, 62
1, 267294, Control_c, 0, 67, 115
1, 267308, Note_on_c, 0, 76, 39
1, 267308, Control_c, 0, 64, 78
1, 267308, Control_c, 0, 67, 116
1, 267314, Note_on_c, 0, 65, 41
1, 267320, Note_on_c, 0, 74, 53
1, 267323, Control_c, 0, 64, 66
1, 267338, Control_c, 0, 64, 67
1, 267341, Note_off_c, 0, 65, 57
1, 267346, Note_off_c, 0, 76, 53
1, 267350, Note_on_c, 0, 64, 53
1, 267353, Control_c, 0, 64, 78
1, 267359, Note_off_c, 0, 74, 62
1, 267368, Control_c, 0, 64, 127
1, 267368, Control_c, 0, 67, 116
1, 267408, Note_off_c, 0, 64, 61
1, 267412, Control_c, 0, 67, 116
1, 267414, Note_on_c, 0, 69, 44
1, 267449, Note_off_c, 0, 69, 53
1, 267462, Note_on_c, 0, 61, 46
1, 267464, Control_c, 0, 67, 115
1, 267479, Control_c, 0, 67, 115
1, 267485, Note_on_c, 0, 64, 54
1, 267487, Note_off_c, 0, 61, 57
1, 267508, Control_c, 0, 67, 114
1, 267510, Note_on_c, 0, 57, 48
1, 267537, Note_off_c, 0, 57, 59
1, 267553, Control_c, 0, 67, 114
1, 267564, Note_off_c, 0, 64, 55
1, 267566, Note_on_c, 0, 67, 47
1, 267568, Control_c, 0, 67, 113
1, 267582, Note_on_c, 0, 62, 59
1, 267583, Control_c, 0, 67, 113
1, 267607, Note_on_c, 0, 65, 45
1, 267641, Note_off_c, 0, 62, 52
1, 267642, Control_c, 0, 64, 112
1, 267645, Note_on_c, 0, 61, 48
1, 267649, Note_off_c, 0, 67, 55
1, 267657, Control_c, 0, 64, 73
1, 267669, Note_off_c, 0, 61, 55
1, 267671, Control_c, 0, 64, 61
1, 267671, Control_c, 0, 67, 113
1, 267675, Note_off_c, 0, 65, 63
1, 267686, Control_c, 0, 64, 65
1, 267698, Note_on_c, 0, 64, 59
1, 267701, Control_c, 0, 64, 79
1, 267716, Control_c, 0, 64, 127
1, 267741, Note_on_c, 0, 52, 57
1, 267745, Control_c, 0, 67, 114
1, 267747, Note_off_c, 0, 64, 55
1, 267791, Control_c, 0, 67, 113
1, 267804, Note_on_c, 0, 69, 43
1, 267809, Note_off_c, 0, 52, 61
1, 267827, Note_on_c, 0, 45, 56
1, 267836, Note_off_c, 0, 69, 52
1, 267861, Note_off_c, 0, 45, 66
1, 267865, Control_c, 0, 67, 114
1, 267872, Note_on_c, 0, 64, 62
1, 267958, Note_off_c, 0, 64, 32
1, 267970, Note_on_c, 0, 62, 64
1, 267974, Note_on_c, 0, 67, 53
1, 268009, Note_on_c, 0, 65, 36
1, 268027, Control_c, 0, 67, 113
1, 268036, Note_off_c, 0, 62, 59
1, 268043, Note_on_c, 0, 61, 55
1, 268054, Note_off_c, 0, 65, 45
1, 268060, Note_off_c, 0, 67, 35
1, 268065, Note_off_c, 0, 61, 60
1, 268096, Note_on_c, 0, 64, 55
1, 268116, Control_c, 0, 67, 113
1, 268194, Note_on_c, 0, 52, 55
1, 268197, Control_c, 0, 67, 113
1, 268217, Note_off_c, 0, 64, 55
1, 268241, Note_on_c, 0, 69, 53
1, 268241, Control_c, 0, 64, 73
1, 268255, Note_off_c, 0, 52, 61
1, 268256, Control_c, 0, 64, 56
1, 268256, Control_c, 0, 67, 114
1, 268271, Control_c, 0, 64, 51
1, 268274, Note_on_c, 0, 45, 51
1, 268286, Control_c, 0, 64, 63
1, 268286, Control_c, 0, 67, 114
1, 268301, Control_c, 0, 64, 87
1, 268316, Control_c, 0, 64, 127
1, 268326, Note_off_c, 0, 45, 63
1, 268331, Control_c, 0, 67, 115
1, 268346, Control_c, 0, 67, 115
1, 268358, Note_on_c, 0, 64, 54
1, 268374, Note_off_c, 0, 69, 33
1, 268449, Control_c, 0, 67, 115
1, 268479, Control_c, 0, 67, 115
1, 268493, Control_c, 0, 67, 115
1, 268544, Note_on_c, 0, 62, 43
1, 268551, Note_on_c, 0, 67, 35
1, 268552, Note_on_c, 0, 65, 41
1, 268565, Note_off_c, 0, 64, 30
1, 268613, Control_c, 0, 67, 115
1, 268658, Control_c, 0, 64, 91
1, 268672, Control_c, 0, 64, 71
1, 268672, Control_c, 0, 67, 116
1, 268688, Control_c, 0, 64, 57
1, 268688, Control_c, 0, 67, 116
1, 268703, Control_c, 0, 64, 40
1, 268717, Control_c, 0, 64, 0
1, 268747, Control_c, 0, 67, 117
1, 268763, Note_on_c, 0, 61, 43
1, 268770, Note_on_c, 0, 64, 46
1, 268773, Note_off_c, 0, 67, 35
1, 268791, Control_c, 0, 64, 26
1, 268806, Control_c, 0, 64, 52
1, 268806, Control_c, 0, 67, 117
1, 268808, Note_off_c, 0, 65, 32
1, 268821, Control_c, 0, 64, 59
1, 268836, Control_c, 0, 64, 62
1, 268846, Note_off_c, 0, 62, 45
1, 268851, Control_c, 0, 64, 64
1, 268865, Control_c, 0, 64, 69
1, 268880, Control_c, 0, 64, 78
1, 268895, Control_c, 0, 64, 92
1, 268909, Control_c, 0, 64, 102
1, 268923, Note_off_c, 0, 64, 54
1, 268924, Control_c, 0, 64, 100
1, 268947, Control_c, 0, 64, 95
1, 268962, Control_c, 0, 64, 92
1, 268962, Control_c, 0, 67, 118
1, 268977, Control_c, 0, 64, 91
1, 268991, Control_c, 0, 64, 89
1, 268991, Control_c, 0, 67, 118
1, 269006, Control_c, 0, 64, 86
1, 269006, Control_c, 0, 67, 119
1, 269021, Control_c, 0, 64, 80
1, 269036, Control_c, 0, 64, 76
1, 269036, Control_c, 0, 67, 119
1, 269051, Control_c, 0, 64, 74
1, 269065, Control_c, 0, 64, 72
1, 269080, Control_c, 0, 64, 70
1, 269095, Control_c, 0, 64, 69
1, 269095, Control_c, 0, 67, 120
1, 269110, Control_c, 0, 64, 68
1, 269124, Control_c, 0, 64, 67
1, 269139, Control_c, 0, 64, 66
1, 269154, Control_c, 0, 64, 65
1, 269154, Control_c, 0, 67, 120
1, 269169, Control_c, 0, 64, 65
1, 269183, Note_on_c, 0, 69, 41
1, 269198, Control_c, 0, 64, 64
1, 269213, Control_c, 0, 64, 63
1, 269228, Control_c, 0, 64, 62
1, 269243, Control_c, 0, 64, 61
1, 269273, Control_c, 0, 64, 61
1, 269288, Control_c, 0, 64, 60
1, 269303, Control_c, 0, 64, 58
1, 269317, Control_c, 0, 64, 56
1, 269332, Control_c, 0, 64, 54
1, 269347, Control_c, 0, 64, 51
1, 269362, Control_c, 0, 64, 48
1, 269377, Control_c, 0, 64, 42
1, 269392, Control_c, 0, 64, 35
1, 269392, Control_c, 0, 67, 120
1, 269407, Control_c, 0, 64, 28
1, 269422, Control_c, 0, 64, 20
1, 269437, Control_c, 0, 64, 0
1, 269481, Control_c, 0, 67, 119
1, 269585, Control_c, 0, 67, 119
1, 269673, Control_c, 0, 67, 118
1, 269800, Control_c, 0, 67, 119
1, 269836, Note_off_c, 0, 61, 34
1, 270245, Control_c, 0, 67, 118
1, 270534, Control_c, 0, 67, 118
1, 270563, Control_c, 0, 67, 118
1, 270593, Control_c, 0, 67, 118
1, 270814, Control_c, 0, 67, 117
1, 270844, Control_c, 0, 67, 118
1, 270874, Control_c, 0, 67, 117
1, 271193, Control_c, 0, 67, 118
1, 271348, Note_on_c, 0, 70, 35
1, 271584, Note_off_c, 0, 69, 46
1, 271593, Control_c, 0, 67, 118
1, 271682, Control_c, 0, 67, 119
1, 271741, Control_c, 0, 67, 119
1, 271802, Control_c, 0, 67, 120
1, 271816, Control_c, 0, 67, 120
1, 271906, Note_on_c, 0, 68, 38
1, 272098, Note_off_c, 0, 70, 44
1, 272328, Control_c, 0, 67, 120
1, 272370, Note_on_c, 0, 69, 42
1, 272416, Control_c, 0, 67, 119
1, 272532, Note_off_c, 0, 68, 45
1, 272534, Control_c, 0, 67, 119
1, 272691, Control_c, 0, 67, 118
1, 272740, Note_on_c, 0, 70, 46
1, 272765, Control_c, 0, 67, 118
1, 272883, Control_c, 0, 67, 117
1, 272888, Note_off_c, 0, 69, 34
1, 272913, Control_c, 0, 67, 118
1, 272957, Control_c, 0, 67, 117
1, 272972, Control_c, 0, 67, 118
1, 273038, Note_on_c, 0, 74, 49
1, 273112, Note_off_c, 0, 70, 49
1, 273372, Note_on_c, 0, 73, 39
1, 273377, Note_on_c, 0, 57, 38
1, 273514, Note_off_c, 0, 74, 42
1, 273662, Control_c, 0, 64, 10
1, 273666, Note_on_c, 0, 67, 50
1, 273667, Note_on_c, 0, 58, 36
1, 273677, Control_c, 0, 64, 30
1, 273692, Control_c, 0, 64, 41
1, 273706, Control_c, 0, 64, 51
1, 273721, Control_c, 0, 64, 57
1, 273736, Control_c, 0, 64, 61
1, 273750, Note_off_c, 0, 73, 51
1, 273751, Control_c, 0, 64, 63
1, 273751, Control_c, 0, 67, 118
1, 273765, Control_c, 0, 64, 63
1, 273804, Note_off_c, 0, 57, 31
1, 273825, Control_c, 0, 64, 64
1, 273915, Note_on_c, 0, 62, 47
1, 273915, Note_on_c, 0, 70, 56
1, 273958, Control_c, 0, 64, 63
1, 273988, Control_c, 0, 64, 63
1, 274003, Control_c, 0, 64, 62
1, 274018, Control_c, 0, 64, 61
1, 274018, Control_c, 0, 67, 119
1, 274032, Control_c, 0, 64, 61
1, 274047, Control_c, 0, 64, 60
1, 274060, Note_off_c, 0, 58, 36
1, 274062, Control_c, 0, 64, 59
1, 274077, Control_c, 0, 64, 57
1, 274080, Note_off_c, 0, 67, 32
1, 274092, Control_c, 0, 64, 55
1, 274106, Control_c, 0, 64, 54
1, 274121, Control_c, 0, 64, 53
1, 274136, Control_c, 0, 64, 52
1, 274152, Control_c, 0, 64, 51
1, 274152, Control_c, 0, 67, 119
1, 274167, Control_c, 0, 64, 50
1, 274189, Control_c, 0, 64, 49
1, 274204, Control_c, 0, 64, 48
1, 274218, Control_c, 0, 64, 47
1, 274233, Control_c, 0, 64, 47
1, 274240, Note_on_c, 0, 61, 35
1, 274244, Note_on_c, 0, 69, 52
1, 274248, Control_c, 0, 64, 46
1, 274263, Control_c, 0, 64, 44
1, 274278, Control_c, 0, 64, 42
1, 274293, Control_c, 0, 64, 38
1, 274308, Control_c, 0, 64, 32
1, 274322, Control_c, 0, 64, 24
1, 274322, Control_c, 0, 67, 119
1, 274328, Note_off_c, 0, 70, 54
1, 274337, Control_c, 0, 64, 10
1, 274352, Control_c, 0, 64, 0
1, 274433, Note_off_c, 0, 62, 34
1, 274524, Note_on_c, 0, 55, 50
1, 274529, Note_on_c, 0, 70, 64
1, 274601, Note_off_c, 0, 69, 52
1, 274618, Control_c, 0, 67, 118
1, 274775, Note_on_c, 0, 74, 63
1, 274784, Note_on_c, 0, 58, 46
1, 274825, Note_off_c, 0, 70, 57
1, 274871, Note_off_c, 0, 55, 35
1, 274902, Note_off_c, 0, 61, 14
1, 275080, Note_on_c, 0, 73, 58
1, 275083, Note_on_c, 0, 57, 43
1, 275139, Note_off_c, 0, 58, 46
1, 275166, Note_off_c, 0, 74, 34
1, 275308, Control_c, 0, 67, 118
1, 275323, Control_c, 0, 67, 118
1, 275341, Note_on_c, 0, 67, 52
1, 275348, Note_on_c, 0, 58, 41
1, 275367, Control_c, 0, 67, 118
1, 275408, Note_off_c, 0, 73, 52
1, 275476, Note_off_c, 0, 57, 33
1, 275516, Control_c, 0, 67, 117
1, 275590, Control_c, 0, 67, 117
1, 275630, Note_on_c, 0, 70, 46
1, 275634, Control_c, 0, 67, 117
1, 275645, Note_on_c, 0, 62, 39
1, 275649, Control_c, 0, 67, 117
1, 275716, Control_c, 0, 67, 117
1, 275730, Control_c, 0, 67, 117
1, 275741, Note_off_c, 0, 67, 43
1, 275774, Note_off_c, 0, 58, 39
1, 275895, Control_c, 0, 67, 116
1, 275998, Control_c, 0, 67, 117
1, 276022, Note_on_c, 0, 61, 41
1, 276028, Control_c, 0, 67, 116
1, 276043, Note_off_c, 0, 70, 53
1, 276117, Control_c, 0, 64, 19
1, 276117, Control_c, 0, 67, 116
1, 276132, Control_c, 0, 64, 34
1, 276147, Control_c, 0, 64, 47
1, 276161, Note_off_c, 0, 62, 34
1, 276161, Control_c, 0, 64, 54
1, 276175, Control_c, 0, 64, 58
1, 276190, Control_c, 0, 64, 61
1, 276205, Control_c, 0, 64, 63
1, 276220, Control_c, 0, 64, 66
1, 276234, Control_c, 0, 64, 70
1, 276249, Control_c, 0, 64, 78
1, 276264, Control_c, 0, 64, 87
1, 276264, Control_c, 0, 67, 115
1, 276279, Control_c, 0, 64, 99
1, 276294, Control_c, 0, 64, 119
1, 276308, Control_c, 0, 64, 127
1, 276338, Control_c, 0, 67, 115
1, 276355, Note_on_c, 0, 69, 50
1, 276364, Note_on_c, 0, 60, 45
1, 276434, Control_c, 0, 67, 114
1, 276451, Note_off_c, 0, 61, 42
1, 276466, Note_off_c, 0, 69, 56
1, 276483, Note_on_c, 0, 70, 64
1, 276494, Control_c, 0, 67, 114
1, 276569, Control_c, 0, 67, 113
1, 276593, Note_on_c, 0, 69, 66
1, 276597, Note_off_c, 0, 70, 60
1, 276621, Note_on_c, 0, 58, 48
1, 276646, Note_off_c, 0, 60, 33
1, 276657, Control_c, 0, 67, 113
1, 276679, Note_on_c, 0, 70, 67
1, 276690, Note_off_c, 0, 69, 52
1, 276860, Note_on_c, 0, 72, 69
1, 276865, Control_c, 0, 67, 112
1, 276874, Note_on_c, 0, 60, 54
1, 276880, Control_c, 0, 67, 112
1, 276895, Control_c, 0, 67, 112
1, 276910, Control_c, 0, 64, 89
1, 276913, Note_off_c, 0, 70, 58
1, 276924, Control_c, 0, 64, 66
1, 276938, Control_c, 0, 64, 44
1, 276938, Control_c, 0, 67, 112
1, 276953, Control_c, 0, 64, 19
1, 276953, Control_c, 0, 67, 111
1, 276968, Control_c, 0, 64, 33
1, 276982, Control_c, 0, 64, 56
1, 276982, Control_c, 0, 67, 111
1, 276997, Control_c, 0, 64, 70
1, 276997, Control_c, 0, 67, 108
1, 277012, Control_c, 0, 64, 89
1, 277012, Control_c, 0, 67, 102
1, 277027, Control_c, 0, 64, 127
1, 277027, Control_c, 0, 67, 93
1, 277042, Control_c, 0, 67, 85
1, 277051, Note_off_c, 0, 72, 52
1, 277056, Control_c, 0, 67, 78
1, 277071, Control_c, 0, 67, 68
1, 277086, Control_c, 0, 67, 51
1, 277101, Control_c, 0, 67, 35
1, 277116, Control_c, 0, 67, 21
1, 277130, Control_c, 0, 67, 0
1, 277166, Note_off_c, 0, 58, 34
1, 277169, Note_on_c, 0, 57, 50
1, 277179, Note_on_c, 0, 72, 76
1, 277181, Note_off_c, 0, 60, 35
1, 277183, Note_on_c, 0, 62, 62
1, 277291, Note_off_c, 0, 72, 60
1, 277443, Note_off_c, 0, 62, 57
1, 277448, Note_on_c, 0, 72, 73
1, 277453, Note_on_c, 0, 65, 58
1, 277455, Note_on_c, 0, 50, 56
1, 277512, Note_off_c, 0, 57, 28
1, 277524, Note_off_c, 0, 65, 64
1, 277551, Note_off_c, 0, 72, 62
1, 277802, Note_on_c, 0, 72, 62
1, 277815, Note_on_c, 0, 58, 47
1, 277824, Note_on_c, 0, 65, 38
1, 277832, Note_off_c, 0, 50, 28
1, 277834, Note_on_c, 0, 55, 41
1, 277879, Control_c, 0, 64, 77
1, 277894, Control_c, 0, 64, 57
1, 277909, Control_c, 0, 64, 29
1, 277931, Control_c, 0, 64, 14
1, 277946, Control_c, 0, 64, 39
1, 277961, Control_c, 0, 64, 63
1, 277976, Control_c, 0, 64, 88
1, 277991, Control_c, 0, 64, 127
1, 278041, Note_off_c, 0, 65, 34
1, 278101, Note_off_c, 0, 72, 34
1, 278201, Note_on_c, 0, 70, 66
1, 278204, Note_on_c, 0, 43, 41
1, 278260, Note_on_c, 0, 62, 31
1, 278310, Note_off_c, 0, 70, 60
1, 278350, Note_off_c, 0, 62, 48
1, 278375, Note_on_c, 0, 69, 60
1, 278412, Note_off_c, 0, 58, 38
1, 278465, Note_off_c, 0, 69, 0
1, 278465, Note_on_c, 0, 69, 13
1, 278487, Note_off_c, 0, 43, 37
1, 278502, Note_off_c, 0, 55, 9
1, 278508, Note_off_c, 0, 69, 59
1, 278536, Note_on_c, 0, 48, 46
1, 278540, Note_on_c, 0, 67, 59
1, 278549, Note_on_c, 0, 58, 35
1, 278554, Control_c, 0, 64, 81
1, 278569, Control_c, 0, 64, 62
1, 278584, Control_c, 0, 64, 44
1, 278585, Note_on_c, 0, 64, 11
1, 278599, Control_c, 0, 64, 49
1, 278614, Control_c, 0, 64, 63
1, 278628, Control_c, 0, 64, 79
1, 278643, Control_c, 0, 64, 127
1, 278695, Note_off_c, 0, 67, 61
1, 278710, Note_off_c, 0, 58, 33
1, 278728, Note_on_c, 0, 69, 54
1, 278910, Note_off_c, 0, 69, 0
1, 278948, Poly_aftertouch_c, 0, 69, 127
1, 278960, Note_off_c, 0, 64, 36
1, 278961, Note_on_c, 0, 65, 44
1, 278972, Note_on_c, 0, 41, 36
1, 278975, Note_on_c, 0, 57, 41
1, 278997, Note_off_c, 0, 48, 28
1, 279026, Poly_aftertouch_c, 0, 69, 0
1, 279111, Control_c, 0, 64, 91
1, 279125, Control_c, 0, 64, 68
1, 279140, Control_c, 0, 64, 49
1, 279155, Control_c, 0, 64, 0
1, 279199, Control_c, 0, 64, 28
1, 279214, Control_c, 0, 64, 51
1, 279229, Control_c, 0, 64, 64
1, 279244, Control_c, 0, 64, 73
1, 279259, Control_c, 0, 64, 89
1, 279274, Control_c, 0, 64, 127
1, 279326, Note_off_c, 0, 57, 42
1, 279334, Note_on_c, 0, 49, 50
1, 279433, Note_off_c, 0, 41, 37
1, 279492, Note_off_c, 0, 65, 45
1, 279614, Note_on_c, 0, 53, 57
1, 279709, Note_off_c, 0, 49, 46
1, 279891, Note_on_c, 0, 60, 54
1, 279893, Note_on_c, 0, 52, 52
1, 279918, Control_c, 0, 64, 119
1, 279933, Control_c, 0, 64, 80
1, 279948, Control_c, 0, 64, 61
1, 279963, Control_c, 0, 64, 36
1, 279978, Control_c, 0, 64, 0
1, 280007, Control_c, 0, 64, 17
1, 280022, Control_c, 0, 64, 45
1, 280037, Control_c, 0, 64, 60
1, 280052, Control_c, 0, 64, 67
1, 280067, Control_c, 0, 64, 74
1, 280073, Note_off_c, 0, 53, 32
1, 280082, Control_c, 0, 64, 83
1, 280096, Control_c, 0, 64, 97
1, 280111, Control_c, 0, 64, 127
1, 280150, Note_on_c, 0, 61, 63
1, 280156, Note_on_c, 0, 46, 62
1, 280240, Note_off_c, 0, 52, 58
1, 280272, Note_off_c, 0, 60, 33
1, 280407, Note_on_c, 0, 49, 60
1, 280409, Note_on_c, 0, 65, 66
1, 280459, Note_off_c, 0, 61, 57
1, 280460, Note_off_c, 0, 46, 63
1, 280564, Control_c, 0, 64, 116
1, 280579, Control_c, 0, 64, 112
1, 280594, Control_c, 0, 64, 111
1, 280623, Control_c, 0, 64, 110
1, 280638, Control_c, 0, 64, 107
1, 280653, Control_c, 0, 64, 106
1, 280667, Control_c, 0, 64, 105
1, 280682, Control_c, 0, 64, 104
1, 280697, Control_c, 0, 64, 101
1, 280712, Control_c, 0, 64, 94
1, 280727, Control_c, 0, 64, 82
1, 280736, Note_on_c, 0, 72, 62
1, 280741, Control_c, 0, 64, 71
1, 280743, Note_on_c, 0, 64, 41
1, 280748, Note_on_c, 0, 48, 51
1, 280755, Note_off_c, 0, 65, 61
1, 280756, Control_c, 0, 64, 60
1, 280771, Control_c, 0, 64, 40
1, 280786, Control_c, 0, 64, 0
1, 280814, Note_off_c, 0, 49, 33
1, 280860, Control_c, 0, 64, 32
1, 280875, Control_c, 0, 64, 52
1, 280886, Note_off_c, 0, 48, 62
1, 280889, Control_c, 0, 64, 64
1, 280904, Control_c, 0, 64, 73
1, 280927, Control_c, 0, 64, 87
1, 280942, Control_c, 0, 64, 127
1, 281035, Note_off_c, 0, 72, 62
1, 281068, Note_on_c, 0, 73, 59
1, 281077, Note_on_c, 0, 58, 55
1, 281134, Note_off_c, 0, 64, 40
1, 281164, Control_c, 0, 64, 87
1, 281179, Control_c, 0, 64, 65
1, 281193, Control_c, 0, 64, 44
1, 281208, Control_c, 0, 64, 26
1, 281223, Control_c, 0, 64, 34
1, 281238, Control_c, 0, 64, 56
1, 281253, Control_c, 0, 64, 67
1, 281267, Control_c, 0, 64, 77
1, 281282, Control_c, 0, 64, 92
1, 281297, Control_c, 0, 64, 127
1, 281319, Note_on_c, 0, 77, 61
1, 281333, Note_on_c, 0, 61, 50
1, 281381, Note_off_c, 0, 73, 35
1, 281403, Note_off_c, 0, 58, 44
1, 281555, Note_off_c, 0, 61, 0
1, 281637, Note_on_c, 0, 76, 60
1, 281638, Poly_aftertouch_c, 0, 61, 0
1, 281638, Note_on_c, 0, 60, 51
1, 281682, Poly_aftertouch_c, 0, 61, 127
1, 281690, Note_off_c, 0, 77, 56
1, 281729, Poly_aftertouch_c, 0, 61, 0
1, 281750, Control_c, 0, 64, 94
1, 281765, Control_c, 0, 64, 78
1, 281779, Control_c, 0, 64, 64
1, 281794, Control_c, 0, 64, 45
1, 281809, Control_c, 0, 64, 0
1, 281868, Control_c, 0, 64, 11
1, 281883, Control_c, 0, 64, 39
1, 281897, Control_c, 0, 64, 57
1, 281912, Note_on_c, 0, 70, 55
1, 281912, Control_c, 0, 64, 66
1, 281916, Note_on_c, 0, 61, 39
1, 281927, Control_c, 0, 64, 72
1, 281942, Control_c, 0, 64, 83
1, 281957, Control_c, 0, 64, 97
1, 281971, Control_c, 0, 64, 106
1, 281986, Control_c, 0, 64, 109
1, 282022, Note_off_c, 0, 60, 37
1, 282029, Note_off_c, 0, 76, 34
1, 282061, Control_c, 0, 64, 108
1, 282076, Control_c, 0, 64, 107
1, 282090, Control_c, 0, 64, 105
1, 282105, Control_c, 0, 64, 101
1, 282120, Control_c, 0, 64, 97
1, 282135, Control_c, 0, 64, 92
1, 282150, Control_c, 0, 64, 85
1, 282165, Control_c, 0, 64, 77
1, 282180, Control_c, 0, 64, 72
1, 282192, Note_on_c, 0, 73, 48
1, 282195, Note_on_c, 0, 65, 42
1, 282195, Control_c, 0, 64, 67
1, 282210, Control_c, 0, 64, 65
1, 282225, Control_c, 0, 64, 62
1, 282239, Control_c, 0, 64, 59
1, 282251, Note_off_c, 0, 70, 53
1, 282254, Control_c, 0, 64, 52
1, 282269, Control_c, 0, 64, 40
1, 282270, Note_off_c, 0, 61, 26
1, 282284, Control_c, 0, 64, 0
1, 282387, Control_c, 0, 64, 19
1, 282402, Control_c, 0, 64, 39
1, 282425, Control_c, 0, 64, 52
1, 282439, Control_c, 0, 64, 59
1, 282454, Control_c, 0, 64, 64
1, 282469, Control_c, 0, 64, 68
1, 282484, Control_c, 0, 64, 72
1, 282499, Control_c, 0, 64, 79
1, 282514, Control_c, 0, 64, 91
1, 282528, Control_c, 0, 64, 115
1, 282543, Note_on_c, 0, 64, 46
1, 282543, Control_c, 0, 64, 127
1, 282610, Note_off_c, 0, 73, 35
1, 282642, Note_off_c, 0, 65, 0
1, 282684, Poly_aftertouch_c, 0, 65, 0
1, 282882, Note_on_c, 0, 72, 48
1, 282899, Control_c, 0, 64, 98
1, 282902, Note_on_c, 0, 63, 43
1, 282913, Control_c, 0, 64, 75
1, 282928, Control_c, 0, 64, 61
1, 282943, Control_c, 0, 64, 46
1, 282958, Control_c, 0, 64, 44
1, 282973, Control_c, 0, 64, 55
1, 282988, Control_c, 0, 64, 66
1, 283003, Control_c, 0, 64, 80
1, 283007, Note_off_c, 0, 64, 0
1, 283018, Control_c, 0, 64, 115
1, 283021, Note_on_c, 0, 73, 61
1, 283033, Control_c, 0, 64, 127
1, 283044, Poly_aftertouch_c, 0, 64, 127
1, 283045, Note_off_c, 0, 72, 34
1, 283137, Poly_aftertouch_c, 0, 64, 0
1, 283141, Note_off_c, 0, 73, 56
1, 283155, Note_on_c, 0, 72, 67
1, 283169, Note_on_c, 0, 70, 56
1, 283175, Note_on_c, 0, 61, 49
1, 283232, Control_c, 0, 64, 97
1, 283247, Control_c, 0, 64, 71
1, 283261, Note_off_c, 0, 70, 52
1, 283262, Control_c, 0, 64, 56
1, 283272, Note_on_c, 0, 73, 69
1, 283275, Note_off_c, 0, 63, 39
1, 283277, Control_c, 0, 64, 49
1, 283292, Control_c, 0, 64, 57
1, 283307, Control_c, 0, 64, 67
1, 283319, Note_off_c, 0, 72, 55
1, 283322, Control_c, 0, 64, 78
1, 283337, Control_c, 0, 64, 92
1, 283351, Control_c, 0, 64, 110
1, 283366, Control_c, 0, 64, 127
1, 283449, Note_on_c, 0, 75, 71
1, 283456, Note_on_c, 0, 63, 47
1, 283491, Note_off_c, 0, 73, 58
1, 283499, Control_c, 0, 64, 88
1, 283514, Control_c, 0, 64, 65
1, 283529, Control_c, 0, 64, 48
1, 283543, Control_c, 0, 64, 44
1, 283558, Control_c, 0, 64, 56
1, 283573, Control_c, 0, 64, 71
1, 283587, Control_c, 0, 64, 115
1, 283602, Control_c, 0, 64, 127
1, 283631, Note_off_c, 0, 75, 62
1, 283688, Note_off_c, 0, 61, 60
1, 283770, Note_on_c, 0, 75, 72
1, 283780, Note_on_c, 0, 65, 52
1, 283787, Note_on_c, 0, 60, 53
1, 283852, Note_off_c, 0, 63, 35
1, 283931, Note_off_c, 0, 75, 61
1, 284052, Note_on_c, 0, 75, 77
1, 284070, Note_on_c, 0, 68, 66
1, 284076, Note_on_c, 0, 53, 55
1, 284085, Control_c, 0, 64, 82
1, 284100, Control_c, 0, 64, 66
1, 284111, Note_off_c, 0, 65, 57
1, 284115, Control_c, 0, 64, 62
1, 284130, Control_c, 0, 64, 67
1, 284140, Note_off_c, 0, 60, 42
1, 284145, Control_c, 0, 64, 78
1, 284159, Control_c, 0, 64, 127
1, 284250, Note_off_c, 0, 75, 59
1, 284251, Note_off_c, 0, 68, 60
1, 284335, Poly_aftertouch_c, 0, 70, 127
1, 284368, Poly_aftertouch_c, 0, 70, 0
1, 284422, Note_on_c, 0, 68, 43
1, 284431, Note_on_c, 0, 75, 64
1, 284440, Note_on_c, 0, 61, 50
1, 284445, Note_on_c, 0, 58, 47
1, 284469, Note_off_c, 0, 53, 28
1, 284514, Control_c, 0, 64, 93
1, 284529, Control_c, 0, 64, 69
1, 284545, Control_c, 0, 64, 54
1, 284560, Control_c, 0, 64, 44
1, 284575, Control_c, 0, 64, 50
1, 284585, Note_off_c, 0, 68, 55
1, 284589, Control_c, 0, 64, 63
1, 284604, Control_c, 0, 64, 81
1, 284619, Control_c, 0, 64, 127
1, 284816, Note_off_c, 0, 75, 51
1, 284828, Note_on_c, 0, 73, 51
1, 284833, Note_on_c, 0, 46, 43
1, 284839, Note_on_c, 0, 65, 51
1, 284923, Note_off_c, 0, 73, 58
1, 284965, Note_off_c, 0, 65, 55
1, 284991, Note_on_c, 0, 72, 61
1, 285027, Note_off_c, 0, 61, 41
1, 285073, Note_off_c, 0, 58, 34
1, 285104, Note_off_c, 0, 72, 60
1, 285125, Note_on_c, 0, 51, 45
1, 285128, Note_on_c, 0, 70, 61
1, 285138, Note_on_c, 0, 61, 42
1, 285160, Note_off_c, 0, 46, 20
1, 285181, Note_on_c, 0, 67, 39
1, 285258, Note_off_c, 0, 61, 0
1, 285262, Note_off_c, 0, 70, 57
1, 285274, Note_on_c, 0, 72, 59
1, 285313, Poly_aftertouch_c, 0, 61, 0
1, 285516, Note_on_c, 0, 68, 52
1, 285519, Note_on_c, 0, 44, 41
1, 285520, Note_off_c, 0, 67, 41
1, 285534, Note_on_c, 0, 60, 39
1, 285569, Control_c, 0, 64, 88
1, 285584, Control_c, 0, 64, 71
1, 285598, Control_c, 0, 64, 58
1, 285613, Control_c, 0, 64, 37
1, 285614, Note_off_c, 0, 51, 42
1, 285628, Control_c, 0, 64, 0
1, 285629, Note_off_c, 0, 72, 39
1, 285687, Control_c, 0, 64, 21
1, 285702, Control_c, 0, 64, 49
1, 285717, Control_c, 0, 64, 63
1, 285732, Control_c, 0, 64, 71
1, 285746, Control_c, 0, 64, 81
1, 285761, Control_c, 0, 64, 103
1, 285776, Control_c, 0, 64, 127
1, 285805, Note_off_c, 0, 60, 35
1, 285811, Note_on_c, 0, 52, 52
1, 285862, Note_off_c, 0, 44, 62
1, 285931, Note_off_c, 0, 68, 58
1, 286076, Note_off_c, 0, 52, 32
1, 286081, Note_on_c, 0, 56, 58
1, 286333, Control_c, 0, 64, 96
1, 286341, Note_on_c, 0, 55, 56
1, 286341, Note_on_c, 0, 63, 64
1, 286347, Control_c, 0, 64, 69
1, 286362, Control_c, 0, 64, 52
1, 286377, Control_c, 0, 64, 45
1, 286392, Control_c, 0, 64, 55
1, 286407, Control_c, 0, 64, 68
1, 286421, Note_off_c, 0, 56, 34
1, 286421, Control_c, 0, 64, 86
1, 286436, Control_c, 0, 64, 127
1, 286613, Control_c, 0, 64, 86
1, 286622, Note_on_c, 0, 64, 68
1, 286625, Note_off_c, 0, 63, 61
1, 286625, Note_on_c, 0, 49, 62
1, 286628, Control_c, 0, 64, 62
1, 286643, Control_c, 0, 64, 49
1, 286657, Control_c, 0, 64, 56
1, 286672, Control_c, 0, 64, 68
1, 286687, Control_c, 0, 64, 86
1, 286702, Control_c, 0, 64, 127
1, 286753, Note_off_c, 0, 55, 34
1, 286856, Note_on_c, 0, 52, 68
1, 286856, Note_on_c, 0, 68, 71
1, 286920, Note_off_c, 0, 49, 61
1, 286944, Note_off_c, 0, 64, 32
1, 287165, Note_on_c, 0, 51, 65
1, 287171, Note_on_c, 0, 75, 73
1, 287172, Note_on_c, 0, 67, 65
1, 287206, Note_off_c, 0, 68, 63
1, 287212, Note_off_c, 0, 52, 62
1, 287214, Control_c, 0, 64, 110
1, 287229, Control_c, 0, 64, 78
1, 287243, Control_c, 0, 64, 55
1, 287258, Control_c, 0, 64, 0
1, 287332, Control_c, 0, 64, 16
1, 287347, Control_c, 0, 64, 53
1, 287361, Control_c, 0, 64, 67
1, 287376, Control_c, 0, 64, 81
1, 287379, Note_off_c, 0, 51, 64
1, 287391, Control_c, 0, 64, 127
1, 287432, Note_on_c, 0, 76, 74
1, 287433, Note_on_c, 0, 68, 74
1, 287462, Note_off_c, 0, 67, 60
1, 287468, Note_off_c, 0, 75, 61
1, 287501, Note_off_c, 0, 68, 64
1, 287517, Note_off_c, 0, 76, 63
1, 287670, Note_on_c, 0, 80, 71
1, 287677, Note_on_c, 0, 71, 65
1, 287680, Note_on_c, 0, 62, 57
1, 287680, Control_c, 0, 64, 83
1, 287695, Control_c, 0, 64, 60
1, 287710, Control_c, 0, 64, 29
1, 287725, Control_c, 0, 64, 24
1, 287740, Control_c, 0, 64, 51
1, 287755, Control_c, 0, 64, 74
1, 287770, Control_c, 0, 64, 112
1, 287784, Control_c, 0, 64, 127
1, 287817, Note_off_c, 0, 80, 63
1, 287955, Note_on_c, 0, 79, 73
1, 287963, Note_on_c, 0, 63, 56
1, 287963, Control_c, 0, 64, 93
1, 287964, Note_on_c, 0, 70, 64
1, 287978, Control_c, 0, 64, 66
1, 287992, Control_c, 0, 64, 43
1, 288001, Note_off_c, 0, 71, 44
1, 288007, Control_c, 0, 64, 0
1, 288022, Control_c, 0, 64, 24
1, 288037, Control_c, 0, 64, 55
1, 288052, Control_c, 0, 64, 77
1, 288066, Control_c, 0, 64, 127
1, 288082, Note_off_c, 0, 62, 35
1, 288222, Note_on_c, 0, 73, 66
1, 288224, Note_on_c, 0, 69, 59
1, 288236, Note_on_c, 0, 64, 54
1, 288246, Note_off_c, 0, 79, 31
1, 288261, Note_off_c, 0, 70, 59
1, 288273, Control_c, 0, 64, 96
1, 288288, Control_c, 0, 64, 80
1, 288295, Note_off_c, 0, 63, 53
1, 288303, Control_c, 0, 64, 71
1, 288318, Control_c, 0, 64, 66
1, 288333, Control_c, 0, 64, 63
1, 288348, Control_c, 0, 64, 59
1, 288363, Control_c, 0, 64, 53
1, 288377, Control_c, 0, 64, 41
1, 288392, Control_c, 0, 64, 10
1, 288414, Control_c, 0, 64, 0
1, 288489, Note_off_c, 0, 64, 62
1, 288503, Control_c, 0, 64, 17
1, 288518, Control_c, 0, 64, 45
1, 288520, Note_on_c, 0, 76, 58
1, 288525, Note_on_c, 0, 68, 52
1, 288534, Control_c, 0, 64, 60
1, 288549, Control_c, 0, 64, 66
1, 288563, Control_c, 0, 64, 69
1, 288578, Control_c, 0, 64, 78
1, 288592, Note_off_c, 0, 73, 35
1, 288593, Control_c, 0, 64, 95
1, 288604, Note_off_c, 0, 69, 33
1, 288607, Control_c, 0, 64, 127
1, 288815, Control_c, 0, 64, 106
1, 288830, Control_c, 0, 64, 88
1, 288845, Control_c, 0, 64, 78
1, 288860, Control_c, 0, 64, 73
1, 288869, Note_on_c, 0, 67, 55
1, 288872, Note_off_c, 0, 68, 34
1, 288875, Control_c, 0, 64, 69
1, 288889, Control_c, 0, 64, 65
1, 288905, Control_c, 0, 64, 61
1, 288920, Control_c, 0, 64, 56
1, 288934, Control_c, 0, 64, 52
1, 288949, Control_c, 0, 64, 45
1, 288962, Note_off_c, 0, 76, 37
1, 288964, Control_c, 0, 64, 28
1, 288979, Control_c, 0, 64, 0
1, 289053, Control_c, 0, 64, 12
1, 289068, Control_c, 0, 64, 34
1, 289082, Control_c, 0, 64, 50
1, 289097, Control_c, 0, 64, 60
1, 289112, Control_c, 0, 64, 65
1, 289127, Control_c, 0, 64, 68
1, 289141, Control_c, 0, 64, 71
1, 289164, Control_c, 0, 64, 79
1, 289179, Control_c, 0, 64, 96
1, 289194, Control_c, 0, 64, 127
1, 289290, Note_on_c, 0, 75, 52
1, 289310, Note_on_c, 0, 66, 37
1, 289462, Note_on_c, 0, 76, 57
1, 289466, Note_off_c, 0, 67, 40
1, 289496, Note_off_c, 0, 75, 34
1, 289592, Note_off_c, 0, 76, 59
1, 289594, Control_c, 0, 64, 108
1, 289600, Note_on_c, 0, 75, 66
1, 289609, Control_c, 0, 64, 75
1, 289616, Note_on_c, 0, 73, 51
1, 289620, Note_on_c, 0, 64, 40
1, 289624, Control_c, 0, 64, 61
1, 289638, Control_c, 0, 64, 57
1, 289653, Control_c, 0, 64, 62
1, 289668, Control_c, 0, 64, 71
1, 289683, Control_c, 0, 64, 89
1, 289685, Note_off_c, 0, 66, 30
1, 289698, Control_c, 0, 64, 127
1, 289733, Note_on_c, 0, 76, 68
1, 289770, Note_off_c, 0, 73, 35
1, 289772, Note_off_c, 0, 75, 58
1, 289985, Note_on_c, 0, 78, 64
1, 289999, Note_on_c, 0, 66, 41
1, 290005, Note_on_c, 0, 63, 40
1, 290022, Note_off_c, 0, 76, 46
1, 290032, Control_c, 0, 64, 122
1, 290046, Control_c, 0, 64, 78
1, 290061, Control_c, 0, 64, 59
1, 290076, Control_c, 0, 64, 34
1, 290090, Control_c, 0, 64, 20
1, 290098, Note_off_c, 0, 64, 37
1, 290105, Control_c, 0, 64, 41
1, 290120, Control_c, 0, 64, 62
1, 290136, Control_c, 0, 64, 77
1, 290151, Control_c, 0, 64, 104
1, 290166, Control_c, 0, 64, 127
1, 290208, Note_off_c, 0, 78, 58
1, 290342, Note_on_c, 0, 78, 59
1, 290358, Note_on_c, 0, 71, 51
1, 290372, Note_on_c, 0, 62, 31
1, 290404, Note_off_c, 0, 63, 42
1, 290434, Note_off_c, 0, 66, 51
1, 290513, Note_off_c, 0, 78, 53
1, 290637, Note_on_c, 0, 78, 67
1, 290667, Note_on_c, 0, 61, 45
1, 290670, Note_on_c, 0, 70, 53
1, 290676, Control_c, 0, 64, 99
1, 290691, Control_c, 0, 64, 69
1, 290705, Control_c, 0, 64, 55
1, 290720, Control_c, 0, 64, 58
1, 290735, Control_c, 0, 64, 70
1, 290750, Control_c, 0, 64, 96
1, 290765, Control_c, 0, 64, 127
1, 290825, Note_off_c, 0, 62, 38
1, 290838, Note_off_c, 0, 78, 55
1, 290924, Note_off_c, 0, 70, 36
1, 291064, Note_on_c, 0, 78, 60
1, 291081, Note_on_c, 0, 69, 45
1, 291083, Note_on_c, 0, 63, 36
1, 291100, Note_on_c, 0, 60, 41
1, 291107, Note_off_c, 0, 71, 42
1, 291180, Control_c, 0, 64, 79
1, 291195, Control_c, 0, 64, 60
1, 291209, Control_c, 0, 64, 33
1, 291224, Control_c, 0, 64, 0
1, 291231, Note_off_c, 0, 61, 34
1, 291239, Control_c, 0, 64, 28
1, 291254, Control_c, 0, 64, 56
1, 291269, Control_c, 0, 64, 71
1, 291284, Control_c, 0, 64, 89
1, 291299, Control_c, 0, 64, 127
1, 291521, Note_on_c, 0, 77, 55
1, 291555, Note_on_c, 0, 53, 42
1, 291620, Note_off_c, 0, 78, 31
1, 291696, Note_off_c, 0, 63, 37
1, 291713, Note_on_c, 0, 72, 57
1, 291713, Note_off_c, 0, 60, 37
1, 291721, Control_c, 0, 64, 83
1, 291737, Control_c, 0, 64, 64
1, 291752, Control_c, 0, 64, 62
1, 291752, Note_off_c, 0, 77, 31
1, 291766, Control_c, 0, 64, 71
1, 291781, Control_c, 0, 64, 91
1, 291796, Control_c, 0, 64, 127
1, 291871, Note_off_c, 0, 72, 59
1, 291872, Note_on_c, 0, 75, 64
1, 291883, Note_on_c, 0, 65, 47
1, 291887, Note_off_c, 0, 53, 38
1, 291940, Note_off_c, 0, 65, 56
1, 292015, Note_on_c, 0, 73, 64
1, 292019, Note_off_c, 0, 75, 55
1, 292029, Note_off_c, 0, 69, 33
1, 292269, Note_on_c, 0, 70, 55
1, 292277, Note_on_c, 0, 46, 43
1, 292327, Note_off_c, 0, 73, 31
1, 292366, Control_c, 0, 64, 90
1, 292381, Control_c, 0, 64, 67
1, 292396, Control_c, 0, 64, 46
1, 292411, Control_c, 0, 64, 25
1, 292426, Control_c, 0, 64, 37
1, 292440, Control_c, 0, 64, 62
1, 292455, Control_c, 0, 64, 78
1, 292470, Control_c, 0, 64, 127
1, 292561, Note_off_c, 0, 46, 54
1, 292623, Note_on_c, 0, 61, 33
1, 292629, Note_on_c, 0, 53, 39
1, 292655, Note_off_c, 0, 70, 49
1, 292733, Note_off_c, 0, 53, 56
1, 292759, Note_off_c, 0, 61, 33
1, 292974, Note_on_c, 0, 44, 49
1, 293054, Control_c, 0, 64, 99
1, 293069, Control_c, 0, 64, 70
1, 293084, Control_c, 0, 64, 54
1, 293099, Control_c, 0, 64, 49
1, 293114, Control_c, 0, 64, 59
1, 293129, Control_c, 0, 64, 72
1, 293144, Control_c, 0, 64, 101
1, 293159, Control_c, 0, 64, 127
1, 293187, Note_off_c, 0, 44, 54
1, 293418, Note_on_c, 0, 42, 53
1, 293500, Control_c, 0, 64, 85
1, 293515, Control_c, 0, 64, 63
1, 293529, Control_c, 0, 64, 43
1, 293544, Control_c, 0, 64, 37
1, 293559, Control_c, 0, 64, 55
1, 293574, Control_c, 0, 64, 73
1, 293589, Control_c, 0, 64, 127
1, 293628, Note_off_c, 0, 42, 64
1, 293925, Note_on_c, 0, 73, 49
1, 293933, Note_on_c, 0, 49, 40
1, 293933, Note_on_c, 0, 58, 36
1, 293939, Note_on_c, 0, 54, 36
1, 294083, Note_off_c, 0, 54, 57
1, 294089, Note_off_c, 0, 58, 51
1, 294099, Note_off_c, 0, 73, 58
1, 294110, Note_on_c, 0, 75, 58
1, 294232, Note_on_c, 0, 73, 62
1, 294233, Note_off_c, 0, 75, 59
1, 294245, Note_on_c, 0, 54, 43
1, 294259, Note_on_c, 0, 61, 36
1, 294260, Note_on_c, 0, 58, 32
1, 294299, Note_off_c, 0, 61, 49
1, 294304, Note_off_c, 0, 49, 32
1, 294315, Note_off_c, 0, 58, 44
1, 294353, Note_off_c, 0, 54, 61
1, 294360, Note_on_c, 0, 75, 69
1, 294368, Note_off_c, 0, 73, 58
1, 294586, Note_on_c, 0, 77, 62
1, 294587, Note_on_c, 0, 37, 52
1, 294604, Note_off_c, 0, 75, 49
1, 294641, Control_c, 0, 64, 84
1, 294656, Control_c, 0, 64, 62
1, 294671, Control_c, 0, 64, 39
1, 294685, Control_c, 0, 64, 43
1, 294700, Control_c, 0, 64, 61
1, 294710, Note_off_c, 0, 37, 63
1, 294715, Control_c, 0, 64, 81
1, 294730, Control_c, 0, 64, 127
1, 294816, Note_off_c, 0, 77, 54
1, 294962, Note_on_c, 0, 77, 71
1, 294967, Note_on_c, 0, 53, 48
1, 294985, Note_on_c, 0, 61, 42
1, 294986, Note_on_c, 0, 56, 44
1, 295126, Note_off_c, 0, 61, 0
1, 295149, Note_off_c, 0, 56, 52
1, 295153, Poly_aftertouch_c, 0, 61, 0
1, 295195, Note_off_c, 0, 77, 61
1, 295281, Note_on_c, 0, 61, 48
1, 295283, Note_on_c, 0, 77, 78
1, 295293, Note_on_c, 0, 65, 56
1, 295298, Note_on_c, 0, 56, 52
1, 295310, Note_off_c, 0, 53, 37
1, 295329, Note_off_c, 0, 65, 63
1, 295403, Note_off_c, 0, 56, 60
1, 295414, Note_off_c, 0, 61, 34
1, 295435, Note_off_c, 0, 77, 57
1, 295632, Note_on_c, 0, 77, 66
1, 295648, Note_on_c, 0, 39, 54
1, 295672, Control_c, 0, 64, 95
1, 295687, Control_c, 0, 64, 67
1, 295702, Control_c, 0, 64, 39
1, 295717, Control_c, 0, 64, 0
1, 295732, Control_c, 0, 64, 16
1, 295747, Control_c, 0, 64, 52
1, 295762, Control_c, 0, 64, 71
1, 295777, Control_c, 0, 64, 100
1, 295788, Note_off_c, 0, 39, 63
1, 295791, Control_c, 0, 64, 127
1, 296038, Note_on_c, 0, 75, 62
1, 296054, Note_on_c, 0, 60, 47
1, 296065, Control_c, 0, 64, 93
1, 296070, Note_on_c, 0, 66, 42
1, 296071, Note_on_c, 0, 58, 41
1, 296080, Control_c, 0, 64, 70
1, 296095, Control_c, 0, 64, 59
1, 296101, Note_off_c, 0, 77, 37
1, 296110, Control_c, 0, 64, 59
1, 296125, Control_c, 0, 64, 67
1, 296140, Control_c, 0, 64, 86
1, 296155, Control_c, 0, 64, 127
1, 296203, Note_off_c, 0, 66, 56
1, 296230, Note_on_c, 0, 70, 59
1, 296232, Note_off_c, 0, 60, 53
1, 296241, Note_off_c, 0, 58, 44
1, 296281, Note_off_c, 0, 75, 35
1, 296400, Note_on_c, 0, 58, 32
1, 296402, Note_off_c, 0, 70, 55
1, 296409, Note_on_c, 0, 73, 54
1, 296421, Control_c, 0, 64, 116
1, 296425, Note_on_c, 0, 54, 45
1, 296425, Note_on_c, 0, 63, 40
1, 296436, Control_c, 0, 64, 77
1, 296450, Control_c, 0, 64, 62
1, 296465, Control_c, 0, 64, 54
1, 296480, Control_c, 0, 64, 60
1, 296495, Control_c, 0, 64, 74
1, 296510, Control_c, 0, 64, 127
1, 296548, Note_off_c, 0, 58, 42
1, 296566, Note_off_c, 0, 63, 35
1, 296578, Note_off_c, 0, 54, 59
1, 296629, Note_on_c, 0, 72, 51
1, 296672, Note_off_c, 0, 73, 37
1, 296905, Note_on_c, 0, 69, 45
1, 296909, Note_on_c, 0, 41, 40
1, 296933, Note_off_c, 0, 72, 29
1, 296962, Control_c, 0, 64, 108
1, 296977, Control_c, 0, 64, 72
1, 296992, Control_c, 0, 64, 53
1, 297007, Control_c, 0, 64, 36
1, 297022, Control_c, 0, 64, 48
1, 297037, Control_c, 0, 64, 66
1, 297052, Control_c, 0, 64, 88
1, 297065, Note_off_c, 0, 41, 61
1, 297066, Control_c, 0, 64, 127
1, 297097, Note_off_c, 0, 69, 46
1, 297547, Note_on_c, 0, 72, 50
1, 297563, Note_on_c, 0, 69, 38
1, 297566, Note_on_c, 0, 60, 40
1, 297577, Note_on_c, 0, 65, 33
1, 297636, Control_c, 0, 64, 89
1, 297651, Control_c, 0, 64, 71
1, 297681, Control_c, 0, 64, 92
1, 297696, Control_c, 0, 64, 127
1, 297737, Note_off_c, 0, 65, 43
1, 297741, Note_off_c, 0, 60, 42
1, 297761, Note_off_c, 0, 69, 34
1, 297840, Note_on_c, 0, 77, 67
1, 297853, Note_on_c, 0, 65, 43
1, 297860, Note_on_c, 0, 60, 51
1, 297867, Note_on_c, 0, 57, 48
1, 297895, Note_off_c, 0, 72, 57
1, 297912, Note_off_c, 0, 65, 57
1, 297920, Note_off_c, 0, 60, 51
1, 297957, Note_off_c, 0, 57, 47
1, 298181, Note_on_c, 0, 76, 66
1, 298197, Note_on_c, 0, 53, 49
1, 298208, Control_c, 0, 64, 99
1, 298223, Control_c, 0, 64, 69
1, 298225, Note_off_c, 0, 77, 57
1, 298238, Control_c, 0, 64, 51
1, 298252, Control_c, 0, 64, 39
1, 298267, Control_c, 0, 64, 51
1, 298282, Control_c, 0, 64, 65
1, 298297, Control_c, 0, 64, 79
1, 298312, Control_c, 0, 64, 124
1, 298326, Control_c, 0, 64, 127
1, 298349, Note_off_c, 0, 53, 63
1, 298532, Note_on_c, 0, 70, 57
1, 298533, Control_c, 0, 64, 120
1, 298548, Control_c, 0, 64, 73
1, 298562, Note_on_c, 0, 64, 31
1, 298563, Control_c, 0, 64, 60
1, 298567, Note_on_c, 0, 67, 30
1, 298569, Note_on_c, 0, 61, 27
1, 298578, Control_c, 0, 64, 58
1, 298593, Control_c, 0, 64, 65
1, 298608, Control_c, 0, 64, 83
1, 298609, Note_off_c, 0, 76, 49
1, 298623, Control_c, 0, 64, 127
1, 298717, Note_off_c, 0, 67, 44
1, 298719, Note_off_c, 0, 61, 46
1, 298729, Note_off_c, 0, 64, 37
1, 298898, Note_on_c, 0, 64, 27
1, 298903, Note_on_c, 0, 73, 46
1, 298915, Note_on_c, 0, 58, 45
1, 298917, Note_on_c, 0, 61, 31
1, 298956, Note_off_c, 0, 70, 34
1, 299017, Note_off_c, 0, 61, 0
1, 299022, Note_off_c, 0, 58, 34
1, 299038, Note_off_c, 0, 64, 35
1, 299046, Note_off_c, 0, 73, 50
1, 299074, Poly_aftertouch_c, 0, 61, 0
1, 299359, Note_on_c, 0, 41, 55
1, 299387, Control_c, 0, 64, 99
1, 299401, Control_c, 0, 64, 71
1, 299416, Control_c, 0, 64, 57
1, 299431, Control_c, 0, 64, 53
1, 299446, Control_c, 0, 64, 62
1, 299460, Control_c, 0, 64, 76
1, 299475, Control_c, 0, 64, 127
1, 299483, Note_off_c, 0, 41, 62
1, 299741, Note_on_c, 0, 72, 58
1, 299770, Note_on_c, 0, 60, 47
1, 299771, Note_on_c, 0, 69, 35
1, 299773, Note_on_c, 0, 65, 36
1, 299893, Note_off_c, 0, 65, 42
1, 299915, Note_off_c, 0, 60, 32
1, 299922, Note_off_c, 0, 69, 46
1, 300033, Note_on_c, 0, 77, 71
1, 300038, Note_on_c, 0, 65, 43
1, 300042, Note_on_c, 0, 60, 44
1, 300054, Note_on_c, 0, 57, 47
1, 300106, Control_c, 0, 64, 93
1, 300121, Control_c, 0, 64, 81
1, 300136, Control_c, 0, 64, 86
1, 300148, Note_off_c, 0, 72, 30
1, 300150, Control_c, 0, 64, 127
1, 300181, Note_off_c, 0, 60, 56
1, 300189, Note_off_c, 0, 65, 35
1, 300200, Note_off_c, 0, 57, 61
1, 300373, Control_c, 0, 64, 99
1, 300393, Note_on_c, 0, 53, 50
1, 300395, Control_c, 0, 64, 67
1, 300410, Control_c, 0, 64, 54
1, 300424, Control_c, 0, 64, 54
1, 300439, Control_c, 0, 64, 61
1, 300454, Control_c, 0, 64, 73
1, 300468, Control_c, 0, 64, 101
1, 300483, Control_c, 0, 64, 127
1, 300532, Note_off_c, 0, 53, 61
1, 300557, Note_off_c, 0, 77, 50
1, 300561, Note_on_c, 0, 76, 52
1, 300770, Note_on_c, 0, 70, 52
1, 300773, Note_on_c, 0, 64, 37
1, 300779, Note_on_c, 0, 67, 31
1, 300792, Note_on_c, 0, 61, 38
1, 300806, Note_off_c, 0, 76, 30
1, 300811, Control_c, 0, 64, 81
1, 300826, Control_c, 0, 64, 65
1, 300840, Control_c, 0, 64, 60
1, 300855, Control_c, 0, 64, 64
1, 300870, Control_c, 0, 64, 73
1, 300883, Control_c, 0, 64, 99
1, 300898, Control_c, 0, 64, 127
1, 300950, Note_on_c, 0, 72, 56
1, 300963, Note_off_c, 0, 61, 42
1, 300969, Note_off_c, 0, 64, 35
1, 300975, Note_off_c, 0, 70, 35
1, 300984, Note_off_c, 0, 67, 40
1, 301162, Note_on_c, 0, 64, 18
1, 301170, Note_on_c, 0, 75, 45
1, 301172, Control_c, 0, 64, 112
1, 301187, Control_c, 0, 64, 80
1, 301189, Note_on_c, 0, 58, 34
1, 301189, Note_on_c, 0, 61, 33
1, 301202, Control_c, 0, 64, 66
1, 301210, Note_off_c, 0, 72, 26
1, 301217, Control_c, 0, 64, 66
1, 301232, Control_c, 0, 64, 73
1, 301246, Control_c, 0, 64, 92
1, 301250, Note_off_c, 0, 58, 0
1, 301261, Control_c, 0, 64, 127
1, 301273, Note_on_c, 0, 58, 9
1, 301278, Note_off_c, 0, 61, 0
1, 301315, Poly_aftertouch_c, 0, 61, 127
1, 301322, Note_off_c, 0, 64, 21
1, 301335, Note_off_c, 0, 58, 57
1, 301351, Poly_aftertouch_c, 0, 61, 0
1, 301375, Note_on_c, 0, 73, 44
1, 301386, Note_off_c, 0, 75, 40
1, 301503, Note_off_c, 0, 73, 36
1, 301657, Note_on_c, 0, 41, 47
1, 301707, Control_c, 0, 64, 76
1, 301722, Control_c, 0, 64, 60
1, 301737, Control_c, 0, 64, 50
1, 301752, Control_c, 0, 64, 56
1, 301767, Control_c, 0, 64, 69
1, 301781, Control_c, 0, 64, 90
1, 301796, Control_c, 0, 64, 127
1, 301830, Note_off_c, 0, 41, 64
1, 302142, Note_on_c, 0, 72, 50
1, 302164, Note_on_c, 0, 63, 36
1, 302165, Note_on_c, 0, 66, 31
1, 302176, Note_on_c, 0, 60, 46
1, 302310, Note_off_c, 0, 60, 59
1, 302336, Note_on_c, 0, 73, 59
1, 302347, Note_off_c, 0, 63, 38
1, 302373, Note_off_c, 0, 72, 34
1, 302377, Note_off_c, 0, 66, 34
1, 302470, Note_off_c, 0, 73, 58
1, 302481, Note_on_c, 0, 63, 43
1, 302483, Note_on_c, 0, 72, 65
1, 302488, Note_on_c, 0, 54, 37
1, 302518, Note_on_c, 0, 58, 33
1, 302576, Note_off_c, 0, 58, 41
1, 302606, Note_on_c, 0, 73, 66
1, 302611, Note_off_c, 0, 63, 0
1, 302619, Note_off_c, 0, 54, 38
1, 302644, Poly_aftertouch_c, 0, 63, 0
1, 302672, Note_off_c, 0, 72, 49
1, 302782, Note_on_c, 0, 75, 65
1, 302791, Note_on_c, 0, 53, 51
1, 302819, Control_c, 0, 64, 96
1, 302834, Control_c, 0, 64, 71
1, 302849, Control_c, 0, 64, 58
1, 302856, Note_off_c, 0, 73, 36
1, 302863, Control_c, 0, 64, 51
1, 302878, Control_c, 0, 64, 53
1, 302893, Control_c, 0, 64, 58
1, 302908, Control_c, 0, 64, 66
1, 302924, Control_c, 0, 64, 81
1, 302936, Note_off_c, 0, 53, 63
1, 302939, Control_c, 0, 64, 127
1, 303020, Note_off_c, 0, 75, 58
1, 303134, Note_on_c, 0, 75, 68
1, 303163, Note_on_c, 0, 70, 39
1, 303164, Note_on_c, 0, 66, 39
1, 303179, Note_on_c, 0, 63, 34
1, 303323, Note_off_c, 0, 75, 60
1, 303333, Note_off_c, 0, 66, 39
1, 303344, Note_off_c, 0, 63, 34
1, 303354, Note_off_c, 0, 70, 38
1, 303450, Note_on_c, 0, 75, 68
1, 303467, Note_on_c, 0, 60, 48
1, 303473, Note_on_c, 0, 66, 31
1, 303490, Note_on_c, 0, 63, 33
1, 303512, Note_off_c, 0, 66, 51
1, 303527, Note_off_c, 0, 63, 51
1, 303556, Note_off_c, 0, 60, 62
1, 303715, Note_off_c, 0, 75, 35
1, 303840, Note_on_c, 0, 75, 56
1, 303868, Note_on_c, 0, 41, 43
1, 303924, Control_c, 0, 64, 113
1, 303939, Control_c, 0, 64, 78
1, 303954, Control_c, 0, 64, 63
1, 303969, Control_c, 0, 64, 61
1, 303983, Control_c, 0, 64, 67
1, 303998, Control_c, 0, 64, 82
1, 304013, Control_c, 0, 64, 127
1, 304015, Note_off_c, 0, 41, 63
1, 304302, Note_on_c, 0, 77, 49
1, 304335, Note_off_c, 0, 75, 33
1, 304346, Note_on_c, 0, 69, 35
1, 304349, Note_on_c, 0, 63, 37
1, 304504, Note_off_c, 0, 63, 43
1, 304516, Note_on_c, 0, 72, 53
1, 304546, Note_off_c, 0, 77, 34
1, 304563, Note_off_c, 0, 69, 39
1, 304692, Note_on_c, 0, 75, 56
1, 304713, Note_on_c, 0, 65, 31
1, 304719, Note_off_c, 0, 72, 34
1, 304726, Note_on_c, 0, 57, 37
1, 304730, Note_on_c, 0, 63, 27
1, 304732, Control_c, 0, 64, 96
1, 304747, Control_c, 0, 64, 72
1, 304762, Control_c, 0, 64, 62
1, 304777, Control_c, 0, 64, 64
1, 304792, Control_c, 0, 64, 73
1, 304806, Control_c, 0, 64, 99
1, 304821, Control_c, 0, 64, 127
1, 304832, Note_off_c, 0, 65, 43
1, 304870, Note_off_c, 0, 63, 40
1, 304874, Note_off_c, 0, 57, 50
1, 304887, Note_on_c, 0, 73, 54
1, 304930, Note_off_c, 0, 75, 32
1, 305181, Note_on_c, 0, 70, 48
1, 305187, Note_on_c, 0, 46, 36
1, 305258, Control_c, 0, 64, 80
1, 305262, Note_off_c, 0, 73, 35
1, 305273, Control_c, 0, 64, 61
1, 305288, Control_c, 0, 64, 52
1, 305303, Control_c, 0, 64, 55
1, 305318, Control_c, 0, 64, 64
1, 305333, Control_c, 0, 64, 76
1, 305348, Control_c, 0, 64, 111
1, 305363, Control_c, 0, 64, 127
1, 305384, Note_off_c, 0, 46, 63
1, 305621, Note_on_c, 0, 65, 34
1, 305645, Note_on_c, 0, 61, 42
1, 305658, Note_on_c, 0, 58, 31
1, 305775, Note_off_c, 0, 61, 58
1, 305795, Note_off_c, 0, 58, 42
1, 305825, Note_off_c, 0, 65, 34
1, 305937, Note_on_c, 0, 58, 32
1, 305941, Note_on_c, 0, 61, 33
1, 305956, Note_on_c, 0, 53, 42
1, 306031, Note_off_c, 0, 53, 48
1, 306039, Note_off_c, 0, 58, 52
1, 306060, Note_off_c, 0, 61, 40
1, 306266, Note_on_c, 0, 67, 40
1, 306278, Note_on_c, 0, 48, 47
1, 306291, Note_off_c, 0, 70, 0
1, 306319, Control_c, 0, 64, 91
1, 306334, Control_c, 0, 64, 68
1, 306340, Poly_aftertouch_c, 0, 70, 0
1, 306349, Control_c, 0, 64, 56
1, 306364, Control_c, 0, 64, 57
1, 306385, Control_c, 0, 64, 66
1, 306400, Control_c, 0, 64, 91
1, 306415, Control_c, 0, 64, 127
1, 306443, Note_off_c, 0, 48, 60
1, 306656, Note_on_c, 0, 60, 34
1, 306673, Note_on_c, 0, 58, 32
1, 306673, Note_on_c, 0, 64, 29
1, 306845, Note_off_c, 0, 58, 38
1, 306854, Note_off_c, 0, 60, 38
1, 306854, Note_off_c, 0, 64, 36
1, 306932, Note_off_c, 0, 67, 32
1, 307048, Note_on_c, 0, 58, 38
1, 307054, Note_on_c, 0, 60, 14
1, 307058, Note_on_c, 0, 52, 41
1, 307156, Note_off_c, 0, 60, 37
1, 307160, Note_off_c, 0, 58, 57
1, 307198, Note_off_c, 0, 52, 61
1, 307549, Note_on_c, 0, 41, 49
1, 307638, Control_c, 0, 64, 112
1, 307652, Control_c, 0, 64, 72
1, 307667, Control_c, 0, 64, 55
1, 307682, Control_c, 0, 64, 47
1, 307698, Control_c, 0, 64, 58
1, 307713, Control_c, 0, 64, 75
1, 307728, Control_c, 0, 64, 127
1, 307740, Note_on_c, 0, 48, 58
1, 307794, Note_off_c, 0, 41, 34
1, 307864, Note_off_c, 0, 48, 58
1, 307889, Note_on_c, 0, 72, 57
1, 307901, Note_on_c, 0, 56, 51
1, 307939, Note_off_c, 0, 56, 64
1, 308061, Note_on_c, 0, 53, 59
1, 308262, Note_on_c, 0, 77, 64
1, 308289, Note_on_c, 0, 60, 38
1, 308303, Note_off_c, 0, 53, 31
1, 308382, Note_off_c, 0, 72, 33
1, 308441, Note_on_c, 0, 68, 52
1, 308469, Note_off_c, 0, 68, 66
1, 308506, Note_off_c, 0, 60, 39
1, 308697, Note_on_c, 0, 41, 50
1, 308779, Control_c, 0, 64, 101
1, 308794, Control_c, 0, 64, 71
1, 308809, Control_c, 0, 64, 63
1, 308820, Note_on_c, 0, 76, 55
1, 308823, Control_c, 0, 64, 68
1, 308838, Control_c, 0, 64, 94
1, 308853, Control_c, 0, 64, 127
1, 308858, Note_off_c, 0, 77, 33
1, 308868, Note_off_c, 0, 41, 57
1, 308868, Note_on_c, 0, 49, 54
1, 308919, Note_off_c, 0, 76, 60
1, 308957, Note_on_c, 0, 69, 57
1, 308975, Note_off_c, 0, 49, 58
1, 308996, Note_off_c, 0, 69, 61
1, 309032, Note_on_c, 0, 70, 61
1, 309045, Note_on_c, 0, 55, 44
1, 309071, Note_off_c, 0, 55, 57
1, 309097, Note_off_c, 0, 70, 60
1, 309110, Note_on_c, 0, 71, 71
1, 309182, Note_on_c, 0, 52, 52
1, 309182, Note_off_c, 0, 71, 62
1, 309193, Note_on_c, 0, 72, 65
1, 309256, Note_off_c, 0, 72, 62
1, 309257, Note_off_c, 0, 52, 59
1, 309268, Note_on_c, 0, 75, 71
1, 309268, Control_c, 0, 64, 114
1, 309283, Control_c, 0, 64, 70
1, 309297, Note_on_c, 0, 58, 51
1, 309299, Control_c, 0, 64, 53
1, 309314, Control_c, 0, 64, 54
1, 309328, Control_c, 0, 64, 67
1, 309339, Note_off_c, 0, 75, 62
1, 309343, Control_c, 0, 64, 105
1, 309358, Control_c, 0, 64, 127
1, 309362, Note_on_c, 0, 73, 61
1, 309414, Note_on_c, 0, 67, 37
1, 309437, Note_off_c, 0, 58, 50
1, 309447, Note_off_c, 0, 67, 46
1, 309450, Note_off_c, 0, 73, 58
1, 309627, Note_on_c, 0, 41, 49
1, 309635, Note_on_c, 0, 40, 36
1, 309661, Note_off_c, 0, 40, 53
1, 309661, Control_c, 0, 64, 91
1, 309676, Control_c, 0, 64, 65
1, 309691, Control_c, 0, 64, 49
1, 309706, Control_c, 0, 64, 50
1, 309721, Control_c, 0, 64, 63
1, 309736, Control_c, 0, 64, 85
1, 309751, Control_c, 0, 64, 127
1, 309765, Note_on_c, 0, 48, 53
1, 309812, Note_off_c, 0, 41, 56
1, 309831, Note_on_c, 0, 72, 55
1, 309920, Note_off_c, 0, 72, 62
1, 309928, Note_off_c, 0, 48, 56
1, 309938, Note_on_c, 0, 73, 62
1, 309941, Note_on_c, 0, 56, 55
1, 309987, Note_off_c, 0, 56, 63
1, 309993, Note_off_c, 0, 73, 59
1, 310035, Note_on_c, 0, 71, 69
1, 310108, Note_off_c, 0, 71, 62
1, 310108, Note_on_c, 0, 72, 75
1, 310125, Note_on_c, 0, 53, 66
1, 310172, Note_off_c, 0, 72, 62
1, 310203, Note_on_c, 0, 80, 72
1, 310206, Note_off_c, 0, 53, 54
1, 310253, Note_on_c, 0, 60, 45
1, 310267, Note_off_c, 0, 80, 64
1, 310292, Note_on_c, 0, 79, 77
1, 310302, Note_on_c, 0, 68, 53
1, 310323, Note_off_c, 0, 68, 63
1, 310324, Note_off_c, 0, 60, 44
1, 310381, Note_on_c, 0, 77, 77
1, 310388, Note_off_c, 0, 79, 58
1, 310433, Note_off_c, 0, 77, 62
1, 310549, Note_on_c, 0, 41, 49
1, 310552, Note_on_c, 0, 77, 66
1, 310618, Control_c, 0, 64, 80
1, 310633, Control_c, 0, 64, 59
1, 310648, Control_c, 0, 64, 39
1, 310663, Control_c, 0, 64, 38
1, 310677, Control_c, 0, 64, 58
1, 310692, Control_c, 0, 64, 75
1, 310703, Note_off_c, 0, 77, 54
1, 310707, Control_c, 0, 64, 127
1, 310713, Note_on_c, 0, 76, 56
1, 310719, Note_on_c, 0, 49, 51
1, 310739, Note_off_c, 0, 41, 32
1, 310788, Note_off_c, 0, 49, 55
1, 310791, Note_off_c, 0, 76, 53
1, 310890, Note_on_c, 0, 55, 46
1, 310917, Note_off_c, 0, 55, 56
1, 310969, Note_on_c, 0, 69, 59
1, 311013, Note_off_c, 0, 69, 58
1, 311024, Note_on_c, 0, 52, 56
1, 311047, Note_on_c, 0, 70, 60
1, 311106, Note_off_c, 0, 70, 57
1, 311122, Note_off_c, 0, 52, 61
1, 311131, Note_on_c, 0, 71, 68
1, 311146, Note_on_c, 0, 58, 57
1, 311159, Control_c, 0, 64, 83
1, 311174, Control_c, 0, 64, 62
1, 311189, Control_c, 0, 64, 55
1, 311196, Note_off_c, 0, 71, 62
1, 311204, Note_on_c, 0, 72, 65
1, 311204, Control_c, 0, 64, 64
1, 311219, Control_c, 0, 64, 82
1, 311233, Control_c, 0, 64, 127
1, 311260, Note_on_c, 0, 67, 53
1, 311268, Note_off_c, 0, 72, 61
1, 311274, Note_on_c, 0, 75, 70
1, 311294, Note_off_c, 0, 67, 65
1, 311330, Note_off_c, 0, 58, 57
1, 311339, Note_off_c, 0, 75, 63
1, 311346, Note_on_c, 0, 73, 60
1, 311399, Note_off_c, 0, 73, 48
1, 311485, Note_on_c, 0, 41, 66
1, 311573, Control_c, 0, 64, 87
1, 311588, Control_c, 0, 64, 62
1, 311603, Control_c, 0, 64, 55
1, 311625, Control_c, 0, 64, 63
1, 311626, Note_on_c, 0, 48, 66
1, 311640, Control_c, 0, 64, 79
1, 311655, Control_c, 0, 64, 127
1, 311660, Note_off_c, 0, 41, 63
1, 311760, Note_on_c, 0, 72, 67
1, 311768, Note_on_c, 0, 56, 58
1, 311778, Poly_aftertouch_c, 0, 75, 0
1, 311811, Note_off_c, 0, 56, 60
1, 311840, Note_off_c, 0, 72, 62
1, 311849, Note_on_c, 0, 73, 76
1, 311854, Note_off_c, 0, 48, 55
1, 311897, Note_on_c, 0, 40, 66
1, 311922, Note_off_c, 0, 73, 64
1, 311928, Note_on_c, 0, 72, 75
1, 311990, Note_off_c, 0, 72, 62
1, 311996, Note_on_c, 0, 48, 66
1, 312004, Note_off_c, 0, 40, 53
1, 312009, Note_on_c, 0, 71, 79
1, 312026, Control_c, 0, 64, 108
1, 312040, Control_c, 0, 64, 72
1, 312055, Control_c, 0, 64, 60
1, 312070, Control_c, 0, 64, 61
1, 312085, Control_c, 0, 64, 72
1, 312091, Note_off_c, 0, 71, 65
1, 312093, Note_on_c, 0, 72, 83
1, 312099, Control_c, 0, 64, 127
1, 312114, Note_on_c, 0, 56, 59
1, 312154, Note_off_c, 0, 48, 50
1, 312170, Note_off_c, 0, 72, 63
1, 312174, Note_off_c, 0, 56, 60
1, 312177, Note_on_c, 0, 73, 75
1, 312261, Note_off_c, 0, 73, 55
1, 312285, Poly_aftertouch_c, 0, 74, 127
1, 312299, Note_on_c, 0, 39, 61
1, 312311, Note_on_c, 0, 74, 10
1, 312353, Control_c, 0, 64, 89
1, 312374, Control_c, 0, 64, 64
1, 312389, Control_c, 0, 64, 38
1, 312404, Control_c, 0, 64, 0
1, 312419, Control_c, 0, 64, 30
1, 312434, Control_c, 0, 64, 59
1, 312436, Note_off_c, 0, 39, 61
1, 312442, Note_off_c, 0, 74, 55
1, 312445, Note_on_c, 0, 75, 70
1, 312446, Note_on_c, 0, 48, 45
1, 312448, Control_c, 0, 64, 78
1, 312463, Control_c, 0, 64, 127
1, 312529, Note_off_c, 0, 75, 57
1, 312532, Note_off_c, 0, 48, 58
1, 312547, Note_on_c, 0, 84, 67
1, 312588, Note_on_c, 0, 56, 46
1, 312609, Note_off_c, 0, 84, 62
1, 312633, Note_on_c, 0, 79, 64
1, 312645, Note_off_c, 0, 56, 60
1, 312702, Note_off_c, 0, 79, 54
1, 312725, Note_on_c, 0, 82, 68
1, 312767, Note_on_c, 0, 51, 52
1, 312798, Note_on_c, 0, 80, 67
1, 312798, Note_off_c, 0, 82, 60
1, 312832, Note_off_c, 0, 80, 59
1, 312848, Note_off_c, 0, 51, 63
1, 312860, Note_on_c, 0, 72, 73
1, 312875, Note_on_c, 0, 60, 54
1, 312916, Note_off_c, 0, 72, 60
1, 312936, Note_on_c, 0, 73, 76
1, 312937, Note_on_c, 0, 68, 58
1, 312965, Note_off_c, 0, 68, 66
1, 312975, Note_off_c, 0, 60, 59
1, 312995, Note_off_c, 0, 73, 64
1, 313011, Note_on_c, 0, 74, 78
1, 313077, Note_off_c, 0, 74, 64
1, 313083, Note_on_c, 0, 75, 68
1, 313158, Note_on_c, 0, 39, 63
1, 313166, Note_off_c, 0, 75, 51
1, 313196, Note_on_c, 0, 76, 76
1, 313256, Control_c, 0, 64, 75
1, 313271, Note_off_c, 0, 76, 57
1, 313271, Control_c, 0, 64, 51
1, 313286, Control_c, 0, 64, 24
1, 313295, Note_on_c, 0, 79, 67
1, 313302, Control_c, 0, 64, 34
1, 313315, Note_on_c, 0, 49, 60
1, 313317, Control_c, 0, 64, 50
1, 313322, Note_off_c, 0, 39, 65
1, 313332, Control_c, 0, 64, 64
1, 313346, Control_c, 0, 64, 74
1, 313361, Control_c, 0, 64, 117
1, 313375, Note_on_c, 0, 77, 67
1, 313376, Control_c, 0, 64, 127
1, 313399, Note_off_c, 0, 49, 61
1, 313407, Note_off_c, 0, 79, 36
1, 313438, Note_off_c, 0, 77, 56
1, 313440, Note_on_c, 0, 75, 73
1, 313453, Note_on_c, 0, 55, 59
1, 313486, Note_off_c, 0, 55, 65
1, 313498, Note_off_c, 0, 75, 62
1, 313533, Note_on_c, 0, 71, 63
1, 313551, Note_on_c, 0, 72, 51
1, 313573, Note_off_c, 0, 72, 57
1, 313588, Note_on_c, 0, 51, 65
1, 313588, Note_off_c, 0, 71, 62
1, 313614, Note_on_c, 0, 75, 65
1, 313631, Note_off_c, 0, 75, 68
1, 313650, Note_on_c, 0, 74, 54
1, 313696, Note_on_c, 0, 72, 50
1, 313699, Note_off_c, 0, 74, 62
1, 313720, Note_on_c, 0, 61, 64
1, 313738, Note_off_c, 0, 72, 62
1, 313740, Note_off_c, 0, 51, 62
1, 313778, Note_on_c, 0, 65, 74
1, 313784, Note_off_c, 0, 61, 62
1, 313835, Note_off_c, 0, 65, 61
1, 313879, Note_on_c, 0, 67, 74
1, 313946, Note_off_c, 0, 67, 62
1, 313947, Note_on_c, 0, 63, 67
1, 314098, Note_on_c, 0, 68, 72
1, 314100, Note_on_c, 0, 44, 64
1, 314106, Note_off_c, 0, 63, 59
1, 314125, Control_c, 0, 64, 83
1, 314140, Control_c, 0, 64, 52
1, 314155, Control_c, 0, 64, 0
1, 314184, Control_c, 0, 64, 8
1, 314199, Control_c, 0, 64, 57
1, 314214, Control_c, 0, 64, 80
1, 314229, Control_c, 0, 64, 127
1, 314251, Note_off_c, 0, 44, 62
1, 314265, Note_on_c, 0, 51, 65
1, 314299, Note_off_c, 0, 68, 61
1, 314370, Note_off_c, 0, 51, 63
1, 314407, Note_on_c, 0, 60, 61
1, 314439, Note_off_c, 0, 60, 65
1, 314520, Note_on_c, 0, 51, 63
1, 314627, Note_off_c, 0, 51, 64
1, 314651, Note_on_c, 0, 60, 57
1, 314746, Note_on_c, 0, 68, 56
1, 314767, Note_off_c, 0, 68, 61
1, 314806, Note_off_c, 0, 60, 37
1, 314924, Note_on_c, 0, 44, 69
1, 314992, Control_c, 0, 64, 87
1, 315007, Control_c, 0, 64, 61
1, 315022, Control_c, 0, 64, 53
1, 315037, Control_c, 0, 64, 67
1, 315052, Control_c, 0, 64, 124
1, 315066, Control_c, 0, 64, 127
1, 315074, Note_on_c, 0, 52, 65
1, 315081, Note_off_c, 0, 44, 61
1, 315137, Note_off_c, 0, 52, 63
1, 315194, Note_on_c, 0, 60, 67
1, 315257, Note_off_c, 0, 60, 61
1, 315307, Note_on_c, 0, 52, 66
1, 315419, Note_off_c, 0, 52, 66
1, 315432, Note_on_c, 0, 60, 72
1, 315551, Note_on_c, 0, 68, 68
1, 315576, Note_off_c, 0, 68, 69
1, 315588, Note_off_c, 0, 60, 31
1, 315712, Control_c, 0, 64, 87
1, 315727, Control_c, 0, 64, 57
1, 315742, Control_c, 0, 64, 33
1, 315744, Note_on_c, 0, 32, 81
1, 315757, Control_c, 0, 64, 55
1, 315772, Control_c, 0, 64, 85
1, 315780, Note_off_c, 0, 32, 66
1, 315787, Control_c, 0, 64, 127
1, 315920, Note_on_c, 0, 51, 74
1, 316066, Note_on_c, 0, 75, 73
1, 316083, Note_on_c, 0, 60, 55
1, 316087, Note_off_c, 0, 51, 53
1, 316196, Note_off_c, 0, 60, 61
1, 316211, Note_on_c, 0, 51, 70
1, 316303, Note_off_c, 0, 51, 61
1, 316356, Note_on_c, 0, 80, 71
1, 316357, Note_on_c, 0, 60, 53
1, 316462, Note_off_c, 0, 75, 61
1, 316478, Note_on_c, 0, 68, 46
1, 316504, Note_off_c, 0, 68, 57
1, 316531, Note_off_c, 0, 60, 33
1, 316652, Note_on_c, 0, 44, 63
1, 316771, Control_c, 0, 64, 92
1, 316786, Control_c, 0, 64, 61
1, 316787, Note_on_c, 0, 79, 68
1, 316801, Control_c, 0, 64, 57
1, 316806, Note_off_c, 0, 80, 54
1, 316815, Control_c, 0, 64, 72
1, 316823, Note_on_c, 0, 52, 48
1, 316828, Note_off_c, 0, 44, 59
1, 316830, Control_c, 0, 64, 127
1, 316892, Note_off_c, 0, 79, 59
1, 316908, Note_on_c, 0, 71, 69
1, 316935, Note_off_c, 0, 52, 61
1, 316979, Note_off_c, 0, 71, 62
1, 316985, Note_on_c, 0, 72, 70
1, 316992, Note_on_c, 0, 61, 50
1, 317019, Note_off_c, 0, 61, 62
1, 317043, Note_off_c, 0, 72, 61
1, 317064, Note_on_c, 0, 73, 71
1, 317113, Note_off_c, 0, 73, 62
1, 317122, Note_on_c, 0, 74, 78
1, 317135, Note_on_c, 0, 58, 66
1, 317199, Note_off_c, 0, 74, 61
1, 317216, Note_on_c, 0, 75, 76
1, 317238, Control_c, 0, 64, 78
1, 317251, Note_on_c, 0, 67, 52
1, 317253, Control_c, 0, 64, 61
1, 317259, Note_off_c, 0, 58, 61
1, 317268, Control_c, 0, 64, 62
1, 317274, Note_off_c, 0, 75, 64
1, 317283, Note_on_c, 0, 78, 79
1, 317283, Control_c, 0, 64, 77
1, 317298, Control_c, 0, 64, 127
1, 317313, Note_on_c, 0, 73, 63
1, 317343, Note_off_c, 0, 73, 68
1, 317353, Note_off_c, 0, 67, 54
1, 317367, Note_on_c, 0, 76, 79
1, 317376, Note_off_c, 0, 78, 63
1, 317453, Note_off_c, 0, 76, 59
1, 317498, Note_on_c, 0, 44, 70
1, 317579, Control_c, 0, 64, 81
1, 317594, Control_c, 0, 64, 48
1, 317617, Control_c, 0, 64, 0
1, 317632, Control_c, 0, 64, 18
1, 317633, Note_on_c, 0, 51, 66
1, 317646, Control_c, 0, 64, 55
1, 317661, Control_c, 0, 64, 78
1, 317672, Note_off_c, 0, 44, 59
1, 317676, Control_c, 0, 64, 127
1, 317684, Poly_aftertouch_c, 0, 49, 0
1, 317687, Poly_aftertouch_c, 0, 78, 127
1, 317709, Note_on_c, 0, 75, 64
1, 317713, Poly_aftertouch_c, 0, 49, 0
1, 317713, Poly_aftertouch_c, 0, 78, 0
1, 317748, Note_off_c, 0, 51, 61
1, 317805, Note_off_c, 0, 75, 63
1, 317809, Note_on_c, 0, 77, 66
1, 317811, Note_on_c, 0, 60, 51
1, 317844, Note_off_c, 0, 60, 67
1, 317860, Note_off_c, 0, 77, 61
1, 317892, Note_on_c, 0, 74, 68
1, 317921, Note_on_c, 0, 56, 63
1, 317950, Note_off_c, 0, 74, 58
1, 317960, Note_on_c, 0, 75, 77
1, 318008, Note_off_c, 0, 56, 61
1, 318027, Note_on_c, 0, 63, 54
1, 318034, Note_off_c, 0, 75, 64
1, 318043, Note_on_c, 0, 84, 69
1, 318110, Note_on_c, 0, 72, 52
1, 318111, Note_off_c, 0, 84, 64
1, 318128, Note_on_c, 0, 82, 74
1, 318130, Note_off_c, 0, 72, 60
1, 318159, Note_off_c, 0, 63, 63
1, 318171, Note_off_c, 0, 82, 62
1, 318213, Note_on_c, 0, 81, 74
1, 318322, Note_off_c, 0, 81, 62
1, 318333, Note_on_c, 0, 44, 56
1, 318349, Note_on_c, 0, 80, 67
1, 318395, Control_c, 0, 64, 69
1, 318410, Control_c, 0, 64, 52
1, 318425, Control_c, 0, 64, 61
1, 318440, Control_c, 0, 64, 82
1, 318449, Note_off_c, 0, 80, 50
1, 318453, Note_on_c, 0, 79, 67
1, 318455, Control_c, 0, 64, 127
1, 318464, Note_off_c, 0, 44, 54
1, 318484, Note_on_c, 0, 52, 59
1, 318492, Note_off_c, 0, 79, 55
1, 318534, Note_on_c, 0, 71, 70
1, 318544, Note_off_c, 0, 52, 58
1, 318585, Note_off_c, 0, 71, 56
1, 318596, Note_on_c, 0, 72, 72
1, 318598, Note_on_c, 0, 61, 61
1, 318630, Note_off_c, 0, 61, 67
1, 318634, Note_off_c, 0, 72, 55
1, 318669, Note_on_c, 0, 73, 73
1, 318697, Note_off_c, 0, 73, 64
1, 318723, Note_on_c, 0, 74, 78
1, 318731, Note_on_c, 0, 58, 62
1, 318779, Note_off_c, 0, 74, 62
1, 318796, Note_on_c, 0, 75, 82
1, 318821, Note_on_c, 0, 67, 62
1, 318827, Note_off_c, 0, 58, 61
1, 318857, Note_off_c, 0, 75, 64
1, 318863, Note_on_c, 0, 78, 83
1, 318876, Note_on_c, 0, 73, 59
1, 318896, Note_off_c, 0, 73, 67
1, 318903, Note_off_c, 0, 67, 61
1, 318942, Note_on_c, 0, 76, 84
1, 318998, Note_off_c, 0, 76, 64
1, 319005, Note_off_c, 0, 78, 59
1, 319045, Note_on_c, 0, 44, 83
1, 319171, Note_on_c, 0, 49, 43
1, 319178, Note_on_c, 0, 51, 80
1, 319189, Control_c, 0, 64, 86
1, 319204, Control_c, 0, 64, 74
1, 319230, Note_off_c, 0, 44, 62
1, 319233, Control_c, 0, 64, 87
1, 319248, Control_c, 0, 64, 127
1, 319258, Note_off_c, 0, 49, 51
1, 319300, Note_off_c, 0, 51, 63
1, 319301, Note_on_c, 0, 75, 74
1, 319323, Note_on_c, 0, 60, 65
1, 319362, Note_off_c, 0, 60, 63
1, 319379, Note_on_c, 0, 77, 77
1, 319379, Note_off_c, 0, 75, 63
1, 319446, Note_on_c, 0, 56, 73
1, 319453, Note_off_c, 0, 77, 63
1, 319459, Note_on_c, 0, 75, 83
1, 319528, Note_off_c, 0, 75, 62
1, 319534, Note_on_c, 0, 74, 90
1, 319549, Note_on_c, 0, 63, 70
1, 319549, Note_off_c, 0, 56, 63
1, 319619, Note_on_c, 0, 75, 92
1, 319620, Note_off_c, 0, 74, 64
1, 319635, Note_on_c, 0, 72, 69
1, 319659, Note_off_c, 0, 72, 68
1, 319701, Note_off_c, 0, 63, 63
1, 319702, Note_on_c, 0, 77, 88
1, 319714, Note_off_c, 0, 75, 64
1, 319811, Note_off_c, 0, 77, 61
1, 319889, Note_on_c, 0, 78, 82
1, 319900, Note_on_c, 0, 39, 66
1, 319966, Control_c, 0, 64, 91
1, 319981, Control_c, 0, 64, 62
1, 319996, Control_c, 0, 64, 49
1, 320011, Control_c, 0, 64, 61
1, 320026, Control_c, 0, 64, 80
1, 320032, Note_on_c, 0, 90, 77
1, 320041, Control_c, 0, 64, 127
1, 320069, Note_on_c, 0, 46, 60
1, 320105, Note_off_c, 0, 39, 60
1, 320112, Note_off_c, 0, 78, 33
1, 320120, Note_on_c, 0, 44, 20
1, 320135, Note_on_c, 0, 89, 82
1, 320139, Note_off_c, 0, 90, 63
1, 320162, Note_off_c, 0, 44, 38
1, 320201, Note_off_c, 0, 46, 61
1, 320219, Note_on_c, 0, 88, 82
1, 320225, Note_on_c, 0, 54, 71
1, 320255, Note_off_c, 0, 89, 58
1, 320265, Note_off_c, 0, 54, 62
1, 320292, Note_on_c, 0, 87, 80
1, 320310, Note_off_c, 0, 88, 59
1, 320360, Note_on_c, 0, 85, 83
1, 320362, Note_off_c, 0, 87, 65
1, 320372, Note_on_c, 0, 51, 69
1, 320412, Note_off_c, 0, 85, 66
1, 320429, Note_on_c, 0, 84, 80
1, 320460, Note_off_c, 0, 51, 62
1, 320474, Note_on_c, 0, 56, 13
1, 320476, Note_on_c, 0, 58, 65
1, 320494, Note_off_c, 0, 84, 67
1, 320508, Note_on_c, 0, 82, 84
1, 320509, Note_on_c, 0, 66, 61
1, 320520, Note_off_c, 0, 56, 51
1, 320535, Note_off_c, 0, 58, 62
1, 320537, Note_off_c, 0, 66, 67
1, 320580, Note_on_c, 0, 80, 77
1, 320619, Note_off_c, 0, 82, 62
1, 320654, Note_on_c, 0, 41, 78
1, 320654, Note_on_c, 0, 78, 81
1, 320657, Control_c, 0, 64, 66
1, 320659, Note_off_c, 0, 80, 64
1, 320671, Control_c, 0, 64, 58
1, 320686, Control_c, 0, 64, 70
1, 320701, Control_c, 0, 64, 114
1, 320705, Note_off_c, 0, 78, 64
1, 320716, Control_c, 0, 64, 127
1, 320724, Note_on_c, 0, 77, 78
1, 320778, Note_on_c, 0, 48, 74
1, 320789, Note_off_c, 0, 41, 59
1, 320799, Note_on_c, 0, 76, 83
1, 320803, Note_on_c, 0, 46, 38
1, 320812, Note_off_c, 0, 77, 37
1, 320833, Note_off_c, 0, 46, 53
1, 320852, Note_off_c, 0, 48, 61
1, 320866, Note_on_c, 0, 75, 82
1, 320875, Note_on_c, 0, 57, 72
1, 320896, Note_off_c, 0, 76, 62
1, 320923, Note_off_c, 0, 57, 63
1, 320938, Note_on_c, 0, 73, 83
1, 320943, Note_off_c, 0, 75, 64
1, 320995, Note_on_c, 0, 53, 75
1, 321007, Note_on_c, 0, 71, 83
1, 321008, Note_off_c, 0, 73, 63
1, 321063, Note_off_c, 0, 53, 63
1, 321086, Note_off_c, 0, 71, 62
1, 321095, Note_on_c, 0, 72, 80
1, 321098, Note_on_c, 0, 61, 58
1, 321152, Note_on_c, 0, 69, 66
1, 321165, Note_off_c, 0, 72, 63
1, 321168, Note_on_c, 0, 75, 83
1, 321179, Note_off_c, 0, 69, 66
1, 321203, Note_off_c, 0, 61, 64
1, 321252, Note_on_c, 0, 73, 81
1, 321266, Note_off_c, 0, 75, 62
1, 321384, Note_on_c, 0, 34, 65
1, 321389, Note_on_c, 0, 72, 74
1, 321406, Note_off_c, 0, 73, 50
1, 321480, Control_c, 0, 64, 80
1, 321494, Control_c, 0, 64, 47
1, 321498, Note_on_c, 0, 41, 65
1, 321509, Control_c, 0, 64, 0
1, 321524, Control_c, 0, 64, 17
1, 321538, Control_c, 0, 64, 59
1, 321553, Control_c, 0, 64, 97
1, 321559, Note_off_c, 0, 34, 61
1, 321568, Control_c, 0, 64, 127
1, 321579, Note_off_c, 0, 72, 59
1, 321600, Note_off_c, 0, 41, 63
1, 321604, Note_on_c, 0, 70, 80
1, 321638, Note_on_c, 0, 49, 72
1, 321674, Note_off_c, 0, 49, 64
1, 321730, Note_off_c, 0, 70, 59
1, 321765, Note_on_c, 0, 46, 73
1, 321884, Note_on_c, 0, 53, 70
1, 321913, Note_off_c, 0, 46, 63
1, 322020, Note_on_c, 0, 61, 74
1, 322065, Note_off_c, 0, 53, 45
1, 322066, Note_off_c, 0, 61, 63
1, 322217, Note_on_c, 0, 42, 82
1, 322273, Control_c, 0, 64, 94
1, 322288, Control_c, 0, 64, 55
1, 322303, Control_c, 0, 64, 0
1, 322318, Control_c, 0, 64, 21
1, 322333, Control_c, 0, 64, 63
1, 322348, Control_c, 0, 64, 103
1, 322362, Control_c, 0, 64, 127
1, 322383, Note_on_c, 0, 49, 72
1, 322434, Note_off_c, 0, 42, 63
1, 322497, Note_on_c, 0, 73, 65
1, 322527, Note_off_c, 0, 49, 63
1, 322545, Note_on_c, 0, 58, 65
1, 322594, Note_off_c, 0, 58, 57
1, 322616, Note_off_c, 0, 73, 64
1, 322616, Note_on_c, 0, 75, 80
1, 322696, Note_on_c, 0, 54, 67
1, 322702, Note_off_c, 0, 75, 63
1, 322703, Note_on_c, 0, 73, 81
1, 322770, Note_off_c, 0, 73, 63
1, 322776, Note_off_c, 0, 54, 64
1, 322777, Note_on_c, 0, 72, 82
1, 322779, Note_on_c, 0, 61, 60
1, 322855, Note_on_c, 0, 70, 68
1, 322874, Note_on_c, 0, 73, 88
1, 322876, Note_off_c, 0, 72, 61
1, 322880, Note_off_c, 0, 70, 67
1, 322911, Note_off_c, 0, 61, 64
1, 322955, Note_on_c, 0, 75, 88
1, 322963, Note_off_c, 0, 73, 66
1, 323066, Note_off_c, 0, 75, 63
1, 323072, Note_on_c, 0, 37, 73
1, 323090, Note_on_c, 0, 77, 78
1, 323171, Control_c, 0, 64, 72
1, 323185, Control_c, 0, 64, 56
1, 323193, Note_on_c, 0, 89, 82
1, 323200, Control_c, 0, 64, 62
1, 323215, Control_c, 0, 64, 77
1, 323223, Note_on_c, 0, 44, 68
1, 323230, Control_c, 0, 64, 127
1, 323240, Note_off_c, 0, 37, 62
1, 323256, Note_off_c, 0, 77, 27
1, 323280, Note_on_c, 0, 84, 74
1, 323284, Note_off_c, 0, 89, 64
1, 323305, Note_off_c, 0, 44, 62
1, 323337, Note_on_c, 0, 53, 63
1, 323338, Note_off_c, 0, 84, 66
1, 323345, Note_on_c, 0, 87, 82
1, 323379, Note_off_c, 0, 53, 62
1, 323422, Note_on_c, 0, 85, 80
1, 323433, Note_off_c, 0, 87, 63
1, 323450, Note_on_c, 0, 49, 65
1, 323465, Note_off_c, 0, 85, 66
1, 323484, Note_on_c, 0, 80, 74
1, 323515, Note_off_c, 0, 80, 63
1, 323532, Note_off_c, 0, 49, 62
1, 323533, Note_on_c, 0, 56, 60
1, 323550, Note_on_c, 0, 76, 73
1, 323557, Note_on_c, 0, 77, 67
1, 323583, Note_off_c, 0, 77, 66
1, 323588, Note_off_c, 0, 76, 61
1, 323615, Note_on_c, 0, 65, 53
1, 323629, Note_on_c, 0, 75, 80
1, 323636, Note_off_c, 0, 65, 61
1, 323664, Note_off_c, 0, 56, 64
1, 323702, Note_on_c, 0, 73, 75
1, 323727, Note_off_c, 0, 75, 60
1, 323766, Note_off_c, 0, 73, 65
1, 323771, Note_on_c, 0, 39, 72
1, 323773, Note_on_c, 0, 71, 82
1, 323785, Control_c, 0, 64, 100
1, 323799, Control_c, 0, 64, 67
1, 323814, Control_c, 0, 64, 65
1, 323829, Control_c, 0, 64, 79
1, 323831, Note_off_c, 0, 71, 62
1, 323838, Note_on_c, 0, 73, 74
1, 323844, Control_c, 0, 64, 101
1, 323859, Control_c, 0, 64, 127
1, 323872, Note_on_c, 0, 47, 65
1, 323882, Note_off_c, 0, 39, 64
1, 323907, Note_off_c, 0, 73, 63
1, 323914, Note_on_c, 0, 71, 82
1, 323945, Note_on_c, 0, 54, 58
1, 323972, Note_off_c, 0, 71, 65
1, 323975, Note_on_c, 0, 70, 83
1, 323975, Note_off_c, 0, 47, 55
1, 323996, Note_off_c, 0, 54, 60
1, 324053, Note_off_c, 0, 70, 62
1, 324053, Note_on_c, 0, 72, 78
1, 324123, Note_on_c, 0, 40, 66
1, 324124, Note_on_c, 0, 75, 81
1, 324126, Note_off_c, 0, 72, 62
1, 324213, Note_off_c, 0, 40, 61
1, 324217, Note_on_c, 0, 49, 68
1, 324228, Note_off_c, 0, 75, 60
1, 324240, Note_on_c, 0, 69, 78
1, 324258, Control_c, 0, 64, 84
1, 324273, Control_c, 0, 64, 49
1, 324288, Control_c, 0, 64, 0
1, 324302, Note_off_c, 0, 69, 63
1, 324303, Control_c, 0, 64, 35
1, 324304, Note_on_c, 0, 72, 78
1, 324308, Note_on_c, 0, 55, 60
1, 324308, Note_off_c, 0, 49, 57
1, 324318, Control_c, 0, 64, 73
1, 324332, Control_c, 0, 64, 127
1, 324369, Note_off_c, 0, 72, 63
1, 324380, Note_on_c, 0, 70, 85
1, 324387, Note_off_c, 0, 55, 57
1, 324446, Note_off_c, 0, 70, 61
1, 324454, Note_on_c, 0, 41, 72
1, 324454, Note_on_c, 0, 69, 85
1, 324503, Control_c, 0, 64, 90
1, 324518, Control_c, 0, 64, 47
1, 324522, Note_on_c, 0, 72, 81
1, 324526, Note_off_c, 0, 69, 62
1, 324533, Note_off_c, 0, 41, 55
1, 324533, Control_c, 0, 64, 0
1, 324541, Note_on_c, 0, 48, 68
1, 324548, Control_c, 0, 64, 55
1, 324563, Control_c, 0, 64, 93
1, 324578, Control_c, 0, 64, 127
1, 324578, Note_on_c, 0, 76, 80
1, 324583, Note_off_c, 0, 72, 64
1, 324604, Note_off_c, 0, 48, 60
1, 324625, Note_on_c, 0, 57, 68
1, 324655, Note_off_c, 0, 76, 65
1, 324663, Note_on_c, 0, 78, 79
1, 324664, Note_off_c, 0, 57, 64
1, 324709, Note_off_c, 0, 78, 64
1, 324730, Note_on_c, 0, 77, 87
1, 324759, Note_on_c, 0, 53, 62
1, 324804, Note_off_c, 0, 77, 61
1, 324806, Note_on_c, 0, 79, 64
1, 324810, Note_on_c, 0, 81, 72
1, 324819, Note_off_c, 0, 53, 62
1, 324836, Note_on_c, 0, 60, 69
1, 324849, Note_off_c, 0, 81, 52
1, 324849, Note_off_c, 0, 79, 56
1, 324865, Note_on_c, 0, 84, 68
1, 324873, Note_on_c, 0, 83, 71
1, 324896, Note_off_c, 0, 83, 66
1, 324904, Note_off_c, 0, 60, 64
1, 324920, Note_off_c, 0, 84, 66
1, 324922, Note_on_c, 0, 69, 48
1, 324941, Note_on_c, 0, 77, 76
1, 324947, Note_off_c, 0, 69, 55
1, 325009, Note_on_c, 0, 89, 76
1, 325012, Note_off_c, 0, 77, 60
1, 325096, Note_on_c, 0, 88, 75
1, 325107, Note_on_c, 0, 41, 73
1, 325117, Note_off_c, 0, 89, 63
1, 325163, Control_c, 0, 64, 80
1, 325177, Note_off_c, 0, 88, 65
1, 325177, Note_on_c, 0, 84, 73
1, 325178, Control_c, 0, 64, 48
1, 325193, Control_c, 0, 64, 35
1, 325201, Note_off_c, 0, 41, 63
1, 325208, Control_c, 0, 64, 61
1, 325220, Note_on_c, 0, 49, 72
1, 325223, Control_c, 0, 64, 93
1, 325230, Note_off_c, 0, 84, 66
1, 325237, Control_c, 0, 64, 127
1, 325254, Note_on_c, 0, 46, 4
1, 325257, Note_on_c, 0, 87, 85
1, 325294, Note_off_c, 0, 49, 63
1, 325302, Note_off_c, 0, 46, 27
1, 325328, Note_on_c, 0, 85, 86
1, 325334, Note_on_c, 0, 58, 61
1, 325344, Note_off_c, 0, 87, 62
1, 325355, Note_off_c, 0, 58, 62
1, 325385, Note_on_c, 0, 82, 83
1, 325389, Note_off_c, 0, 85, 65
1, 325425, Note_on_c, 0, 53, 72
1, 325425, Note_off_c, 0, 82, 67
1, 325446, Note_on_c, 0, 79, 84
1, 325460, Note_off_c, 0, 53, 65
1, 325487, Note_off_c, 0, 79, 65
1, 325490, Note_on_c, 0, 61, 65
1, 325527, Note_on_c, 0, 76, 84
1, 325554, Note_on_c, 0, 69, 60
1, 325565, Note_off_c, 0, 61, 58
1, 325580, Note_off_c, 0, 69, 65
1, 325592, Note_on_c, 0, 73, 83
1, 325602, Note_off_c, 0, 76, 63
1, 325657, Note_off_c, 0, 73, 64
1, 325659, Note_on_c, 0, 70, 87
1, 325697, Note_on_c, 0, 41, 77
1, 325725, Note_off_c, 0, 70, 60
1, 325726, Note_on_c, 0, 69, 77
1, 325728, Control_c, 0, 64, 66
1, 325743, Control_c, 0, 64, 0
1, 325758, Control_c, 0, 64, 41
1, 325772, Control_c, 0, 64, 72
1, 325787, Control_c, 0, 64, 106
1, 325794, Note_on_c, 0, 72, 86
1, 325794, Note_off_c, 0, 69, 63
1, 325796, Note_on_c, 0, 49, 34
1, 325802, Control_c, 0, 64, 127
1, 325812, Note_on_c, 0, 48, 73
1, 325820, Note_off_c, 0, 41, 61
1, 325831, Note_on_c, 0, 46, 31
1, 325856, Note_on_c, 0, 76, 83
1, 325859, Note_off_c, 0, 72, 61
1, 325873, Note_off_c, 0, 46, 41
1, 325892, Note_off_c, 0, 48, 60
1, 325901, Note_on_c, 0, 57, 69
1, 325920, Note_off_c, 0, 49, 22
1, 325925, Note_off_c, 0, 76, 65
1, 325929, Note_on_c, 0, 78, 87
1, 325929, Note_off_c, 0, 57, 67
1, 325976, Note_off_c, 0, 78, 63
1, 325990, Note_on_c, 0, 77, 89
1, 326032, Note_on_c, 0, 53, 68
1, 326057, Note_off_c, 0, 77, 63
1, 326069, Note_on_c, 0, 81, 76
1, 326077, Note_off_c, 0, 53, 59
1, 326078, Note_on_c, 0, 83, 80
1, 326092, Note_on_c, 0, 61, 43
1, 326107, Note_on_c, 0, 60, 67
1, 326110, Note_off_c, 0, 81, 65
1, 326112, Note_off_c, 0, 83, 56
1, 326139, Note_on_c, 0, 86, 67
1, 326145, Note_on_c, 0, 84, 51
1, 326154, Note_off_c, 0, 86, 67
1, 326163, Note_off_c, 0, 84, 64
1, 326183, Note_off_c, 0, 60, 58
1, 326187, Note_on_c, 0, 69, 65
1, 326204, Note_on_c, 0, 89, 88
1, 326212, Note_off_c, 0, 61, 40
1, 326272, Note_on_c, 0, 101, 91
1, 326281, Note_off_c, 0, 69, 58
1, 326284, Note_off_c, 0, 89, 59
1, 326354, Note_on_c, 0, 100, 79
1, 326381, Note_off_c, 0, 101, 64
1, 326381, Note_on_c, 0, 53, 80
1, 326423, Note_on_c, 0, 96, 86
1, 326431, Note_off_c, 0, 100, 65
1, 326446, Control_c, 0, 64, 76
1, 326461, Control_c, 0, 64, 32
1, 326476, Control_c, 0, 64, 32
1, 326482, Note_off_c, 0, 96, 65
1, 326485, Note_off_c, 0, 53, 62
1, 326491, Control_c, 0, 64, 65
1, 326493, Note_on_c, 0, 61, 72
1, 326505, Note_on_c, 0, 99, 90
1, 326506, Control_c, 0, 64, 122
1, 326520, Control_c, 0, 64, 127
1, 326573, Note_on_c, 0, 97, 94
1, 326587, Note_off_c, 0, 61, 65
1, 326610, Note_off_c, 0, 99, 66
1, 326613, Note_on_c, 0, 70, 78
1, 326642, Note_on_c, 0, 94, 85
1, 326643, Note_off_c, 0, 70, 62
1, 326649, Note_off_c, 0, 97, 67
1, 326691, Note_off_c, 0, 94, 67
1, 326700, Note_on_c, 0, 91, 87
1, 326718, Note_on_c, 0, 64, 74
1, 326748, Note_off_c, 0, 91, 66
1, 326759, Note_off_c, 0, 64, 58
1, 326784, Note_on_c, 0, 88, 83
1, 326793, Note_on_c, 0, 73, 64
1, 326848, Note_on_c, 0, 85, 82
1, 326848, Note_off_c, 0, 73, 56
1, 326854, Note_off_c, 0, 88, 64
1, 326876, Note_on_c, 0, 79, 44
1, 326913, Note_off_c, 0, 79, 47
1, 326918, Note_on_c, 0, 82, 81
1, 326918, Note_off_c, 0, 85, 64
1, 326980, Note_off_c, 0, 82, 64
1, 326989, Note_on_c, 0, 81, 85
1, 326990, Note_on_c, 0, 72, 65
1, 327008, Note_on_c, 0, 65, 57
1, 327032, Control_c, 0, 64, 97
1, 327047, Control_c, 0, 64, 60
1, 327057, Note_on_c, 0, 84, 74
1, 327057, Note_off_c, 0, 81, 64
1, 327062, Control_c, 0, 64, 0
1, 327076, Control_c, 0, 64, 37
1, 327091, Control_c, 0, 64, 65
1, 327106, Control_c, 0, 64, 74
1, 327111, Note_off_c, 0, 84, 65
1, 327121, Control_c, 0, 64, 86
1, 327124, Note_on_c, 0, 87, 80
1, 327136, Control_c, 0, 64, 106
1, 327150, Control_c, 0, 64, 127
1, 327166, Note_off_c, 0, 87, 59
1, 327191, Note_on_c, 0, 89, 82
1, 327210, Note_off_c, 0, 65, 60
1, 327234, Note_off_c, 0, 89, 64
1, 327239, Note_off_c, 0, 72, 61
1, 327245, Note_on_c, 0, 92, 85
1, 327312, Note_on_c, 0, 90, 80
1, 327335, Note_off_c, 0, 92, 61
1, 327368, Note_on_c, 0, 87, 81
1, 327375, Note_off_c, 0, 90, 66
1, 327406, Note_off_c, 0, 87, 66
1, 327433, Note_on_c, 0, 84, 79
1, 327472, Note_off_c, 0, 84, 61
1, 327510, Note_on_c, 0, 81, 71
1, 327567, Note_off_c, 0, 81, 62
1, 327577, Note_on_c, 0, 79, 57
1, 327609, Note_off_c, 0, 79, 65
1, 327609, Note_on_c, 0, 78, 24
1, 327610, Note_off_c, 0, 78, 127
1, 327647, Note_on_c, 0, 76, 51
1, 327671, Note_off_c, 0, 76, 58
1, 327706, Note_on_c, 0, 72, 67
1, 327737, Note_off_c, 0, 72, 63
1, 327758, Note_on_c, 0, 60, 60
1, 327779, Note_on_c, 0, 69, 58
1, 327811, Control_c, 0, 64, 113
1, 327815, Note_off_c, 0, 69, 62
1, 327824, Note_off_c, 0, 60, 63
1, 327825, Control_c, 0, 64, 66
1, 327840, Control_c, 0, 64, 50
1, 327848, Note_on_c, 0, 61, 56
1, 327851, Note_on_c, 0, 70, 65
1, 327855, Control_c, 0, 64, 57
1, 327870, Control_c, 0, 64, 72
1, 327885, Control_c, 0, 64, 127
1, 327893, Note_off_c, 0, 61, 61
1, 327895, Note_off_c, 0, 70, 61
1, 327908, Note_on_c, 0, 62, 53
1, 327910, Note_on_c, 0, 71, 72
1, 327946, Note_off_c, 0, 62, 54
1, 327964, Note_off_c, 0, 71, 63
1, 327972, Note_on_c, 0, 72, 73
1, 328009, Note_on_c, 0, 63, 23
1, 328015, Note_on_c, 0, 64, 55
1, 328033, Note_on_c, 0, 61, 50
1, 328034, Note_off_c, 0, 72, 58
1, 328050, Note_off_c, 0, 63, 39
1, 328057, Note_off_c, 0, 64, 58
1, 328064, Note_on_c, 0, 73, 64
1, 328074, Note_off_c, 0, 61, 60
1, 328107, Note_off_c, 0, 73, 62
1, 328107, Note_on_c, 0, 70, 71
1, 328169, Note_off_c, 0, 70, 61
1, 328205, Note_on_c, 0, 69, 55
1, 328214, Note_on_c, 0, 60, 59
1, 328217, Note_on_c, 0, 65, 49
1, 328218, Control_c, 0, 64, 76
1, 328232, Control_c, 0, 64, 53
1, 328247, Control_c, 0, 64, 15
1, 328255, Note_off_c, 0, 69, 61
1, 328262, Control_c, 0, 64, 33
1, 328268, Note_on_c, 0, 72, 64
1, 328277, Control_c, 0, 64, 62
1, 328291, Note_off_c, 0, 60, 59
1, 328292, Control_c, 0, 64, 101
1, 328307, Control_c, 0, 64, 127
1, 328309, Note_off_c, 0, 72, 55
1, 328342, Note_on_c, 0, 75, 69
1, 328386, Note_off_c, 0, 75, 58
1, 328404, Note_off_c, 0, 65, 36
1, 328429, Note_on_c, 0, 77, 70
1, 328458, Note_on_c, 0, 53, 52
1, 328459, Note_on_c, 0, 63, 47
1, 328471, Note_off_c, 0, 77, 54
1, 328471, Control_c, 0, 64, 97
1, 328486, Control_c, 0, 64, 67
1, 328500, Control_c, 0, 64, 53
1, 328507, Note_on_c, 0, 80, 62
1, 328515, Control_c, 0, 64, 60
1, 328530, Control_c, 0, 64, 75
1, 328545, Control_c, 0, 64, 127
1, 328578, Note_on_c, 0, 78, 66
1, 328578, Note_off_c, 0, 80, 59
1, 328612, Note_off_c, 0, 53, 53
1, 328625, Note_off_c, 0, 78, 61
1, 328630, Note_on_c, 0, 75, 65
1, 328637, Note_off_c, 0, 63, 38
1, 328654, Note_off_c, 0, 75, 69
1, 328697, Note_on_c, 0, 72, 69
1, 328724, Note_off_c, 0, 72, 64
1, 328787, Note_on_c, 0, 69, 62
1, 328818, Note_off_c, 0, 69, 64
1, 328864, Note_on_c, 0, 66, 61
1, 328924, Note_off_c, 0, 66, 61
1, 328934, Note_on_c, 0, 63, 67
1, 328980, Note_off_c, 0, 63, 60
1, 329025, Note_on_c, 0, 60, 68
1, 329083, Note_off_c, 0, 60, 59
1, 329112, Note_on_c, 0, 48, 52
1, 329122, Note_on_c, 0, 57, 46
1, 329167, Note_off_c, 0, 57, 64
1, 329174, Control_c, 0, 64, 105
1, 329186, Note_off_c, 0, 48, 57
1, 329189, Control_c, 0, 64, 67
1, 329190, Note_on_c, 0, 58, 64
1, 329196, Note_on_c, 0, 49, 58
1, 329204, Control_c, 0, 64, 41
1, 329219, Control_c, 0, 64, 29
1, 329234, Control_c, 0, 64, 54
1, 329239, Note_off_c, 0, 58, 59
1, 329242, Note_off_c, 0, 49, 64
1, 329249, Control_c, 0, 64, 72
1, 329264, Control_c, 0, 64, 107
1, 329269, Note_on_c, 0, 50, 44
1, 329269, Note_on_c, 0, 59, 68
1, 329279, Control_c, 0, 64, 127
1, 329308, Note_off_c, 0, 50, 58
1, 329327, Note_off_c, 0, 59, 62
1, 329341, Note_on_c, 0, 60, 61
1, 329347, Note_on_c, 0, 52, 46
1, 329363, Note_on_c, 0, 49, 56
1, 329386, Note_off_c, 0, 52, 66
1, 329396, Note_off_c, 0, 49, 63
1, 329418, Note_off_c, 0, 60, 52
1, 329436, Note_on_c, 0, 61, 56
1, 329471, Note_off_c, 0, 61, 64
1, 329483, Note_on_c, 0, 58, 57
1, 329532, Control_c, 0, 64, 78
1, 329536, Note_on_c, 0, 53, 30
1, 329546, Note_off_c, 0, 58, 60
1, 329546, Control_c, 0, 64, 55
1, 329560, Note_on_c, 0, 41, 50
1, 329561, Control_c, 0, 64, 0
1, 329574, Note_on_c, 0, 57, 57
1, 329597, Control_c, 0, 64, 26
1, 329612, Control_c, 0, 64, 58
1, 329627, Note_off_c, 0, 57, 61
1, 329627, Control_c, 0, 64, 75
1, 329635, Note_off_c, 0, 41, 57
1, 329642, Control_c, 0, 64, 94
1, 329657, Control_c, 0, 64, 127
1, 329666, Note_on_c, 0, 58, 56
1, 329691, Note_off_c, 0, 53, 43
1, 329716, Note_off_c, 0, 58, 56
1, 329740, Note_on_c, 0, 59, 65
1, 329780, Note_on_c, 0, 49, 53
1, 329780, Note_on_c, 0, 60, 47
1, 329784, Note_off_c, 0, 59, 56
1, 329785, Note_on_c, 0, 52, 43
1, 329791, Control_c, 0, 64, 118
1, 329805, Control_c, 0, 64, 72
1, 329820, Control_c, 0, 64, 46
1, 329835, Control_c, 0, 64, 34
1, 329842, Note_off_c, 0, 52, 59
1, 329848, Note_off_c, 0, 49, 57
1, 329850, Control_c, 0, 64, 55
1, 329851, Note_off_c, 0, 60, 60
1, 329865, Control_c, 0, 64, 76
1, 329866, Note_on_c, 0, 61, 56
1, 329879, Control_c, 0, 64, 127
1, 329904, Note_off_c, 0, 61, 62
1, 329930, Note_on_c, 0, 58, 61
1, 329981, Note_off_c, 0, 58, 60
1, 329995, Note_on_c, 0, 48, 58
1, 329997, Note_on_c, 0, 53, 48
1, 330003, Note_on_c, 0, 57, 65
1, 330027, Control_c, 0, 64, 78
1, 330039, Note_off_c, 0, 57, 65
1, 330042, Control_c, 0, 64, 56
1, 330057, Control_c, 0, 64, 39
1, 330073, Control_c, 0, 64, 54
1, 330083, Note_on_c, 0, 58, 47
1, 330087, Control_c, 0, 64, 72
1, 330101, Control_c, 0, 64, 127
1, 330110, Note_off_c, 0, 48, 48
1, 330126, Note_off_c, 0, 58, 61
1, 330142, Note_on_c, 0, 59, 71
1, 330142, Note_off_c, 0, 53, 34
1, 330185, Note_off_c, 0, 59, 64
1, 330201, Note_on_c, 0, 60, 57
1, 330205, Control_c, 0, 64, 95
1, 330210, Note_on_c, 0, 52, 54
1, 330211, Note_on_c, 0, 49, 53
1, 330220, Control_c, 0, 64, 65
1, 330235, Control_c, 0, 64, 55
1, 330250, Control_c, 0, 64, 67
1, 330256, Note_off_c, 0, 60, 61
1, 330257, Note_off_c, 0, 49, 55
1, 330260, Note_off_c, 0, 52, 59
1, 330262, Note_on_c, 0, 61, 64
1, 330265, Control_c, 0, 64, 88
1, 330280, Control_c, 0, 64, 127
1, 330313, Note_off_c, 0, 61, 60
1, 330325, Note_on_c, 0, 58, 67
1, 330387, Note_off_c, 0, 58, 61
1, 330401, Note_on_c, 0, 57, 73
1, 330416, Note_on_c, 0, 53, 44
1, 330417, Note_on_c, 0, 48, 55
1, 330420, Control_c, 0, 64, 70
1, 330435, Control_c, 0, 64, 46
1, 330441, Note_off_c, 0, 57, 65
1, 330450, Control_c, 0, 64, 51
1, 330465, Control_c, 0, 64, 68
1, 330480, Control_c, 0, 64, 95
1, 330485, Note_off_c, 0, 53, 53
1, 330486, Note_on_c, 0, 58, 41
1, 330494, Control_c, 0, 64, 127
1, 330518, Note_off_c, 0, 58, 54
1, 330533, Note_on_c, 0, 59, 74
1, 330539, Note_off_c, 0, 48, 32
1, 330591, Note_off_c, 0, 59, 63
1, 330617, Note_on_c, 0, 60, 63
1, 330642, Control_c, 0, 64, 92
1, 330649, Note_on_c, 0, 49, 52
1, 330657, Control_c, 0, 64, 62
1, 330665, Note_on_c, 0, 52, 40
1, 330672, Control_c, 0, 64, 26
1, 330686, Control_c, 0, 64, 10
1, 330688, Note_off_c, 0, 60, 55
1, 330701, Control_c, 0, 64, 51
1, 330706, Note_on_c, 0, 61, 61
1, 330706, Note_off_c, 0, 52, 49
1, 330716, Control_c, 0, 64, 73
1, 330731, Control_c, 0, 64, 116
1, 330745, Control_c, 0, 64, 127
1, 330771, Note_off_c, 0, 61, 57
1, 330774, Note_off_c, 0, 49, 29
1, 330791, Note_on_c, 0, 58, 54
1, 330883, Note_off_c, 0, 58, 57
1, 330908, Note_on_c, 0, 51, 43
1, 330917, Note_on_c, 0, 57, 55
1, 330936, Note_on_c, 0, 41, 47
1, 330954, Control_c, 0, 64, 88
1, 330969, Control_c, 0, 64, 64
1, 330984, Control_c, 0, 64, 31
1, 330998, Control_c, 0, 64, 0
1, 331009, Note_off_c, 0, 57, 59
1, 331028, Control_c, 0, 64, 44
1, 331037, Note_on_c, 0, 60, 44
1, 331043, Control_c, 0, 64, 70
1, 331058, Control_c, 0, 64, 96
1, 331073, Control_c, 0, 64, 127
1, 331092, Note_off_c, 0, 60, 61
1, 331112, Note_off_c, 0, 41, 53
1, 331138, Note_on_c, 0, 63, 50
1, 331162, Note_off_c, 0, 51, 32
1, 331175, Note_off_c, 0, 63, 64
1, 331250, Note_on_c, 0, 65, 42
1, 331288, Note_off_c, 0, 65, 49
1, 331323, Note_on_c, 0, 72, 58
1, 331368, Note_off_c, 0, 72, 54
1, 331408, Note_on_c, 0, 68, 58
1, 331460, Note_off_c, 0, 68, 61
1, 331488, Note_on_c, 0, 67, 58
1, 331532, Note_off_c, 0, 67, 57
1, 331561, Note_on_c, 0, 66, 57
1, 331603, Note_off_c, 0, 66, 61
1, 331614, Control_c, 0, 64, 109
1, 331627, Note_on_c, 0, 65, 63
1, 331629, Control_c, 0, 64, 99
1, 331643, Control_c, 0, 64, 92
1, 331658, Note_off_c, 0, 65, 67
1, 331658, Control_c, 0, 64, 88
1, 331674, Control_c, 0, 64, 84
1, 331681, Note_on_c, 0, 64, 69
1, 331689, Control_c, 0, 64, 81
1, 331704, Control_c, 0, 64, 78
1, 331719, Control_c, 0, 64, 76
1, 331734, Control_c, 0, 64, 75
1, 331737, Note_off_c, 0, 64, 63
1, 331748, Control_c, 0, 64, 74
1, 331763, Control_c, 0, 64, 72
1, 331769, Note_on_c, 0, 63, 54
1, 331778, Control_c, 0, 64, 70
1, 331791, Note_off_c, 0, 63, 60
1, 331792, Control_c, 0, 64, 68
1, 331807, Control_c, 0, 64, 66
1, 331821, Note_on_c, 0, 62, 67
1, 331822, Control_c, 0, 64, 65
1, 331845, Control_c, 0, 64, 63
1, 331860, Control_c, 0, 64, 60
1, 331865, Note_off_c, 0, 62, 64
1, 331874, Control_c, 0, 64, 57
1, 331885, Note_on_c, 0, 61, 64
1, 331889, Control_c, 0, 64, 56
1, 331904, Control_c, 0, 64, 56
1, 331917, Note_off_c, 0, 61, 66
1, 331919, Control_c, 0, 64, 54
1, 331934, Control_c, 0, 64, 50
1, 331943, Note_on_c, 0, 60, 59
1, 331948, Control_c, 0, 64, 44
1, 331963, Control_c, 0, 64, 33
1, 331971, Note_off_c, 0, 60, 66
1, 331978, Control_c, 0, 64, 22
1, 331991, Note_on_c, 0, 59, 67
1, 331992, Control_c, 0, 64, 0
1, 332043, Note_off_c, 0, 59, 63
1, 332075, Note_on_c, 0, 58, 53
1, 332100, Note_off_c, 0, 58, 62
1, 332126, Note_on_c, 0, 57, 66
1, 332159, Note_off_c, 0, 57, 68
1, 332191, Note_on_c, 0, 56, 57
1, 332224, Note_off_c, 0, 56, 65
1, 332239, Note_on_c, 0, 55, 68
1, 332276, Note_off_c, 0, 55, 62
1, 332300, Note_on_c, 0, 54, 60
1, 332336, Note_off_c, 0, 54, 66
1, 332350, Note_on_c, 0, 53, 66
1, 332382, Note_off_c, 0, 53, 65
1, 332403, Note_on_c, 0, 52, 65
1, 332463, Note_off_c, 0, 52, 63
1, 332490, Note_on_c, 0, 51, 58
1, 332525, Note_off_c, 0, 51, 64
1, 332550, Note_on_c, 0, 50, 63
1, 332598, Note_off_c, 0, 50, 65
1, 332617, Note_on_c, 0, 49, 65
1, 332668, Note_off_c, 0, 49, 55
1, 332694, Note_on_c, 0, 48, 47
1, 332721, Note_off_c, 0, 48, 54
1, 332738, Note_on_c, 0, 47, 64
1, 332806, Note_off_c, 0, 47, 59
1, 332823, Note_on_c, 0, 46, 55
1, 332869, Note_off_c, 0, 46, 65
1, 332888, Note_on_c, 0, 45, 62
1, 332939, Note_off_c, 0, 45, 59
1, 332970, Note_on_c, 0, 44, 61
1, 333019, Note_off_c, 0, 44, 60
1, 333053, Note_on_c, 0, 43, 56
1, 333067, Control_c, 0, 64, 36
1, 333082, Control_c, 0, 64, 57
1, 333097, Control_c, 0, 64, 65
1, 333110, Note_off_c, 0, 43, 57
1, 333112, Control_c, 0, 64, 66
1, 333124, Note_on_c, 0, 42, 62
1, 333141, Control_c, 0, 64, 65
1, 333156, Control_c, 0, 64, 63
1, 333171, Control_c, 0, 64, 54
1, 333185, Note_off_c, 0, 42, 56
1, 333186, Control_c, 0, 64, 21
1, 333201, Control_c, 0, 64, 0
1, 333216, Note_on_c, 0, 41, 54
1, 333255, Note_off_c, 0, 41, 64
1, 333276, Control_c, 0, 64, 34
1, 333291, Control_c, 0, 64, 61
1, 333306, Control_c, 0, 64, 69
1, 333306, Note_on_c, 0, 40, 57
1, 333320, Control_c, 0, 64, 72
1, 333357, Control_c, 0, 64, 70
1, 333371, Note_off_c, 0, 40, 56
1, 333371, Control_c, 0, 64, 65
1, 333386, Control_c, 0, 64, 53
1, 333401, Note_on_c, 0, 39, 54
1, 333401, Control_c, 0, 64, 0
1, 333470, Note_off_c, 0, 39, 58
1, 333476, Control_c, 0, 64, 29
1, 333487, Note_on_c, 0, 38, 56
1, 333490, Control_c, 0, 64, 50
1, 333505, Control_c, 0, 64, 65
1, 333520, Control_c, 0, 64, 78
1, 333534, Note_off_c, 0, 38, 60
1, 333535, Control_c, 0, 64, 101
1, 333550, Control_c, 0, 64, 127
1, 333740, Note_on_c, 0, 37, 46
1, 333816, Control_c, 0, 64, 86
1, 333831, Control_c, 0, 64, 65
1, 333845, Control_c, 0, 64, 37
1, 333860, Control_c, 0, 64, 0
1, 333869, Note_off_c, 0, 37, 55
1, 333884, Note_on_c, 0, 44, 48
1, 333920, Control_c, 0, 64, 40
1, 333935, Control_c, 0, 64, 61
1, 333950, Control_c, 0, 64, 72
1, 333961, Note_on_c, 0, 46, 46
1, 333964, Control_c, 0, 64, 92
1, 333979, Control_c, 0, 64, 127
1, 334024, Note_off_c, 0, 46, 61
1, 334037, Note_off_c, 0, 44, 28
1, 334060, Note_on_c, 0, 48, 52
1, 334113, Note_off_c, 0, 48, 56
1, 334140, Note_on_c, 0, 49, 57
1, 334209, Control_c, 0, 64, 74
1, 334224, Control_c, 0, 64, 65
1, 334233, Note_off_c, 0, 49, 60
1, 334235, Note_on_c, 0, 51, 48
1, 334239, Control_c, 0, 64, 67
1, 334254, Control_c, 0, 64, 82
1, 334268, Control_c, 0, 64, 127
1, 334299, Note_off_c, 0, 51, 59
1, 334300, Note_on_c, 0, 77, 65
1, 334305, Note_on_c, 0, 65, 48
1, 334309, Note_on_c, 0, 68, 50
1, 334366, Note_on_c, 0, 53, 43
1, 334415, Note_off_c, 0, 53, 42
1, 334439, Note_off_c, 0, 68, 54
1, 334451, Note_on_c, 0, 54, 61
1, 334465, Note_off_c, 0, 65, 39
1, 334473, Note_off_c, 0, 77, 49
1, 334565, Note_off_c, 0, 54, 56
1, 334579, Note_on_c, 0, 56, 49
1, 334608, Note_on_c, 0, 77, 77
1, 334616, Note_on_c, 0, 65, 54
1, 334620, Note_on_c, 0, 68, 56
1, 334652, Note_off_c, 0, 56, 60
1, 334670, Note_on_c, 0, 58, 51
1, 334698, Control_c, 0, 64, 88
1, 334712, Control_c, 0, 64, 57
1, 334727, Control_c, 0, 64, 0
1, 334742, Note_off_c, 0, 58, 60
1, 334772, Control_c, 0, 64, 48
1, 334782, Note_on_c, 0, 56, 48
1, 334786, Control_c, 0, 64, 69
1, 334801, Control_c, 0, 64, 102
1, 334816, Control_c, 0, 64, 127
1, 334842, Note_off_c, 0, 56, 60
1, 334852, Note_on_c, 0, 58, 49
1, 334869, Note_off_c, 0, 65, 34
1, 334893, Note_off_c, 0, 58, 65
1, 334915, Note_on_c, 0, 60, 50
1, 334957, Note_off_c, 0, 60, 47
1, 335008, Note_on_c, 0, 61, 60
1, 335066, Note_off_c, 0, 61, 59
1, 335070, Note_on_c, 0, 63, 60
1, 335112, Note_off_c, 0, 63, 57
1, 335148, Note_on_c, 0, 65, 64
1, 335188, Note_off_c, 0, 65, 63
1, 335460, Note_on_c, 0, 73, 65
1, 335467, Note_on_c, 0, 37, 55
1, 335470, Note_on_c, 0, 65, 48
1, 335521, Control_c, 0, 64, 70
1, 335535, Control_c, 0, 64, 47
1, 335550, Control_c, 0, 64, 0
1, 335560, Note_off_c, 0, 68, 0
1, 335565, Note_off_c, 0, 77, 52
1, 335565, Control_c, 0, 64, 25
1, 335588, Control_c, 0, 64, 60
1, 335603, Control_c, 0, 64, 85
1, 335605, Poly_aftertouch_c, 0, 68, 127
1, 335608, Note_off_c, 0, 37, 58
1, 335617, Control_c, 0, 64, 127
1, 335618, Note_on_c, 0, 44, 59
1, 335661, Poly_aftertouch_c, 0, 68, 0
1, 335681, Note_on_c, 0, 46, 54
1, 335687, Note_off_c, 0, 44, 58
1, 335718, Note_off_c, 0, 65, 60
1, 335723, Note_off_c, 0, 46, 63
1, 335758, Note_on_c, 0, 48, 53
1, 335789, Note_off_c, 0, 48, 61
1, 335828, Note_on_c, 0, 49, 58
1, 335882, Note_off_c, 0, 49, 56
1, 335901, Note_on_c, 0, 51, 59
1, 335935, Note_off_c, 0, 51, 64
1, 335950, Note_on_c, 0, 70, 77
1, 335976, Note_on_c, 0, 65, 53
1, 336007, Note_on_c, 0, 53, 34
1, 336023, Note_off_c, 0, 73, 63
1, 336033, Note_off_c, 0, 65, 60
1, 336042, Note_off_c, 0, 53, 42
1, 336084, Note_on_c, 0, 54, 54
1, 336121, Note_off_c, 0, 70, 61
1, 336194, Note_off_c, 0, 54, 55
1, 336198, Note_on_c, 0, 56, 51
1, 336246, Note_on_c, 0, 70, 74
1, 336257, Note_on_c, 0, 60, 55
1, 336269, Note_on_c, 0, 66, 49
1, 336284, Note_off_c, 0, 56, 62
1, 336309, Note_on_c, 0, 58, 55
1, 336337, Control_c, 0, 64, 76
1, 336352, Control_c, 0, 64, 54
1, 336366, Control_c, 0, 64, 55
1, 336375, Note_off_c, 0, 60, 52
1, 336381, Control_c, 0, 64, 71
1, 336388, Note_off_c, 0, 58, 61
1, 336396, Control_c, 0, 64, 127
1, 336418, Note_on_c, 0, 56, 59
1, 336470, Note_off_c, 0, 66, 57
1, 336475, Note_off_c, 0, 56, 62
1, 336483, Note_on_c, 0, 58, 60
1, 336510, Note_off_c, 0, 58, 65
1, 336526, Note_on_c, 0, 60, 61
1, 336589, Control_c, 0, 64, 79
1, 336593, Note_off_c, 0, 60, 59
1, 336604, Control_c, 0, 64, 85
1, 336616, Note_on_c, 0, 61, 65
1, 336619, Control_c, 0, 64, 127
1, 336647, Note_off_c, 0, 61, 67
1, 336665, Note_on_c, 0, 63, 55
1, 336697, Note_off_c, 0, 63, 66
1, 336735, Note_on_c, 0, 68, 82
1, 336737, Note_on_c, 0, 65, 50
1, 336790, Note_on_c, 0, 66, 63
1, 336797, Note_off_c, 0, 65, 62
1, 336814, Note_off_c, 0, 66, 69
1, 336831, Note_off_c, 0, 70, 56
1, 336911, Note_off_c, 0, 68, 60
1, 337037, Note_on_c, 0, 68, 73
1, 337044, Note_on_c, 0, 66, 60
1, 337044, Note_on_c, 0, 37, 66
1, 337115, Control_c, 0, 64, 111
1, 337130, Control_c, 0, 64, 65
1, 337145, Control_c, 0, 64, 30
1, 337160, Control_c, 0, 64, 0
1, 337175, Note_off_c, 0, 37, 61
1, 337175, Control_c, 0, 64, 52
1, 337182, Note_on_c, 0, 44, 59
1, 337189, Control_c, 0, 64, 74
1, 337204, Control_c, 0, 64, 127
1, 337225, Note_on_c, 0, 46, 56
1, 337233, Note_off_c, 0, 44, 55
1, 337269, Note_off_c, 0, 46, 61
1, 337279, Note_off_c, 0, 68, 63
1, 337282, Note_off_c, 0, 66, 60
1, 337300, Note_on_c, 0, 65, 69
1, 337304, Note_on_c, 0, 48, 65
1, 337331, Note_off_c, 0, 65, 64
1, 337336, Note_off_c, 0, 48, 63
1, 337365, Note_on_c, 0, 49, 65
1, 337416, Note_off_c, 0, 49, 60
1, 337418, Note_on_c, 0, 51, 70
1, 337443, Note_on_c, 0, 63, 57
1, 337460, Note_off_c, 0, 51, 63
1, 337484, Note_on_c, 0, 68, 67
1, 337491, Note_off_c, 0, 63, 60
1, 337500, Note_on_c, 0, 53, 68
1, 337536, Note_on_c, 0, 73, 47
1, 337546, Note_off_c, 0, 53, 54
1, 337552, Note_on_c, 0, 77, 86
1, 337557, Note_on_c, 0, 78, 69
1, 337574, Note_off_c, 0, 78, 67
1, 337577, Note_off_c, 0, 73, 63
1, 337578, Note_off_c, 0, 68, 64
1, 337583, Note_on_c, 0, 54, 68
1, 337658, Note_off_c, 0, 77, 61
1, 337660, Note_on_c, 0, 56, 70
1, 337667, Note_off_c, 0, 54, 60
1, 337725, Note_off_c, 0, 56, 62
1, 337730, Note_on_c, 0, 58, 71
1, 337756, Poly_aftertouch_c, 0, 71, 127
1, 337781, Note_on_c, 0, 73, 86
1, 337787, Note_on_c, 0, 61, 77
1, 337793, Note_on_c, 0, 68, 72
1, 337810, Note_off_c, 0, 58, 61
1, 337812, Control_c, 0, 64, 77
1, 337834, Control_c, 0, 64, 45
1, 337847, Note_on_c, 0, 56, 59
1, 337849, Control_c, 0, 64, 0
1, 337863, Control_c, 0, 64, 21
1, 337878, Control_c, 0, 64, 63
1, 337893, Control_c, 0, 64, 107
1, 337895, Note_off_c, 0, 61, 63
1, 337899, Note_on_c, 0, 58, 62
1, 337904, Note_off_c, 0, 56, 62
1, 337908, Control_c, 0, 64, 127
1, 337932, Note_off_c, 0, 58, 65
1, 337941, Note_on_c, 0, 59, 74
1, 337962, Note_off_c, 0, 68, 62
1, 337995, Poly_aftertouch_c, 0, 71, 0
1, 337998, Note_off_c, 0, 59, 64
1, 338012, Note_off_c, 0, 73, 62
1, 338027, Note_on_c, 0, 61, 70
1, 338078, Note_on_c, 0, 63, 76
1, 338091, Note_off_c, 0, 61, 64
1, 338130, Note_off_c, 0, 63, 63
1, 338150, Note_on_c, 0, 65, 77
1, 338197, Note_off_c, 0, 65, 66
1, 338242, Poly_aftertouch_c, 0, 78, 127
1, 338248, Note_on_c, 0, 76, 44
1, 338255, Note_on_c, 0, 82, 82
1, 338263, Note_on_c, 0, 73, 66
1, 338266, Note_on_c, 0, 71, 65
1, 338291, Note_off_c, 0, 76, 45
1, 338442, Note_off_c, 0, 71, 55
1, 338462, Note_off_c, 0, 82, 60
1, 338492, Note_off_c, 0, 73, 35
1, 338617, Note_on_c, 0, 37, 61
1, 338617, Note_on_c, 0, 82, 76
1, 338635, Note_on_c, 0, 73, 54
1, 338638, Note_on_c, 0, 71, 61
1, 338686, Control_c, 0, 64, 106
1, 338701, Control_c, 0, 64, 66
1, 338711, Poly_aftertouch_c, 0, 78, 0
1, 338716, Control_c, 0, 64, 53
1, 338731, Control_c, 0, 64, 66
1, 338736, Note_on_c, 0, 44, 62
1, 338743, Note_off_c, 0, 37, 62
1, 338746, Control_c, 0, 64, 127
1, 338814, Note_on_c, 0, 49, 72
1, 338819, Note_off_c, 0, 44, 62
1, 338859, Note_off_c, 0, 71, 36
1, 338866, Note_off_c, 0, 49, 62
1, 338890, Note_off_c, 0, 73, 0
1, 338903, Note_on_c, 0, 53, 68
1, 338905, Note_on_c, 0, 73, 40
1, 338907, Note_on_c, 0, 80, 75
1, 338913, Note_on_c, 0, 71, 55
1, 338931, Note_off_c, 0, 53, 67
1, 339017, Note_on_c, 0, 56, 59
1, 339022, Note_off_c, 0, 82, 59
1, 339049, Note_off_c, 0, 71, 58
1, 339050, Note_off_c, 0, 80, 63
1, 339059, Note_off_c, 0, 73, 35
1, 339105, Note_off_c, 0, 56, 60
1, 339133, Note_on_c, 0, 79, 78
1, 339137, Note_on_c, 0, 71, 70
1, 339138, Note_on_c, 0, 65, 53
1, 339139, Note_on_c, 0, 73, 62
1, 339183, Note_off_c, 0, 65, 57
1, 339221, Note_on_c, 0, 61, 64
1, 339296, Note_off_c, 0, 61, 61
1, 339313, Note_off_c, 0, 73, 41
1, 339314, Note_off_c, 0, 71, 36
1, 339419, Note_on_c, 0, 71, 50
1, 339419, Note_on_c, 0, 80, 73
1, 339422, Note_on_c, 0, 56, 54
1, 339429, Note_on_c, 0, 73, 65
1, 339509, Control_c, 0, 64, 77
1, 339522, Note_off_c, 0, 56, 52
1, 339524, Control_c, 0, 64, 67
1, 339539, Control_c, 0, 64, 77
1, 339541, Note_on_c, 0, 68, 55
1, 339553, Control_c, 0, 64, 127
1, 339578, Note_off_c, 0, 79, 30
1, 339612, Note_on_c, 0, 65, 58
1, 339631, Note_off_c, 0, 68, 52
1, 339684, Note_off_c, 0, 65, 64
1, 339693, Note_on_c, 0, 61, 69
1, 339724, Note_off_c, 0, 71, 52
1, 339742, Note_off_c, 0, 80, 60
1, 339763, Note_on_c, 0, 56, 55
1, 339768, Note_off_c, 0, 61, 63
1, 339819, Note_off_c, 0, 56, 63
1, 339853, Note_off_c, 0, 73, 55
1, 339860, Note_on_c, 0, 53, 71
1, 339908, Note_off_c, 0, 53, 60
1, 339949, Note_on_c, 0, 49, 75
1, 340001, Note_on_c, 0, 44, 70
1, 340024, Note_off_c, 0, 49, 61
1, 340098, Note_on_c, 0, 56, 68
1, 340101, Note_off_c, 0, 44, 64
1, 340150, Note_off_c, 0, 56, 55
1, 340154, Note_on_c, 0, 65, 74
1, 340183, Note_off_c, 0, 65, 64
1, 340240, Note_on_c, 0, 65, 80
1, 340312, Note_on_c, 0, 71, 83
1, 340499, Poly_aftertouch_c, 0, 73, 127
1, 340557, Note_on_c, 0, 80, 80
1, 340567, Note_on_c, 0, 37, 58
1, 340658, Control_c, 0, 64, 116
1, 340672, Control_c, 0, 64, 68
1, 340674, Note_off_c, 0, 37, 62
1, 340686, Note_on_c, 0, 44, 58
1, 340687, Control_c, 0, 64, 41
1, 340702, Control_c, 0, 64, 16
1, 340705, Poly_aftertouch_c, 0, 73, 0
1, 340717, Control_c, 0, 64, 51
1, 340732, Control_c, 0, 64, 77
1, 340746, Control_c, 0, 64, 127
1, 340772, Note_off_c, 0, 44, 62
1, 340776, Note_on_c, 0, 49, 64
1, 340854, Note_off_c, 0, 49, 61
1, 340856, Note_off_c, 0, 80, 60
1, 340864, Note_on_c, 0, 56, 62
1, 340907, Note_off_c, 0, 71, 59
1, 340924, Note_off_c, 0, 65, 36
1, 340929, Note_on_c, 0, 49, 62
1, 340933, Note_off_c, 0, 56, 60
1, 341001, Note_on_c, 0, 44, 69
1, 341005, Note_off_c, 0, 49, 60
1, 341087, Note_on_c, 0, 71, 57
1, 341089, Note_off_c, 0, 44, 62
1, 341092, Note_on_c, 0, 73, 67
1, 341098, Note_on_c, 0, 65, 54
1, 341129, Note_on_c, 0, 49, 65
1, 341209, Note_on_c, 0, 56, 64
1, 341211, Note_off_c, 0, 49, 60
1, 341271, Note_off_c, 0, 71, 45
1, 341280, Note_off_c, 0, 65, 34
1, 341286, Note_off_c, 0, 56, 58
1, 341308, Note_on_c, 0, 61, 55
1, 341316, Note_off_c, 0, 73, 35
1, 341444, Note_on_c, 0, 73, 57
1, 341451, Note_off_c, 0, 61, 28
1, 341460, Note_on_c, 0, 71, 45
1, 341461, Note_on_c, 0, 65, 43
1, 341469, Note_on_c, 0, 56, 45
1, 341510, Control_c, 0, 64, 107
1, 341525, Control_c, 0, 64, 72
1, 341533, Note_off_c, 0, 56, 57
1, 341540, Control_c, 0, 64, 62
1, 341554, Note_on_c, 0, 49, 49
1, 341555, Control_c, 0, 64, 68
1, 341577, Control_c, 0, 64, 88
1, 341592, Control_c, 0, 64, 127
1, 341622, Note_off_c, 0, 49, 62
1, 341673, Note_on_c, 0, 56, 52
1, 341722, Note_off_c, 0, 56, 62
1, 341749, Note_on_c, 0, 61, 55
1, 341807, Note_off_c, 0, 61, 56
1, 341848, Note_on_c, 0, 68, 42
1, 341876, Note_off_c, 0, 68, 53
1, 341956, Note_on_c, 0, 56, 49
1, 342005, Note_off_c, 0, 56, 61
1, 342027, Note_on_c, 0, 49, 54
1, 342087, Note_off_c, 0, 49, 57
1, 342148, Note_on_c, 0, 56, 35
1, 342173, Note_off_c, 0, 56, 51
1, 342208, Note_on_c, 0, 61, 41
1, 342257, Note_off_c, 0, 61, 46
1, 342263, Note_on_c, 0, 56, 48
1, 342342, Note_off_c, 0, 56, 59
1, 342379, Note_on_c, 0, 49, 55
1, 342445, Note_off_c, 0, 49, 59
1, 342461, Note_on_c, 0, 44, 60
1, 342552, Note_off_c, 0, 44, 55
1, 342583, Note_on_c, 0, 49, 51
1, 342618, Note_off_c, 0, 49, 64
1, 342648, Note_on_c, 0, 56, 48
1, 342683, Note_off_c, 0, 56, 54
1, 342710, Note_off_c, 0, 65, 34
1, 342743, Note_on_c, 0, 49, 50
1, 342836, Note_off_c, 0, 49, 61
1, 342842, Note_on_c, 0, 44, 61
1, 342907, Note_off_c, 0, 71, 36
1, 342943, Note_off_c, 0, 73, 55
1, 342952, Note_on_c, 0, 37, 60
1, 342968, Note_off_c, 0, 44, 61
1, 343003, Note_off_c, 0, 37, 61
1, 343241, Note_on_c, 0, 73, 61
1, 343253, Note_on_c, 0, 66, 52
1, 343255, Note_on_c, 0, 71, 54
1, 343271, Note_on_c, 0, 30, 56
1, 343313, Control_c, 0, 64, 77
1, 343327, Control_c, 0, 64, 52
1, 343342, Control_c, 0, 64, 0
1, 343372, Control_c, 0, 64, 60
1, 343382, Note_off_c, 0, 30, 63
1, 343387, Control_c, 0, 64, 91
1, 343401, Control_c, 0, 64, 127
1, 343540, Note_on_c, 0, 49, 57
1, 343620, Note_off_c, 0, 71, 54
1, 343634, Note_on_c, 0, 61, 55
1, 343650, Note_off_c, 0, 49, 53
1, 343732, Note_off_c, 0, 61, 60
1, 343736, Note_on_c, 0, 54, 62
1, 343751, Note_off_c, 0, 66, 35
1, 343828, Note_on_c, 0, 49, 53
1, 343844, Note_off_c, 0, 54, 58
1, 343912, Note_off_c, 0, 49, 57
1, 343932, Note_on_c, 0, 78, 74
1, 343947, Note_on_c, 0, 70, 51
1, 343947, Note_on_c, 0, 58, 58
1, 343950, Note_on_c, 0, 66, 40
1, 344037, Note_off_c, 0, 73, 0
1, 344059, Note_on_c, 0, 54, 56
1, 344093, Note_off_c, 0, 58, 31
1, 344096, Poly_aftertouch_c, 0, 73, 0
1, 344157, Note_on_c, 0, 49, 58
1, 344162, Note_off_c, 0, 54, 63
1, 344183, Note_off_c, 0, 78, 59
1, 344199, Note_off_c, 0, 49, 59
1, 344243, Note_off_c, 0, 66, 39
1, 344442, Note_on_c, 0, 78, 61
1, 344446, Note_on_c, 0, 39, 54
1, 344493, Note_off_c, 0, 70, 58
1, 344507, Control_c, 0, 64, 94
1, 344521, Control_c, 0, 64, 60
1, 344536, Control_c, 0, 64, 28
1, 344551, Control_c, 0, 64, 42
1, 344573, Control_c, 0, 64, 68
1, 344588, Control_c, 0, 64, 127
1, 344600, Note_off_c, 0, 78, 59
1, 344611, Note_on_c, 0, 66, 57
1, 344628, Note_on_c, 0, 46, 55
1, 344638, Note_off_c, 0, 39, 61
1, 344712, Note_off_c, 0, 66, 58
1, 344749, Note_on_c, 0, 70, 63
1, 344794, Note_on_c, 0, 51, 59
1, 344817, Note_off_c, 0, 70, 60
1, 344897, Note_on_c, 0, 58, 59
1, 344906, Note_off_c, 0, 51, 57
1, 344916, Note_on_c, 0, 54, 62
1, 344970, Note_off_c, 0, 46, 36
1, 344974, Note_on_c, 0, 70, 76
1, 345045, Note_on_c, 0, 51, 60
1, 345056, Note_off_c, 0, 58, 33
1, 345072, Note_on_c, 0, 63, 64
1, 345076, Note_off_c, 0, 70, 56
1, 345134, Note_off_c, 0, 54, 33
1, 345140, Note_off_c, 0, 63, 62
1, 345144, Note_on_c, 0, 66, 69
1, 345146, Note_on_c, 0, 46, 53
1, 345149, Note_off_c, 0, 51, 62
1, 345197, Note_off_c, 0, 66, 58
1, 345216, Note_on_c, 0, 58, 71
1, 345286, Note_off_c, 0, 58, 51
1, 345295, Note_on_c, 0, 72, 77
1, 345325, Note_on_c, 0, 39, 64
1, 345326, Note_off_c, 0, 46, 60
1, 345385, Note_on_c, 0, 44, 37
1, 345394, Note_on_c, 0, 66, 74
1, 345396, Note_off_c, 0, 72, 62
1, 345406, Note_off_c, 0, 39, 63
1, 345424, Note_off_c, 0, 44, 63
1, 345427, Note_on_c, 0, 46, 61
1, 345470, Note_off_c, 0, 66, 63
1, 345481, Note_on_c, 0, 70, 77
1, 345536, Note_off_c, 0, 70, 62
1, 345547, Note_on_c, 0, 51, 69
1, 345561, Note_on_c, 0, 61, 79
1, 345632, Note_on_c, 0, 73, 83
1, 345653, Note_on_c, 0, 58, 60
1, 345655, Note_off_c, 0, 46, 50
1, 345662, Note_off_c, 0, 51, 62
1, 345690, Note_off_c, 0, 61, 36
1, 345717, Note_on_c, 0, 66, 72
1, 345785, Note_on_c, 0, 51, 60
1, 345793, Note_off_c, 0, 73, 62
1, 345801, Note_off_c, 0, 66, 61
1, 345810, Note_on_c, 0, 70, 79
1, 345847, Note_off_c, 0, 58, 30
1, 345867, Note_on_c, 0, 46, 61
1, 345873, Note_off_c, 0, 70, 62
1, 345901, Note_on_c, 0, 66, 81
1, 345929, Note_off_c, 0, 51, 51
1, 345996, Note_on_c, 0, 78, 87
1, 346034, Note_off_c, 0, 46, 62
1, 346100, Note_on_c, 0, 70, 77
1, 346141, Note_off_c, 0, 66, 36
1, 346254, Note_on_c, 0, 44, 57
1, 346256, Note_on_c, 0, 73, 75
1, 346323, Note_off_c, 0, 70, 61
1, 346331, Note_off_c, 0, 78, 61
1, 346337, Control_c, 0, 64, 89
1, 346352, Control_c, 0, 64, 58
1, 346367, Control_c, 0, 64, 0
1, 346395, Note_on_c, 0, 66, 60
1, 346397, Control_c, 0, 64, 42
1, 346411, Control_c, 0, 64, 67
1, 346426, Control_c, 0, 64, 127
1, 346454, Note_on_c, 0, 51, 66
1, 346475, Note_off_c, 0, 44, 57
1, 346505, Note_on_c, 0, 77, 80
1, 346519, Note_off_c, 0, 73, 58
1, 346542, Note_on_c, 0, 49, 18
1, 346612, Note_on_c, 0, 54, 59
1, 346613, Note_on_c, 0, 70, 75
1, 346620, Note_off_c, 0, 66, 47
1, 346637, Note_off_c, 0, 77, 58
1, 346705, Note_off_c, 0, 70, 62
1, 346718, Note_on_c, 0, 73, 72
1, 346744, Note_off_c, 0, 54, 59
1, 346758, Note_off_c, 0, 49, 0
1, 346759, Note_on_c, 0, 61, 50
1, 346767, Note_off_c, 0, 51, 35
1, 346776, Note_off_c, 0, 73, 61
1, 346785, Note_on_c, 0, 66, 68
1, 346795, Poly_aftertouch_c, 0, 49, 127
1, 346869, Note_off_c, 0, 61, 57
1, 346874, Note_on_c, 0, 77, 80
1, 346905, Note_on_c, 0, 54, 59
1, 346967, Note_on_c, 0, 70, 74
1, 346992, Note_off_c, 0, 66, 34
1, 346998, Note_off_c, 0, 77, 54
1, 347007, Note_off_c, 0, 54, 59
1, 347010, Note_on_c, 0, 51, 55
1, 347045, Note_off_c, 0, 70, 61
1, 347050, Note_on_c, 0, 73, 73
1, 347158, Poly_aftertouch_c, 0, 49, 0
1, 347161, Note_on_c, 0, 44, 57
1, 347170, Note_off_c, 0, 73, 61
1, 347173, Note_on_c, 0, 66, 64
1, 347174, Note_off_c, 0, 51, 57
1, 347194, Poly_aftertouch_c, 0, 49, 127
1, 347234, Control_c, 0, 64, 106
1, 347249, Control_c, 0, 64, 65
1, 347250, Note_on_c, 0, 75, 72
1, 347259, Note_off_c, 0, 66, 58
1, 347264, Control_c, 0, 64, 57
1, 347279, Control_c, 0, 64, 67
1, 347293, Control_c, 0, 64, 96
1, 347308, Control_c, 0, 64, 127
1, 347314, Note_on_c, 0, 51, 60
1, 347324, Note_off_c, 0, 44, 59
1, 347358, Note_on_c, 0, 68, 74
1, 347374, Note_off_c, 0, 75, 60
1, 347427, Note_on_c, 0, 54, 56
1, 347434, Poly_aftertouch_c, 0, 49, 0
1, 347439, Note_off_c, 0, 68, 62
1, 347452, Note_on_c, 0, 72, 65
1, 347503, Note_off_c, 0, 51, 35
1, 347538, Note_off_c, 0, 54, 58
1, 347539, Note_off_c, 0, 72, 58
1, 347572, Note_on_c, 0, 63, 65
1, 347583, Note_on_c, 0, 60, 53
1, 347626, Control_c, 0, 64, 85
1, 347643, Control_c, 0, 64, 64
1, 347651, Note_off_c, 0, 63, 56
1, 347658, Control_c, 0, 64, 65
1, 347668, Note_on_c, 0, 72, 64
1, 347672, Control_c, 0, 64, 89
1, 347687, Control_c, 0, 64, 127
1, 347707, Note_on_c, 0, 54, 61
1, 347743, Note_off_c, 0, 60, 30
1, 347745, Note_off_c, 0, 72, 59
1, 347763, Note_on_c, 0, 66, 61
1, 347838, Note_off_c, 0, 66, 60
1, 347841, Note_on_c, 0, 51, 53
1, 347856, Note_on_c, 0, 70, 71
1, 347878, Note_off_c, 0, 54, 61
1, 347916, Note_off_c, 0, 51, 62
1, 347951, Note_on_c, 0, 60, 66
1, 347993, Note_off_c, 0, 60, 57
1, 347994, Note_off_c, 0, 70, 36
1, 348154, Note_on_c, 0, 70, 61
1, 348164, Note_on_c, 0, 37, 51
1, 348172, Note_on_c, 0, 58, 53
1, 348180, Note_on_c, 0, 65, 46
1, 348205, Control_c, 0, 64, 74
1, 348220, Control_c, 0, 64, 52
1, 348234, Control_c, 0, 64, 21
1, 348249, Control_c, 0, 64, 37
1, 348264, Control_c, 0, 64, 67
1, 348279, Control_c, 0, 64, 127
1, 348280, Note_on_c, 0, 44, 64
1, 348288, Note_off_c, 0, 37, 58
1, 348341, Note_off_c, 0, 58, 55
1, 348344, Note_off_c, 0, 70, 60
1, 348371, Note_on_c, 0, 46, 60
1, 348390, Note_off_c, 0, 44, 51
1, 348436, Note_off_c, 0, 46, 63
1, 348449, Note_on_c, 0, 48, 60
1, 348456, Note_on_c, 0, 56, 66
1, 348461, Note_on_c, 0, 68, 77
1, 348487, Note_off_c, 0, 56, 66
1, 348492, Note_off_c, 0, 65, 46
1, 348506, Note_off_c, 0, 48, 56
1, 348533, Note_on_c, 0, 49, 65
1, 348538, Poly_aftertouch_c, 0, 66, 0
1, 348553, Note_off_c, 0, 68, 66
1, 348618, Note_on_c, 0, 51, 72
1, 348639, Note_off_c, 0, 49, 63
1, 348723, Note_off_c, 0, 51, 63
1, 348750, Note_on_c, 0, 53, 53
1, 348765, Note_on_c, 0, 89, 91
1, 348771, Note_on_c, 0, 77, 76
1, 348772, Note_on_c, 0, 80, 76
1, 348829, Note_off_c, 0, 53, 60
1, 348848, Note_on_c, 0, 54, 78
1, 348935, Note_on_c, 0, 56, 76
1, 348956, Note_off_c, 0, 54, 62
1, 348959, Note_off_c, 0, 77, 58
1, 348965, Note_off_c, 0, 80, 61
1, 348967, Note_off_c, 0, 89, 63
1, 348984, Note_on_c, 0, 85, 38
1, 349012, Note_on_c, 0, 58, 73
1, 349017, Note_off_c, 0, 56, 63
1, 349063, Note_on_c, 0, 89, 100
1, 349069, Note_on_c, 0, 77, 92
1, 349072, Note_on_c, 0, 80, 88
1, 349114, Note_off_c, 0, 58, 63
1, 349125, Control_c, 0, 64, 58
1, 349126, Note_on_c, 0, 56, 79
1, 349139, Control_c, 0, 64, 0
1, 349165, Note_off_c, 0, 85, 18
1, 349169, Control_c, 0, 64, 54
1, 349183, Control_c, 0, 64, 127
1, 349197, Note_on_c, 0, 58, 81
1, 349203, Note_off_c, 0, 56, 63
1, 349242, Note_off_c, 0, 58, 64
1, 349250, Note_on_c, 0, 60, 80
1, 349254, Note_off_c, 0, 89, 58
1, 349278, Note_off_c, 0, 77, 61
1, 349310, Note_off_c, 0, 60, 63
1, 349326, Note_off_c, 0, 80, 62
1, 349335, Note_on_c, 0, 61, 88
1, 349388, Note_on_c, 0, 63, 81
1, 349400, Poly_aftertouch_c, 0, 83, 127
1, 349411, Note_off_c, 0, 61, 66
1, 349445, Note_off_c, 0, 63, 64
1, 349462, Note_on_c, 0, 65, 86
1, 349482, Poly_aftertouch_c, 0, 82, 127
1, 349501, Note_off_c, 0, 65, 67
1, 349510, Note_on_c, 0, 80, 80
1, 349515, Note_on_c, 0, 85, 99
1, 349516, Note_on_c, 0, 73, 93
1, 349527, Poly_aftertouch_c, 0, 82, 0
1, 349556, Poly_aftertouch_c, 0, 83, 0
1, 349587, Note_off_c, 0, 80, 60
1, 349697, Note_off_c, 0, 85, 64
1, 349705, Note_off_c, 0, 73, 58
1, 349762, Note_on_c, 0, 80, 22
1, 349820, Note_off_c, 0, 80, 43
1, 349847, Note_on_c, 0, 85, 96
1, 349852, Note_on_c, 0, 73, 90
1, 349854, Note_on_c, 0, 77, 86
1, 349858, Note_on_c, 0, 37, 82
1, 349918, Control_c, 0, 64, 82
1, 349933, Control_c, 0, 64, 29
1, 349948, Control_c, 0, 64, 0
1, 349962, Control_c, 0, 64, 61
1, 349968, Note_on_c, 0, 44, 82
1, 349977, Control_c, 0, 64, 84
1, 349989, Note_on_c, 0, 42, 31
1, 349992, Control_c, 0, 64, 127
1, 350008, Note_off_c, 0, 85, 63
1, 350016, Note_on_c, 0, 46, 73
1, 350018, Note_off_c, 0, 37, 61
1, 350025, Note_off_c, 0, 42, 51
1, 350028, Note_off_c, 0, 73, 60
1, 350059, Note_off_c, 0, 77, 62
1, 350063, Note_off_c, 0, 44, 63
1, 350089, Note_on_c, 0, 48, 79
1, 350091, Note_off_c, 0, 46, 63
1, 350127, Note_on_c, 0, 65, 89
1, 350130, Note_off_c, 0, 48, 62
1, 350151, Note_off_c, 0, 65, 67
1, 350165, Note_on_c, 0, 49, 77
1, 350210, Note_on_c, 0, 51, 83
1, 350226, Note_off_c, 0, 49, 63
1, 350273, Note_off_c, 0, 51, 64
1, 350295, Note_on_c, 0, 53, 73
1, 350329, Note_on_c, 0, 73, 88
1, 350333, Note_on_c, 0, 82, 87
1, 350340, Note_off_c, 0, 53, 62
1, 350376, Note_on_c, 0, 54, 82
1, 350445, Note_on_c, 0, 56, 84
1, 350460, Note_off_c, 0, 82, 62
1, 350461, Note_off_c, 0, 73, 61
1, 350471, Note_off_c, 0, 54, 63
1, 350486, Note_on_c, 0, 80, 16
1, 350488, Note_on_c, 0, 81, 37
1, 350520, Note_off_c, 0, 56, 63
1, 350522, Note_on_c, 0, 58, 83
1, 350562, Note_off_c, 0, 81, 37
1, 350564, Note_on_c, 0, 82, 98
1, 350569, Note_on_c, 0, 72, 93
1, 350575, Note_on_c, 0, 78, 87
1, 350591, Note_off_c, 0, 58, 63
1, 350592, Control_c, 0, 64, 64
1, 350605, Note_off_c, 0, 80, 52
1, 350607, Control_c, 0, 64, 59
1, 350617, Note_on_c, 0, 56, 73
1, 350622, Control_c, 0, 64, 93
1, 350637, Control_c, 0, 64, 127
1, 350667, Note_off_c, 0, 72, 63
1, 350672, Note_on_c, 0, 58, 80
1, 350678, Note_off_c, 0, 56, 64
1, 350710, Note_off_c, 0, 58, 63
1, 350729, Note_on_c, 0, 60, 79
1, 350772, Note_off_c, 0, 82, 62
1, 350773, Note_off_c, 0, 60, 66
1, 350781, Note_off_c, 0, 78, 64
1, 350803, Note_on_c, 0, 70, 97
1, 350814, Note_on_c, 0, 61, 61
1, 350820, Note_on_c, 0, 80, 51
1, 350830, Note_on_c, 0, 63, 72
1, 350836, Note_off_c, 0, 61, 64
1, 350842, Note_on_c, 0, 62, 61
1, 350861, Note_off_c, 0, 62, 59
1, 350877, Note_off_c, 0, 63, 61
1, 350887, Note_on_c, 0, 65, 85
1, 350911, Note_off_c, 0, 80, 31
1, 350917, Note_off_c, 0, 70, 57
1, 350964, Note_on_c, 0, 66, 85
1, 350972, Note_off_c, 0, 65, 67
1, 351024, Note_off_c, 0, 66, 64
1, 351037, Note_on_c, 0, 80, 93
1, 351045, Note_on_c, 0, 68, 98
1, 351048, Note_on_c, 0, 75, 89
1, 351170, Poly_aftertouch_c, 0, 76, 0
1, 351182, Note_off_c, 0, 68, 59
1, 351201, Note_off_c, 0, 80, 56
1, 351289, Note_off_c, 0, 75, 27
1, 351367, Note_on_c, 0, 80, 90
1, 351369, Note_on_c, 0, 68, 94
1, 351370, Note_on_c, 0, 37, 84
1, 351370, Note_on_c, 0, 75, 75
1, 351372, Note_on_c, 0, 77, 82
1, 351413, Note_on_c, 0, 36, 39
1, 351430, Control_c, 0, 64, 66
1, 351443, Note_off_c, 0, 36, 47
1, 351445, Control_c, 0, 64, 0
1, 351460, Note_off_c, 0, 75, 63
1, 351474, Control_c, 0, 64, 47
1, 351486, Note_on_c, 0, 44, 78
1, 351489, Control_c, 0, 64, 79
1, 351504, Control_c, 0, 64, 127
1, 351533, Note_on_c, 0, 46, 70
1, 351537, Note_off_c, 0, 37, 62
1, 351559, Note_off_c, 0, 68, 62
1, 351571, Note_off_c, 0, 44, 63
1, 351594, Note_off_c, 0, 46, 64
1, 351599, Note_off_c, 0, 77, 60
1, 351602, Note_off_c, 0, 80, 62
1, 351607, Note_on_c, 0, 48, 74
1, 351636, Note_off_c, 0, 48, 64
1, 351638, Note_on_c, 0, 73, 77
1, 351656, Note_off_c, 0, 73, 72
1, 351678, Note_on_c, 0, 49, 80
1, 351713, Note_on_c, 0, 77, 91
1, 351725, Note_on_c, 0, 51, 77
1, 351728, Note_off_c, 0, 49, 65
1, 351768, Note_off_c, 0, 77, 55
1, 351771, Note_off_c, 0, 51, 65
1, 351790, Note_on_c, 0, 80, 89
1, 351795, Note_on_c, 0, 53, 78
1, 351846, Note_off_c, 0, 53, 63
1, 351849, Note_on_c, 0, 89, 98
1, 351870, Note_off_c, 0, 80, 66
1, 351875, Note_on_c, 0, 54, 80
1, 351936, Note_on_c, 0, 56, 84
1, 351953, Note_off_c, 0, 89, 65
1, 351968, Note_off_c, 0, 54, 64
1, 352008, Note_on_c, 0, 58, 78
1, 352024, Note_off_c, 0, 56, 62
1, 352076, Note_on_c, 0, 85, 95
1, 352082, Note_on_c, 0, 73, 93
1, 352082, Note_on_c, 0, 80, 91
1, 352095, Poly_aftertouch_c, 0, 83, 0
1, 352101, Note_off_c, 0, 58, 64
1, 352106, Control_c, 0, 64, 95
1, 352121, Control_c, 0, 64, 63
1, 352133, Note_on_c, 0, 56, 72
1, 352133, Poly_aftertouch_c, 0, 83, 127
1, 352136, Control_c, 0, 64, 64
1, 352145, Poly_aftertouch_c, 0, 84, 127
1, 352151, Control_c, 0, 64, 127
1, 352187, Note_off_c, 0, 56, 66
1, 352187, Note_off_c, 0, 73, 65
1, 352193, Note_on_c, 0, 58, 72
1, 352201, Poly_aftertouch_c, 0, 84, 0
1, 352211, Note_off_c, 0, 58, 63
1, 352212, Note_off_c, 0, 80, 63
1, 352232, Poly_aftertouch_c, 0, 83, 0
1, 352233, Note_on_c, 0, 60, 65
1, 352236, Note_on_c, 0, 59, 69
1, 352238, Note_off_c, 0, 85, 63
1, 352267, Note_off_c, 0, 59, 63
1, 352273, Note_off_c, 0, 60, 65
1, 352306, Note_on_c, 0, 61, 81
1, 352336, Note_on_c, 0, 90, 44
1, 352343, Note_on_c, 0, 63, 78
1, 352371, Note_off_c, 0, 61, 65
1, 352374, Note_off_c, 0, 90, 54
1, 352404, Note_on_c, 0, 79, 85
1, 352406, Note_off_c, 0, 63, 62
1, 352411, Note_on_c, 0, 64, 76
1, 352458, Note_off_c, 0, 64, 63
1, 352470, Note_off_c, 0, 79, 53
1, 352478, Note_on_c, 0, 86, 82
1, 352488, Note_on_c, 0, 87, 62
1, 352501, Note_on_c, 0, 81, 7
1, 352506, Note_off_c, 0, 87, 59
1, 352529, Note_on_c, 0, 94, 105
1, 352542, Note_off_c, 0, 86, 66
1, 352553, Note_off_c, 0, 81, 33
1, 352613, Poly_aftertouch_c, 0, 92, 0
1, 352715, Note_off_c, 0, 94, 63
1, 352830, Note_on_c, 0, 94, 95
1, 352832, Note_on_c, 0, 36, 72
1, 352833, Note_on_c, 0, 82, 94
1, 352840, Note_on_c, 0, 87, 81
1, 352850, Note_on_c, 0, 38, 65
1, 352900, Control_c, 0, 64, 86
1, 352908, Note_off_c, 0, 36, 62
1, 352914, Control_c, 0, 64, 54
1, 352922, Note_off_c, 0, 38, 0
1, 352922, Note_on_c, 0, 38, 6
1, 352929, Control_c, 0, 64, 53
1, 352938, Note_on_c, 0, 48, 80
1, 352944, Note_off_c, 0, 38, 43
1, 352944, Control_c, 0, 64, 92
1, 352959, Control_c, 0, 64, 127
1, 352985, Note_off_c, 0, 48, 63
1, 353024, Note_off_c, 0, 82, 63
1, 353033, Note_on_c, 0, 51, 74
1, 353036, Note_off_c, 0, 87, 56
1, 353119, Note_on_c, 0, 92, 85
1, 353120, Note_on_c, 0, 56, 84
1, 353123, Note_off_c, 0, 51, 63
1, 353125, Note_on_c, 0, 80, 98
1, 353132, Note_on_c, 0, 87, 91
1, 353158, Note_off_c, 0, 94, 66
1, 353186, Note_off_c, 0, 56, 64
1, 353203, Note_on_c, 0, 51, 80
1, 353240, Note_off_c, 0, 87, 58
1, 353256, Note_off_c, 0, 92, 64
1, 353260, Note_on_c, 0, 56, 81
1, 353263, Note_off_c, 0, 80, 60
1, 353277, Note_off_c, 0, 51, 59
1, 353307, Note_off_c, 0, 56, 63
1, 353328, Note_on_c, 0, 59, 66
1, 353332, Note_on_c, 0, 79, 97
1, 353332, Note_on_c, 0, 91, 94
1, 353345, Note_on_c, 0, 87, 93
1, 353346, Note_on_c, 0, 60, 69
1, 353358, Note_off_c, 0, 59, 67
1, 353372, Note_off_c, 0, 60, 67
1, 353418, Note_on_c, 0, 63, 77
1, 353424, Note_off_c, 0, 79, 63
1, 353439, Note_off_c, 0, 87, 62
1, 353507, Note_on_c, 0, 67, 71
1, 353514, Note_off_c, 0, 63, 63
1, 353579, Note_off_c, 0, 67, 63
1, 353584, Note_on_c, 0, 63, 78
1, 353588, Note_on_c, 0, 92, 95
1, 353589, Note_on_c, 0, 87, 85
1, 353592, Note_on_c, 0, 80, 93
1, 353623, Note_off_c, 0, 91, 63
1, 353677, Note_off_c, 0, 63, 63
1, 353685, Note_on_c, 0, 75, 86
1, 353704, Note_off_c, 0, 92, 64
1, 353710, Poly_aftertouch_c, 0, 82, 0
1, 353725, Note_off_c, 0, 80, 60
1, 353743, Note_off_c, 0, 75, 64
1, 353754, Note_on_c, 0, 68, 76
1, 353764, Note_off_c, 0, 87, 62
1, 353829, Note_on_c, 0, 63, 72
1, 353831, Note_off_c, 0, 68, 66
1, 353877, Note_off_c, 0, 63, 65
1, 353911, Note_on_c, 0, 60, 89
1, 353996, Note_on_c, 0, 56, 92
1, 354027, Note_off_c, 0, 60, 58
1, 354100, Note_on_c, 0, 51, 76
1, 354100, Note_off_c, 0, 56, 62
1, 354101, Note_on_c, 0, 80, 92
1, 354103, Note_on_c, 0, 68, 95
1, 354162, Note_on_c, 0, 78, 32
1, 354177, Note_off_c, 0, 51, 65
1, 354208, Note_on_c, 0, 48, 94
1, 354328, Note_off_c, 0, 68, 58
1, 354335, Note_on_c, 0, 44, 93
1, 354339, Note_off_c, 0, 80, 55
1, 354363, Note_off_c, 0, 48, 56
1, 354401, Note_off_c, 0, 44, 64
1, 354509, Note_off_c, 0, 78, 0
1, 354542, Note_on_c, 0, 80, 90
1, 354548, Note_on_c, 0, 68, 91
1, 354550, Note_on_c, 0, 75, 84
1, 354554, Note_on_c, 0, 35, 92
1, 354589, Control_c, 0, 64, 91
1, 354591, Poly_aftertouch_c, 0, 78, 0
1, 354604, Control_c, 0, 64, 46
1, 354619, Control_c, 0, 64, 0
1, 354649, Control_c, 0, 64, 20
1, 354664, Control_c, 0, 64, 83
1, 354677, Note_off_c, 0, 35, 65
1, 354678, Control_c, 0, 64, 127
1, 354813, Note_on_c, 0, 48, 53
1, 354818, Note_on_c, 0, 47, 58
1, 354837, Note_off_c, 0, 68, 56
1, 354875, Note_off_c, 0, 47, 55
1, 354882, Note_on_c, 0, 49, 75
1, 354897, Note_off_c, 0, 48, 53
1, 354949, Note_on_c, 0, 54, 79
1, 354969, Note_off_c, 0, 49, 63
1, 355020, Note_on_c, 0, 73, 71
1, 355033, Note_on_c, 0, 68, 72
1, 355033, Note_off_c, 0, 54, 64
1, 355041, Note_on_c, 0, 61, 75
1, 355090, Note_off_c, 0, 80, 57
1, 355129, Note_on_c, 0, 53, 73
1, 355134, Note_on_c, 0, 52, 62
1, 355157, Note_off_c, 0, 61, 52
1, 355174, Note_off_c, 0, 68, 36
1, 355176, Note_off_c, 0, 73, 35
1, 355196, Note_on_c, 0, 49, 76
1, 355196, Note_off_c, 0, 52, 60
1, 355213, Note_off_c, 0, 53, 63
1, 355234, Poly_aftertouch_c, 0, 76, 127
1, 355264, Note_on_c, 0, 68, 84
1, 355269, Note_on_c, 0, 46, 84
1, 355271, Note_on_c, 0, 73, 80
1, 355278, Note_off_c, 0, 49, 63
1, 355278, Control_c, 0, 64, 103
1, 355293, Control_c, 0, 64, 55
1, 355308, Control_c, 0, 64, 49
1, 355323, Control_c, 0, 64, 73
1, 355337, Control_c, 0, 64, 127
1, 355345, Note_on_c, 0, 47, 35
1, 355347, Note_on_c, 0, 49, 82
1, 355349, Note_off_c, 0, 46, 59
1, 355378, Note_off_c, 0, 47, 39
1, 355388, Note_on_c, 0, 54, 71
1, 355408, Note_off_c, 0, 68, 55
1, 355420, Note_off_c, 0, 73, 59
1, 355443, Note_off_c, 0, 49, 62
1, 355474, Note_on_c, 0, 63, 75
1, 355480, Note_off_c, 0, 54, 65
1, 355481, Note_on_c, 0, 67, 93
1, 355505, Note_on_c, 0, 73, 57
1, 355510, Poly_aftertouch_c, 0, 76, 0
1, 355541, Note_on_c, 0, 54, 73
1, 355547, Poly_aftertouch_c, 0, 76, 127
1, 355561, Note_off_c, 0, 67, 60
1, 355567, Note_off_c, 0, 63, 57
1, 355573, Note_off_c, 0, 73, 38
1, 355603, Note_on_c, 0, 49, 80
1, 355638, Note_off_c, 0, 54, 65
1, 355667, Note_on_c, 0, 78, 93
1, 355672, Note_on_c, 0, 66, 94
1, 355681, Note_on_c, 0, 73, 81
1, 355683, Note_on_c, 0, 61, 72
1, 355699, Note_on_c, 0, 63, 57
1, 355699, Note_off_c, 0, 49, 63
1, 355707, Poly_aftertouch_c, 0, 76, 0
1, 355718, Note_off_c, 0, 63, 64
1, 355749, Note_on_c, 0, 54, 82
1, 355750, Note_off_c, 0, 61, 60
1, 355761, Poly_aftertouch_c, 0, 76, 0
1, 355776, Note_off_c, 0, 75, 36
1, 355780, Note_off_c, 0, 73, 61
1, 355808, Note_off_c, 0, 66, 59
1, 355821, Note_on_c, 0, 49, 82
1, 355850, Note_off_c, 0, 78, 63
1, 355892, Note_off_c, 0, 54, 50
1, 355934, Note_on_c, 0, 77, 94
1, 355937, Note_on_c, 0, 65, 91
1, 355942, Note_on_c, 0, 44, 89
1, 355944, Note_on_c, 0, 71, 74
1, 355945, Note_on_c, 0, 73, 79
1, 355954, Note_off_c, 0, 49, 63
1, 355957, Note_on_c, 0, 72, 68
1, 355978, Note_off_c, 0, 72, 39
1, 355998, Control_c, 0, 64, 114
1, 356013, Control_c, 0, 64, 53
1, 356022, Note_on_c, 0, 49, 71
1, 356028, Control_c, 0, 64, 0
1, 356029, Note_off_c, 0, 44, 63
1, 356043, Control_c, 0, 64, 27
1, 356057, Control_c, 0, 64, 59
1, 356072, Control_c, 0, 64, 84
1, 356087, Control_c, 0, 64, 127
1, 356096, Note_on_c, 0, 53, 70
1, 356098, Note_off_c, 0, 65, 60
1, 356098, Note_on_c, 0, 75, 38
1, 356107, Note_on_c, 0, 51, 37
1, 356143, Note_off_c, 0, 51, 48
1, 356150, Note_off_c, 0, 71, 63
1, 356152, Note_off_c, 0, 49, 63
1, 356167, Note_off_c, 0, 77, 59
1, 356174, Note_on_c, 0, 60, 79
1, 356181, Note_off_c, 0, 75, 55
1, 356184, Note_off_c, 0, 73, 62
1, 356193, Note_off_c, 0, 53, 64
1, 356244, Note_off_c, 0, 60, 65
1, 356264, Note_on_c, 0, 53, 74
1, 356322, Note_on_c, 0, 49, 81
1, 356396, Note_off_c, 0, 53, 62
1, 356421, Note_on_c, 0, 83, 95
1, 356423, Note_on_c, 0, 61, 84
1, 356424, Note_on_c, 0, 71, 94
1, 356425, Note_on_c, 0, 73, 81
1, 356426, Note_on_c, 0, 77, 77
1, 356443, Note_off_c, 0, 49, 63
1, 356487, Note_on_c, 0, 78, 5
1, 356509, Note_on_c, 0, 53, 79
1, 356515, Note_off_c, 0, 61, 63
1, 356560, Note_off_c, 0, 78, 46
1, 356594, Note_off_c, 0, 77, 60
1, 356614, Note_on_c, 0, 49, 75
1, 356633, Note_off_c, 0, 53, 60
1, 356649, Note_off_c, 0, 73, 57
1, 356666, Note_off_c, 0, 71, 46
1, 356677, Note_off_c, 0, 83, 60
1, 356786, Note_on_c, 0, 83, 94
1, 356788, Note_on_c, 0, 71, 93
1, 356792, Note_on_c, 0, 73, 76
1, 356793, Note_on_c, 0, 78, 83
1, 356807, Note_on_c, 0, 42, 80
1, 356810, Note_off_c, 0, 49, 64
1, 356821, Control_c, 0, 64, 98
1, 356836, Control_c, 0, 64, 53
1, 356851, Control_c, 0, 64, 0
1, 356866, Control_c, 0, 64, 48
1, 356880, Control_c, 0, 64, 106
1, 356895, Control_c, 0, 64, 127
1, 356910, Note_off_c, 0, 42, 64
1, 356926, Note_on_c, 0, 49, 79
1, 356933, Note_on_c, 0, 47, 22
1, 356972, Note_off_c, 0, 47, 30
1, 356981, Note_off_c, 0, 49, 62
1, 356999, Note_off_c, 0, 71, 60
1, 357002, Note_on_c, 0, 54, 82
1, 357015, Note_on_c, 0, 79, 40
1, 357025, Note_off_c, 0, 83, 58
1, 357064, Note_off_c, 0, 79, 44
1, 357081, Note_on_c, 0, 61, 78
1, 357090, Note_off_c, 0, 73, 64
1, 357092, Note_off_c, 0, 54, 63
1, 357122, Note_off_c, 0, 78, 55
1, 357162, Note_on_c, 0, 54, 77
1, 357180, Note_off_c, 0, 61, 54
1, 357226, Note_on_c, 0, 49, 80
1, 357261, Note_off_c, 0, 54, 64
1, 357281, Note_on_c, 0, 73, 67
1, 357281, Note_on_c, 0, 82, 91
1, 357285, Note_on_c, 0, 70, 92
1, 357311, Note_on_c, 0, 63, 77
1, 357323, Note_off_c, 0, 49, 58
1, 357370, Note_off_c, 0, 63, 63
1, 357379, Note_on_c, 0, 54, 85
1, 357439, Note_off_c, 0, 70, 57
1, 357445, Note_off_c, 0, 82, 62
1, 357462, Note_off_c, 0, 73, 58
1, 357463, Note_on_c, 0, 49, 72
1, 357465, Note_off_c, 0, 54, 66
1, 357521, Note_on_c, 0, 82, 87
1, 357528, Note_on_c, 0, 70, 100
1, 357528, Note_on_c, 0, 73, 68
1, 357531, Note_on_c, 0, 75, 80
1, 357540, Note_on_c, 0, 43, 78
1, 357545, Note_off_c, 0, 49, 63
1, 357627, Note_off_c, 0, 43, 64
1, 357629, Control_c, 0, 64, 64
1, 357632, Note_on_c, 0, 49, 80
1, 357644, Control_c, 0, 64, 0
1, 357659, Control_c, 0, 64, 30
1, 357663, Note_off_c, 0, 82, 63
1, 357673, Control_c, 0, 64, 67
1, 357680, Note_on_c, 0, 51, 80
1, 357688, Control_c, 0, 64, 88
1, 357698, Note_off_c, 0, 49, 62
1, 357703, Control_c, 0, 64, 127
1, 357715, Note_off_c, 0, 70, 60
1, 357748, Note_off_c, 0, 51, 64
1, 357751, Note_on_c, 0, 57, 68
1, 357751, Note_off_c, 0, 75, 61
1, 357753, Note_off_c, 0, 73, 63
1, 357792, Note_off_c, 0, 57, 63
1, 357820, Note_on_c, 0, 51, 81
1, 357875, Note_on_c, 0, 49, 55
1, 357895, Note_off_c, 0, 51, 63
1, 357904, Note_on_c, 0, 48, 55
1, 357930, Note_off_c, 0, 48, 55
1, 357940, Note_on_c, 0, 58, 80
1, 357946, Note_off_c, 0, 49, 64
1, 357950, Note_on_c, 0, 63, 90
1, 357953, Note_on_c, 0, 75, 91
1, 358017, Note_on_c, 0, 51, 75
1, 358057, Note_off_c, 0, 58, 56
1, 358077, Note_on_c, 0, 49, 78
1, 358085, Note_off_c, 0, 63, 57
1, 358119, Note_off_c, 0, 75, 61
1, 358159, Note_off_c, 0, 51, 60
1, 358183, Note_on_c, 0, 44, 83
1, 358186, Note_on_c, 0, 75, 87
1, 358187, Note_off_c, 0, 49, 62
1, 358188, Note_on_c, 0, 63, 92
1, 358192, Note_on_c, 0, 73, 77
1, 358200, Control_c, 0, 64, 65
1, 358212, Note_off_c, 0, 44, 65
1, 358215, Control_c, 0, 64, 46
1, 358230, Control_c, 0, 64, 62
1, 358234, Note_on_c, 0, 46, 36
1, 358245, Control_c, 0, 64, 98
1, 358259, Control_c, 0, 64, 127
1, 358266, Note_off_c, 0, 46, 34
1, 358269, Note_on_c, 0, 51, 46
1, 358284, Note_on_c, 0, 56, 82
1, 358296, Note_off_c, 0, 51, 58
1, 358310, Note_off_c, 0, 63, 56
1, 358374, Note_off_c, 0, 56, 63
1, 358390, Note_on_c, 0, 63, 81
1, 358397, Note_off_c, 0, 75, 60
1, 358412, Note_on_c, 0, 69, 93
1, 358427, Note_off_c, 0, 73, 65
1, 358458, Note_off_c, 0, 69, 67
1, 358464, Note_on_c, 0, 56, 80
1, 358476, Note_off_c, 0, 63, 60
1, 358525, Note_on_c, 0, 51, 82
1, 358554, Note_on_c, 0, 53, 58
1, 358556, Note_off_c, 0, 56, 61
1, 358594, Note_off_c, 0, 53, 56
1, 358602, Note_on_c, 0, 63, 83
1, 358619, Note_on_c, 0, 80, 76
1, 358619, Note_on_c, 0, 75, 35
1, 358620, Note_on_c, 0, 68, 97
1, 358623, Note_off_c, 0, 51, 62
1, 358647, Note_off_c, 0, 75, 57
1, 358684, Note_on_c, 0, 56, 81
1, 358697, Note_off_c, 0, 63, 56
1, 358756, Note_on_c, 0, 51, 77
1, 358763, Note_off_c, 0, 68, 56
1, 358778, Note_on_c, 0, 54, 53
1, 358800, Note_off_c, 0, 80, 61
1, 358810, Note_off_c, 0, 56, 61
1, 358837, Note_off_c, 0, 54, 52
1, 358874, Note_on_c, 0, 75, 54
1, 358879, Note_on_c, 0, 80, 95
1, 358881, Note_on_c, 0, 68, 99
1, 358883, Note_on_c, 0, 73, 87
1, 358885, Note_on_c, 0, 46, 87
1, 358897, Note_off_c, 0, 51, 64
1, 358901, Poly_aftertouch_c, 0, 54, 0
1, 358906, Control_c, 0, 64, 67
1, 358921, Control_c, 0, 64, 0
1, 358935, Control_c, 0, 64, 27
1, 358950, Control_c, 0, 64, 80
1, 358965, Control_c, 0, 64, 127
1, 358968, Note_on_c, 0, 51, 79
1, 358986, Note_off_c, 0, 46, 63
1, 359025, Note_off_c, 0, 68, 56
1, 359026, Note_off_c, 0, 80, 58
1, 359029, Poly_aftertouch_c, 0, 77, 127
1, 359046, Note_on_c, 0, 55, 70
1, 359076, Poly_aftertouch_c, 0, 77, 0
1, 359100, Note_off_c, 0, 51, 62
1, 359127, Note_on_c, 0, 67, 102
1, 359129, Note_on_c, 0, 79, 97
1, 359144, Note_on_c, 0, 62, 78
1, 359145, Note_off_c, 0, 55, 63
1, 359166, Note_off_c, 0, 75, 63
1, 359176, Note_off_c, 0, 73, 66
1, 359177, Note_off_c, 0, 67, 67
1, 359209, Note_off_c, 0, 79, 65
1, 359215, Note_off_c, 0, 62, 61
1, 359236, Note_on_c, 0, 55, 76
1, 359280, Note_on_c, 0, 51, 77
1, 359308, Note_on_c, 0, 75, 46
1, 359346, Note_off_c, 0, 75, 57
1, 359377, Note_off_c, 0, 55, 62
1, 359380, Note_on_c, 0, 73, 97
1, 359380, Note_on_c, 0, 79, 33
1, 359380, Note_on_c, 0, 85, 103
1, 359392, Note_on_c, 0, 63, 86
1, 359397, Note_off_c, 0, 51, 63
1, 359400, Note_on_c, 0, 75, 55
1, 359409, Note_off_c, 0, 79, 58
1, 359440, Note_off_c, 0, 75, 47
1, 359473, Poly_aftertouch_c, 0, 81, 127
1, 359481, Note_on_c, 0, 54, 60
1, 359486, Note_off_c, 0, 63, 62
1, 359491, Note_on_c, 0, 55, 82
1, 359519, Poly_aftertouch_c, 0, 81, 0
1, 359526, Note_off_c, 0, 54, 41
1, 359588, Note_on_c, 0, 51, 82
1, 359600, Note_off_c, 0, 73, 56
1, 359619, Note_off_c, 0, 55, 62
1, 359624, Note_off_c, 0, 85, 61
1, 359770, Note_on_c, 0, 85, 96
1, 359771, Note_on_c, 0, 73, 97
1, 359775, Note_on_c, 0, 75, 84
1, 359776, Note_on_c, 0, 80, 82
1, 359787, Note_on_c, 0, 44, 86
1, 359793, Note_off_c, 0, 51, 64
1, 359905, Control_c, 0, 64, 74
1, 359912, Note_off_c, 0, 44, 62
1, 359913, Note_on_c, 0, 51, 76
1, 359920, Control_c, 0, 64, 0
1, 359937, Poly_aftertouch_c, 0, 82, 127
1, 359949, Control_c, 0, 64, 40
1, 359958, Note_on_c, 0, 50, 19
1, 359964, Control_c, 0, 64, 65
1, 359979, Control_c, 0, 64, 127
1, 360006, Note_on_c, 0, 56, 77
1, 360011, Note_off_c, 0, 50, 51
1, 360026, Note_off_c, 0, 51, 62
1, 360046, Note_off_c, 0, 73, 60
1, 360104, Note_on_c, 0, 63, 82
1, 360116, Note_off_c, 0, 56, 62
1, 360131, Note_off_c, 0, 75, 57
1, 360163, Note_off_c, 0, 80, 55
1, 360174, Poly_aftertouch_c, 0, 82, 0
1, 360196, Note_on_c, 0, 56, 79
1, 360208, Note_off_c, 0, 85, 60
1, 360229, Note_off_c, 0, 63, 59
1, 360271, Note_on_c, 0, 51, 85
1, 360322, Note_off_c, 0, 56, 61
1, 360348, Note_off_c, 0, 51, 64
1, 360365, Note_on_c, 0, 75, 83
1, 360367, Note_on_c, 0, 84, 90
1, 360368, Note_on_c, 0, 72, 98
1, 360368, Note_on_c, 0, 80, 80
1, 360396, Note_on_c, 0, 68, 89
1, 360486, Note_on_c, 0, 63, 77
1, 360524, Note_off_c, 0, 68, 49
1, 360572, Note_off_c, 0, 75, 59
1, 360593, Note_on_c, 0, 56, 67
1, 360615, Note_off_c, 0, 63, 63
1, 360632, Note_off_c, 0, 56, 63
1, 360639, Note_off_c, 0, 72, 30
1, 360670, Note_off_c, 0, 84, 28
1, 360787, Note_on_c, 0, 46, 79
1, 360789, Note_on_c, 0, 84, 84
1, 360793, Note_on_c, 0, 78, 80
1, 360796, Note_on_c, 0, 72, 83
1, 360846, Control_c, 0, 64, 84
1, 360861, Control_c, 0, 64, 52
1, 360876, Control_c, 0, 64, 46
1, 360883, Note_off_c, 0, 80, 60
1, 360891, Control_c, 0, 64, 78
1, 360900, Note_on_c, 0, 49, 79
1, 360906, Control_c, 0, 64, 127
1, 360920, Note_off_c, 0, 46, 64
1, 360926, Note_off_c, 0, 78, 66
1, 360961, Note_off_c, 0, 84, 64
1, 360977, Note_off_c, 0, 72, 62
1, 360992, Note_on_c, 0, 54, 70
1, 361013, Note_off_c, 0, 49, 63
1, 361067, Note_off_c, 0, 54, 62
1, 361077, Note_on_c, 0, 61, 82
1, 361078, Note_on_c, 0, 82, 89
1, 361079, Note_on_c, 0, 70, 89
1, 361159, Note_on_c, 0, 54, 83
1, 361165, Note_off_c, 0, 61, 59
1, 361170, Note_off_c, 0, 82, 63
1, 361174, Note_off_c, 0, 70, 62
1, 361224, Note_on_c, 0, 49, 72
1, 361235, Note_off_c, 0, 54, 64
1, 361261, Note_on_c, 0, 61, 74
1, 361269, Note_on_c, 0, 66, 96
1, 361272, Note_on_c, 0, 78, 91
1, 361278, Note_off_c, 0, 49, 63
1, 361316, Note_off_c, 0, 61, 64
1, 361317, Note_on_c, 0, 54, 74
1, 361328, Note_off_c, 0, 78, 63
1, 361350, Note_off_c, 0, 66, 59
1, 361380, Note_off_c, 0, 54, 67
1, 361381, Note_on_c, 0, 49, 73
1, 361404, Note_off_c, 0, 49, 68
1, 361474, Note_on_c, 0, 61, 84
1, 361475, Note_on_c, 0, 73, 88
1, 361477, Control_c, 0, 64, 79
1, 361483, Note_on_c, 0, 34, 75
1, 361492, Control_c, 0, 64, 57
1, 361507, Control_c, 0, 64, 65
1, 361518, Note_off_c, 0, 34, 67
1, 361521, Control_c, 0, 64, 120
1, 361537, Control_c, 0, 64, 127
1, 361541, Note_off_c, 0, 73, 66
1, 361564, Note_on_c, 0, 42, 77
1, 361584, Note_off_c, 0, 61, 64
1, 361648, Note_off_c, 0, 42, 63
1, 361660, Note_on_c, 0, 49, 68
1, 361684, Note_on_c, 0, 58, 87
1, 361684, Note_on_c, 0, 70, 90
1, 361736, Note_off_c, 0, 49, 61
1, 361744, Note_on_c, 0, 42, 69
1, 361797, Note_off_c, 0, 42, 62
1, 361816, Note_on_c, 0, 49, 66
1, 361832, Note_off_c, 0, 58, 36
1, 361883, Note_off_c, 0, 49, 62
1, 361886, Note_on_c, 0, 42, 71
1, 361942, Note_off_c, 0, 42, 56
1, 361947, Note_on_c, 0, 49, 68
1, 361959, Note_off_c, 0, 70, 60
1, 361960, Note_on_c, 0, 56, 76
1, 361962, Note_on_c, 0, 68, 73
1, 361970, Note_on_c, 0, 61, 64
1, 361990, Note_off_c, 0, 56, 63
1, 361997, Note_off_c, 0, 61, 68
1, 362003, Note_off_c, 0, 49, 61
1, 362010, Note_off_c, 0, 68, 60
1, 362049, Control_c, 0, 64, 76
1, 362053, Note_on_c, 0, 68, 64
1, 362056, Note_on_c, 0, 56, 83
1, 362062, Note_on_c, 0, 34, 72
1, 362064, Control_c, 0, 64, 42
1, 362064, Note_on_c, 0, 61, 69
1, 362078, Control_c, 0, 64, 0
1, 362093, Control_c, 0, 64, 37
1, 362108, Control_c, 0, 64, 67
1, 362123, Control_c, 0, 64, 127
1, 362125, Note_off_c, 0, 34, 64
1, 362140, Note_on_c, 0, 42, 55
1, 362198, Note_off_c, 0, 42, 62
1, 362204, Note_on_c, 0, 49, 69
1, 362235, Note_off_c, 0, 56, 59
1, 362247, Note_off_c, 0, 61, 57
1, 362270, Note_off_c, 0, 49, 60
1, 362274, Note_on_c, 0, 42, 65
1, 362337, Note_off_c, 0, 42, 63
1, 362360, Note_on_c, 0, 49, 63
1, 362398, Note_off_c, 0, 49, 60
1, 362400, Note_on_c, 0, 54, 75
1, 362402, Note_on_c, 0, 66, 72
1, 362403, Note_on_c, 0, 61, 55
1, 362418, Note_on_c, 0, 42, 64
1, 362445, Note_off_c, 0, 68, 62
1, 362481, Note_on_c, 0, 49, 78
1, 362486, Note_off_c, 0, 42, 59
1, 362553, Note_off_c, 0, 49, 62
1, 362560, Note_on_c, 0, 42, 50
1, 362575, Control_c, 0, 64, 112
1, 362590, Control_c, 0, 64, 64
1, 362602, Note_off_c, 0, 42, 65
1, 362604, Control_c, 0, 64, 24
1, 362606, Note_on_c, 0, 34, 64
1, 362619, Control_c, 0, 64, 0
1, 362634, Control_c, 0, 64, 57
1, 362640, Note_off_c, 0, 61, 53
1, 362649, Control_c, 0, 64, 75
1, 362656, Note_off_c, 0, 34, 64
1, 362664, Control_c, 0, 64, 127
1, 362677, Note_off_c, 0, 54, 50
1, 362691, Note_on_c, 0, 42, 69
1, 362703, Note_off_c, 0, 66, 57
1, 362733, Note_off_c, 0, 42, 62
1, 362775, Note_on_c, 0, 49, 61
1, 362777, Note_on_c, 0, 53, 77
1, 362778, Note_on_c, 0, 65, 72
1, 362793, Note_on_c, 0, 61, 65
1, 362817, Note_on_c, 0, 42, 74
1, 362818, Note_off_c, 0, 49, 63
1, 362865, Note_off_c, 0, 53, 59
1, 362888, Note_off_c, 0, 42, 63
1, 362894, Note_on_c, 0, 49, 76
1, 362910, Note_off_c, 0, 65, 60
1, 362918, Note_off_c, 0, 61, 51
1, 362966, Note_on_c, 0, 42, 59
1, 362979, Note_on_c, 0, 66, 75
1, 362990, Note_on_c, 0, 54, 60
1, 362990, Note_off_c, 0, 49, 61
1, 363003, Note_on_c, 0, 61, 27
1, 363011, Note_off_c, 0, 54, 66
1, 363031, Note_off_c, 0, 42, 59
1, 363032, Note_off_c, 0, 66, 0
1, 363044, Note_off_c, 0, 61, 42
1, 363051, Note_on_c, 0, 34, 74
1, 363062, Note_on_c, 0, 55, 77
1, 363067, Note_on_c, 0, 67, 77
1, 363070, Poly_aftertouch_c, 0, 66, 127
1, 363087, Note_off_c, 0, 34, 64
1, 363094, Control_c, 0, 64, 72
1, 363109, Control_c, 0, 64, 34
1, 363119, Note_on_c, 0, 41, 66
1, 363122, Poly_aftertouch_c, 0, 66, 0
1, 363124, Control_c, 0, 64, 0
1, 363153, Control_c, 0, 64, 46
1, 363161, Note_on_c, 0, 65, 48
1, 363168, Control_c, 0, 64, 76
1, 363173, Note_on_c, 0, 49, 59
1, 363174, Note_off_c, 0, 41, 60
1, 363183, Control_c, 0, 64, 127
1, 363246, Note_on_c, 0, 41, 67
1, 363261, Note_off_c, 0, 49, 62
1, 363284, Note_off_c, 0, 55, 53
1, 363284, Note_off_c, 0, 67, 59
1, 363312, Note_off_c, 0, 65, 54
1, 363329, Note_off_c, 0, 41, 63
1, 363347, Note_on_c, 0, 49, 63
1, 363356, Poly_aftertouch_c, 0, 39, 127
1, 363382, Note_off_c, 0, 49, 61
1, 363397, Note_on_c, 0, 41, 65
1, 363400, Note_on_c, 0, 67, 86
1, 363406, Note_on_c, 0, 55, 82
1, 363459, Note_on_c, 0, 49, 82
1, 363465, Note_off_c, 0, 55, 61
1, 363468, Note_off_c, 0, 41, 62
1, 363516, Note_off_c, 0, 49, 62
1, 363521, Note_on_c, 0, 41, 41
1, 363592, Note_on_c, 0, 36, 81
1, 363595, Note_off_c, 0, 67, 61
1, 363595, Note_off_c, 0, 41, 65
1, 363597, Poly_aftertouch_c, 0, 39, 0
1, 363603, Note_on_c, 0, 68, 87
1, 363614, Note_on_c, 0, 56, 85
1, 363615, Note_on_c, 0, 65, 71
1, 363621, Control_c, 0, 64, 83
1, 363636, Control_c, 0, 64, 48
1, 363650, Control_c, 0, 64, 0
1, 363657, Poly_aftertouch_c, 0, 39, 0
1, 363658, Note_off_c, 0, 36, 63
1, 363678, Note_on_c, 0, 41, 59
1, 363679, Note_on_c, 0, 40, 40
1, 363695, Control_c, 0, 64, 45
1, 363708, Note_off_c, 0, 40, 56
1, 363710, Note_off_c, 0, 41, 65
1, 363710, Control_c, 0, 64, 83
1, 363723, Note_on_c, 0, 48, 79
1, 363724, Control_c, 0, 64, 127
1, 363763, Note_off_c, 0, 65, 55
1, 363774, Note_off_c, 0, 48, 62
1, 363779, Note_off_c, 0, 56, 52
1, 363804, Note_on_c, 0, 49, 81
1, 363855, Note_off_c, 0, 49, 63
1, 363874, Note_on_c, 0, 50, 62
1, 363881, Note_on_c, 0, 48, 57
1, 363902, Note_off_c, 0, 50, 64
1, 363902, Note_off_c, 0, 48, 58
1, 363916, Note_on_c, 0, 69, 85
1, 363920, Note_on_c, 0, 57, 86
1, 363921, Note_on_c, 0, 65, 65
1, 363931, Note_on_c, 0, 51, 85
1, 363988, Note_on_c, 0, 52, 73
1, 363988, Note_off_c, 0, 57, 59
1, 364002, Note_off_c, 0, 51, 63
1, 364013, Note_off_c, 0, 68, 0
1, 364013, Note_on_c, 0, 68, 14
1, 364045, Note_off_c, 0, 52, 65
1, 364046, Note_on_c, 0, 53, 87
1, 364047, Note_off_c, 0, 69, 61
1, 364075, Note_off_c, 0, 65, 34
1, 364095, Poly_aftertouch_c, 0, 66, 127
1, 364101, Note_off_c, 0, 68, 38
1, 364116, Note_off_c, 0, 53, 63
1, 364177, Poly_aftertouch_c, 0, 66, 0
1, 364190, Control_c, 0, 64, 92
1, 364193, Note_on_c, 0, 72, 93
1, 364197, Note_on_c, 0, 60, 88
1, 364197, Note_on_c, 0, 65, 80
1, 364200, Note_on_c, 0, 37, 87
1, 364205, Control_c, 0, 64, 50
1, 364220, Control_c, 0, 64, 0
1, 364249, Control_c, 0, 64, 27
1, 364262, Note_on_c, 0, 36, 5
1, 364264, Control_c, 0, 64, 72
1, 364279, Control_c, 0, 64, 127
1, 364285, Note_off_c, 0, 37, 62
1, 364297, Note_off_c, 0, 36, 31
1, 364306, Note_on_c, 0, 46, 64
1, 364333, Note_off_c, 0, 60, 63
1, 364351, Note_off_c, 0, 46, 63
1, 364363, Note_on_c, 0, 48, 72
1, 364419, Note_off_c, 0, 48, 60
1, 364447, Note_on_c, 0, 49, 67
1, 364480, Note_off_c, 0, 49, 65
1, 364495, Note_off_c, 0, 65, 31
1, 364497, Note_off_c, 0, 72, 56
1, 364516, Note_on_c, 0, 50, 64
1, 364520, Note_on_c, 0, 58, 92
1, 364521, Note_on_c, 0, 70, 89
1, 364547, Note_off_c, 0, 50, 63
1, 364572, Note_on_c, 0, 51, 82
1, 364584, Note_off_c, 0, 58, 59
1, 364638, Note_off_c, 0, 51, 60
1, 364647, Note_on_c, 0, 52, 82
1, 364706, Note_off_c, 0, 52, 64
1, 364724, Control_c, 0, 64, 64
1, 364738, Note_on_c, 0, 40, 79
1, 364739, Control_c, 0, 64, 0
1, 364745, Note_on_c, 0, 73, 90
1, 364747, Note_on_c, 0, 61, 86
1, 364754, Control_c, 0, 64, 46
1, 364762, Note_on_c, 0, 67, 62
1, 364769, Control_c, 0, 64, 79
1, 364775, Note_off_c, 0, 70, 29
1, 364790, Control_c, 0, 64, 127
1, 364823, Note_on_c, 0, 48, 76
1, 364823, Note_off_c, 0, 40, 64
1, 364844, Note_off_c, 0, 73, 66
1, 364847, Note_off_c, 0, 61, 63
1, 364860, Note_off_c, 0, 67, 36
1, 364864, Note_on_c, 0, 49, 68
1, 364888, Note_off_c, 0, 48, 62
1, 364918, Note_on_c, 0, 50, 80
1, 364918, Note_off_c, 0, 49, 64
1, 364918, Note_on_c, 0, 71, 98
1, 364921, Note_on_c, 0, 59, 96
1, 364936, Note_on_c, 0, 67, 60
1, 364958, Note_off_c, 0, 67, 62
1, 364970, Note_off_c, 0, 50, 64
1, 364991, Note_off_c, 0, 59, 61
1, 364996, Note_on_c, 0, 51, 86
1, 365049, Note_off_c, 0, 51, 64
1, 365062, Note_on_c, 0, 67, 76
1, 365066, Note_on_c, 0, 60, 98
1, 365069, Note_on_c, 0, 72, 94
1, 365070, Note_on_c, 0, 53, 90
1, 365094, Note_off_c, 0, 71, 62
1, 365100, Note_off_c, 0, 60, 67
1, 365109, Note_off_c, 0, 53, 64
1, 365112, Note_off_c, 0, 67, 65
1, 365132, Note_off_c, 0, 72, 63
1, 365144, Note_on_c, 0, 54, 86
1, 365171, Note_off_c, 0, 54, 68
1, 365202, Note_on_c, 0, 55, 84
1, 365213, Note_on_c, 0, 53, 11
1, 365237, Note_off_c, 0, 55, 64
1, 365239, Note_off_c, 0, 53, 59
1, 365266, Control_c, 0, 64, 99
1, 365279, Note_on_c, 0, 75, 97
1, 365281, Note_on_c, 0, 63, 97
1, 365282, Control_c, 0, 64, 51
1, 365288, Note_on_c, 0, 68, 81
1, 365290, Note_on_c, 0, 40, 88
1, 365296, Control_c, 0, 64, 0
1, 365311, Control_c, 0, 64, 13
1, 365326, Control_c, 0, 64, 0
1, 365341, Control_c, 0, 64, 22
1, 365343, Note_off_c, 0, 40, 62
1, 365356, Control_c, 0, 64, 90
1, 365370, Control_c, 0, 64, 127
1, 365380, Note_on_c, 0, 49, 73
1, 365411, Note_off_c, 0, 49, 65
1, 365441, Note_on_c, 0, 50, 80
1, 365465, Note_off_c, 0, 63, 60
1, 365491, Note_off_c, 0, 50, 63
1, 365518, Note_on_c, 0, 51, 81
1, 365578, Note_off_c, 0, 51, 65
1, 365578, Note_off_c, 0, 75, 62
1, 365616, Note_on_c, 0, 53, 77
1, 365619, Note_on_c, 0, 73, 85
1, 365624, Note_on_c, 0, 61, 88
1, 365658, Note_off_c, 0, 53, 63
1, 365662, Note_off_c, 0, 68, 56
1, 365690, Note_on_c, 0, 54, 86
1, 365732, Note_off_c, 0, 61, 60
1, 365735, Note_off_c, 0, 54, 63
1, 365753, Note_on_c, 0, 55, 85
1, 365800, Note_off_c, 0, 55, 62
1, 365806, Note_off_c, 0, 73, 58
1, 365829, Note_on_c, 0, 43, 91
1, 365852, Control_c, 0, 64, 81
1, 365867, Control_c, 0, 64, 35
1, 365882, Control_c, 0, 64, 0
1, 365896, Control_c, 0, 64, 34
1, 365905, Note_on_c, 0, 51, 87
1, 365911, Control_c, 0, 64, 70
1, 365915, Note_off_c, 0, 43, 62
1, 365926, Control_c, 0, 64, 127
1, 365984, Note_off_c, 0, 51, 62
1, 365998, Note_on_c, 0, 52, 77
1, 366010, Note_on_c, 0, 63, 96
1, 366010, Note_on_c, 0, 72, 88
1, 366014, Note_on_c, 0, 75, 94
1, 366036, Note_off_c, 0, 52, 65
1, 366051, Note_on_c, 0, 53, 5
1, 366078, Note_on_c, 0, 54, 79
1, 366087, Note_off_c, 0, 63, 62
1, 366106, Note_off_c, 0, 72, 50
1, 366109, Note_off_c, 0, 53, 35
1, 366127, Note_off_c, 0, 54, 65
1, 366139, Note_on_c, 0, 55, 85
1, 366185, Note_off_c, 0, 55, 64
1, 366190, Note_off_c, 0, 75, 62
1, 366213, Note_on_c, 0, 56, 87
1, 366214, Note_on_c, 0, 72, 78
1, 366219, Note_on_c, 0, 76, 100
1, 366221, Note_on_c, 0, 64, 94
1, 366242, Note_on_c, 0, 65, 64
1, 366254, Note_off_c, 0, 56, 66
1, 366255, Note_on_c, 0, 75, 30
1, 366267, Note_off_c, 0, 65, 55
1, 366277, Note_on_c, 0, 57, 85
1, 366298, Note_off_c, 0, 75, 54
1, 366300, Note_off_c, 0, 64, 51
1, 366330, Note_off_c, 0, 72, 54
1, 366358, Note_on_c, 0, 58, 89
1, 366367, Note_off_c, 0, 57, 60
1, 366382, Poly_aftertouch_c, 0, 73, 127
1, 366387, Note_off_c, 0, 76, 61
1, 366415, Note_off_c, 0, 58, 66
1, 366470, Note_on_c, 0, 73, 46
1, 366479, Note_on_c, 0, 65, 92
1, 366483, Control_c, 0, 64, 80
1, 366484, Note_on_c, 0, 77, 90
1, 366489, Note_on_c, 0, 44, 93
1, 366497, Note_on_c, 0, 76, 80
1, 366498, Control_c, 0, 64, 15
1, 366509, Note_on_c, 0, 72, 62
1, 366512, Control_c, 0, 64, 0
1, 366527, Control_c, 0, 64, 47
1, 366531, Note_on_c, 0, 43, 38
1, 366542, Control_c, 0, 64, 71
1, 366553, Note_off_c, 0, 65, 58
1, 366557, Control_c, 0, 64, 127
1, 366561, Note_off_c, 0, 76, 0
1, 366574, Note_off_c, 0, 43, 32
1, 366584, Note_on_c, 0, 53, 75
1, 366595, Note_on_c, 0, 75, 85
1, 366597, Note_off_c, 0, 77, 63
1, 366599, Poly_aftertouch_c, 0, 76, 127
1, 366600, Note_off_c, 0, 44, 62
1, 366608, Note_off_c, 0, 73, 59
1, 366614, Note_off_c, 0, 72, 63
1, 366617, Poly_aftertouch_c, 0, 76, 0
1, 366659, Note_off_c, 0, 53, 64
1, 366662, Note_on_c, 0, 56, 93
1, 366683, Note_on_c, 0, 73, 82
1, 366690, Note_off_c, 0, 75, 63
1, 366713, Note_off_c, 0, 56, 65
1, 366735, Note_off_c, 0, 73, 63
1, 366769, Note_on_c, 0, 70, 99
1, 366771, Note_on_c, 0, 61, 88
1, 366778, Note_on_c, 0, 82, 90
1, 366859, Note_off_c, 0, 82, 62
1, 366868, Note_on_c, 0, 56, 78
1, 366872, Note_on_c, 0, 80, 44
1, 366872, Note_off_c, 0, 61, 65
1, 366905, Note_off_c, 0, 80, 49
1, 366935, Note_off_c, 0, 70, 53
1, 366939, Note_on_c, 0, 65, 83
1, 366951, Note_off_c, 0, 56, 58
1, 366980, Poly_aftertouch_c, 0, 75, 127
1, 367022, Note_off_c, 0, 65, 60
1, 367023, Note_on_c, 0, 61, 89
1, 367037, Note_on_c, 0, 80, 91
1, 367039, Note_on_c, 0, 68, 100
1, 367069, Poly_aftertouch_c, 0, 75, 0
1, 367113, Note_on_c, 0, 56, 79
1, 367119, Note_off_c, 0, 61, 66
1, 367139, Poly_aftertouch_c, 0, 77, 127
1, 367179, Poly_aftertouch_c, 0, 75, 127
1, 367195, Note_on_c, 0, 76, 18
1, 367196, Note_off_c, 0, 56, 63
1, 367203, Note_off_c, 0, 68, 63
1, 367210, Note_on_c, 0, 53, 97
1, 367233, Note_off_c, 0, 80, 57
1, 367268, Note_off_c, 0, 53, 64
1, 367367, Note_on_c, 0, 80, 92
1, 367369, Note_on_c, 0, 68, 93
1, 367376, Note_on_c, 0, 66, 91
1, 367377, Note_on_c, 0, 72, 84
1, 367377, Note_on_c, 0, 32, 93
1, 367395, Note_on_c, 0, 34, 64
1, 367405, Poly_aftertouch_c, 0, 77, 0
1, 367410, Control_c, 0, 64, 65
1, 367422, Note_off_c, 0, 34, 53
1, 367425, Control_c, 0, 64, 0
1, 367443, Poly_aftertouch_c, 0, 77, 127
1, 367455, Control_c, 0, 64, 33
1, 367469, Control_c, 0, 64, 73
1, 367484, Control_c, 0, 64, 127
1, 367488, Note_off_c, 0, 32, 62
1, 367504, Note_on_c, 0, 44, 93
1, 367539, Note_off_c, 0, 44, 63
1, 367623, Note_on_c, 0, 51, 84
1, 367624, Note_off_c, 0, 66, 37
1, 367628, Poly_aftertouch_c, 0, 77, 0
1, 367678, Note_off_c, 0, 51, 63
1, 367686, Note_off_c, 0, 72, 56
1, 367687, Note_off_c, 0, 68, 34
1, 367701, Note_on_c, 0, 60, 88
1, 367741, Note_off_c, 0, 60, 67
1, 367769, Note_off_c, 0, 80, 56
1, 367793, Note_on_c, 0, 56, 90
1, 367820, Note_off_c, 0, 76, 1
1, 367877, Note_off_c, 0, 56, 64
1, 367900, Note_on_c, 0, 66, 86
1, 367935, Poly_aftertouch_c, 0, 76, 127
1, 367955, Note_off_c, 0, 66, 63
1, 367962, Note_on_c, 0, 78, 89
1, 367963, Note_on_c, 0, 72, 90
1, 367970, Note_on_c, 0, 66, 76
1, 367978, Note_on_c, 0, 61, 80
1, 367999, Note_on_c, 0, 60, 85
1, 368020, Note_off_c, 0, 61, 65
1, 368078, Note_on_c, 0, 56, 85
1, 368091, Note_off_c, 0, 60, 64
1, 368165, Poly_aftertouch_c, 0, 76, 0
1, 368184, Note_off_c, 0, 72, 54
1, 368201, Note_on_c, 0, 51, 88
1, 368221, Note_off_c, 0, 56, 65
1, 368236, Note_on_c, 0, 50, 54
1, 368237, Note_off_c, 0, 66, 35
1, 368250, Note_off_c, 0, 51, 63
1, 368260, Note_off_c, 0, 50, 58
1, 368272, Note_off_c, 0, 78, 58
1, 368463, Note_on_c, 0, 37, 91
1, 368474, Note_on_c, 0, 65, 93
1, 368474, Note_on_c, 0, 77, 96
1, 368475, Note_on_c, 0, 73, 89
1, 368501, Control_c, 0, 64, 66
1, 368515, Control_c, 0, 64, 0
1, 368522, Poly_aftertouch_c, 0, 75, 0
1, 368582, Control_c, 0, 64, 44
1, 368597, Control_c, 0, 64, 91
1, 368611, Control_c, 0, 64, 127
1, 368620, Note_on_c, 0, 42, 39
1, 368642, Note_off_c, 0, 73, 67
1, 368644, Note_on_c, 0, 44, 77
1, 368672, Note_off_c, 0, 37, 61
1, 368674, Note_off_c, 0, 42, 56
1, 368676, Note_off_c, 0, 65, 62
1, 368723, Note_off_c, 0, 44, 63
1, 368726, Note_on_c, 0, 49, 84
1, 368740, Note_off_c, 0, 77, 59
1, 368755, Note_off_c, 0, 49, 66
1, 368784, Note_on_c, 0, 65, 84
1, 368825, Note_on_c, 0, 49, 81
1, 368861, Note_off_c, 0, 65, 58
1, 368868, Note_on_c, 0, 68, 86
1, 368898, Note_on_c, 0, 56, 76
1, 368921, Note_off_c, 0, 49, 62
1, 368922, Note_off_c, 0, 68, 68
1, 368925, Poly_aftertouch_c, 0, 67, 0
1, 368937, Note_on_c, 0, 77, 83
1, 368945, Note_on_c, 0, 61, 82
1, 368953, Note_off_c, 0, 56, 63
1, 368966, Note_off_c, 0, 61, 68
1, 368975, Note_off_c, 0, 77, 63
1, 369028, Note_on_c, 0, 77, 75
1, 369035, Note_on_c, 0, 76, 67
1, 369044, Note_on_c, 0, 61, 69
1, 369081, Note_on_c, 0, 60, 47
1, 369090, Note_off_c, 0, 76, 40
1, 369094, Note_on_c, 0, 68, 81
1, 369099, Note_on_c, 0, 80, 92
1, 369109, Note_off_c, 0, 60, 54
1, 369130, Note_off_c, 0, 77, 59
1, 369148, Note_off_c, 0, 61, 61
1, 369205, Note_on_c, 0, 89, 97
1, 369209, Note_on_c, 0, 73, 92
1, 369224, Note_off_c, 0, 80, 64
1, 369228, Note_off_c, 0, 68, 60
1, 369295, Poly_aftertouch_c, 0, 85, 127
1, 369297, Note_off_c, 0, 73, 57
1, 369305, Note_on_c, 0, 68, 75
1, 369313, Note_on_c, 0, 80, 86
1, 369318, Note_off_c, 0, 89, 64
1, 369321, Poly_aftertouch_c, 0, 85, 0
1, 369358, Note_on_c, 0, 61, 73
1, 369360, Note_off_c, 0, 80, 64
1, 369367, Note_off_c, 0, 68, 66
1, 369378, Note_on_c, 0, 77, 83
1, 369382, Note_off_c, 0, 61, 68
1, 369425, Note_off_c, 0, 77, 62
1, 369437, Note_on_c, 0, 61, 85
1, 369461, Note_on_c, 0, 79, 80
1, 369479, Note_on_c, 0, 77, 56
1, 369488, Note_off_c, 0, 79, 60
1, 369508, Note_off_c, 0, 61, 53
1, 369512, Note_off_c, 0, 77, 64
1, 369522, Note_on_c, 0, 56, 81
1, 369541, Note_on_c, 0, 68, 78
1, 369571, Note_on_c, 0, 49, 78
1, 369583, Note_off_c, 0, 68, 61
1, 369597, Note_off_c, 0, 56, 64
1, 369612, Note_on_c, 0, 65, 74
1, 369616, Note_on_c, 0, 67, 66
1, 369616, Note_off_c, 0, 49, 65
1, 369643, Note_off_c, 0, 67, 67
1, 369647, Note_off_c, 0, 65, 64
1, 369654, Note_on_c, 0, 49, 82
1, 369683, Note_on_c, 0, 66, 90
1, 369723, Note_off_c, 0, 66, 64
1, 369729, Note_on_c, 0, 65, 59
1, 369736, Note_on_c, 0, 44, 80
1, 369747, Note_off_c, 0, 65, 66
1, 369755, Note_on_c, 0, 56, 78
1, 369765, Note_on_c, 0, 61, 28
1, 369772, Note_off_c, 0, 49, 49
1, 369788, Note_on_c, 0, 37, 81
1, 369798, Note_off_c, 0, 61, 52
1, 369833, Note_on_c, 0, 53, 92
1, 369849, Note_off_c, 0, 56, 63
1, 369850, Note_off_c, 0, 44, 62
1, 369869, Note_off_c, 0, 37, 62
1, 369877, Control_c, 0, 64, 89
1, 369892, Control_c, 0, 64, 45
1, 369894, Poly_aftertouch_c, 0, 39, 0
1, 369899, Note_off_c, 0, 53, 60
1, 369906, Control_c, 0, 64, 0
1, 369915, Note_on_c, 0, 65, 79
1, 369924, Note_on_c, 0, 37, 78
1, 369924, Note_on_c, 0, 59, 27
1, 369930, Note_on_c, 0, 61, 59
1, 369932, Note_on_c, 0, 64, 63
1, 369936, Control_c, 0, 64, 45
1, 369951, Control_c, 0, 64, 77
1, 369953, Note_on_c, 0, 36, 61
1, 369961, Note_off_c, 0, 61, 64
1, 369965, Note_off_c, 0, 59, 34
1, 369966, Control_c, 0, 64, 127
1, 369981, Note_off_c, 0, 36, 54
1, 369982, Note_off_c, 0, 64, 0
1, 369982, Note_on_c, 0, 64, 39
1, 369994, Note_on_c, 0, 53, 76
1, 370004, Note_on_c, 0, 45, 73
1, 370030, Note_off_c, 0, 37, 59
1, 370043, Note_on_c, 0, 61, 42
1, 370043, Note_off_c, 0, 65, 54
1, 370047, Poly_aftertouch_c, 0, 56, 0
1, 370057, Note_off_c, 0, 64, 37
1, 370060, Note_on_c, 0, 57, 83
1, 370067, Note_off_c, 0, 61, 61
1, 370072, Note_off_c, 0, 53, 63
1, 370078, Note_off_c, 0, 45, 65
1, 370083, Note_on_c, 0, 49, 80
1, 370087, Note_on_c, 0, 56, 3
1, 370107, Note_off_c, 0, 49, 66
1, 370123, Note_off_c, 0, 57, 66
1, 370125, Note_off_c, 0, 56, 33
1, 370149, Note_on_c, 0, 67, 59
1, 370169, Note_off_c, 0, 67, 62
1, 370181, Note_on_c, 0, 49, 72
1, 370196, Note_on_c, 0, 65, 44
1, 370260, Note_off_c, 0, 65, 64
1, 370270, Note_on_c, 0, 69, 93
1, 370283, Note_on_c, 0, 57, 68
1, 370299, Note_off_c, 0, 49, 62
1, 370319, Note_off_c, 0, 57, 64
1, 370320, Note_on_c, 0, 61, 82
1, 370334, Note_off_c, 0, 69, 66
1, 370343, Note_on_c, 0, 77, 82
1, 370345, Note_off_c, 0, 61, 67
1, 370361, Note_off_c, 0, 77, 71
1, 370409, Note_on_c, 0, 77, 100
1, 370436, Note_on_c, 0, 61, 72
1, 370486, Note_on_c, 0, 81, 93
1, 370501, Note_on_c, 0, 69, 83
1, 370507, Note_on_c, 0, 79, 59
1, 370507, Note_off_c, 0, 77, 57
1, 370528, Note_off_c, 0, 79, 41
1, 370552, Note_off_c, 0, 61, 61
1, 370597, Control_c, 0, 64, 66
1, 370603, Note_on_c, 0, 89, 99
1, 370605, Note_on_c, 0, 73, 90
1, 370611, Note_off_c, 0, 81, 62
1, 370611, Control_c, 0, 64, 47
1, 370612, Note_off_c, 0, 69, 60
1, 370626, Control_c, 0, 64, 70
1, 370641, Control_c, 0, 64, 127
1, 370686, Note_on_c, 0, 69, 75
1, 370686, Note_off_c, 0, 73, 62
1, 370689, Note_on_c, 0, 81, 91
1, 370702, Note_off_c, 0, 89, 64
1, 370722, Note_on_c, 0, 61, 70
1, 370738, Note_off_c, 0, 81, 65
1, 370739, Note_off_c, 0, 69, 65
1, 370761, Note_off_c, 0, 61, 66
1, 370763, Note_on_c, 0, 77, 86
1, 370811, Note_off_c, 0, 77, 63
1, 370819, Note_on_c, 0, 61, 77
1, 370841, Note_on_c, 0, 79, 92
1, 370901, Note_on_c, 0, 57, 77
1, 370902, Note_off_c, 0, 79, 62
1, 370907, Note_on_c, 0, 69, 77
1, 370911, Note_off_c, 0, 61, 62
1, 370940, Note_on_c, 0, 56, 16
1, 370954, Note_on_c, 0, 49, 78
1, 370966, Note_off_c, 0, 69, 64
1, 370969, Note_off_c, 0, 57, 65
1, 370980, Note_off_c, 0, 56, 32
1, 370981, Note_on_c, 0, 67, 87
1, 371002, Note_off_c, 0, 49, 64
1, 371023, Note_off_c, 0, 67, 66
1, 371038, Note_on_c, 0, 49, 76
1, 371059, Note_on_c, 0, 67, 77
1, 371106, Note_on_c, 0, 65, 26
1, 371107, Note_off_c, 0, 65, 127
1, 371108, Note_on_c, 0, 44, 74
1, 371125, Note_off_c, 0, 67, 62
1, 371132, Note_on_c, 0, 57, 79
1, 371134, Note_off_c, 0, 49, 50
1, 371146, Note_on_c, 0, 45, 77
1, 371172, Note_on_c, 0, 59, 23
1, 371187, Note_off_c, 0, 44, 61
1, 371190, Note_on_c, 0, 37, 85
1, 371200, Note_off_c, 0, 57, 66
1, 371202, Note_off_c, 0, 45, 64
1, 371218, Note_on_c, 0, 53, 92
1, 371239, Note_off_c, 0, 59, 33
1, 371246, Poly_aftertouch_c, 0, 58, 0
1, 371275, Note_off_c, 0, 37, 62
1, 371289, Note_off_c, 0, 53, 63
1, 371294, Poly_aftertouch_c, 0, 58, 0
1, 371300, Control_c, 0, 64, 74
1, 371309, Note_on_c, 0, 65, 94
1, 371315, Control_c, 0, 64, 0
1, 371327, Note_on_c, 0, 37, 81
1, 371336, Note_on_c, 0, 61, 54
1, 371345, Control_c, 0, 64, 10
1, 371360, Control_c, 0, 64, 57
1, 371364, Note_on_c, 0, 64, 16
1, 371365, Note_off_c, 0, 64, 127
1, 371375, Control_c, 0, 64, 105
1, 371378, Note_on_c, 0, 53, 84
1, 371390, Control_c, 0, 64, 127
1, 371391, Note_off_c, 0, 61, 0
1, 371391, Note_on_c, 0, 61, 38
1, 371408, Note_on_c, 0, 46, 77
1, 371434, Note_off_c, 0, 65, 61
1, 371442, Note_off_c, 0, 37, 52
1, 371446, Note_on_c, 0, 58, 77
1, 371451, Note_off_c, 0, 61, 59
1, 371465, Note_off_c, 0, 53, 63
1, 371485, Note_on_c, 0, 49, 76
1, 371492, Note_off_c, 0, 46, 63
1, 371512, Note_off_c, 0, 49, 67
1, 371513, Note_off_c, 0, 58, 65
1, 371539, Note_on_c, 0, 65, 66
1, 371561, Note_off_c, 0, 65, 67
1, 371587, Note_on_c, 0, 49, 79
1, 371606, Note_on_c, 0, 65, 87
1, 371667, Note_on_c, 0, 58, 74
1, 371671, Note_on_c, 0, 70, 91
1, 371683, Note_off_c, 0, 65, 61
1, 371695, Note_off_c, 0, 49, 62
1, 371725, Note_on_c, 0, 61, 80
1, 371732, Note_off_c, 0, 58, 63
1, 371742, Note_off_c, 0, 70, 64
1, 371748, Note_off_c, 0, 61, 68
1, 371751, Note_on_c, 0, 77, 67
1, 371775, Note_off_c, 0, 77, 66
1, 371815, Note_on_c, 0, 61, 77
1, 371819, Note_on_c, 0, 77, 97
1, 371825, Poly_aftertouch_c, 0, 79, 0
1, 371879, Note_on_c, 0, 70, 81
1, 371892, Note_on_c, 0, 82, 91
1, 371913, Note_off_c, 0, 77, 53
1, 371929, Poly_aftertouch_c, 0, 79, 0
1, 371942, Note_off_c, 0, 61, 61
1, 371999, Note_on_c, 0, 89, 97
1, 372003, Note_on_c, 0, 73, 98
1, 372022, Note_off_c, 0, 70, 63
1, 372022, Note_off_c, 0, 82, 62
1, 372084, Note_on_c, 0, 82, 78
1, 372093, Note_on_c, 0, 70, 81
1, 372102, Note_off_c, 0, 89, 64
1, 372102, Note_off_c, 0, 73, 61
1, 372123, Note_on_c, 0, 61, 67
1, 372142, Note_off_c, 0, 82, 64
1, 372156, Note_off_c, 0, 70, 64
1, 372156, Note_on_c, 0, 77, 85
1, 372177, Note_off_c, 0, 61, 64
1, 372199, Note_off_c, 0, 77, 65
1, 372224, Note_on_c, 0, 61, 70
1, 372237, Poly_aftertouch_c, 0, 77, 0
1, 372242, Note_on_c, 0, 77, 78
1, 372298, Note_off_c, 0, 77, 62
1, 372314, Note_on_c, 0, 58, 80
1, 372317, Note_off_c, 0, 61, 56
1, 372320, Note_on_c, 0, 68, 78
1, 372361, Note_on_c, 0, 49, 80
1, 372370, Note_off_c, 0, 68, 64
1, 372385, Note_off_c, 0, 58, 64
1, 372410, Note_on_c, 0, 65, 66
1, 372412, Note_off_c, 0, 49, 65
1, 372434, Note_off_c, 0, 65, 66
1, 372443, Note_on_c, 0, 64, 23
1, 372445, Note_on_c, 0, 49, 86
1, 372482, Note_off_c, 0, 64, 41
1, 372485, Note_on_c, 0, 65, 81
1, 372498, Note_on_c, 0, 67, 45
1, 372524, Note_off_c, 0, 67, 57
1, 372527, Note_on_c, 0, 46, 77
1, 372544, Note_on_c, 0, 56, 82
1, 372552, Note_off_c, 0, 49, 58
1, 372554, Note_off_c, 0, 65, 56
1, 372565, Note_on_c, 0, 61, 39
1, 372577, Note_on_c, 0, 37, 86
1, 372591, Note_off_c, 0, 61, 57
1, 372624, Note_on_c, 0, 53, 90
1, 372640, Note_off_c, 0, 56, 60
1, 372667, Note_off_c, 0, 46, 58
1, 372668, Note_off_c, 0, 37, 62
1, 372684, Note_off_c, 0, 53, 63
1, 372710, Control_c, 0, 64, 74
1, 372719, Note_on_c, 0, 67, 101
1, 372725, Control_c, 0, 64, 0
1, 372730, Note_on_c, 0, 37, 84
1, 372755, Control_c, 0, 64, 42
1, 372770, Control_c, 0, 64, 66
1, 372770, Note_on_c, 0, 63, 48
1, 372770, Note_on_c, 0, 65, 36
1, 372771, Note_off_c, 0, 65, 127
1, 372785, Control_c, 0, 64, 127
1, 372802, Note_on_c, 0, 53, 81
1, 372814, Note_on_c, 0, 43, 77
1, 372818, Note_off_c, 0, 67, 62
1, 372825, Note_on_c, 0, 55, 57
1, 372828, Note_off_c, 0, 37, 62
1, 372857, Note_on_c, 0, 49, 46
1, 372861, Note_off_c, 0, 55, 0
1, 372872, Note_on_c, 0, 58, 71
1, 372872, Poly_aftertouch_c, 0, 65, 127
1, 372877, Note_on_c, 0, 55, 40
1, 372886, Note_off_c, 0, 43, 63
1, 372888, Note_on_c, 0, 59, 81
1, 372890, Note_off_c, 0, 58, 66
1, 372892, Note_off_c, 0, 63, 41
1, 372895, Note_off_c, 0, 53, 64
1, 372899, Poly_aftertouch_c, 0, 65, 0
1, 372901, Note_off_c, 0, 55, 62
1, 372922, Note_off_c, 0, 49, 63
1, 372940, Note_off_c, 0, 59, 65
1, 372946, Note_on_c, 0, 67, 83
1, 372967, Note_off_c, 0, 67, 70
1, 372996, Note_on_c, 0, 49, 67
1, 373028, Note_on_c, 0, 65, 88
1, 373093, Note_off_c, 0, 65, 61
1, 373095, Note_on_c, 0, 55, 74
1, 373100, Note_on_c, 0, 71, 92
1, 373125, Note_off_c, 0, 49, 63
1, 373145, Note_on_c, 0, 61, 79
1, 373148, Note_off_c, 0, 55, 63
1, 373163, Note_off_c, 0, 71, 67
1, 373171, Note_on_c, 0, 79, 86
1, 373175, Note_off_c, 0, 61, 65
1, 373187, Note_off_c, 0, 79, 72
1, 373247, Note_on_c, 0, 77, 88
1, 373257, Note_on_c, 0, 61, 75
1, 373263, Note_on_c, 0, 79, 65
1, 373284, Note_off_c, 0, 79, 55
1, 373307, Note_on_c, 0, 83, 93
1, 373330, Note_on_c, 0, 67, 84
1, 373336, Note_off_c, 0, 77, 58
1, 373369, Note_off_c, 0, 61, 62
1, 373429, Control_c, 0, 64, 111
1, 373430, Note_on_c, 0, 73, 92
1, 373432, Note_on_c, 0, 91, 98
1, 373444, Note_off_c, 0, 83, 64
1, 373444, Control_c, 0, 64, 65
1, 373457, Note_off_c, 0, 67, 63
1, 373459, Control_c, 0, 64, 68
1, 373473, Control_c, 0, 64, 127
1, 373518, Note_on_c, 0, 83, 90
1, 373524, Note_on_c, 0, 67, 83
1, 373524, Note_off_c, 0, 73, 38
1, 373530, Note_off_c, 0, 91, 65
1, 373567, Note_off_c, 0, 83, 66
1, 373570, Note_on_c, 0, 61, 83
1, 373580, Note_off_c, 0, 67, 63
1, 373598, Note_on_c, 0, 77, 87
1, 373612, Note_off_c, 0, 61, 66
1, 373621, Note_off_c, 0, 77, 67
1, 373668, Note_on_c, 0, 61, 81
1, 373676, Note_on_c, 0, 79, 86
1, 373709, Note_on_c, 0, 77, 52
1, 373727, Note_off_c, 0, 61, 62
1, 373733, Note_on_c, 0, 54, 84
1, 373734, Note_off_c, 0, 79, 62
1, 373739, Note_off_c, 0, 77, 37
1, 373744, Note_on_c, 0, 69, 85
1, 373821, Note_off_c, 0, 69, 61
1, 373825, Note_off_c, 0, 54, 62
1, 373829, Note_on_c, 0, 55, 60
1, 373841, Note_on_c, 0, 49, 84
1, 373842, Note_on_c, 0, 65, 90
1, 373850, Note_off_c, 0, 55, 63
1, 373873, Note_off_c, 0, 49, 66
1, 373900, Note_off_c, 0, 65, 65
1, 373928, Note_on_c, 0, 49, 93
1, 373935, Note_on_c, 0, 68, 73
1, 373943, Note_on_c, 0, 67, 85
1, 373951, Note_off_c, 0, 68, 69
1, 374001, Note_on_c, 0, 57, 75
1, 374009, Note_off_c, 0, 67, 64
1, 374012, Note_on_c, 0, 59, 79
1, 374015, Note_on_c, 0, 43, 81
1, 374028, Note_off_c, 0, 49, 60
1, 374030, Note_off_c, 0, 59, 61
1, 374081, Note_off_c, 0, 57, 64
1, 374094, Note_on_c, 0, 37, 87
1, 374111, Note_off_c, 0, 43, 63
1, 374117, Note_on_c, 0, 52, 81
1, 374117, Note_on_c, 0, 53, 69
1, 374147, Note_off_c, 0, 53, 64
1, 374150, Note_off_c, 0, 37, 64
1, 374150, Note_off_c, 0, 52, 65
1, 374344, Note_on_c, 0, 56, 96
1, 374345, Note_on_c, 0, 48, 94
1, 374345, Note_on_c, 0, 68, 88
1, 374348, Note_on_c, 0, 36, 90
1, 374350, Note_on_c, 0, 65, 83
1, 374353, Note_on_c, 0, 60, 92
1, 374387, Note_on_c, 0, 38, 40
1, 374388, Note_off_c, 0, 38, 127
1, 374400, Control_c, 0, 64, 76
1, 374415, Control_c, 0, 64, 0
1, 374489, Control_c, 0, 64, 60
1, 374500, Note_off_c, 0, 68, 65
1, 374503, Control_c, 0, 64, 92
1, 374518, Control_c, 0, 64, 127
1, 374549, Note_off_c, 0, 56, 61
1, 374557, Note_off_c, 0, 65, 57
1, 374577, Note_off_c, 0, 48, 54
1, 374585, Note_off_c, 0, 60, 60
1, 374618, Note_off_c, 0, 36, 61
1, 374706, Note_on_c, 0, 36, 69
1, 374767, Note_on_c, 0, 48, 69
1, 374807, Note_on_c, 0, 41, 71
1, 374809, Note_off_c, 0, 36, 56
1, 374845, Note_on_c, 0, 53, 69
1, 374852, Note_off_c, 0, 48, 59
1, 374893, Note_on_c, 0, 44, 78
1, 374904, Note_on_c, 0, 56, 76
1, 374907, Note_off_c, 0, 41, 62
1, 374920, Note_off_c, 0, 53, 63
1, 374942, Note_on_c, 0, 47, 74
1, 374964, Note_off_c, 0, 56, 64
1, 374978, Note_off_c, 0, 44, 62
1, 374984, Note_on_c, 0, 59, 79
1, 375008, Note_on_c, 0, 48, 82
1, 375008, Note_off_c, 0, 59, 67
1, 375009, Note_off_c, 0, 47, 63
1, 375043, Note_on_c, 0, 60, 90
1, 375051, Note_off_c, 0, 48, 60
1, 375092, Note_on_c, 0, 53, 80
1, 375115, Note_on_c, 0, 65, 79
1, 375122, Note_on_c, 0, 67, 78
1, 375128, Note_off_c, 0, 60, 60
1, 375166, Note_off_c, 0, 67, 39
1, 375177, Note_on_c, 0, 56, 90
1, 375178, Note_on_c, 0, 68, 88
1, 375192, Note_off_c, 0, 53, 64
1, 375195, Note_off_c, 0, 65, 63
1, 375235, Note_on_c, 0, 59, 84
1, 375253, Control_c, 0, 64, 60
1, 375254, Note_off_c, 0, 68, 66
1, 375259, Note_off_c, 0, 56, 63
1, 375265, Note_on_c, 0, 71, 76
1, 375275, Control_c, 0, 64, 0
1, 375290, Control_c, 0, 64, 41
1, 375302, Note_on_c, 0, 72, 37
1, 375303, Note_off_c, 0, 72, 127
1, 375303, Note_off_c, 0, 71, 67
1, 375305, Note_off_c, 0, 59, 66
1, 375305, Control_c, 0, 64, 82
1, 375317, Note_on_c, 0, 60, 72
1, 375320, Control_c, 0, 64, 127
1, 375342, Note_off_c, 0, 60, 69
1, 375357, Note_on_c, 0, 72, 66
1, 375366, Note_on_c, 0, 74, 65
1, 375395, Note_on_c, 0, 65, 71
1, 375399, Note_on_c, 0, 64, 71
1, 375411, Note_on_c, 0, 77, 91
1, 375417, Note_off_c, 0, 72, 61
1, 375422, Note_off_c, 0, 64, 68
1, 375423, Note_off_c, 0, 74, 59
1, 375462, Note_on_c, 0, 68, 85
1, 375473, Note_off_c, 0, 65, 64
1, 375477, Note_on_c, 0, 80, 87
1, 375506, Note_off_c, 0, 77, 60
1, 375513, Note_on_c, 0, 81, 52
1, 375525, Note_on_c, 0, 71, 78
1, 375527, Control_c, 0, 64, 73
1, 375533, Note_off_c, 0, 68, 66
1, 375542, Control_c, 0, 64, 32
1, 375549, Note_off_c, 0, 80, 61
1, 375557, Control_c, 0, 64, 0
1, 375563, Note_on_c, 0, 83, 72
1, 375566, Note_on_c, 0, 84, 75
1, 375569, Note_off_c, 0, 81, 53
1, 375571, Control_c, 0, 64, 14
1, 375581, Note_off_c, 0, 71, 65
1, 375586, Control_c, 0, 64, 58
1, 375587, Note_on_c, 0, 72, 81
1, 375602, Control_c, 0, 64, 98
1, 375605, Note_off_c, 0, 84, 59
1, 375612, Note_off_c, 0, 83, 66
1, 375617, Control_c, 0, 64, 127
1, 375660, Note_on_c, 0, 76, 77
1, 375661, Note_on_c, 0, 77, 84
1, 375670, Note_off_c, 0, 72, 63
1, 375679, Note_off_c, 0, 77, 70
1, 375686, Note_off_c, 0, 76, 67
1, 375712, Note_on_c, 0, 80, 92
1, 375753, Note_off_c, 0, 80, 61
1, 375868, Control_c, 0, 64, 112
1, 375883, Control_c, 0, 64, 63
1, 375898, Control_c, 0, 64, 0
1, 375911, Note_on_c, 0, 77, 86
1, 375917, Note_on_c, 0, 65, 86
1, 375919, Note_on_c, 0, 49, 82
1, 375920, Note_on_c, 0, 61, 84
1, 375926, Note_on_c, 0, 56, 77
1, 375926, Note_on_c, 0, 68, 77
1, 375972, Control_c, 0, 64, 66
1, 375980, Note_off_c, 0, 61, 63
1, 375980, Note_off_c, 0, 77, 59
1, 375987, Control_c, 0, 64, 127
1, 375994, Note_off_c, 0, 65, 62
1, 376028, Note_off_c, 0, 49, 63
1, 376039, Note_on_c, 0, 71, 34
1, 376046, Note_off_c, 0, 68, 60
1, 376073, Note_off_c, 0, 71, 50
1, 376083, Control_c, 0, 64, 63
1, 376098, Control_c, 0, 64, 0
1, 376108, Note_on_c, 0, 61, 91
1, 376109, Note_on_c, 0, 59, 93
1, 376113, Note_on_c, 0, 47, 92
1, 376116, Note_off_c, 0, 56, 33
1, 376122, Note_on_c, 0, 73, 78
1, 376132, Note_on_c, 0, 51, 61
1, 376142, Control_c, 0, 64, 52
1, 376154, Note_off_c, 0, 51, 59
1, 376157, Control_c, 0, 64, 114
1, 376158, Note_off_c, 0, 61, 64
1, 376165, Note_off_c, 0, 59, 52
1, 376172, Control_c, 0, 64, 127
1, 376190, Note_off_c, 0, 73, 64
1, 376195, Note_off_c, 0, 47, 63
1, 376261, Control_c, 0, 64, 61
1, 376275, Control_c, 0, 64, 0
1, 376285, Note_on_c, 0, 58, 93
1, 376290, Note_on_c, 0, 46, 88
1, 376290, Note_on_c, 0, 66, 100
1, 376290, Control_c, 0, 64, 54
1, 376297, Note_on_c, 0, 77, 76
1, 376305, Control_c, 0, 64, 127
1, 376310, Note_on_c, 0, 75, 70
1, 376326, Note_on_c, 0, 76, 60
1, 376328, Note_off_c, 0, 75, 64
1, 376353, Note_off_c, 0, 76, 53
1, 376356, Note_off_c, 0, 46, 66
1, 376358, Note_off_c, 0, 77, 60
1, 376370, Note_off_c, 0, 66, 57
1, 376398, Note_off_c, 0, 58, 63
1, 376482, Note_on_c, 0, 64, 100
1, 376484, Control_c, 0, 64, 63
1, 376486, Note_on_c, 0, 52, 84
1, 376486, Note_on_c, 0, 76, 94
1, 376487, Note_on_c, 0, 60, 98
1, 376492, Note_on_c, 0, 48, 94
1, 376496, Note_on_c, 0, 67, 70
1, 376499, Control_c, 0, 64, 0
1, 376502, Note_on_c, 0, 55, 60
1, 376507, Note_on_c, 0, 51, 58
1, 376514, Control_c, 0, 64, 29
1, 376524, Note_off_c, 0, 67, 69
1, 376528, Note_off_c, 0, 64, 65
1, 376529, Control_c, 0, 64, 73
1, 376534, Note_off_c, 0, 51, 54
1, 376544, Control_c, 0, 64, 127
1, 376557, Note_off_c, 0, 76, 65
1, 376559, Note_off_c, 0, 55, 0
1, 376566, Note_off_c, 0, 60, 62
1, 376587, Note_off_c, 0, 48, 63
1, 376588, Note_off_c, 0, 52, 62
1, 376606, Poly_aftertouch_c, 0, 55, 0
1, 376618, Poly_aftertouch_c, 0, 50, 0
1, 376693, Note_on_c, 0, 55, 96
1, 376698, Note_on_c, 0, 58, 95
1, 376698, Note_on_c, 0, 72, 96
1, 376698, Note_on_c, 0, 84, 98
1, 376701, Note_on_c, 0, 46, 92
1, 376741, Note_off_c, 0, 58, 64
1, 376751, Note_off_c, 0, 55, 65
1, 376796, Note_off_c, 0, 46, 65
1, 376812, Note_on_c, 0, 78, 55
1, 376824, Note_off_c, 0, 72, 56
1, 376841, Note_off_c, 0, 84, 56
1, 376854, Note_off_c, 0, 78, 51
1, 376865, Note_on_c, 0, 80, 19
1, 376946, Poly_aftertouch_c, 0, 78, 127
1, 376963, Note_off_c, 0, 80, 0
1, 377000, Poly_aftertouch_c, 0, 80, 127
1, 377038, Poly_aftertouch_c, 0, 80, 0
1, 377039, Control_c, 0, 64, 93
1, 377043, Note_on_c, 0, 77, 99
1, 377044, Note_on_c, 0, 44, 92
1, 377044, Note_on_c, 0, 84, 95
1, 377046, Note_on_c, 0, 72, 96
1, 377048, Note_on_c, 0, 53, 88
1, 377050, Note_on_c, 0, 56, 102
1, 377054, Control_c, 0, 64, 50
1, 377064, Note_on_c, 0, 80, 27
1, 377065, Poly_aftertouch_c, 0, 78, 0
1, 377069, Control_c, 0, 64, 0
1, 377095, Note_on_c, 0, 79, 4
1, 377096, Note_off_c, 0, 79, 127
1, 377096, Note_off_c, 0, 80, 48
1, 377098, Control_c, 0, 64, 33
1, 377105, Note_on_c, 0, 48, 24
1, 377113, Note_off_c, 0, 56, 61
1, 377113, Control_c, 0, 64, 66
1, 377126, Note_off_c, 0, 84, 65
1, 377128, Control_c, 0, 64, 124
1, 377143, Control_c, 0, 64, 127
1, 377149, Note_off_c, 0, 53, 64
1, 377152, Note_off_c, 0, 48, 29
1, 377160, Note_off_c, 0, 72, 58
1, 377167, Note_on_c, 0, 78, 37
1, 377185, Note_off_c, 0, 44, 62
1, 377190, Note_off_c, 0, 77, 60
1, 377197, Note_off_c, 0, 78, 55
1, 377444, Note_on_c, 0, 36, 73
1, 377518, Note_on_c, 0, 48, 76
1, 377557, Note_off_c, 0, 36, 62
1, 377560, Note_on_c, 0, 41, 72
1, 377588, Note_on_c, 0, 53, 72
1, 377596, Note_off_c, 0, 48, 59
1, 377649, Note_on_c, 0, 44, 82
1, 377653, Note_on_c, 0, 56, 76
1, 377656, Note_off_c, 0, 41, 63
1, 377661, Note_off_c, 0, 53, 60
1, 377701, Note_on_c, 0, 47, 78
1, 377711, Note_off_c, 0, 56, 63
1, 377718, Note_on_c, 0, 59, 84
1, 377733, Note_off_c, 0, 44, 61
1, 377744, Control_c, 0, 64, 90
1, 377759, Note_off_c, 0, 59, 67
1, 377759, Control_c, 0, 64, 65
1, 377764, Note_on_c, 0, 48, 77
1, 377766, Note_off_c, 0, 47, 63
1, 377773, Control_c, 0, 64, 74
1, 377788, Control_c, 0, 64, 127
1, 377796, Note_on_c, 0, 60, 86
1, 377798, Note_off_c, 0, 48, 61
1, 377852, Note_on_c, 0, 53, 81
1, 377859, Note_on_c, 0, 65, 90
1, 377885, Note_off_c, 0, 60, 61
1, 377928, Note_on_c, 0, 68, 84
1, 377932, Note_on_c, 0, 56, 85
1, 377951, Note_off_c, 0, 53, 61
1, 377951, Control_c, 0, 64, 100
1, 377954, Note_off_c, 0, 65, 60
1, 377966, Control_c, 0, 64, 64
1, 377980, Control_c, 0, 64, 0
1, 377996, Control_c, 0, 64, 26
1, 378006, Note_on_c, 0, 59, 79
1, 378006, Note_off_c, 0, 68, 65
1, 378008, Note_on_c, 0, 71, 82
1, 378010, Control_c, 0, 64, 70
1, 378017, Note_off_c, 0, 56, 63
1, 378025, Control_c, 0, 64, 127
1, 378047, Note_off_c, 0, 71, 65
1, 378049, Note_on_c, 0, 60, 80
1, 378051, Note_off_c, 0, 59, 66
1, 378093, Note_off_c, 0, 60, 66
1, 378094, Note_on_c, 0, 72, 77
1, 378100, Note_on_c, 0, 74, 76
1, 378139, Note_on_c, 0, 65, 81
1, 378150, Note_off_c, 0, 72, 60
1, 378155, Note_on_c, 0, 77, 92
1, 378176, Note_off_c, 0, 74, 61
1, 378221, Note_on_c, 0, 68, 87
1, 378233, Control_c, 0, 64, 88
1, 378237, Note_on_c, 0, 80, 68
1, 378238, Note_on_c, 0, 81, 81
1, 378243, Note_off_c, 0, 65, 64
1, 378248, Control_c, 0, 64, 52
1, 378258, Note_off_c, 0, 77, 59
1, 378270, Control_c, 0, 64, 0
1, 378290, Note_off_c, 0, 68, 66
1, 378294, Note_on_c, 0, 71, 82
1, 378299, Control_c, 0, 64, 48
1, 378312, Note_off_c, 0, 80, 62
1, 378314, Note_on_c, 0, 83, 78
1, 378314, Control_c, 0, 64, 98
1, 378317, Note_off_c, 0, 81, 64
1, 378329, Control_c, 0, 64, 127
1, 378341, Note_off_c, 0, 71, 65
1, 378347, Note_on_c, 0, 72, 83
1, 378365, Note_off_c, 0, 83, 67
1, 378419, Note_on_c, 0, 77, 97
1, 378435, Note_off_c, 0, 72, 65
1, 378447, Note_off_c, 0, 77, 66
1, 378466, Note_on_c, 0, 80, 98
1, 378478, Note_on_c, 0, 92, 61
1, 378495, Note_off_c, 0, 92, 45
1, 378499, Note_on_c, 0, 90, 44
1, 378502, Note_off_c, 0, 80, 65
1, 378522, Note_off_c, 0, 90, 58
1, 378654, Note_on_c, 0, 73, 12
1, 378691, Poly_aftertouch_c, 0, 61, 0
1, 378699, Control_c, 0, 64, 114
1, 378714, Control_c, 0, 64, 54
1, 378715, Note_on_c, 0, 61, 35
1, 378721, Note_on_c, 0, 77, 77
1, 378723, Note_on_c, 0, 49, 78
1, 378727, Note_off_c, 0, 73, 0
1, 378727, Note_on_c, 0, 73, 27
1, 378728, Note_on_c, 0, 65, 78
1, 378728, Note_on_c, 0, 68, 73
1, 378729, Control_c, 0, 64, 0
1, 378732, Note_on_c, 0, 56, 78
1, 378764, Note_off_c, 0, 77, 64
1, 378767, Note_off_c, 0, 61, 64
1, 378774, Control_c, 0, 64, 54
1, 378781, Note_off_c, 0, 56, 65
1, 378790, Control_c, 0, 64, 127
1, 378792, Note_off_c, 0, 65, 65
1, 378798, Note_off_c, 0, 73, 62
1, 378802, Note_off_c, 0, 49, 64
1, 378804, Note_off_c, 0, 68, 63
1, 378980, Note_on_c, 0, 56, 60
1, 378982, Control_c, 0, 64, 70
1, 378985, Note_on_c, 0, 47, 76
1, 378994, Note_on_c, 0, 35, 68
1, 378995, Note_on_c, 0, 64, 47
1, 378997, Control_c, 0, 64, 31
1, 379000, Note_on_c, 0, 52, 50
1, 379012, Control_c, 0, 64, 0
1, 379022, Note_on_c, 0, 53, 29
1, 379025, Note_on_c, 0, 65, 20
1, 379026, Note_off_c, 0, 65, 127
1, 379035, Note_off_c, 0, 56, 53
1, 379037, Note_off_c, 0, 52, 54
1, 379045, Note_off_c, 0, 64, 62
1, 379048, Note_off_c, 0, 53, 49
1, 379064, Control_c, 0, 64, 57
1, 379074, Note_off_c, 0, 35, 62
1, 379074, Note_off_c, 0, 47, 61
1, 379079, Control_c, 0, 64, 88
1, 379093, Control_c, 0, 64, 127
1, 379172, Note_on_c, 0, 54, 78
1, 379174, Note_on_c, 0, 66, 76
1, 379180, Note_on_c, 0, 46, 83
1, 379191, Note_on_c, 0, 34, 75
1, 379233, Note_off_c, 0, 54, 63
1, 379247, Note_off_c, 0, 46, 63
1, 379253, Note_off_c, 0, 34, 62
1, 379256, Note_off_c, 0, 66, 60
1, 379316, Control_c, 0, 64, 88
1, 379330, Note_on_c, 0, 55, 76
1, 379331, Note_on_c, 0, 64, 75
1, 379331, Control_c, 0, 64, 60
1, 379334, Note_on_c, 0, 48, 88
1, 379338, Note_on_c, 0, 60, 49
1, 379340, Note_on_c, 0, 36, 82
1, 379345, Control_c, 0, 64, 66
1, 379360, Control_c, 0, 64, 115
1, 379364, Note_off_c, 0, 55, 63
1, 379367, Note_off_c, 0, 60, 67
1, 379375, Control_c, 0, 64, 127
1, 379378, Note_on_c, 0, 57, 22
1, 379379, Note_off_c, 0, 57, 127
1, 379388, Note_off_c, 0, 48, 62
1, 379397, Note_off_c, 0, 64, 63
1, 379400, Note_off_c, 0, 36, 63
1, 379417, Poly_aftertouch_c, 0, 57, 0
1, 379474, Note_on_c, 0, 46, 88
1, 379476, Note_on_c, 0, 60, 86
1, 379477, Note_on_c, 0, 72, 93
1, 379484, Note_on_c, 0, 34, 90
1, 379505, Note_on_c, 0, 63, 49
1, 379528, Note_off_c, 0, 60, 63
1, 379533, Note_off_c, 0, 63, 49
1, 379555, Note_off_c, 0, 72, 60
1, 379558, Note_off_c, 0, 46, 58
1, 379576, Note_off_c, 0, 34, 62
1, 379598, Control_c, 0, 64, 97
1, 379613, Control_c, 0, 64, 55
1, 379628, Control_c, 0, 64, 0
1, 379638, Note_on_c, 0, 44, 96
1, 379638, Note_on_c, 0, 60, 90
1, 379638, Note_on_c, 0, 64, 80
1, 379641, Note_on_c, 0, 67, 70
1, 379642, Control_c, 0, 64, 59
1, 379646, Note_on_c, 0, 32, 86
1, 379647, Note_on_c, 0, 72, 85
1, 379657, Control_c, 0, 64, 127
1, 379691, Note_off_c, 0, 60, 63
1, 379696, Note_off_c, 0, 44, 62
1, 379697, Note_off_c, 0, 32, 66
1, 379699, Note_off_c, 0, 64, 62
1, 379702, Note_off_c, 0, 67, 56
1, 379714, Note_off_c, 0, 72, 62
1, 379790, Note_on_c, 0, 43, 83
1, 379795, Note_on_c, 0, 62, 91
1, 379796, Note_on_c, 0, 31, 87
1, 379802, Note_on_c, 0, 74, 77
1, 379805, Note_on_c, 0, 76, 87
1, 379817, Note_off_c, 0, 76, 73
1, 379825, Note_on_c, 0, 33, 47
1, 379826, Note_off_c, 0, 33, 127
1, 379836, Note_off_c, 0, 62, 66
1, 379843, Note_off_c, 0, 74, 66
1, 379846, Note_off_c, 0, 43, 64
1, 379849, Note_off_c, 0, 31, 63
1, 379918, Note_on_c, 0, 63, 95
1, 379921, Note_on_c, 0, 42, 95
1, 379924, Note_on_c, 0, 75, 95
1, 379932, Note_on_c, 0, 30, 91
1, 379963, Note_on_c, 0, 32, 41
1, 379963, Note_off_c, 0, 63, 63
1, 379978, Note_off_c, 0, 75, 60
1, 379984, Note_off_c, 0, 32, 64
1, 379990, Note_off_c, 0, 42, 63
1, 380010, Note_off_c, 0, 30, 62
1, 380035, Control_c, 0, 64, 73
1, 380049, Control_c, 0, 64, 0
1, 380058, Note_on_c, 0, 66, 94
1, 380061, Note_on_c, 0, 78, 101
1, 380063, Note_on_c, 0, 40, 93
1, 380070, Note_on_c, 0, 28, 89
1, 380079, Control_c, 0, 64, 54
1, 380087, Note_on_c, 0, 30, 64
1, 380094, Control_c, 0, 64, 86
1, 380103, Note_off_c, 0, 66, 63
1, 380109, Control_c, 0, 64, 127
1, 380115, Note_off_c, 0, 30, 65
1, 380117, Note_off_c, 0, 40, 63
1, 380127, Note_off_c, 0, 28, 64
1, 380133, Note_off_c, 0, 78, 61
1, 380190, Note_on_c, 0, 39, 98
1, 380194, Note_on_c, 0, 71, 85
1, 380198, Note_on_c, 0, 27, 91
1, 380200, Note_on_c, 0, 82, 70
1, 380204, Note_on_c, 0, 83, 85
1, 380215, Note_off_c, 0, 71, 69
1, 380217, Note_on_c, 0, 30, 16
1, 380222, Note_off_c, 0, 83, 73
1, 380225, Note_off_c, 0, 39, 64
1, 380228, Note_off_c, 0, 27, 65
1, 380243, Note_off_c, 0, 82, 56
1, 380263, Note_off_c, 0, 30, 28
1, 380316, Control_c, 0, 64, 106
1, 380326, Note_on_c, 0, 68, 99
1, 380331, Control_c, 0, 64, 63
1, 380332, Note_on_c, 0, 50, 97
1, 380332, Note_on_c, 0, 80, 91
1, 380339, Note_on_c, 0, 38, 91
1, 380346, Control_c, 0, 64, 0
1, 380375, Control_c, 0, 64, 57
1, 380389, Note_off_c, 0, 50, 59
1, 380391, Control_c, 0, 64, 84
1, 380392, Note_off_c, 0, 68, 60
1, 380393, Note_off_c, 0, 38, 62
1, 380406, Control_c, 0, 64, 127
1, 380410, Note_off_c, 0, 80, 63
1, 380480, Note_on_c, 0, 49, 98
1, 380493, Note_on_c, 0, 37, 88
1, 380495, Note_on_c, 0, 82, 86
1, 380502, Note_on_c, 0, 73, 73
1, 380506, Note_on_c, 0, 71, 73
1, 380506, Note_on_c, 0, 72, 74
1, 380508, Note_on_c, 0, 39, 61
1, 380526, Note_on_c, 0, 84, 54
1, 380529, Note_off_c, 0, 73, 61
1, 380530, Note_off_c, 0, 72, 65
1, 380535, Note_off_c, 0, 71, 70
1, 380538, Note_off_c, 0, 39, 59
1, 380538, Note_on_c, 0, 83, 43
1, 380554, Note_off_c, 0, 84, 55
1, 380556, Note_off_c, 0, 82, 60
1, 380560, Note_off_c, 0, 83, 58
1, 380569, Note_off_c, 0, 49, 61
1, 380587, Note_off_c, 0, 37, 62
1, 380636, Control_c, 0, 64, 68
1, 380642, Note_on_c, 0, 75, 92
1, 380648, Note_on_c, 0, 87, 93
1, 380649, Note_on_c, 0, 47, 95
1, 380650, Note_on_c, 0, 48, 91
1, 380651, Control_c, 0, 64, 52
1, 380654, Note_on_c, 0, 85, 75
1, 380656, Note_on_c, 0, 35, 89
1, 380656, Note_on_c, 0, 73, 73
1, 380665, Control_c, 0, 64, 72
1, 380678, Note_off_c, 0, 48, 64
1, 380680, Control_c, 0, 64, 127
1, 380684, Note_off_c, 0, 85, 62
1, 380686, Note_on_c, 0, 36, 37
1, 380687, Note_off_c, 0, 36, 127
1, 380691, Note_off_c, 0, 73, 59
1, 380699, Note_off_c, 0, 47, 63
1, 380702, Note_off_c, 0, 75, 63
1, 380708, Note_off_c, 0, 35, 65
1, 380712, Note_off_c, 0, 87, 64
1, 380791, Note_on_c, 0, 46, 96
1, 380794, Note_on_c, 0, 90, 101
1, 380800, Note_on_c, 0, 80, 87
1, 380801, Note_on_c, 0, 34, 91
1, 380802, Note_on_c, 0, 78, 85
1, 380823, Note_off_c, 0, 78, 66
1, 380827, Note_off_c, 0, 80, 61
1, 380841, Note_off_c, 0, 90, 63
1, 380852, Note_off_c, 0, 46, 59
1, 380879, Note_off_c, 0, 34, 63
1, 380908, Poly_aftertouch_c, 0, 79, 0
1, 380938, Note_on_c, 0, 80, 42
1, 380967, Note_off_c, 0, 80, 0
1, 380984, Note_on_c, 0, 80, 64
1, 380987, Note_on_c, 0, 45, 97
1, 380991, Control_c, 0, 64, 63
1, 380991, Note_on_c, 0, 33, 90
1, 380995, Note_on_c, 0, 84, 83
1, 380996, Note_on_c, 0, 76, 91
1, 380996, Note_on_c, 0, 88, 91
1, 381006, Control_c, 0, 64, 0
1, 381015, Note_on_c, 0, 77, 59
1, 381021, Control_c, 0, 64, 20
1, 381025, Note_on_c, 0, 36, 38
1, 381036, Note_off_c, 0, 77, 62
1, 381036, Control_c, 0, 64, 0
1, 381051, Note_off_c, 0, 36, 45
1, 381057, Note_on_c, 0, 79, 57
1, 381065, Control_c, 0, 64, 37
1, 381080, Control_c, 0, 64, 101
1, 381090, Note_off_c, 0, 33, 63
1, 381090, Note_off_c, 0, 80, 37
1, 381095, Note_off_c, 0, 79, 49
1, 381095, Control_c, 0, 64, 127
1, 381095, Note_off_c, 0, 45, 63
1, 381101, Note_off_c, 0, 76, 59
1, 381118, Note_off_c, 0, 88, 65
1, 381144, Note_off_c, 0, 84, 62
1, 381188, Note_on_c, 0, 44, 100
1, 381192, Note_on_c, 0, 77, 102
1, 381194, Note_on_c, 0, 89, 98
1, 381197, Note_on_c, 0, 32, 92
1, 381215, Note_on_c, 0, 79, 53
1, 381216, Note_off_c, 0, 79, 127
1, 381227, Note_off_c, 0, 89, 68
1, 381232, Note_off_c, 0, 32, 64
1, 381233, Note_off_c, 0, 44, 65
1, 381236, Note_off_c, 0, 77, 67
1, 381397, Poly_aftertouch_c, 0, 79, 127
1, 381400, Control_c, 0, 64, 124
1, 381408, Note_on_c, 0, 46, 104
1, 381409, Note_on_c, 0, 73, 110
1, 381411, Note_on_c, 0, 85, 98
1, 381414, Control_c, 0, 64, 64
1, 381415, Note_on_c, 0, 34, 95
1, 381416, Note_on_c, 0, 77, 26
1, 381429, Control_c, 0, 64, 14
1, 381441, Poly_aftertouch_c, 0, 79, 0
1, 381444, Control_c, 0, 64, 50
1, 381446, Note_off_c, 0, 77, 60
1, 381456, Note_off_c, 0, 34, 65
1, 381457, Note_off_c, 0, 46, 65
1, 381459, Control_c, 0, 64, 80
1, 381473, Control_c, 0, 64, 127
1, 381543, Note_off_c, 0, 73, 52
1, 381563, Note_off_c, 0, 85, 65
1, 381730, Note_on_c, 0, 72, 101
1, 381731, Note_on_c, 0, 84, 95
1, 381734, Note_on_c, 0, 48, 97
1, 381734, Note_on_c, 0, 79, 84
1, 381736, Note_on_c, 0, 36, 90
1, 381737, Note_on_c, 0, 77, 93
1, 381781, Note_on_c, 0, 78, 27
1, 381782, Note_off_c, 0, 78, 127
1, 381785, Control_c, 0, 64, 86
1, 381800, Control_c, 0, 64, 59
1, 381809, Poly_aftertouch_c, 0, 40, 0
1, 381814, Control_c, 0, 64, 0
1, 381903, Control_c, 0, 64, 52
1, 381918, Control_c, 0, 64, 80
1, 381933, Control_c, 0, 64, 127
1, 382008, Note_off_c, 0, 84, 62
1, 382036, Note_off_c, 0, 36, 61
1, 382051, Note_off_c, 0, 72, 57
1, 382061, Note_off_c, 0, 48, 57
1, 382112, Note_off_c, 0, 79, 60
1, 382115, Note_off_c, 0, 77, 60
1, 382312, Control_c, 0, 64, 108
1, 382327, Control_c, 0, 64, 88
1, 382341, Control_c, 0, 64, 80
1, 382356, Control_c, 0, 64, 76
1, 382371, Control_c, 0, 64, 74
1, 382386, Control_c, 0, 64, 72
1, 382401, Control_c, 0, 64, 70
1, 382416, Control_c, 0, 64, 66
1, 382431, Control_c, 0, 64, 62
1, 382445, Control_c, 0, 64, 59
1, 382460, Control_c, 0, 64, 56
1, 382475, Control_c, 0, 64, 53
1, 382489, Control_c, 0, 64, 46
1, 382503, Control_c, 0, 64, 37
1, 382518, Control_c, 0, 64, 27
1, 382533, Control_c, 0, 64, 13
1, 382548, Control_c, 0, 64, 0
1, 383328, Note_on_c, 0, 60, 97
1, 383334, Note_on_c, 0, 48, 97
1, 383371, Control_c, 0, 64, 50
1, 383385, Control_c, 0, 64, 78
1, 383400, Note_off_c, 0, 48, 62
1, 383400, Control_c, 0, 64, 127
1, 383423, Note_off_c, 0, 60, 59
1, 383461, Note_on_c, 0, 61, 93
1, 383468, Note_on_c, 0, 49, 101
1, 383530, Note_off_c, 0, 49, 63
1, 383590, Note_on_c, 0, 65, 95
1, 383592, Note_on_c, 0, 53, 98
1, 383602, Note_off_c, 0, 61, 43
1, 383616, Note_on_c, 0, 64, 52
1, 383642, Note_off_c, 0, 53, 69
1, 383647, Note_off_c, 0, 64, 35
1, 383748, Poly_aftertouch_c, 0, 64, 127
1, 383749, Control_c, 0, 64, 65
1, 383764, Control_c, 0, 64, 0
1, 383765, Note_on_c, 0, 48, 101
1, 383765, Note_on_c, 0, 67, 93
1, 383767, Note_on_c, 0, 55, 95
1, 383767, Poly_aftertouch_c, 0, 64, 0
1, 383771, Note_on_c, 0, 36, 92
1, 383771, Note_on_c, 0, 60, 83
1, 383798, Note_on_c, 0, 39, 56
1, 383798, Note_off_c, 0, 65, 64
1, 383805, Note_off_c, 0, 48, 65
1, 383805, Note_on_c, 0, 59, 41
1, 383806, Note_off_c, 0, 59, 127
1, 383809, Control_c, 0, 64, 50
1, 383817, Note_off_c, 0, 60, 66
1, 383817, Note_off_c, 0, 36, 65
1, 383823, Control_c, 0, 64, 99
1, 383828, Note_off_c, 0, 39, 36
1, 383838, Control_c, 0, 64, 127
1, 383870, Note_off_c, 0, 55, 60
1, 383897, Note_off_c, 0, 67, 61
1, 383956, Note_on_c, 0, 62, 69
1, 383964, Note_on_c, 0, 59, 87
1, 383966, Note_on_c, 0, 43, 97
1, 383967, Note_on_c, 0, 67, 87
1, 383969, Note_on_c, 0, 53, 90
1, 383972, Note_on_c, 0, 31, 97
1, 383978, Note_on_c, 0, 55, 84
1, 383990, Note_on_c, 0, 34, 63
1, 383996, Note_on_c, 0, 58, 50
1, 383997, Note_off_c, 0, 58, 127
1, 384002, Note_off_c, 0, 43, 67
1, 384010, Note_off_c, 0, 31, 63
1, 384011, Note_on_c, 0, 65, 31
1, 384018, Note_off_c, 0, 55, 0
1, 384018, Note_on_c, 0, 55, 31
1, 384021, Note_off_c, 0, 34, 53
1, 384043, Note_off_c, 0, 65, 35
1, 384067, Note_off_c, 0, 59, 61
1, 384074, Note_off_c, 0, 53, 60
1, 384082, Note_off_c, 0, 55, 54
1, 384083, Poly_aftertouch_c, 0, 33, 0
1, 384121, Note_off_c, 0, 67, 58
1, 384299, Note_on_c, 0, 60, 95
1, 384300, Note_on_c, 0, 55, 102
1, 384300, Note_on_c, 0, 67, 92
1, 384303, Note_on_c, 0, 36, 102
1, 384306, Note_on_c, 0, 24, 101
1, 384312, Note_on_c, 0, 64, 82
1, 384329, Note_on_c, 0, 27, 64
1, 384345, Note_on_c, 0, 63, 39
1, 384349, Note_off_c, 0, 62, 58
1, 384365, Note_off_c, 0, 27, 45
1, 384379, Control_c, 0, 64, 114
1, 384395, Control_c, 0, 64, 64
1, 384410, Control_c, 0, 64, 0
1, 384513, Control_c, 0, 64, 33
1, 384528, Control_c, 0, 64, 62
1, 384543, Control_c, 0, 64, 72
1, 384557, Control_c, 0, 64, 90
1, 384569, Note_off_c, 0, 24, 59
1, 384572, Control_c, 0, 64, 127
1, 384591, Note_off_c, 0, 63, 11
1, 384603, Note_off_c, 0, 55, 56
1, 384605, Note_off_c, 0, 36, 56
1, 384632, Poly_aftertouch_c, 0, 26, 0
1, 384682, Note_off_c, 0, 60, 58
1, 384708, Note_off_c, 0, 67, 59
1, 384718, Note_off_c, 0, 64, 50
1, 384795, Control_c, 0, 64, 109
1, 384809, Control_c, 0, 64, 96
1, 384824, Control_c, 0, 64, 87
1, 384839, Control_c, 0, 64, 78
1, 384854, Control_c, 0, 64, 73
1, 384869, Control_c, 0, 64, 69
1, 384883, Control_c, 0, 64, 66
1, 384898, Control_c, 0, 64, 65
1, 384913, Control_c, 0, 64, 64
1, 384928, Control_c, 0, 64, 63
1, 384943, Control_c, 0, 64, 61
1, 384957, Control_c, 0, 64, 60
1, 384972, Control_c, 0, 64, 58
1, 384987, Control_c, 0, 64, 57
1, 385009, Control_c, 0, 64, 55
1, 385024, Control_c, 0, 64, 53
1, 385039, Control_c, 0, 64, 49
1, 385054, Control_c, 0, 64, 44
1, 385069, Control_c, 0, 64, 38
1, 385083, Control_c, 0, 64, 35
1, 385098, Control_c, 0, 64, 31
1, 385113, Control_c, 0, 64, 25
1, 385128, Control_c, 0, 64, 14
1, 385143, Control_c, 0, 64, 0
1, 385336, Control_c, 0, 67, 8
1, 385351, Control_c, 0, 67, 8
1, 385366, Control_c, 0, 67, 10
1, 385380, Control_c, 0, 67, 11
1, 385395, Control_c, 0, 67, 12
1, 385410, Control_c, 0, 67, 13
1, 385425, Control_c, 0, 67, 15
1, 385439, Control_c, 0, 67, 17
1, 385454, Control_c, 0, 67, 18
1, 385469, Control_c, 0, 67, 21
1, 385484, Control_c, 0, 67, 24
1, 385498, Control_c, 0, 67, 28
1, 385513, Control_c, 0, 67, 33
1, 385528, Control_c, 0, 67, 40
1, 385543, Control_c, 0, 67, 49
1, 385558, Control_c, 0, 67, 58
1, 385573, Control_c, 0, 67, 66
1, 385587, Control_c, 0, 67, 74
1, 385602, Control_c, 0, 67, 83
1, 385617, Control_c, 0, 67, 93
1, 385631, Control_c, 0, 67, 105
1, 385646, Control_c, 0, 67, 116
1, 385661, Control_c, 0, 67, 121
1, 385676, Control_c, 0, 67, 122
1, 385691, Control_c, 0, 67, 124
1, 385705, Control_c, 0, 67, 127
1, 386040, Control_c, 0, 64, 25
1, 386054, Control_c, 0, 64, 38
1, 386069, Control_c, 0, 64, 45
1, 386084, Control_c, 0, 64, 51
1, 386099, Control_c, 0, 64, 55
1, 386114, Control_c, 0, 64, 58
1, 386128, Control_c, 0, 64, 60
1, 386143, Control_c, 0, 64, 62
1, 386158, Control_c, 0, 64, 64
1, 386173, Control_c, 0, 64, 67
1, 386187, Control_c, 0, 64, 71
1, 386202, Control_c, 0, 64, 77
1, 386217, Control_c, 0, 64, 84
1, 386232, Control_c, 0, 64, 93
1, 386247, Control_c, 0, 64, 103
1, 386261, Control_c, 0, 64, 127
1, 386366, Control_c, 0, 67, 127
1, 386380, Control_c, 0, 67, 126
1, 386454, Control_c, 0, 67, 126
1, 386536, Control_c, 0, 67, 125
1, 386610, Control_c, 0, 67, 125
1, 386655, Control_c, 0, 67, 124
1, 386684, Control_c, 0, 67, 124
1, 386699, Control_c, 0, 67, 123
1, 386758, Control_c, 0, 67, 123
1, 386789, Control_c, 0, 67, 122
1, 386848, Control_c, 0, 67, 122
1, 387357, Note_on_c, 0, 72, 38
1, 387360, Note_on_c, 0, 84, 42
1, 387367, Note_on_c, 0, 55, 31
1, 387370, Note_on_c, 0, 48, 31
1, 387377, Note_on_c, 0, 64, 21
1, 387388, Note_on_c, 0, 79, 38
1, 389236, Note_off_c, 0, 64, 32
1, 389399, Note_off_c, 0, 84, 43
1, 389410, Note_off_c, 0, 79, 36
1, 389421, Note_off_c, 0, 48, 23
1, 389433, Note_off_c, 0, 55, 30
1, 389479, Control_c, 0, 67, 121
1, 389707, Note_off_c, 0, 72, 40
1, 390228, Note_on_c, 0, 79, 47
1, 390242, Note_on_c, 0, 67, 36
1, 390252, Note_on_c, 0, 74, 35
1, 390254, Note_on_c, 0, 65, 38
1, 390259, Note_on_c, 0, 62, 31
1, 390264, Note_on_c, 0, 55, 30
1, 390265, Note_on_c, 0, 48, 30
1, 390267, Poly_aftertouch_c, 0, 71, 127
1, 390414, Control_c, 0, 67, 122
1, 390517, Control_c, 0, 64, 99
1, 390532, Control_c, 0, 64, 74
1, 390532, Control_c, 0, 67, 122
1, 390546, Control_c, 0, 64, 66
1, 390561, Control_c, 0, 64, 66
1, 390576, Control_c, 0, 64, 69
1, 390591, Control_c, 0, 64, 74
1, 390606, Control_c, 0, 64, 82
1, 390620, Control_c, 0, 64, 99
1, 390635, Control_c, 0, 64, 127
1, 391073, Control_c, 0, 67, 123
1, 392089, Control_c, 0, 67, 122
1, 392161, Note_off_c, 0, 62, 26
1, 392252, Note_off_c, 0, 74, 33
1, 392271, Note_off_c, 0, 79, 37
1, 392272, Note_off_c, 0, 55, 25
1, 392279, Poly_aftertouch_c, 0, 71, 0
1, 392314, Note_off_c, 0, 48, 26
1, 392326, Control_c, 0, 67, 122
1, 392417, Note_off_c, 0, 67, 38
1, 392435, Note_off_c, 0, 65, 36
1, 392783, Note_on_c, 0, 64, 28
1, 392785, Note_on_c, 0, 76, 48
1, 392791, Note_on_c, 0, 70, 38
1, 392807, Note_on_c, 0, 67, 40
1, 392808, Note_on_c, 0, 55, 27
1, 392810, Note_on_c, 0, 60, 39
1, 392830, Note_on_c, 0, 48, 32
1, 392986, Control_c, 0, 67, 122
1, 393001, Control_c, 0, 64, 100
1, 393016, Control_c, 0, 64, 80
1, 393030, Control_c, 0, 64, 69
1, 393045, Control_c, 0, 64, 64
1, 393074, Control_c, 0, 64, 67
1, 393089, Control_c, 0, 64, 72
1, 393104, Control_c, 0, 64, 83
1, 393119, Control_c, 0, 64, 107
1, 393134, Control_c, 0, 64, 127
1, 394081, Note_off_c, 0, 60, 27
1, 394252, Note_off_c, 0, 48, 28
1, 394261, Control_c, 0, 67, 122
1, 394272, Note_off_c, 0, 55, 31
1, 394402, Note_off_c, 0, 76, 39
1, 394404, Note_off_c, 0, 67, 42
1, 394581, Note_off_c, 0, 64, 40
1, 394921, Note_on_c, 0, 65, 27
1, 394927, Note_on_c, 0, 74, 42
1, 394939, Note_on_c, 0, 62, 37
1, 394956, Note_on_c, 0, 55, 24
1, 394963, Note_on_c, 0, 48, 22
1, 394969, Note_on_c, 0, 58, 30
1, 395069, Control_c, 0, 67, 122
1, 395076, Note_off_c, 0, 70, 29
1, 395173, Control_c, 0, 64, 84
1, 395188, Control_c, 0, 64, 68
1, 395203, Control_c, 0, 64, 59
1, 395217, Control_c, 0, 64, 54
1, 395233, Control_c, 0, 64, 55
1, 395248, Control_c, 0, 64, 57
1, 395262, Control_c, 0, 64, 61
1, 395277, Control_c, 0, 64, 64
1, 395292, Control_c, 0, 64, 68
1, 395307, Control_c, 0, 64, 72
1, 395322, Control_c, 0, 64, 82
1, 395336, Control_c, 0, 64, 97
1, 395336, Control_c, 0, 67, 123
1, 395351, Control_c, 0, 64, 127
1, 395700, Control_c, 0, 67, 122
1, 395848, Control_c, 0, 67, 123
1, 395922, Control_c, 0, 67, 122
1, 396012, Control_c, 0, 67, 122
1, 396054, Note_off_c, 0, 58, 33
1, 396222, Note_off_c, 0, 55, 33
1, 396241, Control_c, 0, 67, 121
1, 396295, Note_off_c, 0, 48, 22
1, 396359, Control_c, 0, 67, 121
1, 396449, Note_off_c, 0, 74, 34
1, 396449, Control_c, 0, 67, 120
1, 396583, Control_c, 0, 67, 120
1, 396597, Note_off_c, 0, 65, 39
1, 396641, Control_c, 0, 67, 119
1, 396677, Note_off_c, 0, 62, 34
1, 396774, Control_c, 0, 67, 119
1, 396893, Control_c, 0, 67, 118
1, 396966, Control_c, 0, 67, 118
1, 397183, Control_c, 0, 67, 117
1, 397493, Control_c, 0, 67, 118
1, 397502, Note_on_c, 0, 64, 32
1, 397517, Note_on_c, 0, 55, 37
1, 397517, Note_on_c, 0, 60, 31
1, 397518, Note_on_c, 0, 36, 32
1, 397526, Note_on_c, 0, 48, 32
1, 397627, Control_c, 0, 67, 118
1, 397768, Control_c, 0, 67, 119
1, 397827, Control_c, 0, 67, 119
1, 397857, Control_c, 0, 67, 120
1, 397871, Control_c, 0, 64, 109
1, 397886, Control_c, 0, 64, 96
1, 397901, Control_c, 0, 64, 92
1, 397916, Control_c, 0, 64, 90
1, 397931, Control_c, 0, 64, 84
1, 397945, Control_c, 0, 64, 76
1, 397945, Control_c, 0, 67, 120
1, 397961, Control_c, 0, 64, 69
1, 397976, Control_c, 0, 64, 63
1, 397991, Control_c, 0, 64, 60
1, 398006, Control_c, 0, 64, 57
1, 398020, Control_c, 0, 64, 55
1, 398035, Control_c, 0, 64, 52
1, 398050, Control_c, 0, 64, 51
1, 398065, Control_c, 0, 64, 49
1, 398080, Control_c, 0, 64, 47
1, 398094, Control_c, 0, 64, 45
1, 398109, Control_c, 0, 64, 43
1, 398124, Control_c, 0, 64, 42
1, 398139, Control_c, 0, 64, 41
1, 398183, Control_c, 0, 64, 41
1, 398212, Control_c, 0, 64, 41
1, 398228, Control_c, 0, 64, 43
1, 398243, Control_c, 0, 64, 45
1, 398258, Control_c, 0, 64, 48
1, 398273, Control_c, 0, 64, 53
1, 398287, Control_c, 0, 64, 57
1, 398302, Control_c, 0, 64, 61
1, 398317, Control_c, 0, 64, 63
1, 398332, Control_c, 0, 64, 65
1, 398347, Control_c, 0, 64, 66
1, 398361, Control_c, 0, 64, 68
1, 398376, Control_c, 0, 64, 72
1, 398391, Control_c, 0, 64, 77
1, 398406, Control_c, 0, 64, 82
1, 398420, Control_c, 0, 64, 86
1, 398435, Control_c, 0, 64, 89
1, 398450, Control_c, 0, 64, 92
1, 398465, Control_c, 0, 64, 95
1, 398487, Control_c, 0, 64, 102
1, 398502, Control_c, 0, 64, 114
1, 398517, Control_c, 0, 64, 127
1, 398517, Control_c, 0, 67, 120
1, 398814, Control_c, 0, 67, 119
1, 398962, Control_c, 0, 67, 119
1, 398992, Control_c, 0, 67, 118
1, 399051, Control_c, 0, 67, 118
1, 399473, Control_c, 0, 67, 118
1, 399963, Control_c, 0, 67, 118
1, 400015, Control_c, 0, 67, 117
1, 400045, Control_c, 0, 67, 117
1, 400059, Control_c, 0, 67, 116
1, 400074, Control_c, 0, 67, 116
1, 400133, Control_c, 0, 67, 115
1, 400148, Control_c, 0, 67, 113
1, 400163, Control_c, 0, 67, 113
1, 400178, Control_c, 0, 67, 112
1, 400207, Control_c, 0, 67, 112
1, 400222, Control_c, 0, 67, 110
1, 400237, Control_c, 0, 67, 109
1, 400252, Control_c, 0, 67, 109
1, 400266, Control_c, 0, 67, 108
1, 400281, Control_c, 0, 67, 108
1, 400296, Control_c, 0, 67, 106
1, 400310, Control_c, 0, 67, 103
1, 400325, Control_c, 0, 67, 101
1, 400340, Control_c, 0, 67, 100
1, 400371, Control_c, 0, 67, 99
1, 400386, Control_c, 0, 67, 99
1, 400401, Control_c, 0, 67, 96
1, 400415, Control_c, 0, 67, 93
1, 400430, Control_c, 0, 67, 91
1, 400445, Control_c, 0, 67, 90
1, 400460, Control_c, 0, 67, 89
1, 400474, Control_c, 0, 67, 88
1, 400488, Control_c, 0, 67, 85
1, 400503, Control_c, 0, 67, 82
1, 400518, Control_c, 0, 67, 80
1, 400532, Control_c, 0, 67, 77
1, 400547, Control_c, 0, 67, 76
1, 400562, Control_c, 0, 67, 74
1, 400577, Control_c, 0, 67, 71
1, 400592, Control_c, 0, 67, 62
1, 400606, Control_c, 0, 67, 53
1, 400621, Control_c, 0, 67, 46
1, 400636, Control_c, 0, 67, 41
1, 400651, Control_c, 0, 67, 37
1, 400666, Control_c, 0, 67, 34
1, 400680, Control_c, 0, 67, 30
1, 400695, Control_c, 0, 67, 27
1, 400710, Control_c, 0, 67, 24
1, 400732, Control_c, 0, 67, 21
1, 400747, Control_c, 0, 67, 17
1, 400762, Control_c, 0, 67, 13
1, 400777, Control_c, 0, 67, 8
1, 400792, Control_c, 0, 67, 0
1, 402398, Note_off_c, 0, 36, 20
1, 402489, Note_off_c, 0, 55, 28
1, 402492, Note_off_c, 0, 48, 26
1, 402576, Note_off_c, 0, 60, 22
1, 402589, Note_off_c, 0, 64, 23
1, 402675, Control_c, 0, 64, 111
1, 402690, Control_c, 0, 64, 105
1, 402704, Control_c, 0, 64, 102
1, 402719, Control_c, 0, 64, 100
1, 402734, Control_c, 0, 64, 97
1, 402750, Control_c, 0, 64, 93
1, 402765, Control_c, 0, 64, 90
1, 402780, Control_c, 0, 64, 87
1, 402795, Control_c, 0, 64, 86
1, 402809, Control_c, 0, 64, 84
1, 402824, Control_c, 0, 64, 82
1, 402839, Control_c, 0, 64, 80
1, 402854, Control_c, 0, 64, 79
1, 402869, Control_c, 0, 64, 78
1, 402883, Control_c, 0, 64, 76
1, 402898, Control_c, 0, 64, 73
1, 402913, Control_c, 0, 64, 72
1, 402928, Control_c, 0, 64, 71
1, 402943, Control_c, 0, 64, 71
1, 402957, Control_c, 0, 64, 70
1, 402980, Control_c, 0, 64, 69
1, 402995, Control_c, 0, 64, 68
1, 403009, Control_c, 0, 64, 66
1, 403024, Control_c, 0, 64, 65
1, 403039, Control_c, 0, 64, 64
1, 403054, Control_c, 0, 64, 62
1, 403069, Control_c, 0, 64, 60
1, 403083, Control_c, 0, 64, 60
1, 403098, Control_c, 0, 64, 59
1, 403113, Control_c, 0, 64, 58
1, 403127, Control_c, 0, 64, 57
1, 403142, Control_c, 0, 64, 57
1, 403157, Control_c, 0, 64, 56
1, 403172, Control_c, 0, 64, 55
1, 403187, Control_c, 0, 64, 55
1, 403202, Control_c, 0, 64, 54
1, 403217, Control_c, 0, 64, 53
1, 403232, Control_c, 0, 64, 52
1, 403247, Control_c, 0, 64, 51
1, 403261, Control_c, 0, 64, 50
1, 403276, Control_c, 0, 64, 48
1, 403291, Control_c, 0, 64, 47
1, 403306, Control_c, 0, 64, 45
1, 403321, Control_c, 0, 64, 44
1, 403335, Control_c, 0, 64, 42
1, 403350, Control_c, 0, 64, 39
1, 403365, Control_c, 0, 64, 35
1, 403380, Control_c, 0, 64, 31
1, 403395, Control_c, 0, 64, 27
1, 403409, Control_c, 0, 64, 23
1, 403424, Control_c, 0, 64, 20
1, 403439, Control_c, 0, 64, 15
1, 403453, Control_c, 0, 64, 0
1, 404209, Note_on_c, 0, 56, 90
1, 404210, Note_on_c, 0, 29, 92
1, 404259, Note_off_c, 0, 29, 66
1, 404261, Control_c, 0, 64, 51
1, 404275, Control_c, 0, 64, 72
1, 404290, Control_c, 0, 64, 93
1, 404299, Poly_aftertouch_c, 0, 63, 127
1, 404303, Poly_aftertouch_c, 0, 64, 127
1, 404305, Control_c, 0, 64, 127
1, 404315, Note_on_c, 0, 60, 63
1, 404327, Note_on_c, 0, 68, 76
1, 404329, Note_off_c, 0, 56, 60
1, 404337, Poly_aftertouch_c, 0, 63, 0
1, 404351, Poly_aftertouch_c, 0, 64, 0
1, 404424, Note_on_c, 0, 65, 76
1, 404439, Note_off_c, 0, 60, 58
1, 404464, Note_off_c, 0, 68, 58
1, 404522, Note_off_c, 0, 65, 61
1, 404559, Note_on_c, 0, 55, 76
1, 404573, Note_on_c, 0, 49, 80
1, 404625, Control_c, 0, 64, 91
1, 404635, Note_off_c, 0, 55, 60
1, 404640, Control_c, 0, 64, 65
1, 404648, Note_on_c, 0, 59, 75
1, 404653, Note_on_c, 0, 56, 53
1, 404655, Control_c, 0, 64, 56
1, 404658, Note_on_c, 0, 37, 77
1, 404670, Control_c, 0, 64, 66
1, 404671, Note_off_c, 0, 49, 62
1, 404685, Control_c, 0, 64, 86
1, 404688, Note_off_c, 0, 56, 61
1, 404699, Control_c, 0, 64, 127
1, 404715, Note_off_c, 0, 59, 64
1, 404734, Note_off_c, 0, 37, 64
1, 404736, Note_on_c, 0, 53, 83
1, 404751, Note_on_c, 0, 43, 74
1, 404796, Note_off_c, 0, 53, 61
1, 404815, Note_on_c, 0, 36, 83
1, 404815, Note_on_c, 0, 61, 84
1, 404818, Note_off_c, 0, 43, 63
1, 404832, Control_c, 0, 64, 81
1, 404846, Note_off_c, 0, 36, 68
1, 404847, Control_c, 0, 64, 54
1, 404862, Control_c, 0, 64, 0
1, 404877, Note_on_c, 0, 38, 14
1, 404894, Note_on_c, 0, 52, 77
1, 404895, Note_on_c, 0, 60, 80
1, 404907, Control_c, 0, 64, 58
1, 404917, Note_off_c, 0, 38, 31
1, 404922, Control_c, 0, 64, 79
1, 404937, Control_c, 0, 64, 127
1, 404952, Note_off_c, 0, 61, 62
1, 404963, Note_off_c, 0, 52, 61
1, 404974, Note_on_c, 0, 48, 86
1, 404978, Note_off_c, 0, 60, 66
1, 404978, Note_on_c, 0, 67, 87
1, 405049, Note_off_c, 0, 67, 61
1, 405071, Note_off_c, 0, 48, 61
1, 405072, Note_on_c, 0, 60, 93
1, 405074, Note_on_c, 0, 56, 88
1, 405134, Note_off_c, 0, 56, 62
1, 405151, Note_off_c, 0, 60, 58
1, 405155, Note_on_c, 0, 70, 84
1, 405161, Note_on_c, 0, 48, 80
1, 405163, Note_on_c, 0, 65, 75
1, 405232, Note_on_c, 0, 69, 57
1, 405244, Note_off_c, 0, 65, 62
1, 405252, Note_on_c, 0, 68, 88
1, 405266, Note_on_c, 0, 41, 85
1, 405268, Note_off_c, 0, 69, 63
1, 405268, Note_off_c, 0, 70, 62
1, 405282, Note_off_c, 0, 48, 59
1, 405357, Note_off_c, 0, 41, 63
1, 405360, Control_c, 0, 64, 115
1, 405375, Control_c, 0, 64, 66
1, 405390, Control_c, 0, 64, 0
1, 405402, Note_on_c, 0, 67, 86
1, 405407, Note_on_c, 0, 49, 89
1, 405423, Note_off_c, 0, 68, 59
1, 405435, Control_c, 0, 64, 37
1, 405449, Control_c, 0, 64, 65
1, 405464, Control_c, 0, 64, 80
1, 405479, Control_c, 0, 64, 105
1, 405494, Control_c, 0, 64, 127
1, 405515, Note_on_c, 0, 57, 77
1, 405517, Note_on_c, 0, 59, 71
1, 405533, Note_off_c, 0, 67, 61
1, 405533, Note_on_c, 0, 37, 80
1, 405563, Note_off_c, 0, 57, 65
1, 405569, Note_off_c, 0, 59, 63
1, 405583, Note_on_c, 0, 58, 76
1, 405584, Note_off_c, 0, 49, 62
1, 405590, Note_off_c, 0, 37, 64
1, 405644, Note_on_c, 0, 67, 73
1, 405646, Note_off_c, 0, 58, 63
1, 405661, Note_on_c, 0, 38, 75
1, 405667, Note_on_c, 0, 36, 64
1, 405668, Note_on_c, 0, 61, 75
1, 405696, Note_off_c, 0, 36, 53
1, 405696, Note_off_c, 0, 38, 67
1, 405721, Note_off_c, 0, 67, 60
1, 405733, Note_on_c, 0, 52, 84
1, 405737, Note_on_c, 0, 60, 85
1, 405756, Note_off_c, 0, 61, 57
1, 405775, Control_c, 0, 64, 77
1, 405790, Control_c, 0, 64, 45
1, 405804, Control_c, 0, 64, 0
1, 405820, Note_on_c, 0, 48, 82
1, 405825, Note_on_c, 0, 67, 85
1, 405832, Note_off_c, 0, 52, 59
1, 405834, Control_c, 0, 64, 12
1, 405849, Control_c, 0, 64, 60
1, 405849, Note_off_c, 0, 60, 65
1, 405864, Control_c, 0, 64, 86
1, 405879, Control_c, 0, 64, 127
1, 405911, Note_on_c, 0, 41, 85
1, 405916, Note_off_c, 0, 48, 57
1, 405917, Note_on_c, 0, 56, 84
1, 405926, Note_off_c, 0, 67, 62
1, 406008, Note_off_c, 0, 41, 65
1, 406030, Note_on_c, 0, 53, 84
1, 406035, Note_on_c, 0, 68, 54
1, 406043, Note_on_c, 0, 67, 76
1, 406044, Note_on_c, 0, 66, 65
1, 406049, Note_on_c, 0, 62, 62
1, 406050, Control_c, 0, 64, 71
1, 406054, Poly_aftertouch_c, 0, 58, 0
1, 406056, Note_off_c, 0, 56, 62
1, 406064, Note_off_c, 0, 68, 53
1, 406065, Control_c, 0, 64, 31
1, 406079, Control_c, 0, 64, 0
1, 406083, Note_off_c, 0, 66, 54
1, 406089, Note_on_c, 0, 63, 15
1, 406090, Note_off_c, 0, 53, 60
1, 406109, Control_c, 0, 64, 51
1, 406114, Note_on_c, 0, 44, 66
1, 406124, Control_c, 0, 64, 86
1, 406128, Note_on_c, 0, 61, 81
1, 406129, Note_off_c, 0, 63, 29
1, 406139, Control_c, 0, 64, 127
1, 406141, Note_off_c, 0, 62, 62
1, 406183, Note_on_c, 0, 39, 84
1, 406202, Note_off_c, 0, 44, 58
1, 406203, Note_off_c, 0, 61, 64
1, 406207, Note_on_c, 0, 63, 78
1, 406233, Note_off_c, 0, 67, 57
1, 406244, Note_on_c, 0, 64, 53
1, 406247, Note_on_c, 0, 66, 33
1, 406250, Note_off_c, 0, 39, 65
1, 406254, Note_on_c, 0, 61, 69
1, 406263, Note_off_c, 0, 63, 64
1, 406267, Note_off_c, 0, 64, 62
1, 406283, Note_off_c, 0, 66, 42
1, 406287, Note_on_c, 0, 54, 84
1, 406314, Note_on_c, 0, 49, 37
1, 406324, Note_off_c, 0, 61, 64
1, 406333, Note_on_c, 0, 60, 85
1, 406394, Note_on_c, 0, 44, 75
1, 406394, Note_off_c, 0, 54, 59
1, 406402, Note_on_c, 0, 66, 70
1, 406402, Note_on_c, 0, 68, 86
1, 406455, Note_off_c, 0, 49, 22
1, 406469, Note_off_c, 0, 44, 63
1, 406507, Note_off_c, 0, 66, 57
1, 406511, Note_off_c, 0, 68, 62
1, 406578, Note_on_c, 0, 37, 81
1, 406579, Note_on_c, 0, 68, 80
1, 406586, Note_on_c, 0, 66, 78
1, 406603, Note_off_c, 0, 60, 66
1, 406612, Control_c, 0, 64, 81
1, 406627, Control_c, 0, 64, 40
1, 406636, Note_off_c, 0, 37, 65
1, 406642, Control_c, 0, 64, 0
1, 406680, Note_off_c, 0, 68, 64
1, 406684, Note_off_c, 0, 66, 60
1, 406687, Control_c, 0, 64, 50
1, 406687, Note_on_c, 0, 65, 83
1, 406698, Note_on_c, 0, 53, 70
1, 406701, Control_c, 0, 64, 88
1, 406724, Control_c, 0, 64, 127
1, 406827, Note_on_c, 0, 73, 85
1, 406852, Note_on_c, 0, 45, 45
1, 406863, Note_off_c, 0, 53, 56
1, 406868, Note_off_c, 0, 65, 62
1, 406886, Note_off_c, 0, 45, 61
1, 406947, Note_on_c, 0, 43, 70
1, 406947, Control_c, 0, 64, 109
1, 406962, Control_c, 0, 64, 65
1, 406965, Note_on_c, 0, 61, 79
1, 406976, Control_c, 0, 64, 0
1, 407006, Control_c, 0, 64, 24
1, 407021, Control_c, 0, 64, 64
1, 407035, Control_c, 0, 64, 127
1, 407073, Note_on_c, 0, 72, 68
1, 407080, Note_on_c, 0, 44, 70
1, 407082, Note_off_c, 0, 61, 63
1, 407083, Note_on_c, 0, 65, 69
1, 407096, Note_off_c, 0, 43, 59
1, 407110, Note_off_c, 0, 73, 62
1, 407144, Note_off_c, 0, 72, 57
1, 407165, Poly_aftertouch_c, 0, 71, 0
1, 407178, Note_on_c, 0, 46, 77
1, 407185, Note_on_c, 0, 61, 83
1, 407202, Poly_aftertouch_c, 0, 71, 127
1, 407202, Note_off_c, 0, 65, 36
1, 407208, Note_off_c, 0, 44, 58
1, 407235, Note_off_c, 0, 61, 61
1, 407262, Note_on_c, 0, 47, 80
1, 407265, Note_on_c, 0, 65, 73
1, 407271, Note_off_c, 0, 46, 64
1, 407287, Control_c, 0, 64, 90
1, 407291, Note_on_c, 0, 69, 75
1, 407298, Poly_aftertouch_c, 0, 71, 0
1, 407301, Control_c, 0, 64, 57
1, 407316, Control_c, 0, 64, 0
1, 407318, Note_on_c, 0, 68, 51
1, 407330, Note_off_c, 0, 47, 62
1, 407331, Control_c, 0, 64, 16
1, 407346, Control_c, 0, 64, 66
1, 407348, Note_on_c, 0, 48, 82
1, 407358, Note_on_c, 0, 61, 85
1, 407361, Control_c, 0, 64, 127
1, 407387, Note_off_c, 0, 68, 0
1, 407397, Note_off_c, 0, 69, 56
1, 407410, Note_off_c, 0, 48, 62
1, 407423, Note_off_c, 0, 61, 63
1, 407423, Poly_aftertouch_c, 0, 68, 127
1, 407435, Note_on_c, 0, 49, 85
1, 407479, Poly_aftertouch_c, 0, 68, 0
1, 407485, Note_off_c, 0, 65, 64
1, 407501, Note_on_c, 0, 68, 15
1, 407506, Note_on_c, 0, 48, 95
1, 407520, Note_on_c, 0, 58, 93
1, 407527, Note_off_c, 0, 49, 59
1, 407571, Note_off_c, 0, 58, 63
1, 407578, Note_off_c, 0, 68, 41
1, 407610, Note_on_c, 0, 64, 80
1, 407616, Note_on_c, 0, 67, 80
1, 407697, Note_off_c, 0, 48, 31
1, 407700, Note_off_c, 0, 67, 61
1, 407704, Note_on_c, 0, 72, 70
1, 407705, Note_on_c, 0, 74, 75
1, 407718, Note_off_c, 0, 64, 63
1, 407740, Note_off_c, 0, 74, 62
1, 407742, Note_off_c, 0, 72, 56
1, 407769, Control_c, 0, 64, 69
1, 407784, Control_c, 0, 64, 0
1, 407803, Note_on_c, 0, 41, 92
1, 407805, Note_on_c, 0, 68, 92
1, 407843, Control_c, 0, 64, 26
1, 407844, Note_off_c, 0, 41, 65
1, 407858, Control_c, 0, 64, 71
1, 407867, Note_off_c, 0, 68, 63
1, 407873, Control_c, 0, 64, 99
1, 407888, Control_c, 0, 64, 127
1, 407904, Note_on_c, 0, 72, 77
1, 407915, Note_on_c, 0, 80, 77
1, 407993, Note_on_c, 0, 77, 83
1, 407998, Note_off_c, 0, 72, 58
1, 408029, Note_off_c, 0, 80, 60
1, 408067, Note_off_c, 0, 77, 60
1, 408082, Note_on_c, 0, 61, 80
1, 408098, Note_on_c, 0, 67, 86
1, 408161, Note_off_c, 0, 67, 64
1, 408167, Note_on_c, 0, 49, 87
1, 408181, Note_on_c, 0, 68, 70
1, 408181, Note_on_c, 0, 71, 83
1, 408184, Note_on_c, 0, 70, 26
1, 408186, Note_off_c, 0, 61, 57
1, 408228, Note_off_c, 0, 70, 46
1, 408236, Note_off_c, 0, 68, 62
1, 408252, Note_off_c, 0, 71, 60
1, 408253, Note_off_c, 0, 49, 64
1, 408258, Note_on_c, 0, 65, 88
1, 408260, Note_on_c, 0, 55, 80
1, 408324, Control_c, 0, 64, 85
1, 408326, Note_on_c, 0, 48, 92
1, 408328, Note_off_c, 0, 65, 62
1, 408329, Note_off_c, 0, 55, 64
1, 408339, Control_c, 0, 64, 57
1, 408341, Note_on_c, 0, 73, 88
1, 408355, Note_off_c, 0, 48, 66
1, 408355, Control_c, 0, 64, 33
1, 408370, Control_c, 0, 64, 58
1, 408385, Control_c, 0, 64, 78
1, 408399, Control_c, 0, 64, 127
1, 408400, Note_on_c, 0, 64, 82
1, 408419, Note_on_c, 0, 72, 80
1, 408449, Note_off_c, 0, 64, 63
1, 408472, Note_on_c, 0, 60, 88
1, 408476, Note_off_c, 0, 73, 64
1, 408493, Note_on_c, 0, 79, 85
1, 408506, Note_off_c, 0, 72, 63
1, 408541, Note_off_c, 0, 79, 65
1, 408573, Note_on_c, 0, 68, 87
1, 408575, Note_off_c, 0, 60, 63
1, 408579, Note_on_c, 0, 72, 91
1, 408591, Control_c, 0, 64, 73
1, 408606, Control_c, 0, 64, 44
1, 408621, Control_c, 0, 64, 30
1, 408633, Note_off_c, 0, 68, 65
1, 408636, Control_c, 0, 64, 58
1, 408649, Note_on_c, 0, 60, 76
1, 408649, Note_on_c, 0, 82, 87
1, 408651, Control_c, 0, 64, 82
1, 408655, Note_off_c, 0, 72, 58
1, 408658, Note_on_c, 0, 77, 78
1, 408666, Control_c, 0, 64, 127
1, 408693, Note_on_c, 0, 61, 19
1, 408736, Note_on_c, 0, 80, 87
1, 408739, Note_off_c, 0, 61, 38
1, 408746, Note_on_c, 0, 53, 86
1, 408749, Note_off_c, 0, 77, 55
1, 408752, Note_off_c, 0, 60, 65
1, 408766, Note_off_c, 0, 82, 63
1, 408806, Note_off_c, 0, 53, 63
1, 408881, Note_on_c, 0, 61, 77
1, 408883, Note_on_c, 0, 79, 89
1, 408887, Note_off_c, 0, 80, 55
1, 408889, Control_c, 0, 64, 68
1, 408904, Control_c, 0, 64, 37
1, 408919, Control_c, 0, 64, 27
1, 408934, Control_c, 0, 64, 59
1, 408948, Control_c, 0, 64, 86
1, 408963, Control_c, 0, 64, 127
1, 408964, Note_off_c, 0, 79, 62
1, 408979, Note_on_c, 0, 69, 81
1, 408989, Note_on_c, 0, 49, 81
1, 409027, Note_off_c, 0, 69, 61
1, 409033, Note_on_c, 0, 70, 63
1, 409038, Note_off_c, 0, 61, 65
1, 409047, Note_off_c, 0, 49, 64
1, 409066, Note_on_c, 0, 77, 89
1, 409096, Note_off_c, 0, 70, 62
1, 409105, Note_on_c, 0, 48, 87
1, 409130, Note_off_c, 0, 48, 60
1, 409132, Note_on_c, 0, 73, 85
1, 409142, Note_on_c, 0, 50, 47
1, 409146, Note_off_c, 0, 77, 60
1, 409170, Note_off_c, 0, 50, 58
1, 409173, Note_on_c, 0, 75, 30
1, 409183, Note_on_c, 0, 64, 79
1, 409200, Note_on_c, 0, 72, 81
1, 409207, Note_off_c, 0, 75, 46
1, 409208, Note_off_c, 0, 73, 67
1, 409254, Note_on_c, 0, 60, 84
1, 409266, Note_off_c, 0, 64, 60
1, 409280, Note_on_c, 0, 79, 90
1, 409292, Note_off_c, 0, 72, 60
1, 409343, Note_off_c, 0, 60, 55
1, 409345, Note_on_c, 0, 53, 91
1, 409360, Note_on_c, 0, 68, 95
1, 409378, Note_off_c, 0, 79, 61
1, 409401, Control_c, 0, 64, 93
1, 409415, Control_c, 0, 64, 61
1, 409429, Note_off_c, 0, 53, 64
1, 409430, Control_c, 0, 64, 0
1, 409455, Note_on_c, 0, 80, 89
1, 409456, Note_on_c, 0, 75, 87
1, 409462, Note_on_c, 0, 65, 79
1, 409470, Note_off_c, 0, 68, 65
1, 409475, Control_c, 0, 64, 16
1, 409489, Control_c, 0, 64, 69
1, 409504, Control_c, 0, 64, 127
1, 409529, Note_off_c, 0, 65, 63
1, 409544, Note_on_c, 0, 73, 83
1, 409545, Note_on_c, 0, 56, 68
1, 409552, Note_off_c, 0, 75, 63
1, 409608, Note_on_c, 0, 51, 85
1, 409617, Note_on_c, 0, 75, 82
1, 409617, Note_off_c, 0, 73, 63
1, 409638, Note_off_c, 0, 56, 48
1, 409661, Note_on_c, 0, 73, 69
1, 409667, Note_off_c, 0, 51, 65
1, 409681, Note_off_c, 0, 75, 64
1, 409694, Note_off_c, 0, 80, 59
1, 409708, Note_on_c, 0, 66, 82
1, 409733, Note_on_c, 0, 72, 81
1, 409748, Note_off_c, 0, 73, 64
1, 409807, Note_on_c, 0, 80, 93
1, 409809, Note_on_c, 0, 56, 71
1, 409811, Note_on_c, 0, 78, 87
1, 409824, Note_off_c, 0, 66, 60
1, 409839, Note_on_c, 0, 58, 40
1, 409869, Note_off_c, 0, 58, 51
1, 409879, Poly_aftertouch_c, 0, 65, 0
1, 409884, Note_off_c, 0, 56, 63
1, 409896, Note_off_c, 0, 78, 54
1, 409903, Note_off_c, 0, 80, 60
1, 409972, Note_on_c, 0, 80, 88
1, 409974, Note_on_c, 0, 49, 83
1, 409977, Note_on_c, 0, 78, 82
1, 409986, Control_c, 0, 64, 107
1, 409997, Note_off_c, 0, 72, 62
1, 410001, Control_c, 0, 64, 60
1, 410016, Note_on_c, 0, 48, 35
1, 410016, Control_c, 0, 64, 0
1, 410037, Note_off_c, 0, 49, 65
1, 410046, Control_c, 0, 64, 59
1, 410051, Note_off_c, 0, 48, 33
1, 410061, Control_c, 0, 64, 89
1, 410061, Note_off_c, 0, 78, 59
1, 410067, Note_off_c, 0, 80, 62
1, 410074, Note_on_c, 0, 77, 88
1, 410076, Control_c, 0, 64, 127
1, 410093, Note_on_c, 0, 65, 76
1, 410195, Note_on_c, 0, 56, 59
1, 410202, Note_on_c, 0, 85, 82
1, 410231, Note_off_c, 0, 77, 59
1, 410235, Note_off_c, 0, 65, 36
1, 410308, Note_on_c, 0, 73, 73
1, 410312, Control_c, 0, 64, 71
1, 410318, Note_on_c, 0, 55, 69
1, 410318, Note_off_c, 0, 56, 53
1, 410327, Control_c, 0, 64, 40
1, 410342, Control_c, 0, 64, 0
1, 410371, Control_c, 0, 64, 47
1, 410386, Control_c, 0, 64, 71
1, 410401, Control_c, 0, 64, 124
1, 410416, Control_c, 0, 64, 127
1, 410425, Note_on_c, 0, 84, 74
1, 410430, Note_off_c, 0, 73, 63
1, 410437, Note_on_c, 0, 77, 67
1, 410440, Note_on_c, 0, 56, 78
1, 410457, Note_off_c, 0, 55, 56
1, 410479, Note_off_c, 0, 85, 49
1, 410505, Note_off_c, 0, 84, 62
1, 410528, Note_off_c, 0, 77, 45
1, 410538, Note_on_c, 0, 73, 80
1, 410541, Note_on_c, 0, 58, 80
1, 410562, Note_on_c, 0, 83, 71
1, 410574, Note_off_c, 0, 56, 62
1, 410620, Note_on_c, 0, 77, 70
1, 410622, Note_on_c, 0, 59, 80
1, 410626, Note_off_c, 0, 58, 61
1, 410628, Note_off_c, 0, 73, 52
1, 410655, Note_off_c, 0, 83, 63
1, 410664, Note_on_c, 0, 81, 65
1, 410666, Note_on_c, 0, 80, 61
1, 410696, Note_off_c, 0, 59, 63
1, 410700, Note_on_c, 0, 60, 89
1, 410702, Note_on_c, 0, 73, 76
1, 410732, Note_off_c, 0, 81, 59
1, 410755, Note_off_c, 0, 80, 55
1, 410760, Note_off_c, 0, 60, 65
1, 410765, Control_c, 0, 64, 83
1, 410770, Note_off_c, 0, 77, 0
1, 410770, Note_on_c, 0, 77, 4
1, 410778, Note_off_c, 0, 73, 65
1, 410780, Control_c, 0, 64, 50
1, 410786, Note_on_c, 0, 61, 86
1, 410794, Control_c, 0, 64, 0
1, 410824, Control_c, 0, 64, 38
1, 410833, Note_off_c, 0, 77, 59
1, 410839, Control_c, 0, 64, 71
1, 410847, Note_on_c, 0, 60, 93
1, 410853, Note_on_c, 0, 70, 90
1, 410854, Control_c, 0, 64, 127
1, 410865, Note_off_c, 0, 61, 64
1, 410910, Note_off_c, 0, 70, 62
1, 410915, Note_off_c, 0, 60, 62
1, 410934, Poly_aftertouch_c, 0, 80, 0
1, 410947, Note_on_c, 0, 76, 77
1, 410955, Note_on_c, 0, 79, 74
1, 410989, Note_on_c, 0, 78, 34
1, 411009, Note_on_c, 0, 84, 80
1, 411012, Note_off_c, 0, 78, 37
1, 411016, Note_off_c, 0, 79, 61
1, 411038, Note_on_c, 0, 72, 81
1, 411046, Note_off_c, 0, 76, 62
1, 411054, Note_off_c, 0, 84, 67
1, 411076, Control_c, 0, 64, 92
1, 411080, Note_off_c, 0, 72, 62
1, 411091, Control_c, 0, 64, 53
1, 411106, Control_c, 0, 64, 0
1, 411116, Note_on_c, 0, 53, 85
1, 411128, Note_on_c, 0, 74, 88
1, 411135, Control_c, 0, 64, 21
1, 411143, Note_on_c, 0, 80, 67
1, 411150, Control_c, 0, 64, 70
1, 411165, Control_c, 0, 64, 127
1, 411166, Note_off_c, 0, 53, 65
1, 411167, Note_on_c, 0, 81, 50
1, 411188, Note_off_c, 0, 81, 59
1, 411223, Note_on_c, 0, 68, 83
1, 411235, Note_off_c, 0, 74, 61
1, 411238, Note_on_c, 0, 75, 81
1, 411256, Note_off_c, 0, 80, 33
1, 411271, Note_on_c, 0, 76, 65
1, 411289, Note_off_c, 0, 75, 61
1, 411306, Note_off_c, 0, 68, 63
1, 411307, Note_on_c, 0, 62, 82
1, 411319, Note_on_c, 0, 73, 84
1, 411322, Note_on_c, 0, 77, 72
1, 411328, Note_off_c, 0, 76, 62
1, 411355, Note_off_c, 0, 77, 58
1, 411381, Control_c, 0, 64, 79
1, 411392, Note_on_c, 0, 59, 79
1, 411394, Note_on_c, 0, 78, 80
1, 411395, Control_c, 0, 64, 57
1, 411401, Note_off_c, 0, 73, 67
1, 411410, Control_c, 0, 64, 58
1, 411411, Note_off_c, 0, 62, 59
1, 411413, Note_on_c, 0, 76, 61
1, 411420, Note_off_c, 0, 78, 50
1, 411422, Note_on_c, 0, 77, 70
1, 411425, Control_c, 0, 64, 84
1, 411440, Control_c, 0, 64, 127
1, 411465, Note_off_c, 0, 76, 44
1, 411466, Note_off_c, 0, 59, 63
1, 411469, Note_on_c, 0, 68, 81
1, 411477, Note_on_c, 0, 75, 77
1, 411481, Note_on_c, 0, 78, 83
1, 411487, Poly_aftertouch_c, 0, 74, 0
1, 411488, Note_off_c, 0, 77, 63
1, 411509, Poly_aftertouch_c, 0, 74, 0
1, 411523, Note_on_c, 0, 79, 58
1, 411525, Note_off_c, 0, 68, 64
1, 411541, Note_on_c, 0, 62, 82
1, 411554, Note_off_c, 0, 78, 60
1, 411554, Note_on_c, 0, 67, 25
1, 411557, Note_off_c, 0, 79, 61
1, 411561, Note_on_c, 0, 76, 81
1, 411585, Note_off_c, 0, 62, 66
1, 411589, Note_off_c, 0, 75, 63
1, 411594, Note_off_c, 0, 67, 42
1, 411618, Control_c, 0, 64, 68
1, 411627, Note_on_c, 0, 52, 94
1, 411633, Control_c, 0, 64, 0
1, 411638, Note_off_c, 0, 76, 59
1, 411668, Note_off_c, 0, 52, 66
1, 411678, Control_c, 0, 64, 54
1, 411687, Note_on_c, 0, 85, 63
1, 411692, Control_c, 0, 64, 86
1, 411707, Control_c, 0, 64, 127
1, 411713, Note_on_c, 0, 81, 51
1, 411721, Note_off_c, 0, 85, 57
1, 411724, Note_on_c, 0, 67, 80
1, 411739, Note_off_c, 0, 81, 55
1, 411800, Note_on_c, 0, 61, 87
1, 411805, Note_off_c, 0, 67, 59
1, 411808, Note_on_c, 0, 85, 91
1, 411821, Note_on_c, 0, 76, 64
1, 411822, Note_on_c, 0, 82, 73
1, 411841, Note_off_c, 0, 76, 63
1, 411852, Note_off_c, 0, 61, 63
1, 411853, Note_off_c, 0, 82, 57
1, 411866, Note_off_c, 0, 85, 65
1, 411944, Control_c, 0, 64, 80
1, 411964, Note_on_c, 0, 73, 88
1, 411966, Control_c, 0, 64, 28
1, 411969, Note_on_c, 0, 78, 97
1, 411970, Note_on_c, 0, 51, 82
1, 411975, Note_on_c, 0, 69, 86
1, 411981, Control_c, 0, 64, 0
1, 412003, Note_off_c, 0, 73, 68
1, 412011, Control_c, 0, 64, 8
1, 412013, Note_off_c, 0, 51, 65
1, 412016, Note_off_c, 0, 78, 64
1, 412025, Control_c, 0, 64, 76
1, 412031, Note_on_c, 0, 77, 54
1, 412040, Control_c, 0, 64, 127
1, 412055, Note_off_c, 0, 77, 58
1, 412070, Note_on_c, 0, 66, 81
1, 412084, Note_on_c, 0, 73, 88
1, 412091, Note_off_c, 0, 69, 62
1, 412154, Note_off_c, 0, 73, 59
1, 412158, Note_on_c, 0, 60, 76
1, 412165, Note_off_c, 0, 66, 61
1, 412170, Note_on_c, 0, 74, 58
1, 412172, Note_on_c, 0, 71, 76
1, 412219, Note_on_c, 0, 70, 19
1, 412220, Note_off_c, 0, 70, 127
1, 412223, Note_off_c, 0, 71, 65
1, 412241, Note_on_c, 0, 57, 76
1, 412243, Note_off_c, 0, 60, 61
1, 412247, Note_on_c, 0, 75, 81
1, 412247, Note_off_c, 0, 74, 63
1, 412248, Note_on_c, 0, 72, 75
1, 412295, Note_off_c, 0, 57, 65
1, 412307, Control_c, 0, 64, 78
1, 412316, Note_on_c, 0, 66, 76
1, 412320, Note_off_c, 0, 72, 61
1, 412322, Control_c, 0, 64, 49
1, 412323, Note_on_c, 0, 73, 79
1, 412327, Note_off_c, 0, 75, 58
1, 412332, Note_on_c, 0, 76, 72
1, 412335, Note_on_c, 0, 77, 73
1, 412338, Control_c, 0, 64, 52
1, 412353, Control_c, 0, 64, 79
1, 412367, Control_c, 0, 64, 127
1, 412379, Note_off_c, 0, 77, 59
1, 412381, Note_off_c, 0, 66, 64
1, 412383, Note_off_c, 0, 76, 63
1, 412385, Note_on_c, 0, 60, 70
1, 412398, Note_on_c, 0, 77, 64
1, 412414, Note_on_c, 0, 74, 86
1, 412414, Note_off_c, 0, 73, 66
1, 412440, Note_off_c, 0, 60, 66
1, 412467, Note_off_c, 0, 77, 63
1, 412471, Control_c, 0, 64, 77
1, 412486, Control_c, 0, 64, 53
1, 412487, Note_on_c, 0, 49, 90
1, 412492, Note_on_c, 0, 78, 88
1, 412498, Note_off_c, 0, 74, 56
1, 412501, Control_c, 0, 64, 0
1, 412515, Note_on_c, 0, 75, 55
1, 412515, Note_off_c, 0, 49, 66
1, 412515, Control_c, 0, 64, 41
1, 412530, Control_c, 0, 64, 69
1, 412538, Note_on_c, 0, 76, 50
1, 412545, Control_c, 0, 64, 127
1, 412556, Note_off_c, 0, 75, 43
1, 412559, Note_off_c, 0, 78, 63
1, 412567, Note_on_c, 0, 74, 87
1, 412570, Note_off_c, 0, 76, 58
1, 412583, Note_on_c, 0, 65, 86
1, 412654, Note_on_c, 0, 83, 86
1, 412661, Note_on_c, 0, 59, 82
1, 412670, Note_off_c, 0, 65, 64
1, 412673, Note_off_c, 0, 74, 63
1, 412678, Note_on_c, 0, 79, 62
1, 412684, Note_on_c, 0, 78, 47
1, 412687, Note_on_c, 0, 81, 46
1, 412698, Note_off_c, 0, 79, 64
1, 412699, Note_off_c, 0, 83, 65
1, 412706, Note_off_c, 0, 78, 57
1, 412719, Note_off_c, 0, 81, 39
1, 412723, Note_off_c, 0, 59, 65
1, 412789, Control_c, 0, 64, 66
1, 412801, Note_on_c, 0, 67, 94
1, 412804, Note_on_c, 0, 76, 86
1, 412804, Control_c, 0, 64, 0
1, 412812, Note_on_c, 0, 49, 88
1, 412822, Note_on_c, 0, 70, 52
1, 412829, Note_on_c, 0, 69, 67
1, 412848, Control_c, 0, 64, 60
1, 412860, Note_off_c, 0, 49, 66
1, 412862, Note_off_c, 0, 70, 44
1, 412863, Control_c, 0, 64, 127
1, 412869, Note_off_c, 0, 69, 56
1, 412901, Note_off_c, 0, 76, 48
1, 412903, Note_on_c, 0, 71, 84
1, 412916, Note_on_c, 0, 64, 84
1, 412920, Note_off_c, 0, 67, 0
1, 412920, Note_on_c, 0, 67, 4
1, 412944, Note_off_c, 0, 67, 54
1, 412992, Note_on_c, 0, 68, 82
1, 412997, Note_on_c, 0, 72, 79
1, 413002, Note_off_c, 0, 71, 61
1, 413007, Note_on_c, 0, 58, 82
1, 413030, Note_off_c, 0, 64, 34
1, 413048, Note_off_c, 0, 68, 65
1, 413068, Note_off_c, 0, 72, 56
1, 413079, Note_on_c, 0, 73, 86
1, 413085, Note_on_c, 0, 71, 75
1, 413092, Note_on_c, 0, 55, 86
1, 413098, Note_off_c, 0, 58, 61
1, 413128, Note_off_c, 0, 71, 65
1, 413152, Note_off_c, 0, 55, 64
1, 413163, Note_off_c, 0, 73, 57
1, 413174, Note_on_c, 0, 64, 84
1, 413175, Note_on_c, 0, 74, 66
1, 413178, Note_on_c, 0, 71, 50
1, 413183, Note_on_c, 0, 72, 50
1, 413183, Note_on_c, 0, 76, 52
1, 413203, Note_off_c, 0, 72, 62
1, 413209, Note_off_c, 0, 76, 54
1, 413212, Note_off_c, 0, 74, 62
1, 413215, Note_off_c, 0, 71, 61
1, 413242, Note_on_c, 0, 58, 81
1, 413242, Note_on_c, 0, 72, 75
1, 413247, Note_off_c, 0, 64, 66
1, 413250, Note_on_c, 0, 76, 56
1, 413260, Note_on_c, 0, 74, 38
1, 413278, Note_off_c, 0, 58, 67
1, 413279, Control_c, 0, 64, 64
1, 413285, Note_off_c, 0, 74, 56
1, 413289, Note_off_c, 0, 72, 58
1, 413290, Note_off_c, 0, 76, 50
1, 413294, Control_c, 0, 64, 0
1, 413304, Note_on_c, 0, 77, 78
1, 413317, Note_on_c, 0, 48, 85
1, 413322, Note_on_c, 0, 73, 76
1, 413323, Control_c, 0, 64, 59
1, 413338, Control_c, 0, 64, 93
1, 413343, Note_on_c, 0, 76, 12
1, 413349, Note_off_c, 0, 77, 61
1, 413353, Control_c, 0, 64, 127
1, 413366, Note_off_c, 0, 48, 61
1, 413373, Note_on_c, 0, 74, 53
1, 413391, Poly_aftertouch_c, 0, 77, 0
1, 413398, Note_on_c, 0, 77, 70
1, 413402, Note_on_c, 0, 64, 88
1, 413417, Note_off_c, 0, 73, 65
1, 413417, Note_off_c, 0, 76, 0
1, 413430, Note_on_c, 0, 76, 33
1, 413453, Note_off_c, 0, 74, 65
1, 413470, Note_on_c, 0, 58, 83
1, 413471, Note_off_c, 0, 76, 49
1, 413472, Note_off_c, 0, 77, 63
1, 413481, Note_off_c, 0, 64, 63
1, 413515, Note_off_c, 0, 58, 65
1, 413547, Note_on_c, 0, 76, 84
1, 413552, Note_on_c, 0, 79, 77
1, 413553, Control_c, 0, 64, 76
1, 413557, Note_on_c, 0, 47, 73
1, 413567, Note_on_c, 0, 48, 76
1, 413568, Control_c, 0, 64, 32
1, 413583, Control_c, 0, 64, 0
1, 413587, Note_off_c, 0, 47, 61
1, 413591, Note_on_c, 0, 77, 30
1, 413592, Note_off_c, 0, 77, 127
1, 413600, Note_off_c, 0, 48, 64
1, 413600, Note_off_c, 0, 76, 60
1, 413612, Control_c, 0, 64, 52
1, 413626, Note_off_c, 0, 79, 54
1, 413627, Note_on_c, 0, 78, 88
1, 413627, Control_c, 0, 64, 85
1, 413641, Note_on_c, 0, 81, 71
1, 413642, Control_c, 0, 64, 127
1, 413654, Note_on_c, 0, 65, 66
1, 413658, Note_on_c, 0, 64, 71
1, 413658, Note_on_c, 0, 79, 44
1, 413687, Note_off_c, 0, 65, 60
1, 413692, Note_off_c, 0, 78, 65
1, 413694, Note_off_c, 0, 79, 0
1, 413707, Note_on_c, 0, 79, 63
1, 413707, Note_on_c, 0, 76, 90
1, 413721, Note_off_c, 0, 81, 64
1, 413722, Note_on_c, 0, 59, 83
1, 413727, Note_off_c, 0, 64, 62
1, 413757, Note_off_c, 0, 79, 63
1, 413769, Note_off_c, 0, 76, 67
1, 413799, Note_off_c, 0, 59, 65
1, 413801, Note_on_c, 0, 75, 93
1, 413804, Note_on_c, 0, 55, 82
1, 413808, Note_on_c, 0, 78, 83
1, 413814, Note_on_c, 0, 56, 61
1, 413835, Control_c, 0, 64, 72
1, 413848, Note_off_c, 0, 56, 48
1, 413849, Control_c, 0, 64, 57
1, 413857, Note_off_c, 0, 55, 60
1, 413864, Control_c, 0, 64, 62
1, 413879, Control_c, 0, 64, 78
1, 413882, Note_on_c, 0, 64, 84
1, 413884, Note_on_c, 0, 76, 86
1, 413887, Note_on_c, 0, 79, 82
1, 413888, Note_off_c, 0, 75, 65
1, 413894, Control_c, 0, 64, 127
1, 413940, Note_off_c, 0, 78, 33
1, 413945, Note_off_c, 0, 76, 65
1, 413958, Note_on_c, 0, 59, 84
1, 413969, Note_on_c, 0, 78, 78
1, 413972, Note_off_c, 0, 79, 63
1, 413973, Note_off_c, 0, 64, 63
1, 413981, Note_on_c, 0, 81, 77
1, 413999, Note_off_c, 0, 59, 67
1, 414015, Note_off_c, 0, 81, 57
1, 414043, Control_c, 0, 64, 73
1, 414058, Control_c, 0, 64, 40
1, 414063, Note_on_c, 0, 46, 89
1, 414070, Note_on_c, 0, 79, 88
1, 414072, Note_on_c, 0, 82, 86
1, 414073, Control_c, 0, 64, 0
1, 414086, Note_off_c, 0, 78, 56
1, 414087, Control_c, 0, 64, 56
1, 414091, Note_off_c, 0, 46, 68
1, 414102, Control_c, 0, 64, 87
1, 414109, Note_on_c, 0, 81, 36
1, 414117, Control_c, 0, 64, 127
1, 414128, Note_off_c, 0, 79, 65
1, 414139, Note_off_c, 0, 81, 52
1, 414168, Note_on_c, 0, 64, 86
1, 414169, Note_on_c, 0, 84, 83
1, 414178, Note_on_c, 0, 80, 83
1, 414186, Note_off_c, 0, 82, 63
1, 414263, Note_on_c, 0, 60, 82
1, 414273, Note_off_c, 0, 64, 62
1, 414282, Note_on_c, 0, 85, 94
1, 414289, Note_on_c, 0, 82, 79
1, 414289, Note_off_c, 0, 84, 65
1, 414302, Note_off_c, 0, 80, 60
1, 414303, Note_off_c, 0, 60, 67
1, 414391, Control_c, 0, 64, 103
1, 414403, Note_off_c, 0, 82, 62
1, 414406, Control_c, 0, 64, 59
1, 414418, Note_on_c, 0, 80, 88
1, 414420, Note_on_c, 0, 44, 83
1, 414420, Control_c, 0, 64, 0
1, 414440, Note_off_c, 0, 44, 69
1, 414450, Control_c, 0, 64, 34
1, 414461, Note_off_c, 0, 85, 63
1, 414464, Control_c, 0, 64, 74
1, 414479, Control_c, 0, 64, 127
1, 414528, Note_off_c, 0, 80, 59
1, 414547, Note_on_c, 0, 65, 82
1, 414550, Note_on_c, 0, 87, 80
1, 414553, Note_on_c, 0, 91, 87
1, 414643, Note_off_c, 0, 87, 57
1, 414649, Note_on_c, 0, 89, 81
1, 414654, Note_on_c, 0, 60, 77
1, 414655, Note_on_c, 0, 85, 82
1, 414656, Note_off_c, 0, 65, 53
1, 414681, Note_off_c, 0, 91, 62
1, 414773, Note_off_c, 0, 89, 63
1, 414774, Note_on_c, 0, 56, 87
1, 414779, Note_off_c, 0, 85, 63
1, 414783, Note_off_c, 0, 60, 60
1, 414786, Note_on_c, 0, 84, 88
1, 414847, Note_off_c, 0, 56, 63
1, 414854, Note_off_c, 0, 84, 66
1, 414867, Note_on_c, 0, 87, 88
1, 414878, Note_on_c, 0, 65, 74
1, 414948, Note_on_c, 0, 85, 80
1, 414952, Note_on_c, 0, 60, 76
1, 414969, Note_off_c, 0, 65, 65
1, 414974, Poly_aftertouch_c, 0, 61, 127
1, 414991, Note_off_c, 0, 60, 66
1, 414997, Note_off_c, 0, 87, 63
1, 415007, Poly_aftertouch_c, 0, 61, 0
1, 415014, Note_off_c, 0, 85, 64
1, 415056, Note_on_c, 0, 46, 84
1, 415066, Control_c, 0, 64, 81
1, 415080, Note_off_c, 0, 46, 67
1, 415081, Control_c, 0, 64, 78
1, 415095, Control_c, 0, 64, 111
1, 415110, Control_c, 0, 64, 127
1, 415152, Note_on_c, 0, 65, 83
1, 415160, Note_on_c, 0, 84, 74
1, 415223, Note_on_c, 0, 61, 74
1, 415232, Note_off_c, 0, 65, 65
1, 415260, Note_off_c, 0, 61, 64
1, 415270, Note_on_c, 0, 82, 71
1, 415289, Note_off_c, 0, 84, 60
1, 415302, Control_c, 0, 64, 108
1, 415308, Note_on_c, 0, 72, 77
1, 415316, Note_on_c, 0, 48, 76
1, 415317, Control_c, 0, 64, 66
1, 415321, Note_off_c, 0, 82, 61
1, 415332, Control_c, 0, 64, 42
1, 415334, Note_off_c, 0, 48, 65
1, 415347, Control_c, 0, 64, 50
1, 415361, Control_c, 0, 64, 70
1, 415373, Note_off_c, 0, 72, 62
1, 415376, Control_c, 0, 64, 94
1, 415391, Control_c, 0, 64, 127
1, 415400, Note_on_c, 0, 82, 76
1, 415430, Note_on_c, 0, 67, 55
1, 415430, Note_on_c, 0, 65, 61
1, 415439, Note_on_c, 0, 79, 50
1, 415462, Note_off_c, 0, 67, 65
1, 415474, Note_off_c, 0, 65, 64
1, 415491, Note_on_c, 0, 80, 75
1, 415492, Note_on_c, 0, 60, 73
1, 415501, Note_on_c, 0, 77, 70
1, 415522, Note_off_c, 0, 82, 63
1, 415531, Note_off_c, 0, 79, 63
1, 415561, Note_off_c, 0, 77, 62
1, 415579, Note_off_c, 0, 80, 62
1, 415582, Note_on_c, 0, 56, 84
1, 415585, Note_off_c, 0, 60, 63
1, 415589, Note_on_c, 0, 68, 92
1, 415635, Note_off_c, 0, 68, 65
1, 415651, Note_off_c, 0, 56, 63
1, 415656, Note_on_c, 0, 75, 82
1, 415658, Note_on_c, 0, 79, 82
1, 415668, Note_on_c, 0, 65, 83
1, 415736, Note_off_c, 0, 65, 65
1, 415738, Note_on_c, 0, 60, 74
1, 415741, Note_on_c, 0, 73, 79
1, 415755, Note_on_c, 0, 77, 64
1, 415756, Note_on_c, 0, 76, 73
1, 415763, Note_off_c, 0, 75, 46
1, 415778, Note_off_c, 0, 60, 66
1, 415786, Note_off_c, 0, 79, 59
1, 415802, Note_off_c, 0, 77, 57
1, 415813, Note_off_c, 0, 73, 64
1, 415814, Note_off_c, 0, 76, 62
1, 415814, Control_c, 0, 64, 77
1, 415829, Control_c, 0, 64, 43
1, 415834, Note_on_c, 0, 48, 83
1, 415835, Note_on_c, 0, 67, 83
1, 415844, Control_c, 0, 64, 0
1, 415859, Control_c, 0, 64, 18
1, 415867, Note_off_c, 0, 48, 63
1, 415874, Control_c, 0, 64, 56
1, 415889, Control_c, 0, 64, 77
1, 415903, Control_c, 0, 64, 127
1, 415910, Note_off_c, 0, 67, 56
1, 415912, Note_on_c, 0, 72, 71
1, 415918, Note_on_c, 0, 76, 80
1, 415924, Note_on_c, 0, 64, 84
1, 415933, Note_on_c, 0, 71, 62
1, 415957, Note_off_c, 0, 71, 58
1, 415990, Note_off_c, 0, 72, 53
1, 415996, Note_on_c, 0, 60, 79
1, 415996, Note_on_c, 0, 70, 88
1, 415996, Note_off_c, 0, 76, 61
1, 416001, Note_off_c, 0, 64, 62
1, 416021, Note_on_c, 0, 73, 4
1, 416038, Note_off_c, 0, 60, 64
1, 416040, Note_off_c, 0, 73, 0
1, 416053, Note_off_c, 0, 70, 63
1, 416066, Poly_aftertouch_c, 0, 73, 0
1, 416096, Control_c, 0, 64, 95
1, 416109, Note_on_c, 0, 70, 86
1, 416110, Control_c, 0, 64, 56
1, 416113, Note_on_c, 0, 49, 85
1, 416125, Control_c, 0, 64, 39
1, 416140, Control_c, 0, 64, 62
1, 416155, Control_c, 0, 64, 102
1, 416170, Control_c, 0, 64, 127
1, 416194, Note_on_c, 0, 79, 83
1, 416202, Note_off_c, 0, 49, 56
1, 416206, Note_on_c, 0, 61, 79
1, 416211, Note_on_c, 0, 76, 57
1, 416218, Note_off_c, 0, 70, 35
1, 416231, Note_off_c, 0, 76, 63
1, 416280, Note_on_c, 0, 68, 81
1, 416282, Note_on_c, 0, 77, 80
1, 416287, Note_on_c, 0, 56, 74
1, 416307, Note_off_c, 0, 79, 57
1, 416324, Note_off_c, 0, 61, 60
1, 416362, Note_off_c, 0, 77, 61
1, 416363, Note_on_c, 0, 72, 81
1, 416374, Note_on_c, 0, 53, 81
1, 416377, Control_c, 0, 64, 70
1, 416391, Note_off_c, 0, 56, 62
1, 416392, Control_c, 0, 64, 39
1, 416393, Note_off_c, 0, 68, 33
1, 416407, Control_c, 0, 64, 29
1, 416422, Control_c, 0, 64, 61
1, 416437, Control_c, 0, 64, 88
1, 416442, Note_on_c, 0, 75, 88
1, 416447, Note_off_c, 0, 53, 63
1, 416449, Note_off_c, 0, 72, 63
1, 416452, Control_c, 0, 64, 127
1, 416474, Note_on_c, 0, 61, 80
1, 416550, Note_on_c, 0, 73, 81
1, 416553, Note_on_c, 0, 56, 73
1, 416556, Note_on_c, 0, 70, 74
1, 416569, Note_off_c, 0, 75, 63
1, 416598, Note_off_c, 0, 61, 62
1, 416608, Note_off_c, 0, 70, 61
1, 416633, Note_off_c, 0, 56, 63
1, 416666, Control_c, 0, 64, 77
1, 416673, Note_on_c, 0, 68, 88
1, 416674, Note_on_c, 0, 46, 85
1, 416681, Control_c, 0, 64, 63
1, 416687, Note_off_c, 0, 73, 46
1, 416696, Control_c, 0, 64, 67
1, 416711, Control_c, 0, 64, 103
1, 416723, Note_off_c, 0, 46, 65
1, 416726, Control_c, 0, 64, 127
1, 416732, Note_off_c, 0, 68, 66
1, 416773, Note_on_c, 0, 61, 77
1, 416785, Note_on_c, 0, 72, 87
1, 416851, Note_off_c, 0, 61, 62
1, 416870, Note_on_c, 0, 70, 90
1, 416871, Note_on_c, 0, 55, 72
1, 416912, Note_off_c, 0, 72, 49
1, 417005, Note_off_c, 0, 55, 58
1, 417021, Note_on_c, 0, 68, 82
1, 417027, Note_on_c, 0, 65, 76
1, 417029, Note_on_c, 0, 48, 72
1, 417058, Note_off_c, 0, 70, 61
1, 417066, Control_c, 0, 64, 78
1, 417081, Control_c, 0, 64, 49
1, 417093, Note_off_c, 0, 48, 62
1, 417096, Control_c, 0, 64, 0
1, 417137, Note_on_c, 0, 60, 66
1, 417141, Control_c, 0, 64, 41
1, 417155, Control_c, 0, 64, 71
1, 417170, Control_c, 0, 64, 101
1, 417185, Control_c, 0, 64, 127
1, 417235, Note_on_c, 0, 61, 60
1, 417236, Note_off_c, 0, 60, 35
1, 417308, Note_off_c, 0, 61, 55
1, 417333, Note_on_c, 0, 67, 76
1, 417355, Note_on_c, 0, 60, 64
1, 417362, Note_off_c, 0, 68, 56
1, 417370, Control_c, 0, 64, 91
1, 417385, Control_c, 0, 64, 61
1, 417400, Control_c, 0, 64, 0
1, 417430, Control_c, 0, 64, 36
1, 417437, Note_off_c, 0, 65, 55
1, 417442, Note_off_c, 0, 60, 56
1, 417445, Control_c, 0, 64, 65
1, 417460, Control_c, 0, 64, 87
1, 417460, Note_on_c, 0, 59, 62
1, 417474, Control_c, 0, 64, 127
1, 417510, Note_off_c, 0, 59, 57
1, 417580, Note_on_c, 0, 60, 56
1, 417641, Note_on_c, 0, 64, 65
1, 417652, Control_c, 0, 64, 122
1, 417665, Note_off_c, 0, 60, 47
1, 417667, Control_c, 0, 64, 72
1, 417673, Note_on_c, 0, 55, 56
1, 417681, Control_c, 0, 64, 47
1, 417695, Control_c, 0, 64, 0
1, 417707, Note_off_c, 0, 64, 60
1, 417710, Control_c, 0, 64, 34
1, 417725, Note_off_c, 0, 55, 60
1, 417725, Control_c, 0, 64, 65
1, 417740, Control_c, 0, 64, 81
1, 417755, Control_c, 0, 64, 127
1, 417761, Note_on_c, 0, 60, 64
1, 417790, Note_off_c, 0, 67, 35
1, 417828, Note_on_c, 0, 57, 66
1, 417837, Note_off_c, 0, 60, 60
1, 417849, Note_on_c, 0, 72, 69
1, 417865, Note_on_c, 0, 63, 47
1, 417871, Note_off_c, 0, 57, 63
1, 417893, Note_off_c, 0, 63, 63
1, 417918, Note_off_c, 0, 72, 60
1, 417946, Note_on_c, 0, 66, 68
1, 417956, Control_c, 0, 64, 98
1, 417971, Control_c, 0, 64, 65
1, 417985, Control_c, 0, 64, 49
1, 417990, Note_on_c, 0, 62, 54
1, 418000, Control_c, 0, 64, 58
1, 418015, Control_c, 0, 64, 74
1, 418029, Control_c, 0, 64, 127
1, 418034, Note_off_c, 0, 62, 61
1, 418041, Note_off_c, 0, 66, 0
1, 418058, Poly_aftertouch_c, 0, 59, 0
1, 418059, Note_on_c, 0, 65, 41
1, 418079, Poly_aftertouch_c, 0, 66, 127
1, 418084, Note_on_c, 0, 53, 58
1, 418106, Note_off_c, 0, 65, 52
1, 418111, Poly_aftertouch_c, 0, 66, 0
1, 418154, Note_on_c, 0, 70, 74
1, 418166, Note_off_c, 0, 53, 62
1, 418178, Control_c, 0, 64, 112
1, 418180, Note_on_c, 0, 61, 57
1, 418181, Note_on_c, 0, 55, 68
1, 418193, Control_c, 0, 64, 69
1, 418208, Control_c, 0, 64, 61
1, 418214, Note_off_c, 0, 55, 65
1, 418223, Control_c, 0, 64, 73
1, 418227, Note_off_c, 0, 61, 42
1, 418237, Control_c, 0, 64, 127
1, 418243, Note_on_c, 0, 56, 79
1, 418244, Note_on_c, 0, 63, 72
1, 418245, Note_off_c, 0, 70, 62
1, 418346, Note_on_c, 0, 51, 70
1, 418395, Note_off_c, 0, 56, 33
1, 418398, Note_on_c, 0, 68, 78
1, 418405, Note_off_c, 0, 63, 58
1, 418414, Note_on_c, 0, 53, 71
1, 418445, Control_c, 0, 64, 103
1, 418446, Note_off_c, 0, 51, 59
1, 418450, Note_off_c, 0, 68, 67
1, 418460, Control_c, 0, 64, 63
1, 418473, Note_off_c, 0, 53, 64
1, 418475, Control_c, 0, 64, 37
1, 418476, Note_on_c, 0, 62, 75
1, 418490, Control_c, 0, 64, 53
1, 418492, Note_on_c, 0, 55, 81
1, 418504, Control_c, 0, 64, 72
1, 418519, Control_c, 0, 64, 101
1, 418534, Control_c, 0, 64, 127
1, 418575, Note_on_c, 0, 50, 78
1, 418580, Note_off_c, 0, 55, 52
1, 418625, Note_off_c, 0, 62, 59
1, 418637, Control_c, 0, 64, 72
1, 418652, Control_c, 0, 64, 39
1, 418659, Note_on_c, 0, 67, 74
1, 418661, Note_on_c, 0, 52, 83
1, 418667, Control_c, 0, 64, 42
1, 418669, Note_off_c, 0, 50, 63
1, 418682, Control_c, 0, 64, 65
1, 418704, Control_c, 0, 64, 79
1, 418719, Control_c, 0, 64, 127
1, 418733, Note_off_c, 0, 52, 64
1, 418745, Note_on_c, 0, 60, 81
1, 418750, Note_on_c, 0, 53, 81
1, 418778, Note_off_c, 0, 67, 63
1, 418907, Note_off_c, 0, 60, 65
1, 418909, Note_on_c, 0, 61, 77
1, 418913, Note_on_c, 0, 65, 75
1, 418917, Note_on_c, 0, 48, 62
1, 418961, Note_off_c, 0, 53, 56
1, 418979, Note_off_c, 0, 48, 61
1, 418995, Note_off_c, 0, 65, 60
1, 418998, Note_off_c, 0, 61, 57
1, 419094, Note_on_c, 0, 46, 61
1, 419099, Note_on_c, 0, 65, 78
1, 419103, Note_on_c, 0, 55, 68
1, 419104, Note_on_c, 0, 61, 59
1, 419105, Control_c, 0, 64, 75
1, 419120, Control_c, 0, 64, 48
1, 419135, Control_c, 0, 64, 34
1, 419150, Control_c, 0, 64, 63
1, 419165, Control_c, 0, 64, 127
1, 419182, Note_off_c, 0, 46, 57
1, 419197, Note_on_c, 0, 45, 70
1, 419242, Note_off_c, 0, 65, 62
1, 419255, Note_off_c, 0, 55, 55
1, 419276, Note_on_c, 0, 46, 76
1, 419279, Note_off_c, 0, 45, 63
1, 419338, Note_on_c, 0, 64, 79
1, 419340, Note_on_c, 0, 60, 72
1, 419344, Note_on_c, 0, 55, 72
1, 419346, Note_off_c, 0, 46, 61
1, 419358, Note_on_c, 0, 48, 73
1, 419376, Note_off_c, 0, 61, 60
1, 419415, Note_off_c, 0, 60, 60
1, 419418, Note_on_c, 0, 47, 74
1, 419421, Note_off_c, 0, 48, 60
1, 419435, Note_off_c, 0, 55, 55
1, 419481, Note_off_c, 0, 47, 63
1, 419513, Note_on_c, 0, 48, 72
1, 419543, Control_c, 0, 64, 67
1, 419556, Note_on_c, 0, 63, 81
1, 419558, Control_c, 0, 64, 40
1, 419564, Note_on_c, 0, 60, 62
1, 419567, Note_on_c, 0, 53, 72
1, 419573, Control_c, 0, 64, 48
1, 419579, Note_on_c, 0, 45, 73
1, 419585, Note_off_c, 0, 48, 61
1, 419588, Control_c, 0, 64, 73
1, 419603, Control_c, 0, 64, 127
1, 419629, Note_off_c, 0, 60, 56
1, 419659, Note_on_c, 0, 44, 81
1, 419663, Note_off_c, 0, 45, 64
1, 419707, Control_c, 0, 64, 115
1, 419722, Control_c, 0, 64, 64
1, 419737, Control_c, 0, 64, 18
1, 419751, Control_c, 0, 64, 23
1, 419760, Note_on_c, 0, 45, 54
1, 419766, Control_c, 0, 64, 69
1, 419774, Note_on_c, 0, 46, 60
1, 419779, Note_on_c, 0, 58, 80
1, 419780, Note_on_c, 0, 61, 77
1, 419781, Control_c, 0, 64, 127
1, 419802, Note_off_c, 0, 45, 61
1, 419811, Note_off_c, 0, 53, 33
1, 419827, Note_off_c, 0, 44, 37
1, 419866, Note_off_c, 0, 46, 61
1, 419868, Note_on_c, 0, 48, 65
1, 419883, Note_off_c, 0, 64, 37
1, 419937, Note_on_c, 0, 44, 59
1, 419940, Note_off_c, 0, 48, 57
1, 419952, Note_off_c, 0, 63, 62
1, 419960, Note_on_c, 0, 43, 54
1, 419972, Note_off_c, 0, 58, 61
1, 419985, Note_on_c, 0, 52, 87
1, 420010, Note_off_c, 0, 43, 0
1, 420010, Note_on_c, 0, 43, 44
1, 420038, Note_off_c, 0, 44, 40
1, 420045, Note_off_c, 0, 61, 35
1, 420066, Note_off_c, 0, 52, 63
1, 420088, Note_off_c, 0, 43, 63
1, 420102, Note_on_c, 0, 44, 70
1, 420130, Note_on_c, 0, 53, 83
1, 420180, Note_off_c, 0, 44, 61
1, 420181, Note_on_c, 0, 41, 70
1, 420184, Note_off_c, 0, 53, 64
1, 420224, Note_on_c, 0, 60, 86
1, 420226, Note_on_c, 0, 55, 87
1, 420232, Note_on_c, 0, 58, 82
1, 420257, Note_off_c, 0, 41, 65
1, 420258, Note_on_c, 0, 40, 80
1, 420262, Control_c, 0, 64, 78
1, 420277, Control_c, 0, 64, 43
1, 420291, Control_c, 0, 64, 0
1, 420306, Control_c, 0, 64, 27
1, 420321, Control_c, 0, 64, 60
1, 420337, Control_c, 0, 64, 91
1, 420343, Note_on_c, 0, 41, 75
1, 420352, Control_c, 0, 64, 127
1, 420368, Note_off_c, 0, 55, 58
1, 420368, Note_off_c, 0, 40, 62
1, 420431, Note_off_c, 0, 41, 64
1, 420444, Note_on_c, 0, 43, 80
1, 420478, Note_on_c, 0, 56, 88
1, 420482, Note_on_c, 0, 53, 87
1, 420515, Control_c, 0, 64, 74
1, 420529, Note_off_c, 0, 43, 57
1, 420530, Control_c, 0, 64, 39
1, 420531, Note_off_c, 0, 60, 38
1, 420545, Note_on_c, 0, 41, 87
1, 420545, Control_c, 0, 64, 0
1, 420560, Control_c, 0, 64, 39
1, 420574, Control_c, 0, 64, 67
1, 420589, Control_c, 0, 64, 127
1, 420624, Note_off_c, 0, 41, 58
1, 420632, Note_on_c, 0, 43, 88
1, 420637, Note_off_c, 0, 53, 56
1, 420639, Note_off_c, 0, 58, 30
1, 420655, Note_off_c, 0, 56, 59
1, 420688, Note_off_c, 0, 43, 62
1, 420719, Note_on_c, 0, 39, 50
1, 420746, Note_on_c, 0, 38, 40
1, 420774, Note_on_c, 0, 65, 88
1, 420775, Note_on_c, 0, 56, 86
1, 420779, Note_on_c, 0, 53, 88
1, 420784, Note_on_c, 0, 37, 77
1, 420784, Note_off_c, 0, 38, 40
1, 420795, Note_off_c, 0, 39, 33
1, 420870, Control_c, 0, 64, 74
1, 420873, Note_off_c, 0, 37, 63
1, 420885, Control_c, 0, 64, 53
1, 420888, Note_on_c, 0, 39, 80
1, 420899, Poly_aftertouch_c, 0, 61, 0
1, 420899, Control_c, 0, 64, 60
1, 420914, Control_c, 0, 64, 74
1, 420929, Control_c, 0, 64, 127
1, 420972, Note_on_c, 0, 36, 82
1, 420981, Note_off_c, 0, 39, 65
1, 420999, Note_off_c, 0, 53, 59
1, 421010, Note_off_c, 0, 65, 59
1, 421139, Note_off_c, 0, 36, 59
1, 421169, Note_on_c, 0, 34, 69
1, 421170, Note_on_c, 0, 65, 77
1, 421180, Note_on_c, 0, 55, 61
1, 421186, Note_on_c, 0, 53, 74
1, 421213, Note_off_c, 0, 56, 61
1, 421249, Control_c, 0, 64, 106
1, 421263, Control_c, 0, 64, 67
1, 421278, Control_c, 0, 64, 19
1, 421285, Note_off_c, 0, 34, 63
1, 421286, Note_on_c, 0, 36, 58
1, 421293, Control_c, 0, 64, 0
1, 421338, Control_c, 0, 64, 28
1, 421350, Note_off_c, 0, 53, 57
1, 421353, Control_c, 0, 64, 67
1, 421353, Note_off_c, 0, 55, 54
1, 421363, Note_on_c, 0, 37, 73
1, 421367, Control_c, 0, 64, 99
1, 421368, Note_off_c, 0, 36, 60
1, 421382, Control_c, 0, 64, 127
1, 421442, Note_on_c, 0, 36, 67
1, 421450, Note_on_c, 0, 57, 78
1, 421454, Note_on_c, 0, 53, 78
1, 421454, Note_off_c, 0, 37, 62
1, 421502, Note_off_c, 0, 65, 56
1, 421522, Note_on_c, 0, 41, 77
1, 421525, Note_off_c, 0, 36, 57
1, 421568, Note_off_c, 0, 53, 60
1, 421595, Note_on_c, 0, 39, 77
1, 421634, Note_off_c, 0, 41, 36
1, 421634, Control_c, 0, 64, 99
1, 421648, Control_c, 0, 64, 77
1, 421663, Control_c, 0, 64, 85
1, 421665, Note_on_c, 0, 58, 82
1, 421671, Note_on_c, 0, 53, 83
1, 421675, Note_on_c, 0, 37, 81
1, 421678, Control_c, 0, 64, 127
1, 421684, Note_off_c, 0, 39, 63
1, 421704, Note_off_c, 0, 57, 61
1, 421749, Note_on_c, 0, 39, 70
1, 421766, Note_off_c, 0, 37, 62
1, 421776, Note_off_c, 0, 53, 62
1, 421811, Note_off_c, 0, 39, 65
1, 421831, Note_off_c, 0, 58, 52
1, 421837, Note_on_c, 0, 41, 76
1, 421849, Control_c, 0, 64, 75
1, 421863, Note_on_c, 0, 60, 82
1, 421863, Control_c, 0, 64, 48
1, 421868, Note_on_c, 0, 55, 81
1, 421873, Note_on_c, 0, 58, 37
1, 421878, Control_c, 0, 64, 32
1, 421891, Note_off_c, 0, 41, 62
1, 421893, Control_c, 0, 64, 62
1, 421907, Control_c, 0, 64, 127
1, 421910, Note_on_c, 0, 40, 78
1, 421921, Note_off_c, 0, 55, 62
1, 421928, Note_off_c, 0, 60, 65
1, 421938, Note_off_c, 0, 58, 59
1, 421977, Note_on_c, 0, 41, 84
1, 421989, Note_off_c, 0, 40, 63
1, 422024, Note_off_c, 0, 41, 64
1, 422072, Control_c, 0, 64, 105
1, 422073, Note_on_c, 0, 45, 60
1, 422079, Note_on_c, 0, 68, 89
1, 422082, Note_on_c, 0, 56, 87
1, 422086, Control_c, 0, 64, 66
1, 422091, Note_on_c, 0, 60, 71
1, 422095, Note_off_c, 0, 45, 60
1, 422101, Control_c, 0, 64, 55
1, 422116, Control_c, 0, 64, 72
1, 422131, Control_c, 0, 64, 127
1, 422138, Note_on_c, 0, 41, 75
1, 422187, Note_off_c, 0, 56, 59
1, 422236, Note_on_c, 0, 46, 75
1, 422243, Note_off_c, 0, 41, 63
1, 422282, Note_on_c, 0, 64, 85
1, 422283, Note_on_c, 0, 58, 92
1, 422284, Note_off_c, 0, 68, 60
1, 422297, Note_on_c, 0, 43, 60
1, 422318, Note_off_c, 0, 60, 63
1, 422329, Note_off_c, 0, 46, 58
1, 422380, Note_on_c, 0, 44, 86
1, 422390, Note_off_c, 0, 43, 63
1, 422426, Note_off_c, 0, 58, 59
1, 422467, Note_off_c, 0, 44, 62
1, 422469, Note_on_c, 0, 46, 77
1, 422516, Note_off_c, 0, 46, 64
1, 422538, Control_c, 0, 64, 90
1, 422539, Note_on_c, 0, 56, 92
1, 422543, Note_on_c, 0, 60, 83
1, 422544, Note_on_c, 0, 65, 85
1, 422553, Control_c, 0, 64, 56
1, 422557, Note_on_c, 0, 44, 83
1, 422568, Control_c, 0, 64, 0
1, 422580, Note_off_c, 0, 64, 57
1, 422597, Control_c, 0, 64, 10
1, 422612, Control_c, 0, 64, 63
1, 422627, Control_c, 0, 64, 127
1, 422628, Note_off_c, 0, 44, 63
1, 422629, Note_on_c, 0, 46, 81
1, 422661, Note_off_c, 0, 56, 62
1, 422667, Note_off_c, 0, 60, 55
1, 422688, Note_on_c, 0, 48, 72
1, 422696, Note_off_c, 0, 46, 62
1, 422746, Control_c, 0, 64, 80
1, 422755, Note_on_c, 0, 44, 79
1, 422761, Control_c, 0, 64, 54
1, 422766, Note_off_c, 0, 48, 61
1, 422769, Note_on_c, 0, 54, 87
1, 422776, Control_c, 0, 64, 0
1, 422777, Note_on_c, 0, 63, 76
1, 422778, Note_off_c, 0, 44, 60
1, 422780, Note_off_c, 0, 65, 61
1, 422785, Note_on_c, 0, 45, 70
1, 422785, Note_on_c, 0, 60, 69
1, 422791, Control_c, 0, 64, 22
1, 422806, Control_c, 0, 64, 60
1, 422821, Control_c, 0, 64, 77
1, 422835, Control_c, 0, 64, 127
1, 422849, Note_on_c, 0, 44, 82
1, 422852, Note_off_c, 0, 45, 62
1, 422865, Note_off_c, 0, 60, 57
1, 422886, Note_off_c, 0, 63, 56
1, 422918, Note_off_c, 0, 54, 63
1, 422919, Note_on_c, 0, 45, 70
1, 422977, Note_off_c, 0, 44, 58
1, 422983, Control_c, 0, 64, 101
1, 422993, Note_off_c, 0, 45, 63
1, 422998, Control_c, 0, 64, 61
1, 423001, Note_on_c, 0, 61, 74
1, 423002, Note_on_c, 0, 53, 76
1, 423005, Note_on_c, 0, 58, 69
1, 423010, Note_on_c, 0, 46, 73
1, 423013, Control_c, 0, 64, 0
1, 423043, Control_c, 0, 64, 53
1, 423052, Note_off_c, 0, 46, 63
1, 423058, Control_c, 0, 64, 78
1, 423073, Control_c, 0, 64, 127
1, 423096, Note_on_c, 0, 48, 78
1, 423116, Note_off_c, 0, 58, 60
1, 423117, Note_off_c, 0, 53, 56
1, 423141, Note_off_c, 0, 61, 63
1, 423165, Note_off_c, 0, 48, 60
1, 423170, Note_on_c, 0, 49, 82
1, 423229, Note_off_c, 0, 49, 65
1, 423264, Note_on_c, 0, 60, 77
1, 423271, Note_on_c, 0, 53, 64
1, 423275, Note_on_c, 0, 56, 71
1, 423281, Note_on_c, 0, 48, 76
1, 423302, Control_c, 0, 64, 74
1, 423317, Control_c, 0, 64, 45
1, 423332, Control_c, 0, 64, 0
1, 423346, Note_off_c, 0, 48, 56
1, 423355, Note_on_c, 0, 44, 71
1, 423376, Control_c, 0, 64, 61
1, 423391, Control_c, 0, 64, 95
1, 423406, Control_c, 0, 64, 127
1, 423412, Note_off_c, 0, 44, 63
1, 423468, Note_on_c, 0, 41, 65
1, 423531, Note_on_c, 0, 37, 76
1, 423531, Note_off_c, 0, 41, 58
1, 423569, Control_c, 0, 64, 81
1, 423584, Control_c, 0, 64, 57
1, 423599, Control_c, 0, 64, 45
1, 423614, Control_c, 0, 64, 65
1, 423629, Control_c, 0, 64, 101
1, 423634, Note_off_c, 0, 60, 57
1, 423641, Note_off_c, 0, 37, 61
1, 423644, Note_on_c, 0, 36, 59
1, 423644, Control_c, 0, 64, 127
1, 423663, Note_on_c, 0, 35, 38
1, 423669, Note_off_c, 0, 53, 36
1, 423702, Note_off_c, 0, 35, 32
1, 423719, Note_on_c, 0, 37, 75
1, 423722, Note_off_c, 0, 36, 63
1, 423806, Control_c, 0, 64, 107
1, 423815, Note_off_c, 0, 37, 59
1, 423821, Control_c, 0, 64, 66
1, 423831, Note_on_c, 0, 60, 66
1, 423836, Note_on_c, 0, 52, 71
1, 423836, Control_c, 0, 64, 30
1, 423843, Note_off_c, 0, 56, 59
1, 423846, Note_on_c, 0, 36, 66
1, 423847, Note_on_c, 0, 58, 65
1, 423851, Control_c, 0, 64, 17
1, 423865, Control_c, 0, 64, 56
1, 423880, Control_c, 0, 64, 86
1, 423895, Control_c, 0, 64, 127
1, 423931, Note_off_c, 0, 36, 59
1, 423934, Note_on_c, 0, 44, 74
1, 424020, Note_off_c, 0, 44, 56
1, 424024, Note_off_c, 0, 52, 51
1, 424047, Note_on_c, 0, 43, 77
1, 424051, Note_off_c, 0, 60, 51
1, 424184, Control_c, 0, 64, 104
1, 424199, Note_off_c, 0, 43, 62
1, 424199, Control_c, 0, 64, 57
1, 424203, Note_off_c, 0, 58, 62
1, 424211, Note_on_c, 0, 56, 80
1, 424214, Control_c, 0, 64, 0
1, 424216, Note_on_c, 0, 65, 86
1, 424217, Note_on_c, 0, 41, 92
1, 424219, Note_on_c, 0, 48, 91
1, 424258, Control_c, 0, 64, 28
1, 424265, Note_off_c, 0, 41, 65
1, 424273, Control_c, 0, 64, 82
1, 424276, Note_off_c, 0, 56, 63
1, 424288, Control_c, 0, 64, 127
1, 424292, Note_off_c, 0, 48, 61
1, 424311, Note_off_c, 0, 65, 65
1, 424332, Note_on_c, 0, 57, 86
1, 424380, Note_on_c, 0, 59, 26
1, 424405, Note_off_c, 0, 57, 62
1, 424415, Note_on_c, 0, 66, 78
1, 424419, Note_off_c, 0, 59, 52
1, 424426, Note_on_c, 0, 60, 72
1, 424467, Note_on_c, 0, 51, 81
1, 424482, Note_off_c, 0, 60, 64
1, 424542, Note_on_c, 0, 54, 87
1, 424544, Note_on_c, 0, 62, 87
1, 424550, Note_on_c, 0, 69, 78
1, 424560, Note_off_c, 0, 51, 62
1, 424562, Note_off_c, 0, 66, 36
1, 424592, Note_off_c, 0, 62, 64
1, 424596, Note_off_c, 0, 69, 61
1, 424620, Note_on_c, 0, 63, 88
1, 424673, Note_off_c, 0, 54, 64
1, 424686, Note_on_c, 0, 66, 76
1, 424700, Note_off_c, 0, 63, 65
1, 424718, Note_on_c, 0, 72, 70
1, 424721, Note_on_c, 0, 57, 76
1, 424730, Note_off_c, 0, 66, 64
1, 424741, Note_off_c, 0, 72, 68
1, 424761, Note_off_c, 0, 57, 64
1, 424771, Note_on_c, 0, 60, 91
1, 424784, Note_on_c, 0, 68, 98
1, 424794, Note_on_c, 0, 75, 83
1, 424828, Note_off_c, 0, 60, 66
1, 424866, Note_off_c, 0, 68, 58
1, 424869, Note_on_c, 0, 69, 73
1, 424933, Note_on_c, 0, 63, 86
1, 424940, Note_off_c, 0, 75, 61
1, 424944, Note_off_c, 0, 69, 62
1, 424946, Note_on_c, 0, 72, 77
1, 424950, Note_on_c, 0, 78, 69
1, 424972, Note_off_c, 0, 78, 69
1, 424991, Note_off_c, 0, 72, 61
1, 425014, Note_on_c, 0, 66, 89
1, 425030, Note_on_c, 0, 81, 93
1, 425039, Note_off_c, 0, 63, 65
1, 425042, Poly_aftertouch_c, 0, 70, 0
1, 425091, Note_off_c, 0, 81, 64
1, 425097, Note_on_c, 0, 75, 96
1, 425169, Note_on_c, 0, 84, 79
1, 425171, Control_c, 0, 64, 64
1, 425176, Note_off_c, 0, 66, 60
1, 425180, Note_off_c, 0, 75, 66
1, 425187, Control_c, 0, 64, 46
1, 425196, Note_on_c, 0, 69, 80
1, 425199, Note_off_c, 0, 84, 68
1, 425202, Control_c, 0, 64, 63
1, 425216, Control_c, 0, 64, 93
1, 425231, Control_c, 0, 64, 127
1, 425236, Note_off_c, 0, 69, 65
1, 425247, Note_on_c, 0, 80, 95
1, 425252, Note_on_c, 0, 87, 95
1, 425253, Note_on_c, 0, 72, 90
1, 425290, Note_off_c, 0, 80, 59
1, 425297, Note_on_c, 0, 79, 21
1, 425314, Note_off_c, 0, 72, 63
1, 425329, Note_on_c, 0, 82, 31
1, 425335, Note_off_c, 0, 79, 40
1, 425342, Note_on_c, 0, 81, 77
1, 425398, Note_off_c, 0, 87, 61
1, 425410, Note_on_c, 0, 84, 83
1, 425413, Note_on_c, 0, 75, 90
1, 425415, Note_off_c, 0, 81, 63
1, 425422, Note_on_c, 0, 90, 72
1, 425451, Note_off_c, 0, 90, 69
1, 425454, Note_off_c, 0, 82, 59
1, 425465, Note_off_c, 0, 84, 67
1, 425499, Note_on_c, 0, 78, 89
1, 425503, Note_on_c, 0, 93, 91
1, 425526, Note_off_c, 0, 75, 67
1, 425526, Note_on_c, 0, 86, 56
1, 425547, Note_on_c, 0, 92, 30
1, 425548, Note_off_c, 0, 92, 127
1, 425548, Note_off_c, 0, 86, 42
1, 425560, Note_off_c, 0, 93, 67
1, 425574, Note_on_c, 0, 87, 92
1, 425661, Note_on_c, 0, 96, 86
1, 425678, Note_on_c, 0, 81, 88
1, 425684, Note_off_c, 0, 87, 62
1, 425698, Control_c, 0, 64, 89
1, 425706, Note_off_c, 0, 78, 64
1, 425713, Control_c, 0, 64, 52
1, 425724, Note_off_c, 0, 96, 64
1, 425728, Control_c, 0, 64, 0
1, 425743, Control_c, 0, 64, 37
1, 425747, Note_on_c, 0, 84, 90
1, 425747, Note_off_c, 0, 81, 61
1, 425757, Note_on_c, 0, 91, 95
1, 425757, Control_c, 0, 64, 72
1, 425768, Note_on_c, 0, 97, 88
1, 425772, Control_c, 0, 64, 127
1, 425785, Note_on_c, 0, 98, 65
1, 425791, Note_off_c, 0, 91, 68
1, 425797, Note_off_c, 0, 97, 64
1, 425799, Note_off_c, 0, 84, 68
1, 425801, Note_off_c, 0, 98, 65
1, 425960, Note_on_c, 0, 63, 41
1, 425995, Note_off_c, 0, 63, 59
1, 426037, Note_on_c, 0, 69, 82
1, 426041, Note_on_c, 0, 54, 94
1, 426042, Note_on_c, 0, 57, 81
1, 426048, Note_on_c, 0, 42, 82
1, 426053, Control_c, 0, 64, 65
1, 426054, Note_on_c, 0, 63, 63
1, 426068, Control_c, 0, 64, 0
1, 426091, Note_off_c, 0, 54, 65
1, 426098, Control_c, 0, 64, 52
1, 426103, Note_off_c, 0, 42, 62
1, 426113, Control_c, 0, 64, 85
1, 426128, Control_c, 0, 64, 127
1, 426155, Note_on_c, 0, 65, 78
1, 426160, Note_on_c, 0, 53, 89
1, 426167, Note_on_c, 0, 41, 86
1, 426170, Note_off_c, 0, 69, 57
1, 426194, Note_off_c, 0, 63, 57
1, 426207, Note_off_c, 0, 53, 66
1, 426211, Note_off_c, 0, 41, 64
1, 426220, Note_off_c, 0, 57, 31
1, 426272, Note_on_c, 0, 51, 92
1, 426279, Note_on_c, 0, 66, 77
1, 426285, Note_on_c, 0, 39, 83
1, 426294, Note_off_c, 0, 65, 62
1, 426296, Note_off_c, 0, 51, 67
1, 426312, Note_off_c, 0, 39, 66
1, 426330, Note_off_c, 0, 66, 64
1, 426351, Note_on_c, 0, 49, 91
1, 426363, Note_on_c, 0, 37, 88
1, 426369, Note_on_c, 0, 58, 87
1, 426373, Note_on_c, 0, 70, 87
1, 426390, Note_off_c, 0, 49, 66
1, 426393, Note_off_c, 0, 37, 67
1, 426402, Control_c, 0, 64, 64
1, 426417, Control_c, 0, 64, 0
1, 426436, Note_on_c, 0, 48, 97
1, 426444, Note_on_c, 0, 36, 84
1, 426476, Control_c, 0, 64, 72
1, 426477, Poly_aftertouch_c, 0, 39, 0
1, 426478, Note_off_c, 0, 48, 65
1, 426479, Note_off_c, 0, 36, 65
1, 426489, Note_off_c, 0, 70, 58
1, 426491, Control_c, 0, 64, 127
1, 426498, Note_off_c, 0, 58, 33
1, 426529, Note_on_c, 0, 46, 97
1, 426542, Note_on_c, 0, 34, 87
1, 426565, Control_c, 0, 64, 68
1, 426566, Note_off_c, 0, 46, 66
1, 426569, Note_off_c, 0, 34, 64
1, 426579, Control_c, 0, 64, 51
1, 426585, Poly_aftertouch_c, 0, 68, 127
1, 426594, Control_c, 0, 64, 76
1, 426609, Control_c, 0, 64, 127
1, 426610, Note_on_c, 0, 61, 91
1, 426618, Note_on_c, 0, 73, 91
1, 426619, Note_on_c, 0, 44, 95
1, 426629, Note_on_c, 0, 32, 93
1, 426648, Note_on_c, 0, 34, 40
1, 426649, Note_off_c, 0, 34, 127
1, 426657, Note_off_c, 0, 44, 62
1, 426658, Note_off_c, 0, 32, 68
1, 426672, Poly_aftertouch_c, 0, 68, 0
1, 426718, Note_on_c, 0, 43, 94
1, 426727, Note_on_c, 0, 31, 92
1, 426759, Note_off_c, 0, 31, 66
1, 426761, Note_off_c, 0, 43, 65
1, 426775, Note_off_c, 0, 61, 37
1, 426794, Note_off_c, 0, 73, 59
1, 426817, Note_on_c, 0, 43, 87
1, 426820, Note_on_c, 0, 31, 85
1, 426857, Note_off_c, 0, 43, 65
1, 426864, Note_off_c, 0, 31, 63
1, 426891, Control_c, 0, 64, 70
1, 426906, Control_c, 0, 64, 0
1, 426908, Note_on_c, 0, 60, 95
1, 426909, Note_on_c, 0, 72, 90
1, 426915, Note_on_c, 0, 64, 88
1, 426916, Note_on_c, 0, 43, 95
1, 426918, Note_on_c, 0, 70, 80
1, 426922, Note_on_c, 0, 31, 88
1, 426936, Control_c, 0, 64, 62
1, 426958, Control_c, 0, 64, 114
1, 426966, Note_off_c, 0, 43, 65
1, 426973, Control_c, 0, 64, 127
1, 426980, Note_off_c, 0, 31, 63
1, 426998, Note_off_c, 0, 72, 65
1, 427010, Note_off_c, 0, 64, 63
1, 427014, Note_off_c, 0, 70, 60
1, 427025, Note_off_c, 0, 60, 61
1, 427052, Note_on_c, 0, 36, 91
1, 427061, Note_on_c, 0, 24, 83
1, 427083, Note_off_c, 0, 36, 67
1, 427091, Note_off_c, 0, 24, 61
1, 427099, Note_on_c, 0, 26, 33
1, 427100, Note_off_c, 0, 26, 127
1, 427143, Note_on_c, 0, 36, 89
1, 427144, Poly_aftertouch_c, 0, 26, 0
1, 427152, Note_on_c, 0, 24, 81
1, 427173, Note_off_c, 0, 36, 66
1, 427177, Note_off_c, 0, 24, 64
1, 427219, Note_on_c, 0, 64, 90
1, 427222, Note_on_c, 0, 52, 90
1, 427227, Note_on_c, 0, 58, 88
1, 427240, Note_on_c, 0, 37, 91
1, 427252, Note_on_c, 0, 25, 88
1, 427294, Note_off_c, 0, 37, 64
1, 427298, Note_off_c, 0, 25, 62
1, 427356, Note_on_c, 0, 36, 85
1, 427360, Note_on_c, 0, 24, 71
1, 427364, Note_off_c, 0, 52, 57
1, 427364, Note_off_c, 0, 58, 48
1, 427398, Note_off_c, 0, 24, 63
1, 427398, Note_off_c, 0, 36, 61
1, 427443, Note_off_c, 0, 64, 56
1, 427466, Note_on_c, 0, 36, 89
1, 427475, Note_on_c, 0, 24, 88
1, 427510, Note_off_c, 0, 36, 65
1, 427511, Note_off_c, 0, 24, 65
1, 427640, Control_c, 0, 64, 92
1, 427655, Control_c, 0, 64, 56
1, 427669, Control_c, 0, 64, 0
1, 427679, Note_on_c, 0, 41, 90
1, 427683, Note_on_c, 0, 29, 95
1, 427683, Note_on_c, 0, 56, 85
1, 427685, Note_on_c, 0, 65, 85
1, 427720, Note_on_c, 0, 32, 48
1, 427727, Note_off_c, 0, 41, 64
1, 427731, Note_off_c, 0, 29, 65
1, 427751, Control_c, 0, 64, 19
1, 427756, Note_off_c, 0, 32, 35
1, 427766, Control_c, 0, 64, 64
1, 427770, Note_off_c, 0, 56, 64
1, 427781, Control_c, 0, 64, 86
1, 427796, Control_c, 0, 64, 127
1, 427797, Note_off_c, 0, 65, 64
1, 427821, Note_on_c, 0, 57, 85
1, 427906, Note_on_c, 0, 66, 76
1, 427908, Note_on_c, 0, 60, 77
1, 427911, Note_off_c, 0, 57, 62
1, 427955, Note_on_c, 0, 51, 78
1, 427974, Note_off_c, 0, 60, 61
1, 428024, Note_off_c, 0, 66, 58
1, 428031, Note_on_c, 0, 54, 89
1, 428042, Note_on_c, 0, 69, 82
1, 428045, Note_on_c, 0, 62, 87
1, 428066, Note_off_c, 0, 51, 64
1, 428086, Note_off_c, 0, 69, 65
1, 428094, Note_off_c, 0, 62, 61
1, 428116, Note_on_c, 0, 63, 88
1, 428173, Note_off_c, 0, 54, 64
1, 428188, Note_on_c, 0, 66, 77
1, 428194, Note_on_c, 0, 72, 75
1, 428195, Note_off_c, 0, 63, 65
1, 428197, Note_on_c, 0, 57, 84
1, 428210, Note_off_c, 0, 66, 68
1, 428218, Note_off_c, 0, 72, 67
1, 428241, Control_c, 0, 64, 106
1, 428247, Note_off_c, 0, 57, 67
1, 428256, Control_c, 0, 64, 107
1, 428262, Note_on_c, 0, 60, 91
1, 428266, Note_on_c, 0, 68, 96
1, 428270, Control_c, 0, 64, 127
1, 428276, Note_on_c, 0, 75, 87
1, 428301, Note_on_c, 0, 67, 47
1, 428306, Note_on_c, 0, 73, 48
1, 428325, Note_off_c, 0, 60, 64
1, 428325, Note_off_c, 0, 67, 59
1, 428331, Note_off_c, 0, 68, 0
1, 428344, Note_on_c, 0, 68, 58
1, 428361, Note_off_c, 0, 68, 65
1, 428367, Note_on_c, 0, 69, 77
1, 428427, Note_off_c, 0, 75, 60
1, 428430, Note_off_c, 0, 69, 61
1, 428432, Note_off_c, 0, 73, 53
1, 428433, Note_on_c, 0, 72, 81
1, 428447, Note_on_c, 0, 63, 57
1, 428448, Note_on_c, 0, 78, 70
1, 428450, Note_on_c, 0, 64, 88
1, 428471, Note_off_c, 0, 78, 68
1, 428479, Note_off_c, 0, 63, 60
1, 428484, Note_off_c, 0, 72, 64
1, 428513, Note_on_c, 0, 66, 85
1, 428525, Note_on_c, 0, 81, 93
1, 428537, Poly_aftertouch_c, 0, 70, 0
1, 428542, Note_off_c, 0, 64, 61
1, 428543, Note_on_c, 0, 74, 65
1, 428560, Note_off_c, 0, 74, 64
1, 428590, Note_off_c, 0, 81, 61
1, 428593, Note_on_c, 0, 75, 90
1, 428636, Poly_aftertouch_c, 0, 80, 0
1, 428660, Note_off_c, 0, 66, 56
1, 428669, Note_on_c, 0, 84, 79
1, 428676, Note_off_c, 0, 75, 66
1, 428679, Control_c, 0, 64, 70
1, 428689, Note_off_c, 0, 84, 70
1, 428693, Control_c, 0, 64, 46
1, 428698, Note_on_c, 0, 69, 78
1, 428708, Control_c, 0, 64, 55
1, 428722, Note_off_c, 0, 69, 69
1, 428723, Control_c, 0, 64, 80
1, 428736, Note_on_c, 0, 72, 92
1, 428738, Control_c, 0, 64, 127
1, 428739, Note_on_c, 0, 80, 92
1, 428748, Note_on_c, 0, 87, 92
1, 428766, Note_on_c, 0, 79, 59
1, 428782, Note_off_c, 0, 80, 62
1, 428786, Note_off_c, 0, 79, 64
1, 428804, Note_off_c, 0, 72, 63
1, 428834, Poly_aftertouch_c, 0, 85, 127
1, 428835, Note_on_c, 0, 81, 75
1, 428888, Note_off_c, 0, 87, 60
1, 428906, Note_on_c, 0, 84, 78
1, 428909, Note_on_c, 0, 75, 86
1, 428910, Poly_aftertouch_c, 0, 85, 0
1, 428913, Poly_aftertouch_c, 0, 82, 127
1, 428915, Note_off_c, 0, 81, 63
1, 428960, Poly_aftertouch_c, 0, 82, 0
1, 428960, Note_off_c, 0, 84, 64
1, 428984, Note_on_c, 0, 78, 90
1, 428992, Note_on_c, 0, 93, 91
1, 429015, Note_on_c, 0, 86, 61
1, 429016, Note_off_c, 0, 75, 65
1, 429034, Note_off_c, 0, 86, 64
1, 429054, Note_off_c, 0, 93, 67
1, 429064, Note_on_c, 0, 87, 90
1, 429155, Note_on_c, 0, 96, 87
1, 429175, Note_on_c, 0, 81, 82
1, 429195, Note_off_c, 0, 87, 63
1, 429215, Note_off_c, 0, 78, 63
1, 429220, Control_c, 0, 64, 76
1, 429221, Note_off_c, 0, 96, 65
1, 429235, Control_c, 0, 64, 19
1, 429243, Note_off_c, 0, 81, 67
1, 429249, Control_c, 0, 64, 0
1, 429254, Note_on_c, 0, 84, 88
1, 429264, Control_c, 0, 64, 14
1, 429270, Note_on_c, 0, 91, 100
1, 429276, Note_on_c, 0, 98, 98
1, 429278, Note_on_c, 0, 97, 88
1, 429279, Control_c, 0, 64, 60
1, 429292, Note_off_c, 0, 98, 72
1, 429294, Control_c, 0, 64, 103
1, 429301, Note_off_c, 0, 91, 68
1, 429304, Note_off_c, 0, 84, 68
1, 429309, Control_c, 0, 64, 127
1, 429316, Note_off_c, 0, 97, 63
1, 429460, Note_on_c, 0, 75, 27
1, 429494, Note_off_c, 0, 75, 54
1, 429541, Note_on_c, 0, 81, 87
1, 429552, Note_on_c, 0, 66, 80
1, 429552, Note_on_c, 0, 69, 79
1, 429558, Note_on_c, 0, 54, 74
1, 429558, Note_on_c, 0, 68, 78
1, 429559, Note_on_c, 0, 75, 77
1, 429561, Control_c, 0, 64, 67
1, 429576, Control_c, 0, 64, 0
1, 429582, Note_off_c, 0, 68, 70
1, 429589, Note_off_c, 0, 66, 61
1, 429594, Note_off_c, 0, 54, 67
1, 429635, Control_c, 0, 64, 66
1, 429646, Note_off_c, 0, 69, 52
1, 429649, Control_c, 0, 64, 127
1, 429663, Note_on_c, 0, 65, 90
1, 429673, Note_on_c, 0, 53, 81
1, 429675, Note_on_c, 0, 77, 66
1, 429681, Note_on_c, 0, 76, 73
1, 429687, Note_off_c, 0, 81, 55
1, 429704, Note_off_c, 0, 75, 60
1, 429708, Note_off_c, 0, 65, 67
1, 429712, Note_off_c, 0, 53, 64
1, 429771, Note_on_c, 0, 63, 91
1, 429777, Note_off_c, 0, 76, 53
1, 429783, Note_on_c, 0, 51, 81
1, 429792, Note_on_c, 0, 78, 68
1, 429797, Note_off_c, 0, 63, 65
1, 429806, Note_off_c, 0, 51, 68
1, 429832, Note_off_c, 0, 77, 32
1, 429838, Note_off_c, 0, 78, 55
1, 429855, Note_on_c, 0, 61, 95
1, 429870, Note_on_c, 0, 49, 88
1, 429875, Note_on_c, 0, 70, 86
1, 429884, Note_on_c, 0, 82, 83
1, 429887, Control_c, 0, 64, 106
1, 429890, Note_off_c, 0, 61, 64
1, 429895, Note_off_c, 0, 49, 66
1, 429902, Control_c, 0, 64, 60
1, 429917, Control_c, 0, 64, 29
1, 429939, Control_c, 0, 64, 63
1, 429953, Note_on_c, 0, 60, 95
1, 429954, Control_c, 0, 64, 127
1, 429957, Poly_aftertouch_c, 0, 51, 0
1, 429964, Note_on_c, 0, 48, 91
1, 429989, Note_off_c, 0, 70, 53
1, 429994, Note_off_c, 0, 60, 68
1, 430003, Note_off_c, 0, 48, 63
1, 430007, Note_on_c, 0, 51, 12
1, 430016, Note_off_c, 0, 82, 55
1, 430039, Note_off_c, 0, 51, 27
1, 430051, Note_on_c, 0, 58, 100
1, 430058, Control_c, 0, 64, 119
1, 430064, Note_on_c, 0, 46, 88
1, 430072, Control_c, 0, 64, 63
1, 430087, Note_off_c, 0, 58, 66
1, 430087, Control_c, 0, 64, 62
1, 430088, Note_off_c, 0, 46, 67
1, 430102, Control_c, 0, 64, 103
1, 430117, Control_c, 0, 64, 127
1, 430124, Note_on_c, 0, 73, 91
1, 430128, Note_on_c, 0, 85, 90
1, 430143, Note_on_c, 0, 56, 90
1, 430152, Note_on_c, 0, 44, 87
1, 430166, Note_on_c, 0, 75, 35
1, 430179, Note_off_c, 0, 44, 67
1, 430180, Note_off_c, 0, 56, 65
1, 430185, Note_on_c, 0, 43, 43
1, 430200, Note_off_c, 0, 75, 46
1, 430214, Note_off_c, 0, 43, 50
1, 430239, Note_on_c, 0, 55, 96
1, 430248, Note_on_c, 0, 43, 84
1, 430256, Note_off_c, 0, 73, 57
1, 430261, Note_on_c, 0, 46, 24
1, 430276, Note_off_c, 0, 85, 62
1, 430280, Note_off_c, 0, 55, 65
1, 430282, Note_off_c, 0, 46, 37
1, 430283, Note_off_c, 0, 43, 64
1, 430346, Note_on_c, 0, 55, 101
1, 430353, Note_on_c, 0, 43, 93
1, 430374, Note_on_c, 0, 46, 35
1, 430386, Note_off_c, 0, 55, 66
1, 430397, Note_off_c, 0, 43, 63
1, 430404, Note_off_c, 0, 46, 45
1, 430427, Control_c, 0, 64, 72
1, 430442, Control_c, 0, 64, 13
1, 430456, Note_on_c, 0, 55, 97
1, 430456, Note_on_c, 0, 84, 92
1, 430457, Note_on_c, 0, 72, 95
1, 430457, Control_c, 0, 64, 0
1, 430459, Note_on_c, 0, 82, 75
1, 430462, Note_on_c, 0, 43, 89
1, 430462, Note_on_c, 0, 76, 87
1, 430471, Control_c, 0, 64, 48
1, 430482, Note_on_c, 0, 46, 58
1, 430486, Control_c, 0, 64, 79
1, 430500, Note_off_c, 0, 55, 66
1, 430501, Control_c, 0, 64, 127
1, 430506, Note_off_c, 0, 46, 38
1, 430512, Note_off_c, 0, 43, 65
1, 430521, Note_off_c, 0, 84, 67
1, 430530, Note_off_c, 0, 82, 57
1, 430545, Note_off_c, 0, 76, 64
1, 430549, Note_off_c, 0, 72, 62
1, 430602, Note_on_c, 0, 48, 88
1, 430605, Note_on_c, 0, 36, 88
1, 430632, Note_off_c, 0, 48, 66
1, 430650, Note_off_c, 0, 36, 61
1, 430705, Note_on_c, 0, 36, 64
1, 430727, Note_on_c, 0, 48, 57
1, 430734, Note_on_c, 0, 50, 56
1, 430757, Note_off_c, 0, 50, 59
1, 430757, Note_off_c, 0, 36, 63
1, 430758, Note_off_c, 0, 48, 64
1, 430820, Control_c, 0, 64, 82
1, 430826, Note_on_c, 0, 76, 89
1, 430829, Note_on_c, 0, 64, 87
1, 430831, Note_on_c, 0, 49, 96
1, 430834, Note_on_c, 0, 70, 83
1, 430835, Control_c, 0, 64, 53
1, 430842, Note_on_c, 0, 37, 82
1, 430850, Control_c, 0, 64, 28
1, 430865, Control_c, 0, 64, 56
1, 430880, Control_c, 0, 64, 91
1, 430890, Note_off_c, 0, 49, 63
1, 430894, Control_c, 0, 64, 127
1, 430901, Note_off_c, 0, 37, 62
1, 430961, Note_on_c, 0, 48, 87
1, 430967, Note_on_c, 0, 36, 86
1, 431004, Note_off_c, 0, 70, 57
1, 431011, Note_off_c, 0, 48, 62
1, 431019, Note_off_c, 0, 36, 63
1, 431078, Note_off_c, 0, 64, 34
1, 431097, Note_on_c, 0, 48, 88
1, 431105, Note_on_c, 0, 36, 83
1, 431142, Note_off_c, 0, 48, 62
1, 431157, Note_off_c, 0, 36, 63
1, 431305, Note_off_c, 0, 76, 36
1, 431354, Control_c, 0, 64, 115
1, 431358, Note_on_c, 0, 29, 79
1, 431360, Note_on_c, 0, 77, 70
1, 431368, Control_c, 0, 64, 69
1, 431369, Note_on_c, 0, 65, 63
1, 431369, Note_on_c, 0, 68, 57
1, 431383, Control_c, 0, 64, 12
1, 431398, Control_c, 0, 64, 0
1, 431428, Note_off_c, 0, 77, 58
1, 431465, Control_c, 0, 64, 44
1, 431480, Control_c, 0, 64, 65
1, 431492, Note_on_c, 0, 36, 66
1, 431494, Control_c, 0, 64, 79
1, 431495, Note_off_c, 0, 68, 63
1, 431496, Note_off_c, 0, 65, 63
1, 431510, Control_c, 0, 64, 113
1, 431525, Control_c, 0, 64, 127
1, 431532, Note_off_c, 0, 29, 56
1, 431613, Note_on_c, 0, 44, 64
1, 431626, Note_off_c, 0, 36, 62
1, 431689, Note_off_c, 0, 44, 58
1, 431697, Note_on_c, 0, 49, 68
1, 431756, Note_off_c, 0, 49, 61
1, 431774, Note_on_c, 0, 48, 70
1, 431837, Note_off_c, 0, 48, 61
1, 431848, Note_on_c, 0, 53, 59
1, 431866, Control_c, 0, 64, 79
1, 431881, Control_c, 0, 64, 51
1, 431896, Control_c, 0, 64, 0
1, 431897, Note_off_c, 0, 53, 61
1, 431913, Note_on_c, 0, 56, 65
1, 431954, Control_c, 0, 64, 50
1, 431962, Note_off_c, 0, 56, 54
1, 431969, Control_c, 0, 64, 70
1, 431984, Control_c, 0, 64, 81
1, 431999, Control_c, 0, 64, 127
1, 432004, Note_on_c, 0, 53, 64
1, 432045, Note_off_c, 0, 53, 62
1, 432070, Note_on_c, 0, 58, 62
1, 432149, Note_off_c, 0, 58, 58
1, 432150, Note_on_c, 0, 56, 61
1, 432165, Note_on_c, 0, 36, 52
1, 432212, Note_off_c, 0, 56, 60
1, 432214, Control_c, 0, 64, 79
1, 432229, Control_c, 0, 64, 51
1, 432239, Note_on_c, 0, 52, 66
1, 432243, Control_c, 0, 64, 0
1, 432273, Control_c, 0, 64, 36
1, 432288, Control_c, 0, 64, 62
1, 432290, Note_on_c, 0, 46, 55
1, 432292, Note_off_c, 0, 36, 62
1, 432303, Control_c, 0, 64, 85
1, 432310, Note_off_c, 0, 52, 60
1, 432319, Control_c, 0, 64, 127
1, 432325, Note_on_c, 0, 55, 54
1, 432367, Note_off_c, 0, 55, 64
1, 432371, Note_off_c, 0, 46, 56
1, 432388, Note_on_c, 0, 56, 70
1, 432397, Note_on_c, 0, 52, 52
1, 432418, Note_off_c, 0, 56, 65
1, 432445, Note_off_c, 0, 52, 62
1, 432468, Note_on_c, 0, 57, 67
1, 432489, Note_on_c, 0, 40, 73
1, 432522, Note_off_c, 0, 57, 51
1, 432528, Note_on_c, 0, 60, 80
1, 432540, Control_c, 0, 64, 107
1, 432549, Note_off_c, 0, 40, 63
1, 432555, Control_c, 0, 64, 68
1, 432561, Note_on_c, 0, 48, 64
1, 432570, Control_c, 0, 64, 57
1, 432585, Control_c, 0, 64, 65
1, 432585, Note_off_c, 0, 60, 62
1, 432600, Control_c, 0, 64, 83
1, 432604, Note_on_c, 0, 61, 76
1, 432609, Note_off_c, 0, 48, 58
1, 432614, Control_c, 0, 64, 127
1, 432645, Note_off_c, 0, 61, 59
1, 432646, Note_on_c, 0, 58, 73
1, 432680, Note_on_c, 0, 60, 61
1, 432698, Note_off_c, 0, 58, 63
1, 432716, Note_off_c, 0, 60, 57
1, 432752, Note_on_c, 0, 67, 47
1, 432793, Note_on_c, 0, 41, 72
1, 432836, Control_c, 0, 64, 75
1, 432850, Control_c, 0, 64, 60
1, 432862, Note_on_c, 0, 59, 76
1, 432865, Control_c, 0, 64, 56
1, 432870, Note_off_c, 0, 41, 60
1, 432873, Note_off_c, 0, 67, 51
1, 432874, Note_on_c, 0, 48, 64
1, 432880, Control_c, 0, 64, 69
1, 432895, Control_c, 0, 64, 87
1, 432910, Control_c, 0, 64, 127
1, 432915, Note_off_c, 0, 59, 63
1, 432924, Note_on_c, 0, 60, 69
1, 432983, Note_on_c, 0, 56, 65
1, 432985, Note_off_c, 0, 60, 64
1, 432998, Note_on_c, 0, 61, 73
1, 433011, Note_off_c, 0, 48, 36
1, 433023, Note_off_c, 0, 61, 68
1, 433044, Note_on_c, 0, 60, 70
1, 433077, Note_off_c, 0, 56, 61
1, 433095, Note_on_c, 0, 44, 76
1, 433114, Note_off_c, 0, 60, 61
1, 433121, Note_on_c, 0, 64, 65
1, 433123, Note_on_c, 0, 65, 67
1, 433164, Note_off_c, 0, 64, 57
1, 433166, Note_off_c, 0, 65, 59
1, 433178, Note_off_c, 0, 44, 64
1, 433180, Note_on_c, 0, 68, 74
1, 433187, Note_on_c, 0, 53, 53
1, 433233, Note_off_c, 0, 53, 62
1, 433253, Note_on_c, 0, 65, 79
1, 433255, Note_off_c, 0, 68, 64
1, 433263, Note_on_c, 0, 60, 64
1, 433300, Note_off_c, 0, 65, 67
1, 433303, Control_c, 0, 64, 73
1, 433306, Note_on_c, 0, 70, 79
1, 433318, Control_c, 0, 64, 0
1, 433344, Note_off_c, 0, 60, 52
1, 433363, Control_c, 0, 64, 32
1, 433369, Note_on_c, 0, 68, 78
1, 433377, Note_on_c, 0, 48, 75
1, 433378, Control_c, 0, 64, 62
1, 433389, Note_off_c, 0, 70, 62
1, 433392, Control_c, 0, 64, 89
1, 433407, Control_c, 0, 64, 127
1, 433419, Note_off_c, 0, 68, 64
1, 433427, Note_on_c, 0, 64, 85
1, 433457, Note_off_c, 0, 48, 59
1, 433488, Note_on_c, 0, 68, 69
1, 433491, Note_off_c, 0, 64, 62
1, 433492, Note_on_c, 0, 58, 69
1, 433515, Note_on_c, 0, 67, 68
1, 433516, Note_off_c, 0, 68, 55
1, 433548, Note_off_c, 0, 67, 63
1, 433553, Note_on_c, 0, 68, 82
1, 433583, Note_off_c, 0, 58, 59
1, 433598, Note_off_c, 0, 68, 67
1, 433607, Note_on_c, 0, 64, 24
1, 433625, Note_on_c, 0, 69, 86
1, 433643, Note_off_c, 0, 64, 43
1, 433658, Note_on_c, 0, 52, 78
1, 433704, Note_on_c, 0, 72, 77
1, 433706, Note_off_c, 0, 69, 60
1, 433711, Note_off_c, 0, 52, 65
1, 433741, Note_on_c, 0, 60, 66
1, 433742, Note_on_c, 0, 71, 32
1, 433743, Note_off_c, 0, 71, 127
1, 433765, Note_on_c, 0, 73, 82
1, 433765, Note_off_c, 0, 72, 63
1, 433802, Note_on_c, 0, 61, 31
1, 433808, Note_on_c, 0, 70, 72
1, 433828, Note_off_c, 0, 73, 62
1, 433834, Note_off_c, 0, 70, 66
1, 433837, Note_on_c, 0, 72, 78
1, 433837, Note_off_c, 0, 61, 54
1, 433841, Note_off_c, 0, 60, 27
1, 433899, Note_off_c, 0, 72, 63
1, 433899, Note_on_c, 0, 79, 76
1, 433949, Control_c, 0, 64, 72
1, 433963, Control_c, 0, 64, 34
1, 433967, Note_on_c, 0, 77, 77
1, 433971, Note_on_c, 0, 41, 70
1, 433975, Note_off_c, 0, 79, 60
1, 433978, Control_c, 0, 64, 0
1, 433993, Control_c, 0, 64, 34
1, 433999, Note_off_c, 0, 77, 66
1, 434008, Control_c, 0, 64, 61
1, 434023, Control_c, 0, 64, 85
1, 434037, Control_c, 0, 64, 127
1, 434060, Note_off_c, 0, 41, 61
1, 434069, Note_on_c, 0, 49, 39
1, 434075, Note_on_c, 0, 48, 72
1, 434088, Note_on_c, 0, 59, 79
1, 434102, Note_off_c, 0, 49, 44
1, 434135, Note_on_c, 0, 56, 62
1, 434144, Note_off_c, 0, 48, 58
1, 434150, Note_off_c, 0, 59, 64
1, 434156, Note_on_c, 0, 60, 69
1, 434214, Note_off_c, 0, 60, 63
1, 434220, Note_on_c, 0, 61, 74
1, 434245, Note_off_c, 0, 61, 67
1, 434256, Note_off_c, 0, 56, 35
1, 434275, Note_on_c, 0, 44, 76
1, 434279, Note_on_c, 0, 62, 60
1, 434281, Note_on_c, 0, 60, 67
1, 434317, Note_off_c, 0, 60, 63
1, 434331, Note_off_c, 0, 62, 54
1, 434335, Note_on_c, 0, 65, 78
1, 434351, Note_off_c, 0, 44, 63
1, 434354, Note_on_c, 0, 53, 55
1, 434390, Note_off_c, 0, 65, 66
1, 434391, Note_on_c, 0, 68, 82
1, 434397, Note_off_c, 0, 53, 63
1, 434427, Note_on_c, 0, 60, 72
1, 434466, Note_on_c, 0, 65, 76
1, 434469, Note_off_c, 0, 68, 65
1, 434508, Note_off_c, 0, 65, 68
1, 434510, Note_off_c, 0, 60, 58
1, 434513, Note_on_c, 0, 70, 85
1, 434534, Control_c, 0, 64, 80
1, 434547, Note_on_c, 0, 48, 84
1, 434549, Control_c, 0, 64, 47
1, 434563, Control_c, 0, 64, 0
1, 434576, Note_on_c, 0, 68, 81
1, 434578, Control_c, 0, 64, 38
1, 434593, Control_c, 0, 64, 65
1, 434599, Note_off_c, 0, 70, 61
1, 434608, Control_c, 0, 64, 82
1, 434617, Note_off_c, 0, 48, 61
1, 434623, Control_c, 0, 64, 127
1, 434626, Note_on_c, 0, 64, 83
1, 434630, Note_off_c, 0, 68, 65
1, 434667, Note_on_c, 0, 58, 69
1, 434696, Note_on_c, 0, 67, 78
1, 434697, Note_off_c, 0, 64, 63
1, 434738, Note_off_c, 0, 58, 59
1, 434743, Note_on_c, 0, 64, 58
1, 434751, Note_off_c, 0, 67, 64
1, 434753, Note_on_c, 0, 68, 84
1, 434792, Note_off_c, 0, 68, 62
1, 434802, Note_off_c, 0, 64, 58
1, 434809, Note_on_c, 0, 69, 83
1, 434835, Note_on_c, 0, 52, 84
1, 434874, Note_on_c, 0, 72, 85
1, 434874, Note_off_c, 0, 69, 60
1, 434875, Note_off_c, 0, 52, 65
1, 434900, Note_on_c, 0, 60, 60
1, 434933, Note_off_c, 0, 72, 63
1, 434934, Note_on_c, 0, 73, 86
1, 434967, Note_on_c, 0, 61, 37
1, 434977, Note_on_c, 0, 70, 79
1, 434978, Note_off_c, 0, 73, 64
1, 434987, Note_on_c, 0, 72, 80
1, 435023, Note_off_c, 0, 70, 64
1, 435028, Note_off_c, 0, 60, 33
1, 435053, Note_on_c, 0, 80, 84
1, 435053, Note_off_c, 0, 72, 58
1, 435065, Note_off_c, 0, 61, 43
1, 435083, Control_c, 0, 64, 68
1, 435097, Note_on_c, 0, 53, 81
1, 435098, Control_c, 0, 64, 24
1, 435112, Control_c, 0, 64, 28
1, 435121, Note_on_c, 0, 79, 79
1, 435127, Control_c, 0, 64, 64
1, 435137, Note_off_c, 0, 80, 62
1, 435142, Control_c, 0, 64, 86
1, 435157, Control_c, 0, 64, 127
1, 435160, Note_on_c, 0, 60, 60
1, 435169, Note_off_c, 0, 53, 63
1, 435183, Note_on_c, 0, 71, 83
1, 435203, Note_off_c, 0, 79, 61
1, 435241, Note_on_c, 0, 72, 82
1, 435243, Note_off_c, 0, 71, 65
1, 435260, Note_off_c, 0, 60, 63
1, 435275, Note_on_c, 0, 68, 72
1, 435303, Note_off_c, 0, 72, 64
1, 435310, Note_on_c, 0, 73, 77
1, 435330, Note_off_c, 0, 73, 71
1, 435341, Note_off_c, 0, 68, 59
1, 435348, Note_on_c, 0, 72, 69
1, 435372, Note_on_c, 0, 74, 45
1, 435382, Note_on_c, 0, 56, 83
1, 435406, Note_off_c, 0, 74, 33
1, 435412, Note_on_c, 0, 77, 90
1, 435422, Note_off_c, 0, 72, 56
1, 435457, Note_off_c, 0, 56, 65
1, 435467, Note_on_c, 0, 80, 83
1, 435469, Note_off_c, 0, 77, 63
1, 435471, Note_on_c, 0, 65, 52
1, 435488, Note_on_c, 0, 64, 33
1, 435514, Note_off_c, 0, 65, 65
1, 435525, Note_off_c, 0, 64, 46
1, 435536, Note_on_c, 0, 77, 86
1, 435538, Note_on_c, 0, 72, 79
1, 435539, Note_off_c, 0, 80, 65
1, 435580, Control_c, 0, 64, 67
1, 435586, Note_on_c, 0, 82, 92
1, 435587, Note_off_c, 0, 77, 65
1, 435595, Control_c, 0, 64, 38
1, 435596, Note_off_c, 0, 72, 57
1, 435610, Control_c, 0, 64, 39
1, 435625, Control_c, 0, 64, 67
1, 435628, Note_on_c, 0, 60, 83
1, 435640, Control_c, 0, 64, 109
1, 435655, Control_c, 0, 64, 127
1, 435658, Note_on_c, 0, 80, 82
1, 435679, Note_off_c, 0, 82, 64
1, 435691, Note_off_c, 0, 60, 48
1, 435697, Note_on_c, 0, 76, 87
1, 435713, Note_off_c, 0, 80, 63
1, 435724, Note_on_c, 0, 70, 79
1, 435758, Note_on_c, 0, 79, 84
1, 435765, Note_off_c, 0, 76, 61
1, 435799, Note_on_c, 0, 76, 51
1, 435802, Note_off_c, 0, 70, 60
1, 435820, Note_off_c, 0, 79, 63
1, 435821, Note_on_c, 0, 80, 88
1, 435855, Note_off_c, 0, 76, 59
1, 435864, Note_off_c, 0, 80, 62
1, 435879, Note_on_c, 0, 81, 74
1, 435898, Note_on_c, 0, 64, 83
1, 435948, Note_on_c, 0, 84, 87
1, 435953, Note_off_c, 0, 64, 59
1, 435956, Note_on_c, 0, 65, 43
1, 435958, Note_on_c, 0, 72, 66
1, 435974, Note_off_c, 0, 81, 61
1, 435981, Note_off_c, 0, 65, 57
1, 436000, Note_on_c, 0, 85, 90
1, 436007, Note_off_c, 0, 84, 66
1, 436056, Note_on_c, 0, 82, 71
1, 436068, Note_on_c, 0, 73, 18
1, 436076, Note_on_c, 0, 80, 23
1, 436078, Note_on_c, 0, 84, 90
1, 436080, Note_off_c, 0, 82, 68
1, 436080, Note_off_c, 0, 85, 64
1, 436095, Note_off_c, 0, 72, 56
1, 436108, Note_off_c, 0, 73, 29
1, 436116, Note_off_c, 0, 80, 39
1, 436131, Note_on_c, 0, 91, 91
1, 436146, Note_off_c, 0, 84, 67
1, 436209, Control_c, 0, 64, 81
1, 436224, Control_c, 0, 64, 34
1, 436231, Note_on_c, 0, 89, 91
1, 436235, Note_on_c, 0, 72, 77
1, 436236, Note_on_c, 0, 77, 92
1, 436239, Note_on_c, 0, 65, 81
1, 436239, Note_on_c, 0, 68, 85
1, 436239, Control_c, 0, 64, 0
1, 436267, Note_off_c, 0, 91, 66
1, 436284, Control_c, 0, 64, 37
1, 436287, Note_off_c, 0, 89, 66
1, 436299, Control_c, 0, 64, 81
1, 436314, Control_c, 0, 64, 127
1, 436315, Note_off_c, 0, 77, 58
1, 436359, Note_off_c, 0, 65, 56
1, 436360, Note_off_c, 0, 72, 62
1, 436363, Note_on_c, 0, 101, 92
1, 436367, Note_off_c, 0, 68, 62
1, 436436, Note_on_c, 0, 100, 84
1, 436483, Note_on_c, 0, 73, 83
1, 436484, Note_on_c, 0, 65, 80
1, 436484, Note_on_c, 0, 99, 93
1, 436486, Note_on_c, 0, 68, 80
1, 436489, Note_on_c, 0, 77, 76
1, 436504, Note_off_c, 0, 101, 62
1, 436514, Note_off_c, 0, 100, 63
1, 436517, Note_on_c, 0, 76, 51
1, 436541, Note_on_c, 0, 97, 88
1, 436546, Note_off_c, 0, 76, 39
1, 436558, Note_off_c, 0, 99, 67
1, 436588, Note_on_c, 0, 96, 84
1, 436596, Note_off_c, 0, 97, 66
1, 436639, Note_off_c, 0, 96, 66
1, 436654, Note_off_c, 0, 77, 57
1, 436656, Note_on_c, 0, 94, 90
1, 436686, Note_off_c, 0, 65, 55
1, 436689, Note_on_c, 0, 95, 61
1, 436701, Note_on_c, 0, 93, 73
1, 436707, Note_off_c, 0, 73, 59
1, 436707, Note_off_c, 0, 95, 64
1, 436719, Note_off_c, 0, 68, 60
1, 436722, Note_on_c, 0, 92, 88
1, 436743, Note_off_c, 0, 94, 57
1, 436760, Note_off_c, 0, 93, 66
1, 436776, Note_on_c, 0, 91, 83
1, 436777, Note_off_c, 0, 92, 68
1, 436811, Note_on_c, 0, 77, 83
1, 436812, Note_on_c, 0, 72, 80
1, 436815, Note_off_c, 0, 91, 67
1, 436815, Note_on_c, 0, 65, 76
1, 436822, Note_on_c, 0, 68, 78
1, 436827, Note_on_c, 0, 89, 85
1, 436892, Note_off_c, 0, 68, 58
1, 436895, Note_off_c, 0, 72, 59
1, 436901, Note_on_c, 0, 88, 81
1, 436901, Note_off_c, 0, 89, 43
1, 436911, Note_off_c, 0, 65, 61
1, 436911, Note_off_c, 0, 77, 55
1, 436962, Note_on_c, 0, 87, 54
1, 436965, Note_on_c, 0, 86, 80
1, 436983, Note_off_c, 0, 88, 64
1, 436984, Note_on_c, 0, 77, 88
1, 436993, Note_on_c, 0, 73, 80
1, 436994, Note_on_c, 0, 65, 75
1, 436995, Note_on_c, 0, 68, 83
1, 437002, Note_off_c, 0, 87, 54
1, 437009, Note_on_c, 0, 85, 81
1, 437020, Note_off_c, 0, 86, 65
1, 437038, Note_off_c, 0, 77, 64
1, 437052, Note_off_c, 0, 85, 65
1, 437077, Note_off_c, 0, 73, 66
1, 437083, Note_on_c, 0, 84, 59
1, 437095, Note_on_c, 0, 83, 67
1, 437095, Note_off_c, 0, 65, 65
1, 437096, Note_off_c, 0, 68, 66
1, 437114, Note_off_c, 0, 84, 68
1, 437117, Note_off_c, 0, 83, 56
1, 437133, Note_on_c, 0, 82, 89
1, 437187, Note_on_c, 0, 80, 88
1, 437224, Note_off_c, 0, 82, 65
1, 437245, Note_on_c, 0, 79, 72
1, 437255, Note_off_c, 0, 80, 64
1, 437266, Note_off_c, 0, 79, 67
1, 437270, Note_on_c, 0, 77, 65
1, 437295, Note_off_c, 0, 77, 65
1, 437333, Note_on_c, 0, 60, 85
1, 437334, Note_on_c, 0, 65, 86
1, 437335, Note_on_c, 0, 53, 81
1, 437336, Note_on_c, 0, 56, 80
1, 437353, Note_on_c, 0, 92, 85
1, 437389, Note_off_c, 0, 65, 60
1, 437397, Note_off_c, 0, 60, 60
1, 437398, Note_off_c, 0, 92, 67
1, 437410, Note_off_c, 0, 56, 62
1, 437418, Note_on_c, 0, 91, 85
1, 437433, Note_off_c, 0, 53, 61
1, 437474, Note_off_c, 0, 91, 66
1, 437492, Note_on_c, 0, 89, 67
1, 437527, Note_off_c, 0, 89, 64
1, 437530, Note_on_c, 0, 61, 85
1, 437530, Note_on_c, 0, 65, 78
1, 437530, Note_on_c, 0, 53, 86
1, 437532, Note_on_c, 0, 56, 83
1, 437541, Note_on_c, 0, 85, 69
1, 437544, Control_c, 0, 64, 68
1, 437559, Control_c, 0, 64, 55
1, 437566, Note_off_c, 0, 85, 66
1, 437573, Control_c, 0, 64, 69
1, 437588, Control_c, 0, 64, 122
1, 437603, Control_c, 0, 64, 127
1, 437622, Note_on_c, 0, 84, 81
1, 437676, Note_off_c, 0, 84, 62
1, 437683, Note_off_c, 0, 65, 59
1, 437693, Note_on_c, 0, 82, 86
1, 437700, Note_off_c, 0, 53, 58
1, 437723, Note_off_c, 0, 56, 61
1, 437733, Note_off_c, 0, 61, 60
1, 437743, Note_on_c, 0, 80, 82
1, 437788, Note_off_c, 0, 82, 66
1, 437798, Note_on_c, 0, 79, 77
1, 437799, Note_off_c, 0, 80, 67
1, 437835, Note_on_c, 0, 53, 78
1, 437835, Note_off_c, 0, 79, 65
1, 437837, Note_on_c, 0, 60, 79
1, 437837, Note_on_c, 0, 65, 81
1, 437838, Note_on_c, 0, 56, 81
1, 437849, Note_on_c, 0, 77, 87
1, 437903, Note_off_c, 0, 77, 63
1, 437903, Note_off_c, 0, 60, 62
1, 437915, Note_off_c, 0, 56, 60
1, 437920, Note_on_c, 0, 75, 83
1, 437920, Note_off_c, 0, 65, 57
1, 437936, Note_off_c, 0, 53, 59
1, 437971, Note_off_c, 0, 75, 65
1, 437977, Note_on_c, 0, 73, 80
1, 438007, Note_on_c, 0, 65, 92
1, 438009, Note_on_c, 0, 61, 85
1, 438014, Note_on_c, 0, 53, 76
1, 438014, Note_off_c, 0, 73, 66
1, 438015, Note_on_c, 0, 56, 82
1, 438025, Note_on_c, 0, 72, 74
1, 438056, Note_off_c, 0, 65, 64
1, 438083, Note_off_c, 0, 72, 63
1, 438093, Note_off_c, 0, 61, 67
1, 438105, Note_on_c, 0, 70, 87
1, 438113, Note_off_c, 0, 56, 65
1, 438118, Note_off_c, 0, 53, 64
1, 438159, Note_on_c, 0, 68, 86
1, 438213, Note_off_c, 0, 70, 61
1, 438220, Note_on_c, 0, 67, 80
1, 438237, Note_off_c, 0, 68, 68
1, 438266, Note_off_c, 0, 67, 65
1, 438281, Note_on_c, 0, 65, 78
1, 438334, Note_on_c, 0, 41, 79
1, 438339, Note_off_c, 0, 65, 66
1, 438369, Note_on_c, 0, 61, 79
1, 438371, Note_on_c, 0, 48, 72
1, 438434, Note_off_c, 0, 61, 64
1, 438436, Note_on_c, 0, 56, 90
1, 438441, Control_c, 0, 64, 76
1, 438455, Control_c, 0, 64, 31
1, 438457, Note_on_c, 0, 60, 83
1, 438470, Control_c, 0, 64, 0
1, 438500, Control_c, 0, 64, 10
1, 438515, Control_c, 0, 64, 63
1, 438522, Note_off_c, 0, 60, 64
1, 438529, Note_on_c, 0, 65, 73
1, 438529, Control_c, 0, 64, 127
1, 438587, Note_off_c, 0, 65, 65
1, 438603, Note_on_c, 0, 67, 66
1, 438604, Note_off_c, 0, 48, 60
1, 438606, Note_on_c, 0, 68, 37
1, 438606, Note_off_c, 0, 41, 63
1, 438606, Note_off_c, 0, 56, 57
1, 438631, Note_off_c, 0, 67, 66
1, 438633, Note_off_c, 0, 68, 58
1, 438669, Note_on_c, 0, 72, 89
1, 438741, Note_on_c, 0, 77, 83
1, 438752, Note_off_c, 0, 72, 60
1, 438808, Note_on_c, 0, 80, 91
1, 438814, Note_off_c, 0, 77, 63
1, 438842, Note_on_c, 0, 81, 59
1, 438843, Note_off_c, 0, 80, 64
1, 438862, Note_off_c, 0, 81, 59
1, 438889, Note_on_c, 0, 84, 94
1, 438976, Note_on_c, 0, 89, 96
1, 438987, Note_off_c, 0, 84, 61
1, 439043, Note_on_c, 0, 92, 92
1, 439055, Note_off_c, 0, 89, 63
1, 439100, Note_off_c, 0, 92, 65
1, 439164, Note_on_c, 0, 85, 97
1, 439166, Note_on_c, 0, 97, 96
1, 439175, Control_c, 0, 64, 82
1, 439190, Control_c, 0, 64, 65
1, 439205, Control_c, 0, 64, 69
1, 439220, Control_c, 0, 64, 101
1, 439235, Control_c, 0, 64, 127
1, 439242, Note_on_c, 0, 96, 68
1, 439246, Note_on_c, 0, 84, 67
1, 439263, Note_on_c, 0, 95, 62
1, 439268, Note_off_c, 0, 97, 65
1, 439286, Note_off_c, 0, 85, 56
1, 439289, Note_off_c, 0, 95, 52
1, 439309, Note_on_c, 0, 92, 87
1, 439315, Note_off_c, 0, 96, 61
1, 439317, Note_on_c, 0, 80, 78
1, 439326, Note_off_c, 0, 84, 64
1, 439355, Note_off_c, 0, 92, 65
1, 439376, Note_on_c, 0, 89, 84
1, 439381, Note_on_c, 0, 77, 70
1, 439389, Note_on_c, 0, 91, 19
1, 439390, Note_off_c, 0, 80, 64
1, 439429, Note_off_c, 0, 77, 64
1, 439435, Note_off_c, 0, 91, 36
1, 439436, Note_on_c, 0, 82, 81
1, 439447, Note_off_c, 0, 89, 60
1, 439447, Note_on_c, 0, 94, 88
1, 439502, Note_on_c, 0, 80, 79
1, 439509, Note_on_c, 0, 92, 87
1, 439540, Note_off_c, 0, 82, 53
1, 439546, Note_off_c, 0, 94, 66
1, 439547, Note_on_c, 0, 78, 76
1, 439561, Note_on_c, 0, 81, 46
1, 439561, Note_on_c, 0, 89, 81
1, 439579, Note_off_c, 0, 80, 59
1, 439582, Note_off_c, 0, 92, 64
1, 439585, Note_off_c, 0, 81, 55
1, 439598, Note_on_c, 0, 77, 69
1, 439604, Note_off_c, 0, 78, 63
1, 439623, Note_off_c, 0, 77, 64
1, 439627, Note_on_c, 0, 84, 81
1, 439627, Note_off_c, 0, 89, 64
1, 439639, Note_on_c, 0, 72, 61
1, 439658, Note_off_c, 0, 72, 61
1, 439677, Note_on_c, 0, 79, 78
1, 439687, Note_off_c, 0, 84, 65
1, 439694, Note_on_c, 0, 91, 87
1, 439729, Note_off_c, 0, 79, 63
1, 439738, Note_on_c, 0, 77, 78
1, 439751, Note_on_c, 0, 78, 31
1, 439753, Note_on_c, 0, 89, 71
1, 439764, Note_on_c, 0, 88, 78
1, 439783, Note_off_c, 0, 91, 64
1, 439787, Note_off_c, 0, 78, 40
1, 439796, Note_on_c, 0, 72, 62
1, 439801, Note_off_c, 0, 77, 62
1, 439807, Note_off_c, 0, 88, 0
1, 439807, Note_on_c, 0, 88, 39
1, 439813, Note_on_c, 0, 84, 74
1, 439822, Note_on_c, 0, 71, 30
1, 439834, Note_off_c, 0, 89, 64
1, 439837, Note_off_c, 0, 88, 54
1, 439852, Note_on_c, 0, 68, 80
1, 439857, Note_off_c, 0, 71, 31
1, 439858, Note_off_c, 0, 72, 63
1, 439870, Note_on_c, 0, 80, 73
1, 439873, Note_off_c, 0, 84, 67
1, 439906, Note_off_c, 0, 68, 64
1, 439931, Note_on_c, 0, 85, 88
1, 439942, Note_on_c, 0, 73, 67
1, 439946, Note_off_c, 0, 80, 60
1, 439979, Note_on_c, 0, 72, 73
1, 439996, Note_on_c, 0, 84, 72
1, 440012, Note_off_c, 0, 73, 61
1, 440028, Note_on_c, 0, 68, 76
1, 440038, Note_off_c, 0, 85, 60
1, 440045, Note_off_c, 0, 72, 61
1, 440050, Note_on_c, 0, 80, 80
1, 440072, Note_off_c, 0, 84, 64
1, 440106, Note_off_c, 0, 68, 64
1, 440108, Note_on_c, 0, 65, 69
1, 440111, Note_off_c, 0, 80, 64
1, 440117, Note_on_c, 0, 77, 79
1, 440136, Note_off_c, 0, 65, 69
1, 440150, Note_on_c, 0, 70, 77
1, 440175, Note_on_c, 0, 82, 86
1, 440184, Note_off_c, 0, 77, 62
1, 440215, Note_on_c, 0, 68, 86
1, 440220, Note_off_c, 0, 70, 57
1, 440232, Note_on_c, 0, 80, 81
1, 440255, Note_on_c, 0, 69, 58
1, 440257, Note_on_c, 0, 66, 69
1, 440270, Note_off_c, 0, 82, 63
1, 440284, Note_off_c, 0, 69, 65
1, 440290, Note_off_c, 0, 68, 63
1, 440290, Note_on_c, 0, 77, 81
1, 440308, Note_off_c, 0, 80, 64
1, 440309, Note_on_c, 0, 78, 27
1, 440329, Note_off_c, 0, 66, 64
1, 440344, Note_on_c, 0, 61, 51
1, 440345, Note_on_c, 0, 60, 58
1, 440346, Note_off_c, 0, 78, 39
1, 440351, Note_off_c, 0, 77, 61
1, 440352, Note_on_c, 0, 72, 77
1, 440366, Note_off_c, 0, 60, 61
1, 440368, Note_off_c, 0, 61, 63
1, 440395, Note_on_c, 0, 69, 57
1, 440401, Note_on_c, 0, 67, 55
1, 440403, Note_off_c, 0, 72, 59
1, 440404, Note_on_c, 0, 79, 79
1, 440435, Note_off_c, 0, 69, 64
1, 440438, Note_on_c, 0, 66, 82
1, 440439, Note_off_c, 0, 67, 66
1, 440469, Note_on_c, 0, 77, 83
1, 440492, Note_off_c, 0, 66, 68
1, 440502, Note_off_c, 0, 79, 62
1, 440511, Note_on_c, 0, 60, 55
1, 440520, Note_on_c, 0, 61, 25
1, 440542, Note_on_c, 0, 72, 68
1, 440553, Note_off_c, 0, 77, 60
1, 440561, Note_off_c, 0, 61, 52
1, 440577, Note_off_c, 0, 60, 64
1, 440579, Note_on_c, 0, 68, 83
1, 440581, Note_on_c, 0, 71, 31
1, 440590, Note_off_c, 0, 72, 63
1, 440603, Note_on_c, 0, 56, 36
1, 440610, Note_on_c, 0, 55, 57
1, 440615, Note_off_c, 0, 71, 54
1, 440632, Note_on_c, 0, 61, 79
1, 440633, Note_off_c, 0, 55, 59
1, 440634, Note_off_c, 0, 56, 58
1, 440642, Note_on_c, 0, 73, 82
1, 440651, Note_off_c, 0, 68, 60
1, 440699, Note_on_c, 0, 72, 78
1, 440704, Note_on_c, 0, 60, 78
1, 440717, Note_off_c, 0, 61, 58
1, 440719, Control_c, 0, 64, 96
1, 440733, Control_c, 0, 64, 82
1, 440737, Note_off_c, 0, 73, 60
1, 440743, Note_on_c, 0, 56, 64
1, 440748, Control_c, 0, 64, 89
1, 440757, Note_on_c, 0, 68, 81
1, 440763, Control_c, 0, 64, 127
1, 440767, Note_off_c, 0, 60, 64
1, 440774, Note_off_c, 0, 72, 60
1, 440819, Note_off_c, 0, 68, 66
1, 440821, Note_on_c, 0, 65, 77
1, 440823, Note_on_c, 0, 53, 67
1, 440830, Note_off_c, 0, 56, 64
1, 440866, Note_off_c, 0, 53, 63
1, 440867, Note_on_c, 0, 58, 73
1, 440879, Note_on_c, 0, 70, 83
1, 440885, Note_off_c, 0, 65, 66
1, 440928, Note_on_c, 0, 56, 80
1, 440940, Control_c, 0, 64, 90
1, 440941, Note_on_c, 0, 68, 87
1, 440946, Note_off_c, 0, 58, 62
1, 440955, Control_c, 0, 64, 63
1, 440969, Control_c, 0, 64, 67
1, 440976, Note_off_c, 0, 70, 63
1, 440984, Control_c, 0, 64, 108
1, 440991, Note_on_c, 0, 53, 72
1, 440999, Note_off_c, 0, 56, 64
1, 440999, Control_c, 0, 64, 127
1, 441000, Note_on_c, 0, 65, 73
1, 441018, Note_off_c, 0, 68, 67
1, 441044, Note_on_c, 0, 48, 69
1, 441056, Note_off_c, 0, 65, 65
1, 441057, Note_off_c, 0, 53, 63
1, 441059, Note_on_c, 0, 60, 80
1, 441077, Note_off_c, 0, 48, 64
1, 441113, Note_on_c, 0, 55, 52
1, 441118, Note_on_c, 0, 57, 47
1, 441122, Note_on_c, 0, 67, 83
1, 441122, Note_off_c, 0, 60, 65
1, 441140, Note_off_c, 0, 55, 59
1, 441144, Note_off_c, 0, 57, 51
1, 441146, Note_on_c, 0, 54, 82
1, 441170, Control_c, 0, 64, 76
1, 441185, Note_on_c, 0, 65, 76
1, 441185, Control_c, 0, 64, 55
1, 441190, Note_on_c, 0, 53, 64
1, 441196, Note_off_c, 0, 54, 64
1, 441199, Control_c, 0, 64, 58
1, 441209, Note_off_c, 0, 67, 62
1, 441214, Control_c, 0, 64, 76
1, 441222, Note_off_c, 0, 53, 66
1, 441225, Note_on_c, 0, 48, 76
1, 441229, Control_c, 0, 64, 127
1, 441250, Note_on_c, 0, 60, 78
1, 441272, Note_off_c, 0, 65, 63
1, 441286, Note_on_c, 0, 44, 81
1, 441295, Note_off_c, 0, 48, 61
1, 441306, Note_on_c, 0, 56, 83
1, 441313, Note_off_c, 0, 60, 65
1, 441341, Note_off_c, 0, 44, 65
1, 441355, Note_on_c, 0, 49, 81
1, 441378, Note_on_c, 0, 61, 83
1, 441378, Note_off_c, 0, 56, 61
1, 441405, Note_on_c, 0, 48, 79
1, 441407, Control_c, 0, 64, 118
1, 441422, Control_c, 0, 64, 62
1, 441432, Note_off_c, 0, 49, 58
1, 441437, Control_c, 0, 64, 0
1, 441447, Note_on_c, 0, 60, 65
1, 441452, Control_c, 0, 64, 37
1, 441460, Note_on_c, 0, 59, 67
1, 441467, Control_c, 0, 64, 75
1, 441469, Note_on_c, 0, 44, 74
1, 441481, Control_c, 0, 64, 127
1, 441484, Note_off_c, 0, 61, 61
1, 441493, Note_off_c, 0, 48, 60
1, 441493, Note_off_c, 0, 59, 52
1, 441498, Note_on_c, 0, 56, 73
1, 441505, Note_off_c, 0, 60, 64
1, 441551, Note_on_c, 0, 41, 68
1, 441562, Note_on_c, 0, 53, 78
1, 441563, Note_off_c, 0, 44, 62
1, 441572, Note_off_c, 0, 56, 63
1, 441595, Note_off_c, 0, 41, 64
1, 441607, Note_on_c, 0, 46, 81
1, 441629, Note_on_c, 0, 58, 91
1, 441647, Note_off_c, 0, 53, 60
1, 441677, Note_on_c, 0, 44, 83
1, 441693, Note_on_c, 0, 56, 84
1, 441695, Note_off_c, 0, 46, 61
1, 441730, Note_off_c, 0, 58, 62
1, 441734, Control_c, 0, 64, 63
1, 441736, Note_on_c, 0, 41, 69
1, 441748, Control_c, 0, 64, 0
1, 441756, Note_off_c, 0, 44, 63
1, 441762, Note_on_c, 0, 53, 66
1, 441774, Note_off_c, 0, 56, 63
1, 441778, Control_c, 0, 64, 57
1, 441793, Control_c, 0, 64, 69
1, 441805, Note_on_c, 0, 36, 63
1, 441808, Control_c, 0, 64, 85
1, 441811, Note_on_c, 0, 48, 83
1, 441812, Note_off_c, 0, 41, 63
1, 441815, Note_off_c, 0, 53, 62
1, 441822, Control_c, 0, 64, 127
1, 441831, Note_off_c, 0, 36, 65
1, 441846, Note_on_c, 0, 43, 72
1, 441864, Note_off_c, 0, 48, 63
1, 441871, Note_on_c, 0, 55, 78
1, 441906, Note_off_c, 0, 43, 62
1, 441909, Note_on_c, 0, 41, 78
1, 441948, Note_on_c, 0, 52, 71
1, 441951, Note_on_c, 0, 53, 73
1, 441960, Note_off_c, 0, 55, 62
1, 441974, Note_on_c, 0, 36, 59
1, 441977, Note_off_c, 0, 41, 64
1, 441988, Note_off_c, 0, 53, 57
1, 442001, Note_on_c, 0, 37, 35
1, 442010, Note_on_c, 0, 51, 12
1, 442017, Note_off_c, 0, 51, 38
1, 442021, Note_on_c, 0, 48, 61
1, 442022, Note_on_c, 0, 47, 53
1, 442030, Note_off_c, 0, 52, 64
1, 442041, Note_off_c, 0, 37, 31
1, 442058, Note_on_c, 0, 32, 79
1, 442063, Note_off_c, 0, 36, 64
1, 442068, Note_on_c, 0, 44, 79
1, 442071, Note_off_c, 0, 47, 56
1, 442072, Note_off_c, 0, 48, 58
1, 442112, Control_c, 0, 64, 73
1, 442118, Note_on_c, 0, 37, 77
1, 442122, Note_off_c, 0, 32, 63
1, 442127, Control_c, 0, 64, 45
1, 442132, Note_on_c, 0, 49, 84
1, 442141, Note_off_c, 0, 44, 49
1, 442142, Control_c, 0, 64, 39
1, 442157, Control_c, 0, 64, 65
1, 442171, Control_c, 0, 64, 86
1, 442183, Note_on_c, 0, 36, 76
1, 442186, Control_c, 0, 64, 127
1, 442198, Note_on_c, 0, 48, 77
1, 442248, Note_off_c, 0, 49, 59
1, 442249, Note_on_c, 0, 32, 83
1, 442258, Note_off_c, 0, 37, 30
1, 442266, Note_on_c, 0, 44, 75
1, 442276, Note_off_c, 0, 36, 63
1, 442296, Note_off_c, 0, 48, 61
1, 442339, Note_on_c, 0, 41, 74
1, 442341, Note_on_c, 0, 29, 67
1, 442351, Note_on_c, 0, 28, 57
1, 442351, Note_off_c, 0, 32, 55
1, 442386, Note_off_c, 0, 44, 56
1, 442389, Note_off_c, 0, 28, 42
1, 442401, Note_on_c, 0, 49, 81
1, 442406, Note_on_c, 0, 37, 78
1, 442409, Control_c, 0, 64, 110
1, 442423, Control_c, 0, 64, 66
1, 442425, Note_off_c, 0, 29, 62
1, 442431, Note_off_c, 0, 41, 63
1, 442438, Control_c, 0, 64, 43
1, 442453, Control_c, 0, 64, 58
1, 442468, Control_c, 0, 64, 84
1, 442481, Note_on_c, 0, 48, 76
1, 442483, Control_c, 0, 64, 127
1, 442487, Note_on_c, 0, 36, 67
1, 442491, Note_on_c, 0, 35, 68
1, 442499, Note_off_c, 0, 37, 60
1, 442522, Note_on_c, 0, 47, 43
1, 442543, Note_on_c, 0, 32, 83
1, 442547, Note_off_c, 0, 49, 57
1, 442547, Note_on_c, 0, 44, 75
1, 442552, Note_off_c, 0, 35, 60
1, 442553, Note_off_c, 0, 47, 34
1, 442556, Note_off_c, 0, 36, 62
1, 442592, Note_off_c, 0, 48, 60
1, 442624, Note_on_c, 0, 29, 78
1, 442629, Note_on_c, 0, 41, 79
1, 442634, Note_off_c, 0, 32, 61
1, 442706, Note_on_c, 0, 49, 87
1, 442709, Note_on_c, 0, 37, 80
1, 442710, Note_off_c, 0, 29, 63
1, 442723, Note_off_c, 0, 41, 63
1, 442740, Note_off_c, 0, 44, 61
1, 442778, Note_on_c, 0, 36, 76
1, 442791, Note_on_c, 0, 48, 79
1, 442826, Note_on_c, 0, 47, 33
1, 442834, Note_off_c, 0, 37, 57
1, 442854, Note_on_c, 0, 32, 80
1, 442861, Note_on_c, 0, 44, 86
1, 442866, Note_off_c, 0, 36, 63
1, 442884, Note_off_c, 0, 49, 52
1, 442899, Note_off_c, 0, 48, 60
1, 442912, Note_off_c, 0, 47, 23
1, 442940, Note_on_c, 0, 29, 81
1, 442949, Note_on_c, 0, 41, 91
1, 442972, Note_off_c, 0, 32, 62
1, 443045, Note_on_c, 0, 49, 88
1, 443054, Note_on_c, 0, 37, 86
1, 443071, Note_off_c, 0, 29, 63
1, 443073, Note_off_c, 0, 41, 63
1, 443080, Note_off_c, 0, 44, 61
1, 443148, Note_on_c, 0, 48, 81
1, 443164, Note_on_c, 0, 36, 78
1, 443241, Note_on_c, 0, 44, 93
1, 443249, Note_off_c, 0, 37, 57
1, 443254, Note_on_c, 0, 32, 83
1, 443277, Note_off_c, 0, 36, 62
1, 443340, Note_off_c, 0, 49, 31
1, 443379, Control_c, 0, 64, 111
1, 443394, Control_c, 0, 64, 52
1, 443409, Control_c, 0, 64, 0
1, 443420, Note_on_c, 0, 29, 92
1, 443428, Note_on_c, 0, 41, 97
1, 443446, Control_c, 0, 64, 36
1, 443451, Note_on_c, 0, 47, 52
1, 443451, Note_off_c, 0, 32, 63
1, 443461, Control_c, 0, 64, 84
1, 443466, Note_on_c, 0, 46, 32
1, 443476, Control_c, 0, 64, 127
1, 443477, Note_off_c, 0, 29, 65
1, 443485, Note_on_c, 0, 49, 30
1, 443500, Note_off_c, 0, 41, 65
1, 443507, Note_off_c, 0, 44, 61
1, 443510, Note_off_c, 0, 46, 47
1, 443521, Note_off_c, 0, 48, 52
1, 443526, Note_off_c, 0, 49, 38
1, 443533, Poly_aftertouch_c, 0, 31, 0
1, 443539, Note_off_c, 0, 47, 35
1, 443802, Control_c, 0, 64, 89
1, 443817, Control_c, 0, 64, 63
1, 443832, Control_c, 0, 64, 45
1, 443847, Control_c, 0, 64, 31
1, 443861, Control_c, 0, 64, 27
1, 443876, Control_c, 0, 64, 0
1, 444053, Note_on_c, 0, 77, 96
1, 444057, Note_on_c, 0, 65, 98
1, 444057, Note_on_c, 0, 68, 93
1, 444058, Note_on_c, 0, 73, 90
1, 444062, Note_on_c, 0, 49, 104
1, 444064, Note_on_c, 0, 37, 95
1, 444099, Control_c, 0, 64, 67
1, 444113, Control_c, 0, 64, 127
1, 444126, Note_off_c, 0, 65, 65
1, 444130, Note_off_c, 0, 37, 66
1, 444137, Note_off_c, 0, 49, 62
1, 444168, Note_off_c, 0, 77, 63
1, 444171, Note_off_c, 0, 68, 66
1, 444190, Note_off_c, 0, 73, 63
1, 444433, Control_c, 0, 64, 77
1, 444448, Control_c, 0, 64, 38
1, 444463, Control_c, 0, 64, 0
1, 444488, Poly_aftertouch_c, 0, 39, 0
1, 444491, Note_on_c, 0, 85, 98
1, 444493, Note_on_c, 0, 73, 108
1, 444495, Note_on_c, 0, 46, 101
1, 444499, Note_on_c, 0, 34, 88
1, 444501, Note_on_c, 0, 79, 87
1, 444502, Note_on_c, 0, 77, 88
1, 444522, Control_c, 0, 64, 53
1, 444537, Control_c, 0, 64, 85
1, 444541, Note_off_c, 0, 34, 67
1, 444551, Control_c, 0, 64, 127
1, 444560, Note_off_c, 0, 85, 68
1, 444564, Note_off_c, 0, 46, 60
1, 444580, Note_off_c, 0, 73, 63
1, 444591, Note_off_c, 0, 79, 63
1, 444595, Note_off_c, 0, 77, 62
1, 444639, Poly_aftertouch_c, 0, 35, 0
1, 444832, Control_c, 0, 64, 81
1, 444847, Control_c, 0, 64, 59
1, 444862, Control_c, 0, 64, 0
1, 444935, Note_on_c, 0, 64, 91
1, 444936, Note_on_c, 0, 55, 100
1, 444941, Note_on_c, 0, 48, 99
1, 444941, Note_on_c, 0, 60, 92
1, 444943, Note_on_c, 0, 36, 90
1, 444943, Note_on_c, 0, 58, 96
1, 444993, Note_on_c, 0, 40, 18
1, 445017, Control_c, 0, 64, 43
1, 445023, Note_off_c, 0, 40, 33
1, 445032, Control_c, 0, 64, 67
1, 445047, Control_c, 0, 64, 76
1, 445062, Control_c, 0, 64, 91
1, 445076, Control_c, 0, 64, 127
1, 445177, Note_off_c, 0, 48, 59
1, 445187, Note_off_c, 0, 36, 60
1, 445227, Note_off_c, 0, 64, 51
1, 445236, Note_off_c, 0, 55, 56
1, 445256, Note_off_c, 0, 58, 56
1, 445268, Note_off_c, 0, 60, 56
1, 445373, Control_c, 0, 64, 102
1, 445388, Control_c, 0, 64, 95
1, 445404, Control_c, 0, 64, 92
1, 445419, Control_c, 0, 64, 88
1, 445434, Control_c, 0, 64, 81
1, 445448, Control_c, 0, 64, 73
1, 445463, Control_c, 0, 64, 69
1, 445478, Control_c, 0, 64, 67
1, 445508, Control_c, 0, 64, 68
1, 445522, Control_c, 0, 64, 68
1, 445537, Control_c, 0, 64, 69
1, 445552, Control_c, 0, 64, 71
1, 445566, Control_c, 0, 64, 72
1, 445581, Control_c, 0, 64, 71
1, 445596, Control_c, 0, 64, 68
1, 445603, Note_on_c, 0, 41, 102
1, 445606, Note_on_c, 0, 53, 94
1, 445606, Note_on_c, 0, 65, 90
1, 445607, Note_on_c, 0, 29, 96
1, 445609, Note_on_c, 0, 60, 83
1, 445611, Control_c, 0, 64, 61
1, 445613, Note_on_c, 0, 56, 88
1, 445626, Control_c, 0, 64, 45
1, 445641, Control_c, 0, 64, 0
1, 445696, Note_on_c, 0, 62, 4
1, 445751, Note_off_c, 0, 62, 39
1, 446665, Poly_aftertouch_c, 0, 34, 127
1, 447184, Note_off_c, 0, 53, 62
1, 447191, Note_off_c, 0, 65, 59
1, 447220, Note_off_c, 0, 56, 65
1, 447221, Note_off_c, 0, 29, 62
1, 447228, Note_off_c, 0, 60, 62
1, 447230, Poly_aftertouch_c, 0, 34, 0
1, 447248, Note_off_c, 0, 41, 66
1, 447248, End_track
0, 0, End_of_file
