0, 0, Header, 0, 1, 384
1, 0, Start_track
1, 0, Title_t, "ChopinBalladeOp23--Kim          "
1, 0, Text_t, "2011 ePiano Junior Competition"
1, 0, Text_t, "captured in spring and summer 2011"
1, 0, Text_t, "http://www.piano-e-competition.com/"
1, 0, Text_t, "standard-resolution version"
1, 0, Text_t, "File processed for distribution with software designed and coded by Dr. John Q. Walker, founder of Zenph Sound Innovations"
1, 0, Instrument_name_t, "Yamaha Disklavier Pro Mark IV concert grand piano, model DCFIIISM4PRO"
1, 0, Sequencer_specific, 39, 67, 113, 0, 1, 0, 1, 0, 67, 104, 111, 112, 105, 110, 66, 97, 108, 108, 97, 100, 101, 79, 112, 50, 83, 117, 89, 101, 111, 110, 32, 75, 105, 109, 32, 32, 32, 32, 32, 32
1, 0, Sequencer_specific, 6, 67, 113, 0, 0, 0, 69
1, 0, System_exclusive, 21, 67, 113, 126, 21, 0, 2, 2, 2, 5, 12, 8, 4, 14, 1, 0, 11, 4, 3, 0, 0, 247
1, 0, Sequencer_specific, 5, 67, 123, 12, 2, 1
1, 0, Tempo, 512820
1, 0, Time_signature, 4, 2, 24, 8
1, 0, System_exclusive, 5, 126, 127, 9, 1, 247
1, 1, System_exclusive, 8, 67, 16, 76, 0, 0, 126, 0, 247
1, 2, System_exclusive, 8, 67, 16, 76, 8, 9, 7, 1, 247
1, 3, Control_c, 0, 0, 108
1, 3, Control_c, 1, 0, 108
1, 3, Control_c, 2, 0, 0
1, 3, Control_c, 3, 0, 0
1, 3, Control_c, 4, 0, 0
1, 3, Control_c, 5, 0, 0
1, 3, Control_c, 6, 0, 0
1, 3, Control_c, 7, 0, 0
1, 3, Control_c, 8, 0, 0
1, 3, Control_c, 9, 0, 127
1, 3, Control_c, 10, 0, 0
1, 3, Control_c, 11, 0, 0
1, 3, Control_c, 12, 0, 0
1, 3, Control_c, 13, 0, 0
1, 3, Control_c, 14, 0, 0
1, 3, Control_c, 15, 0, 0
1, 4, Control_c, 0, 32, 0
1, 4, Control_c, 1, 32, 0
1, 4, Control_c, 2, 32, 0
1, 4, Control_c, 3, 32, 0
1, 4, Control_c, 4, 32, 0
1, 4, Control_c, 5, 32, 0
1, 4, Control_c, 6, 32, 0
1, 4, Control_c, 7, 32, 0
1, 4, Control_c, 8, 32, 0
1, 4, Control_c, 9, 32, 0
1, 4, Control_c, 10, 32, 0
1, 4, Control_c, 11, 32, 0
1, 4, Control_c, 12, 32, 0
1, 4, Control_c, 13, 32, 0
1, 4, Control_c, 14, 32, 0
1, 4, Control_c, 15, 32, 0
1, 5, Program_c, 0, 0
1, 5, Program_c, 1, 0
1, 5, Program_c, 2, 0
1, 5, Program_c, 3, 0
1, 5, Program_c, 4, 0
1, 5, Program_c, 5, 0
1, 5, Program_c, 6, 0
1, 5, Program_c, 7, 0
1, 5, Program_c, 8, 0
1, 5, Program_c, 9, 0
1, 5, Program_c, 10, 0
1, 5, Program_c, 11, 0
1, 5, Program_c, 12, 0
1, 5, Program_c, 13, 0
1, 5, Program_c, 14, 0
1, 5, Program_c, 15, 0
1, 6, Control_c, 0, 7, 100
1, 6, Control_c, 1, 7, 100
1, 6, Control_c, 2, 7, 100
1, 6, Control_c, 3, 7, 100
1, 6, Control_c, 4, 7, 100
1, 6, Control_c, 5, 7, 100
1, 6, Control_c, 6, 7, 100
1, 6, Control_c, 7, 7, 100
1, 6, Control_c, 8, 7, 100
1, 6, Control_c, 9, 7, 100
1, 6, Control_c, 10, 7, 100
1, 6, Control_c, 11, 7, 100
1, 6, Control_c, 12, 7, 100
1, 6, Control_c, 13, 7, 100
1, 6, Control_c, 14, 7, 100
1, 6, Control_c, 15, 7, 100
1, 42, Control_c, 0, 64, 15
1, 79, Control_c, 0, 64, 31
1, 116, Control_c, 0, 64, 46
1, 153, Control_c, 0, 64, 63
1, 190, Control_c, 0, 64, 77
1, 226, Control_c, 0, 64, 94
1, 263, Control_c, 0, 64, 108
1, 300, Control_c, 0, 64, 127
1, 380, Note_on_c, 0, 48, 90
1, 386, Note_on_c, 0, 36, 76
1, 2519, Note_off_c, 0, 48, 24
1, 3222, Note_on_c, 0, 51, 61
1, 3260, Note_on_c, 0, 39, 42
1, 3389, Control_c, 0, 64, 97
1, 3403, Control_c, 0, 64, 82
1, 3418, Control_c, 0, 64, 76
1, 3433, Control_c, 0, 64, 75
1, 3440, Note_off_c, 0, 36, 40
1, 3492, Control_c, 0, 64, 74
1, 3515, Control_c, 0, 64, 72
1, 3530, Control_c, 0, 64, 72
1, 3545, Control_c, 0, 64, 73
1, 3559, Control_c, 0, 64, 74
1, 3574, Control_c, 0, 64, 76
1, 3589, Control_c, 0, 64, 80
1, 3604, Control_c, 0, 64, 87
1, 3618, Control_c, 0, 64, 95
1, 3633, Control_c, 0, 64, 113
1, 3648, Control_c, 0, 64, 127
1, 3857, Control_c, 0, 64, 113
1, 3868, Note_on_c, 0, 56, 61
1, 3872, Control_c, 0, 64, 105
1, 3886, Note_on_c, 0, 44, 41
1, 3887, Control_c, 0, 64, 101
1, 3902, Control_c, 0, 64, 97
1, 3916, Control_c, 0, 64, 92
1, 3931, Control_c, 0, 64, 86
1, 3946, Control_c, 0, 64, 80
1, 3961, Control_c, 0, 64, 75
1, 3976, Control_c, 0, 64, 72
1, 3990, Control_c, 0, 64, 71
1, 4005, Control_c, 0, 64, 70
1, 4020, Control_c, 0, 64, 69
1, 4021, Note_off_c, 0, 51, 31
1, 4035, Control_c, 0, 64, 67
1, 4049, Control_c, 0, 64, 66
1, 4064, Control_c, 0, 64, 65
1, 4079, Control_c, 0, 64, 66
1, 4094, Control_c, 0, 64, 67
1, 4109, Control_c, 0, 64, 69
1, 4124, Control_c, 0, 64, 71
1, 4139, Control_c, 0, 64, 74
1, 4153, Control_c, 0, 64, 79
1, 4162, Note_off_c, 0, 39, 41
1, 4168, Control_c, 0, 64, 88
1, 4183, Control_c, 0, 64, 100
1, 4198, Control_c, 0, 64, 113
1, 4213, Control_c, 0, 64, 127
1, 4242, Control_c, 0, 64, 117
1, 4264, Control_c, 0, 64, 113
1, 4275, Note_off_c, 0, 56, 62
1, 4279, Control_c, 0, 64, 110
1, 4294, Control_c, 0, 64, 106
1, 4309, Control_c, 0, 64, 102
1, 4324, Control_c, 0, 64, 97
1, 4338, Note_on_c, 0, 58, 74
1, 4339, Control_c, 0, 64, 92
1, 4354, Control_c, 0, 64, 89
1, 4358, Note_on_c, 0, 46, 50
1, 4368, Control_c, 0, 64, 85
1, 4383, Control_c, 0, 64, 81
1, 4398, Control_c, 0, 64, 76
1, 4413, Control_c, 0, 64, 69
1, 4428, Control_c, 0, 64, 63
1, 4435, Note_off_c, 0, 44, 41
1, 4442, Control_c, 0, 64, 59
1, 4457, Control_c, 0, 64, 60
1, 4472, Control_c, 0, 64, 61
1, 4487, Control_c, 0, 64, 63
1, 4502, Control_c, 0, 64, 65
1, 4516, Control_c, 0, 64, 68
1, 4531, Control_c, 0, 64, 77
1, 4546, Control_c, 0, 64, 93
1, 4560, Control_c, 0, 64, 127
1, 4613, Note_off_c, 0, 58, 54
1, 4663, Note_on_c, 0, 60, 69
1, 4665, Control_c, 0, 64, 117
1, 4680, Control_c, 0, 64, 107
1, 4684, Note_on_c, 0, 48, 49
1, 4695, Control_c, 0, 64, 100
1, 4710, Control_c, 0, 64, 92
1, 4725, Control_c, 0, 64, 84
1, 4726, Note_off_c, 0, 46, 60
1, 4739, Control_c, 0, 64, 78
1, 4754, Control_c, 0, 64, 72
1, 4769, Control_c, 0, 64, 68
1, 4783, Control_c, 0, 64, 64
1, 4798, Control_c, 0, 64, 58
1, 4813, Control_c, 0, 64, 50
1, 4828, Control_c, 0, 64, 47
1, 4843, Control_c, 0, 64, 50
1, 4857, Control_c, 0, 64, 54
1, 4872, Control_c, 0, 64, 58
1, 4887, Control_c, 0, 64, 60
1, 4902, Control_c, 0, 64, 62
1, 4917, Control_c, 0, 64, 65
1, 4923, Note_off_c, 0, 60, 62
1, 4932, Control_c, 0, 64, 69
1, 4947, Control_c, 0, 64, 74
1, 4962, Control_c, 0, 64, 82
1, 4976, Control_c, 0, 64, 93
1, 4991, Control_c, 0, 64, 127
1, 5008, Note_on_c, 0, 44, 49
1, 5009, Note_on_c, 0, 56, 70
1, 5048, Note_off_c, 0, 48, 52
1, 5149, Note_off_c, 0, 56, 61
1, 5257, Note_off_c, 0, 44, 47
1, 5293, Note_on_c, 0, 63, 78
1, 5295, Control_c, 0, 64, 111
1, 5296, Note_on_c, 0, 51, 61
1, 5310, Control_c, 0, 64, 96
1, 5325, Control_c, 0, 64, 85
1, 5339, Control_c, 0, 64, 76
1, 5354, Control_c, 0, 64, 68
1, 5369, Control_c, 0, 64, 65
1, 5383, Control_c, 0, 64, 65
1, 5398, Control_c, 0, 64, 67
1, 5414, Control_c, 0, 64, 70
1, 5429, Control_c, 0, 64, 76
1, 5444, Control_c, 0, 64, 89
1, 5459, Control_c, 0, 64, 127
1, 5539, Note_on_c, 0, 70, 87
1, 5546, Note_off_c, 0, 51, 56
1, 5550, Note_on_c, 0, 58, 68
1, 5562, Control_c, 0, 64, 99
1, 5577, Control_c, 0, 64, 85
1, 5592, Control_c, 0, 64, 76
1, 5606, Control_c, 0, 64, 70
1, 5621, Control_c, 0, 64, 68
1, 5626, Note_off_c, 0, 63, 62
1, 5636, Control_c, 0, 64, 69
1, 5651, Control_c, 0, 64, 71
1, 5666, Control_c, 0, 64, 74
1, 5680, Control_c, 0, 64, 80
1, 5695, Control_c, 0, 64, 91
1, 5710, Control_c, 0, 64, 113
1, 5725, Control_c, 0, 64, 127
1, 5773, Note_on_c, 0, 72, 84
1, 5777, Control_c, 0, 64, 106
1, 5789, Note_on_c, 0, 60, 67
1, 5789, Note_off_c, 0, 58, 62
1, 5792, Control_c, 0, 64, 86
1, 5806, Control_c, 0, 64, 75
1, 5812, Note_off_c, 0, 70, 58
1, 5821, Control_c, 0, 64, 67
1, 5836, Control_c, 0, 64, 56
1, 5851, Control_c, 0, 64, 37
1, 5866, Control_c, 0, 64, 23
1, 5880, Control_c, 0, 64, 24
1, 5895, Control_c, 0, 64, 29
1, 5910, Control_c, 0, 64, 37
1, 5925, Control_c, 0, 64, 44
1, 5940, Control_c, 0, 64, 50
1, 5954, Control_c, 0, 64, 54
1, 5969, Control_c, 0, 64, 58
1, 5983, Note_off_c, 0, 72, 62
1, 5984, Control_c, 0, 64, 62
1, 5999, Control_c, 0, 64, 65
1, 6012, Note_on_c, 0, 56, 63
1, 6014, Control_c, 0, 64, 70
1, 6017, Note_on_c, 0, 68, 90
1, 6029, Control_c, 0, 64, 79
1, 6035, Note_off_c, 0, 60, 60
1, 6044, Control_c, 0, 64, 96
1, 6059, Control_c, 0, 64, 127
1, 6144, Note_off_c, 0, 68, 58
1, 6264, Note_on_c, 0, 75, 93
1, 6267, Control_c, 0, 64, 113
1, 6271, Note_off_c, 0, 56, 61
1, 6273, Note_on_c, 0, 63, 71
1, 6282, Control_c, 0, 64, 91
1, 6297, Control_c, 0, 64, 76
1, 6311, Control_c, 0, 64, 67
1, 6326, Control_c, 0, 64, 59
1, 6341, Control_c, 0, 64, 56
1, 6356, Control_c, 0, 64, 59
1, 6371, Control_c, 0, 64, 60
1, 6385, Control_c, 0, 64, 63
1, 6400, Control_c, 0, 64, 65
1, 6415, Control_c, 0, 64, 69
1, 6429, Control_c, 0, 64, 77
1, 6444, Control_c, 0, 64, 93
1, 6459, Control_c, 0, 64, 127
1, 6541, Control_c, 0, 64, 109
1, 6543, Note_on_c, 0, 82, 90
1, 6556, Note_on_c, 0, 70, 68
1, 6556, Control_c, 0, 64, 100
1, 6571, Control_c, 0, 64, 95
1, 6585, Control_c, 0, 64, 89
1, 6600, Control_c, 0, 64, 82
1, 6615, Control_c, 0, 64, 75
1, 6629, Control_c, 0, 64, 69
1, 6644, Control_c, 0, 64, 65
1, 6659, Control_c, 0, 64, 62
1, 6674, Control_c, 0, 64, 57
1, 6689, Control_c, 0, 64, 51
1, 6701, Note_off_c, 0, 75, 60
1, 6718, Control_c, 0, 64, 54
1, 6725, Note_off_c, 0, 63, 24
1, 6733, Control_c, 0, 64, 58
1, 6747, Control_c, 0, 64, 60
1, 6762, Control_c, 0, 64, 63
1, 6777, Control_c, 0, 64, 65
1, 6792, Control_c, 0, 64, 69
1, 6807, Control_c, 0, 64, 72
1, 6822, Control_c, 0, 64, 75
1, 6851, Control_c, 0, 64, 74
1, 6896, Control_c, 0, 64, 74
1, 6910, Control_c, 0, 64, 73
1, 6925, Control_c, 0, 64, 72
1, 6940, Note_on_c, 0, 72, 53
1, 6940, Control_c, 0, 64, 71
1, 6947, Note_on_c, 0, 84, 83
1, 6954, Control_c, 0, 64, 70
1, 6969, Control_c, 0, 64, 69
1, 6984, Control_c, 0, 64, 68
1, 7000, Control_c, 0, 64, 67
1, 7015, Control_c, 0, 64, 67
1, 7045, Control_c, 0, 64, 66
1, 7059, Control_c, 0, 64, 65
1, 7067, Note_off_c, 0, 70, 38
1, 7074, Control_c, 0, 64, 64
1, 7089, Control_c, 0, 64, 64
1, 7104, Control_c, 0, 64, 63
1, 7108, Note_off_c, 0, 82, 59
1, 7119, Control_c, 0, 64, 62
1, 7133, Control_c, 0, 64, 61
1, 7148, Control_c, 0, 64, 60
1, 7163, Control_c, 0, 64, 58
1, 7178, Control_c, 0, 64, 57
1, 7193, Control_c, 0, 64, 55
1, 7207, Control_c, 0, 64, 53
1, 7222, Control_c, 0, 64, 51
1, 7274, Control_c, 0, 64, 52
1, 7289, Control_c, 0, 64, 53
1, 7304, Control_c, 0, 64, 54
1, 7319, Control_c, 0, 64, 55
1, 7333, Control_c, 0, 64, 56
1, 7348, Control_c, 0, 64, 56
1, 7363, Control_c, 0, 64, 57
1, 7377, Control_c, 0, 64, 57
1, 7392, Control_c, 0, 64, 58
1, 7407, Control_c, 0, 64, 59
1, 7417, Note_on_c, 0, 79, 70
1, 7424, Note_on_c, 0, 67, 39
1, 7496, Control_c, 0, 64, 58
1, 7513, Note_off_c, 0, 72, 55
1, 7551, Note_off_c, 0, 84, 62
1, 7570, Control_c, 0, 64, 58
1, 7600, Control_c, 0, 64, 57
1, 7630, Control_c, 0, 64, 57
1, 7659, Control_c, 0, 64, 56
1, 7689, Control_c, 0, 64, 56
1, 7709, Note_on_c, 0, 82, 76
1, 7733, Control_c, 0, 64, 55
1, 7734, Note_on_c, 0, 70, 39
1, 7748, Control_c, 0, 64, 55
1, 7811, Note_off_c, 0, 67, 55
1, 7823, Control_c, 0, 64, 54
1, 7854, Note_off_c, 0, 79, 64
1, 7867, Control_c, 0, 64, 54
1, 7927, Control_c, 0, 64, 53
1, 7956, Control_c, 0, 64, 53
1, 8008, Control_c, 0, 64, 52
1, 8018, Note_on_c, 0, 80, 72
1, 8038, Control_c, 0, 64, 52
1, 8048, Note_on_c, 0, 68, 39
1, 8053, Control_c, 0, 64, 51
1, 8068, Control_c, 0, 64, 50
1, 8082, Control_c, 0, 64, 50
1, 8099, Note_off_c, 0, 70, 49
1, 8112, Control_c, 0, 64, 49
1, 8127, Control_c, 0, 64, 49
1, 8142, Control_c, 0, 64, 48
1, 8156, Control_c, 0, 64, 47
1, 8171, Control_c, 0, 64, 45
1, 8178, Note_off_c, 0, 82, 53
1, 8186, Control_c, 0, 64, 44
1, 8200, Control_c, 0, 64, 44
1, 8215, Control_c, 0, 64, 43
1, 8230, Control_c, 0, 64, 42
1, 8245, Control_c, 0, 64, 42
1, 8260, Control_c, 0, 64, 41
1, 8274, Control_c, 0, 64, 41
1, 8289, Control_c, 0, 64, 40
1, 8304, Control_c, 0, 64, 39
1, 8319, Control_c, 0, 64, 38
1, 8334, Control_c, 0, 64, 37
1, 8348, Control_c, 0, 64, 36
1, 8363, Control_c, 0, 64, 35
1, 8378, Control_c, 0, 64, 34
1, 8393, Control_c, 0, 64, 33
1, 8408, Control_c, 0, 64, 32
1, 8422, Control_c, 0, 64, 32
1, 8437, Control_c, 0, 64, 30
1, 8452, Control_c, 0, 64, 30
1, 8467, Control_c, 0, 64, 28
1, 8471, Note_on_c, 0, 79, 49
1, 8474, Note_on_c, 0, 67, 29
1, 8482, Control_c, 0, 64, 26
1, 8497, Control_c, 0, 64, 24
1, 8512, Control_c, 0, 64, 21
1, 8527, Control_c, 0, 64, 17
1, 8542, Control_c, 0, 64, 15
1, 8556, Control_c, 0, 64, 12
1, 8586, Control_c, 0, 64, 11
1, 8595, Note_off_c, 0, 80, 59
1, 8630, Note_off_c, 0, 68, 38
1, 8646, Control_c, 0, 64, 13
1, 8661, Control_c, 0, 64, 17
1, 8676, Control_c, 0, 64, 22
1, 8690, Control_c, 0, 64, 26
1, 8705, Control_c, 0, 64, 31
1, 8720, Control_c, 0, 64, 36
1, 8735, Control_c, 0, 64, 40
1, 8757, Control_c, 0, 64, 43
1, 8771, Control_c, 0, 64, 50
1, 8786, Control_c, 0, 64, 55
1, 8801, Control_c, 0, 64, 57
1, 8816, Control_c, 0, 64, 60
1, 8831, Control_c, 0, 64, 61
1, 8846, Control_c, 0, 64, 63
1, 8861, Control_c, 0, 64, 65
1, 8876, Control_c, 0, 64, 66
1, 8890, Control_c, 0, 64, 69
1, 8905, Control_c, 0, 64, 72
1, 8920, Control_c, 0, 64, 76
1, 8935, Control_c, 0, 64, 82
1, 8950, Control_c, 0, 64, 88
1, 8965, Control_c, 0, 64, 95
1, 8979, Control_c, 0, 64, 104
1, 8993, Control_c, 0, 64, 127
1, 9409, Control_c, 0, 64, 123
1, 9424, Control_c, 0, 64, 117
1, 9439, Control_c, 0, 64, 113
1, 9453, Control_c, 0, 64, 107
1, 9468, Control_c, 0, 64, 101
1, 9481, Note_on_c, 0, 78, 36
1, 9483, Control_c, 0, 64, 95
1, 9503, Note_on_c, 0, 66, 19
1, 9505, Control_c, 0, 64, 92
1, 9520, Control_c, 0, 64, 90
1, 9534, Control_c, 0, 64, 86
1, 9549, Control_c, 0, 64, 81
1, 9564, Control_c, 0, 64, 74
1, 9579, Control_c, 0, 64, 69
1, 9594, Control_c, 0, 64, 64
1, 9597, Note_off_c, 0, 79, 43
1, 9609, Control_c, 0, 64, 61
1, 9624, Control_c, 0, 64, 57
1, 9639, Control_c, 0, 64, 52
1, 9641, Note_off_c, 0, 67, 34
1, 9653, Control_c, 0, 64, 42
1, 9668, Control_c, 0, 64, 35
1, 9683, Control_c, 0, 64, 37
1, 9698, Control_c, 0, 64, 41
1, 9713, Control_c, 0, 64, 47
1, 9727, Control_c, 0, 64, 51
1, 9742, Control_c, 0, 64, 56
1, 9757, Control_c, 0, 64, 61
1, 9772, Control_c, 0, 64, 64
1, 9787, Control_c, 0, 64, 66
1, 9801, Control_c, 0, 64, 68
1, 9816, Control_c, 0, 64, 71
1, 9831, Control_c, 0, 64, 72
1, 9860, Control_c, 0, 64, 72
1, 9864, Note_off_c, 0, 66, 34
1, 9875, Note_off_c, 0, 78, 37
1, 9875, Control_c, 0, 64, 71
1, 9905, Control_c, 0, 64, 71
1, 9919, Control_c, 0, 64, 70
1, 9934, Control_c, 0, 64, 69
1, 9949, Control_c, 0, 64, 69
1, 9964, Control_c, 0, 64, 68
1, 9994, Control_c, 0, 64, 68
1, 10008, Control_c, 0, 64, 67
1, 10023, Control_c, 0, 64, 67
1, 10038, Control_c, 0, 64, 66
1, 10053, Control_c, 0, 64, 66
1, 10098, Control_c, 0, 64, 65
1, 10113, Control_c, 0, 64, 65
1, 10127, Control_c, 0, 64, 64
1, 10157, Control_c, 0, 64, 63
1, 10202, Control_c, 0, 64, 63
1, 10217, Control_c, 0, 64, 62
1, 10232, Control_c, 0, 64, 61
1, 10254, Control_c, 0, 64, 61
1, 10357, Control_c, 0, 64, 60
1, 10446, Control_c, 0, 64, 60
1, 10476, Control_c, 0, 64, 59
1, 10550, Control_c, 0, 64, 59
1, 10683, Control_c, 0, 64, 59
1, 10742, Control_c, 0, 64, 60
1, 10831, Control_c, 0, 64, 60
1, 10876, Control_c, 0, 64, 61
1, 10906, Control_c, 0, 64, 61
1, 10950, Control_c, 0, 64, 62
1, 10965, Control_c, 0, 64, 62
1, 11003, Control_c, 0, 64, 63
1, 11033, Control_c, 0, 64, 63
1, 11047, Control_c, 0, 64, 64
1, 11062, Control_c, 0, 64, 64
1, 11077, Control_c, 0, 64, 65
1, 11092, Control_c, 0, 64, 66
1, 11106, Control_c, 0, 64, 67
1, 11121, Control_c, 0, 64, 69
1, 11136, Control_c, 0, 64, 71
1, 11151, Control_c, 0, 64, 73
1, 11166, Control_c, 0, 64, 75
1, 11180, Control_c, 0, 64, 79
1, 11195, Control_c, 0, 64, 83
1, 11210, Control_c, 0, 64, 87
1, 11225, Control_c, 0, 64, 91
1, 11240, Control_c, 0, 64, 96
1, 11255, Control_c, 0, 64, 102
1, 11270, Control_c, 0, 64, 113
1, 11285, Control_c, 0, 64, 127
1, 11765, Note_on_c, 0, 78, 21
1, 11783, Note_on_c, 0, 66, 14
1, 12315, Note_on_c, 0, 79, 44
1, 12327, Note_on_c, 0, 67, 29
1, 12375, Control_c, 0, 64, 123
1, 12389, Control_c, 0, 64, 117
1, 12404, Control_c, 0, 64, 113
1, 12419, Control_c, 0, 64, 108
1, 12434, Control_c, 0, 64, 104
1, 12448, Control_c, 0, 64, 103
1, 12493, Note_off_c, 0, 78, 51
1, 12508, Note_off_c, 0, 66, 38
1, 12515, Control_c, 0, 64, 103
1, 12530, Control_c, 0, 64, 102
1, 12545, Control_c, 0, 64, 101
1, 12708, Note_on_c, 0, 78, 63
1, 12734, Note_on_c, 0, 66, 36
1, 12783, Control_c, 0, 64, 101
1, 12798, Control_c, 0, 64, 100
1, 12819, Note_off_c, 0, 67, 39
1, 12842, Control_c, 0, 64, 100
1, 12857, Control_c, 0, 64, 99
1, 12864, Note_off_c, 0, 79, 56
1, 12871, Control_c, 0, 64, 98
1, 12886, Control_c, 0, 64, 96
1, 12901, Control_c, 0, 64, 95
1, 12916, Control_c, 0, 64, 94
1, 12931, Control_c, 0, 64, 90
1, 12945, Control_c, 0, 64, 85
1, 12953, Note_on_c, 0, 77, 72
1, 12960, Control_c, 0, 64, 78
1, 12969, Note_on_c, 0, 65, 40
1, 12975, Control_c, 0, 64, 72
1, 12990, Control_c, 0, 64, 67
1, 13005, Control_c, 0, 64, 64
1, 13015, Note_off_c, 0, 66, 40
1, 13019, Control_c, 0, 64, 64
1, 13034, Control_c, 0, 64, 63
1, 13049, Control_c, 0, 64, 62
1, 13053, Note_off_c, 0, 78, 63
1, 13064, Control_c, 0, 64, 60
1, 13079, Control_c, 0, 64, 60
1, 13094, Control_c, 0, 64, 61
1, 13108, Control_c, 0, 64, 62
1, 13123, Control_c, 0, 64, 62
1, 13138, Control_c, 0, 64, 63
1, 13168, Control_c, 0, 64, 63
1, 13183, Control_c, 0, 64, 63
1, 13192, Note_on_c, 0, 78, 71
1, 13197, Control_c, 0, 64, 62
1, 13212, Control_c, 0, 64, 62
1, 13214, Note_on_c, 0, 66, 43
1, 13227, Control_c, 0, 64, 61
1, 13249, Control_c, 0, 64, 59
1, 13264, Control_c, 0, 64, 55
1, 13267, Note_off_c, 0, 65, 35
1, 13278, Control_c, 0, 64, 46
1, 13293, Control_c, 0, 64, 45
1, 13308, Control_c, 0, 64, 47
1, 13323, Control_c, 0, 64, 49
1, 13338, Control_c, 0, 64, 51
1, 13343, Note_off_c, 0, 77, 58
1, 13353, Control_c, 0, 64, 53
1, 13368, Control_c, 0, 64, 56
1, 13383, Control_c, 0, 64, 59
1, 13398, Control_c, 0, 64, 61
1, 13413, Control_c, 0, 64, 62
1, 13457, Control_c, 0, 64, 61
1, 13487, Control_c, 0, 64, 61
1, 13501, Control_c, 0, 64, 60
1, 13531, Control_c, 0, 64, 60
1, 13561, Control_c, 0, 64, 59
1, 13577, Note_on_c, 0, 81, 48
1, 13599, Note_on_c, 0, 69, 29
1, 13605, Control_c, 0, 64, 59
1, 13635, Control_c, 0, 64, 58
1, 13649, Control_c, 0, 64, 58
1, 13664, Control_c, 0, 64, 57
1, 13679, Control_c, 0, 64, 57
1, 13686, Note_off_c, 0, 78, 63
1, 13693, Control_c, 0, 64, 56
1, 13723, Control_c, 0, 64, 56
1, 13727, Note_off_c, 0, 66, 36
1, 13738, Control_c, 0, 64, 55
1, 13753, Control_c, 0, 64, 55
1, 13767, Control_c, 0, 64, 53
1, 13782, Control_c, 0, 64, 52
1, 13797, Control_c, 0, 64, 51
1, 13812, Control_c, 0, 64, 50
1, 13827, Control_c, 0, 64, 49
1, 13842, Control_c, 0, 64, 47
1, 13857, Control_c, 0, 64, 45
1, 13872, Control_c, 0, 64, 43
1, 13886, Control_c, 0, 64, 40
1, 13901, Control_c, 0, 64, 37
1, 13910, Note_on_c, 0, 67, 40
1, 13912, Note_on_c, 0, 79, 63
1, 13916, Control_c, 0, 64, 32
1, 13931, Control_c, 0, 64, 25
1, 13946, Control_c, 0, 64, 11
1, 13960, Control_c, 0, 64, 0
1, 13963, Note_off_c, 0, 69, 43
1, 13969, Note_off_c, 0, 81, 59
1, 14110, Note_off_c, 0, 67, 55
1, 14112, Note_on_c, 0, 75, 70
1, 14119, Note_on_c, 0, 63, 39
1, 14161, Note_off_c, 0, 79, 60
1, 14161, Control_c, 0, 64, 25
1, 14175, Control_c, 0, 64, 46
1, 14191, Control_c, 0, 64, 58
1, 14205, Control_c, 0, 64, 64
1, 14220, Control_c, 0, 64, 66
1, 14235, Control_c, 0, 64, 70
1, 14246, Note_off_c, 0, 63, 58
1, 14250, Control_c, 0, 64, 76
1, 14265, Control_c, 0, 64, 83
1, 14277, Note_off_c, 0, 75, 60
1, 14280, Control_c, 0, 64, 90
1, 14295, Control_c, 0, 64, 93
1, 14309, Control_c, 0, 64, 91
1, 14324, Control_c, 0, 64, 89
1, 14339, Control_c, 0, 64, 88
1, 14354, Control_c, 0, 64, 87
1, 14366, Note_on_c, 0, 75, 52
1, 14369, Control_c, 0, 64, 84
1, 14384, Control_c, 0, 64, 81
1, 14398, Control_c, 0, 64, 76
1, 14411, Note_on_c, 0, 63, 22
1, 14413, Control_c, 0, 64, 73
1, 14428, Control_c, 0, 64, 71
1, 14442, Control_c, 0, 64, 68
1, 14457, Control_c, 0, 64, 64
1, 14472, Control_c, 0, 64, 59
1, 14487, Control_c, 0, 64, 49
1, 14502, Control_c, 0, 64, 46
1, 14516, Control_c, 0, 64, 46
1, 14531, Control_c, 0, 64, 47
1, 14546, Control_c, 0, 64, 48
1, 14561, Control_c, 0, 64, 50
1, 14576, Control_c, 0, 64, 53
1, 14590, Control_c, 0, 64, 55
1, 14605, Control_c, 0, 64, 58
1, 14620, Control_c, 0, 64, 61
1, 14635, Control_c, 0, 64, 63
1, 14650, Control_c, 0, 64, 65
1, 14664, Control_c, 0, 64, 67
1, 14679, Control_c, 0, 64, 70
1, 14694, Control_c, 0, 64, 75
1, 14709, Control_c, 0, 64, 81
1, 14724, Control_c, 0, 64, 89
1, 14746, Control_c, 0, 64, 98
1, 14761, Control_c, 0, 64, 113
1, 14776, Control_c, 0, 64, 127
1, 15195, Note_off_c, 0, 75, 33
1, 15239, Note_on_c, 0, 74, 43
1, 15268, Note_on_c, 0, 62, 30
1, 15326, Control_c, 0, 64, 119
1, 15340, Control_c, 0, 64, 117
1, 15355, Control_c, 0, 64, 114
1, 15370, Control_c, 0, 64, 110
1, 15385, Control_c, 0, 64, 105
1, 15394, Note_off_c, 0, 63, 33
1, 15400, Control_c, 0, 64, 100
1, 15414, Control_c, 0, 64, 95
1, 15429, Control_c, 0, 64, 93
1, 15444, Note_on_c, 0, 77, 48
1, 15444, Control_c, 0, 64, 91
1, 15459, Control_c, 0, 64, 90
1, 15473, Control_c, 0, 64, 88
1, 15478, Note_on_c, 0, 65, 33
1, 15496, Control_c, 0, 64, 85
1, 15511, Control_c, 0, 64, 82
1, 15526, Control_c, 0, 64, 79
1, 15540, Control_c, 0, 64, 77
1, 15555, Control_c, 0, 64, 76
1, 15558, Note_off_c, 0, 74, 57
1, 15570, Control_c, 0, 64, 74
1, 15585, Control_c, 0, 64, 71
1, 15600, Control_c, 0, 64, 69
1, 15614, Control_c, 0, 64, 67
1, 15615, Note_off_c, 0, 62, 31
1, 15629, Control_c, 0, 64, 66
1, 15644, Control_c, 0, 64, 66
1, 15659, Control_c, 0, 64, 64
1, 15673, Control_c, 0, 64, 63
1, 15688, Control_c, 0, 64, 62
1, 15718, Control_c, 0, 64, 61
1, 15733, Control_c, 0, 64, 59
1, 15747, Control_c, 0, 64, 57
1, 15762, Control_c, 0, 64, 56
1, 15769, Note_on_c, 0, 75, 46
1, 15785, Note_on_c, 0, 63, 26
1, 15793, Control_c, 0, 64, 55
1, 15808, Control_c, 0, 64, 55
1, 15823, Control_c, 0, 64, 53
1, 15837, Control_c, 0, 64, 51
1, 15844, Note_off_c, 0, 77, 52
1, 15852, Control_c, 0, 64, 51
1, 15855, Note_off_c, 0, 65, 38
1, 15867, Control_c, 0, 64, 50
1, 15882, Control_c, 0, 64, 49
1, 15896, Control_c, 0, 64, 46
1, 15911, Control_c, 0, 64, 43
1, 15926, Control_c, 0, 64, 41
1, 15941, Control_c, 0, 64, 40
1, 15956, Control_c, 0, 64, 39
1, 15970, Control_c, 0, 64, 38
1, 15985, Control_c, 0, 64, 34
1, 16000, Control_c, 0, 64, 23
1, 16015, Control_c, 0, 64, 0
1, 16036, Note_on_c, 0, 74, 40
1, 16059, Note_on_c, 0, 62, 21
1, 16061, Note_off_c, 0, 75, 53
1, 16084, Note_off_c, 0, 63, 37
1, 16134, Control_c, 0, 64, 21
1, 16149, Control_c, 0, 64, 30
1, 16163, Control_c, 0, 64, 40
1, 16178, Control_c, 0, 64, 50
1, 16193, Control_c, 0, 64, 56
1, 16208, Control_c, 0, 64, 59
1, 16223, Control_c, 0, 64, 61
1, 16244, Control_c, 0, 64, 64
1, 16259, Control_c, 0, 64, 66
1, 16274, Control_c, 0, 64, 70
1, 16289, Control_c, 0, 64, 77
1, 16296, Note_off_c, 0, 74, 51
1, 16304, Note_off_c, 0, 62, 39
1, 16304, Control_c, 0, 64, 89
1, 16319, Control_c, 0, 64, 107
1, 16334, Control_c, 0, 64, 127
1, 16603, Note_on_c, 0, 74, 27
1, 16647, Note_on_c, 0, 62, 17
1, 17292, Note_off_c, 0, 74, 27
1, 17304, Note_off_c, 0, 62, 32
1, 17318, Control_c, 0, 64, 123
1, 17333, Control_c, 0, 64, 119
1, 17348, Control_c, 0, 64, 114
1, 17363, Control_c, 0, 64, 110
1, 17378, Control_c, 0, 64, 107
1, 17408, Control_c, 0, 64, 106
1, 17423, Control_c, 0, 64, 105
1, 17438, Control_c, 0, 64, 104
1, 17453, Control_c, 0, 64, 102
1, 17468, Control_c, 0, 64, 100
1, 17482, Control_c, 0, 64, 99
1, 17497, Control_c, 0, 64, 96
1, 17512, Control_c, 0, 64, 93
1, 17527, Control_c, 0, 64, 91
1, 17541, Control_c, 0, 64, 90
1, 17586, Control_c, 0, 64, 89
1, 17601, Control_c, 0, 64, 88
1, 17616, Control_c, 0, 64, 85
1, 17630, Control_c, 0, 64, 83
1, 17645, Control_c, 0, 64, 82
1, 17660, Control_c, 0, 64, 81
1, 17675, Control_c, 0, 64, 81
1, 17690, Control_c, 0, 64, 80
1, 17705, Control_c, 0, 64, 79
1, 17720, Control_c, 0, 64, 78
1, 17741, Control_c, 0, 64, 77
1, 17756, Control_c, 0, 64, 77
1, 17771, Control_c, 0, 64, 76
1, 17786, Control_c, 0, 64, 76
1, 17801, Control_c, 0, 64, 74
1, 17815, Control_c, 0, 64, 74
1, 17845, Control_c, 0, 64, 73
1, 17860, Control_c, 0, 64, 72
1, 17875, Control_c, 0, 64, 72
1, 17890, Control_c, 0, 64, 71
1, 17920, Control_c, 0, 64, 70
1, 17934, Control_c, 0, 64, 70
1, 17949, Control_c, 0, 64, 69
1, 17964, Control_c, 0, 64, 68
1, 17978, Control_c, 0, 64, 68
1, 18007, Control_c, 0, 64, 67
1, 18037, Control_c, 0, 64, 67
1, 18052, Control_c, 0, 64, 66
1, 18066, Control_c, 0, 64, 66
1, 18111, Control_c, 0, 64, 65
1, 18126, Control_c, 0, 64, 65
1, 18140, Control_c, 0, 64, 64
1, 18216, Control_c, 0, 64, 64
1, 18230, Control_c, 0, 64, 63
1, 18304, Control_c, 0, 64, 63
1, 18364, Control_c, 0, 64, 62
1, 18379, Control_c, 0, 64, 62
1, 18394, Control_c, 0, 64, 61
1, 18438, Control_c, 0, 64, 61
1, 18468, Control_c, 0, 64, 60
1, 18519, Control_c, 0, 64, 60
1, 18549, Control_c, 0, 64, 59
1, 18623, Control_c, 0, 64, 59
1, 19069, Control_c, 0, 64, 59
1, 19128, Control_c, 0, 64, 60
1, 19202, Control_c, 0, 64, 60
1, 19299, Control_c, 0, 64, 61
1, 19343, Control_c, 0, 64, 61
1, 19417, Control_c, 0, 64, 62
1, 19476, Control_c, 0, 64, 62
1, 19550, Control_c, 0, 64, 63
1, 19609, Control_c, 0, 64, 63
1, 19639, Control_c, 0, 64, 64
1, 19653, Control_c, 0, 64, 64
1, 19683, Control_c, 0, 64, 65
1, 19712, Control_c, 0, 64, 65
1, 19742, Control_c, 0, 64, 66
1, 19757, Control_c, 0, 64, 66
1, 19772, Control_c, 0, 64, 67
1, 19788, Control_c, 0, 64, 68
1, 19802, Control_c, 0, 64, 68
1, 19832, Control_c, 0, 64, 69
1, 19847, Control_c, 0, 64, 69
1, 19862, Control_c, 0, 64, 70
1, 19876, Control_c, 0, 64, 72
1, 19891, Control_c, 0, 64, 72
1, 19906, Control_c, 0, 64, 73
1, 19921, Control_c, 0, 64, 73
1, 19935, Control_c, 0, 64, 74
1, 19950, Control_c, 0, 64, 76
1, 19965, Control_c, 0, 64, 78
1, 19988, Control_c, 0, 64, 80
1, 20003, Control_c, 0, 64, 81
1, 20017, Control_c, 0, 64, 83
1, 20032, Control_c, 0, 64, 85
1, 20047, Control_c, 0, 64, 88
1, 20062, Control_c, 0, 64, 91
1, 20077, Control_c, 0, 64, 95
1, 20091, Control_c, 0, 64, 99
1, 20106, Control_c, 0, 64, 105
1, 20121, Control_c, 0, 64, 115
1, 20135, Control_c, 0, 64, 127
1, 20716, Note_on_c, 0, 72, 69
1, 20736, Note_on_c, 0, 60, 37
1, 20746, Note_on_c, 0, 51, 36
1, 20746, Note_on_c, 0, 55, 33
1, 21892, Note_off_c, 0, 60, 38
1, 21974, Note_off_c, 0, 55, 37
1, 22426, Note_on_c, 0, 67, 63
1, 22653, Note_off_c, 0, 51, 25
1, 22672, Note_on_c, 0, 50, 46
1, 22672, Note_off_c, 0, 72, 54
1, 22789, Note_on_c, 0, 55, 57
1, 23051, Note_on_c, 0, 70, 67
1, 23062, Note_on_c, 0, 63, 45
1, 23117, Control_c, 0, 64, 112
1, 23132, Control_c, 0, 64, 104
1, 23147, Control_c, 0, 64, 98
1, 23161, Control_c, 0, 64, 92
1, 23176, Control_c, 0, 64, 87
1, 23191, Control_c, 0, 64, 83
1, 23206, Control_c, 0, 64, 79
1, 23221, Control_c, 0, 64, 77
1, 23235, Control_c, 0, 64, 75
1, 23250, Control_c, 0, 64, 72
1, 23265, Control_c, 0, 64, 69
1, 23279, Note_off_c, 0, 67, 61
1, 23280, Control_c, 0, 64, 67
1, 23295, Control_c, 0, 64, 66
1, 23309, Control_c, 0, 64, 66
1, 23324, Control_c, 0, 64, 65
1, 23339, Control_c, 0, 64, 63
1, 23354, Control_c, 0, 64, 61
1, 23369, Control_c, 0, 64, 60
1, 23384, Control_c, 0, 64, 59
1, 23399, Control_c, 0, 64, 59
1, 23413, Control_c, 0, 64, 57
1, 23428, Control_c, 0, 64, 52
1, 23443, Control_c, 0, 64, 44
1, 23458, Control_c, 0, 64, 31
1, 23472, Control_c, 0, 64, 0
1, 23561, Control_c, 0, 64, 18
1, 23576, Control_c, 0, 64, 28
1, 23591, Control_c, 0, 64, 34
1, 23606, Control_c, 0, 64, 41
1, 23620, Control_c, 0, 64, 48
1, 23635, Control_c, 0, 64, 55
1, 23650, Control_c, 0, 64, 58
1, 23665, Control_c, 0, 64, 60
1, 23679, Control_c, 0, 64, 62
1, 23694, Control_c, 0, 64, 63
1, 23709, Control_c, 0, 64, 65
1, 23732, Control_c, 0, 64, 67
1, 23747, Control_c, 0, 64, 70
1, 23761, Control_c, 0, 64, 74
1, 23777, Control_c, 0, 64, 79
1, 23792, Control_c, 0, 64, 85
1, 23807, Control_c, 0, 64, 92
1, 23822, Control_c, 0, 64, 100
1, 23837, Control_c, 0, 64, 115
1, 23851, Control_c, 0, 64, 127
1, 24138, Note_off_c, 0, 50, 26
1, 24152, Note_off_c, 0, 55, 27
1, 24718, Control_c, 0, 64, 121
1, 24732, Control_c, 0, 64, 118
1, 24747, Control_c, 0, 64, 116
1, 24757, Note_off_c, 0, 63, 32
1, 24762, Control_c, 0, 64, 114
1, 24777, Control_c, 0, 64, 112
1, 24792, Control_c, 0, 64, 109
1, 24806, Control_c, 0, 64, 107
1, 24821, Control_c, 0, 64, 105
1, 24836, Control_c, 0, 64, 104
1, 24866, Control_c, 0, 64, 102
1, 24880, Control_c, 0, 64, 101
1, 24895, Control_c, 0, 64, 101
1, 24910, Control_c, 0, 64, 100
1, 24925, Control_c, 0, 64, 99
1, 24940, Control_c, 0, 64, 98
1, 24955, Control_c, 0, 64, 97
1, 24969, Control_c, 0, 64, 96
1, 24984, Control_c, 0, 64, 95
1, 24999, Control_c, 0, 64, 95
1, 25014, Control_c, 0, 64, 94
1, 25029, Control_c, 0, 64, 92
1, 25044, Control_c, 0, 64, 90
1, 25059, Control_c, 0, 64, 88
1, 25073, Control_c, 0, 64, 87
1, 25088, Control_c, 0, 64, 86
1, 25117, Control_c, 0, 64, 86
1, 25147, Control_c, 0, 64, 85
1, 25162, Control_c, 0, 64, 85
1, 25191, Control_c, 0, 64, 84
1, 25206, Control_c, 0, 64, 83
1, 25229, Control_c, 0, 64, 82
1, 25244, Control_c, 0, 64, 81
1, 25259, Control_c, 0, 64, 81
1, 25288, Control_c, 0, 64, 80
1, 25303, Control_c, 0, 64, 80
1, 25318, Control_c, 0, 64, 79
1, 25332, Control_c, 0, 64, 78
1, 25347, Control_c, 0, 64, 78
1, 25362, Control_c, 0, 64, 77
1, 25378, Control_c, 0, 64, 77
1, 25393, Control_c, 0, 64, 76
1, 25408, Control_c, 0, 64, 76
1, 25437, Control_c, 0, 64, 75
1, 25452, Control_c, 0, 64, 74
1, 25467, Control_c, 0, 64, 73
1, 25482, Control_c, 0, 64, 72
1, 25541, Control_c, 0, 64, 72
1, 25555, Control_c, 0, 64, 71
1, 25570, Control_c, 0, 64, 70
1, 25585, Control_c, 0, 64, 70
1, 25600, Control_c, 0, 64, 69
1, 25615, Control_c, 0, 64, 69
1, 25629, Control_c, 0, 64, 68
1, 25644, Control_c, 0, 64, 68
1, 25674, Control_c, 0, 64, 67
1, 25689, Control_c, 0, 64, 67
1, 25703, Control_c, 0, 64, 66
1, 25718, Control_c, 0, 64, 66
1, 25762, Control_c, 0, 64, 65
1, 25777, Control_c, 0, 64, 65
1, 25792, Control_c, 0, 64, 64
1, 25837, Control_c, 0, 64, 64
1, 25852, Control_c, 0, 64, 63
1, 25867, Control_c, 0, 64, 63
1, 25911, Control_c, 0, 64, 62
1, 25926, Control_c, 0, 64, 62
1, 25940, Control_c, 0, 64, 61
1, 25955, Control_c, 0, 64, 61
1, 26007, Control_c, 0, 64, 60
1, 26022, Control_c, 0, 64, 60
1, 26037, Control_c, 0, 64, 59
1, 26052, Control_c, 0, 64, 59
1, 26066, Control_c, 0, 64, 58
1, 26081, Control_c, 0, 64, 58
1, 26096, Control_c, 0, 64, 57
1, 26111, Control_c, 0, 64, 57
1, 26126, Control_c, 0, 64, 56
1, 26141, Control_c, 0, 64, 55
1, 26171, Control_c, 0, 64, 54
1, 26186, Control_c, 0, 64, 53
1, 26201, Control_c, 0, 64, 51
1, 26216, Control_c, 0, 64, 51
1, 26245, Control_c, 0, 64, 51
1, 26260, Control_c, 0, 64, 52
1, 26275, Control_c, 0, 64, 52
1, 26290, Control_c, 0, 64, 53
1, 26305, Control_c, 0, 64, 53
1, 26320, Control_c, 0, 64, 54
1, 26335, Control_c, 0, 64, 55
1, 26350, Control_c, 0, 64, 56
1, 26365, Control_c, 0, 64, 57
1, 26379, Control_c, 0, 64, 58
1, 26394, Control_c, 0, 64, 59
1, 26409, Control_c, 0, 64, 60
1, 26424, Control_c, 0, 64, 61
1, 26439, Control_c, 0, 64, 63
1, 26453, Control_c, 0, 64, 64
1, 26468, Control_c, 0, 64, 65
1, 26483, Control_c, 0, 64, 66
1, 26498, Control_c, 0, 64, 69
1, 26513, Control_c, 0, 64, 71
1, 26527, Control_c, 0, 64, 74
1, 26542, Control_c, 0, 64, 77
1, 26557, Control_c, 0, 64, 80
1, 26571, Control_c, 0, 64, 84
1, 26586, Control_c, 0, 64, 88
1, 26601, Control_c, 0, 64, 94
1, 26616, Control_c, 0, 64, 103
1, 26631, Control_c, 0, 64, 117
1, 26645, Control_c, 0, 64, 127
1, 27038, Note_off_c, 0, 70, 31
1, 27580, Control_c, 0, 64, 121
1, 27595, Note_on_c, 0, 38, 23
1, 27595, Control_c, 0, 64, 114
1, 27609, Control_c, 0, 64, 107
1, 27624, Control_c, 0, 64, 102
1, 27639, Control_c, 0, 64, 100
1, 27654, Control_c, 0, 64, 97
1, 27669, Control_c, 0, 64, 94
1, 27683, Control_c, 0, 64, 88
1, 27698, Control_c, 0, 64, 83
1, 27712, Control_c, 0, 64, 79
1, 27727, Control_c, 0, 64, 77
1, 27742, Control_c, 0, 64, 76
1, 27757, Control_c, 0, 64, 74
1, 27772, Control_c, 0, 64, 72
1, 27787, Control_c, 0, 64, 69
1, 27802, Control_c, 0, 64, 67
1, 27816, Control_c, 0, 64, 65
1, 27831, Control_c, 0, 64, 64
1, 27846, Control_c, 0, 64, 61
1, 27861, Control_c, 0, 64, 55
1, 27876, Control_c, 0, 64, 54
1, 27891, Control_c, 0, 64, 55
1, 27906, Control_c, 0, 64, 56
1, 27921, Control_c, 0, 64, 58
1, 27935, Control_c, 0, 64, 59
1, 27950, Control_c, 0, 64, 61
1, 27965, Control_c, 0, 64, 62
1, 27980, Control_c, 0, 64, 64
1, 27995, Control_c, 0, 64, 65
1, 28010, Control_c, 0, 64, 67
1, 28024, Control_c, 0, 64, 70
1, 28039, Control_c, 0, 64, 73
1, 28054, Control_c, 0, 64, 77
1, 28069, Control_c, 0, 64, 80
1, 28084, Note_on_c, 0, 60, 38
1, 28084, Control_c, 0, 64, 84
1, 28098, Control_c, 0, 64, 88
1, 28113, Control_c, 0, 64, 94
1, 28128, Control_c, 0, 64, 100
1, 28142, Control_c, 0, 64, 107
1, 28157, Control_c, 0, 64, 114
1, 28172, Control_c, 0, 64, 116
1, 28187, Control_c, 0, 64, 117
1, 28202, Control_c, 0, 64, 119
1, 28224, Control_c, 0, 64, 127
1, 28328, Control_c, 0, 64, 123
1, 28367, Note_on_c, 0, 62, 30
1, 28417, Control_c, 0, 64, 121
1, 28475, Control_c, 0, 64, 119
1, 28520, Control_c, 0, 64, 118
1, 28554, Note_on_c, 0, 66, 44
1, 28579, Control_c, 0, 64, 117
1, 28600, Note_off_c, 0, 62, 40
1, 28654, Control_c, 0, 64, 116
1, 28703, Note_off_c, 0, 60, 30
1, 28718, Note_on_c, 0, 70, 50
1, 28738, Note_off_c, 0, 66, 36
1, 28758, Control_c, 0, 64, 115
1, 28760, Note_off_c, 0, 38, 35
1, 28802, Control_c, 0, 64, 114
1, 28832, Control_c, 0, 64, 113
1, 28861, Control_c, 0, 64, 113
1, 28874, Note_on_c, 0, 69, 60
1, 28876, Control_c, 0, 64, 112
1, 28891, Control_c, 0, 64, 111
1, 28906, Control_c, 0, 64, 111
1, 28920, Control_c, 0, 64, 109
1, 28935, Control_c, 0, 64, 107
1, 28950, Control_c, 0, 64, 105
1, 28961, Note_off_c, 0, 70, 34
1, 28972, Control_c, 0, 64, 103
1, 28987, Control_c, 0, 64, 100
1, 29002, Control_c, 0, 64, 97
1, 29017, Control_c, 0, 64, 94
1, 29032, Control_c, 0, 64, 91
1, 29046, Control_c, 0, 64, 89
1, 29061, Control_c, 0, 64, 86
1, 29063, Note_on_c, 0, 67, 57
1, 29076, Control_c, 0, 64, 82
1, 29091, Control_c, 0, 64, 78
1, 29106, Control_c, 0, 64, 75
1, 29120, Control_c, 0, 64, 71
1, 29135, Control_c, 0, 64, 69
1, 29150, Control_c, 0, 64, 67
1, 29164, Control_c, 0, 64, 64
1, 29176, Note_off_c, 0, 69, 38
1, 29179, Control_c, 0, 64, 61
1, 29194, Control_c, 0, 64, 58
1, 29209, Control_c, 0, 64, 54
1, 29224, Control_c, 0, 64, 44
1, 29238, Control_c, 0, 64, 24
1, 29253, Control_c, 0, 64, 0
1, 29298, Control_c, 0, 64, 17
1, 29313, Control_c, 0, 64, 30
1, 29328, Control_c, 0, 64, 43
1, 29342, Control_c, 0, 64, 55
1, 29357, Control_c, 0, 64, 60
1, 29373, Control_c, 0, 64, 62
1, 29388, Control_c, 0, 64, 64
1, 29402, Control_c, 0, 64, 66
1, 29417, Control_c, 0, 64, 69
1, 29432, Control_c, 0, 64, 75
1, 29441, Note_on_c, 0, 43, 22
1, 29447, Control_c, 0, 64, 82
1, 29450, Note_on_c, 0, 62, 29
1, 29453, Note_on_c, 0, 58, 24
1, 29462, Control_c, 0, 64, 90
1, 29477, Control_c, 0, 64, 98
1, 29491, Control_c, 0, 64, 111
1, 29506, Control_c, 0, 64, 127
1, 29575, Note_off_c, 0, 62, 51
1, 29606, Note_off_c, 0, 43, 40
1, 29608, Note_off_c, 0, 58, 37
1, 29784, Note_on_c, 0, 62, 35
1, 29796, Note_on_c, 0, 58, 29
1, 29808, Note_on_c, 0, 43, 20
1, 29889, Note_off_c, 0, 62, 58
1, 29911, Note_off_c, 0, 67, 53
1, 29917, Note_off_c, 0, 58, 47
1, 29970, Note_off_c, 0, 43, 37
1, 30106, Control_c, 0, 64, 123
1, 30120, Control_c, 0, 64, 113
1, 30135, Control_c, 0, 64, 107
1, 30149, Note_on_c, 0, 74, 63
1, 30150, Control_c, 0, 64, 104
1, 30166, Control_c, 0, 64, 100
1, 30181, Control_c, 0, 64, 97
1, 30196, Control_c, 0, 64, 93
1, 30211, Control_c, 0, 64, 89
1, 30225, Control_c, 0, 64, 84
1, 30240, Control_c, 0, 64, 81
1, 30255, Control_c, 0, 64, 79
1, 30270, Control_c, 0, 64, 77
1, 30284, Control_c, 0, 64, 74
1, 30299, Control_c, 0, 64, 71
1, 30314, Control_c, 0, 64, 68
1, 30329, Control_c, 0, 64, 66
1, 30344, Control_c, 0, 64, 65
1, 30359, Control_c, 0, 64, 65
1, 30374, Control_c, 0, 64, 63
1, 30389, Control_c, 0, 64, 62
1, 30404, Control_c, 0, 64, 60
1, 30418, Control_c, 0, 64, 57
1, 30433, Control_c, 0, 64, 53
1, 30448, Control_c, 0, 64, 45
1, 30470, Control_c, 0, 64, 37
1, 30485, Control_c, 0, 64, 38
1, 30499, Control_c, 0, 64, 42
1, 30514, Control_c, 0, 64, 47
1, 30518, Note_on_c, 0, 67, 38
1, 30521, Note_on_c, 0, 58, 37
1, 30529, Control_c, 0, 64, 51
1, 30534, Note_on_c, 0, 62, 35
1, 30544, Control_c, 0, 64, 55
1, 30559, Control_c, 0, 64, 59
1, 30574, Control_c, 0, 64, 62
1, 30588, Control_c, 0, 64, 64
1, 30603, Control_c, 0, 64, 67
1, 30618, Control_c, 0, 64, 71
1, 30633, Control_c, 0, 64, 76
1, 30648, Control_c, 0, 64, 85
1, 30663, Control_c, 0, 64, 97
1, 30676, Note_off_c, 0, 58, 0
1, 30678, Control_c, 0, 64, 113
1, 30687, Note_off_c, 0, 67, 56
1, 30692, Control_c, 0, 64, 127
1, 30705, Poly_aftertouch_c, 0, 58, 0
1, 30707, Note_off_c, 0, 62, 37
1, 30868, Note_on_c, 0, 67, 38
1, 30878, Note_on_c, 0, 58, 32
1, 30886, Note_on_c, 0, 62, 17
1, 31019, Note_off_c, 0, 62, 32
1, 31019, Control_c, 0, 64, 119
1, 31033, Control_c, 0, 64, 115
1, 31048, Control_c, 0, 64, 111
1, 31063, Control_c, 0, 64, 106
1, 31078, Control_c, 0, 64, 104
1, 31093, Control_c, 0, 64, 102
1, 31107, Control_c, 0, 64, 100
1, 31114, Note_off_c, 0, 58, 36
1, 31122, Control_c, 0, 64, 97
1, 31137, Control_c, 0, 64, 95
1, 31152, Control_c, 0, 64, 92
1, 31167, Control_c, 0, 64, 88
1, 31174, Note_off_c, 0, 74, 55
1, 31180, Note_on_c, 0, 72, 45
1, 31182, Control_c, 0, 64, 84
1, 31197, Control_c, 0, 64, 81
1, 31219, Control_c, 0, 64, 77
1, 31234, Control_c, 0, 64, 75
1, 31248, Control_c, 0, 64, 72
1, 31259, Note_off_c, 0, 67, 39
1, 31263, Control_c, 0, 64, 70
1, 31278, Control_c, 0, 64, 67
1, 31293, Control_c, 0, 64, 66
1, 31308, Control_c, 0, 64, 64
1, 31322, Control_c, 0, 64, 63
1, 31337, Control_c, 0, 64, 63
1, 31352, Control_c, 0, 64, 60
1, 31366, Control_c, 0, 64, 55
1, 31381, Control_c, 0, 64, 52
1, 31396, Control_c, 0, 64, 50
1, 31411, Control_c, 0, 64, 48
1, 31426, Control_c, 0, 64, 47
1, 31456, Control_c, 0, 64, 49
1, 31471, Control_c, 0, 64, 51
1, 31486, Control_c, 0, 64, 54
1, 31501, Control_c, 0, 64, 57
1, 31515, Control_c, 0, 64, 60
1, 31530, Control_c, 0, 64, 63
1, 31545, Control_c, 0, 64, 64
1, 31559, Control_c, 0, 64, 67
1, 31574, Control_c, 0, 64, 69
1, 31581, Note_on_c, 0, 67, 31
1, 31589, Note_on_c, 0, 57, 27
1, 31589, Control_c, 0, 64, 73
1, 31598, Note_on_c, 0, 63, 18
1, 31604, Control_c, 0, 64, 79
1, 31606, Note_on_c, 0, 60, 15
1, 31619, Control_c, 0, 64, 87
1, 31633, Control_c, 0, 64, 102
1, 31648, Control_c, 0, 64, 127
1, 31759, Note_off_c, 0, 60, 44
1, 31760, Note_off_c, 0, 67, 43
1, 31760, Note_off_c, 0, 57, 44
1, 31767, Note_off_c, 0, 63, 41
1, 32037, Note_on_c, 0, 67, 26
1, 32059, Note_on_c, 0, 57, 18
1, 32066, Note_on_c, 0, 63, 7
1, 32084, Note_on_c, 0, 60, 17
1, 32311, Note_off_c, 0, 60, 37
1, 32311, Note_off_c, 0, 72, 36
1, 32323, Control_c, 0, 64, 121
1, 32325, Note_off_c, 0, 67, 36
1, 32338, Control_c, 0, 64, 118
1, 32353, Control_c, 0, 64, 114
1, 32362, Note_off_c, 0, 57, 39
1, 32368, Control_c, 0, 64, 111
1, 32383, Control_c, 0, 64, 107
1, 32397, Control_c, 0, 64, 106
1, 32412, Control_c, 0, 64, 104
1, 32427, Control_c, 0, 64, 102
1, 32442, Control_c, 0, 64, 99
1, 32456, Control_c, 0, 64, 97
1, 32471, Control_c, 0, 64, 95
1, 32486, Control_c, 0, 64, 93
1, 32501, Control_c, 0, 64, 92
1, 32516, Control_c, 0, 64, 91
1, 32530, Control_c, 0, 64, 90
1, 32545, Control_c, 0, 64, 89
1, 32561, Control_c, 0, 64, 88
1, 32576, Control_c, 0, 64, 86
1, 32591, Note_off_c, 0, 63, 37
1, 32591, Control_c, 0, 64, 83
1, 32605, Control_c, 0, 64, 81
1, 32620, Control_c, 0, 64, 79
1, 32635, Control_c, 0, 64, 78
1, 32650, Control_c, 0, 64, 76
1, 32665, Control_c, 0, 64, 74
1, 32679, Control_c, 0, 64, 72
1, 32694, Control_c, 0, 64, 70
1, 32717, Control_c, 0, 64, 68
1, 32732, Control_c, 0, 64, 67
1, 32747, Control_c, 0, 64, 67
1, 32761, Control_c, 0, 64, 66
1, 32776, Control_c, 0, 64, 65
1, 32791, Control_c, 0, 64, 65
1, 32806, Control_c, 0, 64, 64
1, 32820, Control_c, 0, 64, 63
1, 32835, Control_c, 0, 64, 63
1, 32850, Control_c, 0, 64, 62
1, 32865, Control_c, 0, 64, 60
1, 32880, Control_c, 0, 64, 58
1, 32894, Control_c, 0, 64, 53
1, 32909, Control_c, 0, 64, 48
1, 32924, Control_c, 0, 64, 47
1, 32939, Control_c, 0, 64, 48
1, 32954, Control_c, 0, 64, 49
1, 32960, Note_on_c, 0, 60, 45
1, 32968, Control_c, 0, 64, 52
1, 32983, Control_c, 0, 64, 54
1, 32998, Control_c, 0, 64, 56
1, 33012, Control_c, 0, 64, 58
1, 33027, Control_c, 0, 64, 61
1, 33042, Control_c, 0, 64, 62
1, 33057, Control_c, 0, 64, 64
1, 33072, Control_c, 0, 64, 65
1, 33086, Control_c, 0, 64, 66
1, 33101, Control_c, 0, 64, 68
1, 33116, Control_c, 0, 64, 72
1, 33131, Control_c, 0, 64, 75
1, 33146, Control_c, 0, 64, 79
1, 33151, Note_on_c, 0, 38, 21
1, 33161, Control_c, 0, 64, 83
1, 33176, Control_c, 0, 64, 88
1, 33191, Control_c, 0, 64, 96
1, 33206, Control_c, 0, 64, 111
1, 33216, Note_on_c, 0, 62, 45
1, 33220, Control_c, 0, 64, 127
1, 33355, Note_off_c, 0, 38, 38
1, 33391, Note_on_c, 0, 66, 58
1, 33438, Note_off_c, 0, 62, 49
1, 33537, Note_on_c, 0, 38, 36
1, 33546, Note_on_c, 0, 70, 66
1, 33568, Note_off_c, 0, 66, 57
1, 33680, Note_on_c, 0, 69, 72
1, 33750, Note_off_c, 0, 38, 37
1, 33762, Control_c, 0, 64, 121
1, 33772, Note_off_c, 0, 70, 34
1, 33775, Note_off_c, 0, 60, 35
1, 33777, Control_c, 0, 64, 101
1, 33792, Control_c, 0, 64, 93
1, 33807, Control_c, 0, 64, 87
1, 33822, Control_c, 0, 64, 81
1, 33836, Control_c, 0, 64, 76
1, 33839, Note_on_c, 0, 67, 73
1, 33851, Control_c, 0, 64, 72
1, 33866, Control_c, 0, 64, 70
1, 33881, Control_c, 0, 64, 68
1, 33896, Control_c, 0, 64, 65
1, 33897, Note_off_c, 0, 69, 59
1, 33910, Control_c, 0, 64, 63
1, 33925, Control_c, 0, 64, 62
1, 33940, Control_c, 0, 64, 62
1, 33955, Control_c, 0, 64, 60
1, 33969, Control_c, 0, 64, 57
1, 33984, Control_c, 0, 64, 50
1, 33999, Control_c, 0, 64, 40
1, 34014, Control_c, 0, 64, 30
1, 34029, Control_c, 0, 64, 13
1, 34043, Control_c, 0, 64, 0
1, 34103, Control_c, 0, 64, 24
1, 34118, Control_c, 0, 64, 34
1, 34133, Control_c, 0, 64, 43
1, 34148, Control_c, 0, 64, 52
1, 34163, Control_c, 0, 64, 58
1, 34166, Note_on_c, 0, 43, 35
1, 34173, Note_on_c, 0, 58, 29
1, 34173, Note_on_c, 0, 62, 42
1, 34178, Control_c, 0, 64, 61
1, 34193, Control_c, 0, 64, 63
1, 34215, Control_c, 0, 64, 65
1, 34230, Control_c, 0, 64, 69
1, 34245, Control_c, 0, 64, 76
1, 34259, Control_c, 0, 64, 86
1, 34274, Control_c, 0, 64, 104
1, 34289, Control_c, 0, 64, 127
1, 34320, Note_off_c, 0, 62, 56
1, 34349, Note_off_c, 0, 43, 41
1, 34349, Note_off_c, 0, 58, 44
1, 34480, Note_on_c, 0, 62, 47
1, 34486, Note_on_c, 0, 58, 43
1, 34487, Note_on_c, 0, 43, 43
1, 34590, Note_off_c, 0, 62, 55
1, 34684, Note_off_c, 0, 43, 52
1, 34762, Control_c, 0, 64, 116
1, 34777, Control_c, 0, 64, 108
1, 34792, Control_c, 0, 64, 101
1, 34806, Control_c, 0, 64, 96
1, 34808, Note_on_c, 0, 64, 70
1, 34821, Control_c, 0, 64, 91
1, 34836, Control_c, 0, 64, 87
1, 34851, Control_c, 0, 64, 84
1, 34852, Note_off_c, 0, 67, 53
1, 34866, Control_c, 0, 64, 80
1, 34881, Control_c, 0, 64, 77
1, 34896, Control_c, 0, 64, 75
1, 34911, Control_c, 0, 64, 73
1, 34926, Control_c, 0, 64, 72
1, 34940, Control_c, 0, 64, 70
1, 34963, Control_c, 0, 64, 69
1, 34972, Note_off_c, 0, 58, 38
1, 34978, Control_c, 0, 64, 66
1, 34993, Control_c, 0, 64, 64
1, 35008, Control_c, 0, 64, 62
1, 35022, Control_c, 0, 64, 58
1, 35037, Control_c, 0, 64, 51
1, 35052, Control_c, 0, 64, 38
1, 35067, Control_c, 0, 64, 23
1, 35081, Control_c, 0, 64, 26
1, 35096, Control_c, 0, 64, 34
1, 35111, Control_c, 0, 64, 43
1, 35126, Control_c, 0, 64, 50
1, 35132, Note_on_c, 0, 61, 41
1, 35137, Note_on_c, 0, 45, 33
1, 35141, Control_c, 0, 64, 55
1, 35148, Note_on_c, 0, 57, 27
1, 35154, Note_on_c, 0, 55, 38
1, 35156, Control_c, 0, 64, 60
1, 35170, Control_c, 0, 64, 63
1, 35185, Control_c, 0, 64, 65
1, 35200, Control_c, 0, 64, 68
1, 35215, Control_c, 0, 64, 72
1, 35230, Control_c, 0, 64, 79
1, 35245, Control_c, 0, 64, 88
1, 35260, Control_c, 0, 64, 103
1, 35274, Control_c, 0, 64, 127
1, 35325, Note_off_c, 0, 61, 56
1, 35325, Note_off_c, 0, 45, 43
1, 35342, Note_off_c, 0, 55, 49
1, 35350, Note_off_c, 0, 57, 43
1, 35483, Note_on_c, 0, 61, 39
1, 35494, Note_on_c, 0, 45, 27
1, 35504, Note_on_c, 0, 55, 39
1, 35504, Note_on_c, 0, 57, 8
1, 35710, Note_off_c, 0, 55, 45
1, 35711, Note_off_c, 0, 57, 43
1, 35724, Note_off_c, 0, 45, 36
1, 35741, Control_c, 0, 64, 123
1, 35757, Control_c, 0, 64, 116
1, 35772, Control_c, 0, 64, 111
1, 35786, Control_c, 0, 64, 104
1, 35801, Control_c, 0, 64, 98
1, 35816, Control_c, 0, 64, 94
1, 35830, Control_c, 0, 64, 92
1, 35835, Note_on_c, 0, 66, 45
1, 35845, Control_c, 0, 64, 91
1, 35860, Control_c, 0, 64, 88
1, 35867, Note_off_c, 0, 64, 57
1, 35875, Control_c, 0, 64, 83
1, 35890, Control_c, 0, 64, 77
1, 35905, Control_c, 0, 64, 73
1, 35914, Note_off_c, 0, 61, 39
1, 35919, Control_c, 0, 64, 71
1, 35934, Control_c, 0, 64, 70
1, 35949, Control_c, 0, 64, 69
1, 35964, Control_c, 0, 64, 66
1, 35979, Control_c, 0, 64, 64
1, 35993, Control_c, 0, 64, 62
1, 36008, Control_c, 0, 64, 62
1, 36023, Control_c, 0, 64, 61
1, 36038, Control_c, 0, 64, 59
1, 36052, Control_c, 0, 64, 53
1, 36067, Control_c, 0, 64, 42
1, 36082, Control_c, 0, 64, 34
1, 36097, Control_c, 0, 64, 35
1, 36112, Control_c, 0, 64, 37
1, 36127, Control_c, 0, 64, 41
1, 36142, Control_c, 0, 64, 45
1, 36157, Control_c, 0, 64, 48
1, 36172, Control_c, 0, 64, 52
1, 36186, Control_c, 0, 64, 55
1, 36201, Control_c, 0, 64, 59
1, 36216, Control_c, 0, 64, 61
1, 36222, Note_on_c, 0, 62, 27
1, 36225, Note_on_c, 0, 38, 17
1, 36230, Control_c, 0, 64, 63
1, 36245, Control_c, 0, 64, 65
1, 36246, Note_on_c, 0, 54, 22
1, 36247, Note_on_c, 0, 57, 15
1, 36260, Control_c, 0, 64, 69
1, 36275, Control_c, 0, 64, 73
1, 36290, Control_c, 0, 64, 81
1, 36304, Control_c, 0, 64, 88
1, 36319, Control_c, 0, 64, 98
1, 36334, Control_c, 0, 64, 123
1, 36349, Control_c, 0, 64, 127
1, 36395, Note_off_c, 0, 62, 43
1, 36410, Note_off_c, 0, 54, 42
1, 36412, Note_off_c, 0, 57, 41
1, 36417, Note_off_c, 0, 38, 38
1, 36684, Note_on_c, 0, 62, 22
1, 36685, Note_on_c, 0, 38, 17
1, 36694, Note_on_c, 0, 54, 16
1, 36711, Note_on_c, 0, 57, 14
1, 36944, Note_off_c, 0, 54, 41
1, 36977, Note_off_c, 0, 57, 41
1, 36994, Note_off_c, 0, 62, 37
1, 36999, Note_off_c, 0, 38, 35
1, 37098, Control_c, 0, 64, 113
1, 37113, Control_c, 0, 64, 107
1, 37127, Control_c, 0, 64, 103
1, 37142, Control_c, 0, 64, 102
1, 37157, Control_c, 0, 64, 100
1, 37171, Control_c, 0, 64, 99
1, 37186, Control_c, 0, 64, 96
1, 37209, Control_c, 0, 64, 92
1, 37224, Control_c, 0, 64, 88
1, 37239, Control_c, 0, 64, 87
1, 37239, Note_off_c, 0, 66, 32
1, 37268, Control_c, 0, 64, 86
1, 37283, Control_c, 0, 64, 82
1, 37298, Control_c, 0, 64, 78
1, 37313, Control_c, 0, 64, 75
1, 37327, Control_c, 0, 64, 74
1, 37358, Control_c, 0, 64, 73
1, 37373, Control_c, 0, 64, 72
1, 37388, Control_c, 0, 64, 69
1, 37403, Control_c, 0, 64, 67
1, 37448, Control_c, 0, 64, 67
1, 37462, Control_c, 0, 64, 65
1, 37477, Control_c, 0, 64, 64
1, 37492, Control_c, 0, 64, 63
1, 37537, Control_c, 0, 64, 63
1, 37551, Control_c, 0, 64, 61
1, 37566, Control_c, 0, 64, 59
1, 37581, Control_c, 0, 64, 57
1, 37596, Control_c, 0, 64, 57
1, 37610, Control_c, 0, 64, 56
1, 37625, Control_c, 0, 64, 54
1, 37640, Control_c, 0, 64, 50
1, 37655, Control_c, 0, 64, 45
1, 37660, Note_on_c, 0, 60, 36
1, 37670, Control_c, 0, 64, 44
1, 37684, Control_c, 0, 64, 46
1, 37699, Control_c, 0, 64, 49
1, 37714, Control_c, 0, 64, 52
1, 37729, Control_c, 0, 64, 55
1, 37744, Control_c, 0, 64, 57
1, 37758, Control_c, 0, 64, 59
1, 37773, Control_c, 0, 64, 61
1, 37788, Control_c, 0, 64, 63
1, 37802, Control_c, 0, 64, 65
1, 37817, Control_c, 0, 64, 67
1, 37832, Control_c, 0, 64, 70
1, 37847, Control_c, 0, 64, 73
1, 37856, Note_on_c, 0, 50, 28
1, 37862, Control_c, 0, 64, 80
1, 37877, Control_c, 0, 64, 86
1, 37892, Control_c, 0, 64, 93
1, 37907, Control_c, 0, 64, 100
1, 37921, Control_c, 0, 64, 110
1, 37923, Note_on_c, 0, 62, 41
1, 37936, Control_c, 0, 64, 127
1, 38033, Note_off_c, 0, 50, 44
1, 38082, Note_off_c, 0, 62, 53
1, 38097, Note_on_c, 0, 66, 51
1, 38230, Note_on_c, 0, 70, 59
1, 38237, Note_off_c, 0, 66, 54
1, 38238, Note_on_c, 0, 50, 38
1, 38357, Note_on_c, 0, 69, 75
1, 38392, Note_off_c, 0, 60, 33
1, 38403, Control_c, 0, 64, 112
1, 38418, Control_c, 0, 64, 106
1, 38421, Note_off_c, 0, 50, 39
1, 38425, Note_off_c, 0, 70, 39
1, 38432, Control_c, 0, 64, 101
1, 38447, Control_c, 0, 64, 97
1, 38462, Control_c, 0, 64, 94
1, 38477, Control_c, 0, 64, 90
1, 38492, Control_c, 0, 64, 86
1, 38502, Note_on_c, 0, 67, 77
1, 38506, Control_c, 0, 64, 83
1, 38521, Control_c, 0, 64, 80
1, 38536, Control_c, 0, 64, 76
1, 38551, Control_c, 0, 64, 73
1, 38566, Control_c, 0, 64, 70
1, 38571, Note_off_c, 0, 69, 52
1, 38580, Control_c, 0, 64, 67
1, 38595, Control_c, 0, 64, 66
1, 38610, Control_c, 0, 64, 65
1, 38625, Control_c, 0, 64, 63
1, 38640, Control_c, 0, 64, 60
1, 38655, Control_c, 0, 64, 52
1, 38670, Control_c, 0, 64, 42
1, 38685, Control_c, 0, 64, 40
1, 38736, Control_c, 0, 64, 40
1, 38751, Control_c, 0, 64, 41
1, 38766, Control_c, 0, 64, 45
1, 38780, Control_c, 0, 64, 49
1, 38795, Control_c, 0, 64, 52
1, 38810, Note_on_c, 0, 62, 45
1, 38810, Control_c, 0, 64, 55
1, 38820, Note_on_c, 0, 43, 34
1, 38825, Control_c, 0, 64, 58
1, 38837, Note_on_c, 0, 58, 40
1, 38840, Control_c, 0, 64, 62
1, 38855, Control_c, 0, 64, 65
1, 38869, Control_c, 0, 64, 68
1, 38884, Control_c, 0, 64, 73
1, 38899, Control_c, 0, 64, 83
1, 38914, Control_c, 0, 64, 96
1, 38929, Control_c, 0, 64, 127
1, 38967, Note_off_c, 0, 62, 59
1, 38969, Note_off_c, 0, 58, 55
1, 39004, Note_off_c, 0, 43, 39
1, 39147, Note_on_c, 0, 62, 46
1, 39149, Note_on_c, 0, 43, 39
1, 39158, Note_on_c, 0, 58, 46
1, 39213, Note_off_c, 0, 62, 51
1, 39221, Note_off_c, 0, 58, 60
1, 39242, Note_off_c, 0, 67, 58
1, 39288, Note_off_c, 0, 43, 37
1, 39559, Control_c, 0, 64, 116
1, 39574, Control_c, 0, 64, 105
1, 39588, Control_c, 0, 64, 97
1, 39600, Note_on_c, 0, 79, 67
1, 39603, Control_c, 0, 64, 92
1, 39618, Control_c, 0, 64, 89
1, 39633, Control_c, 0, 64, 89
1, 39648, Control_c, 0, 64, 88
1, 39662, Control_c, 0, 64, 86
1, 39677, Control_c, 0, 64, 83
1, 39692, Control_c, 0, 64, 80
1, 39707, Control_c, 0, 64, 78
1, 39722, Control_c, 0, 64, 77
1, 39736, Control_c, 0, 64, 76
1, 39752, Control_c, 0, 64, 75
1, 39767, Control_c, 0, 64, 73
1, 39782, Control_c, 0, 64, 72
1, 39796, Control_c, 0, 64, 71
1, 39811, Control_c, 0, 64, 70
1, 39826, Control_c, 0, 64, 69
1, 39841, Control_c, 0, 64, 68
1, 39856, Control_c, 0, 64, 67
1, 39870, Control_c, 0, 64, 66
1, 39885, Control_c, 0, 64, 66
1, 39915, Control_c, 0, 64, 65
1, 39930, Control_c, 0, 64, 64
1, 39944, Control_c, 0, 64, 63
1, 39959, Control_c, 0, 64, 63
1, 39974, Control_c, 0, 64, 61
1, 39975, Note_on_c, 0, 73, 43
1, 39989, Control_c, 0, 64, 59
1, 39994, Note_on_c, 0, 64, 40
1, 39998, Note_on_c, 0, 67, 35
1, 40004, Control_c, 0, 64, 52
1, 40009, Note_on_c, 0, 70, 29
1, 40018, Control_c, 0, 64, 47
1, 40033, Control_c, 0, 64, 48
1, 40048, Control_c, 0, 64, 49
1, 40063, Control_c, 0, 64, 50
1, 40077, Control_c, 0, 64, 53
1, 40092, Control_c, 0, 64, 56
1, 40107, Control_c, 0, 64, 59
1, 40122, Control_c, 0, 64, 62
1, 40137, Control_c, 0, 64, 64
1, 40151, Control_c, 0, 64, 68
1, 40158, Note_off_c, 0, 73, 62
1, 40159, Note_off_c, 0, 70, 57
1, 40163, Note_off_c, 0, 64, 57
1, 40166, Control_c, 0, 64, 72
1, 40167, Note_off_c, 0, 67, 57
1, 40181, Control_c, 0, 64, 79
1, 40203, Control_c, 0, 64, 89
1, 40218, Control_c, 0, 64, 96
1, 40233, Control_c, 0, 64, 101
1, 40248, Control_c, 0, 64, 105
1, 40263, Control_c, 0, 64, 108
1, 40277, Control_c, 0, 64, 110
1, 40292, Control_c, 0, 64, 113
1, 40307, Control_c, 0, 64, 116
1, 40309, Note_on_c, 0, 64, 49
1, 40311, Note_on_c, 0, 73, 56
1, 40322, Control_c, 0, 64, 118
1, 40325, Note_on_c, 0, 67, 48
1, 40337, Control_c, 0, 64, 119
1, 40339, Note_on_c, 0, 70, 49
1, 40411, Control_c, 0, 64, 118
1, 40425, Control_c, 0, 64, 116
1, 40438, Note_off_c, 0, 70, 60
1, 40440, Note_off_c, 0, 67, 55
1, 40469, Control_c, 0, 64, 114
1, 40471, Note_off_c, 0, 73, 62
1, 40484, Control_c, 0, 64, 112
1, 40499, Control_c, 0, 64, 110
1, 40514, Control_c, 0, 64, 108
1, 40529, Control_c, 0, 64, 107
1, 40544, Control_c, 0, 64, 106
1, 40560, Control_c, 0, 64, 102
1, 40574, Control_c, 0, 64, 99
1, 40586, Note_off_c, 0, 64, 37
1, 40589, Control_c, 0, 64, 97
1, 40604, Control_c, 0, 64, 95
1, 40616, Note_on_c, 0, 77, 72
1, 40619, Control_c, 0, 64, 93
1, 40633, Control_c, 0, 64, 91
1, 40648, Control_c, 0, 64, 89
1, 40663, Control_c, 0, 64, 86
1, 40678, Control_c, 0, 64, 81
1, 40692, Control_c, 0, 64, 78
1, 40706, Note_off_c, 0, 79, 57
1, 40707, Control_c, 0, 64, 75
1, 40722, Control_c, 0, 64, 74
1, 40737, Control_c, 0, 64, 72
1, 40752, Control_c, 0, 64, 70
1, 40766, Control_c, 0, 64, 68
1, 40781, Control_c, 0, 64, 66
1, 40796, Control_c, 0, 64, 65
1, 40811, Control_c, 0, 64, 64
1, 40825, Control_c, 0, 64, 64
1, 40840, Control_c, 0, 64, 62
1, 40855, Control_c, 0, 64, 59
1, 40870, Control_c, 0, 64, 53
1, 40885, Control_c, 0, 64, 48
1, 40899, Control_c, 0, 64, 45
1, 40923, Note_on_c, 0, 65, 44
1, 40928, Note_on_c, 0, 72, 38
1, 40929, Control_c, 0, 64, 44
1, 40950, Note_on_c, 0, 70, 39
1, 40952, Control_c, 0, 64, 45
1, 40967, Control_c, 0, 64, 48
1, 40981, Control_c, 0, 64, 52
1, 40996, Control_c, 0, 64, 55
1, 41011, Control_c, 0, 64, 57
1, 41025, Control_c, 0, 64, 60
1, 41040, Control_c, 0, 64, 64
1, 41055, Control_c, 0, 64, 67
1, 41070, Control_c, 0, 64, 71
1, 41085, Control_c, 0, 64, 78
1, 41099, Control_c, 0, 64, 88
1, 41111, Note_off_c, 0, 72, 60
1, 41114, Control_c, 0, 64, 100
1, 41115, Note_off_c, 0, 70, 57
1, 41129, Note_off_c, 0, 65, 56
1, 41129, Control_c, 0, 64, 127
1, 41278, Note_on_c, 0, 65, 47
1, 41290, Note_on_c, 0, 72, 49
1, 41291, Note_on_c, 0, 70, 48
1, 41376, Note_off_c, 0, 77, 58
1, 41442, Note_off_c, 0, 72, 61
1, 41462, Note_off_c, 0, 70, 36
1, 41485, Note_off_c, 0, 65, 47
1, 41713, Note_on_c, 0, 63, 67
1, 41746, Control_c, 0, 64, 121
1, 41761, Control_c, 0, 64, 113
1, 41776, Control_c, 0, 64, 111
1, 41791, Control_c, 0, 64, 107
1, 41805, Control_c, 0, 64, 103
1, 41820, Control_c, 0, 64, 100
1, 41835, Control_c, 0, 64, 98
1, 41849, Control_c, 0, 64, 97
1, 41864, Control_c, 0, 64, 97
1, 41879, Control_c, 0, 64, 93
1, 41894, Control_c, 0, 64, 88
1, 41909, Control_c, 0, 64, 84
1, 41923, Control_c, 0, 64, 83
1, 41948, Note_on_c, 0, 65, 70
1, 41983, Control_c, 0, 64, 84
1, 41993, Poly_aftertouch_c, 0, 71, 127
1, 42012, Control_c, 0, 64, 84
1, 42027, Control_c, 0, 64, 85
1, 42032, Poly_aftertouch_c, 0, 71, 0
1, 42041, Control_c, 0, 64, 86
1, 42056, Control_c, 0, 64, 88
1, 42071, Control_c, 0, 64, 90
1, 42086, Control_c, 0, 64, 93
1, 42089, Note_on_c, 0, 69, 76
1, 42092, Note_on_c, 0, 41, 50
1, 42101, Control_c, 0, 64, 96
1, 42116, Control_c, 0, 64, 100
1, 42131, Control_c, 0, 64, 103
1, 42134, Note_off_c, 0, 65, 59
1, 42146, Control_c, 0, 64, 113
1, 42161, Control_c, 0, 64, 127
1, 42216, Note_off_c, 0, 41, 53
1, 42217, Note_on_c, 0, 75, 83
1, 42326, Note_off_c, 0, 75, 60
1, 42384, Control_c, 0, 64, 110
1, 42388, Note_on_c, 0, 41, 40
1, 42399, Control_c, 0, 64, 100
1, 42414, Control_c, 0, 64, 96
1, 42428, Control_c, 0, 64, 91
1, 42449, Note_on_c, 0, 74, 74
1, 42450, Control_c, 0, 64, 85
1, 42465, Control_c, 0, 64, 77
1, 42479, Control_c, 0, 64, 68
1, 42494, Control_c, 0, 64, 60
1, 42509, Control_c, 0, 64, 45
1, 42524, Control_c, 0, 64, 33
1, 42539, Control_c, 0, 64, 32
1, 42554, Control_c, 0, 64, 34
1, 42569, Control_c, 0, 64, 40
1, 42584, Control_c, 0, 64, 48
1, 42599, Control_c, 0, 64, 55
1, 42613, Control_c, 0, 64, 60
1, 42628, Control_c, 0, 64, 65
1, 42632, Note_off_c, 0, 69, 59
1, 42643, Control_c, 0, 64, 69
1, 42658, Control_c, 0, 64, 75
1, 42672, Control_c, 0, 64, 84
1, 42687, Control_c, 0, 64, 97
1, 42702, Control_c, 0, 64, 121
1, 42717, Control_c, 0, 64, 127
1, 42724, Note_off_c, 0, 63, 36
1, 42793, Note_on_c, 0, 73, 83
1, 42806, Note_off_c, 0, 41, 42
1, 42821, Note_off_c, 0, 74, 62
1, 42855, Note_off_c, 0, 73, 64
1, 42894, Control_c, 0, 64, 112
1, 42909, Control_c, 0, 64, 107
1, 42922, Note_on_c, 0, 73, 81
1, 42924, Control_c, 0, 64, 103
1, 42940, Control_c, 0, 64, 98
1, 42955, Control_c, 0, 64, 92
1, 42969, Control_c, 0, 64, 87
1, 42984, Control_c, 0, 64, 82
1, 42999, Control_c, 0, 64, 77
1, 43014, Control_c, 0, 64, 74
1, 43029, Control_c, 0, 64, 72
1, 43043, Control_c, 0, 64, 70
1, 43058, Control_c, 0, 64, 68
1, 43073, Control_c, 0, 64, 66
1, 43087, Control_c, 0, 64, 65
1, 43102, Control_c, 0, 64, 63
1, 43117, Control_c, 0, 64, 61
1, 43132, Control_c, 0, 64, 60
1, 43147, Control_c, 0, 64, 58
1, 43162, Control_c, 0, 64, 53
1, 43177, Control_c, 0, 64, 41
1, 43199, Control_c, 0, 64, 31
1, 43214, Control_c, 0, 64, 32
1, 43229, Control_c, 0, 64, 35
1, 43230, Note_on_c, 0, 69, 50
1, 43244, Control_c, 0, 64, 41
1, 43245, Note_on_c, 0, 65, 44
1, 43254, Note_on_c, 0, 63, 47
1, 43255, Note_on_c, 0, 46, 44
1, 43258, Control_c, 0, 64, 47
1, 43273, Control_c, 0, 64, 51
1, 43288, Control_c, 0, 64, 55
1, 43302, Control_c, 0, 64, 59
1, 43317, Control_c, 0, 64, 62
1, 43332, Control_c, 0, 64, 64
1, 43347, Control_c, 0, 64, 67
1, 43362, Control_c, 0, 64, 72
1, 43377, Control_c, 0, 64, 81
1, 43391, Control_c, 0, 64, 95
1, 43403, Note_off_c, 0, 46, 56
1, 43406, Control_c, 0, 64, 127
1, 43413, Note_off_c, 0, 69, 58
1, 43414, Note_off_c, 0, 65, 57
1, 43447, Note_off_c, 0, 63, 42
1, 43544, Note_on_c, 0, 69, 66
1, 43550, Note_on_c, 0, 46, 49
1, 43558, Note_on_c, 0, 63, 55
1, 43558, Note_on_c, 0, 65, 54
1, 43666, Note_off_c, 0, 73, 50
1, 43672, Note_off_c, 0, 63, 61
1, 43719, Note_off_c, 0, 46, 52
1, 43789, Note_off_c, 0, 65, 30
1, 43837, Control_c, 0, 64, 116
1, 43838, Note_on_c, 0, 74, 80
1, 43852, Control_c, 0, 64, 103
1, 43866, Control_c, 0, 64, 97
1, 43881, Control_c, 0, 64, 93
1, 43889, Note_off_c, 0, 69, 60
1, 43896, Control_c, 0, 64, 89
1, 43910, Control_c, 0, 64, 86
1, 43925, Control_c, 0, 64, 81
1, 43948, Control_c, 0, 64, 75
1, 43963, Control_c, 0, 64, 71
1, 43978, Control_c, 0, 64, 69
1, 43992, Control_c, 0, 64, 68
1, 44007, Control_c, 0, 64, 67
1, 44022, Control_c, 0, 64, 65
1, 44037, Control_c, 0, 64, 61
1, 44051, Control_c, 0, 64, 57
1, 44066, Control_c, 0, 64, 56
1, 44081, Control_c, 0, 64, 55
1, 44096, Control_c, 0, 64, 53
1, 44111, Control_c, 0, 64, 49
1, 44125, Control_c, 0, 64, 43
1, 44140, Control_c, 0, 64, 38
1, 44155, Control_c, 0, 64, 39
1, 44164, Note_on_c, 0, 70, 46
1, 44166, Note_on_c, 0, 58, 61
1, 44170, Control_c, 0, 64, 44
1, 44175, Note_on_c, 0, 62, 40
1, 44178, Note_on_c, 0, 65, 36
1, 44185, Control_c, 0, 64, 50
1, 44199, Control_c, 0, 64, 56
1, 44214, Control_c, 0, 64, 59
1, 44229, Control_c, 0, 64, 63
1, 44244, Control_c, 0, 64, 66
1, 44259, Control_c, 0, 64, 72
1, 44274, Control_c, 0, 64, 82
1, 44289, Control_c, 0, 64, 102
1, 44304, Control_c, 0, 64, 127
1, 44319, Note_off_c, 0, 70, 38
1, 44332, Note_off_c, 0, 65, 54
1, 44334, Note_off_c, 0, 58, 55
1, 44354, Note_off_c, 0, 62, 38
1, 44497, Note_on_c, 0, 70, 42
1, 44506, Note_on_c, 0, 65, 35
1, 44509, Note_on_c, 0, 62, 36
1, 44519, Note_on_c, 0, 58, 46
1, 44601, Control_c, 0, 67, 14
1, 44608, Note_off_c, 0, 65, 60
1, 44611, Note_off_c, 0, 62, 46
1, 44615, Control_c, 0, 67, 28
1, 44617, Note_off_c, 0, 70, 59
1, 44630, Control_c, 0, 67, 39
1, 44645, Control_c, 0, 67, 50
1, 44659, Control_c, 0, 67, 61
1, 44674, Control_c, 0, 67, 75
1, 44697, Control_c, 0, 67, 89
1, 44712, Control_c, 0, 67, 103
1, 44727, Control_c, 0, 67, 119
1, 44741, Control_c, 0, 67, 127
1, 44830, Control_c, 0, 64, 110
1, 44845, Control_c, 0, 64, 101
1, 44860, Control_c, 0, 64, 93
1, 44874, Control_c, 0, 64, 87
1, 44876, Note_on_c, 0, 72, 51
1, 44889, Control_c, 0, 64, 83
1, 44896, Note_off_c, 0, 58, 37
1, 44904, Control_c, 0, 64, 79
1, 44919, Control_c, 0, 64, 75
1, 44934, Control_c, 0, 64, 72
1, 44948, Control_c, 0, 64, 69
1, 44963, Control_c, 0, 64, 68
1, 44978, Control_c, 0, 64, 66
1, 44989, Note_off_c, 0, 74, 56
1, 44993, Control_c, 0, 64, 64
1, 45008, Control_c, 0, 64, 63
1, 45022, Control_c, 0, 64, 62
1, 45037, Control_c, 0, 64, 60
1, 45052, Control_c, 0, 64, 58
1, 45067, Control_c, 0, 64, 55
1, 45082, Control_c, 0, 64, 53
1, 45097, Control_c, 0, 64, 50
1, 45111, Control_c, 0, 64, 46
1, 45126, Control_c, 0, 64, 39
1, 45141, Control_c, 0, 64, 30
1, 45171, Control_c, 0, 64, 34
1, 45186, Control_c, 0, 64, 41
1, 45201, Control_c, 0, 64, 47
1, 45215, Control_c, 0, 64, 52
1, 45230, Control_c, 0, 64, 58
1, 45245, Control_c, 0, 64, 62
1, 45260, Control_c, 0, 64, 64
1, 45264, Note_on_c, 0, 67, 27
1, 45274, Control_c, 0, 64, 67
1, 45289, Control_c, 0, 64, 70
1, 45290, Note_on_c, 0, 57, 24
1, 45304, Control_c, 0, 64, 75
1, 45308, Note_on_c, 0, 63, 21
1, 45319, Control_c, 0, 64, 82
1, 45335, Control_c, 0, 64, 91
1, 45350, Control_c, 0, 64, 100
1, 45364, Control_c, 0, 64, 118
1, 45379, Control_c, 0, 64, 127
1, 45472, Note_off_c, 0, 67, 40
1, 45473, Note_off_c, 0, 57, 42
1, 45478, Note_off_c, 0, 63, 40
1, 45710, Note_on_c, 0, 67, 27
1, 45747, Note_on_c, 0, 57, 19
1, 45758, Note_on_c, 0, 63, 13
1, 45976, Note_off_c, 0, 57, 40
1, 46002, Note_off_c, 0, 67, 39
1, 46013, Note_off_c, 0, 72, 37
1, 46023, Control_c, 0, 64, 118
1, 46038, Control_c, 0, 64, 110
1, 46053, Control_c, 0, 64, 105
1, 46058, Note_off_c, 0, 63, 35
1, 46068, Control_c, 0, 64, 102
1, 46083, Control_c, 0, 64, 101
1, 46097, Control_c, 0, 64, 99
1, 46112, Control_c, 0, 64, 96
1, 46127, Control_c, 0, 64, 92
1, 46143, Control_c, 0, 64, 89
1, 46158, Control_c, 0, 64, 87
1, 46173, Control_c, 0, 64, 86
1, 46194, Control_c, 0, 64, 85
1, 46209, Control_c, 0, 64, 81
1, 46224, Control_c, 0, 64, 78
1, 46239, Control_c, 0, 64, 75
1, 46254, Control_c, 0, 64, 73
1, 46268, Control_c, 0, 64, 72
1, 46283, Control_c, 0, 64, 71
1, 46298, Control_c, 0, 64, 70
1, 46313, Control_c, 0, 64, 69
1, 46328, Control_c, 0, 64, 67
1, 46343, Control_c, 0, 64, 66
1, 46357, Control_c, 0, 64, 66
1, 46387, Control_c, 0, 64, 65
1, 46402, Control_c, 0, 64, 64
1, 46417, Control_c, 0, 64, 64
1, 46447, Control_c, 0, 64, 63
1, 46461, Control_c, 0, 64, 63
1, 46476, Control_c, 0, 64, 62
1, 46491, Control_c, 0, 64, 61
1, 46506, Control_c, 0, 64, 61
1, 46520, Control_c, 0, 64, 60
1, 46535, Control_c, 0, 64, 60
1, 46550, Control_c, 0, 64, 58
1, 46565, Control_c, 0, 64, 55
1, 46580, Control_c, 0, 64, 52
1, 46609, Control_c, 0, 64, 53
1, 46624, Control_c, 0, 64, 55
1, 46638, Control_c, 0, 64, 57
1, 46647, Note_on_c, 0, 60, 36
1, 46653, Control_c, 0, 64, 59
1, 46668, Control_c, 0, 64, 61
1, 46683, Control_c, 0, 64, 63
1, 46698, Control_c, 0, 64, 65
1, 46712, Control_c, 0, 64, 67
1, 46727, Control_c, 0, 64, 69
1, 46742, Control_c, 0, 64, 72
1, 46757, Control_c, 0, 64, 75
1, 46772, Control_c, 0, 64, 78
1, 46787, Control_c, 0, 64, 83
1, 46802, Control_c, 0, 64, 89
1, 46816, Control_c, 0, 64, 95
1, 46831, Control_c, 0, 64, 102
1, 46846, Control_c, 0, 64, 111
1, 46861, Control_c, 0, 64, 127
1, 46877, Note_on_c, 0, 38, 22
1, 46920, Note_on_c, 0, 62, 35
1, 47078, Note_off_c, 0, 38, 37
1, 47107, Note_on_c, 0, 66, 47
1, 47116, Note_off_c, 0, 62, 40
1, 47258, Note_on_c, 0, 70, 59
1, 47258, Note_off_c, 0, 66, 56
1, 47273, Note_on_c, 0, 38, 26
1, 47388, Note_on_c, 0, 69, 65
1, 47417, Control_c, 0, 64, 118
1, 47432, Control_c, 0, 64, 112
1, 47447, Control_c, 0, 64, 106
1, 47460, Note_off_c, 0, 70, 38
1, 47461, Control_c, 0, 64, 100
1, 47476, Control_c, 0, 64, 94
1, 47491, Control_c, 0, 64, 89
1, 47506, Control_c, 0, 64, 84
1, 47521, Control_c, 0, 64, 80
1, 47523, Note_off_c, 0, 60, 35
1, 47524, Note_off_c, 0, 38, 32
1, 47535, Control_c, 0, 64, 77
1, 47548, Note_on_c, 0, 67, 66
1, 47550, Control_c, 0, 64, 73
1, 47565, Control_c, 0, 64, 70
1, 47580, Control_c, 0, 64, 68
1, 47595, Control_c, 0, 64, 66
1, 47609, Control_c, 0, 64, 65
1, 47624, Control_c, 0, 64, 64
1, 47639, Control_c, 0, 64, 62
1, 47654, Control_c, 0, 64, 59
1, 47669, Control_c, 0, 64, 53
1, 47691, Control_c, 0, 64, 41
1, 47695, Note_off_c, 0, 69, 30
1, 47706, Control_c, 0, 64, 24
1, 47721, Control_c, 0, 64, 23
1, 47737, Control_c, 0, 64, 28
1, 47752, Control_c, 0, 64, 35
1, 47766, Control_c, 0, 64, 42
1, 47781, Control_c, 0, 64, 48
1, 47796, Control_c, 0, 64, 54
1, 47811, Control_c, 0, 64, 58
1, 47826, Control_c, 0, 64, 60
1, 47840, Control_c, 0, 64, 62
1, 47855, Control_c, 0, 64, 64
1, 47868, Note_on_c, 0, 43, 33
1, 47868, Note_on_c, 0, 62, 39
1, 47870, Control_c, 0, 64, 66
1, 47882, Note_on_c, 0, 58, 36
1, 47885, Control_c, 0, 64, 69
1, 47899, Control_c, 0, 64, 73
1, 47914, Control_c, 0, 64, 78
1, 47929, Control_c, 0, 64, 86
1, 47944, Control_c, 0, 64, 94
1, 47959, Control_c, 0, 64, 106
1, 47973, Control_c, 0, 64, 127
1, 47991, Note_off_c, 0, 62, 58
1, 48005, Note_off_c, 0, 58, 54
1, 48040, Note_off_c, 0, 43, 36
1, 48203, Note_on_c, 0, 62, 40
1, 48211, Note_on_c, 0, 43, 30
1, 48222, Note_on_c, 0, 58, 36
1, 48268, Note_off_c, 0, 62, 57
1, 48289, Note_off_c, 0, 58, 58
1, 48292, Note_off_c, 0, 67, 54
1, 48339, Note_off_c, 0, 43, 45
1, 48418, Control_c, 0, 64, 118
1, 48440, Control_c, 0, 64, 113
1, 48455, Control_c, 0, 64, 109
1, 48470, Control_c, 0, 64, 104
1, 48484, Control_c, 0, 64, 99
1, 48499, Control_c, 0, 64, 95
1, 48514, Control_c, 0, 64, 92
1, 48529, Control_c, 0, 64, 89
1, 48545, Control_c, 0, 64, 86
1, 48560, Control_c, 0, 64, 84
1, 48575, Control_c, 0, 64, 82
1, 48589, Control_c, 0, 64, 80
1, 48604, Control_c, 0, 64, 76
1, 48611, Note_on_c, 0, 74, 53
1, 48619, Control_c, 0, 64, 74
1, 48634, Control_c, 0, 64, 72
1, 48649, Control_c, 0, 64, 71
1, 48663, Control_c, 0, 64, 69
1, 48678, Control_c, 0, 64, 67
1, 48693, Control_c, 0, 64, 66
1, 48707, Control_c, 0, 64, 65
1, 48737, Control_c, 0, 64, 64
1, 48752, Control_c, 0, 64, 63
1, 48767, Control_c, 0, 64, 62
1, 48782, Control_c, 0, 64, 61
1, 48796, Control_c, 0, 64, 61
1, 48811, Control_c, 0, 64, 60
1, 48826, Control_c, 0, 64, 60
1, 48841, Control_c, 0, 64, 58
1, 48856, Control_c, 0, 64, 56
1, 48870, Control_c, 0, 64, 55
1, 48885, Control_c, 0, 64, 54
1, 48915, Control_c, 0, 64, 54
1, 48930, Control_c, 0, 64, 53
1, 48945, Control_c, 0, 64, 53
1, 48960, Control_c, 0, 64, 54
1, 48975, Control_c, 0, 64, 55
1, 48989, Control_c, 0, 64, 56
1, 49004, Control_c, 0, 64, 57
1, 49019, Control_c, 0, 64, 58
1, 49034, Control_c, 0, 64, 59
1, 49047, Note_on_c, 0, 67, 28
1, 49049, Control_c, 0, 64, 61
1, 49063, Control_c, 0, 64, 63
1, 49078, Control_c, 0, 64, 64
1, 49082, Note_on_c, 0, 62, 20
1, 49088, Note_on_c, 0, 58, 38
1, 49093, Control_c, 0, 64, 65
1, 49107, Control_c, 0, 64, 67
1, 49122, Control_c, 0, 64, 70
1, 49137, Control_c, 0, 64, 74
1, 49152, Control_c, 0, 64, 78
1, 49167, Control_c, 0, 64, 83
1, 49189, Control_c, 0, 64, 89
1, 49204, Control_c, 0, 64, 96
1, 49219, Control_c, 0, 64, 105
1, 49234, Control_c, 0, 64, 127
1, 49241, Note_off_c, 0, 58, 51
1, 49263, Note_off_c, 0, 62, 41
1, 49264, Note_off_c, 0, 67, 42
1, 49417, Note_on_c, 0, 67, 43
1, 49428, Note_on_c, 0, 58, 46
1, 49441, Note_on_c, 0, 62, 30
1, 49617, Note_off_c, 0, 62, 28
1, 49664, Control_c, 0, 64, 115
1, 49678, Control_c, 0, 64, 108
1, 49693, Control_c, 0, 64, 104
1, 49708, Control_c, 0, 64, 102
1, 49723, Control_c, 0, 64, 99
1, 49732, Note_on_c, 0, 72, 54
1, 49738, Control_c, 0, 64, 92
1, 49753, Control_c, 0, 64, 85
1, 49759, Note_off_c, 0, 58, 28
1, 49767, Note_off_c, 0, 74, 54
1, 49768, Control_c, 0, 64, 80
1, 49782, Control_c, 0, 64, 76
1, 49797, Control_c, 0, 64, 74
1, 49801, Note_off_c, 0, 67, 42
1, 49812, Control_c, 0, 64, 72
1, 49827, Control_c, 0, 64, 69
1, 49842, Control_c, 0, 64, 66
1, 49856, Control_c, 0, 64, 64
1, 49871, Control_c, 0, 64, 64
1, 49886, Control_c, 0, 64, 63
1, 49901, Control_c, 0, 64, 63
1, 49916, Control_c, 0, 64, 61
1, 49938, Control_c, 0, 64, 57
1, 49952, Control_c, 0, 64, 55
1, 49967, Control_c, 0, 64, 55
1, 49982, Control_c, 0, 64, 54
1, 49997, Control_c, 0, 64, 53
1, 50012, Control_c, 0, 64, 50
1, 50027, Control_c, 0, 64, 47
1, 50042, Control_c, 0, 64, 49
1, 50057, Control_c, 0, 64, 52
1, 50071, Control_c, 0, 64, 56
1, 50086, Control_c, 0, 64, 59
1, 50087, Note_on_c, 0, 67, 31
1, 50101, Control_c, 0, 64, 62
1, 50101, Note_on_c, 0, 63, 25
1, 50108, Note_on_c, 0, 57, 29
1, 50116, Note_on_c, 0, 60, 26
1, 50116, Control_c, 0, 64, 64
1, 50131, Control_c, 0, 64, 66
1, 50146, Control_c, 0, 64, 68
1, 50161, Control_c, 0, 64, 73
1, 50175, Control_c, 0, 64, 80
1, 50190, Control_c, 0, 64, 87
1, 50205, Control_c, 0, 64, 94
1, 50220, Control_c, 0, 64, 104
1, 50234, Control_c, 0, 64, 127
1, 50258, Note_off_c, 0, 57, 33
1, 50268, Note_off_c, 0, 67, 36
1, 50286, Note_off_c, 0, 63, 40
1, 50290, Note_off_c, 0, 60, 41
1, 50538, Note_on_c, 0, 63, 22
1, 50538, Note_on_c, 0, 67, 30
1, 50555, Note_on_c, 0, 57, 23
1, 50562, Note_on_c, 0, 60, 25
1, 50835, Note_off_c, 0, 72, 34
1, 50849, Note_off_c, 0, 60, 36
1, 50859, Note_off_c, 0, 67, 39
1, 50868, Note_off_c, 0, 57, 42
1, 50879, Control_c, 0, 64, 119
1, 50893, Control_c, 0, 64, 116
1, 50908, Control_c, 0, 64, 112
1, 50922, Control_c, 0, 64, 111
1, 50938, Control_c, 0, 64, 110
1, 50953, Control_c, 0, 64, 110
1, 50968, Control_c, 0, 64, 108
1, 50982, Control_c, 0, 64, 106
1, 50997, Control_c, 0, 64, 102
1, 51012, Control_c, 0, 64, 101
1, 51027, Control_c, 0, 64, 100
1, 51042, Control_c, 0, 64, 98
1, 51056, Control_c, 0, 64, 96
1, 51071, Control_c, 0, 64, 94
1, 51086, Control_c, 0, 64, 92
1, 51100, Control_c, 0, 64, 90
1, 51115, Note_off_c, 0, 63, 37
1, 51115, Control_c, 0, 64, 89
1, 51130, Control_c, 0, 64, 86
1, 51145, Control_c, 0, 64, 82
1, 51160, Control_c, 0, 64, 79
1, 51175, Control_c, 0, 64, 76
1, 51189, Control_c, 0, 64, 75
1, 51204, Control_c, 0, 64, 73
1, 51219, Control_c, 0, 64, 71
1, 51234, Control_c, 0, 64, 69
1, 51249, Control_c, 0, 64, 67
1, 51264, Control_c, 0, 64, 66
1, 51279, Control_c, 0, 64, 65
1, 51294, Control_c, 0, 64, 64
1, 51308, Control_c, 0, 64, 64
1, 51323, Control_c, 0, 64, 63
1, 51382, Control_c, 0, 64, 62
1, 51397, Control_c, 0, 64, 61
1, 51412, Control_c, 0, 64, 60
1, 51434, Control_c, 0, 64, 58
1, 51449, Control_c, 0, 64, 57
1, 51464, Control_c, 0, 64, 55
1, 51479, Control_c, 0, 64, 52
1, 51485, Note_on_c, 0, 60, 47
1, 51494, Control_c, 0, 64, 51
1, 51508, Control_c, 0, 64, 52
1, 51523, Control_c, 0, 64, 53
1, 51538, Control_c, 0, 64, 55
1, 51553, Control_c, 0, 64, 57
1, 51568, Control_c, 0, 64, 58
1, 51582, Control_c, 0, 64, 59
1, 51597, Control_c, 0, 64, 61
1, 51612, Control_c, 0, 64, 62
1, 51627, Control_c, 0, 64, 63
1, 51642, Control_c, 0, 64, 64
1, 51656, Control_c, 0, 64, 66
1, 51671, Control_c, 0, 64, 67
1, 51675, Note_on_c, 0, 38, 22
1, 51686, Control_c, 0, 64, 69
1, 51701, Control_c, 0, 64, 73
1, 51715, Control_c, 0, 64, 77
1, 51728, Note_on_c, 0, 62, 43
1, 51731, Control_c, 0, 64, 81
1, 51746, Control_c, 0, 64, 86
1, 51761, Control_c, 0, 64, 92
1, 51776, Control_c, 0, 64, 101
1, 51791, Control_c, 0, 64, 119
1, 51805, Control_c, 0, 64, 127
1, 51875, Note_off_c, 0, 38, 38
1, 51908, Note_on_c, 0, 66, 58
1, 51965, Note_off_c, 0, 62, 47
1, 52054, Note_on_c, 0, 70, 66
1, 52069, Note_on_c, 0, 38, 38
1, 52081, Note_off_c, 0, 66, 58
1, 52194, Note_on_c, 0, 69, 74
1, 52227, Control_c, 0, 64, 116
1, 52242, Control_c, 0, 64, 108
1, 52244, Note_off_c, 0, 70, 53
1, 52257, Control_c, 0, 64, 103
1, 52272, Control_c, 0, 64, 100
1, 52286, Control_c, 0, 64, 97
1, 52301, Note_off_c, 0, 60, 37
1, 52301, Control_c, 0, 64, 91
1, 52307, Note_off_c, 0, 38, 36
1, 52316, Control_c, 0, 64, 85
1, 52331, Control_c, 0, 64, 80
1, 52346, Control_c, 0, 64, 76
1, 52353, Note_on_c, 0, 67, 74
1, 52361, Control_c, 0, 64, 72
1, 52376, Control_c, 0, 64, 70
1, 52391, Control_c, 0, 64, 68
1, 52405, Control_c, 0, 64, 66
1, 52417, Note_off_c, 0, 69, 55
1, 52421, Control_c, 0, 64, 64
1, 52436, Control_c, 0, 64, 62
1, 52450, Control_c, 0, 64, 59
1, 52465, Control_c, 0, 64, 56
1, 52480, Control_c, 0, 64, 52
1, 52495, Control_c, 0, 64, 41
1, 52510, Control_c, 0, 64, 12
1, 52525, Control_c, 0, 64, 0
1, 52570, Control_c, 0, 64, 18
1, 52585, Control_c, 0, 64, 31
1, 52599, Control_c, 0, 64, 39
1, 52614, Control_c, 0, 64, 47
1, 52629, Control_c, 0, 64, 55
1, 52644, Control_c, 0, 64, 59
1, 52659, Control_c, 0, 64, 61
1, 52668, Note_on_c, 0, 43, 40
1, 52674, Note_on_c, 0, 62, 38
1, 52674, Control_c, 0, 64, 63
1, 52689, Control_c, 0, 64, 65
1, 52692, Note_on_c, 0, 58, 34
1, 52703, Control_c, 0, 64, 68
1, 52718, Control_c, 0, 64, 72
1, 52733, Control_c, 0, 64, 78
1, 52748, Control_c, 0, 64, 85
1, 52762, Control_c, 0, 64, 95
1, 52777, Control_c, 0, 64, 127
1, 52836, Note_off_c, 0, 62, 52
1, 52868, Note_off_c, 0, 58, 43
1, 52875, Note_off_c, 0, 43, 40
1, 52993, Note_on_c, 0, 43, 45
1, 52996, Note_on_c, 0, 62, 42
1, 53001, Note_on_c, 0, 58, 44
1, 53118, Note_off_c, 0, 62, 45
1, 53214, Control_c, 0, 64, 118
1, 53228, Control_c, 0, 64, 111
1, 53243, Control_c, 0, 64, 107
1, 53258, Note_off_c, 0, 43, 37
1, 53258, Control_c, 0, 64, 104
1, 53273, Control_c, 0, 64, 100
1, 53288, Control_c, 0, 64, 95
1, 53299, Note_on_c, 0, 64, 69
1, 53303, Control_c, 0, 64, 89
1, 53318, Control_c, 0, 64, 83
1, 53333, Control_c, 0, 64, 78
1, 53342, Note_off_c, 0, 67, 59
1, 53348, Control_c, 0, 64, 76
1, 53363, Control_c, 0, 64, 74
1, 53377, Control_c, 0, 64, 71
1, 53392, Control_c, 0, 64, 67
1, 53407, Control_c, 0, 64, 64
1, 53422, Control_c, 0, 64, 63
1, 53437, Control_c, 0, 64, 62
1, 53443, Note_off_c, 0, 58, 38
1, 53452, Control_c, 0, 64, 60
1, 53467, Control_c, 0, 64, 56
1, 53482, Control_c, 0, 64, 47
1, 53497, Control_c, 0, 64, 40
1, 53512, Control_c, 0, 64, 42
1, 53526, Control_c, 0, 64, 44
1, 53541, Control_c, 0, 64, 46
1, 53556, Control_c, 0, 64, 49
1, 53571, Control_c, 0, 64, 51
1, 53585, Control_c, 0, 64, 54
1, 53600, Control_c, 0, 64, 58
1, 53602, Note_on_c, 0, 45, 37
1, 53615, Control_c, 0, 64, 62
1, 53616, Note_on_c, 0, 61, 41
1, 53624, Note_on_c, 0, 57, 36
1, 53627, Note_on_c, 0, 55, 44
1, 53630, Control_c, 0, 64, 63
1, 53645, Control_c, 0, 64, 65
1, 53659, Control_c, 0, 64, 67
1, 53682, Control_c, 0, 64, 72
1, 53696, Control_c, 0, 64, 79
1, 53711, Control_c, 0, 64, 89
1, 53726, Control_c, 0, 64, 99
1, 53741, Control_c, 0, 64, 111
1, 53756, Control_c, 0, 64, 127
1, 53792, Note_off_c, 0, 45, 58
1, 53807, Note_off_c, 0, 55, 54
1, 53811, Note_off_c, 0, 61, 53
1, 53817, Note_off_c, 0, 57, 49
1, 53955, Note_on_c, 0, 45, 35
1, 53957, Note_on_c, 0, 61, 46
1, 53979, Note_on_c, 0, 57, 18
1, 53985, Note_on_c, 0, 55, 42
1, 54171, Control_c, 0, 64, 123
1, 54186, Control_c, 0, 64, 115
1, 54200, Control_c, 0, 64, 108
1, 54209, Note_off_c, 0, 57, 43
1, 54209, Note_off_c, 0, 45, 32
1, 54212, Note_off_c, 0, 55, 40
1, 54215, Control_c, 0, 64, 101
1, 54230, Control_c, 0, 64, 96
1, 54245, Control_c, 0, 64, 92
1, 54260, Control_c, 0, 64, 88
1, 54275, Control_c, 0, 64, 84
1, 54281, Note_on_c, 0, 66, 49
1, 54290, Control_c, 0, 64, 80
1, 54305, Control_c, 0, 64, 76
1, 54309, Note_off_c, 0, 64, 46
1, 54319, Control_c, 0, 64, 73
1, 54334, Control_c, 0, 64, 70
1, 54349, Control_c, 0, 64, 67
1, 54363, Note_off_c, 0, 61, 42
1, 54364, Control_c, 0, 64, 66
1, 54379, Control_c, 0, 64, 65
1, 54394, Control_c, 0, 64, 63
1, 54408, Control_c, 0, 64, 62
1, 54430, Control_c, 0, 64, 61
1, 54445, Control_c, 0, 64, 60
1, 54460, Control_c, 0, 64, 58
1, 54475, Control_c, 0, 64, 54
1, 54489, Control_c, 0, 64, 48
1, 54504, Control_c, 0, 64, 44
1, 54519, Control_c, 0, 64, 43
1, 54534, Control_c, 0, 64, 43
1, 54549, Control_c, 0, 64, 42
1, 54564, Control_c, 0, 64, 41
1, 54579, Control_c, 0, 64, 43
1, 54594, Control_c, 0, 64, 46
1, 54608, Control_c, 0, 64, 49
1, 54623, Control_c, 0, 64, 52
1, 54638, Control_c, 0, 64, 56
1, 54653, Control_c, 0, 64, 59
1, 54668, Control_c, 0, 64, 62
1, 54671, Note_on_c, 0, 62, 35
1, 54672, Note_on_c, 0, 38, 21
1, 54682, Control_c, 0, 64, 64
1, 54694, Note_on_c, 0, 57, 22
1, 54697, Control_c, 0, 64, 66
1, 54701, Note_on_c, 0, 54, 20
1, 54712, Control_c, 0, 64, 68
1, 54726, Control_c, 0, 64, 73
1, 54741, Control_c, 0, 64, 80
1, 54756, Control_c, 0, 64, 88
1, 54771, Control_c, 0, 64, 98
1, 54786, Control_c, 0, 64, 112
1, 54800, Control_c, 0, 64, 127
1, 54855, Note_off_c, 0, 62, 42
1, 54883, Note_off_c, 0, 54, 43
1, 54888, Note_off_c, 0, 57, 41
1, 54896, Note_off_c, 0, 38, 37
1, 55134, Note_on_c, 0, 62, 28
1, 55141, Note_on_c, 0, 38, 5
1, 55155, Note_on_c, 0, 54, 14
1, 55159, Note_on_c, 0, 57, 8
1, 55363, Note_off_c, 0, 54, 42
1, 55416, Note_off_c, 0, 57, 43
1, 55458, Note_off_c, 0, 62, 40
1, 55460, Control_c, 0, 64, 123
1, 55475, Control_c, 0, 64, 116
1, 55490, Control_c, 0, 64, 111
1, 55504, Control_c, 0, 64, 109
1, 55519, Control_c, 0, 64, 107
1, 55524, Note_off_c, 0, 38, 36
1, 55534, Control_c, 0, 64, 105
1, 55548, Control_c, 0, 64, 103
1, 55548, Control_c, 0, 67, 119
1, 55563, Control_c, 0, 64, 100
1, 55563, Control_c, 0, 67, 110
1, 55578, Control_c, 0, 64, 98
1, 55578, Control_c, 0, 67, 101
1, 55593, Control_c, 0, 64, 96
1, 55593, Control_c, 0, 67, 92
1, 55608, Control_c, 0, 64, 96
1, 55608, Control_c, 0, 67, 85
1, 55622, Control_c, 0, 64, 95
1, 55622, Control_c, 0, 67, 77
1, 55637, Control_c, 0, 64, 94
1, 55637, Control_c, 0, 67, 69
1, 55652, Control_c, 0, 64, 91
1, 55652, Control_c, 0, 67, 60
1, 55667, Control_c, 0, 64, 89
1, 55667, Control_c, 0, 67, 51
1, 55682, Control_c, 0, 64, 88
1, 55682, Control_c, 0, 67, 42
1, 55685, Note_off_c, 0, 66, 36
1, 55697, Control_c, 0, 64, 87
1, 55697, Control_c, 0, 67, 35
1, 55712, Control_c, 0, 64, 85
1, 55712, Control_c, 0, 67, 27
1, 55727, Control_c, 0, 64, 82
1, 55727, Control_c, 0, 67, 19
1, 55742, Control_c, 0, 64, 80
1, 55742, Control_c, 0, 67, 8
1, 55757, Control_c, 0, 64, 78
1, 55757, Control_c, 0, 67, 0
1, 55771, Control_c, 0, 64, 77
1, 55786, Control_c, 0, 64, 75
1, 55801, Control_c, 0, 64, 74
1, 55816, Control_c, 0, 64, 72
1, 55831, Control_c, 0, 64, 70
1, 55846, Control_c, 0, 64, 68
1, 55861, Control_c, 0, 64, 67
1, 55875, Control_c, 0, 64, 66
1, 55890, Control_c, 0, 64, 65
1, 55905, Control_c, 0, 64, 64
1, 55927, Control_c, 0, 64, 63
1, 55957, Control_c, 0, 64, 62
1, 55970, Note_on_c, 0, 60, 50
1, 55972, Control_c, 0, 64, 61
1, 55986, Control_c, 0, 64, 59
1, 56001, Control_c, 0, 64, 55
1, 56016, Control_c, 0, 64, 51
1, 56031, Control_c, 0, 64, 49
1, 56045, Control_c, 0, 64, 48
1, 56060, Control_c, 0, 64, 47
1, 56090, Control_c, 0, 64, 48
1, 56105, Control_c, 0, 64, 49
1, 56120, Control_c, 0, 64, 52
1, 56135, Control_c, 0, 64, 54
1, 56150, Control_c, 0, 64, 55
1, 56165, Control_c, 0, 64, 56
1, 56168, Note_on_c, 0, 50, 35
1, 56180, Control_c, 0, 64, 58
1, 56194, Control_c, 0, 64, 59
1, 56209, Control_c, 0, 64, 61
1, 56224, Control_c, 0, 64, 63
1, 56239, Note_on_c, 0, 62, 50
1, 56239, Control_c, 0, 64, 64
1, 56254, Control_c, 0, 64, 66
1, 56269, Control_c, 0, 64, 68
1, 56284, Control_c, 0, 64, 71
1, 56299, Control_c, 0, 64, 76
1, 56314, Control_c, 0, 64, 87
1, 56328, Control_c, 0, 64, 110
1, 56343, Control_c, 0, 64, 127
1, 56405, Note_off_c, 0, 50, 40
1, 56430, Note_on_c, 0, 66, 69
1, 56451, Note_off_c, 0, 62, 58
1, 56564, Note_on_c, 0, 50, 53
1, 56564, Note_on_c, 0, 70, 74
1, 56581, Note_off_c, 0, 66, 60
1, 56689, Note_on_c, 0, 69, 83
1, 56720, Note_off_c, 0, 70, 62
1, 56751, Note_off_c, 0, 69, 61
1, 56838, Note_on_c, 0, 67, 86
1, 56844, Note_off_c, 0, 50, 58
1, 56853, Note_off_c, 0, 60, 52
1, 56869, Control_c, 0, 64, 112
1, 56884, Control_c, 0, 64, 100
1, 56899, Control_c, 0, 64, 94
1, 56914, Control_c, 0, 64, 91
1, 56928, Control_c, 0, 64, 86
1, 56943, Control_c, 0, 64, 81
1, 56958, Control_c, 0, 64, 76
1, 56973, Control_c, 0, 64, 72
1, 56988, Control_c, 0, 64, 70
1, 57002, Control_c, 0, 64, 68
1, 57017, Control_c, 0, 64, 66
1, 57032, Control_c, 0, 64, 64
1, 57047, Control_c, 0, 64, 61
1, 57062, Control_c, 0, 64, 56
1, 57077, Control_c, 0, 64, 51
1, 57092, Control_c, 0, 64, 44
1, 57107, Control_c, 0, 64, 33
1, 57117, Note_on_c, 0, 65, 65
1, 57121, Control_c, 0, 64, 15
1, 57131, Note_on_c, 0, 55, 55
1, 57136, Control_c, 0, 64, 0
1, 57145, Note_on_c, 0, 59, 47
1, 57148, Note_on_c, 0, 62, 50
1, 57166, Control_c, 0, 64, 25
1, 57181, Control_c, 0, 64, 39
1, 57195, Control_c, 0, 64, 49
1, 57210, Control_c, 0, 64, 57
1, 57225, Control_c, 0, 64, 63
1, 57240, Control_c, 0, 64, 69
1, 57255, Control_c, 0, 64, 79
1, 57269, Control_c, 0, 64, 98
1, 57284, Control_c, 0, 64, 127
1, 57303, Note_off_c, 0, 59, 60
1, 57303, Note_off_c, 0, 62, 62
1, 57309, Note_off_c, 0, 65, 61
1, 57319, Note_off_c, 0, 55, 59
1, 57426, Note_on_c, 0, 65, 75
1, 57434, Note_on_c, 0, 55, 65
1, 57443, Note_on_c, 0, 59, 55
1, 57445, Note_on_c, 0, 62, 60
1, 57543, Note_off_c, 0, 59, 60
1, 57560, Note_off_c, 0, 62, 59
1, 57582, Note_off_c, 0, 67, 60
1, 57597, Note_off_c, 0, 65, 59
1, 57718, Note_off_c, 0, 55, 47
1, 57848, Note_on_c, 0, 79, 75
1, 57885, Control_c, 0, 64, 108
1, 57899, Control_c, 0, 64, 99
1, 57914, Control_c, 0, 64, 94
1, 57929, Control_c, 0, 64, 91
1, 57944, Control_c, 0, 64, 88
1, 57959, Control_c, 0, 64, 85
1, 57974, Control_c, 0, 64, 84
1, 57989, Control_c, 0, 64, 82
1, 58004, Control_c, 0, 64, 81
1, 58018, Control_c, 0, 64, 79
1, 58033, Control_c, 0, 64, 76
1, 58048, Control_c, 0, 64, 75
1, 58063, Control_c, 0, 64, 74
1, 58078, Control_c, 0, 64, 74
1, 58092, Control_c, 0, 64, 72
1, 58107, Control_c, 0, 64, 70
1, 58123, Control_c, 0, 64, 69
1, 58138, Control_c, 0, 64, 68
1, 58153, Control_c, 0, 64, 67
1, 58174, Control_c, 0, 64, 66
1, 58189, Control_c, 0, 64, 64
1, 58204, Control_c, 0, 64, 61
1, 58219, Control_c, 0, 64, 60
1, 58226, Note_on_c, 0, 43, 36
1, 58233, Note_on_c, 0, 74, 54
1, 58248, Note_on_c, 0, 71, 50
1, 58272, Note_on_c, 0, 65, 42
1, 58275, Note_on_c, 0, 67, 46
1, 58278, Control_c, 0, 64, 61
1, 58293, Control_c, 0, 64, 61
1, 58308, Control_c, 0, 64, 63
1, 58323, Control_c, 0, 64, 64
1, 58338, Control_c, 0, 64, 66
1, 58353, Control_c, 0, 64, 70
1, 58367, Control_c, 0, 64, 77
1, 58382, Control_c, 0, 64, 89
1, 58397, Control_c, 0, 64, 109
1, 58412, Control_c, 0, 64, 127
1, 58416, Note_off_c, 0, 65, 61
1, 58416, Note_off_c, 0, 67, 62
1, 58421, Note_off_c, 0, 71, 64
1, 58424, Note_off_c, 0, 43, 38
1, 58436, Note_off_c, 0, 74, 63
1, 58556, Note_on_c, 0, 74, 72
1, 58562, Note_on_c, 0, 43, 45
1, 58580, Note_on_c, 0, 71, 62
1, 58584, Note_on_c, 0, 67, 49
1, 58591, Note_on_c, 0, 65, 62
1, 58713, Note_off_c, 0, 79, 58
1, 58729, Note_off_c, 0, 43, 54
1, 58735, Note_off_c, 0, 65, 55
1, 58740, Note_off_c, 0, 67, 56
1, 58749, Note_off_c, 0, 71, 61
1, 58761, Note_off_c, 0, 74, 62
1, 58867, Note_on_c, 0, 79, 77
1, 58871, Control_c, 0, 64, 112
1, 58886, Control_c, 0, 64, 102
1, 58901, Control_c, 0, 64, 95
1, 58924, Control_c, 0, 64, 93
1, 58939, Control_c, 0, 64, 91
1, 58953, Control_c, 0, 64, 89
1, 58968, Control_c, 0, 64, 84
1, 58983, Control_c, 0, 64, 79
1, 58997, Control_c, 0, 64, 76
1, 59012, Control_c, 0, 64, 73
1, 59027, Control_c, 0, 64, 72
1, 59042, Control_c, 0, 64, 70
1, 59057, Control_c, 0, 64, 68
1, 59071, Control_c, 0, 64, 66
1, 59086, Control_c, 0, 64, 65
1, 59101, Control_c, 0, 64, 64
1, 59116, Control_c, 0, 64, 62
1, 59131, Control_c, 0, 64, 59
1, 59146, Control_c, 0, 64, 50
1, 59160, Control_c, 0, 64, 30
1, 59166, Note_on_c, 0, 48, 46
1, 59175, Control_c, 0, 64, 0
1, 59175, Note_on_c, 0, 75, 50
1, 59181, Note_on_c, 0, 36, 39
1, 59183, Note_on_c, 0, 72, 40
1, 59188, Note_on_c, 0, 67, 40
1, 59204, Control_c, 0, 64, 17
1, 59219, Control_c, 0, 64, 33
1, 59234, Control_c, 0, 64, 47
1, 59249, Control_c, 0, 64, 57
1, 59264, Control_c, 0, 64, 64
1, 59278, Control_c, 0, 64, 69
1, 59293, Control_c, 0, 64, 83
1, 59308, Control_c, 0, 64, 127
1, 59336, Note_off_c, 0, 36, 60
1, 59348, Note_off_c, 0, 48, 62
1, 59357, Note_off_c, 0, 67, 57
1, 59366, Note_off_c, 0, 75, 58
1, 59373, Note_off_c, 0, 72, 61
1, 59557, Note_on_c, 0, 55, 45
1, 59557, Note_on_c, 0, 75, 48
1, 59578, Note_on_c, 0, 72, 38
1, 59581, Note_off_c, 0, 79, 59
1, 59587, Note_on_c, 0, 67, 41
1, 59634, Note_off_c, 0, 75, 61
1, 59646, Note_off_c, 0, 72, 63
1, 59727, Note_off_c, 0, 67, 57
1, 59736, Note_off_c, 0, 55, 54
1, 59900, Note_on_c, 0, 74, 74
1, 59983, Control_c, 0, 64, 112
1, 59998, Control_c, 0, 64, 106
1, 60013, Control_c, 0, 64, 103
1, 60027, Control_c, 0, 64, 101
1, 60042, Control_c, 0, 64, 97
1, 60057, Control_c, 0, 64, 93
1, 60072, Control_c, 0, 64, 89
1, 60087, Control_c, 0, 64, 85
1, 60101, Control_c, 0, 64, 80
1, 60116, Control_c, 0, 64, 76
1, 60131, Control_c, 0, 64, 71
1, 60145, Control_c, 0, 64, 67
1, 60160, Control_c, 0, 64, 63
1, 60174, Note_on_c, 0, 50, 68
1, 60175, Control_c, 0, 64, 57
1, 60186, Note_on_c, 0, 67, 53
1, 60190, Control_c, 0, 64, 52
1, 60192, Note_on_c, 0, 38, 54
1, 60199, Note_on_c, 0, 62, 47
1, 60205, Control_c, 0, 64, 50
1, 60219, Control_c, 0, 64, 53
1, 60234, Control_c, 0, 64, 56
1, 60249, Control_c, 0, 64, 61
1, 60264, Control_c, 0, 64, 65
1, 60279, Control_c, 0, 64, 72
1, 60293, Control_c, 0, 64, 89
1, 60308, Control_c, 0, 64, 127
1, 60318, Note_off_c, 0, 38, 57
1, 60347, Note_off_c, 0, 50, 62
1, 60351, Note_off_c, 0, 62, 60
1, 60358, Note_off_c, 0, 67, 60
1, 60491, Note_on_c, 0, 55, 69
1, 60493, Note_on_c, 0, 67, 69
1, 60502, Note_on_c, 0, 62, 57
1, 60600, Note_off_c, 0, 74, 57
1, 60634, Note_off_c, 0, 55, 59
1, 60773, Note_on_c, 0, 72, 88
1, 60850, Note_off_c, 0, 67, 57
1, 60850, Control_c, 0, 64, 113
1, 60865, Control_c, 0, 64, 104
1, 60874, Note_off_c, 0, 62, 47
1, 60880, Control_c, 0, 64, 99
1, 60895, Control_c, 0, 64, 94
1, 60910, Control_c, 0, 64, 90
1, 60924, Control_c, 0, 64, 86
1, 60939, Control_c, 0, 64, 81
1, 60954, Control_c, 0, 64, 76
1, 60968, Control_c, 0, 64, 68
1, 60983, Control_c, 0, 64, 64
1, 60998, Control_c, 0, 64, 61
1, 61013, Control_c, 0, 64, 59
1, 61028, Control_c, 0, 64, 54
1, 61038, Note_on_c, 0, 51, 76
1, 61042, Control_c, 0, 64, 44
1, 61053, Note_on_c, 0, 39, 59
1, 61054, Note_on_c, 0, 67, 60
1, 61057, Control_c, 0, 64, 29
1, 61063, Note_on_c, 0, 60, 50
1, 61072, Control_c, 0, 64, 31
1, 61087, Control_c, 0, 64, 40
1, 61102, Control_c, 0, 64, 50
1, 61116, Control_c, 0, 64, 58
1, 61131, Control_c, 0, 64, 64
1, 61146, Control_c, 0, 64, 71
1, 61168, Control_c, 0, 64, 83
1, 61183, Control_c, 0, 64, 111
1, 61198, Control_c, 0, 64, 127
1, 61208, Note_off_c, 0, 39, 60
1, 61212, Note_off_c, 0, 51, 63
1, 61213, Note_off_c, 0, 67, 59
1, 61218, Note_off_c, 0, 60, 61
1, 61345, Note_on_c, 0, 55, 66
1, 61354, Note_on_c, 0, 67, 61
1, 61364, Note_on_c, 0, 60, 57
1, 61386, Note_off_c, 0, 72, 61
1, 61414, Note_off_c, 0, 67, 61
1, 61529, Note_off_c, 0, 55, 57
1, 61598, Control_c, 0, 64, 121
1, 61613, Control_c, 0, 64, 112
1, 61628, Control_c, 0, 64, 107
1, 61643, Control_c, 0, 64, 102
1, 61646, Note_on_c, 0, 67, 69
1, 61657, Control_c, 0, 64, 99
1, 61672, Control_c, 0, 64, 95
1, 61687, Control_c, 0, 64, 92
1, 61700, Note_off_c, 0, 60, 36
1, 61702, Control_c, 0, 64, 89
1, 61717, Control_c, 0, 64, 84
1, 61732, Control_c, 0, 64, 79
1, 61746, Control_c, 0, 64, 76
1, 61761, Control_c, 0, 64, 74
1, 61776, Control_c, 0, 64, 73
1, 61790, Control_c, 0, 64, 73
1, 61805, Control_c, 0, 64, 70
1, 61820, Control_c, 0, 64, 68
1, 61835, Control_c, 0, 64, 66
1, 61850, Control_c, 0, 64, 65
1, 61864, Control_c, 0, 64, 65
1, 61879, Control_c, 0, 64, 64
1, 61894, Control_c, 0, 64, 60
1, 61917, Control_c, 0, 64, 53
1, 61932, Control_c, 0, 64, 39
1, 61946, Control_c, 0, 64, 23
1, 61952, Note_on_c, 0, 50, 35
1, 61957, Note_on_c, 0, 38, 32
1, 61961, Control_c, 0, 64, 20
1, 61965, Note_on_c, 0, 62, 42
1, 61976, Control_c, 0, 64, 23
1, 61981, Note_on_c, 0, 58, 37
1, 61990, Control_c, 0, 64, 36
1, 62005, Control_c, 0, 64, 47
1, 62020, Control_c, 0, 64, 57
1, 62035, Control_c, 0, 64, 63
1, 62050, Control_c, 0, 64, 68
1, 62056, Note_off_c, 0, 38, 53
1, 62064, Control_c, 0, 64, 75
1, 62079, Control_c, 0, 64, 91
1, 62094, Control_c, 0, 64, 121
1, 62109, Control_c, 0, 64, 127
1, 62123, Note_off_c, 0, 62, 59
1, 62127, Note_off_c, 0, 58, 57
1, 62290, Note_on_c, 0, 55, 33
1, 62323, Note_on_c, 0, 62, 37
1, 62334, Note_on_c, 0, 58, 39
1, 62386, Note_off_c, 0, 55, 57
1, 62405, Note_off_c, 0, 58, 58
1, 62413, Note_off_c, 0, 62, 54
1, 62484, Note_off_c, 0, 67, 61
1, 62754, Control_c, 0, 64, 117
1, 62769, Control_c, 0, 64, 111
1, 62784, Control_c, 0, 64, 107
1, 62799, Control_c, 0, 64, 103
1, 62813, Control_c, 0, 64, 101
1, 62821, Note_on_c, 0, 47, 33
1, 62828, Control_c, 0, 64, 100
1, 62843, Control_c, 0, 64, 98
1, 62858, Control_c, 0, 64, 95
1, 62873, Control_c, 0, 64, 92
1, 62887, Control_c, 0, 64, 91
1, 62893, Note_on_c, 0, 79, 47
1, 62902, Control_c, 0, 64, 89
1, 62918, Control_c, 0, 64, 85
1, 62933, Control_c, 0, 64, 79
1, 62948, Control_c, 0, 64, 75
1, 62963, Control_c, 0, 64, 71
1, 62978, Control_c, 0, 64, 70
1, 62979, Note_off_c, 0, 50, 40
1, 62992, Control_c, 0, 64, 68
1, 63007, Control_c, 0, 64, 65
1, 63022, Control_c, 0, 64, 61
1, 63036, Control_c, 0, 64, 57
1, 63051, Control_c, 0, 64, 56
1, 63081, Control_c, 0, 64, 56
1, 63096, Control_c, 0, 64, 57
1, 63110, Control_c, 0, 64, 58
1, 63125, Control_c, 0, 64, 60
1, 63140, Control_c, 0, 64, 61
1, 63152, Note_on_c, 0, 48, 38
1, 63155, Control_c, 0, 64, 62
1, 63170, Control_c, 0, 64, 64
1, 63185, Control_c, 0, 64, 66
1, 63200, Control_c, 0, 64, 69
1, 63214, Control_c, 0, 64, 71
1, 63229, Control_c, 0, 64, 74
1, 63244, Control_c, 0, 64, 77
1, 63259, Control_c, 0, 64, 79
1, 63284, Note_off_c, 0, 47, 32
1, 63289, Control_c, 0, 64, 78
1, 63303, Note_on_c, 0, 50, 44
1, 63303, Control_c, 0, 64, 78
1, 63317, Note_off_c, 0, 48, 42
1, 63318, Control_c, 0, 64, 76
1, 63319, Note_on_c, 0, 75, 39
1, 63331, Note_on_c, 0, 72, 34
1, 63331, Note_on_c, 0, 67, 34
1, 63333, Control_c, 0, 64, 73
1, 63348, Control_c, 0, 64, 69
1, 63362, Control_c, 0, 64, 64
1, 63377, Control_c, 0, 64, 57
1, 63392, Control_c, 0, 64, 53
1, 63414, Control_c, 0, 64, 55
1, 63429, Control_c, 0, 64, 57
1, 63439, Note_off_c, 0, 50, 58
1, 63441, Note_on_c, 0, 48, 49
1, 63444, Note_off_c, 0, 67, 62
1, 63444, Control_c, 0, 64, 59
1, 63450, Note_off_c, 0, 72, 58
1, 63456, Note_off_c, 0, 75, 61
1, 63459, Control_c, 0, 64, 62
1, 63474, Control_c, 0, 64, 64
1, 63489, Control_c, 0, 64, 67
1, 63504, Control_c, 0, 64, 72
1, 63518, Control_c, 0, 64, 77
1, 63533, Control_c, 0, 64, 80
1, 63548, Control_c, 0, 64, 79
1, 63562, Control_c, 0, 64, 78
1, 63577, Control_c, 0, 64, 74
1, 63592, Control_c, 0, 64, 69
1, 63596, Note_on_c, 0, 75, 56
1, 63603, Note_off_c, 0, 48, 55
1, 63605, Note_on_c, 0, 55, 42
1, 63607, Note_on_c, 0, 72, 42
1, 63607, Control_c, 0, 64, 64
1, 63614, Note_on_c, 0, 67, 41
1, 63622, Control_c, 0, 64, 55
1, 63636, Control_c, 0, 64, 47
1, 63651, Control_c, 0, 64, 50
1, 63666, Control_c, 0, 64, 54
1, 63681, Control_c, 0, 64, 57
1, 63689, Note_off_c, 0, 79, 60
1, 63696, Control_c, 0, 64, 60
1, 63712, Control_c, 0, 64, 62
1, 63727, Control_c, 0, 64, 65
1, 63741, Control_c, 0, 64, 68
1, 63756, Control_c, 0, 64, 75
1, 63761, Note_off_c, 0, 75, 61
1, 63771, Control_c, 0, 64, 82
1, 63786, Control_c, 0, 64, 87
1, 63801, Control_c, 0, 64, 89
1, 63874, Control_c, 0, 64, 88
1, 63886, Note_on_c, 0, 49, 41
1, 63889, Control_c, 0, 64, 87
1, 63904, Control_c, 0, 64, 86
1, 63919, Control_c, 0, 64, 85
1, 63930, Note_on_c, 0, 74, 68
1, 63933, Control_c, 0, 64, 84
1, 63948, Control_c, 0, 64, 82
1, 63961, Note_off_c, 0, 67, 37
1, 63963, Control_c, 0, 64, 81
1, 63978, Note_off_c, 0, 72, 59
1, 63978, Control_c, 0, 64, 78
1, 63992, Control_c, 0, 64, 75
1, 64007, Control_c, 0, 64, 71
1, 64022, Control_c, 0, 64, 68
1, 64037, Control_c, 0, 64, 66
1, 64052, Control_c, 0, 64, 67
1, 64057, Note_off_c, 0, 55, 33
1, 64082, Control_c, 0, 64, 67
1, 64088, Note_on_c, 0, 50, 54
1, 64097, Control_c, 0, 64, 69
1, 64112, Control_c, 0, 64, 71
1, 64127, Control_c, 0, 64, 74
1, 64141, Control_c, 0, 64, 74
1, 64163, Control_c, 0, 64, 74
1, 64178, Control_c, 0, 64, 73
1, 64192, Control_c, 0, 64, 71
1, 64207, Control_c, 0, 64, 68
1, 64213, Note_on_c, 0, 51, 68
1, 64222, Control_c, 0, 64, 64
1, 64225, Note_on_c, 0, 67, 59
1, 64225, Note_off_c, 0, 49, 29
1, 64231, Note_on_c, 0, 62, 47
1, 64237, Note_off_c, 0, 50, 61
1, 64237, Control_c, 0, 64, 60
1, 64252, Control_c, 0, 64, 54
1, 64267, Control_c, 0, 64, 52
1, 64282, Control_c, 0, 64, 55
1, 64297, Control_c, 0, 64, 57
1, 64311, Control_c, 0, 64, 60
1, 64326, Control_c, 0, 64, 62
1, 64331, Note_on_c, 0, 50, 72
1, 64341, Control_c, 0, 64, 64
1, 64347, Note_off_c, 0, 51, 60
1, 64347, Note_off_c, 0, 62, 60
1, 64356, Control_c, 0, 64, 67
1, 64362, Note_off_c, 0, 67, 62
1, 64371, Control_c, 0, 64, 72
1, 64385, Control_c, 0, 64, 77
1, 64401, Control_c, 0, 64, 80
1, 64416, Control_c, 0, 64, 78
1, 64431, Control_c, 0, 64, 74
1, 64446, Control_c, 0, 64, 68
1, 64460, Control_c, 0, 64, 63
1, 64460, Note_on_c, 0, 55, 64
1, 64466, Note_on_c, 0, 62, 64
1, 64468, Note_on_c, 0, 67, 77
1, 64475, Control_c, 0, 64, 57
1, 64484, Note_off_c, 0, 50, 61
1, 64490, Control_c, 0, 64, 52
1, 64505, Control_c, 0, 64, 55
1, 64520, Control_c, 0, 64, 57
1, 64535, Control_c, 0, 64, 60
1, 64550, Control_c, 0, 64, 62
1, 64565, Control_c, 0, 64, 64
1, 64580, Control_c, 0, 64, 68
1, 64595, Control_c, 0, 64, 74
1, 64604, Note_off_c, 0, 74, 62
1, 64609, Control_c, 0, 64, 81
1, 64624, Control_c, 0, 64, 86
1, 64639, Control_c, 0, 64, 87
1, 64698, Control_c, 0, 64, 88
1, 64704, Note_on_c, 0, 50, 56
1, 64713, Control_c, 0, 64, 87
1, 64743, Control_c, 0, 64, 87
1, 64753, Note_on_c, 0, 72, 85
1, 64772, Control_c, 0, 64, 86
1, 64787, Control_c, 0, 64, 86
1, 64821, Note_off_c, 0, 67, 55
1, 64846, Control_c, 0, 64, 85
1, 64856, Note_off_c, 0, 55, 31
1, 64861, Control_c, 0, 64, 85
1, 64872, Note_off_c, 0, 62, 37
1, 64876, Control_c, 0, 64, 84
1, 64888, Note_on_c, 0, 51, 76
1, 64890, Control_c, 0, 64, 83
1, 64913, Control_c, 0, 64, 80
1, 64928, Control_c, 0, 64, 76
1, 64943, Control_c, 0, 64, 72
1, 64956, Note_off_c, 0, 50, 50
1, 64958, Control_c, 0, 64, 67
1, 64972, Control_c, 0, 64, 62
1, 64987, Control_c, 0, 64, 58
1, 65002, Control_c, 0, 64, 59
1, 65004, Note_on_c, 0, 53, 76
1, 65014, Note_on_c, 0, 67, 72
1, 65016, Control_c, 0, 64, 60
1, 65018, Note_on_c, 0, 60, 65
1, 65026, Note_off_c, 0, 51, 63
1, 65031, Control_c, 0, 64, 62
1, 65046, Control_c, 0, 64, 64
1, 65061, Control_c, 0, 64, 66
1, 65076, Control_c, 0, 64, 73
1, 65090, Control_c, 0, 64, 86
1, 65102, Note_on_c, 0, 51, 85
1, 65105, Control_c, 0, 64, 110
1, 65120, Control_c, 0, 64, 127
1, 65125, Note_off_c, 0, 53, 62
1, 65128, Note_off_c, 0, 67, 60
1, 65135, Control_c, 0, 64, 117
1, 65142, Note_off_c, 0, 60, 61
1, 65150, Control_c, 0, 64, 95
1, 65164, Control_c, 0, 64, 78
1, 65179, Control_c, 0, 64, 67
1, 65194, Control_c, 0, 64, 57
1, 65209, Control_c, 0, 64, 54
1, 65222, Note_on_c, 0, 55, 73
1, 65224, Control_c, 0, 64, 61
1, 65232, Note_on_c, 0, 67, 74
1, 65235, Note_off_c, 0, 51, 58
1, 65238, Control_c, 0, 64, 64
1, 65242, Note_on_c, 0, 60, 70
1, 65253, Control_c, 0, 64, 67
1, 65256, Note_off_c, 0, 72, 61
1, 65268, Control_c, 0, 64, 74
1, 65283, Control_c, 0, 64, 88
1, 65294, Note_off_c, 0, 67, 60
1, 65298, Control_c, 0, 64, 127
1, 65341, Note_on_c, 0, 51, 79
1, 65350, Note_off_c, 0, 55, 63
1, 65405, Note_on_c, 0, 52, 74
1, 65472, Note_off_c, 0, 51, 39
1, 65492, Control_c, 0, 64, 123
1, 65499, Note_on_c, 0, 53, 64
1, 65506, Control_c, 0, 64, 108
1, 65521, Control_c, 0, 64, 99
1, 65527, Note_off_c, 0, 52, 57
1, 65536, Control_c, 0, 64, 87
1, 65537, Note_on_c, 0, 67, 79
1, 65551, Control_c, 0, 64, 75
1, 65566, Control_c, 0, 64, 64
1, 65580, Control_c, 0, 64, 47
1, 65595, Control_c, 0, 64, 23
1, 65596, Note_off_c, 0, 60, 57
1, 65610, Control_c, 0, 64, 30
1, 65625, Control_c, 0, 64, 40
1, 65639, Control_c, 0, 64, 49
1, 65640, Note_off_c, 0, 53, 62
1, 65661, Note_on_c, 0, 52, 53
1, 65662, Control_c, 0, 64, 56
1, 65677, Control_c, 0, 64, 62
1, 65692, Control_c, 0, 64, 68
1, 65706, Control_c, 0, 64, 77
1, 65715, Note_off_c, 0, 52, 63
1, 65721, Control_c, 0, 64, 105
1, 65736, Control_c, 0, 64, 127
1, 65739, Note_on_c, 0, 53, 59
1, 65781, Note_off_c, 0, 53, 63
1, 65805, Note_on_c, 0, 52, 58
1, 65840, Note_off_c, 0, 52, 65
1, 65858, Note_on_c, 0, 61, 65
1, 65866, Note_on_c, 0, 53, 61
1, 65867, Note_on_c, 0, 58, 62
1, 65897, Note_off_c, 0, 53, 62
1, 65907, Note_on_c, 0, 52, 67
1, 65946, Note_off_c, 0, 52, 65
1, 65962, Note_off_c, 0, 58, 59
1, 65972, Note_on_c, 0, 53, 68
1, 65977, Note_off_c, 0, 61, 59
1, 66005, Note_off_c, 0, 53, 66
1, 66022, Note_on_c, 0, 52, 69
1, 66052, Note_off_c, 0, 52, 66
1, 66075, Note_on_c, 0, 53, 73
1, 66104, Note_off_c, 0, 53, 66
1, 66122, Note_on_c, 0, 52, 70
1, 66127, Note_on_c, 0, 61, 81
1, 66142, Note_on_c, 0, 58, 78
1, 66148, Note_off_c, 0, 52, 65
1, 66173, Note_on_c, 0, 53, 72
1, 66207, Note_off_c, 0, 53, 65
1, 66216, Note_on_c, 0, 52, 72
1, 66220, Note_off_c, 0, 67, 58
1, 66251, Note_off_c, 0, 52, 66
1, 66264, Note_on_c, 0, 53, 76
1, 66308, Note_on_c, 0, 52, 74
1, 66312, Note_off_c, 0, 53, 61
1, 66357, Note_on_c, 0, 51, 79
1, 66366, Note_off_c, 0, 52, 65
1, 66437, Note_on_c, 0, 52, 73
1, 66458, Note_off_c, 0, 51, 63
1, 66478, Note_off_c, 0, 58, 38
1, 66602, Control_c, 0, 64, 107
1, 66617, Control_c, 0, 64, 98
1, 66623, Note_on_c, 0, 65, 75
1, 66628, Note_on_c, 0, 53, 52
1, 66632, Control_c, 0, 64, 94
1, 66647, Control_c, 0, 64, 91
1, 66661, Control_c, 0, 64, 87
1, 66676, Control_c, 0, 64, 82
1, 66691, Control_c, 0, 64, 77
1, 66706, Control_c, 0, 64, 73
1, 66721, Control_c, 0, 64, 71
1, 66733, Note_off_c, 0, 52, 54
1, 66735, Control_c, 0, 64, 68
1, 66750, Control_c, 0, 64, 66
1, 66765, Control_c, 0, 64, 65
1, 66780, Control_c, 0, 64, 64
1, 66783, Note_off_c, 0, 61, 55
1, 66795, Control_c, 0, 64, 63
1, 66809, Control_c, 0, 64, 60
1, 66824, Control_c, 0, 64, 57
1, 66839, Control_c, 0, 64, 54
1, 66854, Control_c, 0, 64, 52
1, 66869, Control_c, 0, 64, 49
1, 66884, Control_c, 0, 64, 40
1, 66899, Control_c, 0, 64, 17
1, 66914, Control_c, 0, 64, 0
1, 67060, Note_on_c, 0, 62, 47
1, 67084, Note_on_c, 0, 58, 39
1, 67107, Control_c, 0, 64, 19
1, 67122, Control_c, 0, 64, 35
1, 67137, Control_c, 0, 64, 51
1, 67158, Control_c, 0, 64, 59
1, 67173, Control_c, 0, 64, 63
1, 67188, Control_c, 0, 64, 65
1, 67203, Control_c, 0, 64, 69
1, 67218, Control_c, 0, 64, 78
1, 67230, Note_off_c, 0, 58, 58
1, 67230, Note_off_c, 0, 62, 60
1, 67233, Control_c, 0, 64, 98
1, 67248, Control_c, 0, 64, 127
1, 67357, Note_on_c, 0, 62, 62
1, 67364, Note_on_c, 0, 58, 52
1, 67384, Note_off_c, 0, 65, 61
1, 67418, Note_off_c, 0, 58, 64
1, 67425, Note_off_c, 0, 62, 63
1, 67573, Note_off_c, 0, 53, 35
1, 67639, Note_on_c, 0, 74, 75
1, 67935, Note_on_c, 0, 52, 59
1, 67945, Note_on_c, 0, 70, 48
1, 67952, Control_c, 0, 64, 119
1, 67954, Note_on_c, 0, 40, 51
1, 67967, Control_c, 0, 64, 87
1, 67980, Note_on_c, 0, 65, 39
1, 67981, Note_on_c, 0, 62, 34
1, 67981, Control_c, 0, 64, 72
1, 67996, Control_c, 0, 64, 63
1, 68011, Control_c, 0, 64, 55
1, 68041, Control_c, 0, 64, 58
1, 68055, Control_c, 0, 64, 61
1, 68070, Control_c, 0, 64, 66
1, 68085, Control_c, 0, 64, 76
1, 68100, Control_c, 0, 64, 110
1, 68106, Note_off_c, 0, 70, 51
1, 68115, Control_c, 0, 64, 127
1, 68140, Note_off_c, 0, 40, 51
1, 68140, Note_off_c, 0, 65, 60
1, 68145, Note_off_c, 0, 52, 63
1, 68153, Note_off_c, 0, 62, 59
1, 68237, Note_on_c, 0, 53, 80
1, 68250, Note_on_c, 0, 41, 67
1, 68250, Note_on_c, 0, 70, 60
1, 68273, Note_on_c, 0, 65, 44
1, 68279, Control_c, 0, 64, 110
1, 68283, Note_on_c, 0, 62, 54
1, 68294, Control_c, 0, 64, 82
1, 68308, Control_c, 0, 64, 65
1, 68323, Control_c, 0, 64, 36
1, 68338, Control_c, 0, 64, 0
1, 68353, Control_c, 0, 64, 33
1, 68368, Control_c, 0, 64, 44
1, 68382, Control_c, 0, 64, 54
1, 68397, Control_c, 0, 64, 63
1, 68412, Control_c, 0, 64, 72
1, 68426, Control_c, 0, 64, 90
1, 68428, Note_off_c, 0, 53, 62
1, 68441, Control_c, 0, 64, 127
1, 68450, Note_off_c, 0, 65, 62
1, 68464, Note_off_c, 0, 62, 59
1, 68483, Note_off_c, 0, 70, 63
1, 68672, Note_on_c, 0, 54, 62
1, 68702, Note_on_c, 0, 42, 51
1, 68702, Control_c, 0, 64, 104
1, 68717, Control_c, 0, 64, 92
1, 68721, Note_on_c, 0, 69, 51
1, 68731, Control_c, 0, 64, 85
1, 68745, Note_on_c, 0, 63, 41
1, 68746, Control_c, 0, 64, 82
1, 68761, Control_c, 0, 64, 80
1, 68776, Control_c, 0, 64, 75
1, 68791, Control_c, 0, 64, 67
1, 68805, Control_c, 0, 64, 61
1, 68820, Control_c, 0, 64, 57
1, 68835, Control_c, 0, 64, 54
1, 68836, Note_off_c, 0, 41, 55
1, 68850, Control_c, 0, 64, 50
1, 68864, Control_c, 0, 64, 45
1, 68879, Control_c, 0, 64, 43
1, 68894, Control_c, 0, 64, 45
1, 68902, Note_off_c, 0, 74, 53
1, 68909, Control_c, 0, 64, 49
1, 68923, Control_c, 0, 64, 54
1, 68938, Control_c, 0, 64, 57
1, 68953, Control_c, 0, 64, 61
1, 68968, Control_c, 0, 64, 66
1, 68983, Control_c, 0, 64, 74
1, 68997, Control_c, 0, 64, 86
1, 69012, Control_c, 0, 64, 108
1, 69027, Control_c, 0, 64, 127
1, 69032, Note_off_c, 0, 63, 47
1, 69051, Note_off_c, 0, 69, 59
1, 69075, Note_on_c, 0, 74, 46
1, 69158, Note_on_c, 0, 72, 63
1, 69161, Control_c, 0, 64, 99
1, 69176, Control_c, 0, 64, 87
1, 69182, Note_off_c, 0, 74, 46
1, 69185, Note_on_c, 0, 63, 39
1, 69186, Note_on_c, 0, 69, 53
1, 69191, Control_c, 0, 64, 75
1, 69205, Control_c, 0, 64, 64
1, 69220, Control_c, 0, 64, 49
1, 69235, Control_c, 0, 64, 33
1, 69249, Control_c, 0, 64, 40
1, 69264, Control_c, 0, 64, 47
1, 69279, Control_c, 0, 64, 52
1, 69294, Control_c, 0, 64, 57
1, 69310, Control_c, 0, 64, 62
1, 69325, Control_c, 0, 64, 67
1, 69340, Control_c, 0, 64, 76
1, 69354, Control_c, 0, 64, 97
1, 69368, Note_off_c, 0, 72, 60
1, 69369, Control_c, 0, 64, 127
1, 69402, Note_off_c, 0, 69, 56
1, 69406, Note_off_c, 0, 63, 36
1, 69531, Note_on_c, 0, 71, 75
1, 69549, Note_on_c, 0, 69, 53
1, 69559, Note_on_c, 0, 63, 45
1, 69685, Note_off_c, 0, 69, 51
1, 69722, Note_off_c, 0, 63, 53
1, 69800, Note_on_c, 0, 72, 84
1, 69824, Note_on_c, 0, 69, 61
1, 69845, Note_on_c, 0, 63, 53
1, 69945, Note_off_c, 0, 69, 52
1, 69978, Note_off_c, 0, 54, 61
1, 70015, Note_off_c, 0, 63, 37
1, 70080, Note_on_c, 0, 53, 69
1, 70080, Note_on_c, 0, 74, 90
1, 70082, Note_on_c, 0, 41, 63
1, 70103, Note_off_c, 0, 71, 21
1, 70106, Note_on_c, 0, 69, 62
1, 70110, Note_on_c, 0, 63, 71
1, 70117, Control_c, 0, 64, 96
1, 70132, Control_c, 0, 64, 76
1, 70136, Note_off_c, 0, 72, 61
1, 70138, Note_off_c, 0, 42, 40
1, 70154, Control_c, 0, 64, 64
1, 70169, Control_c, 0, 64, 51
1, 70184, Control_c, 0, 64, 40
1, 70199, Control_c, 0, 64, 49
1, 70214, Control_c, 0, 64, 58
1, 70229, Control_c, 0, 64, 65
1, 70243, Control_c, 0, 64, 76
1, 70258, Control_c, 0, 64, 127
1, 70258, Note_off_c, 0, 53, 62
1, 70299, Note_off_c, 0, 63, 61
1, 70303, Note_off_c, 0, 69, 61
1, 70380, Note_on_c, 0, 75, 94
1, 70389, Note_on_c, 0, 42, 67
1, 70389, Note_on_c, 0, 54, 71
1, 70405, Note_on_c, 0, 63, 68
1, 70406, Control_c, 0, 64, 112
1, 70408, Note_off_c, 0, 41, 56
1, 70415, Note_on_c, 0, 69, 60
1, 70421, Control_c, 0, 64, 83
1, 70435, Control_c, 0, 64, 67
1, 70448, Note_off_c, 0, 74, 56
1, 70450, Control_c, 0, 64, 50
1, 70465, Control_c, 0, 64, 20
1, 70480, Control_c, 0, 64, 28
1, 70495, Control_c, 0, 64, 40
1, 70509, Control_c, 0, 64, 50
1, 70524, Control_c, 0, 64, 55
1, 70539, Control_c, 0, 64, 62
1, 70554, Control_c, 0, 64, 68
1, 70569, Control_c, 0, 64, 81
1, 70578, Note_off_c, 0, 42, 54
1, 70583, Control_c, 0, 64, 111
1, 70598, Control_c, 0, 64, 127
1, 70666, Note_off_c, 0, 54, 62
1, 70676, Note_off_c, 0, 75, 60
1, 70768, Note_on_c, 0, 55, 61
1, 70783, Note_on_c, 0, 43, 55
1, 70800, Note_on_c, 0, 75, 85
1, 70820, Control_c, 0, 64, 116
1, 70835, Control_c, 0, 64, 107
1, 70850, Control_c, 0, 64, 102
1, 70865, Control_c, 0, 64, 96
1, 70880, Control_c, 0, 64, 91
1, 70903, Control_c, 0, 64, 86
1, 70918, Control_c, 0, 64, 81
1, 70932, Control_c, 0, 64, 77
1, 70935, Note_off_c, 0, 69, 59
1, 70947, Control_c, 0, 64, 75
1, 70950, Note_off_c, 0, 63, 51
1, 70962, Control_c, 0, 64, 73
1, 70977, Control_c, 0, 64, 70
1, 70992, Control_c, 0, 64, 67
1, 71007, Control_c, 0, 64, 64
1, 71021, Control_c, 0, 64, 61
1, 71036, Control_c, 0, 64, 54
1, 71051, Control_c, 0, 64, 42
1, 71066, Control_c, 0, 64, 0
1, 71140, Control_c, 0, 64, 13
1, 71155, Control_c, 0, 64, 29
1, 71167, Note_on_c, 0, 70, 59
1, 71170, Control_c, 0, 64, 40
1, 71182, Note_on_c, 0, 63, 54
1, 71185, Control_c, 0, 64, 49
1, 71199, Control_c, 0, 64, 57
1, 71214, Control_c, 0, 64, 61
1, 71229, Control_c, 0, 64, 64
1, 71244, Control_c, 0, 64, 67
1, 71258, Control_c, 0, 64, 74
1, 71273, Control_c, 0, 64, 84
1, 71288, Control_c, 0, 64, 102
1, 71303, Control_c, 0, 64, 127
1, 71314, Note_off_c, 0, 70, 63
1, 71324, Note_off_c, 0, 63, 57
1, 71436, Note_on_c, 0, 70, 69
1, 71454, Note_on_c, 0, 63, 52
1, 71576, Note_off_c, 0, 75, 60
1, 71590, Note_off_c, 0, 70, 59
1, 71612, Note_off_c, 0, 63, 61
1, 71696, Control_c, 0, 64, 118
1, 71711, Control_c, 0, 64, 105
1, 71719, Note_on_c, 0, 74, 70
1, 71726, Control_c, 0, 64, 97
1, 71740, Note_on_c, 0, 70, 44
1, 71741, Control_c, 0, 64, 88
1, 71755, Control_c, 0, 64, 78
1, 71762, Note_on_c, 0, 62, 39
1, 71770, Control_c, 0, 64, 66
1, 71785, Control_c, 0, 64, 52
1, 71800, Control_c, 0, 64, 15
1, 71815, Control_c, 0, 64, 0
1, 71859, Control_c, 0, 64, 12
1, 71874, Control_c, 0, 64, 37
1, 71888, Control_c, 0, 64, 52
1, 71891, Note_off_c, 0, 70, 53
1, 71899, Note_off_c, 0, 62, 57
1, 71903, Control_c, 0, 64, 63
1, 71918, Control_c, 0, 64, 67
1, 71933, Control_c, 0, 64, 73
1, 71947, Control_c, 0, 64, 82
1, 71962, Control_c, 0, 64, 100
1, 71977, Control_c, 0, 64, 127
1, 72023, Note_on_c, 0, 70, 42
1, 72047, Note_on_c, 0, 62, 42
1, 72106, Note_off_c, 0, 55, 35
1, 72129, Note_off_c, 0, 70, 53
1, 72159, Note_off_c, 0, 62, 39
1, 72185, Note_off_c, 0, 43, 40
1, 72388, Note_on_c, 0, 70, 41
1, 72405, Note_on_c, 0, 62, 28
1, 72468, Note_off_c, 0, 74, 31
1, 72573, Note_off_c, 0, 62, 42
1, 72822, Note_on_c, 0, 50, 14
1, 72830, Note_on_c, 0, 38, 26
1, 72830, Control_c, 0, 64, 119
1, 72844, Control_c, 0, 64, 114
1, 72859, Control_c, 0, 64, 107
1, 72869, Note_on_c, 0, 66, 38
1, 72874, Control_c, 0, 64, 100
1, 72876, Note_off_c, 0, 70, 35
1, 72889, Control_c, 0, 64, 93
1, 72897, Note_on_c, 0, 60, 35
1, 72903, Control_c, 0, 64, 90
1, 72918, Control_c, 0, 64, 87
1, 72933, Control_c, 0, 64, 84
1, 72948, Control_c, 0, 64, 77
1, 72963, Control_c, 0, 64, 68
1, 72977, Control_c, 0, 64, 55
1, 72992, Control_c, 0, 64, 31
1, 73007, Control_c, 0, 64, 21
1, 73022, Control_c, 0, 64, 24
1, 73037, Control_c, 0, 64, 31
1, 73051, Control_c, 0, 64, 40
1, 73066, Control_c, 0, 64, 51
1, 73081, Control_c, 0, 64, 59
1, 73096, Control_c, 0, 64, 64
1, 73111, Control_c, 0, 64, 69
1, 73126, Control_c, 0, 64, 76
1, 73131, Note_off_c, 0, 66, 54
1, 73148, Control_c, 0, 64, 86
1, 73162, Note_off_c, 0, 60, 34
1, 73163, Control_c, 0, 64, 100
1, 73177, Control_c, 0, 64, 115
1, 73192, Control_c, 0, 64, 127
1, 73295, Note_on_c, 0, 70, 41
1, 73365, Note_on_c, 0, 69, 58
1, 73377, Note_off_c, 0, 70, 49
1, 73401, Note_on_c, 0, 60, 37
1, 73403, Note_on_c, 0, 66, 39
1, 73565, Note_off_c, 0, 69, 55
1, 73585, Note_off_c, 0, 60, 43
1, 73585, Note_off_c, 0, 66, 40
1, 73695, Note_on_c, 0, 68, 71
1, 73718, Note_on_c, 0, 66, 49
1, 73725, Note_on_c, 0, 60, 42
1, 73726, Control_c, 0, 64, 118
1, 73741, Control_c, 0, 64, 92
1, 73756, Control_c, 0, 64, 76
1, 73771, Control_c, 0, 64, 65
1, 73786, Control_c, 0, 64, 56
1, 73800, Control_c, 0, 64, 51
1, 73815, Control_c, 0, 64, 55
1, 73830, Control_c, 0, 64, 57
1, 73844, Control_c, 0, 64, 61
1, 73859, Control_c, 0, 64, 64
1, 73874, Control_c, 0, 64, 69
1, 73897, Control_c, 0, 64, 78
1, 73900, Note_off_c, 0, 60, 62
1, 73906, Note_off_c, 0, 66, 58
1, 73910, Note_off_c, 0, 68, 61
1, 73912, Control_c, 0, 64, 105
1, 73926, Control_c, 0, 64, 127
1, 73982, Note_on_c, 0, 69, 77
1, 74000, Control_c, 0, 64, 114
1, 74015, Control_c, 0, 64, 92
1, 74028, Note_on_c, 0, 60, 54
1, 74030, Control_c, 0, 64, 79
1, 74038, Note_on_c, 0, 66, 52
1, 74044, Control_c, 0, 64, 67
1, 74059, Control_c, 0, 64, 55
1, 74074, Control_c, 0, 64, 40
1, 74089, Control_c, 0, 64, 44
1, 74105, Control_c, 0, 64, 50
1, 74120, Control_c, 0, 64, 55
1, 74135, Control_c, 0, 64, 61
1, 74149, Control_c, 0, 64, 67
1, 74151, Note_off_c, 0, 60, 56
1, 74164, Control_c, 0, 64, 75
1, 74179, Control_c, 0, 64, 91
1, 74181, Note_off_c, 0, 66, 37
1, 74194, Control_c, 0, 64, 127
1, 74249, Note_on_c, 0, 70, 82
1, 74268, Control_c, 0, 64, 101
1, 74270, Note_off_c, 0, 69, 60
1, 74275, Note_on_c, 0, 66, 50
1, 74283, Control_c, 0, 64, 77
1, 74284, Note_on_c, 0, 60, 46
1, 74297, Control_c, 0, 64, 62
1, 74312, Control_c, 0, 64, 29
1, 74327, Control_c, 0, 64, 0
1, 74342, Control_c, 0, 64, 27
1, 74357, Control_c, 0, 64, 38
1, 74358, Note_off_c, 0, 60, 0
1, 74358, Note_on_c, 0, 60, 13
1, 74372, Control_c, 0, 64, 48
1, 74387, Control_c, 0, 64, 60
1, 74402, Control_c, 0, 64, 66
1, 74416, Control_c, 0, 64, 73
1, 74430, Note_off_c, 0, 70, 63
1, 74431, Control_c, 0, 64, 88
1, 74446, Control_c, 0, 64, 127
1, 74470, Note_off_c, 0, 66, 58
1, 74491, Note_off_c, 0, 60, 35
1, 74536, Note_on_c, 0, 72, 80
1, 74549, Control_c, 0, 64, 90
1, 74564, Control_c, 0, 64, 69
1, 74579, Control_c, 0, 64, 52
1, 74581, Note_on_c, 0, 66, 38
1, 74589, Note_on_c, 0, 60, 42
1, 74594, Control_c, 0, 64, 0
1, 74623, Control_c, 0, 64, 27
1, 74646, Control_c, 0, 64, 41
1, 74661, Control_c, 0, 64, 57
1, 74675, Control_c, 0, 64, 64
1, 74685, Note_off_c, 0, 50, 53
1, 74690, Control_c, 0, 64, 68
1, 74705, Control_c, 0, 64, 75
1, 74720, Control_c, 0, 64, 86
1, 74735, Control_c, 0, 64, 109
1, 74749, Control_c, 0, 64, 127
1, 74792, Note_off_c, 0, 72, 56
1, 74883, Note_on_c, 0, 51, 51
1, 74911, Note_on_c, 0, 39, 37
1, 74913, Control_c, 0, 64, 107
1, 74921, Note_on_c, 0, 72, 69
1, 74928, Control_c, 0, 64, 98
1, 74943, Control_c, 0, 64, 90
1, 74958, Control_c, 0, 64, 85
1, 74972, Control_c, 0, 64, 80
1, 74987, Control_c, 0, 64, 76
1, 75002, Control_c, 0, 64, 73
1, 75017, Control_c, 0, 64, 69
1, 75027, Note_off_c, 0, 60, 31
1, 75032, Control_c, 0, 64, 66
1, 75046, Control_c, 0, 64, 64
1, 75053, Note_off_c, 0, 66, 59
1, 75061, Control_c, 0, 64, 62
1, 75076, Control_c, 0, 64, 57
1, 75090, Control_c, 0, 64, 48
1, 75104, Note_off_c, 0, 38, 38
1, 75105, Control_c, 0, 64, 34
1, 75120, Control_c, 0, 64, 20
1, 75150, Control_c, 0, 64, 21
1, 75165, Control_c, 0, 64, 26
1, 75180, Control_c, 0, 64, 33
1, 75195, Control_c, 0, 64, 39
1, 75210, Control_c, 0, 64, 44
1, 75225, Control_c, 0, 64, 49
1, 75239, Control_c, 0, 64, 55
1, 75246, Note_on_c, 0, 67, 50
1, 75254, Control_c, 0, 64, 59
1, 75269, Control_c, 0, 64, 62
1, 75278, Note_on_c, 0, 60, 35
1, 75284, Control_c, 0, 64, 63
1, 75298, Control_c, 0, 64, 65
1, 75313, Control_c, 0, 64, 68
1, 75328, Control_c, 0, 64, 72
1, 75343, Control_c, 0, 64, 79
1, 75358, Control_c, 0, 64, 88
1, 75372, Control_c, 0, 64, 100
1, 75394, Control_c, 0, 64, 127
1, 75409, Note_off_c, 0, 67, 60
1, 75432, Note_off_c, 0, 60, 34
1, 75539, Note_on_c, 0, 67, 61
1, 75548, Note_on_c, 0, 60, 55
1, 75600, Note_off_c, 0, 72, 38
1, 75650, Note_off_c, 0, 60, 61
1, 75690, Note_off_c, 0, 67, 59
1, 75826, Control_c, 0, 64, 108
1, 75830, Note_on_c, 0, 70, 65
1, 75838, Note_on_c, 0, 67, 45
1, 75841, Control_c, 0, 64, 91
1, 75856, Control_c, 0, 64, 75
1, 75870, Control_c, 0, 64, 61
1, 75877, Note_on_c, 0, 58, 38
1, 75885, Control_c, 0, 64, 37
1, 75900, Control_c, 0, 64, 17
1, 75914, Control_c, 0, 64, 27
1, 75929, Control_c, 0, 64, 36
1, 75944, Control_c, 0, 64, 47
1, 75959, Control_c, 0, 64, 59
1, 75974, Control_c, 0, 64, 65
1, 75988, Control_c, 0, 64, 71
1, 76001, Note_off_c, 0, 67, 60
1, 76002, Note_off_c, 0, 58, 55
1, 76003, Control_c, 0, 64, 80
1, 76018, Control_c, 0, 64, 95
1, 76033, Control_c, 0, 64, 127
1, 76164, Note_on_c, 0, 67, 44
1, 76192, Note_on_c, 0, 58, 39
1, 76274, Note_off_c, 0, 51, 41
1, 76313, Note_off_c, 0, 67, 55
1, 76334, Note_off_c, 0, 58, 35
1, 76347, Note_off_c, 0, 39, 38
1, 76550, Note_on_c, 0, 67, 31
1, 76581, Note_on_c, 0, 58, 18
1, 76676, Note_off_c, 0, 67, 56
1, 76725, Note_off_c, 0, 58, 41
1, 76858, Note_off_c, 0, 70, 37
1, 77025, Control_c, 0, 64, 115
1, 77040, Control_c, 0, 64, 107
1, 77047, Note_on_c, 0, 48, 19
1, 77055, Control_c, 0, 64, 100
1, 77061, Note_on_c, 0, 69, 41
1, 77061, Note_on_c, 0, 36, 26
1, 77070, Control_c, 0, 64, 95
1, 77075, Note_on_c, 0, 67, 31
1, 77085, Control_c, 0, 64, 91
1, 77099, Control_c, 0, 64, 87
1, 77108, Note_on_c, 0, 63, 27
1, 77114, Control_c, 0, 64, 82
1, 77129, Control_c, 0, 64, 76
1, 77144, Control_c, 0, 64, 67
1, 77159, Control_c, 0, 64, 58
1, 77174, Control_c, 0, 64, 39
1, 77189, Control_c, 0, 64, 33
1, 77204, Control_c, 0, 64, 33
1, 77218, Control_c, 0, 64, 37
1, 77233, Control_c, 0, 64, 43
1, 77248, Control_c, 0, 64, 50
1, 77262, Control_c, 0, 64, 58
1, 77277, Control_c, 0, 64, 64
1, 77293, Control_c, 0, 64, 68
1, 77308, Control_c, 0, 64, 73
1, 77323, Control_c, 0, 64, 81
1, 77338, Control_c, 0, 64, 92
1, 77347, Note_off_c, 0, 67, 52
1, 77353, Control_c, 0, 64, 110
1, 77367, Control_c, 0, 64, 127
1, 77378, Note_off_c, 0, 63, 42
1, 77533, Note_on_c, 0, 67, 38
1, 77560, Note_on_c, 0, 63, 33
1, 77700, Note_off_c, 0, 67, 56
1, 77736, Note_off_c, 0, 63, 40
1, 77834, Note_off_c, 0, 48, 36
1, 77854, Note_on_c, 0, 67, 54
1, 77862, Note_on_c, 0, 63, 38
1, 77901, Note_off_c, 0, 36, 40
1, 77939, Note_off_c, 0, 69, 51
1, 77997, Note_off_c, 0, 67, 59
1, 78041, Note_off_c, 0, 63, 59
1, 78125, Note_on_c, 0, 50, 37
1, 78130, Note_on_c, 0, 38, 39
1, 78140, Note_on_c, 0, 69, 69
1, 78167, Note_on_c, 0, 62, 47
1, 78173, Note_on_c, 0, 66, 48
1, 78176, Control_c, 0, 64, 91
1, 78190, Control_c, 0, 64, 72
1, 78205, Control_c, 0, 64, 56
1, 78220, Control_c, 0, 64, 32
1, 78235, Control_c, 0, 64, 34
1, 78250, Control_c, 0, 64, 40
1, 78264, Control_c, 0, 64, 49
1, 78279, Control_c, 0, 64, 57
1, 78294, Control_c, 0, 64, 65
1, 78308, Control_c, 0, 64, 72
1, 78323, Control_c, 0, 64, 89
1, 78338, Control_c, 0, 64, 127
1, 78346, Note_off_c, 0, 66, 59
1, 78353, Note_off_c, 0, 62, 57
1, 78465, Note_on_c, 0, 66, 75
1, 78486, Note_on_c, 0, 62, 54
1, 78650, Note_off_c, 0, 62, 59
1, 78665, Note_off_c, 0, 66, 58
1, 78787, Note_on_c, 0, 66, 76
1, 78795, Note_on_c, 0, 62, 67
1, 78845, Note_off_c, 0, 69, 60
1, 78865, Note_off_c, 0, 38, 40
1, 78865, Note_off_c, 0, 50, 40
1, 78962, Note_on_c, 0, 69, 89
1, 78993, Note_off_c, 0, 62, 58
1, 79003, Note_off_c, 0, 66, 60
1, 79150, Note_on_c, 0, 37, 63
1, 79151, Note_on_c, 0, 49, 59
1, 79162, Note_off_c, 0, 69, 50
1, 79228, Control_c, 0, 64, 101
1, 79243, Control_c, 0, 64, 77
1, 79258, Control_c, 0, 64, 60
1, 79266, Note_on_c, 0, 57, 73
1, 79273, Control_c, 0, 64, 0
1, 79302, Control_c, 0, 64, 11
1, 79317, Control_c, 0, 64, 41
1, 79332, Control_c, 0, 64, 61
1, 79346, Control_c, 0, 64, 69
1, 79347, Note_on_c, 0, 64, 75
1, 79360, Note_off_c, 0, 37, 58
1, 79361, Control_c, 0, 64, 83
1, 79377, Control_c, 0, 64, 127
1, 79432, Note_off_c, 0, 57, 60
1, 79435, Note_off_c, 0, 49, 62
1, 79498, Note_on_c, 0, 69, 92
1, 79581, Note_off_c, 0, 64, 60
1, 79833, Note_on_c, 0, 64, 54
1, 79852, Note_on_c, 0, 57, 47
1, 79854, Note_on_c, 0, 52, 42
1, 80015, Note_off_c, 0, 52, 54
1, 80039, Note_off_c, 0, 57, 55
1, 80048, Note_off_c, 0, 64, 56
1, 80206, Note_on_c, 0, 64, 70
1, 80213, Note_on_c, 0, 57, 59
1, 80223, Note_on_c, 0, 52, 58
1, 80295, Note_off_c, 0, 69, 48
1, 80346, Note_off_c, 0, 52, 56
1, 80370, Note_off_c, 0, 64, 57
1, 80372, Note_off_c, 0, 57, 58
1, 80500, Note_on_c, 0, 64, 74
1, 80507, Note_on_c, 0, 57, 66
1, 80517, Note_on_c, 0, 52, 59
1, 80667, Note_off_c, 0, 52, 52
1, 80684, Note_off_c, 0, 57, 57
1, 80702, Note_off_c, 0, 64, 57
1, 80805, Note_on_c, 0, 64, 84
1, 80810, Note_on_c, 0, 57, 71
1, 80817, Note_on_c, 0, 52, 58
1, 80974, Note_off_c, 0, 52, 38
1, 81006, Note_off_c, 0, 57, 55
1, 81018, Note_off_c, 0, 64, 54
1, 81201, Note_on_c, 0, 64, 39
1, 81222, Note_on_c, 0, 52, 36
1, 81228, Note_on_c, 0, 57, 30
1, 81258, Control_c, 0, 64, 99
1, 81273, Control_c, 0, 64, 81
1, 81279, Note_on_c, 0, 69, 70
1, 81289, Control_c, 0, 64, 70
1, 81304, Control_c, 0, 64, 63
1, 81319, Control_c, 0, 64, 56
1, 81333, Control_c, 0, 64, 50
1, 81363, Control_c, 0, 64, 54
1, 81386, Control_c, 0, 64, 58
1, 81387, Note_off_c, 0, 64, 61
1, 81401, Control_c, 0, 64, 62
1, 81415, Control_c, 0, 64, 66
1, 81428, Note_off_c, 0, 57, 62
1, 81430, Control_c, 0, 64, 73
1, 81445, Control_c, 0, 64, 87
1, 81458, Note_off_c, 0, 52, 42
1, 81460, Control_c, 0, 64, 127
1, 81504, Control_c, 0, 67, 15
1, 81519, Control_c, 0, 67, 30
1, 81533, Control_c, 0, 67, 45
1, 81548, Control_c, 0, 67, 63
1, 81563, Control_c, 0, 67, 78
1, 81578, Control_c, 0, 67, 90
1, 81593, Control_c, 0, 67, 101
1, 81607, Control_c, 0, 67, 111
1, 81622, Control_c, 0, 67, 120
1, 81637, Control_c, 0, 67, 127
1, 81652, Control_c, 0, 67, 127
1, 81667, Control_c, 0, 64, 111
1, 81681, Control_c, 0, 64, 103
1, 81696, Control_c, 0, 64, 97
1, 81711, Control_c, 0, 64, 89
1, 81717, Note_on_c, 0, 48, 35
1, 81726, Control_c, 0, 64, 79
1, 81735, Note_on_c, 0, 36, 33
1, 81741, Control_c, 0, 64, 68
1, 81756, Control_c, 0, 64, 60
1, 81771, Control_c, 0, 64, 47
1, 81785, Control_c, 0, 64, 39
1, 81800, Control_c, 0, 64, 40
1, 81815, Control_c, 0, 64, 45
1, 81830, Control_c, 0, 64, 51
1, 81845, Control_c, 0, 64, 56
1, 81860, Control_c, 0, 64, 61
1, 81874, Note_off_c, 0, 36, 46
1, 81875, Control_c, 0, 64, 65
1, 81889, Control_c, 0, 64, 70
1, 81899, Note_off_c, 0, 69, 55
1, 81904, Control_c, 0, 64, 77
1, 81915, Note_off_c, 0, 48, 56
1, 81919, Control_c, 0, 64, 89
1, 81933, Control_c, 0, 64, 103
1, 81946, Note_on_c, 0, 70, 42
1, 81948, Control_c, 0, 64, 127
1, 82058, Note_off_c, 0, 70, 45
1, 82073, Note_on_c, 0, 69, 47
1, 82115, Note_off_c, 0, 69, 61
1, 82160, Note_on_c, 0, 68, 53
1, 82202, Note_off_c, 0, 68, 63
1, 82242, Note_on_c, 0, 69, 49
1, 82248, Note_on_c, 0, 63, 37
1, 82254, Note_on_c, 0, 57, 36
1, 82256, Note_on_c, 0, 65, 26
1, 82266, Note_on_c, 0, 53, 36
1, 82301, Note_off_c, 0, 69, 54
1, 82323, Note_on_c, 0, 79, 67
1, 82375, Note_off_c, 0, 79, 61
1, 82395, Note_off_c, 0, 57, 36
1, 82396, Note_off_c, 0, 63, 35
1, 82400, Note_on_c, 0, 76, 65
1, 82403, Note_off_c, 0, 53, 41
1, 82403, Note_off_c, 0, 65, 35
1, 82437, Note_off_c, 0, 76, 62
1, 82468, Note_on_c, 0, 77, 68
1, 82503, Control_c, 0, 64, 123
1, 82507, Note_off_c, 0, 77, 59
1, 82518, Control_c, 0, 64, 110
1, 82533, Control_c, 0, 64, 101
1, 82548, Control_c, 0, 64, 93
1, 82552, Note_on_c, 0, 53, 35
1, 82554, Note_on_c, 0, 65, 30
1, 82558, Note_on_c, 0, 63, 25
1, 82562, Control_c, 0, 64, 83
1, 82564, Note_on_c, 0, 57, 27
1, 82577, Control_c, 0, 64, 71
1, 82592, Control_c, 0, 64, 61
1, 82595, Note_on_c, 0, 77, 45
1, 82607, Control_c, 0, 64, 49
1, 82622, Control_c, 0, 64, 50
1, 82636, Control_c, 0, 64, 54
1, 82651, Control_c, 0, 64, 57
1, 82666, Control_c, 0, 64, 61
1, 82675, Note_off_c, 0, 77, 59
1, 82681, Control_c, 0, 64, 65
1, 82696, Control_c, 0, 64, 69
1, 82710, Control_c, 0, 64, 78
1, 82725, Control_c, 0, 64, 94
1, 82731, Note_on_c, 0, 91, 58
1, 82740, Control_c, 0, 64, 127
1, 82766, Note_off_c, 0, 57, 41
1, 82772, Note_off_c, 0, 63, 40
1, 82782, Note_off_c, 0, 53, 36
1, 82808, Note_off_c, 0, 65, 40
1, 82810, Note_off_c, 0, 91, 60
1, 82819, Note_on_c, 0, 89, 59
1, 82898, Note_off_c, 0, 89, 62
1, 82911, Note_on_c, 0, 88, 55
1, 82966, Note_on_c, 0, 65, 29
1, 82969, Note_on_c, 0, 53, 28
1, 82978, Note_on_c, 0, 57, 25
1, 82992, Note_off_c, 0, 88, 63
1, 82999, Note_on_c, 0, 63, 27
1, 83016, Note_on_c, 0, 87, 59
1, 83055, Note_off_c, 0, 87, 63
1, 83103, Note_on_c, 0, 84, 54
1, 83143, Note_off_c, 0, 84, 49
1, 83169, Note_off_c, 0, 63, 38
1, 83172, Note_off_c, 0, 53, 39
1, 83173, Note_on_c, 0, 81, 55
1, 83174, Note_off_c, 0, 57, 42
1, 83188, Note_off_c, 0, 65, 39
1, 83209, Note_off_c, 0, 81, 64
1, 83232, Note_on_c, 0, 82, 56
1, 83258, Note_off_c, 0, 82, 66
1, 83273, Note_on_c, 0, 86, 71
1, 83327, Note_off_c, 0, 86, 61
1, 83330, Note_on_c, 0, 84, 67
1, 83356, Note_on_c, 0, 57, 33
1, 83357, Note_on_c, 0, 65, 28
1, 83359, Note_on_c, 0, 53, 31
1, 83371, Note_on_c, 0, 82, 67
1, 83374, Note_on_c, 0, 63, 39
1, 83385, Note_off_c, 0, 84, 62
1, 83428, Note_off_c, 0, 82, 65
1, 83433, Note_on_c, 0, 79, 65
1, 83461, Note_off_c, 0, 79, 67
1, 83473, Note_on_c, 0, 77, 74
1, 83477, Note_off_c, 0, 63, 49
1, 83505, Note_off_c, 0, 53, 38
1, 83527, Note_off_c, 0, 65, 44
1, 83529, Note_off_c, 0, 77, 57
1, 83529, Note_off_c, 0, 57, 41
1, 83533, Note_on_c, 0, 74, 74
1, 83583, Note_on_c, 0, 75, 76
1, 83583, Note_off_c, 0, 74, 61
1, 83643, Note_off_c, 0, 75, 62
1, 83646, Control_c, 0, 64, 116
1, 83649, Note_on_c, 0, 76, 76
1, 83660, Control_c, 0, 64, 103
1, 83675, Control_c, 0, 64, 93
1, 83690, Control_c, 0, 64, 82
1, 83698, Note_on_c, 0, 65, 39
1, 83702, Note_on_c, 0, 57, 33
1, 83705, Control_c, 0, 64, 72
1, 83715, Note_on_c, 0, 63, 43
1, 83717, Note_on_c, 0, 53, 33
1, 83720, Control_c, 0, 64, 64
1, 83720, Control_c, 0, 67, 125
1, 83725, Note_off_c, 0, 76, 63
1, 83731, Note_on_c, 0, 77, 69
1, 83735, Control_c, 0, 64, 52
1, 83735, Control_c, 0, 67, 120
1, 83750, Control_c, 0, 64, 38
1, 83750, Control_c, 0, 67, 113
1, 83765, Control_c, 0, 64, 35
1, 83765, Control_c, 0, 67, 105
1, 83780, Control_c, 0, 64, 38
1, 83780, Control_c, 0, 67, 95
1, 83795, Control_c, 0, 64, 44
1, 83795, Control_c, 0, 67, 83
1, 83801, Note_off_c, 0, 77, 62
1, 83809, Control_c, 0, 64, 51
1, 83809, Control_c, 0, 67, 68
1, 83814, Note_on_c, 0, 78, 64
1, 83824, Control_c, 0, 64, 57
1, 83824, Control_c, 0, 67, 56
1, 83829, Note_off_c, 0, 65, 56
1, 83839, Control_c, 0, 64, 63
1, 83839, Control_c, 0, 67, 45
1, 83854, Control_c, 0, 64, 67
1, 83854, Control_c, 0, 67, 34
1, 83869, Control_c, 0, 64, 73
1, 83869, Control_c, 0, 67, 24
1, 83878, Note_off_c, 0, 63, 50
1, 83881, Note_off_c, 0, 78, 59
1, 83883, Control_c, 0, 64, 82
1, 83883, Control_c, 0, 67, 14
1, 83898, Control_c, 0, 64, 91
1, 83898, Control_c, 0, 67, 0
1, 83913, Control_c, 0, 64, 101
1, 83914, Note_on_c, 0, 81, 65
1, 83927, Control_c, 0, 64, 121
1, 83931, Note_off_c, 0, 57, 42
1, 83942, Control_c, 0, 64, 127
1, 83962, Note_off_c, 0, 53, 47
1, 83997, Note_off_c, 0, 81, 64
1, 84003, Note_on_c, 0, 79, 70
1, 84097, Note_on_c, 0, 77, 77
1, 84102, Note_off_c, 0, 79, 62
1, 84185, Note_on_c, 0, 75, 80
1, 84201, Note_off_c, 0, 77, 61
1, 84298, Control_c, 0, 64, 108
1, 84312, Note_on_c, 0, 46, 52
1, 84313, Control_c, 0, 64, 100
1, 84325, Note_off_c, 0, 75, 60
1, 84327, Control_c, 0, 64, 94
1, 84332, Note_on_c, 0, 34, 46
1, 84342, Control_c, 0, 64, 86
1, 84357, Control_c, 0, 64, 80
1, 84379, Control_c, 0, 64, 71
1, 84394, Control_c, 0, 64, 62
1, 84406, Note_on_c, 0, 73, 74
1, 84409, Control_c, 0, 64, 43
1, 84424, Control_c, 0, 64, 9
1, 84438, Control_c, 0, 64, 16
1, 84453, Control_c, 0, 64, 27
1, 84468, Control_c, 0, 64, 39
1, 84484, Control_c, 0, 64, 51
1, 84499, Control_c, 0, 64, 61
1, 84513, Control_c, 0, 64, 68
1, 84519, Note_off_c, 0, 34, 55
1, 84528, Control_c, 0, 64, 79
1, 84543, Control_c, 0, 64, 102
1, 84552, Note_off_c, 0, 46, 62
1, 84558, Control_c, 0, 64, 127
1, 84638, Note_off_c, 0, 73, 59
1, 84844, Note_on_c, 0, 58, 51
1, 84846, Note_on_c, 0, 53, 45
1, 84853, Note_on_c, 0, 50, 38
1, 84895, Note_on_c, 0, 74, 84
1, 84913, Control_c, 0, 64, 102
1, 84928, Control_c, 0, 64, 88
1, 84943, Control_c, 0, 64, 75
1, 84957, Control_c, 0, 64, 64
1, 84972, Control_c, 0, 64, 47
1, 84987, Control_c, 0, 64, 35
1, 85002, Control_c, 0, 64, 46
1, 85017, Control_c, 0, 64, 52
1, 85032, Control_c, 0, 64, 56
1, 85047, Control_c, 0, 64, 62
1, 85061, Control_c, 0, 64, 67
1, 85076, Control_c, 0, 64, 75
1, 85091, Note_off_c, 0, 50, 38
1, 85091, Control_c, 0, 64, 100
1, 85106, Note_off_c, 0, 53, 54
1, 85106, Control_c, 0, 64, 127
1, 85139, Note_off_c, 0, 58, 58
1, 85214, Note_on_c, 0, 62, 70
1, 85234, Note_on_c, 0, 58, 63
1, 85243, Note_on_c, 0, 53, 61
1, 85328, Note_off_c, 0, 62, 62
1, 85351, Note_off_c, 0, 58, 62
1, 85360, Note_off_c, 0, 53, 63
1, 85485, Control_c, 0, 64, 90
1, 85500, Control_c, 0, 64, 70
1, 85512, Note_on_c, 0, 39, 70
1, 85515, Control_c, 0, 64, 55
1, 85529, Control_c, 0, 64, 29
1, 85544, Control_c, 0, 64, 40
1, 85559, Control_c, 0, 64, 52
1, 85573, Control_c, 0, 64, 60
1, 85588, Control_c, 0, 64, 67
1, 85603, Control_c, 0, 64, 76
1, 85618, Control_c, 0, 64, 101
1, 85627, Note_off_c, 0, 39, 62
1, 85633, Control_c, 0, 64, 127
1, 85831, Note_on_c, 0, 60, 52
1, 85835, Note_on_c, 0, 72, 81
1, 85854, Note_on_c, 0, 51, 43
1, 85855, Note_on_c, 0, 55, 48
1, 85920, Note_off_c, 0, 74, 61
1, 85980, Note_off_c, 0, 51, 36
1, 86033, Note_off_c, 0, 55, 56
1, 86063, Note_off_c, 0, 60, 60
1, 86147, Note_on_c, 0, 67, 90
1, 86152, Note_on_c, 0, 63, 66
1, 86161, Note_on_c, 0, 60, 56
1, 86164, Note_on_c, 0, 55, 56
1, 86232, Note_off_c, 0, 63, 63
1, 86242, Note_off_c, 0, 72, 61
1, 86245, Note_off_c, 0, 60, 63
1, 86257, Note_off_c, 0, 55, 63
1, 86465, Note_on_c, 0, 38, 61
1, 86485, Control_c, 0, 64, 121
1, 86500, Control_c, 0, 64, 94
1, 86515, Control_c, 0, 64, 78
1, 86528, Note_on_c, 0, 70, 85
1, 86529, Control_c, 0, 64, 64
1, 86544, Control_c, 0, 64, 40
1, 86559, Control_c, 0, 64, 0
1, 86596, Note_off_c, 0, 67, 61
1, 86603, Control_c, 0, 64, 18
1, 86626, Control_c, 0, 64, 40
1, 86641, Control_c, 0, 64, 56
1, 86656, Control_c, 0, 64, 65
1, 86671, Control_c, 0, 64, 73
1, 86677, Note_off_c, 0, 38, 62
1, 86685, Control_c, 0, 64, 96
1, 86700, Control_c, 0, 64, 127
1, 86908, Note_on_c, 0, 63, 72
1, 86934, Note_on_c, 0, 55, 51
1, 86942, Note_on_c, 0, 58, 58
1, 87155, Note_off_c, 0, 58, 57
1, 87165, Note_off_c, 0, 55, 38
1, 87172, Note_off_c, 0, 63, 62
1, 87237, Note_on_c, 0, 62, 77
1, 87255, Note_on_c, 0, 58, 74
1, 87264, Note_on_c, 0, 55, 65
1, 87293, Control_c, 0, 64, 93
1, 87308, Control_c, 0, 64, 73
1, 87323, Control_c, 0, 64, 57
1, 87338, Control_c, 0, 64, 41
1, 87352, Control_c, 0, 64, 47
1, 87375, Control_c, 0, 64, 53
1, 87390, Control_c, 0, 64, 56
1, 87404, Control_c, 0, 64, 60
1, 87419, Control_c, 0, 64, 66
1, 87434, Control_c, 0, 64, 73
1, 87449, Control_c, 0, 64, 86
1, 87464, Control_c, 0, 64, 119
1, 87479, Control_c, 0, 64, 127
1, 87535, Note_on_c, 0, 50, 46
1, 87538, Control_c, 0, 64, 114
1, 87543, Note_on_c, 0, 66, 69
1, 87552, Control_c, 0, 64, 104
1, 87567, Control_c, 0, 64, 92
1, 87582, Control_c, 0, 64, 78
1, 87597, Control_c, 0, 64, 65
1, 87612, Control_c, 0, 64, 41
1, 87626, Control_c, 0, 64, 12
1, 87628, Note_off_c, 0, 70, 57
1, 87634, Note_off_c, 0, 55, 34
1, 87641, Control_c, 0, 64, 26
1, 87656, Control_c, 0, 64, 33
1, 87672, Control_c, 0, 64, 45
1, 87687, Control_c, 0, 64, 53
1, 87702, Control_c, 0, 64, 61
1, 87706, Note_off_c, 0, 58, 58
1, 87707, Note_off_c, 0, 62, 61
1, 87717, Control_c, 0, 64, 66
1, 87731, Control_c, 0, 64, 72
1, 87746, Control_c, 0, 64, 82
1, 87761, Control_c, 0, 64, 99
1, 87775, Control_c, 0, 64, 127
1, 87879, Control_c, 0, 64, 119
1, 87893, Note_on_c, 0, 61, 42
1, 87894, Control_c, 0, 64, 104
1, 87908, Note_on_c, 0, 58, 39
1, 87909, Control_c, 0, 64, 92
1, 87923, Control_c, 0, 64, 78
1, 87938, Control_c, 0, 64, 66
1, 87953, Control_c, 0, 64, 52
1, 87968, Control_c, 0, 64, 30
1, 87983, Control_c, 0, 64, 36
1, 87998, Control_c, 0, 64, 43
1, 88013, Control_c, 0, 64, 51
1, 88027, Control_c, 0, 64, 57
1, 88042, Control_c, 0, 64, 63
1, 88057, Control_c, 0, 64, 67
1, 88072, Control_c, 0, 64, 76
1, 88087, Control_c, 0, 64, 91
1, 88102, Control_c, 0, 64, 127
1, 88150, Note_off_c, 0, 58, 41
1, 88209, Note_off_c, 0, 61, 34
1, 88257, Control_c, 0, 64, 114
1, 88272, Control_c, 0, 64, 106
1, 88287, Control_c, 0, 64, 101
1, 88302, Control_c, 0, 64, 98
1, 88317, Control_c, 0, 64, 93
1, 88322, Note_on_c, 0, 60, 36
1, 88330, Note_on_c, 0, 57, 34
1, 88331, Control_c, 0, 64, 84
1, 88346, Control_c, 0, 64, 73
1, 88361, Control_c, 0, 64, 64
1, 88375, Control_c, 0, 64, 51
1, 88390, Control_c, 0, 64, 41
1, 88405, Control_c, 0, 64, 44
1, 88420, Control_c, 0, 64, 48
1, 88435, Control_c, 0, 64, 53
1, 88449, Control_c, 0, 64, 58
1, 88465, Control_c, 0, 64, 63
1, 88480, Control_c, 0, 64, 67
1, 88495, Control_c, 0, 64, 74
1, 88510, Control_c, 0, 64, 87
1, 88525, Control_c, 0, 64, 108
1, 88540, Control_c, 0, 64, 127
1, 88561, Note_off_c, 0, 57, 38
1, 88564, Note_off_c, 0, 60, 41
1, 88607, Note_off_c, 0, 50, 40
1, 88803, Note_off_c, 0, 66, 32
1, 88946, Control_c, 0, 64, 116
1, 88961, Control_c, 0, 64, 110
1, 88976, Control_c, 0, 64, 106
1, 88991, Control_c, 0, 64, 102
1, 88996, Note_on_c, 0, 43, 29
1, 89003, Note_on_c, 0, 67, 39
1, 89005, Control_c, 0, 64, 93
1, 89020, Control_c, 0, 64, 84
1, 89035, Control_c, 0, 64, 75
1, 89050, Control_c, 0, 64, 66
1, 89065, Control_c, 0, 64, 57
1, 89080, Control_c, 0, 64, 43
1, 89095, Control_c, 0, 64, 40
1, 89110, Control_c, 0, 64, 42
1, 89124, Control_c, 0, 64, 48
1, 89139, Control_c, 0, 64, 54
1, 89154, Control_c, 0, 64, 60
1, 89169, Control_c, 0, 64, 66
1, 89178, Note_off_c, 0, 43, 43
1, 89184, Control_c, 0, 64, 74
1, 89198, Control_c, 0, 64, 90
1, 89213, Control_c, 0, 64, 127
1, 89267, Note_off_c, 0, 67, 37
1, 89758, Note_on_c, 0, 65, 31
1, 89780, Note_on_c, 0, 82, 51
1, 89785, Note_on_c, 0, 55, 22
1, 89805, Note_on_c, 0, 58, 20
1, 89825, Note_on_c, 0, 70, 31
1, 90111, Note_on_c, 0, 74, 36
1, 90244, Note_off_c, 0, 74, 59
1, 90293, Note_on_c, 0, 77, 47
1, 90304, Note_on_c, 0, 63, 26
1, 90385, Note_off_c, 0, 65, 47
1, 90410, Note_off_c, 0, 63, 52
1, 90414, Note_off_c, 0, 55, 42
1, 90427, Note_off_c, 0, 58, 41
1, 90473, Note_on_c, 0, 75, 40
1, 90489, Control_c, 0, 64, 113
1, 90499, Note_off_c, 0, 77, 32
1, 90504, Control_c, 0, 64, 104
1, 90518, Control_c, 0, 64, 95
1, 90528, Note_off_c, 0, 70, 38
1, 90532, Note_off_c, 0, 82, 39
1, 90533, Control_c, 0, 64, 85
1, 90548, Control_c, 0, 64, 77
1, 90563, Control_c, 0, 64, 69
1, 90577, Control_c, 0, 64, 62
1, 90592, Control_c, 0, 64, 54
1, 90607, Control_c, 0, 64, 50
1, 90622, Control_c, 0, 64, 50
1, 90628, Note_on_c, 0, 42, 43
1, 90637, Control_c, 0, 64, 52
1, 90651, Control_c, 0, 64, 56
1, 90666, Control_c, 0, 64, 60
1, 90681, Control_c, 0, 64, 66
1, 90696, Control_c, 0, 64, 74
1, 90711, Control_c, 0, 64, 91
1, 90718, Note_off_c, 0, 42, 58
1, 90725, Control_c, 0, 64, 127
1, 90815, Note_off_c, 0, 75, 39
1, 91072, Note_on_c, 0, 81, 54
1, 91074, Note_on_c, 0, 63, 26
1, 91098, Note_on_c, 0, 57, 31
1, 91103, Note_on_c, 0, 54, 21
1, 91109, Note_on_c, 0, 69, 34
1, 91289, Note_on_c, 0, 73, 40
1, 91387, Note_off_c, 0, 73, 57
1, 91423, Note_on_c, 0, 62, 40
1, 91444, Note_on_c, 0, 75, 44
1, 91479, Note_off_c, 0, 62, 60
1, 91485, Note_off_c, 0, 63, 43
1, 91501, Note_off_c, 0, 57, 42
1, 91527, Note_off_c, 0, 54, 42
1, 91578, Note_on_c, 0, 74, 47
1, 91595, Note_off_c, 0, 81, 36
1, 91610, Note_off_c, 0, 75, 38
1, 91625, Note_off_c, 0, 69, 37
1, 91652, Control_c, 0, 64, 102
1, 91668, Control_c, 0, 64, 87
1, 91683, Control_c, 0, 64, 75
1, 91697, Control_c, 0, 64, 65
1, 91712, Control_c, 0, 64, 52
1, 91727, Control_c, 0, 64, 44
1, 91742, Control_c, 0, 64, 45
1, 91751, Note_on_c, 0, 43, 22
1, 91757, Control_c, 0, 64, 46
1, 91772, Control_c, 0, 64, 51
1, 91786, Control_c, 0, 64, 58
1, 91801, Control_c, 0, 64, 66
1, 91816, Control_c, 0, 64, 75
1, 91831, Control_c, 0, 64, 95
1, 91846, Control_c, 0, 64, 127
1, 91854, Note_off_c, 0, 43, 59
1, 91941, Note_off_c, 0, 74, 37
1, 92091, Note_on_c, 0, 82, 67
1, 92105, Note_on_c, 0, 65, 36
1, 92138, Note_on_c, 0, 55, 33
1, 92141, Note_on_c, 0, 70, 35
1, 92150, Note_on_c, 0, 58, 31
1, 92272, Note_on_c, 0, 74, 45
1, 92381, Note_off_c, 0, 74, 62
1, 92409, Note_on_c, 0, 77, 57
1, 92424, Note_on_c, 0, 63, 41
1, 92439, Note_off_c, 0, 65, 59
1, 92467, Note_off_c, 0, 63, 63
1, 92485, Note_off_c, 0, 55, 41
1, 92497, Note_off_c, 0, 58, 40
1, 92537, Note_off_c, 0, 82, 53
1, 92548, Note_on_c, 0, 75, 52
1, 92622, Note_off_c, 0, 70, 35
1, 92632, Note_off_c, 0, 77, 36
1, 92646, Control_c, 0, 64, 113
1, 92661, Control_c, 0, 64, 92
1, 92676, Control_c, 0, 64, 75
1, 92691, Control_c, 0, 64, 63
1, 92697, Note_on_c, 0, 41, 57
1, 92706, Control_c, 0, 64, 44
1, 92720, Control_c, 0, 64, 34
1, 92735, Control_c, 0, 64, 42
1, 92750, Control_c, 0, 64, 49
1, 92765, Control_c, 0, 64, 59
1, 92780, Control_c, 0, 64, 67
1, 92794, Control_c, 0, 64, 78
1, 92804, Note_off_c, 0, 41, 62
1, 92809, Control_c, 0, 64, 113
1, 92824, Control_c, 0, 64, 127
1, 93056, Note_on_c, 0, 80, 68
1, 93058, Note_on_c, 0, 63, 43
1, 93071, Note_on_c, 0, 59, 39
1, 93091, Note_on_c, 0, 56, 32
1, 93092, Note_on_c, 0, 53, 38
1, 93100, Note_on_c, 0, 68, 44
1, 93118, Note_off_c, 0, 75, 42
1, 93246, Note_off_c, 0, 80, 60
1, 93249, Note_on_c, 0, 73, 53
1, 93313, Note_off_c, 0, 63, 60
1, 93376, Note_on_c, 0, 62, 50
1, 93381, Note_on_c, 0, 75, 64
1, 93381, Note_off_c, 0, 53, 41
1, 93404, Note_off_c, 0, 73, 56
1, 93424, Note_off_c, 0, 62, 62
1, 93432, Note_off_c, 0, 59, 59
1, 93465, Note_off_c, 0, 56, 41
1, 93495, Note_off_c, 0, 68, 34
1, 93504, Note_on_c, 0, 74, 63
1, 93516, Note_off_c, 0, 75, 58
1, 93557, Control_c, 0, 64, 121
1, 93572, Control_c, 0, 64, 107
1, 93586, Control_c, 0, 64, 95
1, 93601, Control_c, 0, 64, 80
1, 93616, Control_c, 0, 64, 67
1, 93631, Control_c, 0, 64, 52
1, 93646, Control_c, 0, 64, 23
1, 93657, Note_on_c, 0, 39, 58
1, 93660, Control_c, 0, 64, 28
1, 93675, Control_c, 0, 64, 37
1, 93690, Control_c, 0, 64, 49
1, 93705, Control_c, 0, 64, 59
1, 93720, Control_c, 0, 64, 66
1, 93734, Control_c, 0, 64, 74
1, 93749, Control_c, 0, 64, 97
1, 93751, Note_off_c, 0, 39, 61
1, 93764, Control_c, 0, 64, 127
1, 93802, Note_off_c, 0, 74, 36
1, 93956, Note_on_c, 0, 79, 69
1, 93974, Note_on_c, 0, 62, 42
1, 93980, Note_on_c, 0, 67, 54
1, 93982, Note_on_c, 0, 55, 36
1, 94003, Note_on_c, 0, 51, 38
1, 94123, Note_on_c, 0, 71, 55
1, 94149, Note_off_c, 0, 51, 33
1, 94149, Note_off_c, 0, 79, 57
1, 94183, Note_off_c, 0, 67, 36
1, 94246, Note_on_c, 0, 74, 63
1, 94248, Note_off_c, 0, 62, 60
1, 94250, Note_on_c, 0, 60, 54
1, 94252, Note_off_c, 0, 71, 61
1, 94288, Note_off_c, 0, 60, 64
1, 94311, Note_off_c, 0, 55, 42
1, 94362, Note_on_c, 0, 72, 66
1, 94362, Note_off_c, 0, 74, 61
1, 94425, Control_c, 0, 64, 107
1, 94439, Control_c, 0, 64, 88
1, 94454, Control_c, 0, 64, 71
1, 94469, Control_c, 0, 64, 58
1, 94484, Control_c, 0, 64, 23
1, 94499, Control_c, 0, 64, 19
1, 94501, Note_on_c, 0, 36, 56
1, 94514, Control_c, 0, 64, 33
1, 94529, Control_c, 0, 64, 45
1, 94544, Control_c, 0, 64, 57
1, 94558, Control_c, 0, 64, 65
1, 94573, Control_c, 0, 64, 74
1, 94583, Note_off_c, 0, 36, 60
1, 94588, Control_c, 0, 64, 99
1, 94603, Control_c, 0, 64, 127
1, 94630, Note_off_c, 0, 72, 53
1, 94818, Note_on_c, 0, 72, 63
1, 94847, Note_on_c, 0, 58, 46
1, 94863, Note_on_c, 0, 60, 46
1, 94872, Note_on_c, 0, 51, 29
1, 94998, Note_on_c, 0, 68, 49
1, 95074, Note_off_c, 0, 58, 61
1, 95089, Note_off_c, 0, 60, 31
1, 95111, Note_on_c, 0, 57, 46
1, 95112, Note_on_c, 0, 70, 59
1, 95130, Note_off_c, 0, 68, 53
1, 95148, Note_off_c, 0, 57, 65
1, 95151, Note_off_c, 0, 51, 47
1, 95201, Note_off_c, 0, 72, 50
1, 95233, Note_on_c, 0, 69, 68
1, 95277, Note_off_c, 0, 70, 52
1, 95292, Control_c, 0, 64, 106
1, 95307, Control_c, 0, 64, 83
1, 95322, Control_c, 0, 64, 67
1, 95337, Control_c, 0, 64, 46
1, 95352, Control_c, 0, 64, 31
1, 95361, Note_on_c, 0, 38, 63
1, 95366, Control_c, 0, 64, 43
1, 95381, Control_c, 0, 64, 52
1, 95396, Control_c, 0, 64, 59
1, 95411, Control_c, 0, 64, 66
1, 95426, Control_c, 0, 64, 78
1, 95429, Note_off_c, 0, 69, 63
1, 95440, Control_c, 0, 64, 116
1, 95453, Note_off_c, 0, 38, 60
1, 95455, Control_c, 0, 64, 127
1, 95661, Note_on_c, 0, 75, 80
1, 95679, Note_on_c, 0, 60, 50
1, 95694, Note_on_c, 0, 63, 47
1, 95698, Note_on_c, 0, 55, 42
1, 95719, Note_on_c, 0, 50, 34
1, 95763, Note_off_c, 0, 63, 52
1, 95820, Note_on_c, 0, 71, 60
1, 95879, Note_off_c, 0, 60, 58
1, 95921, Note_on_c, 0, 74, 75
1, 95930, Note_on_c, 0, 54, 52
1, 95945, Note_off_c, 0, 71, 62
1, 95945, Note_off_c, 0, 55, 62
1, 95961, Note_off_c, 0, 50, 47
1, 95961, Note_off_c, 0, 54, 65
1, 95969, Note_off_c, 0, 75, 57
1, 96031, Note_on_c, 0, 72, 77
1, 96060, Note_off_c, 0, 74, 60
1, 96130, Control_c, 0, 64, 90
1, 96144, Control_c, 0, 64, 67
1, 96159, Control_c, 0, 64, 38
1, 96162, Note_on_c, 0, 38, 69
1, 96174, Control_c, 0, 64, 0
1, 96189, Control_c, 0, 64, 43
1, 96204, Note_off_c, 0, 72, 63
1, 96204, Control_c, 0, 64, 59
1, 96219, Control_c, 0, 64, 69
1, 96234, Control_c, 0, 64, 89
1, 96249, Control_c, 0, 64, 127
1, 96258, Note_off_c, 0, 38, 60
1, 96449, Note_on_c, 0, 67, 71
1, 96471, Note_on_c, 0, 63, 56
1, 96477, Note_on_c, 0, 57, 52
1, 96600, Note_on_c, 0, 62, 78
1, 96603, Note_off_c, 0, 63, 61
1, 96621, Note_off_c, 0, 67, 62
1, 96702, Note_on_c, 0, 50, 69
1, 96705, Note_on_c, 0, 69, 87
1, 96708, Note_off_c, 0, 57, 63
1, 96714, Note_on_c, 0, 61, 76
1, 96717, Note_on_c, 0, 66, 74
1, 96720, Note_off_c, 0, 62, 64
1, 96737, Note_off_c, 0, 50, 66
1, 96762, Note_off_c, 0, 61, 60
1, 96800, Note_on_c, 0, 60, 89
1, 96813, Note_off_c, 0, 69, 65
1, 96846, Note_off_c, 0, 66, 53
1, 96855, Note_off_c, 0, 60, 64
1, 96922, Note_on_c, 0, 55, 85
1, 96928, Note_on_c, 0, 43, 74
1, 96952, Note_on_c, 0, 70, 95
1, 96953, Control_c, 0, 64, 78
1, 96954, Note_on_c, 0, 58, 95
1, 96955, Note_on_c, 0, 67, 70
1, 96967, Control_c, 0, 64, 32
1, 96982, Control_c, 0, 64, 0
1, 97030, Note_off_c, 0, 43, 64
1, 97042, Control_c, 0, 64, 53
1, 97054, Note_off_c, 0, 58, 64
1, 97057, Control_c, 0, 64, 73
1, 97072, Control_c, 0, 64, 127
1, 97072, Note_off_c, 0, 55, 64
1, 97077, Note_off_c, 0, 67, 60
1, 97113, Note_off_c, 0, 70, 64
1, 97322, Note_on_c, 0, 65, 75
1, 97337, Note_on_c, 0, 55, 68
1, 97349, Note_on_c, 0, 82, 96
1, 97352, Note_on_c, 0, 70, 90
1, 97504, Note_on_c, 0, 79, 19
1, 97506, Note_on_c, 0, 74, 80
1, 97569, Note_off_c, 0, 79, 42
1, 97612, Note_off_c, 0, 65, 55
1, 97632, Note_on_c, 0, 77, 86
1, 97635, Note_on_c, 0, 63, 70
1, 97640, Note_on_c, 0, 58, 71
1, 97640, Note_off_c, 0, 74, 64
1, 97659, Note_off_c, 0, 55, 60
1, 97663, Note_off_c, 0, 63, 68
1, 97682, Note_off_c, 0, 82, 58
1, 97683, Note_off_c, 0, 58, 63
1, 97736, Note_on_c, 0, 75, 89
1, 97763, Note_off_c, 0, 77, 61
1, 97783, Note_off_c, 0, 70, 58
1, 97856, Control_c, 0, 64, 80
1, 97871, Control_c, 0, 64, 52
1, 97873, Note_off_c, 0, 75, 59
1, 97876, Note_on_c, 0, 54, 100
1, 97882, Note_on_c, 0, 42, 86
1, 97886, Control_c, 0, 64, 0
1, 97930, Control_c, 0, 64, 52
1, 97945, Control_c, 0, 64, 78
1, 97954, Note_off_c, 0, 42, 63
1, 97960, Control_c, 0, 64, 127
1, 97973, Note_off_c, 0, 54, 60
1, 98142, Note_on_c, 0, 81, 99
1, 98148, Note_on_c, 0, 69, 92
1, 98152, Note_on_c, 0, 63, 72
1, 98154, Note_on_c, 0, 54, 66
1, 98194, Note_off_c, 0, 54, 56
1, 98217, Note_off_c, 0, 63, 61
1, 98273, Note_on_c, 0, 73, 82
1, 98348, Note_on_c, 0, 62, 61
1, 98349, Note_on_c, 0, 57, 73
1, 98371, Note_off_c, 0, 62, 61
1, 98377, Note_off_c, 0, 57, 67
1, 98378, Note_on_c, 0, 75, 90
1, 98385, Note_off_c, 0, 73, 63
1, 98401, Note_off_c, 0, 69, 61
1, 98420, Note_off_c, 0, 81, 59
1, 98464, Note_on_c, 0, 74, 83
1, 98479, Note_off_c, 0, 75, 61
1, 98524, Control_c, 0, 64, 81
1, 98539, Control_c, 0, 64, 57
1, 98550, Note_on_c, 0, 55, 104
1, 98554, Control_c, 0, 64, 0
1, 98555, Note_on_c, 0, 43, 87
1, 98569, Note_off_c, 0, 74, 54
1, 98584, Control_c, 0, 64, 44
1, 98606, Control_c, 0, 64, 68
1, 98620, Note_off_c, 0, 43, 64
1, 98621, Control_c, 0, 64, 107
1, 98636, Control_c, 0, 64, 127
1, 98653, Note_off_c, 0, 55, 60
1, 98801, Note_on_c, 0, 82, 102
1, 98803, Note_on_c, 0, 70, 97
1, 98806, Note_on_c, 0, 65, 83
1, 98817, Note_on_c, 0, 55, 74
1, 98915, Note_on_c, 0, 74, 80
1, 98947, Note_off_c, 0, 82, 63
1, 98948, Note_off_c, 0, 70, 57
1, 98964, Note_off_c, 0, 65, 58
1, 98973, Note_on_c, 0, 63, 72
1, 98977, Note_on_c, 0, 58, 71
1, 98989, Note_on_c, 0, 77, 87
1, 98992, Note_off_c, 0, 74, 63
1, 98994, Note_off_c, 0, 55, 61
1, 99001, Note_off_c, 0, 63, 66
1, 99003, Note_off_c, 0, 58, 66
1, 99069, Note_on_c, 0, 75, 90
1, 99085, Note_off_c, 0, 77, 63
1, 99125, Control_c, 0, 64, 96
1, 99140, Control_c, 0, 64, 63
1, 99148, Note_off_c, 0, 75, 59
1, 99155, Control_c, 0, 64, 0
1, 99158, Note_on_c, 0, 53, 104
1, 99164, Note_on_c, 0, 41, 91
1, 99185, Control_c, 0, 64, 39
1, 99200, Control_c, 0, 64, 63
1, 99210, Note_off_c, 0, 41, 65
1, 99215, Control_c, 0, 64, 84
1, 99220, Note_off_c, 0, 53, 60
1, 99229, Control_c, 0, 64, 127
1, 99382, Note_on_c, 0, 80, 97
1, 99386, Note_on_c, 0, 68, 97
1, 99388, Note_on_c, 0, 63, 86
1, 99402, Note_on_c, 0, 54, 47
1, 99414, Note_on_c, 0, 53, 62
1, 99467, Note_off_c, 0, 54, 59
1, 99473, Note_off_c, 0, 63, 61
1, 99479, Note_on_c, 0, 73, 84
1, 99481, Note_off_c, 0, 80, 65
1, 99508, Note_off_c, 0, 53, 55
1, 99518, Note_off_c, 0, 68, 57
1, 99542, Note_on_c, 0, 62, 74
1, 99549, Note_on_c, 0, 75, 89
1, 99550, Note_on_c, 0, 59, 68
1, 99553, Note_on_c, 0, 56, 77
1, 99553, Note_off_c, 0, 73, 65
1, 99566, Note_off_c, 0, 62, 67
1, 99578, Note_off_c, 0, 59, 66
1, 99582, Note_off_c, 0, 56, 68
1, 99617, Note_on_c, 0, 74, 91
1, 99643, Note_off_c, 0, 75, 61
1, 99667, Control_c, 0, 64, 109
1, 99677, Note_off_c, 0, 74, 61
1, 99682, Control_c, 0, 64, 67
1, 99697, Control_c, 0, 64, 0
1, 99710, Note_on_c, 0, 51, 105
1, 99716, Note_on_c, 0, 39, 92
1, 99741, Control_c, 0, 64, 47
1, 99750, Note_off_c, 0, 39, 64
1, 99755, Note_off_c, 0, 51, 67
1, 99756, Control_c, 0, 64, 71
1, 99771, Control_c, 0, 64, 127
1, 99921, Note_on_c, 0, 79, 87
1, 99924, Note_on_c, 0, 67, 89
1, 99927, Note_on_c, 0, 62, 79
1, 99935, Note_on_c, 0, 51, 74
1, 99966, Note_off_c, 0, 51, 65
1, 99998, Note_on_c, 0, 71, 87
1, 99999, Note_off_c, 0, 79, 62
1, 100011, Note_off_c, 0, 62, 54
1, 100012, Note_off_c, 0, 67, 58
1, 100054, Note_on_c, 0, 60, 65
1, 100060, Note_off_c, 0, 71, 64
1, 100067, Note_on_c, 0, 74, 85
1, 100070, Note_on_c, 0, 55, 55
1, 100073, Note_off_c, 0, 60, 64
1, 100103, Note_off_c, 0, 55, 55
1, 100145, Note_on_c, 0, 72, 87
1, 100162, Note_off_c, 0, 74, 63
1, 100192, Note_off_c, 0, 72, 64
1, 100193, Control_c, 0, 64, 104
1, 100207, Control_c, 0, 64, 67
1, 100222, Control_c, 0, 64, 0
1, 100230, Note_on_c, 0, 50, 74
1, 100239, Note_on_c, 0, 48, 75
1, 100240, Note_on_c, 0, 36, 66
1, 100252, Control_c, 0, 64, 52
1, 100253, Note_on_c, 0, 38, 51
1, 100262, Note_off_c, 0, 50, 68
1, 100267, Control_c, 0, 64, 67
1, 100270, Note_off_c, 0, 48, 68
1, 100271, Note_off_c, 0, 36, 62
1, 100282, Control_c, 0, 64, 99
1, 100285, Note_off_c, 0, 38, 55
1, 100297, Control_c, 0, 64, 127
1, 100419, Note_on_c, 0, 58, 74
1, 100422, Note_on_c, 0, 72, 78
1, 100428, Note_on_c, 0, 60, 71
1, 100428, Note_on_c, 0, 48, 61
1, 100483, Note_off_c, 0, 58, 61
1, 100488, Note_off_c, 0, 48, 48
1, 100503, Note_on_c, 0, 68, 81
1, 100514, Note_off_c, 0, 60, 58
1, 100553, Note_on_c, 0, 57, 69
1, 100557, Note_on_c, 0, 51, 74
1, 100564, Note_on_c, 0, 70, 82
1, 100573, Note_off_c, 0, 68, 62
1, 100579, Note_off_c, 0, 57, 66
1, 100588, Note_off_c, 0, 72, 58
1, 100591, Note_off_c, 0, 51, 67
1, 100637, Note_on_c, 0, 69, 86
1, 100653, Note_off_c, 0, 70, 63
1, 100686, Note_off_c, 0, 69, 65
1, 100697, Control_c, 0, 64, 89
1, 100712, Control_c, 0, 64, 58
1, 100716, Note_on_c, 0, 38, 91
1, 100726, Control_c, 0, 64, 0
1, 100771, Control_c, 0, 64, 51
1, 100786, Note_off_c, 0, 38, 64
1, 100786, Control_c, 0, 64, 73
1, 100801, Control_c, 0, 64, 127
1, 100898, Note_on_c, 0, 75, 98
1, 100901, Note_on_c, 0, 63, 89
1, 100906, Note_on_c, 0, 55, 83
1, 100917, Note_on_c, 0, 45, 65
1, 100944, Note_off_c, 0, 63, 63
1, 100965, Note_on_c, 0, 71, 82
1, 100986, Note_off_c, 0, 75, 62
1, 101030, Note_off_c, 0, 55, 59
1, 101036, Note_on_c, 0, 54, 75
1, 101037, Note_on_c, 0, 74, 87
1, 101040, Note_off_c, 0, 71, 65
1, 101042, Note_on_c, 0, 48, 72
1, 101060, Note_off_c, 0, 54, 68
1, 101063, Note_off_c, 0, 45, 58
1, 101076, Note_off_c, 0, 48, 66
1, 101107, Note_on_c, 0, 72, 89
1, 101133, Note_off_c, 0, 74, 64
1, 101151, Note_off_c, 0, 72, 67
1, 101178, Control_c, 0, 64, 75
1, 101193, Control_c, 0, 64, 24
1, 101197, Note_on_c, 0, 38, 91
1, 101207, Control_c, 0, 64, 0
1, 101237, Control_c, 0, 64, 49
1, 101253, Control_c, 0, 64, 73
1, 101260, Note_off_c, 0, 38, 62
1, 101268, Control_c, 0, 64, 127
1, 101385, Note_on_c, 0, 54, 97
1, 101388, Note_on_c, 0, 66, 88
1, 101398, Note_on_c, 0, 51, 81
1, 101403, Note_on_c, 0, 45, 69
1, 101450, Note_off_c, 0, 54, 62
1, 101463, Note_on_c, 0, 61, 85
1, 101476, Note_off_c, 0, 51, 59
1, 101477, Note_off_c, 0, 66, 61
1, 101522, Note_on_c, 0, 50, 59
1, 101535, Note_on_c, 0, 48, 65
1, 101536, Note_on_c, 0, 63, 84
1, 101542, Note_off_c, 0, 61, 62
1, 101551, Note_off_c, 0, 50, 66
1, 101557, Note_off_c, 0, 45, 38
1, 101561, Note_off_c, 0, 48, 65
1, 101604, Note_on_c, 0, 62, 89
1, 101657, Note_off_c, 0, 63, 59
1, 101689, Control_c, 0, 64, 113
1, 101704, Control_c, 0, 64, 69
1, 101709, Note_on_c, 0, 50, 67
1, 101716, Note_on_c, 0, 43, 69
1, 101716, Note_on_c, 0, 67, 92
1, 101719, Note_on_c, 0, 58, 90
1, 101719, Control_c, 0, 64, 0
1, 101735, Note_off_c, 0, 62, 61
1, 101772, Note_off_c, 0, 50, 64
1, 101778, Control_c, 0, 64, 60
1, 101787, Note_off_c, 0, 43, 65
1, 101793, Control_c, 0, 64, 77
1, 101797, Note_off_c, 0, 67, 65
1, 101805, Note_off_c, 0, 58, 63
1, 101808, Control_c, 0, 64, 127
1, 101927, Control_c, 0, 64, 79
1, 101942, Control_c, 0, 64, 52
1, 101957, Control_c, 0, 64, 0
1, 101960, Note_on_c, 0, 43, 72
1, 101966, Note_on_c, 0, 31, 64
1, 101968, Note_on_c, 0, 60, 67
1, 101984, Note_on_c, 0, 55, 53
1, 102029, Note_off_c, 0, 55, 63
1, 102031, Control_c, 0, 64, 33
1, 102032, Note_on_c, 0, 58, 76
1, 102047, Control_c, 0, 64, 59
1, 102049, Note_off_c, 0, 60, 61
1, 102050, Note_off_c, 0, 31, 61
1, 102062, Control_c, 0, 64, 68
1, 102066, Note_off_c, 0, 43, 62
1, 102076, Control_c, 0, 64, 81
1, 102091, Control_c, 0, 64, 127
1, 102100, Note_off_c, 0, 58, 63
1, 102102, Note_on_c, 0, 57, 81
1, 102151, Note_off_c, 0, 57, 64
1, 102154, Note_on_c, 0, 55, 81
1, 102210, Control_c, 0, 64, 113
1, 102225, Control_c, 0, 64, 70
1, 102229, Note_on_c, 0, 67, 86
1, 102235, Note_on_c, 0, 58, 81
1, 102237, Note_on_c, 0, 50, 76
1, 102240, Control_c, 0, 64, 28
1, 102245, Note_off_c, 0, 55, 62
1, 102247, Note_on_c, 0, 43, 65
1, 102254, Control_c, 0, 64, 0
1, 102277, Note_off_c, 0, 43, 64
1, 102280, Note_off_c, 0, 50, 63
1, 102286, Note_off_c, 0, 67, 66
1, 102294, Note_off_c, 0, 58, 62
1, 102298, Control_c, 0, 64, 35
1, 102313, Control_c, 0, 64, 61
1, 102328, Control_c, 0, 64, 76
1, 102351, Control_c, 0, 64, 113
1, 102366, Control_c, 0, 64, 127
1, 102410, Control_c, 0, 64, 121
1, 102425, Control_c, 0, 64, 75
1, 102430, Note_on_c, 0, 51, 83
1, 102439, Note_on_c, 0, 60, 73
1, 102440, Control_c, 0, 64, 51
1, 102448, Note_on_c, 0, 43, 58
1, 102454, Control_c, 0, 64, 0
1, 102455, Note_on_c, 0, 55, 53
1, 102486, Note_off_c, 0, 55, 62
1, 102494, Note_on_c, 0, 50, 72
1, 102494, Note_on_c, 0, 58, 79
1, 102503, Note_off_c, 0, 51, 62
1, 102513, Control_c, 0, 64, 15
1, 102515, Note_off_c, 0, 60, 62
1, 102528, Control_c, 0, 64, 53
1, 102543, Control_c, 0, 64, 67
1, 102545, Note_off_c, 0, 43, 63
1, 102556, Note_off_c, 0, 50, 63
1, 102558, Control_c, 0, 64, 79
1, 102559, Note_on_c, 0, 57, 75
1, 102562, Note_off_c, 0, 58, 64
1, 102573, Control_c, 0, 64, 108
1, 102587, Control_c, 0, 64, 127
1, 102610, Note_off_c, 0, 57, 64
1, 102617, Note_on_c, 0, 55, 76
1, 102617, Control_c, 0, 64, 114
1, 102632, Control_c, 0, 64, 96
1, 102647, Control_c, 0, 64, 86
1, 102661, Control_c, 0, 64, 81
1, 102676, Control_c, 0, 64, 76
1, 102691, Control_c, 0, 64, 70
1, 102694, Note_off_c, 0, 55, 62
1, 102705, Control_c, 0, 64, 66
1, 102720, Control_c, 0, 64, 63
1, 102725, Note_on_c, 0, 43, 58
1, 102728, Note_on_c, 0, 65, 66
1, 102729, Note_on_c, 0, 48, 56
1, 102729, Note_on_c, 0, 51, 72
1, 102735, Control_c, 0, 64, 60
1, 102750, Control_c, 0, 64, 55
1, 102765, Control_c, 0, 64, 42
1, 102780, Control_c, 0, 64, 0
1, 102839, Control_c, 0, 64, 24
1, 102855, Control_c, 0, 64, 44
1, 102857, Note_on_c, 0, 60, 65
1, 102869, Control_c, 0, 64, 58
1, 102884, Control_c, 0, 64, 67
1, 102885, Note_off_c, 0, 43, 54
1, 102899, Control_c, 0, 64, 77
1, 102914, Control_c, 0, 64, 112
1, 102929, Control_c, 0, 64, 127
1, 102935, Note_on_c, 0, 57, 83
1, 102946, Note_off_c, 0, 60, 58
1, 102954, Note_on_c, 0, 63, 66
1, 102964, Note_off_c, 0, 65, 58
1, 103012, Note_on_c, 0, 54, 80
1, 103051, Note_off_c, 0, 63, 58
1, 103054, Poly_aftertouch_c, 0, 65, 127
1, 103078, Note_off_c, 0, 54, 65
1, 103080, Note_on_c, 0, 60, 76
1, 103085, Poly_aftertouch_c, 0, 65, 0
1, 103111, Note_off_c, 0, 57, 62
1, 103150, Note_on_c, 0, 63, 84
1, 103155, Note_off_c, 0, 60, 65
1, 103173, Note_off_c, 0, 63, 69
1, 103215, Note_on_c, 0, 66, 79
1, 103264, Note_off_c, 0, 66, 64
1, 103285, Note_on_c, 0, 72, 87
1, 103320, Note_off_c, 0, 51, 63
1, 103343, Note_on_c, 0, 55, 93
1, 103347, Note_on_c, 0, 43, 76
1, 103347, Note_on_c, 0, 77, 91
1, 103349, Note_off_c, 0, 72, 66
1, 103350, Note_off_c, 0, 48, 40
1, 103366, Note_off_c, 0, 55, 69
1, 103378, Note_off_c, 0, 43, 65
1, 103415, Note_on_c, 0, 75, 91
1, 103436, Note_off_c, 0, 77, 65
1, 103480, Note_on_c, 0, 74, 95
1, 103482, Note_on_c, 0, 63, 95
1, 103483, Note_on_c, 0, 51, 88
1, 103513, Note_off_c, 0, 75, 61
1, 103528, Note_off_c, 0, 63, 60
1, 103531, Note_off_c, 0, 51, 61
1, 103547, Note_on_c, 0, 72, 95
1, 103549, Note_off_c, 0, 74, 65
1, 103601, Control_c, 0, 64, 112
1, 103616, Control_c, 0, 64, 62
1, 103623, Note_on_c, 0, 79, 96
1, 103626, Note_on_c, 0, 62, 89
1, 103628, Note_on_c, 0, 70, 93
1, 103630, Note_on_c, 0, 50, 89
1, 103631, Control_c, 0, 64, 0
1, 103650, Note_off_c, 0, 62, 67
1, 103650, Note_off_c, 0, 72, 64
1, 103662, Control_c, 0, 64, 43
1, 103677, Note_off_c, 0, 50, 64
1, 103677, Control_c, 0, 64, 64
1, 103682, Note_off_c, 0, 70, 68
1, 103691, Control_c, 0, 64, 86
1, 103692, Note_off_c, 0, 79, 67
1, 103706, Control_c, 0, 64, 127
1, 103795, Control_c, 0, 64, 101
1, 103810, Control_c, 0, 64, 68
1, 103823, Note_on_c, 0, 55, 90
1, 103824, Control_c, 0, 64, 41
1, 103826, Note_on_c, 0, 43, 83
1, 103835, Note_on_c, 0, 72, 83
1, 103847, Control_c, 0, 64, 0
1, 103862, Control_c, 0, 64, 35
1, 103863, Note_on_c, 0, 67, 59
1, 103876, Control_c, 0, 64, 60
1, 103889, Note_off_c, 0, 67, 62
1, 103891, Control_c, 0, 64, 77
1, 103893, Note_off_c, 0, 43, 62
1, 103896, Note_on_c, 0, 70, 84
1, 103901, Note_off_c, 0, 55, 62
1, 103906, Control_c, 0, 64, 127
1, 103921, Note_off_c, 0, 72, 60
1, 103960, Note_on_c, 0, 69, 90
1, 103978, Note_off_c, 0, 70, 62
1, 104011, Note_on_c, 0, 67, 80
1, 104012, Note_off_c, 0, 69, 67
1, 104083, Control_c, 0, 64, 82
1, 104085, Note_on_c, 0, 79, 93
1, 104091, Note_on_c, 0, 62, 92
1, 104092, Note_on_c, 0, 70, 92
1, 104098, Note_on_c, 0, 55, 77
1, 104098, Control_c, 0, 64, 48
1, 104105, Note_off_c, 0, 67, 62
1, 104113, Control_c, 0, 64, 0
1, 104122, Note_off_c, 0, 55, 70
1, 104134, Note_off_c, 0, 62, 66
1, 104142, Control_c, 0, 64, 33
1, 104145, Note_off_c, 0, 79, 67
1, 104148, Note_off_c, 0, 70, 65
1, 104157, Control_c, 0, 64, 63
1, 104172, Control_c, 0, 64, 89
1, 104187, Control_c, 0, 64, 127
1, 104247, Control_c, 0, 64, 99
1, 104261, Control_c, 0, 64, 65
1, 104263, Note_on_c, 0, 63, 89
1, 104276, Control_c, 0, 64, 0
1, 104277, Note_on_c, 0, 72, 85
1, 104279, Note_on_c, 0, 55, 76
1, 104288, Note_on_c, 0, 67, 70
1, 104320, Note_off_c, 0, 67, 62
1, 104326, Note_on_c, 0, 62, 79
1, 104328, Note_on_c, 0, 70, 87
1, 104333, Note_off_c, 0, 63, 64
1, 104336, Control_c, 0, 64, 40
1, 104350, Control_c, 0, 64, 64
1, 104360, Note_off_c, 0, 55, 63
1, 104360, Note_off_c, 0, 72, 62
1, 104365, Control_c, 0, 64, 92
1, 104375, Note_off_c, 0, 62, 64
1, 104380, Control_c, 0, 64, 127
1, 104393, Note_on_c, 0, 69, 91
1, 104412, Note_off_c, 0, 70, 64
1, 104455, Note_on_c, 0, 67, 87
1, 104455, Note_off_c, 0, 69, 67
1, 104549, Note_off_c, 0, 67, 62
1, 104557, Note_on_c, 0, 55, 75
1, 104559, Control_c, 0, 64, 105
1, 104562, Note_on_c, 0, 60, 72
1, 104562, Note_on_c, 0, 63, 87
1, 104569, Note_on_c, 0, 77, 86
1, 104573, Control_c, 0, 64, 81
1, 104595, Control_c, 0, 64, 65
1, 104610, Control_c, 0, 64, 37
1, 104625, Control_c, 0, 64, 0
1, 104670, Control_c, 0, 64, 20
1, 104685, Control_c, 0, 64, 59
1, 104693, Note_on_c, 0, 72, 79
1, 104699, Control_c, 0, 64, 79
1, 104714, Note_off_c, 0, 55, 53
1, 104714, Control_c, 0, 64, 127
1, 104727, Note_off_c, 0, 77, 58
1, 104775, Note_on_c, 0, 75, 81
1, 104776, Note_on_c, 0, 69, 92
1, 104785, Note_off_c, 0, 72, 62
1, 104840, Note_on_c, 0, 66, 79
1, 104882, Note_off_c, 0, 75, 60
1, 104899, Note_off_c, 0, 66, 64
1, 104905, Note_on_c, 0, 72, 85
1, 104924, Note_off_c, 0, 69, 59
1, 104970, Note_on_c, 0, 75, 90
1, 104975, Note_off_c, 0, 72, 67
1, 104992, Note_off_c, 0, 75, 70
1, 105022, Note_off_c, 0, 63, 53
1, 105035, Note_on_c, 0, 78, 92
1, 105081, Note_off_c, 0, 78, 66
1, 105104, Note_on_c, 0, 84, 97
1, 105135, Note_off_c, 0, 60, 0
1, 105172, Poly_aftertouch_c, 0, 60, 127
1, 105180, Note_off_c, 0, 84, 65
1, 105180, Note_on_c, 0, 89, 98
1, 105183, Note_on_c, 0, 67, 104
1, 105187, Note_on_c, 0, 55, 90
1, 105203, Poly_aftertouch_c, 0, 60, 0
1, 105210, Note_off_c, 0, 55, 68
1, 105216, Note_off_c, 0, 67, 68
1, 105264, Note_on_c, 0, 87, 97
1, 105285, Note_off_c, 0, 89, 65
1, 105320, Note_off_c, 0, 87, 66
1, 105358, Note_on_c, 0, 86, 99
1, 105364, Note_on_c, 0, 75, 107
1, 105366, Note_on_c, 0, 63, 93
1, 105443, Note_off_c, 0, 86, 55
1, 105445, Note_on_c, 0, 84, 105
1, 105475, Note_off_c, 0, 75, 59
1, 105481, Note_off_c, 0, 63, 59
1, 105577, Note_on_c, 0, 91, 104
1, 105582, Note_on_c, 0, 74, 104
1, 105582, Note_on_c, 0, 82, 100
1, 105588, Note_on_c, 0, 67, 86
1, 105610, Note_off_c, 0, 84, 61
1, 105612, Control_c, 0, 64, 73
1, 105627, Control_c, 0, 64, 30
1, 105642, Control_c, 0, 64, 0
1, 105701, Control_c, 0, 64, 20
1, 105715, Control_c, 0, 64, 54
1, 105726, Note_off_c, 0, 82, 63
1, 105730, Control_c, 0, 64, 66
1, 105745, Control_c, 0, 64, 80
1, 105746, Note_off_c, 0, 91, 63
1, 105760, Control_c, 0, 64, 127
1, 105800, Note_off_c, 0, 74, 55
1, 105878, Note_off_c, 0, 67, 33
1, 105908, Control_c, 0, 64, 89
1, 105922, Control_c, 0, 64, 72
1, 105937, Control_c, 0, 64, 59
1, 105952, Control_c, 0, 64, 0
1, 105992, Note_on_c, 0, 96, 100
1, 105996, Note_on_c, 0, 91, 95
1, 106042, Control_c, 0, 64, 50
1, 106057, Control_c, 0, 64, 65
1, 106072, Control_c, 0, 64, 80
1, 106094, Control_c, 0, 64, 127
1, 106108, Note_on_c, 0, 94, 99
1, 106127, Note_off_c, 0, 91, 65
1, 106146, Note_off_c, 0, 96, 62
1, 106190, Note_on_c, 0, 86, 98
1, 106222, Note_off_c, 0, 94, 63
1, 106272, Control_c, 0, 64, 110
1, 106282, Note_on_c, 0, 75, 105
1, 106287, Control_c, 0, 64, 74
1, 106289, Note_on_c, 0, 69, 80
1, 106289, Note_on_c, 0, 66, 74
1, 106290, Note_on_c, 0, 63, 82
1, 106300, Note_on_c, 0, 94, 103
1, 106301, Control_c, 0, 64, 56
1, 106308, Note_on_c, 0, 90, 87
1, 106316, Control_c, 0, 64, 30
1, 106319, Note_off_c, 0, 86, 64
1, 106331, Control_c, 0, 64, 54
1, 106345, Control_c, 0, 64, 64
1, 106360, Control_c, 0, 64, 77
1, 106375, Control_c, 0, 64, 127
1, 106386, Note_on_c, 0, 93, 93
1, 106395, Note_off_c, 0, 90, 64
1, 106405, Note_off_c, 0, 94, 65
1, 106411, Note_off_c, 0, 75, 58
1, 106452, Note_off_c, 0, 93, 64
1, 106458, Note_off_c, 0, 63, 60
1, 106473, Note_on_c, 0, 86, 74
1, 106480, Note_off_c, 0, 66, 60
1, 106497, Note_on_c, 0, 74, 81
1, 106498, Note_off_c, 0, 86, 69
1, 106557, Note_on_c, 0, 82, 85
1, 106577, Note_on_c, 0, 78, 63
1, 106585, Note_off_c, 0, 74, 58
1, 106599, Note_off_c, 0, 78, 65
1, 106623, Note_on_c, 0, 81, 86
1, 106626, Note_off_c, 0, 69, 63
1, 106632, Note_on_c, 0, 62, 72
1, 106654, Note_off_c, 0, 82, 63
1, 106658, Note_off_c, 0, 62, 67
1, 106694, Note_on_c, 0, 74, 83
1, 106700, Note_off_c, 0, 81, 62
1, 106745, Control_c, 0, 64, 80
1, 106760, Control_c, 0, 64, 63
1, 106770, Note_on_c, 0, 55, 73
1, 106774, Note_on_c, 0, 84, 83
1, 106775, Control_c, 0, 64, 43
1, 106786, Note_off_c, 0, 74, 62
1, 106787, Note_on_c, 0, 79, 73
1, 106790, Control_c, 0, 64, 55
1, 106805, Control_c, 0, 64, 64
1, 106819, Control_c, 0, 64, 72
1, 106822, Note_off_c, 0, 55, 61
1, 106843, Control_c, 0, 64, 95
1, 106856, Note_on_c, 0, 82, 84
1, 106858, Control_c, 0, 64, 127
1, 106866, Note_off_c, 0, 79, 63
1, 106876, Note_off_c, 0, 82, 72
1, 106879, Note_off_c, 0, 84, 65
1, 106923, Note_on_c, 0, 62, 89
1, 106926, Note_on_c, 0, 86, 92
1, 106992, Note_on_c, 0, 96, 102
1, 107011, Note_on_c, 0, 91, 84
1, 107014, Note_off_c, 0, 86, 61
1, 107049, Note_on_c, 0, 74, 94
1, 107055, Note_on_c, 0, 94, 91
1, 107066, Note_off_c, 0, 62, 64
1, 107073, Note_off_c, 0, 91, 65
1, 107094, Note_off_c, 0, 96, 64
1, 107096, Note_off_c, 0, 74, 64
1, 107114, Note_on_c, 0, 86, 88
1, 107134, Note_off_c, 0, 94, 65
1, 107143, Poly_aftertouch_c, 0, 69, 127
1, 107177, Note_on_c, 0, 69, 35
1, 107183, Note_on_c, 0, 75, 106
1, 107183, Control_c, 0, 64, 100
1, 107189, Note_on_c, 0, 94, 95
1, 107191, Note_on_c, 0, 66, 76
1, 107198, Control_c, 0, 64, 68
1, 107199, Note_on_c, 0, 90, 84
1, 107201, Note_on_c, 0, 63, 76
1, 107207, Note_off_c, 0, 86, 63
1, 107213, Control_c, 0, 64, 37
1, 107218, Note_on_c, 0, 76, 48
1, 107228, Control_c, 0, 64, 0
1, 107242, Note_off_c, 0, 76, 39
1, 107242, Control_c, 0, 64, 53
1, 107244, Note_off_c, 0, 90, 62
1, 107257, Control_c, 0, 64, 70
1, 107260, Note_on_c, 0, 93, 86
1, 107272, Control_c, 0, 64, 127
1, 107288, Note_off_c, 0, 75, 61
1, 107307, Note_off_c, 0, 94, 62
1, 107323, Note_off_c, 0, 93, 66
1, 107333, Note_on_c, 0, 86, 78
1, 107341, Note_off_c, 0, 63, 61
1, 107347, Note_off_c, 0, 66, 62
1, 107358, Note_off_c, 0, 86, 70
1, 107364, Note_on_c, 0, 74, 83
1, 107419, Note_on_c, 0, 82, 88
1, 107435, Note_on_c, 0, 78, 69
1, 107443, Note_off_c, 0, 74, 59
1, 107463, Note_off_c, 0, 78, 66
1, 107481, Note_on_c, 0, 81, 84
1, 107484, Note_on_c, 0, 62, 75
1, 107491, Note_off_c, 0, 69, 64
1, 107517, Note_off_c, 0, 82, 62
1, 107518, Note_off_c, 0, 62, 61
1, 107549, Note_on_c, 0, 74, 83
1, 107563, Note_off_c, 0, 81, 57
1, 107633, Note_on_c, 0, 84, 83
1, 107636, Control_c, 0, 64, 78
1, 107645, Note_on_c, 0, 79, 75
1, 107645, Note_on_c, 0, 55, 83
1, 107645, Note_off_c, 0, 74, 62
1, 107651, Control_c, 0, 64, 60
1, 107666, Control_c, 0, 64, 39
1, 107681, Control_c, 0, 64, 57
1, 107695, Control_c, 0, 64, 67
1, 107709, Note_on_c, 0, 82, 84
1, 107710, Control_c, 0, 64, 86
1, 107722, Note_off_c, 0, 79, 65
1, 107725, Control_c, 0, 64, 127
1, 107733, Note_off_c, 0, 84, 65
1, 107738, Note_off_c, 0, 82, 66
1, 107746, Note_off_c, 0, 55, 63
1, 107779, Note_on_c, 0, 86, 94
1, 107842, Note_on_c, 0, 96, 99
1, 107853, Note_on_c, 0, 91, 93
1, 107863, Note_off_c, 0, 86, 62
1, 107903, Note_on_c, 0, 50, 99
1, 107910, Note_on_c, 0, 94, 99
1, 107919, Note_off_c, 0, 91, 64
1, 107947, Note_off_c, 0, 96, 64
1, 107976, Note_on_c, 0, 86, 91
1, 107980, Note_off_c, 0, 50, 63
1, 108002, Note_off_c, 0, 94, 64
1, 108063, Note_on_c, 0, 57, 63
1, 108064, Note_on_c, 0, 94, 95
1, 108065, Control_c, 0, 64, 104
1, 108068, Note_on_c, 0, 63, 99
1, 108072, Note_on_c, 0, 54, 84
1, 108074, Note_on_c, 0, 90, 82
1, 108077, Note_on_c, 0, 51, 90
1, 108080, Control_c, 0, 64, 68
1, 108084, Note_off_c, 0, 86, 61
1, 108095, Control_c, 0, 64, 11
1, 108110, Control_c, 0, 64, 23
1, 108124, Control_c, 0, 64, 56
1, 108139, Control_c, 0, 64, 65
1, 108143, Note_on_c, 0, 93, 89
1, 108145, Note_off_c, 0, 90, 63
1, 108154, Control_c, 0, 64, 83
1, 108163, Note_off_c, 0, 94, 65
1, 108169, Control_c, 0, 64, 127
1, 108184, Note_off_c, 0, 63, 59
1, 108205, Note_off_c, 0, 93, 66
1, 108214, Note_on_c, 0, 86, 79
1, 108238, Note_off_c, 0, 86, 69
1, 108247, Note_off_c, 0, 51, 49
1, 108250, Note_on_c, 0, 62, 84
1, 108256, Note_off_c, 0, 54, 62
1, 108294, Note_on_c, 0, 82, 86
1, 108327, Note_on_c, 0, 78, 42
1, 108342, Note_off_c, 0, 62, 52
1, 108362, Note_off_c, 0, 78, 55
1, 108363, Note_on_c, 0, 81, 83
1, 108371, Note_on_c, 0, 50, 73
1, 108375, Note_off_c, 0, 57, 64
1, 108396, Note_off_c, 0, 82, 63
1, 108401, Note_off_c, 0, 50, 64
1, 108417, Note_off_c, 0, 81, 65
1, 108426, Note_on_c, 0, 74, 83
1, 108451, Note_off_c, 0, 74, 68
1, 108488, Control_c, 0, 64, 113
1, 108503, Control_c, 0, 64, 70
1, 108504, Note_on_c, 0, 43, 71
1, 108507, Note_on_c, 0, 72, 82
1, 108518, Control_c, 0, 64, 24
1, 108530, Note_on_c, 0, 67, 75
1, 108533, Control_c, 0, 64, 0
1, 108547, Control_c, 0, 64, 44
1, 108560, Note_off_c, 0, 43, 62
1, 108562, Control_c, 0, 64, 68
1, 108577, Control_c, 0, 64, 95
1, 108578, Note_on_c, 0, 70, 76
1, 108579, Note_off_c, 0, 67, 62
1, 108584, Note_off_c, 0, 72, 65
1, 108592, Control_c, 0, 64, 127
1, 108599, Note_off_c, 0, 70, 70
1, 108646, Note_on_c, 0, 74, 92
1, 108649, Note_on_c, 0, 50, 83
1, 108710, Note_on_c, 0, 84, 99
1, 108727, Note_on_c, 0, 79, 77
1, 108731, Note_off_c, 0, 74, 59
1, 108775, Note_on_c, 0, 82, 84
1, 108783, Note_off_c, 0, 79, 64
1, 108784, Note_on_c, 0, 62, 94
1, 108804, Note_off_c, 0, 50, 60
1, 108808, Note_off_c, 0, 84, 61
1, 108837, Note_on_c, 0, 74, 85
1, 108840, Note_off_c, 0, 62, 64
1, 108845, Note_off_c, 0, 82, 64
1, 108884, Poly_aftertouch_c, 0, 57, 127
1, 108907, Poly_aftertouch_c, 0, 55, 127
1, 108909, Note_on_c, 0, 82, 85
1, 108915, Note_on_c, 0, 57, 14
1, 108915, Note_on_c, 0, 78, 80
1, 108918, Note_on_c, 0, 63, 96
1, 108926, Note_off_c, 0, 74, 62
1, 108927, Note_on_c, 0, 51, 82
1, 108927, Note_on_c, 0, 54, 74
1, 108933, Control_c, 0, 64, 75
1, 108947, Poly_aftertouch_c, 0, 55, 0
1, 108947, Control_c, 0, 64, 51
1, 108962, Control_c, 0, 64, 0
1, 108977, Control_c, 0, 64, 39
1, 108979, Note_on_c, 0, 81, 78
1, 108984, Note_off_c, 0, 78, 63
1, 108992, Control_c, 0, 64, 64
1, 109006, Control_c, 0, 64, 85
1, 109011, Note_off_c, 0, 63, 61
1, 109014, Note_off_c, 0, 82, 63
1, 109021, Control_c, 0, 64, 127
1, 109034, Note_off_c, 0, 81, 65
1, 109048, Note_on_c, 0, 74, 72
1, 109058, Note_off_c, 0, 51, 61
1, 109073, Note_off_c, 0, 74, 69
1, 109078, Note_off_c, 0, 54, 56
1, 109080, Note_on_c, 0, 62, 87
1, 109138, Note_on_c, 0, 70, 84
1, 109168, Note_on_c, 0, 66, 51
1, 109176, Note_off_c, 0, 62, 62
1, 109190, Note_off_c, 0, 66, 60
1, 109204, Note_on_c, 0, 69, 78
1, 109210, Note_on_c, 0, 50, 80
1, 109226, Note_off_c, 0, 57, 55
1, 109249, Note_off_c, 0, 50, 63
1, 109252, Note_off_c, 0, 70, 59
1, 109267, Note_on_c, 0, 62, 82
1, 109309, Note_off_c, 0, 69, 56
1, 109341, Control_c, 0, 64, 113
1, 109356, Control_c, 0, 64, 73
1, 109360, Note_on_c, 0, 43, 75
1, 109367, Note_on_c, 0, 72, 75
1, 109371, Control_c, 0, 64, 51
1, 109372, Note_on_c, 0, 67, 68
1, 109372, Note_off_c, 0, 62, 61
1, 109386, Control_c, 0, 64, 0
1, 109401, Control_c, 0, 64, 53
1, 109415, Control_c, 0, 64, 65
1, 109421, Note_off_c, 0, 43, 63
1, 109430, Control_c, 0, 64, 80
1, 109443, Note_on_c, 0, 70, 83
1, 109445, Control_c, 0, 64, 127
1, 109453, Note_off_c, 0, 67, 62
1, 109466, Note_off_c, 0, 70, 70
1, 109466, Note_off_c, 0, 72, 63
1, 109512, Note_on_c, 0, 58, 74
1, 109514, Note_on_c, 0, 50, 74
1, 109520, Note_on_c, 0, 74, 88
1, 109539, Note_off_c, 0, 58, 66
1, 109552, Note_off_c, 0, 50, 65
1, 109585, Note_on_c, 0, 84, 96
1, 109598, Note_on_c, 0, 79, 79
1, 109602, Note_off_c, 0, 74, 59
1, 109644, Note_on_c, 0, 82, 89
1, 109649, Note_off_c, 0, 79, 65
1, 109672, Note_off_c, 0, 84, 63
1, 109696, Control_c, 0, 64, 75
1, 109699, Note_on_c, 0, 74, 81
1, 109706, Note_off_c, 0, 82, 68
1, 109711, Control_c, 0, 64, 39
1, 109722, Note_off_c, 0, 74, 69
1, 109726, Control_c, 0, 64, 0
1, 109772, Note_on_c, 0, 49, 85
1, 109773, Note_on_c, 0, 81, 89
1, 109778, Note_on_c, 0, 74, 89
1, 109779, Note_on_c, 0, 37, 75
1, 109800, Control_c, 0, 64, 33
1, 109806, Note_off_c, 0, 74, 63
1, 109814, Note_off_c, 0, 49, 53
1, 109815, Control_c, 0, 64, 64
1, 109819, Note_off_c, 0, 37, 60
1, 109837, Control_c, 0, 64, 81
1, 109844, Note_on_c, 0, 79, 81
1, 109852, Control_c, 0, 64, 127
1, 109863, Note_off_c, 0, 81, 64
1, 109893, Note_off_c, 0, 79, 65
1, 109916, Note_on_c, 0, 70, 74
1, 109923, Note_on_c, 0, 50, 91
1, 109934, Note_on_c, 0, 38, 75
1, 109946, Note_off_c, 0, 50, 70
1, 109949, Note_off_c, 0, 70, 52
1, 109964, Note_off_c, 0, 38, 63
1, 109989, Note_on_c, 0, 75, 84
1, 109995, Note_on_c, 0, 70, 69
1, 110052, Note_on_c, 0, 74, 85
1, 110059, Note_off_c, 0, 70, 63
1, 110080, Note_off_c, 0, 75, 63
1, 110108, Note_on_c, 0, 67, 79
1, 110117, Note_off_c, 0, 74, 63
1, 110131, Note_off_c, 0, 67, 69
1, 110135, Control_c, 0, 64, 81
1, 110149, Control_c, 0, 64, 51
1, 110164, Control_c, 0, 64, 0
1, 110179, Note_on_c, 0, 72, 94
1, 110182, Note_on_c, 0, 31, 69
1, 110183, Note_on_c, 0, 43, 79
1, 110190, Note_on_c, 0, 67, 77
1, 110208, Control_c, 0, 64, 38
1, 110215, Note_off_c, 0, 31, 66
1, 110223, Control_c, 0, 64, 61
1, 110238, Control_c, 0, 64, 73
1, 110244, Note_on_c, 0, 70, 81
1, 110248, Note_off_c, 0, 67, 64
1, 110253, Control_c, 0, 64, 95
1, 110268, Control_c, 0, 64, 127
1, 110272, Note_off_c, 0, 72, 62
1, 110289, Note_off_c, 0, 43, 62
1, 110298, Note_on_c, 0, 62, 73
1, 110302, Note_off_c, 0, 70, 64
1, 110316, Note_on_c, 0, 50, 82
1, 110322, Note_off_c, 0, 62, 67
1, 110341, Note_off_c, 0, 50, 68
1, 110374, Note_on_c, 0, 69, 84
1, 110381, Note_on_c, 0, 62, 74
1, 110405, Note_off_c, 0, 62, 69
1, 110444, Note_on_c, 0, 67, 65
1, 110444, Note_off_c, 0, 69, 61
1, 110473, Note_off_c, 0, 67, 66
1, 110486, Note_on_c, 0, 58, 79
1, 110548, Note_off_c, 0, 58, 0
1, 110563, Note_on_c, 0, 63, 79
1, 110563, Note_on_c, 0, 37, 67
1, 110564, Control_c, 0, 64, 82
1, 110586, Control_c, 0, 64, 64
1, 110593, Poly_aftertouch_c, 0, 58, 127
1, 110601, Control_c, 0, 64, 29
1, 110616, Control_c, 0, 64, 0
1, 110632, Note_on_c, 0, 62, 76
1, 110641, Poly_aftertouch_c, 0, 58, 0
1, 110659, Note_off_c, 0, 63, 61
1, 110660, Control_c, 0, 64, 31
1, 110675, Control_c, 0, 64, 50
1, 110690, Control_c, 0, 64, 64
1, 110693, Note_off_c, 0, 62, 63
1, 110694, Note_on_c, 0, 55, 64
1, 110705, Control_c, 0, 64, 79
1, 110718, Note_on_c, 0, 38, 62
1, 110719, Control_c, 0, 64, 118
1, 110734, Control_c, 0, 64, 127
1, 110743, Note_off_c, 0, 37, 52
1, 110766, Note_on_c, 0, 60, 75
1, 110775, Note_off_c, 0, 38, 59
1, 110779, Control_c, 0, 64, 99
1, 110793, Control_c, 0, 64, 83
1, 110808, Control_c, 0, 64, 74
1, 110823, Control_c, 0, 64, 67
1, 110839, Note_off_c, 0, 55, 55
1, 110839, Control_c, 0, 64, 60
1, 110848, Note_off_c, 0, 60, 60
1, 110854, Control_c, 0, 64, 50
1, 110869, Control_c, 0, 64, 36
1, 110884, Control_c, 0, 64, 0
1, 110901, Note_on_c, 0, 50, 49
1, 110960, Note_off_c, 0, 50, 57
1, 110983, Note_on_c, 0, 60, 42
1, 110986, Note_on_c, 0, 31, 38
1, 110986, Note_on_c, 0, 43, 38
1, 111002, Control_c, 0, 64, 23
1, 111016, Control_c, 0, 64, 49
1, 111031, Note_on_c, 0, 55, 33
1, 111031, Note_off_c, 0, 60, 48
1, 111031, Control_c, 0, 64, 63
1, 111046, Control_c, 0, 64, 69
1, 111061, Control_c, 0, 64, 77
1, 111063, Note_on_c, 0, 58, 55
1, 111073, Note_off_c, 0, 55, 48
1, 111076, Control_c, 0, 64, 95
1, 111083, Note_off_c, 0, 43, 56
1, 111091, Control_c, 0, 64, 127
1, 111119, Note_off_c, 0, 58, 54
1, 111120, Note_off_c, 0, 31, 35
1, 111139, Note_on_c, 0, 50, 50
1, 111186, Note_off_c, 0, 50, 51
1, 111215, Note_on_c, 0, 62, 54
1, 111224, Control_c, 0, 64, 91
1, 111226, Note_on_c, 0, 55, 44
1, 111239, Control_c, 0, 64, 69
1, 111254, Control_c, 0, 64, 41
1, 111269, Control_c, 0, 64, 0
1, 111281, Note_off_c, 0, 62, 61
1, 111296, Note_on_c, 0, 60, 51
1, 111296, Note_off_c, 0, 55, 55
1, 111304, Note_on_c, 0, 36, 48
1, 111313, Control_c, 0, 64, 28
1, 111335, Control_c, 0, 64, 46
1, 111350, Control_c, 0, 64, 59
1, 111365, Control_c, 0, 64, 71
1, 111370, Note_off_c, 0, 60, 51
1, 111372, Note_on_c, 0, 51, 61
1, 111380, Control_c, 0, 64, 92
1, 111395, Control_c, 0, 64, 127
1, 111419, Note_off_c, 0, 51, 59
1, 111428, Note_on_c, 0, 60, 48
1, 111439, Control_c, 0, 64, 100
1, 111440, Note_on_c, 0, 55, 54
1, 111447, Note_on_c, 0, 31, 56
1, 111448, Note_on_c, 0, 43, 59
1, 111454, Note_off_c, 0, 36, 53
1, 111454, Control_c, 0, 64, 72
1, 111469, Control_c, 0, 64, 52
1, 111483, Control_c, 0, 64, 0
1, 111498, Control_c, 0, 64, 35
1, 111511, Note_on_c, 0, 58, 68
1, 111513, Control_c, 0, 64, 57
1, 111514, Note_off_c, 0, 60, 60
1, 111518, Note_off_c, 0, 55, 60
1, 111528, Control_c, 0, 64, 68
1, 111532, Note_off_c, 0, 43, 61
1, 111542, Control_c, 0, 64, 88
1, 111546, Note_off_c, 0, 31, 60
1, 111557, Control_c, 0, 64, 127
1, 111567, Note_on_c, 0, 50, 69
1, 111586, Note_off_c, 0, 58, 61
1, 111615, Control_c, 0, 64, 88
1, 111624, Note_off_c, 0, 50, 44
1, 111631, Control_c, 0, 64, 63
1, 111638, Note_on_c, 0, 62, 71
1, 111642, Note_on_c, 0, 55, 61
1, 111646, Control_c, 0, 64, 0
1, 111707, Note_on_c, 0, 36, 79
1, 111709, Note_on_c, 0, 60, 70
1, 111721, Note_off_c, 0, 62, 59
1, 111721, Note_off_c, 0, 55, 61
1, 111735, Control_c, 0, 64, 33
1, 111750, Control_c, 0, 64, 62
1, 111756, Note_on_c, 0, 57, 34
1, 111764, Control_c, 0, 64, 75
1, 111767, Note_on_c, 0, 51, 77
1, 111779, Control_c, 0, 64, 113
1, 111794, Note_off_c, 0, 57, 50
1, 111794, Control_c, 0, 64, 127
1, 111796, Note_off_c, 0, 60, 54
1, 111842, Note_on_c, 0, 60, 67
1, 111842, Note_off_c, 0, 51, 61
1, 111843, Note_on_c, 0, 43, 85
1, 111848, Note_on_c, 0, 31, 78
1, 111852, Note_on_c, 0, 55, 71
1, 111857, Note_off_c, 0, 36, 62
1, 111869, Control_c, 0, 64, 78
1, 111884, Control_c, 0, 64, 50
1, 111899, Control_c, 0, 64, 0
1, 111916, Note_on_c, 0, 58, 77
1, 111928, Note_off_c, 0, 55, 59
1, 111945, Note_off_c, 0, 60, 64
1, 111955, Note_off_c, 0, 43, 62
1, 111957, Control_c, 0, 64, 36
1, 111961, Note_off_c, 0, 31, 62
1, 111972, Control_c, 0, 64, 63
1, 111976, Note_on_c, 0, 50, 80
1, 111987, Control_c, 0, 64, 80
1, 112002, Control_c, 0, 64, 127
1, 112007, Note_off_c, 0, 58, 62
1, 112039, Note_off_c, 0, 50, 45
1, 112045, Note_on_c, 0, 62, 87
1, 112051, Note_on_c, 0, 55, 80
1, 112061, Control_c, 0, 64, 81
1, 112076, Control_c, 0, 64, 50
1, 112098, Control_c, 0, 64, 0
1, 112122, Note_on_c, 0, 36, 92
1, 112128, Note_on_c, 0, 60, 78
1, 112157, Note_off_c, 0, 62, 63
1, 112168, Note_on_c, 0, 58, 48
1, 112168, Note_off_c, 0, 55, 58
1, 112172, Control_c, 0, 64, 59
1, 112187, Note_on_c, 0, 51, 92
1, 112187, Control_c, 0, 64, 83
1, 112202, Control_c, 0, 64, 127
1, 112210, Note_off_c, 0, 58, 62
1, 112212, Note_off_c, 0, 60, 61
1, 112268, Note_off_c, 0, 51, 60
1, 112270, Note_on_c, 0, 55, 83
1, 112270, Note_on_c, 0, 60, 87
1, 112276, Note_on_c, 0, 43, 97
1, 112276, Control_c, 0, 64, 93
1, 112277, Note_on_c, 0, 31, 89
1, 112286, Note_off_c, 0, 36, 45
1, 112290, Control_c, 0, 64, 59
1, 112305, Control_c, 0, 64, 0
1, 112343, Note_on_c, 0, 58, 83
1, 112369, Note_off_c, 0, 55, 61
1, 112376, Note_off_c, 0, 60, 64
1, 112379, Control_c, 0, 64, 16
1, 112394, Control_c, 0, 64, 63
1, 112409, Control_c, 0, 64, 83
1, 112414, Note_on_c, 0, 50, 89
1, 112422, Note_off_c, 0, 43, 58
1, 112424, Control_c, 0, 64, 127
1, 112432, Note_off_c, 0, 31, 59
1, 112447, Note_off_c, 0, 58, 62
1, 112473, Note_off_c, 0, 50, 65
1, 112493, Note_on_c, 0, 62, 91
1, 112499, Control_c, 0, 64, 89
1, 112503, Note_on_c, 0, 55, 86
1, 112514, Control_c, 0, 64, 62
1, 112528, Control_c, 0, 64, 0
1, 112573, Note_on_c, 0, 60, 78
1, 112587, Note_on_c, 0, 36, 98
1, 112599, Note_off_c, 0, 62, 64
1, 112619, Note_off_c, 0, 55, 56
1, 112650, Note_on_c, 0, 58, 35
1, 112662, Control_c, 0, 64, 55
1, 112673, Note_on_c, 0, 51, 103
1, 112677, Control_c, 0, 64, 71
1, 112691, Control_c, 0, 64, 116
1, 112706, Note_off_c, 0, 58, 39
1, 112706, Control_c, 0, 64, 127
1, 112715, Note_on_c, 0, 55, 24
1, 112766, Note_off_c, 0, 55, 46
1, 112813, Note_off_c, 0, 51, 62
1, 112820, Note_off_c, 0, 60, 30
1, 112870, Note_off_c, 0, 36, 60
1, 112885, Note_on_c, 0, 43, 99
1, 112891, Note_on_c, 0, 31, 87
1, 112913, Note_on_c, 0, 55, 98
1, 112936, Control_c, 0, 64, 77
1, 112951, Control_c, 0, 64, 55
1, 112966, Control_c, 0, 64, 0
1, 113114, Control_c, 0, 64, 51
1, 113116, Note_on_c, 0, 62, 64
1, 113129, Control_c, 0, 64, 75
1, 113133, Note_off_c, 0, 31, 62
1, 113144, Control_c, 0, 64, 127
1, 113180, Note_off_c, 0, 55, 57
1, 113201, Note_on_c, 0, 58, 73
1, 113206, Note_off_c, 0, 43, 62
1, 113227, Note_off_c, 0, 62, 61
1, 113231, Note_off_c, 0, 58, 68
1, 113282, Note_on_c, 0, 62, 75
1, 113350, Note_on_c, 0, 67, 85
1, 113360, Note_off_c, 0, 62, 62
1, 113411, Note_on_c, 0, 70, 86
1, 113416, Note_off_c, 0, 67, 66
1, 113446, Note_off_c, 0, 70, 62
1, 113482, Note_on_c, 0, 74, 93
1, 113549, Note_on_c, 0, 79, 91
1, 113559, Note_off_c, 0, 74, 65
1, 113619, Note_on_c, 0, 82, 91
1, 113626, Note_on_c, 0, 67, 94
1, 113630, Note_off_c, 0, 79, 67
1, 113632, Note_on_c, 0, 62, 79
1, 113654, Note_off_c, 0, 82, 68
1, 113689, Note_off_c, 0, 62, 63
1, 113693, Note_on_c, 0, 86, 96
1, 113770, Note_on_c, 0, 91, 102
1, 113771, Note_on_c, 0, 62, 87
1, 113773, Note_on_c, 0, 55, 87
1, 113786, Note_off_c, 0, 67, 64
1, 113791, Note_off_c, 0, 86, 61
1, 113819, Note_off_c, 0, 62, 61
1, 113836, Note_on_c, 0, 98, 102
1, 113848, Note_off_c, 0, 91, 66
1, 113921, Note_on_c, 0, 67, 94
1, 113924, Note_on_c, 0, 62, 88
1, 113925, Note_on_c, 0, 94, 96
1, 113940, Note_off_c, 0, 98, 68
1, 114005, Note_on_c, 0, 98, 99
1, 114007, Note_off_c, 0, 94, 64
1, 114032, Note_off_c, 0, 55, 32
1, 114043, Note_off_c, 0, 67, 57
1, 114077, Note_on_c, 0, 91, 91
1, 114077, Note_off_c, 0, 62, 60
1, 114090, Note_off_c, 0, 98, 65
1, 114124, Note_off_c, 0, 91, 65
1, 114140, Note_on_c, 0, 86, 77
1, 114171, Note_off_c, 0, 86, 65
1, 114212, Note_on_c, 0, 82, 85
1, 114261, Note_off_c, 0, 82, 67
1, 114279, Note_on_c, 0, 79, 79
1, 114295, Note_on_c, 0, 80, 17
1, 114296, Note_off_c, 0, 80, 127
1, 114319, Note_off_c, 0, 79, 67
1, 114347, Note_on_c, 0, 74, 78
1, 114378, Note_off_c, 0, 74, 65
1, 114418, Note_on_c, 0, 70, 82
1, 114485, Note_on_c, 0, 67, 84
1, 114487, Note_off_c, 0, 70, 64
1, 114534, Note_off_c, 0, 67, 64
1, 114554, Note_on_c, 0, 62, 78
1, 114588, Note_off_c, 0, 62, 63
1, 114634, Note_on_c, 0, 38, 83
1, 114640, Note_on_c, 0, 58, 93
1, 114716, Note_on_c, 0, 50, 85
1, 114748, Note_off_c, 0, 58, 58
1, 114832, Note_on_c, 0, 43, 81
1, 114834, Note_off_c, 0, 50, 58
1, 114839, Note_on_c, 0, 31, 72
1, 114842, Note_on_c, 0, 55, 96
1, 114858, Note_off_c, 0, 38, 59
1, 114878, Control_c, 0, 64, 86
1, 114893, Control_c, 0, 64, 56
1, 114908, Control_c, 0, 64, 0
1, 114967, Control_c, 0, 64, 40
1, 114981, Control_c, 0, 64, 67
1, 114996, Control_c, 0, 64, 93
1, 114999, Note_on_c, 0, 62, 73
1, 115011, Control_c, 0, 64, 127
1, 115057, Note_off_c, 0, 55, 51
1, 115064, Note_on_c, 0, 58, 84
1, 115096, Note_off_c, 0, 58, 71
1, 115096, Note_off_c, 0, 62, 62
1, 115157, Note_on_c, 0, 62, 76
1, 115159, Note_on_c, 0, 60, 60
1, 115185, Note_off_c, 0, 60, 64
1, 115217, Note_on_c, 0, 67, 91
1, 115228, Note_off_c, 0, 62, 64
1, 115279, Note_on_c, 0, 74, 96
1, 115285, Note_off_c, 0, 67, 66
1, 115329, Note_off_c, 0, 43, 58
1, 115350, Note_on_c, 0, 70, 92
1, 115353, Note_off_c, 0, 74, 67
1, 115412, Note_off_c, 0, 31, 34
1, 115422, Note_on_c, 0, 74, 96
1, 115424, Note_off_c, 0, 70, 65
1, 115485, Note_on_c, 0, 67, 89
1, 115498, Note_off_c, 0, 74, 60
1, 115538, Note_off_c, 0, 67, 65
1, 115555, Note_on_c, 0, 62, 76
1, 115582, Note_off_c, 0, 62, 66
1, 115637, Note_on_c, 0, 58, 93
1, 115639, Note_on_c, 0, 38, 77
1, 115717, Note_on_c, 0, 50, 81
1, 115772, Note_off_c, 0, 58, 49
1, 115821, Note_on_c, 0, 42, 87
1, 115836, Note_on_c, 0, 30, 76
1, 115848, Note_on_c, 0, 54, 89
1, 115863, Note_off_c, 0, 38, 60
1, 115865, Note_off_c, 0, 50, 52
1, 115872, Control_c, 0, 64, 85
1, 115886, Control_c, 0, 64, 62
1, 115901, Control_c, 0, 64, 0
1, 115960, Control_c, 0, 64, 35
1, 115975, Control_c, 0, 64, 63
1, 115976, Note_on_c, 0, 62, 72
1, 115990, Control_c, 0, 64, 78
1, 116004, Control_c, 0, 64, 127
1, 116035, Note_on_c, 0, 58, 82
1, 116040, Note_off_c, 0, 54, 64
1, 116057, Note_off_c, 0, 58, 67
1, 116057, Note_off_c, 0, 62, 63
1, 116108, Note_on_c, 0, 62, 80
1, 116175, Note_on_c, 0, 66, 88
1, 116186, Note_off_c, 0, 62, 60
1, 116238, Note_on_c, 0, 74, 92
1, 116242, Note_off_c, 0, 66, 64
1, 116311, Note_on_c, 0, 70, 88
1, 116313, Note_off_c, 0, 74, 65
1, 116379, Note_off_c, 0, 70, 69
1, 116385, Note_on_c, 0, 74, 91
1, 116390, Note_off_c, 0, 30, 38
1, 116393, Note_off_c, 0, 42, 58
1, 116457, Note_on_c, 0, 66, 90
1, 116472, Note_off_c, 0, 74, 61
1, 116525, Note_off_c, 0, 66, 62
1, 116531, Note_on_c, 0, 62, 79
1, 116567, Note_off_c, 0, 62, 60
1, 116636, Note_on_c, 0, 58, 91
1, 116641, Note_on_c, 0, 38, 74
1, 116716, Note_on_c, 0, 50, 82
1, 116746, Note_off_c, 0, 58, 58
1, 116835, Note_on_c, 0, 43, 77
1, 116844, Note_on_c, 0, 31, 69
1, 116856, Note_on_c, 0, 55, 89
1, 116869, Note_off_c, 0, 38, 58
1, 116871, Note_off_c, 0, 50, 59
1, 116888, Control_c, 0, 64, 91
1, 116902, Control_c, 0, 64, 67
1, 116917, Control_c, 0, 64, 21
1, 116932, Control_c, 0, 64, 0
1, 117006, Control_c, 0, 64, 58
1, 117020, Control_c, 0, 64, 80
1, 117021, Note_on_c, 0, 62, 64
1, 117027, Note_off_c, 0, 31, 61
1, 117035, Control_c, 0, 64, 127
1, 117089, Note_off_c, 0, 43, 61
1, 117106, Note_off_c, 0, 55, 62
1, 117109, Note_on_c, 0, 58, 73
1, 117131, Note_off_c, 0, 62, 59
1, 117136, Note_off_c, 0, 58, 68
1, 117189, Note_on_c, 0, 62, 73
1, 117261, Note_on_c, 0, 67, 86
1, 117270, Note_off_c, 0, 62, 62
1, 117329, Note_on_c, 0, 70, 90
1, 117338, Note_off_c, 0, 67, 65
1, 117366, Note_off_c, 0, 70, 67
1, 117409, Note_on_c, 0, 74, 92
1, 117481, Note_on_c, 0, 79, 93
1, 117494, Note_off_c, 0, 74, 62
1, 117535, Note_on_c, 0, 55, 83
1, 117537, Note_on_c, 0, 50, 77
1, 117545, Note_on_c, 0, 82, 92
1, 117556, Note_off_c, 0, 79, 68
1, 117580, Note_off_c, 0, 82, 67
1, 117602, Note_off_c, 0, 50, 63
1, 117622, Note_on_c, 0, 86, 91
1, 117683, Note_on_c, 0, 50, 84
1, 117687, Note_on_c, 0, 43, 82
1, 117693, Note_off_c, 0, 55, 60
1, 117698, Note_on_c, 0, 91, 100
1, 117714, Note_off_c, 0, 86, 64
1, 117749, Note_off_c, 0, 50, 64
1, 117770, Note_on_c, 0, 98, 95
1, 117778, Note_off_c, 0, 91, 65
1, 117846, Note_on_c, 0, 55, 82
1, 117848, Note_on_c, 0, 50, 81
1, 117863, Note_on_c, 0, 94, 96
1, 117882, Note_off_c, 0, 98, 67
1, 117953, Note_on_c, 0, 98, 93
1, 117959, Note_off_c, 0, 94, 63
1, 118027, Note_on_c, 0, 91, 91
1, 118034, Note_off_c, 0, 43, 46
1, 118034, Note_off_c, 0, 55, 56
1, 118034, Note_off_c, 0, 98, 65
1, 118089, Note_off_c, 0, 91, 65
1, 118095, Note_off_c, 0, 50, 61
1, 118102, Note_on_c, 0, 86, 79
1, 118137, Note_off_c, 0, 86, 60
1, 118179, Note_on_c, 0, 82, 83
1, 118220, Note_off_c, 0, 82, 65
1, 118249, Note_on_c, 0, 79, 82
1, 118296, Note_off_c, 0, 79, 66
1, 118319, Note_on_c, 0, 74, 73
1, 118355, Note_off_c, 0, 74, 62
1, 118390, Note_on_c, 0, 70, 81
1, 118431, Note_off_c, 0, 70, 66
1, 118462, Note_on_c, 0, 67, 80
1, 118508, Note_off_c, 0, 67, 65
1, 118534, Note_on_c, 0, 62, 73
1, 118565, Note_off_c, 0, 62, 64
1, 118612, Note_on_c, 0, 38, 69
1, 118623, Note_on_c, 0, 58, 74
1, 118664, Note_on_c, 0, 59, 50
1, 118691, Note_off_c, 0, 59, 55
1, 118701, Note_on_c, 0, 50, 75
1, 118725, Note_off_c, 0, 58, 50
1, 118805, Note_on_c, 0, 42, 61
1, 118824, Note_on_c, 0, 30, 51
1, 118843, Note_on_c, 0, 54, 80
1, 118869, Note_off_c, 0, 50, 50
1, 118874, Note_off_c, 0, 38, 57
1, 118882, Control_c, 0, 64, 82
1, 118896, Control_c, 0, 64, 64
1, 118911, Control_c, 0, 64, 0
1, 118984, Note_on_c, 0, 62, 65
1, 119000, Control_c, 0, 64, 45
1, 119015, Control_c, 0, 64, 62
1, 119029, Control_c, 0, 64, 70
1, 119038, Note_off_c, 0, 54, 65
1, 119044, Control_c, 0, 64, 83
1, 119057, Note_on_c, 0, 58, 69
1, 119059, Control_c, 0, 64, 127
1, 119062, Note_off_c, 0, 62, 64
1, 119080, Note_off_c, 0, 58, 64
1, 119129, Note_on_c, 0, 62, 75
1, 119193, Note_on_c, 0, 66, 84
1, 119211, Note_off_c, 0, 62, 58
1, 119261, Note_on_c, 0, 74, 85
1, 119264, Note_off_c, 0, 66, 62
1, 119321, Note_off_c, 0, 42, 55
1, 119334, Note_on_c, 0, 70, 87
1, 119336, Note_off_c, 0, 74, 65
1, 119345, Note_off_c, 0, 30, 42
1, 119407, Note_off_c, 0, 70, 68
1, 119413, Note_on_c, 0, 74, 83
1, 119479, Note_on_c, 0, 66, 83
1, 119498, Note_off_c, 0, 74, 61
1, 119548, Note_off_c, 0, 66, 61
1, 119559, Note_on_c, 0, 62, 73
1, 119595, Note_off_c, 0, 62, 66
1, 119661, Note_on_c, 0, 58, 83
1, 119667, Note_on_c, 0, 38, 59
1, 119751, Note_on_c, 0, 50, 77
1, 119790, Note_off_c, 0, 58, 51
1, 119867, Note_on_c, 0, 41, 52
1, 119881, Note_on_c, 0, 29, 47
1, 119888, Note_on_c, 0, 53, 75
1, 119908, Note_off_c, 0, 50, 58
1, 119926, Control_c, 0, 64, 102
1, 119941, Control_c, 0, 64, 86
1, 119956, Control_c, 0, 64, 73
1, 119970, Note_off_c, 0, 38, 36
1, 119971, Control_c, 0, 64, 61
1, 119986, Control_c, 0, 64, 0
1, 120045, Note_on_c, 0, 62, 63
1, 120060, Control_c, 0, 64, 16
1, 120075, Control_c, 0, 64, 51
1, 120090, Control_c, 0, 64, 65
1, 120105, Control_c, 0, 64, 79
1, 120119, Control_c, 0, 64, 121
1, 120120, Note_on_c, 0, 58, 72
1, 120120, Note_off_c, 0, 53, 63
1, 120134, Control_c, 0, 64, 127
1, 120138, Note_off_c, 0, 62, 63
1, 120147, Note_off_c, 0, 58, 68
1, 120201, Note_on_c, 0, 62, 75
1, 120295, Note_on_c, 0, 65, 75
1, 120306, Note_off_c, 0, 62, 58
1, 120387, Note_on_c, 0, 74, 77
1, 120394, Note_off_c, 0, 65, 62
1, 120481, Note_on_c, 0, 70, 73
1, 120490, Note_off_c, 0, 74, 60
1, 120505, Note_off_c, 0, 41, 57
1, 120568, Note_on_c, 0, 74, 65
1, 120578, Note_off_c, 0, 70, 62
1, 120665, Note_off_c, 0, 74, 61
1, 120695, Note_on_c, 0, 65, 64
1, 120723, Poly_aftertouch_c, 0, 66, 127
1, 120754, Poly_aftertouch_c, 0, 66, 0
1, 120766, Note_off_c, 0, 65, 63
1, 120791, Note_on_c, 0, 62, 58
1, 120829, Note_off_c, 0, 62, 62
1, 120910, Note_on_c, 0, 58, 64
1, 120919, Note_on_c, 0, 43, 52
1, 121005, Note_off_c, 0, 43, 58
1, 121084, Note_on_c, 0, 50, 55
1, 121124, Note_off_c, 0, 58, 37
1, 121336, Control_c, 0, 64, 117
1, 121339, Note_on_c, 0, 45, 33
1, 121351, Control_c, 0, 64, 101
1, 121366, Control_c, 0, 64, 92
1, 121381, Control_c, 0, 64, 85
1, 121396, Control_c, 0, 64, 79
1, 121408, Note_on_c, 0, 53, 40
1, 121411, Control_c, 0, 64, 76
1, 121411, Note_off_c, 0, 50, 35
1, 121425, Control_c, 0, 64, 73
1, 121440, Control_c, 0, 64, 70
1, 121455, Control_c, 0, 64, 68
1, 121470, Control_c, 0, 64, 66
1, 121485, Control_c, 0, 64, 65
1, 121499, Control_c, 0, 64, 63
1, 121514, Control_c, 0, 64, 60
1, 121529, Control_c, 0, 64, 54
1, 121544, Control_c, 0, 64, 47
1, 121559, Control_c, 0, 64, 42
1, 121573, Control_c, 0, 64, 35
1, 121588, Control_c, 0, 64, 28
1, 121603, Control_c, 0, 64, 27
1, 121617, Control_c, 0, 64, 32
1, 121632, Control_c, 0, 64, 41
1, 121647, Control_c, 0, 64, 48
1, 121658, Note_on_c, 0, 60, 39
1, 121662, Control_c, 0, 64, 56
1, 121677, Control_c, 0, 64, 62
1, 121680, Note_off_c, 0, 29, 40
1, 121691, Control_c, 0, 64, 66
1, 121706, Control_c, 0, 64, 71
1, 121721, Control_c, 0, 64, 81
1, 121736, Control_c, 0, 64, 102
1, 121751, Control_c, 0, 64, 127
1, 121766, Note_off_c, 0, 60, 51
1, 121777, Note_off_c, 0, 53, 42
1, 121788, Note_on_c, 0, 57, 49
1, 121842, Note_off_c, 0, 57, 63
1, 121892, Note_off_c, 0, 45, 54
1, 121907, Note_on_c, 0, 60, 59
1, 121970, Note_off_c, 0, 60, 57
1, 121999, Note_on_c, 0, 65, 65
1, 122063, Note_off_c, 0, 65, 61
1, 122080, Note_on_c, 0, 69, 77
1, 122117, Note_off_c, 0, 69, 61
1, 122169, Note_on_c, 0, 72, 79
1, 122248, Note_off_c, 0, 72, 61
1, 122252, Note_on_c, 0, 77, 83
1, 122318, Note_off_c, 0, 77, 60
1, 122338, Note_on_c, 0, 65, 51
1, 122344, Note_on_c, 0, 81, 79
1, 122350, Note_on_c, 0, 60, 46
1, 122376, Note_off_c, 0, 81, 60
1, 122439, Note_off_c, 0, 60, 52
1, 122441, Note_on_c, 0, 84, 88
1, 122543, Note_off_c, 0, 84, 49
1, 122552, Note_on_c, 0, 53, 49
1, 122555, Note_on_c, 0, 89, 90
1, 122573, Note_on_c, 0, 60, 44
1, 122621, Note_off_c, 0, 89, 63
1, 122630, Note_off_c, 0, 65, 55
1, 122657, Note_off_c, 0, 60, 55
1, 122695, Note_on_c, 0, 93, 86
1, 122767, Note_off_c, 0, 93, 66
1, 122913, Note_on_c, 0, 65, 53
1, 122940, Note_on_c, 0, 60, 42
1, 122958, Note_on_c, 0, 101, 78
1, 123178, Note_off_c, 0, 101, 55
1, 123691, Note_off_c, 0, 53, 31
1, 123823, Note_off_c, 0, 60, 33
1, 124415, Note_on_c, 0, 60, 61
1, 124436, Note_on_c, 0, 53, 45
1, 124611, Note_off_c, 0, 65, 59
1, 124625, Note_off_c, 0, 60, 62
1, 124752, Note_on_c, 0, 65, 70
1, 124781, Note_on_c, 0, 60, 49
1, 124887, Control_c, 0, 64, 99
1, 124902, Control_c, 0, 64, 82
1, 124916, Control_c, 0, 64, 71
1, 124931, Control_c, 0, 64, 65
1, 124946, Control_c, 0, 64, 66
1, 124961, Control_c, 0, 64, 71
1, 124976, Control_c, 0, 64, 76
1, 124991, Control_c, 0, 64, 81
1, 125006, Control_c, 0, 64, 84
1, 125021, Control_c, 0, 64, 82
1, 125035, Control_c, 0, 64, 78
1, 125048, Control_c, 0, 64, 70
1, 125063, Control_c, 0, 64, 65
1, 125078, Control_c, 0, 64, 64
1, 125093, Control_c, 0, 64, 67
1, 125108, Control_c, 0, 64, 71
1, 125122, Control_c, 0, 64, 76
1, 125137, Control_c, 0, 64, 84
1, 125152, Control_c, 0, 64, 84
1, 125167, Control_c, 0, 64, 77
1, 125182, Control_c, 0, 64, 69
1, 125196, Control_c, 0, 64, 64
1, 125212, Control_c, 0, 64, 61
1, 125227, Control_c, 0, 64, 63
1, 125242, Control_c, 0, 64, 66
1, 125256, Control_c, 0, 64, 72
1, 125271, Control_c, 0, 64, 81
1, 125286, Control_c, 0, 64, 91
1, 125301, Control_c, 0, 64, 90
1, 125316, Control_c, 0, 64, 81
1, 125331, Control_c, 0, 64, 72
1, 125345, Control_c, 0, 64, 68
1, 125360, Control_c, 0, 64, 68
1, 125375, Control_c, 0, 64, 69
1, 125390, Control_c, 0, 64, 72
1, 125405, Control_c, 0, 64, 76
1, 125420, Control_c, 0, 64, 82
1, 125450, Control_c, 0, 64, 77
1, 125464, Control_c, 0, 64, 70
1, 125479, Control_c, 0, 64, 65
1, 125494, Control_c, 0, 64, 65
1, 125509, Control_c, 0, 64, 67
1, 125524, Control_c, 0, 64, 69
1, 125538, Control_c, 0, 64, 73
1, 125553, Control_c, 0, 64, 78
1, 125575, Control_c, 0, 64, 80
1, 125590, Control_c, 0, 64, 77
1, 125605, Control_c, 0, 64, 70
1, 125620, Control_c, 0, 64, 66
1, 125635, Control_c, 0, 64, 64
1, 125649, Control_c, 0, 64, 65
1, 125664, Control_c, 0, 64, 68
1, 125679, Control_c, 0, 64, 72
1, 125694, Control_c, 0, 64, 78
1, 125709, Control_c, 0, 64, 83
1, 125724, Control_c, 0, 64, 81
1, 125738, Control_c, 0, 64, 75
1, 125753, Control_c, 0, 64, 68
1, 125768, Control_c, 0, 64, 64
1, 125783, Control_c, 0, 64, 64
1, 125798, Control_c, 0, 64, 66
1, 125812, Control_c, 0, 64, 69
1, 125827, Control_c, 0, 64, 75
1, 125842, Control_c, 0, 64, 84
1, 125857, Control_c, 0, 64, 92
1, 125871, Control_c, 0, 64, 89
1, 125886, Control_c, 0, 64, 78
1, 125901, Control_c, 0, 64, 70
1, 125916, Control_c, 0, 64, 67
1, 125931, Control_c, 0, 64, 69
1, 125945, Control_c, 0, 64, 73
1, 125950, Note_off_c, 0, 53, 39
1, 125960, Control_c, 0, 64, 79
1, 125975, Control_c, 0, 64, 90
1, 125989, Control_c, 0, 64, 101
1, 126002, Note_off_c, 0, 60, 31
1, 126004, Control_c, 0, 64, 104
1, 126021, Control_c, 0, 64, 99
1, 126035, Control_c, 0, 64, 98
1, 126050, Control_c, 0, 64, 101
1, 126065, Control_c, 0, 64, 111
1, 126080, Control_c, 0, 64, 127
1, 126228, Control_c, 0, 64, 119
1, 126243, Control_c, 0, 64, 107
1, 126253, Note_on_c, 0, 60, 44
1, 126258, Control_c, 0, 64, 96
1, 126264, Note_on_c, 0, 53, 35
1, 126272, Control_c, 0, 64, 87
1, 126287, Control_c, 0, 64, 77
1, 126309, Control_c, 0, 64, 69
1, 126324, Control_c, 0, 64, 62
1, 126339, Control_c, 0, 64, 57
1, 126354, Control_c, 0, 64, 59
1, 126368, Control_c, 0, 64, 61
1, 126383, Control_c, 0, 64, 63
1, 126398, Control_c, 0, 64, 67
1, 126413, Control_c, 0, 64, 74
1, 126427, Control_c, 0, 64, 87
1, 126442, Control_c, 0, 64, 127
1, 126455, Note_off_c, 0, 60, 54
1, 126459, Note_off_c, 0, 65, 56
1, 126561, Control_c, 0, 64, 114
1, 126576, Control_c, 0, 64, 102
1, 126591, Control_c, 0, 64, 99
1, 126605, Control_c, 0, 64, 100
1, 126620, Control_c, 0, 64, 102
1, 126635, Control_c, 0, 64, 104
1, 126650, Control_c, 0, 64, 105
1, 126665, Control_c, 0, 64, 106
1, 126677, Note_on_c, 0, 65, 43
1, 126680, Note_on_c, 0, 60, 34
1, 126694, Control_c, 0, 64, 105
1, 126709, Control_c, 0, 64, 102
1, 126724, Control_c, 0, 64, 100
1, 126739, Control_c, 0, 64, 100
1, 126754, Control_c, 0, 64, 98
1, 126768, Control_c, 0, 64, 94
1, 126783, Control_c, 0, 64, 88
1, 126798, Control_c, 0, 64, 80
1, 126814, Control_c, 0, 64, 72
1, 126829, Control_c, 0, 64, 67
1, 126843, Control_c, 0, 64, 64
1, 126858, Control_c, 0, 64, 64
1, 126888, Control_c, 0, 64, 64
1, 126903, Control_c, 0, 64, 65
1, 126917, Control_c, 0, 64, 67
1, 126932, Control_c, 0, 64, 68
1, 126947, Control_c, 0, 64, 70
1, 126962, Control_c, 0, 64, 72
1, 126977, Control_c, 0, 64, 74
1, 126991, Control_c, 0, 64, 79
1, 127006, Control_c, 0, 64, 86
1, 127021, Control_c, 0, 64, 95
1, 127034, Note_off_c, 0, 53, 40
1, 127036, Control_c, 0, 64, 110
1, 127050, Control_c, 0, 64, 127
1, 127071, Note_off_c, 0, 60, 35
1, 127403, Note_on_c, 0, 60, 40
1, 127411, Note_on_c, 0, 53, 33
1, 127564, Note_off_c, 0, 60, 52
1, 127566, Note_off_c, 0, 65, 55
1, 127738, Note_on_c, 0, 65, 45
1, 127753, Note_on_c, 0, 60, 30
1, 127921, Note_off_c, 0, 53, 41
1, 127928, Note_off_c, 0, 60, 44
1, 128079, Note_on_c, 0, 60, 44
1, 128109, Note_on_c, 0, 53, 37
1, 128135, Note_off_c, 0, 65, 56
1, 128398, Note_off_c, 0, 60, 36
1, 128476, Note_off_c, 0, 53, 36
1, 128717, Note_on_c, 0, 65, 63
1, 128749, Note_on_c, 0, 60, 44
1, 128823, Control_c, 0, 64, 114
1, 128837, Control_c, 0, 64, 98
1, 128852, Control_c, 0, 64, 89
1, 128867, Control_c, 0, 64, 84
1, 128881, Control_c, 0, 64, 82
1, 128896, Control_c, 0, 64, 80
1, 128911, Control_c, 0, 64, 78
1, 128926, Control_c, 0, 64, 75
1, 128941, Control_c, 0, 64, 71
1, 128955, Control_c, 0, 64, 69
1, 128970, Control_c, 0, 64, 67
1, 128985, Control_c, 0, 64, 66
1, 129000, Control_c, 0, 64, 65
1, 129015, Control_c, 0, 64, 63
1, 129030, Control_c, 0, 64, 61
1, 129045, Control_c, 0, 64, 59
1, 129060, Control_c, 0, 64, 57
1, 129075, Control_c, 0, 64, 56
1, 129089, Control_c, 0, 64, 54
1, 129104, Control_c, 0, 64, 52
1, 129119, Control_c, 0, 64, 51
1, 129134, Control_c, 0, 64, 52
1, 129148, Control_c, 0, 64, 55
1, 129163, Control_c, 0, 64, 57
1, 129178, Control_c, 0, 64, 59
1, 129193, Control_c, 0, 64, 60
1, 129209, Control_c, 0, 64, 61
1, 129224, Control_c, 0, 64, 63
1, 129238, Control_c, 0, 64, 66
1, 129253, Control_c, 0, 64, 68
1, 129268, Control_c, 0, 64, 72
1, 129283, Control_c, 0, 64, 77
1, 129298, Control_c, 0, 64, 83
1, 129319, Control_c, 0, 64, 92
1, 129334, Control_c, 0, 64, 110
1, 129349, Control_c, 0, 64, 127
1, 129617, Note_on_c, 0, 34, 37
1, 129894, Note_off_c, 0, 34, 42
1, 130332, Note_on_c, 0, 46, 25
1, 130669, Note_off_c, 0, 46, 36
1, 130693, Note_on_c, 0, 56, 35
1, 130964, Note_on_c, 0, 53, 34
1, 130964, Note_on_c, 0, 67, 54
1, 130976, Note_off_c, 0, 60, 34
1, 130983, Note_on_c, 0, 62, 39
1, 131060, Note_off_c, 0, 56, 43
1, 131133, Note_off_c, 0, 65, 51
1, 131261, Note_on_c, 0, 60, 43
1, 131283, Note_off_c, 0, 67, 55
1, 131417, Note_off_c, 0, 53, 42
1, 131544, Note_on_c, 0, 67, 56
1, 131569, Note_on_c, 0, 58, 36
1, 131587, Note_off_c, 0, 60, 51
1, 131629, Note_off_c, 0, 58, 60
1, 131968, Note_on_c, 0, 39, 30
1, 131973, Note_on_c, 0, 63, 44
1, 131981, Control_c, 0, 64, 119
1, 131996, Control_c, 0, 64, 101
1, 132011, Control_c, 0, 64, 94
1, 132026, Control_c, 0, 64, 90
1, 132041, Control_c, 0, 64, 84
1, 132055, Control_c, 0, 64, 78
1, 132070, Control_c, 0, 64, 73
1, 132085, Control_c, 0, 64, 70
1, 132100, Control_c, 0, 64, 68
1, 132103, Note_off_c, 0, 67, 37
1, 132115, Control_c, 0, 64, 65
1, 132130, Control_c, 0, 64, 62
1, 132145, Control_c, 0, 64, 57
1, 132155, Note_off_c, 0, 62, 40
1, 132160, Control_c, 0, 64, 50
1, 132174, Control_c, 0, 64, 44
1, 132189, Control_c, 0, 64, 43
1, 132204, Control_c, 0, 64, 46
1, 132219, Control_c, 0, 64, 50
1, 132234, Control_c, 0, 64, 54
1, 132248, Control_c, 0, 64, 59
1, 132263, Control_c, 0, 64, 63
1, 132278, Control_c, 0, 64, 66
1, 132293, Control_c, 0, 64, 69
1, 132315, Control_c, 0, 64, 75
1, 132330, Control_c, 0, 64, 81
1, 132345, Control_c, 0, 64, 88
1, 132359, Control_c, 0, 64, 97
1, 132360, Note_on_c, 0, 46, 39
1, 132374, Control_c, 0, 64, 110
1, 132389, Control_c, 0, 64, 127
1, 132417, Note_off_c, 0, 39, 41
1, 132610, Note_on_c, 0, 51, 58
1, 132771, Note_off_c, 0, 46, 33
1, 132819, Note_off_c, 0, 63, 36
1, 132838, Note_on_c, 0, 55, 51
1, 132879, Note_off_c, 0, 51, 61
1, 133111, Note_on_c, 0, 75, 71
1, 133123, Note_on_c, 0, 58, 41
1, 133161, Note_on_c, 0, 71, 23
1, 133169, Note_off_c, 0, 55, 38
1, 133290, Note_off_c, 0, 71, 37
1, 133467, Note_on_c, 0, 63, 47
1, 133548, Note_on_c, 0, 74, 79
1, 133691, Note_on_c, 0, 60, 43
1, 133693, Note_on_c, 0, 72, 79
1, 133716, Control_c, 0, 64, 108
1, 133720, Note_on_c, 0, 67, 58
1, 133731, Control_c, 0, 64, 98
1, 133745, Control_c, 0, 64, 92
1, 133755, Note_off_c, 0, 74, 58
1, 133755, Note_off_c, 0, 63, 33
1, 133760, Control_c, 0, 64, 86
1, 133774, Note_off_c, 0, 58, 36
1, 133775, Control_c, 0, 64, 79
1, 133797, Control_c, 0, 64, 70
1, 133811, Note_off_c, 0, 75, 33
1, 133812, Control_c, 0, 64, 65
1, 133826, Control_c, 0, 64, 62
1, 133841, Control_c, 0, 64, 61
1, 133856, Control_c, 0, 64, 59
1, 133871, Control_c, 0, 64, 54
1, 133886, Control_c, 0, 64, 49
1, 133916, Control_c, 0, 64, 52
1, 133930, Control_c, 0, 64, 55
1, 133945, Control_c, 0, 64, 58
1, 133960, Control_c, 0, 64, 62
1, 133960, Note_on_c, 0, 63, 44
1, 133975, Control_c, 0, 64, 67
1, 133990, Control_c, 0, 64, 76
1, 134005, Control_c, 0, 64, 90
1, 134020, Control_c, 0, 64, 123
1, 134035, Control_c, 0, 64, 127
1, 134125, Note_off_c, 0, 63, 32
1, 134139, Control_c, 0, 67, 13
1, 134154, Control_c, 0, 67, 25
1, 134169, Control_c, 0, 67, 40
1, 134183, Control_c, 0, 67, 55
1, 134198, Control_c, 0, 67, 71
1, 134213, Control_c, 0, 67, 87
1, 134214, Note_on_c, 0, 53, 43
1, 134217, Note_off_c, 0, 60, 40
1, 134228, Control_c, 0, 67, 103
1, 134243, Control_c, 0, 67, 122
1, 134257, Control_c, 0, 67, 127
1, 134318, Note_off_c, 0, 67, 29
1, 134435, Control_c, 0, 64, 117
1, 134449, Control_c, 0, 64, 106
1, 134464, Control_c, 0, 64, 98
1, 134479, Control_c, 0, 64, 91
1, 134485, Note_on_c, 0, 74, 63
1, 134494, Control_c, 0, 64, 85
1, 134509, Control_c, 0, 64, 79
1, 134512, Note_on_c, 0, 63, 30
1, 134520, Note_on_c, 0, 69, 37
1, 134524, Control_c, 0, 64, 75
1, 134539, Control_c, 0, 64, 71
1, 134561, Control_c, 0, 64, 67
1, 134575, Control_c, 0, 64, 63
1, 134588, Note_off_c, 0, 72, 56
1, 134590, Control_c, 0, 64, 56
1, 134605, Control_c, 0, 64, 45
1, 134620, Control_c, 0, 64, 30
1, 134635, Control_c, 0, 64, 26
1, 134649, Control_c, 0, 64, 30
1, 134664, Control_c, 0, 64, 39
1, 134679, Control_c, 0, 64, 49
1, 134694, Control_c, 0, 64, 59
1, 134708, Control_c, 0, 64, 65
1, 134723, Control_c, 0, 64, 69
1, 134726, Note_off_c, 0, 53, 43
1, 134738, Control_c, 0, 64, 77
1, 134753, Control_c, 0, 64, 89
1, 134768, Control_c, 0, 64, 110
1, 134783, Control_c, 0, 64, 127
1, 134839, Note_off_c, 0, 74, 60
1, 134840, Note_on_c, 0, 67, 43
1, 134914, Note_off_c, 0, 63, 41
1, 135060, Note_on_c, 0, 74, 64
1, 135074, Note_on_c, 0, 65, 39
1, 135108, Note_off_c, 0, 67, 36
1, 135117, Note_off_c, 0, 65, 63
1, 135257, Note_off_c, 0, 74, 59
1, 135269, Note_off_c, 0, 69, 34
1, 135342, Note_on_c, 0, 46, 33
1, 135369, Control_c, 0, 64, 110
1, 135370, Note_on_c, 0, 70, 65
1, 135384, Control_c, 0, 64, 92
1, 135398, Control_c, 0, 64, 85
1, 135413, Control_c, 0, 64, 82
1, 135428, Control_c, 0, 64, 80
1, 135443, Control_c, 0, 64, 77
1, 135458, Control_c, 0, 64, 72
1, 135472, Control_c, 0, 64, 65
1, 135487, Control_c, 0, 64, 61
1, 135502, Control_c, 0, 64, 56
1, 135517, Control_c, 0, 64, 47
1, 135531, Control_c, 0, 64, 39
1, 135546, Control_c, 0, 64, 40
1, 135561, Control_c, 0, 64, 46
1, 135576, Control_c, 0, 64, 55
1, 135591, Control_c, 0, 64, 62
1, 135606, Control_c, 0, 64, 67
1, 135621, Control_c, 0, 64, 75
1, 135636, Control_c, 0, 64, 91
1, 135650, Control_c, 0, 64, 127
1, 135655, Note_on_c, 0, 53, 56
1, 135710, Note_off_c, 0, 46, 40
1, 135754, Control_c, 0, 67, 124
1, 135769, Control_c, 0, 67, 117
1, 135784, Control_c, 0, 67, 110
1, 135799, Control_c, 0, 67, 103
1, 135814, Control_c, 0, 67, 95
1, 135828, Control_c, 0, 67, 87
1, 135843, Control_c, 0, 67, 79
1, 135858, Control_c, 0, 67, 71
1, 135873, Control_c, 0, 67, 65
1, 135879, Note_on_c, 0, 58, 70
1, 135888, Control_c, 0, 67, 61
1, 135901, Note_off_c, 0, 53, 24
1, 135902, Control_c, 0, 67, 58
1, 135917, Control_c, 0, 67, 55
1, 135932, Control_c, 0, 67, 54
1, 135943, Note_off_c, 0, 70, 56
1, 135946, Control_c, 0, 67, 53
1, 135961, Control_c, 0, 67, 52
1, 135976, Control_c, 0, 67, 51
1, 135991, Control_c, 0, 67, 51
1, 136006, Control_c, 0, 67, 50
1, 136020, Control_c, 0, 67, 50
1, 136035, Control_c, 0, 67, 48
1, 136058, Control_c, 0, 67, 46
1, 136073, Control_c, 0, 67, 44
1, 136087, Control_c, 0, 67, 40
1, 136102, Control_c, 0, 67, 35
1, 136117, Control_c, 0, 67, 30
1, 136126, Note_on_c, 0, 82, 76
1, 136131, Note_on_c, 0, 62, 41
1, 136132, Control_c, 0, 67, 26
1, 136146, Control_c, 0, 67, 21
1, 136149, Note_off_c, 0, 58, 58
1, 136161, Control_c, 0, 67, 16
1, 136176, Control_c, 0, 67, 10
1, 136191, Control_c, 0, 67, 0
1, 136399, Note_off_c, 0, 62, 60
1, 136408, Note_on_c, 0, 65, 61
1, 136533, Note_off_c, 0, 82, 57
1, 136592, Note_off_c, 0, 65, 57
1, 136738, Note_on_c, 0, 82, 82
1, 136762, Note_on_c, 0, 70, 46
1, 137037, Note_off_c, 0, 82, 62
1, 137192, Note_on_c, 0, 60, 34
1, 137207, Control_c, 0, 64, 110
1, 137222, Note_on_c, 0, 82, 56
1, 137222, Control_c, 0, 64, 97
1, 137237, Control_c, 0, 64, 88
1, 137252, Control_c, 0, 64, 82
1, 137266, Control_c, 0, 64, 80
1, 137281, Control_c, 0, 64, 78
1, 137296, Control_c, 0, 64, 77
1, 137300, Note_off_c, 0, 70, 40
1, 137311, Control_c, 0, 64, 74
1, 137326, Control_c, 0, 64, 71
1, 137341, Control_c, 0, 64, 68
1, 137355, Control_c, 0, 64, 66
1, 137370, Control_c, 0, 64, 65
1, 137385, Control_c, 0, 64, 64
1, 137400, Control_c, 0, 64, 62
1, 137415, Control_c, 0, 64, 60
1, 137430, Control_c, 0, 64, 56
1, 137445, Control_c, 0, 64, 54
1, 137459, Control_c, 0, 64, 52
1, 137474, Control_c, 0, 64, 51
1, 137489, Control_c, 0, 64, 52
1, 137504, Control_c, 0, 64, 54
1, 137518, Control_c, 0, 64, 56
1, 137540, Control_c, 0, 64, 59
1, 137555, Control_c, 0, 64, 61
1, 137570, Control_c, 0, 64, 63
1, 137585, Control_c, 0, 64, 66
1, 137600, Control_c, 0, 64, 70
1, 137612, Note_on_c, 0, 63, 29
1, 137615, Control_c, 0, 64, 76
1, 137630, Control_c, 0, 64, 86
1, 137645, Control_c, 0, 64, 96
1, 137660, Control_c, 0, 64, 112
1, 137674, Control_c, 0, 64, 127
1, 137695, Note_off_c, 0, 60, 42
1, 137858, Note_off_c, 0, 63, 29
1, 137898, Note_on_c, 0, 53, 36
1, 137901, Note_on_c, 0, 80, 51
1, 138023, Note_off_c, 0, 82, 57
1, 138065, Note_off_c, 0, 80, 63
1, 138155, Note_on_c, 0, 58, 37
1, 138208, Control_c, 0, 64, 119
1, 138223, Control_c, 0, 64, 106
1, 138238, Control_c, 0, 64, 98
1, 138241, Note_on_c, 0, 80, 52
1, 138253, Control_c, 0, 64, 92
1, 138268, Control_c, 0, 64, 84
1, 138283, Control_c, 0, 64, 78
1, 138304, Control_c, 0, 64, 72
1, 138319, Control_c, 0, 64, 67
1, 138334, Control_c, 0, 64, 64
1, 138336, Note_off_c, 0, 53, 38
1, 138363, Control_c, 0, 64, 64
1, 138378, Control_c, 0, 64, 65
1, 138393, Control_c, 0, 64, 66
1, 138408, Control_c, 0, 64, 69
1, 138423, Control_c, 0, 64, 73
1, 138438, Control_c, 0, 64, 81
1, 138452, Control_c, 0, 64, 92
1, 138467, Control_c, 0, 64, 102
1, 138482, Control_c, 0, 64, 100
1, 138497, Control_c, 0, 64, 94
1, 138512, Control_c, 0, 64, 87
1, 138523, Note_on_c, 0, 79, 69
1, 138527, Control_c, 0, 64, 81
1, 138538, Note_on_c, 0, 62, 36
1, 138541, Control_c, 0, 64, 75
1, 138556, Control_c, 0, 64, 68
1, 138571, Control_c, 0, 64, 67
1, 138586, Control_c, 0, 64, 68
1, 138601, Control_c, 0, 64, 70
1, 138615, Control_c, 0, 64, 73
1, 138630, Control_c, 0, 64, 78
1, 138645, Control_c, 0, 64, 85
1, 138660, Control_c, 0, 64, 92
1, 138675, Control_c, 0, 64, 94
1, 138689, Control_c, 0, 64, 91
1, 138704, Control_c, 0, 64, 87
1, 138719, Control_c, 0, 64, 81
1, 138734, Control_c, 0, 64, 75
1, 138746, Note_on_c, 0, 78, 77
1, 138748, Control_c, 0, 64, 68
1, 138755, Note_on_c, 0, 68, 35
1, 138763, Control_c, 0, 64, 64
1, 138794, Control_c, 0, 64, 66
1, 138797, Note_off_c, 0, 58, 42
1, 138809, Control_c, 0, 64, 69
1, 138819, Note_off_c, 0, 79, 60
1, 138819, Note_off_c, 0, 80, 40
1, 138824, Control_c, 0, 64, 73
1, 138833, Note_off_c, 0, 62, 40
1, 138838, Control_c, 0, 64, 79
1, 138853, Control_c, 0, 64, 90
1, 138868, Control_c, 0, 64, 109
1, 138883, Control_c, 0, 64, 127
1, 138890, Note_off_c, 0, 78, 63
1, 138957, Control_c, 0, 64, 117
1, 138971, Control_c, 0, 64, 108
1, 138975, Note_on_c, 0, 78, 66
1, 138986, Control_c, 0, 64, 99
1, 138987, Note_on_c, 0, 58, 36
1, 139001, Control_c, 0, 64, 90
1, 139016, Control_c, 0, 64, 78
1, 139031, Control_c, 0, 64, 69
1, 139053, Control_c, 0, 64, 61
1, 139056, Note_off_c, 0, 68, 33
1, 139068, Control_c, 0, 64, 53
1, 139083, Control_c, 0, 64, 52
1, 139098, Control_c, 0, 64, 53
1, 139113, Control_c, 0, 64, 55
1, 139127, Control_c, 0, 64, 56
1, 139142, Control_c, 0, 64, 58
1, 139157, Control_c, 0, 64, 60
1, 139171, Control_c, 0, 64, 63
1, 139186, Control_c, 0, 64, 67
1, 139201, Control_c, 0, 64, 74
1, 139210, Note_on_c, 0, 62, 44
1, 139216, Control_c, 0, 64, 85
1, 139231, Control_c, 0, 64, 103
1, 139245, Control_c, 0, 64, 127
1, 139250, Note_off_c, 0, 62, 63
1, 139251, Note_off_c, 0, 58, 61
1, 139276, Note_off_c, 0, 78, 60
1, 139394, Control_c, 0, 64, 117
1, 139409, Control_c, 0, 64, 107
1, 139424, Control_c, 0, 64, 99
1, 139434, Note_on_c, 0, 51, 41
1, 139438, Note_on_c, 0, 79, 54
1, 139438, Control_c, 0, 64, 92
1, 139453, Control_c, 0, 64, 88
1, 139468, Control_c, 0, 64, 85
1, 139483, Control_c, 0, 64, 83
1, 139497, Control_c, 0, 64, 78
1, 139512, Control_c, 0, 64, 71
1, 139527, Control_c, 0, 64, 63
1, 139542, Control_c, 0, 64, 50
1, 139556, Control_c, 0, 64, 41
1, 139587, Control_c, 0, 64, 42
1, 139602, Control_c, 0, 64, 47
1, 139617, Control_c, 0, 64, 52
1, 139632, Control_c, 0, 64, 56
1, 139647, Control_c, 0, 64, 60
1, 139656, Note_on_c, 0, 56, 50
1, 139661, Control_c, 0, 64, 64
1, 139676, Control_c, 0, 64, 70
1, 139691, Control_c, 0, 64, 77
1, 139695, Note_off_c, 0, 79, 61
1, 139706, Control_c, 0, 64, 87
1, 139721, Control_c, 0, 64, 101
1, 139735, Control_c, 0, 64, 127
1, 139913, Note_off_c, 0, 51, 39
1, 139920, Note_on_c, 0, 60, 41
1, 139954, Note_on_c, 0, 80, 74
1, 139958, Note_on_c, 0, 75, 38
1, 140060, Note_off_c, 0, 75, 44
1, 140234, Note_on_c, 0, 67, 52
1, 140295, Note_off_c, 0, 56, 12
1, 140310, Note_off_c, 0, 67, 59
1, 140347, Note_on_c, 0, 75, 88
1, 140451, Note_off_c, 0, 80, 62
1, 140474, Note_off_c, 0, 60, 52
1, 140497, Note_on_c, 0, 56, 39
1, 140522, Note_on_c, 0, 79, 76
1, 140529, Control_c, 0, 64, 119
1, 140551, Control_c, 0, 64, 107
1, 140566, Control_c, 0, 64, 101
1, 140581, Control_c, 0, 64, 94
1, 140596, Control_c, 0, 64, 85
1, 140611, Control_c, 0, 64, 78
1, 140625, Control_c, 0, 64, 72
1, 140637, Note_off_c, 0, 75, 60
1, 140640, Control_c, 0, 64, 67
1, 140655, Control_c, 0, 64, 64
1, 140670, Control_c, 0, 64, 63
1, 140685, Control_c, 0, 64, 61
1, 140699, Control_c, 0, 64, 55
1, 140714, Control_c, 0, 64, 49
1, 140729, Control_c, 0, 64, 47
1, 140743, Control_c, 0, 64, 48
1, 140758, Control_c, 0, 64, 52
1, 140773, Control_c, 0, 64, 56
1, 140778, Note_on_c, 0, 60, 43
1, 140788, Control_c, 0, 64, 61
1, 140803, Control_c, 0, 64, 66
1, 140817, Control_c, 0, 64, 73
1, 140832, Control_c, 0, 64, 87
1, 140847, Control_c, 0, 64, 127
1, 140861, Note_off_c, 0, 56, 42
1, 140998, Note_on_c, 0, 77, 61
1, 141004, Note_on_c, 0, 50, 35
1, 141010, Control_c, 0, 64, 117
1, 141025, Control_c, 0, 64, 105
1, 141040, Control_c, 0, 64, 96
1, 141055, Control_c, 0, 64, 87
1, 141070, Control_c, 0, 64, 75
1, 141076, Note_off_c, 0, 79, 57
1, 141084, Control_c, 0, 64, 65
1, 141090, Note_off_c, 0, 60, 36
1, 141099, Control_c, 0, 64, 53
1, 141114, Control_c, 0, 64, 33
1, 141129, Control_c, 0, 64, 29
1, 141158, Control_c, 0, 64, 33
1, 141173, Control_c, 0, 64, 42
1, 141189, Control_c, 0, 64, 51
1, 141204, Control_c, 0, 64, 60
1, 141219, Control_c, 0, 64, 66
1, 141219, Note_on_c, 0, 55, 34
1, 141233, Control_c, 0, 64, 72
1, 141248, Control_c, 0, 64, 87
1, 141263, Control_c, 0, 64, 117
1, 141265, Note_off_c, 0, 77, 57
1, 141285, Control_c, 0, 64, 127
1, 141329, Note_off_c, 0, 50, 36
1, 141490, Note_on_c, 0, 59, 31
1, 141502, Note_on_c, 0, 79, 59
1, 141580, Note_off_c, 0, 55, 42
1, 141755, Note_on_c, 0, 65, 39
1, 141824, Note_off_c, 0, 65, 55
1, 141870, Note_on_c, 0, 74, 62
1, 142050, Note_on_c, 0, 55, 30
1, 142074, Note_on_c, 0, 77, 60
1, 142078, Control_c, 0, 64, 108
1, 142093, Control_c, 0, 64, 97
1, 142108, Control_c, 0, 64, 90
1, 142123, Control_c, 0, 64, 84
1, 142137, Control_c, 0, 64, 81
1, 142142, Note_off_c, 0, 79, 32
1, 142147, Note_off_c, 0, 59, 41
1, 142152, Control_c, 0, 64, 79
1, 142167, Control_c, 0, 64, 77
1, 142182, Control_c, 0, 64, 72
1, 142186, Note_off_c, 0, 74, 62
1, 142196, Control_c, 0, 64, 67
1, 142211, Control_c, 0, 64, 64
1, 142226, Control_c, 0, 64, 63
1, 142241, Control_c, 0, 64, 61
1, 142256, Control_c, 0, 64, 59
1, 142271, Control_c, 0, 64, 55
1, 142286, Control_c, 0, 64, 53
1, 142301, Control_c, 0, 64, 55
1, 142316, Control_c, 0, 64, 57
1, 142331, Control_c, 0, 64, 60
1, 142345, Control_c, 0, 64, 62
1, 142360, Control_c, 0, 64, 64
1, 142375, Note_on_c, 0, 75, 67
1, 142375, Control_c, 0, 64, 67
1, 142378, Note_on_c, 0, 60, 33
1, 142389, Control_c, 0, 64, 71
1, 142404, Control_c, 0, 64, 77
1, 142419, Control_c, 0, 64, 84
1, 142434, Control_c, 0, 64, 91
1, 142441, Note_off_c, 0, 55, 40
1, 142449, Control_c, 0, 64, 101
1, 142463, Control_c, 0, 64, 127
1, 142541, Note_off_c, 0, 77, 46
1, 142584, Note_on_c, 0, 48, 45
1, 142602, Note_on_c, 0, 74, 74
1, 142685, Note_off_c, 0, 75, 59
1, 142745, Note_off_c, 0, 60, 36
1, 142798, Control_c, 0, 64, 116
1, 142812, Control_c, 0, 64, 108
1, 142819, Note_on_c, 0, 53, 41
1, 142827, Control_c, 0, 64, 102
1, 142842, Control_c, 0, 64, 95
1, 142857, Control_c, 0, 64, 87
1, 142872, Control_c, 0, 64, 79
1, 142882, Note_on_c, 0, 72, 58
1, 142886, Control_c, 0, 64, 72
1, 142901, Control_c, 0, 64, 67
1, 142905, Note_off_c, 0, 74, 60
1, 142916, Control_c, 0, 64, 66
1, 142931, Control_c, 0, 64, 67
1, 142934, Note_off_c, 0, 48, 33
1, 142946, Control_c, 0, 64, 67
1, 142960, Control_c, 0, 64, 68
1, 142975, Control_c, 0, 64, 70
1, 142990, Control_c, 0, 64, 73
1, 143002, Note_off_c, 0, 72, 61
1, 143005, Control_c, 0, 64, 76
1, 143019, Control_c, 0, 64, 80
1, 143034, Control_c, 0, 64, 81
1, 143038, Note_on_c, 0, 74, 62
1, 143049, Control_c, 0, 64, 80
1, 143064, Control_c, 0, 64, 77
1, 143079, Control_c, 0, 64, 74
1, 143094, Control_c, 0, 64, 72
1, 143109, Control_c, 0, 64, 71
1, 143124, Control_c, 0, 64, 73
1, 143138, Control_c, 0, 64, 75
1, 143138, Note_off_c, 0, 74, 58
1, 143147, Note_on_c, 0, 72, 64
1, 143153, Control_c, 0, 64, 75
1, 143198, Control_c, 0, 64, 75
1, 143227, Control_c, 0, 64, 74
1, 143233, Note_on_c, 0, 57, 40
1, 143242, Control_c, 0, 64, 74
1, 143257, Control_c, 0, 64, 73
1, 143272, Control_c, 0, 64, 73
1, 143283, Note_on_c, 0, 71, 60
1, 143286, Control_c, 0, 64, 72
1, 143294, Note_off_c, 0, 72, 57
1, 143301, Control_c, 0, 64, 72
1, 143316, Control_c, 0, 64, 71
1, 143330, Control_c, 0, 64, 70
1, 143345, Control_c, 0, 64, 69
1, 143360, Control_c, 0, 64, 68
1, 143375, Control_c, 0, 64, 67
1, 143390, Control_c, 0, 64, 66
1, 143404, Control_c, 0, 64, 65
1, 143419, Control_c, 0, 64, 64
1, 143422, Note_on_c, 0, 72, 59
1, 143434, Control_c, 0, 64, 63
1, 143449, Control_c, 0, 64, 63
1, 143450, Note_off_c, 0, 71, 58
1, 143464, Control_c, 0, 64, 62
1, 143478, Control_c, 0, 64, 61
1, 143493, Control_c, 0, 64, 60
1, 143508, Control_c, 0, 64, 60
1, 143523, Control_c, 0, 64, 58
1, 143545, Control_c, 0, 64, 57
1, 143560, Control_c, 0, 64, 56
1, 143574, Note_on_c, 0, 63, 32
1, 143575, Control_c, 0, 64, 55
1, 143581, Note_on_c, 0, 74, 53
1, 143581, Note_off_c, 0, 72, 60
1, 143591, Control_c, 0, 64, 53
1, 143606, Control_c, 0, 64, 49
1, 143621, Control_c, 0, 64, 41
1, 143635, Control_c, 0, 64, 28
1, 143650, Control_c, 0, 64, 20
1, 143680, Control_c, 0, 64, 21
1, 143695, Control_c, 0, 64, 28
1, 143709, Control_c, 0, 64, 34
1, 143724, Control_c, 0, 64, 40
1, 143739, Control_c, 0, 64, 46
1, 143754, Control_c, 0, 64, 53
1, 143768, Control_c, 0, 64, 59
1, 143772, Note_on_c, 0, 75, 50
1, 143776, Note_off_c, 0, 74, 61
1, 143783, Control_c, 0, 64, 62
1, 143798, Control_c, 0, 64, 64
1, 143813, Control_c, 0, 64, 67
1, 143828, Control_c, 0, 64, 70
1, 143842, Control_c, 0, 64, 76
1, 143854, Note_off_c, 0, 63, 46
1, 143857, Control_c, 0, 64, 84
1, 143863, Note_off_c, 0, 53, 40
1, 143872, Control_c, 0, 64, 91
1, 143875, Note_off_c, 0, 75, 61
1, 143887, Control_c, 0, 64, 98
1, 143902, Control_c, 0, 64, 105
1, 143916, Control_c, 0, 64, 111
1, 143931, Control_c, 0, 64, 115
1, 143946, Control_c, 0, 64, 117
1, 143976, Control_c, 0, 64, 116
1, 143991, Control_c, 0, 64, 115
1, 144006, Control_c, 0, 64, 113
1, 144021, Control_c, 0, 64, 112
1, 144035, Control_c, 0, 64, 111
1, 144048, Note_on_c, 0, 60, 56
1, 144050, Control_c, 0, 64, 110
1, 144080, Control_c, 0, 64, 108
1, 144095, Control_c, 0, 64, 107
1, 144109, Control_c, 0, 64, 106
1, 144124, Control_c, 0, 64, 104
1, 144139, Control_c, 0, 64, 103
1, 144153, Control_c, 0, 64, 101
1, 144167, Note_on_c, 0, 53, 37
1, 144168, Control_c, 0, 64, 100
1, 144183, Control_c, 0, 64, 98
1, 144198, Control_c, 0, 64, 97
1, 144213, Control_c, 0, 64, 95
1, 144228, Control_c, 0, 64, 93
1, 144242, Control_c, 0, 64, 92
1, 144250, Note_on_c, 0, 65, 61
1, 144250, Note_off_c, 0, 57, 34
1, 144257, Control_c, 0, 64, 89
1, 144272, Control_c, 0, 64, 86
1, 144295, Control_c, 0, 64, 83
1, 144309, Control_c, 0, 64, 80
1, 144324, Control_c, 0, 64, 77
1, 144339, Control_c, 0, 64, 76
1, 144354, Control_c, 0, 64, 74
1, 144368, Control_c, 0, 64, 72
1, 144384, Control_c, 0, 64, 71
1, 144399, Control_c, 0, 64, 70
1, 144414, Control_c, 0, 64, 69
1, 144429, Control_c, 0, 64, 68
1, 144444, Control_c, 0, 64, 67
1, 144458, Control_c, 0, 64, 65
1, 144473, Control_c, 0, 64, 64
1, 144488, Control_c, 0, 64, 64
1, 144503, Control_c, 0, 64, 63
1, 144518, Control_c, 0, 64, 60
1, 144532, Control_c, 0, 64, 55
1, 144547, Control_c, 0, 64, 50
1, 144562, Control_c, 0, 64, 49
1, 144577, Control_c, 0, 64, 50
1, 144591, Control_c, 0, 64, 52
1, 144596, Note_on_c, 0, 56, 37
1, 144606, Control_c, 0, 64, 55
1, 144621, Control_c, 0, 64, 57
1, 144636, Control_c, 0, 64, 60
1, 144651, Control_c, 0, 64, 63
1, 144665, Control_c, 0, 64, 66
1, 144680, Control_c, 0, 64, 69
1, 144695, Control_c, 0, 64, 73
1, 144710, Control_c, 0, 64, 79
1, 144725, Control_c, 0, 64, 86
1, 144739, Control_c, 0, 64, 96
1, 144754, Control_c, 0, 64, 110
1, 144769, Control_c, 0, 64, 127
1, 144808, Note_on_c, 0, 46, 44
1, 144823, Note_off_c, 0, 56, 42
1, 145059, Note_on_c, 0, 67, 64
1, 145073, Note_on_c, 0, 62, 59
1, 145080, Note_on_c, 0, 56, 35
1, 145097, Note_off_c, 0, 46, 32
1, 145191, Note_off_c, 0, 60, 48
1, 145255, Note_off_c, 0, 65, 32
1, 145351, Note_on_c, 0, 60, 43
1, 145376, Note_off_c, 0, 67, 49
1, 145432, Note_off_c, 0, 56, 41
1, 145483, Note_off_c, 0, 53, 39
1, 145675, Note_on_c, 0, 67, 59
1, 145684, Note_on_c, 0, 58, 37
1, 145756, Note_off_c, 0, 60, 49
1, 145797, Note_off_c, 0, 58, 54
1, 146100, Note_on_c, 0, 39, 36
1, 146110, Note_on_c, 0, 63, 48
1, 146164, Control_c, 0, 64, 106
1, 146178, Control_c, 0, 64, 94
1, 146193, Control_c, 0, 64, 87
1, 146208, Control_c, 0, 64, 83
1, 146223, Control_c, 0, 64, 79
1, 146237, Control_c, 0, 64, 76
1, 146252, Control_c, 0, 64, 72
1, 146267, Control_c, 0, 64, 69
1, 146273, Note_off_c, 0, 67, 55
1, 146282, Control_c, 0, 64, 64
1, 146295, Note_off_c, 0, 62, 56
1, 146297, Control_c, 0, 64, 60
1, 146311, Control_c, 0, 64, 52
1, 146326, Control_c, 0, 64, 44
1, 146341, Control_c, 0, 64, 39
1, 146355, Control_c, 0, 64, 38
1, 146370, Control_c, 0, 64, 41
1, 146385, Control_c, 0, 64, 46
1, 146400, Control_c, 0, 64, 50
1, 146415, Control_c, 0, 64, 55
1, 146429, Control_c, 0, 64, 60
1, 146444, Control_c, 0, 64, 63
1, 146459, Control_c, 0, 64, 66
1, 146474, Control_c, 0, 64, 69
1, 146489, Control_c, 0, 64, 73
1, 146504, Control_c, 0, 64, 80
1, 146511, Note_on_c, 0, 46, 39
1, 146519, Control_c, 0, 64, 89
1, 146541, Control_c, 0, 64, 100
1, 146549, Note_off_c, 0, 39, 41
1, 146555, Control_c, 0, 64, 121
1, 146570, Control_c, 0, 64, 127
1, 146767, Note_on_c, 0, 51, 56
1, 146874, Note_off_c, 0, 46, 32
1, 146995, Note_on_c, 0, 55, 63
1, 147011, Note_off_c, 0, 63, 42
1, 147055, Note_off_c, 0, 51, 62
1, 147240, Note_on_c, 0, 75, 74
1, 147250, Note_on_c, 0, 58, 44
1, 147266, Note_off_c, 0, 55, 55
1, 147570, Note_off_c, 0, 58, 37
1, 147610, Note_on_c, 0, 63, 51
1, 147624, Note_off_c, 0, 75, 52
1, 147706, Note_on_c, 0, 74, 78
1, 147831, Note_on_c, 0, 60, 45
1, 147857, Note_on_c, 0, 72, 82
1, 147875, Note_on_c, 0, 67, 59
1, 147878, Note_off_c, 0, 63, 47
1, 147912, Control_c, 0, 64, 101
1, 147921, Note_off_c, 0, 74, 60
1, 147927, Control_c, 0, 64, 88
1, 147942, Control_c, 0, 64, 80
1, 147956, Control_c, 0, 64, 75
1, 147971, Control_c, 0, 64, 71
1, 147986, Control_c, 0, 64, 67
1, 148000, Control_c, 0, 64, 61
1, 148015, Control_c, 0, 64, 53
1, 148038, Control_c, 0, 64, 47
1, 148053, Control_c, 0, 64, 45
1, 148068, Control_c, 0, 64, 46
1, 148082, Control_c, 0, 64, 49
1, 148097, Control_c, 0, 64, 52
1, 148112, Control_c, 0, 64, 56
1, 148117, Note_on_c, 0, 63, 50
1, 148127, Control_c, 0, 64, 60
1, 148142, Control_c, 0, 64, 64
1, 148156, Control_c, 0, 64, 67
1, 148171, Control_c, 0, 64, 73
1, 148186, Control_c, 0, 64, 82
1, 148200, Control_c, 0, 64, 96
1, 148215, Control_c, 0, 64, 127
1, 148286, Note_off_c, 0, 63, 35
1, 148339, Note_on_c, 0, 53, 43
1, 148358, Note_off_c, 0, 60, 56
1, 148379, Control_c, 0, 67, 15
1, 148394, Control_c, 0, 67, 28
1, 148409, Control_c, 0, 67, 37
1, 148424, Control_c, 0, 67, 45
1, 148438, Control_c, 0, 67, 53
1, 148453, Control_c, 0, 67, 62
1, 148468, Control_c, 0, 67, 67
1, 148483, Control_c, 0, 67, 70
1, 148498, Control_c, 0, 67, 71
1, 148513, Control_c, 0, 67, 72
1, 148558, Control_c, 0, 64, 115
1, 148572, Control_c, 0, 64, 105
1, 148587, Control_c, 0, 64, 99
1, 148602, Control_c, 0, 64, 95
1, 148615, Note_on_c, 0, 63, 30
1, 148617, Note_on_c, 0, 74, 62
1, 148617, Control_c, 0, 64, 90
1, 148631, Control_c, 0, 64, 83
1, 148639, Note_on_c, 0, 69, 45
1, 148640, Note_off_c, 0, 67, 34
1, 148646, Control_c, 0, 64, 77
1, 148661, Control_c, 0, 64, 73
1, 148676, Control_c, 0, 64, 70
1, 148691, Control_c, 0, 64, 69
1, 148705, Control_c, 0, 64, 65
1, 148716, Note_off_c, 0, 72, 54
1, 148720, Control_c, 0, 64, 60
1, 148735, Control_c, 0, 64, 48
1, 148750, Control_c, 0, 64, 32
1, 148765, Control_c, 0, 64, 22
1, 148802, Control_c, 0, 64, 26
1, 148817, Control_c, 0, 64, 37
1, 148831, Control_c, 0, 64, 49
1, 148831, Control_c, 0, 67, 71
1, 148832, Note_off_c, 0, 53, 42
1, 148846, Control_c, 0, 64, 59
1, 148846, Control_c, 0, 67, 70
1, 148861, Control_c, 0, 64, 65
1, 148861, Control_c, 0, 67, 70
1, 148876, Control_c, 0, 64, 70
1, 148876, Control_c, 0, 67, 69
1, 148891, Control_c, 0, 64, 80
1, 148891, Control_c, 0, 67, 68
1, 148905, Control_c, 0, 64, 97
1, 148905, Control_c, 0, 67, 67
1, 148920, Control_c, 0, 64, 127
1, 148920, Control_c, 0, 67, 66
1, 148935, Control_c, 0, 67, 66
1, 148945, Note_on_c, 0, 67, 48
1, 148949, Control_c, 0, 67, 65
1, 148957, Note_off_c, 0, 74, 61
1, 148964, Control_c, 0, 67, 65
1, 148979, Control_c, 0, 67, 64
1, 148994, Control_c, 0, 67, 63
1, 149009, Control_c, 0, 67, 62
1, 149023, Control_c, 0, 67, 61
1, 149029, Note_off_c, 0, 63, 41
1, 149038, Control_c, 0, 67, 60
1, 149053, Control_c, 0, 67, 59
1, 149068, Control_c, 0, 67, 58
1, 149083, Control_c, 0, 67, 57
1, 149097, Control_c, 0, 67, 56
1, 149112, Control_c, 0, 67, 55
1, 149127, Control_c, 0, 67, 55
1, 149142, Control_c, 0, 67, 54
1, 149157, Control_c, 0, 67, 53
1, 149163, Note_on_c, 0, 65, 44
1, 149171, Note_on_c, 0, 74, 69
1, 149211, Note_off_c, 0, 67, 37
1, 149212, Note_off_c, 0, 65, 63
1, 149276, Control_c, 0, 67, 53
1, 149321, Control_c, 0, 67, 52
1, 149357, Note_off_c, 0, 74, 60
1, 149410, Control_c, 0, 67, 51
1, 149429, Note_on_c, 0, 46, 36
1, 149467, Note_on_c, 0, 70, 65
1, 149469, Control_c, 0, 67, 51
1, 149484, Control_c, 0, 64, 118
1, 149499, Control_c, 0, 64, 101
1, 149499, Control_c, 0, 67, 50
1, 149514, Control_c, 0, 64, 91
1, 149535, Control_c, 0, 64, 85
1, 149535, Control_c, 0, 67, 50
1, 149550, Control_c, 0, 64, 80
1, 149565, Note_off_c, 0, 69, 56
1, 149565, Control_c, 0, 64, 76
1, 149565, Control_c, 0, 67, 48
1, 149580, Control_c, 0, 64, 71
1, 149580, Control_c, 0, 67, 48
1, 149595, Control_c, 0, 64, 66
1, 149595, Control_c, 0, 67, 47
1, 149610, Control_c, 0, 64, 62
1, 149625, Control_c, 0, 64, 59
1, 149625, Control_c, 0, 67, 46
1, 149640, Control_c, 0, 64, 57
1, 149640, Control_c, 0, 67, 46
1, 149654, Control_c, 0, 64, 55
1, 149654, Control_c, 0, 67, 45
1, 149669, Control_c, 0, 64, 51
1, 149669, Control_c, 0, 67, 45
1, 149684, Control_c, 0, 64, 49
1, 149699, Control_c, 0, 64, 51
1, 149699, Control_c, 0, 67, 44
1, 149714, Control_c, 0, 64, 56
1, 149728, Control_c, 0, 64, 61
1, 149728, Control_c, 0, 67, 43
1, 149743, Control_c, 0, 64, 65
1, 149743, Control_c, 0, 67, 43
1, 149744, Note_on_c, 0, 53, 60
1, 149758, Control_c, 0, 64, 70
1, 149758, Control_c, 0, 67, 42
1, 149771, Control_c, 0, 64, 79
1, 149771, Control_c, 0, 67, 41
1, 149786, Control_c, 0, 64, 100
1, 149786, Control_c, 0, 67, 41
1, 149801, Control_c, 0, 64, 127
1, 149801, Control_c, 0, 67, 40
1, 149807, Note_off_c, 0, 46, 49
1, 149816, Control_c, 0, 67, 35
1, 149831, Control_c, 0, 67, 28
1, 149846, Control_c, 0, 67, 22
1, 149860, Control_c, 0, 67, 16
1, 149875, Control_c, 0, 67, 11
1, 149890, Control_c, 0, 67, 0
1, 149968, Note_off_c, 0, 53, 35
1, 149970, Note_on_c, 0, 58, 73
1, 150000, Note_off_c, 0, 70, 48
1, 150212, Note_on_c, 0, 62, 50
1, 150217, Note_on_c, 0, 82, 81
1, 150242, Note_off_c, 0, 58, 60
1, 150516, Note_off_c, 0, 62, 56
1, 150521, Note_on_c, 0, 65, 66
1, 150591, Note_off_c, 0, 82, 55
1, 150710, Note_off_c, 0, 65, 53
1, 150847, Note_on_c, 0, 70, 55
1, 150850, Note_on_c, 0, 82, 86
1, 150920, Note_off_c, 0, 70, 61
1, 151130, Note_off_c, 0, 82, 64
1, 151322, Note_on_c, 0, 36, 56
1, 151378, Note_on_c, 0, 82, 79
1, 151404, Control_c, 0, 64, 97
1, 151418, Control_c, 0, 64, 79
1, 151433, Control_c, 0, 64, 64
1, 151448, Control_c, 0, 64, 35
1, 151463, Control_c, 0, 64, 0
1, 151507, Control_c, 0, 64, 18
1, 151522, Control_c, 0, 64, 44
1, 151537, Control_c, 0, 64, 61
1, 151552, Control_c, 0, 64, 71
1, 151568, Control_c, 0, 64, 91
1, 151573, Note_off_c, 0, 36, 61
1, 151583, Control_c, 0, 64, 127
1, 151846, Note_on_c, 0, 64, 50
1, 152119, Note_on_c, 0, 58, 53
1, 152331, Note_on_c, 0, 55, 36
1, 152373, Note_on_c, 0, 72, 62
1, 152446, Note_off_c, 0, 64, 56
1, 152457, Note_off_c, 0, 58, 53
1, 152507, Note_off_c, 0, 82, 60
1, 152682, Note_on_c, 0, 64, 62
1, 152685, Note_off_c, 0, 72, 38
1, 152919, Note_on_c, 0, 58, 42
1, 152941, Note_on_c, 0, 74, 67
1, 153073, Note_off_c, 0, 55, 39
1, 153137, Note_off_c, 0, 64, 32
1, 153172, Note_on_c, 0, 53, 43
1, 153214, Control_c, 0, 64, 123
1, 153229, Control_c, 0, 64, 116
1, 153243, Control_c, 0, 64, 113
1, 153255, Note_on_c, 0, 75, 54
1, 153258, Control_c, 0, 64, 105
1, 153280, Control_c, 0, 64, 93
1, 153294, Control_c, 0, 64, 82
1, 153309, Control_c, 0, 64, 75
1, 153321, Note_off_c, 0, 58, 42
1, 153324, Control_c, 0, 64, 71
1, 153339, Control_c, 0, 64, 68
1, 153345, Note_off_c, 0, 74, 54
1, 153354, Control_c, 0, 64, 65
1, 153369, Control_c, 0, 64, 60
1, 153384, Control_c, 0, 64, 53
1, 153399, Control_c, 0, 64, 48
1, 153423, Note_on_c, 0, 77, 70
1, 153428, Control_c, 0, 64, 49
1, 153443, Control_c, 0, 64, 52
1, 153445, Note_off_c, 0, 75, 61
1, 153458, Control_c, 0, 64, 55
1, 153473, Control_c, 0, 64, 58
1, 153488, Control_c, 0, 64, 61
1, 153502, Control_c, 0, 64, 65
1, 153516, Control_c, 0, 64, 70
1, 153525, Note_on_c, 0, 75, 81
1, 153531, Control_c, 0, 64, 77
1, 153546, Control_c, 0, 64, 88
1, 153561, Control_c, 0, 64, 90
1, 153572, Note_off_c, 0, 77, 54
1, 153575, Control_c, 0, 64, 85
1, 153577, Note_on_c, 0, 63, 51
1, 153590, Control_c, 0, 64, 80
1, 153605, Control_c, 0, 64, 73
1, 153619, Control_c, 0, 64, 67
1, 153634, Control_c, 0, 64, 62
1, 153658, Note_on_c, 0, 74, 80
1, 153664, Control_c, 0, 64, 64
1, 153679, Control_c, 0, 64, 65
1, 153694, Control_c, 0, 64, 68
1, 153707, Note_off_c, 0, 75, 60
1, 153709, Control_c, 0, 64, 72
1, 153724, Control_c, 0, 64, 78
1, 153739, Control_c, 0, 64, 86
1, 153768, Control_c, 0, 64, 81
1, 153783, Control_c, 0, 64, 74
1, 153798, Control_c, 0, 64, 66
1, 153812, Control_c, 0, 64, 57
1, 153827, Control_c, 0, 64, 47
1, 153842, Control_c, 0, 64, 50
1, 153843, Note_on_c, 0, 57, 44
1, 153857, Control_c, 0, 64, 55
1, 153872, Control_c, 0, 64, 60
1, 153878, Note_on_c, 0, 75, 84
1, 153886, Control_c, 0, 64, 63
1, 153901, Control_c, 0, 64, 67
1, 153916, Control_c, 0, 64, 76
1, 153919, Note_off_c, 0, 63, 63
1, 153922, Note_off_c, 0, 53, 37
1, 153931, Control_c, 0, 64, 94
1, 153941, Note_off_c, 0, 57, 64
1, 153946, Control_c, 0, 64, 127
1, 153956, Note_off_c, 0, 74, 55
1, 154117, Control_c, 0, 64, 118
1, 154129, Note_on_c, 0, 46, 39
1, 154132, Control_c, 0, 64, 101
1, 154147, Control_c, 0, 64, 92
1, 154162, Control_c, 0, 64, 81
1, 154177, Control_c, 0, 64, 69
1, 154181, Note_on_c, 0, 79, 63
1, 154191, Control_c, 0, 64, 53
1, 154204, Note_off_c, 0, 75, 60
1, 154206, Control_c, 0, 64, 0
1, 154265, Control_c, 0, 64, 16
1, 154280, Control_c, 0, 64, 37
1, 154295, Control_c, 0, 64, 54
1, 154310, Control_c, 0, 64, 63
1, 154324, Control_c, 0, 64, 69
1, 154339, Control_c, 0, 64, 78
1, 154354, Control_c, 0, 64, 97
1, 154367, Note_off_c, 0, 46, 51
1, 154369, Control_c, 0, 64, 127
1, 154402, Note_off_c, 0, 79, 59
1, 154545, Note_on_c, 0, 62, 39
1, 154597, Note_on_c, 0, 79, 60
1, 154968, Note_on_c, 0, 56, 26
1, 155195, Note_off_c, 0, 62, 33
1, 155322, Note_on_c, 0, 77, 46
1, 155324, Note_off_c, 0, 56, 42
1, 155404, Note_off_c, 0, 79, 38
1, 155576, Note_on_c, 0, 75, 53
1, 155602, Note_off_c, 0, 77, 33
1, 155747, Note_off_c, 0, 75, 58
1, 155828, Note_on_c, 0, 39, 23
1, 155837, Control_c, 0, 64, 118
1, 155852, Control_c, 0, 64, 98
1, 155867, Control_c, 0, 64, 88
1, 155882, Control_c, 0, 64, 82
1, 155897, Control_c, 0, 64, 78
1, 155897, Control_c, 0, 67, 21
1, 155902, Note_on_c, 0, 75, 43
1, 155912, Control_c, 0, 64, 75
1, 155912, Control_c, 0, 67, 36
1, 155927, Control_c, 0, 64, 71
1, 155927, Control_c, 0, 67, 53
1, 155941, Control_c, 0, 64, 67
1, 155941, Control_c, 0, 67, 69
1, 155956, Control_c, 0, 64, 63
1, 155956, Control_c, 0, 67, 82
1, 155971, Control_c, 0, 64, 55
1, 155971, Control_c, 0, 67, 95
1, 155986, Control_c, 0, 64, 46
1, 155986, Control_c, 0, 67, 106
1, 156001, Control_c, 0, 64, 36
1, 156001, Control_c, 0, 67, 117
1, 156015, Control_c, 0, 64, 30
1, 156015, Control_c, 0, 67, 126
1, 156030, Control_c, 0, 64, 32
1, 156030, Control_c, 0, 67, 127
1, 156045, Control_c, 0, 64, 41
1, 156060, Control_c, 0, 64, 52
1, 156075, Control_c, 0, 64, 62
1, 156089, Control_c, 0, 64, 67
1, 156104, Control_c, 0, 64, 75
1, 156119, Control_c, 0, 64, 91
1, 156134, Control_c, 0, 64, 127
1, 156141, Note_on_c, 0, 46, 32
1, 156153, Note_off_c, 0, 39, 41
1, 156215, Note_off_c, 0, 46, 60
1, 156277, Note_on_c, 0, 55, 41
1, 156329, Note_off_c, 0, 55, 55
1, 156380, Note_on_c, 0, 51, 47
1, 156454, Control_c, 0, 67, 127
1, 156463, Note_off_c, 0, 51, 59
1, 156468, Control_c, 0, 67, 126
1, 156483, Control_c, 0, 67, 125
1, 156494, Note_on_c, 0, 58, 47
1, 156498, Control_c, 0, 67, 125
1, 156572, Control_c, 0, 67, 124
1, 156586, Control_c, 0, 67, 124
1, 156603, Note_on_c, 0, 55, 38
1, 156662, Note_off_c, 0, 75, 41
1, 156675, Control_c, 0, 67, 123
1, 156719, Control_c, 0, 67, 122
1, 156776, Note_on_c, 0, 63, 44
1, 156825, Note_off_c, 0, 58, 12
1, 156929, Note_off_c, 0, 63, 37
1, 156983, Note_off_c, 0, 55, 38
1, 157266, Note_on_c, 0, 67, 35
1, 157421, Note_on_c, 0, 68, 39
1, 157453, Note_off_c, 0, 67, 37
1, 157453, Control_c, 0, 67, 122
1, 157467, Control_c, 0, 67, 121
1, 157502, Note_off_c, 0, 68, 48
1, 157530, Note_on_c, 0, 70, 41
1, 157571, Control_c, 0, 67, 120
1, 157584, Note_off_c, 0, 70, 62
1, 157619, Note_on_c, 0, 74, 52
1, 157630, Control_c, 0, 67, 120
1, 157645, Control_c, 0, 67, 119
1, 157691, Note_off_c, 0, 74, 57
1, 157709, Note_on_c, 0, 72, 52
1, 157733, Control_c, 0, 64, 119
1, 157748, Control_c, 0, 64, 107
1, 157771, Control_c, 0, 64, 99
1, 157771, Control_c, 0, 67, 119
1, 157786, Note_on_c, 0, 39, 29
1, 157786, Control_c, 0, 64, 93
1, 157801, Control_c, 0, 64, 86
1, 157815, Control_c, 0, 64, 79
1, 157830, Control_c, 0, 64, 72
1, 157845, Control_c, 0, 64, 65
1, 157859, Control_c, 0, 64, 59
1, 157861, Note_off_c, 0, 72, 57
1, 157874, Control_c, 0, 64, 51
1, 157876, Note_on_c, 0, 70, 49
1, 157889, Control_c, 0, 64, 47
1, 157904, Control_c, 0, 67, 118
1, 157919, Control_c, 0, 64, 51
1, 157933, Control_c, 0, 64, 55
1, 157933, Control_c, 0, 67, 117
1, 157948, Control_c, 0, 64, 59
1, 157964, Control_c, 0, 64, 63
1, 157979, Control_c, 0, 64, 67
1, 157994, Control_c, 0, 64, 73
1, 158009, Control_c, 0, 64, 85
1, 158024, Control_c, 0, 64, 112
1, 158037, Note_on_c, 0, 46, 35
1, 158038, Control_c, 0, 64, 127
1, 158038, Control_c, 0, 67, 117
1, 158049, Note_off_c, 0, 39, 41
1, 158103, Note_off_c, 0, 46, 58
1, 158162, Note_on_c, 0, 55, 44
1, 158186, Control_c, 0, 67, 116
1, 158211, Note_off_c, 0, 55, 59
1, 158246, Control_c, 0, 67, 115
1, 158272, Note_on_c, 0, 51, 47
1, 158320, Control_c, 0, 67, 115
1, 158353, Note_off_c, 0, 51, 54
1, 158386, Note_on_c, 0, 58, 43
1, 158409, Control_c, 0, 67, 114
1, 158452, Note_off_c, 0, 58, 54
1, 158496, Note_on_c, 0, 55, 39
1, 158593, Note_off_c, 0, 70, 37
1, 158655, Note_on_c, 0, 63, 35
1, 158815, Note_off_c, 0, 63, 35
1, 158863, Note_off_c, 0, 55, 39
1, 159089, Note_on_c, 0, 67, 35
1, 159230, Note_on_c, 0, 68, 53
1, 159326, Note_off_c, 0, 67, 26
1, 159336, Note_on_c, 0, 70, 60
1, 159353, Note_off_c, 0, 68, 50
1, 159414, Note_off_c, 0, 70, 64
1, 159423, Note_on_c, 0, 74, 62
1, 159492, Control_c, 0, 64, 118
1, 159497, Note_on_c, 0, 72, 69
1, 159506, Control_c, 0, 64, 104
1, 159515, Note_off_c, 0, 74, 55
1, 159521, Control_c, 0, 64, 95
1, 159536, Control_c, 0, 64, 89
1, 159551, Control_c, 0, 64, 83
1, 159557, Note_on_c, 0, 39, 34
1, 159566, Control_c, 0, 64, 78
1, 159581, Control_c, 0, 64, 74
1, 159596, Control_c, 0, 64, 67
1, 159611, Control_c, 0, 64, 60
1, 159626, Control_c, 0, 64, 48
1, 159629, Note_on_c, 0, 70, 59
1, 159641, Control_c, 0, 64, 35
1, 159642, Note_off_c, 0, 72, 58
1, 159656, Control_c, 0, 64, 34
1, 159671, Control_c, 0, 64, 36
1, 159671, Control_c, 0, 67, 114
1, 159685, Control_c, 0, 64, 41
1, 159700, Control_c, 0, 64, 53
1, 159715, Control_c, 0, 64, 62
1, 159729, Control_c, 0, 64, 68
1, 159744, Control_c, 0, 64, 78
1, 159759, Control_c, 0, 64, 98
1, 159761, Note_off_c, 0, 39, 49
1, 159763, Note_on_c, 0, 46, 43
1, 159774, Control_c, 0, 64, 127
1, 159843, Note_off_c, 0, 46, 60
1, 159897, Note_on_c, 0, 56, 40
1, 159926, Note_off_c, 0, 56, 57
1, 159993, Note_on_c, 0, 53, 47
1, 160106, Note_on_c, 0, 58, 48
1, 160195, Note_off_c, 0, 58, 54
1, 160212, Note_on_c, 0, 56, 43
1, 160396, Note_on_c, 0, 62, 39
1, 160556, Note_off_c, 0, 70, 35
1, 160579, Note_off_c, 0, 53, 36
1, 160592, Note_off_c, 0, 62, 37
1, 160639, Note_off_c, 0, 56, 41
1, 160848, Note_on_c, 0, 65, 39
1, 160996, Note_on_c, 0, 68, 52
1, 161105, Note_on_c, 0, 70, 60
1, 161126, Note_off_c, 0, 65, 37
1, 161160, Note_off_c, 0, 68, 36
1, 161182, Note_off_c, 0, 70, 64
1, 161187, Note_on_c, 0, 74, 67
1, 161271, Note_on_c, 0, 72, 72
1, 161298, Note_off_c, 0, 74, 58
1, 161345, Control_c, 0, 64, 111
1, 161345, Control_c, 0, 67, 114
1, 161360, Control_c, 0, 64, 100
1, 161374, Control_c, 0, 64, 90
1, 161389, Control_c, 0, 64, 82
1, 161390, Note_on_c, 0, 39, 36
1, 161404, Control_c, 0, 64, 76
1, 161419, Control_c, 0, 64, 69
1, 161420, Note_on_c, 0, 70, 66
1, 161434, Control_c, 0, 64, 63
1, 161444, Note_off_c, 0, 72, 58
1, 161448, Control_c, 0, 64, 49
1, 161463, Control_c, 0, 64, 34
1, 161493, Control_c, 0, 64, 37
1, 161515, Control_c, 0, 64, 43
1, 161530, Control_c, 0, 64, 51
1, 161545, Control_c, 0, 64, 59
1, 161560, Control_c, 0, 64, 66
1, 161563, Note_on_c, 0, 46, 47
1, 161575, Control_c, 0, 64, 72
1, 161575, Control_c, 0, 67, 115
1, 161586, Note_off_c, 0, 39, 54
1, 161589, Control_c, 0, 64, 85
1, 161604, Control_c, 0, 64, 108
1, 161611, Note_off_c, 0, 70, 63
1, 161619, Control_c, 0, 64, 127
1, 161655, Note_off_c, 0, 46, 61
1, 161663, Note_on_c, 0, 55, 57
1, 161678, Control_c, 0, 67, 115
1, 161737, Control_c, 0, 67, 116
1, 161739, Note_off_c, 0, 55, 59
1, 161753, Note_on_c, 0, 61, 70
1, 161796, Control_c, 0, 67, 117
1, 161826, Control_c, 0, 67, 117
1, 161844, Note_on_c, 0, 63, 74
1, 161880, Note_off_c, 0, 61, 56
1, 161907, Note_on_c, 0, 67, 70
1, 161940, Note_off_c, 0, 63, 61
1, 161961, Note_on_c, 0, 72, 79
1, 161963, Note_off_c, 0, 67, 63
1, 162024, Note_on_c, 0, 70, 79
1, 162064, Control_c, 0, 64, 123
1, 162064, Control_c, 0, 67, 118
1, 162073, Note_off_c, 0, 72, 61
1, 162079, Control_c, 0, 64, 107
1, 162094, Control_c, 0, 64, 94
1, 162102, Note_on_c, 0, 68, 82
1, 162109, Control_c, 0, 64, 79
1, 162109, Control_c, 0, 67, 119
1, 162123, Control_c, 0, 64, 66
1, 162128, Note_off_c, 0, 70, 62
1, 162130, Note_on_c, 0, 39, 44
1, 162138, Control_c, 0, 64, 50
1, 162138, Control_c, 0, 67, 119
1, 162153, Control_c, 0, 64, 0
1, 162168, Control_c, 0, 67, 120
1, 162212, Control_c, 0, 64, 19
1, 162227, Control_c, 0, 64, 39
1, 162242, Control_c, 0, 64, 56
1, 162257, Note_on_c, 0, 47, 59
1, 162264, Control_c, 0, 64, 65
1, 162275, Note_off_c, 0, 39, 62
1, 162279, Control_c, 0, 64, 72
1, 162294, Control_c, 0, 64, 83
1, 162309, Control_c, 0, 64, 113
1, 162324, Control_c, 0, 64, 127
1, 162399, Note_on_c, 0, 56, 65
1, 162412, Control_c, 0, 67, 120
1, 162495, Note_off_c, 0, 56, 59
1, 162529, Note_on_c, 0, 59, 77
1, 162549, Note_off_c, 0, 68, 18
1, 162576, Control_c, 0, 67, 121
1, 162629, Note_off_c, 0, 47, 33
1, 162714, Note_on_c, 0, 63, 74
1, 162784, Control_c, 0, 67, 122
1, 162818, Note_off_c, 0, 59, 40
1, 162878, Note_on_c, 0, 65, 73
1, 162968, Note_off_c, 0, 63, 49
1, 163058, Control_c, 0, 64, 121
1, 163073, Control_c, 0, 64, 108
1, 163075, Note_on_c, 0, 39, 32
1, 163087, Control_c, 0, 64, 102
1, 163102, Control_c, 0, 64, 95
1, 163117, Control_c, 0, 64, 88
1, 163132, Control_c, 0, 64, 81
1, 163132, Control_c, 0, 67, 123
1, 163144, Note_on_c, 0, 67, 57
1, 163147, Control_c, 0, 64, 75
1, 163161, Control_c, 0, 64, 71
1, 163161, Control_c, 0, 67, 124
1, 163176, Control_c, 0, 64, 68
1, 163191, Control_c, 0, 64, 65
1, 163191, Control_c, 0, 67, 124
1, 163206, Control_c, 0, 64, 61
1, 163221, Control_c, 0, 64, 52
1, 163221, Control_c, 0, 67, 125
1, 163235, Note_off_c, 0, 65, 58
1, 163236, Control_c, 0, 64, 27
1, 163251, Control_c, 0, 64, 0
1, 163280, Control_c, 0, 67, 125
1, 163325, Control_c, 0, 64, 25
1, 163340, Control_c, 0, 64, 48
1, 163354, Control_c, 0, 64, 62
1, 163367, Note_on_c, 0, 46, 30
1, 163369, Control_c, 0, 64, 68
1, 163383, Note_off_c, 0, 39, 53
1, 163384, Control_c, 0, 64, 75
1, 163399, Control_c, 0, 64, 87
1, 163414, Control_c, 0, 64, 127
1, 163452, Note_off_c, 0, 46, 59
1, 163499, Note_on_c, 0, 55, 37
1, 163548, Note_off_c, 0, 55, 59
1, 163602, Note_on_c, 0, 51, 52
1, 163686, Note_off_c, 0, 51, 54
1, 163713, Note_on_c, 0, 58, 46
1, 163763, Control_c, 0, 67, 125
1, 163778, Control_c, 0, 67, 124
1, 163802, Note_off_c, 0, 58, 48
1, 163822, Note_on_c, 0, 55, 37
1, 163847, Note_off_c, 0, 67, 34
1, 163993, Note_on_c, 0, 63, 31
1, 164073, Control_c, 0, 67, 125
1, 164158, Note_off_c, 0, 63, 44
1, 164176, Control_c, 0, 67, 125
1, 164197, Note_off_c, 0, 55, 39
1, 164429, Control_c, 0, 67, 126
1, 164468, Note_on_c, 0, 67, 40
1, 164569, Note_off_c, 0, 67, 48
1, 164604, Note_on_c, 0, 68, 46
1, 164676, Note_off_c, 0, 68, 55
1, 164690, Note_on_c, 0, 70, 58
1, 164746, Note_off_c, 0, 70, 60
1, 164768, Note_on_c, 0, 74, 61
1, 164831, Note_off_c, 0, 74, 62
1, 164836, Control_c, 0, 64, 104
1, 164843, Note_on_c, 0, 72, 63
1, 164851, Control_c, 0, 64, 95
1, 164866, Control_c, 0, 64, 88
1, 164881, Control_c, 0, 64, 80
1, 164896, Control_c, 0, 64, 71
1, 164911, Control_c, 0, 64, 59
1, 164925, Control_c, 0, 64, 32
1, 164927, Note_on_c, 0, 39, 23
1, 164940, Control_c, 0, 64, 0
1, 164944, Note_off_c, 0, 72, 62
1, 164957, Note_on_c, 0, 70, 55
1, 164985, Control_c, 0, 67, 125
1, 164999, Control_c, 0, 64, 34
1, 164999, Control_c, 0, 67, 125
1, 165014, Control_c, 0, 64, 56
1, 165029, Control_c, 0, 64, 67
1, 165043, Control_c, 0, 64, 78
1, 165058, Control_c, 0, 64, 108
1, 165073, Control_c, 0, 64, 127
1, 165073, Control_c, 0, 67, 124
1, 165080, Note_off_c, 0, 39, 38
1, 165102, Note_on_c, 0, 46, 31
1, 165135, Note_off_c, 0, 70, 60
1, 165167, Note_off_c, 0, 46, 50
1, 165269, Note_on_c, 0, 55, 36
1, 165295, Note_on_c, 0, 82, 59
1, 165364, Note_off_c, 0, 55, 48
1, 165393, Control_c, 0, 67, 124
1, 165403, Note_on_c, 0, 51, 42
1, 165408, Control_c, 0, 67, 123
1, 165437, Control_c, 0, 67, 122
1, 165451, Note_off_c, 0, 51, 56
1, 165519, Note_on_c, 0, 58, 38
1, 165526, Control_c, 0, 67, 122
1, 165588, Note_off_c, 0, 58, 52
1, 165632, Note_on_c, 0, 55, 31
1, 165704, Control_c, 0, 67, 121
1, 165726, Note_off_c, 0, 82, 36
1, 165734, Control_c, 0, 67, 120
1, 165810, Note_on_c, 0, 63, 33
1, 165981, Note_off_c, 0, 63, 40
1, 166023, Control_c, 0, 67, 121
1, 166032, Note_off_c, 0, 55, 41
1, 166097, Control_c, 0, 67, 122
1, 166231, Control_c, 0, 67, 122
1, 166363, Note_on_c, 0, 67, 50
1, 166449, Note_off_c, 0, 67, 58
1, 166458, Note_on_c, 0, 68, 65
1, 166483, Control_c, 0, 67, 123
1, 166527, Note_on_c, 0, 70, 76
1, 166536, Note_off_c, 0, 68, 60
1, 166557, Control_c, 0, 67, 124
1, 166584, Note_off_c, 0, 70, 63
1, 166592, Note_on_c, 0, 74, 76
1, 166655, Note_on_c, 0, 72, 80
1, 166676, Note_off_c, 0, 74, 62
1, 166735, Control_c, 0, 67, 125
1, 166756, Note_on_c, 0, 70, 80
1, 166757, Note_on_c, 0, 39, 41
1, 166758, Control_c, 0, 64, 94
1, 166758, Control_c, 0, 67, 125
1, 166769, Note_off_c, 0, 72, 61
1, 166773, Control_c, 0, 64, 66
1, 166773, Control_c, 0, 67, 127
1, 166788, Control_c, 0, 64, 9
1, 166788, Control_c, 0, 67, 127
1, 166802, Control_c, 0, 64, 0
1, 166862, Control_c, 0, 64, 43
1, 166876, Control_c, 0, 64, 66
1, 166891, Control_c, 0, 64, 86
1, 166893, Note_off_c, 0, 39, 60
1, 166906, Control_c, 0, 64, 127
1, 166907, Note_on_c, 0, 46, 50
1, 166959, Note_off_c, 0, 70, 57
1, 167007, Note_off_c, 0, 46, 58
1, 167064, Note_on_c, 0, 56, 43
1, 167117, Note_on_c, 0, 82, 85
1, 167122, Note_off_c, 0, 56, 60
1, 167230, Note_on_c, 0, 53, 51
1, 167232, Control_c, 0, 67, 127
1, 167247, Control_c, 0, 67, 126
1, 167262, Control_c, 0, 67, 125
1, 167306, Control_c, 0, 67, 125
1, 167320, Control_c, 0, 67, 124
1, 167335, Control_c, 0, 67, 124
1, 167336, Note_on_c, 0, 58, 53
1, 167350, Control_c, 0, 67, 123
1, 167365, Control_c, 0, 67, 122
1, 167409, Control_c, 0, 67, 122
1, 167439, Control_c, 0, 67, 121
1, 167454, Control_c, 0, 67, 120
1, 167458, Note_on_c, 0, 56, 51
1, 167483, Control_c, 0, 67, 120
1, 167559, Note_off_c, 0, 82, 38
1, 167581, Control_c, 0, 67, 119
1, 167596, Control_c, 0, 67, 119
1, 167611, Control_c, 0, 67, 117
1, 167625, Control_c, 0, 67, 116
1, 167627, Note_on_c, 0, 62, 49
1, 167677, Note_off_c, 0, 58, 16
1, 167755, Note_off_c, 0, 53, 35
1, 167792, Note_off_c, 0, 62, 52
1, 167838, Note_off_c, 0, 56, 42
1, 168139, Note_on_c, 0, 65, 51
1, 168263, Note_on_c, 0, 68, 67
1, 168283, Control_c, 0, 67, 115
1, 168360, Note_off_c, 0, 65, 37
1, 168365, Note_on_c, 0, 70, 76
1, 168411, Note_off_c, 0, 68, 57
1, 168435, Note_on_c, 0, 74, 82
1, 168438, Note_off_c, 0, 70, 64
1, 168515, Note_on_c, 0, 72, 82
1, 168536, Control_c, 0, 67, 116
1, 168551, Control_c, 0, 67, 117
1, 168551, Note_off_c, 0, 74, 61
1, 168565, Control_c, 0, 67, 117
1, 168580, Control_c, 0, 67, 118
1, 168593, Note_on_c, 0, 39, 43
1, 168595, Control_c, 0, 64, 108
1, 168595, Control_c, 0, 67, 119
1, 168610, Control_c, 0, 64, 88
1, 168610, Control_c, 0, 67, 119
1, 168625, Control_c, 0, 64, 74
1, 168625, Control_c, 0, 67, 120
1, 168639, Control_c, 0, 64, 61
1, 168639, Control_c, 0, 67, 120
1, 168654, Control_c, 0, 64, 25
1, 168654, Control_c, 0, 67, 121
1, 168657, Note_on_c, 0, 70, 76
1, 168669, Control_c, 0, 64, 0
1, 168669, Control_c, 0, 67, 122
1, 168684, Control_c, 0, 67, 122
1, 168700, Note_off_c, 0, 72, 59
1, 168743, Control_c, 0, 67, 124
1, 168758, Control_c, 0, 64, 32
1, 168772, Control_c, 0, 64, 59
1, 168787, Control_c, 0, 64, 69
1, 168790, Note_on_c, 0, 46, 54
1, 168802, Control_c, 0, 64, 81
1, 168817, Note_off_c, 0, 39, 62
1, 168817, Control_c, 0, 64, 127
1, 168846, Note_off_c, 0, 70, 63
1, 168891, Note_off_c, 0, 46, 56
1, 168897, Note_on_c, 0, 55, 62
1, 168995, Note_on_c, 0, 61, 75
1, 169009, Note_off_c, 0, 55, 55
1, 169077, Note_on_c, 0, 63, 77
1, 169095, Note_off_c, 0, 61, 60
1, 169105, Control_c, 0, 67, 123
1, 169135, Control_c, 0, 67, 122
1, 169139, Note_on_c, 0, 67, 77
1, 169153, Note_off_c, 0, 63, 66
1, 169191, Note_on_c, 0, 72, 83
1, 169196, Note_off_c, 0, 67, 64
1, 169225, Control_c, 0, 67, 122
1, 169240, Control_c, 0, 67, 121
1, 169250, Note_on_c, 0, 70, 85
1, 169299, Control_c, 0, 64, 104
1, 169305, Note_off_c, 0, 72, 61
1, 169314, Control_c, 0, 64, 93
1, 169314, Control_c, 0, 67, 120
1, 169329, Control_c, 0, 64, 85
1, 169340, Note_on_c, 0, 68, 83
1, 169344, Control_c, 0, 64, 77
1, 169358, Note_on_c, 0, 39, 51
1, 169358, Control_c, 0, 64, 67
1, 169365, Note_off_c, 0, 70, 63
1, 169373, Control_c, 0, 64, 52
1, 169388, Control_c, 0, 64, 0
1, 169448, Control_c, 0, 64, 22
1, 169462, Control_c, 0, 64, 45
1, 169477, Control_c, 0, 64, 62
1, 169483, Note_on_c, 0, 47, 65
1, 169492, Control_c, 0, 64, 70
1, 169494, Note_off_c, 0, 39, 61
1, 169507, Control_c, 0, 64, 81
1, 169507, Control_c, 0, 67, 120
1, 169521, Control_c, 0, 64, 104
1, 169536, Control_c, 0, 64, 127
1, 169622, Note_on_c, 0, 56, 71
1, 169745, Note_off_c, 0, 56, 59
1, 169758, Note_on_c, 0, 59, 79
1, 169761, Note_off_c, 0, 68, 24
1, 169843, Note_off_c, 0, 47, 49
1, 169923, Note_on_c, 0, 63, 79
1, 169993, Note_off_c, 0, 59, 57
1, 170072, Note_on_c, 0, 65, 84
1, 170134, Note_off_c, 0, 63, 55
1, 170256, Control_c, 0, 64, 112
1, 170260, Note_on_c, 0, 39, 38
1, 170271, Control_c, 0, 64, 104
1, 170286, Control_c, 0, 64, 99
1, 170300, Control_c, 0, 64, 93
1, 170300, Control_c, 0, 67, 120
1, 170315, Control_c, 0, 64, 85
1, 170320, Note_on_c, 0, 67, 66
1, 170330, Control_c, 0, 64, 77
1, 170345, Control_c, 0, 64, 69
1, 170345, Control_c, 0, 67, 121
1, 170360, Control_c, 0, 64, 63
1, 170360, Control_c, 0, 67, 122
1, 170375, Control_c, 0, 64, 59
1, 170390, Control_c, 0, 64, 58
1, 170405, Note_off_c, 0, 65, 57
1, 170405, Control_c, 0, 64, 54
1, 170419, Control_c, 0, 64, 48
1, 170434, Control_c, 0, 64, 35
1, 170449, Control_c, 0, 64, 9
1, 170464, Control_c, 0, 64, 0
1, 170479, Control_c, 0, 64, 17
1, 170479, Control_c, 0, 67, 122
1, 170500, Control_c, 0, 64, 37
1, 170515, Control_c, 0, 64, 51
1, 170530, Control_c, 0, 64, 62
1, 170539, Note_on_c, 0, 46, 35
1, 170545, Control_c, 0, 64, 68
1, 170560, Control_c, 0, 64, 76
1, 170560, Note_off_c, 0, 39, 54
1, 170575, Control_c, 0, 64, 93
1, 170590, Control_c, 0, 64, 127
1, 170628, Note_off_c, 0, 46, 60
1, 170669, Note_on_c, 0, 55, 47
1, 170726, Note_off_c, 0, 55, 53
1, 170787, Note_on_c, 0, 51, 52
1, 170897, Note_on_c, 0, 58, 56
1, 170900, Note_off_c, 0, 51, 54
1, 170915, Control_c, 0, 67, 122
1, 170932, Note_off_c, 0, 67, 54
1, 170945, Control_c, 0, 67, 121
1, 170974, Control_c, 0, 67, 120
1, 171001, Note_on_c, 0, 55, 52
1, 171004, Control_c, 0, 67, 120
1, 171049, Control_c, 0, 67, 119
1, 171078, Control_c, 0, 67, 119
1, 171093, Control_c, 0, 67, 118
1, 171122, Note_on_c, 0, 63, 52
1, 171123, Control_c, 0, 67, 117
1, 171153, Control_c, 0, 67, 117
1, 171182, Control_c, 0, 67, 116
1, 171197, Control_c, 0, 67, 115
1, 171204, Note_off_c, 0, 58, 29
1, 171212, Control_c, 0, 67, 115
1, 171227, Control_c, 0, 67, 114
1, 171242, Note_off_c, 0, 63, 50
1, 171257, Note_on_c, 0, 67, 53
1, 171263, Control_c, 0, 67, 114
1, 171293, Control_c, 0, 67, 113
1, 171308, Control_c, 0, 67, 112
1, 171313, Note_off_c, 0, 55, 27
1, 171323, Control_c, 0, 67, 112
1, 171338, Control_c, 0, 67, 111
1, 171353, Control_c, 0, 67, 110
1, 171367, Control_c, 0, 67, 110
1, 171375, Note_on_c, 0, 70, 62
1, 171382, Control_c, 0, 67, 109
1, 171394, Note_off_c, 0, 67, 49
1, 171397, Control_c, 0, 67, 109
1, 171412, Control_c, 0, 67, 107
1, 171441, Control_c, 0, 67, 106
1, 171456, Control_c, 0, 67, 105
1, 171471, Control_c, 0, 67, 105
1, 171482, Note_on_c, 0, 79, 73
1, 171487, Note_off_c, 0, 70, 63
1, 171606, Note_on_c, 0, 77, 83
1, 171684, Note_off_c, 0, 79, 59
1, 171719, Note_on_c, 0, 75, 86
1, 171724, Control_c, 0, 67, 105
1, 171768, Control_c, 0, 67, 106
1, 171789, Note_off_c, 0, 77, 55
1, 171812, Control_c, 0, 67, 107
1, 171856, Control_c, 0, 64, 110
1, 171868, Note_on_c, 0, 43, 41
1, 171871, Control_c, 0, 64, 102
1, 171886, Control_c, 0, 64, 97
1, 171901, Control_c, 0, 64, 94
1, 171916, Control_c, 0, 64, 89
1, 171916, Control_c, 0, 67, 107
1, 171923, Note_on_c, 0, 74, 75
1, 171931, Control_c, 0, 64, 81
1, 171946, Control_c, 0, 64, 74
1, 171961, Control_c, 0, 64, 68
1, 171976, Control_c, 0, 64, 62
1, 171980, Note_off_c, 0, 75, 58
1, 171997, Control_c, 0, 64, 51
1, 172012, Control_c, 0, 64, 34
1, 172027, Control_c, 0, 64, 0
1, 172071, Control_c, 0, 64, 33
1, 172086, Control_c, 0, 64, 56
1, 172101, Control_c, 0, 64, 67
1, 172116, Control_c, 0, 64, 76
1, 172117, Note_on_c, 0, 50, 46
1, 172131, Control_c, 0, 64, 97
1, 172131, Note_off_c, 0, 43, 41
1, 172146, Control_c, 0, 64, 127
1, 172221, Note_off_c, 0, 50, 62
1, 172250, Note_on_c, 0, 58, 55
1, 172283, Note_off_c, 0, 58, 64
1, 172309, Control_c, 0, 67, 107
1, 172323, Control_c, 0, 67, 106
1, 172354, Control_c, 0, 67, 105
1, 172360, Note_on_c, 0, 55, 61
1, 172384, Control_c, 0, 67, 105
1, 172413, Control_c, 0, 67, 104
1, 172428, Control_c, 0, 67, 103
1, 172443, Control_c, 0, 67, 103
1, 172458, Control_c, 0, 67, 102
1, 172473, Note_on_c, 0, 62, 71
1, 172473, Control_c, 0, 67, 102
1, 172487, Control_c, 0, 67, 101
1, 172502, Control_c, 0, 67, 100
1, 172517, Control_c, 0, 67, 99
1, 172531, Note_off_c, 0, 55, 56
1, 172532, Control_c, 0, 67, 96
1, 172547, Control_c, 0, 67, 80
1, 172561, Control_c, 0, 67, 62
1, 172576, Control_c, 0, 67, 47
1, 172577, Note_on_c, 0, 58, 75
1, 172591, Control_c, 0, 67, 38
1, 172605, Control_c, 0, 67, 30
1, 172620, Control_c, 0, 67, 25
1, 172623, Note_off_c, 0, 74, 55
1, 172635, Control_c, 0, 67, 21
1, 172638, Note_off_c, 0, 62, 53
1, 172650, Control_c, 0, 67, 17
1, 172665, Control_c, 0, 67, 14
1, 172679, Control_c, 0, 67, 11
1, 172685, Note_on_c, 0, 67, 75
1, 172694, Control_c, 0, 67, 8
1, 172709, Control_c, 0, 67, 0
1, 172806, Note_on_c, 0, 70, 73
1, 172856, Note_off_c, 0, 67, 56
1, 172913, Note_on_c, 0, 74, 80
1, 172930, Note_off_c, 0, 70, 62
1, 173001, Note_off_c, 0, 58, 56
1, 173015, Note_on_c, 0, 82, 85
1, 173036, Note_off_c, 0, 74, 61
1, 173138, Note_on_c, 0, 74, 86
1, 173189, Note_off_c, 0, 82, 64
1, 173237, Note_on_c, 0, 75, 92
1, 173266, Note_off_c, 0, 74, 61
1, 173384, Control_c, 0, 64, 105
1, 173390, Note_on_c, 0, 46, 47
1, 173399, Control_c, 0, 64, 94
1, 173414, Control_c, 0, 64, 86
1, 173428, Control_c, 0, 64, 81
1, 173437, Note_on_c, 0, 76, 77
1, 173443, Control_c, 0, 64, 76
1, 173458, Control_c, 0, 64, 72
1, 173473, Control_c, 0, 64, 66
1, 173496, Control_c, 0, 64, 63
1, 173506, Note_off_c, 0, 75, 59
1, 173510, Control_c, 0, 64, 58
1, 173525, Control_c, 0, 64, 50
1, 173540, Control_c, 0, 64, 40
1, 173555, Control_c, 0, 64, 23
1, 173569, Control_c, 0, 64, 0
1, 173599, Control_c, 0, 64, 27
1, 173614, Control_c, 0, 64, 48
1, 173617, Note_on_c, 0, 53, 53
1, 173629, Control_c, 0, 64, 63
1, 173643, Control_c, 0, 64, 72
1, 173658, Control_c, 0, 64, 92
1, 173672, Note_off_c, 0, 46, 62
1, 173673, Control_c, 0, 64, 127
1, 173726, Note_off_c, 0, 53, 62
1, 173751, Note_on_c, 0, 77, 80
1, 173768, Note_on_c, 0, 62, 53
1, 173850, Note_off_c, 0, 62, 57
1, 173889, Note_on_c, 0, 58, 63
1, 173930, Note_off_c, 0, 76, 52
1, 174007, Note_on_c, 0, 65, 71
1, 174125, Note_on_c, 0, 62, 71
1, 174135, Note_off_c, 0, 77, 53
1, 174140, Note_off_c, 0, 58, 50
1, 174162, Note_off_c, 0, 65, 59
1, 174268, Note_on_c, 0, 70, 70
1, 174399, Note_on_c, 0, 74, 69
1, 174424, Note_off_c, 0, 70, 54
1, 174506, Note_off_c, 0, 62, 38
1, 174536, Note_on_c, 0, 77, 81
1, 174602, Note_off_c, 0, 74, 56
1, 174679, Note_on_c, 0, 86, 79
1, 174732, Note_off_c, 0, 77, 59
1, 174822, Control_c, 0, 64, 123
1, 174833, Note_on_c, 0, 84, 83
1, 174837, Control_c, 0, 64, 114
1, 174852, Control_c, 0, 64, 113
1, 174867, Control_c, 0, 64, 111
1, 174882, Control_c, 0, 64, 110
1, 174892, Note_off_c, 0, 86, 60
1, 174897, Control_c, 0, 64, 107
1, 174912, Control_c, 0, 64, 104
1, 174927, Control_c, 0, 64, 100
1, 174942, Control_c, 0, 64, 97
1, 174956, Control_c, 0, 64, 94
1, 174971, Control_c, 0, 64, 91
1, 174993, Control_c, 0, 64, 89
1, 175001, Note_on_c, 0, 82, 74
1, 175008, Control_c, 0, 64, 89
1, 175022, Control_c, 0, 64, 88
1, 175037, Control_c, 0, 64, 87
1, 175037, Control_c, 0, 67, 9
1, 175052, Control_c, 0, 64, 85
1, 175052, Control_c, 0, 67, 19
1, 175058, Note_off_c, 0, 84, 58
1, 175067, Control_c, 0, 64, 83
1, 175067, Control_c, 0, 67, 26
1, 175082, Control_c, 0, 64, 81
1, 175082, Control_c, 0, 67, 33
1, 175097, Control_c, 0, 64, 78
1, 175097, Control_c, 0, 67, 40
1, 175112, Control_c, 0, 64, 76
1, 175112, Control_c, 0, 67, 44
1, 175127, Control_c, 0, 64, 73
1, 175127, Control_c, 0, 67, 46
1, 175141, Control_c, 0, 64, 70
1, 175141, Control_c, 0, 67, 50
1, 175156, Control_c, 0, 64, 69
1, 175156, Control_c, 0, 67, 53
1, 175168, Note_on_c, 0, 50, 28
1, 175171, Control_c, 0, 64, 67
1, 175171, Control_c, 0, 67, 56
1, 175186, Control_c, 0, 64, 65
1, 175201, Control_c, 0, 64, 63
1, 175215, Control_c, 0, 64, 62
1, 175222, Note_on_c, 0, 80, 52
1, 175230, Control_c, 0, 64, 61
1, 175230, Control_c, 0, 67, 56
1, 175245, Control_c, 0, 64, 59
1, 175260, Control_c, 0, 64, 55
1, 175261, Note_off_c, 0, 82, 61
1, 175275, Control_c, 0, 64, 45
1, 175289, Control_c, 0, 64, 25
1, 175304, Control_c, 0, 64, 0
1, 175334, Control_c, 0, 67, 57
1, 175378, Control_c, 0, 64, 18
1, 175393, Control_c, 0, 64, 35
1, 175407, Control_c, 0, 64, 50
1, 175407, Control_c, 0, 67, 56
1, 175422, Control_c, 0, 64, 60
1, 175422, Control_c, 0, 67, 56
1, 175437, Control_c, 0, 64, 64
1, 175437, Control_c, 0, 67, 55
1, 175441, Note_on_c, 0, 81, 49
1, 175452, Control_c, 0, 64, 67
1, 175452, Control_c, 0, 67, 55
1, 175457, Note_on_c, 0, 57, 30
1, 175460, Note_off_c, 0, 80, 64
1, 175467, Control_c, 0, 64, 71
1, 175481, Control_c, 0, 64, 77
1, 175484, Note_off_c, 0, 50, 40
1, 175496, Control_c, 0, 64, 85
1, 175511, Control_c, 0, 64, 94
1, 175511, Control_c, 0, 67, 54
1, 175527, Control_c, 0, 64, 103
1, 175542, Control_c, 0, 64, 106
1, 175572, Control_c, 0, 64, 106
1, 175601, Control_c, 0, 64, 105
1, 175601, Control_c, 0, 67, 53
1, 175616, Control_c, 0, 64, 105
1, 175616, Control_c, 0, 67, 53
1, 175645, Control_c, 0, 64, 104
1, 175660, Control_c, 0, 64, 104
1, 175672, Note_on_c, 0, 65, 37
1, 175690, Control_c, 0, 64, 103
1, 175698, Note_off_c, 0, 57, 41
1, 175706, Note_on_c, 0, 89, 60
1, 175720, Control_c, 0, 64, 103
1, 175742, Control_c, 0, 64, 102
1, 175772, Control_c, 0, 64, 101
1, 175772, Control_c, 0, 67, 52
1, 175801, Control_c, 0, 67, 51
1, 175834, Note_off_c, 0, 81, 58
1, 175845, Control_c, 0, 64, 101
1, 175890, Control_c, 0, 67, 51
1, 175934, Control_c, 0, 64, 100
1, 175952, Note_on_c, 0, 88, 41
1, 175953, Note_on_c, 0, 62, 31
1, 175979, Control_c, 0, 67, 50
1, 175994, Control_c, 0, 67, 50
1, 176054, Note_off_c, 0, 65, 39
1, 176083, Control_c, 0, 64, 101
1, 176123, Note_on_c, 0, 86, 46
1, 176123, Note_off_c, 0, 88, 53
1, 176128, Note_on_c, 0, 69, 41
1, 176142, Control_c, 0, 67, 49
1, 176171, Control_c, 0, 67, 48
1, 176249, Note_off_c, 0, 62, 36
1, 176262, Note_off_c, 0, 89, 45
1, 176280, Note_off_c, 0, 86, 55
1, 176284, Note_on_c, 0, 81, 47
1, 176296, Note_on_c, 0, 65, 39
1, 176316, Note_off_c, 0, 81, 61
1, 176345, Note_off_c, 0, 69, 28
1, 176350, Control_c, 0, 67, 48
1, 176380, Control_c, 0, 64, 100
1, 176395, Control_c, 0, 67, 48
1, 176462, Note_on_c, 0, 74, 50
1, 176491, Control_c, 0, 64, 101
1, 176543, Note_off_c, 0, 74, 60
1, 176548, Note_off_c, 0, 65, 36
1, 176624, Control_c, 0, 64, 100
1, 176654, Control_c, 0, 64, 99
1, 176656, Note_on_c, 0, 69, 57
1, 176714, Control_c, 0, 64, 99
1, 176729, Control_c, 0, 64, 98
1, 176743, Control_c, 0, 64, 97
1, 176758, Control_c, 0, 64, 96
1, 176773, Control_c, 0, 64, 95
1, 176787, Control_c, 0, 64, 95
1, 176817, Control_c, 0, 64, 94
1, 176832, Control_c, 0, 64, 93
1, 176836, Note_on_c, 0, 65, 59
1, 176847, Control_c, 0, 64, 92
1, 176861, Control_c, 0, 64, 91
1, 176876, Control_c, 0, 64, 90
1, 176891, Control_c, 0, 64, 89
1, 176897, Note_off_c, 0, 69, 53
1, 176906, Control_c, 0, 64, 89
1, 176921, Control_c, 0, 64, 88
1, 176936, Control_c, 0, 64, 87
1, 176951, Control_c, 0, 64, 86
1, 176966, Control_c, 0, 64, 83
1, 176980, Control_c, 0, 64, 81
1, 176995, Control_c, 0, 64, 79
1, 177010, Control_c, 0, 64, 78
1, 177025, Control_c, 0, 64, 78
1, 177031, Note_on_c, 0, 62, 62
1, 177040, Control_c, 0, 64, 77
1, 177040, Control_c, 0, 67, 49
1, 177054, Control_c, 0, 64, 76
1, 177069, Control_c, 0, 64, 75
1, 177069, Control_c, 0, 67, 50
1, 177084, Control_c, 0, 64, 74
1, 177094, Note_off_c, 0, 65, 57
1, 177099, Control_c, 0, 64, 73
1, 177114, Control_c, 0, 64, 72
1, 177130, Control_c, 0, 64, 71
1, 177159, Control_c, 0, 64, 70
1, 177159, Control_c, 0, 67, 50
1, 177174, Control_c, 0, 64, 70
1, 177189, Control_c, 0, 64, 69
1, 177203, Control_c, 0, 64, 68
1, 177218, Control_c, 0, 64, 67
1, 177240, Control_c, 0, 64, 66
1, 177240, Control_c, 0, 67, 51
1, 177255, Control_c, 0, 64, 66
1, 177270, Control_c, 0, 64, 65
1, 177281, Note_on_c, 0, 64, 49
1, 177285, Control_c, 0, 64, 64
1, 177300, Control_c, 0, 64, 63
1, 177314, Control_c, 0, 64, 63
1, 177329, Control_c, 0, 64, 62
1, 177344, Control_c, 0, 64, 61
1, 177359, Control_c, 0, 64, 60
1, 177374, Control_c, 0, 64, 58
1, 177389, Control_c, 0, 64, 57
1, 177389, Note_off_c, 0, 62, 50
1, 177403, Control_c, 0, 64, 56
1, 177418, Control_c, 0, 64, 55
1, 177433, Control_c, 0, 64, 53
1, 177448, Control_c, 0, 64, 51
1, 177463, Control_c, 0, 64, 49
1, 177478, Control_c, 0, 64, 47
1, 177493, Control_c, 0, 64, 45
1, 177508, Control_c, 0, 64, 43
1, 177523, Control_c, 0, 64, 39
1, 177538, Control_c, 0, 64, 33
1, 177552, Control_c, 0, 64, 29
1, 177567, Control_c, 0, 64, 25
1, 177582, Control_c, 0, 64, 17
1, 177585, Note_on_c, 0, 67, 41
1, 177597, Control_c, 0, 64, 0
1, 177648, Note_on_c, 0, 65, 38
1, 177701, Note_off_c, 0, 67, 55
1, 177741, Note_off_c, 0, 64, 33
1, 178344, Note_off_c, 0, 65, 32
1, 178371, Note_on_c, 0, 52, 37
1, 178434, Control_c, 0, 67, 50
1, 178494, Control_c, 0, 67, 50
1, 178523, Control_c, 0, 67, 49
1, 178582, Control_c, 0, 64, 16
1, 178582, Control_c, 0, 67, 48
1, 178597, Control_c, 0, 64, 44
1, 178612, Control_c, 0, 64, 56
1, 178612, Control_c, 0, 67, 48
1, 178626, Control_c, 0, 64, 61
1, 178626, Control_c, 0, 67, 47
1, 178641, Control_c, 0, 64, 62
1, 178656, Control_c, 0, 64, 64
1, 178656, Control_c, 0, 67, 46
1, 178671, Control_c, 0, 64, 66
1, 178686, Control_c, 0, 64, 71
1, 178686, Control_c, 0, 67, 46
1, 178701, Control_c, 0, 64, 77
1, 178716, Control_c, 0, 64, 84
1, 178739, Control_c, 0, 64, 94
1, 178754, Control_c, 0, 64, 107
1, 178769, Control_c, 0, 64, 127
1, 179021, Note_on_c, 0, 40, 26
1, 179173, Note_off_c, 0, 40, 33
1, 179374, Control_c, 0, 67, 46
1, 179412, Note_on_c, 0, 40, 28
1, 179586, Note_off_c, 0, 40, 32
1, 179753, Control_c, 0, 64, 119
1, 179768, Control_c, 0, 64, 117
1, 179783, Control_c, 0, 64, 115
1, 179797, Control_c, 0, 64, 113
1, 179812, Control_c, 0, 64, 108
1, 179827, Control_c, 0, 64, 105
1, 179842, Control_c, 0, 64, 103
1, 179857, Control_c, 0, 64, 100
1, 179871, Control_c, 0, 64, 98
1, 179886, Control_c, 0, 64, 95
1, 179901, Control_c, 0, 64, 91
1, 179916, Control_c, 0, 64, 89
1, 179931, Control_c, 0, 64, 88
1, 179945, Control_c, 0, 64, 87
1, 179960, Control_c, 0, 64, 85
1, 179975, Control_c, 0, 64, 84
1, 179990, Control_c, 0, 64, 81
1, 180004, Control_c, 0, 64, 79
1, 180019, Control_c, 0, 64, 77
1, 180034, Control_c, 0, 64, 75
1, 180049, Control_c, 0, 64, 74
1, 180064, Control_c, 0, 64, 74
1, 180078, Control_c, 0, 64, 73
1, 180093, Control_c, 0, 64, 72
1, 180108, Control_c, 0, 64, 71
1, 180123, Control_c, 0, 64, 69
1, 180138, Control_c, 0, 64, 69
1, 180152, Control_c, 0, 64, 68
1, 180167, Control_c, 0, 64, 67
1, 180182, Control_c, 0, 64, 66
1, 180197, Control_c, 0, 64, 66
1, 180212, Control_c, 0, 64, 65
1, 180234, Control_c, 0, 64, 64
1, 180249, Control_c, 0, 64, 63
1, 180249, Control_c, 0, 67, 47
1, 180264, Control_c, 0, 64, 61
1, 180278, Control_c, 0, 64, 59
1, 180293, Control_c, 0, 64, 59
1, 180308, Control_c, 0, 64, 59
1, 180383, Control_c, 0, 64, 60
1, 180398, Control_c, 0, 64, 61
1, 180413, Control_c, 0, 64, 62
1, 180427, Control_c, 0, 64, 63
1, 180442, Control_c, 0, 64, 64
1, 180457, Control_c, 0, 64, 67
1, 180460, Note_on_c, 0, 62, 31
1, 180472, Control_c, 0, 64, 70
1, 180487, Control_c, 0, 64, 74
1, 180501, Control_c, 0, 64, 80
1, 180516, Control_c, 0, 64, 87
1, 180531, Control_c, 0, 64, 95
1, 180546, Control_c, 0, 64, 106
1, 180561, Control_c, 0, 64, 127
1, 180635, Control_c, 0, 67, 46
1, 180688, Note_on_c, 0, 40, 19
1, 180737, Note_on_c, 0, 64, 34
1, 180826, Note_off_c, 0, 40, 30
1, 180898, Note_off_c, 0, 64, 49
1, 180923, Note_on_c, 0, 68, 45
1, 181070, Note_on_c, 0, 72, 55
1, 181070, Note_off_c, 0, 68, 51
1, 181097, Note_on_c, 0, 40, 26
1, 181205, Note_on_c, 0, 71, 65
1, 181211, Note_off_c, 0, 62, 13
1, 181233, Note_off_c, 0, 72, 46
1, 181250, Control_c, 0, 64, 123
1, 181265, Control_c, 0, 64, 112
1, 181280, Control_c, 0, 64, 105
1, 181295, Control_c, 0, 64, 99
1, 181301, Note_off_c, 0, 40, 40
1, 181310, Control_c, 0, 64, 94
1, 181324, Control_c, 0, 64, 89
1, 181339, Control_c, 0, 64, 85
1, 181354, Control_c, 0, 64, 82
1, 181366, Note_off_c, 0, 52, 39
1, 181369, Control_c, 0, 64, 78
1, 181370, Note_on_c, 0, 69, 65
1, 181383, Note_off_c, 0, 71, 59
1, 181384, Control_c, 0, 64, 76
1, 181398, Control_c, 0, 64, 73
1, 181413, Control_c, 0, 64, 71
1, 181428, Control_c, 0, 64, 69
1, 181443, Control_c, 0, 64, 68
1, 181458, Control_c, 0, 64, 66
1, 181473, Control_c, 0, 64, 64
1, 181488, Control_c, 0, 64, 62
1, 181503, Control_c, 0, 64, 60
1, 181518, Control_c, 0, 64, 56
1, 181532, Control_c, 0, 64, 51
1, 181547, Control_c, 0, 64, 46
1, 181562, Control_c, 0, 64, 40
1, 181577, Control_c, 0, 64, 36
1, 181592, Control_c, 0, 64, 37
1, 181606, Control_c, 0, 64, 40
1, 181621, Control_c, 0, 64, 45
1, 181636, Control_c, 0, 64, 50
1, 181650, Control_c, 0, 64, 55
1, 181665, Control_c, 0, 64, 60
1, 181680, Control_c, 0, 64, 62
1, 181695, Control_c, 0, 64, 64
1, 181698, Note_on_c, 0, 64, 30
1, 181701, Note_on_c, 0, 40, 21
1, 181710, Control_c, 0, 64, 67
1, 181726, Note_on_c, 0, 60, 32
1, 181732, Control_c, 0, 64, 71
1, 181747, Control_c, 0, 64, 77
1, 181762, Control_c, 0, 64, 85
1, 181777, Control_c, 0, 64, 98
1, 181792, Control_c, 0, 64, 113
1, 181806, Control_c, 0, 64, 127
1, 181850, Note_off_c, 0, 40, 33
1, 181862, Note_off_c, 0, 64, 46
1, 181883, Note_off_c, 0, 60, 35
1, 182004, Note_on_c, 0, 40, 37
1, 182006, Note_on_c, 0, 64, 38
1, 182016, Note_on_c, 0, 60, 39
1, 182073, Note_off_c, 0, 40, 59
1, 182140, Note_off_c, 0, 60, 51
1, 182147, Note_off_c, 0, 64, 56
1, 182177, Control_c, 0, 67, 47
1, 182188, Note_off_c, 0, 69, 59
1, 182399, Control_c, 0, 64, 118
1, 182410, Note_on_c, 0, 76, 70
1, 182414, Control_c, 0, 64, 109
1, 182419, Note_on_c, 0, 64, 55
1, 182429, Control_c, 0, 64, 104
1, 182444, Control_c, 0, 64, 101
1, 182459, Control_c, 0, 64, 97
1, 182480, Control_c, 0, 64, 93
1, 182495, Control_c, 0, 64, 90
1, 182510, Control_c, 0, 64, 87
1, 182525, Control_c, 0, 64, 85
1, 182540, Control_c, 0, 64, 83
1, 182555, Control_c, 0, 64, 82
1, 182570, Control_c, 0, 64, 81
1, 182585, Control_c, 0, 64, 78
1, 182599, Control_c, 0, 64, 76
1, 182599, Control_c, 0, 67, 48
1, 182614, Control_c, 0, 64, 75
1, 182629, Control_c, 0, 64, 73
1, 182644, Control_c, 0, 64, 72
1, 182659, Control_c, 0, 64, 69
1, 182673, Control_c, 0, 64, 67
1, 182688, Control_c, 0, 64, 66
1, 182719, Control_c, 0, 64, 67
1, 182734, Control_c, 0, 64, 67
1, 182749, Control_c, 0, 64, 68
1, 182764, Control_c, 0, 64, 69
1, 182778, Control_c, 0, 64, 70
1, 182792, Note_on_c, 0, 69, 42
1, 182793, Control_c, 0, 64, 73
1, 182808, Note_on_c, 0, 52, 29
1, 182808, Control_c, 0, 64, 78
1, 182808, Control_c, 0, 67, 48
1, 182810, Note_on_c, 0, 57, 31
1, 182823, Control_c, 0, 64, 87
1, 182838, Control_c, 0, 64, 99
1, 182852, Control_c, 0, 64, 121
1, 182867, Control_c, 0, 64, 127
1, 182882, Control_c, 0, 67, 49
1, 182954, Note_off_c, 0, 69, 57
1, 182959, Note_off_c, 0, 52, 34
1, 182977, Note_off_c, 0, 57, 43
1, 183014, Control_c, 0, 67, 50
1, 183100, Note_on_c, 0, 52, 36
1, 183103, Note_on_c, 0, 69, 53
1, 183106, Note_on_c, 0, 57, 44
1, 183206, Note_off_c, 0, 64, 55
1, 183274, Control_c, 0, 67, 50
1, 183378, Control_c, 0, 64, 114
1, 183393, Control_c, 0, 64, 106
1, 183407, Control_c, 0, 64, 101
1, 183420, Note_on_c, 0, 74, 58
1, 183422, Control_c, 0, 64, 94
1, 183437, Control_c, 0, 64, 87
1, 183452, Control_c, 0, 64, 80
1, 183453, Note_on_c, 0, 62, 40
1, 183467, Control_c, 0, 64, 75
1, 183482, Control_c, 0, 64, 71
1, 183482, Control_c, 0, 67, 51
1, 183485, Note_off_c, 0, 52, 42
1, 183491, Note_off_c, 0, 69, 57
1, 183496, Control_c, 0, 64, 68
1, 183511, Control_c, 0, 64, 65
1, 183518, Note_off_c, 0, 57, 31
1, 183527, Control_c, 0, 64, 60
1, 183542, Control_c, 0, 64, 45
1, 183551, Note_off_c, 0, 76, 56
1, 183557, Control_c, 0, 64, 31
1, 183571, Control_c, 0, 64, 30
1, 183586, Control_c, 0, 64, 31
1, 183601, Control_c, 0, 64, 35
1, 183616, Control_c, 0, 64, 41
1, 183631, Control_c, 0, 64, 50
1, 183631, Control_c, 0, 67, 50
1, 183645, Control_c, 0, 64, 58
1, 183660, Control_c, 0, 64, 63
1, 183660, Control_c, 0, 67, 50
1, 183675, Control_c, 0, 64, 65
1, 183690, Control_c, 0, 64, 67
1, 183705, Control_c, 0, 64, 71
1, 183719, Control_c, 0, 64, 79
1, 183734, Control_c, 0, 64, 90
1, 183734, Control_c, 0, 67, 49
1, 183749, Control_c, 0, 64, 105
1, 183764, Control_c, 0, 64, 127
1, 183771, Note_on_c, 0, 69, 38
1, 183788, Note_on_c, 0, 52, 36
1, 183788, Note_on_c, 0, 65, 32
1, 183802, Note_on_c, 0, 57, 25
1, 183923, Note_off_c, 0, 69, 55
1, 183931, Note_off_c, 0, 52, 36
1, 183932, Note_off_c, 0, 57, 37
1, 183961, Note_off_c, 0, 65, 42
1, 184126, Control_c, 0, 67, 48
1, 184185, Note_on_c, 0, 69, 31
1, 184197, Note_on_c, 0, 52, 21
1, 184212, Note_on_c, 0, 65, 27
1, 184212, Note_on_c, 0, 57, 18
1, 184230, Control_c, 0, 67, 48
1, 184335, Control_c, 0, 67, 47
1, 184454, Control_c, 0, 67, 46
1, 184483, Control_c, 0, 64, 121
1, 184489, Note_off_c, 0, 74, 54
1, 184490, Note_off_c, 0, 69, 40
1, 184498, Control_c, 0, 64, 115
1, 184500, Note_off_c, 0, 65, 33
1, 184501, Note_off_c, 0, 57, 36
1, 184513, Control_c, 0, 64, 111
1, 184528, Control_c, 0, 64, 109
1, 184542, Control_c, 0, 64, 107
1, 184557, Control_c, 0, 64, 105
1, 184572, Control_c, 0, 64, 103
1, 184587, Control_c, 0, 64, 100
1, 184602, Control_c, 0, 64, 98
1, 184603, Note_off_c, 0, 62, 34
1, 184616, Control_c, 0, 64, 94
1, 184624, Note_off_c, 0, 52, 37
1, 184631, Control_c, 0, 64, 92
1, 184646, Control_c, 0, 64, 89
1, 184660, Control_c, 0, 64, 87
1, 184675, Control_c, 0, 64, 85
1, 184690, Control_c, 0, 64, 83
1, 184705, Control_c, 0, 64, 81
1, 184728, Control_c, 0, 64, 79
1, 184742, Control_c, 0, 64, 78
1, 184742, Control_c, 0, 67, 47
1, 184757, Control_c, 0, 64, 77
1, 184772, Control_c, 0, 64, 76
1, 184787, Control_c, 0, 64, 73
1, 184802, Control_c, 0, 64, 70
1, 184802, Control_c, 0, 67, 48
1, 184816, Control_c, 0, 64, 68
1, 184816, Control_c, 0, 67, 48
1, 184831, Control_c, 0, 64, 66
1, 184846, Control_c, 0, 64, 65
1, 184861, Control_c, 0, 64, 64
1, 184875, Control_c, 0, 64, 63
1, 184890, Control_c, 0, 64, 61
1, 184890, Control_c, 0, 67, 49
1, 184905, Control_c, 0, 64, 59
1, 184905, Control_c, 0, 67, 50
1, 184920, Control_c, 0, 64, 59
1, 184935, Control_c, 0, 64, 58
1, 184949, Control_c, 0, 64, 56
1, 184964, Control_c, 0, 64, 52
1, 184979, Control_c, 0, 64, 47
1, 184993, Control_c, 0, 64, 47
1, 185008, Control_c, 0, 64, 48
1, 185023, Control_c, 0, 64, 50
1, 185038, Control_c, 0, 64, 53
1, 185053, Control_c, 0, 64, 56
1, 185068, Control_c, 0, 64, 58
1, 185071, Note_on_c, 0, 62, 36
1, 185083, Control_c, 0, 64, 61
1, 185098, Control_c, 0, 64, 63
1, 185098, Control_c, 0, 67, 49
1, 185113, Control_c, 0, 64, 65
1, 185128, Control_c, 0, 64, 67
1, 185143, Control_c, 0, 64, 71
1, 185158, Control_c, 0, 64, 75
1, 185172, Control_c, 0, 64, 80
1, 185172, Control_c, 0, 67, 48
1, 185187, Control_c, 0, 64, 85
1, 185202, Control_c, 0, 64, 91
1, 185217, Control_c, 0, 64, 100
1, 185232, Control_c, 0, 64, 116
1, 185247, Control_c, 0, 64, 127
1, 185263, Note_on_c, 0, 40, 33
1, 185309, Note_on_c, 0, 64, 38
1, 185448, Note_off_c, 0, 40, 44
1, 185470, Note_off_c, 0, 64, 52
1, 185480, Note_on_c, 0, 68, 50
1, 185565, Control_c, 0, 67, 49
1, 185604, Note_on_c, 0, 40, 35
1, 185604, Note_on_c, 0, 72, 61
1, 185617, Note_off_c, 0, 68, 57
1, 185733, Note_on_c, 0, 71, 71
1, 185780, Note_off_c, 0, 72, 51
1, 185791, Note_off_c, 0, 62, 30
1, 185831, Control_c, 0, 64, 116
1, 185846, Control_c, 0, 64, 108
1, 185855, Note_off_c, 0, 40, 38
1, 185861, Control_c, 0, 64, 98
1, 185861, Control_c, 0, 67, 50
1, 185876, Control_c, 0, 64, 90
1, 185887, Note_on_c, 0, 69, 72
1, 185891, Control_c, 0, 64, 83
1, 185905, Control_c, 0, 64, 79
1, 185921, Control_c, 0, 64, 77
1, 185925, Note_off_c, 0, 71, 58
1, 185936, Control_c, 0, 64, 76
1, 185936, Control_c, 0, 67, 50
1, 185951, Control_c, 0, 64, 73
1, 185951, Control_c, 0, 67, 51
1, 185966, Control_c, 0, 64, 69
1, 185981, Control_c, 0, 64, 66
1, 185981, Control_c, 0, 67, 51
1, 185995, Control_c, 0, 64, 65
1, 185995, Control_c, 0, 67, 53
1, 186010, Control_c, 0, 64, 64
1, 186010, Control_c, 0, 67, 53
1, 186025, Control_c, 0, 64, 63
1, 186025, Control_c, 0, 67, 54
1, 186040, Control_c, 0, 64, 59
1, 186040, Control_c, 0, 67, 55
1, 186055, Control_c, 0, 64, 48
1, 186069, Control_c, 0, 64, 33
1, 186069, Control_c, 0, 67, 55
1, 186084, Control_c, 0, 64, 25
1, 186099, Control_c, 0, 64, 24
1, 186129, Control_c, 0, 64, 28
1, 186144, Control_c, 0, 64, 36
1, 186159, Control_c, 0, 64, 44
1, 186174, Control_c, 0, 64, 54
1, 186183, Note_on_c, 0, 64, 48
1, 186188, Control_c, 0, 64, 60
1, 186190, Note_on_c, 0, 40, 33
1, 186198, Note_on_c, 0, 60, 43
1, 186203, Control_c, 0, 64, 63
1, 186225, Control_c, 0, 64, 66
1, 186240, Control_c, 0, 64, 71
1, 186240, Control_c, 0, 67, 55
1, 186254, Control_c, 0, 64, 78
1, 186269, Control_c, 0, 64, 90
1, 186284, Control_c, 0, 64, 110
1, 186299, Control_c, 0, 64, 127
1, 186320, Note_off_c, 0, 60, 58
1, 186327, Note_off_c, 0, 64, 62
1, 186366, Note_off_c, 0, 40, 38
1, 186388, Control_c, 0, 67, 54
1, 186485, Note_on_c, 0, 60, 49
1, 186486, Note_on_c, 0, 64, 48
1, 186502, Note_on_c, 0, 40, 39
1, 186637, Note_off_c, 0, 40, 52
1, 186637, Note_off_c, 0, 64, 60
1, 186642, Note_off_c, 0, 60, 57
1, 186815, Note_on_c, 0, 66, 71
1, 186818, Control_c, 0, 64, 110
1, 186831, Note_on_c, 0, 54, 58
1, 186833, Control_c, 0, 64, 103
1, 186848, Control_c, 0, 64, 98
1, 186862, Control_c, 0, 64, 91
1, 186877, Control_c, 0, 64, 81
1, 186877, Control_c, 0, 67, 55
1, 186883, Note_off_c, 0, 69, 38
1, 186892, Control_c, 0, 64, 70
1, 186907, Control_c, 0, 64, 60
1, 186922, Control_c, 0, 64, 43
1, 186937, Control_c, 0, 64, 37
1, 186952, Control_c, 0, 64, 42
1, 186974, Control_c, 0, 64, 47
1, 186989, Control_c, 0, 64, 53
1, 187004, Control_c, 0, 64, 60
1, 187018, Control_c, 0, 64, 65
1, 187033, Control_c, 0, 64, 70
1, 187048, Control_c, 0, 64, 80
1, 187063, Control_c, 0, 64, 98
1, 187077, Control_c, 0, 64, 127
1, 187083, Note_off_c, 0, 54, 61
1, 187156, Note_on_c, 0, 57, 37
1, 187156, Note_on_c, 0, 64, 39
1, 187160, Note_on_c, 0, 40, 43
1, 187164, Note_on_c, 0, 60, 35
1, 187289, Note_off_c, 0, 64, 59
1, 187304, Note_off_c, 0, 60, 61
1, 187304, Note_off_c, 0, 57, 59
1, 187321, Note_off_c, 0, 40, 35
1, 187330, Control_c, 0, 67, 54
1, 187471, Note_on_c, 0, 40, 41
1, 187482, Note_on_c, 0, 60, 41
1, 187486, Note_on_c, 0, 64, 44
1, 187487, Note_on_c, 0, 57, 35
1, 187559, Note_off_c, 0, 40, 52
1, 187660, Note_off_c, 0, 60, 57
1, 187673, Note_off_c, 0, 57, 37
1, 187717, Note_off_c, 0, 64, 29
1, 187724, Note_off_c, 0, 66, 50
1, 187841, Control_c, 0, 67, 55
1, 187869, Note_on_c, 0, 68, 52
1, 187871, Control_c, 0, 64, 92
1, 187886, Control_c, 0, 64, 72
1, 187888, Note_on_c, 0, 56, 45
1, 187900, Control_c, 0, 64, 58
1, 187915, Control_c, 0, 64, 0
1, 187960, Control_c, 0, 64, 20
1, 187974, Control_c, 0, 64, 43
1, 187989, Control_c, 0, 64, 58
1, 188004, Control_c, 0, 64, 67
1, 188019, Control_c, 0, 64, 75
1, 188034, Control_c, 0, 64, 89
1, 188046, Note_off_c, 0, 56, 61
1, 188049, Control_c, 0, 64, 117
1, 188064, Control_c, 0, 64, 127
1, 188197, Control_c, 0, 67, 54
1, 188240, Note_on_c, 0, 64, 32
1, 188248, Note_on_c, 0, 59, 31
1, 188252, Note_on_c, 0, 40, 26
1, 188414, Note_off_c, 0, 40, 42
1, 188415, Note_off_c, 0, 64, 41
1, 188418, Note_off_c, 0, 59, 43
1, 188516, Control_c, 0, 67, 53
1, 188663, Note_on_c, 0, 64, 25
1, 188687, Note_on_c, 0, 40, 26
1, 188695, Note_on_c, 0, 59, 19
1, 188887, Note_off_c, 0, 59, 42
1, 188940, Note_off_c, 0, 64, 40
1, 188961, Control_c, 0, 64, 119
1, 188976, Control_c, 0, 64, 114
1, 188982, Note_off_c, 0, 68, 33
1, 188991, Control_c, 0, 64, 111
1, 189006, Control_c, 0, 64, 107
1, 189021, Control_c, 0, 64, 103
1, 189035, Control_c, 0, 64, 98
1, 189040, Note_off_c, 0, 40, 37
1, 189050, Control_c, 0, 64, 95
1, 189065, Control_c, 0, 64, 94
1, 189080, Control_c, 0, 64, 92
1, 189095, Control_c, 0, 64, 91
1, 189110, Control_c, 0, 64, 88
1, 189125, Control_c, 0, 64, 83
1, 189140, Control_c, 0, 64, 79
1, 189155, Control_c, 0, 64, 76
1, 189170, Control_c, 0, 64, 74
1, 189170, Control_c, 0, 67, 54
1, 189184, Control_c, 0, 64, 74
1, 189199, Control_c, 0, 64, 73
1, 189221, Control_c, 0, 64, 72
1, 189236, Control_c, 0, 64, 69
1, 189251, Control_c, 0, 64, 68
1, 189266, Control_c, 0, 64, 67
1, 189266, Control_c, 0, 67, 55
1, 189295, Control_c, 0, 64, 67
1, 189310, Control_c, 0, 64, 66
1, 189325, Control_c, 0, 64, 65
1, 189325, Control_c, 0, 67, 55
1, 189339, Control_c, 0, 64, 64
1, 189354, Control_c, 0, 67, 56
1, 189369, Control_c, 0, 64, 63
1, 189399, Control_c, 0, 64, 63
1, 189414, Control_c, 0, 64, 62
1, 189414, Control_c, 0, 67, 56
1, 189429, Control_c, 0, 64, 60
1, 189444, Control_c, 0, 64, 59
1, 189456, Control_c, 0, 64, 58
1, 189471, Control_c, 0, 64, 57
1, 189486, Control_c, 0, 64, 56
1, 189516, Control_c, 0, 64, 56
1, 189530, Control_c, 0, 64, 57
1, 189545, Control_c, 0, 64, 58
1, 189560, Control_c, 0, 64, 60
1, 189575, Control_c, 0, 64, 61
1, 189584, Note_on_c, 0, 62, 34
1, 189590, Control_c, 0, 64, 62
1, 189605, Control_c, 0, 64, 63
1, 189605, Control_c, 0, 67, 56
1, 189620, Control_c, 0, 64, 65
1, 189635, Control_c, 0, 64, 67
1, 189649, Control_c, 0, 64, 70
1, 189664, Control_c, 0, 64, 74
1, 189664, Control_c, 0, 67, 55
1, 189679, Control_c, 0, 64, 80
1, 189694, Control_c, 0, 64, 85
1, 189709, Control_c, 0, 64, 92
1, 189724, Control_c, 0, 64, 103
1, 189738, Control_c, 0, 64, 127
1, 189793, Note_on_c, 0, 40, 24
1, 189850, Note_on_c, 0, 64, 29
1, 189886, Control_c, 0, 67, 55
1, 189986, Note_off_c, 0, 40, 38
1, 190031, Note_off_c, 0, 64, 43
1, 190039, Note_on_c, 0, 68, 43
1, 190165, Note_on_c, 0, 40, 24
1, 190174, Note_off_c, 0, 68, 49
1, 190178, Note_on_c, 0, 72, 53
1, 190206, Control_c, 0, 67, 54
1, 190299, Note_on_c, 0, 71, 62
1, 190344, Note_off_c, 0, 40, 35
1, 190347, Note_off_c, 0, 72, 49
1, 190355, Note_off_c, 0, 62, 11
1, 190383, Control_c, 0, 64, 118
1, 190398, Control_c, 0, 64, 107
1, 190413, Control_c, 0, 64, 101
1, 190427, Control_c, 0, 64, 97
1, 190440, Note_on_c, 0, 69, 66
1, 190442, Control_c, 0, 64, 92
1, 190456, Note_off_c, 0, 71, 58
1, 190457, Control_c, 0, 64, 86
1, 190472, Control_c, 0, 64, 80
1, 190487, Control_c, 0, 64, 76
1, 190502, Control_c, 0, 64, 74
1, 190517, Control_c, 0, 64, 73
1, 190532, Control_c, 0, 64, 71
1, 190547, Control_c, 0, 64, 66
1, 190561, Control_c, 0, 64, 59
1, 190576, Control_c, 0, 64, 48
1, 190591, Control_c, 0, 64, 44
1, 190621, Control_c, 0, 64, 44
1, 190635, Control_c, 0, 64, 45
1, 190650, Control_c, 0, 64, 48
1, 190665, Control_c, 0, 64, 51
1, 190679, Control_c, 0, 64, 54
1, 190679, Control_c, 0, 67, 53
1, 190694, Control_c, 0, 64, 56
1, 190717, Control_c, 0, 64, 61
1, 190717, Control_c, 0, 67, 53
1, 190732, Note_on_c, 0, 40, 28
1, 190732, Control_c, 0, 64, 64
1, 190738, Note_on_c, 0, 64, 42
1, 190742, Note_on_c, 0, 60, 38
1, 190747, Control_c, 0, 64, 67
1, 190762, Control_c, 0, 64, 71
1, 190762, Control_c, 0, 67, 52
1, 190777, Control_c, 0, 64, 79
1, 190791, Control_c, 0, 64, 90
1, 190806, Control_c, 0, 64, 113
1, 190821, Control_c, 0, 64, 127
1, 190847, Note_off_c, 0, 40, 36
1, 190847, Note_off_c, 0, 60, 57
1, 190852, Note_off_c, 0, 64, 58
1, 190998, Note_on_c, 0, 40, 46
1, 191006, Note_on_c, 0, 64, 47
1, 191019, Note_on_c, 0, 60, 46
1, 191055, Note_off_c, 0, 40, 62
1, 191102, Note_off_c, 0, 60, 61
1, 191124, Note_off_c, 0, 64, 61
1, 191131, Note_off_c, 0, 69, 62
1, 191162, Control_c, 0, 67, 53
1, 191371, Note_on_c, 0, 76, 77
1, 191384, Control_c, 0, 67, 52
1, 191387, Note_on_c, 0, 64, 54
1, 191414, Control_c, 0, 67, 51
1, 191465, Control_c, 0, 67, 51
1, 191629, Control_c, 0, 67, 50
1, 191644, Control_c, 0, 67, 50
1, 191703, Note_on_c, 0, 72, 61
1, 191703, Control_c, 0, 67, 49
1, 191713, Note_on_c, 0, 60, 42
1, 191721, Note_on_c, 0, 57, 40
1, 191725, Note_on_c, 0, 69, 50
1, 191728, Note_on_c, 0, 52, 34
1, 191840, Note_off_c, 0, 72, 61
1, 191843, Note_off_c, 0, 69, 58
1, 191848, Note_off_c, 0, 60, 58
1, 191862, Note_off_c, 0, 52, 35
1, 191867, Note_off_c, 0, 57, 37
1, 191969, Note_on_c, 0, 69, 65
1, 191969, Note_on_c, 0, 52, 55
1, 191969, Note_off_c, 0, 64, 52
1, 191973, Note_on_c, 0, 72, 71
1, 191975, Note_on_c, 0, 60, 64
1, 191985, Note_on_c, 0, 57, 55
1, 192043, Note_off_c, 0, 76, 62
1, 192080, Note_off_c, 0, 52, 58
1, 192123, Note_off_c, 0, 69, 54
1, 192127, Note_off_c, 0, 72, 57
1, 192132, Control_c, 0, 67, 50
1, 192162, Note_off_c, 0, 57, 56
1, 192175, Note_off_c, 0, 60, 56
1, 192273, Control_c, 0, 67, 50
1, 192322, Note_on_c, 0, 78, 91
1, 192325, Note_on_c, 0, 66, 73
1, 192362, Control_c, 0, 64, 86
1, 192362, Control_c, 0, 67, 51
1, 192377, Control_c, 0, 64, 66
1, 192392, Control_c, 0, 64, 24
1, 192407, Control_c, 0, 64, 0
1, 192452, Control_c, 0, 64, 38
1, 192467, Control_c, 0, 64, 57
1, 192481, Control_c, 0, 64, 71
1, 192496, Control_c, 0, 64, 93
1, 192511, Control_c, 0, 64, 127
1, 192549, Note_off_c, 0, 66, 61
1, 192566, Note_off_c, 0, 78, 63
1, 192645, Control_c, 0, 67, 50
1, 192678, Note_on_c, 0, 72, 65
1, 192682, Note_on_c, 0, 69, 59
1, 192685, Note_on_c, 0, 60, 52
1, 192694, Note_on_c, 0, 52, 47
1, 192696, Note_on_c, 0, 57, 51
1, 192696, Note_on_c, 0, 64, 57
1, 192763, Control_c, 0, 67, 51
1, 192874, Note_off_c, 0, 52, 31
1, 192902, Note_off_c, 0, 72, 59
1, 192908, Note_off_c, 0, 60, 50
1, 192909, Note_off_c, 0, 64, 55
1, 192914, Note_off_c, 0, 69, 58
1, 192919, Note_off_c, 0, 57, 38
1, 193023, Control_c, 0, 67, 50
1, 193100, Note_on_c, 0, 72, 65
1, 193106, Note_on_c, 0, 69, 51
1, 193110, Note_on_c, 0, 60, 51
1, 193116, Note_on_c, 0, 64, 52
1, 193122, Note_on_c, 0, 57, 50
1, 193125, Note_on_c, 0, 52, 41
1, 193186, Control_c, 0, 67, 50
1, 193275, Control_c, 0, 67, 49
1, 193284, Note_off_c, 0, 52, 35
1, 193304, Control_c, 0, 67, 48
1, 193319, Control_c, 0, 67, 48
1, 193349, Control_c, 0, 67, 47
1, 193379, Control_c, 0, 67, 46
1, 193396, Note_off_c, 0, 60, 33
1, 193408, Control_c, 0, 67, 46
1, 193417, Note_off_c, 0, 57, 57
1, 193420, Note_off_c, 0, 72, 63
1, 193423, Control_c, 0, 67, 45
1, 193432, Note_off_c, 0, 69, 61
1, 193435, Note_off_c, 0, 64, 59
1, 193453, Control_c, 0, 67, 45
1, 193542, Control_c, 0, 64, 117
1, 193557, Control_c, 0, 64, 107
1, 193572, Control_c, 0, 64, 98
1, 193586, Control_c, 0, 64, 90
1, 193601, Control_c, 0, 64, 83
1, 193601, Control_c, 0, 67, 44
1, 193616, Control_c, 0, 64, 80
1, 193631, Control_c, 0, 64, 77
1, 193646, Control_c, 0, 64, 74
1, 193660, Control_c, 0, 64, 71
1, 193675, Control_c, 0, 64, 68
1, 193690, Control_c, 0, 64, 66
1, 193712, Control_c, 0, 64, 65
1, 193727, Control_c, 0, 64, 64
1, 193742, Control_c, 0, 64, 63
1, 193757, Control_c, 0, 64, 62
1, 193772, Control_c, 0, 64, 60
1, 193786, Control_c, 0, 64, 59
1, 193801, Control_c, 0, 64, 57
1, 193816, Control_c, 0, 64, 55
1, 193831, Control_c, 0, 64, 53
1, 193846, Control_c, 0, 64, 51
1, 193875, Control_c, 0, 64, 50
1, 193890, Control_c, 0, 64, 48
1, 193906, Control_c, 0, 64, 44
1, 193906, Control_c, 0, 67, 45
1, 193921, Control_c, 0, 64, 36
1, 193935, Control_c, 0, 64, 20
1, 193935, Control_c, 0, 67, 45
1, 193950, Control_c, 0, 64, 0
1, 193969, Note_on_c, 0, 60, 53
1, 194054, Control_c, 0, 67, 45
1, 194069, Control_c, 0, 67, 44
1, 194083, Control_c, 0, 64, 32
1, 194083, Control_c, 0, 67, 43
1, 194098, Control_c, 0, 64, 50
1, 194098, Control_c, 0, 67, 43
1, 194113, Control_c, 0, 64, 59
1, 194113, Control_c, 0, 67, 42
1, 194127, Control_c, 0, 64, 61
1, 194127, Control_c, 0, 67, 41
1, 194142, Control_c, 0, 64, 62
1, 194142, Control_c, 0, 67, 41
1, 194157, Control_c, 0, 64, 64
1, 194157, Control_c, 0, 67, 40
1, 194172, Note_on_c, 0, 40, 35
1, 194172, Control_c, 0, 64, 66
1, 194172, Control_c, 0, 67, 40
1, 194187, Control_c, 0, 64, 69
1, 194201, Control_c, 0, 64, 75
1, 194201, Control_c, 0, 67, 39
1, 194216, Control_c, 0, 64, 82
1, 194231, Control_c, 0, 64, 94
1, 194231, Control_c, 0, 67, 38
1, 194246, Control_c, 0, 64, 127
1, 194246, Control_c, 0, 67, 38
1, 194251, Note_on_c, 0, 64, 55
1, 194276, Control_c, 0, 67, 37
1, 194291, Control_c, 0, 67, 36
1, 194306, Control_c, 0, 67, 36
1, 194321, Control_c, 0, 67, 35
1, 194335, Control_c, 0, 67, 34
1, 194350, Control_c, 0, 67, 33
1, 194365, Control_c, 0, 67, 33
1, 194380, Note_off_c, 0, 40, 38
1, 194395, Control_c, 0, 67, 32
1, 194409, Control_c, 0, 67, 31
1, 194424, Control_c, 0, 67, 31
1, 194439, Control_c, 0, 67, 30
1, 194443, Note_on_c, 0, 68, 71
1, 194461, Control_c, 0, 67, 29
1, 194476, Control_c, 0, 67, 29
1, 194490, Control_c, 0, 67, 28
1, 194499, Note_off_c, 0, 64, 57
1, 194505, Control_c, 0, 67, 28
1, 194520, Control_c, 0, 67, 26
1, 194535, Control_c, 0, 67, 25
1, 194550, Control_c, 0, 67, 24
1, 194565, Control_c, 0, 67, 19
1, 194571, Note_on_c, 0, 71, 77
1, 194580, Control_c, 0, 67, 0
1, 194582, Note_on_c, 0, 40, 48
1, 194595, Note_off_c, 0, 68, 60
1, 194673, Note_on_c, 0, 69, 82
1, 194690, Note_off_c, 0, 71, 61
1, 194696, Note_off_c, 0, 60, 32
1, 194721, Note_off_c, 0, 69, 63
1, 194771, Note_off_c, 0, 40, 32
1, 194791, Note_on_c, 0, 69, 87
1, 194832, Control_c, 0, 64, 115
1, 194847, Control_c, 0, 64, 102
1, 194862, Control_c, 0, 64, 89
1, 194877, Control_c, 0, 64, 79
1, 194892, Control_c, 0, 64, 72
1, 194906, Control_c, 0, 64, 67
1, 194921, Control_c, 0, 64, 64
1, 194936, Control_c, 0, 64, 61
1, 194950, Control_c, 0, 64, 55
1, 194965, Control_c, 0, 64, 49
1, 194980, Control_c, 0, 64, 45
1, 195010, Control_c, 0, 64, 47
1, 195024, Control_c, 0, 64, 51
1, 195039, Control_c, 0, 64, 56
1, 195050, Note_on_c, 0, 40, 52
1, 195054, Control_c, 0, 64, 61
1, 195063, Note_on_c, 0, 64, 59
1, 195067, Note_on_c, 0, 60, 55
1, 195069, Control_c, 0, 64, 67
1, 195084, Control_c, 0, 64, 77
1, 195099, Control_c, 0, 64, 95
1, 195113, Control_c, 0, 64, 127
1, 195169, Note_off_c, 0, 40, 56
1, 195173, Note_off_c, 0, 60, 60
1, 195176, Note_off_c, 0, 64, 59
1, 195301, Note_on_c, 0, 40, 65
1, 195301, Note_on_c, 0, 64, 78
1, 195307, Note_on_c, 0, 60, 74
1, 195345, Note_off_c, 0, 69, 61
1, 195354, Note_off_c, 0, 40, 61
1, 195365, Note_off_c, 0, 60, 63
1, 195391, Note_off_c, 0, 64, 63
1, 195638, Note_on_c, 0, 78, 92
1, 195644, Note_on_c, 0, 66, 76
1, 195823, Note_off_c, 0, 66, 61
1, 195832, Note_off_c, 0, 78, 63
1, 195987, Note_on_c, 0, 60, 61
1, 195987, Note_on_c, 0, 72, 77
1, 195994, Note_on_c, 0, 52, 49
1, 195995, Note_on_c, 0, 57, 53
1, 195996, Note_on_c, 0, 69, 66
1, 196001, Note_on_c, 0, 64, 66
1, 196082, Note_off_c, 0, 52, 51
1, 196103, Note_off_c, 0, 64, 54
1, 196115, Note_off_c, 0, 60, 59
1, 196115, Note_off_c, 0, 69, 55
1, 196117, Note_off_c, 0, 57, 55
1, 196126, Note_off_c, 0, 72, 59
1, 196228, Note_on_c, 0, 60, 81
1, 196229, Note_on_c, 0, 72, 90
1, 196232, Note_on_c, 0, 52, 63
1, 196234, Note_on_c, 0, 64, 78
1, 196235, Note_on_c, 0, 69, 79
1, 196239, Note_on_c, 0, 57, 71
1, 196287, Note_off_c, 0, 64, 62
1, 196307, Note_off_c, 0, 52, 60
1, 196318, Note_off_c, 0, 69, 63
1, 196369, Note_off_c, 0, 72, 64
1, 196410, Note_off_c, 0, 57, 55
1, 196422, Note_off_c, 0, 60, 57
1, 196560, Note_on_c, 0, 68, 86
1, 196565, Note_on_c, 0, 80, 95
1, 196597, Note_on_c, 0, 72, 47
1, 196626, Control_c, 0, 64, 97
1, 196639, Note_off_c, 0, 72, 44
1, 196641, Control_c, 0, 64, 78
1, 196656, Control_c, 0, 64, 65
1, 196670, Control_c, 0, 64, 44
1, 196685, Control_c, 0, 64, 32
1, 196708, Control_c, 0, 64, 35
1, 196722, Control_c, 0, 64, 45
1, 196737, Control_c, 0, 64, 58
1, 196752, Control_c, 0, 64, 67
1, 196767, Control_c, 0, 64, 90
1, 196782, Control_c, 0, 64, 127
1, 196838, Note_off_c, 0, 68, 63
1, 196914, Note_on_c, 0, 75, 78
1, 196922, Note_on_c, 0, 60, 66
1, 196923, Note_on_c, 0, 69, 74
1, 196923, Note_on_c, 0, 72, 70
1, 196932, Note_on_c, 0, 57, 59
1, 196934, Note_on_c, 0, 52, 62
1, 197011, Note_off_c, 0, 52, 60
1, 197032, Note_off_c, 0, 75, 60
1, 197037, Note_off_c, 0, 57, 58
1, 197038, Note_off_c, 0, 69, 60
1, 197042, Note_off_c, 0, 60, 60
1, 197044, Note_off_c, 0, 72, 59
1, 197124, Note_on_c, 0, 75, 89
1, 197128, Note_on_c, 0, 72, 81
1, 197130, Note_on_c, 0, 52, 61
1, 197131, Note_off_c, 0, 80, 61
1, 197137, Note_on_c, 0, 69, 80
1, 197144, Note_on_c, 0, 60, 75
1, 197151, Note_on_c, 0, 57, 67
1, 197194, Note_off_c, 0, 52, 60
1, 197236, Note_off_c, 0, 75, 60
1, 197321, Note_off_c, 0, 57, 52
1, 197322, Note_on_c, 0, 78, 92
1, 197327, Note_on_c, 0, 66, 71
1, 197331, Control_c, 0, 64, 103
1, 197345, Control_c, 0, 64, 84
1, 197360, Control_c, 0, 64, 73
1, 197362, Note_off_c, 0, 72, 58
1, 197365, Note_off_c, 0, 60, 51
1, 197375, Control_c, 0, 64, 68
1, 197376, Note_off_c, 0, 69, 27
1, 197390, Control_c, 0, 64, 69
1, 197405, Control_c, 0, 64, 73
1, 197419, Control_c, 0, 64, 81
1, 197434, Control_c, 0, 64, 97
1, 197456, Control_c, 0, 64, 127
1, 197469, Note_off_c, 0, 66, 61
1, 197570, Note_on_c, 0, 52, 56
1, 197573, Note_on_c, 0, 75, 72
1, 197579, Note_on_c, 0, 69, 61
1, 197583, Note_on_c, 0, 60, 63
1, 197588, Note_on_c, 0, 72, 59
1, 197594, Note_on_c, 0, 57, 62
1, 197603, Note_off_c, 0, 78, 58
1, 197632, Note_off_c, 0, 52, 64
1, 197662, Note_off_c, 0, 57, 63
1, 197666, Note_off_c, 0, 60, 63
1, 197669, Note_off_c, 0, 69, 59
1, 197673, Note_off_c, 0, 72, 59
1, 197719, Note_off_c, 0, 75, 57
1, 197752, Control_c, 0, 64, 113
1, 197767, Control_c, 0, 64, 95
1, 197782, Control_c, 0, 64, 83
1, 197797, Control_c, 0, 64, 75
1, 197812, Control_c, 0, 64, 67
1, 197826, Control_c, 0, 64, 60
1, 197841, Control_c, 0, 64, 48
1, 197856, Control_c, 0, 64, 16
1, 197871, Control_c, 0, 64, 0
1, 197975, Control_c, 0, 64, 50
1, 197984, Note_on_c, 0, 80, 82
1, 197987, Note_on_c, 0, 68, 89
1, 197990, Control_c, 0, 64, 74
1, 198005, Control_c, 0, 64, 127
1, 198020, Note_off_c, 0, 68, 61
1, 198021, Note_off_c, 0, 80, 60
1, 198068, Note_on_c, 0, 80, 90
1, 198077, Note_on_c, 0, 68, 97
1, 198130, Note_off_c, 0, 68, 57
1, 198378, Note_on_c, 0, 75, 67
1, 198381, Note_on_c, 0, 69, 67
1, 198383, Note_on_c, 0, 72, 64
1, 198388, Note_on_c, 0, 60, 60
1, 198389, Note_on_c, 0, 57, 56
1, 198392, Note_on_c, 0, 52, 57
1, 198452, Note_off_c, 0, 69, 61
1, 198458, Note_off_c, 0, 52, 57
1, 198461, Note_off_c, 0, 75, 61
1, 198469, Note_off_c, 0, 72, 60
1, 198488, Note_off_c, 0, 57, 56
1, 198492, Note_off_c, 0, 60, 57
1, 198568, Note_on_c, 0, 75, 89
1, 198568, Note_off_c, 0, 80, 58
1, 198573, Note_on_c, 0, 52, 71
1, 198579, Note_on_c, 0, 72, 79
1, 198583, Note_on_c, 0, 69, 76
1, 198592, Note_on_c, 0, 60, 78
1, 198598, Note_on_c, 0, 57, 73
1, 198628, Note_off_c, 0, 52, 62
1, 198671, Note_off_c, 0, 75, 61
1, 198714, Note_off_c, 0, 57, 56
1, 198748, Note_on_c, 0, 78, 98
1, 198754, Note_on_c, 0, 66, 90
1, 198789, Note_off_c, 0, 60, 30
1, 198792, Note_off_c, 0, 72, 60
1, 198794, Note_off_c, 0, 69, 30
1, 198856, Note_off_c, 0, 66, 61
1, 198953, Note_on_c, 0, 75, 83
1, 198955, Note_on_c, 0, 52, 69
1, 198956, Note_on_c, 0, 60, 82
1, 198960, Note_on_c, 0, 69, 75
1, 198963, Note_on_c, 0, 72, 74
1, 198965, Note_on_c, 0, 57, 73
1, 198990, Note_off_c, 0, 78, 60
1, 198999, Note_off_c, 0, 52, 61
1, 199020, Note_off_c, 0, 57, 64
1, 199027, Note_off_c, 0, 60, 61
1, 199036, Note_off_c, 0, 69, 60
1, 199074, Note_off_c, 0, 72, 56
1, 199087, Note_off_c, 0, 75, 59
1, 199147, Control_c, 0, 64, 115
1, 199162, Control_c, 0, 64, 81
1, 199176, Control_c, 0, 64, 61
1, 199191, Control_c, 0, 64, 0
1, 199280, Note_on_c, 0, 80, 89
1, 199280, Control_c, 0, 64, 16
1, 199283, Note_on_c, 0, 68, 102
1, 199295, Control_c, 0, 64, 66
1, 199310, Control_c, 0, 64, 127
1, 199320, Note_off_c, 0, 68, 64
1, 199337, Note_off_c, 0, 80, 64
1, 199397, Note_on_c, 0, 80, 100
1, 199400, Note_on_c, 0, 68, 102
1, 199496, Note_off_c, 0, 68, 61
1, 199679, Note_on_c, 0, 75, 87
1, 199681, Note_on_c, 0, 72, 77
1, 199684, Note_on_c, 0, 69, 79
1, 199686, Note_on_c, 0, 60, 77
1, 199687, Note_on_c, 0, 52, 68
1, 199697, Note_on_c, 0, 57, 67
1, 199764, Note_off_c, 0, 52, 62
1, 199773, Note_off_c, 0, 69, 57
1, 199776, Note_off_c, 0, 75, 61
1, 199788, Note_off_c, 0, 60, 59
1, 199791, Note_off_c, 0, 57, 57
1, 199794, Note_off_c, 0, 72, 62
1, 199847, Note_off_c, 0, 80, 61
1, 199868, Note_on_c, 0, 52, 76
1, 199868, Note_on_c, 0, 75, 94
1, 199872, Note_on_c, 0, 69, 84
1, 199873, Note_on_c, 0, 72, 84
1, 199877, Note_on_c, 0, 60, 83
1, 199883, Note_on_c, 0, 57, 74
1, 199917, Note_off_c, 0, 52, 64
1, 199966, Note_off_c, 0, 75, 60
1, 200016, Note_off_c, 0, 69, 60
1, 200017, Note_off_c, 0, 60, 64
1, 200020, Note_off_c, 0, 57, 46
1, 200038, Note_on_c, 0, 66, 97
1, 200039, Note_on_c, 0, 78, 102
1, 200075, Note_off_c, 0, 72, 64
1, 200112, Note_off_c, 0, 66, 61
1, 200142, Poly_aftertouch_c, 0, 56, 127
1, 200172, Poly_aftertouch_c, 0, 56, 0
1, 200220, Note_on_c, 0, 60, 92
1, 200220, Note_on_c, 0, 75, 90
1, 200223, Note_on_c, 0, 52, 81
1, 200225, Note_on_c, 0, 57, 82
1, 200226, Note_on_c, 0, 69, 85
1, 200226, Note_on_c, 0, 72, 85
1, 200250, Note_off_c, 0, 78, 61
1, 200257, Note_off_c, 0, 52, 65
1, 200266, Note_off_c, 0, 60, 66
1, 200275, Note_off_c, 0, 69, 63
1, 200277, Note_off_c, 0, 57, 64
1, 200296, Note_off_c, 0, 72, 62
1, 200310, Note_off_c, 0, 75, 64
1, 200496, Control_c, 0, 64, 92
1, 200511, Control_c, 0, 64, 62
1, 200525, Control_c, 0, 64, 0
1, 200536, Note_on_c, 0, 80, 103
1, 200547, Note_on_c, 0, 68, 109
1, 200584, Control_c, 0, 64, 55
1, 200595, Note_off_c, 0, 68, 59
1, 200599, Control_c, 0, 64, 83
1, 200614, Control_c, 0, 64, 127
1, 200635, Note_off_c, 0, 80, 63
1, 200703, Control_c, 0, 64, 97
1, 200706, Note_on_c, 0, 69, 110
1, 200708, Note_on_c, 0, 81, 104
1, 200718, Control_c, 0, 64, 63
1, 200732, Control_c, 0, 64, 0
1, 200792, Control_c, 0, 64, 38
1, 200807, Control_c, 0, 64, 71
1, 200822, Control_c, 0, 64, 127
1, 200866, Note_off_c, 0, 69, 59
1, 201005, Note_on_c, 0, 78, 72
1, 201006, Note_on_c, 0, 75, 74
1, 201007, Note_on_c, 0, 72, 76
1, 201011, Note_on_c, 0, 60, 60
1, 201014, Note_on_c, 0, 57, 50
1, 201035, Note_on_c, 0, 52, 56
1, 201117, Note_off_c, 0, 52, 62
1, 201120, Note_off_c, 0, 78, 63
1, 201126, Note_off_c, 0, 72, 61
1, 201127, Note_off_c, 0, 60, 58
1, 201127, Note_off_c, 0, 75, 61
1, 201141, Note_off_c, 0, 57, 57
1, 201224, Note_on_c, 0, 78, 95
1, 201227, Note_on_c, 0, 52, 78
1, 201228, Note_on_c, 0, 72, 90
1, 201229, Note_on_c, 0, 60, 89
1, 201229, Note_on_c, 0, 75, 99
1, 201240, Note_on_c, 0, 57, 78
1, 201240, Note_off_c, 0, 81, 64
1, 201287, Note_off_c, 0, 52, 61
1, 201338, Note_off_c, 0, 78, 58
1, 201354, Note_off_c, 0, 57, 55
1, 201394, Note_off_c, 0, 60, 53
1, 201406, Note_off_c, 0, 75, 62
1, 201429, Note_on_c, 0, 80, 105
1, 201440, Note_on_c, 0, 68, 105
1, 201486, Note_off_c, 0, 72, 27
1, 201512, Note_off_c, 0, 68, 62
1, 201664, Note_on_c, 0, 78, 97
1, 201665, Note_on_c, 0, 57, 72
1, 201666, Note_on_c, 0, 60, 79
1, 201671, Note_on_c, 0, 52, 76
1, 201671, Note_on_c, 0, 72, 98
1, 201674, Note_on_c, 0, 75, 94
1, 201704, Note_off_c, 0, 80, 62
1, 201727, Note_off_c, 0, 52, 63
1, 201755, Note_off_c, 0, 72, 61
1, 201759, Note_off_c, 0, 60, 56
1, 201778, Note_off_c, 0, 57, 55
1, 201801, Note_off_c, 0, 75, 56
1, 201802, Note_off_c, 0, 78, 58
1, 201834, Note_on_c, 0, 52, 80
1, 201888, Note_on_c, 0, 57, 83
1, 201912, Note_off_c, 0, 52, 64
1, 201943, Note_on_c, 0, 60, 79
1, 201976, Note_off_c, 0, 57, 61
1, 201993, Note_on_c, 0, 75, 19
1, 201999, Note_on_c, 0, 81, 101
1, 202002, Note_on_c, 0, 72, 107
1, 202005, Note_on_c, 0, 78, 87
1, 202008, Note_on_c, 0, 69, 96
1, 202031, Note_off_c, 0, 60, 44
1, 202047, Note_off_c, 0, 69, 70
1, 202099, Poly_aftertouch_c, 0, 62, 0
1, 202129, Poly_aftertouch_c, 0, 62, 0
1, 202209, Note_off_c, 0, 78, 56
1, 202228, Note_off_c, 0, 72, 51
1, 202286, Note_off_c, 0, 81, 53
1, 202312, Note_off_c, 0, 75, 51
1, 202586, Note_on_c, 0, 74, 74
1, 202588, Note_on_c, 0, 71, 114
1, 202589, Note_on_c, 0, 83, 105
1, 202590, Note_on_c, 0, 40, 93
1, 202594, Note_on_c, 0, 76, 81
1, 202595, Note_on_c, 0, 80, 83
1, 202597, Note_on_c, 0, 28, 92
1, 202644, Control_c, 0, 64, 101
1, 202659, Control_c, 0, 64, 64
1, 202674, Control_c, 0, 64, 0
1, 202757, Control_c, 0, 64, 62
1, 202769, Note_off_c, 0, 28, 62
1, 202771, Control_c, 0, 64, 92
1, 202786, Control_c, 0, 64, 127
1, 202837, Note_off_c, 0, 40, 61
1, 203075, Note_off_c, 0, 71, 51
1, 203114, Note_on_c, 0, 62, 86
1, 203126, Note_on_c, 0, 52, 68
1, 203126, Note_on_c, 0, 56, 69
1, 203166, Note_off_c, 0, 74, 57
1, 203168, Note_off_c, 0, 76, 54
1, 203181, Note_off_c, 0, 80, 61
1, 203225, Note_off_c, 0, 56, 63
1, 203225, Note_off_c, 0, 83, 54
1, 203226, Note_off_c, 0, 52, 63
1, 203299, Note_off_c, 0, 62, 61
1, 203400, Note_on_c, 0, 64, 96
1, 203409, Note_on_c, 0, 56, 90
1, 203411, Note_on_c, 0, 62, 74
1, 203487, Note_off_c, 0, 64, 64
1, 203535, Note_off_c, 0, 62, 54
1, 203558, Note_off_c, 0, 56, 58
1, 203610, Note_on_c, 0, 68, 82
1, 203613, Note_on_c, 0, 59, 65
1, 203613, Note_on_c, 0, 62, 60
1, 203627, Note_on_c, 0, 80, 71
1, 203631, Note_on_c, 0, 85, 105
1, 203639, Note_on_c, 0, 74, 97
1, 203639, Note_on_c, 0, 76, 90
1, 203694, Note_off_c, 0, 68, 59
1, 203707, Note_off_c, 0, 62, 55
1, 203786, Note_off_c, 0, 59, 38
1, 203853, Note_on_c, 0, 56, 86
1, 203856, Note_on_c, 0, 64, 90
1, 203857, Note_on_c, 0, 62, 80
1, 203904, Note_off_c, 0, 62, 64
1, 203925, Note_off_c, 0, 74, 58
1, 203925, Note_off_c, 0, 76, 56
1, 203931, Note_off_c, 0, 56, 63
1, 203940, Note_off_c, 0, 64, 54
1, 203943, Note_off_c, 0, 85, 60
1, 203954, Note_off_c, 0, 80, 34
1, 204086, Note_on_c, 0, 80, 73
1, 204089, Note_on_c, 0, 85, 105
1, 204090, Note_on_c, 0, 62, 85
1, 204090, Note_on_c, 0, 76, 103
1, 204092, Note_on_c, 0, 74, 99
1, 204093, Note_on_c, 0, 52, 76
1, 204093, Note_on_c, 0, 56, 74
1, 204125, Note_off_c, 0, 80, 54
1, 204137, Note_off_c, 0, 62, 64
1, 204164, Note_off_c, 0, 56, 64
1, 204168, Note_off_c, 0, 52, 66
1, 204175, Note_off_c, 0, 85, 66
1, 204218, Note_off_c, 0, 76, 59
1, 204224, Note_off_c, 0, 74, 62
1, 204370, Note_on_c, 0, 45, 85
1, 204378, Note_on_c, 0, 33, 79
1, 204396, Note_on_c, 0, 81, 94
1, 204402, Note_on_c, 0, 69, 90
1, 204403, Control_c, 0, 64, 116
1, 204406, Note_on_c, 0, 73, 88
1, 204417, Control_c, 0, 64, 69
1, 204432, Control_c, 0, 64, 0
1, 204476, Note_off_c, 0, 33, 63
1, 204491, Control_c, 0, 64, 46
1, 204506, Control_c, 0, 64, 72
1, 204521, Note_off_c, 0, 45, 61
1, 204521, Control_c, 0, 64, 127
1, 204670, Note_off_c, 0, 69, 57
1, 204716, Note_on_c, 0, 52, 70
1, 204717, Note_on_c, 0, 61, 88
1, 204728, Note_off_c, 0, 73, 62
1, 204751, Note_off_c, 0, 81, 63
1, 204803, Note_off_c, 0, 52, 61
1, 204891, Note_on_c, 0, 64, 96
1, 204895, Note_on_c, 0, 57, 88
1, 204914, Note_off_c, 0, 61, 60
1, 204943, Note_off_c, 0, 64, 64
1, 205091, Note_on_c, 0, 69, 86
1, 205102, Note_on_c, 0, 61, 74
1, 205120, Note_on_c, 0, 93, 102
1, 205122, Note_on_c, 0, 81, 98
1, 205128, Note_on_c, 0, 85, 92
1, 205166, Note_off_c, 0, 69, 56
1, 205177, Note_off_c, 0, 57, 23
1, 205302, Note_off_c, 0, 61, 61
1, 205335, Note_on_c, 0, 64, 96
1, 205336, Note_on_c, 0, 57, 87
1, 205348, Note_off_c, 0, 93, 65
1, 205365, Note_off_c, 0, 81, 62
1, 205407, Note_off_c, 0, 85, 63
1, 205465, Note_off_c, 0, 64, 56
1, 205520, Note_on_c, 0, 52, 84
1, 205520, Note_on_c, 0, 61, 85
1, 205523, Note_on_c, 0, 92, 108
1, 205524, Note_on_c, 0, 80, 106
1, 205527, Note_on_c, 0, 85, 95
1, 205530, Note_off_c, 0, 57, 63
1, 205541, Note_off_c, 0, 61, 70
1, 205562, Note_on_c, 0, 93, 44
1, 205562, Note_off_c, 0, 52, 68
1, 205588, Note_off_c, 0, 93, 40
1, 205592, Poly_aftertouch_c, 0, 87, 127
1, 205636, Poly_aftertouch_c, 0, 87, 0
1, 205665, Note_off_c, 0, 92, 64
1, 205684, Note_off_c, 0, 80, 62
1, 205696, Note_off_c, 0, 85, 62
1, 205755, Note_on_c, 0, 47, 98
1, 205760, Note_on_c, 0, 35, 86
1, 205766, Control_c, 0, 64, 96
1, 205781, Control_c, 0, 64, 62
1, 205782, Note_on_c, 0, 90, 102
1, 205785, Note_on_c, 0, 78, 98
1, 205796, Control_c, 0, 64, 0
1, 205797, Note_on_c, 0, 85, 89
1, 205855, Control_c, 0, 64, 40
1, 205860, Note_off_c, 0, 35, 62
1, 205870, Control_c, 0, 64, 70
1, 205886, Control_c, 0, 64, 127
1, 205900, Note_off_c, 0, 47, 65
1, 205995, Note_off_c, 0, 78, 63
1, 206036, Note_on_c, 0, 59, 75
1, 206041, Note_on_c, 0, 54, 80
1, 206063, Note_off_c, 0, 90, 60
1, 206196, Note_on_c, 0, 63, 95
1, 206203, Note_on_c, 0, 57, 80
1, 206208, Note_off_c, 0, 54, 62
1, 206232, Note_off_c, 0, 59, 63
1, 206281, Note_off_c, 0, 63, 63
1, 206363, Note_on_c, 0, 66, 83
1, 206363, Note_off_c, 0, 85, 62
1, 206372, Note_on_c, 0, 59, 72
1, 206377, Note_off_c, 0, 57, 57
1, 206380, Note_on_c, 0, 92, 100
1, 206384, Note_on_c, 0, 83, 96
1, 206386, Note_on_c, 0, 87, 83
1, 206447, Note_off_c, 0, 66, 60
1, 206540, Note_off_c, 0, 59, 60
1, 206575, Note_on_c, 0, 57, 80
1, 206575, Note_on_c, 0, 63, 94
1, 206587, Note_off_c, 0, 83, 59
1, 206606, Note_off_c, 0, 92, 63
1, 206624, Note_off_c, 0, 87, 63
1, 206688, Note_off_c, 0, 63, 60
1, 206745, Note_off_c, 0, 57, 53
1, 206749, Note_on_c, 0, 54, 83
1, 206750, Note_on_c, 0, 59, 79
1, 206753, Note_on_c, 0, 92, 107
1, 206754, Note_on_c, 0, 87, 94
1, 206754, Note_on_c, 0, 81, 98
1, 206771, Note_off_c, 0, 59, 71
1, 206793, Note_off_c, 0, 87, 65
1, 206793, Note_off_c, 0, 54, 65
1, 206805, Note_off_c, 0, 92, 67
1, 206848, Note_off_c, 0, 81, 62
1, 206950, Note_on_c, 0, 52, 81
1, 206960, Note_on_c, 0, 40, 69
1, 206974, Control_c, 0, 64, 74
1, 206981, Note_on_c, 0, 88, 92
1, 206989, Note_on_c, 0, 76, 88
1, 206989, Control_c, 0, 64, 46
1, 206991, Note_on_c, 0, 80, 85
1, 207004, Control_c, 0, 64, 0
1, 207062, Note_off_c, 0, 40, 63
1, 207064, Control_c, 0, 64, 37
1, 207078, Control_c, 0, 64, 65
1, 207093, Control_c, 0, 64, 104
1, 207101, Note_off_c, 0, 52, 64
1, 207108, Control_c, 0, 64, 127
1, 207206, Note_on_c, 0, 59, 81
1, 207210, Note_on_c, 0, 52, 70
1, 207243, Note_off_c, 0, 76, 60
1, 207272, Note_off_c, 0, 88, 54
1, 207284, Note_off_c, 0, 52, 60
1, 207374, Note_on_c, 0, 64, 83
1, 207376, Note_on_c, 0, 56, 81
1, 207386, Note_off_c, 0, 59, 61
1, 207417, Note_off_c, 0, 64, 65
1, 207551, Note_on_c, 0, 59, 58
1, 207556, Note_on_c, 0, 68, 70
1, 207580, Note_off_c, 0, 56, 52
1, 207582, Note_on_c, 0, 88, 92
1, 207590, Note_on_c, 0, 76, 87
1, 207638, Note_off_c, 0, 68, 60
1, 207638, Note_off_c, 0, 80, 55
1, 207747, Note_off_c, 0, 59, 61
1, 207767, Note_on_c, 0, 56, 82
1, 207772, Note_on_c, 0, 64, 87
1, 207830, Note_off_c, 0, 76, 62
1, 207836, Note_off_c, 0, 88, 62
1, 207853, Note_off_c, 0, 64, 57
1, 207940, Note_off_c, 0, 56, 61
1, 207961, Note_on_c, 0, 59, 86
1, 207964, Note_on_c, 0, 88, 97
1, 207966, Note_on_c, 0, 52, 82
1, 207966, Note_on_c, 0, 76, 100
1, 207990, Note_off_c, 0, 59, 65
1, 208007, Note_off_c, 0, 52, 67
1, 208014, Note_on_c, 0, 84, 29
1, 208056, Note_off_c, 0, 84, 47
1, 208102, Note_off_c, 0, 76, 60
1, 208108, Note_off_c, 0, 88, 62
1, 208200, Note_on_c, 0, 54, 82
1, 208211, Note_on_c, 0, 42, 73
1, 208248, Note_on_c, 0, 88, 95
1, 208250, Control_c, 0, 64, 94
1, 208250, Note_on_c, 0, 81, 84
1, 208256, Note_on_c, 0, 76, 86
1, 208265, Control_c, 0, 64, 64
1, 208280, Control_c, 0, 64, 0
1, 208339, Note_off_c, 0, 42, 62
1, 208340, Control_c, 0, 64, 48
1, 208355, Control_c, 0, 64, 68
1, 208370, Control_c, 0, 64, 92
1, 208374, Note_off_c, 0, 54, 66
1, 208384, Control_c, 0, 64, 127
1, 208479, Note_off_c, 0, 88, 61
1, 208498, Note_on_c, 0, 62, 80
1, 208498, Note_off_c, 0, 76, 60
1, 208499, Note_on_c, 0, 54, 72
1, 208547, Note_off_c, 0, 54, 61
1, 208649, Note_off_c, 0, 62, 53
1, 208650, Note_on_c, 0, 69, 80
1, 208658, Note_on_c, 0, 57, 76
1, 208680, Note_off_c, 0, 69, 71
1, 208700, Note_on_c, 0, 86, 99
1, 208709, Note_on_c, 0, 74, 86
1, 208712, Note_off_c, 0, 57, 65
1, 208820, Note_off_c, 0, 74, 59
1, 208826, Note_off_c, 0, 86, 60
1, 208869, Note_on_c, 0, 47, 74
1, 208876, Note_on_c, 0, 35, 69
1, 208895, Control_c, 0, 64, 87
1, 208910, Control_c, 0, 64, 72
1, 208918, Note_on_c, 0, 86, 76
1, 208925, Control_c, 0, 64, 71
1, 208930, Note_on_c, 0, 74, 61
1, 208939, Control_c, 0, 64, 85
1, 208945, Note_off_c, 0, 35, 61
1, 208954, Control_c, 0, 64, 127
1, 208965, Note_off_c, 0, 74, 63
1, 208976, Note_off_c, 0, 47, 63
1, 208984, Note_off_c, 0, 81, 31
1, 208999, Note_off_c, 0, 86, 64
1, 209058, Note_on_c, 0, 88, 78
1, 209060, Note_on_c, 0, 76, 71
1, 209085, Note_off_c, 0, 88, 67
1, 209090, Note_off_c, 0, 76, 68
1, 209151, Note_on_c, 0, 86, 91
1, 209157, Note_on_c, 0, 74, 82
1, 209178, Note_off_c, 0, 74, 71
1, 209212, Note_off_c, 0, 86, 60
1, 209233, Note_on_c, 0, 54, 69
1, 209234, Note_on_c, 0, 62, 80
1, 209238, Note_on_c, 0, 85, 95
1, 209243, Note_on_c, 0, 73, 89
1, 209263, Poly_aftertouch_c, 0, 76, 0
1, 209269, Note_off_c, 0, 54, 66
1, 209282, Note_off_c, 0, 73, 64
1, 209295, Note_off_c, 0, 85, 63
1, 209325, Note_on_c, 0, 86, 94
1, 209329, Note_on_c, 0, 74, 82
1, 209347, Note_off_c, 0, 74, 71
1, 209357, Note_off_c, 0, 86, 67
1, 209380, Note_off_c, 0, 62, 0
1, 209392, Note_on_c, 0, 69, 86
1, 209400, Note_on_c, 0, 59, 77
1, 209412, Note_off_c, 0, 69, 72
1, 209413, Note_on_c, 0, 90, 104
1, 209415, Note_on_c, 0, 78, 100
1, 209429, Poly_aftertouch_c, 0, 62, 0
1, 209435, Note_off_c, 0, 59, 69
1, 209456, Note_off_c, 0, 90, 66
1, 209458, Note_off_c, 0, 78, 63
1, 209496, Note_on_c, 0, 76, 97
1, 209496, Note_on_c, 0, 88, 96
1, 209519, Note_on_c, 0, 77, 62
1, 209536, Note_on_c, 0, 86, 37
1, 209537, Note_off_c, 0, 86, 127
1, 209538, Note_off_c, 0, 77, 65
1, 209539, Note_off_c, 0, 88, 68
1, 209540, Note_off_c, 0, 76, 67
1, 209588, Note_on_c, 0, 52, 95
1, 209594, Note_on_c, 0, 40, 86
1, 209600, Control_c, 0, 64, 90
1, 209614, Control_c, 0, 64, 39
1, 209617, Note_on_c, 0, 80, 97
1, 209620, Note_on_c, 0, 86, 94
1, 209621, Note_on_c, 0, 74, 90
1, 209629, Control_c, 0, 64, 0
1, 209636, Note_on_c, 0, 76, 75
1, 209657, Note_off_c, 0, 76, 52
1, 209674, Control_c, 0, 64, 30
1, 209677, Note_off_c, 0, 40, 64
1, 209688, Control_c, 0, 64, 67
1, 209696, Note_off_c, 0, 52, 67
1, 209703, Control_c, 0, 64, 107
1, 209714, Note_on_c, 0, 76, 4
1, 209718, Control_c, 0, 64, 127
1, 209747, Note_on_c, 0, 81, 29
1, 209758, Note_off_c, 0, 74, 60
1, 209768, Note_off_c, 0, 76, 25
1, 209830, Note_on_c, 0, 52, 77
1, 209832, Note_on_c, 0, 61, 91
1, 209866, Note_off_c, 0, 52, 59
1, 209961, Note_off_c, 0, 86, 35
1, 209968, Note_off_c, 0, 61, 62
1, 209994, Note_on_c, 0, 68, 92
1, 209996, Note_on_c, 0, 56, 88
1, 210000, Note_on_c, 0, 85, 96
1, 210003, Note_on_c, 0, 73, 96
1, 210012, Note_off_c, 0, 68, 72
1, 210036, Note_off_c, 0, 80, 35
1, 210043, Note_off_c, 0, 56, 66
1, 210100, Note_off_c, 0, 73, 61
1, 210164, Note_off_c, 0, 85, 63
1, 210186, Note_off_c, 0, 81, 0
1, 210192, Note_on_c, 0, 45, 94
1, 210200, Note_on_c, 0, 33, 81
1, 210215, Control_c, 0, 64, 101
1, 210224, Poly_aftertouch_c, 0, 81, 127
1, 210230, Control_c, 0, 64, 72
1, 210245, Control_c, 0, 64, 60
1, 210250, Note_on_c, 0, 85, 87
1, 210256, Note_on_c, 0, 73, 73
1, 210259, Control_c, 0, 64, 65
1, 210262, Note_off_c, 0, 33, 64
1, 210274, Poly_aftertouch_c, 0, 81, 0
1, 210274, Control_c, 0, 64, 88
1, 210289, Control_c, 0, 64, 127
1, 210300, Note_off_c, 0, 45, 63
1, 210320, Note_off_c, 0, 73, 64
1, 210385, Note_on_c, 0, 86, 91
1, 210394, Note_on_c, 0, 74, 77
1, 210406, Note_off_c, 0, 85, 60
1, 210422, Note_off_c, 0, 74, 65
1, 210477, Note_on_c, 0, 85, 91
1, 210479, Note_on_c, 0, 73, 93
1, 210489, Note_off_c, 0, 86, 55
1, 210518, Note_off_c, 0, 73, 66
1, 210526, Note_off_c, 0, 85, 66
1, 210537, Note_on_c, 0, 52, 66
1, 210554, Note_on_c, 0, 61, 84
1, 210574, Note_on_c, 0, 72, 90
1, 210574, Note_on_c, 0, 84, 96
1, 210583, Note_off_c, 0, 52, 65
1, 210598, Note_off_c, 0, 72, 63
1, 210602, Note_off_c, 0, 84, 62
1, 210654, Note_on_c, 0, 73, 98
1, 210654, Note_on_c, 0, 85, 97
1, 210668, Note_off_c, 0, 61, 61
1, 210685, Note_on_c, 0, 86, 54
1, 210688, Note_on_c, 0, 75, 48
1, 210688, Note_off_c, 0, 73, 68
1, 210692, Note_off_c, 0, 85, 65
1, 210707, Note_off_c, 0, 86, 63
1, 210714, Note_off_c, 0, 75, 59
1, 210729, Note_on_c, 0, 68, 89
1, 210738, Note_on_c, 0, 57, 68
1, 210749, Note_off_c, 0, 68, 70
1, 210753, Note_on_c, 0, 76, 102
1, 210753, Note_on_c, 0, 88, 97
1, 210772, Note_on_c, 0, 58, 20
1, 210772, Note_off_c, 0, 88, 67
1, 210775, Note_off_c, 0, 57, 65
1, 210781, Note_off_c, 0, 76, 63
1, 210815, Note_off_c, 0, 58, 52
1, 210831, Note_on_c, 0, 74, 104
1, 210831, Note_on_c, 0, 86, 93
1, 210871, Note_on_c, 0, 84, 37
1, 210872, Note_off_c, 0, 84, 127
1, 210873, Note_off_c, 0, 86, 65
1, 210874, Note_off_c, 0, 74, 64
1, 210935, Note_on_c, 0, 50, 98
1, 210942, Note_on_c, 0, 38, 85
1, 210948, Control_c, 0, 64, 76
1, 210963, Control_c, 0, 64, 21
1, 210969, Note_on_c, 0, 85, 98
1, 210970, Note_on_c, 0, 73, 94
1, 210972, Note_on_c, 0, 78, 96
1, 210978, Control_c, 0, 64, 0
1, 211014, Note_on_c, 0, 39, 26
1, 211022, Control_c, 0, 64, 43
1, 211037, Note_off_c, 0, 38, 62
1, 211037, Control_c, 0, 64, 70
1, 211049, Note_off_c, 0, 39, 53
1, 211051, Control_c, 0, 64, 127
1, 211066, Note_off_c, 0, 50, 63
1, 211102, Note_off_c, 0, 85, 65
1, 211129, Note_off_c, 0, 73, 60
1, 211195, Note_on_c, 0, 59, 88
1, 211199, Note_on_c, 0, 50, 72
1, 211210, Note_on_c, 0, 83, 101
1, 211213, Note_on_c, 0, 71, 102
1, 211234, Note_off_c, 0, 50, 57
1, 211335, Note_off_c, 0, 71, 57
1, 211351, Note_off_c, 0, 59, 61
1, 211356, Note_off_c, 0, 83, 54
1, 211374, Note_on_c, 0, 66, 94
1, 211377, Poly_aftertouch_c, 0, 81, 127
1, 211378, Note_on_c, 0, 54, 91
1, 211406, Note_off_c, 0, 66, 63
1, 211421, Poly_aftertouch_c, 0, 81, 0
1, 211426, Note_off_c, 0, 78, 50
1, 211433, Note_off_c, 0, 54, 66
1, 211468, Note_on_c, 0, 82, 101
1, 211470, Note_on_c, 0, 70, 95
1, 211521, Note_on_c, 0, 80, 38
1, 211543, Note_off_c, 0, 70, 62
1, 211574, Note_off_c, 0, 80, 57
1, 211598, Note_off_c, 0, 82, 61
1, 211612, Note_on_c, 0, 49, 93
1, 211618, Note_on_c, 0, 37, 81
1, 211646, Control_c, 0, 64, 91
1, 211660, Control_c, 0, 64, 59
1, 211676, Note_on_c, 0, 83, 96
1, 211678, Note_on_c, 0, 77, 82
1, 211680, Note_on_c, 0, 71, 88
1, 211682, Control_c, 0, 64, 0
1, 211712, Control_c, 0, 64, 48
1, 211727, Control_c, 0, 64, 66
1, 211735, Note_off_c, 0, 37, 62
1, 211742, Control_c, 0, 64, 97
1, 211756, Control_c, 0, 64, 127
1, 211773, Note_off_c, 0, 49, 66
1, 211815, Note_off_c, 0, 71, 62
1, 211827, Note_off_c, 0, 83, 65
1, 211893, Note_on_c, 0, 72, 105
1, 211893, Note_on_c, 0, 84, 104
1, 211950, Note_off_c, 0, 72, 63
1, 211953, Note_on_c, 0, 61, 84
1, 211956, Note_on_c, 0, 56, 75
1, 211963, Note_off_c, 0, 84, 66
1, 211973, Note_off_c, 0, 77, 62
1, 212043, Note_on_c, 0, 73, 107
1, 212043, Note_on_c, 0, 85, 101
1, 212080, Note_off_c, 0, 56, 60
1, 212083, Note_off_c, 0, 73, 66
1, 212087, Note_off_c, 0, 85, 66
1, 212125, Note_off_c, 0, 61, 0
1, 212129, Note_on_c, 0, 65, 91
1, 212133, Note_on_c, 0, 59, 90
1, 212147, Note_off_c, 0, 65, 73
1, 212161, Poly_aftertouch_c, 0, 61, 127
1, 212176, Note_off_c, 0, 59, 67
1, 212198, Note_on_c, 0, 68, 100
1, 212198, Note_on_c, 0, 80, 105
1, 212220, Poly_aftertouch_c, 0, 61, 0
1, 212236, Note_off_c, 0, 68, 66
1, 212256, Note_off_c, 0, 80, 60
1, 212379, Note_on_c, 0, 42, 93
1, 212388, Note_on_c, 0, 30, 79
1, 212409, Control_c, 0, 64, 88
1, 212413, Note_on_c, 0, 83, 100
1, 212414, Note_on_c, 0, 71, 95
1, 212430, Note_on_c, 0, 78, 79
1, 212432, Note_on_c, 0, 73, 70
1, 212432, Control_c, 0, 64, 58
1, 212437, Note_on_c, 0, 32, 30
1, 212446, Control_c, 0, 64, 0
1, 212496, Note_off_c, 0, 32, 43
1, 212520, Control_c, 0, 64, 58
1, 212525, Note_off_c, 0, 30, 64
1, 212535, Control_c, 0, 64, 83
1, 212550, Control_c, 0, 64, 127
1, 212561, Note_off_c, 0, 42, 65
1, 212608, Note_off_c, 0, 83, 60
1, 212648, Note_off_c, 0, 71, 61
1, 212695, Note_on_c, 0, 54, 75
1, 212695, Note_on_c, 0, 61, 78
1, 212708, Note_on_c, 0, 81, 91
1, 212716, Note_on_c, 0, 69, 97
1, 212746, Note_off_c, 0, 73, 64
1, 212764, Note_off_c, 0, 78, 55
1, 212784, Note_off_c, 0, 54, 62
1, 212809, Note_off_c, 0, 81, 66
1, 212847, Note_off_c, 0, 61, 61
1, 212869, Note_on_c, 0, 66, 90
1, 212874, Note_on_c, 0, 57, 84
1, 212895, Note_off_c, 0, 66, 65
1, 212922, Note_off_c, 0, 57, 66
1, 212957, Note_on_c, 0, 80, 93
1, 212984, Note_off_c, 0, 69, 52
1, 213035, Note_off_c, 0, 80, 62
1, 213051, Note_on_c, 0, 78, 72
1, 213079, Note_off_c, 0, 78, 68
1, 213106, Note_on_c, 0, 80, 83
1, 213110, Note_on_c, 0, 47, 94
1, 213113, Control_c, 0, 64, 88
1, 213118, Note_on_c, 0, 35, 78
1, 213127, Control_c, 0, 64, 54
1, 213130, Note_on_c, 0, 78, 92
1, 213142, Control_c, 0, 64, 0
1, 213154, Note_on_c, 0, 69, 73
1, 213175, Note_on_c, 0, 71, 66
1, 213178, Note_on_c, 0, 72, 68
1, 213178, Note_on_c, 0, 75, 73
1, 213195, Control_c, 0, 64, 18
1, 213198, Note_off_c, 0, 35, 61
1, 213209, Control_c, 0, 64, 64
1, 213214, Note_off_c, 0, 80, 64
1, 213224, Control_c, 0, 64, 101
1, 213239, Control_c, 0, 64, 127
1, 213243, Note_off_c, 0, 47, 60
1, 213282, Note_off_c, 0, 72, 51
1, 213291, Note_off_c, 0, 69, 52
1, 213320, Note_off_c, 0, 78, 60
1, 213402, Note_off_c, 0, 75, 0
1, 213404, Note_off_c, 0, 71, 0
1, 213412, Note_on_c, 0, 77, 98
1, 213413, Note_on_c, 0, 75, 50
1, 213416, Note_on_c, 0, 71, 52
1, 213419, Note_on_c, 0, 59, 69
1, 213420, Note_on_c, 0, 69, 83
1, 213422, Note_on_c, 0, 54, 77
1, 213489, Note_off_c, 0, 77, 64
1, 213506, Note_off_c, 0, 69, 60
1, 213519, Note_off_c, 0, 75, 63
1, 213529, Note_off_c, 0, 71, 63
1, 213573, Note_on_c, 0, 71, 66
1, 213573, Note_on_c, 0, 75, 79
1, 213577, Note_on_c, 0, 78, 99
1, 213584, Note_on_c, 0, 69, 85
1, 213646, Note_off_c, 0, 78, 64
1, 213651, Note_off_c, 0, 69, 60
1, 213658, Note_off_c, 0, 71, 64
1, 213658, Note_off_c, 0, 75, 63
1, 213663, Note_off_c, 0, 59, 62
1, 213684, Note_off_c, 0, 54, 60
1, 213687, Note_on_c, 0, 63, 93
1, 213693, Note_on_c, 0, 57, 73
1, 213708, Note_on_c, 0, 71, 78
1, 213708, Note_on_c, 0, 75, 79
1, 213709, Note_on_c, 0, 80, 100
1, 213714, Note_on_c, 0, 69, 90
1, 213729, Note_off_c, 0, 63, 63
1, 213756, Note_off_c, 0, 57, 65
1, 213802, Note_off_c, 0, 80, 63
1, 213804, Note_off_c, 0, 71, 62
1, 213807, Note_off_c, 0, 69, 60
1, 213807, Note_off_c, 0, 75, 62
1, 213886, Note_on_c, 0, 81, 100
1, 213890, Note_on_c, 0, 71, 83
1, 213890, Note_on_c, 0, 75, 90
1, 213892, Note_on_c, 0, 69, 93
1, 213933, Note_on_c, 0, 72, 44
1, 213934, Note_off_c, 0, 72, 127
1, 213968, Note_off_c, 0, 81, 63
1, 213983, Note_off_c, 0, 75, 62
1, 213986, Note_off_c, 0, 71, 64
1, 214006, Note_off_c, 0, 69, 64
1, 214155, Note_on_c, 0, 40, 68
1, 214165, Note_on_c, 0, 28, 62
1, 214200, Note_on_c, 0, 71, 90
1, 214210, Control_c, 0, 64, 115
1, 214217, Note_on_c, 0, 62, 75
1, 214218, Note_on_c, 0, 64, 72
1, 214221, Note_on_c, 0, 68, 70
1, 214224, Control_c, 0, 64, 70
1, 214239, Control_c, 0, 64, 0
1, 214299, Control_c, 0, 64, 28
1, 214302, Note_off_c, 0, 28, 62
1, 214313, Control_c, 0, 64, 62
1, 214328, Control_c, 0, 64, 80
1, 214342, Note_off_c, 0, 40, 63
1, 214343, Control_c, 0, 64, 127
1, 214526, Note_on_c, 0, 47, 59
1, 214527, Note_on_c, 0, 56, 72
1, 214554, Note_off_c, 0, 62, 55
1, 214598, Note_off_c, 0, 64, 57
1, 214635, Note_off_c, 0, 68, 59
1, 214655, Note_off_c, 0, 47, 57
1, 214659, Note_off_c, 0, 71, 60
1, 214707, Note_on_c, 0, 59, 83
1, 214713, Note_on_c, 0, 52, 77
1, 214744, Note_off_c, 0, 56, 62
1, 214774, Note_off_c, 0, 59, 61
1, 214892, Note_on_c, 0, 62, 63
1, 214893, Note_on_c, 0, 56, 63
1, 214910, Note_on_c, 0, 73, 95
1, 214910, Note_on_c, 0, 76, 91
1, 214919, Note_on_c, 0, 64, 84
1, 214922, Note_off_c, 0, 52, 55
1, 214934, Note_on_c, 0, 68, 70
1, 214963, Note_off_c, 0, 62, 57
1, 215086, Note_off_c, 0, 56, 63
1, 215118, Note_on_c, 0, 52, 83
1, 215118, Note_on_c, 0, 59, 88
1, 215144, Note_off_c, 0, 76, 56
1, 215152, Note_off_c, 0, 64, 58
1, 215205, Note_off_c, 0, 73, 60
1, 215267, Note_off_c, 0, 59, 57
1, 215297, Note_on_c, 0, 56, 81
1, 215299, Note_on_c, 0, 47, 80
1, 215303, Note_off_c, 0, 68, 0
1, 215303, Note_on_c, 0, 68, 27
1, 215308, Note_on_c, 0, 76, 92
1, 215309, Note_on_c, 0, 73, 91
1, 215310, Note_on_c, 0, 64, 88
1, 215313, Note_on_c, 0, 62, 88
1, 215318, Note_off_c, 0, 52, 62
1, 215327, Note_off_c, 0, 56, 69
1, 215357, Note_off_c, 0, 47, 64
1, 215378, Note_off_c, 0, 76, 62
1, 215382, Note_off_c, 0, 68, 57
1, 215386, Note_off_c, 0, 73, 63
1, 215418, Note_off_c, 0, 62, 68
1, 215418, Note_off_c, 0, 64, 63
1, 215549, Note_on_c, 0, 45, 80
1, 215558, Note_on_c, 0, 33, 71
1, 215560, Control_c, 0, 64, 93
1, 215575, Control_c, 0, 64, 57
1, 215590, Note_on_c, 0, 69, 87
1, 215590, Control_c, 0, 64, 0
1, 215595, Note_on_c, 0, 57, 86
1, 215598, Note_on_c, 0, 61, 84
1, 215616, Note_off_c, 0, 33, 62
1, 215634, Control_c, 0, 64, 37
1, 215649, Control_c, 0, 64, 69
1, 215650, Note_off_c, 0, 45, 62
1, 215664, Control_c, 0, 64, 123
1, 215679, Control_c, 0, 64, 127
1, 215692, Note_off_c, 0, 57, 63
1, 215720, Note_off_c, 0, 61, 63
1, 215747, Note_off_c, 0, 69, 64
1, 215832, Note_on_c, 0, 61, 89
1, 215834, Note_on_c, 0, 52, 77
1, 215908, Note_off_c, 0, 52, 61
1, 215944, Poly_aftertouch_c, 0, 60, 0
1, 215987, Note_on_c, 0, 81, 97
1, 215989, Note_on_c, 0, 69, 102
1, 215990, Note_on_c, 0, 73, 98
1, 215995, Note_on_c, 0, 64, 91
1, 215998, Note_on_c, 0, 57, 82
1, 216016, Note_off_c, 0, 61, 58
1, 216060, Note_off_c, 0, 64, 54
1, 216066, Note_off_c, 0, 69, 67
1, 216096, Note_off_c, 0, 73, 63
1, 216111, Note_off_c, 0, 81, 68
1, 216256, Note_on_c, 0, 69, 83
1, 216269, Note_on_c, 0, 61, 73
1, 216287, Note_on_c, 0, 93, 108
1, 216290, Note_on_c, 0, 81, 97
1, 216293, Note_on_c, 0, 85, 94
1, 216343, Note_off_c, 0, 69, 56
1, 216364, Note_off_c, 0, 57, 31
1, 216460, Note_off_c, 0, 93, 63
1, 216478, Note_off_c, 0, 61, 61
1, 216481, Note_off_c, 0, 81, 61
1, 216501, Note_on_c, 0, 64, 93
1, 216503, Note_on_c, 0, 57, 87
1, 216542, Note_off_c, 0, 85, 58
1, 216630, Note_off_c, 0, 64, 55
1, 216680, Note_on_c, 0, 61, 87
1, 216681, Note_on_c, 0, 92, 111
1, 216682, Note_on_c, 0, 52, 88
1, 216683, Note_on_c, 0, 80, 103
1, 216690, Note_on_c, 0, 85, 87
1, 216690, Poly_aftertouch_c, 0, 86, 0
1, 216695, Note_on_c, 0, 86, 37
1, 216697, Note_off_c, 0, 57, 63
1, 216719, Note_off_c, 0, 61, 60
1, 216725, Note_off_c, 0, 86, 54
1, 216733, Note_off_c, 0, 52, 68
1, 216838, Note_off_c, 0, 92, 63
1, 216861, Note_off_c, 0, 80, 61
1, 216883, Note_off_c, 0, 85, 63
1, 216932, Note_on_c, 0, 47, 96
1, 216937, Note_on_c, 0, 35, 86
1, 216962, Note_on_c, 0, 90, 105
1, 216963, Note_on_c, 0, 45, 54
1, 216964, Note_off_c, 0, 45, 127
1, 216965, Note_on_c, 0, 78, 105
1, 216967, Control_c, 0, 64, 73
1, 216974, Note_on_c, 0, 85, 86
1, 216982, Control_c, 0, 64, 0
1, 217041, Note_off_c, 0, 35, 62
1, 217041, Control_c, 0, 64, 25
1, 217056, Control_c, 0, 64, 63
1, 217070, Note_off_c, 0, 47, 61
1, 217072, Control_c, 0, 64, 117
1, 217087, Control_c, 0, 64, 127
1, 217222, Note_off_c, 0, 78, 61
1, 217235, Note_on_c, 0, 59, 76
1, 217235, Note_on_c, 0, 54, 80
1, 217265, Note_off_c, 0, 90, 60
1, 217370, Note_off_c, 0, 85, 54
1, 217399, Note_on_c, 0, 63, 95
1, 217402, Note_on_c, 0, 57, 75
1, 217407, Note_off_c, 0, 54, 62
1, 217431, Note_off_c, 0, 59, 62
1, 217463, Note_on_c, 0, 85, 26
1, 217483, Note_off_c, 0, 63, 62
1, 217568, Note_off_c, 0, 57, 60
1, 217572, Note_on_c, 0, 66, 88
1, 217575, Note_on_c, 0, 92, 109
1, 217576, Note_on_c, 0, 59, 73
1, 217578, Note_on_c, 0, 83, 99
1, 217581, Note_on_c, 0, 87, 86
1, 217601, Note_off_c, 0, 85, 36
1, 217649, Note_off_c, 0, 66, 60
1, 217715, Note_off_c, 0, 59, 57
1, 217765, Note_on_c, 0, 57, 82
1, 217765, Note_on_c, 0, 63, 94
1, 217785, Note_off_c, 0, 83, 57
1, 217790, Note_off_c, 0, 92, 63
1, 217822, Note_off_c, 0, 87, 60
1, 217865, Note_off_c, 0, 63, 61
1, 217932, Note_on_c, 0, 59, 85
1, 217938, Note_on_c, 0, 54, 82
1, 217941, Note_on_c, 0, 81, 95
1, 217941, Note_on_c, 0, 87, 95
1, 217941, Note_on_c, 0, 92, 105
1, 217956, Note_off_c, 0, 57, 55
1, 217962, Note_off_c, 0, 59, 65
1, 217987, Note_off_c, 0, 54, 65
1, 217992, Note_off_c, 0, 87, 63
1, 217998, Note_off_c, 0, 92, 66
1, 218052, Note_off_c, 0, 81, 62
1, 218152, Note_on_c, 0, 52, 89
1, 218162, Note_on_c, 0, 40, 79
1, 218162, Control_c, 0, 64, 77
1, 218173, Note_on_c, 0, 88, 95
1, 218177, Control_c, 0, 64, 30
1, 218177, Note_on_c, 0, 76, 91
1, 218179, Note_on_c, 0, 80, 91
1, 218191, Control_c, 0, 64, 0
1, 218236, Control_c, 0, 64, 51
1, 218251, Note_off_c, 0, 40, 64
1, 218251, Control_c, 0, 64, 75
1, 218265, Control_c, 0, 64, 127
1, 218275, Note_off_c, 0, 52, 64
1, 218386, Note_on_c, 0, 59, 88
1, 218388, Note_on_c, 0, 52, 78
1, 218393, Note_off_c, 0, 76, 60
1, 218451, Note_off_c, 0, 80, 63
1, 218452, Note_off_c, 0, 88, 63
1, 218485, Note_off_c, 0, 52, 60
1, 218566, Note_on_c, 0, 64, 95
1, 218568, Note_on_c, 0, 56, 90
1, 218589, Note_off_c, 0, 59, 64
1, 218626, Note_off_c, 0, 64, 62
1, 218743, Note_off_c, 0, 56, 63
1, 218750, Note_on_c, 0, 68, 97
1, 218752, Note_on_c, 0, 59, 82
1, 218770, Note_on_c, 0, 88, 108
1, 218770, Note_on_c, 0, 100, 110
1, 218824, Note_off_c, 0, 68, 59
1, 218911, Note_off_c, 0, 59, 57
1, 218958, Note_on_c, 0, 56, 91
1, 218960, Note_on_c, 0, 64, 94
1, 218975, Note_off_c, 0, 100, 60
1, 218977, Note_off_c, 0, 88, 57
1, 219041, Note_off_c, 0, 64, 57
1, 219113, Note_off_c, 0, 56, 61
1, 219167, Note_on_c, 0, 59, 95
1, 219172, Note_on_c, 0, 52, 90
1, 219201, Note_off_c, 0, 59, 66
1, 219215, Note_off_c, 0, 52, 68
1, 219357, Note_on_c, 0, 88, 94
1, 219359, Note_on_c, 0, 100, 97
1, 219393, Note_off_c, 0, 88, 68
1, 219396, Note_off_c, 0, 100, 67
1, 219422, Control_c, 0, 64, 103
1, 219437, Control_c, 0, 64, 61
1, 219441, Note_on_c, 0, 52, 98
1, 219447, Note_on_c, 0, 100, 101
1, 219448, Note_on_c, 0, 40, 85
1, 219448, Note_on_c, 0, 88, 103
1, 219452, Control_c, 0, 64, 0
1, 219497, Control_c, 0, 64, 22
1, 219512, Control_c, 0, 64, 64
1, 219525, Note_off_c, 0, 40, 63
1, 219527, Control_c, 0, 64, 99
1, 219542, Control_c, 0, 64, 127
1, 219554, Note_off_c, 0, 52, 63
1, 219567, Note_off_c, 0, 100, 65
1, 219590, Note_off_c, 0, 88, 61
1, 219747, Note_on_c, 0, 58, 80
1, 219756, Note_on_c, 0, 52, 60
1, 219935, Note_on_c, 0, 61, 79
1, 219939, Note_on_c, 0, 54, 73
1, 219941, Note_off_c, 0, 58, 60
1, 219974, Note_off_c, 0, 52, 53
1, 220015, Note_off_c, 0, 61, 61
1, 220105, Note_on_c, 0, 64, 66
1, 220113, Note_on_c, 0, 58, 63
1, 220129, Note_on_c, 0, 78, 100
1, 220135, Note_on_c, 0, 66, 92
1, 220138, Note_off_c, 0, 54, 54
1, 220171, Note_off_c, 0, 64, 63
1, 220265, Note_off_c, 0, 58, 60
1, 220308, Note_on_c, 0, 61, 82
1, 220317, Note_on_c, 0, 54, 68
1, 220417, Note_off_c, 0, 61, 60
1, 220470, Note_on_c, 0, 52, 76
1, 220475, Note_on_c, 0, 58, 80
1, 220496, Note_off_c, 0, 58, 72
1, 220499, Note_off_c, 0, 54, 51
1, 220513, Note_off_c, 0, 52, 65
1, 220646, Control_c, 0, 64, 69
1, 220668, Control_c, 0, 64, 0
1, 220678, Note_on_c, 0, 40, 88
1, 220681, Note_on_c, 0, 28, 81
1, 220698, Control_c, 0, 64, 9
1, 220712, Control_c, 0, 64, 52
1, 220715, Note_off_c, 0, 28, 66
1, 220724, Note_off_c, 0, 78, 60
1, 220727, Control_c, 0, 64, 73
1, 220733, Note_off_c, 0, 40, 65
1, 220742, Control_c, 0, 64, 127
1, 220855, Note_off_c, 0, 66, 52
1, 220860, Note_on_c, 0, 78, 70
1, 220895, Note_off_c, 0, 78, 65
1, 220901, Note_on_c, 0, 80, 74
1, 220937, Note_on_c, 0, 78, 75
1, 220946, Note_on_c, 0, 51, 71
1, 220966, Note_on_c, 0, 66, 69
1, 220978, Note_on_c, 0, 58, 55
1, 221000, Note_off_c, 0, 80, 57
1, 221029, Note_off_c, 0, 51, 65
1, 221092, Poly_aftertouch_c, 0, 75, 127
1, 221094, Note_off_c, 0, 78, 63
1, 221129, Note_off_c, 0, 66, 61
1, 221155, Poly_aftertouch_c, 0, 75, 0
1, 221167, Note_on_c, 0, 61, 51
1, 221187, Poly_aftertouch_c, 0, 52, 127
1, 221189, Note_on_c, 0, 77, 71
1, 221197, Note_on_c, 0, 54, 47
1, 221199, Note_on_c, 0, 65, 53
1, 221213, Note_off_c, 0, 58, 38
1, 221235, Note_off_c, 0, 65, 64
1, 221254, Note_off_c, 0, 61, 57
1, 221255, Poly_aftertouch_c, 0, 52, 0
1, 221256, Note_off_c, 0, 77, 62
1, 221348, Note_on_c, 0, 78, 75
1, 221354, Note_on_c, 0, 66, 62
1, 221375, Note_off_c, 0, 78, 66
1, 221384, Note_off_c, 0, 66, 64
1, 221445, Note_on_c, 0, 64, 48
1, 221459, Note_on_c, 0, 58, 50
1, 221467, Note_on_c, 0, 80, 78
1, 221477, Note_on_c, 0, 68, 62
1, 221488, Note_off_c, 0, 80, 71
1, 221491, Note_off_c, 0, 54, 33
1, 221494, Note_off_c, 0, 64, 59
1, 221497, Note_off_c, 0, 68, 62
1, 221545, Note_on_c, 0, 82, 85
1, 221551, Note_on_c, 0, 70, 73
1, 221575, Note_off_c, 0, 70, 70
1, 221575, Note_off_c, 0, 82, 62
1, 221607, Note_off_c, 0, 58, 62
1, 221638, Note_on_c, 0, 83, 91
1, 221639, Note_on_c, 0, 71, 81
1, 221641, Note_on_c, 0, 54, 69
1, 221643, Note_on_c, 0, 61, 77
1, 221658, Note_off_c, 0, 71, 72
1, 221663, Note_off_c, 0, 83, 64
1, 221713, Note_on_c, 0, 73, 89
1, 221716, Note_on_c, 0, 85, 84
1, 221733, Note_off_c, 0, 61, 60
1, 221733, Note_off_c, 0, 73, 69
1, 221733, Note_off_c, 0, 85, 72
1, 221776, Note_on_c, 0, 52, 81
1, 221780, Note_on_c, 0, 58, 74
1, 221799, Note_on_c, 0, 86, 88
1, 221800, Note_off_c, 0, 54, 63
1, 221804, Note_off_c, 0, 58, 66
1, 221804, Note_on_c, 0, 74, 78
1, 221806, Note_off_c, 0, 52, 67
1, 221816, Note_off_c, 0, 86, 73
1, 221828, Note_off_c, 0, 74, 69
1, 221870, Note_on_c, 0, 88, 98
1, 221873, Note_on_c, 0, 76, 99
1, 221898, Note_off_c, 0, 76, 65
1, 221905, Note_off_c, 0, 88, 67
1, 221913, Note_on_c, 0, 86, 20
1, 221914, Note_off_c, 0, 86, 127
1, 221962, Note_on_c, 0, 52, 89
1, 221972, Note_on_c, 0, 40, 75
1, 221979, Control_c, 0, 64, 106
1, 221989, Note_on_c, 0, 90, 94
1, 221990, Note_on_c, 0, 78, 100
1, 221994, Control_c, 0, 64, 61
1, 222009, Control_c, 0, 64, 0
1, 222053, Control_c, 0, 64, 25
1, 222065, Note_off_c, 0, 40, 63
1, 222068, Control_c, 0, 64, 64
1, 222083, Control_c, 0, 64, 94
1, 222097, Note_off_c, 0, 52, 62
1, 222098, Control_c, 0, 64, 127
1, 222131, Note_off_c, 0, 90, 64
1, 222159, Note_off_c, 0, 78, 59
1, 222258, Note_on_c, 0, 52, 71
1, 222260, Note_on_c, 0, 60, 77
1, 222335, Note_off_c, 0, 52, 62
1, 222415, Note_on_c, 0, 63, 89
1, 222419, Note_on_c, 0, 56, 79
1, 222430, Note_off_c, 0, 60, 61
1, 222496, Note_off_c, 0, 63, 61
1, 222563, Note_off_c, 0, 56, 62
1, 222571, Note_on_c, 0, 60, 75
1, 222573, Note_on_c, 0, 66, 85
1, 222584, Note_on_c, 0, 80, 99
1, 222587, Note_on_c, 0, 68, 95
1, 222593, Note_on_c, 0, 74, 36
1, 222621, Note_off_c, 0, 74, 59
1, 222628, Note_on_c, 0, 72, 40
1, 222629, Note_off_c, 0, 72, 127
1, 222639, Note_off_c, 0, 66, 60
1, 222722, Note_off_c, 0, 60, 59
1, 222746, Note_on_c, 0, 56, 84
1, 222749, Note_on_c, 0, 63, 88
1, 222797, Note_off_c, 0, 68, 57
1, 222811, Note_off_c, 0, 80, 56
1, 222815, Note_off_c, 0, 63, 62
1, 222898, Note_on_c, 0, 60, 84
1, 222918, Note_on_c, 0, 52, 80
1, 222931, Note_off_c, 0, 60, 68
1, 222934, Note_on_c, 0, 68, 97
1, 222934, Note_on_c, 0, 80, 98
1, 222934, Note_off_c, 0, 56, 62
1, 222955, Note_off_c, 0, 52, 67
1, 222990, Poly_aftertouch_c, 0, 74, 0
1, 223027, Poly_aftertouch_c, 0, 74, 127
1, 223048, Note_off_c, 0, 68, 59
1, 223122, Note_on_c, 0, 40, 93
1, 223128, Note_on_c, 0, 28, 86
1, 223150, Control_c, 0, 64, 92
1, 223165, Control_c, 0, 64, 60
1, 223168, Note_on_c, 0, 68, 88
1, 223179, Control_c, 0, 64, 0
1, 223193, Note_off_c, 0, 80, 50
1, 223201, Poly_aftertouch_c, 0, 74, 0
1, 223204, Note_off_c, 0, 28, 63
1, 223224, Control_c, 0, 64, 48
1, 223239, Control_c, 0, 64, 74
1, 223241, Note_off_c, 0, 40, 62
1, 223253, Control_c, 0, 64, 127
1, 223332, Note_on_c, 0, 80, 88
1, 223449, Note_on_c, 0, 60, 72
1, 223451, Note_on_c, 0, 81, 82
1, 223456, Note_on_c, 0, 52, 68
1, 223461, Note_off_c, 0, 80, 63
1, 223538, Note_on_c, 0, 80, 83
1, 223542, Note_off_c, 0, 81, 62
1, 223551, Note_off_c, 0, 52, 63
1, 223573, Note_off_c, 0, 68, 52
1, 223584, Note_off_c, 0, 80, 64
1, 223627, Note_off_c, 0, 60, 63
1, 223631, Note_on_c, 0, 63, 74
1, 223632, Note_on_c, 0, 56, 68
1, 223635, Note_on_c, 0, 79, 81
1, 223641, Note_on_c, 0, 67, 74
1, 223665, Note_off_c, 0, 79, 71
1, 223676, Note_off_c, 0, 67, 64
1, 223694, Note_off_c, 0, 63, 60
1, 223726, Note_on_c, 0, 80, 85
1, 223728, Note_on_c, 0, 68, 81
1, 223747, Note_off_c, 0, 80, 66
1, 223750, Note_off_c, 0, 68, 69
1, 223789, Note_off_c, 0, 56, 62
1, 223802, Note_on_c, 0, 66, 80
1, 223803, Note_on_c, 0, 60, 73
1, 223813, Note_on_c, 0, 82, 80
1, 223814, Note_on_c, 0, 70, 79
1, 223831, Note_off_c, 0, 66, 63
1, 223833, Note_off_c, 0, 82, 72
1, 223835, Note_off_c, 0, 70, 71
1, 223886, Note_on_c, 0, 72, 88
1, 223886, Note_on_c, 0, 84, 75
1, 223897, Note_on_c, 0, 83, 72
1, 223906, Note_on_c, 0, 82, 36
1, 223906, Note_off_c, 0, 72, 71
1, 223910, Note_off_c, 0, 84, 70
1, 223912, Note_off_c, 0, 83, 69
1, 223938, Note_off_c, 0, 82, 55
1, 223954, Note_off_c, 0, 60, 61
1, 223971, Note_on_c, 0, 63, 83
1, 223972, Note_on_c, 0, 73, 78
1, 223972, Note_on_c, 0, 85, 83
1, 223973, Note_on_c, 0, 56, 79
1, 223981, Note_on_c, 0, 75, 74
1, 223987, Note_off_c, 0, 73, 42
1, 223990, Note_off_c, 0, 85, 73
1, 223995, Note_off_c, 0, 75, 68
1, 224006, Note_off_c, 0, 63, 58
1, 224010, Note_on_c, 0, 74, 34
1, 224016, Note_on_c, 0, 86, 18
1, 224017, Note_off_c, 0, 86, 127
1, 224039, Note_off_c, 0, 74, 56
1, 224049, Note_on_c, 0, 75, 105
1, 224052, Note_on_c, 0, 87, 95
1, 224089, Note_off_c, 0, 87, 63
1, 224094, Note_off_c, 0, 75, 62
1, 224101, Note_on_c, 0, 60, 77
1, 224103, Note_on_c, 0, 52, 82
1, 224121, Note_off_c, 0, 56, 64
1, 224129, Note_off_c, 0, 60, 66
1, 224133, Note_off_c, 0, 52, 67
1, 224136, Note_on_c, 0, 88, 99
1, 224139, Note_on_c, 0, 76, 102
1, 224165, Note_off_c, 0, 76, 65
1, 224168, Note_off_c, 0, 88, 69
1, 224183, Note_on_c, 0, 86, 13
1, 224184, Note_off_c, 0, 86, 127
1, 224219, Note_on_c, 0, 78, 98
1, 224222, Note_on_c, 0, 90, 105
1, 224266, Note_off_c, 0, 78, 64
1, 224276, Note_off_c, 0, 90, 62
1, 224320, Note_on_c, 0, 52, 100
1, 224328, Note_on_c, 0, 40, 91
1, 224344, Control_c, 0, 64, 66
1, 224352, Note_on_c, 0, 80, 99
1, 224352, Note_on_c, 0, 92, 104
1, 224359, Control_c, 0, 64, 0
1, 224408, Note_on_c, 0, 93, 32
1, 224424, Note_off_c, 0, 40, 65
1, 224426, Control_c, 0, 64, 57
1, 224440, Control_c, 0, 64, 83
1, 224444, Note_off_c, 0, 93, 34
1, 224447, Note_off_c, 0, 52, 67
1, 224455, Control_c, 0, 64, 127
1, 224487, Note_on_c, 0, 90, 18
1, 224487, Note_off_c, 0, 92, 65
1, 224505, Note_off_c, 0, 80, 63
1, 224530, Note_off_c, 0, 90, 39
1, 224600, Note_on_c, 0, 61, 93
1, 224609, Note_on_c, 0, 52, 76
1, 224669, Note_off_c, 0, 52, 60
1, 224741, Note_off_c, 0, 61, 57
1, 224756, Note_on_c, 0, 64, 93
1, 224757, Note_on_c, 0, 56, 90
1, 224781, Note_off_c, 0, 64, 67
1, 224809, Note_off_c, 0, 56, 66
1, 224929, Control_c, 0, 64, 97
1, 224930, Note_on_c, 0, 51, 105
1, 224933, Note_on_c, 0, 68, 98
1, 224933, Note_on_c, 0, 80, 99
1, 224934, Note_on_c, 0, 39, 95
1, 224944, Control_c, 0, 64, 60
1, 224958, Control_c, 0, 64, 0
1, 225001, Note_off_c, 0, 39, 63
1, 225003, Control_c, 0, 64, 52
1, 225018, Control_c, 0, 64, 80
1, 225021, Note_off_c, 0, 51, 64
1, 225033, Control_c, 0, 64, 127
1, 225118, Note_off_c, 0, 80, 63
1, 225129, Note_off_c, 0, 68, 57
1, 225144, Note_on_c, 0, 59, 90
1, 225147, Note_on_c, 0, 51, 86
1, 225210, Poly_aftertouch_c, 0, 76, 0
1, 225242, Note_off_c, 0, 51, 60
1, 225287, Note_on_c, 0, 63, 89
1, 225290, Note_on_c, 0, 56, 84
1, 225296, Note_on_c, 0, 68, 100
1, 225300, Note_on_c, 0, 80, 93
1, 225305, Note_off_c, 0, 59, 65
1, 225313, Note_off_c, 0, 63, 66
1, 225335, Note_off_c, 0, 80, 62
1, 225336, Note_off_c, 0, 56, 66
1, 225337, Note_off_c, 0, 68, 65
1, 225402, Note_on_c, 0, 80, 79
1, 225440, Note_on_c, 0, 82, 72
1, 225441, Note_off_c, 0, 80, 59
1, 225456, Control_c, 0, 64, 83
1, 225471, Control_c, 0, 64, 46
1, 225478, Note_on_c, 0, 49, 100
1, 225482, Note_on_c, 0, 80, 75
1, 225482, Note_off_c, 0, 82, 64
1, 225485, Note_on_c, 0, 37, 90
1, 225486, Control_c, 0, 64, 0
1, 225496, Note_on_c, 0, 68, 98
1, 225515, Control_c, 0, 64, 52
1, 225528, Note_on_c, 0, 81, 27
1, 225530, Control_c, 0, 64, 80
1, 225534, Note_off_c, 0, 49, 64
1, 225540, Note_off_c, 0, 37, 61
1, 225545, Control_c, 0, 64, 127
1, 225568, Note_off_c, 0, 81, 55
1, 225582, Note_off_c, 0, 68, 60
1, 225584, Note_off_c, 0, 80, 65
1, 225706, Note_on_c, 0, 56, 87
1, 225713, Note_on_c, 0, 49, 73
1, 225718, Note_on_c, 0, 67, 86
1, 225720, Note_on_c, 0, 79, 90
1, 225746, Note_off_c, 0, 67, 63
1, 225757, Note_off_c, 0, 79, 65
1, 225835, Note_off_c, 0, 49, 58
1, 225844, Note_on_c, 0, 68, 98
1, 225844, Note_on_c, 0, 80, 98
1, 225881, Note_off_c, 0, 68, 62
1, 225885, Note_off_c, 0, 80, 63
1, 225920, Poly_aftertouch_c, 0, 57, 127
1, 225923, Note_off_c, 0, 56, 33
1, 225937, Note_on_c, 0, 52, 82
1, 225937, Note_on_c, 0, 61, 87
1, 225957, Note_off_c, 0, 61, 71
1, 225958, Note_on_c, 0, 70, 101
1, 225960, Note_on_c, 0, 82, 100
1, 225960, Poly_aftertouch_c, 0, 57, 0
1, 225977, Note_off_c, 0, 52, 65
1, 225992, Note_off_c, 0, 70, 69
1, 225998, Note_off_c, 0, 82, 65
1, 226044, Note_on_c, 0, 71, 96
1, 226045, Note_on_c, 0, 83, 95
1, 226078, Note_off_c, 0, 71, 63
1, 226079, Note_off_c, 0, 83, 68
1, 226116, Control_c, 0, 64, 81
1, 226127, Note_on_c, 0, 44, 103
1, 226130, Control_c, 0, 64, 63
1, 226135, Note_on_c, 0, 32, 73
1, 226141, Note_on_c, 0, 73, 101
1, 226142, Note_on_c, 0, 85, 97
1, 226145, Note_off_c, 0, 44, 71
1, 226145, Control_c, 0, 64, 66
1, 226160, Control_c, 0, 64, 92
1, 226162, Note_on_c, 0, 43, 58
1, 226171, Note_off_c, 0, 32, 63
1, 226174, Note_off_c, 0, 73, 67
1, 226175, Control_c, 0, 64, 127
1, 226179, Note_off_c, 0, 85, 66
1, 226187, Note_off_c, 0, 43, 58
1, 226240, Note_on_c, 0, 75, 96
1, 226243, Note_on_c, 0, 87, 105
1, 226273, Poly_aftertouch_c, 0, 44, 0
1, 226276, Note_off_c, 0, 75, 67
1, 226283, Note_off_c, 0, 87, 64
1, 226334, Note_on_c, 0, 56, 96
1, 226342, Note_on_c, 0, 47, 82
1, 226350, Note_on_c, 0, 77, 102
1, 226350, Note_on_c, 0, 89, 102
1, 226380, Note_off_c, 0, 77, 61
1, 226386, Note_off_c, 0, 89, 64
1, 226437, Note_off_c, 0, 47, 61
1, 226453, Note_on_c, 0, 79, 103
1, 226455, Note_on_c, 0, 91, 99
1, 226485, Note_off_c, 0, 79, 67
1, 226491, Note_off_c, 0, 91, 68
1, 226494, Note_on_c, 0, 90, 33
1, 226495, Note_off_c, 0, 90, 127
1, 226542, Note_off_c, 0, 56, 65
1, 226562, Note_on_c, 0, 59, 103
1, 226566, Note_on_c, 0, 51, 99
1, 226583, Note_on_c, 0, 80, 101
1, 226586, Note_on_c, 0, 56, 38
1, 226586, Note_on_c, 0, 92, 106
1, 226602, Note_off_c, 0, 59, 64
1, 226606, Note_off_c, 0, 56, 64
1, 226634, Note_off_c, 0, 80, 60
1, 226660, Note_off_c, 0, 92, 64
1, 226663, Note_off_c, 0, 51, 64
1, 226746, Note_on_c, 0, 94, 114
1, 226747, Note_on_c, 0, 82, 102
1, 226785, Note_on_c, 0, 95, 45
1, 226815, Note_off_c, 0, 95, 37
1, 226835, Note_off_c, 0, 82, 66
1, 226860, Note_off_c, 0, 94, 62
1, 226862, Poly_aftertouch_c, 0, 83, 0
1, 226933, Poly_aftertouch_c, 0, 34, 127
1, 226938, Note_on_c, 0, 41, 108
1, 226943, Note_on_c, 0, 29, 95
1, 226952, Note_on_c, 0, 83, 101
1, 226952, Note_on_c, 0, 95, 109
1, 226953, Control_c, 0, 64, 69
1, 226965, Poly_aftertouch_c, 0, 88, 0
1, 226968, Control_c, 0, 64, 0
1, 226976, Poly_aftertouch_c, 0, 34, 0
1, 227042, Control_c, 0, 64, 40
1, 227057, Control_c, 0, 64, 77
1, 227066, Note_off_c, 0, 29, 63
1, 227072, Control_c, 0, 64, 127
1, 227105, Note_off_c, 0, 95, 64
1, 227110, Note_off_c, 0, 41, 63
1, 227197, Note_on_c, 0, 95, 105
1, 227201, Note_on_c, 0, 92, 104
1, 227230, Note_off_c, 0, 83, 64
1, 227236, Note_on_c, 0, 84, 25
1, 227237, Note_off_c, 0, 84, 127
1, 227313, Note_on_c, 0, 89, 92
1, 227331, Note_off_c, 0, 95, 62
1, 227346, Note_off_c, 0, 92, 61
1, 227379, Note_on_c, 0, 53, 74
1, 227415, Note_on_c, 0, 87, 99
1, 227435, Note_off_c, 0, 89, 61
1, 227435, Note_on_c, 0, 59, 81
1, 227447, Note_off_c, 0, 53, 62
1, 227465, Note_on_c, 0, 63, 84
1, 227485, Note_off_c, 0, 87, 65
1, 227486, Poly_aftertouch_c, 0, 57, 127
1, 227492, Note_on_c, 0, 83, 87
1, 227506, Note_off_c, 0, 59, 61
1, 227528, Poly_aftertouch_c, 0, 57, 0
1, 227529, Note_off_c, 0, 83, 64
1, 227557, Note_on_c, 0, 68, 106
1, 227567, Poly_aftertouch_c, 0, 83, 0
1, 227572, Note_on_c, 0, 83, 82
1, 227578, Note_off_c, 0, 63, 58
1, 227585, Note_on_c, 0, 80, 87
1, 227591, Note_off_c, 0, 68, 67
1, 227665, Note_on_c, 0, 77, 92
1, 227682, Note_off_c, 0, 83, 57
1, 227719, Note_off_c, 0, 80, 62
1, 227744, Note_on_c, 0, 75, 94
1, 227758, Note_off_c, 0, 77, 61
1, 227806, Note_off_c, 0, 75, 64
1, 227816, Note_on_c, 0, 71, 77
1, 227844, Note_off_c, 0, 71, 66
1, 227883, Note_on_c, 0, 71, 84
1, 227897, Note_on_c, 0, 68, 87
1, 227963, Note_on_c, 0, 65, 85
1, 227980, Note_off_c, 0, 71, 59
1, 228016, Note_off_c, 0, 68, 58
1, 228032, Note_on_c, 0, 63, 88
1, 228041, Note_off_c, 0, 65, 62
1, 228082, Note_off_c, 0, 63, 64
1, 228094, Note_on_c, 0, 59, 79
1, 228118, Note_off_c, 0, 59, 69
1, 228169, Note_on_c, 0, 59, 84
1, 228182, Note_on_c, 0, 56, 85
1, 228245, Note_on_c, 0, 53, 86
1, 228270, Note_off_c, 0, 59, 50
1, 228318, Note_on_c, 0, 51, 90
1, 228320, Note_off_c, 0, 56, 56
1, 228340, Note_off_c, 0, 53, 64
1, 228378, Note_on_c, 0, 47, 83
1, 228388, Note_off_c, 0, 51, 63
1, 228449, Note_on_c, 0, 59, 86
1, 228455, Note_on_c, 0, 56, 82
1, 228465, Note_off_c, 0, 47, 62
1, 228467, Control_c, 0, 64, 89
1, 228481, Control_c, 0, 64, 65
1, 228496, Control_c, 0, 64, 27
1, 228511, Control_c, 0, 64, 0
1, 228524, Note_on_c, 0, 54, 66
1, 228525, Note_off_c, 0, 54, 127
1, 228526, Control_c, 0, 64, 32
1, 228537, Note_on_c, 0, 53, 84
1, 228541, Control_c, 0, 64, 44
1, 228555, Control_c, 0, 64, 56
1, 228570, Control_c, 0, 64, 64
1, 228580, Note_off_c, 0, 59, 55
1, 228585, Control_c, 0, 64, 70
1, 228589, Note_on_c, 0, 51, 87
1, 228597, Note_off_c, 0, 56, 59
1, 228599, Control_c, 0, 64, 83
1, 228614, Control_c, 0, 64, 127
1, 228615, Note_off_c, 0, 53, 63
1, 228651, Note_on_c, 0, 47, 76
1, 228658, Note_off_c, 0, 51, 64
1, 228703, Note_off_c, 0, 47, 60
1, 228718, Note_on_c, 0, 59, 80
1, 228726, Note_on_c, 0, 56, 75
1, 228759, Note_off_c, 0, 56, 64
1, 228809, Note_on_c, 0, 53, 81
1, 228827, Note_off_c, 0, 59, 62
1, 228881, Control_c, 0, 64, 108
1, 228903, Control_c, 0, 64, 96
1, 228918, Control_c, 0, 64, 86
1, 228932, Control_c, 0, 64, 76
1, 228947, Control_c, 0, 64, 66
1, 228951, Note_on_c, 0, 34, 47
1, 228959, Note_on_c, 0, 58, 60
1, 228962, Control_c, 0, 64, 54
1, 228965, Note_off_c, 0, 53, 57
1, 228977, Control_c, 0, 64, 33
1, 228992, Control_c, 0, 64, 34
1, 229006, Control_c, 0, 64, 39
1, 229021, Control_c, 0, 64, 43
1, 229036, Control_c, 0, 64, 48
1, 229052, Control_c, 0, 64, 51
1, 229061, Note_off_c, 0, 34, 62
1, 229067, Control_c, 0, 64, 56
1, 229074, Note_off_c, 0, 58, 61
1, 229082, Control_c, 0, 64, 62
1, 229089, Note_on_c, 0, 56, 47
1, 229096, Control_c, 0, 64, 67
1, 229111, Control_c, 0, 64, 72
1, 229126, Control_c, 0, 64, 79
1, 229141, Control_c, 0, 64, 84
1, 229153, Note_off_c, 0, 56, 59
1, 229156, Control_c, 0, 64, 86
1, 229168, Note_on_c, 0, 50, 43
1, 229170, Control_c, 0, 64, 84
1, 229171, Note_on_c, 0, 59, 58
1, 229185, Control_c, 0, 64, 82
1, 229200, Control_c, 0, 64, 79
1, 229212, Note_off_c, 0, 50, 49
1, 229215, Note_off_c, 0, 59, 61
1, 229215, Control_c, 0, 64, 77
1, 229230, Control_c, 0, 64, 74
1, 229245, Control_c, 0, 64, 71
1, 229246, Note_on_c, 0, 53, 53
1, 229260, Control_c, 0, 64, 68
1, 229275, Control_c, 0, 64, 64
1, 229290, Control_c, 0, 64, 61
1, 229290, Note_off_c, 0, 53, 60
1, 229295, Note_on_c, 0, 58, 58
1, 229304, Control_c, 0, 64, 58
1, 229319, Control_c, 0, 64, 54
1, 229334, Control_c, 0, 64, 50
1, 229341, Note_off_c, 0, 58, 63
1, 229348, Control_c, 0, 64, 45
1, 229363, Control_c, 0, 64, 37
1, 229365, Note_on_c, 0, 56, 53
1, 229378, Control_c, 0, 64, 37
1, 229393, Control_c, 0, 64, 43
1, 229408, Control_c, 0, 64, 50
1, 229409, Note_off_c, 0, 56, 63
1, 229418, Note_on_c, 0, 59, 58
1, 229422, Control_c, 0, 64, 56
1, 229423, Note_on_c, 0, 34, 53
1, 229437, Control_c, 0, 64, 62
1, 229452, Control_c, 0, 64, 66
1, 229456, Note_off_c, 0, 59, 65
1, 229467, Control_c, 0, 64, 71
1, 229468, Note_off_c, 0, 34, 62
1, 229482, Control_c, 0, 64, 79
1, 229488, Note_on_c, 0, 53, 55
1, 229496, Control_c, 0, 64, 92
1, 229511, Control_c, 0, 64, 107
1, 229526, Control_c, 0, 64, 108
1, 229538, Note_off_c, 0, 53, 58
1, 229541, Control_c, 0, 64, 100
1, 229543, Note_on_c, 0, 58, 58
1, 229555, Note_on_c, 0, 50, 53
1, 229555, Control_c, 0, 64, 90
1, 229570, Control_c, 0, 64, 81
1, 229582, Note_off_c, 0, 50, 61
1, 229582, Note_off_c, 0, 58, 64
1, 229585, Control_c, 0, 64, 72
1, 229600, Control_c, 0, 64, 65
1, 229603, Note_on_c, 0, 56, 55
1, 229615, Control_c, 0, 64, 57
1, 229629, Control_c, 0, 64, 46
1, 229652, Control_c, 0, 64, 0
1, 229660, Note_off_c, 0, 56, 62
1, 229666, Note_on_c, 0, 59, 62
1, 229705, Note_off_c, 0, 59, 64
1, 229731, Note_on_c, 0, 53, 57
1, 229770, Control_c, 0, 64, 34
1, 229781, Note_on_c, 0, 58, 64
1, 229782, Note_off_c, 0, 53, 61
1, 229784, Note_on_c, 0, 34, 60
1, 229785, Control_c, 0, 64, 59
1, 229800, Control_c, 0, 64, 68
1, 229815, Control_c, 0, 64, 77
1, 229825, Note_off_c, 0, 58, 62
1, 229827, Note_off_c, 0, 34, 63
1, 229829, Control_c, 0, 64, 96
1, 229837, Note_on_c, 0, 56, 65
1, 229845, Control_c, 0, 64, 127
1, 229901, Note_off_c, 0, 56, 61
1, 229904, Note_on_c, 0, 59, 63
1, 229912, Note_on_c, 0, 50, 57
1, 229934, Control_c, 0, 64, 91
1, 229939, Note_off_c, 0, 59, 64
1, 229941, Note_off_c, 0, 50, 64
1, 229949, Control_c, 0, 64, 70
1, 229962, Note_on_c, 0, 53, 63
1, 229964, Control_c, 0, 64, 45
1, 229978, Control_c, 0, 64, 0
1, 230018, Note_on_c, 0, 58, 65
1, 230020, Note_off_c, 0, 53, 61
1, 230059, Note_off_c, 0, 58, 63
1, 230070, Note_on_c, 0, 56, 67
1, 230121, Note_on_c, 0, 34, 64
1, 230121, Note_on_c, 0, 59, 68
1, 230123, Note_off_c, 0, 56, 62
1, 230127, Control_c, 0, 64, 30
1, 230142, Control_c, 0, 64, 60
1, 230157, Control_c, 0, 64, 72
1, 230164, Note_off_c, 0, 59, 61
1, 230168, Note_off_c, 0, 34, 62
1, 230171, Control_c, 0, 64, 90
1, 230184, Note_on_c, 0, 53, 65
1, 230186, Control_c, 0, 64, 127
1, 230237, Note_on_c, 0, 58, 72
1, 230243, Note_on_c, 0, 50, 62
1, 230243, Note_off_c, 0, 53, 60
1, 230270, Note_off_c, 0, 50, 66
1, 230275, Control_c, 0, 64, 104
1, 230289, Note_off_c, 0, 58, 62
1, 230290, Control_c, 0, 64, 69
1, 230292, Note_on_c, 0, 56, 72
1, 230305, Control_c, 0, 64, 21
1, 230319, Control_c, 0, 64, 0
1, 230345, Note_on_c, 0, 59, 70
1, 230351, Note_off_c, 0, 56, 64
1, 230402, Note_off_c, 0, 59, 62
1, 230403, Note_on_c, 0, 53, 70
1, 230461, Note_on_c, 0, 58, 73
1, 230468, Note_on_c, 0, 50, 89
1, 230475, Control_c, 0, 64, 23
1, 230479, Note_off_c, 0, 53, 62
1, 230490, Control_c, 0, 64, 57
1, 230505, Control_c, 0, 64, 71
1, 230514, Note_off_c, 0, 50, 62
1, 230520, Control_c, 0, 64, 95
1, 230522, Note_on_c, 0, 56, 73
1, 230529, Note_off_c, 0, 58, 63
1, 230534, Control_c, 0, 64, 127
1, 230592, Note_on_c, 0, 59, 72
1, 230592, Note_on_c, 0, 65, 82
1, 230606, Note_off_c, 0, 56, 61
1, 230623, Control_c, 0, 64, 83
1, 230624, Note_off_c, 0, 65, 61
1, 230639, Control_c, 0, 64, 60
1, 230646, Note_off_c, 0, 59, 62
1, 230655, Control_c, 0, 64, 0
1, 230658, Note_on_c, 0, 53, 64
1, 230707, Note_on_c, 0, 58, 73
1, 230716, Note_off_c, 0, 53, 60
1, 230761, Note_on_c, 0, 56, 71
1, 230762, Note_off_c, 0, 58, 64
1, 230816, Note_on_c, 0, 59, 65
1, 230817, Control_c, 0, 64, 33
1, 230818, Note_on_c, 0, 50, 77
1, 230828, Note_off_c, 0, 56, 61
1, 230832, Control_c, 0, 64, 59
1, 230846, Note_off_c, 0, 50, 66
1, 230847, Control_c, 0, 64, 75
1, 230862, Control_c, 0, 64, 106
1, 230873, Note_off_c, 0, 59, 62
1, 230876, Control_c, 0, 64, 127
1, 230877, Note_on_c, 0, 53, 66
1, 230930, Note_on_c, 0, 58, 72
1, 230932, Note_on_c, 0, 65, 75
1, 230947, Note_off_c, 0, 53, 60
1, 230950, Control_c, 0, 64, 95
1, 230955, Note_off_c, 0, 65, 69
1, 230965, Control_c, 0, 64, 68
1, 230980, Control_c, 0, 64, 20
1, 230987, Note_off_c, 0, 58, 64
1, 230995, Control_c, 0, 64, 0
1, 230998, Note_on_c, 0, 56, 66
1, 231045, Note_off_c, 0, 56, 62
1, 231051, Note_on_c, 0, 59, 61
1, 231101, Note_on_c, 0, 53, 69
1, 231103, Note_off_c, 0, 59, 62
1, 231129, Control_c, 0, 64, 33
1, 231150, Note_on_c, 0, 50, 85
1, 231150, Control_c, 0, 64, 59
1, 231157, Note_on_c, 0, 58, 78
1, 231165, Control_c, 0, 64, 72
1, 231174, Note_off_c, 0, 53, 62
1, 231180, Control_c, 0, 64, 104
1, 231182, Note_off_c, 0, 50, 65
1, 231194, Control_c, 0, 64, 127
1, 231219, Note_on_c, 0, 56, 79
1, 231224, Note_off_c, 0, 58, 64
1, 231263, Note_on_c, 0, 65, 86
1, 231278, Note_on_c, 0, 59, 75
1, 231287, Note_off_c, 0, 56, 64
1, 231287, Note_off_c, 0, 65, 66
1, 231299, Control_c, 0, 64, 88
1, 231314, Control_c, 0, 64, 62
1, 231327, Note_off_c, 0, 59, 61
1, 231328, Control_c, 0, 64, 0
1, 231332, Note_on_c, 0, 53, 73
1, 231384, Note_on_c, 0, 58, 79
1, 231400, Note_off_c, 0, 53, 60
1, 231430, Note_on_c, 0, 56, 83
1, 231442, Note_off_c, 0, 58, 64
1, 231477, Control_c, 0, 64, 21
1, 231478, Note_on_c, 0, 50, 90
1, 231486, Note_on_c, 0, 59, 74
1, 231491, Control_c, 0, 64, 55
1, 231504, Note_off_c, 0, 50, 66
1, 231505, Note_off_c, 0, 56, 64
1, 231506, Control_c, 0, 64, 69
1, 231521, Control_c, 0, 64, 93
1, 231536, Note_on_c, 0, 53, 76
1, 231536, Control_c, 0, 64, 127
1, 231543, Note_off_c, 0, 59, 63
1, 231586, Note_on_c, 0, 65, 84
1, 231590, Note_on_c, 0, 58, 77
1, 231607, Note_off_c, 0, 65, 69
1, 231619, Note_off_c, 0, 53, 62
1, 231651, Note_off_c, 0, 58, 64
1, 231653, Note_on_c, 0, 56, 84
1, 231654, Control_c, 0, 64, 78
1, 231669, Control_c, 0, 64, 54
1, 231684, Control_c, 0, 64, 0
1, 231712, Note_on_c, 0, 59, 78
1, 231726, Note_off_c, 0, 56, 64
1, 231767, Note_on_c, 0, 53, 75
1, 231776, Note_off_c, 0, 59, 63
1, 231841, Note_on_c, 0, 58, 85
1, 231847, Control_c, 0, 64, 11
1, 231857, Note_on_c, 0, 34, 75
1, 231857, Note_off_c, 0, 53, 63
1, 231862, Control_c, 0, 64, 62
1, 231877, Control_c, 0, 64, 85
1, 231881, Note_off_c, 0, 34, 64
1, 231898, Control_c, 0, 64, 127
1, 231912, Note_off_c, 0, 58, 61
1, 232030, Note_on_c, 0, 58, 61
1, 232063, Note_off_c, 0, 58, 58
1, 232077, Control_c, 0, 64, 119
1, 232091, Control_c, 0, 64, 96
1, 232092, Note_on_c, 0, 62, 54
1, 232106, Control_c, 0, 64, 86
1, 232121, Control_c, 0, 64, 80
1, 232128, Note_off_c, 0, 62, 63
1, 232135, Control_c, 0, 64, 74
1, 232149, Control_c, 0, 64, 67
1, 232154, Note_on_c, 0, 59, 58
1, 232164, Control_c, 0, 64, 63
1, 232179, Control_c, 0, 64, 61
1, 232190, Note_off_c, 0, 59, 62
1, 232194, Control_c, 0, 64, 59
1, 232209, Control_c, 0, 64, 54
1, 232218, Note_on_c, 0, 62, 44
1, 232223, Control_c, 0, 64, 43
1, 232239, Control_c, 0, 64, 39
1, 232244, Note_off_c, 0, 62, 60
1, 232254, Control_c, 0, 64, 45
1, 232264, Note_on_c, 0, 56, 47
1, 232266, Note_on_c, 0, 61, 54
1, 232269, Control_c, 0, 64, 54
1, 232272, Note_on_c, 0, 46, 46
1, 232273, Note_on_c, 0, 53, 41
1, 232284, Control_c, 0, 64, 61
1, 232299, Control_c, 0, 64, 68
1, 232300, Note_off_c, 0, 61, 63
1, 232306, Note_off_c, 0, 56, 65
1, 232311, Note_on_c, 0, 65, 50
1, 232313, Note_off_c, 0, 53, 64
1, 232314, Note_off_c, 0, 46, 64
1, 232314, Control_c, 0, 64, 82
1, 232328, Control_c, 0, 64, 127
1, 232336, Note_off_c, 0, 65, 62
1, 232358, Control_c, 0, 64, 113
1, 232366, Note_on_c, 0, 62, 55
1, 232372, Control_c, 0, 64, 82
1, 232387, Control_c, 0, 64, 67
1, 232399, Note_off_c, 0, 62, 64
1, 232402, Control_c, 0, 64, 56
1, 232417, Control_c, 0, 64, 42
1, 232425, Note_on_c, 0, 68, 60
1, 232432, Control_c, 0, 64, 21
1, 232446, Control_c, 0, 64, 0
1, 232458, Note_off_c, 0, 68, 64
1, 232478, Note_on_c, 0, 64, 67
1, 232509, Note_off_c, 0, 64, 65
1, 232542, Note_on_c, 0, 68, 51
1, 232569, Note_off_c, 0, 68, 62
1, 232594, Note_on_c, 0, 65, 67
1, 232597, Note_on_c, 0, 62, 60
1, 232606, Note_on_c, 0, 53, 50
1, 232607, Note_on_c, 0, 56, 47
1, 232610, Control_c, 0, 64, 23
1, 232622, Note_off_c, 0, 65, 66
1, 232625, Control_c, 0, 64, 60
1, 232626, Note_off_c, 0, 62, 65
1, 232642, Note_off_c, 0, 56, 59
1, 232643, Note_off_c, 0, 53, 62
1, 232646, Control_c, 0, 64, 73
1, 232658, Note_on_c, 0, 71, 68
1, 232661, Control_c, 0, 64, 94
1, 232676, Control_c, 0, 64, 127
1, 232687, Note_off_c, 0, 71, 65
1, 232706, Control_c, 0, 64, 89
1, 232712, Note_on_c, 0, 67, 75
1, 232721, Control_c, 0, 64, 66
1, 232735, Control_c, 0, 64, 38
1, 232750, Note_off_c, 0, 67, 62
1, 232750, Control_c, 0, 64, 0
1, 232763, Note_on_c, 0, 71, 64
1, 232801, Note_off_c, 0, 71, 58
1, 232816, Note_on_c, 0, 68, 76
1, 232840, Note_off_c, 0, 68, 68
1, 232869, Note_on_c, 0, 74, 70
1, 232918, Note_off_c, 0, 74, 60
1, 232924, Note_on_c, 0, 65, 73
1, 232935, Note_on_c, 0, 56, 60
1, 232936, Note_on_c, 0, 70, 63
1, 232941, Note_on_c, 0, 62, 48
1, 232943, Control_c, 0, 64, 51
1, 232948, Note_off_c, 0, 65, 68
1, 232958, Control_c, 0, 64, 68
1, 232964, Note_off_c, 0, 70, 68
1, 232965, Note_off_c, 0, 62, 57
1, 232965, Note_off_c, 0, 56, 66
1, 232972, Control_c, 0, 64, 87
1, 232974, Note_on_c, 0, 74, 60
1, 232987, Control_c, 0, 64, 127
1, 233010, Note_off_c, 0, 74, 65
1, 233026, Note_on_c, 0, 71, 77
1, 233048, Control_c, 0, 64, 99
1, 233062, Control_c, 0, 64, 79
1, 233072, Note_off_c, 0, 71, 55
1, 233077, Control_c, 0, 64, 67
1, 233083, Note_on_c, 0, 74, 73
1, 233092, Control_c, 0, 64, 53
1, 233107, Control_c, 0, 64, 21
1, 233122, Control_c, 0, 64, 0
1, 233128, Note_off_c, 0, 74, 62
1, 233134, Note_on_c, 0, 73, 77
1, 233183, Note_off_c, 0, 73, 63
1, 233183, Note_on_c, 0, 77, 68
1, 233223, Note_off_c, 0, 77, 61
1, 233242, Note_on_c, 0, 68, 79
1, 233245, Note_on_c, 0, 74, 69
1, 233252, Note_on_c, 0, 65, 60
1, 233255, Control_c, 0, 64, 36
1, 233258, Note_on_c, 0, 58, 58
1, 233269, Control_c, 0, 64, 61
1, 233272, Note_off_c, 0, 74, 66
1, 233275, Note_off_c, 0, 68, 64
1, 233281, Note_off_c, 0, 65, 65
1, 233284, Control_c, 0, 64, 73
1, 233290, Note_off_c, 0, 58, 65
1, 233299, Control_c, 0, 64, 98
1, 233302, Note_on_c, 0, 80, 78
1, 233314, Control_c, 0, 64, 127
1, 233337, Note_off_c, 0, 80, 60
1, 233356, Note_on_c, 0, 76, 79
1, 233395, Control_c, 0, 64, 90
1, 233402, Note_off_c, 0, 76, 61
1, 233410, Control_c, 0, 64, 73
1, 233422, Note_on_c, 0, 80, 67
1, 233425, Control_c, 0, 64, 62
1, 233440, Control_c, 0, 64, 45
1, 233453, Note_off_c, 0, 80, 66
1, 233455, Control_c, 0, 64, 0
1, 233473, Note_on_c, 0, 77, 82
1, 233510, Note_off_c, 0, 77, 59
1, 233522, Note_on_c, 0, 83, 71
1, 233553, Note_off_c, 0, 83, 61
1, 233577, Note_on_c, 0, 74, 84
1, 233582, Note_on_c, 0, 79, 75
1, 233588, Control_c, 0, 64, 42
1, 233588, Note_on_c, 0, 65, 60
1, 233599, Note_on_c, 0, 68, 57
1, 233603, Control_c, 0, 64, 60
1, 233606, Note_off_c, 0, 74, 66
1, 233618, Note_off_c, 0, 65, 66
1, 233618, Note_off_c, 0, 79, 57
1, 233618, Control_c, 0, 64, 69
1, 233626, Note_off_c, 0, 68, 62
1, 233633, Control_c, 0, 64, 80
1, 233636, Note_on_c, 0, 83, 65
1, 233648, Control_c, 0, 64, 109
1, 233662, Control_c, 0, 64, 127
1, 233666, Note_off_c, 0, 83, 65
1, 233682, Note_on_c, 0, 80, 76
1, 233707, Note_off_c, 0, 80, 68
1, 233736, Note_on_c, 0, 86, 71
1, 233736, Control_c, 0, 64, 101
1, 233751, Control_c, 0, 64, 88
1, 233766, Control_c, 0, 64, 75
1, 233781, Control_c, 0, 64, 63
1, 233785, Note_off_c, 0, 86, 61
1, 233787, Note_on_c, 0, 82, 78
1, 233795, Control_c, 0, 64, 42
1, 233810, Control_c, 0, 64, 0
1, 233829, Note_off_c, 0, 82, 62
1, 233834, Note_on_c, 0, 86, 59
1, 233868, Note_off_c, 0, 86, 65
1, 233893, Note_on_c, 0, 83, 74
1, 233895, Note_on_c, 0, 77, 74
1, 233900, Control_c, 0, 64, 16
1, 233908, Note_on_c, 0, 74, 54
1, 233915, Control_c, 0, 64, 44
1, 233919, Note_on_c, 0, 68, 42
1, 233930, Control_c, 0, 64, 54
1, 233931, Note_off_c, 0, 77, 61
1, 233931, Note_off_c, 0, 83, 57
1, 233942, Note_off_c, 0, 74, 65
1, 233945, Note_on_c, 0, 86, 76
1, 233945, Control_c, 0, 64, 61
1, 233946, Note_off_c, 0, 68, 57
1, 233959, Control_c, 0, 64, 66
1, 233974, Control_c, 0, 64, 72
1, 233989, Control_c, 0, 64, 85
1, 234000, Note_off_c, 0, 86, 62
1, 234003, Note_on_c, 0, 85, 76
1, 234004, Control_c, 0, 64, 113
1, 234018, Control_c, 0, 64, 127
1, 234050, Note_on_c, 0, 89, 74
1, 234052, Note_off_c, 0, 85, 62
1, 234080, Note_off_c, 0, 89, 64
1, 234109, Note_on_c, 0, 86, 74
1, 234145, Control_c, 0, 64, 112
1, 234146, Note_off_c, 0, 86, 64
1, 234160, Control_c, 0, 64, 104
1, 234172, Note_on_c, 0, 92, 74
1, 234174, Control_c, 0, 64, 99
1, 234189, Control_c, 0, 64, 91
1, 234204, Control_c, 0, 64, 79
1, 234208, Note_off_c, 0, 92, 63
1, 234218, Control_c, 0, 64, 67
1, 234223, Note_on_c, 0, 80, 60
1, 234233, Control_c, 0, 64, 55
1, 234235, Note_on_c, 0, 77, 51
1, 234239, Note_on_c, 0, 88, 66
1, 234247, Note_on_c, 0, 70, 46
1, 234248, Control_c, 0, 64, 30
1, 234263, Control_c, 0, 64, 34
1, 234277, Note_off_c, 0, 88, 62
1, 234278, Control_c, 0, 64, 44
1, 234292, Control_c, 0, 64, 56
1, 234307, Control_c, 0, 64, 63
1, 234308, Note_on_c, 0, 92, 69
1, 234322, Control_c, 0, 64, 69
1, 234327, Note_off_c, 0, 70, 57
1, 234337, Control_c, 0, 64, 81
1, 234339, Note_off_c, 0, 77, 63
1, 234339, Note_off_c, 0, 92, 67
1, 234352, Control_c, 0, 64, 127
1, 234360, Note_off_c, 0, 80, 63
1, 234366, Note_on_c, 0, 89, 70
1, 234399, Note_off_c, 0, 89, 63
1, 234432, Note_on_c, 0, 95, 66
1, 234464, Note_off_c, 0, 95, 64
1, 234497, Note_on_c, 0, 91, 63
1, 234541, Note_off_c, 0, 91, 57
1, 234558, Note_on_c, 0, 95, 58
1, 234697, Note_on_c, 0, 86, 67
1, 234740, Note_on_c, 0, 77, 47
1, 234746, Note_on_c, 0, 80, 40
1, 234751, Note_off_c, 0, 95, 54
1, 234753, Control_c, 0, 64, 109
1, 234768, Control_c, 0, 64, 95
1, 234770, Note_on_c, 0, 94, 39
1, 234782, Control_c, 0, 64, 91
1, 234797, Control_c, 0, 64, 86
1, 234812, Control_c, 0, 64, 79
1, 234827, Control_c, 0, 64, 74
1, 234841, Control_c, 0, 64, 70
1, 234848, Note_off_c, 0, 94, 60
1, 234856, Control_c, 0, 64, 68
1, 234871, Control_c, 0, 64, 67
1, 234888, Note_on_c, 0, 92, 50
1, 234894, Control_c, 0, 64, 64
1, 234909, Control_c, 0, 64, 61
1, 234923, Control_c, 0, 64, 59
1, 234938, Control_c, 0, 64, 60
1, 234947, Note_off_c, 0, 92, 59
1, 234953, Control_c, 0, 64, 60
1, 234963, Note_on_c, 0, 95, 56
1, 234968, Control_c, 0, 64, 62
1, 234983, Control_c, 0, 64, 64
1, 234997, Control_c, 0, 64, 65
1, 235012, Control_c, 0, 64, 68
1, 235021, Note_off_c, 0, 95, 60
1, 235027, Control_c, 0, 64, 72
1, 235028, Note_on_c, 0, 89, 51
1, 235041, Control_c, 0, 64, 84
1, 235056, Control_c, 0, 64, 102
1, 235071, Control_c, 0, 64, 127
1, 235083, Note_on_c, 0, 94, 60
1, 235117, Note_off_c, 0, 89, 35
1, 235131, Note_off_c, 0, 94, 59
1, 235141, Note_on_c, 0, 92, 59
1, 235188, Note_off_c, 0, 92, 60
1, 235201, Note_on_c, 0, 96, 69
1, 235259, Note_off_c, 0, 96, 64
1, 235277, Note_on_c, 0, 89, 63
1, 235320, Note_on_c, 0, 94, 73
1, 235366, Note_on_c, 0, 92, 79
1, 235380, Note_off_c, 0, 94, 63
1, 235403, Note_off_c, 0, 89, 35
1, 235418, Note_on_c, 0, 97, 81
1, 235430, Note_off_c, 0, 92, 65
1, 235484, Note_on_c, 0, 89, 77
1, 235499, Note_off_c, 0, 97, 64
1, 235531, Note_on_c, 0, 94, 91
1, 235561, Note_off_c, 0, 89, 58
1, 235584, Note_on_c, 0, 92, 85
1, 235606, Note_off_c, 0, 94, 62
1, 235637, Note_on_c, 0, 98, 88
1, 235652, Note_off_c, 0, 92, 66
1, 235663, Note_off_c, 0, 86, 57
1, 235673, Note_off_c, 0, 80, 40
1, 235687, Note_on_c, 0, 89, 86
1, 235710, Note_off_c, 0, 98, 67
1, 235739, Note_on_c, 0, 94, 85
1, 235797, Note_on_c, 0, 92, 85
1, 235797, Note_off_c, 0, 89, 56
1, 235833, Note_off_c, 0, 94, 63
1, 235842, Note_on_c, 0, 84, 84
1, 235862, Note_on_c, 0, 99, 77
1, 235864, Control_c, 0, 64, 115
1, 235868, Note_on_c, 0, 75, 57
1, 235874, Note_on_c, 0, 80, 51
1, 235879, Control_c, 0, 64, 91
1, 235880, Note_off_c, 0, 92, 64
1, 235894, Control_c, 0, 64, 78
1, 235907, Note_off_c, 0, 77, 36
1, 235909, Control_c, 0, 64, 69
1, 235924, Control_c, 0, 64, 63
1, 235928, Note_on_c, 0, 89, 72
1, 235938, Control_c, 0, 64, 63
1, 235947, Note_off_c, 0, 99, 64
1, 235953, Control_c, 0, 64, 64
1, 235968, Control_c, 0, 64, 65
1, 235983, Control_c, 0, 64, 68
1, 235997, Note_on_c, 0, 94, 75
1, 235997, Control_c, 0, 64, 73
1, 236012, Control_c, 0, 64, 83
1, 236027, Control_c, 0, 64, 102
1, 236039, Note_off_c, 0, 75, 44
1, 236042, Control_c, 0, 64, 127
1, 236053, Note_on_c, 0, 92, 84
1, 236079, Note_off_c, 0, 89, 31
1, 236080, Note_off_c, 0, 94, 61
1, 236119, Note_on_c, 0, 100, 75
1, 236131, Note_off_c, 0, 92, 65
1, 236151, Note_off_c, 0, 84, 58
1, 236169, Note_off_c, 0, 80, 38
1, 236185, Note_off_c, 0, 100, 64
1, 236186, Note_on_c, 0, 89, 75
1, 236285, Note_off_c, 0, 89, 56
1, 236295, Control_c, 0, 64, 123
1, 236295, Note_on_c, 0, 84, 76
1, 236301, Note_on_c, 0, 101, 55
1, 236310, Control_c, 0, 64, 102
1, 236324, Control_c, 0, 64, 95
1, 236332, Note_on_c, 0, 80, 44
1, 236339, Control_c, 0, 64, 89
1, 236344, Note_on_c, 0, 75, 42
1, 236354, Control_c, 0, 64, 82
1, 236369, Control_c, 0, 64, 73
1, 236391, Control_c, 0, 64, 66
1, 236406, Control_c, 0, 64, 63
1, 236408, Note_on_c, 0, 98, 52
1, 236411, Note_off_c, 0, 101, 61
1, 236450, Control_c, 0, 64, 63
1, 236456, Note_off_c, 0, 98, 65
1, 236465, Control_c, 0, 64, 65
1, 236480, Note_on_c, 0, 97, 58
1, 236480, Control_c, 0, 64, 67
1, 236494, Control_c, 0, 64, 70
1, 236509, Control_c, 0, 64, 76
1, 236524, Control_c, 0, 64, 86
1, 236525, Note_off_c, 0, 84, 63
1, 236532, Note_off_c, 0, 97, 62
1, 236535, Note_on_c, 0, 100, 70
1, 236539, Control_c, 0, 64, 113
1, 236554, Control_c, 0, 64, 127
1, 236596, Note_on_c, 0, 99, 82
1, 236610, Note_off_c, 0, 100, 61
1, 236657, Note_off_c, 0, 99, 65
1, 236662, Note_on_c, 0, 96, 73
1, 236709, Note_on_c, 0, 82, 49
1, 236713, Note_off_c, 0, 96, 61
1, 236717, Control_c, 0, 64, 116
1, 236727, Note_on_c, 0, 74, 44
1, 236732, Note_on_c, 0, 95, 70
1, 236732, Control_c, 0, 64, 84
1, 236747, Control_c, 0, 64, 67
1, 236761, Control_c, 0, 64, 52
1, 236767, Note_off_c, 0, 95, 65
1, 236772, Note_off_c, 0, 75, 38
1, 236776, Control_c, 0, 64, 36
1, 236791, Control_c, 0, 64, 44
1, 236793, Note_on_c, 0, 98, 66
1, 236805, Control_c, 0, 64, 54
1, 236820, Control_c, 0, 64, 60
1, 236835, Control_c, 0, 64, 64
1, 236850, Control_c, 0, 64, 69
1, 236860, Note_on_c, 0, 97, 65
1, 236862, Note_off_c, 0, 98, 61
1, 236865, Control_c, 0, 64, 78
1, 236880, Control_c, 0, 64, 101
1, 236894, Control_c, 0, 64, 127
1, 236912, Note_on_c, 0, 94, 65
1, 236914, Note_off_c, 0, 97, 60
1, 236935, Note_off_c, 0, 82, 51
1, 236961, Note_off_c, 0, 94, 61
1, 236971, Note_off_c, 0, 74, 45
1, 236978, Note_off_c, 0, 80, 37
1, 236980, Note_on_c, 0, 93, 61
1, 237022, Note_off_c, 0, 93, 56
1, 237043, Note_on_c, 0, 96, 54
1, 237104, Note_off_c, 0, 96, 59
1, 237105, Note_on_c, 0, 95, 65
1, 237159, Note_off_c, 0, 95, 57
1, 237186, Note_on_c, 0, 92, 50
1, 237225, Note_off_c, 0, 92, 66
1, 237251, Note_on_c, 0, 91, 56
1, 237285, Note_off_c, 0, 91, 59
1, 237326, Note_on_c, 0, 94, 55
1, 237380, Note_off_c, 0, 94, 59
1, 237397, Note_on_c, 0, 92, 64
1, 237429, Note_off_c, 0, 92, 67
1, 237466, Note_on_c, 0, 89, 56
1, 237488, Note_off_c, 0, 89, 59
1, 237556, Note_on_c, 0, 86, 44
1, 237569, Control_c, 0, 64, 113
1, 237583, Note_off_c, 0, 86, 55
1, 237583, Control_c, 0, 64, 108
1, 237598, Control_c, 0, 64, 102
1, 237613, Control_c, 0, 64, 95
1, 237627, Control_c, 0, 64, 90
1, 237639, Note_on_c, 0, 82, 44
1, 237642, Control_c, 0, 64, 86
1, 237657, Control_c, 0, 64, 84
1, 237672, Control_c, 0, 64, 80
1, 237678, Note_off_c, 0, 82, 55
1, 237687, Control_c, 0, 64, 77
1, 237702, Control_c, 0, 64, 72
1, 237717, Control_c, 0, 64, 68
1, 237717, Note_on_c, 0, 81, 48
1, 237731, Control_c, 0, 64, 66
1, 237742, Note_off_c, 0, 81, 59
1, 237746, Control_c, 0, 64, 64
1, 237761, Control_c, 0, 64, 62
1, 237776, Control_c, 0, 64, 61
1, 237788, Note_on_c, 0, 82, 54
1, 237791, Control_c, 0, 64, 59
1, 237791, Control_c, 0, 67, 20
1, 237806, Control_c, 0, 64, 57
1, 237806, Control_c, 0, 67, 32
1, 237821, Control_c, 0, 64, 53
1, 237821, Control_c, 0, 67, 44
1, 237836, Control_c, 0, 64, 46
1, 237836, Control_c, 0, 67, 57
1, 237845, Note_off_c, 0, 82, 61
1, 237851, Control_c, 0, 64, 38
1, 237851, Control_c, 0, 67, 72
1, 237866, Control_c, 0, 64, 22
1, 237866, Control_c, 0, 67, 87
1, 237885, Note_on_c, 0, 80, 55
1, 237888, Control_c, 0, 64, 0
1, 237888, Control_c, 0, 67, 99
1, 237903, Control_c, 0, 67, 110
1, 237918, Control_c, 0, 67, 124
1, 237926, Note_off_c, 0, 80, 64
1, 237933, Control_c, 0, 67, 127
1, 237982, Note_on_c, 0, 82, 48
1, 238051, Note_on_c, 0, 51, 37
1, 238051, Note_off_c, 0, 82, 54
1, 238095, Control_c, 0, 64, 33
1, 238106, Note_on_c, 0, 78, 42
1, 238106, Note_off_c, 0, 51, 58
1, 238110, Control_c, 0, 64, 53
1, 238126, Control_c, 0, 64, 60
1, 238140, Control_c, 0, 64, 62
1, 238155, Control_c, 0, 64, 63
1, 238158, Note_off_c, 0, 78, 63
1, 238170, Control_c, 0, 64, 65
1, 238185, Control_c, 0, 64, 67
1, 238200, Control_c, 0, 64, 70
1, 238205, Note_on_c, 0, 79, 47
1, 238214, Control_c, 0, 64, 73
1, 238229, Control_c, 0, 64, 73
1, 238252, Note_off_c, 0, 79, 55
1, 238299, Note_on_c, 0, 72, 56
1, 238304, Note_on_c, 0, 91, 54
1, 238304, Control_c, 0, 64, 73
1, 238307, Note_on_c, 0, 67, 43
1, 238319, Control_c, 0, 64, 72
1, 238330, Note_on_c, 0, 63, 34
1, 238333, Control_c, 0, 64, 72
1, 238348, Control_c, 0, 64, 70
1, 238353, Note_off_c, 0, 91, 63
1, 238363, Control_c, 0, 64, 68
1, 238375, Note_on_c, 0, 86, 54
1, 238377, Control_c, 0, 64, 66
1, 238392, Control_c, 0, 64, 61
1, 238407, Control_c, 0, 64, 51
1, 238408, Note_off_c, 0, 86, 65
1, 238422, Control_c, 0, 64, 0
1, 238425, Note_off_c, 0, 72, 63
1, 238439, Note_off_c, 0, 67, 57
1, 238444, Note_on_c, 0, 70, 60
1, 238448, Note_on_c, 0, 87, 61
1, 238451, Note_off_c, 0, 63, 36
1, 238465, Note_off_c, 0, 70, 65
1, 238479, Note_off_c, 0, 87, 66
1, 238507, Note_on_c, 0, 83, 58
1, 238529, Note_off_c, 0, 83, 65
1, 238569, Note_on_c, 0, 46, 62
1, 238570, Control_c, 0, 64, 9
1, 238571, Note_on_c, 0, 84, 68
1, 238584, Control_c, 0, 64, 47
1, 238598, Note_off_c, 0, 84, 68
1, 238599, Control_c, 0, 64, 61
1, 238602, Note_off_c, 0, 46, 64
1, 238614, Control_c, 0, 64, 65
1, 238638, Control_c, 0, 64, 68
1, 238645, Note_on_c, 0, 79, 63
1, 238653, Control_c, 0, 64, 71
1, 238667, Control_c, 0, 64, 76
1, 238679, Note_off_c, 0, 79, 62
1, 238682, Control_c, 0, 64, 81
1, 238697, Control_c, 0, 64, 82
1, 238709, Note_on_c, 0, 82, 68
1, 238712, Control_c, 0, 64, 81
1, 238722, Note_on_c, 0, 68, 57
1, 238724, Note_on_c, 0, 62, 54
1, 238727, Control_c, 0, 64, 80
1, 238736, Note_on_c, 0, 57, 52
1, 238742, Control_c, 0, 64, 78
1, 238756, Control_c, 0, 64, 75
1, 238759, Note_off_c, 0, 82, 47
1, 238771, Control_c, 0, 64, 69
1, 238772, Note_on_c, 0, 80, 67
1, 238786, Control_c, 0, 64, 62
1, 238801, Control_c, 0, 64, 52
1, 238813, Note_off_c, 0, 80, 58
1, 238816, Control_c, 0, 64, 33
1, 238828, Note_off_c, 0, 57, 61
1, 238831, Control_c, 0, 64, 0
1, 238840, Note_off_c, 0, 62, 62
1, 238840, Note_on_c, 0, 58, 62
1, 238840, Note_off_c, 0, 68, 61
1, 238843, Note_on_c, 0, 79, 58
1, 238861, Note_off_c, 0, 79, 65
1, 238870, Note_off_c, 0, 58, 65
1, 238895, Note_on_c, 0, 77, 64
1, 238925, Note_off_c, 0, 77, 64
1, 238954, Note_on_c, 0, 51, 65
1, 238958, Note_on_c, 0, 78, 59
1, 238964, Control_c, 0, 64, 34
1, 238979, Control_c, 0, 64, 53
1, 238983, Note_off_c, 0, 78, 64
1, 238988, Note_off_c, 0, 51, 65
1, 238994, Control_c, 0, 64, 61
1, 239008, Control_c, 0, 64, 64
1, 239016, Note_on_c, 0, 79, 63
1, 239023, Control_c, 0, 64, 67
1, 239038, Control_c, 0, 64, 72
1, 239051, Note_off_c, 0, 79, 62
1, 239053, Control_c, 0, 64, 81
1, 239068, Control_c, 0, 64, 89
1, 239082, Control_c, 0, 64, 98
1, 239092, Note_on_c, 0, 72, 79
1, 239093, Note_on_c, 0, 91, 76
1, 239097, Control_c, 0, 64, 102
1, 239115, Note_on_c, 0, 67, 53
1, 239122, Note_on_c, 0, 63, 53
1, 239127, Control_c, 0, 64, 99
1, 239142, Control_c, 0, 64, 95
1, 239150, Note_off_c, 0, 91, 64
1, 239153, Note_on_c, 0, 86, 73
1, 239156, Control_c, 0, 64, 90
1, 239171, Control_c, 0, 64, 84
1, 239186, Control_c, 0, 64, 76
1, 239195, Note_off_c, 0, 67, 0
1, 239198, Note_off_c, 0, 72, 62
1, 239201, Control_c, 0, 64, 67
1, 239210, Note_off_c, 0, 86, 64
1, 239210, Note_on_c, 0, 70, 74
1, 239213, Note_on_c, 0, 87, 77
1, 239215, Poly_aftertouch_c, 0, 67, 0
1, 239216, Control_c, 0, 64, 55
1, 239224, Note_off_c, 0, 63, 57
1, 239231, Control_c, 0, 64, 0
1, 239232, Note_off_c, 0, 70, 69
1, 239246, Note_off_c, 0, 87, 65
1, 239268, Note_on_c, 0, 83, 68
1, 239290, Control_c, 0, 64, 9
1, 239295, Note_off_c, 0, 83, 68
1, 239305, Control_c, 0, 64, 36
1, 239320, Control_c, 0, 64, 50
1, 239335, Note_on_c, 0, 84, 73
1, 239335, Control_c, 0, 64, 59
1, 239339, Note_on_c, 0, 46, 60
1, 239349, Control_c, 0, 64, 64
1, 239361, Note_off_c, 0, 84, 67
1, 239362, Note_off_c, 0, 46, 62
1, 239364, Control_c, 0, 64, 69
1, 239386, Control_c, 0, 64, 77
1, 239401, Control_c, 0, 64, 88
1, 239404, Note_on_c, 0, 79, 67
1, 239416, Control_c, 0, 64, 101
1, 239432, Control_c, 0, 64, 110
1, 239447, Control_c, 0, 64, 116
1, 239452, Note_off_c, 0, 79, 53
1, 239457, Note_on_c, 0, 82, 77
1, 239461, Control_c, 0, 64, 121
1, 239475, Note_on_c, 0, 68, 69
1, 239481, Note_on_c, 0, 62, 60
1, 239491, Control_c, 0, 64, 116
1, 239492, Note_on_c, 0, 57, 56
1, 239505, Control_c, 0, 64, 113
1, 239519, Note_on_c, 0, 80, 73
1, 239520, Control_c, 0, 64, 108
1, 239530, Note_off_c, 0, 82, 58
1, 239535, Control_c, 0, 64, 104
1, 239550, Control_c, 0, 64, 98
1, 239565, Control_c, 0, 64, 91
1, 239580, Control_c, 0, 64, 85
1, 239582, Note_on_c, 0, 79, 73
1, 239583, Note_off_c, 0, 80, 64
1, 239585, Note_off_c, 0, 62, 62
1, 239586, Note_on_c, 0, 58, 70
1, 239589, Note_off_c, 0, 57, 59
1, 239591, Note_off_c, 0, 68, 56
1, 239595, Control_c, 0, 64, 80
1, 239609, Control_c, 0, 64, 73
1, 239617, Note_off_c, 0, 58, 67
1, 239621, Note_off_c, 0, 79, 65
1, 239624, Control_c, 0, 64, 67
1, 239639, Control_c, 0, 64, 59
1, 239653, Note_on_c, 0, 77, 66
1, 239654, Control_c, 0, 64, 41
1, 239669, Control_c, 0, 64, 0
1, 239699, Control_c, 0, 64, 28
1, 239702, Note_off_c, 0, 77, 53
1, 239713, Control_c, 0, 64, 46
1, 239720, Note_on_c, 0, 78, 60
1, 239721, Note_on_c, 0, 51, 55
1, 239728, Control_c, 0, 64, 56
1, 239743, Control_c, 0, 64, 63
1, 239758, Control_c, 0, 64, 69
1, 239758, Note_off_c, 0, 78, 65
1, 239773, Control_c, 0, 64, 78
1, 239773, Note_off_c, 0, 51, 63
1, 239787, Control_c, 0, 64, 95
1, 239791, Note_on_c, 0, 79, 61
1, 239802, Control_c, 0, 64, 115
1, 239817, Control_c, 0, 64, 127
1, 239848, Note_off_c, 0, 79, 55
1, 239868, Note_on_c, 0, 91, 71
1, 239875, Note_on_c, 0, 68, 60
1, 239898, Note_on_c, 0, 63, 45
1, 239909, Note_on_c, 0, 58, 43
1, 239934, Note_on_c, 0, 86, 71
1, 239939, Note_off_c, 0, 91, 63
1, 239970, Note_off_c, 0, 68, 56
1, 239996, Note_off_c, 0, 86, 63
1, 239998, Note_on_c, 0, 87, 80
1, 240004, Note_on_c, 0, 67, 58
1, 240020, Note_off_c, 0, 58, 59
1, 240026, Note_off_c, 0, 67, 63
1, 240030, Note_off_c, 0, 63, 56
1, 240044, Note_off_c, 0, 87, 62
1, 240054, Note_on_c, 0, 83, 72
1, 240083, Note_off_c, 0, 83, 65
1, 240083, Control_c, 0, 64, 94
1, 240098, Control_c, 0, 64, 71
1, 240113, Control_c, 0, 64, 55
1, 240121, Note_on_c, 0, 44, 67
1, 240121, Note_on_c, 0, 84, 77
1, 240135, Control_c, 0, 64, 43
1, 240150, Control_c, 0, 64, 58
1, 240163, Note_off_c, 0, 44, 64
1, 240164, Note_off_c, 0, 84, 59
1, 240165, Control_c, 0, 64, 68
1, 240179, Control_c, 0, 64, 82
1, 240186, Note_on_c, 0, 79, 78
1, 240194, Control_c, 0, 64, 127
1, 240247, Note_off_c, 0, 79, 62
1, 240249, Note_on_c, 0, 82, 85
1, 240256, Note_on_c, 0, 67, 73
1, 240306, Note_on_c, 0, 56, 23
1, 240312, Note_on_c, 0, 80, 81
1, 240325, Note_on_c, 0, 60, 7
1, 240347, Note_on_c, 0, 59, 6
1, 240347, Note_off_c, 0, 82, 63
1, 240371, Note_off_c, 0, 67, 60
1, 240373, Note_on_c, 0, 65, 58
1, 240375, Note_on_c, 0, 79, 86
1, 240395, Note_off_c, 0, 80, 63
1, 240402, Note_off_c, 0, 65, 65
1, 240407, Note_off_c, 0, 59, 49
1, 240414, Note_off_c, 0, 60, 58
1, 240440, Note_off_c, 0, 79, 65
1, 240446, Note_on_c, 0, 77, 87
1, 240447, Note_off_c, 0, 56, 41
1, 240536, Control_c, 0, 64, 93
1, 240539, Note_on_c, 0, 46, 51
1, 240551, Control_c, 0, 64, 67
1, 240562, Note_on_c, 0, 75, 82
1, 240566, Control_c, 0, 64, 38
1, 240581, Control_c, 0, 64, 0
1, 240581, Note_off_c, 0, 77, 61
1, 240596, Control_c, 0, 64, 41
1, 240610, Control_c, 0, 64, 56
1, 240625, Control_c, 0, 64, 65
1, 240631, Note_off_c, 0, 46, 63
1, 240640, Control_c, 0, 64, 74
1, 240654, Control_c, 0, 64, 99
1, 240665, Note_on_c, 0, 80, 64
1, 240669, Control_c, 0, 64, 127
1, 240703, Note_off_c, 0, 75, 58
1, 240730, Note_on_c, 0, 77, 69
1, 240751, Note_on_c, 0, 63, 59
1, 240756, Note_off_c, 0, 80, 59
1, 240763, Note_on_c, 0, 53, 49
1, 240787, Note_on_c, 0, 74, 83
1, 240792, Note_on_c, 0, 56, 47
1, 240805, Note_off_c, 0, 77, 59
1, 240820, Note_off_c, 0, 63, 59
1, 240864, Note_off_c, 0, 53, 60
1, 240880, Note_on_c, 0, 80, 74
1, 240887, Note_on_c, 0, 62, 57
1, 240905, Note_off_c, 0, 74, 61
1, 240912, Note_off_c, 0, 56, 63
1, 240918, Note_off_c, 0, 62, 65
1, 240946, Note_on_c, 0, 77, 66
1, 240963, Note_off_c, 0, 80, 54
1, 240988, Control_c, 0, 64, 86
1, 241003, Control_c, 0, 64, 62
1, 241017, Note_off_c, 0, 77, 60
1, 241017, Control_c, 0, 64, 25
1, 241019, Note_on_c, 0, 72, 69
1, 241033, Control_c, 0, 64, 34
1, 241048, Control_c, 0, 64, 54
1, 241055, Note_on_c, 0, 46, 12
1, 241063, Control_c, 0, 64, 63
1, 241077, Control_c, 0, 64, 71
1, 241092, Control_c, 0, 64, 92
1, 241098, Note_off_c, 0, 72, 63
1, 241103, Note_off_c, 0, 46, 37
1, 241105, Note_on_c, 0, 80, 61
1, 241107, Control_c, 0, 64, 127
1, 241183, Note_on_c, 0, 60, 54
1, 241193, Note_off_c, 0, 80, 58
1, 241199, Note_on_c, 0, 77, 59
1, 241219, Note_on_c, 0, 53, 27
1, 241247, Note_off_c, 0, 77, 58
1, 241264, Note_on_c, 0, 70, 57
1, 241335, Note_on_c, 0, 80, 45
1, 241336, Note_off_c, 0, 70, 61
1, 241347, Note_on_c, 0, 58, 50
1, 241351, Note_off_c, 0, 60, 57
1, 241351, Note_off_c, 0, 53, 40
1, 241375, Note_off_c, 0, 80, 62
1, 241395, Note_on_c, 0, 77, 55
1, 241448, Control_c, 0, 64, 100
1, 241463, Control_c, 0, 64, 78
1, 241477, Control_c, 0, 64, 65
1, 241492, Control_c, 0, 64, 53
1, 241499, Note_on_c, 0, 51, 45
1, 241500, Note_off_c, 0, 77, 58
1, 241507, Control_c, 0, 64, 50
1, 241511, Note_on_c, 0, 78, 58
1, 241518, Note_off_c, 0, 58, 50
1, 241522, Control_c, 0, 64, 56
1, 241537, Control_c, 0, 64, 60
1, 241547, Note_off_c, 0, 51, 63
1, 241547, Note_off_c, 0, 78, 65
1, 241551, Control_c, 0, 64, 64
1, 241566, Control_c, 0, 64, 72
1, 241581, Control_c, 0, 64, 85
1, 241584, Note_on_c, 0, 79, 67
1, 241596, Control_c, 0, 64, 127
1, 241614, Note_off_c, 0, 79, 64
1, 241668, Note_on_c, 0, 72, 70
1, 241680, Note_on_c, 0, 91, 65
1, 241697, Note_on_c, 0, 67, 46
1, 241699, Note_on_c, 0, 63, 39
1, 241707, Control_c, 0, 64, 107
1, 241722, Control_c, 0, 64, 89
1, 241726, Note_off_c, 0, 91, 63
1, 241735, Note_on_c, 0, 86, 66
1, 241737, Control_c, 0, 64, 76
1, 241752, Control_c, 0, 64, 63
1, 241766, Control_c, 0, 64, 34
1, 241776, Note_off_c, 0, 72, 60
1, 241781, Control_c, 0, 64, 0
1, 241783, Note_off_c, 0, 86, 59
1, 241788, Note_off_c, 0, 67, 54
1, 241797, Note_on_c, 0, 70, 64
1, 241800, Note_on_c, 0, 87, 70
1, 241821, Note_off_c, 0, 70, 65
1, 241830, Note_off_c, 0, 87, 66
1, 241839, Note_off_c, 0, 63, 22
1, 241859, Note_on_c, 0, 83, 63
1, 241885, Note_off_c, 0, 83, 67
1, 241886, Control_c, 0, 64, 23
1, 241900, Control_c, 0, 64, 47
1, 241915, Control_c, 0, 64, 62
1, 241922, Note_on_c, 0, 46, 53
1, 241922, Note_on_c, 0, 84, 70
1, 241930, Control_c, 0, 64, 70
1, 241945, Control_c, 0, 64, 78
1, 241947, Note_off_c, 0, 84, 69
1, 241948, Note_off_c, 0, 46, 57
1, 241960, Control_c, 0, 64, 90
1, 241974, Control_c, 0, 64, 100
1, 241989, Control_c, 0, 64, 104
1, 241994, Note_on_c, 0, 79, 59
1, 242019, Control_c, 0, 64, 101
1, 242020, Note_off_c, 0, 79, 59
1, 242034, Control_c, 0, 64, 99
1, 242048, Control_c, 0, 64, 97
1, 242050, Note_on_c, 0, 82, 71
1, 242058, Note_on_c, 0, 68, 62
1, 242062, Note_on_c, 0, 57, 57
1, 242063, Control_c, 0, 64, 95
1, 242066, Note_on_c, 0, 62, 51
1, 242078, Control_c, 0, 64, 94
1, 242093, Control_c, 0, 64, 92
1, 242107, Control_c, 0, 64, 86
1, 242113, Note_on_c, 0, 80, 75
1, 242113, Note_off_c, 0, 82, 57
1, 242122, Control_c, 0, 64, 77
1, 242137, Control_c, 0, 64, 68
1, 242152, Control_c, 0, 64, 58
1, 242167, Control_c, 0, 64, 29
1, 242168, Note_off_c, 0, 57, 62
1, 242168, Note_off_c, 0, 68, 53
1, 242172, Note_off_c, 0, 62, 63
1, 242173, Note_on_c, 0, 58, 66
1, 242173, Note_off_c, 0, 80, 64
1, 242182, Control_c, 0, 64, 0
1, 242185, Note_on_c, 0, 79, 66
1, 242203, Note_off_c, 0, 58, 64
1, 242209, Note_off_c, 0, 79, 68
1, 242237, Note_on_c, 0, 77, 66
1, 242256, Control_c, 0, 64, 11
1, 242271, Control_c, 0, 64, 30
1, 242274, Note_off_c, 0, 77, 59
1, 242286, Control_c, 0, 64, 40
1, 242292, Note_on_c, 0, 51, 62
1, 242298, Note_on_c, 0, 78, 67
1, 242300, Control_c, 0, 64, 53
1, 242315, Control_c, 0, 64, 61
1, 242321, Note_off_c, 0, 51, 66
1, 242328, Note_off_c, 0, 78, 66
1, 242330, Control_c, 0, 64, 65
1, 242345, Control_c, 0, 64, 69
1, 242360, Control_c, 0, 64, 75
1, 242364, Note_on_c, 0, 79, 66
1, 242382, Control_c, 0, 64, 84
1, 242397, Control_c, 0, 64, 100
1, 242411, Note_off_c, 0, 79, 57
1, 242411, Control_c, 0, 64, 127
1, 242435, Note_on_c, 0, 72, 79
1, 242445, Note_on_c, 0, 91, 78
1, 242459, Note_on_c, 0, 67, 56
1, 242461, Note_on_c, 0, 63, 54
1, 242503, Note_on_c, 0, 86, 79
1, 242505, Note_off_c, 0, 91, 64
1, 242537, Note_off_c, 0, 72, 61
1, 242556, Note_on_c, 0, 70, 72
1, 242560, Note_off_c, 0, 67, 57
1, 242560, Control_c, 0, 64, 111
1, 242572, Note_off_c, 0, 86, 63
1, 242573, Note_on_c, 0, 87, 82
1, 242575, Control_c, 0, 64, 84
1, 242577, Note_off_c, 0, 63, 57
1, 242579, Note_off_c, 0, 70, 67
1, 242589, Control_c, 0, 64, 64
1, 242604, Control_c, 0, 64, 20
1, 242612, Note_off_c, 0, 87, 62
1, 242618, Control_c, 0, 64, 0
1, 242620, Note_on_c, 0, 83, 73
1, 242650, Note_off_c, 0, 83, 64
1, 242664, Control_c, 0, 64, 37
1, 242675, Note_on_c, 0, 46, 68
1, 242678, Control_c, 0, 64, 57
1, 242686, Note_on_c, 0, 84, 80
1, 242693, Control_c, 0, 64, 66
1, 242707, Note_off_c, 0, 46, 65
1, 242708, Control_c, 0, 64, 77
1, 242719, Note_off_c, 0, 84, 61
1, 242723, Control_c, 0, 64, 107
1, 242737, Control_c, 0, 64, 127
1, 242757, Note_on_c, 0, 79, 63
1, 242794, Note_off_c, 0, 79, 62
1, 242802, Note_on_c, 0, 82, 85
1, 242811, Note_on_c, 0, 68, 75
1, 242818, Note_on_c, 0, 62, 64
1, 242819, Note_on_c, 0, 58, 49
1, 242840, Note_on_c, 0, 57, 62
1, 242862, Note_off_c, 0, 58, 46
1, 242865, Note_on_c, 0, 80, 86
1, 242897, Note_off_c, 0, 82, 63
1, 242915, Note_off_c, 0, 68, 55
1, 242919, Note_off_c, 0, 62, 62
1, 242922, Note_on_c, 0, 58, 74
1, 242928, Note_off_c, 0, 57, 63
1, 242933, Note_on_c, 0, 79, 83
1, 242943, Note_off_c, 0, 80, 63
1, 242955, Note_off_c, 0, 58, 63
1, 242985, Note_off_c, 0, 79, 66
1, 242990, Control_c, 0, 64, 98
1, 242995, Note_on_c, 0, 77, 83
1, 243004, Control_c, 0, 64, 74
1, 243019, Control_c, 0, 64, 58
1, 243034, Control_c, 0, 64, 0
1, 243061, Note_on_c, 0, 51, 74
1, 243063, Control_c, 0, 64, 15
1, 243078, Control_c, 0, 64, 43
1, 243085, Note_off_c, 0, 77, 61
1, 243092, Note_on_c, 0, 79, 67
1, 243093, Control_c, 0, 64, 60
1, 243108, Control_c, 0, 64, 72
1, 243127, Note_off_c, 0, 51, 63
1, 243130, Note_off_c, 0, 79, 65
1, 243130, Control_c, 0, 64, 95
1, 243145, Control_c, 0, 64, 127
1, 243167, Note_on_c, 0, 79, 63
1, 243246, Note_off_c, 0, 79, 50
1, 243260, Note_on_c, 0, 91, 74
1, 243267, Note_on_c, 0, 77, 87
1, 243287, Note_on_c, 0, 67, 61
1, 243303, Note_on_c, 0, 70, 46
1, 243336, Note_on_c, 0, 86, 76
1, 243345, Note_off_c, 0, 91, 63
1, 243398, Note_off_c, 0, 77, 61
1, 243398, Note_on_c, 0, 75, 84
1, 243407, Note_on_c, 0, 87, 83
1, 243412, Note_off_c, 0, 86, 62
1, 243422, Note_off_c, 0, 75, 70
1, 243422, Note_off_c, 0, 67, 62
1, 243433, Note_off_c, 0, 70, 64
1, 243461, Note_off_c, 0, 87, 64
1, 243469, Note_on_c, 0, 83, 72
1, 243494, Note_off_c, 0, 83, 68
1, 243501, Control_c, 0, 64, 87
1, 243516, Control_c, 0, 64, 60
1, 243531, Control_c, 0, 64, 0
1, 243539, Note_on_c, 0, 84, 74
1, 243545, Note_on_c, 0, 42, 62
1, 243546, Control_c, 0, 64, 29
1, 243560, Control_c, 0, 64, 53
1, 243568, Note_off_c, 0, 84, 63
1, 243571, Note_off_c, 0, 42, 60
1, 243575, Control_c, 0, 64, 63
1, 243590, Control_c, 0, 64, 73
1, 243602, Note_on_c, 0, 79, 71
1, 243605, Control_c, 0, 64, 104
1, 243620, Control_c, 0, 64, 127
1, 243650, Note_off_c, 0, 79, 55
1, 243668, Note_on_c, 0, 82, 76
1, 243677, Note_on_c, 0, 67, 69
1, 243711, Note_on_c, 0, 60, 42
1, 243714, Note_on_c, 0, 56, 56
1, 243733, Note_on_c, 0, 80, 76
1, 243757, Note_off_c, 0, 82, 58
1, 243789, Note_off_c, 0, 67, 61
1, 243795, Note_on_c, 0, 65, 68
1, 243800, Note_on_c, 0, 79, 78
1, 243813, Note_off_c, 0, 80, 63
1, 243820, Note_off_c, 0, 65, 66
1, 243824, Note_off_c, 0, 60, 63
1, 243849, Note_off_c, 0, 56, 53
1, 243857, Note_off_c, 0, 79, 65
1, 243885, Note_on_c, 0, 77, 70
1, 243953, Control_c, 0, 64, 100
1, 243967, Control_c, 0, 64, 84
1, 243975, Note_off_c, 0, 77, 53
1, 243976, Note_on_c, 0, 46, 52
1, 243982, Control_c, 0, 64, 71
1, 243983, Note_on_c, 0, 76, 66
1, 243997, Control_c, 0, 64, 63
1, 244012, Control_c, 0, 64, 58
1, 244027, Control_c, 0, 64, 59
1, 244042, Control_c, 0, 64, 62
1, 244050, Note_off_c, 0, 76, 61
1, 244054, Note_on_c, 0, 75, 73
1, 244057, Control_c, 0, 64, 63
1, 244071, Control_c, 0, 64, 65
1, 244085, Note_off_c, 0, 46, 62
1, 244086, Control_c, 0, 64, 70
1, 244101, Control_c, 0, 64, 80
1, 244110, Note_off_c, 0, 75, 62
1, 244115, Control_c, 0, 64, 101
1, 244123, Note_on_c, 0, 74, 70
1, 244130, Control_c, 0, 64, 127
1, 244174, Note_off_c, 0, 74, 60
1, 244179, Note_on_c, 0, 73, 70
1, 244236, Note_on_c, 0, 62, 62
1, 244236, Note_off_c, 0, 73, 62
1, 244242, Note_on_c, 0, 53, 55
1, 244244, Note_on_c, 0, 56, 55
1, 244249, Control_c, 0, 64, 106
1, 244251, Note_on_c, 0, 72, 74
1, 244264, Control_c, 0, 64, 92
1, 244268, Note_off_c, 0, 62, 65
1, 244279, Note_off_c, 0, 56, 64
1, 244279, Control_c, 0, 64, 81
1, 244280, Note_off_c, 0, 53, 63
1, 244294, Control_c, 0, 64, 70
1, 244307, Note_off_c, 0, 72, 40
1, 244308, Control_c, 0, 64, 61
1, 244312, Note_on_c, 0, 71, 79
1, 244323, Control_c, 0, 64, 43
1, 244338, Control_c, 0, 64, 0
1, 244372, Note_off_c, 0, 71, 62
1, 244382, Note_on_c, 0, 62, 65
1, 244383, Note_on_c, 0, 56, 59
1, 244383, Note_on_c, 0, 70, 71
1, 244385, Note_on_c, 0, 53, 60
1, 244412, Note_off_c, 0, 62, 65
1, 244421, Note_off_c, 0, 56, 65
1, 244421, Note_off_c, 0, 70, 64
1, 244423, Note_off_c, 0, 53, 63
1, 244441, Note_on_c, 0, 69, 66
1, 244492, Note_off_c, 0, 69, 57
1, 244509, Note_on_c, 0, 72, 67
1, 244519, Note_on_c, 0, 62, 61
1, 244527, Note_on_c, 0, 53, 54
1, 244531, Note_on_c, 0, 56, 51
1, 244548, Note_off_c, 0, 62, 66
1, 244559, Note_off_c, 0, 72, 58
1, 244560, Note_off_c, 0, 56, 58
1, 244564, Note_off_c, 0, 53, 64
1, 244575, Note_on_c, 0, 70, 60
1, 244640, Note_off_c, 0, 70, 57
1, 244663, Note_on_c, 0, 69, 60
1, 244668, Note_on_c, 0, 56, 54
1, 244668, Note_on_c, 0, 62, 57
1, 244681, Note_on_c, 0, 53, 43
1, 244707, Note_off_c, 0, 62, 66
1, 244713, Note_off_c, 0, 69, 59
1, 244714, Note_off_c, 0, 53, 61
1, 244726, Note_off_c, 0, 56, 60
1, 244739, Note_on_c, 0, 68, 56
1, 244831, Note_off_c, 0, 68, 61
1, 244834, Control_c, 0, 64, 17
1, 244849, Control_c, 0, 64, 40
1, 244851, Note_on_c, 0, 61, 50
1, 244862, Note_on_c, 0, 58, 44
1, 244862, Note_on_c, 0, 67, 50
1, 244864, Control_c, 0, 64, 55
1, 244877, Note_on_c, 0, 51, 37
1, 244879, Control_c, 0, 64, 62
1, 244893, Control_c, 0, 64, 66
1, 244907, Note_off_c, 0, 67, 61
1, 244908, Control_c, 0, 64, 70
1, 244923, Note_off_c, 0, 58, 60
1, 244923, Control_c, 0, 64, 80
1, 244924, Note_off_c, 0, 61, 61
1, 244937, Note_off_c, 0, 51, 62
1, 244938, Control_c, 0, 64, 95
1, 244939, Note_on_c, 0, 68, 49
1, 244953, Control_c, 0, 64, 127
1, 244981, Note_off_c, 0, 68, 61
1, 245012, Note_on_c, 0, 69, 60
1, 245048, Note_off_c, 0, 69, 62
1, 245072, Note_on_c, 0, 51, 56
1, 245078, Note_on_c, 0, 70, 57
1, 245079, Note_on_c, 0, 39, 47
1, 245097, Note_off_c, 0, 51, 59
1, 245112, Note_off_c, 0, 70, 67
1, 245133, Note_off_c, 0, 39, 0
1, 245133, Note_on_c, 0, 39, 50
1, 245142, Note_on_c, 0, 72, 63
1, 245149, Note_on_c, 0, 51, 66
1, 245164, Note_off_c, 0, 39, 63
1, 245169, Note_off_c, 0, 51, 64
1, 245201, Note_off_c, 0, 72, 52
1, 245209, Note_on_c, 0, 70, 57
1, 245220, Control_c, 0, 64, 99
1, 245235, Control_c, 0, 64, 77
1, 245249, Note_off_c, 0, 70, 64
1, 245249, Control_c, 0, 64, 63
1, 245264, Control_c, 0, 64, 43
1, 245279, Control_c, 0, 64, 44
1, 245280, Note_on_c, 0, 68, 63
1, 245287, Note_on_c, 0, 60, 64
1, 245294, Control_c, 0, 64, 53
1, 245295, Note_on_c, 0, 56, 58
1, 245309, Control_c, 0, 64, 57
1, 245315, Note_off_c, 0, 60, 64
1, 245324, Control_c, 0, 64, 63
1, 245327, Note_off_c, 0, 56, 65
1, 245327, Note_off_c, 0, 68, 55
1, 245339, Control_c, 0, 64, 70
1, 245354, Control_c, 0, 64, 85
1, 245354, Control_c, 0, 67, 125
1, 245363, Note_on_c, 0, 70, 59
1, 245376, Control_c, 0, 64, 127
1, 245376, Control_c, 0, 67, 113
1, 245391, Control_c, 0, 67, 97
1, 245402, Note_off_c, 0, 70, 67
1, 245405, Control_c, 0, 67, 80
1, 245420, Control_c, 0, 64, 102
1, 245420, Control_c, 0, 67, 61
1, 245424, Note_on_c, 0, 71, 69
1, 245433, Note_on_c, 0, 43, 62
1, 245433, Note_on_c, 0, 55, 54
1, 245435, Control_c, 0, 64, 87
1, 245435, Control_c, 0, 67, 44
1, 245449, Control_c, 0, 64, 80
1, 245449, Control_c, 0, 67, 33
1, 245457, Note_off_c, 0, 43, 58
1, 245457, Note_off_c, 0, 55, 57
1, 245464, Control_c, 0, 64, 76
1, 245464, Control_c, 0, 67, 24
1, 245479, Control_c, 0, 64, 70
1, 245479, Control_c, 0, 67, 15
1, 245490, Note_off_c, 0, 71, 64
1, 245493, Note_on_c, 0, 72, 71
1, 245494, Control_c, 0, 64, 64
1, 245494, Control_c, 0, 67, 0
1, 245509, Control_c, 0, 64, 53
1, 245524, Control_c, 0, 64, 40
1, 245537, Note_off_c, 0, 72, 62
1, 245538, Control_c, 0, 64, 30
1, 245544, Note_on_c, 0, 42, 67
1, 245547, Note_on_c, 0, 54, 75
1, 245553, Control_c, 0, 64, 0
1, 245563, Note_on_c, 0, 73, 66
1, 245574, Note_off_c, 0, 54, 67
1, 245578, Note_off_c, 0, 42, 64
1, 245625, Note_off_c, 0, 73, 60
1, 245631, Note_on_c, 0, 72, 68
1, 245643, Control_c, 0, 64, 26
1, 245658, Control_c, 0, 64, 39
1, 245673, Control_c, 0, 64, 48
1, 245677, Note_off_c, 0, 72, 64
1, 245687, Control_c, 0, 64, 57
1, 245688, Note_on_c, 0, 63, 81
1, 245696, Note_on_c, 0, 57, 66
1, 245702, Control_c, 0, 64, 64
1, 245710, Note_on_c, 0, 69, 71
1, 245717, Control_c, 0, 64, 70
1, 245732, Control_c, 0, 64, 80
1, 245742, Note_off_c, 0, 63, 62
1, 245744, Note_off_c, 0, 57, 63
1, 245747, Control_c, 0, 64, 109
1, 245762, Control_c, 0, 64, 127
1, 245762, Note_off_c, 0, 69, 56
1, 245780, Note_on_c, 0, 70, 66
1, 245820, Note_off_c, 0, 70, 60
1, 245849, Note_on_c, 0, 71, 70
1, 245882, Note_on_c, 0, 53, 68
1, 245884, Note_on_c, 0, 41, 67
1, 245895, Note_off_c, 0, 71, 59
1, 245907, Note_on_c, 0, 72, 66
1, 245911, Note_off_c, 0, 53, 64
1, 245922, Note_off_c, 0, 41, 0
1, 245953, Note_off_c, 0, 72, 58
1, 245956, Poly_aftertouch_c, 0, 41, 0
1, 245961, Note_on_c, 0, 53, 60
1, 245967, Note_on_c, 0, 74, 69
1, 245978, Note_off_c, 0, 53, 67
1, 246029, Control_c, 0, 64, 88
1, 246043, Note_off_c, 0, 74, 61
1, 246044, Control_c, 0, 64, 70
1, 246045, Note_on_c, 0, 72, 73
1, 246059, Control_c, 0, 64, 57
1, 246073, Control_c, 0, 64, 48
1, 246088, Control_c, 0, 64, 57
1, 246097, Note_on_c, 0, 62, 63
1, 246099, Note_off_c, 0, 72, 59
1, 246100, Note_on_c, 0, 58, 63
1, 246103, Control_c, 0, 64, 62
1, 246108, Note_on_c, 0, 70, 73
1, 246126, Control_c, 0, 64, 69
1, 246130, Note_off_c, 0, 62, 63
1, 246135, Note_off_c, 0, 58, 65
1, 246141, Control_c, 0, 64, 88
1, 246149, Note_off_c, 0, 70, 65
1, 246155, Control_c, 0, 64, 127
1, 246173, Note_on_c, 0, 72, 75
1, 246229, Note_on_c, 0, 57, 60
1, 246230, Note_on_c, 0, 45, 70
1, 246234, Note_on_c, 0, 73, 86
1, 246242, Note_off_c, 0, 72, 64
1, 246259, Note_off_c, 0, 45, 66
1, 246260, Note_off_c, 0, 57, 66
1, 246273, Control_c, 0, 64, 91
1, 246288, Control_c, 0, 64, 71
1, 246299, Note_on_c, 0, 74, 79
1, 246303, Control_c, 0, 64, 50
1, 246306, Note_off_c, 0, 73, 62
1, 246318, Control_c, 0, 64, 0
1, 246347, Note_on_c, 0, 56, 86
1, 246357, Note_on_c, 0, 44, 61
1, 246357, Note_off_c, 0, 74, 65
1, 246358, Note_on_c, 0, 75, 82
1, 246372, Note_off_c, 0, 56, 70
1, 246384, Note_off_c, 0, 44, 54
1, 246427, Note_on_c, 0, 74, 81
1, 246456, Note_off_c, 0, 75, 57
1, 246487, Note_off_c, 0, 74, 63
1, 246495, Note_on_c, 0, 65, 88
1, 246495, Control_c, 0, 64, 51
1, 246497, Note_on_c, 0, 71, 78
1, 246501, Note_on_c, 0, 59, 73
1, 246510, Control_c, 0, 64, 66
1, 246525, Control_c, 0, 64, 81
1, 246536, Note_off_c, 0, 65, 64
1, 246540, Control_c, 0, 64, 127
1, 246555, Note_off_c, 0, 59, 64
1, 246567, Note_on_c, 0, 72, 81
1, 246573, Note_off_c, 0, 71, 61
1, 246626, Note_off_c, 0, 72, 64
1, 246631, Note_on_c, 0, 73, 78
1, 246664, Note_off_c, 0, 73, 61
1, 246678, Note_on_c, 0, 55, 85
1, 246680, Note_on_c, 0, 43, 83
1, 246699, Note_on_c, 0, 74, 77
1, 246702, Note_off_c, 0, 55, 69
1, 246712, Note_off_c, 0, 43, 64
1, 246739, Note_off_c, 0, 74, 51
1, 246754, Note_on_c, 0, 75, 81
1, 246778, Note_on_c, 0, 56, 53
1, 246805, Note_off_c, 0, 56, 57
1, 246823, Note_on_c, 0, 74, 80
1, 246829, Note_off_c, 0, 75, 61
1, 246874, Poly_aftertouch_c, 0, 45, 0
1, 246899, Note_off_c, 0, 74, 62
1, 246904, Control_c, 0, 64, 85
1, 246909, Note_on_c, 0, 60, 66
1, 246910, Note_on_c, 0, 63, 70
1, 246919, Control_c, 0, 64, 64
1, 246926, Note_on_c, 0, 72, 72
1, 246933, Control_c, 0, 64, 41
1, 246940, Note_off_c, 0, 60, 67
1, 246942, Note_off_c, 0, 63, 63
1, 246948, Control_c, 0, 64, 46
1, 246963, Control_c, 0, 64, 58
1, 246978, Control_c, 0, 64, 63
1, 246984, Note_off_c, 0, 72, 62
1, 246992, Note_on_c, 0, 73, 75
1, 246993, Control_c, 0, 64, 69
1, 247008, Control_c, 0, 64, 82
1, 247023, Control_c, 0, 64, 127
1, 247047, Note_off_c, 0, 73, 64
1, 247059, Note_on_c, 0, 36, 73
1, 247065, Note_on_c, 0, 74, 81
1, 247074, Note_on_c, 0, 48, 51
1, 247091, Note_off_c, 0, 36, 64
1, 247100, Note_off_c, 0, 48, 58
1, 247110, Note_off_c, 0, 74, 58
1, 247120, Note_on_c, 0, 75, 88
1, 247168, Note_off_c, 0, 75, 60
1, 247183, Note_on_c, 0, 76, 85
1, 247241, Note_on_c, 0, 77, 90
1, 247253, Note_off_c, 0, 76, 62
1, 247259, Control_c, 0, 64, 101
1, 247274, Control_c, 0, 64, 80
1, 247289, Control_c, 0, 64, 65
1, 247303, Control_c, 0, 64, 45
1, 247312, Note_on_c, 0, 63, 69
1, 247318, Control_c, 0, 64, 13
1, 247323, Note_on_c, 0, 56, 61
1, 247328, Note_on_c, 0, 79, 80
1, 247333, Note_off_c, 0, 77, 63
1, 247333, Control_c, 0, 64, 32
1, 247348, Control_c, 0, 64, 46
1, 247363, Control_c, 0, 64, 58
1, 247378, Control_c, 0, 64, 67
1, 247385, Note_off_c, 0, 63, 61
1, 247393, Control_c, 0, 64, 79
1, 247403, Note_off_c, 0, 56, 64
1, 247407, Control_c, 0, 64, 127
1, 247410, Note_on_c, 0, 77, 88
1, 247427, Note_off_c, 0, 79, 64
1, 247458, Note_off_c, 0, 77, 64
1, 247476, Note_on_c, 0, 76, 80
1, 247476, Note_on_c, 0, 47, 65
1, 247526, Note_off_c, 0, 47, 55
1, 247533, Note_on_c, 0, 75, 91
1, 247543, Note_off_c, 0, 76, 59
1, 247586, Control_c, 0, 64, 103
1, 247598, Note_on_c, 0, 74, 83
1, 247601, Control_c, 0, 64, 93
1, 247623, Control_c, 0, 64, 80
1, 247632, Note_off_c, 0, 75, 59
1, 247638, Control_c, 0, 64, 70
1, 247653, Control_c, 0, 64, 63
1, 247667, Control_c, 0, 64, 55
1, 247672, Note_on_c, 0, 73, 79
1, 247682, Control_c, 0, 64, 45
1, 247685, Note_off_c, 0, 74, 62
1, 247697, Control_c, 0, 64, 24
1, 247712, Control_c, 0, 64, 0
1, 247720, Note_on_c, 0, 56, 47
1, 247722, Note_on_c, 0, 62, 46
1, 247729, Note_off_c, 0, 73, 65
1, 247739, Note_on_c, 0, 72, 71
1, 247756, Control_c, 0, 64, 29
1, 247765, Note_off_c, 0, 62, 63
1, 247771, Control_c, 0, 64, 47
1, 247786, Control_c, 0, 64, 60
1, 247801, Control_c, 0, 64, 69
1, 247802, Note_off_c, 0, 72, 58
1, 247807, Note_on_c, 0, 71, 73
1, 247807, Note_off_c, 0, 56, 63
1, 247816, Control_c, 0, 64, 79
1, 247831, Control_c, 0, 64, 95
1, 247846, Control_c, 0, 64, 127
1, 247861, Note_off_c, 0, 71, 55
1, 247864, Note_on_c, 0, 46, 51
1, 247879, Note_on_c, 0, 70, 70
1, 247917, Note_off_c, 0, 70, 61
1, 247920, Note_off_c, 0, 46, 59
1, 247933, Control_c, 0, 64, 121
1, 247941, Note_on_c, 0, 69, 65
1, 247948, Control_c, 0, 64, 101
1, 247963, Control_c, 0, 64, 90
1, 247978, Control_c, 0, 64, 83
1, 247980, Note_off_c, 0, 69, 57
1, 247992, Control_c, 0, 64, 76
1, 248007, Control_c, 0, 64, 73
1, 248022, Control_c, 0, 64, 70
1, 248023, Note_on_c, 0, 70, 60
1, 248037, Control_c, 0, 64, 68
1, 248051, Control_c, 0, 64, 65
1, 248063, Note_off_c, 0, 70, 57
1, 248066, Control_c, 0, 64, 64
1, 248081, Control_c, 0, 64, 62
1, 248096, Control_c, 0, 64, 61
1, 248099, Note_on_c, 0, 68, 51
1, 248111, Control_c, 0, 64, 59
1, 248126, Control_c, 0, 64, 56
1, 248141, Control_c, 0, 64, 50
1, 248156, Control_c, 0, 64, 42
1, 248171, Control_c, 0, 64, 24
1, 248185, Control_c, 0, 64, 0
1, 248201, Note_off_c, 0, 68, 57
1, 248212, Note_on_c, 0, 39, 30
1, 248215, Note_on_c, 0, 51, 31
1, 248233, Note_on_c, 0, 67, 47
1, 248260, Control_c, 0, 64, 11
1, 248275, Control_c, 0, 64, 41
1, 248290, Control_c, 0, 64, 57
1, 248302, Note_off_c, 0, 67, 60
1, 248305, Control_c, 0, 64, 64
1, 248320, Control_c, 0, 64, 68
1, 248330, Note_off_c, 0, 51, 59
1, 248333, Note_off_c, 0, 39, 53
1, 248334, Control_c, 0, 64, 76
1, 248349, Control_c, 0, 64, 88
1, 248371, Control_c, 0, 64, 118
1, 248386, Control_c, 0, 64, 127
1, 248477, Note_on_c, 0, 55, 45
1, 248513, Note_on_c, 0, 43, 22
1, 248513, Note_off_c, 0, 55, 63
1, 248522, Note_on_c, 0, 58, 37
1, 248556, Note_off_c, 0, 43, 39
1, 248567, Note_off_c, 0, 58, 50
1, 248612, Note_on_c, 0, 70, 43
1, 248654, Note_off_c, 0, 70, 65
1, 248672, Note_on_c, 0, 56, 46
1, 248682, Note_on_c, 0, 44, 41
1, 248691, Note_on_c, 0, 62, 54
1, 248728, Note_off_c, 0, 44, 60
1, 248737, Note_off_c, 0, 62, 59
1, 248747, Note_off_c, 0, 56, 59
1, 248767, Note_on_c, 0, 71, 55
1, 248801, Control_c, 0, 64, 116
1, 248809, Note_off_c, 0, 71, 53
1, 248815, Control_c, 0, 64, 85
1, 248830, Control_c, 0, 64, 65
1, 248842, Note_on_c, 0, 43, 46
1, 248845, Control_c, 0, 64, 48
1, 248846, Note_on_c, 0, 58, 62
1, 248847, Note_on_c, 0, 55, 37
1, 248860, Control_c, 0, 64, 49
1, 248874, Control_c, 0, 64, 59
1, 248880, Note_off_c, 0, 55, 51
1, 248884, Note_off_c, 0, 43, 63
1, 248889, Control_c, 0, 64, 64
1, 248892, Note_off_c, 0, 58, 59
1, 248904, Control_c, 0, 64, 69
1, 248919, Control_c, 0, 64, 81
1, 248920, Note_on_c, 0, 70, 59
1, 248934, Control_c, 0, 64, 106
1, 248949, Control_c, 0, 64, 127
1, 248977, Note_on_c, 0, 39, 61
1, 248977, Note_off_c, 0, 70, 59
1, 248982, Note_on_c, 0, 63, 64
1, 248990, Note_on_c, 0, 51, 47
1, 249011, Note_off_c, 0, 39, 63
1, 249022, Note_off_c, 0, 51, 51
1, 249029, Note_off_c, 0, 63, 54
1, 249047, Note_on_c, 0, 67, 62
1, 249079, Note_off_c, 0, 67, 65
1, 249116, Note_on_c, 0, 64, 66
1, 249118, Note_on_c, 0, 58, 66
1, 249130, Note_on_c, 0, 46, 51
1, 249153, Note_off_c, 0, 64, 61
1, 249166, Note_off_c, 0, 46, 63
1, 249187, Note_off_c, 0, 58, 62
1, 249196, Note_on_c, 0, 73, 62
1, 249229, Note_off_c, 0, 73, 67
1, 249238, Control_c, 0, 64, 99
1, 249253, Control_c, 0, 64, 74
1, 249264, Note_on_c, 0, 45, 58
1, 249266, Note_on_c, 0, 57, 56
1, 249266, Note_on_c, 0, 60, 68
1, 249268, Control_c, 0, 64, 59
1, 249283, Control_c, 0, 64, 33
1, 249296, Note_off_c, 0, 57, 65
1, 249297, Control_c, 0, 64, 48
1, 249312, Control_c, 0, 64, 58
1, 249322, Note_off_c, 0, 45, 62
1, 249327, Note_off_c, 0, 60, 58
1, 249327, Control_c, 0, 64, 64
1, 249339, Note_on_c, 0, 72, 62
1, 249342, Control_c, 0, 64, 72
1, 249358, Control_c, 0, 64, 89
1, 249372, Control_c, 0, 64, 127
1, 249402, Note_off_c, 0, 72, 64
1, 249405, Note_on_c, 0, 53, 69
1, 249407, Note_on_c, 0, 65, 66
1, 249410, Note_on_c, 0, 41, 69
1, 249433, Note_off_c, 0, 53, 66
1, 249439, Note_off_c, 0, 41, 65
1, 249472, Note_off_c, 0, 65, 61
1, 249475, Note_on_c, 0, 69, 64
1, 249515, Note_off_c, 0, 69, 58
1, 249536, Note_on_c, 0, 64, 68
1, 249540, Note_on_c, 0, 58, 78
1, 249549, Note_on_c, 0, 46, 63
1, 249572, Note_off_c, 0, 64, 63
1, 249587, Note_off_c, 0, 46, 64
1, 249598, Note_off_c, 0, 58, 60
1, 249606, Note_on_c, 0, 73, 68
1, 249639, Control_c, 0, 64, 90
1, 249644, Note_off_c, 0, 73, 63
1, 249654, Control_c, 0, 64, 64
1, 249669, Control_c, 0, 64, 0
1, 249670, Note_on_c, 0, 57, 69
1, 249672, Note_on_c, 0, 45, 68
1, 249672, Note_on_c, 0, 60, 74
1, 249698, Control_c, 0, 64, 46
1, 249703, Note_off_c, 0, 57, 63
1, 249713, Control_c, 0, 64, 62
1, 249728, Control_c, 0, 64, 74
1, 249730, Note_off_c, 0, 45, 61
1, 249739, Note_on_c, 0, 72, 73
1, 249743, Control_c, 0, 64, 107
1, 249752, Note_off_c, 0, 60, 51
1, 249757, Control_c, 0, 64, 127
1, 249798, Note_on_c, 0, 65, 74
1, 249801, Note_off_c, 0, 72, 62
1, 249807, Note_on_c, 0, 53, 80
1, 249810, Note_on_c, 0, 41, 78
1, 249834, Note_off_c, 0, 53, 68
1, 249834, Note_off_c, 0, 41, 66
1, 249864, Note_on_c, 0, 69, 74
1, 249867, Note_off_c, 0, 65, 63
1, 249888, Note_off_c, 0, 69, 69
1, 249935, Note_on_c, 0, 66, 77
1, 249944, Note_on_c, 0, 60, 89
1, 249955, Note_on_c, 0, 48, 76
1, 249974, Note_off_c, 0, 60, 58
1, 249983, Note_off_c, 0, 48, 65
1, 249990, Note_off_c, 0, 66, 60
1, 249998, Note_on_c, 0, 75, 82
1, 250048, Control_c, 0, 64, 71
1, 250049, Note_off_c, 0, 75, 64
1, 250063, Control_c, 0, 64, 43
1, 250072, Note_on_c, 0, 62, 79
1, 250076, Note_on_c, 0, 59, 82
1, 250077, Control_c, 0, 64, 0
1, 250081, Note_on_c, 0, 47, 78
1, 250092, Control_c, 0, 64, 45
1, 250103, Note_off_c, 0, 59, 61
1, 250107, Control_c, 0, 64, 63
1, 250115, Note_off_c, 0, 47, 63
1, 250121, Control_c, 0, 64, 74
1, 250134, Note_off_c, 0, 62, 59
1, 250136, Control_c, 0, 64, 127
1, 250142, Note_on_c, 0, 74, 77
1, 250191, Note_on_c, 0, 67, 75
1, 250198, Note_on_c, 0, 55, 86
1, 250203, Note_on_c, 0, 43, 80
1, 250204, Note_off_c, 0, 74, 63
1, 250225, Note_off_c, 0, 55, 66
1, 250232, Note_off_c, 0, 43, 64
1, 250251, Note_on_c, 0, 71, 74
1, 250260, Note_off_c, 0, 67, 63
1, 250320, Note_on_c, 0, 66, 86
1, 250326, Note_on_c, 0, 60, 96
1, 250326, Note_off_c, 0, 71, 62
1, 250335, Note_on_c, 0, 48, 76
1, 250353, Note_on_c, 0, 59, 51
1, 250354, Note_off_c, 0, 59, 127
1, 250354, Note_on_c, 0, 47, 55
1, 250363, Note_off_c, 0, 60, 60
1, 250368, Note_off_c, 0, 48, 66
1, 250377, Note_off_c, 0, 47, 63
1, 250386, Note_on_c, 0, 75, 85
1, 250386, Note_off_c, 0, 66, 61
1, 250434, Control_c, 0, 64, 95
1, 250444, Note_off_c, 0, 75, 63
1, 250449, Control_c, 0, 64, 67
1, 250451, Note_on_c, 0, 59, 85
1, 250459, Note_on_c, 0, 47, 77
1, 250460, Note_on_c, 0, 62, 79
1, 250463, Control_c, 0, 64, 29
1, 250478, Control_c, 0, 64, 0
1, 250486, Note_off_c, 0, 47, 65
1, 250488, Note_off_c, 0, 59, 61
1, 250493, Control_c, 0, 64, 52
1, 250507, Control_c, 0, 64, 69
1, 250518, Note_off_c, 0, 62, 56
1, 250520, Note_on_c, 0, 74, 78
1, 250522, Control_c, 0, 64, 90
1, 250537, Control_c, 0, 64, 127
1, 250573, Note_on_c, 0, 67, 73
1, 250578, Note_off_c, 0, 74, 63
1, 250580, Note_on_c, 0, 55, 93
1, 250584, Note_on_c, 0, 43, 83
1, 250603, Note_off_c, 0, 55, 65
1, 250616, Note_off_c, 0, 43, 66
1, 250634, Note_on_c, 0, 71, 76
1, 250639, Note_off_c, 0, 67, 65
1, 250658, Note_off_c, 0, 71, 70
1, 250707, Note_on_c, 0, 68, 85
1, 250709, Note_on_c, 0, 62, 97
1, 250717, Note_on_c, 0, 50, 91
1, 250738, Note_off_c, 0, 62, 64
1, 250739, Note_off_c, 0, 50, 70
1, 250757, Note_off_c, 0, 68, 60
1, 250769, Note_on_c, 0, 77, 85
1, 250793, Note_off_c, 0, 77, 64
1, 250827, Control_c, 0, 64, 84
1, 250837, Note_on_c, 0, 64, 83
1, 250842, Note_on_c, 0, 61, 98
1, 250842, Control_c, 0, 64, 53
1, 250845, Note_on_c, 0, 49, 91
1, 250857, Control_c, 0, 64, 0
1, 250872, Control_c, 0, 64, 30
1, 250881, Note_off_c, 0, 49, 60
1, 250887, Note_off_c, 0, 61, 62
1, 250887, Control_c, 0, 64, 64
1, 250901, Control_c, 0, 64, 87
1, 250910, Note_on_c, 0, 76, 82
1, 250916, Control_c, 0, 64, 127
1, 250926, Note_off_c, 0, 64, 60
1, 250968, Note_on_c, 0, 57, 95
1, 250968, Note_on_c, 0, 69, 82
1, 250971, Note_on_c, 0, 45, 89
1, 250996, Note_off_c, 0, 57, 65
1, 250997, Note_off_c, 0, 45, 67
1, 251012, Note_on_c, 0, 47, 35
1, 251013, Note_off_c, 0, 47, 127
1, 251013, Note_on_c, 0, 73, 76
1, 251014, Note_off_c, 0, 76, 62
1, 251017, Note_off_c, 0, 69, 65
1, 251046, Note_off_c, 0, 73, 64
1, 251049, Poly_aftertouch_c, 0, 47, 0
1, 251083, Note_on_c, 0, 70, 91
1, 251094, Note_on_c, 0, 64, 100
1, 251100, Note_on_c, 0, 52, 92
1, 251121, Note_off_c, 0, 52, 72
1, 251124, Note_off_c, 0, 64, 64
1, 251129, Note_off_c, 0, 70, 62
1, 251151, Note_on_c, 0, 79, 87
1, 251181, Poly_aftertouch_c, 0, 54, 127
1, 251191, Note_off_c, 0, 79, 64
1, 251201, Poly_aftertouch_c, 0, 54, 0
1, 251213, Control_c, 0, 64, 84
1, 251225, Note_on_c, 0, 66, 91
1, 251228, Control_c, 0, 64, 66
1, 251230, Note_on_c, 0, 63, 99
1, 251234, Note_on_c, 0, 51, 96
1, 251243, Control_c, 0, 64, 68
1, 251258, Control_c, 0, 64, 98
1, 251263, Note_off_c, 0, 51, 63
1, 251271, Note_off_c, 0, 63, 62
1, 251272, Control_c, 0, 64, 127
1, 251290, Note_on_c, 0, 78, 89
1, 251311, Note_off_c, 0, 66, 61
1, 251344, Note_on_c, 0, 71, 84
1, 251373, Note_on_c, 0, 59, 101
1, 251374, Note_off_c, 0, 78, 64
1, 251377, Note_on_c, 0, 47, 98
1, 251404, Note_off_c, 0, 47, 66
1, 251406, Note_off_c, 0, 59, 66
1, 251416, Note_on_c, 0, 75, 88
1, 251425, Note_off_c, 0, 71, 64
1, 251466, Note_off_c, 0, 75, 62
1, 251505, Note_on_c, 0, 72, 94
1, 251508, Note_on_c, 0, 62, 103
1, 251509, Note_on_c, 0, 50, 99
1, 251535, Note_off_c, 0, 62, 64
1, 251554, Note_off_c, 0, 50, 65
1, 251575, Note_on_c, 0, 81, 96
1, 251601, Note_off_c, 0, 72, 63
1, 251612, Note_on_c, 0, 80, 52
1, 251638, Note_off_c, 0, 80, 63
1, 251688, Note_off_c, 0, 81, 59
1, 251741, Note_on_c, 0, 49, 99
1, 251748, Note_on_c, 0, 37, 89
1, 251756, Note_on_c, 0, 73, 101
1, 251758, Note_on_c, 0, 85, 99
1, 251760, Note_on_c, 0, 81, 75
1, 251761, Note_on_c, 0, 78, 90
1, 251769, Control_c, 0, 64, 67
1, 251784, Control_c, 0, 64, 0
1, 251858, Control_c, 0, 64, 46
1, 251873, Control_c, 0, 64, 75
1, 251878, Note_off_c, 0, 37, 63
1, 251887, Control_c, 0, 64, 127
1, 251910, Note_off_c, 0, 49, 61
1, 251934, Note_off_c, 0, 85, 61
1, 251953, Note_off_c, 0, 81, 62
1, 251958, Note_off_c, 0, 73, 59
1, 251971, Note_off_c, 0, 78, 63
1, 252045, Note_on_c, 0, 72, 77
1, 252104, Note_on_c, 0, 69, 78
1, 252115, Note_on_c, 0, 61, 65
1, 252116, Note_on_c, 0, 66, 68
1, 252118, Note_on_c, 0, 57, 66
1, 252127, Note_on_c, 0, 73, 88
1, 252134, Note_off_c, 0, 69, 70
1, 252136, Note_off_c, 0, 72, 63
1, 252145, Note_off_c, 0, 66, 66
1, 252151, Note_off_c, 0, 61, 58
1, 252179, Note_on_c, 0, 69, 79
1, 252182, Poly_aftertouch_c, 0, 66, 0
1, 252193, Poly_aftertouch_c, 0, 61, 0
1, 252197, Note_on_c, 0, 75, 89
1, 252203, Note_off_c, 0, 73, 64
1, 252208, Note_off_c, 0, 69, 68
1, 252209, Poly_aftertouch_c, 0, 66, 0
1, 252215, Poly_aftertouch_c, 0, 61, 0
1, 252219, Note_off_c, 0, 57, 56
1, 252244, Note_off_c, 0, 75, 64
1, 252275, Note_on_c, 0, 77, 94
1, 252334, Note_on_c, 0, 69, 98
1, 252342, Note_on_c, 0, 57, 83
1, 252342, Note_on_c, 0, 66, 84
1, 252343, Note_on_c, 0, 61, 78
1, 252351, Note_on_c, 0, 78, 93
1, 252361, Note_off_c, 0, 69, 55
1, 252367, Note_off_c, 0, 77, 61
1, 252372, Note_off_c, 0, 66, 54
1, 252375, Note_off_c, 0, 57, 59
1, 252376, Note_off_c, 0, 61, 62
1, 252415, Note_on_c, 0, 80, 87
1, 252428, Note_off_c, 0, 78, 63
1, 252469, Note_off_c, 0, 80, 65
1, 252480, Note_on_c, 0, 69, 102
1, 252485, Note_on_c, 0, 66, 87
1, 252487, Note_on_c, 0, 57, 85
1, 252487, Note_on_c, 0, 61, 83
1, 252495, Note_on_c, 0, 81, 93
1, 252515, Note_off_c, 0, 69, 66
1, 252521, Note_off_c, 0, 57, 60
1, 252531, Note_off_c, 0, 61, 62
1, 252535, Note_off_c, 0, 66, 60
1, 252569, Note_on_c, 0, 83, 95
1, 252572, Note_off_c, 0, 81, 65
1, 252584, Note_on_c, 0, 82, 49
1, 252610, Note_off_c, 0, 82, 36
1, 252619, Note_on_c, 0, 69, 109
1, 252625, Note_on_c, 0, 57, 93
1, 252627, Note_on_c, 0, 61, 87
1, 252627, Note_on_c, 0, 66, 89
1, 252628, Note_on_c, 0, 85, 97
1, 252631, Note_off_c, 0, 83, 68
1, 252660, Note_off_c, 0, 69, 52
1, 252672, Note_off_c, 0, 57, 59
1, 252679, Note_off_c, 0, 61, 58
1, 252687, Note_off_c, 0, 66, 60
1, 252696, Note_on_c, 0, 87, 91
1, 252727, Note_off_c, 0, 85, 66
1, 252740, Note_off_c, 0, 87, 67
1, 252773, Note_on_c, 0, 69, 109
1, 252778, Note_on_c, 0, 57, 96
1, 252778, Note_on_c, 0, 66, 101
1, 252779, Note_on_c, 0, 61, 91
1, 252790, Note_on_c, 0, 89, 95
1, 252863, Note_on_c, 0, 90, 94
1, 252887, Note_off_c, 0, 89, 63
1, 252907, Note_off_c, 0, 69, 54
1, 252925, Note_off_c, 0, 57, 61
1, 252933, Note_on_c, 0, 92, 90
1, 252962, Note_off_c, 0, 66, 60
1, 252963, Note_off_c, 0, 90, 64
1, 252966, Note_off_c, 0, 61, 57
1, 252988, Note_on_c, 0, 93, 92
1, 253004, Note_off_c, 0, 92, 66
1, 253060, Note_on_c, 0, 90, 92
1, 253090, Note_off_c, 0, 93, 60
1, 253122, Note_on_c, 0, 85, 90
1, 253152, Note_off_c, 0, 90, 62
1, 253182, Note_on_c, 0, 81, 74
1, 253183, Note_off_c, 0, 85, 66
1, 253213, Note_off_c, 0, 81, 62
1, 253251, Note_on_c, 0, 78, 83
1, 253307, Note_on_c, 0, 73, 87
1, 253321, Note_off_c, 0, 78, 61
1, 253355, Note_off_c, 0, 73, 66
1, 253377, Note_on_c, 0, 69, 65
1, 253394, Note_off_c, 0, 69, 66
1, 253427, Note_on_c, 0, 49, 89
1, 253430, Control_c, 0, 64, 76
1, 253432, Note_on_c, 0, 37, 82
1, 253440, Note_on_c, 0, 66, 80
1, 253445, Control_c, 0, 64, 0
1, 253487, Note_off_c, 0, 49, 62
1, 253492, Note_off_c, 0, 37, 59
1, 253500, Note_on_c, 0, 61, 82
1, 253514, Note_off_c, 0, 66, 55
1, 253571, Note_off_c, 0, 61, 60
1, 253574, Poly_aftertouch_c, 0, 64, 0
1, 253575, Note_on_c, 0, 57, 78
1, 253577, Note_on_c, 0, 48, 98
1, 253584, Note_on_c, 0, 36, 86
1, 253621, Note_off_c, 0, 36, 68
1, 253630, Control_c, 0, 64, 67
1, 253633, Note_off_c, 0, 48, 66
1, 253645, Control_c, 0, 64, 127
1, 253657, Note_on_c, 0, 66, 79
1, 253666, Note_off_c, 0, 57, 61
1, 253730, Note_off_c, 0, 66, 60
1, 253735, Note_on_c, 0, 63, 77
1, 253787, Note_on_c, 0, 54, 75
1, 253792, Note_on_c, 0, 69, 70
1, 253798, Note_on_c, 0, 57, 59
1, 253808, Note_off_c, 0, 63, 63
1, 253818, Note_off_c, 0, 54, 66
1, 253818, Note_off_c, 0, 69, 68
1, 253828, Note_off_c, 0, 57, 62
1, 253844, Poly_aftertouch_c, 0, 63, 0
1, 253849, Note_on_c, 0, 63, 80
1, 253856, Note_on_c, 0, 57, 61
1, 253860, Note_on_c, 0, 54, 86
1, 253863, Note_on_c, 0, 69, 88
1, 253878, Note_off_c, 0, 63, 67
1, 253883, Note_off_c, 0, 54, 68
1, 253890, Note_off_c, 0, 57, 66
1, 253916, Note_off_c, 0, 69, 61
1, 253929, Note_on_c, 0, 78, 86
1, 254001, Note_on_c, 0, 75, 92
1, 254003, Note_on_c, 0, 63, 93
1, 254003, Note_off_c, 0, 78, 64
1, 254013, Note_on_c, 0, 57, 68
1, 254016, Note_on_c, 0, 54, 77
1, 254032, Note_off_c, 0, 63, 59
1, 254045, Note_off_c, 0, 57, 67
1, 254050, Note_on_c, 0, 56, 25
1, 254060, Note_on_c, 0, 81, 78
1, 254061, Note_off_c, 0, 54, 64
1, 254070, Note_off_c, 0, 75, 64
1, 254086, Note_off_c, 0, 81, 65
1, 254093, Note_off_c, 0, 56, 52
1, 254140, Note_on_c, 0, 81, 78
1, 254147, Note_on_c, 0, 83, 74
1, 254190, Note_off_c, 0, 81, 62
1, 254193, Note_off_c, 0, 83, 59
1, 254206, Note_on_c, 0, 91, 88
1, 254225, Note_on_c, 0, 90, 48
1, 254253, Note_off_c, 0, 90, 35
1, 254272, Note_on_c, 0, 48, 99
1, 254274, Note_off_c, 0, 91, 63
1, 254280, Note_on_c, 0, 88, 80
1, 254280, Note_on_c, 0, 36, 87
1, 254306, Note_on_c, 0, 87, 36
1, 254314, Note_off_c, 0, 48, 64
1, 254331, Note_off_c, 0, 36, 58
1, 254341, Note_on_c, 0, 93, 100
1, 254341, Note_off_c, 0, 87, 31
1, 254361, Note_off_c, 0, 88, 63
1, 254452, Control_c, 0, 64, 99
1, 254461, Note_on_c, 0, 47, 109
1, 254466, Note_on_c, 0, 35, 95
1, 254467, Control_c, 0, 64, 59
1, 254468, Note_on_c, 0, 90, 90
1, 254482, Control_c, 0, 64, 0
1, 254495, Note_off_c, 0, 93, 66
1, 254541, Control_c, 0, 64, 45
1, 254550, Note_off_c, 0, 35, 63
1, 254556, Control_c, 0, 64, 70
1, 254564, Note_off_c, 0, 47, 67
1, 254564, Note_on_c, 0, 93, 87
1, 254570, Control_c, 0, 64, 127
1, 254573, Note_off_c, 0, 90, 64
1, 254633, Note_on_c, 0, 87, 90
1, 254647, Note_off_c, 0, 93, 65
1, 254695, Note_on_c, 0, 81, 73
1, 254697, Note_off_c, 0, 87, 63
1, 254701, Note_on_c, 0, 63, 86
1, 254703, Note_on_c, 0, 58, 74
1, 254722, Note_off_c, 0, 63, 71
1, 254723, Note_off_c, 0, 81, 65
1, 254732, Note_off_c, 0, 58, 65
1, 254740, Note_on_c, 0, 54, 17
1, 254766, Note_off_c, 0, 54, 0
1, 254766, Note_on_c, 0, 54, 14
1, 254769, Note_on_c, 0, 78, 90
1, 254789, Note_on_c, 0, 63, 62
1, 254808, Note_off_c, 0, 63, 65
1, 254811, Note_off_c, 0, 78, 67
1, 254822, Note_on_c, 0, 57, 11
1, 254829, Note_off_c, 0, 54, 65
1, 254849, Note_on_c, 0, 81, 71
1, 254851, Note_on_c, 0, 79, 73
1, 254858, Note_off_c, 0, 57, 0
1, 254880, Poly_aftertouch_c, 0, 57, 0
1, 254910, Note_on_c, 0, 63, 82
1, 254916, Note_on_c, 0, 75, 88
1, 254921, Note_on_c, 0, 57, 72
1, 254924, Note_on_c, 0, 54, 88
1, 254927, Note_off_c, 0, 81, 56
1, 254931, Note_off_c, 0, 79, 61
1, 254950, Note_off_c, 0, 63, 62
1, 254957, Note_off_c, 0, 57, 65
1, 254973, Note_off_c, 0, 75, 61
1, 254975, Note_off_c, 0, 54, 61
1, 254983, Note_on_c, 0, 69, 80
1, 255008, Note_off_c, 0, 69, 68
1, 255063, Note_on_c, 0, 66, 84
1, 255126, Note_off_c, 0, 66, 55
1, 255145, Note_on_c, 0, 69, 86
1, 255218, Note_on_c, 0, 47, 103
1, 255223, Note_on_c, 0, 63, 85
1, 255225, Note_on_c, 0, 35, 94
1, 255249, Note_off_c, 0, 69, 61
1, 255297, Note_on_c, 0, 57, 88
1, 255322, Note_off_c, 0, 63, 59
1, 255341, Note_off_c, 0, 35, 60
1, 255346, Note_off_c, 0, 57, 65
1, 255349, Note_off_c, 0, 47, 60
1, 255459, Note_on_c, 0, 70, 98
1, 255461, Note_on_c, 0, 46, 100
1, 255461, Note_on_c, 0, 63, 85
1, 255462, Note_on_c, 0, 58, 97
1, 255462, Note_on_c, 0, 67, 77
1, 255465, Note_on_c, 0, 34, 88
1, 255468, Control_c, 0, 64, 75
1, 255482, Control_c, 0, 64, 0
1, 255571, Control_c, 0, 64, 40
1, 255586, Control_c, 0, 64, 65
1, 255598, Note_off_c, 0, 34, 62
1, 255599, Note_off_c, 0, 67, 61
1, 255601, Control_c, 0, 64, 85
1, 255606, Note_off_c, 0, 70, 62
1, 255607, Note_off_c, 0, 46, 63
1, 255610, Note_off_c, 0, 63, 59
1, 255616, Control_c, 0, 64, 127
1, 255646, Control_c, 0, 64, 118
1, 255657, Note_off_c, 0, 58, 61
1, 255661, Control_c, 0, 64, 94
1, 255676, Control_c, 0, 64, 88
1, 255690, Control_c, 0, 64, 86
1, 255705, Control_c, 0, 64, 81
1, 255720, Control_c, 0, 64, 71
1, 255734, Control_c, 0, 64, 65
1, 255749, Control_c, 0, 64, 63
1, 255764, Control_c, 0, 64, 61
1, 255779, Control_c, 0, 64, 60
1, 255794, Control_c, 0, 64, 57
1, 255808, Control_c, 0, 64, 52
1, 255823, Control_c, 0, 64, 50
1, 255838, Control_c, 0, 64, 48
1, 255860, Control_c, 0, 64, 45
1, 255868, Note_on_c, 0, 57, 49
1, 255875, Control_c, 0, 64, 43
1, 255890, Control_c, 0, 64, 38
1, 255905, Control_c, 0, 64, 32
1, 255909, Note_off_c, 0, 57, 63
1, 255920, Control_c, 0, 64, 27
1, 255934, Control_c, 0, 64, 22
1, 255935, Note_on_c, 0, 58, 56
1, 255949, Control_c, 0, 64, 11
1, 255964, Control_c, 0, 64, 0
1, 255965, Note_off_c, 0, 58, 65
1, 256007, Note_on_c, 0, 60, 60
1, 256053, Note_off_c, 0, 60, 63
1, 256075, Note_on_c, 0, 62, 55
1, 256111, Note_off_c, 0, 62, 64
1, 256123, Note_on_c, 0, 63, 58
1, 256154, Note_off_c, 0, 63, 65
1, 256190, Note_on_c, 0, 64, 51
1, 256224, Note_off_c, 0, 64, 60
1, 256231, Control_c, 0, 64, 34
1, 256236, Note_on_c, 0, 63, 51
1, 256242, Note_on_c, 0, 67, 63
1, 256246, Control_c, 0, 64, 54
1, 256260, Note_on_c, 0, 60, 51
1, 256261, Control_c, 0, 64, 63
1, 256272, Note_on_c, 0, 57, 23
1, 256276, Control_c, 0, 64, 70
1, 256277, Note_off_c, 0, 67, 64
1, 256291, Control_c, 0, 64, 82
1, 256301, Note_on_c, 0, 65, 64
1, 256305, Control_c, 0, 64, 117
1, 256311, Note_off_c, 0, 63, 63
1, 256316, Note_off_c, 0, 57, 40
1, 256320, Control_c, 0, 64, 127
1, 256338, Note_off_c, 0, 65, 63
1, 256363, Note_on_c, 0, 62, 56
1, 256382, Note_on_c, 0, 67, 54
1, 256389, Note_off_c, 0, 60, 50
1, 256390, Note_on_c, 0, 58, 50
1, 256394, Note_off_c, 0, 62, 65
1, 256397, Note_on_c, 0, 56, 49
1, 256415, Note_off_c, 0, 67, 65
1, 256418, Note_off_c, 0, 58, 59
1, 256441, Note_off_c, 0, 56, 59
1, 256457, Note_on_c, 0, 65, 35
1, 256483, Note_off_c, 0, 65, 56
1, 256483, Control_c, 0, 64, 90
1, 256498, Control_c, 0, 64, 73
1, 256503, Note_on_c, 0, 72, 64
1, 256510, Note_on_c, 0, 63, 39
1, 256513, Control_c, 0, 64, 62
1, 256521, Note_on_c, 0, 55, 34
1, 256528, Control_c, 0, 64, 45
1, 256528, Note_on_c, 0, 58, 41
1, 256543, Control_c, 0, 64, 38
1, 256557, Control_c, 0, 64, 46
1, 256564, Note_off_c, 0, 72, 61
1, 256569, Note_on_c, 0, 70, 55
1, 256572, Control_c, 0, 64, 54
1, 256587, Control_c, 0, 64, 60
1, 256605, Note_off_c, 0, 55, 56
1, 256609, Control_c, 0, 64, 66
1, 256616, Note_off_c, 0, 63, 55
1, 256619, Note_off_c, 0, 70, 63
1, 256624, Control_c, 0, 64, 74
1, 256625, Note_off_c, 0, 58, 61
1, 256638, Control_c, 0, 64, 91
1, 256639, Note_on_c, 0, 69, 70
1, 256653, Control_c, 0, 64, 127
1, 256677, Note_off_c, 0, 69, 56
1, 256683, Control_c, 0, 64, 102
1, 256698, Control_c, 0, 64, 85
1, 256699, Note_on_c, 0, 70, 69
1, 256713, Control_c, 0, 64, 76
1, 256724, Note_off_c, 0, 70, 69
1, 256728, Control_c, 0, 64, 70
1, 256743, Control_c, 0, 64, 63
1, 256750, Note_on_c, 0, 72, 76
1, 256757, Control_c, 0, 64, 53
1, 256772, Control_c, 0, 64, 36
1, 256787, Control_c, 0, 64, 0
1, 256810, Note_on_c, 0, 74, 77
1, 256810, Note_off_c, 0, 72, 65
1, 256864, Note_on_c, 0, 75, 80
1, 256868, Note_off_c, 0, 74, 63
1, 256898, Note_off_c, 0, 75, 64
1, 256925, Note_on_c, 0, 76, 74
1, 256978, Note_on_c, 0, 79, 74
1, 256979, Note_off_c, 0, 76, 60
1, 256987, Note_on_c, 0, 69, 60
1, 256987, Note_on_c, 0, 72, 57
1, 256993, Note_on_c, 0, 75, 60
1, 256995, Control_c, 0, 64, 27
1, 257011, Control_c, 0, 64, 50
1, 257019, Note_off_c, 0, 79, 64
1, 257021, Note_off_c, 0, 69, 65
1, 257026, Control_c, 0, 64, 65
1, 257034, Note_on_c, 0, 77, 79
1, 257041, Control_c, 0, 64, 74
1, 257042, Note_off_c, 0, 75, 60
1, 257055, Control_c, 0, 64, 95
1, 257070, Control_c, 0, 64, 127
1, 257077, Note_off_c, 0, 77, 58
1, 257083, Note_off_c, 0, 72, 52
1, 257101, Note_on_c, 0, 79, 70
1, 257107, Note_on_c, 0, 74, 64
1, 257118, Note_on_c, 0, 70, 59
1, 257129, Note_on_c, 0, 68, 54
1, 257135, Note_off_c, 0, 74, 66
1, 257135, Note_off_c, 0, 79, 62
1, 257151, Note_off_c, 0, 70, 66
1, 257159, Note_on_c, 0, 77, 75
1, 257169, Note_off_c, 0, 68, 62
1, 257190, Note_off_c, 0, 77, 62
1, 257233, Control_c, 0, 64, 91
1, 257234, Note_on_c, 0, 84, 73
1, 257241, Note_on_c, 0, 75, 59
1, 257247, Note_on_c, 0, 70, 53
1, 257248, Control_c, 0, 64, 70
1, 257252, Note_on_c, 0, 67, 50
1, 257262, Control_c, 0, 64, 54
1, 257277, Control_c, 0, 64, 0
1, 257292, Note_on_c, 0, 82, 70
1, 257307, Control_c, 0, 64, 29
1, 257310, Note_off_c, 0, 84, 58
1, 257322, Control_c, 0, 64, 50
1, 257326, Note_off_c, 0, 67, 56
1, 257336, Control_c, 0, 64, 62
1, 257340, Note_off_c, 0, 75, 59
1, 257356, Note_off_c, 0, 82, 64
1, 257357, Note_off_c, 0, 70, 62
1, 257359, Control_c, 0, 64, 72
1, 257362, Note_on_c, 0, 81, 75
1, 257374, Control_c, 0, 64, 97
1, 257388, Control_c, 0, 64, 127
1, 257417, Note_off_c, 0, 81, 62
1, 257419, Note_on_c, 0, 82, 78
1, 257440, Note_off_c, 0, 82, 72
1, 257448, Control_c, 0, 64, 102
1, 257462, Control_c, 0, 64, 81
1, 257476, Note_on_c, 0, 84, 90
1, 257477, Control_c, 0, 64, 68
1, 257492, Control_c, 0, 64, 54
1, 257507, Control_c, 0, 64, 16
1, 257522, Control_c, 0, 64, 0
1, 257532, Note_on_c, 0, 86, 87
1, 257537, Note_off_c, 0, 84, 66
1, 257587, Note_on_c, 0, 87, 87
1, 257594, Note_off_c, 0, 86, 65
1, 257629, Note_off_c, 0, 87, 65
1, 257646, Note_on_c, 0, 88, 80
1, 257689, Note_on_c, 0, 84, 60
1, 257690, Note_on_c, 0, 81, 57
1, 257697, Note_on_c, 0, 87, 58
1, 257700, Control_c, 0, 64, 44
1, 257704, Note_off_c, 0, 88, 64
1, 257708, Note_on_c, 0, 91, 81
1, 257714, Control_c, 0, 64, 63
1, 257721, Note_off_c, 0, 81, 65
1, 257729, Control_c, 0, 64, 73
1, 257738, Note_off_c, 0, 87, 65
1, 257744, Control_c, 0, 64, 90
1, 257748, Note_off_c, 0, 91, 63
1, 257753, Note_on_c, 0, 89, 89
1, 257759, Control_c, 0, 64, 127
1, 257802, Note_on_c, 0, 86, 63
1, 257810, Note_off_c, 0, 89, 63
1, 257822, Note_off_c, 0, 84, 59
1, 257823, Note_on_c, 0, 91, 76
1, 257825, Note_on_c, 0, 82, 55
1, 257834, Note_on_c, 0, 80, 52
1, 257838, Note_off_c, 0, 86, 65
1, 257866, Note_off_c, 0, 82, 62
1, 257878, Note_off_c, 0, 91, 62
1, 257881, Note_off_c, 0, 80, 60
1, 257894, Note_on_c, 0, 89, 74
1, 257938, Control_c, 0, 64, 101
1, 257952, Control_c, 0, 64, 75
1, 257967, Control_c, 0, 64, 64
1, 257970, Note_off_c, 0, 89, 60
1, 257978, Note_on_c, 0, 87, 51
1, 257979, Note_on_c, 0, 82, 41
1, 257979, Note_on_c, 0, 94, 77
1, 257982, Control_c, 0, 64, 52
1, 257988, Note_on_c, 0, 79, 51
1, 257996, Control_c, 0, 64, 48
1, 258011, Control_c, 0, 64, 55
1, 258026, Control_c, 0, 64, 62
1, 258039, Note_off_c, 0, 94, 62
1, 258041, Control_c, 0, 64, 70
1, 258051, Note_off_c, 0, 87, 62
1, 258052, Note_off_c, 0, 79, 61
1, 258056, Control_c, 0, 64, 89
1, 258064, Note_off_c, 0, 82, 64
1, 258070, Control_c, 0, 64, 127
1, 258236, Note_on_c, 0, 81, 71
1, 258279, Note_off_c, 0, 81, 57
1, 258296, Note_on_c, 0, 82, 83
1, 258315, Control_c, 0, 64, 121
1, 258329, Note_off_c, 0, 82, 66
1, 258329, Control_c, 0, 64, 94
1, 258343, Control_c, 0, 64, 83
1, 258358, Control_c, 0, 64, 72
1, 258361, Note_on_c, 0, 84, 87
1, 258373, Control_c, 0, 64, 63
1, 258388, Control_c, 0, 64, 45
1, 258403, Control_c, 0, 64, 0
1, 258410, Note_on_c, 0, 86, 87
1, 258418, Note_off_c, 0, 84, 63
1, 258457, Note_on_c, 0, 87, 87
1, 258469, Note_off_c, 0, 86, 64
1, 258498, Note_off_c, 0, 87, 65
1, 258507, Control_c, 0, 64, 40
1, 258518, Note_on_c, 0, 88, 81
1, 258522, Control_c, 0, 64, 62
1, 258536, Control_c, 0, 64, 72
1, 258551, Control_c, 0, 64, 99
1, 258557, Note_on_c, 0, 81, 67
1, 258566, Note_on_c, 0, 84, 72
1, 258566, Control_c, 0, 64, 127
1, 258567, Note_on_c, 0, 87, 76
1, 258571, Note_on_c, 0, 91, 100
1, 258578, Note_off_c, 0, 88, 65
1, 258609, Note_off_c, 0, 81, 62
1, 258625, Note_off_c, 0, 87, 63
1, 258636, Note_on_c, 0, 89, 95
1, 258639, Note_off_c, 0, 91, 64
1, 258692, Note_on_c, 0, 86, 83
1, 258699, Note_on_c, 0, 91, 86
1, 258701, Note_on_c, 0, 80, 68
1, 258701, Note_on_c, 0, 82, 68
1, 258702, Note_off_c, 0, 89, 64
1, 258716, Note_off_c, 0, 84, 58
1, 258742, Note_off_c, 0, 86, 63
1, 258766, Note_on_c, 0, 89, 94
1, 258766, Note_off_c, 0, 82, 61
1, 258786, Note_off_c, 0, 91, 62
1, 258856, Control_c, 0, 64, 90
1, 258871, Control_c, 0, 64, 66
1, 258874, Note_off_c, 0, 80, 54
1, 258886, Control_c, 0, 64, 0
1, 258892, Note_on_c, 0, 87, 77
1, 258892, Note_on_c, 0, 94, 96
1, 258894, Note_on_c, 0, 79, 64
1, 258895, Note_on_c, 0, 82, 62
1, 258918, Note_off_c, 0, 89, 60
1, 258945, Control_c, 0, 64, 27
1, 258959, Control_c, 0, 64, 52
1, 258974, Control_c, 0, 64, 64
1, 258975, Note_off_c, 0, 87, 63
1, 258989, Control_c, 0, 64, 81
1, 259004, Control_c, 0, 64, 127
1, 259013, Note_off_c, 0, 79, 61
1, 259028, Note_off_c, 0, 82, 63
1, 259035, Note_off_c, 0, 94, 63
1, 259270, Control_c, 0, 64, 97
1, 259285, Control_c, 0, 64, 86
1, 259300, Control_c, 0, 64, 81
1, 259315, Control_c, 0, 64, 75
1, 259330, Control_c, 0, 64, 70
1, 259345, Control_c, 0, 64, 64
1, 259359, Control_c, 0, 64, 60
1, 259374, Control_c, 0, 64, 58
1, 259389, Control_c, 0, 64, 53
1, 259405, Control_c, 0, 64, 43
1, 259420, Control_c, 0, 64, 16
1, 259434, Control_c, 0, 64, 0
1, 259494, Control_c, 0, 64, 41
1, 259509, Control_c, 0, 64, 66
1, 259523, Control_c, 0, 64, 127
1, 259524, Note_on_c, 0, 89, 109
1, 259695, Note_on_c, 0, 69, 104
1, 259696, Note_on_c, 0, 65, 86
1, 259701, Note_on_c, 0, 63, 81
1, 259708, Note_on_c, 0, 60, 83
1, 259734, Note_on_c, 0, 101, 101
1, 259777, Note_off_c, 0, 89, 64
1, 259927, Note_on_c, 0, 100, 102
1, 259959, Note_off_c, 0, 101, 65
1, 260001, Note_off_c, 0, 60, 56
1, 260014, Note_off_c, 0, 69, 51
1, 260041, Note_off_c, 0, 65, 58
1, 260046, Note_on_c, 0, 99, 108
1, 260065, Note_off_c, 0, 63, 58
1, 260075, Note_off_c, 0, 100, 66
1, 260144, Note_on_c, 0, 98, 101
1, 260195, Note_off_c, 0, 99, 65
1, 260234, Note_on_c, 0, 96, 99
1, 260236, Note_off_c, 0, 98, 65
1, 260287, Note_off_c, 0, 96, 65
1, 260314, Note_on_c, 0, 94, 92
1, 260388, Note_on_c, 0, 93, 86
1, 260421, Note_off_c, 0, 94, 64
1, 260447, Note_on_c, 0, 91, 89
1, 260471, Note_off_c, 0, 93, 66
1, 260507, Note_off_c, 0, 91, 65
1, 260512, Note_on_c, 0, 89, 88
1, 260552, Note_off_c, 0, 89, 62
1, 260567, Note_on_c, 0, 88, 86
1, 260628, Note_on_c, 0, 87, 89
1, 260664, Note_off_c, 0, 88, 60
1, 260685, Note_on_c, 0, 86, 86
1, 260701, Note_off_c, 0, 87, 66
1, 260739, Note_off_c, 0, 86, 65
1, 260744, Note_on_c, 0, 84, 84
1, 260798, Control_c, 0, 64, 76
1, 260802, Note_on_c, 0, 82, 85
1, 260808, Note_off_c, 0, 84, 65
1, 260813, Control_c, 0, 64, 50
1, 260828, Control_c, 0, 64, 0
1, 260856, Note_on_c, 0, 83, 51
1, 260858, Control_c, 0, 64, 11
1, 260863, Note_on_c, 0, 81, 80
1, 260872, Control_c, 0, 64, 54
1, 260884, Note_on_c, 0, 47, 67
1, 260887, Control_c, 0, 64, 72
1, 260889, Note_off_c, 0, 83, 62
1, 260892, Note_off_c, 0, 82, 62
1, 260902, Control_c, 0, 64, 127
1, 260912, Note_on_c, 0, 79, 83
1, 260916, Note_on_c, 0, 51, 78
1, 260933, Note_off_c, 0, 81, 66
1, 260943, Note_off_c, 0, 47, 63
1, 260964, Note_off_c, 0, 79, 66
1, 260968, Note_on_c, 0, 77, 86
1, 260979, Note_on_c, 0, 56, 88
1, 261009, Note_off_c, 0, 51, 64
1, 261010, Note_off_c, 0, 77, 62
1, 261032, Note_on_c, 0, 76, 84
1, 261076, Note_on_c, 0, 63, 103
1, 261084, Note_off_c, 0, 56, 60
1, 261105, Note_on_c, 0, 75, 85
1, 261140, Note_off_c, 0, 76, 61
1, 261153, Note_off_c, 0, 63, 59
1, 261175, Note_on_c, 0, 73, 81
1, 261199, Note_off_c, 0, 75, 61
1, 261232, Note_off_c, 0, 73, 64
1, 261243, Note_on_c, 0, 71, 79
1, 261309, Note_off_c, 0, 71, 45
1, 261313, Note_on_c, 0, 70, 81
1, 261360, Note_on_c, 0, 68, 83
1, 261397, Note_off_c, 0, 70, 60
1, 261417, Note_on_c, 0, 66, 84
1, 261434, Note_off_c, 0, 68, 62
1, 261469, Note_on_c, 0, 65, 82
1, 261473, Note_off_c, 0, 66, 61
1, 261523, Note_off_c, 0, 65, 59
1, 261529, Note_on_c, 0, 63, 82
1, 261578, Note_on_c, 0, 61, 88
1, 261593, Note_off_c, 0, 63, 62
1, 261635, Note_off_c, 0, 61, 62
1, 261637, Note_on_c, 0, 59, 81
1, 261690, Note_on_c, 0, 58, 89
1, 261730, Note_off_c, 0, 59, 60
1, 261740, Note_on_c, 0, 56, 89
1, 261793, Note_off_c, 0, 58, 60
1, 261808, Note_on_c, 0, 54, 88
1, 261815, Note_on_c, 0, 35, 95
1, 261835, Note_off_c, 0, 56, 64
1, 261852, Control_c, 0, 64, 116
1, 261867, Control_c, 0, 64, 85
1, 261881, Note_on_c, 0, 53, 85
1, 261882, Control_c, 0, 64, 82
1, 261885, Note_off_c, 0, 54, 65
1, 261897, Control_c, 0, 64, 94
1, 261912, Control_c, 0, 64, 127
1, 261937, Note_off_c, 0, 53, 53
1, 261953, Note_on_c, 0, 51, 92
1, 261971, Control_c, 0, 64, 88
1, 261986, Control_c, 0, 64, 71
1, 262000, Control_c, 0, 64, 68
1, 262015, Control_c, 0, 64, 76
1, 262021, Note_on_c, 0, 49, 86
1, 262030, Control_c, 0, 64, 99
1, 262034, Note_off_c, 0, 51, 64
1, 262045, Control_c, 0, 64, 127
1, 262087, Note_off_c, 0, 49, 65
1, 262089, Control_c, 0, 64, 82
1, 262090, Note_on_c, 0, 47, 84
1, 262104, Control_c, 0, 64, 65
1, 262119, Control_c, 0, 64, 63
1, 262133, Control_c, 0, 64, 72
1, 262138, Note_off_c, 0, 47, 59
1, 262148, Control_c, 0, 64, 99
1, 262162, Note_on_c, 0, 46, 92
1, 262163, Control_c, 0, 64, 127
1, 262207, Control_c, 0, 64, 121
1, 262222, Control_c, 0, 64, 89
1, 262237, Control_c, 0, 64, 80
1, 262239, Note_on_c, 0, 44, 92
1, 262242, Note_off_c, 0, 35, 53
1, 262251, Control_c, 0, 64, 87
1, 262266, Control_c, 0, 64, 127
1, 262269, Note_off_c, 0, 46, 64
1, 262317, Note_on_c, 0, 42, 94
1, 262344, Note_off_c, 0, 44, 61
1, 262404, Note_on_c, 0, 41, 91
1, 262412, Note_off_c, 0, 42, 64
1, 262467, Note_off_c, 0, 41, 0
1, 262487, Note_on_c, 0, 39, 91
1, 262501, Poly_aftertouch_c, 0, 41, 0
1, 262580, Note_on_c, 0, 37, 92
1, 262603, Note_off_c, 0, 39, 60
1, 262664, Note_off_c, 0, 37, 62
1, 262708, Note_on_c, 0, 35, 96
1, 262790, Note_off_c, 0, 35, 57
1, 262929, Note_on_c, 0, 34, 93
1, 263000, Control_c, 0, 64, 103
1, 263014, Control_c, 0, 64, 87
1, 263029, Control_c, 0, 64, 76
1, 263044, Control_c, 0, 64, 68
1, 263059, Control_c, 0, 64, 63
1, 263074, Control_c, 0, 64, 52
1, 263089, Control_c, 0, 64, 29
1, 263104, Control_c, 0, 64, 0
1, 263237, Control_c, 0, 64, 29
1, 263244, Note_on_c, 0, 41, 77
1, 263252, Control_c, 0, 64, 46
1, 263266, Control_c, 0, 64, 58
1, 263281, Control_c, 0, 64, 63
1, 263283, Note_off_c, 0, 34, 60
1, 263296, Control_c, 0, 64, 67
1, 263311, Control_c, 0, 64, 72
1, 263326, Control_c, 0, 64, 81
1, 263348, Control_c, 0, 64, 102
1, 263363, Control_c, 0, 64, 127
1, 263416, Note_on_c, 0, 46, 76
1, 263432, Note_off_c, 0, 41, 56
1, 263503, Note_on_c, 0, 50, 77
1, 263514, Note_off_c, 0, 46, 60
1, 263613, Note_on_c, 0, 46, 85
1, 263613, Note_off_c, 0, 50, 60
1, 263689, Note_on_c, 0, 41, 85
1, 263700, Note_off_c, 0, 46, 62
1, 263794, Note_off_c, 0, 41, 63
1, 263799, Note_on_c, 0, 34, 69
1, 263827, Note_off_c, 0, 34, 67
1, 263850, Note_on_c, 0, 67, 95
1, 263855, Note_on_c, 0, 62, 64
1, 263858, Note_on_c, 0, 58, 91
1, 264034, Note_on_c, 0, 41, 70
1, 264150, Note_off_c, 0, 41, 60
1, 264150, Note_on_c, 0, 46, 74
1, 264167, Note_off_c, 0, 58, 58
1, 264176, Note_off_c, 0, 67, 53
1, 264184, Note_off_c, 0, 62, 53
1, 264230, Note_off_c, 0, 46, 59
1, 264234, Note_on_c, 0, 53, 80
1, 264323, Note_off_c, 0, 53, 58
1, 264333, Note_on_c, 0, 46, 77
1, 264336, Note_on_c, 0, 67, 95
1, 264339, Note_on_c, 0, 62, 65
1, 264340, Note_on_c, 0, 56, 94
1, 264413, Note_on_c, 0, 41, 74
1, 264415, Note_off_c, 0, 46, 62
1, 264461, Note_off_c, 0, 67, 56
1, 264482, Note_off_c, 0, 62, 55
1, 264489, Note_off_c, 0, 56, 58
1, 264532, Note_off_c, 0, 41, 62
1, 264534, Note_on_c, 0, 39, 70
1, 264596, Note_on_c, 0, 63, 87
1, 264601, Control_c, 0, 64, 89
1, 264611, Note_on_c, 0, 55, 84
1, 264616, Control_c, 0, 64, 61
1, 264631, Note_on_c, 0, 64, 52
1, 264631, Control_c, 0, 64, 0
1, 264658, Note_off_c, 0, 64, 55
1, 264690, Control_c, 0, 64, 51
1, 264705, Control_c, 0, 64, 67
1, 264716, Note_off_c, 0, 55, 62
1, 264720, Control_c, 0, 64, 95
1, 264734, Control_c, 0, 64, 127
1, 264780, Note_off_c, 0, 39, 60
1, 264782, Note_on_c, 0, 46, 75
1, 264785, Note_off_c, 0, 63, 61
1, 264877, Note_on_c, 0, 51, 84
1, 264907, Note_off_c, 0, 46, 57
1, 264934, Note_on_c, 0, 55, 80
1, 264942, Note_off_c, 0, 51, 62
1, 264954, Note_on_c, 0, 46, 27
1, 265002, Note_off_c, 0, 46, 46
1, 265014, Note_on_c, 0, 75, 106
1, 265015, Note_on_c, 0, 67, 85
1, 265017, Note_on_c, 0, 63, 97
1, 265027, Note_on_c, 0, 51, 83
1, 265028, Note_off_c, 0, 55, 59
1, 265104, Note_off_c, 0, 51, 63
1, 265116, Note_on_c, 0, 46, 76
1, 265197, Note_off_c, 0, 46, 63
1, 265221, Note_on_c, 0, 39, 88
1, 265231, Control_c, 0, 64, 90
1, 265246, Control_c, 0, 64, 74
1, 265260, Control_c, 0, 64, 73
1, 265275, Control_c, 0, 64, 84
1, 265290, Control_c, 0, 64, 127
1, 265366, Note_on_c, 0, 48, 72
1, 265369, Note_off_c, 0, 39, 61
1, 265461, Note_on_c, 0, 51, 91
1, 265490, Note_off_c, 0, 75, 54
1, 265491, Note_off_c, 0, 48, 57
1, 265492, Note_off_c, 0, 63, 54
1, 265532, Note_off_c, 0, 51, 64
1, 265534, Note_on_c, 0, 58, 84
1, 265573, Note_off_c, 0, 67, 55
1, 265614, Note_on_c, 0, 74, 100
1, 265623, Note_on_c, 0, 63, 85
1, 265627, Note_on_c, 0, 70, 79
1, 265635, Note_on_c, 0, 51, 85
1, 265638, Note_off_c, 0, 58, 61
1, 265707, Note_on_c, 0, 48, 68
1, 265723, Note_off_c, 0, 74, 60
1, 265727, Note_off_c, 0, 51, 58
1, 265732, Note_off_c, 0, 63, 53
1, 265792, Note_on_c, 0, 41, 75
1, 265810, Note_off_c, 0, 70, 42
1, 265823, Note_off_c, 0, 48, 54
1, 265826, Note_on_c, 0, 72, 100
1, 265837, Note_on_c, 0, 63, 84
1, 265846, Note_on_c, 0, 70, 63
1, 265861, Control_c, 0, 64, 79
1, 265876, Control_c, 0, 64, 47
1, 265891, Control_c, 0, 64, 0
1, 265951, Control_c, 0, 64, 26
1, 265965, Control_c, 0, 64, 61
1, 265980, Control_c, 0, 64, 72
1, 265983, Note_on_c, 0, 48, 68
1, 265988, Note_off_c, 0, 41, 64
1, 265995, Control_c, 0, 64, 96
1, 266010, Control_c, 0, 64, 127
1, 266064, Note_on_c, 0, 51, 86
1, 266103, Note_off_c, 0, 48, 53
1, 266138, Note_off_c, 0, 51, 64
1, 266145, Note_off_c, 0, 63, 59
1, 266146, Note_on_c, 0, 58, 82
1, 266155, Note_off_c, 0, 70, 61
1, 266215, Note_off_c, 0, 58, 62
1, 266222, Note_on_c, 0, 51, 86
1, 266289, Note_on_c, 0, 48, 73
1, 266313, Note_off_c, 0, 51, 61
1, 266374, Note_on_c, 0, 41, 74
1, 266383, Note_on_c, 0, 74, 97
1, 266386, Note_off_c, 0, 48, 60
1, 266393, Note_on_c, 0, 65, 81
1, 266399, Note_on_c, 0, 69, 73
1, 266414, Note_off_c, 0, 72, 61
1, 266416, Control_c, 0, 64, 92
1, 266431, Control_c, 0, 64, 63
1, 266446, Control_c, 0, 64, 0
1, 266502, Note_on_c, 0, 48, 65
1, 266505, Control_c, 0, 64, 43
1, 266514, Note_off_c, 0, 41, 63
1, 266520, Control_c, 0, 64, 67
1, 266535, Control_c, 0, 64, 85
1, 266550, Control_c, 0, 64, 127
1, 266587, Note_on_c, 0, 51, 82
1, 266597, Note_off_c, 0, 65, 59
1, 266617, Note_off_c, 0, 74, 59
1, 266621, Note_off_c, 0, 48, 61
1, 266645, Note_off_c, 0, 69, 56
1, 266651, Note_off_c, 0, 51, 63
1, 266658, Note_on_c, 0, 57, 75
1, 266731, Note_on_c, 0, 69, 69
1, 266733, Note_on_c, 0, 74, 95
1, 266742, Note_off_c, 0, 57, 63
1, 266744, Note_on_c, 0, 63, 86
1, 266745, Note_on_c, 0, 51, 77
1, 266812, Note_on_c, 0, 48, 66
1, 266814, Note_off_c, 0, 51, 63
1, 266827, Note_off_c, 0, 74, 55
1, 266880, Note_off_c, 0, 63, 60
1, 266884, Note_off_c, 0, 48, 62
1, 266895, Note_on_c, 0, 46, 69
1, 266908, Note_off_c, 0, 69, 62
1, 266936, Control_c, 0, 64, 93
1, 266943, Note_on_c, 0, 70, 91
1, 266951, Control_c, 0, 64, 67
1, 266963, Note_on_c, 0, 62, 72
1, 266966, Control_c, 0, 64, 34
1, 266981, Control_c, 0, 64, 0
1, 267025, Control_c, 0, 64, 45
1, 267039, Control_c, 0, 64, 63
1, 267054, Control_c, 0, 64, 78
1, 267064, Note_on_c, 0, 53, 72
1, 267068, Note_off_c, 0, 46, 62
1, 267068, Note_off_c, 0, 62, 59
1, 267069, Control_c, 0, 64, 127
1, 267158, Note_on_c, 0, 58, 81
1, 267158, Note_off_c, 0, 70, 62
1, 267167, Note_off_c, 0, 53, 59
1, 267228, Note_on_c, 0, 62, 83
1, 267232, Note_off_c, 0, 58, 61
1, 267310, Note_on_c, 0, 58, 85
1, 267316, Note_off_c, 0, 62, 61
1, 267376, Note_on_c, 0, 53, 80
1, 267386, Note_off_c, 0, 58, 63
1, 267450, Note_off_c, 0, 53, 58
1, 267451, Note_on_c, 0, 46, 74
1, 267476, Note_on_c, 0, 82, 99
1, 267487, Note_off_c, 0, 46, 64
1, 267489, Note_on_c, 0, 70, 82
1, 267510, Note_on_c, 0, 76, 7
1, 267578, Note_on_c, 0, 53, 69
1, 267635, Note_off_c, 0, 70, 63
1, 267661, Note_off_c, 0, 82, 62
1, 267662, Note_off_c, 0, 76, 21
1, 267668, Note_on_c, 0, 58, 84
1, 267671, Note_off_c, 0, 53, 63
1, 267748, Note_on_c, 0, 65, 84
1, 267757, Note_off_c, 0, 58, 60
1, 267861, Note_off_c, 0, 65, 58
1, 267862, Note_on_c, 0, 83, 101
1, 267867, Note_on_c, 0, 58, 77
1, 267870, Note_on_c, 0, 71, 87
1, 267950, Note_on_c, 0, 53, 74
1, 267952, Note_off_c, 0, 58, 63
1, 267981, Note_off_c, 0, 53, 66
1, 267986, Note_off_c, 0, 71, 58
1, 268033, Note_off_c, 0, 83, 53
1, 268066, Note_on_c, 0, 46, 77
1, 268108, Control_c, 0, 64, 82
1, 268123, Control_c, 0, 64, 63
1, 268130, Note_on_c, 0, 84, 88
1, 268137, Control_c, 0, 64, 47
1, 268140, Note_on_c, 0, 72, 74
1, 268152, Control_c, 0, 64, 59
1, 268167, Control_c, 0, 64, 67
1, 268183, Note_off_c, 0, 46, 62
1, 268183, Control_c, 0, 64, 82
1, 268198, Control_c, 0, 64, 127
1, 268207, Note_off_c, 0, 72, 62
1, 268279, Note_on_c, 0, 85, 88
1, 268282, Note_off_c, 0, 84, 64
1, 268289, Note_on_c, 0, 82, 82
1, 268320, Note_on_c, 0, 80, 44
1, 268324, Note_on_c, 0, 55, 43
1, 268344, Note_off_c, 0, 80, 57
1, 268351, Note_on_c, 0, 57, 43
1, 268359, Note_off_c, 0, 85, 66
1, 268368, Note_on_c, 0, 84, 91
1, 268368, Note_off_c, 0, 82, 64
1, 268377, Note_on_c, 0, 76, 82
1, 268381, Note_off_c, 0, 57, 55
1, 268389, Note_on_c, 0, 60, 71
1, 268404, Note_off_c, 0, 55, 61
1, 268408, Note_off_c, 0, 76, 65
1, 268444, Note_on_c, 0, 83, 94
1, 268452, Note_on_c, 0, 82, 92
1, 268453, Note_off_c, 0, 84, 63
1, 268457, Note_off_c, 0, 60, 63
1, 268460, Note_on_c, 0, 64, 74
1, 268514, Note_off_c, 0, 82, 57
1, 268517, Note_on_c, 0, 76, 86
1, 268518, Note_on_c, 0, 84, 93
1, 268526, Note_on_c, 0, 60, 70
1, 268530, Note_off_c, 0, 64, 62
1, 268537, Note_off_c, 0, 83, 64
1, 268541, Note_off_c, 0, 76, 69
1, 268558, Note_off_c, 0, 84, 66
1, 268569, Note_on_c, 0, 55, 75
1, 268571, Note_off_c, 0, 60, 64
1, 268603, Note_off_c, 0, 55, 69
1, 268629, Note_on_c, 0, 83, 69
1, 268631, Note_on_c, 0, 80, 72
1, 268631, Note_on_c, 0, 84, 77
1, 268657, Note_off_c, 0, 80, 68
1, 268664, Control_c, 0, 64, 89
1, 268679, Control_c, 0, 64, 65
1, 268684, Note_on_c, 0, 46, 75
1, 268693, Control_c, 0, 64, 33
1, 268707, Note_off_c, 0, 83, 64
1, 268708, Control_c, 0, 64, 12
1, 268711, Note_on_c, 0, 92, 97
1, 268713, Note_off_c, 0, 84, 61
1, 268717, Note_on_c, 0, 80, 83
1, 268723, Control_c, 0, 64, 46
1, 268738, Control_c, 0, 64, 59
1, 268753, Control_c, 0, 64, 67
1, 268759, Note_off_c, 0, 46, 63
1, 268768, Control_c, 0, 64, 93
1, 268783, Control_c, 0, 64, 127
1, 268821, Note_off_c, 0, 92, 66
1, 268834, Note_off_c, 0, 80, 61
1, 268854, Note_on_c, 0, 57, 58
1, 268884, Note_on_c, 0, 61, 71
1, 268889, Note_off_c, 0, 57, 62
1, 268960, Note_off_c, 0, 61, 61
1, 268978, Note_on_c, 0, 65, 78
1, 269012, Note_on_c, 0, 56, 39
1, 269044, Note_on_c, 0, 60, 80
1, 269046, Note_off_c, 0, 56, 54
1, 269055, Note_off_c, 0, 65, 61
1, 269116, Note_on_c, 0, 56, 84
1, 269120, Note_off_c, 0, 60, 65
1, 269125, Note_on_c, 0, 84, 98
1, 269139, Note_on_c, 0, 75, 80
1, 269164, Note_off_c, 0, 56, 62
1, 269172, Note_off_c, 0, 75, 57
1, 269242, Note_on_c, 0, 46, 73
1, 269271, Control_c, 0, 64, 99
1, 269278, Note_on_c, 0, 82, 86
1, 269286, Control_c, 0, 64, 69
1, 269290, Note_on_c, 0, 74, 75
1, 269301, Control_c, 0, 64, 42
1, 269316, Control_c, 0, 64, 0
1, 269317, Note_off_c, 0, 84, 56
1, 269338, Control_c, 0, 64, 26
1, 269353, Control_c, 0, 64, 48
1, 269368, Control_c, 0, 64, 61
1, 269383, Control_c, 0, 64, 72
1, 269394, Note_off_c, 0, 74, 61
1, 269397, Control_c, 0, 64, 110
1, 269412, Control_c, 0, 64, 127
1, 269413, Note_on_c, 0, 53, 72
1, 269414, Note_off_c, 0, 82, 66
1, 269423, Note_on_c, 0, 80, 89
1, 269425, Note_on_c, 0, 84, 87
1, 269438, Note_off_c, 0, 46, 62
1, 269499, Note_on_c, 0, 56, 83
1, 269504, Note_off_c, 0, 80, 65
1, 269505, Note_on_c, 0, 82, 92
1, 269517, Note_off_c, 0, 53, 58
1, 269521, Note_on_c, 0, 74, 70
1, 269528, Note_off_c, 0, 84, 65
1, 269548, Note_off_c, 0, 74, 68
1, 269567, Note_off_c, 0, 56, 62
1, 269576, Note_on_c, 0, 81, 82
1, 269578, Note_on_c, 0, 62, 73
1, 269581, Note_on_c, 0, 80, 86
1, 269585, Note_off_c, 0, 82, 63
1, 269634, Note_off_c, 0, 80, 60
1, 269638, Note_on_c, 0, 74, 84
1, 269643, Note_off_c, 0, 62, 62
1, 269646, Note_on_c, 0, 82, 85
1, 269651, Note_on_c, 0, 56, 67
1, 269665, Note_off_c, 0, 81, 66
1, 269669, Note_off_c, 0, 74, 62
1, 269685, Note_off_c, 0, 82, 65
1, 269706, Note_on_c, 0, 53, 71
1, 269721, Note_off_c, 0, 56, 55
1, 269727, Note_on_c, 0, 82, 91
1, 269745, Note_on_c, 0, 79, 68
1, 269770, Note_off_c, 0, 82, 64
1, 269771, Note_off_c, 0, 79, 68
1, 269784, Control_c, 0, 64, 76
1, 269799, Control_c, 0, 64, 56
1, 269800, Note_on_c, 0, 46, 71
1, 269805, Note_off_c, 0, 53, 64
1, 269809, Note_on_c, 0, 91, 91
1, 269813, Control_c, 0, 64, 0
1, 269820, Note_on_c, 0, 79, 68
1, 269824, Note_on_c, 0, 77, 77
1, 269827, Note_on_c, 0, 89, 70
1, 269840, Note_off_c, 0, 77, 68
1, 269843, Control_c, 0, 64, 38
1, 269846, Note_off_c, 0, 89, 43
1, 269857, Control_c, 0, 64, 59
1, 269872, Control_c, 0, 64, 74
1, 269882, Note_on_c, 0, 51, 75
1, 269886, Note_off_c, 0, 79, 60
1, 269887, Control_c, 0, 64, 127
1, 269897, Note_off_c, 0, 91, 64
1, 269900, Note_off_c, 0, 46, 63
1, 269960, Note_on_c, 0, 55, 80
1, 269969, Note_off_c, 0, 51, 63
1, 270037, Note_off_c, 0, 55, 61
1, 270042, Note_on_c, 0, 63, 75
1, 270134, Note_on_c, 0, 55, 78
1, 270136, Note_off_c, 0, 63, 62
1, 270213, Note_on_c, 0, 51, 79
1, 270213, Note_off_c, 0, 55, 63
1, 270219, Note_on_c, 0, 82, 90
1, 270228, Note_on_c, 0, 74, 78
1, 270272, Note_off_c, 0, 74, 53
1, 270319, Note_on_c, 0, 46, 66
1, 270333, Note_off_c, 0, 51, 57
1, 270380, Note_on_c, 0, 80, 84
1, 270383, Control_c, 0, 64, 75
1, 270388, Note_on_c, 0, 72, 69
1, 270398, Control_c, 0, 64, 53
1, 270413, Control_c, 0, 64, 0
1, 270419, Note_off_c, 0, 82, 61
1, 270443, Control_c, 0, 64, 18
1, 270457, Control_c, 0, 64, 50
1, 270472, Control_c, 0, 64, 65
1, 270487, Control_c, 0, 64, 85
1, 270500, Note_on_c, 0, 51, 66
1, 270502, Control_c, 0, 64, 127
1, 270511, Note_on_c, 0, 82, 88
1, 270514, Note_on_c, 0, 75, 85
1, 270516, Note_off_c, 0, 46, 62
1, 270520, Note_off_c, 0, 72, 62
1, 270524, Note_off_c, 0, 80, 64
1, 270589, Note_on_c, 0, 56, 66
1, 270594, Note_on_c, 0, 80, 87
1, 270598, Note_off_c, 0, 75, 61
1, 270606, Note_on_c, 0, 72, 76
1, 270624, Note_off_c, 0, 82, 64
1, 270631, Note_off_c, 0, 72, 68
1, 270655, Note_off_c, 0, 56, 63
1, 270665, Note_on_c, 0, 79, 80
1, 270666, Note_on_c, 0, 60, 68
1, 270674, Note_on_c, 0, 75, 85
1, 270674, Note_off_c, 0, 80, 63
1, 270705, Note_off_c, 0, 51, 23
1, 270715, Note_on_c, 0, 72, 68
1, 270729, Note_off_c, 0, 75, 61
1, 270729, Note_off_c, 0, 60, 62
1, 270731, Note_on_c, 0, 56, 66
1, 270742, Note_on_c, 0, 80, 80
1, 270755, Note_off_c, 0, 79, 66
1, 270764, Note_off_c, 0, 72, 65
1, 270771, Note_off_c, 0, 80, 66
1, 270804, Note_on_c, 0, 51, 74
1, 270808, Note_off_c, 0, 56, 64
1, 270846, Note_on_c, 0, 80, 84
1, 270849, Note_on_c, 0, 77, 75
1, 270879, Note_off_c, 0, 77, 65
1, 270893, Note_off_c, 0, 80, 61
1, 270911, Note_off_c, 0, 51, 63
1, 270917, Note_on_c, 0, 46, 62
1, 270925, Control_c, 0, 64, 81
1, 270938, Note_on_c, 0, 89, 91
1, 270940, Control_c, 0, 64, 57
1, 270953, Note_on_c, 0, 77, 71
1, 270955, Control_c, 0, 64, 0
1, 270999, Control_c, 0, 64, 44
1, 271013, Control_c, 0, 64, 63
1, 271028, Control_c, 0, 64, 77
1, 271039, Note_on_c, 0, 53, 71
1, 271043, Control_c, 0, 64, 127
1, 271059, Note_off_c, 0, 46, 62
1, 271060, Note_off_c, 0, 89, 62
1, 271084, Note_off_c, 0, 77, 57
1, 271129, Note_on_c, 0, 56, 71
1, 271148, Note_off_c, 0, 53, 59
1, 271186, Note_on_c, 0, 62, 68
1, 271188, Note_off_c, 0, 56, 60
1, 271256, Note_on_c, 0, 80, 93
1, 271265, Note_off_c, 0, 62, 61
1, 271272, Note_on_c, 0, 56, 70
1, 271277, Note_on_c, 0, 77, 72
1, 271330, Note_on_c, 0, 53, 74
1, 271357, Note_off_c, 0, 77, 54
1, 271358, Note_off_c, 0, 56, 56
1, 271412, Note_on_c, 0, 47, 70
1, 271450, Note_off_c, 0, 53, 56
1, 271477, Note_on_c, 0, 79, 90
1, 271489, Control_c, 0, 64, 89
1, 271499, Note_on_c, 0, 77, 64
1, 271503, Control_c, 0, 64, 66
1, 271518, Control_c, 0, 64, 41
1, 271521, Note_off_c, 0, 80, 63
1, 271533, Control_c, 0, 64, 0
1, 271548, Control_c, 0, 64, 38
1, 271563, Control_c, 0, 64, 51
1, 271585, Control_c, 0, 64, 63
1, 271599, Control_c, 0, 64, 72
1, 271614, Control_c, 0, 64, 97
1, 271624, Note_on_c, 0, 53, 61
1, 271627, Note_off_c, 0, 77, 60
1, 271629, Control_c, 0, 64, 127
1, 271656, Note_off_c, 0, 47, 58
1, 271665, Note_off_c, 0, 79, 66
1, 271670, Note_on_c, 0, 82, 86
1, 271698, Note_on_c, 0, 55, 66
1, 271717, Note_on_c, 0, 80, 94
1, 271728, Note_off_c, 0, 53, 55
1, 271746, Note_on_c, 0, 77, 66
1, 271778, Note_off_c, 0, 82, 62
1, 271805, Note_off_c, 0, 55, 61
1, 271806, Note_on_c, 0, 62, 64
1, 271835, Note_off_c, 0, 77, 56
1, 271898, Note_off_c, 0, 62, 61
1, 271904, Note_on_c, 0, 55, 73
1, 271914, Note_off_c, 0, 80, 60
1, 271983, Note_on_c, 0, 53, 66
1, 271990, Note_on_c, 0, 80, 84
1, 271993, Note_off_c, 0, 55, 56
1, 272003, Note_off_c, 0, 80, 72
1, 272009, Note_on_c, 0, 79, 85
1, 272012, Note_on_c, 0, 77, 64
1, 272041, Note_off_c, 0, 77, 66
1, 272070, Note_off_c, 0, 79, 62
1, 272118, Note_on_c, 0, 48, 63
1, 272136, Note_off_c, 0, 53, 58
1, 272163, Note_on_c, 0, 79, 83
1, 272181, Note_on_c, 0, 75, 65
1, 272208, Control_c, 0, 64, 78
1, 272223, Control_c, 0, 64, 60
1, 272238, Control_c, 0, 64, 0
1, 272267, Control_c, 0, 64, 36
1, 272282, Control_c, 0, 64, 55
1, 272297, Control_c, 0, 64, 70
1, 272305, Note_on_c, 0, 51, 74
1, 272312, Control_c, 0, 64, 92
1, 272332, Note_off_c, 0, 48, 56
1, 272334, Control_c, 0, 64, 127
1, 272342, Note_off_c, 0, 75, 59
1, 272356, Note_off_c, 0, 79, 64
1, 272411, Note_on_c, 0, 55, 76
1, 272416, Note_on_c, 0, 80, 101
1, 272428, Note_off_c, 0, 51, 62
1, 272438, Note_on_c, 0, 75, 75
1, 272497, Note_off_c, 0, 55, 63
1, 272505, Note_on_c, 0, 63, 81
1, 272539, Note_off_c, 0, 80, 63
1, 272544, Note_off_c, 0, 75, 60
1, 272593, Note_on_c, 0, 54, 89
1, 272595, Note_on_c, 0, 81, 94
1, 272601, Note_on_c, 0, 75, 88
1, 272606, Note_off_c, 0, 63, 62
1, 272660, Note_off_c, 0, 75, 60
1, 272662, Note_off_c, 0, 81, 66
1, 272684, Note_on_c, 0, 51, 88
1, 272692, Note_off_c, 0, 54, 64
1, 272806, Note_on_c, 0, 50, 77
1, 272843, Note_off_c, 0, 51, 62
1, 272851, Note_on_c, 0, 82, 93
1, 272856, Note_on_c, 0, 70, 78
1, 272857, Note_on_c, 0, 77, 78
1, 272867, Note_on_c, 0, 68, 84
1, 272897, Control_c, 0, 64, 106
1, 272912, Control_c, 0, 64, 72
1, 272926, Control_c, 0, 64, 49
1, 272941, Control_c, 0, 64, 0
1, 272987, Control_c, 0, 64, 30
1, 273002, Control_c, 0, 64, 55
1, 273017, Note_off_c, 0, 50, 65
1, 273017, Control_c, 0, 64, 67
1, 273018, Note_on_c, 0, 56, 71
1, 273031, Control_c, 0, 64, 87
1, 273046, Control_c, 0, 64, 127
1, 273105, Note_on_c, 0, 58, 79
1, 273123, Note_off_c, 0, 56, 59
1, 273130, Note_off_c, 0, 82, 57
1, 273171, Note_off_c, 0, 58, 61
1, 273174, Note_off_c, 0, 68, 55
1, 273177, Note_on_c, 0, 65, 78
1, 273178, Note_off_c, 0, 70, 55
1, 273224, Note_off_c, 0, 77, 61
1, 273254, Note_on_c, 0, 58, 85
1, 273256, Note_off_c, 0, 65, 57
1, 273317, Note_on_c, 0, 56, 88
1, 273323, Note_off_c, 0, 58, 65
1, 273356, Note_off_c, 0, 56, 65
1, 273416, Note_on_c, 0, 70, 97
1, 273417, Note_on_c, 0, 82, 96
1, 273418, Note_on_c, 0, 79, 80
1, 273423, Note_on_c, 0, 46, 78
1, 273427, Note_on_c, 0, 68, 82
1, 273427, Note_on_c, 0, 74, 72
1, 273467, Note_on_c, 0, 44, 17
1, 273507, Note_off_c, 0, 44, 51
1, 273526, Note_on_c, 0, 53, 85
1, 273537, Note_off_c, 0, 46, 62
1, 273624, Note_on_c, 0, 58, 89
1, 273644, Note_off_c, 0, 53, 60
1, 273659, Note_off_c, 0, 68, 54
1, 273662, Note_off_c, 0, 82, 58
1, 273668, Note_off_c, 0, 70, 60
1, 273698, Note_on_c, 0, 62, 88
1, 273698, Note_off_c, 0, 74, 57
1, 273705, Note_off_c, 0, 79, 60
1, 273720, Note_off_c, 0, 58, 61
1, 273808, Note_on_c, 0, 82, 101
1, 273808, Note_on_c, 0, 70, 94
1, 273811, Note_on_c, 0, 74, 74
1, 273812, Note_on_c, 0, 58, 89
1, 273814, Note_on_c, 0, 79, 83
1, 273815, Note_off_c, 0, 62, 60
1, 273826, Note_on_c, 0, 68, 89
1, 273905, Note_on_c, 0, 53, 87
1, 273914, Note_off_c, 0, 58, 63
1, 273937, Note_off_c, 0, 82, 63
1, 273953, Note_off_c, 0, 53, 65
1, 273955, Note_off_c, 0, 79, 60
1, 273995, Note_off_c, 0, 70, 57
1, 274035, Note_off_c, 0, 68, 54
1, 274080, Note_on_c, 0, 39, 82
1, 274104, Note_off_c, 0, 74, 60
1, 274126, Note_on_c, 0, 75, 93
1, 274141, Note_on_c, 0, 67, 81
1, 274157, Control_c, 0, 64, 85
1, 274172, Control_c, 0, 64, 63
1, 274187, Control_c, 0, 64, 15
1, 274202, Control_c, 0, 64, 0
1, 274232, Control_c, 0, 64, 23
1, 274247, Control_c, 0, 64, 51
1, 274261, Control_c, 0, 64, 65
1, 274276, Control_c, 0, 64, 79
1, 274283, Note_off_c, 0, 39, 61
1, 274289, Note_on_c, 0, 46, 71
1, 274291, Control_c, 0, 64, 127
1, 274345, Note_off_c, 0, 67, 58
1, 274386, Note_on_c, 0, 51, 85
1, 274414, Note_off_c, 0, 46, 61
1, 274446, Note_off_c, 0, 75, 60
1, 274449, Note_off_c, 0, 51, 62
1, 274457, Note_on_c, 0, 55, 78
1, 274535, Note_off_c, 0, 55, 40
1, 274536, Note_on_c, 0, 58, 85
1, 274620, Note_on_c, 0, 63, 88
1, 274634, Note_off_c, 0, 58, 61
1, 274699, Note_off_c, 0, 63, 62
1, 274704, Note_on_c, 0, 67, 80
1, 274709, Note_on_c, 0, 87, 105
1, 274710, Note_on_c, 0, 79, 76
1, 274713, Note_on_c, 0, 75, 99
1, 274789, Note_off_c, 0, 67, 60
1, 274803, Note_on_c, 0, 63, 79
1, 274875, Note_on_c, 0, 58, 78
1, 274878, Note_off_c, 0, 63, 63
1, 274926, Note_off_c, 0, 87, 61
1, 274932, Note_off_c, 0, 75, 58
1, 274935, Note_off_c, 0, 58, 62
1, 274966, Note_on_c, 0, 55, 83
1, 275038, Note_on_c, 0, 86, 98
1, 275041, Note_on_c, 0, 75, 100
1, 275048, Note_on_c, 0, 82, 77
1, 275050, Note_off_c, 0, 55, 59
1, 275054, Note_on_c, 0, 51, 86
1, 275066, Note_off_c, 0, 79, 55
1, 275127, Note_on_c, 0, 46, 76
1, 275141, Note_off_c, 0, 51, 62
1, 275141, Note_off_c, 0, 86, 62
1, 275158, Note_off_c, 0, 75, 55
1, 275174, Note_off_c, 0, 82, 58
1, 275208, Note_on_c, 0, 41, 85
1, 275236, Note_off_c, 0, 46, 53
1, 275239, Note_on_c, 0, 84, 102
1, 275245, Control_c, 0, 64, 104
1, 275251, Note_on_c, 0, 75, 94
1, 275260, Control_c, 0, 64, 70
1, 275267, Note_on_c, 0, 82, 70
1, 275275, Control_c, 0, 64, 0
1, 275342, Control_c, 0, 64, 36
1, 275357, Control_c, 0, 64, 64
1, 275372, Control_c, 0, 64, 84
1, 275373, Note_on_c, 0, 48, 68
1, 275374, Note_off_c, 0, 41, 64
1, 275388, Control_c, 0, 64, 127
1, 275458, Note_on_c, 0, 51, 92
1, 275475, Note_off_c, 0, 75, 57
1, 275513, Note_off_c, 0, 48, 40
1, 275528, Note_off_c, 0, 51, 63
1, 275531, Note_off_c, 0, 82, 59
1, 275531, Note_on_c, 0, 58, 88
1, 275606, Note_off_c, 0, 58, 62
1, 275615, Note_on_c, 0, 51, 90
1, 275647, Note_on_c, 0, 50, 67
1, 275689, Note_on_c, 0, 48, 79
1, 275689, Note_off_c, 0, 51, 53
1, 275699, Note_off_c, 0, 50, 60
1, 275759, Note_off_c, 0, 84, 59
1, 275771, Note_on_c, 0, 41, 89
1, 275778, Note_on_c, 0, 86, 98
1, 275781, Note_on_c, 0, 77, 95
1, 275787, Note_on_c, 0, 81, 72
1, 275788, Control_c, 0, 64, 94
1, 275791, Note_off_c, 0, 48, 61
1, 275803, Control_c, 0, 64, 64
1, 275817, Control_c, 0, 64, 0
1, 275869, Note_on_c, 0, 48, 79
1, 275876, Control_c, 0, 64, 53
1, 275886, Note_off_c, 0, 41, 64
1, 275891, Control_c, 0, 64, 70
1, 275906, Control_c, 0, 64, 99
1, 275921, Control_c, 0, 64, 127
1, 275961, Note_on_c, 0, 51, 95
1, 275974, Note_off_c, 0, 77, 59
1, 275991, Note_off_c, 0, 48, 63
1, 275995, Note_off_c, 0, 86, 56
1, 276020, Note_off_c, 0, 81, 58
1, 276042, Note_on_c, 0, 57, 99
1, 276059, Note_off_c, 0, 51, 66
1, 276142, Poly_aftertouch_c, 0, 49, 127
1, 276148, Note_on_c, 0, 81, 81
1, 276150, Note_on_c, 0, 75, 112
1, 276151, Note_on_c, 0, 86, 100
1, 276152, Note_on_c, 0, 51, 93
1, 276163, Note_off_c, 0, 57, 57
1, 276174, Poly_aftertouch_c, 0, 49, 0
1, 276241, Note_on_c, 0, 48, 90
1, 276252, Note_off_c, 0, 51, 65
1, 276281, Note_off_c, 0, 48, 65
1, 276302, Note_off_c, 0, 86, 53
1, 276353, Note_off_c, 0, 75, 50
1, 276431, Note_on_c, 0, 34, 99
1, 276434, Note_off_c, 0, 81, 23
1, 276470, Note_on_c, 0, 82, 96
1, 276474, Note_on_c, 0, 74, 89
1, 276477, Control_c, 0, 64, 88
1, 276491, Control_c, 0, 64, 47
1, 276506, Control_c, 0, 64, 0
1, 276581, Control_c, 0, 64, 39
1, 276595, Control_c, 0, 64, 72
1, 276610, Control_c, 0, 64, 127
1, 276664, Poly_aftertouch_c, 0, 39, 127
1, 276668, Note_off_c, 0, 34, 58
1, 276676, Note_on_c, 0, 46, 83
1, 276722, Poly_aftertouch_c, 0, 39, 0
1, 276722, Note_off_c, 0, 46, 62
1, 276736, Note_off_c, 0, 74, 60
1, 276789, Note_off_c, 0, 82, 62
1, 276799, Note_on_c, 0, 53, 78
1, 276885, Note_on_c, 0, 58, 88
1, 276905, Note_off_c, 0, 53, 59
1, 276953, Note_on_c, 0, 62, 80
1, 276956, Note_off_c, 0, 58, 62
1, 276980, Note_off_c, 0, 62, 69
1, 277038, Note_on_c, 0, 65, 84
1, 277127, Note_off_c, 0, 65, 59
1, 277128, Note_on_c, 0, 94, 107
1, 277129, Note_on_c, 0, 82, 103
1, 277135, Note_on_c, 0, 74, 90
1, 277140, Note_on_c, 0, 88, 44
1, 277164, Note_off_c, 0, 88, 58
1, 277233, Note_off_c, 0, 74, 58
1, 277238, Note_on_c, 0, 70, 81
1, 277314, Note_on_c, 0, 89, 50
1, 277326, Note_off_c, 0, 94, 61
1, 277329, Note_off_c, 0, 70, 62
1, 277330, Note_on_c, 0, 65, 81
1, 277330, Note_off_c, 0, 82, 58
1, 277376, Note_off_c, 0, 65, 62
1, 277424, Note_on_c, 0, 62, 84
1, 277475, Note_off_c, 0, 89, 37
1, 277537, Note_on_c, 0, 58, 80
1, 277541, Note_off_c, 0, 62, 63
1, 277647, Note_on_c, 0, 53, 74
1, 277654, Note_on_c, 0, 94, 102
1, 277655, Note_off_c, 0, 58, 60
1, 277660, Note_on_c, 0, 82, 94
1, 277666, Note_on_c, 0, 52, 43
1, 277699, Note_off_c, 0, 52, 34
1, 277770, Note_off_c, 0, 82, 63
1, 277778, Note_off_c, 0, 94, 63
1, 277812, Note_on_c, 0, 46, 79
1, 277827, Note_off_c, 0, 53, 58
1, 277862, Note_on_c, 0, 94, 105
1, 277866, Note_on_c, 0, 82, 92
1, 277916, Control_c, 0, 64, 121
1, 277931, Control_c, 0, 64, 80
1, 277945, Control_c, 0, 64, 60
1, 277960, Control_c, 0, 64, 0
1, 278034, Control_c, 0, 64, 34
1, 278049, Control_c, 0, 64, 59
1, 278056, Note_on_c, 0, 52, 69
1, 278064, Control_c, 0, 64, 69
1, 278078, Control_c, 0, 64, 90
1, 278089, Note_off_c, 0, 94, 62
1, 278093, Control_c, 0, 64, 127
1, 278108, Note_off_c, 0, 46, 60
1, 278155, Note_off_c, 0, 82, 60
1, 278172, Note_on_c, 0, 55, 80
1, 278199, Note_off_c, 0, 52, 61
1, 278272, Note_on_c, 0, 60, 80
1, 278279, Note_off_c, 0, 55, 63
1, 278369, Note_on_c, 0, 55, 82
1, 278381, Note_off_c, 0, 60, 61
1, 278441, Note_on_c, 0, 52, 77
1, 278467, Note_off_c, 0, 55, 61
1, 278535, Note_on_c, 0, 46, 67
1, 278563, Note_off_c, 0, 52, 61
1, 278586, Note_on_c, 0, 72, 92
1, 278596, Note_on_c, 0, 60, 80
1, 278637, Poly_aftertouch_c, 0, 50, 127
1, 278718, Note_on_c, 0, 52, 69
1, 278744, Note_off_c, 0, 46, 57
1, 278766, Note_off_c, 0, 60, 59
1, 278799, Note_on_c, 0, 55, 75
1, 278810, Note_off_c, 0, 72, 60
1, 278812, Poly_aftertouch_c, 0, 50, 0
1, 278819, Note_off_c, 0, 52, 59
1, 278869, Note_on_c, 0, 60, 80
1, 278882, Note_off_c, 0, 55, 60
1, 278949, Note_on_c, 0, 74, 94
1, 278951, Note_on_c, 0, 62, 86
1, 278957, Note_on_c, 0, 55, 69
1, 278958, Note_off_c, 0, 60, 58
1, 279007, Note_off_c, 0, 62, 61
1, 279013, Note_on_c, 0, 52, 74
1, 279026, Note_off_c, 0, 55, 62
1, 279043, Note_off_c, 0, 74, 64
1, 279098, Note_on_c, 0, 46, 78
1, 279121, Note_off_c, 0, 52, 61
1, 279131, Control_c, 0, 64, 74
1, 279141, Note_on_c, 0, 63, 77
1, 279146, Control_c, 0, 64, 51
1, 279161, Control_c, 0, 64, 0
1, 279175, Control_c, 0, 64, 47
1, 279190, Control_c, 0, 64, 63
1, 279199, Note_off_c, 0, 63, 61
1, 279205, Control_c, 0, 64, 77
1, 279211, Note_on_c, 0, 75, 77
1, 279220, Control_c, 0, 64, 127
1, 279258, Note_off_c, 0, 75, 63
1, 279262, Note_on_c, 0, 77, 85
1, 279283, Poly_aftertouch_c, 0, 65, 0
1, 279302, Note_off_c, 0, 46, 62
1, 279305, Note_on_c, 0, 75, 79
1, 279307, Note_on_c, 0, 53, 64
1, 279325, Note_off_c, 0, 77, 62
1, 279362, Note_off_c, 0, 75, 63
1, 279391, Note_on_c, 0, 57, 73
1, 279398, Note_on_c, 0, 74, 92
1, 279403, Note_on_c, 0, 62, 82
1, 279422, Note_off_c, 0, 53, 56
1, 279442, Note_off_c, 0, 62, 60
1, 279457, Note_off_c, 0, 74, 63
1, 279483, Note_off_c, 0, 57, 64
1, 279484, Note_on_c, 0, 60, 76
1, 279559, Note_on_c, 0, 75, 99
1, 279565, Note_on_c, 0, 63, 95
1, 279569, Note_on_c, 0, 57, 79
1, 279569, Note_off_c, 0, 60, 61
1, 279604, Note_off_c, 0, 63, 58
1, 279624, Note_off_c, 0, 75, 61
1, 279633, Note_on_c, 0, 53, 79
1, 279636, Note_off_c, 0, 57, 64
1, 279724, Control_c, 0, 64, 119
1, 279725, Note_on_c, 0, 46, 81
1, 279737, Note_on_c, 0, 79, 100
1, 279739, Control_c, 0, 64, 72
1, 279746, Note_on_c, 0, 67, 86
1, 279747, Note_on_c, 0, 74, 78
1, 279754, Control_c, 0, 64, 52
1, 279769, Control_c, 0, 64, 0
1, 279774, Note_off_c, 0, 53, 58
1, 279784, Control_c, 0, 64, 18
1, 279798, Control_c, 0, 64, 46
1, 279821, Control_c, 0, 64, 61
1, 279824, Note_off_c, 0, 67, 63
1, 279836, Control_c, 0, 64, 72
1, 279851, Control_c, 0, 64, 127
1, 279858, Note_off_c, 0, 74, 61
1, 279870, Note_on_c, 0, 53, 81
1, 279898, Note_off_c, 0, 46, 61
1, 279902, Note_off_c, 0, 79, 56
1, 279910, Note_on_c, 0, 68, 101
1, 279973, Note_off_c, 0, 68, 61
1, 279994, Note_on_c, 0, 56, 83
1, 280008, Note_on_c, 0, 79, 98
1, 280016, Note_on_c, 0, 74, 84
1, 280032, Note_off_c, 0, 53, 60
1, 280107, Note_on_c, 0, 62, 77
1, 280117, Note_off_c, 0, 56, 62
1, 280166, Note_on_c, 0, 70, 102
1, 280202, Note_off_c, 0, 74, 58
1, 280246, Note_off_c, 0, 62, 50
1, 280265, Note_on_c, 0, 56, 85
1, 280281, Note_off_c, 0, 79, 53
1, 280348, Note_off_c, 0, 70, 61
1, 280353, Note_on_c, 0, 53, 83
1, 280383, Note_off_c, 0, 56, 61
1, 280414, Note_on_c, 0, 68, 88
1, 280497, Note_on_c, 0, 77, 99
1, 280535, Note_on_c, 0, 46, 67
1, 280542, Note_off_c, 0, 53, 56
1, 280620, Note_off_c, 0, 46, 63
1, 280640, Note_off_c, 0, 68, 59
1, 280652, Note_on_c, 0, 75, 98
1, 280678, Note_off_c, 0, 77, 66
1, 280796, Note_off_c, 0, 75, 55
1, 280837, Note_on_c, 0, 39, 63
1, 280900, Note_on_c, 0, 75, 95
1, 280918, Note_on_c, 0, 67, 74
1, 280985, Control_c, 0, 64, 100
1, 281000, Control_c, 0, 64, 74
1, 281015, Control_c, 0, 64, 58
1, 281030, Control_c, 0, 64, 0
1, 281118, Control_c, 0, 64, 24
1, 281133, Control_c, 0, 64, 47
1, 281148, Control_c, 0, 64, 62
1, 281161, Note_on_c, 0, 46, 55
1, 281162, Control_c, 0, 64, 69
1, 281168, Note_off_c, 0, 39, 62
1, 281177, Control_c, 0, 64, 82
1, 281192, Control_c, 0, 64, 127
1, 281274, Note_on_c, 0, 51, 65
1, 281347, Note_off_c, 0, 51, 63
1, 281361, Note_on_c, 0, 55, 63
1, 281431, Note_off_c, 0, 46, 40
1, 281431, Note_off_c, 0, 55, 61
1, 281435, Note_on_c, 0, 51, 79
1, 281442, Note_off_c, 0, 67, 52
1, 281505, Note_off_c, 0, 51, 64
1, 281507, Note_on_c, 0, 46, 73
1, 281583, Note_on_c, 0, 39, 78
1, 281591, Note_off_c, 0, 46, 62
1, 281688, Note_off_c, 0, 39, 61
1, 281689, Note_on_c, 0, 46, 67
1, 281781, Note_on_c, 0, 51, 82
1, 281811, Note_off_c, 0, 75, 54
1, 281821, Note_off_c, 0, 46, 61
1, 281857, Note_on_c, 0, 67, 85
1, 281912, Note_off_c, 0, 51, 60
1, 281922, Note_on_c, 0, 58, 60
1, 281946, Note_on_c, 0, 68, 94
1, 281973, Note_off_c, 0, 67, 62
1, 282020, Note_on_c, 0, 70, 93
1, 282023, Note_off_c, 0, 58, 61
1, 282031, Note_on_c, 0, 51, 70
1, 282045, Note_off_c, 0, 68, 61
1, 282089, Note_on_c, 0, 74, 85
1, 282095, Note_off_c, 0, 70, 66
1, 282134, Note_off_c, 0, 51, 62
1, 282139, Note_on_c, 0, 46, 62
1, 282154, Note_on_c, 0, 72, 88
1, 282191, Note_off_c, 0, 74, 61
1, 282274, Note_on_c, 0, 39, 52
1, 282274, Control_c, 0, 64, 114
1, 282282, Note_on_c, 0, 70, 81
1, 282289, Control_c, 0, 64, 83
1, 282298, Note_off_c, 0, 46, 38
1, 282304, Control_c, 0, 64, 66
1, 282319, Control_c, 0, 64, 43
1, 282334, Control_c, 0, 64, 0
1, 282340, Note_off_c, 0, 72, 61
1, 282378, Control_c, 0, 64, 13
1, 282393, Control_c, 0, 64, 41
1, 282408, Control_c, 0, 64, 58
1, 282423, Control_c, 0, 64, 67
1, 282438, Control_c, 0, 64, 80
1, 282453, Note_off_c, 0, 39, 59
1, 282453, Control_c, 0, 64, 127
1, 282453, Note_on_c, 0, 46, 58
1, 282560, Note_off_c, 0, 46, 56
1, 282575, Note_on_c, 0, 51, 57
1, 282621, Note_off_c, 0, 51, 63
1, 282641, Note_on_c, 0, 55, 60
1, 282709, Note_off_c, 0, 55, 59
1, 282712, Note_on_c, 0, 51, 75
1, 282793, Note_on_c, 0, 46, 73
1, 282796, Note_off_c, 0, 51, 64
1, 282887, Note_on_c, 0, 39, 74
1, 282889, Note_off_c, 0, 46, 62
1, 282969, Note_off_c, 0, 39, 60
1, 282970, Note_off_c, 0, 70, 31
1, 282971, Note_on_c, 0, 46, 74
1, 283058, Note_on_c, 0, 51, 80
1, 283068, Note_off_c, 0, 46, 63
1, 283122, Note_on_c, 0, 67, 85
1, 283164, Note_off_c, 0, 51, 61
1, 283183, Note_on_c, 0, 58, 63
1, 283198, Note_on_c, 0, 68, 92
1, 283219, Note_off_c, 0, 67, 62
1, 283271, Note_on_c, 0, 70, 93
1, 283277, Note_off_c, 0, 58, 62
1, 283286, Note_on_c, 0, 51, 68
1, 283300, Note_off_c, 0, 68, 61
1, 283330, Note_on_c, 0, 74, 89
1, 283340, Note_off_c, 0, 70, 65
1, 283383, Note_off_c, 0, 51, 62
1, 283389, Note_on_c, 0, 46, 64
1, 283401, Note_on_c, 0, 72, 89
1, 283433, Note_off_c, 0, 74, 63
1, 283519, Note_off_c, 0, 46, 53
1, 283522, Note_on_c, 0, 39, 52
1, 283529, Control_c, 0, 64, 92
1, 283532, Note_on_c, 0, 70, 84
1, 283544, Control_c, 0, 64, 75
1, 283565, Control_c, 0, 64, 63
1, 283580, Control_c, 0, 64, 48
1, 283585, Note_off_c, 0, 72, 55
1, 283595, Control_c, 0, 64, 43
1, 283610, Control_c, 0, 64, 43
1, 283639, Control_c, 0, 64, 45
1, 283654, Control_c, 0, 64, 52
1, 283669, Control_c, 0, 64, 61
1, 283684, Control_c, 0, 64, 69
1, 283691, Note_on_c, 0, 46, 56
1, 283696, Note_off_c, 0, 39, 61
1, 283699, Control_c, 0, 64, 84
1, 283714, Control_c, 0, 64, 127
1, 283797, Note_on_c, 0, 50, 65
1, 283821, Note_off_c, 0, 46, 55
1, 283866, Note_off_c, 0, 50, 64
1, 283874, Note_on_c, 0, 56, 67
1, 283943, Note_on_c, 0, 50, 68
1, 283944, Note_off_c, 0, 56, 63
1, 284018, Note_off_c, 0, 50, 64
1, 284022, Note_on_c, 0, 46, 78
1, 284098, Note_on_c, 0, 39, 71
1, 284101, Note_off_c, 0, 46, 62
1, 284190, Note_off_c, 0, 39, 63
1, 284193, Note_on_c, 0, 46, 66
1, 284277, Note_on_c, 0, 50, 69
1, 284315, Note_off_c, 0, 46, 61
1, 284349, Note_on_c, 0, 65, 84
1, 284378, Note_off_c, 0, 70, 12
1, 284388, Note_off_c, 0, 50, 61
1, 284405, Note_on_c, 0, 58, 62
1, 284435, Note_on_c, 0, 68, 90
1, 284465, Note_off_c, 0, 65, 62
1, 284497, Note_off_c, 0, 58, 62
1, 284510, Note_on_c, 0, 70, 90
1, 284511, Note_on_c, 0, 50, 64
1, 284544, Note_off_c, 0, 68, 59
1, 284571, Note_on_c, 0, 74, 86
1, 284584, Note_off_c, 0, 70, 65
1, 284609, Note_off_c, 0, 50, 58
1, 284617, Note_on_c, 0, 46, 59
1, 284641, Note_on_c, 0, 72, 86
1, 284674, Note_off_c, 0, 74, 62
1, 284718, Note_off_c, 0, 46, 56
1, 284724, Note_on_c, 0, 39, 57
1, 284743, Control_c, 0, 64, 93
1, 284758, Control_c, 0, 64, 67
1, 284759, Note_on_c, 0, 70, 86
1, 284773, Control_c, 0, 64, 23
1, 284787, Control_c, 0, 64, 0
1, 284790, Note_off_c, 0, 72, 61
1, 284832, Control_c, 0, 64, 36
1, 284847, Control_c, 0, 64, 61
1, 284862, Control_c, 0, 64, 74
1, 284870, Note_on_c, 0, 46, 61
1, 284876, Note_off_c, 0, 39, 61
1, 284876, Control_c, 0, 64, 127
1, 284891, Note_off_c, 0, 70, 65
1, 284968, Note_on_c, 0, 51, 74
1, 285024, Note_on_c, 0, 61, 82
1, 285032, Note_off_c, 0, 51, 63
1, 285033, Note_on_c, 0, 55, 66
1, 285109, Note_on_c, 0, 63, 84
1, 285112, Note_off_c, 0, 46, 19
1, 285128, Note_off_c, 0, 55, 58
1, 285128, Note_off_c, 0, 61, 59
1, 285148, Note_on_c, 0, 51, 70
1, 285168, Note_on_c, 0, 67, 79
1, 285193, Note_off_c, 0, 63, 61
1, 285216, Note_on_c, 0, 72, 90
1, 285225, Note_off_c, 0, 51, 63
1, 285225, Note_off_c, 0, 67, 64
1, 285229, Note_on_c, 0, 46, 62
1, 285280, Note_on_c, 0, 70, 85
1, 285318, Note_off_c, 0, 46, 59
1, 285324, Note_off_c, 0, 72, 65
1, 285359, Note_on_c, 0, 68, 90
1, 285370, Note_on_c, 0, 39, 61
1, 285374, Control_c, 0, 64, 98
1, 285389, Note_off_c, 0, 70, 64
1, 285389, Control_c, 0, 64, 68
1, 285404, Control_c, 0, 64, 29
1, 285418, Control_c, 0, 64, 0
1, 285463, Control_c, 0, 64, 33
1, 285478, Control_c, 0, 64, 56
1, 285485, Note_on_c, 0, 47, 70
1, 285492, Control_c, 0, 64, 67
1, 285493, Note_off_c, 0, 39, 62
1, 285507, Control_c, 0, 64, 83
1, 285522, Control_c, 0, 64, 127
1, 285536, Note_off_c, 0, 68, 55
1, 285592, Note_on_c, 0, 51, 82
1, 285634, Note_off_c, 0, 47, 51
1, 285714, Note_on_c, 0, 56, 70
1, 285714, Note_on_c, 0, 59, 92
1, 285727, Note_off_c, 0, 51, 58
1, 285854, Note_off_c, 0, 56, 60
1, 285857, Note_on_c, 0, 51, 67
1, 285881, Note_on_c, 0, 63, 89
1, 285949, Note_off_c, 0, 59, 53
1, 285985, Note_on_c, 0, 47, 66
1, 285991, Note_off_c, 0, 51, 62
1, 285994, Note_on_c, 0, 65, 94
1, 286030, Note_off_c, 0, 63, 62
1, 286030, Note_off_c, 0, 47, 63
1, 286133, Note_on_c, 0, 39, 53
1, 286191, Note_on_c, 0, 67, 77
1, 286210, Control_c, 0, 64, 118
1, 286225, Control_c, 0, 64, 98
1, 286239, Control_c, 0, 64, 83
1, 286251, Note_off_c, 0, 65, 54
1, 286254, Control_c, 0, 64, 70
1, 286269, Control_c, 0, 64, 56
1, 286284, Control_c, 0, 64, 26
1, 286299, Control_c, 0, 64, 0
1, 286358, Control_c, 0, 64, 35
1, 286361, Note_on_c, 0, 46, 58
1, 286364, Note_off_c, 0, 39, 61
1, 286373, Control_c, 0, 64, 57
1, 286388, Control_c, 0, 64, 67
1, 286403, Control_c, 0, 64, 81
1, 286418, Control_c, 0, 64, 127
1, 286468, Note_on_c, 0, 51, 65
1, 286533, Note_off_c, 0, 51, 63
1, 286558, Note_on_c, 0, 55, 65
1, 286624, Note_off_c, 0, 55, 62
1, 286626, Note_on_c, 0, 51, 77
1, 286632, Note_off_c, 0, 46, 16
1, 286654, Note_off_c, 0, 67, 58
1, 286701, Note_on_c, 0, 46, 70
1, 286701, Note_off_c, 0, 51, 65
1, 286771, Note_on_c, 0, 39, 76
1, 286776, Note_off_c, 0, 46, 63
1, 286850, Note_off_c, 0, 39, 62
1, 286853, Note_on_c, 0, 46, 72
1, 286935, Note_on_c, 0, 51, 84
1, 286965, Note_off_c, 0, 46, 62
1, 286993, Note_on_c, 0, 67, 84
1, 287026, Note_off_c, 0, 51, 64
1, 287041, Note_on_c, 0, 58, 74
1, 287059, Note_on_c, 0, 68, 89
1, 287076, Note_off_c, 0, 67, 60
1, 287115, Note_off_c, 0, 58, 59
1, 287124, Note_on_c, 0, 70, 90
1, 287129, Note_on_c, 0, 51, 78
1, 287151, Note_off_c, 0, 68, 60
1, 287178, Note_on_c, 0, 74, 84
1, 287190, Note_off_c, 0, 70, 64
1, 287206, Note_off_c, 0, 51, 62
1, 287208, Note_on_c, 0, 46, 70
1, 287238, Note_on_c, 0, 72, 88
1, 287263, Note_off_c, 0, 74, 64
1, 287270, Control_c, 0, 64, 111
1, 287285, Control_c, 0, 64, 70
1, 287296, Note_on_c, 0, 39, 63
1, 287296, Note_off_c, 0, 46, 59
1, 287307, Control_c, 0, 64, 0
1, 287336, Note_on_c, 0, 70, 91
1, 287362, Note_off_c, 0, 72, 64
1, 287398, Control_c, 0, 64, 52
1, 287400, Note_off_c, 0, 70, 65
1, 287412, Control_c, 0, 64, 76
1, 287427, Control_c, 0, 64, 127
1, 287515, Note_on_c, 0, 82, 79
1, 287517, Note_off_c, 0, 39, 60
1, 287529, Note_on_c, 0, 46, 54
1, 287544, Note_off_c, 0, 82, 63
1, 287655, Note_on_c, 0, 51, 61
1, 287664, Note_on_c, 0, 94, 84
1, 287729, Note_off_c, 0, 51, 62
1, 287747, Note_off_c, 0, 94, 62
1, 287753, Note_on_c, 0, 55, 61
1, 287776, Note_off_c, 0, 46, 21
1, 287813, Note_off_c, 0, 55, 60
1, 287828, Note_on_c, 0, 51, 73
1, 287887, Note_off_c, 0, 51, 64
1, 287895, Note_on_c, 0, 46, 70
1, 287968, Note_on_c, 0, 39, 78
1, 287976, Note_off_c, 0, 46, 61
1, 288074, Note_on_c, 0, 46, 74
1, 288077, Note_off_c, 0, 39, 62
1, 288161, Note_on_c, 0, 51, 85
1, 288183, Note_off_c, 0, 46, 63
1, 288234, Note_on_c, 0, 67, 87
1, 288242, Note_off_c, 0, 51, 64
1, 288270, Note_on_c, 0, 58, 76
1, 288301, Note_on_c, 0, 68, 95
1, 288320, Note_off_c, 0, 67, 64
1, 288339, Note_off_c, 0, 58, 59
1, 288351, Note_on_c, 0, 51, 76
1, 288367, Note_on_c, 0, 70, 92
1, 288393, Note_off_c, 0, 68, 62
1, 288418, Note_on_c, 0, 74, 84
1, 288429, Note_on_c, 0, 46, 73
1, 288429, Note_off_c, 0, 70, 65
1, 288434, Note_off_c, 0, 51, 64
1, 288474, Note_on_c, 0, 72, 86
1, 288508, Note_off_c, 0, 74, 63
1, 288519, Note_on_c, 0, 39, 75
1, 288529, Note_off_c, 0, 46, 57
1, 288531, Control_c, 0, 64, 73
1, 288546, Control_c, 0, 64, 0
1, 288551, Note_on_c, 0, 70, 94
1, 288581, Note_off_c, 0, 72, 64
1, 288606, Control_c, 0, 64, 57
1, 288612, Note_off_c, 0, 70, 67
1, 288620, Control_c, 0, 64, 84
1, 288635, Control_c, 0, 64, 127
1, 288713, Note_off_c, 0, 39, 61
1, 288714, Note_on_c, 0, 46, 69
1, 288718, Note_on_c, 0, 82, 98
1, 288761, Note_off_c, 0, 82, 66
1, 288833, Note_on_c, 0, 50, 66
1, 288856, Note_off_c, 0, 46, 56
1, 288878, Note_on_c, 0, 94, 106
1, 288927, Note_off_c, 0, 50, 61
1, 288937, Note_on_c, 0, 56, 68
1, 288976, Note_off_c, 0, 94, 63
1, 289013, Note_off_c, 0, 56, 64
1, 289014, Note_on_c, 0, 50, 73
1, 289083, Note_off_c, 0, 50, 63
1, 289087, Note_on_c, 0, 46, 77
1, 289170, Note_on_c, 0, 39, 77
1, 289196, Note_off_c, 0, 46, 58
1, 289289, Note_on_c, 0, 46, 64
1, 289291, Note_off_c, 0, 39, 61
1, 289380, Note_on_c, 0, 50, 68
1, 289401, Note_off_c, 0, 46, 62
1, 289464, Note_on_c, 0, 65, 83
1, 289497, Note_on_c, 0, 58, 63
1, 289512, Note_off_c, 0, 50, 53
1, 289562, Note_on_c, 0, 68, 92
1, 289591, Note_off_c, 0, 65, 63
1, 289603, Note_off_c, 0, 58, 61
1, 289611, Note_on_c, 0, 50, 54
1, 289637, Note_on_c, 0, 70, 90
1, 289667, Note_off_c, 0, 68, 59
1, 289696, Note_on_c, 0, 74, 89
1, 289711, Note_off_c, 0, 70, 64
1, 289714, Note_off_c, 0, 50, 62
1, 289734, Note_on_c, 0, 46, 60
1, 289768, Note_on_c, 0, 72, 85
1, 289808, Note_off_c, 0, 74, 61
1, 289846, Note_off_c, 0, 46, 55
1, 289848, Note_on_c, 0, 39, 59
1, 289877, Note_on_c, 0, 70, 91
1, 289895, Control_c, 0, 64, 123
1, 289910, Control_c, 0, 64, 74
1, 289914, Note_off_c, 0, 72, 62
1, 289925, Control_c, 0, 64, 52
1, 289940, Control_c, 0, 64, 0
1, 289984, Control_c, 0, 64, 27
1, 289998, Control_c, 0, 64, 63
1, 290013, Control_c, 0, 64, 79
1, 290022, Note_on_c, 0, 46, 65
1, 290028, Control_c, 0, 64, 127
1, 290036, Note_off_c, 0, 39, 61
1, 290039, Note_off_c, 0, 70, 66
1, 290111, Note_on_c, 0, 51, 76
1, 290142, Note_off_c, 0, 46, 57
1, 290176, Note_on_c, 0, 61, 85
1, 290180, Note_off_c, 0, 51, 62
1, 290182, Note_on_c, 0, 55, 70
1, 290254, Note_on_c, 0, 63, 84
1, 290272, Note_off_c, 0, 55, 60
1, 290276, Note_off_c, 0, 61, 60
1, 290285, Note_on_c, 0, 51, 75
1, 290323, Note_on_c, 0, 67, 80
1, 290335, Note_off_c, 0, 63, 65
1, 290369, Note_on_c, 0, 72, 90
1, 290380, Note_off_c, 0, 51, 62
1, 290383, Note_off_c, 0, 67, 63
1, 290391, Note_on_c, 0, 46, 60
1, 290430, Note_on_c, 0, 70, 80
1, 290469, Note_off_c, 0, 46, 62
1, 290476, Note_off_c, 0, 72, 63
1, 290503, Note_on_c, 0, 68, 91
1, 290532, Note_on_c, 0, 39, 59
1, 290539, Note_off_c, 0, 70, 63
1, 290540, Control_c, 0, 64, 110
1, 290556, Control_c, 0, 64, 69
1, 290571, Control_c, 0, 64, 0
1, 290630, Control_c, 0, 64, 24
1, 290644, Control_c, 0, 64, 61
1, 290655, Note_on_c, 0, 47, 65
1, 290655, Note_off_c, 0, 39, 62
1, 290659, Control_c, 0, 64, 73
1, 290674, Control_c, 0, 64, 102
1, 290689, Control_c, 0, 64, 127
1, 290766, Note_on_c, 0, 51, 82
1, 290802, Note_off_c, 0, 47, 56
1, 290877, Note_on_c, 0, 59, 86
1, 290890, Note_on_c, 0, 56, 64
1, 290893, Note_off_c, 0, 68, 55
1, 290906, Note_off_c, 0, 51, 56
1, 291017, Note_on_c, 0, 63, 89
1, 291020, Note_off_c, 0, 56, 60
1, 291021, Note_on_c, 0, 51, 70
1, 291056, Note_off_c, 0, 59, 60
1, 291139, Note_on_c, 0, 47, 61
1, 291139, Note_on_c, 0, 65, 93
1, 291157, Note_off_c, 0, 51, 62
1, 291165, Note_off_c, 0, 63, 62
1, 291177, Note_off_c, 0, 47, 62
1, 291300, Note_on_c, 0, 39, 45
1, 291333, Note_on_c, 0, 67, 82
1, 291364, Control_c, 0, 64, 110
1, 291379, Control_c, 0, 64, 94
1, 291391, Note_off_c, 0, 65, 58
1, 291394, Control_c, 0, 64, 81
1, 291408, Control_c, 0, 64, 70
1, 291423, Control_c, 0, 64, 59
1, 291438, Control_c, 0, 64, 30
1, 291452, Control_c, 0, 64, 0
1, 291512, Control_c, 0, 64, 34
1, 291517, Note_on_c, 0, 46, 56
1, 291527, Control_c, 0, 64, 53
1, 291542, Note_off_c, 0, 39, 55
1, 291542, Control_c, 0, 64, 64
1, 291557, Control_c, 0, 64, 72
1, 291572, Control_c, 0, 64, 88
1, 291586, Control_c, 0, 64, 127
1, 291633, Note_on_c, 0, 51, 69
1, 291658, Note_off_c, 0, 46, 51
1, 291703, Note_off_c, 0, 51, 63
1, 291715, Note_on_c, 0, 55, 65
1, 291785, Note_off_c, 0, 55, 60
1, 291804, Note_on_c, 0, 51, 73
1, 291859, Note_off_c, 0, 67, 57
1, 291882, Note_off_c, 0, 51, 63
1, 291888, Note_on_c, 0, 46, 68
1, 291975, Note_on_c, 0, 39, 68
1, 291977, Note_off_c, 0, 46, 62
1, 292065, Note_off_c, 0, 39, 60
1, 292072, Note_on_c, 0, 46, 64
1, 292084, Note_on_c, 0, 67, 75
1, 292166, Note_on_c, 0, 51, 73
1, 292180, Note_on_c, 0, 70, 90
1, 292192, Note_off_c, 0, 46, 60
1, 292194, Note_off_c, 0, 67, 61
1, 292257, Note_off_c, 0, 70, 67
1, 292267, Note_off_c, 0, 51, 62
1, 292273, Note_on_c, 0, 58, 67
1, 292277, Note_on_c, 0, 79, 90
1, 292348, Note_off_c, 0, 58, 62
1, 292370, Note_on_c, 0, 77, 92
1, 292375, Note_on_c, 0, 51, 73
1, 292392, Note_off_c, 0, 79, 65
1, 292456, Note_off_c, 0, 51, 63
1, 292457, Note_on_c, 0, 46, 66
1, 292466, Note_on_c, 0, 75, 92
1, 292486, Note_off_c, 0, 77, 59
1, 292579, Control_c, 0, 64, 106
1, 292586, Note_on_c, 0, 39, 52
1, 292588, Note_on_c, 0, 70, 90
1, 292588, Note_off_c, 0, 46, 50
1, 292594, Control_c, 0, 64, 80
1, 292609, Control_c, 0, 64, 61
1, 292624, Control_c, 0, 64, 30
1, 292628, Note_off_c, 0, 75, 63
1, 292639, Control_c, 0, 64, 0
1, 292669, Control_c, 0, 64, 19
1, 292683, Control_c, 0, 64, 41
1, 292698, Control_c, 0, 64, 56
1, 292707, Note_on_c, 0, 46, 62
1, 292713, Control_c, 0, 64, 64
1, 292716, Note_off_c, 0, 39, 62
1, 292728, Control_c, 0, 64, 75
1, 292743, Control_c, 0, 64, 104
1, 292757, Control_c, 0, 64, 127
1, 292804, Note_on_c, 0, 51, 71
1, 292851, Note_off_c, 0, 46, 37
1, 292885, Note_off_c, 0, 51, 63
1, 292892, Note_on_c, 0, 55, 67
1, 292972, Note_off_c, 0, 55, 59
1, 292985, Note_on_c, 0, 51, 77
1, 293069, Note_on_c, 0, 46, 74
1, 293077, Note_off_c, 0, 51, 63
1, 293177, Note_on_c, 0, 39, 72
1, 293186, Note_off_c, 0, 46, 60
1, 293267, Note_off_c, 0, 39, 61
1, 293288, Note_on_c, 0, 46, 59
1, 293288, Note_on_c, 0, 67, 73
1, 293292, Note_off_c, 0, 70, 61
1, 293410, Note_on_c, 0, 51, 65
1, 293410, Note_on_c, 0, 70, 82
1, 293425, Note_off_c, 0, 46, 62
1, 293435, Note_off_c, 0, 67, 57
1, 293517, Note_on_c, 0, 79, 84
1, 293520, Note_off_c, 0, 51, 61
1, 293524, Note_on_c, 0, 58, 59
1, 293547, Note_off_c, 0, 70, 63
1, 293606, Note_off_c, 0, 58, 61
1, 293632, Note_on_c, 0, 77, 93
1, 293641, Note_on_c, 0, 51, 65
1, 293688, Note_off_c, 0, 79, 63
1, 293760, Note_on_c, 0, 75, 94
1, 293768, Note_on_c, 0, 46, 53
1, 293802, Note_off_c, 0, 51, 38
1, 293820, Note_off_c, 0, 77, 57
1, 293921, Control_c, 0, 64, 117
1, 293924, Note_on_c, 0, 43, 51
1, 293936, Control_c, 0, 64, 104
1, 293951, Control_c, 0, 64, 100
1, 293965, Note_off_c, 0, 46, 37
1, 293966, Control_c, 0, 64, 97
1, 293981, Control_c, 0, 64, 94
1, 293983, Note_on_c, 0, 74, 83
1, 293995, Control_c, 0, 64, 86
1, 294010, Control_c, 0, 64, 77
1, 294025, Control_c, 0, 64, 70
1, 294047, Control_c, 0, 64, 65
1, 294058, Note_off_c, 0, 75, 59
1, 294062, Control_c, 0, 64, 62
1, 294077, Control_c, 0, 64, 58
1, 294092, Control_c, 0, 64, 44
1, 294107, Control_c, 0, 64, 17
1, 294121, Control_c, 0, 64, 0
1, 294166, Control_c, 0, 64, 36
1, 294181, Control_c, 0, 64, 54
1, 294190, Note_on_c, 0, 50, 52
1, 294195, Control_c, 0, 64, 64
1, 294210, Control_c, 0, 64, 73
1, 294225, Control_c, 0, 64, 92
1, 294240, Control_c, 0, 64, 127
1, 294248, Note_off_c, 0, 43, 56
1, 294288, Note_off_c, 0, 50, 63
1, 294305, Note_on_c, 0, 55, 69
1, 294409, Note_on_c, 0, 58, 80
1, 294412, Note_off_c, 0, 55, 60
1, 294519, Note_on_c, 0, 62, 78
1, 294532, Note_off_c, 0, 58, 61
1, 294621, Note_on_c, 0, 58, 84
1, 294627, Note_off_c, 0, 62, 61
1, 294726, Note_on_c, 0, 67, 79
1, 294761, Note_off_c, 0, 58, 51
1, 294847, Note_on_c, 0, 62, 66
1, 294848, Note_on_c, 0, 70, 84
1, 294852, Note_off_c, 0, 67, 61
1, 294862, Note_off_c, 0, 74, 56
1, 294942, Note_off_c, 0, 62, 60
1, 294948, Note_on_c, 0, 58, 66
1, 294965, Note_on_c, 0, 74, 84
1, 294999, Note_off_c, 0, 58, 58
1, 295012, Note_off_c, 0, 70, 57
1, 295081, Note_on_c, 0, 82, 89
1, 295083, Note_on_c, 0, 55, 59
1, 295107, Note_off_c, 0, 74, 62
1, 295184, Note_off_c, 0, 55, 63
1, 295199, Note_on_c, 0, 50, 62
1, 295205, Note_on_c, 0, 81, 83
1, 295228, Note_off_c, 0, 50, 66
1, 295269, Note_off_c, 0, 82, 56
1, 295331, Note_on_c, 0, 79, 88
1, 295340, Note_on_c, 0, 43, 59
1, 295395, Note_off_c, 0, 81, 57
1, 295472, Note_on_c, 0, 31, 57
1, 295504, Note_off_c, 0, 43, 50
1, 295545, Note_on_c, 0, 74, 74
1, 295560, Control_c, 0, 64, 90
1, 295575, Control_c, 0, 64, 70
1, 295586, Note_off_c, 0, 79, 60
1, 295590, Control_c, 0, 64, 47
1, 295605, Control_c, 0, 64, 0
1, 295634, Control_c, 0, 64, 26
1, 295649, Control_c, 0, 64, 49
1, 295664, Control_c, 0, 64, 64
1, 295676, Note_off_c, 0, 31, 62
1, 295679, Control_c, 0, 64, 80
1, 295693, Control_c, 0, 64, 127
1, 295709, Note_on_c, 0, 43, 61
1, 295757, Note_off_c, 0, 43, 62
1, 295825, Note_on_c, 0, 50, 67
1, 295903, Note_off_c, 0, 50, 64
1, 295932, Note_on_c, 0, 55, 67
1, 295991, Note_off_c, 0, 55, 53
1, 296036, Note_on_c, 0, 58, 79
1, 296159, Note_on_c, 0, 62, 79
1, 296162, Note_off_c, 0, 58, 62
1, 296222, Note_off_c, 0, 62, 63
1, 296337, Note_on_c, 0, 70, 73
1, 296443, Note_off_c, 0, 70, 62
1, 296527, Note_on_c, 0, 70, 63
1, 296529, Note_on_c, 0, 67, 52
1, 296554, Note_off_c, 0, 74, 46
1, 296660, Note_off_c, 0, 67, 55
1, 296677, Note_off_c, 0, 70, 64
1, 296684, Note_on_c, 0, 74, 68
1, 296695, Note_on_c, 0, 62, 49
1, 296727, Note_off_c, 0, 62, 65
1, 296813, Note_on_c, 0, 82, 75
1, 296844, Note_on_c, 0, 58, 56
1, 296904, Note_off_c, 0, 74, 62
1, 296934, Note_off_c, 0, 58, 61
1, 296940, Note_on_c, 0, 81, 79
1, 296951, Note_on_c, 0, 55, 53
1, 297015, Note_off_c, 0, 82, 55
1, 297043, Note_off_c, 0, 55, 61
1, 297069, Note_on_c, 0, 79, 82
1, 297074, Note_on_c, 0, 50, 51
1, 297097, Note_off_c, 0, 81, 62
1, 297180, Note_off_c, 0, 50, 60
1, 297190, Control_c, 0, 64, 110
1, 297196, Note_off_c, 0, 79, 63
1, 297205, Note_on_c, 0, 43, 52
1, 297205, Control_c, 0, 64, 95
1, 297212, Note_on_c, 0, 74, 72
1, 297219, Control_c, 0, 64, 82
1, 297234, Control_c, 0, 64, 72
1, 297249, Control_c, 0, 64, 64
1, 297263, Control_c, 0, 64, 59
1, 297278, Control_c, 0, 64, 63
1, 297293, Control_c, 0, 64, 66
1, 297308, Control_c, 0, 64, 73
1, 297323, Control_c, 0, 64, 88
1, 297337, Control_c, 0, 64, 127
1, 297360, Note_off_c, 0, 43, 60
1, 297367, Control_c, 0, 64, 107
1, 297369, Note_on_c, 0, 70, 67
1, 297379, Note_off_c, 0, 74, 49
1, 297382, Control_c, 0, 64, 82
1, 297397, Control_c, 0, 64, 67
1, 297400, Note_on_c, 0, 50, 44
1, 297411, Control_c, 0, 64, 61
1, 297426, Control_c, 0, 64, 64
1, 297441, Control_c, 0, 64, 68
1, 297451, Note_off_c, 0, 50, 58
1, 297456, Control_c, 0, 64, 73
1, 297471, Control_c, 0, 64, 80
1, 297486, Control_c, 0, 64, 83
1, 297492, Note_off_c, 0, 70, 64
1, 297501, Control_c, 0, 64, 78
1, 297509, Note_on_c, 0, 74, 66
1, 297515, Control_c, 0, 64, 69
1, 297519, Note_on_c, 0, 62, 53
1, 297530, Control_c, 0, 64, 64
1, 297545, Control_c, 0, 64, 64
1, 297560, Control_c, 0, 64, 67
1, 297575, Control_c, 0, 64, 71
1, 297589, Control_c, 0, 64, 76
1, 297604, Control_c, 0, 64, 82
1, 297619, Control_c, 0, 64, 81
1, 297620, Note_off_c, 0, 62, 57
1, 297634, Control_c, 0, 64, 75
1, 297637, Note_on_c, 0, 82, 76
1, 297649, Control_c, 0, 64, 70
1, 297663, Control_c, 0, 64, 65
1, 297678, Control_c, 0, 64, 62
1, 297693, Control_c, 0, 64, 63
1, 297708, Control_c, 0, 64, 66
1, 297723, Control_c, 0, 64, 70
1, 297724, Note_off_c, 0, 74, 58
1, 297739, Control_c, 0, 64, 75
1, 297754, Control_c, 0, 64, 81
1, 297767, Note_on_c, 0, 81, 80
1, 297768, Control_c, 0, 64, 83
1, 297790, Control_c, 0, 64, 81
1, 297805, Control_c, 0, 64, 78
1, 297820, Control_c, 0, 64, 72
1, 297835, Control_c, 0, 64, 69
1, 297849, Control_c, 0, 64, 66
1, 297864, Note_off_c, 0, 82, 37
1, 297879, Control_c, 0, 64, 68
1, 297892, Note_on_c, 0, 79, 79
1, 297894, Control_c, 0, 64, 70
1, 297909, Control_c, 0, 64, 74
1, 297924, Control_c, 0, 64, 77
1, 297924, Note_off_c, 0, 81, 62
1, 297939, Control_c, 0, 64, 76
1, 297954, Control_c, 0, 64, 74
1, 297968, Control_c, 0, 64, 70
1, 297983, Control_c, 0, 64, 66
1, 297992, Note_off_c, 0, 79, 64
1, 297998, Control_c, 0, 64, 64
1, 298007, Note_on_c, 0, 74, 75
1, 298028, Control_c, 0, 64, 65
1, 298043, Control_c, 0, 64, 66
1, 298058, Control_c, 0, 64, 67
1, 298102, Control_c, 0, 64, 66
1, 298117, Control_c, 0, 64, 65
1, 298130, Note_on_c, 0, 70, 72
1, 298132, Control_c, 0, 64, 64
1, 298147, Note_off_c, 0, 74, 49
1, 298147, Control_c, 0, 64, 63
1, 298162, Control_c, 0, 64, 62
1, 298176, Control_c, 0, 64, 63
1, 298191, Control_c, 0, 64, 63
1, 298206, Control_c, 0, 64, 64
1, 298220, Control_c, 0, 64, 65
1, 298250, Control_c, 0, 64, 64
1, 298260, Note_off_c, 0, 70, 64
1, 298263, Note_on_c, 0, 74, 69
1, 298265, Control_c, 0, 64, 64
1, 298280, Control_c, 0, 64, 62
1, 298294, Control_c, 0, 64, 61
1, 298324, Control_c, 0, 64, 62
1, 298339, Control_c, 0, 64, 63
1, 298354, Control_c, 0, 64, 64
1, 298368, Control_c, 0, 64, 64
1, 298383, Control_c, 0, 64, 65
1, 298398, Note_on_c, 0, 82, 71
1, 298413, Control_c, 0, 64, 64
1, 298428, Control_c, 0, 64, 64
1, 298443, Control_c, 0, 64, 63
1, 298457, Control_c, 0, 64, 61
1, 298460, Note_off_c, 0, 74, 49
1, 298472, Control_c, 0, 64, 60
1, 298502, Control_c, 0, 64, 61
1, 298517, Control_c, 0, 64, 63
1, 298540, Control_c, 0, 64, 64
1, 298555, Note_on_c, 0, 81, 66
1, 298629, Control_c, 0, 64, 63
1, 298643, Control_c, 0, 64, 62
1, 298658, Control_c, 0, 64, 60
1, 298659, Note_off_c, 0, 82, 36
1, 298673, Control_c, 0, 64, 60
1, 298688, Control_c, 0, 64, 60
1, 298703, Control_c, 0, 64, 61
1, 298715, Note_on_c, 0, 79, 60
1, 298717, Control_c, 0, 64, 62
1, 298732, Control_c, 0, 64, 63
1, 298747, Control_c, 0, 64, 63
1, 298760, Note_off_c, 0, 81, 56
1, 298762, Control_c, 0, 64, 64
1, 298777, Control_c, 0, 64, 64
1, 298821, Control_c, 0, 64, 65
1, 298836, Control_c, 0, 64, 65
1, 298851, Control_c, 0, 64, 66
1, 298902, Note_on_c, 0, 74, 48
1, 298925, Control_c, 0, 64, 65
1, 298940, Note_off_c, 0, 79, 60
1, 298970, Control_c, 0, 64, 65
1, 299029, Control_c, 0, 64, 64
1, 299058, Control_c, 0, 64, 64
1, 299088, Control_c, 0, 64, 63
1, 299104, Note_on_c, 0, 81, 52
1, 299132, Control_c, 0, 64, 63
1, 299177, Control_c, 0, 64, 62
1, 299204, Note_off_c, 0, 74, 59
1, 299221, Control_c, 0, 64, 62
1, 299250, Control_c, 0, 64, 61
1, 299280, Control_c, 0, 64, 61
1, 299317, Control_c, 0, 64, 60
1, 299332, Control_c, 0, 64, 60
1, 299356, Note_on_c, 0, 84, 50
1, 299363, Control_c, 0, 64, 59
1, 299408, Control_c, 0, 64, 59
1, 299422, Control_c, 0, 64, 58
1, 299427, Note_off_c, 0, 81, 62
1, 299437, Control_c, 0, 64, 58
1, 299452, Control_c, 0, 64, 57
1, 299466, Control_c, 0, 64, 57
1, 299481, Control_c, 0, 64, 56
1, 299496, Control_c, 0, 64, 56
1, 299511, Control_c, 0, 64, 55
1, 299526, Control_c, 0, 64, 54
1, 299540, Control_c, 0, 64, 54
1, 299555, Control_c, 0, 64, 53
1, 299570, Control_c, 0, 64, 52
1, 299585, Control_c, 0, 64, 49
1, 299600, Control_c, 0, 64, 47
1, 299614, Control_c, 0, 64, 44
1, 299651, Note_on_c, 0, 82, 45
1, 299659, Control_c, 0, 64, 45
1, 299674, Control_c, 0, 64, 47
1, 299689, Control_c, 0, 64, 50
1, 299703, Control_c, 0, 64, 52
1, 299718, Control_c, 0, 64, 54
1, 299733, Control_c, 0, 64, 55
1, 299748, Control_c, 0, 64, 58
1, 299763, Control_c, 0, 64, 61
1, 299778, Control_c, 0, 64, 63
1, 299793, Control_c, 0, 64, 64
1, 299807, Control_c, 0, 64, 66
1, 299821, Note_on_c, 0, 79, 51
1, 299822, Control_c, 0, 64, 68
1, 299837, Control_c, 0, 64, 72
1, 299845, Note_off_c, 0, 84, 34
1, 299852, Control_c, 0, 64, 77
1, 299866, Control_c, 0, 64, 86
1, 299881, Control_c, 0, 64, 95
1, 299896, Control_c, 0, 64, 107
1, 299911, Control_c, 0, 64, 127
1, 299980, Note_off_c, 0, 82, 23
1, 299987, Note_on_c, 0, 75, 60
1, 299995, Note_off_c, 0, 79, 54
1, 300149, Note_on_c, 0, 70, 59
1, 300154, Note_off_c, 0, 75, 59
1, 300204, Note_off_c, 0, 70, 57
1, 300329, Note_on_c, 0, 67, 62
1, 300511, Control_c, 0, 64, 123
1, 300525, Note_on_c, 0, 60, 62
1, 300526, Control_c, 0, 64, 115
1, 300541, Control_c, 0, 64, 111
1, 300555, Control_c, 0, 64, 107
1, 300570, Control_c, 0, 64, 105
1, 300571, Note_off_c, 0, 67, 58
1, 300585, Control_c, 0, 64, 102
1, 300600, Control_c, 0, 64, 100
1, 300615, Control_c, 0, 64, 98
1, 300629, Control_c, 0, 64, 95
1, 300644, Control_c, 0, 64, 93
1, 300659, Control_c, 0, 64, 91
1, 300674, Control_c, 0, 64, 90
1, 300688, Control_c, 0, 64, 87
1, 300703, Control_c, 0, 64, 85
1, 300718, Control_c, 0, 64, 84
1, 300733, Control_c, 0, 64, 82
1, 300748, Control_c, 0, 64, 81
1, 300749, Note_on_c, 0, 62, 59
1, 300762, Control_c, 0, 64, 80
1, 300785, Control_c, 0, 64, 78
1, 300800, Control_c, 0, 64, 77
1, 300814, Control_c, 0, 64, 76
1, 300829, Control_c, 0, 64, 76
1, 300844, Control_c, 0, 64, 75
1, 300859, Control_c, 0, 64, 74
1, 300874, Note_off_c, 0, 60, 37
1, 300874, Control_c, 0, 64, 73
1, 300888, Control_c, 0, 64, 72
1, 300903, Control_c, 0, 64, 71
1, 300918, Control_c, 0, 64, 70
1, 300949, Control_c, 0, 64, 69
1, 300964, Control_c, 0, 64, 69
1, 300979, Control_c, 0, 64, 68
1, 300993, Control_c, 0, 64, 67
1, 301007, Note_on_c, 0, 65, 48
1, 301008, Control_c, 0, 64, 66
1, 301023, Control_c, 0, 64, 66
1, 301038, Control_c, 0, 64, 65
1, 301053, Control_c, 0, 64, 65
1, 301067, Control_c, 0, 64, 64
1, 301082, Control_c, 0, 64, 64
1, 301097, Control_c, 0, 64, 63
1, 301107, Note_off_c, 0, 62, 58
1, 301141, Control_c, 0, 64, 63
1, 301156, Control_c, 0, 64, 62
1, 301171, Control_c, 0, 64, 62
1, 301185, Control_c, 0, 64, 61
1, 301215, Control_c, 0, 64, 61
1, 301230, Control_c, 0, 64, 60
1, 301245, Control_c, 0, 64, 60
1, 301245, Control_c, 0, 67, 15
1, 301259, Control_c, 0, 64, 59
1, 301259, Control_c, 0, 67, 23
1, 301274, Control_c, 0, 67, 29
1, 301289, Control_c, 0, 64, 58
1, 301289, Control_c, 0, 67, 36
1, 301304, Control_c, 0, 64, 58
1, 301304, Control_c, 0, 67, 42
1, 301319, Control_c, 0, 64, 57
1, 301319, Control_c, 0, 67, 47
1, 301334, Control_c, 0, 64, 56
1, 301334, Control_c, 0, 67, 55
1, 301345, Note_on_c, 0, 63, 39
1, 301349, Control_c, 0, 64, 55
1, 301349, Control_c, 0, 67, 61
1, 301364, Control_c, 0, 64, 54
1, 301364, Control_c, 0, 67, 66
1, 301378, Control_c, 0, 64, 54
1, 301378, Control_c, 0, 67, 71
1, 301393, Control_c, 0, 64, 53
1, 301393, Control_c, 0, 67, 76
1, 301408, Control_c, 0, 64, 52
1, 301408, Control_c, 0, 67, 83
1, 301423, Control_c, 0, 64, 51
1, 301423, Control_c, 0, 67, 93
1, 301437, Control_c, 0, 64, 50
1, 301437, Control_c, 0, 67, 104
1, 301452, Control_c, 0, 64, 49
1, 301452, Control_c, 0, 67, 112
1, 301467, Control_c, 0, 64, 48
1, 301467, Control_c, 0, 67, 119
1, 301482, Control_c, 0, 64, 47
1, 301482, Control_c, 0, 67, 126
1, 301489, Note_off_c, 0, 65, 36
1, 301497, Control_c, 0, 64, 45
1, 301497, Control_c, 0, 67, 127
1, 301511, Control_c, 0, 64, 44
1, 301534, Control_c, 0, 64, 43
1, 301549, Control_c, 0, 64, 43
1, 301564, Control_c, 0, 64, 42
1, 301578, Control_c, 0, 64, 41
1, 301593, Control_c, 0, 64, 39
1, 301608, Control_c, 0, 64, 38
1, 301623, Control_c, 0, 64, 37
1, 301652, Control_c, 0, 64, 36
1, 302302, Note_on_c, 0, 50, 35
1, 302353, Note_off_c, 0, 63, 37
1, 302431, Control_c, 0, 64, 37
1, 302446, Control_c, 0, 64, 38
1, 302461, Control_c, 0, 64, 39
1, 302476, Control_c, 0, 64, 42
1, 302491, Control_c, 0, 64, 44
1, 302506, Control_c, 0, 64, 46
1, 302520, Control_c, 0, 64, 49
1, 302536, Control_c, 0, 64, 53
1, 302551, Control_c, 0, 64, 57
1, 302565, Control_c, 0, 64, 60
1, 302580, Control_c, 0, 64, 62
1, 302595, Control_c, 0, 64, 63
1, 302610, Control_c, 0, 64, 64
1, 302625, Control_c, 0, 64, 66
1, 302640, Control_c, 0, 64, 68
1, 302655, Control_c, 0, 64, 73
1, 302669, Control_c, 0, 64, 79
1, 302684, Control_c, 0, 64, 85
1, 302699, Control_c, 0, 64, 90
1, 302714, Control_c, 0, 64, 97
1, 302729, Control_c, 0, 64, 109
1, 302744, Control_c, 0, 64, 127
1, 302985, Note_on_c, 0, 38, 15
1, 303060, Note_off_c, 0, 38, 41
1, 303399, Note_on_c, 0, 38, 23
1, 303599, Note_off_c, 0, 38, 32
1, 303670, Control_c, 0, 64, 121
1, 303685, Control_c, 0, 64, 116
1, 303700, Control_c, 0, 64, 113
1, 303714, Control_c, 0, 64, 110
1, 303729, Control_c, 0, 64, 107
1, 303744, Control_c, 0, 64, 104
1, 303759, Control_c, 0, 64, 98
1, 303774, Control_c, 0, 64, 92
1, 303796, Control_c, 0, 64, 88
1, 303811, Control_c, 0, 64, 86
1, 303826, Control_c, 0, 64, 85
1, 303841, Control_c, 0, 64, 83
1, 303855, Control_c, 0, 64, 81
1, 303870, Control_c, 0, 64, 79
1, 303885, Control_c, 0, 64, 77
1, 303900, Control_c, 0, 64, 76
1, 303914, Control_c, 0, 64, 76
1, 303929, Control_c, 0, 64, 75
1, 303944, Control_c, 0, 64, 73
1, 303959, Control_c, 0, 64, 72
1, 303974, Control_c, 0, 64, 71
1, 304003, Control_c, 0, 64, 70
1, 304018, Control_c, 0, 64, 69
1, 304032, Control_c, 0, 64, 68
1, 304047, Control_c, 0, 64, 67
1, 304062, Control_c, 0, 64, 66
1, 304106, Control_c, 0, 64, 66
1, 304121, Control_c, 0, 64, 65
1, 304137, Control_c, 0, 64, 64
1, 304152, Control_c, 0, 64, 63
1, 304167, Control_c, 0, 64, 62
1, 304182, Control_c, 0, 64, 62
1, 304197, Control_c, 0, 64, 60
1, 304211, Control_c, 0, 64, 59
1, 304226, Control_c, 0, 64, 57
1, 304241, Control_c, 0, 64, 56
1, 304300, Control_c, 0, 64, 57
1, 304315, Control_c, 0, 64, 57
1, 304330, Control_c, 0, 64, 59
1, 304345, Control_c, 0, 64, 60
1, 304360, Control_c, 0, 64, 61
1, 304375, Control_c, 0, 64, 63
1, 304389, Control_c, 0, 64, 64
1, 304404, Control_c, 0, 64, 67
1, 304419, Control_c, 0, 64, 69
1, 304434, Control_c, 0, 64, 74
1, 304449, Control_c, 0, 64, 79
1, 304464, Control_c, 0, 64, 85
1, 304478, Control_c, 0, 64, 93
1, 304493, Control_c, 0, 64, 103
1, 304508, Control_c, 0, 64, 127
1, 304664, Note_on_c, 0, 60, 29
1, 304940, Note_on_c, 0, 38, 17
1, 304995, Note_on_c, 0, 62, 36
1, 305122, Note_off_c, 0, 38, 38
1, 305172, Note_off_c, 0, 62, 41
1, 305229, Note_on_c, 0, 66, 38
1, 305377, Note_off_c, 0, 66, 35
1, 305389, Note_on_c, 0, 70, 50
1, 305404, Note_on_c, 0, 38, 27
1, 305532, Note_off_c, 0, 60, 39
1, 305543, Note_on_c, 0, 69, 55
1, 305584, Note_off_c, 0, 70, 36
1, 305589, Note_off_c, 0, 38, 28
1, 305620, Control_c, 0, 64, 115
1, 305629, Note_off_c, 0, 50, 37
1, 305634, Control_c, 0, 64, 107
1, 305649, Control_c, 0, 64, 98
1, 305664, Control_c, 0, 64, 90
1, 305678, Control_c, 0, 64, 84
1, 305693, Control_c, 0, 64, 79
1, 305708, Control_c, 0, 64, 76
1, 305716, Note_on_c, 0, 67, 57
1, 305723, Control_c, 0, 64, 74
1, 305739, Control_c, 0, 64, 71
1, 305752, Note_off_c, 0, 69, 57
1, 305754, Control_c, 0, 64, 69
1, 305769, Control_c, 0, 64, 67
1, 305783, Control_c, 0, 64, 66
1, 305798, Control_c, 0, 64, 65
1, 305813, Control_c, 0, 64, 64
1, 305828, Control_c, 0, 64, 59
1, 305843, Control_c, 0, 64, 52
1, 305857, Control_c, 0, 64, 47
1, 305872, Control_c, 0, 64, 46
1, 305901, Control_c, 0, 64, 47
1, 305916, Control_c, 0, 64, 49
1, 305931, Control_c, 0, 64, 52
1, 305946, Control_c, 0, 64, 55
1, 305961, Control_c, 0, 64, 57
1, 305975, Control_c, 0, 64, 60
1, 305990, Control_c, 0, 64, 63
1, 306005, Control_c, 0, 64, 65
1, 306028, Control_c, 0, 64, 68
1, 306043, Control_c, 0, 64, 72
1, 306047, Note_on_c, 0, 62, 27
1, 306050, Note_on_c, 0, 58, 31
1, 306057, Control_c, 0, 64, 79
1, 306068, Note_on_c, 0, 38, 12
1, 306072, Control_c, 0, 64, 89
1, 306087, Control_c, 0, 64, 100
1, 306101, Control_c, 0, 64, 118
1, 306116, Control_c, 0, 64, 127
1, 306202, Note_off_c, 0, 62, 39
1, 306221, Note_off_c, 0, 58, 44
1, 306231, Note_off_c, 0, 38, 32
1, 306397, Note_on_c, 0, 62, 19
1, 306412, Note_on_c, 0, 38, 25
1, 306423, Note_on_c, 0, 58, 33
1, 306458, Note_off_c, 0, 62, 53
1, 306462, Note_off_c, 0, 38, 46
1, 306479, Note_off_c, 0, 58, 52
1, 306539, Note_off_c, 0, 67, 41
1, 306858, Note_on_c, 0, 74, 57
1, 306878, Note_on_c, 0, 62, 47
1, 306880, Control_c, 0, 64, 119
1, 306895, Control_c, 0, 64, 111
1, 306910, Control_c, 0, 64, 107
1, 306924, Control_c, 0, 64, 102
1, 306939, Control_c, 0, 64, 97
1, 306954, Control_c, 0, 64, 90
1, 306969, Control_c, 0, 64, 85
1, 306984, Control_c, 0, 64, 80
1, 306998, Control_c, 0, 64, 77
1, 307012, Control_c, 0, 64, 76
1, 307027, Control_c, 0, 64, 75
1, 307042, Control_c, 0, 64, 73
1, 307057, Control_c, 0, 64, 69
1, 307071, Control_c, 0, 64, 64
1, 307086, Control_c, 0, 64, 63
1, 307101, Control_c, 0, 64, 64
1, 307116, Control_c, 0, 64, 65
1, 307130, Control_c, 0, 64, 66
1, 307145, Control_c, 0, 64, 67
1, 307160, Control_c, 0, 64, 70
1, 307175, Control_c, 0, 64, 75
1, 307190, Control_c, 0, 64, 82
1, 307204, Control_c, 0, 64, 92
1, 307219, Control_c, 0, 64, 107
1, 307234, Control_c, 0, 64, 127
1, 307261, Note_on_c, 0, 67, 40
1, 307288, Note_on_c, 0, 55, 32
1, 307296, Note_on_c, 0, 50, 24
1, 307406, Note_off_c, 0, 67, 56
1, 307445, Note_off_c, 0, 55, 35
1, 307448, Note_off_c, 0, 50, 40
1, 307625, Note_on_c, 0, 55, 26
1, 307634, Note_on_c, 0, 67, 38
1, 307639, Note_on_c, 0, 50, 19
1, 307752, Note_off_c, 0, 62, 35
1, 307886, Note_off_c, 0, 67, 32
1, 307939, Control_c, 0, 64, 112
1, 307951, Note_off_c, 0, 74, 36
1, 307953, Control_c, 0, 64, 105
1, 307958, Note_on_c, 0, 72, 41
1, 307968, Control_c, 0, 64, 99
1, 307974, Note_on_c, 0, 60, 39
1, 307983, Control_c, 0, 64, 94
1, 307998, Control_c, 0, 64, 89
1, 307999, Note_off_c, 0, 50, 35
1, 308013, Control_c, 0, 64, 82
1, 308027, Control_c, 0, 64, 76
1, 308042, Control_c, 0, 64, 71
1, 308046, Note_off_c, 0, 55, 37
1, 308057, Control_c, 0, 64, 67
1, 308071, Control_c, 0, 64, 65
1, 308086, Control_c, 0, 64, 63
1, 308101, Control_c, 0, 64, 59
1, 308117, Control_c, 0, 64, 52
1, 308132, Control_c, 0, 64, 50
1, 308147, Control_c, 0, 64, 52
1, 308162, Control_c, 0, 64, 54
1, 308176, Control_c, 0, 64, 57
1, 308191, Control_c, 0, 64, 60
1, 308206, Control_c, 0, 64, 64
1, 308221, Control_c, 0, 64, 66
1, 308236, Control_c, 0, 64, 70
1, 308250, Control_c, 0, 64, 77
1, 308265, Control_c, 0, 64, 86
1, 308288, Control_c, 0, 64, 97
1, 308302, Control_c, 0, 64, 116
1, 308317, Control_c, 0, 64, 127
1, 308353, Note_on_c, 0, 67, 29
1, 308374, Note_on_c, 0, 63, 30
1, 308378, Note_on_c, 0, 55, 23
1, 308384, Note_on_c, 0, 50, 26
1, 308539, Note_off_c, 0, 67, 42
1, 308547, Note_off_c, 0, 50, 40
1, 308553, Note_off_c, 0, 63, 42
1, 308561, Note_off_c, 0, 55, 42
1, 308801, Note_on_c, 0, 67, 23
1, 308821, Note_on_c, 0, 63, 24
1, 308840, Note_on_c, 0, 50, 7
1, 308842, Note_on_c, 0, 55, 13
1, 309150, Note_off_c, 0, 63, 37
1, 309190, Note_off_c, 0, 67, 39
1, 309201, Note_off_c, 0, 72, 37
1, 309228, Note_off_c, 0, 55, 37
1, 309264, Note_off_c, 0, 60, 37
1, 309278, Note_off_c, 0, 50, 30
1, 309304, Control_c, 0, 64, 113
1, 309319, Control_c, 0, 64, 107
1, 309333, Control_c, 0, 64, 102
1, 309348, Control_c, 0, 64, 97
1, 309363, Control_c, 0, 64, 92
1, 309378, Control_c, 0, 64, 90
1, 309393, Control_c, 0, 64, 88
1, 309407, Control_c, 0, 64, 85
1, 309422, Control_c, 0, 64, 81
1, 309437, Control_c, 0, 64, 78
1, 309452, Control_c, 0, 64, 76
1, 309466, Control_c, 0, 64, 74
1, 309481, Control_c, 0, 64, 73
1, 309496, Control_c, 0, 64, 71
1, 309511, Control_c, 0, 64, 70
1, 309526, Control_c, 0, 64, 69
1, 309540, Control_c, 0, 64, 68
1, 309555, Control_c, 0, 64, 66
1, 309570, Control_c, 0, 64, 65
1, 309585, Control_c, 0, 64, 65
1, 309600, Control_c, 0, 64, 64
1, 309615, Control_c, 0, 64, 64
1, 309630, Control_c, 0, 64, 63
1, 309645, Control_c, 0, 64, 62
1, 309660, Control_c, 0, 64, 62
1, 309674, Control_c, 0, 64, 61
1, 309689, Control_c, 0, 64, 60
1, 309704, Control_c, 0, 64, 58
1, 309719, Control_c, 0, 64, 56
1, 309734, Control_c, 0, 64, 53
1, 309749, Control_c, 0, 64, 52
1, 309771, Control_c, 0, 64, 53
1, 309786, Control_c, 0, 64, 54
1, 309801, Control_c, 0, 64, 55
1, 309816, Control_c, 0, 64, 56
1, 309830, Control_c, 0, 64, 58
1, 309845, Control_c, 0, 64, 60
1, 309860, Control_c, 0, 64, 62
1, 309875, Control_c, 0, 64, 64
1, 309890, Control_c, 0, 64, 66
1, 309904, Control_c, 0, 64, 67
1, 309919, Control_c, 0, 64, 70
1, 309934, Control_c, 0, 64, 75
1, 309949, Control_c, 0, 64, 79
1, 309956, Note_on_c, 0, 60, 34
1, 309964, Control_c, 0, 64, 84
1, 309979, Control_c, 0, 64, 90
1, 309994, Control_c, 0, 64, 98
1, 310008, Control_c, 0, 64, 108
1, 310023, Control_c, 0, 64, 127
1, 310184, Note_on_c, 0, 38, 18
1, 310239, Note_on_c, 0, 62, 32
1, 310362, Note_off_c, 0, 38, 37
1, 310424, Note_on_c, 0, 66, 45
1, 310450, Note_off_c, 0, 62, 40
1, 310571, Note_off_c, 0, 66, 49
1, 310584, Note_on_c, 0, 70, 51
1, 310595, Note_on_c, 0, 38, 36
1, 310714, Note_on_c, 0, 69, 60
1, 310754, Note_off_c, 0, 70, 45
1, 310816, Control_c, 0, 64, 114
1, 310831, Control_c, 0, 64, 105
1, 310832, Note_off_c, 0, 60, 39
1, 310837, Note_off_c, 0, 38, 35
1, 310845, Control_c, 0, 64, 96
1, 310860, Control_c, 0, 64, 87
1, 310875, Control_c, 0, 64, 82
1, 310882, Note_on_c, 0, 67, 63
1, 310890, Control_c, 0, 64, 78
1, 310905, Control_c, 0, 64, 75
1, 310919, Note_off_c, 0, 69, 59
1, 310919, Control_c, 0, 64, 72
1, 310934, Control_c, 0, 64, 69
1, 310949, Control_c, 0, 64, 67
1, 310963, Control_c, 0, 64, 66
1, 310978, Control_c, 0, 64, 65
1, 310993, Control_c, 0, 64, 64
1, 311008, Control_c, 0, 64, 63
1, 311023, Control_c, 0, 64, 59
1, 311038, Control_c, 0, 64, 52
1, 311052, Control_c, 0, 64, 47
1, 311082, Control_c, 0, 64, 48
1, 311096, Control_c, 0, 64, 51
1, 311111, Control_c, 0, 64, 54
1, 311126, Control_c, 0, 64, 58
1, 311141, Control_c, 0, 64, 62
1, 311156, Control_c, 0, 64, 64
1, 311171, Control_c, 0, 64, 67
1, 311186, Control_c, 0, 64, 72
1, 311191, Note_on_c, 0, 38, 32
1, 311192, Note_on_c, 0, 62, 36
1, 311198, Note_on_c, 0, 58, 35
1, 311201, Control_c, 0, 64, 79
1, 311216, Control_c, 0, 64, 89
1, 311231, Control_c, 0, 64, 108
1, 311245, Control_c, 0, 64, 127
1, 311310, Note_off_c, 0, 62, 57
1, 311362, Note_off_c, 0, 58, 35
1, 311379, Note_off_c, 0, 38, 39
1, 311527, Note_on_c, 0, 38, 38
1, 311530, Note_on_c, 0, 58, 31
1, 311537, Note_on_c, 0, 62, 35
1, 311610, Note_off_c, 0, 62, 50
1, 311803, Note_off_c, 0, 38, 36
1, 311827, Note_on_c, 0, 64, 62
1, 311831, Control_c, 0, 64, 116
1, 311846, Control_c, 0, 64, 104
1, 311848, Note_off_c, 0, 67, 42
1, 311861, Control_c, 0, 64, 99
1, 311875, Control_c, 0, 64, 96
1, 311890, Control_c, 0, 64, 92
1, 311905, Control_c, 0, 64, 85
1, 311919, Control_c, 0, 64, 79
1, 311934, Control_c, 0, 64, 75
1, 311949, Control_c, 0, 64, 74
1, 311954, Note_off_c, 0, 58, 52
1, 311964, Control_c, 0, 64, 72
1, 311979, Control_c, 0, 64, 69
1, 311994, Control_c, 0, 64, 65
1, 312009, Control_c, 0, 64, 61
1, 312031, Control_c, 0, 64, 60
1, 312105, Control_c, 0, 64, 61
1, 312121, Control_c, 0, 64, 62
1, 312136, Control_c, 0, 64, 63
1, 312150, Control_c, 0, 64, 65
1, 312165, Control_c, 0, 64, 68
1, 312170, Note_on_c, 0, 58, 22
1, 312173, Note_on_c, 0, 61, 39
1, 312180, Control_c, 0, 64, 73
1, 312182, Note_on_c, 0, 55, 35
1, 312188, Note_on_c, 0, 38, 31
1, 312195, Control_c, 0, 64, 83
1, 312210, Control_c, 0, 64, 97
1, 312224, Control_c, 0, 64, 127
1, 312345, Note_off_c, 0, 61, 45
1, 312353, Note_off_c, 0, 55, 58
1, 312370, Note_off_c, 0, 58, 42
1, 312372, Note_off_c, 0, 38, 41
1, 312538, Note_on_c, 0, 58, 37
1, 312540, Note_on_c, 0, 55, 36
1, 312542, Note_on_c, 0, 61, 36
1, 312550, Note_on_c, 0, 38, 25
1, 312715, Note_off_c, 0, 55, 36
1, 312777, Note_off_c, 0, 58, 30
1, 312810, Note_off_c, 0, 38, 37
1, 312884, Control_c, 0, 64, 111
1, 312891, Note_on_c, 0, 66, 45
1, 312898, Control_c, 0, 64, 99
1, 312913, Control_c, 0, 64, 91
1, 312925, Note_off_c, 0, 64, 37
1, 312929, Control_c, 0, 64, 87
1, 312944, Control_c, 0, 64, 84
1, 312959, Control_c, 0, 64, 81
1, 312960, Note_off_c, 0, 61, 39
1, 312973, Control_c, 0, 64, 77
1, 312988, Control_c, 0, 64, 72
1, 313003, Control_c, 0, 64, 69
1, 313018, Control_c, 0, 64, 68
1, 313033, Control_c, 0, 64, 67
1, 313047, Control_c, 0, 64, 66
1, 313062, Control_c, 0, 64, 63
1, 313077, Control_c, 0, 64, 61
1, 313092, Control_c, 0, 64, 58
1, 313107, Control_c, 0, 64, 55
1, 313121, Control_c, 0, 64, 53
1, 313136, Control_c, 0, 64, 53
1, 313151, Control_c, 0, 64, 53
1, 313165, Control_c, 0, 64, 54
1, 313180, Control_c, 0, 64, 56
1, 313195, Control_c, 0, 64, 58
1, 313210, Control_c, 0, 64, 60
1, 313225, Control_c, 0, 64, 62
1, 313240, Control_c, 0, 64, 63
1, 313255, Control_c, 0, 64, 65
1, 313270, Control_c, 0, 64, 68
1, 313278, Note_on_c, 0, 62, 32
1, 313284, Control_c, 0, 64, 71
1, 313292, Note_on_c, 0, 38, 29
1, 313299, Control_c, 0, 64, 76
1, 313314, Control_c, 0, 64, 81
1, 313314, Note_on_c, 0, 57, 18
1, 313318, Note_on_c, 0, 54, 24
1, 313329, Control_c, 0, 64, 87
1, 313344, Control_c, 0, 64, 92
1, 313358, Control_c, 0, 64, 98
1, 313373, Control_c, 0, 64, 108
1, 313388, Control_c, 0, 64, 127
1, 313439, Note_off_c, 0, 62, 34
1, 313482, Note_off_c, 0, 38, 38
1, 313484, Note_off_c, 0, 54, 43
1, 313486, Note_off_c, 0, 57, 43
1, 313761, Note_on_c, 0, 38, 23
1, 313770, Note_on_c, 0, 62, 15
1, 313787, Note_on_c, 0, 54, 25
1, 313788, Note_on_c, 0, 57, 5
1, 313989, Note_off_c, 0, 54, 39
1, 314028, Note_off_c, 0, 62, 31
1, 314047, Note_off_c, 0, 57, 40
1, 314182, Control_c, 0, 64, 117
1, 314197, Control_c, 0, 64, 110
1, 314212, Control_c, 0, 64, 105
1, 314226, Control_c, 0, 64, 101
1, 314227, Note_off_c, 0, 38, 34
1, 314241, Control_c, 0, 64, 97
1, 314263, Control_c, 0, 64, 92
1, 314278, Control_c, 0, 64, 89
1, 314293, Control_c, 0, 64, 87
1, 314308, Control_c, 0, 64, 85
1, 314317, Note_off_c, 0, 66, 32
1, 314322, Control_c, 0, 64, 83
1, 314337, Control_c, 0, 64, 81
1, 314352, Control_c, 0, 64, 78
1, 314367, Control_c, 0, 64, 77
1, 314382, Control_c, 0, 64, 75
1, 314396, Control_c, 0, 64, 74
1, 314411, Control_c, 0, 64, 72
1, 314426, Control_c, 0, 64, 70
1, 314441, Control_c, 0, 64, 69
1, 314456, Control_c, 0, 64, 68
1, 314471, Control_c, 0, 64, 67
1, 314486, Control_c, 0, 64, 66
1, 314501, Control_c, 0, 64, 65
1, 314516, Control_c, 0, 64, 64
1, 314546, Control_c, 0, 64, 63
1, 314560, Control_c, 0, 64, 63
1, 314575, Control_c, 0, 64, 62
1, 314590, Control_c, 0, 64, 61
1, 314605, Control_c, 0, 64, 60
1, 314635, Control_c, 0, 64, 60
1, 314650, Control_c, 0, 64, 59
1, 314665, Control_c, 0, 64, 58
1, 314680, Control_c, 0, 64, 56
1, 314694, Control_c, 0, 64, 55
1, 314724, Control_c, 0, 64, 55
1, 314739, Control_c, 0, 64, 56
1, 314754, Control_c, 0, 64, 58
1, 314768, Control_c, 0, 64, 60
1, 314783, Control_c, 0, 64, 62
1, 314798, Control_c, 0, 64, 63
1, 314812, Control_c, 0, 64, 65
1, 314827, Control_c, 0, 64, 67
1, 314842, Control_c, 0, 64, 69
1, 314857, Control_c, 0, 64, 72
1, 314872, Control_c, 0, 64, 76
1, 314876, Note_on_c, 0, 60, 36
1, 314886, Control_c, 0, 64, 82
1, 314901, Control_c, 0, 64, 89
1, 314916, Control_c, 0, 64, 98
1, 314931, Control_c, 0, 64, 109
1, 314945, Control_c, 0, 64, 127
1, 315118, Note_on_c, 0, 38, 21
1, 315197, Note_on_c, 0, 62, 27
1, 315335, Note_off_c, 0, 38, 36
1, 315371, Note_off_c, 0, 62, 42
1, 315391, Note_on_c, 0, 66, 40
1, 315519, Note_off_c, 0, 66, 47
1, 315535, Note_on_c, 0, 70, 51
1, 315546, Note_on_c, 0, 38, 27
1, 315634, Control_c, 0, 64, 119
1, 315649, Control_c, 0, 64, 113
1, 315661, Note_on_c, 0, 69, 64
1, 315664, Control_c, 0, 64, 107
1, 315679, Control_c, 0, 64, 103
1, 315694, Control_c, 0, 64, 98
1, 315699, Note_off_c, 0, 60, 39
1, 315708, Control_c, 0, 64, 95
1, 315712, Note_off_c, 0, 70, 34
1, 315723, Control_c, 0, 64, 92
1, 315738, Control_c, 0, 64, 88
1, 315753, Control_c, 0, 64, 85
1, 315775, Control_c, 0, 64, 82
1, 315788, Note_off_c, 0, 38, 33
1, 315790, Control_c, 0, 64, 80
1, 315805, Control_c, 0, 64, 77
1, 315820, Control_c, 0, 64, 74
1, 315827, Note_on_c, 0, 67, 60
1, 315835, Control_c, 0, 64, 71
1, 315849, Control_c, 0, 64, 69
1, 315863, Note_off_c, 0, 69, 57
1, 315864, Control_c, 0, 64, 68
1, 315879, Control_c, 0, 64, 66
1, 315894, Control_c, 0, 64, 64
1, 315909, Control_c, 0, 64, 61
1, 315923, Control_c, 0, 64, 58
1, 315938, Control_c, 0, 64, 54
1, 315953, Control_c, 0, 64, 51
1, 315967, Control_c, 0, 64, 47
1, 315982, Control_c, 0, 64, 39
1, 315997, Control_c, 0, 64, 31
1, 316012, Control_c, 0, 64, 30
1, 316027, Control_c, 0, 64, 34
1, 316042, Control_c, 0, 64, 42
1, 316057, Control_c, 0, 64, 49
1, 316072, Control_c, 0, 64, 55
1, 316086, Control_c, 0, 64, 60
1, 316101, Control_c, 0, 64, 63
1, 316117, Control_c, 0, 64, 65
1, 316124, Note_on_c, 0, 62, 27
1, 316131, Control_c, 0, 64, 68
1, 316133, Note_on_c, 0, 38, 28
1, 316134, Note_on_c, 0, 58, 32
1, 316146, Control_c, 0, 64, 72
1, 316161, Control_c, 0, 64, 80
1, 316176, Control_c, 0, 64, 89
1, 316191, Control_c, 0, 64, 100
1, 316206, Control_c, 0, 64, 116
1, 316221, Control_c, 0, 64, 127
1, 316280, Note_off_c, 0, 62, 37
1, 316292, Note_off_c, 0, 58, 35
1, 316302, Note_off_c, 0, 38, 27
1, 316419, Note_on_c, 0, 62, 36
1, 316421, Note_on_c, 0, 58, 39
1, 316431, Note_on_c, 0, 38, 27
1, 316478, Note_off_c, 0, 62, 54
1, 316488, Note_off_c, 0, 38, 55
1, 316495, Note_off_c, 0, 58, 56
1, 316522, Note_off_c, 0, 67, 53
1, 316822, Note_on_c, 0, 74, 64
1, 316850, Control_c, 0, 64, 114
1, 316859, Note_on_c, 0, 62, 44
1, 316865, Control_c, 0, 64, 113
1, 316925, Control_c, 0, 64, 113
1, 316940, Control_c, 0, 64, 115
1, 316954, Control_c, 0, 64, 117
1, 316984, Control_c, 0, 64, 118
1, 317014, Control_c, 0, 64, 121
1, 317028, Control_c, 0, 64, 123
1, 317043, Control_c, 0, 64, 127
1, 317159, Note_on_c, 0, 70, 44
1, 317168, Note_on_c, 0, 58, 35
1, 317172, Note_on_c, 0, 55, 36
1, 317182, Note_on_c, 0, 67, 40
1, 317183, Note_on_c, 0, 50, 30
1, 317303, Note_off_c, 0, 70, 54
1, 317313, Note_off_c, 0, 67, 58
1, 317324, Note_off_c, 0, 58, 49
1, 317341, Note_off_c, 0, 50, 34
1, 317350, Note_off_c, 0, 55, 32
1, 317465, Note_on_c, 0, 70, 51
1, 317471, Note_on_c, 0, 67, 45
1, 317481, Note_on_c, 0, 50, 36
1, 317484, Note_on_c, 0, 55, 42
1, 317487, Note_on_c, 0, 58, 44
1, 317553, Note_off_c, 0, 50, 49
1, 317554, Note_off_c, 0, 62, 33
1, 317631, Note_off_c, 0, 67, 34
1, 317684, Note_off_c, 0, 70, 35
1, 317686, Note_off_c, 0, 74, 58
1, 317708, Note_off_c, 0, 55, 33
1, 317808, Control_c, 0, 64, 106
1, 317823, Control_c, 0, 64, 95
1, 317837, Control_c, 0, 64, 88
1, 317852, Control_c, 0, 64, 82
1, 317859, Note_on_c, 0, 76, 55
1, 317867, Control_c, 0, 64, 78
1, 317878, Note_on_c, 0, 64, 37
1, 317882, Control_c, 0, 64, 74
1, 317890, Note_off_c, 0, 58, 35
1, 317897, Control_c, 0, 64, 67
1, 317911, Control_c, 0, 64, 58
1, 317926, Control_c, 0, 64, 41
1, 317941, Control_c, 0, 64, 33
1, 317970, Control_c, 0, 64, 35
1, 317985, Control_c, 0, 64, 44
1, 318008, Control_c, 0, 64, 53
1, 318023, Control_c, 0, 64, 61
1, 318037, Control_c, 0, 64, 67
1, 318052, Control_c, 0, 64, 72
1, 318067, Control_c, 0, 64, 83
1, 318082, Control_c, 0, 64, 101
1, 318097, Control_c, 0, 64, 127
1, 318195, Note_off_c, 0, 64, 34
1, 318230, Note_on_c, 0, 58, 29
1, 318245, Note_on_c, 0, 50, 24
1, 318250, Note_on_c, 0, 67, 30
1, 318253, Note_on_c, 0, 70, 27
1, 318266, Note_on_c, 0, 55, 32
1, 318410, Note_off_c, 0, 70, 45
1, 318419, Note_off_c, 0, 67, 43
1, 318422, Note_off_c, 0, 58, 40
1, 318425, Note_off_c, 0, 50, 39
1, 318429, Note_off_c, 0, 55, 31
1, 318709, Note_on_c, 0, 70, 27
1, 318727, Note_on_c, 0, 67, 26
1, 318744, Note_on_c, 0, 58, 24
1, 318769, Note_on_c, 0, 50, 15
1, 318779, Note_on_c, 0, 55, 13
1, 318978, Note_off_c, 0, 70, 41
1, 319017, Note_off_c, 0, 67, 39
1, 319020, Note_off_c, 0, 55, 37
1, 319020, Note_off_c, 0, 58, 39
1, 319037, Control_c, 0, 64, 123
1, 319051, Control_c, 0, 64, 117
1, 319063, Note_off_c, 0, 76, 49
1, 319066, Control_c, 0, 64, 112
1, 319077, Note_off_c, 0, 50, 34
1, 319081, Control_c, 0, 64, 104
1, 319096, Control_c, 0, 64, 98
1, 319111, Control_c, 0, 64, 94
1, 319125, Control_c, 0, 64, 92
1, 319140, Control_c, 0, 64, 90
1, 319155, Control_c, 0, 64, 88
1, 319170, Control_c, 0, 64, 85
1, 319184, Control_c, 0, 64, 81
1, 319199, Control_c, 0, 64, 78
1, 319214, Control_c, 0, 64, 77
1, 319229, Control_c, 0, 64, 77
1, 319244, Control_c, 0, 64, 76
1, 319258, Control_c, 0, 64, 75
1, 319273, Control_c, 0, 64, 72
1, 319288, Control_c, 0, 64, 71
1, 319304, Control_c, 0, 64, 70
1, 319334, Control_c, 0, 64, 68
1, 319349, Control_c, 0, 64, 66
1, 319363, Control_c, 0, 64, 65
1, 319378, Control_c, 0, 64, 65
1, 319393, Control_c, 0, 64, 64
1, 319407, Control_c, 0, 64, 63
1, 319422, Control_c, 0, 64, 62
1, 319437, Control_c, 0, 64, 60
1, 319452, Control_c, 0, 64, 59
1, 319467, Control_c, 0, 64, 58
1, 319482, Control_c, 0, 64, 57
1, 319497, Control_c, 0, 64, 55
1, 319519, Control_c, 0, 64, 53
1, 319534, Control_c, 0, 64, 52
1, 319549, Control_c, 0, 64, 52
1, 319563, Control_c, 0, 64, 51
1, 319578, Control_c, 0, 64, 50
1, 319593, Control_c, 0, 64, 49
1, 319652, Control_c, 0, 64, 49
1, 319667, Control_c, 0, 64, 50
1, 319681, Control_c, 0, 64, 50
1, 319696, Control_c, 0, 64, 51
1, 319711, Control_c, 0, 64, 52
1, 319726, Control_c, 0, 64, 52
1, 319741, Control_c, 0, 64, 53
1, 319756, Control_c, 0, 64, 54
1, 319771, Control_c, 0, 64, 55
1, 319786, Control_c, 0, 64, 56
1, 319801, Control_c, 0, 64, 57
1, 319815, Control_c, 0, 64, 58
1, 319830, Control_c, 0, 64, 59
1, 319845, Control_c, 0, 64, 60
1, 319860, Control_c, 0, 64, 61
1, 319872, Note_on_c, 0, 58, 30
1, 319874, Control_c, 0, 64, 62
1, 319889, Control_c, 0, 64, 63
1, 319904, Control_c, 0, 64, 64
1, 319919, Control_c, 0, 64, 65
1, 319934, Control_c, 0, 64, 67
1, 319948, Control_c, 0, 64, 69
1, 319963, Control_c, 0, 64, 72
1, 319978, Control_c, 0, 64, 77
1, 319993, Control_c, 0, 64, 82
1, 320007, Control_c, 0, 64, 87
1, 320022, Control_c, 0, 64, 92
1, 320037, Control_c, 0, 64, 97
1, 320052, Control_c, 0, 64, 104
1, 320067, Control_c, 0, 64, 116
1, 320081, Control_c, 0, 64, 127
1, 320113, Note_on_c, 0, 38, 30
1, 320193, Note_on_c, 0, 61, 39
1, 320310, Note_off_c, 0, 38, 29
1, 320403, Note_on_c, 0, 64, 45
1, 320421, Note_off_c, 0, 61, 32
1, 320539, Note_on_c, 0, 69, 50
1, 320549, Note_off_c, 0, 64, 56
1, 320550, Note_on_c, 0, 38, 36
1, 320656, Note_on_c, 0, 67, 58
1, 320657, Note_off_c, 0, 69, 57
1, 320698, Note_off_c, 0, 67, 60
1, 320722, Note_off_c, 0, 58, 41
1, 320784, Note_off_c, 0, 38, 35
1, 320786, Control_c, 0, 64, 105
1, 320794, Note_on_c, 0, 67, 64
1, 320801, Control_c, 0, 64, 94
1, 320816, Control_c, 0, 64, 86
1, 320830, Control_c, 0, 64, 81
1, 320845, Control_c, 0, 64, 78
1, 320860, Control_c, 0, 64, 74
1, 320875, Control_c, 0, 64, 67
1, 320890, Control_c, 0, 64, 62
1, 320906, Control_c, 0, 64, 60
1, 320950, Control_c, 0, 64, 58
1, 320965, Control_c, 0, 64, 50
1, 320980, Control_c, 0, 64, 29
1, 321002, Control_c, 0, 64, 0
1, 321054, Note_on_c, 0, 64, 48
1, 321058, Note_on_c, 0, 61, 42
1, 321063, Note_on_c, 0, 38, 33
1, 321075, Note_on_c, 0, 58, 36
1, 321106, Control_c, 0, 64, 11
1, 321121, Control_c, 0, 64, 46
1, 321135, Control_c, 0, 64, 61
1, 321150, Control_c, 0, 64, 66
1, 321165, Control_c, 0, 64, 70
1, 321173, Note_off_c, 0, 38, 51
1, 321174, Note_off_c, 0, 61, 60
1, 321174, Note_off_c, 0, 64, 61
1, 321180, Control_c, 0, 64, 75
1, 321183, Note_off_c, 0, 58, 56
1, 321195, Control_c, 0, 64, 84
1, 321209, Control_c, 0, 64, 95
1, 321224, Control_c, 0, 64, 121
1, 321239, Control_c, 0, 64, 127
1, 321283, Control_c, 0, 67, 126
1, 321298, Control_c, 0, 67, 125
1, 321313, Control_c, 0, 67, 124
1, 321321, Note_on_c, 0, 58, 53
1, 321324, Note_on_c, 0, 61, 51
1, 321325, Note_on_c, 0, 64, 48
1, 321327, Control_c, 0, 67, 124
1, 321330, Note_on_c, 0, 38, 45
1, 321351, Note_off_c, 0, 67, 58
1, 321375, Note_off_c, 0, 38, 59
1, 321381, Note_off_c, 0, 58, 61
1, 321407, Note_off_c, 0, 64, 61
1, 321411, Note_off_c, 0, 61, 59
1, 321521, Control_c, 0, 67, 124
1, 321550, Control_c, 0, 67, 125
1, 321714, Control_c, 0, 67, 124
1, 321720, Note_on_c, 0, 76, 79
1, 321729, Control_c, 0, 67, 124
1, 321735, Note_on_c, 0, 64, 56
1, 321750, Control_c, 0, 67, 123
1, 321765, Control_c, 0, 67, 122
1, 321780, Control_c, 0, 67, 122
1, 321795, Control_c, 0, 67, 120
1, 321825, Control_c, 0, 67, 119
1, 321840, Control_c, 0, 67, 118
1, 321855, Control_c, 0, 67, 109
1, 321869, Control_c, 0, 67, 99
1, 321884, Control_c, 0, 67, 91
1, 321899, Control_c, 0, 67, 85
1, 321914, Control_c, 0, 67, 81
1, 321929, Control_c, 0, 67, 79
1, 321944, Control_c, 0, 67, 78
1, 321958, Control_c, 0, 67, 77
1, 322002, Control_c, 0, 67, 77
1, 322024, Note_off_c, 0, 64, 52
1, 322032, Control_c, 0, 67, 76
1, 322091, Note_on_c, 0, 73, 58
1, 322097, Note_on_c, 0, 50, 37
1, 322098, Note_on_c, 0, 70, 48
1, 322105, Note_on_c, 0, 58, 48
1, 322111, Note_on_c, 0, 67, 50
1, 322112, Note_on_c, 0, 55, 43
1, 322229, Note_off_c, 0, 73, 62
1, 322230, Note_off_c, 0, 70, 59
1, 322231, Note_off_c, 0, 55, 52
1, 322233, Note_off_c, 0, 67, 55
1, 322236, Note_off_c, 0, 58, 56
1, 322255, Note_off_c, 0, 50, 36
1, 322352, Note_on_c, 0, 73, 72
1, 322358, Control_c, 0, 67, 77
1, 322364, Note_on_c, 0, 67, 63
1, 322366, Note_on_c, 0, 70, 62
1, 322370, Note_on_c, 0, 58, 60
1, 322377, Note_on_c, 0, 50, 47
1, 322380, Note_on_c, 0, 55, 48
1, 322417, Control_c, 0, 67, 77
1, 322439, Note_off_c, 0, 50, 55
1, 322443, Note_off_c, 0, 76, 58
1, 322476, Control_c, 0, 67, 78
1, 322533, Note_off_c, 0, 67, 56
1, 322553, Note_off_c, 0, 70, 58
1, 322555, Note_off_c, 0, 58, 55
1, 322559, Control_c, 0, 67, 78
1, 322580, Note_off_c, 0, 55, 37
1, 322594, Note_off_c, 0, 73, 60
1, 322713, Note_on_c, 0, 66, 66
1, 322713, Note_on_c, 0, 78, 87
1, 322767, Control_c, 0, 64, 116
1, 322781, Control_c, 0, 64, 93
1, 322796, Control_c, 0, 64, 82
1, 322811, Control_c, 0, 64, 73
1, 322825, Control_c, 0, 64, 65
1, 322840, Control_c, 0, 64, 56
1, 322855, Control_c, 0, 64, 48
1, 322870, Control_c, 0, 64, 46
1, 322885, Control_c, 0, 64, 49
1, 322899, Control_c, 0, 64, 55
1, 322914, Control_c, 0, 64, 59
1, 322929, Control_c, 0, 64, 64
1, 322929, Control_c, 0, 67, 79
1, 322944, Control_c, 0, 64, 70
1, 322959, Control_c, 0, 64, 83
1, 322973, Control_c, 0, 64, 127
1, 322975, Note_off_c, 0, 66, 62
1, 323083, Note_on_c, 0, 73, 56
1, 323093, Note_on_c, 0, 70, 54
1, 323102, Note_on_c, 0, 67, 54
1, 323109, Note_on_c, 0, 58, 45
1, 323121, Note_on_c, 0, 55, 38
1, 323128, Note_on_c, 0, 50, 37
1, 323166, Control_c, 0, 67, 80
1, 323198, Note_off_c, 0, 50, 54
1, 323204, Note_off_c, 0, 70, 60
1, 323206, Note_off_c, 0, 73, 62
1, 323216, Note_off_c, 0, 67, 59
1, 323221, Note_off_c, 0, 58, 56
1, 323265, Note_off_c, 0, 55, 36
1, 323327, Note_on_c, 0, 73, 77
1, 323339, Note_on_c, 0, 67, 69
1, 323339, Note_on_c, 0, 70, 66
1, 323348, Note_on_c, 0, 50, 51
1, 323354, Note_off_c, 0, 78, 60
1, 323354, Note_on_c, 0, 55, 55
1, 323354, Note_on_c, 0, 58, 60
1, 323396, Note_off_c, 0, 50, 56
1, 323449, Note_off_c, 0, 73, 60
1, 323515, Control_c, 0, 67, 79
1, 323524, Note_off_c, 0, 55, 37
1, 323526, Note_on_c, 0, 76, 83
1, 323533, Note_on_c, 0, 64, 62
1, 323560, Note_off_c, 0, 58, 48
1, 323560, Control_c, 0, 64, 97
1, 323560, Control_c, 0, 67, 78
1, 323560, Note_off_c, 0, 70, 60
1, 323575, Control_c, 0, 64, 80
1, 323575, Control_c, 0, 67, 78
1, 323575, Note_off_c, 0, 67, 35
1, 323589, Control_c, 0, 64, 69
1, 323604, Control_c, 0, 64, 63
1, 323604, Control_c, 0, 67, 77
1, 323619, Control_c, 0, 64, 62
1, 323634, Control_c, 0, 64, 63
1, 323634, Control_c, 0, 67, 77
1, 323648, Control_c, 0, 64, 63
1, 323663, Control_c, 0, 64, 65
1, 323663, Control_c, 0, 67, 76
1, 323678, Control_c, 0, 64, 67
1, 323686, Note_off_c, 0, 64, 56
1, 323693, Control_c, 0, 64, 72
1, 323708, Control_c, 0, 64, 82
1, 323722, Control_c, 0, 64, 111
1, 323737, Control_c, 0, 64, 127
1, 323737, Control_c, 0, 67, 75
1, 323757, Note_on_c, 0, 73, 61
1, 323765, Note_on_c, 0, 67, 54
1, 323767, Note_on_c, 0, 50, 45
1, 323770, Note_on_c, 0, 70, 56
1, 323777, Note_off_c, 0, 76, 59
1, 323779, Note_on_c, 0, 55, 51
1, 323780, Note_on_c, 0, 58, 51
1, 323819, Note_off_c, 0, 50, 60
1, 323823, Note_off_c, 0, 67, 57
1, 323834, Note_off_c, 0, 55, 61
1, 323834, Note_off_c, 0, 58, 58
1, 323848, Note_off_c, 0, 70, 60
1, 323857, Note_off_c, 0, 73, 60
1, 323929, Control_c, 0, 67, 76
1, 323959, Control_c, 0, 64, 110
1, 323959, Control_c, 0, 67, 77
1, 323974, Control_c, 0, 64, 94
1, 323989, Control_c, 0, 64, 85
1, 324011, Control_c, 0, 64, 82
1, 324011, Control_c, 0, 67, 77
1, 324026, Control_c, 0, 64, 80
1, 324041, Control_c, 0, 64, 74
1, 324055, Control_c, 0, 64, 68
1, 324070, Control_c, 0, 64, 64
1, 324085, Control_c, 0, 64, 63
1, 324101, Control_c, 0, 64, 63
1, 324116, Control_c, 0, 64, 62
1, 324131, Control_c, 0, 64, 59
1, 324146, Control_c, 0, 64, 50
1, 324160, Control_c, 0, 64, 36
1, 324175, Control_c, 0, 64, 12
1, 324190, Control_c, 0, 64, 0
1, 324205, Control_c, 0, 64, 13
1, 324220, Control_c, 0, 64, 34
1, 324234, Control_c, 0, 64, 51
1, 324234, Control_c, 0, 67, 77
1, 324249, Control_c, 0, 64, 64
1, 324249, Control_c, 0, 67, 76
1, 324256, Note_on_c, 0, 78, 81
1, 324260, Note_on_c, 0, 66, 76
1, 324264, Control_c, 0, 64, 74
1, 324264, Control_c, 0, 67, 75
1, 324278, Control_c, 0, 64, 127
1, 324278, Control_c, 0, 67, 75
1, 324290, Note_off_c, 0, 66, 63
1, 324293, Control_c, 0, 67, 73
1, 324296, Note_off_c, 0, 78, 62
1, 324308, Control_c, 0, 67, 72
1, 324323, Control_c, 0, 67, 70
1, 324338, Control_c, 0, 67, 61
1, 324342, Note_on_c, 0, 78, 87
1, 324350, Note_on_c, 0, 66, 85
1, 324353, Control_c, 0, 67, 45
1, 324367, Control_c, 0, 67, 24
1, 324382, Control_c, 0, 67, 9
1, 324397, Control_c, 0, 67, 0
1, 324411, Note_off_c, 0, 66, 60
1, 324663, Note_on_c, 0, 73, 62
1, 324672, Note_on_c, 0, 67, 53
1, 324673, Note_on_c, 0, 55, 50
1, 324674, Note_on_c, 0, 70, 57
1, 324682, Note_on_c, 0, 58, 51
1, 324686, Note_on_c, 0, 50, 44
1, 324764, Note_off_c, 0, 73, 63
1, 324767, Note_off_c, 0, 50, 58
1, 324771, Note_off_c, 0, 70, 58
1, 324773, Note_off_c, 0, 67, 57
1, 324782, Note_off_c, 0, 58, 61
1, 324790, Note_off_c, 0, 55, 58
1, 324868, Note_off_c, 0, 78, 60
1, 324871, Note_on_c, 0, 73, 81
1, 324882, Note_on_c, 0, 70, 74
1, 324885, Note_on_c, 0, 67, 70
1, 324887, Note_on_c, 0, 50, 60
1, 324891, Note_on_c, 0, 58, 70
1, 324897, Note_on_c, 0, 55, 60
1, 324931, Note_off_c, 0, 50, 58
1, 324996, Note_off_c, 0, 73, 62
1, 325038, Note_on_c, 0, 76, 92
1, 325047, Note_on_c, 0, 64, 81
1, 325062, Note_off_c, 0, 70, 63
1, 325069, Note_off_c, 0, 67, 52
1, 325072, Note_off_c, 0, 55, 34
1, 325079, Note_off_c, 0, 58, 56
1, 325160, Note_off_c, 0, 64, 60
1, 325224, Note_on_c, 0, 50, 74
1, 325224, Note_on_c, 0, 73, 86
1, 325229, Note_on_c, 0, 58, 83
1, 325230, Note_off_c, 0, 76, 59
1, 325232, Note_on_c, 0, 55, 73
1, 325235, Note_on_c, 0, 67, 72
1, 325235, Note_on_c, 0, 70, 76
1, 325273, Note_off_c, 0, 50, 61
1, 325284, Note_off_c, 0, 55, 62
1, 325291, Note_off_c, 0, 58, 63
1, 325302, Note_off_c, 0, 67, 58
1, 325323, Note_off_c, 0, 73, 63
1, 325333, Note_off_c, 0, 70, 62
1, 325443, Control_c, 0, 64, 113
1, 325458, Control_c, 0, 64, 82
1, 325473, Control_c, 0, 64, 64
1, 325494, Control_c, 0, 64, 0
1, 325577, Note_on_c, 0, 78, 94
1, 325581, Note_on_c, 0, 66, 103
1, 325584, Control_c, 0, 64, 46
1, 325599, Control_c, 0, 64, 71
1, 325613, Control_c, 0, 64, 127
1, 325616, Note_off_c, 0, 66, 62
1, 325628, Note_off_c, 0, 78, 65
1, 325678, Note_on_c, 0, 78, 95
1, 325680, Note_on_c, 0, 66, 100
1, 325750, Note_off_c, 0, 66, 55
1, 325937, Note_on_c, 0, 73, 80
1, 325943, Note_on_c, 0, 67, 76
1, 325946, Note_on_c, 0, 70, 75
1, 325947, Note_on_c, 0, 55, 66
1, 325948, Note_on_c, 0, 58, 70
1, 325949, Note_on_c, 0, 50, 62
1, 326021, Note_off_c, 0, 50, 60
1, 326027, Note_off_c, 0, 70, 62
1, 326028, Note_off_c, 0, 73, 63
1, 326033, Note_off_c, 0, 67, 58
1, 326043, Note_off_c, 0, 58, 61
1, 326045, Note_off_c, 0, 55, 57
1, 326101, Note_off_c, 0, 78, 62
1, 326118, Note_on_c, 0, 73, 93
1, 326122, Note_on_c, 0, 70, 85
1, 326123, Note_on_c, 0, 58, 85
1, 326125, Note_on_c, 0, 67, 80
1, 326127, Note_on_c, 0, 55, 78
1, 326128, Note_on_c, 0, 50, 72
1, 326190, Note_off_c, 0, 50, 61
1, 326231, Note_off_c, 0, 73, 61
1, 326236, Poly_aftertouch_c, 0, 69, 0
1, 326260, Note_off_c, 0, 67, 58
1, 326272, Note_off_c, 0, 70, 62
1, 326274, Note_off_c, 0, 55, 58
1, 326283, Note_on_c, 0, 76, 97
1, 326289, Note_on_c, 0, 64, 95
1, 326301, Note_off_c, 0, 58, 0
1, 326356, Poly_aftertouch_c, 0, 58, 0
1, 326375, Note_off_c, 0, 64, 64
1, 326460, Note_on_c, 0, 73, 89
1, 326462, Note_off_c, 0, 76, 58
1, 326466, Note_on_c, 0, 50, 78
1, 326466, Note_on_c, 0, 67, 78
1, 326469, Note_on_c, 0, 70, 83
1, 326469, Note_on_c, 0, 58, 95
1, 326472, Note_on_c, 0, 55, 87
1, 326492, Note_on_c, 0, 54, 53
1, 326498, Note_off_c, 0, 67, 58
1, 326512, Note_off_c, 0, 50, 62
1, 326516, Note_off_c, 0, 54, 60
1, 326519, Note_off_c, 0, 55, 64
1, 326519, Note_off_c, 0, 58, 64
1, 326529, Note_off_c, 0, 70, 60
1, 326529, Note_off_c, 0, 73, 66
1, 326759, Note_on_c, 0, 78, 102
1, 326762, Control_c, 0, 64, 110
1, 326769, Note_on_c, 0, 66, 99
1, 326777, Control_c, 0, 64, 69
1, 326792, Control_c, 0, 64, 0
1, 326836, Control_c, 0, 64, 21
1, 326851, Control_c, 0, 64, 61
1, 326865, Control_c, 0, 64, 84
1, 326880, Control_c, 0, 64, 127
1, 326887, Note_off_c, 0, 66, 57
1, 326898, Note_off_c, 0, 78, 61
1, 326936, Note_on_c, 0, 69, 98
1, 326958, Note_on_c, 0, 81, 100
1, 326985, Control_c, 0, 64, 93
1, 327007, Control_c, 0, 64, 71
1, 327021, Control_c, 0, 64, 50
1, 327036, Control_c, 0, 64, 0
1, 327110, Control_c, 0, 64, 50
1, 327125, Control_c, 0, 64, 68
1, 327140, Control_c, 0, 64, 101
1, 327155, Control_c, 0, 64, 127
1, 327258, Note_on_c, 0, 76, 67
1, 327259, Note_on_c, 0, 58, 63
1, 327261, Note_on_c, 0, 64, 64
1, 327264, Note_on_c, 0, 73, 79
1, 327265, Note_on_c, 0, 70, 77
1, 327268, Note_on_c, 0, 61, 56
1, 327343, Note_off_c, 0, 58, 59
1, 327378, Note_off_c, 0, 73, 63
1, 327380, Note_off_c, 0, 70, 62
1, 327392, Note_off_c, 0, 76, 63
1, 327396, Note_off_c, 0, 64, 60
1, 327399, Note_off_c, 0, 61, 58
1, 327445, Note_off_c, 0, 69, 56
1, 327480, Note_on_c, 0, 64, 84
1, 327482, Note_on_c, 0, 76, 87
1, 327482, Note_off_c, 0, 81, 62
1, 327482, Note_on_c, 0, 73, 95
1, 327483, Note_on_c, 0, 70, 94
1, 327487, Note_on_c, 0, 58, 78
1, 327493, Note_on_c, 0, 61, 80
1, 327563, Note_on_c, 0, 71, 53
1, 327581, Note_off_c, 0, 58, 59
1, 327610, Note_off_c, 0, 70, 50
1, 327631, Note_off_c, 0, 71, 63
1, 327652, Note_off_c, 0, 76, 60
1, 327680, Note_on_c, 0, 79, 100
1, 327685, Note_on_c, 0, 67, 102
1, 327700, Note_off_c, 0, 73, 59
1, 327720, Note_off_c, 0, 64, 62
1, 327751, Note_off_c, 0, 61, 34
1, 327908, Note_off_c, 0, 67, 61
1, 327921, Note_on_c, 0, 64, 92
1, 327924, Note_on_c, 0, 70, 98
1, 327924, Note_on_c, 0, 73, 99
1, 327924, Note_on_c, 0, 76, 87
1, 327927, Note_on_c, 0, 61, 77
1, 327929, Note_on_c, 0, 58, 88
1, 327938, Note_off_c, 0, 79, 64
1, 328017, Note_off_c, 0, 64, 61
1, 328037, Note_off_c, 0, 58, 61
1, 328054, Note_off_c, 0, 61, 59
1, 328065, Note_off_c, 0, 70, 56
1, 328111, Note_off_c, 0, 76, 62
1, 328185, Note_off_c, 0, 73, 61
1, 328234, Note_on_c, 0, 81, 97
1, 328234, Note_on_c, 0, 69, 106
1, 328496, Note_off_c, 0, 81, 60
1, 328523, Note_off_c, 0, 69, 51
1, 328696, Note_on_c, 0, 38, 100
1, 328702, Note_on_c, 0, 26, 93
1, 328717, Note_on_c, 0, 82, 104
1, 328718, Note_on_c, 0, 70, 104
1, 328720, Note_on_c, 0, 74, 86
1, 328740, Control_c, 0, 64, 73
1, 328755, Control_c, 0, 64, 0
1, 328800, Control_c, 0, 64, 16
1, 328815, Control_c, 0, 64, 63
1, 328830, Control_c, 0, 64, 127
1, 328838, Note_off_c, 0, 26, 61
1, 328888, Note_off_c, 0, 38, 63
1, 328967, Note_off_c, 0, 70, 61
1, 328996, Note_off_c, 0, 74, 61
1, 329021, Note_off_c, 0, 82, 63
1, 329208, Note_on_c, 0, 58, 95
1, 329208, Note_on_c, 0, 50, 79
1, 329393, Note_on_c, 0, 94, 109
1, 329401, Note_on_c, 0, 86, 92
1, 329483, Note_off_c, 0, 86, 61
1, 329530, Note_off_c, 0, 50, 31
1, 329579, Note_on_c, 0, 55, 77
1, 329581, Note_on_c, 0, 62, 86
1, 329610, Note_off_c, 0, 58, 59
1, 329624, Note_on_c, 0, 96, 99
1, 329630, Note_on_c, 0, 87, 101
1, 329652, Note_off_c, 0, 94, 62
1, 329718, Note_off_c, 0, 87, 63
1, 329738, Note_off_c, 0, 62, 61
1, 329809, Note_on_c, 0, 94, 102
1, 329817, Note_on_c, 0, 86, 93
1, 329834, Note_off_c, 0, 96, 65
1, 329861, Note_off_c, 0, 86, 65
1, 329871, Note_off_c, 0, 94, 65
1, 329933, Note_on_c, 0, 67, 91
1, 329937, Note_on_c, 0, 93, 102
1, 329940, Note_on_c, 0, 58, 78
1, 329940, Note_on_c, 0, 84, 101
1, 329973, Note_off_c, 0, 84, 68
1, 329999, Note_off_c, 0, 55, 48
1, 330004, Note_off_c, 0, 67, 57
1, 330056, Note_on_c, 0, 91, 101
1, 330064, Note_on_c, 0, 82, 101
1, 330078, Note_off_c, 0, 93, 67
1, 330111, Note_off_c, 0, 82, 64
1, 330133, Note_off_c, 0, 91, 62
1, 330147, Note_off_c, 0, 58, 62
1, 330171, Note_on_c, 0, 90, 96
1, 330173, Note_on_c, 0, 62, 92
1, 330174, Note_on_c, 0, 55, 83
1, 330176, Note_on_c, 0, 81, 92
1, 330220, Note_off_c, 0, 81, 64
1, 330252, Note_off_c, 0, 90, 63
1, 330274, Note_on_c, 0, 91, 100
1, 330281, Note_on_c, 0, 82, 100
1, 330300, Note_off_c, 0, 62, 57
1, 330349, Note_off_c, 0, 82, 63
1, 330407, Note_on_c, 0, 50, 81
1, 330410, Note_on_c, 0, 58, 90
1, 330441, Note_off_c, 0, 55, 61
1, 330447, Note_on_c, 0, 89, 96
1, 330457, Note_on_c, 0, 81, 91
1, 330466, Note_off_c, 0, 58, 66
1, 330486, Note_off_c, 0, 91, 61
1, 330490, Note_off_c, 0, 50, 63
1, 330590, Note_off_c, 0, 81, 62
1, 330720, Note_on_c, 0, 87, 95
1, 330727, Note_on_c, 0, 79, 90
1, 330757, Note_off_c, 0, 89, 62
1, 330792, Note_off_c, 0, 79, 64
1, 330795, Note_off_c, 0, 87, 63
1, 330840, Note_on_c, 0, 38, 94
1, 330846, Note_on_c, 0, 26, 85
1, 330855, Control_c, 0, 64, 84
1, 330869, Note_on_c, 0, 87, 98
1, 330869, Control_c, 0, 64, 55
1, 330873, Note_on_c, 0, 79, 91
1, 330884, Control_c, 0, 64, 0
1, 330899, Control_c, 0, 64, 23
1, 330914, Control_c, 0, 64, 58
1, 330928, Control_c, 0, 64, 78
1, 330939, Note_off_c, 0, 26, 62
1, 330943, Control_c, 0, 64, 127
1, 330967, Note_off_c, 0, 38, 61
1, 330990, Note_off_c, 0, 87, 62
1, 331090, Note_on_c, 0, 86, 95
1, 331142, Note_off_c, 0, 79, 63
1, 331155, Note_off_c, 0, 86, 62
1, 331219, Note_on_c, 0, 60, 80
1, 331229, Note_on_c, 0, 50, 67
1, 331232, Note_on_c, 0, 54, 66
1, 331235, Note_on_c, 0, 84, 92
1, 331242, Note_on_c, 0, 75, 90
1, 331274, Note_off_c, 0, 75, 60
1, 331301, Note_off_c, 0, 54, 63
1, 331303, Note_off_c, 0, 50, 63
1, 331330, Note_off_c, 0, 60, 59
1, 331347, Note_on_c, 0, 74, 91
1, 331348, Note_on_c, 0, 82, 88
1, 331360, Note_off_c, 0, 84, 60
1, 331388, Note_off_c, 0, 74, 66
1, 331394, Note_off_c, 0, 82, 66
1, 331457, Note_on_c, 0, 62, 84
1, 331458, Note_on_c, 0, 60, 76
1, 331460, Note_on_c, 0, 81, 94
1, 331461, Note_on_c, 0, 54, 81
1, 331465, Note_on_c, 0, 72, 91
1, 331505, Note_off_c, 0, 72, 64
1, 331536, Note_off_c, 0, 62, 61
1, 331569, Note_on_c, 0, 79, 93
1, 331575, Note_on_c, 0, 70, 94
1, 331577, Note_off_c, 0, 54, 59
1, 331583, Note_off_c, 0, 60, 56
1, 331599, Note_off_c, 0, 81, 63
1, 331646, Note_off_c, 0, 70, 60
1, 331689, Poly_aftertouch_c, 0, 71, 0
1, 331704, Note_on_c, 0, 66, 95
1, 331711, Note_on_c, 0, 60, 74
1, 331733, Note_on_c, 0, 78, 87
1, 331743, Note_on_c, 0, 69, 87
1, 331763, Note_off_c, 0, 79, 55
1, 331799, Note_off_c, 0, 69, 60
1, 331818, Note_off_c, 0, 66, 58
1, 331862, Note_off_c, 0, 60, 58
1, 331897, Note_on_c, 0, 75, 95
1, 331900, Note_on_c, 0, 72, 87
1, 331909, Note_off_c, 0, 78, 63
1, 331942, Note_off_c, 0, 75, 64
1, 331946, Note_off_c, 0, 72, 66
1, 332011, Note_on_c, 0, 74, 96
1, 332019, Note_on_c, 0, 72, 91
1, 332051, Note_off_c, 0, 72, 57
1, 332052, Note_off_c, 0, 74, 65
1, 332108, Note_on_c, 0, 60, 74
1, 332110, Note_on_c, 0, 62, 80
1, 332115, Note_on_c, 0, 54, 78
1, 332136, Note_on_c, 0, 71, 92
1, 332137, Note_on_c, 0, 74, 87
1, 332151, Control_c, 0, 64, 92
1, 332166, Control_c, 0, 64, 74
1, 332181, Note_off_c, 0, 74, 62
1, 332181, Control_c, 0, 64, 68
1, 332182, Note_off_c, 0, 71, 64
1, 332196, Control_c, 0, 64, 74
1, 332211, Control_c, 0, 64, 95
1, 332226, Control_c, 0, 64, 127
1, 332256, Note_off_c, 0, 60, 61
1, 332263, Note_on_c, 0, 70, 90
1, 332267, Note_on_c, 0, 74, 77
1, 332268, Note_off_c, 0, 54, 62
1, 332273, Note_off_c, 0, 62, 58
1, 332295, Note_off_c, 0, 74, 67
1, 332306, Note_off_c, 0, 70, 63
1, 332350, Note_on_c, 0, 69, 99
1, 332353, Note_on_c, 0, 74, 74
1, 332374, Note_off_c, 0, 74, 70
1, 332386, Note_off_c, 0, 69, 67
1, 332427, Note_on_c, 0, 68, 95
1, 332429, Note_on_c, 0, 74, 79
1, 332453, Note_off_c, 0, 74, 68
1, 332458, Note_off_c, 0, 68, 62
1, 332499, Note_on_c, 0, 69, 87
1, 332510, Note_on_c, 0, 74, 84
1, 332534, Note_off_c, 0, 74, 68
1, 332544, Note_off_c, 0, 69, 67
1, 332577, Note_on_c, 0, 70, 97
1, 332583, Note_on_c, 0, 74, 81
1, 332586, Note_on_c, 0, 60, 98
1, 332590, Note_on_c, 0, 50, 87
1, 332591, Note_on_c, 0, 54, 86
1, 332604, Control_c, 0, 64, 70
1, 332619, Control_c, 0, 64, 0
1, 332663, Control_c, 0, 64, 34
1, 332672, Note_off_c, 0, 74, 62
1, 332678, Control_c, 0, 64, 65
1, 332693, Control_c, 0, 64, 98
1, 332702, Note_off_c, 0, 70, 65
1, 332708, Control_c, 0, 64, 127
1, 332716, Note_off_c, 0, 60, 60
1, 332763, Note_off_c, 0, 50, 61
1, 332768, Note_on_c, 0, 74, 105
1, 332771, Note_on_c, 0, 69, 101
1, 332780, Note_off_c, 0, 54, 62
1, 332843, Note_off_c, 0, 69, 59
1, 332845, Note_off_c, 0, 74, 63
1, 332922, Note_on_c, 0, 72, 99
1, 332923, Note_on_c, 0, 74, 102
1, 333015, Note_off_c, 0, 72, 65
1, 333026, Note_off_c, 0, 74, 62
1, 333096, Note_on_c, 0, 70, 105
1, 333096, Note_on_c, 0, 74, 95
1, 333127, Note_on_c, 0, 72, 47
1, 333128, Note_off_c, 0, 72, 127
1, 333203, Note_off_c, 0, 74, 57
1, 333294, Note_off_c, 0, 70, 61
1, 333308, Control_c, 0, 64, 83
1, 333317, Note_on_c, 0, 43, 104
1, 333323, Note_on_c, 0, 31, 96
1, 333323, Note_on_c, 0, 67, 105
1, 333323, Note_on_c, 0, 74, 102
1, 333323, Control_c, 0, 64, 24
1, 333338, Control_c, 0, 64, 0
1, 333377, Note_off_c, 0, 67, 64
1, 333382, Control_c, 0, 64, 61
1, 333395, Note_off_c, 0, 74, 69
1, 333397, Control_c, 0, 64, 127
1, 333427, Note_off_c, 0, 31, 63
1, 333446, Note_off_c, 0, 43, 61
1, 333584, Note_on_c, 0, 86, 66
1, 333587, Note_on_c, 0, 91, 92
1, 333590, Note_on_c, 0, 94, 107
1, 333689, Note_off_c, 0, 86, 64
1, 333692, Note_off_c, 0, 91, 62
1, 333699, Note_off_c, 0, 94, 65
1, 333720, Note_on_c, 0, 81, 84
1, 333793, Note_off_c, 0, 81, 61
1, 333825, Note_on_c, 0, 67, 84
1, 333830, Note_on_c, 0, 58, 87
1, 333832, Note_on_c, 0, 62, 77
1, 333843, Note_off_c, 0, 67, 73
1, 333856, Note_off_c, 0, 62, 69
1, 333874, Note_off_c, 0, 58, 60
1, 333928, Note_on_c, 0, 91, 89
1, 333931, Note_on_c, 0, 82, 95
1, 333931, Note_on_c, 0, 86, 81
1, 333958, Note_off_c, 0, 86, 65
1, 333959, Note_off_c, 0, 91, 62
1, 333969, Control_c, 0, 64, 90
1, 333972, Note_off_c, 0, 82, 63
1, 333984, Control_c, 0, 64, 62
1, 333999, Control_c, 0, 64, 0
1, 334013, Note_on_c, 0, 46, 86
1, 334020, Note_on_c, 0, 91, 91
1, 334023, Note_on_c, 0, 82, 85
1, 334028, Control_c, 0, 64, 49
1, 334033, Note_on_c, 0, 86, 85
1, 334043, Control_c, 0, 64, 69
1, 334046, Note_off_c, 0, 46, 64
1, 334058, Control_c, 0, 64, 127
1, 334068, Note_off_c, 0, 91, 63
1, 334103, Note_on_c, 0, 78, 95
1, 334103, Note_off_c, 0, 86, 61
1, 334112, Note_off_c, 0, 82, 62
1, 334147, Note_off_c, 0, 78, 62
1, 334197, Note_on_c, 0, 67, 83
1, 334201, Note_on_c, 0, 58, 78
1, 334208, Note_on_c, 0, 62, 62
1, 334217, Note_off_c, 0, 67, 71
1, 334233, Note_off_c, 0, 58, 62
1, 334237, Note_off_c, 0, 62, 64
1, 334267, Note_on_c, 0, 79, 90
1, 334269, Note_on_c, 0, 82, 89
1, 334274, Note_on_c, 0, 86, 74
1, 334288, Note_off_c, 0, 82, 70
1, 334289, Note_off_c, 0, 79, 68
1, 334297, Note_off_c, 0, 86, 69
1, 334309, Control_c, 0, 64, 84
1, 334324, Control_c, 0, 64, 62
1, 334339, Control_c, 0, 64, 51
1, 334344, Note_on_c, 0, 50, 79
1, 334344, Note_on_c, 0, 86, 85
1, 334347, Note_on_c, 0, 82, 83
1, 334353, Note_on_c, 0, 79, 79
1, 334353, Control_c, 0, 64, 65
1, 334368, Control_c, 0, 64, 88
1, 334373, Note_off_c, 0, 50, 67
1, 334375, Note_on_c, 0, 84, 55
1, 334380, Note_off_c, 0, 79, 65
1, 334383, Control_c, 0, 64, 127
1, 334402, Note_off_c, 0, 86, 64
1, 334411, Note_on_c, 0, 73, 85
1, 334413, Note_off_c, 0, 82, 54
1, 334414, Note_off_c, 0, 84, 51
1, 334437, Note_off_c, 0, 73, 61
1, 334494, Note_on_c, 0, 67, 82
1, 334501, Note_on_c, 0, 62, 68
1, 334506, Note_on_c, 0, 58, 62
1, 334544, Note_off_c, 0, 67, 58
1, 334546, Note_off_c, 0, 58, 55
1, 334565, Note_on_c, 0, 74, 86
1, 334574, Note_on_c, 0, 79, 66
1, 334578, Note_on_c, 0, 82, 63
1, 334584, Note_off_c, 0, 74, 70
1, 334596, Note_off_c, 0, 82, 66
1, 334601, Note_off_c, 0, 79, 67
1, 334610, Note_off_c, 0, 62, 60
1, 334614, Control_c, 0, 64, 91
1, 334629, Control_c, 0, 64, 65
1, 334635, Note_on_c, 0, 55, 70
1, 334637, Note_on_c, 0, 82, 83
1, 334642, Note_on_c, 0, 74, 84
1, 334643, Control_c, 0, 64, 29
1, 334647, Note_on_c, 0, 79, 80
1, 334658, Control_c, 0, 64, 35
1, 334673, Control_c, 0, 64, 62
1, 334687, Control_c, 0, 64, 77
1, 334698, Note_off_c, 0, 55, 61
1, 334702, Control_c, 0, 64, 127
1, 334715, Note_on_c, 0, 70, 88
1, 334725, Note_off_c, 0, 74, 62
1, 334729, Note_off_c, 0, 79, 61
1, 334753, Note_off_c, 0, 70, 65
1, 334757, Note_off_c, 0, 82, 64
1, 334784, Note_on_c, 0, 67, 79
1, 334789, Note_on_c, 0, 63, 75
1, 334796, Note_on_c, 0, 57, 66
1, 334805, Note_off_c, 0, 67, 70
1, 334814, Note_off_c, 0, 63, 68
1, 334818, Note_on_c, 0, 60, 37
1, 334832, Note_off_c, 0, 57, 65
1, 334853, Note_off_c, 0, 60, 48
1, 334861, Note_on_c, 0, 84, 83
1, 334866, Note_on_c, 0, 79, 75
1, 334866, Note_on_c, 0, 75, 84
1, 334890, Note_off_c, 0, 75, 66
1, 334902, Note_off_c, 0, 79, 64
1, 334907, Note_off_c, 0, 84, 63
1, 334940, Control_c, 0, 64, 83
1, 334953, Note_on_c, 0, 45, 75
1, 334955, Note_on_c, 0, 84, 77
1, 334955, Control_c, 0, 64, 62
1, 334965, Note_on_c, 0, 75, 81
1, 334965, Note_on_c, 0, 79, 63
1, 334969, Control_c, 0, 64, 40
1, 334984, Control_c, 0, 64, 61
1, 334999, Control_c, 0, 64, 73
1, 335014, Note_off_c, 0, 45, 62
1, 335014, Control_c, 0, 64, 127
1, 335035, Note_off_c, 0, 84, 63
1, 335036, Note_off_c, 0, 79, 64
1, 335062, Note_on_c, 0, 74, 78
1, 335062, Note_off_c, 0, 75, 61
1, 335140, Note_off_c, 0, 74, 60
1, 335142, Note_on_c, 0, 67, 68
1, 335142, Note_on_c, 0, 73, 81
1, 335147, Note_on_c, 0, 63, 60
1, 335152, Note_on_c, 0, 60, 50
1, 335191, Note_off_c, 0, 73, 64
1, 335202, Note_on_c, 0, 72, 88
1, 335217, Note_off_c, 0, 67, 57
1, 335252, Note_off_c, 0, 60, 58
1, 335266, Note_off_c, 0, 72, 56
1, 335281, Note_on_c, 0, 84, 100
1, 335286, Note_on_c, 0, 57, 77
1, 335288, Note_on_c, 0, 75, 92
1, 335289, Control_c, 0, 64, 78
1, 335292, Note_on_c, 0, 79, 80
1, 335304, Control_c, 0, 64, 62
1, 335318, Control_c, 0, 64, 62
1, 335328, Note_off_c, 0, 63, 29
1, 335333, Control_c, 0, 64, 76
1, 335346, Note_off_c, 0, 79, 65
1, 335346, Note_off_c, 0, 75, 62
1, 335348, Control_c, 0, 64, 127
1, 335349, Note_off_c, 0, 57, 63
1, 335359, Note_off_c, 0, 84, 63
1, 335367, Note_on_c, 0, 74, 88
1, 335425, Note_on_c, 0, 66, 85
1, 335434, Note_on_c, 0, 60, 77
1, 335436, Note_on_c, 0, 62, 74
1, 335443, Note_off_c, 0, 74, 57
1, 335445, Note_on_c, 0, 73, 86
1, 335450, Note_off_c, 0, 66, 64
1, 335461, Note_off_c, 0, 62, 66
1, 335475, Note_off_c, 0, 60, 63
1, 335493, Note_off_c, 0, 73, 65
1, 335500, Note_on_c, 0, 72, 87
1, 335555, Control_c, 0, 64, 69
1, 335570, Note_on_c, 0, 50, 91
1, 335570, Control_c, 0, 64, 0
1, 335573, Note_on_c, 0, 84, 97
1, 335573, Note_off_c, 0, 72, 44
1, 335576, Note_on_c, 0, 75, 87
1, 335579, Note_on_c, 0, 78, 87
1, 335614, Control_c, 0, 64, 47
1, 335615, Note_off_c, 0, 50, 66
1, 335629, Control_c, 0, 64, 99
1, 335635, Note_off_c, 0, 75, 60
1, 335635, Note_off_c, 0, 78, 62
1, 335644, Control_c, 0, 64, 127
1, 335647, Note_on_c, 0, 74, 88
1, 335656, Note_off_c, 0, 84, 63
1, 335703, Note_off_c, 0, 74, 53
1, 335716, Note_on_c, 0, 73, 90
1, 335719, Note_on_c, 0, 66, 87
1, 335735, Note_on_c, 0, 62, 66
1, 335747, Note_on_c, 0, 60, 58
1, 335768, Note_off_c, 0, 73, 65
1, 335772, Poly_aftertouch_c, 0, 61, 127
1, 335776, Note_off_c, 0, 66, 61
1, 335778, Note_on_c, 0, 72, 91
1, 335795, Note_off_c, 0, 60, 56
1, 335815, Poly_aftertouch_c, 0, 61, 0
1, 335823, Note_off_c, 0, 62, 59
1, 335826, Note_off_c, 0, 72, 63
1, 335847, Note_on_c, 0, 81, 86
1, 335849, Note_on_c, 0, 57, 87
1, 335852, Control_c, 0, 64, 105
1, 335858, Note_on_c, 0, 78, 84
1, 335859, Note_on_c, 0, 74, 76
1, 335867, Control_c, 0, 64, 64
1, 335882, Control_c, 0, 64, 0
1, 335907, Note_off_c, 0, 57, 61
1, 335915, Note_on_c, 0, 72, 86
1, 335915, Note_off_c, 0, 78, 64
1, 335924, Note_off_c, 0, 81, 67
1, 335948, Note_off_c, 0, 72, 66
1, 335955, Note_off_c, 0, 74, 51
1, 336014, Poly_aftertouch_c, 0, 79, 0
1, 336021, Note_on_c, 0, 62, 75
1, 336024, Note_on_c, 0, 70, 107
1, 336026, Note_on_c, 0, 67, 89
1, 336026, Note_on_c, 0, 79, 61
1, 336026, Note_on_c, 0, 82, 94
1, 336031, Note_on_c, 0, 74, 73
1, 336035, Note_on_c, 0, 55, 85
1, 336044, Note_off_c, 0, 67, 71
1, 336050, Note_on_c, 0, 80, 60
1, 336053, Control_c, 0, 64, 26
1, 336055, Note_off_c, 0, 62, 66
1, 336062, Note_off_c, 0, 79, 66
1, 336065, Note_off_c, 0, 70, 70
1, 336065, Note_off_c, 0, 74, 65
1, 336067, Control_c, 0, 64, 81
1, 336067, Note_off_c, 0, 80, 43
1, 336082, Control_c, 0, 64, 127
1, 336083, Note_off_c, 0, 55, 64
1, 336105, Note_off_c, 0, 82, 68
1, 336240, Note_on_c, 0, 43, 93
1, 336258, Note_on_c, 0, 94, 100
1, 336259, Note_on_c, 0, 86, 89
1, 336262, Note_on_c, 0, 91, 93
1, 336288, Note_off_c, 0, 43, 64
1, 336353, Note_off_c, 0, 86, 62
1, 336359, Note_off_c, 0, 91, 61
1, 336360, Note_off_c, 0, 94, 65
1, 336383, Note_on_c, 0, 81, 79
1, 336446, Note_off_c, 0, 81, 63
1, 336482, Note_on_c, 0, 67, 79
1, 336485, Note_on_c, 0, 58, 83
1, 336497, Note_on_c, 0, 62, 56
1, 336506, Note_off_c, 0, 67, 69
1, 336516, Note_off_c, 0, 58, 65
1, 336518, Note_off_c, 0, 62, 65
1, 336572, Note_on_c, 0, 91, 93
1, 336574, Note_on_c, 0, 86, 86
1, 336575, Note_on_c, 0, 82, 92
1, 336596, Note_off_c, 0, 86, 69
1, 336600, Note_off_c, 0, 91, 61
1, 336601, Control_c, 0, 64, 114
1, 336603, Note_off_c, 0, 82, 63
1, 336616, Control_c, 0, 64, 71
1, 336631, Control_c, 0, 64, 45
1, 336646, Control_c, 0, 64, 43
1, 336651, Note_on_c, 0, 46, 87
1, 336653, Note_on_c, 0, 91, 96
1, 336658, Note_on_c, 0, 82, 92
1, 336661, Control_c, 0, 64, 69
1, 336669, Note_on_c, 0, 86, 81
1, 336675, Control_c, 0, 64, 127
1, 336680, Note_off_c, 0, 46, 66
1, 336702, Note_off_c, 0, 91, 65
1, 336736, Note_off_c, 0, 86, 62
1, 336738, Note_off_c, 0, 82, 58
1, 336747, Note_on_c, 0, 78, 86
1, 336771, Note_off_c, 0, 78, 67
1, 336822, Note_on_c, 0, 58, 81
1, 336822, Note_on_c, 0, 67, 77
1, 336839, Note_on_c, 0, 62, 61
1, 336844, Note_off_c, 0, 67, 70
1, 336867, Note_off_c, 0, 62, 64
1, 336873, Note_off_c, 0, 58, 62
1, 336891, Note_on_c, 0, 79, 85
1, 336895, Note_on_c, 0, 82, 78
1, 336905, Control_c, 0, 64, 98
1, 336911, Note_off_c, 0, 79, 70
1, 336916, Note_off_c, 0, 82, 72
1, 336920, Control_c, 0, 64, 70
1, 336932, Note_on_c, 0, 86, 17
1, 336935, Control_c, 0, 64, 52
1, 336950, Control_c, 0, 64, 62
1, 336959, Note_on_c, 0, 79, 84
1, 336961, Note_on_c, 0, 82, 83
1, 336965, Control_c, 0, 64, 81
1, 336970, Note_on_c, 0, 50, 85
1, 336980, Control_c, 0, 64, 127
1, 336997, Note_off_c, 0, 50, 68
1, 337009, Note_off_c, 0, 79, 66
1, 337019, Note_off_c, 0, 86, 61
1, 337027, Note_off_c, 0, 82, 63
1, 337029, Note_on_c, 0, 73, 90
1, 337063, Note_off_c, 0, 73, 61
1, 337116, Note_on_c, 0, 67, 85
1, 337119, Note_on_c, 0, 58, 77
1, 337126, Note_on_c, 0, 62, 66
1, 337167, Note_off_c, 0, 67, 59
1, 337186, Note_on_c, 0, 74, 84
1, 337188, Note_on_c, 0, 79, 72
1, 337193, Note_off_c, 0, 58, 58
1, 337197, Note_on_c, 0, 82, 59
1, 337204, Note_on_c, 0, 75, 48
1, 337206, Note_off_c, 0, 74, 71
1, 337214, Note_off_c, 0, 79, 67
1, 337216, Note_off_c, 0, 82, 63
1, 337230, Note_off_c, 0, 75, 57
1, 337231, Control_c, 0, 64, 77
1, 337241, Note_off_c, 0, 62, 60
1, 337246, Control_c, 0, 64, 54
1, 337248, Note_on_c, 0, 82, 82
1, 337254, Note_on_c, 0, 55, 69
1, 337254, Note_on_c, 0, 74, 91
1, 337261, Note_on_c, 0, 79, 82
1, 337261, Control_c, 0, 64, 0
1, 337275, Control_c, 0, 64, 42
1, 337290, Control_c, 0, 64, 65
1, 337305, Control_c, 0, 64, 127
1, 337321, Note_on_c, 0, 70, 89
1, 337321, Note_off_c, 0, 55, 61
1, 337333, Note_off_c, 0, 74, 60
1, 337345, Note_off_c, 0, 79, 63
1, 337367, Note_off_c, 0, 70, 65
1, 337367, Note_off_c, 0, 82, 65
1, 337396, Note_on_c, 0, 67, 76
1, 337398, Note_on_c, 0, 63, 73
1, 337409, Note_on_c, 0, 57, 73
1, 337418, Note_on_c, 0, 60, 45
1, 337421, Note_off_c, 0, 67, 68
1, 337424, Note_off_c, 0, 63, 68
1, 337442, Note_off_c, 0, 57, 66
1, 337442, Note_off_c, 0, 60, 57
1, 337480, Note_on_c, 0, 79, 75
1, 337482, Note_on_c, 0, 84, 80
1, 337483, Note_on_c, 0, 75, 79
1, 337506, Note_off_c, 0, 75, 70
1, 337509, Note_off_c, 0, 79, 64
1, 337510, Note_off_c, 0, 84, 64
1, 337550, Control_c, 0, 64, 113
1, 337564, Control_c, 0, 64, 71
1, 337569, Note_on_c, 0, 45, 76
1, 337574, Note_on_c, 0, 84, 82
1, 337579, Control_c, 0, 64, 42
1, 337581, Note_on_c, 0, 75, 82
1, 337586, Note_on_c, 0, 79, 65
1, 337594, Control_c, 0, 64, 35
1, 337609, Control_c, 0, 64, 63
1, 337624, Control_c, 0, 64, 83
1, 337633, Note_off_c, 0, 45, 63
1, 337638, Control_c, 0, 64, 127
1, 337655, Note_off_c, 0, 84, 61
1, 337659, Note_off_c, 0, 79, 63
1, 337674, Note_off_c, 0, 75, 62
1, 337680, Note_on_c, 0, 74, 77
1, 337752, Note_on_c, 0, 73, 87
1, 337755, Note_off_c, 0, 74, 63
1, 337759, Note_on_c, 0, 67, 71
1, 337764, Note_on_c, 0, 63, 68
1, 337768, Note_on_c, 0, 60, 56
1, 337809, Note_off_c, 0, 73, 64
1, 337821, Note_on_c, 0, 72, 86
1, 337843, Note_off_c, 0, 67, 55
1, 337863, Note_off_c, 0, 60, 62
1, 337878, Note_off_c, 0, 63, 60
1, 337888, Note_on_c, 0, 84, 102
1, 337892, Control_c, 0, 64, 89
1, 337892, Note_off_c, 0, 72, 43
1, 337896, Note_on_c, 0, 57, 82
1, 337897, Note_on_c, 0, 75, 88
1, 337901, Note_on_c, 0, 79, 78
1, 337906, Control_c, 0, 64, 61
1, 337921, Control_c, 0, 64, 37
1, 337936, Control_c, 0, 64, 64
1, 337951, Control_c, 0, 64, 91
1, 337952, Note_off_c, 0, 79, 64
1, 337966, Control_c, 0, 64, 127
1, 337967, Note_off_c, 0, 75, 59
1, 337969, Note_off_c, 0, 84, 62
1, 337972, Note_on_c, 0, 74, 87
1, 337980, Note_off_c, 0, 57, 61
1, 338023, Note_off_c, 0, 74, 57
1, 338030, Note_on_c, 0, 66, 90
1, 338038, Note_on_c, 0, 62, 75
1, 338044, Note_on_c, 0, 60, 77
1, 338044, Note_on_c, 0, 73, 84
1, 338062, Note_off_c, 0, 66, 60
1, 338065, Note_off_c, 0, 62, 67
1, 338081, Note_off_c, 0, 60, 64
1, 338100, Note_off_c, 0, 73, 65
1, 338104, Note_on_c, 0, 72, 93
1, 338154, Note_off_c, 0, 72, 64
1, 338158, Control_c, 0, 64, 68
1, 338172, Control_c, 0, 64, 0
1, 338173, Note_on_c, 0, 84, 103
1, 338174, Note_on_c, 0, 50, 96
1, 338180, Note_on_c, 0, 75, 92
1, 338182, Note_on_c, 0, 78, 87
1, 338202, Control_c, 0, 64, 42
1, 338217, Control_c, 0, 64, 68
1, 338229, Note_off_c, 0, 50, 66
1, 338240, Control_c, 0, 64, 127
1, 338247, Note_off_c, 0, 78, 63
1, 338258, Note_on_c, 0, 74, 89
1, 338260, Note_off_c, 0, 75, 61
1, 338266, Note_off_c, 0, 84, 61
1, 338330, Note_off_c, 0, 74, 61
1, 338330, Note_on_c, 0, 73, 87
1, 338333, Note_on_c, 0, 66, 86
1, 338339, Note_on_c, 0, 60, 70
1, 338341, Note_on_c, 0, 62, 72
1, 338390, Note_off_c, 0, 73, 66
1, 338396, Note_on_c, 0, 72, 91
1, 338410, Note_off_c, 0, 66, 60
1, 338428, Note_off_c, 0, 60, 54
1, 338443, Note_off_c, 0, 72, 64
1, 338458, Note_on_c, 0, 57, 87
1, 338461, Note_off_c, 0, 62, 39
1, 338462, Note_on_c, 0, 81, 94
1, 338476, Note_on_c, 0, 78, 84
1, 338477, Control_c, 0, 64, 72
1, 338492, Control_c, 0, 64, 0
1, 338493, Note_on_c, 0, 74, 68
1, 338506, Note_on_c, 0, 75, 29
1, 338516, Note_off_c, 0, 57, 61
1, 338534, Note_on_c, 0, 72, 90
1, 338534, Note_off_c, 0, 75, 51
1, 338550, Note_off_c, 0, 81, 67
1, 338574, Note_off_c, 0, 72, 65
1, 338583, Note_off_c, 0, 78, 53
1, 338600, Note_off_c, 0, 74, 60
1, 338643, Note_on_c, 0, 67, 92
1, 338646, Note_on_c, 0, 62, 78
1, 338647, Note_on_c, 0, 70, 104
1, 338648, Note_on_c, 0, 82, 94
1, 338650, Note_on_c, 0, 79, 78
1, 338652, Note_on_c, 0, 55, 78
1, 338655, Note_on_c, 0, 74, 68
1, 338673, Note_on_c, 0, 80, 57
1, 338685, Control_c, 0, 64, 63
1, 338694, Note_off_c, 0, 67, 64
1, 338696, Note_off_c, 0, 80, 39
1, 338700, Control_c, 0, 64, 127
1, 338713, Note_off_c, 0, 62, 64
1, 338726, Note_off_c, 0, 70, 66
1, 338737, Note_off_c, 0, 55, 62
1, 338742, Note_off_c, 0, 74, 62
1, 338758, Note_off_c, 0, 79, 62
1, 338769, Note_off_c, 0, 82, 64
1, 338949, Note_on_c, 0, 48, 81
1, 338990, Note_on_c, 0, 80, 93
1, 339018, Control_c, 0, 64, 113
1, 339033, Control_c, 0, 64, 73
1, 339045, Note_on_c, 0, 83, 14
1, 339048, Control_c, 0, 64, 49
1, 339063, Control_c, 0, 64, 0
1, 339089, Note_off_c, 0, 83, 33
1, 339092, Control_c, 0, 64, 24
1, 339107, Control_c, 0, 64, 56
1, 339122, Control_c, 0, 64, 72
1, 339136, Control_c, 0, 64, 127
1, 339139, Note_on_c, 0, 92, 88
1, 339140, Note_on_c, 0, 87, 86
1, 339157, Note_off_c, 0, 80, 63
1, 339200, Note_off_c, 0, 48, 60
1, 339215, Note_off_c, 0, 92, 66
1, 339221, Note_on_c, 0, 80, 82
1, 339224, Note_off_c, 0, 87, 62
1, 339248, Note_off_c, 0, 80, 65
1, 339319, Note_on_c, 0, 80, 77
1, 339320, Note_on_c, 0, 75, 82
1, 339364, Note_off_c, 0, 75, 60
1, 339366, Note_off_c, 0, 80, 64
1, 339398, Note_on_c, 0, 67, 88
1, 339404, Note_on_c, 0, 63, 73
1, 339409, Note_on_c, 0, 56, 73
1, 339458, Note_off_c, 0, 63, 62
1, 339475, Note_on_c, 0, 79, 79
1, 339479, Note_on_c, 0, 75, 76
1, 339483, Note_off_c, 0, 67, 62
1, 339501, Note_off_c, 0, 75, 69
1, 339507, Note_off_c, 0, 79, 63
1, 339565, Control_c, 0, 64, 72
1, 339566, Note_on_c, 0, 50, 77
1, 339580, Control_c, 0, 64, 36
1, 339583, Note_on_c, 0, 66, 93
1, 339591, Note_off_c, 0, 56, 59
1, 339595, Control_c, 0, 64, 0
1, 339610, Control_c, 0, 64, 44
1, 339624, Control_c, 0, 64, 67
1, 339639, Control_c, 0, 64, 104
1, 339640, Note_off_c, 0, 50, 62
1, 339645, Note_off_c, 0, 66, 64
1, 339654, Control_c, 0, 64, 127
1, 339665, Note_on_c, 0, 69, 65
1, 339666, Note_on_c, 0, 67, 33
1, 339679, Note_on_c, 0, 78, 82
1, 339682, Note_off_c, 0, 69, 65
1, 339699, Note_off_c, 0, 67, 51
1, 339701, Note_off_c, 0, 78, 71
1, 339761, Note_on_c, 0, 60, 57
1, 339762, Note_on_c, 0, 62, 57
1, 339767, Note_on_c, 0, 57, 62
1, 339776, Note_on_c, 0, 78, 84
1, 339782, Note_off_c, 0, 60, 62
1, 339784, Note_on_c, 0, 80, 74
1, 339785, Note_off_c, 0, 62, 63
1, 339789, Note_off_c, 0, 57, 62
1, 339817, Note_off_c, 0, 78, 63
1, 339826, Note_on_c, 0, 82, 91
1, 339834, Note_off_c, 0, 80, 63
1, 339835, Note_on_c, 0, 90, 91
1, 339895, Note_off_c, 0, 82, 62
1, 339898, Control_c, 0, 64, 85
1, 339901, Note_off_c, 0, 90, 64
1, 339911, Note_on_c, 0, 43, 77
1, 339913, Control_c, 0, 64, 58
1, 339916, Note_on_c, 0, 79, 76
1, 339928, Control_c, 0, 64, 42
1, 339943, Control_c, 0, 64, 64
1, 339944, Note_off_c, 0, 43, 68
1, 339958, Control_c, 0, 64, 87
1, 339965, Note_off_c, 0, 79, 63
1, 339973, Control_c, 0, 64, 127
1, 339984, Note_on_c, 0, 91, 94
1, 339985, Note_on_c, 0, 82, 89
1, 340023, Note_off_c, 0, 91, 64
1, 340037, Note_off_c, 0, 82, 66
1, 340047, Note_on_c, 0, 79, 77
1, 340055, Note_on_c, 0, 62, 73
1, 340068, Note_on_c, 0, 55, 60
1, 340069, Note_off_c, 0, 79, 70
1, 340077, Note_on_c, 0, 58, 39
1, 340086, Note_off_c, 0, 62, 67
1, 340095, Note_off_c, 0, 55, 63
1, 340107, Note_off_c, 0, 58, 55
1, 340129, Note_on_c, 0, 70, 93
1, 340135, Note_on_c, 0, 79, 59
1, 340172, Note_off_c, 0, 70, 64
1, 340178, Note_off_c, 0, 79, 57
1, 340196, Control_c, 0, 64, 105
1, 340211, Control_c, 0, 64, 68
1, 340217, Note_on_c, 0, 48, 86
1, 340224, Note_on_c, 0, 68, 85
1, 340226, Control_c, 0, 64, 0
1, 340256, Control_c, 0, 64, 16
1, 340271, Control_c, 0, 64, 55
1, 340285, Control_c, 0, 64, 80
1, 340295, Note_off_c, 0, 68, 64
1, 340300, Control_c, 0, 64, 127
1, 340315, Note_on_c, 0, 75, 81
1, 340316, Note_on_c, 0, 80, 82
1, 340318, Note_off_c, 0, 48, 62
1, 340336, Note_off_c, 0, 75, 70
1, 340346, Note_off_c, 0, 80, 64
1, 340392, Note_on_c, 0, 63, 80
1, 340399, Note_on_c, 0, 80, 87
1, 340400, Note_on_c, 0, 56, 73
1, 340461, Note_off_c, 0, 80, 64
1, 340476, Note_on_c, 0, 87, 96
1, 340480, Note_on_c, 0, 92, 93
1, 340497, Note_off_c, 0, 63, 60
1, 340528, Note_off_c, 0, 92, 66
1, 340536, Note_on_c, 0, 80, 88
1, 340536, Note_off_c, 0, 87, 63
1, 340542, Note_off_c, 0, 56, 60
1, 340555, Note_off_c, 0, 80, 73
1, 340620, Note_on_c, 0, 75, 94
1, 340624, Note_on_c, 0, 80, 77
1, 340670, Note_off_c, 0, 80, 63
1, 340671, Note_off_c, 0, 75, 61
1, 340694, Note_on_c, 0, 67, 86
1, 340697, Note_on_c, 0, 63, 75
1, 340700, Note_on_c, 0, 56, 72
1, 340748, Poly_aftertouch_c, 0, 79, 0
1, 340754, Note_off_c, 0, 63, 62
1, 340762, Note_off_c, 0, 67, 61
1, 340762, Note_on_c, 0, 79, 60
1, 340769, Note_on_c, 0, 75, 77
1, 340791, Note_off_c, 0, 75, 70
1, 340801, Note_off_c, 0, 79, 65
1, 340811, Control_c, 0, 64, 95
1, 340826, Control_c, 0, 64, 64
1, 340840, Poly_aftertouch_c, 0, 77, 0
1, 340841, Control_c, 0, 64, 0
1, 340842, Note_on_c, 0, 50, 78
1, 340850, Note_on_c, 0, 66, 91
1, 340855, Control_c, 0, 64, 26
1, 340864, Note_off_c, 0, 56, 61
1, 340871, Control_c, 0, 64, 62
1, 340886, Control_c, 0, 64, 80
1, 340901, Control_c, 0, 64, 127
1, 340903, Note_off_c, 0, 50, 63
1, 340914, Note_off_c, 0, 66, 64
1, 340929, Note_on_c, 0, 69, 71
1, 340943, Note_on_c, 0, 78, 84
1, 340953, Note_off_c, 0, 69, 64
1, 340965, Note_off_c, 0, 78, 71
1, 340975, Poly_aftertouch_c, 0, 67, 127
1, 341001, Note_on_c, 0, 60, 63
1, 341004, Note_on_c, 0, 62, 60
1, 341010, Note_on_c, 0, 57, 57
1, 341013, Poly_aftertouch_c, 0, 67, 0
1, 341022, Note_off_c, 0, 60, 62
1, 341025, Note_off_c, 0, 62, 64
1, 341030, Note_on_c, 0, 78, 85
1, 341031, Note_off_c, 0, 57, 61
1, 341087, Note_on_c, 0, 81, 79
1, 341091, Note_on_c, 0, 90, 83
1, 341102, Note_off_c, 0, 78, 63
1, 341137, Note_off_c, 0, 81, 64
1, 341138, Control_c, 0, 64, 102
1, 341140, Note_on_c, 0, 43, 77
1, 341153, Control_c, 0, 64, 73
1, 341166, Note_on_c, 0, 79, 80
1, 341168, Note_off_c, 0, 90, 64
1, 341168, Control_c, 0, 64, 59
1, 341183, Control_c, 0, 64, 60
1, 341190, Note_off_c, 0, 43, 62
1, 341197, Control_c, 0, 64, 71
1, 341212, Control_c, 0, 64, 127
1, 341225, Note_off_c, 0, 79, 62
1, 341251, Note_on_c, 0, 91, 93
1, 341254, Note_on_c, 0, 82, 84
1, 341292, Note_off_c, 0, 91, 65
1, 341303, Note_off_c, 0, 82, 66
1, 341306, Note_on_c, 0, 62, 64
1, 341315, Note_on_c, 0, 79, 76
1, 341322, Note_on_c, 0, 58, 50
1, 341325, Note_on_c, 0, 55, 42
1, 341334, Note_off_c, 0, 62, 66
1, 341335, Note_off_c, 0, 79, 72
1, 341347, Note_off_c, 0, 58, 58
1, 341361, Note_off_c, 0, 55, 52
1, 341404, Note_on_c, 0, 70, 78
1, 341415, Note_on_c, 0, 79, 59
1, 341446, Note_off_c, 0, 79, 66
1, 341479, Note_off_c, 0, 70, 60
1, 341487, Note_on_c, 0, 47, 63
1, 341501, Control_c, 0, 64, 77
1, 341516, Control_c, 0, 64, 59
1, 341529, Note_on_c, 0, 65, 69
1, 341530, Control_c, 0, 64, 33
1, 341545, Control_c, 0, 64, 50
1, 341560, Control_c, 0, 64, 61
1, 341567, Note_off_c, 0, 47, 62
1, 341575, Control_c, 0, 64, 69
1, 341590, Control_c, 0, 64, 94
1, 341598, Note_off_c, 0, 65, 62
1, 341604, Control_c, 0, 64, 127
1, 341609, Note_on_c, 0, 68, 61
1, 341619, Note_on_c, 0, 77, 65
1, 341631, Note_off_c, 0, 68, 63
1, 341654, Note_off_c, 0, 77, 63
1, 341691, Note_on_c, 0, 62, 54
1, 341711, Note_on_c, 0, 77, 73
1, 341715, Note_on_c, 0, 53, 55
1, 341716, Note_on_c, 0, 56, 53
1, 341773, Note_off_c, 0, 62, 59
1, 341773, Note_off_c, 0, 77, 62
1, 341778, Note_on_c, 0, 80, 82
1, 341782, Note_on_c, 0, 89, 77
1, 341807, Note_off_c, 0, 89, 68
1, 341827, Note_off_c, 0, 80, 63
1, 341841, Note_off_c, 0, 53, 63
1, 341846, Note_on_c, 0, 48, 74
1, 341850, Note_on_c, 0, 77, 55
1, 341853, Note_off_c, 0, 56, 56
1, 341872, Control_c, 0, 64, 108
1, 341874, Note_off_c, 0, 77, 57
1, 341887, Control_c, 0, 64, 79
1, 341901, Control_c, 0, 64, 66
1, 341916, Control_c, 0, 64, 62
1, 341921, Note_on_c, 0, 75, 73
1, 341922, Note_on_c, 0, 68, 83
1, 341931, Control_c, 0, 64, 66
1, 341946, Control_c, 0, 64, 73
1, 341961, Control_c, 0, 64, 97
1, 341963, Note_off_c, 0, 68, 52
1, 341983, Control_c, 0, 64, 127
1, 341988, Note_off_c, 0, 75, 62
1, 341992, Note_off_c, 0, 48, 58
1, 342002, Note_on_c, 0, 63, 85
1, 342005, Note_on_c, 0, 60, 73
1, 342006, Note_on_c, 0, 56, 65
1, 342008, Note_on_c, 0, 51, 67
1, 342072, Note_on_c, 0, 68, 72
1, 342074, Note_off_c, 0, 51, 56
1, 342077, Note_on_c, 0, 69, 28
1, 342078, Note_off_c, 0, 63, 60
1, 342088, Note_on_c, 0, 75, 76
1, 342120, Note_off_c, 0, 60, 61
1, 342134, Note_off_c, 0, 75, 63
1, 342140, Note_on_c, 0, 62, 86
1, 342144, Note_on_c, 0, 50, 76
1, 342146, Control_c, 0, 64, 104
1, 342157, Note_off_c, 0, 56, 61
1, 342160, Note_off_c, 0, 68, 37
1, 342160, Control_c, 0, 64, 67
1, 342175, Control_c, 0, 64, 36
1, 342190, Control_c, 0, 64, 30
1, 342204, Note_on_c, 0, 68, 62
1, 342205, Note_off_c, 0, 62, 64
1, 342205, Control_c, 0, 64, 61
1, 342218, Note_on_c, 0, 74, 75
1, 342219, Control_c, 0, 64, 79
1, 342234, Control_c, 0, 64, 127
1, 342235, Note_off_c, 0, 68, 67
1, 342243, Note_off_c, 0, 74, 69
1, 342253, Note_off_c, 0, 69, 38
1, 342290, Note_on_c, 0, 74, 85
1, 342298, Note_on_c, 0, 59, 65
1, 342304, Note_on_c, 0, 53, 63
1, 342304, Note_on_c, 0, 56, 62
1, 342354, Note_off_c, 0, 74, 58
1, 342363, Note_on_c, 0, 80, 87
1, 342379, Note_on_c, 0, 86, 65
1, 342384, Note_off_c, 0, 59, 59
1, 342400, Note_off_c, 0, 86, 61
1, 342404, Note_on_c, 0, 84, 48
1, 342419, Note_off_c, 0, 80, 64
1, 342426, Note_off_c, 0, 84, 59
1, 342429, Note_on_c, 0, 74, 78
1, 342429, Note_off_c, 0, 50, 50
1, 342437, Note_on_c, 0, 51, 80
1, 342444, Note_off_c, 0, 56, 63
1, 342450, Note_off_c, 0, 74, 70
1, 342456, Control_c, 0, 64, 97
1, 342466, Note_off_c, 0, 53, 53
1, 342472, Control_c, 0, 64, 69
1, 342487, Control_c, 0, 64, 49
1, 342502, Control_c, 0, 64, 20
1, 342516, Note_on_c, 0, 72, 71
1, 342516, Control_c, 0, 64, 49
1, 342518, Note_on_c, 0, 68, 78
1, 342531, Control_c, 0, 64, 60
1, 342546, Control_c, 0, 64, 67
1, 342561, Control_c, 0, 64, 82
1, 342562, Note_off_c, 0, 68, 58
1, 342574, Note_off_c, 0, 72, 63
1, 342575, Control_c, 0, 64, 127
1, 342587, Note_on_c, 0, 60, 83
1, 342590, Note_on_c, 0, 56, 76
1, 342614, Poly_aftertouch_c, 0, 69, 127
1, 342620, Note_off_c, 0, 56, 66
1, 342624, Note_off_c, 0, 51, 63
1, 342643, Poly_aftertouch_c, 0, 69, 0
1, 342661, Note_on_c, 0, 68, 81
1, 342664, Note_on_c, 0, 72, 78
1, 342665, Note_off_c, 0, 60, 63
1, 342749, Note_off_c, 0, 72, 62
1, 342764, Note_on_c, 0, 42, 81
1, 342775, Control_c, 0, 64, 81
1, 342778, Note_on_c, 0, 60, 88
1, 342789, Note_off_c, 0, 68, 33
1, 342790, Control_c, 0, 64, 55
1, 342805, Control_c, 0, 64, 0
1, 342820, Control_c, 0, 64, 41
1, 342835, Control_c, 0, 64, 65
1, 342843, Note_off_c, 0, 42, 63
1, 342849, Control_c, 0, 64, 102
1, 342864, Control_c, 0, 64, 127
1, 342871, Note_off_c, 0, 60, 65
1, 342881, Note_on_c, 0, 72, 70
1, 342895, Note_on_c, 0, 63, 50
1, 342919, Note_off_c, 0, 63, 57
1, 342931, Note_off_c, 0, 72, 64
1, 342979, Note_on_c, 0, 54, 68
1, 342982, Note_on_c, 0, 72, 89
1, 342983, Note_on_c, 0, 60, 69
1, 342984, Note_on_c, 0, 63, 74
1, 343026, Note_off_c, 0, 54, 56
1, 343032, Note_off_c, 0, 63, 46
1, 343049, Note_off_c, 0, 72, 61
1, 343067, Note_on_c, 0, 84, 84
1, 343068, Note_on_c, 0, 75, 82
1, 343098, Note_off_c, 0, 75, 62
1, 343105, Note_off_c, 0, 60, 63
1, 343116, Control_c, 0, 64, 80
1, 343117, Note_off_c, 0, 84, 64
1, 343131, Control_c, 0, 64, 61
1, 343135, Note_on_c, 0, 62, 71
1, 343137, Note_on_c, 0, 55, 73
1, 343138, Note_on_c, 0, 72, 92
1, 343141, Note_on_c, 0, 58, 72
1, 343146, Control_c, 0, 64, 46
1, 343160, Note_off_c, 0, 62, 67
1, 343161, Control_c, 0, 64, 64
1, 343164, Note_off_c, 0, 58, 66
1, 343165, Note_off_c, 0, 55, 68
1, 343175, Control_c, 0, 64, 127
1, 343209, Note_off_c, 0, 72, 63
1, 343213, Note_on_c, 0, 84, 78
1, 343227, Note_on_c, 0, 75, 40
1, 343227, Note_on_c, 0, 83, 66
1, 343234, Note_on_c, 0, 74, 54
1, 343238, Note_off_c, 0, 84, 53
1, 343244, Note_off_c, 0, 83, 64
1, 343249, Control_c, 0, 64, 109
1, 343259, Note_off_c, 0, 75, 38
1, 343265, Control_c, 0, 64, 57
1, 343278, Note_on_c, 0, 41, 87
1, 343279, Note_on_c, 0, 70, 93
1, 343280, Control_c, 0, 64, 0
1, 343287, Note_off_c, 0, 74, 37
1, 343305, Note_off_c, 0, 41, 67
1, 343348, Note_on_c, 0, 74, 78
1, 343350, Note_off_c, 0, 70, 63
1, 343357, Note_on_c, 0, 82, 84
1, 343421, Note_off_c, 0, 82, 63
1, 343421, Note_on_c, 0, 70, 93
1, 343428, Control_c, 0, 64, 64
1, 343432, Note_on_c, 0, 48, 71
1, 343435, Note_off_c, 0, 74, 61
1, 343443, Control_c, 0, 64, 127
1, 343452, Note_off_c, 0, 48, 63
1, 343479, Note_off_c, 0, 70, 65
1, 343505, Note_on_c, 0, 50, 9
1, 343517, Note_on_c, 0, 82, 73
1, 343520, Note_on_c, 0, 75, 53
1, 343541, Note_off_c, 0, 82, 67
1, 343542, Note_off_c, 0, 75, 57
1, 343547, Note_off_c, 0, 50, 44
1, 343574, Note_on_c, 0, 69, 96
1, 343581, Note_on_c, 0, 67, 65
1, 343588, Note_on_c, 0, 63, 62
1, 343594, Poly_aftertouch_c, 0, 74, 0
1, 343600, Note_off_c, 0, 67, 65
1, 343615, Note_off_c, 0, 63, 64
1, 343640, Note_off_c, 0, 69, 60
1, 343645, Note_on_c, 0, 81, 87
1, 343647, Note_on_c, 0, 72, 80
1, 343648, Poly_aftertouch_c, 0, 55, 127
1, 343669, Note_off_c, 0, 72, 68
1, 343683, Poly_aftertouch_c, 0, 55, 0
1, 343693, Note_off_c, 0, 81, 66
1, 343722, Note_on_c, 0, 67, 85
1, 343723, Note_on_c, 0, 50, 88
1, 343747, Control_c, 0, 64, 81
1, 343762, Control_c, 0, 64, 61
1, 343777, Control_c, 0, 64, 55
1, 343791, Control_c, 0, 64, 69
1, 343803, Note_on_c, 0, 70, 84
1, 343804, Note_on_c, 0, 79, 84
1, 343806, Control_c, 0, 64, 110
1, 343809, Note_off_c, 0, 67, 57
1, 343821, Control_c, 0, 64, 127
1, 343823, Note_off_c, 0, 70, 70
1, 343841, Note_off_c, 0, 79, 64
1, 343867, Note_off_c, 0, 50, 65
1, 343876, Note_on_c, 0, 62, 88
1, 343877, Note_on_c, 0, 60, 73
1, 343879, Note_on_c, 0, 57, 79
1, 343879, Note_on_c, 0, 66, 96
1, 343919, Note_off_c, 0, 60, 59
1, 343954, Note_on_c, 0, 69, 80
1, 343955, Note_on_c, 0, 78, 83
1, 343958, Note_off_c, 0, 62, 61
1, 343966, Note_off_c, 0, 66, 64
1, 343991, Note_off_c, 0, 69, 62
1, 344006, Note_off_c, 0, 78, 63
1, 344044, Control_c, 0, 64, 80
1, 344058, Note_on_c, 0, 62, 93
1, 344059, Control_c, 0, 64, 44
1, 344060, Note_on_c, 0, 55, 73
1, 344062, Note_on_c, 0, 58, 83
1, 344065, Note_on_c, 0, 67, 100
1, 344065, Note_on_c, 0, 79, 97
1, 344066, Note_off_c, 0, 57, 53
1, 344071, Note_on_c, 0, 70, 93
1, 344074, Control_c, 0, 64, 0
1, 344130, Note_on_c, 0, 77, 42
1, 344133, Note_on_c, 0, 76, 43
1, 344134, Control_c, 0, 64, 52
1, 344149, Control_c, 0, 64, 71
1, 344160, Note_off_c, 0, 79, 67
1, 344163, Note_off_c, 0, 62, 62
1, 344163, Control_c, 0, 64, 115
1, 344170, Note_off_c, 0, 67, 61
1, 344178, Control_c, 0, 64, 127
1, 344180, Note_off_c, 0, 55, 62
1, 344184, Note_off_c, 0, 58, 64
1, 344202, Note_off_c, 0, 70, 61
1, 344218, Note_off_c, 0, 76, 32
1, 344221, Note_off_c, 0, 77, 61
1, 344429, Note_on_c, 0, 48, 92
1, 344447, Note_on_c, 0, 80, 86
1, 344467, Control_c, 0, 64, 95
1, 344482, Control_c, 0, 64, 73
1, 344496, Control_c, 0, 64, 59
1, 344511, Control_c, 0, 64, 0
1, 344585, Control_c, 0, 64, 38
1, 344599, Note_on_c, 0, 92, 91
1, 344600, Note_on_c, 0, 87, 81
1, 344600, Control_c, 0, 64, 60
1, 344614, Control_c, 0, 64, 72
1, 344616, Note_off_c, 0, 80, 65
1, 344629, Control_c, 0, 64, 111
1, 344644, Control_c, 0, 64, 127
1, 344685, Note_on_c, 0, 80, 82
1, 344685, Note_off_c, 0, 92, 65
1, 344688, Note_off_c, 0, 87, 64
1, 344694, Note_off_c, 0, 48, 59
1, 344717, Note_off_c, 0, 80, 63
1, 344784, Note_on_c, 0, 80, 76
1, 344788, Note_on_c, 0, 75, 84
1, 344828, Note_off_c, 0, 75, 58
1, 344833, Note_off_c, 0, 80, 64
1, 344868, Note_on_c, 0, 67, 86
1, 344873, Note_on_c, 0, 63, 72
1, 344883, Note_on_c, 0, 56, 65
1, 344939, Note_off_c, 0, 63, 61
1, 344947, Note_on_c, 0, 79, 70
1, 344951, Note_off_c, 0, 67, 64
1, 344952, Note_on_c, 0, 75, 69
1, 344980, Note_off_c, 0, 79, 67
1, 344987, Note_off_c, 0, 75, 66
1, 345046, Note_on_c, 0, 50, 81
1, 345052, Control_c, 0, 64, 118
1, 345067, Control_c, 0, 64, 75
1, 345074, Note_off_c, 0, 56, 59
1, 345078, Note_on_c, 0, 66, 93
1, 345082, Control_c, 0, 64, 54
1, 345097, Control_c, 0, 64, 24
1, 345112, Control_c, 0, 64, 55
1, 345126, Control_c, 0, 64, 70
1, 345141, Control_c, 0, 64, 127
1, 345150, Note_on_c, 0, 68, 77
1, 345151, Note_off_c, 0, 50, 62
1, 345151, Note_off_c, 0, 66, 61
1, 345172, Note_off_c, 0, 68, 66
1, 345181, Note_on_c, 0, 78, 75
1, 345207, Note_off_c, 0, 78, 69
1, 345247, Note_on_c, 0, 62, 65
1, 345249, Note_on_c, 0, 60, 59
1, 345255, Note_on_c, 0, 57, 54
1, 345261, Note_on_c, 0, 78, 88
1, 345272, Note_off_c, 0, 60, 60
1, 345278, Note_off_c, 0, 62, 65
1, 345279, Note_off_c, 0, 57, 59
1, 345335, Note_on_c, 0, 81, 80
1, 345341, Note_off_c, 0, 78, 61
1, 345342, Note_on_c, 0, 80, 41
1, 345343, Note_off_c, 0, 80, 127
1, 345343, Note_on_c, 0, 90, 74
1, 345373, Note_off_c, 0, 81, 60
1, 345393, Control_c, 0, 64, 78
1, 345401, Note_on_c, 0, 43, 82
1, 345406, Note_off_c, 0, 90, 65
1, 345408, Control_c, 0, 64, 52
1, 345412, Note_on_c, 0, 79, 80
1, 345423, Control_c, 0, 64, 23
1, 345429, Poly_aftertouch_c, 0, 89, 0
1, 345437, Control_c, 0, 64, 58
1, 345452, Note_off_c, 0, 43, 62
1, 345452, Control_c, 0, 64, 72
1, 345467, Control_c, 0, 64, 127
1, 345470, Note_off_c, 0, 79, 53
1, 345486, Note_on_c, 0, 82, 86
1, 345487, Note_on_c, 0, 91, 95
1, 345523, Note_off_c, 0, 91, 66
1, 345535, Note_off_c, 0, 82, 66
1, 345552, Note_on_c, 0, 79, 68
1, 345553, Note_on_c, 0, 62, 77
1, 345567, Note_off_c, 0, 79, 68
1, 345571, Note_on_c, 0, 58, 54
1, 345577, Note_off_c, 0, 62, 67
1, 345580, Note_on_c, 0, 55, 35
1, 345598, Note_off_c, 0, 58, 57
1, 345612, Note_off_c, 0, 55, 54
1, 345625, Note_on_c, 0, 79, 78
1, 345633, Note_on_c, 0, 70, 87
1, 345670, Note_off_c, 0, 79, 59
1, 345689, Note_off_c, 0, 70, 59
1, 345721, Note_on_c, 0, 48, 89
1, 345728, Control_c, 0, 64, 91
1, 345731, Note_on_c, 0, 68, 87
1, 345742, Control_c, 0, 64, 65
1, 345757, Control_c, 0, 64, 29
1, 345772, Control_c, 0, 64, 37
1, 345787, Control_c, 0, 64, 63
1, 345794, Note_off_c, 0, 68, 64
1, 345801, Control_c, 0, 64, 78
1, 345816, Control_c, 0, 64, 127
1, 345819, Note_on_c, 0, 75, 76
1, 345821, Note_on_c, 0, 80, 76
1, 345830, Note_off_c, 0, 48, 62
1, 345844, Note_off_c, 0, 75, 68
1, 345866, Note_off_c, 0, 80, 63
1, 345895, Note_on_c, 0, 63, 79
1, 345901, Note_on_c, 0, 56, 77
1, 345909, Note_on_c, 0, 80, 70
1, 345976, Note_on_c, 0, 87, 96
1, 345979, Note_on_c, 0, 92, 90
1, 345981, Note_off_c, 0, 63, 61
1, 345988, Note_off_c, 0, 80, 61
1, 346038, Note_off_c, 0, 92, 66
1, 346041, Note_off_c, 0, 87, 62
1, 346044, Note_on_c, 0, 80, 83
1, 346048, Note_on_c, 0, 50, 94
1, 346067, Note_off_c, 0, 80, 67
1, 346082, Note_off_c, 0, 56, 31
1, 346136, Note_on_c, 0, 75, 90
1, 346137, Note_on_c, 0, 80, 82
1, 346191, Note_off_c, 0, 75, 61
1, 346201, Note_off_c, 0, 80, 65
1, 346205, Note_on_c, 0, 51, 98
1, 346211, Note_on_c, 0, 67, 89
1, 346232, Note_off_c, 0, 50, 62
1, 346288, Note_off_c, 0, 67, 54
1, 346289, Note_on_c, 0, 79, 78
1, 346295, Note_on_c, 0, 75, 78
1, 346320, Note_off_c, 0, 79, 55
1, 346323, Note_off_c, 0, 75, 67
1, 346331, Note_off_c, 0, 51, 63
1, 346350, Control_c, 0, 64, 91
1, 346365, Note_on_c, 0, 50, 88
1, 346365, Control_c, 0, 64, 61
1, 346377, Note_on_c, 0, 66, 92
1, 346380, Control_c, 0, 64, 0
1, 346409, Control_c, 0, 64, 53
1, 346418, Note_off_c, 0, 50, 63
1, 346424, Control_c, 0, 64, 71
1, 346439, Control_c, 0, 64, 127
1, 346453, Note_off_c, 0, 66, 64
1, 346457, Note_on_c, 0, 69, 69
1, 346482, Note_on_c, 0, 78, 77
1, 346490, Note_off_c, 0, 69, 67
1, 346508, Note_off_c, 0, 78, 68
1, 346530, Note_on_c, 0, 62, 65
1, 346532, Note_on_c, 0, 60, 66
1, 346542, Note_on_c, 0, 57, 53
1, 346557, Note_off_c, 0, 60, 64
1, 346557, Note_off_c, 0, 62, 66
1, 346564, Note_off_c, 0, 57, 61
1, 346569, Note_on_c, 0, 78, 83
1, 346614, Note_on_c, 0, 80, 9
1, 346634, Note_on_c, 0, 90, 87
1, 346644, Note_on_c, 0, 81, 73
1, 346648, Note_off_c, 0, 78, 63
1, 346663, Note_off_c, 0, 80, 45
1, 346683, Note_on_c, 0, 82, 11
1, 346697, Note_off_c, 0, 81, 63
1, 346699, Control_c, 0, 64, 104
1, 346700, Note_on_c, 0, 43, 78
1, 346713, Control_c, 0, 64, 70
1, 346717, Note_off_c, 0, 90, 64
1, 346718, Note_on_c, 0, 79, 74
1, 346727, Note_off_c, 0, 82, 50
1, 346728, Control_c, 0, 64, 44
1, 346743, Control_c, 0, 64, 55
1, 346751, Note_off_c, 0, 43, 63
1, 346758, Control_c, 0, 64, 68
1, 346772, Control_c, 0, 64, 94
1, 346778, Note_off_c, 0, 79, 64
1, 346787, Control_c, 0, 64, 127
1, 346804, Note_on_c, 0, 82, 79
1, 346804, Note_on_c, 0, 91, 86
1, 346849, Note_off_c, 0, 91, 65
1, 346867, Note_off_c, 0, 82, 64
1, 346870, Note_on_c, 0, 79, 80
1, 346876, Note_on_c, 0, 62, 63
1, 346886, Note_on_c, 0, 58, 59
1, 346891, Note_off_c, 0, 79, 72
1, 346891, Note_on_c, 0, 55, 61
1, 346906, Note_off_c, 0, 62, 65
1, 346915, Note_off_c, 0, 58, 65
1, 346916, Note_off_c, 0, 55, 63
1, 346977, Note_on_c, 0, 79, 68
1, 346991, Note_on_c, 0, 70, 67
1, 346998, Note_off_c, 0, 79, 60
1, 347069, Note_off_c, 0, 70, 52
1, 347092, Note_on_c, 0, 35, 61
1, 347094, Note_on_c, 0, 47, 52
1, 347098, Control_c, 0, 64, 107
1, 347113, Control_c, 0, 64, 73
1, 347128, Control_c, 0, 64, 55
1, 347132, Note_on_c, 0, 65, 69
1, 347142, Control_c, 0, 64, 21
1, 347153, Note_off_c, 0, 35, 61
1, 347157, Control_c, 0, 64, 45
1, 347172, Control_c, 0, 64, 60
1, 347187, Control_c, 0, 64, 68
1, 347190, Note_off_c, 0, 47, 63
1, 347202, Control_c, 0, 64, 84
1, 347224, Control_c, 0, 64, 127
1, 347225, Note_off_c, 0, 65, 62
1, 347248, Note_on_c, 0, 77, 63
1, 347253, Note_on_c, 0, 68, 41
1, 347285, Note_off_c, 0, 68, 54
1, 347289, Note_off_c, 0, 77, 63
1, 347350, Note_on_c, 0, 62, 54
1, 347350, Note_on_c, 0, 77, 70
1, 347363, Note_on_c, 0, 56, 51
1, 347364, Note_on_c, 0, 53, 50
1, 347375, Note_off_c, 0, 62, 60
1, 347390, Note_off_c, 0, 53, 58
1, 347390, Note_off_c, 0, 56, 62
1, 347412, Note_off_c, 0, 77, 59
1, 347429, Note_on_c, 0, 89, 74
1, 347430, Note_on_c, 0, 80, 70
1, 347457, Note_off_c, 0, 89, 66
1, 347478, Control_c, 0, 64, 90
1, 347484, Note_off_c, 0, 80, 61
1, 347493, Control_c, 0, 64, 67
1, 347507, Note_on_c, 0, 48, 76
1, 347508, Control_c, 0, 64, 49
1, 347510, Note_on_c, 0, 36, 69
1, 347522, Control_c, 0, 64, 48
1, 347537, Note_off_c, 0, 48, 68
1, 347537, Control_c, 0, 64, 63
1, 347544, Note_off_c, 0, 36, 64
1, 347552, Control_c, 0, 64, 77
1, 347567, Control_c, 0, 64, 127
1, 347574, Note_on_c, 0, 68, 81
1, 347598, Note_on_c, 0, 75, 52
1, 347631, Note_off_c, 0, 75, 54
1, 347639, Note_off_c, 0, 68, 58
1, 347658, Note_on_c, 0, 60, 68
1, 347666, Note_on_c, 0, 51, 69
1, 347667, Note_on_c, 0, 63, 78
1, 347669, Note_on_c, 0, 55, 55
1, 347687, Note_off_c, 0, 60, 65
1, 347696, Note_off_c, 0, 55, 58
1, 347702, Note_off_c, 0, 51, 66
1, 347726, Note_off_c, 0, 63, 62
1, 347728, Note_on_c, 0, 67, 71
1, 347749, Note_on_c, 0, 75, 59
1, 347785, Note_off_c, 0, 75, 63
1, 347788, Control_c, 0, 64, 77
1, 347790, Note_off_c, 0, 67, 61
1, 347803, Control_c, 0, 64, 55
1, 347807, Note_on_c, 0, 50, 85
1, 347809, Note_on_c, 0, 62, 76
1, 347810, Note_on_c, 0, 38, 76
1, 347818, Control_c, 0, 64, 0
1, 347824, Note_on_c, 0, 69, 36
1, 347833, Control_c, 0, 64, 47
1, 347837, Note_off_c, 0, 38, 64
1, 347848, Control_c, 0, 64, 66
1, 347854, Note_off_c, 0, 50, 62
1, 347863, Control_c, 0, 64, 93
1, 347865, Note_off_c, 0, 62, 64
1, 347878, Note_on_c, 0, 66, 72
1, 347878, Control_c, 0, 64, 127
1, 347896, Note_on_c, 0, 74, 64
1, 347902, Note_off_c, 0, 66, 66
1, 347926, Note_off_c, 0, 74, 66
1, 347933, Note_off_c, 0, 69, 36
1, 347975, Note_on_c, 0, 57, 70
1, 347979, Note_on_c, 0, 54, 71
1, 347985, Note_on_c, 0, 74, 75
1, 348004, Note_off_c, 0, 57, 66
1, 348012, Note_off_c, 0, 54, 67
1, 348036, Note_off_c, 0, 74, 61
1, 348051, Note_on_c, 0, 78, 83
1, 348053, Note_on_c, 0, 86, 81
1, 348083, Note_off_c, 0, 86, 59
1, 348101, Note_off_c, 0, 78, 62
1, 348123, Control_c, 0, 64, 91
1, 348125, Note_on_c, 0, 52, 83
1, 348131, Note_on_c, 0, 40, 74
1, 348134, Note_on_c, 0, 74, 48
1, 348135, Note_off_c, 0, 74, 127
1, 348137, Control_c, 0, 64, 69
1, 348152, Control_c, 0, 64, 54
1, 348167, Control_c, 0, 64, 48
1, 348173, Note_off_c, 0, 40, 64
1, 348182, Control_c, 0, 64, 62
1, 348197, Control_c, 0, 64, 72
1, 348208, Note_on_c, 0, 73, 70
1, 348212, Note_on_c, 0, 64, 79
1, 348212, Note_off_c, 0, 52, 64
1, 348212, Control_c, 0, 64, 127
1, 348272, Note_off_c, 0, 73, 61
1, 348288, Note_on_c, 0, 61, 81
1, 348304, Note_on_c, 0, 55, 65
1, 348307, Note_off_c, 0, 64, 58
1, 348332, Note_off_c, 0, 55, 66
1, 348384, Note_on_c, 0, 64, 55
1, 348386, Note_on_c, 0, 73, 63
1, 348404, Note_off_c, 0, 61, 55
1, 348477, Note_off_c, 0, 73, 61
1, 348497, Note_on_c, 0, 42, 52
1, 348506, Note_off_c, 0, 64, 53
1, 348514, Note_on_c, 0, 54, 45
1, 348523, Control_c, 0, 64, 108
1, 348537, Control_c, 0, 64, 76
1, 348542, Note_on_c, 0, 60, 66
1, 348552, Control_c, 0, 64, 58
1, 348567, Control_c, 0, 64, 17
1, 348581, Control_c, 0, 64, 19
1, 348596, Control_c, 0, 64, 38
1, 348611, Control_c, 0, 64, 53
1, 348626, Note_off_c, 0, 42, 62
1, 348626, Control_c, 0, 64, 63
1, 348641, Control_c, 0, 64, 74
1, 348646, Note_off_c, 0, 54, 64
1, 348650, Note_off_c, 0, 60, 64
1, 348656, Control_c, 0, 64, 101
1, 348661, Note_on_c, 0, 63, 54
1, 348663, Note_on_c, 0, 72, 60
1, 348671, Control_c, 0, 64, 127
1, 348685, Note_off_c, 0, 63, 62
1, 348731, Note_off_c, 0, 72, 61
1, 348779, Note_on_c, 0, 63, 48
1, 348797, Note_on_c, 0, 72, 58
1, 348800, Note_on_c, 0, 60, 50
1, 348804, Note_on_c, 0, 54, 39
1, 348870, Note_off_c, 0, 54, 51
1, 348873, Note_off_c, 0, 72, 61
1, 348877, Note_on_c, 0, 75, 67
1, 348882, Note_off_c, 0, 63, 51
1, 348891, Note_on_c, 0, 84, 60
1, 348918, Note_off_c, 0, 84, 58
1, 348927, Note_off_c, 0, 75, 58
1, 348946, Control_c, 0, 64, 95
1, 348960, Control_c, 0, 64, 76
1, 348968, Note_on_c, 0, 63, 42
1, 348971, Note_on_c, 0, 71, 73
1, 348974, Note_on_c, 0, 55, 54
1, 348975, Control_c, 0, 64, 67
1, 348990, Control_c, 0, 64, 66
1, 349005, Note_off_c, 0, 63, 63
1, 349005, Control_c, 0, 64, 71
1, 349011, Note_off_c, 0, 60, 59
1, 349020, Note_off_c, 0, 55, 64
1, 349020, Control_c, 0, 64, 79
1, 349031, Note_off_c, 0, 71, 62
1, 349034, Control_c, 0, 64, 104
1, 349049, Control_c, 0, 64, 127
1, 349053, Note_on_c, 0, 75, 54
1, 349055, Note_on_c, 0, 83, 64
1, 349090, Note_off_c, 0, 75, 64
1, 349111, Note_off_c, 0, 83, 61
1, 349127, Note_on_c, 0, 72, 76
1, 349133, Note_on_c, 0, 55, 71
1, 349145, Note_on_c, 0, 43, 66
1, 349172, Note_off_c, 0, 55, 60
1, 349188, Note_off_c, 0, 43, 60
1, 349201, Note_on_c, 0, 75, 66
1, 349206, Note_off_c, 0, 72, 63
1, 349212, Control_c, 0, 64, 78
1, 349213, Note_on_c, 0, 84, 64
1, 349227, Control_c, 0, 64, 55
1, 349242, Control_c, 0, 64, 13
1, 349250, Note_off_c, 0, 75, 60
1, 349257, Control_c, 0, 64, 44
1, 349272, Control_c, 0, 64, 58
1, 349281, Note_off_c, 0, 84, 54
1, 349283, Note_on_c, 0, 44, 66
1, 349284, Note_on_c, 0, 72, 76
1, 349285, Note_on_c, 0, 56, 70
1, 349286, Control_c, 0, 64, 65
1, 349301, Control_c, 0, 64, 76
1, 349316, Control_c, 0, 64, 127
1, 349323, Note_off_c, 0, 44, 64
1, 349341, Note_off_c, 0, 56, 62
1, 349344, Note_off_c, 0, 72, 64
1, 349363, Note_on_c, 0, 75, 56
1, 349377, Note_on_c, 0, 84, 56
1, 349383, Note_off_c, 0, 75, 61
1, 349399, Note_off_c, 0, 84, 60
1, 349446, Note_on_c, 0, 75, 84
1, 349449, Note_on_c, 0, 66, 69
1, 349469, Note_on_c, 0, 63, 57
1, 349470, Note_on_c, 0, 56, 55
1, 349508, Note_off_c, 0, 66, 54
1, 349511, Note_off_c, 0, 56, 61
1, 349524, Note_on_c, 0, 87, 76
1, 349527, Note_on_c, 0, 78, 68
1, 349535, Note_off_c, 0, 75, 60
1, 349577, Note_off_c, 0, 63, 0
1, 349588, Note_off_c, 0, 87, 65
1, 349591, Note_off_c, 0, 78, 62
1, 349597, Note_on_c, 0, 63, 24
1, 349605, Note_on_c, 0, 66, 83
1, 349605, Control_c, 0, 64, 82
1, 349609, Note_on_c, 0, 57, 76
1, 349609, Note_on_c, 0, 74, 83
1, 349619, Control_c, 0, 64, 66
1, 349632, Note_off_c, 0, 66, 67
1, 349634, Control_c, 0, 64, 62
1, 349639, Note_off_c, 0, 63, 64
1, 349649, Control_c, 0, 64, 70
1, 349657, Note_off_c, 0, 57, 64
1, 349665, Control_c, 0, 64, 94
1, 349674, Note_off_c, 0, 74, 60
1, 349677, Note_on_c, 0, 86, 79
1, 349680, Control_c, 0, 64, 127
1, 349689, Note_on_c, 0, 78, 76
1, 349729, Note_off_c, 0, 78, 51
1, 349740, Note_off_c, 0, 86, 64
1, 349762, Note_on_c, 0, 75, 102
1, 349769, Note_on_c, 0, 59, 86
1, 349771, Note_on_c, 0, 45, 81
1, 349773, Note_on_c, 0, 57, 81
1, 349779, Note_on_c, 0, 81, 13
1, 349792, Note_off_c, 0, 59, 71
1, 349795, Note_on_c, 0, 47, 54
1, 349804, Note_off_c, 0, 57, 58
1, 349809, Note_off_c, 0, 45, 57
1, 349822, Note_off_c, 0, 47, 55
1, 349830, Note_on_c, 0, 78, 87
1, 349834, Note_on_c, 0, 87, 85
1, 349834, Note_off_c, 0, 81, 50
1, 349843, Note_off_c, 0, 75, 62
1, 349887, Control_c, 0, 64, 84
1, 349899, Note_off_c, 0, 78, 61
1, 349902, Control_c, 0, 64, 54
1, 349908, Note_off_c, 0, 87, 63
1, 349914, Note_on_c, 0, 75, 99
1, 349914, Note_on_c, 0, 58, 99
1, 349915, Note_on_c, 0, 46, 90
1, 349917, Control_c, 0, 64, 0
1, 349947, Control_c, 0, 64, 58
1, 349961, Control_c, 0, 64, 76
1, 349962, Note_off_c, 0, 46, 64
1, 349969, Note_off_c, 0, 58, 63
1, 349976, Control_c, 0, 64, 127
1, 349983, Note_off_c, 0, 75, 62
1, 349998, Note_on_c, 0, 87, 77
1, 350015, Note_on_c, 0, 78, 27
1, 350027, Note_off_c, 0, 87, 61
1, 350048, Note_off_c, 0, 78, 38
1, 350071, Note_on_c, 0, 66, 100
1, 350072, Note_on_c, 0, 78, 84
1, 350079, Note_on_c, 0, 63, 72
1, 350082, Note_on_c, 0, 58, 73
1, 350110, Note_off_c, 0, 58, 60
1, 350125, Note_off_c, 0, 66, 58
1, 350143, Note_on_c, 0, 90, 84
1, 350144, Note_on_c, 0, 82, 83
1, 350153, Note_off_c, 0, 78, 63
1, 350158, Note_off_c, 0, 63, 53
1, 350170, Poly_aftertouch_c, 0, 61, 127
1, 350194, Note_off_c, 0, 82, 62
1, 350213, Note_off_c, 0, 90, 64
1, 350215, Poly_aftertouch_c, 0, 61, 0
1, 350224, Note_on_c, 0, 77, 93
1, 350224, Note_on_c, 0, 69, 103
1, 350232, Note_on_c, 0, 63, 73
1, 350235, Control_c, 0, 64, 90
1, 350236, Note_on_c, 0, 59, 81
1, 350250, Note_off_c, 0, 69, 68
1, 350250, Control_c, 0, 64, 85
1, 350256, Note_off_c, 0, 63, 68
1, 350263, Note_off_c, 0, 59, 67
1, 350265, Control_c, 0, 64, 127
1, 350295, Note_on_c, 0, 89, 103
1, 350304, Note_on_c, 0, 80, 86
1, 350307, Note_off_c, 0, 77, 58
1, 350357, Note_off_c, 0, 80, 63
1, 350364, Note_off_c, 0, 89, 62
1, 350391, Note_on_c, 0, 59, 102
1, 350394, Note_on_c, 0, 78, 104
1, 350395, Note_on_c, 0, 47, 98
1, 350432, Note_off_c, 0, 47, 65
1, 350439, Note_off_c, 0, 59, 54
1, 350459, Note_on_c, 0, 80, 89
1, 350477, Note_on_c, 0, 90, 88
1, 350478, Note_on_c, 0, 81, 87
1, 350486, Note_off_c, 0, 80, 58
1, 350489, Note_off_c, 0, 78, 63
1, 350545, Note_off_c, 0, 81, 61
1, 350576, Control_c, 0, 64, 79
1, 350578, Note_on_c, 0, 78, 104
1, 350579, Note_on_c, 0, 60, 108
1, 350579, Note_off_c, 0, 90, 59
1, 350584, Note_on_c, 0, 48, 98
1, 350590, Control_c, 0, 64, 0
1, 350648, Note_off_c, 0, 48, 65
1, 350650, Control_c, 0, 64, 67
1, 350663, Note_off_c, 0, 60, 69
1, 350664, Control_c, 0, 64, 127
1, 350668, Note_on_c, 0, 81, 77
1, 350675, Note_on_c, 0, 90, 87
1, 350684, Note_off_c, 0, 78, 63
1, 350703, Note_off_c, 0, 81, 63
1, 350738, Note_off_c, 0, 90, 62
1, 350768, Note_on_c, 0, 69, 100
1, 350770, Note_on_c, 0, 81, 101
1, 350775, Note_on_c, 0, 60, 86
1, 350775, Note_on_c, 0, 66, 90
1, 350778, Note_on_c, 0, 62, 80
1, 350855, Note_on_c, 0, 84, 94
1, 350856, Note_on_c, 0, 93, 88
1, 350865, Note_off_c, 0, 81, 66
1, 350871, Note_off_c, 0, 60, 57
1, 350896, Note_off_c, 0, 84, 64
1, 350907, Note_off_c, 0, 69, 56
1, 350927, Note_off_c, 0, 93, 57
1, 350956, Note_on_c, 0, 82, 111
1, 350959, Note_off_c, 0, 66, 56
1, 350981, Note_off_c, 0, 62, 53
1, 351026, Note_on_c, 0, 86, 70
1, 351048, Note_on_c, 0, 94, 88
1, 351052, Note_off_c, 0, 82, 65
1, 351088, Note_off_c, 0, 86, 63
1, 351128, Note_off_c, 0, 94, 62
1, 351144, Note_on_c, 0, 69, 97
1, 351145, Note_on_c, 0, 60, 86
1, 351145, Note_on_c, 0, 66, 87
1, 351149, Note_on_c, 0, 84, 107
1, 351151, Note_on_c, 0, 62, 68
1, 351177, Note_off_c, 0, 69, 65
1, 351190, Note_off_c, 0, 66, 64
1, 351193, Note_off_c, 0, 62, 60
1, 351202, Note_off_c, 0, 60, 67
1, 351246, Note_on_c, 0, 96, 95
1, 351250, Note_on_c, 0, 87, 98
1, 351275, Note_off_c, 0, 84, 66
1, 351279, Note_on_c, 0, 95, 40
1, 351280, Note_off_c, 0, 95, 127
1, 351320, Note_off_c, 0, 87, 62
1, 351343, Note_off_c, 0, 96, 64
1, 351374, Note_on_c, 0, 58, 98
1, 351376, Note_on_c, 0, 46, 94
1, 351384, Control_c, 0, 64, 73
1, 351397, Note_on_c, 0, 84, 104
1, 351399, Control_c, 0, 64, 0
1, 351428, Control_c, 0, 64, 13
1, 351443, Control_c, 0, 64, 58
1, 351458, Control_c, 0, 64, 90
1, 351473, Control_c, 0, 64, 127
1, 351476, Note_off_c, 0, 46, 64
1, 351483, Note_off_c, 0, 58, 64
1, 351506, Note_on_c, 0, 96, 83
1, 351514, Note_on_c, 0, 87, 79
1, 351519, Note_off_c, 0, 84, 67
1, 351564, Note_off_c, 0, 96, 61
1, 351570, Note_off_c, 0, 87, 64
1, 351604, Note_on_c, 0, 67, 87
1, 351604, Note_on_c, 0, 82, 95
1, 351612, Note_on_c, 0, 55, 80
1, 351620, Note_on_c, 0, 62, 65
1, 351623, Note_off_c, 0, 67, 72
1, 351648, Note_off_c, 0, 55, 63
1, 351649, Note_off_c, 0, 62, 64
1, 351673, Note_on_c, 0, 86, 83
1, 351684, Note_on_c, 0, 94, 89
1, 351687, Note_off_c, 0, 82, 60
1, 351717, Control_c, 0, 64, 98
1, 351732, Control_c, 0, 64, 64
1, 351747, Control_c, 0, 64, 0
1, 351762, Control_c, 0, 64, 35
1, 351767, Note_on_c, 0, 60, 97
1, 351769, Note_on_c, 0, 82, 95
1, 351772, Note_on_c, 0, 48, 84
1, 351772, Note_off_c, 0, 86, 62
1, 351776, Note_off_c, 0, 94, 63
1, 351777, Control_c, 0, 64, 69
1, 351790, Note_off_c, 0, 60, 68
1, 351792, Control_c, 0, 64, 127
1, 351798, Note_off_c, 0, 48, 69
1, 351813, Note_on_c, 0, 50, 21
1, 351830, Note_off_c, 0, 82, 63
1, 351842, Note_on_c, 0, 86, 63
1, 351842, Note_on_c, 0, 94, 76
1, 351851, Note_off_c, 0, 50, 52
1, 351875, Note_off_c, 0, 86, 67
1, 351877, Note_off_c, 0, 94, 64
1, 351914, Note_on_c, 0, 67, 88
1, 351914, Note_on_c, 0, 81, 84
1, 351927, Note_on_c, 0, 63, 70
1, 351933, Note_off_c, 0, 67, 71
1, 351954, Note_off_c, 0, 63, 67
1, 351984, Note_on_c, 0, 93, 85
1, 351986, Note_on_c, 0, 84, 84
1, 351989, Poly_aftertouch_c, 0, 57, 127
1, 351990, Note_off_c, 0, 81, 60
1, 351991, Poly_aftertouch_c, 0, 59, 127
1, 352024, Poly_aftertouch_c, 0, 59, 0
1, 352027, Poly_aftertouch_c, 0, 57, 0
1, 352028, Control_c, 0, 64, 83
1, 352038, Note_off_c, 0, 84, 57
1, 352040, Note_off_c, 0, 93, 65
1, 352043, Control_c, 0, 64, 51
1, 352057, Note_on_c, 0, 62, 103
1, 352057, Note_on_c, 0, 81, 85
1, 352059, Control_c, 0, 64, 0
1, 352060, Note_on_c, 0, 50, 96
1, 352074, Control_c, 0, 64, 61
1, 352080, Note_off_c, 0, 50, 73
1, 352089, Control_c, 0, 64, 93
1, 352090, Note_off_c, 0, 62, 67
1, 352103, Control_c, 0, 64, 127
1, 352122, Note_off_c, 0, 81, 64
1, 352129, Note_on_c, 0, 93, 85
1, 352139, Note_on_c, 0, 84, 73
1, 352164, Note_off_c, 0, 84, 69
1, 352179, Note_off_c, 0, 93, 64
1, 352202, Note_on_c, 0, 79, 79
1, 352209, Note_on_c, 0, 70, 88
1, 352215, Note_on_c, 0, 62, 75
1, 352221, Note_on_c, 0, 81, 56
1, 352221, Note_on_c, 0, 67, 69
1, 352227, Note_off_c, 0, 70, 73
1, 352233, Note_off_c, 0, 62, 71
1, 352242, Note_off_c, 0, 81, 58
1, 352248, Note_off_c, 0, 79, 67
1, 352249, Note_off_c, 0, 67, 66
1, 352278, Note_on_c, 0, 82, 61
1, 352279, Note_off_c, 0, 82, 127
1, 352287, Note_on_c, 0, 91, 68
1, 352303, Note_on_c, 0, 93, 56
1, 352304, Note_off_c, 0, 93, 127
1, 352306, Note_on_c, 0, 83, 44
1, 352325, Control_c, 0, 64, 75
1, 352331, Note_off_c, 0, 83, 58
1, 352331, Note_off_c, 0, 91, 64
1, 352340, Control_c, 0, 64, 48
1, 352353, Note_on_c, 0, 60, 102
1, 352354, Note_on_c, 0, 77, 82
1, 352355, Control_c, 0, 64, 39
1, 352357, Note_on_c, 0, 79, 60
1, 352369, Note_on_c, 0, 48, 69
1, 352370, Control_c, 0, 64, 66
1, 352371, Note_on_c, 0, 50, 65
1, 352376, Note_off_c, 0, 60, 68
1, 352385, Control_c, 0, 64, 113
1, 352388, Note_off_c, 0, 48, 63
1, 352390, Note_off_c, 0, 77, 64
1, 352391, Note_off_c, 0, 79, 65
1, 352397, Note_off_c, 0, 50, 64
1, 352400, Control_c, 0, 64, 127
1, 352421, Note_on_c, 0, 82, 52
1, 352436, Note_on_c, 0, 89, 57
1, 352441, Note_off_c, 0, 82, 61
1, 352444, Note_on_c, 0, 91, 42
1, 352445, Note_off_c, 0, 91, 127
1, 352463, Note_off_c, 0, 89, 63
1, 352505, Note_on_c, 0, 69, 89
1, 352505, Note_on_c, 0, 72, 88
1, 352513, Note_on_c, 0, 66, 77
1, 352516, Note_on_c, 0, 60, 71
1, 352523, Note_off_c, 0, 69, 73
1, 352534, Note_off_c, 0, 72, 62
1, 352540, Note_off_c, 0, 66, 68
1, 352541, Note_off_c, 0, 60, 67
1, 352546, Note_on_c, 0, 74, 23
1, 352546, Note_on_c, 0, 84, 69
1, 352577, Note_off_c, 0, 84, 67
1, 352579, Note_off_c, 0, 74, 44
1, 352659, Control_c, 0, 64, 67
1, 352660, Note_on_c, 0, 58, 93
1, 352667, Note_on_c, 0, 46, 84
1, 352674, Control_c, 0, 64, 0
1, 352676, Note_on_c, 0, 59, 77
1, 352677, Note_on_c, 0, 49, 64
1, 352689, Control_c, 0, 64, 25
1, 352692, Note_off_c, 0, 46, 67
1, 352692, Note_off_c, 0, 59, 70
1, 352698, Note_off_c, 0, 49, 60
1, 352703, Control_c, 0, 64, 63
1, 352704, Note_off_c, 0, 58, 60
1, 352717, Control_c, 0, 64, 93
1, 352732, Control_c, 0, 64, 127
1, 352736, Note_on_c, 0, 82, 85
1, 352808, Note_on_c, 0, 94, 99
1, 352811, Note_on_c, 0, 86, 97
1, 352814, Note_on_c, 0, 67, 90
1, 352823, Note_on_c, 0, 55, 84
1, 352827, Note_on_c, 0, 62, 66
1, 352830, Note_off_c, 0, 82, 63
1, 352832, Note_off_c, 0, 67, 72
1, 352850, Note_on_c, 0, 92, 31
1, 352857, Note_off_c, 0, 55, 64
1, 352857, Note_off_c, 0, 62, 64
1, 352886, Note_on_c, 0, 82, 88
1, 352888, Note_off_c, 0, 92, 32
1, 352892, Note_off_c, 0, 86, 61
1, 352918, Note_off_c, 0, 94, 64
1, 352971, Control_c, 0, 64, 81
1, 352972, Note_on_c, 0, 60, 96
1, 352978, Note_on_c, 0, 48, 94
1, 352979, Note_on_c, 0, 94, 103
1, 352982, Note_on_c, 0, 85, 96
1, 352986, Control_c, 0, 64, 43
1, 352991, Note_off_c, 0, 82, 67
1, 353000, Control_c, 0, 64, 0
1, 353015, Control_c, 0, 64, 55
1, 353020, Note_off_c, 0, 48, 63
1, 353030, Control_c, 0, 64, 81
1, 353035, Note_off_c, 0, 60, 66
1, 353045, Control_c, 0, 64, 127
1, 353069, Note_on_c, 0, 82, 82
1, 353073, Note_off_c, 0, 85, 66
1, 353074, Note_off_c, 0, 94, 65
1, 353101, Note_off_c, 0, 82, 63
1, 353145, Note_on_c, 0, 67, 81
1, 353148, Note_on_c, 0, 93, 104
1, 353148, Note_on_c, 0, 84, 97
1, 353152, Note_on_c, 0, 57, 80
1, 353152, Note_on_c, 0, 63, 80
1, 353166, Note_off_c, 0, 67, 72
1, 353175, Note_on_c, 0, 85, 51
1, 353176, Note_off_c, 0, 85, 127
1, 353179, Note_off_c, 0, 57, 68
1, 353181, Note_off_c, 0, 63, 64
1, 353217, Note_on_c, 0, 81, 75
1, 353223, Note_off_c, 0, 84, 65
1, 353229, Note_off_c, 0, 93, 63
1, 353259, Control_c, 0, 64, 98
1, 353266, Note_off_c, 0, 81, 66
1, 353274, Control_c, 0, 64, 63
1, 353289, Control_c, 0, 64, 0
1, 353295, Note_on_c, 0, 93, 88
1, 353297, Note_on_c, 0, 60, 78
1, 353297, Note_on_c, 0, 62, 82
1, 353300, Note_on_c, 0, 48, 76
1, 353300, Note_on_c, 0, 91, 81
1, 353301, Note_on_c, 0, 84, 78
1, 353303, Note_on_c, 0, 50, 78
1, 353304, Control_c, 0, 64, 49
1, 353306, Note_on_c, 0, 83, 76
1, 353315, Note_off_c, 0, 60, 74
1, 353315, Note_off_c, 0, 48, 70
1, 353316, Note_off_c, 0, 62, 72
1, 353319, Control_c, 0, 64, 77
1, 353326, Note_off_c, 0, 50, 67
1, 353333, Control_c, 0, 64, 127
1, 353351, Note_off_c, 0, 84, 63
1, 353355, Note_off_c, 0, 83, 63
1, 353361, Note_off_c, 0, 93, 66
1, 353364, Note_on_c, 0, 81, 61
1, 353368, Note_off_c, 0, 91, 64
1, 353369, Note_on_c, 0, 51, 13
1, 353395, Note_off_c, 0, 81, 66
1, 353401, Note_off_c, 0, 51, 47
1, 353429, Note_on_c, 0, 91, 98
1, 353431, Note_on_c, 0, 70, 90
1, 353433, Note_on_c, 0, 82, 93
1, 353434, Note_on_c, 0, 61, 83
1, 353440, Note_on_c, 0, 67, 75
1, 353450, Note_off_c, 0, 70, 71
1, 353463, Note_off_c, 0, 67, 69
1, 353481, Note_off_c, 0, 61, 59
1, 353500, Note_on_c, 0, 79, 84
1, 353506, Note_off_c, 0, 82, 66
1, 353510, Note_off_c, 0, 91, 61
1, 353554, Note_off_c, 0, 79, 66
1, 353556, Control_c, 0, 64, 70
1, 353571, Control_c, 0, 64, 0
1, 353578, Note_on_c, 0, 91, 99
1, 353579, Note_on_c, 0, 60, 99
1, 353583, Note_on_c, 0, 82, 92
1, 353590, Note_on_c, 0, 50, 77
1, 353597, Note_on_c, 0, 48, 66
1, 353600, Control_c, 0, 64, 59
1, 353606, Note_off_c, 0, 60, 67
1, 353615, Note_off_c, 0, 50, 67
1, 353615, Control_c, 0, 64, 100
1, 353616, Note_off_c, 0, 48, 63
1, 353630, Control_c, 0, 64, 127
1, 353649, Note_on_c, 0, 79, 79
1, 353652, Note_off_c, 0, 91, 62
1, 353658, Note_off_c, 0, 82, 65
1, 353690, Note_off_c, 0, 79, 65
1, 353729, Note_on_c, 0, 69, 92
1, 353737, Note_on_c, 0, 66, 79
1, 353738, Note_on_c, 0, 86, 97
1, 353743, Note_on_c, 0, 78, 98
1, 353747, Note_off_c, 0, 69, 73
1, 353747, Note_on_c, 0, 59, 59
1, 353759, Note_off_c, 0, 66, 69
1, 353768, Note_on_c, 0, 60, 36
1, 353774, Note_off_c, 0, 59, 63
1, 353786, Note_off_c, 0, 60, 64
1, 353819, Note_on_c, 0, 74, 94
1, 353851, Note_off_c, 0, 78, 62
1, 353869, Note_on_c, 0, 76, 17
1, 353870, Note_off_c, 0, 76, 127
1, 353870, Note_off_c, 0, 86, 53
1, 353873, Note_off_c, 0, 74, 64
1, 353956, Note_on_c, 0, 58, 106
1, 353957, Note_on_c, 0, 46, 99
1, 353965, Control_c, 0, 64, 104
1, 353980, Control_c, 0, 64, 61
1, 353995, Control_c, 0, 64, 0
1, 354054, Control_c, 0, 64, 35
1, 354069, Control_c, 0, 64, 74
1, 354082, Note_on_c, 0, 86, 99
1, 354083, Control_c, 0, 64, 127
1, 354090, Note_off_c, 0, 46, 63
1, 354118, Note_off_c, 0, 58, 63
1, 354220, Note_on_c, 0, 91, 102
1, 354220, Note_on_c, 0, 98, 100
1, 354224, Note_on_c, 0, 94, 104
1, 354259, Note_off_c, 0, 86, 64
1, 354315, Note_off_c, 0, 91, 61
1, 354347, Note_on_c, 0, 86, 98
1, 354368, Note_off_c, 0, 98, 61
1, 354380, Note_on_c, 0, 91, 19
1, 354400, Note_off_c, 0, 94, 64
1, 354403, Note_off_c, 0, 86, 65
1, 354424, Note_off_c, 0, 91, 53
1, 354434, Note_on_c, 0, 86, 91
1, 354439, Note_on_c, 0, 79, 82
1, 354440, Note_on_c, 0, 82, 95
1, 354485, Note_off_c, 0, 86, 65
1, 354513, Note_on_c, 0, 74, 93
1, 354520, Note_off_c, 0, 79, 66
1, 354527, Note_off_c, 0, 82, 66
1, 354554, Note_off_c, 0, 74, 68
1, 354603, Note_on_c, 0, 86, 87
1, 354606, Note_on_c, 0, 79, 90
1, 354606, Note_on_c, 0, 82, 92
1, 354667, Note_on_c, 0, 74, 92
1, 354671, Note_off_c, 0, 86, 61
1, 354674, Note_off_c, 0, 79, 55
1, 354683, Note_off_c, 0, 82, 65
1, 354711, Note_off_c, 0, 74, 66
1, 354750, Note_on_c, 0, 70, 92
1, 354751, Note_on_c, 0, 74, 75
1, 354753, Note_on_c, 0, 67, 78
1, 354775, Note_off_c, 0, 74, 66
1, 354818, Note_on_c, 0, 62, 89
1, 354823, Note_off_c, 0, 67, 66
1, 354824, Note_off_c, 0, 70, 66
1, 354854, Note_off_c, 0, 62, 66
1, 354885, Note_on_c, 0, 74, 88
1, 354895, Note_on_c, 0, 67, 79
1, 354899, Note_on_c, 0, 68, 69
1, 354910, Note_on_c, 0, 71, 60
1, 354925, Note_off_c, 0, 68, 67
1, 354927, Note_off_c, 0, 67, 61
1, 354952, Note_off_c, 0, 71, 59
1, 354953, Note_on_c, 0, 62, 83
1, 354958, Note_off_c, 0, 74, 61
1, 354982, Note_off_c, 0, 62, 66
1, 355020, Note_on_c, 0, 55, 70
1, 355020, Note_on_c, 0, 58, 89
1, 355021, Note_on_c, 0, 62, 77
1, 355038, Note_off_c, 0, 62, 75
1, 355081, Note_on_c, 0, 50, 94
1, 355089, Note_off_c, 0, 58, 65
1, 355089, Note_off_c, 0, 55, 64
1, 355109, Note_off_c, 0, 50, 67
1, 355149, Note_on_c, 0, 55, 92
1, 355149, Note_on_c, 0, 62, 76
1, 355155, Note_on_c, 0, 58, 86
1, 355214, Note_off_c, 0, 62, 62
1, 355221, Note_on_c, 0, 50, 86
1, 355235, Note_off_c, 0, 58, 62
1, 355242, Note_off_c, 0, 55, 56
1, 355278, Control_c, 0, 64, 70
1, 355285, Note_off_c, 0, 50, 61
1, 355289, Note_on_c, 0, 42, 100
1, 355293, Control_c, 0, 64, 0
1, 355294, Note_on_c, 0, 30, 92
1, 355321, Note_off_c, 0, 30, 69
1, 355322, Control_c, 0, 64, 55
1, 355326, Note_off_c, 0, 42, 62
1, 355337, Control_c, 0, 64, 76
1, 355352, Control_c, 0, 64, 127
1, 355354, Note_on_c, 0, 43, 96
1, 355361, Note_on_c, 0, 31, 79
1, 355383, Note_on_c, 0, 33, 56
1, 355383, Note_off_c, 0, 43, 67
1, 355392, Note_off_c, 0, 31, 63
1, 355415, Note_off_c, 0, 33, 55
1, 355424, Note_on_c, 0, 55, 86
1, 355425, Note_on_c, 0, 64, 83
1, 355431, Note_on_c, 0, 58, 81
1, 355441, Control_c, 0, 64, 71
1, 355463, Control_c, 0, 64, 0
1, 355474, Note_off_c, 0, 64, 61
1, 355492, Note_on_c, 0, 50, 88
1, 355507, Note_off_c, 0, 58, 63
1, 355526, Note_off_c, 0, 55, 63
1, 355550, Note_on_c, 0, 49, 102
1, 355558, Note_on_c, 0, 37, 86
1, 355567, Control_c, 0, 64, 77
1, 355570, Note_off_c, 0, 49, 73
1, 355577, Note_off_c, 0, 37, 66
1, 355581, Note_off_c, 0, 50, 36
1, 355582, Control_c, 0, 64, 127
1, 355612, Note_on_c, 0, 50, 32
1, 355625, Note_on_c, 0, 38, 86
1, 355653, Note_off_c, 0, 38, 68
1, 355656, Note_off_c, 0, 50, 65
1, 355671, Control_c, 0, 64, 95
1, 355686, Control_c, 0, 64, 64
1, 355687, Note_on_c, 0, 55, 88
1, 355688, Note_on_c, 0, 64, 85
1, 355691, Note_on_c, 0, 58, 84
1, 355701, Control_c, 0, 64, 0
1, 355725, Poly_aftertouch_c, 0, 37, 0
1, 355731, Note_off_c, 0, 64, 62
1, 355748, Note_on_c, 0, 50, 87
1, 355760, Note_off_c, 0, 58, 59
1, 355783, Note_off_c, 0, 55, 60
1, 355802, Note_on_c, 0, 42, 100
1, 355805, Control_c, 0, 64, 15
1, 355808, Note_on_c, 0, 30, 86
1, 355811, Note_off_c, 0, 50, 62
1, 355820, Control_c, 0, 64, 74
1, 355830, Note_off_c, 0, 42, 63
1, 355833, Note_off_c, 0, 30, 65
1, 355835, Control_c, 0, 64, 127
1, 355854, Note_on_c, 0, 43, 63
1, 355870, Note_on_c, 0, 31, 86
1, 355903, Note_off_c, 0, 31, 66
1, 355905, Note_off_c, 0, 43, 63
1, 355923, Control_c, 0, 64, 78
1, 355934, Note_on_c, 0, 55, 92
1, 355935, Note_on_c, 0, 64, 90
1, 355938, Control_c, 0, 64, 0
1, 355941, Note_on_c, 0, 58, 84
1, 355984, Note_off_c, 0, 64, 61
1, 355996, Note_on_c, 0, 50, 93
1, 356029, Note_off_c, 0, 58, 60
1, 356042, Note_off_c, 0, 55, 62
1, 356052, Note_on_c, 0, 49, 99
1, 356058, Control_c, 0, 64, 62
1, 356058, Note_on_c, 0, 37, 88
1, 356060, Note_off_c, 0, 50, 61
1, 356072, Control_c, 0, 64, 127
1, 356074, Note_off_c, 0, 49, 69
1, 356083, Note_off_c, 0, 37, 67
1, 356122, Note_on_c, 0, 50, 99
1, 356133, Note_on_c, 0, 38, 76
1, 356145, Note_off_c, 0, 50, 66
1, 356146, Note_on_c, 0, 40, 60
1, 356161, Note_off_c, 0, 38, 64
1, 356173, Note_off_c, 0, 40, 57
1, 356184, Note_on_c, 0, 55, 95
1, 356190, Note_on_c, 0, 64, 93
1, 356192, Note_on_c, 0, 58, 83
1, 356252, Note_off_c, 0, 64, 60
1, 356270, Note_on_c, 0, 50, 95
1, 356300, Note_off_c, 0, 55, 61
1, 356350, Note_off_c, 0, 58, 31
1, 356363, Note_off_c, 0, 50, 61
1, 356466, Note_on_c, 0, 38, 104
1, 356470, Note_on_c, 0, 26, 97
1, 356550, Poly_aftertouch_c, 0, 32, 127
1, 356553, Control_c, 0, 64, 103
1, 356568, Control_c, 0, 64, 69
1, 356583, Control_c, 0, 64, 0
1, 356588, Poly_aftertouch_c, 0, 32, 0
1, 356591, Poly_aftertouch_c, 0, 28, 0
1, 356717, Control_c, 0, 64, 37
1, 356732, Control_c, 0, 64, 62
1, 356746, Control_c, 0, 64, 75
1, 356761, Control_c, 0, 64, 127
1, 356941, Note_on_c, 0, 55, 100
1, 357056, Note_off_c, 0, 26, 57
1, 357081, Note_off_c, 0, 55, 58
1, 357098, Note_on_c, 0, 56, 68
1, 357102, Note_off_c, 0, 38, 55
1, 357136, Note_off_c, 0, 56, 63
1, 357167, Note_on_c, 0, 57, 70
1, 357194, Note_off_c, 0, 57, 65
1, 357206, Note_on_c, 0, 58, 77
1, 357245, Note_off_c, 0, 58, 58
1, 357266, Note_on_c, 0, 59, 80
1, 357319, Note_on_c, 0, 60, 80
1, 357328, Note_off_c, 0, 59, 62
1, 357364, Note_on_c, 0, 61, 83
1, 357377, Note_off_c, 0, 60, 64
1, 357416, Note_off_c, 0, 61, 63
1, 357432, Note_on_c, 0, 62, 79
1, 357473, Note_off_c, 0, 62, 56
1, 357488, Note_on_c, 0, 63, 81
1, 357510, Note_off_c, 0, 63, 69
1, 357546, Note_on_c, 0, 64, 82
1, 357605, Note_on_c, 0, 65, 80
1, 357611, Note_off_c, 0, 64, 62
1, 357658, Note_on_c, 0, 66, 81
1, 357671, Note_off_c, 0, 65, 61
1, 357729, Note_off_c, 0, 66, 63
1, 357763, Note_on_c, 0, 67, 75
1, 357772, Note_on_c, 0, 64, 89
1, 357796, Note_on_c, 0, 55, 56
1, 357799, Note_on_c, 0, 61, 53
1, 357809, Note_on_c, 0, 58, 51
1, 357822, Note_off_c, 0, 67, 61
1, 357832, Note_on_c, 0, 68, 70
1, 357895, Note_off_c, 0, 68, 60
1, 357909, Note_on_c, 0, 69, 72
1, 357951, Note_off_c, 0, 69, 58
1, 357962, Note_off_c, 0, 55, 54
1, 357964, Note_on_c, 0, 70, 72
1, 357972, Note_off_c, 0, 64, 60
1, 357997, Note_off_c, 0, 58, 51
1, 358011, Note_off_c, 0, 70, 60
1, 358027, Note_off_c, 0, 61, 34
1, 358035, Note_on_c, 0, 71, 72
1, 358048, Note_on_c, 0, 64, 90
1, 358060, Note_on_c, 0, 58, 62
1, 358066, Note_on_c, 0, 55, 68
1, 358069, Note_off_c, 0, 64, 72
1, 358071, Note_on_c, 0, 61, 36
1, 358081, Note_on_c, 0, 72, 84
1, 358088, Note_off_c, 0, 71, 63
1, 358095, Note_off_c, 0, 55, 66
1, 358095, Note_off_c, 0, 58, 64
1, 358109, Note_off_c, 0, 61, 48
1, 358135, Note_on_c, 0, 73, 78
1, 358139, Note_off_c, 0, 72, 64
1, 358143, Note_on_c, 0, 66, 101
1, 358145, Note_on_c, 0, 55, 81
1, 358151, Note_on_c, 0, 58, 72
1, 358160, Note_on_c, 0, 61, 73
1, 358172, Note_off_c, 0, 73, 63
1, 358199, Note_on_c, 0, 74, 82
1, 358247, Note_off_c, 0, 74, 61
1, 358254, Note_on_c, 0, 75, 83
1, 358290, Note_off_c, 0, 75, 52
1, 358311, Note_on_c, 0, 76, 86
1, 358367, Note_on_c, 0, 77, 91
1, 358384, Note_off_c, 0, 66, 60
1, 358390, Note_off_c, 0, 76, 56
1, 358409, Note_off_c, 0, 55, 59
1, 358422, Note_on_c, 0, 78, 88
1, 358424, Note_off_c, 0, 61, 60
1, 358428, Note_off_c, 0, 58, 61
1, 358434, Note_off_c, 0, 77, 64
1, 358482, Note_off_c, 0, 78, 64
1, 358493, Note_on_c, 0, 64, 100
1, 358503, Note_on_c, 0, 58, 76
1, 358509, Note_on_c, 0, 79, 85
1, 358509, Note_on_c, 0, 55, 80
1, 358511, Note_on_c, 0, 61, 70
1, 358547, Note_off_c, 0, 55, 62
1, 358548, Note_off_c, 0, 64, 64
1, 358563, Note_off_c, 0, 79, 59
1, 358564, Note_off_c, 0, 61, 57
1, 358565, Note_off_c, 0, 58, 63
1, 358573, Note_on_c, 0, 80, 89
1, 358634, Note_off_c, 0, 80, 56
1, 358640, Note_on_c, 0, 81, 85
1, 358697, Note_off_c, 0, 81, 62
1, 358698, Note_on_c, 0, 82, 88
1, 358737, Note_off_c, 0, 82, 65
1, 358744, Note_on_c, 0, 64, 89
1, 358752, Note_on_c, 0, 55, 72
1, 358756, Note_on_c, 0, 58, 67
1, 358760, Note_off_c, 0, 64, 74
1, 358762, Note_on_c, 0, 61, 49
1, 358765, Note_on_c, 0, 83, 87
1, 358783, Note_off_c, 0, 55, 64
1, 358785, Note_off_c, 0, 58, 66
1, 358787, Note_off_c, 0, 61, 58
1, 358818, Note_on_c, 0, 84, 89
1, 358837, Note_off_c, 0, 83, 64
1, 358839, Note_on_c, 0, 66, 98
1, 358846, Note_on_c, 0, 55, 84
1, 358848, Note_on_c, 0, 61, 84
1, 358852, Note_on_c, 0, 58, 81
1, 358870, Note_on_c, 0, 85, 80
1, 358880, Note_off_c, 0, 84, 65
1, 358902, Note_off_c, 0, 85, 63
1, 358923, Note_on_c, 0, 86, 91
1, 358973, Note_off_c, 0, 86, 63
1, 358986, Note_on_c, 0, 87, 90
1, 359006, Note_off_c, 0, 87, 71
1, 359041, Note_on_c, 0, 88, 92
1, 359081, Note_off_c, 0, 66, 56
1, 359107, Note_on_c, 0, 89, 91
1, 359113, Note_off_c, 0, 55, 56
1, 359135, Note_off_c, 0, 88, 63
1, 359144, Note_off_c, 0, 58, 59
1, 359151, Note_off_c, 0, 61, 60
1, 359158, Note_on_c, 0, 90, 93
1, 359173, Note_off_c, 0, 89, 66
1, 359212, Note_off_c, 0, 90, 66
1, 359212, Note_on_c, 0, 64, 104
1, 359218, Note_on_c, 0, 58, 85
1, 359219, Note_on_c, 0, 55, 86
1, 359220, Note_on_c, 0, 61, 80
1, 359242, Note_on_c, 0, 91, 99
1, 359311, Note_off_c, 0, 55, 58
1, 359317, Note_off_c, 0, 64, 56
1, 359323, Note_on_c, 0, 92, 101
1, 359336, Note_off_c, 0, 91, 64
1, 359360, Note_off_c, 0, 92, 67
1, 359367, Note_off_c, 0, 58, 57
1, 359386, Note_off_c, 0, 61, 58
1, 359406, Note_on_c, 0, 93, 100
1, 359487, Note_on_c, 0, 94, 106
1, 359504, Note_off_c, 0, 93, 66
1, 359534, Note_off_c, 0, 94, 65
1, 359580, Note_on_c, 0, 95, 111
1, 359583, Note_on_c, 0, 50, 90
1, 359609, Control_c, 0, 64, 66
1, 359624, Control_c, 0, 64, 0
1, 359668, Control_c, 0, 64, 55
1, 359673, Note_on_c, 0, 57, 80
1, 359683, Control_c, 0, 64, 87
1, 359697, Control_c, 0, 64, 127
1, 359701, Note_on_c, 0, 97, 101
1, 359710, Note_off_c, 0, 50, 61
1, 359732, Note_on_c, 0, 60, 82
1, 359733, Note_off_c, 0, 95, 64
1, 359873, Note_on_c, 0, 67, 107
1, 359928, Note_on_c, 0, 99, 102
1, 359972, Note_off_c, 0, 97, 64
1, 360076, Note_off_c, 0, 99, 65
1, 360127, Note_on_c, 0, 98, 105
1, 360291, Note_on_c, 0, 101, 113
1, 360325, Note_off_c, 0, 98, 67
1, 360443, Note_on_c, 0, 99, 107
1, 360484, Note_off_c, 0, 101, 65
1, 360551, Note_on_c, 0, 98, 101
1, 360557, Note_off_c, 0, 99, 69
1, 360643, Note_on_c, 0, 96, 100
1, 360659, Note_off_c, 0, 98, 67
1, 360715, Note_off_c, 0, 96, 66
1, 360738, Note_on_c, 0, 95, 105
1, 360818, Note_on_c, 0, 98, 100
1, 360819, Note_off_c, 0, 95, 65
1, 360892, Note_on_c, 0, 96, 84
1, 360925, Note_off_c, 0, 98, 67
1, 360949, Note_on_c, 0, 94, 98
1, 360989, Note_off_c, 0, 96, 65
1, 361013, Note_on_c, 0, 93, 91
1, 361046, Note_off_c, 0, 94, 63
1, 361087, Note_on_c, 0, 91, 81
1, 361087, Note_off_c, 0, 93, 66
1, 361143, Note_on_c, 0, 90, 92
1, 361150, Note_off_c, 0, 91, 62
1, 361202, Note_on_c, 0, 93, 87
1, 361202, Note_off_c, 0, 90, 64
1, 361261, Note_on_c, 0, 91, 90
1, 361299, Note_on_c, 0, 90, 82
1, 361302, Note_off_c, 0, 93, 61
1, 361344, Note_off_c, 0, 91, 63
1, 361351, Note_on_c, 0, 87, 91
1, 361363, Note_off_c, 0, 90, 64
1, 361395, Note_on_c, 0, 86, 69
1, 361404, Note_off_c, 0, 87, 64
1, 361454, Note_off_c, 0, 86, 55
1, 361454, Note_on_c, 0, 87, 70
1, 361500, Note_off_c, 0, 87, 62
1, 361522, Note_on_c, 0, 86, 67
1, 361541, Note_on_c, 0, 89, 77
1, 361549, Note_off_c, 0, 86, 66
1, 361595, Note_on_c, 0, 87, 89
1, 361626, Note_off_c, 0, 89, 62
1, 361628, Note_on_c, 0, 86, 70
1, 361635, Note_on_c, 0, 88, 57
1, 361657, Note_off_c, 0, 87, 62
1, 361664, Note_off_c, 0, 88, 67
1, 361688, Note_on_c, 0, 84, 78
1, 361693, Note_off_c, 0, 86, 64
1, 361716, Note_off_c, 0, 84, 62
1, 361727, Note_off_c, 0, 67, 55
1, 361749, Note_on_c, 0, 83, 79
1, 361780, Note_off_c, 0, 83, 61
1, 361783, Note_on_c, 0, 86, 85
1, 361829, Note_on_c, 0, 84, 82
1, 361863, Note_on_c, 0, 82, 84
1, 361867, Note_off_c, 0, 86, 58
1, 361916, Note_off_c, 0, 84, 61
1, 361922, Note_on_c, 0, 81, 82
1, 361947, Note_off_c, 0, 82, 64
1, 361955, Note_on_c, 0, 66, 106
1, 361985, Note_off_c, 0, 81, 66
1, 361990, Note_on_c, 0, 79, 71
1, 362044, Note_off_c, 0, 79, 63
1, 362068, Note_on_c, 0, 78, 82
1, 362122, Note_off_c, 0, 78, 64
1, 362131, Note_on_c, 0, 81, 78
1, 362207, Note_on_c, 0, 79, 78
1, 362242, Note_off_c, 0, 81, 62
1, 362250, Note_on_c, 0, 78, 82
1, 362282, Note_off_c, 0, 79, 64
1, 362308, Note_on_c, 0, 75, 79
1, 362318, Note_off_c, 0, 78, 65
1, 362330, Note_off_c, 0, 66, 48
1, 362334, Note_off_c, 0, 60, 25
1, 362359, Note_off_c, 0, 75, 63
1, 362361, Note_on_c, 0, 74, 66
1, 362372, Note_off_c, 0, 57, 39
1, 362406, Note_off_c, 0, 74, 50
1, 362407, Note_on_c, 0, 75, 71
1, 362463, Note_on_c, 0, 74, 72
1, 362464, Note_off_c, 0, 75, 61
1, 362507, Note_on_c, 0, 77, 80
1, 362512, Note_off_c, 0, 74, 62
1, 362568, Note_on_c, 0, 75, 83
1, 362592, Note_off_c, 0, 77, 63
1, 362601, Note_on_c, 0, 74, 80
1, 362620, Note_off_c, 0, 75, 62
1, 362649, Note_off_c, 0, 74, 63
1, 362657, Note_on_c, 0, 72, 69
1, 362685, Note_off_c, 0, 72, 67
1, 362724, Note_on_c, 0, 71, 72
1, 362749, Note_off_c, 0, 71, 69
1, 362772, Note_on_c, 0, 74, 45
1, 362782, Note_on_c, 0, 72, 57
1, 362819, Note_off_c, 0, 74, 63
1, 362873, Note_on_c, 0, 70, 61
1, 362888, Note_off_c, 0, 72, 65
1, 362915, Note_on_c, 0, 69, 74
1, 362920, Note_off_c, 0, 70, 62
1, 362959, Note_off_c, 0, 69, 63
1, 362980, Note_on_c, 0, 67, 63
1, 363021, Note_off_c, 0, 67, 52
1, 363040, Note_on_c, 0, 66, 68
1, 363087, Note_on_c, 0, 63, 66
1, 363099, Note_off_c, 0, 66, 61
1, 363120, Note_off_c, 0, 63, 65
1, 363123, Note_on_c, 0, 62, 69
1, 363152, Note_off_c, 0, 62, 66
1, 363168, Note_on_c, 0, 60, 66
1, 363197, Note_off_c, 0, 60, 64
1, 363214, Note_on_c, 0, 58, 80
1, 363266, Note_on_c, 0, 57, 78
1, 363271, Note_off_c, 0, 58, 64
1, 363294, Note_off_c, 0, 57, 67
1, 363310, Note_on_c, 0, 55, 68
1, 363359, Note_on_c, 0, 54, 83
1, 363362, Note_off_c, 0, 55, 62
1, 363401, Note_on_c, 0, 51, 80
1, 363428, Note_off_c, 0, 54, 64
1, 363432, Note_on_c, 0, 50, 81
1, 363452, Note_off_c, 0, 51, 64
1, 363473, Note_off_c, 0, 50, 64
1, 363477, Note_on_c, 0, 48, 70
1, 363517, Note_off_c, 0, 48, 49
1, 363532, Note_on_c, 0, 46, 85
1, 363586, Note_on_c, 0, 45, 74
1, 363596, Note_off_c, 0, 46, 63
1, 363619, Note_off_c, 0, 45, 67
1, 363627, Note_on_c, 0, 43, 69
1, 363681, Note_on_c, 0, 42, 81
1, 363693, Note_off_c, 0, 43, 62
1, 363736, Note_on_c, 0, 39, 75
1, 363752, Note_off_c, 0, 42, 63
1, 363757, Note_on_c, 0, 41, 29
1, 363761, Note_on_c, 0, 37, 79
1, 363774, Note_off_c, 0, 39, 58
1, 363790, Note_off_c, 0, 37, 66
1, 363797, Note_off_c, 0, 41, 55
1, 363806, Note_on_c, 0, 36, 61
1, 363852, Note_on_c, 0, 34, 89
1, 363877, Note_off_c, 0, 36, 63
1, 363889, Note_on_c, 0, 33, 63
1, 363914, Note_off_c, 0, 34, 64
1, 363922, Note_off_c, 0, 33, 61
1, 363937, Note_on_c, 0, 31, 102
1, 364041, Control_c, 0, 64, 83
1, 364056, Control_c, 0, 64, 59
1, 364071, Control_c, 0, 64, 0
1, 364411, Control_c, 0, 64, 31
1, 364426, Control_c, 0, 64, 41
1, 364448, Control_c, 0, 64, 48
1, 364463, Control_c, 0, 64, 53
1, 364478, Control_c, 0, 64, 57
1, 364492, Control_c, 0, 64, 61
1, 364507, Control_c, 0, 64, 63
1, 364522, Control_c, 0, 64, 66
1, 364537, Control_c, 0, 64, 69
1, 364552, Control_c, 0, 64, 73
1, 364566, Control_c, 0, 64, 81
1, 364581, Control_c, 0, 64, 98
1, 364596, Control_c, 0, 64, 127
1, 365455, Note_off_c, 0, 31, 52
1, 365462, Note_on_c, 0, 33, 49
1, 365470, Note_on_c, 0, 45, 57
1, 365532, Note_off_c, 0, 33, 57
1, 365534, Note_on_c, 0, 34, 54
1, 365540, Note_on_c, 0, 46, 61
1, 365541, Note_off_c, 0, 45, 59
1, 365577, Note_off_c, 0, 46, 65
1, 365584, Note_on_c, 0, 36, 59
1, 365598, Note_off_c, 0, 34, 59
1, 365606, Note_on_c, 0, 48, 65
1, 365615, Note_off_c, 0, 36, 63
1, 365639, Note_on_c, 0, 38, 60
1, 365664, Note_on_c, 0, 50, 69
1, 365674, Note_off_c, 0, 48, 59
1, 365689, Note_off_c, 0, 38, 58
1, 365698, Note_on_c, 0, 40, 68
1, 365708, Note_on_c, 0, 52, 69
1, 365734, Note_on_c, 0, 42, 77
1, 365737, Note_off_c, 0, 50, 63
1, 365739, Note_off_c, 0, 40, 64
1, 365744, Note_on_c, 0, 54, 73
1, 365755, Note_off_c, 0, 52, 66
1, 365770, Note_off_c, 0, 54, 68
1, 365775, Note_off_c, 0, 42, 65
1, 365783, Note_on_c, 0, 43, 76
1, 365802, Note_on_c, 0, 55, 77
1, 365839, Note_on_c, 0, 45, 77
1, 365845, Note_off_c, 0, 43, 61
1, 365851, Note_on_c, 0, 57, 75
1, 365851, Note_off_c, 0, 55, 64
1, 365876, Note_on_c, 0, 46, 80
1, 365883, Note_on_c, 0, 58, 80
1, 365897, Note_off_c, 0, 57, 63
1, 365905, Note_off_c, 0, 58, 67
1, 365906, Note_off_c, 0, 45, 62
1, 365924, Note_on_c, 0, 48, 60
1, 365938, Note_off_c, 0, 46, 65
1, 365953, Note_on_c, 0, 60, 81
1, 365958, Note_on_c, 0, 50, 83
1, 365964, Note_off_c, 0, 48, 61
1, 366000, Note_on_c, 0, 62, 76
1, 366005, Note_off_c, 0, 50, 59
1, 366010, Note_off_c, 0, 60, 65
1, 366027, Note_on_c, 0, 52, 77
1, 366033, Note_on_c, 0, 64, 80
1, 366045, Note_on_c, 0, 51, 11
1, 366056, Note_on_c, 0, 54, 81
1, 366061, Note_on_c, 0, 66, 79
1, 366061, Note_off_c, 0, 62, 65
1, 366074, Note_off_c, 0, 52, 66
1, 366074, Note_off_c, 0, 64, 63
1, 366084, Note_off_c, 0, 66, 69
1, 366090, Note_off_c, 0, 51, 42
1, 366094, Note_off_c, 0, 54, 63
1, 366098, Note_on_c, 0, 55, 73
1, 366123, Note_on_c, 0, 67, 82
1, 366157, Note_off_c, 0, 55, 60
1, 366158, Note_on_c, 0, 57, 79
1, 366164, Note_off_c, 0, 67, 62
1, 366168, Note_on_c, 0, 69, 79
1, 366190, Note_on_c, 0, 58, 84
1, 366194, Note_on_c, 0, 70, 81
1, 366198, Note_off_c, 0, 69, 65
1, 366214, Note_off_c, 0, 70, 71
1, 366219, Note_off_c, 0, 57, 64
1, 366238, Note_on_c, 0, 60, 59
1, 366242, Note_off_c, 0, 58, 67
1, 366253, Note_on_c, 0, 72, 87
1, 366266, Note_off_c, 0, 60, 66
1, 366267, Note_on_c, 0, 62, 84
1, 366293, Note_on_c, 0, 74, 79
1, 366317, Note_off_c, 0, 72, 63
1, 366319, Note_off_c, 0, 62, 57
1, 366321, Note_on_c, 0, 76, 86
1, 366337, Note_on_c, 0, 64, 83
1, 366349, Note_on_c, 0, 78, 85
1, 366353, Note_off_c, 0, 74, 65
1, 366362, Note_on_c, 0, 66, 84
1, 366390, Note_off_c, 0, 64, 64
1, 366396, Note_on_c, 0, 79, 101
1, 366408, Note_off_c, 0, 76, 44
1, 366413, Note_on_c, 0, 67, 103
1, 366420, Control_c, 0, 64, 75
1, 366435, Note_off_c, 0, 66, 61
1, 366436, Control_c, 0, 64, 30
1, 366439, Note_off_c, 0, 78, 64
1, 366451, Control_c, 0, 64, 0
1, 366569, Control_c, 0, 64, 56
1, 366584, Control_c, 0, 64, 73
1, 366591, Note_off_c, 0, 67, 59
1, 366598, Note_off_c, 0, 79, 60
1, 366599, Control_c, 0, 64, 127
1, 366696, Control_c, 0, 64, 99
1, 366711, Control_c, 0, 64, 82
1, 366725, Control_c, 0, 64, 75
1, 366740, Control_c, 0, 64, 71
1, 366755, Control_c, 0, 64, 66
1, 366769, Control_c, 0, 64, 63
1, 366784, Control_c, 0, 64, 62
1, 366799, Control_c, 0, 64, 61
1, 366814, Control_c, 0, 64, 60
1, 366829, Control_c, 0, 64, 57
1, 366843, Control_c, 0, 64, 54
1, 366858, Control_c, 0, 64, 52
1, 366903, Control_c, 0, 64, 52
1, 366918, Control_c, 0, 64, 51
1, 366918, Control_c, 0, 67, 18
1, 366933, Control_c, 0, 67, 43
1, 366948, Control_c, 0, 67, 75
1, 366962, Control_c, 0, 67, 102
1, 366977, Control_c, 0, 67, 127
1, 366992, Control_c, 0, 67, 127
1, 367051, Control_c, 0, 64, 51
1, 367259, Control_c, 0, 64, 51
1, 367666, Control_c, 0, 64, 52
1, 367710, Control_c, 0, 64, 52
1, 368400, Control_c, 0, 64, 53
1, 368474, Control_c, 0, 64, 53
1, 368504, Control_c, 0, 64, 54
1, 368533, Control_c, 0, 64, 54
1, 368548, Control_c, 0, 64, 55
1, 368563, Control_c, 0, 64, 55
1, 368593, Control_c, 0, 64, 56
1, 368607, Control_c, 0, 64, 57
1, 368622, Control_c, 0, 64, 57
1, 368637, Control_c, 0, 64, 58
1, 368652, Control_c, 0, 64, 59
1, 368667, Control_c, 0, 64, 60
1, 368681, Control_c, 0, 64, 61
1, 368696, Control_c, 0, 64, 62
1, 368711, Control_c, 0, 64, 63
1, 368725, Control_c, 0, 64, 64
1, 368740, Control_c, 0, 64, 65
1, 368755, Control_c, 0, 64, 67
1, 368770, Control_c, 0, 64, 68
1, 368785, Control_c, 0, 64, 70
1, 368799, Control_c, 0, 64, 72
1, 368814, Control_c, 0, 64, 74
1, 368830, Control_c, 0, 64, 77
1, 368845, Control_c, 0, 64, 81
1, 368860, Control_c, 0, 64, 86
1, 368875, Control_c, 0, 64, 92
1, 368890, Control_c, 0, 64, 98
1, 368904, Control_c, 0, 64, 104
1, 368919, Control_c, 0, 64, 127
1, 369121, Note_on_c, 0, 58, 32
1, 369140, Note_on_c, 0, 31, 15
1, 369159, Note_on_c, 0, 43, 7
1, 369167, Note_on_c, 0, 55, 14
1, 369178, Poly_aftertouch_c, 0, 50, 127
1, 369593, Note_off_c, 0, 31, 36
1, 369681, Note_off_c, 0, 55, 34
1, 369699, Note_off_c, 0, 58, 34
1, 369710, Note_off_c, 0, 43, 33
1, 369717, Poly_aftertouch_c, 0, 50, 0
1, 370342, Note_on_c, 0, 58, 28
1, 370363, Note_on_c, 0, 55, 23
1, 370364, Note_on_c, 0, 50, 17
1, 370370, Note_on_c, 0, 31, 19
1, 370371, Note_on_c, 0, 43, 16
1, 370529, Note_off_c, 0, 50, 41
1, 370534, Note_off_c, 0, 58, 42
1, 370537, Note_off_c, 0, 43, 34
1, 370538, Note_off_c, 0, 55, 49
1, 370546, Note_off_c, 0, 31, 38
1, 370701, Note_on_c, 0, 55, 18
1, 370704, Note_on_c, 0, 58, 26
1, 370730, Note_on_c, 0, 50, 22
1, 370747, Poly_aftertouch_c, 0, 31, 127
1, 370753, Note_on_c, 0, 31, 3
1, 370763, Poly_aftertouch_c, 0, 43, 127
1, 372249, Note_off_c, 0, 31, 36
1, 372469, Control_c, 0, 67, 124
1, 372484, Control_c, 0, 67, 97
1, 372492, Note_off_c, 0, 55, 43
1, 372499, Control_c, 0, 67, 60
1, 372514, Control_c, 0, 67, 19
1, 372528, Control_c, 0, 67, 0
1, 372599, Poly_aftertouch_c, 0, 43, 0
1, 372610, Note_off_c, 0, 50, 38
1, 372683, Note_off_c, 0, 58, 49
1, 372684, Control_c, 0, 64, 115
1, 372699, Control_c, 0, 64, 84
1, 372714, Control_c, 0, 64, 67
1, 372728, Control_c, 0, 64, 55
1, 372743, Control_c, 0, 64, 24
1, 372758, Control_c, 0, 64, 0
1, 372934, Note_on_c, 0, 50, 98
1, 372935, Note_on_c, 0, 38, 78
1, 372937, Control_c, 0, 64, 54
1, 372951, Control_c, 0, 64, 70
1, 372966, Control_c, 0, 64, 97
1, 372981, Control_c, 0, 64, 127
1, 373125, Note_off_c, 0, 50, 58
1, 373127, Note_off_c, 0, 38, 58
1, 373153, Note_on_c, 0, 43, 84
1, 373154, Note_on_c, 0, 55, 96
1, 373268, Note_on_c, 0, 45, 86
1, 373268, Note_on_c, 0, 57, 95
1, 373277, Note_off_c, 0, 43, 61
1, 373281, Note_off_c, 0, 55, 62
1, 373345, Note_off_c, 0, 45, 63
1, 373348, Note_on_c, 0, 48, 83
1, 373353, Note_on_c, 0, 60, 91
1, 373357, Note_off_c, 0, 57, 66
1, 373437, Note_on_c, 0, 46, 89
1, 373441, Note_off_c, 0, 48, 62
1, 373447, Note_on_c, 0, 58, 100
1, 373460, Note_off_c, 0, 60, 64
1, 373473, Note_off_c, 0, 46, 61
1, 373483, Note_off_c, 0, 58, 67
1, 373521, Control_c, 0, 64, 72
1, 373522, Note_on_c, 0, 46, 98
1, 373535, Note_on_c, 0, 58, 101
1, 373536, Control_c, 0, 64, 0
1, 373595, Note_off_c, 0, 46, 63
1, 373595, Control_c, 0, 64, 49
1, 373610, Control_c, 0, 64, 74
1, 373626, Control_c, 0, 64, 127
1, 373637, Note_off_c, 0, 58, 60
1, 373848, Control_c, 0, 64, 101
1, 373863, Control_c, 0, 64, 80
1, 373878, Control_c, 0, 64, 65
1, 373893, Control_c, 0, 64, 54
1, 373908, Control_c, 0, 64, 52
1, 373923, Control_c, 0, 64, 49
1, 373938, Control_c, 0, 64, 39
1, 373953, Control_c, 0, 64, 0
1, 374081, Note_on_c, 0, 46, 101
1, 374101, Note_on_c, 0, 31, 94
1, 374449, Control_c, 0, 64, 19
1, 374464, Control_c, 0, 64, 28
1, 374479, Control_c, 0, 64, 36
1, 374494, Control_c, 0, 64, 44
1, 374509, Control_c, 0, 64, 51
1, 374523, Control_c, 0, 64, 55
1, 374538, Control_c, 0, 64, 58
1, 374553, Control_c, 0, 64, 59
1, 374567, Control_c, 0, 64, 61
1, 374582, Control_c, 0, 64, 64
1, 374597, Control_c, 0, 64, 69
1, 374612, Control_c, 0, 64, 77
1, 374627, Control_c, 0, 64, 92
1, 374641, Control_c, 0, 64, 127
1, 375026, Note_off_c, 0, 46, 58
1, 375050, Note_off_c, 0, 31, 50
1, 375080, Note_on_c, 0, 48, 43
1, 375086, Note_on_c, 0, 33, 36
1, 375143, Note_off_c, 0, 33, 49
1, 375151, Note_on_c, 0, 34, 44
1, 375172, Note_off_c, 0, 48, 57
1, 375181, Note_on_c, 0, 50, 52
1, 375217, Note_on_c, 0, 36, 45
1, 375229, Note_off_c, 0, 34, 51
1, 375252, Note_off_c, 0, 36, 60
1, 375253, Note_on_c, 0, 52, 57
1, 375256, Note_off_c, 0, 50, 56
1, 375283, Note_on_c, 0, 38, 46
1, 375309, Note_off_c, 0, 52, 61
1, 375318, Note_on_c, 0, 54, 62
1, 375333, Note_off_c, 0, 38, 46
1, 375348, Note_off_c, 0, 54, 66
1, 375362, Note_on_c, 0, 40, 41
1, 375371, Note_on_c, 0, 55, 68
1, 375396, Note_on_c, 0, 42, 66
1, 375400, Note_off_c, 0, 40, 52
1, 375415, Note_off_c, 0, 55, 63
1, 375426, Note_off_c, 0, 42, 65
1, 375428, Note_on_c, 0, 57, 69
1, 375450, Note_on_c, 0, 43, 59
1, 375466, Note_on_c, 0, 58, 72
1, 375467, Note_off_c, 0, 57, 63
1, 375495, Note_off_c, 0, 58, 66
1, 375500, Note_off_c, 0, 43, 51
1, 375510, Note_on_c, 0, 45, 64
1, 375521, Note_on_c, 0, 60, 71
1, 375551, Note_off_c, 0, 45, 62
1, 375552, Note_on_c, 0, 46, 70
1, 375573, Note_on_c, 0, 62, 76
1, 375578, Note_off_c, 0, 60, 65
1, 375598, Note_on_c, 0, 48, 53
1, 375602, Note_off_c, 0, 46, 61
1, 375616, Note_on_c, 0, 64, 77
1, 375628, Note_off_c, 0, 48, 54
1, 375634, Note_on_c, 0, 50, 70
1, 375642, Note_off_c, 0, 62, 61
1, 375659, Note_on_c, 0, 66, 79
1, 375678, Note_off_c, 0, 64, 64
1, 375685, Note_off_c, 0, 50, 60
1, 375690, Note_off_c, 0, 66, 69
1, 375700, Note_on_c, 0, 52, 72
1, 375723, Note_on_c, 0, 67, 78
1, 375738, Note_off_c, 0, 52, 65
1, 375740, Note_on_c, 0, 54, 79
1, 375767, Note_off_c, 0, 67, 64
1, 375768, Note_on_c, 0, 69, 80
1, 375769, Note_off_c, 0, 54, 69
1, 375788, Note_on_c, 0, 55, 73
1, 375806, Note_on_c, 0, 70, 77
1, 375811, Note_off_c, 0, 69, 65
1, 375827, Note_off_c, 0, 70, 71
1, 375840, Note_on_c, 0, 57, 71
1, 375843, Note_off_c, 0, 55, 63
1, 375855, Note_on_c, 0, 72, 84
1, 375872, Note_on_c, 0, 58, 80
1, 375889, Note_off_c, 0, 57, 55
1, 375902, Note_on_c, 0, 74, 85
1, 375911, Note_on_c, 0, 60, 64
1, 375917, Note_off_c, 0, 72, 64
1, 375922, Note_off_c, 0, 58, 65
1, 375940, Note_off_c, 0, 60, 65
1, 375943, Note_on_c, 0, 76, 85
1, 375953, Note_on_c, 0, 62, 77
1, 375968, Note_off_c, 0, 74, 65
1, 375979, Note_on_c, 0, 78, 82
1, 375991, Note_off_c, 0, 76, 66
1, 375998, Note_off_c, 0, 62, 57
1, 375999, Note_off_c, 0, 78, 71
1, 376010, Note_on_c, 0, 64, 71
1, 376028, Note_on_c, 0, 79, 82
1, 376044, Note_on_c, 0, 66, 80
1, 376062, Note_off_c, 0, 64, 63
1, 376078, Note_on_c, 0, 81, 83
1, 376079, Note_off_c, 0, 79, 66
1, 376091, Note_off_c, 0, 66, 63
1, 376098, Note_on_c, 0, 67, 72
1, 376116, Note_on_c, 0, 82, 85
1, 376126, Note_off_c, 0, 81, 67
1, 376135, Note_off_c, 0, 82, 73
1, 376150, Note_on_c, 0, 69, 79
1, 376151, Note_off_c, 0, 67, 61
1, 376172, Note_on_c, 0, 84, 90
1, 376185, Note_on_c, 0, 70, 79
1, 376212, Note_on_c, 0, 86, 89
1, 376213, Note_off_c, 0, 69, 62
1, 376230, Note_on_c, 0, 72, 74
1, 376235, Note_off_c, 0, 70, 66
1, 376237, Note_off_c, 0, 84, 63
1, 376253, Note_on_c, 0, 88, 86
1, 376258, Note_off_c, 0, 72, 67
1, 376275, Note_on_c, 0, 74, 74
1, 376280, Note_off_c, 0, 86, 65
1, 376289, Note_on_c, 0, 90, 77
1, 376294, Note_off_c, 0, 88, 67
1, 376311, Note_off_c, 0, 90, 65
1, 376333, Note_on_c, 0, 91, 90
1, 376337, Note_on_c, 0, 76, 82
1, 376338, Note_off_c, 0, 74, 59
1, 376379, Note_on_c, 0, 93, 89
1, 376384, Note_on_c, 0, 78, 91
1, 376394, Note_off_c, 0, 76, 64
1, 376411, Note_off_c, 0, 91, 45
1, 376421, Note_on_c, 0, 94, 106
1, 376445, Note_on_c, 0, 79, 94
1, 376447, Note_off_c, 0, 93, 66
1, 376477, Note_off_c, 0, 78, 61
1, 376488, Control_c, 0, 64, 82
1, 376502, Control_c, 0, 64, 61
1, 376517, Control_c, 0, 64, 0
1, 376636, Control_c, 0, 64, 21
1, 376651, Control_c, 0, 64, 41
1, 376665, Control_c, 0, 64, 53
1, 376671, Note_off_c, 0, 94, 62
1, 376674, Note_off_c, 0, 79, 59
1, 376680, Control_c, 0, 64, 61
1, 376695, Control_c, 0, 64, 69
1, 376710, Control_c, 0, 64, 83
1, 376725, Control_c, 0, 64, 101
1, 376739, Control_c, 0, 64, 103
1, 376754, Control_c, 0, 64, 103
1, 376769, Control_c, 0, 64, 104
1, 376784, Control_c, 0, 64, 103
1, 376799, Control_c, 0, 64, 99
1, 376814, Control_c, 0, 64, 94
1, 376829, Control_c, 0, 64, 90
1, 376844, Control_c, 0, 64, 87
1, 376859, Control_c, 0, 64, 83
1, 376874, Control_c, 0, 64, 78
1, 376889, Control_c, 0, 64, 75
1, 376904, Control_c, 0, 64, 74
1, 376933, Control_c, 0, 64, 73
1, 376948, Control_c, 0, 64, 71
1, 376963, Control_c, 0, 64, 70
1, 376977, Control_c, 0, 64, 69
1, 376992, Control_c, 0, 64, 69
1, 377007, Control_c, 0, 64, 68
1, 377022, Control_c, 0, 64, 67
1, 377036, Control_c, 0, 64, 67
1, 377051, Control_c, 0, 64, 66
1, 377066, Control_c, 0, 64, 65
1, 377081, Control_c, 0, 64, 64
1, 377111, Control_c, 0, 64, 64
1, 377140, Control_c, 0, 64, 63
1, 377155, Control_c, 0, 64, 62
1, 377177, Control_c, 0, 64, 61
1, 377192, Control_c, 0, 64, 60
1, 377237, Control_c, 0, 64, 60
1, 377251, Control_c, 0, 64, 58
1, 377266, Control_c, 0, 64, 57
1, 377281, Control_c, 0, 64, 56
1, 377281, Control_c, 0, 67, 19
1, 377296, Control_c, 0, 67, 35
1, 377311, Control_c, 0, 67, 55
1, 377325, Control_c, 0, 67, 75
1, 377340, Control_c, 0, 64, 56
1, 377340, Control_c, 0, 67, 95
1, 377355, Control_c, 0, 64, 55
1, 377355, Control_c, 0, 67, 114
1, 377369, Control_c, 0, 67, 127
1, 377415, Control_c, 0, 64, 54
1, 377444, Control_c, 0, 64, 54
1, 377607, Control_c, 0, 64, 54
1, 377682, Control_c, 0, 64, 55
1, 377727, Control_c, 0, 64, 55
1, 377801, Control_c, 0, 64, 56
1, 377875, Control_c, 0, 64, 56
1, 377971, Control_c, 0, 64, 57
1, 378764, Control_c, 0, 64, 57
1, 378794, Control_c, 0, 64, 58
1, 378838, Control_c, 0, 64, 58
1, 378853, Control_c, 0, 64, 59
1, 378883, Control_c, 0, 64, 59
1, 378912, Control_c, 0, 64, 60
1, 378927, Control_c, 0, 64, 60
1, 378942, Control_c, 0, 64, 61
1, 378957, Control_c, 0, 64, 61
1, 378971, Control_c, 0, 64, 62
1, 378986, Control_c, 0, 64, 62
1, 379001, Control_c, 0, 64, 64
1, 379015, Control_c, 0, 64, 66
1, 379030, Control_c, 0, 64, 67
1, 379045, Control_c, 0, 64, 68
1, 379060, Control_c, 0, 64, 69
1, 379075, Control_c, 0, 64, 71
1, 379089, Control_c, 0, 64, 73
1, 379104, Control_c, 0, 64, 75
1, 379119, Control_c, 0, 64, 76
1, 379134, Control_c, 0, 64, 78
1, 379149, Control_c, 0, 64, 80
1, 379163, Control_c, 0, 64, 83
1, 379178, Control_c, 0, 64, 87
1, 379193, Control_c, 0, 64, 92
1, 379209, Control_c, 0, 64, 101
1, 379224, Control_c, 0, 64, 119
1, 379238, Control_c, 0, 64, 127
1, 379659, Note_on_c, 0, 62, 33
1, 379677, Note_on_c, 0, 50, 16
1, 379679, Note_on_c, 0, 58, 31
1, 379682, Note_on_c, 0, 55, 31
1, 379685, Note_on_c, 0, 31, 22
1, 379689, Note_on_c, 0, 43, 13
1, 380302, Note_off_c, 0, 31, 35
1, 380341, Note_off_c, 0, 55, 34
1, 380377, Note_off_c, 0, 58, 31
1, 380380, Note_off_c, 0, 43, 28
1, 380389, Note_off_c, 0, 62, 29
1, 380396, Note_off_c, 0, 50, 33
1, 381065, Note_on_c, 0, 43, 15
1, 381065, Note_on_c, 0, 62, 24
1, 381086, Note_on_c, 0, 31, 21
1, 381090, Note_on_c, 0, 50, 17
1, 381093, Note_on_c, 0, 58, 24
1, 381114, Note_on_c, 0, 55, 20
1, 381239, Note_off_c, 0, 43, 40
1, 381247, Note_off_c, 0, 31, 34
1, 381251, Note_off_c, 0, 50, 40
1, 381259, Note_off_c, 0, 62, 40
1, 381271, Note_off_c, 0, 58, 41
1, 381274, Note_off_c, 0, 55, 35
1, 381441, Note_on_c, 0, 55, 18
1, 381447, Note_on_c, 0, 58, 18
1, 381449, Note_on_c, 0, 62, 24
1, 381450, Note_on_c, 0, 31, 15
1, 381471, Note_on_c, 0, 50, 22
1, 381481, Note_on_c, 0, 43, 3
1, 382049, Note_off_c, 0, 50, 36
1, 382854, Note_off_c, 0, 31, 37
1, 382859, Note_off_c, 0, 55, 31
1, 383021, Note_off_c, 0, 43, 29
1, 383059, Note_off_c, 0, 58, 31
1, 383232, Note_off_c, 0, 62, 39
1, 383316, Control_c, 0, 67, 124
1, 383331, Control_c, 0, 67, 119
1, 383346, Control_c, 0, 67, 114
1, 383360, Control_c, 0, 67, 110
1, 383375, Control_c, 0, 67, 106
1, 383390, Control_c, 0, 67, 102
1, 383405, Control_c, 0, 67, 96
1, 383420, Control_c, 0, 67, 89
1, 383434, Control_c, 0, 67, 82
1, 383449, Control_c, 0, 67, 75
1, 383464, Control_c, 0, 67, 70
1, 383479, Control_c, 0, 64, 118
1, 383479, Control_c, 0, 67, 61
1, 383493, Control_c, 0, 64, 110
1, 383493, Control_c, 0, 67, 53
1, 383508, Control_c, 0, 64, 102
1, 383508, Control_c, 0, 67, 44
1, 383523, Control_c, 0, 64, 92
1, 383523, Control_c, 0, 67, 35
1, 383538, Control_c, 0, 64, 83
1, 383538, Control_c, 0, 67, 28
1, 383553, Control_c, 0, 64, 77
1, 383553, Control_c, 0, 67, 19
1, 383567, Control_c, 0, 64, 74
1, 383567, Control_c, 0, 67, 11
1, 383582, Control_c, 0, 64, 73
1, 383582, Control_c, 0, 67, 0
1, 383597, Control_c, 0, 64, 71
1, 383611, Control_c, 0, 64, 68
1, 383626, Control_c, 0, 64, 65
1, 383641, Control_c, 0, 64, 64
1, 383671, Control_c, 0, 64, 63
1, 383685, Control_c, 0, 64, 61
1, 383700, Control_c, 0, 64, 55
1, 383715, Control_c, 0, 64, 50
1, 383730, Control_c, 0, 64, 47
1, 383745, Control_c, 0, 64, 42
1, 383760, Control_c, 0, 64, 33
1, 383775, Control_c, 0, 64, 16
1, 383790, Control_c, 0, 64, 0
1, 383864, Control_c, 0, 64, 25
1, 383869, Note_on_c, 0, 62, 89
1, 383872, Note_on_c, 0, 50, 72
1, 383878, Control_c, 0, 64, 47
1, 383893, Control_c, 0, 64, 60
1, 383915, Control_c, 0, 64, 70
1, 383930, Control_c, 0, 64, 106
1, 383945, Control_c, 0, 64, 127
1, 384090, Note_off_c, 0, 50, 55
1, 384119, Note_off_c, 0, 62, 61
1, 384140, Note_on_c, 0, 67, 95
1, 384144, Note_on_c, 0, 55, 77
1, 384281, Note_on_c, 0, 70, 91
1, 384282, Note_on_c, 0, 58, 85
1, 384291, Note_off_c, 0, 55, 61
1, 384305, Note_off_c, 0, 67, 60
1, 384357, Note_off_c, 0, 70, 66
1, 384380, Note_off_c, 0, 58, 62
1, 384398, Note_on_c, 0, 75, 92
1, 384401, Note_on_c, 0, 63, 89
1, 384443, Note_off_c, 0, 75, 63
1, 384446, Note_off_c, 0, 63, 64
1, 384493, Note_on_c, 0, 74, 96
1, 384500, Note_on_c, 0, 62, 92
1, 384531, Note_off_c, 0, 74, 66
1, 384537, Note_off_c, 0, 62, 60
1, 384580, Note_on_c, 0, 62, 96
1, 384583, Note_on_c, 0, 74, 103
1, 384597, Control_c, 0, 64, 74
1, 384612, Control_c, 0, 64, 40
1, 384626, Control_c, 0, 64, 0
1, 384663, Control_c, 0, 64, 23
1, 384675, Note_off_c, 0, 62, 60
1, 384678, Control_c, 0, 64, 64
1, 384693, Control_c, 0, 64, 95
1, 384708, Control_c, 0, 64, 127
1, 384711, Note_off_c, 0, 74, 61
1, 384991, Control_c, 0, 64, 107
1, 385006, Control_c, 0, 64, 85
1, 385021, Control_c, 0, 64, 73
1, 385036, Control_c, 0, 64, 67
1, 385051, Control_c, 0, 64, 66
1, 385065, Control_c, 0, 64, 65
1, 385080, Control_c, 0, 64, 62
1, 385095, Control_c, 0, 64, 56
1, 385110, Control_c, 0, 64, 48
1, 385125, Control_c, 0, 64, 39
1, 385139, Control_c, 0, 64, 26
1, 385154, Control_c, 0, 64, 0
1, 385200, Note_on_c, 0, 34, 81
1, 385202, Note_on_c, 0, 100, 110
1, 385260, Note_on_c, 0, 46, 103
1, 385267, Note_on_c, 0, 88, 104
1, 385287, Control_c, 0, 64, 16
1, 385302, Control_c, 0, 64, 40
1, 385306, Note_on_c, 0, 98, 20
1, 385317, Control_c, 0, 64, 51
1, 385331, Control_c, 0, 64, 57
1, 385346, Control_c, 0, 64, 62
1, 385361, Control_c, 0, 64, 66
1, 385363, Poly_aftertouch_c, 0, 41, 0
1, 385376, Control_c, 0, 64, 80
1, 385391, Control_c, 0, 64, 127
1, 385435, Note_off_c, 0, 98, 24
1, 385586, Note_off_c, 0, 100, 52
1, 385589, Note_off_c, 0, 34, 52
1, 385593, Note_off_c, 0, 46, 57
1, 385654, Note_off_c, 0, 88, 55
1, 385736, Poly_aftertouch_c, 0, 93, 127
1, 385765, Poly_aftertouch_c, 0, 93, 0
1, 385981, Note_on_c, 0, 35, 76
1, 385984, Note_on_c, 0, 99, 100
1, 386033, Note_on_c, 0, 47, 107
1, 386040, Note_on_c, 0, 87, 109
1, 386051, Control_c, 0, 64, 90
1, 386066, Control_c, 0, 64, 64
1, 386080, Control_c, 0, 64, 0
1, 386125, Control_c, 0, 64, 25
1, 386140, Control_c, 0, 64, 55
1, 386162, Control_c, 0, 64, 68
1, 386177, Control_c, 0, 64, 96
1, 386192, Control_c, 0, 64, 127
1, 386226, Note_off_c, 0, 35, 54
1, 386244, Note_on_c, 0, 94, 48
1, 386258, Note_off_c, 0, 99, 63
1, 386287, Note_off_c, 0, 47, 58
1, 386291, Note_off_c, 0, 87, 58
1, 386344, Note_off_c, 0, 94, 59
1, 386520, Note_on_c, 0, 36, 79
1, 386530, Note_on_c, 0, 98, 100
1, 386572, Note_on_c, 0, 48, 103
1, 386575, Note_on_c, 0, 86, 98
1, 386577, Control_c, 0, 64, 80
1, 386592, Control_c, 0, 64, 65
1, 386607, Control_c, 0, 64, 53
1, 386622, Control_c, 0, 64, 56
1, 386637, Control_c, 0, 64, 64
1, 386651, Control_c, 0, 64, 69
1, 386666, Control_c, 0, 64, 80
1, 386681, Control_c, 0, 64, 127
1, 386702, Note_off_c, 0, 36, 56
1, 386737, Note_off_c, 0, 98, 60
1, 386739, Note_on_c, 0, 93, 42
1, 386740, Note_off_c, 0, 48, 58
1, 386751, Note_on_c, 0, 43, 24
1, 386753, Note_off_c, 0, 86, 59
1, 386757, Note_on_c, 0, 40, 22
1, 386803, Note_off_c, 0, 43, 58
1, 386817, Note_off_c, 0, 40, 45
1, 386832, Note_off_c, 0, 93, 48
1, 386917, Note_on_c, 0, 37, 82
1, 386929, Note_on_c, 0, 97, 97
1, 386941, Control_c, 0, 64, 116
1, 386956, Control_c, 0, 64, 84
1, 386962, Note_on_c, 0, 85, 99
1, 386964, Note_on_c, 0, 49, 100
1, 386970, Control_c, 0, 64, 79
1, 386985, Control_c, 0, 64, 92
1, 386995, Note_on_c, 0, 43, 32
1, 387000, Control_c, 0, 64, 127
1, 387011, Note_on_c, 0, 87, 26
1, 387067, Note_off_c, 0, 37, 56
1, 387080, Note_off_c, 0, 87, 38
1, 387102, Note_off_c, 0, 85, 64
1, 387104, Note_off_c, 0, 97, 61
1, 387129, Note_off_c, 0, 49, 53
1, 387209, Note_on_c, 0, 38, 86
1, 387216, Note_on_c, 0, 96, 101
1, 387249, Note_on_c, 0, 50, 100
1, 387249, Note_off_c, 0, 43, 12
1, 387252, Note_on_c, 0, 84, 108
1, 387293, Note_off_c, 0, 38, 61
1, 387304, Note_off_c, 0, 96, 65
1, 387331, Note_off_c, 0, 84, 63
1, 387365, Note_off_c, 0, 50, 61
1, 387414, Note_on_c, 0, 39, 84
1, 387426, Note_on_c, 0, 95, 101
1, 387447, Note_on_c, 0, 83, 109
1, 387461, Note_on_c, 0, 51, 106
1, 387499, Note_on_c, 0, 49, 36
1, 387508, Note_off_c, 0, 95, 64
1, 387514, Note_off_c, 0, 83, 61
1, 387525, Note_off_c, 0, 49, 56
1, 387534, Note_off_c, 0, 39, 59
1, 387547, Note_off_c, 0, 51, 64
1, 387593, Control_c, 0, 64, 68
1, 387601, Note_on_c, 0, 52, 97
1, 387606, Note_on_c, 0, 94, 104
1, 387607, Note_on_c, 0, 82, 101
1, 387608, Control_c, 0, 64, 0
1, 387611, Note_on_c, 0, 40, 84
1, 387623, Note_on_c, 0, 92, 80
1, 387638, Control_c, 0, 64, 59
1, 387638, Note_on_c, 0, 81, 55
1, 387659, Control_c, 0, 64, 80
1, 387661, Note_off_c, 0, 94, 65
1, 387666, Note_off_c, 0, 81, 39
1, 387674, Control_c, 0, 64, 127
1, 387677, Note_off_c, 0, 82, 63
1, 387678, Note_off_c, 0, 92, 42
1, 387686, Note_off_c, 0, 40, 63
1, 387695, Note_off_c, 0, 52, 64
1, 387784, Note_on_c, 0, 53, 98
1, 387787, Note_on_c, 0, 81, 96
1, 387788, Note_on_c, 0, 93, 103
1, 387789, Note_on_c, 0, 41, 90
1, 387817, Note_off_c, 0, 81, 69
1, 387822, Note_off_c, 0, 53, 64
1, 387824, Note_off_c, 0, 93, 67
1, 387825, Note_off_c, 0, 41, 63
1, 387929, Note_on_c, 0, 54, 99
1, 387933, Note_on_c, 0, 80, 103
1, 387933, Note_on_c, 0, 92, 110
1, 387936, Note_on_c, 0, 42, 90
1, 387969, Note_off_c, 0, 80, 67
1, 387977, Note_off_c, 0, 92, 67
1, 387985, Note_off_c, 0, 54, 62
1, 387993, Note_off_c, 0, 42, 61
1, 388090, Control_c, 0, 64, 72
1, 388092, Note_on_c, 0, 55, 104
1, 388098, Note_on_c, 0, 43, 89
1, 388101, Note_on_c, 0, 79, 104
1, 388102, Note_on_c, 0, 91, 106
1, 388105, Control_c, 0, 64, 0
1, 388149, Control_c, 0, 64, 23
1, 388164, Control_c, 0, 64, 73
1, 388179, Control_c, 0, 64, 127
1, 388188, Note_off_c, 0, 55, 61
1, 388188, Note_off_c, 0, 79, 63
1, 388194, Note_off_c, 0, 91, 63
1, 388204, Note_off_c, 0, 43, 63
1, 388288, Note_on_c, 0, 78, 97
1, 388288, Note_on_c, 0, 90, 91
1, 388290, Note_on_c, 0, 54, 92
1, 388293, Note_on_c, 0, 42, 87
1, 388321, Note_off_c, 0, 54, 63
1, 388324, Note_off_c, 0, 42, 67
1, 388327, Note_off_c, 0, 78, 66
1, 388330, Note_off_c, 0, 90, 65
1, 388415, Note_on_c, 0, 53, 91
1, 388419, Note_on_c, 0, 77, 99
1, 388420, Note_on_c, 0, 41, 81
1, 388421, Note_on_c, 0, 89, 95
1, 388437, Note_off_c, 0, 53, 70
1, 388444, Note_off_c, 0, 77, 62
1, 388449, Note_off_c, 0, 89, 61
1, 388452, Note_off_c, 0, 41, 67
1, 388521, Note_on_c, 0, 52, 76
1, 388521, Note_on_c, 0, 88, 95
1, 388523, Note_on_c, 0, 76, 88
1, 388526, Note_on_c, 0, 40, 77
1, 388545, Note_off_c, 0, 52, 68
1, 388549, Note_off_c, 0, 40, 67
1, 388550, Note_off_c, 0, 76, 65
1, 388556, Note_off_c, 0, 88, 64
1, 388612, Note_on_c, 0, 75, 99
1, 388612, Note_on_c, 0, 87, 96
1, 388616, Note_on_c, 0, 51, 91
1, 388620, Note_on_c, 0, 39, 81
1, 388637, Note_off_c, 0, 51, 71
1, 388649, Note_off_c, 0, 75, 62
1, 388649, Note_off_c, 0, 87, 64
1, 388651, Note_off_c, 0, 39, 65
1, 388693, Note_on_c, 0, 50, 85
1, 388699, Note_on_c, 0, 38, 81
1, 388703, Note_on_c, 0, 74, 92
1, 388705, Note_on_c, 0, 86, 91
1, 388719, Note_off_c, 0, 50, 67
1, 388723, Note_off_c, 0, 74, 69
1, 388723, Note_off_c, 0, 38, 64
1, 388723, Note_off_c, 0, 86, 69
1, 388777, Note_on_c, 0, 49, 80
1, 388778, Note_on_c, 0, 73, 104
1, 388779, Note_on_c, 0, 85, 96
1, 388780, Note_on_c, 0, 37, 81
1, 388802, Note_off_c, 0, 49, 68
1, 388810, Note_off_c, 0, 37, 65
1, 388812, Note_off_c, 0, 73, 65
1, 388818, Note_off_c, 0, 85, 64
1, 388858, Note_on_c, 0, 48, 77
1, 388861, Note_on_c, 0, 36, 76
1, 388866, Note_on_c, 0, 72, 104
1, 388868, Note_on_c, 0, 84, 96
1, 388883, Note_off_c, 0, 72, 73
1, 388884, Note_off_c, 0, 48, 68
1, 388884, Note_off_c, 0, 84, 74
1, 388891, Note_off_c, 0, 36, 65
1, 388936, Note_on_c, 0, 47, 91
1, 388938, Note_on_c, 0, 35, 85
1, 388947, Note_on_c, 0, 83, 98
1, 388950, Note_on_c, 0, 71, 101
1, 388956, Note_off_c, 0, 47, 69
1, 388962, Note_off_c, 0, 35, 65
1, 388971, Note_off_c, 0, 71, 64
1, 388980, Note_off_c, 0, 83, 60
1, 389022, Note_on_c, 0, 46, 91
1, 389023, Note_on_c, 0, 34, 92
1, 389025, Note_on_c, 0, 70, 101
1, 389027, Note_on_c, 0, 82, 96
1, 389047, Note_off_c, 0, 46, 69
1, 389051, Note_off_c, 0, 34, 67
1, 389054, Note_off_c, 0, 70, 69
1, 389062, Note_off_c, 0, 82, 66
1, 389115, Note_on_c, 0, 45, 91
1, 389117, Note_on_c, 0, 69, 105
1, 389118, Note_on_c, 0, 81, 98
1, 389121, Note_on_c, 0, 33, 83
1, 389138, Note_off_c, 0, 45, 70
1, 389150, Note_on_c, 0, 43, 52
1, 389151, Note_off_c, 0, 43, 127
1, 389152, Note_off_c, 0, 69, 69
1, 389155, Note_off_c, 0, 33, 65
1, 389160, Note_off_c, 0, 81, 62
1, 389179, Poly_aftertouch_c, 0, 43, 0
1, 389227, Note_on_c, 0, 44, 102
1, 389227, Note_on_c, 0, 68, 106
1, 389229, Note_on_c, 0, 32, 93
1, 389229, Note_on_c, 0, 80, 99
1, 389260, Note_off_c, 0, 68, 69
1, 389276, Note_off_c, 0, 44, 61
1, 389277, Note_off_c, 0, 32, 59
1, 389280, Note_off_c, 0, 80, 60
1, 389432, Note_on_c, 0, 79, 101
1, 389433, Note_on_c, 0, 43, 103
1, 389434, Note_on_c, 0, 67, 112
1, 389438, Note_on_c, 0, 31, 95
1, 389468, Control_c, 0, 64, 76
1, 389480, Note_on_c, 0, 34, 30
1, 389483, Control_c, 0, 64, 46
1, 389498, Control_c, 0, 64, 0
1, 389519, Note_off_c, 0, 34, 48
1, 389647, Control_c, 0, 64, 53
1, 389662, Control_c, 0, 64, 100
1, 389677, Control_c, 0, 64, 127
1, 389683, Note_off_c, 0, 31, 60
1, 389731, Note_off_c, 0, 43, 62
1, 389770, Note_off_c, 0, 67, 60
1, 389875, Note_off_c, 0, 79, 61
1, 390321, Note_on_c, 0, 86, 61
1, 390326, Note_on_c, 0, 67, 112
1, 390326, Note_on_c, 0, 82, 105
1, 390327, Note_on_c, 0, 62, 95
1, 390328, Note_on_c, 0, 55, 92
1, 390328, Note_on_c, 0, 94, 103
1, 390330, Note_on_c, 0, 91, 82
1, 390500, Note_off_c, 0, 91, 61
1, 390502, Note_off_c, 0, 82, 65
1, 390506, Note_off_c, 0, 94, 63
1, 390524, Note_off_c, 0, 86, 62
1, 390567, Note_off_c, 0, 67, 54
1, 390611, Note_off_c, 0, 62, 52
1, 390688, Note_off_c, 0, 55, 54
1, 391713, Note_on_c, 0, 55, 106
1, 391723, Note_on_c, 0, 43, 100
1, 391727, Note_on_c, 0, 31, 91
1, 394548, Note_off_c, 0, 55, 60
1, 394567, Note_off_c, 0, 31, 58
1, 394568, Note_off_c, 0, 43, 64
1, 394577, Control_c, 0, 64, 105
1, 394591, Control_c, 0, 64, 75
1, 394606, Control_c, 0, 64, 62
1, 394621, Control_c, 0, 64, 46
1, 394635, Control_c, 0, 64, 42
1, 394650, Control_c, 0, 64, 41
1, 394664, Control_c, 0, 64, 33
1, 394679, Control_c, 0, 64, 0
1, 395005, Control_c, 0, 64, 11
1, 395020, Control_c, 0, 64, 17
1, 395035, Control_c, 0, 64, 19
1, 395050, Control_c, 0, 64, 21
1, 395064, Control_c, 0, 64, 23
1, 395079, Control_c, 0, 64, 23
1, 395094, Control_c, 0, 64, 24
1, 395108, Control_c, 0, 64, 25
1, 395123, Control_c, 0, 64, 25
1, 395146, Control_c, 0, 64, 26
1, 395161, Control_c, 0, 64, 26
1, 395295, Control_c, 0, 64, 26
1, 395310, Control_c, 0, 64, 25
1, 395325, Control_c, 0, 64, 23
1, 395339, Control_c, 0, 64, 22
1, 395384, Control_c, 0, 64, 21
1, 395399, Control_c, 0, 64, 21
1, 395413, Control_c, 0, 64, 17
1, 395428, Control_c, 0, 64, 0
1, 395503, End_track
0, 0, End_of_file
