0, 0, Header, 0, 1, 384
1, 0, Start_track
1, 0, Title_t, "ProkofievSonataNo3Op28--Kim     "
1, 0, Text_t, "2011 ePiano Junior Competition"
1, 0, Text_t, "captured in spring and summer 2011"
1, 0, Text_t, "http://www.piano-e-competition.com/"
1, 0, Text_t, "standard-resolution version"
1, 0, Text_t, "File processed for distribution with software designed and coded by Dr. John Q. Walker, founder of Zenph Sound Innovations"
1, 0, Instrument_name_t, "Yamaha Disklavier Pro Mark IV concert grand piano, model DCFIIISM4PRO"
1, 0, Sequencer_specific, 39, 67, 113, 0, 1, 0, 1, 0, 80, 114, 111, 107, 111, 102, 105, 101, 118, 78, 111, 51, 79, 112, 50, 56, 83, 117, 89, 101, 111, 110, 32, 75, 105, 109, 32, 32, 32, 32, 32, 32
1, 0, Sequencer_specific, 6, 67, 113, 0, 0, 0, 69
1, 0, System_exclusive, 21, 67, 113, 126, 21, 0, 2, 2, 2, 5, 12, 8, 4, 14, 1, 3, 9, 0, 14, 7, 5, 247
1, 0, Sequencer_specific, 5, 67, 123, 12, 2, 1
1, 0, Tempo, 512820
1, 0, Time_signature, 4, 2, 24, 8
1, 0, System_exclusive, 5, 126, 127, 9, 1, 247
1, 1, System_exclusive, 8, 67, 16, 76, 0, 0, 126, 0, 247
1, 2, System_exclusive, 8, 67, 16, 76, 8, 9, 7, 1, 247
1, 3, Control_c, 0, 0, 108
1, 3, Control_c, 1, 0, 108
1, 3, Control_c, 2, 0, 0
1, 3, Control_c, 3, 0, 0
1, 3, Control_c, 4, 0, 0
1, 3, Control_c, 5, 0, 0
1, 3, Control_c, 6, 0, 0
1, 3, Control_c, 7, 0, 0
1, 3, Control_c, 8, 0, 0
1, 3, Control_c, 9, 0, 127
1, 3, Control_c, 10, 0, 0
1, 3, Control_c, 11, 0, 0
1, 3, Control_c, 12, 0, 0
1, 3, Control_c, 13, 0, 0
1, 3, Control_c, 14, 0, 0
1, 3, Control_c, 15, 0, 0
1, 4, Control_c, 0, 32, 0
1, 4, Control_c, 1, 32, 0
1, 4, Control_c, 2, 32, 0
1, 4, Control_c, 3, 32, 0
1, 4, Control_c, 4, 32, 0
1, 4, Control_c, 5, 32, 0
1, 4, Control_c, 6, 32, 0
1, 4, Control_c, 7, 32, 0
1, 4, Control_c, 8, 32, 0
1, 4, Control_c, 9, 32, 0
1, 4, Control_c, 10, 32, 0
1, 4, Control_c, 11, 32, 0
1, 4, Control_c, 12, 32, 0
1, 4, Control_c, 13, 32, 0
1, 4, Control_c, 14, 32, 0
1, 4, Control_c, 15, 32, 0
1, 5, Program_c, 0, 0
1, 5, Program_c, 1, 0
1, 5, Program_c, 2, 0
1, 5, Program_c, 3, 0
1, 5, Program_c, 4, 0
1, 5, Program_c, 5, 0
1, 5, Program_c, 6, 0
1, 5, Program_c, 7, 0
1, 5, Program_c, 8, 0
1, 5, Program_c, 9, 0
1, 5, Program_c, 10, 0
1, 5, Program_c, 11, 0
1, 5, Program_c, 12, 0
1, 5, Program_c, 13, 0
1, 5, Program_c, 14, 0
1, 5, Program_c, 15, 0
1, 6, Control_c, 0, 7, 100
1, 6, Control_c, 1, 7, 100
1, 6, Control_c, 2, 7, 100
1, 6, Control_c, 3, 7, 100
1, 6, Control_c, 4, 7, 100
1, 6, Control_c, 5, 7, 100
1, 6, Control_c, 6, 7, 100
1, 6, Control_c, 7, 7, 100
1, 6, Control_c, 8, 7, 100
1, 6, Control_c, 9, 7, 100
1, 6, Control_c, 10, 7, 100
1, 6, Control_c, 11, 7, 100
1, 6, Control_c, 12, 7, 100
1, 6, Control_c, 13, 7, 100
1, 6, Control_c, 14, 7, 100
1, 6, Control_c, 15, 7, 100
1, 382, Note_on_c, 0, 35, 57
1, 432, Note_on_c, 0, 37, 65
1, 432, Note_on_c, 0, 39, 73
1, 456, Note_off_c, 0, 35, 60
1, 489, Note_on_c, 0, 40, 83
1, 493, Note_on_c, 0, 52, 106
1, 504, Note_off_c, 0, 37, 62
1, 506, Note_off_c, 0, 39, 63
1, 531, Note_off_c, 0, 40, 64
1, 570, Control_c, 0, 64, 57
1, 583, Note_off_c, 0, 52, 63
1, 584, Control_c, 0, 64, 71
1, 599, Control_c, 0, 64, 108
1, 614, Control_c, 0, 64, 127
1, 615, Note_on_c, 0, 40, 74
1, 638, Note_off_c, 0, 40, 63
1, 699, Note_on_c, 0, 52, 83
1, 704, Note_on_c, 0, 56, 77
1, 704, Note_on_c, 0, 59, 78
1, 725, Note_off_c, 0, 52, 70
1, 728, Note_off_c, 0, 59, 68
1, 731, Note_off_c, 0, 56, 67
1, 774, Note_on_c, 0, 59, 85
1, 775, Note_on_c, 0, 56, 83
1, 781, Note_on_c, 0, 52, 74
1, 805, Note_off_c, 0, 52, 67
1, 805, Note_off_c, 0, 56, 67
1, 820, Note_off_c, 0, 59, 60
1, 856, Note_on_c, 0, 52, 89
1, 879, Note_off_c, 0, 52, 67
1, 939, Note_on_c, 0, 56, 83
1, 940, Note_on_c, 0, 59, 79
1, 946, Note_on_c, 0, 64, 73
1, 960, Note_off_c, 0, 59, 72
1, 960, Note_off_c, 0, 56, 72
1, 970, Note_off_c, 0, 64, 69
1, 986, Control_c, 0, 64, 97
1, 1001, Control_c, 0, 64, 71
1, 1016, Control_c, 0, 64, 56
1, 1018, Note_on_c, 0, 56, 90
1, 1021, Note_on_c, 0, 64, 76
1, 1026, Note_on_c, 0, 59, 77
1, 1030, Control_c, 0, 64, 54
1, 1045, Control_c, 0, 64, 62
1, 1050, Note_off_c, 0, 64, 58
1, 1053, Note_off_c, 0, 56, 65
1, 1057, Note_off_c, 0, 59, 65
1, 1060, Control_c, 0, 64, 68
1, 1075, Control_c, 0, 64, 83
1, 1089, Control_c, 0, 64, 127
1, 1106, Note_on_c, 0, 56, 88
1, 1127, Note_off_c, 0, 56, 72
1, 1198, Note_on_c, 0, 52, 77
1, 1198, Note_on_c, 0, 56, 74
1, 1204, Note_on_c, 0, 59, 60
1, 1210, Note_on_c, 0, 60, 48
1, 1219, Note_off_c, 0, 59, 70
1, 1221, Note_off_c, 0, 56, 70
1, 1229, Note_off_c, 0, 52, 68
1, 1240, Note_off_c, 0, 60, 59
1, 1281, Note_on_c, 0, 59, 81
1, 1282, Note_on_c, 0, 52, 89
1, 1286, Note_on_c, 0, 56, 93
1, 1315, Note_off_c, 0, 56, 62
1, 1315, Note_off_c, 0, 52, 64
1, 1325, Note_off_c, 0, 59, 63
1, 1379, Note_on_c, 0, 52, 75
1, 1395, Note_off_c, 0, 52, 70
1, 1434, Note_on_c, 0, 56, 88
1, 1438, Note_on_c, 0, 59, 79
1, 1442, Note_on_c, 0, 64, 76
1, 1456, Note_off_c, 0, 56, 72
1, 1461, Note_off_c, 0, 59, 69
1, 1467, Control_c, 0, 64, 89
1, 1468, Note_off_c, 0, 64, 68
1, 1482, Control_c, 0, 64, 63
1, 1497, Control_c, 0, 64, 0
1, 1515, Note_on_c, 0, 56, 93
1, 1516, Note_on_c, 0, 59, 86
1, 1519, Poly_aftertouch_c, 0, 52, 0
1, 1522, Note_on_c, 0, 64, 65
1, 1526, Control_c, 0, 64, 31
1, 1541, Control_c, 0, 64, 60
1, 1546, Note_off_c, 0, 56, 67
1, 1546, Note_off_c, 0, 59, 65
1, 1551, Note_off_c, 0, 64, 65
1, 1556, Control_c, 0, 64, 78
1, 1571, Control_c, 0, 64, 127
1, 1595, Note_on_c, 0, 56, 88
1, 1613, Note_off_c, 0, 56, 74
1, 1672, Note_on_c, 0, 59, 79
1, 1673, Note_on_c, 0, 56, 83
1, 1675, Note_on_c, 0, 52, 76
1, 1692, Note_off_c, 0, 56, 74
1, 1696, Note_off_c, 0, 52, 71
1, 1697, Note_off_c, 0, 59, 69
1, 1750, Note_on_c, 0, 52, 82
1, 1750, Note_on_c, 0, 56, 88
1, 1754, Note_on_c, 0, 59, 80
1, 1777, Note_off_c, 0, 52, 68
1, 1786, Note_off_c, 0, 56, 61
1, 1792, Note_off_c, 0, 59, 55
1, 1837, Note_on_c, 0, 52, 81
1, 1851, Note_off_c, 0, 52, 71
1, 1905, Note_on_c, 0, 56, 87
1, 1906, Note_on_c, 0, 59, 82
1, 1908, Note_on_c, 0, 64, 77
1, 1925, Note_off_c, 0, 56, 72
1, 1931, Note_off_c, 0, 59, 69
1, 1935, Note_off_c, 0, 64, 68
1, 1966, Poly_aftertouch_c, 0, 52, 127
1, 1993, Note_on_c, 0, 56, 89
1, 1998, Note_on_c, 0, 59, 80
1, 2000, Note_on_c, 0, 64, 74
1, 2003, Poly_aftertouch_c, 0, 52, 0
1, 2017, Note_off_c, 0, 56, 66
1, 2026, Note_off_c, 0, 59, 68
1, 2027, Note_off_c, 0, 64, 62
1, 2078, Note_on_c, 0, 56, 86
1, 2094, Note_off_c, 0, 56, 76
1, 2149, Note_on_c, 0, 56, 84
1, 2157, Note_on_c, 0, 59, 75
1, 2162, Note_on_c, 0, 52, 78
1, 2176, Note_off_c, 0, 56, 69
1, 2183, Note_off_c, 0, 59, 66
1, 2189, Note_off_c, 0, 52, 69
1, 2241, Note_on_c, 0, 59, 78
1, 2242, Note_on_c, 0, 56, 76
1, 2246, Note_on_c, 0, 52, 71
1, 2271, Note_off_c, 0, 56, 66
1, 2276, Note_off_c, 0, 52, 65
1, 2288, Note_off_c, 0, 59, 42
1, 2319, Note_on_c, 0, 52, 80
1, 2340, Note_off_c, 0, 52, 73
1, 2406, Note_on_c, 0, 64, 81
1, 2415, Note_on_c, 0, 56, 67
1, 2418, Note_on_c, 0, 59, 62
1, 2433, Note_off_c, 0, 56, 69
1, 2442, Note_off_c, 0, 59, 60
1, 2449, Note_off_c, 0, 64, 65
1, 2546, Note_on_c, 0, 65, 100
1, 2573, Control_c, 0, 64, 85
1, 2588, Control_c, 0, 64, 63
1, 2603, Control_c, 0, 64, 0
1, 2674, Note_on_c, 0, 52, 60
1, 2738, Note_off_c, 0, 52, 62
1, 2781, Note_on_c, 0, 64, 67
1, 2817, Control_c, 0, 64, 20
1, 2832, Control_c, 0, 64, 53
1, 2833, Note_off_c, 0, 64, 55
1, 2847, Control_c, 0, 64, 67
1, 2856, Note_on_c, 0, 63, 76
1, 2862, Control_c, 0, 64, 84
1, 2868, Note_off_c, 0, 65, 54
1, 2877, Control_c, 0, 64, 127
1, 2901, Note_off_c, 0, 63, 60
1, 2936, Note_on_c, 0, 62, 78
1, 3001, Note_off_c, 0, 62, 59
1, 3002, Note_on_c, 0, 61, 81
1, 3027, Note_off_c, 0, 61, 68
1, 3084, Control_c, 0, 64, 90
1, 3085, Note_on_c, 0, 69, 106
1, 3099, Control_c, 0, 64, 63
1, 3114, Control_c, 0, 64, 0
1, 3166, Note_on_c, 0, 52, 64
1, 3173, Control_c, 0, 64, 59
1, 3187, Note_off_c, 0, 52, 65
1, 3188, Control_c, 0, 64, 72
1, 3202, Control_c, 0, 64, 101
1, 3217, Control_c, 0, 64, 127
1, 3267, Note_off_c, 0, 69, 63
1, 3267, Note_on_c, 0, 68, 82
1, 3310, Note_off_c, 0, 68, 54
1, 3339, Note_on_c, 0, 67, 83
1, 3384, Note_off_c, 0, 67, 61
1, 3403, Note_on_c, 0, 66, 83
1, 3455, Note_off_c, 0, 66, 61
1, 3479, Note_on_c, 0, 65, 81
1, 3521, Note_on_c, 0, 74, 96
1, 3526, Note_off_c, 0, 65, 60
1, 3588, Note_on_c, 0, 77, 106
1, 3596, Control_c, 0, 64, 99
1, 3599, Note_on_c, 0, 65, 90
1, 3607, Note_off_c, 0, 74, 62
1, 3611, Control_c, 0, 64, 66
1, 3626, Control_c, 0, 64, 0
1, 3696, Note_on_c, 0, 50, 63
1, 3714, Control_c, 0, 64, 50
1, 3729, Control_c, 0, 64, 67
1, 3744, Control_c, 0, 64, 79
1, 3747, Note_off_c, 0, 50, 62
1, 3759, Control_c, 0, 64, 113
1, 3774, Control_c, 0, 64, 127
1, 3788, Note_on_c, 0, 64, 69
1, 3804, Note_off_c, 0, 65, 54
1, 3824, Note_off_c, 0, 64, 59
1, 3864, Note_on_c, 0, 63, 72
1, 3889, Note_off_c, 0, 77, 54
1, 3893, Note_off_c, 0, 63, 63
1, 3939, Note_on_c, 0, 62, 76
1, 3990, Note_off_c, 0, 62, 56
1, 4015, Note_on_c, 0, 61, 75
1, 4042, Note_off_c, 0, 61, 68
1, 4071, Control_c, 0, 64, 119
1, 4086, Control_c, 0, 64, 78
1, 4094, Note_on_c, 0, 76, 87
1, 4100, Control_c, 0, 64, 58
1, 4108, Note_on_c, 0, 65, 60
1, 4115, Control_c, 0, 64, 56
1, 4130, Control_c, 0, 64, 64
1, 4144, Note_off_c, 0, 65, 61
1, 4145, Control_c, 0, 64, 71
1, 4160, Control_c, 0, 64, 90
1, 4162, Note_on_c, 0, 50, 65
1, 4174, Control_c, 0, 64, 127
1, 4185, Note_off_c, 0, 50, 64
1, 4279, Note_on_c, 0, 68, 79
1, 4287, Note_off_c, 0, 76, 63
1, 4305, Note_on_c, 0, 65, 68
1, 4320, Note_off_c, 0, 68, 51
1, 4332, Note_off_c, 0, 65, 68
1, 4360, Note_on_c, 0, 81, 97
1, 4365, Note_on_c, 0, 79, 73
1, 4368, Note_on_c, 0, 67, 75
1, 4388, Note_off_c, 0, 81, 70
1, 4393, Note_off_c, 0, 79, 66
1, 4422, Note_off_c, 0, 67, 60
1, 4449, Note_on_c, 0, 66, 77
1, 4509, Note_off_c, 0, 66, 61
1, 4527, Note_on_c, 0, 65, 70
1, 4552, Note_off_c, 0, 65, 69
1, 4622, Note_on_c, 0, 72, 100
1, 4625, Control_c, 0, 64, 95
1, 4632, Note_on_c, 0, 65, 83
1, 4638, Note_on_c, 0, 60, 77
1, 4640, Control_c, 0, 64, 67
1, 4654, Control_c, 0, 64, 0
1, 4662, Note_on_c, 0, 59, 51
1, 4663, Note_off_c, 0, 59, 127
1, 4713, Control_c, 0, 64, 48
1, 4722, Note_on_c, 0, 50, 75
1, 4728, Control_c, 0, 64, 65
1, 4743, Control_c, 0, 64, 81
1, 4749, Note_off_c, 0, 60, 63
1, 4758, Control_c, 0, 64, 127
1, 4784, Note_off_c, 0, 50, 63
1, 4810, Note_on_c, 0, 64, 84
1, 4849, Note_off_c, 0, 64, 60
1, 4854, Note_off_c, 0, 65, 55
1, 4892, Note_on_c, 0, 62, 91
1, 4996, Note_on_c, 0, 50, 76
1, 4999, Note_off_c, 0, 72, 58
1, 5009, Note_off_c, 0, 62, 56
1, 5075, Note_on_c, 0, 60, 77
1, 5075, Note_off_c, 0, 50, 56
1, 5102, Note_off_c, 0, 60, 65
1, 5151, Note_on_c, 0, 71, 85
1, 5164, Note_on_c, 0, 65, 60
1, 5166, Note_on_c, 0, 59, 66
1, 5166, Control_c, 0, 64, 78
1, 5181, Control_c, 0, 64, 57
1, 5196, Control_c, 0, 64, 0
1, 5250, Note_on_c, 0, 50, 61
1, 5270, Control_c, 0, 64, 31
1, 5285, Control_c, 0, 64, 56
1, 5285, Note_off_c, 0, 59, 61
1, 5300, Control_c, 0, 64, 67
1, 5315, Control_c, 0, 64, 79
1, 5321, Note_off_c, 0, 65, 59
1, 5322, Note_off_c, 0, 50, 62
1, 5328, Note_on_c, 0, 57, 62
1, 5329, Note_off_c, 0, 71, 61
1, 5329, Control_c, 0, 64, 110
1, 5344, Control_c, 0, 64, 127
1, 5395, Note_off_c, 0, 57, 62
1, 5404, Note_on_c, 0, 55, 64
1, 5480, Note_on_c, 0, 50, 55
1, 5512, Note_off_c, 0, 55, 51
1, 5563, Note_on_c, 0, 72, 82
1, 5578, Note_off_c, 0, 50, 60
1, 5580, Note_on_c, 0, 53, 41
1, 5609, Note_off_c, 0, 53, 54
1, 5685, Note_on_c, 0, 71, 80
1, 5700, Note_off_c, 0, 72, 54
1, 5700, Control_c, 0, 64, 99
1, 5708, Note_on_c, 0, 67, 57
1, 5715, Control_c, 0, 64, 72
1, 5738, Control_c, 0, 64, 52
1, 5752, Control_c, 0, 64, 0
1, 5767, Control_c, 0, 64, 23
1, 5782, Note_on_c, 0, 51, 62
1, 5782, Control_c, 0, 64, 34
1, 5797, Control_c, 0, 64, 45
1, 5812, Control_c, 0, 64, 55
1, 5826, Control_c, 0, 64, 65
1, 5841, Control_c, 0, 64, 77
1, 5844, Note_off_c, 0, 67, 62
1, 5856, Control_c, 0, 64, 127
1, 5871, Note_on_c, 0, 57, 66
1, 5876, Note_off_c, 0, 51, 62
1, 5933, Note_on_c, 0, 74, 94
1, 5936, Note_off_c, 0, 71, 62
1, 5946, Note_on_c, 0, 66, 88
1, 5953, Note_on_c, 0, 59, 72
1, 5979, Note_off_c, 0, 57, 63
1, 5986, Note_off_c, 0, 74, 68
1, 5990, Note_off_c, 0, 66, 60
1, 6016, Note_off_c, 0, 59, 64
1, 6025, Note_on_c, 0, 60, 78
1, 6096, Note_on_c, 0, 62, 83
1, 6104, Note_off_c, 0, 60, 63
1, 6156, Note_on_c, 0, 63, 89
1, 6165, Note_off_c, 0, 62, 63
1, 6168, Control_c, 0, 64, 75
1, 6174, Note_off_c, 0, 63, 72
1, 6180, Note_on_c, 0, 69, 96
1, 6181, Note_on_c, 0, 65, 93
1, 6183, Control_c, 0, 64, 50
1, 6197, Control_c, 0, 64, 46
1, 6212, Control_c, 0, 64, 63
1, 6227, Control_c, 0, 64, 73
1, 6240, Note_off_c, 0, 65, 48
1, 6242, Control_c, 0, 64, 127
1, 6260, Note_on_c, 0, 59, 91
1, 6263, Note_off_c, 0, 69, 63
1, 6295, Note_off_c, 0, 59, 61
1, 6332, Note_on_c, 0, 57, 79
1, 6335, Note_on_c, 0, 53, 86
1, 6358, Note_off_c, 0, 57, 67
1, 6360, Control_c, 0, 64, 116
1, 6375, Control_c, 0, 64, 71
1, 6390, Control_c, 0, 64, 0
1, 6391, Note_off_c, 0, 53, 65
1, 6397, Note_on_c, 0, 47, 76
1, 6422, Note_off_c, 0, 47, 65
1, 6454, Note_on_c, 0, 57, 86
1, 6461, Note_on_c, 0, 53, 81
1, 6495, Note_off_c, 0, 53, 68
1, 6513, Note_off_c, 0, 57, 65
1, 6540, Note_on_c, 0, 47, 76
1, 6563, Note_on_c, 0, 35, 64
1, 6585, Note_off_c, 0, 47, 65
1, 6624, Note_on_c, 0, 37, 71
1, 6630, Note_on_c, 0, 39, 74
1, 6648, Note_off_c, 0, 35, 61
1, 6671, Note_on_c, 0, 40, 86
1, 6686, Note_on_c, 0, 52, 108
1, 6687, Note_off_c, 0, 37, 64
1, 6700, Note_off_c, 0, 39, 63
1, 6716, Note_off_c, 0, 40, 64
1, 6754, Control_c, 0, 64, 21
1, 6767, Note_off_c, 0, 52, 62
1, 6769, Control_c, 0, 64, 59
1, 6783, Control_c, 0, 64, 69
1, 6798, Control_c, 0, 64, 96
1, 6806, Note_on_c, 0, 40, 81
1, 6813, Control_c, 0, 64, 127
1, 6832, Note_off_c, 0, 40, 67
1, 6884, Note_on_c, 0, 52, 78
1, 6888, Note_on_c, 0, 56, 72
1, 6889, Note_on_c, 0, 59, 76
1, 6904, Note_off_c, 0, 52, 72
1, 6916, Note_off_c, 0, 59, 67
1, 6917, Note_off_c, 0, 56, 66
1, 6956, Note_on_c, 0, 52, 76
1, 6966, Note_on_c, 0, 56, 72
1, 6970, Poly_aftertouch_c, 0, 59, 0
1, 6980, Note_off_c, 0, 52, 67
1, 6995, Note_off_c, 0, 56, 67
1, 7047, Note_on_c, 0, 52, 81
1, 7065, Note_off_c, 0, 52, 74
1, 7122, Note_on_c, 0, 59, 80
1, 7123, Note_on_c, 0, 64, 79
1, 7124, Note_on_c, 0, 56, 76
1, 7143, Note_off_c, 0, 59, 71
1, 7147, Note_off_c, 0, 64, 67
1, 7150, Note_off_c, 0, 56, 67
1, 7193, Note_on_c, 0, 56, 96
1, 7193, Note_on_c, 0, 64, 80
1, 7200, Note_on_c, 0, 59, 88
1, 7232, Note_off_c, 0, 59, 65
1, 7235, Note_off_c, 0, 64, 61
1, 7247, Note_off_c, 0, 56, 62
1, 7300, Note_on_c, 0, 56, 80
1, 7318, Note_off_c, 0, 56, 74
1, 7380, Note_on_c, 0, 59, 73
1, 7388, Note_on_c, 0, 52, 65
1, 7402, Note_off_c, 0, 59, 70
1, 7404, Note_off_c, 0, 52, 69
1, 7406, Note_on_c, 0, 57, 40
1, 7439, Note_off_c, 0, 57, 53
1, 7447, Note_on_c, 0, 56, 63
1, 7450, Note_on_c, 0, 52, 88
1, 7466, Note_on_c, 0, 59, 69
1, 7479, Note_off_c, 0, 52, 68
1, 7494, Note_off_c, 0, 59, 65
1, 7500, Note_off_c, 0, 56, 63
1, 7545, Note_on_c, 0, 52, 89
1, 7563, Note_off_c, 0, 52, 74
1, 7616, Note_on_c, 0, 56, 88
1, 7618, Note_on_c, 0, 59, 71
1, 7620, Note_on_c, 0, 64, 80
1, 7637, Note_off_c, 0, 59, 70
1, 7639, Note_off_c, 0, 56, 71
1, 7646, Note_off_c, 0, 64, 66
1, 7666, Control_c, 0, 64, 107
1, 7680, Control_c, 0, 64, 68
1, 7690, Note_on_c, 0, 64, 74
1, 7694, Note_on_c, 0, 56, 92
1, 7695, Control_c, 0, 64, 0
1, 7700, Note_on_c, 0, 59, 82
1, 7724, Control_c, 0, 64, 46
1, 7733, Note_off_c, 0, 59, 63
1, 7734, Note_off_c, 0, 64, 63
1, 7736, Note_off_c, 0, 56, 63
1, 7739, Control_c, 0, 64, 61
1, 7754, Control_c, 0, 64, 74
1, 7769, Control_c, 0, 64, 127
1, 7775, Note_on_c, 0, 56, 85
1, 7795, Note_off_c, 0, 56, 72
1, 7866, Note_on_c, 0, 59, 72
1, 7867, Note_on_c, 0, 56, 78
1, 7869, Note_on_c, 0, 52, 77
1, 7885, Note_off_c, 0, 56, 74
1, 7887, Note_off_c, 0, 59, 71
1, 7892, Note_off_c, 0, 52, 70
1, 7938, Note_on_c, 0, 52, 81
1, 7938, Note_on_c, 0, 56, 83
1, 7941, Note_on_c, 0, 59, 82
1, 7961, Note_off_c, 0, 52, 70
1, 7977, Note_off_c, 0, 56, 64
1, 7978, Note_off_c, 0, 59, 66
1, 8031, Note_on_c, 0, 52, 90
1, 8049, Note_off_c, 0, 52, 72
1, 8112, Note_on_c, 0, 56, 78
1, 8113, Note_on_c, 0, 59, 71
1, 8113, Note_on_c, 0, 64, 72
1, 8136, Note_off_c, 0, 59, 69
1, 8138, Note_off_c, 0, 56, 67
1, 8138, Note_off_c, 0, 64, 68
1, 8180, Note_on_c, 0, 56, 87
1, 8184, Note_on_c, 0, 59, 83
1, 8186, Note_on_c, 0, 64, 72
1, 8210, Note_off_c, 0, 56, 64
1, 8212, Note_off_c, 0, 59, 58
1, 8214, Note_off_c, 0, 64, 62
1, 8275, Note_on_c, 0, 56, 86
1, 8292, Note_off_c, 0, 56, 74
1, 8350, Note_on_c, 0, 56, 82
1, 8355, Note_on_c, 0, 59, 79
1, 8358, Note_on_c, 0, 52, 81
1, 8377, Note_off_c, 0, 56, 67
1, 8378, Note_off_c, 0, 59, 68
1, 8380, Note_off_c, 0, 52, 67
1, 8442, Note_on_c, 0, 59, 69
1, 8451, Note_on_c, 0, 56, 59
1, 8465, Note_on_c, 0, 52, 37
1, 8478, Note_off_c, 0, 56, 70
1, 8484, Note_off_c, 0, 52, 62
1, 8499, Note_off_c, 0, 59, 41
1, 8507, Note_on_c, 0, 52, 68
1, 8535, Note_off_c, 0, 52, 68
1, 8605, Note_on_c, 0, 64, 82
1, 8608, Note_on_c, 0, 59, 72
1, 8614, Note_on_c, 0, 56, 66
1, 8630, Note_off_c, 0, 59, 69
1, 8634, Note_off_c, 0, 56, 64
1, 8648, Note_off_c, 0, 64, 66
1, 8755, Note_on_c, 0, 69, 105
1, 8767, Note_on_c, 0, 65, 87
1, 8776, Control_c, 0, 64, 94
1, 8791, Control_c, 0, 64, 67
1, 8806, Control_c, 0, 64, 0
1, 8892, Note_on_c, 0, 52, 57
1, 8925, Control_c, 0, 64, 23
1, 8940, Control_c, 0, 64, 52
1, 8955, Control_c, 0, 64, 66
1, 8956, Note_off_c, 0, 52, 63
1, 8970, Control_c, 0, 64, 74
1, 8982, Note_on_c, 0, 64, 73
1, 8985, Control_c, 0, 64, 93
1, 9000, Control_c, 0, 64, 127
1, 9030, Note_off_c, 0, 65, 57
1, 9046, Note_off_c, 0, 64, 57
1, 9053, Note_off_c, 0, 69, 59
1, 9054, Note_on_c, 0, 63, 84
1, 9104, Note_off_c, 0, 63, 63
1, 9136, Note_on_c, 0, 62, 81
1, 9200, Note_on_c, 0, 61, 90
1, 9209, Note_off_c, 0, 62, 61
1, 9249, Note_off_c, 0, 61, 62
1, 9293, Note_on_c, 0, 72, 104
1, 9295, Control_c, 0, 64, 107
1, 9305, Note_on_c, 0, 69, 94
1, 9310, Control_c, 0, 64, 69
1, 9325, Control_c, 0, 64, 0
1, 9369, Note_on_c, 0, 52, 75
1, 9369, Control_c, 0, 64, 27
1, 9384, Control_c, 0, 64, 57
1, 9391, Note_off_c, 0, 52, 68
1, 9399, Control_c, 0, 64, 71
1, 9414, Control_c, 0, 64, 127
1, 9481, Note_off_c, 0, 69, 61
1, 9483, Note_on_c, 0, 68, 87
1, 9503, Note_off_c, 0, 72, 61
1, 9538, Note_off_c, 0, 68, 60
1, 9554, Note_on_c, 0, 67, 90
1, 9611, Note_off_c, 0, 67, 50
1, 9617, Note_on_c, 0, 66, 84
1, 9675, Note_off_c, 0, 66, 60
1, 9692, Note_on_c, 0, 65, 80
1, 9736, Note_on_c, 0, 74, 92
1, 9739, Note_on_c, 0, 77, 95
1, 9739, Note_off_c, 0, 65, 59
1, 9758, Note_off_c, 0, 74, 68
1, 9761, Note_off_c, 0, 77, 65
1, 9805, Note_on_c, 0, 81, 94
1, 9806, Note_on_c, 0, 77, 83
1, 9811, Note_on_c, 0, 69, 93
1, 9823, Control_c, 0, 64, 80
1, 9838, Control_c, 0, 64, 49
1, 9853, Control_c, 0, 64, 0
1, 9905, Note_on_c, 0, 50, 65
1, 9942, Control_c, 0, 64, 17
1, 9956, Control_c, 0, 64, 55
1, 9967, Note_off_c, 0, 50, 63
1, 9971, Control_c, 0, 64, 69
1, 9986, Control_c, 0, 64, 85
1, 10001, Control_c, 0, 64, 127
1, 10005, Note_on_c, 0, 64, 71
1, 10058, Note_off_c, 0, 77, 56
1, 10066, Note_off_c, 0, 81, 61
1, 10069, Note_off_c, 0, 64, 59
1, 10076, Note_on_c, 0, 63, 77
1, 10076, Note_off_c, 0, 69, 52
1, 10120, Note_off_c, 0, 63, 60
1, 10156, Note_on_c, 0, 62, 76
1, 10220, Note_off_c, 0, 62, 57
1, 10234, Note_on_c, 0, 61, 78
1, 10281, Note_off_c, 0, 61, 60
1, 10290, Control_c, 0, 64, 100
1, 10294, Note_on_c, 0, 79, 88
1, 10305, Note_on_c, 0, 76, 71
1, 10305, Control_c, 0, 64, 69
1, 10319, Control_c, 0, 64, 42
1, 10334, Control_c, 0, 64, 38
1, 10348, Note_on_c, 0, 67, 84
1, 10349, Control_c, 0, 64, 63
1, 10364, Control_c, 0, 64, 75
1, 10379, Note_on_c, 0, 50, 64
1, 10379, Control_c, 0, 64, 127
1, 10386, Note_off_c, 0, 76, 61
1, 10390, Note_off_c, 0, 79, 66
1, 10394, Note_off_c, 0, 67, 61
1, 10401, Note_off_c, 0, 50, 60
1, 10484, Note_on_c, 0, 68, 86
1, 10531, Note_on_c, 0, 84, 102
1, 10544, Note_on_c, 0, 81, 79
1, 10554, Note_off_c, 0, 68, 59
1, 10580, Note_on_c, 0, 67, 80
1, 10582, Note_on_c, 0, 72, 93
1, 10612, Note_off_c, 0, 84, 63
1, 10631, Note_off_c, 0, 81, 60
1, 10633, Note_off_c, 0, 72, 65
1, 10654, Note_off_c, 0, 67, 56
1, 10673, Note_on_c, 0, 66, 81
1, 10727, Note_off_c, 0, 66, 61
1, 10752, Note_on_c, 0, 65, 74
1, 10803, Note_off_c, 0, 65, 60
1, 10825, Note_on_c, 0, 76, 98
1, 10828, Note_on_c, 0, 65, 85
1, 10836, Note_on_c, 0, 72, 80
1, 10839, Control_c, 0, 64, 106
1, 10854, Control_c, 0, 64, 70
1, 10869, Control_c, 0, 64, 38
1, 10883, Control_c, 0, 64, 0
1, 10908, Note_on_c, 0, 69, 85
1, 10913, Control_c, 0, 64, 11
1, 10920, Note_off_c, 0, 65, 62
1, 10928, Control_c, 0, 64, 52
1, 10933, Note_on_c, 0, 50, 67
1, 10933, Note_on_c, 0, 64, 65
1, 10940, Note_off_c, 0, 76, 62
1, 10941, Note_off_c, 0, 72, 63
1, 10942, Control_c, 0, 64, 66
1, 10950, Note_on_c, 0, 62, 55
1, 10957, Control_c, 0, 64, 80
1, 10958, Note_off_c, 0, 69, 65
1, 10979, Control_c, 0, 64, 127
1, 10989, Note_off_c, 0, 62, 50
1, 11006, Note_off_c, 0, 64, 57
1, 11023, Note_on_c, 0, 57, 82
1, 11025, Note_off_c, 0, 50, 62
1, 11064, Note_off_c, 0, 57, 62
1, 11095, Note_on_c, 0, 74, 93
1, 11101, Note_on_c, 0, 71, 84
1, 11102, Note_on_c, 0, 65, 86
1, 11113, Control_c, 0, 64, 80
1, 11128, Control_c, 0, 64, 58
1, 11142, Control_c, 0, 64, 0
1, 11158, Note_off_c, 0, 65, 58
1, 11172, Control_c, 0, 64, 26
1, 11184, Note_on_c, 0, 69, 73
1, 11187, Control_c, 0, 64, 51
1, 11188, Note_on_c, 0, 62, 84
1, 11193, Note_on_c, 0, 50, 73
1, 11202, Control_c, 0, 64, 65
1, 11217, Control_c, 0, 64, 80
1, 11232, Control_c, 0, 64, 127
1, 11238, Note_off_c, 0, 69, 58
1, 11254, Note_off_c, 0, 62, 57
1, 11269, Note_on_c, 0, 57, 77
1, 11283, Note_off_c, 0, 50, 57
1, 11312, Note_off_c, 0, 57, 62
1, 11345, Note_on_c, 0, 65, 83
1, 11365, Control_c, 0, 64, 78
1, 11380, Control_c, 0, 64, 59
1, 11395, Control_c, 0, 64, 0
1, 11410, Control_c, 0, 64, 12
1, 11415, Note_on_c, 0, 69, 78
1, 11419, Note_off_c, 0, 71, 59
1, 11420, Note_off_c, 0, 74, 61
1, 11425, Control_c, 0, 64, 43
1, 11432, Note_on_c, 0, 60, 75
1, 11439, Control_c, 0, 64, 58
1, 11440, Note_on_c, 0, 50, 61
1, 11440, Note_off_c, 0, 65, 59
1, 11454, Control_c, 0, 64, 71
1, 11469, Control_c, 0, 64, 94
1, 11484, Control_c, 0, 64, 127
1, 11508, Note_off_c, 0, 60, 61
1, 11511, Note_on_c, 0, 55, 64
1, 11524, Note_off_c, 0, 50, 57
1, 11551, Note_off_c, 0, 69, 61
1, 11596, Note_on_c, 0, 77, 80
1, 11602, Control_c, 0, 64, 86
1, 11603, Note_off_c, 0, 55, 54
1, 11606, Note_on_c, 0, 65, 74
1, 11608, Note_on_c, 0, 74, 57
1, 11617, Control_c, 0, 64, 64
1, 11632, Control_c, 0, 64, 9
1, 11647, Control_c, 0, 64, 0
1, 11661, Control_c, 0, 64, 39
1, 11676, Control_c, 0, 64, 55
1, 11678, Note_on_c, 0, 69, 68
1, 11691, Control_c, 0, 64, 65
1, 11694, Note_on_c, 0, 50, 45
1, 11697, Note_on_c, 0, 59, 51
1, 11706, Control_c, 0, 64, 77
1, 11728, Control_c, 0, 64, 127
1, 11746, Note_off_c, 0, 65, 54
1, 11775, Note_off_c, 0, 77, 27
1, 11780, Note_on_c, 0, 55, 53
1, 11791, Note_off_c, 0, 50, 57
1, 11811, Note_off_c, 0, 59, 54
1, 11818, Note_off_c, 0, 74, 59
1, 11828, Note_off_c, 0, 55, 64
1, 11848, Note_on_c, 0, 71, 78
1, 11849, Note_off_c, 0, 69, 63
1, 11860, Note_on_c, 0, 67, 69
1, 11876, Control_c, 0, 64, 77
1, 11891, Control_c, 0, 64, 58
1, 11906, Control_c, 0, 64, 0
1, 11921, Control_c, 0, 64, 40
1, 11936, Control_c, 0, 64, 60
1, 11948, Note_on_c, 0, 51, 72
1, 11951, Control_c, 0, 64, 69
1, 11965, Control_c, 0, 64, 94
1, 11980, Control_c, 0, 64, 127
1, 12002, Note_off_c, 0, 67, 61
1, 12022, Note_on_c, 0, 57, 75
1, 12022, Note_on_c, 0, 75, 78
1, 12039, Note_off_c, 0, 71, 61
1, 12047, Note_off_c, 0, 51, 63
1, 12097, Note_on_c, 0, 74, 87
1, 12099, Note_on_c, 0, 59, 83
1, 12106, Note_on_c, 0, 66, 90
1, 12124, Note_off_c, 0, 75, 63
1, 12127, Note_off_c, 0, 57, 63
1, 12144, Note_off_c, 0, 74, 65
1, 12154, Note_off_c, 0, 66, 63
1, 12175, Note_on_c, 0, 60, 84
1, 12175, Note_off_c, 0, 59, 65
1, 12251, Note_on_c, 0, 62, 88
1, 12270, Note_off_c, 0, 60, 63
1, 12306, Control_c, 0, 64, 74
1, 12309, Note_on_c, 0, 63, 91
1, 12320, Control_c, 0, 64, 31
1, 12321, Note_off_c, 0, 62, 66
1, 12324, Note_on_c, 0, 65, 98
1, 12325, Note_on_c, 0, 69, 98
1, 12335, Control_c, 0, 64, 0
1, 12342, Note_off_c, 0, 63, 63
1, 12350, Control_c, 0, 64, 52
1, 12365, Control_c, 0, 64, 66
1, 12380, Control_c, 0, 64, 87
1, 12395, Control_c, 0, 64, 127
1, 12401, Note_on_c, 0, 59, 91
1, 12405, Note_off_c, 0, 65, 57
1, 12416, Note_off_c, 0, 69, 66
1, 12434, Note_off_c, 0, 59, 63
1, 12493, Note_on_c, 0, 57, 91
1, 12497, Note_on_c, 0, 53, 87
1, 12514, Note_off_c, 0, 57, 73
1, 12520, Control_c, 0, 64, 80
1, 12535, Control_c, 0, 64, 52
1, 12550, Control_c, 0, 64, 0
1, 12560, Note_off_c, 0, 53, 65
1, 12565, Note_on_c, 0, 47, 79
1, 12586, Note_off_c, 0, 47, 66
1, 12618, Note_on_c, 0, 53, 86
1, 12621, Note_on_c, 0, 57, 77
1, 12648, Note_off_c, 0, 53, 65
1, 12660, Note_off_c, 0, 57, 67
1, 12693, Note_on_c, 0, 47, 73
1, 12715, Note_on_c, 0, 56, 38
1, 12720, Note_on_c, 0, 35, 58
1, 12741, Note_off_c, 0, 47, 64
1, 12750, Note_off_c, 0, 56, 33
1, 12782, Note_on_c, 0, 37, 72
1, 12787, Note_on_c, 0, 39, 73
1, 12803, Note_off_c, 0, 35, 61
1, 12830, Note_on_c, 0, 40, 87
1, 12845, Note_on_c, 0, 52, 109
1, 12848, Note_off_c, 0, 37, 63
1, 12851, Note_off_c, 0, 39, 63
1, 12891, Note_off_c, 0, 40, 64
1, 12937, Control_c, 0, 64, 60
1, 12946, Note_off_c, 0, 52, 63
1, 12952, Control_c, 0, 64, 76
1, 12966, Control_c, 0, 64, 127
1, 12981, Note_on_c, 0, 40, 70
1, 13003, Note_off_c, 0, 40, 63
1, 13053, Note_on_c, 0, 56, 81
1, 13054, Note_on_c, 0, 52, 82
1, 13058, Note_on_c, 0, 59, 75
1, 13073, Note_off_c, 0, 52, 74
1, 13078, Note_off_c, 0, 56, 67
1, 13081, Note_off_c, 0, 59, 67
1, 13125, Note_on_c, 0, 59, 91
1, 13125, Note_on_c, 0, 56, 85
1, 13134, Note_on_c, 0, 52, 80
1, 13152, Note_off_c, 0, 52, 75
1, 13169, Note_off_c, 0, 59, 61
1, 13172, Note_off_c, 0, 56, 62
1, 13230, Note_on_c, 0, 52, 83
1, 13247, Note_off_c, 0, 52, 75
1, 13300, Note_on_c, 0, 56, 86
1, 13303, Note_on_c, 0, 59, 80
1, 13305, Note_on_c, 0, 64, 80
1, 13322, Note_off_c, 0, 59, 73
1, 13322, Note_off_c, 0, 56, 72
1, 13332, Note_off_c, 0, 64, 67
1, 13379, Note_on_c, 0, 64, 80
1, 13381, Note_on_c, 0, 56, 89
1, 13384, Note_on_c, 0, 59, 85
1, 13406, Note_off_c, 0, 59, 68
1, 13408, Note_off_c, 0, 64, 63
1, 13412, Note_off_c, 0, 56, 57
1, 13461, Note_on_c, 0, 56, 83
1, 13483, Note_off_c, 0, 56, 72
1, 13545, Note_on_c, 0, 56, 80
1, 13545, Note_on_c, 0, 59, 78
1, 13550, Note_on_c, 0, 52, 78
1, 13566, Note_off_c, 0, 56, 72
1, 13570, Note_off_c, 0, 59, 68
1, 13575, Note_off_c, 0, 52, 67
1, 13614, Note_on_c, 0, 59, 82
1, 13625, Note_on_c, 0, 52, 76
1, 13631, Note_on_c, 0, 57, 62
1, 13644, Note_off_c, 0, 52, 68
1, 13651, Note_off_c, 0, 57, 63
1, 13651, Note_off_c, 0, 59, 65
1, 13697, Note_on_c, 0, 52, 78
1, 13727, Note_off_c, 0, 52, 65
1, 13769, Note_on_c, 0, 56, 87
1, 13773, Note_on_c, 0, 59, 75
1, 13780, Note_on_c, 0, 64, 74
1, 13790, Note_off_c, 0, 59, 75
1, 13795, Note_off_c, 0, 56, 69
1, 13805, Note_off_c, 0, 64, 69
1, 13843, Note_on_c, 0, 64, 89
1, 13848, Note_on_c, 0, 59, 84
1, 13868, Note_off_c, 0, 59, 72
1, 13878, Note_off_c, 0, 64, 65
1, 13908, Control_c, 0, 64, 99
1, 13923, Control_c, 0, 64, 81
1, 13934, Note_on_c, 0, 56, 76
1, 13938, Control_c, 0, 64, 68
1, 13953, Control_c, 0, 64, 56
1, 13975, Control_c, 0, 64, 39
1, 13990, Control_c, 0, 64, 28
1, 14001, Note_off_c, 0, 56, 64
1, 14004, Control_c, 0, 64, 0
1, 14022, Note_on_c, 0, 59, 90
1, 14049, Note_on_c, 0, 52, 70
1, 14070, Note_off_c, 0, 59, 55
1, 14075, Note_off_c, 0, 52, 67
1, 14082, Note_on_c, 0, 64, 89
1, 14100, Note_off_c, 0, 64, 73
1, 14181, Note_on_c, 0, 59, 80
1, 14235, Note_off_c, 0, 59, 64
1, 14237, Note_on_c, 0, 56, 91
1, 14273, Note_off_c, 0, 56, 65
1, 14274, Note_on_c, 0, 52, 66
1, 14300, Note_off_c, 0, 52, 67
1, 14306, Note_on_c, 0, 64, 89
1, 14332, Note_off_c, 0, 64, 66
1, 14400, Note_on_c, 0, 56, 78
1, 14470, Note_off_c, 0, 56, 62
1, 14472, Note_on_c, 0, 59, 91
1, 14503, Note_on_c, 0, 52, 59
1, 14504, Note_off_c, 0, 59, 60
1, 14526, Note_off_c, 0, 52, 63
1, 14542, Note_on_c, 0, 64, 87
1, 14564, Note_off_c, 0, 64, 70
1, 14634, Note_on_c, 0, 59, 72
1, 14674, Note_off_c, 0, 59, 59
1, 14713, Note_on_c, 0, 56, 73
1, 14737, Note_off_c, 0, 56, 68
1, 14765, Note_on_c, 0, 52, 44
1, 14778, Note_on_c, 0, 64, 82
1, 14817, Note_off_c, 0, 52, 56
1, 14880, Note_on_c, 0, 56, 50
1, 14902, Control_c, 0, 64, 26
1, 14916, Control_c, 0, 64, 39
1, 14931, Control_c, 0, 64, 50
1, 14946, Control_c, 0, 64, 56
1, 14956, Note_on_c, 0, 59, 68
1, 14961, Control_c, 0, 64, 59
1, 14970, Note_off_c, 0, 64, 64
1, 14976, Control_c, 0, 64, 61
1, 14986, Note_on_c, 0, 63, 75
1, 14990, Control_c, 0, 64, 62
1, 15020, Control_c, 0, 64, 61
1, 15035, Control_c, 0, 64, 56
1, 15038, Note_on_c, 0, 62, 66
1, 15042, Note_on_c, 0, 64, 84
1, 15050, Note_off_c, 0, 63, 61
1, 15050, Control_c, 0, 64, 47
1, 15052, Note_off_c, 0, 59, 56
1, 15063, Control_c, 0, 64, 29
1, 15078, Control_c, 0, 64, 0
1, 15152, Control_c, 0, 64, 11
1, 15152, Note_on_c, 0, 52, 54
1, 15164, Note_off_c, 0, 62, 59
1, 15167, Control_c, 0, 64, 32
1, 15181, Control_c, 0, 64, 42
1, 15194, Note_off_c, 0, 56, 34
1, 15196, Control_c, 0, 64, 50
1, 15212, Control_c, 0, 64, 56
1, 15224, Note_off_c, 0, 64, 62
1, 15227, Control_c, 0, 64, 60
1, 15239, Note_on_c, 0, 63, 71
1, 15242, Control_c, 0, 64, 63
1, 15245, Note_on_c, 0, 59, 46
1, 15256, Control_c, 0, 64, 65
1, 15265, Note_off_c, 0, 52, 55
1, 15271, Control_c, 0, 64, 68
1, 15281, Note_off_c, 0, 63, 52
1, 15286, Control_c, 0, 64, 71
1, 15301, Control_c, 0, 64, 71
1, 15307, Note_on_c, 0, 64, 73
1, 15316, Control_c, 0, 64, 69
1, 15331, Control_c, 0, 64, 66
1, 15336, Note_on_c, 0, 62, 49
1, 15346, Control_c, 0, 64, 62
1, 15349, Note_off_c, 0, 59, 51
1, 15360, Control_c, 0, 64, 56
1, 15375, Control_c, 0, 64, 48
1, 15390, Control_c, 0, 64, 38
1, 15404, Control_c, 0, 64, 27
1, 15419, Control_c, 0, 64, 27
1, 15425, Note_off_c, 0, 62, 57
1, 15428, Note_on_c, 0, 56, 44
1, 15449, Control_c, 0, 64, 32
1, 15471, Control_c, 0, 64, 42
1, 15486, Control_c, 0, 64, 50
1, 15501, Control_c, 0, 64, 55
1, 15516, Note_off_c, 0, 64, 61
1, 15516, Control_c, 0, 64, 58
1, 15531, Control_c, 0, 64, 59
1, 15545, Control_c, 0, 64, 59
1, 15548, Note_on_c, 0, 59, 36
1, 15551, Note_on_c, 0, 63, 48
1, 15560, Control_c, 0, 64, 54
1, 15575, Control_c, 0, 64, 42
1, 15590, Control_c, 0, 64, 0
1, 15596, Note_off_c, 0, 63, 62
1, 15621, Note_off_c, 0, 59, 55
1, 15641, Note_on_c, 0, 64, 39
1, 15646, Note_on_c, 0, 62, 42
1, 15693, Control_c, 0, 64, 24
1, 15704, Note_off_c, 0, 56, 22
1, 15708, Control_c, 0, 64, 39
1, 15723, Control_c, 0, 64, 51
1, 15737, Control_c, 0, 64, 58
1, 15752, Control_c, 0, 64, 62
1, 15755, Note_on_c, 0, 52, 30
1, 15767, Control_c, 0, 64, 64
1, 15782, Control_c, 0, 64, 65
1, 15797, Control_c, 0, 64, 68
1, 15811, Control_c, 0, 64, 73
1, 15826, Control_c, 0, 64, 80
1, 15841, Control_c, 0, 64, 92
1, 15842, Note_off_c, 0, 62, 30
1, 15856, Control_c, 0, 64, 104
1, 15871, Control_c, 0, 64, 127
1, 15894, Note_on_c, 0, 59, 44
1, 15903, Note_off_c, 0, 64, 23
1, 15933, Note_off_c, 0, 52, 42
1, 15952, Note_on_c, 0, 63, 36
1, 15986, Note_off_c, 0, 63, 58
1, 15997, Note_off_c, 0, 59, 58
1, 16031, Note_on_c, 0, 64, 59
1, 16034, Control_c, 0, 64, 104
1, 16045, Note_on_c, 0, 60, 46
1, 16049, Control_c, 0, 64, 91
1, 16064, Note_off_c, 0, 64, 65
1, 16064, Control_c, 0, 64, 78
1, 16079, Control_c, 0, 64, 66
1, 16084, Note_off_c, 0, 60, 57
1, 16094, Control_c, 0, 64, 49
1, 16109, Control_c, 0, 64, 0
1, 16113, Note_on_c, 0, 72, 52
1, 16130, Note_on_c, 0, 57, 44
1, 16136, Note_off_c, 0, 72, 60
1, 16184, Note_on_c, 0, 76, 73
1, 16189, Note_on_c, 0, 60, 61
1, 16191, Note_off_c, 0, 57, 62
1, 16219, Note_off_c, 0, 76, 67
1, 16257, Note_off_c, 0, 60, 63
1, 16261, Note_on_c, 0, 88, 82
1, 16278, Note_on_c, 0, 65, 72
1, 16280, Note_off_c, 0, 88, 72
1, 16339, Control_c, 0, 64, 28
1, 16353, Control_c, 0, 64, 51
1, 16368, Control_c, 0, 64, 64
1, 16383, Control_c, 0, 64, 71
1, 16398, Control_c, 0, 64, 88
1, 16404, Note_on_c, 0, 60, 48
1, 16413, Control_c, 0, 64, 127
1, 16478, Note_on_c, 0, 57, 40
1, 16485, Note_on_c, 0, 88, 77
1, 16492, Note_off_c, 0, 65, 55
1, 16496, Note_off_c, 0, 60, 34
1, 16530, Note_off_c, 0, 57, 53
1, 16545, Note_on_c, 0, 77, 79
1, 16547, Note_off_c, 0, 88, 58
1, 16556, Note_on_c, 0, 52, 47
1, 16621, Note_off_c, 0, 52, 59
1, 16658, Note_on_c, 0, 57, 61
1, 16723, Note_on_c, 0, 60, 59
1, 16763, Note_off_c, 0, 57, 56
1, 16810, Note_on_c, 0, 66, 78
1, 16810, Note_on_c, 0, 81, 80
1, 16828, Control_c, 0, 64, 92
1, 16832, Note_off_c, 0, 60, 59
1, 16843, Control_c, 0, 64, 71
1, 16857, Control_c, 0, 64, 55
1, 16872, Control_c, 0, 64, 52
1, 16875, Note_off_c, 0, 77, 62
1, 16887, Control_c, 0, 64, 61
1, 16902, Control_c, 0, 64, 64
1, 16903, Note_on_c, 0, 60, 46
1, 16917, Control_c, 0, 64, 68
1, 16932, Control_c, 0, 64, 80
1, 16934, Note_off_c, 0, 66, 62
1, 16947, Control_c, 0, 64, 127
1, 16985, Note_on_c, 0, 57, 56
1, 17012, Note_off_c, 0, 60, 59
1, 17052, Note_off_c, 0, 81, 59
1, 17054, Note_off_c, 0, 57, 62
1, 17057, Control_c, 0, 64, 110
1, 17066, Note_on_c, 0, 71, 82
1, 17067, Note_on_c, 0, 52, 59
1, 17072, Control_c, 0, 64, 79
1, 17086, Note_off_c, 0, 71, 71
1, 17087, Control_c, 0, 64, 60
1, 17102, Control_c, 0, 64, 0
1, 17128, Note_off_c, 0, 52, 58
1, 17160, Note_on_c, 0, 59, 58
1, 17256, Note_on_c, 0, 62, 63
1, 17261, Note_off_c, 0, 59, 54
1, 17267, Note_on_c, 0, 72, 80
1, 17292, Note_off_c, 0, 72, 63
1, 17325, Note_on_c, 0, 74, 91
1, 17333, Note_on_c, 0, 71, 86
1, 17337, Note_on_c, 0, 67, 76
1, 17342, Note_off_c, 0, 62, 61
1, 17384, Control_c, 0, 64, 16
1, 17399, Control_c, 0, 64, 50
1, 17414, Control_c, 0, 64, 65
1, 17429, Control_c, 0, 64, 74
1, 17437, Note_on_c, 0, 62, 60
1, 17444, Control_c, 0, 64, 91
1, 17455, Note_off_c, 0, 67, 62
1, 17458, Control_c, 0, 64, 127
1, 17492, Note_on_c, 0, 59, 62
1, 17509, Note_off_c, 0, 62, 56
1, 17573, Note_off_c, 0, 59, 57
1, 17587, Note_on_c, 0, 52, 56
1, 17591, Note_on_c, 0, 68, 92
1, 17591, Control_c, 0, 64, 79
1, 17607, Control_c, 0, 64, 52
1, 17622, Control_c, 0, 64, 0
1, 17632, Note_off_c, 0, 71, 58
1, 17652, Control_c, 0, 64, 25
1, 17667, Control_c, 0, 64, 50
1, 17681, Control_c, 0, 64, 65
1, 17686, Note_off_c, 0, 52, 62
1, 17688, Note_on_c, 0, 59, 53
1, 17696, Control_c, 0, 64, 79
1, 17719, Control_c, 0, 64, 123
1, 17734, Control_c, 0, 64, 127
1, 17761, Note_off_c, 0, 68, 60
1, 17766, Note_off_c, 0, 74, 58
1, 17792, Note_off_c, 0, 59, 59
1, 17794, Note_on_c, 0, 62, 61
1, 17795, Note_on_c, 0, 76, 59
1, 17796, Note_on_c, 0, 72, 56
1, 17847, Note_off_c, 0, 72, 56
1, 17867, Control_c, 0, 64, 92
1, 17871, Note_off_c, 0, 76, 62
1, 17877, Note_off_c, 0, 62, 61
1, 17878, Note_on_c, 0, 74, 66
1, 17880, Note_on_c, 0, 77, 66
1, 17881, Control_c, 0, 64, 64
1, 17891, Note_on_c, 0, 69, 71
1, 17896, Control_c, 0, 64, 0
1, 17912, Note_off_c, 0, 74, 61
1, 17926, Control_c, 0, 64, 38
1, 17941, Control_c, 0, 64, 57
1, 17949, Note_off_c, 0, 69, 58
1, 17951, Note_off_c, 0, 77, 63
1, 17955, Control_c, 0, 64, 68
1, 17970, Control_c, 0, 64, 84
1, 17985, Control_c, 0, 64, 127
1, 17988, Note_on_c, 0, 62, 63
1, 18030, Note_off_c, 0, 62, 59
1, 18059, Note_on_c, 0, 59, 60
1, 18092, Note_off_c, 0, 59, 65
1, 18133, Control_c, 0, 64, 82
1, 18148, Control_c, 0, 64, 65
1, 18159, Note_on_c, 0, 57, 67
1, 18163, Control_c, 0, 64, 40
1, 18178, Control_c, 0, 64, 46
1, 18181, Note_on_c, 0, 52, 27
1, 18193, Control_c, 0, 64, 60
1, 18201, Note_off_c, 0, 57, 62
1, 18207, Control_c, 0, 64, 67
1, 18214, Note_off_c, 0, 52, 54
1, 18222, Control_c, 0, 64, 78
1, 18234, Note_on_c, 0, 65, 73
1, 18237, Control_c, 0, 64, 117
1, 18239, Note_on_c, 0, 59, 42
1, 18252, Control_c, 0, 64, 127
1, 18294, Note_off_c, 0, 65, 62
1, 18308, Note_off_c, 0, 59, 60
1, 18314, Note_on_c, 0, 69, 61
1, 18324, Note_on_c, 0, 62, 64
1, 18326, Control_c, 0, 64, 105
1, 18333, Note_off_c, 0, 69, 63
1, 18340, Control_c, 0, 64, 68
1, 18355, Control_c, 0, 64, 0
1, 18373, Note_off_c, 0, 62, 58
1, 18389, Note_on_c, 0, 81, 84
1, 18401, Note_on_c, 0, 65, 78
1, 18408, Note_off_c, 0, 81, 73
1, 18512, Control_c, 0, 64, 35
1, 18513, Note_on_c, 0, 62, 54
1, 18527, Control_c, 0, 64, 57
1, 18541, Control_c, 0, 64, 68
1, 18544, Note_off_c, 0, 65, 55
1, 18556, Control_c, 0, 64, 78
1, 18568, Note_off_c, 0, 62, 55
1, 18571, Control_c, 0, 64, 101
1, 18583, Note_on_c, 0, 59, 47
1, 18586, Control_c, 0, 64, 127
1, 18612, Note_on_c, 0, 81, 71
1, 18638, Note_off_c, 0, 59, 49
1, 18653, Note_on_c, 0, 52, 55
1, 18671, Note_on_c, 0, 71, 80
1, 18673, Note_off_c, 0, 81, 65
1, 18727, Note_off_c, 0, 52, 63
1, 18762, Note_on_c, 0, 59, 62
1, 18839, Note_on_c, 0, 62, 70
1, 18839, Note_off_c, 0, 59, 59
1, 18923, Note_off_c, 0, 62, 60
1, 18925, Note_on_c, 0, 66, 79
1, 18929, Note_on_c, 0, 74, 89
1, 18955, Control_c, 0, 64, 90
1, 18970, Control_c, 0, 64, 68
1, 18971, Note_off_c, 0, 71, 60
1, 18985, Control_c, 0, 64, 53
1, 19000, Control_c, 0, 64, 55
1, 19008, Note_off_c, 0, 66, 63
1, 19010, Note_on_c, 0, 62, 59
1, 19015, Control_c, 0, 64, 64
1, 19029, Control_c, 0, 64, 72
1, 19044, Control_c, 0, 64, 96
1, 19059, Control_c, 0, 64, 127
1, 19068, Note_on_c, 0, 59, 56
1, 19068, Note_off_c, 0, 62, 63
1, 19090, Note_off_c, 0, 59, 63
1, 19177, Control_c, 0, 64, 84
1, 19179, Note_off_c, 0, 74, 60
1, 19192, Control_c, 0, 64, 51
1, 19203, Note_on_c, 0, 64, 71
1, 19206, Note_on_c, 0, 45, 53
1, 19215, Control_c, 0, 64, 0
1, 19228, Note_off_c, 0, 64, 69
1, 19262, Note_off_c, 0, 45, 59
1, 19280, Note_on_c, 0, 52, 56
1, 19334, Note_off_c, 0, 52, 62
1, 19367, Note_on_c, 0, 57, 58
1, 19400, Note_on_c, 0, 66, 67
1, 19430, Note_off_c, 0, 66, 62
1, 19449, Note_off_c, 0, 57, 62
1, 19456, Note_on_c, 0, 58, 69
1, 19460, Note_on_c, 0, 68, 84
1, 19470, Note_on_c, 0, 64, 77
1, 19482, Control_c, 0, 64, 13
1, 19497, Control_c, 0, 64, 53
1, 19512, Control_c, 0, 64, 65
1, 19519, Note_off_c, 0, 58, 64
1, 19526, Control_c, 0, 64, 73
1, 19541, Control_c, 0, 64, 85
1, 19546, Note_on_c, 0, 57, 71
1, 19556, Control_c, 0, 64, 123
1, 19571, Control_c, 0, 64, 127
1, 19628, Note_off_c, 0, 57, 62
1, 19632, Note_on_c, 0, 52, 69
1, 19713, Note_off_c, 0, 52, 61
1, 19717, Note_on_c, 0, 45, 59
1, 19719, Note_on_c, 0, 59, 87
1, 19719, Control_c, 0, 64, 78
1, 19734, Control_c, 0, 64, 57
1, 19735, Note_off_c, 0, 64, 58
1, 19749, Control_c, 0, 64, 0
1, 19777, Note_off_c, 0, 59, 65
1, 19778, Control_c, 0, 64, 43
1, 19793, Control_c, 0, 64, 59
1, 19805, Note_off_c, 0, 68, 61
1, 19808, Control_c, 0, 64, 69
1, 19811, Note_off_c, 0, 45, 60
1, 19816, Note_on_c, 0, 52, 63
1, 19823, Control_c, 0, 64, 84
1, 19838, Control_c, 0, 64, 127
1, 19878, Note_off_c, 0, 52, 64
1, 19916, Note_on_c, 0, 57, 57
1, 19932, Note_on_c, 0, 72, 67
1, 19934, Note_on_c, 0, 69, 63
1, 19957, Note_off_c, 0, 72, 67
1, 19963, Note_off_c, 0, 69, 64
1, 19964, Note_off_c, 0, 57, 61
1, 19978, Control_c, 0, 64, 88
1, 19993, Control_c, 0, 64, 64
1, 20009, Control_c, 0, 64, 0
1, 20015, Note_on_c, 0, 76, 73
1, 20025, Note_on_c, 0, 60, 55
1, 20038, Note_on_c, 0, 72, 47
1, 20038, Control_c, 0, 64, 28
1, 20053, Control_c, 0, 64, 55
1, 20061, Note_off_c, 0, 72, 59
1, 20067, Note_off_c, 0, 76, 63
1, 20068, Control_c, 0, 64, 69
1, 20083, Control_c, 0, 64, 91
1, 20083, Note_off_c, 0, 60, 56
1, 20097, Control_c, 0, 64, 127
1, 20107, Note_on_c, 0, 57, 52
1, 20202, Note_off_c, 0, 57, 58
1, 20217, Note_on_c, 0, 52, 48
1, 20252, Note_off_c, 0, 52, 65
1, 20261, Control_c, 0, 67, 23
1, 20275, Control_c, 0, 67, 62
1, 20290, Control_c, 0, 67, 103
1, 20305, Control_c, 0, 64, 73
1, 20305, Control_c, 0, 67, 127
1, 20317, Note_on_c, 0, 65, 61
1, 20320, Control_c, 0, 64, 32
1, 20335, Control_c, 0, 64, 0
1, 20336, Note_off_c, 0, 65, 63
1, 20406, Note_on_c, 0, 57, 53
1, 20409, Note_on_c, 0, 64, 51
1, 20431, Note_off_c, 0, 57, 62
1, 20434, Note_off_c, 0, 64, 63
1, 20488, Note_on_c, 0, 50, 63
1, 20521, Note_off_c, 0, 50, 65
1, 20564, Note_on_c, 0, 69, 74
1, 20565, Note_on_c, 0, 65, 63
1, 20588, Note_off_c, 0, 69, 70
1, 20595, Note_off_c, 0, 65, 64
1, 20649, Note_on_c, 0, 62, 52
1, 20652, Note_on_c, 0, 57, 58
1, 20671, Note_off_c, 0, 62, 61
1, 20674, Note_off_c, 0, 57, 61
1, 20732, Note_on_c, 0, 50, 62
1, 20738, Note_on_c, 0, 74, 78
1, 20741, Note_on_c, 0, 65, 72
1, 20760, Note_off_c, 0, 50, 63
1, 20760, Note_off_c, 0, 74, 70
1, 20767, Note_off_c, 0, 65, 67
1, 20807, Note_on_c, 0, 77, 94
1, 20814, Note_on_c, 0, 65, 74
1, 20829, Note_off_c, 0, 77, 67
1, 20840, Note_off_c, 0, 65, 64
1, 20892, Note_on_c, 0, 60, 56
1, 20893, Note_on_c, 0, 56, 67
1, 20913, Note_off_c, 0, 60, 62
1, 20922, Note_off_c, 0, 56, 66
1, 20971, Note_on_c, 0, 50, 64
1, 20973, Note_on_c, 0, 56, 57
1, 20995, Note_off_c, 0, 56, 60
1, 20999, Note_off_c, 0, 50, 66
1, 21058, Note_on_c, 0, 76, 85
1, 21063, Note_on_c, 0, 65, 72
1, 21081, Note_off_c, 0, 76, 71
1, 21091, Note_off_c, 0, 65, 67
1, 21131, Note_on_c, 0, 59, 68
1, 21134, Note_on_c, 0, 55, 65
1, 21159, Note_off_c, 0, 59, 65
1, 21165, Note_off_c, 0, 55, 65
1, 21220, Note_on_c, 0, 50, 60
1, 21224, Note_on_c, 0, 81, 77
1, 21246, Note_off_c, 0, 81, 72
1, 21248, Note_off_c, 0, 50, 63
1, 21294, Note_on_c, 0, 69, 86
1, 21300, Note_on_c, 0, 64, 79
1, 21314, Note_off_c, 0, 69, 70
1, 21323, Note_off_c, 0, 64, 71
1, 21377, Note_on_c, 0, 55, 68
1, 21380, Note_on_c, 0, 60, 63
1, 21407, Note_off_c, 0, 55, 64
1, 21409, Note_off_c, 0, 60, 66
1, 21475, Note_on_c, 0, 48, 59
1, 21477, Note_on_c, 0, 71, 86
1, 21481, Note_on_c, 0, 64, 69
1, 21484, Note_on_c, 0, 55, 50
1, 21496, Note_off_c, 0, 71, 72
1, 21504, Note_off_c, 0, 48, 63
1, 21508, Note_off_c, 0, 64, 69
1, 21512, Note_off_c, 0, 55, 37
1, 21539, Note_on_c, 0, 72, 94
1, 21549, Note_on_c, 0, 64, 81
1, 21565, Control_c, 0, 64, 45
1, 21569, Note_off_c, 0, 64, 71
1, 21580, Control_c, 0, 64, 64
1, 21592, Note_off_c, 0, 72, 65
1, 21595, Control_c, 0, 64, 76
1, 21611, Control_c, 0, 64, 127
1, 21634, Note_on_c, 0, 60, 65
1, 21636, Note_on_c, 0, 54, 72
1, 21664, Note_off_c, 0, 60, 66
1, 21665, Note_off_c, 0, 54, 67
1, 21722, Note_on_c, 0, 54, 70
1, 21723, Note_on_c, 0, 48, 74
1, 21747, Note_off_c, 0, 54, 70
1, 21771, Note_off_c, 0, 48, 60
1, 21803, Control_c, 0, 64, 82
1, 21808, Note_on_c, 0, 53, 94
1, 21818, Control_c, 0, 64, 56
1, 21828, Note_off_c, 0, 53, 71
1, 21833, Control_c, 0, 64, 0
1, 21887, Note_on_c, 0, 60, 67
1, 21896, Note_on_c, 0, 53, 63
1, 21914, Note_off_c, 0, 60, 66
1, 21928, Note_off_c, 0, 53, 65
1, 21972, Note_on_c, 0, 48, 71
1, 21981, Note_on_c, 0, 53, 57
1, 22004, Note_off_c, 0, 53, 60
1, 22010, Note_off_c, 0, 48, 66
1, 22062, Note_on_c, 0, 52, 92
1, 22084, Note_off_c, 0, 52, 73
1, 22157, Note_on_c, 0, 60, 50
1, 22160, Note_on_c, 0, 52, 52
1, 22178, Note_off_c, 0, 60, 61
1, 22185, Note_off_c, 0, 52, 59
1, 22244, Note_on_c, 0, 52, 47
1, 22245, Note_on_c, 0, 48, 58
1, 22272, Note_off_c, 0, 52, 54
1, 22276, Note_off_c, 0, 48, 65
1, 22333, Note_on_c, 0, 62, 65
1, 22363, Note_off_c, 0, 62, 66
1, 22403, Note_on_c, 0, 52, 50
1, 22411, Note_on_c, 0, 59, 50
1, 22434, Note_off_c, 0, 59, 58
1, 22434, Note_off_c, 0, 52, 66
1, 22500, Note_on_c, 0, 47, 57
1, 22502, Note_on_c, 0, 52, 52
1, 22527, Note_off_c, 0, 52, 58
1, 22533, Note_off_c, 0, 47, 64
1, 22582, Note_on_c, 0, 68, 64
1, 22588, Note_on_c, 0, 62, 61
1, 22610, Note_off_c, 0, 68, 66
1, 22617, Note_off_c, 0, 62, 64
1, 22651, Note_on_c, 0, 59, 56
1, 22655, Note_on_c, 0, 53, 56
1, 22680, Note_off_c, 0, 59, 65
1, 22687, Note_off_c, 0, 53, 64
1, 22742, Note_on_c, 0, 47, 60
1, 22761, Note_on_c, 0, 71, 63
1, 22772, Note_on_c, 0, 62, 39
1, 22774, Note_off_c, 0, 47, 64
1, 22778, Note_off_c, 0, 71, 64
1, 22807, Note_off_c, 0, 62, 0
1, 22807, Note_on_c, 0, 62, 54
1, 22812, Note_on_c, 0, 74, 84
1, 22840, Note_off_c, 0, 62, 68
1, 22844, Note_off_c, 0, 74, 66
1, 22904, Note_on_c, 0, 59, 58
1, 22906, Note_on_c, 0, 56, 64
1, 22926, Note_off_c, 0, 59, 62
1, 22955, Note_off_c, 0, 56, 0
1, 22989, Note_on_c, 0, 46, 65
1, 22994, Poly_aftertouch_c, 0, 56, 0
1, 23020, Note_off_c, 0, 46, 65
1, 23067, Note_on_c, 0, 72, 83
1, 23072, Note_on_c, 0, 65, 72
1, 23097, Note_off_c, 0, 65, 68
1, 23098, Note_off_c, 0, 72, 60
1, 23107, Control_c, 0, 64, 11
1, 23122, Control_c, 0, 64, 52
1, 23137, Control_c, 0, 64, 64
1, 23147, Note_on_c, 0, 56, 73
1, 23148, Note_on_c, 0, 59, 63
1, 23152, Control_c, 0, 64, 74
1, 23167, Control_c, 0, 64, 114
1, 23175, Note_off_c, 0, 59, 63
1, 23182, Control_c, 0, 64, 127
1, 23201, Note_off_c, 0, 56, 61
1, 23226, Note_on_c, 0, 77, 75
1, 23230, Note_on_c, 0, 71, 59
1, 23237, Note_on_c, 0, 46, 43
1, 23241, Note_off_c, 0, 77, 67
1, 23248, Note_off_c, 0, 71, 63
1, 23268, Note_off_c, 0, 46, 54
1, 23301, Control_c, 0, 64, 85
1, 23316, Control_c, 0, 64, 59
1, 23328, Note_on_c, 0, 63, 79
1, 23329, Note_on_c, 0, 54, 88
1, 23329, Note_on_c, 0, 58, 80
1, 23331, Control_c, 0, 64, 0
1, 23352, Note_off_c, 0, 54, 70
1, 23355, Note_off_c, 0, 58, 68
1, 23369, Note_off_c, 0, 63, 58
1, 23380, Note_on_c, 0, 46, 77
1, 23384, Note_on_c, 0, 39, 81
1, 23408, Note_off_c, 0, 46, 67
1, 23413, Note_off_c, 0, 39, 63
1, 23434, Control_c, 0, 67, 106
1, 23449, Control_c, 0, 67, 73
1, 23464, Control_c, 0, 67, 31
1, 23470, Note_on_c, 0, 46, 86
1, 23472, Note_on_c, 0, 39, 77
1, 23479, Control_c, 0, 67, 0
1, 23495, Note_off_c, 0, 46, 69
1, 23498, Note_off_c, 0, 39, 66
1, 23504, Note_on_c, 0, 58, 92
1, 23505, Note_on_c, 0, 54, 89
1, 23517, Note_on_c, 0, 64, 71
1, 23528, Note_off_c, 0, 54, 72
1, 23531, Note_off_c, 0, 58, 64
1, 23544, Note_off_c, 0, 64, 67
1, 23567, Note_on_c, 0, 65, 95
1, 23571, Note_on_c, 0, 54, 98
1, 23575, Note_on_c, 0, 59, 87
1, 23597, Control_c, 0, 64, 15
1, 23605, Note_on_c, 0, 55, 49
1, 23612, Control_c, 0, 64, 55
1, 23627, Control_c, 0, 64, 69
1, 23633, Note_off_c, 0, 55, 38
1, 23642, Control_c, 0, 64, 92
1, 23654, Note_on_c, 0, 47, 95
1, 23657, Control_c, 0, 64, 127
1, 23660, Note_off_c, 0, 65, 64
1, 23661, Note_on_c, 0, 39, 73
1, 23675, Note_off_c, 0, 59, 63
1, 23677, Note_off_c, 0, 47, 68
1, 23678, Note_off_c, 0, 54, 61
1, 23694, Note_off_c, 0, 39, 65
1, 23758, Note_on_c, 0, 39, 78
1, 23761, Note_on_c, 0, 47, 89
1, 23783, Note_off_c, 0, 47, 65
1, 23795, Note_off_c, 0, 39, 63
1, 23826, Note_on_c, 0, 51, 98
1, 23827, Control_c, 0, 64, 119
1, 23841, Control_c, 0, 64, 78
1, 23856, Control_c, 0, 64, 36
1, 23865, Note_off_c, 0, 51, 65
1, 23871, Control_c, 0, 64, 0
1, 23930, Note_on_c, 0, 46, 81
1, 23932, Note_on_c, 0, 39, 74
1, 23954, Note_off_c, 0, 46, 67
1, 23961, Note_off_c, 0, 39, 66
1, 24006, Note_on_c, 0, 46, 82
1, 24014, Note_on_c, 0, 39, 76
1, 24037, Note_off_c, 0, 46, 68
1, 24041, Note_off_c, 0, 39, 65
1, 24096, Note_on_c, 0, 53, 101
1, 24169, Control_c, 0, 64, 59
1, 24175, Note_on_c, 0, 39, 60
1, 24178, Note_on_c, 0, 47, 78
1, 24184, Control_c, 0, 64, 73
1, 24198, Note_off_c, 0, 53, 65
1, 24198, Control_c, 0, 64, 109
1, 24204, Note_off_c, 0, 47, 65
1, 24208, Note_off_c, 0, 39, 67
1, 24213, Control_c, 0, 64, 127
1, 24277, Note_on_c, 0, 47, 60
1, 24279, Note_on_c, 0, 39, 71
1, 24303, Note_off_c, 0, 47, 66
1, 24314, Note_off_c, 0, 39, 58
1, 24346, Control_c, 0, 67, 40
1, 24361, Control_c, 0, 67, 80
1, 24376, Control_c, 0, 67, 119
1, 24390, Control_c, 0, 64, 91
1, 24390, Control_c, 0, 67, 127
1, 24405, Control_c, 0, 64, 69
1, 24417, Note_on_c, 0, 62, 58
1, 24420, Control_c, 0, 64, 53
1, 24435, Control_c, 0, 64, 0
1, 24439, Note_off_c, 0, 62, 64
1, 24499, Note_on_c, 0, 52, 56
1, 24508, Note_on_c, 0, 59, 49
1, 24530, Note_off_c, 0, 52, 66
1, 24532, Note_off_c, 0, 59, 57
1, 24592, Note_on_c, 0, 47, 57
1, 24609, Note_on_c, 0, 52, 31
1, 24610, Note_off_c, 0, 52, 127
1, 24625, Note_off_c, 0, 47, 64
1, 24673, Note_on_c, 0, 68, 69
1, 24684, Note_on_c, 0, 62, 56
1, 24701, Note_off_c, 0, 68, 67
1, 24713, Note_off_c, 0, 62, 64
1, 24751, Note_on_c, 0, 53, 61
1, 24758, Note_on_c, 0, 59, 50
1, 24780, Note_off_c, 0, 59, 61
1, 24783, Note_off_c, 0, 53, 63
1, 24834, Note_on_c, 0, 47, 63
1, 24846, Note_on_c, 0, 71, 75
1, 24849, Note_on_c, 0, 62, 67
1, 24864, Note_off_c, 0, 47, 65
1, 24868, Note_off_c, 0, 71, 70
1, 24876, Note_off_c, 0, 62, 67
1, 24915, Note_on_c, 0, 74, 85
1, 24921, Note_on_c, 0, 62, 82
1, 24941, Note_off_c, 0, 62, 71
1, 24948, Note_off_c, 0, 74, 63
1, 24995, Note_on_c, 0, 59, 58
1, 24997, Note_on_c, 0, 56, 69
1, 25022, Note_off_c, 0, 59, 64
1, 25023, Note_off_c, 0, 56, 66
1, 25078, Note_on_c, 0, 56, 59
1, 25084, Note_on_c, 0, 46, 60
1, 25100, Note_off_c, 0, 56, 61
1, 25114, Note_off_c, 0, 46, 63
1, 25171, Note_on_c, 0, 72, 77
1, 25173, Note_on_c, 0, 65, 68
1, 25204, Note_off_c, 0, 72, 67
1, 25210, Note_off_c, 0, 65, 66
1, 25237, Note_on_c, 0, 56, 62
1, 25238, Note_on_c, 0, 59, 63
1, 25267, Note_off_c, 0, 59, 64
1, 25308, Note_off_c, 0, 56, 64
1, 25323, Note_on_c, 0, 46, 66
1, 25338, Note_on_c, 0, 71, 64
1, 25342, Note_on_c, 0, 77, 63
1, 25350, Note_off_c, 0, 46, 65
1, 25354, Note_off_c, 0, 71, 64
1, 25359, Note_off_c, 0, 77, 63
1, 25370, Control_c, 0, 64, 61
1, 25385, Control_c, 0, 64, 77
1, 25399, Control_c, 0, 64, 127
1, 25429, Control_c, 0, 67, 117
1, 25442, Note_on_c, 0, 63, 82
1, 25444, Note_on_c, 0, 54, 83
1, 25444, Control_c, 0, 67, 87
1, 25448, Note_on_c, 0, 58, 75
1, 25459, Control_c, 0, 67, 56
1, 25470, Note_off_c, 0, 54, 68
1, 25473, Control_c, 0, 64, 83
1, 25473, Control_c, 0, 67, 16
1, 25475, Note_off_c, 0, 58, 66
1, 25488, Control_c, 0, 64, 60
1, 25488, Control_c, 0, 67, 0
1, 25501, Note_off_c, 0, 63, 61
1, 25503, Control_c, 0, 64, 0
1, 25507, Note_on_c, 0, 39, 63
1, 25507, Note_on_c, 0, 46, 58
1, 25532, Note_off_c, 0, 46, 62
1, 25537, Note_off_c, 0, 39, 64
1, 25583, Note_on_c, 0, 46, 72
1, 25585, Note_on_c, 0, 39, 67
1, 25609, Note_off_c, 0, 46, 66
1, 25615, Note_off_c, 0, 39, 63
1, 25619, Note_on_c, 0, 58, 86
1, 25621, Note_on_c, 0, 54, 84
1, 25638, Note_on_c, 0, 64, 55
1, 25645, Note_off_c, 0, 54, 70
1, 25648, Note_on_c, 0, 63, 23
1, 25656, Note_off_c, 0, 58, 57
1, 25658, Note_off_c, 0, 64, 62
1, 25676, Note_off_c, 0, 63, 41
1, 25680, Poly_aftertouch_c, 0, 58, 0
1, 25684, Note_on_c, 0, 54, 97
1, 25686, Note_on_c, 0, 65, 93
1, 25690, Note_on_c, 0, 58, 46
1, 25691, Note_off_c, 0, 58, 127
1, 25696, Note_on_c, 0, 59, 84
1, 25740, Control_c, 0, 64, 60
1, 25755, Control_c, 0, 64, 76
1, 25764, Note_on_c, 0, 47, 89
1, 25769, Note_on_c, 0, 39, 71
1, 25769, Control_c, 0, 64, 127
1, 25785, Note_off_c, 0, 65, 63
1, 25787, Note_off_c, 0, 47, 70
1, 25797, Note_off_c, 0, 59, 62
1, 25801, Note_off_c, 0, 39, 62
1, 25801, Note_off_c, 0, 54, 62
1, 25857, Note_on_c, 0, 47, 87
1, 25858, Note_on_c, 0, 39, 80
1, 25890, Note_off_c, 0, 47, 63
1, 25894, Note_off_c, 0, 39, 64
1, 25955, Note_on_c, 0, 51, 100
1, 25969, Control_c, 0, 64, 76
1, 25984, Control_c, 0, 64, 52
1, 25996, Note_off_c, 0, 51, 66
1, 25999, Control_c, 0, 64, 0
1, 26043, Note_on_c, 0, 46, 86
1, 26044, Note_on_c, 0, 39, 81
1, 26067, Note_off_c, 0, 46, 68
1, 26076, Note_off_c, 0, 39, 67
1, 26125, Note_on_c, 0, 46, 85
1, 26130, Note_on_c, 0, 39, 84
1, 26161, Note_off_c, 0, 46, 64
1, 26166, Note_off_c, 0, 39, 65
1, 26217, Note_on_c, 0, 53, 100
1, 26305, Note_on_c, 0, 47, 82
1, 26307, Note_on_c, 0, 39, 72
1, 26330, Note_off_c, 0, 47, 66
1, 26334, Note_off_c, 0, 39, 65
1, 26396, Note_on_c, 0, 47, 73
1, 26399, Note_on_c, 0, 39, 77
1, 26402, Note_off_c, 0, 53, 61
1, 26426, Note_off_c, 0, 47, 65
1, 26435, Note_off_c, 0, 39, 64
1, 26474, Control_c, 0, 67, 20
1, 26489, Control_c, 0, 67, 45
1, 26503, Control_c, 0, 67, 82
1, 26518, Control_c, 0, 67, 120
1, 26529, Note_on_c, 0, 50, 74
1, 26533, Control_c, 0, 67, 127
1, 26562, Note_off_c, 0, 50, 64
1, 26611, Note_on_c, 0, 45, 72
1, 26638, Note_off_c, 0, 45, 65
1, 26701, Note_on_c, 0, 44, 80
1, 26739, Note_off_c, 0, 44, 60
1, 26787, Note_on_c, 0, 42, 84
1, 26797, Note_on_c, 0, 56, 80
1, 26801, Note_on_c, 0, 50, 73
1, 26814, Note_off_c, 0, 42, 65
1, 26830, Note_off_c, 0, 50, 65
1, 26832, Note_off_c, 0, 56, 64
1, 26871, Note_on_c, 0, 41, 82
1, 26911, Note_off_c, 0, 41, 64
1, 26959, Note_on_c, 0, 40, 76
1, 26966, Note_on_c, 0, 59, 85
1, 26971, Note_on_c, 0, 50, 70
1, 26985, Note_off_c, 0, 40, 66
1, 26992, Note_off_c, 0, 59, 66
1, 26997, Note_off_c, 0, 50, 67
1, 27045, Note_on_c, 0, 50, 85
1, 27045, Note_on_c, 0, 62, 84
1, 27049, Note_on_c, 0, 38, 66
1, 27050, Note_on_c, 0, 53, 79
1, 27055, Note_on_c, 0, 43, 64
1, 27078, Note_off_c, 0, 50, 65
1, 27079, Note_off_c, 0, 53, 66
1, 27079, Note_off_c, 0, 38, 64
1, 27087, Note_off_c, 0, 43, 64
1, 27091, Note_off_c, 0, 62, 63
1, 27363, Note_on_c, 0, 60, 66
1, 27364, Note_on_c, 0, 54, 59
1, 27365, Note_on_c, 0, 44, 44
1, 27370, Note_on_c, 0, 50, 51
1, 27380, Note_on_c, 0, 38, 33
1, 27396, Note_off_c, 0, 44, 61
1, 27397, Note_off_c, 0, 54, 65
1, 27397, Note_off_c, 0, 60, 65
1, 27400, Note_off_c, 0, 50, 63
1, 27415, Note_off_c, 0, 38, 49
1, 27675, Note_on_c, 0, 59, 50
1, 27677, Note_on_c, 0, 50, 47
1, 27678, Note_on_c, 0, 38, 36
1, 27680, Note_on_c, 0, 53, 47
1, 27684, Note_on_c, 0, 45, 34
1, 27712, Note_off_c, 0, 59, 65
1, 27714, Note_off_c, 0, 50, 64
1, 27720, Note_off_c, 0, 53, 64
1, 27720, Note_off_c, 0, 38, 62
1, 27721, Note_off_c, 0, 45, 61
1, 28032, Note_on_c, 0, 38, 23
1, 28036, Note_on_c, 0, 56, 42
1, 28040, Note_on_c, 0, 46, 18
1, 28042, Note_on_c, 0, 50, 37
1, 28049, Note_on_c, 0, 52, 27
1, 28090, Note_off_c, 0, 50, 60
1, 28092, Note_off_c, 0, 56, 61
1, 28104, Note_off_c, 0, 46, 60
1, 28105, Note_off_c, 0, 38, 57
1, 28114, Note_off_c, 0, 52, 57
1, 28432, Note_on_c, 0, 57, 46
1, 28433, Note_on_c, 0, 52, 43
1, 28472, Note_off_c, 0, 57, 64
1, 28480, Note_off_c, 0, 52, 64
1, 28513, Note_on_c, 0, 48, 41
1, 28544, Note_off_c, 0, 48, 49
1, 28612, Note_on_c, 0, 52, 40
1, 28652, Note_off_c, 0, 52, 65
1, 28694, Note_on_c, 0, 60, 59
1, 28731, Note_off_c, 0, 60, 63
1, 28778, Note_on_c, 0, 54, 51
1, 28784, Note_on_c, 0, 57, 32
1, 28817, Note_off_c, 0, 57, 46
1, 28836, Note_off_c, 0, 54, 60
1, 28858, Note_on_c, 0, 56, 59
1, 28903, Note_off_c, 0, 56, 64
1, 28941, Note_on_c, 0, 57, 64
1, 28982, Note_off_c, 0, 57, 64
1, 29028, Note_on_c, 0, 60, 60
1, 29046, Note_on_c, 0, 45, 46
1, 29046, Note_off_c, 0, 60, 63
1, 29091, Note_off_c, 0, 45, 62
1, 29121, Note_on_c, 0, 52, 50
1, 29152, Note_off_c, 0, 52, 62
1, 29195, Note_on_c, 0, 60, 63
1, 29246, Note_off_c, 0, 60, 62
1, 29279, Note_on_c, 0, 57, 56
1, 29305, Note_on_c, 0, 53, 38
1, 29306, Note_off_c, 0, 57, 65
1, 29344, Note_off_c, 0, 53, 60
1, 29371, Note_on_c, 0, 56, 55
1, 29407, Note_off_c, 0, 56, 65
1, 29440, Note_on_c, 0, 57, 70
1, 29478, Note_off_c, 0, 57, 66
1, 29517, Note_on_c, 0, 60, 68
1, 29535, Note_on_c, 0, 45, 51
1, 29545, Note_off_c, 0, 60, 65
1, 29583, Note_off_c, 0, 45, 60
1, 29611, Note_on_c, 0, 52, 59
1, 29647, Note_off_c, 0, 52, 64
1, 29694, Note_on_c, 0, 60, 69
1, 29743, Note_off_c, 0, 60, 62
1, 29770, Note_on_c, 0, 57, 73
1, 29785, Note_on_c, 0, 54, 63
1, 29794, Note_off_c, 0, 57, 67
1, 29843, Note_off_c, 0, 54, 62
1, 29867, Note_on_c, 0, 56, 65
1, 29914, Note_off_c, 0, 56, 62
1, 29937, Note_on_c, 0, 57, 67
1, 29984, Note_off_c, 0, 57, 61
1, 30014, Note_on_c, 0, 60, 71
1, 30036, Note_on_c, 0, 45, 53
1, 30041, Note_off_c, 0, 60, 68
1, 30087, Note_off_c, 0, 45, 61
1, 30116, Note_on_c, 0, 52, 61
1, 30155, Note_off_c, 0, 52, 65
1, 30188, Note_on_c, 0, 60, 72
1, 30227, Note_off_c, 0, 60, 64
1, 30262, Note_on_c, 0, 57, 66
1, 30293, Note_off_c, 0, 57, 66
1, 30325, Note_on_c, 0, 53, 10
1, 30367, Note_on_c, 0, 56, 56
1, 30372, Note_off_c, 0, 53, 35
1, 30399, Note_off_c, 0, 56, 64
1, 30435, Note_on_c, 0, 57, 63
1, 30477, Note_off_c, 0, 57, 64
1, 30510, Note_on_c, 0, 60, 59
1, 30531, Note_on_c, 0, 45, 48
1, 30535, Note_off_c, 0, 60, 64
1, 30608, Note_off_c, 0, 45, 58
1, 30610, Note_on_c, 0, 52, 48
1, 30645, Note_off_c, 0, 52, 65
1, 30701, Note_on_c, 0, 60, 51
1, 30755, Note_off_c, 0, 60, 57
1, 30781, Note_on_c, 0, 63, 51
1, 30796, Note_on_c, 0, 59, 41
1, 30832, Note_off_c, 0, 59, 58
1, 30845, Note_off_c, 0, 63, 50
1, 30851, Note_on_c, 0, 58, 56
1, 30860, Note_on_c, 0, 64, 54
1, 30898, Note_off_c, 0, 58, 60
1, 30907, Note_off_c, 0, 64, 60
1, 30926, Note_on_c, 0, 66, 61
1, 30933, Note_on_c, 0, 57, 55
1, 30978, Note_off_c, 0, 57, 63
1, 30979, Note_off_c, 0, 66, 56
1, 31000, Note_on_c, 0, 64, 69
1, 31007, Note_on_c, 0, 58, 67
1, 31060, Note_off_c, 0, 58, 57
1, 31068, Note_on_c, 0, 66, 74
1, 31073, Note_on_c, 0, 57, 61
1, 31077, Note_off_c, 0, 64, 62
1, 31115, Note_off_c, 0, 57, 65
1, 31125, Note_on_c, 0, 68, 73
1, 31133, Note_off_c, 0, 66, 64
1, 31149, Note_on_c, 0, 53, 69
1, 31157, Note_off_c, 0, 68, 67
1, 31213, Note_on_c, 0, 69, 78
1, 31229, Note_off_c, 0, 53, 61
1, 31237, Note_on_c, 0, 52, 65
1, 31270, Note_off_c, 0, 69, 61
1, 31273, Note_on_c, 0, 72, 76
1, 31297, Note_off_c, 0, 72, 69
1, 31300, Note_off_c, 0, 52, 63
1, 31311, Note_on_c, 0, 48, 45
1, 31338, Note_off_c, 0, 48, 53
1, 31342, Note_on_c, 0, 76, 79
1, 31354, Note_on_c, 0, 72, 54
1, 31365, Note_off_c, 0, 76, 70
1, 31379, Note_off_c, 0, 72, 36
1, 31453, Note_on_c, 0, 45, 55
1, 31496, Note_off_c, 0, 45, 62
1, 31514, Note_on_c, 0, 52, 58
1, 31525, Note_on_c, 0, 69, 72
1, 31527, Note_on_c, 0, 72, 64
1, 31544, Note_off_c, 0, 52, 66
1, 31588, Note_on_c, 0, 64, 83
1, 31592, Note_off_c, 0, 72, 47
1, 31595, Note_off_c, 0, 69, 41
1, 31596, Note_on_c, 0, 60, 78
1, 31641, Control_c, 0, 64, 34
1, 31655, Control_c, 0, 64, 56
1, 31670, Control_c, 0, 64, 67
1, 31685, Note_on_c, 0, 54, 68
1, 31685, Control_c, 0, 64, 76
1, 31692, Note_off_c, 0, 64, 62
1, 31700, Control_c, 0, 64, 98
1, 31714, Control_c, 0, 64, 127
1, 31742, Note_off_c, 0, 60, 57
1, 31756, Note_off_c, 0, 54, 62
1, 31767, Note_on_c, 0, 56, 66
1, 31822, Note_off_c, 0, 56, 59
1, 31833, Control_c, 0, 64, 99
1, 31848, Control_c, 0, 64, 80
1, 31856, Note_on_c, 0, 57, 73
1, 31863, Control_c, 0, 64, 68
1, 31878, Control_c, 0, 64, 58
1, 31893, Control_c, 0, 64, 39
1, 31893, Note_off_c, 0, 57, 63
1, 31907, Control_c, 0, 64, 0
1, 31938, Note_on_c, 0, 60, 73
1, 31950, Note_on_c, 0, 45, 54
1, 31963, Note_off_c, 0, 60, 68
1, 32003, Note_off_c, 0, 45, 59
1, 32031, Note_on_c, 0, 52, 58
1, 32069, Note_off_c, 0, 52, 65
1, 32099, Note_on_c, 0, 60, 67
1, 32150, Note_off_c, 0, 60, 61
1, 32175, Note_on_c, 0, 57, 69
1, 32186, Note_on_c, 0, 54, 57
1, 32205, Note_off_c, 0, 57, 65
1, 32237, Note_off_c, 0, 54, 62
1, 32265, Note_on_c, 0, 56, 63
1, 32304, Note_off_c, 0, 56, 66
1, 32347, Note_on_c, 0, 57, 63
1, 32393, Note_off_c, 0, 57, 60
1, 32423, Note_on_c, 0, 60, 58
1, 32427, Note_on_c, 0, 45, 47
1, 32444, Note_off_c, 0, 60, 62
1, 32497, Note_off_c, 0, 45, 57
1, 32504, Note_on_c, 0, 52, 49
1, 32537, Note_off_c, 0, 52, 66
1, 32600, Note_on_c, 0, 64, 56
1, 32683, Note_off_c, 0, 64, 60
1, 32684, Note_on_c, 0, 68, 56
1, 32699, Note_on_c, 0, 62, 46
1, 32745, Note_off_c, 0, 62, 62
1, 32762, Note_on_c, 0, 69, 67
1, 32770, Note_on_c, 0, 60, 60
1, 32772, Note_off_c, 0, 68, 61
1, 32826, Note_off_c, 0, 60, 61
1, 32834, Note_on_c, 0, 71, 75
1, 32835, Note_off_c, 0, 69, 64
1, 32845, Note_on_c, 0, 59, 64
1, 32900, Note_off_c, 0, 59, 61
1, 32906, Note_off_c, 0, 71, 62
1, 32907, Note_on_c, 0, 69, 80
1, 32913, Note_on_c, 0, 60, 70
1, 32975, Note_on_c, 0, 71, 77
1, 32980, Note_off_c, 0, 60, 64
1, 32981, Note_on_c, 0, 59, 70
1, 32983, Note_off_c, 0, 69, 64
1, 33008, Note_off_c, 0, 71, 60
1, 33022, Note_off_c, 0, 59, 63
1, 33055, Note_on_c, 0, 72, 79
1, 33061, Note_on_c, 0, 57, 73
1, 33115, Note_off_c, 0, 57, 58
1, 33121, Note_on_c, 0, 75, 85
1, 33127, Note_on_c, 0, 53, 71
1, 33130, Note_off_c, 0, 72, 61
1, 33183, Note_on_c, 0, 76, 81
1, 33193, Note_off_c, 0, 75, 61
1, 33205, Note_on_c, 0, 52, 64
1, 33208, Note_off_c, 0, 53, 61
1, 33228, Control_c, 0, 64, 36
1, 33237, Note_off_c, 0, 52, 64
1, 33242, Control_c, 0, 64, 50
1, 33250, Note_on_c, 0, 77, 73
1, 33257, Control_c, 0, 64, 52
1, 33258, Note_off_c, 0, 76, 65
1, 33259, Note_on_c, 0, 81, 71
1, 33272, Control_c, 0, 64, 45
1, 33276, Note_off_c, 0, 77, 66
1, 33282, Note_off_c, 0, 81, 70
1, 33286, Control_c, 0, 64, 27
1, 33301, Control_c, 0, 64, 0
1, 33348, Note_on_c, 0, 48, 60
1, 33433, Note_off_c, 0, 48, 62
1, 33439, Note_on_c, 0, 76, 69
1, 33443, Note_on_c, 0, 56, 55
1, 33449, Note_on_c, 0, 72, 55
1, 33478, Note_off_c, 0, 56, 65
1, 33494, Note_off_c, 0, 72, 57
1, 33494, Note_off_c, 0, 76, 58
1, 33503, Note_on_c, 0, 69, 82
1, 33511, Note_on_c, 0, 64, 75
1, 33575, Control_c, 0, 64, 45
1, 33591, Control_c, 0, 64, 62
1, 33606, Control_c, 0, 64, 70
1, 33607, Note_off_c, 0, 69, 63
1, 33609, Note_on_c, 0, 57, 60
1, 33618, Note_off_c, 0, 64, 60
1, 33621, Control_c, 0, 64, 82
1, 33636, Control_c, 0, 64, 104
1, 33647, Note_off_c, 0, 57, 65
1, 33651, Control_c, 0, 64, 127
1, 33675, Note_on_c, 0, 59, 65
1, 33739, Control_c, 0, 64, 106
1, 33748, Note_off_c, 0, 59, 58
1, 33754, Control_c, 0, 64, 89
1, 33765, Note_on_c, 0, 60, 70
1, 33769, Control_c, 0, 64, 74
1, 33783, Control_c, 0, 64, 62
1, 33798, Control_c, 0, 64, 29
1, 33813, Control_c, 0, 64, 0
1, 33817, Note_off_c, 0, 60, 60
1, 33839, Note_on_c, 0, 48, 51
1, 33846, Note_on_c, 0, 64, 55
1, 33872, Note_off_c, 0, 64, 63
1, 33929, Note_off_c, 0, 48, 62
1, 33931, Note_on_c, 0, 56, 50
1, 33965, Note_off_c, 0, 56, 65
1, 34026, Note_on_c, 0, 69, 50
1, 34036, Control_c, 0, 64, 12
1, 34050, Control_c, 0, 64, 26
1, 34065, Control_c, 0, 64, 35
1, 34080, Control_c, 0, 64, 43
1, 34081, Note_off_c, 0, 69, 57
1, 34095, Control_c, 0, 64, 49
1, 34106, Note_on_c, 0, 71, 55
1, 34109, Control_c, 0, 64, 54
1, 34111, Note_on_c, 0, 68, 43
1, 34124, Control_c, 0, 64, 57
1, 34139, Control_c, 0, 64, 60
1, 34154, Control_c, 0, 64, 62
1, 34156, Note_off_c, 0, 71, 58
1, 34166, Note_off_c, 0, 68, 58
1, 34169, Control_c, 0, 64, 64
1, 34191, Control_c, 0, 64, 66
1, 34195, Note_on_c, 0, 72, 63
1, 34196, Note_on_c, 0, 65, 44
1, 34206, Control_c, 0, 64, 69
1, 34221, Control_c, 0, 64, 74
1, 34230, Note_off_c, 0, 72, 62
1, 34236, Control_c, 0, 64, 79
1, 34242, Note_off_c, 0, 65, 62
1, 34251, Control_c, 0, 64, 85
1, 34265, Control_c, 0, 64, 90
1, 34269, Note_on_c, 0, 64, 54
1, 34277, Note_on_c, 0, 76, 61
1, 34280, Control_c, 0, 64, 95
1, 34295, Control_c, 0, 64, 99
1, 34295, Control_c, 0, 67, 122
1, 34309, Control_c, 0, 64, 103
1, 34309, Control_c, 0, 67, 112
1, 34322, Note_off_c, 0, 76, 57
1, 34324, Control_c, 0, 64, 103
1, 34324, Control_c, 0, 67, 103
1, 34327, Note_off_c, 0, 64, 53
1, 34339, Control_c, 0, 67, 94
1, 34340, Note_on_c, 0, 65, 60
1, 34348, Note_on_c, 0, 75, 63
1, 34354, Control_c, 0, 67, 85
1, 34369, Control_c, 0, 67, 77
1, 34376, Note_off_c, 0, 65, 60
1, 34383, Note_off_c, 0, 75, 63
1, 34385, Control_c, 0, 67, 68
1, 34400, Control_c, 0, 67, 57
1, 34414, Control_c, 0, 64, 103
1, 34414, Control_c, 0, 67, 49
1, 34415, Note_on_c, 0, 76, 73
1, 34421, Note_on_c, 0, 64, 53
1, 34429, Control_c, 0, 64, 102
1, 34429, Control_c, 0, 67, 40
1, 34444, Control_c, 0, 64, 102
1, 34444, Control_c, 0, 67, 30
1, 34459, Control_c, 0, 64, 101
1, 34459, Control_c, 0, 67, 20
1, 34472, Note_off_c, 0, 64, 54
1, 34474, Control_c, 0, 64, 99
1, 34474, Control_c, 0, 67, 11
1, 34483, Note_on_c, 0, 77, 81
1, 34487, Note_off_c, 0, 76, 64
1, 34488, Control_c, 0, 64, 97
1, 34488, Control_c, 0, 67, 0
1, 34496, Note_on_c, 0, 62, 66
1, 34503, Control_c, 0, 64, 95
1, 34518, Control_c, 0, 64, 94
1, 34550, Note_off_c, 0, 77, 62
1, 34554, Note_on_c, 0, 80, 82
1, 34560, Note_off_c, 0, 62, 62
1, 34562, Control_c, 0, 64, 94
1, 34567, Note_on_c, 0, 59, 68
1, 34577, Control_c, 0, 64, 95
1, 34592, Control_c, 0, 64, 96
1, 34599, Note_off_c, 0, 59, 63
1, 34606, Control_c, 0, 64, 97
1, 34611, Note_off_c, 0, 80, 64
1, 34621, Control_c, 0, 64, 98
1, 34631, Note_on_c, 0, 81, 83
1, 34636, Control_c, 0, 64, 99
1, 34641, Note_on_c, 0, 57, 75
1, 34666, Control_c, 0, 64, 98
1, 34680, Control_c, 0, 64, 95
1, 34695, Control_c, 0, 64, 87
1, 34700, Note_off_c, 0, 81, 62
1, 34701, Note_on_c, 0, 84, 92
1, 34708, Note_off_c, 0, 57, 61
1, 34710, Control_c, 0, 64, 76
1, 34725, Control_c, 0, 64, 65
1, 34726, Note_on_c, 0, 52, 52
1, 34730, Note_on_c, 0, 53, 65
1, 34740, Control_c, 0, 64, 50
1, 34755, Control_c, 0, 64, 41
1, 34768, Note_off_c, 0, 53, 62
1, 34769, Note_off_c, 0, 52, 63
1, 34769, Control_c, 0, 64, 45
1, 34780, Note_on_c, 0, 83, 88
1, 34782, Note_off_c, 0, 84, 64
1, 34784, Control_c, 0, 64, 51
1, 34794, Note_on_c, 0, 55, 51
1, 34799, Control_c, 0, 64, 59
1, 34814, Control_c, 0, 64, 65
1, 34820, Note_off_c, 0, 55, 62
1, 34829, Control_c, 0, 64, 76
1, 34836, Note_off_c, 0, 83, 60
1, 34837, Poly_aftertouch_c, 0, 53, 0
1, 34844, Control_c, 0, 64, 123
1, 34855, Note_on_c, 0, 52, 76
1, 34856, Note_on_c, 0, 84, 92
1, 34859, Control_c, 0, 64, 127
1, 34936, Note_off_c, 0, 52, 62
1, 34944, Note_on_c, 0, 48, 80
1, 34944, Note_on_c, 0, 88, 87
1, 34951, Note_off_c, 0, 84, 64
1, 35005, Note_on_c, 0, 89, 91
1, 35020, Note_on_c, 0, 45, 75
1, 35044, Note_off_c, 0, 48, 62
1, 35071, Note_on_c, 0, 90, 91
1, 35086, Note_off_c, 0, 89, 65
1, 35088, Note_on_c, 0, 44, 79
1, 35091, Note_off_c, 0, 88, 59
1, 35096, Note_off_c, 0, 45, 63
1, 35112, Note_off_c, 0, 90, 66
1, 35148, Control_c, 0, 64, 85
1, 35161, Note_on_c, 0, 91, 99
1, 35161, Note_off_c, 0, 44, 60
1, 35163, Control_c, 0, 64, 58
1, 35166, Note_on_c, 0, 79, 88
1, 35166, Note_on_c, 0, 84, 85
1, 35178, Control_c, 0, 64, 0
1, 35188, Note_off_c, 0, 79, 66
1, 35189, Note_off_c, 0, 84, 67
1, 35199, Note_off_c, 0, 91, 65
1, 35252, Note_on_c, 0, 43, 74
1, 35334, Note_on_c, 0, 88, 86
1, 35340, Note_on_c, 0, 52, 71
1, 35340, Note_on_c, 0, 84, 80
1, 35351, Note_off_c, 0, 43, 64
1, 35351, Note_on_c, 0, 51, 50
1, 35363, Note_off_c, 0, 84, 66
1, 35371, Control_c, 0, 64, 61
1, 35379, Note_off_c, 0, 51, 51
1, 35386, Control_c, 0, 64, 81
1, 35400, Note_on_c, 0, 79, 99
1, 35401, Control_c, 0, 64, 127
1, 35404, Note_off_c, 0, 52, 64
1, 35405, Note_on_c, 0, 76, 97
1, 35416, Note_on_c, 0, 60, 68
1, 35419, Note_off_c, 0, 88, 56
1, 35421, Note_on_c, 0, 84, 44
1, 35441, Note_off_c, 0, 60, 67
1, 35443, Note_off_c, 0, 84, 56
1, 35491, Note_on_c, 0, 64, 88
1, 35500, Note_off_c, 0, 79, 62
1, 35511, Note_off_c, 0, 76, 62
1, 35547, Note_off_c, 0, 64, 64
1, 35577, Note_on_c, 0, 72, 85
1, 35600, Note_off_c, 0, 72, 68
1, 35637, Note_on_c, 0, 80, 95
1, 35637, Control_c, 0, 64, 84
1, 35638, Note_on_c, 0, 76, 97
1, 35638, Note_on_c, 0, 88, 98
1, 35652, Control_c, 0, 64, 54
1, 35660, Note_off_c, 0, 76, 67
1, 35660, Note_off_c, 0, 80, 70
1, 35667, Control_c, 0, 64, 0
1, 35684, Note_off_c, 0, 88, 64
1, 35743, Note_on_c, 0, 76, 88
1, 35783, Note_off_c, 0, 76, 0
1, 35811, Note_on_c, 0, 80, 77
1, 35811, Note_on_c, 0, 84, 74
1, 35823, Poly_aftertouch_c, 0, 76, 0
1, 35833, Note_off_c, 0, 80, 71
1, 35842, Note_off_c, 0, 84, 57
1, 35890, Note_on_c, 0, 72, 94
1, 35896, Note_on_c, 0, 76, 85
1, 35896, Control_c, 0, 64, 36
1, 35911, Control_c, 0, 64, 69
1, 35926, Control_c, 0, 64, 100
1, 35941, Control_c, 0, 64, 127
1, 35945, Note_off_c, 0, 76, 60
1, 35972, Note_on_c, 0, 68, 85
1, 35983, Poly_aftertouch_c, 0, 83, 0
1, 36015, Note_off_c, 0, 72, 60
1, 36048, Note_on_c, 0, 60, 83
1, 36052, Note_off_c, 0, 68, 61
1, 36072, Note_off_c, 0, 60, 69
1, 36119, Note_on_c, 0, 72, 92
1, 36120, Control_c, 0, 64, 80
1, 36120, Note_on_c, 0, 84, 86
1, 36125, Note_on_c, 0, 77, 84
1, 36135, Control_c, 0, 64, 0
1, 36139, Note_on_c, 0, 83, 70
1, 36148, Note_off_c, 0, 77, 70
1, 36151, Note_off_c, 0, 72, 62
1, 36156, Note_off_c, 0, 83, 41
1, 36158, Note_off_c, 0, 84, 58
1, 36207, Note_on_c, 0, 72, 78
1, 36233, Note_off_c, 0, 72, 64
1, 36270, Note_on_c, 0, 72, 61
1, 36289, Note_off_c, 0, 72, 63
1, 36293, Note_on_c, 0, 81, 73
1, 36294, Note_on_c, 0, 77, 75
1, 36331, Note_off_c, 0, 81, 59
1, 36334, Note_off_c, 0, 77, 51
1, 36355, Note_on_c, 0, 72, 84
1, 36362, Note_on_c, 0, 69, 92
1, 36371, Control_c, 0, 64, 43
1, 36386, Control_c, 0, 64, 65
1, 36401, Control_c, 0, 64, 78
1, 36416, Note_off_c, 0, 72, 61
1, 36416, Control_c, 0, 64, 127
1, 36451, Note_on_c, 0, 65, 82
1, 36469, Note_off_c, 0, 69, 58
1, 36511, Note_on_c, 0, 60, 87
1, 36521, Note_off_c, 0, 65, 64
1, 36531, Note_off_c, 0, 60, 72
1, 36586, Control_c, 0, 64, 93
1, 36591, Note_on_c, 0, 83, 105
1, 36594, Note_on_c, 0, 71, 102
1, 36594, Note_on_c, 0, 69, 99
1, 36596, Note_on_c, 0, 75, 97
1, 36601, Control_c, 0, 64, 54
1, 36616, Control_c, 0, 64, 0
1, 36642, Note_on_c, 0, 79, 31
1, 36660, Control_c, 0, 64, 43
1, 36673, Note_off_c, 0, 79, 49
1, 36675, Control_c, 0, 64, 73
1, 36681, Note_off_c, 0, 83, 66
1, 36683, Note_on_c, 0, 56, 103
1, 36686, Note_on_c, 0, 44, 94
1, 36690, Control_c, 0, 64, 127
1, 36691, Note_off_c, 0, 75, 63
1, 36695, Note_off_c, 0, 71, 63
1, 36700, Note_off_c, 0, 69, 63
1, 36707, Note_off_c, 0, 56, 66
1, 36710, Note_off_c, 0, 44, 70
1, 36762, Note_on_c, 0, 55, 93
1, 36764, Note_on_c, 0, 43, 95
1, 36770, Note_on_c, 0, 53, 94
1, 36779, Control_c, 0, 64, 75
1, 36791, Note_off_c, 0, 55, 67
1, 36793, Note_off_c, 0, 53, 68
1, 36794, Control_c, 0, 64, 0
1, 36806, Note_off_c, 0, 43, 61
1, 36848, Note_on_c, 0, 71, 105
1, 36850, Note_on_c, 0, 59, 95
1, 36857, Note_on_c, 0, 60, 94
1, 36870, Note_on_c, 0, 68, 70
1, 36872, Note_on_c, 0, 63, 46
1, 36873, Note_off_c, 0, 63, 127
1, 36877, Note_on_c, 0, 64, 70
1, 36886, Note_on_c, 0, 57, 30
1, 36887, Note_off_c, 0, 57, 127
1, 36887, Note_off_c, 0, 60, 0
1, 36906, Poly_aftertouch_c, 0, 60, 0
1, 36919, Note_off_c, 0, 68, 52
1, 36932, Note_on_c, 0, 54, 102
1, 36935, Note_on_c, 0, 42, 88
1, 36943, Poly_aftertouch_c, 0, 60, 127
1, 36943, Control_c, 0, 64, 55
1, 36952, Note_off_c, 0, 54, 72
1, 36958, Control_c, 0, 64, 67
1, 36964, Poly_aftertouch_c, 0, 60, 0
1, 36964, Note_off_c, 0, 42, 68
1, 36967, Note_on_c, 0, 44, 35
1, 36968, Note_off_c, 0, 44, 127
1, 36968, Note_off_c, 0, 64, 53
1, 36974, Control_c, 0, 64, 92
1, 36977, Note_off_c, 0, 71, 61
1, 36989, Control_c, 0, 64, 127
1, 36990, Note_off_c, 0, 59, 65
1, 37003, Control_c, 0, 67, 20
1, 37006, Poly_aftertouch_c, 0, 44, 0
1, 37018, Control_c, 0, 67, 94
1, 37024, Note_on_c, 0, 53, 100
1, 37026, Note_on_c, 0, 41, 95
1, 37033, Control_c, 0, 64, 113
1, 37033, Control_c, 0, 67, 127
1, 37048, Control_c, 0, 64, 94
1, 37061, Note_off_c, 0, 53, 62
1, 37063, Control_c, 0, 64, 82
1, 37077, Control_c, 0, 64, 74
1, 37085, Note_off_c, 0, 41, 63
1, 37092, Control_c, 0, 64, 68
1, 37107, Control_c, 0, 64, 63
1, 37121, Control_c, 0, 64, 58
1, 37136, Control_c, 0, 64, 56
1, 37151, Control_c, 0, 64, 53
1, 37166, Control_c, 0, 64, 47
1, 37189, Control_c, 0, 64, 40
1, 37203, Control_c, 0, 64, 28
1, 37218, Control_c, 0, 64, 0
1, 37323, Note_on_c, 0, 52, 52
1, 37366, Note_off_c, 0, 52, 62
1, 37374, Note_on_c, 0, 40, 37
1, 37411, Note_on_c, 0, 55, 44
1, 37438, Note_off_c, 0, 55, 55
1, 37445, Note_off_c, 0, 40, 54
1, 37475, Note_on_c, 0, 47, 48
1, 37524, Note_off_c, 0, 47, 58
1, 37576, Note_on_c, 0, 55, 51
1, 37621, Note_off_c, 0, 55, 64
1, 37660, Note_on_c, 0, 52, 47
1, 37677, Note_on_c, 0, 49, 27
1, 37685, Note_off_c, 0, 52, 61
1, 37718, Note_off_c, 0, 49, 59
1, 37753, Note_on_c, 0, 51, 50
1, 37791, Note_off_c, 0, 51, 65
1, 37820, Note_on_c, 0, 52, 55
1, 37863, Note_off_c, 0, 52, 66
1, 37914, Note_on_c, 0, 55, 45
1, 37931, Note_on_c, 0, 40, 39
1, 37950, Note_off_c, 0, 55, 35
1, 37969, Note_off_c, 0, 40, 63
1, 38005, Note_on_c, 0, 47, 48
1, 38050, Note_off_c, 0, 47, 62
1, 38086, Note_on_c, 0, 55, 62
1, 38126, Note_off_c, 0, 55, 65
1, 38155, Note_on_c, 0, 52, 60
1, 38176, Note_on_c, 0, 49, 53
1, 38183, Note_off_c, 0, 52, 65
1, 38222, Note_off_c, 0, 49, 65
1, 38253, Note_on_c, 0, 51, 60
1, 38299, Note_off_c, 0, 51, 60
1, 38327, Note_on_c, 0, 52, 68
1, 38366, Note_off_c, 0, 52, 64
1, 38415, Note_on_c, 0, 55, 57
1, 38426, Note_on_c, 0, 40, 50
1, 38438, Note_off_c, 0, 55, 59
1, 38477, Note_off_c, 0, 40, 60
1, 38500, Note_on_c, 0, 47, 62
1, 38539, Note_off_c, 0, 47, 60
1, 38576, Note_on_c, 0, 55, 65
1, 38623, Note_off_c, 0, 55, 62
1, 38650, Note_on_c, 0, 49, 64
1, 38650, Note_on_c, 0, 52, 66
1, 38684, Note_off_c, 0, 52, 66
1, 38709, Note_off_c, 0, 49, 61
1, 38746, Note_on_c, 0, 51, 65
1, 38784, Note_off_c, 0, 51, 67
1, 38811, Note_on_c, 0, 52, 63
1, 38856, Note_off_c, 0, 52, 62
1, 38887, Note_on_c, 0, 55, 57
1, 38899, Note_on_c, 0, 40, 49
1, 38909, Note_off_c, 0, 55, 61
1, 38975, Note_off_c, 0, 40, 59
1, 38980, Note_on_c, 0, 47, 45
1, 39014, Note_off_c, 0, 47, 63
1, 39050, Note_on_c, 0, 55, 43
1, 39126, Note_off_c, 0, 55, 62
1, 39128, Note_on_c, 0, 58, 57
1, 39160, Control_c, 0, 64, 16
1, 39162, Note_on_c, 0, 54, 48
1, 39176, Control_c, 0, 64, 35
1, 39191, Control_c, 0, 64, 46
1, 39204, Note_off_c, 0, 54, 64
1, 39204, Note_off_c, 0, 58, 57
1, 39205, Control_c, 0, 64, 54
1, 39219, Note_on_c, 0, 59, 53
1, 39220, Control_c, 0, 64, 58
1, 39235, Control_c, 0, 64, 60
1, 39249, Note_on_c, 0, 52, 47
1, 39250, Control_c, 0, 64, 61
1, 39265, Control_c, 0, 64, 63
1, 39279, Control_c, 0, 64, 64
1, 39280, Note_off_c, 0, 52, 60
1, 39291, Note_off_c, 0, 59, 59
1, 39294, Note_on_c, 0, 60, 56
1, 39294, Control_c, 0, 64, 66
1, 39309, Control_c, 0, 64, 67
1, 39311, Note_on_c, 0, 51, 53
1, 39323, Control_c, 0, 64, 66
1, 39331, Note_off_c, 0, 60, 62
1, 39338, Control_c, 0, 64, 66
1, 39351, Note_off_c, 0, 51, 54
1, 39353, Control_c, 0, 64, 65
1, 39375, Note_on_c, 0, 52, 56
1, 39377, Note_on_c, 0, 59, 52
1, 39383, Control_c, 0, 64, 65
1, 39398, Control_c, 0, 64, 64
1, 39411, Note_off_c, 0, 59, 63
1, 39413, Control_c, 0, 64, 64
1, 39415, Note_off_c, 0, 52, 62
1, 39435, Control_c, 0, 64, 63
1, 39450, Control_c, 0, 64, 63
1, 39459, Note_on_c, 0, 63, 66
1, 39465, Control_c, 0, 64, 62
1, 39468, Note_on_c, 0, 48, 56
1, 39479, Control_c, 0, 64, 62
1, 39490, Note_off_c, 0, 63, 66
1, 39494, Control_c, 0, 64, 61
1, 39502, Note_off_c, 0, 48, 63
1, 39509, Control_c, 0, 64, 60
1, 39538, Note_on_c, 0, 64, 66
1, 39538, Control_c, 0, 64, 60
1, 39541, Note_on_c, 0, 47, 62
1, 39553, Control_c, 0, 64, 59
1, 39582, Note_off_c, 0, 47, 60
1, 39583, Control_c, 0, 64, 58
1, 39598, Control_c, 0, 64, 58
1, 39601, Note_off_c, 0, 64, 52
1, 39609, Note_on_c, 0, 45, 60
1, 39612, Control_c, 0, 64, 57
1, 39613, Note_on_c, 0, 66, 68
1, 39627, Control_c, 0, 64, 57
1, 39642, Control_c, 0, 64, 56
1, 39657, Control_c, 0, 64, 55
1, 39664, Note_off_c, 0, 45, 60
1, 39672, Control_c, 0, 64, 54
1, 39678, Note_on_c, 0, 43, 59
1, 39683, Note_on_c, 0, 67, 76
1, 39687, Control_c, 0, 64, 53
1, 39690, Note_off_c, 0, 66, 58
1, 39702, Control_c, 0, 64, 52
1, 39717, Control_c, 0, 64, 51
1, 39731, Control_c, 0, 64, 50
1, 39736, Note_off_c, 0, 43, 62
1, 39746, Note_on_c, 0, 42, 68
1, 39746, Control_c, 0, 64, 49
1, 39758, Note_on_c, 0, 69, 77
1, 39761, Control_c, 0, 64, 48
1, 39762, Note_off_c, 0, 67, 64
1, 39775, Control_c, 0, 64, 47
1, 39790, Control_c, 0, 64, 46
1, 39802, Note_off_c, 0, 69, 54
1, 39804, Control_c, 0, 64, 45
1, 39819, Control_c, 0, 64, 43
1, 39826, Note_off_c, 0, 42, 60
1, 39827, Note_on_c, 0, 43, 62
1, 39832, Note_on_c, 0, 67, 71
1, 39834, Control_c, 0, 64, 41
1, 39849, Control_c, 0, 64, 38
1, 39864, Control_c, 0, 64, 34
1, 39875, Note_off_c, 0, 67, 59
1, 39878, Control_c, 0, 64, 30
1, 39893, Control_c, 0, 64, 25
1, 39899, Note_on_c, 0, 70, 80
1, 39905, Note_on_c, 0, 40, 69
1, 39906, Note_off_c, 0, 43, 63
1, 39908, Control_c, 0, 64, 23
1, 39922, Control_c, 0, 64, 19
1, 39937, Control_c, 0, 64, 17
1, 39944, Note_off_c, 0, 70, 59
1, 39945, Note_off_c, 0, 40, 67
1, 39952, Control_c, 0, 64, 11
1, 39968, Control_c, 0, 64, 0
1, 39978, Note_on_c, 0, 47, 61
1, 39979, Note_on_c, 0, 71, 83
1, 40007, Note_off_c, 0, 47, 64
1, 40045, Note_off_c, 0, 71, 56
1, 40049, Note_on_c, 0, 52, 71
1, 40052, Note_on_c, 0, 72, 80
1, 40092, Note_off_c, 0, 52, 60
1, 40110, Note_on_c, 0, 73, 76
1, 40110, Note_off_c, 0, 72, 63
1, 40128, Note_on_c, 0, 55, 66
1, 40134, Note_off_c, 0, 73, 71
1, 40157, Note_off_c, 0, 55, 66
1, 40190, Note_on_c, 0, 74, 77
1, 40194, Note_on_c, 0, 71, 76
1, 40212, Note_off_c, 0, 74, 70
1, 40218, Note_off_c, 0, 71, 70
1, 40298, Note_on_c, 0, 47, 58
1, 40367, Note_off_c, 0, 47, 60
1, 40376, Note_on_c, 0, 71, 69
1, 40383, Note_on_c, 0, 67, 53
1, 40403, Note_on_c, 0, 54, 56
1, 40434, Note_on_c, 0, 62, 80
1, 40441, Note_on_c, 0, 59, 75
1, 40442, Note_off_c, 0, 54, 63
1, 40445, Note_off_c, 0, 71, 57
1, 40450, Control_c, 0, 64, 24
1, 40453, Note_off_c, 0, 67, 57
1, 40465, Control_c, 0, 64, 48
1, 40480, Control_c, 0, 64, 61
1, 40494, Control_c, 0, 64, 66
1, 40509, Control_c, 0, 64, 72
1, 40525, Control_c, 0, 64, 87
1, 40539, Control_c, 0, 64, 127
1, 40548, Note_on_c, 0, 56, 70
1, 40573, Note_off_c, 0, 62, 60
1, 40587, Note_off_c, 0, 59, 58
1, 40608, Note_off_c, 0, 56, 60
1, 40615, Note_on_c, 0, 58, 75
1, 40658, Control_c, 0, 64, 102
1, 40673, Control_c, 0, 64, 87
1, 40679, Note_off_c, 0, 58, 62
1, 40688, Control_c, 0, 64, 76
1, 40692, Note_on_c, 0, 59, 81
1, 40702, Control_c, 0, 64, 67
1, 40717, Control_c, 0, 64, 61
1, 40732, Control_c, 0, 64, 55
1, 40746, Control_c, 0, 64, 48
1, 40751, Note_off_c, 0, 59, 64
1, 40761, Control_c, 0, 64, 39
1, 40772, Note_on_c, 0, 62, 70
1, 40777, Control_c, 0, 64, 11
1, 40780, Note_on_c, 0, 47, 62
1, 40792, Control_c, 0, 64, 0
1, 40799, Note_off_c, 0, 62, 69
1, 40844, Note_off_c, 0, 47, 61
1, 40870, Note_on_c, 0, 54, 72
1, 40939, Note_off_c, 0, 54, 61
1, 40960, Note_on_c, 0, 62, 74
1, 40997, Note_off_c, 0, 62, 60
1, 41036, Note_on_c, 0, 59, 60
1, 41056, Note_on_c, 0, 56, 59
1, 41066, Note_off_c, 0, 59, 65
1, 41106, Note_off_c, 0, 56, 63
1, 41133, Note_on_c, 0, 58, 55
1, 41165, Note_off_c, 0, 58, 65
1, 41213, Note_on_c, 0, 57, 49
1, 41243, Control_c, 0, 64, 19
1, 41258, Control_c, 0, 64, 40
1, 41266, Note_off_c, 0, 57, 62
1, 41273, Control_c, 0, 64, 51
1, 41288, Control_c, 0, 64, 58
1, 41292, Note_on_c, 0, 42, 46
1, 41303, Control_c, 0, 64, 62
1, 41309, Note_on_c, 0, 61, 41
1, 41318, Control_c, 0, 64, 64
1, 41332, Control_c, 0, 64, 67
1, 41347, Control_c, 0, 64, 71
1, 41354, Note_off_c, 0, 61, 63
1, 41362, Control_c, 0, 64, 76
1, 41377, Note_off_c, 0, 42, 61
1, 41377, Control_c, 0, 64, 83
1, 41380, Note_on_c, 0, 49, 47
1, 41389, Note_on_c, 0, 60, 57
1, 41392, Control_c, 0, 64, 89
1, 41407, Control_c, 0, 64, 93
1, 41407, Note_off_c, 0, 49, 61
1, 41422, Control_c, 0, 64, 94
1, 41457, Note_off_c, 0, 60, 60
1, 41462, Note_on_c, 0, 59, 53
1, 41468, Note_on_c, 0, 61, 61
1, 41481, Control_c, 0, 64, 94
1, 41495, Control_c, 0, 64, 93
1, 41506, Note_off_c, 0, 59, 61
1, 41508, Note_off_c, 0, 61, 59
1, 41510, Control_c, 0, 64, 92
1, 41525, Control_c, 0, 64, 92
1, 41529, Note_on_c, 0, 57, 64
1, 41538, Note_on_c, 0, 66, 68
1, 41540, Control_c, 0, 64, 91
1, 41555, Control_c, 0, 64, 89
1, 41571, Control_c, 0, 64, 88
1, 41586, Control_c, 0, 64, 87
1, 41600, Control_c, 0, 64, 86
1, 41607, Note_off_c, 0, 57, 60
1, 41607, Note_on_c, 0, 56, 67
1, 41615, Control_c, 0, 64, 84
1, 41617, Note_on_c, 0, 68, 74
1, 41630, Control_c, 0, 64, 82
1, 41642, Note_off_c, 0, 66, 56
1, 41645, Control_c, 0, 64, 81
1, 41660, Control_c, 0, 64, 79
1, 41681, Control_c, 0, 64, 77
1, 41689, Note_off_c, 0, 56, 64
1, 41693, Note_off_c, 0, 68, 62
1, 41696, Note_on_c, 0, 69, 79
1, 41696, Control_c, 0, 64, 73
1, 41698, Note_on_c, 0, 54, 71
1, 41711, Control_c, 0, 64, 70
1, 41726, Control_c, 0, 64, 66
1, 41741, Control_c, 0, 64, 63
1, 41756, Control_c, 0, 64, 61
1, 41761, Note_off_c, 0, 54, 63
1, 41765, Note_on_c, 0, 56, 67
1, 41767, Note_on_c, 0, 68, 76
1, 41771, Control_c, 0, 64, 59
1, 41786, Control_c, 0, 64, 56
1, 41786, Note_off_c, 0, 69, 61
1, 41800, Control_c, 0, 64, 52
1, 41815, Control_c, 0, 64, 45
1, 41828, Note_off_c, 0, 68, 62
1, 41830, Control_c, 0, 64, 35
1, 41843, Note_on_c, 0, 54, 70
1, 41845, Control_c, 0, 64, 23
1, 41847, Note_on_c, 0, 69, 79
1, 41851, Note_off_c, 0, 56, 64
1, 41860, Control_c, 0, 64, 0
1, 41886, Note_off_c, 0, 54, 63
1, 41905, Note_off_c, 0, 69, 60
1, 41923, Note_on_c, 0, 53, 72
1, 41924, Note_on_c, 0, 71, 79
1, 41970, Note_off_c, 0, 53, 53
1, 41991, Note_on_c, 0, 52, 69
1, 41991, Note_off_c, 0, 71, 63
1, 41993, Note_on_c, 0, 73, 80
1, 42052, Note_off_c, 0, 73, 65
1, 42060, Note_on_c, 0, 75, 67
1, 42066, Note_off_c, 0, 52, 64
1, 42072, Note_on_c, 0, 51, 60
1, 42103, Note_off_c, 0, 51, 66
1, 42125, Note_off_c, 0, 75, 63
1, 42125, Note_on_c, 0, 73, 71
1, 42127, Note_on_c, 0, 76, 70
1, 42150, Note_off_c, 0, 73, 69
1, 42157, Note_off_c, 0, 76, 66
1, 42247, Note_on_c, 0, 49, 51
1, 42290, Note_off_c, 0, 49, 61
1, 42313, Note_on_c, 0, 73, 63
1, 42316, Note_on_c, 0, 69, 57
1, 42319, Note_on_c, 0, 56, 42
1, 42347, Note_off_c, 0, 56, 57
1, 42363, Control_c, 0, 64, 12
1, 42372, Note_off_c, 0, 73, 54
1, 42378, Note_off_c, 0, 69, 56
1, 42379, Control_c, 0, 64, 49
1, 42394, Control_c, 0, 64, 62
1, 42394, Note_on_c, 0, 68, 64
1, 42400, Note_on_c, 0, 64, 57
1, 42409, Control_c, 0, 64, 66
1, 42430, Control_c, 0, 64, 70
1, 42445, Control_c, 0, 64, 75
1, 42447, Note_off_c, 0, 64, 64
1, 42460, Control_c, 0, 64, 85
1, 42462, Note_off_c, 0, 68, 60
1, 42475, Control_c, 0, 64, 104
1, 42490, Control_c, 0, 64, 127
1, 42506, Note_on_c, 0, 58, 52
1, 42549, Note_off_c, 0, 58, 59
1, 42577, Note_on_c, 0, 60, 50
1, 42578, Control_c, 0, 64, 114
1, 42593, Control_c, 0, 64, 100
1, 42608, Note_off_c, 0, 60, 60
1, 42608, Control_c, 0, 64, 91
1, 42623, Control_c, 0, 64, 85
1, 42638, Control_c, 0, 64, 81
1, 42653, Control_c, 0, 64, 76
1, 42654, Note_on_c, 0, 61, 60
1, 42668, Control_c, 0, 64, 70
1, 42683, Control_c, 0, 64, 66
1, 42689, Note_off_c, 0, 61, 64
1, 42697, Control_c, 0, 64, 63
1, 42712, Control_c, 0, 64, 61
1, 42727, Control_c, 0, 64, 59
1, 42735, Note_on_c, 0, 64, 58
1, 42741, Control_c, 0, 64, 55
1, 42752, Note_on_c, 0, 49, 52
1, 42756, Control_c, 0, 64, 47
1, 42760, Note_off_c, 0, 64, 63
1, 42771, Control_c, 0, 64, 33
1, 42786, Control_c, 0, 64, 0
1, 42802, Note_off_c, 0, 49, 59
1, 42832, Note_on_c, 0, 56, 53
1, 42875, Note_off_c, 0, 56, 63
1, 42909, Note_on_c, 0, 64, 61
1, 42957, Note_off_c, 0, 64, 60
1, 42984, Note_on_c, 0, 61, 68
1, 43002, Note_on_c, 0, 58, 59
1, 43011, Note_off_c, 0, 61, 65
1, 43037, Note_off_c, 0, 58, 64
1, 43052, Control_c, 0, 67, 119
1, 43067, Control_c, 0, 67, 112
1, 43077, Note_on_c, 0, 60, 62
1, 43082, Control_c, 0, 67, 105
1, 43097, Control_c, 0, 67, 97
1, 43109, Note_off_c, 0, 60, 62
1, 43112, Control_c, 0, 67, 89
1, 43127, Control_c, 0, 67, 79
1, 43141, Control_c, 0, 67, 72
1, 43156, Control_c, 0, 67, 64
1, 43179, Control_c, 0, 67, 56
1, 43181, Note_on_c, 0, 60, 55
1, 43194, Control_c, 0, 67, 51
1, 43201, Note_off_c, 0, 60, 61
1, 43209, Control_c, 0, 67, 48
1, 43224, Control_c, 0, 67, 45
1, 43237, Note_on_c, 0, 47, 58
1, 43239, Control_c, 0, 67, 40
1, 43243, Note_on_c, 0, 64, 54
1, 43253, Control_c, 0, 67, 34
1, 43264, Note_off_c, 0, 64, 61
1, 43268, Control_c, 0, 67, 28
1, 43283, Control_c, 0, 67, 23
1, 43291, Note_off_c, 0, 47, 57
1, 43298, Control_c, 0, 67, 18
1, 43313, Control_c, 0, 67, 14
1, 43322, Note_on_c, 0, 56, 66
1, 43327, Control_c, 0, 67, 8
1, 43342, Control_c, 0, 67, 0
1, 43353, Note_off_c, 0, 56, 66
1, 43402, Note_on_c, 0, 64, 68
1, 43460, Note_off_c, 0, 64, 63
1, 43476, Note_on_c, 0, 61, 73
1, 43482, Note_on_c, 0, 58, 69
1, 43500, Note_off_c, 0, 61, 66
1, 43534, Note_off_c, 0, 58, 60
1, 43566, Note_on_c, 0, 60, 64
1, 43596, Note_off_c, 0, 60, 66
1, 43632, Note_on_c, 0, 61, 71
1, 43691, Note_off_c, 0, 61, 62
1, 43707, Note_on_c, 0, 45, 57
1, 43713, Note_on_c, 0, 64, 63
1, 43744, Note_off_c, 0, 64, 66
1, 43773, Note_off_c, 0, 45, 58
1, 43794, Note_on_c, 0, 55, 66
1, 43830, Note_off_c, 0, 55, 64
1, 43890, Control_c, 0, 64, 12
1, 43905, Control_c, 0, 64, 38
1, 43908, Note_on_c, 0, 64, 53
1, 43926, Control_c, 0, 64, 52
1, 43941, Control_c, 0, 64, 61
1, 43956, Control_c, 0, 64, 66
1, 43972, Control_c, 0, 64, 71
1, 43987, Control_c, 0, 64, 76
1, 43988, Note_off_c, 0, 64, 59
1, 43991, Note_on_c, 0, 61, 55
1, 43993, Note_on_c, 0, 67, 57
1, 44001, Control_c, 0, 64, 83
1, 44016, Control_c, 0, 64, 89
1, 44031, Control_c, 0, 64, 94
1, 44046, Control_c, 0, 64, 95
1, 44051, Note_off_c, 0, 61, 48
1, 44061, Control_c, 0, 64, 95
1, 44066, Note_off_c, 0, 67, 49
1, 44069, Note_on_c, 0, 64, 49
1, 44075, Control_c, 0, 64, 93
1, 44081, Note_on_c, 0, 68, 55
1, 44090, Control_c, 0, 64, 91
1, 44102, Note_off_c, 0, 64, 64
1, 44105, Control_c, 0, 64, 84
1, 44108, Note_off_c, 0, 68, 51
1, 44120, Control_c, 0, 64, 72
1, 44135, Control_c, 0, 64, 62
1, 44145, Note_on_c, 0, 73, 61
1, 44149, Control_c, 0, 64, 28
1, 44164, Control_c, 0, 64, 11
1, 44179, Control_c, 0, 64, 23
1, 44185, Note_off_c, 0, 73, 65
1, 44194, Control_c, 0, 64, 40
1, 44209, Control_c, 0, 64, 52
1, 44224, Control_c, 0, 64, 59
1, 44226, Note_on_c, 0, 72, 66
1, 44229, Note_on_c, 0, 67, 48
1, 44233, Note_on_c, 0, 64, 32
1, 44239, Control_c, 0, 64, 64
1, 44252, Note_off_c, 0, 67, 60
1, 44254, Control_c, 0, 64, 72
1, 44269, Control_c, 0, 64, 88
1, 44283, Note_off_c, 0, 64, 0
1, 44284, Control_c, 0, 64, 127
1, 44295, Note_on_c, 0, 73, 77
1, 44296, Note_off_c, 0, 72, 60
1, 44297, Note_on_c, 0, 64, 40
1, 44313, Note_on_c, 0, 61, 54
1, 44327, Note_off_c, 0, 64, 53
1, 44334, Note_off_c, 0, 61, 60
1, 44346, Note_off_c, 0, 73, 63
1, 44365, Note_on_c, 0, 76, 81
1, 44373, Control_c, 0, 64, 113
1, 44388, Control_c, 0, 64, 87
1, 44402, Control_c, 0, 64, 74
1, 44417, Control_c, 0, 64, 66
1, 44432, Control_c, 0, 64, 65
1, 44439, Note_on_c, 0, 75, 81
1, 44443, Note_on_c, 0, 61, 66
1, 44447, Control_c, 0, 64, 70
1, 44451, Note_on_c, 0, 64, 55
1, 44452, Note_off_c, 0, 76, 57
1, 44462, Control_c, 0, 64, 79
1, 44476, Control_c, 0, 64, 103
1, 44483, Note_off_c, 0, 64, 64
1, 44491, Control_c, 0, 64, 127
1, 44495, Note_off_c, 0, 75, 63
1, 44517, Note_on_c, 0, 57, 76
1, 44517, Note_on_c, 0, 76, 87
1, 44520, Note_off_c, 0, 61, 62
1, 44543, Note_off_c, 0, 57, 67
1, 44588, Note_on_c, 0, 79, 94
1, 44599, Note_off_c, 0, 76, 59
1, 44639, Control_c, 0, 64, 101
1, 44654, Control_c, 0, 64, 68
1, 44674, Note_off_c, 0, 79, 62
1, 44676, Control_c, 0, 64, 33
1, 44677, Note_on_c, 0, 78, 85
1, 44691, Note_on_c, 0, 57, 63
1, 44691, Control_c, 0, 64, 31
1, 44695, Note_on_c, 0, 61, 79
1, 44706, Control_c, 0, 64, 61
1, 44720, Control_c, 0, 64, 69
1, 44725, Note_off_c, 0, 78, 66
1, 44735, Control_c, 0, 64, 99
1, 44748, Note_on_c, 0, 79, 83
1, 44750, Control_c, 0, 64, 127
1, 44757, Note_on_c, 0, 53, 79
1, 44758, Note_off_c, 0, 61, 59
1, 44760, Note_off_c, 0, 57, 63
1, 44796, Note_off_c, 0, 53, 62
1, 44838, Note_on_c, 0, 84, 83
1, 44844, Note_off_c, 0, 79, 60
1, 44860, Note_on_c, 0, 83, 52
1, 44884, Note_off_c, 0, 83, 43
1, 44903, Note_on_c, 0, 85, 95
1, 44918, Note_on_c, 0, 57, 67
1, 44926, Note_on_c, 0, 52, 68
1, 44926, Note_on_c, 0, 53, 68
1, 44933, Note_off_c, 0, 84, 63
1, 44948, Note_on_c, 0, 55, 45
1, 44955, Note_off_c, 0, 57, 64
1, 44968, Note_on_c, 0, 87, 89
1, 44975, Note_off_c, 0, 55, 56
1, 44989, Note_off_c, 0, 52, 62
1, 44991, Note_off_c, 0, 85, 67
1, 44993, Note_on_c, 0, 45, 77
1, 44999, Note_off_c, 0, 53, 64
1, 45008, Note_off_c, 0, 87, 66
1, 45028, Note_off_c, 0, 45, 64
1, 45047, Control_c, 0, 64, 81
1, 45050, Note_on_c, 0, 88, 97
1, 45054, Note_on_c, 0, 76, 97
1, 45054, Note_on_c, 0, 80, 93
1, 45062, Control_c, 0, 64, 45
1, 45077, Control_c, 0, 64, 0
1, 45079, Note_off_c, 0, 76, 66
1, 45088, Note_off_c, 0, 88, 69
1, 45092, Note_off_c, 0, 80, 61
1, 45139, Note_on_c, 0, 44, 88
1, 45166, Control_c, 0, 64, 44
1, 45181, Control_c, 0, 64, 63
1, 45196, Control_c, 0, 64, 82
1, 45205, Note_on_c, 0, 52, 83
1, 45210, Control_c, 0, 64, 127
1, 45221, Note_off_c, 0, 44, 63
1, 45236, Note_off_c, 0, 52, 67
1, 45238, Note_on_c, 0, 85, 85
1, 45243, Note_on_c, 0, 81, 77
1, 45267, Note_off_c, 0, 81, 70
1, 45305, Note_on_c, 0, 73, 98
1, 45305, Note_on_c, 0, 76, 99
1, 45327, Note_on_c, 0, 69, 91
1, 45339, Note_off_c, 0, 85, 60
1, 45364, Note_off_c, 0, 69, 65
1, 45388, Note_on_c, 0, 68, 88
1, 45446, Note_off_c, 0, 73, 61
1, 45463, Note_off_c, 0, 76, 61
1, 45471, Note_on_c, 0, 67, 93
1, 45483, Note_off_c, 0, 68, 62
1, 45505, Note_off_c, 0, 67, 61
1, 45543, Control_c, 0, 64, 77
1, 45548, Note_on_c, 0, 73, 102
1, 45550, Note_on_c, 0, 85, 101
1, 45558, Control_c, 0, 64, 39
1, 45559, Note_on_c, 0, 76, 77
1, 45565, Note_on_c, 0, 77, 80
1, 45574, Control_c, 0, 64, 0
1, 45585, Note_off_c, 0, 76, 68
1, 45587, Note_off_c, 0, 77, 66
1, 45592, Note_off_c, 0, 73, 66
1, 45602, Note_off_c, 0, 85, 66
1, 45619, Control_c, 0, 64, 32
1, 45634, Control_c, 0, 64, 61
1, 45634, Note_on_c, 0, 44, 80
1, 45648, Control_c, 0, 64, 79
1, 45663, Control_c, 0, 64, 127
1, 45696, Note_on_c, 0, 52, 82
1, 45708, Note_off_c, 0, 44, 63
1, 45722, Note_off_c, 0, 52, 70
1, 45738, Note_on_c, 0, 81, 82
1, 45748, Note_on_c, 0, 77, 67
1, 45808, Note_on_c, 0, 73, 93
1, 45810, Note_off_c, 0, 81, 33
1, 45810, Note_on_c, 0, 69, 94
1, 45822, Note_off_c, 0, 77, 34
1, 45823, Note_on_c, 0, 66, 97
1, 45893, Note_off_c, 0, 66, 61
1, 45897, Note_on_c, 0, 65, 93
1, 45906, Note_off_c, 0, 69, 60
1, 45913, Note_off_c, 0, 73, 60
1, 45976, Note_off_c, 0, 65, 41
1, 45979, Note_on_c, 0, 64, 86
1, 46000, Note_off_c, 0, 64, 71
1, 46023, Note_on_c, 0, 63, 15
1, 46033, Control_c, 0, 64, 104
1, 46045, Note_on_c, 0, 80, 96
1, 46046, Note_on_c, 0, 68, 99
1, 46047, Note_on_c, 0, 72, 84
1, 46048, Control_c, 0, 64, 64
1, 46058, Note_off_c, 0, 63, 45
1, 46063, Control_c, 0, 64, 0
1, 46080, Note_off_c, 0, 72, 63
1, 46087, Note_off_c, 0, 80, 66
1, 46091, Note_off_c, 0, 68, 65
1, 46122, Control_c, 0, 64, 49
1, 46129, Note_on_c, 0, 44, 81
1, 46137, Control_c, 0, 64, 69
1, 46152, Control_c, 0, 64, 99
1, 46173, Control_c, 0, 64, 127
1, 46188, Note_on_c, 0, 52, 74
1, 46206, Note_off_c, 0, 44, 63
1, 46224, Note_off_c, 0, 52, 66
1, 46240, Note_on_c, 0, 76, 70
1, 46250, Note_on_c, 0, 72, 71
1, 46283, Note_off_c, 0, 76, 54
1, 46296, Note_on_c, 0, 74, 8
1, 46311, Note_on_c, 0, 64, 79
1, 46314, Note_off_c, 0, 72, 62
1, 46317, Note_on_c, 0, 68, 49
1, 46318, Note_off_c, 0, 68, 127
1, 46321, Note_on_c, 0, 67, 75
1, 46326, Note_on_c, 0, 63, 88
1, 46346, Note_off_c, 0, 74, 29
1, 46394, Note_off_c, 0, 63, 61
1, 46395, Note_off_c, 0, 64, 58
1, 46403, Note_on_c, 0, 62, 61
1, 46412, Note_off_c, 0, 67, 60
1, 46487, Note_on_c, 0, 61, 87
1, 46497, Note_off_c, 0, 62, 61
1, 46534, Note_off_c, 0, 61, 63
1, 46589, Control_c, 0, 64, 103
1, 46595, Note_on_c, 0, 64, 71
1, 46604, Control_c, 0, 64, 69
1, 46619, Control_c, 0, 64, 37
1, 46634, Control_c, 0, 64, 0
1, 46663, Control_c, 0, 64, 39
1, 46665, Note_on_c, 0, 68, 84
1, 46668, Note_off_c, 0, 64, 58
1, 46678, Control_c, 0, 64, 57
1, 46685, Note_on_c, 0, 60, 76
1, 46693, Control_c, 0, 64, 66
1, 46708, Control_c, 0, 64, 83
1, 46723, Control_c, 0, 64, 127
1, 46746, Note_on_c, 0, 73, 87
1, 46746, Note_off_c, 0, 60, 62
1, 46757, Note_on_c, 0, 59, 80
1, 46762, Note_off_c, 0, 68, 59
1, 46780, Note_on_c, 0, 64, 63
1, 46800, Poly_aftertouch_c, 0, 58, 0
1, 46808, Note_off_c, 0, 64, 67
1, 46814, Note_off_c, 0, 73, 69
1, 46816, Note_on_c, 0, 76, 94
1, 46830, Note_off_c, 0, 59, 65
1, 46838, Poly_aftertouch_c, 0, 58, 127
1, 46844, Note_off_c, 0, 76, 65
1, 46846, Note_on_c, 0, 57, 65
1, 46851, Poly_aftertouch_c, 0, 58, 0
1, 46865, Note_off_c, 0, 57, 63
1, 46907, Note_on_c, 0, 80, 98
1, 46919, Note_on_c, 0, 57, 83
1, 46977, Note_off_c, 0, 57, 50
1, 46981, Note_on_c, 0, 56, 93
1, 46983, Note_on_c, 0, 85, 92
1, 46988, Note_on_c, 0, 76, 81
1, 46992, Note_off_c, 0, 80, 65
1, 47004, Note_off_c, 0, 56, 71
1, 47008, Note_off_c, 0, 76, 72
1, 47023, Note_off_c, 0, 85, 64
1, 47071, Control_c, 0, 64, 104
1, 47077, Note_on_c, 0, 84, 85
1, 47080, Note_on_c, 0, 77, 99
1, 47086, Control_c, 0, 64, 64
1, 47087, Note_on_c, 0, 83, 84
1, 47100, Control_c, 0, 64, 0
1, 47158, Note_on_c, 0, 44, 81
1, 47160, Control_c, 0, 64, 36
1, 47169, Note_on_c, 0, 80, 82
1, 47171, Note_on_c, 0, 72, 83
1, 47172, Note_off_c, 0, 84, 60
1, 47175, Control_c, 0, 64, 65
1, 47178, Note_off_c, 0, 83, 57
1, 47181, Note_off_c, 0, 77, 62
1, 47190, Control_c, 0, 64, 99
1, 47205, Control_c, 0, 64, 127
1, 47220, Note_off_c, 0, 72, 63
1, 47222, Note_off_c, 0, 80, 63
1, 47226, Note_on_c, 0, 53, 79
1, 47226, Note_off_c, 0, 44, 64
1, 47250, Note_off_c, 0, 53, 66
1, 47255, Note_on_c, 0, 77, 90
1, 47317, Poly_aftertouch_c, 0, 79, 0
1, 47321, Note_on_c, 0, 72, 88
1, 47332, Note_off_c, 0, 77, 63
1, 47333, Note_on_c, 0, 70, 94
1, 47365, Note_off_c, 0, 72, 64
1, 47408, Note_on_c, 0, 88, 102
1, 47416, Note_on_c, 0, 69, 84
1, 47431, Note_off_c, 0, 70, 60
1, 47440, Note_off_c, 0, 88, 64
1, 47476, Note_on_c, 0, 68, 80
1, 47483, Note_off_c, 0, 69, 65
1, 47509, Note_off_c, 0, 68, 64
1, 47545, Control_c, 0, 64, 78
1, 47559, Control_c, 0, 64, 16
1, 47574, Control_c, 0, 64, 0
1, 47576, Note_on_c, 0, 80, 91
1, 47577, Note_on_c, 0, 72, 92
1, 47643, Note_on_c, 0, 44, 80
1, 47648, Control_c, 0, 64, 26
1, 47661, Note_on_c, 0, 77, 72
1, 47667, Note_on_c, 0, 68, 79
1, 47670, Note_off_c, 0, 80, 61
1, 47670, Control_c, 0, 64, 62
1, 47672, Note_off_c, 0, 72, 62
1, 47685, Control_c, 0, 64, 87
1, 47694, Note_on_c, 0, 76, 35
1, 47695, Note_off_c, 0, 76, 127
1, 47700, Control_c, 0, 64, 127
1, 47707, Note_off_c, 0, 44, 61
1, 47729, Note_on_c, 0, 53, 61
1, 47738, Note_off_c, 0, 68, 48
1, 47744, Note_on_c, 0, 72, 81
1, 47750, Note_off_c, 0, 53, 63
1, 47758, Note_off_c, 0, 77, 61
1, 47816, Note_off_c, 0, 72, 62
1, 47819, Note_on_c, 0, 68, 84
1, 47824, Note_on_c, 0, 63, 90
1, 47844, Note_off_c, 0, 68, 65
1, 47878, Note_off_c, 0, 63, 0
1, 47893, Note_on_c, 0, 64, 46
1, 47906, Note_on_c, 0, 84, 90
1, 47914, Poly_aftertouch_c, 0, 63, 127
1, 47923, Note_off_c, 0, 84, 74
1, 47981, Note_off_c, 0, 64, 64
1, 47998, Poly_aftertouch_c, 0, 63, 0
1, 47998, Note_on_c, 0, 62, 53
1, 48024, Note_off_c, 0, 62, 58
1, 48057, Control_c, 0, 64, 84
1, 48069, Note_on_c, 0, 68, 91
1, 48071, Note_on_c, 0, 77, 88
1, 48072, Control_c, 0, 64, 51
1, 48087, Control_c, 0, 64, 0
1, 48119, Note_on_c, 0, 44, 77
1, 48131, Control_c, 0, 64, 17
1, 48141, Note_off_c, 0, 68, 39
1, 48142, Note_off_c, 0, 77, 57
1, 48144, Note_on_c, 0, 72, 81
1, 48146, Control_c, 0, 64, 63
1, 48152, Note_on_c, 0, 65, 72
1, 48161, Control_c, 0, 64, 85
1, 48176, Control_c, 0, 64, 127
1, 48183, Note_off_c, 0, 44, 60
1, 48197, Note_off_c, 0, 65, 50
1, 48200, Note_on_c, 0, 53, 71
1, 48229, Note_on_c, 0, 68, 85
1, 48236, Note_off_c, 0, 72, 61
1, 48236, Note_off_c, 0, 53, 64
1, 48292, Note_off_c, 0, 68, 62
1, 48297, Note_on_c, 0, 58, 91
1, 48305, Note_on_c, 0, 65, 78
1, 48326, Note_off_c, 0, 65, 71
1, 48360, Note_off_c, 0, 58, 58
1, 48376, Note_on_c, 0, 57, 83
1, 48397, Note_on_c, 0, 80, 72
1, 48418, Note_off_c, 0, 80, 71
1, 48468, Note_on_c, 0, 56, 84
1, 48472, Note_off_c, 0, 57, 65
1, 48546, Note_off_c, 0, 56, 63
1, 48553, Control_c, 0, 64, 85
1, 48566, Note_on_c, 0, 55, 93
1, 48567, Control_c, 0, 64, 63
1, 48582, Control_c, 0, 64, 27
1, 48597, Control_c, 0, 64, 0
1, 48612, Control_c, 0, 64, 43
1, 48627, Control_c, 0, 64, 57
1, 48642, Control_c, 0, 64, 66
1, 48657, Control_c, 0, 64, 85
1, 48660, Note_off_c, 0, 55, 63
1, 48670, Note_on_c, 0, 60, 84
1, 48671, Control_c, 0, 64, 127
1, 48729, Note_on_c, 0, 53, 90
1, 48746, Note_off_c, 0, 60, 64
1, 48749, Note_on_c, 0, 65, 87
1, 48776, Control_c, 0, 64, 90
1, 48791, Control_c, 0, 64, 71
1, 48806, Control_c, 0, 64, 61
1, 48809, Note_on_c, 0, 68, 91
1, 48810, Note_on_c, 0, 52, 89
1, 48813, Note_off_c, 0, 53, 67
1, 48820, Control_c, 0, 64, 63
1, 48824, Note_off_c, 0, 65, 65
1, 48832, Note_off_c, 0, 52, 73
1, 48835, Control_c, 0, 64, 70
1, 48847, Note_off_c, 0, 68, 64
1, 48850, Control_c, 0, 64, 89
1, 48865, Control_c, 0, 64, 127
1, 48892, Note_on_c, 0, 72, 93
1, 48958, Note_on_c, 0, 79, 89
1, 48960, Note_on_c, 0, 53, 103
1, 48964, Note_off_c, 0, 72, 67
1, 48976, Note_off_c, 0, 79, 73
1, 48983, Control_c, 0, 64, 73
1, 48996, Note_off_c, 0, 53, 63
1, 48998, Control_c, 0, 64, 0
1, 49050, Note_on_c, 0, 76, 97
1, 49056, Note_on_c, 0, 64, 90
1, 49057, Note_on_c, 0, 68, 88
1, 49068, Note_on_c, 0, 65, 63
1, 49079, Note_off_c, 0, 64, 68
1, 49084, Note_off_c, 0, 68, 63
1, 49087, Note_off_c, 0, 65, 60
1, 49093, Note_on_c, 0, 32, 79
1, 49096, Note_off_c, 0, 76, 65
1, 49103, Control_c, 0, 64, 56
1, 49118, Control_c, 0, 64, 78
1, 49132, Control_c, 0, 64, 127
1, 49142, Note_on_c, 0, 31, 35
1, 49181, Note_on_c, 0, 44, 90
1, 49190, Note_off_c, 0, 32, 58
1, 49193, Note_off_c, 0, 31, 50
1, 49208, Note_off_c, 0, 44, 68
1, 49247, Note_on_c, 0, 69, 81
1, 49250, Note_on_c, 0, 73, 76
1, 49273, Note_off_c, 0, 69, 66
1, 49297, Note_off_c, 0, 73, 0
1, 49306, Note_on_c, 0, 57, 100
1, 49311, Note_on_c, 0, 61, 104
1, 49312, Note_on_c, 0, 64, 92
1, 49334, Poly_aftertouch_c, 0, 73, 127
1, 49354, Note_off_c, 0, 57, 61
1, 49363, Poly_aftertouch_c, 0, 73, 0
1, 49390, Note_on_c, 0, 56, 87
1, 49430, Note_on_c, 0, 55, 58
1, 49458, Note_off_c, 0, 61, 59
1, 49467, Note_off_c, 0, 64, 60
1, 49481, Note_off_c, 0, 56, 56
1, 49512, Note_off_c, 0, 55, 64
1, 49539, Control_c, 0, 64, 92
1, 49551, Note_on_c, 0, 61, 98
1, 49552, Note_on_c, 0, 73, 95
1, 49555, Note_on_c, 0, 64, 88
1, 49555, Control_c, 0, 64, 17
1, 49570, Control_c, 0, 64, 0
1, 49579, Note_off_c, 0, 64, 68
1, 49586, Note_off_c, 0, 73, 66
1, 49596, Note_off_c, 0, 61, 63
1, 49627, Note_on_c, 0, 32, 83
1, 49629, Control_c, 0, 64, 52
1, 49644, Control_c, 0, 64, 72
1, 49659, Control_c, 0, 64, 127
1, 49694, Note_off_c, 0, 32, 63
1, 49704, Note_on_c, 0, 44, 80
1, 49732, Note_off_c, 0, 44, 65
1, 49732, Poly_aftertouch_c, 0, 31, 127
1, 49754, Note_on_c, 0, 66, 77
1, 49755, Note_on_c, 0, 69, 77
1, 49762, Poly_aftertouch_c, 0, 31, 0
1, 49807, Note_on_c, 0, 54, 93
1, 49817, Note_on_c, 0, 57, 84
1, 49818, Note_on_c, 0, 61, 85
1, 49821, Note_off_c, 0, 69, 62
1, 49829, Note_on_c, 0, 64, 46
1, 49843, Note_off_c, 0, 66, 61
1, 49859, Note_off_c, 0, 64, 55
1, 49885, Note_on_c, 0, 53, 93
1, 49890, Note_off_c, 0, 54, 63
1, 49893, Note_off_c, 0, 57, 61
1, 49911, Note_off_c, 0, 61, 61
1, 49970, Note_on_c, 0, 52, 87
1, 49980, Note_off_c, 0, 53, 60
1, 49996, Note_off_c, 0, 52, 69
1, 50052, Control_c, 0, 64, 84
1, 50054, Note_on_c, 0, 60, 79
1, 50055, Note_on_c, 0, 56, 97
1, 50058, Note_on_c, 0, 68, 89
1, 50066, Control_c, 0, 64, 39
1, 50081, Control_c, 0, 64, 0
1, 50087, Note_off_c, 0, 60, 67
1, 50108, Note_off_c, 0, 68, 63
1, 50111, Note_off_c, 0, 56, 64
1, 50124, Note_on_c, 0, 32, 78
1, 50126, Control_c, 0, 64, 18
1, 50141, Control_c, 0, 64, 58
1, 50156, Control_c, 0, 64, 72
1, 50170, Control_c, 0, 64, 102
1, 50182, Note_off_c, 0, 32, 61
1, 50185, Control_c, 0, 64, 127
1, 50201, Note_on_c, 0, 44, 74
1, 50231, Note_off_c, 0, 44, 65
1, 50255, Note_on_c, 0, 64, 58
1, 50257, Note_on_c, 0, 65, 57
1, 50275, Note_on_c, 0, 62, 63
1, 50292, Note_on_c, 0, 51, 88
1, 50311, Note_off_c, 0, 65, 55
1, 50315, Note_on_c, 0, 56, 88
1, 50320, Note_on_c, 0, 52, 78
1, 50331, Note_off_c, 0, 64, 62
1, 50333, Note_off_c, 0, 62, 60
1, 50350, Note_off_c, 0, 52, 65
1, 50359, Note_off_c, 0, 51, 59
1, 50378, Note_on_c, 0, 50, 81
1, 50403, Note_off_c, 0, 56, 63
1, 50462, Note_on_c, 0, 49, 74
1, 50476, Note_off_c, 0, 50, 59
1, 50523, Note_off_c, 0, 49, 60
1, 50571, Note_on_c, 0, 60, 77
1, 50600, Control_c, 0, 64, 88
1, 50615, Control_c, 0, 64, 69
1, 50629, Control_c, 0, 64, 55
1, 50642, Note_on_c, 0, 52, 71
1, 50644, Control_c, 0, 64, 37
1, 50646, Note_on_c, 0, 61, 85
1, 50666, Control_c, 0, 64, 41
1, 50672, Note_off_c, 0, 60, 61
1, 50681, Control_c, 0, 64, 43
1, 50696, Control_c, 0, 64, 49
1, 50710, Control_c, 0, 64, 55
1, 50725, Note_on_c, 0, 63, 87
1, 50725, Control_c, 0, 64, 60
1, 50740, Control_c, 0, 64, 65
1, 50743, Note_off_c, 0, 61, 62
1, 50750, Note_off_c, 0, 52, 62
1, 50751, Note_on_c, 0, 55, 69
1, 50755, Control_c, 0, 64, 74
1, 50770, Control_c, 0, 64, 103
1, 50785, Control_c, 0, 64, 127
1, 50786, Note_off_c, 0, 63, 64
1, 50803, Note_on_c, 0, 64, 87
1, 50820, Note_on_c, 0, 61, 86
1, 50824, Note_off_c, 0, 55, 63
1, 50876, Note_off_c, 0, 61, 64
1, 50879, Note_on_c, 0, 66, 91
1, 50891, Note_off_c, 0, 64, 59
1, 50894, Note_on_c, 0, 60, 74
1, 50954, Note_on_c, 0, 68, 89
1, 50958, Note_on_c, 0, 59, 83
1, 50969, Note_off_c, 0, 60, 65
1, 50982, Note_off_c, 0, 66, 62
1, 51007, Control_c, 0, 64, 81
1, 51022, Control_c, 0, 64, 51
1, 51032, Note_on_c, 0, 69, 96
1, 51036, Control_c, 0, 64, 0
1, 51048, Note_off_c, 0, 59, 65
1, 51053, Note_on_c, 0, 60, 82
1, 51096, Control_c, 0, 64, 27
1, 51110, Control_c, 0, 64, 62
1, 51119, Note_on_c, 0, 66, 85
1, 51125, Note_on_c, 0, 57, 79
1, 51125, Control_c, 0, 64, 80
1, 51129, Note_off_c, 0, 60, 59
1, 51140, Control_c, 0, 64, 127
1, 51154, Note_off_c, 0, 69, 59
1, 51172, Note_off_c, 0, 68, 37
1, 51188, Note_on_c, 0, 54, 81
1, 51194, Note_off_c, 0, 57, 65
1, 51199, Note_on_c, 0, 64, 83
1, 51214, Note_off_c, 0, 66, 62
1, 51229, Note_off_c, 0, 54, 63
1, 51273, Note_on_c, 0, 52, 75
1, 51280, Note_on_c, 0, 60, 77
1, 51285, Note_off_c, 0, 64, 62
1, 51331, Note_off_c, 0, 52, 63
1, 51333, Note_on_c, 0, 48, 75
1, 51339, Note_off_c, 0, 60, 64
1, 51360, Note_on_c, 0, 57, 70
1, 51378, Control_c, 0, 64, 115
1, 51393, Control_c, 0, 64, 97
1, 51415, Control_c, 0, 64, 83
1, 51416, Note_off_c, 0, 48, 62
1, 51427, Note_on_c, 0, 45, 61
1, 51430, Control_c, 0, 64, 75
1, 51435, Note_off_c, 0, 57, 56
1, 51439, Note_on_c, 0, 69, 76
1, 51445, Control_c, 0, 64, 70
1, 51459, Control_c, 0, 64, 66
1, 51474, Control_c, 0, 64, 63
1, 51489, Control_c, 0, 64, 56
1, 51491, Note_off_c, 0, 45, 63
1, 51498, Note_on_c, 0, 44, 68
1, 51504, Control_c, 0, 64, 41
1, 51508, Note_on_c, 0, 66, 73
1, 51519, Control_c, 0, 64, 28
1, 51530, Note_off_c, 0, 69, 62
1, 51533, Control_c, 0, 64, 24
1, 51563, Control_c, 0, 64, 26
1, 51573, Note_on_c, 0, 45, 75
1, 51575, Note_off_c, 0, 44, 63
1, 51578, Note_on_c, 0, 64, 75
1, 51578, Control_c, 0, 64, 36
1, 51593, Control_c, 0, 64, 49
1, 51599, Note_off_c, 0, 66, 62
1, 51608, Control_c, 0, 64, 55
1, 51622, Control_c, 0, 64, 58
1, 51637, Control_c, 0, 64, 56
1, 51641, Note_on_c, 0, 44, 74
1, 51649, Note_off_c, 0, 64, 62
1, 51652, Note_off_c, 0, 45, 63
1, 51652, Control_c, 0, 64, 45
1, 51656, Note_on_c, 0, 60, 78
1, 51667, Control_c, 0, 64, 0
1, 51713, Note_off_c, 0, 60, 65
1, 51721, Note_on_c, 0, 45, 83
1, 51727, Note_on_c, 0, 57, 82
1, 51741, Control_c, 0, 64, 40
1, 51742, Note_off_c, 0, 44, 63
1, 51756, Control_c, 0, 64, 59
1, 51772, Control_c, 0, 64, 67
1, 51786, Control_c, 0, 64, 74
1, 51790, Note_on_c, 0, 46, 89
1, 51801, Control_c, 0, 64, 77
1, 51807, Note_on_c, 0, 54, 87
1, 51816, Control_c, 0, 64, 71
1, 51816, Note_off_c, 0, 45, 62
1, 51823, Note_off_c, 0, 57, 62
1, 51831, Control_c, 0, 64, 59
1, 51846, Control_c, 0, 64, 0
1, 51865, Note_on_c, 0, 47, 84
1, 51869, Note_on_c, 0, 56, 84
1, 51874, Note_off_c, 0, 46, 61
1, 51894, Note_off_c, 0, 54, 62
1, 51921, Note_off_c, 0, 56, 66
1, 51934, Control_c, 0, 64, 61
1, 51941, Note_on_c, 0, 57, 92
1, 51946, Note_on_c, 0, 48, 92
1, 51950, Control_c, 0, 64, 92
1, 51953, Note_off_c, 0, 47, 65
1, 51965, Control_c, 0, 64, 127
1, 51980, Note_off_c, 0, 48, 65
1, 52027, Note_on_c, 0, 54, 83
1, 52031, Note_on_c, 0, 45, 83
1, 52055, Note_off_c, 0, 57, 61
1, 52070, Note_off_c, 0, 45, 61
1, 52106, Note_on_c, 0, 52, 79
1, 52107, Note_on_c, 0, 42, 84
1, 52110, Note_off_c, 0, 54, 63
1, 52167, Note_off_c, 0, 42, 61
1, 52193, Note_on_c, 0, 48, 84
1, 52198, Note_off_c, 0, 52, 65
1, 52209, Note_on_c, 0, 40, 73
1, 52260, Note_off_c, 0, 48, 64
1, 52263, Note_off_c, 0, 40, 59
1, 52272, Note_on_c, 0, 36, 75
1, 52272, Note_on_c, 0, 45, 80
1, 52283, Control_c, 0, 64, 102
1, 52298, Control_c, 0, 64, 92
1, 52313, Control_c, 0, 64, 84
1, 52328, Control_c, 0, 64, 79
1, 52343, Control_c, 0, 64, 75
1, 52344, Note_off_c, 0, 45, 58
1, 52350, Note_on_c, 0, 57, 80
1, 52352, Note_off_c, 0, 36, 62
1, 52353, Note_on_c, 0, 33, 69
1, 52357, Control_c, 0, 64, 72
1, 52372, Control_c, 0, 64, 69
1, 52387, Control_c, 0, 64, 66
1, 52401, Control_c, 0, 64, 63
1, 52416, Control_c, 0, 64, 61
1, 52420, Note_on_c, 0, 32, 74
1, 52421, Note_off_c, 0, 33, 63
1, 52424, Note_on_c, 0, 54, 82
1, 52431, Control_c, 0, 64, 57
1, 52446, Control_c, 0, 64, 52
1, 52450, Note_off_c, 0, 57, 61
1, 52461, Control_c, 0, 64, 43
1, 52475, Control_c, 0, 64, 29
1, 52490, Control_c, 0, 64, 0
1, 52496, Note_on_c, 0, 33, 76
1, 52497, Note_on_c, 0, 52, 80
1, 52502, Note_off_c, 0, 32, 63
1, 52516, Note_off_c, 0, 54, 64
1, 52569, Note_off_c, 0, 52, 64
1, 52573, Note_on_c, 0, 32, 73
1, 52577, Note_off_c, 0, 33, 63
1, 52578, Note_on_c, 0, 48, 76
1, 52593, Note_on_c, 0, 49, 43
1, 52594, Note_off_c, 0, 49, 127
1, 52639, Note_off_c, 0, 48, 63
1, 52642, Note_on_c, 0, 33, 80
1, 52645, Note_on_c, 0, 45, 83
1, 52672, Note_off_c, 0, 32, 63
1, 52718, Note_on_c, 0, 34, 84
1, 52728, Note_on_c, 0, 42, 82
1, 52747, Note_off_c, 0, 45, 60
1, 52750, Note_off_c, 0, 33, 63
1, 52770, Note_on_c, 0, 41, 47
1, 52786, Note_on_c, 0, 35, 81
1, 52794, Note_on_c, 0, 43, 73
1, 52794, Note_on_c, 0, 44, 40
1, 52800, Note_off_c, 0, 41, 54
1, 52803, Note_off_c, 0, 34, 62
1, 52806, Note_off_c, 0, 42, 62
1, 52824, Note_off_c, 0, 43, 64
1, 52826, Note_off_c, 0, 44, 59
1, 52834, Note_off_c, 0, 35, 60
1, 52866, Note_on_c, 0, 45, 94
1, 52871, Note_on_c, 0, 36, 96
1, 52910, Note_on_c, 0, 43, 41
1, 52928, Control_c, 0, 64, 9
1, 52942, Note_off_c, 0, 43, 52
1, 52943, Control_c, 0, 64, 65
1, 52958, Control_c, 0, 64, 94
1, 52973, Control_c, 0, 64, 127
1, 52996, Note_off_c, 0, 45, 63
1, 53009, Note_off_c, 0, 36, 61
1, 53184, Note_on_c, 0, 44, 101
1, 53187, Note_on_c, 0, 56, 100
1, 53210, Control_c, 0, 64, 113
1, 53224, Control_c, 0, 64, 71
1, 53239, Control_c, 0, 64, 0
1, 53277, Note_off_c, 0, 44, 64
1, 53280, Note_off_c, 0, 56, 65
1, 53429, Note_on_c, 0, 44, 98
1, 53429, Note_on_c, 0, 56, 102
1, 53471, Note_off_c, 0, 44, 66
1, 53481, Note_off_c, 0, 56, 66
1, 53515, Note_on_c, 0, 45, 104
1, 53519, Note_on_c, 0, 33, 96
1, 53550, Note_on_c, 0, 35, 40
1, 53551, Note_off_c, 0, 35, 127
1, 53566, Control_c, 0, 64, 32
1, 53581, Control_c, 0, 64, 60
1, 53596, Control_c, 0, 64, 68
1, 53611, Control_c, 0, 64, 81
1, 53626, Control_c, 0, 64, 127
1, 53747, Note_off_c, 0, 45, 54
1, 53834, Note_off_c, 0, 33, 58
1, 53850, Note_on_c, 0, 49, 106
1, 53860, Note_on_c, 0, 37, 94
1, 53870, Control_c, 0, 64, 83
1, 53885, Control_c, 0, 64, 55
1, 53900, Control_c, 0, 64, 0
1, 53959, Control_c, 0, 64, 33
1, 53974, Control_c, 0, 64, 61
1, 53989, Control_c, 0, 64, 77
1, 54003, Control_c, 0, 64, 127
1, 54055, Note_off_c, 0, 37, 58
1, 54155, Note_off_c, 0, 49, 57
1, 54228, Note_on_c, 0, 39, 99
1, 54231, Note_on_c, 0, 27, 96
1, 54240, Control_c, 0, 64, 106
1, 54254, Control_c, 0, 64, 68
1, 54269, Control_c, 0, 64, 0
1, 54339, Note_off_c, 0, 39, 60
1, 54343, Note_off_c, 0, 27, 62
1, 54552, Note_on_c, 0, 40, 94
1, 54556, Note_on_c, 0, 28, 90
1, 54574, Control_c, 0, 64, 60
1, 54588, Control_c, 0, 64, 75
1, 54591, Note_off_c, 0, 40, 65
1, 54599, Note_off_c, 0, 28, 58
1, 54603, Control_c, 0, 64, 127
1, 54684, Note_on_c, 0, 42, 101
1, 54687, Note_on_c, 0, 30, 96
1, 54737, Control_c, 0, 64, 109
1, 54750, Note_on_c, 0, 29, 9
1, 54751, Control_c, 0, 64, 86
1, 54766, Control_c, 0, 64, 75
1, 54781, Control_c, 0, 64, 70
1, 54796, Control_c, 0, 64, 67
1, 54806, Note_off_c, 0, 29, 33
1, 54810, Control_c, 0, 64, 64
1, 54825, Control_c, 0, 64, 60
1, 54840, Control_c, 0, 64, 54
1, 54855, Control_c, 0, 64, 44
1, 54870, Control_c, 0, 64, 30
1, 54884, Control_c, 0, 64, 0
1, 55137, Control_c, 0, 64, 18
1, 55160, Control_c, 0, 64, 34
1, 55174, Control_c, 0, 64, 46
1, 55189, Control_c, 0, 64, 55
1, 55204, Control_c, 0, 64, 60
1, 55219, Control_c, 0, 64, 64
1, 55234, Control_c, 0, 64, 67
1, 55248, Control_c, 0, 64, 72
1, 55263, Control_c, 0, 64, 79
1, 55278, Control_c, 0, 64, 90
1, 55293, Control_c, 0, 64, 112
1, 55307, Control_c, 0, 64, 127
1, 55396, Note_off_c, 0, 30, 33
1, 55474, Note_off_c, 0, 42, 45
1, 55923, Control_c, 0, 64, 107
1, 55938, Control_c, 0, 64, 79
1, 55954, Control_c, 0, 64, 63
1, 55960, Note_on_c, 0, 43, 72
1, 55969, Control_c, 0, 64, 29
1, 55969, Note_on_c, 0, 31, 64
1, 55984, Control_c, 0, 64, 0
1, 56013, Control_c, 0, 64, 38
1, 56028, Control_c, 0, 64, 59
1, 56043, Control_c, 0, 64, 70
1, 56054, Note_off_c, 0, 43, 63
1, 56058, Control_c, 0, 64, 90
1, 56072, Control_c, 0, 64, 127
1, 56152, Note_on_c, 0, 44, 70
1, 56171, Note_on_c, 0, 32, 55
1, 56205, Control_c, 0, 64, 114
1, 56220, Control_c, 0, 64, 96
1, 56235, Control_c, 0, 64, 87
1, 56249, Control_c, 0, 64, 80
1, 56264, Control_c, 0, 64, 76
1, 56279, Control_c, 0, 64, 72
1, 56280, Note_off_c, 0, 31, 36
1, 56294, Control_c, 0, 64, 69
1, 56309, Control_c, 0, 64, 67
1, 56323, Control_c, 0, 64, 65
1, 56338, Control_c, 0, 64, 64
1, 56353, Control_c, 0, 64, 63
1, 56368, Control_c, 0, 64, 62
1, 56383, Control_c, 0, 64, 60
1, 56398, Control_c, 0, 64, 58
1, 56413, Control_c, 0, 64, 56
1, 56428, Control_c, 0, 64, 54
1, 56443, Control_c, 0, 64, 53
1, 56457, Control_c, 0, 64, 52
1, 56472, Control_c, 0, 64, 50
1, 56487, Control_c, 0, 64, 48
1, 56502, Control_c, 0, 64, 47
1, 56517, Control_c, 0, 64, 45
1, 56531, Control_c, 0, 64, 43
1, 56546, Control_c, 0, 64, 41
1, 56561, Control_c, 0, 64, 37
1, 56576, Control_c, 0, 64, 32
1, 56591, Control_c, 0, 64, 29
1, 56605, Control_c, 0, 64, 28
1, 56620, Control_c, 0, 64, 27
1, 56635, Control_c, 0, 64, 27
1, 56657, Control_c, 0, 64, 26
1, 56672, Control_c, 0, 64, 25
1, 56687, Control_c, 0, 64, 24
1, 56717, Control_c, 0, 64, 24
1, 56791, Control_c, 0, 64, 24
1, 56806, Control_c, 0, 64, 25
1, 56821, Control_c, 0, 64, 28
1, 56836, Control_c, 0, 64, 31
1, 56851, Control_c, 0, 64, 34
1, 56866, Control_c, 0, 64, 37
1, 56880, Control_c, 0, 64, 40
1, 56895, Control_c, 0, 64, 43
1, 56910, Control_c, 0, 64, 46
1, 56925, Control_c, 0, 64, 48
1, 56940, Control_c, 0, 64, 50
1, 56954, Control_c, 0, 64, 52
1, 56969, Control_c, 0, 64, 53
1, 56984, Control_c, 0, 64, 54
1, 56999, Control_c, 0, 64, 55
1, 57014, Control_c, 0, 64, 56
1, 57028, Control_c, 0, 64, 57
1, 57043, Control_c, 0, 64, 59
1, 57058, Control_c, 0, 64, 60
1, 57072, Control_c, 0, 64, 61
1, 57087, Control_c, 0, 64, 63
1, 57102, Control_c, 0, 64, 64
1, 57117, Control_c, 0, 64, 65
1, 57132, Control_c, 0, 64, 66
1, 57146, Control_c, 0, 64, 67
1, 57161, Control_c, 0, 64, 69
1, 57176, Control_c, 0, 64, 73
1, 57191, Control_c, 0, 64, 78
1, 57206, Control_c, 0, 64, 85
1, 57221, Control_c, 0, 64, 93
1, 57236, Control_c, 0, 64, 103
1, 57250, Control_c, 0, 64, 127
1, 57748, Note_on_c, 0, 45, 36
1, 58111, Note_on_c, 0, 46, 44
1, 58160, Note_off_c, 0, 45, 37
1, 58368, Note_on_c, 0, 47, 44
1, 58381, Note_off_c, 0, 46, 35
1, 58562, Note_on_c, 0, 48, 47
1, 58654, Note_off_c, 0, 47, 36
1, 58747, Note_on_c, 0, 49, 55
1, 58786, Note_off_c, 0, 48, 56
1, 58815, Note_off_c, 0, 44, 35
1, 58928, Note_off_c, 0, 32, 54
1, 58946, Note_on_c, 0, 50, 62
1, 58973, Note_off_c, 0, 49, 60
1, 59124, Note_on_c, 0, 51, 69
1, 59168, Note_off_c, 0, 50, 57
1, 59320, Note_on_c, 0, 52, 58
1, 59326, Note_on_c, 0, 38, 47
1, 59331, Note_on_c, 0, 26, 45
1, 59348, Control_c, 0, 64, 115
1, 59363, Control_c, 0, 64, 104
1, 59368, Note_off_c, 0, 51, 57
1, 59378, Control_c, 0, 64, 97
1, 59393, Control_c, 0, 64, 91
1, 59408, Control_c, 0, 64, 84
1, 59422, Control_c, 0, 64, 75
1, 59437, Control_c, 0, 64, 67
1, 59452, Control_c, 0, 64, 59
1, 59466, Control_c, 0, 64, 46
1, 59481, Control_c, 0, 64, 25
1, 59496, Control_c, 0, 64, 0
1, 59507, Note_on_c, 0, 53, 58
1, 59585, Control_c, 0, 64, 17
1, 59600, Control_c, 0, 64, 40
1, 59614, Control_c, 0, 64, 56
1, 59617, Note_off_c, 0, 52, 50
1, 59620, Note_off_c, 0, 26, 40
1, 59629, Control_c, 0, 64, 64
1, 59652, Control_c, 0, 64, 69
1, 59667, Control_c, 0, 64, 75
1, 59681, Control_c, 0, 64, 85
1, 59696, Control_c, 0, 64, 104
1, 59704, Note_on_c, 0, 54, 57
1, 59711, Control_c, 0, 64, 127
1, 59725, Note_off_c, 0, 38, 38
1, 59754, Note_off_c, 0, 53, 56
1, 59892, Note_on_c, 0, 55, 52
1, 59912, Note_off_c, 0, 54, 58
1, 60052, Control_c, 0, 64, 111
1, 60067, Control_c, 0, 64, 98
1, 60082, Control_c, 0, 64, 90
1, 60084, Note_on_c, 0, 43, 37
1, 60091, Note_on_c, 0, 31, 36
1, 60094, Note_on_c, 0, 56, 48
1, 60097, Control_c, 0, 64, 85
1, 60112, Control_c, 0, 64, 83
1, 60127, Control_c, 0, 64, 81
1, 60142, Control_c, 0, 64, 79
1, 60149, Note_off_c, 0, 55, 36
1, 60157, Control_c, 0, 64, 76
1, 60171, Control_c, 0, 64, 74
1, 60186, Control_c, 0, 64, 72
1, 60201, Control_c, 0, 64, 71
1, 60216, Control_c, 0, 64, 68
1, 60231, Control_c, 0, 64, 65
1, 60245, Control_c, 0, 64, 62
1, 60260, Control_c, 0, 64, 58
1, 60275, Control_c, 0, 64, 55
1, 60289, Control_c, 0, 64, 53
1, 60291, Note_on_c, 0, 57, 48
1, 60319, Control_c, 0, 64, 54
1, 60324, Note_off_c, 0, 56, 58
1, 60334, Control_c, 0, 64, 54
1, 60349, Control_c, 0, 64, 56
1, 60363, Control_c, 0, 64, 59
1, 60378, Control_c, 0, 64, 61
1, 60401, Control_c, 0, 64, 63
1, 60416, Control_c, 0, 64, 65
1, 60431, Control_c, 0, 64, 67
1, 60445, Control_c, 0, 64, 71
1, 60460, Control_c, 0, 64, 75
1, 60475, Control_c, 0, 64, 79
1, 60490, Control_c, 0, 64, 82
1, 60499, Note_on_c, 0, 58, 47
1, 60504, Control_c, 0, 64, 85
1, 60519, Control_c, 0, 64, 86
1, 60534, Control_c, 0, 64, 87
1, 60537, Note_off_c, 0, 57, 38
1, 60549, Control_c, 0, 64, 89
1, 60564, Control_c, 0, 64, 90
1, 60578, Control_c, 0, 64, 92
1, 60593, Control_c, 0, 64, 94
1, 60608, Control_c, 0, 64, 94
1, 60682, Control_c, 0, 64, 94
1, 60711, Control_c, 0, 64, 93
1, 60720, Note_on_c, 0, 59, 44
1, 60771, Control_c, 0, 64, 93
1, 60791, Note_off_c, 0, 58, 35
1, 60831, Control_c, 0, 64, 92
1, 60860, Control_c, 0, 64, 92
1, 60890, Control_c, 0, 64, 91
1, 60905, Control_c, 0, 64, 91
1, 60949, Control_c, 0, 64, 90
1, 60979, Control_c, 0, 64, 89
1, 60993, Control_c, 0, 64, 89
1, 61008, Control_c, 0, 64, 88
1, 61023, Control_c, 0, 64, 88
1, 61038, Control_c, 0, 64, 87
1, 61039, Note_on_c, 0, 64, 41
1, 61053, Control_c, 0, 64, 87
1, 61122, Note_off_c, 0, 59, 51
1, 61334, Note_on_c, 0, 69, 49
1, 61413, Note_off_c, 0, 64, 40
1, 61527, Note_on_c, 0, 68, 56
1, 61668, Control_c, 0, 64, 86
1, 61713, Control_c, 0, 64, 86
1, 61719, Note_on_c, 0, 67, 62
1, 61757, Control_c, 0, 64, 85
1, 61787, Note_off_c, 0, 31, 35
1, 61787, Control_c, 0, 64, 85
1, 61831, Control_c, 0, 64, 84
1, 61837, Note_off_c, 0, 43, 35
1, 61846, Control_c, 0, 64, 83
1, 61856, Note_off_c, 0, 69, 28
1, 61861, Control_c, 0, 64, 83
1, 61876, Control_c, 0, 64, 82
1, 61898, Control_c, 0, 64, 81
1, 61913, Control_c, 0, 64, 80
1, 61917, Note_on_c, 0, 66, 64
1, 61927, Control_c, 0, 64, 79
1, 61942, Control_c, 0, 64, 77
1, 61957, Control_c, 0, 64, 76
1, 61972, Control_c, 0, 64, 74
1, 61973, Note_off_c, 0, 67, 54
1, 61987, Control_c, 0, 64, 73
1, 62002, Control_c, 0, 64, 73
1, 62016, Control_c, 0, 64, 72
1, 62031, Control_c, 0, 64, 71
1, 62046, Control_c, 0, 64, 70
1, 62061, Control_c, 0, 64, 70
1, 62075, Control_c, 0, 64, 69
1, 62089, Note_off_c, 0, 68, 41
1, 62090, Control_c, 0, 64, 68
1, 62101, Note_on_c, 0, 65, 67
1, 62105, Control_c, 0, 64, 68
1, 62120, Control_c, 0, 64, 67
1, 62148, Note_off_c, 0, 66, 63
1, 62149, Control_c, 0, 64, 67
1, 62164, Control_c, 0, 64, 66
1, 62194, Control_c, 0, 64, 66
1, 62209, Control_c, 0, 64, 65
1, 62238, Control_c, 0, 64, 65
1, 62253, Control_c, 0, 64, 64
1, 62282, Control_c, 0, 64, 64
1, 62299, Note_on_c, 0, 64, 55
1, 62312, Control_c, 0, 64, 63
1, 62343, Control_c, 0, 64, 63
1, 62353, Note_off_c, 0, 65, 54
1, 62387, Control_c, 0, 64, 62
1, 62417, Control_c, 0, 64, 62
1, 62446, Control_c, 0, 64, 61
1, 62476, Control_c, 0, 64, 61
1, 62491, Control_c, 0, 64, 60
1, 62497, Note_on_c, 0, 63, 49
1, 62521, Control_c, 0, 64, 60
1, 62523, Note_off_c, 0, 64, 56
1, 62550, Control_c, 0, 64, 59
1, 62580, Control_c, 0, 64, 59
1, 62595, Control_c, 0, 64, 58
1, 62610, Control_c, 0, 64, 58
1, 62625, Control_c, 0, 64, 57
1, 62646, Control_c, 0, 64, 57
1, 62661, Control_c, 0, 64, 56
1, 62676, Control_c, 0, 64, 55
1, 62691, Control_c, 0, 64, 54
1, 62699, Note_off_c, 0, 63, 57
1, 62705, Control_c, 0, 64, 53
1, 62708, Note_on_c, 0, 62, 44
1, 62720, Control_c, 0, 64, 52
1, 62735, Control_c, 0, 64, 51
1, 62750, Control_c, 0, 64, 49
1, 62765, Control_c, 0, 64, 47
1, 62780, Control_c, 0, 64, 45
1, 62839, Control_c, 0, 64, 46
1, 62854, Control_c, 0, 64, 47
1, 62869, Control_c, 0, 64, 49
1, 62884, Control_c, 0, 64, 51
1, 62898, Control_c, 0, 64, 53
1, 62906, Note_on_c, 0, 67, 40
1, 62913, Control_c, 0, 64, 55
1, 62928, Control_c, 0, 64, 56
1, 62943, Control_c, 0, 64, 59
1, 62958, Control_c, 0, 64, 61
1, 62972, Control_c, 0, 64, 63
1, 62987, Control_c, 0, 64, 65
1, 62996, Note_off_c, 0, 62, 38
1, 63003, Control_c, 0, 64, 66
1, 63018, Control_c, 0, 64, 68
1, 63033, Control_c, 0, 64, 70
1, 63047, Control_c, 0, 64, 72
1, 63062, Control_c, 0, 64, 74
1, 63077, Control_c, 0, 64, 76
1, 63091, Control_c, 0, 64, 79
1, 63098, Note_on_c, 0, 66, 43
1, 63106, Control_c, 0, 64, 81
1, 63121, Control_c, 0, 64, 81
1, 63182, Control_c, 0, 64, 81
1, 63196, Control_c, 0, 64, 80
1, 63226, Control_c, 0, 64, 80
1, 63241, Control_c, 0, 64, 79
1, 63256, Control_c, 0, 64, 79
1, 63270, Control_c, 0, 64, 78
1, 63284, Note_off_c, 0, 67, 15
1, 63285, Control_c, 0, 64, 78
1, 63296, Note_on_c, 0, 65, 42
1, 63300, Control_c, 0, 64, 77
1, 63314, Control_c, 0, 64, 77
1, 63329, Control_c, 0, 64, 76
1, 63344, Control_c, 0, 64, 75
1, 63359, Control_c, 0, 64, 74
1, 63374, Control_c, 0, 64, 72
1, 63396, Control_c, 0, 64, 71
1, 63411, Control_c, 0, 64, 70
1, 63426, Control_c, 0, 64, 69
1, 63441, Control_c, 0, 64, 68
1, 63456, Control_c, 0, 64, 67
1, 63485, Control_c, 0, 64, 67
1, 63485, Control_c, 0, 67, 12
1, 63500, Control_c, 0, 64, 66
1, 63500, Control_c, 0, 67, 21
1, 63514, Control_c, 0, 64, 66
1, 63514, Control_c, 0, 67, 31
1, 63521, Note_off_c, 0, 65, 36
1, 63528, Note_on_c, 0, 64, 32
1, 63529, Control_c, 0, 64, 65
1, 63529, Control_c, 0, 67, 45
1, 63544, Control_c, 0, 64, 64
1, 63544, Control_c, 0, 67, 56
1, 63559, Control_c, 0, 64, 64
1, 63559, Control_c, 0, 67, 68
1, 63574, Control_c, 0, 64, 63
1, 63574, Control_c, 0, 67, 78
1, 63588, Control_c, 0, 67, 89
1, 63603, Control_c, 0, 64, 62
1, 63603, Control_c, 0, 67, 99
1, 63618, Note_off_c, 0, 66, 11
1, 63618, Control_c, 0, 64, 62
1, 63618, Control_c, 0, 67, 110
1, 63633, Control_c, 0, 64, 61
1, 63633, Control_c, 0, 67, 119
1, 63648, Control_c, 0, 67, 124
1, 63662, Control_c, 0, 67, 127
1, 63677, Control_c, 0, 64, 61
1, 63692, Control_c, 0, 64, 60
1, 63707, Control_c, 0, 64, 59
1, 63713, Note_on_c, 0, 63, 31
1, 63722, Control_c, 0, 64, 58
1, 63737, Control_c, 0, 64, 56
1, 63752, Control_c, 0, 64, 54
1, 63782, Control_c, 0, 64, 55
1, 63788, Note_off_c, 0, 64, 38
1, 63796, Control_c, 0, 64, 56
1, 63811, Control_c, 0, 64, 57
1, 63826, Control_c, 0, 64, 59
1, 63841, Control_c, 0, 64, 60
1, 63856, Control_c, 0, 64, 61
1, 63870, Control_c, 0, 64, 63
1, 63885, Control_c, 0, 64, 65
1, 63900, Control_c, 0, 64, 66
1, 63914, Control_c, 0, 64, 68
1, 63929, Control_c, 0, 64, 70
1, 63945, Control_c, 0, 64, 73
1, 63947, Note_on_c, 0, 62, 31
1, 63960, Control_c, 0, 64, 77
1, 63960, Note_off_c, 0, 63, 47
1, 63975, Control_c, 0, 64, 80
1, 63990, Control_c, 0, 64, 84
1, 64005, Control_c, 0, 64, 86
1, 64019, Control_c, 0, 64, 90
1, 64034, Control_c, 0, 64, 93
1, 64034, Control_c, 0, 67, 127
1, 64049, Control_c, 0, 64, 97
1, 64064, Control_c, 0, 64, 101
1, 64079, Control_c, 0, 64, 106
1, 64079, Control_c, 0, 67, 126
1, 64093, Control_c, 0, 64, 108
1, 64093, Control_c, 0, 67, 125
1, 64108, Control_c, 0, 64, 112
1, 64123, Control_c, 0, 64, 115
1, 64145, Control_c, 0, 64, 116
1, 64193, Note_on_c, 0, 61, 35
1, 64267, Note_off_c, 0, 62, 38
1, 64293, Control_c, 0, 64, 115
1, 64308, Control_c, 0, 64, 113
1, 64323, Control_c, 0, 64, 113
1, 64337, Control_c, 0, 64, 112
1, 64352, Control_c, 0, 64, 111
1, 64367, Control_c, 0, 64, 111
1, 64382, Control_c, 0, 64, 110
1, 64397, Control_c, 0, 64, 110
1, 64411, Control_c, 0, 64, 108
1, 64426, Control_c, 0, 64, 107
1, 64441, Control_c, 0, 64, 107
1, 64455, Control_c, 0, 64, 105
1, 64470, Control_c, 0, 64, 103
1, 64485, Control_c, 0, 64, 101
1, 64500, Control_c, 0, 64, 99
1, 64515, Control_c, 0, 64, 96
1, 64530, Control_c, 0, 64, 93
1, 64537, Note_on_c, 0, 60, 35
1, 64544, Control_c, 0, 64, 90
1, 64559, Control_c, 0, 64, 87
1, 64574, Control_c, 0, 64, 84
1, 64588, Note_on_c, 0, 64, 46
1, 64589, Control_c, 0, 64, 81
1, 64604, Control_c, 0, 64, 79
1, 64618, Control_c, 0, 64, 76
1, 64633, Control_c, 0, 64, 71
1, 64637, Note_off_c, 0, 61, 37
1, 64648, Control_c, 0, 64, 66
1, 64662, Control_c, 0, 64, 60
1, 64677, Control_c, 0, 64, 53
1, 64692, Control_c, 0, 64, 54
1, 64707, Control_c, 0, 64, 55
1, 64722, Control_c, 0, 64, 57
1, 64738, Control_c, 0, 64, 59
1, 64753, Control_c, 0, 64, 61
1, 64753, Control_c, 0, 67, 125
1, 64767, Control_c, 0, 64, 63
1, 64782, Control_c, 0, 64, 66
1, 64797, Control_c, 0, 64, 69
1, 64812, Control_c, 0, 64, 73
1, 64812, Control_c, 0, 67, 124
1, 64827, Control_c, 0, 64, 78
1, 64841, Control_c, 0, 64, 83
1, 64856, Control_c, 0, 64, 88
1, 64871, Control_c, 0, 64, 94
1, 64893, Control_c, 0, 64, 99
1, 64908, Control_c, 0, 64, 106
1, 64923, Control_c, 0, 64, 119
1, 64938, Control_c, 0, 64, 127
1, 64957, Note_on_c, 0, 59, 30
1, 64993, Note_off_c, 0, 60, 42
1, 65152, Note_off_c, 0, 59, 40
1, 65174, Note_on_c, 0, 72, 46
1, 65192, Note_on_c, 0, 57, 30
1, 65384, Note_on_c, 0, 71, 54
1, 65405, Note_off_c, 0, 57, 42
1, 65410, Note_on_c, 0, 56, 35
1, 65447, Note_off_c, 0, 64, 35
1, 65458, Note_off_c, 0, 72, 30
1, 65485, Control_c, 0, 64, 121
1, 65500, Control_c, 0, 64, 115
1, 65515, Control_c, 0, 64, 111
1, 65531, Control_c, 0, 64, 107
1, 65546, Control_c, 0, 64, 104
1, 65561, Control_c, 0, 64, 99
1, 65576, Control_c, 0, 64, 95
1, 65585, Note_off_c, 0, 56, 38
1, 65590, Control_c, 0, 64, 89
1, 65600, Note_on_c, 0, 48, 35
1, 65605, Control_c, 0, 64, 80
1, 65614, Note_on_c, 0, 64, 48
1, 65616, Note_off_c, 0, 71, 55
1, 65618, Note_on_c, 0, 76, 49
1, 65618, Note_on_c, 0, 55, 33
1, 65620, Control_c, 0, 64, 71
1, 65642, Control_c, 0, 64, 62
1, 65657, Control_c, 0, 64, 50
1, 65671, Control_c, 0, 64, 49
1, 65686, Control_c, 0, 64, 51
1, 65686, Control_c, 0, 67, 124
1, 65701, Control_c, 0, 64, 54
1, 65701, Control_c, 0, 67, 123
1, 65716, Control_c, 0, 64, 58
1, 65731, Control_c, 0, 64, 61
1, 65734, Note_off_c, 0, 48, 46
1, 65746, Control_c, 0, 64, 65
1, 65746, Control_c, 0, 67, 122
1, 65761, Control_c, 0, 64, 69
1, 65776, Control_c, 0, 64, 75
1, 65790, Control_c, 0, 64, 82
1, 65805, Control_c, 0, 64, 89
1, 65820, Control_c, 0, 64, 96
1, 65835, Control_c, 0, 64, 101
1, 65835, Control_c, 0, 67, 122
1, 65850, Control_c, 0, 64, 105
1, 65864, Control_c, 0, 64, 110
1, 65871, Note_on_c, 0, 57, 42
1, 65871, Note_off_c, 0, 55, 40
1, 65879, Control_c, 0, 64, 117
1, 65879, Control_c, 0, 67, 121
1, 65894, Control_c, 0, 64, 127
1, 66056, Note_on_c, 0, 72, 58
1, 66064, Note_on_c, 0, 58, 39
1, 66142, Note_off_c, 0, 57, 24
1, 66256, Note_on_c, 0, 71, 71
1, 66277, Note_off_c, 0, 76, 41
1, 66280, Note_on_c, 0, 59, 40
1, 66284, Note_off_c, 0, 58, 37
1, 66307, Note_off_c, 0, 64, 58
1, 66354, Control_c, 0, 67, 122
1, 66405, Control_c, 0, 64, 119
1, 66420, Control_c, 0, 64, 111
1, 66435, Control_c, 0, 64, 107
1, 66450, Control_c, 0, 64, 103
1, 66465, Control_c, 0, 64, 100
1, 66469, Note_on_c, 0, 76, 71
1, 66480, Control_c, 0, 64, 95
1, 66485, Note_on_c, 0, 60, 43
1, 66494, Control_c, 0, 64, 87
1, 66494, Control_c, 0, 67, 122
1, 66497, Note_on_c, 0, 64, 38
1, 66509, Control_c, 0, 64, 81
1, 66524, Control_c, 0, 64, 75
1, 66536, Note_off_c, 0, 59, 33
1, 66539, Control_c, 0, 64, 70
1, 66554, Control_c, 0, 64, 65
1, 66557, Note_off_c, 0, 71, 58
1, 66569, Control_c, 0, 64, 61
1, 66584, Control_c, 0, 64, 57
1, 66587, Note_off_c, 0, 72, 44
1, 66599, Control_c, 0, 64, 56
1, 66613, Control_c, 0, 64, 57
1, 66628, Control_c, 0, 64, 59
1, 66643, Control_c, 0, 64, 61
1, 66658, Control_c, 0, 64, 64
1, 66673, Control_c, 0, 64, 67
1, 66679, Note_off_c, 0, 60, 62
1, 66682, Note_on_c, 0, 59, 46
1, 66687, Control_c, 0, 64, 75
1, 66702, Control_c, 0, 64, 87
1, 66717, Control_c, 0, 64, 106
1, 66731, Control_c, 0, 64, 127
1, 66736, Note_off_c, 0, 64, 58
1, 66867, Note_on_c, 0, 74, 71
1, 66891, Note_on_c, 0, 57, 46
1, 66895, Control_c, 0, 64, 106
1, 66895, Control_c, 0, 67, 123
1, 66906, Note_on_c, 0, 52, 37
1, 66908, Note_on_c, 0, 65, 51
1, 66910, Control_c, 0, 64, 91
1, 66923, Note_off_c, 0, 59, 38
1, 66925, Control_c, 0, 64, 76
1, 66939, Control_c, 0, 64, 64
1, 66954, Note_off_c, 0, 76, 53
1, 66954, Control_c, 0, 64, 44
1, 66969, Control_c, 0, 64, 39
1, 66984, Control_c, 0, 64, 45
1, 66999, Control_c, 0, 64, 50
1, 67013, Control_c, 0, 64, 56
1, 67028, Control_c, 0, 64, 61
1, 67043, Control_c, 0, 64, 66
1, 67058, Control_c, 0, 64, 74
1, 67061, Note_off_c, 0, 52, 57
1, 67073, Control_c, 0, 64, 88
1, 67087, Note_on_c, 0, 56, 48
1, 67087, Note_off_c, 0, 57, 58
1, 67087, Control_c, 0, 64, 116
1, 67087, Control_c, 0, 67, 124
1, 67102, Control_c, 0, 64, 127
1, 67102, Control_c, 0, 67, 124
1, 67117, Control_c, 0, 67, 125
1, 67154, Note_off_c, 0, 74, 61
1, 67289, Control_c, 0, 64, 107
1, 67294, Note_on_c, 0, 72, 59
1, 67299, Note_on_c, 0, 57, 38
1, 67303, Control_c, 0, 64, 94
1, 67304, Note_off_c, 0, 65, 54
1, 67311, Note_off_c, 0, 56, 37
1, 67317, Note_on_c, 0, 50, 37
1, 67318, Note_on_c, 0, 66, 45
1, 67318, Control_c, 0, 64, 81
1, 67333, Control_c, 0, 64, 67
1, 67333, Control_c, 0, 67, 125
1, 67348, Control_c, 0, 64, 53
1, 67362, Control_c, 0, 64, 37
1, 67377, Control_c, 0, 64, 41
1, 67392, Control_c, 0, 64, 47
1, 67407, Control_c, 0, 64, 54
1, 67422, Control_c, 0, 64, 61
1, 67436, Control_c, 0, 64, 66
1, 67451, Control_c, 0, 64, 74
1, 67466, Control_c, 0, 64, 90
1, 67481, Control_c, 0, 64, 127
1, 67514, Note_on_c, 0, 59, 49
1, 67545, Note_off_c, 0, 50, 40
1, 67552, Note_off_c, 0, 59, 63
1, 67580, Note_on_c, 0, 71, 64
1, 67621, Note_off_c, 0, 66, 45
1, 67651, Note_off_c, 0, 72, 38
1, 67680, Note_off_c, 0, 57, 56
1, 67688, Control_c, 0, 64, 99
1, 67693, Note_on_c, 0, 69, 69
1, 67703, Control_c, 0, 64, 75
1, 67707, Note_on_c, 0, 45, 45
1, 67718, Control_c, 0, 64, 61
1, 67719, Note_off_c, 0, 71, 56
1, 67725, Note_on_c, 0, 67, 47
1, 67733, Control_c, 0, 64, 35
1, 67739, Note_on_c, 0, 60, 47
1, 67748, Control_c, 0, 64, 33
1, 67762, Control_c, 0, 64, 46
1, 67777, Control_c, 0, 64, 56
1, 67777, Control_c, 0, 67, 125
1, 67792, Control_c, 0, 64, 64
1, 67807, Control_c, 0, 64, 71
1, 67807, Control_c, 0, 67, 124
1, 67809, Note_off_c, 0, 60, 65
1, 67822, Control_c, 0, 64, 84
1, 67836, Control_c, 0, 64, 127
1, 67864, Note_off_c, 0, 67, 59
1, 67881, Note_off_c, 0, 45, 59
1, 67916, Note_on_c, 0, 62, 64
1, 68023, Control_c, 0, 67, 125
1, 68180, Note_on_c, 0, 64, 53
1, 68189, Note_on_c, 0, 65, 59
1, 68229, Note_off_c, 0, 62, 57
1, 68336, Note_off_c, 0, 69, 56
1, 68450, Control_c, 0, 67, 125
1, 68486, Note_on_c, 0, 62, 53
1, 68492, Note_off_c, 0, 64, 59
1, 68683, Note_off_c, 0, 62, 59
1, 68696, Note_on_c, 0, 60, 44
1, 68696, Note_on_c, 0, 76, 61
1, 68724, Control_c, 0, 67, 125
1, 68770, Control_c, 0, 67, 124
1, 68785, Control_c, 0, 67, 124
1, 68800, Control_c, 0, 67, 123
1, 68874, Control_c, 0, 67, 122
1, 68884, Note_on_c, 0, 74, 76
1, 68898, Note_on_c, 0, 59, 46
1, 68907, Note_off_c, 0, 60, 61
1, 68934, Note_off_c, 0, 59, 64
1, 68939, Note_off_c, 0, 65, 58
1, 68948, Control_c, 0, 67, 122
1, 69067, Control_c, 0, 64, 121
1, 69081, Control_c, 0, 64, 95
1, 69087, Note_on_c, 0, 65, 68
1, 69092, Note_on_c, 0, 77, 65
1, 69096, Control_c, 0, 64, 76
1, 69106, Note_on_c, 0, 50, 42
1, 69109, Note_on_c, 0, 57, 42
1, 69111, Control_c, 0, 64, 64
1, 69125, Control_c, 0, 64, 45
1, 69137, Note_off_c, 0, 74, 61
1, 69140, Control_c, 0, 64, 34
1, 69155, Control_c, 0, 64, 40
1, 69155, Control_c, 0, 67, 120
1, 69157, Note_off_c, 0, 76, 34
1, 69170, Control_c, 0, 64, 46
1, 69185, Control_c, 0, 64, 53
1, 69185, Control_c, 0, 67, 120
1, 69199, Control_c, 0, 64, 61
1, 69205, Note_off_c, 0, 50, 60
1, 69214, Control_c, 0, 64, 66
1, 69229, Control_c, 0, 64, 73
1, 69244, Control_c, 0, 64, 87
1, 69244, Control_c, 0, 67, 119
1, 69259, Control_c, 0, 64, 115
1, 69259, Control_c, 0, 67, 119
1, 69273, Control_c, 0, 64, 127
1, 69302, Note_on_c, 0, 59, 56
1, 69332, Note_off_c, 0, 57, 46
1, 69474, Control_c, 0, 67, 119
1, 69499, Note_on_c, 0, 76, 70
1, 69518, Note_on_c, 0, 60, 50
1, 69518, Control_c, 0, 67, 120
1, 69549, Control_c, 0, 67, 120
1, 69591, Note_off_c, 0, 59, 47
1, 69614, Note_off_c, 0, 77, 55
1, 69637, Control_c, 0, 67, 121
1, 69693, Note_on_c, 0, 74, 85
1, 69700, Note_off_c, 0, 65, 59
1, 69710, Note_on_c, 0, 62, 52
1, 69712, Note_off_c, 0, 60, 61
1, 69815, Control_c, 0, 67, 122
1, 69875, Control_c, 0, 64, 113
1, 69889, Control_c, 0, 64, 101
1, 69889, Control_c, 0, 67, 122
1, 69895, Note_on_c, 0, 77, 85
1, 69904, Control_c, 0, 64, 90
1, 69909, Note_off_c, 0, 62, 54
1, 69913, Note_on_c, 0, 64, 50
1, 69919, Control_c, 0, 64, 80
1, 69926, Note_on_c, 0, 69, 60
1, 69932, Note_off_c, 0, 74, 60
1, 69934, Control_c, 0, 64, 69
1, 69948, Control_c, 0, 64, 62
1, 69948, Control_c, 0, 67, 123
1, 69963, Control_c, 0, 64, 55
1, 69964, Note_off_c, 0, 76, 20
1, 69993, Control_c, 0, 64, 57
1, 70008, Control_c, 0, 64, 59
1, 70022, Control_c, 0, 64, 62
1, 70037, Control_c, 0, 64, 65
1, 70052, Control_c, 0, 64, 72
1, 70066, Note_off_c, 0, 69, 60
1, 70067, Control_c, 0, 64, 85
1, 70082, Control_c, 0, 64, 118
1, 70092, Note_off_c, 0, 64, 62
1, 70096, Control_c, 0, 64, 127
1, 70110, Note_on_c, 0, 62, 51
1, 70115, Note_off_c, 0, 77, 60
1, 70309, Note_on_c, 0, 79, 65
1, 70311, Control_c, 0, 64, 106
1, 70327, Control_c, 0, 64, 91
1, 70335, Note_on_c, 0, 60, 40
1, 70339, Note_on_c, 0, 65, 41
1, 70342, Control_c, 0, 64, 78
1, 70346, Note_on_c, 0, 55, 33
1, 70357, Control_c, 0, 64, 66
1, 70372, Control_c, 0, 64, 54
1, 70377, Note_off_c, 0, 62, 38
1, 70386, Control_c, 0, 64, 44
1, 70401, Control_c, 0, 64, 49
1, 70416, Control_c, 0, 64, 52
1, 70431, Control_c, 0, 64, 56
1, 70446, Control_c, 0, 64, 60
1, 70460, Control_c, 0, 64, 64
1, 70475, Control_c, 0, 64, 71
1, 70491, Control_c, 0, 64, 82
1, 70506, Control_c, 0, 64, 108
1, 70521, Control_c, 0, 64, 127
1, 70526, Note_off_c, 0, 79, 64
1, 70542, Note_off_c, 0, 65, 54
1, 70543, Note_on_c, 0, 59, 40
1, 70552, Note_off_c, 0, 60, 37
1, 70560, Note_off_c, 0, 55, 34
1, 70574, Note_on_c, 0, 71, 18
1, 70653, Control_c, 0, 67, 124
1, 70698, Control_c, 0, 64, 118
1, 70713, Control_c, 0, 64, 113
1, 70727, Control_c, 0, 64, 107
1, 70739, Note_off_c, 0, 59, 55
1, 70742, Control_c, 0, 64, 101
1, 70757, Control_c, 0, 64, 96
1, 70763, Note_on_c, 0, 76, 52
1, 70765, Note_on_c, 0, 60, 30
1, 70772, Control_c, 0, 64, 90
1, 70787, Control_c, 0, 64, 86
1, 70789, Note_on_c, 0, 66, 37
1, 70802, Control_c, 0, 64, 80
1, 70817, Control_c, 0, 64, 73
1, 70831, Control_c, 0, 64, 67
1, 70846, Control_c, 0, 64, 61
1, 70861, Control_c, 0, 64, 57
1, 70883, Control_c, 0, 64, 56
1, 70891, Note_off_c, 0, 71, 10
1, 70898, Control_c, 0, 64, 57
1, 70912, Control_c, 0, 64, 59
1, 70927, Control_c, 0, 64, 62
1, 70942, Control_c, 0, 64, 64
1, 70957, Control_c, 0, 64, 68
1, 70972, Control_c, 0, 64, 76
1, 70986, Control_c, 0, 64, 91
1, 71001, Control_c, 0, 64, 127
1, 71025, Note_on_c, 0, 55, 32
1, 71096, Note_on_c, 0, 74, 47
1, 71137, Note_off_c, 0, 66, 39
1, 71195, Control_c, 0, 64, 113
1, 71197, Note_off_c, 0, 60, 39
1, 71210, Control_c, 0, 64, 104
1, 71212, Note_off_c, 0, 74, 52
1, 71225, Control_c, 0, 64, 94
1, 71225, Note_off_c, 0, 76, 23
1, 71226, Note_on_c, 0, 72, 45
1, 71234, Note_on_c, 0, 52, 35
1, 71239, Control_c, 0, 64, 81
1, 71246, Note_on_c, 0, 67, 36
1, 71254, Control_c, 0, 64, 68
1, 71269, Control_c, 0, 64, 57
1, 71283, Control_c, 0, 64, 45
1, 71285, Note_off_c, 0, 55, 44
1, 71298, Control_c, 0, 64, 51
1, 71313, Control_c, 0, 64, 54
1, 71328, Control_c, 0, 64, 56
1, 71343, Control_c, 0, 64, 60
1, 71357, Control_c, 0, 64, 63
1, 71372, Control_c, 0, 64, 66
1, 71387, Control_c, 0, 64, 72
1, 71401, Control_c, 0, 64, 81
1, 71401, Control_c, 0, 67, 123
1, 71416, Control_c, 0, 64, 94
1, 71431, Control_c, 0, 64, 116
1, 71446, Control_c, 0, 64, 127
1, 71464, Note_off_c, 0, 67, 35
1, 71482, Note_on_c, 0, 45, 39
1, 71609, Note_off_c, 0, 45, 47
1, 71661, Control_c, 0, 67, 122
1, 71764, Control_c, 0, 67, 122
1, 71792, Note_on_c, 0, 60, 39
1, 71836, Note_on_c, 0, 64, 49
1, 71888, Note_off_c, 0, 52, 43
1, 71935, Note_off_c, 0, 72, 35
1, 71988, Control_c, 0, 67, 121
1, 72121, Control_c, 0, 67, 120
1, 72128, Note_off_c, 0, 60, 56
1, 72129, Note_on_c, 0, 59, 40
1, 72210, Control_c, 0, 67, 120
1, 72254, Control_c, 0, 67, 119
1, 72295, Note_off_c, 0, 59, 56
1, 72298, Control_c, 0, 67, 119
1, 72324, Note_on_c, 0, 72, 50
1, 72328, Control_c, 0, 67, 118
1, 72336, Note_on_c, 0, 57, 37
1, 72518, Note_on_c, 0, 71, 63
1, 72528, Note_on_c, 0, 56, 43
1, 72542, Note_off_c, 0, 57, 53
1, 72566, Note_off_c, 0, 56, 64
1, 72577, Note_off_c, 0, 64, 59
1, 72585, Note_off_c, 0, 72, 53
1, 72692, Control_c, 0, 64, 115
1, 72706, Control_c, 0, 64, 96
1, 72715, Note_on_c, 0, 45, 44
1, 72721, Control_c, 0, 64, 79
1, 72723, Note_on_c, 0, 55, 38
1, 72724, Note_on_c, 0, 64, 58
1, 72726, Note_on_c, 0, 76, 59
1, 72736, Control_c, 0, 64, 64
1, 72751, Control_c, 0, 64, 50
1, 72758, Note_off_c, 0, 71, 59
1, 72766, Control_c, 0, 64, 47
1, 72781, Control_c, 0, 64, 52
1, 72796, Control_c, 0, 64, 56
1, 72804, Note_off_c, 0, 45, 60
1, 72811, Control_c, 0, 64, 60
1, 72826, Control_c, 0, 64, 65
1, 72840, Control_c, 0, 64, 70
1, 72855, Control_c, 0, 64, 80
1, 72870, Control_c, 0, 64, 97
1, 72885, Control_c, 0, 64, 127
1, 72929, Control_c, 0, 67, 119
1, 72931, Note_off_c, 0, 55, 59
1, 72943, Note_on_c, 0, 57, 51
1, 72959, Control_c, 0, 67, 119
1, 73003, Control_c, 0, 67, 120
1, 73092, Control_c, 0, 67, 120
1, 73142, Note_on_c, 0, 72, 67
1, 73148, Note_on_c, 0, 58, 48
1, 73203, Control_c, 0, 67, 121
1, 73262, Control_c, 0, 67, 122
1, 73329, Note_on_c, 0, 71, 81
1, 73338, Note_off_c, 0, 57, 39
1, 73351, Note_on_c, 0, 59, 52
1, 73351, Note_off_c, 0, 76, 31
1, 73351, Control_c, 0, 67, 122
1, 73357, Note_off_c, 0, 58, 54
1, 73383, Note_off_c, 0, 64, 58
1, 73410, Control_c, 0, 67, 123
1, 73528, Note_off_c, 0, 72, 0
1, 73530, Control_c, 0, 64, 108
1, 73530, Control_c, 0, 67, 124
1, 73538, Note_on_c, 0, 76, 82
1, 73541, Note_on_c, 0, 60, 51
1, 73545, Control_c, 0, 64, 97
1, 73559, Control_c, 0, 64, 88
1, 73559, Control_c, 0, 67, 124
1, 73560, Note_on_c, 0, 64, 60
1, 73565, Poly_aftertouch_c, 0, 72, 127
1, 73574, Control_c, 0, 64, 78
1, 73589, Control_c, 0, 64, 70
1, 73592, Note_off_c, 0, 59, 35
1, 73604, Control_c, 0, 64, 63
1, 73614, Note_off_c, 0, 71, 57
1, 73619, Control_c, 0, 64, 55
1, 73631, Poly_aftertouch_c, 0, 72, 0
1, 73633, Control_c, 0, 64, 54
1, 73648, Control_c, 0, 64, 55
1, 73663, Control_c, 0, 64, 57
1, 73678, Control_c, 0, 64, 60
1, 73693, Control_c, 0, 64, 62
1, 73708, Control_c, 0, 64, 65
1, 73723, Control_c, 0, 64, 70
1, 73737, Control_c, 0, 64, 79
1, 73746, Note_on_c, 0, 59, 55
1, 73749, Note_off_c, 0, 60, 63
1, 73752, Control_c, 0, 64, 98
1, 73767, Control_c, 0, 64, 127
1, 73790, Note_off_c, 0, 64, 60
1, 73936, Note_on_c, 0, 74, 77
1, 73938, Control_c, 0, 64, 114
1, 73944, Note_on_c, 0, 52, 46
1, 73952, Control_c, 0, 64, 102
1, 73952, Note_on_c, 0, 57, 48
1, 73959, Note_on_c, 0, 65, 59
1, 73967, Control_c, 0, 64, 92
1, 73982, Control_c, 0, 64, 81
1, 73987, Note_off_c, 0, 59, 38
1, 73996, Control_c, 0, 64, 71
1, 74010, Note_off_c, 0, 76, 60
1, 74011, Control_c, 0, 64, 62
1, 74026, Control_c, 0, 64, 48
1, 74041, Control_c, 0, 64, 42
1, 74056, Control_c, 0, 64, 42
1, 74070, Control_c, 0, 64, 45
1, 74085, Control_c, 0, 64, 51
1, 74100, Control_c, 0, 64, 58
1, 74115, Control_c, 0, 64, 64
1, 74129, Control_c, 0, 64, 72
1, 74130, Note_on_c, 0, 56, 56
1, 74131, Note_off_c, 0, 52, 60
1, 74144, Control_c, 0, 64, 85
1, 74151, Note_off_c, 0, 57, 57
1, 74159, Control_c, 0, 64, 111
1, 74174, Control_c, 0, 64, 127
1, 74218, Note_off_c, 0, 74, 60
1, 74293, Control_c, 0, 67, 125
1, 74339, Control_c, 0, 64, 112
1, 74346, Note_on_c, 0, 57, 47
1, 74348, Note_on_c, 0, 72, 67
1, 74349, Note_on_c, 0, 50, 38
1, 74354, Control_c, 0, 64, 90
1, 74364, Note_on_c, 0, 66, 58
1, 74368, Control_c, 0, 64, 75
1, 74375, Note_off_c, 0, 56, 37
1, 74383, Control_c, 0, 64, 63
1, 74398, Control_c, 0, 64, 47
1, 74413, Control_c, 0, 64, 38
1, 74414, Note_off_c, 0, 65, 57
1, 74427, Control_c, 0, 64, 42
1, 74442, Control_c, 0, 64, 48
1, 74457, Control_c, 0, 64, 55
1, 74472, Control_c, 0, 64, 62
1, 74487, Control_c, 0, 64, 69
1, 74501, Control_c, 0, 64, 82
1, 74516, Control_c, 0, 64, 111
1, 74531, Control_c, 0, 64, 127
1, 74551, Note_on_c, 0, 59, 60
1, 74584, Note_off_c, 0, 50, 39
1, 74591, Note_off_c, 0, 59, 62
1, 74635, Note_on_c, 0, 71, 75
1, 74659, Note_off_c, 0, 66, 60
1, 74701, Control_c, 0, 67, 124
1, 74739, Note_off_c, 0, 57, 60
1, 74743, Note_off_c, 0, 72, 60
1, 74746, Control_c, 0, 64, 96
1, 74747, Note_on_c, 0, 69, 78
1, 74752, Note_on_c, 0, 45, 47
1, 74760, Control_c, 0, 64, 76
1, 74765, Note_on_c, 0, 60, 62
1, 74769, Note_on_c, 0, 67, 63
1, 74775, Control_c, 0, 64, 62
1, 74776, Note_off_c, 0, 71, 58
1, 74790, Control_c, 0, 64, 36
1, 74805, Control_c, 0, 64, 40
1, 74805, Control_c, 0, 67, 124
1, 74820, Control_c, 0, 64, 50
1, 74835, Control_c, 0, 64, 56
1, 74835, Control_c, 0, 67, 123
1, 74850, Control_c, 0, 64, 62
1, 74861, Note_off_c, 0, 60, 64
1, 74865, Control_c, 0, 64, 67
1, 74880, Control_c, 0, 64, 77
1, 74894, Control_c, 0, 64, 95
1, 74897, Note_off_c, 0, 67, 61
1, 74909, Control_c, 0, 64, 127
1, 74950, Note_on_c, 0, 62, 82
1, 74950, Note_off_c, 0, 45, 56
1, 74957, Note_on_c, 0, 47, 55
1, 75092, Note_off_c, 0, 62, 60
1, 75199, Note_on_c, 0, 45, 51
1, 75243, Note_on_c, 0, 65, 72
1, 75248, Note_off_c, 0, 47, 37
1, 75253, Note_on_c, 0, 64, 71
1, 75264, Control_c, 0, 64, 99
1, 75279, Control_c, 0, 64, 74
1, 75294, Control_c, 0, 64, 57
1, 75309, Control_c, 0, 64, 0
1, 75353, Control_c, 0, 64, 32
1, 75375, Control_c, 0, 64, 50
1, 75390, Control_c, 0, 64, 62
1, 75398, Note_off_c, 0, 45, 62
1, 75405, Control_c, 0, 64, 68
1, 75420, Control_c, 0, 64, 76
1, 75428, Note_off_c, 0, 64, 59
1, 75435, Control_c, 0, 64, 98
1, 75449, Control_c, 0, 64, 127
1, 75452, Note_off_c, 0, 69, 26
1, 75509, Control_c, 0, 67, 124
1, 75538, Note_on_c, 0, 62, 69
1, 75553, Control_c, 0, 67, 124
1, 75731, Note_on_c, 0, 60, 57
1, 75732, Note_on_c, 0, 76, 70
1, 75908, Note_on_c, 0, 59, 57
1, 75910, Note_on_c, 0, 74, 83
1, 75917, Note_off_c, 0, 62, 40
1, 75925, Note_off_c, 0, 60, 63
1, 75942, Note_off_c, 0, 59, 64
1, 75954, Note_off_c, 0, 65, 59
1, 76007, Note_off_c, 0, 76, 54
1, 76087, Control_c, 0, 64, 118
1, 76102, Control_c, 0, 64, 96
1, 76106, Note_on_c, 0, 45, 45
1, 76123, Note_on_c, 0, 65, 73
1, 76125, Control_c, 0, 64, 80
1, 76130, Note_on_c, 0, 57, 41
1, 76132, Note_on_c, 0, 77, 65
1, 76140, Control_c, 0, 64, 67
1, 76143, Note_off_c, 0, 74, 57
1, 76154, Control_c, 0, 64, 55
1, 76169, Control_c, 0, 64, 45
1, 76184, Control_c, 0, 64, 48
1, 76198, Control_c, 0, 64, 50
1, 76209, Note_off_c, 0, 45, 62
1, 76213, Control_c, 0, 64, 54
1, 76228, Control_c, 0, 64, 58
1, 76243, Control_c, 0, 64, 62
1, 76243, Control_c, 0, 67, 124
1, 76258, Control_c, 0, 64, 68
1, 76272, Control_c, 0, 64, 80
1, 76287, Control_c, 0, 64, 105
1, 76302, Control_c, 0, 64, 127
1, 76331, Note_off_c, 0, 57, 63
1, 76336, Note_on_c, 0, 59, 60
1, 76361, Control_c, 0, 67, 123
1, 76495, Control_c, 0, 67, 122
1, 76534, Note_on_c, 0, 60, 49
1, 76536, Note_on_c, 0, 76, 76
1, 76583, Note_off_c, 0, 59, 49
1, 76667, Note_off_c, 0, 77, 54
1, 76682, Note_off_c, 0, 65, 58
1, 76715, Note_off_c, 0, 60, 62
1, 76716, Note_on_c, 0, 62, 51
1, 76721, Note_on_c, 0, 74, 86
1, 76831, Note_off_c, 0, 76, 55
1, 76928, Note_on_c, 0, 77, 80
1, 76930, Note_off_c, 0, 62, 51
1, 76933, Control_c, 0, 64, 110
1, 76933, Note_on_c, 0, 64, 49
1, 76948, Note_on_c, 0, 69, 60
1, 76948, Control_c, 0, 64, 95
1, 76957, Note_off_c, 0, 74, 60
1, 76963, Control_c, 0, 64, 84
1, 76977, Control_c, 0, 64, 73
1, 76992, Control_c, 0, 64, 65
1, 77007, Control_c, 0, 64, 58
1, 77021, Control_c, 0, 64, 55
1, 77036, Control_c, 0, 64, 57
1, 77051, Control_c, 0, 64, 59
1, 77066, Control_c, 0, 64, 62
1, 77081, Control_c, 0, 64, 66
1, 77095, Control_c, 0, 64, 73
1, 77098, Note_off_c, 0, 69, 60
1, 77110, Control_c, 0, 64, 91
1, 77125, Control_c, 0, 64, 127
1, 77130, Note_off_c, 0, 64, 60
1, 77142, Note_off_c, 0, 77, 55
1, 77151, Note_on_c, 0, 62, 49
1, 77333, Control_c, 0, 64, 114
1, 77348, Control_c, 0, 64, 94
1, 77348, Note_on_c, 0, 79, 66
1, 77362, Control_c, 0, 64, 79
1, 77363, Note_on_c, 0, 60, 34
1, 77372, Note_on_c, 0, 55, 36
1, 77377, Control_c, 0, 64, 66
1, 77381, Note_on_c, 0, 65, 38
1, 77382, Note_off_c, 0, 62, 39
1, 77392, Control_c, 0, 64, 52
1, 77407, Control_c, 0, 64, 48
1, 77421, Control_c, 0, 64, 52
1, 77421, Control_c, 0, 67, 122
1, 77436, Control_c, 0, 64, 55
1, 77451, Control_c, 0, 64, 58
1, 77466, Control_c, 0, 64, 62
1, 77481, Control_c, 0, 64, 68
1, 77495, Control_c, 0, 64, 76
1, 77495, Control_c, 0, 67, 121
1, 77511, Control_c, 0, 64, 94
1, 77526, Note_off_c, 0, 65, 62
1, 77526, Control_c, 0, 64, 127
1, 77544, Note_off_c, 0, 79, 60
1, 77578, Note_off_c, 0, 60, 35
1, 77585, Note_on_c, 0, 59, 36
1, 77585, Note_off_c, 0, 55, 42
1, 77800, Control_c, 0, 64, 108
1, 77814, Note_off_c, 0, 59, 36
1, 77815, Control_c, 0, 64, 99
1, 77822, Note_on_c, 0, 76, 48
1, 77824, Note_on_c, 0, 60, 32
1, 77830, Control_c, 0, 64, 92
1, 77836, Note_on_c, 0, 66, 40
1, 77844, Control_c, 0, 64, 86
1, 77859, Control_c, 0, 64, 78
1, 77874, Control_c, 0, 64, 71
1, 77889, Control_c, 0, 64, 64
1, 77904, Control_c, 0, 64, 58
1, 77918, Control_c, 0, 64, 56
1, 77933, Control_c, 0, 64, 58
1, 77948, Control_c, 0, 64, 59
1, 77962, Control_c, 0, 64, 61
1, 77978, Control_c, 0, 64, 63
1, 77993, Control_c, 0, 64, 65
1, 78008, Control_c, 0, 64, 70
1, 78023, Control_c, 0, 64, 78
1, 78037, Control_c, 0, 64, 91
1, 78052, Control_c, 0, 64, 102
1, 78067, Control_c, 0, 64, 108
1, 78082, Control_c, 0, 64, 108
1, 78085, Note_on_c, 0, 55, 33
1, 78126, Control_c, 0, 64, 108
1, 78141, Control_c, 0, 64, 107
1, 78156, Control_c, 0, 64, 106
1, 78163, Note_off_c, 0, 76, 37
1, 78164, Note_on_c, 0, 74, 43
1, 78170, Control_c, 0, 64, 104
1, 78185, Note_off_c, 0, 66, 40
1, 78185, Control_c, 0, 64, 101
1, 78200, Control_c, 0, 64, 99
1, 78215, Control_c, 0, 64, 97
1, 78230, Control_c, 0, 64, 95
1, 78245, Control_c, 0, 64, 93
1, 78260, Control_c, 0, 64, 90
1, 78272, Note_off_c, 0, 74, 52
1, 78275, Control_c, 0, 64, 86
1, 78290, Control_c, 0, 64, 80
1, 78293, Note_on_c, 0, 72, 42
1, 78305, Control_c, 0, 64, 72
1, 78308, Note_on_c, 0, 52, 29
1, 78311, Note_on_c, 0, 67, 34
1, 78320, Control_c, 0, 64, 63
1, 78334, Control_c, 0, 64, 55
1, 78349, Control_c, 0, 64, 52
1, 78353, Note_off_c, 0, 55, 39
1, 78372, Control_c, 0, 64, 53
1, 78387, Control_c, 0, 64, 55
1, 78402, Control_c, 0, 64, 57
1, 78402, Control_c, 0, 67, 120
1, 78416, Control_c, 0, 64, 60
1, 78416, Control_c, 0, 67, 120
1, 78431, Control_c, 0, 64, 63
1, 78446, Control_c, 0, 64, 68
1, 78461, Control_c, 0, 64, 74
1, 78475, Control_c, 0, 64, 83
1, 78475, Control_c, 0, 67, 119
1, 78490, Control_c, 0, 64, 93
1, 78505, Control_c, 0, 64, 108
1, 78515, Note_off_c, 0, 67, 27
1, 78520, Control_c, 0, 64, 127
1, 78521, Note_off_c, 0, 72, 34
1, 78541, Note_off_c, 0, 60, 28
1, 78575, Note_on_c, 0, 48, 34
1, 78650, Note_off_c, 0, 52, 43
1, 78678, Note_off_c, 0, 48, 53
1, 78964, Control_c, 0, 64, 123
1, 78974, Note_on_c, 0, 44, 39
1, 78979, Control_c, 0, 64, 114
1, 78993, Control_c, 0, 64, 110
1, 79008, Control_c, 0, 64, 104
1, 79021, Note_on_c, 0, 59, 30
1, 79023, Control_c, 0, 64, 99
1, 79038, Control_c, 0, 64, 94
1, 79053, Control_c, 0, 64, 90
1, 79068, Control_c, 0, 64, 86
1, 79083, Control_c, 0, 64, 83
1, 79097, Control_c, 0, 64, 81
1, 79121, Control_c, 0, 64, 80
1, 79136, Control_c, 0, 64, 78
1, 79151, Control_c, 0, 64, 77
1, 79165, Control_c, 0, 64, 75
1, 79180, Control_c, 0, 64, 73
1, 79195, Control_c, 0, 64, 72
1, 79210, Control_c, 0, 64, 70
1, 79224, Control_c, 0, 64, 68
1, 79239, Control_c, 0, 64, 66
1, 79254, Control_c, 0, 64, 64
1, 79269, Control_c, 0, 64, 62
1, 79283, Control_c, 0, 64, 61
1, 79298, Control_c, 0, 64, 60
1, 79313, Control_c, 0, 64, 59
1, 79357, Control_c, 0, 64, 60
1, 79372, Control_c, 0, 64, 61
1, 79387, Control_c, 0, 64, 62
1, 79402, Control_c, 0, 64, 63
1, 79409, Note_on_c, 0, 65, 33
1, 79416, Control_c, 0, 64, 64
1, 79431, Control_c, 0, 64, 65
1, 79446, Control_c, 0, 64, 67
1, 79461, Control_c, 0, 64, 70
1, 79475, Control_c, 0, 64, 74
1, 79489, Control_c, 0, 64, 79
1, 79504, Control_c, 0, 64, 83
1, 79519, Control_c, 0, 64, 88
1, 79534, Control_c, 0, 64, 94
1, 79549, Control_c, 0, 64, 100
1, 79563, Control_c, 0, 64, 111
1, 79578, Control_c, 0, 64, 127
1, 79598, Note_on_c, 0, 52, 49
1, 79624, Note_on_c, 0, 64, 38
1, 79647, Note_off_c, 0, 44, 39
1, 79664, Note_off_c, 0, 65, 34
1, 79703, Note_off_c, 0, 59, 36
1, 79792, Note_on_c, 0, 71, 46
1, 79801, Note_on_c, 0, 51, 66
1, 79829, Note_off_c, 0, 64, 37
1, 79840, Note_off_c, 0, 52, 58
1, 79961, Note_off_c, 0, 71, 32
1, 80013, Note_on_c, 0, 56, 62
1, 80021, Note_on_c, 0, 59, 42
1, 80045, Control_c, 0, 64, 116
1, 80058, Note_on_c, 0, 44, 47
1, 80060, Control_c, 0, 64, 106
1, 80075, Control_c, 0, 64, 99
1, 80078, Note_off_c, 0, 51, 56
1, 80090, Control_c, 0, 64, 92
1, 80105, Control_c, 0, 64, 87
1, 80120, Control_c, 0, 64, 82
1, 80135, Control_c, 0, 64, 78
1, 80135, Control_c, 0, 67, 120
1, 80150, Control_c, 0, 64, 73
1, 80165, Control_c, 0, 64, 68
1, 80180, Control_c, 0, 64, 64
1, 80194, Control_c, 0, 64, 63
1, 80201, Note_on_c, 0, 65, 47
1, 80238, Control_c, 0, 64, 63
1, 80253, Control_c, 0, 64, 64
1, 80268, Control_c, 0, 64, 64
1, 80283, Control_c, 0, 64, 65
1, 80298, Control_c, 0, 64, 67
1, 80312, Control_c, 0, 64, 68
1, 80327, Control_c, 0, 64, 71
1, 80342, Control_c, 0, 64, 76
1, 80357, Control_c, 0, 64, 82
1, 80372, Control_c, 0, 64, 91
1, 80386, Control_c, 0, 64, 99
1, 80401, Note_on_c, 0, 52, 51
1, 80401, Control_c, 0, 64, 113
1, 80403, Note_on_c, 0, 64, 48
1, 80416, Control_c, 0, 64, 127
1, 80427, Note_off_c, 0, 59, 29
1, 80481, Note_off_c, 0, 44, 38
1, 80505, Control_c, 0, 67, 120
1, 80579, Note_off_c, 0, 65, 24
1, 80587, Note_on_c, 0, 71, 45
1, 80592, Note_on_c, 0, 51, 53
1, 80600, Note_off_c, 0, 56, 34
1, 80645, Control_c, 0, 67, 121
1, 80666, Note_off_c, 0, 71, 51
1, 80669, Note_off_c, 0, 64, 54
1, 80710, Note_off_c, 0, 52, 33
1, 80721, Control_c, 0, 67, 122
1, 80735, Control_c, 0, 64, 110
1, 80750, Control_c, 0, 64, 99
1, 80765, Control_c, 0, 64, 93
1, 80780, Control_c, 0, 64, 88
1, 80795, Control_c, 0, 64, 84
1, 80809, Control_c, 0, 64, 79
1, 80811, Note_on_c, 0, 59, 40
1, 80814, Note_on_c, 0, 56, 44
1, 80824, Control_c, 0, 64, 72
1, 80824, Control_c, 0, 67, 122
1, 80839, Control_c, 0, 64, 65
1, 80854, Control_c, 0, 64, 59
1, 80856, Note_off_c, 0, 51, 49
1, 80868, Control_c, 0, 64, 59
1, 80883, Control_c, 0, 64, 60
1, 80898, Control_c, 0, 64, 60
1, 80913, Control_c, 0, 64, 61
1, 80928, Control_c, 0, 64, 63
1, 80943, Control_c, 0, 64, 64
1, 80958, Control_c, 0, 64, 66
1, 80972, Control_c, 0, 64, 69
1, 80982, Note_off_c, 0, 56, 60
1, 80987, Control_c, 0, 64, 75
1, 81002, Note_on_c, 0, 64, 43
1, 81002, Control_c, 0, 64, 83
1, 81017, Control_c, 0, 64, 97
1, 81032, Control_c, 0, 64, 111
1, 81047, Control_c, 0, 64, 127
1, 81076, Note_off_c, 0, 59, 38
1, 81135, Control_c, 0, 64, 119
1, 81150, Control_c, 0, 64, 113
1, 81165, Control_c, 0, 64, 108
1, 81179, Control_c, 0, 64, 104
1, 81194, Control_c, 0, 64, 99
1, 81195, Note_on_c, 0, 63, 39
1, 81199, Note_on_c, 0, 39, 58
1, 81209, Control_c, 0, 64, 94
1, 81224, Control_c, 0, 64, 90
1, 81239, Control_c, 0, 64, 85
1, 81253, Control_c, 0, 64, 80
1, 81268, Control_c, 0, 64, 75
1, 81270, Note_off_c, 0, 64, 27
1, 81283, Control_c, 0, 64, 71
1, 81298, Control_c, 0, 64, 68
1, 81313, Control_c, 0, 64, 65
1, 81327, Control_c, 0, 64, 63
1, 81342, Control_c, 0, 64, 61
1, 81365, Control_c, 0, 64, 62
1, 81380, Control_c, 0, 64, 62
1, 81388, Note_on_c, 0, 71, 37
1, 81394, Control_c, 0, 64, 64
1, 81409, Control_c, 0, 64, 66
1, 81424, Control_c, 0, 64, 68
1, 81439, Control_c, 0, 64, 72
1, 81454, Control_c, 0, 64, 79
1, 81468, Control_c, 0, 64, 89
1, 81469, Note_off_c, 0, 63, 48
1, 81483, Control_c, 0, 64, 100
1, 81498, Control_c, 0, 64, 103
1, 81521, Note_off_c, 0, 71, 37
1, 81529, Control_c, 0, 64, 102
1, 81544, Control_c, 0, 64, 101
1, 81558, Control_c, 0, 64, 99
1, 81573, Control_c, 0, 64, 97
1, 81588, Control_c, 0, 64, 93
1, 81603, Control_c, 0, 64, 90
1, 81611, Note_on_c, 0, 41, 58
1, 81618, Control_c, 0, 64, 86
1, 81632, Control_c, 0, 64, 83
1, 81634, Note_on_c, 0, 59, 38
1, 81647, Control_c, 0, 64, 78
1, 81662, Control_c, 0, 64, 73
1, 81677, Control_c, 0, 64, 66
1, 81691, Control_c, 0, 64, 60
1, 81701, Note_off_c, 0, 39, 36
1, 81706, Control_c, 0, 64, 54
1, 81721, Control_c, 0, 64, 52
1, 81751, Control_c, 0, 64, 52
1, 81765, Control_c, 0, 64, 55
1, 81780, Control_c, 0, 64, 57
1, 81795, Control_c, 0, 64, 60
1, 81804, Note_on_c, 0, 63, 45
1, 81810, Control_c, 0, 64, 63
1, 81825, Control_c, 0, 64, 66
1, 81840, Control_c, 0, 64, 71
1, 81855, Control_c, 0, 64, 82
1, 81870, Control_c, 0, 64, 93
1, 81884, Control_c, 0, 64, 103
1, 81899, Control_c, 0, 64, 108
1, 81929, Control_c, 0, 64, 108
1, 81944, Control_c, 0, 64, 106
1, 81958, Control_c, 0, 64, 104
1, 81973, Control_c, 0, 64, 100
1, 81977, Note_off_c, 0, 59, 28
1, 81988, Control_c, 0, 64, 94
1, 81993, Note_on_c, 0, 43, 60
1, 82002, Control_c, 0, 64, 86
1, 82010, Note_on_c, 0, 62, 41
1, 82017, Control_c, 0, 64, 78
1, 82032, Control_c, 0, 64, 69
1, 82040, Note_off_c, 0, 41, 57
1, 82047, Control_c, 0, 64, 60
1, 82054, Note_off_c, 0, 63, 37
1, 82062, Control_c, 0, 64, 53
1, 82076, Control_c, 0, 64, 55
1, 82091, Control_c, 0, 64, 58
1, 82114, Control_c, 0, 64, 61
1, 82129, Control_c, 0, 64, 63
1, 82144, Control_c, 0, 64, 68
1, 82158, Control_c, 0, 64, 76
1, 82173, Control_c, 0, 64, 93
1, 82188, Control_c, 0, 64, 127
1, 82196, Note_off_c, 0, 43, 61
1, 82202, Note_on_c, 0, 71, 47
1, 82203, Control_c, 0, 67, 123
1, 82206, Note_off_c, 0, 62, 62
1, 82232, Control_c, 0, 67, 124
1, 82308, Note_off_c, 0, 71, 57
1, 82352, Control_c, 0, 67, 124
1, 82424, Note_on_c, 0, 44, 57
1, 82440, Control_c, 0, 64, 123
1, 82455, Control_c, 0, 64, 109
1, 82463, Note_on_c, 0, 61, 42
1, 82470, Control_c, 0, 64, 103
1, 82485, Control_c, 0, 64, 97
1, 82500, Control_c, 0, 64, 91
1, 82514, Control_c, 0, 64, 82
1, 82514, Control_c, 0, 67, 125
1, 82529, Control_c, 0, 64, 74
1, 82544, Control_c, 0, 64, 66
1, 82559, Control_c, 0, 64, 59
1, 82574, Control_c, 0, 64, 53
1, 82588, Control_c, 0, 64, 52
1, 82618, Control_c, 0, 64, 53
1, 82633, Control_c, 0, 64, 56
1, 82648, Control_c, 0, 64, 59
1, 82648, Note_on_c, 0, 68, 51
1, 82663, Control_c, 0, 64, 62
1, 82678, Control_c, 0, 64, 66
1, 82692, Control_c, 0, 64, 72
1, 82707, Control_c, 0, 64, 82
1, 82722, Control_c, 0, 64, 94
1, 82737, Control_c, 0, 64, 111
1, 82752, Control_c, 0, 64, 127
1, 82834, Note_on_c, 0, 52, 66
1, 82856, Note_on_c, 0, 67, 54
1, 82886, Note_off_c, 0, 44, 56
1, 82936, Note_off_c, 0, 61, 30
1, 83011, Control_c, 0, 67, 125
1, 83023, Note_on_c, 0, 51, 77
1, 83038, Note_on_c, 0, 73, 67
1, 83045, Note_off_c, 0, 68, 19
1, 83066, Note_off_c, 0, 52, 62
1, 83070, Control_c, 0, 67, 126
1, 83074, Note_off_c, 0, 67, 57
1, 83085, Control_c, 0, 67, 127
1, 83116, Control_c, 0, 67, 127
1, 83273, Note_on_c, 0, 58, 67
1, 83293, Control_c, 0, 64, 121
1, 83304, Note_on_c, 0, 61, 53
1, 83307, Note_off_c, 0, 73, 54
1, 83308, Control_c, 0, 64, 102
1, 83312, Note_on_c, 0, 44, 49
1, 83323, Control_c, 0, 64, 94
1, 83337, Control_c, 0, 64, 90
1, 83352, Control_c, 0, 64, 85
1, 83367, Control_c, 0, 64, 80
1, 83369, Note_off_c, 0, 51, 59
1, 83382, Control_c, 0, 64, 76
1, 83397, Control_c, 0, 64, 73
1, 83411, Control_c, 0, 64, 70
1, 83426, Control_c, 0, 64, 67
1, 83441, Control_c, 0, 64, 63
1, 83456, Control_c, 0, 64, 60
1, 83470, Control_c, 0, 64, 59
1, 83485, Control_c, 0, 64, 59
1, 83500, Control_c, 0, 64, 60
1, 83509, Note_on_c, 0, 68, 55
1, 83515, Control_c, 0, 64, 61
1, 83530, Control_c, 0, 64, 62
1, 83545, Control_c, 0, 64, 64
1, 83560, Control_c, 0, 64, 66
1, 83575, Control_c, 0, 64, 68
1, 83590, Control_c, 0, 64, 73
1, 83611, Control_c, 0, 64, 80
1, 83626, Control_c, 0, 64, 89
1, 83641, Control_c, 0, 64, 102
1, 83655, Control_c, 0, 64, 127
1, 83687, Note_on_c, 0, 52, 52
1, 83697, Note_on_c, 0, 67, 62
1, 83708, Note_off_c, 0, 44, 37
1, 83766, Note_off_c, 0, 61, 32
1, 83789, Note_off_c, 0, 58, 39
1, 83873, Note_on_c, 0, 51, 58
1, 83892, Note_on_c, 0, 73, 61
1, 83896, Note_off_c, 0, 52, 55
1, 83943, Note_off_c, 0, 68, 31
1, 84013, Control_c, 0, 64, 116
1, 84013, Control_c, 0, 67, 127
1, 84027, Control_c, 0, 64, 104
1, 84042, Control_c, 0, 64, 94
1, 84049, Note_off_c, 0, 67, 29
1, 84057, Control_c, 0, 64, 86
1, 84072, Control_c, 0, 64, 78
1, 84073, Note_on_c, 0, 58, 45
1, 84086, Note_on_c, 0, 61, 48
1, 84086, Control_c, 0, 64, 70
1, 84101, Control_c, 0, 64, 64
1, 84116, Control_c, 0, 64, 60
1, 84117, Note_off_c, 0, 51, 36
1, 84125, Note_off_c, 0, 73, 37
1, 84131, Control_c, 0, 64, 59
1, 84146, Control_c, 0, 64, 59
1, 84160, Control_c, 0, 64, 60
1, 84175, Control_c, 0, 64, 62
1, 84175, Control_c, 0, 67, 126
1, 84190, Control_c, 0, 64, 64
1, 84205, Control_c, 0, 64, 66
1, 84220, Control_c, 0, 64, 70
1, 84234, Control_c, 0, 64, 79
1, 84234, Control_c, 0, 67, 125
1, 84235, Note_off_c, 0, 58, 62
1, 84249, Control_c, 0, 64, 94
1, 84264, Control_c, 0, 64, 127
1, 84287, Note_on_c, 0, 70, 49
1, 84449, Control_c, 0, 64, 121
1, 84464, Control_c, 0, 64, 108
1, 84473, Note_on_c, 0, 39, 57
1, 84478, Control_c, 0, 64, 101
1, 84493, Control_c, 0, 64, 94
1, 84495, Note_on_c, 0, 69, 54
1, 84508, Control_c, 0, 64, 87
1, 84520, Note_off_c, 0, 61, 31
1, 84523, Control_c, 0, 64, 79
1, 84538, Control_c, 0, 64, 72
1, 84553, Control_c, 0, 64, 65
1, 84562, Note_off_c, 0, 70, 32
1, 84567, Control_c, 0, 64, 60
1, 84582, Control_c, 0, 64, 58
1, 84597, Control_c, 0, 64, 59
1, 84612, Control_c, 0, 64, 60
1, 84627, Control_c, 0, 64, 62
1, 84642, Control_c, 0, 64, 64
1, 84657, Control_c, 0, 64, 67
1, 84672, Control_c, 0, 64, 72
1, 84686, Control_c, 0, 64, 83
1, 84686, Control_c, 0, 67, 125
1, 84687, Note_on_c, 0, 73, 64
1, 84702, Control_c, 0, 64, 107
1, 84714, Note_off_c, 0, 39, 52
1, 84716, Control_c, 0, 64, 127
1, 84716, Control_c, 0, 67, 124
1, 84735, Note_off_c, 0, 69, 56
1, 84761, Control_c, 0, 67, 124
1, 84806, Control_c, 0, 67, 123
1, 84850, Control_c, 0, 67, 122
1, 84860, Note_on_c, 0, 41, 62
1, 84872, Note_off_c, 0, 73, 58
1, 84880, Control_c, 0, 64, 114
1, 84880, Control_c, 0, 67, 122
1, 84882, Note_on_c, 0, 63, 53
1, 84895, Control_c, 0, 64, 97
1, 84909, Control_c, 0, 64, 84
1, 84909, Control_c, 0, 67, 121
1, 84924, Control_c, 0, 64, 72
1, 84924, Control_c, 0, 67, 120
1, 84939, Control_c, 0, 64, 64
1, 84939, Control_c, 0, 67, 120
1, 84954, Control_c, 0, 64, 59
1, 84954, Control_c, 0, 67, 119
1, 84969, Control_c, 0, 64, 58
1, 84969, Control_c, 0, 67, 117
1, 84983, Control_c, 0, 67, 117
1, 84998, Control_c, 0, 64, 59
1, 84998, Control_c, 0, 67, 116
1, 85013, Control_c, 0, 64, 61
1, 85013, Control_c, 0, 67, 115
1, 85028, Control_c, 0, 64, 63
1, 85028, Control_c, 0, 67, 115
1, 85043, Control_c, 0, 64, 66
1, 85043, Control_c, 0, 67, 114
1, 85055, Note_on_c, 0, 71, 61
1, 85057, Control_c, 0, 64, 70
1, 85057, Control_c, 0, 67, 113
1, 85072, Control_c, 0, 64, 78
1, 85072, Control_c, 0, 67, 112
1, 85087, Control_c, 0, 64, 95
1, 85087, Control_c, 0, 67, 110
1, 85109, Control_c, 0, 64, 127
1, 85109, Control_c, 0, 67, 110
1, 85114, Note_off_c, 0, 41, 52
1, 85124, Control_c, 0, 67, 108
1, 85139, Control_c, 0, 67, 106
1, 85154, Control_c, 0, 67, 105
1, 85169, Control_c, 0, 67, 101
1, 85183, Control_c, 0, 67, 94
1, 85198, Control_c, 0, 67, 90
1, 85213, Control_c, 0, 67, 88
1, 85227, Control_c, 0, 67, 84
1, 85242, Control_c, 0, 67, 82
1, 85257, Control_c, 0, 67, 80
1, 85264, Note_on_c, 0, 43, 56
1, 85272, Control_c, 0, 64, 106
1, 85272, Control_c, 0, 67, 79
1, 85283, Note_on_c, 0, 70, 65
1, 85287, Control_c, 0, 64, 93
1, 85287, Control_c, 0, 67, 78
1, 85301, Control_c, 0, 64, 80
1, 85301, Control_c, 0, 67, 76
1, 85316, Control_c, 0, 64, 70
1, 85316, Control_c, 0, 67, 73
1, 85331, Control_c, 0, 64, 62
1, 85331, Control_c, 0, 67, 70
1, 85346, Control_c, 0, 64, 55
1, 85346, Control_c, 0, 67, 67
1, 85361, Control_c, 0, 64, 54
1, 85361, Control_c, 0, 67, 65
1, 85375, Control_c, 0, 64, 55
1, 85375, Control_c, 0, 67, 60
1, 85390, Note_off_c, 0, 71, 52
1, 85390, Control_c, 0, 64, 57
1, 85390, Control_c, 0, 67, 55
1, 85405, Control_c, 0, 64, 59
1, 85405, Control_c, 0, 67, 48
1, 85420, Control_c, 0, 64, 61
1, 85420, Control_c, 0, 67, 43
1, 85435, Control_c, 0, 64, 63
1, 85435, Control_c, 0, 67, 40
1, 85450, Control_c, 0, 64, 66
1, 85450, Control_c, 0, 67, 37
1, 85465, Control_c, 0, 64, 71
1, 85465, Control_c, 0, 67, 35
1, 85477, Note_off_c, 0, 63, 35
1, 85480, Note_off_c, 0, 43, 61
1, 85480, Control_c, 0, 64, 79
1, 85480, Control_c, 0, 67, 29
1, 85495, Control_c, 0, 64, 92
1, 85495, Control_c, 0, 67, 24
1, 85503, Note_on_c, 0, 75, 58
1, 85510, Control_c, 0, 64, 105
1, 85510, Control_c, 0, 67, 18
1, 85524, Control_c, 0, 64, 127
1, 85524, Control_c, 0, 67, 14
1, 85539, Control_c, 0, 67, 12
1, 85554, Control_c, 0, 67, 9
1, 85569, Control_c, 0, 67, 0
1, 85628, Note_off_c, 0, 70, 56
1, 85773, Note_on_c, 0, 44, 38
1, 85797, Note_off_c, 0, 75, 60
1, 85834, Note_on_c, 0, 64, 59
1, 85836, Control_c, 0, 64, 109
1, 85858, Control_c, 0, 64, 101
1, 85873, Control_c, 0, 64, 95
1, 85888, Control_c, 0, 64, 91
1, 85903, Control_c, 0, 64, 87
1, 85918, Control_c, 0, 64, 83
1, 85932, Control_c, 0, 64, 77
1, 85947, Control_c, 0, 64, 70
1, 85962, Control_c, 0, 64, 63
1, 85977, Control_c, 0, 64, 54
1, 85992, Control_c, 0, 64, 51
1, 86021, Control_c, 0, 64, 52
1, 86036, Control_c, 0, 64, 55
1, 86050, Control_c, 0, 64, 59
1, 86065, Control_c, 0, 64, 61
1, 86080, Control_c, 0, 64, 63
1, 86095, Control_c, 0, 64, 67
1, 86105, Note_off_c, 0, 44, 41
1, 86110, Control_c, 0, 64, 71
1, 86124, Control_c, 0, 64, 79
1, 86139, Control_c, 0, 64, 91
1, 86140, Note_on_c, 0, 52, 44
1, 86154, Control_c, 0, 64, 104
1, 86169, Control_c, 0, 64, 127
1, 86343, Note_off_c, 0, 52, 49
1, 86365, Note_on_c, 0, 72, 61
1, 86383, Note_on_c, 0, 60, 38
1, 86569, Note_on_c, 0, 71, 79
1, 86574, Note_off_c, 0, 60, 49
1, 86575, Note_on_c, 0, 52, 43
1, 86630, Note_off_c, 0, 64, 60
1, 86762, Note_off_c, 0, 52, 51
1, 86773, Note_on_c, 0, 50, 39
1, 86814, Note_on_c, 0, 76, 73
1, 86839, Note_on_c, 0, 69, 58
1, 86844, Control_c, 0, 64, 113
1, 86859, Control_c, 0, 64, 103
1, 86860, Note_on_c, 0, 65, 47
1, 86873, Control_c, 0, 64, 94
1, 86888, Note_off_c, 0, 71, 57
1, 86888, Control_c, 0, 64, 83
1, 86903, Control_c, 0, 64, 73
1, 86918, Control_c, 0, 64, 65
1, 86923, Note_off_c, 0, 72, 12
1, 86933, Control_c, 0, 64, 56
1, 86948, Control_c, 0, 64, 50
1, 86977, Control_c, 0, 64, 52
1, 86992, Control_c, 0, 64, 55
1, 87007, Control_c, 0, 64, 58
1, 87021, Control_c, 0, 64, 61
1, 87034, Note_on_c, 0, 53, 50
1, 87036, Control_c, 0, 64, 64
1, 87051, Control_c, 0, 64, 69
1, 87066, Control_c, 0, 64, 81
1, 87080, Control_c, 0, 64, 101
1, 87096, Control_c, 0, 64, 127
1, 87220, Note_off_c, 0, 53, 48
1, 87222, Note_on_c, 0, 74, 85
1, 87233, Note_on_c, 0, 60, 46
1, 87392, Note_off_c, 0, 60, 51
1, 87420, Note_on_c, 0, 53, 54
1, 87448, Note_off_c, 0, 76, 29
1, 87453, Note_off_c, 0, 69, 31
1, 87461, Note_off_c, 0, 65, 55
1, 87474, Note_off_c, 0, 50, 40
1, 87520, Note_off_c, 0, 74, 61
1, 87599, Note_off_c, 0, 53, 37
1, 87617, Note_on_c, 0, 72, 78
1, 87620, Note_on_c, 0, 44, 43
1, 87637, Control_c, 0, 64, 104
1, 87652, Control_c, 0, 64, 80
1, 87658, Note_on_c, 0, 64, 52
1, 87667, Control_c, 0, 64, 65
1, 87682, Control_c, 0, 64, 50
1, 87696, Control_c, 0, 64, 43
1, 87711, Control_c, 0, 64, 50
1, 87726, Control_c, 0, 64, 56
1, 87741, Control_c, 0, 64, 61
1, 87756, Control_c, 0, 64, 66
1, 87770, Control_c, 0, 64, 74
1, 87785, Control_c, 0, 64, 89
1, 87800, Control_c, 0, 64, 127
1, 87803, Note_off_c, 0, 44, 41
1, 87803, Note_off_c, 0, 72, 61
1, 87816, Note_on_c, 0, 52, 56
1, 87912, Note_on_c, 0, 71, 77
1, 87972, Note_off_c, 0, 64, 53
1, 87972, Note_off_c, 0, 52, 58
1, 88007, Note_on_c, 0, 60, 51
1, 88007, Note_on_c, 0, 69, 82
1, 88009, Note_on_c, 0, 72, 75
1, 88040, Note_off_c, 0, 71, 61
1, 88186, Note_on_c, 0, 71, 80
1, 88207, Note_on_c, 0, 52, 49
1, 88213, Note_off_c, 0, 60, 56
1, 88226, Note_off_c, 0, 69, 61
1, 88240, Note_off_c, 0, 72, 55
1, 88341, Control_c, 0, 64, 123
1, 88356, Control_c, 0, 64, 111
1, 88371, Control_c, 0, 64, 105
1, 88386, Control_c, 0, 64, 100
1, 88401, Control_c, 0, 64, 96
1, 88401, Note_on_c, 0, 50, 37
1, 88416, Control_c, 0, 64, 91
1, 88424, Note_on_c, 0, 68, 59
1, 88431, Control_c, 0, 64, 86
1, 88432, Note_off_c, 0, 52, 36
1, 88434, Note_on_c, 0, 76, 55
1, 88443, Note_on_c, 0, 65, 44
1, 88445, Control_c, 0, 64, 82
1, 88460, Control_c, 0, 64, 80
1, 88475, Control_c, 0, 64, 77
1, 88484, Note_off_c, 0, 71, 59
1, 88490, Control_c, 0, 64, 75
1, 88505, Control_c, 0, 64, 71
1, 88519, Control_c, 0, 64, 67
1, 88534, Control_c, 0, 64, 63
1, 88549, Control_c, 0, 64, 60
1, 88564, Control_c, 0, 64, 57
1, 88579, Control_c, 0, 64, 55
1, 88593, Control_c, 0, 64, 53
1, 88608, Control_c, 0, 64, 52
1, 88638, Control_c, 0, 64, 53
1, 88652, Control_c, 0, 64, 55
1, 88667, Control_c, 0, 64, 58
1, 88682, Control_c, 0, 64, 60
1, 88698, Control_c, 0, 64, 62
1, 88701, Note_on_c, 0, 75, 57
1, 88713, Control_c, 0, 64, 63
1, 88728, Control_c, 0, 64, 65
1, 88729, Note_on_c, 0, 53, 31
1, 88742, Control_c, 0, 64, 69
1, 88746, Note_off_c, 0, 76, 59
1, 88757, Control_c, 0, 64, 73
1, 88772, Control_c, 0, 64, 79
1, 88787, Control_c, 0, 64, 85
1, 88793, Note_off_c, 0, 75, 62
1, 88802, Control_c, 0, 64, 91
1, 88816, Control_c, 0, 64, 95
1, 88831, Control_c, 0, 64, 98
1, 88854, Control_c, 0, 64, 100
1, 88905, Note_on_c, 0, 74, 58
1, 88913, Control_c, 0, 64, 99
1, 88928, Control_c, 0, 64, 99
1, 88932, Note_on_c, 0, 59, 36
1, 88939, Note_off_c, 0, 53, 37
1, 88943, Control_c, 0, 64, 97
1, 88957, Control_c, 0, 64, 95
1, 88972, Control_c, 0, 64, 92
1, 88987, Control_c, 0, 64, 91
1, 89002, Control_c, 0, 64, 90
1, 89017, Control_c, 0, 64, 89
1, 89046, Control_c, 0, 64, 90
1, 89061, Control_c, 0, 64, 91
1, 89062, Note_off_c, 0, 65, 33
1, 89075, Control_c, 0, 64, 92
1, 89090, Control_c, 0, 64, 93
1, 89105, Control_c, 0, 64, 94
1, 89116, Note_on_c, 0, 53, 39
1, 89120, Control_c, 0, 64, 94
1, 89124, Note_off_c, 0, 59, 38
1, 89135, Control_c, 0, 64, 95
1, 89145, Note_off_c, 0, 50, 40
1, 89149, Control_c, 0, 64, 96
1, 89179, Note_off_c, 0, 74, 49
1, 89239, Control_c, 0, 64, 95
1, 89254, Control_c, 0, 64, 95
1, 89268, Control_c, 0, 64, 94
1, 89283, Control_c, 0, 64, 94
1, 89298, Control_c, 0, 64, 93
1, 89313, Control_c, 0, 64, 91
1, 89328, Control_c, 0, 64, 90
1, 89341, Note_off_c, 0, 53, 34
1, 89343, Control_c, 0, 64, 89
1, 89358, Control_c, 0, 64, 87
1, 89373, Note_on_c, 0, 44, 32
1, 89373, Control_c, 0, 64, 86
1, 89376, Note_on_c, 0, 64, 43
1, 89385, Note_on_c, 0, 72, 44
1, 89388, Control_c, 0, 64, 83
1, 89402, Control_c, 0, 64, 79
1, 89417, Control_c, 0, 64, 75
1, 89432, Control_c, 0, 64, 70
1, 89442, Note_off_c, 0, 68, 28
1, 89447, Control_c, 0, 64, 64
1, 89462, Control_c, 0, 64, 58
1, 89476, Control_c, 0, 64, 55
1, 89492, Control_c, 0, 64, 56
1, 89507, Control_c, 0, 64, 57
1, 89522, Control_c, 0, 64, 59
1, 89537, Control_c, 0, 64, 61
1, 89552, Control_c, 0, 64, 63
1, 89566, Control_c, 0, 64, 65
1, 89581, Control_c, 0, 64, 71
1, 89585, Note_off_c, 0, 44, 47
1, 89603, Control_c, 0, 64, 78
1, 89618, Control_c, 0, 64, 89
1, 89631, Note_on_c, 0, 52, 41
1, 89633, Control_c, 0, 64, 101
1, 89647, Control_c, 0, 64, 121
1, 89662, Control_c, 0, 64, 127
1, 89689, Note_off_c, 0, 72, 42
1, 89718, Note_on_c, 0, 71, 50
1, 89803, Note_on_c, 0, 72, 60
1, 89820, Note_off_c, 0, 52, 45
1, 89827, Note_off_c, 0, 71, 54
1, 89828, Note_on_c, 0, 69, 52
1, 89835, Note_on_c, 0, 60, 40
1, 89897, Note_off_c, 0, 64, 28
1, 89992, Note_on_c, 0, 71, 73
1, 90009, Note_on_c, 0, 52, 38
1, 90041, Note_off_c, 0, 69, 59
1, 90042, Note_off_c, 0, 60, 36
1, 90087, Note_off_c, 0, 72, 60
1, 90192, Note_on_c, 0, 50, 37
1, 90200, Note_on_c, 0, 76, 75
1, 90222, Note_on_c, 0, 69, 53
1, 90223, Control_c, 0, 64, 123
1, 90225, Note_off_c, 0, 52, 32
1, 90238, Note_on_c, 0, 65, 44
1, 90238, Control_c, 0, 64, 108
1, 90253, Control_c, 0, 64, 101
1, 90260, Note_off_c, 0, 71, 57
1, 90268, Control_c, 0, 64, 94
1, 90283, Control_c, 0, 64, 85
1, 90299, Control_c, 0, 64, 74
1, 90313, Control_c, 0, 64, 65
1, 90328, Control_c, 0, 64, 52
1, 90350, Control_c, 0, 64, 42
1, 90380, Control_c, 0, 64, 43
1, 90395, Control_c, 0, 64, 47
1, 90410, Control_c, 0, 64, 52
1, 90414, Note_on_c, 0, 53, 50
1, 90425, Control_c, 0, 64, 57
1, 90440, Control_c, 0, 64, 62
1, 90455, Control_c, 0, 64, 66
1, 90469, Control_c, 0, 64, 72
1, 90484, Control_c, 0, 64, 82
1, 90499, Control_c, 0, 64, 97
1, 90514, Control_c, 0, 64, 127
1, 90615, Note_on_c, 0, 72, 73
1, 90629, Note_on_c, 0, 60, 41
1, 90637, Note_off_c, 0, 53, 37
1, 90699, Note_off_c, 0, 76, 55
1, 90771, Note_off_c, 0, 60, 53
1, 90823, Note_on_c, 0, 71, 70
1, 90825, Note_off_c, 0, 69, 29
1, 90827, Note_off_c, 0, 50, 40
1, 90851, Note_on_c, 0, 53, 40
1, 90854, Note_off_c, 0, 72, 61
1, 90880, Note_off_c, 0, 65, 24
1, 90899, Control_c, 0, 67, 9
1, 90913, Control_c, 0, 67, 24
1, 90928, Control_c, 0, 67, 37
1, 90943, Control_c, 0, 67, 50
1, 90949, Note_off_c, 0, 53, 38
1, 90958, Control_c, 0, 67, 61
1, 90973, Control_c, 0, 67, 73
1, 90987, Control_c, 0, 67, 85
1, 91002, Control_c, 0, 67, 97
1, 91012, Note_off_c, 0, 71, 59
1, 91017, Control_c, 0, 67, 107
1, 91032, Control_c, 0, 67, 117
1, 91046, Control_c, 0, 67, 127
1, 91135, Note_on_c, 0, 43, 37
1, 91143, Control_c, 0, 64, 112
1, 91149, Note_on_c, 0, 77, 58
1, 91158, Control_c, 0, 64, 102
1, 91173, Control_c, 0, 64, 94
1, 91179, Note_on_c, 0, 69, 44
1, 91184, Note_on_c, 0, 65, 37
1, 91188, Control_c, 0, 64, 86
1, 91203, Control_c, 0, 64, 79
1, 91218, Control_c, 0, 64, 74
1, 91233, Control_c, 0, 64, 70
1, 91248, Control_c, 0, 64, 66
1, 91263, Control_c, 0, 64, 62
1, 91277, Control_c, 0, 64, 56
1, 91292, Control_c, 0, 64, 48
1, 91307, Control_c, 0, 64, 44
1, 91322, Control_c, 0, 64, 43
1, 91337, Control_c, 0, 64, 45
1, 91351, Control_c, 0, 64, 48
1, 91366, Control_c, 0, 64, 52
1, 91381, Control_c, 0, 64, 57
1, 91396, Control_c, 0, 64, 62
1, 91411, Control_c, 0, 64, 66
1, 91425, Control_c, 0, 64, 71
1, 91440, Control_c, 0, 64, 79
1, 91449, Note_off_c, 0, 43, 39
1, 91455, Control_c, 0, 64, 92
1, 91459, Note_on_c, 0, 53, 39
1, 91470, Control_c, 0, 64, 111
1, 91485, Control_c, 0, 64, 127
1, 91512, Note_off_c, 0, 69, 38
1, 91646, Note_on_c, 0, 72, 52
1, 91666, Note_off_c, 0, 53, 41
1, 91679, Note_on_c, 0, 60, 34
1, 91717, Note_off_c, 0, 77, 34
1, 91775, Note_off_c, 0, 65, 31
1, 91849, Note_off_c, 0, 60, 38
1, 91850, Note_on_c, 0, 71, 54
1, 91861, Note_off_c, 0, 72, 55
1, 91862, Note_on_c, 0, 62, 41
1, 92050, Note_off_c, 0, 71, 56
1, 92060, Note_off_c, 0, 62, 43
1, 92072, Note_on_c, 0, 76, 51
1, 92079, Note_on_c, 0, 69, 41
1, 92081, Note_on_c, 0, 65, 42
1, 92082, Note_on_c, 0, 64, 34
1, 92231, Note_off_c, 0, 65, 35
1, 92267, Note_off_c, 0, 64, 54
1, 92294, Note_on_c, 0, 67, 39
1, 92363, Note_off_c, 0, 69, 39
1, 92532, Note_on_c, 0, 70, 45
1, 92551, Note_off_c, 0, 76, 36
1, 92789, Note_on_c, 0, 71, 47
1, 92940, Note_off_c, 0, 71, 58
1, 93185, Note_on_c, 0, 72, 35
1, 93200, Note_off_c, 0, 70, 29
1, 93204, Control_c, 0, 64, 113
1, 93209, Note_on_c, 0, 76, 53
1, 93219, Control_c, 0, 64, 104
1, 93234, Control_c, 0, 64, 98
1, 93249, Control_c, 0, 64, 92
1, 93263, Control_c, 0, 64, 87
1, 93278, Control_c, 0, 64, 82
1, 93293, Control_c, 0, 64, 77
1, 93300, Note_off_c, 0, 67, 33
1, 93307, Control_c, 0, 64, 70
1, 93322, Control_c, 0, 64, 64
1, 93345, Control_c, 0, 64, 57
1, 93360, Control_c, 0, 64, 52
1, 93375, Control_c, 0, 64, 51
1, 93404, Control_c, 0, 64, 52
1, 93419, Control_c, 0, 64, 53
1, 93434, Control_c, 0, 64, 56
1, 93449, Control_c, 0, 64, 59
1, 93464, Control_c, 0, 64, 61
1, 93478, Control_c, 0, 64, 64
1, 93494, Control_c, 0, 64, 68
1, 93509, Control_c, 0, 64, 77
1, 93524, Control_c, 0, 64, 88
1, 93538, Control_c, 0, 64, 104
1, 93553, Control_c, 0, 64, 127
1, 93597, Note_on_c, 0, 71, 34
1, 93662, Note_off_c, 0, 72, 47
1, 93822, Note_off_c, 0, 71, 37
1, 93828, Note_on_c, 0, 84, 49
1, 93854, Note_on_c, 0, 69, 41
1, 94023, Note_off_c, 0, 69, 52
1, 94041, Note_on_c, 0, 83, 59
1, 94056, Note_off_c, 0, 84, 36
1, 94058, Note_on_c, 0, 68, 29
1, 94069, Note_off_c, 0, 76, 54
1, 94161, Note_off_c, 0, 83, 61
1, 94219, Note_off_c, 0, 68, 31
1, 94266, Note_on_c, 0, 60, 34
1, 94268, Note_on_c, 0, 67, 33
1, 94283, Note_on_c, 0, 88, 55
1, 94285, Note_on_c, 0, 76, 55
1, 94286, Control_c, 0, 64, 117
1, 94303, Control_c, 0, 64, 116
1, 94317, Control_c, 0, 64, 118
1, 94332, Control_c, 0, 64, 123
1, 94347, Control_c, 0, 64, 127
1, 94354, Note_off_c, 0, 60, 57
1, 94494, Note_off_c, 0, 67, 55
1, 94513, Note_on_c, 0, 69, 39
1, 94705, Note_on_c, 0, 70, 36
1, 94708, Note_on_c, 0, 84, 65
1, 94757, Note_off_c, 0, 69, 33
1, 94841, Note_off_c, 0, 88, 39
1, 94910, Note_on_c, 0, 83, 82
1, 94916, Note_off_c, 0, 70, 39
1, 94925, Note_on_c, 0, 71, 45
1, 94934, Note_off_c, 0, 84, 32
1, 94935, Note_off_c, 0, 76, 52
1, 95106, Note_off_c, 0, 83, 61
1, 95117, Note_on_c, 0, 88, 77
1, 95120, Note_off_c, 0, 71, 38
1, 95121, Note_on_c, 0, 72, 41
1, 95140, Control_c, 0, 64, 111
1, 95153, Note_on_c, 0, 76, 50
1, 95155, Control_c, 0, 64, 101
1, 95170, Control_c, 0, 64, 92
1, 95184, Control_c, 0, 64, 84
1, 95199, Control_c, 0, 64, 80
1, 95214, Control_c, 0, 64, 77
1, 95229, Control_c, 0, 64, 74
1, 95244, Control_c, 0, 64, 71
1, 95258, Control_c, 0, 64, 69
1, 95273, Control_c, 0, 64, 70
1, 95288, Control_c, 0, 64, 72
1, 95303, Control_c, 0, 64, 74
1, 95316, Note_off_c, 0, 72, 61
1, 95317, Control_c, 0, 64, 78
1, 95332, Control_c, 0, 64, 83
1, 95335, Note_off_c, 0, 76, 63
1, 95339, Note_on_c, 0, 71, 53
1, 95347, Control_c, 0, 64, 91
1, 95362, Control_c, 0, 64, 113
1, 95377, Control_c, 0, 64, 127
1, 95528, Note_on_c, 0, 86, 77
1, 95534, Note_off_c, 0, 71, 53
1, 95543, Note_on_c, 0, 69, 42
1, 95548, Note_on_c, 0, 64, 40
1, 95554, Note_on_c, 0, 77, 52
1, 95555, Control_c, 0, 64, 113
1, 95570, Control_c, 0, 64, 100
1, 95591, Control_c, 0, 64, 89
1, 95606, Control_c, 0, 64, 77
1, 95609, Note_off_c, 0, 88, 60
1, 95621, Control_c, 0, 64, 67
1, 95636, Control_c, 0, 64, 56
1, 95651, Control_c, 0, 64, 50
1, 95665, Control_c, 0, 64, 51
1, 95680, Control_c, 0, 64, 53
1, 95695, Control_c, 0, 64, 57
1, 95710, Control_c, 0, 64, 61
1, 95725, Control_c, 0, 64, 64
1, 95733, Note_off_c, 0, 64, 47
1, 95740, Control_c, 0, 64, 71
1, 95749, Note_off_c, 0, 69, 54
1, 95755, Note_on_c, 0, 68, 49
1, 95755, Control_c, 0, 64, 85
1, 95770, Control_c, 0, 64, 127
1, 95806, Note_off_c, 0, 86, 62
1, 95945, Note_on_c, 0, 84, 69
1, 95947, Control_c, 0, 64, 108
1, 95952, Note_on_c, 0, 69, 45
1, 95962, Control_c, 0, 64, 92
1, 95965, Note_on_c, 0, 62, 36
1, 95977, Control_c, 0, 64, 79
1, 95978, Note_on_c, 0, 78, 50
1, 95980, Note_off_c, 0, 77, 50
1, 95983, Note_off_c, 0, 68, 32
1, 95992, Control_c, 0, 64, 68
1, 96006, Control_c, 0, 64, 59
1, 96021, Control_c, 0, 64, 53
1, 96036, Control_c, 0, 64, 55
1, 96051, Control_c, 0, 64, 57
1, 96066, Control_c, 0, 64, 60
1, 96080, Control_c, 0, 64, 62
1, 96095, Control_c, 0, 64, 65
1, 96110, Control_c, 0, 64, 73
1, 96125, Control_c, 0, 64, 87
1, 96139, Control_c, 0, 64, 127
1, 96157, Note_on_c, 0, 71, 56
1, 96192, Note_off_c, 0, 62, 38
1, 96193, Note_off_c, 0, 71, 65
1, 96199, Note_off_c, 0, 78, 52
1, 96235, Note_on_c, 0, 83, 71
1, 96281, Note_off_c, 0, 84, 54
1, 96338, Note_on_c, 0, 81, 73
1, 96339, Control_c, 0, 64, 104
1, 96351, Note_off_c, 0, 69, 36
1, 96354, Control_c, 0, 64, 83
1, 96358, Note_on_c, 0, 79, 63
1, 96365, Note_off_c, 0, 83, 60
1, 96367, Note_on_c, 0, 57, 49
1, 96369, Control_c, 0, 64, 67
1, 96384, Control_c, 0, 64, 50
1, 96392, Note_on_c, 0, 72, 51
1, 96399, Control_c, 0, 64, 43
1, 96414, Control_c, 0, 64, 51
1, 96428, Control_c, 0, 64, 56
1, 96443, Control_c, 0, 64, 60
1, 96454, Note_off_c, 0, 72, 64
1, 96458, Control_c, 0, 64, 65
1, 96473, Control_c, 0, 64, 71
1, 96488, Control_c, 0, 64, 84
1, 96503, Control_c, 0, 64, 107
1, 96518, Control_c, 0, 64, 127
1, 96521, Note_off_c, 0, 79, 59
1, 96524, Note_off_c, 0, 57, 58
1, 96548, Note_on_c, 0, 74, 77
1, 96798, Note_on_c, 0, 76, 67
1, 96812, Note_on_c, 0, 77, 66
1, 96829, Note_off_c, 0, 74, 58
1, 96969, Note_off_c, 0, 81, 56
1, 97045, Note_on_c, 0, 74, 68
1, 97064, Note_off_c, 0, 76, 61
1, 97240, Note_on_c, 0, 88, 68
1, 97243, Note_off_c, 0, 74, 61
1, 97245, Note_on_c, 0, 72, 57
1, 97431, Note_on_c, 0, 86, 81
1, 97435, Note_on_c, 0, 71, 58
1, 97448, Note_off_c, 0, 72, 61
1, 97481, Note_off_c, 0, 71, 59
1, 97490, Note_off_c, 0, 77, 59
1, 97624, Control_c, 0, 64, 112
1, 97631, Note_on_c, 0, 77, 71
1, 97633, Note_on_c, 0, 89, 66
1, 97639, Control_c, 0, 64, 94
1, 97642, Note_on_c, 0, 69, 51
1, 97648, Note_on_c, 0, 62, 40
1, 97653, Control_c, 0, 64, 81
1, 97668, Control_c, 0, 64, 70
1, 97683, Control_c, 0, 64, 61
1, 97695, Note_off_c, 0, 88, 19
1, 97698, Control_c, 0, 64, 56
1, 97704, Note_off_c, 0, 86, 58
1, 97713, Control_c, 0, 64, 57
1, 97727, Control_c, 0, 64, 59
1, 97741, Note_off_c, 0, 62, 61
1, 97742, Control_c, 0, 64, 61
1, 97757, Control_c, 0, 64, 63
1, 97772, Control_c, 0, 64, 67
1, 97786, Control_c, 0, 64, 74
1, 97801, Control_c, 0, 64, 85
1, 97816, Control_c, 0, 64, 101
1, 97838, Control_c, 0, 64, 127
1, 97840, Note_on_c, 0, 71, 68
1, 97885, Note_off_c, 0, 69, 56
1, 98041, Note_on_c, 0, 88, 78
1, 98047, Note_on_c, 0, 72, 68
1, 98098, Note_off_c, 0, 71, 58
1, 98139, Note_off_c, 0, 89, 54
1, 98209, Note_off_c, 0, 77, 57
1, 98229, Note_on_c, 0, 74, 67
1, 98232, Note_on_c, 0, 86, 88
1, 98258, Note_off_c, 0, 72, 60
1, 98363, Note_off_c, 0, 88, 55
1, 98402, Control_c, 0, 64, 109
1, 98417, Control_c, 0, 64, 100
1, 98432, Control_c, 0, 64, 93
1, 98435, Note_on_c, 0, 76, 59
1, 98438, Note_on_c, 0, 89, 85
1, 98447, Control_c, 0, 64, 86
1, 98461, Control_c, 0, 64, 78
1, 98466, Note_off_c, 0, 74, 57
1, 98470, Note_on_c, 0, 81, 60
1, 98473, Note_off_c, 0, 86, 60
1, 98476, Control_c, 0, 64, 71
1, 98491, Control_c, 0, 64, 64
1, 98506, Control_c, 0, 64, 59
1, 98521, Control_c, 0, 64, 58
1, 98536, Control_c, 0, 64, 59
1, 98550, Control_c, 0, 64, 60
1, 98565, Control_c, 0, 64, 61
1, 98587, Control_c, 0, 64, 63
1, 98595, Note_off_c, 0, 81, 59
1, 98602, Control_c, 0, 64, 66
1, 98616, Control_c, 0, 64, 71
1, 98631, Control_c, 0, 64, 84
1, 98646, Control_c, 0, 64, 110
1, 98651, Note_on_c, 0, 74, 67
1, 98652, Note_off_c, 0, 76, 64
1, 98658, Note_off_c, 0, 89, 60
1, 98661, Control_c, 0, 64, 127
1, 98859, Note_on_c, 0, 91, 67
1, 98868, Note_on_c, 0, 77, 56
1, 98869, Control_c, 0, 64, 100
1, 98871, Note_on_c, 0, 72, 48
1, 98878, Note_on_c, 0, 67, 40
1, 98881, Note_off_c, 0, 74, 54
1, 98883, Control_c, 0, 64, 84
1, 98898, Control_c, 0, 64, 69
1, 98913, Control_c, 0, 64, 59
1, 98928, Control_c, 0, 64, 47
1, 98957, Control_c, 0, 64, 50
1, 98972, Control_c, 0, 64, 55
1, 98987, Control_c, 0, 64, 59
1, 99001, Control_c, 0, 64, 63
1, 99016, Control_c, 0, 64, 67
1, 99031, Control_c, 0, 64, 75
1, 99046, Control_c, 0, 64, 89
1, 99055, Note_off_c, 0, 77, 56
1, 99061, Control_c, 0, 64, 121
1, 99064, Note_off_c, 0, 91, 62
1, 99070, Note_off_c, 0, 67, 36
1, 99076, Control_c, 0, 64, 127
1, 99080, Note_off_c, 0, 72, 38
1, 99086, Note_on_c, 0, 71, 45
1, 99277, Note_off_c, 0, 71, 51
1, 99314, Control_c, 0, 64, 104
1, 99323, Note_on_c, 0, 88, 50
1, 99336, Control_c, 0, 64, 92
1, 99345, Note_on_c, 0, 72, 33
1, 99350, Note_on_c, 0, 78, 38
1, 99351, Control_c, 0, 64, 81
1, 99365, Control_c, 0, 64, 70
1, 99380, Control_c, 0, 64, 62
1, 99395, Control_c, 0, 64, 55
1, 99410, Control_c, 0, 64, 54
1, 99439, Control_c, 0, 64, 55
1, 99454, Control_c, 0, 64, 58
1, 99469, Control_c, 0, 64, 61
1, 99484, Control_c, 0, 64, 64
1, 99499, Control_c, 0, 64, 69
1, 99514, Control_c, 0, 64, 78
1, 99517, Note_off_c, 0, 88, 58
1, 99529, Control_c, 0, 64, 93
1, 99544, Control_c, 0, 64, 127
1, 99585, Note_on_c, 0, 67, 30
1, 99650, Note_off_c, 0, 78, 40
1, 99684, Note_on_c, 0, 86, 43
1, 99738, Note_off_c, 0, 86, 54
1, 99765, Control_c, 0, 64, 114
1, 99780, Control_c, 0, 64, 101
1, 99795, Control_c, 0, 64, 89
1, 99803, Note_on_c, 0, 64, 34
1, 99810, Note_on_c, 0, 84, 42
1, 99810, Control_c, 0, 64, 76
1, 99824, Control_c, 0, 64, 65
1, 99833, Note_on_c, 0, 79, 34
1, 99839, Control_c, 0, 64, 57
1, 99841, Note_off_c, 0, 67, 37
1, 99854, Control_c, 0, 64, 53
1, 99869, Control_c, 0, 64, 54
1, 99885, Control_c, 0, 64, 56
1, 99900, Note_off_c, 0, 79, 52
1, 99900, Control_c, 0, 64, 59
1, 99915, Control_c, 0, 64, 62
1, 99929, Control_c, 0, 64, 65
1, 99944, Control_c, 0, 64, 70
1, 99954, Note_off_c, 0, 84, 55
1, 99958, Note_off_c, 0, 72, 41
1, 99959, Control_c, 0, 64, 77
1, 99974, Control_c, 0, 64, 89
1, 99988, Control_c, 0, 64, 107
1, 100003, Control_c, 0, 64, 127
1, 100095, Note_on_c, 0, 60, 26
1, 100144, Note_off_c, 0, 64, 41
1, 100177, Note_off_c, 0, 60, 60
1, 100440, Control_c, 0, 64, 110
1, 100454, Control_c, 0, 64, 88
1, 100459, Note_on_c, 0, 53, 35
1, 100469, Control_c, 0, 64, 73
1, 100480, Note_on_c, 0, 65, 27
1, 100484, Control_c, 0, 64, 62
1, 100488, Note_on_c, 0, 74, 46
1, 100498, Control_c, 0, 64, 55
1, 100509, Note_on_c, 0, 72, 35
1, 100513, Control_c, 0, 64, 59
1, 100521, Note_on_c, 0, 69, 38
1, 100524, Note_off_c, 0, 65, 50
1, 100528, Control_c, 0, 64, 62
1, 100543, Control_c, 0, 64, 65
1, 100558, Control_c, 0, 64, 71
1, 100562, Note_off_c, 0, 53, 54
1, 100572, Control_c, 0, 64, 87
1, 100587, Control_c, 0, 64, 127
1, 100614, Note_off_c, 0, 69, 57
1, 100622, Note_off_c, 0, 74, 62
1, 100623, Note_off_c, 0, 72, 60
1, 100811, Note_on_c, 0, 48, 34
1, 100811, Note_on_c, 0, 60, 27
1, 100937, Control_c, 0, 64, 113
1, 100951, Control_c, 0, 64, 90
1, 100966, Control_c, 0, 64, 75
1, 100981, Control_c, 0, 64, 63
1, 100986, Note_on_c, 0, 74, 58
1, 100988, Note_off_c, 0, 60, 45
1, 100991, Note_off_c, 0, 48, 42
1, 100992, Note_on_c, 0, 69, 46
1, 100992, Note_on_c, 0, 72, 55
1, 100996, Control_c, 0, 64, 41
1, 101010, Control_c, 0, 64, 0
1, 101015, Note_off_c, 0, 69, 58
1, 101018, Note_off_c, 0, 74, 65
1, 101022, Note_off_c, 0, 72, 66
1, 101158, Note_on_c, 0, 48, 40
1, 101159, Note_on_c, 0, 75, 66
1, 101169, Note_on_c, 0, 60, 39
1, 101169, Note_on_c, 0, 72, 54
1, 101181, Note_on_c, 0, 69, 27
1, 101187, Note_off_c, 0, 48, 54
1, 101191, Note_off_c, 0, 75, 62
1, 101192, Note_off_c, 0, 72, 61
1, 101196, Note_off_c, 0, 60, 59
1, 101216, Note_off_c, 0, 69, 42
1, 101336, Control_c, 0, 64, 36
1, 101347, Note_on_c, 0, 76, 67
1, 101351, Control_c, 0, 64, 56
1, 101353, Note_on_c, 0, 69, 54
1, 101355, Note_on_c, 0, 64, 39
1, 101361, Note_on_c, 0, 72, 47
1, 101365, Note_on_c, 0, 52, 37
1, 101366, Control_c, 0, 64, 66
1, 101381, Control_c, 0, 64, 75
1, 101383, Note_off_c, 0, 64, 56
1, 101390, Note_off_c, 0, 69, 65
1, 101395, Control_c, 0, 64, 95
1, 101401, Note_off_c, 0, 52, 62
1, 101402, Note_off_c, 0, 72, 63
1, 101410, Control_c, 0, 64, 127
1, 101421, Note_off_c, 0, 76, 64
1, 101558, Note_on_c, 0, 60, 35
1, 101567, Note_on_c, 0, 48, 38
1, 101719, Note_on_c, 0, 89, 67
1, 101735, Note_off_c, 0, 60, 26
1, 101748, Note_on_c, 0, 88, 71
1, 101749, Note_off_c, 0, 48, 30
1, 101767, Note_on_c, 0, 81, 45
1, 101781, Note_on_c, 0, 84, 43
1, 101783, Note_off_c, 0, 89, 61
1, 101818, Note_off_c, 0, 81, 62
1, 101821, Note_off_c, 0, 84, 65
1, 101826, Note_off_c, 0, 88, 64
1, 101933, Note_on_c, 0, 48, 32
1, 101958, Note_on_c, 0, 60, 37
1, 101981, Note_off_c, 0, 48, 46
1, 102002, Note_off_c, 0, 60, 60
1, 102159, Control_c, 0, 64, 97
1, 102161, Note_on_c, 0, 81, 73
1, 102174, Control_c, 0, 64, 75
1, 102178, Note_on_c, 0, 62, 34
1, 102182, Note_on_c, 0, 50, 33
1, 102189, Control_c, 0, 64, 62
1, 102192, Note_on_c, 0, 72, 39
1, 102194, Note_on_c, 0, 77, 47
1, 102204, Control_c, 0, 64, 52
1, 102218, Control_c, 0, 64, 56
1, 102233, Control_c, 0, 64, 60
1, 102248, Control_c, 0, 64, 63
1, 102253, Note_off_c, 0, 62, 56
1, 102259, Note_off_c, 0, 50, 38
1, 102263, Control_c, 0, 64, 69
1, 102279, Control_c, 0, 64, 81
1, 102294, Control_c, 0, 64, 127
1, 102381, Note_off_c, 0, 77, 62
1, 102388, Note_on_c, 0, 60, 41
1, 102390, Note_on_c, 0, 48, 44
1, 102430, Note_off_c, 0, 72, 58
1, 102529, Note_off_c, 0, 48, 36
1, 102571, Note_on_c, 0, 76, 79
1, 102572, Note_off_c, 0, 60, 42
1, 102588, Note_on_c, 0, 71, 62
1, 102638, Note_off_c, 0, 81, 64
1, 102667, Note_off_c, 0, 71, 60
1, 102756, Note_on_c, 0, 77, 86
1, 102758, Note_on_c, 0, 48, 42
1, 102766, Note_on_c, 0, 60, 40
1, 102772, Note_on_c, 0, 69, 62
1, 102775, Note_on_c, 0, 74, 63
1, 102789, Note_off_c, 0, 48, 53
1, 102798, Note_off_c, 0, 60, 62
1, 102822, Note_off_c, 0, 76, 61
1, 102828, Note_off_c, 0, 74, 59
1, 102836, Note_off_c, 0, 69, 51
1, 102923, Control_c, 0, 64, 118
1, 102938, Control_c, 0, 64, 85
1, 102953, Control_c, 0, 64, 67
1, 102965, Note_on_c, 0, 79, 75
1, 102967, Control_c, 0, 64, 47
1, 102980, Note_on_c, 0, 64, 41
1, 102982, Control_c, 0, 64, 20
1, 102986, Note_on_c, 0, 52, 42
1, 102986, Note_on_c, 0, 67, 46
1, 102989, Note_on_c, 0, 72, 52
1, 102997, Control_c, 0, 64, 21
1, 103001, Note_off_c, 0, 77, 61
1, 103012, Control_c, 0, 64, 29
1, 103027, Control_c, 0, 64, 43
1, 103042, Control_c, 0, 64, 57
1, 103048, Note_off_c, 0, 64, 57
1, 103056, Control_c, 0, 64, 65
1, 103079, Control_c, 0, 64, 73
1, 103080, Note_off_c, 0, 52, 52
1, 103094, Control_c, 0, 64, 100
1, 103109, Control_c, 0, 64, 127
1, 103214, Note_on_c, 0, 60, 34
1, 103215, Note_on_c, 0, 48, 45
1, 103282, Note_off_c, 0, 67, 37
1, 103396, Note_off_c, 0, 72, 61
1, 103398, Note_off_c, 0, 48, 28
1, 103398, Note_off_c, 0, 60, 40
1, 103598, Note_on_c, 0, 48, 40
1, 103608, Note_on_c, 0, 60, 41
1, 103625, Note_off_c, 0, 48, 56
1, 103648, Note_off_c, 0, 60, 65
1, 103685, Note_off_c, 0, 79, 50
1, 103805, Control_c, 0, 64, 98
1, 103814, Note_on_c, 0, 67, 57
1, 103825, Note_on_c, 0, 76, 63
1, 103827, Note_on_c, 0, 74, 57
1, 103827, Control_c, 0, 64, 72
1, 103835, Note_on_c, 0, 55, 51
1, 103836, Note_on_c, 0, 70, 49
1, 103842, Control_c, 0, 64, 60
1, 103857, Control_c, 0, 64, 51
1, 103873, Control_c, 0, 64, 57
1, 103888, Control_c, 0, 64, 63
1, 103889, Note_off_c, 0, 67, 61
1, 103902, Control_c, 0, 64, 69
1, 103917, Control_c, 0, 64, 82
1, 103919, Note_off_c, 0, 55, 63
1, 103932, Control_c, 0, 64, 127
1, 104052, Note_on_c, 0, 60, 37
1, 104054, Note_off_c, 0, 76, 58
1, 104061, Note_on_c, 0, 48, 44
1, 104072, Note_off_c, 0, 70, 48
1, 104077, Note_off_c, 0, 74, 59
1, 104223, Note_off_c, 0, 48, 30
1, 104232, Note_on_c, 0, 74, 53
1, 104235, Note_on_c, 0, 76, 75
1, 104250, Note_on_c, 0, 70, 56
1, 104268, Note_off_c, 0, 60, 35
1, 104322, Note_off_c, 0, 74, 59
1, 104345, Note_off_c, 0, 70, 59
1, 104416, Note_on_c, 0, 60, 57
1, 104417, Note_on_c, 0, 48, 60
1, 104419, Note_on_c, 0, 77, 83
1, 104434, Note_on_c, 0, 70, 67
1, 104440, Note_on_c, 0, 74, 64
1, 104445, Note_off_c, 0, 60, 65
1, 104447, Note_off_c, 0, 48, 64
1, 104476, Note_off_c, 0, 76, 60
1, 104498, Note_off_c, 0, 74, 49
1, 104510, Note_off_c, 0, 70, 60
1, 104537, Note_off_c, 0, 77, 61
1, 104622, Control_c, 0, 64, 82
1, 104623, Note_on_c, 0, 66, 70
1, 104629, Note_on_c, 0, 78, 84
1, 104632, Note_on_c, 0, 54, 61
1, 104636, Control_c, 0, 64, 64
1, 104643, Note_on_c, 0, 74, 59
1, 104651, Control_c, 0, 64, 41
1, 104653, Note_on_c, 0, 71, 60
1, 104666, Control_c, 0, 64, 32
1, 104682, Control_c, 0, 64, 45
1, 104697, Control_c, 0, 64, 57
1, 104710, Note_off_c, 0, 66, 62
1, 104712, Control_c, 0, 64, 66
1, 104724, Note_off_c, 0, 54, 64
1, 104726, Control_c, 0, 64, 79
1, 104741, Control_c, 0, 64, 127
1, 104781, Note_off_c, 0, 71, 60
1, 104825, Note_off_c, 0, 74, 61
1, 104835, Note_on_c, 0, 60, 59
1, 104850, Note_on_c, 0, 48, 52
1, 104854, Note_off_c, 0, 78, 64
1, 105004, Note_off_c, 0, 48, 53
1, 105021, Note_on_c, 0, 86, 82
1, 105058, Note_off_c, 0, 60, 37
1, 105165, Note_off_c, 0, 86, 63
1, 105203, Note_on_c, 0, 60, 62
1, 105206, Note_on_c, 0, 48, 59
1, 105265, Note_off_c, 0, 48, 59
1, 105284, Note_off_c, 0, 60, 62
1, 105450, Note_on_c, 0, 82, 73
1, 105458, Note_on_c, 0, 64, 54
1, 105459, Control_c, 0, 64, 101
1, 105465, Note_on_c, 0, 74, 58
1, 105467, Note_on_c, 0, 52, 49
1, 105475, Control_c, 0, 64, 79
1, 105476, Note_on_c, 0, 70, 56
1, 105490, Control_c, 0, 64, 65
1, 105505, Control_c, 0, 64, 54
1, 105520, Control_c, 0, 64, 52
1, 105535, Control_c, 0, 64, 58
1, 105549, Control_c, 0, 64, 62
1, 105564, Control_c, 0, 64, 67
1, 105579, Control_c, 0, 64, 77
1, 105585, Note_off_c, 0, 64, 59
1, 105591, Note_off_c, 0, 74, 62
1, 105593, Control_c, 0, 64, 104
1, 105603, Note_off_c, 0, 52, 62
1, 105608, Control_c, 0, 64, 127
1, 105627, Note_off_c, 0, 70, 61
1, 105698, Note_on_c, 0, 81, 85
1, 105727, Note_on_c, 0, 60, 51
1, 105734, Note_on_c, 0, 48, 46
1, 105800, Note_off_c, 0, 82, 33
1, 105846, Note_off_c, 0, 48, 50
1, 105877, Note_off_c, 0, 60, 37
1, 105879, Note_off_c, 0, 81, 57
1, 105880, Note_on_c, 0, 74, 86
1, 106033, Note_off_c, 0, 74, 56
1, 106076, Note_on_c, 0, 76, 82
1, 106078, Note_on_c, 0, 60, 54
1, 106081, Note_on_c, 0, 48, 54
1, 106113, Note_off_c, 0, 48, 63
1, 106113, Note_off_c, 0, 60, 65
1, 106165, Note_off_c, 0, 76, 61
1, 106268, Control_c, 0, 64, 89
1, 106282, Note_on_c, 0, 78, 68
1, 106283, Control_c, 0, 64, 67
1, 106294, Note_on_c, 0, 66, 51
1, 106294, Note_on_c, 0, 74, 52
1, 106295, Note_on_c, 0, 54, 53
1, 106298, Control_c, 0, 64, 39
1, 106307, Note_on_c, 0, 71, 49
1, 106313, Control_c, 0, 64, 0
1, 106343, Control_c, 0, 64, 31
1, 106355, Note_off_c, 0, 66, 61
1, 106358, Control_c, 0, 64, 56
1, 106367, Note_off_c, 0, 54, 63
1, 106372, Control_c, 0, 64, 67
1, 106387, Control_c, 0, 64, 79
1, 106402, Control_c, 0, 64, 113
1, 106417, Control_c, 0, 64, 127
1, 106419, Note_off_c, 0, 71, 56
1, 106457, Note_off_c, 0, 74, 59
1, 106514, Note_on_c, 0, 60, 42
1, 106529, Note_on_c, 0, 48, 40
1, 106671, Note_off_c, 0, 48, 29
1, 106687, Note_off_c, 0, 60, 36
1, 106714, Note_off_c, 0, 78, 33
1, 106716, Note_on_c, 0, 74, 49
1, 106767, Note_off_c, 0, 74, 57
1, 106807, Note_on_c, 0, 76, 46
1, 106864, Note_off_c, 0, 76, 57
1, 106905, Note_on_c, 0, 78, 48
1, 106909, Note_on_c, 0, 48, 28
1, 106925, Note_on_c, 0, 60, 27
1, 106951, Note_off_c, 0, 48, 43
1, 106957, Note_off_c, 0, 60, 54
1, 106963, Note_off_c, 0, 78, 59
1, 107012, Note_on_c, 0, 79, 54
1, 107074, Note_off_c, 0, 79, 56
1, 107173, Note_on_c, 0, 71, 48
1, 107194, Control_c, 0, 64, 110
1, 107207, Note_on_c, 0, 81, 50
1, 107209, Control_c, 0, 64, 99
1, 107217, Note_on_c, 0, 77, 40
1, 107224, Control_c, 0, 64, 87
1, 107238, Control_c, 0, 64, 76
1, 107253, Control_c, 0, 64, 65
1, 107268, Control_c, 0, 64, 56
1, 107283, Control_c, 0, 64, 49
1, 107298, Control_c, 0, 64, 51
1, 107313, Control_c, 0, 64, 54
1, 107327, Control_c, 0, 64, 58
1, 107342, Control_c, 0, 64, 62
1, 107357, Control_c, 0, 64, 67
1, 107372, Control_c, 0, 64, 77
1, 107387, Control_c, 0, 64, 92
1, 107401, Control_c, 0, 64, 127
1, 107411, Note_off_c, 0, 71, 58
1, 107432, Note_off_c, 0, 77, 32
1, 107440, Note_on_c, 0, 60, 34
1, 107443, Note_on_c, 0, 74, 48
1, 107473, Note_off_c, 0, 81, 61
1, 107475, Note_off_c, 0, 60, 64
1, 107646, Note_on_c, 0, 81, 62
1, 107646, Note_off_c, 0, 74, 51
1, 107651, Note_on_c, 0, 59, 43
1, 107663, Note_on_c, 0, 77, 49
1, 107807, Note_off_c, 0, 59, 55
1, 107827, Note_on_c, 0, 83, 73
1, 107831, Note_on_c, 0, 48, 37
1, 107837, Note_off_c, 0, 77, 57
1, 107849, Note_on_c, 0, 74, 53
1, 107857, Note_off_c, 0, 81, 62
1, 107863, Note_off_c, 0, 48, 49
1, 107907, Note_off_c, 0, 83, 62
1, 107912, Note_off_c, 0, 74, 47
1, 108016, Note_on_c, 0, 84, 71
1, 108018, Control_c, 0, 64, 114
1, 108033, Note_on_c, 0, 69, 51
1, 108033, Control_c, 0, 64, 97
1, 108048, Control_c, 0, 64, 83
1, 108054, Note_on_c, 0, 77, 49
1, 108062, Control_c, 0, 64, 71
1, 108077, Control_c, 0, 64, 61
1, 108092, Control_c, 0, 64, 52
1, 108107, Control_c, 0, 64, 53
1, 108122, Control_c, 0, 64, 56
1, 108136, Control_c, 0, 64, 58
1, 108151, Control_c, 0, 64, 62
1, 108166, Control_c, 0, 64, 66
1, 108181, Control_c, 0, 64, 72
1, 108196, Control_c, 0, 64, 85
1, 108207, Note_off_c, 0, 69, 63
1, 108211, Control_c, 0, 64, 123
1, 108222, Note_on_c, 0, 74, 48
1, 108225, Control_c, 0, 64, 127
1, 108226, Note_off_c, 0, 77, 58
1, 108235, Note_on_c, 0, 60, 37
1, 108255, Note_off_c, 0, 84, 59
1, 108263, Note_off_c, 0, 60, 52
1, 108423, Note_on_c, 0, 84, 69
1, 108425, Note_off_c, 0, 74, 42
1, 108436, Note_on_c, 0, 57, 41
1, 108440, Note_on_c, 0, 77, 57
1, 108576, Note_off_c, 0, 77, 63
1, 108578, Note_off_c, 0, 57, 53
1, 108585, Note_off_c, 0, 84, 59
1, 108608, Note_on_c, 0, 48, 41
1, 108621, Note_on_c, 0, 74, 50
1, 108639, Note_off_c, 0, 48, 51
1, 108659, Note_off_c, 0, 74, 63
1, 108781, Control_c, 0, 64, 110
1, 108796, Note_on_c, 0, 88, 75
1, 108796, Control_c, 0, 64, 90
1, 108811, Control_c, 0, 64, 76
1, 108811, Note_on_c, 0, 67, 50
1, 108822, Note_on_c, 0, 77, 55
1, 108826, Control_c, 0, 64, 66
1, 108841, Control_c, 0, 64, 60
1, 108856, Control_c, 0, 64, 60
1, 108871, Control_c, 0, 64, 63
1, 108885, Control_c, 0, 64, 64
1, 108891, Note_off_c, 0, 88, 62
1, 108900, Control_c, 0, 64, 67
1, 108915, Control_c, 0, 64, 74
1, 108930, Control_c, 0, 64, 88
1, 108945, Control_c, 0, 64, 127
1, 108956, Note_off_c, 0, 77, 45
1, 108979, Note_off_c, 0, 67, 61
1, 108989, Note_on_c, 0, 74, 57
1, 109001, Note_on_c, 0, 60, 41
1, 109029, Note_off_c, 0, 60, 62
1, 109196, Note_on_c, 0, 83, 76
1, 109219, Note_on_c, 0, 55, 48
1, 109223, Note_on_c, 0, 77, 55
1, 109240, Note_off_c, 0, 74, 31
1, 109356, Note_off_c, 0, 55, 57
1, 109373, Note_on_c, 0, 84, 74
1, 109376, Note_on_c, 0, 48, 47
1, 109380, Note_off_c, 0, 77, 59
1, 109390, Note_on_c, 0, 74, 60
1, 109407, Note_off_c, 0, 48, 62
1, 109413, Note_off_c, 0, 83, 61
1, 109448, Note_off_c, 0, 74, 52
1, 109451, Note_off_c, 0, 84, 63
1, 109573, Note_on_c, 0, 69, 64
1, 109575, Note_on_c, 0, 86, 65
1, 109575, Control_c, 0, 64, 106
1, 109589, Control_c, 0, 64, 93
1, 109591, Note_on_c, 0, 77, 55
1, 109604, Control_c, 0, 64, 77
1, 109619, Control_c, 0, 64, 67
1, 109634, Control_c, 0, 64, 59
1, 109649, Control_c, 0, 64, 53
1, 109664, Control_c, 0, 64, 53
1, 109679, Control_c, 0, 64, 53
1, 109693, Control_c, 0, 64, 56
1, 109708, Control_c, 0, 64, 59
1, 109723, Control_c, 0, 64, 62
1, 109738, Control_c, 0, 64, 66
1, 109753, Control_c, 0, 64, 72
1, 109764, Note_off_c, 0, 69, 62
1, 109768, Control_c, 0, 64, 83
1, 109776, Note_on_c, 0, 74, 50
1, 109780, Note_off_c, 0, 77, 57
1, 109782, Control_c, 0, 64, 102
1, 109783, Note_on_c, 0, 60, 41
1, 109785, Note_off_c, 0, 86, 58
1, 109797, Control_c, 0, 64, 127
1, 109818, Note_off_c, 0, 60, 62
1, 109976, Note_on_c, 0, 86, 63
1, 109989, Note_off_c, 0, 74, 57
1, 109991, Note_on_c, 0, 57, 42
1, 109991, Note_on_c, 0, 77, 50
1, 110126, Note_off_c, 0, 57, 51
1, 110161, Note_on_c, 0, 48, 41
1, 110163, Note_off_c, 0, 86, 55
1, 110170, Note_off_c, 0, 77, 45
1, 110175, Note_on_c, 0, 74, 46
1, 110189, Note_off_c, 0, 48, 53
1, 110353, Control_c, 0, 64, 118
1, 110358, Note_on_c, 0, 71, 70
1, 110359, Note_off_c, 0, 74, 50
1, 110368, Control_c, 0, 64, 105
1, 110373, Note_on_c, 0, 81, 54
1, 110383, Control_c, 0, 64, 96
1, 110398, Control_c, 0, 64, 89
1, 110400, Note_on_c, 0, 77, 45
1, 110412, Control_c, 0, 64, 81
1, 110427, Control_c, 0, 64, 74
1, 110442, Control_c, 0, 64, 66
1, 110457, Control_c, 0, 64, 61
1, 110471, Control_c, 0, 64, 60
1, 110486, Control_c, 0, 64, 62
1, 110501, Control_c, 0, 64, 63
1, 110516, Control_c, 0, 64, 64
1, 110531, Control_c, 0, 64, 68
1, 110540, Note_on_c, 0, 84, 73
1, 110543, Note_off_c, 0, 71, 62
1, 110546, Control_c, 0, 64, 74
1, 110568, Control_c, 0, 64, 87
1, 110571, Note_on_c, 0, 60, 43
1, 110571, Note_off_c, 0, 77, 55
1, 110576, Note_off_c, 0, 81, 62
1, 110581, Note_on_c, 0, 74, 54
1, 110583, Control_c, 0, 64, 127
1, 110606, Note_off_c, 0, 60, 63
1, 110743, Note_on_c, 0, 81, 79
1, 110756, Note_on_c, 0, 59, 55
1, 110762, Note_on_c, 0, 77, 64
1, 110782, Note_off_c, 0, 74, 55
1, 110787, Note_off_c, 0, 84, 60
1, 110912, Note_off_c, 0, 59, 61
1, 110920, Note_on_c, 0, 83, 84
1, 110925, Note_on_c, 0, 48, 55
1, 110928, Note_off_c, 0, 77, 62
1, 110942, Note_on_c, 0, 74, 62
1, 110956, Note_off_c, 0, 48, 64
1, 111023, Note_off_c, 0, 81, 29
1, 111117, Note_on_c, 0, 69, 78
1, 111118, Note_on_c, 0, 84, 86
1, 111131, Control_c, 0, 64, 107
1, 111141, Note_on_c, 0, 77, 60
1, 111143, Note_off_c, 0, 74, 57
1, 111146, Control_c, 0, 64, 90
1, 111154, Note_off_c, 0, 83, 61
1, 111160, Control_c, 0, 64, 76
1, 111175, Control_c, 0, 64, 65
1, 111190, Control_c, 0, 64, 54
1, 111205, Control_c, 0, 64, 50
1, 111220, Control_c, 0, 64, 53
1, 111235, Control_c, 0, 64, 56
1, 111250, Control_c, 0, 64, 60
1, 111264, Control_c, 0, 64, 63
1, 111279, Control_c, 0, 64, 69
1, 111294, Control_c, 0, 64, 80
1, 111294, Note_off_c, 0, 69, 63
1, 111303, Note_on_c, 0, 60, 56
1, 111316, Control_c, 0, 64, 110
1, 111325, Note_on_c, 0, 74, 62
1, 111331, Control_c, 0, 64, 127
1, 111346, Note_off_c, 0, 60, 65
1, 111350, Note_off_c, 0, 77, 55
1, 111375, Note_off_c, 0, 84, 59
1, 111495, Note_on_c, 0, 84, 82
1, 111512, Note_on_c, 0, 57, 55
1, 111520, Note_on_c, 0, 77, 63
1, 111545, Note_off_c, 0, 74, 58
1, 111583, Control_c, 0, 67, 124
1, 111598, Control_c, 0, 67, 119
1, 111612, Control_c, 0, 67, 114
1, 111627, Control_c, 0, 67, 109
1, 111642, Control_c, 0, 67, 105
1, 111657, Control_c, 0, 67, 99
1, 111662, Note_off_c, 0, 57, 61
1, 111671, Control_c, 0, 67, 92
1, 111674, Note_off_c, 0, 77, 62
1, 111675, Note_off_c, 0, 84, 57
1, 111677, Note_on_c, 0, 48, 56
1, 111683, Note_on_c, 0, 74, 66
1, 111685, Control_c, 0, 67, 85
1, 111700, Control_c, 0, 67, 78
1, 111712, Note_off_c, 0, 48, 64
1, 111715, Control_c, 0, 67, 72
1, 111730, Control_c, 0, 67, 66
1, 111745, Control_c, 0, 67, 61
1, 111752, Note_off_c, 0, 74, 61
1, 111759, Control_c, 0, 67, 57
1, 111774, Control_c, 0, 67, 53
1, 111789, Control_c, 0, 67, 50
1, 111804, Control_c, 0, 67, 46
1, 111819, Control_c, 0, 67, 44
1, 111834, Control_c, 0, 67, 42
1, 111849, Control_c, 0, 67, 40
1, 111864, Control_c, 0, 67, 39
1, 111876, Note_on_c, 0, 88, 74
1, 111879, Control_c, 0, 64, 95
1, 111879, Control_c, 0, 67, 37
1, 111891, Note_on_c, 0, 67, 60
1, 111894, Control_c, 0, 64, 81
1, 111894, Control_c, 0, 67, 35
1, 111898, Note_on_c, 0, 77, 60
1, 111908, Control_c, 0, 64, 72
1, 111908, Control_c, 0, 67, 31
1, 111923, Control_c, 0, 64, 69
1, 111923, Control_c, 0, 67, 26
1, 111938, Control_c, 0, 64, 72
1, 111938, Control_c, 0, 67, 20
1, 111948, Note_off_c, 0, 88, 63
1, 111953, Control_c, 0, 64, 74
1, 111953, Control_c, 0, 67, 14
1, 111968, Control_c, 0, 64, 77
1, 111968, Control_c, 0, 67, 9
1, 111983, Control_c, 0, 64, 81
1, 111983, Control_c, 0, 67, 0
1, 111998, Control_c, 0, 64, 91
1, 112013, Control_c, 0, 64, 117
1, 112028, Control_c, 0, 64, 127
1, 112072, Note_off_c, 0, 67, 62
1, 112081, Note_on_c, 0, 86, 78
1, 112087, Note_on_c, 0, 60, 54
1, 112088, Note_on_c, 0, 74, 71
1, 112110, Note_off_c, 0, 77, 50
1, 112118, Note_off_c, 0, 60, 65
1, 112164, Note_off_c, 0, 86, 60
1, 112259, Note_on_c, 0, 83, 82
1, 112281, Note_on_c, 0, 77, 60
1, 112284, Note_on_c, 0, 55, 54
1, 112314, Note_off_c, 0, 74, 57
1, 112433, Note_on_c, 0, 84, 84
1, 112436, Note_off_c, 0, 55, 61
1, 112440, Note_on_c, 0, 48, 65
1, 112446, Note_on_c, 0, 74, 74
1, 112470, Note_off_c, 0, 77, 59
1, 112475, Note_off_c, 0, 48, 65
1, 112482, Note_off_c, 0, 83, 59
1, 112531, Note_off_c, 0, 84, 62
1, 112636, Note_on_c, 0, 86, 81
1, 112643, Note_on_c, 0, 69, 89
1, 112658, Control_c, 0, 64, 105
1, 112660, Note_on_c, 0, 77, 65
1, 112673, Control_c, 0, 64, 84
1, 112688, Control_c, 0, 64, 72
1, 112695, Note_off_c, 0, 74, 59
1, 112703, Control_c, 0, 64, 65
1, 112718, Control_c, 0, 64, 61
1, 112732, Control_c, 0, 64, 61
1, 112747, Control_c, 0, 64, 63
1, 112762, Control_c, 0, 64, 65
1, 112777, Control_c, 0, 64, 69
1, 112792, Control_c, 0, 64, 77
1, 112814, Control_c, 0, 64, 93
1, 112829, Control_c, 0, 64, 127
1, 112846, Note_on_c, 0, 60, 66
1, 112847, Note_off_c, 0, 69, 62
1, 112853, Note_on_c, 0, 74, 73
1, 112886, Note_off_c, 0, 60, 63
1, 112898, Note_off_c, 0, 77, 59
1, 112910, Note_off_c, 0, 86, 60
1, 113038, Note_on_c, 0, 59, 89
1, 113042, Note_on_c, 0, 86, 81
1, 113063, Note_on_c, 0, 77, 72
1, 113080, Control_c, 0, 64, 97
1, 113095, Control_c, 0, 64, 83
1, 113102, Note_off_c, 0, 74, 61
1, 113110, Control_c, 0, 64, 72
1, 113125, Control_c, 0, 64, 64
1, 113139, Control_c, 0, 64, 60
1, 113154, Control_c, 0, 64, 59
1, 113169, Control_c, 0, 64, 60
1, 113184, Control_c, 0, 64, 62
1, 113199, Control_c, 0, 64, 64
1, 113213, Control_c, 0, 64, 66
1, 113228, Control_c, 0, 64, 70
1, 113243, Control_c, 0, 64, 80
1, 113244, Note_on_c, 0, 48, 60
1, 113254, Note_on_c, 0, 74, 73
1, 113257, Control_c, 0, 64, 101
1, 113272, Control_c, 0, 64, 127
1, 113275, Note_off_c, 0, 59, 60
1, 113318, Note_off_c, 0, 77, 59
1, 113318, Note_off_c, 0, 86, 57
1, 113363, Note_off_c, 0, 48, 57
1, 113585, Note_on_c, 0, 60, 81
1, 113616, Note_on_c, 0, 84, 80
1, 113637, Note_on_c, 0, 76, 67
1, 113666, Control_c, 0, 64, 103
1, 113676, Note_off_c, 0, 74, 58
1, 113681, Control_c, 0, 64, 92
1, 113695, Control_c, 0, 64, 83
1, 113710, Control_c, 0, 64, 77
1, 113725, Control_c, 0, 64, 73
1, 113740, Control_c, 0, 64, 71
1, 113755, Control_c, 0, 64, 67
1, 113769, Control_c, 0, 64, 62
1, 113784, Control_c, 0, 64, 55
1, 113799, Control_c, 0, 64, 44
1, 113814, Control_c, 0, 64, 34
1, 113829, Control_c, 0, 64, 30
1, 113858, Control_c, 0, 64, 33
1, 113873, Control_c, 0, 64, 39
1, 113888, Control_c, 0, 64, 48
1, 113903, Control_c, 0, 64, 54
1, 113917, Control_c, 0, 64, 60
1, 113932, Control_c, 0, 64, 64
1, 113944, Note_on_c, 0, 72, 54
1, 113947, Control_c, 0, 64, 69
1, 113962, Control_c, 0, 64, 80
1, 113965, Note_on_c, 0, 55, 54
1, 113977, Control_c, 0, 64, 127
1, 113992, Note_off_c, 0, 76, 58
1, 114032, Note_off_c, 0, 60, 58
1, 114150, Note_off_c, 0, 55, 61
1, 114153, Note_off_c, 0, 72, 62
1, 114159, Note_on_c, 0, 48, 52
1, 114162, Note_on_c, 0, 76, 57
1, 114163, Note_off_c, 0, 84, 63
1, 114195, Note_off_c, 0, 48, 63
1, 114333, Note_on_c, 0, 86, 79
1, 114360, Note_on_c, 0, 43, 53
1, 114365, Note_on_c, 0, 79, 52
1, 114374, Note_off_c, 0, 76, 55
1, 114418, Note_off_c, 0, 86, 61
1, 114526, Note_on_c, 0, 84, 84
1, 114526, Note_off_c, 0, 79, 33
1, 114541, Note_on_c, 0, 36, 51
1, 114552, Note_on_c, 0, 76, 64
1, 114555, Note_off_c, 0, 43, 56
1, 114618, Note_off_c, 0, 84, 57
1, 114714, Note_on_c, 0, 71, 83
1, 114715, Note_on_c, 0, 43, 61
1, 114721, Note_off_c, 0, 36, 35
1, 114743, Note_off_c, 0, 76, 62
1, 114889, Note_on_c, 0, 83, 92
1, 114898, Note_on_c, 0, 48, 71
1, 114900, Note_off_c, 0, 43, 62
1, 114904, Note_on_c, 0, 76, 73
1, 114940, Note_off_c, 0, 48, 60
1, 115079, Note_on_c, 0, 79, 75
1, 115080, Note_on_c, 0, 55, 80
1, 115091, Note_off_c, 0, 76, 61
1, 115116, Note_off_c, 0, 83, 61
1, 115130, Note_off_c, 0, 79, 64
1, 115136, Note_off_c, 0, 71, 58
1, 115157, Note_off_c, 0, 55, 58
1, 115317, Note_on_c, 0, 62, 91
1, 115331, Note_on_c, 0, 82, 81
1, 115345, Note_on_c, 0, 74, 65
1, 115371, Control_c, 0, 64, 97
1, 115386, Control_c, 0, 64, 67
1, 115400, Control_c, 0, 64, 43
1, 115416, Control_c, 0, 64, 0
1, 115431, Control_c, 0, 64, 21
1, 115446, Control_c, 0, 64, 34
1, 115460, Control_c, 0, 64, 52
1, 115475, Control_c, 0, 64, 63
1, 115490, Control_c, 0, 64, 72
1, 115505, Control_c, 0, 64, 98
1, 115520, Control_c, 0, 64, 127
1, 115541, Note_off_c, 0, 62, 61
1, 115545, Note_on_c, 0, 77, 70
1, 115554, Note_on_c, 0, 70, 60
1, 115560, Note_on_c, 0, 50, 52
1, 115564, Note_off_c, 0, 74, 62
1, 115572, Note_off_c, 0, 82, 63
1, 115581, Note_off_c, 0, 77, 64
1, 115590, Note_off_c, 0, 50, 65
1, 115609, Note_off_c, 0, 70, 62
1, 115730, Note_on_c, 0, 74, 73
1, 115733, Note_on_c, 0, 48, 59
1, 115741, Note_on_c, 0, 65, 65
1, 115885, Note_off_c, 0, 48, 55
1, 115903, Note_off_c, 0, 65, 62
1, 115908, Note_on_c, 0, 70, 74
1, 115910, Note_on_c, 0, 36, 62
1, 115911, Note_off_c, 0, 74, 53
1, 115915, Note_on_c, 0, 62, 59
1, 115940, Note_off_c, 0, 62, 63
1, 115942, Note_off_c, 0, 36, 63
1, 115953, Note_off_c, 0, 70, 59
1, 116096, Note_on_c, 0, 80, 81
1, 116102, Note_on_c, 0, 63, 89
1, 116107, Note_on_c, 0, 72, 60
1, 116135, Control_c, 0, 64, 90
1, 116150, Control_c, 0, 64, 69
1, 116165, Control_c, 0, 64, 54
1, 116180, Control_c, 0, 64, 41
1, 116195, Control_c, 0, 64, 46
1, 116210, Control_c, 0, 64, 53
1, 116224, Control_c, 0, 64, 62
1, 116239, Control_c, 0, 64, 67
1, 116254, Control_c, 0, 64, 81
1, 116269, Control_c, 0, 64, 127
1, 116278, Note_off_c, 0, 63, 62
1, 116293, Note_on_c, 0, 51, 57
1, 116295, Note_off_c, 0, 80, 64
1, 116296, Note_on_c, 0, 68, 62
1, 116296, Note_on_c, 0, 75, 61
1, 116303, Note_off_c, 0, 72, 64
1, 116326, Note_off_c, 0, 75, 66
1, 116329, Note_off_c, 0, 51, 65
1, 116353, Note_off_c, 0, 68, 59
1, 116481, Note_on_c, 0, 72, 70
1, 116487, Note_on_c, 0, 48, 56
1, 116491, Note_on_c, 0, 63, 60
1, 116643, Note_off_c, 0, 48, 61
1, 116654, Note_off_c, 0, 63, 61
1, 116655, Note_on_c, 0, 36, 55
1, 116657, Note_on_c, 0, 68, 67
1, 116657, Note_on_c, 0, 60, 62
1, 116687, Note_off_c, 0, 60, 65
1, 116687, Note_off_c, 0, 36, 54
1, 116695, Note_off_c, 0, 68, 61
1, 116696, Note_off_c, 0, 72, 60
1, 116863, Note_on_c, 0, 64, 91
1, 116879, Note_on_c, 0, 79, 68
1, 116895, Note_on_c, 0, 72, 53
1, 116913, Control_c, 0, 64, 93
1, 116928, Control_c, 0, 64, 74
1, 116943, Control_c, 0, 64, 63
1, 116958, Control_c, 0, 64, 49
1, 116973, Control_c, 0, 64, 52
1, 116987, Control_c, 0, 64, 57
1, 117002, Control_c, 0, 64, 63
1, 117017, Control_c, 0, 64, 70
1, 117032, Control_c, 0, 64, 89
1, 117046, Control_c, 0, 64, 127
1, 117063, Note_off_c, 0, 64, 59
1, 117069, Note_on_c, 0, 76, 56
1, 117073, Note_on_c, 0, 52, 56
1, 117078, Note_off_c, 0, 79, 61
1, 117095, Note_off_c, 0, 72, 59
1, 117109, Note_off_c, 0, 52, 65
1, 117239, Note_off_c, 0, 76, 64
1, 117247, Note_on_c, 0, 81, 75
1, 117256, Note_on_c, 0, 48, 57
1, 117258, Note_on_c, 0, 72, 61
1, 117351, Note_off_c, 0, 81, 63
1, 117419, Note_off_c, 0, 48, 62
1, 117429, Note_on_c, 0, 36, 65
1, 117438, Note_on_c, 0, 79, 84
1, 117444, Note_on_c, 0, 67, 78
1, 117450, Note_off_c, 0, 72, 63
1, 117463, Note_off_c, 0, 36, 63
1, 117522, Note_off_c, 0, 79, 63
1, 117631, Note_on_c, 0, 78, 84
1, 117642, Note_on_c, 0, 66, 93
1, 117659, Note_on_c, 0, 70, 62
1, 117659, Note_off_c, 0, 67, 56
1, 117676, Control_c, 0, 64, 87
1, 117691, Control_c, 0, 64, 70
1, 117706, Control_c, 0, 64, 56
1, 117721, Control_c, 0, 64, 53
1, 117727, Note_on_c, 0, 56, 3
1, 117736, Control_c, 0, 64, 59
1, 117751, Control_c, 0, 64, 63
1, 117766, Control_c, 0, 64, 67
1, 117769, Note_off_c, 0, 56, 25
1, 117781, Control_c, 0, 64, 79
1, 117795, Control_c, 0, 64, 127
1, 117823, Note_off_c, 0, 66, 63
1, 117836, Note_on_c, 0, 73, 73
1, 117837, Note_on_c, 0, 54, 57
1, 117846, Note_off_c, 0, 70, 59
1, 117872, Note_off_c, 0, 54, 66
1, 117873, Note_off_c, 0, 78, 61
1, 118021, Note_on_c, 0, 80, 84
1, 118022, Note_on_c, 0, 48, 70
1, 118024, Note_off_c, 0, 73, 63
1, 118028, Note_on_c, 0, 70, 78
1, 118112, Note_off_c, 0, 80, 62
1, 118159, Note_off_c, 0, 48, 56
1, 118199, Note_off_c, 0, 70, 54
1, 118213, Note_on_c, 0, 36, 72
1, 118214, Note_on_c, 0, 78, 85
1, 118222, Note_on_c, 0, 66, 82
1, 118241, Note_off_c, 0, 36, 64
1, 118289, Note_off_c, 0, 78, 63
1, 118299, Note_off_c, 0, 66, 61
1, 118419, Note_on_c, 0, 76, 88
1, 118436, Note_on_c, 0, 68, 99
1, 118440, Note_on_c, 0, 71, 68
1, 118440, Control_c, 0, 64, 90
1, 118455, Control_c, 0, 64, 59
1, 118470, Control_c, 0, 64, 0
1, 118529, Control_c, 0, 64, 41
1, 118544, Control_c, 0, 64, 63
1, 118559, Control_c, 0, 64, 74
1, 118574, Control_c, 0, 64, 103
1, 118588, Control_c, 0, 64, 127
1, 118604, Note_off_c, 0, 68, 64
1, 118621, Note_off_c, 0, 71, 62
1, 118625, Note_on_c, 0, 64, 74
1, 118627, Note_on_c, 0, 56, 63
1, 118659, Note_off_c, 0, 56, 66
1, 118819, Note_on_c, 0, 68, 73
1, 118824, Note_on_c, 0, 48, 70
1, 118863, Note_off_c, 0, 76, 53
1, 118941, Note_off_c, 0, 48, 58
1, 118958, Note_off_c, 0, 64, 48
1, 118997, Note_on_c, 0, 36, 63
1, 119006, Note_on_c, 0, 71, 74
1, 119029, Note_off_c, 0, 36, 62
1, 119037, Note_off_c, 0, 68, 59
1, 119062, Note_off_c, 0, 71, 62
1, 119210, Note_on_c, 0, 74, 68
1, 119219, Note_on_c, 0, 66, 58
1, 119219, Note_on_c, 0, 69, 100
1, 119307, Note_off_c, 0, 69, 63
1, 119344, Note_off_c, 0, 74, 57
1, 119381, Note_off_c, 0, 66, 58
1, 119411, Note_on_c, 0, 69, 70
1, 119417, Note_on_c, 0, 62, 60
1, 119510, Note_off_c, 0, 62, 56
1, 119620, Note_off_c, 0, 69, 60
1, 119630, Note_on_c, 0, 71, 101
1, 119631, Note_on_c, 0, 73, 77
1, 119644, Note_on_c, 0, 65, 65
1, 119769, Note_off_c, 0, 71, 56
1, 119867, Note_on_c, 0, 68, 76
1, 119872, Note_on_c, 0, 61, 68
1, 119876, Note_off_c, 0, 73, 57
1, 119905, Note_off_c, 0, 65, 57
1, 119990, Note_off_c, 0, 61, 58
1, 120220, Note_on_c, 0, 72, 92
1, 120242, Note_off_c, 0, 68, 55
1, 120246, Note_on_c, 0, 65, 58
1, 120255, Note_on_c, 0, 62, 59
1, 120317, Control_c, 0, 64, 90
1, 120331, Control_c, 0, 64, 72
1, 120346, Control_c, 0, 64, 59
1, 120361, Control_c, 0, 64, 38
1, 120376, Control_c, 0, 64, 35
1, 120391, Control_c, 0, 64, 37
1, 120405, Control_c, 0, 64, 43
1, 120420, Control_c, 0, 64, 53
1, 120435, Control_c, 0, 64, 59
1, 120449, Control_c, 0, 64, 64
1, 120464, Control_c, 0, 64, 70
1, 120479, Control_c, 0, 64, 82
1, 120482, Note_off_c, 0, 62, 57
1, 120494, Control_c, 0, 64, 127
1, 120610, Note_on_c, 0, 69, 62
1, 120616, Note_on_c, 0, 60, 52
1, 120672, Note_off_c, 0, 65, 57
1, 120713, Note_off_c, 0, 60, 59
1, 120793, Note_off_c, 0, 69, 54
1, 120843, Note_on_c, 0, 69, 47
1, 120851, Note_on_c, 0, 65, 63
1, 121035, Note_on_c, 0, 67, 72
1, 121048, Note_on_c, 0, 62, 64
1, 121051, Note_off_c, 0, 65, 59
1, 121084, Note_off_c, 0, 62, 65
1, 121149, Note_off_c, 0, 69, 37
1, 121233, Note_on_c, 0, 65, 64
1, 121237, Note_on_c, 0, 60, 65
1, 121244, Note_on_c, 0, 62, 52
1, 121286, Note_off_c, 0, 67, 59
1, 121301, Note_off_c, 0, 62, 61
1, 121370, Note_off_c, 0, 60, 62
1, 121409, Note_on_c, 0, 57, 75
1, 121420, Note_on_c, 0, 60, 60
1, 121444, Note_off_c, 0, 65, 60
1, 121593, Note_on_c, 0, 69, 77
1, 121602, Note_on_c, 0, 53, 73
1, 121666, Note_off_c, 0, 57, 47
1, 121711, Note_off_c, 0, 72, 53
1, 121727, Note_off_c, 0, 60, 61
1, 121781, Note_on_c, 0, 67, 80
1, 121789, Note_on_c, 0, 50, 65
1, 121807, Note_off_c, 0, 53, 61
1, 121835, Note_off_c, 0, 50, 64
1, 121897, Note_off_c, 0, 69, 48
1, 121985, Note_on_c, 0, 72, 90
1, 121999, Note_on_c, 0, 43, 59
1, 122014, Note_off_c, 0, 67, 63
1, 122020, Note_on_c, 0, 62, 55
1, 122020, Note_on_c, 0, 65, 57
1, 122053, Note_off_c, 0, 62, 61
1, 122166, Note_on_c, 0, 38, 62
1, 122173, Note_off_c, 0, 65, 60
1, 122179, Note_on_c, 0, 60, 60
1, 122204, Note_off_c, 0, 43, 56
1, 122355, Note_on_c, 0, 31, 66
1, 122368, Note_on_c, 0, 69, 72
1, 122413, Note_off_c, 0, 38, 55
1, 122434, Note_off_c, 0, 60, 58
1, 122519, Note_off_c, 0, 72, 56
1, 122558, Note_on_c, 0, 38, 61
1, 122559, Note_on_c, 0, 67, 75
1, 122619, Note_off_c, 0, 31, 54
1, 122755, Note_on_c, 0, 43, 59
1, 122755, Note_on_c, 0, 72, 84
1, 122768, Note_off_c, 0, 38, 58
1, 122771, Note_on_c, 0, 65, 60
1, 122783, Note_on_c, 0, 62, 54
1, 122788, Note_off_c, 0, 67, 61
1, 122790, Note_off_c, 0, 69, 23
1, 122827, Note_off_c, 0, 43, 59
1, 122833, Note_off_c, 0, 62, 63
1, 122946, Note_off_c, 0, 65, 56
1, 122950, Note_on_c, 0, 50, 58
1, 122956, Note_on_c, 0, 60, 64
1, 123170, Note_on_c, 0, 69, 62
1, 123193, Note_on_c, 0, 53, 50
1, 123236, Note_off_c, 0, 50, 52
1, 123410, Note_off_c, 0, 72, 54
1, 123415, Note_on_c, 0, 67, 61
1, 123427, Note_on_c, 0, 57, 43
1, 123431, Note_off_c, 0, 60, 36
1, 123463, Note_off_c, 0, 53, 37
1, 123523, Note_off_c, 0, 57, 60
1, 123754, Control_c, 0, 64, 123
1, 123769, Control_c, 0, 64, 106
1, 123784, Control_c, 0, 64, 97
1, 123796, Note_on_c, 0, 60, 34
1, 123799, Control_c, 0, 64, 92
1, 123814, Control_c, 0, 64, 89
1, 123815, Note_on_c, 0, 72, 59
1, 123819, Note_on_c, 0, 65, 45
1, 123829, Control_c, 0, 64, 86
1, 123844, Control_c, 0, 64, 81
1, 123848, Note_on_c, 0, 62, 43
1, 123859, Control_c, 0, 64, 77
1, 123874, Control_c, 0, 64, 74
1, 123889, Control_c, 0, 64, 70
1, 123904, Control_c, 0, 64, 67
1, 123912, Note_off_c, 0, 67, 38
1, 123918, Control_c, 0, 64, 64
1, 123933, Control_c, 0, 64, 59
1, 123948, Control_c, 0, 64, 49
1, 123963, Control_c, 0, 64, 38
1, 123978, Control_c, 0, 64, 26
1, 123993, Control_c, 0, 64, 25
1, 124008, Control_c, 0, 64, 26
1, 124023, Control_c, 0, 64, 30
1, 124044, Control_c, 0, 64, 40
1, 124059, Control_c, 0, 64, 48
1, 124074, Control_c, 0, 64, 54
1, 124089, Control_c, 0, 64, 59
1, 124104, Control_c, 0, 64, 63
1, 124118, Control_c, 0, 64, 66
1, 124133, Control_c, 0, 64, 71
1, 124148, Control_c, 0, 64, 78
1, 124150, Note_off_c, 0, 62, 50
1, 124163, Control_c, 0, 64, 89
1, 124178, Control_c, 0, 64, 106
1, 124193, Control_c, 0, 64, 127
1, 124268, Note_on_c, 0, 55, 36
1, 124366, Note_off_c, 0, 60, 41
1, 124411, Note_off_c, 0, 72, 30
1, 124503, Note_on_c, 0, 60, 40
1, 124515, Note_on_c, 0, 52, 34
1, 124529, Note_off_c, 0, 69, 1
1, 124553, Note_off_c, 0, 65, 55
1, 124586, Note_off_c, 0, 55, 38
1, 124757, Note_on_c, 0, 62, 53
1, 124765, Note_on_c, 0, 48, 38
1, 124794, Note_off_c, 0, 52, 43
1, 124828, Note_off_c, 0, 48, 61
1, 124882, Note_off_c, 0, 60, 36
1, 125036, Note_on_c, 0, 67, 55
1, 125048, Note_on_c, 0, 64, 46
1, 125048, Note_on_c, 0, 43, 36
1, 125091, Note_off_c, 0, 62, 58
1, 125288, Note_on_c, 0, 36, 42
1, 125295, Note_off_c, 0, 64, 40
1, 125297, Note_off_c, 0, 43, 39
1, 125300, Note_on_c, 0, 62, 53
1, 125310, Note_off_c, 0, 67, 58
1, 125371, Note_off_c, 0, 62, 61
1, 125512, Note_on_c, 0, 72, 58
1, 125515, Note_on_c, 0, 43, 35
1, 125549, Note_on_c, 0, 60, 40
1, 125567, Note_off_c, 0, 36, 35
1, 125590, Note_off_c, 0, 60, 58
1, 125727, Note_off_c, 0, 43, 40
1, 125746, Note_on_c, 0, 48, 35
1, 125747, Note_on_c, 0, 62, 50
1, 125790, Note_off_c, 0, 72, 53
1, 125843, Note_off_c, 0, 48, 48
1, 125975, Note_off_c, 0, 62, 31
1, 126043, Note_on_c, 0, 72, 46
1, 126046, Control_c, 0, 64, 110
1, 126049, Note_on_c, 0, 67, 43
1, 126061, Control_c, 0, 64, 100
1, 126063, Note_on_c, 0, 64, 36
1, 126066, Note_on_c, 0, 52, 31
1, 126076, Control_c, 0, 64, 92
1, 126090, Control_c, 0, 64, 86
1, 126105, Control_c, 0, 64, 83
1, 126120, Control_c, 0, 64, 80
1, 126134, Control_c, 0, 64, 77
1, 126149, Control_c, 0, 64, 74
1, 126164, Control_c, 0, 64, 70
1, 126179, Control_c, 0, 64, 66
1, 126194, Control_c, 0, 64, 63
1, 126208, Control_c, 0, 64, 60
1, 126223, Control_c, 0, 64, 59
1, 126254, Control_c, 0, 64, 60
1, 126269, Control_c, 0, 64, 61
1, 126291, Control_c, 0, 64, 62
1, 126306, Control_c, 0, 64, 64
1, 126321, Control_c, 0, 64, 65
1, 126336, Control_c, 0, 64, 68
1, 126351, Control_c, 0, 64, 74
1, 126365, Control_c, 0, 64, 83
1, 126380, Control_c, 0, 64, 97
1, 126395, Control_c, 0, 64, 114
1, 126408, Note_off_c, 0, 64, 31
1, 126410, Control_c, 0, 64, 127
1, 126446, Note_off_c, 0, 67, 21
1, 126602, Control_c, 0, 64, 113
1, 126617, Control_c, 0, 64, 106
1, 126632, Control_c, 0, 64, 100
1, 126635, Note_off_c, 0, 52, 32
1, 126637, Note_on_c, 0, 62, 38
1, 126644, Note_on_c, 0, 55, 27
1, 126646, Control_c, 0, 64, 93
1, 126661, Control_c, 0, 64, 88
1, 126676, Control_c, 0, 64, 83
1, 126691, Control_c, 0, 64, 79
1, 126706, Control_c, 0, 64, 75
1, 126720, Control_c, 0, 64, 71
1, 126735, Control_c, 0, 64, 64
1, 126750, Control_c, 0, 64, 59
1, 126765, Control_c, 0, 64, 56
1, 126780, Control_c, 0, 64, 57
1, 126795, Control_c, 0, 64, 58
1, 126810, Control_c, 0, 64, 58
1, 126825, Control_c, 0, 64, 60
1, 126839, Control_c, 0, 64, 61
1, 126854, Control_c, 0, 64, 63
1, 126869, Control_c, 0, 64, 64
1, 126883, Control_c, 0, 64, 65
1, 126898, Control_c, 0, 64, 68
1, 126913, Control_c, 0, 64, 72
1, 126928, Control_c, 0, 64, 79
1, 126943, Control_c, 0, 64, 86
1, 126957, Control_c, 0, 64, 94
1, 126972, Control_c, 0, 64, 103
1, 126987, Control_c, 0, 64, 115
1, 126992, Note_off_c, 0, 55, 32
1, 127002, Control_c, 0, 64, 127
1, 127015, Note_off_c, 0, 62, 25
1, 127625, Note_on_c, 0, 67, 30
1, 127636, Note_on_c, 0, 60, 24
1, 127636, Note_on_c, 0, 64, 26
1, 127647, Control_c, 0, 64, 123
1, 127662, Control_c, 0, 64, 113
1, 127677, Control_c, 0, 64, 106
1, 127692, Control_c, 0, 64, 99
1, 127706, Control_c, 0, 64, 93
1, 127721, Control_c, 0, 64, 88
1, 127736, Control_c, 0, 64, 85
1, 127751, Control_c, 0, 64, 82
1, 127766, Control_c, 0, 64, 79
1, 127788, Control_c, 0, 64, 76
1, 127802, Control_c, 0, 64, 74
1, 127817, Control_c, 0, 64, 71
1, 127832, Control_c, 0, 64, 70
1, 127848, Control_c, 0, 64, 68
1, 127863, Control_c, 0, 64, 67
1, 127878, Control_c, 0, 64, 66
1, 127892, Control_c, 0, 64, 65
1, 127907, Control_c, 0, 64, 64
1, 127922, Control_c, 0, 64, 63
1, 127937, Control_c, 0, 64, 63
1, 127952, Control_c, 0, 64, 62
1, 127966, Control_c, 0, 64, 60
1, 127981, Control_c, 0, 64, 59
1, 127996, Control_c, 0, 64, 57
1, 128011, Control_c, 0, 64, 56
1, 128026, Control_c, 0, 64, 55
1, 128041, Control_c, 0, 64, 54
1, 128085, Control_c, 0, 64, 53
1, 128100, Control_c, 0, 64, 53
1, 128115, Control_c, 0, 64, 52
1, 128130, Control_c, 0, 64, 52
1, 128159, Control_c, 0, 64, 51
1, 128174, Control_c, 0, 64, 50
1, 128189, Control_c, 0, 64, 49
1, 128204, Control_c, 0, 64, 48
1, 128218, Control_c, 0, 64, 48
1, 128292, Control_c, 0, 64, 48
1, 128307, Control_c, 0, 64, 49
1, 128322, Control_c, 0, 64, 51
1, 128336, Control_c, 0, 64, 53
1, 128351, Control_c, 0, 64, 54
1, 128366, Control_c, 0, 64, 56
1, 128381, Control_c, 0, 64, 57
1, 128396, Control_c, 0, 64, 59
1, 128411, Control_c, 0, 64, 60
1, 128425, Control_c, 0, 64, 62
1, 128440, Control_c, 0, 64, 64
1, 128455, Control_c, 0, 64, 65
1, 128470, Control_c, 0, 64, 67
1, 128485, Control_c, 0, 64, 69
1, 128500, Control_c, 0, 64, 73
1, 128515, Control_c, 0, 64, 77
1, 128536, Control_c, 0, 64, 80
1, 128551, Control_c, 0, 64, 83
1, 128566, Control_c, 0, 64, 87
1, 128581, Control_c, 0, 64, 91
1, 128596, Control_c, 0, 64, 97
1, 128610, Control_c, 0, 64, 107
1, 128625, Control_c, 0, 64, 127
1, 128936, Note_off_c, 0, 64, 31
1, 129022, Note_off_c, 0, 72, 37
1, 129544, Note_off_c, 0, 60, 29
1, 129942, Note_off_c, 0, 67, 28
1, 130153, Control_c, 0, 64, 119
1, 130168, Control_c, 0, 64, 113
1, 130182, Control_c, 0, 64, 108
1, 130197, Control_c, 0, 64, 106
1, 130212, Control_c, 0, 64, 102
1, 130228, Control_c, 0, 64, 99
1, 130243, Control_c, 0, 64, 96
1, 130258, Control_c, 0, 64, 94
1, 130273, Control_c, 0, 64, 93
1, 130287, Control_c, 0, 64, 92
1, 130302, Control_c, 0, 64, 90
1, 130317, Control_c, 0, 64, 89
1, 130332, Control_c, 0, 64, 87
1, 130347, Control_c, 0, 64, 86
1, 130361, Control_c, 0, 64, 85
1, 130376, Control_c, 0, 64, 84
1, 130391, Control_c, 0, 64, 84
1, 130405, Control_c, 0, 64, 83
1, 130420, Control_c, 0, 64, 81
1, 130435, Control_c, 0, 64, 80
1, 130450, Control_c, 0, 64, 79
1, 130465, Control_c, 0, 64, 78
1, 130479, Control_c, 0, 64, 76
1, 130494, Control_c, 0, 64, 75
1, 130509, Control_c, 0, 64, 74
1, 130524, Control_c, 0, 64, 73
1, 130539, Control_c, 0, 64, 72
1, 130554, Control_c, 0, 64, 71
1, 130569, Control_c, 0, 64, 70
1, 130584, Control_c, 0, 64, 69
1, 130599, Control_c, 0, 64, 68
1, 130613, Control_c, 0, 64, 67
1, 130628, Control_c, 0, 64, 66
1, 130643, Control_c, 0, 64, 65
1, 130658, Control_c, 0, 64, 64
1, 130673, Control_c, 0, 64, 63
1, 130687, Control_c, 0, 64, 62
1, 130702, Control_c, 0, 64, 59
1, 130717, Control_c, 0, 64, 52
1, 130731, Control_c, 0, 64, 33
1, 130746, Control_c, 0, 64, 0
1, 131041, Note_on_c, 0, 64, 80
1, 131044, Note_on_c, 0, 65, 92
1, 131087, Note_off_c, 0, 64, 54
1, 131117, Note_on_c, 0, 66, 92
1, 131118, Note_on_c, 0, 63, 81
1, 131121, Note_off_c, 0, 65, 62
1, 131185, Note_on_c, 0, 60, 75
1, 131189, Note_off_c, 0, 63, 63
1, 131190, Note_on_c, 0, 70, 83
1, 131196, Note_off_c, 0, 66, 64
1, 131223, Note_off_c, 0, 60, 65
1, 131228, Note_off_c, 0, 70, 63
1, 131260, Note_on_c, 0, 59, 85
1, 131263, Note_on_c, 0, 71, 94
1, 131305, Note_off_c, 0, 59, 61
1, 131319, Note_off_c, 0, 71, 56
1, 131327, Note_on_c, 0, 53, 82
1, 131330, Note_on_c, 0, 75, 92
1, 131404, Note_on_c, 0, 72, 90
1, 131408, Note_on_c, 0, 57, 67
1, 131409, Note_off_c, 0, 53, 61
1, 131409, Note_off_c, 0, 75, 61
1, 131410, Note_on_c, 0, 55, 72
1, 131460, Note_off_c, 0, 55, 60
1, 131461, Note_off_c, 0, 57, 62
1, 131461, Note_off_c, 0, 72, 63
1, 131469, Note_on_c, 0, 59, 81
1, 131473, Note_on_c, 0, 71, 92
1, 131545, Note_on_c, 0, 57, 71
1, 131547, Note_off_c, 0, 59, 60
1, 131553, Note_on_c, 0, 72, 96
1, 131560, Note_off_c, 0, 71, 64
1, 131609, Note_on_c, 0, 53, 80
1, 131615, Note_off_c, 0, 57, 65
1, 131617, Note_on_c, 0, 75, 87
1, 131623, Note_off_c, 0, 72, 65
1, 131643, Note_off_c, 0, 53, 65
1, 131648, Note_off_c, 0, 75, 65
1, 131681, Note_on_c, 0, 52, 87
1, 131683, Note_on_c, 0, 76, 95
1, 131727, Note_off_c, 0, 52, 64
1, 131728, Note_off_c, 0, 76, 66
1, 131745, Note_on_c, 0, 45, 73
1, 131751, Note_on_c, 0, 83, 92
1, 131811, Note_on_c, 0, 51, 87
1, 131813, Note_off_c, 0, 45, 63
1, 131820, Note_on_c, 0, 77, 91
1, 131835, Note_off_c, 0, 83, 62
1, 131881, Note_off_c, 0, 51, 64
1, 131881, Note_off_c, 0, 77, 60
1, 131889, Note_on_c, 0, 52, 83
1, 131891, Note_on_c, 0, 76, 94
1, 131956, Note_off_c, 0, 52, 62
1, 131958, Note_on_c, 0, 51, 85
1, 131962, Note_on_c, 0, 77, 96
1, 131970, Note_off_c, 0, 76, 64
1, 132017, Note_on_c, 0, 47, 75
1, 132020, Note_off_c, 0, 51, 65
1, 132026, Note_on_c, 0, 83, 83
1, 132029, Note_off_c, 0, 77, 64
1, 132048, Note_off_c, 0, 83, 68
1, 132054, Note_off_c, 0, 47, 62
1, 132094, Note_on_c, 0, 84, 93
1, 132105, Note_on_c, 0, 47, 60
1, 132122, Note_on_c, 0, 45, 45
1, 132133, Note_off_c, 0, 47, 64
1, 132154, Note_off_c, 0, 45, 50
1, 132162, Note_on_c, 0, 43, 77
1, 132171, Note_on_c, 0, 86, 89
1, 132174, Note_off_c, 0, 84, 63
1, 132225, Note_off_c, 0, 43, 63
1, 132228, Note_off_c, 0, 86, 66
1, 132231, Note_on_c, 0, 88, 83
1, 132238, Note_on_c, 0, 40, 58
1, 132262, Note_on_c, 0, 41, 29
1, 132265, Note_off_c, 0, 88, 67
1, 132288, Note_off_c, 0, 40, 64
1, 132299, Note_on_c, 0, 43, 73
1, 132307, Note_off_c, 0, 41, 0
1, 132307, Note_on_c, 0, 41, 33
1, 132313, Note_on_c, 0, 87, 90
1, 132357, Note_on_c, 0, 88, 86
1, 132360, Note_on_c, 0, 40, 80
1, 132367, Note_off_c, 0, 43, 62
1, 132367, Note_off_c, 0, 87, 64
1, 132370, Note_off_c, 0, 41, 63
1, 132381, Note_off_c, 0, 88, 67
1, 132405, Note_off_c, 0, 40, 63
1, 132436, Note_on_c, 0, 89, 106
1, 132441, Note_on_c, 0, 81, 103
1, 132441, Note_on_c, 0, 45, 96
1, 132443, Note_on_c, 0, 86, 94
1, 132444, Note_on_c, 0, 41, 96
1, 132445, Note_on_c, 0, 38, 85
1, 132459, Control_c, 0, 64, 70
1, 132472, Note_on_c, 0, 88, 41
1, 132473, Note_off_c, 0, 88, 127
1, 132473, Note_off_c, 0, 86, 63
1, 132474, Control_c, 0, 64, 127
1, 132481, Note_off_c, 0, 81, 65
1, 132482, Note_off_c, 0, 89, 66
1, 132500, Note_off_c, 0, 41, 64
1, 132503, Note_off_c, 0, 45, 59
1, 132506, Note_off_c, 0, 38, 60
1, 132596, Note_on_c, 0, 65, 100
1, 132623, Control_c, 0, 64, 87
1, 132626, Note_off_c, 0, 65, 68
1, 132637, Control_c, 0, 64, 61
1, 132652, Control_c, 0, 64, 0
1, 132866, Note_on_c, 0, 69, 102
1, 132894, Note_off_c, 0, 69, 68
1, 133065, Note_on_c, 0, 74, 91
1, 133082, Note_off_c, 0, 74, 73
1, 133132, Note_on_c, 0, 64, 98
1, 133137, Note_on_c, 0, 77, 91
1, 133147, Note_on_c, 0, 76, 79
1, 133162, Note_off_c, 0, 64, 68
1, 133162, Note_off_c, 0, 76, 65
1, 133174, Note_off_c, 0, 77, 64
1, 133406, Note_on_c, 0, 69, 103
1, 133434, Note_off_c, 0, 69, 69
1, 133623, Note_on_c, 0, 74, 80
1, 133645, Note_off_c, 0, 74, 71
1, 133681, Note_on_c, 0, 68, 99
1, 133687, Note_on_c, 0, 77, 100
1, 133727, Note_off_c, 0, 77, 66
1, 133728, Note_off_c, 0, 68, 61
1, 133947, Note_on_c, 0, 73, 94
1, 133982, Note_off_c, 0, 73, 67
1, 134152, Note_on_c, 0, 77, 86
1, 134180, Note_off_c, 0, 77, 62
1, 134214, Note_on_c, 0, 80, 102
1, 134225, Note_on_c, 0, 60, 104
1, 134259, Note_off_c, 0, 80, 66
1, 134262, Note_off_c, 0, 60, 69
1, 134497, Note_on_c, 0, 65, 96
1, 134534, Note_off_c, 0, 65, 67
1, 134713, Note_on_c, 0, 68, 86
1, 134736, Note_off_c, 0, 68, 62
1, 134767, Note_on_c, 0, 76, 103
1, 134769, Note_on_c, 0, 72, 104
1, 134807, Note_off_c, 0, 72, 66
1, 134823, Note_off_c, 0, 76, 58
1, 134933, Note_on_c, 0, 80, 75
1, 134970, Note_on_c, 0, 81, 82
1, 134978, Note_off_c, 0, 80, 65
1, 134995, Note_on_c, 0, 83, 79
1, 135027, Note_off_c, 0, 81, 65
1, 135028, Note_on_c, 0, 84, 103
1, 135043, Note_off_c, 0, 83, 67
1, 135063, Note_off_c, 0, 84, 65
1, 135248, Note_on_c, 0, 87, 87
1, 135273, Note_off_c, 0, 87, 74
1, 135314, Note_on_c, 0, 88, 112
1, 135320, Note_on_c, 0, 58, 96
1, 135367, Note_off_c, 0, 58, 65
1, 135453, Note_off_c, 0, 88, 60
1, 135599, Note_on_c, 0, 64, 97
1, 135625, Note_off_c, 0, 64, 68
1, 135799, Note_on_c, 0, 68, 84
1, 135820, Note_off_c, 0, 68, 71
1, 135872, Note_on_c, 0, 69, 101
1, 135874, Note_on_c, 0, 76, 100
1, 135875, Note_on_c, 0, 57, 92
1, 135876, Note_on_c, 0, 73, 95
1, 135885, Control_c, 0, 64, 60
1, 135893, Note_off_c, 0, 69, 68
1, 135896, Note_off_c, 0, 57, 72
1, 135899, Control_c, 0, 64, 77
1, 135914, Control_c, 0, 64, 127
1, 135976, Note_off_c, 0, 73, 59
1, 135979, Note_off_c, 0, 76, 62
1, 135980, Note_on_c, 0, 70, 89
1, 136001, Note_off_c, 0, 70, 68
1, 136055, Control_c, 0, 64, 91
1, 136070, Control_c, 0, 64, 66
1, 136074, Note_on_c, 0, 68, 90
1, 136085, Control_c, 0, 64, 0
1, 136102, Note_off_c, 0, 68, 65
1, 136154, Note_on_c, 0, 69, 88
1, 136157, Note_on_c, 0, 73, 93
1, 136159, Note_on_c, 0, 76, 92
1, 136173, Note_off_c, 0, 69, 70
1, 136185, Note_off_c, 0, 73, 65
1, 136187, Note_off_c, 0, 76, 63
1, 136240, Note_on_c, 0, 70, 93
1, 136263, Note_off_c, 0, 70, 67
1, 136340, Note_on_c, 0, 68, 86
1, 136375, Note_off_c, 0, 68, 62
1, 136416, Note_on_c, 0, 73, 90
1, 136416, Note_on_c, 0, 76, 97
1, 136424, Note_on_c, 0, 69, 68
1, 136443, Note_off_c, 0, 73, 66
1, 136450, Note_off_c, 0, 76, 65
1, 136450, Note_off_c, 0, 69, 66
1, 136501, Note_on_c, 0, 70, 92
1, 136523, Note_off_c, 0, 70, 67
1, 136591, Note_on_c, 0, 68, 81
1, 136628, Note_off_c, 0, 68, 61
1, 136668, Note_on_c, 0, 73, 92
1, 136669, Note_on_c, 0, 76, 98
1, 136671, Note_on_c, 0, 69, 75
1, 136695, Note_off_c, 0, 69, 69
1, 136703, Note_off_c, 0, 73, 65
1, 136703, Note_off_c, 0, 76, 65
1, 136754, Note_on_c, 0, 70, 88
1, 136783, Note_off_c, 0, 70, 68
1, 136844, Note_on_c, 0, 68, 79
1, 136882, Note_off_c, 0, 68, 60
1, 136926, Note_on_c, 0, 69, 72
1, 136926, Note_on_c, 0, 73, 82
1, 136930, Note_on_c, 0, 76, 82
1, 136967, Control_c, 0, 64, 46
1, 136982, Control_c, 0, 64, 62
1, 136988, Note_off_c, 0, 69, 63
1, 136996, Control_c, 0, 64, 73
1, 137011, Control_c, 0, 64, 127
1, 137015, Note_on_c, 0, 70, 83
1, 137019, Note_on_c, 0, 65, 70
1, 137024, Note_off_c, 0, 73, 61
1, 137034, Note_off_c, 0, 76, 58
1, 137078, Note_off_c, 0, 70, 64
1, 137091, Note_off_c, 0, 65, 60
1, 137098, Note_on_c, 0, 69, 82
1, 137100, Note_on_c, 0, 64, 75
1, 137119, Note_off_c, 0, 69, 70
1, 137145, Note_off_c, 0, 64, 60
1, 137184, Note_on_c, 0, 65, 86
1, 137184, Note_on_c, 0, 69, 91
1, 137188, Note_on_c, 0, 62, 82
1, 137246, Note_off_c, 0, 62, 58
1, 137260, Note_on_c, 0, 60, 83
1, 137264, Note_on_c, 0, 64, 88
1, 137267, Note_off_c, 0, 65, 59
1, 137281, Note_off_c, 0, 69, 58
1, 137324, Note_off_c, 0, 64, 64
1, 137341, Note_on_c, 0, 58, 84
1, 137343, Note_off_c, 0, 60, 64
1, 137347, Note_on_c, 0, 62, 83
1, 137371, Note_off_c, 0, 62, 69
1, 137387, Note_off_c, 0, 58, 65
1, 137422, Note_on_c, 0, 57, 92
1, 137427, Control_c, 0, 64, 79
1, 137428, Note_on_c, 0, 61, 89
1, 137429, Note_on_c, 0, 64, 84
1, 137442, Control_c, 0, 64, 52
1, 137457, Control_c, 0, 64, 48
1, 137471, Control_c, 0, 64, 64
1, 137486, Control_c, 0, 64, 74
1, 137497, Note_off_c, 0, 57, 62
1, 137501, Control_c, 0, 64, 127
1, 137502, Note_on_c, 0, 53, 85
1, 137504, Note_on_c, 0, 58, 90
1, 137512, Note_off_c, 0, 61, 61
1, 137523, Note_off_c, 0, 64, 60
1, 137577, Note_off_c, 0, 58, 66
1, 137584, Note_on_c, 0, 52, 83
1, 137584, Note_off_c, 0, 53, 63
1, 137601, Note_on_c, 0, 57, 79
1, 137608, Note_off_c, 0, 52, 71
1, 137626, Note_off_c, 0, 57, 66
1, 137671, Control_c, 0, 64, 102
1, 137681, Note_on_c, 0, 45, 92
1, 137684, Note_on_c, 0, 49, 90
1, 137686, Control_c, 0, 64, 65
1, 137688, Note_on_c, 0, 52, 69
1, 137701, Control_c, 0, 64, 0
1, 137713, Note_on_c, 0, 53, 42
1, 137731, Control_c, 0, 64, 45
1, 137738, Note_off_c, 0, 45, 62
1, 137738, Note_off_c, 0, 53, 39
1, 137745, Control_c, 0, 64, 65
1, 137747, Note_off_c, 0, 52, 54
1, 137756, Note_on_c, 0, 41, 82
1, 137760, Control_c, 0, 64, 92
1, 137765, Note_on_c, 0, 46, 73
1, 137771, Note_off_c, 0, 49, 62
1, 137775, Control_c, 0, 64, 127
1, 137781, Note_on_c, 0, 47, 80
1, 137791, Note_off_c, 0, 46, 55
1, 137827, Note_off_c, 0, 47, 63
1, 137837, Note_off_c, 0, 41, 63
1, 137840, Note_on_c, 0, 40, 74
1, 137846, Note_on_c, 0, 45, 76
1, 137875, Note_off_c, 0, 40, 65
1, 137875, Note_off_c, 0, 45, 60
1, 137959, Note_on_c, 0, 41, 93
1, 137961, Note_on_c, 0, 38, 97
1, 137967, Control_c, 0, 64, 121
1, 137982, Control_c, 0, 64, 71
1, 137982, Note_off_c, 0, 38, 72
1, 137985, Note_off_c, 0, 41, 69
1, 137996, Control_c, 0, 64, 29
1, 138011, Control_c, 0, 64, 0
1, 138122, Note_on_c, 0, 45, 71
1, 138157, Note_off_c, 0, 45, 64
1, 138251, Note_on_c, 0, 41, 96
1, 138253, Note_on_c, 0, 38, 85
1, 138283, Note_off_c, 0, 41, 70
1, 138288, Note_off_c, 0, 38, 67
1, 138405, Note_on_c, 0, 40, 85
1, 138433, Note_off_c, 0, 40, 68
1, 138546, Note_on_c, 0, 38, 97
1, 138546, Note_on_c, 0, 41, 92
1, 138568, Note_off_c, 0, 38, 70
1, 138582, Note_off_c, 0, 41, 66
1, 138687, Note_on_c, 0, 45, 83
1, 138720, Note_off_c, 0, 45, 67
1, 138824, Note_on_c, 0, 38, 85
1, 138824, Note_on_c, 0, 43, 99
1, 138847, Note_off_c, 0, 43, 71
1, 138855, Note_off_c, 0, 38, 67
1, 138967, Note_on_c, 0, 40, 88
1, 138996, Note_off_c, 0, 40, 68
1, 139109, Note_on_c, 0, 41, 98
1, 139115, Note_on_c, 0, 38, 99
1, 139136, Note_off_c, 0, 38, 71
1, 139150, Note_off_c, 0, 41, 66
1, 139250, Note_on_c, 0, 45, 82
1, 139288, Note_off_c, 0, 45, 64
1, 139389, Note_on_c, 0, 38, 79
1, 139392, Note_on_c, 0, 41, 93
1, 139419, Note_off_c, 0, 41, 69
1, 139426, Note_off_c, 0, 38, 62
1, 139532, Note_on_c, 0, 40, 79
1, 139565, Note_off_c, 0, 40, 65
1, 139665, Note_on_c, 0, 41, 85
1, 139668, Note_on_c, 0, 38, 90
1, 139693, Note_off_c, 0, 38, 69
1, 139705, Note_off_c, 0, 41, 64
1, 139810, Note_on_c, 0, 45, 74
1, 139852, Note_off_c, 0, 45, 63
1, 139953, Note_on_c, 0, 40, 87
1, 139956, Note_on_c, 0, 38, 70
1, 139980, Note_off_c, 0, 40, 67
1, 139997, Note_off_c, 0, 38, 62
1, 140090, Note_on_c, 0, 40, 69
1, 140127, Note_off_c, 0, 40, 66
1, 140236, Note_on_c, 0, 41, 106
1, 140269, Note_on_c, 0, 38, 37
1, 140281, Note_on_c, 0, 40, 32
1, 140308, Note_off_c, 0, 38, 45
1, 140323, Note_off_c, 0, 40, 53
1, 140388, Note_on_c, 0, 40, 67
1, 140391, Note_on_c, 0, 37, 58
1, 140419, Note_off_c, 0, 40, 64
1, 140421, Note_off_c, 0, 37, 63
1, 140528, Note_on_c, 0, 52, 96
1, 140537, Note_on_c, 0, 39, 73
1, 140541, Note_on_c, 0, 36, 66
1, 140564, Note_on_c, 0, 43, 11
1, 140569, Note_off_c, 0, 39, 69
1, 140572, Note_off_c, 0, 36, 63
1, 140617, Note_off_c, 0, 43, 28
1, 140625, Note_off_c, 0, 52, 64
1, 140674, Note_on_c, 0, 38, 84
1, 140681, Note_on_c, 0, 35, 76
1, 140709, Note_off_c, 0, 38, 63
1, 140716, Note_off_c, 0, 35, 65
1, 140743, Note_on_c, 0, 50, 86
1, 140754, Note_off_c, 0, 41, 59
1, 140800, Note_on_c, 0, 53, 108
1, 140802, Note_on_c, 0, 37, 86
1, 140807, Note_on_c, 0, 34, 76
1, 140822, Note_off_c, 0, 50, 65
1, 140831, Note_off_c, 0, 37, 68
1, 140839, Note_off_c, 0, 34, 66
1, 140953, Note_on_c, 0, 35, 68
1, 140954, Note_on_c, 0, 38, 63
1, 140956, Note_on_c, 0, 41, 80
1, 140978, Note_off_c, 0, 35, 63
1, 140981, Note_off_c, 0, 41, 66
1, 140986, Note_off_c, 0, 38, 62
1, 141091, Note_on_c, 0, 36, 71
1, 141091, Note_on_c, 0, 39, 75
1, 141094, Note_on_c, 0, 41, 74
1, 141118, Note_off_c, 0, 36, 65
1, 141121, Note_off_c, 0, 39, 65
1, 141130, Note_off_c, 0, 41, 66
1, 141225, Note_on_c, 0, 41, 90
1, 141242, Note_on_c, 0, 40, 72
1, 141244, Note_on_c, 0, 37, 72
1, 141275, Note_off_c, 0, 40, 66
1, 141276, Note_off_c, 0, 41, 65
1, 141276, Note_off_c, 0, 37, 64
1, 141379, Note_on_c, 0, 41, 97
1, 141382, Note_on_c, 0, 38, 90
1, 141403, Note_on_c, 0, 52, 39
1, 141404, Note_off_c, 0, 52, 127
1, 141509, Note_off_c, 0, 38, 59
1, 141515, Note_off_c, 0, 53, 59
1, 141521, Note_on_c, 0, 40, 77
1, 141530, Note_on_c, 0, 37, 68
1, 141574, Note_off_c, 0, 37, 61
1, 141581, Note_off_c, 0, 40, 59
1, 141666, Note_on_c, 0, 52, 95
1, 141671, Note_on_c, 0, 39, 82
1, 141674, Note_on_c, 0, 36, 74
1, 141701, Note_off_c, 0, 36, 64
1, 141702, Note_off_c, 0, 39, 69
1, 141723, Note_on_c, 0, 49, 17
1, 141767, Note_off_c, 0, 49, 29
1, 141772, Note_off_c, 0, 52, 63
1, 141821, Note_on_c, 0, 38, 83
1, 141826, Note_on_c, 0, 35, 81
1, 141850, Note_off_c, 0, 38, 67
1, 141863, Note_on_c, 0, 50, 85
1, 141863, Note_off_c, 0, 35, 63
1, 141878, Note_off_c, 0, 41, 60
1, 141926, Note_on_c, 0, 53, 111
1, 141934, Note_on_c, 0, 37, 89
1, 141936, Note_on_c, 0, 34, 85
1, 141947, Note_off_c, 0, 50, 60
1, 141962, Note_off_c, 0, 37, 67
1, 141967, Note_off_c, 0, 34, 67
1, 142084, Note_on_c, 0, 38, 71
1, 142086, Note_on_c, 0, 35, 73
1, 142092, Note_on_c, 0, 41, 81
1, 142111, Note_off_c, 0, 35, 64
1, 142113, Note_off_c, 0, 38, 64
1, 142123, Note_off_c, 0, 41, 65
1, 142229, Note_on_c, 0, 39, 76
1, 142230, Note_on_c, 0, 36, 71
1, 142233, Note_on_c, 0, 41, 67
1, 142260, Note_off_c, 0, 39, 62
1, 142263, Note_off_c, 0, 36, 63
1, 142269, Note_off_c, 0, 41, 65
1, 142363, Note_on_c, 0, 41, 71
1, 142367, Note_on_c, 0, 40, 70
1, 142371, Note_on_c, 0, 37, 60
1, 142399, Note_off_c, 0, 41, 65
1, 142401, Note_off_c, 0, 37, 62
1, 142403, Note_off_c, 0, 40, 62
1, 142489, Note_off_c, 0, 53, 52
1, 142502, Note_on_c, 0, 41, 57
1, 142513, Note_on_c, 0, 38, 54
1, 142520, Control_c, 0, 64, 17
1, 142534, Control_c, 0, 64, 47
1, 142549, Control_c, 0, 64, 62
1, 142559, Note_off_c, 0, 41, 60
1, 142564, Control_c, 0, 64, 72
1, 142579, Control_c, 0, 64, 87
1, 142580, Note_on_c, 0, 52, 65
1, 142594, Control_c, 0, 64, 127
1, 142614, Note_off_c, 0, 38, 52
1, 142641, Note_off_c, 0, 52, 62
1, 142643, Note_on_c, 0, 37, 59
1, 142646, Note_on_c, 0, 40, 55
1, 142650, Note_on_c, 0, 50, 66
1, 142680, Note_off_c, 0, 37, 62
1, 142682, Note_off_c, 0, 40, 63
1, 142698, Note_off_c, 0, 50, 63
1, 142705, Note_on_c, 0, 53, 60
1, 142736, Note_off_c, 0, 53, 65
1, 142779, Control_c, 0, 64, 107
1, 142783, Note_on_c, 0, 53, 72
1, 142794, Control_c, 0, 64, 83
1, 142808, Note_on_c, 0, 35, 31
1, 142809, Note_on_c, 0, 36, 31
1, 142809, Control_c, 0, 64, 70
1, 142813, Note_on_c, 0, 38, 21
1, 142818, Note_off_c, 0, 53, 59
1, 142823, Control_c, 0, 64, 66
1, 142838, Control_c, 0, 64, 69
1, 142847, Note_on_c, 0, 64, 73
1, 142850, Note_off_c, 0, 36, 44
1, 142851, Note_off_c, 0, 35, 41
1, 142853, Control_c, 0, 64, 74
1, 142855, Note_off_c, 0, 38, 39
1, 142868, Control_c, 0, 64, 80
1, 142883, Control_c, 0, 64, 95
1, 142898, Control_c, 0, 64, 127
1, 142904, Note_on_c, 0, 62, 73
1, 142908, Note_off_c, 0, 64, 62
1, 142922, Note_on_c, 0, 38, 55
1, 142943, Note_on_c, 0, 35, 41
1, 142952, Note_on_c, 0, 65, 74
1, 142957, Note_off_c, 0, 38, 63
1, 142963, Note_off_c, 0, 62, 63
1, 142980, Note_off_c, 0, 65, 66
1, 142984, Note_off_c, 0, 35, 49
1, 143017, Control_c, 0, 64, 85
1, 143025, Note_on_c, 0, 37, 77
1, 143026, Note_on_c, 0, 65, 83
1, 143029, Note_on_c, 0, 34, 71
1, 143032, Control_c, 0, 64, 63
1, 143047, Control_c, 0, 64, 47
1, 143062, Control_c, 0, 64, 56
1, 143077, Control_c, 0, 64, 64
1, 143089, Note_on_c, 0, 76, 82
1, 143090, Note_off_c, 0, 65, 57
1, 143091, Control_c, 0, 64, 71
1, 143106, Control_c, 0, 64, 92
1, 143121, Control_c, 0, 64, 127
1, 143144, Note_on_c, 0, 35, 64
1, 143145, Note_on_c, 0, 74, 83
1, 143145, Note_off_c, 0, 37, 57
1, 143147, Note_on_c, 0, 38, 69
1, 143150, Note_off_c, 0, 34, 36
1, 143179, Note_off_c, 0, 35, 61
1, 143189, Note_off_c, 0, 76, 51
1, 143192, Note_off_c, 0, 38, 64
1, 143205, Note_on_c, 0, 77, 85
1, 143222, Note_off_c, 0, 74, 65
1, 143239, Control_c, 0, 64, 99
1, 143241, Note_off_c, 0, 77, 62
1, 143254, Control_c, 0, 64, 69
1, 143269, Control_c, 0, 64, 44
1, 143277, Note_on_c, 0, 36, 78
1, 143279, Note_on_c, 0, 39, 80
1, 143283, Control_c, 0, 64, 0
1, 143294, Note_on_c, 0, 77, 71
1, 143298, Control_c, 0, 64, 47
1, 143304, Note_on_c, 0, 79, 61
1, 143313, Control_c, 0, 64, 67
1, 143328, Control_c, 0, 64, 97
1, 143343, Control_c, 0, 64, 127
1, 143344, Note_off_c, 0, 77, 55
1, 143348, Note_on_c, 0, 88, 86
1, 143351, Note_off_c, 0, 79, 57
1, 143396, Note_on_c, 0, 40, 71
1, 143398, Note_on_c, 0, 37, 71
1, 143411, Note_on_c, 0, 86, 78
1, 143413, Note_off_c, 0, 36, 60
1, 143414, Note_off_c, 0, 39, 38
1, 143424, Note_off_c, 0, 88, 57
1, 143435, Note_off_c, 0, 40, 66
1, 143452, Note_off_c, 0, 37, 59
1, 143464, Note_off_c, 0, 86, 65
1, 143472, Note_on_c, 0, 91, 70
1, 143476, Control_c, 0, 64, 80
1, 143485, Note_on_c, 0, 89, 48
1, 143487, Note_off_c, 0, 91, 66
1, 143491, Control_c, 0, 64, 51
1, 143513, Control_c, 0, 64, 0
1, 143525, Note_off_c, 0, 89, 0
1, 143525, Note_on_c, 0, 89, 54
1, 143536, Note_on_c, 0, 41, 79
1, 143548, Note_on_c, 0, 38, 67
1, 143558, Control_c, 0, 64, 48
1, 143572, Control_c, 0, 64, 68
1, 143585, Note_on_c, 0, 82, 84
1, 143587, Control_c, 0, 64, 92
1, 143589, Note_off_c, 0, 89, 65
1, 143602, Control_c, 0, 64, 127
1, 143647, Note_off_c, 0, 41, 63
1, 143652, Note_on_c, 0, 40, 68
1, 143655, Note_on_c, 0, 83, 80
1, 143660, Note_on_c, 0, 37, 67
1, 143662, Note_off_c, 0, 38, 59
1, 143685, Note_off_c, 0, 40, 64
1, 143691, Note_off_c, 0, 82, 63
1, 143697, Note_off_c, 0, 37, 62
1, 143699, Note_off_c, 0, 83, 66
1, 143712, Note_on_c, 0, 77, 80
1, 143735, Note_off_c, 0, 77, 69
1, 143786, Note_on_c, 0, 39, 84
1, 143792, Note_on_c, 0, 36, 73
1, 143796, Note_on_c, 0, 79, 76
1, 143802, Note_on_c, 0, 77, 79
1, 143823, Note_off_c, 0, 36, 63
1, 143849, Note_off_c, 0, 39, 59
1, 143860, Note_on_c, 0, 70, 65
1, 143864, Note_off_c, 0, 79, 64
1, 143870, Note_on_c, 0, 71, 78
1, 143880, Note_off_c, 0, 77, 61
1, 143899, Note_off_c, 0, 70, 42
1, 143908, Note_on_c, 0, 72, 73
1, 143918, Note_on_c, 0, 38, 76
1, 143927, Note_on_c, 0, 35, 70
1, 143940, Note_off_c, 0, 71, 62
1, 143959, Note_off_c, 0, 72, 64
1, 143965, Note_on_c, 0, 65, 72
1, 143990, Note_off_c, 0, 65, 68
1, 143997, Note_off_c, 0, 38, 57
1, 144006, Note_off_c, 0, 35, 56
1, 144017, Control_c, 0, 64, 97
1, 144032, Control_c, 0, 64, 66
1, 144042, Note_on_c, 0, 66, 91
1, 144044, Note_on_c, 0, 34, 74
1, 144045, Note_on_c, 0, 37, 81
1, 144047, Control_c, 0, 64, 21
1, 144061, Control_c, 0, 64, 45
1, 144076, Control_c, 0, 64, 64
1, 144091, Control_c, 0, 64, 77
1, 144102, Note_on_c, 0, 59, 85
1, 144106, Control_c, 0, 64, 127
1, 144134, Note_off_c, 0, 66, 59
1, 144140, Note_off_c, 0, 34, 0
1, 144146, Poly_aftertouch_c, 0, 63, 0
1, 144147, Note_off_c, 0, 37, 60
1, 144156, Note_on_c, 0, 34, 55
1, 144163, Note_on_c, 0, 60, 70
1, 144177, Note_on_c, 0, 38, 68
1, 144186, Note_off_c, 0, 59, 65
1, 144207, Note_off_c, 0, 38, 63
1, 144208, Note_on_c, 0, 54, 87
1, 144209, Note_off_c, 0, 34, 61
1, 144215, Note_off_c, 0, 60, 63
1, 144231, Note_off_c, 0, 54, 71
1, 144300, Note_on_c, 0, 53, 92
1, 144304, Note_on_c, 0, 39, 85
1, 144305, Note_on_c, 0, 36, 74
1, 144306, Control_c, 0, 64, 87
1, 144320, Control_c, 0, 64, 55
1, 144328, Note_on_c, 0, 52, 59
1, 144332, Note_off_c, 0, 39, 65
1, 144335, Control_c, 0, 64, 0
1, 144336, Note_off_c, 0, 36, 64
1, 144356, Note_off_c, 0, 52, 40
1, 144368, Note_on_c, 0, 46, 87
1, 144372, Note_off_c, 0, 53, 66
1, 144436, Note_on_c, 0, 38, 77
1, 144439, Note_on_c, 0, 47, 76
1, 144446, Note_on_c, 0, 35, 72
1, 144466, Note_off_c, 0, 38, 63
1, 144475, Note_off_c, 0, 35, 62
1, 144482, Note_off_c, 0, 46, 63
1, 144499, Note_on_c, 0, 41, 77
1, 144511, Note_off_c, 0, 47, 62
1, 144527, Note_off_c, 0, 41, 66
1, 144567, Note_on_c, 0, 48, 100
1, 144573, Note_on_c, 0, 41, 94
1, 144576, Note_on_c, 0, 33, 85
1, 144576, Note_on_c, 0, 36, 91
1, 144617, Control_c, 0, 64, 53
1, 144632, Control_c, 0, 64, 67
1, 144634, Note_off_c, 0, 41, 65
1, 144647, Control_c, 0, 64, 80
1, 144661, Control_c, 0, 64, 127
1, 144681, Note_off_c, 0, 48, 62
1, 144722, Note_on_c, 0, 35, 69
1, 144724, Note_off_c, 0, 36, 57
1, 144726, Note_on_c, 0, 32, 67
1, 144732, Note_off_c, 0, 33, 60
1, 144752, Note_off_c, 0, 35, 63
1, 144766, Note_off_c, 0, 32, 62
1, 144868, Note_on_c, 0, 34, 87
1, 144868, Note_on_c, 0, 59, 105
1, 144871, Note_on_c, 0, 31, 77
1, 144898, Control_c, 0, 64, 90
1, 144901, Note_off_c, 0, 59, 68
1, 144902, Note_off_c, 0, 31, 65
1, 144902, Note_off_c, 0, 34, 63
1, 144913, Control_c, 0, 64, 70
1, 144928, Control_c, 0, 64, 50
1, 144943, Control_c, 0, 64, 0
1, 145017, Note_on_c, 0, 33, 84
1, 145026, Note_on_c, 0, 30, 75
1, 145056, Note_off_c, 0, 33, 62
1, 145071, Note_off_c, 0, 30, 61
1, 145086, Note_on_c, 0, 57, 94
1, 145139, Note_off_c, 0, 57, 0
1, 145142, Note_on_c, 0, 60, 102
1, 145150, Note_on_c, 0, 29, 83
1, 145150, Note_on_c, 0, 32, 86
1, 145169, Poly_aftertouch_c, 0, 57, 0
1, 145172, Control_c, 0, 64, 48
1, 145175, Note_off_c, 0, 60, 67
1, 145180, Note_off_c, 0, 32, 66
1, 145187, Note_off_c, 0, 29, 65
1, 145187, Control_c, 0, 64, 73
1, 145202, Control_c, 0, 64, 102
1, 145217, Control_c, 0, 64, 127
1, 145291, Note_on_c, 0, 49, 81
1, 145296, Note_on_c, 0, 33, 78
1, 145300, Note_on_c, 0, 41, 74
1, 145303, Note_on_c, 0, 30, 74
1, 145316, Note_off_c, 0, 49, 69
1, 145322, Note_on_c, 0, 50, 46
1, 145326, Note_on_c, 0, 48, 39
1, 145328, Note_off_c, 0, 33, 63
1, 145330, Note_off_c, 0, 41, 66
1, 145334, Note_off_c, 0, 30, 64
1, 145352, Note_off_c, 0, 50, 55
1, 145357, Note_off_c, 0, 48, 53
1, 145411, Control_c, 0, 64, 101
1, 145426, Control_c, 0, 64, 69
1, 145430, Note_on_c, 0, 41, 76
1, 145432, Note_on_c, 0, 48, 89
1, 145433, Note_on_c, 0, 34, 84
1, 145437, Note_on_c, 0, 31, 72
1, 145440, Control_c, 0, 64, 0
1, 145455, Note_off_c, 0, 48, 68
1, 145461, Note_off_c, 0, 41, 65
1, 145464, Note_off_c, 0, 34, 68
1, 145470, Note_on_c, 0, 47, 26
1, 145471, Note_off_c, 0, 47, 127
1, 145471, Note_off_c, 0, 31, 65
1, 145568, Note_on_c, 0, 48, 96
1, 145572, Note_on_c, 0, 41, 77
1, 145574, Note_on_c, 0, 35, 78
1, 145578, Note_on_c, 0, 32, 74
1, 145600, Note_off_c, 0, 41, 66
1, 145604, Note_off_c, 0, 48, 58
1, 145606, Note_off_c, 0, 35, 67
1, 145619, Note_off_c, 0, 32, 62
1, 145721, Note_on_c, 0, 48, 105
1, 145721, Note_on_c, 0, 36, 94
1, 145724, Note_on_c, 0, 33, 88
1, 145724, Note_on_c, 0, 41, 89
1, 145756, Note_off_c, 0, 41, 70
1, 145758, Control_c, 0, 64, 16
1, 145773, Control_c, 0, 64, 60
1, 145788, Control_c, 0, 64, 69
1, 145803, Control_c, 0, 64, 84
1, 145809, Note_off_c, 0, 48, 66
1, 145818, Control_c, 0, 64, 127
1, 145867, Note_on_c, 0, 35, 73
1, 145870, Note_on_c, 0, 32, 73
1, 145873, Note_off_c, 0, 36, 62
1, 145884, Note_off_c, 0, 33, 61
1, 145899, Note_off_c, 0, 35, 62
1, 145913, Note_off_c, 0, 32, 61
1, 146008, Note_on_c, 0, 59, 100
1, 146014, Note_on_c, 0, 34, 87
1, 146016, Note_on_c, 0, 31, 81
1, 146025, Control_c, 0, 64, 103
1, 146040, Control_c, 0, 64, 70
1, 146046, Note_off_c, 0, 34, 63
1, 146048, Note_off_c, 0, 31, 65
1, 146049, Note_off_c, 0, 59, 68
1, 146055, Control_c, 0, 64, 31
1, 146069, Control_c, 0, 64, 0
1, 146156, Note_on_c, 0, 33, 83
1, 146165, Note_on_c, 0, 31, 56
1, 146198, Note_off_c, 0, 33, 60
1, 146204, Note_off_c, 0, 31, 64
1, 146221, Note_on_c, 0, 57, 91
1, 146251, Note_off_c, 0, 57, 65
1, 146283, Note_on_c, 0, 60, 104
1, 146292, Note_on_c, 0, 29, 86
1, 146292, Note_on_c, 0, 32, 88
1, 146313, Note_off_c, 0, 60, 66
1, 146323, Control_c, 0, 64, 60
1, 146338, Control_c, 0, 64, 85
1, 146342, Note_off_c, 0, 32, 60
1, 146345, Note_off_c, 0, 29, 59
1, 146353, Control_c, 0, 64, 127
1, 146435, Note_on_c, 0, 48, 89
1, 146436, Note_on_c, 0, 33, 78
1, 146438, Note_on_c, 0, 41, 79
1, 146441, Note_on_c, 0, 30, 75
1, 146457, Note_off_c, 0, 48, 69
1, 146463, Note_off_c, 0, 41, 66
1, 146469, Note_off_c, 0, 33, 63
1, 146470, Note_off_c, 0, 30, 66
1, 146579, Note_on_c, 0, 41, 72
1, 146579, Note_on_c, 0, 31, 79
1, 146580, Note_on_c, 0, 48, 82
1, 146582, Control_c, 0, 64, 70
1, 146582, Note_on_c, 0, 34, 85
1, 146597, Control_c, 0, 64, 0
1, 146609, Note_off_c, 0, 48, 67
1, 146610, Note_off_c, 0, 41, 66
1, 146616, Note_off_c, 0, 34, 65
1, 146618, Note_off_c, 0, 31, 64
1, 146716, Note_on_c, 0, 48, 91
1, 146717, Note_on_c, 0, 35, 81
1, 146721, Note_on_c, 0, 41, 77
1, 146722, Note_on_c, 0, 32, 75
1, 146749, Note_off_c, 0, 41, 66
1, 146750, Note_off_c, 0, 35, 66
1, 146753, Note_off_c, 0, 48, 57
1, 146759, Note_off_c, 0, 32, 64
1, 146847, Note_on_c, 0, 48, 89
1, 146854, Note_on_c, 0, 41, 56
1, 146857, Note_on_c, 0, 36, 82
1, 146861, Note_on_c, 0, 33, 77
1, 146885, Note_off_c, 0, 48, 60
1, 146886, Note_off_c, 0, 41, 65
1, 146893, Control_c, 0, 64, 37
1, 146907, Control_c, 0, 64, 62
1, 146922, Control_c, 0, 64, 70
1, 146937, Control_c, 0, 64, 85
1, 146952, Control_c, 0, 64, 127
1, 146988, Note_on_c, 0, 59, 71
1, 147025, Note_on_c, 0, 32, 52
1, 147027, Note_off_c, 0, 36, 60
1, 147028, Note_on_c, 0, 35, 55
1, 147038, Note_off_c, 0, 33, 58
1, 147054, Note_on_c, 0, 57, 75
1, 147056, Note_off_c, 0, 59, 60
1, 147062, Note_off_c, 0, 35, 61
1, 147065, Note_off_c, 0, 32, 59
1, 147102, Note_on_c, 0, 60, 63
1, 147107, Note_off_c, 0, 57, 63
1, 147133, Note_off_c, 0, 60, 66
1, 147167, Note_on_c, 0, 31, 67
1, 147169, Note_on_c, 0, 34, 69
1, 147175, Note_on_c, 0, 60, 73
1, 147200, Note_off_c, 0, 31, 63
1, 147203, Note_off_c, 0, 34, 62
1, 147235, Note_off_c, 0, 60, 60
1, 147260, Note_on_c, 0, 71, 66
1, 147285, Note_on_c, 0, 69, 35
1, 147301, Note_on_c, 0, 33, 68
1, 147311, Note_on_c, 0, 30, 66
1, 147339, Note_off_c, 0, 33, 62
1, 147343, Note_off_c, 0, 71, 48
1, 147345, Note_off_c, 0, 30, 63
1, 147360, Note_on_c, 0, 72, 74
1, 147369, Note_off_c, 0, 69, 63
1, 147386, Note_off_c, 0, 72, 67
1, 147405, Control_c, 0, 64, 90
1, 147420, Control_c, 0, 64, 64
1, 147422, Note_on_c, 0, 29, 77
1, 147422, Note_on_c, 0, 32, 81
1, 147428, Note_on_c, 0, 72, 88
1, 147435, Control_c, 0, 64, 28
1, 147450, Control_c, 0, 64, 23
1, 147464, Control_c, 0, 64, 47
1, 147479, Control_c, 0, 64, 58
1, 147488, Note_off_c, 0, 72, 57
1, 147494, Control_c, 0, 64, 68
1, 147497, Note_on_c, 0, 83, 89
1, 147509, Control_c, 0, 64, 97
1, 147524, Control_c, 0, 64, 127
1, 147549, Note_on_c, 0, 33, 72
1, 147551, Note_on_c, 0, 30, 72
1, 147551, Note_off_c, 0, 32, 56
1, 147554, Note_on_c, 0, 81, 87
1, 147558, Note_off_c, 0, 29, 61
1, 147590, Note_off_c, 0, 33, 63
1, 147593, Note_off_c, 0, 30, 64
1, 147604, Note_on_c, 0, 84, 85
1, 147608, Note_off_c, 0, 83, 63
1, 147614, Note_off_c, 0, 81, 67
1, 147630, Note_off_c, 0, 84, 65
1, 147656, Control_c, 0, 64, 107
1, 147671, Control_c, 0, 64, 72
1, 147674, Note_on_c, 0, 31, 79
1, 147677, Note_on_c, 0, 34, 81
1, 147686, Control_c, 0, 64, 42
1, 147688, Note_on_c, 0, 84, 89
1, 147701, Control_c, 0, 64, 0
1, 147716, Control_c, 0, 64, 26
1, 147730, Control_c, 0, 64, 58
1, 147741, Note_off_c, 0, 84, 60
1, 147745, Control_c, 0, 64, 75
1, 147750, Note_on_c, 0, 95, 95
1, 147760, Control_c, 0, 64, 127
1, 147806, Note_off_c, 0, 34, 38
1, 147808, Note_on_c, 0, 32, 68
1, 147808, Note_on_c, 0, 35, 70
1, 147811, Note_on_c, 0, 93, 88
1, 147813, Note_off_c, 0, 31, 60
1, 147827, Note_off_c, 0, 95, 65
1, 147849, Note_off_c, 0, 35, 62
1, 147856, Note_off_c, 0, 32, 60
1, 147879, Note_on_c, 0, 96, 87
1, 147879, Note_off_c, 0, 93, 67
1, 147899, Note_off_c, 0, 96, 71
1, 147909, Control_c, 0, 64, 70
1, 147924, Control_c, 0, 64, 0
1, 147945, Note_on_c, 0, 96, 96
1, 147950, Note_on_c, 0, 36, 75
1, 147953, Note_on_c, 0, 33, 76
1, 147968, Control_c, 0, 64, 26
1, 147983, Control_c, 0, 64, 63
1, 147987, Note_off_c, 0, 36, 67
1, 147990, Note_off_c, 0, 96, 65
1, 147992, Note_off_c, 0, 33, 64
1, 148006, Control_c, 0, 64, 81
1, 148021, Control_c, 0, 64, 127
1, 148022, Note_on_c, 0, 84, 78
1, 148049, Note_off_c, 0, 84, 65
1, 148076, Note_on_c, 0, 35, 65
1, 148076, Note_on_c, 0, 96, 91
1, 148079, Note_on_c, 0, 32, 75
1, 148111, Note_off_c, 0, 35, 62
1, 148111, Note_off_c, 0, 32, 64
1, 148112, Note_off_c, 0, 96, 65
1, 148164, Note_on_c, 0, 96, 78
1, 148188, Note_off_c, 0, 96, 69
1, 148213, Control_c, 0, 64, 73
1, 148225, Note_on_c, 0, 96, 100
1, 148228, Note_on_c, 0, 36, 89
1, 148228, Control_c, 0, 64, 47
1, 148234, Note_on_c, 0, 33, 81
1, 148243, Control_c, 0, 64, 0
1, 148257, Control_c, 0, 64, 56
1, 148268, Note_off_c, 0, 33, 65
1, 148269, Note_off_c, 0, 36, 64
1, 148269, Note_off_c, 0, 96, 65
1, 148272, Control_c, 0, 64, 68
1, 148287, Control_c, 0, 64, 92
1, 148302, Control_c, 0, 64, 127
1, 148304, Note_on_c, 0, 95, 95
1, 148334, Note_on_c, 0, 35, 78
1, 148337, Note_on_c, 0, 32, 77
1, 148342, Note_off_c, 0, 95, 65
1, 148362, Note_off_c, 0, 35, 63
1, 148365, Note_off_c, 0, 32, 64
1, 148381, Note_on_c, 0, 96, 90
1, 148409, Note_off_c, 0, 96, 63
1, 148457, Note_on_c, 0, 96, 93
1, 148478, Control_c, 0, 64, 109
1, 148493, Control_c, 0, 64, 68
1, 148495, Note_off_c, 0, 96, 67
1, 148502, Note_on_c, 0, 36, 90
1, 148507, Note_on_c, 0, 33, 80
1, 148508, Control_c, 0, 64, 0
1, 148534, Note_on_c, 0, 96, 72
1, 148538, Control_c, 0, 64, 43
1, 148547, Note_on_c, 0, 84, 86
1, 148550, Note_on_c, 0, 95, 64
1, 148553, Control_c, 0, 64, 63
1, 148566, Note_off_c, 0, 96, 66
1, 148567, Note_off_c, 0, 95, 61
1, 148567, Control_c, 0, 64, 84
1, 148580, Note_off_c, 0, 33, 61
1, 148582, Control_c, 0, 64, 127
1, 148589, Note_off_c, 0, 36, 58
1, 148597, Note_off_c, 0, 84, 58
1, 148621, Note_on_c, 0, 35, 73
1, 148622, Note_on_c, 0, 96, 81
1, 148627, Note_on_c, 0, 32, 76
1, 148637, Note_on_c, 0, 95, 66
1, 148645, Note_off_c, 0, 96, 71
1, 148649, Note_off_c, 0, 35, 62
1, 148653, Note_off_c, 0, 95, 64
1, 148657, Note_off_c, 0, 32, 64
1, 148690, Note_on_c, 0, 96, 89
1, 148731, Note_off_c, 0, 96, 64
1, 148754, Control_c, 0, 64, 113
1, 148769, Control_c, 0, 64, 69
1, 148773, Note_on_c, 0, 96, 85
1, 148783, Control_c, 0, 64, 0
1, 148785, Note_on_c, 0, 36, 84
1, 148790, Note_on_c, 0, 33, 79
1, 148821, Note_off_c, 0, 96, 66
1, 148828, Control_c, 0, 64, 49
1, 148843, Control_c, 0, 64, 70
1, 148850, Note_on_c, 0, 95, 95
1, 148855, Note_on_c, 0, 96, 47
1, 148857, Control_c, 0, 64, 127
1, 148880, Note_off_c, 0, 96, 55
1, 148891, Note_off_c, 0, 95, 65
1, 148892, Note_on_c, 0, 35, 67
1, 148893, Note_off_c, 0, 36, 62
1, 148895, Note_off_c, 0, 33, 60
1, 148897, Note_on_c, 0, 32, 67
1, 148920, Note_off_c, 0, 35, 61
1, 148925, Note_off_c, 0, 32, 64
1, 148931, Note_on_c, 0, 96, 104
1, 148941, Note_on_c, 0, 95, 43
1, 148967, Note_off_c, 0, 95, 55
1, 148967, Note_off_c, 0, 96, 67
1, 149013, Note_on_c, 0, 96, 88
1, 149033, Note_off_c, 0, 96, 71
1, 149140, Note_on_c, 0, 36, 51
1, 149147, Note_on_c, 0, 33, 69
1, 149179, Note_on_c, 0, 72, 101
1, 149198, Control_c, 0, 64, 75
1, 149213, Control_c, 0, 64, 47
1, 149228, Control_c, 0, 64, 0
1, 149272, Control_c, 0, 64, 39
1, 149287, Control_c, 0, 64, 61
1, 149299, Note_off_c, 0, 36, 60
1, 149301, Control_c, 0, 64, 73
1, 149304, Note_off_c, 0, 33, 60
1, 149316, Control_c, 0, 64, 103
1, 149330, Note_on_c, 0, 73, 67
1, 149331, Control_c, 0, 64, 127
1, 149349, Note_off_c, 0, 72, 60
1, 149399, Note_off_c, 0, 73, 64
1, 149417, Note_on_c, 0, 41, 64
1, 149425, Note_on_c, 0, 33, 61
1, 149429, Note_on_c, 0, 36, 50
1, 149432, Note_on_c, 0, 72, 70
1, 149447, Note_off_c, 0, 41, 65
1, 149453, Note_off_c, 0, 36, 62
1, 149456, Note_off_c, 0, 33, 64
1, 149474, Note_off_c, 0, 72, 53
1, 149480, Control_c, 0, 64, 86
1, 149502, Note_on_c, 0, 73, 69
1, 149503, Control_c, 0, 64, 68
1, 149518, Control_c, 0, 64, 48
1, 149532, Control_c, 0, 64, 0
1, 149544, Note_off_c, 0, 73, 63
1, 149572, Note_on_c, 0, 41, 65
1, 149574, Note_on_c, 0, 33, 57
1, 149575, Note_on_c, 0, 36, 52
1, 149578, Note_on_c, 0, 72, 74
1, 149599, Note_off_c, 0, 41, 65
1, 149605, Note_off_c, 0, 36, 63
1, 149606, Note_off_c, 0, 33, 62
1, 149613, Note_off_c, 0, 72, 59
1, 149638, Note_on_c, 0, 73, 72
1, 149673, Note_off_c, 0, 73, 62
1, 149704, Note_on_c, 0, 41, 66
1, 149710, Note_on_c, 0, 72, 75
1, 149711, Note_on_c, 0, 36, 58
1, 149714, Note_on_c, 0, 33, 58
1, 149731, Note_off_c, 0, 41, 66
1, 149743, Note_off_c, 0, 36, 64
1, 149746, Note_off_c, 0, 33, 62
1, 149746, Note_off_c, 0, 72, 60
1, 149774, Note_on_c, 0, 73, 71
1, 149808, Note_off_c, 0, 73, 60
1, 149843, Note_on_c, 0, 41, 68
1, 149843, Note_on_c, 0, 72, 75
1, 149853, Note_on_c, 0, 33, 62
1, 149853, Note_on_c, 0, 36, 59
1, 149874, Note_off_c, 0, 41, 65
1, 149885, Note_off_c, 0, 36, 62
1, 149886, Note_off_c, 0, 33, 64
1, 149888, Note_off_c, 0, 72, 58
1, 149909, Note_on_c, 0, 73, 72
1, 149939, Note_off_c, 0, 73, 62
1, 149979, Note_on_c, 0, 41, 72
1, 149980, Note_on_c, 0, 72, 69
1, 149986, Note_on_c, 0, 36, 60
1, 149989, Note_on_c, 0, 33, 62
1, 150011, Note_off_c, 0, 41, 65
1, 150014, Note_off_c, 0, 72, 62
1, 150014, Note_off_c, 0, 36, 64
1, 150019, Note_off_c, 0, 33, 63
1, 150039, Note_on_c, 0, 73, 68
1, 150067, Note_off_c, 0, 73, 66
1, 150107, Note_on_c, 0, 72, 58
1, 150112, Note_on_c, 0, 41, 68
1, 150117, Note_on_c, 0, 36, 60
1, 150119, Note_on_c, 0, 33, 61
1, 150127, Note_off_c, 0, 72, 65
1, 150134, Note_on_c, 0, 73, 77
1, 150144, Note_off_c, 0, 41, 65
1, 150150, Note_off_c, 0, 33, 64
1, 150154, Note_off_c, 0, 36, 64
1, 150169, Note_off_c, 0, 73, 63
1, 150198, Note_on_c, 0, 72, 64
1, 150213, Note_on_c, 0, 74, 70
1, 150216, Note_off_c, 0, 72, 65
1, 150233, Note_on_c, 0, 73, 26
1, 150261, Note_on_c, 0, 75, 84
1, 150265, Note_off_c, 0, 73, 46
1, 150270, Note_on_c, 0, 41, 70
1, 150274, Note_on_c, 0, 36, 64
1, 150277, Note_off_c, 0, 74, 62
1, 150281, Note_on_c, 0, 33, 55
1, 150305, Note_off_c, 0, 41, 65
1, 150306, Note_on_c, 0, 74, 67
1, 150315, Note_off_c, 0, 36, 64
1, 150321, Note_off_c, 0, 33, 63
1, 150344, Note_on_c, 0, 73, 85
1, 150365, Note_off_c, 0, 75, 61
1, 150400, Note_off_c, 0, 74, 64
1, 150409, Note_on_c, 0, 41, 81
1, 150410, Note_on_c, 0, 72, 92
1, 150412, Note_on_c, 0, 33, 83
1, 150415, Note_on_c, 0, 36, 72
1, 150422, Note_off_c, 0, 73, 65
1, 150430, Control_c, 0, 64, 51
1, 150445, Control_c, 0, 64, 66
1, 150460, Control_c, 0, 64, 80
1, 150466, Note_off_c, 0, 41, 64
1, 150475, Control_c, 0, 64, 127
1, 150489, Note_off_c, 0, 72, 61
1, 150495, Note_off_c, 0, 36, 60
1, 150499, Note_on_c, 0, 73, 72
1, 150548, Control_c, 0, 64, 104
1, 150558, Note_off_c, 0, 73, 64
1, 150563, Control_c, 0, 64, 76
1, 150571, Note_on_c, 0, 42, 70
1, 150571, Note_off_c, 0, 33, 62
1, 150578, Control_c, 0, 64, 54
1, 150580, Note_on_c, 0, 37, 52
1, 150585, Note_on_c, 0, 34, 56
1, 150588, Note_on_c, 0, 72, 63
1, 150593, Control_c, 0, 64, 0
1, 150602, Note_off_c, 0, 42, 65
1, 150615, Note_off_c, 0, 37, 63
1, 150615, Note_off_c, 0, 72, 64
1, 150618, Note_off_c, 0, 34, 62
1, 150654, Note_on_c, 0, 73, 62
1, 150686, Note_off_c, 0, 73, 66
1, 150708, Note_on_c, 0, 42, 73
1, 150711, Note_on_c, 0, 72, 68
1, 150715, Note_on_c, 0, 37, 64
1, 150716, Note_on_c, 0, 34, 57
1, 150739, Note_off_c, 0, 42, 64
1, 150744, Note_off_c, 0, 37, 63
1, 150747, Note_off_c, 0, 34, 61
1, 150748, Note_off_c, 0, 72, 59
1, 150773, Note_on_c, 0, 73, 75
1, 150817, Note_off_c, 0, 73, 60
1, 150839, Note_on_c, 0, 42, 85
1, 150843, Note_on_c, 0, 72, 76
1, 150844, Note_on_c, 0, 37, 68
1, 150845, Note_on_c, 0, 34, 67
1, 150872, Note_off_c, 0, 42, 67
1, 150875, Note_off_c, 0, 37, 65
1, 150878, Note_off_c, 0, 34, 62
1, 150888, Note_off_c, 0, 72, 58
1, 150903, Note_on_c, 0, 73, 81
1, 150958, Note_off_c, 0, 73, 62
1, 150969, Note_on_c, 0, 42, 97
1, 150974, Note_on_c, 0, 37, 72
1, 150976, Note_on_c, 0, 34, 73
1, 150976, Note_on_c, 0, 72, 78
1, 150993, Control_c, 0, 64, 61
1, 151016, Control_c, 0, 64, 79
1, 151031, Control_c, 0, 64, 127
1, 151036, Note_off_c, 0, 72, 59
1, 151042, Note_off_c, 0, 34, 56
1, 151045, Note_off_c, 0, 37, 61
1, 151047, Note_on_c, 0, 73, 80
1, 151047, Note_off_c, 0, 42, 61
1, 151098, Note_off_c, 0, 73, 63
1, 151114, Note_on_c, 0, 43, 82
1, 151116, Note_on_c, 0, 72, 80
1, 151125, Note_on_c, 0, 35, 65
1, 151132, Note_on_c, 0, 38, 54
1, 151134, Control_c, 0, 64, 72
1, 151144, Note_off_c, 0, 43, 67
1, 151149, Control_c, 0, 64, 34
1, 151158, Note_off_c, 0, 35, 62
1, 151162, Note_off_c, 0, 38, 56
1, 151164, Control_c, 0, 64, 0
1, 151167, Note_off_c, 0, 72, 62
1, 151173, Note_on_c, 0, 73, 74
1, 151210, Note_off_c, 0, 73, 58
1, 151238, Note_on_c, 0, 72, 67
1, 151250, Note_on_c, 0, 43, 79
1, 151254, Note_on_c, 0, 38, 67
1, 151255, Note_on_c, 0, 35, 68
1, 151265, Note_off_c, 0, 72, 65
1, 151266, Note_on_c, 0, 73, 72
1, 151286, Note_off_c, 0, 43, 64
1, 151289, Note_off_c, 0, 38, 63
1, 151295, Note_off_c, 0, 35, 62
1, 151319, Note_off_c, 0, 73, 63
1, 151336, Note_on_c, 0, 72, 73
1, 151350, Note_on_c, 0, 73, 68
1, 151362, Note_off_c, 0, 72, 66
1, 151375, Note_on_c, 0, 74, 68
1, 151381, Note_on_c, 0, 43, 87
1, 151385, Note_on_c, 0, 38, 67
1, 151390, Note_on_c, 0, 35, 70
1, 151408, Note_off_c, 0, 74, 63
1, 151411, Note_on_c, 0, 75, 81
1, 151417, Note_off_c, 0, 73, 58
1, 151423, Note_off_c, 0, 43, 61
1, 151429, Note_off_c, 0, 35, 64
1, 151439, Note_off_c, 0, 38, 59
1, 151465, Note_on_c, 0, 74, 82
1, 151477, Note_on_c, 0, 73, 87
1, 151505, Note_off_c, 0, 75, 62
1, 151521, Note_on_c, 0, 43, 93
1, 151524, Note_on_c, 0, 35, 83
1, 151529, Note_on_c, 0, 38, 81
1, 151530, Note_on_c, 0, 72, 94
1, 151534, Note_off_c, 0, 74, 65
1, 151549, Control_c, 0, 64, 50
1, 151551, Note_off_c, 0, 73, 65
1, 151564, Control_c, 0, 64, 65
1, 151578, Control_c, 0, 64, 76
1, 151591, Note_off_c, 0, 43, 63
1, 151593, Control_c, 0, 64, 107
1, 151608, Control_c, 0, 64, 127
1, 151632, Note_off_c, 0, 72, 64
1, 151633, Note_on_c, 0, 73, 77
1, 151645, Note_off_c, 0, 38, 58
1, 151681, Note_off_c, 0, 35, 50
1, 151685, Note_on_c, 0, 44, 81
1, 151690, Note_on_c, 0, 36, 66
1, 151691, Note_off_c, 0, 73, 63
1, 151694, Note_on_c, 0, 39, 67
1, 151705, Note_on_c, 0, 72, 73
1, 151712, Control_c, 0, 64, 91
1, 151720, Note_off_c, 0, 44, 61
1, 151726, Note_off_c, 0, 39, 65
1, 151727, Control_c, 0, 64, 72
1, 151732, Note_off_c, 0, 36, 62
1, 151740, Note_off_c, 0, 72, 60
1, 151742, Control_c, 0, 64, 55
1, 151764, Control_c, 0, 64, 0
1, 151781, Note_on_c, 0, 73, 75
1, 151819, Note_off_c, 0, 73, 59
1, 151835, Note_on_c, 0, 44, 84
1, 151838, Note_on_c, 0, 39, 60
1, 151841, Note_on_c, 0, 72, 75
1, 151843, Note_on_c, 0, 36, 63
1, 151868, Note_off_c, 0, 72, 65
1, 151869, Note_off_c, 0, 44, 63
1, 151877, Note_off_c, 0, 39, 63
1, 151879, Note_off_c, 0, 36, 62
1, 151895, Note_on_c, 0, 73, 70
1, 151930, Note_off_c, 0, 73, 62
1, 151944, Note_on_c, 0, 72, 75
1, 151963, Note_on_c, 0, 44, 87
1, 151966, Note_on_c, 0, 36, 65
1, 151967, Note_on_c, 0, 39, 67
1, 151976, Note_off_c, 0, 72, 61
1, 151988, Note_on_c, 0, 73, 73
1, 151996, Note_off_c, 0, 44, 64
1, 152004, Note_off_c, 0, 39, 65
1, 152014, Note_off_c, 0, 36, 62
1, 152035, Note_on_c, 0, 72, 68
1, 152055, Note_off_c, 0, 73, 64
1, 152093, Note_on_c, 0, 44, 85
1, 152094, Note_on_c, 0, 71, 86
1, 152095, Note_on_c, 0, 39, 64
1, 152100, Note_on_c, 0, 36, 70
1, 152107, Note_off_c, 0, 72, 65
1, 152135, Control_c, 0, 64, 48
1, 152150, Control_c, 0, 64, 63
1, 152152, Note_off_c, 0, 36, 57
1, 152154, Note_off_c, 0, 39, 61
1, 152165, Control_c, 0, 64, 73
1, 152177, Note_off_c, 0, 71, 62
1, 152179, Note_off_c, 0, 44, 60
1, 152180, Control_c, 0, 64, 95
1, 152193, Note_on_c, 0, 72, 64
1, 152194, Control_c, 0, 64, 127
1, 152245, Note_on_c, 0, 45, 67
1, 152253, Note_off_c, 0, 72, 64
1, 152254, Control_c, 0, 64, 121
1, 152261, Note_on_c, 0, 40, 54
1, 152264, Note_on_c, 0, 37, 51
1, 152268, Control_c, 0, 64, 98
1, 152273, Note_on_c, 0, 71, 68
1, 152282, Note_off_c, 0, 45, 61
1, 152283, Control_c, 0, 64, 86
1, 152295, Note_off_c, 0, 40, 64
1, 152298, Note_off_c, 0, 37, 57
1, 152298, Control_c, 0, 64, 77
1, 152304, Note_off_c, 0, 71, 59
1, 152313, Control_c, 0, 64, 68
1, 152327, Control_c, 0, 64, 62
1, 152329, Note_on_c, 0, 72, 61
1, 152342, Control_c, 0, 64, 56
1, 152357, Control_c, 0, 64, 52
1, 152369, Note_off_c, 0, 72, 59
1, 152372, Control_c, 0, 64, 45
1, 152380, Note_on_c, 0, 45, 57
1, 152387, Control_c, 0, 64, 28
1, 152389, Note_on_c, 0, 40, 53
1, 152392, Note_on_c, 0, 37, 51
1, 152401, Note_on_c, 0, 71, 66
1, 152401, Control_c, 0, 64, 0
1, 152429, Note_off_c, 0, 37, 62
1, 152430, Note_off_c, 0, 40, 63
1, 152431, Note_off_c, 0, 45, 60
1, 152433, Note_off_c, 0, 71, 64
1, 152461, Note_on_c, 0, 72, 63
1, 152502, Note_off_c, 0, 72, 65
1, 152539, Note_on_c, 0, 37, 44
1, 152540, Note_on_c, 0, 40, 44
1, 152551, Note_on_c, 0, 45, 41
1, 152573, Note_on_c, 0, 71, 7
1, 152581, Note_on_c, 0, 72, 51
1, 152583, Note_off_c, 0, 37, 59
1, 152583, Note_off_c, 0, 40, 60
1, 152610, Note_off_c, 0, 72, 64
1, 152624, Note_off_c, 0, 71, 0
1, 152624, Note_on_c, 0, 71, 17
1, 152626, Note_off_c, 0, 45, 57
1, 152785, Note_on_c, 0, 38, 32
1, 152792, Note_off_c, 0, 71, 43
1, 152811, Note_on_c, 0, 70, 56
1, 152839, Control_c, 0, 64, 11
1, 152854, Control_c, 0, 64, 36
1, 152869, Control_c, 0, 64, 50
1, 152884, Control_c, 0, 64, 59
1, 152898, Control_c, 0, 64, 63
1, 152913, Control_c, 0, 64, 66
1, 152928, Control_c, 0, 64, 70
1, 152942, Control_c, 0, 64, 77
1, 152957, Control_c, 0, 64, 90
1, 152964, Note_on_c, 0, 65, 45
1, 152972, Control_c, 0, 64, 121
1, 152987, Control_c, 0, 64, 127
1, 152997, Note_off_c, 0, 38, 38
1, 153009, Note_off_c, 0, 65, 62
1, 153029, Note_off_c, 0, 70, 62
1, 153044, Note_on_c, 0, 69, 57
1, 153081, Note_off_c, 0, 69, 63
1, 153132, Note_on_c, 0, 57, 46
1, 153164, Note_off_c, 0, 57, 50
1, 153234, Note_on_c, 0, 58, 46
1, 153259, Note_on_c, 0, 69, 65
1, 153315, Note_on_c, 0, 53, 45
1, 153368, Note_off_c, 0, 58, 51
1, 153397, Note_on_c, 0, 57, 48
1, 153403, Note_on_c, 0, 70, 79
1, 153421, Note_off_c, 0, 53, 54
1, 153426, Note_on_c, 0, 50, 50
1, 153429, Note_off_c, 0, 57, 65
1, 153447, Note_off_c, 0, 69, 53
1, 153455, Note_off_c, 0, 50, 63
1, 153500, Note_off_c, 0, 70, 62
1, 153543, Control_c, 0, 64, 82
1, 153558, Control_c, 0, 64, 55
1, 153563, Note_on_c, 0, 71, 76
1, 153572, Control_c, 0, 64, 0
1, 153576, Note_on_c, 0, 39, 49
1, 153618, Control_c, 0, 64, 43
1, 153633, Control_c, 0, 64, 62
1, 153643, Note_on_c, 0, 65, 67
1, 153647, Control_c, 0, 64, 76
1, 153661, Note_off_c, 0, 39, 61
1, 153662, Control_c, 0, 64, 109
1, 153677, Control_c, 0, 64, 127
1, 153708, Note_off_c, 0, 65, 62
1, 153712, Note_on_c, 0, 69, 72
1, 153712, Note_off_c, 0, 71, 53
1, 153773, Note_on_c, 0, 58, 72
1, 153777, Note_off_c, 0, 69, 56
1, 153828, Note_off_c, 0, 58, 63
1, 153835, Note_on_c, 0, 59, 67
1, 153844, Note_on_c, 0, 71, 90
1, 153904, Note_on_c, 0, 53, 69
1, 153908, Note_off_c, 0, 59, 61
1, 153921, Note_off_c, 0, 71, 61
1, 153967, Note_on_c, 0, 57, 68
1, 154002, Note_off_c, 0, 53, 61
1, 154005, Note_off_c, 0, 57, 65
1, 154033, Note_on_c, 0, 47, 50
1, 154061, Note_off_c, 0, 47, 53
1, 154144, Control_c, 0, 64, 100
1, 154159, Control_c, 0, 64, 71
1, 154164, Note_on_c, 0, 77, 70
1, 154171, Note_on_c, 0, 40, 54
1, 154173, Control_c, 0, 64, 47
1, 154188, Control_c, 0, 64, 0
1, 154204, Control_c, 0, 64, 27
1, 154219, Control_c, 0, 64, 49
1, 154234, Control_c, 0, 64, 62
1, 154244, Note_on_c, 0, 69, 68
1, 154249, Control_c, 0, 64, 72
1, 154254, Note_off_c, 0, 77, 61
1, 154263, Control_c, 0, 64, 99
1, 154276, Note_off_c, 0, 40, 63
1, 154278, Control_c, 0, 64, 127
1, 154312, Note_off_c, 0, 69, 64
1, 154321, Note_on_c, 0, 71, 68
1, 154357, Note_off_c, 0, 71, 64
1, 154390, Note_on_c, 0, 65, 61
1, 154444, Note_on_c, 0, 70, 78
1, 154444, Note_off_c, 0, 65, 52
1, 154456, Note_on_c, 0, 53, 60
1, 154511, Note_off_c, 0, 70, 62
1, 154518, Note_on_c, 0, 65, 74
1, 154581, Note_on_c, 0, 69, 78
1, 154590, Note_off_c, 0, 65, 61
1, 154601, Note_off_c, 0, 53, 61
1, 154604, Note_on_c, 0, 52, 59
1, 154636, Note_off_c, 0, 52, 64
1, 154642, Note_on_c, 0, 71, 81
1, 154643, Note_off_c, 0, 69, 64
1, 154661, Note_off_c, 0, 71, 71
1, 154728, Note_on_c, 0, 67, 62
1, 154728, Note_on_c, 0, 72, 89
1, 154799, Note_off_c, 0, 67, 57
1, 154813, Note_on_c, 0, 64, 70
1, 154887, Note_off_c, 0, 64, 62
1, 154888, Note_on_c, 0, 65, 65
1, 154919, Note_off_c, 0, 65, 64
1, 154953, Note_on_c, 0, 60, 72
1, 155019, Note_on_c, 0, 52, 80
1, 155036, Note_off_c, 0, 60, 50
1, 155094, Note_on_c, 0, 68, 71
1, 155124, Note_off_c, 0, 72, 58
1, 155169, Note_on_c, 0, 69, 78
1, 155176, Note_off_c, 0, 68, 61
1, 155218, Note_off_c, 0, 52, 62
1, 155238, Note_on_c, 0, 53, 61
1, 155251, Note_on_c, 0, 60, 72
1, 155310, Note_off_c, 0, 60, 63
1, 155315, Note_off_c, 0, 53, 48
1, 155351, Control_c, 0, 64, 94
1, 155366, Control_c, 0, 64, 71
1, 155375, Note_off_c, 0, 69, 57
1, 155381, Control_c, 0, 64, 55
1, 155384, Note_on_c, 0, 41, 55
1, 155389, Note_on_c, 0, 73, 76
1, 155396, Control_c, 0, 64, 12
1, 155410, Control_c, 0, 64, 0
1, 155440, Control_c, 0, 64, 35
1, 155455, Control_c, 0, 64, 54
1, 155470, Control_c, 0, 64, 64
1, 155480, Note_on_c, 0, 68, 64
1, 155485, Control_c, 0, 64, 74
1, 155507, Control_c, 0, 64, 107
1, 155507, Note_off_c, 0, 41, 63
1, 155522, Control_c, 0, 64, 127
1, 155552, Note_off_c, 0, 68, 62
1, 155555, Note_on_c, 0, 72, 69
1, 155572, Note_off_c, 0, 73, 57
1, 155615, Note_off_c, 0, 72, 62
1, 155629, Note_on_c, 0, 60, 57
1, 155668, Note_off_c, 0, 60, 56
1, 155686, Note_on_c, 0, 61, 63
1, 155714, Note_on_c, 0, 72, 78
1, 155751, Note_on_c, 0, 56, 59
1, 155774, Note_off_c, 0, 61, 55
1, 155833, Note_on_c, 0, 60, 58
1, 155849, Note_off_c, 0, 72, 62
1, 155851, Note_on_c, 0, 74, 89
1, 155872, Note_off_c, 0, 60, 65
1, 155880, Note_off_c, 0, 56, 61
1, 155884, Note_on_c, 0, 53, 68
1, 155913, Note_off_c, 0, 53, 65
1, 155929, Note_off_c, 0, 74, 60
1, 156000, Note_on_c, 0, 42, 85
1, 156004, Note_on_c, 0, 75, 91
1, 156011, Control_c, 0, 64, 99
1, 156026, Control_c, 0, 64, 65
1, 156041, Control_c, 0, 64, 0
1, 156078, Note_on_c, 0, 70, 78
1, 156100, Control_c, 0, 64, 46
1, 156106, Note_off_c, 0, 42, 61
1, 156115, Control_c, 0, 64, 64
1, 156130, Control_c, 0, 64, 74
1, 156142, Note_on_c, 0, 72, 75
1, 156145, Control_c, 0, 64, 106
1, 156149, Note_off_c, 0, 70, 64
1, 156151, Note_off_c, 0, 75, 54
1, 156159, Control_c, 0, 64, 127
1, 156209, Note_on_c, 0, 62, 85
1, 156263, Note_off_c, 0, 62, 65
1, 156288, Note_on_c, 0, 63, 81
1, 156297, Note_on_c, 0, 75, 96
1, 156313, Note_off_c, 0, 72, 64
1, 156332, Note_on_c, 0, 76, 56
1, 156352, Note_off_c, 0, 76, 60
1, 156363, Note_on_c, 0, 58, 76
1, 156363, Note_off_c, 0, 75, 61
1, 156371, Note_off_c, 0, 63, 62
1, 156420, Note_on_c, 0, 60, 80
1, 156458, Note_off_c, 0, 58, 62
1, 156464, Note_on_c, 0, 51, 85
1, 156470, Note_off_c, 0, 60, 65
1, 156494, Note_off_c, 0, 51, 66
1, 156581, Control_c, 0, 64, 89
1, 156590, Note_on_c, 0, 84, 91
1, 156597, Control_c, 0, 64, 63
1, 156605, Note_on_c, 0, 43, 71
1, 156612, Control_c, 0, 64, 0
1, 156657, Control_c, 0, 64, 38
1, 156670, Note_on_c, 0, 76, 74
1, 156671, Control_c, 0, 64, 63
1, 156684, Note_off_c, 0, 84, 62
1, 156686, Control_c, 0, 64, 78
1, 156701, Control_c, 0, 64, 127
1, 156705, Note_off_c, 0, 43, 63
1, 156734, Note_on_c, 0, 77, 79
1, 156753, Note_off_c, 0, 76, 62
1, 156786, Note_off_c, 0, 77, 64
1, 156798, Note_on_c, 0, 72, 75
1, 156865, Note_on_c, 0, 77, 90
1, 156874, Note_on_c, 0, 56, 82
1, 156875, Note_off_c, 0, 72, 62
1, 156929, Note_on_c, 0, 75, 87
1, 156944, Note_off_c, 0, 77, 62
1, 156997, Note_on_c, 0, 76, 80
1, 157022, Note_off_c, 0, 56, 56
1, 157038, Note_off_c, 0, 75, 61
1, 157052, Note_on_c, 0, 55, 68
1, 157064, Note_on_c, 0, 79, 85
1, 157072, Note_off_c, 0, 76, 64
1, 157075, Note_on_c, 0, 71, 73
1, 157078, Note_off_c, 0, 55, 66
1, 157084, Note_off_c, 0, 79, 73
1, 157099, Note_off_c, 0, 71, 70
1, 157150, Note_on_c, 0, 80, 90
1, 157159, Note_on_c, 0, 72, 93
1, 157192, Note_off_c, 0, 72, 62
1, 157209, Note_on_c, 0, 81, 11
1, 157225, Note_on_c, 0, 76, 83
1, 157242, Note_off_c, 0, 80, 61
1, 157243, Note_off_c, 0, 81, 59
1, 157281, Note_on_c, 0, 77, 67
1, 157304, Note_off_c, 0, 76, 63
1, 157355, Note_on_c, 0, 72, 90
1, 157369, Note_off_c, 0, 77, 63
1, 157439, Note_on_c, 0, 55, 100
1, 157444, Note_off_c, 0, 72, 60
1, 157515, Note_on_c, 0, 71, 81
1, 157516, Note_on_c, 0, 69, 80
1, 157572, Note_off_c, 0, 69, 62
1, 157582, Note_on_c, 0, 72, 91
1, 157614, Note_off_c, 0, 71, 44
1, 157638, Note_off_c, 0, 55, 60
1, 157662, Note_on_c, 0, 56, 89
1, 157668, Note_on_c, 0, 65, 94
1, 157687, Note_off_c, 0, 72, 62
1, 157693, Note_off_c, 0, 56, 64
1, 157727, Note_off_c, 0, 65, 63
1, 157799, Control_c, 0, 64, 81
1, 157813, Control_c, 0, 64, 0
1, 157820, Note_on_c, 0, 44, 104
1, 157839, Note_on_c, 0, 42, 70
1, 157867, Note_off_c, 0, 42, 66
1, 157886, Note_off_c, 0, 44, 64
1, 157887, Control_c, 0, 64, 50
1, 157902, Control_c, 0, 64, 70
1, 157917, Control_c, 0, 64, 106
1, 157932, Control_c, 0, 64, 127
1, 158008, Note_on_c, 0, 64, 75
1, 158009, Note_on_c, 0, 56, 75
1, 158015, Note_on_c, 0, 59, 53
1, 158032, Note_off_c, 0, 64, 69
1, 158038, Note_off_c, 0, 56, 66
1, 158044, Note_off_c, 0, 59, 63
1, 158084, Note_on_c, 0, 64, 83
1, 158094, Note_on_c, 0, 56, 77
1, 158105, Note_off_c, 0, 64, 65
1, 158106, Note_on_c, 0, 59, 68
1, 158121, Note_off_c, 0, 56, 66
1, 158132, Note_off_c, 0, 59, 66
1, 158179, Note_on_c, 0, 80, 100
1, 158182, Note_on_c, 0, 92, 93
1, 158184, Control_c, 0, 64, 96
1, 158196, Note_on_c, 0, 56, 79
1, 158196, Note_on_c, 0, 93, 78
1, 158199, Note_on_c, 0, 62, 70
1, 158199, Control_c, 0, 64, 87
1, 158203, Note_on_c, 0, 65, 65
1, 158209, Note_off_c, 0, 93, 70
1, 158214, Note_off_c, 0, 80, 63
1, 158214, Control_c, 0, 64, 95
1, 158220, Note_off_c, 0, 92, 63
1, 158223, Note_off_c, 0, 65, 64
1, 158225, Note_off_c, 0, 56, 64
1, 158227, Note_off_c, 0, 62, 68
1, 158229, Control_c, 0, 64, 127
1, 158292, Note_on_c, 0, 65, 72
1, 158300, Note_on_c, 0, 62, 73
1, 158307, Note_on_c, 0, 56, 69
1, 158317, Note_off_c, 0, 65, 66
1, 158324, Note_off_c, 0, 62, 67
1, 158335, Note_off_c, 0, 56, 66
1, 158372, Note_on_c, 0, 80, 92
1, 158375, Note_on_c, 0, 92, 94
1, 158388, Note_off_c, 0, 80, 72
1, 158390, Note_off_c, 0, 92, 74
1, 158398, Note_on_c, 0, 56, 70
1, 158403, Note_on_c, 0, 62, 63
1, 158404, Note_on_c, 0, 65, 58
1, 158422, Note_off_c, 0, 62, 65
1, 158422, Note_off_c, 0, 65, 64
1, 158428, Note_off_c, 0, 56, 67
1, 158436, Control_c, 0, 64, 71
1, 158451, Control_c, 0, 64, 18
1, 158466, Note_on_c, 0, 83, 100
1, 158466, Control_c, 0, 64, 0
1, 158467, Note_on_c, 0, 71, 99
1, 158494, Note_on_c, 0, 56, 80
1, 158503, Control_c, 0, 64, 24
1, 158504, Note_on_c, 0, 59, 53
1, 158505, Note_on_c, 0, 80, 51
1, 158506, Note_on_c, 0, 64, 63
1, 158518, Control_c, 0, 64, 60
1, 158524, Note_off_c, 0, 64, 64
1, 158527, Note_off_c, 0, 56, 63
1, 158530, Note_off_c, 0, 80, 38
1, 158533, Control_c, 0, 64, 78
1, 158535, Note_off_c, 0, 59, 65
1, 158548, Control_c, 0, 64, 127
1, 158548, Note_off_c, 0, 71, 60
1, 158556, Note_off_c, 0, 83, 62
1, 158583, Note_on_c, 0, 64, 81
1, 158589, Note_on_c, 0, 56, 70
1, 158596, Note_on_c, 0, 59, 73
1, 158601, Note_off_c, 0, 64, 71
1, 158622, Note_off_c, 0, 56, 65
1, 158625, Note_off_c, 0, 59, 65
1, 158678, Note_on_c, 0, 64, 79
1, 158679, Note_on_c, 0, 56, 83
1, 158698, Note_on_c, 0, 59, 61
1, 158700, Note_off_c, 0, 64, 70
1, 158716, Note_off_c, 0, 59, 65
1, 158721, Note_off_c, 0, 56, 63
1, 158755, Control_c, 0, 64, 101
1, 158769, Control_c, 0, 64, 67
1, 158773, Note_on_c, 0, 74, 100
1, 158773, Note_on_c, 0, 86, 104
1, 158780, Note_on_c, 0, 62, 73
1, 158782, Note_on_c, 0, 65, 72
1, 158784, Control_c, 0, 64, 43
1, 158790, Note_on_c, 0, 56, 64
1, 158799, Control_c, 0, 64, 45
1, 158807, Note_off_c, 0, 65, 68
1, 158812, Note_off_c, 0, 62, 64
1, 158814, Note_off_c, 0, 56, 70
1, 158814, Control_c, 0, 64, 63
1, 158815, Note_off_c, 0, 74, 64
1, 158820, Note_off_c, 0, 86, 68
1, 158829, Control_c, 0, 64, 71
1, 158843, Control_c, 0, 64, 102
1, 158858, Control_c, 0, 64, 127
1, 158872, Note_on_c, 0, 65, 78
1, 158878, Note_on_c, 0, 62, 74
1, 158879, Note_on_c, 0, 56, 78
1, 158895, Note_off_c, 0, 65, 69
1, 158903, Note_off_c, 0, 62, 66
1, 158908, Note_off_c, 0, 56, 66
1, 158960, Note_on_c, 0, 65, 76
1, 158964, Note_on_c, 0, 56, 79
1, 158965, Note_on_c, 0, 62, 77
1, 158980, Note_off_c, 0, 65, 70
1, 158993, Note_off_c, 0, 62, 65
1, 159008, Note_off_c, 0, 56, 63
1, 159036, Control_c, 0, 64, 85
1, 159047, Note_on_c, 0, 68, 91
1, 159049, Note_on_c, 0, 80, 87
1, 159051, Control_c, 0, 64, 57
1, 159054, Note_on_c, 0, 71, 81
1, 159056, Note_on_c, 0, 74, 69
1, 159064, Note_on_c, 0, 64, 76
1, 159065, Note_on_c, 0, 56, 66
1, 159066, Note_on_c, 0, 59, 74
1, 159066, Control_c, 0, 64, 0
1, 159067, Note_off_c, 0, 68, 69
1, 159074, Note_off_c, 0, 71, 70
1, 159081, Control_c, 0, 64, 30
1, 159086, Note_off_c, 0, 74, 66
1, 159087, Note_off_c, 0, 64, 70
1, 159093, Note_off_c, 0, 56, 67
1, 159096, Control_c, 0, 64, 58
1, 159098, Note_off_c, 0, 59, 66
1, 159111, Control_c, 0, 64, 68
1, 159126, Control_c, 0, 64, 100
1, 159138, Note_on_c, 0, 68, 88
1, 159140, Control_c, 0, 64, 127
1, 159141, Note_on_c, 0, 71, 74
1, 159147, Note_on_c, 0, 56, 80
1, 159147, Note_on_c, 0, 64, 80
1, 159151, Note_on_c, 0, 59, 60
1, 159162, Note_off_c, 0, 71, 71
1, 159165, Note_on_c, 0, 74, 43
1, 159168, Note_off_c, 0, 64, 65
1, 159174, Note_off_c, 0, 56, 66
1, 159178, Note_off_c, 0, 59, 65
1, 159179, Note_off_c, 0, 68, 58
1, 159183, Note_off_c, 0, 80, 64
1, 159189, Note_off_c, 0, 74, 53
1, 159255, Note_on_c, 0, 73, 85
1, 159264, Note_on_c, 0, 69, 79
1, 159268, Note_on_c, 0, 81, 62
1, 159272, Note_on_c, 0, 76, 66
1, 159274, Note_off_c, 0, 73, 72
1, 159274, Poly_aftertouch_c, 0, 64, 127
1, 159287, Note_off_c, 0, 69, 70
1, 159287, Note_off_c, 0, 81, 63
1, 159296, Note_off_c, 0, 76, 64
1, 159319, Poly_aftertouch_c, 0, 64, 0
1, 159355, Control_c, 0, 64, 91
1, 159355, Note_on_c, 0, 62, 94
1, 159359, Note_on_c, 0, 50, 88
1, 159363, Note_on_c, 0, 83, 82
1, 159370, Control_c, 0, 64, 74
1, 159370, Note_on_c, 0, 71, 79
1, 159376, Note_on_c, 0, 74, 74
1, 159381, Note_on_c, 0, 77, 62
1, 159385, Note_off_c, 0, 62, 64
1, 159385, Control_c, 0, 64, 70
1, 159387, Note_off_c, 0, 50, 67
1, 159388, Note_on_c, 0, 81, 41
1, 159396, Note_off_c, 0, 71, 68
1, 159400, Control_c, 0, 64, 80
1, 159400, Note_off_c, 0, 74, 69
1, 159405, Note_off_c, 0, 77, 64
1, 159415, Control_c, 0, 64, 127
1, 159417, Note_off_c, 0, 81, 34
1, 159467, Note_on_c, 0, 74, 79
1, 159471, Note_on_c, 0, 71, 80
1, 159472, Note_on_c, 0, 77, 72
1, 159491, Note_off_c, 0, 74, 66
1, 159492, Note_off_c, 0, 71, 70
1, 159503, Note_off_c, 0, 77, 64
1, 159551, Note_on_c, 0, 50, 90
1, 159558, Note_on_c, 0, 62, 66
1, 159564, Note_on_c, 0, 71, 87
1, 159568, Note_on_c, 0, 74, 79
1, 159571, Note_off_c, 0, 50, 70
1, 159576, Note_off_c, 0, 62, 69
1, 159579, Note_on_c, 0, 77, 66
1, 159584, Note_off_c, 0, 71, 68
1, 159589, Note_on_c, 0, 60, 16
1, 159591, Note_off_c, 0, 74, 69
1, 159602, Note_off_c, 0, 77, 64
1, 159626, Note_off_c, 0, 60, 52
1, 159649, Note_on_c, 0, 74, 84
1, 159652, Note_on_c, 0, 52, 102
1, 159653, Note_on_c, 0, 77, 78
1, 159654, Note_on_c, 0, 40, 97
1, 159657, Note_on_c, 0, 71, 84
1, 159666, Control_c, 0, 64, 96
1, 159677, Note_off_c, 0, 71, 72
1, 159680, Note_off_c, 0, 74, 61
1, 159680, Note_off_c, 0, 77, 64
1, 159681, Control_c, 0, 64, 68
1, 159696, Control_c, 0, 64, 44
1, 159711, Control_c, 0, 64, 39
1, 159726, Control_c, 0, 64, 61
1, 159740, Control_c, 0, 64, 72
1, 159745, Note_on_c, 0, 71, 85
1, 159746, Note_on_c, 0, 74, 77
1, 159751, Note_on_c, 0, 77, 75
1, 159755, Control_c, 0, 64, 113
1, 159756, Note_off_c, 0, 40, 62
1, 159762, Note_off_c, 0, 52, 61
1, 159767, Note_off_c, 0, 74, 69
1, 159770, Control_c, 0, 64, 127
1, 159771, Note_off_c, 0, 71, 65
1, 159778, Note_off_c, 0, 77, 69
1, 159782, Note_off_c, 0, 83, 26
1, 159839, Note_on_c, 0, 72, 93
1, 159841, Note_on_c, 0, 76, 87
1, 159844, Note_on_c, 0, 79, 80
1, 159844, Note_on_c, 0, 84, 77
1, 159861, Note_off_c, 0, 72, 66
1, 159863, Note_off_c, 0, 76, 71
1, 159867, Note_off_c, 0, 79, 70
1, 159869, Note_off_c, 0, 84, 69
1, 159934, Control_c, 0, 64, 87
1, 159937, Note_on_c, 0, 55, 107
1, 159941, Note_on_c, 0, 74, 91
1, 159941, Note_on_c, 0, 86, 90
1, 159942, Note_on_c, 0, 43, 93
1, 159943, Note_on_c, 0, 77, 86
1, 159945, Note_on_c, 0, 81, 80
1, 159949, Control_c, 0, 64, 65
1, 159963, Control_c, 0, 64, 53
1, 159964, Note_off_c, 0, 74, 65
1, 159966, Note_off_c, 0, 77, 62
1, 159973, Note_off_c, 0, 81, 64
1, 159986, Control_c, 0, 64, 64
1, 159996, Note_off_c, 0, 55, 60
1, 160001, Control_c, 0, 64, 73
1, 160015, Control_c, 0, 64, 113
1, 160029, Note_off_c, 0, 43, 64
1, 160030, Control_c, 0, 64, 127
1, 160044, Note_on_c, 0, 74, 91
1, 160047, Note_on_c, 0, 77, 86
1, 160053, Note_on_c, 0, 81, 74
1, 160071, Note_off_c, 0, 77, 69
1, 160078, Note_off_c, 0, 74, 58
1, 160078, Note_off_c, 0, 81, 69
1, 160149, Note_on_c, 0, 78, 90
1, 160150, Note_on_c, 0, 75, 94
1, 160155, Note_on_c, 0, 82, 75
1, 160199, Note_off_c, 0, 78, 63
1, 160214, Note_off_c, 0, 82, 63
1, 160215, Note_off_c, 0, 75, 61
1, 160253, Control_c, 0, 64, 78
1, 160267, Control_c, 0, 64, 0
1, 160269, Note_on_c, 0, 48, 106
1, 160273, Note_on_c, 0, 36, 90
1, 160290, Note_on_c, 0, 79, 87
1, 160291, Note_on_c, 0, 76, 88
1, 160291, Note_off_c, 0, 86, 51
1, 160295, Note_on_c, 0, 83, 74
1, 160320, Note_off_c, 0, 36, 64
1, 160324, Note_off_c, 0, 76, 66
1, 160327, Control_c, 0, 64, 52
1, 160327, Note_off_c, 0, 79, 66
1, 160332, Note_off_c, 0, 83, 65
1, 160341, Control_c, 0, 64, 75
1, 160343, Note_off_c, 0, 48, 65
1, 160356, Control_c, 0, 64, 127
1, 160405, Note_on_c, 0, 76, 75
1, 160406, Note_on_c, 0, 79, 71
1, 160408, Note_on_c, 0, 83, 65
1, 160433, Note_off_c, 0, 76, 67
1, 160434, Note_off_c, 0, 79, 68
1, 160438, Note_off_c, 0, 83, 67
1, 160479, Note_on_c, 0, 76, 85
1, 160491, Note_on_c, 0, 79, 75
1, 160491, Note_on_c, 0, 83, 79
1, 160506, Note_off_c, 0, 76, 69
1, 160514, Note_off_c, 0, 83, 70
1, 160517, Note_off_c, 0, 79, 66
1, 160578, Note_on_c, 0, 60, 69
1, 160580, Note_on_c, 0, 69, 71
1, 160582, Note_on_c, 0, 66, 70
1, 160596, Note_on_c, 0, 84, 99
1, 160597, Note_on_c, 0, 96, 104
1, 160607, Note_off_c, 0, 69, 68
1, 160611, Note_off_c, 0, 66, 65
1, 160613, Note_on_c, 0, 95, 69
1, 160613, Note_off_c, 0, 60, 64
1, 160615, Note_off_c, 0, 84, 68
1, 160629, Note_off_c, 0, 96, 65
1, 160629, Note_off_c, 0, 95, 43
1, 160690, Note_on_c, 0, 69, 63
1, 160691, Note_on_c, 0, 66, 65
1, 160708, Note_on_c, 0, 60, 53
1, 160715, Note_off_c, 0, 69, 70
1, 160716, Note_off_c, 0, 66, 67
1, 160739, Note_off_c, 0, 60, 64
1, 160795, Note_on_c, 0, 69, 71
1, 160797, Note_on_c, 0, 66, 71
1, 160800, Note_on_c, 0, 86, 94
1, 160804, Note_on_c, 0, 60, 69
1, 160813, Note_on_c, 0, 98, 63
1, 160816, Note_off_c, 0, 86, 74
1, 160819, Note_on_c, 0, 96, 58
1, 160822, Note_off_c, 0, 66, 68
1, 160822, Note_off_c, 0, 69, 68
1, 160831, Note_off_c, 0, 98, 44
1, 160833, Note_off_c, 0, 60, 66
1, 160839, Note_off_c, 0, 96, 62
1, 160868, Control_c, 0, 64, 85
1, 160883, Control_c, 0, 64, 60
1, 160893, Note_on_c, 0, 75, 112
1, 160893, Note_on_c, 0, 87, 88
1, 160895, Note_on_c, 0, 63, 74
1, 160896, Note_on_c, 0, 68, 77
1, 160898, Control_c, 0, 64, 0
1, 160901, Note_on_c, 0, 60, 69
1, 160916, Note_on_c, 0, 85, 63
1, 160919, Note_off_c, 0, 68, 69
1, 160923, Note_off_c, 0, 60, 70
1, 160927, Control_c, 0, 64, 51
1, 160929, Note_on_c, 0, 88, 50
1, 160931, Note_off_c, 0, 63, 63
1, 160938, Note_off_c, 0, 85, 60
1, 160942, Control_c, 0, 64, 66
1, 160948, Note_off_c, 0, 88, 44
1, 160957, Control_c, 0, 64, 92
1, 160968, Note_off_c, 0, 75, 61
1, 160972, Control_c, 0, 64, 127
1, 160986, Note_off_c, 0, 87, 62
1, 160993, Note_on_c, 0, 68, 81
1, 160999, Note_on_c, 0, 60, 71
1, 161001, Note_on_c, 0, 63, 62
1, 161014, Note_off_c, 0, 68, 67
1, 161027, Note_off_c, 0, 60, 67
1, 161029, Note_off_c, 0, 63, 67
1, 161090, Note_on_c, 0, 68, 87
1, 161096, Note_on_c, 0, 60, 74
1, 161096, Note_on_c, 0, 63, 77
1, 161129, Note_off_c, 0, 68, 58
1, 161133, Note_off_c, 0, 63, 52
1, 161135, Note_off_c, 0, 60, 64
1, 161180, Control_c, 0, 64, 85
1, 161186, Note_on_c, 0, 78, 110
1, 161187, Note_on_c, 0, 90, 103
1, 161195, Control_c, 0, 64, 60
1, 161198, Note_on_c, 0, 69, 74
1, 161202, Note_on_c, 0, 66, 71
1, 161208, Note_on_c, 0, 60, 66
1, 161209, Control_c, 0, 64, 0
1, 161221, Note_off_c, 0, 69, 70
1, 161224, Control_c, 0, 64, 34
1, 161228, Note_off_c, 0, 60, 69
1, 161230, Note_off_c, 0, 66, 65
1, 161239, Control_c, 0, 64, 59
1, 161242, Note_off_c, 0, 90, 65
1, 161254, Control_c, 0, 64, 70
1, 161266, Note_off_c, 0, 78, 60
1, 161269, Control_c, 0, 64, 95
1, 161284, Control_c, 0, 64, 127
1, 161287, Note_on_c, 0, 69, 80
1, 161296, Note_on_c, 0, 66, 77
1, 161300, Note_on_c, 0, 60, 68
1, 161318, Note_off_c, 0, 69, 57
1, 161324, Note_off_c, 0, 66, 66
1, 161328, Note_off_c, 0, 60, 67
1, 161373, Note_on_c, 0, 69, 78
1, 161384, Note_on_c, 0, 66, 81
1, 161385, Note_on_c, 0, 60, 70
1, 161394, Note_off_c, 0, 69, 72
1, 161409, Note_off_c, 0, 60, 68
1, 161417, Note_off_c, 0, 66, 57
1, 161448, Control_c, 0, 64, 107
1, 161462, Control_c, 0, 64, 71
1, 161467, Note_on_c, 0, 68, 91
1, 161469, Note_on_c, 0, 72, 99
1, 161471, Note_on_c, 0, 60, 76
1, 161471, Note_on_c, 0, 84, 94
1, 161484, Note_on_c, 0, 78, 85
1, 161484, Control_c, 0, 64, 26
1, 161486, Note_on_c, 0, 63, 70
1, 161494, Note_on_c, 0, 75, 58
1, 161499, Control_c, 0, 64, 0
1, 161500, Note_off_c, 0, 72, 67
1, 161507, Note_off_c, 0, 75, 48
1, 161509, Note_on_c, 0, 83, 50
1, 161510, Note_off_c, 0, 83, 127
1, 161510, Note_off_c, 0, 68, 62
1, 161514, Control_c, 0, 64, 53
1, 161515, Note_off_c, 0, 78, 57
1, 161516, Note_off_c, 0, 60, 64
1, 161516, Note_off_c, 0, 63, 65
1, 161529, Control_c, 0, 64, 67
1, 161543, Control_c, 0, 64, 85
1, 161558, Control_c, 0, 64, 127
1, 161573, Note_on_c, 0, 68, 67
1, 161574, Note_on_c, 0, 60, 65
1, 161577, Note_on_c, 0, 78, 64
1, 161578, Note_on_c, 0, 72, 83
1, 161580, Note_on_c, 0, 63, 62
1, 161582, Note_on_c, 0, 75, 64
1, 161593, Note_on_c, 0, 83, 23
1, 161595, Note_off_c, 0, 68, 68
1, 161600, Note_off_c, 0, 84, 62
1, 161603, Note_off_c, 0, 60, 66
1, 161603, Note_off_c, 0, 72, 66
1, 161603, Note_off_c, 0, 75, 62
1, 161608, Note_off_c, 0, 78, 67
1, 161612, Note_off_c, 0, 63, 64
1, 161629, Note_off_c, 0, 83, 41
1, 161683, Note_on_c, 0, 85, 86
1, 161686, Note_on_c, 0, 74, 77
1, 161686, Note_on_c, 0, 75, 67
1, 161706, Note_off_c, 0, 85, 64
1, 161709, Note_off_c, 0, 74, 69
1, 161718, Note_off_c, 0, 75, 66
1, 161766, Control_c, 0, 64, 90
1, 161780, Note_on_c, 0, 66, 101
1, 161780, Control_c, 0, 64, 69
1, 161785, Note_on_c, 0, 54, 88
1, 161790, Note_on_c, 0, 75, 87
1, 161795, Control_c, 0, 64, 61
1, 161806, Note_on_c, 0, 85, 58
1, 161810, Control_c, 0, 64, 66
1, 161812, Note_off_c, 0, 54, 66
1, 161815, Note_off_c, 0, 75, 63
1, 161817, Note_off_c, 0, 66, 59
1, 161825, Control_c, 0, 64, 77
1, 161833, Note_off_c, 0, 85, 51
1, 161835, Note_on_c, 0, 81, 15
1, 161840, Control_c, 0, 64, 127
1, 161889, Note_off_c, 0, 81, 0
1, 161889, Note_on_c, 0, 81, 37
1, 161892, Note_on_c, 0, 75, 81
1, 161892, Note_on_c, 0, 78, 77
1, 161917, Note_off_c, 0, 75, 62
1, 161925, Note_off_c, 0, 78, 63
1, 161937, Note_off_c, 0, 81, 65
1, 161969, Note_on_c, 0, 54, 90
1, 161969, Note_on_c, 0, 66, 87
1, 161986, Note_on_c, 0, 78, 74
1, 161988, Note_on_c, 0, 75, 80
1, 161988, Note_off_c, 0, 66, 71
1, 161988, Note_off_c, 0, 54, 72
1, 162000, Note_on_c, 0, 81, 44
1, 162011, Note_off_c, 0, 75, 68
1, 162014, Note_off_c, 0, 78, 68
1, 162023, Note_off_c, 0, 81, 61
1, 162073, Note_on_c, 0, 56, 100
1, 162074, Note_on_c, 0, 75, 94
1, 162078, Note_on_c, 0, 44, 90
1, 162080, Note_on_c, 0, 78, 79
1, 162092, Control_c, 0, 64, 110
1, 162102, Note_on_c, 0, 81, 54
1, 162104, Note_off_c, 0, 78, 69
1, 162107, Control_c, 0, 64, 80
1, 162115, Note_off_c, 0, 75, 59
1, 162121, Note_off_c, 0, 81, 62
1, 162122, Control_c, 0, 64, 67
1, 162124, Note_on_c, 0, 46, 22
1, 162125, Note_off_c, 0, 46, 127
1, 162132, Poly_aftertouch_c, 0, 85, 0
1, 162136, Control_c, 0, 64, 69
1, 162151, Control_c, 0, 64, 84
1, 162165, Note_on_c, 0, 75, 81
1, 162166, Control_c, 0, 64, 127
1, 162174, Note_on_c, 0, 78, 79
1, 162200, Note_off_c, 0, 78, 68
1, 162204, Note_off_c, 0, 44, 63
1, 162205, Note_on_c, 0, 81, 36
1, 162211, Note_off_c, 0, 56, 59
1, 162213, Note_off_c, 0, 75, 63
1, 162239, Note_off_c, 0, 81, 57
1, 162276, Note_on_c, 0, 76, 96
1, 162284, Note_on_c, 0, 79, 78
1, 162284, Note_on_c, 0, 83, 80
1, 162289, Note_on_c, 0, 88, 68
1, 162298, Note_off_c, 0, 76, 64
1, 162307, Note_off_c, 0, 79, 71
1, 162309, Note_off_c, 0, 83, 67
1, 162317, Note_off_c, 0, 88, 68
1, 162381, Control_c, 0, 64, 101
1, 162387, Note_on_c, 0, 78, 101
1, 162388, Note_on_c, 0, 59, 110
1, 162390, Note_on_c, 0, 90, 98
1, 162394, Note_on_c, 0, 47, 92
1, 162396, Note_on_c, 0, 81, 80
1, 162396, Control_c, 0, 64, 63
1, 162399, Note_on_c, 0, 85, 76
1, 162411, Control_c, 0, 64, 0
1, 162441, Control_c, 0, 64, 20
1, 162452, Note_off_c, 0, 78, 64
1, 162452, Note_off_c, 0, 81, 64
1, 162455, Control_c, 0, 64, 50
1, 162460, Note_off_c, 0, 85, 65
1, 162470, Control_c, 0, 64, 66
1, 162485, Control_c, 0, 64, 94
1, 162495, Note_off_c, 0, 59, 59
1, 162500, Control_c, 0, 64, 127
1, 162518, Note_on_c, 0, 78, 92
1, 162521, Note_on_c, 0, 85, 74
1, 162524, Note_on_c, 0, 81, 77
1, 162542, Note_off_c, 0, 47, 61
1, 162564, Note_off_c, 0, 81, 62
1, 162578, Note_off_c, 0, 78, 63
1, 162580, Note_off_c, 0, 85, 64
1, 162645, Note_on_c, 0, 79, 95
1, 162649, Note_on_c, 0, 82, 89
1, 162649, Note_on_c, 0, 86, 88
1, 162730, Note_off_c, 0, 79, 64
1, 162739, Note_off_c, 0, 82, 63
1, 162739, Note_off_c, 0, 86, 63
1, 162819, Note_on_c, 0, 52, 109
1, 162825, Note_on_c, 0, 40, 92
1, 162840, Control_c, 0, 64, 116
1, 162845, Note_on_c, 0, 80, 83
1, 162855, Note_on_c, 0, 83, 74
1, 162855, Control_c, 0, 64, 72
1, 162858, Note_on_c, 0, 87, 67
1, 162870, Control_c, 0, 64, 19
1, 162885, Control_c, 0, 64, 0
1, 162944, Control_c, 0, 64, 50
1, 162952, Note_off_c, 0, 90, 63
1, 162954, Note_off_c, 0, 87, 63
1, 162956, Note_off_c, 0, 83, 64
1, 162958, Note_off_c, 0, 80, 64
1, 162959, Control_c, 0, 64, 71
1, 162982, Control_c, 0, 64, 108
1, 162985, Note_off_c, 0, 40, 63
1, 162997, Control_c, 0, 64, 127
1, 163041, Note_on_c, 0, 87, 83
1, 163043, Note_on_c, 0, 80, 83
1, 163044, Note_on_c, 0, 83, 79
1, 163057, Note_off_c, 0, 52, 66
1, 163090, Note_off_c, 0, 87, 64
1, 163093, Note_off_c, 0, 80, 62
1, 163093, Note_off_c, 0, 83, 64
1, 163161, Note_on_c, 0, 80, 94
1, 163167, Note_on_c, 0, 87, 84
1, 163171, Note_on_c, 0, 83, 79
1, 163202, Note_off_c, 0, 87, 58
1, 163205, Note_off_c, 0, 83, 60
1, 163210, Note_off_c, 0, 80, 63
1, 163312, Note_on_c, 0, 59, 57
1, 163328, Note_on_c, 0, 56, 49
1, 163377, Note_on_c, 0, 63, 93
1, 163394, Note_on_c, 0, 66, 71
1, 163397, Note_off_c, 0, 56, 55
1, 163400, Note_off_c, 0, 59, 60
1, 163526, Note_on_c, 0, 59, 72
1, 163535, Note_on_c, 0, 56, 63
1, 163627, Note_off_c, 0, 59, 63
1, 163628, Note_off_c, 0, 56, 61
1, 163693, Note_on_c, 0, 59, 76
1, 163705, Note_on_c, 0, 56, 59
1, 163827, Note_off_c, 0, 63, 60
1, 163901, Note_off_c, 0, 59, 63
1, 163903, Note_off_c, 0, 56, 60
1, 163982, Note_on_c, 0, 59, 58
1, 163988, Note_on_c, 0, 56, 53
1, 164067, Note_on_c, 0, 64, 88
1, 164071, Note_off_c, 0, 59, 61
1, 164077, Note_off_c, 0, 56, 58
1, 164152, Note_off_c, 0, 66, 46
1, 164157, Note_on_c, 0, 59, 63
1, 164167, Note_on_c, 0, 56, 54
1, 164287, Poly_aftertouch_c, 0, 71, 127
1, 164346, Note_on_c, 0, 66, 82
1, 164352, Control_c, 0, 64, 116
1, 164367, Control_c, 0, 64, 96
1, 164381, Control_c, 0, 64, 84
1, 164396, Control_c, 0, 64, 76
1, 164400, Note_off_c, 0, 56, 31
1, 164411, Control_c, 0, 64, 72
1, 164413, Poly_aftertouch_c, 0, 71, 0
1, 164426, Control_c, 0, 64, 70
1, 164441, Note_off_c, 0, 64, 56
1, 164441, Control_c, 0, 64, 68
1, 164456, Control_c, 0, 64, 66
1, 164478, Control_c, 0, 64, 64
1, 164493, Control_c, 0, 64, 62
1, 164508, Control_c, 0, 64, 60
1, 164523, Control_c, 0, 64, 56
1, 164537, Control_c, 0, 64, 47
1, 164552, Control_c, 0, 64, 0
1, 164563, Note_on_c, 0, 56, 33
1, 164569, Note_on_c, 0, 60, 54
1, 164657, Control_c, 0, 64, 28
1, 164667, Note_off_c, 0, 59, 30
1, 164672, Control_c, 0, 64, 54
1, 164686, Control_c, 0, 64, 63
1, 164701, Control_c, 0, 64, 66
1, 164702, Note_off_c, 0, 56, 52
1, 164707, Note_off_c, 0, 60, 60
1, 164716, Control_c, 0, 64, 68
1, 164731, Control_c, 0, 64, 73
1, 164746, Control_c, 0, 64, 82
1, 164760, Control_c, 0, 64, 99
1, 164775, Control_c, 0, 64, 127
1, 164825, Note_on_c, 0, 60, 42
1, 164831, Note_on_c, 0, 56, 35
1, 164888, Note_off_c, 0, 66, 52
1, 164903, Note_off_c, 0, 56, 51
1, 165150, Note_on_c, 0, 52, 33
1, 165190, Control_c, 0, 64, 110
1, 165204, Control_c, 0, 64, 101
1, 165227, Control_c, 0, 64, 94
1, 165232, Note_on_c, 0, 66, 34
1, 165242, Control_c, 0, 64, 89
1, 165246, Note_off_c, 0, 60, 54
1, 165257, Control_c, 0, 64, 85
1, 165272, Control_c, 0, 64, 82
1, 165286, Control_c, 0, 64, 80
1, 165301, Control_c, 0, 64, 77
1, 165316, Control_c, 0, 64, 72
1, 165331, Control_c, 0, 64, 66
1, 165346, Control_c, 0, 64, 61
1, 165360, Control_c, 0, 64, 57
1, 165376, Control_c, 0, 64, 56
1, 165391, Control_c, 0, 64, 57
1, 165406, Control_c, 0, 64, 58
1, 165421, Control_c, 0, 64, 60
1, 165435, Control_c, 0, 64, 62
1, 165450, Control_c, 0, 64, 64
1, 165465, Control_c, 0, 64, 67
1, 165480, Control_c, 0, 64, 74
1, 165495, Control_c, 0, 64, 83
1, 165508, Note_on_c, 0, 57, 36
1, 165509, Control_c, 0, 64, 97
1, 165514, Note_on_c, 0, 61, 41
1, 165524, Control_c, 0, 64, 127
1, 165574, Note_off_c, 0, 57, 54
1, 165577, Note_off_c, 0, 61, 56
1, 165618, Note_off_c, 0, 66, 35
1, 165672, Note_on_c, 0, 61, 35
1, 165682, Note_on_c, 0, 57, 33
1, 165833, Note_on_c, 0, 75, 51
1, 165846, Note_on_c, 0, 67, 36
1, 165859, Note_off_c, 0, 61, 40
1, 165861, Note_off_c, 0, 57, 30
1, 165993, Note_on_c, 0, 57, 37
1, 165994, Note_on_c, 0, 61, 39
1, 166056, Note_off_c, 0, 57, 53
1, 166060, Note_off_c, 0, 61, 50
1, 166082, Note_on_c, 0, 73, 72
1, 166092, Note_off_c, 0, 67, 58
1, 166159, Note_on_c, 0, 61, 35
1, 166181, Note_off_c, 0, 75, 57
1, 166187, Note_on_c, 0, 57, 40
1, 166313, Note_on_c, 0, 80, 74
1, 166356, Note_on_c, 0, 68, 45
1, 166397, Note_off_c, 0, 61, 37
1, 166405, Note_off_c, 0, 73, 58
1, 166464, Note_on_c, 0, 58, 41
1, 166470, Note_on_c, 0, 62, 46
1, 166512, Note_off_c, 0, 62, 60
1, 166514, Note_off_c, 0, 58, 57
1, 166535, Note_off_c, 0, 68, 56
1, 166559, Note_off_c, 0, 57, 22
1, 166611, Note_on_c, 0, 62, 55
1, 166612, Note_on_c, 0, 58, 51
1, 166691, Note_off_c, 0, 62, 60
1, 166727, Note_off_c, 0, 58, 60
1, 166742, Note_on_c, 0, 78, 77
1, 166757, Note_on_c, 0, 69, 65
1, 166769, Control_c, 0, 64, 107
1, 166784, Control_c, 0, 64, 92
1, 166798, Control_c, 0, 64, 83
1, 166813, Control_c, 0, 64, 77
1, 166819, Note_off_c, 0, 80, 57
1, 166828, Control_c, 0, 64, 71
1, 166843, Control_c, 0, 64, 67
1, 166857, Control_c, 0, 64, 63
1, 166872, Control_c, 0, 64, 62
1, 166875, Note_on_c, 0, 59, 40
1, 166887, Control_c, 0, 64, 62
1, 166888, Note_on_c, 0, 63, 41
1, 166902, Control_c, 0, 64, 63
1, 166917, Control_c, 0, 64, 65
1, 166931, Note_off_c, 0, 63, 61
1, 166931, Control_c, 0, 64, 66
1, 166946, Control_c, 0, 64, 70
1, 166950, Note_off_c, 0, 59, 57
1, 166961, Control_c, 0, 64, 77
1, 166977, Control_c, 0, 64, 96
1, 166992, Control_c, 0, 64, 127
1, 167025, Note_on_c, 0, 59, 25
1, 167040, Note_on_c, 0, 63, 52
1, 167040, Note_off_c, 0, 78, 56
1, 167115, Note_off_c, 0, 59, 59
1, 167187, Note_on_c, 0, 76, 66
1, 167194, Note_off_c, 0, 63, 56
1, 167203, Note_on_c, 0, 70, 49
1, 167214, Control_c, 0, 64, 113
1, 167228, Control_c, 0, 64, 100
1, 167243, Control_c, 0, 64, 92
1, 167258, Control_c, 0, 64, 87
1, 167273, Control_c, 0, 64, 82
1, 167288, Control_c, 0, 64, 76
1, 167292, Note_off_c, 0, 69, 31
1, 167302, Control_c, 0, 64, 69
1, 167317, Control_c, 0, 64, 62
1, 167318, Note_on_c, 0, 60, 42
1, 167327, Note_on_c, 0, 64, 41
1, 167332, Control_c, 0, 64, 57
1, 167347, Control_c, 0, 64, 59
1, 167362, Control_c, 0, 64, 60
1, 167377, Note_off_c, 0, 64, 58
1, 167377, Control_c, 0, 64, 62
1, 167382, Note_off_c, 0, 60, 58
1, 167392, Control_c, 0, 64, 64
1, 167406, Control_c, 0, 64, 66
1, 167421, Control_c, 0, 64, 71
1, 167436, Control_c, 0, 64, 83
1, 167451, Control_c, 0, 64, 101
1, 167466, Control_c, 0, 64, 127
1, 167475, Note_on_c, 0, 64, 48
1, 167478, Note_on_c, 0, 60, 41
1, 167539, Note_on_c, 0, 75, 59
1, 167568, Note_off_c, 0, 60, 58
1, 167621, Note_off_c, 0, 52, 38
1, 167635, Note_on_c, 0, 73, 67
1, 167636, Note_off_c, 0, 64, 31
1, 167668, Note_on_c, 0, 69, 53
1, 167699, Note_off_c, 0, 70, 33
1, 167773, Note_on_c, 0, 61, 47
1, 167773, Note_on_c, 0, 64, 48
1, 167818, Note_off_c, 0, 64, 58
1, 167825, Note_off_c, 0, 61, 53
1, 167904, Note_on_c, 0, 61, 43
1, 167911, Note_on_c, 0, 64, 50
1, 167948, Note_off_c, 0, 69, 63
1, 167958, Note_on_c, 0, 68, 69
1, 167980, Note_off_c, 0, 61, 55
1, 168044, Note_off_c, 0, 64, 54
1, 168051, Note_on_c, 0, 67, 74
1, 168054, Note_off_c, 0, 75, 51
1, 168072, Note_off_c, 0, 73, 61
1, 168093, Note_off_c, 0, 76, 32
1, 168165, Note_off_c, 0, 68, 49
1, 168180, Note_on_c, 0, 64, 54
1, 168185, Note_on_c, 0, 62, 50
1, 168242, Note_off_c, 0, 64, 56
1, 168247, Note_off_c, 0, 62, 56
1, 168318, Note_on_c, 0, 72, 76
1, 168347, Note_on_c, 0, 64, 41
1, 168354, Note_on_c, 0, 62, 39
1, 168415, Note_off_c, 0, 67, 58
1, 168424, Note_off_c, 0, 64, 53
1, 168428, Note_off_c, 0, 62, 51
1, 168439, Note_on_c, 0, 71, 79
1, 168543, Note_off_c, 0, 72, 51
1, 168581, Note_on_c, 0, 69, 83
1, 168591, Note_on_c, 0, 62, 50
1, 168630, Note_off_c, 0, 62, 62
1, 168712, Note_on_c, 0, 70, 87
1, 168749, Note_on_c, 0, 65, 41
1, 168749, Note_off_c, 0, 69, 61
1, 168753, Note_on_c, 0, 62, 47
1, 168762, Note_off_c, 0, 71, 58
1, 168806, Note_off_c, 0, 65, 54
1, 168877, Note_off_c, 0, 62, 56
1, 168879, Note_on_c, 0, 57, 49
1, 168935, Note_on_c, 0, 71, 76
1, 168949, Control_c, 0, 64, 106
1, 168972, Control_c, 0, 64, 95
1, 168981, Note_off_c, 0, 70, 58
1, 168987, Control_c, 0, 64, 85
1, 169001, Control_c, 0, 64, 75
1, 169016, Control_c, 0, 64, 64
1, 169031, Control_c, 0, 64, 50
1, 169045, Control_c, 0, 64, 38
1, 169060, Control_c, 0, 64, 40
1, 169075, Control_c, 0, 64, 45
1, 169090, Control_c, 0, 64, 51
1, 169099, Note_on_c, 0, 66, 50
1, 169103, Note_on_c, 0, 62, 51
1, 169105, Control_c, 0, 64, 56
1, 169119, Control_c, 0, 64, 63
1, 169134, Control_c, 0, 64, 68
1, 169141, Note_off_c, 0, 66, 62
1, 169149, Control_c, 0, 64, 76
1, 169153, Note_off_c, 0, 62, 58
1, 169164, Control_c, 0, 64, 95
1, 169179, Control_c, 0, 64, 127
1, 169192, Note_off_c, 0, 71, 58
1, 169232, Note_on_c, 0, 66, 63
1, 169238, Note_on_c, 0, 62, 58
1, 169320, Note_off_c, 0, 62, 56
1, 169321, Note_off_c, 0, 66, 50
1, 169325, Note_on_c, 0, 80, 80
1, 169341, Note_on_c, 0, 72, 62
1, 169431, Note_on_c, 0, 66, 57
1, 169445, Note_on_c, 0, 62, 59
1, 169510, Note_off_c, 0, 66, 58
1, 169516, Note_off_c, 0, 62, 56
1, 169517, Note_on_c, 0, 78, 91
1, 169522, Note_off_c, 0, 72, 59
1, 169584, Note_off_c, 0, 80, 59
1, 169601, Note_on_c, 0, 66, 67
1, 169602, Note_on_c, 0, 62, 60
1, 169655, Note_off_c, 0, 78, 61
1, 169705, Note_off_c, 0, 62, 59
1, 169742, Note_on_c, 0, 85, 86
1, 169762, Note_on_c, 0, 73, 70
1, 169779, Control_c, 0, 64, 108
1, 169780, Note_off_c, 0, 66, 60
1, 169794, Control_c, 0, 64, 87
1, 169809, Control_c, 0, 64, 73
1, 169823, Control_c, 0, 64, 62
1, 169838, Control_c, 0, 64, 49
1, 169853, Control_c, 0, 64, 45
1, 169867, Control_c, 0, 64, 50
1, 169870, Note_on_c, 0, 67, 54
1, 169876, Note_on_c, 0, 63, 46
1, 169882, Control_c, 0, 64, 56
1, 169897, Control_c, 0, 64, 62
1, 169912, Control_c, 0, 64, 68
1, 169927, Note_off_c, 0, 63, 57
1, 169927, Control_c, 0, 64, 78
1, 169932, Note_off_c, 0, 67, 57
1, 169941, Control_c, 0, 64, 101
1, 169956, Control_c, 0, 64, 127
1, 170009, Note_off_c, 0, 73, 59
1, 170018, Note_on_c, 0, 67, 52
1, 170024, Note_off_c, 0, 85, 62
1, 170024, Note_on_c, 0, 63, 52
1, 170133, Note_off_c, 0, 67, 53
1, 170171, Note_on_c, 0, 87, 78
1, 170186, Note_off_c, 0, 63, 30
1, 170191, Note_on_c, 0, 73, 59
1, 170310, Note_on_c, 0, 67, 46
1, 170323, Note_on_c, 0, 63, 41
1, 170360, Note_off_c, 0, 87, 57
1, 170364, Note_off_c, 0, 67, 57
1, 170374, Note_off_c, 0, 63, 57
1, 170421, Note_off_c, 0, 73, 30
1, 170474, Note_off_c, 0, 57, 42
1, 170484, Note_on_c, 0, 63, 42
1, 170492, Note_on_c, 0, 67, 45
1, 170647, Note_off_c, 0, 67, 34
1, 170648, Note_on_c, 0, 56, 41
1, 170676, Control_c, 0, 64, 106
1, 170682, Note_off_c, 0, 63, 36
1, 170683, Note_on_c, 0, 84, 58
1, 170690, Control_c, 0, 64, 92
1, 170696, Note_on_c, 0, 74, 42
1, 170705, Control_c, 0, 64, 83
1, 170720, Control_c, 0, 64, 75
1, 170735, Control_c, 0, 64, 67
1, 170750, Control_c, 0, 64, 58
1, 170764, Control_c, 0, 64, 47
1, 170779, Control_c, 0, 64, 46
1, 170794, Control_c, 0, 64, 49
1, 170809, Control_c, 0, 64, 54
1, 170823, Control_c, 0, 64, 59
1, 170838, Control_c, 0, 64, 64
1, 170850, Note_on_c, 0, 64, 40
1, 170853, Note_on_c, 0, 68, 38
1, 170853, Control_c, 0, 64, 69
1, 170868, Control_c, 0, 64, 79
1, 170883, Control_c, 0, 64, 92
1, 170893, Note_off_c, 0, 74, 59
1, 170897, Control_c, 0, 64, 114
1, 170909, Note_off_c, 0, 64, 52
1, 170909, Note_off_c, 0, 68, 49
1, 170912, Control_c, 0, 64, 127
1, 170966, Note_on_c, 0, 68, 36
1, 170983, Note_on_c, 0, 64, 40
1, 171046, Note_on_c, 0, 82, 67
1, 171079, Note_off_c, 0, 64, 55
1, 171133, Note_off_c, 0, 68, 42
1, 171145, Note_on_c, 0, 80, 72
1, 171171, Note_on_c, 0, 75, 56
1, 171280, Note_on_c, 0, 67, 51
1, 171288, Note_on_c, 0, 63, 46
1, 171332, Note_off_c, 0, 67, 55
1, 171336, Note_off_c, 0, 63, 58
1, 171419, Note_off_c, 0, 75, 53
1, 171437, Note_on_c, 0, 67, 56
1, 171440, Note_on_c, 0, 63, 57
1, 171522, Note_off_c, 0, 67, 61
1, 171565, Note_on_c, 0, 76, 70
1, 171592, Note_off_c, 0, 63, 54
1, 171693, Note_on_c, 0, 66, 52
1, 171696, Note_on_c, 0, 62, 48
1, 171741, Note_off_c, 0, 66, 57
1, 171748, Note_off_c, 0, 62, 57
1, 171861, Note_on_c, 0, 66, 52
1, 171875, Note_on_c, 0, 62, 44
1, 171922, Note_off_c, 0, 62, 60
1, 172021, Note_off_c, 0, 66, 30
1, 172023, Note_on_c, 0, 77, 54
1, 172137, Note_off_c, 0, 76, 54
1, 172168, Note_on_c, 0, 65, 43
1, 172175, Note_off_c, 0, 84, 31
1, 172187, Note_on_c, 0, 61, 39
1, 172228, Note_off_c, 0, 65, 55
1, 172233, Note_off_c, 0, 61, 57
1, 172270, Note_off_c, 0, 82, 35
1, 172295, Note_off_c, 0, 80, 55
1, 172319, Note_off_c, 0, 77, 51
1, 172365, Note_on_c, 0, 61, 42
1, 172365, Note_on_c, 0, 65, 43
1, 172377, Note_off_c, 0, 56, 36
1, 172617, Note_on_c, 0, 55, 49
1, 172679, Control_c, 0, 64, 113
1, 172693, Control_c, 0, 64, 108
1, 172716, Control_c, 0, 64, 104
1, 172731, Control_c, 0, 64, 102
1, 172740, Note_off_c, 0, 61, 34
1, 172746, Control_c, 0, 64, 98
1, 172760, Control_c, 0, 64, 93
1, 172775, Control_c, 0, 64, 89
1, 172790, Control_c, 0, 64, 85
1, 172805, Control_c, 0, 64, 82
1, 172820, Control_c, 0, 64, 79
1, 172831, Note_on_c, 0, 80, 32
1, 172835, Control_c, 0, 64, 75
1, 172835, Note_on_c, 0, 77, 37
1, 172835, Note_off_c, 0, 65, 33
1, 172849, Control_c, 0, 64, 71
1, 172864, Control_c, 0, 64, 66
1, 172879, Control_c, 0, 64, 61
1, 172893, Control_c, 0, 64, 59
1, 172908, Control_c, 0, 64, 60
1, 172923, Control_c, 0, 64, 61
1, 172938, Control_c, 0, 64, 62
1, 172953, Control_c, 0, 64, 62
1, 172967, Control_c, 0, 64, 64
1, 172977, Note_off_c, 0, 77, 54
1, 172982, Control_c, 0, 64, 65
1, 172984, Note_on_c, 0, 73, 40
1, 172997, Control_c, 0, 64, 67
1, 173010, Note_on_c, 0, 68, 30
1, 173012, Control_c, 0, 64, 70
1, 173014, Note_off_c, 0, 80, 42
1, 173027, Control_c, 0, 64, 76
1, 173041, Control_c, 0, 64, 82
1, 173056, Control_c, 0, 64, 89
1, 173071, Control_c, 0, 64, 98
1, 173086, Control_c, 0, 64, 113
1, 173100, Control_c, 0, 64, 127
1, 173112, Note_on_c, 0, 61, 61
1, 173171, Note_off_c, 0, 73, 41
1, 173178, Note_off_c, 0, 68, 28
1, 173211, Note_on_c, 0, 80, 43
1, 173229, Note_on_c, 0, 77, 45
1, 173300, Note_on_c, 0, 60, 75
1, 173313, Note_off_c, 0, 55, 59
1, 173345, Note_off_c, 0, 61, 56
1, 173359, Note_on_c, 0, 72, 52
1, 173380, Note_on_c, 0, 68, 39
1, 173419, Note_off_c, 0, 80, 29
1, 173428, Note_off_c, 0, 72, 56
1, 173429, Note_off_c, 0, 68, 55
1, 173468, Note_off_c, 0, 77, 26
1, 173552, Note_on_c, 0, 68, 80
1, 173673, Note_off_c, 0, 60, 63
1, 173705, Note_on_c, 0, 67, 58
1, 173840, Note_on_c, 0, 73, 76
1, 173933, Poly_aftertouch_c, 0, 76, 127
1, 173953, Control_c, 0, 64, 123
1, 173956, Note_off_c, 0, 67, 45
1, 173968, Control_c, 0, 64, 110
1, 173983, Control_c, 0, 64, 103
1, 173988, Note_on_c, 0, 64, 46
1, 173997, Control_c, 0, 64, 97
1, 174012, Control_c, 0, 64, 91
1, 174024, Note_on_c, 0, 72, 64
1, 174027, Control_c, 0, 64, 86
1, 174041, Control_c, 0, 64, 81
1, 174048, Note_off_c, 0, 68, 55
1, 174056, Control_c, 0, 64, 77
1, 174071, Control_c, 0, 64, 72
1, 174072, Poly_aftertouch_c, 0, 76, 0
1, 174086, Note_off_c, 0, 73, 58
1, 174086, Control_c, 0, 64, 65
1, 174101, Control_c, 0, 64, 57
1, 174115, Control_c, 0, 64, 48
1, 174130, Control_c, 0, 64, 45
1, 174145, Control_c, 0, 64, 46
1, 174161, Control_c, 0, 64, 50
1, 174176, Control_c, 0, 64, 54
1, 174191, Control_c, 0, 64, 58
1, 174212, Control_c, 0, 64, 61
1, 174227, Control_c, 0, 64, 64
1, 174242, Control_c, 0, 64, 68
1, 174257, Control_c, 0, 64, 74
1, 174270, Note_on_c, 0, 65, 42
1, 174272, Control_c, 0, 64, 81
1, 174287, Control_c, 0, 64, 92
1, 174302, Control_c, 0, 64, 107
1, 174316, Control_c, 0, 64, 127
1, 174361, Note_off_c, 0, 64, 36
1, 174362, Note_off_c, 0, 65, 60
1, 174404, Note_on_c, 0, 80, 56
1, 174471, Note_off_c, 0, 72, 37
1, 174553, Control_c, 0, 67, 15
1, 174568, Control_c, 0, 67, 22
1, 174583, Control_c, 0, 67, 28
1, 174598, Control_c, 0, 67, 35
1, 174612, Control_c, 0, 67, 41
1, 174627, Control_c, 0, 67, 46
1, 174642, Control_c, 0, 67, 51
1, 174656, Control_c, 0, 67, 55
1, 174671, Control_c, 0, 67, 58
1, 174686, Control_c, 0, 67, 62
1, 174701, Control_c, 0, 67, 66
1, 174704, Note_on_c, 0, 54, 31
1, 174716, Control_c, 0, 67, 70
1, 174731, Control_c, 0, 64, 118
1, 174731, Control_c, 0, 67, 75
1, 174743, Note_on_c, 0, 68, 42
1, 174746, Control_c, 0, 64, 111
1, 174746, Control_c, 0, 67, 78
1, 174761, Control_c, 0, 64, 104
1, 174761, Control_c, 0, 67, 80
1, 174776, Control_c, 0, 64, 97
1, 174776, Control_c, 0, 67, 82
1, 174790, Control_c, 0, 64, 87
1, 174790, Control_c, 0, 67, 88
1, 174805, Control_c, 0, 64, 79
1, 174805, Control_c, 0, 67, 95
1, 174820, Control_c, 0, 64, 73
1, 174820, Control_c, 0, 67, 100
1, 174833, Note_off_c, 0, 80, 12
1, 174835, Control_c, 0, 64, 67
1, 174835, Control_c, 0, 67, 105
1, 174850, Control_c, 0, 64, 62
1, 174850, Control_c, 0, 67, 109
1, 174864, Control_c, 0, 64, 56
1, 174864, Control_c, 0, 67, 112
1, 174879, Control_c, 0, 64, 49
1, 174879, Control_c, 0, 67, 116
1, 174894, Control_c, 0, 64, 47
1, 174894, Control_c, 0, 67, 120
1, 174909, Control_c, 0, 64, 49
1, 174909, Control_c, 0, 67, 122
1, 174924, Control_c, 0, 64, 52
1, 174924, Control_c, 0, 67, 122
1, 174938, Control_c, 0, 64, 55
1, 174938, Control_c, 0, 67, 123
1, 174953, Control_c, 0, 64, 58
1, 174976, Control_c, 0, 64, 62
1, 174976, Control_c, 0, 67, 124
1, 174985, Note_on_c, 0, 59, 25
1, 174985, Note_on_c, 0, 63, 25
1, 174991, Control_c, 0, 64, 66
1, 175006, Control_c, 0, 64, 70
1, 175021, Control_c, 0, 64, 76
1, 175036, Control_c, 0, 64, 84
1, 175038, Note_off_c, 0, 63, 46
1, 175042, Note_off_c, 0, 59, 54
1, 175050, Control_c, 0, 64, 93
1, 175065, Control_c, 0, 64, 105
1, 175080, Control_c, 0, 64, 127
1, 175133, Note_off_c, 0, 68, 27
1, 175158, Note_on_c, 0, 59, 28
1, 175166, Note_on_c, 0, 63, 37
1, 175235, Note_off_c, 0, 63, 45
1, 175261, Note_off_c, 0, 59, 50
1, 175302, Control_c, 0, 67, 123
1, 175327, Note_on_c, 0, 77, 42
1, 175338, Note_on_c, 0, 69, 43
1, 175406, Control_c, 0, 67, 122
1, 175465, Control_c, 0, 67, 122
1, 175476, Note_on_c, 0, 63, 33
1, 175478, Note_on_c, 0, 59, 30
1, 175528, Note_off_c, 0, 63, 51
1, 175542, Note_off_c, 0, 59, 52
1, 175578, Note_on_c, 0, 75, 51
1, 175591, Note_off_c, 0, 77, 54
1, 175627, Note_off_c, 0, 69, 57
1, 175646, Note_on_c, 0, 59, 29
1, 175654, Note_on_c, 0, 63, 36
1, 175709, Note_off_c, 0, 59, 57
1, 175722, Note_off_c, 0, 75, 57
1, 175770, Control_c, 0, 67, 121
1, 175801, Note_on_c, 0, 82, 60
1, 175801, Note_off_c, 0, 63, 35
1, 175804, Note_on_c, 0, 70, 57
1, 175829, Control_c, 0, 67, 120
1, 175873, Control_c, 0, 67, 120
1, 175917, Control_c, 0, 67, 119
1, 175942, Note_on_c, 0, 64, 43
1, 175944, Note_on_c, 0, 60, 33
1, 175947, Control_c, 0, 67, 119
1, 175992, Control_c, 0, 67, 118
1, 175994, Note_off_c, 0, 64, 56
1, 175995, Note_off_c, 0, 60, 57
1, 176022, Control_c, 0, 67, 117
1, 176046, Note_off_c, 0, 70, 56
1, 176065, Control_c, 0, 67, 117
1, 176095, Control_c, 0, 67, 116
1, 176105, Note_on_c, 0, 64, 47
1, 176117, Note_on_c, 0, 60, 42
1, 176153, Note_off_c, 0, 64, 58
1, 176167, Note_off_c, 0, 60, 58
1, 176169, Control_c, 0, 67, 115
1, 176213, Control_c, 0, 67, 115
1, 176249, Note_on_c, 0, 80, 71
1, 176254, Note_on_c, 0, 71, 65
1, 176257, Control_c, 0, 64, 118
1, 176257, Control_c, 0, 67, 114
1, 176272, Control_c, 0, 64, 107
1, 176287, Control_c, 0, 64, 101
1, 176294, Note_off_c, 0, 82, 64
1, 176302, Control_c, 0, 64, 97
1, 176302, Control_c, 0, 67, 114
1, 176317, Control_c, 0, 64, 94
1, 176332, Control_c, 0, 64, 89
1, 176346, Control_c, 0, 64, 84
1, 176346, Control_c, 0, 67, 113
1, 176361, Control_c, 0, 64, 76
1, 176376, Control_c, 0, 64, 71
1, 176376, Control_c, 0, 67, 112
1, 176381, Note_on_c, 0, 65, 38
1, 176391, Control_c, 0, 64, 69
1, 176393, Note_on_c, 0, 61, 40
1, 176406, Control_c, 0, 64, 69
1, 176421, Control_c, 0, 64, 70
1, 176421, Control_c, 0, 67, 112
1, 176435, Note_off_c, 0, 65, 43
1, 176436, Control_c, 0, 64, 71
1, 176445, Note_off_c, 0, 61, 57
1, 176457, Control_c, 0, 64, 72
1, 176457, Control_c, 0, 67, 111
1, 176472, Control_c, 0, 64, 77
1, 176487, Control_c, 0, 64, 82
1, 176487, Control_c, 0, 67, 110
1, 176502, Control_c, 0, 64, 92
1, 176516, Control_c, 0, 64, 107
1, 176531, Control_c, 0, 64, 127
1, 176540, Note_off_c, 0, 71, 56
1, 176543, Note_on_c, 0, 65, 42
1, 176558, Note_on_c, 0, 61, 46
1, 176562, Control_c, 0, 67, 110
1, 176627, Note_off_c, 0, 65, 57
1, 176659, Note_off_c, 0, 61, 51
1, 176680, Control_c, 0, 64, 114
1, 176695, Control_c, 0, 64, 107
1, 176710, Control_c, 0, 64, 102
1, 176713, Note_on_c, 0, 78, 59
1, 176725, Control_c, 0, 64, 98
1, 176727, Note_on_c, 0, 72, 48
1, 176740, Control_c, 0, 64, 94
1, 176755, Control_c, 0, 64, 90
1, 176770, Control_c, 0, 64, 85
1, 176785, Control_c, 0, 64, 79
1, 176794, Note_off_c, 0, 80, 58
1, 176800, Control_c, 0, 64, 72
1, 176814, Control_c, 0, 64, 65
1, 176829, Control_c, 0, 64, 55
1, 176844, Control_c, 0, 64, 51
1, 176859, Control_c, 0, 64, 53
1, 176860, Note_on_c, 0, 66, 38
1, 176862, Note_on_c, 0, 62, 40
1, 176874, Control_c, 0, 64, 54
1, 176888, Control_c, 0, 64, 57
1, 176903, Control_c, 0, 64, 60
1, 176903, Control_c, 0, 67, 109
1, 176904, Note_off_c, 0, 66, 57
1, 176910, Note_off_c, 0, 62, 59
1, 176918, Control_c, 0, 64, 63
1, 176932, Control_c, 0, 64, 67
1, 176947, Control_c, 0, 64, 73
1, 176962, Control_c, 0, 64, 81
1, 176977, Note_on_c, 0, 66, 40
1, 176977, Control_c, 0, 64, 91
1, 176977, Control_c, 0, 67, 109
1, 176992, Control_c, 0, 64, 104
1, 176999, Note_off_c, 0, 78, 55
1, 177001, Note_on_c, 0, 62, 37
1, 177006, Control_c, 0, 64, 127
1, 177035, Note_off_c, 0, 72, 38
1, 177062, Note_on_c, 0, 77, 50
1, 177086, Note_off_c, 0, 62, 53
1, 177095, Control_c, 0, 67, 108
1, 177139, Control_c, 0, 67, 107
1, 177161, Note_off_c, 0, 66, 38
1, 177189, Note_on_c, 0, 75, 55
1, 177225, Note_on_c, 0, 71, 47
1, 177329, Note_on_c, 0, 66, 38
1, 177334, Note_on_c, 0, 63, 42
1, 177377, Note_off_c, 0, 66, 55
1, 177384, Note_off_c, 0, 63, 57
1, 177415, Control_c, 0, 67, 107
1, 177462, Note_on_c, 0, 66, 37
1, 177474, Note_on_c, 0, 63, 42
1, 177474, Control_c, 0, 67, 106
1, 177518, Control_c, 0, 67, 105
1, 177527, Note_off_c, 0, 71, 61
1, 177539, Note_on_c, 0, 70, 57
1, 177543, Note_off_c, 0, 54, 42
1, 177563, Note_off_c, 0, 63, 52
1, 177578, Control_c, 0, 67, 105
1, 177646, Note_on_c, 0, 69, 67
1, 177657, Note_off_c, 0, 66, 37
1, 177681, Control_c, 0, 67, 104
1, 177762, Note_off_c, 0, 70, 38
1, 177774, Note_off_c, 0, 75, 38
1, 177789, Note_on_c, 0, 64, 46
1, 177792, Note_on_c, 0, 66, 48
1, 177837, Note_off_c, 0, 64, 58
1, 177840, Note_off_c, 0, 66, 57
1, 177874, Control_c, 0, 67, 103
1, 177903, Control_c, 0, 67, 103
1, 177933, Control_c, 0, 67, 102
1, 177938, Note_on_c, 0, 74, 68
1, 177947, Note_on_c, 0, 66, 42
1, 177959, Note_on_c, 0, 64, 45
1, 177999, Note_off_c, 0, 77, 6
1, 178000, Control_c, 0, 67, 102
1, 178034, Note_off_c, 0, 64, 49
1, 178044, Control_c, 0, 67, 101
1, 178052, Note_off_c, 0, 69, 57
1, 178083, Note_off_c, 0, 66, 36
1, 178088, Control_c, 0, 67, 100
1, 178092, Note_on_c, 0, 73, 78
1, 178148, Control_c, 0, 67, 100
1, 178178, Control_c, 0, 67, 99
1, 178192, Note_off_c, 0, 74, 58
1, 178208, Control_c, 0, 67, 98
1, 178225, Note_on_c, 0, 67, 54
1, 178230, Note_on_c, 0, 64, 46
1, 178234, Note_on_c, 0, 71, 79
1, 178283, Note_off_c, 0, 67, 50
1, 178290, Note_off_c, 0, 64, 55
1, 178311, Control_c, 0, 67, 98
1, 178384, Note_on_c, 0, 72, 83
1, 178385, Note_on_c, 0, 67, 49
1, 178402, Note_on_c, 0, 64, 55
1, 178406, Note_off_c, 0, 71, 61
1, 178448, Note_off_c, 0, 73, 59
1, 178578, Control_c, 0, 64, 115
1, 178578, Control_c, 0, 67, 98
1, 178582, Note_on_c, 0, 59, 45
1, 178582, Note_off_c, 0, 67, 38
1, 178593, Control_c, 0, 64, 106
1, 178608, Control_c, 0, 64, 95
1, 178623, Control_c, 0, 64, 85
1, 178623, Control_c, 0, 67, 99
1, 178624, Note_off_c, 0, 64, 50
1, 178630, Note_on_c, 0, 73, 74
1, 178638, Control_c, 0, 64, 75
1, 178652, Control_c, 0, 64, 65
1, 178657, Note_off_c, 0, 72, 60
1, 178667, Control_c, 0, 64, 55
1, 178682, Control_c, 0, 64, 43
1, 178719, Control_c, 0, 64, 45
1, 178734, Control_c, 0, 64, 51
1, 178749, Control_c, 0, 64, 57
1, 178764, Control_c, 0, 64, 62
1, 178779, Control_c, 0, 64, 67
1, 178793, Control_c, 0, 64, 74
1, 178793, Control_c, 0, 67, 100
1, 178808, Control_c, 0, 64, 87
1, 178823, Control_c, 0, 64, 111
1, 178823, Control_c, 0, 67, 100
1, 178838, Control_c, 0, 64, 127
1, 178842, Note_on_c, 0, 64, 51
1, 178844, Note_on_c, 0, 68, 52
1, 178853, Control_c, 0, 67, 101
1, 178867, Control_c, 0, 67, 102
1, 178897, Control_c, 0, 67, 102
1, 178904, Note_off_c, 0, 68, 55
1, 178916, Note_off_c, 0, 64, 57
1, 178945, Note_off_c, 0, 73, 54
1, 178988, Note_on_c, 0, 68, 56
1, 178993, Note_on_c, 0, 64, 51
1, 179031, Control_c, 0, 67, 103
1, 179095, Note_off_c, 0, 64, 56
1, 179101, Note_off_c, 0, 68, 52
1, 179107, Note_on_c, 0, 82, 83
1, 179124, Note_on_c, 0, 74, 62
1, 179134, Control_c, 0, 67, 102
1, 179223, Control_c, 0, 67, 102
1, 179229, Note_on_c, 0, 64, 59
1, 179233, Note_on_c, 0, 68, 62
1, 179292, Note_off_c, 0, 74, 59
1, 179319, Note_on_c, 0, 80, 90
1, 179324, Note_off_c, 0, 68, 50
1, 179327, Note_off_c, 0, 64, 55
1, 179359, Note_off_c, 0, 82, 61
1, 179401, Control_c, 0, 67, 102
1, 179408, Note_on_c, 0, 64, 51
1, 179408, Note_on_c, 0, 68, 55
1, 179414, Note_off_c, 0, 80, 64
1, 179431, Control_c, 0, 67, 103
1, 179512, Control_c, 0, 67, 103
1, 179522, Note_off_c, 0, 64, 59
1, 179527, Control_c, 0, 67, 104
1, 179539, Note_on_c, 0, 87, 85
1, 179542, Control_c, 0, 67, 105
1, 179557, Control_c, 0, 64, 99
1, 179570, Note_on_c, 0, 75, 53
1, 179572, Control_c, 0, 64, 82
1, 179587, Control_c, 0, 64, 67
1, 179596, Note_off_c, 0, 68, 61
1, 179602, Control_c, 0, 64, 52
1, 179616, Control_c, 0, 64, 24
1, 179631, Control_c, 0, 64, 33
1, 179646, Control_c, 0, 64, 43
1, 179660, Control_c, 0, 64, 52
1, 179675, Control_c, 0, 64, 61
1, 179683, Note_on_c, 0, 69, 49
1, 179684, Note_on_c, 0, 65, 44
1, 179690, Control_c, 0, 64, 67
1, 179705, Control_c, 0, 64, 77
1, 179720, Control_c, 0, 64, 105
1, 179725, Note_off_c, 0, 75, 57
1, 179729, Note_off_c, 0, 69, 58
1, 179733, Note_off_c, 0, 65, 57
1, 179734, Control_c, 0, 64, 127
1, 179750, Control_c, 0, 67, 104
1, 179822, Note_on_c, 0, 65, 40
1, 179832, Note_on_c, 0, 69, 45
1, 179904, Note_off_c, 0, 87, 63
1, 179914, Note_on_c, 0, 75, 51
1, 179971, Note_off_c, 0, 75, 52
1, 179987, Control_c, 0, 67, 103
1, 179998, Note_off_c, 0, 65, 40
1, 180018, Note_off_c, 0, 69, 39
1, 180035, Note_on_c, 0, 89, 76
1, 180105, Control_c, 0, 67, 103
1, 180166, Note_off_c, 0, 89, 57
1, 180186, Note_on_c, 0, 69, 37
1, 180209, Note_on_c, 0, 65, 36
1, 180246, Note_off_c, 0, 69, 56
1, 180254, Note_off_c, 0, 65, 57
1, 180290, Control_c, 0, 67, 102
1, 180329, Note_off_c, 0, 59, 54
1, 180371, Note_on_c, 0, 69, 46
1, 180380, Note_on_c, 0, 65, 43
1, 180521, Note_off_c, 0, 69, 33
1, 180528, Control_c, 0, 64, 121
1, 180543, Note_on_c, 0, 58, 38
1, 180543, Control_c, 0, 64, 110
1, 180559, Control_c, 0, 64, 102
1, 180567, Note_off_c, 0, 65, 50
1, 180573, Control_c, 0, 64, 96
1, 180576, Note_on_c, 0, 86, 54
1, 180588, Control_c, 0, 64, 88
1, 180596, Note_on_c, 0, 76, 40
1, 180603, Control_c, 0, 64, 78
1, 180618, Control_c, 0, 64, 68
1, 180633, Control_c, 0, 64, 59
1, 180648, Control_c, 0, 64, 48
1, 180662, Control_c, 0, 64, 48
1, 180677, Control_c, 0, 64, 51
1, 180692, Control_c, 0, 64, 54
1, 180706, Control_c, 0, 64, 58
1, 180721, Control_c, 0, 64, 62
1, 180736, Control_c, 0, 64, 66
1, 180751, Control_c, 0, 64, 73
1, 180766, Control_c, 0, 64, 83
1, 180766, Control_c, 0, 67, 102
1, 180770, Note_on_c, 0, 70, 34
1, 180775, Note_on_c, 0, 66, 38
1, 180780, Control_c, 0, 64, 97
1, 180795, Control_c, 0, 64, 127
1, 180826, Note_off_c, 0, 70, 52
1, 180827, Note_off_c, 0, 66, 58
1, 180833, Note_off_c, 0, 76, 34
1, 180904, Note_on_c, 0, 70, 25
1, 180933, Note_on_c, 0, 66, 29
1, 181008, Note_off_c, 0, 66, 50
1, 181012, Note_on_c, 0, 84, 55
1, 181054, Control_c, 0, 67, 101
1, 181071, Note_off_c, 0, 70, 42
1, 181099, Note_on_c, 0, 82, 65
1, 181127, Note_on_c, 0, 77, 49
1, 181128, Control_c, 0, 67, 100
1, 181255, Note_on_c, 0, 69, 44
1, 181257, Note_on_c, 0, 65, 35
1, 181304, Note_off_c, 0, 69, 59
1, 181313, Note_off_c, 0, 65, 56
1, 181381, Control_c, 0, 67, 100
1, 181424, Note_on_c, 0, 69, 49
1, 181453, Note_on_c, 0, 65, 31
1, 181502, Note_off_c, 0, 69, 59
1, 181529, Note_off_c, 0, 65, 50
1, 181601, Note_on_c, 0, 78, 51
1, 181748, Note_off_c, 0, 77, 36
1, 181763, Note_on_c, 0, 64, 40
1, 181772, Note_on_c, 0, 68, 40
1, 181822, Note_off_c, 0, 64, 54
1, 181823, Note_off_c, 0, 68, 52
1, 181843, Note_off_c, 0, 84, 28
1, 181847, Note_off_c, 0, 82, 34
1, 181951, Note_on_c, 0, 68, 36
1, 181969, Note_on_c, 0, 64, 39
1, 182034, Note_off_c, 0, 64, 53
1, 182129, Note_off_c, 0, 68, 36
1, 182132, Note_on_c, 0, 79, 44
1, 182132, Note_off_c, 0, 86, 34
1, 182312, Note_off_c, 0, 79, 36
1, 182344, Note_off_c, 0, 78, 20
1, 182347, Note_on_c, 0, 80, 42
1, 182359, Note_on_c, 0, 67, 32
1, 182377, Note_on_c, 0, 63, 22
1, 182420, Note_off_c, 0, 67, 53
1, 182437, Note_off_c, 0, 63, 45
1, 182473, Note_off_c, 0, 58, 31
1, 182567, Control_c, 0, 67, 100
1, 182594, Note_on_c, 0, 67, 18
1, 182596, Note_on_c, 0, 81, 45
1, 182597, Control_c, 0, 67, 101
1, 182609, Note_on_c, 0, 63, 35
1, 182612, Note_off_c, 0, 80, 26
1, 182626, Control_c, 0, 67, 102
1, 182633, Note_off_c, 0, 67, 41
1, 182646, Note_off_c, 0, 63, 60
1, 182648, Note_off_c, 0, 81, 64
1, 182656, Control_c, 0, 67, 102
1, 182700, Control_c, 0, 67, 103
1, 182730, Control_c, 0, 67, 103
1, 182922, Control_c, 0, 64, 110
1, 182937, Control_c, 0, 64, 99
1, 182939, Note_on_c, 0, 82, 44
1, 182951, Note_on_c, 0, 78, 37
1, 182953, Control_c, 0, 64, 93
1, 182955, Note_on_c, 0, 73, 37
1, 182967, Control_c, 0, 64, 89
1, 182973, Note_on_c, 0, 27, 38
1, 182979, Note_on_c, 0, 39, 31
1, 182982, Control_c, 0, 64, 85
1, 182997, Control_c, 0, 64, 80
1, 183012, Control_c, 0, 64, 72
1, 183012, Control_c, 0, 67, 104
1, 183027, Control_c, 0, 64, 64
1, 183042, Control_c, 0, 64, 55
1, 183057, Control_c, 0, 64, 49
1, 183071, Control_c, 0, 64, 51
1, 183086, Control_c, 0, 64, 53
1, 183101, Control_c, 0, 64, 57
1, 183116, Control_c, 0, 64, 60
1, 183131, Control_c, 0, 64, 63
1, 183146, Control_c, 0, 64, 66
1, 183161, Control_c, 0, 64, 72
1, 183175, Control_c, 0, 64, 80
1, 183197, Control_c, 0, 64, 91
1, 183212, Control_c, 0, 64, 106
1, 183227, Control_c, 0, 64, 127
1, 183249, Note_off_c, 0, 27, 42
1, 183267, Note_off_c, 0, 39, 42
1, 183275, Note_off_c, 0, 73, 37
1, 183304, Note_off_c, 0, 78, 36
1, 183313, Note_on_c, 0, 70, 23
1, 183313, Note_off_c, 0, 82, 36
1, 183454, Note_off_c, 0, 70, 40
1, 183467, Note_on_c, 0, 82, 24
1, 183469, Note_on_c, 0, 78, 25
1, 183480, Note_on_c, 0, 73, 34
1, 183507, Note_off_c, 0, 82, 50
1, 183508, Note_off_c, 0, 78, 51
1, 183516, Note_off_c, 0, 73, 53
1, 183613, Control_c, 0, 67, 103
1, 183620, Note_on_c, 0, 35, 32
1, 183625, Note_on_c, 0, 82, 44
1, 183629, Note_on_c, 0, 47, 19
1, 183637, Note_on_c, 0, 73, 42
1, 183641, Note_on_c, 0, 78, 30
1, 183678, Note_off_c, 0, 47, 46
1, 183682, Note_off_c, 0, 35, 47
1, 183730, Note_off_c, 0, 73, 56
1, 183747, Control_c, 0, 67, 104
1, 183785, Note_on_c, 0, 70, 36
1, 183799, Note_off_c, 0, 82, 39
1, 183799, Note_off_c, 0, 78, 23
1, 183806, Control_c, 0, 67, 105
1, 183827, Note_on_c, 0, 46, 51
1, 183837, Note_off_c, 0, 70, 58
1, 183840, Note_on_c, 0, 34, 38
1, 183877, Note_off_c, 0, 46, 59
1, 183883, Note_off_c, 0, 34, 49
1, 183933, Note_on_c, 0, 83, 67
1, 183948, Note_on_c, 0, 74, 54
1, 183962, Control_c, 0, 67, 105
1, 183980, Note_on_c, 0, 79, 24
1, 183990, Note_off_c, 0, 83, 60
1, 183998, Note_off_c, 0, 74, 60
1, 184016, Note_off_c, 0, 79, 43
1, 184097, Note_on_c, 0, 82, 72
1, 184119, Note_on_c, 0, 58, 46
1, 184126, Note_on_c, 0, 73, 58
1, 184128, Note_on_c, 0, 46, 43
1, 184133, Note_on_c, 0, 78, 48
1, 184213, Control_c, 0, 67, 106
1, 184214, Note_off_c, 0, 73, 60
1, 184235, Note_off_c, 0, 78, 57
1, 184238, Note_on_c, 0, 70, 50
1, 184253, Note_off_c, 0, 82, 58
1, 184275, Note_off_c, 0, 46, 54
1, 184289, Note_off_c, 0, 58, 58
1, 184331, Control_c, 0, 67, 107
1, 184359, Note_off_c, 0, 70, 35
1, 184366, Note_on_c, 0, 73, 43
1, 184369, Note_on_c, 0, 82, 60
1, 184380, Note_on_c, 0, 78, 47
1, 184407, Note_off_c, 0, 82, 64
1, 184419, Note_off_c, 0, 73, 59
1, 184425, Note_off_c, 0, 78, 55
1, 184507, Note_on_c, 0, 64, 57
1, 184511, Note_on_c, 0, 81, 74
1, 184516, Note_on_c, 0, 52, 53
1, 184532, Note_on_c, 0, 72, 50
1, 184547, Note_on_c, 0, 77, 46
1, 184575, Note_off_c, 0, 52, 59
1, 184577, Note_off_c, 0, 64, 62
1, 184618, Note_off_c, 0, 81, 61
1, 184625, Note_off_c, 0, 77, 51
1, 184628, Note_on_c, 0, 69, 59
1, 184633, Note_off_c, 0, 72, 53
1, 184708, Note_on_c, 0, 63, 76
1, 184717, Note_on_c, 0, 51, 65
1, 184753, Note_off_c, 0, 51, 67
1, 184770, Note_off_c, 0, 63, 61
1, 184796, Note_on_c, 0, 81, 50
1, 184798, Note_on_c, 0, 72, 52
1, 184804, Note_on_c, 0, 77, 46
1, 184814, Control_c, 0, 67, 107
1, 184821, Note_off_c, 0, 81, 55
1, 184836, Note_off_c, 0, 69, 33
1, 184845, Note_off_c, 0, 77, 60
1, 184863, Note_off_c, 0, 72, 55
1, 184873, Control_c, 0, 67, 108
1, 184955, Note_on_c, 0, 80, 73
1, 184961, Control_c, 0, 64, 87
1, 184976, Note_on_c, 0, 76, 52
1, 184976, Control_c, 0, 64, 69
1, 184984, Note_on_c, 0, 73, 66
1, 184990, Note_on_c, 0, 71, 44
1, 184991, Control_c, 0, 64, 53
1, 184997, Note_on_c, 0, 61, 54
1, 185006, Control_c, 0, 64, 28
1, 185021, Control_c, 0, 64, 35
1, 185036, Control_c, 0, 64, 47
1, 185051, Control_c, 0, 64, 57
1, 185066, Control_c, 0, 64, 65
1, 185081, Control_c, 0, 64, 74
1, 185086, Note_off_c, 0, 61, 59
1, 185095, Control_c, 0, 64, 93
1, 185110, Control_c, 0, 64, 127
1, 185112, Note_off_c, 0, 73, 61
1, 185139, Note_on_c, 0, 68, 57
1, 185158, Note_off_c, 0, 80, 56
1, 185175, Note_off_c, 0, 71, 53
1, 185185, Note_off_c, 0, 76, 59
1, 185251, Note_on_c, 0, 71, 53
1, 185256, Note_on_c, 0, 80, 61
1, 185257, Note_off_c, 0, 68, 57
1, 185264, Note_on_c, 0, 76, 44
1, 185313, Note_off_c, 0, 76, 59
1, 185324, Note_off_c, 0, 71, 56
1, 185330, Note_off_c, 0, 80, 52
1, 185332, Control_c, 0, 67, 107
1, 185374, Note_on_c, 0, 83, 79
1, 185377, Control_c, 0, 67, 107
1, 185383, Note_on_c, 0, 71, 33
1, 185392, Control_c, 0, 67, 106
1, 185394, Note_on_c, 0, 80, 24
1, 185405, Note_on_c, 0, 76, 50
1, 185489, Control_c, 0, 67, 105
1, 185507, Note_on_c, 0, 68, 62
1, 185517, Note_off_c, 0, 76, 57
1, 185518, Control_c, 0, 67, 105
1, 185544, Note_off_c, 0, 71, 35
1, 185549, Note_off_c, 0, 80, 35
1, 185563, Control_c, 0, 67, 104
1, 185584, Note_on_c, 0, 82, 84
1, 185593, Note_off_c, 0, 83, 62
1, 185642, Note_off_c, 0, 82, 63
1, 185647, Note_on_c, 0, 71, 64
1, 185653, Note_on_c, 0, 80, 57
1, 185665, Note_on_c, 0, 76, 50
1, 185670, Note_off_c, 0, 68, 37
1, 185696, Control_c, 0, 67, 105
1, 185708, Note_off_c, 0, 76, 63
1, 185710, Note_off_c, 0, 71, 59
1, 185711, Control_c, 0, 67, 105
1, 185719, Note_off_c, 0, 80, 55
1, 185740, Control_c, 0, 67, 106
1, 185784, Control_c, 0, 67, 107
1, 185799, Control_c, 0, 67, 107
1, 185814, Note_on_c, 0, 94, 84
1, 185814, Control_c, 0, 64, 95
1, 185815, Note_on_c, 0, 79, 77
1, 185829, Control_c, 0, 64, 80
1, 185829, Control_c, 0, 67, 108
1, 185836, Note_on_c, 0, 75, 57
1, 185844, Control_c, 0, 64, 71
1, 185847, Note_on_c, 0, 70, 46
1, 185859, Control_c, 0, 64, 67
1, 185873, Control_c, 0, 64, 69
1, 185876, Note_off_c, 0, 94, 63
1, 185888, Control_c, 0, 64, 74
1, 185903, Control_c, 0, 64, 83
1, 185918, Control_c, 0, 64, 101
1, 185930, Note_off_c, 0, 70, 57
1, 185933, Control_c, 0, 64, 127
1, 185942, Note_on_c, 0, 67, 60
1, 185943, Note_off_c, 0, 75, 49
1, 185947, Note_off_c, 0, 79, 57
1, 185992, Control_c, 0, 67, 107
1, 186007, Control_c, 0, 67, 107
1, 186022, Control_c, 0, 67, 106
1, 186051, Control_c, 0, 67, 105
1, 186086, Note_on_c, 0, 79, 61
1, 186090, Note_on_c, 0, 75, 50
1, 186102, Note_on_c, 0, 70, 48
1, 186129, Note_off_c, 0, 79, 58
1, 186143, Note_off_c, 0, 67, 59
1, 186151, Note_off_c, 0, 70, 58
1, 186155, Note_off_c, 0, 75, 57
1, 186222, Control_c, 0, 67, 106
1, 186245, Note_on_c, 0, 78, 73
1, 186252, Note_on_c, 0, 58, 55
1, 186259, Note_on_c, 0, 46, 53
1, 186267, Note_on_c, 0, 69, 64
1, 186269, Note_on_c, 0, 74, 56
1, 186329, Note_off_c, 0, 58, 60
1, 186383, Note_on_c, 0, 66, 59
1, 186389, Note_off_c, 0, 74, 57
1, 186396, Note_off_c, 0, 46, 60
1, 186420, Note_off_c, 0, 69, 38
1, 186441, Note_off_c, 0, 78, 56
1, 186482, Note_off_c, 0, 66, 58
1, 186519, Control_c, 0, 67, 107
1, 186536, Note_on_c, 0, 69, 46
1, 186557, Note_on_c, 0, 74, 37
1, 186560, Note_on_c, 0, 78, 33
1, 186622, Note_off_c, 0, 74, 58
1, 186628, Note_off_c, 0, 69, 60
1, 186646, Note_off_c, 0, 78, 60
1, 186726, Note_on_c, 0, 36, 42
1, 186730, Note_on_c, 0, 24, 39
1, 186739, Control_c, 0, 64, 106
1, 186754, Control_c, 0, 64, 89
1, 186769, Control_c, 0, 64, 75
1, 186774, Note_on_c, 0, 77, 63
1, 186783, Note_on_c, 0, 68, 44
1, 186783, Control_c, 0, 64, 64
1, 186795, Note_on_c, 0, 73, 39
1, 186798, Control_c, 0, 64, 44
1, 186813, Control_c, 0, 64, 33
1, 186828, Control_c, 0, 64, 34
1, 186843, Control_c, 0, 64, 39
1, 186857, Control_c, 0, 64, 48
1, 186872, Control_c, 0, 64, 55
1, 186887, Control_c, 0, 64, 63
1, 186902, Control_c, 0, 64, 69
1, 186917, Control_c, 0, 64, 80
1, 186941, Control_c, 0, 64, 104
1, 186956, Note_off_c, 0, 36, 51
1, 186956, Control_c, 0, 64, 127
1, 186964, Note_off_c, 0, 24, 39
1, 186982, Note_on_c, 0, 65, 45
1, 186988, Note_off_c, 0, 77, 51
1, 187003, Note_off_c, 0, 73, 41
1, 187007, Note_off_c, 0, 68, 45
1, 187063, Note_off_c, 0, 65, 47
1, 187114, Note_on_c, 0, 77, 55
1, 187116, Note_on_c, 0, 73, 46
1, 187122, Note_on_c, 0, 68, 42
1, 187144, Note_off_c, 0, 77, 50
1, 187152, Note_off_c, 0, 73, 63
1, 187167, Note_off_c, 0, 68, 56
1, 187236, Note_on_c, 0, 44, 44
1, 187248, Note_on_c, 0, 32, 37
1, 187250, Note_on_c, 0, 77, 51
1, 187270, Note_on_c, 0, 73, 39
1, 187271, Note_on_c, 0, 68, 44
1, 187311, Control_c, 0, 67, 107
1, 187313, Note_off_c, 0, 77, 38
1, 187327, Note_off_c, 0, 32, 55
1, 187353, Note_off_c, 0, 68, 61
1, 187362, Note_off_c, 0, 73, 60
1, 187364, Note_off_c, 0, 44, 54
1, 187379, Note_on_c, 0, 65, 55
1, 187385, Control_c, 0, 67, 108
1, 187422, Note_on_c, 0, 43, 59
1, 187431, Note_on_c, 0, 31, 57
1, 187444, Note_off_c, 0, 65, 52
1, 187459, Control_c, 0, 67, 109
1, 187489, Control_c, 0, 67, 109
1, 187495, Note_off_c, 0, 31, 59
1, 187503, Note_on_c, 0, 78, 76
1, 187505, Note_on_c, 0, 69, 63
1, 187509, Note_on_c, 0, 74, 53
1, 187518, Note_off_c, 0, 43, 61
1, 187533, Control_c, 0, 67, 110
1, 187573, Note_off_c, 0, 74, 59
1, 187580, Note_off_c, 0, 69, 62
1, 187586, Note_off_c, 0, 78, 62
1, 187680, Note_on_c, 0, 77, 80
1, 187682, Control_c, 0, 64, 115
1, 187703, Note_on_c, 0, 73, 63
1, 187704, Control_c, 0, 64, 95
1, 187707, Note_on_c, 0, 55, 66
1, 187708, Note_on_c, 0, 68, 59
1, 187719, Control_c, 0, 64, 83
1, 187734, Control_c, 0, 64, 74
1, 187734, Note_on_c, 0, 43, 38
1, 187749, Control_c, 0, 64, 69
1, 187763, Control_c, 0, 64, 67
1, 187778, Control_c, 0, 64, 67
1, 187793, Control_c, 0, 64, 68
1, 187808, Control_c, 0, 64, 70
1, 187819, Note_on_c, 0, 65, 59
1, 187819, Note_off_c, 0, 68, 56
1, 187823, Control_c, 0, 64, 74
1, 187833, Note_off_c, 0, 77, 57
1, 187835, Note_off_c, 0, 73, 58
1, 187838, Control_c, 0, 64, 79
1, 187853, Control_c, 0, 64, 89
1, 187868, Control_c, 0, 64, 107
1, 187883, Control_c, 0, 64, 127
1, 187900, Note_off_c, 0, 43, 34
1, 187901, Note_off_c, 0, 55, 59
1, 187942, Note_on_c, 0, 77, 71
1, 187951, Note_on_c, 0, 73, 61
1, 187952, Note_on_c, 0, 68, 57
1, 187954, Note_off_c, 0, 65, 51
1, 187985, Note_off_c, 0, 77, 57
1, 187995, Note_off_c, 0, 73, 56
1, 187995, Note_off_c, 0, 68, 61
1, 188073, Note_on_c, 0, 59, 73
1, 188082, Note_on_c, 0, 76, 82
1, 188088, Note_on_c, 0, 47, 60
1, 188099, Note_on_c, 0, 67, 66
1, 188106, Note_on_c, 0, 72, 59
1, 188119, Control_c, 0, 67, 109
1, 188152, Note_off_c, 0, 59, 62
1, 188152, Note_off_c, 0, 47, 60
1, 188200, Note_on_c, 0, 64, 62
1, 188216, Note_off_c, 0, 67, 52
1, 188221, Note_off_c, 0, 76, 57
1, 188225, Note_off_c, 0, 72, 55
1, 188282, Note_on_c, 0, 58, 85
1, 188290, Note_on_c, 0, 46, 72
1, 188323, Note_off_c, 0, 46, 67
1, 188335, Note_off_c, 0, 64, 54
1, 188336, Note_off_c, 0, 58, 63
1, 188354, Note_on_c, 0, 67, 58
1, 188356, Note_on_c, 0, 76, 49
1, 188357, Note_on_c, 0, 72, 57
1, 188380, Note_off_c, 0, 76, 57
1, 188392, Note_off_c, 0, 67, 64
1, 188405, Note_off_c, 0, 72, 60
1, 188520, Note_on_c, 0, 75, 78
1, 188526, Control_c, 0, 64, 95
1, 188542, Control_c, 0, 64, 69
1, 188544, Note_on_c, 0, 66, 59
1, 188545, Note_on_c, 0, 71, 53
1, 188549, Note_on_c, 0, 68, 64
1, 188557, Control_c, 0, 64, 40
1, 188559, Note_on_c, 0, 56, 57
1, 188572, Control_c, 0, 64, 0
1, 188616, Control_c, 0, 64, 43
1, 188631, Control_c, 0, 64, 61
1, 188646, Control_c, 0, 64, 69
1, 188654, Note_off_c, 0, 56, 63
1, 188661, Control_c, 0, 64, 84
1, 188667, Note_off_c, 0, 68, 53
1, 188676, Control_c, 0, 64, 127
1, 188697, Note_on_c, 0, 63, 55
1, 188708, Note_off_c, 0, 66, 55
1, 188726, Note_off_c, 0, 75, 54
1, 188738, Note_off_c, 0, 71, 60
1, 188821, Note_off_c, 0, 63, 58
1, 188824, Note_on_c, 0, 66, 59
1, 188825, Note_on_c, 0, 75, 45
1, 188829, Note_on_c, 0, 71, 51
1, 188859, Note_off_c, 0, 66, 62
1, 188867, Note_off_c, 0, 71, 64
1, 188872, Note_off_c, 0, 75, 61
1, 188928, Control_c, 0, 67, 109
1, 188944, Note_on_c, 0, 81, 72
1, 188953, Note_on_c, 0, 66, 50
1, 188957, Control_c, 0, 67, 108
1, 188960, Note_on_c, 0, 75, 49
1, 188965, Note_on_c, 0, 71, 50
1, 189016, Control_c, 0, 67, 107
1, 189055, Note_off_c, 0, 71, 57
1, 189057, Note_on_c, 0, 63, 64
1, 189063, Note_off_c, 0, 66, 54
1, 189064, Note_off_c, 0, 75, 53
1, 189135, Note_on_c, 0, 80, 81
1, 189143, Note_off_c, 0, 81, 65
1, 189196, Note_on_c, 0, 71, 58
1, 189199, Note_off_c, 0, 80, 63
1, 189202, Note_on_c, 0, 66, 61
1, 189205, Note_on_c, 0, 75, 57
1, 189212, Note_off_c, 0, 63, 57
1, 189254, Note_off_c, 0, 75, 58
1, 189257, Note_off_c, 0, 71, 60
1, 189277, Note_off_c, 0, 66, 47
1, 189336, Control_c, 0, 67, 108
1, 189351, Control_c, 0, 67, 109
1, 189359, Note_on_c, 0, 74, 70
1, 189364, Note_on_c, 0, 65, 63
1, 189365, Control_c, 0, 64, 90
1, 189366, Note_on_c, 0, 92, 83
1, 189378, Note_on_c, 0, 70, 58
1, 189380, Control_c, 0, 64, 75
1, 189395, Control_c, 0, 64, 66
1, 189409, Control_c, 0, 64, 64
1, 189409, Control_c, 0, 67, 109
1, 189424, Control_c, 0, 64, 67
1, 189430, Note_off_c, 0, 92, 65
1, 189439, Control_c, 0, 64, 71
1, 189454, Control_c, 0, 64, 78
1, 189469, Control_c, 0, 64, 92
1, 189480, Note_off_c, 0, 74, 56
1, 189481, Note_off_c, 0, 65, 57
1, 189484, Control_c, 0, 64, 127
1, 189501, Note_on_c, 0, 62, 51
1, 189522, Note_off_c, 0, 70, 35
1, 189631, Note_on_c, 0, 74, 56
1, 189635, Note_on_c, 0, 70, 56
1, 189642, Note_on_c, 0, 65, 50
1, 189671, Note_off_c, 0, 74, 60
1, 189681, Note_off_c, 0, 62, 59
1, 189686, Note_off_c, 0, 70, 58
1, 189687, Note_off_c, 0, 65, 60
1, 189778, Note_on_c, 0, 73, 74
1, 189781, Control_c, 0, 64, 112
1, 189796, Control_c, 0, 64, 91
1, 189797, Note_on_c, 0, 56, 46
1, 189802, Note_on_c, 0, 44, 48
1, 189803, Note_on_c, 0, 69, 58
1, 189808, Note_on_c, 0, 64, 57
1, 189810, Control_c, 0, 64, 78
1, 189825, Control_c, 0, 64, 68
1, 189840, Control_c, 0, 64, 63
1, 189855, Control_c, 0, 64, 61
1, 189870, Control_c, 0, 64, 64
1, 189884, Control_c, 0, 64, 66
1, 189899, Control_c, 0, 64, 68
1, 189914, Control_c, 0, 64, 72
1, 189918, Note_on_c, 0, 61, 57
1, 189921, Note_off_c, 0, 64, 56
1, 189924, Note_off_c, 0, 73, 59
1, 189925, Note_off_c, 0, 69, 59
1, 189929, Control_c, 0, 64, 80
1, 189941, Note_off_c, 0, 56, 63
1, 189951, Control_c, 0, 64, 95
1, 189966, Control_c, 0, 64, 127
1, 190005, Note_off_c, 0, 44, 59
1, 190049, Note_off_c, 0, 61, 47
1, 190070, Control_c, 0, 67, 110
1, 190075, Note_on_c, 0, 69, 48
1, 190076, Note_on_c, 0, 64, 52
1, 190076, Note_on_c, 0, 73, 41
1, 190099, Control_c, 0, 67, 110
1, 190145, Control_c, 0, 67, 111
1, 190151, Note_off_c, 0, 69, 58
1, 190157, Note_off_c, 0, 73, 53
1, 190169, Note_off_c, 0, 64, 59
1, 190290, Note_on_c, 0, 27, 46
1, 190306, Control_c, 0, 64, 104
1, 190321, Control_c, 0, 64, 91
1, 190336, Control_c, 0, 64, 76
1, 190349, Note_on_c, 0, 72, 53
1, 190351, Control_c, 0, 64, 65
1, 190366, Control_c, 0, 64, 53
1, 190379, Note_on_c, 0, 63, 31
1, 190381, Control_c, 0, 64, 38
1, 190398, Note_on_c, 0, 68, 22
1, 190410, Control_c, 0, 64, 42
1, 190425, Control_c, 0, 64, 52
1, 190440, Control_c, 0, 64, 58
1, 190455, Control_c, 0, 64, 63
1, 190455, Control_c, 0, 67, 110
1, 190470, Control_c, 0, 64, 68
1, 190485, Control_c, 0, 64, 75
1, 190500, Control_c, 0, 64, 89
1, 190514, Control_c, 0, 64, 123
1, 190529, Control_c, 0, 64, 127
1, 190529, Control_c, 0, 67, 110
1, 190534, Note_off_c, 0, 27, 57
1, 190539, Note_off_c, 0, 63, 44
1, 190553, Note_on_c, 0, 60, 35
1, 190555, Note_off_c, 0, 68, 34
1, 190605, Note_off_c, 0, 60, 51
1, 190651, Note_on_c, 0, 63, 45
1, 190672, Note_on_c, 0, 68, 33
1, 190707, Note_off_c, 0, 63, 53
1, 190718, Note_off_c, 0, 68, 47
1, 190759, Control_c, 0, 67, 109
1, 190768, Note_on_c, 0, 40, 47
1, 190777, Poly_aftertouch_c, 0, 63, 127
1, 190778, Note_on_c, 0, 68, 41
1, 190833, Control_c, 0, 67, 109
1, 190861, Poly_aftertouch_c, 0, 63, 0
1, 190866, Note_off_c, 0, 68, 58
1, 190886, Note_off_c, 0, 72, 41
1, 190905, Note_on_c, 0, 60, 48
1, 190907, Control_c, 0, 67, 108
1, 190948, Note_off_c, 0, 60, 54
1, 190953, Note_on_c, 0, 39, 52
1, 190974, Note_off_c, 0, 40, 58
1, 191011, Note_on_c, 0, 73, 71
1, 191019, Note_on_c, 0, 69, 52
1, 191022, Note_on_c, 0, 64, 55
1, 191111, Note_off_c, 0, 69, 56
1, 191111, Note_off_c, 0, 64, 60
1, 191120, Note_off_c, 0, 73, 63
1, 191145, Control_c, 0, 67, 107
1, 191160, Control_c, 0, 67, 107
1, 191175, Control_c, 0, 67, 106
1, 191189, Control_c, 0, 67, 105
1, 191197, Note_on_c, 0, 51, 56
1, 191204, Control_c, 0, 67, 105
1, 191225, Note_on_c, 0, 72, 76
1, 191234, Control_c, 0, 67, 104
1, 191260, Note_on_c, 0, 63, 52
1, 191263, Control_c, 0, 67, 103
1, 191266, Note_on_c, 0, 68, 48
1, 191278, Control_c, 0, 67, 103
1, 191308, Control_c, 0, 67, 102
1, 191329, Note_off_c, 0, 39, 35
1, 191337, Control_c, 0, 67, 102
1, 191352, Control_c, 0, 67, 101
1, 191357, Note_off_c, 0, 63, 56
1, 191364, Note_on_c, 0, 60, 59
1, 191382, Control_c, 0, 67, 100
1, 191388, Note_off_c, 0, 68, 36
1, 191397, Control_c, 0, 67, 100
1, 191434, Control_c, 0, 67, 99
1, 191449, Control_c, 0, 67, 98
1, 191484, Note_on_c, 0, 68, 48
1, 191492, Note_on_c, 0, 63, 52
1, 191493, Control_c, 0, 67, 98
1, 191508, Control_c, 0, 67, 97
1, 191510, Note_off_c, 0, 72, 59
1, 191523, Control_c, 0, 67, 97
1, 191534, Note_off_c, 0, 63, 61
1, 191537, Control_c, 0, 67, 96
1, 191538, Note_off_c, 0, 60, 59
1, 191538, Note_off_c, 0, 68, 51
1, 191552, Control_c, 0, 67, 95
1, 191567, Control_c, 0, 67, 94
1, 191582, Control_c, 0, 67, 93
1, 191597, Control_c, 0, 67, 92
1, 191605, Note_off_c, 0, 51, 57
1, 191612, Control_c, 0, 67, 90
1, 191615, Note_on_c, 0, 52, 61
1, 191621, Note_on_c, 0, 71, 73
1, 191627, Control_c, 0, 67, 77
1, 191635, Note_on_c, 0, 62, 64
1, 191642, Control_c, 0, 67, 63
1, 191646, Note_on_c, 0, 67, 54
1, 191656, Control_c, 0, 67, 51
1, 191671, Control_c, 0, 67, 44
1, 191686, Control_c, 0, 67, 39
1, 191701, Control_c, 0, 67, 35
1, 191716, Control_c, 0, 67, 33
1, 191731, Note_off_c, 0, 62, 60
1, 191731, Control_c, 0, 67, 30
1, 191735, Note_on_c, 0, 59, 62
1, 191743, Note_off_c, 0, 67, 58
1, 191746, Control_c, 0, 67, 28
1, 191761, Control_c, 0, 67, 26
1, 191776, Control_c, 0, 67, 24
1, 191791, Control_c, 0, 67, 23
1, 191805, Control_c, 0, 67, 23
1, 191815, Note_on_c, 0, 51, 77
1, 191820, Control_c, 0, 67, 22
1, 191826, Note_off_c, 0, 52, 60
1, 191835, Control_c, 0, 67, 21
1, 191850, Control_c, 0, 67, 19
1, 191865, Control_c, 0, 67, 16
1, 191877, Note_on_c, 0, 62, 50
1, 191879, Note_on_c, 0, 67, 56
1, 191880, Control_c, 0, 67, 12
1, 191894, Control_c, 0, 67, 0
1, 191902, Note_off_c, 0, 51, 63
1, 191907, Note_off_c, 0, 59, 56
1, 191922, Note_off_c, 0, 62, 62
1, 191922, Note_off_c, 0, 71, 61
1, 191937, Note_off_c, 0, 67, 55
1, 192065, Note_on_c, 0, 70, 69
1, 192066, Note_on_c, 0, 63, 63
1, 192072, Control_c, 0, 64, 94
1, 192080, Note_on_c, 0, 61, 60
1, 192080, Note_on_c, 0, 66, 50
1, 192086, Control_c, 0, 64, 74
1, 192101, Control_c, 0, 64, 61
1, 192116, Control_c, 0, 64, 54
1, 192131, Control_c, 0, 64, 58
1, 192146, Control_c, 0, 64, 61
1, 192160, Control_c, 0, 64, 63
1, 192183, Control_c, 0, 64, 66
1, 192198, Control_c, 0, 64, 72
1, 192203, Note_off_c, 0, 63, 62
1, 192212, Control_c, 0, 64, 85
1, 192227, Control_c, 0, 64, 106
1, 192242, Control_c, 0, 64, 127
1, 192247, Note_off_c, 0, 66, 50
1, 192254, Note_off_c, 0, 61, 55
1, 192260, Note_on_c, 0, 58, 55
1, 192366, Note_on_c, 0, 51, 69
1, 192372, Note_off_c, 0, 58, 55
1, 192405, Note_on_c, 0, 66, 45
1, 192409, Note_on_c, 0, 61, 38
1, 192449, Note_off_c, 0, 66, 60
1, 192457, Note_off_c, 0, 61, 60
1, 192554, Note_on_c, 0, 52, 72
1, 192560, Note_off_c, 0, 51, 52
1, 192574, Note_on_c, 0, 66, 42
1, 192582, Note_on_c, 0, 61, 46
1, 192658, Note_off_c, 0, 61, 53
1, 192676, Note_off_c, 0, 66, 51
1, 192678, Note_on_c, 0, 58, 58
1, 192741, Note_on_c, 0, 51, 85
1, 192749, Note_off_c, 0, 52, 65
1, 192782, Note_on_c, 0, 61, 59
1, 192787, Note_off_c, 0, 51, 64
1, 192795, Note_on_c, 0, 66, 56
1, 192822, Note_off_c, 0, 58, 60
1, 192823, Note_off_c, 0, 70, 62
1, 192840, Note_off_c, 0, 61, 51
1, 192848, Note_off_c, 0, 66, 52
1, 192926, Note_on_c, 0, 69, 79
1, 192944, Note_on_c, 0, 60, 65
1, 192947, Control_c, 0, 64, 102
1, 192950, Note_on_c, 0, 39, 65
1, 192955, Note_on_c, 0, 65, 59
1, 192962, Control_c, 0, 64, 78
1, 192977, Control_c, 0, 64, 63
1, 192991, Control_c, 0, 64, 45
1, 193006, Control_c, 0, 64, 44
1, 193021, Control_c, 0, 64, 50
1, 193035, Control_c, 0, 64, 55
1, 193050, Control_c, 0, 64, 59
1, 193057, Note_on_c, 0, 57, 61
1, 193065, Control_c, 0, 64, 64
1, 193069, Note_off_c, 0, 65, 56
1, 193080, Note_off_c, 0, 60, 55
1, 193080, Control_c, 0, 64, 70
1, 193095, Control_c, 0, 64, 85
1, 193109, Control_c, 0, 64, 127
1, 193129, Note_on_c, 0, 40, 77
1, 193141, Note_off_c, 0, 39, 56
1, 193203, Note_on_c, 0, 60, 51
1, 193206, Note_on_c, 0, 65, 53
1, 193209, Note_off_c, 0, 69, 60
1, 193227, Note_off_c, 0, 57, 59
1, 193236, Note_off_c, 0, 60, 64
1, 193242, Note_off_c, 0, 65, 63
1, 193326, Note_on_c, 0, 68, 72
1, 193327, Note_on_c, 0, 39, 69
1, 193332, Control_c, 0, 64, 96
1, 193343, Note_on_c, 0, 59, 54
1, 193345, Note_on_c, 0, 64, 57
1, 193347, Control_c, 0, 64, 76
1, 193362, Note_off_c, 0, 40, 55
1, 193362, Control_c, 0, 64, 65
1, 193377, Control_c, 0, 64, 56
1, 193392, Control_c, 0, 64, 57
1, 193406, Control_c, 0, 64, 61
1, 193421, Control_c, 0, 64, 64
1, 193424, Note_off_c, 0, 39, 64
1, 193436, Control_c, 0, 64, 69
1, 193441, Note_on_c, 0, 56, 63
1, 193451, Note_off_c, 0, 64, 57
1, 193451, Control_c, 0, 64, 81
1, 193466, Control_c, 0, 64, 127
1, 193469, Note_off_c, 0, 59, 41
1, 193552, Note_on_c, 0, 24, 61
1, 193582, Note_on_c, 0, 64, 62
1, 193590, Note_on_c, 0, 59, 56
1, 193638, Note_off_c, 0, 56, 34
1, 193665, Note_off_c, 0, 64, 59
1, 193670, Note_off_c, 0, 68, 58
1, 193697, Note_off_c, 0, 59, 61
1, 193803, Note_on_c, 0, 36, 51
1, 193829, Control_c, 0, 64, 110
1, 193844, Control_c, 0, 64, 83
1, 193851, Note_on_c, 0, 67, 59
1, 193858, Control_c, 0, 64, 66
1, 193872, Note_on_c, 0, 58, 47
1, 193873, Control_c, 0, 64, 49
1, 193886, Note_on_c, 0, 63, 35
1, 193888, Control_c, 0, 64, 45
1, 193903, Control_c, 0, 64, 51
1, 193918, Control_c, 0, 64, 56
1, 193932, Control_c, 0, 64, 62
1, 193947, Control_c, 0, 64, 67
1, 193951, Note_off_c, 0, 24, 33
1, 193962, Control_c, 0, 64, 76
1, 193973, Note_off_c, 0, 67, 57
1, 193974, Note_off_c, 0, 58, 61
1, 193977, Control_c, 0, 64, 107
1, 193985, Note_off_c, 0, 63, 59
1, 193986, Note_on_c, 0, 55, 51
1, 193991, Control_c, 0, 64, 127
1, 194020, Note_off_c, 0, 55, 64
1, 194110, Note_on_c, 0, 70, 71
1, 194128, Note_on_c, 0, 61, 52
1, 194128, Note_on_c, 0, 66, 54
1, 194138, Note_off_c, 0, 36, 35
1, 194191, Note_off_c, 0, 61, 44
1, 194207, Note_off_c, 0, 66, 43
1, 194208, Note_off_c, 0, 70, 62
1, 194292, Note_on_c, 0, 37, 57
1, 194294, Note_on_c, 0, 69, 80
1, 194300, Note_on_c, 0, 60, 62
1, 194309, Note_on_c, 0, 65, 59
1, 194381, Note_off_c, 0, 60, 61
1, 194381, Note_off_c, 0, 65, 61
1, 194387, Note_on_c, 0, 57, 61
1, 194393, Note_off_c, 0, 69, 60
1, 194493, Note_on_c, 0, 36, 63
1, 194500, Note_on_c, 0, 68, 87
1, 194509, Note_off_c, 0, 37, 53
1, 194518, Note_on_c, 0, 59, 70
1, 194520, Note_on_c, 0, 64, 68
1, 194544, Note_off_c, 0, 57, 51
1, 194599, Note_off_c, 0, 59, 62
1, 194602, Note_off_c, 0, 64, 61
1, 194623, Note_off_c, 0, 68, 60
1, 194706, Note_on_c, 0, 48, 63
1, 194712, Note_on_c, 0, 67, 85
1, 194730, Note_off_c, 0, 36, 27
1, 194742, Note_on_c, 0, 58, 68
1, 194743, Note_on_c, 0, 63, 60
1, 194755, Control_c, 0, 64, 109
1, 194770, Control_c, 0, 64, 95
1, 194785, Control_c, 0, 64, 89
1, 194800, Control_c, 0, 64, 91
1, 194814, Control_c, 0, 64, 99
1, 194828, Note_on_c, 0, 55, 72
1, 194829, Control_c, 0, 64, 127
1, 194830, Note_off_c, 0, 58, 61
1, 194849, Note_off_c, 0, 63, 51
1, 194949, Note_on_c, 0, 58, 68
1, 194956, Note_on_c, 0, 63, 61
1, 194978, Note_off_c, 0, 67, 60
1, 194980, Note_off_c, 0, 55, 60
1, 195003, Note_off_c, 0, 58, 59
1, 195006, Note_off_c, 0, 63, 56
1, 195042, Note_off_c, 0, 48, 58
1, 195081, Note_on_c, 0, 49, 76
1, 195083, Note_on_c, 0, 66, 84
1, 195093, Note_on_c, 0, 57, 75
1, 195108, Note_on_c, 0, 62, 54
1, 195195, Note_on_c, 0, 54, 78
1, 195206, Note_off_c, 0, 57, 60
1, 195213, Note_off_c, 0, 62, 56
1, 195284, Note_on_c, 0, 48, 82
1, 195326, Note_on_c, 0, 57, 76
1, 195335, Note_on_c, 0, 62, 74
1, 195341, Note_off_c, 0, 54, 63
1, 195363, Note_off_c, 0, 49, 29
1, 195394, Note_off_c, 0, 66, 59
1, 195411, Note_off_c, 0, 57, 61
1, 195418, Note_off_c, 0, 62, 61
1, 195453, Note_off_c, 0, 48, 49
1, 195519, Note_on_c, 0, 60, 73
1, 195549, Control_c, 0, 64, 104
1, 195549, Note_on_c, 0, 65, 86
1, 195559, Note_on_c, 0, 61, 69
1, 195561, Note_on_c, 0, 56, 77
1, 195564, Control_c, 0, 64, 69
1, 195578, Control_c, 0, 64, 0
1, 195667, Control_c, 0, 64, 54
1, 195682, Control_c, 0, 64, 70
1, 195696, Note_off_c, 0, 60, 61
1, 195697, Control_c, 0, 64, 89
1, 195711, Control_c, 0, 64, 127
1, 195744, Note_on_c, 0, 53, 67
1, 195752, Note_off_c, 0, 56, 62
1, 195756, Note_off_c, 0, 61, 53
1, 195846, Note_on_c, 0, 48, 71
1, 195863, Note_off_c, 0, 53, 60
1, 195872, Note_on_c, 0, 56, 63
1, 195883, Note_on_c, 0, 61, 63
1, 195916, Note_off_c, 0, 56, 60
1, 195928, Note_off_c, 0, 61, 60
1, 196017, Note_on_c, 0, 49, 86
1, 196026, Note_off_c, 0, 48, 62
1, 196032, Note_on_c, 0, 61, 66
1, 196035, Note_on_c, 0, 56, 64
1, 196143, Note_on_c, 0, 53, 73
1, 196150, Note_off_c, 0, 56, 62
1, 196177, Note_off_c, 0, 61, 57
1, 196211, Note_on_c, 0, 48, 91
1, 196215, Note_off_c, 0, 49, 61
1, 196266, Note_on_c, 0, 61, 72
1, 196267, Note_on_c, 0, 56, 72
1, 196291, Note_off_c, 0, 48, 58
1, 196292, Note_off_c, 0, 65, 57
1, 196303, Note_off_c, 0, 53, 58
1, 196322, Note_off_c, 0, 56, 59
1, 196327, Note_off_c, 0, 61, 60
1, 196401, Note_on_c, 0, 64, 83
1, 196401, Control_c, 0, 64, 82
1, 196408, Note_on_c, 0, 55, 83
1, 196412, Note_on_c, 0, 36, 79
1, 196416, Control_c, 0, 64, 64
1, 196423, Note_on_c, 0, 60, 60
1, 196431, Control_c, 0, 64, 45
1, 196446, Control_c, 0, 64, 46
1, 196460, Control_c, 0, 64, 55
1, 196475, Control_c, 0, 64, 60
1, 196490, Control_c, 0, 64, 68
1, 196505, Control_c, 0, 64, 84
1, 196510, Note_on_c, 0, 52, 80
1, 196520, Control_c, 0, 64, 127
1, 196542, Note_off_c, 0, 55, 58
1, 196544, Note_off_c, 0, 60, 59
1, 196606, Note_on_c, 0, 37, 93
1, 196632, Note_off_c, 0, 36, 60
1, 196649, Note_on_c, 0, 55, 77
1, 196649, Note_on_c, 0, 60, 78
1, 196661, Note_off_c, 0, 52, 62
1, 196679, Note_off_c, 0, 64, 62
1, 196712, Note_off_c, 0, 55, 62
1, 196733, Note_off_c, 0, 60, 63
1, 196822, Note_on_c, 0, 36, 92
1, 196824, Control_c, 0, 64, 81
1, 196827, Note_on_c, 0, 59, 83
1, 196832, Note_on_c, 0, 54, 88
1, 196832, Note_on_c, 0, 63, 82
1, 196835, Note_off_c, 0, 37, 59
1, 196839, Control_c, 0, 64, 57
1, 196854, Control_c, 0, 64, 0
1, 196898, Control_c, 0, 64, 43
1, 196913, Control_c, 0, 64, 64
1, 196928, Control_c, 0, 64, 81
1, 196939, Note_on_c, 0, 51, 88
1, 196943, Control_c, 0, 64, 127
1, 196964, Note_off_c, 0, 54, 61
1, 196982, Note_off_c, 0, 59, 58
1, 196995, Note_off_c, 0, 36, 54
1, 197043, Note_off_c, 0, 51, 63
1, 197061, Note_on_c, 0, 24, 93
1, 197108, Note_on_c, 0, 54, 93
1, 197109, Note_on_c, 0, 59, 79
1, 197168, Note_off_c, 0, 63, 58
1, 197195, Note_off_c, 0, 54, 60
1, 197208, Note_off_c, 0, 59, 59
1, 197357, Control_c, 0, 64, 121
1, 197359, Note_on_c, 0, 27, 97
1, 197371, Control_c, 0, 64, 67
1, 197380, Note_on_c, 0, 53, 101
1, 197380, Note_on_c, 0, 62, 94
1, 197381, Note_off_c, 0, 24, 52
1, 197383, Note_on_c, 0, 58, 87
1, 197386, Control_c, 0, 64, 0
1, 197408, Note_on_c, 0, 28, 33
1, 197457, Note_off_c, 0, 28, 52
1, 197483, Control_c, 0, 64, 46
1, 197498, Control_c, 0, 64, 69
1, 197499, Note_off_c, 0, 27, 62
1, 197512, Control_c, 0, 64, 127
1, 197562, Note_off_c, 0, 53, 59
1, 197592, Note_off_c, 0, 58, 61
1, 197596, Note_off_c, 0, 62, 60
1, 197819, Note_on_c, 0, 62, 81
1, 197836, Note_on_c, 0, 58, 67
1, 197838, Note_on_c, 0, 53, 56
1, 198031, Note_on_c, 0, 67, 89
1, 198033, Note_off_c, 0, 53, 53
1, 198085, Note_off_c, 0, 58, 57
1, 198098, Note_off_c, 0, 62, 56
1, 198235, Note_on_c, 0, 62, 77
1, 198238, Note_on_c, 0, 58, 71
1, 198243, Note_on_c, 0, 65, 95
1, 198244, Note_on_c, 0, 53, 66
1, 198244, Note_off_c, 0, 67, 55
1, 198309, Note_off_c, 0, 62, 60
1, 198314, Note_off_c, 0, 65, 59
1, 198330, Note_off_c, 0, 53, 57
1, 198364, Note_off_c, 0, 58, 56
1, 198443, Note_on_c, 0, 79, 110
1, 198445, Note_on_c, 0, 62, 95
1, 198636, Note_on_c, 0, 58, 92
1, 198641, Note_on_c, 0, 53, 85
1, 198642, Note_off_c, 0, 62, 52
1, 198670, Note_off_c, 0, 53, 65
1, 198682, Note_off_c, 0, 58, 66
1, 198794, Note_off_c, 0, 79, 60
1, 198840, Note_on_c, 0, 69, 109
1, 198841, Note_on_c, 0, 77, 101
1, 199003, Note_off_c, 0, 69, 59
1, 199021, Note_off_c, 0, 77, 52
1, 199037, Note_on_c, 0, 68, 101
1, 199073, Note_off_c, 0, 68, 65
1, 199219, Control_c, 0, 64, 81
1, 199233, Control_c, 0, 64, 54
1, 199246, Note_on_c, 0, 75, 100
1, 199248, Control_c, 0, 64, 0
1, 199249, Note_on_c, 0, 82, 115
1, 199284, Note_off_c, 0, 82, 67
1, 199292, Control_c, 0, 64, 55
1, 199307, Control_c, 0, 64, 73
1, 199322, Control_c, 0, 64, 127
1, 199399, Note_off_c, 0, 75, 58
1, 199507, Note_on_c, 0, 62, 87
1, 199517, Note_on_c, 0, 53, 69
1, 199517, Note_on_c, 0, 58, 74
1, 199587, Note_on_c, 0, 74, 90
1, 199642, Note_off_c, 0, 58, 63
1, 199644, Note_off_c, 0, 53, 61
1, 199646, Note_on_c, 0, 84, 102
1, 199687, Note_off_c, 0, 62, 58
1, 199795, Note_off_c, 0, 74, 60
1, 199814, Note_on_c, 0, 82, 96
1, 199827, Note_on_c, 0, 65, 89
1, 199831, Note_on_c, 0, 58, 76
1, 199832, Note_on_c, 0, 62, 78
1, 199836, Note_off_c, 0, 84, 63
1, 199902, Note_off_c, 0, 82, 64
1, 199905, Note_on_c, 0, 73, 107
1, 199933, Note_off_c, 0, 62, 60
1, 199940, Note_off_c, 0, 58, 61
1, 199946, Note_off_c, 0, 73, 68
1, 199970, Note_off_c, 0, 65, 57
1, 200042, Note_on_c, 0, 91, 113
1, 200225, Note_on_c, 0, 70, 98
1, 200231, Note_on_c, 0, 65, 76
1, 200238, Note_on_c, 0, 62, 72
1, 200262, Note_off_c, 0, 70, 67
1, 200263, Note_off_c, 0, 62, 66
1, 200266, Note_off_c, 0, 65, 56
1, 200374, Note_off_c, 0, 91, 59
1, 200411, Note_on_c, 0, 72, 110
1, 200411, Note_on_c, 0, 89, 98
1, 200453, Note_off_c, 0, 89, 65
1, 200511, Poly_aftertouch_c, 0, 67, 127
1, 200537, Note_off_c, 0, 72, 56
1, 200563, Poly_aftertouch_c, 0, 67, 0
1, 200605, Note_on_c, 0, 71, 108
1, 200644, Note_off_c, 0, 71, 71
1, 200658, Note_on_c, 0, 69, 34
1, 200673, Note_on_c, 0, 64, 6
1, 200689, Note_off_c, 0, 69, 53
1, 200718, Note_off_c, 0, 64, 40
1, 200760, Note_on_c, 0, 66, 86
1, 200769, Note_on_c, 0, 61, 73
1, 200835, Note_on_c, 0, 64, 25
1, 200888, Note_on_c, 0, 70, 99
1, 200889, Note_on_c, 0, 36, 101
1, 200891, Note_on_c, 0, 56, 94
1, 200893, Control_c, 0, 64, 76
1, 200894, Note_on_c, 0, 24, 97
1, 200897, Note_off_c, 0, 64, 39
1, 200908, Control_c, 0, 64, 0
1, 200930, Note_on_c, 0, 57, 39
1, 200961, Note_off_c, 0, 57, 36
1, 200982, Control_c, 0, 64, 55
1, 200984, Note_off_c, 0, 24, 61
1, 200996, Control_c, 0, 64, 75
1, 201003, Note_off_c, 0, 36, 61
1, 201011, Control_c, 0, 64, 127
1, 201022, Note_off_c, 0, 56, 62
1, 201073, Note_off_c, 0, 61, 59
1, 201085, Note_off_c, 0, 70, 61
1, 201095, Note_off_c, 0, 66, 60
1, 201258, Note_on_c, 0, 66, 85
1, 201269, Note_on_c, 0, 56, 68
1, 201269, Note_on_c, 0, 61, 64
1, 201437, Note_off_c, 0, 56, 53
1, 201460, Note_on_c, 0, 72, 95
1, 201461, Note_off_c, 0, 61, 54
1, 201501, Note_off_c, 0, 66, 54
1, 201648, Note_on_c, 0, 61, 77
1, 201648, Note_on_c, 0, 66, 84
1, 201650, Note_off_c, 0, 72, 59
1, 201654, Note_on_c, 0, 56, 70
1, 201654, Note_on_c, 0, 70, 98
1, 201711, Note_off_c, 0, 66, 59
1, 201720, Note_off_c, 0, 70, 60
1, 201732, Note_off_c, 0, 56, 59
1, 201753, Note_off_c, 0, 61, 55
1, 201845, Note_on_c, 0, 84, 109
1, 201848, Note_on_c, 0, 66, 96
1, 202027, Note_off_c, 0, 66, 60
1, 202046, Note_on_c, 0, 56, 85
1, 202048, Note_on_c, 0, 61, 90
1, 202090, Note_off_c, 0, 61, 64
1, 202094, Note_off_c, 0, 56, 64
1, 202246, Note_on_c, 0, 82, 100
1, 202248, Note_on_c, 0, 77, 102
1, 202265, Note_on_c, 0, 76, 76
1, 202266, Note_off_c, 0, 84, 67
1, 202285, Note_off_c, 0, 76, 56
1, 202341, Note_on_c, 0, 83, 46
1, 202377, Note_off_c, 0, 77, 59
1, 202416, Note_off_c, 0, 82, 60
1, 202416, Note_off_c, 0, 83, 61
1, 202444, Note_on_c, 0, 76, 99
1, 202448, Note_on_c, 0, 75, 86
1, 202474, Note_off_c, 0, 75, 63
1, 202482, Note_off_c, 0, 76, 62
1, 202614, Control_c, 0, 64, 98
1, 202629, Control_c, 0, 64, 57
1, 202640, Note_on_c, 0, 80, 99
1, 202643, Control_c, 0, 64, 0
1, 202646, Note_on_c, 0, 87, 108
1, 202689, Note_off_c, 0, 87, 67
1, 202695, Control_c, 0, 64, 29
1, 202710, Control_c, 0, 64, 64
1, 202725, Control_c, 0, 64, 104
1, 202739, Control_c, 0, 64, 127
1, 202790, Note_off_c, 0, 80, 62
1, 202901, Note_on_c, 0, 66, 83
1, 202914, Note_on_c, 0, 61, 65
1, 202915, Note_on_c, 0, 56, 70
1, 202921, Note_on_c, 0, 68, 58
1, 202929, Note_on_c, 0, 58, 44
1, 202958, Note_off_c, 0, 68, 45
1, 202972, Note_off_c, 0, 58, 45
1, 202982, Note_on_c, 0, 79, 90
1, 203038, Note_off_c, 0, 56, 63
1, 203040, Note_off_c, 0, 61, 61
1, 203042, Note_on_c, 0, 89, 110
1, 203049, Note_off_c, 0, 66, 55
1, 203154, Note_off_c, 0, 79, 63
1, 203195, Note_on_c, 0, 87, 96
1, 203199, Note_on_c, 0, 70, 89
1, 203205, Note_on_c, 0, 61, 79
1, 203205, Note_on_c, 0, 66, 75
1, 203213, Note_off_c, 0, 89, 66
1, 203285, Note_on_c, 0, 78, 99
1, 203306, Note_on_c, 0, 80, 53
1, 203307, Note_off_c, 0, 87, 40
1, 203315, Note_off_c, 0, 61, 59
1, 203321, Note_off_c, 0, 66, 58
1, 203327, Note_off_c, 0, 80, 59
1, 203330, Note_off_c, 0, 78, 68
1, 203358, Note_off_c, 0, 70, 55
1, 203433, Note_on_c, 0, 96, 114
1, 203621, Note_on_c, 0, 75, 96
1, 203624, Note_on_c, 0, 72, 82
1, 203631, Note_on_c, 0, 66, 72
1, 203661, Note_off_c, 0, 75, 64
1, 203665, Note_off_c, 0, 72, 61
1, 203674, Note_off_c, 0, 66, 56
1, 203815, Note_on_c, 0, 94, 100
1, 203828, Note_on_c, 0, 77, 102
1, 203834, Note_off_c, 0, 96, 68
1, 203863, Note_off_c, 0, 94, 66
1, 203924, Note_off_c, 0, 77, 58
1, 204021, Note_on_c, 0, 75, 99
1, 204054, Note_off_c, 0, 75, 70
1, 204072, Note_on_c, 0, 74, 57
1, 204091, Note_off_c, 0, 74, 62
1, 204195, Note_on_c, 0, 65, 78
1, 204195, Note_on_c, 0, 70, 89
1, 204281, Note_off_c, 0, 65, 57
1, 204311, Control_c, 0, 64, 90
1, 204312, Note_on_c, 0, 43, 99
1, 204312, Note_on_c, 0, 65, 71
1, 204313, Note_on_c, 0, 74, 96
1, 204318, Note_on_c, 0, 60, 97
1, 204319, Note_on_c, 0, 31, 90
1, 204326, Control_c, 0, 64, 45
1, 204335, Note_on_c, 0, 72, 69
1, 204340, Note_on_c, 0, 62, 64
1, 204340, Control_c, 0, 64, 0
1, 204361, Note_off_c, 0, 62, 44
1, 204391, Note_off_c, 0, 31, 64
1, 204400, Note_off_c, 0, 72, 0
1, 204400, Note_on_c, 0, 72, 19
1, 204400, Control_c, 0, 64, 16
1, 204415, Control_c, 0, 64, 63
1, 204420, Note_off_c, 0, 43, 63
1, 204430, Control_c, 0, 64, 89
1, 204444, Control_c, 0, 64, 127
1, 204459, Note_off_c, 0, 60, 65
1, 204504, Note_off_c, 0, 72, 17
1, 204506, Note_off_c, 0, 65, 57
1, 204528, Note_off_c, 0, 74, 63
1, 204539, Note_off_c, 0, 70, 60
1, 204653, Note_on_c, 0, 70, 82
1, 204660, Note_on_c, 0, 65, 62
1, 204677, Note_on_c, 0, 60, 61
1, 204833, Note_off_c, 0, 60, 36
1, 204834, Note_off_c, 0, 65, 55
1, 204853, Note_off_c, 0, 70, 55
1, 204864, Note_on_c, 0, 81, 95
1, 205054, Note_on_c, 0, 70, 81
1, 205056, Note_on_c, 0, 60, 73
1, 205059, Note_on_c, 0, 65, 68
1, 205068, Note_on_c, 0, 79, 106
1, 205073, Note_off_c, 0, 81, 59
1, 205080, Note_off_c, 0, 60, 66
1, 205084, Note_off_c, 0, 65, 68
1, 205085, Note_off_c, 0, 70, 63
1, 205252, Note_on_c, 0, 77, 100
1, 205255, Note_on_c, 0, 86, 102
1, 205270, Note_off_c, 0, 79, 57
1, 205285, Note_off_c, 0, 77, 67
1, 205297, Note_off_c, 0, 86, 68
1, 205448, Note_on_c, 0, 70, 100
1, 205453, Note_on_c, 0, 65, 66
1, 205454, Note_on_c, 0, 60, 81
1, 205470, Note_off_c, 0, 60, 74
1, 205485, Note_off_c, 0, 70, 62
1, 205488, Note_off_c, 0, 65, 59
1, 205640, Note_on_c, 0, 74, 96
1, 205646, Note_on_c, 0, 83, 109
1, 205684, Note_on_c, 0, 80, 45
1, 205710, Note_off_c, 0, 80, 53
1, 205717, Note_off_c, 0, 83, 42
1, 205759, Poly_aftertouch_c, 0, 65, 0
1, 205817, Note_off_c, 0, 74, 60
1, 205819, Note_on_c, 0, 82, 95
1, 205831, Note_on_c, 0, 70, 85
1, 205834, Note_off_c, 0, 82, 75
1, 205837, Note_on_c, 0, 60, 87
1, 205842, Note_on_c, 0, 65, 70
1, 205846, Note_on_c, 0, 80, 49
1, 205856, Note_off_c, 0, 60, 69
1, 205868, Note_off_c, 0, 80, 57
1, 205872, Note_off_c, 0, 65, 64
1, 205905, Note_off_c, 0, 70, 63
1, 206001, Control_c, 0, 64, 96
1, 206016, Control_c, 0, 64, 56
1, 206031, Control_c, 0, 64, 0
1, 206032, Note_on_c, 0, 29, 92
1, 206075, Control_c, 0, 64, 44
1, 206085, Note_on_c, 0, 41, 86
1, 206087, Note_off_c, 0, 29, 63
1, 206090, Control_c, 0, 64, 71
1, 206106, Control_c, 0, 64, 127
1, 206114, Note_off_c, 0, 41, 67
1, 206203, Note_on_c, 0, 94, 107
1, 206206, Note_on_c, 0, 55, 98
1, 206255, Note_off_c, 0, 55, 65
1, 206354, Note_off_c, 0, 94, 61
1, 206455, Poly_aftertouch_c, 0, 58, 127
1, 206476, Poly_aftertouch_c, 0, 58, 0
1, 206492, Note_on_c, 0, 58, 56
1, 206495, Note_on_c, 0, 67, 92
1, 206508, Note_on_c, 0, 63, 69
1, 206537, Note_on_c, 0, 64, 64
1, 206567, Note_off_c, 0, 67, 60
1, 206607, Note_off_c, 0, 64, 60
1, 206624, Note_off_c, 0, 63, 56
1, 206686, Note_on_c, 0, 82, 115
1, 206692, Note_on_c, 0, 64, 96
1, 206804, Note_off_c, 0, 58, 60
1, 206830, Note_off_c, 0, 64, 60
1, 206841, Note_off_c, 0, 82, 56
1, 206883, Note_on_c, 0, 63, 99
1, 206886, Note_on_c, 0, 55, 83
1, 206889, Note_on_c, 0, 58, 88
1, 206909, Note_off_c, 0, 55, 71
1, 206931, Note_off_c, 0, 63, 65
1, 206931, Note_off_c, 0, 58, 67
1, 207080, Note_on_c, 0, 94, 105
1, 207084, Note_on_c, 0, 80, 115
1, 207119, Note_off_c, 0, 80, 65
1, 207171, Note_off_c, 0, 94, 64
1, 207362, Note_on_c, 0, 67, 101
1, 207363, Note_on_c, 0, 63, 88
1, 207368, Note_on_c, 0, 58, 88
1, 207488, Note_on_c, 0, 79, 110
1, 207536, Note_off_c, 0, 79, 62
1, 207604, Note_off_c, 0, 58, 58
1, 207616, Note_off_c, 0, 63, 60
1, 207643, Note_off_c, 0, 67, 59
1, 207656, Note_on_c, 0, 95, 116
1, 207767, Note_off_c, 0, 95, 64
1, 207949, Note_on_c, 0, 67, 88
1, 207950, Note_on_c, 0, 71, 108
1, 207953, Note_on_c, 0, 61, 94
1, 207990, Note_off_c, 0, 71, 67
1, 208020, Note_off_c, 0, 67, 64
1, 208041, Note_off_c, 0, 61, 59
1, 208100, Note_on_c, 0, 72, 88
1, 208157, Note_on_c, 0, 77, 88
1, 208159, Note_off_c, 0, 72, 66
1, 208200, Note_on_c, 0, 81, 83
1, 208211, Note_off_c, 0, 77, 66
1, 208222, Note_off_c, 0, 81, 69
1, 208270, Note_on_c, 0, 84, 89
1, 208334, Note_on_c, 0, 89, 96
1, 208364, Note_off_c, 0, 84, 64
1, 208374, Note_on_c, 0, 93, 96
1, 208391, Poly_aftertouch_c, 0, 34, 127
1, 208419, Note_off_c, 0, 89, 58
1, 208444, Note_on_c, 0, 38, 97
1, 208446, Poly_aftertouch_c, 0, 34, 0
1, 208448, Note_on_c, 0, 26, 98
1, 208484, Control_c, 0, 64, 75
1, 208493, Note_on_c, 0, 96, 102
1, 208499, Control_c, 0, 64, 0
1, 208499, Note_on_c, 0, 84, 93
1, 208519, Note_on_c, 0, 86, 62
1, 208531, Note_on_c, 0, 90, 24
1, 208532, Note_off_c, 0, 90, 127
1, 208534, Note_off_c, 0, 93, 66
1, 208539, Note_off_c, 0, 86, 40
1, 208586, Note_off_c, 0, 26, 62
1, 208588, Control_c, 0, 64, 55
1, 208603, Control_c, 0, 64, 76
1, 208606, Note_off_c, 0, 84, 64
1, 208618, Control_c, 0, 64, 127
1, 208644, Note_off_c, 0, 38, 61
1, 208776, Note_on_c, 0, 84, 92
1, 208824, Note_off_c, 0, 84, 65
1, 208904, Note_on_c, 0, 50, 81
1, 208910, Note_on_c, 0, 41, 70
1, 208919, Note_on_c, 0, 45, 65
1, 208924, Note_on_c, 0, 84, 89
1, 208965, Note_off_c, 0, 84, 66
1, 209032, Note_on_c, 0, 84, 90
1, 209046, Note_off_c, 0, 45, 60
1, 209048, Note_off_c, 0, 41, 62
1, 209052, Note_off_c, 0, 50, 62
1, 209077, Note_off_c, 0, 84, 65
1, 209139, Note_on_c, 0, 52, 89
1, 209147, Note_on_c, 0, 47, 79
1, 209150, Note_on_c, 0, 43, 78
1, 209150, Note_on_c, 0, 84, 89
1, 209189, Note_off_c, 0, 84, 63
1, 209246, Note_on_c, 0, 84, 87
1, 209263, Note_off_c, 0, 52, 62
1, 209274, Note_off_c, 0, 43, 61
1, 209277, Note_off_c, 0, 47, 61
1, 209277, Note_off_c, 0, 96, 67
1, 209280, Note_off_c, 0, 84, 68
1, 209360, Note_on_c, 0, 53, 92
1, 209364, Note_on_c, 0, 98, 103
1, 209366, Note_on_c, 0, 86, 99
1, 209367, Note_on_c, 0, 48, 77
1, 209368, Note_on_c, 0, 45, 76
1, 209396, Note_on_c, 0, 88, 48
1, 209397, Note_off_c, 0, 88, 127
1, 209407, Note_off_c, 0, 86, 65
1, 209470, Note_on_c, 0, 86, 91
1, 209494, Note_off_c, 0, 53, 60
1, 209502, Note_off_c, 0, 45, 61
1, 209509, Note_off_c, 0, 48, 61
1, 209510, Note_off_c, 0, 86, 66
1, 209511, Note_off_c, 0, 98, 66
1, 209585, Note_on_c, 0, 55, 99
1, 209586, Note_on_c, 0, 96, 104
1, 209592, Note_on_c, 0, 50, 84
1, 209592, Note_on_c, 0, 84, 92
1, 209593, Note_on_c, 0, 47, 85
1, 209598, Note_on_c, 0, 86, 82
1, 209613, Note_off_c, 0, 86, 66
1, 209624, Note_off_c, 0, 84, 68
1, 209699, Note_on_c, 0, 84, 89
1, 209699, Note_off_c, 0, 55, 59
1, 209711, Note_off_c, 0, 50, 59
1, 209712, Note_off_c, 0, 47, 60
1, 209727, Note_off_c, 0, 84, 63
1, 209749, Poly_aftertouch_c, 0, 86, 0
1, 209795, Note_on_c, 0, 57, 100
1, 209802, Note_on_c, 0, 48, 83
1, 209802, Note_on_c, 0, 52, 85
1, 209804, Note_on_c, 0, 84, 87
1, 209825, Note_off_c, 0, 84, 68
1, 209897, Note_off_c, 0, 57, 62
1, 209900, Note_on_c, 0, 84, 86
1, 209909, Note_off_c, 0, 52, 63
1, 209911, Note_off_c, 0, 48, 61
1, 209920, Note_off_c, 0, 84, 69
1, 209920, Note_off_c, 0, 96, 66
1, 210003, Note_on_c, 0, 59, 97
1, 210007, Note_on_c, 0, 53, 87
1, 210009, Note_on_c, 0, 95, 105
1, 210010, Note_on_c, 0, 50, 83
1, 210011, Note_on_c, 0, 83, 100
1, 210040, Note_off_c, 0, 83, 63
1, 210058, Note_on_c, 0, 84, 16
1, 210059, Note_off_c, 0, 84, 127
1, 210072, Note_off_c, 0, 59, 61
1, 210096, Note_on_c, 0, 83, 88
1, 210099, Note_off_c, 0, 50, 58
1, 210115, Note_off_c, 0, 95, 63
1, 210117, Note_off_c, 0, 53, 56
1, 210143, Note_off_c, 0, 83, 65
1, 210218, Note_on_c, 0, 60, 101
1, 210224, Note_on_c, 0, 55, 86
1, 210224, Note_on_c, 0, 52, 89
1, 210252, Note_off_c, 0, 60, 68
1, 210259, Note_off_c, 0, 55, 61
1, 210265, Note_off_c, 0, 52, 60
1, 210268, Note_on_c, 0, 69, 86
1, 210299, Note_off_c, 0, 69, 64
1, 210311, Note_on_c, 0, 74, 74
1, 210323, Note_on_c, 0, 77, 74
1, 210333, Note_off_c, 0, 74, 63
1, 210339, Note_off_c, 0, 77, 66
1, 210387, Note_on_c, 0, 81, 71
1, 210414, Note_on_c, 0, 86, 76
1, 210415, Note_off_c, 0, 81, 65
1, 210433, Note_on_c, 0, 83, 4
1, 210434, Note_off_c, 0, 83, 127
1, 210442, Note_on_c, 0, 89, 63
1, 210443, Note_on_c, 0, 88, 57
1, 210443, Note_off_c, 0, 86, 62
1, 210461, Note_on_c, 0, 93, 104
1, 210464, Note_on_c, 0, 81, 103
1, 210470, Note_on_c, 0, 62, 104
1, 210472, Note_on_c, 0, 57, 85
1, 210475, Note_on_c, 0, 53, 90
1, 210478, Control_c, 0, 64, 80
1, 210491, Note_off_c, 0, 89, 63
1, 210493, Control_c, 0, 64, 33
1, 210498, Note_off_c, 0, 88, 64
1, 210501, Poly_aftertouch_c, 0, 83, 0
1, 210508, Control_c, 0, 64, 0
1, 210534, Note_off_c, 0, 81, 64
1, 210553, Control_c, 0, 64, 46
1, 210568, Control_c, 0, 64, 69
1, 210577, Note_off_c, 0, 57, 64
1, 210582, Control_c, 0, 64, 127
1, 210614, Note_off_c, 0, 53, 57
1, 210627, Note_off_c, 0, 62, 57
1, 210630, Note_on_c, 0, 81, 76
1, 210652, Note_off_c, 0, 81, 70
1, 210725, Note_on_c, 0, 64, 94
1, 210731, Note_on_c, 0, 55, 78
1, 210734, Note_on_c, 0, 59, 74
1, 210737, Note_on_c, 0, 81, 80
1, 210764, Note_off_c, 0, 81, 66
1, 210804, Note_off_c, 0, 64, 59
1, 210809, Note_off_c, 0, 59, 60
1, 210811, Note_off_c, 0, 55, 59
1, 210839, Note_on_c, 0, 81, 88
1, 210873, Note_off_c, 0, 81, 64
1, 210941, Note_on_c, 0, 65, 99
1, 210949, Note_on_c, 0, 57, 84
1, 210951, Note_on_c, 0, 60, 80
1, 210952, Note_on_c, 0, 81, 86
1, 210989, Note_off_c, 0, 81, 64
1, 211029, Note_off_c, 0, 65, 58
1, 211035, Note_off_c, 0, 57, 61
1, 211050, Note_on_c, 0, 81, 91
1, 211051, Note_off_c, 0, 60, 61
1, 211087, Note_off_c, 0, 81, 67
1, 211147, Note_on_c, 0, 67, 99
1, 211153, Note_on_c, 0, 81, 89
1, 211154, Note_on_c, 0, 62, 82
1, 211155, Note_on_c, 0, 59, 85
1, 211181, Note_off_c, 0, 81, 63
1, 211191, Note_off_c, 0, 93, 66
1, 211238, Note_off_c, 0, 67, 60
1, 211240, Note_off_c, 0, 59, 60
1, 211250, Note_off_c, 0, 62, 61
1, 211268, Note_on_c, 0, 79, 103
1, 211271, Note_on_c, 0, 91, 104
1, 211298, Note_off_c, 0, 79, 69
1, 211327, Note_off_c, 0, 91, 64
1, 211357, Note_on_c, 0, 69, 104
1, 211357, Note_on_c, 0, 91, 81
1, 211366, Note_on_c, 0, 64, 85
1, 211366, Note_on_c, 0, 60, 86
1, 211367, Note_on_c, 0, 79, 99
1, 211402, Note_off_c, 0, 79, 67
1, 211425, Note_off_c, 0, 69, 59
1, 211435, Note_off_c, 0, 60, 58
1, 211447, Note_off_c, 0, 64, 59
1, 211474, Note_on_c, 0, 79, 81
1, 211520, Note_off_c, 0, 79, 62
1, 211561, Note_on_c, 0, 71, 100
1, 211565, Note_on_c, 0, 65, 82
1, 211568, Note_on_c, 0, 62, 83
1, 211575, Note_on_c, 0, 79, 67
1, 211627, Note_off_c, 0, 79, 0
1, 211638, Note_off_c, 0, 62, 55
1, 211638, Note_off_c, 0, 71, 58
1, 211661, Note_off_c, 0, 65, 58
1, 211672, Poly_aftertouch_c, 0, 79, 127
1, 211696, Note_off_c, 0, 91, 64
1, 211700, Poly_aftertouch_c, 0, 79, 0
1, 211775, Note_on_c, 0, 72, 100
1, 211779, Note_on_c, 0, 89, 104
1, 211780, Note_on_c, 0, 67, 84
1, 211780, Note_on_c, 0, 77, 101
1, 211782, Note_on_c, 0, 64, 85
1, 211809, Note_on_c, 0, 79, 54
1, 211810, Note_off_c, 0, 79, 127
1, 211813, Note_off_c, 0, 77, 67
1, 211828, Note_off_c, 0, 72, 62
1, 211846, Note_off_c, 0, 64, 60
1, 211860, Note_off_c, 0, 67, 56
1, 211879, Note_on_c, 0, 77, 88
1, 211914, Note_off_c, 0, 89, 59
1, 211933, Note_off_c, 0, 77, 63
1, 211980, Poly_aftertouch_c, 0, 79, 0
1, 211986, Note_on_c, 0, 74, 99
1, 211993, Note_on_c, 0, 69, 88
1, 211994, Note_on_c, 0, 65, 85
1, 212001, Note_off_c, 0, 74, 74
1, 212031, Note_off_c, 0, 69, 68
1, 212037, Note_off_c, 0, 65, 66
1, 212096, Note_on_c, 0, 64, 77
1, 212116, Note_on_c, 0, 68, 81
1, 212126, Note_off_c, 0, 64, 62
1, 212157, Note_off_c, 0, 68, 64
1, 212214, Note_on_c, 0, 76, 80
1, 212235, Poly_aftertouch_c, 0, 71, 0
1, 212252, Note_on_c, 0, 80, 86
1, 212273, Note_off_c, 0, 76, 64
1, 212284, Note_on_c, 0, 83, 83
1, 212310, Note_off_c, 0, 80, 62
1, 212314, Note_on_c, 0, 40, 96
1, 212316, Note_on_c, 0, 28, 92
1, 212317, Control_c, 0, 64, 78
1, 212332, Control_c, 0, 64, 0
1, 212333, Note_on_c, 0, 41, 62
1, 212334, Note_off_c, 0, 41, 127
1, 212334, Note_on_c, 0, 88, 99
1, 212342, Note_on_c, 0, 76, 99
1, 212362, Note_off_c, 0, 83, 64
1, 212413, Control_c, 0, 64, 31
1, 212417, Note_off_c, 0, 28, 63
1, 212427, Control_c, 0, 64, 65
1, 212442, Note_off_c, 0, 76, 64
1, 212442, Control_c, 0, 64, 104
1, 212454, Note_off_c, 0, 40, 65
1, 212457, Control_c, 0, 64, 127
1, 212588, Note_on_c, 0, 76, 74
1, 212618, Note_off_c, 0, 76, 65
1, 212719, Note_on_c, 0, 74, 83
1, 212723, Note_on_c, 0, 76, 75
1, 212733, Note_on_c, 0, 64, 67
1, 212733, Note_on_c, 0, 70, 72
1, 212753, Note_off_c, 0, 76, 63
1, 212833, Note_on_c, 0, 76, 83
1, 212833, Note_off_c, 0, 64, 62
1, 212833, Note_off_c, 0, 74, 62
1, 212870, Note_off_c, 0, 76, 62
1, 212877, Note_off_c, 0, 70, 62
1, 212942, Note_on_c, 0, 73, 94
1, 212945, Note_on_c, 0, 69, 76
1, 212949, Note_on_c, 0, 63, 76
1, 212949, Note_on_c, 0, 76, 83
1, 212971, Note_off_c, 0, 76, 69
1, 213038, Note_off_c, 0, 69, 61
1, 213039, Note_on_c, 0, 76, 89
1, 213050, Note_off_c, 0, 63, 61
1, 213061, Note_off_c, 0, 73, 59
1, 213067, Note_off_c, 0, 76, 64
1, 213075, Note_off_c, 0, 88, 62
1, 213155, Note_on_c, 0, 72, 93
1, 213158, Note_on_c, 0, 89, 99
1, 213163, Note_on_c, 0, 62, 77
1, 213163, Note_on_c, 0, 68, 80
1, 213163, Note_on_c, 0, 77, 98
1, 213197, Note_off_c, 0, 77, 66
1, 213229, Note_off_c, 0, 72, 58
1, 213254, Note_off_c, 0, 68, 61
1, 213256, Note_off_c, 0, 62, 59
1, 213258, Note_on_c, 0, 77, 90
1, 213297, Note_off_c, 0, 89, 61
1, 213301, Note_off_c, 0, 77, 66
1, 213371, Note_on_c, 0, 71, 93
1, 213372, Note_on_c, 0, 67, 78
1, 213377, Note_on_c, 0, 61, 83
1, 213378, Note_on_c, 0, 88, 106
1, 213381, Note_on_c, 0, 76, 102
1, 213412, Note_off_c, 0, 71, 63
1, 213417, Note_off_c, 0, 76, 66
1, 213433, Note_off_c, 0, 67, 61
1, 213460, Note_off_c, 0, 61, 59
1, 213473, Note_on_c, 0, 76, 80
1, 213521, Note_off_c, 0, 76, 64
1, 213582, Note_on_c, 0, 70, 97
1, 213583, Note_on_c, 0, 66, 83
1, 213587, Note_on_c, 0, 60, 80
1, 213592, Note_on_c, 0, 76, 82
1, 213620, Note_off_c, 0, 76, 68
1, 213640, Note_off_c, 0, 70, 56
1, 213658, Note_off_c, 0, 66, 55
1, 213664, Note_off_c, 0, 60, 59
1, 213687, Note_on_c, 0, 76, 87
1, 213701, Note_off_c, 0, 88, 64
1, 213714, Note_off_c, 0, 76, 67
1, 213793, Note_on_c, 0, 69, 99
1, 213797, Note_on_c, 0, 59, 83
1, 213799, Note_on_c, 0, 65, 79
1, 213802, Note_on_c, 0, 74, 102
1, 213803, Note_on_c, 0, 86, 101
1, 213816, Note_on_c, 0, 84, 73
1, 213828, Note_off_c, 0, 69, 67
1, 213836, Note_off_c, 0, 74, 65
1, 213836, Note_off_c, 0, 84, 39
1, 213854, Note_off_c, 0, 59, 62
1, 213869, Note_off_c, 0, 65, 56
1, 213882, Note_on_c, 0, 84, 26
1, 213888, Note_off_c, 0, 86, 61
1, 213904, Note_on_c, 0, 74, 75
1, 213921, Note_off_c, 0, 84, 47
1, 213939, Note_off_c, 0, 74, 63
1, 214015, Note_on_c, 0, 68, 91
1, 214018, Note_on_c, 0, 64, 79
1, 214019, Note_on_c, 0, 58, 87
1, 214033, Note_off_c, 0, 68, 71
1, 214053, Note_off_c, 0, 64, 63
1, 214074, Note_on_c, 0, 62, 68
1, 214076, Note_off_c, 0, 58, 62
1, 214115, Note_on_c, 0, 64, 56
1, 214118, Note_off_c, 0, 62, 61
1, 214130, Note_on_c, 0, 69, 64
1, 214134, Note_off_c, 0, 64, 63
1, 214153, Note_off_c, 0, 69, 58
1, 214197, Note_on_c, 0, 72, 71
1, 214215, Note_on_c, 0, 75, 88
1, 214225, Note_off_c, 0, 72, 64
1, 214249, Note_on_c, 0, 81, 63
1, 214261, Note_off_c, 0, 75, 63
1, 214281, Note_on_c, 0, 84, 102
1, 214285, Note_on_c, 0, 72, 102
1, 214287, Note_on_c, 0, 67, 100
1, 214293, Note_on_c, 0, 57, 85
1, 214294, Note_on_c, 0, 63, 84
1, 214297, Control_c, 0, 64, 99
1, 214312, Control_c, 0, 64, 67
1, 214323, Note_off_c, 0, 81, 66
1, 214327, Control_c, 0, 64, 22
1, 214342, Control_c, 0, 64, 0
1, 214356, Control_c, 0, 64, 35
1, 214370, Note_off_c, 0, 72, 61
1, 214371, Control_c, 0, 64, 55
1, 214386, Control_c, 0, 64, 64
1, 214401, Control_c, 0, 64, 77
1, 214416, Control_c, 0, 64, 127
1, 214431, Note_off_c, 0, 67, 60
1, 214432, Note_off_c, 0, 57, 61
1, 214461, Note_on_c, 0, 72, 74
1, 214487, Note_off_c, 0, 72, 67
1, 214496, Note_off_c, 0, 63, 61
1, 214550, Note_on_c, 0, 66, 84
1, 214554, Note_on_c, 0, 72, 75
1, 214555, Note_on_c, 0, 62, 71
1, 214556, Note_on_c, 0, 56, 73
1, 214586, Note_off_c, 0, 72, 66
1, 214616, Note_off_c, 0, 66, 57
1, 214637, Note_off_c, 0, 62, 59
1, 214648, Note_off_c, 0, 56, 60
1, 214665, Note_on_c, 0, 72, 84
1, 214697, Note_off_c, 0, 72, 65
1, 214765, Note_on_c, 0, 65, 88
1, 214768, Note_on_c, 0, 72, 86
1, 214771, Note_on_c, 0, 61, 79
1, 214774, Note_on_c, 0, 55, 71
1, 214797, Note_off_c, 0, 72, 60
1, 214814, Note_off_c, 0, 65, 62
1, 214842, Note_off_c, 0, 61, 59
1, 214851, Note_off_c, 0, 55, 58
1, 214862, Note_on_c, 0, 72, 87
1, 214897, Note_off_c, 0, 72, 62
1, 214967, Note_on_c, 0, 60, 78
1, 214969, Note_on_c, 0, 54, 82
1, 214970, Note_on_c, 0, 64, 86
1, 214970, Note_on_c, 0, 72, 84
1, 214993, Note_off_c, 0, 72, 69
1, 215018, Note_off_c, 0, 64, 60
1, 215025, Note_off_c, 0, 60, 63
1, 215045, Note_off_c, 0, 54, 61
1, 215060, Note_on_c, 0, 72, 93
1, 215068, Note_off_c, 0, 84, 33
1, 215097, Note_off_c, 0, 72, 66
1, 215176, Note_on_c, 0, 83, 108
1, 215176, Note_on_c, 0, 63, 94
1, 215177, Note_on_c, 0, 71, 101
1, 215179, Note_on_c, 0, 59, 75
1, 215184, Note_on_c, 0, 53, 82
1, 215212, Note_off_c, 0, 71, 64
1, 215231, Note_off_c, 0, 63, 59
1, 215255, Note_off_c, 0, 59, 63
1, 215268, Note_off_c, 0, 53, 59
1, 215272, Note_on_c, 0, 71, 85
1, 215311, Note_off_c, 0, 71, 65
1, 215387, Note_on_c, 0, 62, 93
1, 215388, Note_on_c, 0, 58, 92
1, 215392, Note_on_c, 0, 52, 81
1, 215402, Note_on_c, 0, 71, 94
1, 215428, Note_off_c, 0, 71, 64
1, 215435, Note_off_c, 0, 62, 64
1, 215459, Note_off_c, 0, 58, 64
1, 215460, Note_off_c, 0, 52, 64
1, 215501, Note_on_c, 0, 71, 91
1, 215518, Note_off_c, 0, 83, 58
1, 215534, Note_off_c, 0, 71, 63
1, 215605, Note_on_c, 0, 61, 90
1, 215606, Note_on_c, 0, 57, 82
1, 215610, Note_on_c, 0, 51, 88
1, 215611, Note_on_c, 0, 81, 103
1, 215612, Note_on_c, 0, 69, 102
1, 215647, Note_off_c, 0, 69, 64
1, 215656, Note_off_c, 0, 61, 58
1, 215661, Note_off_c, 0, 57, 62
1, 215696, Note_off_c, 0, 51, 61
1, 215697, Note_on_c, 0, 69, 82
1, 215710, Note_off_c, 0, 81, 62
1, 215755, Note_off_c, 0, 69, 64
1, 215815, Note_on_c, 0, 60, 97
1, 215827, Note_on_c, 0, 50, 79
1, 215829, Note_on_c, 0, 55, 78
1, 215846, Note_off_c, 0, 60, 64
1, 215859, Note_off_c, 0, 55, 67
1, 215876, Note_on_c, 0, 59, 82
1, 215881, Note_off_c, 0, 50, 65
1, 215915, Note_off_c, 0, 59, 64
1, 215921, Note_on_c, 0, 62, 74
1, 215942, Note_on_c, 0, 65, 69
1, 215945, Note_off_c, 0, 62, 69
1, 215970, Note_off_c, 0, 65, 66
1, 216004, Note_on_c, 0, 71, 76
1, 216040, Note_on_c, 0, 69, 30
1, 216041, Note_off_c, 0, 69, 127
1, 216052, Note_on_c, 0, 74, 77
1, 216080, Note_on_c, 0, 77, 81
1, 216080, Note_off_c, 0, 71, 63
1, 216133, Note_off_c, 0, 74, 62
1, 216137, Note_on_c, 0, 38, 99
1, 216148, Note_on_c, 0, 26, 88
1, 216159, Note_on_c, 0, 83, 101
1, 216167, Note_on_c, 0, 71, 96
1, 216172, Control_c, 0, 64, 115
1, 216186, Note_off_c, 0, 77, 62
1, 216187, Control_c, 0, 64, 68
1, 216201, Control_c, 0, 64, 0
1, 216261, Control_c, 0, 64, 13
1, 216276, Control_c, 0, 64, 58
1, 216280, Note_off_c, 0, 26, 62
1, 216290, Note_off_c, 0, 71, 61
1, 216291, Control_c, 0, 64, 77
1, 216305, Control_c, 0, 64, 127
1, 216352, Note_off_c, 0, 38, 62
1, 216413, Note_on_c, 0, 71, 74
1, 216449, Note_off_c, 0, 71, 58
1, 216553, Note_on_c, 0, 50, 82
1, 216557, Note_on_c, 0, 71, 74
1, 216565, Note_on_c, 0, 41, 69
1, 216571, Note_on_c, 0, 45, 63
1, 216591, Note_off_c, 0, 71, 61
1, 216678, Note_on_c, 0, 71, 80
1, 216713, Note_off_c, 0, 41, 62
1, 216717, Note_off_c, 0, 50, 62
1, 216719, Note_off_c, 0, 71, 57
1, 216720, Note_off_c, 0, 45, 60
1, 216797, Note_on_c, 0, 71, 73
1, 216800, Note_on_c, 0, 52, 93
1, 216809, Note_on_c, 0, 47, 80
1, 216812, Note_on_c, 0, 43, 75
1, 216830, Note_off_c, 0, 71, 65
1, 216915, Note_on_c, 0, 71, 80
1, 216937, Note_off_c, 0, 52, 65
1, 216940, Note_off_c, 0, 71, 63
1, 216947, Note_off_c, 0, 83, 50
1, 216949, Note_off_c, 0, 43, 61
1, 216952, Note_off_c, 0, 47, 61
1, 217028, Note_on_c, 0, 53, 95
1, 217031, Note_on_c, 0, 84, 95
1, 217033, Note_on_c, 0, 48, 84
1, 217036, Note_on_c, 0, 72, 90
1, 217037, Note_on_c, 0, 45, 78
1, 217072, Note_off_c, 0, 72, 61
1, 217126, Note_on_c, 0, 72, 75
1, 217147, Note_off_c, 0, 53, 64
1, 217163, Note_off_c, 0, 45, 61
1, 217164, Note_off_c, 0, 48, 61
1, 217169, Note_off_c, 0, 84, 63
1, 217176, Note_off_c, 0, 72, 63
1, 217245, Note_on_c, 0, 55, 99
1, 217247, Note_on_c, 0, 83, 96
1, 217250, Note_on_c, 0, 50, 85
1, 217252, Note_on_c, 0, 71, 94
1, 217253, Note_on_c, 0, 47, 83
1, 217292, Note_off_c, 0, 71, 64
1, 217351, Note_off_c, 0, 55, 61
1, 217358, Note_on_c, 0, 71, 82
1, 217367, Note_off_c, 0, 50, 62
1, 217372, Note_off_c, 0, 47, 61
1, 217397, Note_off_c, 0, 71, 61
1, 217466, Note_on_c, 0, 57, 100
1, 217471, Note_on_c, 0, 52, 87
1, 217474, Note_on_c, 0, 48, 85
1, 217476, Note_on_c, 0, 71, 76
1, 217498, Note_off_c, 0, 71, 69
1, 217567, Note_on_c, 0, 71, 85
1, 217569, Note_off_c, 0, 57, 62
1, 217578, Note_off_c, 0, 48, 60
1, 217582, Note_off_c, 0, 83, 60
1, 217584, Note_off_c, 0, 52, 64
1, 217602, Note_off_c, 0, 71, 63
1, 217680, Note_on_c, 0, 59, 98
1, 217683, Note_on_c, 0, 81, 97
1, 217686, Note_on_c, 0, 53, 87
1, 217686, Note_on_c, 0, 69, 105
1, 217686, Note_on_c, 0, 50, 86
1, 217755, Note_off_c, 0, 59, 61
1, 217765, Note_off_c, 0, 81, 62
1, 217772, Note_off_c, 0, 50, 60
1, 217791, Note_off_c, 0, 53, 60
1, 217802, Note_off_c, 0, 69, 58
1, 217891, Note_on_c, 0, 60, 99
1, 217894, Note_on_c, 0, 52, 89
1, 217896, Note_on_c, 0, 55, 87
1, 217913, Note_off_c, 0, 60, 68
1, 217928, Note_off_c, 0, 55, 65
1, 217931, Note_off_c, 0, 52, 65
1, 217975, Note_on_c, 0, 59, 60
1, 217985, Note_on_c, 0, 60, 77
1, 217999, Note_on_c, 0, 64, 73
1, 218000, Note_off_c, 0, 59, 68
1, 218004, Note_off_c, 0, 60, 74
1, 218024, Note_off_c, 0, 64, 69
1, 218094, Note_on_c, 0, 67, 34
1, 218097, Note_on_c, 0, 71, 75
1, 218113, Note_on_c, 0, 74, 58
1, 218125, Note_off_c, 0, 67, 53
1, 218142, Note_on_c, 0, 67, 98
1, 218143, Note_on_c, 0, 79, 99
1, 218150, Note_on_c, 0, 62, 101
1, 218151, Note_on_c, 0, 53, 90
1, 218151, Note_on_c, 0, 57, 86
1, 218160, Control_c, 0, 64, 101
1, 218167, Note_off_c, 0, 71, 63
1, 218175, Note_on_c, 0, 76, 45
1, 218175, Control_c, 0, 64, 63
1, 218177, Note_off_c, 0, 74, 65
1, 218189, Control_c, 0, 64, 0
1, 218198, Note_off_c, 0, 76, 39
1, 218228, Note_off_c, 0, 67, 63
1, 218241, Note_off_c, 0, 57, 61
1, 218249, Control_c, 0, 64, 49
1, 218264, Control_c, 0, 64, 77
1, 218266, Note_off_c, 0, 53, 59
1, 218279, Control_c, 0, 64, 127
1, 218290, Note_off_c, 0, 62, 58
1, 218312, Note_on_c, 0, 67, 75
1, 218337, Note_off_c, 0, 67, 68
1, 218422, Note_on_c, 0, 64, 92
1, 218423, Note_on_c, 0, 55, 83
1, 218423, Note_on_c, 0, 67, 75
1, 218427, Note_on_c, 0, 59, 77
1, 218458, Note_off_c, 0, 67, 65
1, 218465, Note_off_c, 0, 64, 64
1, 218467, Note_off_c, 0, 59, 59
1, 218478, Note_off_c, 0, 55, 60
1, 218528, Note_on_c, 0, 67, 83
1, 218569, Note_off_c, 0, 67, 58
1, 218640, Note_on_c, 0, 65, 93
1, 218642, Note_on_c, 0, 67, 87
1, 218646, Note_on_c, 0, 60, 74
1, 218654, Note_on_c, 0, 57, 65
1, 218662, Note_on_c, 0, 59, 70
1, 218671, Note_off_c, 0, 60, 68
1, 218676, Note_off_c, 0, 67, 62
1, 218684, Note_off_c, 0, 57, 65
1, 218684, Note_off_c, 0, 65, 61
1, 218687, Note_off_c, 0, 59, 68
1, 218745, Note_on_c, 0, 67, 88
1, 218780, Note_off_c, 0, 67, 60
1, 218853, Note_on_c, 0, 67, 106
1, 218854, Note_on_c, 0, 58, 91
1, 218872, Note_on_c, 0, 62, 67
1, 218899, Note_off_c, 0, 67, 62
1, 218900, Note_off_c, 0, 62, 68
1, 218905, Note_off_c, 0, 58, 65
1, 218964, Note_on_c, 0, 67, 90
1, 218968, Note_off_c, 0, 79, 55
1, 219009, Note_off_c, 0, 67, 64
1, 219081, Note_on_c, 0, 77, 109
1, 219082, Note_on_c, 0, 69, 105
1, 219084, Note_on_c, 0, 65, 104
1, 219090, Note_on_c, 0, 60, 88
1, 219090, Note_on_c, 0, 64, 80
1, 219128, Note_off_c, 0, 65, 63
1, 219134, Note_off_c, 0, 60, 60
1, 219158, Note_off_c, 0, 64, 61
1, 219170, Note_off_c, 0, 69, 48
1, 219201, Note_on_c, 0, 65, 79
1, 219253, Note_off_c, 0, 65, 58
1, 219328, Note_on_c, 0, 71, 110
1, 219332, Note_on_c, 0, 65, 99
1, 219337, Note_on_c, 0, 62, 94
1, 219371, Note_off_c, 0, 71, 60
1, 219379, Note_off_c, 0, 62, 60
1, 219379, Note_off_c, 0, 65, 65
1, 219456, Note_on_c, 0, 65, 84
1, 219525, Note_off_c, 0, 65, 59
1, 219582, Note_on_c, 0, 72, 109
1, 219587, Note_on_c, 0, 64, 92
1, 219591, Note_on_c, 0, 67, 78
1, 219616, Note_on_c, 0, 65, 70
1, 219647, Note_off_c, 0, 67, 62
1, 219649, Note_off_c, 0, 64, 65
1, 219649, Note_off_c, 0, 72, 62
1, 219656, Note_off_c, 0, 77, 54
1, 219663, Note_off_c, 0, 65, 62
1, 219738, Note_on_c, 0, 65, 76
1, 219834, Note_off_c, 0, 65, 59
1, 219871, Note_on_c, 0, 74, 113
1, 219874, Note_on_c, 0, 65, 85
1, 219877, Note_on_c, 0, 69, 81
1, 219934, Note_off_c, 0, 74, 66
1, 219976, Note_off_c, 0, 69, 62
1, 219978, Note_off_c, 0, 65, 64
1, 219992, Poly_aftertouch_c, 0, 67, 0
1, 220059, Note_on_c, 0, 65, 95
1, 220222, Note_off_c, 0, 65, 56
1, 220383, Note_on_c, 0, 65, 108
1, 220383, Note_on_c, 0, 64, 107
1, 220384, Note_on_c, 0, 40, 103
1, 220384, Note_on_c, 0, 71, 83
1, 220384, Note_on_c, 0, 76, 105
1, 220385, Note_on_c, 0, 74, 87
1, 220389, Note_on_c, 0, 28, 100
1, 220389, Note_on_c, 0, 69, 71
1, 220414, Note_off_c, 0, 76, 73
1, 220479, Control_c, 0, 64, 109
1, 220494, Control_c, 0, 64, 75
1, 220509, Control_c, 0, 64, 45
1, 220524, Control_c, 0, 64, 0
1, 220628, Control_c, 0, 64, 46
1, 220650, Control_c, 0, 64, 64
1, 220664, Control_c, 0, 64, 81
1, 220679, Control_c, 0, 64, 127
1, 220767, Note_off_c, 0, 28, 59
1, 220798, Note_off_c, 0, 40, 54
1, 221073, Note_off_c, 0, 65, 49
1, 221086, Note_on_c, 0, 47, 102
1, 221090, Note_off_c, 0, 74, 59
1, 221094, Note_off_c, 0, 64, 53
1, 221108, Note_off_c, 0, 71, 57
1, 221111, Note_off_c, 0, 69, 59
1, 221287, Note_off_c, 0, 47, 56
1, 221347, Note_on_c, 0, 35, 92
1, 221374, Note_on_c, 0, 36, 54
1, 221409, Note_off_c, 0, 35, 64
1, 221414, Note_off_c, 0, 36, 57
1, 221528, Note_on_c, 0, 47, 76
1, 221549, Note_on_c, 0, 48, 84
1, 221561, Note_on_c, 0, 50, 87
1, 221582, Note_on_c, 0, 53, 108
1, 221583, Note_on_c, 0, 65, 102
1, 221596, Note_on_c, 0, 52, 103
1, 221606, Control_c, 0, 64, 99
1, 221614, Note_off_c, 0, 47, 63
1, 221620, Note_off_c, 0, 48, 64
1, 221620, Control_c, 0, 64, 60
1, 221623, Note_off_c, 0, 50, 64
1, 221635, Control_c, 0, 64, 0
1, 221710, Control_c, 0, 64, 12
1, 221725, Control_c, 0, 64, 61
1, 221740, Control_c, 0, 64, 80
1, 221755, Control_c, 0, 64, 127
1, 221800, Note_off_c, 0, 52, 60
1, 221840, Note_on_c, 0, 40, 98
1, 221929, Note_off_c, 0, 40, 63
1, 221947, Poly_aftertouch_c, 0, 47, 0
1, 222082, Note_on_c, 0, 45, 105
1, 222138, Note_on_c, 0, 35, 37
1, 222140, Note_on_c, 0, 36, 40
1, 222173, Note_off_c, 0, 35, 51
1, 222197, Poly_aftertouch_c, 0, 37, 127
1, 222250, Note_off_c, 0, 45, 50
1, 222282, Poly_aftertouch_c, 0, 43, 0
1, 222305, Note_off_c, 0, 65, 55
1, 222345, Note_off_c, 0, 36, 37
1, 222349, Poly_aftertouch_c, 0, 37, 0
1, 222360, Note_on_c, 0, 33, 101
1, 222360, Note_off_c, 0, 53, 57
1, 222489, Note_off_c, 0, 33, 59
1, 222767, Note_on_c, 0, 47, 100
1, 222768, Note_on_c, 0, 28, 95
1, 222768, Note_on_c, 0, 40, 100
1, 222769, Note_on_c, 0, 33, 93
1, 222873, Control_c, 0, 64, 80
1, 222896, Control_c, 0, 64, 61
1, 222911, Control_c, 0, 64, 0
1, 223074, Control_c, 0, 64, 38
1, 223089, Control_c, 0, 64, 53
1, 223104, Control_c, 0, 64, 61
1, 223119, Control_c, 0, 64, 67
1, 223133, Control_c, 0, 64, 73
1, 223148, Control_c, 0, 64, 86
1, 223163, Control_c, 0, 64, 127
1, 223317, Note_off_c, 0, 28, 55
1, 223374, Note_off_c, 0, 40, 62
1, 223384, Note_off_c, 0, 33, 56
1, 223517, Note_off_c, 0, 47, 56
1, 223869, Note_on_c, 0, 40, 68
1, 223908, Note_on_c, 0, 43, 75
1, 223943, Note_on_c, 0, 47, 76
1, 223986, Note_on_c, 0, 58, 55
1, 223990, Note_on_c, 0, 62, 85
1, 223990, Note_on_c, 0, 53, 105
1, 223992, Note_on_c, 0, 50, 97
1, 223993, Note_on_c, 0, 64, 100
1, 223994, Note_on_c, 0, 57, 82
1, 224009, Note_on_c, 0, 59, 75
1, 224010, Note_off_c, 0, 58, 55
1, 224104, Control_c, 0, 64, 100
1, 224119, Control_c, 0, 64, 79
1, 224134, Control_c, 0, 64, 64
1, 224149, Control_c, 0, 64, 48
1, 224163, Control_c, 0, 64, 19
1, 224178, Control_c, 0, 64, 0
1, 224586, Control_c, 0, 64, 9
1, 224601, Control_c, 0, 64, 24
1, 224616, Control_c, 0, 64, 32
1, 224631, Control_c, 0, 64, 38
1, 224646, Control_c, 0, 64, 42
1, 224661, Control_c, 0, 64, 46
1, 224676, Control_c, 0, 64, 50
1, 224691, Control_c, 0, 64, 53
1, 224705, Control_c, 0, 64, 56
1, 224720, Control_c, 0, 64, 58
1, 224735, Control_c, 0, 64, 60
1, 224750, Control_c, 0, 64, 62
1, 224765, Control_c, 0, 64, 64
1, 224779, Control_c, 0, 64, 65
1, 224794, Control_c, 0, 64, 68
1, 224809, Control_c, 0, 64, 70
1, 224824, Control_c, 0, 64, 72
1, 224838, Control_c, 0, 64, 75
1, 224853, Control_c, 0, 64, 79
1, 224868, Control_c, 0, 64, 82
1, 224883, Control_c, 0, 64, 87
1, 224898, Control_c, 0, 64, 91
1, 224912, Control_c, 0, 64, 96
1, 224927, Control_c, 0, 64, 103
1, 224942, Control_c, 0, 64, 117
1, 224957, Control_c, 0, 64, 127
1, 224995, Note_off_c, 0, 40, 0
1, 225031, Poly_aftertouch_c, 0, 40, 127
1, 225141, Note_off_c, 0, 53, 54
1, 225352, Note_off_c, 0, 57, 53
1, 225356, Note_off_c, 0, 59, 51
1, 225491, Poly_aftertouch_c, 0, 40, 0
1, 225522, Note_off_c, 0, 43, 59
1, 225536, Note_off_c, 0, 62, 56
1, 225548, Note_off_c, 0, 47, 58
1, 225574, Note_off_c, 0, 50, 57
1, 225751, Control_c, 0, 64, 102
1, 225766, Control_c, 0, 64, 92
1, 225781, Control_c, 0, 64, 84
1, 225796, Control_c, 0, 64, 77
1, 225810, Control_c, 0, 64, 72
1, 225825, Control_c, 0, 64, 69
1, 225840, Control_c, 0, 64, 67
1, 225854, Control_c, 0, 64, 66
1, 225869, Control_c, 0, 64, 64
1, 225892, Control_c, 0, 64, 63
1, 225907, Control_c, 0, 64, 62
1, 225922, Control_c, 0, 64, 61
1, 225936, Control_c, 0, 64, 59
1, 225951, Control_c, 0, 64, 58
1, 225966, Control_c, 0, 64, 56
1, 225981, Control_c, 0, 64, 54
1, 225995, Control_c, 0, 64, 51
1, 226010, Control_c, 0, 64, 48
1, 226025, Control_c, 0, 64, 45
1, 226040, Control_c, 0, 64, 43
1, 226054, Control_c, 0, 64, 40
1, 226069, Control_c, 0, 64, 38
1, 226085, Control_c, 0, 64, 35
1, 226100, Control_c, 0, 64, 32
1, 226115, Control_c, 0, 64, 30
1, 226130, Control_c, 0, 64, 29
1, 226145, Control_c, 0, 64, 28
1, 226159, Control_c, 0, 64, 27
1, 226174, Control_c, 0, 64, 26
1, 226189, Control_c, 0, 64, 25
1, 226204, Control_c, 0, 64, 25
1, 226247, Control_c, 0, 64, 24
1, 227174, Control_c, 0, 64, 25
1, 227189, Control_c, 0, 64, 25
1, 227204, Control_c, 0, 64, 26
1, 227219, Control_c, 0, 64, 27
1, 227233, Control_c, 0, 64, 29
1, 227248, Control_c, 0, 64, 31
1, 227263, Control_c, 0, 64, 33
1, 227278, Control_c, 0, 64, 35
1, 227293, Control_c, 0, 64, 37
1, 227307, Control_c, 0, 64, 38
1, 227322, Control_c, 0, 64, 40
1, 227337, Control_c, 0, 64, 43
1, 227352, Control_c, 0, 64, 46
1, 227367, Control_c, 0, 64, 48
1, 227388, Control_c, 0, 64, 49
1, 227403, Control_c, 0, 64, 51
1, 227418, Control_c, 0, 64, 52
1, 227433, Control_c, 0, 64, 55
1, 227448, Control_c, 0, 64, 58
1, 227463, Control_c, 0, 64, 61
1, 227478, Control_c, 0, 64, 62
1, 227493, Control_c, 0, 64, 64
1, 227507, Control_c, 0, 64, 65
1, 227522, Control_c, 0, 64, 67
1, 227537, Control_c, 0, 64, 70
1, 227552, Control_c, 0, 64, 74
1, 227567, Control_c, 0, 64, 78
1, 227581, Control_c, 0, 64, 86
1, 227596, Control_c, 0, 64, 93
1, 227611, Control_c, 0, 64, 100
1, 227625, Control_c, 0, 64, 110
1, 227640, Control_c, 0, 64, 127
1, 228256, Control_c, 0, 67, 14
1, 228271, Control_c, 0, 67, 23
1, 228286, Control_c, 0, 67, 33
1, 228301, Control_c, 0, 67, 45
1, 228316, Control_c, 0, 67, 55
1, 228330, Control_c, 0, 67, 63
1, 228345, Control_c, 0, 67, 72
1, 228360, Control_c, 0, 67, 82
1, 228375, Control_c, 0, 67, 90
1, 228384, Note_off_c, 0, 64, 0
1, 228390, Control_c, 0, 67, 96
1, 228404, Control_c, 0, 67, 97
1, 228419, Control_c, 0, 67, 97
1, 228421, Poly_aftertouch_c, 0, 64, 127
1, 228434, Control_c, 0, 67, 99
1, 228448, Control_c, 0, 67, 101
1, 228463, Control_c, 0, 67, 108
1, 228479, Control_c, 0, 67, 115
1, 228494, Control_c, 0, 67, 116
1, 228583, Control_c, 0, 64, 123
1, 228598, Control_c, 0, 64, 118
1, 228613, Control_c, 0, 64, 114
1, 228627, Control_c, 0, 64, 111
1, 228642, Control_c, 0, 64, 108
1, 228657, Control_c, 0, 64, 106
1, 228672, Control_c, 0, 64, 103
1, 228686, Control_c, 0, 64, 101
1, 228701, Control_c, 0, 64, 100
1, 228716, Control_c, 0, 64, 99
1, 228731, Control_c, 0, 64, 98
1, 228745, Control_c, 0, 64, 97
1, 228760, Control_c, 0, 64, 95
1, 228775, Control_c, 0, 64, 94
1, 228790, Control_c, 0, 64, 93
1, 228805, Control_c, 0, 64, 92
1, 228819, Control_c, 0, 64, 91
1, 228834, Control_c, 0, 64, 91
1, 228849, Control_c, 0, 64, 90
1, 228864, Control_c, 0, 64, 89
1, 228886, Control_c, 0, 64, 88
1, 228901, Control_c, 0, 64, 87
1, 228916, Control_c, 0, 64, 86
1, 228931, Control_c, 0, 64, 85
1, 228946, Control_c, 0, 64, 84
1, 228960, Control_c, 0, 64, 83
1, 228975, Control_c, 0, 64, 81
1, 228990, Control_c, 0, 64, 80
1, 229004, Control_c, 0, 64, 79
1, 229019, Control_c, 0, 64, 78
1, 229025, Note_on_c, 0, 66, 27
1, 229034, Control_c, 0, 64, 77
1, 229049, Control_c, 0, 64, 76
1, 229064, Control_c, 0, 64, 75
1, 229079, Control_c, 0, 64, 73
1, 229094, Control_c, 0, 64, 72
1, 229108, Control_c, 0, 64, 72
1, 229123, Control_c, 0, 64, 71
1, 229138, Control_c, 0, 64, 70
1, 229153, Control_c, 0, 64, 69
1, 229168, Control_c, 0, 64, 68
1, 229191, Poly_aftertouch_c, 0, 64, 0
1, 229198, Control_c, 0, 64, 68
1, 229213, Control_c, 0, 64, 67
1, 229227, Control_c, 0, 64, 66
1, 229241, Control_c, 0, 64, 66
1, 229256, Control_c, 0, 64, 65
1, 229272, Control_c, 0, 64, 65
1, 229287, Control_c, 0, 64, 64
1, 229301, Control_c, 0, 64, 64
1, 229361, Control_c, 0, 64, 63
1, 229375, Control_c, 0, 64, 63
1, 229390, Control_c, 0, 64, 62
1, 229435, Control_c, 0, 64, 62
1, 229449, Control_c, 0, 64, 61
1, 229451, Note_on_c, 0, 65, 38
1, 229464, Control_c, 0, 64, 61
1, 229493, Control_c, 0, 64, 60
1, 229523, Control_c, 0, 64, 60
1, 229538, Control_c, 0, 64, 59
1, 229553, Control_c, 0, 64, 59
1, 229568, Control_c, 0, 64, 58
1, 229582, Control_c, 0, 64, 58
1, 229597, Control_c, 0, 64, 57
1, 229597, Control_c, 0, 67, 115
1, 229599, Note_off_c, 0, 66, 37
1, 229612, Control_c, 0, 64, 57
1, 229635, Control_c, 0, 64, 56
1, 229650, Control_c, 0, 64, 55
1, 229664, Control_c, 0, 64, 54
1, 229679, Control_c, 0, 64, 54
1, 229694, Control_c, 0, 64, 53
1, 229708, Control_c, 0, 64, 53
1, 229723, Control_c, 0, 64, 52
1, 229738, Control_c, 0, 64, 51
1, 229738, Control_c, 0, 67, 115
1, 229743, Note_on_c, 0, 64, 34
1, 229753, Control_c, 0, 64, 50
1, 229768, Control_c, 0, 64, 49
1, 229782, Control_c, 0, 64, 48
1, 229797, Control_c, 0, 64, 46
1, 229804, Note_off_c, 0, 65, 31
1, 229812, Control_c, 0, 64, 44
1, 229827, Control_c, 0, 64, 41
1, 229842, Control_c, 0, 64, 39
1, 229857, Control_c, 0, 64, 36
1, 229872, Control_c, 0, 64, 34
1, 229886, Control_c, 0, 64, 30
1, 229901, Control_c, 0, 64, 22
1, 229916, Control_c, 0, 64, 0
1, 229993, Note_on_c, 0, 66, 35
1, 230058, Note_off_c, 0, 64, 34
1, 230191, Note_on_c, 0, 65, 32
1, 230243, Control_c, 0, 67, 114
1, 230263, Note_off_c, 0, 66, 37
1, 230381, Note_on_c, 0, 64, 29
1, 230405, Note_off_c, 0, 65, 35
1, 230487, Control_c, 0, 67, 114
1, 230557, Note_on_c, 0, 66, 35
1, 230561, Control_c, 0, 67, 113
1, 230632, Note_off_c, 0, 64, 38
1, 230635, Control_c, 0, 67, 112
1, 230709, Control_c, 0, 67, 112
1, 230720, Note_on_c, 0, 65, 34
1, 230771, Note_off_c, 0, 66, 34
1, 230813, Control_c, 0, 67, 111
1, 230843, Control_c, 0, 67, 110
1, 230868, Note_on_c, 0, 64, 34
1, 230901, Note_off_c, 0, 65, 42
1, 230903, Control_c, 0, 67, 110
1, 230947, Control_c, 0, 67, 109
1, 230977, Control_c, 0, 67, 109
1, 231023, Note_on_c, 0, 66, 35
1, 231036, Control_c, 0, 67, 108
1, 231065, Control_c, 0, 67, 107
1, 231095, Note_off_c, 0, 64, 32
1, 231110, Control_c, 0, 67, 107
1, 231133, Control_c, 0, 67, 106
1, 231162, Control_c, 0, 67, 105
1, 231171, Note_on_c, 0, 65, 38
1, 231200, Note_off_c, 0, 66, 42
1, 231207, Control_c, 0, 67, 105
1, 231266, Control_c, 0, 67, 104
1, 231305, Note_on_c, 0, 64, 31
1, 231343, Note_off_c, 0, 65, 32
1, 231354, Control_c, 0, 67, 103
1, 231428, Control_c, 0, 67, 103
1, 231454, Note_on_c, 0, 66, 33
1, 231492, Note_off_c, 0, 64, 40
1, 231517, Control_c, 0, 67, 102
1, 231586, Note_on_c, 0, 65, 36
1, 231592, Control_c, 0, 67, 102
1, 231615, Note_off_c, 0, 66, 35
1, 231714, Note_on_c, 0, 64, 37
1, 231728, Note_off_c, 0, 65, 35
1, 231857, Note_on_c, 0, 66, 33
1, 231902, Note_off_c, 0, 64, 34
1, 231992, Note_on_c, 0, 65, 36
1, 232000, Note_off_c, 0, 66, 34
1, 232094, Note_off_c, 0, 65, 49
1, 232107, Note_on_c, 0, 64, 34
1, 232240, Note_off_c, 0, 64, 45
1, 232246, Note_on_c, 0, 66, 31
1, 232325, Note_off_c, 0, 66, 48
1, 232360, Note_on_c, 0, 65, 34
1, 232444, Note_off_c, 0, 65, 53
1, 232468, Note_on_c, 0, 64, 37
1, 232577, Note_off_c, 0, 64, 51
1, 232599, Note_on_c, 0, 66, 37
1, 232686, Note_off_c, 0, 66, 55
1, 232727, Note_on_c, 0, 65, 34
1, 232806, Note_off_c, 0, 65, 55
1, 232842, Note_on_c, 0, 64, 36
1, 232949, Note_off_c, 0, 64, 52
1, 232963, Note_on_c, 0, 60, 29
1, 232978, Note_on_c, 0, 66, 32
1, 233010, Note_off_c, 0, 66, 53
1, 233114, Note_on_c, 0, 62, 34
1, 233123, Note_off_c, 0, 60, 36
1, 233201, Note_off_c, 0, 62, 49
1, 233245, Note_on_c, 0, 65, 33
1, 233309, Note_off_c, 0, 65, 58
1, 233349, Note_on_c, 0, 63, 25
1, 233356, Note_on_c, 0, 61, 32
1, 233395, Note_off_c, 0, 63, 50
1, 233479, Note_on_c, 0, 62, 30
1, 233486, Note_off_c, 0, 61, 36
1, 233547, Note_off_c, 0, 62, 52
1, 233570, Note_on_c, 0, 64, 43
1, 233669, Note_off_c, 0, 64, 57
1, 233681, Note_on_c, 0, 60, 35
1, 233686, Note_on_c, 0, 66, 38
1, 233714, Note_off_c, 0, 66, 57
1, 233806, Note_on_c, 0, 62, 37
1, 233823, Note_off_c, 0, 60, 35
1, 233867, Note_off_c, 0, 62, 56
1, 233896, Note_on_c, 0, 65, 41
1, 233973, Note_off_c, 0, 65, 58
1, 233997, Note_on_c, 0, 63, 38
1, 234009, Note_on_c, 0, 61, 35
1, 234033, Note_off_c, 0, 63, 53
1, 234090, Note_off_c, 0, 61, 52
1, 234112, Note_on_c, 0, 62, 35
1, 234185, Note_off_c, 0, 62, 55
1, 234208, Note_on_c, 0, 64, 47
1, 234300, Note_off_c, 0, 64, 59
1, 234313, Note_on_c, 0, 60, 38
1, 234318, Note_on_c, 0, 66, 36
1, 234349, Note_off_c, 0, 66, 54
1, 234412, Note_off_c, 0, 60, 52
1, 234430, Note_on_c, 0, 62, 35
1, 234491, Note_off_c, 0, 62, 56
1, 234519, Note_on_c, 0, 65, 45
1, 234581, Note_off_c, 0, 65, 58
1, 234610, Note_on_c, 0, 63, 39
1, 234615, Note_on_c, 0, 61, 36
1, 234650, Note_off_c, 0, 63, 51
1, 234686, Note_off_c, 0, 61, 55
1, 234719, Note_on_c, 0, 62, 37
1, 234779, Note_off_c, 0, 62, 55
1, 234802, Note_on_c, 0, 64, 51
1, 234903, Note_off_c, 0, 64, 59
1, 234913, Note_on_c, 0, 60, 40
1, 234915, Note_on_c, 0, 66, 42
1, 234944, Note_off_c, 0, 66, 57
1, 234992, Note_off_c, 0, 60, 53
1, 235023, Note_on_c, 0, 62, 39
1, 235095, Note_off_c, 0, 62, 53
1, 235116, Note_on_c, 0, 65, 49
1, 235182, Note_off_c, 0, 65, 60
1, 235210, Note_on_c, 0, 63, 42
1, 235210, Note_on_c, 0, 61, 38
1, 235244, Note_off_c, 0, 63, 56
1, 235294, Note_off_c, 0, 61, 55
1, 235314, Note_on_c, 0, 62, 43
1, 235377, Note_off_c, 0, 62, 55
1, 235401, Note_on_c, 0, 64, 52
1, 235472, Note_off_c, 0, 64, 58
1, 235491, Note_on_c, 0, 66, 48
1, 235494, Note_on_c, 0, 59, 38
1, 235520, Note_off_c, 0, 66, 61
1, 235573, Note_off_c, 0, 59, 54
1, 235599, Note_on_c, 0, 62, 40
1, 235671, Note_off_c, 0, 62, 55
1, 235699, Note_on_c, 0, 65, 49
1, 235761, Note_off_c, 0, 65, 61
1, 235786, Note_on_c, 0, 63, 41
1, 235787, Note_on_c, 0, 61, 42
1, 235813, Note_off_c, 0, 63, 57
1, 235849, Note_off_c, 0, 61, 57
1, 235876, Note_on_c, 0, 62, 41
1, 235929, Note_off_c, 0, 62, 58
1, 235947, Note_on_c, 0, 64, 56
1, 236016, Note_off_c, 0, 64, 59
1, 236035, Note_on_c, 0, 66, 48
1, 236047, Note_on_c, 0, 59, 37
1, 236063, Note_off_c, 0, 66, 61
1, 236117, Note_off_c, 0, 59, 54
1, 236140, Note_on_c, 0, 62, 40
1, 236205, Note_off_c, 0, 62, 56
1, 236221, Note_on_c, 0, 65, 53
1, 236279, Note_off_c, 0, 65, 60
1, 236297, Note_on_c, 0, 63, 52
1, 236327, Note_on_c, 0, 61, 35
1, 236331, Note_off_c, 0, 63, 63
1, 236393, Note_off_c, 0, 61, 58
1, 236415, Note_on_c, 0, 62, 46
1, 236471, Note_off_c, 0, 62, 56
1, 236483, Note_on_c, 0, 64, 52
1, 236545, Note_off_c, 0, 64, 58
1, 236564, Note_on_c, 0, 66, 48
1, 236579, Note_on_c, 0, 58, 37
1, 236589, Note_off_c, 0, 66, 59
1, 236663, Note_off_c, 0, 58, 55
1, 236668, Note_on_c, 0, 62, 43
1, 236726, Note_off_c, 0, 62, 57
1, 236760, Note_on_c, 0, 65, 46
1, 236808, Note_off_c, 0, 65, 62
1, 236827, Note_on_c, 0, 63, 45
1, 236849, Note_on_c, 0, 61, 41
1, 236855, Note_off_c, 0, 63, 58
1, 236904, Note_off_c, 0, 61, 58
1, 236924, Note_on_c, 0, 62, 45
1, 236977, Note_off_c, 0, 62, 57
1, 236998, Note_on_c, 0, 64, 55
1, 237055, Note_off_c, 0, 64, 53
1, 237080, Note_on_c, 0, 66, 47
1, 237096, Note_on_c, 0, 58, 41
1, 237112, Note_off_c, 0, 66, 58
1, 237160, Note_off_c, 0, 58, 57
1, 237184, Note_on_c, 0, 62, 45
1, 237237, Note_off_c, 0, 62, 56
1, 237271, Note_on_c, 0, 65, 53
1, 237333, Note_off_c, 0, 65, 61
1, 237354, Note_on_c, 0, 63, 42
1, 237363, Note_on_c, 0, 61, 41
1, 237379, Note_off_c, 0, 63, 59
1, 237416, Note_off_c, 0, 61, 58
1, 237442, Note_on_c, 0, 62, 45
1, 237488, Note_off_c, 0, 62, 60
1, 237512, Note_on_c, 0, 64, 55
1, 237556, Note_off_c, 0, 64, 61
1, 237580, Note_on_c, 0, 67, 51
1, 237595, Note_on_c, 0, 57, 31
1, 237604, Note_off_c, 0, 67, 59
1, 237648, Note_off_c, 0, 57, 57
1, 237667, Note_on_c, 0, 60, 43
1, 237731, Note_off_c, 0, 60, 57
1, 237756, Note_on_c, 0, 65, 57
1, 237795, Note_off_c, 0, 65, 62
1, 237835, Note_on_c, 0, 59, 32
1, 237837, Note_on_c, 0, 62, 47
1, 237880, Note_off_c, 0, 62, 62
1, 237899, Note_off_c, 0, 59, 57
1, 237920, Note_on_c, 0, 63, 50
1, 237977, Note_off_c, 0, 63, 57
1, 238000, Note_on_c, 0, 64, 60
1, 238039, Note_off_c, 0, 64, 62
1, 238074, Note_on_c, 0, 67, 59
1, 238090, Note_on_c, 0, 57, 46
1, 238101, Note_off_c, 0, 67, 63
1, 238144, Note_off_c, 0, 57, 58
1, 238161, Note_on_c, 0, 60, 51
1, 238212, Note_off_c, 0, 60, 60
1, 238247, Note_on_c, 0, 65, 59
1, 238284, Note_off_c, 0, 65, 62
1, 238315, Note_on_c, 0, 62, 52
1, 238330, Note_on_c, 0, 59, 46
1, 238353, Note_off_c, 0, 62, 60
1, 238385, Note_off_c, 0, 59, 58
1, 238403, Note_on_c, 0, 63, 55
1, 238450, Note_off_c, 0, 63, 58
1, 238469, Note_on_c, 0, 64, 73
1, 238523, Note_off_c, 0, 64, 61
1, 238538, Note_on_c, 0, 68, 72
1, 238540, Note_on_c, 0, 56, 55
1, 238564, Note_off_c, 0, 68, 67
1, 238568, Control_c, 0, 67, 102
1, 238615, Note_off_c, 0, 56, 59
1, 238627, Note_on_c, 0, 60, 52
1, 238671, Note_off_c, 0, 60, 61
1, 238719, Note_on_c, 0, 65, 68
1, 238753, Control_c, 0, 67, 103
1, 238763, Note_off_c, 0, 65, 61
1, 238790, Note_on_c, 0, 62, 63
1, 238793, Note_on_c, 0, 59, 56
1, 238820, Note_off_c, 0, 62, 65
1, 238853, Note_off_c, 0, 59, 54
1, 238869, Note_on_c, 0, 63, 64
1, 238936, Note_off_c, 0, 63, 58
1, 238947, Note_on_c, 0, 64, 75
1, 238961, Control_c, 0, 67, 103
1, 238999, Note_off_c, 0, 64, 63
1, 239010, Note_on_c, 0, 55, 57
1, 239013, Note_on_c, 0, 69, 75
1, 239035, Note_off_c, 0, 69, 70
1, 239077, Note_off_c, 0, 55, 59
1, 239094, Note_on_c, 0, 60, 67
1, 239095, Control_c, 0, 67, 104
1, 239124, Control_c, 0, 67, 105
1, 239157, Note_off_c, 0, 60, 58
1, 239169, Control_c, 0, 67, 105
1, 239184, Control_c, 0, 67, 106
1, 239184, Note_on_c, 0, 65, 74
1, 239214, Control_c, 0, 67, 107
1, 239238, Note_off_c, 0, 65, 61
1, 239244, Note_on_c, 0, 59, 57
1, 239252, Note_on_c, 0, 62, 69
1, 239278, Note_off_c, 0, 62, 67
1, 239297, Note_off_c, 0, 59, 61
1, 239330, Note_on_c, 0, 63, 70
1, 239382, Note_off_c, 0, 63, 59
1, 239413, Control_c, 0, 67, 106
1, 239416, Note_on_c, 0, 64, 80
1, 239428, Control_c, 0, 67, 105
1, 239458, Control_c, 0, 67, 105
1, 239474, Note_off_c, 0, 64, 65
1, 239480, Note_on_c, 0, 52, 60
1, 239483, Note_on_c, 0, 71, 82
1, 239502, Note_off_c, 0, 71, 71
1, 239542, Note_off_c, 0, 52, 58
1, 239559, Note_on_c, 0, 57, 65
1, 239591, Control_c, 0, 67, 105
1, 239601, Note_off_c, 0, 57, 63
1, 239650, Control_c, 0, 67, 106
1, 239667, Note_on_c, 0, 65, 62
1, 239706, Note_off_c, 0, 65, 59
1, 239744, Note_on_c, 0, 62, 50
1, 239758, Note_on_c, 0, 59, 51
1, 239768, Note_off_c, 0, 62, 57
1, 239799, Note_off_c, 0, 59, 62
1, 239829, Note_on_c, 0, 60, 47
1, 239862, Note_off_c, 0, 60, 64
1, 239902, Note_on_c, 0, 62, 57
1, 239938, Note_off_c, 0, 62, 63
1, 239973, Note_on_c, 0, 65, 63
1, 239974, Note_on_c, 0, 52, 46
1, 240003, Note_off_c, 0, 65, 64
1, 240022, Note_off_c, 0, 52, 62
1, 240054, Note_on_c, 0, 57, 51
1, 240093, Note_off_c, 0, 57, 64
1, 240142, Note_on_c, 0, 65, 63
1, 240186, Note_off_c, 0, 65, 61
1, 240218, Note_on_c, 0, 62, 57
1, 240242, Note_on_c, 0, 59, 48
1, 240247, Note_off_c, 0, 62, 64
1, 240250, Control_c, 0, 67, 107
1, 240280, Note_off_c, 0, 59, 63
1, 240306, Note_on_c, 0, 60, 53
1, 240339, Note_off_c, 0, 60, 63
1, 240378, Note_on_c, 0, 62, 58
1, 240417, Note_off_c, 0, 62, 63
1, 240427, Control_c, 0, 67, 107
1, 240454, Note_on_c, 0, 65, 51
1, 240466, Note_on_c, 0, 52, 41
1, 240477, Note_off_c, 0, 65, 59
1, 240510, Note_off_c, 0, 52, 59
1, 240549, Note_on_c, 0, 57, 44
1, 240621, Note_off_c, 0, 57, 54
1, 240623, Note_on_c, 0, 65, 49
1, 240638, Note_on_c, 0, 59, 48
1, 240666, Note_off_c, 0, 65, 63
1, 240680, Control_c, 0, 67, 108
1, 240682, Note_off_c, 0, 59, 62
1, 240699, Note_on_c, 0, 64, 59
1, 240722, Note_on_c, 0, 62, 46
1, 240761, Note_off_c, 0, 62, 61
1, 240773, Note_off_c, 0, 64, 57
1, 240782, Note_on_c, 0, 65, 60
1, 240786, Note_on_c, 0, 59, 45
1, 240818, Note_off_c, 0, 59, 62
1, 240823, Note_off_c, 0, 65, 61
1, 240861, Note_on_c, 0, 69, 73
1, 240926, Note_off_c, 0, 69, 62
1, 240934, Note_on_c, 0, 68, 69
1, 240937, Note_on_c, 0, 52, 53
1, 240967, Note_off_c, 0, 52, 60
1, 240967, Note_off_c, 0, 68, 64
1, 240985, Control_c, 0, 67, 109
1, 241003, Note_on_c, 0, 69, 78
1, 241014, Control_c, 0, 67, 109
1, 241024, Note_on_c, 0, 59, 56
1, 241038, Note_off_c, 0, 69, 63
1, 241044, Control_c, 0, 67, 110
1, 241073, Note_off_c, 0, 59, 61
1, 241074, Note_on_c, 0, 72, 79
1, 241074, Control_c, 0, 67, 110
1, 241086, Note_on_c, 0, 62, 66
1, 241089, Control_c, 0, 67, 111
1, 241104, Note_off_c, 0, 72, 62
1, 241104, Control_c, 0, 67, 112
1, 241122, Note_off_c, 0, 62, 64
1, 241140, Note_on_c, 0, 71, 82
1, 241162, Note_on_c, 0, 65, 62
1, 241163, Control_c, 0, 67, 112
1, 241196, Note_off_c, 0, 71, 58
1, 241198, Note_off_c, 0, 65, 61
1, 241205, Note_on_c, 0, 72, 74
1, 241221, Note_on_c, 0, 64, 65
1, 241229, Note_off_c, 0, 72, 68
1, 241248, Note_off_c, 0, 64, 63
1, 241296, Note_on_c, 0, 76, 75
1, 241297, Note_on_c, 0, 69, 81
1, 241297, Control_c, 0, 67, 113
1, 241312, Control_c, 0, 67, 114
1, 241317, Note_off_c, 0, 69, 72
1, 241323, Note_off_c, 0, 76, 69
1, 241329, Note_on_c, 0, 72, 18
1, 241365, Note_off_c, 0, 72, 31
1, 241396, Note_on_c, 0, 45, 46
1, 241435, Note_off_c, 0, 45, 63
1, 241470, Note_on_c, 0, 52, 52
1, 241487, Note_on_c, 0, 65, 67
1, 241488, Note_on_c, 0, 69, 68
1, 241488, Note_on_c, 0, 72, 56
1, 241502, Note_off_c, 0, 52, 65
1, 241515, Note_off_c, 0, 65, 66
1, 241537, Note_off_c, 0, 69, 59
1, 241547, Note_off_c, 0, 72, 53
1, 241549, Note_on_c, 0, 64, 78
1, 241563, Control_c, 0, 64, 25
1, 241578, Control_c, 0, 64, 47
1, 241593, Control_c, 0, 64, 57
1, 241616, Control_c, 0, 64, 61
1, 241631, Control_c, 0, 64, 63
1, 241645, Control_c, 0, 64, 65
1, 241650, Note_on_c, 0, 54, 53
1, 241660, Control_c, 0, 64, 68
1, 241675, Control_c, 0, 64, 73
1, 241690, Control_c, 0, 64, 79
1, 241705, Note_off_c, 0, 54, 59
1, 241705, Control_c, 0, 64, 83
1, 241705, Control_c, 0, 67, 114
1, 241734, Control_c, 0, 64, 81
1, 241739, Note_on_c, 0, 56, 52
1, 241749, Control_c, 0, 64, 78
1, 241763, Control_c, 0, 64, 75
1, 241763, Control_c, 0, 67, 115
1, 241768, Note_off_c, 0, 64, 58
1, 241778, Control_c, 0, 64, 71
1, 241778, Control_c, 0, 67, 115
1, 241780, Note_off_c, 0, 56, 64
1, 241793, Control_c, 0, 64, 67
1, 241808, Control_c, 0, 64, 63
1, 241808, Control_c, 0, 67, 118
1, 241812, Note_on_c, 0, 57, 55
1, 241823, Control_c, 0, 64, 56
1, 241837, Control_c, 0, 64, 47
1, 241837, Control_c, 0, 67, 119
1, 241850, Note_off_c, 0, 57, 65
1, 241852, Control_c, 0, 64, 40
1, 241852, Control_c, 0, 67, 120
1, 241867, Control_c, 0, 64, 16
1, 241867, Control_c, 0, 67, 121
1, 241882, Control_c, 0, 64, 0
1, 241882, Control_c, 0, 67, 123
1, 241892, Note_on_c, 0, 60, 50
1, 241897, Control_c, 0, 67, 127
1, 241900, Note_on_c, 0, 45, 46
1, 241914, Note_off_c, 0, 60, 57
1, 241945, Note_off_c, 0, 45, 60
1, 241977, Note_on_c, 0, 52, 55
1, 242016, Note_off_c, 0, 52, 64
1, 242051, Note_on_c, 0, 60, 56
1, 242092, Note_off_c, 0, 60, 66
1, 242126, Note_on_c, 0, 57, 65
1, 242145, Note_on_c, 0, 54, 54
1, 242154, Note_off_c, 0, 57, 67
1, 242185, Note_off_c, 0, 54, 66
1, 242220, Note_on_c, 0, 56, 55
1, 242251, Note_off_c, 0, 56, 65
1, 242284, Note_on_c, 0, 57, 62
1, 242326, Note_off_c, 0, 57, 63
1, 242368, Note_on_c, 0, 60, 55
1, 242382, Note_on_c, 0, 45, 45
1, 242388, Note_off_c, 0, 60, 59
1, 242442, Note_off_c, 0, 45, 59
1, 242450, Note_on_c, 0, 52, 51
1, 242483, Note_off_c, 0, 52, 66
1, 242550, Note_on_c, 0, 64, 54
1, 242608, Note_off_c, 0, 64, 54
1, 242630, Note_on_c, 0, 68, 53
1, 242638, Note_on_c, 0, 52, 37
1, 242673, Note_off_c, 0, 52, 57
1, 242678, Note_off_c, 0, 68, 54
1, 242701, Note_on_c, 0, 60, 48
1, 242708, Note_on_c, 0, 69, 62
1, 242730, Note_off_c, 0, 60, 63
1, 242757, Note_off_c, 0, 69, 56
1, 242783, Note_on_c, 0, 71, 68
1, 242831, Note_off_c, 0, 71, 59
1, 242856, Note_on_c, 0, 69, 77
1, 242859, Note_on_c, 0, 57, 53
1, 242892, Note_off_c, 0, 57, 65
1, 242922, Note_on_c, 0, 64, 54
1, 242923, Note_off_c, 0, 69, 64
1, 242928, Note_on_c, 0, 71, 69
1, 242946, Note_off_c, 0, 64, 63
1, 242953, Note_off_c, 0, 71, 69
1, 242996, Note_on_c, 0, 72, 79
1, 243053, Note_off_c, 0, 72, 58
1, 243057, Note_on_c, 0, 60, 57
1, 243072, Note_on_c, 0, 76, 61
1, 243122, Note_off_c, 0, 76, 64
1, 243126, Note_on_c, 0, 80, 70
1, 243135, Note_off_c, 0, 60, 54
1, 243138, Note_on_c, 0, 68, 63
1, 243151, Note_off_c, 0, 80, 69
1, 243166, Note_off_c, 0, 68, 64
1, 243200, Note_on_c, 0, 84, 80
1, 243207, Note_on_c, 0, 77, 62
1, 243222, Note_off_c, 0, 84, 68
1, 243223, Note_on_c, 0, 81, 36
1, 243224, Note_off_c, 0, 77, 63
1, 243251, Note_off_c, 0, 81, 36
1, 243295, Note_on_c, 0, 48, 58
1, 243356, Note_off_c, 0, 48, 58
1, 243380, Note_on_c, 0, 56, 48
1, 243386, Note_on_c, 0, 76, 69
1, 243393, Note_on_c, 0, 80, 58
1, 243401, Note_on_c, 0, 72, 45
1, 243405, Note_off_c, 0, 56, 59
1, 243417, Note_off_c, 0, 76, 65
1, 243426, Note_off_c, 0, 72, 36
1, 243432, Note_off_c, 0, 80, 61
1, 243445, Note_on_c, 0, 71, 87
1, 243512, Control_c, 0, 64, 41
1, 243527, Control_c, 0, 64, 60
1, 243542, Control_c, 0, 64, 67
1, 243542, Note_on_c, 0, 60, 54
1, 243557, Control_c, 0, 64, 72
1, 243572, Control_c, 0, 64, 80
1, 243577, Note_off_c, 0, 60, 65
1, 243587, Control_c, 0, 64, 91
1, 243601, Control_c, 0, 64, 108
1, 243609, Note_on_c, 0, 62, 55
1, 243616, Control_c, 0, 64, 127
1, 243631, Control_c, 0, 64, 123
1, 243646, Control_c, 0, 64, 110
1, 243661, Control_c, 0, 64, 99
1, 243663, Note_off_c, 0, 62, 55
1, 243676, Control_c, 0, 64, 90
1, 243682, Note_off_c, 0, 71, 59
1, 243691, Control_c, 0, 64, 82
1, 243697, Note_on_c, 0, 64, 67
1, 243706, Control_c, 0, 64, 74
1, 243721, Control_c, 0, 64, 66
1, 243736, Control_c, 0, 64, 57
1, 243751, Control_c, 0, 64, 42
1, 243754, Note_off_c, 0, 64, 62
1, 243766, Control_c, 0, 64, 22
1, 243775, Note_on_c, 0, 68, 59
1, 243780, Control_c, 0, 64, 0
1, 243781, Note_on_c, 0, 48, 47
1, 243806, Note_off_c, 0, 68, 64
1, 243864, Note_off_c, 0, 48, 61
1, 243872, Note_on_c, 0, 56, 56
1, 243903, Note_off_c, 0, 56, 66
1, 243942, Note_on_c, 0, 68, 65
1, 243976, Note_off_c, 0, 68, 63
1, 244013, Note_on_c, 0, 64, 65
1, 244023, Note_on_c, 0, 60, 64
1, 244040, Note_off_c, 0, 64, 64
1, 244056, Note_off_c, 0, 60, 66
1, 244094, Note_on_c, 0, 62, 56
1, 244120, Note_off_c, 0, 62, 55
1, 244166, Note_on_c, 0, 64, 65
1, 244216, Note_off_c, 0, 64, 61
1, 244249, Note_on_c, 0, 68, 56
1, 244251, Note_on_c, 0, 48, 33
1, 244282, Note_off_c, 0, 68, 65
1, 244294, Note_off_c, 0, 48, 50
1, 244308, Note_on_c, 0, 56, 47
1, 244341, Note_off_c, 0, 56, 64
1, 244413, Note_on_c, 0, 69, 51
1, 244465, Note_off_c, 0, 69, 59
1, 244480, Note_on_c, 0, 57, 51
1, 244485, Control_c, 0, 64, 25
1, 244491, Note_on_c, 0, 71, 54
1, 244500, Control_c, 0, 64, 44
1, 244515, Control_c, 0, 64, 54
1, 244526, Note_off_c, 0, 57, 61
1, 244529, Control_c, 0, 64, 60
1, 244532, Note_off_c, 0, 71, 61
1, 244544, Control_c, 0, 64, 62
1, 244547, Note_on_c, 0, 64, 52
1, 244559, Control_c, 0, 64, 64
1, 244570, Note_on_c, 0, 72, 52
1, 244573, Control_c, 0, 64, 66
1, 244576, Note_off_c, 0, 64, 63
1, 244588, Control_c, 0, 64, 70
1, 244603, Note_off_c, 0, 72, 56
1, 244611, Control_c, 0, 64, 77
1, 244626, Control_c, 0, 64, 90
1, 244638, Note_on_c, 0, 76, 73
1, 244641, Control_c, 0, 64, 108
1, 244655, Control_c, 0, 64, 127
1, 244672, Note_off_c, 0, 76, 63
1, 244707, Note_on_c, 0, 60, 53
1, 244719, Note_on_c, 0, 75, 70
1, 244743, Note_off_c, 0, 60, 65
1, 244745, Note_off_c, 0, 75, 67
1, 244774, Note_on_c, 0, 69, 65
1, 244778, Note_on_c, 0, 76, 75
1, 244806, Note_off_c, 0, 69, 63
1, 244845, Note_off_c, 0, 76, 60
1, 244848, Note_on_c, 0, 81, 79
1, 244906, Note_on_c, 0, 64, 57
1, 244911, Note_off_c, 0, 81, 64
1, 244915, Note_on_c, 0, 84, 76
1, 244955, Note_off_c, 0, 64, 61
1, 244972, Note_off_c, 0, 84, 65
1, 244974, Note_on_c, 0, 89, 79
1, 244978, Note_on_c, 0, 72, 57
1, 244997, Note_off_c, 0, 89, 69
1, 245008, Note_off_c, 0, 72, 66
1, 245041, Control_c, 0, 64, 117
1, 245047, Note_on_c, 0, 91, 90
1, 245056, Control_c, 0, 64, 80
1, 245068, Note_on_c, 0, 81, 59
1, 245071, Control_c, 0, 64, 61
1, 245071, Note_off_c, 0, 91, 65
1, 245086, Note_off_c, 0, 81, 63
1, 245086, Control_c, 0, 64, 0
1, 245146, Note_on_c, 0, 55, 50
1, 245214, Note_off_c, 0, 55, 59
1, 245228, Note_on_c, 0, 88, 67
1, 245247, Note_on_c, 0, 62, 46
1, 245248, Note_on_c, 0, 84, 42
1, 245277, Note_off_c, 0, 84, 51
1, 245278, Note_off_c, 0, 88, 55
1, 245299, Note_on_c, 0, 81, 70
1, 245303, Note_off_c, 0, 62, 58
1, 245307, Note_on_c, 0, 77, 70
1, 245309, Control_c, 0, 64, 27
1, 245319, Note_on_c, 0, 65, 62
1, 245324, Control_c, 0, 64, 53
1, 245339, Control_c, 0, 64, 63
1, 245359, Note_off_c, 0, 65, 65
1, 245360, Control_c, 0, 64, 69
1, 245375, Control_c, 0, 64, 79
1, 245389, Note_on_c, 0, 69, 70
1, 245390, Control_c, 0, 64, 96
1, 245405, Control_c, 0, 64, 127
1, 245425, Note_off_c, 0, 77, 58
1, 245432, Note_off_c, 0, 69, 54
1, 245432, Note_off_c, 0, 81, 64
1, 245462, Note_on_c, 0, 72, 70
1, 245487, Note_off_c, 0, 72, 68
1, 245537, Note_on_c, 0, 86, 82
1, 245539, Control_c, 0, 64, 83
1, 245546, Note_on_c, 0, 76, 72
1, 245549, Note_on_c, 0, 83, 60
1, 245553, Control_c, 0, 64, 55
1, 245554, Note_on_c, 0, 79, 53
1, 245562, Note_off_c, 0, 76, 67
1, 245563, Note_off_c, 0, 86, 64
1, 245568, Note_off_c, 0, 83, 62
1, 245568, Control_c, 0, 64, 0
1, 245575, Note_off_c, 0, 79, 39
1, 245632, Note_on_c, 0, 55, 49
1, 245688, Note_off_c, 0, 55, 55
1, 245714, Note_on_c, 0, 83, 71
1, 245723, Note_on_c, 0, 79, 67
1, 245732, Note_on_c, 0, 60, 16
1, 245778, Note_off_c, 0, 60, 48
1, 245784, Note_off_c, 0, 83, 42
1, 245785, Note_on_c, 0, 72, 80
1, 245790, Note_on_c, 0, 64, 64
1, 245790, Control_c, 0, 64, 27
1, 245791, Note_on_c, 0, 76, 74
1, 245797, Note_off_c, 0, 79, 49
1, 245805, Control_c, 0, 64, 54
1, 245819, Control_c, 0, 64, 64
1, 245828, Note_off_c, 0, 64, 65
1, 245834, Control_c, 0, 64, 69
1, 245849, Control_c, 0, 64, 75
1, 245864, Control_c, 0, 64, 85
1, 245866, Note_on_c, 0, 67, 71
1, 245876, Note_off_c, 0, 72, 60
1, 245879, Control_c, 0, 64, 101
1, 245894, Control_c, 0, 64, 127
1, 245939, Note_on_c, 0, 71, 79
1, 245943, Note_off_c, 0, 67, 61
1, 245966, Note_off_c, 0, 71, 65
1, 245987, Note_off_c, 0, 76, 63
1, 246012, Control_c, 0, 64, 76
1, 246019, Note_on_c, 0, 73, 85
1, 246019, Note_on_c, 0, 77, 74
1, 246019, Note_on_c, 0, 81, 81
1, 246027, Control_c, 0, 64, 50
1, 246034, Note_off_c, 0, 81, 68
1, 246036, Note_off_c, 0, 77, 66
1, 246040, Note_off_c, 0, 73, 71
1, 246042, Control_c, 0, 64, 0
1, 246126, Note_on_c, 0, 55, 63
1, 246189, Note_off_c, 0, 55, 62
1, 246193, Note_on_c, 0, 73, 74
1, 246194, Note_on_c, 0, 76, 63
1, 246204, Note_on_c, 0, 57, 55
1, 246234, Note_off_c, 0, 76, 55
1, 246241, Note_off_c, 0, 73, 61
1, 246261, Note_on_c, 0, 69, 86
1, 246269, Note_on_c, 0, 65, 77
1, 246282, Note_off_c, 0, 57, 65
1, 246287, Control_c, 0, 64, 46
1, 246290, Note_on_c, 0, 61, 65
1, 246302, Control_c, 0, 64, 64
1, 246317, Control_c, 0, 64, 72
1, 246332, Control_c, 0, 64, 82
1, 246332, Note_off_c, 0, 65, 61
1, 246339, Note_off_c, 0, 69, 63
1, 246347, Control_c, 0, 64, 95
1, 246350, Note_on_c, 0, 64, 82
1, 246353, Note_off_c, 0, 61, 60
1, 246362, Control_c, 0, 64, 113
1, 246376, Control_c, 0, 64, 127
1, 246414, Note_on_c, 0, 67, 78
1, 246421, Note_off_c, 0, 64, 62
1, 246450, Control_c, 0, 64, 121
1, 246463, Note_off_c, 0, 67, 61
1, 246465, Control_c, 0, 64, 86
1, 246480, Control_c, 0, 64, 64
1, 246481, Note_on_c, 0, 79, 75
1, 246484, Note_on_c, 0, 69, 81
1, 246484, Note_on_c, 0, 76, 73
1, 246487, Note_on_c, 0, 72, 64
1, 246495, Control_c, 0, 64, 0
1, 246505, Note_off_c, 0, 72, 65
1, 246507, Note_off_c, 0, 69, 69
1, 246507, Note_off_c, 0, 79, 68
1, 246510, Note_off_c, 0, 76, 69
1, 246580, Note_on_c, 0, 55, 58
1, 246630, Note_off_c, 0, 55, 61
1, 246653, Note_on_c, 0, 72, 61
1, 246654, Note_on_c, 0, 59, 56
1, 246656, Note_on_c, 0, 76, 66
1, 246699, Note_off_c, 0, 76, 55
1, 246722, Note_on_c, 0, 69, 75
1, 246724, Note_on_c, 0, 63, 60
1, 246724, Note_off_c, 0, 72, 38
1, 246729, Note_on_c, 0, 65, 70
1, 246732, Control_c, 0, 64, 35
1, 246746, Control_c, 0, 64, 62
1, 246761, Control_c, 0, 64, 81
1, 246774, Note_off_c, 0, 65, 58
1, 246776, Control_c, 0, 64, 127
1, 246782, Note_off_c, 0, 63, 61
1, 246782, Note_off_c, 0, 69, 63
1, 246800, Note_off_c, 0, 59, 28
1, 246801, Note_on_c, 0, 62, 61
1, 246887, Note_off_c, 0, 62, 62
1, 246899, Note_on_c, 0, 63, 55
1, 246920, Note_off_c, 0, 63, 63
1, 246977, Control_c, 0, 64, 123
1, 246992, Control_c, 0, 64, 93
1, 247006, Control_c, 0, 64, 78
1, 247021, Control_c, 0, 64, 68
1, 247036, Control_c, 0, 64, 61
1, 247045, Note_on_c, 0, 64, 53
1, 247051, Control_c, 0, 64, 56
1, 247065, Control_c, 0, 64, 55
1, 247080, Control_c, 0, 64, 50
1, 247082, Note_off_c, 0, 64, 64
1, 247095, Control_c, 0, 64, 37
1, 247110, Control_c, 0, 64, 0
1, 247117, Note_on_c, 0, 52, 43
1, 247135, Note_on_c, 0, 67, 34
1, 247167, Note_off_c, 0, 67, 33
1, 247170, Note_off_c, 0, 52, 60
1, 247212, Note_on_c, 0, 59, 47
1, 247251, Note_off_c, 0, 59, 61
1, 247295, Note_on_c, 0, 67, 52
1, 247334, Note_off_c, 0, 67, 64
1, 247364, Note_on_c, 0, 64, 55
1, 247381, Note_on_c, 0, 61, 45
1, 247393, Note_off_c, 0, 64, 64
1, 247424, Note_off_c, 0, 61, 62
1, 247459, Note_on_c, 0, 63, 53
1, 247498, Note_off_c, 0, 63, 64
1, 247522, Note_on_c, 0, 64, 60
1, 247557, Note_off_c, 0, 64, 64
1, 247610, Note_on_c, 0, 67, 57
1, 247619, Note_on_c, 0, 52, 48
1, 247630, Note_off_c, 0, 67, 61
1, 247658, Note_off_c, 0, 52, 64
1, 247697, Note_on_c, 0, 59, 60
1, 247732, Note_off_c, 0, 59, 64
1, 247763, Note_on_c, 0, 67, 65
1, 247813, Note_off_c, 0, 67, 61
1, 247850, Note_on_c, 0, 64, 60
1, 247852, Note_on_c, 0, 61, 59
1, 247870, Note_off_c, 0, 64, 63
1, 247894, Note_off_c, 0, 61, 64
1, 247929, Note_on_c, 0, 63, 61
1, 247961, Note_off_c, 0, 63, 65
1, 247995, Note_on_c, 0, 64, 60
1, 248042, Note_off_c, 0, 64, 60
1, 248066, Note_on_c, 0, 52, 50
1, 248069, Note_on_c, 0, 67, 60
1, 248100, Note_off_c, 0, 67, 64
1, 248130, Note_off_c, 0, 52, 56
1, 248162, Note_on_c, 0, 59, 37
1, 248195, Note_off_c, 0, 59, 58
1, 248273, Note_on_c, 0, 67, 41
1, 248307, Note_off_c, 0, 67, 59
1, 248343, Note_on_c, 0, 59, 43
1, 248351, Note_on_c, 0, 66, 51
1, 248396, Note_off_c, 0, 66, 64
1, 248401, Note_off_c, 0, 59, 61
1, 248428, Note_on_c, 0, 67, 56
1, 248432, Note_on_c, 0, 64, 47
1, 248459, Note_off_c, 0, 64, 62
1, 248500, Note_off_c, 0, 67, 61
1, 248508, Note_on_c, 0, 71, 66
1, 248554, Note_off_c, 0, 71, 60
1, 248579, Note_on_c, 0, 64, 55
1, 248579, Note_on_c, 0, 70, 71
1, 248607, Note_off_c, 0, 70, 67
1, 248624, Note_off_c, 0, 64, 63
1, 248658, Note_on_c, 0, 71, 76
1, 248659, Note_on_c, 0, 67, 63
1, 248690, Note_off_c, 0, 67, 65
1, 248723, Note_off_c, 0, 71, 53
1, 248728, Note_on_c, 0, 75, 80
1, 248775, Note_on_c, 0, 67, 65
1, 248789, Note_off_c, 0, 75, 62
1, 248790, Note_on_c, 0, 76, 77
1, 248824, Note_off_c, 0, 67, 63
1, 248836, Note_off_c, 0, 76, 64
1, 248847, Note_on_c, 0, 71, 65
1, 248847, Note_on_c, 0, 81, 77
1, 248876, Note_off_c, 0, 71, 66
1, 248915, Note_on_c, 0, 72, 72
1, 248915, Note_on_c, 0, 79, 74
1, 248919, Note_on_c, 0, 76, 74
1, 248920, Note_off_c, 0, 81, 66
1, 248935, Note_off_c, 0, 76, 68
1, 248939, Note_off_c, 0, 72, 70
1, 248939, Note_off_c, 0, 79, 71
1, 249003, Note_on_c, 0, 52, 55
1, 249056, Note_off_c, 0, 52, 59
1, 249079, Note_on_c, 0, 69, 77
1, 249081, Note_on_c, 0, 76, 59
1, 249084, Note_on_c, 0, 72, 67
1, 249102, Note_on_c, 0, 55, 41
1, 249116, Note_off_c, 0, 69, 60
1, 249131, Note_off_c, 0, 55, 53
1, 249146, Note_off_c, 0, 76, 48
1, 249146, Note_off_c, 0, 72, 61
1, 249152, Note_on_c, 0, 67, 88
1, 249178, Control_c, 0, 64, 50
1, 249193, Control_c, 0, 64, 66
1, 249208, Control_c, 0, 64, 74
1, 249222, Control_c, 0, 64, 87
1, 249237, Control_c, 0, 64, 107
1, 249244, Note_on_c, 0, 57, 62
1, 249253, Control_c, 0, 64, 127
1, 249287, Note_off_c, 0, 57, 61
1, 249315, Note_on_c, 0, 59, 62
1, 249342, Control_c, 0, 64, 116
1, 249349, Note_off_c, 0, 67, 60
1, 249357, Control_c, 0, 64, 101
1, 249372, Control_c, 0, 64, 89
1, 249375, Note_off_c, 0, 59, 54
1, 249387, Control_c, 0, 64, 80
1, 249397, Note_on_c, 0, 60, 71
1, 249401, Control_c, 0, 64, 73
1, 249416, Control_c, 0, 64, 68
1, 249431, Control_c, 0, 64, 65
1, 249440, Note_off_c, 0, 60, 62
1, 249445, Control_c, 0, 64, 61
1, 249460, Control_c, 0, 64, 55
1, 249468, Note_on_c, 0, 52, 55
1, 249475, Control_c, 0, 64, 40
1, 249477, Note_on_c, 0, 64, 62
1, 249490, Control_c, 0, 64, 17
1, 249495, Note_off_c, 0, 64, 65
1, 249505, Control_c, 0, 64, 0
1, 249522, Note_off_c, 0, 52, 59
1, 249554, Note_on_c, 0, 55, 56
1, 249587, Note_off_c, 0, 55, 63
1, 249628, Note_on_c, 0, 64, 65
1, 249674, Note_off_c, 0, 64, 63
1, 249707, Note_on_c, 0, 60, 66
1, 249718, Note_on_c, 0, 57, 63
1, 249733, Note_off_c, 0, 60, 65
1, 249757, Note_off_c, 0, 57, 65
1, 249790, Note_on_c, 0, 59, 61
1, 249831, Note_off_c, 0, 59, 60
1, 249873, Note_on_c, 0, 60, 67
1, 249910, Note_off_c, 0, 60, 62
1, 249920, Note_on_c, 0, 52, 55
1, 249947, Note_on_c, 0, 64, 53
1, 249968, Note_off_c, 0, 64, 60
1, 249988, Note_off_c, 0, 52, 58
1, 250005, Note_on_c, 0, 55, 51
1, 250042, Note_off_c, 0, 55, 64
1, 250109, Note_on_c, 0, 64, 42
1, 250169, Note_on_c, 0, 55, 41
1, 250180, Control_c, 0, 64, 23
1, 250183, Note_off_c, 0, 64, 61
1, 250189, Note_on_c, 0, 66, 60
1, 250195, Control_c, 0, 64, 41
1, 250210, Control_c, 0, 64, 53
1, 250218, Note_off_c, 0, 55, 61
1, 250224, Control_c, 0, 64, 57
1, 250239, Control_c, 0, 64, 60
1, 250242, Note_on_c, 0, 60, 48
1, 250254, Control_c, 0, 64, 62
1, 250264, Note_off_c, 0, 66, 61
1, 250267, Note_on_c, 0, 67, 61
1, 250267, Note_off_c, 0, 60, 63
1, 250268, Control_c, 0, 64, 64
1, 250283, Control_c, 0, 64, 66
1, 250298, Note_off_c, 0, 67, 66
1, 250298, Control_c, 0, 64, 69
1, 250313, Control_c, 0, 64, 73
1, 250328, Control_c, 0, 64, 80
1, 250335, Note_on_c, 0, 69, 76
1, 250342, Control_c, 0, 64, 88
1, 250357, Control_c, 0, 64, 97
1, 250372, Control_c, 0, 64, 108
1, 250387, Control_c, 0, 64, 127
1, 250389, Note_on_c, 0, 60, 56
1, 250391, Note_off_c, 0, 69, 57
1, 250404, Note_on_c, 0, 72, 83
1, 250433, Note_off_c, 0, 60, 64
1, 250464, Note_off_c, 0, 72, 64
1, 250473, Note_on_c, 0, 76, 79
1, 250496, Note_on_c, 0, 67, 32
1, 250496, Note_off_c, 0, 76, 69
1, 250533, Note_off_c, 0, 67, 45
1, 250542, Note_on_c, 0, 79, 90
1, 250620, Note_on_c, 0, 64, 64
1, 250620, Note_on_c, 0, 83, 90
1, 250629, Note_off_c, 0, 79, 64
1, 250678, Note_off_c, 0, 83, 66
1, 250681, Note_on_c, 0, 86, 84
1, 250681, Note_off_c, 0, 64, 58
1, 250693, Note_on_c, 0, 71, 71
1, 250720, Note_off_c, 0, 71, 64
1, 250735, Control_c, 0, 64, 109
1, 250744, Note_on_c, 0, 84, 84
1, 250750, Control_c, 0, 64, 76
1, 250755, Note_on_c, 0, 81, 75
1, 250756, Note_on_c, 0, 77, 74
1, 250759, Note_off_c, 0, 86, 65
1, 250763, Note_off_c, 0, 84, 70
1, 250765, Control_c, 0, 64, 52
1, 250769, Note_off_c, 0, 77, 67
1, 250769, Note_off_c, 0, 81, 70
1, 250780, Control_c, 0, 64, 0
1, 250852, Note_on_c, 0, 55, 62
1, 250908, Note_off_c, 0, 55, 60
1, 250928, Note_on_c, 0, 79, 67
1, 250929, Note_on_c, 0, 76, 58
1, 250935, Note_on_c, 0, 71, 61
1, 250944, Note_on_c, 0, 64, 42
1, 250952, Note_off_c, 0, 71, 61
1, 250969, Note_off_c, 0, 64, 55
1, 250981, Note_on_c, 0, 72, 90
1, 250997, Note_off_c, 0, 79, 62
1, 251015, Note_off_c, 0, 76, 60
1, 251015, Control_c, 0, 64, 35
1, 251030, Control_c, 0, 64, 62
1, 251045, Control_c, 0, 64, 74
1, 251060, Control_c, 0, 64, 93
1, 251063, Note_on_c, 0, 64, 65
1, 251075, Control_c, 0, 64, 127
1, 251133, Note_off_c, 0, 64, 62
1, 251152, Note_on_c, 0, 66, 69
1, 251191, Note_off_c, 0, 66, 57
1, 251203, Note_off_c, 0, 72, 60
1, 251213, Note_on_c, 0, 67, 81
1, 251223, Control_c, 0, 64, 110
1, 251238, Control_c, 0, 64, 83
1, 251253, Control_c, 0, 64, 70
1, 251268, Control_c, 0, 64, 60
1, 251280, Note_off_c, 0, 67, 60
1, 251283, Control_c, 0, 64, 40
1, 251296, Note_on_c, 0, 72, 81
1, 251297, Control_c, 0, 64, 0
1, 251310, Note_on_c, 0, 55, 69
1, 251318, Note_off_c, 0, 72, 71
1, 251380, Note_off_c, 0, 55, 60
1, 251397, Note_on_c, 0, 64, 70
1, 251429, Note_off_c, 0, 64, 63
1, 251477, Note_on_c, 0, 72, 81
1, 251522, Note_off_c, 0, 72, 62
1, 251549, Note_on_c, 0, 67, 74
1, 251555, Note_on_c, 0, 64, 64
1, 251572, Note_off_c, 0, 67, 69
1, 251599, Note_off_c, 0, 64, 62
1, 251629, Note_on_c, 0, 66, 66
1, 251654, Note_off_c, 0, 66, 66
1, 251700, Note_on_c, 0, 67, 75
1, 251755, Note_off_c, 0, 67, 63
1, 251772, Note_on_c, 0, 55, 55
1, 251778, Note_on_c, 0, 72, 63
1, 251802, Note_off_c, 0, 72, 65
1, 251830, Note_off_c, 0, 55, 56
1, 251857, Note_on_c, 0, 64, 56
1, 251892, Note_off_c, 0, 64, 64
1, 251955, Note_on_c, 0, 72, 63
1, 251958, Control_c, 0, 64, 22
1, 251973, Control_c, 0, 64, 45
1, 251987, Control_c, 0, 64, 56
1, 252002, Control_c, 0, 64, 60
1, 252017, Control_c, 0, 64, 63
1, 252020, Note_off_c, 0, 72, 62
1, 252032, Control_c, 0, 64, 65
1, 252033, Note_on_c, 0, 64, 45
1, 252036, Note_on_c, 0, 79, 60
1, 252047, Control_c, 0, 64, 68
1, 252061, Control_c, 0, 64, 74
1, 252076, Control_c, 0, 64, 86
1, 252094, Note_off_c, 0, 64, 61
1, 252099, Control_c, 0, 64, 105
1, 252105, Note_off_c, 0, 79, 62
1, 252112, Note_on_c, 0, 78, 73
1, 252114, Control_c, 0, 64, 127
1, 252132, Note_on_c, 0, 67, 40
1, 252160, Note_off_c, 0, 67, 54
1, 252168, Note_off_c, 0, 78, 63
1, 252193, Note_on_c, 0, 79, 79
1, 252257, Note_on_c, 0, 83, 89
1, 252259, Note_on_c, 0, 67, 58
1, 252261, Note_off_c, 0, 79, 63
1, 252321, Note_off_c, 0, 67, 63
1, 252326, Note_on_c, 0, 86, 82
1, 252327, Note_off_c, 0, 83, 65
1, 252345, Note_on_c, 0, 71, 73
1, 252348, Note_off_c, 0, 86, 67
1, 252376, Note_off_c, 0, 71, 62
1, 252401, Note_on_c, 0, 88, 84
1, 252468, Note_on_c, 0, 93, 88
1, 252474, Note_on_c, 0, 72, 54
1, 252495, Note_off_c, 0, 88, 61
1, 252533, Note_on_c, 0, 96, 74
1, 252535, Note_off_c, 0, 72, 63
1, 252535, Note_off_c, 0, 93, 66
1, 252542, Note_on_c, 0, 77, 68
1, 252547, Note_off_c, 0, 96, 69
1, 252565, Note_off_c, 0, 77, 63
1, 252604, Control_c, 0, 64, 90
1, 252609, Note_on_c, 0, 94, 91
1, 252618, Control_c, 0, 64, 66
1, 252621, Note_on_c, 0, 84, 74
1, 252625, Note_on_c, 0, 90, 51
1, 252626, Note_off_c, 0, 90, 127
1, 252628, Note_on_c, 0, 87, 61
1, 252633, Control_c, 0, 64, 0
1, 252643, Note_off_c, 0, 84, 70
1, 252645, Note_off_c, 0, 87, 64
1, 252649, Note_off_c, 0, 94, 62
1, 252708, Note_on_c, 0, 58, 64
1, 252786, Note_on_c, 0, 91, 76
1, 252788, Note_on_c, 0, 87, 67
1, 252795, Note_off_c, 0, 58, 62
1, 252804, Note_on_c, 0, 65, 53
1, 252826, Note_off_c, 0, 87, 54
1, 252859, Note_on_c, 0, 84, 86
1, 252866, Note_on_c, 0, 80, 80
1, 252873, Note_off_c, 0, 91, 61
1, 252877, Control_c, 0, 64, 36
1, 252880, Note_on_c, 0, 68, 66
1, 252891, Note_off_c, 0, 65, 62
1, 252892, Control_c, 0, 64, 61
1, 252907, Control_c, 0, 64, 70
1, 252918, Note_off_c, 0, 68, 65
1, 252922, Control_c, 0, 64, 87
1, 252937, Control_c, 0, 64, 127
1, 252950, Note_on_c, 0, 72, 70
1, 252983, Note_off_c, 0, 84, 61
1, 252999, Note_off_c, 0, 80, 58
1, 253022, Note_on_c, 0, 75, 78
1, 253023, Note_off_c, 0, 72, 60
1, 253044, Note_off_c, 0, 75, 70
1, 253097, Note_on_c, 0, 89, 93
1, 253099, Control_c, 0, 64, 83
1, 253102, Note_on_c, 0, 79, 81
1, 253106, Note_on_c, 0, 82, 71
1, 253108, Note_on_c, 0, 86, 66
1, 253114, Control_c, 0, 64, 60
1, 253122, Note_off_c, 0, 82, 66
1, 253123, Note_off_c, 0, 79, 71
1, 253123, Note_off_c, 0, 86, 66
1, 253129, Control_c, 0, 64, 0
1, 253132, Note_off_c, 0, 89, 63
1, 253196, Note_on_c, 0, 58, 59
1, 253271, Note_on_c, 0, 86, 81
1, 253276, Note_off_c, 0, 58, 63
1, 253279, Note_on_c, 0, 63, 63
1, 253282, Note_on_c, 0, 82, 72
1, 253310, Note_off_c, 0, 82, 63
1, 253339, Note_on_c, 0, 79, 88
1, 253342, Note_off_c, 0, 86, 56
1, 253346, Note_on_c, 0, 67, 74
1, 253349, Note_on_c, 0, 75, 84
1, 253364, Note_off_c, 0, 63, 62
1, 253366, Control_c, 0, 64, 43
1, 253381, Control_c, 0, 64, 65
1, 253396, Control_c, 0, 64, 80
1, 253401, Note_off_c, 0, 67, 63
1, 253410, Control_c, 0, 64, 127
1, 253420, Note_on_c, 0, 70, 83
1, 253463, Note_off_c, 0, 75, 60
1, 253471, Note_off_c, 0, 70, 63
1, 253504, Note_on_c, 0, 74, 84
1, 253525, Note_off_c, 0, 79, 61
1, 253532, Note_off_c, 0, 74, 65
1, 253573, Control_c, 0, 64, 89
1, 253575, Note_on_c, 0, 84, 89
1, 253577, Note_on_c, 0, 76, 84
1, 253589, Note_on_c, 0, 80, 69
1, 253596, Control_c, 0, 64, 63
1, 253605, Note_off_c, 0, 80, 68
1, 253605, Note_off_c, 0, 84, 66
1, 253606, Note_off_c, 0, 76, 71
1, 253611, Control_c, 0, 64, 0
1, 253678, Note_on_c, 0, 58, 67
1, 253748, Note_on_c, 0, 60, 67
1, 253749, Note_off_c, 0, 58, 62
1, 253751, Note_on_c, 0, 79, 79
1, 253761, Note_on_c, 0, 76, 72
1, 253817, Note_on_c, 0, 64, 71
1, 253818, Note_on_c, 0, 72, 85
1, 253829, Note_on_c, 0, 68, 82
1, 253832, Control_c, 0, 64, 9
1, 253833, Note_off_c, 0, 76, 59
1, 253833, Note_off_c, 0, 79, 62
1, 253835, Note_off_c, 0, 60, 62
1, 253847, Control_c, 0, 64, 54
1, 253862, Control_c, 0, 64, 68
1, 253877, Note_off_c, 0, 64, 64
1, 253877, Control_c, 0, 64, 81
1, 253884, Note_off_c, 0, 68, 62
1, 253892, Control_c, 0, 64, 127
1, 253892, Note_off_c, 0, 72, 64
1, 253895, Note_on_c, 0, 67, 79
1, 253978, Note_on_c, 0, 70, 87
1, 253983, Note_off_c, 0, 67, 40
1, 254005, Note_off_c, 0, 70, 62
1, 254041, Control_c, 0, 64, 118
1, 254043, Note_on_c, 0, 75, 77
1, 254043, Note_on_c, 0, 79, 78
1, 254044, Note_on_c, 0, 82, 85
1, 254047, Note_on_c, 0, 72, 76
1, 254056, Control_c, 0, 64, 80
1, 254066, Note_off_c, 0, 75, 69
1, 254071, Control_c, 0, 64, 59
1, 254071, Note_off_c, 0, 79, 66
1, 254074, Note_off_c, 0, 72, 68
1, 254078, Note_off_c, 0, 82, 62
1, 254085, Control_c, 0, 64, 0
1, 254147, Note_on_c, 0, 58, 68
1, 254203, Note_off_c, 0, 58, 56
1, 254208, Note_on_c, 0, 61, 58
1, 254208, Note_on_c, 0, 79, 74
1, 254222, Note_on_c, 0, 75, 60
1, 254232, Note_off_c, 0, 61, 56
1, 254245, Note_on_c, 0, 60, 54
1, 254276, Note_on_c, 0, 72, 81
1, 254279, Note_off_c, 0, 79, 60
1, 254282, Note_off_c, 0, 60, 64
1, 254287, Note_on_c, 0, 68, 78
1, 254297, Note_off_c, 0, 75, 59
1, 254307, Note_on_c, 0, 62, 72
1, 254307, Control_c, 0, 64, 41
1, 254322, Control_c, 0, 64, 62
1, 254345, Control_c, 0, 64, 73
1, 254360, Control_c, 0, 64, 102
1, 254366, Note_off_c, 0, 68, 59
1, 254367, Note_off_c, 0, 72, 61
1, 254369, Note_off_c, 0, 62, 58
1, 254375, Control_c, 0, 64, 127
1, 254389, Note_on_c, 0, 60, 61
1, 254464, Note_off_c, 0, 60, 62
1, 254485, Note_on_c, 0, 62, 62
1, 254533, Note_off_c, 0, 62, 51
1, 254596, Control_c, 0, 64, 110
1, 254611, Control_c, 0, 64, 92
1, 254626, Control_c, 0, 64, 81
1, 254634, Note_on_c, 0, 63, 48
1, 254640, Control_c, 0, 64, 73
1, 254655, Control_c, 0, 64, 67
1, 254670, Control_c, 0, 64, 63
1, 254685, Note_off_c, 0, 63, 59
1, 254685, Control_c, 0, 64, 59
1, 254700, Control_c, 0, 64, 54
1, 254703, Note_on_c, 0, 51, 48
1, 254714, Control_c, 0, 64, 43
1, 254728, Note_on_c, 0, 67, 38
1, 254729, Control_c, 0, 64, 16
1, 254744, Control_c, 0, 64, 0
1, 254757, Note_off_c, 0, 67, 49
1, 254762, Note_off_c, 0, 51, 60
1, 254798, Note_on_c, 0, 58, 45
1, 254842, Note_off_c, 0, 58, 62
1, 254908, Note_on_c, 0, 67, 51
1, 254948, Note_off_c, 0, 67, 65
1, 254980, Note_on_c, 0, 60, 46
1, 254983, Note_on_c, 0, 63, 48
1, 255006, Note_off_c, 0, 63, 58
1, 255026, Note_off_c, 0, 60, 61
1, 255058, Note_on_c, 0, 62, 52
1, 255107, Note_off_c, 0, 62, 63
1, 255136, Note_on_c, 0, 63, 57
1, 255182, Note_off_c, 0, 63, 62
1, 255218, Note_on_c, 0, 67, 60
1, 255220, Note_on_c, 0, 55, 50
1, 255245, Note_off_c, 0, 67, 63
1, 255275, Note_off_c, 0, 55, 59
1, 255297, Note_on_c, 0, 58, 58
1, 255340, Note_off_c, 0, 58, 63
1, 255378, Note_on_c, 0, 67, 60
1, 255431, Note_off_c, 0, 67, 61
1, 255464, Note_on_c, 0, 63, 58
1, 255486, Note_on_c, 0, 60, 47
1, 255498, Note_off_c, 0, 63, 65
1, 255534, Note_off_c, 0, 60, 60
1, 255558, Note_on_c, 0, 62, 49
1, 255609, Note_off_c, 0, 62, 61
1, 255637, Note_on_c, 0, 63, 61
1, 255678, Note_off_c, 0, 63, 61
1, 255698, Note_on_c, 0, 51, 45
1, 255719, Note_on_c, 0, 67, 56
1, 255752, Note_off_c, 0, 67, 64
1, 255758, Note_off_c, 0, 51, 56
1, 255801, Note_on_c, 0, 58, 39
1, 255902, Control_c, 0, 64, 34
1, 255913, Note_on_c, 0, 67, 44
1, 255917, Control_c, 0, 64, 48
1, 255932, Control_c, 0, 64, 54
1, 255946, Note_off_c, 0, 58, 37
1, 255947, Control_c, 0, 64, 57
1, 255961, Control_c, 0, 64, 59
1, 255976, Control_c, 0, 64, 62
1, 255976, Control_c, 0, 67, 114
1, 255980, Note_off_c, 0, 67, 55
1, 255991, Control_c, 0, 64, 64
1, 255991, Control_c, 0, 67, 102
1, 256006, Note_on_c, 0, 66, 43
1, 256006, Control_c, 0, 64, 65
1, 256006, Control_c, 0, 67, 90
1, 256021, Control_c, 0, 64, 67
1, 256021, Control_c, 0, 67, 83
1, 256035, Control_c, 0, 64, 70
1, 256035, Control_c, 0, 67, 76
1, 256050, Note_off_c, 0, 66, 63
1, 256050, Control_c, 0, 64, 74
1, 256050, Control_c, 0, 67, 70
1, 256065, Control_c, 0, 64, 78
1, 256065, Control_c, 0, 67, 64
1, 256080, Control_c, 0, 64, 84
1, 256080, Control_c, 0, 67, 57
1, 256081, Note_on_c, 0, 65, 58
1, 256095, Control_c, 0, 64, 91
1, 256095, Control_c, 0, 67, 49
1, 256110, Control_c, 0, 64, 99
1, 256110, Control_c, 0, 67, 42
1, 256124, Control_c, 0, 64, 109
1, 256124, Control_c, 0, 67, 35
1, 256139, Control_c, 0, 64, 123
1, 256139, Control_c, 0, 67, 28
1, 256145, Note_off_c, 0, 65, 49
1, 256154, Control_c, 0, 64, 127
1, 256154, Control_c, 0, 67, 21
1, 256161, Note_on_c, 0, 63, 61
1, 256169, Control_c, 0, 67, 13
1, 256184, Control_c, 0, 67, 0
1, 256214, Note_off_c, 0, 63, 51
1, 256231, Note_on_c, 0, 62, 69
1, 256266, Note_off_c, 0, 62, 64
1, 256295, Note_on_c, 0, 60, 71
1, 256359, Note_off_c, 0, 60, 61
1, 256369, Note_on_c, 0, 58, 72
1, 256434, Note_off_c, 0, 58, 62
1, 256444, Note_on_c, 0, 56, 69
1, 256497, Note_off_c, 0, 56, 62
1, 256514, Note_on_c, 0, 55, 70
1, 256570, Note_off_c, 0, 55, 59
1, 256592, Control_c, 0, 64, 119
1, 256607, Control_c, 0, 64, 111
1, 256622, Control_c, 0, 64, 106
1, 256637, Control_c, 0, 64, 97
1, 256642, Note_on_c, 0, 54, 73
1, 256652, Control_c, 0, 64, 88
1, 256666, Control_c, 0, 64, 77
1, 256681, Control_c, 0, 64, 66
1, 256696, Control_c, 0, 64, 52
1, 256710, Control_c, 0, 64, 17
1, 256725, Control_c, 0, 64, 13
1, 256740, Control_c, 0, 64, 25
1, 256755, Control_c, 0, 64, 38
1, 256770, Control_c, 0, 64, 47
1, 256784, Control_c, 0, 64, 55
1, 256785, Note_on_c, 0, 67, 47
1, 256799, Control_c, 0, 64, 62
1, 256814, Control_c, 0, 64, 66
1, 256829, Control_c, 0, 64, 73
1, 256833, Note_off_c, 0, 54, 64
1, 256834, Note_off_c, 0, 67, 60
1, 256843, Control_c, 0, 64, 83
1, 256848, Note_on_c, 0, 49, 48
1, 256858, Control_c, 0, 64, 99
1, 256873, Control_c, 0, 64, 127
1, 256882, Note_on_c, 0, 66, 44
1, 256906, Note_off_c, 0, 49, 58
1, 256920, Note_off_c, 0, 66, 64
1, 256937, Note_on_c, 0, 54, 49
1, 256947, Note_on_c, 0, 67, 65
1, 256995, Note_off_c, 0, 67, 59
1, 257001, Note_on_c, 0, 58, 68
1, 257011, Note_off_c, 0, 54, 62
1, 257019, Note_on_c, 0, 70, 68
1, 257035, Note_off_c, 0, 58, 64
1, 257062, Note_off_c, 0, 70, 60
1, 257069, Note_on_c, 0, 64, 67
1, 257098, Note_on_c, 0, 69, 76
1, 257151, Note_on_c, 0, 66, 83
1, 257156, Note_off_c, 0, 64, 54
1, 257165, Note_off_c, 0, 69, 61
1, 257170, Note_on_c, 0, 70, 82
1, 257211, Note_off_c, 0, 70, 63
1, 257240, Note_on_c, 0, 76, 79
1, 257293, Note_off_c, 0, 66, 60
1, 257311, Note_on_c, 0, 75, 81
1, 257317, Note_on_c, 0, 61, 73
1, 257319, Note_off_c, 0, 76, 63
1, 257361, Note_off_c, 0, 75, 61
1, 257382, Note_off_c, 0, 61, 61
1, 257397, Note_on_c, 0, 76, 87
1, 257403, Note_on_c, 0, 66, 64
1, 257455, Note_on_c, 0, 70, 81
1, 257461, Note_on_c, 0, 79, 84
1, 257469, Note_off_c, 0, 66, 61
1, 257472, Note_off_c, 0, 76, 63
1, 257514, Note_off_c, 0, 79, 65
1, 257523, Note_on_c, 0, 82, 82
1, 257531, Note_on_c, 0, 78, 77
1, 257535, Note_off_c, 0, 70, 60
1, 257557, Note_off_c, 0, 78, 69
1, 257588, Note_on_c, 0, 76, 91
1, 257588, Note_on_c, 0, 86, 93
1, 257591, Note_on_c, 0, 80, 89
1, 257593, Control_c, 0, 64, 81
1, 257603, Note_off_c, 0, 82, 64
1, 257607, Control_c, 0, 64, 57
1, 257609, Note_off_c, 0, 76, 69
1, 257611, Note_off_c, 0, 80, 68
1, 257614, Note_off_c, 0, 86, 65
1, 257622, Control_c, 0, 64, 0
1, 257692, Note_on_c, 0, 48, 68
1, 257761, Note_on_c, 0, 83, 70
1, 257761, Note_on_c, 0, 80, 77
1, 257774, Note_on_c, 0, 56, 68
1, 257776, Note_off_c, 0, 48, 62
1, 257788, Note_off_c, 0, 80, 63
1, 257799, Control_c, 0, 64, 24
1, 257807, Note_off_c, 0, 83, 45
1, 257809, Note_off_c, 0, 56, 66
1, 257814, Control_c, 0, 64, 53
1, 257827, Note_on_c, 0, 79, 24
1, 257829, Control_c, 0, 64, 63
1, 257829, Note_on_c, 0, 76, 88
1, 257835, Note_on_c, 0, 72, 84
1, 257836, Note_on_c, 0, 62, 67
1, 257844, Control_c, 0, 64, 69
1, 257851, Note_off_c, 0, 79, 52
1, 257858, Control_c, 0, 64, 76
1, 257873, Control_c, 0, 64, 91
1, 257874, Note_off_c, 0, 72, 60
1, 257875, Note_off_c, 0, 62, 62
1, 257883, Note_off_c, 0, 76, 63
1, 257888, Control_c, 0, 64, 127
1, 257918, Note_on_c, 0, 64, 80
1, 257992, Note_on_c, 0, 68, 91
1, 257994, Note_off_c, 0, 64, 61
1, 258037, Control_c, 0, 64, 108
1, 258042, Note_off_c, 0, 68, 62
1, 258052, Control_c, 0, 64, 95
1, 258067, Control_c, 0, 64, 88
1, 258083, Note_on_c, 0, 76, 100
1, 258089, Control_c, 0, 64, 81
1, 258104, Control_c, 0, 64, 73
1, 258119, Control_c, 0, 64, 65
1, 258134, Control_c, 0, 64, 51
1, 258148, Control_c, 0, 64, 25
1, 258163, Control_c, 0, 64, 0
1, 258208, Control_c, 0, 64, 27
1, 258223, Control_c, 0, 64, 43
1, 258237, Control_c, 0, 64, 51
1, 258252, Control_c, 0, 64, 58
1, 258267, Control_c, 0, 64, 64
1, 258281, Control_c, 0, 64, 70
1, 258285, Note_on_c, 0, 64, 78
1, 258296, Control_c, 0, 64, 82
1, 258302, Note_off_c, 0, 76, 60
1, 258311, Control_c, 0, 64, 127
1, 258341, Note_off_c, 0, 64, 58
1, 258383, Note_on_c, 0, 56, 76
1, 258411, Note_off_c, 0, 56, 68
1, 258461, Note_on_c, 0, 56, 73
1, 258488, Note_off_c, 0, 56, 68
1, 258519, Note_on_c, 0, 55, 78
1, 258586, Note_off_c, 0, 55, 53
1, 258614, Note_on_c, 0, 54, 74
1, 258622, Control_c, 0, 64, 94
1, 258637, Control_c, 0, 64, 74
1, 258652, Control_c, 0, 64, 61
1, 258667, Control_c, 0, 64, 31
1, 258681, Control_c, 0, 64, 0
1, 258703, Note_on_c, 0, 67, 54
1, 258711, Control_c, 0, 64, 16
1, 258726, Control_c, 0, 64, 36
1, 258741, Control_c, 0, 64, 49
1, 258754, Note_off_c, 0, 67, 58
1, 258755, Control_c, 0, 64, 60
1, 258770, Control_c, 0, 64, 69
1, 258771, Note_off_c, 0, 54, 62
1, 258785, Control_c, 0, 64, 80
1, 258786, Note_on_c, 0, 49, 56
1, 258787, Note_on_c, 0, 66, 57
1, 258799, Control_c, 0, 64, 112
1, 258814, Control_c, 0, 64, 127
1, 258841, Note_off_c, 0, 66, 60
1, 258864, Note_off_c, 0, 49, 61
1, 258870, Note_on_c, 0, 67, 72
1, 258882, Note_on_c, 0, 54, 55
1, 258926, Note_off_c, 0, 67, 61
1, 258944, Note_on_c, 0, 70, 74
1, 258950, Note_on_c, 0, 58, 70
1, 258965, Note_off_c, 0, 54, 58
1, 258980, Note_off_c, 0, 58, 67
1, 258992, Note_off_c, 0, 70, 60
1, 259017, Note_on_c, 0, 69, 80
1, 259019, Note_on_c, 0, 64, 70
1, 259093, Note_off_c, 0, 69, 60
1, 259095, Note_on_c, 0, 66, 87
1, 259095, Note_on_c, 0, 70, 82
1, 259111, Note_off_c, 0, 64, 61
1, 259150, Note_off_c, 0, 70, 62
1, 259168, Note_on_c, 0, 76, 80
1, 259236, Note_on_c, 0, 75, 85
1, 259248, Note_off_c, 0, 66, 61
1, 259248, Note_off_c, 0, 76, 64
1, 259256, Note_on_c, 0, 61, 78
1, 259278, Note_off_c, 0, 75, 66
1, 259313, Note_off_c, 0, 61, 62
1, 259316, Note_on_c, 0, 76, 90
1, 259325, Note_on_c, 0, 66, 69
1, 259383, Note_on_c, 0, 79, 87
1, 259385, Note_on_c, 0, 70, 84
1, 259396, Note_off_c, 0, 76, 60
1, 259400, Note_off_c, 0, 66, 63
1, 259437, Note_off_c, 0, 79, 67
1, 259442, Note_on_c, 0, 82, 84
1, 259456, Note_off_c, 0, 70, 54
1, 259462, Note_on_c, 0, 78, 77
1, 259478, Note_off_c, 0, 78, 67
1, 259508, Note_on_c, 0, 76, 90
1, 259508, Note_on_c, 0, 86, 92
1, 259511, Note_on_c, 0, 80, 87
1, 259519, Note_off_c, 0, 82, 64
1, 259520, Control_c, 0, 64, 99
1, 259529, Note_off_c, 0, 76, 71
1, 259534, Note_off_c, 0, 80, 68
1, 259534, Note_off_c, 0, 86, 61
1, 259535, Control_c, 0, 64, 65
1, 259549, Control_c, 0, 64, 0
1, 259630, Note_on_c, 0, 48, 61
1, 259686, Note_on_c, 0, 83, 65
1, 259696, Note_on_c, 0, 84, 53
1, 259699, Note_on_c, 0, 81, 61
1, 259701, Note_on_c, 0, 56, 74
1, 259713, Note_off_c, 0, 48, 62
1, 259717, Note_off_c, 0, 84, 39
1, 259721, Control_c, 0, 64, 52
1, 259735, Control_c, 0, 64, 69
1, 259739, Note_off_c, 0, 81, 56
1, 259742, Note_off_c, 0, 56, 58
1, 259742, Note_off_c, 0, 83, 48
1, 259750, Control_c, 0, 64, 95
1, 259752, Note_on_c, 0, 72, 82
1, 259753, Note_on_c, 0, 76, 82
1, 259753, Note_on_c, 0, 77, 78
1, 259765, Control_c, 0, 64, 127
1, 259767, Note_on_c, 0, 62, 72
1, 259792, Note_off_c, 0, 72, 59
1, 259793, Note_off_c, 0, 77, 60
1, 259796, Note_off_c, 0, 62, 67
1, 259803, Note_off_c, 0, 76, 59
1, 259842, Note_on_c, 0, 64, 84
1, 259916, Note_on_c, 0, 68, 93
1, 259919, Note_off_c, 0, 64, 66
1, 259961, Note_off_c, 0, 68, 62
1, 259993, Note_on_c, 0, 76, 104
1, 260002, Control_c, 0, 64, 80
1, 260017, Control_c, 0, 64, 60
1, 260032, Control_c, 0, 64, 0
1, 260076, Control_c, 0, 64, 29
1, 260091, Control_c, 0, 64, 52
1, 260106, Control_c, 0, 64, 63
1, 260120, Control_c, 0, 64, 75
1, 260135, Control_c, 0, 64, 127
1, 260180, Note_on_c, 0, 88, 91
1, 260190, Note_off_c, 0, 76, 60
1, 260214, Note_off_c, 0, 88, 63
1, 260253, Note_on_c, 0, 56, 66
1, 260274, Note_off_c, 0, 56, 62
1, 260333, Note_on_c, 0, 56, 85
1, 260377, Note_off_c, 0, 56, 0
1, 260399, Note_on_c, 0, 54, 87
1, 260411, Poly_aftertouch_c, 0, 56, 0
1, 260426, Note_off_c, 0, 54, 67
1, 260488, Note_on_c, 0, 53, 97
1, 260499, Control_c, 0, 64, 100
1, 260514, Control_c, 0, 64, 66
1, 260529, Control_c, 0, 64, 0
1, 260592, Note_on_c, 0, 70, 67
1, 260618, Control_c, 0, 64, 41
1, 260632, Control_c, 0, 64, 64
1, 260647, Control_c, 0, 64, 87
1, 260650, Note_off_c, 0, 70, 63
1, 260662, Control_c, 0, 64, 127
1, 260665, Note_on_c, 0, 58, 78
1, 260665, Note_on_c, 0, 69, 78
1, 260669, Note_off_c, 0, 53, 59
1, 260730, Note_on_c, 0, 62, 84
1, 260743, Note_off_c, 0, 69, 63
1, 260744, Note_on_c, 0, 70, 81
1, 260764, Note_off_c, 0, 70, 70
1, 260766, Note_off_c, 0, 58, 63
1, 260789, Note_off_c, 0, 62, 63
1, 260806, Note_on_c, 0, 67, 78
1, 260816, Note_on_c, 0, 74, 86
1, 260880, Note_on_c, 0, 69, 90
1, 260885, Note_off_c, 0, 67, 65
1, 260891, Note_on_c, 0, 73, 88
1, 260894, Note_off_c, 0, 74, 62
1, 260935, Note_off_c, 0, 73, 66
1, 260953, Note_on_c, 0, 70, 100
1, 260965, Note_off_c, 0, 69, 66
1, 260970, Note_on_c, 0, 74, 90
1, 261036, Note_off_c, 0, 74, 55
1, 261043, Note_on_c, 0, 79, 93
1, 261130, Note_on_c, 0, 78, 86
1, 261132, Note_off_c, 0, 79, 64
1, 261137, Note_on_c, 0, 69, 83
1, 261141, Note_off_c, 0, 70, 59
1, 261171, Note_off_c, 0, 78, 63
1, 261205, Note_on_c, 0, 79, 89
1, 261207, Note_on_c, 0, 67, 88
1, 261209, Note_off_c, 0, 69, 64
1, 261278, Note_on_c, 0, 82, 93
1, 261288, Note_off_c, 0, 79, 61
1, 261342, Note_off_c, 0, 67, 60
1, 261345, Note_on_c, 0, 86, 84
1, 261347, Note_off_c, 0, 82, 64
1, 261349, Note_on_c, 0, 62, 91
1, 261386, Note_off_c, 0, 62, 67
1, 261387, Note_off_c, 0, 86, 0
1, 261409, Note_on_c, 0, 84, 93
1, 261409, Note_on_c, 0, 89, 99
1, 261411, Note_on_c, 0, 81, 88
1, 261411, Control_c, 0, 64, 71
1, 261416, Poly_aftertouch_c, 0, 86, 0
1, 261426, Control_c, 0, 64, 0
1, 261430, Note_off_c, 0, 84, 68
1, 261430, Note_off_c, 0, 81, 67
1, 261440, Note_off_c, 0, 89, 67
1, 261497, Note_on_c, 0, 52, 71
1, 261573, Note_on_c, 0, 57, 80
1, 261574, Note_on_c, 0, 76, 94
1, 261574, Note_on_c, 0, 84, 91
1, 261578, Note_on_c, 0, 81, 77
1, 261591, Note_off_c, 0, 52, 64
1, 261592, Note_off_c, 0, 76, 72
1, 261602, Control_c, 0, 64, 40
1, 261603, Note_off_c, 0, 81, 65
1, 261617, Control_c, 0, 64, 66
1, 261630, Note_off_c, 0, 57, 65
1, 261632, Control_c, 0, 64, 91
1, 261635, Note_on_c, 0, 77, 109
1, 261642, Note_on_c, 0, 60, 75
1, 261645, Note_off_c, 0, 84, 55
1, 261646, Control_c, 0, 64, 127
1, 261675, Note_off_c, 0, 77, 69
1, 261693, Note_off_c, 0, 60, 64
1, 261725, Note_on_c, 0, 65, 87
1, 261791, Note_on_c, 0, 69, 97
1, 261801, Note_off_c, 0, 65, 63
1, 261809, Note_on_c, 0, 67, 71
1, 261836, Note_off_c, 0, 67, 42
1, 261841, Note_off_c, 0, 69, 68
1, 261881, Note_on_c, 0, 77, 110
1, 261891, Control_c, 0, 64, 90
1, 261905, Control_c, 0, 64, 65
1, 261920, Control_c, 0, 64, 0
1, 261994, Control_c, 0, 64, 21
1, 262009, Control_c, 0, 64, 52
1, 262025, Control_c, 0, 64, 66
1, 262040, Control_c, 0, 64, 91
1, 262055, Control_c, 0, 64, 127
1, 262089, Note_on_c, 0, 65, 87
1, 262089, Note_off_c, 0, 77, 53
1, 262119, Note_off_c, 0, 65, 60
1, 262137, Note_on_c, 0, 52, 83
1, 262161, Note_off_c, 0, 52, 69
1, 262209, Note_on_c, 0, 52, 84
1, 262233, Note_on_c, 0, 71, 43
1, 262267, Note_off_c, 0, 71, 55
1, 262273, Note_off_c, 0, 52, 61
1, 262280, Note_on_c, 0, 51, 88
1, 262308, Note_off_c, 0, 51, 67
1, 262362, Note_on_c, 0, 68, 98
1, 262362, Note_on_c, 0, 77, 98
1, 262363, Note_on_c, 0, 73, 87
1, 262366, Note_on_c, 0, 49, 91
1, 262366, Control_c, 0, 64, 81
1, 262380, Note_off_c, 0, 68, 69
1, 262381, Control_c, 0, 64, 49
1, 262381, Note_off_c, 0, 73, 74
1, 262384, Note_off_c, 0, 77, 63
1, 262395, Control_c, 0, 64, 0
1, 262428, Note_on_c, 0, 56, 80
1, 262462, Note_off_c, 0, 49, 62
1, 262495, Note_on_c, 0, 60, 80
1, 262511, Note_off_c, 0, 56, 63
1, 262530, Note_off_c, 0, 60, 65
1, 262535, Note_on_c, 0, 73, 86
1, 262538, Note_on_c, 0, 64, 79
1, 262543, Note_on_c, 0, 68, 64
1, 262562, Note_off_c, 0, 64, 69
1, 262581, Control_c, 0, 64, 37
1, 262587, Note_off_c, 0, 68, 53
1, 262595, Control_c, 0, 64, 63
1, 262596, Note_off_c, 0, 73, 38
1, 262602, Note_on_c, 0, 65, 94
1, 262610, Control_c, 0, 64, 72
1, 262625, Control_c, 0, 64, 113
1, 262640, Control_c, 0, 64, 127
1, 262645, Note_on_c, 0, 64, 3
1, 262662, Note_off_c, 0, 65, 66
1, 262674, Note_off_c, 0, 64, 52
1, 262676, Note_on_c, 0, 58, 86
1, 262742, Note_on_c, 0, 60, 84
1, 262756, Note_off_c, 0, 58, 61
1, 262797, Note_off_c, 0, 60, 61
1, 262815, Note_on_c, 0, 68, 92
1, 262816, Note_on_c, 0, 61, 92
1, 262820, Note_on_c, 0, 65, 83
1, 262833, Control_c, 0, 64, 83
1, 262840, Note_off_c, 0, 61, 64
1, 262843, Note_off_c, 0, 65, 70
1, 262848, Control_c, 0, 64, 60
1, 262861, Note_off_c, 0, 68, 63
1, 262863, Control_c, 0, 64, 0
1, 262912, Note_on_c, 0, 49, 73
1, 262983, Note_on_c, 0, 56, 78
1, 262995, Note_off_c, 0, 49, 64
1, 263004, Note_on_c, 0, 65, 88
1, 263007, Note_on_c, 0, 60, 87
1, 263026, Note_off_c, 0, 60, 71
1, 263036, Note_off_c, 0, 65, 51
1, 263045, Note_off_c, 0, 56, 61
1, 263064, Note_on_c, 0, 61, 96
1, 263088, Poly_aftertouch_c, 0, 65, 0
1, 263115, Control_c, 0, 64, 36
1, 263130, Control_c, 0, 64, 56
1, 263144, Control_c, 0, 64, 64
1, 263145, Note_on_c, 0, 55, 80
1, 263159, Control_c, 0, 64, 73
1, 263174, Control_c, 0, 64, 94
1, 263189, Control_c, 0, 64, 127
1, 263205, Note_off_c, 0, 61, 58
1, 263215, Note_off_c, 0, 55, 63
1, 263219, Note_on_c, 0, 56, 85
1, 263264, Control_c, 0, 64, 102
1, 263266, Note_off_c, 0, 56, 63
1, 263278, Control_c, 0, 64, 85
1, 263293, Control_c, 0, 64, 76
1, 263294, Note_on_c, 0, 57, 88
1, 263295, Note_on_c, 0, 65, 86
1, 263301, Note_on_c, 0, 60, 69
1, 263308, Control_c, 0, 64, 70
1, 263330, Note_off_c, 0, 57, 67
1, 263330, Control_c, 0, 64, 66
1, 263335, Note_off_c, 0, 60, 69
1, 263345, Note_off_c, 0, 65, 57
1, 263345, Control_c, 0, 64, 62
1, 263359, Control_c, 0, 64, 57
1, 263374, Control_c, 0, 64, 53
1, 263389, Control_c, 0, 64, 50
1, 263399, Note_on_c, 0, 37, 68
1, 263404, Control_c, 0, 64, 48
1, 263419, Control_c, 0, 64, 44
1, 263434, Control_c, 0, 64, 40
1, 263448, Control_c, 0, 64, 34
1, 263463, Control_c, 0, 64, 28
1, 263478, Control_c, 0, 64, 21
1, 263487, Note_on_c, 0, 38, 67
1, 263493, Control_c, 0, 64, 15
1, 263498, Note_on_c, 0, 53, 81
1, 263501, Note_on_c, 0, 60, 70
1, 263503, Note_off_c, 0, 37, 53
1, 263506, Note_on_c, 0, 57, 69
1, 263508, Control_c, 0, 64, 12
1, 263523, Control_c, 0, 64, 11
1, 263552, Control_c, 0, 64, 9
1, 263562, Note_on_c, 0, 39, 79
1, 263564, Note_on_c, 0, 52, 87
1, 263567, Control_c, 0, 64, 0
1, 263575, Note_off_c, 0, 53, 59
1, 263601, Note_off_c, 0, 38, 60
1, 263612, Note_off_c, 0, 60, 56
1, 263644, Note_on_c, 0, 40, 79
1, 263647, Note_off_c, 0, 39, 64
1, 263672, Control_c, 0, 64, 9
1, 263701, Control_c, 0, 64, 11
1, 263702, Note_off_c, 0, 40, 63
1, 263744, Note_on_c, 0, 41, 60
1, 263745, Control_c, 0, 64, 12
1, 263747, Note_on_c, 0, 43, 60
1, 263800, Note_off_c, 0, 57, 37
1, 263822, Note_off_c, 0, 41, 63
1, 263872, Note_off_c, 0, 43, 63
1, 263898, Note_on_c, 0, 45, 63
1, 263961, Note_off_c, 0, 45, 43
1, 263986, Note_on_c, 0, 47, 60
1, 264041, Note_off_c, 0, 47, 57
1, 264083, Note_on_c, 0, 48, 62
1, 264092, Note_off_c, 0, 52, 59
1, 264107, Control_c, 0, 64, 11
1, 264127, Note_off_c, 0, 48, 64
1, 264137, Control_c, 0, 64, 9
1, 264167, Control_c, 0, 64, 0
1, 264176, Note_on_c, 0, 50, 43
1, 264238, Note_off_c, 0, 50, 54
1, 264315, Control_c, 0, 67, 18
1, 264330, Control_c, 0, 67, 36
1, 264345, Control_c, 0, 67, 53
1, 264360, Control_c, 0, 67, 73
1, 264374, Control_c, 0, 67, 92
1, 264389, Control_c, 0, 67, 109
1, 264397, Note_on_c, 0, 52, 47
1, 264404, Control_c, 0, 67, 124
1, 264413, Note_on_c, 0, 45, 30
1, 264420, Control_c, 0, 67, 127
1, 264423, Note_off_c, 0, 52, 59
1, 264451, Note_off_c, 0, 45, 43
1, 264505, Note_on_c, 0, 88, 55
1, 264567, Note_off_c, 0, 88, 57
1, 264582, Note_on_c, 0, 45, 59
1, 264585, Note_on_c, 0, 52, 57
1, 264589, Note_on_c, 0, 91, 61
1, 264611, Note_off_c, 0, 52, 65
1, 264611, Note_off_c, 0, 45, 65
1, 264623, Note_off_c, 0, 91, 65
1, 264654, Note_on_c, 0, 84, 64
1, 264671, Note_off_c, 0, 84, 66
1, 264681, Note_on_c, 0, 52, 48
1, 264682, Note_off_c, 0, 52, 127
1, 264692, Note_on_c, 0, 45, 26
1, 264693, Note_off_c, 0, 45, 127
1, 264741, Note_on_c, 0, 84, 71
1, 264784, Note_off_c, 0, 84, 56
1, 264811, Note_on_c, 0, 45, 70
1, 264811, Note_on_c, 0, 52, 54
1, 264832, Note_on_c, 0, 88, 61
1, 264842, Note_off_c, 0, 52, 59
1, 264845, Note_off_c, 0, 45, 66
1, 264863, Note_off_c, 0, 88, 66
1, 264888, Note_on_c, 0, 81, 76
1, 264901, Note_on_c, 0, 60, 82
1, 264905, Note_on_c, 0, 50, 66
1, 264907, Note_on_c, 0, 53, 65
1, 264911, Note_off_c, 0, 81, 70
1, 264921, Note_off_c, 0, 60, 71
1, 264925, Note_off_c, 0, 50, 64
1, 264927, Note_off_c, 0, 53, 63
1, 264993, Note_on_c, 0, 81, 62
1, 265056, Note_off_c, 0, 81, 64
1, 265075, Note_on_c, 0, 50, 49
1, 265075, Note_on_c, 0, 84, 69
1, 265082, Note_on_c, 0, 60, 49
1, 265102, Note_off_c, 0, 50, 54
1, 265106, Note_off_c, 0, 84, 62
1, 265107, Note_off_c, 0, 60, 37
1, 265146, Note_on_c, 0, 57, 73
1, 265147, Note_on_c, 0, 59, 71
1, 265147, Note_on_c, 0, 77, 66
1, 265164, Note_on_c, 0, 52, 49
1, 265165, Note_off_c, 0, 52, 127
1, 265165, Note_off_c, 0, 59, 66
1, 265174, Note_off_c, 0, 57, 65
1, 265175, Note_off_c, 0, 77, 64
1, 265238, Note_on_c, 0, 77, 66
1, 265296, Note_off_c, 0, 77, 51
1, 265304, Note_on_c, 0, 52, 59
1, 265312, Note_on_c, 0, 59, 45
1, 265324, Note_on_c, 0, 81, 64
1, 265328, Note_on_c, 0, 57, 15
1, 265335, Note_off_c, 0, 52, 67
1, 265338, Note_off_c, 0, 59, 51
1, 265362, Note_off_c, 0, 57, 0
1, 265378, Note_off_c, 0, 81, 61
1, 265381, Note_on_c, 0, 57, 49
1, 265387, Note_on_c, 0, 64, 77
1, 265390, Note_on_c, 0, 74, 75
1, 265393, Note_on_c, 0, 60, 63
1, 265408, Note_off_c, 0, 57, 65
1, 265412, Note_off_c, 0, 60, 63
1, 265412, Note_off_c, 0, 64, 69
1, 265429, Note_off_c, 0, 74, 60
1, 265481, Note_on_c, 0, 76, 66
1, 265554, Note_off_c, 0, 76, 60
1, 265570, Note_on_c, 0, 60, 46
1, 265571, Note_on_c, 0, 64, 57
1, 265574, Note_on_c, 0, 57, 54
1, 265577, Note_on_c, 0, 79, 69
1, 265594, Note_off_c, 0, 64, 64
1, 265596, Note_off_c, 0, 60, 63
1, 265604, Note_off_c, 0, 57, 64
1, 265622, Note_off_c, 0, 79, 63
1, 265647, Note_on_c, 0, 72, 72
1, 265652, Note_on_c, 0, 64, 73
1, 265665, Note_on_c, 0, 60, 57
1, 265667, Note_on_c, 0, 57, 59
1, 265671, Note_off_c, 0, 72, 69
1, 265680, Note_off_c, 0, 64, 68
1, 265686, Note_off_c, 0, 60, 61
1, 265689, Note_off_c, 0, 57, 61
1, 265734, Note_on_c, 0, 72, 69
1, 265791, Note_off_c, 0, 72, 61
1, 265815, Note_on_c, 0, 60, 53
1, 265818, Note_on_c, 0, 64, 68
1, 265820, Note_on_c, 0, 57, 53
1, 265823, Note_on_c, 0, 76, 71
1, 265842, Note_off_c, 0, 60, 64
1, 265844, Note_off_c, 0, 57, 61
1, 265848, Note_off_c, 0, 64, 64
1, 265856, Note_off_c, 0, 76, 66
1, 265896, Note_on_c, 0, 69, 72
1, 265901, Note_on_c, 0, 60, 76
1, 265902, Note_on_c, 0, 52, 72
1, 265906, Note_on_c, 0, 57, 70
1, 265918, Note_off_c, 0, 60, 68
1, 265922, Note_off_c, 0, 69, 70
1, 265925, Note_off_c, 0, 57, 66
1, 265930, Note_off_c, 0, 52, 67
1, 265985, Note_on_c, 0, 69, 72
1, 266027, Note_off_c, 0, 69, 64
1, 266060, Note_on_c, 0, 60, 54
1, 266064, Note_on_c, 0, 52, 54
1, 266064, Note_on_c, 0, 57, 47
1, 266071, Note_on_c, 0, 72, 67
1, 266085, Note_off_c, 0, 60, 64
1, 266090, Note_off_c, 0, 57, 61
1, 266096, Note_off_c, 0, 52, 67
1, 266104, Note_off_c, 0, 72, 62
1, 266139, Note_on_c, 0, 59, 72
1, 266140, Note_on_c, 0, 65, 72
1, 266147, Note_on_c, 0, 50, 64
1, 266153, Note_on_c, 0, 57, 50
1, 266165, Note_off_c, 0, 59, 68
1, 266168, Note_off_c, 0, 50, 63
1, 266168, Note_off_c, 0, 65, 67
1, 266179, Note_off_c, 0, 57, 38
1, 266234, Note_on_c, 0, 65, 59
1, 266263, Note_off_c, 0, 65, 63
1, 266297, Note_on_c, 0, 50, 52
1, 266318, Note_on_c, 0, 69, 60
1, 266324, Note_on_c, 0, 59, 33
1, 266328, Note_on_c, 0, 57, 11
1, 266335, Note_off_c, 0, 50, 63
1, 266343, Note_off_c, 0, 69, 60
1, 266359, Note_off_c, 0, 59, 31
1, 266373, Note_off_c, 0, 57, 34
1, 266388, Note_on_c, 0, 64, 84
1, 266395, Note_on_c, 0, 55, 62
1, 266402, Note_on_c, 0, 59, 39
1, 266409, Note_off_c, 0, 64, 71
1, 266426, Note_off_c, 0, 55, 65
1, 266434, Note_off_c, 0, 59, 43
1, 266491, Note_on_c, 0, 65, 65
1, 266520, Note_off_c, 0, 65, 66
1, 266557, Note_on_c, 0, 59, 54
1, 266561, Note_on_c, 0, 55, 47
1, 266564, Note_on_c, 0, 67, 60
1, 266567, Note_on_c, 0, 64, 45
1, 266587, Note_off_c, 0, 59, 65
1, 266587, Note_off_c, 0, 55, 59
1, 266592, Note_off_c, 0, 64, 57
1, 266595, Note_off_c, 0, 67, 64
1, 266636, Note_on_c, 0, 64, 60
1, 266646, Note_on_c, 0, 69, 63
1, 266647, Note_on_c, 0, 59, 52
1, 266662, Note_off_c, 0, 64, 63
1, 266671, Note_on_c, 0, 55, 31
1, 266672, Note_off_c, 0, 59, 58
1, 266675, Note_off_c, 0, 55, 45
1, 266677, Note_off_c, 0, 69, 66
1, 266725, Note_on_c, 0, 71, 63
1, 266755, Note_off_c, 0, 71, 66
1, 266792, Note_on_c, 0, 72, 64
1, 266801, Note_on_c, 0, 55, 57
1, 266805, Note_on_c, 0, 59, 40
1, 266808, Note_on_c, 0, 64, 41
1, 266810, Note_off_c, 0, 72, 67
1, 266829, Note_off_c, 0, 55, 63
1, 266834, Note_off_c, 0, 59, 51
1, 266837, Note_off_c, 0, 64, 51
1, 266872, Note_on_c, 0, 74, 76
1, 266877, Note_on_c, 0, 53, 73
1, 266879, Note_on_c, 0, 62, 71
1, 266882, Note_on_c, 0, 57, 66
1, 266894, Note_off_c, 0, 74, 70
1, 266902, Note_off_c, 0, 57, 64
1, 266906, Note_off_c, 0, 62, 64
1, 266908, Note_off_c, 0, 53, 66
1, 266961, Note_on_c, 0, 76, 67
1, 266962, Note_on_c, 0, 72, 61
1, 266978, Note_off_c, 0, 76, 66
1, 266980, Note_off_c, 0, 72, 63
1, 267028, Note_on_c, 0, 62, 61
1, 267032, Note_on_c, 0, 53, 62
1, 267032, Note_on_c, 0, 57, 49
1, 267044, Note_on_c, 0, 77, 57
1, 267046, Note_on_c, 0, 74, 58
1, 267056, Note_off_c, 0, 62, 66
1, 267067, Note_off_c, 0, 57, 64
1, 267068, Note_off_c, 0, 53, 65
1, 267070, Note_off_c, 0, 77, 58
1, 267073, Note_off_c, 0, 74, 42
1, 267109, Note_on_c, 0, 79, 78
1, 267114, Note_on_c, 0, 76, 68
1, 267121, Note_on_c, 0, 62, 75
1, 267130, Note_on_c, 0, 53, 68
1, 267131, Note_off_c, 0, 79, 71
1, 267144, Note_off_c, 0, 76, 66
1, 267145, Note_off_c, 0, 62, 65
1, 267158, Note_off_c, 0, 53, 66
1, 267195, Note_on_c, 0, 81, 68
1, 267196, Note_on_c, 0, 77, 68
1, 267222, Note_off_c, 0, 81, 69
1, 267223, Note_off_c, 0, 77, 67
1, 267268, Note_on_c, 0, 62, 65
1, 267273, Note_on_c, 0, 83, 74
1, 267276, Note_on_c, 0, 53, 58
1, 267288, Note_off_c, 0, 83, 69
1, 267294, Note_on_c, 0, 57, 44
1, 267294, Note_off_c, 0, 62, 67
1, 267304, Note_off_c, 0, 53, 63
1, 267306, Note_on_c, 0, 79, 31
1, 267307, Note_off_c, 0, 79, 127
1, 267323, Note_off_c, 0, 57, 36
1, 267341, Control_c, 0, 64, 59
1, 267343, Note_on_c, 0, 83, 87
1, 267348, Poly_aftertouch_c, 0, 79, 0
1, 267351, Note_on_c, 0, 60, 79
1, 267356, Control_c, 0, 64, 71
1, 267357, Note_on_c, 0, 52, 68
1, 267360, Note_on_c, 0, 79, 36
1, 267362, Note_on_c, 0, 55, 61
1, 267366, Note_off_c, 0, 83, 67
1, 267371, Control_c, 0, 64, 95
1, 267376, Note_off_c, 0, 60, 70
1, 267381, Note_off_c, 0, 52, 65
1, 267383, Note_off_c, 0, 55, 62
1, 267386, Control_c, 0, 64, 127
1, 267390, Note_off_c, 0, 79, 50
1, 267450, Note_on_c, 0, 81, 61
1, 267467, Note_off_c, 0, 81, 66
1, 267489, Control_c, 0, 64, 99
1, 267495, Note_on_c, 0, 52, 52
1, 267500, Note_on_c, 0, 60, 72
1, 267501, Note_on_c, 0, 55, 49
1, 267504, Control_c, 0, 64, 77
1, 267516, Note_off_c, 0, 52, 64
1, 267518, Control_c, 0, 64, 62
1, 267520, Note_off_c, 0, 60, 64
1, 267523, Note_off_c, 0, 55, 58
1, 267533, Control_c, 0, 64, 0
1, 267535, Note_on_c, 0, 77, 48
1, 267536, Note_off_c, 0, 77, 127
1, 267538, Note_on_c, 0, 74, 50
1, 267561, Note_off_c, 0, 74, 42
1, 267571, Note_on_c, 0, 60, 71
1, 267574, Note_on_c, 0, 52, 74
1, 267592, Note_on_c, 0, 84, 75
1, 267593, Note_off_c, 0, 60, 69
1, 267602, Note_on_c, 0, 76, 56
1, 267602, Note_off_c, 0, 52, 67
1, 267604, Note_on_c, 0, 79, 50
1, 267605, Note_off_c, 0, 79, 127
1, 267612, Note_on_c, 0, 55, 31
1, 267616, Note_off_c, 0, 84, 69
1, 267624, Note_off_c, 0, 76, 41
1, 267637, Note_off_c, 0, 55, 36
1, 267681, Note_on_c, 0, 77, 79
1, 267683, Note_on_c, 0, 81, 69
1, 267684, Note_on_c, 0, 86, 64
1, 267697, Note_off_c, 0, 81, 69
1, 267700, Note_off_c, 0, 86, 64
1, 267706, Note_off_c, 0, 77, 69
1, 267744, Note_on_c, 0, 59, 70
1, 267748, Note_on_c, 0, 52, 56
1, 267759, Note_on_c, 0, 88, 78
1, 267762, Note_on_c, 0, 83, 79
1, 267768, Note_on_c, 0, 79, 65
1, 267770, Note_off_c, 0, 59, 67
1, 267781, Note_off_c, 0, 88, 71
1, 267783, Note_on_c, 0, 55, 3
1, 267783, Note_off_c, 0, 83, 72
1, 267784, Note_off_c, 0, 79, 67
1, 267802, Note_off_c, 0, 52, 64
1, 267824, Note_on_c, 0, 53, 45
1, 267825, Note_on_c, 0, 57, 43
1, 267833, Note_off_c, 0, 55, 26
1, 267848, Note_off_c, 0, 57, 39
1, 267851, Note_on_c, 0, 89, 80
1, 267851, Note_on_c, 0, 81, 69
1, 267854, Note_off_c, 0, 53, 35
1, 267856, Note_on_c, 0, 84, 73
1, 267870, Note_off_c, 0, 84, 69
1, 267874, Note_off_c, 0, 89, 70
1, 267877, Note_off_c, 0, 81, 70
1, 267932, Note_on_c, 0, 91, 79
1, 267933, Note_on_c, 0, 86, 84
1, 267940, Note_on_c, 0, 83, 75
1, 267952, Note_off_c, 0, 86, 72
1, 267955, Note_off_c, 0, 91, 70
1, 267960, Note_off_c, 0, 83, 65
1, 268015, Note_on_c, 0, 93, 87
1, 268023, Note_on_c, 0, 88, 73
1, 268026, Note_on_c, 0, 84, 64
1, 268033, Note_off_c, 0, 93, 75
1, 268041, Note_off_c, 0, 84, 66
1, 268042, Note_off_c, 0, 88, 66
1, 268064, Note_on_c, 0, 43, 64
1, 268068, Note_on_c, 0, 55, 47
1, 268095, Note_on_c, 0, 95, 96
1, 268095, Note_off_c, 0, 55, 36
1, 268096, Note_off_c, 0, 43, 64
1, 268099, Note_on_c, 0, 89, 86
1, 268117, Note_on_c, 0, 86, 60
1, 268119, Note_off_c, 0, 89, 72
1, 268125, Note_off_c, 0, 95, 64
1, 268136, Note_off_c, 0, 86, 61
1, 268177, Note_on_c, 0, 96, 96
1, 268186, Note_on_c, 0, 91, 80
1, 268190, Note_on_c, 0, 88, 70
1, 268206, Note_off_c, 0, 96, 66
1, 268209, Note_off_c, 0, 91, 70
1, 268215, Note_off_c, 0, 88, 70
1, 268258, Note_on_c, 0, 98, 85
1, 268268, Note_on_c, 0, 93, 81
1, 268278, Note_on_c, 0, 89, 71
1, 268285, Note_off_c, 0, 98, 67
1, 268286, Note_off_c, 0, 93, 73
1, 268304, Note_off_c, 0, 89, 65
1, 268347, Note_on_c, 0, 43, 60
1, 268348, Note_on_c, 0, 98, 80
1, 268349, Note_on_c, 0, 36, 56
1, 268351, Note_on_c, 0, 100, 70
1, 268355, Control_c, 0, 64, 45
1, 268367, Note_on_c, 0, 91, 56
1, 268370, Control_c, 0, 64, 71
1, 268373, Note_off_c, 0, 98, 70
1, 268379, Note_off_c, 0, 36, 61
1, 268379, Note_off_c, 0, 100, 67
1, 268379, Note_off_c, 0, 43, 64
1, 268385, Control_c, 0, 64, 95
1, 268386, Note_off_c, 0, 91, 61
1, 268400, Control_c, 0, 64, 127
1, 268432, Note_on_c, 0, 91, 71
1, 268484, Note_off_c, 0, 91, 64
1, 268503, Note_on_c, 0, 36, 58
1, 268514, Note_on_c, 0, 43, 48
1, 268515, Note_on_c, 0, 95, 68
1, 268534, Note_off_c, 0, 36, 63
1, 268548, Note_off_c, 0, 95, 65
1, 268571, Note_off_c, 0, 43, 0
1, 268571, Control_c, 0, 64, 98
1, 268585, Note_on_c, 0, 43, 56
1, 268586, Control_c, 0, 64, 89
1, 268596, Note_on_c, 0, 88, 56
1, 268598, Note_on_c, 0, 36, 51
1, 268601, Control_c, 0, 64, 83
1, 268615, Note_off_c, 0, 43, 64
1, 268615, Note_off_c, 0, 88, 62
1, 268616, Control_c, 0, 64, 77
1, 268620, Note_off_c, 0, 36, 61
1, 268631, Control_c, 0, 64, 71
1, 268645, Control_c, 0, 64, 65
1, 268660, Control_c, 0, 64, 62
1, 268675, Control_c, 0, 64, 60
1, 268678, Note_on_c, 0, 88, 68
1, 268690, Control_c, 0, 64, 57
1, 268705, Control_c, 0, 64, 51
1, 268719, Control_c, 0, 64, 43
1, 268734, Control_c, 0, 64, 30
1, 268738, Note_off_c, 0, 88, 64
1, 268749, Control_c, 0, 64, 12
1, 268755, Note_on_c, 0, 36, 48
1, 268757, Note_on_c, 0, 91, 74
1, 268763, Control_c, 0, 64, 0
1, 268769, Note_on_c, 0, 43, 41
1, 268788, Note_off_c, 0, 36, 63
1, 268797, Note_off_c, 0, 91, 65
1, 268804, Note_off_c, 0, 43, 53
1, 268835, Note_on_c, 0, 84, 73
1, 268841, Note_on_c, 0, 50, 77
1, 268856, Note_off_c, 0, 84, 70
1, 268868, Note_off_c, 0, 50, 64
1, 268926, Note_on_c, 0, 84, 72
1, 268934, Poly_aftertouch_c, 0, 40, 0
1, 268993, Note_off_c, 0, 84, 64
1, 269013, Note_on_c, 0, 52, 65
1, 269016, Note_on_c, 0, 45, 51
1, 269017, Note_on_c, 0, 41, 60
1, 269017, Note_on_c, 0, 88, 69
1, 269034, Note_off_c, 0, 52, 66
1, 269041, Note_off_c, 0, 41, 59
1, 269042, Note_off_c, 0, 45, 56
1, 269045, Note_off_c, 0, 88, 66
1, 269083, Note_on_c, 0, 50, 67
1, 269085, Note_on_c, 0, 81, 75
1, 269089, Note_on_c, 0, 48, 61
1, 269104, Note_off_c, 0, 50, 63
1, 269109, Note_off_c, 0, 81, 68
1, 269111, Note_off_c, 0, 48, 60
1, 269115, Note_on_c, 0, 43, 9
1, 269161, Note_off_c, 0, 43, 37
1, 269184, Note_on_c, 0, 81, 66
1, 269231, Note_off_c, 0, 81, 63
1, 269240, Note_on_c, 0, 43, 75
1, 269246, Note_on_c, 0, 50, 56
1, 269262, Note_on_c, 0, 84, 72
1, 269270, Note_off_c, 0, 50, 56
1, 269271, Note_off_c, 0, 43, 63
1, 269326, Note_off_c, 0, 84, 62
1, 269331, Note_on_c, 0, 48, 53
1, 269336, Note_on_c, 0, 55, 83
1, 269338, Note_on_c, 0, 52, 72
1, 269338, Note_on_c, 0, 78, 74
1, 269359, Note_off_c, 0, 55, 68
1, 269366, Note_off_c, 0, 52, 68
1, 269369, Note_off_c, 0, 48, 64
1, 269371, Note_off_c, 0, 78, 63
1, 269425, Note_on_c, 0, 79, 70
1, 269496, Note_off_c, 0, 79, 62
1, 269510, Note_on_c, 0, 55, 52
1, 269511, Note_on_c, 0, 48, 59
1, 269516, Note_on_c, 0, 52, 40
1, 269518, Note_on_c, 0, 83, 66
1, 269537, Note_off_c, 0, 55, 62
1, 269541, Note_off_c, 0, 48, 65
1, 269544, Note_off_c, 0, 52, 52
1, 269557, Note_off_c, 0, 83, 63
1, 269577, Note_on_c, 0, 76, 69
1, 269582, Note_on_c, 0, 55, 64
1, 269585, Note_on_c, 0, 52, 60
1, 269592, Note_on_c, 0, 48, 55
1, 269603, Note_off_c, 0, 55, 63
1, 269606, Note_off_c, 0, 52, 62
1, 269607, Note_off_c, 0, 76, 67
1, 269616, Note_off_c, 0, 48, 57
1, 269665, Note_on_c, 0, 76, 73
1, 269721, Note_off_c, 0, 76, 60
1, 269735, Note_on_c, 0, 57, 68
1, 269754, Note_on_c, 0, 79, 70
1, 269755, Note_off_c, 0, 57, 65
1, 269794, Note_off_c, 0, 79, 59
1, 269821, Note_on_c, 0, 57, 83
1, 269823, Note_on_c, 0, 64, 94
1, 269825, Note_on_c, 0, 72, 70
1, 269840, Note_off_c, 0, 64, 75
1, 269846, Note_off_c, 0, 57, 70
1, 269849, Note_off_c, 0, 72, 69
1, 269911, Note_on_c, 0, 72, 74
1, 269962, Note_off_c, 0, 72, 61
1, 269996, Note_on_c, 0, 76, 67
1, 269999, Note_on_c, 0, 60, 67
1, 270006, Note_on_c, 0, 64, 49
1, 270008, Note_on_c, 0, 55, 61
1, 270028, Note_off_c, 0, 55, 62
1, 270028, Note_off_c, 0, 60, 65
1, 270030, Note_off_c, 0, 64, 55
1, 270031, Note_off_c, 0, 76, 63
1, 270081, Note_on_c, 0, 62, 76
1, 270081, Note_on_c, 0, 69, 70
1, 270087, Note_on_c, 0, 53, 72
1, 270102, Note_on_c, 0, 60, 49
1, 270103, Note_off_c, 0, 60, 127
1, 270106, Note_off_c, 0, 62, 65
1, 270108, Note_off_c, 0, 69, 68
1, 270117, Note_off_c, 0, 53, 66
1, 270185, Note_on_c, 0, 69, 60
1, 270204, Note_off_c, 0, 69, 64
1, 270233, Note_on_c, 0, 53, 68
1, 270240, Note_on_c, 0, 60, 50
1, 270246, Note_on_c, 0, 62, 57
1, 270251, Note_on_c, 0, 72, 57
1, 270262, Control_c, 0, 64, 36
1, 270263, Note_off_c, 0, 60, 60
1, 270268, Note_off_c, 0, 53, 63
1, 270268, Note_off_c, 0, 62, 60
1, 270277, Control_c, 0, 64, 61
1, 270278, Note_off_c, 0, 72, 62
1, 270291, Control_c, 0, 64, 70
1, 270306, Control_c, 0, 64, 79
1, 270321, Control_c, 0, 64, 86
1, 270325, Note_on_c, 0, 67, 88
1, 270332, Note_on_c, 0, 59, 68
1, 270334, Note_on_c, 0, 62, 65
1, 270335, Control_c, 0, 64, 82
1, 270344, Note_off_c, 0, 67, 69
1, 270350, Control_c, 0, 64, 73
1, 270355, Note_off_c, 0, 62, 63
1, 270362, Note_off_c, 0, 59, 67
1, 270365, Control_c, 0, 64, 64
1, 270380, Control_c, 0, 64, 48
1, 270395, Control_c, 0, 64, 0
1, 270418, Note_on_c, 0, 69, 72
1, 270444, Note_off_c, 0, 69, 68
1, 270498, Note_on_c, 0, 71, 61
1, 270505, Note_on_c, 0, 67, 73
1, 270506, Note_on_c, 0, 59, 63
1, 270510, Note_on_c, 0, 62, 55
1, 270522, Note_off_c, 0, 71, 64
1, 270530, Note_off_c, 0, 67, 68
1, 270536, Note_off_c, 0, 59, 65
1, 270539, Note_off_c, 0, 62, 64
1, 270574, Note_on_c, 0, 72, 68
1, 270588, Note_on_c, 0, 67, 73
1, 270594, Note_on_c, 0, 59, 71
1, 270600, Note_off_c, 0, 72, 67
1, 270611, Note_off_c, 0, 67, 69
1, 270612, Note_on_c, 0, 62, 48
1, 270620, Note_off_c, 0, 59, 68
1, 270641, Note_off_c, 0, 62, 38
1, 270658, Note_on_c, 0, 74, 66
1, 270688, Note_off_c, 0, 74, 63
1, 270734, Note_on_c, 0, 76, 63
1, 270757, Note_on_c, 0, 67, 69
1, 270760, Note_on_c, 0, 62, 51
1, 270761, Note_off_c, 0, 76, 64
1, 270761, Note_on_c, 0, 59, 52
1, 270784, Note_off_c, 0, 59, 59
1, 270784, Note_off_c, 0, 62, 60
1, 270784, Note_off_c, 0, 67, 64
1, 270817, Note_on_c, 0, 77, 68
1, 270837, Note_on_c, 0, 65, 78
1, 270853, Note_on_c, 0, 62, 57
1, 270859, Note_off_c, 0, 65, 70
1, 270866, Note_on_c, 0, 59, 50
1, 270874, Note_off_c, 0, 62, 63
1, 270886, Note_off_c, 0, 77, 56
1, 270892, Note_off_c, 0, 59, 55
1, 270915, Note_on_c, 0, 71, 66
1, 270922, Note_on_c, 0, 79, 54
1, 270938, Note_off_c, 0, 71, 64
1, 270942, Note_off_c, 0, 79, 61
1, 270996, Note_on_c, 0, 59, 57
1, 271001, Note_on_c, 0, 62, 48
1, 271001, Note_on_c, 0, 72, 74
1, 271002, Note_on_c, 0, 65, 69
1, 271003, Note_on_c, 0, 81, 61
1, 271020, Note_off_c, 0, 81, 65
1, 271023, Note_off_c, 0, 72, 70
1, 271024, Note_off_c, 0, 59, 65
1, 271028, Note_off_c, 0, 62, 63
1, 271032, Note_off_c, 0, 65, 65
1, 271072, Note_on_c, 0, 83, 75
1, 271075, Note_on_c, 0, 74, 77
1, 271088, Note_on_c, 0, 65, 53
1, 271095, Note_off_c, 0, 83, 70
1, 271095, Note_on_c, 0, 59, 56
1, 271097, Note_off_c, 0, 74, 69
1, 271097, Note_on_c, 0, 62, 39
1, 271098, Note_off_c, 0, 62, 127
1, 271109, Note_off_c, 0, 65, 41
1, 271119, Note_off_c, 0, 59, 58
1, 271154, Note_on_c, 0, 84, 74
1, 271158, Note_on_c, 0, 76, 81
1, 271175, Note_off_c, 0, 84, 71
1, 271181, Note_off_c, 0, 76, 69
1, 271226, Note_on_c, 0, 62, 66
1, 271227, Note_on_c, 0, 59, 54
1, 271227, Note_on_c, 0, 65, 58
1, 271240, Note_on_c, 0, 77, 81
1, 271241, Note_on_c, 0, 86, 71
1, 271256, Note_off_c, 0, 62, 66
1, 271256, Note_off_c, 0, 65, 64
1, 271258, Note_off_c, 0, 86, 66
1, 271263, Note_off_c, 0, 77, 68
1, 271265, Note_off_c, 0, 59, 64
1, 271309, Note_on_c, 0, 88, 73
1, 271322, Note_on_c, 0, 60, 67
1, 271322, Note_on_c, 0, 64, 63
1, 271322, Control_c, 0, 64, 54
1, 271333, Note_off_c, 0, 88, 70
1, 271337, Control_c, 0, 64, 72
1, 271344, Note_on_c, 0, 77, 39
1, 271349, Note_off_c, 0, 60, 66
1, 271351, Note_off_c, 0, 64, 67
1, 271352, Control_c, 0, 64, 104
1, 271366, Control_c, 0, 64, 127
1, 271370, Note_off_c, 0, 77, 56
1, 271403, Note_on_c, 0, 81, 62
1, 271409, Note_on_c, 0, 84, 53
1, 271410, Note_on_c, 0, 72, 55
1, 271419, Poly_aftertouch_c, 0, 62, 0
1, 271420, Note_off_c, 0, 81, 67
1, 271428, Note_off_c, 0, 84, 59
1, 271431, Note_off_c, 0, 72, 37
1, 271461, Note_on_c, 0, 60, 65
1, 271468, Note_on_c, 0, 64, 64
1, 271485, Note_on_c, 0, 74, 73
1, 271491, Note_off_c, 0, 60, 65
1, 271492, Note_on_c, 0, 83, 49
1, 271500, Note_off_c, 0, 64, 65
1, 271500, Note_off_c, 0, 74, 68
1, 271503, Note_on_c, 0, 86, 35
1, 271514, Note_off_c, 0, 83, 58
1, 271515, Control_c, 0, 64, 119
1, 271530, Control_c, 0, 64, 78
1, 271535, Note_off_c, 0, 86, 35
1, 271545, Control_c, 0, 64, 60
1, 271563, Note_on_c, 0, 76, 81
1, 271563, Note_on_c, 0, 88, 68
1, 271565, Note_on_c, 0, 84, 51
1, 271566, Control_c, 0, 64, 0
1, 271570, Note_on_c, 0, 60, 50
1, 271580, Note_on_c, 0, 64, 47
1, 271585, Note_off_c, 0, 84, 59
1, 271586, Note_off_c, 0, 76, 70
1, 271591, Note_off_c, 0, 60, 61
1, 271591, Note_off_c, 0, 88, 66
1, 271603, Note_off_c, 0, 64, 61
1, 271643, Note_on_c, 0, 86, 68
1, 271645, Note_on_c, 0, 89, 77
1, 271649, Note_on_c, 0, 77, 76
1, 271666, Note_off_c, 0, 77, 66
1, 271667, Note_off_c, 0, 86, 65
1, 271669, Note_off_c, 0, 89, 69
1, 271708, Note_on_c, 0, 64, 49
1, 271712, Note_on_c, 0, 59, 67
1, 271720, Note_on_c, 0, 62, 46
1, 271722, Note_on_c, 0, 91, 79
1, 271727, Note_on_c, 0, 79, 83
1, 271733, Note_on_c, 0, 88, 60
1, 271738, Note_off_c, 0, 64, 65
1, 271743, Note_off_c, 0, 62, 58
1, 271747, Note_off_c, 0, 79, 73
1, 271747, Note_off_c, 0, 91, 66
1, 271751, Note_off_c, 0, 88, 64
1, 271757, Note_off_c, 0, 59, 0
1, 271776, Note_on_c, 0, 89, 9
1, 271777, Note_off_c, 0, 89, 127
1, 271789, Control_c, 0, 64, 9
1, 271793, Poly_aftertouch_c, 0, 59, 0
1, 271804, Note_on_c, 0, 93, 82
1, 271804, Control_c, 0, 64, 58
1, 271809, Note_on_c, 0, 81, 78
1, 271816, Note_on_c, 0, 57, 19
1, 271819, Control_c, 0, 64, 76
1, 271825, Poly_aftertouch_c, 0, 89, 0
1, 271828, Note_off_c, 0, 93, 68
1, 271831, Note_off_c, 0, 81, 71
1, 271834, Control_c, 0, 64, 127
1, 271856, Note_off_c, 0, 57, 54
1, 271887, Note_on_c, 0, 95, 88
1, 271896, Note_on_c, 0, 83, 78
1, 271912, Note_off_c, 0, 95, 66
1, 271914, Poly_aftertouch_c, 0, 91, 0
1, 271917, Note_off_c, 0, 83, 71
1, 271978, Note_on_c, 0, 96, 87
1, 271984, Note_on_c, 0, 84, 75
1, 271998, Note_off_c, 0, 84, 70
1, 272000, Note_on_c, 0, 93, 39
1, 272001, Note_off_c, 0, 96, 68
1, 272029, Note_off_c, 0, 93, 37
1, 272054, Control_c, 0, 64, 88
1, 272068, Note_on_c, 0, 98, 88
1, 272069, Control_c, 0, 64, 64
1, 272075, Note_on_c, 0, 86, 72
1, 272084, Note_on_c, 0, 95, 55
1, 272084, Control_c, 0, 64, 0
1, 272088, Note_off_c, 0, 98, 72
1, 272090, Note_off_c, 0, 86, 68
1, 272105, Note_off_c, 0, 95, 39
1, 272156, Note_on_c, 0, 48, 49
1, 272162, Note_on_c, 0, 100, 64
1, 272171, Note_on_c, 0, 88, 55
1, 272177, Note_on_c, 0, 96, 43
1, 272179, Note_off_c, 0, 100, 63
1, 272188, Note_off_c, 0, 88, 63
1, 272199, Note_off_c, 0, 48, 60
1, 272203, Note_off_c, 0, 96, 57
1, 272231, Note_on_c, 0, 45, 54
1, 272240, Note_on_c, 0, 101, 73
1, 272247, Note_on_c, 0, 89, 72
1, 272261, Note_on_c, 0, 98, 52
1, 272266, Note_off_c, 0, 101, 65
1, 272273, Note_off_c, 0, 89, 68
1, 272283, Note_off_c, 0, 98, 59
1, 272319, Note_off_c, 0, 45, 58
1, 272341, Note_on_c, 0, 103, 76
1, 272345, Note_on_c, 0, 91, 71
1, 272349, Note_on_c, 0, 100, 55
1, 272355, Note_on_c, 0, 43, 49
1, 272355, Note_off_c, 0, 103, 68
1, 272364, Note_off_c, 0, 91, 64
1, 272370, Note_off_c, 0, 100, 53
1, 272373, Control_c, 0, 64, 43
1, 272388, Control_c, 0, 64, 63
1, 272403, Control_c, 0, 64, 73
1, 272418, Control_c, 0, 64, 87
1, 272433, Control_c, 0, 64, 100
1, 272463, Control_c, 0, 64, 93
1, 272478, Control_c, 0, 64, 85
1, 272480, Note_off_c, 0, 43, 53
1, 272493, Control_c, 0, 64, 77
1, 272507, Control_c, 0, 64, 72
1, 272510, Note_on_c, 0, 79, 63
1, 272511, Note_on_c, 0, 48, 43
1, 272519, Note_on_c, 0, 72, 51
1, 272522, Control_c, 0, 64, 69
1, 272527, Note_off_c, 0, 79, 65
1, 272537, Control_c, 0, 64, 65
1, 272540, Note_off_c, 0, 72, 59
1, 272552, Control_c, 0, 64, 59
1, 272557, Note_off_c, 0, 48, 59
1, 272567, Control_c, 0, 64, 48
1, 272577, Note_on_c, 0, 52, 55
1, 272582, Control_c, 0, 64, 38
1, 272596, Note_on_c, 0, 79, 55
1, 272597, Control_c, 0, 64, 25
1, 272600, Note_on_c, 0, 72, 51
1, 272603, Poly_aftertouch_c, 0, 76, 0
1, 272611, Control_c, 0, 64, 0
1, 272615, Note_off_c, 0, 79, 62
1, 272617, Note_off_c, 0, 52, 66
1, 272621, Note_off_c, 0, 72, 60
1, 272646, Note_on_c, 0, 55, 61
1, 272674, Note_off_c, 0, 55, 66
1, 272740, Note_on_c, 0, 60, 63
1, 272745, Note_on_c, 0, 72, 59
1, 272760, Note_on_c, 0, 76, 27
1, 272765, Note_off_c, 0, 72, 65
1, 272777, Note_off_c, 0, 60, 59
1, 272795, Note_on_c, 0, 79, 39
1, 272809, Note_off_c, 0, 76, 0
1, 272809, Note_on_c, 0, 76, 36
1, 272811, Note_on_c, 0, 64, 62
1, 272817, Note_on_c, 0, 72, 69
1, 272831, Note_off_c, 0, 79, 67
1, 272836, Note_off_c, 0, 76, 57
1, 272843, Note_off_c, 0, 64, 66
1, 272843, Note_off_c, 0, 72, 66
1, 272879, Note_on_c, 0, 67, 72
1, 272931, Note_off_c, 0, 67, 59
1, 272961, Note_on_c, 0, 66, 68
1, 272969, Note_on_c, 0, 76, 63
1, 272975, Note_on_c, 0, 72, 59
1, 272979, Note_on_c, 0, 81, 62
1, 272988, Note_off_c, 0, 76, 64
1, 272993, Note_off_c, 0, 72, 63
1, 272995, Note_off_c, 0, 66, 66
1, 272997, Note_off_c, 0, 81, 66
1, 273041, Note_on_c, 0, 65, 64
1, 273041, Note_on_c, 0, 81, 74
1, 273060, Note_on_c, 0, 72, 63
1, 273068, Note_on_c, 0, 76, 53
1, 273073, Note_off_c, 0, 81, 71
1, 273077, Note_off_c, 0, 72, 65
1, 273090, Note_off_c, 0, 65, 55
1, 273092, Note_off_c, 0, 76, 41
1, 273122, Note_on_c, 0, 64, 70
1, 273193, Note_off_c, 0, 64, 58
1, 273200, Note_on_c, 0, 76, 62
1, 273202, Note_on_c, 0, 72, 64
1, 273204, Note_on_c, 0, 83, 73
1, 273219, Note_on_c, 0, 62, 53
1, 273220, Note_off_c, 0, 76, 64
1, 273221, Note_off_c, 0, 72, 65
1, 273226, Note_off_c, 0, 83, 66
1, 273270, Note_on_c, 0, 83, 88
1, 273280, Note_on_c, 0, 72, 69
1, 273282, Note_off_c, 0, 62, 61
1, 273282, Note_on_c, 0, 60, 66
1, 273288, Note_off_c, 0, 83, 73
1, 273295, Note_on_c, 0, 76, 46
1, 273296, Note_off_c, 0, 76, 127
1, 273296, Note_off_c, 0, 72, 67
1, 273318, Note_off_c, 0, 60, 65
1, 273355, Note_on_c, 0, 71, 85
1, 273404, Note_off_c, 0, 71, 63
1, 273423, Note_on_c, 0, 76, 74
1, 273427, Note_on_c, 0, 72, 65
1, 273432, Note_on_c, 0, 84, 71
1, 273438, Note_on_c, 0, 69, 72
1, 273446, Note_off_c, 0, 84, 68
1, 273448, Note_off_c, 0, 76, 68
1, 273453, Note_off_c, 0, 72, 66
1, 273499, Note_on_c, 0, 76, 74
1, 273506, Note_on_c, 0, 72, 72
1, 273506, Note_on_c, 0, 84, 75
1, 273508, Note_off_c, 0, 69, 64
1, 273512, Note_on_c, 0, 68, 69
1, 273527, Note_off_c, 0, 84, 65
1, 273529, Note_off_c, 0, 72, 65
1, 273529, Note_off_c, 0, 76, 67
1, 273565, Note_off_c, 0, 68, 59
1, 273584, Note_on_c, 0, 67, 82
1, 273658, Note_on_c, 0, 76, 79
1, 273661, Note_on_c, 0, 84, 69
1, 273670, Note_off_c, 0, 67, 62
1, 273672, Note_on_c, 0, 65, 74
1, 273676, Note_on_c, 0, 72, 44
1, 273682, Note_off_c, 0, 76, 69
1, 273686, Note_off_c, 0, 84, 67
1, 273701, Note_off_c, 0, 72, 54
1, 273726, Note_on_c, 0, 64, 71
1, 273732, Note_off_c, 0, 65, 64
1, 273736, Note_on_c, 0, 72, 80
1, 273744, Note_on_c, 0, 84, 70
1, 273750, Note_off_c, 0, 64, 68
1, 273753, Note_on_c, 0, 76, 38
1, 273757, Note_off_c, 0, 72, 70
1, 273767, Note_off_c, 0, 84, 64
1, 273783, Note_off_c, 0, 76, 36
1, 273831, Note_on_c, 0, 77, 93
1, 273903, Note_on_c, 0, 79, 82
1, 273906, Note_on_c, 0, 84, 74
1, 273912, Note_on_c, 0, 76, 74
1, 273916, Note_off_c, 0, 77, 52
1, 273926, Note_off_c, 0, 79, 69
1, 273954, Note_off_c, 0, 84, 0
1, 273973, Note_on_c, 0, 77, 76
1, 273988, Note_off_c, 0, 76, 64
1, 273989, Poly_aftertouch_c, 0, 84, 0
1, 273990, Note_on_c, 0, 74, 72
1, 273999, Note_off_c, 0, 77, 69
1, 274040, Note_off_c, 0, 74, 59
1, 274060, Note_on_c, 0, 72, 82
1, 274134, Note_on_c, 0, 84, 81
1, 274138, Note_on_c, 0, 76, 71
1, 274139, Note_on_c, 0, 79, 65
1, 274140, Note_off_c, 0, 72, 63
1, 274141, Note_on_c, 0, 71, 79
1, 274156, Note_off_c, 0, 76, 68
1, 274156, Note_off_c, 0, 84, 71
1, 274156, Note_off_c, 0, 79, 66
1, 274207, Note_on_c, 0, 84, 62
1, 274217, Note_on_c, 0, 76, 63
1, 274221, Note_off_c, 0, 71, 60
1, 274224, Note_off_c, 0, 84, 64
1, 274236, Note_off_c, 0, 76, 64
1, 274242, Note_on_c, 0, 72, 66
1, 274287, Control_c, 0, 64, 24
1, 274291, Note_off_c, 0, 72, 64
1, 274296, Note_on_c, 0, 89, 82
1, 274302, Control_c, 0, 64, 46
1, 274305, Note_on_c, 0, 81, 70
1, 274309, Note_on_c, 0, 76, 65
1, 274317, Control_c, 0, 64, 58
1, 274331, Control_c, 0, 64, 64
1, 274346, Control_c, 0, 64, 67
1, 274361, Control_c, 0, 64, 73
1, 274362, Note_off_c, 0, 89, 58
1, 274365, Note_off_c, 0, 81, 64
1, 274375, Control_c, 0, 64, 83
1, 274382, Note_off_c, 0, 76, 63
1, 274389, Note_on_c, 0, 77, 73
1, 274390, Control_c, 0, 64, 100
1, 274398, Note_on_c, 0, 74, 65
1, 274405, Control_c, 0, 64, 127
1, 274418, Note_off_c, 0, 77, 67
1, 274470, Note_off_c, 0, 74, 61
1, 274475, Note_on_c, 0, 72, 68
1, 274480, Note_on_c, 0, 81, 68
1, 274504, Note_on_c, 0, 77, 42
1, 274513, Note_off_c, 0, 72, 64
1, 274516, Note_off_c, 0, 81, 64
1, 274525, Note_off_c, 0, 77, 56
1, 274557, Note_on_c, 0, 74, 56
1, 274570, Note_on_c, 0, 71, 66
1, 274588, Note_off_c, 0, 74, 64
1, 274628, Note_on_c, 0, 77, 61
1, 274628, Note_off_c, 0, 71, 54
1, 274645, Note_on_c, 0, 69, 68
1, 274652, Note_on_c, 0, 74, 61
1, 274686, Note_off_c, 0, 77, 59
1, 274687, Note_off_c, 0, 74, 65
1, 274722, Note_off_c, 0, 69, 61
1, 274724, Control_c, 0, 64, 110
1, 274728, Note_on_c, 0, 67, 65
1, 274729, Note_on_c, 0, 71, 52
1, 274738, Control_c, 0, 64, 101
1, 274747, Note_off_c, 0, 71, 64
1, 274753, Control_c, 0, 64, 94
1, 274768, Control_c, 0, 64, 88
1, 274782, Control_c, 0, 64, 82
1, 274797, Control_c, 0, 64, 74
1, 274803, Note_on_c, 0, 65, 73
1, 274805, Note_off_c, 0, 67, 59
1, 274813, Control_c, 0, 64, 67
1, 274828, Control_c, 0, 64, 62
1, 274843, Control_c, 0, 64, 57
1, 274858, Control_c, 0, 64, 54
1, 274867, Note_off_c, 0, 65, 60
1, 274873, Control_c, 0, 64, 48
1, 274877, Note_on_c, 0, 71, 63
1, 274880, Note_on_c, 0, 69, 72
1, 274887, Control_c, 0, 64, 18
1, 274892, Note_on_c, 0, 67, 69
1, 274902, Control_c, 0, 64, 0
1, 274903, Note_off_c, 0, 71, 66
1, 274905, Note_off_c, 0, 69, 70
1, 274951, Note_off_c, 0, 67, 53
1, 274953, Note_on_c, 0, 71, 81
1, 274962, Note_on_c, 0, 65, 78
1, 274966, Note_on_c, 0, 69, 67
1, 274973, Note_off_c, 0, 71, 69
1, 274991, Note_off_c, 0, 69, 64
1, 275041, Note_on_c, 0, 64, 75
1, 275042, Note_off_c, 0, 65, 62
1, 275103, Note_off_c, 0, 64, 63
1, 275125, Note_on_c, 0, 72, 76
1, 275126, Note_on_c, 0, 65, 73
1, 275126, Note_on_c, 0, 69, 62
1, 275129, Note_on_c, 0, 67, 72
1, 275147, Note_off_c, 0, 72, 71
1, 275149, Note_off_c, 0, 69, 64
1, 275154, Note_off_c, 0, 67, 69
1, 275193, Note_off_c, 0, 65, 59
1, 275193, Note_on_c, 0, 72, 72
1, 275195, Note_on_c, 0, 64, 81
1, 275214, Note_on_c, 0, 69, 57
1, 275217, Note_on_c, 0, 67, 36
1, 275218, Note_off_c, 0, 72, 69
1, 275235, Note_off_c, 0, 69, 61
1, 275247, Note_off_c, 0, 67, 34
1, 275272, Note_on_c, 0, 62, 74
1, 275272, Note_off_c, 0, 64, 62
1, 275287, Control_c, 0, 64, 25
1, 275310, Control_c, 0, 64, 56
1, 275324, Control_c, 0, 64, 69
1, 275339, Control_c, 0, 64, 84
1, 275341, Note_on_c, 0, 69, 60
1, 275348, Note_off_c, 0, 62, 62
1, 275354, Control_c, 0, 64, 127
1, 275355, Note_on_c, 0, 74, 62
1, 275359, Note_on_c, 0, 64, 72
1, 275360, Note_on_c, 0, 65, 55
1, 275377, Note_off_c, 0, 69, 59
1, 275410, Note_on_c, 0, 62, 74
1, 275411, Note_off_c, 0, 64, 62
1, 275426, Note_off_c, 0, 74, 61
1, 275438, Note_off_c, 0, 62, 66
1, 275463, Note_off_c, 0, 65, 57
1, 275547, Control_c, 0, 64, 104
1, 275560, Note_on_c, 0, 47, 66
1, 275562, Control_c, 0, 64, 92
1, 275573, Note_on_c, 0, 41, 53
1, 275575, Note_on_c, 0, 60, 65
1, 275577, Control_c, 0, 64, 82
1, 275591, Note_off_c, 0, 47, 64
1, 275592, Control_c, 0, 64, 73
1, 275593, Note_on_c, 0, 45, 27
1, 275608, Control_c, 0, 64, 67
1, 275608, Note_off_c, 0, 41, 60
1, 275622, Control_c, 0, 64, 62
1, 275631, Note_off_c, 0, 45, 40
1, 275637, Control_c, 0, 64, 55
1, 275649, Note_on_c, 0, 59, 78
1, 275652, Control_c, 0, 64, 49
1, 275664, Note_off_c, 0, 60, 62
1, 275667, Control_c, 0, 64, 39
1, 275682, Control_c, 0, 64, 15
1, 275689, Note_on_c, 0, 41, 64
1, 275697, Control_c, 0, 64, 0
1, 275697, Note_on_c, 0, 48, 63
1, 275713, Note_on_c, 0, 45, 56
1, 275725, Note_on_c, 0, 57, 85
1, 275727, Note_off_c, 0, 41, 61
1, 275729, Note_off_c, 0, 48, 65
1, 275729, Note_off_c, 0, 59, 65
1, 275743, Note_off_c, 0, 45, 63
1, 275784, Note_off_c, 0, 57, 65
1, 275799, Note_on_c, 0, 50, 85
1, 275804, Note_on_c, 0, 55, 86
1, 275804, Note_on_c, 0, 41, 73
1, 275807, Note_on_c, 0, 45, 80
1, 275854, Note_off_c, 0, 55, 63
1, 275859, Control_c, 0, 64, 24
1, 275874, Control_c, 0, 64, 53
1, 275888, Note_on_c, 0, 47, 86
1, 275889, Control_c, 0, 64, 65
1, 275903, Control_c, 0, 64, 73
1, 275915, Note_off_c, 0, 50, 62
1, 275918, Control_c, 0, 64, 85
1, 275933, Control_c, 0, 64, 111
1, 275947, Control_c, 0, 64, 127
1, 275957, Note_off_c, 0, 47, 44
1, 275959, Note_on_c, 0, 50, 73
1, 275962, Note_on_c, 0, 48, 81
1, 275962, Note_off_c, 0, 41, 58
1, 275992, Note_off_c, 0, 48, 64
1, 276007, Control_c, 0, 67, 121
1, 276013, Note_off_c, 0, 50, 63
1, 276022, Control_c, 0, 67, 106
1, 276037, Control_c, 0, 67, 88
1, 276059, Control_c, 0, 67, 73
1, 276061, Note_on_c, 0, 43, 89
1, 276074, Control_c, 0, 67, 60
1, 276088, Note_off_c, 0, 45, 62
1, 276089, Control_c, 0, 64, 108
1, 276089, Control_c, 0, 67, 49
1, 276103, Control_c, 0, 64, 80
1, 276103, Control_c, 0, 67, 35
1, 276118, Control_c, 0, 64, 66
1, 276118, Control_c, 0, 67, 19
1, 276133, Control_c, 0, 64, 51
1, 276133, Control_c, 0, 67, 0
1, 276148, Control_c, 0, 64, 39
1, 276153, Note_on_c, 0, 47, 86
1, 276163, Control_c, 0, 64, 46
1, 276177, Control_c, 0, 64, 51
1, 276192, Control_c, 0, 64, 58
1, 276207, Control_c, 0, 64, 65
1, 276222, Control_c, 0, 64, 74
1, 276231, Note_on_c, 0, 62, 94
1, 276235, Note_on_c, 0, 53, 87
1, 276237, Control_c, 0, 64, 97
1, 276240, Note_on_c, 0, 58, 81
1, 276251, Note_on_c, 0, 40, 82
1, 276251, Control_c, 0, 64, 127
1, 276257, Note_off_c, 0, 47, 62
1, 276260, Note_off_c, 0, 43, 60
1, 276278, Note_off_c, 0, 53, 59
1, 276290, Note_off_c, 0, 58, 44
1, 276299, Note_off_c, 0, 62, 58
1, 276402, Note_on_c, 0, 41, 72
1, 276415, Control_c, 0, 64, 75
1, 276424, Note_off_c, 0, 40, 59
1, 276430, Control_c, 0, 64, 41
1, 276437, Note_on_c, 0, 62, 100
1, 276443, Note_on_c, 0, 53, 89
1, 276445, Control_c, 0, 64, 0
1, 276448, Note_on_c, 0, 58, 80
1, 276520, Control_c, 0, 64, 41
1, 276534, Control_c, 0, 64, 63
1, 276543, Note_off_c, 0, 53, 61
1, 276549, Control_c, 0, 64, 72
1, 276564, Control_c, 0, 64, 95
1, 276574, Note_off_c, 0, 58, 56
1, 276579, Control_c, 0, 64, 127
1, 276591, Note_off_c, 0, 62, 62
1, 276597, Note_on_c, 0, 46, 62
1, 276645, Note_off_c, 0, 41, 63
1, 276676, Note_off_c, 0, 46, 62
1, 276682, Note_on_c, 0, 50, 64
1, 276731, Note_off_c, 0, 50, 60
1, 276825, Note_on_c, 0, 74, 72
1, 276841, Note_on_c, 0, 65, 53
1, 276846, Note_on_c, 0, 53, 54
1, 276848, Note_on_c, 0, 70, 50
1, 276876, Note_off_c, 0, 65, 61
1, 276937, Note_on_c, 0, 58, 66
1, 276967, Note_off_c, 0, 53, 58
1, 276968, Note_on_c, 0, 67, 77
1, 276979, Note_off_c, 0, 70, 60
1, 277011, Note_off_c, 0, 58, 62
1, 277021, Note_on_c, 0, 62, 73
1, 277082, Note_off_c, 0, 62, 60
1, 277095, Note_on_c, 0, 69, 88
1, 277107, Note_off_c, 0, 74, 61
1, 277112, Note_on_c, 0, 65, 79
1, 277119, Note_off_c, 0, 67, 62
1, 277172, Note_off_c, 0, 65, 60
1, 277190, Note_on_c, 0, 67, 79
1, 277252, Note_off_c, 0, 69, 56
1, 277259, Note_on_c, 0, 65, 86
1, 277261, Note_off_c, 0, 67, 62
1, 277336, Note_on_c, 0, 75, 93
1, 277342, Note_on_c, 0, 63, 72
1, 277345, Note_on_c, 0, 70, 78
1, 277345, Note_off_c, 0, 65, 60
1, 277353, Note_on_c, 0, 67, 78
1, 277401, Control_c, 0, 64, 87
1, 277413, Note_off_c, 0, 63, 62
1, 277416, Control_c, 0, 64, 72
1, 277431, Control_c, 0, 64, 64
1, 277432, Note_on_c, 0, 65, 70
1, 277446, Control_c, 0, 64, 62
1, 277461, Control_c, 0, 64, 65
1, 277475, Control_c, 0, 64, 67
1, 277490, Control_c, 0, 64, 74
1, 277505, Control_c, 0, 64, 89
1, 277520, Control_c, 0, 64, 127
1, 277524, Note_off_c, 0, 65, 63
1, 277530, Note_on_c, 0, 63, 72
1, 277536, Note_on_c, 0, 72, 79
1, 277557, Note_off_c, 0, 67, 61
1, 277561, Note_off_c, 0, 75, 60
1, 277562, Note_off_c, 0, 70, 60
1, 277587, Control_c, 0, 64, 111
1, 277601, Control_c, 0, 64, 78
1, 277616, Control_c, 0, 64, 61
1, 277631, Control_c, 0, 64, 34
1, 277641, Note_off_c, 0, 63, 62
1, 277646, Control_c, 0, 64, 45
1, 277650, Note_off_c, 0, 72, 63
1, 277661, Control_c, 0, 64, 56
1, 277663, Note_on_c, 0, 70, 71
1, 277664, Note_on_c, 0, 77, 77
1, 277666, Note_on_c, 0, 62, 60
1, 277675, Control_c, 0, 64, 62
1, 277676, Note_on_c, 0, 65, 58
1, 277690, Control_c, 0, 64, 70
1, 277705, Control_c, 0, 64, 88
1, 277720, Control_c, 0, 64, 127
1, 277722, Note_off_c, 0, 70, 54
1, 277757, Note_off_c, 0, 62, 62
1, 277763, Note_on_c, 0, 60, 67
1, 277769, Note_on_c, 0, 75, 72
1, 277784, Note_off_c, 0, 65, 60
1, 277790, Note_off_c, 0, 77, 58
1, 277825, Note_off_c, 0, 60, 64
1, 277825, Note_off_c, 0, 75, 61
1, 277837, Note_on_c, 0, 58, 60
1, 277842, Note_on_c, 0, 74, 77
1, 277867, Note_off_c, 0, 58, 65
1, 277867, Note_off_c, 0, 74, 68
1, 277924, Note_on_c, 0, 58, 81
1, 277929, Note_on_c, 0, 74, 79
1, 277995, Note_on_c, 0, 57, 80
1, 277997, Note_on_c, 0, 72, 85
1, 278004, Note_off_c, 0, 58, 61
1, 278022, Note_off_c, 0, 74, 59
1, 278067, Note_on_c, 0, 55, 82
1, 278073, Note_on_c, 0, 70, 90
1, 278075, Note_off_c, 0, 72, 66
1, 278090, Note_off_c, 0, 57, 61
1, 278121, Control_c, 0, 64, 94
1, 278136, Control_c, 0, 64, 75
1, 278144, Note_on_c, 0, 60, 90
1, 278148, Note_off_c, 0, 70, 43
1, 278151, Control_c, 0, 64, 66
1, 278153, Note_on_c, 0, 77, 98
1, 278158, Note_on_c, 0, 67, 85
1, 278166, Note_off_c, 0, 55, 62
1, 278166, Control_c, 0, 64, 68
1, 278168, Note_on_c, 0, 65, 82
1, 278177, Note_on_c, 0, 75, 57
1, 278180, Control_c, 0, 64, 77
1, 278192, Note_off_c, 0, 65, 61
1, 278195, Control_c, 0, 64, 104
1, 278199, Note_off_c, 0, 67, 64
1, 278210, Control_c, 0, 64, 127
1, 278221, Note_on_c, 0, 58, 85
1, 278235, Note_off_c, 0, 60, 63
1, 278237, Note_on_c, 0, 74, 82
1, 278257, Note_off_c, 0, 77, 62
1, 278259, Note_on_c, 0, 76, 41
1, 278273, Note_off_c, 0, 75, 63
1, 278284, Note_off_c, 0, 76, 59
1, 278302, Note_on_c, 0, 57, 80
1, 278325, Note_on_c, 0, 72, 91
1, 278333, Note_off_c, 0, 58, 61
1, 278335, Note_off_c, 0, 74, 62
1, 278351, Control_c, 0, 64, 86
1, 278366, Control_c, 0, 64, 65
1, 278380, Control_c, 0, 64, 48
1, 278381, Note_on_c, 0, 62, 93
1, 278381, Note_off_c, 0, 57, 61
1, 278390, Note_on_c, 0, 77, 99
1, 278395, Control_c, 0, 64, 60
1, 278397, Note_off_c, 0, 72, 65
1, 278410, Control_c, 0, 64, 72
1, 278425, Control_c, 0, 64, 127
1, 278454, Note_on_c, 0, 75, 86
1, 278457, Note_on_c, 0, 60, 83
1, 278473, Note_off_c, 0, 62, 61
1, 278485, Note_off_c, 0, 77, 67
1, 278493, Note_on_c, 0, 58, 86
1, 278503, Note_off_c, 0, 60, 67
1, 278506, Note_on_c, 0, 74, 70
1, 278514, Note_off_c, 0, 58, 72
1, 278523, Note_off_c, 0, 75, 64
1, 278532, Note_off_c, 0, 74, 68
1, 278581, Note_on_c, 0, 76, 95
1, 278586, Note_on_c, 0, 68, 100
1, 278587, Note_on_c, 0, 80, 97
1, 278643, Note_off_c, 0, 68, 63
1, 278648, Note_off_c, 0, 80, 64
1, 278651, Note_off_c, 0, 76, 62
1, 278691, Control_c, 0, 64, 111
1, 278700, Note_on_c, 0, 40, 95
1, 278705, Control_c, 0, 64, 63
1, 278714, Note_on_c, 0, 68, 105
1, 278717, Note_on_c, 0, 80, 99
1, 278720, Control_c, 0, 64, 0
1, 278725, Note_on_c, 0, 71, 84
1, 278727, Note_on_c, 0, 76, 83
1, 278795, Control_c, 0, 64, 33
1, 278810, Control_c, 0, 64, 64
1, 278823, Note_off_c, 0, 40, 63
1, 278825, Control_c, 0, 64, 90
1, 278840, Control_c, 0, 64, 127
1, 278869, Note_off_c, 0, 80, 63
1, 278892, Note_off_c, 0, 68, 55
1, 278894, Note_off_c, 0, 76, 61
1, 278902, Note_off_c, 0, 71, 61
1, 278970, Note_on_c, 0, 47, 72
1, 279042, Note_off_c, 0, 47, 63
1, 279043, Note_on_c, 0, 52, 80
1, 279109, Note_on_c, 0, 56, 92
1, 279141, Note_off_c, 0, 52, 65
1, 279188, Note_on_c, 0, 59, 85
1, 279200, Note_off_c, 0, 56, 63
1, 279232, Note_off_c, 0, 59, 66
1, 279247, Note_on_c, 0, 69, 104
1, 279249, Note_on_c, 0, 62, 101
1, 279253, Note_on_c, 0, 66, 95
1, 279344, Note_off_c, 0, 66, 62
1, 279351, Note_on_c, 0, 61, 85
1, 279356, Note_off_c, 0, 62, 61
1, 279367, Note_off_c, 0, 69, 58
1, 279401, Note_off_c, 0, 61, 63
1, 279426, Note_on_c, 0, 59, 86
1, 279492, Note_on_c, 0, 61, 104
1, 279492, Note_on_c, 0, 71, 99
1, 279496, Note_on_c, 0, 65, 75
1, 279499, Control_c, 0, 64, 79
1, 279501, Note_on_c, 0, 67, 78
1, 279506, Note_on_c, 0, 57, 87
1, 279510, Note_off_c, 0, 59, 61
1, 279514, Control_c, 0, 64, 66
1, 279528, Control_c, 0, 64, 70
1, 279543, Control_c, 0, 64, 98
1, 279554, Note_off_c, 0, 61, 60
1, 279554, Note_off_c, 0, 65, 60
1, 279558, Note_off_c, 0, 71, 64
1, 279558, Control_c, 0, 64, 127
1, 279564, Note_off_c, 0, 67, 61
1, 279577, Note_on_c, 0, 55, 77
1, 279613, Note_off_c, 0, 57, 62
1, 279649, Note_on_c, 0, 53, 76
1, 279674, Note_on_c, 0, 64, 83
1, 279675, Note_on_c, 0, 60, 87
1, 279678, Note_on_c, 0, 68, 80
1, 279679, Note_on_c, 0, 72, 86
1, 279691, Note_off_c, 0, 55, 62
1, 279691, Note_off_c, 0, 72, 73
1, 279692, Control_c, 0, 64, 92
1, 279694, Note_off_c, 0, 60, 72
1, 279694, Note_off_c, 0, 64, 72
1, 279700, Note_off_c, 0, 68, 69
1, 279705, Note_on_c, 0, 52, 78
1, 279707, Control_c, 0, 64, 60
1, 279722, Control_c, 0, 64, 0
1, 279736, Note_on_c, 0, 72, 97
1, 279737, Control_c, 0, 64, 31
1, 279739, Note_on_c, 0, 60, 90
1, 279741, Note_on_c, 0, 68, 75
1, 279745, Note_off_c, 0, 53, 63
1, 279749, Note_on_c, 0, 64, 88
1, 279751, Control_c, 0, 64, 61
1, 279766, Control_c, 0, 64, 80
1, 279779, Note_off_c, 0, 52, 58
1, 279781, Control_c, 0, 64, 127
1, 279788, Note_off_c, 0, 72, 65
1, 279802, Note_off_c, 0, 68, 60
1, 279806, Note_on_c, 0, 53, 72
1, 279814, Note_off_c, 0, 64, 56
1, 279820, Note_off_c, 0, 60, 66
1, 279876, Note_off_c, 0, 53, 64
1, 279876, Note_on_c, 0, 52, 78
1, 279898, Note_off_c, 0, 52, 71
1, 279981, Note_on_c, 0, 45, 90
1, 279990, Note_on_c, 0, 38, 71
1, 279995, Control_c, 0, 64, 119
1, 280004, Note_off_c, 0, 45, 69
1, 280010, Control_c, 0, 64, 69
1, 280019, Note_off_c, 0, 38, 65
1, 280025, Control_c, 0, 64, 0
1, 280061, Note_on_c, 0, 56, 79
1, 280099, Note_on_c, 0, 47, 86
1, 280106, Note_on_c, 0, 44, 76
1, 280107, Note_on_c, 0, 36, 70
1, 280108, Note_on_c, 0, 40, 69
1, 280120, Note_off_c, 0, 47, 68
1, 280127, Note_on_c, 0, 60, 86
1, 280136, Note_off_c, 0, 36, 64
1, 280136, Note_off_c, 0, 56, 63
1, 280137, Note_off_c, 0, 40, 64
1, 280137, Note_off_c, 0, 44, 64
1, 280205, Note_on_c, 0, 48, 101
1, 280210, Note_on_c, 0, 40, 77
1, 280211, Note_on_c, 0, 36, 75
1, 280211, Note_on_c, 0, 44, 82
1, 280218, Note_on_c, 0, 52, 81
1, 280220, Note_off_c, 0, 60, 64
1, 280221, Note_on_c, 0, 53, 77
1, 280247, Note_off_c, 0, 44, 63
1, 280247, Note_off_c, 0, 48, 64
1, 280248, Control_c, 0, 64, 66
1, 280250, Note_off_c, 0, 53, 68
1, 280255, Note_on_c, 0, 38, 24
1, 280256, Note_off_c, 0, 38, 127
1, 280262, Control_c, 0, 64, 100
1, 280265, Note_off_c, 0, 36, 61
1, 280269, Note_off_c, 0, 40, 60
1, 280277, Control_c, 0, 64, 127
1, 280293, Note_on_c, 0, 56, 87
1, 280296, Note_off_c, 0, 52, 67
1, 280298, Poly_aftertouch_c, 0, 38, 0
1, 280351, Control_c, 0, 64, 121
1, 280366, Control_c, 0, 64, 82
1, 280374, Note_off_c, 0, 56, 63
1, 280381, Note_on_c, 0, 48, 86
1, 280381, Control_c, 0, 64, 62
1, 280397, Control_c, 0, 64, 0
1, 280436, Note_off_c, 0, 48, 65
1, 280468, Note_on_c, 0, 35, 98
1, 280472, Note_on_c, 0, 52, 87
1, 280500, Control_c, 0, 64, 63
1, 280509, Note_off_c, 0, 35, 60
1, 280515, Control_c, 0, 64, 93
1, 280530, Control_c, 0, 64, 127
1, 280577, Note_on_c, 0, 44, 85
1, 280583, Note_off_c, 0, 52, 67
1, 280600, Note_on_c, 0, 46, 28
1, 280637, Note_off_c, 0, 46, 51
1, 280680, Note_off_c, 0, 44, 61
1, 280687, Note_on_c, 0, 48, 74
1, 280715, Control_c, 0, 64, 104
1, 280730, Control_c, 0, 64, 91
1, 280741, Note_off_c, 0, 48, 62
1, 280745, Control_c, 0, 64, 82
1, 280760, Control_c, 0, 64, 75
1, 280774, Control_c, 0, 64, 71
1, 280789, Control_c, 0, 64, 68
1, 280804, Control_c, 0, 64, 66
1, 280818, Control_c, 0, 64, 64
1, 280833, Control_c, 0, 64, 61
1, 280848, Control_c, 0, 64, 58
1, 280863, Control_c, 0, 64, 56
1, 280878, Control_c, 0, 64, 53
1, 280893, Control_c, 0, 64, 50
1, 280908, Control_c, 0, 64, 47
1, 280923, Control_c, 0, 64, 43
1, 280937, Control_c, 0, 64, 36
1, 280952, Control_c, 0, 64, 29
1, 280967, Control_c, 0, 64, 20
1, 280982, Control_c, 0, 64, 9
1, 280997, Control_c, 0, 64, 0
1, 281024, Note_on_c, 0, 48, 42
1, 281028, Note_on_c, 0, 43, 40
1, 281030, Note_on_c, 0, 45, 34
1, 281051, Note_off_c, 0, 48, 57
1, 281066, Note_off_c, 0, 45, 43
1, 281069, Note_off_c, 0, 43, 62
1, 281211, Note_on_c, 0, 33, 35
1, 281247, Note_off_c, 0, 33, 47
1, 281370, Note_on_c, 0, 42, 47
1, 281373, Note_on_c, 0, 48, 43
1, 281376, Note_on_c, 0, 45, 38
1, 281402, Note_off_c, 0, 48, 51
1, 281407, Note_off_c, 0, 42, 62
1, 281409, Note_off_c, 0, 45, 47
1, 281491, Note_on_c, 0, 33, 34
1, 281492, Note_on_c, 0, 47, 46
1, 281492, Note_on_c, 0, 50, 46
1, 281519, Note_off_c, 0, 50, 59
1, 281519, Note_off_c, 0, 47, 54
1, 281529, Note_off_c, 0, 33, 47
1, 281614, Note_on_c, 0, 48, 62
1, 281615, Note_on_c, 0, 52, 59
1, 281617, Note_on_c, 0, 41, 49
1, 281635, Note_off_c, 0, 48, 60
1, 281637, Note_off_c, 0, 52, 64
1, 281650, Note_off_c, 0, 41, 60
1, 281729, Note_on_c, 0, 33, 40
1, 281765, Note_off_c, 0, 33, 54
1, 281849, Note_on_c, 0, 52, 62
1, 281850, Note_on_c, 0, 48, 61
1, 281856, Note_on_c, 0, 40, 54
1, 281872, Note_off_c, 0, 48, 61
1, 281875, Note_off_c, 0, 52, 65
1, 281890, Note_off_c, 0, 40, 63
1, 281963, Note_on_c, 0, 33, 48
1, 281999, Note_off_c, 0, 33, 61
1, 282084, Note_on_c, 0, 45, 56
1, 282089, Note_on_c, 0, 50, 60
1, 282091, Note_on_c, 0, 47, 59
1, 282112, Note_off_c, 0, 50, 59
1, 282115, Note_off_c, 0, 47, 60
1, 282119, Note_off_c, 0, 45, 63
1, 282192, Note_on_c, 0, 33, 51
1, 282232, Note_off_c, 0, 33, 61
1, 282312, Note_on_c, 0, 50, 55
1, 282321, Note_on_c, 0, 47, 46
1, 282324, Note_on_c, 0, 43, 46
1, 282338, Note_off_c, 0, 50, 57
1, 282352, Note_off_c, 0, 47, 34
1, 282353, Note_off_c, 0, 43, 57
1, 282418, Note_on_c, 0, 52, 55
1, 282420, Note_on_c, 0, 48, 53
1, 282426, Note_on_c, 0, 33, 36
1, 282443, Note_off_c, 0, 52, 64
1, 282445, Note_off_c, 0, 48, 59
1, 282467, Note_off_c, 0, 33, 47
1, 282518, Note_on_c, 0, 42, 66
1, 282521, Note_on_c, 0, 53, 70
1, 282527, Note_on_c, 0, 50, 63
1, 282550, Note_off_c, 0, 50, 60
1, 282550, Note_off_c, 0, 53, 66
1, 282563, Note_off_c, 0, 42, 60
1, 282619, Note_on_c, 0, 33, 53
1, 282661, Note_off_c, 0, 33, 60
1, 282743, Note_on_c, 0, 50, 64
1, 282743, Note_on_c, 0, 53, 62
1, 282750, Note_on_c, 0, 41, 57
1, 282765, Note_off_c, 0, 50, 61
1, 282766, Note_off_c, 0, 53, 63
1, 282792, Note_off_c, 0, 41, 65
1, 282860, Note_on_c, 0, 33, 50
1, 282892, Note_off_c, 0, 33, 58
1, 282978, Note_on_c, 0, 54, 61
1, 282985, Note_on_c, 0, 50, 58
1, 282986, Note_on_c, 0, 42, 58
1, 283009, Note_off_c, 0, 50, 59
1, 283010, Note_off_c, 0, 54, 66
1, 283021, Note_off_c, 0, 42, 65
1, 283085, Note_on_c, 0, 33, 47
1, 283121, Note_off_c, 0, 33, 54
1, 283188, Note_on_c, 0, 51, 65
1, 283192, Note_on_c, 0, 55, 56
1, 283194, Note_on_c, 0, 42, 61
1, 283214, Note_off_c, 0, 55, 60
1, 283218, Note_off_c, 0, 51, 66
1, 283227, Note_off_c, 0, 42, 63
1, 283281, Note_on_c, 0, 33, 57
1, 283283, Note_on_c, 0, 56, 73
1, 283286, Note_on_c, 0, 52, 71
1, 283313, Note_off_c, 0, 56, 66
1, 283313, Note_off_c, 0, 52, 66
1, 283322, Note_off_c, 0, 33, 62
1, 283385, Note_on_c, 0, 53, 82
1, 283388, Note_on_c, 0, 57, 82
1, 283394, Note_on_c, 0, 43, 59
1, 283409, Note_off_c, 0, 53, 67
1, 283413, Note_off_c, 0, 57, 70
1, 283427, Note_off_c, 0, 43, 62
1, 283491, Note_on_c, 0, 33, 63
1, 283530, Note_off_c, 0, 33, 63
1, 283601, Note_on_c, 0, 58, 73
1, 283613, Note_on_c, 0, 54, 53
1, 283618, Note_on_c, 0, 43, 57
1, 283629, Note_off_c, 0, 58, 66
1, 283638, Note_off_c, 0, 54, 59
1, 283651, Note_off_c, 0, 43, 64
1, 283702, Note_on_c, 0, 55, 68
1, 283705, Note_on_c, 0, 33, 52
1, 283707, Note_on_c, 0, 59, 54
1, 283731, Note_off_c, 0, 59, 58
1, 283731, Note_off_c, 0, 55, 64
1, 283742, Note_off_c, 0, 33, 62
1, 283802, Note_on_c, 0, 56, 69
1, 283802, Note_on_c, 0, 44, 56
1, 283802, Note_on_c, 0, 60, 67
1, 283826, Note_off_c, 0, 60, 64
1, 283833, Note_off_c, 0, 56, 65
1, 283841, Note_off_c, 0, 44, 64
1, 283895, Note_on_c, 0, 32, 57
1, 283932, Note_off_c, 0, 32, 62
1, 284008, Note_on_c, 0, 61, 73
1, 284010, Note_on_c, 0, 43, 65
1, 284011, Note_on_c, 0, 51, 69
1, 284031, Note_off_c, 0, 51, 63
1, 284035, Note_off_c, 0, 61, 67
1, 284041, Note_off_c, 0, 43, 64
1, 284109, Note_on_c, 0, 32, 64
1, 284140, Note_off_c, 0, 32, 63
1, 284213, Note_on_c, 0, 42, 79
1, 284220, Note_on_c, 0, 60, 72
1, 284222, Note_on_c, 0, 57, 73
1, 284245, Note_off_c, 0, 60, 69
1, 284247, Note_off_c, 0, 42, 66
1, 284251, Note_off_c, 0, 57, 65
1, 284318, Note_on_c, 0, 32, 71
1, 284351, Note_off_c, 0, 32, 65
1, 284436, Note_on_c, 0, 41, 72
1, 284441, Note_on_c, 0, 59, 72
1, 284443, Note_on_c, 0, 63, 74
1, 284467, Note_off_c, 0, 41, 64
1, 284467, Note_off_c, 0, 59, 68
1, 284469, Note_off_c, 0, 63, 68
1, 284538, Note_on_c, 0, 32, 68
1, 284574, Note_off_c, 0, 32, 64
1, 284654, Note_on_c, 0, 57, 73
1, 284657, Note_on_c, 0, 60, 69
1, 284660, Note_on_c, 0, 40, 56
1, 284680, Note_off_c, 0, 57, 67
1, 284680, Note_off_c, 0, 60, 64
1, 284692, Note_off_c, 0, 40, 64
1, 284753, Note_on_c, 0, 33, 64
1, 284784, Note_off_c, 0, 33, 62
1, 284872, Note_on_c, 0, 40, 59
1, 284879, Note_on_c, 0, 60, 66
1, 284880, Note_on_c, 0, 55, 68
1, 284887, Note_on_c, 0, 57, 50
1, 284898, Note_off_c, 0, 60, 65
1, 284904, Note_off_c, 0, 40, 64
1, 284912, Note_off_c, 0, 55, 66
1, 284912, Note_off_c, 0, 57, 58
1, 284959, Note_on_c, 0, 33, 61
1, 284963, Note_on_c, 0, 59, 72
1, 284965, Note_on_c, 0, 53, 66
1, 284968, Note_on_c, 0, 62, 57
1, 284988, Note_off_c, 0, 33, 63
1, 284991, Note_off_c, 0, 59, 66
1, 284991, Note_off_c, 0, 62, 63
1, 284994, Note_off_c, 0, 53, 63
1, 285066, Note_on_c, 0, 52, 86
1, 285068, Note_on_c, 0, 64, 80
1, 285076, Note_on_c, 0, 60, 57
1, 285077, Note_on_c, 0, 40, 65
1, 285090, Note_off_c, 0, 52, 70
1, 285098, Note_off_c, 0, 60, 61
1, 285098, Note_off_c, 0, 64, 63
1, 285105, Note_off_c, 0, 40, 65
1, 285167, Note_on_c, 0, 33, 67
1, 285202, Note_off_c, 0, 33, 63
1, 285277, Note_on_c, 0, 52, 80
1, 285280, Note_on_c, 0, 64, 75
1, 285287, Note_on_c, 0, 40, 67
1, 285290, Note_on_c, 0, 60, 55
1, 285299, Note_off_c, 0, 52, 69
1, 285304, Note_off_c, 0, 64, 70
1, 285310, Note_off_c, 0, 60, 60
1, 285314, Note_off_c, 0, 40, 66
1, 285379, Note_on_c, 0, 33, 71
1, 285414, Note_off_c, 0, 33, 65
1, 285486, Note_on_c, 0, 41, 78
1, 285489, Note_on_c, 0, 62, 82
1, 285490, Note_on_c, 0, 59, 80
1, 285512, Note_off_c, 0, 62, 70
1, 285513, Note_off_c, 0, 59, 69
1, 285522, Note_off_c, 0, 41, 66
1, 285585, Note_on_c, 0, 33, 73
1, 285624, Note_off_c, 0, 33, 64
1, 285694, Note_on_c, 0, 41, 78
1, 285706, Note_on_c, 0, 62, 73
1, 285707, Note_on_c, 0, 57, 81
1, 285709, Note_on_c, 0, 59, 65
1, 285728, Note_off_c, 0, 59, 64
1, 285728, Note_off_c, 0, 41, 65
1, 285730, Note_off_c, 0, 62, 68
1, 285731, Note_off_c, 0, 57, 70
1, 285798, Note_on_c, 0, 33, 74
1, 285802, Note_on_c, 0, 55, 83
1, 285805, Note_on_c, 0, 64, 76
1, 285807, Note_on_c, 0, 60, 73
1, 285825, Note_off_c, 0, 55, 68
1, 285829, Note_off_c, 0, 64, 70
1, 285831, Note_off_c, 0, 60, 68
1, 285832, Note_off_c, 0, 33, 66
1, 285903, Note_on_c, 0, 41, 79
1, 285903, Note_on_c, 0, 53, 86
1, 285904, Note_on_c, 0, 65, 86
1, 285912, Note_on_c, 0, 62, 66
1, 285925, Note_off_c, 0, 53, 70
1, 285934, Note_off_c, 0, 65, 58
1, 285936, Note_off_c, 0, 41, 67
1, 285941, Note_off_c, 0, 62, 67
1, 285993, Note_on_c, 0, 33, 74
1, 286038, Note_off_c, 0, 33, 60
1, 286104, Note_on_c, 0, 41, 76
1, 286104, Note_on_c, 0, 53, 77
1, 286105, Note_on_c, 0, 65, 76
1, 286116, Note_on_c, 0, 62, 53
1, 286130, Note_off_c, 0, 53, 67
1, 286139, Note_off_c, 0, 41, 66
1, 286139, Note_off_c, 0, 62, 59
1, 286147, Note_off_c, 0, 65, 62
1, 286204, Note_on_c, 0, 33, 59
1, 286273, Note_off_c, 0, 33, 56
1, 286317, Note_on_c, 0, 42, 54
1, 286317, Note_on_c, 0, 66, 68
1, 286327, Control_c, 0, 64, 41
1, 286330, Note_on_c, 0, 62, 62
1, 286342, Control_c, 0, 64, 63
1, 286357, Control_c, 0, 64, 75
1, 286372, Control_c, 0, 64, 105
1, 286378, Note_off_c, 0, 62, 61
1, 286386, Control_c, 0, 64, 127
1, 286393, Note_off_c, 0, 66, 63
1, 286398, Note_off_c, 0, 42, 61
1, 286413, Note_on_c, 0, 33, 62
1, 286507, Note_off_c, 0, 33, 56
1, 286522, Note_on_c, 0, 42, 73
1, 286534, Note_on_c, 0, 61, 76
1, 286540, Note_on_c, 0, 67, 65
1, 286542, Control_c, 0, 64, 76
1, 286547, Note_on_c, 0, 63, 50
1, 286556, Control_c, 0, 64, 43
1, 286558, Note_off_c, 0, 67, 64
1, 286559, Note_off_c, 0, 61, 67
1, 286569, Note_off_c, 0, 63, 52
1, 286571, Control_c, 0, 64, 0
1, 286602, Note_off_c, 0, 42, 58
1, 286622, Note_on_c, 0, 68, 84
1, 286632, Note_on_c, 0, 60, 71
1, 286632, Note_on_c, 0, 65, 66
1, 286634, Note_on_c, 0, 33, 68
1, 286657, Note_off_c, 0, 60, 69
1, 286660, Note_off_c, 0, 65, 66
1, 286662, Note_off_c, 0, 68, 61
1, 286697, Note_off_c, 0, 33, 54
1, 286729, Note_on_c, 0, 65, 75
1, 286731, Note_on_c, 0, 43, 76
1, 286731, Note_on_c, 0, 69, 93
1, 286734, Control_c, 0, 64, 46
1, 286738, Note_on_c, 0, 59, 79
1, 286749, Control_c, 0, 64, 67
1, 286762, Note_off_c, 0, 59, 66
1, 286764, Control_c, 0, 64, 94
1, 286774, Note_off_c, 0, 65, 62
1, 286779, Control_c, 0, 64, 127
1, 286795, Note_off_c, 0, 69, 67
1, 286804, Note_off_c, 0, 43, 62
1, 286824, Note_on_c, 0, 33, 74
1, 286931, Note_off_c, 0, 33, 57
1, 286934, Note_on_c, 0, 43, 75
1, 286944, Note_on_c, 0, 70, 81
1, 286947, Note_on_c, 0, 66, 72
1, 286954, Note_on_c, 0, 65, 71
1, 286957, Control_c, 0, 64, 88
1, 286966, Note_off_c, 0, 70, 70
1, 286972, Control_c, 0, 64, 57
1, 286974, Note_off_c, 0, 66, 68
1, 286977, Note_off_c, 0, 65, 63
1, 286987, Control_c, 0, 64, 0
1, 287004, Note_off_c, 0, 43, 61
1, 287039, Note_on_c, 0, 33, 68
1, 287039, Note_on_c, 0, 64, 74
1, 287040, Note_on_c, 0, 67, 69
1, 287056, Note_on_c, 0, 71, 47
1, 287059, Note_on_c, 0, 72, 42
1, 287062, Note_off_c, 0, 64, 70
1, 287067, Note_off_c, 0, 67, 68
1, 287079, Note_off_c, 0, 71, 57
1, 287087, Note_off_c, 0, 72, 52
1, 287118, Note_off_c, 0, 33, 61
1, 287144, Note_on_c, 0, 44, 71
1, 287147, Note_on_c, 0, 63, 67
1, 287149, Note_on_c, 0, 72, 77
1, 287164, Note_off_c, 0, 63, 65
1, 287165, Control_c, 0, 64, 42
1, 287179, Control_c, 0, 64, 65
1, 287185, Note_off_c, 0, 72, 65
1, 287194, Control_c, 0, 64, 88
1, 287209, Control_c, 0, 64, 127
1, 287218, Note_off_c, 0, 44, 61
1, 287246, Note_on_c, 0, 32, 75
1, 287251, Note_on_c, 0, 72, 89
1, 287338, Note_off_c, 0, 32, 60
1, 287365, Note_on_c, 0, 44, 84
1, 287367, Note_on_c, 0, 84, 94
1, 287368, Note_on_c, 0, 80, 92
1, 287391, Note_off_c, 0, 72, 64
1, 287403, Note_off_c, 0, 84, 66
1, 287412, Note_off_c, 0, 80, 63
1, 287440, Note_off_c, 0, 44, 62
1, 287470, Note_on_c, 0, 72, 99
1, 287472, Note_on_c, 0, 32, 86
1, 287476, Note_on_c, 0, 84, 82
1, 287482, Note_on_c, 0, 83, 76
1, 287498, Note_off_c, 0, 84, 70
1, 287504, Note_off_c, 0, 83, 69
1, 287507, Note_off_c, 0, 72, 62
1, 287557, Control_c, 0, 64, 76
1, 287567, Note_off_c, 0, 32, 63
1, 287572, Control_c, 0, 64, 27
1, 287587, Note_on_c, 0, 70, 90
1, 287587, Note_on_c, 0, 73, 94
1, 287588, Control_c, 0, 64, 0
1, 287588, Note_on_c, 0, 43, 92
1, 287597, Note_on_c, 0, 64, 75
1, 287600, Note_off_c, 0, 70, 70
1, 287603, Note_on_c, 0, 65, 67
1, 287615, Note_on_c, 0, 69, 59
1, 287623, Note_off_c, 0, 64, 69
1, 287623, Note_off_c, 0, 65, 64
1, 287632, Control_c, 0, 64, 56
1, 287635, Note_off_c, 0, 69, 61
1, 287645, Note_off_c, 0, 73, 65
1, 287647, Control_c, 0, 64, 86
1, 287662, Control_c, 0, 64, 127
1, 287678, Note_off_c, 0, 43, 61
1, 287704, Note_on_c, 0, 73, 106
1, 287705, Note_on_c, 0, 31, 90
1, 287811, Note_on_c, 0, 81, 77
1, 287815, Note_on_c, 0, 43, 94
1, 287818, Note_on_c, 0, 85, 99
1, 287835, Note_off_c, 0, 31, 41
1, 287861, Note_off_c, 0, 73, 63
1, 287877, Note_off_c, 0, 81, 65
1, 287883, Note_off_c, 0, 85, 65
1, 287893, Note_off_c, 0, 43, 56
1, 287947, Note_on_c, 0, 31, 93
1, 287949, Note_on_c, 0, 85, 97
1, 287949, Note_on_c, 0, 73, 104
1, 287954, Note_on_c, 0, 81, 79
1, 287974, Note_off_c, 0, 81, 71
1, 287980, Note_off_c, 0, 31, 65
1, 287986, Note_off_c, 0, 85, 68
1, 287998, Note_off_c, 0, 73, 62
1, 288158, Control_c, 0, 64, 98
1, 288172, Control_c, 0, 64, 81
1, 288187, Control_c, 0, 64, 71
1, 288202, Control_c, 0, 64, 65
1, 288217, Control_c, 0, 64, 61
1, 288232, Control_c, 0, 64, 52
1, 288235, Note_on_c, 0, 41, 47
1, 288247, Control_c, 0, 64, 30
1, 288253, Note_on_c, 0, 74, 58
1, 288262, Control_c, 0, 64, 0
1, 288267, Note_on_c, 0, 70, 52
1, 288318, Note_off_c, 0, 41, 60
1, 288355, Note_on_c, 0, 53, 54
1, 288384, Note_off_c, 0, 70, 60
1, 288390, Note_off_c, 0, 53, 65
1, 288402, Note_off_c, 0, 74, 62
1, 288460, Note_on_c, 0, 72, 58
1, 288461, Note_on_c, 0, 75, 52
1, 288478, Note_on_c, 0, 58, 52
1, 288481, Note_off_c, 0, 75, 61
1, 288490, Note_off_c, 0, 72, 67
1, 288509, Note_off_c, 0, 58, 65
1, 288545, Note_on_c, 0, 73, 65
1, 288558, Note_on_c, 0, 62, 61
1, 288562, Note_on_c, 0, 76, 43
1, 288576, Note_off_c, 0, 73, 65
1, 288586, Note_off_c, 0, 76, 49
1, 288599, Note_off_c, 0, 62, 62
1, 288648, Note_on_c, 0, 74, 69
1, 288652, Note_on_c, 0, 65, 60
1, 288660, Note_on_c, 0, 77, 61
1, 288673, Note_off_c, 0, 74, 68
1, 288680, Note_off_c, 0, 77, 63
1, 288688, Note_off_c, 0, 65, 61
1, 288750, Note_on_c, 0, 53, 58
1, 288750, Note_on_c, 0, 70, 72
1, 288762, Note_on_c, 0, 58, 49
1, 288784, Note_off_c, 0, 70, 65
1, 288804, Note_off_c, 0, 53, 62
1, 288816, Note_off_c, 0, 58, 60
1, 288870, Note_on_c, 0, 70, 84
1, 288880, Note_on_c, 0, 77, 71
1, 288882, Note_on_c, 0, 74, 66
1, 288883, Note_on_c, 0, 62, 50
1, 288892, Note_on_c, 0, 65, 53
1, 288907, Control_c, 0, 64, 36
1, 288921, Control_c, 0, 64, 57
1, 288923, Note_off_c, 0, 74, 62
1, 288936, Note_off_c, 0, 62, 56
1, 288936, Control_c, 0, 64, 69
1, 288948, Note_off_c, 0, 65, 52
1, 288951, Control_c, 0, 64, 94
1, 288953, Note_off_c, 0, 77, 62
1, 288966, Control_c, 0, 64, 127
1, 288982, Note_on_c, 0, 53, 49
1, 289000, Note_on_c, 0, 58, 51
1, 289019, Note_off_c, 0, 53, 56
1, 289069, Control_c, 0, 64, 113
1, 289079, Note_off_c, 0, 58, 46
1, 289084, Control_c, 0, 64, 80
1, 289092, Note_on_c, 0, 75, 73
1, 289099, Control_c, 0, 64, 64
1, 289101, Note_on_c, 0, 67, 57
1, 289101, Note_on_c, 0, 72, 58
1, 289109, Note_on_c, 0, 63, 51
1, 289114, Control_c, 0, 64, 48
1, 289129, Control_c, 0, 64, 52
1, 289141, Note_off_c, 0, 67, 62
1, 289144, Control_c, 0, 64, 61
1, 289155, Note_off_c, 0, 63, 61
1, 289159, Control_c, 0, 64, 66
1, 289166, Note_off_c, 0, 75, 57
1, 289174, Control_c, 0, 64, 79
1, 289189, Control_c, 0, 64, 127
1, 289198, Note_off_c, 0, 72, 60
1, 289202, Note_on_c, 0, 53, 60
1, 289203, Note_on_c, 0, 58, 64
1, 289242, Note_off_c, 0, 53, 59
1, 289273, Note_off_c, 0, 58, 61
1, 289291, Note_on_c, 0, 73, 73
1, 289293, Control_c, 0, 64, 116
1, 289308, Control_c, 0, 64, 73
1, 289308, Note_on_c, 0, 67, 69
1, 289311, Note_on_c, 0, 77, 53
1, 289312, Note_on_c, 0, 63, 64
1, 289321, Note_off_c, 0, 73, 64
1, 289323, Control_c, 0, 64, 0
1, 289327, Note_off_c, 0, 70, 62
1, 289331, Note_off_c, 0, 77, 47
1, 289338, Note_off_c, 0, 67, 63
1, 289349, Note_off_c, 0, 63, 61
1, 289397, Note_on_c, 0, 74, 73
1, 289399, Note_on_c, 0, 78, 80
1, 289402, Note_on_c, 0, 58, 64
1, 289409, Note_on_c, 0, 53, 56
1, 289422, Note_off_c, 0, 74, 69
1, 289426, Note_off_c, 0, 78, 66
1, 289443, Note_off_c, 0, 58, 62
1, 289445, Note_off_c, 0, 53, 64
1, 289500, Note_on_c, 0, 79, 74
1, 289502, Note_on_c, 0, 75, 72
1, 289511, Note_on_c, 0, 67, 61
1, 289512, Note_on_c, 0, 63, 67
1, 289533, Note_off_c, 0, 75, 68
1, 289536, Note_off_c, 0, 79, 63
1, 289537, Note_off_c, 0, 67, 64
1, 289549, Note_off_c, 0, 63, 65
1, 289602, Note_on_c, 0, 70, 83
1, 289612, Note_on_c, 0, 53, 56
1, 289621, Note_on_c, 0, 58, 53
1, 289636, Note_off_c, 0, 70, 65
1, 289641, Note_off_c, 0, 53, 59
1, 289665, Note_off_c, 0, 58, 60
1, 289713, Note_on_c, 0, 79, 79
1, 289715, Note_on_c, 0, 70, 83
1, 289715, Control_c, 0, 64, 28
1, 289719, Note_on_c, 0, 75, 69
1, 289724, Note_on_c, 0, 67, 52
1, 289725, Note_on_c, 0, 63, 57
1, 289729, Control_c, 0, 64, 61
1, 289744, Control_c, 0, 64, 73
1, 289759, Control_c, 0, 64, 127
1, 289760, Note_off_c, 0, 67, 64
1, 289777, Note_off_c, 0, 63, 54
1, 289779, Note_off_c, 0, 75, 53
1, 289803, Note_off_c, 0, 79, 58
1, 289815, Note_on_c, 0, 58, 58
1, 289819, Note_on_c, 0, 53, 60
1, 289871, Note_off_c, 0, 53, 58
1, 289907, Control_c, 0, 64, 102
1, 289921, Note_off_c, 0, 58, 56
1, 289922, Control_c, 0, 64, 73
1, 289926, Note_on_c, 0, 77, 71
1, 289928, Note_off_c, 0, 70, 61
1, 289931, Note_on_c, 0, 65, 54
1, 289936, Note_on_c, 0, 62, 45
1, 289937, Control_c, 0, 64, 54
1, 289939, Note_on_c, 0, 74, 52
1, 289952, Control_c, 0, 64, 21
1, 289967, Control_c, 0, 64, 51
1, 289976, Note_off_c, 0, 65, 60
1, 289982, Control_c, 0, 64, 63
1, 289997, Note_off_c, 0, 77, 63
1, 289997, Control_c, 0, 64, 75
1, 290002, Note_off_c, 0, 74, 54
1, 290010, Note_off_c, 0, 62, 59
1, 290012, Control_c, 0, 64, 127
1, 290024, Note_on_c, 0, 70, 61
1, 290026, Note_on_c, 0, 53, 50
1, 290052, Note_on_c, 0, 58, 38
1, 290079, Note_off_c, 0, 53, 55
1, 290095, Note_off_c, 0, 58, 61
1, 290116, Control_c, 0, 64, 80
1, 290125, Note_on_c, 0, 78, 60
1, 290126, Note_on_c, 0, 74, 54
1, 290131, Control_c, 0, 64, 50
1, 290131, Note_on_c, 0, 62, 61
1, 290136, Note_on_c, 0, 65, 55
1, 290144, Note_off_c, 0, 78, 61
1, 290145, Control_c, 0, 64, 0
1, 290149, Note_off_c, 0, 74, 55
1, 290169, Note_off_c, 0, 62, 60
1, 290172, Note_off_c, 0, 65, 63
1, 290172, Note_off_c, 0, 70, 0
1, 290209, Note_on_c, 0, 70, 12
1, 290212, Note_on_c, 0, 79, 67
1, 290213, Note_on_c, 0, 58, 59
1, 290213, Note_on_c, 0, 75, 69
1, 290218, Note_on_c, 0, 53, 56
1, 290239, Note_off_c, 0, 70, 56
1, 290239, Note_off_c, 0, 79, 68
1, 290245, Note_off_c, 0, 75, 62
1, 290257, Note_off_c, 0, 58, 62
1, 290265, Note_off_c, 0, 53, 61
1, 290328, Note_on_c, 0, 80, 80
1, 290333, Note_on_c, 0, 64, 66
1, 290336, Note_on_c, 0, 77, 57
1, 290337, Note_on_c, 0, 60, 64
1, 290360, Control_c, 0, 64, 62
1, 290375, Control_c, 0, 64, 77
1, 290390, Control_c, 0, 64, 127
1, 290407, Note_off_c, 0, 64, 50
1, 290419, Note_off_c, 0, 60, 62
1, 290426, Note_on_c, 0, 70, 72
1, 290426, Note_off_c, 0, 77, 63
1, 290426, Note_on_c, 0, 53, 66
1, 290438, Note_on_c, 0, 58, 53
1, 290450, Note_off_c, 0, 80, 62
1, 290452, Note_off_c, 0, 70, 68
1, 290484, Note_off_c, 0, 58, 58
1, 290498, Note_off_c, 0, 53, 59
1, 290527, Note_on_c, 0, 64, 75
1, 290535, Note_on_c, 0, 60, 71
1, 290536, Note_on_c, 0, 81, 73
1, 290538, Control_c, 0, 64, 68
1, 290547, Note_on_c, 0, 78, 52
1, 290548, Note_off_c, 0, 78, 127
1, 290552, Control_c, 0, 64, 0
1, 290557, Note_off_c, 0, 81, 66
1, 290559, Note_off_c, 0, 64, 60
1, 290587, Note_off_c, 0, 60, 49
1, 290613, Note_on_c, 0, 82, 92
1, 290619, Note_on_c, 0, 53, 67
1, 290619, Note_on_c, 0, 58, 65
1, 290646, Note_off_c, 0, 82, 66
1, 290651, Note_off_c, 0, 58, 64
1, 290652, Note_off_c, 0, 53, 64
1, 290718, Note_on_c, 0, 83, 98
1, 290725, Note_on_c, 0, 80, 82
1, 290730, Note_on_c, 0, 63, 80
1, 290736, Note_on_c, 0, 59, 70
1, 290745, Control_c, 0, 64, 30
1, 290760, Control_c, 0, 64, 75
1, 290775, Control_c, 0, 64, 127
1, 290779, Note_off_c, 0, 63, 55
1, 290789, Note_off_c, 0, 80, 37
1, 290820, Note_on_c, 0, 77, 91
1, 290823, Note_off_c, 0, 59, 55
1, 290825, Note_on_c, 0, 53, 70
1, 290827, Note_on_c, 0, 56, 66
1, 290831, Note_off_c, 0, 83, 59
1, 290865, Note_off_c, 0, 53, 59
1, 290894, Note_off_c, 0, 56, 61
1, 290920, Note_on_c, 0, 84, 92
1, 290923, Note_on_c, 0, 81, 85
1, 290923, Control_c, 0, 64, 91
1, 290925, Note_on_c, 0, 63, 87
1, 290928, Note_on_c, 0, 59, 81
1, 290938, Control_c, 0, 64, 57
1, 290944, Note_off_c, 0, 81, 70
1, 290953, Note_off_c, 0, 84, 65
1, 290953, Control_c, 0, 64, 0
1, 290955, Note_off_c, 0, 77, 61
1, 290972, Note_off_c, 0, 63, 61
1, 291013, Note_on_c, 0, 85, 94
1, 291014, Note_on_c, 0, 56, 73
1, 291016, Note_off_c, 0, 59, 41
1, 291016, Note_on_c, 0, 82, 91
1, 291018, Note_on_c, 0, 53, 78
1, 291053, Note_on_c, 0, 77, 16
1, 291064, Note_off_c, 0, 82, 64
1, 291068, Note_off_c, 0, 77, 41
1, 291070, Note_off_c, 0, 85, 66
1, 291096, Note_off_c, 0, 53, 60
1, 291108, Note_off_c, 0, 56, 62
1, 291126, Note_on_c, 0, 59, 82
1, 291129, Note_on_c, 0, 62, 91
1, 291132, Note_on_c, 0, 86, 91
1, 291133, Note_on_c, 0, 83, 100
1, 291151, Note_on_c, 0, 84, 63
1, 291152, Note_off_c, 0, 84, 127
1, 291168, Control_c, 0, 64, 64
1, 291180, Note_off_c, 0, 83, 61
1, 291183, Control_c, 0, 64, 127
1, 291186, Note_off_c, 0, 62, 59
1, 291196, Note_off_c, 0, 86, 66
1, 291212, Note_on_c, 0, 53, 86
1, 291219, Note_off_c, 0, 59, 64
1, 291222, Note_on_c, 0, 77, 94
1, 291251, Note_off_c, 0, 53, 66
1, 291312, Note_off_c, 0, 77, 59
1, 291333, Note_on_c, 0, 84, 80
1, 291338, Note_on_c, 0, 53, 99
1, 291338, Note_on_c, 0, 87, 102
1, 291389, Note_on_c, 0, 46, 22
1, 291407, Note_off_c, 0, 53, 55
1, 291407, Note_off_c, 0, 84, 62
1, 291419, Note_off_c, 0, 87, 63
1, 291430, Note_off_c, 0, 46, 44
1, 291448, Note_on_c, 0, 41, 96
1, 291486, Note_off_c, 0, 41, 67
1, 291548, Note_on_c, 0, 81, 99
1, 291549, Note_on_c, 0, 88, 95
1, 291553, Note_on_c, 0, 84, 89
1, 291583, Note_off_c, 0, 81, 69
1, 291590, Note_off_c, 0, 84, 58
1, 291590, Note_off_c, 0, 88, 64
1, 291654, Note_on_c, 0, 28, 91
1, 291667, Note_on_c, 0, 88, 103
1, 291671, Note_on_c, 0, 81, 102
1, 291673, Control_c, 0, 64, 101
1, 291676, Note_on_c, 0, 84, 90
1, 291687, Control_c, 0, 64, 61
1, 291691, Note_on_c, 0, 86, 60
1, 291702, Control_c, 0, 64, 0
1, 291717, Note_off_c, 0, 86, 38
1, 291761, Control_c, 0, 64, 54
1, 291784, Control_c, 0, 64, 78
1, 291798, Note_off_c, 0, 28, 62
1, 291799, Control_c, 0, 64, 127
1, 291824, Note_on_c, 0, 40, 76
1, 291834, Note_on_c, 0, 76, 96
1, 291846, Note_off_c, 0, 88, 60
1, 291850, Note_off_c, 0, 81, 39
1, 291859, Note_off_c, 0, 40, 67
1, 291869, Note_off_c, 0, 84, 62
1, 291877, Note_off_c, 0, 76, 66
1, 291945, Note_on_c, 0, 76, 101
1, 291953, Note_on_c, 0, 40, 78
1, 291980, Note_on_c, 0, 83, 52
1, 292009, Note_off_c, 0, 76, 61
1, 292016, Note_off_c, 0, 83, 46
1, 292024, Note_off_c, 0, 40, 63
1, 292033, Note_on_c, 0, 52, 83
1, 292081, Note_off_c, 0, 52, 66
1, 292129, Note_on_c, 0, 53, 92
1, 292131, Note_on_c, 0, 83, 77
1, 292134, Note_on_c, 0, 80, 98
1, 292135, Note_on_c, 0, 87, 99
1, 292175, Note_off_c, 0, 53, 64
1, 292182, Note_off_c, 0, 83, 65
1, 292190, Note_off_c, 0, 80, 63
1, 292200, Note_off_c, 0, 87, 65
1, 292219, Note_on_c, 0, 52, 82
1, 292254, Note_off_c, 0, 52, 62
1, 292319, Note_on_c, 0, 64, 93
1, 292325, Note_on_c, 0, 86, 100
1, 292328, Note_on_c, 0, 82, 91
1, 292329, Note_on_c, 0, 79, 92
1, 292347, Note_off_c, 0, 79, 72
1, 292362, Note_off_c, 0, 82, 62
1, 292363, Note_off_c, 0, 64, 62
1, 292363, Note_off_c, 0, 86, 64
1, 292379, Note_on_c, 0, 55, 30
1, 292407, Note_on_c, 0, 52, 80
1, 292418, Note_off_c, 0, 55, 47
1, 292433, Note_off_c, 0, 52, 68
1, 292484, Note_on_c, 0, 78, 96
1, 292489, Note_on_c, 0, 85, 84
1, 292491, Note_on_c, 0, 81, 80
1, 292506, Note_off_c, 0, 78, 67
1, 292512, Note_off_c, 0, 81, 71
1, 292514, Note_off_c, 0, 85, 65
1, 292548, Control_c, 0, 64, 103
1, 292553, Note_on_c, 0, 85, 81
1, 292562, Control_c, 0, 64, 63
1, 292565, Note_on_c, 0, 78, 95
1, 292566, Note_on_c, 0, 30, 96
1, 292566, Note_on_c, 0, 81, 84
1, 292577, Control_c, 0, 64, 0
1, 292651, Control_c, 0, 64, 43
1, 292659, Note_off_c, 0, 30, 62
1, 292665, Note_off_c, 0, 78, 64
1, 292666, Control_c, 0, 64, 69
1, 292670, Note_off_c, 0, 85, 62
1, 292673, Note_on_c, 0, 42, 87
1, 292680, Control_c, 0, 64, 127
1, 292696, Note_on_c, 0, 73, 90
1, 292706, Note_off_c, 0, 42, 66
1, 292731, Note_off_c, 0, 73, 64
1, 292785, Note_off_c, 0, 81, 51
1, 292794, Note_on_c, 0, 42, 91
1, 292799, Note_on_c, 0, 73, 99
1, 292852, Note_off_c, 0, 42, 64
1, 292865, Poly_aftertouch_c, 0, 81, 127
1, 292878, Note_off_c, 0, 73, 61
1, 292885, Note_on_c, 0, 54, 85
1, 292905, Poly_aftertouch_c, 0, 81, 0
1, 292989, Note_on_c, 0, 84, 102
1, 292993, Note_on_c, 0, 77, 99
1, 292994, Note_on_c, 0, 80, 92
1, 293031, Note_off_c, 0, 77, 65
1, 293044, Note_off_c, 0, 84, 67
1, 293052, Note_off_c, 0, 80, 64
1, 293101, Note_off_c, 0, 54, 65
1, 293177, Note_on_c, 0, 66, 92
1, 293192, Note_on_c, 0, 83, 104
1, 293195, Note_on_c, 0, 76, 100
1, 293198, Note_on_c, 0, 79, 87
1, 293216, Note_off_c, 0, 76, 71
1, 293225, Note_off_c, 0, 83, 66
1, 293228, Note_off_c, 0, 79, 61
1, 293231, Note_off_c, 0, 66, 63
1, 293239, Note_on_c, 0, 58, 13
1, 293262, Note_on_c, 0, 54, 84
1, 293287, Note_off_c, 0, 58, 38
1, 293296, Note_off_c, 0, 54, 67
1, 293306, Note_on_c, 0, 53, 39
1, 293336, Note_off_c, 0, 53, 55
1, 293358, Note_on_c, 0, 75, 95
1, 293358, Note_on_c, 0, 78, 86
1, 293359, Note_on_c, 0, 82, 87
1, 293377, Note_off_c, 0, 75, 67
1, 293383, Note_off_c, 0, 82, 66
1, 293384, Note_off_c, 0, 78, 66
1, 293425, Note_on_c, 0, 82, 88
1, 293432, Note_on_c, 0, 75, 94
1, 293433, Note_on_c, 0, 78, 86
1, 293435, Note_on_c, 0, 34, 96
1, 293445, Control_c, 0, 64, 96
1, 293459, Control_c, 0, 64, 60
1, 293474, Control_c, 0, 64, 0
1, 293531, Note_on_c, 0, 76, 25
1, 293548, Control_c, 0, 64, 50
1, 293551, Note_off_c, 0, 34, 62
1, 293555, Note_off_c, 0, 82, 61
1, 293563, Control_c, 0, 64, 73
1, 293565, Note_on_c, 0, 46, 72
1, 293576, Note_off_c, 0, 75, 54
1, 293577, Control_c, 0, 64, 127
1, 293580, Note_on_c, 0, 70, 91
1, 293594, Note_off_c, 0, 46, 66
1, 293608, Note_off_c, 0, 78, 63
1, 293612, Note_off_c, 0, 70, 61
1, 293616, Note_off_c, 0, 76, 30
1, 293621, Poly_aftertouch_c, 0, 44, 127
1, 293651, Poly_aftertouch_c, 0, 44, 0
1, 293676, Note_on_c, 0, 70, 96
1, 293680, Note_on_c, 0, 46, 75
1, 293743, Note_off_c, 0, 46, 62
1, 293743, Note_off_c, 0, 70, 59
1, 293766, Note_on_c, 0, 58, 90
1, 293844, Note_off_c, 0, 58, 62
1, 293867, Note_on_c, 0, 77, 95
1, 293869, Note_on_c, 0, 59, 80
1, 293869, Note_on_c, 0, 81, 96
1, 293872, Note_on_c, 0, 74, 93
1, 293902, Note_off_c, 0, 74, 64
1, 293909, Note_off_c, 0, 77, 66
1, 293918, Note_off_c, 0, 81, 69
1, 293940, Note_off_c, 0, 59, 65
1, 293949, Note_on_c, 0, 58, 81
1, 293972, Note_off_c, 0, 58, 70
1, 294070, Note_on_c, 0, 70, 91
1, 294078, Note_on_c, 0, 80, 100
1, 294080, Note_on_c, 0, 73, 104
1, 294080, Note_on_c, 0, 75, 70
1, 294081, Note_off_c, 0, 75, 127
1, 294085, Note_on_c, 0, 76, 89
1, 294108, Note_off_c, 0, 76, 68
1, 294111, Note_off_c, 0, 73, 67
1, 294121, Note_off_c, 0, 80, 65
1, 294130, Note_off_c, 0, 70, 61
1, 294152, Note_on_c, 0, 58, 90
1, 294194, Note_off_c, 0, 58, 61
1, 294227, Note_on_c, 0, 75, 72
1, 294228, Note_on_c, 0, 72, 93
1, 294242, Note_on_c, 0, 80, 52
1, 294243, Note_off_c, 0, 80, 127
1, 294245, Note_on_c, 0, 79, 61
1, 294251, Note_off_c, 0, 72, 66
1, 294254, Note_off_c, 0, 75, 67
1, 294263, Note_off_c, 0, 79, 64
1, 294281, Control_c, 0, 64, 92
1, 294296, Control_c, 0, 64, 57
1, 294304, Note_on_c, 0, 79, 93
1, 294305, Note_on_c, 0, 75, 88
1, 294307, Note_on_c, 0, 72, 92
1, 294311, Control_c, 0, 64, 0
1, 294319, Note_on_c, 0, 36, 85
1, 294385, Control_c, 0, 64, 55
1, 294399, Control_c, 0, 64, 82
1, 294407, Note_off_c, 0, 72, 62
1, 294408, Note_off_c, 0, 36, 62
1, 294413, Note_on_c, 0, 48, 80
1, 294414, Note_off_c, 0, 79, 60
1, 294414, Control_c, 0, 64, 127
1, 294425, Note_off_c, 0, 75, 62
1, 294430, Note_on_c, 0, 67, 82
1, 294444, Note_off_c, 0, 48, 66
1, 294475, Note_off_c, 0, 67, 63
1, 294531, Note_on_c, 0, 67, 89
1, 294540, Note_on_c, 0, 48, 81
1, 294575, Note_off_c, 0, 48, 64
1, 294600, Note_off_c, 0, 67, 60
1, 294610, Note_on_c, 0, 60, 82
1, 294656, Note_off_c, 0, 60, 63
1, 294710, Note_on_c, 0, 78, 99
1, 294711, Note_on_c, 0, 61, 66
1, 294715, Note_on_c, 0, 71, 93
1, 294718, Note_on_c, 0, 74, 76
1, 294724, Note_on_c, 0, 62, 72
1, 294742, Note_off_c, 0, 74, 67
1, 294745, Note_off_c, 0, 61, 62
1, 294751, Note_off_c, 0, 71, 66
1, 294772, Note_off_c, 0, 62, 56
1, 294778, Note_off_c, 0, 78, 65
1, 294804, Note_on_c, 0, 60, 75
1, 294828, Note_off_c, 0, 60, 64
1, 294923, Note_on_c, 0, 70, 98
1, 294924, Note_on_c, 0, 72, 90
1, 294926, Note_on_c, 0, 77, 101
1, 294927, Note_on_c, 0, 73, 87
1, 294955, Note_off_c, 0, 70, 68
1, 294960, Note_off_c, 0, 77, 61
1, 294975, Note_off_c, 0, 73, 63
1, 294980, Note_off_c, 0, 72, 61
1, 295023, Note_on_c, 0, 60, 90
1, 295058, Note_off_c, 0, 60, 68
1, 295113, Note_on_c, 0, 76, 102
1, 295121, Note_on_c, 0, 69, 87
1, 295124, Note_on_c, 0, 67, 83
1, 295126, Note_on_c, 0, 72, 71
1, 295134, Note_off_c, 0, 76, 66
1, 295140, Note_off_c, 0, 69, 71
1, 295141, Note_off_c, 0, 67, 73
1, 295146, Note_off_c, 0, 72, 71
1, 295162, Control_c, 0, 64, 103
1, 295177, Control_c, 0, 64, 64
1, 295192, Control_c, 0, 64, 0
1, 295199, Note_on_c, 0, 76, 111
1, 295207, Note_on_c, 0, 69, 105
1, 295209, Note_on_c, 0, 72, 95
1, 295237, Control_c, 0, 64, 57
1, 295252, Control_c, 0, 64, 78
1, 295258, Note_off_c, 0, 76, 67
1, 295265, Note_off_c, 0, 69, 63
1, 295267, Control_c, 0, 64, 127
1, 295273, Note_off_c, 0, 72, 66
1, 295288, Note_on_c, 0, 40, 78
1, 295371, Note_on_c, 0, 48, 69
1, 295374, Note_off_c, 0, 40, 63
1, 295397, Note_off_c, 0, 48, 66
1, 295449, Note_on_c, 0, 57, 76
1, 295505, Note_off_c, 0, 57, 64
1, 295509, Note_on_c, 0, 56, 82
1, 295526, Control_c, 0, 64, 111
1, 295529, Note_on_c, 0, 52, 78
1, 295541, Control_c, 0, 64, 81
1, 295543, Note_off_c, 0, 56, 70
1, 295555, Control_c, 0, 64, 61
1, 295571, Control_c, 0, 64, 0
1, 295592, Note_on_c, 0, 57, 76
1, 295592, Note_off_c, 0, 52, 62
1, 295619, Note_off_c, 0, 57, 69
1, 295645, Note_on_c, 0, 60, 94
1, 295699, Note_off_c, 0, 60, 66
1, 295701, Note_on_c, 0, 59, 81
1, 295719, Note_on_c, 0, 57, 86
1, 295723, Note_off_c, 0, 59, 71
1, 295782, Note_off_c, 0, 57, 62
1, 295790, Note_on_c, 0, 60, 81
1, 295823, Note_off_c, 0, 60, 66
1, 295839, Note_on_c, 0, 64, 96
1, 295881, Note_off_c, 0, 64, 68
1, 295890, Note_on_c, 0, 63, 67
1, 295905, Note_on_c, 0, 60, 86
1, 295919, Note_off_c, 0, 63, 66
1, 295970, Note_on_c, 0, 64, 63
1, 295970, Note_off_c, 0, 60, 64
1, 295979, Note_on_c, 0, 65, 45
1, 295997, Note_off_c, 0, 64, 64
1, 296018, Note_off_c, 0, 65, 0
1, 296018, Note_on_c, 0, 65, 78
1, 296019, Note_on_c, 0, 60, 93
1, 296019, Note_on_c, 0, 64, 90
1, 296021, Note_on_c, 0, 69, 89
1, 296043, Note_off_c, 0, 60, 65
1, 296043, Note_off_c, 0, 64, 66
1, 296044, Note_on_c, 0, 62, 43
1, 296045, Control_c, 0, 64, 66
1, 296054, Note_off_c, 0, 65, 64
1, 296060, Control_c, 0, 64, 127
1, 296069, Note_off_c, 0, 62, 56
1, 296070, Note_off_c, 0, 69, 0
1, 296086, Poly_aftertouch_c, 0, 65, 0
1, 296091, Note_on_c, 0, 65, 67
1, 296094, Note_on_c, 0, 52, 85
1, 296094, Note_on_c, 0, 60, 71
1, 296095, Note_on_c, 0, 40, 81
1, 296101, Note_on_c, 0, 64, 66
1, 296107, Poly_aftertouch_c, 0, 69, 127
1, 296116, Note_off_c, 0, 52, 70
1, 296128, Note_off_c, 0, 64, 69
1, 296128, Note_off_c, 0, 65, 63
1, 296128, Note_off_c, 0, 60, 65
1, 296136, Note_off_c, 0, 40, 0
1, 296140, Poly_aftertouch_c, 0, 69, 0
1, 296165, Note_on_c, 0, 52, 82
1, 296173, Poly_aftertouch_c, 0, 40, 127
1, 296194, Poly_aftertouch_c, 0, 40, 0
1, 296199, Note_off_c, 0, 52, 62
1, 296248, Note_on_c, 0, 64, 85
1, 296307, Note_off_c, 0, 64, 66
1, 296334, Control_c, 0, 64, 101
1, 296337, Note_on_c, 0, 62, 46
1, 296345, Note_on_c, 0, 60, 84
1, 296349, Control_c, 0, 64, 82
1, 296361, Note_off_c, 0, 62, 59
1, 296364, Control_c, 0, 64, 71
1, 296379, Control_c, 0, 64, 64
1, 296393, Control_c, 0, 64, 56
1, 296397, Note_on_c, 0, 64, 84
1, 296404, Note_off_c, 0, 60, 66
1, 296408, Control_c, 0, 64, 47
1, 296423, Control_c, 0, 64, 31
1, 296428, Note_off_c, 0, 64, 65
1, 296438, Control_c, 0, 64, 0
1, 296453, Note_on_c, 0, 69, 97
1, 296504, Note_off_c, 0, 69, 68
1, 296511, Note_on_c, 0, 68, 79
1, 296532, Note_off_c, 0, 68, 67
1, 296539, Note_on_c, 0, 64, 87
1, 296593, Note_on_c, 0, 69, 90
1, 296602, Note_off_c, 0, 64, 60
1, 296632, Note_off_c, 0, 69, 66
1, 296638, Note_on_c, 0, 72, 103
1, 296689, Note_off_c, 0, 72, 67
1, 296700, Note_on_c, 0, 71, 74
1, 296718, Note_on_c, 0, 69, 79
1, 296721, Note_off_c, 0, 71, 70
1, 296772, Note_on_c, 0, 71, 78
1, 296775, Note_off_c, 0, 69, 64
1, 296779, Note_on_c, 0, 72, 54
1, 296792, Note_off_c, 0, 71, 71
1, 296802, Note_off_c, 0, 72, 59
1, 296835, Note_on_c, 0, 69, 110
1, 296835, Note_on_c, 0, 77, 98
1, 296836, Note_on_c, 0, 72, 89
1, 296841, Note_on_c, 0, 76, 83
1, 296856, Note_off_c, 0, 72, 70
1, 296857, Note_off_c, 0, 69, 70
1, 296862, Note_off_c, 0, 76, 71
1, 296882, Control_c, 0, 64, 62
1, 296897, Control_c, 0, 64, 90
1, 296904, Note_on_c, 0, 72, 82
1, 296904, Note_on_c, 0, 76, 82
1, 296905, Note_on_c, 0, 52, 89
1, 296906, Note_on_c, 0, 40, 86
1, 296906, Note_on_c, 0, 69, 81
1, 296912, Control_c, 0, 64, 127
1, 296927, Note_off_c, 0, 52, 71
1, 296931, Note_off_c, 0, 72, 67
1, 296938, Note_off_c, 0, 69, 60
1, 296938, Note_off_c, 0, 76, 58
1, 296946, Note_off_c, 0, 77, 64
1, 296951, Note_off_c, 0, 40, 0
1, 296988, Poly_aftertouch_c, 0, 40, 127
1, 296990, Note_on_c, 0, 52, 72
1, 297000, Note_on_c, 0, 50, 52
1, 297005, Poly_aftertouch_c, 0, 40, 0
1, 297024, Note_off_c, 0, 52, 70
1, 297033, Note_off_c, 0, 50, 57
1, 297074, Note_on_c, 0, 76, 94
1, 297127, Control_c, 0, 64, 104
1, 297128, Note_off_c, 0, 76, 66
1, 297139, Note_on_c, 0, 75, 72
1, 297142, Control_c, 0, 64, 77
1, 297157, Control_c, 0, 64, 65
1, 297163, Note_off_c, 0, 75, 64
1, 297172, Control_c, 0, 64, 60
1, 297174, Note_on_c, 0, 72, 78
1, 297187, Control_c, 0, 64, 64
1, 297202, Control_c, 0, 64, 69
1, 297215, Note_on_c, 0, 76, 86
1, 297217, Control_c, 0, 64, 76
1, 297227, Note_off_c, 0, 72, 63
1, 297231, Control_c, 0, 64, 91
1, 297246, Control_c, 0, 64, 94
1, 297261, Control_c, 0, 64, 80
1, 297270, Note_on_c, 0, 81, 97
1, 297270, Note_off_c, 0, 76, 64
1, 297276, Control_c, 0, 64, 66
1, 297291, Control_c, 0, 64, 55
1, 297306, Control_c, 0, 64, 60
1, 297320, Control_c, 0, 64, 68
1, 297335, Note_off_c, 0, 81, 68
1, 297335, Control_c, 0, 64, 84
1, 297340, Note_on_c, 0, 80, 78
1, 297350, Control_c, 0, 64, 127
1, 297363, Note_off_c, 0, 80, 70
1, 297374, Note_on_c, 0, 76, 69
1, 297410, Note_on_c, 0, 81, 82
1, 297446, Note_off_c, 0, 76, 62
1, 297458, Note_off_c, 0, 81, 66
1, 297467, Note_on_c, 0, 84, 96
1, 297479, Note_on_c, 0, 86, 70
1, 297496, Note_off_c, 0, 86, 41
1, 297514, Note_on_c, 0, 72, 72
1, 297529, Note_off_c, 0, 84, 66
1, 297531, Note_on_c, 0, 83, 86
1, 297550, Note_off_c, 0, 83, 70
1, 297579, Note_on_c, 0, 76, 75
1, 297582, Note_off_c, 0, 72, 62
1, 297603, Note_off_c, 0, 76, 68
1, 297617, Control_c, 0, 64, 99
1, 297632, Control_c, 0, 64, 83
1, 297647, Control_c, 0, 64, 76
1, 297651, Note_on_c, 0, 89, 103
1, 297662, Control_c, 0, 64, 77
1, 297677, Control_c, 0, 64, 86
1, 297691, Control_c, 0, 64, 127
1, 297709, Note_on_c, 0, 69, 86
1, 297715, Note_off_c, 0, 89, 65
1, 297727, Note_on_c, 0, 88, 63
1, 297744, Note_off_c, 0, 88, 65
1, 297781, Note_on_c, 0, 72, 86
1, 297788, Control_c, 0, 64, 98
1, 297788, Note_off_c, 0, 69, 62
1, 297803, Control_c, 0, 64, 79
1, 297817, Control_c, 0, 64, 78
1, 297824, Note_off_c, 0, 72, 63
1, 297832, Control_c, 0, 64, 88
1, 297847, Control_c, 0, 64, 127
1, 297855, Note_on_c, 0, 93, 102
1, 297915, Note_off_c, 0, 93, 66
1, 297920, Note_on_c, 0, 64, 72
1, 297921, Control_c, 0, 64, 94
1, 297924, Note_on_c, 0, 92, 75
1, 297936, Control_c, 0, 64, 73
1, 297948, Note_off_c, 0, 92, 70
1, 297950, Control_c, 0, 64, 63
1, 297975, Note_on_c, 0, 69, 80
1, 297977, Note_off_c, 0, 64, 60
1, 297981, Control_c, 0, 64, 70
1, 297996, Control_c, 0, 64, 81
1, 298011, Control_c, 0, 64, 127
1, 298012, Note_off_c, 0, 69, 64
1, 298056, Note_on_c, 0, 98, 96
1, 298060, Note_on_c, 0, 96, 92
1, 298092, Note_off_c, 0, 98, 68
1, 298119, Note_on_c, 0, 84, 82
1, 298131, Note_off_c, 0, 96, 58
1, 298161, Note_off_c, 0, 84, 60
1, 298203, Control_c, 0, 67, 30
1, 298218, Control_c, 0, 67, 57
1, 298221, Note_on_c, 0, 62, 56
1, 298233, Control_c, 0, 67, 82
1, 298248, Control_c, 0, 67, 105
1, 298262, Control_c, 0, 67, 124
1, 298277, Control_c, 0, 67, 127
1, 298309, Note_off_c, 0, 62, 52
1, 298322, Control_c, 0, 64, 99
1, 298330, Note_on_c, 0, 60, 48
1, 298337, Control_c, 0, 64, 87
1, 298352, Control_c, 0, 64, 78
1, 298366, Control_c, 0, 64, 73
1, 298374, Note_on_c, 0, 98, 48
1, 298381, Control_c, 0, 64, 69
1, 298396, Control_c, 0, 64, 64
1, 298407, Note_off_c, 0, 60, 56
1, 298411, Control_c, 0, 64, 61
1, 298421, Note_off_c, 0, 98, 61
1, 298426, Control_c, 0, 64, 58
1, 298429, Note_on_c, 0, 59, 30
1, 298431, Note_on_c, 0, 100, 59
1, 298440, Control_c, 0, 64, 52
1, 298455, Control_c, 0, 64, 44
1, 298470, Control_c, 0, 64, 26
1, 298474, Note_on_c, 0, 57, 42
1, 298485, Control_c, 0, 64, 0
1, 298492, Note_off_c, 0, 100, 62
1, 298495, Note_off_c, 0, 59, 48
1, 298500, Note_on_c, 0, 101, 56
1, 298555, Note_off_c, 0, 101, 63
1, 298558, Note_off_c, 0, 57, 52
1, 298573, Note_on_c, 0, 103, 57
1, 298575, Note_on_c, 0, 55, 34
1, 298615, Note_on_c, 0, 60, 41
1, 298629, Note_on_c, 0, 100, 55
1, 298640, Control_c, 0, 64, 36
1, 298655, Control_c, 0, 64, 53
1, 298659, Note_off_c, 0, 55, 50
1, 298669, Note_off_c, 0, 60, 64
1, 298670, Control_c, 0, 64, 63
1, 298671, Note_off_c, 0, 103, 62
1, 298675, Note_off_c, 0, 100, 64
1, 298685, Control_c, 0, 64, 67
1, 298697, Note_on_c, 0, 96, 54
1, 298700, Control_c, 0, 64, 71
1, 298707, Note_on_c, 0, 64, 47
1, 298714, Control_c, 0, 64, 79
1, 298729, Control_c, 0, 64, 96
1, 298733, Note_off_c, 0, 96, 64
1, 298744, Control_c, 0, 64, 127
1, 298751, Note_off_c, 0, 64, 60
1, 298778, Note_on_c, 0, 100, 70
1, 298805, Note_on_c, 0, 60, 37
1, 298837, Note_off_c, 0, 100, 63
1, 298838, Note_off_c, 0, 60, 53
1, 298841, Note_on_c, 0, 96, 64
1, 298850, Note_on_c, 0, 64, 52
1, 298885, Note_off_c, 0, 64, 64
1, 298888, Note_off_c, 0, 96, 64
1, 298903, Note_on_c, 0, 67, 52
1, 298907, Note_on_c, 0, 91, 60
1, 298943, Note_off_c, 0, 67, 63
1, 298950, Note_off_c, 0, 91, 59
1, 298977, Note_on_c, 0, 55, 47
1, 298983, Note_on_c, 0, 96, 76
1, 299025, Note_off_c, 0, 55, 59
1, 299051, Note_on_c, 0, 60, 51
1, 299052, Note_on_c, 0, 91, 69
1, 299061, Note_off_c, 0, 96, 62
1, 299089, Note_off_c, 0, 60, 64
1, 299103, Note_off_c, 0, 91, 63
1, 299112, Note_on_c, 0, 88, 61
1, 299124, Note_on_c, 0, 64, 59
1, 299154, Note_off_c, 0, 88, 61
1, 299179, Note_off_c, 0, 64, 56
1, 299196, Note_on_c, 0, 60, 48
1, 299198, Note_on_c, 0, 91, 69
1, 299244, Note_on_c, 0, 64, 38
1, 299246, Note_off_c, 0, 60, 58
1, 299273, Note_off_c, 0, 91, 63
1, 299275, Note_on_c, 0, 88, 66
1, 299303, Note_off_c, 0, 64, 62
1, 299312, Note_off_c, 0, 88, 64
1, 299321, Note_on_c, 0, 67, 52
1, 299333, Note_on_c, 0, 84, 55
1, 299362, Note_off_c, 0, 67, 61
1, 299369, Note_off_c, 0, 84, 61
1, 299389, Note_on_c, 0, 55, 53
1, 299398, Note_on_c, 0, 91, 70
1, 299437, Note_off_c, 0, 55, 59
1, 299465, Note_on_c, 0, 60, 47
1, 299470, Note_on_c, 0, 88, 59
1, 299474, Note_off_c, 0, 91, 59
1, 299499, Note_off_c, 0, 60, 65
1, 299503, Note_off_c, 0, 88, 67
1, 299526, Note_on_c, 0, 64, 62
1, 299532, Note_on_c, 0, 84, 57
1, 299552, Note_off_c, 0, 84, 63
1, 299569, Note_off_c, 0, 64, 51
1, 299604, Note_on_c, 0, 88, 65
1, 299608, Note_on_c, 0, 60, 49
1, 299664, Note_off_c, 0, 60, 61
1, 299666, Note_on_c, 0, 84, 58
1, 299675, Note_off_c, 0, 88, 61
1, 299675, Note_on_c, 0, 64, 44
1, 299697, Note_off_c, 0, 84, 66
1, 299704, Note_off_c, 0, 64, 54
1, 299724, Note_on_c, 0, 67, 59
1, 299729, Note_on_c, 0, 79, 61
1, 299759, Note_off_c, 0, 79, 66
1, 299762, Note_off_c, 0, 67, 61
1, 299775, Control_c, 0, 67, 125
1, 299790, Control_c, 0, 67, 119
1, 299800, Note_on_c, 0, 55, 58
1, 299805, Control_c, 0, 67, 110
1, 299810, Note_on_c, 0, 84, 63
1, 299819, Control_c, 0, 67, 99
1, 299834, Control_c, 0, 67, 87
1, 299844, Note_off_c, 0, 84, 60
1, 299849, Control_c, 0, 67, 77
1, 299853, Note_off_c, 0, 55, 57
1, 299862, Note_on_c, 0, 60, 66
1, 299864, Control_c, 0, 67, 65
1, 299871, Note_on_c, 0, 79, 64
1, 299879, Control_c, 0, 67, 47
1, 299893, Control_c, 0, 67, 29
1, 299908, Note_off_c, 0, 79, 65
1, 299908, Control_c, 0, 67, 0
1, 299911, Note_off_c, 0, 60, 61
1, 299935, Note_on_c, 0, 76, 70
1, 299944, Note_on_c, 0, 64, 64
1, 300005, Note_off_c, 0, 64, 57
1, 300018, Note_on_c, 0, 79, 77
1, 300022, Note_off_c, 0, 76, 63
1, 300027, Note_on_c, 0, 60, 67
1, 300083, Note_off_c, 0, 79, 64
1, 300087, Note_on_c, 0, 84, 78
1, 300091, Note_on_c, 0, 64, 66
1, 300111, Note_off_c, 0, 84, 69
1, 300118, Note_off_c, 0, 60, 59
1, 300159, Note_off_c, 0, 64, 62
1, 300161, Note_on_c, 0, 67, 79
1, 300182, Note_off_c, 0, 67, 70
1, 300242, Note_on_c, 0, 85, 105
1, 300245, Note_on_c, 0, 92, 104
1, 300246, Note_on_c, 0, 89, 96
1, 300272, Note_off_c, 0, 89, 63
1, 300273, Note_off_c, 0, 92, 64
1, 300275, Note_off_c, 0, 85, 66
1, 300301, Control_c, 0, 64, 105
1, 300316, Control_c, 0, 64, 62
1, 300331, Control_c, 0, 64, 0
1, 300332, Note_on_c, 0, 92, 113
1, 300337, Note_on_c, 0, 89, 98
1, 300338, Note_on_c, 0, 85, 95
1, 300343, Note_on_c, 0, 40, 92
1, 300376, Control_c, 0, 64, 55
1, 300382, Note_off_c, 0, 89, 62
1, 300386, Note_off_c, 0, 85, 65
1, 300391, Note_off_c, 0, 92, 66
1, 300391, Control_c, 0, 64, 75
1, 300406, Control_c, 0, 64, 127
1, 300418, Note_on_c, 0, 52, 98
1, 300439, Note_off_c, 0, 52, 73
1, 300450, Note_off_c, 0, 40, 64
1, 300492, Note_on_c, 0, 80, 99
1, 300496, Note_on_c, 0, 85, 92
1, 300513, Note_off_c, 0, 85, 72
1, 300522, Note_off_c, 0, 80, 64
1, 300523, Note_on_c, 0, 89, 46
1, 300524, Note_off_c, 0, 89, 127
1, 300562, Note_on_c, 0, 89, 81
1, 300564, Note_on_c, 0, 28, 93
1, 300564, Note_on_c, 0, 80, 95
1, 300578, Note_on_c, 0, 85, 78
1, 300591, Note_off_c, 0, 85, 72
1, 300600, Note_off_c, 0, 89, 66
1, 300605, Note_off_c, 0, 80, 66
1, 300610, Note_on_c, 0, 40, 87
1, 300613, Note_off_c, 0, 28, 63
1, 300643, Note_off_c, 0, 40, 64
1, 300653, Note_on_c, 0, 79, 97
1, 300682, Note_off_c, 0, 79, 63
1, 300732, Note_on_c, 0, 80, 92
1, 300733, Note_on_c, 0, 85, 74
1, 300737, Note_on_c, 0, 77, 90
1, 300750, Note_off_c, 0, 80, 73
1, 300763, Note_on_c, 0, 81, 52
1, 300765, Note_off_c, 0, 77, 68
1, 300765, Note_off_c, 0, 85, 69
1, 300768, Control_c, 0, 64, 84
1, 300783, Control_c, 0, 64, 47
1, 300785, Note_off_c, 0, 81, 61
1, 300795, Note_on_c, 0, 40, 80
1, 300798, Control_c, 0, 64, 0
1, 300809, Note_on_c, 0, 85, 92
1, 300813, Control_c, 0, 64, 35
1, 300817, Note_on_c, 0, 77, 85
1, 300821, Note_on_c, 0, 80, 74
1, 300828, Control_c, 0, 64, 62
1, 300836, Note_off_c, 0, 80, 68
1, 300842, Control_c, 0, 64, 83
1, 300853, Note_off_c, 0, 77, 66
1, 300855, Note_off_c, 0, 85, 65
1, 300857, Control_c, 0, 64, 127
1, 300864, Note_on_c, 0, 52, 89
1, 300886, Note_off_c, 0, 52, 72
1, 300903, Note_off_c, 0, 40, 64
1, 300952, Note_on_c, 0, 73, 93
1, 300956, Note_on_c, 0, 80, 74
1, 300968, Note_on_c, 0, 77, 59
1, 300970, Note_off_c, 0, 73, 69
1, 300974, Note_on_c, 0, 72, 59
1, 300978, Note_off_c, 0, 80, 70
1, 300987, Note_off_c, 0, 77, 63
1, 300993, Note_off_c, 0, 72, 65
1, 301020, Note_on_c, 0, 28, 94
1, 301023, Note_on_c, 0, 80, 90
1, 301035, Note_on_c, 0, 73, 87
1, 301038, Note_on_c, 0, 77, 81
1, 301051, Note_off_c, 0, 73, 75
1, 301051, Poly_aftertouch_c, 0, 76, 0
1, 301062, Note_off_c, 0, 77, 70
1, 301066, Note_on_c, 0, 81, 33
1, 301071, Note_on_c, 0, 40, 86
1, 301074, Note_off_c, 0, 80, 61
1, 301076, Note_off_c, 0, 28, 62
1, 301097, Note_off_c, 0, 81, 53
1, 301100, Poly_aftertouch_c, 0, 34, 127
1, 301103, Note_off_c, 0, 40, 64
1, 301145, Poly_aftertouch_c, 0, 34, 0
1, 301169, Note_on_c, 0, 78, 89
1, 301170, Note_on_c, 0, 74, 95
1, 301190, Note_on_c, 0, 81, 46
1, 301197, Note_off_c, 0, 78, 64
1, 301205, Note_off_c, 0, 74, 62
1, 301214, Note_off_c, 0, 81, 62
1, 301237, Note_on_c, 0, 81, 85
1, 301243, Note_on_c, 0, 78, 89
1, 301244, Control_c, 0, 64, 68
1, 301246, Note_on_c, 0, 74, 88
1, 301252, Note_on_c, 0, 40, 88
1, 301258, Control_c, 0, 64, 0
1, 301273, Note_off_c, 0, 78, 65
1, 301285, Note_off_c, 0, 81, 68
1, 301288, Note_off_c, 0, 74, 64
1, 301288, Control_c, 0, 64, 24
1, 301300, Note_on_c, 0, 52, 89
1, 301303, Control_c, 0, 64, 58
1, 301318, Control_c, 0, 64, 77
1, 301327, Note_off_c, 0, 52, 66
1, 301333, Control_c, 0, 64, 127
1, 301348, Note_off_c, 0, 40, 62
1, 301386, Note_on_c, 0, 68, 96
1, 301413, Note_on_c, 0, 66, 35
1, 301414, Note_off_c, 0, 66, 127
1, 301419, Note_on_c, 0, 74, 37
1, 301421, Note_on_c, 0, 65, 43
1, 301429, Note_off_c, 0, 68, 63
1, 301445, Note_off_c, 0, 74, 0
1, 301447, Note_off_c, 0, 65, 57
1, 301455, Note_on_c, 0, 74, 66
1, 301468, Note_on_c, 0, 28, 91
1, 301484, Note_on_c, 0, 69, 57
1, 301524, Note_on_c, 0, 65, 79
1, 301524, Note_off_c, 0, 69, 66
1, 301527, Note_on_c, 0, 70, 12
1, 301540, Note_on_c, 0, 40, 85
1, 301542, Note_off_c, 0, 74, 65
1, 301543, Note_off_c, 0, 28, 62
1, 301568, Poly_aftertouch_c, 0, 34, 127
1, 301571, Note_off_c, 0, 40, 66
1, 301574, Note_off_c, 0, 70, 27
1, 301600, Note_on_c, 0, 70, 74
1, 301605, Note_on_c, 0, 67, 83
1, 301607, Note_on_c, 0, 75, 84
1, 301611, Poly_aftertouch_c, 0, 34, 0
1, 301620, Note_off_c, 0, 65, 64
1, 301629, Note_off_c, 0, 75, 68
1, 301632, Note_off_c, 0, 67, 65
1, 301637, Note_off_c, 0, 70, 63
1, 301681, Control_c, 0, 64, 110
1, 301688, Note_on_c, 0, 75, 96
1, 301689, Note_on_c, 0, 67, 91
1, 301691, Note_on_c, 0, 70, 81
1, 301696, Control_c, 0, 64, 62
1, 301702, Note_on_c, 0, 40, 81
1, 301711, Control_c, 0, 64, 0
1, 301714, Note_on_c, 0, 48, 35
1, 301731, Note_off_c, 0, 67, 64
1, 301732, Note_off_c, 0, 75, 62
1, 301735, Note_off_c, 0, 70, 65
1, 301740, Control_c, 0, 64, 37
1, 301741, Note_on_c, 0, 42, 35
1, 301750, Note_off_c, 0, 48, 31
1, 301755, Control_c, 0, 64, 62
1, 301768, Note_on_c, 0, 52, 95
1, 301770, Control_c, 0, 64, 84
1, 301779, Note_off_c, 0, 42, 51
1, 301785, Control_c, 0, 64, 127
1, 301792, Note_off_c, 0, 40, 55
1, 301810, Note_off_c, 0, 52, 64
1, 301851, Note_on_c, 0, 59, 92
1, 301852, Note_on_c, 0, 68, 87
1, 301853, Poly_aftertouch_c, 0, 41, 127
1, 301856, Note_on_c, 0, 64, 73
1, 301871, Note_off_c, 0, 59, 69
1, 301874, Poly_aftertouch_c, 0, 41, 0
1, 301876, Note_off_c, 0, 68, 64
1, 301878, Note_off_c, 0, 64, 70
1, 301928, Note_on_c, 0, 63, 85
1, 301936, Note_on_c, 0, 67, 85
1, 301939, Note_on_c, 0, 59, 93
1, 301943, Note_on_c, 0, 28, 93
1, 301987, Note_off_c, 0, 59, 60
1, 301991, Note_off_c, 0, 67, 60
1, 302006, Note_on_c, 0, 40, 85
1, 302009, Note_off_c, 0, 28, 63
1, 302023, Note_off_c, 0, 63, 60
1, 302042, Poly_aftertouch_c, 0, 34, 127
1, 302046, Note_off_c, 0, 40, 63
1, 302083, Poly_aftertouch_c, 0, 34, 0
1, 302093, Note_on_c, 0, 57, 98
1, 302093, Note_on_c, 0, 69, 100
1, 302096, Note_on_c, 0, 64, 82
1, 302141, Note_off_c, 0, 57, 62
1, 302148, Note_off_c, 0, 69, 60
1, 302164, Note_off_c, 0, 64, 58
1, 302215, Control_c, 0, 64, 90
1, 302217, Note_on_c, 0, 45, 102
1, 302218, Note_on_c, 0, 69, 103
1, 302219, Note_on_c, 0, 57, 101
1, 302221, Note_on_c, 0, 33, 100
1, 302224, Note_on_c, 0, 64, 76
1, 302230, Control_c, 0, 64, 40
1, 302245, Control_c, 0, 64, 0
1, 302311, Note_off_c, 0, 64, 64
1, 302311, Note_off_c, 0, 69, 64
1, 302311, Control_c, 0, 64, 62
1, 302326, Control_c, 0, 64, 92
1, 302328, Note_off_c, 0, 57, 65
1, 302341, Note_off_c, 0, 33, 62
1, 302341, Control_c, 0, 64, 127
1, 302354, Note_off_c, 0, 45, 61
1, 302474, Control_c, 0, 64, 75
1, 302477, Note_on_c, 0, 53, 102
1, 302489, Control_c, 0, 64, 18
1, 302504, Control_c, 0, 64, 0
1, 302512, Note_off_c, 0, 53, 62
1, 302584, Note_on_c, 0, 52, 95
1, 302630, Note_off_c, 0, 52, 67
1, 302711, Note_on_c, 0, 62, 101
1, 302713, Note_on_c, 0, 52, 113
1, 302713, Note_on_c, 0, 57, 106
1, 302719, Note_on_c, 0, 40, 93
1, 302757, Control_c, 0, 64, 55
1, 302772, Control_c, 0, 64, 81
1, 302786, Control_c, 0, 64, 127
1, 302810, Note_off_c, 0, 52, 63
1, 302811, Note_off_c, 0, 57, 64
1, 302817, Note_off_c, 0, 40, 63
1, 302826, Note_off_c, 0, 62, 63
1, 302934, Control_c, 0, 64, 89
1, 302949, Control_c, 0, 64, 57
1, 302956, Note_on_c, 0, 60, 93
1, 302964, Control_c, 0, 64, 0
1, 302990, Note_off_c, 0, 60, 66
1, 303068, Note_on_c, 0, 59, 93
1, 303104, Note_off_c, 0, 59, 66
1, 303186, Note_on_c, 0, 45, 99
1, 303190, Note_on_c, 0, 38, 90
1, 303193, Note_on_c, 0, 69, 105
1, 303194, Note_on_c, 0, 62, 99
1, 303197, Note_on_c, 0, 66, 91
1, 303208, Control_c, 0, 64, 12
1, 303223, Control_c, 0, 64, 63
1, 303238, Control_c, 0, 64, 84
1, 303252, Control_c, 0, 64, 127
1, 303254, Note_off_c, 0, 62, 59
1, 303261, Note_off_c, 0, 45, 65
1, 303265, Note_off_c, 0, 69, 64
1, 303269, Note_off_c, 0, 66, 63
1, 303277, Note_off_c, 0, 38, 61
1, 303370, Control_c, 0, 64, 107
1, 303385, Control_c, 0, 64, 69
1, 303400, Control_c, 0, 64, 0
1, 303429, Note_on_c, 0, 54, 96
1, 303470, Note_off_c, 0, 54, 65
1, 303531, Note_on_c, 0, 52, 93
1, 303573, Note_off_c, 0, 52, 66
1, 303648, Note_on_c, 0, 47, 101
1, 303652, Note_on_c, 0, 40, 91
1, 303652, Note_on_c, 0, 62, 98
1, 303654, Note_on_c, 0, 57, 103
1, 303655, Note_on_c, 0, 69, 96
1, 303677, Note_on_c, 0, 67, 62
1, 303697, Control_c, 0, 64, 65
1, 303699, Note_off_c, 0, 67, 42
1, 303712, Control_c, 0, 64, 92
1, 303726, Control_c, 0, 64, 127
1, 303759, Note_off_c, 0, 57, 62
1, 303768, Note_off_c, 0, 69, 62
1, 303769, Note_off_c, 0, 47, 60
1, 303773, Note_off_c, 0, 62, 63
1, 303780, Note_off_c, 0, 40, 62
1, 303897, Control_c, 0, 64, 98
1, 303899, Note_on_c, 0, 60, 100
1, 303912, Control_c, 0, 64, 65
1, 303927, Control_c, 0, 64, 0
1, 303944, Note_off_c, 0, 60, 68
1, 304012, Note_on_c, 0, 59, 100
1, 304060, Note_off_c, 0, 59, 66
1, 304162, Note_on_c, 0, 45, 99
1, 304165, Note_on_c, 0, 33, 89
1, 304166, Note_on_c, 0, 69, 100
1, 304167, Note_on_c, 0, 57, 99
1, 304172, Note_on_c, 0, 64, 88
1, 304266, Control_c, 0, 64, 35
1, 304274, Poly_aftertouch_c, 0, 36, 0
1, 304281, Control_c, 0, 64, 63
1, 304296, Control_c, 0, 64, 83
1, 304300, Note_off_c, 0, 33, 64
1, 304311, Control_c, 0, 64, 127
1, 304333, Note_off_c, 0, 57, 65
1, 304340, Note_off_c, 0, 45, 64
1, 304406, Note_off_c, 0, 69, 60
1, 304423, Note_off_c, 0, 64, 58
1, 304542, Control_c, 0, 64, 110
1, 304556, Control_c, 0, 64, 94
1, 304571, Control_c, 0, 64, 86
1, 304586, Control_c, 0, 64, 81
1, 304601, Control_c, 0, 64, 77
1, 304615, Control_c, 0, 64, 75
1, 304630, Control_c, 0, 64, 72
1, 304645, Control_c, 0, 64, 69
1, 304660, Control_c, 0, 64, 65
1, 304675, Control_c, 0, 64, 62
1, 304677, Note_on_c, 0, 68, 74
1, 304689, Control_c, 0, 64, 60
1, 304704, Control_c, 0, 64, 58
1, 304719, Control_c, 0, 64, 55
1, 304728, Note_on_c, 0, 69, 80
1, 304734, Control_c, 0, 64, 49
1, 304749, Control_c, 0, 64, 39
1, 304760, Note_off_c, 0, 68, 62
1, 304764, Control_c, 0, 64, 19
1, 304779, Control_c, 0, 64, 0
1, 304785, Note_on_c, 0, 71, 82
1, 304795, Note_off_c, 0, 69, 65
1, 304822, Note_off_c, 0, 71, 64
1, 304833, Note_on_c, 0, 72, 87
1, 304882, Note_on_c, 0, 74, 80
1, 304922, Note_off_c, 0, 72, 63
1, 304937, Note_on_c, 0, 76, 77
1, 304955, Note_off_c, 0, 74, 65
1, 304969, Note_off_c, 0, 76, 65
1, 305019, Note_on_c, 0, 61, 95
1, 305019, Note_on_c, 0, 65, 97
1, 305023, Note_on_c, 0, 73, 89
1, 305024, Note_on_c, 0, 49, 76
1, 305026, Note_on_c, 0, 53, 73
1, 305026, Note_on_c, 0, 77, 83
1, 305050, Note_off_c, 0, 77, 67
1, 305051, Note_off_c, 0, 61, 60
1, 305056, Note_off_c, 0, 49, 66
1, 305057, Note_off_c, 0, 73, 66
1, 305059, Note_off_c, 0, 65, 64
1, 305073, Note_off_c, 0, 53, 61
1, 305112, Note_on_c, 0, 73, 86
1, 305115, Note_on_c, 0, 65, 91
1, 305119, Note_on_c, 0, 77, 84
1, 305123, Note_on_c, 0, 61, 91
1, 305129, Note_on_c, 0, 49, 74
1, 305131, Note_on_c, 0, 53, 65
1, 305140, Note_off_c, 0, 77, 69
1, 305143, Note_off_c, 0, 61, 69
1, 305146, Note_off_c, 0, 65, 63
1, 305149, Note_off_c, 0, 73, 67
1, 305159, Note_off_c, 0, 49, 67
1, 305169, Note_off_c, 0, 53, 64
1, 305204, Note_on_c, 0, 65, 99
1, 305205, Note_on_c, 0, 61, 104
1, 305206, Note_on_c, 0, 73, 90
1, 305206, Note_on_c, 0, 77, 93
1, 305213, Note_on_c, 0, 49, 78
1, 305219, Note_on_c, 0, 53, 78
1, 305232, Note_off_c, 0, 77, 62
1, 305238, Note_off_c, 0, 65, 64
1, 305238, Note_off_c, 0, 73, 67
1, 305244, Note_off_c, 0, 61, 65
1, 305245, Note_off_c, 0, 49, 64
1, 305257, Note_off_c, 0, 53, 66
1, 305445, Note_on_c, 0, 61, 101
1, 305449, Note_on_c, 0, 65, 102
1, 305449, Note_on_c, 0, 77, 100
1, 305452, Note_on_c, 0, 73, 98
1, 305452, Note_on_c, 0, 49, 82
1, 305458, Note_on_c, 0, 53, 68
1, 305471, Note_off_c, 0, 73, 67
1, 305474, Note_off_c, 0, 65, 65
1, 305479, Note_off_c, 0, 77, 64
1, 305494, Note_off_c, 0, 61, 61
1, 305497, Note_off_c, 0, 53, 61
1, 305504, Note_off_c, 0, 49, 59
1, 305684, Note_on_c, 0, 61, 104
1, 305685, Note_on_c, 0, 77, 103
1, 305686, Note_on_c, 0, 65, 100
1, 305689, Note_on_c, 0, 73, 94
1, 305693, Note_on_c, 0, 53, 68
1, 305694, Note_on_c, 0, 49, 68
1, 305706, Note_off_c, 0, 65, 65
1, 305719, Note_off_c, 0, 49, 67
1, 305722, Note_off_c, 0, 53, 65
1, 305727, Note_off_c, 0, 73, 62
1, 305728, Note_off_c, 0, 77, 64
1, 305743, Note_off_c, 0, 61, 62
1, 305926, Note_on_c, 0, 60, 81
1, 305926, Note_on_c, 0, 64, 106
1, 305926, Note_on_c, 0, 84, 109
1, 305928, Note_on_c, 0, 72, 107
1, 305928, Note_on_c, 0, 76, 96
1, 305931, Note_on_c, 0, 81, 83
1, 305932, Note_on_c, 0, 57, 87
1, 305958, Control_c, 0, 64, 51
1, 305973, Control_c, 0, 64, 75
1, 305988, Control_c, 0, 64, 127
1, 306027, Note_off_c, 0, 64, 63
1, 306057, Note_off_c, 0, 60, 65
1, 306065, Note_off_c, 0, 57, 63
1, 306069, Note_off_c, 0, 84, 65
1, 306087, Note_off_c, 0, 72, 57
1, 306096, Note_off_c, 0, 81, 63
1, 306119, Note_off_c, 0, 76, 62
1, 306306, Control_c, 0, 64, 111
1, 306321, Control_c, 0, 64, 71
1, 306335, Control_c, 0, 64, 0
1, 306470, Note_on_c, 0, 33, 98
1, 306472, Note_on_c, 0, 21, 92
1, 306475, Note_on_c, 0, 45, 116
1, 306499, Control_c, 0, 64, 17
1, 306511, Note_on_c, 0, 24, 39
1, 306514, Control_c, 0, 64, 127
1, 306528, Note_off_c, 0, 45, 55
1, 306529, Note_off_c, 0, 21, 65
1, 306545, Note_off_c, 0, 33, 67
1, 306558, Note_off_c, 0, 24, 47
1, 306775, Note_on_c, 0, 52, 104
1, 306856, Note_off_c, 0, 52, 65
1, 307041, Note_on_c, 0, 81, 98
1, 307044, Note_on_c, 0, 93, 100
1, 307069, Note_off_c, 0, 93, 65
1, 307077, Note_off_c, 0, 81, 63
1, 307114, Note_on_c, 0, 69, 108
1, 307115, Note_on_c, 0, 57, 99
1, 307116, Note_on_c, 0, 93, 103
1, 307118, Note_on_c, 0, 81, 97
1, 307162, Note_on_c, 0, 60, 22
1, 307202, Note_off_c, 0, 60, 42
1, 307322, Note_off_c, 0, 81, 63
1, 307330, Note_off_c, 0, 93, 66
1, 307330, Note_off_c, 0, 57, 60
1, 307337, Note_off_c, 0, 69, 52
1, 307455, Control_c, 0, 64, 96
1, 307470, Control_c, 0, 64, 77
1, 307484, Control_c, 0, 64, 69
1, 307506, Control_c, 0, 64, 65
1, 307521, Control_c, 0, 64, 63
1, 307536, Control_c, 0, 64, 58
1, 307552, Control_c, 0, 64, 52
1, 307567, Control_c, 0, 64, 48
1, 307581, Control_c, 0, 64, 43
1, 307596, Control_c, 0, 64, 39
1, 307611, Control_c, 0, 64, 33
1, 307625, Control_c, 0, 64, 30
1, 307640, Control_c, 0, 64, 30
1, 307655, Control_c, 0, 64, 29
1, 307685, Control_c, 0, 64, 29
1, 307700, Control_c, 0, 64, 27
1, 307996, Control_c, 0, 64, 28
1, 308011, Control_c, 0, 64, 28
1, 308025, Control_c, 0, 64, 29
1, 308085, Control_c, 0, 64, 29
1, 308099, Control_c, 0, 64, 30
1, 308159, Control_c, 0, 64, 30
1, 308360, Control_c, 0, 64, 31
1, 308404, Control_c, 0, 64, 31
1, 308449, Control_c, 0, 64, 32
1, 308493, Control_c, 0, 64, 32
1, 308553, Control_c, 0, 64, 33
1, 308597, Control_c, 0, 64, 33
1, 308642, Control_c, 0, 64, 34
1, 308657, Control_c, 0, 64, 34
1, 308790, Control_c, 0, 64, 35
1, 308835, Control_c, 0, 64, 35
1, 309138, Control_c, 0, 64, 36
1, 309184, Control_c, 0, 64, 36
1, 309199, Control_c, 0, 64, 37
1, 309243, Control_c, 0, 64, 38
1, 309258, Control_c, 0, 64, 38
1, 309302, Control_c, 0, 64, 39
1, 309332, Control_c, 0, 64, 39
1, 309361, Control_c, 0, 64, 40
1, 309376, Control_c, 0, 64, 40
1, 309391, Control_c, 0, 64, 41
1, 309420, Control_c, 0, 64, 41
1, 309465, Control_c, 0, 64, 42
1, 309539, Control_c, 0, 64, 42
1, 309584, Control_c, 0, 64, 43
1, 309613, Control_c, 0, 64, 43
1, 309643, Control_c, 0, 64, 44
1, 309687, Control_c, 0, 64, 44
1, 309798, Control_c, 0, 64, 45
1, 309813, Control_c, 0, 64, 45
1, 309828, Control_c, 0, 64, 46
1, 309872, Control_c, 0, 64, 46
1, 309917, Control_c, 0, 64, 47
1, 310169, Control_c, 0, 64, 46
1, 310198, Control_c, 0, 64, 46
1, 310287, Control_c, 0, 64, 45
1, 310362, Control_c, 0, 64, 45
1, 310420, Control_c, 0, 64, 44
1, 310650, Control_c, 0, 64, 44
1, 310680, Control_c, 0, 64, 43
1, 310709, Control_c, 0, 64, 43
1, 310739, Control_c, 0, 64, 42
1, 310770, Control_c, 0, 64, 42
1, 310903, Control_c, 0, 64, 42
1, 310947, Control_c, 0, 64, 43
1, 311036, Control_c, 0, 64, 43
1, 311051, Control_c, 0, 64, 44
1, 311065, Control_c, 0, 64, 45
1, 311080, Control_c, 0, 64, 46
1, 311095, Control_c, 0, 64, 46
1, 311185, Control_c, 0, 64, 46
1, 311199, Control_c, 0, 64, 45
1, 311214, Control_c, 0, 64, 45
1, 311229, Control_c, 0, 64, 44
1, 311250, Control_c, 0, 64, 43
1, 311265, Control_c, 0, 64, 43
1, 311280, Control_c, 0, 64, 42
1, 311295, Control_c, 0, 64, 41
1, 311310, Control_c, 0, 64, 40
1, 311325, Control_c, 0, 64, 39
1, 311340, Control_c, 0, 64, 39
1, 311355, Control_c, 0, 64, 38
1, 311369, Control_c, 0, 64, 38
1, 311399, Control_c, 0, 64, 37
1, 311414, Control_c, 0, 64, 37
1, 311458, Control_c, 0, 64, 36
1, 311726, Control_c, 0, 64, 37
1, 311740, Control_c, 0, 64, 37
1, 311755, Control_c, 0, 64, 38
1, 312029, Control_c, 0, 64, 37
1, 312044, Control_c, 0, 64, 37
1, 312088, Control_c, 0, 64, 36
1, 312148, Control_c, 0, 64, 36
1, 312177, Control_c, 0, 64, 35
1, 312281, Control_c, 0, 64, 35
1, 312341, Control_c, 0, 64, 34
1, 312446, Control_c, 0, 64, 34
1, 312461, Control_c, 0, 64, 33
1, 312653, Control_c, 0, 64, 33
1, 312765, Control_c, 0, 64, 33
1, 312794, Control_c, 0, 64, 34
1, 312809, Control_c, 0, 64, 36
1, 312823, Control_c, 0, 64, 38
1, 312838, Control_c, 0, 64, 40
1, 312853, Control_c, 0, 64, 40
1, 313283, Control_c, 0, 64, 40
1, 313313, Control_c, 0, 64, 39
1, 313343, Control_c, 0, 64, 39
1, 313358, Control_c, 0, 64, 38
1, 313373, Control_c, 0, 64, 38
1, 313513, Control_c, 0, 64, 37
1, 313528, Control_c, 0, 64, 37
1, 313543, Control_c, 0, 64, 35
1, 313557, Control_c, 0, 64, 34
1, 313572, Control_c, 0, 64, 33
1, 313587, Control_c, 0, 64, 31
1, 313602, Control_c, 0, 64, 29
1, 313617, Control_c, 0, 64, 27
1, 313632, Control_c, 0, 64, 26
1, 313646, Control_c, 0, 64, 25
1, 313661, Control_c, 0, 64, 25
1, 313765, Control_c, 0, 64, 24
1, 313780, Control_c, 0, 64, 20
1, 313794, Control_c, 0, 64, 0
1, 313869, End_track
0, 0, End_of_file
