0, 0, Header, 0, 1, 384
1, 0, Start_track
1, 0, Title_t, "SchubertOp142No3--Kim           "
1, 0, Text_t, "2011 ePiano Junior Competition"
1, 0, Text_t, "captured in spring and summer 2011"
1, 0, Text_t, "http://www.piano-e-competition.com/"
1, 0, Text_t, "standard-resolution version"
1, 0, Text_t, "File processed for distribution with software designed and coded by Dr. John Q. Walker, founder of Zenph Sound Innovations"
1, 0, Instrument_name_t, "Yamaha Disklavier Pro Mark IV concert grand piano, model DCFIIISM4PRO"
1, 0, Sequencer_specific, 39, 67, 113, 0, 1, 0, 1, 0, 83, 99, 104, 117, 98, 101, 114, 116, 79, 112, 49, 52, 50, 78, 111, 51, 83, 117, 89, 101, 111, 110, 32, 75, 105, 109, 32, 32, 32, 32, 32, 32
1, 0, Sequencer_specific, 6, 67, 113, 0, 0, 0, 69
1, 0, System_exclusive, 21, 67, 113, 126, 21, 0, 2, 2, 2, 5, 12, 8, 4, 14, 1, 3, 9, 0, 14, 7, 5, 247
1, 0, Sequencer_specific, 5, 67, 123, 12, 2, 1
1, 0, Tempo, 512820
1, 0, Time_signature, 4, 2, 24, 8
1, 0, System_exclusive, 5, 126, 127, 9, 1, 247
1, 1, System_exclusive, 8, 67, 16, 76, 0, 0, 126, 0, 247
1, 2, System_exclusive, 8, 67, 16, 76, 8, 9, 7, 1, 247
1, 3, Control_c, 0, 0, 108
1, 3, Control_c, 1, 0, 108
1, 3, Control_c, 2, 0, 0
1, 3, Control_c, 3, 0, 0
1, 3, Control_c, 4, 0, 0
1, 3, Control_c, 5, 0, 0
1, 3, Control_c, 6, 0, 0
1, 3, Control_c, 7, 0, 0
1, 3, Control_c, 8, 0, 0
1, 3, Control_c, 9, 0, 127
1, 3, Control_c, 10, 0, 0
1, 3, Control_c, 11, 0, 0
1, 3, Control_c, 12, 0, 0
1, 3, Control_c, 13, 0, 0
1, 3, Control_c, 14, 0, 0
1, 3, Control_c, 15, 0, 0
1, 4, Control_c, 0, 32, 0
1, 4, Control_c, 1, 32, 0
1, 4, Control_c, 2, 32, 0
1, 4, Control_c, 3, 32, 0
1, 4, Control_c, 4, 32, 0
1, 4, Control_c, 5, 32, 0
1, 4, Control_c, 6, 32, 0
1, 4, Control_c, 7, 32, 0
1, 4, Control_c, 8, 32, 0
1, 4, Control_c, 9, 32, 0
1, 4, Control_c, 10, 32, 0
1, 4, Control_c, 11, 32, 0
1, 4, Control_c, 12, 32, 0
1, 4, Control_c, 13, 32, 0
1, 4, Control_c, 14, 32, 0
1, 4, Control_c, 15, 32, 0
1, 5, Program_c, 0, 0
1, 5, Program_c, 1, 0
1, 5, Program_c, 2, 0
1, 5, Program_c, 3, 0
1, 5, Program_c, 4, 0
1, 5, Program_c, 5, 0
1, 5, Program_c, 6, 0
1, 5, Program_c, 7, 0
1, 5, Program_c, 8, 0
1, 5, Program_c, 9, 0
1, 5, Program_c, 10, 0
1, 5, Program_c, 11, 0
1, 5, Program_c, 12, 0
1, 5, Program_c, 13, 0
1, 5, Program_c, 14, 0
1, 5, Program_c, 15, 0
1, 6, Control_c, 0, 7, 100
1, 6, Control_c, 1, 7, 100
1, 6, Control_c, 2, 7, 100
1, 6, Control_c, 3, 7, 100
1, 6, Control_c, 4, 7, 100
1, 6, Control_c, 5, 7, 100
1, 6, Control_c, 6, 7, 100
1, 6, Control_c, 7, 7, 100
1, 6, Control_c, 8, 7, 100
1, 6, Control_c, 9, 7, 100
1, 6, Control_c, 10, 7, 100
1, 6, Control_c, 11, 7, 100
1, 6, Control_c, 12, 7, 100
1, 6, Control_c, 13, 7, 100
1, 6, Control_c, 14, 7, 100
1, 6, Control_c, 15, 7, 100
1, 42, Control_c, 0, 64, 15
1, 79, Control_c, 0, 64, 31
1, 116, Control_c, 0, 64, 46
1, 153, Control_c, 0, 64, 63
1, 190, Control_c, 0, 64, 77
1, 226, Control_c, 0, 64, 94
1, 263, Control_c, 0, 64, 108
1, 300, Control_c, 0, 64, 127
1, 390, Note_on_c, 0, 46, 24
1, 417, Note_on_c, 0, 74, 46
1, 554, Note_off_c, 0, 46, 41
1, 660, Note_off_c, 0, 74, 52
1, 840, Note_on_c, 0, 62, 31
1, 1099, Note_on_c, 0, 74, 49
1, 1114, Note_on_c, 0, 58, 28
1, 1122, Note_on_c, 0, 53, 25
1, 1198, Note_off_c, 0, 62, 39
1, 1208, Note_off_c, 0, 74, 60
1, 1329, Note_off_c, 0, 53, 42
1, 1355, Note_on_c, 0, 74, 64
1, 1365, Note_on_c, 0, 62, 35
1, 1402, Note_off_c, 0, 58, 41
1, 1453, Note_off_c, 0, 74, 56
1, 1558, Control_c, 0, 64, 118
1, 1573, Control_c, 0, 64, 89
1, 1588, Control_c, 0, 64, 72
1, 1592, Note_off_c, 0, 62, 34
1, 1602, Control_c, 0, 64, 59
1, 1605, Note_on_c, 0, 70, 57
1, 1617, Control_c, 0, 64, 38
1, 1618, Note_on_c, 0, 50, 25
1, 1632, Control_c, 0, 64, 29
1, 1646, Control_c, 0, 64, 32
1, 1661, Control_c, 0, 64, 45
1, 1676, Control_c, 0, 64, 58
1, 1691, Control_c, 0, 64, 65
1, 1703, Note_off_c, 0, 50, 55
1, 1706, Control_c, 0, 64, 71
1, 1721, Control_c, 0, 64, 82
1, 1737, Control_c, 0, 64, 101
1, 1751, Control_c, 0, 64, 127
1, 1783, Note_off_c, 0, 70, 58
1, 1846, Note_on_c, 0, 65, 43
1, 2079, Note_on_c, 0, 70, 56
1, 2086, Note_on_c, 0, 58, 40
1, 2113, Note_on_c, 0, 53, 26
1, 2152, Note_off_c, 0, 65, 28
1, 2259, Note_off_c, 0, 70, 50
1, 2292, Note_off_c, 0, 53, 40
1, 2333, Note_on_c, 0, 65, 41
1, 2369, Note_off_c, 0, 65, 55
1, 2391, Note_off_c, 0, 58, 62
1, 2560, Control_c, 0, 64, 100
1, 2574, Control_c, 0, 64, 74
1, 2583, Note_on_c, 0, 48, 40
1, 2587, Note_on_c, 0, 69, 55
1, 2589, Control_c, 0, 64, 60
1, 2604, Control_c, 0, 64, 32
1, 2619, Control_c, 0, 64, 27
1, 2634, Control_c, 0, 64, 37
1, 2648, Control_c, 0, 64, 50
1, 2663, Control_c, 0, 64, 62
1, 2678, Control_c, 0, 64, 69
1, 2692, Note_off_c, 0, 48, 58
1, 2692, Control_c, 0, 64, 78
1, 2707, Control_c, 0, 64, 94
1, 2722, Control_c, 0, 64, 127
1, 2809, Note_off_c, 0, 69, 57
1, 2838, Note_on_c, 0, 63, 44
1, 3075, Note_on_c, 0, 57, 40
1, 3085, Note_on_c, 0, 69, 66
1, 3091, Note_on_c, 0, 53, 40
1, 3160, Note_off_c, 0, 63, 34
1, 3210, Note_off_c, 0, 69, 62
1, 3322, Note_on_c, 0, 63, 44
1, 3326, Note_on_c, 0, 69, 69
1, 3344, Note_off_c, 0, 53, 43
1, 3355, Note_off_c, 0, 57, 60
1, 3359, Note_off_c, 0, 63, 64
1, 3396, Note_off_c, 0, 69, 63
1, 3513, Note_on_c, 0, 69, 58
1, 3560, Control_c, 0, 64, 108
1, 3575, Control_c, 0, 64, 88
1, 3589, Control_c, 0, 64, 72
1, 3599, Note_on_c, 0, 41, 33
1, 3604, Control_c, 0, 64, 55
1, 3613, Note_off_c, 0, 69, 59
1, 3619, Control_c, 0, 64, 20
1, 3622, Note_on_c, 0, 75, 55
1, 3634, Control_c, 0, 64, 0
1, 3663, Control_c, 0, 64, 11
1, 3678, Control_c, 0, 64, 33
1, 3693, Control_c, 0, 64, 54
1, 3708, Control_c, 0, 64, 65
1, 3723, Control_c, 0, 64, 73
1, 3732, Note_off_c, 0, 41, 55
1, 3738, Control_c, 0, 64, 88
1, 3753, Control_c, 0, 64, 127
1, 3913, Note_on_c, 0, 60, 37
1, 4144, Note_on_c, 0, 57, 30
1, 4156, Note_on_c, 0, 53, 32
1, 4230, Note_off_c, 0, 60, 40
1, 4396, Note_on_c, 0, 60, 32
1, 4429, Note_off_c, 0, 53, 40
1, 4462, Note_off_c, 0, 57, 50
1, 4474, Note_off_c, 0, 60, 54
1, 4534, Note_off_c, 0, 75, 40
1, 4657, Control_c, 0, 64, 123
1, 4671, Control_c, 0, 64, 106
1, 4686, Control_c, 0, 64, 94
1, 4701, Control_c, 0, 64, 81
1, 4705, Note_on_c, 0, 46, 33
1, 4709, Note_on_c, 0, 74, 50
1, 4716, Control_c, 0, 64, 66
1, 4731, Control_c, 0, 64, 51
1, 4745, Control_c, 0, 64, 29
1, 4760, Control_c, 0, 64, 28
1, 4775, Control_c, 0, 64, 32
1, 4790, Control_c, 0, 64, 43
1, 4805, Control_c, 0, 64, 55
1, 4820, Control_c, 0, 64, 64
1, 4835, Control_c, 0, 64, 70
1, 4850, Control_c, 0, 64, 80
1, 4853, Note_off_c, 0, 46, 44
1, 4864, Control_c, 0, 64, 95
1, 4879, Control_c, 0, 64, 127
1, 4943, Note_off_c, 0, 74, 57
1, 5008, Note_on_c, 0, 62, 37
1, 5246, Note_on_c, 0, 74, 63
1, 5255, Note_on_c, 0, 58, 39
1, 5279, Note_on_c, 0, 53, 32
1, 5343, Note_off_c, 0, 62, 37
1, 5392, Note_off_c, 0, 74, 61
1, 5481, Note_off_c, 0, 53, 41
1, 5500, Note_on_c, 0, 74, 79
1, 5501, Note_on_c, 0, 62, 44
1, 5540, Note_off_c, 0, 62, 63
1, 5553, Note_off_c, 0, 58, 59
1, 5655, Note_off_c, 0, 74, 60
1, 5762, Control_c, 0, 64, 105
1, 5771, Note_on_c, 0, 39, 45
1, 5777, Control_c, 0, 64, 82
1, 5783, Note_on_c, 0, 74, 66
1, 5792, Control_c, 0, 64, 66
1, 5807, Control_c, 0, 64, 50
1, 5822, Control_c, 0, 64, 26
1, 5836, Control_c, 0, 64, 30
1, 5851, Control_c, 0, 64, 39
1, 5866, Control_c, 0, 64, 52
1, 5881, Control_c, 0, 64, 63
1, 5896, Control_c, 0, 64, 69
1, 5910, Control_c, 0, 64, 80
1, 5915, Note_off_c, 0, 39, 55
1, 5925, Control_c, 0, 64, 104
1, 5940, Control_c, 0, 64, 127
1, 6066, Note_on_c, 0, 67, 65
1, 6089, Note_on_c, 0, 60, 42
1, 6151, Note_off_c, 0, 74, 57
1, 6203, Note_off_c, 0, 67, 60
1, 6306, Note_on_c, 0, 51, 40
1, 6313, Note_on_c, 0, 58, 37
1, 6313, Note_on_c, 0, 55, 34
1, 6316, Note_on_c, 0, 67, 57
1, 6332, Control_c, 0, 64, 113
1, 6347, Control_c, 0, 64, 99
1, 6362, Control_c, 0, 64, 85
1, 6377, Control_c, 0, 64, 71
1, 6384, Note_off_c, 0, 60, 39
1, 6391, Control_c, 0, 64, 56
1, 6406, Control_c, 0, 64, 28
1, 6421, Control_c, 0, 64, 21
1, 6436, Control_c, 0, 64, 22
1, 6451, Control_c, 0, 64, 30
1, 6465, Control_c, 0, 64, 40
1, 6480, Control_c, 0, 64, 51
1, 6495, Control_c, 0, 64, 62
1, 6511, Control_c, 0, 64, 67
1, 6526, Control_c, 0, 64, 74
1, 6540, Control_c, 0, 64, 86
1, 6549, Note_off_c, 0, 51, 39
1, 6555, Control_c, 0, 64, 109
1, 6567, Note_on_c, 0, 60, 37
1, 6570, Control_c, 0, 64, 127
1, 6588, Note_off_c, 0, 55, 44
1, 6597, Note_off_c, 0, 58, 51
1, 6616, Note_off_c, 0, 60, 61
1, 6664, Note_off_c, 0, 67, 26
1, 6829, Control_c, 0, 64, 123
1, 6844, Control_c, 0, 64, 97
1, 6859, Control_c, 0, 64, 79
1, 6865, Note_on_c, 0, 72, 47
1, 6868, Note_on_c, 0, 40, 35
1, 6874, Control_c, 0, 64, 63
1, 6889, Control_c, 0, 64, 38
1, 6904, Control_c, 0, 64, 20
1, 6919, Control_c, 0, 64, 30
1, 6933, Control_c, 0, 64, 44
1, 6948, Control_c, 0, 64, 57
1, 6963, Control_c, 0, 64, 66
1, 6972, Note_off_c, 0, 40, 57
1, 6978, Control_c, 0, 64, 74
1, 6993, Control_c, 0, 64, 86
1, 7008, Control_c, 0, 64, 106
1, 7022, Control_c, 0, 64, 127
1, 7095, Note_off_c, 0, 72, 28
1, 7162, Note_on_c, 0, 60, 35
1, 7178, Note_on_c, 0, 71, 47
1, 7254, Note_off_c, 0, 71, 58
1, 7286, Note_on_c, 0, 72, 58
1, 7378, Note_off_c, 0, 72, 62
1, 7389, Note_on_c, 0, 71, 61
1, 7391, Note_on_c, 0, 52, 35
1, 7391, Note_on_c, 0, 55, 34
1, 7411, Note_on_c, 0, 58, 29
1, 7442, Note_off_c, 0, 60, 30
1, 7473, Note_off_c, 0, 71, 61
1, 7498, Note_on_c, 0, 72, 66
1, 7595, Note_off_c, 0, 52, 36
1, 7600, Note_off_c, 0, 72, 59
1, 7610, Note_on_c, 0, 74, 63
1, 7617, Note_on_c, 0, 60, 42
1, 7619, Note_off_c, 0, 55, 39
1, 7640, Note_off_c, 0, 58, 41
1, 7654, Note_off_c, 0, 60, 64
1, 7716, Note_off_c, 0, 74, 59
1, 7717, Note_on_c, 0, 72, 67
1, 7831, Control_c, 0, 64, 98
1, 7845, Control_c, 0, 64, 78
1, 7855, Note_off_c, 0, 72, 59
1, 7860, Control_c, 0, 64, 63
1, 7870, Note_on_c, 0, 41, 32
1, 7875, Note_on_c, 0, 65, 59
1, 7875, Control_c, 0, 64, 42
1, 7890, Control_c, 0, 64, 27
1, 7905, Control_c, 0, 64, 30
1, 7920, Control_c, 0, 64, 40
1, 7935, Control_c, 0, 64, 54
1, 7950, Control_c, 0, 64, 64
1, 7952, Note_off_c, 0, 41, 62
1, 7964, Control_c, 0, 64, 73
1, 7979, Control_c, 0, 64, 96
1, 7994, Control_c, 0, 64, 127
1, 8159, Note_on_c, 0, 60, 52
1, 8164, Note_on_c, 0, 57, 39
1, 8175, Note_on_c, 0, 53, 34
1, 8417, Control_c, 0, 64, 113
1, 8425, Note_on_c, 0, 62, 55
1, 8432, Control_c, 0, 64, 99
1, 8446, Note_on_c, 0, 58, 40
1, 8447, Control_c, 0, 64, 85
1, 8461, Control_c, 0, 64, 74
1, 8476, Control_c, 0, 64, 65
1, 8481, Note_off_c, 0, 60, 49
1, 8483, Note_off_c, 0, 57, 33
1, 8491, Control_c, 0, 64, 57
1, 8506, Control_c, 0, 64, 49
1, 8520, Control_c, 0, 64, 48
1, 8550, Control_c, 0, 64, 49
1, 8565, Control_c, 0, 64, 52
1, 8580, Control_c, 0, 64, 56
1, 8594, Control_c, 0, 64, 61
1, 8609, Control_c, 0, 64, 65
1, 8623, Control_c, 0, 64, 71
1, 8638, Control_c, 0, 64, 81
1, 8653, Control_c, 0, 64, 92
1, 8665, Note_off_c, 0, 58, 30
1, 8667, Control_c, 0, 64, 103
1, 8682, Control_c, 0, 64, 106
1, 8693, Note_off_c, 0, 62, 49
1, 8697, Control_c, 0, 64, 100
1, 8711, Control_c, 0, 64, 89
1, 8721, Note_on_c, 0, 63, 44
1, 8726, Control_c, 0, 64, 74
1, 8740, Note_on_c, 0, 60, 35
1, 8741, Control_c, 0, 64, 63
1, 8756, Control_c, 0, 64, 44
1, 8771, Control_c, 0, 64, 33
1, 8785, Control_c, 0, 64, 35
1, 8800, Control_c, 0, 64, 44
1, 8815, Control_c, 0, 64, 58
1, 8830, Control_c, 0, 64, 67
1, 8845, Control_c, 0, 64, 79
1, 8853, Note_off_c, 0, 63, 59
1, 8859, Control_c, 0, 64, 107
1, 8869, Note_off_c, 0, 53, 41
1, 8874, Control_c, 0, 64, 127
1, 8876, Note_off_c, 0, 65, 62
1, 8882, Note_off_c, 0, 60, 53
1, 9164, Control_c, 0, 64, 97
1, 9172, Note_on_c, 0, 46, 26
1, 9179, Control_c, 0, 64, 78
1, 9189, Note_on_c, 0, 86, 62
1, 9194, Control_c, 0, 64, 62
1, 9208, Control_c, 0, 64, 35
1, 9211, Note_on_c, 0, 74, 36
1, 9223, Control_c, 0, 64, 16
1, 9238, Control_c, 0, 64, 17
1, 9253, Control_c, 0, 64, 29
1, 9268, Control_c, 0, 64, 43
1, 9282, Control_c, 0, 64, 59
1, 9297, Control_c, 0, 64, 67
1, 9312, Control_c, 0, 64, 76
1, 9327, Control_c, 0, 64, 94
1, 9339, Note_off_c, 0, 46, 39
1, 9342, Control_c, 0, 64, 127
1, 9367, Note_off_c, 0, 74, 57
1, 9414, Note_off_c, 0, 86, 61
1, 9521, Note_on_c, 0, 62, 35
1, 9750, Note_on_c, 0, 86, 73
1, 9766, Note_on_c, 0, 58, 35
1, 9776, Note_on_c, 0, 53, 28
1, 9781, Note_on_c, 0, 74, 45
1, 9816, Note_off_c, 0, 62, 37
1, 9835, Note_off_c, 0, 74, 60
1, 9850, Note_off_c, 0, 86, 63
1, 9977, Note_off_c, 0, 53, 41
1, 10004, Note_on_c, 0, 86, 77
1, 10023, Note_on_c, 0, 74, 53
1, 10031, Note_on_c, 0, 62, 30
1, 10043, Note_off_c, 0, 58, 40
1, 10060, Note_off_c, 0, 74, 65
1, 10079, Note_off_c, 0, 86, 62
1, 10209, Note_off_c, 0, 62, 39
1, 10224, Control_c, 0, 64, 105
1, 10239, Control_c, 0, 64, 79
1, 10248, Note_on_c, 0, 82, 71
1, 10249, Note_on_c, 0, 50, 38
1, 10254, Control_c, 0, 64, 63
1, 10269, Control_c, 0, 64, 37
1, 10275, Note_on_c, 0, 70, 49
1, 10283, Control_c, 0, 64, 18
1, 10298, Control_c, 0, 64, 34
1, 10313, Control_c, 0, 64, 53
1, 10328, Control_c, 0, 64, 64
1, 10343, Control_c, 0, 64, 71
1, 10346, Note_off_c, 0, 50, 56
1, 10357, Control_c, 0, 64, 84
1, 10372, Control_c, 0, 64, 113
1, 10387, Control_c, 0, 64, 127
1, 10403, Note_off_c, 0, 70, 58
1, 10440, Note_off_c, 0, 82, 61
1, 10491, Note_on_c, 0, 65, 45
1, 10724, Note_on_c, 0, 82, 70
1, 10747, Note_on_c, 0, 53, 36
1, 10748, Note_on_c, 0, 58, 38
1, 10754, Note_on_c, 0, 70, 47
1, 10754, Note_off_c, 0, 65, 49
1, 10907, Note_off_c, 0, 82, 63
1, 10915, Note_off_c, 0, 53, 41
1, 10946, Note_off_c, 0, 70, 36
1, 10969, Note_on_c, 0, 65, 47
1, 11002, Note_off_c, 0, 65, 64
1, 11021, Note_off_c, 0, 58, 62
1, 11194, Control_c, 0, 64, 86
1, 11201, Note_on_c, 0, 48, 43
1, 11205, Note_on_c, 0, 81, 67
1, 11209, Control_c, 0, 64, 66
1, 11224, Control_c, 0, 64, 39
1, 11230, Note_on_c, 0, 69, 43
1, 11239, Control_c, 0, 64, 0
1, 11261, Control_c, 0, 64, 28
1, 11276, Control_c, 0, 64, 47
1, 11291, Control_c, 0, 64, 61
1, 11306, Control_c, 0, 64, 69
1, 11315, Note_off_c, 0, 48, 63
1, 11321, Control_c, 0, 64, 83
1, 11336, Control_c, 0, 64, 127
1, 11373, Note_off_c, 0, 69, 58
1, 11402, Note_off_c, 0, 81, 61
1, 11473, Note_on_c, 0, 63, 43
1, 11703, Note_on_c, 0, 81, 72
1, 11710, Note_on_c, 0, 57, 39
1, 11720, Note_on_c, 0, 53, 42
1, 11733, Note_on_c, 0, 69, 52
1, 11760, Note_off_c, 0, 63, 37
1, 11784, Note_off_c, 0, 69, 60
1, 11816, Note_off_c, 0, 81, 63
1, 11929, Note_on_c, 0, 81, 76
1, 11932, Note_on_c, 0, 63, 44
1, 11935, Note_off_c, 0, 57, 62
1, 11953, Note_on_c, 0, 69, 38
1, 11956, Note_off_c, 0, 53, 40
1, 11960, Note_off_c, 0, 63, 60
1, 11976, Note_off_c, 0, 81, 63
1, 11986, Note_off_c, 0, 69, 52
1, 12115, Note_on_c, 0, 81, 56
1, 12174, Control_c, 0, 64, 115
1, 12189, Control_c, 0, 64, 80
1, 12199, Note_off_c, 0, 81, 62
1, 12202, Note_on_c, 0, 41, 31
1, 12204, Control_c, 0, 64, 62
1, 12211, Note_on_c, 0, 87, 59
1, 12219, Control_c, 0, 64, 28
1, 12227, Note_on_c, 0, 75, 44
1, 12233, Control_c, 0, 64, 17
1, 12248, Control_c, 0, 64, 39
1, 12263, Control_c, 0, 64, 56
1, 12278, Control_c, 0, 64, 65
1, 12293, Control_c, 0, 64, 75
1, 12300, Note_off_c, 0, 41, 61
1, 12308, Control_c, 0, 64, 99
1, 12323, Control_c, 0, 64, 127
1, 12501, Note_on_c, 0, 60, 32
1, 12564, Note_off_c, 0, 75, 35
1, 12724, Note_on_c, 0, 57, 37
1, 12739, Note_on_c, 0, 53, 36
1, 12829, Note_off_c, 0, 60, 35
1, 12967, Note_off_c, 0, 87, 44
1, 12984, Note_on_c, 0, 60, 37
1, 13002, Note_off_c, 0, 57, 57
1, 13019, Note_off_c, 0, 53, 42
1, 13056, Note_off_c, 0, 60, 61
1, 13239, Note_on_c, 0, 46, 38
1, 13249, Control_c, 0, 64, 93
1, 13262, Note_on_c, 0, 86, 65
1, 13264, Control_c, 0, 64, 72
1, 13279, Control_c, 0, 64, 57
1, 13289, Note_on_c, 0, 74, 44
1, 13294, Control_c, 0, 64, 38
1, 13308, Control_c, 0, 64, 48
1, 13323, Control_c, 0, 64, 57
1, 13338, Control_c, 0, 64, 64
1, 13347, Note_off_c, 0, 46, 59
1, 13353, Control_c, 0, 64, 72
1, 13368, Control_c, 0, 64, 91
1, 13382, Control_c, 0, 64, 127
1, 13486, Note_off_c, 0, 74, 59
1, 13532, Note_on_c, 0, 62, 53
1, 13541, Note_off_c, 0, 86, 61
1, 13760, Note_on_c, 0, 58, 52
1, 13761, Note_on_c, 0, 86, 79
1, 13774, Note_on_c, 0, 53, 44
1, 13792, Note_on_c, 0, 74, 56
1, 13798, Note_off_c, 0, 62, 46
1, 13873, Note_off_c, 0, 74, 61
1, 13906, Note_off_c, 0, 86, 62
1, 13962, Note_off_c, 0, 53, 44
1, 14001, Note_on_c, 0, 62, 56
1, 14004, Note_off_c, 0, 58, 61
1, 14005, Note_on_c, 0, 86, 91
1, 14022, Note_on_c, 0, 74, 70
1, 14034, Note_off_c, 0, 62, 64
1, 14086, Note_off_c, 0, 74, 61
1, 14147, Note_off_c, 0, 86, 64
1, 14293, Note_on_c, 0, 40, 44
1, 14317, Control_c, 0, 64, 111
1, 14331, Control_c, 0, 64, 82
1, 14346, Note_on_c, 0, 91, 73
1, 14346, Control_c, 0, 64, 65
1, 14361, Control_c, 0, 64, 47
1, 14370, Note_on_c, 0, 79, 50
1, 14376, Control_c, 0, 64, 31
1, 14391, Control_c, 0, 64, 35
1, 14405, Control_c, 0, 64, 44
1, 14420, Control_c, 0, 64, 55
1, 14435, Control_c, 0, 64, 63
1, 14450, Control_c, 0, 64, 71
1, 14457, Note_off_c, 0, 40, 63
1, 14465, Control_c, 0, 64, 85
1, 14479, Control_c, 0, 64, 127
1, 14549, Note_off_c, 0, 79, 55
1, 14632, Note_off_c, 0, 91, 63
1, 14648, Note_on_c, 0, 61, 57
1, 14868, Note_on_c, 0, 58, 44
1, 14882, Note_on_c, 0, 91, 81
1, 14896, Note_on_c, 0, 52, 40
1, 14897, Note_on_c, 0, 55, 40
1, 14908, Note_on_c, 0, 79, 56
1, 14970, Note_off_c, 0, 61, 51
1, 15143, Note_on_c, 0, 82, 76
1, 15146, Note_on_c, 0, 61, 50
1, 15189, Note_off_c, 0, 52, 41
1, 15228, Note_off_c, 0, 58, 37
1, 15234, Note_off_c, 0, 91, 61
1, 15297, Note_off_c, 0, 82, 63
1, 15307, Note_off_c, 0, 61, 54
1, 15354, Note_off_c, 0, 55, 27
1, 15462, Note_on_c, 0, 60, 42
1, 15465, Note_on_c, 0, 84, 71
1, 15477, Note_on_c, 0, 53, 39
1, 15495, Note_on_c, 0, 58, 41
1, 15505, Note_on_c, 0, 82, 54
1, 15523, Note_off_c, 0, 79, 56
1, 15525, Control_c, 0, 64, 96
1, 15540, Control_c, 0, 64, 82
1, 15555, Control_c, 0, 64, 71
1, 15569, Control_c, 0, 64, 64
1, 15584, Control_c, 0, 64, 59
1, 15599, Control_c, 0, 64, 56
1, 15614, Control_c, 0, 64, 53
1, 15629, Control_c, 0, 64, 52
1, 15644, Control_c, 0, 64, 53
1, 15659, Control_c, 0, 64, 56
1, 15673, Control_c, 0, 64, 58
1, 15688, Control_c, 0, 64, 61
1, 15703, Control_c, 0, 64, 64
1, 15718, Control_c, 0, 64, 67
1, 15727, Note_on_c, 0, 57, 51
1, 15730, Note_on_c, 0, 81, 67
1, 15733, Control_c, 0, 64, 75
1, 15755, Control_c, 0, 64, 88
1, 15770, Control_c, 0, 64, 116
1, 15779, Note_off_c, 0, 82, 59
1, 15784, Control_c, 0, 64, 127
1, 15797, Note_off_c, 0, 58, 31
1, 15814, Note_off_c, 0, 57, 59
1, 15834, Note_off_c, 0, 81, 64
1, 15838, Note_on_c, 0, 55, 50
1, 15840, Note_on_c, 0, 79, 72
1, 15903, Control_c, 0, 64, 106
1, 15918, Control_c, 0, 64, 83
1, 15933, Control_c, 0, 64, 67
1, 15933, Note_off_c, 0, 79, 63
1, 15940, Note_off_c, 0, 55, 53
1, 15948, Control_c, 0, 64, 48
1, 15952, Note_on_c, 0, 57, 47
1, 15952, Note_on_c, 0, 81, 68
1, 15963, Control_c, 0, 64, 0
1, 15983, Note_off_c, 0, 53, 41
1, 16007, Control_c, 0, 64, 24
1, 16018, Note_off_c, 0, 60, 48
1, 16022, Control_c, 0, 64, 44
1, 16037, Control_c, 0, 64, 58
1, 16038, Note_off_c, 0, 81, 62
1, 16051, Control_c, 0, 64, 65
1, 16066, Control_c, 0, 64, 71
1, 16081, Control_c, 0, 64, 85
1, 16097, Control_c, 0, 64, 106
1, 16103, Note_on_c, 0, 75, 52
1, 16112, Control_c, 0, 64, 127
1, 16150, Note_off_c, 0, 75, 59
1, 16162, Note_on_c, 0, 81, 60
1, 16165, Note_off_c, 0, 84, 57
1, 16232, Note_on_c, 0, 60, 40
1, 16234, Note_on_c, 0, 89, 70
1, 16234, Note_on_c, 0, 53, 30
1, 16264, Note_off_c, 0, 81, 52
1, 16267, Note_off_c, 0, 57, 49
1, 16296, Note_off_c, 0, 53, 60
1, 16305, Note_off_c, 0, 60, 59
1, 16314, Note_off_c, 0, 89, 60
1, 16554, Note_on_c, 0, 46, 33
1, 16563, Control_c, 0, 64, 111
1, 16571, Note_on_c, 0, 82, 53
1, 16578, Control_c, 0, 64, 99
1, 16584, Note_on_c, 0, 74, 39
1, 16593, Control_c, 0, 64, 87
1, 16607, Control_c, 0, 64, 74
1, 16622, Control_c, 0, 64, 63
1, 16637, Control_c, 0, 64, 45
1, 16652, Control_c, 0, 64, 33
1, 16667, Control_c, 0, 64, 35
1, 16681, Control_c, 0, 64, 43
1, 16696, Control_c, 0, 64, 51
1, 16711, Control_c, 0, 64, 56
1, 16726, Control_c, 0, 64, 61
1, 16741, Control_c, 0, 64, 66
1, 16755, Control_c, 0, 64, 72
1, 16770, Control_c, 0, 64, 84
1, 16785, Control_c, 0, 64, 105
1, 16800, Control_c, 0, 64, 127
1, 16844, Note_on_c, 0, 58, 40
1, 16940, Note_off_c, 0, 74, 36
1, 16967, Note_off_c, 0, 82, 50
1, 17076, Note_on_c, 0, 53, 41
1, 17102, Note_on_c, 0, 50, 34
1, 17164, Note_off_c, 0, 58, 51
1, 17323, Note_off_c, 0, 46, 32
1, 17354, Note_on_c, 0, 58, 58
1, 17414, Note_off_c, 0, 50, 39
1, 17435, Note_off_c, 0, 58, 62
1, 17453, Note_off_c, 0, 53, 41
1, 17702, Note_on_c, 0, 50, 42
1, 17708, Note_on_c, 0, 38, 44
1, 17722, Note_on_c, 0, 74, 75
1, 17740, Note_on_c, 0, 66, 56
1, 17740, Note_on_c, 0, 69, 62
1, 17742, Control_c, 0, 64, 97
1, 17757, Control_c, 0, 64, 68
1, 17772, Control_c, 0, 64, 47
1, 17787, Control_c, 0, 64, 0
1, 17817, Control_c, 0, 64, 21
1, 17832, Control_c, 0, 64, 41
1, 17846, Control_c, 0, 64, 57
1, 17861, Control_c, 0, 64, 65
1, 17868, Note_off_c, 0, 38, 51
1, 17876, Control_c, 0, 64, 74
1, 17888, Note_off_c, 0, 50, 55
1, 17891, Control_c, 0, 64, 93
1, 17906, Control_c, 0, 64, 127
1, 18044, Note_off_c, 0, 66, 58
1, 18067, Note_off_c, 0, 69, 59
1, 18073, Note_on_c, 0, 62, 59
1, 18113, Note_off_c, 0, 74, 62
1, 18294, Note_on_c, 0, 74, 77
1, 18300, Note_on_c, 0, 57, 39
1, 18307, Note_on_c, 0, 54, 44
1, 18314, Note_on_c, 0, 69, 60
1, 18315, Note_on_c, 0, 66, 55
1, 18363, Note_off_c, 0, 62, 54
1, 18395, Note_off_c, 0, 66, 60
1, 18407, Note_off_c, 0, 69, 63
1, 18434, Note_off_c, 0, 74, 62
1, 18535, Note_on_c, 0, 74, 86
1, 18547, Note_on_c, 0, 62, 53
1, 18550, Note_on_c, 0, 69, 68
1, 18556, Note_on_c, 0, 66, 61
1, 18561, Note_off_c, 0, 57, 62
1, 18568, Note_off_c, 0, 54, 43
1, 18583, Note_off_c, 0, 62, 64
1, 18649, Note_off_c, 0, 66, 60
1, 18654, Note_off_c, 0, 69, 58
1, 18675, Note_off_c, 0, 74, 61
1, 18783, Note_on_c, 0, 70, 82
1, 18785, Note_on_c, 0, 43, 47
1, 18794, Control_c, 0, 64, 82
1, 18799, Note_on_c, 0, 67, 60
1, 18809, Note_on_c, 0, 62, 55
1, 18809, Control_c, 0, 64, 63
1, 18824, Control_c, 0, 64, 0
1, 18869, Control_c, 0, 64, 23
1, 18884, Control_c, 0, 64, 49
1, 18899, Control_c, 0, 64, 59
1, 18914, Control_c, 0, 64, 66
1, 18929, Control_c, 0, 64, 76
1, 18929, Note_off_c, 0, 43, 62
1, 18943, Control_c, 0, 64, 99
1, 18958, Control_c, 0, 64, 127
1, 18965, Note_off_c, 0, 62, 55
1, 19006, Note_off_c, 0, 67, 59
1, 19033, Note_off_c, 0, 70, 59
1, 19037, Note_on_c, 0, 58, 61
1, 19271, Note_on_c, 0, 55, 41
1, 19273, Note_on_c, 0, 70, 71
1, 19288, Note_on_c, 0, 50, 37
1, 19292, Note_on_c, 0, 67, 52
1, 19298, Note_on_c, 0, 62, 47
1, 19310, Note_off_c, 0, 58, 54
1, 19429, Note_off_c, 0, 62, 56
1, 19513, Note_on_c, 0, 58, 57
1, 19515, Note_off_c, 0, 70, 57
1, 19525, Note_off_c, 0, 50, 40
1, 19525, Note_off_c, 0, 67, 36
1, 19546, Note_off_c, 0, 55, 61
1, 19592, Note_off_c, 0, 58, 60
1, 19769, Note_on_c, 0, 43, 41
1, 19775, Note_on_c, 0, 70, 69
1, 19784, Note_on_c, 0, 67, 48
1, 19795, Control_c, 0, 64, 121
1, 19802, Note_on_c, 0, 62, 50
1, 19810, Control_c, 0, 64, 86
1, 19824, Control_c, 0, 64, 71
1, 19839, Control_c, 0, 64, 61
1, 19854, Control_c, 0, 64, 50
1, 19869, Control_c, 0, 64, 51
1, 19884, Control_c, 0, 64, 55
1, 19898, Control_c, 0, 64, 60
1, 19913, Control_c, 0, 64, 64
1, 19915, Note_off_c, 0, 43, 61
1, 19928, Control_c, 0, 64, 70
1, 19942, Control_c, 0, 64, 85
1, 19957, Control_c, 0, 64, 127
1, 20011, Poly_aftertouch_c, 0, 68, 127
1, 20024, Note_on_c, 0, 58, 56
1, 20056, Poly_aftertouch_c, 0, 68, 0
1, 20058, Note_off_c, 0, 62, 39
1, 20063, Note_off_c, 0, 70, 61
1, 20105, Note_on_c, 0, 72, 63
1, 20157, Note_on_c, 0, 70, 76
1, 20161, Note_off_c, 0, 67, 44
1, 20188, Note_off_c, 0, 72, 62
1, 20216, Note_off_c, 0, 58, 55
1, 20220, Note_on_c, 0, 69, 79
1, 20230, Note_on_c, 0, 50, 38
1, 20230, Note_on_c, 0, 55, 43
1, 20243, Note_off_c, 0, 70, 63
1, 20262, Note_on_c, 0, 62, 48
1, 20262, Control_c, 0, 64, 87
1, 20277, Control_c, 0, 64, 67
1, 20292, Control_c, 0, 64, 46
1, 20307, Control_c, 0, 64, 0
1, 20351, Control_c, 0, 64, 34
1, 20365, Control_c, 0, 64, 52
1, 20380, Control_c, 0, 64, 61
1, 20392, Note_off_c, 0, 62, 58
1, 20395, Control_c, 0, 64, 69
1, 20408, Note_off_c, 0, 69, 62
1, 20410, Control_c, 0, 64, 82
1, 20425, Control_c, 0, 64, 127
1, 20488, Note_on_c, 0, 67, 79
1, 20491, Note_on_c, 0, 58, 53
1, 20500, Control_c, 0, 64, 105
1, 20513, Note_on_c, 0, 62, 62
1, 20514, Control_c, 0, 64, 77
1, 20529, Control_c, 0, 64, 60
1, 20544, Control_c, 0, 64, 27
1, 20559, Control_c, 0, 64, 38
1, 20571, Note_off_c, 0, 55, 56
1, 20573, Control_c, 0, 64, 51
1, 20578, Note_off_c, 0, 58, 64
1, 20584, Note_off_c, 0, 50, 56
1, 20588, Control_c, 0, 64, 58
1, 20603, Control_c, 0, 64, 64
1, 20618, Control_c, 0, 64, 70
1, 20633, Control_c, 0, 64, 82
1, 20647, Control_c, 0, 64, 113
1, 20660, Note_off_c, 0, 62, 58
1, 20662, Control_c, 0, 64, 127
1, 20700, Note_off_c, 0, 67, 59
1, 20810, Control_c, 0, 64, 102
1, 20814, Note_on_c, 0, 36, 41
1, 20819, Note_on_c, 0, 72, 68
1, 20825, Control_c, 0, 64, 81
1, 20839, Control_c, 0, 64, 65
1, 20840, Note_on_c, 0, 64, 48
1, 20843, Note_on_c, 0, 67, 40
1, 20854, Control_c, 0, 64, 35
1, 20869, Control_c, 0, 64, 0
1, 20915, Control_c, 0, 64, 18
1, 20930, Control_c, 0, 64, 45
1, 20944, Control_c, 0, 64, 61
1, 20959, Control_c, 0, 64, 69
1, 20961, Note_off_c, 0, 36, 61
1, 20974, Control_c, 0, 64, 79
1, 20996, Control_c, 0, 64, 103
1, 21011, Control_c, 0, 64, 127
1, 21131, Note_on_c, 0, 55, 38
1, 21210, Note_off_c, 0, 64, 56
1, 21253, Note_off_c, 0, 67, 58
1, 21373, Note_on_c, 0, 52, 36
1, 21385, Note_on_c, 0, 48, 35
1, 21480, Note_off_c, 0, 55, 43
1, 21638, Note_on_c, 0, 70, 53
1, 21638, Note_on_c, 0, 55, 36
1, 21641, Note_off_c, 0, 48, 39
1, 21664, Note_off_c, 0, 52, 42
1, 21677, Control_c, 0, 67, 13
1, 21692, Control_c, 0, 67, 24
1, 21707, Control_c, 0, 67, 37
1, 21722, Control_c, 0, 67, 48
1, 21728, Note_off_c, 0, 72, 32
1, 21745, Control_c, 0, 67, 58
1, 21747, Note_off_c, 0, 55, 55
1, 21760, Control_c, 0, 67, 67
1, 21774, Control_c, 0, 67, 76
1, 21789, Control_c, 0, 67, 85
1, 21804, Control_c, 0, 67, 96
1, 21818, Control_c, 0, 67, 103
1, 21833, Control_c, 0, 67, 109
1, 21848, Control_c, 0, 67, 112
1, 21863, Control_c, 0, 67, 113
1, 21878, Control_c, 0, 67, 114
1, 21892, Control_c, 0, 67, 115
1, 21915, Note_off_c, 0, 70, 60
1, 21922, Control_c, 0, 67, 115
1, 21952, Control_c, 0, 64, 113
1, 21966, Control_c, 0, 64, 106
1, 21981, Control_c, 0, 64, 99
1, 21990, Note_on_c, 0, 41, 30
1, 21996, Control_c, 0, 64, 92
1, 22011, Control_c, 0, 64, 83
1, 22017, Note_on_c, 0, 69, 45
1, 22026, Control_c, 0, 64, 71
1, 22035, Note_on_c, 0, 65, 32
1, 22041, Control_c, 0, 64, 53
1, 22047, Note_on_c, 0, 60, 30
1, 22056, Control_c, 0, 64, 0
1, 22115, Control_c, 0, 64, 11
1, 22115, Control_c, 0, 67, 115
1, 22130, Control_c, 0, 64, 42
1, 22145, Control_c, 0, 64, 59
1, 22145, Control_c, 0, 67, 114
1, 22159, Control_c, 0, 64, 67
1, 22159, Control_c, 0, 67, 114
1, 22162, Note_off_c, 0, 41, 53
1, 22174, Control_c, 0, 64, 74
1, 22174, Control_c, 0, 67, 113
1, 22189, Control_c, 0, 64, 88
1, 22189, Control_c, 0, 67, 112
1, 22204, Control_c, 0, 64, 114
1, 22204, Control_c, 0, 67, 112
1, 22218, Control_c, 0, 64, 127
1, 22253, Note_off_c, 0, 60, 36
1, 22263, Control_c, 0, 67, 111
1, 22273, Note_off_c, 0, 69, 37
1, 22275, Note_off_c, 0, 65, 40
1, 22292, Control_c, 0, 67, 110
1, 22327, Note_on_c, 0, 57, 42
1, 22351, Control_c, 0, 67, 110
1, 22455, Control_c, 0, 67, 109
1, 22470, Control_c, 0, 67, 109
1, 22494, Control_c, 0, 67, 108
1, 22560, Note_on_c, 0, 69, 60
1, 22582, Note_off_c, 0, 57, 49
1, 22589, Note_on_c, 0, 53, 31
1, 22589, Note_on_c, 0, 60, 44
1, 22594, Note_on_c, 0, 65, 43
1, 22595, Note_on_c, 0, 48, 27
1, 22597, Control_c, 0, 67, 107
1, 22627, Control_c, 0, 67, 107
1, 22650, Note_off_c, 0, 60, 52
1, 22651, Note_off_c, 0, 65, 57
1, 22661, Note_off_c, 0, 69, 58
1, 22780, Note_off_c, 0, 48, 40
1, 22809, Note_on_c, 0, 69, 62
1, 22822, Note_on_c, 0, 57, 36
1, 22839, Note_on_c, 0, 60, 50
1, 22851, Note_off_c, 0, 57, 54
1, 22853, Note_on_c, 0, 65, 41
1, 22861, Note_off_c, 0, 53, 41
1, 22905, Note_off_c, 0, 65, 58
1, 22907, Note_off_c, 0, 60, 57
1, 22911, Note_off_c, 0, 69, 60
1, 22998, Control_c, 0, 67, 107
1, 23027, Control_c, 0, 64, 102
1, 23042, Control_c, 0, 64, 78
1, 23057, Control_c, 0, 64, 56
1, 23063, Note_on_c, 0, 67, 48
1, 23066, Note_on_c, 0, 34, 34
1, 23072, Control_c, 0, 64, 0
1, 23081, Note_on_c, 0, 65, 39
1, 23093, Note_on_c, 0, 62, 42
1, 23102, Control_c, 0, 67, 107
1, 23131, Control_c, 0, 64, 45
1, 23146, Control_c, 0, 64, 61
1, 23160, Note_off_c, 0, 34, 58
1, 23160, Control_c, 0, 64, 71
1, 23175, Control_c, 0, 64, 83
1, 23190, Control_c, 0, 64, 107
1, 23205, Control_c, 0, 64, 127
1, 23205, Control_c, 0, 67, 106
1, 23220, Control_c, 0, 67, 105
1, 23247, Note_off_c, 0, 62, 52
1, 23266, Note_off_c, 0, 65, 50
1, 23287, Note_off_c, 0, 67, 57
1, 23287, Control_c, 0, 67, 105
1, 23331, Note_on_c, 0, 55, 35
1, 23346, Control_c, 0, 67, 104
1, 23436, Control_c, 0, 67, 103
1, 23495, Control_c, 0, 67, 103
1, 23554, Control_c, 0, 67, 102
1, 23574, Note_on_c, 0, 67, 48
1, 23591, Note_on_c, 0, 65, 39
1, 23594, Note_on_c, 0, 53, 26
1, 23599, Control_c, 0, 67, 102
1, 23600, Note_on_c, 0, 50, 20
1, 23609, Note_on_c, 0, 62, 34
1, 23643, Control_c, 0, 67, 101
1, 23652, Note_off_c, 0, 55, 40
1, 23732, Control_c, 0, 67, 100
1, 23765, Note_off_c, 0, 65, 41
1, 23778, Note_off_c, 0, 62, 35
1, 23808, Note_on_c, 0, 55, 34
1, 23827, Note_off_c, 0, 67, 58
1, 23829, Note_off_c, 0, 50, 40
1, 23861, Note_off_c, 0, 53, 39
1, 23865, Control_c, 0, 67, 100
1, 23886, Note_off_c, 0, 55, 62
1, 23954, Control_c, 0, 67, 99
1, 23990, Control_c, 0, 67, 98
1, 24035, Control_c, 0, 67, 98
1, 24080, Control_c, 0, 64, 111
1, 24095, Control_c, 0, 64, 88
1, 24101, Note_on_c, 0, 67, 45
1, 24110, Control_c, 0, 64, 72
1, 24110, Control_c, 0, 67, 97
1, 24121, Note_on_c, 0, 64, 37
1, 24125, Control_c, 0, 64, 59
1, 24128, Note_on_c, 0, 60, 35
1, 24140, Control_c, 0, 64, 41
1, 24142, Note_on_c, 0, 36, 27
1, 24155, Control_c, 0, 64, 43
1, 24169, Control_c, 0, 64, 50
1, 24184, Control_c, 0, 64, 58
1, 24199, Control_c, 0, 64, 64
1, 24214, Control_c, 0, 64, 71
1, 24219, Note_off_c, 0, 36, 61
1, 24229, Control_c, 0, 64, 83
1, 24244, Control_c, 0, 64, 114
1, 24258, Control_c, 0, 64, 127
1, 24343, Note_off_c, 0, 64, 59
1, 24362, Control_c, 0, 67, 98
1, 24374, Note_on_c, 0, 69, 54
1, 24383, Note_on_c, 0, 55, 41
1, 24404, Note_on_c, 0, 48, 34
1, 24406, Control_c, 0, 67, 98
1, 24416, Note_off_c, 0, 67, 36
1, 24451, Control_c, 0, 67, 99
1, 24471, Note_on_c, 0, 70, 68
1, 24472, Note_off_c, 0, 69, 62
1, 24525, Control_c, 0, 67, 100
1, 24554, Control_c, 0, 64, 121
1, 24569, Control_c, 0, 64, 97
1, 24583, Note_off_c, 0, 60, 40
1, 24583, Note_on_c, 0, 69, 76
1, 24584, Control_c, 0, 64, 81
1, 24592, Note_off_c, 0, 55, 55
1, 24599, Control_c, 0, 64, 69
1, 24601, Note_on_c, 0, 57, 43
1, 24601, Note_off_c, 0, 70, 56
1, 24613, Control_c, 0, 64, 59
1, 24615, Note_on_c, 0, 65, 49
1, 24628, Control_c, 0, 64, 45
1, 24643, Control_c, 0, 64, 41
1, 24658, Control_c, 0, 64, 42
1, 24673, Control_c, 0, 64, 45
1, 24688, Control_c, 0, 64, 50
1, 24703, Control_c, 0, 64, 56
1, 24717, Control_c, 0, 64, 62
1, 24740, Control_c, 0, 64, 68
1, 24755, Control_c, 0, 64, 77
1, 24769, Control_c, 0, 64, 93
1, 24784, Control_c, 0, 64, 123
1, 24799, Control_c, 0, 64, 127
1, 24812, Note_off_c, 0, 57, 56
1, 24828, Control_c, 0, 64, 96
1, 24829, Note_on_c, 0, 67, 76
1, 24843, Control_c, 0, 64, 78
1, 24843, Control_c, 0, 67, 100
1, 24847, Note_off_c, 0, 65, 58
1, 24850, Note_on_c, 0, 58, 49
1, 24850, Note_on_c, 0, 64, 54
1, 24858, Control_c, 0, 64, 65
1, 24861, Note_off_c, 0, 69, 58
1, 24873, Control_c, 0, 64, 47
1, 24889, Control_c, 0, 64, 29
1, 24904, Control_c, 0, 64, 37
1, 24918, Control_c, 0, 64, 47
1, 24933, Control_c, 0, 64, 59
1, 24943, Note_off_c, 0, 58, 64
1, 24948, Control_c, 0, 64, 66
1, 24955, Note_off_c, 0, 64, 57
1, 24955, Note_off_c, 0, 48, 57
1, 24963, Control_c, 0, 64, 73
1, 24978, Control_c, 0, 64, 86
1, 24992, Control_c, 0, 64, 106
1, 25007, Control_c, 0, 64, 127
1, 25051, Control_c, 0, 64, 116
1, 25066, Control_c, 0, 64, 90
1, 25081, Control_c, 0, 64, 71
1, 25096, Control_c, 0, 64, 51
1, 25097, Note_on_c, 0, 65, 62
1, 25105, Note_on_c, 0, 41, 42
1, 25108, Note_off_c, 0, 67, 61
1, 25110, Control_c, 0, 64, 0
1, 25140, Control_c, 0, 67, 100
1, 25155, Control_c, 0, 64, 31
1, 25170, Control_c, 0, 64, 53
1, 25184, Control_c, 0, 64, 64
1, 25199, Control_c, 0, 64, 73
1, 25201, Note_off_c, 0, 41, 64
1, 25214, Control_c, 0, 64, 84
1, 25228, Control_c, 0, 64, 100
1, 25243, Control_c, 0, 64, 127
1, 25258, Control_c, 0, 67, 99
1, 25376, Note_on_c, 0, 57, 42
1, 25376, Note_on_c, 0, 60, 57
1, 25376, Control_c, 0, 67, 98
1, 25391, Note_on_c, 0, 53, 42
1, 25391, Control_c, 0, 67, 98
1, 25406, Control_c, 0, 67, 97
1, 25466, Control_c, 0, 67, 97
1, 25517, Control_c, 0, 67, 96
1, 25576, Control_c, 0, 64, 123
1, 25591, Control_c, 0, 64, 114
1, 25606, Control_c, 0, 64, 107
1, 25621, Control_c, 0, 64, 101
1, 25636, Control_c, 0, 64, 94
1, 25651, Control_c, 0, 64, 87
1, 25665, Note_on_c, 0, 58, 40
1, 25665, Note_on_c, 0, 62, 51
1, 25665, Control_c, 0, 64, 77
1, 25680, Control_c, 0, 64, 69
1, 25696, Control_c, 0, 64, 61
1, 25697, Note_off_c, 0, 57, 34
1, 25711, Control_c, 0, 64, 49
1, 25726, Control_c, 0, 64, 45
1, 25726, Control_c, 0, 67, 95
1, 25730, Note_off_c, 0, 60, 57
1, 25740, Control_c, 0, 67, 95
1, 25755, Control_c, 0, 67, 94
1, 25770, Control_c, 0, 64, 45
1, 25770, Control_c, 0, 67, 93
1, 25785, Control_c, 0, 64, 49
1, 25785, Control_c, 0, 67, 92
1, 25800, Control_c, 0, 64, 54
1, 25800, Control_c, 0, 67, 92
1, 25814, Control_c, 0, 64, 59
1, 25814, Control_c, 0, 67, 90
1, 25829, Control_c, 0, 64, 63
1, 25829, Control_c, 0, 67, 89
1, 25844, Control_c, 0, 64, 67
1, 25844, Control_c, 0, 67, 88
1, 25859, Control_c, 0, 64, 73
1, 25859, Control_c, 0, 67, 88
1, 25874, Control_c, 0, 64, 81
1, 25874, Control_c, 0, 67, 87
1, 25889, Control_c, 0, 64, 87
1, 25889, Control_c, 0, 67, 86
1, 25904, Control_c, 0, 64, 89
1, 25904, Control_c, 0, 67, 85
1, 25919, Control_c, 0, 64, 88
1, 25919, Control_c, 0, 67, 82
1, 25933, Control_c, 0, 64, 87
1, 25933, Control_c, 0, 67, 75
1, 25943, Note_off_c, 0, 58, 24
1, 25948, Control_c, 0, 64, 84
1, 25948, Control_c, 0, 67, 72
1, 25963, Note_off_c, 0, 62, 38
1, 25963, Control_c, 0, 64, 78
1, 25963, Control_c, 0, 67, 70
1, 25975, Note_on_c, 0, 63, 38
1, 25978, Control_c, 0, 64, 71
1, 25978, Control_c, 0, 67, 68
1, 25993, Control_c, 0, 64, 62
1, 25993, Control_c, 0, 67, 64
1, 25996, Note_on_c, 0, 60, 29
1, 26007, Control_c, 0, 64, 47
1, 26007, Control_c, 0, 67, 60
1, 26022, Control_c, 0, 64, 38
1, 26022, Control_c, 0, 67, 55
1, 26037, Control_c, 0, 64, 43
1, 26037, Control_c, 0, 67, 48
1, 26051, Control_c, 0, 64, 50
1, 26051, Control_c, 0, 67, 42
1, 26066, Control_c, 0, 64, 57
1, 26066, Control_c, 0, 67, 35
1, 26081, Control_c, 0, 64, 63
1, 26081, Control_c, 0, 67, 27
1, 26096, Control_c, 0, 64, 67
1, 26096, Control_c, 0, 67, 18
1, 26110, Note_off_c, 0, 63, 52
1, 26111, Control_c, 0, 64, 75
1, 26111, Control_c, 0, 67, 9
1, 26116, Note_off_c, 0, 60, 50
1, 26125, Control_c, 0, 64, 89
1, 26125, Control_c, 0, 67, 0
1, 26133, Note_off_c, 0, 53, 41
1, 26138, Note_off_c, 0, 65, 61
1, 26140, Control_c, 0, 64, 107
1, 26155, Control_c, 0, 64, 127
1, 26399, Control_c, 0, 64, 115
1, 26414, Control_c, 0, 64, 106
1, 26429, Control_c, 0, 64, 97
1, 26444, Control_c, 0, 64, 85
1, 26449, Note_on_c, 0, 46, 27
1, 26458, Control_c, 0, 64, 72
1, 26461, Note_on_c, 0, 86, 57
1, 26473, Control_c, 0, 64, 61
1, 26485, Note_on_c, 0, 74, 34
1, 26489, Control_c, 0, 64, 40
1, 26504, Control_c, 0, 64, 32
1, 26519, Control_c, 0, 64, 38
1, 26534, Control_c, 0, 64, 47
1, 26549, Control_c, 0, 64, 56
1, 26563, Control_c, 0, 64, 63
1, 26578, Control_c, 0, 64, 68
1, 26594, Control_c, 0, 64, 75
1, 26608, Control_c, 0, 64, 91
1, 26623, Control_c, 0, 64, 117
1, 26626, Note_off_c, 0, 46, 38
1, 26638, Control_c, 0, 64, 127
1, 26653, Note_off_c, 0, 74, 57
1, 26697, Note_off_c, 0, 86, 58
1, 26790, Note_on_c, 0, 62, 33
1, 27034, Note_on_c, 0, 86, 69
1, 27053, Note_on_c, 0, 58, 35
1, 27062, Note_on_c, 0, 74, 46
1, 27063, Note_on_c, 0, 53, 30
1, 27107, Note_off_c, 0, 74, 63
1, 27117, Note_off_c, 0, 62, 37
1, 27125, Note_off_c, 0, 86, 60
1, 27259, Note_off_c, 0, 53, 40
1, 27271, Note_on_c, 0, 86, 73
1, 27295, Note_on_c, 0, 74, 51
1, 27312, Note_on_c, 0, 62, 38
1, 27330, Note_off_c, 0, 58, 37
1, 27344, Note_off_c, 0, 74, 60
1, 27349, Note_off_c, 0, 86, 62
1, 27493, Note_off_c, 0, 62, 40
1, 27505, Control_c, 0, 64, 103
1, 27520, Control_c, 0, 64, 80
1, 27526, Note_on_c, 0, 82, 67
1, 27528, Note_on_c, 0, 50, 38
1, 27535, Control_c, 0, 64, 62
1, 27546, Note_on_c, 0, 70, 50
1, 27550, Control_c, 0, 64, 37
1, 27565, Control_c, 0, 64, 23
1, 27579, Control_c, 0, 64, 36
1, 27594, Control_c, 0, 64, 49
1, 27609, Control_c, 0, 64, 60
1, 27624, Control_c, 0, 64, 68
1, 27633, Note_off_c, 0, 50, 58
1, 27639, Control_c, 0, 64, 78
1, 27654, Control_c, 0, 64, 102
1, 27669, Control_c, 0, 64, 127
1, 27683, Note_off_c, 0, 70, 54
1, 27722, Note_off_c, 0, 82, 60
1, 27786, Note_on_c, 0, 65, 54
1, 28023, Note_on_c, 0, 82, 69
1, 28034, Note_on_c, 0, 58, 44
1, 28046, Note_on_c, 0, 70, 53
1, 28065, Note_on_c, 0, 56, 30
1, 28095, Note_off_c, 0, 65, 51
1, 28156, Note_off_c, 0, 70, 60
1, 28264, Note_on_c, 0, 65, 51
1, 28271, Note_off_c, 0, 82, 63
1, 28338, Note_off_c, 0, 65, 60
1, 28523, Note_on_c, 0, 51, 55
1, 28543, Note_on_c, 0, 82, 66
1, 28554, Note_off_c, 0, 58, 36
1, 28558, Control_c, 0, 64, 100
1, 28573, Control_c, 0, 64, 84
1, 28588, Control_c, 0, 64, 72
1, 28603, Control_c, 0, 64, 63
1, 28613, Note_off_c, 0, 56, 41
1, 28617, Control_c, 0, 64, 56
1, 28632, Control_c, 0, 64, 56
1, 28647, Control_c, 0, 64, 58
1, 28661, Control_c, 0, 64, 60
1, 28676, Control_c, 0, 64, 63
1, 28691, Control_c, 0, 64, 66
1, 28706, Control_c, 0, 64, 71
1, 28721, Control_c, 0, 64, 81
1, 28736, Control_c, 0, 64, 102
1, 28751, Control_c, 0, 64, 127
1, 28780, Note_off_c, 0, 82, 63
1, 28786, Note_on_c, 0, 63, 54
1, 28868, Note_on_c, 0, 84, 65
1, 28918, Note_on_c, 0, 82, 72
1, 28929, Note_off_c, 0, 84, 62
1, 28971, Note_on_c, 0, 58, 54
1, 28974, Control_c, 0, 64, 104
1, 28980, Note_on_c, 0, 55, 51
1, 28982, Note_off_c, 0, 82, 64
1, 28984, Note_on_c, 0, 81, 78
1, 28989, Control_c, 0, 64, 91
1, 28990, Note_off_c, 0, 63, 52
1, 29004, Control_c, 0, 64, 81
1, 29019, Control_c, 0, 64, 72
1, 29033, Control_c, 0, 64, 67
1, 29063, Control_c, 0, 64, 69
1, 29077, Control_c, 0, 64, 73
1, 29092, Control_c, 0, 64, 77
1, 29101, Note_off_c, 0, 81, 57
1, 29102, Note_on_c, 0, 82, 78
1, 29107, Control_c, 0, 64, 83
1, 29122, Control_c, 0, 64, 95
1, 29137, Control_c, 0, 64, 107
1, 29151, Control_c, 0, 64, 111
1, 29166, Control_c, 0, 64, 103
1, 29172, Note_on_c, 0, 84, 71
1, 29173, Note_off_c, 0, 82, 64
1, 29181, Control_c, 0, 64, 94
1, 29196, Control_c, 0, 64, 85
1, 29210, Note_off_c, 0, 84, 62
1, 29211, Control_c, 0, 64, 77
1, 29216, Note_on_c, 0, 86, 73
1, 29233, Control_c, 0, 64, 72
1, 29240, Note_on_c, 0, 63, 62
1, 29248, Control_c, 0, 64, 71
1, 29263, Control_c, 0, 64, 73
1, 29264, Note_off_c, 0, 51, 34
1, 29265, Note_on_c, 0, 84, 79
1, 29269, Note_off_c, 0, 58, 52
1, 29278, Control_c, 0, 64, 76
1, 29292, Control_c, 0, 64, 81
1, 29307, Control_c, 0, 64, 92
1, 29313, Note_off_c, 0, 86, 59
1, 29322, Control_c, 0, 64, 111
1, 29337, Control_c, 0, 64, 127
1, 29354, Note_off_c, 0, 63, 51
1, 29424, Note_on_c, 0, 82, 83
1, 29429, Note_off_c, 0, 84, 66
1, 29535, Note_off_c, 0, 55, 26
1, 29555, Note_off_c, 0, 82, 57
1, 29598, Note_on_c, 0, 52, 38
1, 29616, Control_c, 0, 64, 121
1, 29631, Control_c, 0, 64, 97
1, 29642, Note_on_c, 0, 91, 73
1, 29646, Control_c, 0, 64, 81
1, 29661, Control_c, 0, 64, 67
1, 29664, Note_on_c, 0, 79, 52
1, 29677, Control_c, 0, 64, 48
1, 29692, Control_c, 0, 64, 24
1, 29706, Control_c, 0, 64, 24
1, 29721, Control_c, 0, 64, 24
1, 29736, Control_c, 0, 64, 34
1, 29751, Control_c, 0, 64, 47
1, 29766, Control_c, 0, 64, 58
1, 29780, Control_c, 0, 64, 64
1, 29795, Control_c, 0, 64, 71
1, 29804, Note_off_c, 0, 52, 57
1, 29810, Control_c, 0, 64, 83
1, 29825, Control_c, 0, 64, 111
1, 29840, Control_c, 0, 64, 127
1, 29969, Note_on_c, 0, 67, 46
1, 30004, Note_off_c, 0, 79, 34
1, 30146, Note_off_c, 0, 91, 52
1, 30229, Note_on_c, 0, 61, 45
1, 30253, Note_on_c, 0, 58, 34
1, 30322, Note_off_c, 0, 67, 36
1, 30492, Note_on_c, 0, 67, 39
1, 30499, Note_off_c, 0, 58, 33
1, 30560, Note_off_c, 0, 67, 60
1, 30590, Note_off_c, 0, 61, 59
1, 30891, Note_on_c, 0, 72, 57
1, 30900, Note_on_c, 0, 43, 33
1, 30901, Note_on_c, 0, 70, 48
1, 30908, Control_c, 0, 64, 101
1, 30910, Note_on_c, 0, 64, 45
1, 30922, Control_c, 0, 64, 85
1, 30937, Control_c, 0, 64, 70
1, 30952, Control_c, 0, 64, 58
1, 30967, Control_c, 0, 64, 44
1, 30982, Control_c, 0, 64, 48
1, 30997, Control_c, 0, 64, 54
1, 31011, Control_c, 0, 64, 58
1, 31026, Control_c, 0, 64, 62
1, 31041, Control_c, 0, 64, 67
1, 31055, Control_c, 0, 64, 75
1, 31067, Note_off_c, 0, 43, 55
1, 31070, Control_c, 0, 64, 94
1, 31085, Control_c, 0, 64, 127
1, 31201, Note_off_c, 0, 64, 49
1, 31240, Note_on_c, 0, 60, 48
1, 31268, Note_off_c, 0, 72, 59
1, 31277, Note_off_c, 0, 70, 38
1, 31486, Note_on_c, 0, 72, 73
1, 31488, Note_on_c, 0, 55, 39
1, 31492, Note_on_c, 0, 58, 43
1, 31505, Note_on_c, 0, 64, 56
1, 31511, Note_on_c, 0, 70, 56
1, 31537, Note_off_c, 0, 60, 49
1, 31618, Note_off_c, 0, 64, 60
1, 31624, Note_off_c, 0, 70, 59
1, 31640, Note_off_c, 0, 72, 63
1, 31726, Note_off_c, 0, 55, 56
1, 31735, Note_on_c, 0, 72, 89
1, 31743, Note_on_c, 0, 60, 52
1, 31746, Note_on_c, 0, 64, 70
1, 31750, Note_off_c, 0, 58, 56
1, 31755, Note_on_c, 0, 70, 67
1, 31783, Note_off_c, 0, 60, 64
1, 31868, Note_off_c, 0, 64, 61
1, 31871, Note_off_c, 0, 70, 61
1, 31900, Note_off_c, 0, 72, 62
1, 31985, Note_on_c, 0, 41, 50
1, 32005, Note_on_c, 0, 77, 85
1, 32011, Control_c, 0, 64, 101
1, 32024, Note_on_c, 0, 65, 65
1, 32026, Control_c, 0, 64, 75
1, 32030, Note_on_c, 0, 70, 56
1, 32031, Note_on_c, 0, 74, 62
1, 32041, Control_c, 0, 64, 59
1, 32056, Control_c, 0, 64, 0
1, 32086, Control_c, 0, 64, 17
1, 32101, Control_c, 0, 64, 39
1, 32116, Control_c, 0, 64, 55
1, 32131, Control_c, 0, 64, 65
1, 32146, Control_c, 0, 64, 75
1, 32158, Note_off_c, 0, 41, 64
1, 32161, Control_c, 0, 64, 98
1, 32175, Control_c, 0, 64, 127
1, 32294, Note_on_c, 0, 62, 67
1, 32319, Note_off_c, 0, 65, 59
1, 32337, Note_off_c, 0, 74, 57
1, 32345, Note_off_c, 0, 70, 61
1, 32365, Note_off_c, 0, 77, 62
1, 32513, Note_on_c, 0, 77, 86
1, 32515, Note_on_c, 0, 53, 46
1, 32515, Note_on_c, 0, 58, 52
1, 32532, Note_on_c, 0, 65, 67
1, 32535, Note_on_c, 0, 74, 66
1, 32542, Note_off_c, 0, 62, 56
1, 32544, Note_on_c, 0, 70, 57
1, 32770, Note_off_c, 0, 77, 60
1, 32771, Note_on_c, 0, 62, 64
1, 32790, Note_off_c, 0, 74, 61
1, 32796, Note_off_c, 0, 53, 46
1, 32823, Note_off_c, 0, 58, 62
1, 32830, Note_off_c, 0, 70, 61
1, 32839, Note_off_c, 0, 62, 62
1, 33078, Note_on_c, 0, 41, 44
1, 33097, Note_on_c, 0, 72, 76
1, 33124, Control_c, 0, 64, 97
1, 33128, Note_on_c, 0, 70, 57
1, 33139, Control_c, 0, 64, 75
1, 33144, Note_off_c, 0, 65, 56
1, 33153, Control_c, 0, 64, 59
1, 33168, Control_c, 0, 64, 26
1, 33183, Control_c, 0, 64, 21
1, 33198, Control_c, 0, 64, 34
1, 33213, Control_c, 0, 64, 50
1, 33228, Control_c, 0, 64, 61
1, 33243, Control_c, 0, 64, 68
1, 33252, Note_off_c, 0, 41, 64
1, 33257, Control_c, 0, 64, 80
1, 33272, Control_c, 0, 64, 110
1, 33287, Control_c, 0, 64, 127
1, 33374, Note_on_c, 0, 69, 68
1, 33385, Note_on_c, 0, 60, 56
1, 33431, Note_off_c, 0, 70, 53
1, 33473, Note_on_c, 0, 67, 74
1, 33477, Note_off_c, 0, 69, 63
1, 33574, Note_off_c, 0, 60, 62
1, 33583, Control_c, 0, 64, 95
1, 33588, Note_on_c, 0, 53, 51
1, 33589, Note_on_c, 0, 69, 78
1, 33598, Note_off_c, 0, 67, 58
1, 33598, Control_c, 0, 64, 72
1, 33612, Control_c, 0, 64, 57
1, 33627, Control_c, 0, 64, 30
1, 33642, Control_c, 0, 64, 35
1, 33657, Control_c, 0, 64, 47
1, 33672, Control_c, 0, 64, 59
1, 33687, Control_c, 0, 64, 67
1, 33702, Control_c, 0, 64, 79
1, 33705, Note_off_c, 0, 72, 60
1, 33725, Control_c, 0, 64, 119
1, 33740, Control_c, 0, 64, 127
1, 33756, Note_off_c, 0, 69, 61
1, 33814, Control_c, 0, 64, 94
1, 33823, Note_on_c, 0, 77, 78
1, 33828, Control_c, 0, 64, 72
1, 33833, Note_on_c, 0, 63, 44
1, 33837, Note_on_c, 0, 60, 39
1, 33843, Control_c, 0, 64, 57
1, 33851, Note_on_c, 0, 69, 53
1, 33858, Control_c, 0, 64, 38
1, 33872, Control_c, 0, 64, 49
1, 33887, Control_c, 0, 64, 57
1, 33902, Control_c, 0, 64, 63
1, 33907, Note_off_c, 0, 53, 59
1, 33911, Note_off_c, 0, 63, 61
1, 33917, Note_off_c, 0, 60, 64
1, 33917, Control_c, 0, 64, 69
1, 33932, Control_c, 0, 64, 81
1, 33946, Note_off_c, 0, 77, 58
1, 33946, Control_c, 0, 64, 111
1, 33961, Control_c, 0, 64, 127
1, 34056, Note_off_c, 0, 69, 59
1, 34081, Note_on_c, 0, 70, 64
1, 34108, Note_on_c, 0, 46, 35
1, 34110, Control_c, 0, 64, 110
1, 34111, Note_on_c, 0, 62, 43
1, 34125, Control_c, 0, 64, 90
1, 34140, Control_c, 0, 64, 74
1, 34155, Control_c, 0, 64, 58
1, 34170, Control_c, 0, 64, 18
1, 34185, Control_c, 0, 64, 0
1, 34229, Control_c, 0, 64, 17
1, 34244, Control_c, 0, 64, 35
1, 34259, Control_c, 0, 64, 47
1, 34273, Control_c, 0, 64, 56
1, 34288, Control_c, 0, 64, 63
1, 34303, Control_c, 0, 64, 66
1, 34318, Control_c, 0, 64, 69
1, 34331, Note_on_c, 0, 58, 41
1, 34333, Control_c, 0, 64, 76
1, 34347, Control_c, 0, 64, 85
1, 34362, Control_c, 0, 64, 99
1, 34377, Control_c, 0, 64, 127
1, 34426, Note_off_c, 0, 62, 33
1, 34577, Note_on_c, 0, 53, 38
1, 34602, Note_on_c, 0, 50, 31
1, 34675, Note_off_c, 0, 58, 34
1, 34771, Note_off_c, 0, 70, 35
1, 34834, Note_off_c, 0, 46, 35
1, 34841, Note_on_c, 0, 58, 39
1, 34844, Note_off_c, 0, 50, 40
1, 34902, Note_off_c, 0, 53, 41
1, 34907, Note_off_c, 0, 58, 58
1, 34933, Control_c, 0, 67, 8
1, 34948, Control_c, 0, 67, 17
1, 34963, Control_c, 0, 67, 26
1, 34978, Control_c, 0, 67, 32
1, 34993, Control_c, 0, 67, 38
1, 35008, Control_c, 0, 67, 45
1, 35022, Control_c, 0, 67, 52
1, 35037, Control_c, 0, 67, 57
1, 35052, Control_c, 0, 67, 61
1, 35067, Control_c, 0, 67, 63
1, 35082, Control_c, 0, 67, 63
1, 35096, Control_c, 0, 67, 65
1, 35111, Control_c, 0, 67, 67
1, 35126, Control_c, 0, 64, 104
1, 35126, Control_c, 0, 67, 69
1, 35130, Note_on_c, 0, 72, 57
1, 35141, Control_c, 0, 64, 84
1, 35141, Control_c, 0, 67, 70
1, 35142, Note_on_c, 0, 41, 36
1, 35152, Note_on_c, 0, 70, 46
1, 35156, Control_c, 0, 64, 68
1, 35170, Control_c, 0, 64, 51
1, 35185, Control_c, 0, 64, 38
1, 35200, Control_c, 0, 64, 45
1, 35222, Control_c, 0, 64, 53
1, 35237, Control_c, 0, 64, 60
1, 35252, Control_c, 0, 64, 65
1, 35255, Note_off_c, 0, 41, 61
1, 35267, Control_c, 0, 64, 74
1, 35282, Control_c, 0, 64, 88
1, 35297, Control_c, 0, 64, 127
1, 35327, Control_c, 0, 67, 70
1, 35356, Control_c, 0, 67, 69
1, 35389, Note_off_c, 0, 70, 55
1, 35416, Note_on_c, 0, 69, 50
1, 35416, Control_c, 0, 67, 68
1, 35430, Note_on_c, 0, 60, 41
1, 35431, Control_c, 0, 67, 68
1, 35461, Control_c, 0, 67, 67
1, 35503, Note_off_c, 0, 69, 59
1, 35527, Note_on_c, 0, 67, 51
1, 35549, Control_c, 0, 67, 66
1, 35578, Control_c, 0, 67, 66
1, 35592, Note_off_c, 0, 60, 55
1, 35607, Control_c, 0, 67, 65
1, 35615, Note_off_c, 0, 67, 55
1, 35622, Control_c, 0, 64, 105
1, 35637, Control_c, 0, 64, 81
1, 35637, Control_c, 0, 67, 65
1, 35642, Note_on_c, 0, 69, 49
1, 35645, Note_on_c, 0, 53, 37
1, 35652, Control_c, 0, 64, 67
1, 35666, Control_c, 0, 64, 54
1, 35666, Control_c, 0, 67, 64
1, 35681, Control_c, 0, 64, 45
1, 35681, Control_c, 0, 67, 63
1, 35696, Control_c, 0, 64, 51
1, 35696, Control_c, 0, 67, 63
1, 35711, Control_c, 0, 64, 56
1, 35726, Control_c, 0, 64, 62
1, 35726, Control_c, 0, 67, 62
1, 35741, Control_c, 0, 64, 68
1, 35756, Control_c, 0, 64, 80
1, 35756, Control_c, 0, 67, 61
1, 35762, Note_off_c, 0, 72, 61
1, 35771, Control_c, 0, 64, 111
1, 35786, Control_c, 0, 64, 127
1, 35789, Note_off_c, 0, 69, 61
1, 35800, Control_c, 0, 67, 61
1, 35815, Control_c, 0, 67, 60
1, 35830, Control_c, 0, 64, 103
1, 35845, Control_c, 0, 64, 81
1, 35860, Control_c, 0, 64, 67
1, 35860, Control_c, 0, 67, 60
1, 35862, Note_on_c, 0, 77, 62
1, 35874, Control_c, 0, 64, 56
1, 35884, Note_on_c, 0, 63, 33
1, 35887, Note_on_c, 0, 60, 32
1, 35889, Control_c, 0, 64, 57
1, 35900, Note_on_c, 0, 69, 39
1, 35904, Control_c, 0, 64, 62
1, 35918, Control_c, 0, 64, 66
1, 35933, Control_c, 0, 64, 72
1, 35940, Note_off_c, 0, 63, 59
1, 35944, Note_off_c, 0, 53, 43
1, 35948, Control_c, 0, 64, 86
1, 35950, Note_off_c, 0, 60, 62
1, 35958, Note_off_c, 0, 77, 60
1, 35970, Control_c, 0, 64, 127
1, 35970, Control_c, 0, 67, 60
1, 36000, Control_c, 0, 67, 61
1, 36030, Control_c, 0, 67, 62
1, 36087, Note_off_c, 0, 69, 46
1, 36119, Control_c, 0, 64, 121
1, 36134, Note_on_c, 0, 70, 54
1, 36134, Control_c, 0, 64, 97
1, 36148, Note_on_c, 0, 46, 39
1, 36149, Control_c, 0, 64, 80
1, 36149, Control_c, 0, 67, 63
1, 36161, Note_on_c, 0, 62, 38
1, 36164, Control_c, 0, 64, 66
1, 36179, Control_c, 0, 64, 49
1, 36194, Control_c, 0, 64, 29
1, 36209, Control_c, 0, 64, 36
1, 36223, Control_c, 0, 64, 43
1, 36238, Control_c, 0, 64, 50
1, 36253, Control_c, 0, 64, 56
1, 36268, Control_c, 0, 64, 62
1, 36283, Control_c, 0, 64, 69
1, 36297, Control_c, 0, 64, 76
1, 36312, Control_c, 0, 64, 88
1, 36327, Control_c, 0, 64, 106
1, 36341, Control_c, 0, 64, 127
1, 36380, Note_off_c, 0, 70, 51
1, 36406, Note_on_c, 0, 58, 49
1, 36423, Note_off_c, 0, 62, 35
1, 36667, Control_c, 0, 67, 63
1, 36669, Note_on_c, 0, 53, 62
1, 36739, Note_off_c, 0, 58, 59
1, 36754, Note_off_c, 0, 46, 40
1, 36808, Control_c, 0, 67, 64
1, 36952, Note_on_c, 0, 58, 71
1, 36962, Note_on_c, 0, 50, 51
1, 36972, Control_c, 0, 67, 65
1, 36990, Note_off_c, 0, 53, 57
1, 37042, Note_off_c, 0, 50, 62
1, 37046, Control_c, 0, 67, 65
1, 37061, Control_c, 0, 67, 66
1, 37106, Control_c, 0, 67, 66
1, 37150, Control_c, 0, 67, 67
1, 37179, Control_c, 0, 67, 68
1, 37204, Note_off_c, 0, 58, 60
1, 37312, Control_c, 0, 67, 68
1, 37327, Control_c, 0, 64, 118
1, 37341, Note_on_c, 0, 29, 38
1, 37342, Note_on_c, 0, 60, 58
1, 37342, Control_c, 0, 64, 101
1, 37346, Note_on_c, 0, 58, 56
1, 37357, Control_c, 0, 64, 87
1, 37371, Control_c, 0, 64, 72
1, 37386, Control_c, 0, 64, 61
1, 37401, Control_c, 0, 64, 42
1, 37416, Control_c, 0, 64, 42
1, 37431, Control_c, 0, 64, 46
1, 37446, Control_c, 0, 64, 50
1, 37468, Control_c, 0, 64, 54
1, 37483, Control_c, 0, 64, 59
1, 37497, Control_c, 0, 64, 64
1, 37507, Note_off_c, 0, 29, 57
1, 37512, Control_c, 0, 64, 69
1, 37527, Control_c, 0, 64, 75
1, 37542, Control_c, 0, 64, 84
1, 37557, Control_c, 0, 64, 92
1, 37571, Control_c, 0, 64, 98
1, 37586, Control_c, 0, 64, 100
1, 37601, Control_c, 0, 64, 101
1, 37616, Control_c, 0, 64, 102
1, 37631, Control_c, 0, 64, 104
1, 37646, Control_c, 0, 64, 106
1, 37661, Control_c, 0, 64, 107
1, 37676, Note_on_c, 0, 57, 63
1, 37676, Control_c, 0, 64, 108
1, 37684, Note_on_c, 0, 48, 47
1, 37706, Control_c, 0, 64, 109
1, 37720, Control_c, 0, 64, 110
1, 37750, Control_c, 0, 64, 110
1, 37752, Note_off_c, 0, 58, 39
1, 37810, Note_on_c, 0, 55, 63
1, 37817, Note_off_c, 0, 57, 59
1, 37855, Control_c, 0, 64, 110
1, 37869, Control_c, 0, 64, 108
1, 37884, Control_c, 0, 64, 107
1, 37899, Control_c, 0, 64, 107
1, 37914, Control_c, 0, 64, 105
1, 37929, Control_c, 0, 64, 103
1, 37944, Control_c, 0, 64, 101
1, 37959, Control_c, 0, 64, 99
1, 37974, Control_c, 0, 64, 97
1, 37988, Control_c, 0, 64, 94
1, 37991, Note_on_c, 0, 41, 39
1, 37991, Note_off_c, 0, 55, 54
1, 38003, Control_c, 0, 64, 88
1, 38015, Note_on_c, 0, 57, 54
1, 38018, Control_c, 0, 64, 80
1, 38032, Note_off_c, 0, 48, 37
1, 38033, Control_c, 0, 64, 69
1, 38048, Control_c, 0, 64, 55
1, 38062, Control_c, 0, 64, 34
1, 38077, Control_c, 0, 64, 35
1, 38092, Control_c, 0, 64, 40
1, 38107, Control_c, 0, 64, 47
1, 38121, Control_c, 0, 64, 54
1, 38136, Control_c, 0, 64, 59
1, 38151, Control_c, 0, 64, 65
1, 38166, Control_c, 0, 64, 72
1, 38166, Control_c, 0, 67, 68
1, 38180, Control_c, 0, 64, 82
1, 38190, Note_off_c, 0, 60, 59
1, 38195, Control_c, 0, 64, 99
1, 38218, Control_c, 0, 64, 127
1, 38218, Control_c, 0, 67, 67
1, 38273, Note_off_c, 0, 57, 57
1, 38381, Control_c, 0, 64, 123
1, 38395, Control_c, 0, 64, 112
1, 38410, Control_c, 0, 64, 101
1, 38424, Note_on_c, 0, 65, 47
1, 38425, Control_c, 0, 64, 86
1, 38433, Note_on_c, 0, 51, 41
1, 38439, Control_c, 0, 64, 72
1, 38447, Note_on_c, 0, 57, 35
1, 38448, Note_on_c, 0, 48, 35
1, 38454, Control_c, 0, 64, 60
1, 38471, Control_c, 0, 64, 35
1, 38485, Control_c, 0, 64, 25
1, 38485, Control_c, 0, 67, 66
1, 38500, Control_c, 0, 64, 35
1, 38515, Control_c, 0, 64, 44
1, 38530, Control_c, 0, 64, 52
1, 38544, Control_c, 0, 64, 58
1, 38559, Control_c, 0, 64, 63
1, 38574, Control_c, 0, 64, 68
1, 38589, Control_c, 0, 64, 75
1, 38589, Control_c, 0, 67, 66
1, 38604, Control_c, 0, 64, 86
1, 38618, Control_c, 0, 64, 106
1, 38624, Note_off_c, 0, 41, 30
1, 38633, Note_off_c, 0, 65, 36
1, 38633, Control_c, 0, 64, 127
1, 38636, Note_off_c, 0, 51, 52
1, 38685, Note_off_c, 0, 48, 39
1, 38731, Note_off_c, 0, 57, 42
1, 38811, Control_c, 0, 67, 66
1, 39153, Note_on_c, 0, 58, 40
1, 39156, Note_on_c, 0, 41, 25
1, 39156, Note_on_c, 0, 46, 29
1, 39159, Note_on_c, 0, 34, 28
1, 39172, Note_on_c, 0, 50, 31
1, 39189, Control_c, 0, 64, 110
1, 39204, Control_c, 0, 64, 99
1, 39218, Control_c, 0, 64, 92
1, 39233, Control_c, 0, 64, 86
1, 39248, Control_c, 0, 64, 82
1, 39264, Control_c, 0, 64, 78
1, 39279, Control_c, 0, 64, 75
1, 39294, Control_c, 0, 64, 72
1, 39308, Control_c, 0, 64, 70
1, 39323, Control_c, 0, 64, 68
1, 39338, Control_c, 0, 64, 66
1, 39353, Control_c, 0, 64, 64
1, 39367, Control_c, 0, 64, 63
1, 39382, Control_c, 0, 64, 62
1, 39397, Control_c, 0, 64, 61
1, 39412, Control_c, 0, 64, 60
1, 39427, Control_c, 0, 64, 57
1, 39441, Control_c, 0, 64, 53
1, 39456, Control_c, 0, 64, 48
1, 39471, Control_c, 0, 64, 45
1, 39486, Control_c, 0, 64, 41
1, 39501, Control_c, 0, 64, 36
1, 39515, Control_c, 0, 64, 30
1, 39530, Control_c, 0, 64, 25
1, 39545, Control_c, 0, 64, 24
1, 39604, Control_c, 0, 64, 27
1, 39604, Control_c, 0, 67, 66
1, 39619, Control_c, 0, 64, 31
1, 39634, Control_c, 0, 64, 36
1, 39634, Control_c, 0, 67, 65
1, 39649, Control_c, 0, 64, 40
1, 39664, Control_c, 0, 64, 43
1, 39679, Control_c, 0, 64, 47
1, 39679, Control_c, 0, 67, 65
1, 39693, Control_c, 0, 64, 51
1, 39715, Control_c, 0, 64, 55
1, 39715, Control_c, 0, 67, 64
1, 39730, Control_c, 0, 64, 58
1, 39745, Control_c, 0, 64, 60
1, 39760, Control_c, 0, 64, 62
1, 39760, Control_c, 0, 67, 63
1, 39774, Control_c, 0, 64, 64
1, 39789, Control_c, 0, 64, 66
1, 39804, Control_c, 0, 64, 69
1, 39819, Control_c, 0, 64, 72
1, 39834, Control_c, 0, 64, 75
1, 39849, Control_c, 0, 64, 78
1, 39863, Control_c, 0, 64, 82
1, 39878, Control_c, 0, 64, 86
1, 39893, Control_c, 0, 64, 92
1, 39908, Control_c, 0, 64, 99
1, 39923, Control_c, 0, 64, 107
1, 39938, Control_c, 0, 64, 121
1, 39953, Control_c, 0, 64, 127
1, 40108, Note_off_c, 0, 50, 33
1, 40186, Note_off_c, 0, 34, 37
1, 40234, Control_c, 0, 67, 63
1, 40238, Note_off_c, 0, 41, 34
1, 40281, Note_off_c, 0, 46, 32
1, 40306, Note_off_c, 0, 58, 31
1, 40337, Control_c, 0, 64, 119
1, 40352, Control_c, 0, 64, 117
1, 40367, Control_c, 0, 64, 114
1, 40382, Control_c, 0, 64, 111
1, 40397, Control_c, 0, 64, 110
1, 40412, Control_c, 0, 64, 107
1, 40427, Control_c, 0, 64, 106
1, 40442, Control_c, 0, 64, 105
1, 40478, Control_c, 0, 64, 104
1, 40493, Control_c, 0, 64, 104
1, 40508, Control_c, 0, 64, 102
1, 40522, Control_c, 0, 64, 100
1, 40537, Control_c, 0, 64, 98
1, 40552, Control_c, 0, 64, 96
1, 40567, Control_c, 0, 64, 95
1, 40582, Control_c, 0, 64, 93
1, 40597, Control_c, 0, 64, 91
1, 40612, Control_c, 0, 64, 90
1, 40627, Control_c, 0, 64, 89
1, 40627, Control_c, 0, 67, 62
1, 40641, Control_c, 0, 64, 87
1, 40656, Control_c, 0, 64, 86
1, 40671, Control_c, 0, 64, 85
1, 40686, Control_c, 0, 64, 83
1, 40701, Control_c, 0, 64, 82
1, 40701, Control_c, 0, 67, 61
1, 40715, Control_c, 0, 64, 81
1, 40730, Control_c, 0, 64, 81
1, 40730, Control_c, 0, 67, 61
1, 40745, Control_c, 0, 64, 80
1, 40760, Control_c, 0, 64, 79
1, 40760, Control_c, 0, 67, 60
1, 40775, Control_c, 0, 64, 78
1, 40775, Control_c, 0, 67, 60
1, 40789, Control_c, 0, 64, 78
1, 40804, Control_c, 0, 64, 77
1, 40818, Control_c, 0, 64, 77
1, 40818, Control_c, 0, 67, 59
1, 40833, Control_c, 0, 64, 76
1, 40848, Control_c, 0, 64, 75
1, 40864, Control_c, 0, 64, 75
1, 40878, Control_c, 0, 64, 74
1, 40893, Control_c, 0, 64, 74
1, 40893, Control_c, 0, 67, 58
1, 40908, Control_c, 0, 64, 73
1, 40923, Control_c, 0, 64, 73
1, 40937, Control_c, 0, 64, 72
1, 40937, Control_c, 0, 67, 58
1, 40952, Control_c, 0, 64, 72
1, 40967, Control_c, 0, 64, 71
1, 40982, Control_c, 0, 64, 70
1, 40997, Control_c, 0, 64, 70
1, 40997, Control_c, 0, 67, 57
1, 41011, Control_c, 0, 64, 69
1, 41026, Control_c, 0, 67, 56
1, 41041, Control_c, 0, 64, 69
1, 41056, Control_c, 0, 64, 68
1, 41056, Control_c, 0, 67, 56
1, 41086, Control_c, 0, 64, 68
1, 41086, Control_c, 0, 67, 55
1, 41101, Control_c, 0, 64, 67
1, 41101, Control_c, 0, 67, 55
1, 41130, Control_c, 0, 64, 67
1, 41130, Control_c, 0, 67, 54
1, 41145, Control_c, 0, 64, 66
1, 41145, Control_c, 0, 67, 53
1, 41175, Control_c, 0, 64, 66
1, 41175, Control_c, 0, 67, 53
1, 41190, Control_c, 0, 64, 65
1, 41211, Control_c, 0, 67, 52
1, 41241, Control_c, 0, 64, 65
1, 41241, Control_c, 0, 67, 51
1, 41256, Control_c, 0, 67, 51
1, 41271, Control_c, 0, 64, 64
1, 41271, Control_c, 0, 67, 50
1, 41285, Control_c, 0, 67, 49
1, 41300, Control_c, 0, 64, 64
1, 41300, Control_c, 0, 67, 48
1, 41315, Control_c, 0, 67, 47
1, 41330, Control_c, 0, 67, 46
1, 41345, Control_c, 0, 64, 63
1, 41345, Control_c, 0, 67, 46
1, 41360, Control_c, 0, 67, 45
1, 41375, Control_c, 0, 64, 63
1, 41375, Control_c, 0, 67, 44
1, 41390, Control_c, 0, 67, 43
1, 41405, Control_c, 0, 67, 43
1, 41419, Control_c, 0, 64, 62
1, 41419, Control_c, 0, 67, 41
1, 41434, Control_c, 0, 67, 35
1, 41449, Control_c, 0, 64, 62
1, 41449, Control_c, 0, 67, 29
1, 41464, Control_c, 0, 64, 61
1, 41464, Control_c, 0, 67, 24
1, 41479, Control_c, 0, 67, 19
1, 41493, Control_c, 0, 67, 14
1, 41508, Control_c, 0, 67, 11
1, 41523, Control_c, 0, 64, 61
1, 41523, Control_c, 0, 67, 9
1, 41537, Control_c, 0, 64, 60
1, 41537, Control_c, 0, 67, 8
1, 41552, Control_c, 0, 67, 0
1, 41568, Control_c, 0, 64, 60
1, 41583, Control_c, 0, 64, 59
1, 41598, Control_c, 0, 64, 59
1, 41612, Control_c, 0, 64, 58
1, 41627, Control_c, 0, 64, 58
1, 41642, Control_c, 0, 64, 57
1, 41658, Control_c, 0, 64, 56
1, 41673, Control_c, 0, 64, 55
1, 41776, Control_c, 0, 64, 56
1, 41791, Control_c, 0, 64, 56
1, 41806, Control_c, 0, 64, 57
1, 41821, Control_c, 0, 64, 58
1, 41835, Control_c, 0, 64, 58
1, 41850, Control_c, 0, 64, 59
1, 41865, Control_c, 0, 64, 60
1, 41880, Control_c, 0, 64, 61
1, 41895, Control_c, 0, 64, 61
1, 41909, Control_c, 0, 64, 62
1, 41924, Control_c, 0, 64, 63
1, 41939, Control_c, 0, 64, 64
1, 41961, Control_c, 0, 64, 65
1, 41976, Control_c, 0, 64, 67
1, 41991, Control_c, 0, 64, 70
1, 42006, Control_c, 0, 64, 72
1, 42021, Control_c, 0, 64, 76
1, 42035, Control_c, 0, 64, 79
1, 42050, Control_c, 0, 64, 83
1, 42065, Control_c, 0, 64, 87
1, 42080, Control_c, 0, 64, 92
1, 42095, Control_c, 0, 64, 99
1, 42109, Control_c, 0, 64, 113
1, 42124, Control_c, 0, 64, 127
1, 42251, Note_on_c, 0, 46, 18
1, 42279, Note_on_c, 0, 74, 41
1, 42539, Note_on_c, 0, 62, 29
1, 42616, Note_off_c, 0, 74, 39
1, 42683, Note_on_c, 0, 53, 33
1, 42683, Note_on_c, 0, 65, 34
1, 42693, Note_off_c, 0, 62, 31
1, 42763, Note_off_c, 0, 65, 57
1, 42788, Note_on_c, 0, 74, 50
1, 42826, Note_off_c, 0, 74, 64
1, 42886, Note_off_c, 0, 53, 41
1, 42900, Note_on_c, 0, 74, 64
1, 42996, Note_off_c, 0, 74, 55
1, 43003, Note_on_c, 0, 62, 52
1, 43108, Note_on_c, 0, 53, 35
1, 43109, Note_off_c, 0, 62, 54
1, 43110, Note_on_c, 0, 65, 49
1, 43183, Note_off_c, 0, 65, 60
1, 43195, Note_on_c, 0, 74, 60
1, 43228, Control_c, 0, 64, 123
1, 43243, Control_c, 0, 64, 108
1, 43259, Control_c, 0, 64, 101
1, 43274, Control_c, 0, 64, 95
1, 43288, Control_c, 0, 64, 91
1, 43302, Note_on_c, 0, 72, 61
1, 43303, Control_c, 0, 64, 85
1, 43306, Note_on_c, 0, 50, 41
1, 43311, Note_off_c, 0, 74, 49
1, 43318, Control_c, 0, 64, 78
1, 43332, Control_c, 0, 64, 70
1, 43347, Control_c, 0, 64, 62
1, 43349, Note_off_c, 0, 53, 43
1, 43362, Control_c, 0, 64, 49
1, 43377, Control_c, 0, 64, 45
1, 43392, Control_c, 0, 64, 46
1, 43406, Control_c, 0, 64, 48
1, 43411, Note_on_c, 0, 62, 49
1, 43421, Control_c, 0, 64, 52
1, 43425, Note_off_c, 0, 46, 31
1, 43436, Control_c, 0, 64, 57
1, 43458, Control_c, 0, 64, 63
1, 43473, Control_c, 0, 64, 67
1, 43488, Control_c, 0, 64, 74
1, 43500, Note_off_c, 0, 62, 59
1, 43503, Note_on_c, 0, 53, 42
1, 43503, Control_c, 0, 64, 84
1, 43518, Control_c, 0, 64, 99
1, 43522, Note_on_c, 0, 65, 49
1, 43533, Control_c, 0, 64, 123
1, 43535, Note_off_c, 0, 72, 61
1, 43548, Control_c, 0, 64, 127
1, 43605, Note_off_c, 0, 65, 58
1, 43612, Note_on_c, 0, 70, 61
1, 43658, Note_off_c, 0, 70, 57
1, 43685, Note_off_c, 0, 53, 44
1, 43699, Note_on_c, 0, 70, 45
1, 43822, Note_on_c, 0, 62, 40
1, 43891, Note_off_c, 0, 62, 52
1, 43905, Note_off_c, 0, 70, 39
1, 43912, Note_on_c, 0, 53, 39
1, 43923, Note_on_c, 0, 65, 39
1, 44019, Note_on_c, 0, 72, 51
1, 44023, Note_off_c, 0, 65, 47
1, 44052, Control_c, 0, 64, 114
1, 44067, Control_c, 0, 64, 107
1, 44081, Control_c, 0, 64, 103
1, 44096, Control_c, 0, 64, 99
1, 44111, Control_c, 0, 64, 93
1, 44119, Note_on_c, 0, 48, 40
1, 44126, Control_c, 0, 64, 89
1, 44138, Note_on_c, 0, 70, 48
1, 44141, Control_c, 0, 64, 85
1, 44155, Control_c, 0, 64, 81
1, 44170, Control_c, 0, 64, 76
1, 44179, Note_off_c, 0, 53, 41
1, 44185, Control_c, 0, 64, 70
1, 44190, Note_off_c, 0, 72, 32
1, 44207, Control_c, 0, 64, 62
1, 44222, Control_c, 0, 64, 52
1, 44225, Note_off_c, 0, 50, 36
1, 44236, Control_c, 0, 64, 47
1, 44251, Control_c, 0, 64, 48
1, 44263, Note_on_c, 0, 63, 36
1, 44266, Control_c, 0, 64, 49
1, 44281, Control_c, 0, 64, 51
1, 44296, Control_c, 0, 64, 54
1, 44311, Control_c, 0, 64, 57
1, 44326, Control_c, 0, 64, 61
1, 44341, Control_c, 0, 64, 65
1, 44355, Control_c, 0, 64, 68
1, 44370, Control_c, 0, 64, 74
1, 44377, Note_on_c, 0, 53, 41
1, 44385, Control_c, 0, 64, 84
1, 44386, Note_on_c, 0, 65, 46
1, 44400, Control_c, 0, 64, 96
1, 44415, Control_c, 0, 64, 117
1, 44428, Note_off_c, 0, 63, 32
1, 44429, Control_c, 0, 64, 127
1, 44450, Note_off_c, 0, 65, 54
1, 44469, Note_on_c, 0, 69, 60
1, 44547, Note_off_c, 0, 53, 34
1, 44567, Note_off_c, 0, 70, 32
1, 44570, Note_on_c, 0, 72, 70
1, 44587, Note_off_c, 0, 69, 60
1, 44672, Note_off_c, 0, 72, 60
1, 44674, Note_on_c, 0, 65, 59
1, 44747, Note_off_c, 0, 48, 49
1, 44765, Note_on_c, 0, 53, 47
1, 44769, Note_off_c, 0, 65, 52
1, 44770, Note_on_c, 0, 69, 71
1, 44848, Note_on_c, 0, 74, 74
1, 44850, Note_off_c, 0, 69, 63
1, 44956, Control_c, 0, 64, 119
1, 44964, Note_on_c, 0, 75, 75
1, 44971, Control_c, 0, 64, 96
1, 44972, Note_on_c, 0, 41, 40
1, 44985, Control_c, 0, 64, 80
1, 45000, Control_c, 0, 64, 66
1, 45002, Note_off_c, 0, 53, 46
1, 45002, Note_off_c, 0, 74, 56
1, 45015, Control_c, 0, 64, 52
1, 45030, Control_c, 0, 64, 41
1, 45045, Control_c, 0, 64, 43
1, 45059, Control_c, 0, 64, 45
1, 45063, Note_on_c, 0, 69, 59
1, 45074, Control_c, 0, 64, 51
1, 45089, Control_c, 0, 64, 57
1, 45104, Control_c, 0, 64, 61
1, 45119, Control_c, 0, 64, 65
1, 45134, Control_c, 0, 64, 73
1, 45141, Note_off_c, 0, 75, 62
1, 45149, Control_c, 0, 64, 86
1, 45164, Control_c, 0, 64, 114
1, 45165, Note_on_c, 0, 72, 65
1, 45168, Note_on_c, 0, 53, 51
1, 45173, Note_off_c, 0, 69, 57
1, 45178, Control_c, 0, 64, 127
1, 45256, Note_on_c, 0, 78, 70
1, 45285, Note_off_c, 0, 72, 54
1, 45327, Control_c, 0, 64, 108
1, 45342, Control_c, 0, 64, 95
1, 45351, Note_on_c, 0, 79, 71
1, 45357, Control_c, 0, 64, 85
1, 45372, Control_c, 0, 64, 74
1, 45372, Note_off_c, 0, 78, 63
1, 45386, Control_c, 0, 64, 64
1, 45401, Control_c, 0, 64, 52
1, 45416, Control_c, 0, 64, 45
1, 45431, Control_c, 0, 64, 48
1, 45446, Control_c, 0, 64, 52
1, 45452, Note_on_c, 0, 69, 62
1, 45460, Control_c, 0, 64, 58
1, 45471, Note_off_c, 0, 53, 62
1, 45475, Control_c, 0, 64, 62
1, 45490, Control_c, 0, 64, 65
1, 45505, Control_c, 0, 64, 73
1, 45512, Note_off_c, 0, 41, 42
1, 45519, Control_c, 0, 64, 86
1, 45534, Control_c, 0, 64, 107
1, 45549, Control_c, 0, 64, 127
1, 45561, Note_on_c, 0, 72, 64
1, 45569, Note_on_c, 0, 53, 45
1, 45572, Note_off_c, 0, 79, 53
1, 45595, Note_off_c, 0, 69, 57
1, 45658, Note_on_c, 0, 75, 75
1, 45709, Note_off_c, 0, 72, 59
1, 45819, Note_on_c, 0, 50, 44
1, 45824, Control_c, 0, 64, 110
1, 45837, Note_on_c, 0, 74, 69
1, 45839, Control_c, 0, 64, 101
1, 45854, Control_c, 0, 64, 94
1, 45869, Control_c, 0, 64, 87
1, 45883, Control_c, 0, 64, 78
1, 45888, Note_off_c, 0, 75, 61
1, 45891, Note_off_c, 0, 53, 37
1, 45898, Control_c, 0, 64, 68
1, 45913, Control_c, 0, 64, 58
1, 45928, Control_c, 0, 64, 43
1, 45957, Control_c, 0, 64, 45
1, 45972, Control_c, 0, 64, 49
1, 45987, Control_c, 0, 64, 52
1, 46000, Note_on_c, 0, 66, 49
1, 46001, Control_c, 0, 64, 56
1, 46016, Control_c, 0, 64, 59
1, 46031, Control_c, 0, 64, 62
1, 46046, Control_c, 0, 64, 65
1, 46061, Control_c, 0, 64, 70
1, 46070, Note_off_c, 0, 74, 63
1, 46075, Control_c, 0, 64, 77
1, 46090, Control_c, 0, 64, 86
1, 46099, Note_on_c, 0, 57, 53
1, 46105, Control_c, 0, 64, 99
1, 46107, Note_on_c, 0, 69, 60
1, 46120, Control_c, 0, 64, 127
1, 46189, Note_on_c, 0, 75, 74
1, 46239, Note_off_c, 0, 66, 33
1, 46288, Note_on_c, 0, 74, 83
1, 46320, Note_off_c, 0, 57, 60
1, 46323, Note_off_c, 0, 75, 61
1, 46359, Note_off_c, 0, 50, 40
1, 46377, Note_off_c, 0, 69, 37
1, 46380, Note_on_c, 0, 66, 65
1, 46492, Note_on_c, 0, 69, 75
1, 46503, Note_on_c, 0, 57, 56
1, 46511, Note_off_c, 0, 74, 61
1, 46538, Note_off_c, 0, 66, 48
1, 46581, Note_on_c, 0, 72, 81
1, 46594, Note_off_c, 0, 69, 62
1, 46632, Note_off_c, 0, 72, 64
1, 46693, Note_on_c, 0, 50, 49
1, 46699, Note_on_c, 0, 72, 73
1, 46702, Note_off_c, 0, 57, 56
1, 46735, Control_c, 0, 64, 100
1, 46750, Control_c, 0, 64, 80
1, 46765, Control_c, 0, 64, 65
1, 46779, Control_c, 0, 64, 48
1, 46793, Note_on_c, 0, 65, 51
1, 46794, Control_c, 0, 64, 27
1, 46809, Control_c, 0, 64, 28
1, 46824, Control_c, 0, 64, 34
1, 46839, Control_c, 0, 64, 43
1, 46854, Control_c, 0, 64, 51
1, 46869, Control_c, 0, 64, 57
1, 46883, Control_c, 0, 64, 63
1, 46893, Note_off_c, 0, 72, 62
1, 46896, Note_on_c, 0, 56, 52
1, 46898, Control_c, 0, 64, 69
1, 46903, Note_on_c, 0, 68, 59
1, 46913, Control_c, 0, 64, 77
1, 46928, Control_c, 0, 64, 89
1, 46943, Control_c, 0, 64, 103
1, 46957, Control_c, 0, 64, 114
1, 46972, Control_c, 0, 64, 115
1, 46981, Note_off_c, 0, 65, 36
1, 46993, Note_off_c, 0, 68, 60
1, 46997, Note_on_c, 0, 72, 71
1, 47061, Control_c, 0, 64, 113
1, 47076, Control_c, 0, 64, 111
1, 47091, Control_c, 0, 64, 106
1, 47092, Note_on_c, 0, 71, 75
1, 47105, Control_c, 0, 64, 99
1, 47107, Note_off_c, 0, 72, 57
1, 47120, Control_c, 0, 64, 88
1, 47135, Control_c, 0, 64, 76
1, 47149, Control_c, 0, 64, 65
1, 47164, Control_c, 0, 64, 53
1, 47179, Control_c, 0, 64, 48
1, 47202, Control_c, 0, 64, 51
1, 47208, Note_on_c, 0, 65, 55
1, 47217, Control_c, 0, 64, 54
1, 47217, Note_off_c, 0, 56, 59
1, 47231, Control_c, 0, 64, 58
1, 47246, Control_c, 0, 64, 61
1, 47255, Note_off_c, 0, 71, 55
1, 47262, Control_c, 0, 64, 65
1, 47277, Control_c, 0, 64, 71
1, 47292, Control_c, 0, 64, 82
1, 47307, Control_c, 0, 64, 98
1, 47312, Note_on_c, 0, 56, 47
1, 47312, Note_on_c, 0, 68, 61
1, 47313, Note_off_c, 0, 65, 56
1, 47321, Control_c, 0, 64, 123
1, 47336, Control_c, 0, 64, 127
1, 47401, Note_on_c, 0, 71, 72
1, 47405, Note_off_c, 0, 68, 61
1, 47454, Control_c, 0, 64, 119
1, 47461, Note_off_c, 0, 71, 62
1, 47469, Control_c, 0, 64, 111
1, 47471, Note_off_c, 0, 50, 38
1, 47484, Control_c, 0, 64, 107
1, 47499, Control_c, 0, 64, 104
1, 47512, Note_on_c, 0, 51, 46
1, 47514, Control_c, 0, 64, 101
1, 47519, Note_on_c, 0, 71, 66
1, 47528, Control_c, 0, 64, 98
1, 47532, Note_off_c, 0, 56, 51
1, 47543, Control_c, 0, 64, 93
1, 47558, Control_c, 0, 64, 84
1, 47572, Control_c, 0, 64, 75
1, 47587, Control_c, 0, 64, 66
1, 47602, Control_c, 0, 64, 58
1, 47617, Control_c, 0, 64, 51
1, 47632, Control_c, 0, 64, 50
1, 47636, Note_on_c, 0, 63, 46
1, 47661, Control_c, 0, 64, 51
1, 47676, Control_c, 0, 64, 53
1, 47691, Control_c, 0, 64, 56
1, 47706, Control_c, 0, 64, 58
1, 47719, Note_on_c, 0, 55, 40
1, 47721, Control_c, 0, 64, 60
1, 47734, Note_off_c, 0, 63, 52
1, 47736, Control_c, 0, 64, 62
1, 47737, Note_on_c, 0, 67, 57
1, 47751, Control_c, 0, 64, 64
1, 47766, Control_c, 0, 64, 67
1, 47766, Note_off_c, 0, 71, 54
1, 47780, Control_c, 0, 64, 69
1, 47795, Control_c, 0, 64, 72
1, 47810, Control_c, 0, 64, 75
1, 47825, Control_c, 0, 64, 78
1, 47827, Note_on_c, 0, 72, 61
1, 47831, Note_off_c, 0, 67, 60
1, 47840, Control_c, 0, 64, 79
1, 47854, Control_c, 0, 64, 78
1, 47869, Control_c, 0, 64, 78
1, 47899, Control_c, 0, 64, 77
1, 47914, Control_c, 0, 64, 76
1, 47928, Control_c, 0, 64, 75
1, 47951, Control_c, 0, 64, 74
1, 47966, Control_c, 0, 64, 73
1, 47976, Note_on_c, 0, 75, 57
1, 47980, Control_c, 0, 64, 72
1, 47986, Note_off_c, 0, 72, 55
1, 47995, Control_c, 0, 64, 71
1, 48010, Control_c, 0, 64, 70
1, 48025, Control_c, 0, 64, 68
1, 48040, Control_c, 0, 64, 66
1, 48055, Control_c, 0, 64, 63
1, 48070, Control_c, 0, 64, 60
1, 48085, Control_c, 0, 64, 54
1, 48085, Note_on_c, 0, 63, 39
1, 48100, Control_c, 0, 64, 50
1, 48115, Control_c, 0, 64, 47
1, 48144, Control_c, 0, 64, 49
1, 48159, Control_c, 0, 64, 52
1, 48174, Control_c, 0, 64, 57
1, 48178, Note_off_c, 0, 63, 47
1, 48189, Control_c, 0, 64, 60
1, 48196, Note_on_c, 0, 54, 36
1, 48203, Control_c, 0, 64, 64
1, 48204, Note_on_c, 0, 66, 38
1, 48218, Control_c, 0, 64, 68
1, 48225, Note_off_c, 0, 51, 39
1, 48233, Control_c, 0, 64, 75
1, 48243, Note_off_c, 0, 54, 63
1, 48248, Control_c, 0, 64, 85
1, 48261, Note_off_c, 0, 66, 57
1, 48263, Control_c, 0, 64, 95
1, 48277, Control_c, 0, 64, 102
1, 48292, Control_c, 0, 64, 107
1, 48297, Note_on_c, 0, 72, 50
1, 48307, Control_c, 0, 64, 110
1, 48323, Note_off_c, 0, 55, 38
1, 48337, Control_c, 0, 64, 109
1, 48351, Control_c, 0, 64, 107
1, 48364, Note_off_c, 0, 75, 23
1, 48366, Control_c, 0, 64, 106
1, 48381, Control_c, 0, 64, 102
1, 48395, Control_c, 0, 64, 98
1, 48410, Control_c, 0, 64, 94
1, 48414, Note_on_c, 0, 41, 38
1, 48420, Note_on_c, 0, 70, 50
1, 48425, Control_c, 0, 64, 89
1, 48440, Control_c, 0, 64, 82
1, 48455, Control_c, 0, 64, 74
1, 48456, Note_off_c, 0, 72, 34
1, 48469, Control_c, 0, 64, 65
1, 48484, Control_c, 0, 64, 50
1, 48499, Control_c, 0, 64, 43
1, 48514, Control_c, 0, 64, 43
1, 48529, Control_c, 0, 64, 46
1, 48538, Note_on_c, 0, 62, 36
1, 48544, Control_c, 0, 64, 51
1, 48559, Control_c, 0, 64, 55
1, 48574, Control_c, 0, 64, 59
1, 48589, Control_c, 0, 64, 63
1, 48595, Note_off_c, 0, 70, 47
1, 48603, Control_c, 0, 64, 68
1, 48618, Control_c, 0, 64, 75
1, 48633, Control_c, 0, 64, 88
1, 48634, Note_on_c, 0, 53, 36
1, 48648, Control_c, 0, 64, 101
1, 48654, Note_on_c, 0, 65, 41
1, 48662, Note_off_c, 0, 62, 34
1, 48663, Control_c, 0, 64, 113
1, 48677, Control_c, 0, 64, 115
1, 48725, Note_off_c, 0, 65, 55
1, 48744, Note_on_c, 0, 70, 49
1, 48758, Control_c, 0, 64, 112
1, 48773, Control_c, 0, 64, 108
1, 48788, Control_c, 0, 64, 106
1, 48803, Control_c, 0, 64, 102
1, 48818, Control_c, 0, 64, 97
1, 48824, Note_off_c, 0, 70, 61
1, 48833, Control_c, 0, 64, 88
1, 48848, Control_c, 0, 64, 78
1, 48859, Note_on_c, 0, 69, 46
1, 48863, Control_c, 0, 64, 66
1, 48878, Control_c, 0, 64, 54
1, 48893, Control_c, 0, 64, 43
1, 48908, Control_c, 0, 64, 44
1, 48922, Control_c, 0, 64, 47
1, 48937, Control_c, 0, 64, 52
1, 48950, Note_off_c, 0, 69, 56
1, 48951, Note_off_c, 0, 53, 53
1, 48952, Control_c, 0, 64, 58
1, 48967, Control_c, 0, 64, 62
1, 48978, Note_on_c, 0, 60, 38
1, 48982, Control_c, 0, 64, 65
1, 48997, Control_c, 0, 64, 72
1, 49012, Control_c, 0, 64, 86
1, 49026, Control_c, 0, 64, 110
1, 49034, Note_off_c, 0, 41, 39
1, 49041, Control_c, 0, 64, 127
1, 49099, Note_on_c, 0, 65, 40
1, 49103, Note_on_c, 0, 53, 38
1, 49131, Note_off_c, 0, 60, 34
1, 49203, Note_off_c, 0, 65, 58
1, 49226, Note_on_c, 0, 69, 44
1, 49381, Note_on_c, 0, 46, 34
1, 49382, Control_c, 0, 64, 116
1, 49397, Control_c, 0, 64, 104
1, 49402, Note_off_c, 0, 69, 45
1, 49411, Control_c, 0, 64, 91
1, 49419, Note_on_c, 0, 74, 50
1, 49426, Control_c, 0, 64, 79
1, 49449, Control_c, 0, 64, 67
1, 49464, Control_c, 0, 64, 55
1, 49469, Note_off_c, 0, 53, 44
1, 49479, Control_c, 0, 64, 36
1, 49493, Control_c, 0, 64, 38
1, 49508, Control_c, 0, 64, 45
1, 49523, Control_c, 0, 64, 53
1, 49538, Control_c, 0, 64, 58
1, 49552, Control_c, 0, 64, 62
1, 49567, Control_c, 0, 64, 67
1, 49582, Control_c, 0, 64, 74
1, 49597, Control_c, 0, 64, 87
1, 49611, Note_on_c, 0, 62, 42
1, 49612, Control_c, 0, 64, 123
1, 49626, Control_c, 0, 64, 127
1, 49655, Note_off_c, 0, 74, 36
1, 49703, Note_off_c, 0, 62, 47
1, 49718, Note_on_c, 0, 53, 39
1, 49727, Note_on_c, 0, 65, 43
1, 49787, Note_off_c, 0, 65, 57
1, 49811, Note_on_c, 0, 74, 58
1, 49847, Note_off_c, 0, 74, 64
1, 49861, Note_off_c, 0, 53, 35
1, 49924, Note_on_c, 0, 74, 60
1, 50016, Note_on_c, 0, 62, 52
1, 50019, Note_off_c, 0, 74, 56
1, 50108, Note_on_c, 0, 53, 47
1, 50113, Note_on_c, 0, 65, 51
1, 50113, Note_off_c, 0, 62, 53
1, 50183, Note_off_c, 0, 65, 60
1, 50201, Note_on_c, 0, 74, 63
1, 50272, Control_c, 0, 64, 114
1, 50287, Control_c, 0, 64, 102
1, 50302, Control_c, 0, 64, 90
1, 50311, Note_on_c, 0, 72, 67
1, 50317, Control_c, 0, 64, 77
1, 50323, Note_on_c, 0, 50, 44
1, 50331, Control_c, 0, 64, 65
1, 50334, Note_off_c, 0, 53, 55
1, 50346, Control_c, 0, 64, 49
1, 50352, Note_off_c, 0, 74, 56
1, 50361, Control_c, 0, 64, 41
1, 50375, Control_c, 0, 64, 41
1, 50390, Control_c, 0, 64, 43
1, 50405, Note_on_c, 0, 62, 52
1, 50405, Control_c, 0, 64, 47
1, 50420, Control_c, 0, 64, 52
1, 50424, Note_off_c, 0, 46, 40
1, 50435, Control_c, 0, 64, 57
1, 50451, Control_c, 0, 64, 62
1, 50465, Control_c, 0, 64, 66
1, 50480, Control_c, 0, 64, 71
1, 50493, Note_off_c, 0, 62, 59
1, 50495, Control_c, 0, 64, 78
1, 50510, Control_c, 0, 64, 86
1, 50513, Note_on_c, 0, 65, 52
1, 50525, Control_c, 0, 64, 95
1, 50529, Note_on_c, 0, 53, 49
1, 50533, Note_off_c, 0, 72, 60
1, 50540, Control_c, 0, 64, 105
1, 50553, Control_c, 0, 64, 117
1, 50568, Control_c, 0, 64, 127
1, 50604, Note_on_c, 0, 70, 62
1, 50604, Note_off_c, 0, 65, 58
1, 50634, Note_off_c, 0, 53, 55
1, 50650, Note_off_c, 0, 70, 55
1, 50689, Note_on_c, 0, 70, 51
1, 50799, Note_on_c, 0, 62, 47
1, 50821, Note_off_c, 0, 70, 37
1, 50894, Note_off_c, 0, 62, 51
1, 50902, Note_on_c, 0, 65, 46
1, 50913, Note_on_c, 0, 53, 45
1, 51000, Note_on_c, 0, 72, 57
1, 51041, Note_off_c, 0, 65, 37
1, 51079, Control_c, 0, 64, 111
1, 51094, Control_c, 0, 64, 100
1, 51109, Control_c, 0, 64, 93
1, 51124, Control_c, 0, 64, 87
1, 51126, Note_on_c, 0, 48, 42
1, 51133, Note_on_c, 0, 70, 53
1, 51139, Control_c, 0, 64, 82
1, 51153, Control_c, 0, 64, 76
1, 51168, Control_c, 0, 64, 69
1, 51177, Note_off_c, 0, 72, 36
1, 51182, Note_off_c, 0, 53, 37
1, 51183, Control_c, 0, 64, 60
1, 51197, Control_c, 0, 64, 49
1, 51200, Note_off_c, 0, 50, 38
1, 51212, Control_c, 0, 64, 46
1, 51227, Control_c, 0, 64, 47
1, 51237, Note_on_c, 0, 63, 40
1, 51243, Control_c, 0, 64, 48
1, 51258, Control_c, 0, 64, 51
1, 51273, Control_c, 0, 64, 55
1, 51287, Control_c, 0, 64, 59
1, 51301, Control_c, 0, 64, 63
1, 51316, Control_c, 0, 64, 66
1, 51331, Control_c, 0, 64, 71
1, 51345, Note_on_c, 0, 53, 43
1, 51346, Control_c, 0, 64, 79
1, 51349, Note_on_c, 0, 65, 51
1, 51361, Control_c, 0, 64, 90
1, 51376, Control_c, 0, 64, 112
1, 51382, Note_off_c, 0, 63, 38
1, 51391, Control_c, 0, 64, 127
1, 51426, Note_off_c, 0, 65, 57
1, 51432, Note_on_c, 0, 69, 59
1, 51524, Note_off_c, 0, 53, 42
1, 51536, Note_on_c, 0, 72, 69
1, 51556, Note_off_c, 0, 69, 60
1, 51598, Note_off_c, 0, 70, 38
1, 51629, Note_off_c, 0, 72, 60
1, 51635, Note_on_c, 0, 65, 62
1, 51716, Note_off_c, 0, 48, 40
1, 51733, Note_on_c, 0, 53, 51
1, 51740, Note_on_c, 0, 69, 70
1, 51748, Note_off_c, 0, 65, 56
1, 51820, Note_on_c, 0, 74, 73
1, 51829, Note_off_c, 0, 69, 61
1, 51901, Control_c, 0, 64, 111
1, 51916, Control_c, 0, 64, 98
1, 51927, Note_on_c, 0, 41, 44
1, 51930, Note_on_c, 0, 75, 74
1, 51931, Control_c, 0, 64, 86
1, 51946, Control_c, 0, 64, 76
1, 51961, Control_c, 0, 64, 67
1, 51969, Note_off_c, 0, 74, 60
1, 51975, Control_c, 0, 64, 59
1, 51976, Note_off_c, 0, 53, 38
1, 51990, Control_c, 0, 64, 51
1, 52005, Control_c, 0, 64, 50
1, 52020, Control_c, 0, 64, 51
1, 52032, Note_on_c, 0, 69, 57
1, 52035, Control_c, 0, 64, 54
1, 52050, Control_c, 0, 64, 58
1, 52065, Control_c, 0, 64, 61
1, 52080, Control_c, 0, 64, 65
1, 52095, Control_c, 0, 64, 71
1, 52109, Control_c, 0, 64, 83
1, 52112, Note_off_c, 0, 75, 62
1, 52124, Control_c, 0, 64, 127
1, 52128, Note_on_c, 0, 53, 49
1, 52139, Note_on_c, 0, 72, 63
1, 52157, Note_off_c, 0, 69, 56
1, 52231, Note_on_c, 0, 78, 63
1, 52243, Note_off_c, 0, 72, 57
1, 52273, Control_c, 0, 64, 105
1, 52288, Control_c, 0, 64, 93
1, 52303, Control_c, 0, 64, 82
1, 52317, Control_c, 0, 64, 74
1, 52332, Control_c, 0, 64, 66
1, 52338, Note_on_c, 0, 79, 61
1, 52347, Control_c, 0, 64, 59
1, 52350, Note_off_c, 0, 78, 59
1, 52362, Control_c, 0, 64, 51
1, 52377, Control_c, 0, 64, 49
1, 52391, Control_c, 0, 64, 51
1, 52406, Control_c, 0, 64, 55
1, 52421, Control_c, 0, 64, 59
1, 52442, Note_off_c, 0, 53, 60
1, 52443, Control_c, 0, 64, 62
1, 52446, Note_on_c, 0, 69, 52
1, 52458, Control_c, 0, 64, 65
1, 52473, Control_c, 0, 64, 70
1, 52488, Control_c, 0, 64, 80
1, 52501, Note_off_c, 0, 41, 42
1, 52502, Control_c, 0, 64, 94
1, 52517, Control_c, 0, 64, 113
1, 52518, Note_off_c, 0, 79, 53
1, 52532, Control_c, 0, 64, 127
1, 52558, Note_on_c, 0, 72, 54
1, 52563, Note_on_c, 0, 53, 44
1, 52581, Note_off_c, 0, 69, 36
1, 52643, Note_off_c, 0, 72, 60
1, 52654, Note_on_c, 0, 75, 58
1, 52729, Note_off_c, 0, 75, 56
1, 52754, Control_c, 0, 64, 112
1, 52769, Control_c, 0, 64, 103
1, 52770, Note_on_c, 0, 46, 38
1, 52774, Note_on_c, 0, 74, 59
1, 52783, Control_c, 0, 64, 96
1, 52798, Control_c, 0, 64, 90
1, 52811, Note_off_c, 0, 53, 41
1, 52813, Control_c, 0, 64, 84
1, 52828, Control_c, 0, 64, 78
1, 52844, Control_c, 0, 64, 69
1, 52859, Control_c, 0, 64, 59
1, 52873, Control_c, 0, 64, 45
1, 52888, Control_c, 0, 64, 42
1, 52903, Control_c, 0, 64, 43
1, 52912, Note_on_c, 0, 62, 43
1, 52918, Control_c, 0, 64, 47
1, 52933, Control_c, 0, 64, 52
1, 52947, Control_c, 0, 64, 55
1, 52962, Control_c, 0, 64, 59
1, 52977, Control_c, 0, 64, 63
1, 52992, Control_c, 0, 64, 66
1, 52994, Note_on_c, 0, 53, 46
1, 52997, Note_on_c, 0, 65, 49
1, 53006, Control_c, 0, 64, 71
1, 53021, Control_c, 0, 64, 79
1, 53036, Control_c, 0, 64, 89
1, 53051, Control_c, 0, 64, 105
1, 53066, Control_c, 0, 64, 127
1, 53076, Note_on_c, 0, 69, 65
1, 53078, Note_off_c, 0, 74, 55
1, 53152, Note_off_c, 0, 46, 32
1, 53155, Note_off_c, 0, 53, 60
1, 53158, Note_off_c, 0, 62, 36
1, 53176, Note_on_c, 0, 70, 79
1, 53237, Note_off_c, 0, 65, 17
1, 53245, Note_off_c, 0, 69, 56
1, 53283, Note_on_c, 0, 62, 67
1, 53379, Note_on_c, 0, 65, 68
1, 53383, Note_on_c, 0, 58, 62
1, 53431, Note_off_c, 0, 62, 56
1, 53477, Note_on_c, 0, 72, 80
1, 53492, Note_off_c, 0, 65, 62
1, 53501, Note_off_c, 0, 70, 62
1, 53596, Note_on_c, 0, 52, 49
1, 53622, Note_on_c, 0, 73, 76
1, 53637, Control_c, 0, 64, 113
1, 53648, Note_off_c, 0, 58, 52
1, 53648, Note_off_c, 0, 72, 61
1, 53652, Control_c, 0, 64, 97
1, 53667, Control_c, 0, 64, 85
1, 53682, Control_c, 0, 64, 75
1, 53696, Control_c, 0, 64, 65
1, 53711, Control_c, 0, 64, 57
1, 53726, Control_c, 0, 64, 50
1, 53740, Note_on_c, 0, 67, 66
1, 53741, Control_c, 0, 64, 49
1, 53770, Control_c, 0, 64, 51
1, 53785, Control_c, 0, 64, 55
1, 53800, Control_c, 0, 64, 58
1, 53814, Control_c, 0, 64, 61
1, 53829, Control_c, 0, 64, 64
1, 53837, Note_on_c, 0, 61, 56
1, 53844, Note_on_c, 0, 70, 73
1, 53844, Control_c, 0, 64, 68
1, 53853, Note_off_c, 0, 67, 57
1, 53854, Note_on_c, 0, 58, 38
1, 53859, Control_c, 0, 64, 75
1, 53874, Control_c, 0, 64, 89
1, 53889, Control_c, 0, 64, 127
1, 53941, Note_on_c, 0, 79, 82
1, 53953, Note_off_c, 0, 73, 63
1, 53959, Note_off_c, 0, 70, 62
1, 54002, Note_off_c, 0, 79, 66
1, 54059, Control_c, 0, 64, 115
1, 54073, Note_on_c, 0, 81, 77
1, 54074, Control_c, 0, 64, 84
1, 54088, Control_c, 0, 64, 68
1, 54103, Control_c, 0, 64, 55
1, 54118, Control_c, 0, 64, 43
1, 54133, Control_c, 0, 64, 48
1, 54148, Control_c, 0, 64, 54
1, 54163, Control_c, 0, 64, 59
1, 54178, Control_c, 0, 64, 63
1, 54191, Note_on_c, 0, 70, 42
1, 54193, Control_c, 0, 64, 68
1, 54208, Control_c, 0, 64, 80
1, 54217, Note_off_c, 0, 58, 51
1, 54222, Control_c, 0, 64, 112
1, 54222, Note_off_c, 0, 61, 55
1, 54237, Control_c, 0, 64, 127
1, 54276, Note_off_c, 0, 81, 64
1, 54316, Note_on_c, 0, 61, 31
1, 54323, Note_off_c, 0, 70, 42
1, 54324, Note_on_c, 0, 58, 21
1, 54328, Note_on_c, 0, 73, 49
1, 54442, Note_off_c, 0, 52, 46
1, 54476, Note_on_c, 0, 82, 65
1, 54495, Note_off_c, 0, 73, 62
1, 54534, Note_off_c, 0, 82, 62
1, 54690, Control_c, 0, 64, 119
1, 54702, Note_on_c, 0, 53, 30
1, 54705, Control_c, 0, 64, 108
1, 54719, Control_c, 0, 64, 102
1, 54734, Control_c, 0, 64, 96
1, 54746, Note_on_c, 0, 72, 44
1, 54749, Control_c, 0, 64, 91
1, 54764, Control_c, 0, 64, 86
1, 54777, Note_off_c, 0, 58, 39
1, 54779, Control_c, 0, 64, 81
1, 54791, Note_off_c, 0, 61, 40
1, 54793, Control_c, 0, 64, 76
1, 54808, Control_c, 0, 64, 71
1, 54823, Control_c, 0, 64, 66
1, 54837, Control_c, 0, 64, 60
1, 54852, Control_c, 0, 64, 54
1, 54867, Control_c, 0, 64, 50
1, 54897, Control_c, 0, 64, 51
1, 54911, Control_c, 0, 64, 54
1, 54920, Note_on_c, 0, 65, 43
1, 54926, Control_c, 0, 64, 56
1, 54941, Control_c, 0, 64, 59
1, 54956, Control_c, 0, 64, 62
1, 54971, Control_c, 0, 64, 64
1, 54986, Control_c, 0, 64, 68
1, 55000, Control_c, 0, 64, 74
1, 55015, Control_c, 0, 64, 80
1, 55021, Note_on_c, 0, 70, 44
1, 55027, Note_on_c, 0, 60, 39
1, 55030, Control_c, 0, 64, 88
1, 55045, Control_c, 0, 64, 95
1, 55060, Control_c, 0, 64, 106
1, 55066, Note_off_c, 0, 72, 37
1, 55075, Control_c, 0, 64, 127
1, 55102, Note_off_c, 0, 70, 57
1, 55114, Note_on_c, 0, 74, 53
1, 55116, Note_off_c, 0, 65, 23
1, 55227, Note_on_c, 0, 75, 57
1, 55323, Note_off_c, 0, 75, 58
1, 55332, Note_on_c, 0, 65, 43
1, 55370, Note_off_c, 0, 74, 26
1, 55391, Note_off_c, 0, 53, 33
1, 55412, Note_off_c, 0, 65, 55
1, 55419, Note_on_c, 0, 63, 41
1, 55426, Note_on_c, 0, 69, 54
1, 55504, Note_off_c, 0, 63, 52
1, 55504, Note_off_c, 0, 69, 60
1, 55518, Note_on_c, 0, 77, 63
1, 55582, Note_off_c, 0, 77, 59
1, 55587, Control_c, 0, 64, 119
1, 55602, Control_c, 0, 64, 91
1, 55616, Control_c, 0, 64, 74
1, 55618, Note_on_c, 0, 62, 37
1, 55619, Note_on_c, 0, 58, 43
1, 55621, Note_off_c, 0, 60, 39
1, 55629, Note_on_c, 0, 70, 53
1, 55631, Control_c, 0, 64, 61
1, 55646, Control_c, 0, 64, 43
1, 55660, Control_c, 0, 64, 45
1, 55675, Control_c, 0, 64, 51
1, 55678, Note_off_c, 0, 62, 57
1, 55690, Control_c, 0, 64, 56
1, 55705, Control_c, 0, 64, 61
1, 55720, Control_c, 0, 64, 67
1, 55725, Note_off_c, 0, 70, 59
1, 55734, Control_c, 0, 64, 76
1, 55740, Note_on_c, 0, 62, 39
1, 55740, Note_off_c, 0, 58, 61
1, 55749, Control_c, 0, 64, 101
1, 55764, Control_c, 0, 64, 127
1, 55840, Note_off_c, 0, 62, 57
1, 55848, Note_on_c, 0, 65, 57
1, 55933, Note_on_c, 0, 69, 65
1, 55934, Note_off_c, 0, 65, 54
1, 56016, Control_c, 0, 64, 121
1, 56032, Control_c, 0, 64, 110
1, 56038, Note_on_c, 0, 70, 77
1, 56047, Control_c, 0, 64, 105
1, 56062, Control_c, 0, 64, 100
1, 56077, Control_c, 0, 64, 94
1, 56091, Control_c, 0, 64, 85
1, 56101, Note_off_c, 0, 69, 56
1, 56106, Control_c, 0, 64, 76
1, 56121, Control_c, 0, 64, 65
1, 56136, Control_c, 0, 64, 55
1, 56148, Note_on_c, 0, 62, 63
1, 56151, Control_c, 0, 64, 43
1, 56165, Control_c, 0, 64, 41
1, 56202, Control_c, 0, 64, 44
1, 56217, Control_c, 0, 64, 49
1, 56232, Control_c, 0, 64, 54
1, 56247, Control_c, 0, 64, 58
1, 56252, Note_on_c, 0, 65, 70
1, 56261, Control_c, 0, 64, 62
1, 56276, Control_c, 0, 64, 66
1, 56291, Control_c, 0, 64, 72
1, 56298, Note_off_c, 0, 62, 60
1, 56306, Control_c, 0, 64, 88
1, 56321, Control_c, 0, 64, 127
1, 56348, Note_on_c, 0, 72, 83
1, 56360, Note_off_c, 0, 65, 62
1, 56384, Note_off_c, 0, 70, 62
1, 56428, Note_off_c, 0, 72, 62
1, 56483, Note_on_c, 0, 50, 51
1, 56536, Note_on_c, 0, 74, 72
1, 56543, Control_c, 0, 64, 110
1, 56557, Control_c, 0, 64, 92
1, 56572, Control_c, 0, 64, 82
1, 56587, Control_c, 0, 64, 72
1, 56602, Control_c, 0, 64, 65
1, 56616, Control_c, 0, 64, 56
1, 56631, Control_c, 0, 64, 44
1, 56646, Control_c, 0, 64, 39
1, 56661, Control_c, 0, 64, 38
1, 56676, Control_c, 0, 64, 39
1, 56691, Control_c, 0, 64, 43
1, 56702, Note_on_c, 0, 66, 47
1, 56706, Control_c, 0, 64, 48
1, 56720, Control_c, 0, 64, 54
1, 56735, Control_c, 0, 64, 59
1, 56750, Control_c, 0, 64, 63
1, 56765, Control_c, 0, 64, 67
1, 56780, Control_c, 0, 64, 72
1, 56790, Note_off_c, 0, 74, 62
1, 56795, Control_c, 0, 64, 82
1, 56809, Control_c, 0, 64, 100
1, 56815, Note_on_c, 0, 60, 56
1, 56825, Control_c, 0, 64, 127
1, 56827, Note_on_c, 0, 69, 58
1, 56914, Note_on_c, 0, 75, 78
1, 56944, Note_off_c, 0, 50, 56
1, 56985, Note_off_c, 0, 66, 33
1, 57000, Note_off_c, 0, 60, 58
1, 57020, Note_on_c, 0, 74, 86
1, 57041, Note_off_c, 0, 69, 54
1, 57057, Note_off_c, 0, 75, 60
1, 57104, Note_on_c, 0, 66, 66
1, 57208, Note_on_c, 0, 57, 72
1, 57218, Note_on_c, 0, 69, 75
1, 57222, Note_off_c, 0, 66, 59
1, 57233, Note_off_c, 0, 74, 61
1, 57240, Note_off_c, 0, 57, 66
1, 57306, Note_on_c, 0, 72, 76
1, 57315, Note_off_c, 0, 69, 62
1, 57361, Note_off_c, 0, 72, 63
1, 57395, Control_c, 0, 64, 102
1, 57410, Control_c, 0, 64, 76
1, 57412, Note_on_c, 0, 43, 53
1, 57425, Control_c, 0, 64, 57
1, 57439, Note_on_c, 0, 72, 67
1, 57439, Control_c, 0, 64, 25
1, 57454, Control_c, 0, 64, 32
1, 57469, Control_c, 0, 64, 42
1, 57484, Control_c, 0, 64, 51
1, 57499, Control_c, 0, 64, 60
1, 57513, Control_c, 0, 64, 69
1, 57527, Note_off_c, 0, 43, 63
1, 57528, Control_c, 0, 64, 85
1, 57535, Note_on_c, 0, 65, 56
1, 57543, Control_c, 0, 64, 127
1, 57655, Note_on_c, 0, 62, 68
1, 57674, Note_off_c, 0, 65, 55
1, 57674, Note_on_c, 0, 67, 62
1, 57700, Note_on_c, 0, 55, 53
1, 57732, Note_off_c, 0, 72, 57
1, 57768, Note_on_c, 0, 71, 81
1, 57808, Note_off_c, 0, 67, 56
1, 57833, Control_c, 0, 64, 101
1, 57848, Control_c, 0, 64, 77
1, 57859, Note_on_c, 0, 60, 71
1, 57861, Note_on_c, 0, 72, 83
1, 57862, Control_c, 0, 64, 64
1, 57877, Control_c, 0, 64, 55
1, 57878, Note_on_c, 0, 56, 65
1, 57891, Note_off_c, 0, 55, 57
1, 57901, Note_off_c, 0, 62, 58
1, 57907, Control_c, 0, 64, 57
1, 57916, Note_off_c, 0, 71, 59
1, 57922, Control_c, 0, 64, 60
1, 57937, Control_c, 0, 64, 65
1, 57952, Control_c, 0, 64, 70
1, 57962, Note_on_c, 0, 65, 79
1, 57966, Control_c, 0, 64, 84
1, 57981, Control_c, 0, 64, 127
1, 58041, Control_c, 0, 64, 116
1, 58055, Control_c, 0, 64, 80
1, 58057, Note_on_c, 0, 59, 76
1, 58065, Note_on_c, 0, 67, 85
1, 58069, Note_on_c, 0, 55, 69
1, 58070, Control_c, 0, 64, 62
1, 58071, Note_off_c, 0, 56, 63
1, 58085, Control_c, 0, 64, 56
1, 58095, Note_off_c, 0, 60, 64
1, 58095, Note_off_c, 0, 65, 60
1, 58100, Control_c, 0, 64, 63
1, 58115, Control_c, 0, 64, 68
1, 58124, Note_off_c, 0, 59, 64
1, 58129, Control_c, 0, 64, 77
1, 58138, Note_off_c, 0, 55, 64
1, 58144, Control_c, 0, 64, 105
1, 58159, Control_c, 0, 64, 127
1, 58161, Note_on_c, 0, 74, 91
1, 58183, Note_off_c, 0, 67, 64
1, 58191, Note_off_c, 0, 72, 61
1, 58238, Note_off_c, 0, 74, 63
1, 58298, Note_on_c, 0, 43, 68
1, 58322, Control_c, 0, 64, 81
1, 58334, Note_on_c, 0, 79, 84
1, 58336, Control_c, 0, 64, 62
1, 58351, Control_c, 0, 64, 0
1, 58366, Control_c, 0, 64, 25
1, 58381, Control_c, 0, 64, 48
1, 58396, Control_c, 0, 64, 58
1, 58411, Control_c, 0, 64, 66
1, 58434, Control_c, 0, 64, 78
1, 58449, Control_c, 0, 64, 127
1, 58456, Note_off_c, 0, 43, 63
1, 58496, Note_on_c, 0, 71, 71
1, 58597, Note_on_c, 0, 65, 75
1, 58597, Note_off_c, 0, 79, 63
1, 58605, Note_on_c, 0, 74, 72
1, 58623, Note_on_c, 0, 55, 52
1, 58704, Note_on_c, 0, 80, 88
1, 58789, Control_c, 0, 64, 121
1, 58794, Note_off_c, 0, 71, 52
1, 58804, Control_c, 0, 64, 111
1, 58815, Note_on_c, 0, 79, 89
1, 58819, Control_c, 0, 64, 102
1, 58834, Control_c, 0, 64, 91
1, 58849, Control_c, 0, 64, 80
1, 58861, Note_off_c, 0, 74, 54
1, 58864, Control_c, 0, 64, 69
1, 58870, Note_off_c, 0, 80, 58
1, 58878, Control_c, 0, 64, 61
1, 58893, Control_c, 0, 64, 51
1, 58908, Control_c, 0, 64, 50
1, 58918, Note_on_c, 0, 71, 69
1, 58923, Control_c, 0, 64, 51
1, 58938, Control_c, 0, 64, 54
1, 58952, Control_c, 0, 64, 57
1, 58967, Control_c, 0, 64, 60
1, 58982, Control_c, 0, 64, 64
1, 58997, Control_c, 0, 64, 68
1, 59011, Control_c, 0, 64, 78
1, 59026, Control_c, 0, 64, 93
1, 59028, Note_on_c, 0, 62, 55
1, 59036, Note_on_c, 0, 74, 68
1, 59041, Control_c, 0, 64, 127
1, 59073, Note_off_c, 0, 65, 60
1, 59083, Note_off_c, 0, 62, 60
1, 59090, Note_off_c, 0, 55, 62
1, 59100, Note_off_c, 0, 79, 60
1, 59101, Note_off_c, 0, 71, 49
1, 59145, Note_on_c, 0, 77, 76
1, 59168, Note_off_c, 0, 74, 60
1, 59230, Note_off_c, 0, 77, 61
1, 59287, Control_c, 0, 64, 117
1, 59302, Control_c, 0, 64, 107
1, 59315, Note_on_c, 0, 48, 41
1, 59316, Control_c, 0, 64, 100
1, 59331, Control_c, 0, 64, 95
1, 59346, Control_c, 0, 64, 91
1, 59359, Note_on_c, 0, 77, 58
1, 59361, Control_c, 0, 64, 86
1, 59376, Control_c, 0, 64, 80
1, 59390, Control_c, 0, 64, 74
1, 59405, Control_c, 0, 64, 67
1, 59420, Control_c, 0, 64, 62
1, 59435, Control_c, 0, 64, 57
1, 59450, Control_c, 0, 64, 55
1, 59494, Control_c, 0, 64, 56
1, 59508, Control_c, 0, 64, 57
1, 59523, Control_c, 0, 64, 59
1, 59538, Control_c, 0, 64, 61
1, 59546, Note_on_c, 0, 67, 40
1, 59553, Control_c, 0, 64, 63
1, 59568, Control_c, 0, 64, 64
1, 59582, Control_c, 0, 64, 67
1, 59597, Control_c, 0, 64, 71
1, 59603, Note_off_c, 0, 77, 57
1, 59612, Control_c, 0, 64, 78
1, 59627, Control_c, 0, 64, 86
1, 59642, Control_c, 0, 64, 95
1, 59651, Note_on_c, 0, 60, 34
1, 59657, Control_c, 0, 64, 99
1, 59663, Note_on_c, 0, 70, 39
1, 59682, Note_off_c, 0, 67, 36
1, 59686, Control_c, 0, 64, 99
1, 59701, Control_c, 0, 64, 98
1, 59716, Control_c, 0, 64, 97
1, 59731, Control_c, 0, 64, 95
1, 59740, Note_off_c, 0, 70, 44
1, 59746, Control_c, 0, 64, 92
1, 59755, Note_on_c, 0, 76, 52
1, 59761, Control_c, 0, 64, 91
1, 59775, Control_c, 0, 64, 89
1, 59790, Control_c, 0, 64, 88
1, 59805, Control_c, 0, 64, 86
1, 59820, Control_c, 0, 64, 84
1, 59834, Control_c, 0, 64, 82
1, 59849, Control_c, 0, 64, 81
1, 59854, Note_off_c, 0, 76, 54
1, 59857, Note_on_c, 0, 74, 58
1, 59864, Control_c, 0, 64, 79
1, 59879, Control_c, 0, 64, 75
1, 59894, Control_c, 0, 64, 70
1, 59908, Control_c, 0, 64, 65
1, 59931, Control_c, 0, 64, 62
1, 59946, Control_c, 0, 64, 60
1, 59961, Control_c, 0, 64, 61
1, 59973, Note_on_c, 0, 64, 45
1, 59976, Control_c, 0, 64, 61
1, 59990, Control_c, 0, 64, 62
1, 60005, Control_c, 0, 64, 63
1, 60020, Control_c, 0, 64, 64
1, 60035, Control_c, 0, 64, 66
1, 60050, Control_c, 0, 64, 69
1, 60056, Note_off_c, 0, 64, 55
1, 60065, Control_c, 0, 64, 74
1, 60066, Note_on_c, 0, 55, 35
1, 60068, Note_on_c, 0, 70, 52
1, 60077, Note_off_c, 0, 74, 56
1, 60080, Control_c, 0, 64, 82
1, 60095, Control_c, 0, 64, 93
1, 60110, Control_c, 0, 64, 106
1, 60125, Control_c, 0, 64, 115
1, 60159, Note_off_c, 0, 70, 52
1, 60160, Note_on_c, 0, 72, 66
1, 60178, Note_off_c, 0, 48, 35
1, 60201, Note_off_c, 0, 72, 61
1, 60206, Note_off_c, 0, 60, 35
1, 60213, Control_c, 0, 64, 114
1, 60228, Control_c, 0, 64, 111
1, 60243, Control_c, 0, 64, 110
1, 60257, Control_c, 0, 64, 106
1, 60272, Control_c, 0, 64, 101
1, 60278, Note_on_c, 0, 57, 41
1, 60280, Note_on_c, 0, 72, 61
1, 60288, Control_c, 0, 64, 95
1, 60303, Control_c, 0, 64, 86
1, 60318, Control_c, 0, 64, 75
1, 60332, Control_c, 0, 64, 65
1, 60347, Control_c, 0, 64, 53
1, 60353, Note_off_c, 0, 55, 42
1, 60362, Control_c, 0, 64, 38
1, 60375, Note_on_c, 0, 65, 59
1, 60377, Control_c, 0, 64, 38
1, 60392, Control_c, 0, 64, 40
1, 60406, Control_c, 0, 64, 45
1, 60421, Control_c, 0, 64, 51
1, 60436, Control_c, 0, 64, 55
1, 60450, Control_c, 0, 64, 60
1, 60465, Control_c, 0, 64, 65
1, 60478, Note_off_c, 0, 65, 58
1, 60480, Control_c, 0, 64, 71
1, 60481, Note_on_c, 0, 69, 63
1, 60485, Note_on_c, 0, 60, 49
1, 60495, Control_c, 0, 64, 84
1, 60510, Control_c, 0, 64, 102
1, 60524, Control_c, 0, 64, 127
1, 60543, Note_off_c, 0, 72, 57
1, 60566, Note_off_c, 0, 69, 64
1, 60572, Note_on_c, 0, 74, 68
1, 60643, Control_c, 0, 64, 118
1, 60658, Control_c, 0, 64, 111
1, 60669, Note_off_c, 0, 74, 63
1, 60673, Control_c, 0, 64, 103
1, 60691, Note_on_c, 0, 76, 62
1, 60695, Control_c, 0, 64, 91
1, 60704, Note_on_c, 0, 53, 38
1, 60710, Control_c, 0, 64, 79
1, 60715, Note_off_c, 0, 60, 37
1, 60725, Control_c, 0, 64, 67
1, 60739, Control_c, 0, 64, 54
1, 60754, Control_c, 0, 64, 34
1, 60757, Note_off_c, 0, 57, 36
1, 60769, Control_c, 0, 64, 33
1, 60784, Control_c, 0, 64, 35
1, 60799, Control_c, 0, 64, 40
1, 60801, Note_on_c, 0, 69, 50
1, 60813, Control_c, 0, 64, 47
1, 60829, Control_c, 0, 64, 54
1, 60844, Control_c, 0, 64, 59
1, 60859, Control_c, 0, 64, 64
1, 60874, Control_c, 0, 64, 71
1, 60888, Control_c, 0, 64, 82
1, 60900, Note_off_c, 0, 69, 50
1, 60903, Note_off_c, 0, 76, 59
1, 60903, Control_c, 0, 64, 98
1, 60918, Control_c, 0, 64, 127
1, 60919, Note_on_c, 0, 72, 49
1, 60926, Note_on_c, 0, 60, 44
1, 60967, Note_off_c, 0, 60, 62
1, 60985, Note_off_c, 0, 53, 41
1, 61003, Note_off_c, 0, 72, 63
1, 61030, Note_on_c, 0, 77, 65
1, 61087, Note_off_c, 0, 77, 54
1, 61095, Control_c, 0, 64, 119
1, 61110, Control_c, 0, 64, 111
1, 61125, Control_c, 0, 64, 104
1, 61140, Control_c, 0, 64, 94
1, 61154, Control_c, 0, 64, 80
1, 61169, Control_c, 0, 64, 68
1, 61180, Note_on_c, 0, 46, 32
1, 61184, Control_c, 0, 64, 55
1, 61199, Control_c, 0, 64, 39
1, 61214, Control_c, 0, 64, 42
1, 61218, Note_on_c, 0, 77, 55
1, 61228, Control_c, 0, 64, 48
1, 61243, Control_c, 0, 64, 56
1, 61258, Control_c, 0, 64, 60
1, 61272, Control_c, 0, 64, 65
1, 61287, Control_c, 0, 64, 72
1, 61302, Control_c, 0, 64, 85
1, 61312, Note_off_c, 0, 46, 49
1, 61317, Control_c, 0, 64, 110
1, 61332, Control_c, 0, 64, 127
1, 61344, Note_off_c, 0, 77, 50
1, 61402, Note_on_c, 0, 65, 41
1, 61536, Note_on_c, 0, 62, 48
1, 61538, Note_on_c, 0, 70, 51
1, 61555, Note_off_c, 0, 65, 35
1, 61564, Note_on_c, 0, 58, 39
1, 61613, Note_off_c, 0, 70, 61
1, 61629, Note_on_c, 0, 74, 63
1, 61713, Note_off_c, 0, 58, 53
1, 61725, Control_c, 0, 64, 118
1, 61729, Note_off_c, 0, 62, 55
1, 61737, Note_on_c, 0, 60, 54
1, 61740, Control_c, 0, 64, 107
1, 61744, Note_off_c, 0, 74, 57
1, 61746, Note_on_c, 0, 72, 65
1, 61751, Note_on_c, 0, 57, 47
1, 61755, Control_c, 0, 64, 101
1, 61770, Control_c, 0, 64, 97
1, 61784, Control_c, 0, 64, 91
1, 61799, Control_c, 0, 64, 82
1, 61814, Control_c, 0, 64, 73
1, 61829, Control_c, 0, 64, 65
1, 61833, Note_on_c, 0, 66, 57
1, 61844, Control_c, 0, 64, 58
1, 61858, Control_c, 0, 64, 57
1, 61888, Control_c, 0, 64, 57
1, 61902, Control_c, 0, 64, 56
1, 61917, Control_c, 0, 64, 55
1, 61923, Note_off_c, 0, 57, 51
1, 61925, Note_off_c, 0, 66, 62
1, 61932, Control_c, 0, 64, 57
1, 61942, Note_on_c, 0, 67, 60
1, 61946, Note_on_c, 0, 58, 49
1, 61947, Control_c, 0, 64, 60
1, 61948, Note_on_c, 0, 55, 43
1, 61962, Control_c, 0, 64, 63
1, 61965, Note_off_c, 0, 60, 55
1, 61976, Control_c, 0, 64, 67
1, 61991, Control_c, 0, 64, 76
1, 61998, Note_off_c, 0, 58, 63
1, 62004, Note_off_c, 0, 55, 60
1, 62006, Control_c, 0, 64, 94
1, 62021, Control_c, 0, 64, 127
1, 62032, Note_off_c, 0, 67, 54
1, 62040, Note_on_c, 0, 70, 64
1, 62041, Note_off_c, 0, 72, 58
1, 62083, Note_off_c, 0, 70, 59
1, 62140, Control_c, 0, 64, 106
1, 62155, Control_c, 0, 64, 90
1, 62157, Note_on_c, 0, 69, 67
1, 62160, Note_on_c, 0, 48, 40
1, 62176, Control_c, 0, 64, 75
1, 62191, Control_c, 0, 64, 64
1, 62206, Control_c, 0, 64, 51
1, 62221, Control_c, 0, 64, 41
1, 62235, Control_c, 0, 64, 43
1, 62250, Control_c, 0, 64, 47
1, 62264, Note_on_c, 0, 60, 55
1, 62265, Control_c, 0, 64, 52
1, 62280, Control_c, 0, 64, 55
1, 62295, Control_c, 0, 64, 58
1, 62310, Control_c, 0, 64, 63
1, 62325, Control_c, 0, 64, 66
1, 62339, Control_c, 0, 64, 72
1, 62351, Note_off_c, 0, 69, 59
1, 62354, Control_c, 0, 64, 79
1, 62357, Note_off_c, 0, 48, 55
1, 62363, Note_on_c, 0, 65, 58
1, 62369, Note_on_c, 0, 57, 47
1, 62369, Control_c, 0, 64, 88
1, 62384, Control_c, 0, 64, 96
1, 62399, Control_c, 0, 64, 104
1, 62405, Note_off_c, 0, 60, 30
1, 62414, Control_c, 0, 64, 111
1, 62429, Control_c, 0, 64, 112
1, 62444, Control_c, 0, 64, 111
1, 62453, Note_on_c, 0, 70, 71
1, 62459, Control_c, 0, 64, 110
1, 62465, Note_off_c, 0, 65, 58
1, 62474, Control_c, 0, 64, 108
1, 62489, Control_c, 0, 64, 107
1, 62503, Control_c, 0, 64, 104
1, 62518, Control_c, 0, 64, 101
1, 62533, Control_c, 0, 64, 99
1, 62541, Note_off_c, 0, 57, 59
1, 62548, Control_c, 0, 64, 95
1, 62554, Note_on_c, 0, 67, 65
1, 62561, Note_on_c, 0, 48, 41
1, 62563, Control_c, 0, 64, 88
1, 62575, Note_off_c, 0, 70, 57
1, 62578, Control_c, 0, 64, 79
1, 62593, Control_c, 0, 64, 68
1, 62607, Control_c, 0, 64, 58
1, 62622, Control_c, 0, 64, 41
1, 62637, Control_c, 0, 64, 39
1, 62652, Control_c, 0, 64, 40
1, 62667, Control_c, 0, 64, 44
1, 62668, Note_on_c, 0, 60, 49
1, 62681, Control_c, 0, 64, 48
1, 62696, Control_c, 0, 64, 53
1, 62711, Control_c, 0, 64, 58
1, 62725, Control_c, 0, 64, 64
1, 62740, Control_c, 0, 64, 69
1, 62755, Control_c, 0, 64, 76
1, 62770, Control_c, 0, 64, 86
1, 62772, Note_on_c, 0, 58, 43
1, 62785, Control_c, 0, 64, 101
1, 62795, Note_on_c, 0, 64, 53
1, 62799, Control_c, 0, 64, 127
1, 62802, Note_off_c, 0, 60, 51
1, 62830, Note_off_c, 0, 67, 49
1, 62876, Note_off_c, 0, 58, 57
1, 62897, Note_on_c, 0, 72, 60
1, 62897, Note_off_c, 0, 64, 62
1, 63029, Control_c, 0, 64, 114
1, 63044, Note_on_c, 0, 57, 36
1, 63044, Control_c, 0, 64, 97
1, 63053, Note_on_c, 0, 53, 38
1, 63058, Control_c, 0, 64, 83
1, 63064, Note_off_c, 0, 72, 54
1, 63073, Note_off_c, 0, 48, 35
1, 63073, Control_c, 0, 64, 69
1, 63088, Control_c, 0, 64, 56
1, 63089, Note_on_c, 0, 65, 48
1, 63103, Control_c, 0, 64, 18
1, 63118, Control_c, 0, 64, 9
1, 63147, Control_c, 0, 64, 15
1, 63162, Control_c, 0, 64, 28
1, 63177, Control_c, 0, 64, 42
1, 63192, Control_c, 0, 64, 53
1, 63207, Control_c, 0, 64, 62
1, 63222, Control_c, 0, 64, 67
1, 63236, Note_off_c, 0, 65, 62
1, 63237, Control_c, 0, 64, 74
1, 63239, Note_on_c, 0, 60, 53
1, 63252, Control_c, 0, 64, 84
1, 63267, Control_c, 0, 64, 96
1, 63281, Control_c, 0, 64, 108
1, 63296, Control_c, 0, 64, 118
1, 63311, Control_c, 0, 64, 119
1, 63326, Control_c, 0, 64, 121
1, 63333, Note_off_c, 0, 60, 60
1, 63340, Control_c, 0, 64, 123
1, 63349, Note_on_c, 0, 65, 68
1, 63385, Control_c, 0, 64, 121
1, 63400, Control_c, 0, 64, 118
1, 63415, Control_c, 0, 64, 116
1, 63429, Control_c, 0, 64, 115
1, 63437, Note_off_c, 0, 65, 60
1, 63441, Note_on_c, 0, 69, 74
1, 63444, Control_c, 0, 64, 113
1, 63459, Control_c, 0, 64, 110
1, 63474, Control_c, 0, 64, 107
1, 63489, Control_c, 0, 64, 106
1, 63503, Control_c, 0, 64, 104
1, 63518, Control_c, 0, 64, 103
1, 63533, Control_c, 0, 64, 100
1, 63547, Control_c, 0, 64, 97
1, 63562, Control_c, 0, 64, 89
1, 63565, Note_on_c, 0, 72, 68
1, 63566, Note_off_c, 0, 69, 60
1, 63577, Control_c, 0, 64, 80
1, 63592, Control_c, 0, 64, 70
1, 63607, Control_c, 0, 64, 60
1, 63621, Control_c, 0, 64, 40
1, 63636, Control_c, 0, 64, 31
1, 63651, Control_c, 0, 64, 33
1, 63673, Control_c, 0, 64, 38
1, 63688, Control_c, 0, 64, 46
1, 63703, Control_c, 0, 64, 53
1, 63704, Note_on_c, 0, 65, 43
1, 63718, Control_c, 0, 64, 59
1, 63733, Control_c, 0, 64, 65
1, 63747, Control_c, 0, 64, 71
1, 63762, Control_c, 0, 64, 83
1, 63777, Control_c, 0, 64, 94
1, 63792, Control_c, 0, 64, 97
1, 63807, Control_c, 0, 64, 97
1, 63821, Note_off_c, 0, 65, 52
1, 63821, Control_c, 0, 64, 95
1, 63836, Control_c, 0, 64, 93
1, 63851, Note_on_c, 0, 73, 54
1, 63851, Control_c, 0, 64, 89
1, 63866, Control_c, 0, 64, 85
1, 63872, Note_off_c, 0, 72, 51
1, 63881, Control_c, 0, 64, 78
1, 63895, Control_c, 0, 64, 70
1, 63910, Control_c, 0, 64, 60
1, 63925, Control_c, 0, 64, 39
1, 63940, Control_c, 0, 64, 24
1, 63955, Control_c, 0, 64, 24
1, 63970, Control_c, 0, 64, 28
1, 63985, Control_c, 0, 64, 37
1, 64000, Control_c, 0, 64, 47
1, 64015, Control_c, 0, 64, 54
1, 64031, Control_c, 0, 64, 61
1, 64045, Control_c, 0, 64, 65
1, 64051, Note_on_c, 0, 65, 37
1, 64060, Control_c, 0, 64, 68
1, 64075, Control_c, 0, 64, 73
1, 64090, Control_c, 0, 64, 79
1, 64104, Control_c, 0, 64, 86
1, 64119, Control_c, 0, 64, 96
1, 64134, Control_c, 0, 64, 109
1, 64149, Control_c, 0, 64, 114
1, 64208, Control_c, 0, 64, 112
1, 64212, Note_off_c, 0, 65, 31
1, 64223, Control_c, 0, 64, 110
1, 64238, Control_c, 0, 64, 107
1, 64253, Control_c, 0, 64, 105
1, 64268, Control_c, 0, 64, 103
1, 64283, Control_c, 0, 64, 100
1, 64297, Control_c, 0, 64, 95
1, 64312, Control_c, 0, 64, 91
1, 64327, Control_c, 0, 64, 88
1, 64330, Note_on_c, 0, 46, 24
1, 64342, Control_c, 0, 64, 86
1, 64357, Control_c, 0, 64, 84
1, 64369, Note_off_c, 0, 73, 33
1, 64371, Control_c, 0, 64, 80
1, 64375, Note_on_c, 0, 74, 44
1, 64386, Control_c, 0, 64, 76
1, 64401, Control_c, 0, 64, 71
1, 64423, Control_c, 0, 64, 68
1, 64434, Note_off_c, 0, 53, 43
1, 64438, Control_c, 0, 64, 64
1, 64453, Control_c, 0, 64, 60
1, 64463, Note_off_c, 0, 57, 34
1, 64468, Control_c, 0, 64, 54
1, 64483, Control_c, 0, 64, 46
1, 64497, Control_c, 0, 64, 41
1, 64512, Control_c, 0, 64, 41
1, 64527, Control_c, 0, 64, 42
1, 64542, Control_c, 0, 64, 45
1, 64557, Control_c, 0, 64, 49
1, 64571, Control_c, 0, 64, 54
1, 64586, Control_c, 0, 64, 58
1, 64601, Control_c, 0, 64, 62
1, 64616, Control_c, 0, 64, 66
1, 64631, Control_c, 0, 64, 70
1, 64645, Note_on_c, 0, 62, 28
1, 64645, Control_c, 0, 64, 76
1, 64660, Control_c, 0, 64, 84
1, 64675, Control_c, 0, 64, 93
1, 64690, Control_c, 0, 64, 108
1, 64704, Control_c, 0, 64, 127
1, 64730, Note_off_c, 0, 74, 34
1, 64766, Note_off_c, 0, 62, 34
1, 64779, Note_on_c, 0, 53, 32
1, 64793, Note_on_c, 0, 65, 35
1, 64858, Note_off_c, 0, 65, 57
1, 64884, Note_on_c, 0, 74, 48
1, 64922, Note_off_c, 0, 74, 63
1, 64966, Note_off_c, 0, 53, 40
1, 65006, Note_on_c, 0, 74, 52
1, 65088, Note_off_c, 0, 74, 55
1, 65100, Note_on_c, 0, 62, 44
1, 65198, Note_off_c, 0, 62, 57
1, 65199, Note_on_c, 0, 53, 47
1, 65211, Note_on_c, 0, 65, 48
1, 65282, Note_off_c, 0, 65, 58
1, 65300, Note_on_c, 0, 74, 60
1, 65350, Control_c, 0, 64, 118
1, 65365, Control_c, 0, 64, 109
1, 65380, Control_c, 0, 64, 102
1, 65384, Note_off_c, 0, 46, 39
1, 65395, Control_c, 0, 64, 94
1, 65398, Note_on_c, 0, 50, 51
1, 65409, Control_c, 0, 64, 84
1, 65417, Note_off_c, 0, 74, 55
1, 65419, Note_on_c, 0, 72, 60
1, 65424, Control_c, 0, 64, 73
1, 65439, Control_c, 0, 64, 62
1, 65449, Note_off_c, 0, 53, 43
1, 65453, Control_c, 0, 64, 49
1, 65468, Control_c, 0, 64, 47
1, 65483, Control_c, 0, 64, 48
1, 65498, Control_c, 0, 64, 49
1, 65513, Control_c, 0, 64, 52
1, 65523, Note_on_c, 0, 65, 53
1, 65527, Control_c, 0, 64, 56
1, 65542, Control_c, 0, 64, 60
1, 65557, Control_c, 0, 64, 65
1, 65572, Control_c, 0, 64, 71
1, 65587, Control_c, 0, 64, 83
1, 65601, Control_c, 0, 64, 102
1, 65607, Note_on_c, 0, 58, 55
1, 65614, Note_off_c, 0, 65, 55
1, 65617, Control_c, 0, 64, 127
1, 65634, Note_on_c, 0, 68, 59
1, 65651, Note_off_c, 0, 72, 59
1, 65710, Note_off_c, 0, 68, 58
1, 65716, Note_on_c, 0, 70, 67
1, 65744, Note_off_c, 0, 70, 65
1, 65770, Note_off_c, 0, 58, 58
1, 65819, Note_on_c, 0, 70, 70
1, 65934, Note_on_c, 0, 65, 56
1, 66032, Note_off_c, 0, 50, 56
1, 66033, Note_on_c, 0, 58, 51
1, 66036, Note_on_c, 0, 68, 53
1, 66052, Note_off_c, 0, 70, 47
1, 66066, Note_off_c, 0, 65, 35
1, 66113, Note_off_c, 0, 68, 58
1, 66127, Note_on_c, 0, 72, 59
1, 66217, Control_c, 0, 64, 112
1, 66232, Control_c, 0, 64, 102
1, 66238, Note_on_c, 0, 70, 56
1, 66244, Note_on_c, 0, 51, 49
1, 66247, Control_c, 0, 64, 91
1, 66262, Control_c, 0, 64, 80
1, 66267, Note_off_c, 0, 58, 48
1, 66276, Control_c, 0, 64, 67
1, 66280, Note_off_c, 0, 72, 51
1, 66291, Control_c, 0, 64, 56
1, 66306, Control_c, 0, 64, 42
1, 66336, Control_c, 0, 64, 45
1, 66346, Note_on_c, 0, 66, 51
1, 66350, Control_c, 0, 64, 51
1, 66365, Control_c, 0, 64, 56
1, 66380, Control_c, 0, 64, 60
1, 66395, Control_c, 0, 64, 65
1, 66410, Control_c, 0, 64, 72
1, 66423, Note_off_c, 0, 70, 52
1, 66426, Control_c, 0, 64, 84
1, 66440, Control_c, 0, 64, 112
1, 66444, Note_off_c, 0, 66, 61
1, 66446, Note_on_c, 0, 58, 58
1, 66453, Note_on_c, 0, 67, 63
1, 66455, Control_c, 0, 64, 127
1, 66545, Note_on_c, 0, 72, 69
1, 66573, Note_off_c, 0, 67, 54
1, 66646, Note_on_c, 0, 74, 76
1, 66694, Note_off_c, 0, 72, 63
1, 66709, Note_off_c, 0, 58, 56
1, 66745, Note_on_c, 0, 67, 70
1, 66754, Note_off_c, 0, 74, 60
1, 66835, Note_on_c, 0, 58, 70
1, 66847, Note_on_c, 0, 70, 81
1, 66854, Note_off_c, 0, 67, 59
1, 66876, Note_off_c, 0, 51, 52
1, 66937, Note_on_c, 0, 75, 80
1, 66950, Note_off_c, 0, 70, 63
1, 67025, Note_on_c, 0, 52, 57
1, 67052, Note_on_c, 0, 78, 82
1, 67054, Control_c, 0, 64, 107
1, 67067, Note_off_c, 0, 58, 57
1, 67069, Control_c, 0, 64, 87
1, 67084, Control_c, 0, 64, 72
1, 67098, Control_c, 0, 64, 62
1, 67107, Note_off_c, 0, 75, 57
1, 67113, Control_c, 0, 64, 47
1, 67128, Control_c, 0, 64, 45
1, 67143, Control_c, 0, 64, 45
1, 67154, Note_on_c, 0, 70, 73
1, 67158, Control_c, 0, 64, 47
1, 67172, Control_c, 0, 64, 51
1, 67187, Control_c, 0, 64, 55
1, 67202, Control_c, 0, 64, 60
1, 67218, Control_c, 0, 64, 64
1, 67233, Control_c, 0, 64, 70
1, 67248, Control_c, 0, 64, 80
1, 67252, Note_on_c, 0, 61, 63
1, 67258, Note_on_c, 0, 58, 58
1, 67262, Control_c, 0, 64, 100
1, 67264, Note_on_c, 0, 73, 79
1, 67277, Control_c, 0, 64, 127
1, 67278, Note_off_c, 0, 70, 57
1, 67319, Note_off_c, 0, 78, 60
1, 67361, Note_on_c, 0, 79, 84
1, 67370, Note_off_c, 0, 73, 64
1, 67424, Note_off_c, 0, 79, 65
1, 67463, Control_c, 0, 64, 101
1, 67477, Control_c, 0, 64, 83
1, 67492, Control_c, 0, 64, 67
1, 67499, Note_on_c, 0, 81, 79
1, 67507, Control_c, 0, 64, 56
1, 67521, Control_c, 0, 64, 46
1, 67536, Control_c, 0, 64, 48
1, 67551, Control_c, 0, 64, 52
1, 67566, Control_c, 0, 64, 56
1, 67581, Control_c, 0, 64, 60
1, 67595, Control_c, 0, 64, 64
1, 67606, Note_on_c, 0, 70, 54
1, 67610, Control_c, 0, 64, 69
1, 67624, Note_off_c, 0, 61, 55
1, 67625, Note_off_c, 0, 58, 54
1, 67625, Control_c, 0, 64, 79
1, 67640, Control_c, 0, 64, 100
1, 67655, Control_c, 0, 64, 127
1, 67703, Note_off_c, 0, 81, 62
1, 67729, Note_on_c, 0, 58, 26
1, 67732, Note_on_c, 0, 61, 37
1, 67745, Note_on_c, 0, 73, 58
1, 67749, Note_off_c, 0, 70, 43
1, 67914, Note_on_c, 0, 82, 65
1, 67958, Note_off_c, 0, 73, 60
1, 67992, Note_off_c, 0, 82, 64
1, 68185, Note_on_c, 0, 55, 29
1, 68197, Control_c, 0, 64, 116
1, 68212, Control_c, 0, 64, 107
1, 68227, Control_c, 0, 64, 99
1, 68242, Control_c, 0, 64, 96
1, 68246, Note_on_c, 0, 72, 35
1, 68255, Note_off_c, 0, 52, 34
1, 68257, Control_c, 0, 64, 92
1, 68271, Control_c, 0, 64, 89
1, 68286, Control_c, 0, 64, 83
1, 68290, Note_off_c, 0, 58, 33
1, 68301, Control_c, 0, 64, 78
1, 68316, Control_c, 0, 64, 74
1, 68331, Control_c, 0, 64, 71
1, 68340, Note_off_c, 0, 61, 37
1, 68345, Control_c, 0, 64, 68
1, 68360, Control_c, 0, 64, 65
1, 68375, Control_c, 0, 64, 61
1, 68390, Control_c, 0, 64, 55
1, 68405, Control_c, 0, 64, 49
1, 68419, Control_c, 0, 64, 47
1, 68453, Note_on_c, 0, 64, 37
1, 68464, Control_c, 0, 64, 48
1, 68479, Control_c, 0, 64, 51
1, 68493, Control_c, 0, 64, 54
1, 68508, Control_c, 0, 64, 57
1, 68523, Control_c, 0, 64, 59
1, 68537, Control_c, 0, 64, 61
1, 68552, Control_c, 0, 64, 63
1, 68561, Note_on_c, 0, 70, 37
1, 68565, Note_on_c, 0, 60, 30
1, 68567, Control_c, 0, 64, 65
1, 68582, Control_c, 0, 64, 68
1, 68597, Control_c, 0, 64, 73
1, 68603, Note_on_c, 0, 58, 27
1, 68611, Control_c, 0, 64, 78
1, 68626, Control_c, 0, 64, 83
1, 68629, Note_off_c, 0, 64, 31
1, 68637, Note_off_c, 0, 72, 41
1, 68641, Control_c, 0, 64, 89
1, 68656, Note_off_c, 0, 70, 57
1, 68656, Control_c, 0, 64, 95
1, 68671, Control_c, 0, 64, 103
1, 68681, Note_on_c, 0, 74, 47
1, 68686, Control_c, 0, 64, 127
1, 68733, Note_off_c, 0, 60, 45
1, 68773, Note_on_c, 0, 72, 50
1, 68794, Note_off_c, 0, 58, 40
1, 68826, Note_off_c, 0, 74, 34
1, 68863, Note_on_c, 0, 64, 45
1, 68958, Note_off_c, 0, 72, 61
1, 68963, Note_off_c, 0, 64, 54
1, 68973, Note_on_c, 0, 70, 57
1, 68976, Note_on_c, 0, 61, 44
1, 68978, Note_on_c, 0, 58, 40
1, 69017, Note_off_c, 0, 55, 40
1, 69064, Note_off_c, 0, 70, 59
1, 69068, Note_on_c, 0, 73, 62
1, 69073, Note_off_c, 0, 61, 55
1, 69169, Control_c, 0, 64, 108
1, 69184, Control_c, 0, 64, 90
1, 69184, Note_off_c, 0, 73, 57
1, 69188, Note_on_c, 0, 74, 61
1, 69190, Note_on_c, 0, 53, 46
1, 69193, Note_off_c, 0, 58, 52
1, 69199, Control_c, 0, 64, 75
1, 69213, Control_c, 0, 64, 63
1, 69228, Control_c, 0, 64, 49
1, 69243, Control_c, 0, 64, 45
1, 69258, Control_c, 0, 64, 48
1, 69273, Control_c, 0, 64, 53
1, 69288, Control_c, 0, 64, 57
1, 69294, Note_on_c, 0, 65, 52
1, 69302, Control_c, 0, 64, 61
1, 69317, Control_c, 0, 64, 65
1, 69332, Control_c, 0, 64, 72
1, 69342, Note_off_c, 0, 74, 57
1, 69347, Control_c, 0, 64, 88
1, 69361, Control_c, 0, 64, 117
1, 69376, Control_c, 0, 64, 127
1, 69383, Note_off_c, 0, 65, 55
1, 69398, Note_on_c, 0, 62, 58
1, 69400, Note_on_c, 0, 70, 65
1, 69413, Note_on_c, 0, 58, 50
1, 69464, Note_off_c, 0, 62, 63
1, 69482, Note_on_c, 0, 74, 67
1, 69485, Note_off_c, 0, 58, 60
1, 69497, Note_off_c, 0, 70, 58
1, 69583, Control_c, 0, 64, 117
1, 69593, Note_on_c, 0, 75, 76
1, 69595, Note_on_c, 0, 60, 58
1, 69595, Note_on_c, 0, 63, 72
1, 69598, Control_c, 0, 64, 89
1, 69614, Control_c, 0, 64, 73
1, 69629, Control_c, 0, 64, 61
1, 69635, Note_off_c, 0, 74, 56
1, 69644, Control_c, 0, 64, 54
1, 69666, Control_c, 0, 64, 58
1, 69681, Note_off_c, 0, 60, 64
1, 69681, Control_c, 0, 64, 62
1, 69693, Note_off_c, 0, 75, 62
1, 69694, Note_off_c, 0, 53, 51
1, 69696, Control_c, 0, 64, 65
1, 69705, Note_on_c, 0, 65, 73
1, 69711, Control_c, 0, 64, 72
1, 69714, Note_off_c, 0, 63, 63
1, 69726, Control_c, 0, 64, 93
1, 69740, Control_c, 0, 64, 127
1, 69777, Note_off_c, 0, 65, 60
1, 69799, Control_c, 0, 64, 103
1, 69807, Note_on_c, 0, 65, 59
1, 69814, Note_on_c, 0, 74, 80
1, 69814, Control_c, 0, 64, 78
1, 69816, Note_on_c, 0, 62, 70
1, 69829, Control_c, 0, 64, 65
1, 69844, Control_c, 0, 64, 55
1, 69859, Control_c, 0, 64, 55
1, 69873, Control_c, 0, 64, 59
1, 69888, Control_c, 0, 64, 62
1, 69903, Note_off_c, 0, 74, 61
1, 69903, Control_c, 0, 64, 66
1, 69914, Note_on_c, 0, 77, 81
1, 69918, Control_c, 0, 64, 73
1, 69926, Note_off_c, 0, 62, 60
1, 69933, Control_c, 0, 64, 89
1, 69947, Control_c, 0, 64, 127
1, 69971, Note_off_c, 0, 77, 64
1, 70030, Note_off_c, 0, 65, 48
1, 70040, Note_on_c, 0, 53, 51
1, 70060, Note_on_c, 0, 77, 78
1, 70066, Control_c, 0, 64, 119
1, 70081, Control_c, 0, 64, 92
1, 70096, Control_c, 0, 64, 76
1, 70110, Control_c, 0, 64, 65
1, 70125, Control_c, 0, 64, 52
1, 70140, Control_c, 0, 64, 48
1, 70155, Control_c, 0, 64, 50
1, 70170, Control_c, 0, 64, 52
1, 70172, Note_on_c, 0, 65, 60
1, 70184, Control_c, 0, 64, 56
1, 70199, Control_c, 0, 64, 59
1, 70214, Control_c, 0, 64, 61
1, 70229, Control_c, 0, 64, 64
1, 70244, Control_c, 0, 64, 66
1, 70258, Control_c, 0, 64, 71
1, 70262, Note_on_c, 0, 63, 67
1, 70273, Control_c, 0, 64, 80
1, 70276, Note_off_c, 0, 65, 58
1, 70284, Note_on_c, 0, 72, 67
1, 70287, Note_on_c, 0, 60, 48
1, 70288, Control_c, 0, 64, 92
1, 70303, Control_c, 0, 64, 113
1, 70317, Control_c, 0, 64, 127
1, 70358, Note_on_c, 0, 75, 77
1, 70361, Note_off_c, 0, 77, 55
1, 70379, Note_off_c, 0, 72, 59
1, 70415, Note_off_c, 0, 63, 61
1, 70424, Note_off_c, 0, 53, 54
1, 70442, Note_off_c, 0, 60, 57
1, 70462, Note_off_c, 0, 75, 58
1, 70474, Control_c, 0, 64, 95
1, 70478, Note_on_c, 0, 62, 66
1, 70486, Note_on_c, 0, 74, 79
1, 70489, Control_c, 0, 64, 76
1, 70497, Note_on_c, 0, 58, 50
1, 70504, Control_c, 0, 64, 65
1, 70519, Control_c, 0, 64, 55
1, 70534, Control_c, 0, 64, 52
1, 70548, Control_c, 0, 64, 53
1, 70563, Control_c, 0, 64, 55
1, 70578, Control_c, 0, 64, 60
1, 70585, Note_on_c, 0, 65, 63
1, 70593, Control_c, 0, 64, 64
1, 70608, Control_c, 0, 64, 69
1, 70622, Control_c, 0, 64, 80
1, 70637, Control_c, 0, 64, 110
1, 70652, Control_c, 0, 64, 127
1, 70682, Control_c, 0, 64, 100
1, 70684, Note_off_c, 0, 62, 58
1, 70688, Note_on_c, 0, 60, 64
1, 70693, Note_on_c, 0, 53, 56
1, 70696, Control_c, 0, 64, 80
1, 70704, Note_on_c, 0, 69, 66
1, 70711, Control_c, 0, 64, 67
1, 70717, Note_off_c, 0, 65, 54
1, 70720, Note_off_c, 0, 58, 36
1, 70726, Control_c, 0, 64, 60
1, 70740, Control_c, 0, 64, 63
1, 70742, Note_off_c, 0, 74, 57
1, 70748, Note_off_c, 0, 60, 64
1, 70755, Control_c, 0, 64, 68
1, 70765, Note_off_c, 0, 53, 63
1, 70770, Control_c, 0, 64, 74
1, 70785, Control_c, 0, 64, 88
1, 70796, Note_on_c, 0, 72, 72
1, 70800, Control_c, 0, 64, 127
1, 70802, Note_off_c, 0, 69, 61
1, 70889, Control_c, 0, 64, 113
1, 70904, Control_c, 0, 64, 101
1, 70919, Control_c, 0, 64, 93
1, 70928, Note_on_c, 0, 70, 67
1, 70933, Control_c, 0, 64, 83
1, 70934, Note_on_c, 0, 58, 46
1, 70939, Note_on_c, 0, 50, 40
1, 70945, Note_on_c, 0, 46, 41
1, 70948, Control_c, 0, 64, 74
1, 70960, Note_off_c, 0, 72, 56
1, 70963, Control_c, 0, 64, 65
1, 70978, Control_c, 0, 64, 55
1, 70993, Control_c, 0, 64, 42
1, 71008, Control_c, 0, 64, 41
1, 71022, Control_c, 0, 64, 43
1, 71037, Control_c, 0, 64, 48
1, 71044, Note_on_c, 0, 62, 53
1, 71052, Control_c, 0, 64, 53
1, 71067, Control_c, 0, 64, 56
1, 71081, Control_c, 0, 64, 59
1, 71096, Control_c, 0, 64, 62
1, 71111, Control_c, 0, 64, 66
1, 71126, Control_c, 0, 64, 70
1, 71140, Control_c, 0, 64, 76
1, 71145, Note_on_c, 0, 65, 62
1, 71163, Control_c, 0, 64, 85
1, 71178, Control_c, 0, 64, 94
1, 71191, Note_off_c, 0, 46, 40
1, 71192, Note_off_c, 0, 50, 40
1, 71193, Control_c, 0, 64, 99
1, 71208, Control_c, 0, 64, 101
1, 71216, Note_off_c, 0, 62, 37
1, 71237, Note_off_c, 0, 70, 62
1, 71240, Note_on_c, 0, 72, 73
1, 71267, Control_c, 0, 64, 100
1, 71282, Control_c, 0, 64, 98
1, 71285, Note_off_c, 0, 58, 58
1, 71297, Note_off_c, 0, 65, 60
1, 71297, Control_c, 0, 64, 95
1, 71312, Control_c, 0, 64, 93
1, 71327, Control_c, 0, 64, 92
1, 71342, Control_c, 0, 64, 92
1, 71348, Note_on_c, 0, 70, 80
1, 71357, Control_c, 0, 64, 90
1, 71371, Control_c, 0, 64, 88
1, 71386, Control_c, 0, 64, 87
1, 71391, Note_off_c, 0, 72, 56
1, 71401, Control_c, 0, 64, 85
1, 71416, Control_c, 0, 64, 84
1, 71431, Control_c, 0, 64, 82
1, 71445, Control_c, 0, 64, 79
1, 71446, Note_on_c, 0, 62, 60
1, 71460, Control_c, 0, 64, 74
1, 71475, Control_c, 0, 64, 69
1, 71490, Control_c, 0, 64, 63
1, 71505, Control_c, 0, 64, 58
1, 71519, Control_c, 0, 64, 58
1, 71542, Note_on_c, 0, 58, 72
1, 71549, Control_c, 0, 64, 59
1, 71550, Note_on_c, 0, 65, 65
1, 71563, Control_c, 0, 64, 61
1, 71578, Control_c, 0, 64, 63
1, 71582, Note_off_c, 0, 62, 56
1, 71591, Note_off_c, 0, 70, 59
1, 71593, Control_c, 0, 64, 66
1, 71608, Control_c, 0, 64, 70
1, 71623, Control_c, 0, 64, 80
1, 71637, Control_c, 0, 64, 95
1, 71646, Note_on_c, 0, 74, 71
1, 71652, Control_c, 0, 64, 127
1, 71659, Note_off_c, 0, 65, 62
1, 71709, Note_off_c, 0, 74, 60
1, 71771, Control_c, 0, 64, 113
1, 71786, Control_c, 0, 64, 103
1, 71797, Note_on_c, 0, 62, 58
1, 71801, Control_c, 0, 64, 91
1, 71816, Control_c, 0, 64, 77
1, 71831, Control_c, 0, 64, 66
1, 71834, Note_on_c, 0, 77, 59
1, 71838, Note_on_c, 0, 53, 41
1, 71845, Control_c, 0, 64, 54
1, 71846, Note_off_c, 0, 58, 58
1, 71860, Control_c, 0, 64, 45
1, 71875, Control_c, 0, 64, 48
1, 71889, Control_c, 0, 64, 52
1, 71904, Control_c, 0, 64, 56
1, 71926, Control_c, 0, 64, 60
1, 71941, Control_c, 0, 64, 64
1, 71956, Control_c, 0, 64, 71
1, 71971, Control_c, 0, 64, 81
1, 71976, Note_off_c, 0, 62, 64
1, 71986, Control_c, 0, 64, 98
1, 72001, Control_c, 0, 64, 127
1, 72006, Note_on_c, 0, 65, 54
1, 72098, Note_off_c, 0, 65, 54
1, 72120, Note_on_c, 0, 63, 54
1, 72128, Note_on_c, 0, 72, 58
1, 72135, Note_on_c, 0, 60, 39
1, 72161, Note_off_c, 0, 77, 58
1, 72207, Note_off_c, 0, 72, 63
1, 72215, Note_on_c, 0, 75, 66
1, 72227, Note_off_c, 0, 63, 58
1, 72283, Note_off_c, 0, 53, 40
1, 72305, Note_off_c, 0, 60, 52
1, 72312, Control_c, 0, 64, 107
1, 72320, Note_off_c, 0, 75, 56
1, 72323, Note_on_c, 0, 62, 48
1, 72325, Note_on_c, 0, 74, 61
1, 72327, Control_c, 0, 64, 85
1, 72332, Note_on_c, 0, 58, 45
1, 72341, Control_c, 0, 64, 71
1, 72356, Control_c, 0, 64, 62
1, 72371, Control_c, 0, 64, 53
1, 72400, Control_c, 0, 64, 55
1, 72415, Control_c, 0, 64, 59
1, 72425, Note_on_c, 0, 65, 51
1, 72430, Control_c, 0, 64, 63
1, 72445, Control_c, 0, 64, 68
1, 72460, Control_c, 0, 64, 77
1, 72475, Control_c, 0, 64, 97
1, 72489, Control_c, 0, 64, 127
1, 72519, Control_c, 0, 64, 98
1, 72534, Control_c, 0, 64, 78
1, 72537, Note_on_c, 0, 69, 52
1, 72537, Note_on_c, 0, 53, 43
1, 72549, Note_on_c, 0, 60, 43
1, 72549, Control_c, 0, 64, 65
1, 72552, Note_off_c, 0, 62, 37
1, 72563, Note_off_c, 0, 65, 38
1, 72564, Control_c, 0, 64, 59
1, 72576, Note_off_c, 0, 58, 36
1, 72578, Control_c, 0, 64, 63
1, 72589, Note_off_c, 0, 60, 65
1, 72593, Control_c, 0, 64, 66
1, 72598, Note_off_c, 0, 74, 49
1, 72606, Note_off_c, 0, 53, 63
1, 72608, Control_c, 0, 64, 72
1, 72623, Note_off_c, 0, 69, 61
1, 72623, Control_c, 0, 64, 80
1, 72638, Control_c, 0, 64, 94
1, 72643, Note_on_c, 0, 72, 55
1, 72659, Control_c, 0, 64, 113
1, 72674, Control_c, 0, 64, 127
1, 72689, Control_c, 0, 64, 121
1, 72704, Control_c, 0, 64, 111
1, 72719, Control_c, 0, 64, 105
1, 72734, Control_c, 0, 64, 100
1, 72749, Control_c, 0, 64, 94
1, 72764, Control_c, 0, 64, 87
1, 72767, Note_on_c, 0, 70, 52
1, 72772, Note_off_c, 0, 72, 53
1, 72779, Control_c, 0, 64, 81
1, 72793, Note_on_c, 0, 58, 31
1, 72793, Control_c, 0, 64, 73
1, 72795, Note_on_c, 0, 50, 34
1, 72797, Note_on_c, 0, 46, 34
1, 72808, Control_c, 0, 64, 66
1, 72823, Control_c, 0, 64, 57
1, 72838, Control_c, 0, 64, 43
1, 72853, Control_c, 0, 64, 40
1, 72868, Control_c, 0, 64, 41
1, 72881, Note_on_c, 0, 62, 41
1, 72883, Control_c, 0, 64, 46
1, 72898, Control_c, 0, 64, 51
1, 72913, Control_c, 0, 64, 55
1, 72928, Control_c, 0, 64, 59
1, 72943, Control_c, 0, 64, 63
1, 72957, Control_c, 0, 64, 67
1, 72972, Control_c, 0, 64, 73
1, 72978, Note_off_c, 0, 62, 53
1, 72983, Note_on_c, 0, 65, 47
1, 72987, Control_c, 0, 64, 81
1, 73002, Control_c, 0, 64, 90
1, 73016, Control_c, 0, 64, 99
1, 73031, Control_c, 0, 64, 110
1, 73046, Control_c, 0, 64, 127
1, 73066, Note_off_c, 0, 58, 36
1, 73074, Note_off_c, 0, 70, 60
1, 73084, Note_on_c, 0, 74, 60
1, 73108, Note_off_c, 0, 50, 40
1, 73189, Note_off_c, 0, 65, 34
1, 73197, Note_off_c, 0, 46, 39
1, 73200, Note_on_c, 0, 70, 67
1, 73243, Note_off_c, 0, 74, 52
1, 73310, Note_on_c, 0, 62, 55
1, 73434, Note_on_c, 0, 53, 64
1, 73452, Note_on_c, 0, 50, 49
1, 73455, Note_on_c, 0, 65, 55
1, 73455, Note_off_c, 0, 62, 52
1, 73459, Note_off_c, 0, 70, 59
1, 73510, Note_off_c, 0, 50, 59
1, 73577, Note_on_c, 0, 67, 69
1, 73585, Note_off_c, 0, 65, 60
1, 73721, Control_c, 0, 64, 119
1, 73727, Note_on_c, 0, 41, 44
1, 73735, Control_c, 0, 64, 110
1, 73750, Control_c, 0, 64, 105
1, 73764, Control_c, 0, 64, 100
1, 73779, Control_c, 0, 64, 96
1, 73783, Note_on_c, 0, 65, 65
1, 73794, Control_c, 0, 64, 90
1, 73809, Control_c, 0, 64, 85
1, 73822, Note_off_c, 0, 53, 53
1, 73824, Control_c, 0, 64, 81
1, 73838, Control_c, 0, 64, 78
1, 73853, Control_c, 0, 64, 73
1, 73864, Note_off_c, 0, 67, 37
1, 73868, Control_c, 0, 64, 68
1, 73883, Control_c, 0, 64, 63
1, 73898, Control_c, 0, 64, 56
1, 73912, Control_c, 0, 64, 48
1, 73927, Control_c, 0, 64, 45
1, 73942, Control_c, 0, 64, 44
1, 73951, Note_on_c, 0, 53, 58
1, 74001, Control_c, 0, 64, 47
1, 74016, Control_c, 0, 64, 50
1, 74031, Control_c, 0, 64, 52
1, 74045, Control_c, 0, 64, 55
1, 74060, Control_c, 0, 64, 57
1, 74062, Note_on_c, 0, 51, 63
1, 74074, Note_off_c, 0, 53, 53
1, 74075, Control_c, 0, 64, 60
1, 74079, Note_on_c, 0, 60, 49
1, 74090, Control_c, 0, 64, 62
1, 74105, Control_c, 0, 64, 64
1, 74110, Note_on_c, 0, 48, 32
1, 74120, Control_c, 0, 64, 67
1, 74135, Control_c, 0, 64, 72
1, 74156, Control_c, 0, 64, 81
1, 74171, Control_c, 0, 64, 94
1, 74186, Control_c, 0, 64, 127
1, 74198, Note_on_c, 0, 63, 62
1, 74199, Note_off_c, 0, 65, 54
1, 74204, Note_off_c, 0, 60, 56
1, 74267, Note_off_c, 0, 63, 61
1, 74285, Note_off_c, 0, 51, 61
1, 74334, Note_on_c, 0, 50, 61
1, 74335, Control_c, 0, 64, 107
1, 74344, Note_on_c, 0, 62, 62
1, 74350, Control_c, 0, 64, 88
1, 74364, Control_c, 0, 64, 74
1, 74367, Note_on_c, 0, 46, 40
1, 74367, Note_off_c, 0, 48, 39
1, 74376, Note_off_c, 0, 41, 33
1, 74379, Control_c, 0, 64, 61
1, 74394, Control_c, 0, 64, 43
1, 74409, Control_c, 0, 64, 38
1, 74439, Control_c, 0, 64, 40
1, 74454, Control_c, 0, 64, 45
1, 74460, Note_on_c, 0, 53, 46
1, 74469, Control_c, 0, 64, 52
1, 74484, Control_c, 0, 64, 57
1, 74499, Control_c, 0, 64, 61
1, 74514, Control_c, 0, 64, 65
1, 74528, Control_c, 0, 64, 71
1, 74543, Control_c, 0, 64, 81
1, 74558, Control_c, 0, 64, 100
1, 74573, Control_c, 0, 64, 127
1, 74618, Control_c, 0, 64, 109
1, 74625, Note_on_c, 0, 48, 48
1, 74633, Control_c, 0, 64, 94
1, 74645, Note_on_c, 0, 57, 45
1, 74646, Note_on_c, 0, 41, 41
1, 74648, Control_c, 0, 64, 76
1, 74662, Control_c, 0, 64, 64
1, 74666, Note_off_c, 0, 50, 37
1, 74676, Note_off_c, 0, 46, 35
1, 74677, Control_c, 0, 64, 43
1, 74692, Control_c, 0, 64, 27
1, 74701, Note_off_c, 0, 53, 34
1, 74707, Control_c, 0, 64, 31
1, 74722, Control_c, 0, 64, 38
1, 74736, Control_c, 0, 64, 47
1, 74751, Control_c, 0, 64, 54
1, 74766, Control_c, 0, 64, 59
1, 74780, Control_c, 0, 64, 64
1, 74793, Note_off_c, 0, 48, 63
1, 74795, Control_c, 0, 64, 70
1, 74810, Control_c, 0, 64, 78
1, 74825, Control_c, 0, 64, 91
1, 74826, Note_off_c, 0, 41, 36
1, 74835, Note_on_c, 0, 60, 52
1, 74840, Control_c, 0, 64, 107
1, 74854, Control_c, 0, 64, 112
1, 74869, Control_c, 0, 64, 113
1, 74922, Note_off_c, 0, 57, 56
1, 74951, Control_c, 0, 64, 111
1, 74966, Control_c, 0, 64, 110
1, 74980, Control_c, 0, 64, 107
1, 74995, Control_c, 0, 64, 104
1, 75010, Control_c, 0, 64, 102
1, 75011, Note_off_c, 0, 62, 23
1, 75025, Control_c, 0, 64, 100
1, 75040, Control_c, 0, 64, 98
1, 75054, Control_c, 0, 64, 95
1, 75069, Control_c, 0, 64, 93
1, 75084, Control_c, 0, 64, 90
1, 75091, Note_on_c, 0, 46, 31
1, 75099, Control_c, 0, 64, 87
1, 75113, Note_on_c, 0, 34, 26
1, 75114, Note_on_c, 0, 41, 30
1, 75114, Control_c, 0, 64, 84
1, 75128, Note_on_c, 0, 58, 43
1, 75128, Control_c, 0, 64, 81
1, 75143, Control_c, 0, 64, 79
1, 75158, Control_c, 0, 64, 76
1, 75173, Control_c, 0, 64, 74
1, 75187, Control_c, 0, 64, 71
1, 75203, Control_c, 0, 64, 66
1, 75218, Control_c, 0, 64, 61
1, 75233, Control_c, 0, 64, 53
1, 75234, Note_off_c, 0, 60, 36
1, 75248, Control_c, 0, 64, 45
1, 75264, Control_c, 0, 64, 40
1, 75278, Control_c, 0, 64, 39
1, 75308, Control_c, 0, 64, 41
1, 75323, Control_c, 0, 64, 46
1, 75338, Control_c, 0, 64, 51
1, 75352, Control_c, 0, 64, 55
1, 75358, Note_on_c, 0, 50, 30
1, 75367, Control_c, 0, 64, 59
1, 75382, Control_c, 0, 64, 62
1, 75397, Control_c, 0, 64, 65
1, 75411, Control_c, 0, 64, 67
1, 75426, Control_c, 0, 64, 71
1, 75441, Control_c, 0, 64, 78
1, 75456, Control_c, 0, 64, 85
1, 75471, Control_c, 0, 64, 93
1, 75485, Control_c, 0, 64, 104
1, 75500, Control_c, 0, 64, 118
1, 75515, Control_c, 0, 64, 127
1, 75534, Note_on_c, 0, 53, 40
1, 75571, Note_off_c, 0, 58, 34
1, 75756, Note_on_c, 0, 57, 44
1, 76013, Control_c, 0, 64, 121
1, 76027, Control_c, 0, 64, 118
1, 76042, Control_c, 0, 64, 116
1, 76057, Control_c, 0, 64, 112
1, 76072, Control_c, 0, 64, 108
1, 76087, Control_c, 0, 64, 105
1, 76101, Control_c, 0, 64, 103
1, 76116, Control_c, 0, 64, 101
1, 76126, Note_on_c, 0, 58, 34
1, 76131, Control_c, 0, 64, 98
1, 76146, Control_c, 0, 64, 95
1, 76161, Control_c, 0, 64, 92
1, 76175, Control_c, 0, 64, 89
1, 76190, Control_c, 0, 64, 86
1, 76205, Control_c, 0, 64, 83
1, 76220, Control_c, 0, 64, 81
1, 76234, Control_c, 0, 64, 78
1, 76249, Control_c, 0, 64, 76
1, 76264, Control_c, 0, 64, 73
1, 76279, Control_c, 0, 64, 72
1, 76294, Control_c, 0, 64, 70
1, 76304, Note_off_c, 0, 57, 37
1, 76308, Control_c, 0, 64, 69
1, 76323, Control_c, 0, 64, 67
1, 76338, Control_c, 0, 64, 65
1, 76353, Control_c, 0, 64, 64
1, 76368, Control_c, 0, 64, 63
1, 76383, Control_c, 0, 64, 62
1, 76405, Control_c, 0, 64, 61
1, 76420, Control_c, 0, 64, 58
1, 76434, Control_c, 0, 64, 54
1, 76449, Control_c, 0, 64, 50
1, 76464, Control_c, 0, 64, 46
1, 76479, Control_c, 0, 64, 43
1, 76494, Control_c, 0, 64, 42
1, 76538, Control_c, 0, 64, 44
1, 76552, Control_c, 0, 64, 47
1, 76567, Control_c, 0, 64, 50
1, 76582, Control_c, 0, 64, 53
1, 76597, Control_c, 0, 64, 55
1, 76612, Control_c, 0, 64, 58
1, 76627, Control_c, 0, 64, 60
1, 76642, Control_c, 0, 64, 62
1, 76657, Control_c, 0, 64, 64
1, 76672, Control_c, 0, 64, 66
1, 76687, Control_c, 0, 64, 69
1, 76701, Control_c, 0, 64, 74
1, 76716, Control_c, 0, 64, 78
1, 76731, Control_c, 0, 64, 82
1, 76746, Control_c, 0, 64, 85
1, 76760, Control_c, 0, 64, 89
1, 76775, Control_c, 0, 64, 94
1, 76790, Control_c, 0, 64, 103
1, 76806, Control_c, 0, 64, 112
1, 76821, Control_c, 0, 64, 118
1, 76836, Control_c, 0, 64, 127
1, 76905, Note_off_c, 0, 53, 37
1, 76964, Note_off_c, 0, 50, 38
1, 77020, Note_off_c, 0, 46, 36
1, 77027, Note_off_c, 0, 34, 36
1, 77072, Control_c, 0, 64, 121
1, 77077, Note_off_c, 0, 41, 35
1, 77087, Control_c, 0, 64, 116
1, 77102, Control_c, 0, 64, 112
1, 77117, Control_c, 0, 64, 110
1, 77131, Control_c, 0, 64, 108
1, 77154, Control_c, 0, 64, 107
1, 77169, Control_c, 0, 64, 106
1, 77183, Control_c, 0, 64, 105
1, 77198, Control_c, 0, 64, 104
1, 77213, Control_c, 0, 64, 102
1, 77228, Control_c, 0, 64, 101
1, 77229, Note_off_c, 0, 58, 28
1, 77243, Control_c, 0, 64, 101
1, 77257, Control_c, 0, 64, 100
1, 77272, Control_c, 0, 64, 99
1, 77287, Control_c, 0, 64, 98
1, 77302, Control_c, 0, 64, 97
1, 77317, Control_c, 0, 64, 95
1, 77331, Control_c, 0, 64, 94
1, 77346, Control_c, 0, 64, 93
1, 77361, Control_c, 0, 64, 92
1, 77375, Control_c, 0, 64, 92
1, 77390, Control_c, 0, 64, 91
1, 77405, Control_c, 0, 64, 90
1, 77420, Control_c, 0, 64, 89
1, 77435, Control_c, 0, 64, 87
1, 77450, Control_c, 0, 64, 86
1, 77465, Control_c, 0, 64, 84
1, 77479, Control_c, 0, 64, 83
1, 77494, Control_c, 0, 64, 83
1, 77509, Control_c, 0, 64, 82
1, 77524, Control_c, 0, 64, 81
1, 77538, Control_c, 0, 64, 80
1, 77553, Control_c, 0, 64, 78
1, 77568, Control_c, 0, 64, 77
1, 77582, Control_c, 0, 64, 77
1, 77598, Control_c, 0, 64, 76
1, 77613, Control_c, 0, 64, 75
1, 77628, Control_c, 0, 64, 74
1, 77643, Control_c, 0, 64, 73
1, 77658, Control_c, 0, 64, 72
1, 77672, Control_c, 0, 64, 72
1, 77687, Control_c, 0, 64, 71
1, 77702, Control_c, 0, 64, 71
1, 77717, Control_c, 0, 64, 70
1, 77732, Control_c, 0, 64, 69
1, 77746, Control_c, 0, 64, 68
1, 77776, Control_c, 0, 64, 68
1, 77791, Control_c, 0, 64, 67
1, 77805, Control_c, 0, 64, 66
1, 77820, Control_c, 0, 64, 66
1, 77835, Control_c, 0, 64, 65
1, 77850, Control_c, 0, 64, 65
1, 77865, Control_c, 0, 64, 64
1, 77879, Control_c, 0, 64, 64
1, 77917, Control_c, 0, 64, 63
1, 77932, Control_c, 0, 64, 63
1, 77947, Control_c, 0, 64, 62
1, 77961, Control_c, 0, 64, 62
1, 77976, Control_c, 0, 64, 61
1, 77991, Control_c, 0, 64, 61
1, 78005, Control_c, 0, 64, 60
1, 78020, Control_c, 0, 64, 60
1, 78035, Control_c, 0, 64, 59
1, 78050, Control_c, 0, 64, 57
1, 78065, Control_c, 0, 64, 56
1, 78079, Control_c, 0, 64, 55
1, 78094, Control_c, 0, 64, 53
1, 78109, Control_c, 0, 64, 50
1, 78124, Control_c, 0, 64, 46
1, 78139, Control_c, 0, 64, 40
1, 78153, Control_c, 0, 64, 28
1, 78168, Control_c, 0, 64, 0
1, 78525, Control_c, 0, 64, 28
1, 78540, Control_c, 0, 64, 41
1, 78555, Control_c, 0, 64, 52
1, 78569, Control_c, 0, 64, 58
1, 78584, Control_c, 0, 64, 60
1, 78599, Control_c, 0, 64, 62
1, 78614, Control_c, 0, 64, 64
1, 78628, Control_c, 0, 64, 67
1, 78651, Control_c, 0, 64, 70
1, 78666, Control_c, 0, 64, 76
1, 78681, Control_c, 0, 64, 81
1, 78696, Control_c, 0, 64, 87
1, 78710, Control_c, 0, 64, 97
1, 78725, Control_c, 0, 64, 112
1, 78740, Control_c, 0, 64, 127
1, 78772, Note_on_c, 0, 46, 21
1, 78774, Note_on_c, 0, 74, 49
1, 78821, Note_off_c, 0, 46, 48
1, 78863, Note_off_c, 0, 74, 57
1, 79110, Note_on_c, 0, 73, 51
1, 79115, Note_on_c, 0, 62, 33
1, 79122, Note_on_c, 0, 58, 29
1, 79137, Note_on_c, 0, 53, 33
1, 79185, Control_c, 0, 64, 117
1, 79200, Control_c, 0, 64, 100
1, 79201, Note_off_c, 0, 73, 64
1, 79215, Control_c, 0, 64, 90
1, 79217, Note_on_c, 0, 74, 66
1, 79230, Control_c, 0, 64, 83
1, 79244, Control_c, 0, 64, 77
1, 79259, Control_c, 0, 64, 70
1, 79274, Control_c, 0, 64, 65
1, 79289, Control_c, 0, 64, 60
1, 79301, Note_off_c, 0, 74, 61
1, 79301, Note_off_c, 0, 62, 61
1, 79304, Control_c, 0, 64, 54
1, 79311, Note_off_c, 0, 58, 54
1, 79313, Note_on_c, 0, 73, 73
1, 79316, Note_off_c, 0, 53, 43
1, 79319, Control_c, 0, 64, 43
1, 79334, Control_c, 0, 64, 0
1, 79370, Note_off_c, 0, 73, 63
1, 79408, Note_on_c, 0, 74, 69
1, 79465, Note_off_c, 0, 74, 61
1, 79497, Note_on_c, 0, 62, 43
1, 79498, Note_on_c, 0, 53, 50
1, 79498, Note_on_c, 0, 58, 46
1, 79498, Note_on_c, 0, 70, 67
1, 79522, Note_off_c, 0, 62, 56
1, 79525, Note_off_c, 0, 58, 58
1, 79538, Note_off_c, 0, 70, 63
1, 79545, Note_off_c, 0, 53, 59
1, 79580, Note_on_c, 0, 67, 69
1, 79606, Note_off_c, 0, 67, 67
1, 79679, Note_on_c, 0, 67, 64
1, 79682, Control_c, 0, 64, 25
1, 79695, Note_on_c, 0, 50, 28
1, 79697, Control_c, 0, 64, 47
1, 79712, Control_c, 0, 64, 59
1, 79726, Control_c, 0, 64, 64
1, 79727, Note_off_c, 0, 50, 52
1, 79741, Control_c, 0, 64, 69
1, 79756, Control_c, 0, 64, 75
1, 79770, Control_c, 0, 64, 84
1, 79785, Control_c, 0, 64, 96
1, 79800, Control_c, 0, 64, 101
1, 79815, Control_c, 0, 64, 102
1, 79830, Control_c, 0, 64, 101
1, 79859, Control_c, 0, 64, 100
1, 79874, Control_c, 0, 64, 97
1, 79889, Control_c, 0, 64, 94
1, 79904, Control_c, 0, 64, 92
1, 79918, Control_c, 0, 64, 90
1, 79919, Note_on_c, 0, 62, 48
1, 79933, Control_c, 0, 64, 87
1, 79939, Note_on_c, 0, 58, 41
1, 79948, Note_on_c, 0, 53, 25
1, 79948, Control_c, 0, 64, 85
1, 79963, Control_c, 0, 64, 84
1, 79977, Control_c, 0, 64, 83
1, 79994, Control_c, 0, 64, 82
1, 80009, Control_c, 0, 64, 80
1, 80023, Control_c, 0, 64, 79
1, 80038, Control_c, 0, 64, 78
1, 80053, Control_c, 0, 64, 77
1, 80067, Control_c, 0, 64, 76
1, 80082, Control_c, 0, 64, 75
1, 80097, Control_c, 0, 64, 75
1, 80112, Control_c, 0, 64, 74
1, 80123, Note_on_c, 0, 65, 46
1, 80127, Control_c, 0, 64, 73
1, 80132, Note_off_c, 0, 67, 60
1, 80149, Control_c, 0, 64, 72
1, 80155, Note_off_c, 0, 58, 37
1, 80164, Control_c, 0, 64, 71
1, 80176, Note_off_c, 0, 53, 40
1, 80179, Control_c, 0, 64, 70
1, 80189, Note_off_c, 0, 62, 38
1, 80194, Control_c, 0, 64, 68
1, 80208, Control_c, 0, 64, 67
1, 80223, Control_c, 0, 64, 65
1, 80238, Control_c, 0, 64, 61
1, 80253, Control_c, 0, 64, 57
1, 80265, Note_off_c, 0, 65, 60
1, 80268, Control_c, 0, 64, 49
1, 80282, Control_c, 0, 64, 36
1, 80297, Control_c, 0, 64, 0
1, 80336, Note_on_c, 0, 53, 45
1, 80338, Note_on_c, 0, 62, 50
1, 80341, Note_on_c, 0, 58, 49
1, 80366, Note_off_c, 0, 62, 63
1, 80371, Note_off_c, 0, 58, 63
1, 80374, Note_off_c, 0, 53, 63
1, 80434, Note_on_c, 0, 70, 53
1, 80517, Note_off_c, 0, 70, 60
1, 80520, Control_c, 0, 64, 27
1, 80535, Note_on_c, 0, 69, 54
1, 80535, Control_c, 0, 64, 49
1, 80540, Note_on_c, 0, 48, 42
1, 80549, Control_c, 0, 64, 61
1, 80564, Control_c, 0, 64, 67
1, 80569, Note_off_c, 0, 48, 59
1, 80577, Note_off_c, 0, 69, 62
1, 80579, Control_c, 0, 64, 72
1, 80593, Control_c, 0, 64, 80
1, 80608, Control_c, 0, 64, 92
1, 80623, Control_c, 0, 64, 102
1, 80638, Control_c, 0, 64, 111
1, 80651, Note_on_c, 0, 70, 52
1, 80653, Control_c, 0, 64, 113
1, 80675, Note_off_c, 0, 70, 61
1, 80685, Note_on_c, 0, 69, 58
1, 80711, Note_off_c, 0, 69, 64
1, 80712, Control_c, 0, 64, 111
1, 80727, Control_c, 0, 64, 110
1, 80732, Note_on_c, 0, 67, 51
1, 80741, Control_c, 0, 64, 108
1, 80756, Control_c, 0, 64, 106
1, 80763, Note_on_c, 0, 53, 41
1, 80770, Note_on_c, 0, 63, 38
1, 80771, Control_c, 0, 64, 104
1, 80776, Note_on_c, 0, 57, 37
1, 80786, Control_c, 0, 64, 102
1, 80790, Note_off_c, 0, 67, 54
1, 80791, Note_on_c, 0, 69, 70
1, 80802, Control_c, 0, 64, 100
1, 80816, Control_c, 0, 64, 98
1, 80831, Control_c, 0, 64, 95
1, 80846, Control_c, 0, 64, 92
1, 80861, Control_c, 0, 64, 89
1, 80872, Note_off_c, 0, 69, 60
1, 80875, Note_on_c, 0, 70, 72
1, 80876, Control_c, 0, 64, 86
1, 80898, Control_c, 0, 64, 83
1, 80913, Control_c, 0, 64, 81
1, 80928, Control_c, 0, 64, 80
1, 80943, Control_c, 0, 64, 77
1, 80946, Note_off_c, 0, 63, 58
1, 80958, Control_c, 0, 64, 74
1, 80958, Note_off_c, 0, 57, 58
1, 80969, Note_off_c, 0, 70, 64
1, 80973, Control_c, 0, 64, 69
1, 80975, Note_on_c, 0, 71, 85
1, 80976, Note_off_c, 0, 53, 39
1, 80988, Control_c, 0, 64, 64
1, 81003, Control_c, 0, 64, 59
1, 81018, Control_c, 0, 64, 54
1, 81032, Control_c, 0, 64, 44
1, 81047, Control_c, 0, 64, 12
1, 81062, Note_on_c, 0, 72, 84
1, 81062, Control_c, 0, 64, 0
1, 81066, Note_off_c, 0, 71, 64
1, 81143, Note_on_c, 0, 57, 45
1, 81152, Note_on_c, 0, 53, 42
1, 81153, Note_on_c, 0, 63, 41
1, 81156, Note_off_c, 0, 72, 64
1, 81157, Note_on_c, 0, 73, 86
1, 81176, Note_off_c, 0, 57, 65
1, 81180, Note_off_c, 0, 63, 46
1, 81186, Note_off_c, 0, 53, 64
1, 81221, Note_off_c, 0, 73, 65
1, 81250, Note_on_c, 0, 74, 76
1, 81364, Note_on_c, 0, 41, 37
1, 81372, Note_off_c, 0, 74, 55
1, 81376, Note_on_c, 0, 77, 64
1, 81417, Control_c, 0, 64, 30
1, 81432, Control_c, 0, 64, 50
1, 81447, Control_c, 0, 64, 62
1, 81451, Note_off_c, 0, 41, 61
1, 81462, Control_c, 0, 64, 67
1, 81477, Control_c, 0, 64, 74
1, 81492, Control_c, 0, 64, 88
1, 81506, Control_c, 0, 64, 117
1, 81521, Control_c, 0, 64, 127
1, 81630, Note_on_c, 0, 60, 40
1, 81636, Note_on_c, 0, 53, 35
1, 81659, Note_on_c, 0, 57, 26
1, 81751, Control_c, 0, 64, 118
1, 81766, Control_c, 0, 64, 109
1, 81781, Control_c, 0, 64, 104
1, 81796, Control_c, 0, 64, 101
1, 81811, Control_c, 0, 64, 99
1, 81820, Note_on_c, 0, 75, 48
1, 81826, Control_c, 0, 64, 96
1, 81841, Control_c, 0, 64, 94
1, 81844, Note_off_c, 0, 53, 39
1, 81855, Control_c, 0, 64, 91
1, 81860, Note_off_c, 0, 60, 36
1, 81864, Note_off_c, 0, 57, 41
1, 81870, Control_c, 0, 64, 90
1, 81878, Note_off_c, 0, 77, 60
1, 81885, Control_c, 0, 64, 89
1, 81900, Control_c, 0, 64, 87
1, 81903, Note_off_c, 0, 75, 62
1, 81915, Control_c, 0, 64, 83
1, 81929, Control_c, 0, 64, 78
1, 81944, Control_c, 0, 64, 72
1, 81959, Control_c, 0, 64, 65
1, 81974, Control_c, 0, 64, 57
1, 81989, Control_c, 0, 64, 41
1, 82002, Control_c, 0, 64, 0
1, 82055, Note_on_c, 0, 57, 39
1, 82055, Note_on_c, 0, 60, 41
1, 82058, Note_on_c, 0, 53, 37
1, 82083, Note_off_c, 0, 60, 62
1, 82085, Note_off_c, 0, 57, 62
1, 82092, Note_off_c, 0, 53, 62
1, 82254, Control_c, 0, 64, 13
1, 82259, Note_on_c, 0, 74, 57
1, 82262, Note_on_c, 0, 46, 34
1, 82269, Control_c, 0, 64, 42
1, 82284, Control_c, 0, 64, 60
1, 82299, Control_c, 0, 64, 65
1, 82312, Note_off_c, 0, 46, 57
1, 82313, Control_c, 0, 64, 70
1, 82328, Control_c, 0, 64, 77
1, 82343, Control_c, 0, 64, 87
1, 82358, Control_c, 0, 64, 99
1, 82372, Control_c, 0, 64, 127
1, 82492, Note_on_c, 0, 62, 43
1, 82496, Note_off_c, 0, 74, 61
1, 82499, Note_on_c, 0, 76, 59
1, 82508, Note_on_c, 0, 58, 43
1, 82513, Note_on_c, 0, 53, 37
1, 82547, Note_off_c, 0, 76, 60
1, 82586, Note_off_c, 0, 62, 60
1, 82589, Note_on_c, 0, 77, 73
1, 82601, Note_off_c, 0, 53, 57
1, 82604, Note_off_c, 0, 58, 60
1, 82681, Note_on_c, 0, 81, 80
1, 82684, Note_off_c, 0, 77, 62
1, 82771, Note_off_c, 0, 81, 64
1, 82771, Note_on_c, 0, 82, 79
1, 82812, Control_c, 0, 64, 107
1, 82826, Control_c, 0, 64, 91
1, 82841, Control_c, 0, 64, 75
1, 82856, Control_c, 0, 64, 64
1, 82863, Note_on_c, 0, 77, 75
1, 82866, Note_on_c, 0, 62, 46
1, 82870, Control_c, 0, 64, 48
1, 82871, Note_on_c, 0, 58, 46
1, 82872, Note_on_c, 0, 53, 48
1, 82875, Note_off_c, 0, 82, 61
1, 82885, Control_c, 0, 64, 0
1, 82892, Note_off_c, 0, 62, 57
1, 82905, Note_off_c, 0, 58, 64
1, 82905, Note_off_c, 0, 53, 65
1, 82938, Note_off_c, 0, 77, 63
1, 82951, Note_on_c, 0, 74, 66
1, 83048, Note_off_c, 0, 74, 62
1, 83067, Note_on_c, 0, 72, 58
1, 83068, Note_on_c, 0, 39, 40
1, 83093, Control_c, 0, 64, 37
1, 83107, Control_c, 0, 64, 59
1, 83113, Note_off_c, 0, 39, 61
1, 83122, Control_c, 0, 64, 69
1, 83137, Control_c, 0, 64, 78
1, 83159, Control_c, 0, 64, 99
1, 83174, Control_c, 0, 64, 127
1, 83304, Note_on_c, 0, 60, 41
1, 83313, Note_off_c, 0, 72, 59
1, 83322, Note_on_c, 0, 78, 49
1, 83326, Note_on_c, 0, 55, 37
1, 83328, Note_on_c, 0, 58, 33
1, 83339, Note_on_c, 0, 51, 45
1, 83394, Note_off_c, 0, 78, 55
1, 83412, Note_on_c, 0, 79, 57
1, 83474, Note_off_c, 0, 60, 59
1, 83480, Note_off_c, 0, 51, 47
1, 83496, Note_off_c, 0, 58, 53
1, 83505, Note_on_c, 0, 81, 68
1, 83507, Note_off_c, 0, 79, 58
1, 83528, Note_off_c, 0, 55, 43
1, 83593, Note_on_c, 0, 82, 76
1, 83599, Note_off_c, 0, 81, 64
1, 83687, Note_on_c, 0, 60, 56
1, 83689, Note_on_c, 0, 79, 77
1, 83697, Note_on_c, 0, 58, 63
1, 83700, Note_off_c, 0, 82, 63
1, 83705, Note_on_c, 0, 51, 44
1, 83707, Note_on_c, 0, 55, 30
1, 83717, Note_off_c, 0, 60, 65
1, 83730, Note_off_c, 0, 58, 64
1, 83740, Note_off_c, 0, 51, 65
1, 83744, Note_off_c, 0, 55, 47
1, 83780, Note_on_c, 0, 72, 76
1, 83788, Note_off_c, 0, 79, 60
1, 83832, Note_off_c, 0, 72, 63
1, 83885, Control_c, 0, 64, 90
1, 83902, Note_on_c, 0, 40, 62
1, 83907, Control_c, 0, 64, 67
1, 83922, Control_c, 0, 64, 41
1, 83933, Note_on_c, 0, 72, 65
1, 83937, Control_c, 0, 64, 0
1, 83952, Control_c, 0, 64, 25
1, 83967, Control_c, 0, 64, 43
1, 83981, Control_c, 0, 64, 58
1, 83997, Control_c, 0, 64, 66
1, 84012, Control_c, 0, 64, 78
1, 84017, Note_off_c, 0, 40, 64
1, 84027, Control_c, 0, 64, 113
1, 84041, Control_c, 0, 64, 127
1, 84070, Note_on_c, 0, 84, 73
1, 84176, Note_on_c, 0, 83, 80
1, 84177, Note_on_c, 0, 60, 57
1, 84181, Note_on_c, 0, 55, 55
1, 84195, Note_on_c, 0, 52, 51
1, 84200, Note_off_c, 0, 72, 61
1, 84249, Note_off_c, 0, 84, 56
1, 84270, Note_on_c, 0, 82, 84
1, 84310, Note_off_c, 0, 83, 60
1, 84352, Control_c, 0, 64, 104
1, 84355, Note_on_c, 0, 57, 79
1, 84364, Note_on_c, 0, 81, 81
1, 84367, Control_c, 0, 64, 81
1, 84381, Note_off_c, 0, 52, 58
1, 84382, Control_c, 0, 64, 69
1, 84386, Note_off_c, 0, 60, 51
1, 84392, Note_off_c, 0, 82, 62
1, 84396, Control_c, 0, 64, 65
1, 84411, Control_c, 0, 64, 68
1, 84426, Control_c, 0, 64, 74
1, 84438, Note_off_c, 0, 81, 65
1, 84440, Control_c, 0, 64, 85
1, 84455, Control_c, 0, 64, 127
1, 84458, Note_on_c, 0, 72, 82
1, 84544, Note_on_c, 0, 58, 80
1, 84544, Control_c, 0, 64, 104
1, 84545, Note_on_c, 0, 60, 71
1, 84557, Note_on_c, 0, 70, 89
1, 84559, Control_c, 0, 64, 76
1, 84564, Note_on_c, 0, 52, 54
1, 84574, Control_c, 0, 64, 62
1, 84577, Note_off_c, 0, 72, 61
1, 84579, Note_off_c, 0, 57, 62
1, 84589, Control_c, 0, 64, 46
1, 84590, Note_off_c, 0, 60, 61
1, 84604, Note_off_c, 0, 55, 46
1, 84604, Control_c, 0, 64, 57
1, 84612, Note_off_c, 0, 52, 62
1, 84616, Note_off_c, 0, 58, 63
1, 84619, Control_c, 0, 64, 64
1, 84640, Control_c, 0, 64, 74
1, 84650, Note_on_c, 0, 79, 84
1, 84655, Control_c, 0, 64, 106
1, 84670, Control_c, 0, 64, 127
1, 84673, Note_off_c, 0, 70, 61
1, 84714, Control_c, 0, 64, 97
1, 84729, Control_c, 0, 64, 68
1, 84741, Note_off_c, 0, 79, 60
1, 84744, Control_c, 0, 64, 0
1, 84750, Note_on_c, 0, 41, 66
1, 84753, Note_on_c, 0, 69, 78
1, 84774, Control_c, 0, 64, 31
1, 84790, Control_c, 0, 64, 53
1, 84805, Control_c, 0, 64, 70
1, 84819, Control_c, 0, 64, 91
1, 84834, Control_c, 0, 64, 127
1, 84835, Note_off_c, 0, 41, 64
1, 84850, Note_on_c, 0, 77, 79
1, 84895, Note_off_c, 0, 69, 61
1, 84956, Note_on_c, 0, 72, 84
1, 84959, Note_on_c, 0, 60, 71
1, 84975, Note_off_c, 0, 77, 63
1, 84976, Note_on_c, 0, 57, 58
1, 84991, Note_on_c, 0, 53, 52
1, 85047, Note_on_c, 0, 75, 85
1, 85051, Note_off_c, 0, 72, 64
1, 85155, Note_on_c, 0, 62, 70
1, 85155, Note_on_c, 0, 70, 79
1, 85155, Note_off_c, 0, 75, 58
1, 85160, Control_c, 0, 64, 84
1, 85161, Note_off_c, 0, 57, 58
1, 85161, Note_off_c, 0, 60, 57
1, 85170, Note_on_c, 0, 58, 61
1, 85175, Control_c, 0, 64, 62
1, 85189, Control_c, 0, 64, 15
1, 85204, Control_c, 0, 64, 0
1, 85234, Control_c, 0, 64, 29
1, 85239, Note_off_c, 0, 62, 63
1, 85249, Control_c, 0, 64, 49
1, 85254, Note_on_c, 0, 74, 73
1, 85263, Control_c, 0, 64, 65
1, 85272, Note_off_c, 0, 70, 60
1, 85278, Control_c, 0, 64, 78
1, 85293, Control_c, 0, 64, 127
1, 85334, Note_off_c, 0, 53, 36
1, 85352, Note_off_c, 0, 74, 60
1, 85367, Note_on_c, 0, 63, 55
1, 85367, Control_c, 0, 64, 86
1, 85369, Note_on_c, 0, 69, 70
1, 85375, Note_on_c, 0, 60, 52
1, 85389, Control_c, 0, 64, 66
1, 85404, Control_c, 0, 64, 45
1, 85408, Note_off_c, 0, 58, 52
1, 85419, Control_c, 0, 64, 13
1, 85434, Control_c, 0, 64, 30
1, 85449, Note_off_c, 0, 63, 62
1, 85449, Control_c, 0, 64, 49
1, 85456, Note_off_c, 0, 60, 64
1, 85463, Control_c, 0, 64, 63
1, 85469, Note_off_c, 0, 69, 61
1, 85478, Control_c, 0, 64, 75
1, 85479, Note_on_c, 0, 72, 69
1, 85493, Control_c, 0, 64, 119
1, 85508, Control_c, 0, 64, 127
1, 85598, Control_c, 0, 64, 89
1, 85613, Control_c, 0, 64, 64
1, 85623, Note_on_c, 0, 46, 39
1, 85628, Control_c, 0, 64, 0
1, 85638, Note_on_c, 0, 70, 61
1, 85647, Note_off_c, 0, 72, 60
1, 85672, Control_c, 0, 64, 27
1, 85687, Control_c, 0, 64, 59
1, 85701, Control_c, 0, 64, 71
1, 85704, Note_off_c, 0, 70, 64
1, 85716, Control_c, 0, 64, 93
1, 85721, Note_off_c, 0, 46, 57
1, 85731, Control_c, 0, 64, 127
1, 85839, Note_on_c, 0, 86, 58
1, 85957, Note_on_c, 0, 62, 41
1, 85964, Note_on_c, 0, 85, 71
1, 85966, Note_on_c, 0, 58, 38
1, 85972, Note_on_c, 0, 53, 30
1, 85973, Note_off_c, 0, 86, 64
1, 86061, Note_on_c, 0, 86, 84
1, 86064, Note_off_c, 0, 62, 60
1, 86075, Note_off_c, 0, 58, 62
1, 86075, Note_off_c, 0, 85, 64
1, 86082, Note_off_c, 0, 53, 51
1, 86163, Note_on_c, 0, 85, 90
1, 86172, Note_off_c, 0, 86, 63
1, 86227, Control_c, 0, 64, 113
1, 86242, Control_c, 0, 64, 102
1, 86252, Note_on_c, 0, 86, 89
1, 86257, Control_c, 0, 64, 92
1, 86272, Control_c, 0, 64, 82
1, 86279, Note_off_c, 0, 85, 65
1, 86286, Control_c, 0, 64, 73
1, 86301, Control_c, 0, 64, 63
1, 86316, Control_c, 0, 64, 49
1, 86331, Control_c, 0, 64, 0
1, 86348, Note_on_c, 0, 53, 47
1, 86348, Note_on_c, 0, 82, 87
1, 86351, Note_on_c, 0, 62, 41
1, 86356, Note_on_c, 0, 58, 44
1, 86364, Note_off_c, 0, 86, 63
1, 86380, Note_off_c, 0, 62, 60
1, 86386, Note_off_c, 0, 58, 60
1, 86389, Note_off_c, 0, 53, 63
1, 86436, Note_off_c, 0, 82, 64
1, 86440, Note_on_c, 0, 79, 78
1, 86484, Note_off_c, 0, 79, 63
1, 86539, Control_c, 0, 64, 21
1, 86541, Note_on_c, 0, 79, 68
1, 86542, Note_on_c, 0, 50, 44
1, 86554, Control_c, 0, 64, 50
1, 86569, Control_c, 0, 64, 64
1, 86583, Note_off_c, 0, 50, 64
1, 86584, Control_c, 0, 64, 69
1, 86598, Control_c, 0, 64, 77
1, 86613, Control_c, 0, 64, 89
1, 86628, Control_c, 0, 64, 110
1, 86643, Control_c, 0, 64, 127
1, 86777, Control_c, 0, 64, 117
1, 86786, Note_on_c, 0, 65, 57
1, 86791, Control_c, 0, 64, 107
1, 86806, Control_c, 0, 64, 101
1, 86810, Note_on_c, 0, 58, 46
1, 86821, Control_c, 0, 64, 97
1, 86832, Note_on_c, 0, 53, 37
1, 86835, Control_c, 0, 64, 93
1, 86850, Control_c, 0, 64, 89
1, 86865, Control_c, 0, 64, 86
1, 86880, Control_c, 0, 64, 83
1, 86902, Control_c, 0, 64, 80
1, 86917, Control_c, 0, 64, 79
1, 86932, Control_c, 0, 64, 78
1, 86947, Control_c, 0, 64, 76
1, 86962, Control_c, 0, 64, 74
1, 86977, Control_c, 0, 64, 72
1, 86991, Control_c, 0, 64, 70
1, 87006, Control_c, 0, 64, 68
1, 87015, Note_on_c, 0, 77, 54
1, 87021, Control_c, 0, 64, 67
1, 87027, Note_off_c, 0, 79, 63
1, 87035, Control_c, 0, 64, 65
1, 87039, Note_off_c, 0, 58, 58
1, 87039, Note_off_c, 0, 65, 59
1, 87046, Note_off_c, 0, 53, 44
1, 87050, Control_c, 0, 64, 62
1, 87065, Control_c, 0, 64, 58
1, 87080, Control_c, 0, 64, 50
1, 87095, Control_c, 0, 64, 35
1, 87110, Control_c, 0, 64, 0
1, 87165, Note_off_c, 0, 77, 53
1, 87222, Note_on_c, 0, 53, 48
1, 87225, Note_on_c, 0, 65, 45
1, 87239, Note_on_c, 0, 58, 35
1, 87252, Note_off_c, 0, 65, 58
1, 87269, Note_off_c, 0, 58, 60
1, 87269, Note_off_c, 0, 53, 63
1, 87319, Note_on_c, 0, 82, 58
1, 87394, Note_off_c, 0, 82, 63
1, 87408, Control_c, 0, 64, 31
1, 87412, Note_on_c, 0, 81, 52
1, 87422, Control_c, 0, 64, 55
1, 87426, Note_on_c, 0, 48, 42
1, 87437, Control_c, 0, 64, 64
1, 87448, Note_off_c, 0, 81, 66
1, 87452, Control_c, 0, 64, 69
1, 87454, Note_off_c, 0, 48, 58
1, 87466, Control_c, 0, 64, 76
1, 87481, Control_c, 0, 64, 88
1, 87496, Control_c, 0, 64, 127
1, 87501, Note_on_c, 0, 82, 62
1, 87536, Note_off_c, 0, 82, 63
1, 87537, Note_on_c, 0, 81, 63
1, 87571, Note_off_c, 0, 81, 65
1, 87586, Note_on_c, 0, 79, 64
1, 87655, Note_on_c, 0, 81, 59
1, 87657, Note_on_c, 0, 63, 46
1, 87665, Note_on_c, 0, 57, 43
1, 87668, Note_off_c, 0, 79, 57
1, 87679, Note_on_c, 0, 53, 40
1, 87726, Control_c, 0, 64, 121
1, 87740, Control_c, 0, 64, 111
1, 87751, Note_off_c, 0, 81, 63
1, 87752, Note_on_c, 0, 82, 73
1, 87755, Control_c, 0, 64, 106
1, 87770, Control_c, 0, 64, 100
1, 87785, Control_c, 0, 64, 95
1, 87800, Control_c, 0, 64, 93
1, 87814, Control_c, 0, 64, 91
1, 87829, Control_c, 0, 64, 90
1, 87832, Note_off_c, 0, 82, 65
1, 87842, Note_on_c, 0, 83, 83
1, 87844, Control_c, 0, 64, 87
1, 87850, Note_off_c, 0, 63, 54
1, 87855, Note_off_c, 0, 57, 59
1, 87859, Control_c, 0, 64, 82
1, 87869, Note_off_c, 0, 53, 41
1, 87874, Control_c, 0, 64, 77
1, 87889, Control_c, 0, 64, 74
1, 87904, Control_c, 0, 64, 71
1, 87919, Control_c, 0, 64, 68
1, 87928, Note_on_c, 0, 84, 87
1, 87934, Control_c, 0, 64, 64
1, 87945, Note_off_c, 0, 83, 62
1, 87948, Control_c, 0, 64, 60
1, 87963, Control_c, 0, 64, 53
1, 87978, Control_c, 0, 64, 39
1, 87993, Control_c, 0, 64, 0
1, 88028, Note_on_c, 0, 85, 90
1, 88037, Note_on_c, 0, 57, 49
1, 88039, Note_on_c, 0, 63, 56
1, 88042, Note_off_c, 0, 84, 64
1, 88050, Note_on_c, 0, 53, 38
1, 88069, Note_off_c, 0, 57, 65
1, 88069, Note_off_c, 0, 63, 64
1, 88083, Note_off_c, 0, 53, 63
1, 88115, Note_off_c, 0, 85, 65
1, 88123, Note_on_c, 0, 86, 87
1, 88279, Note_on_c, 0, 41, 33
1, 88285, Note_on_c, 0, 89, 71
1, 88285, Note_off_c, 0, 86, 61
1, 88333, Control_c, 0, 64, 39
1, 88348, Control_c, 0, 64, 53
1, 88363, Control_c, 0, 64, 61
1, 88367, Note_off_c, 0, 41, 61
1, 88385, Control_c, 0, 64, 66
1, 88400, Control_c, 0, 64, 73
1, 88415, Control_c, 0, 64, 88
1, 88430, Control_c, 0, 64, 127
1, 88571, Note_on_c, 0, 60, 39
1, 88581, Note_on_c, 0, 57, 35
1, 88583, Note_on_c, 0, 53, 35
1, 88680, Note_off_c, 0, 89, 54
1, 88685, Note_on_c, 0, 88, 49
1, 88726, Control_c, 0, 64, 116
1, 88741, Control_c, 0, 64, 108
1, 88755, Note_off_c, 0, 60, 52
1, 88756, Control_c, 0, 64, 100
1, 88768, Note_off_c, 0, 88, 65
1, 88770, Control_c, 0, 64, 93
1, 88771, Note_off_c, 0, 53, 41
1, 88779, Note_on_c, 0, 87, 56
1, 88786, Control_c, 0, 64, 86
1, 88786, Note_off_c, 0, 57, 41
1, 88801, Control_c, 0, 64, 80
1, 88806, Note_off_c, 0, 87, 61
1, 88816, Control_c, 0, 64, 74
1, 88831, Control_c, 0, 64, 69
1, 88846, Control_c, 0, 64, 64
1, 88860, Control_c, 0, 64, 59
1, 88875, Control_c, 0, 64, 52
1, 88890, Control_c, 0, 64, 38
1, 88904, Control_c, 0, 64, 0
1, 88997, Note_on_c, 0, 60, 47
1, 89000, Note_on_c, 0, 57, 43
1, 89001, Note_on_c, 0, 53, 39
1, 89030, Note_off_c, 0, 60, 65
1, 89034, Note_off_c, 0, 57, 65
1, 89039, Note_off_c, 0, 53, 64
1, 89219, Note_on_c, 0, 46, 35
1, 89221, Note_on_c, 0, 86, 59
1, 89223, Control_c, 0, 64, 33
1, 89237, Control_c, 0, 64, 54
1, 89252, Control_c, 0, 64, 65
1, 89267, Control_c, 0, 64, 72
1, 89268, Note_off_c, 0, 46, 46
1, 89282, Control_c, 0, 64, 87
1, 89297, Control_c, 0, 64, 113
1, 89311, Control_c, 0, 64, 127
1, 89446, Note_on_c, 0, 62, 47
1, 89452, Note_on_c, 0, 58, 43
1, 89454, Note_on_c, 0, 88, 63
1, 89463, Note_off_c, 0, 86, 63
1, 89466, Note_on_c, 0, 53, 40
1, 89509, Note_off_c, 0, 88, 62
1, 89517, Note_off_c, 0, 62, 55
1, 89533, Note_off_c, 0, 53, 55
1, 89540, Note_off_c, 0, 58, 60
1, 89549, Note_on_c, 0, 89, 80
1, 89641, Note_on_c, 0, 93, 86
1, 89659, Note_off_c, 0, 89, 60
1, 89734, Note_on_c, 0, 94, 86
1, 89745, Note_off_c, 0, 93, 65
1, 89802, Control_c, 0, 64, 94
1, 89808, Note_on_c, 0, 58, 52
1, 89811, Note_on_c, 0, 62, 38
1, 89816, Control_c, 0, 64, 76
1, 89820, Note_on_c, 0, 53, 43
1, 89821, Note_on_c, 0, 89, 85
1, 89830, Note_off_c, 0, 58, 58
1, 89831, Control_c, 0, 64, 61
1, 89835, Note_off_c, 0, 94, 63
1, 89839, Note_off_c, 0, 62, 49
1, 89846, Control_c, 0, 64, 28
1, 89853, Note_off_c, 0, 53, 48
1, 89860, Control_c, 0, 64, 0
1, 89883, Note_off_c, 0, 89, 64
1, 89910, Note_on_c, 0, 86, 76
1, 90016, Control_c, 0, 64, 25
1, 90018, Note_on_c, 0, 40, 35
1, 90021, Note_on_c, 0, 85, 77
1, 90021, Note_off_c, 0, 86, 62
1, 90031, Control_c, 0, 64, 57
1, 90046, Control_c, 0, 64, 70
1, 90054, Note_off_c, 0, 40, 54
1, 90060, Control_c, 0, 64, 92
1, 90075, Control_c, 0, 64, 127
1, 90085, Note_off_c, 0, 85, 65
1, 90267, Note_on_c, 0, 61, 53
1, 90270, Note_on_c, 0, 91, 65
1, 90294, Note_on_c, 0, 55, 32
1, 90294, Note_on_c, 0, 58, 45
1, 90340, Note_on_c, 0, 52, 36
1, 90370, Note_on_c, 0, 94, 79
1, 90375, Note_off_c, 0, 91, 61
1, 90458, Note_on_c, 0, 96, 87
1, 90482, Note_off_c, 0, 94, 63
1, 90509, Note_off_c, 0, 61, 55
1, 90515, Note_off_c, 0, 58, 57
1, 90515, Note_off_c, 0, 52, 44
1, 90541, Note_on_c, 0, 97, 91
1, 90564, Note_off_c, 0, 96, 65
1, 90575, Note_off_c, 0, 55, 36
1, 90644, Note_on_c, 0, 94, 91
1, 90647, Note_on_c, 0, 61, 61
1, 90655, Note_on_c, 0, 55, 37
1, 90660, Note_on_c, 0, 52, 39
1, 90660, Note_on_c, 0, 58, 57
1, 90684, Note_off_c, 0, 97, 63
1, 90706, Note_off_c, 0, 52, 61
1, 90733, Note_on_c, 0, 85, 79
1, 90735, Note_off_c, 0, 58, 56
1, 90744, Note_off_c, 0, 94, 63
1, 90792, Note_off_c, 0, 61, 61
1, 90798, Note_off_c, 0, 85, 63
1, 90850, Note_on_c, 0, 60, 61
1, 90863, Note_on_c, 0, 84, 71
1, 90866, Note_off_c, 0, 55, 32
1, 90870, Note_on_c, 0, 58, 58
1, 90881, Note_on_c, 0, 53, 50
1, 90883, Control_c, 0, 64, 110
1, 90898, Control_c, 0, 64, 93
1, 90913, Control_c, 0, 64, 81
1, 90928, Control_c, 0, 64, 71
1, 90943, Control_c, 0, 64, 61
1, 90957, Control_c, 0, 64, 51
1, 90970, Note_on_c, 0, 86, 78
1, 90972, Control_c, 0, 64, 43
1, 90988, Note_off_c, 0, 84, 58
1, 90988, Control_c, 0, 64, 40
1, 91018, Control_c, 0, 64, 43
1, 91032, Control_c, 0, 64, 49
1, 91047, Control_c, 0, 64, 56
1, 91062, Control_c, 0, 64, 60
1, 91072, Note_on_c, 0, 87, 84
1, 91075, Note_on_c, 0, 57, 65
1, 91077, Control_c, 0, 64, 65
1, 91092, Control_c, 0, 64, 71
1, 91095, Note_off_c, 0, 86, 62
1, 91107, Control_c, 0, 64, 84
1, 91121, Note_off_c, 0, 58, 57
1, 91122, Control_c, 0, 64, 127
1, 91147, Note_off_c, 0, 57, 63
1, 91155, Note_on_c, 0, 55, 62
1, 91158, Note_off_c, 0, 87, 65
1, 91161, Note_on_c, 0, 88, 83
1, 91247, Note_off_c, 0, 60, 62
1, 91255, Note_off_c, 0, 55, 57
1, 91256, Control_c, 0, 64, 95
1, 91260, Note_on_c, 0, 89, 77
1, 91260, Note_off_c, 0, 88, 64
1, 91269, Note_on_c, 0, 57, 57
1, 91271, Control_c, 0, 64, 78
1, 91286, Control_c, 0, 64, 65
1, 91301, Control_c, 0, 64, 46
1, 91315, Control_c, 0, 64, 0
1, 91356, Note_off_c, 0, 89, 56
1, 91360, Control_c, 0, 64, 23
1, 91367, Note_on_c, 0, 91, 68
1, 91375, Control_c, 0, 64, 38
1, 91397, Control_c, 0, 64, 50
1, 91412, Control_c, 0, 64, 58
1, 91427, Control_c, 0, 64, 65
1, 91442, Control_c, 0, 64, 72
1, 91457, Control_c, 0, 64, 84
1, 91466, Note_on_c, 0, 60, 43
1, 91471, Control_c, 0, 64, 106
1, 91474, Note_on_c, 0, 63, 49
1, 91481, Note_off_c, 0, 91, 59
1, 91482, Note_on_c, 0, 87, 63
1, 91486, Control_c, 0, 64, 127
1, 91509, Note_off_c, 0, 57, 42
1, 91556, Note_off_c, 0, 87, 62
1, 91561, Note_off_c, 0, 63, 58
1, 91577, Note_on_c, 0, 84, 66
1, 91638, Note_off_c, 0, 84, 59
1, 91678, Control_c, 0, 64, 104
1, 91690, Note_on_c, 0, 82, 63
1, 91693, Control_c, 0, 64, 77
1, 91695, Note_off_c, 0, 53, 35
1, 91696, Note_on_c, 0, 62, 38
1, 91698, Note_on_c, 0, 58, 41
1, 91700, Note_off_c, 0, 60, 35
1, 91707, Control_c, 0, 64, 62
1, 91722, Control_c, 0, 64, 30
1, 91737, Control_c, 0, 64, 0
1, 91752, Control_c, 0, 64, 11
1, 91767, Control_c, 0, 64, 28
1, 91782, Control_c, 0, 64, 44
1, 91797, Control_c, 0, 64, 53
1, 91805, Note_on_c, 0, 77, 56
1, 91812, Control_c, 0, 64, 60
1, 91824, Note_off_c, 0, 82, 57
1, 91826, Control_c, 0, 64, 66
1, 91841, Control_c, 0, 64, 73
1, 91856, Control_c, 0, 64, 89
1, 91871, Control_c, 0, 64, 127
1, 91878, Note_off_c, 0, 77, 63
1, 91904, Note_on_c, 0, 74, 64
1, 91989, Note_off_c, 0, 74, 59
1, 91999, Note_on_c, 0, 70, 69
1, 92017, Note_off_c, 0, 62, 40
1, 92079, Note_off_c, 0, 58, 38
1, 92091, Note_off_c, 0, 70, 63
1, 92098, Note_on_c, 0, 69, 76
1, 92195, Note_on_c, 0, 70, 84
1, 92195, Note_off_c, 0, 69, 63
1, 92284, Note_off_c, 0, 70, 64
1, 92289, Note_on_c, 0, 72, 88
1, 92309, Control_c, 0, 64, 106
1, 92324, Control_c, 0, 64, 81
1, 92338, Control_c, 0, 64, 65
1, 92353, Control_c, 0, 64, 37
1, 92368, Control_c, 0, 64, 0
1, 92376, Note_on_c, 0, 73, 87
1, 92393, Note_off_c, 0, 72, 61
1, 92472, Note_on_c, 0, 50, 67
1, 92477, Note_on_c, 0, 74, 83
1, 92479, Note_off_c, 0, 73, 65
1, 92500, Note_off_c, 0, 74, 68
1, 92678, Control_c, 0, 64, 22
1, 92693, Control_c, 0, 64, 41
1, 92697, Note_on_c, 0, 54, 61
1, 92702, Note_on_c, 0, 74, 82
1, 92708, Control_c, 0, 64, 54
1, 92715, Note_on_c, 0, 66, 73
1, 92718, Note_on_c, 0, 69, 61
1, 92718, Note_on_c, 0, 72, 65
1, 92722, Note_off_c, 0, 50, 59
1, 92722, Control_c, 0, 64, 62
1, 92737, Control_c, 0, 64, 66
1, 92752, Control_c, 0, 64, 71
1, 92767, Control_c, 0, 64, 81
1, 92783, Control_c, 0, 64, 100
1, 92798, Control_c, 0, 64, 127
1, 92803, Note_on_c, 0, 57, 70
1, 92825, Note_off_c, 0, 54, 52
1, 92905, Note_on_c, 0, 61, 81
1, 92917, Note_off_c, 0, 72, 57
1, 92923, Note_off_c, 0, 66, 58
1, 92934, Note_off_c, 0, 57, 57
1, 92936, Note_off_c, 0, 74, 59
1, 92962, Note_off_c, 0, 69, 58
1, 92986, Note_on_c, 0, 62, 79
1, 92992, Note_off_c, 0, 61, 62
1, 93079, Note_on_c, 0, 74, 82
1, 93084, Note_on_c, 0, 66, 81
1, 93086, Control_c, 0, 64, 112
1, 93087, Note_on_c, 0, 50, 73
1, 93087, Note_off_c, 0, 62, 58
1, 93090, Note_on_c, 0, 72, 72
1, 93093, Note_on_c, 0, 69, 71
1, 93101, Control_c, 0, 64, 89
1, 93116, Control_c, 0, 64, 76
1, 93131, Control_c, 0, 64, 66
1, 93146, Control_c, 0, 64, 58
1, 93160, Control_c, 0, 64, 45
1, 93162, Note_off_c, 0, 50, 63
1, 93171, Note_off_c, 0, 66, 60
1, 93175, Control_c, 0, 64, 17
1, 93179, Note_off_c, 0, 69, 61
1, 93183, Note_on_c, 0, 62, 74
1, 93190, Control_c, 0, 64, 0
1, 93191, Note_off_c, 0, 72, 64
1, 93199, Note_off_c, 0, 74, 63
1, 93207, Note_off_c, 0, 62, 70
1, 93275, Note_on_c, 0, 46, 76
1, 93360, Note_on_c, 0, 58, 72
1, 93398, Note_off_c, 0, 46, 60
1, 93464, Note_on_c, 0, 79, 91
1, 93476, Note_on_c, 0, 45, 71
1, 93477, Note_on_c, 0, 74, 70
1, 93478, Note_on_c, 0, 70, 74
1, 93478, Note_on_c, 0, 67, 75
1, 93486, Control_c, 0, 64, 26
1, 93489, Note_off_c, 0, 58, 63
1, 93501, Control_c, 0, 64, 41
1, 93516, Control_c, 0, 64, 53
1, 93531, Control_c, 0, 64, 60
1, 93546, Control_c, 0, 64, 64
1, 93560, Control_c, 0, 64, 69
1, 93575, Note_off_c, 0, 45, 63
1, 93576, Control_c, 0, 64, 78
1, 93576, Note_on_c, 0, 57, 76
1, 93591, Control_c, 0, 64, 94
1, 93606, Control_c, 0, 64, 127
1, 93648, Note_off_c, 0, 57, 53
1, 93651, Note_off_c, 0, 67, 60
1, 93678, Note_on_c, 0, 43, 83
1, 93683, Note_off_c, 0, 70, 63
1, 93696, Note_off_c, 0, 74, 60
1, 93708, Note_off_c, 0, 79, 56
1, 93755, Note_on_c, 0, 55, 80
1, 93764, Note_off_c, 0, 43, 64
1, 93806, Control_c, 0, 64, 106
1, 93820, Note_off_c, 0, 55, 58
1, 93821, Control_c, 0, 64, 95
1, 93836, Control_c, 0, 64, 88
1, 93850, Control_c, 0, 64, 83
1, 93852, Note_on_c, 0, 79, 86
1, 93855, Note_on_c, 0, 42, 83
1, 93860, Note_on_c, 0, 67, 75
1, 93863, Note_on_c, 0, 70, 69
1, 93865, Control_c, 0, 64, 77
1, 93871, Note_on_c, 0, 74, 65
1, 93872, Note_on_c, 0, 48, 17
1, 93880, Control_c, 0, 64, 70
1, 93895, Control_c, 0, 64, 65
1, 93909, Control_c, 0, 64, 62
1, 93924, Control_c, 0, 64, 59
1, 93925, Note_off_c, 0, 67, 62
1, 93934, Note_off_c, 0, 79, 65
1, 93939, Control_c, 0, 64, 55
1, 93951, Note_on_c, 0, 54, 78
1, 93954, Note_off_c, 0, 74, 61
1, 93954, Control_c, 0, 64, 48
1, 93965, Note_off_c, 0, 70, 62
1, 93966, Note_off_c, 0, 42, 63
1, 93969, Control_c, 0, 64, 32
1, 93982, Control_c, 0, 64, 0
1, 94052, Note_on_c, 0, 43, 82
1, 94059, Note_off_c, 0, 54, 64
1, 94134, Note_off_c, 0, 48, 12
1, 94141, Note_on_c, 0, 55, 74
1, 94159, Note_off_c, 0, 43, 60
1, 94238, Note_off_c, 0, 55, 62
1, 94244, Note_on_c, 0, 45, 67
1, 94245, Note_on_c, 0, 74, 86
1, 94268, Note_on_c, 0, 66, 65
1, 94308, Control_c, 0, 64, 32
1, 94323, Control_c, 0, 64, 49
1, 94338, Note_on_c, 0, 57, 68
1, 94338, Control_c, 0, 64, 59
1, 94340, Note_off_c, 0, 45, 62
1, 94353, Control_c, 0, 64, 64
1, 94376, Control_c, 0, 64, 69
1, 94391, Control_c, 0, 64, 77
1, 94405, Control_c, 0, 64, 93
1, 94420, Control_c, 0, 64, 127
1, 94426, Note_off_c, 0, 57, 64
1, 94447, Note_on_c, 0, 46, 80
1, 94456, Note_on_c, 0, 67, 75
1, 94457, Note_off_c, 0, 66, 63
1, 94481, Note_off_c, 0, 74, 59
1, 94530, Note_on_c, 0, 58, 82
1, 94536, Note_off_c, 0, 67, 61
1, 94539, Control_c, 0, 64, 102
1, 94548, Note_off_c, 0, 46, 63
1, 94554, Control_c, 0, 64, 91
1, 94569, Control_c, 0, 64, 83
1, 94584, Control_c, 0, 64, 74
1, 94598, Control_c, 0, 64, 65
1, 94613, Control_c, 0, 64, 50
1, 94626, Note_off_c, 0, 58, 59
1, 94628, Control_c, 0, 64, 0
1, 94638, Note_on_c, 0, 77, 86
1, 94640, Note_on_c, 0, 47, 73
1, 94646, Note_on_c, 0, 67, 73
1, 94655, Note_on_c, 0, 65, 72
1, 94676, Note_off_c, 0, 77, 65
1, 94677, Note_off_c, 0, 67, 63
1, 94680, Note_off_c, 0, 65, 68
1, 94701, Note_off_c, 0, 47, 61
1, 94717, Note_on_c, 0, 59, 67
1, 94843, Note_on_c, 0, 48, 49
1, 94852, Note_on_c, 0, 76, 75
1, 94855, Note_off_c, 0, 59, 54
1, 94873, Note_on_c, 0, 64, 51
1, 94880, Note_on_c, 0, 72, 46
1, 94888, Note_on_c, 0, 67, 43
1, 94954, Control_c, 0, 64, 24
1, 94968, Control_c, 0, 64, 38
1, 94983, Control_c, 0, 64, 47
1, 94998, Control_c, 0, 64, 54
1, 95013, Control_c, 0, 64, 58
1, 95028, Control_c, 0, 64, 61
1, 95043, Control_c, 0, 64, 64
1, 95058, Control_c, 0, 64, 67
1, 95072, Control_c, 0, 64, 71
1, 95073, Note_off_c, 0, 48, 59
1, 95082, Note_on_c, 0, 52, 60
1, 95087, Control_c, 0, 64, 79
1, 95102, Control_c, 0, 64, 89
1, 95117, Control_c, 0, 64, 101
1, 95138, Control_c, 0, 64, 127
1, 95179, Note_off_c, 0, 52, 63
1, 95187, Note_on_c, 0, 55, 67
1, 95264, Note_on_c, 0, 59, 76
1, 95269, Note_off_c, 0, 55, 60
1, 95326, Note_off_c, 0, 59, 62
1, 95350, Note_on_c, 0, 60, 69
1, 95395, Note_off_c, 0, 76, 20
1, 95415, Note_off_c, 0, 60, 63
1, 95451, Note_on_c, 0, 48, 61
1, 95452, Note_on_c, 0, 70, 70
1, 95464, Note_off_c, 0, 67, 46
1, 95478, Note_off_c, 0, 64, 42
1, 95506, Note_off_c, 0, 72, 27
1, 95510, Control_c, 0, 64, 99
1, 95519, Note_off_c, 0, 48, 62
1, 95525, Control_c, 0, 64, 85
1, 95540, Note_on_c, 0, 60, 66
1, 95540, Control_c, 0, 64, 72
1, 95549, Note_off_c, 0, 70, 63
1, 95554, Control_c, 0, 64, 58
1, 95569, Control_c, 0, 64, 0
1, 95572, Note_off_c, 0, 60, 66
1, 95661, Note_on_c, 0, 41, 58
1, 95732, Control_c, 0, 64, 19
1, 95746, Control_c, 0, 64, 47
1, 95761, Control_c, 0, 64, 60
1, 95776, Control_c, 0, 64, 64
1, 95791, Control_c, 0, 64, 67
1, 95806, Control_c, 0, 64, 71
1, 95821, Control_c, 0, 64, 78
1, 95836, Control_c, 0, 64, 90
1, 95851, Control_c, 0, 64, 110
1, 95866, Control_c, 0, 64, 127
1, 95876, Note_on_c, 0, 81, 72
1, 95881, Note_off_c, 0, 41, 54
1, 95902, Note_on_c, 0, 69, 50
1, 95907, Note_on_c, 0, 45, 40
1, 95908, Note_on_c, 0, 77, 47
1, 95928, Note_on_c, 0, 72, 13
1, 95937, Note_off_c, 0, 69, 62
1, 95946, Note_off_c, 0, 77, 63
1, 95950, Note_off_c, 0, 45, 60
1, 95955, Note_off_c, 0, 81, 66
1, 95972, Note_off_c, 0, 72, 40
1, 95984, Note_on_c, 0, 48, 48
1, 96052, Note_off_c, 0, 48, 53
1, 96073, Note_on_c, 0, 52, 56
1, 96123, Note_off_c, 0, 52, 65
1, 96149, Note_on_c, 0, 53, 65
1, 96195, Note_off_c, 0, 53, 57
1, 96262, Note_on_c, 0, 81, 72
1, 96273, Note_on_c, 0, 57, 52
1, 96279, Note_on_c, 0, 69, 56
1, 96284, Note_on_c, 0, 72, 51
1, 96285, Note_on_c, 0, 77, 55
1, 96311, Note_off_c, 0, 69, 66
1, 96315, Note_off_c, 0, 72, 66
1, 96327, Note_off_c, 0, 57, 60
1, 96331, Note_off_c, 0, 77, 60
1, 96346, Note_off_c, 0, 81, 65
1, 96370, Note_on_c, 0, 60, 51
1, 96398, Note_off_c, 0, 60, 64
1, 96481, Control_c, 0, 64, 85
1, 96495, Control_c, 0, 64, 65
1, 96510, Control_c, 0, 64, 17
1, 96520, Note_on_c, 0, 46, 43
1, 96525, Control_c, 0, 64, 0
1, 96531, Note_on_c, 0, 74, 66
1, 96569, Control_c, 0, 64, 37
1, 96584, Control_c, 0, 64, 55
1, 96590, Note_off_c, 0, 46, 60
1, 96599, Control_c, 0, 64, 66
1, 96622, Control_c, 0, 64, 78
1, 96637, Control_c, 0, 64, 127
1, 96839, Note_on_c, 0, 65, 45
1, 96858, Note_on_c, 0, 79, 55
1, 96861, Note_on_c, 0, 55, 37
1, 96872, Note_on_c, 0, 62, 32
1, 96872, Note_off_c, 0, 74, 54
1, 96933, Note_off_c, 0, 79, 62
1, 96945, Note_on_c, 0, 82, 71
1, 97013, Note_off_c, 0, 65, 58
1, 97027, Note_off_c, 0, 55, 33
1, 97028, Note_off_c, 0, 62, 45
1, 97041, Note_on_c, 0, 85, 80
1, 97064, Note_off_c, 0, 82, 64
1, 97085, Note_off_c, 0, 85, 68
1, 97131, Note_on_c, 0, 86, 88
1, 97200, Control_c, 0, 64, 106
1, 97205, Note_on_c, 0, 62, 41
1, 97209, Note_on_c, 0, 55, 44
1, 97215, Control_c, 0, 64, 93
1, 97220, Note_on_c, 0, 65, 34
1, 97225, Note_on_c, 0, 91, 89
1, 97230, Control_c, 0, 64, 82
1, 97232, Note_off_c, 0, 86, 60
1, 97236, Note_off_c, 0, 62, 51
1, 97237, Note_off_c, 0, 55, 58
1, 97245, Control_c, 0, 64, 73
1, 97252, Note_off_c, 0, 65, 50
1, 97260, Control_c, 0, 64, 65
1, 97274, Control_c, 0, 64, 59
1, 97289, Control_c, 0, 64, 53
1, 97304, Note_off_c, 0, 91, 64
1, 97304, Control_c, 0, 64, 43
1, 97305, Note_on_c, 0, 94, 87
1, 97318, Control_c, 0, 64, 12
1, 97333, Control_c, 0, 64, 0
1, 97394, Note_off_c, 0, 94, 63
1, 97401, Note_on_c, 0, 48, 50
1, 97413, Note_on_c, 0, 88, 81
1, 97415, Control_c, 0, 64, 25
1, 97430, Control_c, 0, 64, 49
1, 97439, Note_off_c, 0, 48, 64
1, 97445, Control_c, 0, 64, 62
1, 97460, Control_c, 0, 64, 68
1, 97474, Control_c, 0, 64, 76
1, 97476, Note_off_c, 0, 88, 58
1, 97489, Control_c, 0, 64, 85
1, 97499, Note_on_c, 0, 96, 91
1, 97504, Control_c, 0, 64, 94
1, 97518, Control_c, 0, 64, 97
1, 97533, Control_c, 0, 64, 93
1, 97548, Note_off_c, 0, 96, 65
1, 97548, Control_c, 0, 64, 85
1, 97563, Control_c, 0, 64, 74
1, 97579, Control_c, 0, 64, 64
1, 97594, Note_on_c, 0, 94, 91
1, 97594, Control_c, 0, 64, 46
1, 97597, Note_on_c, 0, 64, 55
1, 97606, Note_on_c, 0, 60, 48
1, 97609, Control_c, 0, 64, 0
1, 97613, Note_on_c, 0, 55, 44
1, 97631, Note_off_c, 0, 94, 65
1, 97677, Note_on_c, 0, 91, 92
1, 97727, Note_off_c, 0, 91, 64
1, 97773, Note_on_c, 0, 88, 80
1, 97779, Note_off_c, 0, 64, 58
1, 97794, Note_off_c, 0, 55, 42
1, 97794, Note_off_c, 0, 60, 60
1, 97802, Note_off_c, 0, 88, 65
1, 97860, Note_on_c, 0, 84, 84
1, 97891, Note_off_c, 0, 84, 61
1, 97958, Note_on_c, 0, 60, 50
1, 97958, Note_on_c, 0, 58, 58
1, 97961, Note_on_c, 0, 64, 47
1, 97964, Note_on_c, 0, 82, 64
1, 97980, Note_off_c, 0, 60, 60
1, 97982, Note_off_c, 0, 58, 62
1, 97985, Note_off_c, 0, 64, 57
1, 97991, Note_off_c, 0, 82, 66
1, 98030, Note_on_c, 0, 79, 78
1, 98072, Note_off_c, 0, 79, 60
1, 98134, Control_c, 0, 64, 31
1, 98136, Note_on_c, 0, 53, 49
1, 98146, Note_on_c, 0, 77, 69
1, 98149, Control_c, 0, 64, 53
1, 98164, Control_c, 0, 64, 62
1, 98174, Note_off_c, 0, 77, 66
1, 98179, Note_off_c, 0, 53, 61
1, 98179, Control_c, 0, 64, 67
1, 98194, Control_c, 0, 64, 73
1, 98209, Control_c, 0, 64, 87
1, 98223, Control_c, 0, 64, 127
1, 98241, Note_on_c, 0, 63, 59
1, 98304, Note_off_c, 0, 63, 49
1, 98334, Note_on_c, 0, 77, 84
1, 98339, Note_on_c, 0, 60, 61
1, 98341, Control_c, 0, 64, 117
1, 98349, Note_on_c, 0, 75, 62
1, 98351, Note_on_c, 0, 69, 65
1, 98354, Note_on_c, 0, 72, 58
1, 98356, Control_c, 0, 64, 100
1, 98372, Control_c, 0, 64, 92
1, 98387, Control_c, 0, 64, 87
1, 98392, Note_off_c, 0, 60, 55
1, 98402, Control_c, 0, 64, 83
1, 98417, Control_c, 0, 64, 78
1, 98432, Control_c, 0, 64, 74
1, 98434, Note_on_c, 0, 57, 72
1, 98446, Control_c, 0, 64, 70
1, 98459, Note_off_c, 0, 57, 67
1, 98461, Control_c, 0, 64, 67
1, 98476, Control_c, 0, 64, 65
1, 98491, Control_c, 0, 64, 62
1, 98506, Control_c, 0, 64, 59
1, 98520, Control_c, 0, 64, 55
1, 98535, Control_c, 0, 64, 49
1, 98536, Note_on_c, 0, 53, 80
1, 98550, Control_c, 0, 64, 40
1, 98564, Control_c, 0, 64, 22
1, 98579, Control_c, 0, 64, 0
1, 98587, Note_off_c, 0, 53, 60
1, 98644, Note_on_c, 0, 51, 78
1, 98680, Note_off_c, 0, 51, 61
1, 98763, Note_on_c, 0, 48, 65
1, 98808, Note_off_c, 0, 48, 59
1, 98828, Note_off_c, 0, 69, 60
1, 98842, Note_off_c, 0, 72, 59
1, 98881, Note_off_c, 0, 75, 60
1, 98908, Note_on_c, 0, 53, 55
1, 98921, Note_off_c, 0, 77, 61
1, 98993, Note_off_c, 0, 53, 58
1, 99115, Note_on_c, 0, 46, 33
1, 99120, Control_c, 0, 64, 24
1, 99135, Control_c, 0, 64, 41
1, 99150, Control_c, 0, 64, 54
1, 99162, Note_on_c, 0, 86, 60
1, 99166, Control_c, 0, 64, 59
1, 99180, Control_c, 0, 64, 62
1, 99195, Control_c, 0, 64, 65
1, 99210, Control_c, 0, 64, 68
1, 99225, Control_c, 0, 64, 75
1, 99240, Control_c, 0, 64, 88
1, 99249, Note_off_c, 0, 46, 46
1, 99255, Control_c, 0, 64, 107
1, 99269, Control_c, 0, 64, 127
1, 99355, Note_off_c, 0, 86, 63
1, 99482, Note_on_c, 0, 62, 32
1, 99490, Note_on_c, 0, 58, 32
1, 99504, Note_on_c, 0, 53, 33
1, 99506, Note_on_c, 0, 85, 54
1, 99610, Note_on_c, 0, 86, 73
1, 99622, Note_off_c, 0, 85, 63
1, 99718, Note_on_c, 0, 85, 85
1, 99720, Note_off_c, 0, 53, 42
1, 99724, Note_off_c, 0, 58, 39
1, 99726, Note_off_c, 0, 62, 41
1, 99726, Note_off_c, 0, 86, 65
1, 99808, Note_on_c, 0, 86, 86
1, 99809, Control_c, 0, 64, 117
1, 99824, Control_c, 0, 64, 109
1, 99838, Note_off_c, 0, 85, 63
1, 99839, Control_c, 0, 64, 102
1, 99854, Control_c, 0, 64, 97
1, 99869, Control_c, 0, 64, 92
1, 99884, Control_c, 0, 64, 87
1, 99899, Control_c, 0, 64, 82
1, 99908, Note_on_c, 0, 53, 47
1, 99911, Note_on_c, 0, 89, 90
1, 99914, Control_c, 0, 64, 76
1, 99915, Note_on_c, 0, 62, 41
1, 99920, Note_on_c, 0, 58, 37
1, 99920, Note_off_c, 0, 86, 65
1, 99928, Control_c, 0, 64, 72
1, 99943, Control_c, 0, 64, 68
1, 99947, Note_off_c, 0, 62, 55
1, 99951, Note_off_c, 0, 58, 56
1, 99958, Control_c, 0, 64, 66
1, 99960, Note_off_c, 0, 53, 56
1, 99973, Control_c, 0, 64, 64
1, 99988, Control_c, 0, 64, 63
1, 100003, Control_c, 0, 64, 61
1, 100008, Note_on_c, 0, 86, 80
1, 100018, Control_c, 0, 64, 59
1, 100018, Note_off_c, 0, 89, 62
1, 100033, Control_c, 0, 64, 57
1, 100048, Control_c, 0, 64, 53
1, 100063, Control_c, 0, 64, 46
1, 100078, Control_c, 0, 64, 29
1, 100092, Control_c, 0, 64, 0
1, 100122, Note_on_c, 0, 50, 31
1, 100156, Note_off_c, 0, 86, 61
1, 100167, Note_on_c, 0, 84, 56
1, 100181, Control_c, 0, 64, 21
1, 100196, Control_c, 0, 64, 42
1, 100210, Control_c, 0, 64, 55
1, 100225, Control_c, 0, 64, 61
1, 100231, Note_off_c, 0, 50, 58
1, 100240, Control_c, 0, 64, 65
1, 100255, Control_c, 0, 64, 71
1, 100270, Control_c, 0, 64, 79
1, 100284, Control_c, 0, 64, 94
1, 100299, Control_c, 0, 64, 127
1, 100430, Note_on_c, 0, 65, 36
1, 100447, Note_on_c, 0, 58, 35
1, 100476, Note_on_c, 0, 56, 25
1, 100558, Control_c, 0, 64, 119
1, 100573, Control_c, 0, 64, 115
1, 100588, Control_c, 0, 64, 111
1, 100603, Control_c, 0, 64, 106
1, 100617, Control_c, 0, 64, 102
1, 100632, Control_c, 0, 64, 98
1, 100647, Control_c, 0, 64, 95
1, 100662, Control_c, 0, 64, 92
1, 100668, Note_on_c, 0, 82, 47
1, 100677, Control_c, 0, 64, 90
1, 100681, Note_off_c, 0, 84, 56
1, 100692, Control_c, 0, 64, 88
1, 100701, Note_off_c, 0, 56, 39
1, 100704, Note_off_c, 0, 58, 32
1, 100705, Note_off_c, 0, 65, 37
1, 100707, Control_c, 0, 64, 86
1, 100720, Note_off_c, 0, 82, 61
1, 100722, Control_c, 0, 64, 84
1, 100736, Control_c, 0, 64, 82
1, 100751, Control_c, 0, 64, 79
1, 100766, Control_c, 0, 64, 76
1, 100781, Control_c, 0, 64, 72
1, 100796, Control_c, 0, 64, 70
1, 100811, Control_c, 0, 64, 67
1, 100826, Control_c, 0, 64, 65
1, 100841, Control_c, 0, 64, 63
1, 100856, Control_c, 0, 64, 60
1, 100871, Control_c, 0, 64, 56
1, 100877, Note_on_c, 0, 65, 44
1, 100886, Control_c, 0, 64, 49
1, 100891, Note_on_c, 0, 56, 35
1, 100892, Note_on_c, 0, 58, 32
1, 100900, Control_c, 0, 64, 34
1, 100904, Note_off_c, 0, 65, 60
1, 100915, Control_c, 0, 64, 0
1, 100929, Note_off_c, 0, 58, 54
1, 100934, Note_off_c, 0, 56, 49
1, 101010, Note_on_c, 0, 82, 58
1, 101051, Note_off_c, 0, 82, 61
1, 101058, Note_on_c, 0, 51, 48
1, 101063, Note_on_c, 0, 81, 54
1, 101078, Control_c, 0, 64, 21
1, 101093, Control_c, 0, 64, 44
1, 101104, Note_off_c, 0, 51, 61
1, 101115, Control_c, 0, 64, 57
1, 101130, Control_c, 0, 64, 64
1, 101145, Control_c, 0, 64, 68
1, 101160, Control_c, 0, 64, 73
1, 101174, Control_c, 0, 64, 82
1, 101189, Control_c, 0, 64, 95
1, 101195, Note_off_c, 0, 81, 63
1, 101204, Control_c, 0, 64, 127
1, 101217, Note_on_c, 0, 82, 55
1, 101260, Note_off_c, 0, 82, 62
1, 101309, Note_on_c, 0, 63, 41
1, 101316, Note_on_c, 0, 84, 68
1, 101320, Note_on_c, 0, 58, 39
1, 101330, Note_on_c, 0, 55, 36
1, 101410, Note_off_c, 0, 84, 63
1, 101412, Note_on_c, 0, 86, 74
1, 101426, Control_c, 0, 64, 123
1, 101440, Control_c, 0, 64, 121
1, 101455, Control_c, 0, 64, 119
1, 101470, Control_c, 0, 64, 117
1, 101485, Control_c, 0, 64, 113
1, 101500, Note_off_c, 0, 86, 62
1, 101500, Control_c, 0, 64, 110
1, 101505, Note_on_c, 0, 87, 80
1, 101515, Control_c, 0, 64, 107
1, 101526, Note_off_c, 0, 63, 49
1, 101529, Control_c, 0, 64, 106
1, 101540, Note_off_c, 0, 55, 41
1, 101544, Control_c, 0, 64, 103
1, 101553, Note_off_c, 0, 58, 34
1, 101559, Control_c, 0, 64, 98
1, 101575, Control_c, 0, 64, 93
1, 101578, Note_off_c, 0, 87, 64
1, 101589, Control_c, 0, 64, 87
1, 101595, Note_on_c, 0, 88, 78
1, 101604, Control_c, 0, 64, 81
1, 101619, Control_c, 0, 64, 74
1, 101634, Control_c, 0, 64, 67
1, 101649, Control_c, 0, 64, 59
1, 101664, Control_c, 0, 64, 43
1, 101671, Note_off_c, 0, 88, 50
1, 101678, Control_c, 0, 64, 0
1, 101684, Note_on_c, 0, 63, 48
1, 101687, Note_on_c, 0, 58, 49
1, 101687, Note_on_c, 0, 55, 44
1, 101687, Note_on_c, 0, 89, 79
1, 101712, Note_off_c, 0, 63, 60
1, 101726, Note_off_c, 0, 58, 60
1, 101742, Note_off_c, 0, 89, 59
1, 101751, Note_off_c, 0, 55, 53
1, 101765, Note_on_c, 0, 90, 68
1, 101830, Note_off_c, 0, 90, 63
1, 101869, Note_on_c, 0, 91, 74
1, 101873, Note_on_c, 0, 52, 44
1, 101893, Control_c, 0, 64, 40
1, 101899, Note_off_c, 0, 91, 63
1, 101908, Control_c, 0, 64, 60
1, 101917, Note_on_c, 0, 93, 59
1, 101918, Note_off_c, 0, 52, 63
1, 101923, Control_c, 0, 64, 67
1, 101938, Control_c, 0, 64, 75
1, 101950, Note_off_c, 0, 93, 66
1, 101953, Control_c, 0, 64, 87
1, 101963, Note_on_c, 0, 91, 66
1, 101968, Control_c, 0, 64, 106
1, 101983, Control_c, 0, 64, 127
1, 101989, Note_off_c, 0, 91, 63
1, 102005, Note_on_c, 0, 93, 76
1, 102050, Note_on_c, 0, 91, 79
1, 102059, Note_off_c, 0, 93, 65
1, 102087, Note_on_c, 0, 90, 69
1, 102094, Note_off_c, 0, 91, 61
1, 102134, Note_off_c, 0, 90, 63
1, 102135, Note_on_c, 0, 67, 37
1, 102143, Note_on_c, 0, 91, 61
1, 102172, Note_on_c, 0, 61, 35
1, 102175, Note_on_c, 0, 58, 25
1, 102179, Note_off_c, 0, 91, 63
1, 102294, Control_c, 0, 64, 123
1, 102309, Control_c, 0, 64, 114
1, 102323, Control_c, 0, 64, 110
1, 102336, Note_on_c, 0, 93, 53
1, 102338, Control_c, 0, 64, 108
1, 102353, Control_c, 0, 64, 106
1, 102354, Note_off_c, 0, 58, 35
1, 102360, Note_off_c, 0, 93, 57
1, 102369, Control_c, 0, 64, 104
1, 102377, Note_off_c, 0, 67, 32
1, 102381, Note_off_c, 0, 61, 38
1, 102384, Control_c, 0, 64, 101
1, 102399, Control_c, 0, 64, 99
1, 102409, Note_on_c, 0, 94, 44
1, 102413, Control_c, 0, 64, 98
1, 102428, Control_c, 0, 64, 97
1, 102437, Note_off_c, 0, 94, 59
1, 102443, Control_c, 0, 64, 95
1, 102458, Control_c, 0, 64, 92
1, 102473, Control_c, 0, 64, 90
1, 102487, Control_c, 0, 64, 89
1, 102502, Control_c, 0, 64, 87
1, 102517, Control_c, 0, 64, 86
1, 102532, Control_c, 0, 64, 84
1, 102547, Control_c, 0, 64, 82
1, 102561, Control_c, 0, 64, 80
1, 102576, Control_c, 0, 64, 79
1, 102591, Control_c, 0, 64, 77
1, 102606, Control_c, 0, 64, 76
1, 102624, Note_on_c, 0, 67, 35
1, 102628, Control_c, 0, 64, 75
1, 102631, Note_on_c, 0, 58, 33
1, 102642, Note_on_c, 0, 61, 20
1, 102643, Control_c, 0, 64, 73
1, 102658, Control_c, 0, 64, 71
1, 102673, Control_c, 0, 64, 70
1, 102674, Note_off_c, 0, 58, 58
1, 102682, Note_off_c, 0, 67, 46
1, 102688, Control_c, 0, 64, 69
1, 102694, Note_off_c, 0, 61, 47
1, 102702, Control_c, 0, 64, 68
1, 102717, Control_c, 0, 64, 67
1, 102732, Control_c, 0, 64, 67
1, 102746, Control_c, 0, 64, 66
1, 102761, Control_c, 0, 64, 65
1, 102776, Control_c, 0, 64, 65
1, 102791, Control_c, 0, 64, 64
1, 102806, Control_c, 0, 64, 63
1, 102820, Control_c, 0, 64, 63
1, 102835, Control_c, 0, 64, 62
1, 102850, Control_c, 0, 64, 61
1, 102865, Control_c, 0, 64, 58
1, 102875, Note_on_c, 0, 72, 62
1, 102880, Control_c, 0, 64, 52
1, 102882, Note_on_c, 0, 55, 34
1, 102895, Control_c, 0, 64, 41
1, 102904, Note_off_c, 0, 72, 66
1, 102907, Note_on_c, 0, 74, 56
1, 102910, Control_c, 0, 64, 0
1, 102924, Note_off_c, 0, 55, 62
1, 102948, Note_off_c, 0, 74, 61
1, 102960, Note_on_c, 0, 72, 59
1, 103163, Note_off_c, 0, 72, 58
1, 103171, Note_on_c, 0, 64, 42
1, 103179, Note_on_c, 0, 71, 51
1, 103187, Note_on_c, 0, 60, 30
1, 103202, Note_on_c, 0, 58, 27
1, 103221, Control_c, 0, 64, 15
1, 103229, Note_off_c, 0, 71, 61
1, 103235, Control_c, 0, 64, 37
1, 103250, Control_c, 0, 64, 52
1, 103265, Control_c, 0, 64, 61
1, 103275, Note_on_c, 0, 72, 61
1, 103280, Control_c, 0, 64, 64
1, 103295, Control_c, 0, 64, 67
1, 103309, Control_c, 0, 64, 70
1, 103324, Control_c, 0, 64, 75
1, 103339, Control_c, 0, 64, 81
1, 103354, Note_off_c, 0, 72, 61
1, 103354, Control_c, 0, 64, 88
1, 103375, Note_on_c, 0, 76, 64
1, 103375, Note_off_c, 0, 64, 62
1, 103376, Control_c, 0, 64, 93
1, 103381, Note_off_c, 0, 60, 55
1, 103384, Note_off_c, 0, 58, 52
1, 103391, Control_c, 0, 64, 94
1, 103406, Control_c, 0, 64, 93
1, 103421, Control_c, 0, 64, 92
1, 103436, Control_c, 0, 64, 89
1, 103445, Note_off_c, 0, 76, 64
1, 103450, Control_c, 0, 64, 85
1, 103465, Control_c, 0, 64, 80
1, 103474, Note_on_c, 0, 82, 70
1, 103480, Control_c, 0, 64, 74
1, 103495, Control_c, 0, 64, 69
1, 103510, Control_c, 0, 64, 66
1, 103524, Control_c, 0, 64, 61
1, 103536, Note_off_c, 0, 82, 63
1, 103539, Control_c, 0, 64, 51
1, 103554, Control_c, 0, 64, 17
1, 103562, Note_on_c, 0, 79, 67
1, 103568, Control_c, 0, 64, 0
1, 103578, Note_on_c, 0, 64, 40
1, 103580, Note_on_c, 0, 60, 44
1, 103590, Note_on_c, 0, 58, 27
1, 103606, Note_off_c, 0, 60, 51
1, 103607, Note_off_c, 0, 64, 53
1, 103617, Note_off_c, 0, 58, 46
1, 103637, Note_off_c, 0, 79, 63
1, 103644, Note_on_c, 0, 76, 61
1, 103695, Note_off_c, 0, 76, 64
1, 103736, Note_on_c, 0, 77, 61
1, 103750, Note_on_c, 0, 53, 51
1, 103756, Note_off_c, 0, 77, 61
1, 103757, Note_on_c, 0, 79, 69
1, 103775, Note_off_c, 0, 53, 57
1, 103800, Note_on_c, 0, 77, 71
1, 103804, Note_off_c, 0, 79, 65
1, 103986, Note_off_c, 0, 77, 61
1, 103991, Note_on_c, 0, 65, 61
1, 103994, Note_on_c, 0, 76, 57
1, 103999, Control_c, 0, 64, 23
1, 104004, Note_on_c, 0, 62, 51
1, 104014, Control_c, 0, 64, 42
1, 104016, Note_on_c, 0, 58, 40
1, 104029, Control_c, 0, 64, 54
1, 104044, Control_c, 0, 64, 60
1, 104048, Note_off_c, 0, 76, 62
1, 104058, Control_c, 0, 64, 63
1, 104073, Control_c, 0, 64, 66
1, 104087, Note_on_c, 0, 77, 73
1, 104088, Control_c, 0, 64, 70
1, 104111, Control_c, 0, 64, 77
1, 104126, Control_c, 0, 64, 87
1, 104140, Control_c, 0, 64, 105
1, 104155, Control_c, 0, 64, 127
1, 104184, Note_off_c, 0, 77, 56
1, 104191, Note_on_c, 0, 82, 79
1, 104198, Note_off_c, 0, 62, 57
1, 104204, Note_off_c, 0, 58, 52
1, 104211, Note_off_c, 0, 65, 58
1, 104259, Note_off_c, 0, 82, 63
1, 104284, Note_on_c, 0, 89, 85
1, 104362, Control_c, 0, 64, 108
1, 104371, Note_off_c, 0, 89, 63
1, 104377, Control_c, 0, 64, 94
1, 104380, Note_on_c, 0, 62, 49
1, 104380, Note_on_c, 0, 86, 78
1, 104390, Note_on_c, 0, 58, 38
1, 104391, Note_on_c, 0, 65, 28
1, 104391, Control_c, 0, 64, 83
1, 104406, Control_c, 0, 64, 74
1, 104410, Note_off_c, 0, 62, 55
1, 104421, Control_c, 0, 64, 66
1, 104429, Note_off_c, 0, 65, 49
1, 104430, Note_off_c, 0, 58, 49
1, 104436, Control_c, 0, 64, 56
1, 104439, Note_off_c, 0, 86, 62
1, 104451, Control_c, 0, 64, 33
1, 104465, Control_c, 0, 64, 17
1, 104468, Note_on_c, 0, 82, 68
1, 104480, Control_c, 0, 64, 0
1, 104518, Note_off_c, 0, 82, 55
1, 104525, Control_c, 0, 64, 25
1, 104539, Control_c, 0, 64, 40
1, 104549, Note_on_c, 0, 53, 46
1, 104554, Control_c, 0, 64, 50
1, 104569, Control_c, 0, 64, 56
1, 104572, Note_on_c, 0, 81, 61
1, 104583, Control_c, 0, 64, 61
1, 104598, Control_c, 0, 64, 65
1, 104613, Control_c, 0, 64, 70
1, 104628, Note_off_c, 0, 81, 57
1, 104628, Control_c, 0, 64, 80
1, 104634, Note_off_c, 0, 53, 60
1, 104643, Control_c, 0, 64, 91
1, 104656, Note_on_c, 0, 82, 72
1, 104657, Control_c, 0, 64, 100
1, 104672, Control_c, 0, 64, 101
1, 104680, Note_off_c, 0, 82, 70
1, 104687, Control_c, 0, 64, 98
1, 104702, Control_c, 0, 64, 94
1, 104716, Control_c, 0, 64, 89
1, 104731, Control_c, 0, 64, 81
1, 104746, Control_c, 0, 64, 74
1, 104749, Note_on_c, 0, 65, 56
1, 104762, Control_c, 0, 64, 68
1, 104763, Note_on_c, 0, 84, 72
1, 104767, Note_on_c, 0, 63, 46
1, 104769, Note_on_c, 0, 60, 46
1, 104777, Control_c, 0, 64, 62
1, 104791, Note_off_c, 0, 84, 64
1, 104792, Control_c, 0, 64, 52
1, 104806, Control_c, 0, 64, 30
1, 104821, Control_c, 0, 64, 0
1, 104850, Note_on_c, 0, 86, 77
1, 104894, Note_off_c, 0, 86, 64
1, 104951, Note_on_c, 0, 87, 79
1, 104961, Note_off_c, 0, 60, 56
1, 104972, Note_off_c, 0, 87, 69
1, 104997, Note_off_c, 0, 65, 57
1, 105000, Note_off_c, 0, 63, 58
1, 105038, Note_on_c, 0, 89, 85
1, 105084, Note_off_c, 0, 89, 61
1, 105133, Note_on_c, 0, 91, 84
1, 105143, Note_on_c, 0, 65, 49
1, 105145, Note_on_c, 0, 63, 48
1, 105145, Note_on_c, 0, 60, 52
1, 105169, Note_off_c, 0, 63, 59
1, 105169, Note_off_c, 0, 65, 57
1, 105170, Note_off_c, 0, 60, 62
1, 105190, Note_off_c, 0, 91, 62
1, 105214, Note_on_c, 0, 93, 85
1, 105284, Note_off_c, 0, 93, 65
1, 105313, Note_on_c, 0, 96, 83
1, 105317, Control_c, 0, 64, 13
1, 105318, Note_on_c, 0, 53, 56
1, 105318, Note_on_c, 0, 94, 79
1, 105331, Control_c, 0, 64, 45
1, 105342, Note_off_c, 0, 94, 68
1, 105346, Control_c, 0, 64, 59
1, 105351, Note_off_c, 0, 53, 64
1, 105361, Control_c, 0, 64, 66
1, 105367, Note_off_c, 0, 96, 64
1, 105376, Control_c, 0, 64, 72
1, 105391, Control_c, 0, 64, 82
1, 105405, Control_c, 0, 64, 93
1, 105406, Note_on_c, 0, 93, 77
1, 105420, Control_c, 0, 64, 105
1, 105435, Control_c, 0, 64, 113
1, 105445, Note_off_c, 0, 93, 60
1, 105450, Control_c, 0, 64, 111
1, 105465, Control_c, 0, 64, 105
1, 105479, Control_c, 0, 64, 101
1, 105494, Control_c, 0, 64, 97
1, 105509, Control_c, 0, 64, 92
1, 105513, Note_on_c, 0, 65, 61
1, 105516, Note_on_c, 0, 91, 71
1, 105522, Note_on_c, 0, 62, 51
1, 105524, Control_c, 0, 64, 86
1, 105533, Note_on_c, 0, 58, 49
1, 105539, Control_c, 0, 64, 81
1, 105553, Note_off_c, 0, 91, 61
1, 105555, Control_c, 0, 64, 78
1, 105570, Control_c, 0, 64, 74
1, 105584, Control_c, 0, 64, 71
1, 105599, Control_c, 0, 64, 68
1, 105617, Note_on_c, 0, 89, 73
1, 105622, Control_c, 0, 64, 66
1, 105636, Control_c, 0, 64, 64
1, 105651, Control_c, 0, 64, 62
1, 105663, Note_off_c, 0, 89, 61
1, 105666, Control_c, 0, 64, 58
1, 105681, Control_c, 0, 64, 53
1, 105696, Control_c, 0, 64, 42
1, 105710, Note_on_c, 0, 87, 80
1, 105710, Control_c, 0, 64, 0
1, 105735, Note_off_c, 0, 87, 68
1, 105737, Note_off_c, 0, 62, 60
1, 105738, Note_off_c, 0, 58, 58
1, 105752, Note_off_c, 0, 65, 57
1, 105803, Note_on_c, 0, 86, 78
1, 105855, Note_off_c, 0, 86, 61
1, 105895, Note_on_c, 0, 65, 48
1, 105897, Note_on_c, 0, 84, 84
1, 105905, Note_on_c, 0, 58, 47
1, 105906, Note_on_c, 0, 62, 34
1, 105920, Note_off_c, 0, 65, 56
1, 105931, Note_off_c, 0, 58, 53
1, 105935, Note_off_c, 0, 84, 67
1, 105941, Note_off_c, 0, 62, 43
1, 105984, Note_on_c, 0, 83, 87
1, 106059, Note_off_c, 0, 83, 59
1, 106073, Note_on_c, 0, 86, 81
1, 106078, Note_on_c, 0, 43, 44
1, 106078, Note_on_c, 0, 84, 78
1, 106081, Control_c, 0, 64, 41
1, 106096, Control_c, 0, 64, 57
1, 106103, Note_off_c, 0, 84, 66
1, 106106, Note_off_c, 0, 43, 59
1, 106106, Note_off_c, 0, 86, 65
1, 106111, Control_c, 0, 64, 63
1, 106126, Control_c, 0, 64, 66
1, 106141, Control_c, 0, 64, 68
1, 106155, Control_c, 0, 64, 69
1, 106168, Note_on_c, 0, 82, 82
1, 106185, Control_c, 0, 64, 69
1, 106199, Note_off_c, 0, 82, 64
1, 106200, Control_c, 0, 64, 68
1, 106215, Control_c, 0, 64, 67
1, 106229, Control_c, 0, 64, 67
1, 106244, Control_c, 0, 64, 66
1, 106259, Control_c, 0, 64, 64
1, 106266, Note_on_c, 0, 81, 82
1, 106270, Note_on_c, 0, 63, 59
1, 106274, Control_c, 0, 64, 63
1, 106281, Note_on_c, 0, 60, 50
1, 106289, Control_c, 0, 64, 62
1, 106290, Note_on_c, 0, 53, 47
1, 106303, Control_c, 0, 64, 59
1, 106305, Note_off_c, 0, 81, 64
1, 106318, Control_c, 0, 64, 54
1, 106333, Control_c, 0, 64, 46
1, 106348, Control_c, 0, 64, 22
1, 106367, Note_on_c, 0, 79, 80
1, 106371, Control_c, 0, 64, 0
1, 106394, Note_off_c, 0, 79, 65
1, 106459, Note_on_c, 0, 77, 83
1, 106492, Note_off_c, 0, 77, 63
1, 106499, Note_off_c, 0, 53, 34
1, 106510, Note_off_c, 0, 60, 59
1, 106517, Note_off_c, 0, 63, 60
1, 106542, Note_on_c, 0, 75, 81
1, 106582, Note_off_c, 0, 75, 59
1, 106643, Note_on_c, 0, 63, 61
1, 106646, Note_on_c, 0, 74, 81
1, 106651, Note_on_c, 0, 53, 56
1, 106660, Note_on_c, 0, 57, 45
1, 106673, Note_off_c, 0, 63, 65
1, 106680, Note_off_c, 0, 74, 65
1, 106684, Note_off_c, 0, 57, 58
1, 106685, Note_off_c, 0, 53, 65
1, 106727, Note_on_c, 0, 73, 80
1, 106741, Control_c, 0, 64, 39
1, 106756, Control_c, 0, 64, 58
1, 106771, Control_c, 0, 64, 67
1, 106785, Control_c, 0, 64, 77
1, 106788, Note_off_c, 0, 73, 60
1, 106800, Control_c, 0, 64, 95
1, 106815, Control_c, 0, 64, 127
1, 106821, Note_on_c, 0, 82, 78
1, 106826, Note_on_c, 0, 84, 77
1, 106827, Note_on_c, 0, 41, 64
1, 106829, Note_on_c, 0, 74, 76
1, 106851, Note_off_c, 0, 74, 68
1, 106855, Note_off_c, 0, 41, 65
1, 106856, Note_off_c, 0, 82, 63
1, 106876, Note_off_c, 0, 84, 61
1, 106919, Note_on_c, 0, 81, 77
1, 106949, Control_c, 0, 64, 111
1, 106958, Note_off_c, 0, 81, 61
1, 106964, Control_c, 0, 64, 95
1, 106978, Control_c, 0, 64, 88
1, 106993, Control_c, 0, 64, 85
1, 107008, Control_c, 0, 64, 82
1, 107022, Note_on_c, 0, 79, 79
1, 107023, Control_c, 0, 64, 80
1, 107025, Note_on_c, 0, 62, 74
1, 107038, Note_on_c, 0, 58, 65
1, 107038, Control_c, 0, 64, 77
1, 107044, Note_on_c, 0, 53, 51
1, 107052, Note_off_c, 0, 79, 62
1, 107052, Control_c, 0, 64, 72
1, 107067, Control_c, 0, 64, 68
1, 107082, Control_c, 0, 64, 66
1, 107097, Control_c, 0, 64, 63
1, 107118, Note_on_c, 0, 77, 81
1, 107119, Control_c, 0, 64, 62
1, 107134, Control_c, 0, 64, 60
1, 107148, Control_c, 0, 64, 58
1, 107161, Note_off_c, 0, 77, 59
1, 107164, Control_c, 0, 64, 54
1, 107179, Control_c, 0, 64, 49
1, 107194, Control_c, 0, 64, 42
1, 107208, Control_c, 0, 64, 32
1, 107217, Note_on_c, 0, 75, 78
1, 107223, Control_c, 0, 64, 0
1, 107238, Note_off_c, 0, 75, 69
1, 107251, Note_off_c, 0, 53, 53
1, 107280, Note_off_c, 0, 58, 58
1, 107284, Note_off_c, 0, 62, 62
1, 107306, Note_on_c, 0, 74, 79
1, 107352, Note_off_c, 0, 74, 59
1, 107405, Note_on_c, 0, 72, 78
1, 107405, Note_on_c, 0, 62, 53
1, 107409, Note_on_c, 0, 58, 55
1, 107411, Note_on_c, 0, 53, 49
1, 107429, Note_off_c, 0, 62, 59
1, 107433, Note_off_c, 0, 58, 60
1, 107441, Note_off_c, 0, 53, 62
1, 107488, Note_on_c, 0, 71, 83
1, 107518, Note_off_c, 0, 72, 27
1, 107591, Note_on_c, 0, 41, 55
1, 107605, Note_on_c, 0, 74, 68
1, 107610, Note_on_c, 0, 72, 74
1, 107610, Note_off_c, 0, 71, 59
1, 107655, Note_off_c, 0, 41, 64
1, 107673, Note_off_c, 0, 72, 61
1, 107673, Note_off_c, 0, 74, 62
1, 107709, Note_on_c, 0, 70, 77
1, 107748, Note_off_c, 0, 70, 62
1, 107820, Note_on_c, 0, 69, 73
1, 107822, Note_on_c, 0, 60, 71
1, 107860, Note_on_c, 0, 53, 52
1, 107863, Note_off_c, 0, 69, 58
1, 107870, Note_on_c, 0, 51, 43
1, 107939, Note_on_c, 0, 67, 69
1, 107975, Note_off_c, 0, 67, 60
1, 108052, Note_on_c, 0, 65, 72
1, 108102, Note_off_c, 0, 65, 59
1, 108120, Note_off_c, 0, 60, 58
1, 108153, Note_off_c, 0, 51, 36
1, 108158, Note_off_c, 0, 53, 56
1, 108169, Note_on_c, 0, 63, 64
1, 108218, Note_off_c, 0, 63, 55
1, 108297, Note_on_c, 0, 57, 41
1, 108298, Note_on_c, 0, 51, 44
1, 108301, Note_on_c, 0, 62, 57
1, 108302, Note_on_c, 0, 53, 38
1, 108350, Note_off_c, 0, 62, 58
1, 108391, Note_off_c, 0, 57, 57
1, 108434, Note_off_c, 0, 53, 47
1, 108435, Note_off_c, 0, 51, 52
1, 108448, Note_on_c, 0, 60, 48
1, 108529, Note_off_c, 0, 60, 58
1, 108624, Note_on_c, 0, 58, 47
1, 108646, Control_c, 0, 67, 20
1, 108661, Control_c, 0, 67, 36
1, 108676, Control_c, 0, 67, 52
1, 108691, Control_c, 0, 67, 68
1, 108705, Control_c, 0, 67, 85
1, 108720, Control_c, 0, 67, 100
1, 108735, Control_c, 0, 67, 114
1, 108751, Control_c, 0, 67, 127
1, 108795, Note_on_c, 0, 53, 45
1, 108928, Control_c, 0, 64, 26
1, 108943, Control_c, 0, 64, 40
1, 108958, Control_c, 0, 64, 49
1, 108970, Note_on_c, 0, 50, 35
1, 108973, Control_c, 0, 64, 55
1, 108988, Control_c, 0, 64, 58
1, 109002, Control_c, 0, 64, 60
1, 109017, Control_c, 0, 64, 63
1, 109032, Control_c, 0, 64, 64
1, 109047, Control_c, 0, 64, 66
1, 109061, Control_c, 0, 64, 68
1, 109076, Control_c, 0, 64, 71
1, 109091, Control_c, 0, 64, 76
1, 109106, Control_c, 0, 64, 83
1, 109121, Control_c, 0, 64, 89
1, 109135, Control_c, 0, 64, 94
1, 109150, Control_c, 0, 64, 99
1, 109162, Note_on_c, 0, 46, 33
1, 109165, Control_c, 0, 64, 103
1, 109179, Control_c, 0, 64, 108
1, 109194, Control_c, 0, 64, 115
1, 109209, Control_c, 0, 64, 118
1, 109379, Control_c, 0, 64, 117
1, 109394, Control_c, 0, 64, 116
1, 109424, Note_on_c, 0, 34, 30
1, 109424, Control_c, 0, 64, 115
1, 109453, Control_c, 0, 64, 114
1, 109468, Control_c, 0, 64, 113
1, 109483, Control_c, 0, 64, 113
1, 109542, Control_c, 0, 64, 112
1, 109618, Control_c, 0, 64, 111
1, 109647, Control_c, 0, 64, 111
1, 109691, Control_c, 0, 64, 110
1, 109766, Control_c, 0, 64, 110
1, 109781, Control_c, 0, 64, 109
1, 109796, Control_c, 0, 64, 108
1, 109810, Control_c, 0, 64, 108
1, 109870, Control_c, 0, 64, 107
1, 109885, Control_c, 0, 64, 107
1, 109944, Control_c, 0, 64, 106
1, 109959, Control_c, 0, 64, 106
1, 109974, Control_c, 0, 64, 105
1, 109986, Note_off_c, 0, 53, 35
1, 109986, Note_off_c, 0, 50, 29
1, 110018, Control_c, 0, 64, 105
1, 110048, Control_c, 0, 64, 104
1, 110129, Note_off_c, 0, 46, 32
1, 110144, Control_c, 0, 64, 104
1, 110218, Control_c, 0, 64, 103
1, 110233, Control_c, 0, 64, 103
1, 110248, Control_c, 0, 64, 102
1, 110263, Control_c, 0, 64, 102
1, 110277, Control_c, 0, 64, 101
1, 110337, Control_c, 0, 64, 100
1, 110356, Note_off_c, 0, 34, 32
1, 110368, Control_c, 0, 64, 100
1, 110382, Control_c, 0, 64, 99
1, 110412, Control_c, 0, 64, 99
1, 110441, Control_c, 0, 64, 98
1, 110486, Control_c, 0, 64, 97
1, 110500, Control_c, 0, 64, 97
1, 110530, Control_c, 0, 64, 96
1, 110545, Control_c, 0, 64, 95
1, 110563, Note_off_c, 0, 58, 28
1, 110574, Control_c, 0, 64, 95
1, 110589, Control_c, 0, 64, 94
1, 110604, Control_c, 0, 64, 94
1, 110618, Control_c, 0, 64, 93
1, 110633, Control_c, 0, 64, 93
1, 110663, Control_c, 0, 64, 92
1, 110678, Control_c, 0, 64, 92
1, 110693, Control_c, 0, 64, 91
1, 110708, Control_c, 0, 64, 90
1, 110723, Control_c, 0, 64, 89
1, 110737, Control_c, 0, 64, 88
1, 110752, Control_c, 0, 64, 88
1, 110767, Control_c, 0, 64, 87
1, 110782, Control_c, 0, 64, 86
1, 110797, Control_c, 0, 64, 85
1, 110812, Control_c, 0, 64, 83
1, 110826, Control_c, 0, 64, 82
1, 110841, Control_c, 0, 64, 81
1, 110863, Control_c, 0, 64, 80
1, 110878, Control_c, 0, 64, 79
1, 110893, Control_c, 0, 64, 78
1, 110907, Control_c, 0, 64, 77
1, 110922, Control_c, 0, 64, 76
1, 110952, Control_c, 0, 64, 75
1, 110967, Control_c, 0, 64, 75
1, 110982, Control_c, 0, 64, 74
1, 110997, Control_c, 0, 64, 73
1, 111012, Control_c, 0, 64, 73
1, 111026, Control_c, 0, 64, 72
1, 111056, Control_c, 0, 64, 72
1, 111071, Control_c, 0, 64, 71
1, 111086, Control_c, 0, 64, 70
1, 111115, Control_c, 0, 64, 70
1, 111145, Control_c, 0, 64, 69
1, 111161, Control_c, 0, 64, 69
1, 111176, Control_c, 0, 64, 68
1, 111191, Control_c, 0, 64, 68
1, 111205, Control_c, 0, 64, 67
1, 111220, Control_c, 0, 64, 67
1, 111235, Control_c, 0, 64, 66
1, 111249, Control_c, 0, 64, 66
1, 111264, Control_c, 0, 64, 65
1, 111294, Control_c, 0, 64, 65
1, 111309, Control_c, 0, 64, 64
1, 111324, Control_c, 0, 64, 64
1, 111368, Control_c, 0, 64, 63
1, 111397, Control_c, 0, 64, 63
1, 111412, Control_c, 0, 64, 62
1, 111427, Control_c, 0, 64, 62
1, 111471, Control_c, 0, 64, 61
1, 111486, Control_c, 0, 64, 61
1, 111501, Control_c, 0, 64, 60
1, 111515, Control_c, 0, 64, 59
1, 111530, Control_c, 0, 64, 59
1, 111545, Control_c, 0, 64, 58
1, 111560, Control_c, 0, 64, 57
1, 111575, Control_c, 0, 64, 57
1, 111590, Control_c, 0, 64, 56
1, 111612, Control_c, 0, 64, 55
1, 111627, Control_c, 0, 64, 54
1, 111642, Control_c, 0, 64, 53
1, 111656, Control_c, 0, 64, 52
1, 111671, Control_c, 0, 64, 51
1, 111686, Control_c, 0, 64, 50
1, 111701, Control_c, 0, 64, 49
1, 111716, Control_c, 0, 64, 46
1, 111730, Control_c, 0, 64, 44
1, 111745, Control_c, 0, 64, 43
1, 111760, Control_c, 0, 64, 41
1, 111775, Control_c, 0, 64, 39
1, 111790, Control_c, 0, 64, 36
1, 111805, Control_c, 0, 64, 33
1, 111819, Control_c, 0, 64, 31
1, 111834, Control_c, 0, 64, 29
1, 111849, Control_c, 0, 64, 25
1, 111864, Control_c, 0, 64, 18
1, 111879, Control_c, 0, 64, 0
1, 112346, Control_c, 0, 67, 124
1, 112361, Control_c, 0, 67, 119
1, 112376, Control_c, 0, 67, 114
1, 112391, Control_c, 0, 67, 109
1, 112405, Control_c, 0, 67, 103
1, 112420, Control_c, 0, 67, 98
1, 112435, Control_c, 0, 67, 93
1, 112450, Control_c, 0, 67, 87
1, 112465, Control_c, 0, 67, 80
1, 112479, Control_c, 0, 67, 74
1, 112494, Control_c, 0, 67, 69
1, 112509, Control_c, 0, 64, 15
1, 112509, Control_c, 0, 67, 65
1, 112524, Control_c, 0, 64, 22
1, 112524, Control_c, 0, 67, 60
1, 112539, Control_c, 0, 64, 27
1, 112539, Control_c, 0, 67, 55
1, 112553, Control_c, 0, 64, 34
1, 112553, Control_c, 0, 67, 50
1, 112568, Control_c, 0, 64, 39
1, 112568, Control_c, 0, 67, 44
1, 112583, Control_c, 0, 64, 43
1, 112583, Control_c, 0, 67, 39
1, 112598, Control_c, 0, 64, 47
1, 112598, Control_c, 0, 67, 35
1, 112612, Control_c, 0, 64, 50
1, 112612, Control_c, 0, 67, 31
1, 112627, Control_c, 0, 64, 53
1, 112627, Control_c, 0, 67, 27
1, 112642, Control_c, 0, 64, 55
1, 112642, Control_c, 0, 67, 24
1, 112657, Control_c, 0, 64, 57
1, 112657, Control_c, 0, 67, 20
1, 112672, Control_c, 0, 64, 58
1, 112672, Control_c, 0, 67, 16
1, 112687, Control_c, 0, 64, 60
1, 112687, Control_c, 0, 67, 11
1, 112702, Control_c, 0, 64, 61
1, 112702, Control_c, 0, 67, 0
1, 112717, Control_c, 0, 64, 62
1, 112732, Control_c, 0, 64, 63
1, 112747, Control_c, 0, 64, 64
1, 112762, Control_c, 0, 64, 65
1, 112776, Control_c, 0, 64, 66
1, 112791, Control_c, 0, 64, 68
1, 112806, Control_c, 0, 64, 70
1, 112821, Control_c, 0, 64, 72
1, 112836, Control_c, 0, 64, 77
1, 112851, Control_c, 0, 64, 81
1, 112866, Control_c, 0, 64, 85
1, 112881, Control_c, 0, 64, 88
1, 112895, Control_c, 0, 64, 91
1, 112910, Control_c, 0, 64, 95
1, 112925, Control_c, 0, 64, 102
1, 112940, Control_c, 0, 64, 115
1, 112955, Control_c, 0, 64, 127
1, 113271, Note_on_c, 0, 65, 40
1, 113644, Note_off_c, 0, 65, 39
1, 113921, Note_on_c, 0, 34, 25
1, 113933, Note_on_c, 0, 46, 17
1, 113948, Control_c, 0, 64, 111
1, 113955, Note_on_c, 0, 73, 51
1, 113963, Control_c, 0, 64, 93
1, 113973, Note_on_c, 0, 65, 37
1, 113978, Control_c, 0, 64, 79
1, 113993, Control_c, 0, 64, 67
1, 113993, Note_on_c, 0, 61, 30
1, 114007, Control_c, 0, 64, 56
1, 114022, Control_c, 0, 64, 46
1, 114037, Control_c, 0, 64, 50
1, 114051, Control_c, 0, 64, 54
1, 114066, Control_c, 0, 64, 57
1, 114081, Control_c, 0, 64, 62
1, 114096, Control_c, 0, 64, 66
1, 114111, Control_c, 0, 64, 73
1, 114125, Control_c, 0, 64, 86
1, 114136, Note_off_c, 0, 34, 48
1, 114140, Control_c, 0, 64, 127
1, 114143, Note_off_c, 0, 46, 54
1, 114443, Note_on_c, 0, 53, 32
1, 114460, Note_on_c, 0, 46, 28
1, 114501, Poly_aftertouch_c, 0, 49, 127
1, 114532, Note_off_c, 0, 46, 52
1, 114551, Poly_aftertouch_c, 0, 49, 0
1, 114630, Note_off_c, 0, 53, 39
1, 114639, Note_off_c, 0, 61, 36
1, 114641, Note_off_c, 0, 65, 34
1, 114650, Note_on_c, 0, 52, 46
1, 114663, Note_on_c, 0, 46, 31
1, 114685, Note_on_c, 0, 49, 19
1, 114705, Note_off_c, 0, 73, 32
1, 114713, Note_off_c, 0, 46, 53
1, 114738, Note_off_c, 0, 49, 44
1, 114782, Note_off_c, 0, 52, 57
1, 114809, Note_on_c, 0, 49, 26
1, 114810, Note_on_c, 0, 53, 50
1, 114813, Note_on_c, 0, 46, 36
1, 114852, Note_off_c, 0, 46, 57
1, 114858, Note_off_c, 0, 49, 55
1, 114928, Note_off_c, 0, 53, 57
1, 114949, Note_on_c, 0, 49, 34
1, 114962, Note_on_c, 0, 54, 41
1, 114986, Note_on_c, 0, 46, 4
1, 115011, Note_off_c, 0, 49, 54
1, 115021, Note_on_c, 0, 73, 68
1, 115023, Note_off_c, 0, 46, 0
1, 115045, Note_on_c, 0, 61, 53
1, 115045, Poly_aftertouch_c, 0, 46, 0
1, 115057, Note_on_c, 0, 65, 44
1, 115123, Note_on_c, 0, 53, 51
1, 115127, Note_on_c, 0, 46, 42
1, 115152, Note_on_c, 0, 49, 33
1, 115158, Note_off_c, 0, 54, 44
1, 115170, Note_off_c, 0, 53, 59
1, 115175, Note_off_c, 0, 65, 50
1, 115182, Note_off_c, 0, 49, 60
1, 115188, Note_off_c, 0, 46, 62
1, 115254, Note_off_c, 0, 73, 64
1, 115286, Note_off_c, 0, 61, 59
1, 115354, Note_on_c, 0, 49, 37
1, 115365, Note_on_c, 0, 37, 42
1, 115371, Control_c, 0, 64, 90
1, 115385, Note_on_c, 0, 72, 75
1, 115386, Control_c, 0, 64, 72
1, 115401, Control_c, 0, 64, 58
1, 115408, Note_on_c, 0, 60, 50
1, 115409, Note_on_c, 0, 65, 37
1, 115416, Control_c, 0, 64, 32
1, 115430, Control_c, 0, 64, 34
1, 115445, Control_c, 0, 64, 41
1, 115460, Control_c, 0, 64, 49
1, 115475, Control_c, 0, 64, 55
1, 115490, Control_c, 0, 64, 61
1, 115504, Control_c, 0, 64, 67
1, 115505, Note_off_c, 0, 49, 63
1, 115506, Note_off_c, 0, 37, 55
1, 115519, Control_c, 0, 64, 76
1, 115534, Control_c, 0, 64, 94
1, 115549, Control_c, 0, 64, 127
1, 115638, Note_on_c, 0, 53, 49
1, 115646, Note_on_c, 0, 49, 46
1, 115692, Note_off_c, 0, 49, 59
1, 115745, Note_off_c, 0, 60, 54
1, 115777, Note_off_c, 0, 53, 54
1, 115790, Note_on_c, 0, 52, 59
1, 115804, Note_on_c, 0, 49, 47
1, 115847, Note_off_c, 0, 49, 60
1, 115933, Note_off_c, 0, 72, 29
1, 115946, Note_off_c, 0, 52, 59
1, 115948, Control_c, 0, 64, 115
1, 115950, Note_on_c, 0, 70, 65
1, 115961, Note_on_c, 0, 53, 47
1, 115963, Control_c, 0, 64, 90
1, 115970, Note_on_c, 0, 58, 55
1, 115978, Control_c, 0, 64, 75
1, 115982, Note_on_c, 0, 49, 39
1, 115993, Control_c, 0, 64, 63
1, 116008, Control_c, 0, 64, 55
1, 116020, Note_off_c, 0, 49, 54
1, 116023, Control_c, 0, 64, 57
1, 116037, Control_c, 0, 64, 59
1, 116052, Control_c, 0, 64, 61
1, 116067, Control_c, 0, 64, 65
1, 116079, Note_off_c, 0, 58, 62
1, 116079, Note_off_c, 0, 65, 61
1, 116089, Control_c, 0, 64, 71
1, 116104, Note_off_c, 0, 70, 61
1, 116104, Control_c, 0, 64, 82
1, 116118, Control_c, 0, 64, 101
1, 116133, Control_c, 0, 64, 127
1, 116142, Note_off_c, 0, 53, 56
1, 116155, Note_on_c, 0, 54, 47
1, 116163, Note_on_c, 0, 49, 42
1, 116178, Control_c, 0, 64, 107
1, 116192, Control_c, 0, 64, 90
1, 116207, Note_off_c, 0, 49, 58
1, 116207, Control_c, 0, 64, 79
1, 116222, Control_c, 0, 64, 69
1, 116234, Note_on_c, 0, 70, 64
1, 116237, Control_c, 0, 64, 63
1, 116247, Note_on_c, 0, 58, 47
1, 116249, Note_on_c, 0, 65, 45
1, 116252, Control_c, 0, 64, 59
1, 116267, Control_c, 0, 64, 61
1, 116282, Control_c, 0, 64, 64
1, 116297, Control_c, 0, 64, 66
1, 116310, Note_off_c, 0, 54, 55
1, 116312, Control_c, 0, 64, 69
1, 116326, Control_c, 0, 64, 75
1, 116334, Note_on_c, 0, 53, 51
1, 116337, Note_on_c, 0, 49, 44
1, 116341, Control_c, 0, 64, 86
1, 116356, Control_c, 0, 64, 105
1, 116371, Control_c, 0, 64, 127
1, 116376, Note_off_c, 0, 53, 62
1, 116379, Note_off_c, 0, 49, 63
1, 116404, Note_off_c, 0, 65, 56
1, 116405, Note_off_c, 0, 58, 55
1, 116415, Note_off_c, 0, 70, 55
1, 116548, Control_c, 0, 64, 123
1, 116563, Control_c, 0, 64, 111
1, 116578, Control_c, 0, 64, 100
1, 116587, Note_on_c, 0, 36, 46
1, 116592, Control_c, 0, 64, 87
1, 116607, Control_c, 0, 64, 72
1, 116622, Note_on_c, 0, 70, 58
1, 116622, Control_c, 0, 64, 60
1, 116637, Control_c, 0, 64, 36
1, 116646, Note_on_c, 0, 58, 42
1, 116651, Note_on_c, 0, 65, 40
1, 116652, Control_c, 0, 64, 31
1, 116666, Control_c, 0, 64, 35
1, 116681, Control_c, 0, 64, 43
1, 116696, Control_c, 0, 64, 53
1, 116711, Control_c, 0, 64, 61
1, 116726, Control_c, 0, 64, 67
1, 116731, Note_off_c, 0, 36, 63
1, 116741, Control_c, 0, 64, 76
1, 116756, Control_c, 0, 64, 92
1, 116771, Control_c, 0, 64, 127
1, 116866, Note_off_c, 0, 70, 63
1, 116875, Note_on_c, 0, 53, 50
1, 116875, Note_off_c, 0, 58, 61
1, 116905, Note_on_c, 0, 48, 39
1, 116907, Note_on_c, 0, 51, 46
1, 116953, Note_off_c, 0, 48, 59
1, 116956, Note_off_c, 0, 65, 27
1, 116973, Note_off_c, 0, 51, 53
1, 117031, Note_off_c, 0, 53, 55
1, 117037, Note_on_c, 0, 69, 71
1, 117048, Note_on_c, 0, 57, 59
1, 117051, Note_on_c, 0, 52, 52
1, 117084, Note_on_c, 0, 48, 43
1, 117097, Note_off_c, 0, 57, 59
1, 117134, Note_off_c, 0, 69, 63
1, 117137, Note_off_c, 0, 48, 54
1, 117224, Control_c, 0, 64, 91
1, 117228, Note_on_c, 0, 72, 82
1, 117232, Note_on_c, 0, 53, 58
1, 117236, Note_on_c, 0, 51, 56
1, 117239, Control_c, 0, 64, 73
1, 117240, Note_off_c, 0, 52, 58
1, 117244, Note_on_c, 0, 60, 68
1, 117254, Control_c, 0, 64, 61
1, 117265, Note_on_c, 0, 48, 20
1, 117268, Control_c, 0, 64, 49
1, 117283, Control_c, 0, 64, 54
1, 117298, Control_c, 0, 64, 61
1, 117308, Note_off_c, 0, 60, 63
1, 117309, Note_off_c, 0, 48, 48
1, 117313, Control_c, 0, 64, 65
1, 117328, Control_c, 0, 64, 73
1, 117337, Note_off_c, 0, 51, 59
1, 117339, Note_off_c, 0, 72, 65
1, 117342, Control_c, 0, 64, 96
1, 117357, Control_c, 0, 64, 127
1, 117427, Note_on_c, 0, 75, 91
1, 117431, Control_c, 0, 64, 87
1, 117435, Note_on_c, 0, 63, 81
1, 117446, Control_c, 0, 64, 68
1, 117448, Note_on_c, 0, 51, 66
1, 117454, Note_on_c, 0, 48, 45
1, 117460, Control_c, 0, 64, 52
1, 117468, Note_off_c, 0, 53, 49
1, 117475, Control_c, 0, 64, 37
1, 117490, Control_c, 0, 64, 51
1, 117505, Control_c, 0, 64, 60
1, 117520, Control_c, 0, 64, 67
1, 117528, Note_off_c, 0, 63, 62
1, 117536, Control_c, 0, 64, 83
1, 117551, Control_c, 0, 64, 127
1, 117557, Note_off_c, 0, 75, 62
1, 117567, Note_off_c, 0, 51, 56
1, 117567, Note_off_c, 0, 48, 48
1, 117665, Note_on_c, 0, 78, 85
1, 117677, Note_on_c, 0, 72, 53
1, 117677, Control_c, 0, 64, 84
1, 117677, Note_on_c, 0, 66, 69
1, 117686, Note_on_c, 0, 48, 36
1, 117689, Note_on_c, 0, 75, 60
1, 117689, Note_on_c, 0, 54, 54
1, 117691, Control_c, 0, 64, 64
1, 117706, Control_c, 0, 64, 34
1, 117717, Note_on_c, 0, 51, 48
1, 117721, Control_c, 0, 64, 17
1, 117736, Control_c, 0, 64, 41
1, 117751, Control_c, 0, 64, 53
1, 117765, Control_c, 0, 64, 64
1, 117772, Note_off_c, 0, 54, 65
1, 117774, Note_off_c, 0, 51, 64
1, 117778, Note_off_c, 0, 48, 63
1, 117780, Control_c, 0, 64, 73
1, 117795, Control_c, 0, 64, 91
1, 117810, Control_c, 0, 64, 127
1, 117832, Note_off_c, 0, 75, 53
1, 117874, Note_off_c, 0, 72, 58
1, 117898, Note_off_c, 0, 78, 62
1, 117940, Note_off_c, 0, 66, 60
1, 117978, Note_on_c, 0, 33, 49
1, 118002, Control_c, 0, 64, 86
1, 118007, Note_on_c, 0, 77, 77
1, 118017, Control_c, 0, 64, 65
1, 118027, Note_on_c, 0, 65, 57
1, 118030, Note_on_c, 0, 72, 44
1, 118032, Control_c, 0, 64, 34
1, 118037, Note_on_c, 0, 75, 52
1, 118047, Control_c, 0, 64, 0
1, 118061, Control_c, 0, 64, 35
1, 118076, Control_c, 0, 64, 49
1, 118091, Control_c, 0, 64, 60
1, 118106, Control_c, 0, 64, 67
1, 118117, Note_off_c, 0, 33, 63
1, 118121, Control_c, 0, 64, 77
1, 118136, Control_c, 0, 64, 102
1, 118151, Control_c, 0, 64, 127
1, 118279, Note_on_c, 0, 53, 51
1, 118285, Note_on_c, 0, 48, 45
1, 118327, Note_on_c, 0, 45, 26
1, 118356, Note_off_c, 0, 48, 54
1, 118375, Note_off_c, 0, 45, 51
1, 118452, Note_on_c, 0, 52, 59
1, 118473, Note_on_c, 0, 48, 45
1, 118474, Note_off_c, 0, 53, 39
1, 118485, Note_on_c, 0, 45, 39
1, 118502, Note_off_c, 0, 77, 53
1, 118518, Note_off_c, 0, 65, 36
1, 118518, Note_off_c, 0, 45, 58
1, 118525, Note_off_c, 0, 48, 56
1, 118599, Note_on_c, 0, 53, 69
1, 118601, Note_off_c, 0, 72, 48
1, 118606, Note_off_c, 0, 75, 36
1, 118615, Note_off_c, 0, 52, 62
1, 118622, Note_on_c, 0, 45, 46
1, 118635, Note_on_c, 0, 48, 35
1, 118661, Note_off_c, 0, 45, 61
1, 118663, Note_off_c, 0, 48, 57
1, 118700, Note_off_c, 0, 53, 52
1, 118752, Note_on_c, 0, 54, 56
1, 118780, Note_on_c, 0, 45, 28
1, 118795, Note_on_c, 0, 48, 30
1, 118819, Note_off_c, 0, 45, 51
1, 118825, Note_off_c, 0, 54, 52
1, 118855, Note_on_c, 0, 75, 63
1, 118876, Note_on_c, 0, 63, 48
1, 118884, Control_c, 0, 64, 95
1, 118899, Control_c, 0, 64, 80
1, 118914, Control_c, 0, 64, 71
1, 118920, Note_off_c, 0, 48, 0
1, 118929, Note_on_c, 0, 53, 44
1, 118929, Control_c, 0, 64, 65
1, 118936, Note_on_c, 0, 45, 43
1, 118944, Control_c, 0, 64, 66
1, 118958, Poly_aftertouch_c, 0, 48, 127
1, 118959, Control_c, 0, 64, 68
1, 118972, Note_off_c, 0, 53, 61
1, 118974, Control_c, 0, 64, 73
1, 118988, Control_c, 0, 64, 80
1, 118993, Note_off_c, 0, 45, 63
1, 118996, Poly_aftertouch_c, 0, 48, 0
1, 119003, Control_c, 0, 64, 93
1, 119018, Control_c, 0, 64, 127
1, 119056, Note_off_c, 0, 63, 57
1, 119063, Note_off_c, 0, 75, 56
1, 119176, Note_on_c, 0, 34, 48
1, 119189, Control_c, 0, 64, 94
1, 119204, Control_c, 0, 64, 71
1, 119218, Control_c, 0, 64, 48
1, 119221, Note_on_c, 0, 75, 52
1, 119233, Control_c, 0, 64, 0
1, 119245, Note_on_c, 0, 63, 38
1, 119263, Control_c, 0, 64, 17
1, 119278, Control_c, 0, 64, 43
1, 119293, Control_c, 0, 64, 59
1, 119308, Control_c, 0, 64, 67
1, 119310, Note_off_c, 0, 34, 55
1, 119322, Control_c, 0, 64, 76
1, 119337, Control_c, 0, 64, 94
1, 119352, Control_c, 0, 64, 127
1, 119443, Note_off_c, 0, 75, 57
1, 119457, Note_on_c, 0, 53, 47
1, 119471, Note_on_c, 0, 46, 37
1, 119485, Note_on_c, 0, 49, 38
1, 119489, Note_off_c, 0, 63, 36
1, 119521, Note_off_c, 0, 46, 58
1, 119532, Note_off_c, 0, 49, 57
1, 119626, Note_on_c, 0, 52, 40
1, 119629, Note_off_c, 0, 53, 53
1, 119634, Note_on_c, 0, 73, 66
1, 119655, Note_on_c, 0, 46, 35
1, 119659, Note_on_c, 0, 61, 48
1, 119661, Note_on_c, 0, 49, 29
1, 119710, Note_off_c, 0, 46, 52
1, 119712, Note_off_c, 0, 61, 58
1, 119728, Note_off_c, 0, 49, 53
1, 119731, Note_off_c, 0, 73, 65
1, 119796, Control_c, 0, 64, 119
1, 119805, Note_on_c, 0, 53, 45
1, 119810, Control_c, 0, 64, 85
1, 119811, Note_on_c, 0, 70, 73
1, 119812, Note_off_c, 0, 52, 60
1, 119825, Control_c, 0, 64, 70
1, 119838, Note_on_c, 0, 49, 33
1, 119840, Note_on_c, 0, 58, 54
1, 119847, Control_c, 0, 64, 61
1, 119852, Note_on_c, 0, 46, 38
1, 119862, Control_c, 0, 64, 55
1, 119877, Control_c, 0, 64, 59
1, 119892, Control_c, 0, 64, 63
1, 119905, Note_off_c, 0, 46, 59
1, 119907, Control_c, 0, 64, 68
1, 119909, Note_off_c, 0, 58, 62
1, 119912, Note_off_c, 0, 49, 56
1, 119922, Control_c, 0, 64, 80
1, 119937, Control_c, 0, 64, 127
1, 119996, Control_c, 0, 64, 99
1, 120001, Note_on_c, 0, 72, 83
1, 120011, Control_c, 0, 64, 76
1, 120012, Note_on_c, 0, 54, 54
1, 120016, Note_on_c, 0, 60, 67
1, 120018, Note_off_c, 0, 53, 54
1, 120025, Note_on_c, 0, 49, 28
1, 120026, Control_c, 0, 64, 63
1, 120031, Note_on_c, 0, 46, 45
1, 120041, Note_off_c, 0, 70, 63
1, 120041, Control_c, 0, 64, 52
1, 120056, Control_c, 0, 64, 57
1, 120071, Control_c, 0, 64, 63
1, 120079, Note_off_c, 0, 60, 63
1, 120085, Note_off_c, 0, 49, 55
1, 120085, Control_c, 0, 64, 68
1, 120086, Note_off_c, 0, 46, 57
1, 120100, Control_c, 0, 64, 83
1, 120115, Control_c, 0, 64, 127
1, 120174, Control_c, 0, 64, 102
1, 120177, Note_on_c, 0, 53, 51
1, 120187, Note_on_c, 0, 73, 83
1, 120189, Control_c, 0, 64, 71
1, 120199, Note_off_c, 0, 54, 59
1, 120202, Note_on_c, 0, 46, 52
1, 120204, Control_c, 0, 64, 55
1, 120206, Note_on_c, 0, 61, 61
1, 120219, Control_c, 0, 64, 47
1, 120221, Note_off_c, 0, 53, 63
1, 120223, Note_off_c, 0, 72, 62
1, 120223, Note_on_c, 0, 49, 40
1, 120233, Control_c, 0, 64, 58
1, 120248, Control_c, 0, 64, 63
1, 120261, Note_off_c, 0, 49, 64
1, 120263, Control_c, 0, 64, 67
1, 120267, Note_off_c, 0, 46, 63
1, 120278, Control_c, 0, 64, 78
1, 120292, Control_c, 0, 64, 101
1, 120306, Note_off_c, 0, 61, 62
1, 120307, Control_c, 0, 64, 127
1, 120363, Note_off_c, 0, 73, 62
1, 120447, Note_on_c, 0, 30, 46
1, 120470, Control_c, 0, 64, 101
1, 120485, Control_c, 0, 64, 76
1, 120500, Note_on_c, 0, 77, 66
1, 120500, Control_c, 0, 64, 60
1, 120515, Control_c, 0, 64, 17
1, 120523, Note_on_c, 0, 65, 44
1, 120530, Control_c, 0, 64, 0
1, 120545, Control_c, 0, 64, 28
1, 120559, Control_c, 0, 64, 46
1, 120574, Control_c, 0, 64, 56
1, 120596, Control_c, 0, 64, 63
1, 120611, Control_c, 0, 64, 70
1, 120614, Note_off_c, 0, 30, 56
1, 120626, Control_c, 0, 64, 83
1, 120640, Control_c, 0, 64, 117
1, 120655, Control_c, 0, 64, 127
1, 120688, Note_off_c, 0, 65, 50
1, 120691, Note_off_c, 0, 77, 58
1, 120785, Note_on_c, 0, 51, 50
1, 120805, Note_on_c, 0, 42, 36
1, 120807, Note_on_c, 0, 46, 40
1, 120858, Note_off_c, 0, 51, 57
1, 120862, Note_off_c, 0, 46, 56
1, 120867, Note_off_c, 0, 42, 54
1, 120969, Note_on_c, 0, 42, 37
1, 120974, Note_on_c, 0, 51, 49
1, 120974, Note_on_c, 0, 45, 43
1, 120993, Note_on_c, 0, 75, 65
1, 121006, Note_on_c, 0, 63, 54
1, 121038, Note_off_c, 0, 45, 56
1, 121053, Note_off_c, 0, 42, 54
1, 121054, Note_off_c, 0, 51, 57
1, 121075, Note_off_c, 0, 75, 62
1, 121076, Note_off_c, 0, 63, 61
1, 121131, Control_c, 0, 64, 116
1, 121139, Note_on_c, 0, 51, 40
1, 121146, Control_c, 0, 64, 89
1, 121149, Note_on_c, 0, 75, 73
1, 121161, Note_on_c, 0, 42, 38
1, 121161, Control_c, 0, 64, 74
1, 121165, Note_on_c, 0, 46, 46
1, 121176, Control_c, 0, 64, 65
1, 121177, Note_on_c, 0, 63, 47
1, 121190, Control_c, 0, 64, 62
1, 121205, Control_c, 0, 64, 66
1, 121220, Control_c, 0, 64, 71
1, 121235, Control_c, 0, 64, 81
1, 121239, Note_off_c, 0, 51, 62
1, 121250, Control_c, 0, 64, 104
1, 121251, Note_off_c, 0, 42, 50
1, 121260, Note_off_c, 0, 75, 61
1, 121264, Control_c, 0, 64, 127
1, 121266, Note_off_c, 0, 63, 62
1, 121268, Note_off_c, 0, 46, 49
1, 121308, Control_c, 0, 64, 114
1, 121323, Control_c, 0, 64, 86
1, 121343, Note_on_c, 0, 73, 79
1, 121346, Control_c, 0, 64, 71
1, 121349, Note_on_c, 0, 53, 56
1, 121355, Note_on_c, 0, 42, 46
1, 121358, Note_on_c, 0, 46, 8
1, 121361, Control_c, 0, 64, 64
1, 121362, Note_on_c, 0, 61, 64
1, 121376, Control_c, 0, 64, 65
1, 121390, Control_c, 0, 64, 71
1, 121394, Note_off_c, 0, 53, 61
1, 121405, Control_c, 0, 64, 83
1, 121420, Control_c, 0, 64, 113
1, 121429, Note_off_c, 0, 42, 53
1, 121435, Control_c, 0, 64, 127
1, 121463, Note_off_c, 0, 73, 63
1, 121471, Note_off_c, 0, 46, 0
1, 121472, Note_off_c, 0, 61, 61
1, 121479, Control_c, 0, 64, 110
1, 121494, Control_c, 0, 64, 77
1, 121507, Poly_aftertouch_c, 0, 46, 127
1, 121508, Control_c, 0, 64, 63
1, 121512, Note_on_c, 0, 42, 43
1, 121521, Note_on_c, 0, 72, 77
1, 121523, Control_c, 0, 64, 57
1, 121530, Note_on_c, 0, 51, 50
1, 121537, Note_on_c, 0, 60, 60
1, 121539, Control_c, 0, 64, 63
1, 121554, Control_c, 0, 64, 68
1, 121558, Note_off_c, 0, 51, 62
1, 121558, Poly_aftertouch_c, 0, 46, 0
1, 121569, Control_c, 0, 64, 78
1, 121573, Note_off_c, 0, 42, 64
1, 121584, Control_c, 0, 64, 127
1, 121597, Note_off_c, 0, 60, 60
1, 121636, Note_off_c, 0, 72, 52
1, 121702, Control_c, 0, 64, 81
1, 121709, Note_on_c, 0, 29, 56
1, 121717, Control_c, 0, 64, 62
1, 121718, Note_on_c, 0, 70, 71
1, 121720, Note_on_c, 0, 41, 40
1, 121731, Control_c, 0, 64, 0
1, 121744, Note_on_c, 0, 58, 57
1, 121761, Control_c, 0, 64, 35
1, 121776, Note_off_c, 0, 29, 62
1, 121776, Control_c, 0, 64, 54
1, 121783, Note_off_c, 0, 41, 63
1, 121791, Control_c, 0, 64, 63
1, 121806, Control_c, 0, 64, 70
1, 121820, Control_c, 0, 64, 81
1, 121835, Control_c, 0, 64, 105
1, 121850, Control_c, 0, 64, 127
1, 121919, Note_on_c, 0, 49, 55
1, 121920, Note_on_c, 0, 41, 46
1, 121948, Note_on_c, 0, 46, 47
1, 121962, Note_off_c, 0, 70, 62
1, 121997, Note_off_c, 0, 41, 57
1, 121998, Note_off_c, 0, 46, 58
1, 122002, Note_off_c, 0, 49, 59
1, 122002, Note_off_c, 0, 58, 62
1, 122089, Note_on_c, 0, 69, 73
1, 122099, Note_on_c, 0, 48, 55
1, 122103, Note_on_c, 0, 57, 63
1, 122112, Note_on_c, 0, 41, 45
1, 122124, Note_on_c, 0, 46, 44
1, 122146, Note_off_c, 0, 48, 63
1, 122163, Note_off_c, 0, 46, 63
1, 122165, Note_off_c, 0, 57, 62
1, 122169, Note_off_c, 0, 41, 54
1, 122257, Control_c, 0, 64, 94
1, 122268, Note_on_c, 0, 49, 62
1, 122272, Control_c, 0, 64, 75
1, 122273, Note_on_c, 0, 70, 76
1, 122279, Note_on_c, 0, 46, 48
1, 122287, Note_on_c, 0, 58, 63
1, 122287, Control_c, 0, 64, 64
1, 122296, Note_on_c, 0, 41, 43
1, 122302, Control_c, 0, 64, 55
1, 122303, Note_off_c, 0, 69, 62
1, 122317, Control_c, 0, 64, 56
1, 122333, Control_c, 0, 64, 61
1, 122348, Control_c, 0, 64, 64
1, 122355, Note_off_c, 0, 41, 55
1, 122362, Note_off_c, 0, 58, 63
1, 122362, Control_c, 0, 64, 69
1, 122377, Control_c, 0, 64, 80
1, 122388, Note_off_c, 0, 49, 63
1, 122392, Control_c, 0, 64, 127
1, 122401, Note_off_c, 0, 46, 57
1, 122415, Note_off_c, 0, 70, 60
1, 122468, Poly_aftertouch_c, 0, 68, 127
1, 122470, Note_on_c, 0, 51, 68
1, 122473, Note_on_c, 0, 73, 77
1, 122481, Control_c, 0, 64, 91
1, 122491, Note_on_c, 0, 41, 46
1, 122493, Note_on_c, 0, 61, 59
1, 122496, Control_c, 0, 64, 71
1, 122500, Note_on_c, 0, 46, 36
1, 122510, Control_c, 0, 64, 54
1, 122519, Poly_aftertouch_c, 0, 68, 0
1, 122525, Control_c, 0, 64, 46
1, 122540, Control_c, 0, 64, 54
1, 122553, Note_off_c, 0, 46, 56
1, 122554, Control_c, 0, 64, 59
1, 122565, Note_off_c, 0, 41, 55
1, 122569, Control_c, 0, 64, 63
1, 122584, Control_c, 0, 64, 68
1, 122599, Control_c, 0, 64, 78
1, 122614, Control_c, 0, 64, 127
1, 122619, Note_off_c, 0, 73, 63
1, 122623, Note_off_c, 0, 61, 62
1, 122634, Note_off_c, 0, 51, 58
1, 122688, Control_c, 0, 64, 93
1, 122694, Note_on_c, 0, 72, 70
1, 122694, Note_on_c, 0, 52, 53
1, 122703, Control_c, 0, 64, 69
1, 122707, Note_on_c, 0, 46, 39
1, 122710, Note_on_c, 0, 41, 50
1, 122715, Note_on_c, 0, 60, 51
1, 122718, Control_c, 0, 64, 55
1, 122733, Control_c, 0, 64, 52
1, 122747, Control_c, 0, 64, 61
1, 122758, Note_off_c, 0, 52, 62
1, 122762, Control_c, 0, 64, 65
1, 122777, Control_c, 0, 64, 73
1, 122786, Note_off_c, 0, 46, 62
1, 122792, Control_c, 0, 64, 109
1, 122796, Note_off_c, 0, 41, 64
1, 122807, Control_c, 0, 64, 127
1, 122836, Note_off_c, 0, 72, 55
1, 122903, Note_off_c, 0, 60, 34
1, 122946, Note_on_c, 0, 41, 45
1, 122954, Note_on_c, 0, 29, 50
1, 122962, Control_c, 0, 64, 86
1, 122977, Control_c, 0, 64, 61
1, 122992, Control_c, 0, 64, 0
1, 122996, Note_on_c, 0, 72, 57
1, 123022, Control_c, 0, 64, 24
1, 123024, Note_on_c, 0, 60, 52
1, 123036, Control_c, 0, 64, 49
1, 123051, Control_c, 0, 64, 63
1, 123056, Note_off_c, 0, 29, 58
1, 123066, Control_c, 0, 64, 73
1, 123080, Control_c, 0, 64, 107
1, 123081, Note_off_c, 0, 41, 64
1, 123095, Control_c, 0, 64, 127
1, 123277, Note_on_c, 0, 53, 52
1, 123292, Note_on_c, 0, 45, 39
1, 123310, Note_on_c, 0, 41, 39
1, 123347, Note_off_c, 0, 53, 62
1, 123350, Note_off_c, 0, 41, 59
1, 123377, Note_off_c, 0, 45, 58
1, 123438, Note_on_c, 0, 52, 66
1, 123451, Note_on_c, 0, 45, 34
1, 123462, Note_on_c, 0, 41, 46
1, 123500, Note_off_c, 0, 41, 61
1, 123502, Note_off_c, 0, 52, 64
1, 123521, Note_off_c, 0, 45, 58
1, 123599, Note_on_c, 0, 53, 74
1, 123617, Note_on_c, 0, 45, 49
1, 123619, Note_on_c, 0, 41, 44
1, 123659, Note_off_c, 0, 53, 63
1, 123660, Note_off_c, 0, 41, 59
1, 123694, Note_off_c, 0, 45, 58
1, 123762, Note_on_c, 0, 54, 64
1, 123768, Note_on_c, 0, 45, 29
1, 123794, Note_on_c, 0, 41, 24
1, 123815, Control_c, 0, 64, 100
1, 123830, Control_c, 0, 64, 85
1, 123844, Control_c, 0, 64, 75
1, 123847, Note_off_c, 0, 41, 42
1, 123848, Note_off_c, 0, 60, 38
1, 123850, Note_on_c, 0, 65, 59
1, 123859, Control_c, 0, 64, 68
1, 123862, Note_off_c, 0, 45, 48
1, 123874, Control_c, 0, 64, 63
1, 123889, Control_c, 0, 64, 62
1, 123898, Note_off_c, 0, 72, 37
1, 123903, Control_c, 0, 64, 64
1, 123918, Control_c, 0, 64, 65
1, 123925, Note_off_c, 0, 54, 35
1, 123933, Control_c, 0, 64, 67
1, 123948, Control_c, 0, 64, 69
1, 123963, Control_c, 0, 64, 72
1, 123966, Note_on_c, 0, 53, 51
1, 123975, Note_on_c, 0, 45, 36
1, 123978, Control_c, 0, 64, 74
1, 123993, Control_c, 0, 64, 72
1, 123995, Note_on_c, 0, 41, 44
1, 124007, Control_c, 0, 64, 66
1, 124022, Control_c, 0, 64, 60
1, 124037, Control_c, 0, 64, 54
1, 124052, Control_c, 0, 64, 56
1, 124067, Control_c, 0, 64, 60
1, 124075, Note_off_c, 0, 53, 62
1, 124081, Control_c, 0, 64, 64
1, 124092, Note_off_c, 0, 41, 60
1, 124096, Control_c, 0, 64, 70
1, 124109, Note_off_c, 0, 45, 64
1, 124111, Control_c, 0, 64, 82
1, 124125, Control_c, 0, 64, 123
1, 124140, Control_c, 0, 64, 127
1, 124154, Note_off_c, 0, 65, 60
1, 124259, Control_c, 0, 64, 101
1, 124262, Note_on_c, 0, 46, 38
1, 124274, Control_c, 0, 64, 78
1, 124286, Note_on_c, 0, 34, 39
1, 124289, Control_c, 0, 64, 63
1, 124299, Note_on_c, 0, 73, 54
1, 124304, Control_c, 0, 64, 37
1, 124318, Control_c, 0, 64, 19
1, 124334, Note_on_c, 0, 61, 36
1, 124338, Note_on_c, 0, 65, 35
1, 124340, Control_c, 0, 64, 36
1, 124355, Control_c, 0, 64, 50
1, 124370, Control_c, 0, 64, 58
1, 124385, Control_c, 0, 64, 65
1, 124400, Control_c, 0, 64, 73
1, 124409, Note_off_c, 0, 34, 56
1, 124414, Control_c, 0, 64, 90
1, 124415, Note_off_c, 0, 46, 59
1, 124429, Control_c, 0, 64, 127
1, 124576, Note_on_c, 0, 53, 45
1, 124580, Note_on_c, 0, 46, 31
1, 124600, Note_on_c, 0, 49, 34
1, 124643, Note_off_c, 0, 46, 54
1, 124649, Note_off_c, 0, 49, 57
1, 124735, Note_on_c, 0, 52, 61
1, 124762, Note_on_c, 0, 46, 39
1, 124763, Note_off_c, 0, 61, 35
1, 124769, Note_off_c, 0, 53, 40
1, 124770, Note_on_c, 0, 49, 39
1, 124777, Note_off_c, 0, 73, 36
1, 124794, Note_off_c, 0, 65, 40
1, 124800, Note_off_c, 0, 46, 55
1, 124818, Note_off_c, 0, 49, 54
1, 124880, Note_on_c, 0, 53, 65
1, 124895, Note_on_c, 0, 49, 42
1, 124905, Note_on_c, 0, 46, 49
1, 124907, Note_off_c, 0, 52, 56
1, 124944, Note_off_c, 0, 46, 61
1, 124950, Note_off_c, 0, 49, 59
1, 125038, Note_on_c, 0, 54, 60
1, 125040, Note_off_c, 0, 53, 52
1, 125060, Note_on_c, 0, 46, 41
1, 125067, Note_on_c, 0, 49, 33
1, 125108, Note_off_c, 0, 46, 54
1, 125115, Note_on_c, 0, 73, 75
1, 125123, Note_off_c, 0, 49, 54
1, 125135, Note_on_c, 0, 65, 54
1, 125135, Control_c, 0, 64, 101
1, 125140, Note_on_c, 0, 61, 55
1, 125150, Control_c, 0, 64, 81
1, 125164, Control_c, 0, 64, 68
1, 125179, Control_c, 0, 64, 61
1, 125194, Control_c, 0, 64, 58
1, 125201, Note_off_c, 0, 54, 55
1, 125207, Note_on_c, 0, 53, 56
1, 125209, Control_c, 0, 64, 61
1, 125221, Note_on_c, 0, 46, 58
1, 125224, Control_c, 0, 64, 64
1, 125231, Note_on_c, 0, 49, 39
1, 125238, Control_c, 0, 64, 68
1, 125249, Note_off_c, 0, 53, 63
1, 125253, Control_c, 0, 64, 77
1, 125268, Note_off_c, 0, 49, 64
1, 125268, Control_c, 0, 64, 101
1, 125270, Note_off_c, 0, 46, 63
1, 125281, Note_off_c, 0, 65, 56
1, 125282, Control_c, 0, 64, 127
1, 125339, Note_off_c, 0, 73, 64
1, 125377, Note_off_c, 0, 61, 60
1, 125416, Control_c, 0, 64, 111
1, 125420, Note_on_c, 0, 37, 54
1, 125423, Note_on_c, 0, 49, 46
1, 125430, Control_c, 0, 64, 80
1, 125445, Control_c, 0, 64, 63
1, 125451, Note_on_c, 0, 72, 78
1, 125460, Control_c, 0, 64, 38
1, 125463, Note_on_c, 0, 65, 45
1, 125467, Note_on_c, 0, 60, 62
1, 125475, Control_c, 0, 64, 31
1, 125490, Control_c, 0, 64, 44
1, 125505, Control_c, 0, 64, 53
1, 125520, Control_c, 0, 64, 58
1, 125535, Control_c, 0, 64, 63
1, 125550, Note_off_c, 0, 37, 60
1, 125550, Control_c, 0, 64, 68
1, 125563, Note_off_c, 0, 49, 63
1, 125565, Control_c, 0, 64, 77
1, 125579, Control_c, 0, 64, 95
1, 125594, Control_c, 0, 64, 127
1, 125685, Note_on_c, 0, 53, 59
1, 125702, Note_on_c, 0, 49, 45
1, 125746, Note_off_c, 0, 49, 61
1, 125796, Note_off_c, 0, 60, 62
1, 125842, Note_off_c, 0, 53, 53
1, 125846, Note_on_c, 0, 52, 60
1, 125858, Note_on_c, 0, 49, 49
1, 125908, Note_off_c, 0, 49, 56
1, 125991, Note_on_c, 0, 70, 68
1, 126002, Control_c, 0, 64, 118
1, 126003, Note_off_c, 0, 52, 61
1, 126013, Note_on_c, 0, 53, 51
1, 126017, Note_on_c, 0, 58, 53
1, 126017, Control_c, 0, 64, 90
1, 126032, Control_c, 0, 64, 74
1, 126037, Note_on_c, 0, 49, 38
1, 126047, Control_c, 0, 64, 64
1, 126050, Note_off_c, 0, 72, 34
1, 126061, Control_c, 0, 64, 58
1, 126076, Control_c, 0, 64, 60
1, 126077, Note_off_c, 0, 49, 59
1, 126091, Control_c, 0, 64, 62
1, 126105, Control_c, 0, 64, 64
1, 126113, Note_off_c, 0, 65, 60
1, 126117, Note_off_c, 0, 58, 61
1, 126120, Control_c, 0, 64, 67
1, 126135, Control_c, 0, 64, 72
1, 126138, Note_off_c, 0, 70, 61
1, 126150, Control_c, 0, 64, 84
1, 126165, Control_c, 0, 64, 97
1, 126178, Control_c, 0, 64, 104
1, 126181, Note_on_c, 0, 54, 53
1, 126184, Note_on_c, 0, 49, 50
1, 126187, Note_off_c, 0, 53, 50
1, 126193, Control_c, 0, 64, 101
1, 126208, Control_c, 0, 64, 95
1, 126223, Control_c, 0, 64, 88
1, 126238, Note_off_c, 0, 49, 57
1, 126238, Control_c, 0, 64, 80
1, 126252, Control_c, 0, 64, 74
1, 126260, Note_on_c, 0, 70, 68
1, 126267, Control_c, 0, 64, 69
1, 126270, Note_on_c, 0, 58, 51
1, 126274, Note_on_c, 0, 65, 45
1, 126282, Control_c, 0, 64, 67
1, 126296, Control_c, 0, 64, 67
1, 126311, Control_c, 0, 64, 69
1, 126327, Control_c, 0, 64, 74
1, 126342, Control_c, 0, 64, 80
1, 126357, Control_c, 0, 64, 91
1, 126357, Note_on_c, 0, 53, 58
1, 126361, Note_off_c, 0, 54, 36
1, 126363, Note_on_c, 0, 49, 53
1, 126372, Control_c, 0, 64, 117
1, 126387, Control_c, 0, 64, 127
1, 126411, Note_off_c, 0, 53, 59
1, 126420, Note_off_c, 0, 49, 61
1, 126432, Note_off_c, 0, 58, 56
1, 126440, Note_off_c, 0, 65, 56
1, 126449, Note_off_c, 0, 70, 56
1, 126611, Note_on_c, 0, 36, 50
1, 126616, Control_c, 0, 64, 92
1, 126631, Control_c, 0, 64, 71
1, 126646, Control_c, 0, 64, 55
1, 126652, Note_on_c, 0, 70, 59
1, 126661, Control_c, 0, 64, 17
1, 126667, Note_on_c, 0, 58, 47
1, 126675, Control_c, 0, 64, 22
1, 126679, Note_on_c, 0, 65, 39
1, 126690, Control_c, 0, 64, 34
1, 126705, Control_c, 0, 64, 49
1, 126720, Control_c, 0, 64, 58
1, 126734, Control_c, 0, 64, 65
1, 126749, Note_off_c, 0, 36, 63
1, 126749, Control_c, 0, 64, 74
1, 126764, Control_c, 0, 64, 99
1, 126779, Control_c, 0, 64, 127
1, 126853, Note_off_c, 0, 70, 63
1, 126880, Note_off_c, 0, 58, 63
1, 126884, Note_on_c, 0, 53, 55
1, 126898, Note_on_c, 0, 48, 48
1, 126910, Note_on_c, 0, 51, 46
1, 126919, Note_off_c, 0, 65, 33
1, 126944, Note_off_c, 0, 48, 59
1, 127022, Note_off_c, 0, 51, 35
1, 127049, Note_on_c, 0, 69, 75
1, 127054, Note_on_c, 0, 52, 59
1, 127061, Note_on_c, 0, 57, 61
1, 127062, Note_off_c, 0, 53, 39
1, 127064, Note_on_c, 0, 48, 45
1, 127112, Note_off_c, 0, 57, 59
1, 127131, Note_off_c, 0, 48, 53
1, 127144, Note_off_c, 0, 69, 63
1, 127234, Note_on_c, 0, 72, 88
1, 127236, Note_on_c, 0, 53, 67
1, 127239, Control_c, 0, 64, 99
1, 127245, Note_on_c, 0, 60, 73
1, 127247, Note_on_c, 0, 51, 60
1, 127254, Control_c, 0, 64, 78
1, 127262, Note_off_c, 0, 52, 56
1, 127269, Control_c, 0, 64, 63
1, 127284, Control_c, 0, 64, 55
1, 127298, Control_c, 0, 64, 59
1, 127307, Note_off_c, 0, 60, 62
1, 127320, Control_c, 0, 64, 63
1, 127335, Control_c, 0, 64, 67
1, 127345, Note_off_c, 0, 51, 60
1, 127350, Note_off_c, 0, 72, 65
1, 127350, Control_c, 0, 64, 77
1, 127359, Poly_aftertouch_c, 0, 48, 0
1, 127365, Control_c, 0, 64, 127
1, 127439, Control_c, 0, 64, 99
1, 127445, Note_on_c, 0, 75, 95
1, 127447, Note_on_c, 0, 51, 77
1, 127451, Note_on_c, 0, 63, 86
1, 127454, Control_c, 0, 64, 75
1, 127469, Note_on_c, 0, 48, 60
1, 127469, Control_c, 0, 64, 64
1, 127481, Note_off_c, 0, 53, 60
1, 127484, Control_c, 0, 64, 57
1, 127498, Control_c, 0, 64, 61
1, 127513, Control_c, 0, 64, 65
1, 127528, Control_c, 0, 64, 70
1, 127536, Note_off_c, 0, 63, 62
1, 127543, Control_c, 0, 64, 92
1, 127557, Control_c, 0, 64, 127
1, 127565, Note_off_c, 0, 75, 63
1, 127600, Note_off_c, 0, 48, 36
1, 127601, Note_off_c, 0, 51, 60
1, 127661, Control_c, 0, 64, 95
1, 127666, Note_on_c, 0, 78, 93
1, 127667, Note_on_c, 0, 72, 59
1, 127670, Note_on_c, 0, 66, 84
1, 127676, Control_c, 0, 64, 74
1, 127678, Note_on_c, 0, 54, 71
1, 127680, Note_on_c, 0, 75, 69
1, 127691, Control_c, 0, 64, 61
1, 127694, Note_on_c, 0, 48, 44
1, 127705, Control_c, 0, 64, 52
1, 127711, Note_on_c, 0, 51, 64
1, 127720, Control_c, 0, 64, 58
1, 127735, Control_c, 0, 64, 63
1, 127749, Control_c, 0, 64, 67
1, 127764, Control_c, 0, 64, 78
1, 127779, Control_c, 0, 64, 127
1, 127782, Note_off_c, 0, 51, 64
1, 127783, Note_off_c, 0, 48, 61
1, 127785, Note_off_c, 0, 54, 64
1, 127832, Note_off_c, 0, 75, 57
1, 127871, Note_off_c, 0, 72, 59
1, 127883, Note_off_c, 0, 78, 59
1, 127925, Note_off_c, 0, 66, 59
1, 127991, Note_on_c, 0, 33, 58
1, 128018, Control_c, 0, 64, 100
1, 128029, Note_on_c, 0, 77, 85
1, 128033, Control_c, 0, 64, 72
1, 128042, Note_on_c, 0, 65, 73
1, 128047, Control_c, 0, 64, 54
1, 128054, Note_on_c, 0, 72, 52
1, 128054, Note_on_c, 0, 75, 61
1, 128069, Control_c, 0, 64, 0
1, 128099, Control_c, 0, 64, 29
1, 128114, Control_c, 0, 64, 50
1, 128128, Control_c, 0, 64, 61
1, 128143, Control_c, 0, 64, 68
1, 128158, Control_c, 0, 64, 81
1, 128172, Note_off_c, 0, 33, 62
1, 128173, Control_c, 0, 64, 127
1, 128322, Note_on_c, 0, 53, 63
1, 128329, Note_on_c, 0, 48, 50
1, 128363, Note_on_c, 0, 45, 31
1, 128387, Note_off_c, 0, 48, 56
1, 128399, Note_off_c, 0, 45, 49
1, 128481, Note_on_c, 0, 52, 69
1, 128493, Note_on_c, 0, 45, 52
1, 128498, Note_off_c, 0, 53, 54
1, 128508, Note_on_c, 0, 48, 52
1, 128545, Note_off_c, 0, 45, 57
1, 128551, Note_off_c, 0, 48, 57
1, 128597, Note_off_c, 0, 77, 53
1, 128621, Note_on_c, 0, 53, 74
1, 128625, Note_off_c, 0, 65, 59
1, 128649, Note_off_c, 0, 52, 63
1, 128668, Note_on_c, 0, 45, 28
1, 128671, Note_on_c, 0, 48, 37
1, 128676, Note_off_c, 0, 75, 58
1, 128700, Note_off_c, 0, 45, 49
1, 128709, Note_off_c, 0, 72, 61
1, 128713, Note_off_c, 0, 48, 43
1, 128723, Note_off_c, 0, 53, 54
1, 128781, Note_on_c, 0, 54, 57
1, 128786, Note_on_c, 0, 48, 41
1, 128797, Note_on_c, 0, 45, 37
1, 128849, Note_off_c, 0, 45, 55
1, 128880, Note_off_c, 0, 54, 59
1, 128883, Note_on_c, 0, 75, 72
1, 128893, Control_c, 0, 64, 109
1, 128903, Note_on_c, 0, 63, 62
1, 128908, Control_c, 0, 64, 86
1, 128923, Control_c, 0, 64, 72
1, 128938, Control_c, 0, 64, 62
1, 128952, Control_c, 0, 64, 57
1, 128967, Control_c, 0, 64, 60
1, 128969, Note_on_c, 0, 53, 46
1, 128982, Control_c, 0, 64, 63
1, 128987, Note_on_c, 0, 45, 41
1, 128996, Control_c, 0, 64, 67
1, 129011, Control_c, 0, 64, 73
1, 129015, Note_off_c, 0, 53, 61
1, 129026, Control_c, 0, 64, 85
1, 129039, Note_off_c, 0, 45, 63
1, 129041, Control_c, 0, 64, 127
1, 129053, Note_off_c, 0, 48, 39
1, 129103, Note_off_c, 0, 75, 57
1, 129117, Note_off_c, 0, 63, 56
1, 129234, Note_on_c, 0, 34, 45
1, 129234, Control_c, 0, 64, 91
1, 129249, Control_c, 0, 64, 69
1, 129264, Control_c, 0, 64, 47
1, 129278, Note_on_c, 0, 75, 53
1, 129278, Control_c, 0, 64, 0
1, 129290, Note_on_c, 0, 63, 44
1, 129308, Control_c, 0, 64, 33
1, 129322, Control_c, 0, 64, 50
1, 129337, Control_c, 0, 64, 59
1, 129352, Control_c, 0, 64, 65
1, 129367, Control_c, 0, 64, 72
1, 129369, Note_off_c, 0, 34, 53
1, 129382, Control_c, 0, 64, 84
1, 129396, Control_c, 0, 64, 127
1, 129467, Note_off_c, 0, 75, 53
1, 129506, Note_off_c, 0, 63, 36
1, 129511, Note_on_c, 0, 53, 52
1, 129534, Note_on_c, 0, 49, 37
1, 129540, Note_on_c, 0, 46, 31
1, 129588, Note_off_c, 0, 49, 57
1, 129589, Note_off_c, 0, 46, 52
1, 129681, Note_off_c, 0, 53, 51
1, 129686, Note_on_c, 0, 52, 45
1, 129712, Note_on_c, 0, 73, 66
1, 129719, Note_on_c, 0, 46, 37
1, 129719, Note_on_c, 0, 49, 24
1, 129733, Note_on_c, 0, 61, 50
1, 129763, Note_off_c, 0, 46, 55
1, 129774, Note_off_c, 0, 49, 49
1, 129783, Note_off_c, 0, 61, 59
1, 129794, Note_off_c, 0, 73, 65
1, 129881, Note_on_c, 0, 70, 72
1, 129882, Note_off_c, 0, 52, 58
1, 129886, Note_on_c, 0, 46, 40
1, 129893, Note_on_c, 0, 53, 45
1, 129893, Control_c, 0, 64, 94
1, 129899, Note_on_c, 0, 58, 59
1, 129902, Note_on_c, 0, 49, 43
1, 129908, Control_c, 0, 64, 74
1, 129923, Control_c, 0, 64, 63
1, 129937, Control_c, 0, 64, 59
1, 129952, Control_c, 0, 64, 63
1, 129955, Note_off_c, 0, 46, 55
1, 129967, Control_c, 0, 64, 69
1, 129982, Control_c, 0, 64, 79
1, 129982, Note_off_c, 0, 58, 62
1, 129985, Note_off_c, 0, 49, 53
1, 129997, Control_c, 0, 64, 106
1, 130012, Control_c, 0, 64, 127
1, 130056, Control_c, 0, 64, 106
1, 130060, Note_on_c, 0, 72, 85
1, 130066, Note_on_c, 0, 54, 57
1, 130071, Control_c, 0, 64, 83
1, 130072, Note_on_c, 0, 60, 67
1, 130076, Note_on_c, 0, 49, 22
1, 130086, Control_c, 0, 64, 68
1, 130095, Note_off_c, 0, 53, 42
1, 130095, Note_on_c, 0, 46, 40
1, 130100, Control_c, 0, 64, 60
1, 130104, Note_off_c, 0, 70, 62
1, 130115, Control_c, 0, 64, 61
1, 130130, Control_c, 0, 64, 65
1, 130137, Note_off_c, 0, 60, 63
1, 130144, Control_c, 0, 64, 69
1, 130157, Note_off_c, 0, 46, 56
1, 130159, Control_c, 0, 64, 79
1, 130174, Control_c, 0, 64, 108
1, 130184, Note_off_c, 0, 49, 38
1, 130189, Control_c, 0, 64, 127
1, 130233, Control_c, 0, 64, 102
1, 130241, Note_on_c, 0, 73, 84
1, 130248, Control_c, 0, 64, 76
1, 130249, Note_on_c, 0, 53, 48
1, 130256, Note_on_c, 0, 61, 66
1, 130261, Note_on_c, 0, 46, 45
1, 130263, Control_c, 0, 64, 60
1, 130273, Note_off_c, 0, 72, 63
1, 130275, Note_on_c, 0, 49, 26
1, 130277, Control_c, 0, 64, 40
1, 130281, Note_off_c, 0, 54, 59
1, 130292, Control_c, 0, 64, 50
1, 130307, Control_c, 0, 64, 60
1, 130323, Note_off_c, 0, 53, 60
1, 130326, Note_off_c, 0, 49, 64
1, 130331, Control_c, 0, 64, 65
1, 130342, Note_off_c, 0, 46, 62
1, 130346, Control_c, 0, 64, 75
1, 130361, Control_c, 0, 64, 98
1, 130375, Control_c, 0, 64, 127
1, 130400, Note_off_c, 0, 73, 60
1, 130427, Note_off_c, 0, 61, 60
1, 130471, Note_on_c, 0, 40, 54
1, 130479, Control_c, 0, 64, 84
1, 130494, Control_c, 0, 64, 65
1, 130501, Note_on_c, 0, 72, 64
1, 130509, Control_c, 0, 64, 40
1, 130511, Note_on_c, 0, 60, 55
1, 130523, Control_c, 0, 64, 20
1, 130538, Control_c, 0, 64, 38
1, 130553, Control_c, 0, 64, 50
1, 130567, Control_c, 0, 64, 59
1, 130582, Control_c, 0, 64, 65
1, 130590, Note_off_c, 0, 40, 63
1, 130597, Control_c, 0, 64, 73
1, 130612, Control_c, 0, 64, 91
1, 130627, Control_c, 0, 64, 127
1, 130676, Note_off_c, 0, 60, 62
1, 130713, Note_on_c, 0, 55, 50
1, 130719, Note_on_c, 0, 48, 43
1, 130730, Note_on_c, 0, 46, 45
1, 130775, Note_off_c, 0, 55, 54
1, 130793, Note_off_c, 0, 46, 54
1, 130857, Note_off_c, 0, 48, 59
1, 130889, Note_on_c, 0, 70, 69
1, 130890, Note_off_c, 0, 72, 23
1, 130906, Note_on_c, 0, 58, 54
1, 130909, Note_on_c, 0, 49, 38
1, 130911, Note_on_c, 0, 46, 18
1, 130915, Note_on_c, 0, 55, 39
1, 130954, Note_off_c, 0, 46, 49
1, 130958, Note_off_c, 0, 58, 61
1, 130975, Note_off_c, 0, 55, 54
1, 131052, Note_off_c, 0, 70, 58
1, 131094, Control_c, 0, 64, 105
1, 131100, Note_on_c, 0, 73, 58
1, 131106, Note_on_c, 0, 46, 31
1, 131109, Control_c, 0, 64, 82
1, 131124, Control_c, 0, 64, 67
1, 131128, Note_on_c, 0, 61, 39
1, 131133, Note_on_c, 0, 55, 29
1, 131139, Control_c, 0, 64, 55
1, 131154, Control_c, 0, 64, 48
1, 131169, Control_c, 0, 64, 53
1, 131183, Control_c, 0, 64, 58
1, 131198, Control_c, 0, 64, 61
1, 131213, Control_c, 0, 64, 66
1, 131225, Note_off_c, 0, 55, 53
1, 131228, Control_c, 0, 64, 74
1, 131240, Note_off_c, 0, 46, 51
1, 131243, Control_c, 0, 64, 92
1, 131250, Note_off_c, 0, 73, 62
1, 131258, Control_c, 0, 64, 127
1, 131265, Note_off_c, 0, 61, 58
1, 131302, Control_c, 0, 64, 105
1, 131317, Control_c, 0, 64, 85
1, 131332, Control_c, 0, 64, 71
1, 131333, Note_off_c, 0, 49, 20
1, 131341, Note_on_c, 0, 72, 59
1, 131346, Control_c, 0, 64, 62
1, 131351, Note_on_c, 0, 48, 31
1, 131361, Note_on_c, 0, 60, 47
1, 131361, Control_c, 0, 64, 59
1, 131370, Note_on_c, 0, 55, 26
1, 131374, Note_on_c, 0, 46, 32
1, 131376, Control_c, 0, 64, 63
1, 131390, Control_c, 0, 64, 66
1, 131405, Control_c, 0, 64, 70
1, 131411, Note_off_c, 0, 60, 64
1, 131416, Note_off_c, 0, 72, 61
1, 131420, Control_c, 0, 64, 80
1, 131423, Note_off_c, 0, 46, 46
1, 131423, Note_off_c, 0, 55, 51
1, 131435, Control_c, 0, 64, 107
1, 131450, Control_c, 0, 64, 127
1, 131509, Control_c, 0, 64, 118
1, 131524, Control_c, 0, 64, 83
1, 131538, Control_c, 0, 64, 66
1, 131539, Note_off_c, 0, 48, 39
1, 131545, Note_on_c, 0, 70, 55
1, 131553, Control_c, 0, 64, 48
1, 131554, Note_on_c, 0, 49, 23
1, 131559, Note_on_c, 0, 46, 37
1, 131566, Note_on_c, 0, 55, 33
1, 131568, Control_c, 0, 64, 51
1, 131581, Note_on_c, 0, 58, 35
1, 131583, Control_c, 0, 64, 59
1, 131598, Control_c, 0, 64, 64
1, 131610, Note_off_c, 0, 46, 61
1, 131613, Control_c, 0, 64, 69
1, 131616, Note_off_c, 0, 55, 60
1, 131619, Note_off_c, 0, 49, 60
1, 131628, Control_c, 0, 64, 80
1, 131642, Control_c, 0, 64, 121
1, 131657, Control_c, 0, 64, 127
1, 131662, Note_off_c, 0, 70, 59
1, 131667, Note_off_c, 0, 58, 60
1, 131807, Note_on_c, 0, 41, 33
1, 131857, Control_c, 0, 64, 106
1, 131865, Note_on_c, 0, 66, 44
1, 131872, Control_c, 0, 64, 84
1, 131879, Note_on_c, 0, 54, 40
1, 131887, Control_c, 0, 64, 68
1, 131902, Control_c, 0, 64, 55
1, 131917, Control_c, 0, 64, 41
1, 131932, Control_c, 0, 64, 44
1, 131947, Control_c, 0, 64, 48
1, 131962, Control_c, 0, 64, 54
1, 131976, Control_c, 0, 64, 58
1, 131991, Control_c, 0, 64, 62
1, 132006, Control_c, 0, 64, 66
1, 132021, Control_c, 0, 64, 73
1, 132036, Control_c, 0, 64, 84
1, 132051, Control_c, 0, 64, 104
1, 132066, Control_c, 0, 64, 127
1, 132079, Note_on_c, 0, 46, 38
1, 132081, Note_on_c, 0, 49, 31
1, 132137, Note_off_c, 0, 49, 56
1, 132138, Note_off_c, 0, 46, 56
1, 132140, Note_off_c, 0, 66, 31
1, 132174, Note_off_c, 0, 54, 41
1, 132242, Note_off_c, 0, 41, 38
1, 132257, Note_on_c, 0, 46, 34
1, 132262, Note_on_c, 0, 49, 28
1, 132314, Note_on_c, 0, 65, 56
1, 132333, Note_on_c, 0, 53, 36
1, 132368, Note_off_c, 0, 65, 50
1, 132374, Note_off_c, 0, 53, 49
1, 132421, Control_c, 0, 64, 100
1, 132435, Note_off_c, 0, 49, 39
1, 132436, Control_c, 0, 64, 80
1, 132451, Control_c, 0, 64, 66
1, 132461, Note_on_c, 0, 41, 30
1, 132466, Control_c, 0, 64, 52
1, 132468, Note_off_c, 0, 46, 41
1, 132471, Note_on_c, 0, 65, 37
1, 132481, Control_c, 0, 64, 48
1, 132493, Note_on_c, 0, 53, 39
1, 132495, Control_c, 0, 64, 55
1, 132510, Control_c, 0, 64, 59
1, 132525, Control_c, 0, 64, 63
1, 132537, Note_off_c, 0, 53, 55
1, 132540, Control_c, 0, 64, 67
1, 132555, Control_c, 0, 64, 75
1, 132577, Control_c, 0, 64, 92
1, 132592, Control_c, 0, 64, 127
1, 132682, Note_off_c, 0, 65, 40
1, 132684, Note_on_c, 0, 66, 50
1, 132695, Note_on_c, 0, 48, 32
1, 132700, Note_on_c, 0, 45, 35
1, 132711, Note_on_c, 0, 54, 36
1, 132756, Note_off_c, 0, 45, 54
1, 132760, Note_off_c, 0, 48, 54
1, 132801, Note_off_c, 0, 54, 57
1, 132830, Control_c, 0, 64, 116
1, 132844, Control_c, 0, 64, 93
1, 132847, Note_off_c, 0, 66, 36
1, 132859, Control_c, 0, 64, 77
1, 132874, Control_c, 0, 64, 69
1, 132880, Note_on_c, 0, 45, 34
1, 132881, Note_on_c, 0, 65, 52
1, 132886, Note_off_c, 0, 41, 36
1, 132889, Control_c, 0, 64, 67
1, 132892, Note_on_c, 0, 48, 30
1, 132904, Control_c, 0, 64, 70
1, 132910, Note_on_c, 0, 53, 37
1, 132918, Control_c, 0, 64, 74
1, 132922, Note_off_c, 0, 45, 62
1, 132924, Note_off_c, 0, 48, 58
1, 132933, Control_c, 0, 64, 79
1, 132948, Control_c, 0, 64, 88
1, 132963, Control_c, 0, 64, 103
1, 132978, Control_c, 0, 64, 127
1, 133038, Note_off_c, 0, 53, 32
1, 133067, Control_c, 0, 64, 97
1, 133069, Note_off_c, 0, 65, 25
1, 133082, Control_c, 0, 64, 72
1, 133094, Note_on_c, 0, 58, 50
1, 133097, Control_c, 0, 64, 52
1, 133097, Note_on_c, 0, 34, 36
1, 133111, Control_c, 0, 64, 0
1, 133126, Control_c, 0, 64, 35
1, 133141, Control_c, 0, 64, 52
1, 133156, Control_c, 0, 64, 62
1, 133163, Note_off_c, 0, 34, 57
1, 133170, Control_c, 0, 64, 69
1, 133185, Control_c, 0, 64, 80
1, 133200, Control_c, 0, 64, 101
1, 133215, Control_c, 0, 64, 127
1, 133335, Note_on_c, 0, 53, 42
1, 133357, Note_on_c, 0, 49, 35
1, 133411, Poly_aftertouch_c, 0, 46, 127
1, 133437, Note_off_c, 0, 49, 46
1, 133464, Poly_aftertouch_c, 0, 46, 0
1, 133529, Note_on_c, 0, 51, 47
1, 133556, Note_on_c, 0, 46, 13
1, 133571, Note_on_c, 0, 48, 37
1, 133579, Note_off_c, 0, 53, 37
1, 133614, Note_off_c, 0, 46, 45
1, 133667, Control_c, 0, 64, 123
1, 133682, Control_c, 0, 64, 115
1, 133697, Control_c, 0, 64, 110
1, 133712, Control_c, 0, 64, 105
1, 133727, Control_c, 0, 64, 100
1, 133741, Control_c, 0, 64, 95
1, 133756, Control_c, 0, 64, 90
1, 133771, Control_c, 0, 64, 86
1, 133786, Control_c, 0, 64, 83
1, 133801, Control_c, 0, 64, 80
1, 133816, Control_c, 0, 64, 77
1, 133830, Note_on_c, 0, 49, 27
1, 133830, Control_c, 0, 64, 74
1, 133831, Note_on_c, 0, 46, 22
1, 133845, Control_c, 0, 64, 71
1, 133860, Control_c, 0, 64, 67
1, 133874, Note_off_c, 0, 51, 24
1, 133875, Control_c, 0, 64, 60
1, 133881, Note_off_c, 0, 48, 32
1, 133890, Control_c, 0, 64, 48
1, 133905, Control_c, 0, 64, 37
1, 133920, Control_c, 0, 64, 36
1, 133934, Control_c, 0, 64, 37
1, 133949, Control_c, 0, 64, 38
1, 133964, Control_c, 0, 64, 44
1, 133979, Control_c, 0, 64, 49
1, 133993, Control_c, 0, 64, 54
1, 134008, Control_c, 0, 64, 59
1, 134023, Control_c, 0, 64, 63
1, 134038, Control_c, 0, 64, 66
1, 134053, Control_c, 0, 64, 70
1, 134075, Control_c, 0, 64, 76
1, 134090, Control_c, 0, 64, 84
1, 134105, Control_c, 0, 64, 91
1, 134108, Note_off_c, 0, 58, 53
1, 134120, Control_c, 0, 64, 98
1, 134135, Control_c, 0, 64, 104
1, 134149, Control_c, 0, 64, 112
1, 134164, Control_c, 0, 64, 127
1, 134257, Note_off_c, 0, 46, 33
1, 134301, Note_off_c, 0, 49, 36
1, 134460, Control_c, 0, 64, 121
1, 134475, Control_c, 0, 64, 114
1, 134489, Control_c, 0, 64, 111
1, 134504, Control_c, 0, 64, 108
1, 134519, Control_c, 0, 64, 105
1, 134534, Control_c, 0, 64, 102
1, 134549, Control_c, 0, 64, 99
1, 134564, Control_c, 0, 64, 96
1, 134570, Note_on_c, 0, 77, 53
1, 134579, Control_c, 0, 64, 93
1, 134594, Control_c, 0, 64, 91
1, 134608, Control_c, 0, 64, 89
1, 134623, Control_c, 0, 64, 86
1, 134638, Control_c, 0, 64, 81
1, 134653, Control_c, 0, 64, 76
1, 134668, Control_c, 0, 64, 70
1, 134682, Control_c, 0, 64, 66
1, 134697, Control_c, 0, 64, 64
1, 134742, Control_c, 0, 64, 65
1, 134756, Control_c, 0, 64, 66
1, 134771, Control_c, 0, 64, 68
1, 134786, Control_c, 0, 64, 70
1, 134801, Control_c, 0, 64, 74
1, 134823, Control_c, 0, 64, 79
1, 134827, Note_off_c, 0, 77, 60
1, 134838, Control_c, 0, 64, 85
1, 134853, Control_c, 0, 64, 93
1, 134868, Control_c, 0, 64, 102
1, 134883, Control_c, 0, 64, 108
1, 134897, Control_c, 0, 64, 109
1, 134907, Note_on_c, 0, 46, 33
1, 134927, Control_c, 0, 64, 108
1, 134942, Control_c, 0, 64, 107
1, 134957, Control_c, 0, 64, 101
1, 134971, Control_c, 0, 64, 93
1, 134986, Note_on_c, 0, 85, 66
1, 134986, Control_c, 0, 64, 80
1, 135001, Control_c, 0, 64, 69
1, 135002, Note_on_c, 0, 77, 39
1, 135015, Control_c, 0, 64, 61
1, 135018, Note_on_c, 0, 73, 38
1, 135030, Control_c, 0, 64, 59
1, 135045, Control_c, 0, 64, 62
1, 135060, Control_c, 0, 64, 64
1, 135075, Control_c, 0, 64, 66
1, 135086, Note_off_c, 0, 46, 49
1, 135089, Control_c, 0, 64, 75
1, 135104, Control_c, 0, 64, 93
1, 135120, Control_c, 0, 64, 127
1, 135363, Note_on_c, 0, 65, 35
1, 135375, Note_on_c, 0, 58, 28
1, 135381, Note_on_c, 0, 61, 29
1, 135425, Note_off_c, 0, 58, 55
1, 135434, Note_off_c, 0, 61, 51
1, 135524, Note_on_c, 0, 64, 52
1, 135533, Note_off_c, 0, 65, 42
1, 135550, Note_off_c, 0, 73, 35
1, 135567, Note_on_c, 0, 61, 34
1, 135571, Note_on_c, 0, 58, 25
1, 135607, Note_off_c, 0, 58, 46
1, 135612, Note_off_c, 0, 61, 52
1, 135618, Note_off_c, 0, 85, 35
1, 135627, Note_off_c, 0, 77, 33
1, 135670, Note_off_c, 0, 64, 61
1, 135674, Note_on_c, 0, 65, 55
1, 135691, Note_on_c, 0, 61, 39
1, 135728, Note_on_c, 0, 58, 18
1, 135739, Note_off_c, 0, 61, 58
1, 135771, Note_off_c, 0, 58, 38
1, 135825, Note_off_c, 0, 65, 55
1, 135831, Note_on_c, 0, 66, 52
1, 135844, Note_on_c, 0, 61, 40
1, 135861, Note_on_c, 0, 58, 19
1, 135889, Note_off_c, 0, 61, 56
1, 135891, Note_on_c, 0, 85, 76
1, 135905, Note_off_c, 0, 58, 44
1, 135918, Note_on_c, 0, 77, 52
1, 135919, Note_on_c, 0, 73, 55
1, 135991, Note_on_c, 0, 65, 53
1, 135999, Note_on_c, 0, 58, 58
1, 136015, Note_on_c, 0, 61, 45
1, 136023, Note_off_c, 0, 66, 32
1, 136033, Note_off_c, 0, 65, 62
1, 136038, Note_off_c, 0, 77, 56
1, 136045, Note_off_c, 0, 58, 62
1, 136048, Note_off_c, 0, 61, 63
1, 136129, Note_off_c, 0, 85, 63
1, 136159, Note_off_c, 0, 73, 63
1, 136180, Control_c, 0, 64, 110
1, 136189, Note_on_c, 0, 49, 53
1, 136195, Control_c, 0, 64, 77
1, 136210, Control_c, 0, 64, 63
1, 136225, Control_c, 0, 64, 47
1, 136233, Note_on_c, 0, 84, 76
1, 136240, Control_c, 0, 64, 46
1, 136254, Control_c, 0, 64, 50
1, 136256, Note_on_c, 0, 72, 53
1, 136257, Note_on_c, 0, 77, 45
1, 136269, Control_c, 0, 64, 54
1, 136284, Control_c, 0, 64, 59
1, 136299, Control_c, 0, 64, 64
1, 136322, Control_c, 0, 64, 70
1, 136323, Note_off_c, 0, 49, 62
1, 136336, Control_c, 0, 64, 81
1, 136351, Control_c, 0, 64, 106
1, 136366, Control_c, 0, 64, 127
1, 136469, Note_on_c, 0, 65, 56
1, 136504, Note_on_c, 0, 61, 37
1, 136535, Note_off_c, 0, 61, 57
1, 136570, Note_off_c, 0, 72, 57
1, 136615, Note_on_c, 0, 64, 65
1, 136630, Note_off_c, 0, 65, 48
1, 136633, Note_on_c, 0, 61, 56
1, 136669, Note_off_c, 0, 61, 61
1, 136760, Note_on_c, 0, 82, 73
1, 136769, Note_on_c, 0, 65, 57
1, 136776, Note_off_c, 0, 64, 57
1, 136782, Note_on_c, 0, 70, 60
1, 136787, Note_on_c, 0, 61, 43
1, 136814, Note_off_c, 0, 84, 34
1, 136828, Note_off_c, 0, 61, 57
1, 136880, Note_off_c, 0, 77, 60
1, 136881, Note_off_c, 0, 70, 61
1, 136913, Note_off_c, 0, 82, 64
1, 136940, Note_on_c, 0, 61, 51
1, 136940, Note_on_c, 0, 66, 61
1, 136949, Note_off_c, 0, 65, 34
1, 136984, Note_off_c, 0, 61, 59
1, 137016, Note_on_c, 0, 82, 81
1, 137020, Note_off_c, 0, 66, 53
1, 137031, Note_on_c, 0, 77, 52
1, 137037, Note_on_c, 0, 70, 62
1, 137116, Note_on_c, 0, 65, 59
1, 137118, Note_on_c, 0, 61, 59
1, 137154, Note_off_c, 0, 65, 62
1, 137156, Note_off_c, 0, 61, 61
1, 137219, Note_off_c, 0, 77, 59
1, 137227, Note_off_c, 0, 70, 58
1, 137240, Note_off_c, 0, 82, 62
1, 137326, Note_on_c, 0, 48, 58
1, 137336, Control_c, 0, 64, 97
1, 137351, Control_c, 0, 64, 75
1, 137365, Control_c, 0, 64, 62
1, 137371, Note_on_c, 0, 82, 72
1, 137380, Control_c, 0, 64, 45
1, 137384, Note_on_c, 0, 77, 48
1, 137384, Note_on_c, 0, 70, 52
1, 137395, Control_c, 0, 64, 40
1, 137409, Control_c, 0, 64, 46
1, 137424, Control_c, 0, 64, 54
1, 137439, Control_c, 0, 64, 60
1, 137454, Control_c, 0, 64, 65
1, 137469, Control_c, 0, 64, 72
1, 137473, Note_off_c, 0, 48, 64
1, 137483, Control_c, 0, 64, 91
1, 137498, Control_c, 0, 64, 127
1, 137592, Note_off_c, 0, 82, 64
1, 137598, Note_off_c, 0, 77, 55
1, 137625, Note_off_c, 0, 70, 63
1, 137630, Note_on_c, 0, 65, 30
1, 137631, Note_on_c, 0, 63, 47
1, 137632, Note_on_c, 0, 64, 41
1, 137634, Note_on_c, 0, 60, 39
1, 137670, Note_off_c, 0, 64, 63
1, 137681, Note_off_c, 0, 60, 58
1, 137706, Note_off_c, 0, 63, 56
1, 137765, Note_on_c, 0, 81, 78
1, 137767, Note_on_c, 0, 64, 62
1, 137772, Note_on_c, 0, 69, 70
1, 137781, Note_off_c, 0, 65, 49
1, 137792, Note_on_c, 0, 60, 52
1, 137831, Note_off_c, 0, 69, 61
1, 137839, Note_off_c, 0, 60, 61
1, 137866, Note_off_c, 0, 81, 65
1, 137947, Note_on_c, 0, 84, 88
1, 137952, Note_on_c, 0, 65, 63
1, 137956, Note_on_c, 0, 63, 56
1, 137957, Note_on_c, 0, 60, 49
1, 137958, Note_on_c, 0, 72, 75
1, 137965, Note_off_c, 0, 64, 56
1, 137965, Control_c, 0, 64, 97
1, 137980, Control_c, 0, 64, 74
1, 137995, Control_c, 0, 64, 64
1, 138010, Control_c, 0, 64, 60
1, 138025, Note_off_c, 0, 72, 62
1, 138025, Control_c, 0, 64, 64
1, 138035, Note_off_c, 0, 60, 51
1, 138040, Control_c, 0, 64, 68
1, 138051, Note_off_c, 0, 84, 66
1, 138054, Control_c, 0, 64, 76
1, 138066, Note_off_c, 0, 63, 59
1, 138069, Control_c, 0, 64, 108
1, 138084, Control_c, 0, 64, 127
1, 138129, Control_c, 0, 64, 121
1, 138141, Note_on_c, 0, 87, 98
1, 138144, Control_c, 0, 64, 86
1, 138145, Note_on_c, 0, 75, 85
1, 138158, Control_c, 0, 64, 69
1, 138159, Note_on_c, 0, 63, 68
1, 138168, Note_on_c, 0, 60, 62
1, 138173, Control_c, 0, 64, 62
1, 138176, Note_off_c, 0, 65, 60
1, 138188, Control_c, 0, 64, 63
1, 138203, Control_c, 0, 64, 66
1, 138218, Control_c, 0, 64, 71
1, 138232, Control_c, 0, 64, 80
1, 138234, Note_off_c, 0, 75, 61
1, 138247, Control_c, 0, 64, 117
1, 138260, Note_off_c, 0, 87, 64
1, 138262, Control_c, 0, 64, 127
1, 138270, Note_off_c, 0, 60, 55
1, 138305, Note_off_c, 0, 63, 55
1, 138352, Control_c, 0, 64, 86
1, 138363, Note_on_c, 0, 90, 89
1, 138367, Control_c, 0, 64, 69
1, 138370, Note_on_c, 0, 84, 58
1, 138371, Note_on_c, 0, 78, 81
1, 138379, Note_on_c, 0, 66, 60
1, 138382, Control_c, 0, 64, 58
1, 138382, Note_on_c, 0, 87, 62
1, 138391, Note_on_c, 0, 60, 51
1, 138397, Control_c, 0, 64, 52
1, 138403, Note_on_c, 0, 63, 45
1, 138411, Control_c, 0, 64, 58
1, 138426, Control_c, 0, 64, 63
1, 138441, Control_c, 0, 64, 69
1, 138455, Note_off_c, 0, 63, 64
1, 138455, Control_c, 0, 64, 84
1, 138458, Note_off_c, 0, 66, 63
1, 138460, Note_off_c, 0, 60, 62
1, 138470, Control_c, 0, 64, 127
1, 138524, Note_off_c, 0, 87, 54
1, 138576, Note_off_c, 0, 84, 59
1, 138600, Note_off_c, 0, 90, 61
1, 138648, Note_off_c, 0, 78, 61
1, 138671, Note_on_c, 0, 45, 50
1, 138700, Control_c, 0, 64, 86
1, 138710, Note_on_c, 0, 89, 84
1, 138715, Control_c, 0, 64, 64
1, 138728, Note_on_c, 0, 77, 64
1, 138729, Control_c, 0, 64, 44
1, 138731, Note_on_c, 0, 84, 47
1, 138735, Note_on_c, 0, 87, 58
1, 138744, Control_c, 0, 64, 38
1, 138759, Control_c, 0, 64, 49
1, 138774, Control_c, 0, 64, 58
1, 138788, Control_c, 0, 64, 64
1, 138803, Control_c, 0, 64, 73
1, 138818, Control_c, 0, 64, 106
1, 138820, Note_off_c, 0, 45, 62
1, 138833, Control_c, 0, 64, 127
1, 138978, Note_on_c, 0, 65, 57
1, 138990, Note_on_c, 0, 60, 45
1, 139044, Note_off_c, 0, 60, 56
1, 139128, Poly_aftertouch_c, 0, 57, 0
1, 139136, Note_on_c, 0, 64, 66
1, 139143, Note_on_c, 0, 57, 36
1, 139153, Note_on_c, 0, 60, 54
1, 139155, Note_off_c, 0, 65, 57
1, 139192, Note_off_c, 0, 60, 61
1, 139198, Note_off_c, 0, 57, 61
1, 139250, Note_off_c, 0, 89, 55
1, 139280, Note_on_c, 0, 65, 69
1, 139280, Note_off_c, 0, 77, 59
1, 139293, Note_off_c, 0, 64, 62
1, 139314, Note_on_c, 0, 60, 44
1, 139339, Note_off_c, 0, 87, 57
1, 139351, Note_off_c, 0, 60, 60
1, 139367, Note_off_c, 0, 65, 59
1, 139379, Poly_aftertouch_c, 0, 57, 127
1, 139390, Note_off_c, 0, 84, 65
1, 139435, Note_on_c, 0, 66, 56
1, 139458, Note_on_c, 0, 60, 33
1, 139494, Poly_aftertouch_c, 0, 57, 0
1, 139495, Note_off_c, 0, 66, 48
1, 139506, Note_off_c, 0, 60, 50
1, 139507, Note_on_c, 0, 87, 79
1, 139524, Note_on_c, 0, 75, 58
1, 139603, Note_on_c, 0, 65, 53
1, 139606, Note_on_c, 0, 57, 56
1, 139634, Note_off_c, 0, 65, 64
1, 139637, Note_on_c, 0, 60, 12
1, 139643, Note_off_c, 0, 57, 65
1, 139676, Note_off_c, 0, 60, 40
1, 139676, Note_off_c, 0, 87, 57
1, 139688, Note_off_c, 0, 75, 57
1, 139804, Note_on_c, 0, 46, 49
1, 139819, Control_c, 0, 64, 88
1, 139834, Control_c, 0, 64, 67
1, 139849, Control_c, 0, 64, 50
1, 139863, Note_on_c, 0, 87, 69
1, 139864, Control_c, 0, 64, 34
1, 139879, Control_c, 0, 64, 40
1, 139883, Note_on_c, 0, 75, 53
1, 139894, Control_c, 0, 64, 48
1, 139909, Control_c, 0, 64, 56
1, 139924, Control_c, 0, 64, 63
1, 139939, Control_c, 0, 64, 69
1, 139950, Note_off_c, 0, 46, 59
1, 139954, Control_c, 0, 64, 83
1, 139969, Control_c, 0, 64, 127
1, 140084, Note_off_c, 0, 87, 58
1, 140087, Note_off_c, 0, 75, 53
1, 140099, Note_on_c, 0, 65, 53
1, 140116, Note_on_c, 0, 61, 44
1, 140117, Note_on_c, 0, 58, 35
1, 140156, Note_off_c, 0, 58, 58
1, 140165, Note_off_c, 0, 61, 56
1, 140252, Note_on_c, 0, 64, 48
1, 140255, Note_off_c, 0, 65, 53
1, 140265, Note_on_c, 0, 61, 38
1, 140266, Note_on_c, 0, 85, 74
1, 140277, Note_on_c, 0, 58, 36
1, 140284, Note_on_c, 0, 73, 58
1, 140313, Note_off_c, 0, 58, 55
1, 140322, Note_off_c, 0, 61, 55
1, 140348, Note_off_c, 0, 73, 63
1, 140357, Note_off_c, 0, 85, 65
1, 140430, Note_on_c, 0, 82, 84
1, 140433, Note_off_c, 0, 64, 58
1, 140438, Note_on_c, 0, 58, 38
1, 140438, Note_on_c, 0, 65, 47
1, 140444, Note_on_c, 0, 70, 67
1, 140449, Control_c, 0, 64, 116
1, 140452, Note_on_c, 0, 61, 48
1, 140464, Control_c, 0, 64, 87
1, 140479, Control_c, 0, 64, 72
1, 140492, Note_off_c, 0, 58, 56
1, 140494, Control_c, 0, 64, 63
1, 140523, Control_c, 0, 64, 68
1, 140528, Note_off_c, 0, 61, 52
1, 140538, Control_c, 0, 64, 76
1, 140539, Note_off_c, 0, 70, 63
1, 140553, Control_c, 0, 64, 97
1, 140568, Control_c, 0, 64, 127
1, 140605, Note_on_c, 0, 84, 92
1, 140611, Note_on_c, 0, 66, 56
1, 140612, Control_c, 0, 64, 116
1, 140619, Note_on_c, 0, 72, 72
1, 140620, Note_on_c, 0, 58, 54
1, 140621, Note_on_c, 0, 61, 40
1, 140627, Control_c, 0, 64, 89
1, 140636, Note_off_c, 0, 65, 47
1, 140642, Control_c, 0, 64, 73
1, 140650, Note_off_c, 0, 82, 61
1, 140657, Control_c, 0, 64, 63
1, 140672, Control_c, 0, 64, 62
1, 140678, Note_off_c, 0, 58, 58
1, 140681, Note_off_c, 0, 61, 51
1, 140684, Note_off_c, 0, 72, 63
1, 140687, Control_c, 0, 64, 66
1, 140702, Control_c, 0, 64, 72
1, 140717, Control_c, 0, 64, 82
1, 140731, Control_c, 0, 64, 109
1, 140746, Control_c, 0, 64, 127
1, 140776, Control_c, 0, 64, 88
1, 140785, Note_on_c, 0, 85, 85
1, 140785, Note_on_c, 0, 65, 53
1, 140791, Control_c, 0, 64, 69
1, 140807, Note_on_c, 0, 73, 66
1, 140813, Control_c, 0, 64, 57
1, 140818, Note_off_c, 0, 84, 62
1, 140820, Note_on_c, 0, 58, 52
1, 140824, Note_off_c, 0, 66, 56
1, 140828, Control_c, 0, 64, 55
1, 140832, Note_on_c, 0, 61, 49
1, 140843, Control_c, 0, 64, 62
1, 140850, Note_off_c, 0, 73, 62
1, 140851, Note_off_c, 0, 65, 62
1, 140857, Control_c, 0, 64, 68
1, 140872, Control_c, 0, 64, 77
1, 140874, Note_off_c, 0, 61, 63
1, 140876, Note_off_c, 0, 85, 65
1, 140886, Note_off_c, 0, 58, 63
1, 140887, Control_c, 0, 64, 101
1, 140902, Control_c, 0, 64, 127
1, 140961, Note_on_c, 0, 85, 58
1, 141074, Note_on_c, 0, 42, 48
1, 141095, Control_c, 0, 64, 98
1, 141109, Note_off_c, 0, 85, 58
1, 141110, Control_c, 0, 64, 74
1, 141124, Control_c, 0, 64, 57
1, 141128, Note_on_c, 0, 89, 57
1, 141139, Control_c, 0, 64, 18
1, 141147, Note_on_c, 0, 77, 48
1, 141154, Control_c, 0, 64, 26
1, 141169, Control_c, 0, 64, 38
1, 141184, Control_c, 0, 64, 51
1, 141198, Control_c, 0, 64, 60
1, 141209, Note_off_c, 0, 42, 61
1, 141213, Control_c, 0, 64, 66
1, 141228, Control_c, 0, 64, 76
1, 141243, Control_c, 0, 64, 95
1, 141257, Control_c, 0, 64, 127
1, 141273, Note_off_c, 0, 77, 52
1, 141294, Note_off_c, 0, 89, 56
1, 141415, Note_on_c, 0, 63, 42
1, 141423, Note_on_c, 0, 58, 38
1, 141441, Note_on_c, 0, 54, 35
1, 141475, Note_off_c, 0, 63, 53
1, 141480, Note_off_c, 0, 58, 53
1, 141489, Note_off_c, 0, 54, 49
1, 141611, Note_on_c, 0, 57, 42
1, 141613, Note_on_c, 0, 63, 38
1, 141625, Note_on_c, 0, 54, 11
1, 141630, Note_on_c, 0, 87, 61
1, 141646, Note_on_c, 0, 75, 49
1, 141663, Note_off_c, 0, 57, 60
1, 141667, Note_off_c, 0, 63, 58
1, 141675, Note_off_c, 0, 54, 48
1, 141703, Note_off_c, 0, 75, 59
1, 141706, Note_off_c, 0, 87, 64
1, 141781, Note_on_c, 0, 87, 69
1, 141797, Note_on_c, 0, 63, 44
1, 141799, Control_c, 0, 64, 88
1, 141806, Note_on_c, 0, 54, 35
1, 141810, Note_on_c, 0, 58, 45
1, 141813, Note_on_c, 0, 75, 58
1, 141814, Control_c, 0, 64, 73
1, 141828, Control_c, 0, 64, 65
1, 141843, Control_c, 0, 64, 64
1, 141858, Control_c, 0, 64, 69
1, 141864, Note_off_c, 0, 63, 52
1, 141873, Control_c, 0, 64, 76
1, 141885, Note_off_c, 0, 54, 39
1, 141888, Control_c, 0, 64, 93
1, 141893, Note_off_c, 0, 87, 63
1, 141895, Note_off_c, 0, 75, 62
1, 141901, Note_off_c, 0, 58, 52
1, 141903, Control_c, 0, 64, 127
1, 141976, Note_on_c, 0, 85, 83
1, 141977, Control_c, 0, 64, 89
1, 141986, Note_on_c, 0, 65, 55
1, 141991, Control_c, 0, 64, 74
1, 141994, Note_on_c, 0, 73, 69
1, 141995, Note_on_c, 0, 54, 47
1, 142002, Note_on_c, 0, 58, 16
1, 142006, Control_c, 0, 64, 67
1, 142021, Control_c, 0, 64, 69
1, 142025, Note_off_c, 0, 65, 63
1, 142036, Control_c, 0, 64, 74
1, 142051, Control_c, 0, 64, 84
1, 142058, Note_off_c, 0, 54, 55
1, 142066, Control_c, 0, 64, 100
1, 142067, Note_off_c, 0, 58, 49
1, 142080, Control_c, 0, 64, 121
1, 142089, Note_off_c, 0, 85, 65
1, 142095, Control_c, 0, 64, 111
1, 142104, Note_off_c, 0, 73, 61
1, 142110, Control_c, 0, 64, 92
1, 142125, Control_c, 0, 64, 78
1, 142140, Control_c, 0, 64, 67
1, 142154, Note_on_c, 0, 84, 81
1, 142154, Control_c, 0, 64, 63
1, 142155, Note_on_c, 0, 54, 45
1, 142156, Note_on_c, 0, 63, 53
1, 142166, Note_on_c, 0, 58, 17
1, 142168, Note_on_c, 0, 72, 65
1, 142169, Control_c, 0, 64, 66
1, 142184, Control_c, 0, 64, 70
1, 142189, Note_off_c, 0, 63, 65
1, 142194, Note_off_c, 0, 58, 55
1, 142198, Control_c, 0, 64, 76
1, 142201, Note_off_c, 0, 54, 62
1, 142213, Control_c, 0, 64, 84
1, 142228, Control_c, 0, 64, 101
1, 142235, Note_off_c, 0, 72, 59
1, 142243, Control_c, 0, 64, 127
1, 142251, Note_off_c, 0, 84, 59
1, 142326, Control_c, 0, 64, 101
1, 142341, Control_c, 0, 64, 74
1, 142355, Note_on_c, 0, 41, 53
1, 142356, Control_c, 0, 64, 52
1, 142357, Note_on_c, 0, 82, 70
1, 142371, Control_c, 0, 64, 27
1, 142381, Note_on_c, 0, 70, 61
1, 142385, Control_c, 0, 64, 44
1, 142400, Control_c, 0, 64, 56
1, 142407, Note_off_c, 0, 41, 63
1, 142415, Control_c, 0, 64, 63
1, 142430, Control_c, 0, 64, 70
1, 142445, Control_c, 0, 64, 89
1, 142459, Control_c, 0, 64, 127
1, 142550, Note_on_c, 0, 61, 62
1, 142572, Note_on_c, 0, 58, 52
1, 142579, Note_on_c, 0, 53, 41
1, 142605, Note_off_c, 0, 82, 64
1, 142635, Note_off_c, 0, 61, 58
1, 142636, Note_off_c, 0, 58, 53
1, 142642, Note_off_c, 0, 53, 55
1, 142648, Note_off_c, 0, 70, 61
1, 142717, Note_on_c, 0, 81, 75
1, 142729, Note_on_c, 0, 60, 58
1, 142731, Note_on_c, 0, 69, 65
1, 142734, Note_on_c, 0, 58, 45
1, 142755, Note_on_c, 0, 53, 43
1, 142776, Note_off_c, 0, 60, 63
1, 142781, Note_off_c, 0, 69, 61
1, 142790, Note_off_c, 0, 58, 59
1, 142806, Note_off_c, 0, 53, 56
1, 142892, Note_on_c, 0, 82, 77
1, 142901, Note_on_c, 0, 61, 64
1, 142903, Control_c, 0, 64, 97
1, 142906, Note_on_c, 0, 70, 65
1, 142918, Control_c, 0, 64, 77
1, 142919, Note_on_c, 0, 58, 56
1, 142922, Note_off_c, 0, 81, 63
1, 142925, Note_on_c, 0, 53, 51
1, 142933, Control_c, 0, 64, 65
1, 142948, Control_c, 0, 64, 57
1, 142963, Control_c, 0, 64, 59
1, 142977, Control_c, 0, 64, 63
1, 142984, Note_off_c, 0, 53, 55
1, 142986, Note_off_c, 0, 70, 63
1, 142992, Control_c, 0, 64, 66
1, 142997, Note_off_c, 0, 61, 62
1, 143007, Control_c, 0, 64, 73
1, 143015, Note_off_c, 0, 58, 59
1, 143021, Control_c, 0, 64, 93
1, 143033, Note_off_c, 0, 82, 61
1, 143036, Control_c, 0, 64, 127
1, 143091, Note_on_c, 0, 85, 83
1, 143102, Note_on_c, 0, 63, 67
1, 143104, Control_c, 0, 64, 90
1, 143107, Note_on_c, 0, 73, 69
1, 143119, Note_on_c, 0, 53, 52
1, 143119, Control_c, 0, 64, 74
1, 143134, Control_c, 0, 64, 64
1, 143142, Note_on_c, 0, 58, 46
1, 143149, Control_c, 0, 64, 59
1, 143164, Control_c, 0, 64, 63
1, 143175, Note_off_c, 0, 53, 55
1, 143179, Control_c, 0, 64, 68
1, 143191, Note_off_c, 0, 58, 58
1, 143193, Control_c, 0, 64, 80
1, 143208, Control_c, 0, 64, 127
1, 143208, Note_off_c, 0, 63, 59
1, 143221, Note_off_c, 0, 85, 65
1, 143229, Note_off_c, 0, 73, 64
1, 143267, Control_c, 0, 64, 107
1, 143282, Control_c, 0, 64, 79
1, 143290, Note_on_c, 0, 84, 84
1, 143297, Control_c, 0, 64, 66
1, 143299, Note_on_c, 0, 64, 61
1, 143302, Note_on_c, 0, 72, 66
1, 143308, Note_on_c, 0, 58, 56
1, 143312, Control_c, 0, 64, 64
1, 143313, Note_on_c, 0, 53, 55
1, 143326, Control_c, 0, 64, 68
1, 143335, Note_off_c, 0, 64, 65
1, 143341, Control_c, 0, 64, 74
1, 143354, Note_off_c, 0, 58, 63
1, 143356, Control_c, 0, 64, 88
1, 143361, Note_off_c, 0, 53, 62
1, 143371, Control_c, 0, 64, 127
1, 143412, Note_off_c, 0, 84, 58
1, 143419, Note_off_c, 0, 72, 55
1, 143519, Note_on_c, 0, 41, 65
1, 143534, Control_c, 0, 64, 81
1, 143549, Control_c, 0, 64, 62
1, 143564, Control_c, 0, 64, 17
1, 143570, Note_on_c, 0, 84, 77
1, 143579, Control_c, 0, 64, 39
1, 143580, Note_on_c, 0, 72, 61
1, 143593, Control_c, 0, 64, 57
1, 143608, Control_c, 0, 64, 65
1, 143623, Control_c, 0, 64, 77
1, 143632, Note_off_c, 0, 41, 63
1, 143638, Control_c, 0, 64, 127
1, 143839, Note_on_c, 0, 65, 55
1, 143852, Note_on_c, 0, 57, 49
1, 143888, Note_on_c, 0, 53, 38
1, 143911, Note_off_c, 0, 65, 61
1, 143925, Note_off_c, 0, 53, 52
1, 143930, Note_off_c, 0, 57, 60
1, 143998, Note_on_c, 0, 64, 72
1, 144016, Note_on_c, 0, 57, 49
1, 144022, Note_on_c, 0, 53, 50
1, 144059, Note_off_c, 0, 53, 60
1, 144066, Note_off_c, 0, 64, 63
1, 144076, Note_off_c, 0, 57, 58
1, 144150, Note_on_c, 0, 65, 76
1, 144165, Note_on_c, 0, 53, 57
1, 144170, Note_on_c, 0, 57, 55
1, 144211, Note_off_c, 0, 65, 62
1, 144221, Note_off_c, 0, 53, 57
1, 144276, Note_off_c, 0, 57, 0
1, 144299, Note_on_c, 0, 66, 72
1, 144307, Note_on_c, 0, 57, 18
1, 144330, Note_on_c, 0, 53, 45
1, 144362, Note_off_c, 0, 53, 57
1, 144374, Note_off_c, 0, 57, 61
1, 144384, Note_on_c, 0, 77, 73
1, 144407, Note_off_c, 0, 66, 58
1, 144475, Note_off_c, 0, 72, 55
1, 144489, Note_on_c, 0, 65, 63
1, 144490, Control_c, 0, 64, 86
1, 144499, Note_off_c, 0, 84, 59
1, 144500, Note_on_c, 0, 57, 57
1, 144502, Note_on_c, 0, 53, 49
1, 144505, Control_c, 0, 64, 71
1, 144520, Control_c, 0, 64, 63
1, 144557, Control_c, 0, 64, 65
1, 144561, Note_off_c, 0, 65, 63
1, 144565, Note_off_c, 0, 53, 53
1, 144572, Control_c, 0, 64, 68
1, 144587, Control_c, 0, 64, 72
1, 144594, Note_off_c, 0, 57, 65
1, 144601, Control_c, 0, 64, 81
1, 144616, Control_c, 0, 64, 100
1, 144631, Control_c, 0, 64, 127
1, 144656, Note_off_c, 0, 77, 59
1, 144741, Note_on_c, 0, 46, 53
1, 144766, Control_c, 0, 64, 108
1, 144780, Control_c, 0, 64, 77
1, 144795, Control_c, 0, 64, 61
1, 144803, Note_on_c, 0, 85, 67
1, 144810, Control_c, 0, 64, 34
1, 144818, Note_on_c, 0, 77, 44
1, 144825, Control_c, 0, 64, 33
1, 144831, Note_on_c, 0, 73, 47
1, 144839, Control_c, 0, 64, 44
1, 144854, Control_c, 0, 64, 54
1, 144869, Control_c, 0, 64, 62
1, 144884, Control_c, 0, 64, 67
1, 144894, Note_off_c, 0, 46, 60
1, 144898, Control_c, 0, 64, 76
1, 144913, Control_c, 0, 64, 96
1, 144928, Control_c, 0, 64, 127
1, 145074, Note_on_c, 0, 65, 48
1, 145097, Note_on_c, 0, 61, 38
1, 145101, Note_on_c, 0, 58, 31
1, 145140, Note_off_c, 0, 58, 51
1, 145149, Note_off_c, 0, 61, 54
1, 145226, Note_on_c, 0, 64, 64
1, 145238, Note_on_c, 0, 61, 42
1, 145242, Note_off_c, 0, 73, 37
1, 145246, Note_on_c, 0, 58, 48
1, 145249, Note_off_c, 0, 65, 47
1, 145263, Note_off_c, 0, 85, 54
1, 145285, Note_off_c, 0, 58, 62
1, 145305, Note_off_c, 0, 61, 53
1, 145335, Note_off_c, 0, 77, 36
1, 145378, Note_on_c, 0, 65, 69
1, 145383, Note_on_c, 0, 61, 50
1, 145390, Note_on_c, 0, 58, 52
1, 145401, Note_off_c, 0, 64, 57
1, 145433, Note_off_c, 0, 58, 60
1, 145447, Note_off_c, 0, 61, 56
1, 145528, Note_on_c, 0, 66, 60
1, 145531, Note_off_c, 0, 65, 55
1, 145542, Note_on_c, 0, 61, 38
1, 145545, Note_on_c, 0, 58, 47
1, 145587, Note_off_c, 0, 58, 60
1, 145590, Note_on_c, 0, 85, 87
1, 145595, Note_off_c, 0, 61, 55
1, 145596, Note_on_c, 0, 77, 65
1, 145609, Note_on_c, 0, 73, 65
1, 145682, Note_off_c, 0, 66, 50
1, 145689, Note_on_c, 0, 65, 64
1, 145692, Note_on_c, 0, 58, 61
1, 145712, Note_on_c, 0, 61, 56
1, 145728, Note_off_c, 0, 65, 63
1, 145745, Note_off_c, 0, 61, 64
1, 145754, Note_off_c, 0, 77, 58
1, 145756, Note_off_c, 0, 58, 63
1, 145819, Note_off_c, 0, 85, 64
1, 145858, Note_off_c, 0, 73, 64
1, 145884, Control_c, 0, 64, 118
1, 145885, Note_on_c, 0, 49, 64
1, 145899, Control_c, 0, 64, 80
1, 145914, Control_c, 0, 64, 64
1, 145918, Note_on_c, 0, 84, 88
1, 145928, Control_c, 0, 64, 48
1, 145931, Note_on_c, 0, 77, 55
1, 145936, Note_on_c, 0, 72, 67
1, 145958, Control_c, 0, 64, 54
1, 145973, Control_c, 0, 64, 59
1, 145988, Control_c, 0, 64, 63
1, 146002, Control_c, 0, 64, 68
1, 146016, Note_off_c, 0, 49, 63
1, 146017, Control_c, 0, 64, 80
1, 146032, Control_c, 0, 64, 127
1, 146145, Note_on_c, 0, 65, 67
1, 146158, Note_on_c, 0, 61, 59
1, 146206, Note_off_c, 0, 61, 56
1, 146242, Note_off_c, 0, 72, 59
1, 146291, Note_on_c, 0, 64, 75
1, 146307, Note_off_c, 0, 65, 53
1, 146311, Note_on_c, 0, 61, 63
1, 146323, Note_off_c, 0, 84, 56
1, 146380, Note_off_c, 0, 61, 50
1, 146433, Note_on_c, 0, 82, 83
1, 146444, Note_on_c, 0, 65, 66
1, 146449, Note_on_c, 0, 70, 71
1, 146455, Note_on_c, 0, 61, 46
1, 146475, Note_off_c, 0, 64, 56
1, 146484, Control_c, 0, 64, 98
1, 146499, Control_c, 0, 64, 85
1, 146514, Control_c, 0, 64, 84
1, 146522, Note_off_c, 0, 61, 58
1, 146529, Control_c, 0, 64, 92
1, 146544, Control_c, 0, 64, 127
1, 146556, Note_off_c, 0, 77, 53
1, 146577, Note_off_c, 0, 70, 60
1, 146599, Note_off_c, 0, 82, 62
1, 146607, Note_off_c, 0, 65, 61
1, 146608, Note_on_c, 0, 66, 70
1, 146630, Note_on_c, 0, 61, 56
1, 146633, Control_c, 0, 64, 97
1, 146648, Control_c, 0, 64, 83
1, 146662, Control_c, 0, 64, 79
1, 146665, Note_off_c, 0, 61, 62
1, 146677, Control_c, 0, 64, 81
1, 146678, Note_on_c, 0, 82, 91
1, 146686, Note_on_c, 0, 70, 79
1, 146686, Note_on_c, 0, 77, 65
1, 146692, Control_c, 0, 64, 86
1, 146707, Control_c, 0, 64, 96
1, 146722, Control_c, 0, 64, 127
1, 146770, Note_on_c, 0, 65, 77
1, 146774, Note_on_c, 0, 61, 77
1, 146779, Note_off_c, 0, 66, 32
1, 146815, Note_off_c, 0, 65, 58
1, 146835, Note_off_c, 0, 61, 62
1, 146845, Note_off_c, 0, 70, 61
1, 146854, Note_off_c, 0, 82, 59
1, 146863, Note_off_c, 0, 77, 58
1, 146973, Note_on_c, 0, 48, 75
1, 146981, Control_c, 0, 64, 118
1, 146996, Control_c, 0, 64, 81
1, 147011, Control_c, 0, 64, 61
1, 147014, Note_on_c, 0, 82, 78
1, 147021, Note_on_c, 0, 77, 52
1, 147025, Control_c, 0, 64, 36
1, 147026, Note_on_c, 0, 70, 68
1, 147040, Control_c, 0, 64, 30
1, 147055, Control_c, 0, 64, 38
1, 147069, Control_c, 0, 64, 51
1, 147084, Control_c, 0, 64, 61
1, 147100, Control_c, 0, 64, 71
1, 147105, Note_off_c, 0, 48, 64
1, 147115, Control_c, 0, 64, 95
1, 147130, Control_c, 0, 64, 127
1, 147208, Note_off_c, 0, 77, 61
1, 147220, Note_off_c, 0, 82, 63
1, 147228, Note_on_c, 0, 65, 72
1, 147248, Note_on_c, 0, 60, 54
1, 147257, Note_on_c, 0, 63, 59
1, 147257, Note_off_c, 0, 70, 62
1, 147298, Note_off_c, 0, 60, 59
1, 147335, Note_off_c, 0, 63, 57
1, 147379, Note_on_c, 0, 64, 71
1, 147394, Note_on_c, 0, 81, 88
1, 147399, Note_on_c, 0, 69, 83
1, 147399, Note_off_c, 0, 65, 56
1, 147400, Note_on_c, 0, 60, 49
1, 147441, Note_off_c, 0, 60, 59
1, 147448, Note_off_c, 0, 69, 63
1, 147483, Note_off_c, 0, 81, 67
1, 147562, Note_on_c, 0, 65, 77
1, 147567, Note_on_c, 0, 63, 67
1, 147571, Note_on_c, 0, 84, 96
1, 147575, Note_on_c, 0, 72, 89
1, 147582, Control_c, 0, 64, 92
1, 147588, Note_off_c, 0, 64, 55
1, 147592, Note_on_c, 0, 60, 50
1, 147597, Control_c, 0, 64, 74
1, 147612, Control_c, 0, 64, 65
1, 147626, Control_c, 0, 64, 64
1, 147641, Control_c, 0, 64, 70
1, 147647, Note_off_c, 0, 72, 59
1, 147656, Control_c, 0, 64, 87
1, 147657, Note_off_c, 0, 60, 51
1, 147671, Note_off_c, 0, 84, 66
1, 147671, Control_c, 0, 64, 127
1, 147676, Note_off_c, 0, 63, 59
1, 147745, Control_c, 0, 64, 116
1, 147760, Control_c, 0, 64, 80
1, 147766, Note_on_c, 0, 87, 103
1, 147769, Note_on_c, 0, 63, 84
1, 147769, Note_on_c, 0, 75, 95
1, 147775, Note_on_c, 0, 60, 73
1, 147775, Control_c, 0, 64, 66
1, 147790, Control_c, 0, 64, 60
1, 147793, Note_off_c, 0, 65, 61
1, 147805, Control_c, 0, 64, 63
1, 147820, Control_c, 0, 64, 68
1, 147835, Control_c, 0, 64, 78
1, 147849, Control_c, 0, 64, 127
1, 147853, Note_off_c, 0, 75, 61
1, 147885, Note_off_c, 0, 87, 64
1, 147897, Note_off_c, 0, 60, 57
1, 147925, Note_off_c, 0, 63, 58
1, 147982, Control_c, 0, 64, 86
1, 147984, Note_on_c, 0, 90, 99
1, 147990, Note_on_c, 0, 78, 93
1, 147992, Note_on_c, 0, 84, 60
1, 147994, Note_on_c, 0, 66, 70
1, 147996, Control_c, 0, 64, 68
1, 147998, Note_on_c, 0, 87, 70
1, 147999, Note_on_c, 0, 60, 60
1, 148011, Control_c, 0, 64, 53
1, 148014, Note_on_c, 0, 63, 60
1, 148026, Control_c, 0, 64, 44
1, 148041, Control_c, 0, 64, 53
1, 148056, Control_c, 0, 64, 61
1, 148070, Control_c, 0, 64, 66
1, 148085, Control_c, 0, 64, 77
1, 148100, Control_c, 0, 64, 127
1, 148102, Note_off_c, 0, 63, 63
1, 148102, Note_off_c, 0, 66, 63
1, 148109, Note_off_c, 0, 60, 64
1, 148154, Note_off_c, 0, 87, 55
1, 148217, Note_off_c, 0, 84, 57
1, 148238, Note_off_c, 0, 90, 61
1, 148278, Note_off_c, 0, 78, 58
1, 148312, Note_on_c, 0, 45, 65
1, 148359, Control_c, 0, 64, 87
1, 148365, Note_on_c, 0, 89, 92
1, 148374, Note_on_c, 0, 77, 82
1, 148374, Control_c, 0, 64, 65
1, 148383, Note_on_c, 0, 84, 56
1, 148386, Note_on_c, 0, 87, 60
1, 148389, Control_c, 0, 64, 39
1, 148404, Control_c, 0, 64, 17
1, 148419, Control_c, 0, 64, 30
1, 148434, Control_c, 0, 64, 45
1, 148448, Control_c, 0, 64, 57
1, 148463, Control_c, 0, 64, 66
1, 148478, Control_c, 0, 64, 78
1, 148493, Control_c, 0, 64, 127
1, 148502, Note_off_c, 0, 45, 62
1, 148680, Note_on_c, 0, 65, 68
1, 148695, Note_on_c, 0, 60, 51
1, 148736, Note_on_c, 0, 57, 29
1, 148770, Note_off_c, 0, 60, 58
1, 148774, Note_off_c, 0, 57, 46
1, 148843, Note_on_c, 0, 64, 71
1, 148855, Note_on_c, 0, 60, 48
1, 148866, Note_off_c, 0, 65, 58
1, 148871, Note_on_c, 0, 57, 47
1, 148903, Note_off_c, 0, 57, 64
1, 148919, Note_off_c, 0, 60, 56
1, 148970, Note_off_c, 0, 89, 53
1, 148988, Note_on_c, 0, 65, 72
1, 148992, Note_off_c, 0, 77, 55
1, 149012, Note_on_c, 0, 57, 46
1, 149015, Note_on_c, 0, 60, 42
1, 149015, Note_off_c, 0, 64, 63
1, 149058, Note_off_c, 0, 57, 63
1, 149063, Note_off_c, 0, 87, 50
1, 149064, Note_off_c, 0, 60, 60
1, 149084, Note_off_c, 0, 65, 60
1, 149102, Note_off_c, 0, 84, 64
1, 149156, Note_on_c, 0, 66, 56
1, 149158, Note_on_c, 0, 57, 43
1, 149169, Note_on_c, 0, 60, 51
1, 149203, Note_off_c, 0, 57, 61
1, 149235, Note_off_c, 0, 66, 58
1, 149240, Note_on_c, 0, 87, 77
1, 149257, Note_on_c, 0, 75, 61
1, 149324, Note_off_c, 0, 60, 0
1, 149336, Note_on_c, 0, 65, 50
1, 149339, Note_on_c, 0, 57, 45
1, 149361, Poly_aftertouch_c, 0, 60, 127
1, 149376, Note_off_c, 0, 65, 64
1, 149396, Note_off_c, 0, 57, 64
1, 149397, Poly_aftertouch_c, 0, 60, 0
1, 149463, Note_off_c, 0, 75, 57
1, 149480, Note_off_c, 0, 87, 56
1, 149589, Note_on_c, 0, 46, 50
1, 149598, Control_c, 0, 64, 97
1, 149613, Control_c, 0, 64, 73
1, 149628, Control_c, 0, 64, 60
1, 149637, Note_on_c, 0, 87, 59
1, 149642, Control_c, 0, 64, 44
1, 149657, Control_c, 0, 64, 45
1, 149662, Note_on_c, 0, 75, 47
1, 149672, Control_c, 0, 64, 51
1, 149686, Control_c, 0, 64, 58
1, 149701, Control_c, 0, 64, 64
1, 149716, Control_c, 0, 64, 71
1, 149717, Note_off_c, 0, 46, 62
1, 149731, Control_c, 0, 64, 87
1, 149746, Control_c, 0, 64, 127
1, 149850, Note_off_c, 0, 87, 53
1, 149874, Note_on_c, 0, 65, 50
1, 149880, Note_off_c, 0, 75, 40
1, 149889, Note_on_c, 0, 58, 35
1, 149910, Note_on_c, 0, 61, 27
1, 149927, Note_off_c, 0, 58, 50
1, 149948, Note_off_c, 0, 61, 49
1, 150032, Note_off_c, 0, 65, 51
1, 150038, Note_on_c, 0, 64, 45
1, 150041, Note_on_c, 0, 58, 46
1, 150060, Note_on_c, 0, 85, 74
1, 150067, Note_on_c, 0, 61, 46
1, 150079, Note_on_c, 0, 73, 58
1, 150089, Note_off_c, 0, 58, 58
1, 150115, Note_off_c, 0, 61, 57
1, 150142, Note_off_c, 0, 73, 64
1, 150157, Note_off_c, 0, 85, 66
1, 150223, Note_on_c, 0, 82, 82
1, 150234, Note_on_c, 0, 58, 37
1, 150237, Note_on_c, 0, 65, 50
1, 150240, Note_on_c, 0, 70, 62
1, 150242, Control_c, 0, 64, 104
1, 150243, Note_off_c, 0, 64, 56
1, 150252, Note_on_c, 0, 61, 44
1, 150257, Control_c, 0, 64, 81
1, 150272, Control_c, 0, 64, 70
1, 150288, Control_c, 0, 64, 66
1, 150303, Control_c, 0, 64, 71
1, 150306, Note_off_c, 0, 58, 58
1, 150310, Note_off_c, 0, 61, 54
1, 150317, Control_c, 0, 64, 80
1, 150319, Note_off_c, 0, 70, 64
1, 150332, Control_c, 0, 64, 104
1, 150347, Control_c, 0, 64, 127
1, 150402, Note_on_c, 0, 84, 91
1, 150406, Control_c, 0, 64, 116
1, 150414, Note_on_c, 0, 72, 71
1, 150421, Note_on_c, 0, 66, 54
1, 150421, Control_c, 0, 64, 86
1, 150427, Note_on_c, 0, 61, 38
1, 150428, Note_off_c, 0, 65, 53
1, 150436, Note_on_c, 0, 58, 47
1, 150436, Control_c, 0, 64, 69
1, 150438, Note_off_c, 0, 82, 63
1, 150451, Control_c, 0, 64, 62
1, 150465, Control_c, 0, 64, 63
1, 150474, Note_off_c, 0, 72, 62
1, 150480, Control_c, 0, 64, 68
1, 150484, Note_off_c, 0, 58, 60
1, 150495, Control_c, 0, 64, 78
1, 150502, Note_off_c, 0, 61, 51
1, 150509, Control_c, 0, 64, 105
1, 150524, Control_c, 0, 64, 127
1, 150577, Control_c, 0, 64, 115
1, 150591, Control_c, 0, 64, 81
1, 150593, Note_on_c, 0, 85, 84
1, 150598, Note_on_c, 0, 65, 50
1, 150606, Control_c, 0, 64, 64
1, 150610, Note_on_c, 0, 58, 53
1, 150619, Note_off_c, 0, 84, 64
1, 150621, Control_c, 0, 64, 44
1, 150622, Note_on_c, 0, 73, 68
1, 150630, Note_on_c, 0, 61, 27
1, 150636, Control_c, 0, 64, 51
1, 150643, Note_off_c, 0, 66, 58
1, 150651, Control_c, 0, 64, 60
1, 150665, Control_c, 0, 64, 66
1, 150667, Note_off_c, 0, 61, 62
1, 150680, Note_off_c, 0, 65, 61
1, 150680, Control_c, 0, 64, 79
1, 150681, Note_off_c, 0, 58, 64
1, 150695, Control_c, 0, 64, 127
1, 150761, Note_off_c, 0, 85, 62
1, 150794, Note_off_c, 0, 73, 62
1, 150811, Note_on_c, 0, 52, 53
1, 150813, Control_c, 0, 64, 92
1, 150828, Control_c, 0, 64, 68
1, 150843, Control_c, 0, 64, 42
1, 150854, Note_on_c, 0, 84, 67
1, 150857, Control_c, 0, 64, 0
1, 150870, Note_on_c, 0, 72, 55
1, 150872, Control_c, 0, 64, 35
1, 150887, Control_c, 0, 64, 51
1, 150902, Control_c, 0, 64, 61
1, 150917, Control_c, 0, 64, 71
1, 150925, Note_off_c, 0, 52, 65
1, 150932, Control_c, 0, 64, 87
1, 150947, Control_c, 0, 64, 127
1, 151008, Note_off_c, 0, 72, 59
1, 151024, Note_off_c, 0, 84, 58
1, 151057, Note_on_c, 0, 60, 44
1, 151059, Note_on_c, 0, 67, 46
1, 151066, Note_on_c, 0, 58, 43
1, 151117, Note_off_c, 0, 67, 52
1, 151126, Note_off_c, 0, 58, 54
1, 151209, Note_off_c, 0, 60, 59
1, 151232, Note_on_c, 0, 82, 68
1, 151250, Note_on_c, 0, 61, 41
1, 151253, Note_on_c, 0, 70, 52
1, 151266, Note_on_c, 0, 67, 36
1, 151269, Note_on_c, 0, 58, 21
1, 151310, Note_off_c, 0, 70, 58
1, 151323, Note_off_c, 0, 58, 47
1, 151342, Note_off_c, 0, 67, 50
1, 151368, Note_off_c, 0, 82, 58
1, 151463, Note_on_c, 0, 85, 61
1, 151474, Control_c, 0, 64, 107
1, 151474, Note_on_c, 0, 58, 30
1, 151488, Note_on_c, 0, 67, 27
1, 151488, Control_c, 0, 64, 85
1, 151491, Note_on_c, 0, 73, 43
1, 151503, Control_c, 0, 64, 71
1, 151518, Control_c, 0, 64, 63
1, 151532, Control_c, 0, 64, 57
1, 151547, Control_c, 0, 64, 61
1, 151562, Control_c, 0, 64, 64
1, 151577, Control_c, 0, 64, 67
1, 151585, Note_off_c, 0, 58, 57
1, 151589, Note_off_c, 0, 61, 26
1, 151592, Note_off_c, 0, 67, 52
1, 151592, Control_c, 0, 64, 74
1, 151607, Control_c, 0, 64, 90
1, 151608, Note_off_c, 0, 85, 63
1, 151621, Control_c, 0, 64, 127
1, 151632, Note_off_c, 0, 73, 56
1, 151695, Control_c, 0, 64, 97
1, 151710, Control_c, 0, 64, 78
1, 151713, Note_on_c, 0, 84, 63
1, 151715, Note_on_c, 0, 60, 35
1, 151725, Control_c, 0, 64, 66
1, 151726, Note_on_c, 0, 58, 35
1, 151730, Note_on_c, 0, 67, 26
1, 151734, Note_on_c, 0, 72, 42
1, 151740, Control_c, 0, 64, 60
1, 151755, Control_c, 0, 64, 62
1, 151770, Control_c, 0, 64, 65
1, 151784, Control_c, 0, 64, 68
1, 151788, Note_off_c, 0, 58, 56
1, 151792, Note_off_c, 0, 84, 60
1, 151793, Note_off_c, 0, 72, 58
1, 151796, Note_off_c, 0, 67, 53
1, 151799, Control_c, 0, 64, 73
1, 151814, Control_c, 0, 64, 84
1, 151829, Control_c, 0, 64, 110
1, 151844, Control_c, 0, 64, 127
1, 151919, Control_c, 0, 64, 89
1, 151934, Control_c, 0, 64, 69
1, 151939, Note_on_c, 0, 82, 56
1, 151946, Note_on_c, 0, 67, 31
1, 151948, Note_on_c, 0, 58, 34
1, 151948, Control_c, 0, 64, 60
1, 151952, Note_on_c, 0, 61, 34
1, 151961, Note_off_c, 0, 60, 30
1, 151963, Control_c, 0, 64, 59
1, 151972, Note_on_c, 0, 70, 38
1, 151978, Control_c, 0, 64, 63
1, 151993, Control_c, 0, 64, 65
1, 152002, Note_off_c, 0, 58, 60
1, 152008, Control_c, 0, 64, 69
1, 152009, Note_off_c, 0, 67, 51
1, 152017, Note_off_c, 0, 61, 59
1, 152023, Control_c, 0, 64, 79
1, 152044, Control_c, 0, 64, 99
1, 152059, Control_c, 0, 64, 127
1, 152074, Note_off_c, 0, 82, 59
1, 152075, Note_off_c, 0, 70, 56
1, 152225, Note_on_c, 0, 53, 37
1, 152252, Control_c, 0, 64, 92
1, 152267, Control_c, 0, 64, 72
1, 152270, Note_on_c, 0, 78, 46
1, 152282, Control_c, 0, 64, 59
1, 152291, Note_on_c, 0, 66, 30
1, 152296, Control_c, 0, 64, 41
1, 152311, Control_c, 0, 64, 44
1, 152326, Control_c, 0, 64, 51
1, 152341, Control_c, 0, 64, 56
1, 152355, Control_c, 0, 64, 61
1, 152370, Control_c, 0, 64, 65
1, 152385, Control_c, 0, 64, 72
1, 152400, Control_c, 0, 64, 91
1, 152415, Control_c, 0, 64, 127
1, 152471, Note_off_c, 0, 78, 59
1, 152473, Note_on_c, 0, 61, 36
1, 152479, Note_on_c, 0, 58, 38
1, 152512, Note_off_c, 0, 66, 39
1, 152528, Note_off_c, 0, 61, 54
1, 152535, Note_off_c, 0, 58, 56
1, 152652, Note_on_c, 0, 61, 32
1, 152658, Note_off_c, 0, 53, 38
1, 152671, Note_on_c, 0, 58, 28
1, 152717, Note_on_c, 0, 77, 57
1, 152738, Note_on_c, 0, 65, 36
1, 152768, Note_off_c, 0, 77, 54
1, 152783, Note_off_c, 0, 65, 50
1, 152827, Note_off_c, 0, 61, 30
1, 152867, Control_c, 0, 64, 92
1, 152868, Note_on_c, 0, 53, 37
1, 152882, Control_c, 0, 64, 72
1, 152890, Note_off_c, 0, 58, 35
1, 152895, Note_on_c, 0, 65, 39
1, 152896, Note_on_c, 0, 77, 51
1, 152897, Control_c, 0, 64, 60
1, 152911, Control_c, 0, 64, 53
1, 152926, Control_c, 0, 64, 59
1, 152941, Control_c, 0, 64, 62
1, 152956, Control_c, 0, 64, 65
1, 152957, Note_off_c, 0, 65, 61
1, 152971, Control_c, 0, 64, 71
1, 152986, Control_c, 0, 64, 81
1, 153001, Control_c, 0, 64, 100
1, 153016, Control_c, 0, 64, 127
1, 153093, Note_on_c, 0, 78, 59
1, 153111, Note_on_c, 0, 60, 27
1, 153111, Note_on_c, 0, 57, 34
1, 153113, Note_off_c, 0, 77, 44
1, 153117, Note_on_c, 0, 66, 44
1, 153164, Note_off_c, 0, 57, 56
1, 153168, Note_off_c, 0, 60, 51
1, 153203, Note_off_c, 0, 78, 58
1, 153217, Note_off_c, 0, 66, 48
1, 153275, Note_off_c, 0, 53, 37
1, 153291, Note_on_c, 0, 77, 63
1, 153300, Note_on_c, 0, 60, 32
1, 153306, Note_on_c, 0, 57, 45
1, 153310, Note_on_c, 0, 65, 47
1, 153335, Note_off_c, 0, 60, 59
1, 153336, Note_off_c, 0, 57, 64
1, 153343, Note_off_c, 0, 77, 60
1, 153350, Note_off_c, 0, 65, 64
1, 153505, Control_c, 0, 64, 100
1, 153520, Control_c, 0, 64, 78
1, 153531, Note_on_c, 0, 70, 58
1, 153531, Note_on_c, 0, 46, 35
1, 153542, Control_c, 0, 64, 65
1, 153557, Control_c, 0, 64, 54
1, 153560, Note_on_c, 0, 58, 37
1, 153572, Control_c, 0, 64, 49
1, 153587, Control_c, 0, 64, 52
1, 153602, Control_c, 0, 64, 56
1, 153616, Control_c, 0, 64, 59
1, 153631, Control_c, 0, 64, 61
1, 153646, Control_c, 0, 64, 63
1, 153661, Control_c, 0, 64, 65
1, 153676, Control_c, 0, 64, 70
1, 153690, Control_c, 0, 64, 76
1, 153705, Control_c, 0, 64, 86
1, 153710, Note_off_c, 0, 46, 41
1, 153720, Control_c, 0, 64, 93
1, 153734, Control_c, 0, 64, 98
1, 153739, Note_on_c, 0, 53, 47
1, 153747, Note_on_c, 0, 49, 40
1, 153749, Control_c, 0, 64, 100
1, 153764, Control_c, 0, 64, 101
1, 153794, Control_c, 0, 64, 102
1, 153838, Control_c, 0, 64, 101
1, 153853, Control_c, 0, 64, 100
1, 153868, Control_c, 0, 64, 100
1, 153883, Control_c, 0, 64, 99
1, 153898, Control_c, 0, 64, 97
1, 153913, Control_c, 0, 64, 96
1, 153927, Control_c, 0, 64, 95
1, 153942, Control_c, 0, 64, 94
1, 153947, Note_on_c, 0, 51, 47
1, 153957, Control_c, 0, 64, 93
1, 153962, Note_on_c, 0, 48, 41
1, 153972, Control_c, 0, 64, 92
1, 153987, Control_c, 0, 64, 90
1, 153995, Note_off_c, 0, 49, 34
1, 154001, Control_c, 0, 64, 89
1, 154016, Control_c, 0, 64, 88
1, 154031, Control_c, 0, 64, 86
1, 154033, Note_off_c, 0, 53, 34
1, 154046, Control_c, 0, 64, 84
1, 154061, Control_c, 0, 64, 82
1, 154075, Control_c, 0, 64, 80
1, 154090, Control_c, 0, 64, 79
1, 154105, Control_c, 0, 64, 77
1, 154120, Control_c, 0, 64, 75
1, 154134, Control_c, 0, 64, 73
1, 154149, Control_c, 0, 64, 71
1, 154164, Control_c, 0, 64, 70
1, 154179, Control_c, 0, 64, 68
1, 154194, Control_c, 0, 64, 67
1, 154208, Control_c, 0, 64, 66
1, 154223, Control_c, 0, 64, 65
1, 154238, Control_c, 0, 64, 64
1, 154253, Control_c, 0, 64, 63
1, 154259, Note_on_c, 0, 49, 29
1, 154266, Note_on_c, 0, 46, 27
1, 154268, Control_c, 0, 64, 61
1, 154291, Control_c, 0, 64, 59
1, 154302, Note_off_c, 0, 48, 33
1, 154306, Control_c, 0, 64, 56
1, 154321, Control_c, 0, 64, 50
1, 154328, Note_off_c, 0, 51, 29
1, 154336, Control_c, 0, 64, 43
1, 154351, Control_c, 0, 64, 36
1, 154365, Control_c, 0, 64, 35
1, 154395, Control_c, 0, 64, 36
1, 154410, Control_c, 0, 64, 39
1, 154425, Control_c, 0, 64, 43
1, 154439, Control_c, 0, 64, 48
1, 154454, Control_c, 0, 64, 52
1, 154469, Control_c, 0, 64, 54
1, 154484, Control_c, 0, 64, 56
1, 154499, Control_c, 0, 64, 59
1, 154513, Control_c, 0, 64, 62
1, 154528, Control_c, 0, 64, 64
1, 154533, Note_off_c, 0, 58, 34
1, 154543, Control_c, 0, 64, 67
1, 154557, Control_c, 0, 64, 69
1, 154572, Control_c, 0, 64, 73
1, 154586, Note_off_c, 0, 70, 33
1, 154587, Control_c, 0, 64, 78
1, 154602, Control_c, 0, 64, 83
1, 154617, Control_c, 0, 64, 86
1, 154632, Control_c, 0, 64, 88
1, 154647, Control_c, 0, 64, 89
1, 154662, Control_c, 0, 64, 92
1, 154677, Control_c, 0, 64, 95
1, 154691, Control_c, 0, 64, 98
1, 154706, Control_c, 0, 64, 98
1, 154780, Control_c, 0, 64, 97
1, 154795, Control_c, 0, 64, 97
1, 154807, Note_off_c, 0, 49, 33
1, 154810, Control_c, 0, 64, 96
1, 154825, Control_c, 0, 64, 96
1, 154840, Control_c, 0, 64, 95
1, 154843, Note_off_c, 0, 46, 33
1, 154855, Control_c, 0, 64, 94
1, 154870, Control_c, 0, 64, 93
1, 154885, Control_c, 0, 64, 92
1, 154899, Control_c, 0, 64, 91
1, 154914, Control_c, 0, 64, 90
1, 154929, Control_c, 0, 64, 90
1, 154944, Control_c, 0, 64, 89
1, 154958, Control_c, 0, 64, 88
1, 154973, Control_c, 0, 64, 87
1, 154988, Control_c, 0, 64, 86
1, 155003, Control_c, 0, 64, 85
1, 155018, Control_c, 0, 64, 83
1, 155040, Control_c, 0, 64, 81
1, 155055, Control_c, 0, 64, 80
1, 155056, Note_on_c, 0, 73, 75
1, 155058, Note_on_c, 0, 61, 73
1, 155069, Control_c, 0, 64, 79
1, 155085, Control_c, 0, 64, 76
1, 155100, Control_c, 0, 64, 72
1, 155115, Control_c, 0, 64, 67
1, 155129, Control_c, 0, 64, 62
1, 155144, Control_c, 0, 64, 55
1, 155159, Control_c, 0, 64, 50
1, 155174, Control_c, 0, 64, 47
1, 155189, Control_c, 0, 64, 47
1, 155204, Control_c, 0, 64, 48
1, 155218, Control_c, 0, 64, 52
1, 155233, Control_c, 0, 64, 57
1, 155248, Control_c, 0, 64, 61
1, 155263, Control_c, 0, 64, 64
1, 155278, Control_c, 0, 64, 69
1, 155293, Control_c, 0, 64, 79
1, 155308, Control_c, 0, 64, 97
1, 155323, Control_c, 0, 64, 127
1, 155380, Note_off_c, 0, 61, 58
1, 155382, Note_off_c, 0, 73, 58
1, 155469, Note_on_c, 0, 37, 59
1, 155514, Note_on_c, 0, 61, 79
1, 155517, Note_on_c, 0, 73, 76
1, 155663, Note_off_c, 0, 37, 48
1, 155912, Note_on_c, 0, 56, 64
1, 155924, Note_on_c, 0, 53, 51
1, 155929, Note_on_c, 0, 49, 44
1, 155946, Note_off_c, 0, 73, 54
1, 156005, Note_off_c, 0, 61, 53
1, 156037, Note_off_c, 0, 49, 57
1, 156041, Note_off_c, 0, 56, 60
1, 156058, Note_off_c, 0, 53, 58
1, 156129, Note_on_c, 0, 56, 74
1, 156141, Note_on_c, 0, 53, 58
1, 156148, Note_on_c, 0, 49, 57
1, 156232, Note_off_c, 0, 49, 54
1, 156268, Note_off_c, 0, 53, 50
1, 156289, Note_off_c, 0, 56, 62
1, 156325, Note_on_c, 0, 57, 64
1, 156339, Note_on_c, 0, 53, 29
1, 156362, Note_on_c, 0, 49, 44
1, 156365, Note_on_c, 0, 73, 74
1, 156368, Note_on_c, 0, 61, 69
1, 156396, Control_c, 0, 64, 87
1, 156411, Control_c, 0, 64, 59
1, 156426, Control_c, 0, 64, 0
1, 156470, Control_c, 0, 64, 11
1, 156485, Control_c, 0, 64, 55
1, 156500, Control_c, 0, 64, 68
1, 156515, Control_c, 0, 64, 89
1, 156536, Control_c, 0, 64, 127
1, 156554, Note_off_c, 0, 61, 62
1, 156560, Note_off_c, 0, 57, 56
1, 156560, Note_off_c, 0, 49, 37
1, 156566, Note_off_c, 0, 73, 64
1, 156600, Note_off_c, 0, 53, 36
1, 156635, Note_on_c, 0, 57, 51
1, 156644, Note_on_c, 0, 75, 86
1, 156646, Note_on_c, 0, 49, 48
1, 156647, Note_on_c, 0, 53, 41
1, 156648, Note_on_c, 0, 63, 83
1, 156721, Note_off_c, 0, 57, 60
1, 156736, Note_off_c, 0, 49, 53
1, 156738, Note_off_c, 0, 53, 59
1, 156743, Note_off_c, 0, 75, 61
1, 156749, Note_off_c, 0, 63, 62
1, 156825, Note_on_c, 0, 73, 92
1, 156827, Note_on_c, 0, 61, 92
1, 156832, Note_on_c, 0, 57, 64
1, 156840, Note_on_c, 0, 49, 67
1, 156849, Note_on_c, 0, 53, 42
1, 156861, Note_off_c, 0, 57, 66
1, 156880, Note_off_c, 0, 53, 57
1, 156903, Note_off_c, 0, 49, 63
1, 156934, Note_off_c, 0, 61, 59
1, 156934, Note_off_c, 0, 73, 61
1, 157001, Note_on_c, 0, 42, 75
1, 157012, Control_c, 0, 64, 84
1, 157026, Control_c, 0, 64, 63
1, 157034, Note_on_c, 0, 73, 84
1, 157037, Note_on_c, 0, 61, 86
1, 157041, Control_c, 0, 64, 17
1, 157056, Control_c, 0, 64, 9
1, 157071, Control_c, 0, 64, 38
1, 157086, Control_c, 0, 64, 53
1, 157100, Control_c, 0, 64, 62
1, 157114, Note_off_c, 0, 42, 62
1, 157115, Control_c, 0, 64, 69
1, 157130, Control_c, 0, 64, 84
1, 157145, Control_c, 0, 64, 127
1, 157190, Note_off_c, 0, 73, 61
1, 157220, Note_off_c, 0, 61, 58
1, 157248, Note_on_c, 0, 58, 66
1, 157251, Note_on_c, 0, 54, 63
1, 157254, Note_on_c, 0, 49, 53
1, 157316, Note_off_c, 0, 49, 57
1, 157331, Note_off_c, 0, 58, 61
1, 157336, Note_off_c, 0, 54, 61
1, 157427, Note_on_c, 0, 49, 67
1, 157430, Note_on_c, 0, 58, 72
1, 157433, Note_on_c, 0, 54, 72
1, 157458, Note_off_c, 0, 58, 66
1, 157460, Note_off_c, 0, 54, 67
1, 157468, Note_off_c, 0, 49, 62
1, 157606, Note_on_c, 0, 38, 72
1, 157612, Control_c, 0, 64, 107
1, 157627, Control_c, 0, 64, 74
1, 157642, Control_c, 0, 64, 53
1, 157654, Note_on_c, 0, 70, 74
1, 157657, Control_c, 0, 64, 0
1, 157666, Note_on_c, 0, 58, 74
1, 157687, Control_c, 0, 64, 38
1, 157702, Note_off_c, 0, 38, 62
1, 157702, Control_c, 0, 64, 55
1, 157716, Control_c, 0, 64, 65
1, 157731, Control_c, 0, 64, 77
1, 157746, Control_c, 0, 64, 127
1, 157752, Note_off_c, 0, 58, 63
1, 157819, Note_off_c, 0, 70, 61
1, 157863, Note_on_c, 0, 58, 69
1, 157871, Note_on_c, 0, 56, 61
1, 157871, Note_on_c, 0, 53, 48
1, 157875, Note_on_c, 0, 50, 46
1, 157928, Note_off_c, 0, 58, 61
1, 157941, Note_off_c, 0, 50, 59
1, 157945, Note_off_c, 0, 56, 56
1, 157978, Note_off_c, 0, 53, 53
1, 158015, Note_on_c, 0, 58, 74
1, 158018, Note_on_c, 0, 56, 51
1, 158036, Note_on_c, 0, 50, 59
1, 158053, Note_off_c, 0, 58, 64
1, 158066, Note_off_c, 0, 56, 63
1, 158076, Note_on_c, 0, 82, 91
1, 158077, Note_on_c, 0, 70, 88
1, 158078, Poly_aftertouch_c, 0, 53, 127
1, 158096, Note_off_c, 0, 50, 63
1, 158114, Poly_aftertouch_c, 0, 53, 0
1, 158161, Note_off_c, 0, 70, 60
1, 158184, Note_off_c, 0, 82, 62
1, 158244, Note_on_c, 0, 39, 80
1, 158256, Control_c, 0, 64, 107
1, 158272, Control_c, 0, 64, 69
1, 158277, Note_on_c, 0, 82, 93
1, 158279, Note_on_c, 0, 70, 83
1, 158287, Control_c, 0, 64, 47
1, 158302, Control_c, 0, 64, 0
1, 158332, Control_c, 0, 64, 35
1, 158346, Control_c, 0, 64, 56
1, 158361, Control_c, 0, 64, 67
1, 158369, Note_off_c, 0, 39, 61
1, 158375, Control_c, 0, 64, 84
1, 158390, Control_c, 0, 64, 127
1, 158467, Note_off_c, 0, 82, 64
1, 158468, Note_off_c, 0, 70, 61
1, 158477, Note_on_c, 0, 58, 85
1, 158494, Note_on_c, 0, 51, 62
1, 158498, Note_on_c, 0, 54, 59
1, 158548, Note_off_c, 0, 54, 57
1, 158551, Note_off_c, 0, 51, 51
1, 158563, Note_off_c, 0, 58, 60
1, 158629, Note_on_c, 0, 59, 79
1, 158641, Note_on_c, 0, 54, 78
1, 158652, Note_off_c, 0, 59, 69
1, 158655, Note_on_c, 0, 51, 65
1, 158664, Note_off_c, 0, 54, 69
1, 158686, Note_off_c, 0, 51, 65
1, 158697, Note_on_c, 0, 83, 94
1, 158700, Note_on_c, 0, 71, 92
1, 158797, Control_c, 0, 64, 79
1, 158812, Control_c, 0, 64, 51
1, 158825, Note_on_c, 0, 40, 91
1, 158827, Control_c, 0, 64, 0
1, 158857, Control_c, 0, 64, 30
1, 158872, Control_c, 0, 64, 58
1, 158886, Control_c, 0, 64, 75
1, 158901, Control_c, 0, 64, 127
1, 158911, Note_off_c, 0, 40, 64
1, 158918, Note_off_c, 0, 71, 59
1, 158932, Note_off_c, 0, 83, 59
1, 159027, Note_on_c, 0, 84, 101
1, 159031, Note_on_c, 0, 60, 92
1, 159032, Note_on_c, 0, 72, 92
1, 159052, Note_on_c, 0, 52, 66
1, 159064, Note_on_c, 0, 55, 55
1, 159073, Note_on_c, 0, 58, 55
1, 159103, Note_off_c, 0, 72, 61
1, 159103, Note_off_c, 0, 60, 64
1, 159110, Note_off_c, 0, 52, 49
1, 159124, Note_off_c, 0, 58, 60
1, 159168, Note_off_c, 0, 55, 49
1, 159201, Note_on_c, 0, 85, 91
1, 159202, Note_on_c, 0, 73, 97
1, 159207, Note_on_c, 0, 61, 98
1, 159219, Note_on_c, 0, 58, 80
1, 159222, Note_on_c, 0, 52, 69
1, 159225, Note_on_c, 0, 55, 44
1, 159236, Note_off_c, 0, 84, 65
1, 159264, Note_off_c, 0, 61, 64
1, 159267, Note_off_c, 0, 73, 64
1, 159277, Note_off_c, 0, 58, 62
1, 159280, Note_off_c, 0, 55, 63
1, 159289, Note_off_c, 0, 85, 64
1, 159295, Note_off_c, 0, 52, 66
1, 159359, Note_on_c, 0, 85, 95
1, 159457, Note_on_c, 0, 41, 86
1, 159494, Control_c, 0, 64, 89
1, 159509, Control_c, 0, 64, 57
1, 159529, Note_on_c, 0, 89, 96
1, 159532, Control_c, 0, 64, 0
1, 159538, Note_on_c, 0, 77, 91
1, 159551, Note_off_c, 0, 85, 64
1, 159620, Control_c, 0, 64, 41
1, 159635, Control_c, 0, 64, 62
1, 159640, Note_off_c, 0, 41, 65
1, 159650, Control_c, 0, 64, 73
1, 159665, Control_c, 0, 64, 107
1, 159680, Control_c, 0, 64, 127
1, 159725, Note_off_c, 0, 89, 63
1, 159743, Note_off_c, 0, 77, 60
1, 159813, Note_on_c, 0, 61, 77
1, 159822, Note_on_c, 0, 53, 64
1, 159835, Note_on_c, 0, 58, 66
1, 159891, Note_off_c, 0, 58, 56
1, 159901, Note_off_c, 0, 53, 60
1, 159905, Note_off_c, 0, 61, 59
1, 159989, Note_on_c, 0, 61, 60
1, 160000, Note_on_c, 0, 58, 60
1, 160006, Note_on_c, 0, 53, 51
1, 160029, Note_on_c, 0, 85, 90
1, 160038, Note_on_c, 0, 73, 82
1, 160069, Note_off_c, 0, 53, 51
1, 160119, Note_off_c, 0, 61, 59
1, 160128, Note_off_c, 0, 58, 54
1, 160164, Note_off_c, 0, 85, 64
1, 160188, Note_off_c, 0, 73, 63
1, 160214, Control_c, 0, 64, 121
1, 160218, Note_on_c, 0, 60, 51
1, 160229, Control_c, 0, 64, 81
1, 160235, Note_on_c, 0, 53, 38
1, 160241, Note_on_c, 0, 57, 44
1, 160243, Control_c, 0, 64, 64
1, 160244, Note_on_c, 0, 84, 79
1, 160256, Note_on_c, 0, 72, 66
1, 160258, Control_c, 0, 64, 23
1, 160280, Control_c, 0, 64, 0
1, 160340, Control_c, 0, 64, 27
1, 160355, Control_c, 0, 64, 51
1, 160360, Note_off_c, 0, 53, 52
1, 160368, Note_off_c, 0, 57, 60
1, 160369, Control_c, 0, 64, 64
1, 160372, Note_off_c, 0, 60, 60
1, 160384, Control_c, 0, 64, 72
1, 160399, Control_c, 0, 64, 90
1, 160414, Control_c, 0, 64, 127
1, 160490, Note_off_c, 0, 84, 58
1, 160499, Note_on_c, 0, 60, 45
1, 160524, Note_on_c, 0, 57, 37
1, 160528, Note_on_c, 0, 53, 24
1, 160533, Note_off_c, 0, 72, 56
1, 160577, Note_off_c, 0, 57, 57
1, 160584, Note_off_c, 0, 60, 54
1, 160591, Note_off_c, 0, 53, 43
1, 160803, Note_on_c, 0, 60, 12
1, 160806, Note_on_c, 0, 53, 21
1, 160806, Note_on_c, 0, 57, 28
1, 160866, Note_off_c, 0, 57, 55
1, 160907, Note_off_c, 0, 60, 37
1, 160951, Note_off_c, 0, 53, 36
1, 160978, Control_c, 0, 67, 9
1, 160992, Control_c, 0, 67, 18
1, 161007, Control_c, 0, 67, 26
1, 161029, Control_c, 0, 67, 36
1, 161044, Control_c, 0, 67, 45
1, 161059, Control_c, 0, 67, 54
1, 161073, Control_c, 0, 67, 63
1, 161088, Control_c, 0, 67, 71
1, 161103, Control_c, 0, 67, 78
1, 161118, Control_c, 0, 67, 85
1, 161133, Control_c, 0, 67, 92
1, 161147, Control_c, 0, 67, 98
1, 161162, Control_c, 0, 67, 103
1, 161177, Control_c, 0, 67, 108
1, 161192, Control_c, 0, 67, 112
1, 161207, Control_c, 0, 67, 115
1, 161222, Control_c, 0, 67, 117
1, 161237, Control_c, 0, 67, 119
1, 161252, Control_c, 0, 67, 121
1, 161267, Control_c, 0, 67, 123
1, 161281, Control_c, 0, 67, 124
1, 161296, Control_c, 0, 67, 125
1, 161427, Note_on_c, 0, 45, 28
1, 161443, Control_c, 0, 64, 116
1, 161458, Control_c, 0, 64, 105
1, 161474, Control_c, 0, 64, 94
1, 161488, Control_c, 0, 64, 83
1, 161502, Note_on_c, 0, 72, 41
1, 161503, Control_c, 0, 64, 71
1, 161518, Control_c, 0, 64, 60
1, 161532, Note_on_c, 0, 60, 25
1, 161533, Control_c, 0, 64, 42
1, 161548, Control_c, 0, 64, 43
1, 161548, Control_c, 0, 67, 124
1, 161562, Control_c, 0, 64, 48
1, 161562, Control_c, 0, 67, 124
1, 161577, Control_c, 0, 64, 54
1, 161577, Control_c, 0, 67, 123
1, 161592, Control_c, 0, 64, 59
1, 161592, Control_c, 0, 67, 122
1, 161607, Control_c, 0, 64, 65
1, 161621, Control_c, 0, 64, 75
1, 161633, Note_off_c, 0, 45, 40
1, 161636, Control_c, 0, 64, 95
1, 161651, Control_c, 0, 64, 127
1, 161651, Control_c, 0, 67, 122
1, 161681, Note_off_c, 0, 60, 34
1, 161681, Control_c, 0, 67, 121
1, 161711, Control_c, 0, 67, 120
1, 161719, Note_off_c, 0, 72, 61
1, 161821, Control_c, 0, 67, 120
1, 161977, Note_on_c, 0, 60, 23
1, 161979, Note_on_c, 0, 53, 22
1, 161990, Note_on_c, 0, 57, 22
1, 162064, Note_off_c, 0, 57, 48
1, 162078, Note_off_c, 0, 60, 38
1, 162107, Note_on_c, 0, 77, 58
1, 162110, Note_off_c, 0, 53, 33
1, 162135, Note_on_c, 0, 65, 26
1, 162209, Note_off_c, 0, 65, 59
1, 162227, Note_on_c, 0, 52, 27
1, 162234, Note_off_c, 0, 77, 61
1, 162240, Note_on_c, 0, 57, 11
1, 162271, Note_on_c, 0, 60, 3
1, 162278, Note_off_c, 0, 52, 47
1, 162307, Note_off_c, 0, 60, 40
1, 162312, Note_off_c, 0, 57, 40
1, 162390, Note_on_c, 0, 81, 72
1, 162395, Note_on_c, 0, 57, 22
1, 162420, Note_on_c, 0, 60, 29
1, 162420, Note_on_c, 0, 69, 52
1, 162435, Note_on_c, 0, 53, 23
1, 162453, Note_off_c, 0, 60, 55
1, 162472, Note_off_c, 0, 69, 58
1, 162483, Note_off_c, 0, 53, 47
1, 162524, Note_off_c, 0, 81, 64
1, 162577, Note_off_c, 0, 57, 0
1, 162588, Note_on_c, 0, 62, 44
1, 162602, Note_on_c, 0, 57, 7
1, 162626, Note_off_c, 0, 62, 62
1, 162659, Poly_aftertouch_c, 0, 53, 127
1, 162680, Note_on_c, 0, 84, 76
1, 162703, Note_on_c, 0, 72, 54
1, 162737, Note_off_c, 0, 57, 0
1, 162751, Poly_aftertouch_c, 0, 53, 0
1, 162758, Note_on_c, 0, 57, 21
1, 162767, Note_on_c, 0, 53, 29
1, 162793, Note_on_c, 0, 60, 42
1, 162827, Note_off_c, 0, 60, 64
1, 162838, Note_off_c, 0, 57, 60
1, 162840, Note_off_c, 0, 53, 57
1, 162859, Note_off_c, 0, 72, 55
1, 162891, Note_off_c, 0, 84, 56
1, 163045, Control_c, 0, 64, 105
1, 163046, Note_on_c, 0, 46, 39
1, 163061, Control_c, 0, 64, 88
1, 163076, Control_c, 0, 64, 72
1, 163091, Control_c, 0, 64, 59
1, 163096, Note_on_c, 0, 84, 55
1, 163106, Control_c, 0, 64, 34
1, 163112, Note_on_c, 0, 72, 39
1, 163135, Control_c, 0, 64, 39
1, 163135, Control_c, 0, 67, 119
1, 163150, Control_c, 0, 64, 49
1, 163150, Control_c, 0, 67, 119
1, 163165, Control_c, 0, 64, 58
1, 163180, Control_c, 0, 64, 65
1, 163194, Control_c, 0, 64, 74
1, 163194, Control_c, 0, 67, 118
1, 163209, Control_c, 0, 64, 94
1, 163210, Note_off_c, 0, 46, 61
1, 163224, Control_c, 0, 64, 127
1, 163306, Control_c, 0, 67, 117
1, 163336, Note_off_c, 0, 72, 54
1, 163353, Note_off_c, 0, 84, 56
1, 163419, Note_on_c, 0, 63, 37
1, 163443, Note_on_c, 0, 57, 28
1, 163454, Note_on_c, 0, 54, 33
1, 163493, Note_off_c, 0, 54, 55
1, 163504, Note_off_c, 0, 57, 51
1, 163559, Note_off_c, 0, 63, 34
1, 163622, Note_on_c, 0, 54, 43
1, 163631, Note_on_c, 0, 62, 37
1, 163632, Note_on_c, 0, 57, 24
1, 163669, Note_off_c, 0, 54, 58
1, 163670, Note_off_c, 0, 57, 52
1, 163689, Note_off_c, 0, 62, 58
1, 163823, Note_on_c, 0, 55, 40
1, 163824, Control_c, 0, 67, 117
1, 163824, Note_on_c, 0, 82, 57
1, 163837, Note_on_c, 0, 58, 32
1, 163839, Control_c, 0, 64, 89
1, 163840, Note_on_c, 0, 62, 29
1, 163840, Note_on_c, 0, 70, 41
1, 163854, Control_c, 0, 64, 69
1, 163854, Control_c, 0, 67, 116
1, 163869, Control_c, 0, 64, 58
1, 163869, Control_c, 0, 67, 115
1, 163884, Control_c, 0, 64, 49
1, 163884, Control_c, 0, 67, 115
1, 163899, Control_c, 0, 64, 54
1, 163914, Control_c, 0, 64, 59
1, 163929, Control_c, 0, 64, 63
1, 163930, Note_off_c, 0, 62, 55
1, 163944, Control_c, 0, 64, 69
1, 163955, Note_off_c, 0, 82, 64
1, 163958, Control_c, 0, 64, 79
1, 163973, Control_c, 0, 64, 96
1, 163977, Note_off_c, 0, 70, 63
1, 163988, Control_c, 0, 64, 127
1, 164003, Control_c, 0, 64, 114
1, 164024, Control_c, 0, 64, 93
1, 164039, Control_c, 0, 64, 78
1, 164047, Note_off_c, 0, 58, 39
1, 164050, Note_on_c, 0, 81, 69
1, 164054, Control_c, 0, 64, 65
1, 164060, Note_on_c, 0, 60, 36
1, 164061, Note_on_c, 0, 57, 38
1, 164063, Note_on_c, 0, 69, 55
1, 164069, Control_c, 0, 64, 57
1, 164082, Note_off_c, 0, 55, 36
1, 164084, Control_c, 0, 64, 59
1, 164099, Control_c, 0, 64, 63
1, 164113, Control_c, 0, 64, 67
1, 164121, Note_on_c, 0, 62, 2
1, 164128, Control_c, 0, 64, 76
1, 164133, Note_off_c, 0, 81, 60
1, 164140, Note_off_c, 0, 69, 63
1, 164143, Control_c, 0, 64, 107
1, 164158, Control_c, 0, 64, 127
1, 164163, Note_off_c, 0, 62, 36
1, 164188, Control_c, 0, 64, 95
1, 164203, Control_c, 0, 64, 76
1, 164217, Control_c, 0, 64, 63
1, 164232, Control_c, 0, 64, 49
1, 164238, Note_on_c, 0, 79, 72
1, 164244, Note_off_c, 0, 57, 44
1, 164246, Note_on_c, 0, 58, 45
1, 164247, Control_c, 0, 64, 55
1, 164249, Note_on_c, 0, 62, 34
1, 164259, Note_on_c, 0, 67, 59
1, 164262, Note_off_c, 0, 60, 50
1, 164262, Control_c, 0, 64, 62
1, 164277, Control_c, 0, 64, 67
1, 164286, Note_off_c, 0, 58, 65
1, 164291, Control_c, 0, 64, 75
1, 164306, Control_c, 0, 64, 93
1, 164320, Note_off_c, 0, 67, 50
1, 164321, Control_c, 0, 64, 127
1, 164331, Note_off_c, 0, 79, 63
1, 164334, Note_off_c, 0, 62, 59
1, 164365, Control_c, 0, 67, 114
1, 164380, Control_c, 0, 64, 100
1, 164395, Control_c, 0, 64, 77
1, 164409, Control_c, 0, 64, 61
1, 164424, Control_c, 0, 64, 48
1, 164425, Note_on_c, 0, 48, 41
1, 164426, Note_on_c, 0, 79, 67
1, 164439, Control_c, 0, 64, 54
1, 164446, Note_on_c, 0, 67, 52
1, 164454, Control_c, 0, 64, 60
1, 164469, Control_c, 0, 64, 64
1, 164484, Control_c, 0, 64, 69
1, 164486, Note_off_c, 0, 67, 63
1, 164498, Control_c, 0, 64, 79
1, 164513, Control_c, 0, 64, 103
1, 164516, Note_off_c, 0, 79, 64
1, 164528, Control_c, 0, 64, 127
1, 164609, Note_on_c, 0, 81, 73
1, 164616, Note_on_c, 0, 57, 41
1, 164623, Note_on_c, 0, 60, 41
1, 164628, Note_on_c, 0, 69, 48
1, 164659, Note_off_c, 0, 57, 60
1, 164662, Note_off_c, 0, 69, 63
1, 164665, Note_off_c, 0, 60, 57
1, 164666, Note_off_c, 0, 81, 63
1, 164751, Control_c, 0, 64, 97
1, 164774, Control_c, 0, 64, 80
1, 164788, Control_c, 0, 64, 67
1, 164799, Note_off_c, 0, 48, 38
1, 164802, Note_on_c, 0, 77, 70
1, 164803, Control_c, 0, 64, 62
1, 164805, Note_on_c, 0, 60, 39
1, 164809, Note_on_c, 0, 57, 39
1, 164818, Control_c, 0, 64, 63
1, 164820, Note_on_c, 0, 65, 54
1, 164833, Control_c, 0, 64, 67
1, 164847, Control_c, 0, 64, 73
1, 164862, Control_c, 0, 64, 87
1, 164877, Control_c, 0, 64, 127
1, 164900, Note_off_c, 0, 65, 59
1, 164904, Note_off_c, 0, 77, 61
1, 164936, Control_c, 0, 64, 115
1, 164951, Control_c, 0, 64, 80
1, 164966, Control_c, 0, 64, 63
1, 164977, Note_on_c, 0, 48, 40
1, 164978, Note_off_c, 0, 60, 33
1, 164981, Control_c, 0, 64, 29
1, 164985, Note_on_c, 0, 77, 63
1, 164996, Control_c, 0, 64, 40
1, 165001, Note_off_c, 0, 57, 42
1, 165011, Control_c, 0, 64, 55
1, 165012, Note_on_c, 0, 65, 51
1, 165026, Control_c, 0, 64, 62
1, 165040, Control_c, 0, 64, 68
1, 165055, Control_c, 0, 64, 80
1, 165055, Note_off_c, 0, 65, 63
1, 165070, Control_c, 0, 64, 127
1, 165082, Note_off_c, 0, 77, 63
1, 165136, Note_off_c, 0, 48, 32
1, 165173, Note_on_c, 0, 79, 74
1, 165177, Note_on_c, 0, 60, 42
1, 165178, Note_on_c, 0, 55, 41
1, 165190, Note_on_c, 0, 58, 46
1, 165190, Note_on_c, 0, 67, 56
1, 165231, Note_off_c, 0, 55, 57
1, 165236, Note_off_c, 0, 60, 56
1, 165237, Note_off_c, 0, 67, 57
1, 165243, Note_off_c, 0, 79, 62
1, 165247, Control_c, 0, 67, 115
1, 165252, Note_off_c, 0, 58, 50
1, 165321, Control_c, 0, 64, 112
1, 165336, Control_c, 0, 64, 92
1, 165351, Control_c, 0, 64, 79
1, 165364, Note_on_c, 0, 76, 72
1, 165366, Control_c, 0, 64, 73
1, 165366, Control_c, 0, 67, 115
1, 165367, Note_on_c, 0, 55, 46
1, 165371, Note_on_c, 0, 58, 34
1, 165380, Note_on_c, 0, 60, 33
1, 165380, Control_c, 0, 64, 75
1, 165390, Note_on_c, 0, 64, 53
1, 165395, Control_c, 0, 64, 79
1, 165399, Note_off_c, 0, 58, 61
1, 165407, Note_off_c, 0, 55, 65
1, 165410, Control_c, 0, 64, 86
1, 165419, Note_off_c, 0, 60, 41
1, 165425, Control_c, 0, 64, 97
1, 165425, Control_c, 0, 67, 116
1, 165440, Control_c, 0, 64, 127
1, 165461, Note_off_c, 0, 64, 61
1, 165495, Note_off_c, 0, 76, 63
1, 165573, Note_on_c, 0, 41, 52
1, 165582, Control_c, 0, 64, 89
1, 165596, Control_c, 0, 64, 68
1, 165605, Note_on_c, 0, 77, 72
1, 165611, Control_c, 0, 64, 46
1, 165626, Control_c, 0, 64, 22
1, 165629, Note_on_c, 0, 65, 50
1, 165641, Control_c, 0, 64, 40
1, 165656, Control_c, 0, 64, 51
1, 165670, Control_c, 0, 64, 59
1, 165675, Note_off_c, 0, 41, 64
1, 165685, Control_c, 0, 64, 65
1, 165700, Control_c, 0, 64, 74
1, 165700, Control_c, 0, 67, 115
1, 165715, Control_c, 0, 64, 91
1, 165715, Control_c, 0, 67, 115
1, 165730, Control_c, 0, 64, 127
1, 165730, Control_c, 0, 67, 114
1, 165744, Control_c, 0, 67, 114
1, 165759, Control_c, 0, 67, 113
1, 165774, Control_c, 0, 67, 112
1, 165789, Control_c, 0, 67, 112
1, 165819, Control_c, 0, 67, 111
1, 165825, Note_on_c, 0, 53, 54
1, 165825, Note_on_c, 0, 60, 51
1, 165827, Note_on_c, 0, 57, 52
1, 165833, Control_c, 0, 67, 110
1, 165848, Control_c, 0, 67, 109
1, 165863, Control_c, 0, 67, 108
1, 165864, Note_off_c, 0, 60, 64
1, 165878, Control_c, 0, 67, 107
1, 165884, Note_off_c, 0, 57, 62
1, 165893, Control_c, 0, 67, 105
1, 165902, Note_off_c, 0, 77, 59
1, 165902, Note_off_c, 0, 65, 56
1, 165908, Control_c, 0, 67, 104
1, 165909, Note_off_c, 0, 53, 60
1, 165923, Control_c, 0, 67, 103
1, 165937, Control_c, 0, 67, 102
1, 165952, Control_c, 0, 67, 100
1, 165967, Control_c, 0, 67, 100
1, 165981, Control_c, 0, 67, 98
1, 165996, Control_c, 0, 67, 97
1, 166011, Control_c, 0, 67, 96
1, 166019, Note_on_c, 0, 53, 75
1, 166026, Control_c, 0, 67, 90
1, 166041, Control_c, 0, 67, 83
1, 166055, Control_c, 0, 67, 78
1, 166070, Control_c, 0, 67, 71
1, 166085, Control_c, 0, 67, 63
1, 166100, Control_c, 0, 67, 55
1, 166115, Control_c, 0, 67, 47
1, 166129, Control_c, 0, 67, 40
1, 166140, Note_off_c, 0, 53, 58
1, 166144, Control_c, 0, 67, 32
1, 166159, Control_c, 0, 67, 24
1, 166174, Control_c, 0, 67, 17
1, 166188, Control_c, 0, 67, 9
1, 166203, Control_c, 0, 67, 0
1, 166223, Note_on_c, 0, 51, 57
1, 166250, Note_on_c, 0, 75, 71
1, 166251, Note_on_c, 0, 63, 67
1, 166277, Note_on_c, 0, 53, 45
1, 166397, Note_off_c, 0, 53, 36
1, 166429, Note_off_c, 0, 75, 61
1, 166444, Note_off_c, 0, 63, 62
1, 166516, Note_on_c, 0, 73, 85
1, 166517, Note_on_c, 0, 49, 73
1, 166519, Note_on_c, 0, 53, 60
1, 166520, Note_on_c, 0, 61, 87
1, 166611, Note_off_c, 0, 53, 61
1, 166659, Note_off_c, 0, 73, 61
1, 166668, Note_off_c, 0, 61, 61
1, 166708, Note_off_c, 0, 51, 38
1, 166710, Note_on_c, 0, 48, 72
1, 166716, Note_on_c, 0, 60, 92
1, 166716, Note_on_c, 0, 72, 88
1, 166721, Note_on_c, 0, 53, 66
1, 166746, Note_off_c, 0, 49, 60
1, 166747, Note_off_c, 0, 53, 67
1, 166778, Note_off_c, 0, 48, 64
1, 166917, Note_off_c, 0, 72, 52
1, 166933, Note_off_c, 0, 60, 58
1, 166983, Note_on_c, 0, 42, 82
1, 167000, Note_on_c, 0, 30, 65
1, 167047, Note_on_c, 0, 72, 84
1, 167050, Note_on_c, 0, 60, 86
1, 167065, Control_c, 0, 64, 78
1, 167079, Control_c, 0, 64, 57
1, 167094, Control_c, 0, 64, 0
1, 167139, Control_c, 0, 64, 30
1, 167154, Control_c, 0, 64, 52
1, 167169, Control_c, 0, 64, 61
1, 167179, Note_off_c, 0, 30, 63
1, 167184, Control_c, 0, 64, 70
1, 167198, Control_c, 0, 64, 86
1, 167213, Control_c, 0, 64, 127
1, 167233, Note_off_c, 0, 42, 62
1, 167365, Note_on_c, 0, 49, 67
1, 167371, Note_on_c, 0, 42, 56
1, 167383, Note_on_c, 0, 46, 58
1, 167390, Poly_aftertouch_c, 0, 69, 127
1, 167436, Note_off_c, 0, 42, 57
1, 167449, Note_off_c, 0, 72, 55
1, 167453, Note_off_c, 0, 60, 58
1, 167460, Note_off_c, 0, 49, 60
1, 167477, Note_off_c, 0, 46, 58
1, 167520, Note_on_c, 0, 48, 77
1, 167527, Note_on_c, 0, 46, 50
1, 167537, Note_on_c, 0, 42, 69
1, 167568, Poly_aftertouch_c, 0, 69, 0
1, 167578, Note_off_c, 0, 48, 62
1, 167619, Note_off_c, 0, 42, 55
1, 167624, Note_off_c, 0, 46, 55
1, 167668, Note_on_c, 0, 42, 48
1, 167670, Note_on_c, 0, 58, 85
1, 167673, Note_on_c, 0, 70, 83
1, 167676, Note_on_c, 0, 49, 72
1, 167688, Note_on_c, 0, 46, 32
1, 167716, Control_c, 0, 64, 110
1, 167731, Control_c, 0, 64, 88
1, 167746, Control_c, 0, 64, 80
1, 167767, Note_off_c, 0, 49, 62
1, 167768, Control_c, 0, 64, 84
1, 167777, Note_off_c, 0, 42, 57
1, 167783, Control_c, 0, 64, 101
1, 167798, Control_c, 0, 64, 127
1, 167845, Note_off_c, 0, 46, 0
1, 167849, Note_off_c, 0, 58, 61
1, 167852, Note_on_c, 0, 51, 85
1, 167857, Note_off_c, 0, 70, 60
1, 167860, Note_on_c, 0, 46, 44
1, 167870, Note_on_c, 0, 42, 64
1, 167908, Note_off_c, 0, 51, 62
1, 167917, Control_c, 0, 64, 97
1, 167932, Control_c, 0, 64, 88
1, 167938, Note_off_c, 0, 42, 57
1, 167947, Control_c, 0, 64, 93
1, 167948, Note_on_c, 0, 58, 98
1, 167948, Note_on_c, 0, 70, 94
1, 167962, Control_c, 0, 64, 127
1, 167982, Note_off_c, 0, 46, 0
1, 168015, Note_on_c, 0, 46, 9
1, 168017, Note_on_c, 0, 49, 82
1, 168030, Note_on_c, 0, 42, 75
1, 168048, Note_off_c, 0, 49, 64
1, 168066, Note_off_c, 0, 42, 64
1, 168072, Note_off_c, 0, 46, 44
1, 168102, Note_off_c, 0, 58, 61
1, 168115, Note_off_c, 0, 70, 61
1, 168209, Note_on_c, 0, 41, 77
1, 168222, Note_on_c, 0, 29, 70
1, 168228, Control_c, 0, 64, 91
1, 168243, Control_c, 0, 64, 63
1, 168247, Note_on_c, 0, 72, 90
1, 168248, Note_on_c, 0, 60, 90
1, 168257, Control_c, 0, 64, 0
1, 168302, Control_c, 0, 64, 25
1, 168317, Control_c, 0, 64, 60
1, 168329, Note_off_c, 0, 29, 62
1, 168331, Control_c, 0, 64, 79
1, 168343, Note_off_c, 0, 41, 64
1, 168346, Control_c, 0, 64, 127
1, 168463, Note_on_c, 0, 49, 74
1, 168472, Note_on_c, 0, 41, 55
1, 168475, Note_on_c, 0, 46, 59
1, 168556, Note_off_c, 0, 41, 55
1, 168559, Note_off_c, 0, 46, 59
1, 168560, Note_off_c, 0, 49, 61
1, 168603, Note_off_c, 0, 60, 57
1, 168618, Note_off_c, 0, 72, 59
1, 168622, Note_on_c, 0, 48, 79
1, 168631, Note_on_c, 0, 46, 58
1, 168637, Note_on_c, 0, 41, 50
1, 168670, Note_off_c, 0, 48, 61
1, 168677, Note_off_c, 0, 41, 59
1, 168694, Note_off_c, 0, 46, 60
1, 168769, Note_on_c, 0, 70, 79
1, 168770, Note_on_c, 0, 58, 81
1, 168776, Note_on_c, 0, 41, 52
1, 168777, Note_on_c, 0, 49, 66
1, 168785, Control_c, 0, 64, 111
1, 168795, Note_on_c, 0, 46, 56
1, 168799, Control_c, 0, 64, 82
1, 168814, Control_c, 0, 64, 70
1, 168829, Control_c, 0, 64, 66
1, 168844, Control_c, 0, 64, 69
1, 168853, Note_off_c, 0, 41, 61
1, 168856, Note_off_c, 0, 49, 63
1, 168857, Control_c, 0, 64, 77
1, 168872, Control_c, 0, 64, 92
1, 168880, Note_off_c, 0, 46, 61
1, 168886, Control_c, 0, 64, 127
1, 168904, Note_off_c, 0, 70, 57
1, 168904, Note_off_c, 0, 58, 62
1, 168944, Note_on_c, 0, 51, 78
1, 168960, Control_c, 0, 64, 108
1, 168963, Note_on_c, 0, 46, 54
1, 168966, Note_on_c, 0, 41, 53
1, 168975, Control_c, 0, 64, 87
1, 168990, Control_c, 0, 64, 79
1, 169005, Control_c, 0, 64, 78
1, 169013, Note_off_c, 0, 41, 58
1, 169018, Note_off_c, 0, 51, 62
1, 169020, Note_on_c, 0, 70, 85
1, 169020, Control_c, 0, 64, 82
1, 169022, Note_on_c, 0, 58, 86
1, 169035, Control_c, 0, 64, 92
1, 169044, Note_off_c, 0, 46, 56
1, 169050, Control_c, 0, 64, 123
1, 169065, Control_c, 0, 64, 127
1, 169127, Note_on_c, 0, 49, 79
1, 169136, Note_on_c, 0, 41, 61
1, 169136, Note_on_c, 0, 46, 61
1, 169198, Note_off_c, 0, 41, 63
1, 169216, Note_off_c, 0, 46, 61
1, 169236, Note_off_c, 0, 70, 54
1, 169289, Note_off_c, 0, 58, 59
1, 169390, Note_on_c, 0, 38, 71
1, 169444, Note_off_c, 0, 49, 58
1, 169449, Note_on_c, 0, 71, 83
1, 169458, Control_c, 0, 64, 87
1, 169461, Note_on_c, 0, 59, 73
1, 169473, Control_c, 0, 64, 62
1, 169488, Control_c, 0, 64, 0
1, 169562, Control_c, 0, 64, 37
1, 169577, Control_c, 0, 64, 62
1, 169580, Note_off_c, 0, 38, 62
1, 169591, Control_c, 0, 64, 78
1, 169607, Control_c, 0, 64, 127
1, 169620, Note_off_c, 0, 59, 64
1, 169746, Note_on_c, 0, 70, 90
1, 169753, Note_on_c, 0, 58, 86
1, 169754, Note_on_c, 0, 54, 41
1, 169764, Note_on_c, 0, 56, 71
1, 169778, Note_on_c, 0, 50, 44
1, 169785, Note_on_c, 0, 53, 54
1, 169790, Note_off_c, 0, 71, 64
1, 169803, Note_off_c, 0, 54, 42
1, 169806, Note_off_c, 0, 58, 64
1, 169838, Note_off_c, 0, 53, 57
1, 169839, Note_off_c, 0, 50, 59
1, 169846, Note_off_c, 0, 70, 62
1, 169873, Note_off_c, 0, 56, 61
1, 169920, Note_on_c, 0, 74, 97
1, 169924, Note_on_c, 0, 57, 76
1, 169926, Note_on_c, 0, 62, 87
1, 169941, Note_on_c, 0, 53, 61
1, 169950, Note_on_c, 0, 50, 56
1, 169956, Note_off_c, 0, 57, 63
1, 169962, Note_off_c, 0, 62, 60
1, 169983, Note_off_c, 0, 50, 64
1, 169989, Note_off_c, 0, 74, 63
1, 170025, Note_off_c, 0, 53, 52
1, 170087, Note_on_c, 0, 58, 91
1, 170091, Note_on_c, 0, 77, 97
1, 170092, Note_on_c, 0, 53, 54
1, 170093, Note_on_c, 0, 65, 93
1, 170098, Note_on_c, 0, 50, 63
1, 170131, Note_off_c, 0, 65, 60
1, 170153, Note_off_c, 0, 77, 63
1, 170170, Note_off_c, 0, 50, 60
1, 170195, Note_off_c, 0, 53, 59
1, 170197, Note_off_c, 0, 58, 62
1, 170265, Note_on_c, 0, 80, 101
1, 170266, Note_on_c, 0, 68, 97
1, 170270, Note_on_c, 0, 56, 94
1, 170281, Note_on_c, 0, 50, 75
1, 170281, Control_c, 0, 64, 113
1, 170286, Note_on_c, 0, 53, 70
1, 170296, Control_c, 0, 64, 88
1, 170311, Control_c, 0, 64, 81
1, 170322, Note_off_c, 0, 68, 58
1, 170326, Control_c, 0, 64, 87
1, 170341, Control_c, 0, 64, 127
1, 170356, Note_off_c, 0, 80, 63
1, 170371, Note_off_c, 0, 50, 58
1, 170400, Note_off_c, 0, 53, 59
1, 170400, Note_off_c, 0, 56, 60
1, 170472, Note_on_c, 0, 83, 98
1, 170474, Note_on_c, 0, 71, 104
1, 170474, Control_c, 0, 64, 123
1, 170475, Note_on_c, 0, 59, 91
1, 170475, Note_on_c, 0, 80, 92
1, 170483, Note_on_c, 0, 77, 75
1, 170488, Note_on_c, 0, 53, 73
1, 170489, Control_c, 0, 64, 76
1, 170491, Note_on_c, 0, 50, 66
1, 170493, Note_on_c, 0, 56, 76
1, 170504, Control_c, 0, 64, 60
1, 170519, Control_c, 0, 64, 39
1, 170533, Control_c, 0, 64, 52
1, 170548, Control_c, 0, 64, 61
1, 170563, Control_c, 0, 64, 69
1, 170568, Note_off_c, 0, 59, 62
1, 170578, Control_c, 0, 64, 89
1, 170593, Control_c, 0, 64, 127
1, 170594, Note_off_c, 0, 50, 59
1, 170595, Note_off_c, 0, 56, 62
1, 170597, Note_off_c, 0, 53, 64
1, 170648, Note_off_c, 0, 83, 54
1, 170656, Note_off_c, 0, 71, 58
1, 170694, Note_off_c, 0, 80, 61
1, 170710, Note_off_c, 0, 77, 58
1, 170764, Note_on_c, 0, 39, 78
1, 170793, Note_on_c, 0, 82, 99
1, 170794, Note_on_c, 0, 70, 98
1, 170801, Note_on_c, 0, 80, 85
1, 170807, Control_c, 0, 64, 77
1, 170808, Note_on_c, 0, 77, 77
1, 170822, Control_c, 0, 64, 55
1, 170837, Control_c, 0, 64, 0
1, 170881, Control_c, 0, 64, 43
1, 170896, Control_c, 0, 64, 61
1, 170911, Control_c, 0, 64, 71
1, 170925, Control_c, 0, 64, 92
1, 170927, Note_off_c, 0, 39, 63
1, 170940, Control_c, 0, 64, 127
1, 171068, Note_on_c, 0, 58, 84
1, 171084, Note_on_c, 0, 51, 62
1, 171086, Note_on_c, 0, 54, 66
1, 171175, Note_off_c, 0, 51, 59
1, 171182, Note_off_c, 0, 54, 62
1, 171186, Note_off_c, 0, 58, 62
1, 171244, Note_on_c, 0, 57, 84
1, 171244, Note_off_c, 0, 77, 60
1, 171259, Note_on_c, 0, 51, 69
1, 171262, Note_on_c, 0, 54, 61
1, 171300, Note_off_c, 0, 54, 60
1, 171303, Note_off_c, 0, 57, 64
1, 171324, Note_off_c, 0, 51, 54
1, 171415, Control_c, 0, 64, 94
1, 171429, Note_on_c, 0, 58, 59
1, 171429, Note_on_c, 0, 78, 72
1, 171430, Control_c, 0, 64, 68
1, 171439, Note_on_c, 0, 51, 46
1, 171445, Control_c, 0, 64, 35
1, 171447, Note_on_c, 0, 54, 47
1, 171447, Note_on_c, 0, 75, 60
1, 171460, Control_c, 0, 64, 0
1, 171503, Note_off_c, 0, 80, 58
1, 171527, Control_c, 0, 64, 34
1, 171542, Control_c, 0, 64, 54
1, 171556, Control_c, 0, 64, 64
1, 171563, Note_off_c, 0, 51, 55
1, 171571, Control_c, 0, 64, 72
1, 171575, Note_off_c, 0, 54, 58
1, 171581, Note_off_c, 0, 82, 59
1, 171586, Control_c, 0, 64, 89
1, 171600, Note_off_c, 0, 58, 62
1, 171600, Control_c, 0, 64, 121
1, 171615, Control_c, 0, 64, 127
1, 171631, Note_off_c, 0, 75, 56
1, 171631, Note_off_c, 0, 70, 54
1, 171655, Note_off_c, 0, 78, 61
1, 171677, Note_on_c, 0, 59, 48
1, 171700, Note_on_c, 0, 51, 42
1, 171700, Note_on_c, 0, 54, 40
1, 171765, Note_off_c, 0, 51, 53
1, 171776, Note_off_c, 0, 59, 61
1, 171799, Note_off_c, 0, 54, 51
1, 171894, Note_on_c, 0, 75, 60
1, 171925, Note_on_c, 0, 63, 46
1, 171941, Control_c, 0, 64, 100
1, 171956, Control_c, 0, 64, 83
1, 171971, Control_c, 0, 64, 72
1, 171977, Note_on_c, 0, 58, 38
1, 171980, Note_on_c, 0, 54, 36
1, 171984, Note_on_c, 0, 51, 37
1, 171986, Control_c, 0, 64, 65
1, 172001, Control_c, 0, 64, 59
1, 172031, Control_c, 0, 64, 61
1, 172046, Control_c, 0, 64, 63
1, 172060, Control_c, 0, 64, 65
1, 172075, Control_c, 0, 64, 69
1, 172090, Control_c, 0, 64, 75
1, 172103, Note_off_c, 0, 58, 60
1, 172104, Control_c, 0, 64, 88
1, 172119, Control_c, 0, 64, 115
1, 172125, Note_off_c, 0, 54, 61
1, 172130, Note_off_c, 0, 51, 55
1, 172134, Control_c, 0, 64, 127
1, 172177, Note_off_c, 0, 75, 55
1, 172209, Note_off_c, 0, 63, 41
1, 172345, Note_on_c, 0, 42, 39
1, 172378, Control_c, 0, 64, 121
1, 172393, Control_c, 0, 64, 97
1, 172408, Control_c, 0, 64, 80
1, 172409, Note_on_c, 0, 73, 51
1, 172423, Control_c, 0, 64, 64
1, 172435, Note_on_c, 0, 61, 33
1, 172437, Control_c, 0, 64, 44
1, 172452, Control_c, 0, 64, 26
1, 172467, Control_c, 0, 64, 34
1, 172482, Control_c, 0, 64, 44
1, 172497, Control_c, 0, 64, 53
1, 172511, Control_c, 0, 64, 59
1, 172526, Control_c, 0, 64, 66
1, 172537, Note_off_c, 0, 42, 59
1, 172541, Control_c, 0, 64, 74
1, 172556, Control_c, 0, 64, 90
1, 172570, Control_c, 0, 64, 127
1, 172666, Note_off_c, 0, 73, 50
1, 172687, Note_off_c, 0, 61, 39
1, 172781, Note_on_c, 0, 58, 35
1, 172784, Note_on_c, 0, 54, 35
1, 172846, Note_off_c, 0, 58, 51
1, 172853, Note_off_c, 0, 54, 52
1, 172956, Note_on_c, 0, 58, 32
1, 172964, Note_on_c, 0, 54, 31
1, 173032, Note_on_c, 0, 72, 57
1, 173046, Note_on_c, 0, 60, 45
1, 173049, Note_off_c, 0, 58, 54
1, 173077, Note_off_c, 0, 54, 37
1, 173089, Note_off_c, 0, 60, 58
1, 173105, Note_off_c, 0, 72, 58
1, 173201, Note_on_c, 0, 72, 56
1, 173203, Note_on_c, 0, 58, 35
1, 173204, Note_on_c, 0, 60, 52
1, 173225, Note_on_c, 0, 54, 25
1, 173275, Note_off_c, 0, 60, 62
1, 173284, Note_off_c, 0, 54, 53
1, 173292, Note_off_c, 0, 72, 62
1, 173318, Note_off_c, 0, 58, 38
1, 173397, Note_on_c, 0, 73, 77
1, 173404, Note_on_c, 0, 58, 33
1, 173406, Note_on_c, 0, 61, 68
1, 173421, Note_on_c, 0, 54, 41
1, 173467, Note_off_c, 0, 61, 61
1, 173468, Note_off_c, 0, 54, 56
1, 173475, Note_off_c, 0, 73, 64
1, 173477, Note_off_c, 0, 58, 52
1, 173561, Note_on_c, 0, 75, 80
1, 173569, Note_on_c, 0, 63, 73
1, 173571, Note_on_c, 0, 60, 56
1, 173580, Note_on_c, 0, 58, 41
1, 173603, Note_off_c, 0, 60, 65
1, 173603, Note_off_c, 0, 63, 63
1, 173614, Note_off_c, 0, 58, 55
1, 173617, Note_off_c, 0, 75, 62
1, 173629, Note_on_c, 0, 54, 3
1, 173667, Note_off_c, 0, 54, 52
1, 173700, Note_on_c, 0, 75, 60
1, 173781, Note_on_c, 0, 41, 54
1, 173787, Control_c, 0, 64, 92
1, 173801, Note_off_c, 0, 75, 61
1, 173802, Control_c, 0, 64, 70
1, 173808, Note_on_c, 0, 78, 71
1, 173817, Control_c, 0, 64, 53
1, 173822, Note_on_c, 0, 66, 57
1, 173831, Control_c, 0, 64, 12
1, 173846, Control_c, 0, 64, 30
1, 173861, Control_c, 0, 64, 47
1, 173876, Control_c, 0, 64, 58
1, 173888, Note_off_c, 0, 41, 63
1, 173891, Control_c, 0, 64, 66
1, 173906, Control_c, 0, 64, 76
1, 173921, Control_c, 0, 64, 121
1, 173936, Control_c, 0, 64, 127
1, 173977, Note_off_c, 0, 78, 59
1, 173987, Note_off_c, 0, 66, 57
1, 174046, Note_on_c, 0, 61, 53
1, 174060, Note_on_c, 0, 53, 41
1, 174061, Note_on_c, 0, 58, 47
1, 174110, Note_off_c, 0, 53, 59
1, 174117, Note_off_c, 0, 58, 55
1, 174126, Note_off_c, 0, 61, 55
1, 174196, Note_on_c, 0, 61, 31
1, 174213, Note_on_c, 0, 58, 42
1, 174220, Note_on_c, 0, 53, 50
1, 174246, Note_on_c, 0, 77, 78
1, 174253, Note_on_c, 0, 65, 70
1, 174280, Note_off_c, 0, 53, 52
1, 174299, Note_off_c, 0, 58, 45
1, 174301, Note_off_c, 0, 61, 51
1, 174320, Note_off_c, 0, 65, 60
1, 174333, Note_off_c, 0, 77, 60
1, 174410, Note_on_c, 0, 61, 51
1, 174412, Note_on_c, 0, 77, 84
1, 174415, Note_on_c, 0, 58, 36
1, 174416, Note_on_c, 0, 53, 53
1, 174424, Note_on_c, 0, 65, 72
1, 174453, Note_off_c, 0, 65, 62
1, 174484, Note_off_c, 0, 53, 60
1, 174499, Note_off_c, 0, 77, 66
1, 174514, Note_off_c, 0, 61, 53
1, 174602, Note_on_c, 0, 61, 45
1, 174607, Note_on_c, 0, 52, 68
1, 174609, Note_on_c, 0, 82, 90
1, 174612, Note_on_c, 0, 70, 85
1, 174626, Control_c, 0, 64, 119
1, 174641, Control_c, 0, 64, 90
1, 174655, Control_c, 0, 64, 76
1, 174670, Control_c, 0, 64, 68
1, 174699, Control_c, 0, 64, 73
1, 174712, Note_off_c, 0, 70, 62
1, 174714, Control_c, 0, 64, 83
1, 174723, Note_off_c, 0, 52, 62
1, 174724, Poly_aftertouch_c, 0, 80, 0
1, 174729, Control_c, 0, 64, 107
1, 174740, Note_off_c, 0, 82, 64
1, 174744, Control_c, 0, 64, 127
1, 174776, Note_off_c, 0, 61, 0
1, 174791, Note_on_c, 0, 61, 35
1, 174806, Note_on_c, 0, 53, 70
1, 174806, Note_on_c, 0, 85, 93
1, 174811, Note_on_c, 0, 73, 94
1, 174833, Control_c, 0, 64, 89
1, 174848, Control_c, 0, 64, 71
1, 174863, Control_c, 0, 64, 62
1, 174878, Control_c, 0, 64, 61
1, 174883, Note_off_c, 0, 61, 62
1, 174892, Control_c, 0, 64, 65
1, 174893, Note_off_c, 0, 58, 63
1, 174907, Control_c, 0, 64, 71
1, 174910, Note_off_c, 0, 53, 64
1, 174922, Control_c, 0, 64, 86
1, 174937, Control_c, 0, 64, 127
1, 175024, Note_off_c, 0, 73, 60
1, 175025, Note_off_c, 0, 85, 62
1, 175067, Note_on_c, 0, 40, 69
1, 175101, Control_c, 0, 64, 93
1, 175116, Control_c, 0, 64, 66
1, 175117, Note_on_c, 0, 85, 91
1, 175121, Note_on_c, 0, 73, 88
1, 175130, Control_c, 0, 64, 38
1, 175145, Control_c, 0, 64, 12
1, 175160, Control_c, 0, 64, 39
1, 175175, Control_c, 0, 64, 53
1, 175190, Control_c, 0, 64, 62
1, 175199, Note_off_c, 0, 40, 63
1, 175204, Control_c, 0, 64, 71
1, 175219, Control_c, 0, 64, 97
1, 175234, Control_c, 0, 64, 127
1, 175374, Note_on_c, 0, 61, 69
1, 175394, Note_on_c, 0, 55, 42
1, 175401, Note_on_c, 0, 58, 60
1, 175402, Note_on_c, 0, 52, 54
1, 175445, Note_off_c, 0, 52, 59
1, 175477, Note_off_c, 0, 61, 60
1, 175487, Note_off_c, 0, 58, 52
1, 175494, Note_off_c, 0, 85, 57
1, 175536, Note_off_c, 0, 73, 63
1, 175548, Note_on_c, 0, 60, 69
1, 175553, Note_on_c, 0, 52, 61
1, 175557, Note_on_c, 0, 58, 40
1, 175576, Note_off_c, 0, 60, 66
1, 175586, Note_off_c, 0, 52, 67
1, 175587, Note_off_c, 0, 58, 63
1, 175588, Note_on_c, 0, 84, 94
1, 175593, Note_on_c, 0, 72, 86
1, 175612, Note_off_c, 0, 55, 19
1, 175701, Note_off_c, 0, 72, 61
1, 175704, Note_off_c, 0, 84, 62
1, 175730, Control_c, 0, 64, 104
1, 175736, Note_on_c, 0, 41, 70
1, 175745, Control_c, 0, 64, 72
1, 175760, Control_c, 0, 64, 50
1, 175775, Control_c, 0, 64, 17
1, 175785, Note_on_c, 0, 84, 84
1, 175790, Control_c, 0, 64, 45
1, 175793, Note_on_c, 0, 72, 80
1, 175804, Control_c, 0, 64, 58
1, 175818, Note_off_c, 0, 41, 64
1, 175819, Control_c, 0, 64, 66
1, 175834, Control_c, 0, 64, 77
1, 175849, Control_c, 0, 64, 107
1, 175864, Control_c, 0, 64, 127
1, 175868, Note_off_c, 0, 72, 61
1, 175902, Note_off_c, 0, 84, 65
1, 176030, Note_on_c, 0, 87, 88
1, 176033, Note_on_c, 0, 66, 58
1, 176037, Note_on_c, 0, 75, 77
1, 176038, Note_on_c, 0, 60, 47
1, 176055, Note_on_c, 0, 53, 54
1, 176070, Note_on_c, 0, 57, 34
1, 176097, Note_off_c, 0, 60, 61
1, 176103, Note_off_c, 0, 57, 53
1, 176108, Note_off_c, 0, 53, 58
1, 176111, Note_off_c, 0, 87, 65
1, 176117, Note_off_c, 0, 75, 61
1, 176127, Note_off_c, 0, 66, 62
1, 176213, Control_c, 0, 64, 106
1, 176227, Control_c, 0, 64, 86
1, 176231, Note_on_c, 0, 81, 86
1, 176237, Note_on_c, 0, 65, 52
1, 176239, Note_on_c, 0, 69, 83
1, 176240, Note_on_c, 0, 60, 52
1, 176242, Control_c, 0, 64, 73
1, 176253, Note_on_c, 0, 53, 54
1, 176256, Note_on_c, 0, 63, 48
1, 176257, Control_c, 0, 64, 71
1, 176261, Note_off_c, 0, 65, 58
1, 176271, Control_c, 0, 64, 75
1, 176279, Note_off_c, 0, 63, 59
1, 176279, Note_off_c, 0, 60, 65
1, 176286, Control_c, 0, 64, 82
1, 176296, Note_off_c, 0, 53, 64
1, 176301, Control_c, 0, 64, 96
1, 176316, Control_c, 0, 64, 127
1, 176335, Note_off_c, 0, 69, 63
1, 176344, Note_off_c, 0, 81, 65
1, 176419, Control_c, 0, 64, 112
1, 176422, Note_on_c, 0, 46, 55
1, 176434, Control_c, 0, 64, 72
1, 176448, Control_c, 0, 64, 48
1, 176453, Note_on_c, 0, 82, 70
1, 176463, Control_c, 0, 64, 0
1, 176466, Note_on_c, 0, 70, 62
1, 176474, Note_off_c, 0, 46, 0
1, 176474, Note_on_c, 0, 46, 18
1, 176493, Control_c, 0, 64, 15
1, 176508, Control_c, 0, 64, 45
1, 176523, Control_c, 0, 64, 62
1, 176532, Note_off_c, 0, 46, 62
1, 176538, Control_c, 0, 64, 70
1, 176552, Control_c, 0, 64, 81
1, 176567, Control_c, 0, 64, 107
1, 176582, Control_c, 0, 64, 127
1, 176649, Note_on_c, 0, 61, 61
1, 176669, Note_on_c, 0, 53, 45
1, 176672, Note_on_c, 0, 58, 50
1, 176746, Note_off_c, 0, 53, 55
1, 176755, Note_off_c, 0, 61, 60
1, 176779, Note_off_c, 0, 58, 51
1, 176833, Note_on_c, 0, 60, 74
1, 176855, Note_on_c, 0, 57, 57
1, 176861, Note_on_c, 0, 53, 48
1, 176891, Note_off_c, 0, 60, 64
1, 176900, Note_off_c, 0, 53, 62
1, 176990, Control_c, 0, 64, 107
1, 176997, Note_on_c, 0, 61, 73
1, 177001, Note_on_c, 0, 53, 56
1, 177005, Control_c, 0, 64, 87
1, 177012, Note_on_c, 0, 58, 63
1, 177016, Note_off_c, 0, 57, 51
1, 177020, Control_c, 0, 64, 75
1, 177035, Control_c, 0, 64, 68
1, 177044, Note_off_c, 0, 82, 59
1, 177049, Control_c, 0, 64, 65
1, 177064, Control_c, 0, 64, 67
1, 177079, Control_c, 0, 64, 72
1, 177083, Note_off_c, 0, 61, 62
1, 177092, Note_off_c, 0, 53, 57
1, 177092, Note_off_c, 0, 58, 63
1, 177093, Control_c, 0, 64, 77
1, 177108, Control_c, 0, 64, 86
1, 177123, Control_c, 0, 64, 106
1, 177138, Control_c, 0, 64, 127
1, 177187, Note_on_c, 0, 65, 63
1, 177197, Note_on_c, 0, 61, 64
1, 177208, Note_on_c, 0, 53, 54
1, 177252, Note_off_c, 0, 65, 60
1, 177269, Note_off_c, 0, 53, 52
1, 177271, Control_c, 0, 64, 100
1, 177279, Note_off_c, 0, 61, 61
1, 177286, Control_c, 0, 64, 87
1, 177301, Control_c, 0, 64, 78
1, 177316, Control_c, 0, 64, 72
1, 177323, Note_on_c, 0, 73, 83
1, 177331, Control_c, 0, 64, 69
1, 177346, Control_c, 0, 64, 69
1, 177360, Control_c, 0, 64, 70
1, 177375, Control_c, 0, 64, 73
1, 177390, Control_c, 0, 64, 78
1, 177396, Note_off_c, 0, 70, 56
1, 177402, Note_on_c, 0, 61, 62
1, 177404, Note_on_c, 0, 53, 51
1, 177405, Control_c, 0, 64, 87
1, 177406, Note_on_c, 0, 58, 61
1, 177420, Control_c, 0, 64, 110
1, 177435, Control_c, 0, 64, 127
1, 177461, Note_off_c, 0, 61, 60
1, 177473, Note_off_c, 0, 53, 61
1, 177480, Note_off_c, 0, 58, 62
1, 177593, Note_off_c, 0, 73, 62
1, 177658, Note_on_c, 0, 40, 60
1, 177680, Control_c, 0, 64, 99
1, 177694, Control_c, 0, 64, 76
1, 177709, Control_c, 0, 64, 61
1, 177722, Note_on_c, 0, 73, 78
1, 177724, Control_c, 0, 64, 23
1, 177739, Control_c, 0, 64, 21
1, 177754, Control_c, 0, 64, 34
1, 177769, Control_c, 0, 64, 47
1, 177784, Control_c, 0, 64, 56
1, 177798, Control_c, 0, 64, 63
1, 177808, Note_off_c, 0, 40, 63
1, 177813, Control_c, 0, 64, 69
1, 177828, Control_c, 0, 64, 83
1, 177844, Control_c, 0, 64, 119
1, 177858, Control_c, 0, 64, 127
1, 178006, Note_on_c, 0, 61, 57
1, 178017, Note_on_c, 0, 51, 53
1, 178028, Note_on_c, 0, 55, 44
1, 178043, Note_on_c, 0, 58, 39
1, 178055, Note_off_c, 0, 51, 64
1, 178097, Note_off_c, 0, 61, 61
1, 178105, Note_off_c, 0, 55, 54
1, 178109, Note_off_c, 0, 58, 50
1, 178177, Note_on_c, 0, 72, 75
1, 178180, Note_on_c, 0, 58, 45
1, 178184, Note_on_c, 0, 60, 55
1, 178207, Note_on_c, 0, 52, 50
1, 178214, Note_off_c, 0, 60, 65
1, 178219, Note_off_c, 0, 58, 63
1, 178234, Note_off_c, 0, 52, 64
1, 178235, Note_off_c, 0, 73, 59
1, 178301, Note_off_c, 0, 72, 63
1, 178355, Control_c, 0, 64, 93
1, 178370, Control_c, 0, 64, 69
1, 178383, Note_on_c, 0, 41, 52
1, 178385, Control_c, 0, 64, 43
1, 178396, Note_on_c, 0, 72, 70
1, 178400, Control_c, 0, 64, 21
1, 178415, Control_c, 0, 64, 41
1, 178429, Control_c, 0, 64, 53
1, 178444, Control_c, 0, 64, 62
1, 178449, Note_off_c, 0, 41, 64
1, 178459, Control_c, 0, 64, 71
1, 178473, Control_c, 0, 64, 90
1, 178488, Control_c, 0, 64, 127
1, 178592, Note_off_c, 0, 72, 64
1, 178595, Note_on_c, 0, 75, 77
1, 178610, Note_on_c, 0, 60, 51
1, 178619, Note_on_c, 0, 66, 53
1, 178626, Note_on_c, 0, 57, 44
1, 178630, Note_on_c, 0, 53, 45
1, 178664, Note_off_c, 0, 60, 59
1, 178683, Note_off_c, 0, 53, 60
1, 178738, Note_off_c, 0, 66, 37
1, 178800, Note_on_c, 0, 69, 72
1, 178800, Control_c, 0, 64, 91
1, 178810, Note_on_c, 0, 60, 46
1, 178812, Note_on_c, 0, 63, 48
1, 178814, Control_c, 0, 64, 74
1, 178818, Note_on_c, 0, 53, 44
1, 178829, Control_c, 0, 64, 63
1, 178830, Note_on_c, 0, 65, 48
1, 178842, Note_off_c, 0, 75, 53
1, 178844, Control_c, 0, 64, 57
1, 178845, Note_off_c, 0, 57, 31
1, 178857, Note_off_c, 0, 63, 63
1, 178859, Control_c, 0, 64, 62
1, 178866, Note_off_c, 0, 60, 62
1, 178873, Control_c, 0, 64, 65
1, 178875, Note_off_c, 0, 53, 62
1, 178888, Control_c, 0, 64, 69
1, 178903, Control_c, 0, 64, 78
1, 178918, Control_c, 0, 64, 97
1, 178920, Note_off_c, 0, 65, 49
1, 178930, Note_off_c, 0, 69, 61
1, 178933, Control_c, 0, 64, 127
1, 179029, Note_on_c, 0, 46, 48
1, 179029, Control_c, 0, 64, 82
1, 179045, Control_c, 0, 64, 60
1, 179048, Note_on_c, 0, 70, 63
1, 179060, Control_c, 0, 64, 12
1, 179075, Control_c, 0, 64, 0
1, 179077, Note_on_c, 0, 65, 42
1, 179090, Control_c, 0, 64, 32
1, 179104, Control_c, 0, 64, 51
1, 179119, Control_c, 0, 64, 63
1, 179128, Note_off_c, 0, 46, 60
1, 179134, Control_c, 0, 64, 73
1, 179149, Control_c, 0, 64, 92
1, 179163, Control_c, 0, 64, 127
1, 179265, Note_on_c, 0, 61, 51
1, 179283, Note_on_c, 0, 53, 39
1, 179289, Note_on_c, 0, 58, 39
1, 179357, Note_off_c, 0, 53, 52
1, 179379, Note_off_c, 0, 61, 54
1, 179442, Note_off_c, 0, 58, 0
1, 179453, Note_on_c, 0, 60, 57
1, 179456, Note_off_c, 0, 65, 32
1, 179478, Poly_aftertouch_c, 0, 58, 0
1, 179486, Note_on_c, 0, 57, 46
1, 179486, Note_on_c, 0, 53, 32
1, 179512, Note_off_c, 0, 60, 61
1, 179532, Note_off_c, 0, 53, 51
1, 179637, Control_c, 0, 67, 12
1, 179652, Control_c, 0, 64, 105
1, 179652, Control_c, 0, 67, 24
1, 179655, Note_on_c, 0, 61, 51
1, 179667, Control_c, 0, 64, 83
1, 179667, Control_c, 0, 67, 36
1, 179671, Note_on_c, 0, 53, 39
1, 179679, Note_off_c, 0, 57, 34
1, 179682, Control_c, 0, 64, 67
1, 179682, Control_c, 0, 67, 48
1, 179683, Note_on_c, 0, 58, 44
1, 179696, Control_c, 0, 64, 58
1, 179696, Control_c, 0, 67, 60
1, 179711, Control_c, 0, 64, 56
1, 179711, Control_c, 0, 67, 72
1, 179726, Control_c, 0, 64, 60
1, 179726, Control_c, 0, 67, 82
1, 179748, Control_c, 0, 64, 63
1, 179748, Control_c, 0, 67, 89
1, 179763, Control_c, 0, 64, 65
1, 179763, Control_c, 0, 67, 95
1, 179773, Note_off_c, 0, 61, 61
1, 179778, Control_c, 0, 64, 72
1, 179778, Control_c, 0, 67, 99
1, 179784, Note_off_c, 0, 58, 58
1, 179787, Note_off_c, 0, 53, 47
1, 179793, Control_c, 0, 64, 85
1, 179793, Control_c, 0, 67, 103
1, 179808, Control_c, 0, 64, 121
1, 179808, Control_c, 0, 67, 108
1, 179823, Control_c, 0, 64, 127
1, 179823, Control_c, 0, 67, 110
1, 179838, Control_c, 0, 67, 113
1, 179853, Control_c, 0, 67, 115
1, 179868, Control_c, 0, 67, 119
1, 179882, Control_c, 0, 67, 121
1, 179897, Control_c, 0, 64, 119
1, 179897, Control_c, 0, 67, 122
1, 179900, Note_on_c, 0, 73, 59
1, 179912, Control_c, 0, 64, 91
1, 179927, Note_on_c, 0, 65, 44
1, 179927, Control_c, 0, 64, 75
1, 179928, Note_on_c, 0, 61, 41
1, 179942, Note_on_c, 0, 53, 41
1, 179942, Control_c, 0, 64, 64
1, 179957, Control_c, 0, 64, 54
1, 179972, Control_c, 0, 64, 59
1, 179986, Control_c, 0, 64, 62
1, 180001, Control_c, 0, 64, 64
1, 180002, Note_off_c, 0, 65, 55
1, 180016, Control_c, 0, 64, 68
1, 180017, Note_off_c, 0, 53, 48
1, 180031, Control_c, 0, 64, 76
1, 180046, Control_c, 0, 64, 91
1, 180059, Note_off_c, 0, 61, 61
1, 180061, Control_c, 0, 64, 127
1, 180103, Control_c, 0, 67, 122
1, 180118, Control_c, 0, 67, 121
1, 180174, Note_on_c, 0, 77, 57
1, 180178, Control_c, 0, 64, 96
1, 180192, Control_c, 0, 64, 76
1, 180201, Note_on_c, 0, 61, 45
1, 180207, Control_c, 0, 64, 62
1, 180221, Note_on_c, 0, 53, 13
1, 180221, Note_off_c, 0, 70, 26
1, 180222, Control_c, 0, 64, 45
1, 180229, Note_on_c, 0, 58, 38
1, 180237, Control_c, 0, 64, 47
1, 180237, Control_c, 0, 67, 120
1, 180252, Control_c, 0, 64, 56
1, 180266, Control_c, 0, 64, 61
1, 180281, Control_c, 0, 64, 66
1, 180288, Note_off_c, 0, 61, 58
1, 180296, Control_c, 0, 64, 74
1, 180309, Note_off_c, 0, 58, 59
1, 180310, Control_c, 0, 64, 93
1, 180323, Note_off_c, 0, 53, 59
1, 180325, Control_c, 0, 64, 127
1, 180366, Note_off_c, 0, 73, 62
1, 180389, Note_off_c, 0, 77, 59
1, 180527, Note_on_c, 0, 42, 44
1, 180555, Control_c, 0, 64, 99
1, 180570, Control_c, 0, 64, 78
1, 180577, Note_on_c, 0, 77, 59
1, 180585, Control_c, 0, 64, 63
1, 180599, Control_c, 0, 64, 45
1, 180601, Note_on_c, 0, 73, 44
1, 180629, Control_c, 0, 64, 54
1, 180645, Control_c, 0, 64, 58
1, 180660, Control_c, 0, 64, 62
1, 180675, Control_c, 0, 64, 67
1, 180675, Control_c, 0, 67, 120
1, 180681, Note_off_c, 0, 42, 57
1, 180689, Control_c, 0, 64, 75
1, 180704, Control_c, 0, 64, 89
1, 180719, Control_c, 0, 64, 127
1, 180793, Control_c, 0, 67, 119
1, 180837, Control_c, 0, 67, 119
1, 180862, Note_off_c, 0, 77, 53
1, 180917, Note_on_c, 0, 58, 39
1, 180923, Note_on_c, 0, 54, 39
1, 180979, Note_off_c, 0, 73, 55
1, 180997, Note_off_c, 0, 54, 53
1, 181013, Note_off_c, 0, 58, 53
1, 181045, Control_c, 0, 67, 118
1, 181104, Control_c, 0, 67, 117
1, 181133, Note_on_c, 0, 60, 36
1, 181147, Note_on_c, 0, 54, 41
1, 181148, Control_c, 0, 67, 117
1, 181169, Poly_aftertouch_c, 0, 58, 127
1, 181187, Note_off_c, 0, 60, 60
1, 181194, Note_on_c, 0, 72, 58
1, 181195, Note_off_c, 0, 54, 61
1, 181205, Note_on_c, 0, 75, 54
1, 181212, Poly_aftertouch_c, 0, 58, 0
1, 181311, Note_off_c, 0, 75, 56
1, 181322, Note_off_c, 0, 72, 61
1, 181408, Control_c, 0, 64, 101
1, 181422, Note_on_c, 0, 41, 41
1, 181422, Control_c, 0, 64, 80
1, 181438, Control_c, 0, 64, 66
1, 181442, Note_on_c, 0, 75, 57
1, 181446, Note_on_c, 0, 72, 55
1, 181453, Control_c, 0, 64, 53
1, 181468, Control_c, 0, 64, 56
1, 181483, Control_c, 0, 64, 61
1, 181498, Control_c, 0, 64, 64
1, 181512, Control_c, 0, 64, 69
1, 181526, Note_off_c, 0, 41, 64
1, 181527, Control_c, 0, 64, 80
1, 181542, Control_c, 0, 64, 102
1, 181557, Control_c, 0, 64, 127
1, 181587, Control_c, 0, 67, 116
1, 181602, Note_off_c, 0, 75, 60
1, 181661, Control_c, 0, 67, 115
1, 181690, Control_c, 0, 67, 115
1, 181705, Control_c, 0, 67, 114
1, 181731, Note_on_c, 0, 78, 68
1, 181734, Note_on_c, 0, 75, 62
1, 181735, Control_c, 0, 67, 114
1, 181746, Note_on_c, 0, 57, 36
1, 181748, Note_on_c, 0, 60, 37
1, 181776, Note_on_c, 0, 53, 35
1, 181797, Note_off_c, 0, 72, 54
1, 181814, Note_off_c, 0, 60, 56
1, 181836, Note_off_c, 0, 53, 56
1, 181861, Note_off_c, 0, 75, 62
1, 181889, Note_off_c, 0, 78, 60
1, 182083, Control_c, 0, 64, 108
1, 182090, Note_off_c, 0, 57, 39
1, 182097, Control_c, 0, 64, 84
1, 182098, Note_on_c, 0, 63, 35
1, 182098, Note_on_c, 0, 81, 61
1, 182101, Note_on_c, 0, 53, 41
1, 182102, Note_on_c, 0, 60, 35
1, 182107, Note_on_c, 0, 69, 58
1, 182112, Control_c, 0, 64, 66
1, 182112, Control_c, 0, 67, 113
1, 182118, Note_on_c, 0, 72, 43
1, 182127, Control_c, 0, 64, 54
1, 182136, Note_on_c, 0, 77, 24
1, 182142, Control_c, 0, 64, 45
1, 182157, Control_c, 0, 64, 49
1, 182172, Control_c, 0, 64, 53
1, 182187, Control_c, 0, 64, 59
1, 182202, Control_c, 0, 64, 64
1, 182217, Control_c, 0, 64, 70
1, 182222, Note_off_c, 0, 63, 52
1, 182231, Control_c, 0, 64, 82
1, 182235, Note_off_c, 0, 60, 60
1, 182247, Control_c, 0, 64, 111
1, 182261, Control_c, 0, 64, 127
1, 182276, Control_c, 0, 67, 114
1, 182282, Note_off_c, 0, 81, 51
1, 182286, Note_off_c, 0, 77, 32
1, 182291, Note_off_c, 0, 53, 48
1, 182291, Control_c, 0, 67, 114
1, 182317, Note_off_c, 0, 72, 52
1, 182321, Control_c, 0, 67, 115
1, 182355, Note_off_c, 0, 69, 56
1, 182380, Control_c, 0, 67, 115
1, 182633, Note_on_c, 0, 34, 41
1, 182661, Control_c, 0, 64, 98
1, 182669, Note_on_c, 0, 82, 54
1, 182676, Control_c, 0, 64, 77
1, 182676, Control_c, 0, 67, 115
1, 182682, Note_on_c, 0, 73, 38
1, 182682, Note_on_c, 0, 77, 43
1, 182690, Control_c, 0, 64, 63
1, 182693, Note_on_c, 0, 70, 40
1, 182705, Control_c, 0, 64, 43
1, 182720, Control_c, 0, 64, 32
1, 182742, Control_c, 0, 64, 39
1, 182757, Control_c, 0, 64, 51
1, 182772, Control_c, 0, 64, 59
1, 182786, Control_c, 0, 64, 65
1, 182801, Control_c, 0, 64, 73
1, 182816, Control_c, 0, 64, 88
1, 182831, Control_c, 0, 64, 127
1, 182845, Note_off_c, 0, 34, 39
1, 183039, Control_c, 0, 67, 114
1, 183099, Control_c, 0, 67, 114
1, 183173, Control_c, 0, 67, 113
1, 183217, Control_c, 0, 67, 112
1, 183252, Note_on_c, 0, 61, 31
1, 183263, Note_on_c, 0, 53, 26
1, 183266, Note_on_c, 0, 58, 26
1, 183418, Note_off_c, 0, 53, 41
1, 183418, Note_off_c, 0, 61, 33
1, 183469, Control_c, 0, 67, 112
1, 183565, Control_c, 0, 67, 111
1, 183603, Note_on_c, 0, 61, 31
1, 183604, Note_on_c, 0, 65, 39
1, 183644, Note_on_c, 0, 53, 29
1, 183654, Note_off_c, 0, 58, 36
1, 183779, Note_off_c, 0, 65, 33
1, 183782, Note_off_c, 0, 53, 31
1, 183797, Note_off_c, 0, 61, 40
1, 184111, Note_on_c, 0, 61, 28
1, 184127, Note_on_c, 0, 53, 27
1, 184127, Note_on_c, 0, 58, 13
1, 184813, Note_off_c, 0, 82, 35
1, 184829, Note_off_c, 0, 70, 32
1, 184900, Note_off_c, 0, 53, 30
1, 184914, Note_off_c, 0, 73, 31
1, 184941, Note_off_c, 0, 77, 26
1, 184950, Note_off_c, 0, 58, 28
1, 184954, Note_off_c, 0, 61, 26
1, 185019, Control_c, 0, 67, 112
1, 185196, Control_c, 0, 64, 121
1, 185211, Control_c, 0, 64, 118
1, 185226, Control_c, 0, 64, 114
1, 185241, Control_c, 0, 64, 110
1, 185255, Control_c, 0, 64, 106
1, 185270, Control_c, 0, 64, 104
1, 185285, Control_c, 0, 64, 102
1, 185300, Control_c, 0, 64, 101
1, 185314, Control_c, 0, 64, 99
1, 185330, Control_c, 0, 64, 97
1, 185345, Control_c, 0, 64, 95
1, 185360, Control_c, 0, 64, 94
1, 185375, Control_c, 0, 64, 93
1, 185389, Control_c, 0, 64, 92
1, 185404, Control_c, 0, 64, 91
1, 185419, Control_c, 0, 64, 90
1, 185435, Control_c, 0, 64, 89
1, 185450, Control_c, 0, 64, 88
1, 185465, Control_c, 0, 64, 88
1, 185494, Control_c, 0, 64, 87
1, 185509, Control_c, 0, 64, 86
1, 185524, Control_c, 0, 64, 85
1, 185539, Control_c, 0, 64, 84
1, 185539, Control_c, 0, 67, 112
1, 185553, Control_c, 0, 64, 83
1, 185583, Control_c, 0, 64, 82
1, 185597, Control_c, 0, 64, 82
1, 185612, Control_c, 0, 64, 81
1, 185627, Control_c, 0, 64, 80
1, 185642, Control_c, 0, 64, 80
1, 185657, Control_c, 0, 64, 79
1, 185671, Control_c, 0, 64, 78
1, 185686, Control_c, 0, 64, 78
1, 185701, Control_c, 0, 64, 77
1, 185738, Control_c, 0, 64, 76
1, 185753, Control_c, 0, 64, 76
1, 185768, Control_c, 0, 64, 75
1, 185798, Control_c, 0, 64, 74
1, 185812, Control_c, 0, 64, 74
1, 185842, Control_c, 0, 64, 73
1, 185857, Control_c, 0, 64, 73
1, 185886, Control_c, 0, 64, 72
1, 185916, Control_c, 0, 64, 72
1, 185946, Control_c, 0, 64, 71
1, 185961, Control_c, 0, 64, 71
1, 185961, Control_c, 0, 67, 113
1, 185975, Control_c, 0, 64, 70
1, 186005, Control_c, 0, 64, 70
1, 186020, Control_c, 0, 64, 69
1, 186050, Control_c, 0, 64, 69
1, 186079, Control_c, 0, 64, 68
1, 186094, Control_c, 0, 64, 68
1, 186124, Control_c, 0, 64, 67
1, 186153, Control_c, 0, 64, 67
1, 186212, Control_c, 0, 64, 66
1, 186212, Control_c, 0, 67, 114
1, 186288, Control_c, 0, 64, 66
1, 186317, Control_c, 0, 67, 114
1, 186376, Control_c, 0, 64, 65
1, 186465, Control_c, 0, 64, 65
1, 186547, Control_c, 0, 64, 64
1, 186635, Control_c, 0, 64, 64
1, 186739, Control_c, 0, 64, 63
1, 186813, Control_c, 0, 64, 63
1, 186846, Note_on_c, 0, 73, 40
1, 186872, Control_c, 0, 64, 62
1, 186931, Control_c, 0, 64, 62
1, 186975, Control_c, 0, 64, 61
1, 187005, Control_c, 0, 64, 61
1, 187036, Control_c, 0, 64, 60
1, 187050, Control_c, 0, 64, 60
1, 187065, Control_c, 0, 64, 59
1, 187080, Control_c, 0, 64, 59
1, 187095, Control_c, 0, 64, 58
1, 187236, Control_c, 0, 64, 59
1, 187251, Control_c, 0, 64, 59
1, 187265, Control_c, 0, 64, 60
1, 187280, Control_c, 0, 64, 60
1, 187295, Control_c, 0, 64, 61
1, 187310, Control_c, 0, 64, 61
1, 187325, Control_c, 0, 64, 62
1, 187339, Control_c, 0, 64, 63
1, 187354, Control_c, 0, 64, 64
1, 187369, Control_c, 0, 64, 65
1, 187383, Control_c, 0, 64, 65
1, 187398, Control_c, 0, 64, 66
1, 187413, Control_c, 0, 64, 67
1, 187443, Control_c, 0, 64, 67
1, 187509, Note_on_c, 0, 42, 25
1, 187561, Control_c, 0, 64, 67
1, 187606, Control_c, 0, 64, 66
1, 187622, Note_on_c, 0, 61, 35
1, 187636, Note_off_c, 0, 73, 40
1, 187650, Control_c, 0, 64, 66
1, 187680, Control_c, 0, 64, 65
1, 187709, Control_c, 0, 64, 65
1, 187739, Control_c, 0, 64, 64
1, 187754, Control_c, 0, 64, 64
1, 187783, Control_c, 0, 64, 63
1, 187798, Control_c, 0, 64, 63
1, 187813, Control_c, 0, 64, 62
1, 187814, Note_off_c, 0, 61, 44
1, 187829, Control_c, 0, 64, 62
1, 187844, Note_on_c, 0, 73, 32
1, 187844, Control_c, 0, 64, 61
1, 187848, Note_off_c, 0, 42, 47
1, 187859, Control_c, 0, 64, 60
1, 187873, Control_c, 0, 64, 58
1, 187885, Note_on_c, 0, 49, 38
1, 187888, Control_c, 0, 64, 56
1, 187903, Control_c, 0, 64, 50
1, 187918, Control_c, 0, 64, 40
1, 187929, Note_off_c, 0, 73, 57
1, 187933, Control_c, 0, 64, 0
1, 187958, Note_off_c, 0, 49, 56
1, 187982, Note_on_c, 0, 70, 35
1, 187990, Note_on_c, 0, 58, 43
1, 187993, Note_on_c, 0, 66, 34
1, 188074, Control_c, 0, 67, 114
1, 188088, Control_c, 0, 64, 24
1, 188103, Control_c, 0, 64, 38
1, 188103, Control_c, 0, 67, 113
1, 188118, Control_c, 0, 64, 49
1, 188128, Note_on_c, 0, 73, 43
1, 188133, Control_c, 0, 64, 57
1, 188147, Note_off_c, 0, 66, 35
1, 188148, Control_c, 0, 64, 61
1, 188162, Control_c, 0, 64, 64
1, 188177, Control_c, 0, 64, 66
1, 188192, Control_c, 0, 64, 70
1, 188197, Note_off_c, 0, 70, 22
1, 188199, Note_off_c, 0, 73, 56
1, 188206, Control_c, 0, 64, 76
1, 188221, Control_c, 0, 64, 83
1, 188231, Note_off_c, 0, 58, 36
1, 188236, Control_c, 0, 64, 90
1, 188247, Note_on_c, 0, 61, 43
1, 188251, Control_c, 0, 64, 97
1, 188266, Control_c, 0, 64, 104
1, 188280, Control_c, 0, 64, 110
1, 188292, Note_off_c, 0, 61, 54
1, 188295, Control_c, 0, 64, 111
1, 188310, Control_c, 0, 64, 110
1, 188324, Control_c, 0, 64, 109
1, 188338, Note_on_c, 0, 73, 50
1, 188339, Control_c, 0, 64, 107
1, 188354, Control_c, 0, 64, 104
1, 188369, Control_c, 0, 64, 99
1, 188378, Note_on_c, 0, 54, 54
1, 188384, Control_c, 0, 64, 94
1, 188399, Control_c, 0, 64, 87
1, 188413, Note_off_c, 0, 73, 57
1, 188414, Control_c, 0, 64, 78
1, 188426, Note_off_c, 0, 54, 62
1, 188429, Control_c, 0, 64, 67
1, 188443, Note_on_c, 0, 58, 54
1, 188444, Control_c, 0, 64, 45
1, 188444, Note_on_c, 0, 70, 46
1, 188459, Control_c, 0, 64, 0
1, 188476, Note_on_c, 0, 66, 23
1, 188488, Control_c, 0, 67, 114
1, 188532, Control_c, 0, 64, 23
1, 188545, Note_off_c, 0, 66, 40
1, 188546, Note_off_c, 0, 70, 37
1, 188547, Control_c, 0, 64, 40
1, 188562, Control_c, 0, 64, 51
1, 188573, Note_on_c, 0, 73, 40
1, 188577, Control_c, 0, 64, 59
1, 188592, Control_c, 0, 64, 64
1, 188606, Control_c, 0, 64, 68
1, 188621, Note_off_c, 0, 58, 53
1, 188622, Control_c, 0, 64, 74
1, 188635, Note_off_c, 0, 73, 58
1, 188637, Control_c, 0, 64, 82
1, 188652, Control_c, 0, 64, 90
1, 188667, Control_c, 0, 64, 100
1, 188682, Control_c, 0, 64, 114
1, 188696, Control_c, 0, 64, 127
1, 188697, Note_on_c, 0, 61, 36
1, 188769, Note_off_c, 0, 61, 44
1, 188831, Note_on_c, 0, 73, 28
1, 188893, Note_off_c, 0, 73, 47
1, 188927, Note_on_c, 0, 54, 48
1, 188959, Note_on_c, 0, 66, 33
1, 188962, Note_on_c, 0, 70, 26
1, 189054, Note_on_c, 0, 73, 46
1, 189073, Note_off_c, 0, 66, 34
1, 189118, Note_off_c, 0, 73, 56
1, 189133, Note_off_c, 0, 70, 20
1, 189144, Note_on_c, 0, 49, 57
1, 189163, Note_on_c, 0, 61, 52
1, 189163, Note_off_c, 0, 54, 56
1, 189249, Note_off_c, 0, 61, 44
1, 189251, Note_on_c, 0, 73, 58
1, 189267, Control_c, 0, 64, 119
1, 189282, Control_c, 0, 64, 116
1, 189296, Control_c, 0, 64, 114
1, 189311, Control_c, 0, 64, 113
1, 189326, Control_c, 0, 64, 110
1, 189341, Note_off_c, 0, 73, 58
1, 189341, Control_c, 0, 64, 107
1, 189355, Note_on_c, 0, 46, 58
1, 189356, Control_c, 0, 64, 106
1, 189369, Note_on_c, 0, 66, 47
1, 189371, Control_c, 0, 64, 105
1, 189371, Note_on_c, 0, 70, 47
1, 189386, Control_c, 0, 64, 103
1, 189400, Control_c, 0, 64, 100
1, 189401, Note_off_c, 0, 49, 38
1, 189415, Control_c, 0, 64, 97
1, 189418, Note_off_c, 0, 70, 59
1, 189431, Control_c, 0, 64, 95
1, 189434, Note_off_c, 0, 66, 56
1, 189445, Control_c, 0, 64, 94
1, 189460, Control_c, 0, 64, 92
1, 189468, Note_on_c, 0, 73, 57
1, 189483, Control_c, 0, 64, 91
1, 189498, Control_c, 0, 64, 87
1, 189513, Control_c, 0, 64, 82
1, 189527, Control_c, 0, 64, 76
1, 189542, Control_c, 0, 64, 69
1, 189555, Note_off_c, 0, 46, 58
1, 189557, Control_c, 0, 64, 60
1, 189559, Note_off_c, 0, 73, 60
1, 189572, Control_c, 0, 64, 45
1, 189574, Note_on_c, 0, 41, 46
1, 189586, Control_c, 0, 64, 0
1, 189589, Note_on_c, 0, 61, 47
1, 189639, Note_off_c, 0, 61, 57
1, 189696, Note_off_c, 0, 41, 58
1, 189705, Note_on_c, 0, 73, 51
1, 189746, Note_on_c, 0, 49, 49
1, 189749, Control_c, 0, 67, 113
1, 189779, Control_c, 0, 67, 112
1, 189785, Note_off_c, 0, 73, 64
1, 189789, Note_off_c, 0, 49, 63
1, 189794, Control_c, 0, 67, 112
1, 189807, Note_on_c, 0, 59, 61
1, 189809, Control_c, 0, 67, 110
1, 189819, Note_on_c, 0, 68, 42
1, 189824, Note_on_c, 0, 71, 40
1, 189824, Control_c, 0, 67, 110
1, 189839, Control_c, 0, 64, 24
1, 189839, Control_c, 0, 67, 109
1, 189853, Control_c, 0, 64, 45
1, 189868, Control_c, 0, 64, 58
1, 189868, Control_c, 0, 67, 109
1, 189883, Control_c, 0, 64, 63
1, 189895, Note_off_c, 0, 71, 53
1, 189898, Control_c, 0, 64, 65
1, 189913, Control_c, 0, 64, 68
1, 189915, Note_off_c, 0, 68, 60
1, 189927, Control_c, 0, 64, 72
1, 189927, Control_c, 0, 67, 109
1, 189929, Note_on_c, 0, 73, 53
1, 189942, Control_c, 0, 64, 80
1, 189942, Control_c, 0, 67, 110
1, 189957, Control_c, 0, 64, 92
1, 189957, Control_c, 0, 67, 111
1, 189969, Note_off_c, 0, 59, 49
1, 189971, Control_c, 0, 64, 108
1, 189971, Control_c, 0, 67, 112
1, 189986, Control_c, 0, 64, 127
1, 189987, Note_off_c, 0, 73, 54
1, 190029, Note_on_c, 0, 61, 50
1, 190075, Control_c, 0, 67, 113
1, 190079, Note_off_c, 0, 61, 56
1, 190090, Control_c, 0, 67, 114
1, 190134, Note_on_c, 0, 73, 52
1, 190164, Control_c, 0, 64, 114
1, 190170, Note_on_c, 0, 56, 59
1, 190178, Control_c, 0, 64, 105
1, 190193, Control_c, 0, 64, 98
1, 190208, Control_c, 0, 64, 89
1, 190226, Note_off_c, 0, 73, 61
1, 190232, Control_c, 0, 64, 78
1, 190243, Note_on_c, 0, 59, 71
1, 190247, Control_c, 0, 64, 67
1, 190249, Note_on_c, 0, 71, 49
1, 190251, Note_off_c, 0, 56, 62
1, 190262, Control_c, 0, 64, 55
1, 190262, Control_c, 0, 67, 114
1, 190264, Note_on_c, 0, 68, 41
1, 190276, Control_c, 0, 64, 25
1, 190291, Control_c, 0, 64, 11
1, 190291, Control_c, 0, 67, 115
1, 190321, Control_c, 0, 64, 17
1, 190322, Note_off_c, 0, 71, 55
1, 190336, Control_c, 0, 64, 27
1, 190336, Control_c, 0, 67, 115
1, 190350, Control_c, 0, 64, 39
1, 190360, Note_off_c, 0, 68, 57
1, 190362, Note_on_c, 0, 73, 58
1, 190365, Control_c, 0, 64, 50
1, 190380, Control_c, 0, 64, 58
1, 190395, Control_c, 0, 64, 63
1, 190395, Control_c, 0, 67, 116
1, 190409, Control_c, 0, 64, 67
1, 190424, Control_c, 0, 64, 71
1, 190438, Note_off_c, 0, 73, 60
1, 190439, Control_c, 0, 64, 78
1, 190454, Control_c, 0, 64, 88
1, 190469, Note_off_c, 0, 59, 54
1, 190469, Control_c, 0, 64, 102
1, 190483, Control_c, 0, 64, 127
1, 190489, Note_on_c, 0, 61, 43
1, 190539, Note_off_c, 0, 61, 54
1, 190580, Note_on_c, 0, 73, 45
1, 190600, Control_c, 0, 67, 115
1, 190664, Note_off_c, 0, 73, 59
1, 190691, Note_on_c, 0, 56, 57
1, 190691, Note_on_c, 0, 71, 50
1, 190711, Note_on_c, 0, 68, 38
1, 190769, Note_off_c, 0, 71, 53
1, 190786, Note_off_c, 0, 68, 49
1, 190795, Note_on_c, 0, 73, 59
1, 190883, Note_off_c, 0, 56, 62
1, 190885, Note_off_c, 0, 73, 59
1, 190915, Note_on_c, 0, 53, 62
1, 190917, Note_on_c, 0, 61, 57
1, 190998, Note_off_c, 0, 61, 42
1, 191022, Note_on_c, 0, 73, 57
1, 191117, Note_off_c, 0, 73, 64
1, 191123, Note_off_c, 0, 53, 59
1, 191134, Note_on_c, 0, 49, 56
1, 191135, Note_on_c, 0, 71, 56
1, 191148, Note_on_c, 0, 68, 46
1, 191203, Note_off_c, 0, 68, 56
1, 191206, Note_off_c, 0, 71, 46
1, 191231, Control_c, 0, 64, 112
1, 191238, Note_on_c, 0, 73, 62
1, 191246, Control_c, 0, 64, 102
1, 191246, Control_c, 0, 67, 116
1, 191261, Control_c, 0, 64, 93
1, 191261, Control_c, 0, 67, 117
1, 191275, Control_c, 0, 64, 83
1, 191275, Control_c, 0, 67, 117
1, 191290, Control_c, 0, 64, 73
1, 191290, Control_c, 0, 67, 119
1, 191305, Control_c, 0, 64, 64
1, 191305, Control_c, 0, 67, 120
1, 191310, Note_off_c, 0, 49, 60
1, 191311, Note_off_c, 0, 73, 59
1, 191320, Control_c, 0, 64, 50
1, 191320, Control_c, 0, 67, 122
1, 191335, Control_c, 0, 64, 0
1, 191335, Control_c, 0, 67, 122
1, 191338, Note_on_c, 0, 42, 51
1, 191342, Note_on_c, 0, 61, 61
1, 191436, Note_off_c, 0, 61, 53
1, 191438, Control_c, 0, 67, 122
1, 191453, Control_c, 0, 67, 120
1, 191462, Note_off_c, 0, 42, 63
1, 191468, Control_c, 0, 67, 119
1, 191480, Note_on_c, 0, 73, 50
1, 191483, Control_c, 0, 67, 118
1, 191497, Control_c, 0, 67, 117
1, 191502, Note_on_c, 0, 49, 51
1, 191512, Control_c, 0, 67, 116
1, 191527, Control_c, 0, 67, 115
1, 191541, Control_c, 0, 67, 115
1, 191550, Note_off_c, 0, 73, 58
1, 191556, Control_c, 0, 67, 114
1, 191568, Note_off_c, 0, 49, 59
1, 191572, Note_on_c, 0, 58, 53
1, 191581, Note_on_c, 0, 70, 47
1, 191584, Note_on_c, 0, 66, 39
1, 191586, Control_c, 0, 67, 114
1, 191601, Control_c, 0, 67, 113
1, 191615, Control_c, 0, 64, 24
1, 191630, Control_c, 0, 64, 44
1, 191630, Control_c, 0, 67, 112
1, 191636, Note_off_c, 0, 70, 56
1, 191645, Control_c, 0, 64, 56
1, 191660, Control_c, 0, 64, 60
1, 191660, Control_c, 0, 67, 112
1, 191675, Control_c, 0, 64, 63
1, 191679, Note_off_c, 0, 66, 55
1, 191690, Control_c, 0, 64, 67
1, 191693, Note_on_c, 0, 73, 52
1, 191705, Control_c, 0, 64, 72
1, 191727, Control_c, 0, 64, 80
1, 191727, Control_c, 0, 67, 111
1, 191742, Control_c, 0, 64, 89
1, 191755, Note_off_c, 0, 73, 57
1, 191756, Control_c, 0, 64, 98
1, 191771, Control_c, 0, 64, 111
1, 191786, Control_c, 0, 64, 127
1, 191805, Note_on_c, 0, 61, 49
1, 191857, Note_off_c, 0, 58, 20
1, 191863, Note_off_c, 0, 61, 53
1, 191896, Note_on_c, 0, 73, 49
1, 191910, Note_on_c, 0, 54, 53
1, 191950, Control_c, 0, 64, 111
1, 191965, Control_c, 0, 64, 96
1, 191970, Note_off_c, 0, 73, 61
1, 191977, Note_off_c, 0, 54, 53
1, 191979, Control_c, 0, 64, 86
1, 191985, Note_on_c, 0, 58, 56
1, 191994, Note_on_c, 0, 70, 52
1, 191994, Control_c, 0, 64, 80
1, 192006, Note_on_c, 0, 66, 40
1, 192009, Control_c, 0, 64, 79
1, 192009, Control_c, 0, 67, 110
1, 192024, Control_c, 0, 64, 80
1, 192039, Control_c, 0, 64, 83
1, 192053, Control_c, 0, 64, 89
1, 192068, Control_c, 0, 64, 97
1, 192077, Note_off_c, 0, 66, 58
1, 192083, Control_c, 0, 64, 108
1, 192092, Note_off_c, 0, 70, 34
1, 192098, Control_c, 0, 64, 127
1, 192101, Note_on_c, 0, 73, 55
1, 192158, Control_c, 0, 67, 111
1, 192186, Note_off_c, 0, 73, 58
1, 192187, Control_c, 0, 64, 103
1, 192202, Control_c, 0, 64, 86
1, 192217, Control_c, 0, 64, 71
1, 192217, Note_on_c, 0, 47, 43
1, 192232, Control_c, 0, 64, 59
1, 192246, Control_c, 0, 64, 36
1, 192249, Note_on_c, 0, 63, 37
1, 192261, Control_c, 0, 64, 30
1, 192276, Control_c, 0, 64, 38
1, 192291, Control_c, 0, 64, 50
1, 192306, Control_c, 0, 64, 58
1, 192320, Control_c, 0, 64, 65
1, 192335, Control_c, 0, 64, 70
1, 192350, Control_c, 0, 64, 81
1, 192352, Note_off_c, 0, 58, 60
1, 192364, Control_c, 0, 64, 97
1, 192379, Control_c, 0, 64, 127
1, 192381, Note_on_c, 0, 75, 50
1, 192444, Note_off_c, 0, 75, 54
1, 192482, Note_on_c, 0, 56, 53
1, 192487, Note_on_c, 0, 68, 42
1, 192497, Note_off_c, 0, 63, 34
1, 192504, Note_on_c, 0, 71, 38
1, 192581, Note_off_c, 0, 71, 53
1, 192583, Note_on_c, 0, 75, 54
1, 192590, Note_off_c, 0, 68, 49
1, 192640, Control_c, 0, 67, 110
1, 192655, Control_c, 0, 64, 103
1, 192655, Control_c, 0, 67, 110
1, 192669, Control_c, 0, 64, 90
1, 192669, Control_c, 0, 67, 109
1, 192671, Note_off_c, 0, 75, 56
1, 192682, Note_on_c, 0, 51, 61
1, 192684, Control_c, 0, 64, 80
1, 192684, Control_c, 0, 67, 109
1, 192690, Note_on_c, 0, 63, 57
1, 192699, Control_c, 0, 64, 74
1, 192699, Control_c, 0, 67, 108
1, 192714, Control_c, 0, 64, 72
1, 192714, Control_c, 0, 67, 107
1, 192729, Control_c, 0, 64, 73
1, 192731, Note_off_c, 0, 56, 38
1, 192743, Control_c, 0, 64, 74
1, 192743, Control_c, 0, 67, 107
1, 192758, Control_c, 0, 64, 78
1, 192758, Control_c, 0, 67, 106
1, 192773, Control_c, 0, 64, 85
1, 192773, Control_c, 0, 67, 105
1, 192775, Note_off_c, 0, 63, 55
1, 192785, Note_on_c, 0, 75, 64
1, 192788, Control_c, 0, 64, 97
1, 192788, Control_c, 0, 67, 105
1, 192802, Control_c, 0, 64, 127
1, 192802, Control_c, 0, 67, 103
1, 192817, Control_c, 0, 67, 103
1, 192832, Control_c, 0, 67, 102
1, 192847, Control_c, 0, 67, 102
1, 192876, Control_c, 0, 67, 101
1, 192879, Note_off_c, 0, 75, 62
1, 192884, Note_off_c, 0, 51, 61
1, 192885, Note_on_c, 0, 56, 74
1, 192890, Note_on_c, 0, 71, 55
1, 192893, Note_on_c, 0, 68, 59
1, 192900, Note_off_c, 0, 47, 38
1, 192946, Note_off_c, 0, 56, 62
1, 192951, Control_c, 0, 67, 102
1, 192971, Note_off_c, 0, 68, 59
1, 192977, Note_off_c, 0, 71, 62
1, 192980, Note_on_c, 0, 75, 69
1, 193046, Note_off_c, 0, 75, 62
1, 193055, Control_c, 0, 64, 99
1, 193069, Control_c, 0, 64, 81
1, 193084, Control_c, 0, 64, 65
1, 193089, Note_on_c, 0, 56, 53
1, 193094, Note_on_c, 0, 48, 44
1, 193097, Note_on_c, 0, 68, 62
1, 193099, Control_c, 0, 64, 52
1, 193114, Control_c, 0, 64, 39
1, 193129, Control_c, 0, 64, 39
1, 193143, Control_c, 0, 64, 44
1, 193143, Control_c, 0, 67, 101
1, 193158, Control_c, 0, 64, 50
1, 193173, Control_c, 0, 64, 54
1, 193173, Control_c, 0, 67, 100
1, 193187, Control_c, 0, 64, 60
1, 193202, Control_c, 0, 64, 65
1, 193203, Note_on_c, 0, 80, 65
1, 193225, Control_c, 0, 64, 70
1, 193237, Note_off_c, 0, 68, 53
1, 193240, Control_c, 0, 64, 79
1, 193240, Control_c, 0, 67, 100
1, 193255, Control_c, 0, 64, 92
1, 193255, Control_c, 0, 67, 98
1, 193269, Control_c, 0, 64, 121
1, 193269, Control_c, 0, 67, 98
1, 193284, Control_c, 0, 64, 127
1, 193284, Control_c, 0, 67, 97
1, 193299, Control_c, 0, 67, 97
1, 193307, Note_off_c, 0, 48, 35
1, 193311, Note_on_c, 0, 60, 61
1, 193312, Note_off_c, 0, 80, 63
1, 193314, Control_c, 0, 67, 95
1, 193318, Note_on_c, 0, 78, 70
1, 193326, Note_on_c, 0, 75, 59
1, 193329, Control_c, 0, 67, 94
1, 193343, Control_c, 0, 67, 92
1, 193346, Note_off_c, 0, 56, 60
1, 193358, Control_c, 0, 67, 83
1, 193373, Control_c, 0, 67, 75
1, 193388, Control_c, 0, 67, 67
1, 193398, Note_off_c, 0, 60, 63
1, 193402, Control_c, 0, 67, 59
1, 193410, Note_off_c, 0, 75, 61
1, 193412, Note_off_c, 0, 78, 63
1, 193415, Note_on_c, 0, 80, 77
1, 193418, Control_c, 0, 67, 50
1, 193433, Control_c, 0, 67, 38
1, 193448, Control_c, 0, 67, 30
1, 193463, Control_c, 0, 67, 23
1, 193478, Control_c, 0, 67, 18
1, 193492, Control_c, 0, 67, 13
1, 193507, Control_c, 0, 67, 10
1, 193511, Note_on_c, 0, 63, 70
1, 193514, Note_on_c, 0, 78, 84
1, 193516, Note_off_c, 0, 80, 62
1, 193521, Note_on_c, 0, 72, 67
1, 193522, Control_c, 0, 67, 0
1, 193530, Note_on_c, 0, 56, 56
1, 193601, Note_off_c, 0, 72, 49
1, 193608, Note_on_c, 0, 80, 88
1, 193638, Note_off_c, 0, 78, 61
1, 193678, Note_off_c, 0, 56, 54
1, 193705, Note_off_c, 0, 63, 59
1, 193714, Note_on_c, 0, 75, 88
1, 193714, Note_off_c, 0, 80, 63
1, 193719, Note_on_c, 0, 66, 75
1, 193720, Note_on_c, 0, 72, 73
1, 193780, Note_off_c, 0, 72, 60
1, 193804, Note_off_c, 0, 75, 62
1, 193806, Note_on_c, 0, 80, 85
1, 193892, Control_c, 0, 64, 113
1, 193907, Control_c, 0, 64, 84
1, 193908, Note_off_c, 0, 80, 63
1, 193911, Note_on_c, 0, 77, 73
1, 193914, Note_off_c, 0, 66, 59
1, 193916, Note_on_c, 0, 65, 55
1, 193922, Control_c, 0, 64, 67
1, 193928, Note_on_c, 0, 61, 48
1, 193929, Note_on_c, 0, 73, 67
1, 193937, Control_c, 0, 64, 50
1, 193952, Control_c, 0, 64, 37
1, 193973, Control_c, 0, 64, 40
1, 193988, Control_c, 0, 64, 47
1, 194003, Control_c, 0, 64, 53
1, 194005, Note_off_c, 0, 73, 63
1, 194018, Control_c, 0, 64, 59
1, 194026, Note_on_c, 0, 80, 75
1, 194033, Control_c, 0, 64, 65
1, 194045, Note_off_c, 0, 77, 61
1, 194048, Control_c, 0, 64, 72
1, 194063, Control_c, 0, 64, 85
1, 194078, Control_c, 0, 64, 112
1, 194092, Control_c, 0, 64, 127
1, 194139, Note_on_c, 0, 83, 79
1, 194143, Note_on_c, 0, 68, 63
1, 194146, Note_on_c, 0, 77, 69
1, 194196, Note_off_c, 0, 80, 51
1, 194213, Note_off_c, 0, 77, 57
1, 194233, Note_on_c, 0, 85, 85
1, 194251, Note_off_c, 0, 83, 62
1, 194330, Control_c, 0, 64, 90
1, 194334, Note_on_c, 0, 82, 92
1, 194343, Note_on_c, 0, 78, 85
1, 194345, Control_c, 0, 64, 72
1, 194347, Note_on_c, 0, 70, 75
1, 194352, Note_off_c, 0, 85, 66
1, 194360, Control_c, 0, 64, 61
1, 194374, Note_off_c, 0, 68, 55
1, 194375, Control_c, 0, 64, 54
1, 194389, Control_c, 0, 64, 59
1, 194404, Control_c, 0, 64, 65
1, 194419, Control_c, 0, 64, 71
1, 194434, Control_c, 0, 64, 93
1, 194439, Note_on_c, 0, 85, 90
1, 194445, Note_off_c, 0, 78, 57
1, 194448, Control_c, 0, 64, 127
1, 194456, Note_off_c, 0, 82, 64
1, 194473, Note_off_c, 0, 70, 59
1, 194508, Control_c, 0, 64, 92
1, 194522, Control_c, 0, 64, 68
1, 194537, Control_c, 0, 64, 49
1, 194549, Note_on_c, 0, 80, 88
1, 194552, Note_on_c, 0, 77, 81
1, 194552, Control_c, 0, 64, 38
1, 194557, Note_on_c, 0, 71, 78
1, 194557, Note_off_c, 0, 85, 64
1, 194566, Control_c, 0, 64, 54
1, 194581, Control_c, 0, 64, 66
1, 194590, Note_off_c, 0, 71, 66
1, 194596, Control_c, 0, 64, 81
1, 194611, Note_off_c, 0, 65, 63
1, 194611, Control_c, 0, 64, 127
1, 194629, Note_off_c, 0, 77, 61
1, 194630, Note_off_c, 0, 61, 62
1, 194646, Note_on_c, 0, 85, 90
1, 194650, Note_off_c, 0, 80, 65
1, 194737, Control_c, 0, 64, 101
1, 194752, Control_c, 0, 64, 68
1, 194767, Control_c, 0, 64, 0
1, 194790, Note_on_c, 0, 42, 54
1, 194796, Note_on_c, 0, 78, 84
1, 194820, Note_off_c, 0, 85, 63
1, 194826, Control_c, 0, 64, 53
1, 194841, Control_c, 0, 64, 70
1, 194856, Note_off_c, 0, 78, 63
1, 194856, Control_c, 0, 64, 95
1, 194858, Note_off_c, 0, 42, 62
1, 194870, Control_c, 0, 64, 127
1, 194957, Note_on_c, 0, 58, 60
1, 195026, Note_on_c, 0, 85, 78
1, 195045, Note_off_c, 0, 58, 61
1, 195079, Note_on_c, 0, 49, 49
1, 195085, Note_on_c, 0, 94, 93
1, 195094, Note_on_c, 0, 82, 77
1, 195111, Note_off_c, 0, 85, 64
1, 195149, Note_off_c, 0, 82, 63
1, 195180, Note_on_c, 0, 58, 60
1, 195184, Note_off_c, 0, 94, 64
1, 195199, Note_off_c, 0, 49, 54
1, 195254, Note_off_c, 0, 58, 62
1, 195268, Note_on_c, 0, 54, 68
1, 195371, Note_on_c, 0, 58, 69
1, 195379, Note_off_c, 0, 54, 55
1, 195419, Note_on_c, 0, 90, 83
1, 195436, Note_off_c, 0, 58, 61
1, 195461, Note_on_c, 0, 49, 56
1, 195486, Note_on_c, 0, 94, 101
1, 195495, Note_on_c, 0, 82, 92
1, 195522, Note_off_c, 0, 90, 60
1, 195550, Note_off_c, 0, 49, 62
1, 195570, Note_on_c, 0, 58, 64
1, 195595, Note_off_c, 0, 58, 69
1, 195673, Note_on_c, 0, 42, 74
1, 195682, Note_off_c, 0, 94, 64
1, 195683, Note_off_c, 0, 82, 63
1, 195705, Note_off_c, 0, 42, 64
1, 195774, Note_on_c, 0, 58, 63
1, 195858, Note_off_c, 0, 58, 60
1, 195881, Note_on_c, 0, 90, 89
1, 195885, Note_on_c, 0, 49, 48
1, 195899, Note_on_c, 0, 78, 75
1, 195938, Note_off_c, 0, 78, 60
1, 195949, Note_off_c, 0, 90, 64
1, 195964, Note_off_c, 0, 49, 45
1, 195981, Note_on_c, 0, 58, 63
1, 196057, Note_off_c, 0, 58, 61
1, 196083, Note_on_c, 0, 54, 58
1, 196090, Note_on_c, 0, 85, 87
1, 196099, Note_on_c, 0, 73, 80
1, 196153, Note_off_c, 0, 73, 63
1, 196164, Note_off_c, 0, 85, 65
1, 196182, Note_on_c, 0, 58, 66
1, 196185, Note_off_c, 0, 54, 57
1, 196271, Note_off_c, 0, 58, 62
1, 196294, Note_on_c, 0, 49, 56
1, 196305, Note_on_c, 0, 82, 85
1, 196314, Note_on_c, 0, 70, 77
1, 196363, Note_off_c, 0, 70, 64
1, 196401, Note_on_c, 0, 58, 65
1, 196406, Note_off_c, 0, 49, 61
1, 196433, Note_off_c, 0, 82, 61
1, 196437, Note_off_c, 0, 58, 65
1, 196457, Control_c, 0, 64, 86
1, 196472, Control_c, 0, 64, 57
1, 196486, Control_c, 0, 64, 0
1, 196514, Note_on_c, 0, 41, 77
1, 196531, Control_c, 0, 64, 48
1, 196544, Note_off_c, 0, 41, 66
1, 196546, Control_c, 0, 64, 67
1, 196561, Control_c, 0, 64, 86
1, 196576, Control_c, 0, 64, 127
1, 196623, Note_on_c, 0, 59, 61
1, 196667, Note_on_c, 0, 85, 76
1, 196690, Note_off_c, 0, 59, 61
1, 196719, Note_on_c, 0, 95, 96
1, 196728, Note_on_c, 0, 49, 50
1, 196734, Note_on_c, 0, 83, 76
1, 196736, Note_off_c, 0, 85, 65
1, 196783, Note_off_c, 0, 83, 63
1, 196815, Note_off_c, 0, 95, 65
1, 196825, Note_on_c, 0, 59, 64
1, 196847, Note_off_c, 0, 49, 56
1, 196894, Note_off_c, 0, 59, 63
1, 196901, Note_on_c, 0, 56, 76
1, 197014, Note_on_c, 0, 59, 68
1, 197038, Note_on_c, 0, 92, 87
1, 197069, Note_off_c, 0, 59, 61
1, 197094, Note_on_c, 0, 49, 58
1, 197102, Note_on_c, 0, 95, 100
1, 197106, Note_on_c, 0, 83, 96
1, 197130, Note_off_c, 0, 92, 66
1, 197139, Note_off_c, 0, 56, 36
1, 197178, Note_off_c, 0, 49, 60
1, 197193, Note_on_c, 0, 59, 53
1, 197216, Note_off_c, 0, 59, 62
1, 197267, Note_off_c, 0, 95, 64
1, 197270, Note_off_c, 0, 83, 60
1, 197304, Note_on_c, 0, 41, 73
1, 197327, Note_off_c, 0, 41, 67
1, 197401, Note_on_c, 0, 59, 67
1, 197481, Note_off_c, 0, 59, 57
1, 197508, Note_on_c, 0, 49, 58
1, 197509, Note_on_c, 0, 92, 97
1, 197516, Note_on_c, 0, 80, 83
1, 197591, Note_off_c, 0, 80, 62
1, 197597, Note_off_c, 0, 92, 66
1, 197603, Note_on_c, 0, 59, 62
1, 197696, Note_off_c, 0, 59, 63
1, 197713, Note_on_c, 0, 56, 72
1, 197715, Note_on_c, 0, 89, 94
1, 197719, Note_on_c, 0, 77, 91
1, 197729, Note_off_c, 0, 49, 51
1, 197760, Note_off_c, 0, 89, 65
1, 197763, Note_off_c, 0, 77, 62
1, 197815, Note_on_c, 0, 59, 70
1, 197893, Note_off_c, 0, 59, 59
1, 197911, Note_on_c, 0, 49, 61
1, 197921, Note_on_c, 0, 83, 88
1, 197927, Note_on_c, 0, 71, 84
1, 197987, Note_off_c, 0, 56, 40
1, 198012, Note_on_c, 0, 59, 64
1, 198021, Note_off_c, 0, 83, 57
1, 198022, Note_off_c, 0, 49, 63
1, 198036, Note_off_c, 0, 71, 56
1, 198037, Note_off_c, 0, 59, 67
1, 198103, Control_c, 0, 64, 72
1, 198118, Control_c, 0, 64, 0
1, 198129, Note_on_c, 0, 42, 78
1, 198162, Control_c, 0, 64, 41
1, 198177, Control_c, 0, 64, 62
1, 198180, Note_off_c, 0, 42, 62
1, 198191, Control_c, 0, 64, 76
1, 198208, Control_c, 0, 64, 127
1, 198242, Note_on_c, 0, 58, 69
1, 198294, Note_on_c, 0, 73, 81
1, 198346, Note_off_c, 0, 58, 60
1, 198354, Note_on_c, 0, 82, 88
1, 198362, Note_on_c, 0, 49, 56
1, 198364, Note_on_c, 0, 70, 84
1, 198379, Note_off_c, 0, 73, 61
1, 198471, Note_on_c, 0, 58, 69
1, 198529, Note_off_c, 0, 70, 60
1, 198538, Note_off_c, 0, 82, 62
1, 198553, Note_on_c, 0, 54, 79
1, 198554, Note_off_c, 0, 58, 63
1, 198566, Note_off_c, 0, 49, 58
1, 198653, Note_on_c, 0, 58, 75
1, 198665, Note_on_c, 0, 78, 79
1, 198728, Note_off_c, 0, 58, 62
1, 198730, Note_on_c, 0, 82, 93
1, 198737, Note_on_c, 0, 70, 87
1, 198741, Note_on_c, 0, 49, 60
1, 198754, Note_off_c, 0, 78, 62
1, 198831, Note_off_c, 0, 54, 42
1, 198848, Note_on_c, 0, 58, 71
1, 198850, Note_off_c, 0, 49, 61
1, 198874, Note_off_c, 0, 58, 66
1, 198985, Control_c, 0, 64, 102
1, 198993, Note_on_c, 0, 36, 69
1, 199000, Control_c, 0, 64, 71
1, 199016, Control_c, 0, 64, 50
1, 199031, Control_c, 0, 64, 16
1, 199046, Control_c, 0, 64, 40
1, 199060, Control_c, 0, 64, 56
1, 199075, Control_c, 0, 64, 63
1, 199076, Note_off_c, 0, 36, 63
1, 199090, Control_c, 0, 64, 72
1, 199104, Control_c, 0, 64, 102
1, 199119, Control_c, 0, 64, 127
1, 199169, Note_off_c, 0, 82, 58
1, 199187, Note_on_c, 0, 48, 59
1, 199234, Note_off_c, 0, 70, 60
1, 199307, Note_off_c, 0, 48, 59
1, 199314, Note_on_c, 0, 81, 75
1, 199318, Note_on_c, 0, 51, 62
1, 199321, Note_on_c, 0, 69, 67
1, 199422, Note_on_c, 0, 48, 65
1, 199431, Note_off_c, 0, 69, 63
1, 199453, Note_off_c, 0, 81, 63
1, 199519, Note_on_c, 0, 80, 89
1, 199521, Note_on_c, 0, 56, 67
1, 199523, Note_off_c, 0, 48, 59
1, 199530, Note_on_c, 0, 68, 78
1, 199546, Note_off_c, 0, 51, 35
1, 199556, Control_c, 0, 64, 95
1, 199571, Control_c, 0, 64, 73
1, 199586, Control_c, 0, 64, 61
1, 199601, Control_c, 0, 64, 51
1, 199616, Control_c, 0, 64, 59
1, 199630, Control_c, 0, 64, 64
1, 199643, Note_on_c, 0, 48, 60
1, 199645, Control_c, 0, 64, 71
1, 199646, Note_off_c, 0, 56, 55
1, 199658, Note_off_c, 0, 68, 62
1, 199660, Control_c, 0, 64, 94
1, 199661, Note_off_c, 0, 80, 63
1, 199675, Control_c, 0, 64, 127
1, 199708, Note_off_c, 0, 48, 54
1, 199721, Poly_aftertouch_c, 0, 51, 127
1, 199732, Note_on_c, 0, 78, 84
1, 199738, Note_on_c, 0, 57, 61
1, 199744, Note_on_c, 0, 66, 72
1, 199749, Control_c, 0, 64, 82
1, 199764, Control_c, 0, 64, 65
1, 199779, Control_c, 0, 64, 46
1, 199793, Control_c, 0, 64, 50
1, 199801, Poly_aftertouch_c, 0, 51, 0
1, 199809, Control_c, 0, 64, 60
1, 199824, Control_c, 0, 64, 65
1, 199833, Note_off_c, 0, 57, 62
1, 199839, Control_c, 0, 64, 76
1, 199851, Note_on_c, 0, 48, 54
1, 199853, Control_c, 0, 64, 127
1, 199875, Note_off_c, 0, 78, 62
1, 199884, Note_off_c, 0, 48, 65
1, 199915, Note_off_c, 0, 66, 60
1, 199927, Control_c, 0, 64, 103
1, 199942, Control_c, 0, 64, 69
1, 199965, Control_c, 0, 64, 34
1, 199980, Control_c, 0, 64, 0
1, 199986, Note_on_c, 0, 77, 67
1, 199995, Control_c, 0, 64, 37
1, 199995, Note_on_c, 0, 37, 54
1, 200000, Note_on_c, 0, 65, 53
1, 200009, Control_c, 0, 64, 58
1, 200024, Control_c, 0, 64, 72
1, 200030, Note_off_c, 0, 37, 63
1, 200039, Control_c, 0, 64, 107
1, 200040, Note_off_c, 0, 65, 62
1, 200054, Control_c, 0, 64, 127
1, 200076, Note_off_c, 0, 77, 64
1, 200144, Note_on_c, 0, 49, 43
1, 200206, Note_off_c, 0, 49, 54
1, 200230, Note_on_c, 0, 53, 50
1, 200246, Note_on_c, 0, 85, 70
1, 200267, Note_on_c, 0, 73, 54
1, 200320, Note_off_c, 0, 73, 58
1, 200334, Note_off_c, 0, 85, 63
1, 200336, Note_off_c, 0, 53, 61
1, 200340, Note_on_c, 0, 49, 47
1, 200439, Note_off_c, 0, 49, 59
1, 200463, Note_on_c, 0, 56, 51
1, 200463, Note_on_c, 0, 83, 78
1, 200473, Note_on_c, 0, 71, 63
1, 200507, Note_off_c, 0, 71, 64
1, 200525, Note_off_c, 0, 83, 62
1, 200536, Note_off_c, 0, 56, 55
1, 200564, Note_on_c, 0, 49, 51
1, 200627, Note_off_c, 0, 49, 57
1, 200676, Note_on_c, 0, 80, 72
1, 200680, Note_on_c, 0, 59, 48
1, 200692, Note_on_c, 0, 68, 60
1, 200752, Note_off_c, 0, 59, 60
1, 200764, Note_on_c, 0, 49, 54
1, 200776, Note_off_c, 0, 80, 62
1, 200788, Note_off_c, 0, 68, 53
1, 200796, Note_off_c, 0, 49, 65
1, 200847, Control_c, 0, 64, 100
1, 200862, Control_c, 0, 64, 68
1, 200877, Control_c, 0, 64, 30
1, 200889, Note_on_c, 0, 78, 63
1, 200892, Control_c, 0, 64, 15
1, 200893, Note_on_c, 0, 42, 61
1, 200907, Control_c, 0, 64, 46
1, 200907, Note_on_c, 0, 66, 50
1, 200922, Control_c, 0, 64, 57
1, 200926, Note_off_c, 0, 42, 65
1, 200937, Control_c, 0, 64, 65
1, 200951, Control_c, 0, 64, 77
1, 200966, Control_c, 0, 64, 127
1, 201002, Note_on_c, 0, 49, 59
1, 201089, Note_off_c, 0, 49, 55
1, 201112, Note_on_c, 0, 58, 66
1, 201185, Note_off_c, 0, 78, 53
1, 201188, Note_off_c, 0, 58, 59
1, 201205, Note_on_c, 0, 54, 70
1, 201271, Note_off_c, 0, 66, 34
1, 201300, Note_off_c, 0, 54, 62
1, 201307, Note_on_c, 0, 49, 67
1, 201370, Note_off_c, 0, 49, 62
1, 201405, Note_on_c, 0, 54, 74
1, 201410, Control_c, 0, 64, 111
1, 201425, Control_c, 0, 64, 87
1, 201440, Control_c, 0, 64, 73
1, 201461, Control_c, 0, 64, 62
1, 201476, Control_c, 0, 64, 32
1, 201488, Note_off_c, 0, 54, 58
1, 201491, Control_c, 0, 64, 0
1, 201503, Note_on_c, 0, 49, 67
1, 201591, Note_off_c, 0, 49, 62
1, 201598, Note_on_c, 0, 46, 72
1, 201633, Note_off_c, 0, 46, 64
1, 201706, Note_on_c, 0, 62, 63
1, 201783, Note_on_c, 0, 74, 66
1, 201783, Note_off_c, 0, 62, 61
1, 201837, Note_on_c, 0, 46, 71
1, 201873, Note_off_c, 0, 74, 61
1, 201883, Note_on_c, 0, 58, 95
1, 201884, Note_on_c, 0, 70, 66
1, 201887, Note_on_c, 0, 65, 58
1, 201905, Control_c, 0, 64, 36
1, 201920, Control_c, 0, 64, 65
1, 201922, Note_off_c, 0, 46, 64
1, 201926, Note_off_c, 0, 58, 65
1, 201935, Control_c, 0, 64, 94
1, 201943, Note_off_c, 0, 65, 53
1, 201950, Control_c, 0, 64, 127
1, 201986, Note_on_c, 0, 74, 66
1, 201990, Note_off_c, 0, 70, 56
1, 202051, Note_off_c, 0, 74, 61
1, 202084, Note_on_c, 0, 62, 73
1, 202171, Note_on_c, 0, 74, 75
1, 202203, Note_off_c, 0, 62, 60
1, 202221, Note_on_c, 0, 46, 75
1, 202269, Control_c, 0, 64, 78
1, 202270, Note_on_c, 0, 58, 100
1, 202281, Note_on_c, 0, 70, 75
1, 202281, Note_off_c, 0, 74, 61
1, 202284, Note_on_c, 0, 65, 73
1, 202284, Control_c, 0, 64, 52
1, 202299, Control_c, 0, 64, 0
1, 202329, Control_c, 0, 64, 38
1, 202344, Control_c, 0, 64, 62
1, 202350, Note_off_c, 0, 65, 61
1, 202358, Control_c, 0, 64, 81
1, 202361, Note_off_c, 0, 58, 65
1, 202373, Control_c, 0, 64, 127
1, 202379, Note_on_c, 0, 74, 74
1, 202379, Note_off_c, 0, 46, 62
1, 202400, Note_off_c, 0, 70, 56
1, 202469, Note_off_c, 0, 74, 64
1, 202486, Note_on_c, 0, 63, 84
1, 202581, Note_on_c, 0, 75, 76
1, 202594, Note_off_c, 0, 63, 60
1, 202669, Note_on_c, 0, 54, 98
1, 202669, Control_c, 0, 64, 104
1, 202673, Note_on_c, 0, 42, 89
1, 202678, Note_on_c, 0, 70, 81
1, 202682, Note_off_c, 0, 75, 62
1, 202684, Control_c, 0, 64, 63
1, 202685, Note_on_c, 0, 66, 80
1, 202689, Note_off_c, 0, 54, 73
1, 202699, Control_c, 0, 64, 0
1, 202701, Note_off_c, 0, 42, 69
1, 202738, Note_off_c, 0, 66, 59
1, 202779, Note_on_c, 0, 75, 76
1, 202782, Note_off_c, 0, 70, 60
1, 202845, Note_off_c, 0, 75, 62
1, 202863, Note_on_c, 0, 51, 94
1, 202867, Note_on_c, 0, 39, 87
1, 202880, Note_on_c, 0, 70, 83
1, 202883, Note_off_c, 0, 51, 73
1, 202895, Note_off_c, 0, 39, 66
1, 202960, Note_off_c, 0, 70, 62
1, 202984, Note_on_c, 0, 82, 78
1, 203068, Note_on_c, 0, 46, 92
1, 203071, Note_on_c, 0, 34, 86
1, 203084, Note_on_c, 0, 78, 82
1, 203089, Note_off_c, 0, 82, 65
1, 203091, Note_on_c, 0, 75, 78
1, 203107, Note_off_c, 0, 46, 57
1, 203111, Note_off_c, 0, 34, 61
1, 203165, Note_off_c, 0, 75, 61
1, 203175, Note_on_c, 0, 82, 82
1, 203183, Note_off_c, 0, 78, 62
1, 203196, Note_off_c, 0, 82, 71
1, 203281, Note_on_c, 0, 63, 81
1, 203349, Note_off_c, 0, 63, 61
1, 203366, Note_on_c, 0, 75, 72
1, 203427, Note_on_c, 0, 46, 81
1, 203467, Note_on_c, 0, 58, 105
1, 203472, Note_on_c, 0, 70, 67
1, 203474, Note_on_c, 0, 66, 63
1, 203476, Note_off_c, 0, 75, 61
1, 203476, Control_c, 0, 64, 32
1, 203491, Control_c, 0, 64, 60
1, 203506, Control_c, 0, 64, 73
1, 203521, Control_c, 0, 64, 127
1, 203549, Note_off_c, 0, 46, 63
1, 203550, Note_off_c, 0, 58, 64
1, 203566, Note_off_c, 0, 66, 58
1, 203579, Note_on_c, 0, 75, 70
1, 203579, Note_off_c, 0, 70, 61
1, 203653, Note_off_c, 0, 75, 62
1, 203670, Note_on_c, 0, 63, 80
1, 203766, Note_on_c, 0, 75, 82
1, 203776, Note_off_c, 0, 63, 60
1, 203798, Note_on_c, 0, 45, 78
1, 203826, Control_c, 0, 64, 82
1, 203841, Control_c, 0, 64, 60
1, 203855, Control_c, 0, 64, 0
1, 203857, Note_on_c, 0, 57, 102
1, 203864, Note_on_c, 0, 73, 78
1, 203864, Note_off_c, 0, 75, 63
1, 203866, Note_on_c, 0, 67, 75
1, 203885, Control_c, 0, 64, 21
1, 203900, Control_c, 0, 64, 56
1, 203915, Note_off_c, 0, 57, 63
1, 203915, Control_c, 0, 64, 70
1, 203923, Note_off_c, 0, 45, 64
1, 203929, Control_c, 0, 64, 96
1, 203931, Note_off_c, 0, 67, 61
1, 203944, Control_c, 0, 64, 127
1, 203959, Note_on_c, 0, 75, 81
1, 203961, Note_off_c, 0, 73, 62
1, 204034, Control_c, 0, 64, 99
1, 204048, Control_c, 0, 64, 71
1, 204049, Note_off_c, 0, 75, 61
1, 204061, Note_on_c, 0, 56, 101
1, 204064, Control_c, 0, 64, 56
1, 204066, Note_on_c, 0, 44, 88
1, 204067, Note_on_c, 0, 63, 81
1, 204078, Control_c, 0, 64, 48
1, 204093, Control_c, 0, 64, 61
1, 204103, Note_off_c, 0, 56, 64
1, 204108, Control_c, 0, 64, 68
1, 204121, Note_off_c, 0, 44, 63
1, 204123, Control_c, 0, 64, 85
1, 204138, Control_c, 0, 64, 127
1, 204157, Note_on_c, 0, 75, 79
1, 204174, Note_off_c, 0, 63, 60
1, 204241, Control_c, 0, 64, 94
1, 204256, Control_c, 0, 64, 66
1, 204262, Note_on_c, 0, 51, 96
1, 204268, Note_on_c, 0, 72, 79
1, 204269, Note_on_c, 0, 39, 83
1, 204271, Control_c, 0, 64, 0
1, 204273, Note_on_c, 0, 68, 76
1, 204273, Note_off_c, 0, 75, 63
1, 204301, Note_off_c, 0, 51, 58
1, 204311, Note_off_c, 0, 39, 59
1, 204359, Note_on_c, 0, 75, 87
1, 204364, Note_off_c, 0, 68, 61
1, 204383, Note_off_c, 0, 72, 62
1, 204425, Note_off_c, 0, 75, 59
1, 204466, Note_on_c, 0, 48, 91
1, 204466, Note_on_c, 0, 72, 94
1, 204475, Note_on_c, 0, 36, 86
1, 204493, Note_off_c, 0, 48, 68
1, 204509, Note_off_c, 0, 36, 65
1, 204558, Note_on_c, 0, 84, 89
1, 204667, Note_on_c, 0, 42, 95
1, 204672, Note_on_c, 0, 80, 82
1, 204674, Note_on_c, 0, 75, 77
1, 204676, Note_on_c, 0, 30, 81
1, 204691, Note_off_c, 0, 72, 58
1, 204701, Note_off_c, 0, 84, 64
1, 204720, Note_off_c, 0, 30, 63
1, 204754, Note_off_c, 0, 42, 63
1, 204797, Note_on_c, 0, 84, 80
1, 204862, Note_off_c, 0, 80, 55
1, 204888, Note_off_c, 0, 75, 58
1, 204946, Note_on_c, 0, 41, 43
1, 204951, Note_off_c, 0, 84, 57
1, 205094, Control_c, 0, 64, 16
1, 205105, Note_on_c, 0, 53, 30
1, 205109, Control_c, 0, 64, 38
1, 205123, Control_c, 0, 64, 47
1, 205138, Control_c, 0, 64, 52
1, 205153, Control_c, 0, 64, 55
1, 205168, Control_c, 0, 64, 58
1, 205180, Note_on_c, 0, 73, 46
1, 205183, Control_c, 0, 64, 60
1, 205205, Control_c, 0, 64, 63
1, 205220, Control_c, 0, 64, 65
1, 205235, Control_c, 0, 64, 67
1, 205249, Control_c, 0, 64, 70
1, 205264, Control_c, 0, 64, 74
1, 205279, Control_c, 0, 64, 78
1, 205294, Control_c, 0, 64, 83
1, 205309, Control_c, 0, 64, 86
1, 205323, Control_c, 0, 64, 87
1, 205350, Note_on_c, 0, 44, 32
1, 205353, Control_c, 0, 64, 87
1, 205364, Note_on_c, 0, 49, 26
1, 205366, Note_off_c, 0, 53, 39
1, 205402, Note_on_c, 0, 85, 62
1, 205414, Control_c, 0, 64, 87
1, 205428, Control_c, 0, 64, 86
1, 205443, Control_c, 0, 64, 86
1, 205448, Note_off_c, 0, 41, 40
1, 205458, Control_c, 0, 64, 85
1, 205473, Control_c, 0, 64, 84
1, 205488, Control_c, 0, 64, 82
1, 205502, Control_c, 0, 64, 79
1, 205517, Control_c, 0, 64, 75
1, 205519, Note_on_c, 0, 53, 36
1, 205532, Control_c, 0, 64, 71
1, 205546, Control_c, 0, 64, 69
1, 205560, Note_off_c, 0, 73, 58
1, 205561, Control_c, 0, 64, 68
1, 205575, Note_off_c, 0, 53, 51
1, 205576, Control_c, 0, 64, 69
1, 205590, Note_off_c, 0, 44, 34
1, 205591, Control_c, 0, 64, 71
1, 205599, Note_off_c, 0, 49, 41
1, 205601, Note_on_c, 0, 43, 42
1, 205606, Control_c, 0, 64, 73
1, 205620, Control_c, 0, 64, 77
1, 205635, Control_c, 0, 64, 82
1, 205650, Control_c, 0, 64, 87
1, 205665, Control_c, 0, 64, 97
1, 205679, Control_c, 0, 64, 115
1, 205694, Control_c, 0, 64, 127
1, 205722, Note_on_c, 0, 53, 46
1, 205751, Note_off_c, 0, 85, 65
1, 205766, Note_on_c, 0, 73, 62
1, 205786, Note_off_c, 0, 53, 54
1, 205822, Note_on_c, 0, 44, 44
1, 205828, Note_on_c, 0, 49, 38
1, 205831, Note_on_c, 0, 85, 86
1, 205860, Note_off_c, 0, 43, 36
1, 205926, Note_on_c, 0, 53, 48
1, 205968, Control_c, 0, 64, 123
1, 205983, Control_c, 0, 64, 111
1, 205998, Control_c, 0, 64, 100
1, 206013, Note_off_c, 0, 53, 55
1, 206013, Control_c, 0, 64, 88
1, 206028, Control_c, 0, 64, 74
1, 206043, Control_c, 0, 64, 59
1, 206058, Note_off_c, 0, 44, 40
1, 206058, Control_c, 0, 64, 27
1, 206063, Note_on_c, 0, 42, 50
1, 206072, Control_c, 0, 64, 17
1, 206079, Note_off_c, 0, 49, 36
1, 206087, Control_c, 0, 64, 30
1, 206102, Control_c, 0, 64, 44
1, 206117, Control_c, 0, 64, 55
1, 206132, Control_c, 0, 64, 62
1, 206146, Control_c, 0, 64, 67
1, 206147, Note_off_c, 0, 73, 60
1, 206158, Note_off_c, 0, 85, 65
1, 206161, Control_c, 0, 64, 74
1, 206176, Control_c, 0, 64, 86
1, 206191, Control_c, 0, 64, 105
1, 206195, Note_on_c, 0, 51, 43
1, 206207, Control_c, 0, 64, 127
1, 206270, Note_off_c, 0, 51, 53
1, 206313, Note_on_c, 0, 82, 68
1, 206325, Note_on_c, 0, 49, 33
1, 206341, Note_on_c, 0, 70, 47
1, 206345, Note_on_c, 0, 46, 37
1, 206347, Note_off_c, 0, 42, 37
1, 206403, Note_off_c, 0, 82, 63
1, 206409, Note_off_c, 0, 70, 62
1, 206413, Note_on_c, 0, 51, 57
1, 206504, Note_off_c, 0, 51, 62
1, 206517, Control_c, 0, 64, 107
1, 206519, Note_on_c, 0, 45, 66
1, 206527, Note_off_c, 0, 49, 39
1, 206529, Note_on_c, 0, 78, 74
1, 206532, Control_c, 0, 64, 92
1, 206544, Note_on_c, 0, 66, 59
1, 206544, Note_off_c, 0, 46, 21
1, 206547, Control_c, 0, 64, 80
1, 206562, Control_c, 0, 64, 71
1, 206576, Control_c, 0, 64, 65
1, 206591, Control_c, 0, 64, 63
1, 206606, Control_c, 0, 64, 64
1, 206611, Note_off_c, 0, 66, 62
1, 206621, Control_c, 0, 64, 66
1, 206633, Note_on_c, 0, 54, 58
1, 206636, Control_c, 0, 64, 68
1, 206639, Note_off_c, 0, 78, 64
1, 206651, Control_c, 0, 64, 72
1, 206666, Control_c, 0, 64, 80
1, 206681, Control_c, 0, 64, 99
1, 206702, Control_c, 0, 64, 127
1, 206714, Note_off_c, 0, 54, 63
1, 206734, Note_on_c, 0, 82, 87
1, 206737, Note_on_c, 0, 48, 51
1, 206738, Note_on_c, 0, 51, 58
1, 206744, Note_on_c, 0, 70, 73
1, 206782, Note_off_c, 0, 45, 60
1, 206800, Note_off_c, 0, 82, 66
1, 206811, Note_off_c, 0, 70, 62
1, 206842, Note_on_c, 0, 54, 58
1, 206847, Note_off_c, 0, 48, 57
1, 206910, Control_c, 0, 64, 115
1, 206922, Note_off_c, 0, 54, 62
1, 206923, Note_off_c, 0, 51, 36
1, 206925, Control_c, 0, 64, 81
1, 206940, Control_c, 0, 64, 63
1, 206943, Note_on_c, 0, 44, 47
1, 206947, Note_on_c, 0, 73, 75
1, 206955, Control_c, 0, 64, 20
1, 206969, Control_c, 0, 64, 0
1, 206970, Note_on_c, 0, 61, 57
1, 206984, Control_c, 0, 64, 31
1, 207000, Control_c, 0, 64, 47
1, 207015, Control_c, 0, 64, 58
1, 207021, Note_off_c, 0, 61, 62
1, 207030, Control_c, 0, 64, 65
1, 207044, Control_c, 0, 64, 72
1, 207056, Note_off_c, 0, 73, 65
1, 207059, Control_c, 0, 64, 89
1, 207062, Note_on_c, 0, 56, 50
1, 207074, Control_c, 0, 64, 127
1, 207112, Note_off_c, 0, 44, 34
1, 207148, Note_off_c, 0, 56, 60
1, 207161, Note_on_c, 0, 80, 79
1, 207164, Note_on_c, 0, 49, 39
1, 207173, Note_on_c, 0, 53, 54
1, 207184, Note_on_c, 0, 68, 57
1, 207270, Note_on_c, 0, 56, 60
1, 207285, Note_off_c, 0, 68, 61
1, 207289, Note_off_c, 0, 80, 64
1, 207302, Note_off_c, 0, 53, 47
1, 207340, Control_c, 0, 64, 121
1, 207353, Note_on_c, 0, 44, 55
1, 207355, Control_c, 0, 64, 85
1, 207358, Note_off_c, 0, 56, 60
1, 207360, Note_on_c, 0, 78, 88
1, 207370, Control_c, 0, 64, 69
1, 207379, Note_on_c, 0, 66, 71
1, 207385, Control_c, 0, 64, 58
1, 207399, Control_c, 0, 64, 48
1, 207414, Control_c, 0, 64, 54
1, 207429, Control_c, 0, 64, 60
1, 207452, Control_c, 0, 64, 64
1, 207453, Note_off_c, 0, 44, 62
1, 207455, Note_off_c, 0, 49, 52
1, 207467, Control_c, 0, 64, 69
1, 207477, Note_on_c, 0, 56, 66
1, 207481, Control_c, 0, 64, 81
1, 207492, Note_off_c, 0, 78, 64
1, 207496, Control_c, 0, 64, 127
1, 207504, Note_off_c, 0, 66, 63
1, 207565, Note_off_c, 0, 56, 63
1, 207570, Control_c, 0, 64, 97
1, 207578, Note_on_c, 0, 75, 86
1, 207584, Note_on_c, 0, 54, 59
1, 207585, Control_c, 0, 64, 76
1, 207593, Note_on_c, 0, 63, 74
1, 207599, Control_c, 0, 64, 65
1, 207600, Note_on_c, 0, 48, 55
1, 207614, Control_c, 0, 64, 59
1, 207629, Control_c, 0, 64, 63
1, 207644, Control_c, 0, 64, 66
1, 207659, Control_c, 0, 64, 70
1, 207673, Control_c, 0, 64, 81
1, 207676, Note_off_c, 0, 54, 63
1, 207678, Note_on_c, 0, 56, 62
1, 207686, Note_off_c, 0, 48, 63
1, 207688, Control_c, 0, 64, 115
1, 207700, Note_off_c, 0, 75, 61
1, 207703, Control_c, 0, 64, 127
1, 207712, Note_off_c, 0, 56, 66
1, 207730, Note_off_c, 0, 63, 62
1, 207778, Control_c, 0, 64, 97
1, 207793, Control_c, 0, 64, 70
1, 207806, Note_on_c, 0, 37, 61
1, 207808, Control_c, 0, 64, 43
1, 207817, Note_on_c, 0, 73, 81
1, 207822, Control_c, 0, 64, 0
1, 207837, Control_c, 0, 64, 37
1, 207843, Note_on_c, 0, 61, 60
1, 207852, Control_c, 0, 64, 53
1, 207853, Note_off_c, 0, 37, 62
1, 207867, Control_c, 0, 64, 61
1, 207882, Control_c, 0, 64, 67
1, 207897, Control_c, 0, 64, 82
1, 207912, Control_c, 0, 64, 127
1, 207958, Note_on_c, 0, 49, 57
1, 208052, Note_off_c, 0, 49, 59
1, 208073, Note_on_c, 0, 53, 49
1, 208073, Note_on_c, 0, 71, 75
1, 208074, Note_on_c, 0, 56, 54
1, 208090, Note_on_c, 0, 68, 60
1, 208104, Note_off_c, 0, 61, 56
1, 208170, Note_off_c, 0, 56, 60
1, 208178, Note_on_c, 0, 49, 58
1, 208208, Note_off_c, 0, 53, 52
1, 208299, Note_off_c, 0, 49, 59
1, 208317, Note_on_c, 0, 70, 67
1, 208319, Control_c, 0, 64, 100
1, 208320, Note_on_c, 0, 54, 47
1, 208325, Note_on_c, 0, 58, 47
1, 208334, Control_c, 0, 64, 81
1, 208348, Note_off_c, 0, 68, 59
1, 208348, Control_c, 0, 64, 68
1, 208351, Note_on_c, 0, 66, 44
1, 208360, Note_off_c, 0, 71, 58
1, 208363, Control_c, 0, 64, 57
1, 208378, Control_c, 0, 64, 48
1, 208408, Control_c, 0, 64, 50
1, 208422, Control_c, 0, 64, 55
1, 208437, Control_c, 0, 64, 60
1, 208447, Note_off_c, 0, 54, 59
1, 208452, Control_c, 0, 64, 63
1, 208457, Note_on_c, 0, 49, 36
1, 208466, Control_c, 0, 64, 67
1, 208481, Control_c, 0, 64, 72
1, 208496, Control_c, 0, 64, 80
1, 208508, Note_off_c, 0, 58, 37
1, 208511, Control_c, 0, 64, 91
1, 208520, Note_off_c, 0, 66, 57
1, 208526, Control_c, 0, 64, 98
1, 208556, Control_c, 0, 64, 95
1, 208566, Note_off_c, 0, 49, 56
1, 208571, Control_c, 0, 64, 91
1, 208586, Control_c, 0, 64, 82
1, 208599, Note_off_c, 0, 70, 48
1, 208601, Note_on_c, 0, 65, 45
1, 208601, Control_c, 0, 64, 71
1, 208603, Note_on_c, 0, 68, 45
1, 208612, Note_on_c, 0, 59, 36
1, 208616, Control_c, 0, 64, 62
1, 208631, Control_c, 0, 64, 50
1, 208633, Note_on_c, 0, 56, 29
1, 208645, Control_c, 0, 64, 45
1, 208660, Control_c, 0, 64, 50
1, 208675, Control_c, 0, 64, 56
1, 208690, Control_c, 0, 64, 61
1, 208705, Control_c, 0, 64, 63
1, 208720, Control_c, 0, 64, 66
1, 208735, Control_c, 0, 64, 74
1, 208750, Control_c, 0, 64, 86
1, 208764, Control_c, 0, 64, 104
1, 208766, Note_on_c, 0, 49, 39
1, 208766, Note_off_c, 0, 73, 53
1, 208778, Note_off_c, 0, 65, 36
1, 208779, Control_c, 0, 64, 127
1, 208787, Note_off_c, 0, 59, 43
1, 208817, Note_off_c, 0, 56, 40
1, 208828, Note_off_c, 0, 49, 63
1, 208837, Note_off_c, 0, 68, 56
1, 208868, Control_c, 0, 64, 118
1, 208883, Control_c, 0, 64, 109
1, 208897, Control_c, 0, 64, 104
1, 208912, Control_c, 0, 64, 99
1, 208927, Control_c, 0, 64, 93
1, 208949, Control_c, 0, 64, 90
1, 208964, Control_c, 0, 64, 87
1, 208979, Control_c, 0, 64, 86
1, 208994, Control_c, 0, 64, 84
1, 209009, Control_c, 0, 64, 82
1, 209024, Control_c, 0, 64, 80
1, 209036, Note_on_c, 0, 42, 41
1, 209037, Note_on_c, 0, 61, 38
1, 209039, Control_c, 0, 64, 78
1, 209053, Control_c, 0, 64, 77
1, 209068, Control_c, 0, 64, 74
1, 209083, Control_c, 0, 64, 72
1, 209097, Control_c, 0, 64, 69
1, 209112, Control_c, 0, 64, 67
1, 209127, Control_c, 0, 64, 65
1, 209142, Control_c, 0, 64, 64
1, 209157, Control_c, 0, 64, 63
1, 209171, Control_c, 0, 64, 62
1, 209186, Control_c, 0, 64, 60
1, 209201, Control_c, 0, 64, 59
1, 209204, Note_on_c, 0, 73, 39
1, 209216, Control_c, 0, 64, 58
1, 209231, Control_c, 0, 64, 55
1, 209241, Note_off_c, 0, 61, 36
1, 209244, Note_off_c, 0, 42, 58
1, 209245, Control_c, 0, 64, 51
1, 209260, Control_c, 0, 64, 47
1, 209262, Note_on_c, 0, 49, 48
1, 209275, Control_c, 0, 64, 38
1, 209289, Control_c, 0, 64, 0
1, 209304, Note_off_c, 0, 73, 59
1, 209340, Note_on_c, 0, 58, 59
1, 209345, Note_on_c, 0, 66, 39
1, 209347, Note_on_c, 0, 70, 41
1, 209349, Note_off_c, 0, 49, 62
1, 209442, Note_off_c, 0, 70, 44
1, 209454, Control_c, 0, 64, 26
1, 209468, Control_c, 0, 64, 42
1, 209479, Note_off_c, 0, 66, 54
1, 209483, Control_c, 0, 64, 56
1, 209484, Note_on_c, 0, 73, 40
1, 209498, Control_c, 0, 64, 62
1, 209513, Control_c, 0, 64, 66
1, 209521, Note_off_c, 0, 58, 32
1, 209528, Control_c, 0, 64, 71
1, 209542, Control_c, 0, 64, 81
1, 209544, Note_off_c, 0, 73, 59
1, 209557, Control_c, 0, 64, 100
1, 209572, Control_c, 0, 64, 127
1, 209578, Note_on_c, 0, 61, 47
1, 209647, Note_off_c, 0, 61, 47
1, 209671, Note_on_c, 0, 73, 54
1, 209721, Note_on_c, 0, 54, 69
1, 209767, Note_off_c, 0, 73, 61
1, 209772, Control_c, 0, 64, 104
1, 209781, Note_on_c, 0, 58, 82
1, 209783, Note_on_c, 0, 70, 60
1, 209787, Control_c, 0, 64, 77
1, 209796, Note_off_c, 0, 54, 64
1, 209802, Control_c, 0, 64, 61
1, 209805, Note_on_c, 0, 66, 38
1, 209817, Control_c, 0, 64, 24
1, 209832, Control_c, 0, 64, 0
1, 209847, Control_c, 0, 64, 20
1, 209861, Control_c, 0, 64, 41
1, 209876, Control_c, 0, 64, 54
1, 209891, Control_c, 0, 64, 61
1, 209903, Note_on_c, 0, 73, 56
1, 209906, Control_c, 0, 64, 66
1, 209918, Note_off_c, 0, 66, 47
1, 209920, Control_c, 0, 64, 74
1, 209935, Control_c, 0, 64, 92
1, 209946, Note_off_c, 0, 70, 32
1, 209950, Control_c, 0, 64, 127
1, 209958, Note_off_c, 0, 58, 56
1, 209984, Note_off_c, 0, 73, 61
1, 210004, Note_on_c, 0, 64, 62
1, 210102, Note_on_c, 0, 76, 68
1, 210205, Note_on_c, 0, 73, 71
1, 210210, Note_on_c, 0, 66, 67
1, 210222, Note_off_c, 0, 76, 62
1, 210222, Note_on_c, 0, 54, 76
1, 210315, Note_on_c, 0, 76, 76
1, 210317, Note_off_c, 0, 64, 52
1, 210333, Note_off_c, 0, 66, 59
1, 210374, Note_off_c, 0, 73, 53
1, 210418, Note_on_c, 0, 49, 78
1, 210419, Note_off_c, 0, 76, 59
1, 210421, Note_on_c, 0, 64, 85
1, 210438, Note_off_c, 0, 54, 63
1, 210526, Note_on_c, 0, 76, 86
1, 210615, Note_on_c, 0, 46, 87
1, 210620, Note_on_c, 0, 73, 85
1, 210622, Note_on_c, 0, 66, 82
1, 210629, Note_off_c, 0, 49, 63
1, 210636, Note_off_c, 0, 76, 63
1, 210660, Note_off_c, 0, 46, 64
1, 210687, Note_off_c, 0, 64, 57
1, 210717, Note_on_c, 0, 76, 85
1, 210723, Note_off_c, 0, 66, 61
1, 210764, Note_off_c, 0, 73, 61
1, 210817, Control_c, 0, 64, 106
1, 210818, Note_off_c, 0, 76, 59
1, 210821, Note_on_c, 0, 35, 81
1, 210832, Control_c, 0, 64, 66
1, 210836, Note_on_c, 0, 63, 90
1, 210847, Control_c, 0, 64, 0
1, 210936, Control_c, 0, 64, 43
1, 210950, Control_c, 0, 64, 63
1, 210960, Note_off_c, 0, 35, 61
1, 210965, Control_c, 0, 64, 75
1, 210967, Note_on_c, 0, 75, 74
1, 210980, Control_c, 0, 64, 97
1, 210981, Note_on_c, 0, 47, 72
1, 210989, Note_off_c, 0, 63, 59
1, 210996, Control_c, 0, 64, 127
1, 211051, Note_on_c, 0, 51, 94
1, 211059, Note_on_c, 0, 71, 79
1, 211060, Note_off_c, 0, 47, 64
1, 211066, Note_on_c, 0, 66, 80
1, 211072, Note_off_c, 0, 75, 62
1, 211078, Note_off_c, 0, 51, 63
1, 211154, Note_off_c, 0, 66, 61
1, 211163, Note_on_c, 0, 75, 80
1, 211177, Note_off_c, 0, 71, 52
1, 211255, Note_off_c, 0, 75, 61
1, 211265, Note_on_c, 0, 63, 90
1, 211358, Note_on_c, 0, 75, 85
1, 211376, Note_off_c, 0, 63, 63
1, 211388, Note_on_c, 0, 47, 78
1, 211447, Note_on_c, 0, 51, 106
1, 211453, Note_on_c, 0, 71, 84
1, 211459, Note_on_c, 0, 66, 88
1, 211469, Note_off_c, 0, 75, 60
1, 211478, Note_on_c, 0, 48, 53
1, 211478, Note_off_c, 0, 47, 64
1, 211504, Note_off_c, 0, 48, 55
1, 211556, Poly_aftertouch_c, 0, 68, 127
1, 211560, Note_on_c, 0, 75, 83
1, 211568, Note_off_c, 0, 51, 64
1, 211580, Note_off_c, 0, 66, 59
1, 211587, Note_off_c, 0, 71, 57
1, 211588, Poly_aftertouch_c, 0, 68, 0
1, 211638, Note_off_c, 0, 75, 60
1, 211660, Note_on_c, 0, 69, 93
1, 211754, Note_on_c, 0, 81, 86
1, 211853, Note_on_c, 0, 48, 98
1, 211856, Note_on_c, 0, 78, 92
1, 211858, Note_on_c, 0, 75, 90
1, 211863, Control_c, 0, 64, 85
1, 211868, Note_off_c, 0, 81, 63
1, 211878, Control_c, 0, 64, 63
1, 211885, Note_off_c, 0, 48, 68
1, 211893, Control_c, 0, 64, 0
1, 211942, Note_off_c, 0, 69, 47
1, 211966, Note_on_c, 0, 81, 83
1, 211980, Note_off_c, 0, 78, 57
1, 211994, Note_off_c, 0, 75, 60
1, 212058, Note_off_c, 0, 81, 59
1, 212069, Note_on_c, 0, 45, 102
1, 212072, Note_on_c, 0, 69, 85
1, 212110, Note_off_c, 0, 45, 65
1, 212177, Note_on_c, 0, 81, 83
1, 212283, Note_on_c, 0, 36, 91
1, 212291, Note_on_c, 0, 78, 83
1, 212292, Note_on_c, 0, 75, 78
1, 212322, Note_off_c, 0, 81, 65
1, 212342, Note_off_c, 0, 36, 64
1, 212382, Note_off_c, 0, 69, 41
1, 212437, Note_on_c, 0, 81, 70
1, 212513, Note_off_c, 0, 75, 61
1, 212520, Note_off_c, 0, 78, 62
1, 212568, Note_off_c, 0, 81, 64
1, 212578, Note_on_c, 0, 51, 39
1, 212752, Control_c, 0, 64, 15
1, 212767, Control_c, 0, 64, 23
1, 212782, Note_on_c, 0, 60, 26
1, 212782, Control_c, 0, 64, 31
1, 212797, Control_c, 0, 64, 40
1, 212811, Control_c, 0, 64, 48
1, 212826, Control_c, 0, 64, 54
1, 212841, Control_c, 0, 64, 59
1, 212856, Control_c, 0, 64, 61
1, 212871, Control_c, 0, 64, 64
1, 212885, Control_c, 0, 64, 67
1, 212898, Note_on_c, 0, 84, 42
1, 212900, Control_c, 0, 64, 71
1, 212915, Control_c, 0, 64, 78
1, 212930, Control_c, 0, 64, 89
1, 212944, Control_c, 0, 64, 100
1, 212959, Control_c, 0, 64, 116
1, 212974, Control_c, 0, 64, 127
1, 213018, Note_on_c, 0, 57, 30
1, 213048, Note_off_c, 0, 60, 37
1, 213051, Note_on_c, 0, 54, 29
1, 213095, Note_on_c, 0, 96, 59
1, 213140, Note_off_c, 0, 51, 41
1, 213216, Note_off_c, 0, 84, 53
1, 213222, Note_on_c, 0, 60, 29
1, 213224, Note_off_c, 0, 54, 37
1, 213251, Note_off_c, 0, 57, 40
1, 213284, Note_off_c, 0, 60, 55
1, 213325, Note_on_c, 0, 53, 36
1, 213439, Note_off_c, 0, 96, 65
1, 213443, Note_on_c, 0, 60, 40
1, 213464, Note_on_c, 0, 84, 70
1, 213502, Note_off_c, 0, 60, 56
1, 213516, Note_off_c, 0, 53, 42
1, 213525, Note_on_c, 0, 96, 88
1, 213541, Note_on_c, 0, 54, 39
1, 213557, Note_on_c, 0, 57, 34
1, 213569, Note_off_c, 0, 84, 63
1, 213612, Note_off_c, 0, 54, 57
1, 213625, Note_off_c, 0, 96, 66
1, 213637, Note_on_c, 0, 60, 47
1, 213695, Note_off_c, 0, 60, 56
1, 213767, Note_on_c, 0, 49, 40
1, 213778, Note_on_c, 0, 99, 74
1, 213782, Control_c, 0, 64, 94
1, 213796, Control_c, 0, 64, 75
1, 213809, Note_on_c, 0, 87, 41
1, 213811, Control_c, 0, 64, 62
1, 213826, Control_c, 0, 64, 48
1, 213841, Control_c, 0, 64, 44
1, 213852, Note_off_c, 0, 57, 37
1, 213856, Control_c, 0, 64, 49
1, 213871, Control_c, 0, 64, 55
1, 213886, Control_c, 0, 64, 60
1, 213901, Control_c, 0, 64, 64
1, 213915, Control_c, 0, 64, 70
1, 213915, Note_on_c, 0, 61, 43
1, 213930, Control_c, 0, 64, 82
1, 213930, Note_off_c, 0, 87, 63
1, 213945, Control_c, 0, 64, 127
1, 213957, Note_off_c, 0, 99, 64
1, 213986, Note_off_c, 0, 49, 33
1, 214024, Note_off_c, 0, 61, 58
1, 214036, Note_on_c, 0, 97, 87
1, 214048, Note_on_c, 0, 54, 38
1, 214057, Note_on_c, 0, 85, 66
1, 214059, Note_on_c, 0, 58, 43
1, 214126, Note_off_c, 0, 85, 62
1, 214145, Note_on_c, 0, 61, 60
1, 214149, Note_off_c, 0, 97, 64
1, 214150, Note_off_c, 0, 54, 50
1, 214223, Note_off_c, 0, 58, 34
1, 214231, Note_off_c, 0, 61, 56
1, 214252, Note_on_c, 0, 94, 95
1, 214256, Note_on_c, 0, 53, 56
1, 214265, Note_on_c, 0, 82, 74
1, 214330, Note_off_c, 0, 82, 63
1, 214335, Note_off_c, 0, 94, 64
1, 214354, Note_on_c, 0, 61, 61
1, 214420, Note_off_c, 0, 61, 59
1, 214425, Note_off_c, 0, 53, 58
1, 214447, Note_on_c, 0, 58, 56
1, 214452, Note_on_c, 0, 90, 83
1, 214458, Note_on_c, 0, 54, 50
1, 214474, Note_on_c, 0, 78, 72
1, 214536, Note_on_c, 0, 61, 60
1, 214539, Note_off_c, 0, 58, 62
1, 214550, Note_off_c, 0, 54, 62
1, 214564, Note_off_c, 0, 61, 67
1, 214591, Note_off_c, 0, 90, 64
1, 214610, Note_off_c, 0, 78, 64
1, 214619, Control_c, 0, 64, 83
1, 214634, Control_c, 0, 64, 61
1, 214649, Control_c, 0, 64, 0
1, 214664, Note_on_c, 0, 89, 74
1, 214672, Note_on_c, 0, 37, 54
1, 214679, Control_c, 0, 64, 36
1, 214679, Note_on_c, 0, 77, 66
1, 214693, Control_c, 0, 64, 53
1, 214706, Note_off_c, 0, 37, 63
1, 214708, Control_c, 0, 64, 63
1, 214723, Control_c, 0, 64, 72
1, 214735, Note_off_c, 0, 77, 62
1, 214738, Control_c, 0, 64, 91
1, 214753, Control_c, 0, 64, 127
1, 214771, Note_off_c, 0, 89, 64
1, 214805, Note_on_c, 0, 49, 52
1, 214857, Note_off_c, 0, 49, 59
1, 214897, Note_on_c, 0, 53, 51
1, 214899, Note_on_c, 0, 97, 81
1, 214913, Note_on_c, 0, 85, 59
1, 215004, Note_off_c, 0, 53, 57
1, 215007, Note_on_c, 0, 49, 48
1, 215028, Note_off_c, 0, 85, 63
1, 215033, Note_off_c, 0, 97, 64
1, 215108, Note_off_c, 0, 49, 61
1, 215113, Note_on_c, 0, 56, 65
1, 215119, Note_on_c, 0, 95, 93
1, 215128, Note_on_c, 0, 83, 79
1, 215189, Note_off_c, 0, 83, 61
1, 215212, Note_off_c, 0, 95, 63
1, 215220, Note_off_c, 0, 56, 58
1, 215221, Note_on_c, 0, 49, 67
1, 215300, Note_off_c, 0, 49, 60
1, 215307, Poly_aftertouch_c, 0, 51, 127
1, 215320, Note_on_c, 0, 59, 64
1, 215329, Note_on_c, 0, 92, 91
1, 215338, Note_on_c, 0, 80, 78
1, 215371, Poly_aftertouch_c, 0, 51, 0
1, 215390, Note_off_c, 0, 59, 62
1, 215411, Note_on_c, 0, 49, 67
1, 215439, Note_off_c, 0, 49, 66
1, 215457, Note_off_c, 0, 92, 65
1, 215458, Note_off_c, 0, 80, 62
1, 215487, Control_c, 0, 64, 87
1, 215502, Control_c, 0, 64, 62
1, 215517, Control_c, 0, 64, 0
1, 215528, Note_on_c, 0, 42, 65
1, 215531, Note_on_c, 0, 90, 74
1, 215552, Note_on_c, 0, 78, 56
1, 215561, Control_c, 0, 64, 39
1, 215573, Note_off_c, 0, 42, 61
1, 215576, Control_c, 0, 64, 58
1, 215591, Control_c, 0, 64, 68
1, 215606, Control_c, 0, 64, 82
1, 215621, Control_c, 0, 64, 127
1, 215662, Note_on_c, 0, 58, 58
1, 215713, Note_off_c, 0, 90, 60
1, 215754, Note_off_c, 0, 78, 50
1, 215757, Note_off_c, 0, 58, 59
1, 215786, Note_on_c, 0, 49, 60
1, 215883, Note_on_c, 0, 58, 59
1, 215957, Note_off_c, 0, 58, 61
1, 215970, Note_on_c, 0, 54, 67
1, 216032, Note_off_c, 0, 49, 59
1, 216073, Note_on_c, 0, 58, 61
1, 216145, Note_off_c, 0, 58, 59
1, 216169, Note_on_c, 0, 49, 49
1, 216177, Note_on_c, 0, 78, 83
1, 216195, Note_on_c, 0, 66, 66
1, 216264, Note_off_c, 0, 54, 37
1, 216270, Note_on_c, 0, 58, 49
1, 216282, Note_off_c, 0, 49, 62
1, 216301, Note_off_c, 0, 58, 50
1, 216327, Note_off_c, 0, 78, 63
1, 216356, Note_off_c, 0, 66, 61
1, 216369, Control_c, 0, 64, 84
1, 216384, Control_c, 0, 64, 64
1, 216399, Control_c, 0, 64, 36
1, 216402, Note_on_c, 0, 37, 50
1, 216405, Note_on_c, 0, 77, 77
1, 216414, Control_c, 0, 64, 41
1, 216420, Note_on_c, 0, 65, 61
1, 216436, Control_c, 0, 64, 55
1, 216451, Control_c, 0, 64, 60
1, 216455, Note_off_c, 0, 37, 62
1, 216466, Control_c, 0, 64, 67
1, 216481, Control_c, 0, 64, 77
1, 216495, Control_c, 0, 64, 108
1, 216497, Note_off_c, 0, 65, 62
1, 216510, Control_c, 0, 64, 127
1, 216535, Note_off_c, 0, 77, 65
1, 216571, Note_on_c, 0, 59, 48
1, 216616, Note_off_c, 0, 59, 55
1, 216643, Note_on_c, 0, 53, 45
1, 216661, Note_on_c, 0, 49, 43
1, 216661, Note_on_c, 0, 85, 84
1, 216674, Note_on_c, 0, 73, 64
1, 216763, Note_off_c, 0, 53, 59
1, 216767, Note_off_c, 0, 49, 58
1, 216774, Note_on_c, 0, 59, 55
1, 216781, Note_off_c, 0, 85, 67
1, 216788, Note_off_c, 0, 73, 63
1, 216857, Note_off_c, 0, 59, 59
1, 216865, Note_on_c, 0, 83, 89
1, 216867, Control_c, 0, 64, 98
1, 216868, Note_on_c, 0, 50, 55
1, 216875, Note_on_c, 0, 71, 74
1, 216881, Control_c, 0, 64, 77
1, 216883, Note_on_c, 0, 53, 56
1, 216896, Control_c, 0, 64, 65
1, 216911, Control_c, 0, 64, 57
1, 216926, Control_c, 0, 64, 56
1, 216941, Control_c, 0, 64, 60
1, 216956, Control_c, 0, 64, 64
1, 216961, Note_off_c, 0, 71, 62
1, 216971, Control_c, 0, 64, 70
1, 216977, Note_off_c, 0, 50, 62
1, 216984, Note_on_c, 0, 59, 58
1, 216985, Note_off_c, 0, 53, 61
1, 216985, Control_c, 0, 64, 82
1, 216988, Note_off_c, 0, 83, 63
1, 217000, Control_c, 0, 64, 127
1, 217056, Note_off_c, 0, 59, 60
1, 217074, Note_on_c, 0, 80, 89
1, 217074, Control_c, 0, 64, 117
1, 217084, Note_on_c, 0, 53, 52
1, 217089, Control_c, 0, 64, 82
1, 217090, Note_on_c, 0, 49, 59
1, 217093, Note_on_c, 0, 68, 66
1, 217103, Note_on_c, 0, 81, 60
1, 217104, Control_c, 0, 64, 66
1, 217119, Control_c, 0, 64, 52
1, 217129, Note_off_c, 0, 81, 48
1, 217133, Control_c, 0, 64, 51
1, 217148, Control_c, 0, 64, 59
1, 217163, Control_c, 0, 64, 64
1, 217183, Note_on_c, 0, 59, 58
1, 217185, Control_c, 0, 64, 71
1, 217200, Control_c, 0, 64, 89
1, 217208, Note_off_c, 0, 53, 63
1, 217212, Note_off_c, 0, 59, 66
1, 217215, Control_c, 0, 64, 127
1, 217222, Note_off_c, 0, 68, 62
1, 217224, Note_off_c, 0, 80, 63
1, 217231, Note_off_c, 0, 49, 63
1, 217289, Control_c, 0, 64, 91
1, 217304, Control_c, 0, 64, 63
1, 217308, Note_on_c, 0, 78, 74
1, 217314, Note_on_c, 0, 42, 60
1, 217318, Control_c, 0, 64, 0
1, 217332, Note_on_c, 0, 66, 56
1, 217363, Control_c, 0, 64, 46
1, 217378, Control_c, 0, 64, 62
1, 217384, Note_off_c, 0, 42, 61
1, 217394, Control_c, 0, 64, 73
1, 217408, Control_c, 0, 64, 113
1, 217423, Control_c, 0, 64, 127
1, 217470, Note_on_c, 0, 58, 49
1, 217526, Note_off_c, 0, 78, 60
1, 217558, Note_off_c, 0, 58, 58
1, 217571, Note_on_c, 0, 49, 60
1, 217683, Note_on_c, 0, 58, 59
1, 217765, Note_off_c, 0, 58, 60
1, 217768, Note_on_c, 0, 54, 66
1, 217831, Note_off_c, 0, 49, 59
1, 217874, Note_off_c, 0, 66, 40
1, 217882, Note_on_c, 0, 58, 56
1, 217947, Note_off_c, 0, 58, 52
1, 217981, Note_on_c, 0, 49, 44
1, 217984, Note_on_c, 0, 66, 72
1, 218086, Note_on_c, 0, 58, 53
1, 218114, Note_off_c, 0, 54, 32
1, 218115, Note_off_c, 0, 58, 65
1, 218118, Note_off_c, 0, 49, 62
1, 218190, Note_off_c, 0, 66, 57
1, 218231, Control_c, 0, 64, 98
1, 218246, Control_c, 0, 64, 68
1, 218261, Control_c, 0, 64, 36
1, 218263, Note_on_c, 0, 65, 58
1, 218264, Note_on_c, 0, 37, 45
1, 218276, Control_c, 0, 64, 0
1, 218304, Control_c, 0, 64, 30
1, 218319, Control_c, 0, 64, 50
1, 218334, Control_c, 0, 64, 64
1, 218348, Note_off_c, 0, 37, 61
1, 218349, Control_c, 0, 64, 73
1, 218363, Control_c, 0, 64, 89
1, 218378, Control_c, 0, 64, 127
1, 218463, Note_on_c, 0, 59, 45
1, 218515, Note_off_c, 0, 59, 54
1, 218560, Note_on_c, 0, 53, 36
1, 218574, Note_on_c, 0, 49, 34
1, 218591, Note_on_c, 0, 73, 67
1, 218686, Note_off_c, 0, 49, 43
1, 218690, Note_off_c, 0, 53, 47
1, 218715, Note_on_c, 0, 59, 40
1, 218770, Note_off_c, 0, 59, 56
1, 218816, Note_on_c, 0, 71, 71
1, 218822, Note_on_c, 0, 50, 43
1, 218830, Control_c, 0, 64, 96
1, 218843, Note_on_c, 0, 53, 47
1, 218845, Control_c, 0, 64, 81
1, 218860, Control_c, 0, 64, 71
1, 218864, Note_off_c, 0, 73, 59
1, 218875, Control_c, 0, 64, 64
1, 218890, Control_c, 0, 64, 60
1, 218904, Control_c, 0, 64, 63
1, 218915, Note_off_c, 0, 50, 60
1, 218919, Control_c, 0, 64, 65
1, 218934, Control_c, 0, 64, 68
1, 218947, Note_off_c, 0, 53, 56
1, 218948, Control_c, 0, 64, 73
1, 218960, Note_on_c, 0, 59, 37
1, 218963, Control_c, 0, 64, 83
1, 218975, Note_off_c, 0, 65, 38
1, 218979, Control_c, 0, 64, 104
1, 218994, Control_c, 0, 64, 127
1, 219021, Note_off_c, 0, 59, 49
1, 219040, Control_c, 0, 64, 111
1, 219054, Control_c, 0, 64, 96
1, 219068, Note_on_c, 0, 49, 39
1, 219068, Note_on_c, 0, 68, 63
1, 219069, Control_c, 0, 64, 78
1, 219084, Control_c, 0, 64, 65
1, 219087, Note_on_c, 0, 53, 33
1, 219099, Control_c, 0, 64, 50
1, 219101, Note_off_c, 0, 71, 58
1, 219114, Control_c, 0, 64, 41
1, 219128, Control_c, 0, 64, 50
1, 219143, Control_c, 0, 64, 57
1, 219158, Control_c, 0, 64, 62
1, 219173, Control_c, 0, 64, 69
1, 219187, Control_c, 0, 64, 79
1, 219193, Note_on_c, 0, 59, 39
1, 219202, Control_c, 0, 64, 100
1, 219217, Control_c, 0, 64, 127
1, 219218, Note_off_c, 0, 53, 62
1, 219221, Note_off_c, 0, 59, 56
1, 219235, Note_off_c, 0, 49, 62
1, 219379, Control_c, 0, 64, 99
1, 219393, Note_on_c, 0, 42, 40
1, 219394, Control_c, 0, 64, 76
1, 219406, Note_on_c, 0, 66, 48
1, 219409, Control_c, 0, 64, 59
1, 219416, Note_off_c, 0, 68, 39
1, 219432, Control_c, 0, 64, 0
1, 219461, Control_c, 0, 64, 23
1, 219476, Control_c, 0, 64, 39
1, 219491, Control_c, 0, 64, 52
1, 219506, Control_c, 0, 64, 62
1, 219518, Note_off_c, 0, 42, 62
1, 219521, Control_c, 0, 64, 68
1, 219535, Control_c, 0, 64, 75
1, 219550, Control_c, 0, 64, 92
1, 219565, Control_c, 0, 64, 121
1, 219579, Control_c, 0, 64, 127
1, 219648, Note_on_c, 0, 58, 38
1, 219717, Note_off_c, 0, 58, 53
1, 219794, Note_on_c, 0, 49, 28
1, 219795, Note_off_c, 0, 66, 36
1, 219907, Note_on_c, 0, 58, 34
1, 219952, Note_off_c, 0, 58, 57
1, 220005, Note_on_c, 0, 54, 41
1, 220011, Note_off_c, 0, 49, 34
1, 220138, Note_on_c, 0, 58, 32
1, 220184, Note_off_c, 0, 58, 57
1, 220248, Note_on_c, 0, 49, 32
1, 220337, Note_off_c, 0, 49, 56
1, 220342, Note_off_c, 0, 54, 38
1, 220347, Note_on_c, 0, 58, 33
1, 220378, Note_off_c, 0, 58, 55
1, 220505, Note_on_c, 0, 42, 31
1, 220505, Note_on_c, 0, 66, 47
1, 220544, Note_off_c, 0, 42, 54
1, 220685, Note_on_c, 0, 58, 39
1, 220736, Note_off_c, 0, 58, 59
1, 220750, Note_off_c, 0, 66, 47
1, 220805, Note_on_c, 0, 49, 33
1, 220902, Note_on_c, 0, 58, 41
1, 220962, Note_off_c, 0, 58, 57
1, 221014, Note_on_c, 0, 66, 59
1, 221029, Note_on_c, 0, 54, 39
1, 221067, Note_off_c, 0, 49, 36
1, 221135, Note_on_c, 0, 58, 37
1, 221185, Note_off_c, 0, 58, 58
1, 221236, Note_on_c, 0, 49, 34
1, 221329, Note_off_c, 0, 54, 39
1, 221338, Note_on_c, 0, 58, 43
1, 221347, Note_off_c, 0, 49, 60
1, 221366, Note_off_c, 0, 58, 60
1, 221498, Note_on_c, 0, 42, 46
1, 221557, Note_off_c, 0, 42, 54
1, 221626, Note_off_c, 0, 66, 34
1, 221714, Note_on_c, 0, 58, 42
1, 221836, Note_off_c, 0, 58, 49
1, 221891, Note_on_c, 0, 49, 29
1, 221900, Note_on_c, 0, 66, 56
1, 222011, Note_on_c, 0, 58, 40
1, 222115, Note_off_c, 0, 58, 54
1, 222147, Note_on_c, 0, 54, 45
1, 222152, Note_on_c, 0, 65, 70
1, 222232, Note_off_c, 0, 49, 39
1, 222268, Note_on_c, 0, 58, 45
1, 222375, Note_off_c, 0, 58, 52
1, 222390, Note_on_c, 0, 49, 39
1, 222395, Note_on_c, 0, 64, 78
1, 222475, Note_off_c, 0, 65, 60
1, 222504, Note_off_c, 0, 54, 35
1, 222533, Note_off_c, 0, 66, 35
1, 222548, Note_on_c, 0, 58, 47
1, 222558, Note_off_c, 0, 49, 55
1, 222595, Note_off_c, 0, 58, 61
1, 222781, Note_on_c, 0, 41, 42
1, 222782, Control_c, 0, 64, 123
1, 222796, Control_c, 0, 64, 101
1, 222811, Control_c, 0, 64, 88
1, 222826, Control_c, 0, 64, 75
1, 222841, Control_c, 0, 64, 63
1, 222846, Note_on_c, 0, 65, 73
1, 222856, Control_c, 0, 64, 42
1, 222870, Control_c, 0, 64, 0
1, 222878, Note_off_c, 0, 64, 62
1, 222930, Control_c, 0, 64, 12
1, 222945, Control_c, 0, 64, 35
1, 222959, Control_c, 0, 64, 51
1, 222975, Control_c, 0, 64, 63
1, 222990, Control_c, 0, 64, 71
1, 223005, Control_c, 0, 64, 84
1, 223009, Note_off_c, 0, 41, 63
1, 223019, Control_c, 0, 64, 117
1, 223034, Control_c, 0, 64, 127
1, 223166, Note_on_c, 0, 58, 39
1, 223248, Note_off_c, 0, 58, 52
1, 223317, Note_on_c, 0, 50, 40
1, 223415, Note_on_c, 0, 58, 41
1, 223485, Note_off_c, 0, 58, 55
1, 223508, Note_on_c, 0, 53, 56
1, 223551, Note_off_c, 0, 50, 40
1, 223624, Note_on_c, 0, 58, 48
1, 223694, Note_off_c, 0, 58, 58
1, 223712, Note_on_c, 0, 50, 50
1, 223736, Note_off_c, 0, 53, 34
1, 223804, Note_off_c, 0, 50, 62
1, 223834, Note_on_c, 0, 58, 42
1, 223857, Note_off_c, 0, 58, 61
1, 223945, Note_on_c, 0, 41, 57
1, 223976, Note_off_c, 0, 41, 65
1, 224102, Note_on_c, 0, 58, 53
1, 224177, Note_off_c, 0, 58, 57
1, 224211, Note_on_c, 0, 50, 51
1, 224313, Note_on_c, 0, 58, 51
1, 224405, Note_off_c, 0, 58, 58
1, 224438, Note_on_c, 0, 53, 46
1, 224441, Note_on_c, 0, 70, 74
1, 224463, Note_off_c, 0, 50, 53
1, 224547, Note_on_c, 0, 58, 48
1, 224624, Note_off_c, 0, 65, 53
1, 224641, Note_off_c, 0, 58, 59
1, 224654, Note_on_c, 0, 50, 50
1, 224677, Note_off_c, 0, 53, 25
1, 224753, Note_off_c, 0, 50, 63
1, 224778, Note_on_c, 0, 58, 53
1, 224814, Note_off_c, 0, 58, 64
1, 224909, Control_c, 0, 64, 115
1, 224923, Note_on_c, 0, 41, 51
1, 224924, Control_c, 0, 64, 84
1, 224939, Control_c, 0, 64, 63
1, 224946, Note_on_c, 0, 69, 69
1, 224954, Control_c, 0, 64, 24
1, 224969, Control_c, 0, 64, 0
1, 224978, Note_off_c, 0, 70, 61
1, 225013, Control_c, 0, 64, 24
1, 225028, Control_c, 0, 64, 55
1, 225034, Note_off_c, 0, 41, 60
1, 225043, Control_c, 0, 64, 67
1, 225058, Control_c, 0, 64, 79
1, 225072, Control_c, 0, 64, 117
1, 225087, Control_c, 0, 64, 127
1, 225143, Note_on_c, 0, 57, 40
1, 225201, Note_off_c, 0, 57, 51
1, 225248, Note_on_c, 0, 51, 49
1, 225368, Note_on_c, 0, 57, 41
1, 225453, Note_off_c, 0, 57, 55
1, 225490, Note_on_c, 0, 77, 67
1, 225505, Note_on_c, 0, 53, 40
1, 225538, Note_off_c, 0, 51, 30
1, 225617, Note_on_c, 0, 57, 36
1, 225678, Note_off_c, 0, 57, 54
1, 225726, Note_on_c, 0, 51, 35
1, 225803, Note_off_c, 0, 51, 59
1, 225818, Note_off_c, 0, 53, 42
1, 225837, Note_on_c, 0, 57, 37
1, 225870, Note_off_c, 0, 57, 50
1, 225992, Note_on_c, 0, 41, 35
1, 225994, Note_on_c, 0, 75, 55
1, 226029, Note_off_c, 0, 41, 53
1, 226183, Note_on_c, 0, 57, 18
1, 226208, Note_off_c, 0, 77, 48
1, 226240, Note_off_c, 0, 57, 45
1, 226298, Note_on_c, 0, 51, 35
1, 226350, Note_off_c, 0, 69, 28
1, 226469, Note_on_c, 0, 57, 30
1, 226648, Note_on_c, 0, 53, 32
1, 226653, Note_on_c, 0, 72, 42
1, 226684, Note_off_c, 0, 57, 41
1, 226725, Note_off_c, 0, 75, 38
1, 226728, Note_off_c, 0, 51, 32
1, 226733, Control_c, 0, 64, 119
1, 226748, Control_c, 0, 64, 112
1, 226763, Control_c, 0, 64, 110
1, 226778, Control_c, 0, 64, 108
1, 226793, Control_c, 0, 64, 105
1, 226808, Control_c, 0, 64, 102
1, 226823, Control_c, 0, 64, 100
1, 226837, Control_c, 0, 64, 97
1, 226852, Control_c, 0, 64, 94
1, 226853, Note_on_c, 0, 57, 24
1, 226867, Control_c, 0, 64, 91
1, 226882, Control_c, 0, 64, 89
1, 226897, Control_c, 0, 64, 88
1, 226918, Control_c, 0, 64, 86
1, 226933, Control_c, 0, 64, 85
1, 226948, Control_c, 0, 64, 84
1, 226964, Control_c, 0, 64, 83
1, 226979, Control_c, 0, 64, 82
1, 226994, Control_c, 0, 64, 80
1, 227009, Control_c, 0, 64, 79
1, 227023, Control_c, 0, 64, 78
1, 227038, Control_c, 0, 64, 77
1, 227053, Control_c, 0, 64, 76
1, 227067, Control_c, 0, 64, 76
1, 227082, Control_c, 0, 64, 75
1, 227097, Control_c, 0, 64, 74
1, 227112, Control_c, 0, 64, 73
1, 227127, Control_c, 0, 64, 72
1, 227142, Control_c, 0, 64, 71
1, 227146, Note_on_c, 0, 51, 31
1, 227157, Control_c, 0, 64, 71
1, 227172, Control_c, 0, 64, 70
1, 227186, Control_c, 0, 64, 69
1, 227201, Control_c, 0, 64, 68
1, 227216, Control_c, 0, 64, 66
1, 227231, Control_c, 0, 64, 65
1, 227246, Control_c, 0, 64, 63
1, 227260, Control_c, 0, 64, 61
1, 227275, Control_c, 0, 64, 57
1, 227290, Control_c, 0, 64, 52
1, 227305, Control_c, 0, 64, 50
1, 227334, Control_c, 0, 64, 52
1, 227349, Control_c, 0, 64, 54
1, 227364, Control_c, 0, 64, 56
1, 227379, Control_c, 0, 64, 59
1, 227394, Control_c, 0, 64, 60
1, 227409, Control_c, 0, 64, 61
1, 227423, Control_c, 0, 64, 63
1, 227438, Control_c, 0, 64, 65
1, 227453, Control_c, 0, 64, 68
1, 227467, Control_c, 0, 64, 72
1, 227468, Note_off_c, 0, 72, 37
1, 227482, Control_c, 0, 64, 76
1, 227497, Control_c, 0, 64, 81
1, 227512, Control_c, 0, 64, 85
1, 227527, Control_c, 0, 64, 88
1, 227541, Control_c, 0, 64, 90
1, 227556, Control_c, 0, 64, 91
1, 227615, Note_off_c, 0, 51, 32
1, 227631, Note_off_c, 0, 57, 36
1, 227631, Control_c, 0, 64, 90
1, 227645, Control_c, 0, 64, 89
1, 227649, Note_off_c, 0, 53, 33
1, 227667, Control_c, 0, 64, 89
1, 227682, Control_c, 0, 64, 88
1, 227697, Control_c, 0, 64, 87
1, 227712, Control_c, 0, 64, 87
1, 227727, Control_c, 0, 64, 86
1, 227741, Control_c, 0, 64, 85
1, 227756, Control_c, 0, 64, 85
1, 227787, Control_c, 0, 64, 84
1, 227802, Control_c, 0, 64, 83
1, 227832, Control_c, 0, 64, 83
1, 227861, Control_c, 0, 64, 82
1, 227876, Control_c, 0, 64, 82
1, 227890, Control_c, 0, 64, 81
1, 227905, Control_c, 0, 64, 81
1, 227920, Control_c, 0, 64, 80
1, 227950, Control_c, 0, 64, 80
1, 227964, Control_c, 0, 64, 79
1, 227979, Control_c, 0, 64, 78
1, 227994, Control_c, 0, 64, 78
1, 228009, Control_c, 0, 64, 77
1, 228024, Control_c, 0, 64, 77
1, 228054, Control_c, 0, 64, 76
1, 228069, Control_c, 0, 64, 75
1, 228083, Control_c, 0, 64, 75
1, 228098, Control_c, 0, 64, 74
1, 228113, Control_c, 0, 64, 74
1, 228128, Control_c, 0, 64, 73
1, 228143, Control_c, 0, 64, 73
1, 228157, Control_c, 0, 64, 72
1, 228202, Control_c, 0, 64, 72
1, 228231, Control_c, 0, 64, 71
1, 228246, Control_c, 0, 64, 71
1, 228261, Control_c, 0, 64, 70
1, 228305, Control_c, 0, 64, 70
1, 228320, Control_c, 0, 64, 69
1, 228335, Control_c, 0, 67, 14
1, 228350, Control_c, 0, 64, 69
1, 228350, Control_c, 0, 67, 25
1, 228364, Control_c, 0, 67, 36
1, 228379, Control_c, 0, 67, 48
1, 228394, Control_c, 0, 64, 68
1, 228394, Control_c, 0, 67, 57
1, 228416, Control_c, 0, 64, 67
1, 228416, Control_c, 0, 67, 68
1, 228431, Control_c, 0, 64, 67
1, 228431, Control_c, 0, 67, 80
1, 228446, Control_c, 0, 64, 66
1, 228446, Control_c, 0, 67, 90
1, 228461, Control_c, 0, 64, 66
1, 228461, Control_c, 0, 67, 100
1, 228476, Control_c, 0, 64, 65
1, 228476, Control_c, 0, 67, 110
1, 228490, Control_c, 0, 64, 65
1, 228490, Control_c, 0, 67, 119
1, 228505, Control_c, 0, 67, 127
1, 228520, Control_c, 0, 64, 64
1, 228535, Control_c, 0, 64, 64
1, 228550, Control_c, 0, 64, 63
1, 228581, Control_c, 0, 64, 63
1, 228595, Control_c, 0, 64, 62
1, 228610, Control_c, 0, 64, 62
1, 228625, Control_c, 0, 64, 61
1, 228639, Control_c, 0, 64, 61
1, 228654, Control_c, 0, 64, 60
1, 228669, Control_c, 0, 64, 60
1, 228684, Control_c, 0, 64, 59
1, 228699, Control_c, 0, 64, 59
1, 228713, Control_c, 0, 64, 58
1, 228728, Control_c, 0, 64, 58
1, 228743, Control_c, 0, 64, 57
1, 228758, Control_c, 0, 64, 57
1, 228772, Control_c, 0, 64, 56
1, 228876, Control_c, 0, 64, 57
1, 228891, Control_c, 0, 64, 57
1, 228905, Control_c, 0, 64, 58
1, 228920, Control_c, 0, 64, 58
1, 228935, Control_c, 0, 64, 59
1, 228950, Control_c, 0, 64, 59
1, 228965, Control_c, 0, 64, 60
1, 228979, Control_c, 0, 64, 60
1, 228994, Control_c, 0, 64, 61
1, 229009, Control_c, 0, 64, 62
1, 229024, Control_c, 0, 64, 63
1, 229038, Control_c, 0, 64, 63
1, 229053, Control_c, 0, 64, 64
1, 229068, Control_c, 0, 64, 65
1, 229083, Control_c, 0, 64, 66
1, 229098, Control_c, 0, 64, 68
1, 229112, Control_c, 0, 64, 70
1, 229127, Control_c, 0, 64, 74
1, 229142, Control_c, 0, 64, 77
1, 229165, Control_c, 0, 64, 82
1, 229180, Control_c, 0, 64, 88
1, 229194, Control_c, 0, 64, 97
1, 229209, Control_c, 0, 64, 112
1, 229224, Control_c, 0, 64, 127
1, 229298, Note_on_c, 0, 89, 39
1, 229447, Note_on_c, 0, 46, 29
1, 229477, Note_off_c, 0, 89, 41
1, 229493, Note_off_c, 0, 46, 52
1, 229503, Note_on_c, 0, 88, 42
1, 229563, Note_off_c, 0, 88, 62
1, 229611, Note_on_c, 0, 91, 51
1, 229656, Note_off_c, 0, 91, 63
1, 229669, Control_c, 0, 64, 108
1, 229673, Note_on_c, 0, 89, 61
1, 229684, Control_c, 0, 64, 97
1, 229699, Control_c, 0, 64, 88
1, 229710, Note_on_c, 0, 62, 33
1, 229714, Control_c, 0, 64, 79
1, 229716, Note_off_c, 0, 89, 59
1, 229728, Control_c, 0, 64, 69
1, 229732, Note_on_c, 0, 53, 32
1, 229733, Note_on_c, 0, 58, 32
1, 229735, Note_on_c, 0, 87, 62
1, 229743, Control_c, 0, 64, 60
1, 229758, Control_c, 0, 64, 46
1, 229773, Control_c, 0, 64, 33
1, 229774, Note_off_c, 0, 87, 61
1, 229788, Control_c, 0, 64, 0
1, 229794, Note_on_c, 0, 86, 63
1, 229822, Note_off_c, 0, 86, 65
1, 229845, Note_on_c, 0, 84, 60
1, 229861, Note_off_c, 0, 84, 62
1, 229865, Note_off_c, 0, 62, 55
1, 229868, Note_off_c, 0, 58, 55
1, 229873, Note_off_c, 0, 53, 45
1, 229896, Note_on_c, 0, 82, 65
1, 229936, Note_off_c, 0, 82, 65
1, 229963, Note_on_c, 0, 81, 60
1, 229985, Note_off_c, 0, 81, 65
1, 230012, Note_on_c, 0, 79, 65
1, 230044, Note_off_c, 0, 79, 58
1, 230062, Note_on_c, 0, 53, 46
1, 230072, Note_on_c, 0, 58, 31
1, 230078, Note_on_c, 0, 77, 58
1, 230084, Note_on_c, 0, 62, 12
1, 230090, Note_off_c, 0, 53, 58
1, 230099, Note_off_c, 0, 58, 47
1, 230116, Note_off_c, 0, 77, 64
1, 230124, Note_on_c, 0, 75, 67
1, 230131, Note_off_c, 0, 62, 28
1, 230156, Note_off_c, 0, 75, 61
1, 230189, Note_on_c, 0, 74, 62
1, 230240, Note_off_c, 0, 74, 61
1, 230263, Note_on_c, 0, 50, 32
1, 230265, Note_on_c, 0, 72, 72
1, 230285, Control_c, 0, 64, 38
1, 230300, Control_c, 0, 64, 55
1, 230310, Note_off_c, 0, 50, 57
1, 230315, Control_c, 0, 64, 62
1, 230330, Control_c, 0, 64, 66
1, 230345, Control_c, 0, 64, 71
1, 230359, Control_c, 0, 64, 78
1, 230374, Control_c, 0, 64, 87
1, 230389, Control_c, 0, 64, 99
1, 230404, Control_c, 0, 64, 108
1, 230419, Control_c, 0, 64, 109
1, 230433, Control_c, 0, 64, 107
1, 230448, Control_c, 0, 64, 106
1, 230463, Control_c, 0, 64, 104
1, 230478, Control_c, 0, 64, 102
1, 230492, Control_c, 0, 64, 100
1, 230507, Control_c, 0, 64, 97
1, 230513, Note_on_c, 0, 65, 46
1, 230522, Control_c, 0, 64, 94
1, 230537, Control_c, 0, 64, 92
1, 230544, Note_on_c, 0, 58, 36
1, 230551, Note_on_c, 0, 53, 30
1, 230552, Control_c, 0, 64, 89
1, 230567, Control_c, 0, 64, 88
1, 230582, Control_c, 0, 64, 86
1, 230597, Control_c, 0, 64, 84
1, 230611, Control_c, 0, 64, 83
1, 230626, Control_c, 0, 64, 81
1, 230641, Control_c, 0, 64, 80
1, 230663, Control_c, 0, 64, 79
1, 230678, Control_c, 0, 64, 78
1, 230692, Control_c, 0, 64, 76
1, 230707, Control_c, 0, 64, 74
1, 230722, Control_c, 0, 64, 71
1, 230723, Note_on_c, 0, 70, 48
1, 230737, Control_c, 0, 64, 68
1, 230749, Note_off_c, 0, 72, 56
1, 230750, Note_off_c, 0, 53, 42
1, 230752, Control_c, 0, 64, 65
1, 230756, Note_off_c, 0, 58, 34
1, 230766, Control_c, 0, 64, 62
1, 230772, Note_off_c, 0, 65, 36
1, 230781, Control_c, 0, 64, 58
1, 230796, Control_c, 0, 64, 53
1, 230811, Control_c, 0, 64, 36
1, 230826, Control_c, 0, 64, 0
1, 230829, Note_off_c, 0, 70, 58
1, 230934, Note_on_c, 0, 53, 51
1, 230936, Note_on_c, 0, 65, 45
1, 230943, Note_on_c, 0, 58, 41
1, 230961, Note_off_c, 0, 65, 57
1, 230972, Note_off_c, 0, 58, 60
1, 230973, Note_off_c, 0, 53, 64
1, 231097, Note_on_c, 0, 70, 41
1, 231108, Control_c, 0, 64, 37
1, 231123, Control_c, 0, 64, 56
1, 231125, Note_off_c, 0, 70, 63
1, 231136, Note_on_c, 0, 48, 40
1, 231138, Control_c, 0, 64, 63
1, 231153, Control_c, 0, 64, 66
1, 231162, Note_on_c, 0, 69, 47
1, 231166, Note_off_c, 0, 48, 58
1, 231168, Control_c, 0, 64, 71
1, 231182, Control_c, 0, 64, 80
1, 231193, Note_off_c, 0, 69, 58
1, 231197, Control_c, 0, 64, 91
1, 231212, Control_c, 0, 64, 100
1, 231223, Note_on_c, 0, 70, 58
1, 231227, Control_c, 0, 64, 102
1, 231241, Control_c, 0, 64, 101
1, 231252, Note_off_c, 0, 70, 66
1, 231256, Control_c, 0, 64, 99
1, 231271, Control_c, 0, 64, 95
1, 231285, Note_on_c, 0, 72, 66
1, 231286, Control_c, 0, 64, 91
1, 231301, Control_c, 0, 64, 86
1, 231315, Control_c, 0, 64, 81
1, 231321, Note_on_c, 0, 63, 47
1, 231321, Note_off_c, 0, 72, 60
1, 231330, Control_c, 0, 64, 75
1, 231331, Note_on_c, 0, 53, 42
1, 231334, Note_on_c, 0, 57, 42
1, 231345, Control_c, 0, 64, 71
1, 231347, Note_on_c, 0, 74, 73
1, 231360, Control_c, 0, 64, 66
1, 231375, Control_c, 0, 64, 61
1, 231382, Note_off_c, 0, 74, 57
1, 231389, Control_c, 0, 64, 53
1, 231412, Note_on_c, 0, 75, 73
1, 231412, Control_c, 0, 64, 34
1, 231427, Control_c, 0, 64, 0
1, 231436, Note_off_c, 0, 75, 68
1, 231473, Note_on_c, 0, 77, 75
1, 231495, Note_off_c, 0, 63, 59
1, 231500, Note_off_c, 0, 77, 65
1, 231506, Note_off_c, 0, 57, 59
1, 231521, Note_off_c, 0, 53, 45
1, 231530, Note_on_c, 0, 79, 73
1, 231575, Note_off_c, 0, 79, 65
1, 231586, Note_on_c, 0, 81, 77
1, 231641, Note_off_c, 0, 81, 65
1, 231644, Note_on_c, 0, 82, 76
1, 231667, Note_off_c, 0, 82, 71
1, 231691, Note_on_c, 0, 57, 52
1, 231693, Note_on_c, 0, 63, 51
1, 231700, Note_on_c, 0, 53, 41
1, 231705, Note_on_c, 0, 83, 78
1, 231715, Note_off_c, 0, 63, 57
1, 231716, Note_off_c, 0, 57, 60
1, 231727, Note_off_c, 0, 53, 57
1, 231736, Note_off_c, 0, 83, 60
1, 231762, Note_on_c, 0, 84, 73
1, 231797, Note_off_c, 0, 84, 59
1, 231819, Note_on_c, 0, 86, 73
1, 231886, Note_off_c, 0, 86, 60
1, 231887, Control_c, 0, 64, 25
1, 231900, Note_on_c, 0, 41, 38
1, 231902, Control_c, 0, 64, 47
1, 231908, Note_on_c, 0, 89, 74
1, 231917, Control_c, 0, 64, 60
1, 231931, Control_c, 0, 64, 66
1, 231946, Control_c, 0, 64, 71
1, 231952, Note_off_c, 0, 41, 59
1, 231961, Control_c, 0, 64, 78
1, 231976, Control_c, 0, 64, 88
1, 231991, Control_c, 0, 64, 103
1, 232005, Control_c, 0, 64, 127
1, 232160, Note_on_c, 0, 53, 37
1, 232165, Note_on_c, 0, 57, 32
1, 232165, Note_on_c, 0, 60, 32
1, 232340, Note_off_c, 0, 53, 41
1, 232346, Note_off_c, 0, 57, 41
1, 232349, Note_off_c, 0, 60, 36
1, 232353, Control_c, 0, 64, 123
1, 232368, Control_c, 0, 64, 115
1, 232383, Control_c, 0, 64, 108
1, 232391, Note_on_c, 0, 87, 43
1, 232398, Control_c, 0, 64, 101
1, 232412, Control_c, 0, 64, 95
1, 232417, Note_off_c, 0, 89, 62
1, 232427, Control_c, 0, 64, 90
1, 232431, Note_off_c, 0, 87, 64
1, 232442, Control_c, 0, 64, 86
1, 232457, Control_c, 0, 64, 83
1, 232472, Control_c, 0, 64, 80
1, 232486, Control_c, 0, 64, 75
1, 232501, Control_c, 0, 64, 70
1, 232516, Control_c, 0, 64, 64
1, 232530, Control_c, 0, 64, 59
1, 232545, Control_c, 0, 64, 53
1, 232561, Control_c, 0, 64, 48
1, 232576, Control_c, 0, 64, 33
1, 232591, Control_c, 0, 64, 0
1, 232593, Note_on_c, 0, 60, 38
1, 232594, Note_on_c, 0, 53, 42
1, 232603, Note_on_c, 0, 57, 27
1, 232618, Note_off_c, 0, 60, 58
1, 232625, Note_off_c, 0, 53, 62
1, 232631, Note_off_c, 0, 57, 48
1, 232709, Control_c, 0, 64, 29
1, 232724, Control_c, 0, 64, 39
1, 232739, Note_on_c, 0, 87, 47
1, 232739, Control_c, 0, 64, 46
1, 232753, Control_c, 0, 64, 53
1, 232768, Control_c, 0, 64, 60
1, 232773, Note_off_c, 0, 87, 64
1, 232783, Control_c, 0, 64, 64
1, 232789, Note_on_c, 0, 46, 33
1, 232798, Control_c, 0, 64, 67
1, 232802, Note_on_c, 0, 86, 57
1, 232813, Control_c, 0, 64, 71
1, 232827, Control_c, 0, 64, 79
1, 232831, Note_off_c, 0, 46, 50
1, 232842, Control_c, 0, 64, 89
1, 232847, Note_off_c, 0, 86, 56
1, 232857, Control_c, 0, 64, 109
1, 232871, Control_c, 0, 64, 127
1, 232883, Note_on_c, 0, 98, 38
1, 232940, Note_on_c, 0, 96, 61
1, 232940, Note_off_c, 0, 98, 47
1, 232993, Note_on_c, 0, 62, 40
1, 233002, Note_on_c, 0, 53, 41
1, 233003, Note_on_c, 0, 58, 44
1, 233011, Note_on_c, 0, 94, 70
1, 233015, Note_off_c, 0, 96, 64
1, 233028, Note_off_c, 0, 62, 62
1, 233039, Note_off_c, 0, 53, 63
1, 233039, Note_off_c, 0, 58, 65
1, 233065, Note_on_c, 0, 93, 71
1, 233070, Note_off_c, 0, 94, 62
1, 233093, Note_off_c, 0, 93, 68
1, 233117, Note_on_c, 0, 91, 70
1, 233145, Note_off_c, 0, 91, 66
1, 233178, Note_on_c, 0, 89, 79
1, 233232, Note_on_c, 0, 87, 74
1, 233244, Note_off_c, 0, 89, 61
1, 233250, Control_c, 0, 64, 108
1, 233264, Control_c, 0, 64, 96
1, 233278, Control_c, 0, 64, 87
1, 233289, Note_on_c, 0, 86, 74
1, 233289, Note_off_c, 0, 87, 64
1, 233293, Control_c, 0, 64, 77
1, 233308, Control_c, 0, 64, 67
1, 233323, Control_c, 0, 64, 47
1, 233325, Note_off_c, 0, 86, 65
1, 233338, Control_c, 0, 64, 0
1, 233348, Note_on_c, 0, 53, 52
1, 233348, Note_on_c, 0, 58, 51
1, 233354, Note_on_c, 0, 62, 33
1, 233358, Note_on_c, 0, 84, 73
1, 233380, Note_off_c, 0, 58, 64
1, 233381, Note_off_c, 0, 53, 65
1, 233387, Note_off_c, 0, 62, 44
1, 233395, Note_off_c, 0, 84, 53
1, 233417, Note_on_c, 0, 82, 66
1, 233470, Note_off_c, 0, 82, 63
1, 233479, Note_on_c, 0, 81, 66
1, 233487, Control_c, 0, 64, 18
1, 233501, Control_c, 0, 64, 48
1, 233509, Note_off_c, 0, 81, 67
1, 233516, Control_c, 0, 64, 61
1, 233530, Note_on_c, 0, 39, 44
1, 233531, Control_c, 0, 64, 66
1, 233543, Note_on_c, 0, 79, 61
1, 233546, Control_c, 0, 64, 71
1, 233561, Control_c, 0, 64, 78
1, 233572, Note_off_c, 0, 39, 63
1, 233575, Control_c, 0, 64, 90
1, 233589, Note_off_c, 0, 79, 59
1, 233590, Control_c, 0, 64, 118
1, 233605, Control_c, 0, 64, 127
1, 233616, Note_on_c, 0, 91, 70
1, 233690, Note_off_c, 0, 91, 63
1, 233691, Note_on_c, 0, 89, 67
1, 233727, Note_on_c, 0, 60, 55
1, 233743, Note_on_c, 0, 58, 50
1, 233748, Note_off_c, 0, 89, 58
1, 233750, Note_on_c, 0, 87, 69
1, 233757, Note_on_c, 0, 55, 41
1, 233761, Note_on_c, 0, 51, 47
1, 233799, Note_off_c, 0, 87, 61
1, 233805, Control_c, 0, 64, 105
1, 233809, Note_on_c, 0, 86, 68
1, 233820, Control_c, 0, 64, 90
1, 233835, Control_c, 0, 64, 79
1, 233836, Note_off_c, 0, 86, 69
1, 233849, Control_c, 0, 64, 69
1, 233863, Note_on_c, 0, 84, 73
1, 233864, Control_c, 0, 64, 59
1, 233879, Control_c, 0, 64, 29
1, 233894, Control_c, 0, 64, 0
1, 233902, Note_off_c, 0, 51, 35
1, 233905, Note_off_c, 0, 84, 47
1, 233915, Note_off_c, 0, 58, 60
1, 233919, Note_on_c, 0, 82, 76
1, 233920, Note_off_c, 0, 55, 60
1, 233920, Note_off_c, 0, 60, 61
1, 233952, Note_off_c, 0, 82, 56
1, 233974, Note_on_c, 0, 81, 72
1, 234032, Note_off_c, 0, 81, 65
1, 234037, Note_on_c, 0, 79, 69
1, 234069, Note_off_c, 0, 79, 66
1, 234083, Note_on_c, 0, 51, 59
1, 234086, Note_on_c, 0, 60, 41
1, 234093, Note_on_c, 0, 58, 40
1, 234094, Note_on_c, 0, 77, 75
1, 234111, Note_off_c, 0, 51, 66
1, 234111, Note_off_c, 0, 60, 51
1, 234123, Note_off_c, 0, 58, 46
1, 234133, Note_off_c, 0, 77, 56
1, 234153, Note_on_c, 0, 75, 67
1, 234205, Note_off_c, 0, 75, 61
1, 234209, Note_on_c, 0, 74, 71
1, 234241, Note_off_c, 0, 74, 64
1, 234266, Note_on_c, 0, 40, 50
1, 234266, Control_c, 0, 64, 33
1, 234281, Note_on_c, 0, 72, 65
1, 234281, Control_c, 0, 64, 55
1, 234296, Note_off_c, 0, 40, 61
1, 234296, Control_c, 0, 64, 67
1, 234311, Control_c, 0, 64, 82
1, 234325, Control_c, 0, 64, 127
1, 234327, Note_off_c, 0, 72, 60
1, 234347, Note_on_c, 0, 76, 69
1, 234405, Note_on_c, 0, 79, 73
1, 234406, Note_off_c, 0, 76, 62
1, 234448, Note_on_c, 0, 60, 67
1, 234458, Note_off_c, 0, 79, 65
1, 234460, Note_on_c, 0, 82, 75
1, 234463, Note_on_c, 0, 52, 60
1, 234464, Note_on_c, 0, 55, 52
1, 234471, Note_on_c, 0, 58, 53
1, 234481, Note_off_c, 0, 60, 64
1, 234502, Note_off_c, 0, 82, 62
1, 234509, Note_off_c, 0, 55, 63
1, 234510, Note_off_c, 0, 58, 63
1, 234518, Note_on_c, 0, 79, 84
1, 234536, Note_off_c, 0, 52, 65
1, 234572, Note_off_c, 0, 79, 65
1, 234576, Note_on_c, 0, 82, 86
1, 234596, Note_off_c, 0, 82, 71
1, 234627, Note_on_c, 0, 84, 92
1, 234686, Note_on_c, 0, 88, 89
1, 234690, Note_off_c, 0, 84, 65
1, 234741, Note_on_c, 0, 91, 88
1, 234758, Note_off_c, 0, 88, 65
1, 234789, Note_on_c, 0, 48, 65
1, 234800, Note_on_c, 0, 94, 95
1, 234807, Note_off_c, 0, 91, 65
1, 234821, Control_c, 0, 64, 117
1, 234835, Control_c, 0, 64, 92
1, 234850, Control_c, 0, 64, 78
1, 234865, Control_c, 0, 64, 66
1, 234867, Note_on_c, 0, 91, 89
1, 234880, Control_c, 0, 64, 54
1, 234895, Control_c, 0, 64, 33
1, 234901, Note_off_c, 0, 94, 64
1, 234910, Control_c, 0, 64, 0
1, 234930, Note_on_c, 0, 88, 80
1, 234938, Note_off_c, 0, 91, 64
1, 234993, Note_on_c, 0, 41, 54
1, 235014, Note_off_c, 0, 48, 58
1, 235022, Note_on_c, 0, 89, 80
1, 235028, Note_off_c, 0, 88, 63
1, 235074, Control_c, 0, 64, 23
1, 235089, Control_c, 0, 64, 57
1, 235093, Note_off_c, 0, 89, 63
1, 235100, Note_off_c, 0, 41, 64
1, 235103, Control_c, 0, 64, 70
1, 235118, Control_c, 0, 64, 92
1, 235133, Control_c, 0, 64, 127
1, 235272, Note_on_c, 0, 60, 61
1, 235283, Note_on_c, 0, 89, 60
1, 235301, Note_on_c, 0, 57, 47
1, 235319, Note_on_c, 0, 53, 45
1, 235327, Note_off_c, 0, 89, 60
1, 235349, Note_on_c, 0, 91, 69
1, 235424, Note_on_c, 0, 89, 81
1, 235461, Note_off_c, 0, 91, 61
1, 235480, Note_on_c, 0, 62, 79
1, 235491, Note_on_c, 0, 88, 76
1, 235495, Control_c, 0, 64, 82
1, 235501, Note_off_c, 0, 89, 63
1, 235508, Note_on_c, 0, 58, 64
1, 235510, Control_c, 0, 64, 64
1, 235521, Note_off_c, 0, 57, 53
1, 235524, Note_off_c, 0, 60, 59
1, 235525, Control_c, 0, 64, 35
1, 235540, Control_c, 0, 64, 11
1, 235554, Control_c, 0, 64, 37
1, 235569, Control_c, 0, 64, 49
1, 235577, Note_on_c, 0, 91, 79
1, 235577, Note_off_c, 0, 88, 65
1, 235584, Control_c, 0, 64, 58
1, 235599, Control_c, 0, 64, 64
1, 235600, Note_off_c, 0, 62, 64
1, 235614, Control_c, 0, 64, 72
1, 235628, Control_c, 0, 64, 87
1, 235643, Control_c, 0, 64, 127
1, 235651, Note_on_c, 0, 89, 76
1, 235685, Note_off_c, 0, 91, 56
1, 235704, Note_off_c, 0, 58, 60
1, 235721, Note_on_c, 0, 63, 52
1, 235733, Note_on_c, 0, 57, 48
1, 235733, Control_c, 0, 64, 103
1, 235748, Control_c, 0, 64, 77
1, 235755, Note_off_c, 0, 53, 42
1, 235759, Note_on_c, 0, 88, 59
1, 235762, Note_off_c, 0, 89, 60
1, 235763, Control_c, 0, 64, 62
1, 235777, Control_c, 0, 64, 33
1, 235792, Control_c, 0, 64, 24
1, 235807, Control_c, 0, 64, 41
1, 235822, Control_c, 0, 64, 55
1, 235837, Control_c, 0, 64, 64
1, 235842, Note_off_c, 0, 63, 62
1, 235843, Note_off_c, 0, 57, 64
1, 235852, Note_off_c, 0, 88, 62
1, 235852, Control_c, 0, 64, 71
1, 235867, Control_c, 0, 64, 80
1, 235878, Note_on_c, 0, 91, 54
1, 235882, Control_c, 0, 64, 96
1, 235903, Control_c, 0, 64, 113
1, 235918, Control_c, 0, 64, 118
1, 235933, Control_c, 0, 64, 116
1, 235948, Control_c, 0, 64, 114
1, 235963, Control_c, 0, 64, 110
1, 235965, Note_off_c, 0, 91, 55
1, 235971, Note_on_c, 0, 89, 57
1, 235977, Control_c, 0, 64, 101
1, 235992, Control_c, 0, 64, 88
1, 236007, Control_c, 0, 64, 73
1, 236022, Control_c, 0, 64, 58
1, 236026, Note_on_c, 0, 46, 34
1, 236037, Control_c, 0, 64, 33
1, 236051, Note_off_c, 0, 89, 59
1, 236052, Control_c, 0, 64, 40
1, 236067, Control_c, 0, 64, 53
1, 236081, Control_c, 0, 64, 61
1, 236090, Note_on_c, 0, 88, 37
1, 236096, Control_c, 0, 64, 67
1, 236111, Control_c, 0, 64, 76
1, 236114, Note_off_c, 0, 46, 56
1, 236126, Control_c, 0, 64, 89
1, 236141, Control_c, 0, 64, 107
1, 236153, Note_off_c, 0, 88, 58
1, 236156, Control_c, 0, 64, 127
1, 236181, Note_on_c, 0, 91, 60
1, 236185, Control_c, 0, 64, 123
1, 236200, Control_c, 0, 64, 121
1, 236230, Note_off_c, 0, 91, 62
1, 236230, Control_c, 0, 64, 119
1, 236245, Control_c, 0, 64, 114
1, 236251, Note_on_c, 0, 89, 58
1, 236259, Control_c, 0, 64, 110
1, 236274, Control_c, 0, 64, 105
1, 236289, Control_c, 0, 64, 99
1, 236290, Note_on_c, 0, 62, 37
1, 236293, Note_off_c, 0, 89, 62
1, 236302, Note_on_c, 0, 87, 65
1, 236303, Control_c, 0, 64, 93
1, 236308, Note_on_c, 0, 58, 38
1, 236318, Control_c, 0, 64, 88
1, 236333, Control_c, 0, 64, 84
1, 236343, Note_off_c, 0, 87, 56
1, 236345, Note_on_c, 0, 53, 26
1, 236348, Control_c, 0, 64, 81
1, 236363, Control_c, 0, 64, 79
1, 236368, Note_on_c, 0, 86, 66
1, 236377, Control_c, 0, 64, 75
1, 236392, Control_c, 0, 64, 71
1, 236396, Note_off_c, 0, 86, 65
1, 236407, Control_c, 0, 64, 66
1, 236418, Note_on_c, 0, 84, 75
1, 236422, Control_c, 0, 64, 63
1, 236437, Control_c, 0, 64, 59
1, 236443, Note_off_c, 0, 84, 64
1, 236451, Control_c, 0, 64, 55
1, 236457, Note_off_c, 0, 53, 52
1, 236466, Control_c, 0, 64, 49
1, 236469, Note_off_c, 0, 58, 59
1, 236474, Note_on_c, 0, 82, 71
1, 236479, Note_off_c, 0, 62, 57
1, 236481, Control_c, 0, 64, 34
1, 236496, Control_c, 0, 64, 0
1, 236520, Note_off_c, 0, 82, 61
1, 236534, Note_on_c, 0, 81, 74
1, 236567, Note_off_c, 0, 81, 64
1, 236593, Note_on_c, 0, 79, 69
1, 236623, Note_off_c, 0, 79, 62
1, 236660, Note_on_c, 0, 62, 49
1, 236662, Note_on_c, 0, 77, 72
1, 236666, Note_on_c, 0, 53, 46
1, 236673, Note_on_c, 0, 58, 33
1, 236684, Note_off_c, 0, 62, 58
1, 236693, Note_off_c, 0, 53, 58
1, 236701, Note_off_c, 0, 58, 45
1, 236717, Note_on_c, 0, 75, 72
1, 236719, Note_off_c, 0, 77, 60
1, 236770, Note_on_c, 0, 74, 78
1, 236773, Note_off_c, 0, 75, 63
1, 236851, Note_off_c, 0, 74, 62
1, 236853, Note_on_c, 0, 50, 29
1, 236858, Note_on_c, 0, 72, 77
1, 236874, Control_c, 0, 64, 17
1, 236889, Control_c, 0, 64, 42
1, 236904, Control_c, 0, 64, 54
1, 236919, Control_c, 0, 64, 59
1, 236934, Control_c, 0, 64, 62
1, 236939, Note_off_c, 0, 50, 50
1, 236949, Control_c, 0, 64, 65
1, 236964, Control_c, 0, 64, 68
1, 236979, Control_c, 0, 64, 71
1, 236994, Control_c, 0, 64, 76
1, 237008, Control_c, 0, 64, 80
1, 237023, Control_c, 0, 64, 83
1, 237038, Control_c, 0, 64, 84
1, 237053, Control_c, 0, 64, 86
1, 237068, Control_c, 0, 64, 88
1, 237097, Control_c, 0, 64, 87
1, 237112, Control_c, 0, 64, 87
1, 237129, Note_on_c, 0, 65, 44
1, 237141, Control_c, 0, 64, 85
1, 237149, Note_on_c, 0, 58, 39
1, 237156, Control_c, 0, 64, 84
1, 237165, Note_on_c, 0, 53, 40
1, 237171, Control_c, 0, 64, 83
1, 237186, Control_c, 0, 64, 83
1, 237200, Control_c, 0, 64, 82
1, 237215, Control_c, 0, 64, 80
1, 237230, Control_c, 0, 64, 79
1, 237244, Control_c, 0, 64, 79
1, 237259, Control_c, 0, 64, 78
1, 237274, Control_c, 0, 64, 77
1, 237289, Control_c, 0, 64, 75
1, 237304, Control_c, 0, 64, 74
1, 237319, Control_c, 0, 64, 73
1, 237333, Control_c, 0, 64, 71
1, 237336, Note_on_c, 0, 70, 47
1, 237349, Control_c, 0, 64, 69
1, 237364, Control_c, 0, 64, 67
1, 237372, Note_off_c, 0, 53, 40
1, 237379, Control_c, 0, 64, 65
1, 237382, Note_off_c, 0, 72, 58
1, 237385, Note_off_c, 0, 58, 34
1, 237402, Control_c, 0, 64, 64
1, 237416, Note_off_c, 0, 65, 35
1, 237417, Control_c, 0, 64, 62
1, 237431, Control_c, 0, 64, 60
1, 237446, Control_c, 0, 64, 57
1, 237461, Control_c, 0, 64, 51
1, 237476, Control_c, 0, 64, 38
1, 237486, Note_off_c, 0, 70, 55
1, 237491, Control_c, 0, 64, 0
1, 237565, Note_on_c, 0, 65, 51
1, 237568, Note_on_c, 0, 53, 53
1, 237573, Note_on_c, 0, 58, 41
1, 237588, Note_off_c, 0, 65, 61
1, 237600, Note_off_c, 0, 58, 59
1, 237604, Note_off_c, 0, 53, 64
1, 237704, Note_on_c, 0, 70, 50
1, 237742, Note_off_c, 0, 70, 66
1, 237742, Control_c, 0, 64, 23
1, 237757, Control_c, 0, 64, 51
1, 237772, Control_c, 0, 64, 63
1, 237778, Note_on_c, 0, 69, 54
1, 237787, Note_on_c, 0, 48, 23
1, 237787, Control_c, 0, 64, 67
1, 237802, Control_c, 0, 64, 71
1, 237810, Note_off_c, 0, 69, 59
1, 237817, Control_c, 0, 64, 77
1, 237827, Note_off_c, 0, 48, 41
1, 237831, Control_c, 0, 64, 86
1, 237835, Note_on_c, 0, 70, 64
1, 237846, Control_c, 0, 64, 100
1, 237861, Control_c, 0, 64, 127
1, 237862, Note_off_c, 0, 70, 68
1, 237906, Note_on_c, 0, 72, 64
1, 237921, Control_c, 0, 64, 118
1, 237936, Control_c, 0, 64, 111
1, 237942, Note_off_c, 0, 72, 59
1, 237948, Note_on_c, 0, 63, 52
1, 237950, Control_c, 0, 64, 101
1, 237962, Note_on_c, 0, 74, 74
1, 237965, Control_c, 0, 64, 95
1, 237969, Note_on_c, 0, 57, 44
1, 237975, Note_on_c, 0, 53, 40
1, 237980, Control_c, 0, 64, 91
1, 237995, Control_c, 0, 64, 88
1, 238010, Control_c, 0, 64, 86
1, 238013, Note_off_c, 0, 74, 60
1, 238013, Note_on_c, 0, 75, 79
1, 238024, Control_c, 0, 64, 83
1, 238034, Note_off_c, 0, 75, 70
1, 238039, Control_c, 0, 64, 80
1, 238054, Control_c, 0, 64, 77
1, 238068, Control_c, 0, 64, 74
1, 238076, Note_on_c, 0, 77, 82
1, 238083, Control_c, 0, 64, 71
1, 238098, Control_c, 0, 64, 69
1, 238113, Control_c, 0, 64, 66
1, 238118, Note_off_c, 0, 77, 50
1, 238128, Control_c, 0, 64, 63
1, 238131, Note_off_c, 0, 63, 57
1, 238134, Note_on_c, 0, 79, 80
1, 238151, Control_c, 0, 64, 60
1, 238153, Note_off_c, 0, 57, 58
1, 238157, Note_off_c, 0, 53, 49
1, 238166, Control_c, 0, 64, 57
1, 238180, Control_c, 0, 64, 51
1, 238195, Control_c, 0, 64, 41
1, 238198, Note_on_c, 0, 81, 78
1, 238199, Note_off_c, 0, 79, 66
1, 238210, Control_c, 0, 64, 0
1, 238263, Note_on_c, 0, 82, 79
1, 238264, Note_off_c, 0, 81, 67
1, 238284, Note_off_c, 0, 82, 70
1, 238325, Note_on_c, 0, 57, 48
1, 238325, Note_on_c, 0, 63, 47
1, 238332, Note_on_c, 0, 83, 77
1, 238338, Note_on_c, 0, 53, 44
1, 238349, Note_off_c, 0, 63, 57
1, 238353, Note_off_c, 0, 57, 64
1, 238365, Note_off_c, 0, 53, 58
1, 238373, Note_off_c, 0, 83, 63
1, 238395, Note_on_c, 0, 84, 68
1, 238432, Note_off_c, 0, 84, 59
1, 238448, Note_on_c, 0, 86, 67
1, 238515, Note_off_c, 0, 86, 60
1, 238527, Note_on_c, 0, 89, 70
1, 238536, Control_c, 0, 64, 25
1, 238550, Note_on_c, 0, 41, 40
1, 238551, Control_c, 0, 64, 46
1, 238566, Control_c, 0, 64, 60
1, 238580, Control_c, 0, 64, 66
1, 238588, Note_off_c, 0, 41, 63
1, 238595, Control_c, 0, 64, 72
1, 238610, Control_c, 0, 64, 81
1, 238625, Control_c, 0, 64, 96
1, 238640, Control_c, 0, 64, 127
1, 238785, Note_on_c, 0, 60, 41
1, 238799, Note_on_c, 0, 53, 32
1, 238801, Note_on_c, 0, 57, 34
1, 238933, Note_on_c, 0, 88, 53
1, 238937, Note_off_c, 0, 89, 57
1, 238997, Note_off_c, 0, 60, 53
1, 238999, Note_off_c, 0, 53, 42
1, 239003, Control_c, 0, 64, 113
1, 239006, Note_off_c, 0, 88, 65
1, 239018, Note_off_c, 0, 57, 40
1, 239018, Control_c, 0, 64, 103
1, 239019, Note_on_c, 0, 87, 60
1, 239033, Control_c, 0, 64, 95
1, 239045, Note_off_c, 0, 87, 63
1, 239048, Control_c, 0, 64, 91
1, 239063, Control_c, 0, 64, 87
1, 239077, Control_c, 0, 64, 83
1, 239092, Control_c, 0, 64, 79
1, 239107, Control_c, 0, 64, 74
1, 239122, Control_c, 0, 64, 70
1, 239137, Control_c, 0, 64, 66
1, 239152, Control_c, 0, 64, 63
1, 239167, Control_c, 0, 64, 59
1, 239182, Control_c, 0, 64, 51
1, 239196, Control_c, 0, 64, 32
1, 239211, Control_c, 0, 64, 0
1, 239211, Note_on_c, 0, 60, 41
1, 239214, Note_on_c, 0, 53, 48
1, 239214, Note_on_c, 0, 57, 43
1, 239241, Note_off_c, 0, 60, 61
1, 239243, Note_off_c, 0, 57, 63
1, 239247, Note_off_c, 0, 53, 65
1, 239328, Control_c, 0, 64, 20
1, 239343, Note_on_c, 0, 87, 50
1, 239343, Control_c, 0, 64, 30
1, 239358, Control_c, 0, 64, 37
1, 239373, Control_c, 0, 64, 45
1, 239387, Note_off_c, 0, 87, 63
1, 239387, Control_c, 0, 64, 51
1, 239402, Control_c, 0, 64, 57
1, 239414, Note_on_c, 0, 46, 37
1, 239417, Control_c, 0, 64, 61
1, 239432, Control_c, 0, 64, 64
1, 239436, Note_on_c, 0, 86, 42
1, 239447, Control_c, 0, 64, 68
1, 239459, Note_off_c, 0, 46, 49
1, 239462, Control_c, 0, 64, 73
1, 239474, Note_off_c, 0, 86, 49
1, 239477, Control_c, 0, 64, 83
1, 239492, Control_c, 0, 64, 96
1, 239502, Note_on_c, 0, 98, 66
1, 239506, Control_c, 0, 64, 127
1, 239565, Note_off_c, 0, 98, 66
1, 239575, Note_on_c, 0, 96, 60
1, 239613, Note_on_c, 0, 62, 45
1, 239625, Note_on_c, 0, 94, 69
1, 239626, Note_on_c, 0, 53, 42
1, 239629, Note_off_c, 0, 96, 59
1, 239632, Note_on_c, 0, 58, 41
1, 239670, Note_off_c, 0, 62, 61
1, 239678, Note_off_c, 0, 53, 61
1, 239679, Note_off_c, 0, 58, 63
1, 239688, Note_on_c, 0, 93, 74
1, 239694, Note_off_c, 0, 94, 62
1, 239732, Note_off_c, 0, 93, 63
1, 239744, Note_on_c, 0, 91, 74
1, 239772, Note_off_c, 0, 91, 65
1, 239804, Note_on_c, 0, 89, 80
1, 239857, Note_on_c, 0, 87, 81
1, 239880, Note_off_c, 0, 89, 61
1, 239918, Note_on_c, 0, 86, 82
1, 239930, Note_off_c, 0, 87, 64
1, 239944, Control_c, 0, 64, 113
1, 239959, Control_c, 0, 64, 92
1, 239966, Note_off_c, 0, 86, 64
1, 239974, Control_c, 0, 64, 76
1, 239979, Note_on_c, 0, 58, 57
1, 239980, Note_on_c, 0, 62, 56
1, 239982, Note_on_c, 0, 84, 76
1, 239984, Note_on_c, 0, 53, 53
1, 239989, Control_c, 0, 64, 61
1, 240003, Note_off_c, 0, 62, 63
1, 240004, Control_c, 0, 64, 0
1, 240007, Note_off_c, 0, 58, 61
1, 240022, Note_off_c, 0, 53, 63
1, 240025, Note_off_c, 0, 84, 59
1, 240036, Note_on_c, 0, 82, 79
1, 240095, Note_on_c, 0, 81, 79
1, 240111, Note_off_c, 0, 82, 63
1, 240150, Note_off_c, 0, 81, 66
1, 240159, Note_on_c, 0, 79, 75
1, 240167, Note_on_c, 0, 52, 61
1, 240181, Control_c, 0, 64, 43
1, 240195, Note_off_c, 0, 79, 63
1, 240196, Control_c, 0, 64, 62
1, 240210, Control_c, 0, 64, 75
1, 240213, Note_off_c, 0, 52, 63
1, 240225, Control_c, 0, 64, 118
1, 240240, Control_c, 0, 64, 127
1, 240287, Note_on_c, 0, 94, 80
1, 240351, Note_on_c, 0, 91, 80
1, 240362, Note_off_c, 0, 94, 64
1, 240410, Note_off_c, 0, 91, 64
1, 240415, Note_on_c, 0, 88, 75
1, 240416, Note_on_c, 0, 67, 66
1, 240431, Note_on_c, 0, 61, 60
1, 240433, Note_on_c, 0, 58, 55
1, 240463, Note_off_c, 0, 88, 63
1, 240478, Note_off_c, 0, 67, 62
1, 240481, Note_on_c, 0, 85, 82
1, 240507, Note_off_c, 0, 58, 63
1, 240511, Note_off_c, 0, 61, 61
1, 240539, Note_on_c, 0, 82, 79
1, 240580, Note_off_c, 0, 85, 63
1, 240589, Note_on_c, 0, 79, 79
1, 240604, Note_off_c, 0, 82, 65
1, 240633, Note_off_c, 0, 79, 65
1, 240649, Note_on_c, 0, 76, 72
1, 240711, Note_off_c, 0, 76, 43
1, 240714, Note_on_c, 0, 73, 79
1, 240764, Note_on_c, 0, 61, 62
1, 240778, Note_on_c, 0, 70, 73
1, 240779, Note_on_c, 0, 55, 52
1, 240792, Note_on_c, 0, 58, 38
1, 240794, Note_off_c, 0, 61, 67
1, 240795, Note_off_c, 0, 73, 60
1, 240811, Note_off_c, 0, 55, 63
1, 240833, Note_off_c, 0, 58, 43
1, 240837, Note_on_c, 0, 67, 56
1, 240842, Note_off_c, 0, 70, 63
1, 240872, Note_off_c, 0, 67, 65
1, 240908, Note_on_c, 0, 64, 50
1, 240949, Note_off_c, 0, 64, 61
1, 240959, Control_c, 0, 64, 75
1, 240974, Control_c, 0, 64, 55
1, 240977, Note_on_c, 0, 41, 56
1, 240979, Note_on_c, 0, 65, 59
1, 240989, Control_c, 0, 64, 0
1, 241004, Control_c, 0, 64, 35
1, 241019, Control_c, 0, 64, 52
1, 241034, Control_c, 0, 64, 61
1, 241040, Note_off_c, 0, 41, 64
1, 241045, Note_on_c, 0, 64, 58
1, 241045, Note_off_c, 0, 65, 60
1, 241048, Control_c, 0, 64, 72
1, 241063, Control_c, 0, 64, 91
1, 241078, Control_c, 0, 64, 127
1, 241083, Note_off_c, 0, 64, 64
1, 241120, Note_on_c, 0, 65, 56
1, 241182, Note_on_c, 0, 60, 75
1, 241200, Note_on_c, 0, 67, 65
1, 241200, Note_off_c, 0, 65, 59
1, 241206, Note_on_c, 0, 53, 51
1, 241209, Note_on_c, 0, 58, 58
1, 241253, Note_on_c, 0, 69, 71
1, 241283, Note_off_c, 0, 67, 57
1, 241315, Note_on_c, 0, 70, 73
1, 241331, Note_off_c, 0, 69, 63
1, 241337, Control_c, 0, 64, 93
1, 241337, Control_c, 0, 67, 124
1, 241345, Note_off_c, 0, 70, 68
1, 241353, Control_c, 0, 64, 74
1, 241353, Control_c, 0, 67, 120
1, 241368, Control_c, 0, 64, 62
1, 241368, Control_c, 0, 67, 117
1, 241370, Note_on_c, 0, 57, 61
1, 241372, Note_off_c, 0, 58, 62
1, 241379, Note_off_c, 0, 60, 62
1, 241383, Control_c, 0, 64, 58
1, 241383, Control_c, 0, 67, 110
1, 241386, Note_on_c, 0, 72, 77
1, 241397, Control_c, 0, 64, 63
1, 241397, Control_c, 0, 67, 101
1, 241412, Control_c, 0, 64, 68
1, 241412, Control_c, 0, 67, 92
1, 241427, Control_c, 0, 64, 81
1, 241427, Control_c, 0, 67, 82
1, 241441, Note_on_c, 0, 74, 79
1, 241442, Control_c, 0, 64, 127
1, 241442, Control_c, 0, 67, 70
1, 241443, Note_off_c, 0, 72, 64
1, 241457, Control_c, 0, 67, 58
1, 241471, Control_c, 0, 67, 43
1, 241486, Control_c, 0, 67, 29
1, 241498, Note_off_c, 0, 53, 58
1, 241502, Control_c, 0, 67, 18
1, 241505, Note_on_c, 0, 75, 76
1, 241506, Note_off_c, 0, 74, 63
1, 241517, Control_c, 0, 67, 10
1, 241532, Control_c, 0, 67, 0
1, 241536, Note_off_c, 0, 75, 65
1, 241546, Control_c, 0, 64, 123
1, 241560, Note_on_c, 0, 63, 64
1, 241561, Control_c, 0, 64, 77
1, 241563, Note_on_c, 0, 60, 62
1, 241574, Note_on_c, 0, 77, 79
1, 241576, Control_c, 0, 64, 61
1, 241581, Note_off_c, 0, 57, 58
1, 241590, Note_off_c, 0, 63, 67
1, 241590, Control_c, 0, 64, 58
1, 241602, Note_off_c, 0, 60, 65
1, 241605, Control_c, 0, 64, 66
1, 241620, Control_c, 0, 64, 73
1, 241629, Note_off_c, 0, 77, 59
1, 241635, Control_c, 0, 64, 90
1, 241637, Note_on_c, 0, 79, 76
1, 241650, Control_c, 0, 64, 127
1, 241700, Note_on_c, 0, 81, 72
1, 241706, Note_off_c, 0, 79, 60
1, 241724, Control_c, 0, 64, 86
1, 241739, Control_c, 0, 64, 61
1, 241752, Note_on_c, 0, 46, 54
1, 241754, Control_c, 0, 64, 0
1, 241763, Note_on_c, 0, 82, 72
1, 241775, Note_off_c, 0, 81, 65
1, 241784, Control_c, 0, 64, 39
1, 241787, Note_off_c, 0, 82, 69
1, 241799, Control_c, 0, 64, 59
1, 241814, Control_c, 0, 64, 71
1, 241829, Control_c, 0, 64, 107
1, 241836, Note_on_c, 0, 86, 77
1, 241840, Note_off_c, 0, 46, 62
1, 241844, Control_c, 0, 64, 127
1, 241882, Note_off_c, 0, 86, 46
1, 241907, Note_on_c, 0, 89, 71
1, 241962, Note_off_c, 0, 89, 62
1, 241973, Note_on_c, 0, 62, 56
1, 241980, Note_on_c, 0, 58, 57
1, 241984, Note_on_c, 0, 93, 58
1, 242002, Note_off_c, 0, 93, 66
1, 242031, Note_on_c, 0, 98, 71
1, 242091, Note_on_c, 0, 96, 69
1, 242097, Note_off_c, 0, 98, 66
1, 242101, Note_off_c, 0, 62, 57
1, 242145, Note_on_c, 0, 94, 67
1, 242153, Note_off_c, 0, 96, 66
1, 242167, Note_off_c, 0, 58, 59
1, 242199, Note_on_c, 0, 89, 82
1, 242199, Note_off_c, 0, 94, 64
1, 242227, Note_off_c, 0, 89, 66
1, 242258, Note_on_c, 0, 86, 74
1, 242297, Note_off_c, 0, 86, 54
1, 242319, Note_on_c, 0, 82, 74
1, 242358, Note_off_c, 0, 82, 62
1, 242368, Note_on_c, 0, 84, 86
1, 242430, Note_on_c, 0, 85, 88
1, 242437, Note_off_c, 0, 84, 62
1, 242488, Note_on_c, 0, 86, 93
1, 242500, Note_off_c, 0, 85, 66
1, 242502, Note_on_c, 0, 38, 70
1, 242518, Control_c, 0, 64, 95
1, 242523, Note_off_c, 0, 86, 64
1, 242533, Control_c, 0, 64, 64
1, 242547, Control_c, 0, 64, 0
1, 242586, Note_on_c, 0, 40, 65
1, 242605, Note_off_c, 0, 38, 61
1, 242656, Note_on_c, 0, 42, 74
1, 242682, Note_off_c, 0, 40, 60
1, 242736, Note_on_c, 0, 86, 94
1, 242738, Note_on_c, 0, 43, 71
1, 242738, Note_on_c, 0, 74, 90
1, 242743, Note_on_c, 0, 78, 87
1, 242747, Note_on_c, 0, 84, 80
1, 242759, Note_off_c, 0, 42, 62
1, 242792, Control_c, 0, 64, 39
1, 242795, Note_off_c, 0, 43, 62
1, 242796, Note_on_c, 0, 45, 72
1, 242807, Control_c, 0, 64, 60
1, 242821, Control_c, 0, 64, 70
1, 242836, Control_c, 0, 64, 84
1, 242851, Control_c, 0, 64, 127
1, 242877, Note_on_c, 0, 47, 71
1, 242881, Note_off_c, 0, 45, 60
1, 242926, Note_on_c, 0, 48, 76
1, 242946, Note_off_c, 0, 47, 60
1, 242955, Note_off_c, 0, 74, 58
1, 242979, Note_off_c, 0, 48, 64
1, 242980, Note_off_c, 0, 86, 48
1, 242988, Note_on_c, 0, 50, 74
1, 242996, Note_off_c, 0, 78, 58
1, 243027, Note_off_c, 0, 84, 54
1, 243055, Note_on_c, 0, 52, 78
1, 243057, Note_off_c, 0, 50, 55
1, 243110, Note_on_c, 0, 86, 87
1, 243113, Note_on_c, 0, 74, 90
1, 243114, Note_on_c, 0, 78, 84
1, 243118, Control_c, 0, 64, 108
1, 243119, Note_on_c, 0, 54, 74
1, 243119, Note_off_c, 0, 52, 64
1, 243123, Note_on_c, 0, 84, 76
1, 243133, Control_c, 0, 64, 77
1, 243139, Note_off_c, 0, 74, 62
1, 243147, Note_off_c, 0, 84, 69
1, 243148, Control_c, 0, 64, 58
1, 243156, Note_off_c, 0, 78, 57
1, 243159, Note_off_c, 0, 86, 64
1, 243162, Control_c, 0, 64, 0
1, 243172, Note_on_c, 0, 55, 76
1, 243186, Note_off_c, 0, 54, 63
1, 243224, Note_off_c, 0, 55, 63
1, 243233, Note_on_c, 0, 57, 77
1, 243270, Note_off_c, 0, 57, 63
1, 243310, Note_on_c, 0, 58, 82
1, 243364, Note_off_c, 0, 58, 65
1, 243379, Note_on_c, 0, 62, 80
1, 243446, Note_on_c, 0, 58, 79
1, 243453, Note_off_c, 0, 62, 58
1, 243496, Note_on_c, 0, 55, 75
1, 243500, Note_off_c, 0, 58, 64
1, 243511, Control_c, 0, 64, 22
1, 243516, Note_on_c, 0, 86, 90
1, 243519, Note_on_c, 0, 79, 80
1, 243522, Note_on_c, 0, 74, 80
1, 243523, Note_on_c, 0, 82, 83
1, 243525, Control_c, 0, 64, 46
1, 243540, Control_c, 0, 64, 59
1, 243555, Control_c, 0, 64, 65
1, 243564, Note_off_c, 0, 55, 63
1, 243566, Note_on_c, 0, 58, 78
1, 243569, Control_c, 0, 64, 70
1, 243584, Control_c, 0, 64, 78
1, 243599, Control_c, 0, 64, 94
1, 243614, Control_c, 0, 64, 127
1, 243638, Note_on_c, 0, 55, 73
1, 243658, Note_off_c, 0, 58, 60
1, 243659, Note_off_c, 0, 74, 61
1, 243680, Note_off_c, 0, 79, 65
1, 243692, Note_off_c, 0, 55, 63
1, 243692, Note_on_c, 0, 50, 74
1, 243692, Note_off_c, 0, 82, 64
1, 243706, Note_off_c, 0, 86, 67
1, 243732, Note_off_c, 0, 50, 56
1, 243765, Note_on_c, 0, 55, 79
1, 243823, Note_off_c, 0, 55, 60
1, 243838, Note_on_c, 0, 50, 74
1, 243874, Note_on_c, 0, 46, 71
1, 243875, Note_on_c, 0, 91, 92
1, 243875, Note_off_c, 0, 50, 64
1, 243880, Note_on_c, 0, 79, 80
1, 243885, Note_on_c, 0, 82, 73
1, 243885, Note_on_c, 0, 86, 75
1, 243911, Control_c, 0, 64, 98
1, 243920, Note_off_c, 0, 79, 64
1, 243926, Control_c, 0, 64, 81
1, 243930, Note_off_c, 0, 46, 55
1, 243940, Control_c, 0, 64, 70
1, 243941, Note_on_c, 0, 50, 73
1, 243941, Note_off_c, 0, 82, 64
1, 243943, Note_off_c, 0, 91, 66
1, 243945, Note_off_c, 0, 86, 62
1, 243955, Control_c, 0, 64, 63
1, 243970, Control_c, 0, 64, 56
1, 243984, Control_c, 0, 64, 46
1, 243999, Control_c, 0, 64, 0
1, 244020, Note_off_c, 0, 50, 63
1, 244024, Note_on_c, 0, 46, 71
1, 244079, Note_on_c, 0, 43, 73
1, 244085, Note_off_c, 0, 46, 63
1, 244158, Note_on_c, 0, 45, 74
1, 244172, Note_off_c, 0, 43, 64
1, 244216, Note_on_c, 0, 46, 72
1, 244252, Note_off_c, 0, 45, 62
1, 244298, Note_on_c, 0, 48, 69
1, 244298, Note_on_c, 0, 94, 97
1, 244303, Control_c, 0, 64, 31
1, 244304, Note_on_c, 0, 86, 74
1, 244308, Note_on_c, 0, 82, 79
1, 244316, Note_off_c, 0, 46, 63
1, 244318, Control_c, 0, 64, 49
1, 244333, Control_c, 0, 64, 59
1, 244336, Note_off_c, 0, 48, 65
1, 244347, Control_c, 0, 64, 64
1, 244352, Note_on_c, 0, 50, 66
1, 244362, Control_c, 0, 64, 68
1, 244377, Control_c, 0, 64, 76
1, 244392, Control_c, 0, 64, 93
1, 244407, Control_c, 0, 64, 127
1, 244427, Note_on_c, 0, 52, 77
1, 244430, Note_off_c, 0, 50, 63
1, 244491, Note_on_c, 0, 54, 78
1, 244502, Note_off_c, 0, 52, 63
1, 244535, Note_off_c, 0, 94, 63
1, 244539, Note_off_c, 0, 54, 66
1, 244546, Note_on_c, 0, 55, 79
1, 244574, Note_off_c, 0, 86, 59
1, 244576, Note_off_c, 0, 82, 64
1, 244608, Note_on_c, 0, 56, 83
1, 244614, Note_off_c, 0, 55, 61
1, 244666, Note_on_c, 0, 91, 91
1, 244667, Note_on_c, 0, 79, 91
1, 244669, Note_on_c, 0, 57, 80
1, 244675, Control_c, 0, 64, 77
1, 244689, Control_c, 0, 64, 50
1, 244691, Note_on_c, 0, 86, 24
1, 244692, Note_off_c, 0, 86, 127
1, 244693, Note_off_c, 0, 91, 64
1, 244700, Note_off_c, 0, 56, 50
1, 244704, Control_c, 0, 64, 0
1, 244707, Note_off_c, 0, 79, 64
1, 244727, Note_on_c, 0, 58, 83
1, 244742, Note_off_c, 0, 57, 64
1, 244792, Note_off_c, 0, 58, 65
1, 244799, Note_on_c, 0, 59, 72
1, 244863, Note_off_c, 0, 59, 57
1, 244874, Note_on_c, 0, 88, 85
1, 244881, Note_on_c, 0, 76, 77
1, 244896, Note_on_c, 0, 60, 62
1, 244899, Note_on_c, 0, 79, 60
1, 244902, Note_on_c, 0, 84, 54
1, 244933, Control_c, 0, 64, 12
1, 244948, Control_c, 0, 64, 45
1, 244959, Note_off_c, 0, 60, 64
1, 244963, Control_c, 0, 64, 60
1, 244978, Control_c, 0, 64, 65
1, 244982, Note_on_c, 0, 64, 66
1, 244993, Control_c, 0, 64, 71
1, 245008, Control_c, 0, 64, 81
1, 245022, Control_c, 0, 64, 96
1, 245031, Note_off_c, 0, 64, 58
1, 245037, Control_c, 0, 64, 123
1, 245039, Note_on_c, 0, 60, 73
1, 245052, Control_c, 0, 64, 127
1, 245105, Note_off_c, 0, 60, 64
1, 245108, Note_on_c, 0, 55, 71
1, 245146, Note_off_c, 0, 55, 58
1, 245173, Note_on_c, 0, 60, 73
1, 245232, Note_off_c, 0, 60, 62
1, 245235, Note_on_c, 0, 55, 79
1, 245275, Control_c, 0, 64, 121
1, 245289, Control_c, 0, 64, 114
1, 245292, Note_off_c, 0, 55, 63
1, 245293, Note_on_c, 0, 52, 71
1, 245304, Control_c, 0, 64, 109
1, 245319, Control_c, 0, 64, 104
1, 245331, Note_off_c, 0, 52, 63
1, 245334, Control_c, 0, 64, 96
1, 245349, Control_c, 0, 64, 92
1, 245358, Note_on_c, 0, 55, 74
1, 245364, Control_c, 0, 64, 90
1, 245394, Control_c, 0, 64, 89
1, 245402, Note_off_c, 0, 55, 58
1, 245409, Control_c, 0, 64, 86
1, 245413, Note_on_c, 0, 52, 74
1, 245424, Control_c, 0, 64, 83
1, 245438, Control_c, 0, 64, 79
1, 245453, Control_c, 0, 64, 76
1, 245468, Control_c, 0, 64, 74
1, 245483, Note_off_c, 0, 52, 62
1, 245483, Control_c, 0, 64, 72
1, 245488, Note_on_c, 0, 48, 72
1, 245498, Control_c, 0, 64, 69
1, 245512, Control_c, 0, 64, 67
1, 245522, Note_off_c, 0, 48, 67
1, 245527, Control_c, 0, 64, 66
1, 245542, Control_c, 0, 64, 66
1, 245556, Control_c, 0, 64, 65
1, 245571, Control_c, 0, 64, 64
1, 245586, Control_c, 0, 64, 63
1, 245601, Control_c, 0, 64, 62
1, 245616, Control_c, 0, 64, 61
1, 245638, Control_c, 0, 64, 60
1, 245653, Control_c, 0, 64, 58
1, 245668, Control_c, 0, 64, 56
1, 245672, Note_off_c, 0, 79, 58
1, 245683, Control_c, 0, 64, 52
1, 245698, Control_c, 0, 64, 44
1, 245707, Note_off_c, 0, 84, 37
1, 245709, Note_off_c, 0, 76, 59
1, 245712, Control_c, 0, 64, 24
1, 245727, Control_c, 0, 64, 0
1, 245734, Note_off_c, 0, 88, 61
1, 245810, Note_on_c, 0, 45, 37
1, 245816, Control_c, 0, 64, 20
1, 245830, Control_c, 0, 64, 36
1, 245845, Control_c, 0, 64, 47
1, 245855, Note_off_c, 0, 45, 51
1, 245860, Control_c, 0, 64, 54
1, 245866, Note_on_c, 0, 48, 41
1, 245875, Control_c, 0, 64, 59
1, 245890, Control_c, 0, 64, 64
1, 245904, Control_c, 0, 64, 67
1, 245919, Control_c, 0, 64, 73
1, 245921, Note_on_c, 0, 53, 52
1, 245934, Control_c, 0, 64, 81
1, 245944, Note_off_c, 0, 48, 59
1, 245949, Control_c, 0, 64, 93
1, 245963, Control_c, 0, 64, 108
1, 245968, Note_off_c, 0, 53, 64
1, 245978, Control_c, 0, 64, 127
1, 246000, Note_on_c, 0, 57, 57
1, 246002, Note_on_c, 0, 89, 67
1, 246020, Note_on_c, 0, 84, 49
1, 246031, Note_on_c, 0, 77, 49
1, 246032, Note_off_c, 0, 57, 66
1, 246070, Note_off_c, 0, 84, 56
1, 246098, Note_on_c, 0, 60, 43
1, 246133, Note_off_c, 0, 60, 61
1, 246134, Note_on_c, 0, 65, 56
1, 246142, Note_off_c, 0, 89, 47
1, 246163, Note_off_c, 0, 77, 53
1, 246174, Note_off_c, 0, 65, 61
1, 246202, Note_on_c, 0, 69, 64
1, 246231, Note_off_c, 0, 69, 66
1, 246261, Control_c, 0, 64, 108
1, 246276, Control_c, 0, 64, 93
1, 246279, Note_on_c, 0, 84, 67
1, 246291, Control_c, 0, 64, 79
1, 246306, Control_c, 0, 64, 66
1, 246321, Control_c, 0, 64, 42
1, 246331, Note_off_c, 0, 84, 64
1, 246335, Control_c, 0, 64, 0
1, 246337, Note_on_c, 0, 81, 71
1, 246366, Note_off_c, 0, 81, 67
1, 246397, Note_on_c, 0, 77, 68
1, 246425, Note_off_c, 0, 77, 66
1, 246459, Note_on_c, 0, 72, 69
1, 246513, Note_off_c, 0, 72, 63
1, 246515, Note_on_c, 0, 69, 78
1, 246559, Note_off_c, 0, 69, 61
1, 246569, Note_on_c, 0, 67, 75
1, 246572, Note_on_c, 0, 46, 43
1, 246596, Note_off_c, 0, 67, 66
1, 246609, Control_c, 0, 64, 16
1, 246624, Control_c, 0, 64, 52
1, 246634, Note_on_c, 0, 50, 51
1, 246639, Control_c, 0, 64, 68
1, 246644, Note_off_c, 0, 46, 60
1, 246653, Control_c, 0, 64, 78
1, 246666, Note_off_c, 0, 50, 64
1, 246668, Control_c, 0, 64, 102
1, 246683, Control_c, 0, 64, 127
1, 246696, Note_on_c, 0, 55, 60
1, 246738, Note_off_c, 0, 55, 54
1, 246816, Note_on_c, 0, 89, 72
1, 246825, Note_on_c, 0, 58, 43
1, 246838, Note_on_c, 0, 86, 48
1, 246845, Note_on_c, 0, 77, 50
1, 246870, Note_off_c, 0, 58, 58
1, 246874, Note_on_c, 0, 62, 56
1, 246884, Note_off_c, 0, 86, 62
1, 246912, Note_off_c, 0, 62, 65
1, 246970, Note_on_c, 0, 67, 47
1, 247006, Note_off_c, 0, 89, 54
1, 247021, Note_off_c, 0, 77, 48
1, 247041, Note_off_c, 0, 67, 56
1, 247059, Note_on_c, 0, 70, 47
1, 247090, Note_off_c, 0, 70, 61
1, 247141, Note_on_c, 0, 86, 64
1, 247195, Note_on_c, 0, 82, 73
1, 247198, Note_off_c, 0, 86, 58
1, 247247, Note_off_c, 0, 82, 64
1, 247259, Note_on_c, 0, 77, 67
1, 247278, Note_off_c, 0, 77, 65
1, 247284, Control_c, 0, 64, 117
1, 247299, Control_c, 0, 64, 103
1, 247313, Control_c, 0, 64, 96
1, 247322, Note_on_c, 0, 74, 83
1, 247328, Control_c, 0, 64, 90
1, 247343, Control_c, 0, 64, 83
1, 247358, Control_c, 0, 64, 77
1, 247373, Control_c, 0, 64, 71
1, 247383, Note_on_c, 0, 70, 78
1, 247388, Control_c, 0, 64, 67
1, 247394, Note_off_c, 0, 74, 60
1, 247403, Control_c, 0, 64, 63
1, 247417, Control_c, 0, 64, 60
1, 247431, Note_off_c, 0, 70, 64
1, 247432, Control_c, 0, 64, 53
1, 247447, Control_c, 0, 64, 35
1, 247448, Note_on_c, 0, 69, 75
1, 247462, Control_c, 0, 64, 0
1, 247463, Note_on_c, 0, 48, 53
1, 247471, Note_off_c, 0, 69, 71
1, 247489, Note_off_c, 0, 48, 62
1, 247531, Note_on_c, 0, 84, 74
1, 247590, Note_on_c, 0, 82, 79
1, 247593, Note_off_c, 0, 84, 65
1, 247625, Note_off_c, 0, 82, 65
1, 247647, Note_on_c, 0, 65, 67
1, 247649, Note_on_c, 0, 81, 77
1, 247653, Note_on_c, 0, 60, 58
1, 247659, Note_on_c, 0, 57, 49
1, 247665, Note_off_c, 0, 65, 64
1, 247674, Note_off_c, 0, 60, 61
1, 247684, Note_off_c, 0, 57, 57
1, 247713, Note_on_c, 0, 79, 79
1, 247716, Note_off_c, 0, 81, 65
1, 247767, Note_off_c, 0, 79, 66
1, 247774, Note_on_c, 0, 77, 78
1, 247815, Note_off_c, 0, 77, 63
1, 247836, Note_on_c, 0, 48, 69
1, 247849, Note_on_c, 0, 76, 81
1, 247867, Note_off_c, 0, 48, 65
1, 247912, Note_off_c, 0, 76, 64
1, 247920, Note_on_c, 0, 74, 75
1, 247953, Note_off_c, 0, 74, 65
1, 247975, Note_on_c, 0, 72, 78
1, 248040, Note_on_c, 0, 64, 67
1, 248043, Note_on_c, 0, 70, 79
1, 248047, Note_off_c, 0, 72, 57
1, 248052, Note_on_c, 0, 58, 53
1, 248052, Note_on_c, 0, 60, 50
1, 248068, Note_off_c, 0, 64, 68
1, 248076, Note_off_c, 0, 58, 59
1, 248076, Note_off_c, 0, 60, 55
1, 248101, Note_on_c, 0, 69, 78
1, 248125, Note_off_c, 0, 70, 60
1, 248167, Note_off_c, 0, 69, 65
1, 248169, Note_on_c, 0, 67, 70
1, 248223, Note_off_c, 0, 67, 62
1, 248245, Note_on_c, 0, 65, 70
1, 248252, Note_on_c, 0, 41, 60
1, 248285, Control_c, 0, 64, 32
1, 248300, Control_c, 0, 64, 57
1, 248314, Control_c, 0, 64, 68
1, 248318, Note_off_c, 0, 41, 64
1, 248329, Control_c, 0, 64, 80
1, 248333, Note_off_c, 0, 65, 59
1, 248344, Control_c, 0, 64, 115
1, 248358, Control_c, 0, 64, 127
1, 248496, Note_on_c, 0, 60, 72
1, 248505, Note_on_c, 0, 77, 57
1, 248537, Note_on_c, 0, 53, 49
1, 248537, Note_on_c, 0, 57, 51
1, 248565, Note_off_c, 0, 77, 61
1, 248578, Note_on_c, 0, 79, 63
1, 248657, Note_on_c, 0, 77, 76
1, 248675, Note_off_c, 0, 79, 60
1, 248710, Note_on_c, 0, 62, 80
1, 248723, Control_c, 0, 64, 106
1, 248726, Note_off_c, 0, 77, 62
1, 248729, Note_on_c, 0, 76, 74
1, 248737, Control_c, 0, 64, 77
1, 248739, Note_on_c, 0, 58, 69
1, 248745, Note_off_c, 0, 60, 62
1, 248747, Note_off_c, 0, 57, 60
1, 248752, Control_c, 0, 64, 60
1, 248767, Control_c, 0, 64, 0
1, 248798, Note_off_c, 0, 76, 63
1, 248807, Note_on_c, 0, 79, 75
1, 248811, Control_c, 0, 64, 41
1, 248826, Control_c, 0, 64, 62
1, 248841, Control_c, 0, 64, 71
1, 248843, Note_off_c, 0, 62, 64
1, 248855, Control_c, 0, 64, 86
1, 248870, Control_c, 0, 64, 127
1, 248890, Note_on_c, 0, 77, 76
1, 248896, Note_off_c, 0, 79, 61
1, 248938, Note_off_c, 0, 58, 60
1, 248974, Control_c, 0, 64, 123
1, 248989, Control_c, 0, 64, 83
1, 248990, Note_on_c, 0, 57, 50
1, 248991, Note_on_c, 0, 63, 44
1, 248997, Note_off_c, 0, 77, 62
1, 249004, Control_c, 0, 64, 63
1, 249019, Note_off_c, 0, 53, 35
1, 249019, Control_c, 0, 64, 0
1, 249023, Note_on_c, 0, 76, 57
1, 249049, Control_c, 0, 64, 25
1, 249063, Control_c, 0, 64, 51
1, 249078, Control_c, 0, 64, 64
1, 249093, Control_c, 0, 64, 73
1, 249100, Note_off_c, 0, 76, 63
1, 249108, Control_c, 0, 64, 88
1, 249119, Note_off_c, 0, 57, 61
1, 249123, Control_c, 0, 64, 127
1, 249134, Note_off_c, 0, 63, 61
1, 249203, Note_on_c, 0, 91, 59
1, 249303, Note_off_c, 0, 91, 59
1, 249311, Note_on_c, 0, 89, 63
1, 249398, Control_c, 0, 64, 97
1, 249412, Control_c, 0, 64, 78
1, 249414, Note_on_c, 0, 46, 38
1, 249427, Control_c, 0, 64, 64
1, 249442, Control_c, 0, 64, 37
1, 249457, Control_c, 0, 64, 29
1, 249469, Note_off_c, 0, 89, 55
1, 249472, Control_c, 0, 64, 43
1, 249478, Note_on_c, 0, 88, 49
1, 249487, Control_c, 0, 64, 53
1, 249501, Control_c, 0, 64, 61
1, 249516, Control_c, 0, 64, 68
1, 249525, Note_off_c, 0, 46, 52
1, 249531, Control_c, 0, 64, 80
1, 249546, Control_c, 0, 64, 101
1, 249561, Control_c, 0, 64, 127
1, 249586, Note_off_c, 0, 88, 64
1, 249622, Note_on_c, 0, 91, 55
1, 249680, Note_off_c, 0, 91, 60
1, 249705, Note_on_c, 0, 89, 52
1, 249724, Control_c, 0, 64, 123
1, 249734, Note_on_c, 0, 62, 36
1, 249738, Control_c, 0, 64, 110
1, 249746, Note_on_c, 0, 53, 32
1, 249749, Note_off_c, 0, 89, 59
1, 249751, Note_on_c, 0, 58, 33
1, 249752, Control_c, 0, 64, 102
1, 249755, Note_on_c, 0, 87, 64
1, 249767, Control_c, 0, 64, 96
1, 249782, Control_c, 0, 64, 92
1, 249797, Control_c, 0, 64, 88
1, 249802, Note_off_c, 0, 87, 56
1, 249811, Control_c, 0, 64, 84
1, 249822, Note_on_c, 0, 86, 67
1, 249826, Control_c, 0, 64, 81
1, 249841, Control_c, 0, 64, 78
1, 249850, Note_off_c, 0, 86, 68
1, 249856, Control_c, 0, 64, 75
1, 249871, Control_c, 0, 64, 72
1, 249875, Note_on_c, 0, 84, 73
1, 249886, Control_c, 0, 64, 68
1, 249901, Control_c, 0, 64, 64
1, 249910, Note_off_c, 0, 84, 58
1, 249916, Control_c, 0, 64, 61
1, 249928, Note_off_c, 0, 58, 58
1, 249929, Note_off_c, 0, 62, 54
1, 249930, Control_c, 0, 64, 57
1, 249934, Note_on_c, 0, 82, 71
1, 249936, Note_off_c, 0, 53, 41
1, 249945, Control_c, 0, 64, 49
1, 249960, Control_c, 0, 64, 30
1, 249975, Control_c, 0, 64, 0
1, 249987, Note_on_c, 0, 81, 73
1, 249989, Note_off_c, 0, 82, 64
1, 250023, Note_off_c, 0, 81, 66
1, 250044, Note_on_c, 0, 79, 73
1, 250075, Note_off_c, 0, 79, 62
1, 250102, Note_on_c, 0, 58, 39
1, 250104, Note_on_c, 0, 77, 80
1, 250107, Note_on_c, 0, 53, 41
1, 250107, Note_on_c, 0, 62, 31
1, 250138, Note_off_c, 0, 58, 54
1, 250146, Note_off_c, 0, 62, 46
1, 250153, Note_off_c, 0, 53, 52
1, 250163, Note_on_c, 0, 75, 70
1, 250174, Note_off_c, 0, 77, 63
1, 250221, Note_on_c, 0, 74, 73
1, 250221, Note_off_c, 0, 75, 63
1, 250309, Note_on_c, 0, 50, 35
1, 250315, Note_off_c, 0, 74, 63
1, 250319, Note_on_c, 0, 72, 73
1, 250339, Control_c, 0, 64, 19
1, 250354, Control_c, 0, 64, 40
1, 250369, Control_c, 0, 64, 55
1, 250383, Control_c, 0, 64, 61
1, 250398, Control_c, 0, 64, 63
1, 250409, Note_off_c, 0, 50, 57
1, 250413, Control_c, 0, 64, 65
1, 250427, Control_c, 0, 64, 69
1, 250442, Control_c, 0, 64, 74
1, 250457, Control_c, 0, 64, 83
1, 250472, Control_c, 0, 64, 92
1, 250487, Control_c, 0, 64, 97
1, 250501, Control_c, 0, 64, 98
1, 250516, Control_c, 0, 64, 99
1, 250531, Control_c, 0, 64, 98
1, 250546, Control_c, 0, 64, 98
1, 250561, Control_c, 0, 64, 97
1, 250575, Control_c, 0, 64, 96
1, 250590, Control_c, 0, 64, 94
1, 250595, Note_on_c, 0, 65, 62
1, 250605, Control_c, 0, 64, 92
1, 250620, Control_c, 0, 64, 91
1, 250621, Note_on_c, 0, 58, 47
1, 250634, Control_c, 0, 64, 90
1, 250649, Note_on_c, 0, 56, 35
1, 250649, Control_c, 0, 64, 89
1, 250664, Control_c, 0, 64, 87
1, 250679, Control_c, 0, 64, 86
1, 250694, Control_c, 0, 64, 85
1, 250709, Control_c, 0, 64, 84
1, 250724, Control_c, 0, 64, 83
1, 250739, Control_c, 0, 64, 81
1, 250753, Control_c, 0, 64, 79
1, 250768, Control_c, 0, 64, 78
1, 250783, Control_c, 0, 64, 76
1, 250798, Control_c, 0, 64, 75
1, 250804, Note_on_c, 0, 70, 55
1, 250813, Control_c, 0, 64, 74
1, 250827, Control_c, 0, 64, 73
1, 250842, Control_c, 0, 64, 71
1, 250843, Note_off_c, 0, 72, 59
1, 250855, Note_off_c, 0, 58, 54
1, 250857, Control_c, 0, 64, 68
1, 250876, Note_off_c, 0, 56, 41
1, 250879, Control_c, 0, 64, 66
1, 250885, Note_off_c, 0, 65, 56
1, 250894, Control_c, 0, 64, 65
1, 250908, Control_c, 0, 64, 64
1, 250923, Control_c, 0, 64, 64
1, 250939, Control_c, 0, 64, 63
1, 250946, Note_off_c, 0, 70, 56
1, 250954, Control_c, 0, 64, 61
1, 250969, Control_c, 0, 64, 57
1, 250984, Control_c, 0, 64, 51
1, 250999, Control_c, 0, 64, 36
1, 251013, Control_c, 0, 64, 0
1, 251022, Note_on_c, 0, 65, 63
1, 251037, Note_on_c, 0, 58, 56
1, 251040, Note_on_c, 0, 56, 48
1, 251052, Note_off_c, 0, 65, 65
1, 251070, Note_off_c, 0, 58, 65
1, 251073, Note_off_c, 0, 56, 65
1, 251165, Note_on_c, 0, 69, 60
1, 251215, Note_off_c, 0, 69, 58
1, 251221, Control_c, 0, 64, 30
1, 251236, Control_c, 0, 64, 48
1, 251240, Note_on_c, 0, 70, 62
1, 251245, Note_on_c, 0, 51, 60
1, 251250, Control_c, 0, 64, 61
1, 251265, Control_c, 0, 64, 67
1, 251272, Note_off_c, 0, 70, 67
1, 251280, Control_c, 0, 64, 73
1, 251286, Note_off_c, 0, 51, 61
1, 251295, Control_c, 0, 64, 84
1, 251310, Control_c, 0, 64, 98
1, 251314, Note_on_c, 0, 72, 67
1, 251324, Control_c, 0, 64, 118
1, 251339, Control_c, 0, 64, 127
1, 251368, Note_off_c, 0, 72, 60
1, 251379, Note_on_c, 0, 74, 73
1, 251431, Note_on_c, 0, 63, 63
1, 251434, Note_on_c, 0, 75, 78
1, 251439, Note_off_c, 0, 74, 62
1, 251445, Note_on_c, 0, 55, 52
1, 251456, Note_on_c, 0, 58, 54
1, 251475, Note_off_c, 0, 75, 61
1, 251504, Note_on_c, 0, 77, 83
1, 251564, Note_on_c, 0, 79, 81
1, 251565, Note_off_c, 0, 77, 62
1, 251615, Note_on_c, 0, 81, 79
1, 251657, Note_off_c, 0, 79, 59
1, 251672, Note_off_c, 0, 58, 56
1, 251677, Note_on_c, 0, 82, 82
1, 251680, Note_off_c, 0, 55, 37
1, 251681, Note_off_c, 0, 63, 57
1, 251689, Note_off_c, 0, 81, 66
1, 251706, Note_off_c, 0, 82, 65
1, 251740, Note_on_c, 0, 84, 87
1, 251777, Control_c, 0, 64, 94
1, 251792, Control_c, 0, 64, 76
1, 251803, Note_on_c, 0, 63, 59
1, 251806, Note_on_c, 0, 86, 84
1, 251806, Note_off_c, 0, 84, 64
1, 251807, Control_c, 0, 64, 62
1, 251809, Note_on_c, 0, 55, 57
1, 251811, Note_on_c, 0, 58, 55
1, 251822, Control_c, 0, 64, 22
1, 251836, Note_off_c, 0, 63, 63
1, 251836, Control_c, 0, 64, 0
1, 251849, Note_off_c, 0, 58, 62
1, 251856, Note_on_c, 0, 87, 79
1, 251861, Note_off_c, 0, 86, 66
1, 251877, Note_off_c, 0, 55, 54
1, 251886, Note_off_c, 0, 87, 66
1, 251923, Note_on_c, 0, 89, 86
1, 251965, Note_off_c, 0, 89, 64
1, 251988, Note_on_c, 0, 52, 54
1, 251999, Control_c, 0, 64, 43
1, 252005, Note_on_c, 0, 93, 76
1, 252014, Control_c, 0, 64, 62
1, 252029, Control_c, 0, 64, 75
1, 252043, Note_off_c, 0, 93, 60
1, 252044, Control_c, 0, 64, 127
1, 252053, Note_off_c, 0, 52, 61
1, 252060, Note_on_c, 0, 91, 62
1, 252077, Note_off_c, 0, 91, 63
1, 252101, Note_on_c, 0, 93, 79
1, 252136, Note_on_c, 0, 91, 80
1, 252141, Note_off_c, 0, 93, 64
1, 252164, Note_on_c, 0, 90, 76
1, 252181, Note_off_c, 0, 91, 64
1, 252205, Note_on_c, 0, 91, 79
1, 252214, Note_off_c, 0, 90, 65
1, 252217, Note_on_c, 0, 67, 62
1, 252232, Note_on_c, 0, 58, 43
1, 252234, Note_on_c, 0, 61, 46
1, 252259, Note_off_c, 0, 91, 61
1, 252393, Note_on_c, 0, 94, 81
1, 252424, Note_off_c, 0, 67, 50
1, 252437, Note_off_c, 0, 58, 36
1, 252441, Note_off_c, 0, 61, 33
1, 252442, Note_off_c, 0, 94, 63
1, 252453, Note_on_c, 0, 97, 76
1, 252477, Note_off_c, 0, 97, 68
1, 252571, Control_c, 0, 64, 121
1, 252585, Control_c, 0, 64, 107
1, 252600, Control_c, 0, 64, 101
1, 252615, Control_c, 0, 64, 97
1, 252629, Control_c, 0, 64, 92
1, 252644, Control_c, 0, 64, 87
1, 252659, Control_c, 0, 64, 83
1, 252674, Control_c, 0, 64, 80
1, 252676, Note_on_c, 0, 67, 52
1, 252684, Note_on_c, 0, 58, 48
1, 252689, Control_c, 0, 64, 77
1, 252693, Note_on_c, 0, 61, 38
1, 252704, Control_c, 0, 64, 75
1, 252717, Note_off_c, 0, 67, 62
1, 252719, Control_c, 0, 64, 73
1, 252724, Note_off_c, 0, 61, 54
1, 252727, Note_off_c, 0, 58, 61
1, 252734, Control_c, 0, 64, 70
1, 252749, Control_c, 0, 64, 69
1, 252764, Control_c, 0, 64, 69
1, 252778, Control_c, 0, 64, 68
1, 252793, Control_c, 0, 64, 67
1, 252808, Control_c, 0, 64, 65
1, 252814, Note_on_c, 0, 72, 62
1, 252822, Control_c, 0, 64, 63
1, 252837, Control_c, 0, 64, 59
1, 252852, Control_c, 0, 64, 52
1, 252867, Control_c, 0, 64, 42
1, 252882, Control_c, 0, 64, 25
1, 252897, Control_c, 0, 64, 16
1, 252913, Note_on_c, 0, 55, 50
1, 252918, Note_off_c, 0, 72, 60
1, 252927, Control_c, 0, 64, 21
1, 252939, Note_on_c, 0, 71, 54
1, 252941, Control_c, 0, 64, 32
1, 252956, Control_c, 0, 64, 43
1, 252971, Control_c, 0, 64, 55
1, 252977, Note_off_c, 0, 55, 60
1, 252986, Control_c, 0, 64, 61
1, 252991, Note_off_c, 0, 71, 63
1, 253001, Control_c, 0, 64, 65
1, 253016, Control_c, 0, 64, 70
1, 253030, Control_c, 0, 64, 77
1, 253031, Note_on_c, 0, 72, 63
1, 253045, Control_c, 0, 64, 87
1, 253060, Control_c, 0, 64, 101
1, 253073, Note_off_c, 0, 72, 57
1, 253075, Control_c, 0, 64, 114
1, 253090, Control_c, 0, 64, 127
1, 253090, Note_on_c, 0, 74, 71
1, 253159, Note_on_c, 0, 64, 75
1, 253159, Note_on_c, 0, 76, 71
1, 253159, Note_off_c, 0, 74, 61
1, 253177, Note_on_c, 0, 60, 58
1, 253186, Note_on_c, 0, 58, 51
1, 253193, Note_off_c, 0, 76, 64
1, 253225, Note_on_c, 0, 77, 79
1, 253286, Note_on_c, 0, 79, 86
1, 253290, Note_off_c, 0, 77, 63
1, 253341, Note_on_c, 0, 81, 81
1, 253361, Note_off_c, 0, 79, 63
1, 253402, Note_on_c, 0, 82, 86
1, 253403, Note_off_c, 0, 58, 57
1, 253406, Note_off_c, 0, 64, 60
1, 253414, Note_off_c, 0, 81, 67
1, 253426, Note_off_c, 0, 60, 58
1, 253428, Note_off_c, 0, 82, 66
1, 253468, Note_on_c, 0, 84, 89
1, 253514, Note_on_c, 0, 64, 75
1, 253522, Note_on_c, 0, 60, 66
1, 253526, Note_on_c, 0, 58, 60
1, 253527, Note_on_c, 0, 86, 92
1, 253536, Note_off_c, 0, 84, 63
1, 253584, Note_on_c, 0, 87, 87
1, 253585, Note_off_c, 0, 64, 57
1, 253588, Note_off_c, 0, 86, 66
1, 253597, Note_off_c, 0, 60, 58
1, 253605, Note_off_c, 0, 87, 68
1, 253608, Note_off_c, 0, 58, 48
1, 253636, Note_on_c, 0, 88, 89
1, 253645, Control_c, 0, 64, 115
1, 253660, Control_c, 0, 64, 83
1, 253675, Control_c, 0, 64, 66
1, 253690, Control_c, 0, 64, 44
1, 253705, Control_c, 0, 64, 0
1, 253718, Note_on_c, 0, 53, 67
1, 253729, Note_on_c, 0, 89, 95
1, 253748, Note_off_c, 0, 88, 66
1, 253764, Control_c, 0, 64, 27
1, 253779, Control_c, 0, 64, 50
1, 253794, Control_c, 0, 64, 61
1, 253804, Note_off_c, 0, 89, 64
1, 253809, Control_c, 0, 64, 69
1, 253824, Control_c, 0, 64, 83
1, 253839, Control_c, 0, 64, 127
1, 253902, Note_on_c, 0, 101, 90
1, 253921, Note_off_c, 0, 53, 54
1, 253991, Note_on_c, 0, 100, 86
1, 254013, Note_off_c, 0, 101, 65
1, 254054, Note_on_c, 0, 65, 75
1, 254070, Note_on_c, 0, 62, 58
1, 254076, Note_on_c, 0, 58, 61
1, 254078, Note_on_c, 0, 99, 94
1, 254113, Note_off_c, 0, 100, 62
1, 254150, Note_on_c, 0, 98, 90
1, 254157, Note_off_c, 0, 65, 58
1, 254170, Note_off_c, 0, 99, 65
1, 254211, Note_off_c, 0, 62, 59
1, 254212, Note_off_c, 0, 58, 58
1, 254214, Note_on_c, 0, 96, 83
1, 254215, Note_off_c, 0, 98, 66
1, 254277, Note_on_c, 0, 94, 90
1, 254291, Note_off_c, 0, 96, 64
1, 254336, Note_on_c, 0, 93, 80
1, 254363, Note_off_c, 0, 94, 63
1, 254396, Note_on_c, 0, 91, 85
1, 254417, Note_off_c, 0, 93, 67
1, 254444, Note_on_c, 0, 65, 64
1, 254449, Note_on_c, 0, 62, 61
1, 254450, Note_on_c, 0, 58, 69
1, 254455, Note_off_c, 0, 91, 66
1, 254460, Note_on_c, 0, 89, 83
1, 254473, Note_off_c, 0, 65, 64
1, 254474, Note_off_c, 0, 62, 63
1, 254476, Note_off_c, 0, 58, 66
1, 254513, Control_c, 0, 64, 107
1, 254514, Note_off_c, 0, 89, 57
1, 254519, Note_on_c, 0, 87, 81
1, 254528, Control_c, 0, 64, 83
1, 254542, Control_c, 0, 64, 67
1, 254557, Control_c, 0, 64, 44
1, 254572, Control_c, 0, 64, 0
1, 254580, Note_on_c, 0, 86, 85
1, 254597, Note_off_c, 0, 87, 63
1, 254635, Note_on_c, 0, 41, 68
1, 254639, Control_c, 0, 64, 13
1, 254649, Note_off_c, 0, 86, 64
1, 254650, Note_on_c, 0, 84, 79
1, 254654, Control_c, 0, 64, 45
1, 254662, Note_off_c, 0, 41, 66
1, 254669, Control_c, 0, 64, 60
1, 254683, Control_c, 0, 64, 70
1, 254698, Control_c, 0, 64, 85
1, 254713, Control_c, 0, 64, 127
1, 254724, Note_on_c, 0, 93, 82
1, 254743, Note_off_c, 0, 84, 62
1, 254793, Note_on_c, 0, 91, 78
1, 254813, Note_off_c, 0, 93, 65
1, 254829, Note_on_c, 0, 63, 69
1, 254832, Note_on_c, 0, 60, 58
1, 254847, Note_on_c, 0, 87, 85
1, 254858, Note_on_c, 0, 53, 56
1, 254864, Note_off_c, 0, 91, 64
1, 254900, Note_off_c, 0, 87, 65
1, 254908, Note_on_c, 0, 84, 80
1, 254969, Note_off_c, 0, 84, 45
1, 254971, Note_on_c, 0, 82, 83
1, 254995, Control_c, 0, 64, 101
1, 255010, Control_c, 0, 64, 84
1, 255025, Control_c, 0, 64, 69
1, 255026, Note_on_c, 0, 81, 76
1, 255039, Control_c, 0, 64, 59
1, 255042, Note_off_c, 0, 82, 64
1, 255049, Note_off_c, 0, 53, 57
1, 255054, Control_c, 0, 64, 30
1, 255061, Note_off_c, 0, 60, 59
1, 255067, Note_off_c, 0, 63, 56
1, 255069, Control_c, 0, 64, 0
1, 255089, Note_on_c, 0, 79, 77
1, 255094, Note_off_c, 0, 81, 66
1, 255129, Note_off_c, 0, 79, 67
1, 255151, Note_on_c, 0, 77, 75
1, 255194, Note_off_c, 0, 77, 57
1, 255205, Note_on_c, 0, 63, 57
1, 255210, Note_on_c, 0, 75, 75
1, 255211, Note_on_c, 0, 53, 57
1, 255221, Note_on_c, 0, 57, 43
1, 255230, Note_off_c, 0, 63, 63
1, 255242, Note_off_c, 0, 53, 65
1, 255248, Note_off_c, 0, 57, 55
1, 255268, Note_off_c, 0, 75, 62
1, 255269, Note_on_c, 0, 74, 72
1, 255294, Note_off_c, 0, 74, 68
1, 255330, Note_on_c, 0, 72, 66
1, 255387, Control_c, 0, 64, 23
1, 255389, Note_off_c, 0, 72, 61
1, 255395, Note_on_c, 0, 41, 55
1, 255402, Control_c, 0, 64, 52
1, 255403, Note_on_c, 0, 70, 67
1, 255417, Control_c, 0, 64, 66
1, 255427, Note_off_c, 0, 41, 65
1, 255429, Note_off_c, 0, 70, 67
1, 255431, Control_c, 0, 64, 79
1, 255446, Control_c, 0, 64, 127
1, 255468, Note_on_c, 0, 74, 71
1, 255546, Note_off_c, 0, 74, 61
1, 255547, Note_on_c, 0, 77, 74
1, 255591, Note_off_c, 0, 77, 55
1, 255597, Note_on_c, 0, 62, 72
1, 255606, Note_on_c, 0, 82, 74
1, 255620, Note_on_c, 0, 58, 59
1, 255632, Note_on_c, 0, 53, 43
1, 255633, Note_off_c, 0, 82, 66
1, 255661, Note_on_c, 0, 86, 76
1, 255721, Note_on_c, 0, 84, 78
1, 255750, Note_off_c, 0, 86, 64
1, 255778, Note_on_c, 0, 82, 87
1, 255784, Note_off_c, 0, 58, 56
1, 255794, Note_off_c, 0, 53, 31
1, 255809, Note_off_c, 0, 62, 57
1, 255817, Note_off_c, 0, 84, 62
1, 255841, Note_on_c, 0, 81, 80
1, 255864, Note_off_c, 0, 82, 64
1, 255899, Note_off_c, 0, 81, 66
1, 255903, Note_on_c, 0, 79, 79
1, 255947, Note_on_c, 0, 62, 53
1, 255949, Note_on_c, 0, 58, 59
1, 255951, Note_on_c, 0, 53, 51
1, 255967, Note_on_c, 0, 77, 84
1, 255975, Note_off_c, 0, 62, 59
1, 255976, Note_off_c, 0, 79, 38
1, 255980, Note_off_c, 0, 58, 65
1, 255984, Note_off_c, 0, 53, 63
1, 256009, Control_c, 0, 64, 103
1, 256023, Note_on_c, 0, 75, 82
1, 256024, Control_c, 0, 64, 85
1, 256039, Control_c, 0, 64, 70
1, 256053, Control_c, 0, 64, 61
1, 256062, Note_off_c, 0, 77, 60
1, 256068, Control_c, 0, 64, 46
1, 256082, Note_on_c, 0, 74, 79
1, 256083, Control_c, 0, 64, 40
1, 256109, Note_off_c, 0, 75, 62
1, 256120, Control_c, 0, 64, 41
1, 256135, Control_c, 0, 64, 46
1, 256141, Note_on_c, 0, 41, 60
1, 256150, Control_c, 0, 64, 53
1, 256156, Note_off_c, 0, 74, 65
1, 256158, Note_on_c, 0, 72, 76
1, 256165, Control_c, 0, 64, 59
1, 256180, Control_c, 0, 64, 63
1, 256194, Control_c, 0, 64, 66
1, 256203, Note_off_c, 0, 41, 64
1, 256209, Control_c, 0, 64, 70
1, 256224, Control_c, 0, 64, 78
1, 256235, Note_on_c, 0, 81, 76
1, 256239, Control_c, 0, 64, 97
1, 256249, Note_off_c, 0, 72, 59
1, 256253, Control_c, 0, 64, 127
1, 256300, Note_on_c, 0, 79, 75
1, 256318, Note_off_c, 0, 81, 61
1, 256331, Note_on_c, 0, 57, 62
1, 256341, Note_on_c, 0, 53, 52
1, 256356, Note_on_c, 0, 51, 49
1, 256356, Note_on_c, 0, 75, 80
1, 256363, Note_off_c, 0, 79, 65
1, 256405, Note_off_c, 0, 75, 62
1, 256415, Note_on_c, 0, 72, 76
1, 256432, Control_c, 0, 64, 104
1, 256446, Control_c, 0, 64, 94
1, 256461, Control_c, 0, 64, 86
1, 256471, Note_off_c, 0, 72, 47
1, 256476, Note_on_c, 0, 70, 83
1, 256477, Control_c, 0, 64, 77
1, 256492, Control_c, 0, 64, 69
1, 256507, Control_c, 0, 64, 63
1, 256522, Control_c, 0, 64, 57
1, 256527, Note_off_c, 0, 51, 57
1, 256533, Note_off_c, 0, 57, 59
1, 256536, Note_on_c, 0, 69, 79
1, 256537, Note_off_c, 0, 70, 61
1, 256537, Control_c, 0, 64, 50
1, 256548, Note_off_c, 0, 53, 58
1, 256551, Control_c, 0, 64, 32
1, 256566, Control_c, 0, 64, 0
1, 256598, Note_on_c, 0, 67, 69
1, 256598, Note_off_c, 0, 69, 65
1, 256637, Note_off_c, 0, 67, 65
1, 256658, Note_on_c, 0, 65, 70
1, 256698, Note_off_c, 0, 65, 58
1, 256709, Note_on_c, 0, 57, 46
1, 256712, Note_on_c, 0, 53, 43
1, 256719, Note_on_c, 0, 63, 68
1, 256721, Note_on_c, 0, 51, 33
1, 256733, Note_off_c, 0, 57, 58
1, 256739, Note_off_c, 0, 53, 55
1, 256748, Note_off_c, 0, 51, 49
1, 256775, Note_off_c, 0, 63, 62
1, 256778, Note_on_c, 0, 62, 68
1, 256807, Note_off_c, 0, 62, 65
1, 256840, Note_on_c, 0, 60, 59
1, 256897, Note_off_c, 0, 60, 62
1, 256905, Note_on_c, 0, 41, 40
1, 256915, Note_on_c, 0, 58, 69
1, 256930, Control_c, 0, 64, 32
1, 256944, Control_c, 0, 64, 54
1, 256946, Note_off_c, 0, 58, 66
1, 256959, Control_c, 0, 64, 64
1, 256960, Note_off_c, 0, 41, 61
1, 256974, Control_c, 0, 64, 73
1, 256989, Control_c, 0, 64, 85
1, 257002, Note_on_c, 0, 62, 56
1, 257004, Control_c, 0, 64, 105
1, 257018, Control_c, 0, 64, 127
1, 257067, Note_off_c, 0, 62, 58
1, 257073, Note_on_c, 0, 65, 65
1, 257118, Note_off_c, 0, 65, 57
1, 257128, Note_on_c, 0, 58, 51
1, 257136, Note_on_c, 0, 53, 42
1, 257139, Note_on_c, 0, 70, 62
1, 257144, Note_on_c, 0, 50, 41
1, 257198, Note_off_c, 0, 70, 63
1, 257203, Note_on_c, 0, 74, 68
1, 257274, Note_on_c, 0, 72, 73
1, 257291, Note_off_c, 0, 74, 59
1, 257308, Note_off_c, 0, 58, 54
1, 257317, Note_off_c, 0, 50, 44
1, 257342, Note_on_c, 0, 70, 77
1, 257348, Note_off_c, 0, 53, 40
1, 257373, Note_off_c, 0, 72, 62
1, 257410, Note_on_c, 0, 69, 76
1, 257421, Note_off_c, 0, 70, 62
1, 257465, Note_off_c, 0, 69, 64
1, 257474, Note_on_c, 0, 67, 74
1, 257511, Note_on_c, 0, 53, 47
1, 257514, Note_on_c, 0, 58, 54
1, 257515, Note_on_c, 0, 50, 50
1, 257544, Note_off_c, 0, 67, 45
1, 257547, Note_off_c, 0, 58, 65
1, 257553, Note_on_c, 0, 65, 74
1, 257561, Note_off_c, 0, 53, 62
1, 257567, Note_off_c, 0, 50, 63
1, 257618, Control_c, 0, 64, 121
1, 257633, Note_on_c, 0, 63, 72
1, 257633, Control_c, 0, 64, 113
1, 257646, Note_off_c, 0, 65, 57
1, 257648, Control_c, 0, 64, 107
1, 257663, Control_c, 0, 64, 101
1, 257678, Control_c, 0, 64, 96
1, 257693, Control_c, 0, 64, 92
1, 257708, Control_c, 0, 64, 88
1, 257709, Note_on_c, 0, 62, 75
1, 257723, Control_c, 0, 64, 82
1, 257724, Note_off_c, 0, 63, 58
1, 257738, Control_c, 0, 64, 76
1, 257753, Control_c, 0, 64, 68
1, 257767, Control_c, 0, 64, 59
1, 257782, Control_c, 0, 64, 38
1, 257795, Note_on_c, 0, 29, 53
1, 257797, Control_c, 0, 64, 17
1, 257814, Note_off_c, 0, 62, 61
1, 257818, Note_on_c, 0, 60, 65
1, 257841, Control_c, 0, 64, 28
1, 257856, Control_c, 0, 64, 43
1, 257871, Control_c, 0, 64, 55
1, 257886, Control_c, 0, 64, 64
1, 257893, Note_off_c, 0, 29, 62
1, 257900, Control_c, 0, 64, 72
1, 257915, Control_c, 0, 64, 82
1, 257923, Note_on_c, 0, 69, 67
1, 257930, Control_c, 0, 64, 97
1, 257945, Control_c, 0, 64, 115
1, 257960, Control_c, 0, 64, 127
1, 258023, Note_on_c, 0, 67, 75
1, 258033, Control_c, 0, 64, 123
1, 258034, Note_off_c, 0, 60, 56
1, 258045, Note_off_c, 0, 69, 56
1, 258048, Control_c, 0, 64, 119
1, 258063, Control_c, 0, 64, 115
1, 258078, Control_c, 0, 64, 113
1, 258092, Control_c, 0, 64, 110
1, 258107, Control_c, 0, 64, 107
1, 258112, Note_on_c, 0, 51, 56
1, 258112, Note_on_c, 0, 63, 73
1, 258122, Note_off_c, 0, 67, 60
1, 258123, Control_c, 0, 64, 104
1, 258125, Note_on_c, 0, 48, 51
1, 258127, Note_on_c, 0, 41, 44
1, 258138, Control_c, 0, 64, 102
1, 258153, Control_c, 0, 64, 99
1, 258168, Control_c, 0, 64, 97
1, 258183, Control_c, 0, 64, 93
1, 258195, Note_off_c, 0, 63, 62
1, 258197, Control_c, 0, 64, 90
1, 258205, Note_on_c, 0, 60, 75
1, 258212, Control_c, 0, 64, 88
1, 258227, Control_c, 0, 64, 87
1, 258241, Control_c, 0, 64, 86
1, 258256, Control_c, 0, 64, 86
1, 258271, Control_c, 0, 64, 85
1, 258286, Control_c, 0, 64, 83
1, 258301, Control_c, 0, 64, 80
1, 258306, Note_on_c, 0, 58, 77
1, 258316, Control_c, 0, 64, 78
1, 258319, Note_off_c, 0, 60, 55
1, 258331, Control_c, 0, 64, 76
1, 258346, Control_c, 0, 64, 74
1, 258368, Control_c, 0, 64, 73
1, 258383, Control_c, 0, 64, 71
1, 258397, Control_c, 0, 64, 69
1, 258412, Control_c, 0, 64, 68
1, 258427, Control_c, 0, 64, 67
1, 258430, Note_on_c, 0, 57, 70
1, 258441, Note_off_c, 0, 58, 60
1, 258441, Control_c, 0, 64, 66
1, 258456, Control_c, 0, 64, 65
1, 258471, Control_c, 0, 64, 64
1, 258477, Note_off_c, 0, 57, 61
1, 258486, Control_c, 0, 64, 63
1, 258501, Control_c, 0, 64, 63
1, 258516, Control_c, 0, 64, 62
1, 258531, Control_c, 0, 64, 61
1, 258546, Control_c, 0, 64, 61
1, 258560, Control_c, 0, 64, 60
1, 258572, Note_on_c, 0, 55, 71
1, 258575, Control_c, 0, 64, 59
1, 258590, Control_c, 0, 64, 58
1, 258605, Control_c, 0, 64, 57
1, 258620, Control_c, 0, 64, 57
1, 258629, Note_off_c, 0, 55, 63
1, 258635, Control_c, 0, 64, 56
1, 258649, Control_c, 0, 64, 54
1, 258664, Control_c, 0, 64, 53
1, 258679, Control_c, 0, 64, 52
1, 258694, Control_c, 0, 64, 51
1, 258709, Note_on_c, 0, 53, 74
1, 258709, Control_c, 0, 64, 49
1, 258713, Note_off_c, 0, 51, 38
1, 258723, Control_c, 0, 64, 48
1, 258738, Control_c, 0, 64, 47
1, 258753, Control_c, 0, 64, 46
1, 258757, Note_off_c, 0, 53, 59
1, 258768, Control_c, 0, 64, 44
1, 258783, Control_c, 0, 64, 43
1, 258797, Control_c, 0, 64, 42
1, 258812, Control_c, 0, 64, 41
1, 258827, Control_c, 0, 64, 39
1, 258841, Control_c, 0, 64, 39
1, 258856, Note_on_c, 0, 51, 67
1, 258856, Control_c, 0, 64, 38
1, 258871, Control_c, 0, 64, 37
1, 258886, Control_c, 0, 64, 36
1, 258901, Control_c, 0, 64, 35
1, 258917, Control_c, 0, 64, 34
1, 258927, Note_off_c, 0, 51, 62
1, 258946, Control_c, 0, 64, 34
1, 258950, Note_off_c, 0, 48, 38
1, 258969, Note_off_c, 0, 41, 37
1, 258976, Control_c, 0, 64, 33
1, 259040, Note_on_c, 0, 50, 57
1, 259131, Note_off_c, 0, 50, 59
1, 259264, Control_c, 0, 64, 35
1, 259279, Control_c, 0, 64, 36
1, 259294, Control_c, 0, 64, 38
1, 259297, Note_on_c, 0, 48, 41
1, 259309, Control_c, 0, 64, 40
1, 259324, Control_c, 0, 64, 43
1, 259338, Control_c, 0, 64, 45
1, 259353, Control_c, 0, 64, 48
1, 259368, Control_c, 0, 64, 51
1, 259383, Control_c, 0, 64, 55
1, 259398, Control_c, 0, 64, 58
1, 259413, Control_c, 0, 64, 60
1, 259428, Control_c, 0, 64, 62
1, 259443, Control_c, 0, 64, 64
1, 259458, Control_c, 0, 64, 66
1, 259472, Control_c, 0, 64, 68
1, 259487, Control_c, 0, 64, 73
1, 259502, Control_c, 0, 64, 77
1, 259517, Control_c, 0, 64, 81
1, 259532, Control_c, 0, 64, 83
1, 259568, Note_off_c, 0, 48, 37
1, 259576, Control_c, 0, 64, 82
1, 259591, Control_c, 0, 64, 81
1, 259606, Control_c, 0, 64, 80
1, 259620, Control_c, 0, 64, 79
1, 259635, Control_c, 0, 64, 78
1, 259650, Control_c, 0, 64, 76
1, 259664, Control_c, 0, 64, 75
1, 259679, Control_c, 0, 64, 74
1, 259694, Control_c, 0, 64, 73
1, 259710, Control_c, 0, 64, 72
1, 259725, Control_c, 0, 64, 70
1, 259740, Control_c, 0, 64, 69
1, 259754, Control_c, 0, 64, 68
1, 259769, Control_c, 0, 64, 67
1, 259784, Control_c, 0, 64, 66
1, 259799, Control_c, 0, 64, 65
1, 259814, Control_c, 0, 64, 65
1, 259828, Control_c, 0, 64, 64
1, 259843, Control_c, 0, 64, 64
1, 259866, Control_c, 0, 64, 63
1, 259881, Control_c, 0, 64, 63
1, 259895, Control_c, 0, 64, 62
1, 259910, Control_c, 0, 64, 62
1, 259925, Control_c, 0, 64, 61
1, 259955, Control_c, 0, 64, 61
1, 259969, Control_c, 0, 64, 60
1, 259984, Control_c, 0, 64, 60
1, 259999, Control_c, 0, 64, 59
1, 260029, Control_c, 0, 64, 59
1, 260058, Control_c, 0, 64, 58
1, 260087, Control_c, 0, 64, 58
1, 260147, Control_c, 0, 64, 57
1, 260191, Control_c, 0, 64, 57
1, 260280, Control_c, 0, 64, 56
1, 260563, Control_c, 0, 64, 57
1, 260644, Control_c, 0, 64, 57
1, 260704, Control_c, 0, 64, 58
1, 260763, Control_c, 0, 64, 58
1, 260792, Control_c, 0, 64, 59
1, 260822, Control_c, 0, 64, 59
1, 260851, Control_c, 0, 64, 60
1, 260881, Control_c, 0, 64, 60
1, 260896, Control_c, 0, 64, 61
1, 260925, Control_c, 0, 64, 61
1, 260940, Control_c, 0, 64, 62
1, 260970, Control_c, 0, 64, 62
1, 260984, Control_c, 0, 64, 63
1, 260999, Control_c, 0, 64, 63
1, 261029, Control_c, 0, 64, 64
1, 261044, Control_c, 0, 64, 64
1, 261058, Control_c, 0, 64, 65
1, 261073, Control_c, 0, 64, 65
1, 261088, Control_c, 0, 64, 66
1, 261103, Control_c, 0, 64, 67
1, 261118, Control_c, 0, 64, 68
1, 261133, Control_c, 0, 64, 69
1, 261148, Control_c, 0, 64, 69
1, 261163, Control_c, 0, 64, 71
1, 261178, Control_c, 0, 64, 73
1, 261192, Control_c, 0, 64, 75
1, 261207, Control_c, 0, 64, 77
1, 261222, Control_c, 0, 64, 79
1, 261236, Control_c, 0, 64, 81
1, 261251, Control_c, 0, 64, 85
1, 261266, Control_c, 0, 64, 89
1, 261281, Control_c, 0, 64, 94
1, 261296, Control_c, 0, 64, 102
1, 261312, Control_c, 0, 64, 116
1, 261327, Control_c, 0, 64, 127
1, 261601, Note_on_c, 0, 53, 41
1, 261603, Note_on_c, 0, 41, 34
1, 261830, Note_off_c, 0, 41, 40
1, 261898, Note_off_c, 0, 53, 42
1, 262254, Note_on_c, 0, 62, 47
1, 262279, Note_on_c, 0, 46, 31
1, 262286, Note_on_c, 0, 50, 38
1, 262287, Note_on_c, 0, 34, 31
1, 262290, Control_c, 0, 64, 119
1, 262290, Note_on_c, 0, 41, 20
1, 262298, Note_on_c, 0, 53, 31
1, 262304, Control_c, 0, 64, 108
1, 262319, Control_c, 0, 64, 101
1, 262334, Control_c, 0, 64, 93
1, 262349, Control_c, 0, 64, 84
1, 262364, Control_c, 0, 64, 75
1, 262379, Control_c, 0, 64, 64
1, 262394, Control_c, 0, 64, 49
1, 262409, Control_c, 0, 64, 26
1, 262424, Control_c, 0, 64, 25
1, 262453, Control_c, 0, 64, 29
1, 262468, Control_c, 0, 64, 35
1, 262482, Control_c, 0, 64, 42
1, 262497, Control_c, 0, 64, 50
1, 262512, Control_c, 0, 64, 58
1, 262527, Control_c, 0, 64, 63
1, 262542, Control_c, 0, 64, 66
1, 262556, Control_c, 0, 64, 70
1, 262571, Control_c, 0, 64, 76
1, 262586, Control_c, 0, 64, 85
1, 262601, Control_c, 0, 64, 97
1, 262616, Control_c, 0, 64, 113
1, 262630, Control_c, 0, 64, 127
1, 262686, Note_off_c, 0, 41, 34
1, 262698, Note_off_c, 0, 46, 32
1, 262708, Note_off_c, 0, 34, 35
1, 262734, Note_off_c, 0, 50, 35
1, 262740, Note_off_c, 0, 53, 41
1, 262754, Note_off_c, 0, 62, 30
1, 263153, Note_on_c, 0, 62, 52
1, 263173, Note_on_c, 0, 41, 22
1, 263175, Note_on_c, 0, 34, 36
1, 263177, Note_on_c, 0, 53, 38
1, 263178, Note_on_c, 0, 46, 31
1, 263183, Note_on_c, 0, 50, 41
1, 263377, Note_off_c, 0, 50, 50
1, 263384, Note_off_c, 0, 62, 54
1, 263391, Note_off_c, 0, 41, 41
1, 263395, Note_off_c, 0, 46, 39
1, 263404, Note_off_c, 0, 34, 40
1, 263419, Note_off_c, 0, 53, 40
1, 263565, Note_on_c, 0, 62, 63
1, 263582, Note_on_c, 0, 34, 34
1, 263583, Note_on_c, 0, 46, 35
1, 263590, Note_on_c, 0, 50, 41
1, 263595, Note_on_c, 0, 41, 28
1, 263598, Note_on_c, 0, 53, 42
1, 263783, Note_off_c, 0, 41, 42
1, 263798, Note_off_c, 0, 62, 55
1, 263813, Note_off_c, 0, 50, 36
1, 263822, Note_off_c, 0, 53, 52
1, 264015, Note_on_c, 0, 58, 55
1, 264024, Control_c, 0, 64, 115
1, 264024, Note_on_c, 0, 41, 31
1, 264038, Note_on_c, 0, 38, 30
1, 264039, Control_c, 0, 64, 104
1, 264049, Note_on_c, 0, 50, 29
1, 264054, Note_on_c, 0, 53, 28
1, 264054, Control_c, 0, 64, 98
1, 264069, Control_c, 0, 64, 94
1, 264083, Control_c, 0, 64, 92
1, 264098, Control_c, 0, 64, 87
1, 264113, Control_c, 0, 64, 81
1, 264127, Control_c, 0, 64, 74
1, 264142, Control_c, 0, 64, 66
1, 264157, Control_c, 0, 64, 58
1, 264172, Control_c, 0, 64, 47
1, 264187, Control_c, 0, 64, 37
1, 264190, Note_off_c, 0, 34, 41
1, 264201, Control_c, 0, 64, 27
1, 264216, Control_c, 0, 64, 11
1, 264231, Control_c, 0, 64, 9
1, 264232, Note_off_c, 0, 46, 29
1, 264246, Control_c, 0, 64, 15
1, 264260, Control_c, 0, 64, 27
1, 264275, Control_c, 0, 64, 38
1, 264290, Control_c, 0, 64, 49
1, 264305, Control_c, 0, 64, 58
1, 264320, Control_c, 0, 64, 64
1, 264334, Control_c, 0, 64, 67
1, 264357, Control_c, 0, 64, 71
1, 264372, Control_c, 0, 64, 78
1, 264387, Control_c, 0, 64, 89
1, 264402, Control_c, 0, 64, 106
1, 264416, Control_c, 0, 64, 127
1, 264429, Note_off_c, 0, 41, 36
1, 264447, Note_off_c, 0, 50, 36
1, 264460, Note_off_c, 0, 38, 33
1, 264501, Note_off_c, 0, 53, 38
1, 264528, Note_off_c, 0, 58, 37
1, 264867, Note_on_c, 0, 58, 44
1, 264874, Note_on_c, 0, 41, 26
1, 264883, Note_on_c, 0, 53, 30
1, 264886, Note_on_c, 0, 38, 30
1, 264895, Note_on_c, 0, 50, 26
1, 265175, Note_off_c, 0, 41, 37
1, 265225, Note_off_c, 0, 50, 39
1, 265267, Note_off_c, 0, 38, 35
1, 265289, Note_off_c, 0, 53, 35
1, 265401, Note_off_c, 0, 58, 55
1, 265762, Note_on_c, 0, 57, 48
1, 265767, Note_on_c, 0, 48, 32
1, 265773, Note_on_c, 0, 51, 43
1, 265783, Note_on_c, 0, 36, 34
1, 265799, Note_on_c, 0, 53, 36
1, 265800, Note_on_c, 0, 41, 30
1, 265803, Control_c, 0, 64, 114
1, 265818, Control_c, 0, 64, 104
1, 265833, Control_c, 0, 64, 95
1, 265855, Control_c, 0, 64, 87
1, 265870, Control_c, 0, 64, 77
1, 265885, Control_c, 0, 64, 67
1, 265899, Control_c, 0, 64, 56
1, 265914, Control_c, 0, 64, 30
1, 265929, Control_c, 0, 64, 23
1, 265974, Control_c, 0, 64, 23
1, 265988, Control_c, 0, 64, 30
1, 266003, Control_c, 0, 64, 39
1, 266018, Control_c, 0, 64, 48
1, 266033, Control_c, 0, 64, 57
1, 266048, Control_c, 0, 64, 63
1, 266062, Control_c, 0, 64, 67
1, 266077, Control_c, 0, 64, 74
1, 266092, Control_c, 0, 64, 85
1, 266108, Control_c, 0, 64, 113
1, 266123, Control_c, 0, 64, 127
1, 266191, Note_off_c, 0, 48, 38
1, 266200, Note_off_c, 0, 41, 40
1, 266219, Note_off_c, 0, 36, 39
1, 266231, Note_off_c, 0, 53, 37
1, 266248, Note_off_c, 0, 51, 38
1, 266299, Note_off_c, 0, 57, 48
1, 266639, Note_on_c, 0, 57, 63
1, 266658, Note_on_c, 0, 51, 53
1, 266662, Note_on_c, 0, 53, 47
1, 266663, Note_on_c, 0, 48, 36
1, 266671, Note_on_c, 0, 36, 40
1, 266674, Note_on_c, 0, 41, 34
1, 266912, Note_off_c, 0, 41, 42
1, 266922, Note_off_c, 0, 36, 40
1, 266925, Note_off_c, 0, 48, 40
1, 266927, Note_off_c, 0, 53, 58
1, 266931, Note_off_c, 0, 51, 56
1, 266954, Note_off_c, 0, 57, 60
1, 267068, Note_on_c, 0, 57, 80
1, 267081, Note_on_c, 0, 48, 56
1, 267085, Note_on_c, 0, 51, 67
1, 267086, Note_on_c, 0, 36, 48
1, 267092, Note_on_c, 0, 53, 56
1, 267097, Note_on_c, 0, 41, 46
1, 267250, Note_off_c, 0, 48, 57
1, 267288, Note_off_c, 0, 36, 48
1, 267352, Note_off_c, 0, 51, 58
1, 267376, Note_off_c, 0, 41, 55
1, 267390, Note_off_c, 0, 53, 62
1, 267414, Note_off_c, 0, 57, 62
1, 267664, Note_on_c, 0, 45, 38
1, 267670, Note_on_c, 0, 63, 69
1, 267674, Note_on_c, 0, 54, 69
1, 267678, Note_on_c, 0, 33, 39
1, 267682, Note_on_c, 0, 60, 58
1, 267685, Note_on_c, 0, 42, 52
1, 267782, Control_c, 0, 64, 107
1, 267797, Control_c, 0, 64, 92
1, 267812, Control_c, 0, 64, 82
1, 267827, Control_c, 0, 64, 73
1, 267842, Control_c, 0, 64, 67
1, 267856, Control_c, 0, 64, 64
1, 267871, Control_c, 0, 64, 62
1, 267886, Control_c, 0, 64, 60
1, 267900, Control_c, 0, 64, 54
1, 267915, Control_c, 0, 64, 43
1, 267930, Control_c, 0, 64, 26
1, 267945, Control_c, 0, 64, 0
1, 268004, Control_c, 0, 64, 13
1, 268019, Control_c, 0, 64, 30
1, 268034, Control_c, 0, 64, 42
1, 268049, Control_c, 0, 64, 52
1, 268064, Control_c, 0, 64, 60
1, 268078, Control_c, 0, 64, 64
1, 268100, Control_c, 0, 64, 68
1, 268115, Control_c, 0, 64, 74
1, 268130, Control_c, 0, 64, 85
1, 268145, Control_c, 0, 64, 108
1, 268160, Control_c, 0, 64, 127
1, 268287, Note_off_c, 0, 42, 35
1, 268514, Note_off_c, 0, 54, 49
1, 268681, Note_on_c, 0, 53, 43
1, 268695, Note_on_c, 0, 41, 30
1, 268724, Control_c, 0, 64, 110
1, 268739, Control_c, 0, 64, 101
1, 268754, Control_c, 0, 64, 95
1, 268769, Control_c, 0, 64, 90
1, 268784, Control_c, 0, 64, 85
1, 268798, Control_c, 0, 64, 79
1, 268813, Control_c, 0, 64, 74
1, 268828, Control_c, 0, 64, 69
1, 268851, Control_c, 0, 64, 64
1, 268865, Control_c, 0, 64, 56
1, 268880, Control_c, 0, 64, 45
1, 268895, Control_c, 0, 64, 30
1, 268910, Control_c, 0, 64, 11
1, 268924, Control_c, 0, 64, 0
1, 268984, Control_c, 0, 64, 27
1, 268998, Control_c, 0, 64, 40
1, 269013, Control_c, 0, 64, 50
1, 269028, Control_c, 0, 64, 57
1, 269043, Control_c, 0, 64, 62
1, 269058, Control_c, 0, 64, 65
1, 269072, Control_c, 0, 64, 68
1, 269087, Control_c, 0, 64, 74
1, 269102, Control_c, 0, 64, 82
1, 269117, Control_c, 0, 64, 92
1, 269118, Note_off_c, 0, 53, 39
1, 269123, Note_off_c, 0, 33, 37
1, 269131, Control_c, 0, 64, 105
1, 269146, Control_c, 0, 64, 127
1, 269149, Note_off_c, 0, 45, 31
1, 269175, Note_off_c, 0, 60, 37
1, 269240, Note_off_c, 0, 41, 41
1, 269274, Note_off_c, 0, 63, 33
1, 269791, Note_on_c, 0, 62, 55
1, 269794, Note_on_c, 0, 46, 31
1, 269810, Note_on_c, 0, 34, 32
1, 269814, Note_on_c, 0, 58, 42
1, 269818, Note_on_c, 0, 53, 35
1, 269821, Note_on_c, 0, 41, 28
1, 269821, Control_c, 0, 64, 118
1, 269825, Note_on_c, 0, 50, 40
1, 269836, Control_c, 0, 64, 107
1, 269851, Control_c, 0, 64, 102
1, 269866, Control_c, 0, 64, 97
1, 269881, Control_c, 0, 64, 92
1, 269895, Control_c, 0, 64, 84
1, 269910, Control_c, 0, 64, 76
1, 269925, Control_c, 0, 64, 67
1, 269940, Control_c, 0, 64, 59
1, 269954, Control_c, 0, 64, 45
1, 269969, Control_c, 0, 64, 34
1, 269984, Control_c, 0, 64, 29
1, 269999, Control_c, 0, 64, 28
1, 270014, Control_c, 0, 64, 28
1, 270028, Control_c, 0, 64, 31
1, 270043, Control_c, 0, 64, 38
1, 270058, Control_c, 0, 64, 47
1, 270073, Control_c, 0, 64, 55
1, 270088, Control_c, 0, 64, 61
1, 270104, Control_c, 0, 64, 66
1, 270118, Control_c, 0, 64, 72
1, 270133, Control_c, 0, 64, 84
1, 270148, Control_c, 0, 64, 116
1, 270163, Control_c, 0, 64, 127
1, 270213, Note_off_c, 0, 41, 37
1, 270218, Note_off_c, 0, 46, 38
1, 270277, Note_off_c, 0, 50, 40
1, 270304, Note_off_c, 0, 53, 43
1, 270316, Note_off_c, 0, 34, 40
1, 270396, Note_off_c, 0, 58, 35
1, 270405, Note_off_c, 0, 62, 52
1, 270701, Note_on_c, 0, 62, 64
1, 270707, Note_on_c, 0, 59, 57
1, 270725, Note_on_c, 0, 31, 37
1, 270727, Note_on_c, 0, 43, 35
1, 270728, Note_on_c, 0, 55, 44
1, 270735, Note_on_c, 0, 53, 49
1, 270762, Control_c, 0, 64, 83
1, 270776, Control_c, 0, 64, 64
1, 270791, Control_c, 0, 64, 30
1, 270806, Control_c, 0, 64, 0
1, 270866, Control_c, 0, 64, 38
1, 270881, Control_c, 0, 64, 54
1, 270896, Control_c, 0, 64, 63
1, 270911, Control_c, 0, 64, 71
1, 270926, Control_c, 0, 64, 90
1, 270940, Control_c, 0, 64, 127
1, 270983, Note_off_c, 0, 31, 39
1, 270997, Note_off_c, 0, 55, 61
1, 271000, Note_off_c, 0, 53, 59
1, 271006, Note_off_c, 0, 43, 37
1, 271015, Note_off_c, 0, 59, 61
1, 271024, Note_off_c, 0, 62, 60
1, 271143, Note_on_c, 0, 62, 77
1, 271151, Note_on_c, 0, 43, 44
1, 271154, Note_on_c, 0, 59, 74
1, 271161, Note_on_c, 0, 31, 40
1, 271173, Note_on_c, 0, 53, 61
1, 271184, Note_on_c, 0, 55, 50
1, 271250, Note_off_c, 0, 31, 53
1, 271316, Note_off_c, 0, 43, 36
1, 271461, Note_off_c, 0, 53, 58
1, 271500, Note_off_c, 0, 55, 56
1, 271542, Note_off_c, 0, 59, 56
1, 271547, Note_off_c, 0, 62, 54
1, 271773, Note_on_c, 0, 48, 43
1, 271778, Note_on_c, 0, 62, 65
1, 271779, Note_on_c, 0, 55, 56
1, 271796, Note_on_c, 0, 51, 55
1, 271798, Note_on_c, 0, 36, 39
1, 271803, Note_on_c, 0, 43, 36
1, 271809, Control_c, 0, 64, 116
1, 271823, Control_c, 0, 64, 97
1, 271846, Control_c, 0, 64, 89
1, 271861, Control_c, 0, 64, 84
1, 271876, Control_c, 0, 64, 79
1, 271891, Control_c, 0, 64, 75
1, 271905, Control_c, 0, 64, 70
1, 271920, Control_c, 0, 64, 66
1, 271935, Control_c, 0, 64, 63
1, 271949, Control_c, 0, 64, 61
1, 271964, Control_c, 0, 64, 58
1, 271979, Control_c, 0, 64, 52
1, 271994, Control_c, 0, 64, 42
1, 272009, Control_c, 0, 64, 25
1, 272023, Control_c, 0, 64, 0
1, 272186, Control_c, 0, 64, 27
1, 272202, Control_c, 0, 64, 38
1, 272216, Control_c, 0, 64, 47
1, 272231, Control_c, 0, 64, 54
1, 272246, Control_c, 0, 64, 61
1, 272261, Control_c, 0, 64, 65
1, 272276, Control_c, 0, 64, 69
1, 272290, Control_c, 0, 64, 76
1, 272305, Control_c, 0, 64, 87
1, 272320, Control_c, 0, 64, 104
1, 272335, Control_c, 0, 64, 127
1, 272410, Note_off_c, 0, 55, 56
1, 272699, Control_c, 0, 64, 119
1, 272714, Control_c, 0, 64, 109
1, 272729, Control_c, 0, 64, 101
1, 272733, Note_on_c, 0, 55, 47
1, 272744, Control_c, 0, 64, 95
1, 272758, Control_c, 0, 64, 90
1, 272773, Control_c, 0, 64, 87
1, 272788, Control_c, 0, 64, 84
1, 272803, Control_c, 0, 64, 80
1, 272818, Control_c, 0, 64, 77
1, 272833, Control_c, 0, 64, 75
1, 272847, Control_c, 0, 64, 73
1, 272862, Control_c, 0, 64, 70
1, 272877, Control_c, 0, 64, 67
1, 272892, Control_c, 0, 64, 64
1, 272907, Control_c, 0, 64, 57
1, 272921, Control_c, 0, 64, 47
1, 272936, Control_c, 0, 64, 34
1, 272951, Control_c, 0, 64, 24
1, 272966, Control_c, 0, 64, 21
1, 272970, Note_off_c, 0, 62, 55
1, 272995, Control_c, 0, 64, 27
1, 273010, Control_c, 0, 64, 38
1, 273025, Control_c, 0, 64, 49
1, 273039, Control_c, 0, 64, 56
1, 273054, Control_c, 0, 64, 60
1, 273069, Control_c, 0, 64, 63
1, 273084, Control_c, 0, 64, 68
1, 273099, Control_c, 0, 64, 73
1, 273113, Control_c, 0, 64, 84
1, 273124, Note_off_c, 0, 48, 47
1, 273128, Control_c, 0, 64, 100
1, 273143, Control_c, 0, 64, 127
1, 273163, Note_off_c, 0, 43, 31
1, 273220, Note_off_c, 0, 36, 38
1, 273238, Note_off_c, 0, 51, 38
1, 273292, Note_off_c, 0, 55, 37
1, 273816, Note_on_c, 0, 60, 41
1, 273823, Note_on_c, 0, 57, 31
1, 273823, Note_on_c, 0, 29, 29
1, 273827, Note_on_c, 0, 41, 20
1, 273833, Control_c, 0, 64, 116
1, 273847, Note_on_c, 0, 51, 33
1, 273848, Control_c, 0, 64, 104
1, 273862, Control_c, 0, 64, 97
1, 273877, Control_c, 0, 64, 93
1, 273892, Control_c, 0, 64, 89
1, 273907, Control_c, 0, 64, 83
1, 273921, Control_c, 0, 64, 75
1, 273936, Control_c, 0, 64, 66
1, 273951, Control_c, 0, 64, 54
1, 273966, Control_c, 0, 64, 34
1, 273981, Control_c, 0, 64, 29
1, 273996, Control_c, 0, 64, 28
1, 274025, Control_c, 0, 64, 30
1, 274040, Control_c, 0, 64, 37
1, 274055, Control_c, 0, 64, 45
1, 274070, Control_c, 0, 64, 51
1, 274093, Control_c, 0, 64, 55
1, 274108, Control_c, 0, 64, 58
1, 274123, Control_c, 0, 64, 61
1, 274138, Control_c, 0, 64, 64
1, 274153, Control_c, 0, 64, 67
1, 274167, Control_c, 0, 64, 72
1, 274182, Control_c, 0, 64, 78
1, 274197, Control_c, 0, 64, 85
1, 274212, Control_c, 0, 64, 93
1, 274226, Control_c, 0, 64, 99
1, 274241, Control_c, 0, 64, 104
1, 274256, Control_c, 0, 64, 111
1, 274271, Control_c, 0, 64, 119
1, 274286, Control_c, 0, 64, 127
1, 274353, Note_on_c, 0, 59, 39
1, 274404, Note_off_c, 0, 60, 55
1, 274578, Note_on_c, 0, 60, 55
1, 274646, Note_off_c, 0, 59, 38
1, 274729, Control_c, 0, 64, 121
1, 274744, Control_c, 0, 64, 118
1, 274759, Control_c, 0, 64, 116
1, 274764, Note_on_c, 0, 59, 61
1, 274774, Control_c, 0, 64, 115
1, 274788, Control_c, 0, 64, 114
1, 274803, Control_c, 0, 64, 113
1, 274817, Note_off_c, 0, 60, 57
1, 274818, Control_c, 0, 64, 113
1, 274855, Control_c, 0, 64, 111
1, 274870, Control_c, 0, 64, 111
1, 274885, Control_c, 0, 64, 110
1, 274901, Control_c, 0, 64, 110
1, 274915, Control_c, 0, 64, 109
1, 274930, Control_c, 0, 64, 108
1, 274945, Control_c, 0, 64, 107
1, 274960, Control_c, 0, 64, 107
1, 274983, Note_on_c, 0, 60, 58
1, 275004, Control_c, 0, 64, 106
1, 275019, Control_c, 0, 64, 105
1, 275034, Control_c, 0, 64, 104
1, 275042, Note_off_c, 0, 59, 49
1, 275048, Control_c, 0, 64, 102
1, 275063, Control_c, 0, 64, 101
1, 275078, Control_c, 0, 64, 101
1, 275093, Control_c, 0, 64, 99
1, 275108, Control_c, 0, 64, 98
1, 275122, Control_c, 0, 64, 95
1, 275137, Control_c, 0, 64, 93
1, 275152, Control_c, 0, 64, 91
1, 275167, Control_c, 0, 64, 90
1, 275182, Control_c, 0, 64, 88
1, 275197, Control_c, 0, 64, 86
1, 275212, Control_c, 0, 64, 84
1, 275227, Control_c, 0, 64, 82
1, 275241, Control_c, 0, 64, 80
1, 275256, Control_c, 0, 64, 77
1, 275271, Control_c, 0, 64, 74
1, 275286, Note_on_c, 0, 62, 45
1, 275286, Control_c, 0, 64, 71
1, 275301, Control_c, 0, 64, 67
1, 275315, Control_c, 0, 64, 63
1, 275330, Control_c, 0, 64, 58
1, 275345, Control_c, 0, 64, 52
1, 275359, Control_c, 0, 64, 45
1, 275364, Note_off_c, 0, 60, 58
1, 275374, Control_c, 0, 64, 38
1, 275389, Control_c, 0, 64, 30
1, 275404, Control_c, 0, 64, 25
1, 275433, Control_c, 0, 64, 27
1, 275448, Control_c, 0, 64, 35
1, 275463, Control_c, 0, 64, 46
1, 275478, Control_c, 0, 64, 55
1, 275493, Control_c, 0, 64, 61
1, 275507, Control_c, 0, 64, 65
1, 275516, Note_off_c, 0, 29, 42
1, 275522, Control_c, 0, 64, 69
1, 275537, Control_c, 0, 64, 76
1, 275552, Control_c, 0, 64, 86
1, 275566, Control_c, 0, 64, 100
1, 275577, Note_off_c, 0, 41, 42
1, 275581, Control_c, 0, 64, 127
1, 275590, Note_off_c, 0, 57, 28
1, 275706, Note_off_c, 0, 51, 37
1, 275813, Note_on_c, 0, 60, 39
1, 275990, Control_c, 0, 64, 112
1, 276005, Control_c, 0, 64, 105
1, 276020, Control_c, 0, 64, 99
1, 276030, Note_on_c, 0, 58, 40
1, 276031, Note_on_c, 0, 41, 27
1, 276034, Control_c, 0, 64, 94
1, 276040, Note_on_c, 0, 46, 27
1, 276049, Control_c, 0, 64, 91
1, 276050, Note_on_c, 0, 34, 19
1, 276051, Note_on_c, 0, 50, 31
1, 276064, Control_c, 0, 64, 88
1, 276079, Control_c, 0, 64, 85
1, 276094, Control_c, 0, 64, 82
1, 276109, Control_c, 0, 64, 78
1, 276124, Control_c, 0, 64, 75
1, 276138, Control_c, 0, 64, 72
1, 276153, Control_c, 0, 64, 69
1, 276168, Control_c, 0, 64, 68
1, 276172, Note_off_c, 0, 60, 15
1, 276182, Control_c, 0, 64, 66
1, 276189, Note_off_c, 0, 62, 28
1, 276197, Control_c, 0, 64, 64
1, 276212, Control_c, 0, 64, 63
1, 276227, Control_c, 0, 64, 61
1, 276242, Control_c, 0, 64, 60
1, 276256, Control_c, 0, 64, 58
1, 276271, Control_c, 0, 64, 56
1, 276286, Control_c, 0, 64, 51
1, 276301, Control_c, 0, 64, 44
1, 276316, Control_c, 0, 64, 34
1, 276338, Control_c, 0, 64, 24
1, 276353, Control_c, 0, 64, 20
1, 276397, Control_c, 0, 64, 21
1, 276412, Control_c, 0, 64, 25
1, 276427, Control_c, 0, 64, 31
1, 276442, Control_c, 0, 64, 38
1, 276457, Control_c, 0, 64, 42
1, 276471, Control_c, 0, 64, 46
1, 276487, Control_c, 0, 64, 49
1, 276502, Control_c, 0, 64, 52
1, 276517, Control_c, 0, 64, 55
1, 276532, Control_c, 0, 64, 58
1, 276547, Control_c, 0, 64, 60
1, 276562, Control_c, 0, 64, 61
1, 276576, Control_c, 0, 64, 63
1, 276591, Control_c, 0, 64, 64
1, 276606, Control_c, 0, 64, 66
1, 276620, Control_c, 0, 64, 69
1, 276635, Control_c, 0, 64, 71
1, 276650, Control_c, 0, 64, 74
1, 276665, Control_c, 0, 64, 78
1, 276680, Control_c, 0, 64, 81
1, 276693, Control_c, 0, 64, 85
1, 276708, Control_c, 0, 64, 89
1, 276723, Control_c, 0, 64, 92
1, 276738, Control_c, 0, 64, 97
1, 276753, Control_c, 0, 64, 105
1, 276768, Control_c, 0, 64, 123
1, 276783, Control_c, 0, 64, 127
1, 277112, Note_off_c, 0, 50, 32
1, 277172, Note_off_c, 0, 34, 37
1, 277175, Control_c, 0, 64, 123
1, 277190, Control_c, 0, 64, 121
1, 277205, Control_c, 0, 64, 119
1, 277219, Note_off_c, 0, 58, 29
1, 277219, Control_c, 0, 64, 117
1, 277223, Note_off_c, 0, 41, 32
1, 277234, Control_c, 0, 64, 113
1, 277245, Note_off_c, 0, 46, 34
1, 277249, Control_c, 0, 64, 111
1, 277264, Control_c, 0, 64, 110
1, 277279, Control_c, 0, 64, 108
1, 277295, Control_c, 0, 64, 106
1, 277309, Control_c, 0, 64, 104
1, 277324, Control_c, 0, 64, 101
1, 277339, Control_c, 0, 64, 99
1, 277354, Control_c, 0, 64, 99
1, 277383, Control_c, 0, 64, 98
1, 277398, Control_c, 0, 64, 96
1, 277413, Control_c, 0, 64, 94
1, 277428, Control_c, 0, 64, 93
1, 277442, Control_c, 0, 64, 93
1, 277457, Control_c, 0, 64, 92
1, 277472, Control_c, 0, 64, 91
1, 277487, Control_c, 0, 64, 89
1, 277502, Control_c, 0, 64, 88
1, 277531, Control_c, 0, 64, 87
1, 277546, Control_c, 0, 64, 86
1, 277561, Control_c, 0, 64, 85
1, 277576, Control_c, 0, 64, 83
1, 277591, Control_c, 0, 64, 83
1, 277605, Control_c, 0, 64, 81
1, 277620, Control_c, 0, 64, 80
1, 277635, Control_c, 0, 64, 79
1, 277650, Control_c, 0, 64, 77
1, 277665, Control_c, 0, 64, 76
1, 277680, Control_c, 0, 64, 75
1, 277695, Control_c, 0, 64, 74
1, 277709, Control_c, 0, 64, 73
1, 277724, Control_c, 0, 64, 72
1, 277739, Control_c, 0, 64, 71
1, 277753, Control_c, 0, 64, 70
1, 277768, Control_c, 0, 64, 70
1, 277783, Control_c, 0, 64, 69
1, 277798, Control_c, 0, 64, 68
1, 277813, Control_c, 0, 64, 68
1, 277835, Control_c, 0, 64, 67
1, 277850, Control_c, 0, 64, 67
1, 277865, Control_c, 0, 64, 66
1, 277880, Control_c, 0, 64, 66
1, 277895, Control_c, 0, 64, 65
1, 277909, Control_c, 0, 64, 65
1, 277924, Control_c, 0, 64, 64
1, 277968, Control_c, 0, 64, 64
1, 277983, Control_c, 0, 64, 63
1, 278013, Control_c, 0, 64, 63
1, 278042, Control_c, 0, 64, 62
1, 278057, Control_c, 0, 64, 61
1, 278072, Control_c, 0, 64, 60
1, 278088, Control_c, 0, 64, 59
1, 278103, Control_c, 0, 64, 59
1, 278118, Control_c, 0, 64, 58
1, 278132, Control_c, 0, 64, 57
1, 278147, Control_c, 0, 64, 54
1, 278162, Control_c, 0, 64, 52
1, 278177, Control_c, 0, 64, 51
1, 278191, Control_c, 0, 64, 51
1, 278206, Control_c, 0, 64, 53
1, 278221, Control_c, 0, 64, 55
1, 278236, Control_c, 0, 64, 59
1, 278251, Control_c, 0, 64, 61
1, 278265, Control_c, 0, 64, 63
1, 278280, Control_c, 0, 64, 64
1, 278295, Control_c, 0, 64, 67
1, 278310, Control_c, 0, 64, 71
1, 278325, Control_c, 0, 64, 77
1, 278339, Control_c, 0, 64, 84
1, 278354, Control_c, 0, 64, 93
1, 278369, Control_c, 0, 64, 105
1, 278383, Control_c, 0, 64, 127
1, 278421, Note_on_c, 0, 74, 68
1, 278440, Note_on_c, 0, 58, 32
1, 278447, Note_on_c, 0, 46, 31
1, 278451, Note_on_c, 0, 62, 46
1, 278454, Note_on_c, 0, 70, 47
1, 278458, Note_on_c, 0, 53, 34
1, 278466, Note_on_c, 0, 65, 35
1, 278776, Note_off_c, 0, 58, 41
1, 278803, Note_off_c, 0, 53, 42
1, 278869, Note_off_c, 0, 62, 38
1, 278869, Note_off_c, 0, 46, 38
1, 278937, Note_off_c, 0, 65, 55
1, 279003, Note_off_c, 0, 74, 56
1, 279017, Note_off_c, 0, 70, 32
1, 279354, Note_on_c, 0, 74, 72
1, 279370, Note_on_c, 0, 71, 56
1, 279373, Note_on_c, 0, 55, 37
1, 279377, Control_c, 0, 64, 106
1, 279387, Note_on_c, 0, 43, 38
1, 279392, Note_on_c, 0, 65, 53
1, 279392, Control_c, 0, 64, 91
1, 279405, Note_on_c, 0, 67, 45
1, 279407, Control_c, 0, 64, 80
1, 279421, Control_c, 0, 64, 68
1, 279436, Control_c, 0, 64, 57
1, 279451, Control_c, 0, 64, 39
1, 279466, Control_c, 0, 64, 36
1, 279481, Control_c, 0, 64, 39
1, 279495, Control_c, 0, 64, 47
1, 279510, Control_c, 0, 64, 56
1, 279525, Control_c, 0, 64, 61
1, 279540, Control_c, 0, 64, 65
1, 279555, Control_c, 0, 64, 72
1, 279570, Control_c, 0, 64, 88
1, 279585, Control_c, 0, 64, 127
1, 279615, Note_off_c, 0, 67, 60
1, 279618, Note_off_c, 0, 43, 38
1, 279618, Note_off_c, 0, 65, 57
1, 279623, Note_off_c, 0, 71, 60
1, 279639, Note_off_c, 0, 55, 35
1, 279643, Note_off_c, 0, 74, 61
1, 279778, Note_on_c, 0, 74, 80
1, 279795, Note_on_c, 0, 55, 43
1, 279807, Note_on_c, 0, 71, 67
1, 279811, Note_on_c, 0, 65, 65
1, 279817, Note_on_c, 0, 43, 41
1, 279832, Note_on_c, 0, 67, 53
1, 279890, Note_off_c, 0, 43, 55
1, 279931, Note_off_c, 0, 55, 58
1, 280064, Note_off_c, 0, 65, 56
1, 280094, Note_off_c, 0, 67, 54
1, 280103, Note_off_c, 0, 71, 53
1, 280107, Note_off_c, 0, 74, 60
1, 280315, Note_on_c, 0, 74, 76
1, 280333, Note_on_c, 0, 60, 46
1, 280345, Note_on_c, 0, 67, 43
1, 280348, Note_on_c, 0, 63, 55
1, 280351, Note_on_c, 0, 55, 36
1, 280370, Note_on_c, 0, 48, 39
1, 280378, Control_c, 0, 64, 107
1, 280393, Control_c, 0, 64, 98
1, 280408, Control_c, 0, 64, 92
1, 280423, Control_c, 0, 64, 89
1, 280437, Control_c, 0, 64, 86
1, 280452, Control_c, 0, 64, 82
1, 280467, Control_c, 0, 64, 79
1, 280483, Control_c, 0, 64, 76
1, 280498, Control_c, 0, 64, 72
1, 280513, Control_c, 0, 64, 69
1, 280527, Control_c, 0, 64, 65
1, 280542, Control_c, 0, 64, 61
1, 280557, Control_c, 0, 64, 55
1, 280572, Control_c, 0, 64, 48
1, 280587, Control_c, 0, 64, 39
1, 280601, Control_c, 0, 64, 31
1, 280616, Control_c, 0, 64, 28
1, 280646, Control_c, 0, 64, 29
1, 280661, Control_c, 0, 64, 33
1, 280676, Control_c, 0, 64, 40
1, 280691, Control_c, 0, 64, 48
1, 280706, Control_c, 0, 64, 53
1, 280720, Control_c, 0, 64, 56
1, 280735, Control_c, 0, 64, 59
1, 280750, Control_c, 0, 64, 62
1, 280765, Control_c, 0, 64, 65
1, 280780, Control_c, 0, 64, 69
1, 280795, Control_c, 0, 64, 75
1, 280809, Control_c, 0, 64, 88
1, 280831, Control_c, 0, 64, 111
1, 280846, Control_c, 0, 64, 127
1, 280864, Note_off_c, 0, 67, 53
1, 281215, Control_c, 0, 64, 115
1, 281217, Note_on_c, 0, 67, 45
1, 281230, Control_c, 0, 64, 105
1, 281245, Control_c, 0, 64, 100
1, 281260, Control_c, 0, 64, 95
1, 281275, Control_c, 0, 64, 90
1, 281290, Control_c, 0, 64, 86
1, 281305, Control_c, 0, 64, 83
1, 281320, Control_c, 0, 64, 81
1, 281335, Control_c, 0, 64, 78
1, 281349, Control_c, 0, 64, 74
1, 281364, Control_c, 0, 64, 68
1, 281379, Control_c, 0, 64, 63
1, 281394, Control_c, 0, 64, 57
1, 281409, Control_c, 0, 64, 54
1, 281420, Note_off_c, 0, 74, 55
1, 281424, Control_c, 0, 64, 49
1, 281439, Control_c, 0, 64, 46
1, 281469, Control_c, 0, 64, 47
1, 281483, Control_c, 0, 64, 51
1, 281498, Control_c, 0, 64, 55
1, 281513, Control_c, 0, 64, 59
1, 281528, Control_c, 0, 64, 61
1, 281543, Control_c, 0, 64, 63
1, 281557, Control_c, 0, 64, 66
1, 281579, Control_c, 0, 64, 71
1, 281594, Control_c, 0, 64, 80
1, 281609, Control_c, 0, 64, 100
1, 281624, Control_c, 0, 64, 127
1, 281639, Note_off_c, 0, 60, 50
1, 281688, Note_off_c, 0, 55, 43
1, 281716, Note_off_c, 0, 63, 29
1, 281731, Note_off_c, 0, 48, 40
1, 281826, Note_off_c, 0, 67, 33
1, 282264, Note_on_c, 0, 72, 48
1, 282287, Note_on_c, 0, 69, 41
1, 282288, Note_on_c, 0, 41, 27
1, 282291, Control_c, 0, 64, 109
1, 282301, Note_on_c, 0, 63, 39
1, 282302, Note_on_c, 0, 53, 29
1, 282306, Control_c, 0, 64, 102
1, 282328, Control_c, 0, 64, 96
1, 282343, Control_c, 0, 64, 92
1, 282358, Control_c, 0, 64, 88
1, 282373, Control_c, 0, 64, 84
1, 282387, Control_c, 0, 64, 79
1, 282402, Control_c, 0, 64, 71
1, 282417, Control_c, 0, 64, 63
1, 282432, Control_c, 0, 64, 54
1, 282446, Control_c, 0, 64, 45
1, 282461, Control_c, 0, 64, 44
1, 282491, Control_c, 0, 64, 46
1, 282506, Control_c, 0, 64, 49
1, 282521, Control_c, 0, 64, 53
1, 282536, Control_c, 0, 64, 57
1, 282551, Control_c, 0, 64, 61
1, 282566, Control_c, 0, 64, 63
1, 282580, Control_c, 0, 64, 67
1, 282595, Control_c, 0, 64, 72
1, 282610, Control_c, 0, 64, 80
1, 282624, Control_c, 0, 64, 93
1, 282639, Control_c, 0, 64, 113
1, 282654, Control_c, 0, 64, 127
1, 282819, Note_on_c, 0, 71, 42
1, 282890, Note_off_c, 0, 72, 51
1, 283039, Note_on_c, 0, 72, 57
1, 283077, Note_off_c, 0, 71, 54
1, 283240, Note_on_c, 0, 71, 63
1, 283290, Note_off_c, 0, 72, 58
1, 283299, Control_c, 0, 64, 121
1, 283314, Control_c, 0, 64, 118
1, 283329, Control_c, 0, 64, 116
1, 283344, Control_c, 0, 64, 114
1, 283359, Control_c, 0, 64, 112
1, 283373, Control_c, 0, 64, 110
1, 283388, Control_c, 0, 64, 109
1, 283403, Control_c, 0, 64, 108
1, 283418, Control_c, 0, 64, 107
1, 283433, Control_c, 0, 64, 107
1, 283448, Control_c, 0, 64, 106
1, 283448, Note_on_c, 0, 72, 65
1, 283463, Control_c, 0, 64, 104
1, 283478, Control_c, 0, 64, 104
1, 283493, Control_c, 0, 64, 102
1, 283508, Control_c, 0, 64, 100
1, 283508, Note_off_c, 0, 71, 54
1, 283522, Control_c, 0, 64, 98
1, 283537, Control_c, 0, 64, 96
1, 283552, Control_c, 0, 64, 95
1, 283567, Control_c, 0, 64, 94
1, 283581, Control_c, 0, 64, 92
1, 283596, Control_c, 0, 64, 90
1, 283611, Control_c, 0, 64, 87
1, 283626, Control_c, 0, 64, 85
1, 283641, Control_c, 0, 64, 84
1, 283655, Control_c, 0, 64, 82
1, 283671, Control_c, 0, 64, 78
1, 283686, Control_c, 0, 64, 74
1, 283701, Control_c, 0, 64, 68
1, 283716, Control_c, 0, 64, 64
1, 283731, Control_c, 0, 64, 62
1, 283733, Note_on_c, 0, 74, 46
1, 283745, Control_c, 0, 64, 60
1, 283760, Control_c, 0, 64, 57
1, 283775, Control_c, 0, 64, 51
1, 283790, Control_c, 0, 64, 37
1, 283805, Control_c, 0, 64, 0
1, 283817, Note_off_c, 0, 72, 58
1, 283946, Control_c, 0, 64, 9
1, 283960, Control_c, 0, 64, 41
1, 283975, Control_c, 0, 64, 57
1, 283990, Control_c, 0, 64, 64
1, 284005, Control_c, 0, 64, 67
1, 284020, Control_c, 0, 64, 73
1, 284034, Control_c, 0, 64, 81
1, 284046, Note_off_c, 0, 41, 41
1, 284049, Control_c, 0, 64, 93
1, 284064, Control_c, 0, 64, 109
1, 284078, Control_c, 0, 64, 127
1, 284106, Note_off_c, 0, 53, 43
1, 284306, Note_on_c, 0, 72, 43
1, 284384, Note_off_c, 0, 63, 36
1, 284408, Note_off_c, 0, 69, 40
1, 284479, Control_c, 0, 64, 123
1, 284494, Control_c, 0, 64, 111
1, 284509, Control_c, 0, 64, 103
1, 284520, Note_on_c, 0, 70, 38
1, 284524, Control_c, 0, 64, 96
1, 284539, Control_c, 0, 64, 89
1, 284541, Note_on_c, 0, 58, 23
1, 284545, Note_on_c, 0, 62, 30
1, 284546, Note_on_c, 0, 46, 23
1, 284554, Control_c, 0, 64, 84
1, 284554, Note_on_c, 0, 53, 26
1, 284575, Control_c, 0, 64, 80
1, 284590, Control_c, 0, 64, 77
1, 284605, Control_c, 0, 64, 74
1, 284620, Control_c, 0, 64, 71
1, 284625, Note_off_c, 0, 72, 33
1, 284635, Control_c, 0, 64, 67
1, 284649, Control_c, 0, 64, 63
1, 284660, Note_off_c, 0, 74, 7
1, 284664, Control_c, 0, 64, 58
1, 284679, Control_c, 0, 64, 52
1, 284694, Control_c, 0, 64, 46
1, 284709, Control_c, 0, 64, 38
1, 284724, Control_c, 0, 64, 27
1, 284739, Control_c, 0, 64, 23
1, 284769, Control_c, 0, 64, 25
1, 284783, Control_c, 0, 64, 31
1, 284798, Control_c, 0, 64, 37
1, 284813, Control_c, 0, 64, 44
1, 284827, Control_c, 0, 64, 49
1, 284842, Control_c, 0, 64, 55
1, 284857, Control_c, 0, 64, 59
1, 284872, Control_c, 0, 64, 62
1, 284887, Control_c, 0, 64, 63
1, 284901, Control_c, 0, 64, 65
1, 284916, Control_c, 0, 64, 68
1, 284930, Control_c, 0, 64, 72
1, 284945, Control_c, 0, 64, 76
1, 284960, Control_c, 0, 64, 80
1, 284974, Control_c, 0, 64, 84
1, 284989, Control_c, 0, 64, 87
1, 285004, Control_c, 0, 64, 93
1, 285019, Control_c, 0, 64, 97
1, 285034, Control_c, 0, 64, 101
1, 285049, Control_c, 0, 64, 102
1, 285123, Note_off_c, 0, 62, 34
1, 285182, Control_c, 0, 64, 102
1, 285197, Control_c, 0, 64, 101
1, 285221, Note_off_c, 0, 46, 33
1, 285241, Control_c, 0, 64, 101
1, 285256, Control_c, 0, 64, 100
1, 285272, Control_c, 0, 64, 100
1, 285275, Note_off_c, 0, 58, 30
1, 285287, Control_c, 0, 64, 99
1, 285323, Control_c, 0, 64, 98
1, 285327, Note_off_c, 0, 53, 29
1, 285353, Control_c, 0, 64, 98
1, 285383, Control_c, 0, 64, 97
1, 285398, Control_c, 0, 64, 97
1, 285427, Control_c, 0, 64, 96
1, 285442, Control_c, 0, 64, 95
1, 285457, Control_c, 0, 64, 95
1, 285472, Control_c, 0, 64, 94
1, 285474, Note_off_c, 0, 70, 34
1, 285487, Control_c, 0, 64, 94
1, 285502, Control_c, 0, 64, 93
1, 285531, Control_c, 0, 64, 92
1, 285546, Control_c, 0, 64, 92
1, 285561, Control_c, 0, 64, 91
1, 285576, Control_c, 0, 64, 90
1, 285591, Control_c, 0, 64, 90
1, 285605, Control_c, 0, 64, 89
1, 285620, Control_c, 0, 64, 88
1, 285635, Control_c, 0, 64, 88
1, 285649, Control_c, 0, 64, 87
1, 285664, Control_c, 0, 64, 86
1, 285679, Control_c, 0, 64, 86
1, 285694, Control_c, 0, 64, 85
1, 285709, Control_c, 0, 64, 85
1, 285723, Control_c, 0, 64, 84
1, 285738, Control_c, 0, 64, 84
1, 285753, Control_c, 0, 64, 83
1, 285768, Control_c, 0, 64, 83
1, 285783, Control_c, 0, 64, 82
1, 285797, Control_c, 0, 64, 81
1, 285812, Control_c, 0, 64, 81
1, 285827, Control_c, 0, 64, 80
1, 285857, Control_c, 0, 64, 80
1, 285871, Control_c, 0, 64, 79
1, 285886, Control_c, 0, 64, 79
1, 285901, Control_c, 0, 64, 78
1, 285916, Control_c, 0, 64, 78
1, 285931, Control_c, 0, 64, 77
1, 285946, Control_c, 0, 64, 76
1, 285961, Control_c, 0, 64, 76
1, 285976, Control_c, 0, 64, 75
1, 285991, Control_c, 0, 64, 75
1, 286005, Control_c, 0, 64, 74
1, 286020, Control_c, 0, 64, 73
1, 286035, Control_c, 0, 64, 73
1, 286049, Control_c, 0, 64, 72
1, 286072, Control_c, 0, 64, 72
1, 286087, Control_c, 0, 64, 71
1, 286102, Control_c, 0, 64, 70
1, 286117, Control_c, 0, 64, 70
1, 286132, Control_c, 0, 64, 69
1, 286146, Control_c, 0, 64, 69
1, 286161, Control_c, 0, 64, 68
1, 286176, Control_c, 0, 64, 68
1, 286206, Control_c, 0, 64, 67
1, 286235, Control_c, 0, 64, 67
1, 286265, Control_c, 0, 64, 66
1, 286280, Control_c, 0, 64, 66
1, 286310, Control_c, 0, 64, 65
1, 286339, Control_c, 0, 64, 65
1, 286369, Control_c, 0, 64, 64
1, 286399, Control_c, 0, 64, 64
1, 286414, Control_c, 0, 64, 63
1, 286443, Control_c, 0, 64, 63
1, 286458, Control_c, 0, 64, 62
1, 286472, Control_c, 0, 64, 62
1, 286487, Control_c, 0, 64, 60
1, 286502, Control_c, 0, 64, 59
1, 286517, Control_c, 0, 64, 58
1, 286532, Control_c, 0, 64, 57
1, 286546, Control_c, 0, 64, 55
1, 286561, Control_c, 0, 64, 52
1, 286576, Control_c, 0, 64, 48
1, 286591, Control_c, 0, 64, 45
1, 286620, Control_c, 0, 64, 46
1, 286635, Control_c, 0, 64, 48
1, 286650, Control_c, 0, 64, 51
1, 286664, Control_c, 0, 64, 55
1, 286679, Control_c, 0, 64, 58
1, 286694, Control_c, 0, 64, 60
1, 286709, Control_c, 0, 64, 63
1, 286724, Control_c, 0, 64, 66
1, 286739, Control_c, 0, 64, 69
1, 286754, Control_c, 0, 64, 76
1, 286769, Control_c, 0, 64, 85
1, 286784, Control_c, 0, 64, 95
1, 286798, Control_c, 0, 64, 113
1, 286813, Control_c, 0, 64, 127
1, 287123, Note_on_c, 0, 84, 83
1, 287138, Note_on_c, 0, 81, 56
1, 287143, Note_on_c, 0, 65, 36
1, 287147, Note_on_c, 0, 75, 55
1, 287149, Note_on_c, 0, 53, 41
1, 287156, Note_on_c, 0, 60, 40
1, 287176, Note_on_c, 0, 63, 45
1, 289499, Note_on_c, 0, 83, 44
1, 289630, Note_off_c, 0, 84, 58
1, 289823, Note_on_c, 0, 84, 67
1, 289899, Note_off_c, 0, 83, 62
1, 290051, Note_on_c, 0, 83, 72
1, 290095, Note_off_c, 0, 84, 60
1, 290286, Note_on_c, 0, 84, 72
1, 290334, Note_off_c, 0, 83, 59
1, 290557, Control_c, 0, 64, 113
1, 290579, Control_c, 0, 64, 104
1, 290593, Control_c, 0, 64, 98
1, 290608, Control_c, 0, 64, 94
1, 290623, Control_c, 0, 64, 89
1, 290638, Control_c, 0, 64, 85
1, 290653, Control_c, 0, 64, 81
1, 290668, Control_c, 0, 64, 78
1, 290674, Note_on_c, 0, 87, 50
1, 290683, Control_c, 0, 64, 74
1, 290698, Control_c, 0, 64, 70
1, 290712, Control_c, 0, 64, 65
1, 290725, Note_off_c, 0, 84, 56
1, 290727, Control_c, 0, 64, 60
1, 290742, Control_c, 0, 64, 50
1, 290757, Control_c, 0, 64, 34
1, 290772, Control_c, 0, 64, 23
1, 290787, Control_c, 0, 64, 24
1, 290801, Control_c, 0, 64, 27
1, 290816, Control_c, 0, 64, 33
1, 290831, Control_c, 0, 64, 42
1, 290845, Control_c, 0, 64, 54
1, 290861, Control_c, 0, 64, 62
1, 290869, Note_off_c, 0, 81, 56
1, 290876, Control_c, 0, 64, 67
1, 290883, Note_off_c, 0, 75, 55
1, 290891, Control_c, 0, 64, 72
1, 290906, Control_c, 0, 64, 79
1, 290921, Control_c, 0, 64, 92
1, 290936, Control_c, 0, 64, 119
1, 290951, Control_c, 0, 64, 127
1, 290996, Note_off_c, 0, 60, 35
1, 291047, Note_off_c, 0, 63, 39
1, 291128, Note_off_c, 0, 53, 28
1, 291255, Note_off_c, 0, 87, 40
1, 291337, Note_on_c, 0, 81, 41
1, 291519, Note_off_c, 0, 81, 42
1, 291557, Note_on_c, 0, 58, 27
1, 291559, Note_on_c, 0, 82, 42
1, 291563, Note_on_c, 0, 62, 34
1, 291565, Control_c, 0, 64, 113
1, 291571, Note_on_c, 0, 74, 36
1, 291580, Control_c, 0, 64, 104
1, 291595, Control_c, 0, 64, 96
1, 291610, Control_c, 0, 64, 89
1, 291625, Control_c, 0, 64, 84
1, 291640, Control_c, 0, 64, 80
1, 291654, Control_c, 0, 64, 76
1, 291669, Control_c, 0, 64, 72
1, 291684, Control_c, 0, 64, 67
1, 291699, Control_c, 0, 64, 62
1, 291714, Control_c, 0, 64, 53
1, 291729, Control_c, 0, 64, 41
1, 291744, Control_c, 0, 64, 23
1, 291759, Control_c, 0, 64, 0
1, 291803, Control_c, 0, 64, 23
1, 291818, Control_c, 0, 64, 34
1, 291832, Control_c, 0, 64, 43
1, 291847, Control_c, 0, 64, 51
1, 291862, Control_c, 0, 64, 59
1, 291877, Control_c, 0, 64, 63
1, 291891, Control_c, 0, 64, 66
1, 291906, Control_c, 0, 64, 69
1, 291921, Control_c, 0, 64, 74
1, 291936, Control_c, 0, 64, 82
1, 291951, Control_c, 0, 64, 93
1, 291965, Control_c, 0, 64, 105
1, 291980, Control_c, 0, 64, 127
1, 292081, Note_off_c, 0, 74, 30
1, 292186, Note_off_c, 0, 62, 30
1, 292218, Note_off_c, 0, 58, 28
1, 292231, Note_off_c, 0, 82, 31
1, 292298, Control_c, 0, 64, 121
1, 292313, Control_c, 0, 64, 114
1, 292322, Note_off_c, 0, 65, 32
1, 292328, Control_c, 0, 64, 111
1, 292343, Control_c, 0, 64, 109
1, 292358, Control_c, 0, 64, 107
1, 292373, Control_c, 0, 64, 106
1, 292388, Control_c, 0, 64, 103
1, 292403, Control_c, 0, 64, 100
1, 292418, Control_c, 0, 64, 98
1, 292432, Control_c, 0, 64, 95
1, 292447, Control_c, 0, 64, 94
1, 292462, Control_c, 0, 64, 92
1, 292477, Control_c, 0, 64, 91
1, 292492, Control_c, 0, 64, 89
1, 292507, Control_c, 0, 64, 87
1, 292522, Control_c, 0, 64, 85
1, 292537, Control_c, 0, 64, 82
1, 292552, Control_c, 0, 64, 81
1, 292567, Control_c, 0, 64, 79
1, 292581, Control_c, 0, 64, 77
1, 292596, Control_c, 0, 64, 76
1, 292611, Control_c, 0, 64, 75
1, 292626, Control_c, 0, 64, 73
1, 292641, Control_c, 0, 64, 72
1, 292655, Control_c, 0, 64, 71
1, 292670, Control_c, 0, 64, 70
1, 292685, Control_c, 0, 64, 69
1, 292700, Control_c, 0, 64, 68
1, 292714, Control_c, 0, 64, 67
1, 292729, Control_c, 0, 64, 67
1, 292744, Control_c, 0, 64, 66
1, 292759, Control_c, 0, 64, 65
1, 292788, Control_c, 0, 64, 65
1, 292826, Control_c, 0, 64, 64
1, 292841, Control_c, 0, 64, 64
1, 292870, Control_c, 0, 64, 63
1, 292885, Control_c, 0, 67, 9
1, 292900, Control_c, 0, 64, 63
1, 292900, Control_c, 0, 67, 21
1, 292914, Control_c, 0, 64, 62
1, 292914, Control_c, 0, 67, 32
1, 292929, Control_c, 0, 64, 62
1, 292929, Control_c, 0, 67, 45
1, 292944, Control_c, 0, 67, 55
1, 292959, Control_c, 0, 64, 61
1, 292959, Control_c, 0, 67, 66
1, 292974, Control_c, 0, 64, 61
1, 292974, Control_c, 0, 67, 77
1, 292988, Control_c, 0, 67, 87
1, 293003, Control_c, 0, 64, 60
1, 293003, Control_c, 0, 67, 96
1, 293018, Control_c, 0, 67, 108
1, 293033, Control_c, 0, 64, 60
1, 293033, Control_c, 0, 67, 118
1, 293048, Control_c, 0, 67, 127
1, 293062, Control_c, 0, 64, 59
1, 293077, Control_c, 0, 64, 59
1, 293092, Control_c, 0, 64, 58
1, 293121, Control_c, 0, 64, 58
1, 293151, Control_c, 0, 64, 57
1, 293166, Control_c, 0, 64, 56
1, 293181, Control_c, 0, 64, 56
1, 293196, Control_c, 0, 64, 55
1, 293210, Control_c, 0, 64, 54
1, 293225, Control_c, 0, 64, 53
1, 293240, Control_c, 0, 64, 52
1, 293285, Control_c, 0, 64, 52
1, 293300, Control_c, 0, 64, 53
1, 293315, Control_c, 0, 64, 54
1, 293330, Control_c, 0, 64, 56
1, 293345, Control_c, 0, 64, 57
1, 293359, Control_c, 0, 64, 58
1, 293374, Control_c, 0, 64, 59
1, 293389, Control_c, 0, 64, 60
1, 293404, Control_c, 0, 64, 62
1, 293419, Control_c, 0, 64, 63
1, 293434, Control_c, 0, 64, 64
1, 293449, Control_c, 0, 64, 66
1, 293464, Control_c, 0, 64, 68
1, 293479, Control_c, 0, 64, 71
1, 293493, Control_c, 0, 64, 74
1, 293508, Control_c, 0, 64, 79
1, 293523, Control_c, 0, 64, 85
1, 293537, Control_c, 0, 64, 92
1, 293559, Control_c, 0, 64, 104
1, 293574, Control_c, 0, 64, 127
1, 293800, Note_on_c, 0, 74, 53
1, 293818, Note_on_c, 0, 58, 21
1, 293827, Note_on_c, 0, 53, 26
1, 293830, Note_on_c, 0, 46, 28
1, 293830, Note_on_c, 0, 70, 39
1, 293831, Note_on_c, 0, 65, 26
1, 293832, Note_on_c, 0, 62, 36
1, 294458, Note_off_c, 0, 65, 35
1, 294501, Control_c, 0, 64, 123
1, 294515, Note_off_c, 0, 62, 30
1, 294516, Control_c, 0, 64, 115
1, 294531, Control_c, 0, 64, 110
1, 294546, Control_c, 0, 64, 107
1, 294560, Control_c, 0, 64, 104
1, 294569, Note_off_c, 0, 74, 30
1, 294575, Control_c, 0, 64, 102
1, 294590, Control_c, 0, 64, 99
1, 294591, Note_off_c, 0, 58, 27
1, 294594, Note_off_c, 0, 53, 32
1, 294605, Control_c, 0, 64, 96
1, 294614, Note_off_c, 0, 46, 29
1, 294620, Control_c, 0, 64, 94
1, 294629, Note_off_c, 0, 70, 30
1, 294634, Control_c, 0, 64, 91
1, 294649, Control_c, 0, 64, 89
1, 294665, Control_c, 0, 64, 87
1, 294680, Control_c, 0, 64, 86
1, 294694, Control_c, 0, 64, 84
1, 294709, Control_c, 0, 64, 83
1, 294724, Control_c, 0, 64, 81
1, 294739, Control_c, 0, 64, 80
1, 294753, Control_c, 0, 64, 80
1, 294768, Control_c, 0, 64, 78
1, 294783, Control_c, 0, 64, 77
1, 294798, Control_c, 0, 64, 76
1, 294813, Control_c, 0, 64, 75
1, 294827, Control_c, 0, 64, 74
1, 294842, Control_c, 0, 64, 73
1, 294858, Control_c, 0, 64, 73
1, 294873, Control_c, 0, 64, 72
1, 294888, Control_c, 0, 64, 71
1, 294903, Control_c, 0, 64, 70
1, 294918, Control_c, 0, 64, 69
1, 294932, Control_c, 0, 64, 69
1, 294947, Control_c, 0, 64, 68
1, 294962, Control_c, 0, 64, 68
1, 294976, Control_c, 0, 64, 67
1, 294991, Control_c, 0, 64, 66
1, 295006, Control_c, 0, 64, 66
1, 295021, Control_c, 0, 64, 65
1, 295036, Control_c, 0, 64, 65
1, 295058, Control_c, 0, 64, 64
1, 295073, Control_c, 0, 64, 64
1, 295088, Control_c, 0, 64, 63
1, 295103, Control_c, 0, 64, 63
1, 295132, Control_c, 0, 64, 62
1, 295147, Control_c, 0, 64, 62
1, 295162, Control_c, 0, 64, 61
1, 295177, Control_c, 0, 64, 60
1, 295206, Control_c, 0, 64, 60
1, 295221, Control_c, 0, 64, 59
1, 295236, Control_c, 0, 64, 59
1, 295251, Control_c, 0, 64, 58
1, 295265, Control_c, 0, 64, 58
1, 295295, Control_c, 0, 64, 57
1, 295309, Control_c, 0, 64, 57
1, 295324, Control_c, 0, 64, 56
1, 295354, Control_c, 0, 64, 56
1, 295398, Control_c, 0, 64, 55
1, 295413, Control_c, 0, 64, 55
1, 295443, Control_c, 0, 64, 54
1, 295457, Control_c, 0, 64, 54
1, 295576, Control_c, 0, 64, 54
1, 295590, Control_c, 0, 64, 55
1, 295605, Control_c, 0, 64, 56
1, 295620, Control_c, 0, 64, 56
1, 295635, Control_c, 0, 64, 57
1, 295651, Control_c, 0, 64, 58
1, 295666, Control_c, 0, 64, 59
1, 295680, Control_c, 0, 64, 60
1, 295695, Control_c, 0, 64, 61
1, 295710, Control_c, 0, 64, 62
1, 295724, Control_c, 0, 64, 63
1, 295739, Control_c, 0, 64, 64
1, 295754, Control_c, 0, 64, 65
1, 295769, Control_c, 0, 64, 66
1, 295784, Control_c, 0, 64, 68
1, 295806, Control_c, 0, 64, 69
1, 295821, Control_c, 0, 64, 72
1, 295836, Control_c, 0, 64, 75
1, 295851, Control_c, 0, 64, 78
1, 295866, Control_c, 0, 64, 81
1, 295880, Control_c, 0, 64, 84
1, 295895, Control_c, 0, 64, 88
1, 295910, Control_c, 0, 64, 93
1, 295925, Control_c, 0, 64, 101
1, 295939, Control_c, 0, 64, 127
1, 296318, Note_on_c, 0, 70, 36
1, 296347, Note_on_c, 0, 58, 16
1, 296359, Note_on_c, 0, 65, 15
1, 296361, Note_on_c, 0, 53, 19
1, 296364, Note_on_c, 0, 46, 20
1, 296369, Note_on_c, 0, 62, 12
1, 299086, Note_off_c, 0, 46, 23
1, 299139, Note_off_c, 0, 65, 24
1, 299174, Note_off_c, 0, 53, 26
1, 299329, Note_off_c, 0, 62, 24
1, 299363, Control_c, 0, 64, 123
1, 299378, Control_c, 0, 64, 119
1, 299393, Control_c, 0, 64, 117
1, 299408, Control_c, 0, 64, 115
1, 299423, Control_c, 0, 64, 113
1, 299438, Control_c, 0, 64, 111
1, 299452, Control_c, 0, 64, 110
1, 299467, Control_c, 0, 64, 109
1, 299482, Control_c, 0, 64, 107
1, 299497, Control_c, 0, 64, 106
1, 299512, Control_c, 0, 64, 104
1, 299527, Control_c, 0, 64, 104
1, 299548, Control_c, 0, 64, 103
1, 299563, Control_c, 0, 64, 102
1, 299578, Control_c, 0, 64, 101
1, 299593, Control_c, 0, 64, 100
1, 299608, Control_c, 0, 64, 98
1, 299622, Control_c, 0, 64, 97
1, 299637, Control_c, 0, 64, 96
1, 299653, Control_c, 0, 64, 96
1, 299668, Control_c, 0, 64, 95
1, 299682, Note_off_c, 0, 58, 23
1, 299683, Control_c, 0, 64, 95
1, 299698, Control_c, 0, 64, 94
1, 299713, Control_c, 0, 64, 93
1, 299727, Control_c, 0, 64, 93
1, 299742, Control_c, 0, 64, 92
1, 299757, Control_c, 0, 64, 92
1, 299772, Control_c, 0, 64, 91
1, 299786, Control_c, 0, 64, 90
1, 299801, Control_c, 0, 64, 90
1, 299816, Control_c, 0, 64, 89
1, 299831, Control_c, 0, 64, 88
1, 299846, Control_c, 0, 64, 88
1, 299861, Control_c, 0, 64, 87
1, 299891, Control_c, 0, 64, 86
1, 299906, Control_c, 0, 64, 86
1, 299935, Control_c, 0, 64, 85
1, 299950, Control_c, 0, 64, 85
1, 299962, Note_off_c, 0, 70, 27
1, 299965, Control_c, 0, 64, 84
1, 299979, Control_c, 0, 64, 84
1, 300009, Control_c, 0, 64, 83
1, 300024, Control_c, 0, 64, 83
1, 300039, Control_c, 0, 64, 82
1, 300053, Control_c, 0, 64, 82
1, 300068, Control_c, 0, 64, 81
1, 300083, Control_c, 0, 64, 81
1, 300113, Control_c, 0, 64, 80
1, 300127, Control_c, 0, 64, 80
1, 300157, Control_c, 0, 64, 79
1, 300171, Control_c, 0, 64, 79
1, 300186, Control_c, 0, 64, 78
1, 300216, Control_c, 0, 64, 78
1, 300231, Control_c, 0, 64, 77
1, 300245, Control_c, 0, 64, 77
1, 300275, Control_c, 0, 64, 76
1, 300312, Control_c, 0, 64, 76
1, 300327, Control_c, 0, 64, 75
1, 300357, Control_c, 0, 64, 75
1, 300386, Control_c, 0, 64, 74
1, 300401, Control_c, 0, 64, 74
1, 300447, Control_c, 0, 64, 73
1, 300491, Control_c, 0, 64, 73
1, 300506, Control_c, 0, 64, 72
1, 300550, Control_c, 0, 64, 72
1, 300580, Control_c, 0, 64, 71
1, 300609, Control_c, 0, 64, 71
1, 300639, Control_c, 0, 64, 70
1, 300698, Control_c, 0, 64, 70
1, 300728, Control_c, 0, 64, 69
1, 300758, Control_c, 0, 64, 69
1, 300802, Control_c, 0, 64, 68
1, 300862, Control_c, 0, 64, 68
1, 300920, Control_c, 0, 64, 67
1, 301009, Control_c, 0, 64, 67
1, 301106, Control_c, 0, 64, 66
1, 301180, Control_c, 0, 64, 66
1, 301239, Control_c, 0, 64, 65
1, 301285, Control_c, 0, 64, 65
1, 301344, Control_c, 0, 64, 64
1, 301388, Control_c, 0, 64, 64
1, 301432, Control_c, 0, 64, 63
1, 301477, Control_c, 0, 64, 63
1, 301506, Control_c, 0, 64, 62
1, 301521, Control_c, 0, 64, 62
1, 301566, Control_c, 0, 64, 61
1, 301581, Control_c, 0, 64, 61
1, 301611, Control_c, 0, 64, 60
1, 301640, Control_c, 0, 64, 60
1, 301670, Control_c, 0, 64, 59
1, 301699, Control_c, 0, 64, 59
1, 301743, Control_c, 0, 64, 58
1, 301773, Control_c, 0, 64, 58
1, 301825, Control_c, 0, 64, 57
1, 301870, Control_c, 0, 64, 57
1, 301899, Control_c, 0, 64, 56
1, 301929, Control_c, 0, 64, 56
1, 301958, Control_c, 0, 64, 55
1, 301988, Control_c, 0, 64, 55
1, 302003, Control_c, 0, 64, 54
1, 302018, Control_c, 0, 64, 54
1, 302048, Control_c, 0, 64, 53
1, 302063, Control_c, 0, 64, 52
1, 302093, Control_c, 0, 64, 52
1, 302108, Control_c, 0, 64, 51
1, 302122, Control_c, 0, 64, 51
1, 302137, Control_c, 0, 64, 50
1, 302152, Control_c, 0, 64, 49
1, 302166, Control_c, 0, 64, 49
1, 302211, Control_c, 0, 64, 48
1, 302708, Control_c, 0, 64, 49
1, 302737, Control_c, 0, 67, 127
1, 302767, Control_c, 0, 67, 126
1, 302796, Control_c, 0, 67, 125
1, 302841, Control_c, 0, 67, 125
1, 302886, Control_c, 0, 67, 124
1, 302916, Control_c, 0, 64, 49
1, 302931, Control_c, 0, 67, 124
1, 302975, Control_c, 0, 67, 123
1, 303019, Control_c, 0, 67, 122
1, 303078, Control_c, 0, 67, 122
1, 303123, Control_c, 0, 67, 119
1, 303137, Control_c, 0, 67, 107
1, 303152, Control_c, 0, 67, 92
1, 303167, Control_c, 0, 67, 82
1, 303182, Control_c, 0, 67, 75
1, 303196, Control_c, 0, 67, 70
1, 303211, Control_c, 0, 67, 67
1, 303226, Control_c, 0, 67, 65
1, 303241, Control_c, 0, 67, 63
1, 303256, Control_c, 0, 67, 60
1, 303271, Control_c, 0, 67, 58
1, 303293, Control_c, 0, 67, 55
1, 303308, Control_c, 0, 67, 53
1, 303323, Control_c, 0, 67, 51
1, 303338, Control_c, 0, 67, 49
1, 303352, Control_c, 0, 67, 46
1, 303367, Control_c, 0, 67, 43
1, 303382, Control_c, 0, 67, 40
1, 303396, Control_c, 0, 67, 38
1, 303411, Control_c, 0, 67, 35
1, 303426, Control_c, 0, 67, 32
1, 303441, Control_c, 0, 67, 29
1, 303456, Control_c, 0, 67, 27
1, 303471, Control_c, 0, 67, 24
1, 303486, Control_c, 0, 67, 23
1, 303501, Control_c, 0, 67, 21
1, 303515, Control_c, 0, 67, 19
1, 303530, Control_c, 0, 67, 19
1, 303545, Control_c, 0, 67, 18
1, 303560, Control_c, 0, 67, 17
1, 303575, Control_c, 0, 67, 16
1, 303590, Control_c, 0, 67, 16
1, 303604, Control_c, 0, 67, 14
1, 303619, Control_c, 0, 67, 13
1, 303634, Control_c, 0, 67, 9
1, 303650, Control_c, 0, 67, 0
1, 303725, End_track
0, 0, End_of_file
