0, 0, Header, 0, 1, 384
1, 0, Start_track
1, 0, Title_t, "LisztLeJeux--Kim                "
1, 0, Text_t, "2011 ePiano Junior Competition"
1, 0, Text_t, "captured in spring and summer 2011"
1, 0, Text_t, "http://www.piano-e-competition.com/"
1, 0, Text_t, "standard-resolution version"
1, 0, Text_t, "File processed for distribution with software designed and coded by Dr. John Q. Walker, founder of Zenph Sound Innovations"
1, 0, Instrument_name_t, "Yamaha Disklavier Pro Mark IV concert grand piano, model DCFIIISM4PRO"
1, 0, Sequencer_specific, 39, 67, 113, 0, 1, 0, 1, 0, 76, 105, 115, 122, 116, 32, 76, 101, 32, 74, 101, 117, 120, 32, 32, 32, 83, 117, 89, 101, 111, 110, 32, 75, 105, 109, 32, 32, 32, 32, 32, 32
1, 0, Sequencer_specific, 6, 67, 113, 0, 0, 0, 69
1, 0, System_exclusive, 21, 67, 113, 126, 21, 0, 2, 2, 2, 5, 12, 8, 4, 14, 1, 3, 9, 0, 14, 7, 5, 247
1, 0, Sequencer_specific, 5, 67, 123, 12, 2, 1
1, 0, Tempo, 512820
1, 0, Time_signature, 4, 2, 24, 8
1, 0, System_exclusive, 5, 126, 127, 9, 1, 247
1, 1, System_exclusive, 8, 67, 16, 76, 0, 0, 126, 0, 247
1, 2, System_exclusive, 8, 67, 16, 76, 8, 9, 7, 1, 247
1, 3, Control_c, 0, 0, 108
1, 3, Control_c, 1, 0, 108
1, 3, Control_c, 2, 0, 0
1, 3, Control_c, 3, 0, 0
1, 3, Control_c, 4, 0, 0
1, 3, Control_c, 5, 0, 0
1, 3, Control_c, 6, 0, 0
1, 3, Control_c, 7, 0, 0
1, 3, Control_c, 8, 0, 0
1, 3, Control_c, 9, 0, 127
1, 3, Control_c, 10, 0, 0
1, 3, Control_c, 11, 0, 0
1, 3, Control_c, 12, 0, 0
1, 3, Control_c, 13, 0, 0
1, 3, Control_c, 14, 0, 0
1, 3, Control_c, 15, 0, 0
1, 4, Control_c, 0, 32, 0
1, 4, Control_c, 1, 32, 0
1, 4, Control_c, 2, 32, 0
1, 4, Control_c, 3, 32, 0
1, 4, Control_c, 4, 32, 0
1, 4, Control_c, 5, 32, 0
1, 4, Control_c, 6, 32, 0
1, 4, Control_c, 7, 32, 0
1, 4, Control_c, 8, 32, 0
1, 4, Control_c, 9, 32, 0
1, 4, Control_c, 10, 32, 0
1, 4, Control_c, 11, 32, 0
1, 4, Control_c, 12, 32, 0
1, 4, Control_c, 13, 32, 0
1, 4, Control_c, 14, 32, 0
1, 4, Control_c, 15, 32, 0
1, 5, Program_c, 0, 0
1, 5, Program_c, 1, 0
1, 5, Program_c, 2, 0
1, 5, Program_c, 3, 0
1, 5, Program_c, 4, 0
1, 5, Program_c, 5, 0
1, 5, Program_c, 6, 0
1, 5, Program_c, 7, 0
1, 5, Program_c, 8, 0
1, 5, Program_c, 9, 0
1, 5, Program_c, 10, 0
1, 5, Program_c, 11, 0
1, 5, Program_c, 12, 0
1, 5, Program_c, 13, 0
1, 5, Program_c, 14, 0
1, 5, Program_c, 15, 0
1, 6, Control_c, 0, 7, 100
1, 6, Control_c, 1, 7, 100
1, 6, Control_c, 2, 7, 100
1, 6, Control_c, 3, 7, 100
1, 6, Control_c, 4, 7, 100
1, 6, Control_c, 5, 7, 100
1, 6, Control_c, 6, 7, 100
1, 6, Control_c, 7, 7, 100
1, 6, Control_c, 8, 7, 100
1, 6, Control_c, 9, 7, 100
1, 6, Control_c, 10, 7, 100
1, 6, Control_c, 11, 7, 100
1, 6, Control_c, 12, 7, 100
1, 6, Control_c, 13, 7, 100
1, 6, Control_c, 14, 7, 100
1, 6, Control_c, 15, 7, 100
1, 42, Control_c, 0, 64, 15
1, 42, Control_c, 0, 67, 15
1, 79, Control_c, 0, 64, 31
1, 79, Control_c, 0, 67, 31
1, 116, Control_c, 0, 64, 46
1, 116, Control_c, 0, 67, 46
1, 153, Control_c, 0, 64, 63
1, 153, Control_c, 0, 67, 63
1, 190, Control_c, 0, 64, 77
1, 190, Control_c, 0, 67, 77
1, 226, Control_c, 0, 64, 94
1, 226, Control_c, 0, 67, 94
1, 263, Control_c, 0, 64, 108
1, 263, Control_c, 0, 67, 108
1, 300, Control_c, 0, 64, 127
1, 300, Control_c, 0, 67, 127
1, 387, Note_on_c, 0, 61, 27
1, 596, Note_off_c, 0, 61, 36
1, 646, Note_on_c, 0, 65, 19
1, 756, Note_on_c, 0, 68, 23
1, 759, Note_off_c, 0, 65, 27
1, 832, Note_on_c, 0, 71, 29
1, 901, Note_on_c, 0, 73, 38
1, 919, Note_off_c, 0, 71, 36
1, 928, Note_off_c, 0, 68, 21
1, 970, Note_off_c, 0, 73, 56
1, 982, Note_on_c, 0, 77, 48
1, 1026, Note_off_c, 0, 77, 62
1, 1044, Note_on_c, 0, 80, 53
1, 1097, Note_off_c, 0, 80, 57
1, 1101, Note_on_c, 0, 83, 53
1, 1163, Note_off_c, 0, 83, 57
1, 1169, Note_on_c, 0, 61, 26
1, 1171, Note_on_c, 0, 87, 58
1, 1241, Note_off_c, 0, 87, 56
1, 1243, Note_off_c, 0, 61, 41
1, 1250, Note_on_c, 0, 65, 25
1, 1303, Note_on_c, 0, 68, 27
1, 1321, Note_off_c, 0, 65, 41
1, 1343, Note_on_c, 0, 71, 39
1, 1398, Note_off_c, 0, 71, 46
1, 1406, Note_off_c, 0, 68, 29
1, 1411, Note_on_c, 0, 73, 48
1, 1446, Note_off_c, 0, 73, 64
1, 1460, Note_on_c, 0, 77, 54
1, 1504, Note_off_c, 0, 77, 59
1, 1520, Note_on_c, 0, 80, 55
1, 1560, Note_on_c, 0, 83, 58
1, 1566, Note_off_c, 0, 80, 56
1, 1593, Note_on_c, 0, 61, 29
1, 1608, Note_off_c, 0, 83, 60
1, 1617, Note_on_c, 0, 87, 58
1, 1656, Note_off_c, 0, 61, 51
1, 1667, Note_on_c, 0, 65, 35
1, 1678, Note_off_c, 0, 87, 51
1, 1722, Note_off_c, 0, 65, 54
1, 1724, Note_on_c, 0, 68, 32
1, 1749, Note_on_c, 0, 71, 44
1, 1783, Note_off_c, 0, 68, 43
1, 1801, Note_off_c, 0, 71, 56
1, 1819, Note_on_c, 0, 73, 54
1, 1864, Note_off_c, 0, 73, 61
1, 1873, Note_on_c, 0, 77, 57
1, 1914, Note_off_c, 0, 77, 61
1, 1925, Note_on_c, 0, 80, 58
1, 1976, Control_c, 0, 64, 110
1, 1980, Note_on_c, 0, 83, 51
1, 1990, Control_c, 0, 64, 95
1, 1998, Note_off_c, 0, 80, 58
1, 2005, Control_c, 0, 64, 81
1, 2010, Note_on_c, 0, 61, 34
1, 2020, Control_c, 0, 64, 67
1, 2036, Control_c, 0, 64, 54
1, 2051, Control_c, 0, 64, 36
1, 2054, Note_off_c, 0, 83, 62
1, 2066, Control_c, 0, 64, 38
1, 2069, Note_on_c, 0, 87, 50
1, 2080, Control_c, 0, 64, 41
1, 2095, Control_c, 0, 64, 48
1, 2110, Control_c, 0, 64, 58
1, 2124, Control_c, 0, 64, 65
1, 2126, Note_on_c, 0, 66, 30
1, 2139, Control_c, 0, 64, 72
1, 2154, Control_c, 0, 64, 86
1, 2169, Control_c, 0, 64, 116
1, 2180, Note_on_c, 0, 70, 51
1, 2184, Control_c, 0, 64, 127
1, 2185, Note_off_c, 0, 61, 30
1, 2225, Note_off_c, 0, 87, 34
1, 2242, Note_on_c, 0, 73, 45
1, 2260, Note_off_c, 0, 66, 35
1, 2301, Note_off_c, 0, 73, 54
1, 2302, Note_on_c, 0, 75, 50
1, 2335, Note_off_c, 0, 70, 32
1, 2341, Note_on_c, 0, 78, 62
1, 2341, Note_off_c, 0, 75, 59
1, 2391, Note_off_c, 0, 78, 61
1, 2411, Note_on_c, 0, 82, 59
1, 2443, Note_on_c, 0, 85, 61
1, 2446, Note_off_c, 0, 82, 66
1, 2486, Note_off_c, 0, 85, 64
1, 2492, Note_on_c, 0, 61, 32
1, 2499, Note_on_c, 0, 89, 68
1, 2545, Note_off_c, 0, 61, 50
1, 2559, Note_off_c, 0, 89, 62
1, 2564, Note_on_c, 0, 66, 45
1, 2618, Note_on_c, 0, 70, 47
1, 2623, Note_off_c, 0, 66, 56
1, 2663, Note_off_c, 0, 70, 59
1, 2666, Note_on_c, 0, 73, 53
1, 2711, Note_off_c, 0, 73, 58
1, 2724, Note_on_c, 0, 75, 58
1, 2758, Note_off_c, 0, 75, 63
1, 2770, Note_on_c, 0, 78, 65
1, 2803, Note_off_c, 0, 78, 66
1, 2829, Note_on_c, 0, 82, 62
1, 2860, Note_on_c, 0, 85, 64
1, 2864, Note_off_c, 0, 82, 64
1, 2891, Note_off_c, 0, 85, 68
1, 2906, Note_on_c, 0, 89, 69
1, 2907, Note_on_c, 0, 61, 33
1, 2943, Note_off_c, 0, 61, 55
1, 2963, Note_off_c, 0, 89, 63
1, 2982, Note_on_c, 0, 66, 40
1, 3021, Note_on_c, 0, 70, 47
1, 3026, Note_off_c, 0, 66, 57
1, 3060, Note_off_c, 0, 70, 62
1, 3062, Note_on_c, 0, 73, 60
1, 3104, Note_off_c, 0, 73, 55
1, 3115, Note_on_c, 0, 75, 60
1, 3153, Note_off_c, 0, 75, 57
1, 3166, Note_on_c, 0, 78, 64
1, 3214, Note_off_c, 0, 78, 62
1, 3220, Note_on_c, 0, 82, 66
1, 3248, Note_on_c, 0, 85, 68
1, 3277, Note_off_c, 0, 82, 62
1, 3302, Note_on_c, 0, 89, 72
1, 3322, Note_on_c, 0, 61, 38
1, 3324, Note_off_c, 0, 85, 61
1, 3378, Note_off_c, 0, 89, 61
1, 3381, Note_off_c, 0, 61, 53
1, 3394, Note_on_c, 0, 66, 44
1, 3432, Note_on_c, 0, 70, 50
1, 3445, Note_off_c, 0, 66, 57
1, 3474, Note_on_c, 0, 73, 58
1, 3475, Note_off_c, 0, 70, 60
1, 3517, Note_on_c, 0, 75, 64
1, 3519, Note_off_c, 0, 73, 57
1, 3552, Note_off_c, 0, 75, 58
1, 3563, Note_on_c, 0, 78, 70
1, 3620, Note_on_c, 0, 82, 65
1, 3627, Note_off_c, 0, 78, 63
1, 3646, Note_on_c, 0, 85, 67
1, 3688, Note_off_c, 0, 82, 62
1, 3697, Control_c, 0, 64, 91
1, 3712, Note_on_c, 0, 89, 71
1, 3712, Control_c, 0, 64, 70
1, 3721, Note_on_c, 0, 61, 44
1, 3724, Note_off_c, 0, 85, 60
1, 3726, Control_c, 0, 64, 53
1, 3741, Control_c, 0, 64, 0
1, 3771, Control_c, 0, 64, 33
1, 3785, Control_c, 0, 64, 59
1, 3793, Note_on_c, 0, 68, 56
1, 3800, Control_c, 0, 64, 71
1, 3813, Note_off_c, 0, 61, 58
1, 3815, Control_c, 0, 64, 92
1, 3830, Control_c, 0, 64, 127
1, 3832, Note_off_c, 0, 89, 55
1, 3862, Note_on_c, 0, 71, 56
1, 3895, Note_on_c, 0, 75, 64
1, 3904, Note_off_c, 0, 68, 56
1, 3936, Note_on_c, 0, 77, 65
1, 3942, Note_off_c, 0, 75, 53
1, 3945, Note_off_c, 0, 71, 53
1, 3987, Note_on_c, 0, 80, 72
1, 4010, Note_off_c, 0, 77, 58
1, 4046, Note_on_c, 0, 83, 72
1, 4060, Note_off_c, 0, 80, 62
1, 4079, Note_on_c, 0, 87, 73
1, 4109, Note_off_c, 0, 83, 63
1, 4134, Note_on_c, 0, 90, 79
1, 4138, Note_off_c, 0, 87, 65
1, 4140, Note_on_c, 0, 61, 41
1, 4180, Note_off_c, 0, 61, 59
1, 4186, Note_on_c, 0, 68, 47
1, 4210, Note_off_c, 0, 90, 64
1, 4253, Note_on_c, 0, 71, 54
1, 4281, Note_on_c, 0, 75, 57
1, 4281, Note_off_c, 0, 68, 49
1, 4304, Note_off_c, 0, 71, 53
1, 4328, Note_off_c, 0, 75, 55
1, 4339, Note_on_c, 0, 77, 65
1, 4385, Note_on_c, 0, 80, 65
1, 4426, Note_off_c, 0, 77, 56
1, 4451, Note_on_c, 0, 83, 68
1, 4467, Note_off_c, 0, 80, 62
1, 4478, Note_on_c, 0, 87, 67
1, 4528, Note_off_c, 0, 83, 61
1, 4543, Note_on_c, 0, 61, 36
1, 4547, Note_on_c, 0, 90, 70
1, 4549, Note_off_c, 0, 87, 64
1, 4580, Note_off_c, 0, 61, 51
1, 4594, Note_on_c, 0, 68, 40
1, 4631, Note_off_c, 0, 90, 64
1, 4669, Note_on_c, 0, 71, 47
1, 4705, Note_on_c, 0, 75, 48
1, 4721, Note_off_c, 0, 71, 56
1, 4724, Note_off_c, 0, 68, 35
1, 4746, Note_off_c, 0, 75, 56
1, 4761, Note_on_c, 0, 77, 58
1, 4807, Note_on_c, 0, 80, 60
1, 4852, Note_off_c, 0, 77, 57
1, 4887, Note_on_c, 0, 83, 56
1, 4893, Note_off_c, 0, 80, 60
1, 4926, Note_on_c, 0, 87, 57
1, 4967, Note_off_c, 0, 83, 58
1, 4979, Note_on_c, 0, 61, 39
1, 5003, Note_on_c, 0, 90, 56
1, 5030, Note_off_c, 0, 87, 56
1, 5038, Note_off_c, 0, 61, 54
1, 5048, Note_on_c, 0, 68, 43
1, 5112, Note_off_c, 0, 90, 47
1, 5115, Note_on_c, 0, 71, 47
1, 5171, Note_on_c, 0, 75, 50
1, 5187, Note_off_c, 0, 71, 48
1, 5190, Note_off_c, 0, 68, 34
1, 5215, Note_off_c, 0, 75, 59
1, 5247, Note_on_c, 0, 77, 52
1, 5295, Note_on_c, 0, 80, 56
1, 5304, Note_off_c, 0, 77, 53
1, 5369, Note_off_c, 0, 80, 60
1, 5375, Note_on_c, 0, 83, 53
1, 5426, Note_on_c, 0, 87, 54
1, 5447, Note_off_c, 0, 83, 49
1, 5522, Note_on_c, 0, 90, 58
1, 5536, Note_off_c, 0, 87, 57
1, 5613, Note_off_c, 0, 90, 56
1, 5628, Note_on_c, 0, 68, 41
1, 5699, Note_on_c, 0, 71, 46
1, 5727, Note_off_c, 0, 68, 52
1, 5756, Note_on_c, 0, 75, 44
1, 5780, Note_off_c, 0, 71, 53
1, 5796, Note_on_c, 0, 78, 53
1, 5811, Note_off_c, 0, 75, 58
1, 5829, Note_off_c, 0, 78, 64
1, 5855, Note_on_c, 0, 80, 51
1, 5897, Note_off_c, 0, 80, 60
1, 5904, Note_on_c, 0, 83, 57
1, 5945, Note_off_c, 0, 83, 59
1, 5957, Note_on_c, 0, 87, 64
1, 6006, Note_off_c, 0, 87, 61
1, 6010, Note_on_c, 0, 92, 76
1, 6032, Control_c, 0, 64, 94
1, 6046, Note_off_c, 0, 92, 62
1, 6046, Control_c, 0, 64, 76
1, 6061, Control_c, 0, 64, 65
1, 6076, Control_c, 0, 64, 60
1, 6079, Note_on_c, 0, 70, 45
1, 6091, Control_c, 0, 64, 61
1, 6106, Control_c, 0, 64, 63
1, 6121, Control_c, 0, 64, 65
1, 6127, Note_on_c, 0, 73, 54
1, 6136, Control_c, 0, 64, 69
1, 6150, Control_c, 0, 64, 76
1, 6155, Note_off_c, 0, 70, 50
1, 6165, Control_c, 0, 64, 94
1, 6179, Note_on_c, 0, 77, 54
1, 6180, Control_c, 0, 64, 127
1, 6201, Note_off_c, 0, 73, 58
1, 6216, Note_off_c, 0, 77, 64
1, 6224, Note_on_c, 0, 80, 58
1, 6249, Note_off_c, 0, 80, 64
1, 6282, Note_on_c, 0, 82, 64
1, 6336, Note_on_c, 0, 85, 69
1, 6353, Note_off_c, 0, 82, 62
1, 6378, Note_on_c, 0, 89, 77
1, 6394, Note_off_c, 0, 85, 65
1, 6428, Note_on_c, 0, 94, 86
1, 6432, Note_off_c, 0, 89, 64
1, 6440, Control_c, 0, 64, 98
1, 6454, Control_c, 0, 64, 76
1, 6469, Control_c, 0, 64, 63
1, 6479, Note_off_c, 0, 94, 64
1, 6484, Note_on_c, 0, 71, 57
1, 6484, Control_c, 0, 64, 49
1, 6498, Control_c, 0, 64, 55
1, 6513, Control_c, 0, 64, 60
1, 6528, Control_c, 0, 64, 66
1, 6543, Control_c, 0, 64, 77
1, 6553, Note_on_c, 0, 75, 62
1, 6558, Control_c, 0, 64, 116
1, 6564, Note_off_c, 0, 71, 60
1, 6572, Control_c, 0, 64, 127
1, 6585, Note_on_c, 0, 78, 67
1, 6615, Note_off_c, 0, 75, 59
1, 6632, Note_on_c, 0, 82, 69
1, 6632, Note_off_c, 0, 78, 60
1, 6657, Note_off_c, 0, 82, 68
1, 6691, Note_on_c, 0, 83, 70
1, 6742, Note_on_c, 0, 87, 73
1, 6757, Note_off_c, 0, 83, 62
1, 6780, Note_on_c, 0, 90, 81
1, 6797, Note_off_c, 0, 87, 63
1, 6827, Note_on_c, 0, 95, 90
1, 6830, Note_off_c, 0, 90, 64
1, 6839, Control_c, 0, 64, 92
1, 6854, Control_c, 0, 64, 68
1, 6869, Control_c, 0, 64, 50
1, 6873, Note_on_c, 0, 73, 51
1, 6875, Note_off_c, 0, 95, 65
1, 6884, Control_c, 0, 64, 31
1, 6899, Control_c, 0, 64, 40
1, 6913, Control_c, 0, 64, 51
1, 6928, Control_c, 0, 64, 61
1, 6938, Note_on_c, 0, 77, 61
1, 6943, Control_c, 0, 64, 71
1, 6958, Control_c, 0, 64, 89
1, 6973, Control_c, 0, 64, 127
1, 6975, Note_on_c, 0, 80, 63
1, 6988, Note_off_c, 0, 73, 59
1, 7012, Note_off_c, 0, 77, 63
1, 7015, Note_on_c, 0, 83, 72
1, 7039, Note_off_c, 0, 80, 63
1, 7044, Note_off_c, 0, 83, 64
1, 7086, Note_on_c, 0, 85, 68
1, 7119, Note_on_c, 0, 89, 71
1, 7141, Note_off_c, 0, 85, 62
1, 7161, Note_on_c, 0, 92, 86
1, 7187, Note_off_c, 0, 89, 62
1, 7215, Note_on_c, 0, 97, 85
1, 7221, Note_off_c, 0, 92, 66
1, 7247, Control_c, 0, 64, 107
1, 7262, Control_c, 0, 64, 79
1, 7273, Note_on_c, 0, 75, 57
1, 7276, Control_c, 0, 64, 62
1, 7277, Note_off_c, 0, 97, 63
1, 7291, Control_c, 0, 64, 33
1, 7306, Control_c, 0, 64, 31
1, 7320, Control_c, 0, 64, 50
1, 7327, Note_on_c, 0, 78, 60
1, 7335, Control_c, 0, 64, 60
1, 7350, Control_c, 0, 64, 69
1, 7365, Control_c, 0, 64, 84
1, 7373, Note_off_c, 0, 75, 60
1, 7373, Note_on_c, 0, 82, 65
1, 7380, Control_c, 0, 64, 127
1, 7413, Note_off_c, 0, 78, 62
1, 7414, Note_on_c, 0, 85, 71
1, 7434, Note_off_c, 0, 82, 64
1, 7447, Note_off_c, 0, 85, 63
1, 7469, Note_on_c, 0, 87, 64
1, 7516, Note_on_c, 0, 90, 74
1, 7526, Note_off_c, 0, 87, 63
1, 7560, Note_on_c, 0, 94, 82
1, 7579, Note_off_c, 0, 90, 64
1, 7617, Note_on_c, 0, 99, 82
1, 7620, Note_off_c, 0, 94, 64
1, 7648, Control_c, 0, 64, 108
1, 7663, Control_c, 0, 64, 79
1, 7672, Note_off_c, 0, 99, 64
1, 7673, Note_on_c, 0, 77, 61
1, 7678, Control_c, 0, 64, 63
1, 7692, Control_c, 0, 64, 40
1, 7707, Control_c, 0, 64, 47
1, 7722, Control_c, 0, 64, 53
1, 7736, Control_c, 0, 64, 57
1, 7740, Note_on_c, 0, 80, 60
1, 7751, Control_c, 0, 64, 63
1, 7761, Note_off_c, 0, 77, 62
1, 7766, Control_c, 0, 64, 73
1, 7781, Control_c, 0, 64, 107
1, 7782, Note_on_c, 0, 83, 67
1, 7796, Control_c, 0, 64, 127
1, 7823, Note_off_c, 0, 80, 62
1, 7824, Note_on_c, 0, 87, 74
1, 7847, Note_off_c, 0, 83, 64
1, 7861, Note_off_c, 0, 87, 60
1, 7882, Note_on_c, 0, 89, 75
1, 7927, Note_on_c, 0, 92, 81
1, 7943, Note_off_c, 0, 89, 62
1, 7973, Note_on_c, 0, 95, 86
1, 7985, Note_off_c, 0, 92, 66
1, 8017, Note_off_c, 0, 95, 65
1, 8019, Note_on_c, 0, 99, 92
1, 8059, Note_off_c, 0, 99, 66
1, 8068, Note_on_c, 0, 77, 65
1, 8117, Note_on_c, 0, 80, 71
1, 8126, Note_off_c, 0, 77, 62
1, 8151, Note_on_c, 0, 83, 74
1, 8185, Note_off_c, 0, 80, 63
1, 8207, Note_on_c, 0, 87, 79
1, 8217, Note_off_c, 0, 83, 63
1, 8241, Note_off_c, 0, 87, 60
1, 8255, Note_on_c, 0, 89, 81
1, 8312, Note_on_c, 0, 92, 84
1, 8329, Note_off_c, 0, 89, 62
1, 8359, Note_on_c, 0, 95, 92
1, 8376, Note_off_c, 0, 92, 66
1, 8410, Note_on_c, 0, 99, 92
1, 8416, Note_off_c, 0, 95, 67
1, 8460, Note_off_c, 0, 99, 66
1, 8476, Note_on_c, 0, 77, 68
1, 8532, Note_on_c, 0, 80, 75
1, 8542, Note_off_c, 0, 77, 63
1, 8588, Note_on_c, 0, 83, 74
1, 8618, Note_off_c, 0, 80, 62
1, 8645, Note_on_c, 0, 87, 85
1, 8659, Note_off_c, 0, 83, 63
1, 8694, Note_off_c, 0, 87, 64
1, 8696, Note_on_c, 0, 89, 83
1, 8765, Note_on_c, 0, 92, 87
1, 8797, Note_off_c, 0, 89, 62
1, 8833, Note_on_c, 0, 95, 81
1, 8854, Note_off_c, 0, 92, 65
1, 8914, Note_off_c, 0, 95, 65
1, 8917, Note_on_c, 0, 99, 83
1, 9000, Note_on_c, 0, 95, 82
1, 9034, Note_off_c, 0, 99, 58
1, 9073, Note_on_c, 0, 92, 79
1, 9084, Note_off_c, 0, 95, 64
1, 9120, Note_off_c, 0, 92, 66
1, 9124, Note_on_c, 0, 89, 71
1, 9152, Note_off_c, 0, 89, 67
1, 9173, Note_on_c, 0, 87, 69
1, 9203, Note_off_c, 0, 87, 65
1, 9227, Note_on_c, 0, 89, 70
1, 9258, Note_off_c, 0, 89, 55
1, 9268, Note_on_c, 0, 87, 69
1, 9296, Note_off_c, 0, 87, 66
1, 9331, Poly_aftertouch_c, 0, 89, 0
1, 9358, Note_on_c, 0, 92, 79
1, 9409, Note_on_c, 0, 89, 79
1, 9455, Note_off_c, 0, 92, 64
1, 9466, Note_on_c, 0, 87, 82
1, 9481, Note_off_c, 0, 89, 63
1, 9515, Note_on_c, 0, 83, 69
1, 9519, Note_off_c, 0, 87, 63
1, 9542, Note_off_c, 0, 83, 67
1, 9561, Note_on_c, 0, 80, 71
1, 9587, Note_off_c, 0, 80, 68
1, 9599, Note_on_c, 0, 83, 73
1, 9628, Note_off_c, 0, 83, 60
1, 9656, Note_on_c, 0, 80, 75
1, 9685, Note_off_c, 0, 80, 60
1, 9701, Note_on_c, 0, 83, 74
1, 9723, Note_off_c, 0, 83, 69
1, 9742, Note_on_c, 0, 87, 78
1, 9793, Note_on_c, 0, 83, 74
1, 9844, Note_off_c, 0, 87, 60
1, 9851, Note_on_c, 0, 80, 79
1, 9867, Note_off_c, 0, 83, 64
1, 9891, Note_on_c, 0, 77, 74
1, 9900, Note_off_c, 0, 80, 63
1, 9919, Note_off_c, 0, 77, 66
1, 9947, Note_on_c, 0, 75, 72
1, 9976, Note_off_c, 0, 75, 64
1, 9995, Note_on_c, 0, 77, 67
1, 10029, Note_off_c, 0, 77, 58
1, 10042, Note_on_c, 0, 75, 67
1, 10081, Note_off_c, 0, 75, 65
1, 10107, Poly_aftertouch_c, 0, 77, 0
1, 10141, Note_on_c, 0, 80, 72
1, 10194, Note_on_c, 0, 77, 73
1, 10247, Note_on_c, 0, 75, 75
1, 10249, Note_off_c, 0, 80, 62
1, 10262, Note_off_c, 0, 77, 63
1, 10297, Note_on_c, 0, 71, 67
1, 10305, Note_off_c, 0, 75, 58
1, 10324, Note_off_c, 0, 71, 67
1, 10347, Note_on_c, 0, 68, 63
1, 10381, Note_off_c, 0, 68, 64
1, 10408, Note_on_c, 0, 71, 57
1, 10429, Note_off_c, 0, 71, 63
1, 10462, Note_on_c, 0, 68, 58
1, 10492, Note_off_c, 0, 68, 65
1, 10499, Note_on_c, 0, 71, 65
1, 10552, Note_off_c, 0, 71, 57
1, 10598, Note_on_c, 0, 75, 61
1, 10676, Note_on_c, 0, 71, 62
1, 10732, Note_on_c, 0, 68, 66
1, 10749, Note_off_c, 0, 71, 61
1, 10760, Note_off_c, 0, 75, 54
1, 10782, Note_on_c, 0, 66, 60
1, 10786, Note_off_c, 0, 68, 56
1, 10834, Note_off_c, 0, 66, 57
1, 10840, Note_on_c, 0, 65, 57
1, 10875, Note_off_c, 0, 65, 63
1, 10915, Note_on_c, 0, 68, 41
1, 10938, Note_off_c, 0, 68, 58
1, 10943, Note_on_c, 0, 65, 71
1, 10980, Note_off_c, 0, 65, 60
1, 11024, Note_on_c, 0, 73, 65
1, 11075, Note_on_c, 0, 70, 72
1, 11137, Note_on_c, 0, 66, 73
1, 11140, Control_c, 0, 64, 97
1, 11155, Control_c, 0, 64, 76
1, 11169, Control_c, 0, 64, 64
1, 11184, Control_c, 0, 64, 55
1, 11196, Note_on_c, 0, 65, 62
1, 11199, Control_c, 0, 64, 59
1, 11205, Note_off_c, 0, 66, 62
1, 11211, Note_off_c, 0, 73, 56
1, 11214, Control_c, 0, 64, 62
1, 11222, Note_off_c, 0, 70, 61
1, 11229, Control_c, 0, 64, 65
1, 11232, Note_on_c, 0, 63, 64
1, 11243, Control_c, 0, 64, 72
1, 11244, Note_off_c, 0, 65, 59
1, 11258, Control_c, 0, 64, 89
1, 11266, Note_off_c, 0, 63, 62
1, 11273, Control_c, 0, 64, 127
1, 11292, Note_on_c, 0, 66, 58
1, 11321, Note_off_c, 0, 66, 61
1, 11343, Note_on_c, 0, 63, 59
1, 11376, Note_off_c, 0, 63, 64
1, 11406, Poly_aftertouch_c, 0, 66, 0
1, 11449, Note_on_c, 0, 71, 65
1, 11513, Note_on_c, 0, 68, 63
1, 11540, Control_c, 0, 64, 96
1, 11561, Control_c, 0, 64, 76
1, 11576, Control_c, 0, 64, 63
1, 11579, Note_on_c, 0, 65, 60
1, 11591, Control_c, 0, 64, 45
1, 11606, Control_c, 0, 64, 39
1, 11622, Control_c, 0, 64, 44
1, 11637, Control_c, 0, 64, 50
1, 11638, Note_on_c, 0, 63, 59
1, 11652, Control_c, 0, 64, 58
1, 11666, Note_off_c, 0, 71, 52
1, 11666, Control_c, 0, 64, 65
1, 11681, Control_c, 0, 64, 73
1, 11686, Note_on_c, 0, 61, 52
1, 11696, Control_c, 0, 64, 94
1, 11702, Note_off_c, 0, 65, 0
1, 11711, Control_c, 0, 64, 127
1, 11728, Note_off_c, 0, 61, 60
1, 11732, Note_off_c, 0, 63, 46
1, 11739, Poly_aftertouch_c, 0, 65, 127
1, 11743, Note_off_c, 0, 68, 31
1, 11808, Poly_aftertouch_c, 0, 65, 0
1, 11828, Note_on_c, 0, 61, 47
1, 11868, Note_on_c, 0, 65, 47
1, 11873, Note_off_c, 0, 61, 58
1, 11930, Note_off_c, 0, 65, 55
1, 11969, Note_on_c, 0, 70, 52
1, 12044, Note_on_c, 0, 66, 43
1, 12051, Control_c, 0, 64, 107
1, 12065, Control_c, 0, 64, 97
1, 12080, Control_c, 0, 64, 91
1, 12095, Control_c, 0, 64, 85
1, 12109, Control_c, 0, 64, 79
1, 12124, Control_c, 0, 64, 72
1, 12128, Note_on_c, 0, 63, 42
1, 12139, Control_c, 0, 64, 65
1, 12154, Control_c, 0, 64, 60
1, 12184, Control_c, 0, 64, 60
1, 12195, Note_off_c, 0, 63, 55
1, 12199, Control_c, 0, 64, 61
1, 12214, Control_c, 0, 64, 63
1, 12221, Note_on_c, 0, 61, 33
1, 12229, Control_c, 0, 64, 64
1, 12243, Control_c, 0, 64, 68
1, 12258, Control_c, 0, 64, 76
1, 12267, Note_off_c, 0, 70, 31
1, 12270, Note_on_c, 0, 59, 33
1, 12273, Control_c, 0, 64, 89
1, 12288, Control_c, 0, 64, 110
1, 12309, Control_c, 0, 64, 127
1, 12332, Note_off_c, 0, 61, 35
1, 12368, Note_off_c, 0, 59, 56
1, 12397, Note_on_c, 0, 63, 32
1, 12407, Note_off_c, 0, 66, 14
1, 12440, Note_off_c, 0, 63, 51
1, 12542, Note_on_c, 0, 59, 22
1, 12605, Note_off_c, 0, 59, 43
1, 12634, Note_on_c, 0, 63, 28
1, 12694, Note_off_c, 0, 63, 44
1, 12983, Note_on_c, 0, 53, 29
1, 13051, Control_c, 0, 64, 123
1, 13074, Control_c, 0, 64, 108
1, 13075, Note_on_c, 0, 61, 33
1, 13088, Control_c, 0, 64, 95
1, 13103, Control_c, 0, 64, 86
1, 13118, Control_c, 0, 64, 78
1, 13133, Control_c, 0, 64, 73
1, 13147, Control_c, 0, 64, 69
1, 13162, Control_c, 0, 64, 68
1, 13177, Control_c, 0, 64, 69
1, 13192, Control_c, 0, 64, 71
1, 13208, Control_c, 0, 64, 73
1, 13223, Control_c, 0, 64, 77
1, 13232, Note_off_c, 0, 61, 35
1, 13237, Control_c, 0, 64, 84
1, 13251, Note_on_c, 0, 59, 34
1, 13252, Note_on_c, 0, 68, 38
1, 13252, Control_c, 0, 64, 96
1, 13260, Note_off_c, 0, 53, 38
1, 13267, Control_c, 0, 64, 127
1, 13308, Note_off_c, 0, 68, 54
1, 13312, Note_off_c, 0, 59, 49
1, 13337, Note_on_c, 0, 54, 38
1, 13354, Note_on_c, 0, 63, 35
1, 13385, Note_off_c, 0, 54, 57
1, 13391, Note_off_c, 0, 63, 54
1, 13427, Note_on_c, 0, 61, 38
1, 13431, Note_on_c, 0, 70, 41
1, 13493, Note_off_c, 0, 70, 55
1, 13522, Note_on_c, 0, 53, 41
1, 13561, Note_off_c, 0, 61, 59
1, 13564, Note_off_c, 0, 53, 61
1, 13580, Note_on_c, 0, 68, 53
1, 13596, Note_on_c, 0, 59, 40
1, 13624, Note_off_c, 0, 68, 61
1, 13630, Note_off_c, 0, 59, 60
1, 13642, Note_on_c, 0, 63, 59
1, 13657, Note_on_c, 0, 54, 32
1, 13676, Note_off_c, 0, 63, 66
1, 13691, Note_off_c, 0, 54, 52
1, 13705, Note_on_c, 0, 61, 51
1, 13707, Note_on_c, 0, 70, 49
1, 13733, Note_off_c, 0, 61, 62
1, 13740, Note_off_c, 0, 70, 65
1, 13777, Note_on_c, 0, 65, 56
1, 13779, Note_on_c, 0, 56, 51
1, 13785, Control_c, 0, 64, 107
1, 13807, Control_c, 0, 64, 93
1, 13814, Note_off_c, 0, 65, 58
1, 13822, Control_c, 0, 64, 83
1, 13836, Control_c, 0, 64, 77
1, 13843, Note_on_c, 0, 71, 58
1, 13845, Note_on_c, 0, 63, 43
1, 13846, Note_off_c, 0, 56, 54
1, 13851, Control_c, 0, 64, 78
1, 13866, Control_c, 0, 64, 79
1, 13879, Note_off_c, 0, 63, 54
1, 13881, Control_c, 0, 64, 82
1, 13882, Note_off_c, 0, 71, 61
1, 13889, Note_on_c, 0, 58, 50
1, 13894, Note_on_c, 0, 66, 63
1, 13896, Control_c, 0, 64, 86
1, 13910, Control_c, 0, 64, 97
1, 13925, Note_off_c, 0, 58, 62
1, 13925, Control_c, 0, 64, 127
1, 13930, Note_off_c, 0, 66, 63
1, 13947, Note_on_c, 0, 73, 59
1, 13955, Note_on_c, 0, 65, 46
1, 14001, Note_off_c, 0, 73, 57
1, 14008, Note_on_c, 0, 56, 59
1, 14017, Note_off_c, 0, 65, 0
1, 14028, Note_on_c, 0, 65, 52
1, 14069, Note_off_c, 0, 65, 59
1, 14083, Note_off_c, 0, 56, 62
1, 14084, Note_on_c, 0, 71, 57
1, 14089, Note_on_c, 0, 63, 44
1, 14111, Note_on_c, 0, 58, 41
1, 14124, Note_off_c, 0, 63, 51
1, 14133, Note_on_c, 0, 66, 60
1, 14134, Note_off_c, 0, 58, 58
1, 14135, Note_off_c, 0, 71, 52
1, 14155, Note_on_c, 0, 73, 65
1, 14159, Note_off_c, 0, 66, 63
1, 14165, Note_on_c, 0, 65, 40
1, 14187, Note_off_c, 0, 73, 62
1, 14189, Note_off_c, 0, 65, 55
1, 14208, Control_c, 0, 64, 104
1, 14222, Note_on_c, 0, 59, 59
1, 14223, Control_c, 0, 64, 79
1, 14235, Note_on_c, 0, 68, 65
1, 14238, Control_c, 0, 64, 65
1, 14252, Control_c, 0, 64, 58
1, 14267, Control_c, 0, 64, 62
1, 14268, Note_off_c, 0, 59, 58
1, 14271, Note_off_c, 0, 68, 57
1, 14282, Note_on_c, 0, 61, 53
1, 14282, Control_c, 0, 64, 66
1, 14297, Note_on_c, 0, 75, 60
1, 14297, Control_c, 0, 64, 74
1, 14312, Control_c, 0, 64, 92
1, 14320, Note_off_c, 0, 61, 62
1, 14326, Control_c, 0, 64, 127
1, 14331, Note_on_c, 0, 66, 61
1, 14335, Note_off_c, 0, 75, 59
1, 14345, Note_on_c, 0, 70, 66
1, 14363, Note_off_c, 0, 66, 65
1, 14379, Note_off_c, 0, 70, 64
1, 14382, Note_on_c, 0, 68, 54
1, 14394, Note_on_c, 0, 77, 73
1, 14406, Note_off_c, 0, 68, 58
1, 14443, Note_on_c, 0, 59, 60
1, 14446, Note_off_c, 0, 77, 59
1, 14463, Note_on_c, 0, 68, 70
1, 14497, Note_off_c, 0, 68, 61
1, 14507, Note_on_c, 0, 75, 67
1, 14519, Note_on_c, 0, 66, 54
1, 14521, Note_off_c, 0, 59, 63
1, 14545, Note_on_c, 0, 61, 54
1, 14560, Note_off_c, 0, 66, 64
1, 14561, Note_on_c, 0, 70, 74
1, 14584, Note_off_c, 0, 61, 64
1, 14584, Note_off_c, 0, 70, 69
1, 14597, Note_on_c, 0, 77, 66
1, 14601, Note_off_c, 0, 75, 58
1, 14635, Note_off_c, 0, 77, 57
1, 14673, Note_on_c, 0, 71, 75
1, 14674, Control_c, 0, 64, 89
1, 14688, Note_on_c, 0, 63, 30
1, 14689, Control_c, 0, 64, 74
1, 14704, Control_c, 0, 64, 66
1, 14706, Poly_aftertouch_c, 0, 67, 0
1, 14720, Note_off_c, 0, 63, 45
1, 14721, Note_on_c, 0, 64, 57
1, 14722, Note_off_c, 0, 71, 57
1, 14731, Note_on_c, 0, 78, 65
1, 14733, Control_c, 0, 64, 70
1, 14748, Control_c, 0, 64, 77
1, 14763, Control_c, 0, 64, 92
1, 14774, Note_off_c, 0, 78, 56
1, 14777, Note_off_c, 0, 64, 57
1, 14778, Control_c, 0, 64, 127
1, 14780, Note_on_c, 0, 73, 72
1, 14805, Note_on_c, 0, 68, 9
1, 14813, Note_off_c, 0, 73, 63
1, 14818, Note_on_c, 0, 80, 71
1, 14851, Note_off_c, 0, 68, 37
1, 14873, Note_on_c, 0, 63, 58
1, 14878, Note_on_c, 0, 71, 17
1, 14883, Note_off_c, 0, 80, 62
1, 14944, Note_on_c, 0, 78, 72
1, 14951, Note_off_c, 0, 63, 61
1, 14951, Note_off_c, 0, 71, 61
1, 14972, Note_on_c, 0, 65, 56
1, 14993, Note_on_c, 0, 73, 72
1, 15011, Note_off_c, 0, 65, 63
1, 15025, Note_on_c, 0, 80, 70
1, 15025, Note_off_c, 0, 73, 64
1, 15031, Note_off_c, 0, 78, 58
1, 15055, Note_on_c, 0, 71, 39
1, 15076, Control_c, 0, 64, 105
1, 15085, Note_off_c, 0, 71, 50
1, 15085, Note_off_c, 0, 80, 62
1, 15090, Control_c, 0, 64, 77
1, 15105, Control_c, 0, 64, 61
1, 15111, Note_on_c, 0, 73, 67
1, 15120, Control_c, 0, 64, 41
1, 15128, Note_on_c, 0, 65, 55
1, 15135, Control_c, 0, 64, 52
1, 15145, Note_off_c, 0, 73, 60
1, 15150, Control_c, 0, 64, 61
1, 15165, Control_c, 0, 64, 67
1, 15165, Note_off_c, 0, 65, 60
1, 15171, Note_on_c, 0, 80, 59
1, 15178, Note_on_c, 0, 66, 57
1, 15180, Control_c, 0, 64, 78
1, 15195, Control_c, 0, 64, 123
1, 15206, Note_off_c, 0, 80, 65
1, 15208, Note_on_c, 0, 71, 52
1, 15209, Control_c, 0, 64, 127
1, 15215, Note_off_c, 0, 66, 61
1, 15221, Note_on_c, 0, 75, 68
1, 15244, Note_off_c, 0, 71, 64
1, 15251, Note_on_c, 0, 73, 63
1, 15257, Note_off_c, 0, 75, 62
1, 15272, Note_on_c, 0, 82, 65
1, 15288, Note_off_c, 0, 73, 58
1, 15329, Note_on_c, 0, 73, 63
1, 15334, Note_on_c, 0, 65, 55
1, 15339, Note_off_c, 0, 82, 61
1, 15370, Note_on_c, 0, 71, 59
1, 15380, Note_off_c, 0, 65, 56
1, 15386, Note_off_c, 0, 73, 64
1, 15390, Note_on_c, 0, 80, 69
1, 15415, Note_off_c, 0, 71, 61
1, 15425, Note_on_c, 0, 66, 53
1, 15435, Note_on_c, 0, 75, 77
1, 15445, Note_off_c, 0, 80, 57
1, 15456, Note_off_c, 0, 66, 63
1, 15457, Note_off_c, 0, 75, 63
1, 15480, Note_on_c, 0, 82, 69
1, 15490, Note_on_c, 0, 73, 45
1, 15508, Note_off_c, 0, 82, 67
1, 15516, Note_off_c, 0, 73, 54
1, 15546, Note_on_c, 0, 77, 76
1, 15549, Note_on_c, 0, 68, 54
1, 15579, Note_off_c, 0, 77, 61
1, 15585, Note_on_c, 0, 75, 52
1, 15601, Note_on_c, 0, 83, 73
1, 15601, Note_off_c, 0, 68, 59
1, 15629, Note_on_c, 0, 70, 57
1, 15632, Note_off_c, 0, 83, 61
1, 15645, Note_on_c, 0, 78, 79
1, 15648, Note_off_c, 0, 75, 59
1, 15663, Note_off_c, 0, 70, 66
1, 15684, Note_off_c, 0, 78, 61
1, 15700, Note_on_c, 0, 85, 71
1, 15702, Note_on_c, 0, 77, 52
1, 15722, Note_off_c, 0, 77, 58
1, 15743, Note_on_c, 0, 68, 63
1, 15759, Note_on_c, 0, 77, 81
1, 15769, Note_off_c, 0, 85, 63
1, 15812, Note_on_c, 0, 83, 76
1, 15816, Note_on_c, 0, 75, 64
1, 15818, Note_off_c, 0, 77, 58
1, 15826, Note_off_c, 0, 68, 60
1, 15840, Note_on_c, 0, 70, 58
1, 15848, Note_off_c, 0, 75, 62
1, 15858, Note_on_c, 0, 78, 77
1, 15874, Note_off_c, 0, 70, 66
1, 15882, Note_off_c, 0, 83, 63
1, 15885, Note_on_c, 0, 85, 76
1, 15886, Note_off_c, 0, 78, 68
1, 15911, Note_off_c, 0, 85, 66
1, 15921, Note_on_c, 0, 77, 25
1, 15954, Note_on_c, 0, 80, 77
1, 15955, Note_off_c, 0, 77, 32
1, 15962, Note_on_c, 0, 71, 63
1, 16002, Note_off_c, 0, 71, 56
1, 16003, Note_off_c, 0, 80, 61
1, 16008, Note_on_c, 0, 87, 81
1, 16011, Note_on_c, 0, 73, 68
1, 16048, Note_off_c, 0, 73, 61
1, 16063, Note_on_c, 0, 78, 69
1, 16071, Note_on_c, 0, 82, 76
1, 16083, Note_off_c, 0, 87, 54
1, 16097, Note_off_c, 0, 78, 65
1, 16111, Note_on_c, 0, 80, 67
1, 16117, Note_on_c, 0, 89, 81
1, 16118, Note_off_c, 0, 82, 64
1, 16140, Note_off_c, 0, 80, 66
1, 16181, Note_on_c, 0, 80, 87
1, 16182, Note_on_c, 0, 71, 66
1, 16187, Note_off_c, 0, 89, 62
1, 16225, Note_on_c, 0, 87, 77
1, 16233, Note_off_c, 0, 80, 61
1, 16252, Note_on_c, 0, 78, 66
1, 16259, Note_off_c, 0, 71, 59
1, 16280, Note_on_c, 0, 73, 64
1, 16280, Note_on_c, 0, 82, 78
1, 16290, Note_off_c, 0, 78, 63
1, 16312, Note_off_c, 0, 73, 65
1, 16312, Note_on_c, 0, 89, 75
1, 16323, Note_off_c, 0, 82, 63
1, 16324, Note_off_c, 0, 87, 62
1, 16338, Note_on_c, 0, 80, 57
1, 16356, Note_off_c, 0, 80, 63
1, 16369, Note_off_c, 0, 89, 58
1, 16390, Note_on_c, 0, 83, 84
1, 16405, Note_on_c, 0, 75, 61
1, 16421, Note_off_c, 0, 83, 62
1, 16443, Note_on_c, 0, 90, 76
1, 16447, Note_on_c, 0, 77, 65
1, 16454, Note_off_c, 0, 75, 49
1, 16493, Note_on_c, 0, 82, 70
1, 16493, Note_off_c, 0, 90, 61
1, 16496, Note_on_c, 0, 85, 75
1, 16498, Note_off_c, 0, 77, 58
1, 16536, Note_off_c, 0, 85, 62
1, 16537, Note_on_c, 0, 92, 77
1, 16539, Note_off_c, 0, 82, 61
1, 16575, Note_on_c, 0, 83, 27
1, 16589, Note_on_c, 0, 75, 64
1, 16589, Note_off_c, 0, 83, 0
1, 16605, Note_on_c, 0, 83, 33
1, 16605, Note_off_c, 0, 92, 65
1, 16666, Note_on_c, 0, 90, 73
1, 16673, Note_off_c, 0, 75, 61
1, 16673, Note_off_c, 0, 83, 60
1, 16680, Note_on_c, 0, 82, 42
1, 16694, Note_on_c, 0, 77, 61
1, 16706, Note_off_c, 0, 82, 58
1, 16723, Note_on_c, 0, 85, 67
1, 16733, Note_off_c, 0, 77, 62
1, 16753, Note_off_c, 0, 85, 69
1, 16757, Note_off_c, 0, 90, 62
1, 16760, Note_on_c, 0, 92, 65
1, 16771, Note_on_c, 0, 83, 46
1, 16801, Note_off_c, 0, 83, 54
1, 16834, Note_off_c, 0, 92, 64
1, 16849, Control_c, 0, 64, 97
1, 16853, Note_on_c, 0, 85, 66
1, 16858, Note_on_c, 0, 77, 55
1, 16863, Control_c, 0, 64, 75
1, 16878, Control_c, 0, 64, 63
1, 16893, Control_c, 0, 64, 57
1, 16908, Control_c, 0, 64, 62
1, 16915, Note_off_c, 0, 85, 61
1, 16923, Control_c, 0, 64, 64
1, 16928, Note_on_c, 0, 78, 57
1, 16929, Note_on_c, 0, 92, 61
1, 16935, Note_off_c, 0, 77, 60
1, 16937, Control_c, 0, 64, 68
1, 16952, Control_c, 0, 64, 78
1, 16967, Control_c, 0, 64, 115
1, 16968, Note_off_c, 0, 92, 63
1, 16971, Note_on_c, 0, 83, 54
1, 16975, Note_off_c, 0, 78, 60
1, 16980, Note_on_c, 0, 87, 64
1, 16981, Control_c, 0, 64, 127
1, 17004, Note_off_c, 0, 83, 65
1, 17019, Note_off_c, 0, 87, 64
1, 17027, Note_on_c, 0, 94, 70
1, 17028, Note_on_c, 0, 85, 59
1, 17066, Note_off_c, 0, 85, 0
1, 17081, Note_on_c, 0, 77, 61
1, 17102, Note_off_c, 0, 94, 63
1, 17103, Poly_aftertouch_c, 0, 85, 127
1, 17131, Note_on_c, 0, 83, 57
1, 17141, Note_off_c, 0, 77, 53
1, 17144, Poly_aftertouch_c, 0, 85, 0
1, 17153, Note_on_c, 0, 92, 62
1, 17170, Note_off_c, 0, 83, 64
1, 17182, Note_on_c, 0, 78, 53
1, 17192, Note_off_c, 0, 92, 60
1, 17198, Note_on_c, 0, 87, 71
1, 17204, Note_off_c, 0, 78, 62
1, 17225, Note_off_c, 0, 87, 69
1, 17225, Note_on_c, 0, 94, 75
1, 17239, Note_on_c, 0, 85, 50
1, 17263, Note_off_c, 0, 85, 58
1, 17282, Note_off_c, 0, 94, 63
1, 17293, Note_on_c, 0, 78, 58
1, 17295, Note_on_c, 0, 87, 81
1, 17335, Note_on_c, 0, 85, 74
1, 17336, Note_off_c, 0, 87, 54
1, 17345, Note_on_c, 0, 94, 72
1, 17359, Note_off_c, 0, 78, 58
1, 17388, Note_on_c, 0, 80, 55
1, 17390, Note_off_c, 0, 85, 63
1, 17402, Note_off_c, 0, 94, 62
1, 17405, Note_on_c, 0, 89, 69
1, 17424, Note_off_c, 0, 80, 65
1, 17442, Note_off_c, 0, 89, 63
1, 17442, Note_on_c, 0, 87, 69
1, 17452, Note_on_c, 0, 95, 72
1, 17470, Note_off_c, 0, 87, 69
1, 17505, Note_on_c, 0, 78, 70
1, 17508, Note_off_c, 0, 95, 61
1, 17516, Note_on_c, 0, 87, 68
1, 17555, Note_off_c, 0, 87, 61
1, 17564, Note_on_c, 0, 94, 81
1, 17572, Note_on_c, 0, 85, 74
1, 17584, Note_off_c, 0, 78, 61
1, 17616, Note_off_c, 0, 85, 60
1, 17620, Note_on_c, 0, 89, 75
1, 17625, Note_on_c, 0, 80, 52
1, 17641, Control_c, 0, 67, 117
1, 17644, Note_off_c, 0, 94, 60
1, 17648, Note_on_c, 0, 95, 73
1, 17648, Note_off_c, 0, 89, 67
1, 17653, Note_off_c, 0, 80, 63
1, 17656, Control_c, 0, 67, 102
1, 17671, Control_c, 0, 67, 92
1, 17673, Note_on_c, 0, 87, 61
1, 17683, Note_off_c, 0, 95, 58
1, 17685, Control_c, 0, 67, 85
1, 17694, Note_off_c, 0, 87, 63
1, 17700, Control_c, 0, 67, 77
1, 17715, Control_c, 0, 67, 72
1, 17722, Note_on_c, 0, 89, 86
1, 17730, Control_c, 0, 67, 66
1, 17731, Note_on_c, 0, 80, 65
1, 17745, Control_c, 0, 67, 60
1, 17758, Note_off_c, 0, 89, 60
1, 17759, Control_c, 0, 67, 56
1, 17774, Control_c, 0, 67, 53
1, 17781, Note_on_c, 0, 95, 74
1, 17789, Control_c, 0, 67, 50
1, 17790, Note_on_c, 0, 87, 58
1, 17797, Note_off_c, 0, 80, 63
1, 17803, Control_c, 0, 67, 45
1, 17812, Note_on_c, 0, 82, 62
1, 17818, Control_c, 0, 67, 40
1, 17819, Note_off_c, 0, 95, 62
1, 17828, Note_on_c, 0, 90, 79
1, 17833, Control_c, 0, 67, 35
1, 17839, Note_off_c, 0, 87, 60
1, 17845, Note_off_c, 0, 82, 66
1, 17848, Control_c, 0, 67, 29
1, 17851, Note_off_c, 0, 90, 70
1, 17863, Control_c, 0, 67, 23
1, 17877, Control_c, 0, 67, 13
1, 17880, Note_on_c, 0, 89, 63
1, 17887, Note_on_c, 0, 97, 60
1, 17892, Control_c, 0, 67, 0
1, 17901, Note_off_c, 0, 89, 64
1, 17925, Note_off_c, 0, 97, 45
1, 17937, Note_on_c, 0, 80, 67
1, 17944, Note_on_c, 0, 89, 79
1, 17999, Note_off_c, 0, 89, 61
1, 18000, Note_on_c, 0, 95, 76
1, 18001, Note_on_c, 0, 87, 51
1, 18004, Note_off_c, 0, 80, 62
1, 18006, Note_on_c, 0, 82, 70
1, 18031, Note_off_c, 0, 87, 53
1, 18044, Note_on_c, 0, 90, 74
1, 18044, Note_off_c, 0, 82, 60
1, 18070, Note_off_c, 0, 90, 68
1, 18076, Note_off_c, 0, 95, 64
1, 18082, Note_on_c, 0, 97, 75
1, 18092, Note_on_c, 0, 89, 25
1, 18113, Note_off_c, 0, 97, 64
1, 18128, Note_off_c, 0, 89, 40
1, 18137, Note_on_c, 0, 90, 83
1, 18144, Note_on_c, 0, 82, 73
1, 18186, Note_off_c, 0, 90, 63
1, 18198, Note_on_c, 0, 97, 84
1, 18202, Note_on_c, 0, 83, 68
1, 18225, Note_off_c, 0, 82, 62
1, 18244, Note_on_c, 0, 89, 55
1, 18254, Note_off_c, 0, 97, 63
1, 18255, Note_on_c, 0, 92, 80
1, 18259, Note_off_c, 0, 83, 63
1, 18287, Note_off_c, 0, 89, 64
1, 18307, Note_on_c, 0, 99, 85
1, 18307, Note_off_c, 0, 92, 63
1, 18310, Note_on_c, 0, 90, 50
1, 18333, Note_off_c, 0, 90, 55
1, 18357, Note_on_c, 0, 82, 81
1, 18375, Note_off_c, 0, 99, 65
1, 18377, Note_on_c, 0, 90, 68
1, 18410, Note_on_c, 0, 89, 62
1, 18415, Note_on_c, 0, 97, 81
1, 18417, Note_off_c, 0, 90, 60
1, 18450, Note_off_c, 0, 82, 63
1, 18454, Note_off_c, 0, 89, 61
1, 18466, Note_on_c, 0, 92, 86
1, 18471, Note_on_c, 0, 83, 49
1, 18492, Note_off_c, 0, 83, 59
1, 18502, Note_on_c, 0, 99, 82
1, 18511, Note_on_c, 0, 90, 67
1, 18511, Note_off_c, 0, 92, 66
1, 18512, Note_off_c, 0, 97, 60
1, 18528, Note_off_c, 0, 90, 66
1, 18552, Note_off_c, 0, 99, 65
1, 18564, Note_on_c, 0, 92, 88
1, 18566, Note_on_c, 0, 83, 75
1, 18611, Note_off_c, 0, 92, 64
1, 18622, Note_on_c, 0, 99, 85
1, 18649, Note_off_c, 0, 83, 63
1, 18653, Note_on_c, 0, 85, 68
1, 18669, Note_on_c, 0, 90, 68
1, 18675, Note_on_c, 0, 94, 84
1, 18682, Note_off_c, 0, 85, 68
1, 18704, Note_off_c, 0, 99, 61
1, 18715, Note_on_c, 0, 92, 79
1, 18721, Note_on_c, 0, 101, 89
1, 18724, Note_off_c, 0, 90, 64
1, 18728, Note_off_c, 0, 94, 64
1, 18741, Note_off_c, 0, 92, 67
1, 18777, Note_on_c, 0, 83, 75
1, 18785, Note_on_c, 0, 92, 92
1, 18797, Note_off_c, 0, 101, 65
1, 18831, Note_on_c, 0, 99, 84
1, 18842, Note_off_c, 0, 92, 64
1, 18856, Note_off_c, 0, 83, 64
1, 18857, Note_on_c, 0, 85, 79
1, 18864, Note_on_c, 0, 90, 60
1, 18885, Note_on_c, 0, 94, 90
1, 18900, Note_off_c, 0, 90, 63
1, 18921, Note_off_c, 0, 85, 62
1, 18927, Note_on_c, 0, 101, 87
1, 18933, Note_on_c, 0, 92, 84
1, 18939, Note_off_c, 0, 99, 65
1, 18939, Note_off_c, 0, 94, 65
1, 18959, Note_off_c, 0, 101, 63
1, 18965, Note_off_c, 0, 92, 63
1, 18998, Note_on_c, 0, 94, 87
1, 19012, Note_on_c, 0, 85, 76
1, 19061, Note_on_c, 0, 101, 87
1, 19064, Note_off_c, 0, 94, 60
1, 19079, Note_on_c, 0, 92, 79
1, 19118, Note_on_c, 0, 87, 80
1, 19120, Note_off_c, 0, 85, 64
1, 19124, Note_on_c, 0, 95, 87
1, 19132, Note_off_c, 0, 92, 64
1, 19171, Note_off_c, 0, 95, 65
1, 19176, Note_off_c, 0, 101, 36
1, 19183, Note_on_c, 0, 102, 87
1, 19186, Note_on_c, 0, 94, 83
1, 19193, Note_off_c, 0, 87, 62
1, 19229, Note_off_c, 0, 94, 0
1, 19263, Note_on_c, 0, 85, 77
1, 19266, Poly_aftertouch_c, 0, 94, 127
1, 19269, Note_off_c, 0, 102, 64
1, 19290, Poly_aftertouch_c, 0, 94, 0
1, 19297, Note_on_c, 0, 101, 85
1, 19320, Note_on_c, 0, 92, 81
1, 19354, Note_off_c, 0, 85, 63
1, 19361, Note_on_c, 0, 87, 77
1, 19375, Note_off_c, 0, 92, 63
1, 19377, Note_on_c, 0, 95, 75
1, 19380, Note_on_c, 0, 96, 83
1, 19381, Note_off_c, 0, 101, 65
1, 19421, Note_off_c, 0, 96, 63
1, 19422, Note_off_c, 0, 95, 60
1, 19428, Note_on_c, 0, 102, 90
1, 19440, Note_on_c, 0, 94, 91
1, 19440, Note_off_c, 0, 87, 59
1, 19525, Note_on_c, 0, 85, 82
1, 19530, Note_off_c, 0, 102, 65
1, 19571, Note_on_c, 0, 101, 84
1, 19574, Note_off_c, 0, 94, 62
1, 19588, Note_on_c, 0, 92, 80
1, 19623, Note_off_c, 0, 85, 63
1, 19626, Note_on_c, 0, 87, 66
1, 19649, Note_on_c, 0, 95, 85
1, 19662, Note_off_c, 0, 101, 64
1, 19682, Note_off_c, 0, 87, 61
1, 19682, Note_off_c, 0, 92, 61
1, 19693, Note_on_c, 0, 94, 79
1, 19713, Note_on_c, 0, 102, 88
1, 19714, Note_off_c, 0, 95, 65
1, 19739, Note_off_c, 0, 94, 64
1, 19771, Note_on_c, 0, 92, 94
1, 19784, Note_on_c, 0, 83, 73
1, 19788, Note_off_c, 0, 102, 65
1, 19843, Note_on_c, 0, 99, 80
1, 19845, Note_on_c, 0, 90, 66
1, 19856, Note_off_c, 0, 92, 65
1, 19869, Note_off_c, 0, 83, 62
1, 19872, Note_on_c, 0, 85, 76
1, 19889, Note_off_c, 0, 90, 61
1, 19903, Note_on_c, 0, 94, 77
1, 19932, Note_off_c, 0, 85, 64
1, 19936, Note_on_c, 0, 101, 83
1, 19939, Note_off_c, 0, 99, 64
1, 19954, Note_on_c, 0, 92, 78
1, 19954, Note_off_c, 0, 94, 63
1, 19978, Note_off_c, 0, 92, 70
1, 19985, Note_off_c, 0, 101, 64
1, 19994, Note_on_c, 0, 90, 91
1, 20006, Note_on_c, 0, 82, 85
1, 20059, Note_on_c, 0, 97, 80
1, 20071, Note_off_c, 0, 90, 62
1, 20092, Note_on_c, 0, 89, 34
1, 20105, Note_off_c, 0, 82, 60
1, 20116, Note_on_c, 0, 83, 45
1, 20121, Note_on_c, 0, 92, 82
1, 20124, Note_off_c, 0, 89, 46
1, 20136, Note_on_c, 0, 84, 42
1, 20153, Note_off_c, 0, 97, 52
1, 20156, Note_on_c, 0, 99, 84
1, 20157, Note_off_c, 0, 83, 63
1, 20160, Note_off_c, 0, 84, 49
1, 20170, Note_off_c, 0, 92, 65
1, 20179, Note_on_c, 0, 90, 69
1, 20226, Note_off_c, 0, 99, 64
1, 20228, Note_on_c, 0, 89, 81
1, 20236, Note_on_c, 0, 80, 83
1, 20243, Note_off_c, 0, 90, 41
1, 20294, Note_off_c, 0, 89, 59
1, 20303, Note_on_c, 0, 95, 77
1, 20315, Note_on_c, 0, 82, 69
1, 20348, Note_off_c, 0, 80, 62
1, 20354, Note_on_c, 0, 87, 47
1, 20354, Note_on_c, 0, 90, 77
1, 20363, Note_off_c, 0, 95, 64
1, 20402, Note_off_c, 0, 87, 64
1, 20412, Note_on_c, 0, 89, 66
1, 20414, Note_off_c, 0, 90, 64
1, 20417, Note_on_c, 0, 97, 74
1, 20477, Note_off_c, 0, 89, 55
1, 20545, Note_on_c, 0, 83, 70
1, 20555, Note_off_c, 0, 82, 60
1, 20557, Note_off_c, 0, 97, 61
1, 20564, Control_c, 0, 64, 90
1, 20566, Note_on_c, 0, 92, 64
1, 20567, Note_on_c, 0, 85, 63
1, 20572, Note_on_c, 0, 89, 54
1, 20578, Control_c, 0, 64, 70
1, 20593, Control_c, 0, 64, 58
1, 20608, Control_c, 0, 64, 53
1, 20623, Control_c, 0, 64, 58
1, 20636, Note_off_c, 0, 92, 63
1, 20638, Control_c, 0, 64, 62
1, 20639, Note_off_c, 0, 89, 60
1, 20646, Note_off_c, 0, 85, 64
1, 20653, Control_c, 0, 64, 66
1, 20661, Note_on_c, 0, 94, 61
1, 20667, Control_c, 0, 64, 77
1, 20675, Note_on_c, 0, 87, 45
1, 20675, Note_on_c, 0, 97, 54
1, 20682, Control_c, 0, 64, 127
1, 20703, Note_off_c, 0, 87, 54
1, 20721, Note_off_c, 0, 97, 62
1, 20722, Note_off_c, 0, 94, 63
1, 20734, Note_on_c, 0, 85, 57
1, 20753, Note_on_c, 0, 92, 52
1, 20754, Note_on_c, 0, 89, 60
1, 20766, Note_off_c, 0, 83, 63
1, 20771, Note_off_c, 0, 85, 65
1, 20773, Note_off_c, 0, 89, 62
1, 20774, Note_off_c, 0, 92, 62
1, 20784, Note_on_c, 0, 87, 67
1, 20810, Note_on_c, 0, 94, 60
1, 20813, Note_on_c, 0, 97, 66
1, 20846, Note_off_c, 0, 94, 65
1, 20846, Note_off_c, 0, 97, 65
1, 20855, Note_off_c, 0, 87, 56
1, 20858, Note_on_c, 0, 92, 68
1, 20871, Note_on_c, 0, 89, 62
1, 20876, Note_on_c, 0, 82, 74
1, 20876, Note_on_c, 0, 85, 69
1, 20892, Note_off_c, 0, 92, 64
1, 20903, Note_off_c, 0, 85, 67
1, 20909, Note_off_c, 0, 89, 62
1, 20925, Note_on_c, 0, 94, 74
1, 20927, Note_on_c, 0, 97, 69
1, 20951, Note_on_c, 0, 87, 56
1, 20957, Note_off_c, 0, 94, 63
1, 20963, Note_off_c, 0, 97, 62
1, 20972, Note_off_c, 0, 87, 62
1, 20978, Note_on_c, 0, 92, 73
1, 20983, Note_on_c, 0, 85, 76
1, 20997, Note_on_c, 0, 89, 67
1, 21006, Note_off_c, 0, 92, 64
1, 21019, Note_off_c, 0, 85, 60
1, 21021, Note_off_c, 0, 89, 63
1, 21037, Note_off_c, 0, 82, 59
1, 21038, Note_on_c, 0, 94, 77
1, 21041, Note_on_c, 0, 87, 76
1, 21044, Note_on_c, 0, 97, 71
1, 21072, Note_off_c, 0, 94, 60
1, 21079, Note_off_c, 0, 97, 63
1, 21090, Note_on_c, 0, 92, 77
1, 21102, Note_on_c, 0, 89, 66
1, 21106, Note_on_c, 0, 83, 84
1, 21108, Note_off_c, 0, 87, 63
1, 21118, Note_off_c, 0, 92, 62
1, 21122, Note_on_c, 0, 85, 65
1, 21130, Note_off_c, 0, 89, 64
1, 21152, Note_on_c, 0, 94, 71
1, 21153, Note_off_c, 0, 85, 67
1, 21160, Note_on_c, 0, 97, 64
1, 21184, Note_off_c, 0, 94, 64
1, 21189, Note_off_c, 0, 97, 63
1, 21193, Note_on_c, 0, 92, 85
1, 21202, Note_on_c, 0, 87, 55
1, 21208, Note_on_c, 0, 89, 68
1, 21210, Note_on_c, 0, 85, 75
1, 21235, Note_off_c, 0, 83, 62
1, 21237, Note_off_c, 0, 89, 66
1, 21245, Note_off_c, 0, 92, 63
1, 21246, Note_off_c, 0, 87, 0
1, 21246, Note_on_c, 0, 87, 50
1, 21253, Note_on_c, 0, 94, 78
1, 21253, Note_off_c, 0, 85, 62
1, 21263, Note_on_c, 0, 97, 69
1, 21305, Note_off_c, 0, 97, 59
1, 21314, Note_on_c, 0, 92, 76
1, 21317, Note_off_c, 0, 94, 62
1, 21323, Note_on_c, 0, 82, 87
1, 21326, Note_on_c, 0, 89, 68
1, 21335, Note_off_c, 0, 87, 63
1, 21340, Note_on_c, 0, 85, 73
1, 21361, Note_off_c, 0, 92, 59
1, 21368, Note_off_c, 0, 85, 62
1, 21373, Note_off_c, 0, 89, 50
1, 21380, Note_on_c, 0, 94, 72
1, 21386, Note_on_c, 0, 97, 76
1, 21403, Note_on_c, 0, 87, 76
1, 21422, Note_off_c, 0, 97, 59
1, 21436, Note_off_c, 0, 94, 63
1, 21439, Note_on_c, 0, 92, 80
1, 21448, Note_off_c, 0, 87, 63
1, 21451, Note_on_c, 0, 85, 81
1, 21463, Note_on_c, 0, 89, 60
1, 21481, Note_off_c, 0, 82, 63
1, 21485, Note_off_c, 0, 89, 59
1, 21485, Note_off_c, 0, 92, 51
1, 21496, Note_on_c, 0, 94, 79
1, 21504, Note_off_c, 0, 85, 66
1, 21508, Note_on_c, 0, 87, 68
1, 21511, Note_on_c, 0, 97, 77
1, 21552, Note_off_c, 0, 94, 62
1, 21564, Note_off_c, 0, 97, 61
1, 21571, Note_on_c, 0, 82, 91
1, 21571, Note_on_c, 0, 92, 87
1, 21576, Note_on_c, 0, 85, 83
1, 21579, Note_on_c, 0, 89, 70
1, 21582, Note_off_c, 0, 87, 64
1, 21621, Note_off_c, 0, 92, 62
1, 21624, Note_off_c, 0, 89, 53
1, 21636, Note_on_c, 0, 94, 79
1, 21642, Note_off_c, 0, 85, 64
1, 21645, Note_on_c, 0, 97, 71
1, 21654, Note_on_c, 0, 87, 79
1, 21680, Note_off_c, 0, 97, 63
1, 21689, Note_off_c, 0, 94, 62
1, 21693, Note_on_c, 0, 92, 75
1, 21700, Note_off_c, 0, 87, 64
1, 21701, Note_on_c, 0, 85, 66
1, 21707, Note_on_c, 0, 89, 64
1, 21726, Note_off_c, 0, 92, 57
1, 21738, Note_off_c, 0, 89, 61
1, 21753, Note_on_c, 0, 94, 69
1, 21758, Note_on_c, 0, 97, 74
1, 21760, Note_off_c, 0, 85, 64
1, 21761, Note_on_c, 0, 87, 69
1, 21798, Note_off_c, 0, 97, 59
1, 21800, Note_off_c, 0, 94, 61
1, 21811, Note_off_c, 0, 87, 63
1, 21813, Note_on_c, 0, 92, 74
1, 21814, Note_on_c, 0, 85, 65
1, 21827, Note_on_c, 0, 89, 56
1, 21851, Note_off_c, 0, 92, 51
1, 21868, Note_off_c, 0, 89, 57
1, 21877, Note_on_c, 0, 94, 67
1, 21881, Note_off_c, 0, 85, 64
1, 21884, Note_on_c, 0, 97, 66
1, 21886, Note_on_c, 0, 87, 68
1, 21922, Note_off_c, 0, 97, 61
1, 21931, Note_off_c, 0, 94, 60
1, 21944, Note_off_c, 0, 87, 62
1, 21950, Note_on_c, 0, 92, 61
1, 21955, Note_on_c, 0, 89, 60
1, 21960, Note_on_c, 0, 85, 52
1, 21991, Note_off_c, 0, 92, 63
1, 22000, Note_off_c, 0, 89, 58
1, 22001, Note_off_c, 0, 85, 63
1, 22012, Note_on_c, 0, 97, 63
1, 22013, Note_on_c, 0, 94, 59
1, 22048, Note_on_c, 0, 87, 33
1, 22068, Note_off_c, 0, 97, 60
1, 22069, Note_off_c, 0, 94, 60
1, 22077, Note_on_c, 0, 83, 65
1, 22080, Note_off_c, 0, 87, 51
1, 22095, Note_on_c, 0, 92, 62
1, 22102, Note_off_c, 0, 82, 58
1, 22105, Control_c, 0, 64, 114
1, 22111, Note_on_c, 0, 85, 47
1, 22116, Note_on_c, 0, 89, 44
1, 22120, Control_c, 0, 64, 85
1, 22133, Note_off_c, 0, 92, 63
1, 22135, Control_c, 0, 64, 68
1, 22138, Note_off_c, 0, 85, 55
1, 22146, Note_off_c, 0, 89, 51
1, 22149, Control_c, 0, 64, 60
1, 22164, Control_c, 0, 64, 60
1, 22165, Note_on_c, 0, 94, 51
1, 22173, Note_on_c, 0, 87, 51
1, 22173, Note_on_c, 0, 97, 44
1, 22179, Control_c, 0, 64, 61
1, 22192, Note_off_c, 0, 94, 61
1, 22194, Control_c, 0, 64, 63
1, 22200, Note_off_c, 0, 97, 54
1, 22203, Note_off_c, 0, 87, 54
1, 22209, Note_on_c, 0, 92, 62
1, 22209, Control_c, 0, 64, 66
1, 22224, Control_c, 0, 64, 71
1, 22227, Note_on_c, 0, 85, 53
1, 22231, Note_on_c, 0, 89, 54
1, 22238, Control_c, 0, 64, 80
1, 22245, Note_off_c, 0, 92, 64
1, 22251, Note_off_c, 0, 85, 60
1, 22253, Control_c, 0, 64, 102
1, 22259, Note_off_c, 0, 89, 54
1, 22268, Control_c, 0, 64, 127
1, 22278, Note_on_c, 0, 87, 45
1, 22280, Note_on_c, 0, 97, 64
1, 22292, Note_on_c, 0, 94, 49
1, 22354, Note_off_c, 0, 87, 54
1, 22362, Note_on_c, 0, 92, 54
1, 22370, Note_off_c, 0, 97, 51
1, 22370, Note_on_c, 0, 85, 37
1, 22373, Note_on_c, 0, 89, 44
1, 22376, Note_off_c, 0, 94, 56
1, 22430, Note_off_c, 0, 83, 57
1, 22438, Note_off_c, 0, 85, 47
1, 22445, Note_off_c, 0, 89, 58
1, 22466, Note_off_c, 0, 92, 61
1, 22718, Note_on_c, 0, 77, 53
1, 22741, Note_on_c, 0, 80, 48
1, 22756, Note_on_c, 0, 85, 48
1, 22757, Control_c, 0, 64, 102
1, 22764, Note_on_c, 0, 83, 47
1, 22772, Control_c, 0, 64, 86
1, 22795, Control_c, 0, 64, 77
1, 22810, Control_c, 0, 64, 71
1, 22812, Note_off_c, 0, 85, 63
1, 22825, Control_c, 0, 64, 70
1, 22826, Note_off_c, 0, 83, 59
1, 22830, Note_off_c, 0, 80, 62
1, 22840, Control_c, 0, 64, 72
1, 22854, Control_c, 0, 64, 76
1, 22858, Note_on_c, 0, 87, 42
1, 22861, Note_on_c, 0, 82, 45
1, 22861, Note_on_c, 0, 92, 52
1, 22869, Control_c, 0, 64, 83
1, 22884, Control_c, 0, 64, 95
1, 22891, Note_off_c, 0, 82, 53
1, 22898, Control_c, 0, 64, 127
1, 22903, Note_off_c, 0, 92, 63
1, 22906, Note_off_c, 0, 87, 62
1, 22918, Note_on_c, 0, 80, 41
1, 22936, Note_on_c, 0, 85, 44
1, 22943, Note_on_c, 0, 83, 54
1, 22961, Note_off_c, 0, 80, 64
1, 22963, Note_off_c, 0, 85, 58
1, 22968, Note_off_c, 0, 83, 63
1, 22976, Note_off_c, 0, 77, 59
1, 22980, Note_on_c, 0, 82, 59
1, 23002, Note_on_c, 0, 87, 60
1, 23005, Note_on_c, 0, 92, 52
1, 23036, Note_off_c, 0, 87, 65
1, 23038, Note_off_c, 0, 82, 56
1, 23039, Note_off_c, 0, 92, 66
1, 23050, Note_on_c, 0, 85, 64
1, 23057, Note_on_c, 0, 75, 69
1, 23061, Note_on_c, 0, 83, 57
1, 23065, Note_on_c, 0, 80, 47
1, 23085, Note_off_c, 0, 85, 62
1, 23088, Note_off_c, 0, 80, 60
1, 23099, Note_off_c, 0, 83, 63
1, 23121, Note_on_c, 0, 92, 63
1, 23130, Note_on_c, 0, 87, 56
1, 23133, Note_on_c, 0, 82, 49
1, 23155, Note_off_c, 0, 92, 64
1, 23157, Note_off_c, 0, 82, 58
1, 23162, Note_on_c, 0, 80, 70
1, 23163, Note_off_c, 0, 87, 65
1, 23180, Note_on_c, 0, 85, 60
1, 23189, Note_on_c, 0, 83, 58
1, 23200, Note_off_c, 0, 85, 65
1, 23202, Note_off_c, 0, 80, 56
1, 23211, Note_off_c, 0, 75, 60
1, 23217, Note_off_c, 0, 83, 66
1, 23228, Note_on_c, 0, 82, 69
1, 23231, Note_on_c, 0, 87, 75
1, 23255, Note_on_c, 0, 92, 51
1, 23276, Note_off_c, 0, 92, 60
1, 23277, Note_on_c, 0, 85, 69
1, 23282, Note_off_c, 0, 82, 60
1, 23284, Note_on_c, 0, 77, 80
1, 23284, Note_off_c, 0, 87, 59
1, 23298, Note_on_c, 0, 83, 66
1, 23302, Note_on_c, 0, 80, 63
1, 23318, Note_off_c, 0, 85, 57
1, 23327, Note_off_c, 0, 80, 65
1, 23347, Note_on_c, 0, 92, 71
1, 23347, Note_off_c, 0, 83, 62
1, 23351, Note_on_c, 0, 87, 59
1, 23368, Note_on_c, 0, 82, 62
1, 23385, Note_off_c, 0, 92, 62
1, 23386, Note_off_c, 0, 87, 63
1, 23389, Note_off_c, 0, 82, 63
1, 23398, Note_on_c, 0, 80, 68
1, 23398, Note_on_c, 0, 85, 66
1, 23431, Note_off_c, 0, 85, 64
1, 23437, Note_off_c, 0, 77, 65
1, 23440, Note_off_c, 0, 80, 53
1, 23447, Note_on_c, 0, 83, 19
1, 23458, Note_on_c, 0, 82, 74
1, 23461, Note_on_c, 0, 87, 68
1, 23478, Note_on_c, 0, 92, 68
1, 23486, Note_off_c, 0, 83, 39
1, 23497, Note_off_c, 0, 87, 57
1, 23508, Note_off_c, 0, 92, 67
1, 23518, Note_on_c, 0, 75, 81
1, 23518, Note_on_c, 0, 85, 71
1, 23521, Note_off_c, 0, 82, 65
1, 23529, Note_on_c, 0, 80, 76
1, 23552, Note_on_c, 0, 83, 60
1, 23556, Note_off_c, 0, 85, 62
1, 23580, Note_off_c, 0, 80, 49
1, 23582, Note_off_c, 0, 83, 66
1, 23588, Note_on_c, 0, 87, 71
1, 23607, Note_on_c, 0, 82, 74
1, 23609, Note_on_c, 0, 92, 58
1, 23632, Note_off_c, 0, 92, 62
1, 23633, Note_off_c, 0, 87, 57
1, 23642, Note_off_c, 0, 82, 61
1, 23651, Note_on_c, 0, 85, 65
1, 23656, Note_on_c, 0, 80, 63
1, 23661, Note_on_c, 0, 83, 58
1, 23678, Note_off_c, 0, 75, 61
1, 23684, Note_off_c, 0, 85, 64
1, 23686, Note_off_c, 0, 80, 67
1, 23696, Note_off_c, 0, 83, 66
1, 23699, Note_on_c, 0, 87, 71
1, 23705, Note_on_c, 0, 82, 65
1, 23707, Note_on_c, 0, 92, 67
1, 23761, Note_off_c, 0, 92, 61
1, 23762, Note_off_c, 0, 87, 63
1, 23765, Note_on_c, 0, 85, 76
1, 23775, Note_on_c, 0, 75, 85
1, 23780, Note_on_c, 0, 80, 75
1, 23783, Note_off_c, 0, 82, 64
1, 23791, Note_on_c, 0, 83, 62
1, 23824, Note_off_c, 0, 85, 62
1, 23836, Note_off_c, 0, 80, 59
1, 23838, Note_off_c, 0, 83, 57
1, 23843, Note_on_c, 0, 87, 64
1, 23847, Note_on_c, 0, 82, 57
1, 23858, Note_on_c, 0, 92, 63
1, 23890, Note_off_c, 0, 87, 57
1, 23892, Note_off_c, 0, 92, 66
1, 23893, Note_on_c, 0, 85, 66
1, 23895, Note_off_c, 0, 82, 62
1, 23897, Note_on_c, 0, 80, 63
1, 23925, Note_on_c, 0, 83, 45
1, 23949, Note_off_c, 0, 80, 58
1, 23951, Note_off_c, 0, 85, 62
1, 23952, Note_off_c, 0, 83, 54
1, 23964, Note_on_c, 0, 87, 63
1, 23966, Note_on_c, 0, 82, 67
1, 23969, Note_on_c, 0, 92, 65
1, 24012, Note_off_c, 0, 92, 61
1, 24015, Note_off_c, 0, 87, 57
1, 24019, Note_on_c, 0, 85, 55
1, 24022, Note_off_c, 0, 82, 64
1, 24034, Note_on_c, 0, 80, 69
1, 24038, Note_on_c, 0, 83, 61
1, 24066, Note_off_c, 0, 85, 57
1, 24075, Note_off_c, 0, 80, 53
1, 24082, Note_off_c, 0, 83, 58
1, 24090, Note_on_c, 0, 87, 60
1, 24101, Note_on_c, 0, 82, 66
1, 24112, Note_on_c, 0, 92, 60
1, 24149, Note_off_c, 0, 92, 64
1, 24153, Note_off_c, 0, 82, 62
1, 24158, Note_off_c, 0, 87, 62
1, 24173, Note_on_c, 0, 80, 58
1, 24173, Note_on_c, 0, 85, 50
1, 24195, Note_on_c, 0, 83, 43
1, 24203, Note_off_c, 0, 85, 54
1, 24207, Note_off_c, 0, 80, 65
1, 24227, Note_off_c, 0, 83, 51
1, 24232, Note_off_c, 0, 75, 55
1, 24233, Note_on_c, 0, 87, 48
1, 24235, Note_on_c, 0, 82, 49
1, 24238, Note_on_c, 0, 92, 57
1, 24284, Note_off_c, 0, 82, 60
1, 24301, Note_off_c, 0, 92, 55
1, 24309, Note_off_c, 0, 87, 56
1, 24310, Note_on_c, 0, 80, 56
1, 24311, Note_on_c, 0, 77, 56
1, 24316, Note_on_c, 0, 85, 48
1, 24335, Control_c, 0, 64, 101
1, 24344, Note_on_c, 0, 83, 48
1, 24350, Control_c, 0, 64, 83
1, 24357, Note_off_c, 0, 80, 59
1, 24364, Note_off_c, 0, 85, 61
1, 24365, Control_c, 0, 64, 67
1, 24380, Control_c, 0, 64, 57
1, 24392, Note_off_c, 0, 83, 60
1, 24396, Control_c, 0, 64, 48
1, 24400, Note_on_c, 0, 82, 35
1, 24409, Note_on_c, 0, 87, 42
1, 24411, Control_c, 0, 64, 52
1, 24425, Control_c, 0, 64, 55
1, 24426, Note_off_c, 0, 82, 49
1, 24440, Control_c, 0, 64, 59
1, 24450, Note_on_c, 0, 80, 50
1, 24455, Control_c, 0, 64, 64
1, 24456, Note_off_c, 0, 87, 61
1, 24469, Control_c, 0, 64, 69
1, 24483, Note_on_c, 0, 85, 39
1, 24484, Control_c, 0, 64, 80
1, 24493, Note_off_c, 0, 80, 60
1, 24499, Control_c, 0, 64, 115
1, 24514, Control_c, 0, 64, 127
1, 24516, Note_on_c, 0, 82, 53
1, 24517, Note_off_c, 0, 85, 52
1, 24550, Note_on_c, 0, 92, 27
1, 24557, Note_on_c, 0, 87, 51
1, 24580, Note_off_c, 0, 82, 49
1, 24625, Note_on_c, 0, 80, 37
1, 24638, Note_on_c, 0, 85, 36
1, 24653, Note_off_c, 0, 87, 53
1, 24653, Note_off_c, 0, 92, 51
1, 24674, Note_off_c, 0, 77, 57
1, 24682, Note_on_c, 0, 83, 35
1, 24695, Note_off_c, 0, 80, 55
1, 24730, Note_off_c, 0, 83, 47
1, 24789, Note_off_c, 0, 85, 38
1, 25014, Note_on_c, 0, 71, 48
1, 25077, Note_on_c, 0, 73, 33
1, 25081, Note_on_c, 0, 80, 44
1, 25084, Control_c, 0, 64, 112
1, 25086, Note_on_c, 0, 77, 46
1, 25099, Control_c, 0, 64, 95
1, 25114, Control_c, 0, 64, 82
1, 25129, Control_c, 0, 64, 73
1, 25143, Control_c, 0, 64, 66
1, 25158, Control_c, 0, 64, 65
1, 25161, Note_off_c, 0, 80, 58
1, 25173, Control_c, 0, 64, 66
1, 25178, Note_off_c, 0, 77, 57
1, 25182, Note_off_c, 0, 73, 56
1, 25189, Control_c, 0, 64, 69
1, 25204, Control_c, 0, 64, 74
1, 25210, Note_on_c, 0, 82, 37
1, 25219, Control_c, 0, 64, 82
1, 25231, Note_on_c, 0, 85, 40
1, 25232, Note_on_c, 0, 75, 26
1, 25234, Control_c, 0, 64, 99
1, 25248, Control_c, 0, 64, 127
1, 25255, Note_off_c, 0, 82, 60
1, 25265, Note_off_c, 0, 85, 53
1, 25266, Note_off_c, 0, 75, 50
1, 25296, Note_on_c, 0, 80, 45
1, 25302, Note_on_c, 0, 73, 39
1, 25313, Note_on_c, 0, 77, 39
1, 25334, Note_off_c, 0, 80, 61
1, 25337, Note_off_c, 0, 71, 58
1, 25342, Note_off_c, 0, 73, 62
1, 25342, Note_off_c, 0, 77, 53
1, 25369, Note_on_c, 0, 85, 51
1, 25372, Note_on_c, 0, 82, 46
1, 25377, Note_on_c, 0, 75, 45
1, 25414, Note_off_c, 0, 85, 63
1, 25419, Note_off_c, 0, 82, 62
1, 25436, Note_off_c, 0, 75, 54
1, 25437, Note_on_c, 0, 80, 51
1, 25443, Note_on_c, 0, 77, 46
1, 25460, Note_on_c, 0, 70, 60
1, 25483, Note_off_c, 0, 80, 61
1, 25490, Note_off_c, 0, 77, 58
1, 25493, Note_on_c, 0, 73, 12
1, 25520, Note_on_c, 0, 82, 50
1, 25527, Note_on_c, 0, 85, 48
1, 25537, Note_off_c, 0, 70, 55
1, 25542, Note_off_c, 0, 73, 35
1, 25552, Note_on_c, 0, 75, 49
1, 25556, Note_off_c, 0, 82, 65
1, 25556, Note_off_c, 0, 85, 63
1, 25574, Note_off_c, 0, 75, 57
1, 25585, Note_on_c, 0, 80, 49
1, 25594, Note_on_c, 0, 77, 49
1, 25596, Note_on_c, 0, 73, 44
1, 25619, Note_off_c, 0, 77, 58
1, 25624, Note_off_c, 0, 80, 57
1, 25625, Note_off_c, 0, 73, 65
1, 25639, Note_on_c, 0, 82, 65
1, 25654, Note_on_c, 0, 85, 54
1, 25663, Note_on_c, 0, 75, 49
1, 25684, Note_off_c, 0, 82, 55
1, 25689, Note_off_c, 0, 85, 66
1, 25690, Note_off_c, 0, 75, 50
1, 25709, Note_on_c, 0, 77, 57
1, 25714, Note_on_c, 0, 71, 71
1, 25716, Note_on_c, 0, 80, 54
1, 25725, Note_on_c, 0, 73, 49
1, 25748, Note_off_c, 0, 73, 60
1, 25752, Note_off_c, 0, 80, 63
1, 25754, Note_off_c, 0, 77, 60
1, 25778, Note_on_c, 0, 82, 59
1, 25780, Note_on_c, 0, 85, 57
1, 25795, Note_on_c, 0, 75, 51
1, 25816, Note_off_c, 0, 75, 57
1, 25818, Note_off_c, 0, 82, 66
1, 25818, Note_off_c, 0, 85, 66
1, 25831, Note_on_c, 0, 73, 69
1, 25832, Note_on_c, 0, 80, 66
1, 25854, Note_on_c, 0, 77, 57
1, 25854, Note_off_c, 0, 71, 62
1, 25863, Note_off_c, 0, 73, 66
1, 25871, Note_off_c, 0, 80, 54
1, 25875, Note_off_c, 0, 77, 60
1, 25881, Note_on_c, 0, 75, 60
1, 25891, Note_on_c, 0, 82, 71
1, 25902, Note_on_c, 0, 85, 62
1, 25934, Note_off_c, 0, 82, 55
1, 25935, Note_off_c, 0, 85, 66
1, 25941, Note_off_c, 0, 75, 56
1, 25947, Note_on_c, 0, 70, 70
1, 25955, Note_on_c, 0, 77, 61
1, 25956, Note_on_c, 0, 73, 61
1, 25971, Note_on_c, 0, 80, 40
1, 25989, Note_off_c, 0, 73, 64
1, 25994, Note_off_c, 0, 77, 61
1, 25999, Note_off_c, 0, 80, 55
1, 26009, Note_on_c, 0, 82, 58
1, 26021, Note_on_c, 0, 85, 55
1, 26030, Note_on_c, 0, 75, 43
1, 26045, Note_off_c, 0, 85, 61
1, 26048, Note_off_c, 0, 82, 61
1, 26054, Note_off_c, 0, 75, 54
1, 26066, Note_on_c, 0, 73, 65
1, 26072, Note_on_c, 0, 80, 49
1, 26079, Note_on_c, 0, 77, 60
1, 26095, Note_off_c, 0, 73, 64
1, 26096, Note_off_c, 0, 80, 58
1, 26101, Note_off_c, 0, 70, 62
1, 26114, Note_on_c, 0, 75, 68
1, 26114, Note_off_c, 0, 77, 62
1, 26128, Note_on_c, 0, 85, 62
1, 26134, Note_on_c, 0, 82, 58
1, 26192, Note_on_c, 0, 68, 70
1, 26199, Note_off_c, 0, 75, 60
1, 26215, Note_off_c, 0, 82, 61
1, 26220, Control_c, 0, 64, 91
1, 26222, Note_on_c, 0, 73, 54
1, 26222, Note_off_c, 0, 85, 61
1, 26228, Note_on_c, 0, 80, 51
1, 26234, Control_c, 0, 64, 71
1, 26247, Note_on_c, 0, 76, 54
1, 26249, Control_c, 0, 64, 57
1, 26264, Control_c, 0, 64, 47
1, 26279, Control_c, 0, 64, 54
1, 26294, Control_c, 0, 64, 58
1, 26301, Note_off_c, 0, 73, 62
1, 26303, Note_off_c, 0, 80, 59
1, 26309, Control_c, 0, 64, 63
1, 26310, Note_off_c, 0, 76, 57
1, 26322, Note_on_c, 0, 75, 52
1, 26323, Control_c, 0, 64, 72
1, 26334, Note_on_c, 0, 82, 48
1, 26338, Control_c, 0, 64, 91
1, 26353, Control_c, 0, 64, 127
1, 26355, Note_on_c, 0, 85, 44
1, 26365, Note_off_c, 0, 75, 60
1, 26379, Note_off_c, 0, 85, 60
1, 26380, Note_off_c, 0, 82, 63
1, 26387, Note_on_c, 0, 73, 52
1, 26388, Note_off_c, 0, 68, 55
1, 26394, Note_on_c, 0, 80, 46
1, 26418, Note_on_c, 0, 76, 50
1, 26429, Note_off_c, 0, 73, 63
1, 26441, Note_off_c, 0, 80, 57
1, 26442, Note_off_c, 0, 76, 58
1, 26464, Note_on_c, 0, 85, 62
1, 26466, Note_on_c, 0, 82, 62
1, 26468, Note_on_c, 0, 75, 52
1, 26500, Note_off_c, 0, 75, 50
1, 26502, Note_off_c, 0, 82, 63
1, 26502, Note_off_c, 0, 85, 63
1, 26525, Note_on_c, 0, 70, 63
1, 26528, Note_on_c, 0, 76, 60
1, 26539, Note_on_c, 0, 80, 50
1, 26555, Note_on_c, 0, 73, 40
1, 26581, Note_off_c, 0, 80, 54
1, 26584, Note_off_c, 0, 73, 50
1, 26589, Note_off_c, 0, 76, 56
1, 26591, Note_off_c, 0, 70, 57
1, 26597, Note_on_c, 0, 75, 63
1, 26603, Note_on_c, 0, 82, 61
1, 26626, Note_on_c, 0, 85, 47
1, 26632, Note_off_c, 0, 75, 61
1, 26638, Note_off_c, 0, 82, 62
1, 26650, Note_off_c, 0, 85, 57
1, 26653, Poly_aftertouch_c, 0, 80, 0
1, 26654, Note_on_c, 0, 73, 70
1, 26672, Note_on_c, 0, 76, 58
1, 26686, Note_off_c, 0, 73, 63
1, 26689, Poly_aftertouch_c, 0, 80, 0
1, 26713, Note_off_c, 0, 76, 62
1, 26718, Note_on_c, 0, 75, 60
1, 26725, Note_on_c, 0, 85, 65
1, 26730, Note_on_c, 0, 82, 55
1, 26758, Note_off_c, 0, 85, 64
1, 26761, Note_off_c, 0, 82, 65
1, 26769, Note_on_c, 0, 80, 51
1, 26770, Note_off_c, 0, 75, 48
1, 26778, Note_on_c, 0, 68, 79
1, 26786, Note_on_c, 0, 76, 68
1, 26799, Note_on_c, 0, 73, 52
1, 26807, Note_off_c, 0, 80, 55
1, 26817, Note_off_c, 0, 73, 63
1, 26834, Note_off_c, 0, 76, 58
1, 26839, Note_on_c, 0, 82, 66
1, 26853, Note_on_c, 0, 75, 66
1, 26855, Note_on_c, 0, 85, 62
1, 26865, Note_off_c, 0, 68, 55
1, 26881, Note_off_c, 0, 82, 53
1, 26881, Note_off_c, 0, 85, 66
1, 26887, Note_on_c, 0, 73, 71
1, 26904, Note_on_c, 0, 80, 48
1, 26915, Note_on_c, 0, 76, 57
1, 26921, Note_off_c, 0, 73, 62
1, 26926, Note_off_c, 0, 80, 57
1, 26927, Note_off_c, 0, 75, 0
1, 26952, Note_off_c, 0, 76, 67
1, 26960, Note_on_c, 0, 85, 62
1, 26963, Poly_aftertouch_c, 0, 75, 127
1, 26978, Note_on_c, 0, 82, 50
1, 26988, Note_on_c, 0, 75, 3
1, 26993, Note_off_c, 0, 85, 63
1, 27000, Note_off_c, 0, 82, 61
1, 27009, Note_on_c, 0, 80, 62
1, 27017, Note_on_c, 0, 70, 82
1, 27022, Note_on_c, 0, 73, 72
1, 27023, Note_off_c, 0, 75, 50
1, 27028, Note_on_c, 0, 76, 68
1, 27048, Note_off_c, 0, 80, 57
1, 27053, Note_off_c, 0, 73, 59
1, 27066, Note_off_c, 0, 76, 64
1, 27073, Note_on_c, 0, 82, 65
1, 27088, Note_on_c, 0, 85, 61
1, 27106, Note_on_c, 0, 75, 67
1, 27114, Note_off_c, 0, 82, 53
1, 27115, Note_off_c, 0, 85, 63
1, 27133, Note_on_c, 0, 80, 53
1, 27138, Note_off_c, 0, 75, 59
1, 27141, Note_on_c, 0, 76, 65
1, 27144, Note_on_c, 0, 73, 73
1, 27169, Note_off_c, 0, 80, 58
1, 27173, Note_off_c, 0, 70, 61
1, 27181, Note_off_c, 0, 73, 54
1, 27183, Note_on_c, 0, 82, 56
1, 27183, Note_off_c, 0, 76, 63
1, 27190, Note_on_c, 0, 85, 67
1, 27211, Note_on_c, 0, 75, 58
1, 27250, Control_c, 0, 64, 118
1, 27264, Note_off_c, 0, 82, 47
1, 27264, Control_c, 0, 64, 81
1, 27269, Note_off_c, 0, 85, 60
1, 27274, Note_on_c, 0, 71, 75
1, 27287, Control_c, 0, 64, 64
1, 27288, Note_off_c, 0, 75, 62
1, 27300, Note_on_c, 0, 77, 72
1, 27302, Control_c, 0, 64, 41
1, 27303, Note_on_c, 0, 73, 58
1, 27303, Note_on_c, 0, 80, 54
1, 27317, Control_c, 0, 64, 33
1, 27332, Control_c, 0, 64, 45
1, 27339, Note_off_c, 0, 73, 61
1, 27346, Control_c, 0, 64, 56
1, 27349, Note_off_c, 0, 77, 57
1, 27350, Note_off_c, 0, 80, 58
1, 27361, Control_c, 0, 64, 64
1, 27372, Note_on_c, 0, 75, 57
1, 27376, Control_c, 0, 64, 74
1, 27388, Note_on_c, 0, 82, 48
1, 27391, Control_c, 0, 64, 96
1, 27395, Note_on_c, 0, 85, 49
1, 27404, Note_off_c, 0, 75, 61
1, 27406, Control_c, 0, 64, 127
1, 27414, Note_on_c, 0, 73, 59
1, 27418, Note_off_c, 0, 85, 60
1, 27419, Note_off_c, 0, 82, 59
1, 27434, Note_off_c, 0, 71, 61
1, 27444, Note_on_c, 0, 80, 43
1, 27447, Note_off_c, 0, 73, 66
1, 27452, Note_on_c, 0, 77, 62
1, 27475, Note_off_c, 0, 80, 50
1, 27476, Note_on_c, 0, 75, 57
1, 27486, Note_off_c, 0, 77, 60
1, 27504, Note_on_c, 0, 82, 64
1, 27509, Note_on_c, 0, 85, 53
1, 27524, Note_off_c, 0, 75, 53
1, 27539, Note_off_c, 0, 82, 60
1, 27541, Note_on_c, 0, 70, 71
1, 27542, Note_off_c, 0, 85, 65
1, 27543, Note_on_c, 0, 73, 61
1, 27557, Note_on_c, 0, 80, 47
1, 27567, Note_on_c, 0, 77, 62
1, 27579, Note_off_c, 0, 73, 61
1, 27601, Note_off_c, 0, 80, 54
1, 27611, Note_off_c, 0, 77, 61
1, 27619, Note_on_c, 0, 75, 64
1, 27631, Note_on_c, 0, 85, 61
1, 27639, Note_on_c, 0, 82, 42
1, 27655, Note_off_c, 0, 75, 59
1, 27664, Note_off_c, 0, 85, 64
1, 27666, Note_on_c, 0, 73, 61
1, 27669, Note_off_c, 0, 82, 52
1, 27677, Note_off_c, 0, 70, 30
1, 27691, Note_on_c, 0, 80, 33
1, 27696, Note_on_c, 0, 77, 49
1, 27702, Note_off_c, 0, 73, 65
1, 27725, Note_off_c, 0, 80, 50
1, 27730, Note_off_c, 0, 77, 61
1, 27751, Note_on_c, 0, 75, 30
1, 27757, Note_on_c, 0, 85, 55
1, 27759, Note_on_c, 0, 82, 43
1, 27783, Note_off_c, 0, 75, 49
1, 27785, Note_off_c, 0, 85, 63
1, 27787, Note_off_c, 0, 82, 55
1, 27789, Note_on_c, 0, 71, 72
1, 27804, Note_on_c, 0, 80, 48
1, 27807, Note_on_c, 0, 73, 52
1, 27813, Note_on_c, 0, 77, 62
1, 27840, Note_off_c, 0, 73, 64
1, 27851, Note_off_c, 0, 80, 53
1, 27853, Note_off_c, 0, 77, 60
1, 27870, Note_on_c, 0, 85, 59
1, 27875, Note_on_c, 0, 82, 54
1, 27879, Note_on_c, 0, 75, 57
1, 27902, Note_off_c, 0, 75, 56
1, 27904, Note_off_c, 0, 82, 55
1, 27905, Note_off_c, 0, 85, 62
1, 27916, Note_on_c, 0, 73, 64
1, 27931, Note_on_c, 0, 77, 60
1, 27933, Note_off_c, 0, 71, 61
1, 27947, Note_off_c, 0, 73, 65
1, 27956, Poly_aftertouch_c, 0, 80, 0
1, 27968, Note_off_c, 0, 77, 59
1, 27979, Note_on_c, 0, 75, 56
1, 27993, Note_on_c, 0, 85, 58
1, 27998, Note_on_c, 0, 82, 52
1, 28028, Note_off_c, 0, 75, 52
1, 28041, Note_off_c, 0, 85, 59
1, 28055, Note_on_c, 0, 70, 64
1, 28056, Note_off_c, 0, 82, 57
1, 28057, Note_on_c, 0, 73, 59
1, 28062, Note_on_c, 0, 80, 43
1, 28078, Note_on_c, 0, 77, 51
1, 28095, Note_off_c, 0, 73, 59
1, 28104, Note_off_c, 0, 80, 53
1, 28106, Note_off_c, 0, 77, 53
1, 28127, Note_on_c, 0, 82, 48
1, 28146, Note_on_c, 0, 85, 29
1, 28163, Note_on_c, 0, 75, 39
1, 28172, Note_off_c, 0, 82, 59
1, 28180, Note_off_c, 0, 85, 46
1, 28204, Note_on_c, 0, 77, 43
1, 28212, Note_off_c, 0, 70, 52
1, 28222, Note_off_c, 0, 75, 0
1, 28234, Note_off_c, 0, 77, 52
1, 28239, Note_on_c, 0, 75, 32
1, 28263, Note_on_c, 0, 82, 45
1, 28267, Poly_aftertouch_c, 0, 80, 0
1, 28278, Note_on_c, 0, 85, 55
1, 28287, Poly_aftertouch_c, 0, 73, 0
1, 28358, Note_off_c, 0, 82, 51
1, 28361, Control_c, 0, 64, 113
1, 28369, Note_on_c, 0, 68, 46
1, 28376, Control_c, 0, 64, 88
1, 28378, Note_on_c, 0, 80, 45
1, 28385, Note_off_c, 0, 85, 50
1, 28390, Note_off_c, 0, 75, 34
1, 28392, Control_c, 0, 64, 70
1, 28395, Note_on_c, 0, 76, 48
1, 28400, Note_on_c, 0, 73, 38
1, 28407, Control_c, 0, 64, 55
1, 28422, Control_c, 0, 64, 24
1, 28437, Control_c, 0, 64, 32
1, 28452, Control_c, 0, 64, 44
1, 28466, Control_c, 0, 64, 55
1, 28472, Note_off_c, 0, 80, 61
1, 28481, Control_c, 0, 64, 64
1, 28487, Note_off_c, 0, 73, 59
1, 28489, Note_off_c, 0, 76, 62
1, 28496, Control_c, 0, 64, 71
1, 28504, Note_on_c, 0, 82, 42
1, 28510, Control_c, 0, 64, 84
1, 28511, Note_on_c, 0, 75, 46
1, 28525, Control_c, 0, 64, 127
1, 28527, Note_on_c, 0, 85, 46
1, 28555, Note_off_c, 0, 75, 56
1, 28561, Note_off_c, 0, 85, 61
1, 28567, Note_off_c, 0, 82, 58
1, 28585, Note_on_c, 0, 73, 39
1, 28588, Note_on_c, 0, 80, 42
1, 28609, Note_on_c, 0, 76, 44
1, 28627, Note_off_c, 0, 80, 55
1, 28641, Note_off_c, 0, 76, 54
1, 28644, Note_off_c, 0, 73, 59
1, 28660, Note_on_c, 0, 82, 48
1, 28672, Note_on_c, 0, 85, 44
1, 28692, Note_on_c, 0, 75, 27
1, 28704, Note_off_c, 0, 85, 63
1, 28705, Note_off_c, 0, 82, 61
1, 28722, Note_off_c, 0, 75, 50
1, 28725, Note_on_c, 0, 80, 54
1, 28739, Note_on_c, 0, 76, 54
1, 28752, Note_on_c, 0, 73, 46
1, 28771, Note_off_c, 0, 80, 58
1, 28791, Note_off_c, 0, 76, 63
1, 28797, Note_off_c, 0, 73, 63
1, 28802, Note_on_c, 0, 82, 58
1, 28815, Note_on_c, 0, 85, 53
1, 28835, Note_on_c, 0, 75, 44
1, 28847, Note_off_c, 0, 82, 58
1, 28850, Note_off_c, 0, 85, 63
1, 28867, Note_on_c, 0, 80, 53
1, 28872, Note_off_c, 0, 75, 56
1, 28886, Note_on_c, 0, 76, 52
1, 28899, Note_on_c, 0, 73, 54
1, 28913, Note_off_c, 0, 80, 54
1, 28918, Note_off_c, 0, 76, 59
1, 28934, Note_off_c, 0, 68, 35
1, 28937, Note_off_c, 0, 73, 63
1, 28939, Note_on_c, 0, 85, 60
1, 28945, Note_on_c, 0, 82, 48
1, 28972, Note_on_c, 0, 75, 50
1, 28990, Note_off_c, 0, 85, 59
1, 28992, Note_off_c, 0, 82, 60
1, 29002, Note_on_c, 0, 80, 49
1, 29017, Note_on_c, 0, 76, 52
1, 29024, Note_off_c, 0, 75, 59
1, 29040, Note_on_c, 0, 70, 59
1, 29059, Note_off_c, 0, 80, 54
1, 29071, Note_off_c, 0, 76, 60
1, 29092, Note_on_c, 0, 82, 48
1, 29092, Note_on_c, 0, 85, 48
1, 29141, Note_off_c, 0, 85, 60
1, 29142, Note_off_c, 0, 82, 59
1, 29144, Poly_aftertouch_c, 0, 73, 0
1, 29152, Note_on_c, 0, 75, 31
1, 29169, Note_on_c, 0, 80, 38
1, 29180, Note_on_c, 0, 76, 47
1, 29180, Note_off_c, 0, 75, 48
1, 29205, Note_on_c, 0, 73, 41
1, 29213, Note_off_c, 0, 80, 48
1, 29235, Note_off_c, 0, 76, 59
1, 29250, Note_on_c, 0, 82, 50
1, 29262, Note_off_c, 0, 73, 58
1, 29269, Note_on_c, 0, 85, 51
1, 29285, Note_on_c, 0, 75, 41
1, 29326, Note_off_c, 0, 75, 49
1, 29336, Note_off_c, 0, 82, 57
1, 29337, Note_off_c, 0, 85, 58
1, 29339, Note_on_c, 0, 80, 43
1, 29360, Note_on_c, 0, 76, 47
1, 29380, Note_on_c, 0, 68, 41
1, 29401, Note_on_c, 0, 73, 38
1, 29404, Note_off_c, 0, 80, 54
1, 29409, Note_off_c, 0, 70, 35
1, 29431, Note_off_c, 0, 76, 60
1, 29446, Note_off_c, 0, 73, 62
1, 29469, Note_on_c, 0, 82, 36
1, 29485, Note_on_c, 0, 85, 42
1, 29524, Note_on_c, 0, 71, 10
1, 29544, Note_off_c, 0, 85, 57
1, 29548, Note_off_c, 0, 82, 55
1, 29583, Note_on_c, 0, 76, 40
1, 29589, Note_on_c, 0, 80, 15
1, 29589, Note_off_c, 0, 71, 51
1, 29592, Note_on_c, 0, 73, 36
1, 29674, Note_off_c, 0, 68, 31
1, 29674, Note_off_c, 0, 73, 52
1, 29690, Note_off_c, 0, 76, 53
1, 29693, Note_off_c, 0, 80, 34
1, 29715, Note_on_c, 0, 82, 30
1, 29726, Note_on_c, 0, 71, 37
1, 29741, Note_on_c, 0, 85, 37
1, 29935, Note_on_c, 0, 64, 50
1, 29942, Note_off_c, 0, 82, 39
1, 29953, Note_off_c, 0, 85, 36
1, 29987, Note_on_c, 0, 76, 35
1, 29997, Note_on_c, 0, 80, 17
1, 30059, Note_off_c, 0, 71, 36
1, 30096, Note_off_c, 0, 76, 54
1, 30101, Note_off_c, 0, 80, 37
1, 30132, Note_on_c, 0, 82, 27
1, 30159, Note_on_c, 0, 85, 34
1, 30188, Note_off_c, 0, 82, 53
1, 30197, Note_off_c, 0, 85, 51
1, 30234, Note_on_c, 0, 80, 33
1, 30240, Note_on_c, 0, 76, 42
1, 30272, Note_off_c, 0, 80, 48
1, 30275, Note_off_c, 0, 76, 54
1, 30319, Note_on_c, 0, 85, 43
1, 30332, Note_on_c, 0, 82, 34
1, 30360, Note_off_c, 0, 85, 61
1, 30366, Note_off_c, 0, 82, 53
1, 30396, Note_on_c, 0, 73, 36
1, 30397, Note_on_c, 0, 76, 44
1, 30400, Note_on_c, 0, 80, 34
1, 30439, Note_off_c, 0, 80, 47
1, 30446, Note_off_c, 0, 76, 61
1, 30475, Note_on_c, 0, 85, 49
1, 30476, Note_on_c, 0, 82, 43
1, 30504, Note_off_c, 0, 85, 60
1, 30516, Note_off_c, 0, 82, 57
1, 30521, Note_off_c, 0, 73, 0
1, 30524, Note_on_c, 0, 80, 34
1, 30534, Note_on_c, 0, 71, 41
1, 30555, Note_on_c, 0, 76, 48
1, 30564, Note_off_c, 0, 80, 46
1, 30573, Poly_aftertouch_c, 0, 73, 0
1, 30583, Note_off_c, 0, 76, 55
1, 30604, Note_on_c, 0, 82, 44
1, 30605, Note_on_c, 0, 85, 53
1, 30645, Note_off_c, 0, 85, 62
1, 30650, Note_off_c, 0, 82, 61
1, 30659, Note_on_c, 0, 80, 37
1, 30683, Note_on_c, 0, 76, 50
1, 30690, Note_on_c, 0, 66, 65
1, 30701, Note_off_c, 0, 80, 45
1, 30715, Note_off_c, 0, 76, 53
1, 30746, Note_on_c, 0, 85, 47
1, 30752, Note_on_c, 0, 82, 39
1, 30778, Note_off_c, 0, 85, 57
1, 30781, Note_off_c, 0, 82, 57
1, 30791, Note_on_c, 0, 80, 37
1, 30819, Note_on_c, 0, 76, 50
1, 30829, Note_off_c, 0, 80, 47
1, 30850, Note_off_c, 0, 76, 59
1, 30856, Note_off_c, 0, 71, 27
1, 30872, Note_on_c, 0, 82, 55
1, 30876, Note_on_c, 0, 85, 54
1, 30889, Note_off_c, 0, 64, 37
1, 30903, Note_off_c, 0, 85, 59
1, 30910, Note_off_c, 0, 82, 63
1, 30919, Note_on_c, 0, 80, 38
1, 30943, Note_on_c, 0, 76, 54
1, 30951, Note_off_c, 0, 80, 50
1, 30978, Note_on_c, 0, 73, 51
1, 30979, Note_off_c, 0, 76, 61
1, 30991, Note_on_c, 0, 85, 60
1, 30997, Note_on_c, 0, 82, 53
1, 31034, Note_off_c, 0, 85, 61
1, 31038, Note_off_c, 0, 82, 62
1, 31048, Note_on_c, 0, 80, 47
1, 31076, Note_on_c, 0, 76, 50
1, 31080, Note_off_c, 0, 80, 52
1, 31085, Note_on_c, 0, 71, 46
1, 31103, Note_off_c, 0, 73, 39
1, 31108, Note_off_c, 0, 76, 59
1, 31117, Note_on_c, 0, 85, 62
1, 31121, Note_on_c, 0, 82, 61
1, 31154, Note_off_c, 0, 85, 63
1, 31161, Note_off_c, 0, 82, 59
1, 31171, Note_on_c, 0, 80, 45
1, 31199, Note_on_c, 0, 76, 52
1, 31208, Note_off_c, 0, 80, 47
1, 31216, Note_on_c, 0, 68, 76
1, 31244, Note_off_c, 0, 76, 62
1, 31256, Note_on_c, 0, 82, 47
1, 31256, Note_on_c, 0, 85, 55
1, 31273, Note_off_c, 0, 71, 51
1, 31288, Note_off_c, 0, 82, 59
1, 31288, Note_off_c, 0, 85, 62
1, 31296, Note_on_c, 0, 80, 43
1, 31321, Note_off_c, 0, 66, 58
1, 31324, Note_on_c, 0, 76, 54
1, 31330, Note_off_c, 0, 80, 53
1, 31364, Note_off_c, 0, 76, 63
1, 31376, Note_on_c, 0, 85, 61
1, 31379, Note_on_c, 0, 82, 56
1, 31417, Note_off_c, 0, 85, 60
1, 31418, Note_on_c, 0, 80, 48
1, 31418, Note_off_c, 0, 82, 63
1, 31443, Note_on_c, 0, 76, 62
1, 31476, Note_on_c, 0, 73, 59
1, 31491, Note_off_c, 0, 76, 58
1, 31500, Note_on_c, 0, 85, 54
1, 31503, Note_on_c, 0, 82, 56
1, 31512, Note_off_c, 0, 80, 0
1, 31546, Note_off_c, 0, 82, 59
1, 31546, Note_off_c, 0, 85, 61
1, 31550, Poly_aftertouch_c, 0, 80, 127
1, 31573, Note_on_c, 0, 76, 51
1, 31581, Note_on_c, 0, 71, 62
1, 31602, Note_off_c, 0, 73, 57
1, 31615, Poly_aftertouch_c, 0, 80, 0
1, 31631, Note_on_c, 0, 82, 54
1, 31631, Note_off_c, 0, 76, 60
1, 31638, Note_on_c, 0, 85, 54
1, 31676, Note_off_c, 0, 82, 57
1, 31679, Note_off_c, 0, 85, 63
1, 31694, Poly_aftertouch_c, 0, 80, 127
1, 31697, Note_on_c, 0, 76, 51
1, 31706, Note_on_c, 0, 70, 84
1, 31745, Poly_aftertouch_c, 0, 80, 0
1, 31751, Note_off_c, 0, 71, 55
1, 31758, Note_off_c, 0, 68, 59
1, 31760, Note_off_c, 0, 76, 61
1, 31765, Note_on_c, 0, 82, 55
1, 31780, Note_on_c, 0, 85, 61
1, 31819, Note_off_c, 0, 85, 60
1, 31824, Note_off_c, 0, 82, 58
1, 31826, Note_on_c, 0, 80, 44
1, 31840, Note_on_c, 0, 76, 55
1, 31885, Note_off_c, 0, 80, 56
1, 31900, Note_off_c, 0, 76, 62
1, 31904, Note_on_c, 0, 82, 55
1, 31920, Note_on_c, 0, 85, 57
1, 31959, Note_off_c, 0, 85, 61
1, 31959, Note_off_c, 0, 82, 59
1, 31969, Note_on_c, 0, 80, 51
1, 31977, Note_on_c, 0, 76, 52
1, 31978, Note_on_c, 0, 75, 58
1, 32022, Note_off_c, 0, 76, 60
1, 32029, Note_off_c, 0, 80, 49
1, 32043, Note_on_c, 0, 82, 43
1, 32044, Note_on_c, 0, 85, 47
1, 32075, Note_off_c, 0, 85, 53
1, 32078, Note_off_c, 0, 82, 51
1, 32093, Poly_aftertouch_c, 0, 80, 127
1, 32098, Note_on_c, 0, 76, 58
1, 32099, Note_on_c, 0, 73, 54
1, 32105, Note_off_c, 0, 75, 54
1, 32134, Poly_aftertouch_c, 0, 80, 0
1, 32138, Note_off_c, 0, 76, 58
1, 32146, Note_on_c, 0, 82, 52
1, 32157, Note_on_c, 0, 85, 61
1, 32275, Note_on_c, 0, 71, 58
1, 32328, Control_c, 0, 64, 110
1, 32332, Note_off_c, 0, 85, 53
1, 32336, Note_off_c, 0, 82, 53
1, 32338, Note_off_c, 0, 73, 53
1, 32339, Note_off_c, 0, 70, 57
1, 32343, Note_on_c, 0, 77, 49
1, 32343, Control_c, 0, 64, 97
1, 32348, Note_on_c, 0, 80, 48
1, 32358, Control_c, 0, 64, 87
1, 32373, Control_c, 0, 64, 77
1, 32388, Control_c, 0, 64, 69
1, 32403, Control_c, 0, 64, 62
1, 32418, Control_c, 0, 64, 54
1, 32433, Control_c, 0, 64, 50
1, 32448, Control_c, 0, 64, 51
1, 32463, Control_c, 0, 64, 54
1, 32478, Control_c, 0, 64, 58
1, 32490, Note_off_c, 0, 80, 61
1, 32493, Control_c, 0, 64, 62
1, 32496, Note_on_c, 0, 82, 46
1, 32496, Note_off_c, 0, 77, 61
1, 32507, Control_c, 0, 64, 68
1, 32517, Note_on_c, 0, 85, 39
1, 32522, Control_c, 0, 64, 79
1, 32544, Control_c, 0, 64, 113
1, 32558, Control_c, 0, 64, 127
1, 32577, Note_off_c, 0, 85, 62
1, 32579, Note_off_c, 0, 82, 61
1, 32602, Note_on_c, 0, 80, 47
1, 32618, Note_on_c, 0, 77, 49
1, 32648, Note_off_c, 0, 80, 60
1, 32657, Note_off_c, 0, 77, 60
1, 32675, Note_on_c, 0, 82, 43
1, 32684, Note_on_c, 0, 75, 41
1, 32694, Note_on_c, 0, 85, 48
1, 32718, Note_off_c, 0, 85, 60
1, 32719, Note_off_c, 0, 82, 61
1, 32746, Note_on_c, 0, 80, 51
1, 32755, Note_on_c, 0, 77, 56
1, 32762, Note_on_c, 0, 73, 47
1, 32771, Note_off_c, 0, 75, 54
1, 32792, Note_off_c, 0, 77, 61
1, 32801, Note_off_c, 0, 80, 50
1, 32803, Note_on_c, 0, 85, 62
1, 32816, Note_on_c, 0, 82, 52
1, 32847, Note_off_c, 0, 85, 57
1, 32853, Note_off_c, 0, 82, 61
1, 32872, Poly_aftertouch_c, 0, 80, 127
1, 32882, Note_on_c, 0, 77, 56
1, 32898, Note_on_c, 0, 68, 59
1, 32912, Poly_aftertouch_c, 0, 80, 0
1, 32919, Note_off_c, 0, 77, 57
1, 32934, Note_off_c, 0, 73, 57
1, 32943, Note_on_c, 0, 82, 53
1, 32945, Note_on_c, 0, 85, 51
1, 32949, Note_off_c, 0, 71, 49
1, 32983, Note_off_c, 0, 82, 63
1, 32986, Note_off_c, 0, 85, 65
1, 32994, Note_on_c, 0, 80, 51
1, 33013, Note_on_c, 0, 77, 60
1, 33055, Note_off_c, 0, 77, 60
1, 33064, Note_off_c, 0, 80, 47
1, 33077, Note_on_c, 0, 85, 59
1, 33080, Note_on_c, 0, 82, 51
1, 33116, Note_off_c, 0, 85, 63
1, 33125, Note_off_c, 0, 82, 59
1, 33132, Note_on_c, 0, 80, 34
1, 33149, Note_on_c, 0, 75, 52
1, 33154, Note_on_c, 0, 77, 58
1, 33185, Note_off_c, 0, 77, 55
1, 33205, Note_off_c, 0, 80, 40
1, 33215, Note_off_c, 0, 75, 52
1, 33218, Note_on_c, 0, 82, 47
1, 33223, Note_on_c, 0, 85, 50
1, 33247, Note_on_c, 0, 73, 47
1, 33250, Note_off_c, 0, 82, 53
1, 33255, Note_off_c, 0, 85, 61
1, 33279, Poly_aftertouch_c, 0, 80, 127
1, 33284, Note_on_c, 0, 77, 61
1, 33327, Poly_aftertouch_c, 0, 80, 0
1, 33332, Note_off_c, 0, 77, 57
1, 33354, Note_on_c, 0, 85, 55
1, 33363, Note_on_c, 0, 82, 42
1, 33396, Note_off_c, 0, 85, 63
1, 33396, Note_off_c, 0, 82, 55
1, 33401, Note_on_c, 0, 80, 30
1, 33419, Note_on_c, 0, 65, 56
1, 33426, Note_on_c, 0, 77, 51
1, 33447, Note_off_c, 0, 73, 55
1, 33452, Note_off_c, 0, 80, 49
1, 33460, Note_off_c, 0, 68, 26
1, 33464, Note_off_c, 0, 77, 58
1, 33491, Note_on_c, 0, 85, 48
1, 33500, Note_on_c, 0, 82, 42
1, 33528, Note_off_c, 0, 85, 59
1, 33530, Note_off_c, 0, 82, 53
1, 33533, Note_on_c, 0, 80, 38
1, 33559, Note_on_c, 0, 77, 55
1, 33584, Note_off_c, 0, 80, 52
1, 33594, Note_off_c, 0, 77, 60
1, 33627, Note_on_c, 0, 85, 44
1, 33652, Note_on_c, 0, 82, 9
1, 33658, Note_off_c, 0, 85, 53
1, 33658, Note_on_c, 0, 75, 50
1, 33662, Note_on_c, 0, 80, 36
1, 33684, Note_on_c, 0, 77, 58
1, 33686, Note_off_c, 0, 82, 0
1, 33721, Poly_aftertouch_c, 0, 82, 0
1, 33724, Note_off_c, 0, 77, 61
1, 33744, Note_on_c, 0, 82, 8
1, 33744, Note_off_c, 0, 75, 54
1, 33759, Note_on_c, 0, 85, 44
1, 33760, Note_on_c, 0, 73, 47
1, 33769, Note_off_c, 0, 80, 0
1, 33786, Note_on_c, 0, 80, 28
1, 33791, Note_off_c, 0, 85, 52
1, 33803, Note_off_c, 0, 82, 48
1, 33826, Note_on_c, 0, 77, 53
1, 33834, Note_off_c, 0, 80, 54
1, 33860, Note_off_c, 0, 77, 54
1, 33888, Note_on_c, 0, 85, 45
1, 33892, Note_on_c, 0, 82, 32
1, 33931, Note_off_c, 0, 85, 57
1, 33932, Note_on_c, 0, 68, 49
1, 33934, Note_off_c, 0, 82, 50
1, 33955, Note_on_c, 0, 80, 31
1, 33962, Note_on_c, 0, 77, 50
1, 34000, Note_off_c, 0, 80, 46
1, 34007, Note_off_c, 0, 77, 61
1, 34018, Note_off_c, 0, 73, 33
1, 34041, Note_on_c, 0, 85, 46
1, 34050, Note_on_c, 0, 82, 40
1, 34083, Note_off_c, 0, 82, 53
1, 34086, Note_off_c, 0, 85, 56
1, 34091, Note_off_c, 0, 65, 35
1, 34110, Note_on_c, 0, 80, 37
1, 34123, Note_on_c, 0, 77, 45
1, 34150, Note_off_c, 0, 80, 47
1, 34156, Note_off_c, 0, 77, 55
1, 34179, Note_on_c, 0, 82, 52
1, 34193, Note_on_c, 0, 85, 46
1, 34229, Note_off_c, 0, 82, 58
1, 34234, Note_off_c, 0, 85, 61
1, 34235, Note_on_c, 0, 75, 41
1, 34266, Note_on_c, 0, 77, 42
1, 34293, Note_on_c, 0, 80, 4
1, 34299, Note_off_c, 0, 77, 51
1, 34343, Note_on_c, 0, 85, 48
1, 34345, Note_off_c, 0, 80, 35
1, 34351, Note_on_c, 0, 82, 35
1, 34378, Note_on_c, 0, 73, 33
1, 34379, Note_off_c, 0, 75, 33
1, 34380, Note_off_c, 0, 85, 60
1, 34388, Note_off_c, 0, 82, 50
1, 34404, Note_on_c, 0, 77, 45
1, 34453, Note_off_c, 0, 77, 53
1, 34494, Note_on_c, 0, 85, 48
1, 34502, Note_on_c, 0, 82, 43
1, 34663, Control_c, 0, 64, 121
1, 34678, Control_c, 0, 64, 107
1, 34693, Control_c, 0, 64, 96
1, 34696, Note_on_c, 0, 71, 36
1, 34708, Control_c, 0, 64, 89
1, 34722, Control_c, 0, 64, 83
1, 34724, Note_on_c, 0, 80, 49
1, 34737, Control_c, 0, 64, 76
1, 34752, Control_c, 0, 64, 69
1, 34755, Note_on_c, 0, 77, 39
1, 34775, Control_c, 0, 64, 62
1, 34781, Note_off_c, 0, 82, 37
1, 34790, Control_c, 0, 64, 50
1, 34795, Note_off_c, 0, 85, 31
1, 34797, Note_off_c, 0, 73, 37
1, 34805, Control_c, 0, 64, 41
1, 34820, Control_c, 0, 64, 38
1, 34833, Note_off_c, 0, 68, 27
1, 34849, Control_c, 0, 64, 39
1, 34864, Control_c, 0, 64, 44
1, 34879, Control_c, 0, 64, 52
1, 34894, Control_c, 0, 64, 58
1, 34908, Control_c, 0, 64, 63
1, 34910, Note_off_c, 0, 71, 54
1, 34916, Note_off_c, 0, 77, 54
1, 34923, Control_c, 0, 64, 67
1, 34938, Control_c, 0, 64, 74
1, 34952, Control_c, 0, 64, 86
1, 34955, Note_off_c, 0, 80, 61
1, 34967, Control_c, 0, 64, 103
1, 34982, Control_c, 0, 64, 116
1, 34997, Control_c, 0, 64, 112
1, 35012, Control_c, 0, 64, 106
1, 35027, Control_c, 0, 64, 101
1, 35041, Control_c, 0, 64, 97
1, 35056, Control_c, 0, 64, 92
1, 35071, Control_c, 0, 64, 85
1, 35086, Control_c, 0, 64, 80
1, 35101, Control_c, 0, 64, 77
1, 35116, Control_c, 0, 64, 75
1, 35131, Control_c, 0, 64, 73
1, 35146, Control_c, 0, 64, 70
1, 35160, Control_c, 0, 64, 66
1, 35175, Control_c, 0, 64, 63
1, 35190, Control_c, 0, 64, 60
1, 35205, Control_c, 0, 64, 58
1, 35220, Control_c, 0, 64, 55
1, 35234, Control_c, 0, 64, 51
1, 35249, Control_c, 0, 64, 44
1, 35253, Note_on_c, 0, 82, 69
1, 35262, Note_on_c, 0, 73, 38
1, 35264, Control_c, 0, 64, 37
1, 35270, Note_on_c, 0, 77, 52
1, 35279, Control_c, 0, 64, 36
1, 35308, Control_c, 0, 64, 39
1, 35323, Control_c, 0, 64, 44
1, 35338, Control_c, 0, 64, 49
1, 35352, Control_c, 0, 64, 54
1, 35367, Control_c, 0, 64, 59
1, 35382, Control_c, 0, 64, 63
1, 35396, Note_off_c, 0, 77, 45
1, 35397, Control_c, 0, 64, 66
1, 35412, Control_c, 0, 64, 71
1, 35415, Note_off_c, 0, 73, 55
1, 35426, Control_c, 0, 64, 80
1, 35441, Control_c, 0, 64, 95
1, 35450, Note_off_c, 0, 82, 61
1, 35456, Control_c, 0, 64, 110
1, 35471, Control_c, 0, 64, 113
1, 35486, Control_c, 0, 64, 106
1, 35500, Control_c, 0, 64, 99
1, 35515, Control_c, 0, 64, 94
1, 35538, Control_c, 0, 64, 89
1, 35552, Control_c, 0, 64, 85
1, 35567, Control_c, 0, 64, 81
1, 35583, Control_c, 0, 64, 77
1, 35598, Control_c, 0, 64, 74
1, 35613, Control_c, 0, 64, 71
1, 35628, Control_c, 0, 64, 67
1, 35643, Control_c, 0, 64, 65
1, 35657, Control_c, 0, 64, 63
1, 35672, Control_c, 0, 64, 61
1, 35687, Control_c, 0, 64, 58
1, 35702, Control_c, 0, 64, 54
1, 35717, Control_c, 0, 64, 50
1, 35731, Control_c, 0, 64, 44
1, 35746, Control_c, 0, 64, 36
1, 35761, Control_c, 0, 64, 30
1, 35768, Note_on_c, 0, 83, 77
1, 35769, Note_on_c, 0, 68, 36
1, 35775, Control_c, 0, 64, 30
1, 35799, Note_on_c, 0, 77, 47
1, 35805, Control_c, 0, 64, 30
1, 35820, Control_c, 0, 64, 35
1, 35835, Control_c, 0, 64, 42
1, 35849, Control_c, 0, 64, 49
1, 35864, Control_c, 0, 64, 53
1, 35879, Control_c, 0, 64, 56
1, 35894, Control_c, 0, 64, 60
1, 35909, Control_c, 0, 64, 64
1, 35924, Control_c, 0, 64, 66
1, 35939, Control_c, 0, 64, 71
1, 35954, Control_c, 0, 64, 77
1, 35961, Note_off_c, 0, 77, 34
1, 35968, Control_c, 0, 64, 85
1, 35983, Control_c, 0, 64, 93
1, 35990, Note_off_c, 0, 68, 37
1, 35998, Control_c, 0, 64, 99
1, 36008, Note_off_c, 0, 83, 60
1, 36028, Control_c, 0, 64, 96
1, 36042, Control_c, 0, 64, 94
1, 36057, Control_c, 0, 64, 92
1, 36072, Control_c, 0, 64, 89
1, 36087, Control_c, 0, 64, 85
1, 36101, Control_c, 0, 64, 80
1, 36116, Control_c, 0, 64, 76
1, 36131, Control_c, 0, 64, 74
1, 36146, Control_c, 0, 64, 71
1, 36161, Control_c, 0, 64, 69
1, 36175, Control_c, 0, 64, 66
1, 36190, Control_c, 0, 64, 64
1, 36205, Control_c, 0, 64, 63
1, 36220, Control_c, 0, 64, 62
1, 36235, Control_c, 0, 64, 60
1, 36249, Control_c, 0, 64, 58
1, 36264, Control_c, 0, 64, 57
1, 36287, Control_c, 0, 64, 55
1, 36301, Control_c, 0, 64, 52
1, 36316, Control_c, 0, 64, 47
1, 36331, Control_c, 0, 64, 42
1, 36346, Control_c, 0, 64, 38
1, 36361, Control_c, 0, 64, 36
1, 36375, Note_on_c, 0, 85, 69
1, 36377, Control_c, 0, 64, 35
1, 36384, Note_on_c, 0, 70, 35
1, 36392, Control_c, 0, 64, 33
1, 36398, Note_on_c, 0, 77, 43
1, 36451, Control_c, 0, 64, 36
1, 36466, Control_c, 0, 64, 42
1, 36480, Control_c, 0, 64, 47
1, 36495, Control_c, 0, 64, 51
1, 36510, Control_c, 0, 64, 54
1, 36524, Control_c, 0, 64, 57
1, 36539, Control_c, 0, 64, 59
1, 36554, Control_c, 0, 64, 62
1, 36569, Control_c, 0, 64, 64
1, 36584, Control_c, 0, 64, 65
1, 36598, Control_c, 0, 64, 68
1, 36613, Control_c, 0, 64, 71
1, 36628, Control_c, 0, 64, 76
1, 36643, Control_c, 0, 64, 82
1, 36658, Control_c, 0, 64, 89
1, 36672, Control_c, 0, 64, 94
1, 36687, Control_c, 0, 64, 97
1, 36696, Note_off_c, 0, 77, 33
1, 36702, Control_c, 0, 64, 97
1, 36732, Control_c, 0, 64, 96
1, 36746, Control_c, 0, 64, 94
1, 36758, Note_off_c, 0, 85, 55
1, 36761, Control_c, 0, 64, 93
1, 36776, Control_c, 0, 64, 92
1, 36777, Note_off_c, 0, 70, 37
1, 36791, Control_c, 0, 64, 91
1, 36806, Control_c, 0, 64, 89
1, 36821, Control_c, 0, 64, 86
1, 36836, Control_c, 0, 64, 83
1, 36851, Control_c, 0, 64, 81
1, 36865, Control_c, 0, 64, 80
1, 36880, Control_c, 0, 64, 78
1, 36895, Control_c, 0, 64, 77
1, 36910, Control_c, 0, 64, 75
1, 36924, Control_c, 0, 64, 74
1, 36939, Control_c, 0, 64, 73
1, 36954, Control_c, 0, 64, 73
1, 36969, Control_c, 0, 64, 72
1, 36984, Control_c, 0, 64, 71
1, 36998, Control_c, 0, 64, 70
1, 37013, Control_c, 0, 64, 69
1, 37036, Control_c, 0, 64, 68
1, 37051, Control_c, 0, 64, 67
1, 37065, Control_c, 0, 64, 67
1, 37080, Control_c, 0, 64, 66
1, 37095, Control_c, 0, 64, 65
1, 37110, Control_c, 0, 64, 65
1, 37124, Control_c, 0, 64, 64
1, 37139, Control_c, 0, 64, 64
1, 37154, Control_c, 0, 64, 63
1, 37169, Control_c, 0, 64, 63
1, 37185, Control_c, 0, 64, 62
1, 37200, Control_c, 0, 64, 62
1, 37214, Control_c, 0, 64, 61
1, 37244, Control_c, 0, 64, 60
1, 37259, Control_c, 0, 64, 60
1, 37274, Control_c, 0, 64, 59
1, 37289, Control_c, 0, 64, 58
1, 37303, Control_c, 0, 64, 58
1, 37318, Control_c, 0, 64, 57
1, 37333, Control_c, 0, 64, 57
1, 37347, Control_c, 0, 64, 56
1, 37362, Control_c, 0, 64, 55
1, 37378, Control_c, 0, 64, 54
1, 37393, Control_c, 0, 64, 53
1, 37408, Control_c, 0, 64, 52
1, 37422, Control_c, 0, 64, 51
1, 37437, Control_c, 0, 64, 50
1, 37452, Control_c, 0, 64, 49
1, 37496, Control_c, 0, 64, 50
1, 37511, Control_c, 0, 64, 51
1, 37526, Control_c, 0, 64, 52
1, 37541, Control_c, 0, 64, 54
1, 37555, Control_c, 0, 64, 56
1, 37570, Control_c, 0, 64, 57
1, 37585, Control_c, 0, 64, 59
1, 37600, Control_c, 0, 64, 60
1, 37614, Control_c, 0, 64, 61
1, 37629, Control_c, 0, 64, 62
1, 37644, Control_c, 0, 64, 63
1, 37659, Control_c, 0, 64, 64
1, 37674, Control_c, 0, 64, 66
1, 37688, Control_c, 0, 64, 69
1, 37703, Control_c, 0, 64, 72
1, 37718, Control_c, 0, 64, 76
1, 37733, Control_c, 0, 64, 81
1, 37748, Control_c, 0, 64, 87
1, 37770, Control_c, 0, 64, 98
1, 37785, Control_c, 0, 64, 123
1, 37800, Control_c, 0, 64, 127
1, 37969, Note_on_c, 0, 87, 81
1, 37988, Note_on_c, 0, 81, 55
1, 37989, Note_on_c, 0, 75, 47
1, 37996, Note_on_c, 0, 77, 55
1, 38001, Note_on_c, 0, 71, 44
1, 38913, Note_off_c, 0, 77, 30
1, 39474, Control_c, 0, 64, 104
1, 39487, Note_on_c, 0, 85, 43
1, 39489, Control_c, 0, 64, 92
1, 39498, Note_on_c, 0, 70, 27
1, 39504, Note_on_c, 0, 82, 22
1, 39504, Control_c, 0, 64, 84
1, 39513, Note_on_c, 0, 73, 32
1, 39517, Note_on_c, 0, 77, 32
1, 39519, Control_c, 0, 64, 79
1, 39534, Control_c, 0, 64, 73
1, 39549, Control_c, 0, 64, 66
1, 39562, Note_off_c, 0, 81, 38
1, 39563, Control_c, 0, 64, 57
1, 39579, Control_c, 0, 64, 34
1, 39593, Note_off_c, 0, 71, 33
1, 39594, Control_c, 0, 64, 0
1, 39632, Note_off_c, 0, 75, 56
1, 39698, Control_c, 0, 64, 25
1, 39712, Control_c, 0, 64, 41
1, 39719, Note_off_c, 0, 87, 51
1, 39727, Control_c, 0, 64, 54
1, 39742, Control_c, 0, 64, 61
1, 39757, Control_c, 0, 64, 65
1, 39772, Control_c, 0, 64, 69
1, 39787, Control_c, 0, 64, 75
1, 39802, Control_c, 0, 64, 83
1, 39803, Note_off_c, 0, 82, 37
1, 39805, Note_off_c, 0, 77, 34
1, 39816, Control_c, 0, 64, 94
1, 39831, Control_c, 0, 64, 102
1, 39841, Note_off_c, 0, 70, 35
1, 39841, Note_off_c, 0, 85, 59
1, 39846, Control_c, 0, 64, 105
1, 39859, Note_off_c, 0, 73, 40
1, 39861, Control_c, 0, 64, 104
1, 39876, Control_c, 0, 64, 102
1, 39890, Control_c, 0, 64, 101
1, 39905, Control_c, 0, 64, 99
1, 39920, Control_c, 0, 64, 96
1, 39935, Control_c, 0, 64, 93
1, 39949, Control_c, 0, 64, 89
1, 39964, Control_c, 0, 64, 86
1, 39979, Control_c, 0, 64, 85
1, 39994, Control_c, 0, 64, 82
1, 40009, Control_c, 0, 64, 80
1, 40031, Control_c, 0, 64, 78
1, 40046, Control_c, 0, 64, 76
1, 40061, Control_c, 0, 64, 75
1, 40076, Control_c, 0, 64, 74
1, 40091, Control_c, 0, 64, 73
1, 40105, Control_c, 0, 64, 71
1, 40120, Control_c, 0, 64, 70
1, 40135, Control_c, 0, 64, 68
1, 40149, Control_c, 0, 64, 67
1, 40164, Control_c, 0, 64, 66
1, 40179, Control_c, 0, 64, 65
1, 40194, Control_c, 0, 64, 64
1, 40209, Control_c, 0, 64, 63
1, 40223, Control_c, 0, 64, 62
1, 40238, Control_c, 0, 64, 62
1, 40253, Control_c, 0, 64, 61
1, 40268, Control_c, 0, 64, 60
1, 40283, Control_c, 0, 64, 59
1, 40297, Control_c, 0, 64, 59
1, 40312, Control_c, 0, 64, 58
1, 40327, Control_c, 0, 64, 56
1, 40341, Control_c, 0, 64, 55
1, 40356, Control_c, 0, 64, 55
1, 40372, Control_c, 0, 64, 53
1, 40372, Control_c, 0, 67, 9
1, 40387, Control_c, 0, 64, 51
1, 40387, Control_c, 0, 67, 16
1, 40402, Control_c, 0, 64, 49
1, 40402, Control_c, 0, 67, 23
1, 40417, Control_c, 0, 64, 47
1, 40417, Control_c, 0, 67, 29
1, 40432, Control_c, 0, 64, 45
1, 40432, Control_c, 0, 67, 39
1, 40446, Control_c, 0, 64, 43
1, 40446, Control_c, 0, 67, 48
1, 40461, Control_c, 0, 64, 41
1, 40461, Control_c, 0, 67, 58
1, 40476, Control_c, 0, 64, 36
1, 40476, Control_c, 0, 67, 68
1, 40491, Control_c, 0, 64, 30
1, 40491, Control_c, 0, 67, 78
1, 40506, Control_c, 0, 64, 25
1, 40506, Control_c, 0, 67, 88
1, 40520, Control_c, 0, 64, 20
1, 40520, Control_c, 0, 67, 98
1, 40535, Control_c, 0, 64, 9
1, 40535, Control_c, 0, 67, 107
1, 40550, Control_c, 0, 64, 0
1, 40550, Control_c, 0, 67, 115
1, 40565, Control_c, 0, 67, 124
1, 40580, Control_c, 0, 67, 127
1, 40928, Control_c, 0, 64, 12
1, 40943, Control_c, 0, 64, 28
1, 40958, Control_c, 0, 64, 40
1, 40972, Control_c, 0, 64, 49
1, 40987, Control_c, 0, 64, 54
1, 41002, Control_c, 0, 64, 57
1, 41017, Control_c, 0, 64, 59
1, 41032, Control_c, 0, 64, 62
1, 41046, Control_c, 0, 64, 64
1, 41061, Control_c, 0, 64, 66
1, 41076, Control_c, 0, 64, 69
1, 41091, Control_c, 0, 64, 72
1, 41106, Control_c, 0, 64, 76
1, 41121, Control_c, 0, 64, 82
1, 41136, Control_c, 0, 64, 89
1, 41151, Control_c, 0, 64, 96
1, 41167, Control_c, 0, 64, 107
1, 41182, Control_c, 0, 64, 127
1, 41424, Note_on_c, 0, 87, 56
1, 41448, Note_on_c, 0, 75, 28
1, 41467, Note_on_c, 0, 71, 23
1, 41468, Note_on_c, 0, 77, 42
1, 41469, Note_on_c, 0, 81, 30
1, 42189, Note_off_c, 0, 77, 24
1, 42504, Note_off_c, 0, 81, 33
1, 43168, Note_on_c, 0, 85, 46
1, 43176, Note_on_c, 0, 70, 25
1, 43179, Note_on_c, 0, 73, 26
1, 43189, Control_c, 0, 64, 118
1, 43200, Note_on_c, 0, 77, 30
1, 43201, Note_on_c, 0, 82, 35
1, 43204, Control_c, 0, 64, 110
1, 43219, Control_c, 0, 64, 102
1, 43233, Control_c, 0, 64, 95
1, 43248, Control_c, 0, 64, 87
1, 43263, Control_c, 0, 64, 80
1, 43278, Control_c, 0, 64, 74
1, 43293, Control_c, 0, 64, 70
1, 43307, Control_c, 0, 64, 66
1, 43308, Note_off_c, 0, 71, 35
1, 43322, Control_c, 0, 64, 62
1, 43332, Note_off_c, 0, 75, 39
1, 43337, Control_c, 0, 64, 60
1, 43349, Note_off_c, 0, 87, 36
1, 43352, Control_c, 0, 64, 59
1, 43367, Control_c, 0, 64, 57
1, 43382, Control_c, 0, 64, 51
1, 43397, Control_c, 0, 64, 38
1, 43412, Control_c, 0, 64, 0
1, 43561, Control_c, 0, 64, 36
1, 43576, Control_c, 0, 64, 55
1, 43590, Control_c, 0, 64, 63
1, 43605, Control_c, 0, 64, 67
1, 43620, Control_c, 0, 64, 73
1, 43635, Control_c, 0, 64, 84
1, 43650, Control_c, 0, 64, 98
1, 43664, Control_c, 0, 64, 127
1, 43728, Note_off_c, 0, 70, 33
1, 43772, Note_off_c, 0, 77, 31
1, 43781, Note_off_c, 0, 82, 38
1, 43843, Note_off_c, 0, 73, 0
1, 43880, Poly_aftertouch_c, 0, 73, 127
1, 43925, Note_off_c, 0, 85, 38
1, 44244, Note_on_c, 0, 70, 22
1, 44249, Control_c, 0, 64, 118
1, 44263, Control_c, 0, 64, 103
1, 44278, Control_c, 0, 64, 94
1, 44293, Control_c, 0, 64, 85
1, 44294, Note_on_c, 0, 85, 64
1, 44307, Control_c, 0, 64, 79
1, 44318, Note_on_c, 0, 78, 43
1, 44322, Control_c, 0, 64, 75
1, 44337, Control_c, 0, 64, 70
1, 44352, Control_c, 0, 64, 64
1, 44361, Poly_aftertouch_c, 0, 73, 0
1, 44368, Control_c, 0, 64, 55
1, 44383, Control_c, 0, 64, 32
1, 44398, Control_c, 0, 64, 23
1, 44412, Control_c, 0, 64, 24
1, 44427, Control_c, 0, 64, 31
1, 44442, Control_c, 0, 64, 42
1, 44457, Control_c, 0, 64, 54
1, 44472, Control_c, 0, 64, 64
1, 44486, Control_c, 0, 64, 70
1, 44501, Control_c, 0, 64, 81
1, 44524, Control_c, 0, 64, 105
1, 44539, Control_c, 0, 64, 127
1, 44559, Note_off_c, 0, 70, 41
1, 44586, Note_on_c, 0, 73, 38
1, 44629, Note_off_c, 0, 73, 59
1, 44689, Note_on_c, 0, 70, 30
1, 44723, Note_off_c, 0, 70, 52
1, 44750, Note_on_c, 0, 73, 40
1, 44780, Note_off_c, 0, 73, 54
1, 44816, Note_on_c, 0, 70, 48
1, 44843, Note_off_c, 0, 70, 64
1, 44870, Note_on_c, 0, 73, 50
1, 44898, Note_off_c, 0, 73, 58
1, 44926, Note_on_c, 0, 70, 59
1, 44958, Note_off_c, 0, 70, 66
1, 44971, Note_off_c, 0, 78, 24
1, 44984, Note_on_c, 0, 73, 57
1, 45021, Note_off_c, 0, 73, 60
1, 45045, Note_on_c, 0, 70, 56
1, 45075, Note_off_c, 0, 70, 65
1, 45102, Note_on_c, 0, 73, 51
1, 45126, Note_off_c, 0, 73, 58
1, 45162, Note_on_c, 0, 70, 50
1, 45182, Note_off_c, 0, 70, 62
1, 45211, Note_on_c, 0, 73, 54
1, 45238, Note_off_c, 0, 73, 55
1, 45265, Note_on_c, 0, 70, 57
1, 45297, Note_off_c, 0, 70, 63
1, 45337, Note_on_c, 0, 73, 51
1, 45373, Note_off_c, 0, 73, 56
1, 45402, Note_on_c, 0, 82, 73
1, 45411, Note_on_c, 0, 66, 45
1, 45436, Note_on_c, 0, 78, 51
1, 45449, Note_off_c, 0, 66, 62
1, 45478, Note_on_c, 0, 73, 51
1, 45518, Note_off_c, 0, 73, 61
1, 45556, Note_on_c, 0, 66, 53
1, 45591, Note_off_c, 0, 66, 63
1, 45621, Note_on_c, 0, 73, 45
1, 45626, Note_off_c, 0, 85, 31
1, 45647, Note_off_c, 0, 73, 57
1, 45689, Note_on_c, 0, 66, 37
1, 45717, Note_off_c, 0, 66, 54
1, 45730, Note_on_c, 0, 73, 56
1, 45746, Note_off_c, 0, 78, 57
1, 45764, Note_off_c, 0, 73, 56
1, 45807, Note_on_c, 0, 66, 44
1, 45830, Note_off_c, 0, 66, 57
1, 45853, Note_on_c, 0, 73, 52
1, 45892, Note_off_c, 0, 73, 60
1, 45926, Note_on_c, 0, 70, 48
1, 45932, Note_on_c, 0, 85, 84
1, 45964, Note_off_c, 0, 70, 64
1, 45967, Note_on_c, 0, 78, 58
1, 45993, Note_on_c, 0, 73, 52
1, 46037, Note_off_c, 0, 73, 62
1, 46065, Note_off_c, 0, 82, 53
1, 46066, Note_on_c, 0, 70, 51
1, 46095, Note_off_c, 0, 70, 64
1, 46125, Note_on_c, 0, 73, 55
1, 46152, Note_off_c, 0, 73, 61
1, 46175, Note_on_c, 0, 70, 61
1, 46181, Note_off_c, 0, 78, 58
1, 46203, Note_off_c, 0, 70, 68
1, 46235, Note_on_c, 0, 73, 59
1, 46273, Note_off_c, 0, 73, 61
1, 46301, Note_on_c, 0, 70, 59
1, 46331, Note_off_c, 0, 70, 65
1, 46357, Note_on_c, 0, 73, 60
1, 46402, Note_off_c, 0, 73, 55
1, 46438, Note_on_c, 0, 66, 47
1, 46447, Note_on_c, 0, 82, 80
1, 46482, Note_on_c, 0, 78, 56
1, 46484, Note_off_c, 0, 66, 60
1, 46532, Note_on_c, 0, 73, 45
1, 46547, Note_off_c, 0, 85, 62
1, 46566, Note_off_c, 0, 73, 62
1, 46595, Note_on_c, 0, 66, 53
1, 46632, Note_off_c, 0, 66, 64
1, 46664, Note_on_c, 0, 73, 52
1, 46688, Note_off_c, 0, 73, 60
1, 46733, Note_on_c, 0, 66, 37
1, 46771, Note_off_c, 0, 66, 53
1, 46775, Note_on_c, 0, 73, 58
1, 46810, Note_off_c, 0, 73, 63
1, 46857, Note_on_c, 0, 66, 28
1, 46890, Note_off_c, 0, 66, 50
1, 46894, Note_on_c, 0, 73, 54
1, 46920, Note_off_c, 0, 73, 56
1, 46953, Note_on_c, 0, 66, 40
1, 46980, Note_off_c, 0, 66, 60
1, 46997, Note_on_c, 0, 73, 65
1, 47039, Note_off_c, 0, 73, 59
1, 47062, Note_on_c, 0, 66, 62
1, 47096, Note_off_c, 0, 66, 62
1, 47131, Note_on_c, 0, 73, 48
1, 47159, Note_off_c, 0, 73, 58
1, 47179, Note_off_c, 0, 78, 38
1, 47183, Note_on_c, 0, 66, 57
1, 47213, Note_off_c, 0, 66, 65
1, 47246, Note_on_c, 0, 73, 51
1, 47269, Note_off_c, 0, 73, 56
1, 47311, Note_on_c, 0, 66, 44
1, 47339, Note_off_c, 0, 66, 55
1, 47364, Note_on_c, 0, 73, 38
1, 47395, Note_off_c, 0, 73, 51
1, 47415, Note_on_c, 0, 78, 64
1, 47430, Note_on_c, 0, 61, 44
1, 47443, Note_off_c, 0, 82, 53
1, 47457, Note_on_c, 0, 70, 41
1, 47458, Note_off_c, 0, 61, 59
1, 47490, Note_on_c, 0, 73, 49
1, 47534, Note_off_c, 0, 73, 60
1, 47548, Note_on_c, 0, 61, 61
1, 47583, Note_off_c, 0, 61, 63
1, 47623, Note_off_c, 0, 70, 33
1, 47635, Note_on_c, 0, 73, 40
1, 47662, Note_off_c, 0, 73, 52
1, 47674, Note_on_c, 0, 61, 50
1, 47700, Note_off_c, 0, 61, 61
1, 47722, Note_off_c, 0, 78, 54
1, 47743, Note_on_c, 0, 73, 59
1, 47765, Note_off_c, 0, 73, 61
1, 47796, Note_on_c, 0, 61, 50
1, 47828, Note_off_c, 0, 61, 64
1, 47865, Note_on_c, 0, 73, 50
1, 47900, Note_on_c, 0, 82, 60
1, 47922, Note_on_c, 0, 70, 41
1, 47922, Note_off_c, 0, 73, 50
1, 47923, Note_on_c, 0, 78, 43
1, 47998, Note_off_c, 0, 70, 41
1, 48004, Poly_aftertouch_c, 0, 61, 127
1, 48011, Poly_aftertouch_c, 0, 73, 127
1, 48047, Poly_aftertouch_c, 0, 73, 0
1, 48065, Poly_aftertouch_c, 0, 61, 0
1, 48085, Note_on_c, 0, 61, 15
1, 48128, Note_off_c, 0, 61, 46
1, 48157, Note_on_c, 0, 73, 50
1, 48181, Note_off_c, 0, 78, 29
1, 48196, Note_off_c, 0, 73, 52
1, 48232, Note_on_c, 0, 61, 43
1, 48268, Note_off_c, 0, 61, 55
1, 48302, Note_on_c, 0, 73, 53
1, 48338, Note_off_c, 0, 73, 57
1, 48372, Note_on_c, 0, 61, 45
1, 48438, Note_off_c, 0, 61, 46
1, 48472, Note_on_c, 0, 73, 47
1, 48510, Note_off_c, 0, 73, 65
1, 48682, Control_c, 0, 64, 113
1, 48697, Control_c, 0, 64, 98
1, 48712, Control_c, 0, 64, 84
1, 48718, Note_on_c, 0, 73, 66
1, 48719, Note_off_c, 0, 82, 63
1, 48727, Control_c, 0, 64, 71
1, 48742, Control_c, 0, 64, 62
1, 48757, Control_c, 0, 64, 48
1, 48758, Note_on_c, 0, 78, 44
1, 48771, Control_c, 0, 64, 43
1, 48786, Control_c, 0, 64, 46
1, 48801, Control_c, 0, 64, 51
1, 48816, Control_c, 0, 64, 56
1, 48831, Control_c, 0, 64, 61
1, 48845, Control_c, 0, 64, 68
1, 48860, Control_c, 0, 64, 77
1, 48875, Control_c, 0, 64, 99
1, 48890, Control_c, 0, 64, 127
1, 48892, Note_off_c, 0, 73, 64
1, 48900, Note_off_c, 0, 78, 40
1, 48916, Note_on_c, 0, 85, 46
1, 48921, Note_on_c, 0, 82, 37
1, 48969, Note_off_c, 0, 82, 53
1, 48979, Note_off_c, 0, 85, 58
1, 49018, Note_on_c, 0, 42, 38
1, 49035, Note_on_c, 0, 78, 37
1, 49039, Note_on_c, 0, 73, 43
1, 49052, Note_off_c, 0, 42, 51
1, 49063, Note_off_c, 0, 78, 49
1, 49064, Note_off_c, 0, 73, 54
1, 49079, Note_on_c, 0, 82, 60
1, 49080, Note_on_c, 0, 49, 46
1, 49107, Note_on_c, 0, 85, 41
1, 49114, Note_off_c, 0, 82, 65
1, 49124, Note_off_c, 0, 49, 61
1, 49134, Note_off_c, 0, 85, 53
1, 49147, Note_on_c, 0, 54, 51
1, 49148, Note_on_c, 0, 73, 54
1, 49152, Note_on_c, 0, 78, 51
1, 49171, Note_off_c, 0, 73, 59
1, 49174, Note_off_c, 0, 78, 58
1, 49183, Note_off_c, 0, 54, 64
1, 49216, Note_on_c, 0, 82, 37
1, 49219, Note_on_c, 0, 58, 66
1, 49220, Note_on_c, 0, 85, 36
1, 49242, Note_on_c, 0, 73, 67
1, 49243, Note_off_c, 0, 82, 48
1, 49245, Note_off_c, 0, 58, 64
1, 49250, Note_off_c, 0, 85, 48
1, 49268, Note_on_c, 0, 78, 34
1, 49269, Note_off_c, 0, 73, 66
1, 49297, Note_off_c, 0, 78, 45
1, 49305, Note_on_c, 0, 85, 47
1, 49323, Note_on_c, 0, 82, 33
1, 49353, Note_on_c, 0, 78, 48
1, 49358, Note_on_c, 0, 73, 55
1, 49371, Note_off_c, 0, 85, 0
1, 49373, Note_off_c, 0, 82, 0
1, 49374, Note_off_c, 0, 78, 59
1, 49376, Note_off_c, 0, 73, 63
1, 49387, Note_on_c, 0, 82, 41
1, 49409, Poly_aftertouch_c, 0, 85, 127
1, 49428, Note_off_c, 0, 82, 58
1, 49438, Poly_aftertouch_c, 0, 85, 0
1, 49447, Note_on_c, 0, 73, 64
1, 49452, Note_on_c, 0, 78, 40
1, 49478, Note_off_c, 0, 78, 51
1, 49478, Note_on_c, 0, 54, 49
1, 49478, Note_off_c, 0, 73, 64
1, 49481, Note_on_c, 0, 82, 56
1, 49484, Note_on_c, 0, 85, 41
1, 49505, Note_off_c, 0, 54, 58
1, 49552, Note_on_c, 0, 73, 60
1, 49562, Note_on_c, 0, 78, 44
1, 49568, Note_off_c, 0, 85, 62
1, 49598, Note_off_c, 0, 73, 62
1, 49599, Note_off_c, 0, 82, 56
1, 49600, Note_off_c, 0, 78, 58
1, 49658, Note_on_c, 0, 63, 57
1, 49696, Note_off_c, 0, 63, 62
1, 49725, Note_on_c, 0, 61, 46
1, 49762, Note_on_c, 0, 70, 69
1, 49785, Note_off_c, 0, 61, 58
1, 49804, Note_on_c, 0, 73, 37
1, 49828, Note_on_c, 0, 63, 44
1, 49833, Note_off_c, 0, 73, 54
1, 49838, Note_off_c, 0, 70, 61
1, 49857, Note_off_c, 0, 63, 61
1, 49868, Note_on_c, 0, 78, 54
1, 49880, Note_on_c, 0, 82, 40
1, 49890, Note_on_c, 0, 61, 56
1, 49905, Note_off_c, 0, 78, 61
1, 49911, Note_off_c, 0, 82, 51
1, 49922, Note_on_c, 0, 73, 47
1, 49925, Note_off_c, 0, 61, 64
1, 49933, Note_on_c, 0, 70, 52
1, 49940, Note_on_c, 0, 63, 62
1, 49948, Note_off_c, 0, 73, 56
1, 49965, Note_off_c, 0, 70, 61
1, 49970, Note_off_c, 0, 63, 66
1, 49991, Note_on_c, 0, 78, 47
1, 50002, Note_on_c, 0, 61, 57
1, 50007, Note_on_c, 0, 82, 30
1, 50030, Note_off_c, 0, 61, 63
1, 50040, Note_on_c, 0, 63, 63
1, 50041, Note_on_c, 0, 73, 52
1, 50053, Note_on_c, 0, 70, 46
1, 50053, Note_off_c, 0, 78, 0
1, 50068, Note_off_c, 0, 63, 66
1, 50069, Note_on_c, 0, 78, 35
1, 50080, Note_off_c, 0, 73, 64
1, 50084, Note_off_c, 0, 70, 62
1, 50089, Note_off_c, 0, 82, 0
1, 50095, Note_on_c, 0, 61, 62
1, 50107, Note_on_c, 0, 82, 25
1, 50127, Note_off_c, 0, 61, 63
1, 50133, Note_off_c, 0, 78, 61
1, 50147, Note_on_c, 0, 63, 65
1, 50167, Note_off_c, 0, 63, 65
1, 50168, Note_off_c, 0, 82, 61
1, 50184, Note_on_c, 0, 61, 61
1, 50220, Note_off_c, 0, 61, 59
1, 50235, Note_on_c, 0, 63, 62
1, 50235, Note_on_c, 0, 73, 72
1, 50271, Note_off_c, 0, 73, 63
1, 50274, Note_on_c, 0, 78, 28
1, 50274, Note_off_c, 0, 63, 62
1, 50277, Note_on_c, 0, 82, 70
1, 50280, Note_on_c, 0, 85, 71
1, 50290, Note_on_c, 0, 61, 59
1, 50319, Note_off_c, 0, 82, 58
1, 50322, Note_off_c, 0, 78, 0
1, 50322, Note_on_c, 0, 78, 25
1, 50329, Note_off_c, 0, 61, 61
1, 50339, Note_off_c, 0, 85, 0
1, 50350, Note_on_c, 0, 63, 60
1, 50351, Note_on_c, 0, 73, 57
1, 50363, Note_off_c, 0, 78, 62
1, 50372, Note_off_c, 0, 73, 62
1, 50375, Note_off_c, 0, 63, 62
1, 50376, Poly_aftertouch_c, 0, 85, 127
1, 50382, Note_on_c, 0, 82, 45
1, 50399, Note_on_c, 0, 61, 60
1, 50411, Note_on_c, 0, 78, 57
1, 50415, Note_off_c, 0, 82, 54
1, 50429, Note_on_c, 0, 73, 68
1, 50431, Note_off_c, 0, 61, 63
1, 50441, Note_on_c, 0, 63, 69
1, 50472, Note_off_c, 0, 63, 60
1, 50475, Note_on_c, 0, 82, 36
1, 50508, Note_off_c, 0, 82, 56
1, 50514, Poly_aftertouch_c, 0, 85, 0
1, 50516, Note_on_c, 0, 61, 44
1, 50519, Note_off_c, 0, 78, 34
1, 50536, Note_off_c, 0, 61, 61
1, 50540, Note_off_c, 0, 73, 62
1, 50567, Note_on_c, 0, 63, 43
1, 50593, Note_off_c, 0, 63, 56
1, 50614, Note_on_c, 0, 61, 40
1, 50641, Note_off_c, 0, 61, 54
1, 50647, Note_on_c, 0, 63, 57
1, 50680, Note_off_c, 0, 63, 63
1, 50696, Note_on_c, 0, 61, 54
1, 50723, Note_off_c, 0, 61, 62
1, 50766, Control_c, 0, 64, 100
1, 50775, Note_on_c, 0, 70, 75
1, 50781, Control_c, 0, 64, 76
1, 50796, Control_c, 0, 64, 59
1, 50802, Note_on_c, 0, 73, 53
1, 50810, Control_c, 0, 64, 0
1, 50855, Control_c, 0, 64, 25
1, 50870, Control_c, 0, 64, 47
1, 50885, Control_c, 0, 64, 60
1, 50900, Control_c, 0, 64, 69
1, 50915, Control_c, 0, 64, 82
1, 50916, Note_off_c, 0, 73, 63
1, 50924, Note_off_c, 0, 70, 62
1, 50929, Control_c, 0, 64, 127
1, 50933, Note_on_c, 0, 78, 52
1, 50956, Note_on_c, 0, 82, 53
1, 50988, Note_off_c, 0, 78, 59
1, 50999, Note_off_c, 0, 82, 62
1, 51038, Note_on_c, 0, 42, 46
1, 51046, Note_on_c, 0, 70, 54
1, 51069, Note_off_c, 0, 42, 60
1, 51070, Note_off_c, 0, 70, 59
1, 51105, Note_on_c, 0, 78, 52
1, 51106, Note_on_c, 0, 49, 50
1, 51111, Note_on_c, 0, 82, 53
1, 51126, Note_off_c, 0, 78, 63
1, 51128, Poly_aftertouch_c, 0, 73, 0
1, 51129, Note_off_c, 0, 82, 62
1, 51149, Note_on_c, 0, 73, 29
1, 51150, Note_on_c, 0, 70, 65
1, 51161, Note_off_c, 0, 49, 57
1, 51180, Note_on_c, 0, 54, 62
1, 51180, Note_off_c, 0, 70, 67
1, 51182, Note_off_c, 0, 73, 63
1, 51202, Note_on_c, 0, 78, 70
1, 51206, Note_on_c, 0, 82, 64
1, 51237, Note_off_c, 0, 78, 62
1, 51243, Note_off_c, 0, 54, 60
1, 51253, Note_off_c, 0, 82, 61
1, 51278, Note_on_c, 0, 70, 69
1, 51281, Note_on_c, 0, 58, 58
1, 51284, Note_on_c, 0, 73, 55
1, 51302, Note_off_c, 0, 58, 60
1, 51304, Note_off_c, 0, 73, 61
1, 51309, Note_off_c, 0, 70, 65
1, 51343, Note_on_c, 0, 78, 59
1, 51348, Note_on_c, 0, 82, 57
1, 51368, Note_off_c, 0, 78, 62
1, 51371, Note_off_c, 0, 82, 62
1, 51378, Note_on_c, 0, 73, 65
1, 51391, Note_on_c, 0, 70, 65
1, 51416, Note_off_c, 0, 70, 64
1, 51416, Note_off_c, 0, 73, 58
1, 51442, Note_on_c, 0, 78, 66
1, 51447, Note_on_c, 0, 82, 62
1, 51481, Note_off_c, 0, 78, 60
1, 51487, Note_off_c, 0, 82, 59
1, 51499, Note_on_c, 0, 73, 48
1, 51503, Note_on_c, 0, 54, 64
1, 51520, Note_off_c, 0, 73, 62
1, 51527, Note_on_c, 0, 70, 35
1, 51540, Note_off_c, 0, 54, 64
1, 51553, Note_on_c, 0, 78, 52
1, 51560, Note_off_c, 0, 70, 51
1, 51595, Note_on_c, 0, 73, 61
1, 51599, Poly_aftertouch_c, 0, 82, 0
1, 51608, Note_on_c, 0, 70, 53
1, 51610, Note_off_c, 0, 78, 46
1, 51628, Note_off_c, 0, 73, 63
1, 51639, Note_off_c, 0, 70, 66
1, 51700, Note_on_c, 0, 63, 47
1, 51730, Note_off_c, 0, 63, 57
1, 51752, Note_on_c, 0, 61, 48
1, 51769, Note_on_c, 0, 66, 67
1, 51795, Note_on_c, 0, 70, 39
1, 51806, Note_off_c, 0, 61, 58
1, 51828, Note_off_c, 0, 70, 60
1, 51840, Note_off_c, 0, 66, 61
1, 51841, Note_on_c, 0, 63, 42
1, 51854, Note_on_c, 0, 73, 57
1, 51875, Note_on_c, 0, 78, 54
1, 51877, Note_off_c, 0, 63, 62
1, 51901, Note_off_c, 0, 73, 58
1, 51911, Note_off_c, 0, 78, 62
1, 51914, Note_on_c, 0, 61, 51
1, 51923, Note_on_c, 0, 70, 53
1, 51932, Note_on_c, 0, 66, 54
1, 51949, Note_off_c, 0, 61, 64
1, 51958, Note_off_c, 0, 70, 63
1, 51965, Note_off_c, 0, 66, 63
1, 51967, Note_on_c, 0, 63, 59
1, 51985, Note_on_c, 0, 73, 54
1, 52003, Note_on_c, 0, 78, 57
1, 52005, Note_off_c, 0, 63, 64
1, 52034, Note_on_c, 0, 61, 57
1, 52040, Note_off_c, 0, 73, 60
1, 52046, Note_off_c, 0, 78, 55
1, 52062, Note_on_c, 0, 66, 61
1, 52070, Note_off_c, 0, 61, 60
1, 52074, Note_on_c, 0, 63, 65
1, 52077, Note_on_c, 0, 70, 30
1, 52111, Note_off_c, 0, 63, 62
1, 52117, Poly_aftertouch_c, 0, 78, 127
1, 52120, Note_on_c, 0, 73, 43
1, 52121, Note_on_c, 0, 61, 56
1, 52142, Note_off_c, 0, 66, 60
1, 52154, Note_off_c, 0, 70, 35
1, 52162, Note_off_c, 0, 61, 57
1, 52171, Note_off_c, 0, 73, 63
1, 52189, Note_on_c, 0, 63, 57
1, 52191, Poly_aftertouch_c, 0, 78, 0
1, 52214, Note_off_c, 0, 63, 62
1, 52223, Note_on_c, 0, 61, 56
1, 52269, Note_on_c, 0, 70, 69
1, 52271, Note_off_c, 0, 61, 56
1, 52280, Note_on_c, 0, 73, 58
1, 52291, Note_on_c, 0, 63, 55
1, 52307, Note_off_c, 0, 70, 59
1, 52317, Note_off_c, 0, 73, 65
1, 52325, Note_off_c, 0, 63, 60
1, 52331, Note_on_c, 0, 78, 59
1, 52340, Note_on_c, 0, 61, 53
1, 52340, Note_on_c, 0, 82, 59
1, 52378, Note_off_c, 0, 78, 59
1, 52378, Note_off_c, 0, 82, 60
1, 52380, Note_off_c, 0, 61, 56
1, 52416, Note_on_c, 0, 63, 53
1, 52423, Note_on_c, 0, 70, 55
1, 52423, Note_on_c, 0, 73, 38
1, 52437, Note_off_c, 0, 63, 60
1, 52454, Note_on_c, 0, 61, 50
1, 52454, Note_off_c, 0, 70, 64
1, 52454, Note_off_c, 0, 73, 52
1, 52482, Note_on_c, 0, 78, 53
1, 52486, Note_on_c, 0, 82, 55
1, 52498, Note_off_c, 0, 61, 57
1, 52520, Note_on_c, 0, 63, 51
1, 52525, Note_off_c, 0, 78, 64
1, 52541, Note_off_c, 0, 82, 58
1, 52547, Note_off_c, 0, 63, 56
1, 52566, Note_on_c, 0, 61, 56
1, 52570, Note_on_c, 0, 73, 30
1, 52588, Note_on_c, 0, 70, 20
1, 52605, Note_off_c, 0, 73, 53
1, 52609, Note_off_c, 0, 61, 57
1, 52628, Note_on_c, 0, 78, 52
1, 52629, Note_off_c, 0, 70, 41
1, 52641, Note_on_c, 0, 82, 31
1, 52657, Note_on_c, 0, 63, 18
1, 52670, Note_off_c, 0, 78, 58
1, 52676, Note_on_c, 0, 61, 57
1, 52687, Note_off_c, 0, 82, 49
1, 52710, Note_on_c, 0, 70, 41
1, 52717, Note_off_c, 0, 61, 60
1, 52723, Note_off_c, 0, 63, 0
1, 52736, Note_on_c, 0, 63, 33
1, 52775, Note_off_c, 0, 63, 53
1, 52799, Note_off_c, 0, 70, 51
1, 52803, Note_on_c, 0, 61, 40
1, 52820, Note_on_c, 0, 78, 30
1, 52828, Note_off_c, 0, 61, 57
1, 52844, Note_on_c, 0, 63, 49
1, 52879, Note_off_c, 0, 78, 41
1, 52887, Poly_aftertouch_c, 0, 82, 0
1, 52896, Note_off_c, 0, 63, 54
1, 52918, Note_on_c, 0, 61, 54
1, 53115, Control_c, 0, 64, 118
1, 53130, Control_c, 0, 64, 100
1, 53141, Note_on_c, 0, 65, 43
1, 53146, Control_c, 0, 64, 92
1, 53161, Control_c, 0, 64, 88
1, 53176, Control_c, 0, 64, 85
1, 53183, Note_on_c, 0, 69, 58
1, 53191, Control_c, 0, 64, 82
1, 53203, Note_on_c, 0, 73, 37
1, 53205, Control_c, 0, 64, 78
1, 53220, Control_c, 0, 64, 74
1, 53235, Control_c, 0, 64, 69
1, 53249, Control_c, 0, 64, 64
1, 53253, Note_off_c, 0, 61, 37
1, 53264, Control_c, 0, 64, 59
1, 53279, Control_c, 0, 64, 49
1, 53294, Control_c, 0, 64, 40
1, 53309, Control_c, 0, 64, 36
1, 53338, Control_c, 0, 64, 40
1, 53353, Control_c, 0, 64, 46
1, 53368, Control_c, 0, 64, 54
1, 53383, Control_c, 0, 64, 62
1, 53398, Control_c, 0, 64, 68
1, 53413, Control_c, 0, 64, 78
1, 53428, Note_off_c, 0, 73, 52
1, 53428, Control_c, 0, 64, 97
1, 53442, Control_c, 0, 64, 127
1, 53457, Note_off_c, 0, 69, 59
1, 53479, Note_on_c, 0, 77, 45
1, 53499, Note_on_c, 0, 81, 43
1, 53543, Note_off_c, 0, 77, 59
1, 53556, Note_off_c, 0, 81, 59
1, 53577, Note_on_c, 0, 73, 41
1, 53592, Note_on_c, 0, 69, 49
1, 53613, Note_off_c, 0, 73, 51
1, 53622, Note_off_c, 0, 69, 55
1, 53657, Note_on_c, 0, 77, 52
1, 53695, Note_on_c, 0, 81, 18
1, 53699, Note_off_c, 0, 77, 62
1, 53717, Note_on_c, 0, 69, 54
1, 53734, Note_on_c, 0, 73, 38
1, 53739, Note_off_c, 0, 81, 45
1, 53770, Note_off_c, 0, 69, 57
1, 53773, Note_off_c, 0, 73, 49
1, 53793, Note_on_c, 0, 77, 49
1, 53798, Note_on_c, 0, 81, 34
1, 53839, Note_off_c, 0, 77, 61
1, 53854, Note_off_c, 0, 81, 56
1, 53855, Note_on_c, 0, 63, 56
1, 53856, Note_on_c, 0, 73, 36
1, 53875, Note_on_c, 0, 69, 42
1, 53907, Note_off_c, 0, 69, 52
1, 53934, Note_on_c, 0, 77, 52
1, 53940, Note_off_c, 0, 73, 0
1, 53970, Note_on_c, 0, 81, 5
1, 53977, Note_off_c, 0, 77, 62
1, 53979, Poly_aftertouch_c, 0, 73, 127
1, 53990, Note_off_c, 0, 65, 48
1, 54000, Note_on_c, 0, 73, 3
1, 54010, Note_on_c, 0, 69, 59
1, 54022, Note_off_c, 0, 81, 46
1, 54065, Note_off_c, 0, 69, 56
1, 54075, Note_on_c, 0, 77, 57
1, 54122, Note_off_c, 0, 77, 61
1, 54126, Note_on_c, 0, 65, 76
1, 54134, Poly_aftertouch_c, 0, 81, 127
1, 54149, Note_on_c, 0, 69, 51
1, 54180, Poly_aftertouch_c, 0, 81, 0
1, 54197, Note_off_c, 0, 63, 57
1, 54235, Note_on_c, 0, 77, 56
1, 54266, Note_off_c, 0, 69, 0
1, 54271, Note_off_c, 0, 73, 0
1, 54278, Note_off_c, 0, 77, 64
1, 54279, Note_on_c, 0, 69, 44
1, 54307, Poly_aftertouch_c, 0, 73, 127
1, 54319, Note_on_c, 0, 63, 76
1, 54362, Note_on_c, 0, 77, 61
1, 54376, Note_off_c, 0, 69, 59
1, 54382, Note_off_c, 0, 65, 52
1, 54386, Note_on_c, 0, 81, 60
1, 54391, Poly_aftertouch_c, 0, 73, 0
1, 54437, Note_off_c, 0, 77, 59
1, 54535, Note_on_c, 0, 61, 47
1, 54536, Note_off_c, 0, 81, 60
1, 54540, Control_c, 0, 64, 102
1, 54554, Control_c, 0, 64, 87
1, 54569, Control_c, 0, 64, 76
1, 54575, Note_on_c, 0, 70, 61
1, 54578, Note_off_c, 0, 63, 57
1, 54584, Control_c, 0, 64, 67
1, 54596, Note_on_c, 0, 73, 48
1, 54597, Control_c, 0, 64, 56
1, 54612, Control_c, 0, 64, 32
1, 54627, Control_c, 0, 64, 15
1, 54642, Control_c, 0, 64, 16
1, 54657, Control_c, 0, 64, 21
1, 54671, Control_c, 0, 64, 34
1, 54686, Control_c, 0, 64, 47
1, 54701, Control_c, 0, 64, 60
1, 54706, Note_off_c, 0, 73, 61
1, 54716, Control_c, 0, 64, 68
1, 54730, Note_off_c, 0, 70, 63
1, 54731, Control_c, 0, 64, 78
1, 54745, Note_on_c, 0, 78, 47
1, 54747, Control_c, 0, 64, 102
1, 54757, Note_on_c, 0, 82, 52
1, 54762, Control_c, 0, 64, 127
1, 54803, Note_off_c, 0, 82, 60
1, 54811, Note_off_c, 0, 78, 59
1, 54845, Note_on_c, 0, 70, 57
1, 54863, Note_on_c, 0, 73, 13
1, 54873, Note_off_c, 0, 70, 61
1, 54906, Note_on_c, 0, 78, 50
1, 54906, Note_off_c, 0, 73, 37
1, 54918, Note_on_c, 0, 82, 52
1, 54942, Note_off_c, 0, 82, 61
1, 54951, Note_off_c, 0, 78, 64
1, 54964, Note_on_c, 0, 70, 58
1, 55008, Note_off_c, 0, 70, 64
1, 55030, Note_on_c, 0, 82, 60
1, 55034, Note_on_c, 0, 78, 67
1, 55065, Note_off_c, 0, 82, 64
1, 55078, Note_off_c, 0, 78, 58
1, 55088, Note_on_c, 0, 73, 43
1, 55093, Note_on_c, 0, 70, 65
1, 55121, Note_off_c, 0, 70, 66
1, 55124, Note_off_c, 0, 73, 59
1, 55148, Note_on_c, 0, 78, 58
1, 55163, Note_on_c, 0, 82, 60
1, 55188, Note_off_c, 0, 78, 59
1, 55190, Note_off_c, 0, 82, 65
1, 55216, Note_on_c, 0, 73, 42
1, 55227, Note_on_c, 0, 70, 54
1, 55243, Note_off_c, 0, 73, 52
1, 55249, Note_off_c, 0, 70, 61
1, 55264, Note_on_c, 0, 82, 64
1, 55266, Note_on_c, 0, 78, 59
1, 55302, Note_off_c, 0, 78, 64
1, 55313, Note_off_c, 0, 82, 60
1, 55325, Note_on_c, 0, 70, 64
1, 55360, Note_off_c, 0, 70, 62
1, 55382, Note_on_c, 0, 78, 61
1, 55386, Note_on_c, 0, 82, 45
1, 55405, Note_on_c, 0, 66, 74
1, 55422, Note_on_c, 0, 73, 42
1, 55424, Note_off_c, 0, 78, 61
1, 55425, Note_off_c, 0, 82, 60
1, 55458, Note_off_c, 0, 61, 52
1, 55467, Note_on_c, 0, 70, 41
1, 55468, Note_off_c, 0, 73, 59
1, 55494, Note_off_c, 0, 70, 54
1, 55506, Note_on_c, 0, 78, 49
1, 55510, Note_on_c, 0, 82, 50
1, 55531, Note_off_c, 0, 78, 59
1, 55531, Note_off_c, 0, 82, 60
1, 55561, Note_on_c, 0, 70, 62
1, 55562, Note_on_c, 0, 73, 34
1, 55592, Note_off_c, 0, 73, 54
1, 55609, Note_off_c, 0, 70, 53
1, 55610, Note_on_c, 0, 82, 62
1, 55622, Note_on_c, 0, 78, 60
1, 55667, Note_off_c, 0, 82, 64
1, 55681, Note_on_c, 0, 65, 57
1, 55717, Control_c, 0, 64, 104
1, 55723, Note_off_c, 0, 78, 50
1, 55731, Note_off_c, 0, 66, 56
1, 55732, Control_c, 0, 64, 81
1, 55754, Control_c, 0, 64, 62
1, 55760, Note_on_c, 0, 69, 66
1, 55769, Control_c, 0, 64, 25
1, 55783, Note_on_c, 0, 73, 48
1, 55784, Control_c, 0, 64, 0
1, 55828, Control_c, 0, 64, 39
1, 55843, Control_c, 0, 64, 61
1, 55850, Note_off_c, 0, 73, 58
1, 55858, Control_c, 0, 64, 70
1, 55872, Control_c, 0, 64, 87
1, 55882, Note_off_c, 0, 69, 61
1, 55887, Control_c, 0, 64, 127
1, 55898, Note_on_c, 0, 77, 54
1, 55907, Note_on_c, 0, 81, 56
1, 55939, Note_off_c, 0, 77, 63
1, 55943, Note_off_c, 0, 81, 61
1, 55970, Note_on_c, 0, 73, 52
1, 55972, Note_on_c, 0, 69, 67
1, 55997, Note_off_c, 0, 73, 55
1, 56008, Note_off_c, 0, 69, 63
1, 56026, Note_on_c, 0, 77, 66
1, 56027, Note_on_c, 0, 81, 60
1, 56057, Note_off_c, 0, 77, 64
1, 56061, Note_off_c, 0, 81, 62
1, 56085, Note_on_c, 0, 73, 54
1, 56099, Note_on_c, 0, 69, 61
1, 56118, Note_off_c, 0, 73, 49
1, 56128, Note_off_c, 0, 69, 64
1, 56147, Note_on_c, 0, 77, 61
1, 56151, Note_on_c, 0, 81, 59
1, 56182, Note_on_c, 0, 73, 55
1, 56182, Note_off_c, 0, 77, 60
1, 56185, Note_off_c, 0, 81, 62
1, 56203, Note_on_c, 0, 69, 68
1, 56235, Note_off_c, 0, 69, 57
1, 56242, Note_off_c, 0, 73, 50
1, 56260, Note_on_c, 0, 77, 56
1, 56262, Note_on_c, 0, 81, 60
1, 56306, Note_on_c, 0, 73, 37
1, 56315, Note_off_c, 0, 77, 57
1, 56316, Note_on_c, 0, 63, 67
1, 56324, Note_off_c, 0, 81, 63
1, 56332, Note_on_c, 0, 69, 67
1, 56393, Note_off_c, 0, 69, 60
1, 56406, Note_on_c, 0, 81, 43
1, 56408, Note_off_c, 0, 65, 51
1, 56415, Note_on_c, 0, 77, 50
1, 56479, Note_off_c, 0, 77, 59
1, 56494, Note_on_c, 0, 69, 57
1, 56495, Note_off_c, 0, 81, 61
1, 56566, Note_off_c, 0, 69, 58
1, 56576, Note_on_c, 0, 65, 74
1, 56589, Note_on_c, 0, 77, 50
1, 56616, Note_on_c, 0, 81, 21
1, 56630, Note_off_c, 0, 77, 64
1, 56635, Note_off_c, 0, 63, 57
1, 56659, Note_on_c, 0, 69, 49
1, 56664, Note_off_c, 0, 81, 48
1, 56708, Note_off_c, 0, 69, 59
1, 56722, Note_on_c, 0, 77, 66
1, 56768, Note_on_c, 0, 63, 70
1, 56772, Note_off_c, 0, 77, 53
1, 56780, Note_off_c, 0, 73, 0
1, 56796, Note_on_c, 0, 69, 69
1, 56803, Note_on_c, 0, 73, 10
1, 56811, Note_off_c, 0, 65, 57
1, 56820, Poly_aftertouch_c, 0, 81, 0
1, 56870, Note_on_c, 0, 77, 60
1, 56876, Note_off_c, 0, 73, 54
1, 56881, Note_on_c, 0, 81, 52
1, 56886, Note_off_c, 0, 69, 59
1, 56969, Note_off_c, 0, 77, 53
1, 56990, Note_on_c, 0, 61, 43
1, 57023, Note_off_c, 0, 63, 55
1, 57037, Control_c, 0, 64, 98
1, 57043, Note_off_c, 0, 81, 63
1, 57052, Control_c, 0, 64, 82
1, 57066, Control_c, 0, 64, 67
1, 57071, Note_on_c, 0, 70, 57
1, 57081, Control_c, 0, 64, 47
1, 57096, Control_c, 0, 64, 0
1, 57099, Note_on_c, 0, 73, 41
1, 57156, Control_c, 0, 64, 20
1, 57171, Control_c, 0, 64, 41
1, 57186, Control_c, 0, 64, 57
1, 57189, Note_off_c, 0, 73, 62
1, 57201, Control_c, 0, 64, 65
1, 57210, Note_off_c, 0, 70, 63
1, 57216, Control_c, 0, 64, 73
1, 57237, Control_c, 0, 64, 92
1, 57239, Note_on_c, 0, 78, 46
1, 57247, Note_on_c, 0, 82, 50
1, 57252, Control_c, 0, 64, 127
1, 57295, Note_off_c, 0, 78, 61
1, 57300, Note_off_c, 0, 82, 58
1, 57340, Note_on_c, 0, 73, 39
1, 57345, Note_on_c, 0, 70, 48
1, 57367, Note_off_c, 0, 73, 55
1, 57371, Note_off_c, 0, 70, 57
1, 57401, Note_on_c, 0, 78, 49
1, 57435, Note_on_c, 0, 82, 27
1, 57439, Note_off_c, 0, 78, 64
1, 57452, Note_on_c, 0, 73, 52
1, 57457, Note_on_c, 0, 70, 56
1, 57469, Note_off_c, 0, 82, 42
1, 57487, Note_off_c, 0, 73, 62
1, 57488, Note_off_c, 0, 70, 65
1, 57523, Note_on_c, 0, 78, 59
1, 57554, Note_on_c, 0, 82, 23
1, 57559, Note_off_c, 0, 78, 63
1, 57589, Note_on_c, 0, 70, 57
1, 57591, Note_off_c, 0, 82, 40
1, 57592, Note_on_c, 0, 73, 31
1, 57621, Note_off_c, 0, 70, 64
1, 57630, Note_off_c, 0, 73, 42
1, 57642, Note_on_c, 0, 82, 47
1, 57643, Note_on_c, 0, 78, 47
1, 57676, Note_off_c, 0, 78, 60
1, 57684, Note_off_c, 0, 82, 61
1, 57685, Note_on_c, 0, 73, 38
1, 57712, Note_on_c, 0, 70, 56
1, 57714, Note_off_c, 0, 73, 58
1, 57742, Note_off_c, 0, 70, 60
1, 57771, Note_on_c, 0, 82, 51
1, 57783, Note_on_c, 0, 78, 39
1, 57815, Note_off_c, 0, 78, 51
1, 57816, Note_off_c, 0, 82, 56
1, 57819, Note_on_c, 0, 73, 44
1, 57833, Note_on_c, 0, 70, 59
1, 57847, Note_off_c, 0, 73, 56
1, 57867, Note_off_c, 0, 70, 58
1, 57894, Note_on_c, 0, 78, 48
1, 57902, Note_on_c, 0, 82, 39
1, 57946, Note_on_c, 0, 73, 52
1, 57950, Note_off_c, 0, 82, 56
1, 57951, Note_off_c, 0, 78, 59
1, 57997, Note_on_c, 0, 70, 43
1, 58003, Note_off_c, 0, 73, 57
1, 58031, Note_off_c, 0, 70, 59
1, 58045, Note_on_c, 0, 66, 55
1, 58069, Note_on_c, 0, 78, 39
1, 58075, Note_on_c, 0, 82, 37
1, 58106, Note_off_c, 0, 78, 53
1, 58111, Note_off_c, 0, 82, 53
1, 58140, Note_on_c, 0, 73, 29
1, 58145, Note_on_c, 0, 70, 48
1, 58173, Note_off_c, 0, 73, 50
1, 58185, Note_off_c, 0, 70, 60
1, 58210, Note_on_c, 0, 78, 47
1, 58224, Note_on_c, 0, 82, 42
1, 58251, Note_off_c, 0, 82, 56
1, 58255, Note_off_c, 0, 78, 61
1, 58269, Note_on_c, 0, 73, 49
1, 58286, Note_on_c, 0, 70, 48
1, 58304, Note_off_c, 0, 73, 61
1, 58322, Note_off_c, 0, 70, 61
1, 58343, Note_on_c, 0, 82, 55
1, 58352, Note_on_c, 0, 78, 50
1, 58370, Note_on_c, 0, 65, 68
1, 58395, Note_off_c, 0, 82, 58
1, 58399, Note_off_c, 0, 78, 61
1, 58409, Note_on_c, 0, 73, 50
1, 58420, Note_on_c, 0, 70, 51
1, 58445, Note_off_c, 0, 66, 55
1, 58450, Note_off_c, 0, 73, 62
1, 58465, Note_off_c, 0, 70, 61
1, 58493, Note_on_c, 0, 78, 51
1, 58515, Note_on_c, 0, 82, 41
1, 58538, Note_off_c, 0, 78, 62
1, 58543, Note_off_c, 0, 82, 56
1, 58552, Note_on_c, 0, 73, 51
1, 58567, Note_on_c, 0, 70, 54
1, 58588, Note_off_c, 0, 73, 62
1, 58609, Note_off_c, 0, 70, 62
1, 58631, Note_on_c, 0, 78, 54
1, 58632, Note_on_c, 0, 82, 56
1, 58645, Note_on_c, 0, 63, 82
1, 58671, Note_off_c, 0, 82, 61
1, 58679, Note_off_c, 0, 78, 62
1, 58686, Note_on_c, 0, 73, 53
1, 58692, Note_off_c, 0, 65, 59
1, 58706, Note_on_c, 0, 70, 51
1, 58726, Note_off_c, 0, 73, 60
1, 58754, Note_off_c, 0, 70, 62
1, 58781, Note_on_c, 0, 78, 56
1, 58785, Note_on_c, 0, 82, 53
1, 58808, Note_off_c, 0, 61, 37
1, 58817, Note_off_c, 0, 82, 61
1, 58821, Note_off_c, 0, 78, 64
1, 58835, Note_on_c, 0, 73, 45
1, 58847, Note_on_c, 0, 70, 56
1, 58862, Note_off_c, 0, 73, 54
1, 58883, Note_off_c, 0, 70, 63
1, 58904, Note_on_c, 0, 78, 61
1, 58908, Note_on_c, 0, 82, 54
1, 58944, Note_off_c, 0, 82, 63
1, 58948, Note_off_c, 0, 78, 58
1, 58962, Note_on_c, 0, 73, 45
1, 58969, Note_on_c, 0, 70, 60
1, 58991, Note_off_c, 0, 73, 54
1, 59014, Note_off_c, 0, 70, 61
1, 59038, Note_on_c, 0, 78, 50
1, 59044, Note_on_c, 0, 82, 47
1, 59073, Note_on_c, 0, 68, 86
1, 59090, Note_off_c, 0, 82, 59
1, 59100, Note_on_c, 0, 73, 46
1, 59106, Note_off_c, 0, 78, 59
1, 59132, Note_on_c, 0, 70, 57
1, 59155, Note_off_c, 0, 73, 63
1, 59180, Note_off_c, 0, 70, 62
1, 59208, Note_on_c, 0, 78, 56
1, 59231, Note_off_c, 0, 63, 54
1, 59234, Note_on_c, 0, 82, 40
1, 59257, Note_off_c, 0, 78, 59
1, 59258, Note_off_c, 0, 82, 59
1, 59288, Note_on_c, 0, 70, 56
1, 59291, Note_on_c, 0, 73, 41
1, 59318, Note_off_c, 0, 73, 52
1, 59323, Note_off_c, 0, 70, 63
1, 59343, Note_on_c, 0, 82, 57
1, 59348, Note_on_c, 0, 78, 57
1, 59380, Note_off_c, 0, 82, 64
1, 59387, Note_off_c, 0, 78, 62
1, 59395, Note_on_c, 0, 73, 62
1, 59410, Note_on_c, 0, 70, 59
1, 59429, Note_off_c, 0, 73, 61
1, 59443, Note_off_c, 0, 70, 65
1, 59468, Note_on_c, 0, 82, 50
1, 59475, Note_on_c, 0, 78, 43
1, 59500, Note_off_c, 0, 82, 59
1, 59509, Note_off_c, 0, 78, 56
1, 59524, Note_on_c, 0, 73, 53
1, 59527, Note_on_c, 0, 70, 66
1, 59551, Note_off_c, 0, 73, 61
1, 59560, Note_off_c, 0, 70, 61
1, 59580, Note_on_c, 0, 82, 61
1, 59583, Note_on_c, 0, 78, 53
1, 59676, Control_c, 0, 64, 85
1, 59688, Note_off_c, 0, 78, 53
1, 59691, Control_c, 0, 64, 66
1, 59691, Note_on_c, 0, 70, 71
1, 59693, Note_off_c, 0, 82, 62
1, 59705, Control_c, 0, 64, 45
1, 59709, Note_on_c, 0, 75, 53
1, 59720, Control_c, 0, 64, 24
1, 59735, Control_c, 0, 64, 33
1, 59750, Control_c, 0, 64, 46
1, 59765, Control_c, 0, 64, 58
1, 59776, Note_off_c, 0, 75, 54
1, 59780, Control_c, 0, 64, 67
1, 59788, Note_off_c, 0, 70, 61
1, 59795, Control_c, 0, 64, 80
1, 59810, Control_c, 0, 64, 127
1, 59825, Note_on_c, 0, 78, 54
1, 59825, Note_on_c, 0, 82, 54
1, 59858, Note_off_c, 0, 78, 64
1, 59860, Note_off_c, 0, 82, 64
1, 59893, Note_on_c, 0, 70, 63
1, 59912, Note_on_c, 0, 75, 30
1, 59926, Note_off_c, 0, 70, 63
1, 59943, Note_on_c, 0, 78, 68
1, 59944, Note_off_c, 0, 75, 47
1, 59955, Note_on_c, 0, 82, 53
1, 59980, Note_off_c, 0, 78, 58
1, 59984, Note_off_c, 0, 82, 64
1, 60004, Note_on_c, 0, 70, 63
1, 60027, Note_on_c, 0, 75, 24
1, 60034, Note_off_c, 0, 70, 61
1, 60062, Note_on_c, 0, 82, 61
1, 60065, Note_on_c, 0, 78, 46
1, 60094, Note_off_c, 0, 75, 0
1, 60099, Note_off_c, 0, 82, 61
1, 60109, Note_on_c, 0, 75, 19
1, 60118, Note_on_c, 0, 70, 55
1, 60124, Note_off_c, 0, 78, 0
1, 60149, Note_off_c, 0, 70, 62
1, 60152, Note_off_c, 0, 75, 46
1, 60159, Note_on_c, 0, 82, 58
1, 60161, Poly_aftertouch_c, 0, 78, 127
1, 60209, Poly_aftertouch_c, 0, 78, 0
1, 60243, Note_off_c, 0, 82, 53
1, 60244, Note_on_c, 0, 66, 50
1, 60262, Control_c, 0, 64, 89
1, 60266, Note_off_c, 0, 68, 52
1, 60270, Note_on_c, 0, 72, 59
1, 60277, Control_c, 0, 64, 68
1, 60291, Control_c, 0, 64, 47
1, 60297, Note_on_c, 0, 75, 19
1, 60306, Control_c, 0, 64, 0
1, 60321, Control_c, 0, 64, 15
1, 60337, Control_c, 0, 64, 29
1, 60352, Control_c, 0, 64, 46
1, 60361, Note_off_c, 0, 75, 39
1, 60366, Note_off_c, 0, 72, 58
1, 60367, Control_c, 0, 64, 60
1, 60382, Control_c, 0, 64, 69
1, 60396, Control_c, 0, 64, 83
1, 60400, Note_on_c, 0, 84, 49
1, 60411, Control_c, 0, 64, 127
1, 60415, Note_on_c, 0, 80, 37
1, 60431, Note_off_c, 0, 84, 48
1, 60448, Note_off_c, 0, 80, 54
1, 60489, Note_on_c, 0, 72, 56
1, 60501, Note_on_c, 0, 75, 27
1, 60530, Note_off_c, 0, 75, 49
1, 60534, Note_on_c, 0, 68, 58
1, 60540, Note_off_c, 0, 72, 51
1, 60561, Note_on_c, 0, 80, 45
1, 60567, Note_off_c, 0, 66, 57
1, 60573, Note_on_c, 0, 84, 46
1, 60611, Note_off_c, 0, 80, 60
1, 60613, Note_off_c, 0, 84, 45
1, 60642, Note_on_c, 0, 75, 35
1, 60654, Note_on_c, 0, 72, 55
1, 60671, Note_off_c, 0, 75, 51
1, 60702, Note_off_c, 0, 72, 60
1, 60715, Note_on_c, 0, 80, 54
1, 60718, Note_on_c, 0, 66, 66
1, 60719, Note_on_c, 0, 84, 54
1, 60744, Note_off_c, 0, 84, 54
1, 60760, Note_off_c, 0, 80, 57
1, 60761, Note_off_c, 0, 68, 55
1, 60778, Note_on_c, 0, 75, 44
1, 60796, Note_on_c, 0, 72, 47
1, 60841, Note_off_c, 0, 75, 52
1, 60842, Note_off_c, 0, 72, 60
1, 60852, Note_on_c, 0, 84, 47
1, 60890, Note_on_c, 0, 80, 18
1, 60930, Note_off_c, 0, 80, 29
1, 60934, Note_off_c, 0, 84, 60
1, 61045, Note_on_c, 0, 65, 50
1, 61056, Control_c, 0, 64, 121
1, 61070, Control_c, 0, 64, 102
1, 61085, Control_c, 0, 64, 90
1, 61100, Note_on_c, 0, 77, 44
1, 61100, Control_c, 0, 64, 76
1, 61110, Note_on_c, 0, 73, 40
1, 61114, Control_c, 0, 64, 63
1, 61129, Note_off_c, 0, 66, 58
1, 61129, Control_c, 0, 64, 34
1, 61145, Control_c, 0, 64, 0
1, 61172, Note_off_c, 0, 77, 57
1, 61205, Control_c, 0, 64, 26
1, 61219, Control_c, 0, 64, 51
1, 61234, Control_c, 0, 64, 66
1, 61249, Control_c, 0, 64, 78
1, 61264, Control_c, 0, 64, 118
1, 61279, Control_c, 0, 64, 127
1, 61318, Note_off_c, 0, 73, 57
1, 61333, Note_on_c, 0, 80, 42
1, 61339, Note_on_c, 0, 85, 40
1, 61354, Note_off_c, 0, 80, 59
1, 61365, Note_off_c, 0, 85, 57
1, 61554, Poly_aftertouch_c, 0, 85, 0
1, 61615, Note_on_c, 0, 97, 59
1, 61617, Note_on_c, 0, 92, 51
1, 61638, Note_off_c, 0, 92, 62
1, 61677, Note_off_c, 0, 97, 49
1, 61749, Note_on_c, 0, 68, 65
1, 61752, Note_on_c, 0, 85, 55
1, 61781, Note_off_c, 0, 85, 65
1, 61880, Note_on_c, 0, 85, 60
1, 61887, Note_on_c, 0, 80, 60
1, 61904, Note_off_c, 0, 80, 65
1, 61914, Note_off_c, 0, 85, 67
1, 62009, Note_on_c, 0, 73, 60
1, 62011, Note_on_c, 0, 77, 64
1, 62036, Note_off_c, 0, 73, 65
1, 62041, Note_off_c, 0, 77, 66
1, 62133, Note_on_c, 0, 80, 69
1, 62135, Note_on_c, 0, 85, 68
1, 62167, Note_off_c, 0, 80, 62
1, 62186, Note_off_c, 0, 85, 57
1, 62275, Note_on_c, 0, 70, 81
1, 62280, Note_on_c, 0, 77, 58
1, 62287, Note_on_c, 0, 73, 45
1, 62303, Note_off_c, 0, 77, 63
1, 62311, Note_off_c, 0, 73, 56
1, 62404, Note_on_c, 0, 85, 71
1, 62410, Note_on_c, 0, 80, 56
1, 62427, Note_off_c, 0, 80, 64
1, 62432, Note_off_c, 0, 85, 68
1, 62525, Note_off_c, 0, 68, 33
1, 62534, Note_on_c, 0, 89, 79
1, 62542, Note_off_c, 0, 65, 32
1, 62548, Note_on_c, 0, 85, 57
1, 62562, Note_off_c, 0, 89, 65
1, 62567, Note_off_c, 0, 85, 65
1, 62654, Note_on_c, 0, 97, 79
1, 62656, Note_on_c, 0, 92, 76
1, 62740, Note_off_c, 0, 97, 62
1, 62745, Note_off_c, 0, 92, 45
1, 62764, Note_on_c, 0, 89, 66
1, 62771, Note_on_c, 0, 85, 70
1, 62781, Note_off_c, 0, 89, 64
1, 62797, Note_off_c, 0, 85, 69
1, 62886, Note_on_c, 0, 80, 63
1, 62888, Note_on_c, 0, 85, 64
1, 62984, Note_off_c, 0, 80, 50
1, 63035, Note_on_c, 0, 73, 49
1, 63038, Note_on_c, 0, 68, 64
1, 63038, Note_off_c, 0, 85, 29
1, 63043, Note_on_c, 0, 77, 47
1, 63103, Note_off_c, 0, 77, 55
1, 63116, Note_off_c, 0, 70, 56
1, 63122, Note_off_c, 0, 73, 57
1, 63166, Note_on_c, 0, 85, 59
1, 63171, Note_on_c, 0, 80, 53
1, 63223, Note_off_c, 0, 80, 53
1, 63237, Note_off_c, 0, 85, 47
1, 63330, Note_on_c, 0, 65, 56
1, 63345, Note_on_c, 0, 77, 41
1, 63348, Note_on_c, 0, 73, 39
1, 63383, Note_off_c, 0, 77, 57
1, 63398, Note_off_c, 0, 73, 54
1, 63451, Note_off_c, 0, 68, 54
1, 63469, Note_on_c, 0, 85, 61
1, 63482, Note_on_c, 0, 80, 31
1, 63503, Note_off_c, 0, 85, 67
1, 63512, Note_off_c, 0, 80, 48
1, 63625, Note_on_c, 0, 89, 62
1, 63627, Note_on_c, 0, 68, 67
1, 63640, Note_on_c, 0, 85, 32
1, 63672, Note_off_c, 0, 89, 58
1, 63675, Note_off_c, 0, 85, 51
1, 63691, Note_off_c, 0, 65, 60
1, 63742, Note_on_c, 0, 97, 66
1, 63750, Note_on_c, 0, 92, 58
1, 63821, Note_off_c, 0, 97, 63
1, 63851, Note_off_c, 0, 92, 64
1, 63861, Note_on_c, 0, 85, 66
1, 63867, Note_on_c, 0, 65, 77
1, 63890, Note_off_c, 0, 85, 68
1, 63905, Note_off_c, 0, 68, 52
1, 63983, Note_on_c, 0, 85, 73
1, 63985, Note_on_c, 0, 80, 74
1, 64108, Note_on_c, 0, 63, 79
1, 64111, Note_on_c, 0, 77, 69
1, 64112, Note_on_c, 0, 73, 67
1, 64112, Note_off_c, 0, 80, 62
1, 64113, Note_off_c, 0, 85, 61
1, 64152, Note_off_c, 0, 65, 58
1, 64200, Note_off_c, 0, 73, 64
1, 64220, Note_on_c, 0, 80, 77
1, 64221, Note_off_c, 0, 77, 58
1, 64223, Note_on_c, 0, 85, 78
1, 64348, Note_off_c, 0, 80, 57
1, 64348, Control_c, 0, 64, 90
1, 64350, Note_on_c, 0, 65, 73
1, 64362, Control_c, 0, 64, 71
1, 64364, Note_on_c, 0, 77, 58
1, 64366, Note_off_c, 0, 85, 43
1, 64377, Control_c, 0, 64, 56
1, 64378, Note_on_c, 0, 73, 52
1, 64383, Note_off_c, 0, 63, 59
1, 64392, Control_c, 0, 64, 23
1, 64407, Control_c, 0, 64, 18
1, 64422, Control_c, 0, 64, 27
1, 64436, Control_c, 0, 64, 43
1, 64451, Control_c, 0, 64, 59
1, 64460, Note_off_c, 0, 73, 64
1, 64466, Control_c, 0, 64, 68
1, 64481, Note_off_c, 0, 77, 63
1, 64481, Control_c, 0, 64, 80
1, 64483, Note_on_c, 0, 80, 65
1, 64490, Note_on_c, 0, 85, 68
1, 64496, Control_c, 0, 64, 127
1, 64514, Note_off_c, 0, 80, 66
1, 64526, Note_off_c, 0, 85, 64
1, 64614, Note_on_c, 0, 63, 72
1, 64629, Note_on_c, 0, 89, 65
1, 64642, Note_on_c, 0, 85, 46
1, 64663, Note_off_c, 0, 65, 57
1, 64667, Note_off_c, 0, 85, 58
1, 64675, Note_off_c, 0, 89, 59
1, 64734, Note_on_c, 0, 97, 81
1, 64746, Note_on_c, 0, 92, 66
1, 64825, Note_off_c, 0, 97, 63
1, 64848, Note_off_c, 0, 92, 64
1, 64858, Note_on_c, 0, 61, 71
1, 64858, Note_on_c, 0, 85, 71
1, 64859, Note_on_c, 0, 89, 50
1, 64880, Note_off_c, 0, 89, 57
1, 64886, Note_off_c, 0, 85, 67
1, 64895, Note_off_c, 0, 63, 61
1, 64974, Note_on_c, 0, 85, 66
1, 64977, Note_on_c, 0, 80, 68
1, 65086, Note_off_c, 0, 85, 52
1, 65089, Note_off_c, 0, 80, 62
1, 65098, Note_on_c, 0, 63, 69
1, 65098, Note_on_c, 0, 73, 60
1, 65101, Note_on_c, 0, 77, 62
1, 65130, Note_off_c, 0, 61, 58
1, 65193, Note_off_c, 0, 73, 59
1, 65203, Note_off_c, 0, 77, 58
1, 65213, Note_on_c, 0, 80, 67
1, 65216, Note_on_c, 0, 85, 63
1, 65333, Control_c, 0, 64, 97
1, 65333, Note_off_c, 0, 80, 57
1, 65348, Control_c, 0, 64, 78
1, 65356, Note_on_c, 0, 61, 48
1, 65362, Note_off_c, 0, 85, 42
1, 65363, Control_c, 0, 64, 64
1, 65365, Note_on_c, 0, 77, 52
1, 65373, Note_off_c, 0, 63, 58
1, 65377, Control_c, 0, 64, 36
1, 65383, Note_on_c, 0, 73, 44
1, 65392, Control_c, 0, 64, 0
1, 65437, Control_c, 0, 64, 31
1, 65451, Control_c, 0, 64, 52
1, 65458, Note_off_c, 0, 73, 63
1, 65473, Control_c, 0, 64, 65
1, 65485, Note_off_c, 0, 77, 62
1, 65488, Control_c, 0, 64, 74
1, 65501, Note_on_c, 0, 80, 53
1, 65503, Note_on_c, 0, 85, 61
1, 65503, Control_c, 0, 64, 94
1, 65518, Control_c, 0, 64, 127
1, 65535, Note_off_c, 0, 80, 66
1, 65535, Note_off_c, 0, 85, 68
1, 65627, Note_on_c, 0, 90, 74
1, 65655, Note_off_c, 0, 90, 64
1, 65720, Poly_aftertouch_c, 0, 85, 0
1, 65754, Note_on_c, 0, 97, 68
1, 65766, Note_on_c, 0, 92, 56
1, 65839, Note_off_c, 0, 97, 62
1, 65854, Note_off_c, 0, 92, 61
1, 65875, Note_on_c, 0, 89, 47
1, 65885, Note_on_c, 0, 85, 58
1, 65886, Note_on_c, 0, 56, 43
1, 65898, Note_off_c, 0, 89, 55
1, 65912, Note_off_c, 0, 85, 66
1, 65968, Note_off_c, 0, 61, 36
1, 66006, Note_on_c, 0, 80, 54
1, 66013, Note_on_c, 0, 85, 47
1, 66083, Note_off_c, 0, 85, 52
1, 66109, Note_off_c, 0, 80, 50
1, 66133, Note_on_c, 0, 77, 52
1, 66135, Note_on_c, 0, 73, 45
1, 66170, Control_c, 0, 64, 104
1, 66185, Control_c, 0, 64, 92
1, 66199, Control_c, 0, 64, 82
1, 66214, Control_c, 0, 64, 76
1, 66216, Note_off_c, 0, 77, 58
1, 66229, Note_off_c, 0, 73, 56
1, 66237, Control_c, 0, 64, 73
1, 66251, Control_c, 0, 64, 72
1, 66257, Note_on_c, 0, 80, 45
1, 66266, Control_c, 0, 64, 73
1, 66268, Note_on_c, 0, 85, 42
1, 66281, Control_c, 0, 64, 73
1, 66296, Control_c, 0, 64, 75
1, 66311, Control_c, 0, 64, 80
1, 66325, Control_c, 0, 64, 89
1, 66335, Note_off_c, 0, 80, 47
1, 66340, Control_c, 0, 64, 110
1, 66355, Control_c, 0, 64, 127
1, 66365, Note_off_c, 0, 85, 53
1, 66379, Note_on_c, 0, 77, 51
1, 66392, Note_on_c, 0, 73, 39
1, 66451, Note_off_c, 0, 73, 58
1, 66476, Note_off_c, 0, 77, 55
1, 66506, Note_on_c, 0, 85, 58
1, 66535, Note_on_c, 0, 80, 6
1, 66538, Note_off_c, 0, 85, 67
1, 66582, Note_off_c, 0, 80, 36
1, 66633, Note_on_c, 0, 58, 49
1, 66662, Note_on_c, 0, 85, 23
1, 66675, Note_on_c, 0, 88, 36
1, 66684, Note_on_c, 0, 89, 23
1, 66702, Note_off_c, 0, 85, 51
1, 66706, Note_off_c, 0, 88, 54
1, 66721, Note_off_c, 0, 89, 44
1, 66770, Note_on_c, 0, 97, 58
1, 66779, Note_on_c, 0, 92, 48
1, 66848, Note_off_c, 0, 97, 63
1, 66868, Note_off_c, 0, 92, 60
1, 66894, Note_on_c, 0, 59, 69
1, 66901, Note_on_c, 0, 85, 57
1, 66930, Note_off_c, 0, 85, 66
1, 67022, Note_on_c, 0, 85, 57
1, 67026, Note_on_c, 0, 80, 61
1, 67143, Note_off_c, 0, 56, 19
1, 67146, Note_off_c, 0, 80, 60
1, 67155, Note_on_c, 0, 61, 81
1, 67155, Note_on_c, 0, 73, 53
1, 67162, Note_on_c, 0, 77, 55
1, 67166, Note_off_c, 0, 58, 57
1, 67185, Note_off_c, 0, 85, 36
1, 67283, Note_on_c, 0, 85, 61
1, 67285, Note_on_c, 0, 80, 59
1, 67286, Note_off_c, 0, 77, 59
1, 67303, Note_off_c, 0, 73, 53
1, 67315, Note_off_c, 0, 85, 68
1, 67362, Note_off_c, 0, 80, 61
1, 67406, Note_off_c, 0, 59, 38
1, 67495, Note_on_c, 0, 65, 61
1, 67503, Control_c, 0, 64, 108
1, 67519, Control_c, 0, 64, 97
1, 67534, Control_c, 0, 64, 86
1, 67542, Note_on_c, 0, 73, 51
1, 67549, Control_c, 0, 64, 77
1, 67554, Note_on_c, 0, 68, 40
1, 67564, Control_c, 0, 64, 66
1, 67578, Control_c, 0, 64, 55
1, 67583, Note_off_c, 0, 61, 54
1, 67593, Control_c, 0, 64, 34
1, 67608, Control_c, 0, 64, 29
1, 67623, Control_c, 0, 64, 30
1, 67638, Control_c, 0, 64, 40
1, 67652, Control_c, 0, 64, 53
1, 67667, Control_c, 0, 64, 62
1, 67672, Note_off_c, 0, 73, 58
1, 67682, Control_c, 0, 64, 67
1, 67697, Control_c, 0, 64, 76
1, 67712, Control_c, 0, 64, 93
1, 67734, Control_c, 0, 64, 127
1, 67752, Note_on_c, 0, 73, 41
1, 67769, Note_on_c, 0, 77, 61
1, 67777, Note_off_c, 0, 68, 56
1, 67821, Note_off_c, 0, 77, 60
1, 67826, Note_off_c, 0, 73, 63
1, 67894, Note_on_c, 0, 80, 67
1, 67902, Note_on_c, 0, 77, 52
1, 67922, Note_off_c, 0, 77, 62
1, 67951, Note_off_c, 0, 80, 62
1, 68008, Note_on_c, 0, 77, 73
1, 68023, Note_on_c, 0, 73, 60
1, 68059, Note_off_c, 0, 73, 61
1, 68063, Note_off_c, 0, 77, 63
1, 68129, Note_on_c, 0, 80, 78
1, 68185, Note_off_c, 0, 80, 62
1, 68245, Note_on_c, 0, 85, 78
1, 68246, Note_on_c, 0, 80, 62
1, 68278, Note_off_c, 0, 80, 66
1, 68314, Note_off_c, 0, 85, 61
1, 68367, Note_on_c, 0, 63, 76
1, 68375, Note_on_c, 0, 80, 70
1, 68382, Note_on_c, 0, 77, 65
1, 68402, Note_off_c, 0, 65, 60
1, 68410, Note_off_c, 0, 80, 63
1, 68433, Note_off_c, 0, 77, 48
1, 68493, Note_on_c, 0, 85, 81
1, 68545, Note_on_c, 0, 80, 4
1, 68557, Note_off_c, 0, 85, 64
1, 68596, Note_off_c, 0, 80, 27
1, 68612, Note_on_c, 0, 61, 71
1, 68618, Note_on_c, 0, 89, 77
1, 68657, Note_off_c, 0, 63, 57
1, 68683, Note_off_c, 0, 89, 62
1, 68735, Note_on_c, 0, 85, 80
1, 68744, Note_on_c, 0, 80, 57
1, 68782, Note_off_c, 0, 80, 62
1, 68787, Note_off_c, 0, 85, 64
1, 68863, Note_on_c, 0, 89, 78
1, 68865, Note_on_c, 0, 85, 66
1, 68901, Note_off_c, 0, 85, 62
1, 68928, Note_off_c, 0, 89, 62
1, 68985, Note_on_c, 0, 92, 82
1, 68990, Note_on_c, 0, 89, 62
1, 69027, Note_off_c, 0, 89, 64
1, 69074, Note_off_c, 0, 92, 64
1, 69130, Note_on_c, 0, 59, 48
1, 69132, Note_on_c, 0, 85, 62
1, 69134, Note_on_c, 0, 89, 78
1, 69152, Control_c, 0, 64, 94
1, 69152, Note_off_c, 0, 61, 50
1, 69166, Control_c, 0, 64, 74
1, 69181, Control_c, 0, 64, 61
1, 69196, Control_c, 0, 64, 39
1, 69211, Control_c, 0, 64, 40
1, 69231, Note_off_c, 0, 89, 59
1, 69232, Control_c, 0, 64, 49
1, 69247, Control_c, 0, 64, 56
1, 69262, Control_c, 0, 64, 63
1, 69277, Control_c, 0, 64, 68
1, 69292, Control_c, 0, 64, 78
1, 69298, Note_on_c, 0, 92, 72
1, 69307, Control_c, 0, 64, 98
1, 69307, Note_on_c, 0, 89, 52
1, 69322, Control_c, 0, 64, 127
1, 69334, Note_off_c, 0, 85, 56
1, 69394, Note_off_c, 0, 92, 61
1, 69485, Control_c, 0, 64, 118
1, 69499, Control_c, 0, 64, 105
1, 69514, Control_c, 0, 64, 97
1, 69524, Note_on_c, 0, 97, 58
1, 69529, Control_c, 0, 64, 90
1, 69544, Control_c, 0, 64, 83
1, 69548, Note_on_c, 0, 92, 42
1, 69554, Note_off_c, 0, 89, 51
1, 69558, Control_c, 0, 64, 75
1, 69572, Control_c, 0, 64, 66
1, 69587, Control_c, 0, 64, 55
1, 69602, Control_c, 0, 64, 38
1, 69617, Control_c, 0, 64, 41
1, 69632, Control_c, 0, 64, 44
1, 69647, Control_c, 0, 64, 48
1, 69662, Control_c, 0, 64, 53
1, 69677, Control_c, 0, 64, 60
1, 69691, Control_c, 0, 64, 65
1, 69706, Control_c, 0, 64, 72
1, 69721, Control_c, 0, 64, 82
1, 69736, Control_c, 0, 64, 95
1, 69742, Note_off_c, 0, 97, 46
1, 69750, Control_c, 0, 64, 116
1, 69754, Note_off_c, 0, 92, 36
1, 69765, Control_c, 0, 64, 127
1, 70025, Control_c, 0, 64, 123
1, 70040, Control_c, 0, 64, 116
1, 70055, Control_c, 0, 64, 111
1, 70070, Control_c, 0, 64, 106
1, 70085, Control_c, 0, 64, 102
1, 70091, Note_on_c, 0, 65, 40
1, 70100, Control_c, 0, 64, 100
1, 70115, Control_c, 0, 64, 97
1, 70129, Control_c, 0, 64, 94
1, 70144, Control_c, 0, 64, 91
1, 70159, Control_c, 0, 64, 88
1, 70173, Control_c, 0, 64, 85
1, 70188, Control_c, 0, 64, 82
1, 70203, Control_c, 0, 64, 80
1, 70218, Control_c, 0, 64, 78
1, 70233, Control_c, 0, 64, 76
1, 70247, Control_c, 0, 64, 74
1, 70262, Control_c, 0, 64, 72
1, 70273, Note_off_c, 0, 59, 31
1, 70277, Control_c, 0, 64, 71
1, 70292, Control_c, 0, 64, 70
1, 70307, Control_c, 0, 64, 69
1, 70321, Control_c, 0, 64, 68
1, 70336, Control_c, 0, 64, 66
1, 70351, Control_c, 0, 64, 65
1, 70365, Control_c, 0, 64, 64
1, 70380, Control_c, 0, 64, 64
1, 70395, Control_c, 0, 64, 63
1, 70410, Control_c, 0, 64, 62
1, 70425, Control_c, 0, 64, 61
1, 70440, Control_c, 0, 64, 60
1, 70455, Control_c, 0, 64, 59
1, 70469, Control_c, 0, 64, 58
1, 70484, Control_c, 0, 64, 56
1, 70499, Control_c, 0, 64, 55
1, 70514, Control_c, 0, 64, 53
1, 70529, Control_c, 0, 64, 51
1, 70544, Control_c, 0, 64, 47
1, 70559, Control_c, 0, 64, 44
1, 70573, Control_c, 0, 64, 39
1, 70588, Control_c, 0, 64, 30
1, 70603, Control_c, 0, 64, 16
1, 70618, Control_c, 0, 64, 0
1, 70863, Control_c, 0, 64, 20
1, 70878, Control_c, 0, 64, 38
1, 70893, Control_c, 0, 64, 49
1, 70908, Control_c, 0, 64, 55
1, 70923, Control_c, 0, 64, 58
1, 70937, Control_c, 0, 64, 60
1, 70952, Control_c, 0, 64, 62
1, 70967, Control_c, 0, 64, 64
1, 70982, Control_c, 0, 64, 66
1, 70996, Control_c, 0, 64, 69
1, 71011, Control_c, 0, 64, 73
1, 71026, Control_c, 0, 64, 76
1, 71041, Control_c, 0, 64, 81
1, 71056, Control_c, 0, 64, 85
1, 71070, Control_c, 0, 64, 92
1, 71085, Control_c, 0, 64, 100
1, 71100, Control_c, 0, 64, 114
1, 71115, Control_c, 0, 64, 127
1, 71387, Note_on_c, 0, 63, 35
1, 71563, Note_off_c, 0, 63, 38
1, 71584, Note_on_c, 0, 61, 41
1, 71602, Note_off_c, 0, 65, 36
1, 71627, Note_off_c, 0, 61, 58
1, 71670, Note_on_c, 0, 63, 49
1, 71730, Control_c, 0, 64, 116
1, 71745, Control_c, 0, 64, 108
1, 71760, Control_c, 0, 64, 100
1, 71765, Note_on_c, 0, 61, 51
1, 71775, Control_c, 0, 64, 94
1, 71790, Control_c, 0, 64, 88
1, 71805, Control_c, 0, 64, 83
1, 71815, Note_off_c, 0, 63, 36
1, 71820, Control_c, 0, 64, 80
1, 71835, Control_c, 0, 64, 78
1, 71850, Control_c, 0, 64, 75
1, 71865, Control_c, 0, 64, 73
1, 71879, Control_c, 0, 64, 70
1, 71894, Control_c, 0, 64, 68
1, 71909, Control_c, 0, 64, 67
1, 71924, Control_c, 0, 64, 66
1, 71938, Control_c, 0, 64, 65
1, 71953, Control_c, 0, 64, 63
1, 71968, Control_c, 0, 64, 62
1, 71983, Control_c, 0, 64, 61
1, 71998, Control_c, 0, 64, 59
1, 72012, Control_c, 0, 64, 56
1, 72027, Control_c, 0, 64, 50
1, 72042, Control_c, 0, 64, 44
1, 72057, Control_c, 0, 64, 42
1, 72086, Control_c, 0, 64, 43
1, 72101, Control_c, 0, 64, 46
1, 72116, Control_c, 0, 64, 49
1, 72131, Control_c, 0, 64, 54
1, 72145, Control_c, 0, 64, 58
1, 72160, Control_c, 0, 64, 62
1, 72175, Control_c, 0, 64, 65
1, 72190, Control_c, 0, 64, 68
1, 72205, Control_c, 0, 64, 73
1, 72227, Control_c, 0, 64, 83
1, 72242, Control_c, 0, 64, 94
1, 72257, Control_c, 0, 64, 109
1, 72272, Control_c, 0, 64, 127
1, 72347, Control_c, 0, 64, 123
1, 72362, Control_c, 0, 64, 116
1, 72376, Control_c, 0, 64, 111
1, 72391, Control_c, 0, 64, 107
1, 72406, Control_c, 0, 64, 101
1, 72416, Note_on_c, 0, 59, 35
1, 72421, Control_c, 0, 64, 96
1, 72436, Control_c, 0, 64, 92
1, 72450, Control_c, 0, 64, 88
1, 72465, Control_c, 0, 64, 84
1, 72480, Control_c, 0, 64, 80
1, 72495, Control_c, 0, 64, 77
1, 72510, Control_c, 0, 64, 75
1, 72524, Control_c, 0, 64, 72
1, 72539, Control_c, 0, 64, 70
1, 72554, Control_c, 0, 64, 69
1, 72568, Control_c, 0, 64, 67
1, 72573, Note_off_c, 0, 61, 30
1, 72583, Control_c, 0, 64, 66
1, 72598, Control_c, 0, 64, 65
1, 72613, Control_c, 0, 64, 64
1, 72628, Control_c, 0, 64, 63
1, 72643, Control_c, 0, 64, 63
1, 72657, Control_c, 0, 64, 62
1, 72672, Control_c, 0, 64, 62
1, 72687, Control_c, 0, 64, 60
1, 72702, Control_c, 0, 64, 59
1, 72717, Control_c, 0, 64, 56
1, 72732, Control_c, 0, 64, 51
1, 72747, Control_c, 0, 64, 46
1, 72761, Control_c, 0, 64, 43
1, 72776, Control_c, 0, 64, 42
1, 72821, Control_c, 0, 64, 43
1, 72835, Control_c, 0, 64, 45
1, 72850, Control_c, 0, 64, 48
1, 72865, Control_c, 0, 64, 52
1, 72880, Control_c, 0, 64, 55
1, 72895, Control_c, 0, 64, 58
1, 72909, Control_c, 0, 64, 60
1, 72924, Control_c, 0, 64, 62
1, 72939, Control_c, 0, 64, 64
1, 72954, Control_c, 0, 64, 66
1, 72976, Control_c, 0, 64, 68
1, 72991, Control_c, 0, 64, 71
1, 73006, Control_c, 0, 64, 75
1, 73021, Control_c, 0, 64, 80
1, 73036, Control_c, 0, 64, 85
1, 73050, Control_c, 0, 64, 92
1, 73065, Control_c, 0, 64, 105
1, 73080, Control_c, 0, 64, 127
1, 73366, Note_on_c, 0, 58, 27
1, 73403, Note_on_c, 0, 85, 68
1, 73421, Control_c, 0, 64, 110
1, 73430, Note_on_c, 0, 78, 44
1, 73434, Note_on_c, 0, 73, 46
1, 73436, Control_c, 0, 64, 97
1, 73451, Control_c, 0, 64, 87
1, 73457, Note_off_c, 0, 59, 39
1, 73465, Control_c, 0, 64, 78
1, 73480, Control_c, 0, 64, 69
1, 73495, Control_c, 0, 64, 60
1, 73510, Control_c, 0, 64, 45
1, 73525, Control_c, 0, 64, 39
1, 73540, Control_c, 0, 64, 39
1, 73555, Control_c, 0, 64, 43
1, 73570, Control_c, 0, 64, 48
1, 73584, Control_c, 0, 64, 53
1, 73599, Control_c, 0, 64, 59
1, 73614, Control_c, 0, 64, 64
1, 73629, Control_c, 0, 64, 70
1, 73637, Note_on_c, 0, 66, 39
1, 73644, Control_c, 0, 64, 79
1, 73658, Control_c, 0, 64, 94
1, 73673, Control_c, 0, 64, 127
1, 73688, Note_off_c, 0, 66, 60
1, 73742, Note_on_c, 0, 70, 39
1, 73775, Note_off_c, 0, 70, 58
1, 73825, Note_on_c, 0, 66, 39
1, 73855, Note_off_c, 0, 66, 53
1, 73868, Note_on_c, 0, 70, 56
1, 73897, Note_off_c, 0, 70, 62
1, 73929, Note_off_c, 0, 58, 35
1, 73951, Note_off_c, 0, 73, 37
1, 73954, Note_on_c, 0, 66, 38
1, 73983, Note_on_c, 0, 70, 59
1, 73984, Note_off_c, 0, 66, 53
1, 74014, Note_off_c, 0, 70, 65
1, 74044, Note_on_c, 0, 66, 51
1, 74076, Note_off_c, 0, 66, 63
1, 74095, Note_on_c, 0, 70, 54
1, 74121, Note_off_c, 0, 70, 61
1, 74132, Note_off_c, 0, 78, 30
1, 74154, Note_on_c, 0, 66, 56
1, 74187, Note_off_c, 0, 66, 61
1, 74200, Note_on_c, 0, 70, 58
1, 74216, Note_off_c, 0, 70, 66
1, 74240, Note_on_c, 0, 66, 56
1, 74286, Note_on_c, 0, 70, 59
1, 74287, Note_off_c, 0, 66, 47
1, 74337, Note_off_c, 0, 70, 49
1, 74338, Note_on_c, 0, 66, 40
1, 74428, Note_off_c, 0, 66, 57
1, 74450, Note_on_c, 0, 61, 45
1, 74473, Note_on_c, 0, 82, 73
1, 74500, Note_on_c, 0, 73, 45
1, 74504, Note_on_c, 0, 78, 48
1, 74544, Note_on_c, 0, 66, 44
1, 74589, Note_off_c, 0, 66, 60
1, 74604, Note_on_c, 0, 70, 47
1, 74634, Note_off_c, 0, 70, 61
1, 74639, Note_off_c, 0, 85, 37
1, 74669, Note_on_c, 0, 66, 54
1, 74708, Note_off_c, 0, 66, 61
1, 74723, Note_on_c, 0, 70, 55
1, 74746, Note_off_c, 0, 70, 63
1, 74771, Note_on_c, 0, 66, 59
1, 74785, Note_off_c, 0, 73, 38
1, 74804, Note_off_c, 0, 78, 56
1, 74810, Note_off_c, 0, 66, 58
1, 74819, Note_on_c, 0, 70, 65
1, 74863, Note_off_c, 0, 70, 48
1, 74871, Note_on_c, 0, 66, 53
1, 74944, Note_off_c, 0, 66, 56
1, 74955, Note_on_c, 0, 58, 63
1, 74977, Note_on_c, 0, 85, 90
1, 75007, Note_on_c, 0, 73, 60
1, 75010, Note_on_c, 0, 78, 55
1, 75023, Note_off_c, 0, 61, 18
1, 75030, Note_on_c, 0, 66, 49
1, 75051, Note_off_c, 0, 82, 56
1, 75084, Note_off_c, 0, 58, 48
1, 75097, Note_off_c, 0, 66, 61
1, 75115, Note_on_c, 0, 70, 54
1, 75146, Note_off_c, 0, 70, 62
1, 75155, Note_on_c, 0, 66, 51
1, 75222, Note_off_c, 0, 66, 58
1, 75233, Note_on_c, 0, 70, 58
1, 75253, Note_off_c, 0, 78, 57
1, 75259, Note_off_c, 0, 70, 63
1, 75264, Note_on_c, 0, 66, 48
1, 75265, Note_off_c, 0, 73, 54
1, 75328, Note_off_c, 0, 66, 61
1, 75333, Note_on_c, 0, 70, 64
1, 75383, Note_on_c, 0, 66, 54
1, 75395, Note_off_c, 0, 70, 58
1, 75515, Note_on_c, 0, 63, 63
1, 75531, Note_off_c, 0, 66, 57
1, 75534, Control_c, 0, 64, 116
1, 75545, Note_on_c, 0, 82, 78
1, 75549, Control_c, 0, 64, 100
1, 75564, Control_c, 0, 64, 91
1, 75576, Note_on_c, 0, 73, 51
1, 75579, Control_c, 0, 64, 81
1, 75586, Note_on_c, 0, 78, 50
1, 75594, Control_c, 0, 64, 73
1, 75609, Control_c, 0, 64, 64
1, 75623, Control_c, 0, 64, 51
1, 75638, Control_c, 0, 64, 34
1, 75653, Control_c, 0, 64, 33
1, 75665, Note_on_c, 0, 66, 54
1, 75668, Control_c, 0, 64, 34
1, 75682, Note_off_c, 0, 85, 53
1, 75683, Control_c, 0, 64, 40
1, 75698, Control_c, 0, 64, 47
1, 75713, Control_c, 0, 64, 55
1, 75716, Note_off_c, 0, 66, 60
1, 75728, Control_c, 0, 64, 62
1, 75741, Note_on_c, 0, 70, 45
1, 75742, Control_c, 0, 64, 68
1, 75757, Control_c, 0, 64, 79
1, 75772, Control_c, 0, 64, 102
1, 75772, Note_off_c, 0, 70, 53
1, 75786, Control_c, 0, 64, 127
1, 75800, Note_on_c, 0, 66, 55
1, 75842, Note_off_c, 0, 66, 61
1, 75862, Note_on_c, 0, 70, 57
1, 75892, Note_off_c, 0, 70, 62
1, 75918, Note_on_c, 0, 66, 61
1, 75966, Note_off_c, 0, 66, 56
1, 75980, Note_on_c, 0, 70, 61
1, 76011, Note_off_c, 0, 70, 64
1, 76025, Note_on_c, 0, 66, 50
1, 76082, Note_off_c, 0, 66, 57
1, 76108, Note_on_c, 0, 70, 49
1, 76133, Note_on_c, 0, 66, 51
1, 76135, Note_off_c, 0, 70, 55
1, 76186, Note_off_c, 0, 66, 59
1, 76189, Note_off_c, 0, 73, 36
1, 76208, Note_on_c, 0, 70, 53
1, 76226, Note_off_c, 0, 70, 64
1, 76244, Note_on_c, 0, 66, 44
1, 76290, Note_off_c, 0, 66, 58
1, 76296, Note_on_c, 0, 70, 65
1, 76324, Note_off_c, 0, 70, 64
1, 76351, Note_on_c, 0, 66, 55
1, 76395, Note_off_c, 0, 66, 56
1, 76404, Note_off_c, 0, 78, 34
1, 76406, Note_on_c, 0, 70, 58
1, 76424, Note_off_c, 0, 63, 0
1, 76458, Note_off_c, 0, 70, 42
1, 76461, Poly_aftertouch_c, 0, 63, 127
1, 76464, Poly_aftertouch_c, 0, 66, 127
1, 76529, Poly_aftertouch_c, 0, 66, 0
1, 76553, Note_on_c, 0, 61, 51
1, 76563, Control_c, 0, 64, 121
1, 76578, Control_c, 0, 64, 102
1, 76593, Control_c, 0, 64, 86
1, 76598, Note_on_c, 0, 78, 64
1, 76607, Control_c, 0, 64, 68
1, 76611, Poly_aftertouch_c, 0, 63, 0
1, 76615, Note_on_c, 0, 73, 46
1, 76622, Control_c, 0, 64, 52
1, 76637, Control_c, 0, 64, 0
1, 76651, Note_on_c, 0, 66, 43
1, 76682, Control_c, 0, 64, 30
1, 76689, Note_off_c, 0, 82, 54
1, 76697, Control_c, 0, 64, 50
1, 76705, Note_off_c, 0, 66, 59
1, 76719, Control_c, 0, 64, 61
1, 76725, Note_on_c, 0, 70, 46
1, 76734, Control_c, 0, 64, 68
1, 76749, Control_c, 0, 64, 79
1, 76761, Note_off_c, 0, 70, 62
1, 76763, Control_c, 0, 64, 111
1, 76778, Control_c, 0, 64, 127
1, 76788, Note_on_c, 0, 66, 49
1, 76835, Note_off_c, 0, 66, 59
1, 76847, Note_off_c, 0, 61, 0
1, 76859, Note_on_c, 0, 70, 53
1, 76878, Note_off_c, 0, 73, 38
1, 76887, Note_off_c, 0, 70, 60
1, 76891, Note_off_c, 0, 78, 57
1, 76918, Note_on_c, 0, 66, 53
1, 76932, Poly_aftertouch_c, 0, 61, 0
1, 76965, Note_off_c, 0, 66, 56
1, 76978, Note_on_c, 0, 70, 53
1, 77016, Note_off_c, 0, 70, 61
1, 77033, Note_on_c, 0, 66, 50
1, 77081, Note_off_c, 0, 66, 53
1, 77109, Note_on_c, 0, 82, 55
1, 77122, Note_on_c, 0, 70, 47
1, 77129, Note_on_c, 0, 78, 46
1, 77134, Note_on_c, 0, 73, 43
1, 77156, Note_off_c, 0, 70, 58
1, 77178, Note_on_c, 0, 66, 46
1, 77242, Note_off_c, 0, 66, 52
1, 77259, Note_on_c, 0, 70, 49
1, 77295, Note_off_c, 0, 70, 59
1, 77314, Note_on_c, 0, 66, 34
1, 77337, Note_off_c, 0, 73, 33
1, 77378, Note_off_c, 0, 66, 58
1, 77397, Note_on_c, 0, 70, 49
1, 77421, Note_off_c, 0, 78, 37
1, 77435, Note_off_c, 0, 70, 59
1, 77475, Note_on_c, 0, 66, 42
1, 77534, Note_off_c, 0, 66, 59
1, 77567, Note_on_c, 0, 70, 42
1, 77598, Note_off_c, 0, 70, 59
1, 77634, Note_on_c, 0, 66, 44
1, 77678, Note_off_c, 0, 66, 61
1, 77701, Note_on_c, 0, 70, 48
1, 77749, Note_off_c, 0, 70, 59
1, 77785, Note_on_c, 0, 66, 45
1, 77851, Note_off_c, 0, 66, 53
1, 78011, Note_on_c, 0, 73, 69
1, 78017, Control_c, 0, 64, 121
1, 78023, Note_off_c, 0, 82, 54
1, 78029, Note_on_c, 0, 78, 56
1, 78032, Control_c, 0, 64, 102
1, 78047, Control_c, 0, 64, 90
1, 78061, Control_c, 0, 64, 77
1, 78076, Control_c, 0, 64, 66
1, 78091, Control_c, 0, 64, 47
1, 78106, Control_c, 0, 64, 20
1, 78121, Control_c, 0, 64, 18
1, 78135, Control_c, 0, 64, 24
1, 78150, Control_c, 0, 64, 39
1, 78165, Control_c, 0, 64, 52
1, 78180, Control_c, 0, 64, 63
1, 78195, Control_c, 0, 64, 71
1, 78217, Control_c, 0, 64, 86
1, 78232, Control_c, 0, 64, 127
1, 78236, Note_off_c, 0, 73, 63
1, 78236, Note_off_c, 0, 78, 59
1, 78252, Note_on_c, 0, 82, 42
1, 78259, Note_on_c, 0, 85, 44
1, 78318, Note_off_c, 0, 82, 52
1, 78345, Note_off_c, 0, 85, 60
1, 78364, Note_on_c, 0, 42, 38
1, 78379, Note_on_c, 0, 73, 53
1, 78397, Note_on_c, 0, 78, 23
1, 78397, Note_off_c, 0, 42, 54
1, 78408, Note_off_c, 0, 73, 65
1, 78436, Note_off_c, 0, 78, 40
1, 78440, Note_on_c, 0, 49, 46
1, 78440, Note_on_c, 0, 82, 57
1, 78476, Note_off_c, 0, 82, 66
1, 78481, Note_on_c, 0, 85, 22
1, 78491, Note_off_c, 0, 49, 62
1, 78509, Note_on_c, 0, 73, 55
1, 78511, Note_on_c, 0, 54, 57
1, 78521, Note_off_c, 0, 85, 40
1, 78529, Note_off_c, 0, 73, 65
1, 78557, Note_off_c, 0, 54, 61
1, 78563, Note_on_c, 0, 85, 45
1, 78575, Note_on_c, 0, 82, 48
1, 78589, Note_on_c, 0, 58, 70
1, 78596, Note_off_c, 0, 82, 61
1, 78598, Note_off_c, 0, 85, 63
1, 78614, Note_on_c, 0, 78, 36
1, 78615, Note_on_c, 0, 73, 65
1, 78619, Note_off_c, 0, 58, 65
1, 78642, Note_off_c, 0, 78, 56
1, 78644, Note_off_c, 0, 73, 65
1, 78678, Note_on_c, 0, 82, 54
1, 78682, Note_on_c, 0, 85, 55
1, 78700, Note_off_c, 0, 82, 61
1, 78707, Note_off_c, 0, 85, 58
1, 78728, Note_on_c, 0, 78, 59
1, 78730, Note_on_c, 0, 73, 62
1, 78752, Note_off_c, 0, 78, 63
1, 78756, Note_off_c, 0, 73, 65
1, 78780, Note_on_c, 0, 85, 55
1, 78781, Note_on_c, 0, 82, 53
1, 78812, Note_off_c, 0, 82, 59
1, 78815, Note_off_c, 0, 85, 62
1, 78820, Note_on_c, 0, 73, 71
1, 78833, Note_on_c, 0, 78, 56
1, 78842, Note_on_c, 0, 54, 68
1, 78859, Note_off_c, 0, 78, 61
1, 78861, Note_off_c, 0, 73, 60
1, 78871, Note_off_c, 0, 54, 66
1, 78887, Note_on_c, 0, 85, 53
1, 78890, Note_on_c, 0, 82, 38
1, 78924, Note_off_c, 0, 85, 45
1, 78927, Note_on_c, 0, 78, 61
1, 78941, Note_on_c, 0, 73, 62
1, 78979, Note_off_c, 0, 73, 66
1, 78989, Note_off_c, 0, 78, 57
1, 79004, Note_off_c, 0, 82, 25
1, 79045, Note_on_c, 0, 63, 55
1, 79084, Note_off_c, 0, 63, 63
1, 79114, Note_on_c, 0, 61, 48
1, 79122, Note_on_c, 0, 70, 72
1, 79160, Note_on_c, 0, 73, 45
1, 79177, Note_off_c, 0, 61, 57
1, 79204, Note_off_c, 0, 70, 59
1, 79209, Note_on_c, 0, 63, 46
1, 79209, Note_off_c, 0, 73, 61
1, 79234, Note_on_c, 0, 78, 53
1, 79240, Note_on_c, 0, 82, 53
1, 79248, Note_off_c, 0, 63, 63
1, 79277, Note_off_c, 0, 78, 62
1, 79278, Note_on_c, 0, 61, 54
1, 79283, Note_off_c, 0, 82, 59
1, 79305, Note_on_c, 0, 70, 54
1, 79314, Note_off_c, 0, 61, 64
1, 79333, Note_off_c, 0, 70, 63
1, 79345, Note_on_c, 0, 63, 58
1, 79347, Poly_aftertouch_c, 0, 73, 0
1, 79362, Note_off_c, 0, 63, 65
1, 79366, Note_on_c, 0, 78, 45
1, 79369, Note_on_c, 0, 82, 49
1, 79383, Poly_aftertouch_c, 0, 73, 127
1, 79388, Note_on_c, 0, 61, 60
1, 79412, Note_on_c, 0, 70, 59
1, 79420, Note_off_c, 0, 61, 64
1, 79430, Note_off_c, 0, 78, 0
1, 79433, Note_on_c, 0, 63, 68
1, 79457, Note_on_c, 0, 78, 24
1, 79471, Note_off_c, 0, 63, 60
1, 79472, Note_off_c, 0, 70, 57
1, 79487, Note_on_c, 0, 61, 66
1, 79493, Poly_aftertouch_c, 0, 73, 0
1, 79511, Note_off_c, 0, 78, 56
1, 79522, Note_off_c, 0, 61, 57
1, 79552, Note_on_c, 0, 63, 54
1, 79563, Note_off_c, 0, 82, 58
1, 79577, Note_off_c, 0, 63, 58
1, 79581, Note_on_c, 0, 61, 62
1, 79629, Note_off_c, 0, 61, 61
1, 79634, Note_on_c, 0, 73, 81
1, 79654, Note_on_c, 0, 63, 66
1, 79674, Note_off_c, 0, 73, 60
1, 79686, Note_off_c, 0, 63, 64
1, 79693, Note_on_c, 0, 82, 63
1, 79693, Note_on_c, 0, 85, 73
1, 79695, Note_on_c, 0, 61, 61
1, 79735, Note_off_c, 0, 61, 57
1, 79741, Note_off_c, 0, 82, 59
1, 79755, Poly_aftertouch_c, 0, 78, 127
1, 79757, Note_on_c, 0, 78, 3
1, 79764, Note_on_c, 0, 63, 70
1, 79783, Note_on_c, 0, 73, 47
1, 79791, Note_off_c, 0, 63, 63
1, 79804, Note_on_c, 0, 82, 37
1, 79813, Note_on_c, 0, 61, 63
1, 79816, Note_off_c, 0, 78, 0
1, 79829, Note_on_c, 0, 78, 44
1, 79832, Note_off_c, 0, 73, 0
1, 79832, Note_off_c, 0, 82, 52
1, 79844, Note_off_c, 0, 61, 63
1, 79845, Note_on_c, 0, 73, 50
1, 79867, Note_on_c, 0, 63, 65
1, 79886, Note_off_c, 0, 78, 61
1, 79895, Note_off_c, 0, 85, 41
1, 79897, Note_off_c, 0, 63, 66
1, 79908, Note_on_c, 0, 61, 68
1, 79940, Note_off_c, 0, 73, 53
1, 79944, Note_off_c, 0, 61, 62
1, 79969, Note_on_c, 0, 63, 60
1, 79983, Note_off_c, 0, 63, 68
1, 80009, Note_on_c, 0, 61, 61
1, 80029, Note_off_c, 0, 61, 63
1, 80042, Note_on_c, 0, 63, 69
1, 80084, Note_on_c, 0, 61, 69
1, 80090, Note_off_c, 0, 63, 60
1, 80121, Note_off_c, 0, 61, 63
1, 80173, Control_c, 0, 64, 84
1, 80177, Note_on_c, 0, 70, 70
1, 80186, Note_on_c, 0, 73, 61
1, 80188, Control_c, 0, 64, 63
1, 80203, Control_c, 0, 64, 0
1, 80262, Control_c, 0, 64, 26
1, 80277, Control_c, 0, 64, 56
1, 80292, Control_c, 0, 64, 69
1, 80308, Note_off_c, 0, 73, 62
1, 80308, Control_c, 0, 64, 84
1, 80318, Note_off_c, 0, 70, 61
1, 80322, Control_c, 0, 64, 127
1, 80332, Note_on_c, 0, 78, 52
1, 80346, Note_on_c, 0, 82, 52
1, 80385, Note_off_c, 0, 78, 60
1, 80389, Note_off_c, 0, 82, 63
1, 80440, Note_on_c, 0, 42, 44
1, 80442, Note_on_c, 0, 70, 53
1, 80457, Note_on_c, 0, 73, 30
1, 80470, Note_off_c, 0, 70, 61
1, 80477, Note_off_c, 0, 42, 59
1, 80490, Note_off_c, 0, 73, 45
1, 80508, Note_on_c, 0, 82, 57
1, 80510, Note_on_c, 0, 78, 53
1, 80522, Note_on_c, 0, 49, 49
1, 80530, Note_off_c, 0, 78, 62
1, 80533, Note_off_c, 0, 82, 65
1, 80559, Note_on_c, 0, 70, 57
1, 80578, Note_on_c, 0, 73, 44
1, 80580, Note_off_c, 0, 49, 56
1, 80589, Note_off_c, 0, 70, 65
1, 80598, Note_on_c, 0, 54, 58
1, 80605, Note_off_c, 0, 73, 53
1, 80610, Note_on_c, 0, 78, 65
1, 80617, Note_on_c, 0, 82, 60
1, 80643, Note_off_c, 0, 54, 61
1, 80643, Note_off_c, 0, 78, 66
1, 80649, Note_off_c, 0, 82, 66
1, 80676, Note_on_c, 0, 70, 64
1, 80678, Note_on_c, 0, 58, 68
1, 80697, Note_on_c, 0, 73, 32
1, 80705, Note_off_c, 0, 70, 66
1, 80706, Note_off_c, 0, 58, 64
1, 80727, Note_off_c, 0, 73, 49
1, 80732, Note_on_c, 0, 78, 65
1, 80741, Note_on_c, 0, 82, 55
1, 80764, Note_off_c, 0, 78, 64
1, 80765, Note_off_c, 0, 82, 64
1, 80793, Note_on_c, 0, 70, 64
1, 80827, Note_off_c, 0, 70, 64
1, 80849, Note_on_c, 0, 78, 59
1, 80849, Note_on_c, 0, 82, 52
1, 80875, Note_on_c, 0, 73, 20
1, 80881, Note_off_c, 0, 82, 58
1, 80887, Note_off_c, 0, 78, 58
1, 80913, Note_on_c, 0, 70, 48
1, 80916, Note_on_c, 0, 54, 61
1, 80918, Note_off_c, 0, 73, 63
1, 80932, Note_off_c, 0, 70, 62
1, 80948, Note_on_c, 0, 82, 59
1, 80952, Note_off_c, 0, 54, 64
1, 80999, Poly_aftertouch_c, 0, 78, 0
1, 81003, Note_on_c, 0, 70, 61
1, 81005, Note_off_c, 0, 82, 61
1, 81013, Note_on_c, 0, 73, 48
1, 81036, Note_off_c, 0, 70, 66
1, 81037, Note_off_c, 0, 73, 57
1, 81084, Note_on_c, 0, 63, 51
1, 81126, Note_off_c, 0, 63, 63
1, 81144, Note_on_c, 0, 61, 51
1, 81164, Note_on_c, 0, 66, 62
1, 81181, Note_on_c, 0, 70, 43
1, 81207, Note_off_c, 0, 61, 58
1, 81225, Note_off_c, 0, 70, 60
1, 81233, Note_off_c, 0, 66, 61
1, 81239, Note_on_c, 0, 63, 50
1, 81252, Note_on_c, 0, 73, 63
1, 81277, Note_on_c, 0, 78, 51
1, 81277, Note_off_c, 0, 63, 63
1, 81304, Note_off_c, 0, 73, 59
1, 81306, Note_off_c, 0, 78, 61
1, 81317, Note_on_c, 0, 61, 53
1, 81328, Note_on_c, 0, 70, 50
1, 81342, Note_on_c, 0, 66, 53
1, 81355, Note_off_c, 0, 61, 64
1, 81365, Note_off_c, 0, 70, 61
1, 81371, Note_off_c, 0, 66, 62
1, 81382, Note_on_c, 0, 63, 50
1, 81391, Note_on_c, 0, 78, 68
1, 81394, Note_on_c, 0, 73, 57
1, 81406, Note_off_c, 0, 63, 60
1, 81433, Note_off_c, 0, 73, 61
1, 81439, Note_on_c, 0, 61, 52
1, 81439, Note_off_c, 0, 78, 56
1, 81457, Note_on_c, 0, 66, 57
1, 81459, Note_on_c, 0, 70, 52
1, 81470, Note_off_c, 0, 61, 62
1, 81478, Note_on_c, 0, 63, 62
1, 81502, Note_on_c, 0, 78, 57
1, 81502, Note_off_c, 0, 70, 59
1, 81509, Note_off_c, 0, 63, 63
1, 81526, Note_on_c, 0, 73, 46
1, 81548, Poly_aftertouch_c, 0, 61, 0
1, 81569, Note_on_c, 0, 70, 38
1, 81582, Note_off_c, 0, 66, 56
1, 81593, Note_off_c, 0, 70, 62
1, 81594, Note_off_c, 0, 73, 61
1, 81597, Note_on_c, 0, 63, 56
1, 81615, Note_off_c, 0, 78, 60
1, 81627, Note_off_c, 0, 63, 58
1, 81631, Note_on_c, 0, 61, 55
1, 81672, Note_off_c, 0, 61, 58
1, 81687, Note_on_c, 0, 70, 61
1, 81707, Note_on_c, 0, 73, 65
1, 81713, Note_on_c, 0, 63, 49
1, 81728, Note_off_c, 0, 70, 60
1, 81731, Note_off_c, 0, 63, 64
1, 81751, Note_on_c, 0, 61, 53
1, 81761, Note_off_c, 0, 73, 55
1, 81770, Note_on_c, 0, 78, 54
1, 81772, Note_on_c, 0, 82, 62
1, 81791, Note_off_c, 0, 61, 59
1, 81803, Note_on_c, 0, 63, 60
1, 81818, Note_off_c, 0, 78, 61
1, 81832, Note_off_c, 0, 82, 57
1, 81841, Note_off_c, 0, 63, 61
1, 81846, Note_on_c, 0, 70, 59
1, 81851, Note_on_c, 0, 73, 26
1, 81867, Note_on_c, 0, 61, 53
1, 81883, Note_off_c, 0, 70, 61
1, 81895, Note_off_c, 0, 73, 51
1, 81908, Note_off_c, 0, 61, 60
1, 81919, Note_on_c, 0, 82, 40
1, 81922, Note_on_c, 0, 78, 46
1, 81952, Note_on_c, 0, 63, 38
1, 81964, Note_off_c, 0, 78, 61
1, 81974, Note_off_c, 0, 82, 60
1, 81976, Note_off_c, 0, 63, 56
1, 81994, Note_on_c, 0, 61, 49
1, 82013, Note_on_c, 0, 70, 48
1, 82026, Note_off_c, 0, 61, 61
1, 82047, Note_off_c, 0, 70, 58
1, 82071, Note_on_c, 0, 63, 36
1, 82080, Note_on_c, 0, 78, 41
1, 82086, Note_on_c, 0, 82, 49
1, 82100, Note_off_c, 0, 63, 51
1, 82119, Note_on_c, 0, 61, 49
1, 82125, Note_off_c, 0, 78, 60
1, 82133, Note_off_c, 0, 82, 61
1, 82146, Note_off_c, 0, 61, 61
1, 82151, Note_on_c, 0, 70, 50
1, 82176, Note_on_c, 0, 63, 38
1, 82208, Note_off_c, 0, 63, 49
1, 82211, Poly_aftertouch_c, 0, 73, 127
1, 82235, Note_on_c, 0, 61, 46
1, 82247, Poly_aftertouch_c, 0, 73, 0
1, 82259, Note_off_c, 0, 61, 58
1, 82265, Note_on_c, 0, 82, 28
1, 82282, Note_on_c, 0, 63, 49
1, 82283, Note_on_c, 0, 78, 11
1, 82312, Note_off_c, 0, 82, 55
1, 82317, Note_off_c, 0, 63, 54
1, 82341, Note_off_c, 0, 78, 41
1, 82345, Note_off_c, 0, 70, 31
1, 82348, Note_on_c, 0, 61, 51
1, 82551, Note_on_c, 0, 65, 41
1, 82583, Control_c, 0, 64, 110
1, 82598, Control_c, 0, 64, 101
1, 82613, Control_c, 0, 64, 95
1, 82614, Note_on_c, 0, 69, 62
1, 82627, Control_c, 0, 64, 88
1, 82631, Note_on_c, 0, 73, 42
1, 82642, Control_c, 0, 64, 76
1, 82657, Control_c, 0, 64, 65
1, 82671, Note_off_c, 0, 61, 32
1, 82672, Control_c, 0, 64, 50
1, 82687, Control_c, 0, 64, 0
1, 82739, Control_c, 0, 64, 21
1, 82754, Control_c, 0, 64, 41
1, 82769, Control_c, 0, 64, 55
1, 82784, Control_c, 0, 64, 64
1, 82798, Control_c, 0, 64, 71
1, 82813, Control_c, 0, 64, 85
1, 82828, Control_c, 0, 64, 127
1, 82837, Note_off_c, 0, 73, 42
1, 82858, Note_off_c, 0, 69, 61
1, 82882, Note_on_c, 0, 77, 45
1, 82899, Note_on_c, 0, 81, 47
1, 82933, Note_off_c, 0, 77, 59
1, 82947, Note_off_c, 0, 81, 59
1, 82969, Note_on_c, 0, 73, 33
1, 82984, Note_on_c, 0, 69, 50
1, 83011, Note_off_c, 0, 73, 48
1, 83016, Note_off_c, 0, 69, 62
1, 83041, Note_on_c, 0, 77, 57
1, 83063, Note_on_c, 0, 81, 42
1, 83084, Note_off_c, 0, 77, 60
1, 83097, Note_off_c, 0, 81, 51
1, 83112, Note_on_c, 0, 69, 54
1, 83132, Note_on_c, 0, 73, 38
1, 83160, Note_off_c, 0, 69, 60
1, 83189, Note_on_c, 0, 77, 52
1, 83192, Note_on_c, 0, 81, 51
1, 83225, Note_off_c, 0, 73, 0
1, 83235, Note_off_c, 0, 77, 59
1, 83243, Note_off_c, 0, 81, 56
1, 83246, Note_on_c, 0, 73, 29
1, 83266, Note_on_c, 0, 69, 53
1, 83305, Note_on_c, 0, 63, 60
1, 83311, Note_off_c, 0, 69, 59
1, 83336, Note_on_c, 0, 77, 49
1, 83340, Note_on_c, 0, 81, 39
1, 83381, Note_off_c, 0, 77, 61
1, 83394, Note_off_c, 0, 81, 58
1, 83405, Note_on_c, 0, 69, 56
1, 83434, Note_off_c, 0, 65, 33
1, 83469, Note_off_c, 0, 69, 58
1, 83491, Note_on_c, 0, 77, 52
1, 83513, Note_on_c, 0, 81, 31
1, 83533, Note_off_c, 0, 77, 63
1, 83564, Note_on_c, 0, 69, 54
1, 83565, Note_on_c, 0, 65, 74
1, 83593, Note_off_c, 0, 81, 38
1, 83627, Note_off_c, 0, 63, 58
1, 83644, Note_off_c, 0, 69, 55
1, 83653, Note_on_c, 0, 77, 54
1, 83693, Note_off_c, 0, 77, 63
1, 83695, Poly_aftertouch_c, 0, 81, 127
1, 83710, Note_on_c, 0, 69, 52
1, 83731, Poly_aftertouch_c, 0, 81, 0
1, 83746, Note_on_c, 0, 63, 75
1, 83788, Note_on_c, 0, 77, 56
1, 83794, Note_off_c, 0, 65, 54
1, 83846, Note_off_c, 0, 77, 0
1, 83864, Note_on_c, 0, 81, 60
1, 83874, Note_off_c, 0, 69, 63
1, 83880, Note_off_c, 0, 73, 50
1, 83883, Poly_aftertouch_c, 0, 77, 127
1, 83934, Note_on_c, 0, 61, 47
1, 83958, Poly_aftertouch_c, 0, 77, 0
1, 83971, Note_off_c, 0, 63, 57
1, 83978, Control_c, 0, 64, 112
1, 83993, Control_c, 0, 64, 89
1, 83997, Note_off_c, 0, 81, 63
1, 84008, Control_c, 0, 64, 71
1, 84012, Note_on_c, 0, 70, 67
1, 84019, Note_on_c, 0, 73, 46
1, 84022, Control_c, 0, 64, 54
1, 84037, Control_c, 0, 64, 0
1, 84096, Control_c, 0, 64, 37
1, 84111, Control_c, 0, 64, 58
1, 84125, Note_off_c, 0, 73, 60
1, 84126, Control_c, 0, 64, 67
1, 84140, Control_c, 0, 64, 79
1, 84141, Note_off_c, 0, 70, 62
1, 84155, Note_on_c, 0, 78, 55
1, 84155, Control_c, 0, 64, 104
1, 84165, Note_on_c, 0, 82, 54
1, 84170, Control_c, 0, 64, 127
1, 84226, Note_off_c, 0, 82, 61
1, 84227, Note_off_c, 0, 78, 59
1, 84267, Note_on_c, 0, 70, 53
1, 84289, Note_off_c, 0, 70, 59
1, 84317, Note_on_c, 0, 78, 57
1, 84334, Poly_aftertouch_c, 0, 73, 0
1, 84340, Note_on_c, 0, 82, 48
1, 84347, Poly_aftertouch_c, 0, 73, 0
1, 84362, Note_off_c, 0, 78, 63
1, 84362, Note_off_c, 0, 82, 59
1, 84370, Note_on_c, 0, 73, 29
1, 84373, Note_on_c, 0, 70, 66
1, 84408, Note_off_c, 0, 70, 63
1, 84409, Note_off_c, 0, 73, 61
1, 84437, Note_on_c, 0, 82, 64
1, 84438, Note_on_c, 0, 78, 59
1, 84471, Note_off_c, 0, 82, 61
1, 84478, Note_off_c, 0, 78, 64
1, 84510, Note_on_c, 0, 70, 59
1, 84515, Note_on_c, 0, 73, 25
1, 84533, Note_off_c, 0, 70, 61
1, 84559, Note_on_c, 0, 78, 64
1, 84560, Note_off_c, 0, 73, 38
1, 84567, Note_on_c, 0, 82, 63
1, 84594, Note_off_c, 0, 78, 64
1, 84596, Note_on_c, 0, 73, 48
1, 84599, Note_off_c, 0, 82, 66
1, 84614, Note_on_c, 0, 70, 57
1, 84641, Note_off_c, 0, 73, 63
1, 84649, Note_off_c, 0, 70, 62
1, 84668, Note_on_c, 0, 78, 63
1, 84673, Note_on_c, 0, 82, 62
1, 84704, Note_off_c, 0, 78, 62
1, 84706, Note_off_c, 0, 82, 65
1, 84744, Note_on_c, 0, 70, 54
1, 84766, Note_off_c, 0, 70, 61
1, 84790, Note_on_c, 0, 82, 62
1, 84791, Note_on_c, 0, 78, 64
1, 84820, Poly_aftertouch_c, 0, 73, 0
1, 84831, Note_off_c, 0, 82, 58
1, 84835, Note_off_c, 0, 78, 60
1, 84836, Note_on_c, 0, 73, 37
1, 84857, Note_on_c, 0, 70, 52
1, 84891, Note_off_c, 0, 73, 61
1, 84894, Note_on_c, 0, 66, 74
1, 84894, Note_off_c, 0, 70, 59
1, 84923, Note_on_c, 0, 78, 59
1, 84930, Note_on_c, 0, 82, 59
1, 84963, Note_off_c, 0, 61, 52
1, 84969, Note_off_c, 0, 82, 66
1, 84971, Note_off_c, 0, 78, 64
1, 84995, Note_on_c, 0, 73, 36
1, 84998, Note_on_c, 0, 70, 64
1, 85025, Note_off_c, 0, 73, 55
1, 85041, Note_on_c, 0, 82, 70
1, 85050, Note_off_c, 0, 70, 58
1, 85056, Note_on_c, 0, 78, 66
1, 85118, Note_off_c, 0, 82, 64
1, 85166, Note_off_c, 0, 78, 56
1, 85169, Note_on_c, 0, 65, 53
1, 85193, Control_c, 0, 64, 107
1, 85206, Note_off_c, 0, 66, 56
1, 85208, Control_c, 0, 64, 78
1, 85214, Note_on_c, 0, 69, 70
1, 85223, Control_c, 0, 64, 61
1, 85238, Control_c, 0, 64, 12
1, 85240, Note_on_c, 0, 73, 45
1, 85253, Control_c, 0, 64, 0
1, 85297, Control_c, 0, 64, 38
1, 85311, Note_off_c, 0, 73, 57
1, 85312, Control_c, 0, 64, 57
1, 85326, Control_c, 0, 64, 68
1, 85337, Note_off_c, 0, 69, 62
1, 85341, Control_c, 0, 64, 81
1, 85356, Control_c, 0, 64, 127
1, 85360, Note_on_c, 0, 77, 50
1, 85366, Note_on_c, 0, 81, 53
1, 85398, Note_off_c, 0, 77, 64
1, 85401, Note_off_c, 0, 81, 63
1, 85428, Note_on_c, 0, 69, 62
1, 85430, Note_on_c, 0, 73, 52
1, 85454, Note_off_c, 0, 69, 67
1, 85454, Note_off_c, 0, 73, 57
1, 85479, Note_on_c, 0, 77, 66
1, 85490, Note_on_c, 0, 81, 55
1, 85511, Note_off_c, 0, 77, 63
1, 85512, Note_off_c, 0, 81, 63
1, 85532, Note_on_c, 0, 73, 62
1, 85538, Note_on_c, 0, 69, 62
1, 85575, Note_off_c, 0, 69, 64
1, 85583, Note_off_c, 0, 73, 51
1, 85592, Note_on_c, 0, 81, 63
1, 85604, Note_on_c, 0, 77, 52
1, 85629, Note_on_c, 0, 73, 44
1, 85633, Note_off_c, 0, 77, 60
1, 85639, Note_off_c, 0, 81, 54
1, 85655, Note_on_c, 0, 69, 59
1, 85696, Note_off_c, 0, 69, 60
1, 85710, Note_on_c, 0, 81, 51
1, 85726, Note_on_c, 0, 77, 62
1, 85769, Note_off_c, 0, 77, 57
1, 85783, Note_off_c, 0, 81, 62
1, 85788, Note_on_c, 0, 69, 67
1, 85791, Note_on_c, 0, 63, 62
1, 85858, Note_off_c, 0, 69, 60
1, 85868, Note_on_c, 0, 81, 42
1, 85883, Note_off_c, 0, 65, 53
1, 85884, Note_on_c, 0, 77, 52
1, 85934, Note_off_c, 0, 77, 55
1, 85950, Note_on_c, 0, 69, 50
1, 85954, Note_off_c, 0, 81, 60
1, 86024, Note_off_c, 0, 69, 61
1, 86030, Note_on_c, 0, 65, 71
1, 86069, Note_on_c, 0, 77, 39
1, 86069, Note_on_c, 0, 81, 36
1, 86074, Note_off_c, 0, 73, 37
1, 86077, Note_off_c, 0, 63, 60
1, 86093, Note_off_c, 0, 77, 57
1, 86128, Note_off_c, 0, 81, 63
1, 86139, Note_on_c, 0, 69, 57
1, 86157, Poly_aftertouch_c, 0, 73, 127
1, 86188, Note_off_c, 0, 69, 49
1, 86197, Note_on_c, 0, 77, 55
1, 86224, Note_on_c, 0, 63, 72
1, 86244, Note_on_c, 0, 69, 52
1, 86247, Note_off_c, 0, 77, 58
1, 86266, Note_off_c, 0, 65, 55
1, 86277, Poly_aftertouch_c, 0, 73, 0
1, 86315, Poly_aftertouch_c, 0, 73, 127
1, 86331, Note_on_c, 0, 81, 66
1, 86334, Note_off_c, 0, 69, 62
1, 86338, Note_on_c, 0, 77, 46
1, 86346, Poly_aftertouch_c, 0, 73, 0
1, 86447, Note_on_c, 0, 61, 42
1, 86474, Note_off_c, 0, 63, 55
1, 86483, Control_c, 0, 64, 106
1, 86498, Control_c, 0, 64, 93
1, 86506, Note_off_c, 0, 81, 62
1, 86511, Note_off_c, 0, 77, 42
1, 86513, Control_c, 0, 64, 82
1, 86525, Note_on_c, 0, 70, 59
1, 86528, Control_c, 0, 64, 72
1, 86542, Control_c, 0, 64, 62
1, 86551, Note_on_c, 0, 73, 40
1, 86557, Control_c, 0, 64, 44
1, 86572, Control_c, 0, 64, 0
1, 86631, Control_c, 0, 64, 27
1, 86646, Control_c, 0, 64, 48
1, 86661, Control_c, 0, 64, 63
1, 86662, Note_off_c, 0, 73, 61
1, 86675, Control_c, 0, 64, 70
1, 86680, Note_off_c, 0, 70, 63
1, 86691, Control_c, 0, 64, 82
1, 86701, Note_on_c, 0, 78, 44
1, 86706, Control_c, 0, 64, 103
1, 86709, Note_on_c, 0, 82, 50
1, 86721, Control_c, 0, 64, 127
1, 86761, Note_off_c, 0, 82, 58
1, 86762, Note_off_c, 0, 78, 61
1, 86807, Note_on_c, 0, 70, 45
1, 86812, Note_on_c, 0, 73, 19
1, 86835, Note_off_c, 0, 70, 54
1, 86852, Note_off_c, 0, 73, 39
1, 86857, Note_on_c, 0, 78, 52
1, 86888, Note_on_c, 0, 82, 30
1, 86899, Note_off_c, 0, 78, 64
1, 86914, Note_on_c, 0, 70, 64
1, 86919, Note_off_c, 0, 82, 44
1, 86949, Note_off_c, 0, 70, 62
1, 86984, Note_on_c, 0, 78, 56
1, 87005, Note_on_c, 0, 82, 40
1, 87018, Note_on_c, 0, 73, 47
1, 87024, Note_off_c, 0, 78, 64
1, 87031, Note_off_c, 0, 82, 53
1, 87049, Note_on_c, 0, 70, 52
1, 87061, Note_off_c, 0, 73, 61
1, 87068, Note_off_c, 0, 70, 62
1, 87107, Note_on_c, 0, 78, 54
1, 87115, Note_on_c, 0, 82, 53
1, 87139, Note_off_c, 0, 82, 57
1, 87145, Note_off_c, 0, 78, 60
1, 87156, Note_on_c, 0, 70, 52
1, 87169, Note_on_c, 0, 73, 36
1, 87207, Note_off_c, 0, 73, 47
1, 87208, Note_off_c, 0, 70, 54
1, 87229, Note_on_c, 0, 82, 61
1, 87249, Note_on_c, 0, 78, 48
1, 87272, Note_off_c, 0, 82, 55
1, 87281, Note_off_c, 0, 78, 59
1, 87303, Note_on_c, 0, 73, 30
1, 87319, Note_on_c, 0, 70, 42
1, 87334, Note_off_c, 0, 73, 48
1, 87349, Note_off_c, 0, 70, 57
1, 87373, Note_on_c, 0, 82, 46
1, 87386, Note_on_c, 0, 78, 47
1, 87428, Note_off_c, 0, 78, 58
1, 87431, Note_off_c, 0, 82, 57
1, 87436, Note_on_c, 0, 73, 47
1, 87449, Note_on_c, 0, 70, 50
1, 87471, Note_on_c, 0, 66, 57
1, 87477, Note_off_c, 0, 73, 60
1, 87494, Note_off_c, 0, 70, 60
1, 87544, Note_on_c, 0, 78, 38
1, 87547, Note_on_c, 0, 82, 34
1, 87579, Note_off_c, 0, 78, 55
1, 87586, Note_on_c, 0, 73, 49
1, 87588, Note_off_c, 0, 82, 52
1, 87620, Note_on_c, 0, 70, 41
1, 87628, Note_off_c, 0, 73, 63
1, 87651, Note_off_c, 0, 70, 53
1, 87672, Note_on_c, 0, 78, 48
1, 87698, Note_on_c, 0, 82, 25
1, 87726, Note_off_c, 0, 78, 59
1, 87731, Note_off_c, 0, 82, 51
1, 87738, Note_on_c, 0, 73, 42
1, 87766, Note_on_c, 0, 70, 44
1, 87772, Note_off_c, 0, 73, 61
1, 87782, Note_on_c, 0, 65, 70
1, 87797, Note_off_c, 0, 70, 55
1, 87827, Note_on_c, 0, 78, 41
1, 87835, Note_on_c, 0, 82, 45
1, 87866, Note_off_c, 0, 82, 58
1, 87869, Note_off_c, 0, 78, 58
1, 87877, Note_on_c, 0, 73, 51
1, 87900, Note_off_c, 0, 66, 37
1, 87911, Note_on_c, 0, 70, 44
1, 87917, Note_off_c, 0, 73, 63
1, 87946, Note_off_c, 0, 70, 60
1, 87971, Note_on_c, 0, 78, 52
1, 87979, Note_on_c, 0, 82, 51
1, 88015, Note_off_c, 0, 78, 63
1, 88015, Note_off_c, 0, 82, 64
1, 88027, Note_on_c, 0, 73, 55
1, 88042, Note_on_c, 0, 70, 55
1, 88066, Note_on_c, 0, 63, 81
1, 88068, Note_off_c, 0, 73, 61
1, 88081, Note_off_c, 0, 70, 61
1, 88107, Note_on_c, 0, 78, 62
1, 88111, Note_off_c, 0, 65, 60
1, 88116, Note_on_c, 0, 82, 47
1, 88150, Note_off_c, 0, 82, 64
1, 88163, Note_off_c, 0, 78, 58
1, 88165, Note_on_c, 0, 73, 54
1, 88176, Note_off_c, 0, 61, 52
1, 88188, Note_on_c, 0, 70, 52
1, 88202, Note_off_c, 0, 73, 64
1, 88221, Note_off_c, 0, 70, 63
1, 88239, Note_on_c, 0, 82, 61
1, 88243, Note_on_c, 0, 78, 46
1, 88289, Note_off_c, 0, 82, 57
1, 88289, Note_off_c, 0, 78, 62
1, 88297, Note_on_c, 0, 73, 51
1, 88315, Note_on_c, 0, 70, 51
1, 88330, Note_off_c, 0, 73, 60
1, 88344, Note_off_c, 0, 70, 62
1, 88370, Note_on_c, 0, 82, 47
1, 88372, Note_on_c, 0, 78, 56
1, 88444, Note_off_c, 0, 82, 52
1, 88450, Note_on_c, 0, 73, 39
1, 88456, Note_on_c, 0, 70, 36
1, 88459, Note_off_c, 0, 78, 58
1, 88486, Note_on_c, 0, 68, 84
1, 88504, Poly_aftertouch_c, 0, 64, 127
1, 88526, Note_off_c, 0, 73, 63
1, 88536, Poly_aftertouch_c, 0, 64, 0
1, 88537, Note_off_c, 0, 70, 60
1, 88570, Note_off_c, 0, 63, 56
1, 88572, Note_on_c, 0, 82, 51
1, 88582, Note_on_c, 0, 78, 35
1, 88613, Note_off_c, 0, 78, 59
1, 88614, Note_off_c, 0, 82, 63
1, 88642, Note_on_c, 0, 73, 46
1, 88647, Note_on_c, 0, 70, 54
1, 88668, Note_off_c, 0, 73, 61
1, 88675, Note_off_c, 0, 70, 63
1, 88710, Note_on_c, 0, 78, 62
1, 88724, Note_on_c, 0, 82, 47
1, 88747, Note_off_c, 0, 78, 63
1, 88748, Note_off_c, 0, 82, 60
1, 88757, Note_on_c, 0, 73, 63
1, 88764, Note_on_c, 0, 70, 64
1, 88793, Note_off_c, 0, 73, 60
1, 88802, Note_off_c, 0, 70, 61
1, 88827, Note_on_c, 0, 82, 66
1, 88837, Note_on_c, 0, 78, 52
1, 88863, Note_off_c, 0, 82, 58
1, 88876, Note_off_c, 0, 78, 61
1, 88894, Note_on_c, 0, 73, 43
1, 88907, Note_on_c, 0, 70, 48
1, 88921, Note_off_c, 0, 73, 55
1, 88927, Note_off_c, 0, 70, 62
1, 88941, Note_on_c, 0, 82, 65
1, 88947, Note_on_c, 0, 78, 54
1, 89055, Control_c, 0, 64, 100
1, 89067, Note_off_c, 0, 78, 60
1, 89067, Note_on_c, 0, 70, 51
1, 89069, Control_c, 0, 64, 69
1, 89073, Note_on_c, 0, 75, 61
1, 89085, Control_c, 0, 64, 46
1, 89086, Note_off_c, 0, 82, 45
1, 89100, Control_c, 0, 64, 0
1, 89115, Control_c, 0, 64, 21
1, 89130, Control_c, 0, 64, 45
1, 89142, Note_off_c, 0, 75, 58
1, 89145, Control_c, 0, 64, 60
1, 89158, Note_off_c, 0, 70, 64
1, 89159, Control_c, 0, 64, 70
1, 89174, Control_c, 0, 64, 93
1, 89189, Control_c, 0, 64, 127
1, 89194, Note_on_c, 0, 82, 62
1, 89199, Note_on_c, 0, 78, 48
1, 89230, Note_off_c, 0, 82, 62
1, 89243, Note_off_c, 0, 78, 64
1, 89263, Note_on_c, 0, 70, 55
1, 89283, Note_off_c, 0, 70, 63
1, 89309, Note_on_c, 0, 82, 64
1, 89331, Note_on_c, 0, 78, 59
1, 89343, Note_off_c, 0, 82, 61
1, 89362, Note_on_c, 0, 70, 64
1, 89365, Note_off_c, 0, 78, 65
1, 89380, Note_on_c, 0, 75, 38
1, 89394, Note_off_c, 0, 70, 60
1, 89406, Note_off_c, 0, 75, 57
1, 89426, Note_on_c, 0, 82, 65
1, 89514, Note_off_c, 0, 82, 0
1, 89538, Poly_aftertouch_c, 0, 78, 127
1, 89567, Poly_aftertouch_c, 0, 82, 0
1, 89580, Poly_aftertouch_c, 0, 71, 0
1, 89581, Poly_aftertouch_c, 0, 75, 127
1, 89631, Poly_aftertouch_c, 0, 75, 0
1, 89648, Poly_aftertouch_c, 0, 78, 0
1, 89669, Note_on_c, 0, 66, 53
1, 89684, Control_c, 0, 64, 90
1, 89686, Note_off_c, 0, 68, 51
1, 89699, Control_c, 0, 64, 70
1, 89701, Note_on_c, 0, 72, 61
1, 89714, Control_c, 0, 64, 55
1, 89727, Note_on_c, 0, 75, 38
1, 89729, Control_c, 0, 64, 34
1, 89744, Control_c, 0, 64, 44
1, 89757, Note_off_c, 0, 75, 53
1, 89759, Control_c, 0, 64, 53
1, 89774, Control_c, 0, 64, 59
1, 89776, Note_off_c, 0, 72, 64
1, 89789, Control_c, 0, 64, 65
1, 89800, Note_on_c, 0, 80, 41
1, 89804, Control_c, 0, 64, 73
1, 89807, Note_on_c, 0, 84, 42
1, 89818, Control_c, 0, 64, 96
1, 89833, Control_c, 0, 64, 127
1, 89853, Note_off_c, 0, 80, 58
1, 89862, Note_on_c, 0, 75, 52
1, 89881, Note_off_c, 0, 84, 56
1, 89896, Note_on_c, 0, 72, 46
1, 89905, Note_off_c, 0, 75, 62
1, 89919, Note_off_c, 0, 72, 59
1, 89933, Note_on_c, 0, 84, 30
1, 89944, Note_on_c, 0, 68, 52
1, 89950, Note_on_c, 0, 80, 47
1, 89965, Note_off_c, 0, 66, 48
1, 89971, Note_off_c, 0, 84, 48
1, 89985, Note_off_c, 0, 80, 58
1, 90000, Note_on_c, 0, 72, 54
1, 90008, Note_on_c, 0, 75, 46
1, 90039, Note_off_c, 0, 72, 61
1, 90039, Note_off_c, 0, 75, 56
1, 90068, Note_on_c, 0, 84, 54
1, 90075, Note_on_c, 0, 80, 43
1, 90091, Note_off_c, 0, 84, 54
1, 90117, Note_off_c, 0, 80, 58
1, 90151, Note_on_c, 0, 72, 43
1, 90168, Note_off_c, 0, 68, 53
1, 90173, Note_on_c, 0, 66, 50
1, 90191, Note_off_c, 0, 72, 57
1, 90197, Note_on_c, 0, 84, 48
1, 90242, Poly_aftertouch_c, 0, 75, 0
1, 90301, Note_off_c, 0, 84, 37
1, 90434, Control_c, 0, 64, 105
1, 90438, Note_on_c, 0, 65, 45
1, 90449, Control_c, 0, 64, 96
1, 90463, Control_c, 0, 64, 90
1, 90478, Control_c, 0, 64, 82
1, 90480, Note_on_c, 0, 77, 40
1, 90486, Note_off_c, 0, 66, 51
1, 90488, Note_on_c, 0, 73, 43
1, 90493, Control_c, 0, 64, 74
1, 90507, Control_c, 0, 64, 66
1, 90522, Control_c, 0, 64, 55
1, 90537, Control_c, 0, 64, 35
1, 90552, Control_c, 0, 64, 28
1, 90582, Control_c, 0, 64, 29
1, 90597, Control_c, 0, 64, 35
1, 90611, Control_c, 0, 64, 46
1, 90626, Control_c, 0, 64, 57
1, 90641, Control_c, 0, 64, 64
1, 90656, Control_c, 0, 64, 74
1, 90671, Control_c, 0, 64, 90
1, 90675, Note_off_c, 0, 73, 60
1, 90686, Control_c, 0, 64, 127
1, 90701, Note_off_c, 0, 77, 31
1, 90721, Note_on_c, 0, 85, 53
1, 90736, Note_on_c, 0, 82, 24
1, 90756, Note_off_c, 0, 85, 67
1, 90762, Note_off_c, 0, 82, 48
1, 90871, Note_on_c, 0, 89, 56
1, 90872, Note_on_c, 0, 85, 45
1, 90895, Note_off_c, 0, 89, 64
1, 90896, Note_off_c, 0, 85, 58
1, 91014, Note_on_c, 0, 94, 51
1, 91017, Note_on_c, 0, 97, 52
1, 91103, Note_off_c, 0, 97, 59
1, 91110, Note_off_c, 0, 94, 42
1, 91145, Note_on_c, 0, 70, 67
1, 91147, Note_on_c, 0, 85, 53
1, 91173, Note_off_c, 0, 85, 64
1, 91273, Note_on_c, 0, 85, 57
1, 91276, Note_on_c, 0, 82, 62
1, 91311, Note_off_c, 0, 82, 63
1, 91314, Note_off_c, 0, 85, 60
1, 91318, Note_off_c, 0, 65, 54
1, 91400, Note_on_c, 0, 77, 63
1, 91402, Note_on_c, 0, 73, 56
1, 91422, Note_off_c, 0, 73, 61
1, 91431, Note_off_c, 0, 77, 65
1, 91520, Note_on_c, 0, 85, 68
1, 91523, Note_on_c, 0, 82, 62
1, 91555, Note_off_c, 0, 82, 63
1, 91584, Note_off_c, 0, 85, 57
1, 91658, Note_on_c, 0, 69, 77
1, 91664, Note_on_c, 0, 77, 59
1, 91666, Note_on_c, 0, 73, 45
1, 91703, Note_off_c, 0, 73, 52
1, 91706, Note_off_c, 0, 77, 65
1, 91792, Note_off_c, 0, 70, 40
1, 91793, Note_on_c, 0, 85, 69
1, 91798, Note_on_c, 0, 82, 58
1, 91817, Note_off_c, 0, 82, 62
1, 91822, Note_off_c, 0, 85, 69
1, 91920, Note_on_c, 0, 89, 73
1, 91923, Note_on_c, 0, 85, 59
1, 91951, Note_off_c, 0, 89, 64
1, 91953, Note_off_c, 0, 85, 66
1, 92026, Note_on_c, 0, 97, 81
1, 92036, Note_on_c, 0, 94, 72
1, 92127, Note_off_c, 0, 97, 64
1, 92140, Note_on_c, 0, 89, 71
1, 92141, Note_off_c, 0, 94, 63
1, 92153, Note_on_c, 0, 85, 73
1, 92167, Note_off_c, 0, 89, 67
1, 92177, Note_off_c, 0, 85, 70
1, 92269, Note_on_c, 0, 85, 65
1, 92285, Note_on_c, 0, 81, 58
1, 92331, Note_off_c, 0, 81, 52
1, 92376, Note_off_c, 0, 85, 52
1, 92406, Note_on_c, 0, 70, 65
1, 92409, Note_on_c, 0, 73, 56
1, 92413, Note_on_c, 0, 77, 56
1, 92464, Note_off_c, 0, 69, 57
1, 92510, Note_off_c, 0, 73, 59
1, 92519, Note_off_c, 0, 77, 54
1, 92543, Note_on_c, 0, 85, 57
1, 92546, Note_on_c, 0, 82, 59
1, 92665, Control_c, 0, 64, 107
1, 92672, Note_off_c, 0, 85, 48
1, 92680, Control_c, 0, 64, 95
1, 92691, Note_on_c, 0, 65, 55
1, 92692, Note_off_c, 0, 82, 33
1, 92695, Control_c, 0, 64, 87
1, 92710, Control_c, 0, 64, 78
1, 92710, Note_on_c, 0, 73, 40
1, 92710, Note_on_c, 0, 77, 45
1, 92725, Control_c, 0, 64, 69
1, 92740, Control_c, 0, 64, 62
1, 92755, Control_c, 0, 64, 53
1, 92770, Control_c, 0, 64, 51
1, 92784, Control_c, 0, 64, 53
1, 92789, Note_off_c, 0, 70, 56
1, 92799, Control_c, 0, 64, 56
1, 92807, Note_off_c, 0, 73, 63
1, 92814, Control_c, 0, 64, 60
1, 92829, Control_c, 0, 64, 64
1, 92832, Note_off_c, 0, 77, 63
1, 92843, Note_on_c, 0, 82, 51
1, 92844, Control_c, 0, 64, 70
1, 92856, Note_on_c, 0, 85, 49
1, 92858, Control_c, 0, 64, 81
1, 92873, Control_c, 0, 64, 107
1, 92874, Note_off_c, 0, 82, 66
1, 92880, Note_off_c, 0, 85, 63
1, 92888, Control_c, 0, 64, 127
1, 92997, Note_on_c, 0, 66, 68
1, 93005, Note_on_c, 0, 85, 37
1, 93008, Note_on_c, 0, 89, 57
1, 93049, Note_off_c, 0, 65, 59
1, 93050, Note_off_c, 0, 85, 48
1, 93072, Note_off_c, 0, 89, 61
1, 93115, Note_on_c, 0, 97, 62
1, 93127, Note_on_c, 0, 94, 52
1, 93223, Note_off_c, 0, 97, 63
1, 93235, Note_off_c, 0, 94, 62
1, 93255, Note_on_c, 0, 65, 75
1, 93256, Note_on_c, 0, 85, 60
1, 93287, Note_off_c, 0, 85, 68
1, 93307, Note_off_c, 0, 66, 58
1, 93366, Note_on_c, 0, 85, 72
1, 93369, Note_on_c, 0, 82, 72
1, 93494, Note_on_c, 0, 77, 71
1, 93497, Note_on_c, 0, 73, 67
1, 93497, Note_on_c, 0, 64, 78
1, 93501, Note_off_c, 0, 85, 62
1, 93509, Note_off_c, 0, 82, 61
1, 93524, Note_off_c, 0, 65, 60
1, 93605, Note_on_c, 0, 85, 79
1, 93610, Note_on_c, 0, 82, 78
1, 93611, Note_off_c, 0, 73, 58
1, 93612, Note_off_c, 0, 77, 62
1, 93726, Control_c, 0, 64, 97
1, 93730, Note_on_c, 0, 65, 67
1, 93739, Note_off_c, 0, 82, 57
1, 93740, Control_c, 0, 64, 82
1, 93744, Note_on_c, 0, 77, 64
1, 93749, Note_on_c, 0, 73, 57
1, 93752, Note_off_c, 0, 85, 55
1, 93753, Note_off_c, 0, 64, 56
1, 93755, Control_c, 0, 64, 71
1, 93770, Control_c, 0, 64, 62
1, 93785, Control_c, 0, 64, 51
1, 93800, Control_c, 0, 64, 49
1, 93814, Control_c, 0, 64, 52
1, 93829, Control_c, 0, 64, 58
1, 93841, Note_off_c, 0, 73, 63
1, 93844, Control_c, 0, 64, 63
1, 93859, Control_c, 0, 64, 69
1, 93870, Note_on_c, 0, 85, 72
1, 93871, Note_off_c, 0, 77, 63
1, 93875, Control_c, 0, 64, 80
1, 93876, Note_on_c, 0, 82, 61
1, 93890, Control_c, 0, 64, 112
1, 93904, Control_c, 0, 64, 127
1, 93905, Note_off_c, 0, 82, 67
1, 93918, Note_off_c, 0, 85, 63
1, 94016, Note_on_c, 0, 63, 71
1, 94031, Note_on_c, 0, 89, 64
1, 94056, Note_off_c, 0, 65, 58
1, 94063, Note_on_c, 0, 85, 11
1, 94096, Note_off_c, 0, 89, 62
1, 94108, Note_off_c, 0, 85, 36
1, 94125, Note_on_c, 0, 97, 73
1, 94136, Note_on_c, 0, 94, 63
1, 94219, Note_off_c, 0, 97, 63
1, 94239, Note_off_c, 0, 94, 63
1, 94242, Note_on_c, 0, 61, 72
1, 94248, Note_on_c, 0, 89, 48
1, 94254, Note_on_c, 0, 85, 64
1, 94272, Note_off_c, 0, 89, 55
1, 94275, Note_off_c, 0, 63, 61
1, 94283, Note_off_c, 0, 85, 69
1, 94363, Note_on_c, 0, 82, 70
1, 94363, Note_on_c, 0, 85, 65
1, 94481, Note_off_c, 0, 85, 48
1, 94487, Note_off_c, 0, 82, 58
1, 94493, Note_on_c, 0, 63, 65
1, 94499, Note_on_c, 0, 77, 62
1, 94503, Note_on_c, 0, 73, 58
1, 94517, Note_off_c, 0, 61, 58
1, 94585, Note_off_c, 0, 77, 59
1, 94591, Note_off_c, 0, 73, 56
1, 94611, Note_on_c, 0, 85, 63
1, 94615, Note_on_c, 0, 82, 60
1, 94653, Control_c, 0, 64, 123
1, 94668, Control_c, 0, 64, 108
1, 94691, Control_c, 0, 64, 101
1, 94706, Control_c, 0, 64, 94
1, 94721, Control_c, 0, 64, 84
1, 94735, Control_c, 0, 64, 74
1, 94750, Control_c, 0, 64, 64
1, 94753, Note_off_c, 0, 85, 55
1, 94758, Note_on_c, 0, 61, 44
1, 94759, Note_off_c, 0, 82, 36
1, 94761, Note_off_c, 0, 63, 57
1, 94765, Note_on_c, 0, 77, 50
1, 94765, Control_c, 0, 64, 42
1, 94771, Note_on_c, 0, 73, 43
1, 94780, Control_c, 0, 64, 17
1, 94809, Control_c, 0, 64, 23
1, 94824, Control_c, 0, 64, 38
1, 94839, Control_c, 0, 64, 54
1, 94853, Control_c, 0, 64, 65
1, 94860, Note_off_c, 0, 73, 63
1, 94868, Control_c, 0, 64, 73
1, 94883, Control_c, 0, 64, 90
1, 94885, Note_off_c, 0, 77, 63
1, 94895, Note_on_c, 0, 85, 59
1, 94898, Control_c, 0, 64, 127
1, 94903, Note_on_c, 0, 82, 43
1, 94926, Note_off_c, 0, 82, 62
1, 94928, Note_off_c, 0, 85, 67
1, 95030, Note_on_c, 0, 85, 48
1, 95032, Note_on_c, 0, 89, 54
1, 95055, Note_off_c, 0, 85, 59
1, 95076, Note_off_c, 0, 89, 61
1, 95135, Note_on_c, 0, 97, 67
1, 95151, Note_on_c, 0, 94, 53
1, 95235, Note_off_c, 0, 97, 62
1, 95241, Note_off_c, 0, 94, 61
1, 95255, Note_on_c, 0, 89, 56
1, 95267, Note_on_c, 0, 58, 42
1, 95273, Note_on_c, 0, 85, 60
1, 95276, Note_off_c, 0, 89, 59
1, 95297, Note_off_c, 0, 85, 66
1, 95324, Note_off_c, 0, 61, 44
1, 95386, Note_on_c, 0, 82, 61
1, 95387, Note_on_c, 0, 85, 51
1, 95461, Note_off_c, 0, 82, 47
1, 95483, Note_off_c, 0, 85, 53
1, 95518, Note_on_c, 0, 77, 58
1, 95521, Note_on_c, 0, 73, 54
1, 95586, Note_off_c, 0, 77, 60
1, 95587, Note_off_c, 0, 73, 58
1, 95646, Note_on_c, 0, 85, 49
1, 95664, Note_on_c, 0, 82, 35
1, 95712, Note_off_c, 0, 82, 47
1, 95723, Note_off_c, 0, 85, 52
1, 95765, Note_on_c, 0, 77, 48
1, 95776, Note_on_c, 0, 73, 41
1, 95824, Note_off_c, 0, 73, 61
1, 95831, Note_off_c, 0, 77, 53
1, 95894, Note_on_c, 0, 85, 41
1, 95921, Note_off_c, 0, 85, 54
1, 96026, Note_on_c, 0, 60, 49
1, 96034, Note_on_c, 0, 89, 54
1, 96038, Note_on_c, 0, 85, 28
1, 96075, Note_off_c, 0, 85, 49
1, 96081, Note_off_c, 0, 89, 60
1, 96150, Note_on_c, 0, 97, 51
1, 96161, Note_on_c, 0, 94, 48
1, 96249, Note_off_c, 0, 97, 62
1, 96262, Note_off_c, 0, 94, 59
1, 96287, Note_on_c, 0, 61, 70
1, 96302, Note_on_c, 0, 85, 53
1, 96323, Note_off_c, 0, 85, 63
1, 96409, Note_on_c, 0, 85, 59
1, 96418, Note_on_c, 0, 82, 61
1, 96546, Note_on_c, 0, 63, 80
1, 96551, Note_on_c, 0, 77, 59
1, 96556, Note_on_c, 0, 73, 58
1, 96556, Note_off_c, 0, 85, 57
1, 96573, Note_off_c, 0, 82, 36
1, 96577, Note_off_c, 0, 58, 34
1, 96595, Note_off_c, 0, 60, 54
1, 96669, Note_on_c, 0, 82, 64
1, 96678, Note_on_c, 0, 85, 61
1, 96678, Note_off_c, 0, 77, 61
1, 96689, Note_off_c, 0, 73, 59
1, 96731, Note_off_c, 0, 85, 57
1, 96748, Note_off_c, 0, 82, 62
1, 96751, Note_off_c, 0, 61, 36
1, 96862, Note_on_c, 0, 65, 65
1, 96898, Control_c, 0, 64, 97
1, 96913, Control_c, 0, 64, 81
1, 96914, Note_on_c, 0, 73, 52
1, 96919, Note_on_c, 0, 70, 47
1, 96928, Note_off_c, 0, 63, 56
1, 96936, Control_c, 0, 64, 67
1, 96950, Control_c, 0, 64, 50
1, 96965, Control_c, 0, 64, 0
1, 96980, Control_c, 0, 64, 13
1, 96995, Control_c, 0, 64, 29
1, 97010, Control_c, 0, 64, 46
1, 97024, Control_c, 0, 64, 56
1, 97032, Note_off_c, 0, 73, 57
1, 97039, Control_c, 0, 64, 63
1, 97054, Control_c, 0, 64, 69
1, 97069, Control_c, 0, 64, 79
1, 97085, Control_c, 0, 64, 119
1, 97100, Control_c, 0, 64, 127
1, 97106, Note_on_c, 0, 73, 33
1, 97120, Note_on_c, 0, 77, 59
1, 97145, Note_off_c, 0, 70, 48
1, 97161, Note_off_c, 0, 73, 62
1, 97163, Note_off_c, 0, 77, 60
1, 97253, Note_on_c, 0, 82, 63
1, 97275, Note_on_c, 0, 77, 32
1, 97307, Note_off_c, 0, 77, 42
1, 97307, Note_off_c, 0, 82, 59
1, 97367, Note_on_c, 0, 73, 60
1, 97372, Note_on_c, 0, 77, 74
1, 97402, Note_off_c, 0, 77, 63
1, 97416, Note_off_c, 0, 73, 53
1, 97479, Note_on_c, 0, 82, 79
1, 97539, Note_off_c, 0, 82, 61
1, 97598, Note_on_c, 0, 85, 79
1, 97664, Note_off_c, 0, 85, 62
1, 97722, Note_on_c, 0, 66, 77
1, 97736, Note_on_c, 0, 82, 72
1, 97741, Note_on_c, 0, 77, 66
1, 97749, Note_off_c, 0, 65, 58
1, 97771, Note_off_c, 0, 82, 62
1, 97799, Note_off_c, 0, 77, 54
1, 97845, Note_on_c, 0, 85, 82
1, 97911, Note_off_c, 0, 85, 65
1, 97966, Note_on_c, 0, 65, 75
1, 97970, Note_on_c, 0, 89, 84
1, 97980, Control_c, 0, 64, 116
1, 97995, Control_c, 0, 64, 97
1, 97999, Note_off_c, 0, 66, 61
1, 98010, Control_c, 0, 64, 86
1, 98025, Control_c, 0, 64, 79
1, 98037, Note_off_c, 0, 89, 63
1, 98040, Control_c, 0, 64, 77
1, 98055, Control_c, 0, 64, 77
1, 98070, Control_c, 0, 64, 78
1, 98085, Control_c, 0, 64, 79
1, 98086, Note_on_c, 0, 85, 83
1, 98099, Control_c, 0, 64, 82
1, 98100, Note_on_c, 0, 82, 65
1, 98114, Control_c, 0, 64, 87
1, 98129, Control_c, 0, 64, 96
1, 98142, Note_off_c, 0, 85, 65
1, 98143, Note_off_c, 0, 82, 56
1, 98144, Control_c, 0, 64, 112
1, 98159, Control_c, 0, 64, 127
1, 98215, Note_on_c, 0, 89, 78
1, 98216, Note_on_c, 0, 85, 58
1, 98251, Note_off_c, 0, 85, 66
1, 98281, Note_off_c, 0, 89, 62
1, 98338, Note_on_c, 0, 94, 84
1, 98352, Note_on_c, 0, 89, 68
1, 98382, Note_off_c, 0, 89, 67
1, 98435, Note_off_c, 0, 94, 63
1, 98448, Control_c, 0, 64, 110
1, 98463, Control_c, 0, 64, 101
1, 98477, Control_c, 0, 64, 91
1, 98484, Note_on_c, 0, 63, 58
1, 98489, Note_on_c, 0, 89, 73
1, 98492, Control_c, 0, 64, 78
1, 98494, Note_on_c, 0, 85, 63
1, 98507, Control_c, 0, 64, 66
1, 98508, Note_off_c, 0, 65, 52
1, 98522, Control_c, 0, 64, 55
1, 98536, Control_c, 0, 64, 42
1, 98551, Control_c, 0, 64, 45
1, 98566, Control_c, 0, 64, 48
1, 98578, Note_off_c, 0, 89, 62
1, 98581, Control_c, 0, 64, 53
1, 98596, Control_c, 0, 64, 58
1, 98610, Control_c, 0, 64, 63
1, 98625, Control_c, 0, 64, 69
1, 98639, Note_on_c, 0, 94, 75
1, 98640, Control_c, 0, 64, 79
1, 98650, Note_on_c, 0, 89, 54
1, 98655, Control_c, 0, 64, 102
1, 98671, Control_c, 0, 64, 127
1, 98673, Note_off_c, 0, 85, 51
1, 98746, Note_off_c, 0, 94, 57
1, 98818, Control_c, 0, 64, 123
1, 98833, Control_c, 0, 64, 107
1, 98848, Control_c, 0, 64, 100
1, 98854, Note_on_c, 0, 61, 40
1, 98863, Control_c, 0, 64, 93
1, 98878, Control_c, 0, 64, 88
1, 98881, Note_on_c, 0, 97, 55
1, 98886, Note_on_c, 0, 94, 50
1, 98892, Control_c, 0, 64, 83
1, 98907, Control_c, 0, 64, 78
1, 98917, Note_off_c, 0, 63, 54
1, 98922, Control_c, 0, 64, 73
1, 98937, Control_c, 0, 64, 69
1, 98941, Note_off_c, 0, 89, 37
1, 98952, Control_c, 0, 64, 65
1, 98967, Control_c, 0, 64, 60
1, 98982, Control_c, 0, 64, 53
1, 98997, Control_c, 0, 64, 45
1, 99012, Control_c, 0, 64, 41
1, 99026, Control_c, 0, 64, 42
1, 99041, Control_c, 0, 64, 47
1, 99056, Control_c, 0, 64, 52
1, 99071, Control_c, 0, 64, 57
1, 99086, Control_c, 0, 64, 62
1, 99100, Control_c, 0, 64, 66
1, 99115, Control_c, 0, 64, 71
1, 99130, Control_c, 0, 64, 79
1, 99144, Control_c, 0, 64, 88
1, 99152, Note_off_c, 0, 97, 52
1, 99159, Control_c, 0, 64, 98
1, 99182, Note_off_c, 0, 94, 26
1, 99182, Control_c, 0, 64, 109
1, 99196, Control_c, 0, 64, 118
1, 99211, Control_c, 0, 64, 121
1, 99256, Control_c, 0, 64, 118
1, 99271, Control_c, 0, 64, 114
1, 99286, Control_c, 0, 64, 110
1, 99300, Control_c, 0, 64, 106
1, 99315, Control_c, 0, 64, 102
1, 99316, Note_on_c, 0, 65, 40
1, 99330, Control_c, 0, 64, 99
1, 99345, Control_c, 0, 64, 96
1, 99359, Control_c, 0, 64, 92
1, 99374, Control_c, 0, 64, 88
1, 99389, Control_c, 0, 64, 84
1, 99404, Control_c, 0, 64, 81
1, 99419, Control_c, 0, 64, 78
1, 99433, Control_c, 0, 64, 75
1, 99448, Control_c, 0, 64, 72
1, 99463, Control_c, 0, 64, 70
1, 99479, Control_c, 0, 64, 68
1, 99494, Control_c, 0, 64, 66
1, 99509, Control_c, 0, 64, 65
1, 99523, Control_c, 0, 64, 64
1, 99531, Note_off_c, 0, 61, 36
1, 99538, Control_c, 0, 64, 63
1, 99553, Control_c, 0, 64, 62
1, 99567, Control_c, 0, 64, 62
1, 99582, Control_c, 0, 64, 61
1, 99597, Control_c, 0, 64, 59
1, 99612, Control_c, 0, 64, 58
1, 99627, Control_c, 0, 64, 56
1, 99641, Control_c, 0, 64, 55
1, 99656, Control_c, 0, 64, 53
1, 99671, Control_c, 0, 64, 51
1, 99686, Control_c, 0, 64, 49
1, 99701, Control_c, 0, 64, 46
1, 99715, Control_c, 0, 64, 44
1, 99730, Control_c, 0, 64, 42
1, 99745, Control_c, 0, 64, 39
1, 99760, Control_c, 0, 64, 36
1, 99775, Control_c, 0, 64, 31
1, 99790, Control_c, 0, 64, 21
1, 99805, Control_c, 0, 64, 0
1, 100109, Control_c, 0, 64, 26
1, 100123, Control_c, 0, 64, 41
1, 100138, Control_c, 0, 64, 53
1, 100153, Control_c, 0, 64, 59
1, 100168, Control_c, 0, 64, 61
1, 100182, Control_c, 0, 64, 63
1, 100197, Control_c, 0, 64, 65
1, 100212, Control_c, 0, 64, 67
1, 100227, Control_c, 0, 64, 70
1, 100242, Control_c, 0, 64, 74
1, 100256, Control_c, 0, 64, 81
1, 100272, Control_c, 0, 64, 87
1, 100287, Control_c, 0, 64, 95
1, 100302, Control_c, 0, 64, 104
1, 100317, Control_c, 0, 64, 115
1, 100332, Control_c, 0, 64, 127
1, 100416, Note_on_c, 0, 66, 41
1, 100534, Note_off_c, 0, 65, 53
1, 100753, Control_c, 0, 64, 112
1, 100768, Control_c, 0, 64, 104
1, 100783, Control_c, 0, 64, 97
1, 100797, Control_c, 0, 64, 91
1, 100812, Control_c, 0, 64, 85
1, 100824, Note_on_c, 0, 65, 52
1, 100827, Control_c, 0, 64, 81
1, 100842, Control_c, 0, 64, 78
1, 100857, Control_c, 0, 64, 76
1, 100872, Control_c, 0, 64, 76
1, 100887, Control_c, 0, 64, 74
1, 100901, Control_c, 0, 64, 72
1, 100916, Control_c, 0, 64, 70
1, 100919, Note_off_c, 0, 66, 52
1, 100931, Control_c, 0, 64, 68
1, 100946, Control_c, 0, 64, 67
1, 100961, Control_c, 0, 64, 64
1, 100976, Control_c, 0, 64, 61
1, 100991, Control_c, 0, 64, 56
1, 101005, Control_c, 0, 64, 52
1, 101034, Control_c, 0, 64, 54
1, 101049, Control_c, 0, 64, 55
1, 101064, Control_c, 0, 64, 58
1, 101080, Control_c, 0, 64, 60
1, 101094, Control_c, 0, 64, 64
1, 101109, Control_c, 0, 64, 68
1, 101124, Control_c, 0, 64, 75
1, 101139, Control_c, 0, 64, 84
1, 101154, Control_c, 0, 64, 97
1, 101168, Control_c, 0, 64, 127
1, 101183, Control_c, 0, 67, 124
1, 101198, Control_c, 0, 67, 122
1, 101213, Control_c, 0, 67, 120
1, 101217, Note_on_c, 0, 63, 41
1, 101222, Note_off_c, 0, 65, 37
1, 101227, Control_c, 0, 67, 117
1, 101242, Control_c, 0, 67, 115
1, 101257, Control_c, 0, 67, 112
1, 101272, Control_c, 0, 67, 107
1, 101278, Note_off_c, 0, 63, 56
1, 101286, Control_c, 0, 67, 102
1, 101301, Control_c, 0, 67, 96
1, 101306, Note_on_c, 0, 65, 41
1, 101316, Control_c, 0, 67, 92
1, 101331, Control_c, 0, 67, 86
1, 101346, Control_c, 0, 67, 80
1, 101361, Control_c, 0, 67, 73
1, 101375, Control_c, 0, 67, 66
1, 101390, Control_c, 0, 67, 59
1, 101392, Note_on_c, 0, 63, 63
1, 101405, Control_c, 0, 67, 54
1, 101427, Control_c, 0, 67, 50
1, 101442, Control_c, 0, 67, 45
1, 101457, Control_c, 0, 67, 40
1, 101467, Note_off_c, 0, 65, 32
1, 101472, Control_c, 0, 67, 34
1, 101487, Control_c, 0, 67, 28
1, 101501, Control_c, 0, 67, 22
1, 101516, Control_c, 0, 67, 15
1, 101531, Control_c, 0, 67, 0
1, 101704, Note_on_c, 0, 61, 66
1, 101793, Note_off_c, 0, 63, 55
1, 102206, Note_on_c, 0, 59, 40
1, 102222, Control_c, 0, 64, 116
1, 102237, Control_c, 0, 64, 104
1, 102251, Control_c, 0, 64, 93
1, 102264, Note_on_c, 0, 78, 43
1, 102266, Control_c, 0, 64, 82
1, 102268, Note_on_c, 0, 75, 40
1, 102281, Control_c, 0, 64, 71
1, 102286, Note_off_c, 0, 61, 51
1, 102296, Control_c, 0, 64, 61
1, 102311, Control_c, 0, 64, 44
1, 102325, Control_c, 0, 64, 36
1, 102340, Control_c, 0, 64, 36
1, 102355, Control_c, 0, 64, 38
1, 102369, Control_c, 0, 64, 46
1, 102384, Control_c, 0, 64, 54
1, 102399, Control_c, 0, 64, 62
1, 102414, Control_c, 0, 64, 68
1, 102429, Control_c, 0, 64, 78
1, 102443, Control_c, 0, 64, 102
1, 102458, Control_c, 0, 64, 127
1, 102481, Note_off_c, 0, 75, 42
1, 102498, Note_off_c, 0, 78, 58
1, 102511, Note_on_c, 0, 87, 52
1, 102515, Note_on_c, 0, 82, 38
1, 102541, Note_off_c, 0, 82, 54
1, 102544, Note_off_c, 0, 87, 65
1, 102655, Note_on_c, 0, 90, 56
1, 102663, Note_on_c, 0, 87, 46
1, 102687, Note_off_c, 0, 90, 63
1, 102693, Note_off_c, 0, 87, 58
1, 102779, Note_on_c, 0, 94, 55
1, 102780, Note_on_c, 0, 99, 52
1, 102844, Note_off_c, 0, 99, 57
1, 102873, Note_off_c, 0, 94, 60
1, 102898, Note_on_c, 0, 87, 58
1, 102905, Note_on_c, 0, 63, 52
1, 102929, Note_off_c, 0, 87, 64
1, 103016, Note_on_c, 0, 87, 53
1, 103027, Note_on_c, 0, 82, 58
1, 103069, Note_off_c, 0, 87, 52
1, 103072, Note_off_c, 0, 82, 54
1, 103154, Note_on_c, 0, 65, 69
1, 103154, Note_on_c, 0, 75, 51
1, 103160, Note_on_c, 0, 78, 50
1, 103204, Note_off_c, 0, 78, 63
1, 103211, Note_off_c, 0, 75, 52
1, 103273, Note_on_c, 0, 82, 55
1, 103274, Note_on_c, 0, 87, 59
1, 103291, Note_off_c, 0, 63, 35
1, 103346, Note_off_c, 0, 82, 47
1, 103395, Note_on_c, 0, 66, 74
1, 103410, Note_on_c, 0, 75, 43
1, 103411, Note_off_c, 0, 87, 34
1, 103412, Note_on_c, 0, 78, 48
1, 103444, Note_off_c, 0, 75, 56
1, 103448, Note_off_c, 0, 65, 57
1, 103474, Note_off_c, 0, 78, 57
1, 103516, Note_on_c, 0, 87, 63
1, 103524, Note_on_c, 0, 82, 55
1, 103547, Note_off_c, 0, 82, 65
1, 103550, Note_off_c, 0, 87, 65
1, 103643, Note_on_c, 0, 90, 68
1, 103659, Note_on_c, 0, 87, 52
1, 103680, Note_off_c, 0, 90, 66
1, 103687, Note_off_c, 0, 87, 61
1, 103751, Note_on_c, 0, 99, 75
1, 103763, Note_on_c, 0, 94, 65
1, 103838, Note_off_c, 0, 99, 64
1, 103862, Note_off_c, 0, 94, 63
1, 103863, Note_on_c, 0, 90, 65
1, 103870, Note_on_c, 0, 87, 73
1, 103887, Note_off_c, 0, 90, 64
1, 103894, Note_off_c, 0, 87, 68
1, 103981, Note_on_c, 0, 82, 74
1, 103981, Note_on_c, 0, 87, 70
1, 104099, Note_off_c, 0, 87, 40
1, 104106, Note_on_c, 0, 68, 81
1, 104107, Note_off_c, 0, 82, 62
1, 104109, Note_on_c, 0, 75, 61
1, 104118, Note_on_c, 0, 78, 64
1, 104170, Note_off_c, 0, 66, 60
1, 104206, Note_off_c, 0, 75, 57
1, 104213, Note_off_c, 0, 78, 57
1, 104222, Note_on_c, 0, 87, 70
1, 104224, Note_on_c, 0, 82, 71
1, 104370, Note_off_c, 0, 82, 62
1, 104372, Note_on_c, 0, 70, 80
1, 104389, Note_on_c, 0, 75, 47
1, 104392, Note_on_c, 0, 78, 56
1, 104401, Note_off_c, 0, 87, 36
1, 104439, Note_off_c, 0, 68, 56
1, 104458, Note_off_c, 0, 75, 59
1, 104499, Note_off_c, 0, 78, 63
1, 104503, Note_on_c, 0, 82, 63
1, 104508, Note_on_c, 0, 87, 70
1, 104531, Note_off_c, 0, 82, 67
1, 104541, Note_off_c, 0, 87, 64
1, 104628, Note_on_c, 0, 90, 73
1, 104637, Note_on_c, 0, 87, 65
1, 104672, Note_off_c, 0, 87, 59
1, 104680, Note_off_c, 0, 90, 61
1, 104729, Note_on_c, 0, 99, 81
1, 104736, Note_on_c, 0, 94, 74
1, 104822, Note_off_c, 0, 99, 64
1, 104842, Note_off_c, 0, 94, 63
1, 104844, Note_on_c, 0, 90, 63
1, 104849, Note_on_c, 0, 87, 74
1, 104869, Note_off_c, 0, 90, 65
1, 104877, Note_off_c, 0, 87, 66
1, 104956, Note_on_c, 0, 87, 78
1, 104961, Note_on_c, 0, 82, 76
1, 105000, Note_off_c, 0, 59, 39
1, 105024, Note_off_c, 0, 70, 53
1, 105081, Note_off_c, 0, 82, 63
1, 105083, Note_on_c, 0, 75, 72
1, 105083, Note_on_c, 0, 78, 74
1, 105084, Note_off_c, 0, 87, 55
1, 105185, Note_off_c, 0, 75, 58
1, 105193, Note_on_c, 0, 87, 81
1, 105194, Note_on_c, 0, 82, 75
1, 105195, Note_off_c, 0, 78, 64
1, 105275, Note_on_c, 0, 59, 51
1, 105276, Control_c, 0, 64, 91
1, 105291, Control_c, 0, 64, 72
1, 105306, Control_c, 0, 64, 62
1, 105321, Control_c, 0, 64, 53
1, 105330, Note_on_c, 0, 78, 63
1, 105330, Note_off_c, 0, 82, 61
1, 105330, Note_off_c, 0, 87, 51
1, 105335, Control_c, 0, 64, 55
1, 105343, Note_on_c, 0, 75, 54
1, 105347, Note_on_c, 0, 68, 56
1, 105350, Control_c, 0, 64, 59
1, 105365, Control_c, 0, 64, 63
1, 105379, Note_off_c, 0, 59, 62
1, 105380, Control_c, 0, 64, 71
1, 105394, Control_c, 0, 64, 87
1, 105409, Control_c, 0, 64, 127
1, 105413, Note_off_c, 0, 68, 61
1, 105421, Note_on_c, 0, 70, 64
1, 105453, Note_off_c, 0, 70, 65
1, 105464, Note_off_c, 0, 75, 60
1, 105468, Note_off_c, 0, 78, 63
1, 105474, Note_on_c, 0, 87, 57
1, 105478, Note_on_c, 0, 68, 60
1, 105480, Note_on_c, 0, 82, 58
1, 105521, Note_off_c, 0, 68, 61
1, 105544, Note_on_c, 0, 70, 52
1, 105565, Note_off_c, 0, 87, 61
1, 105567, Note_off_c, 0, 70, 59
1, 105572, Note_on_c, 0, 68, 58
1, 105575, Note_off_c, 0, 82, 64
1, 105592, Note_on_c, 0, 78, 70
1, 105595, Note_on_c, 0, 75, 63
1, 105608, Note_off_c, 0, 68, 62
1, 105628, Note_on_c, 0, 70, 62
1, 105657, Note_off_c, 0, 70, 55
1, 105667, Note_on_c, 0, 68, 65
1, 105683, Note_off_c, 0, 78, 60
1, 105685, Note_on_c, 0, 87, 74
1, 105691, Note_on_c, 0, 82, 68
1, 105695, Note_off_c, 0, 75, 61
1, 105698, Note_off_c, 0, 68, 59
1, 105740, Poly_aftertouch_c, 0, 70, 0
1, 105767, Note_on_c, 0, 68, 62
1, 105776, Note_off_c, 0, 87, 62
1, 105781, Note_off_c, 0, 82, 64
1, 105794, Note_on_c, 0, 78, 76
1, 105796, Note_off_c, 0, 68, 65
1, 105804, Note_on_c, 0, 75, 74
1, 105811, Note_on_c, 0, 70, 71
1, 105844, Note_off_c, 0, 70, 62
1, 105859, Note_on_c, 0, 68, 74
1, 105886, Note_off_c, 0, 78, 59
1, 105893, Note_on_c, 0, 87, 66
1, 105893, Note_off_c, 0, 68, 59
1, 105895, Note_on_c, 0, 80, 65
1, 105897, Note_off_c, 0, 75, 62
1, 105921, Note_on_c, 0, 70, 66
1, 105960, Note_off_c, 0, 70, 57
1, 105975, Note_on_c, 0, 68, 62
1, 105999, Note_off_c, 0, 87, 56
1, 106006, Note_off_c, 0, 68, 65
1, 106012, Note_on_c, 0, 70, 69
1, 106017, Note_off_c, 0, 80, 62
1, 106017, Note_on_c, 0, 77, 60
1, 106020, Note_on_c, 0, 75, 69
1, 106058, Note_off_c, 0, 70, 60
1, 106073, Note_on_c, 0, 68, 60
1, 106112, Note_off_c, 0, 68, 61
1, 106120, Note_off_c, 0, 75, 51
1, 106121, Note_off_c, 0, 77, 57
1, 106124, Note_on_c, 0, 87, 65
1, 106128, Note_on_c, 0, 70, 57
1, 106144, Note_on_c, 0, 80, 53
1, 106157, Note_off_c, 0, 70, 59
1, 106184, Note_on_c, 0, 68, 58
1, 106199, Note_off_c, 0, 87, 58
1, 106216, Note_off_c, 0, 68, 64
1, 106230, Note_on_c, 0, 70, 66
1, 106264, Note_off_c, 0, 70, 60
1, 106295, Note_on_c, 0, 68, 58
1, 106333, Note_off_c, 0, 68, 62
1, 106421, Note_off_c, 0, 80, 39
1, 106425, Control_c, 0, 64, 123
1, 106428, Note_on_c, 0, 58, 52
1, 106440, Control_c, 0, 64, 99
1, 106455, Control_c, 0, 64, 83
1, 106462, Note_on_c, 0, 77, 46
1, 106466, Note_on_c, 0, 73, 43
1, 106470, Control_c, 0, 64, 70
1, 106484, Control_c, 0, 64, 57
1, 106499, Control_c, 0, 64, 37
1, 106514, Control_c, 0, 64, 32
1, 106529, Control_c, 0, 64, 34
1, 106544, Control_c, 0, 64, 44
1, 106558, Control_c, 0, 64, 54
1, 106573, Control_c, 0, 64, 62
1, 106588, Control_c, 0, 64, 69
1, 106603, Control_c, 0, 64, 82
1, 106617, Control_c, 0, 64, 127
1, 106626, Note_off_c, 0, 73, 53
1, 106640, Note_off_c, 0, 77, 58
1, 106681, Note_on_c, 0, 85, 56
1, 106688, Note_on_c, 0, 80, 37
1, 106714, Note_off_c, 0, 80, 54
1, 106714, Note_off_c, 0, 85, 67
1, 106813, Note_on_c, 0, 89, 62
1, 106814, Note_on_c, 0, 85, 51
1, 106851, Note_off_c, 0, 89, 62
1, 106851, Note_off_c, 0, 85, 63
1, 106929, Note_on_c, 0, 97, 61
1, 106938, Note_on_c, 0, 92, 56
1, 107003, Note_off_c, 0, 97, 63
1, 107028, Note_off_c, 0, 92, 60
1, 107055, Note_on_c, 0, 61, 55
1, 107055, Note_on_c, 0, 85, 57
1, 107084, Note_off_c, 0, 85, 66
1, 107182, Note_on_c, 0, 80, 57
1, 107183, Note_on_c, 0, 85, 48
1, 107220, Note_off_c, 0, 80, 65
1, 107227, Note_off_c, 0, 85, 59
1, 107308, Note_on_c, 0, 73, 51
1, 107311, Note_on_c, 0, 63, 72
1, 107316, Note_on_c, 0, 77, 50
1, 107347, Note_off_c, 0, 77, 63
1, 107348, Note_off_c, 0, 73, 61
1, 107433, Note_on_c, 0, 85, 65
1, 107437, Note_on_c, 0, 80, 52
1, 107477, Note_off_c, 0, 80, 63
1, 107482, Note_off_c, 0, 85, 56
1, 107563, Note_on_c, 0, 77, 61
1, 107565, Note_on_c, 0, 65, 74
1, 107577, Note_on_c, 0, 73, 43
1, 107594, Note_off_c, 0, 77, 64
1, 107609, Note_off_c, 0, 73, 51
1, 107675, Note_on_c, 0, 85, 69
1, 107693, Note_on_c, 0, 80, 41
1, 107704, Note_off_c, 0, 85, 68
1, 107719, Note_off_c, 0, 80, 53
1, 107806, Note_on_c, 0, 85, 65
1, 107806, Note_on_c, 0, 89, 71
1, 107833, Note_off_c, 0, 85, 66
1, 107833, Note_off_c, 0, 89, 67
1, 107900, Note_off_c, 0, 63, 60
1, 107912, Note_on_c, 0, 97, 81
1, 107918, Note_on_c, 0, 92, 72
1, 108008, Note_off_c, 0, 97, 63
1, 108022, Note_off_c, 0, 92, 64
1, 108026, Note_on_c, 0, 89, 71
1, 108035, Note_on_c, 0, 85, 74
1, 108053, Note_off_c, 0, 89, 67
1, 108062, Note_off_c, 0, 85, 67
1, 108144, Note_on_c, 0, 80, 76
1, 108160, Note_on_c, 0, 85, 69
1, 108290, Note_off_c, 0, 80, 61
1, 108291, Note_on_c, 0, 66, 82
1, 108291, Note_on_c, 0, 73, 62
1, 108292, Note_off_c, 0, 85, 63
1, 108294, Note_on_c, 0, 77, 67
1, 108317, Note_off_c, 0, 65, 58
1, 108397, Note_off_c, 0, 73, 52
1, 108401, Note_on_c, 0, 85, 80
1, 108404, Note_on_c, 0, 80, 72
1, 108406, Note_off_c, 0, 77, 63
1, 108551, Note_off_c, 0, 85, 46
1, 108556, Note_on_c, 0, 68, 82
1, 108558, Note_off_c, 0, 80, 60
1, 108562, Note_on_c, 0, 73, 50
1, 108566, Note_on_c, 0, 77, 57
1, 108651, Note_off_c, 0, 73, 64
1, 108668, Note_off_c, 0, 77, 61
1, 108679, Note_on_c, 0, 80, 63
1, 108679, Note_on_c, 0, 85, 72
1, 108709, Note_off_c, 0, 80, 67
1, 108713, Note_off_c, 0, 85, 65
1, 108798, Note_on_c, 0, 89, 82
1, 108816, Note_on_c, 0, 85, 50
1, 108831, Note_off_c, 0, 66, 23
1, 108840, Note_off_c, 0, 85, 59
1, 108873, Note_off_c, 0, 89, 61
1, 108911, Note_on_c, 0, 97, 80
1, 108912, Note_on_c, 0, 92, 77
1, 108955, Note_off_c, 0, 58, 33
1, 108996, Note_off_c, 0, 97, 64
1, 109017, Note_on_c, 0, 89, 75
1, 109024, Note_off_c, 0, 92, 65
1, 109039, Note_on_c, 0, 85, 75
1, 109043, Note_off_c, 0, 89, 68
1, 109066, Note_off_c, 0, 85, 68
1, 109148, Note_on_c, 0, 80, 74
1, 109155, Note_on_c, 0, 85, 71
1, 109256, Note_off_c, 0, 68, 53
1, 109269, Note_off_c, 0, 85, 60
1, 109270, Note_on_c, 0, 77, 75
1, 109270, Note_off_c, 0, 80, 62
1, 109275, Note_on_c, 0, 73, 71
1, 109299, Note_off_c, 0, 61, 28
1, 109378, Note_on_c, 0, 85, 76
1, 109379, Note_on_c, 0, 80, 74
1, 109380, Note_off_c, 0, 73, 59
1, 109382, Note_off_c, 0, 77, 62
1, 109464, Control_c, 0, 64, 87
1, 109467, Note_on_c, 0, 58, 55
1, 109479, Control_c, 0, 64, 73
1, 109494, Control_c, 0, 64, 64
1, 109506, Note_off_c, 0, 85, 59
1, 109506, Note_off_c, 0, 80, 60
1, 109508, Control_c, 0, 64, 58
1, 109510, Note_on_c, 0, 77, 64
1, 109516, Note_on_c, 0, 73, 58
1, 109523, Control_c, 0, 64, 59
1, 109529, Note_on_c, 0, 66, 45
1, 109538, Control_c, 0, 64, 61
1, 109553, Control_c, 0, 64, 65
1, 109568, Control_c, 0, 64, 70
1, 109573, Note_off_c, 0, 66, 64
1, 109582, Control_c, 0, 64, 83
1, 109593, Note_on_c, 0, 68, 59
1, 109597, Control_c, 0, 64, 127
1, 109603, Note_off_c, 0, 58, 61
1, 109629, Note_off_c, 0, 73, 61
1, 109630, Note_off_c, 0, 68, 62
1, 109633, Note_on_c, 0, 80, 65
1, 109636, Note_off_c, 0, 77, 62
1, 109639, Note_on_c, 0, 85, 62
1, 109659, Note_on_c, 0, 66, 65
1, 109694, Note_off_c, 0, 66, 64
1, 109713, Note_on_c, 0, 68, 65
1, 109737, Note_off_c, 0, 80, 62
1, 109739, Note_off_c, 0, 85, 61
1, 109742, Note_off_c, 0, 68, 63
1, 109756, Note_on_c, 0, 77, 70
1, 109758, Note_on_c, 0, 73, 66
1, 109764, Note_on_c, 0, 66, 63
1, 109789, Note_off_c, 0, 66, 68
1, 109801, Note_on_c, 0, 68, 71
1, 109843, Note_off_c, 0, 73, 59
1, 109844, Note_off_c, 0, 68, 60
1, 109850, Note_on_c, 0, 66, 71
1, 109850, Note_on_c, 0, 80, 71
1, 109853, Note_on_c, 0, 85, 72
1, 109853, Note_off_c, 0, 77, 62
1, 109886, Note_off_c, 0, 66, 58
1, 109900, Note_on_c, 0, 68, 60
1, 109942, Note_off_c, 0, 80, 63
1, 109949, Note_on_c, 0, 66, 66
1, 109952, Note_off_c, 0, 68, 59
1, 109957, Note_on_c, 0, 77, 75
1, 109957, Note_off_c, 0, 85, 63
1, 109960, Note_on_c, 0, 73, 72
1, 109990, Note_off_c, 0, 66, 62
1, 109991, Note_on_c, 0, 68, 54
1, 110037, Note_off_c, 0, 77, 61
1, 110041, Note_off_c, 0, 68, 60
1, 110053, Note_on_c, 0, 66, 62
1, 110062, Note_off_c, 0, 73, 63
1, 110063, Note_on_c, 0, 85, 66
1, 110065, Note_on_c, 0, 78, 65
1, 110086, Note_off_c, 0, 66, 65
1, 110095, Note_on_c, 0, 68, 64
1, 110142, Note_off_c, 0, 68, 61
1, 110149, Note_on_c, 0, 66, 70
1, 110155, Note_off_c, 0, 85, 57
1, 110166, Note_off_c, 0, 78, 63
1, 110171, Note_on_c, 0, 75, 69
1, 110185, Note_on_c, 0, 73, 64
1, 110186, Note_off_c, 0, 66, 60
1, 110207, Note_on_c, 0, 68, 60
1, 110256, Note_off_c, 0, 68, 61
1, 110276, Note_on_c, 0, 66, 59
1, 110283, Note_off_c, 0, 73, 52
1, 110287, Note_off_c, 0, 75, 59
1, 110293, Note_on_c, 0, 85, 53
1, 110297, Note_on_c, 0, 78, 57
1, 110315, Note_off_c, 0, 66, 63
1, 110324, Note_on_c, 0, 68, 57
1, 110358, Note_off_c, 0, 85, 61
1, 110368, Note_off_c, 0, 68, 53
1, 110408, Note_on_c, 0, 66, 33
1, 110438, Poly_aftertouch_c, 0, 68, 127
1, 110459, Poly_aftertouch_c, 0, 68, 0
1, 110464, Note_off_c, 0, 66, 0
1, 110475, Note_off_c, 0, 78, 31
1, 110481, Note_on_c, 0, 66, 27
1, 110547, Note_off_c, 0, 66, 53
1, 110616, Note_on_c, 0, 56, 45
1, 110620, Control_c, 0, 64, 105
1, 110635, Control_c, 0, 64, 94
1, 110646, Note_on_c, 0, 71, 41
1, 110646, Note_on_c, 0, 75, 43
1, 110651, Control_c, 0, 64, 85
1, 110666, Control_c, 0, 64, 75
1, 110680, Control_c, 0, 64, 64
1, 110695, Control_c, 0, 64, 51
1, 110710, Control_c, 0, 64, 28
1, 110725, Control_c, 0, 64, 24
1, 110740, Control_c, 0, 64, 26
1, 110754, Control_c, 0, 64, 38
1, 110769, Control_c, 0, 64, 50
1, 110784, Control_c, 0, 64, 58
1, 110799, Control_c, 0, 64, 65
1, 110814, Control_c, 0, 64, 73
1, 110828, Control_c, 0, 64, 89
1, 110839, Note_off_c, 0, 71, 56
1, 110843, Control_c, 0, 64, 127
1, 110873, Note_off_c, 0, 75, 59
1, 110880, Note_on_c, 0, 83, 51
1, 110916, Note_off_c, 0, 83, 64
1, 111015, Note_on_c, 0, 83, 47
1, 111018, Note_on_c, 0, 87, 53
1, 111046, Note_off_c, 0, 83, 57
1, 111050, Note_off_c, 0, 87, 64
1, 111120, Note_on_c, 0, 95, 59
1, 111134, Note_on_c, 0, 90, 46
1, 111178, Note_off_c, 0, 95, 40
1, 111221, Note_off_c, 0, 90, 59
1, 111249, Note_on_c, 0, 87, 43
1, 111260, Note_on_c, 0, 83, 57
1, 111263, Note_on_c, 0, 59, 48
1, 111274, Note_off_c, 0, 87, 54
1, 111289, Note_off_c, 0, 83, 66
1, 111376, Note_on_c, 0, 83, 50
1, 111430, Note_off_c, 0, 83, 55
1, 111508, Note_on_c, 0, 61, 64
1, 111521, Note_on_c, 0, 71, 50
1, 111521, Note_on_c, 0, 75, 42
1, 111573, Note_off_c, 0, 75, 56
1, 111585, Note_off_c, 0, 71, 54
1, 111630, Note_on_c, 0, 83, 50
1, 111635, Note_on_c, 0, 78, 48
1, 111698, Note_off_c, 0, 78, 53
1, 111752, Note_off_c, 0, 83, 36
1, 111757, Note_on_c, 0, 63, 67
1, 111765, Note_on_c, 0, 71, 44
1, 111767, Note_on_c, 0, 75, 49
1, 111827, Note_off_c, 0, 71, 59
1, 111868, Note_off_c, 0, 75, 59
1, 111870, Note_on_c, 0, 83, 62
1, 111873, Note_on_c, 0, 78, 50
1, 111901, Note_off_c, 0, 78, 59
1, 111908, Note_off_c, 0, 83, 66
1, 111999, Note_on_c, 0, 87, 68
1, 112015, Note_on_c, 0, 83, 39
1, 112031, Note_off_c, 0, 87, 64
1, 112044, Note_off_c, 0, 83, 54
1, 112108, Note_on_c, 0, 95, 68
1, 112118, Note_on_c, 0, 90, 55
1, 112171, Note_off_c, 0, 95, 50
1, 112209, Note_off_c, 0, 90, 63
1, 112224, Note_on_c, 0, 87, 55
1, 112232, Note_on_c, 0, 83, 66
1, 112244, Note_off_c, 0, 87, 61
1, 112259, Note_off_c, 0, 83, 67
1, 112331, Note_on_c, 0, 83, 61
1, 112349, Note_on_c, 0, 78, 65
1, 112404, Note_off_c, 0, 83, 55
1, 112452, Note_off_c, 0, 56, 38
1, 112470, Note_on_c, 0, 65, 78
1, 112470, Note_off_c, 0, 78, 58
1, 112478, Note_on_c, 0, 75, 61
1, 112482, Note_on_c, 0, 71, 54
1, 112533, Note_off_c, 0, 63, 61
1, 112587, Note_off_c, 0, 71, 52
1, 112590, Note_off_c, 0, 75, 57
1, 112597, Note_on_c, 0, 83, 69
1, 112602, Note_on_c, 0, 78, 61
1, 112748, Note_off_c, 0, 78, 58
1, 112763, Note_on_c, 0, 66, 79
1, 112767, Note_off_c, 0, 83, 38
1, 112771, Note_on_c, 0, 75, 56
1, 112771, Note_on_c, 0, 71, 46
1, 112836, Note_off_c, 0, 65, 53
1, 112859, Note_off_c, 0, 71, 63
1, 112883, Note_on_c, 0, 78, 57
1, 112888, Note_off_c, 0, 75, 62
1, 112889, Note_on_c, 0, 83, 60
1, 112910, Note_off_c, 0, 78, 64
1, 112920, Note_off_c, 0, 83, 66
1, 113004, Note_on_c, 0, 87, 72
1, 113009, Note_on_c, 0, 83, 57
1, 113049, Note_off_c, 0, 83, 60
1, 113066, Note_off_c, 0, 87, 63
1, 113106, Note_on_c, 0, 95, 75
1, 113111, Note_on_c, 0, 90, 68
1, 113180, Note_off_c, 0, 95, 62
1, 113213, Note_off_c, 0, 90, 63
1, 113221, Note_on_c, 0, 87, 60
1, 113227, Note_on_c, 0, 83, 71
1, 113240, Note_off_c, 0, 87, 65
1, 113256, Note_off_c, 0, 83, 66
1, 113293, Note_off_c, 0, 59, 38
1, 113338, Note_on_c, 0, 83, 71
1, 113343, Note_off_c, 0, 61, 56
1, 113345, Note_on_c, 0, 78, 70
1, 113398, Note_off_c, 0, 66, 55
1, 113427, Note_off_c, 0, 83, 57
1, 113461, Note_off_c, 0, 78, 63
1, 113463, Note_on_c, 0, 71, 69
1, 113466, Note_on_c, 0, 75, 69
1, 113552, Note_off_c, 0, 71, 60
1, 113586, Note_on_c, 0, 83, 67
1, 113590, Note_off_c, 0, 75, 61
1, 113592, Note_on_c, 0, 78, 66
1, 113673, Note_off_c, 0, 83, 49
1, 113702, Note_on_c, 0, 68, 45
1, 113703, Note_on_c, 0, 58, 40
1, 113704, Control_c, 0, 64, 97
1, 113719, Control_c, 0, 64, 76
1, 113729, Note_off_c, 0, 78, 58
1, 113734, Control_c, 0, 64, 63
1, 113749, Control_c, 0, 64, 41
1, 113761, Note_on_c, 0, 70, 50
1, 113762, Note_on_c, 0, 75, 43
1, 113764, Control_c, 0, 64, 44
1, 113779, Control_c, 0, 64, 51
1, 113794, Control_c, 0, 64, 55
1, 113809, Control_c, 0, 64, 61
1, 113823, Control_c, 0, 64, 66
1, 113835, Note_off_c, 0, 68, 60
1, 113838, Control_c, 0, 64, 75
1, 113851, Note_off_c, 0, 70, 60
1, 113854, Control_c, 0, 64, 102
1, 113868, Note_on_c, 0, 66, 48
1, 113868, Control_c, 0, 64, 127
1, 113907, Note_off_c, 0, 75, 60
1, 113909, Note_on_c, 0, 82, 51
1, 113913, Note_off_c, 0, 66, 61
1, 113925, Note_on_c, 0, 78, 14
1, 113931, Note_off_c, 0, 58, 37
1, 113940, Note_on_c, 0, 68, 54
1, 113945, Note_off_c, 0, 82, 65
1, 113972, Note_off_c, 0, 78, 35
1, 113974, Note_off_c, 0, 68, 61
1, 113999, Note_on_c, 0, 66, 53
1, 114029, Note_off_c, 0, 66, 64
1, 114038, Note_on_c, 0, 68, 63
1, 114044, Note_on_c, 0, 82, 43
1, 114050, Note_on_c, 0, 87, 62
1, 114076, Note_off_c, 0, 68, 62
1, 114083, Note_off_c, 0, 82, 61
1, 114101, Note_on_c, 0, 66, 60
1, 114101, Note_off_c, 0, 87, 58
1, 114127, Note_on_c, 0, 94, 71
1, 114131, Note_off_c, 0, 66, 64
1, 114146, Note_on_c, 0, 90, 63
1, 114154, Note_on_c, 0, 68, 59
1, 114175, Note_off_c, 0, 68, 61
1, 114207, Note_on_c, 0, 66, 61
1, 114221, Note_off_c, 0, 94, 63
1, 114234, Note_off_c, 0, 66, 67
1, 114235, Note_off_c, 0, 90, 63
1, 114242, Note_on_c, 0, 68, 71
1, 114248, Note_on_c, 0, 87, 56
1, 114256, Note_on_c, 0, 82, 67
1, 114275, Note_off_c, 0, 87, 65
1, 114280, Note_off_c, 0, 68, 56
1, 114293, Note_off_c, 0, 82, 62
1, 114300, Note_on_c, 0, 66, 65
1, 114335, Note_off_c, 0, 66, 64
1, 114343, Note_on_c, 0, 68, 61
1, 114372, Note_off_c, 0, 68, 62
1, 114392, Note_on_c, 0, 78, 73
1, 114392, Note_on_c, 0, 82, 69
1, 114400, Note_on_c, 0, 66, 64
1, 114436, Note_off_c, 0, 66, 63
1, 114453, Note_on_c, 0, 68, 57
1, 114473, Note_off_c, 0, 68, 62
1, 114495, Note_off_c, 0, 82, 56
1, 114499, Note_on_c, 0, 66, 60
1, 114500, Note_on_c, 0, 70, 65
1, 114500, Note_on_c, 0, 75, 66
1, 114509, Note_off_c, 0, 78, 59
1, 114526, Note_off_c, 0, 66, 66
1, 114539, Note_on_c, 0, 68, 69
1, 114622, Note_on_c, 0, 82, 69
1, 114628, Note_on_c, 0, 66, 54
1, 114631, Note_off_c, 0, 68, 57
1, 114631, Note_off_c, 0, 75, 60
1, 114633, Note_off_c, 0, 70, 60
1, 114645, Note_on_c, 0, 78, 57
1, 114664, Note_off_c, 0, 66, 63
1, 114793, Note_on_c, 0, 59, 51
1, 114802, Note_on_c, 0, 66, 42
1, 114815, Note_off_c, 0, 82, 37
1, 114819, Note_off_c, 0, 78, 56
1, 114831, Note_on_c, 0, 75, 50
1, 114840, Control_c, 0, 64, 109
1, 114854, Note_on_c, 0, 70, 45
1, 114855, Control_c, 0, 64, 86
1, 114869, Control_c, 0, 64, 67
1, 114884, Control_c, 0, 64, 53
1, 114906, Control_c, 0, 64, 37
1, 114921, Control_c, 0, 64, 38
1, 114936, Control_c, 0, 64, 41
1, 114950, Control_c, 0, 64, 50
1, 114965, Control_c, 0, 64, 59
1, 114980, Control_c, 0, 64, 64
1, 114995, Control_c, 0, 64, 71
1, 115010, Control_c, 0, 64, 88
1, 115013, Note_off_c, 0, 70, 59
1, 115025, Control_c, 0, 64, 127
1, 115060, Note_on_c, 0, 82, 59
1, 115073, Note_off_c, 0, 75, 61
1, 115074, Note_on_c, 0, 78, 40
1, 115099, Note_off_c, 0, 82, 64
1, 115101, Note_off_c, 0, 78, 52
1, 115194, Note_on_c, 0, 65, 69
1, 115223, Note_on_c, 0, 87, 59
1, 115228, Note_on_c, 0, 82, 45
1, 115285, Note_off_c, 0, 82, 52
1, 115295, Note_off_c, 0, 66, 38
1, 115308, Note_off_c, 0, 87, 58
1, 115325, Note_on_c, 0, 94, 74
1, 115338, Note_on_c, 0, 90, 62
1, 115419, Note_off_c, 0, 94, 63
1, 115437, Note_off_c, 0, 90, 63
1, 115443, Note_on_c, 0, 87, 58
1, 115448, Note_on_c, 0, 63, 76
1, 115455, Note_on_c, 0, 82, 62
1, 115466, Note_off_c, 0, 87, 64
1, 115484, Note_off_c, 0, 82, 67
1, 115486, Note_off_c, 0, 65, 59
1, 115551, Note_on_c, 0, 82, 71
1, 115562, Note_on_c, 0, 78, 74
1, 115690, Note_on_c, 0, 65, 82
1, 115694, Note_on_c, 0, 75, 71
1, 115700, Note_off_c, 0, 78, 61
1, 115702, Note_on_c, 0, 70, 67
1, 115707, Note_off_c, 0, 82, 63
1, 115710, Note_off_c, 0, 63, 60
1, 115794, Note_on_c, 0, 82, 75
1, 115798, Note_off_c, 0, 70, 63
1, 115799, Note_off_c, 0, 75, 62
1, 115803, Note_on_c, 0, 78, 74
1, 115918, Note_on_c, 0, 63, 84
1, 115922, Control_c, 0, 64, 110
1, 115922, Note_on_c, 0, 75, 70
1, 115928, Note_off_c, 0, 82, 61
1, 115928, Note_off_c, 0, 78, 61
1, 115931, Note_on_c, 0, 70, 59
1, 115937, Control_c, 0, 64, 91
1, 115951, Control_c, 0, 64, 80
1, 115956, Note_off_c, 0, 65, 54
1, 115966, Control_c, 0, 64, 72
1, 115981, Control_c, 0, 64, 70
1, 115994, Note_off_c, 0, 70, 63
1, 115995, Control_c, 0, 64, 72
1, 116010, Control_c, 0, 64, 75
1, 116025, Control_c, 0, 64, 80
1, 116026, Note_on_c, 0, 82, 74
1, 116030, Note_off_c, 0, 75, 62
1, 116039, Control_c, 0, 64, 87
1, 116044, Note_on_c, 0, 78, 50
1, 116054, Control_c, 0, 64, 99
1, 116065, Note_off_c, 0, 78, 57
1, 116065, Note_off_c, 0, 82, 63
1, 116068, Control_c, 0, 64, 127
1, 116142, Note_on_c, 0, 61, 84
1, 116161, Note_on_c, 0, 87, 72
1, 116168, Note_off_c, 0, 59, 55
1, 116176, Note_on_c, 0, 82, 57
1, 116217, Note_off_c, 0, 63, 55
1, 116221, Note_off_c, 0, 82, 60
1, 116256, Note_off_c, 0, 87, 61
1, 116259, Note_on_c, 0, 94, 76
1, 116269, Note_on_c, 0, 90, 69
1, 116363, Note_off_c, 0, 94, 63
1, 116380, Note_off_c, 0, 90, 62
1, 116399, Note_on_c, 0, 59, 77
1, 116405, Note_on_c, 0, 82, 65
1, 116421, Note_on_c, 0, 87, 23
1, 116439, Note_off_c, 0, 82, 63
1, 116458, Note_off_c, 0, 87, 40
1, 116459, Note_off_c, 0, 61, 57
1, 116523, Note_on_c, 0, 82, 66
1, 116533, Note_on_c, 0, 78, 63
1, 116665, Note_off_c, 0, 82, 53
1, 116672, Note_off_c, 0, 78, 60
1, 116673, Note_on_c, 0, 61, 76
1, 116674, Note_on_c, 0, 70, 54
1, 116675, Note_on_c, 0, 75, 58
1, 116744, Note_off_c, 0, 59, 50
1, 116802, Note_on_c, 0, 82, 58
1, 116808, Note_off_c, 0, 75, 59
1, 116827, Note_on_c, 0, 78, 51
1, 116833, Note_on_c, 0, 63, 73
1, 116846, Note_off_c, 0, 70, 36
1, 116873, Note_off_c, 0, 61, 58
1, 116890, Note_off_c, 0, 82, 63
1, 117025, Note_off_c, 0, 78, 35
1, 117057, Control_c, 0, 64, 112
1, 117058, Note_on_c, 0, 61, 50
1, 117071, Control_c, 0, 64, 99
1, 117086, Control_c, 0, 64, 89
1, 117094, Note_on_c, 0, 75, 42
1, 117100, Note_on_c, 0, 69, 45
1, 117101, Control_c, 0, 64, 77
1, 117105, Note_off_c, 0, 63, 58
1, 117115, Control_c, 0, 64, 67
1, 117130, Control_c, 0, 64, 53
1, 117153, Control_c, 0, 64, 32
1, 117168, Control_c, 0, 64, 31
1, 117197, Control_c, 0, 64, 36
1, 117212, Control_c, 0, 64, 49
1, 117227, Control_c, 0, 64, 59
1, 117242, Control_c, 0, 64, 66
1, 117257, Control_c, 0, 64, 74
1, 117271, Control_c, 0, 64, 91
1, 117286, Control_c, 0, 64, 127
1, 117320, Note_off_c, 0, 69, 33
1, 117332, Note_on_c, 0, 81, 54
1, 117337, Note_off_c, 0, 75, 56
1, 117357, Note_on_c, 0, 78, 24
1, 117374, Note_off_c, 0, 81, 62
1, 117395, Note_off_c, 0, 78, 39
1, 117474, Note_on_c, 0, 87, 64
1, 117487, Note_on_c, 0, 81, 46
1, 117514, Note_off_c, 0, 81, 57
1, 117519, Note_off_c, 0, 87, 56
1, 117589, Note_on_c, 0, 93, 60
1, 117604, Note_on_c, 0, 90, 46
1, 117672, Note_off_c, 0, 93, 63
1, 117690, Note_off_c, 0, 90, 61
1, 117705, Note_on_c, 0, 87, 52
1, 117708, Note_on_c, 0, 59, 44
1, 117726, Note_on_c, 0, 81, 50
1, 117726, Note_off_c, 0, 87, 62
1, 117753, Note_off_c, 0, 81, 65
1, 117784, Note_off_c, 0, 61, 33
1, 117853, Note_on_c, 0, 78, 46
1, 117909, Poly_aftertouch_c, 0, 81, 127
1, 117931, Note_off_c, 0, 78, 50
1, 117950, Poly_aftertouch_c, 0, 81, 0
1, 117968, Note_on_c, 0, 75, 49
1, 117991, Note_on_c, 0, 69, 39
1, 118043, Note_off_c, 0, 75, 51
1, 118073, Note_off_c, 0, 69, 43
1, 118080, Note_on_c, 0, 81, 50
1, 118107, Note_on_c, 0, 78, 38
1, 118179, Note_off_c, 0, 78, 49
1, 118222, Note_off_c, 0, 81, 32
1, 118223, Note_on_c, 0, 75, 48
1, 118227, Note_on_c, 0, 69, 46
1, 118303, Note_off_c, 0, 69, 58
1, 118338, Note_on_c, 0, 81, 54
1, 118349, Note_off_c, 0, 75, 53
1, 118352, Note_on_c, 0, 78, 44
1, 118376, Note_off_c, 0, 78, 56
1, 118376, Note_off_c, 0, 81, 65
1, 118481, Note_on_c, 0, 87, 58
1, 118483, Note_on_c, 0, 61, 52
1, 118489, Note_on_c, 0, 81, 41
1, 118519, Note_off_c, 0, 87, 61
1, 118521, Note_off_c, 0, 81, 52
1, 118599, Note_on_c, 0, 93, 58
1, 118614, Note_on_c, 0, 90, 46
1, 118670, Note_off_c, 0, 93, 51
1, 118710, Note_off_c, 0, 90, 61
1, 118731, Note_on_c, 0, 63, 65
1, 118753, Note_on_c, 0, 81, 48
1, 118754, Note_on_c, 0, 87, 9
1, 118775, Note_off_c, 0, 81, 62
1, 118802, Note_off_c, 0, 87, 34
1, 118856, Note_on_c, 0, 81, 59
1, 118872, Note_on_c, 0, 78, 59
1, 118911, Note_off_c, 0, 59, 23
1, 118949, Note_off_c, 0, 81, 51
1, 118990, Note_off_c, 0, 78, 51
1, 119001, Note_on_c, 0, 65, 66
1, 119008, Note_on_c, 0, 75, 49
1, 119017, Note_on_c, 0, 69, 52
1, 119058, Note_off_c, 0, 63, 56
1, 119063, Note_off_c, 0, 61, 37
1, 119151, Note_on_c, 0, 78, 53
1, 119163, Note_on_c, 0, 81, 52
1, 119166, Note_off_c, 0, 75, 41
1, 119178, Note_off_c, 0, 69, 45
1, 119285, Control_c, 0, 64, 121
1, 119300, Control_c, 0, 64, 107
1, 119315, Control_c, 0, 64, 100
1, 119330, Control_c, 0, 64, 95
1, 119345, Control_c, 0, 64, 91
1, 119353, Note_off_c, 0, 81, 26
1, 119359, Control_c, 0, 64, 85
1, 119374, Control_c, 0, 64, 77
1, 119378, Note_on_c, 0, 66, 47
1, 119397, Control_c, 0, 64, 68
1, 119405, Note_off_c, 0, 78, 35
1, 119412, Control_c, 0, 64, 58
1, 119415, Note_on_c, 0, 75, 33
1, 119423, Note_on_c, 0, 69, 40
1, 119427, Control_c, 0, 64, 42
1, 119443, Control_c, 0, 64, 39
1, 119453, Note_off_c, 0, 65, 51
1, 119472, Control_c, 0, 64, 39
1, 119487, Control_c, 0, 64, 45
1, 119502, Control_c, 0, 64, 53
1, 119516, Control_c, 0, 64, 60
1, 119531, Control_c, 0, 64, 67
1, 119546, Control_c, 0, 64, 77
1, 119556, Note_off_c, 0, 75, 61
1, 119561, Control_c, 0, 64, 102
1, 119576, Control_c, 0, 64, 127
1, 119634, Note_off_c, 0, 69, 42
1, 119664, Note_on_c, 0, 78, 46
1, 119670, Note_on_c, 0, 75, 26
1, 119699, Note_off_c, 0, 78, 60
1, 119705, Note_off_c, 0, 75, 51
1, 119790, Note_on_c, 0, 81, 54
1, 119818, Note_on_c, 0, 78, 10
1, 119829, Note_off_c, 0, 81, 65
1, 119866, Note_off_c, 0, 78, 28
1, 119908, Note_on_c, 0, 78, 53
1, 119916, Note_on_c, 0, 75, 56
1, 119949, Note_off_c, 0, 78, 64
1, 119957, Note_off_c, 0, 75, 60
1, 120027, Note_on_c, 0, 81, 70
1, 120072, Note_off_c, 0, 81, 62
1, 120158, Note_on_c, 0, 87, 70
1, 120224, Note_off_c, 0, 87, 59
1, 120245, Poly_aftertouch_c, 0, 81, 0
1, 120274, Note_on_c, 0, 65, 56
1, 120283, Note_on_c, 0, 81, 56
1, 120287, Note_on_c, 0, 78, 57
1, 120324, Note_off_c, 0, 66, 51
1, 120327, Note_off_c, 0, 81, 63
1, 120332, Note_off_c, 0, 78, 58
1, 120397, Note_on_c, 0, 87, 73
1, 120508, Note_off_c, 0, 87, 51
1, 120524, Note_on_c, 0, 90, 63
1, 120525, Note_on_c, 0, 63, 53
1, 120562, Note_off_c, 0, 65, 55
1, 120611, Note_off_c, 0, 90, 60
1, 120660, Note_on_c, 0, 81, 60
1, 120663, Note_on_c, 0, 87, 64
1, 120707, Note_off_c, 0, 87, 58
1, 120751, Note_off_c, 0, 81, 57
1, 120786, Note_on_c, 0, 65, 75
1, 120801, Note_on_c, 0, 90, 71
1, 120835, Note_off_c, 0, 63, 57
1, 120862, Note_off_c, 0, 90, 61
1, 120904, Poly_aftertouch_c, 0, 90, 0
1, 120913, Note_on_c, 0, 90, 45
1, 120914, Note_on_c, 0, 93, 78
1, 120956, Note_off_c, 0, 90, 65
1, 121029, Control_c, 0, 64, 99
1, 121030, Note_on_c, 0, 66, 74
1, 121044, Control_c, 0, 64, 83
1, 121046, Note_on_c, 0, 90, 81
1, 121052, Note_on_c, 0, 87, 71
1, 121056, Note_off_c, 0, 93, 61
1, 121059, Control_c, 0, 64, 71
1, 121074, Control_c, 0, 64, 62
1, 121089, Control_c, 0, 64, 53
1, 121093, Note_off_c, 0, 87, 59
1, 121097, Note_off_c, 0, 65, 54
1, 121104, Control_c, 0, 64, 52
1, 121118, Control_c, 0, 64, 54
1, 121133, Control_c, 0, 64, 57
1, 121148, Control_c, 0, 64, 60
1, 121163, Control_c, 0, 64, 63
1, 121166, Note_on_c, 0, 87, 68
1, 121167, Note_on_c, 0, 81, 66
1, 121178, Control_c, 0, 64, 67
1, 121193, Control_c, 0, 64, 75
1, 121195, Note_off_c, 0, 90, 62
1, 121207, Control_c, 0, 64, 106
1, 121222, Control_c, 0, 64, 127
1, 121240, Note_off_c, 0, 87, 63
1, 121322, Note_on_c, 0, 68, 71
1, 121326, Control_c, 0, 64, 102
1, 121327, Note_on_c, 0, 90, 73
1, 121341, Control_c, 0, 64, 84
1, 121350, Note_on_c, 0, 87, 63
1, 121356, Control_c, 0, 64, 71
1, 121357, Note_off_c, 0, 81, 53
1, 121370, Control_c, 0, 64, 59
1, 121385, Control_c, 0, 64, 29
1, 121391, Note_off_c, 0, 66, 57
1, 121400, Control_c, 0, 64, 24
1, 121415, Control_c, 0, 64, 26
1, 121430, Control_c, 0, 64, 34
1, 121436, Note_off_c, 0, 90, 62
1, 121444, Control_c, 0, 64, 44
1, 121459, Control_c, 0, 64, 51
1, 121474, Control_c, 0, 64, 56
1, 121489, Control_c, 0, 64, 60
1, 121495, Note_on_c, 0, 93, 69
1, 121504, Control_c, 0, 64, 64
1, 121508, Note_on_c, 0, 90, 48
1, 121518, Control_c, 0, 64, 67
1, 121528, Note_off_c, 0, 87, 57
1, 121533, Control_c, 0, 64, 74
1, 121548, Control_c, 0, 64, 84
1, 121562, Control_c, 0, 64, 97
1, 121577, Control_c, 0, 64, 117
1, 121592, Control_c, 0, 64, 127
1, 121684, Note_off_c, 0, 90, 32
1, 121703, Note_off_c, 0, 93, 56
1, 121703, Control_c, 0, 64, 121
1, 121718, Control_c, 0, 64, 111
1, 121733, Control_c, 0, 64, 105
1, 121748, Control_c, 0, 64, 100
1, 121762, Control_c, 0, 64, 96
1, 121777, Control_c, 0, 64, 92
1, 121790, Note_on_c, 0, 69, 53
1, 121792, Control_c, 0, 64, 89
1, 121807, Control_c, 0, 64, 87
1, 121822, Control_c, 0, 64, 84
1, 121838, Control_c, 0, 64, 82
1, 121853, Control_c, 0, 64, 80
1, 121867, Control_c, 0, 64, 79
1, 121882, Control_c, 0, 64, 77
1, 121897, Control_c, 0, 64, 75
1, 121912, Control_c, 0, 64, 73
1, 121927, Control_c, 0, 64, 72
1, 121941, Control_c, 0, 64, 70
1, 121956, Control_c, 0, 64, 69
1, 121964, Note_off_c, 0, 68, 52
1, 121971, Control_c, 0, 64, 68
1, 121985, Control_c, 0, 64, 67
1, 122000, Control_c, 0, 64, 66
1, 122015, Control_c, 0, 64, 64
1, 122030, Control_c, 0, 64, 63
1, 122045, Control_c, 0, 64, 63
1, 122074, Control_c, 0, 64, 62
1, 122089, Control_c, 0, 64, 61
1, 122103, Control_c, 0, 64, 60
1, 122118, Control_c, 0, 64, 59
1, 122133, Control_c, 0, 64, 58
1, 122148, Control_c, 0, 64, 57
1, 122163, Control_c, 0, 64, 56
1, 122177, Control_c, 0, 64, 54
1, 122192, Control_c, 0, 64, 52
1, 122207, Control_c, 0, 64, 51
1, 122222, Control_c, 0, 64, 49
1, 122237, Control_c, 0, 64, 48
1, 122252, Control_c, 0, 64, 46
1, 122266, Control_c, 0, 64, 43
1, 122281, Control_c, 0, 64, 37
1, 122296, Control_c, 0, 64, 32
1, 122310, Control_c, 0, 64, 26
1, 122325, Control_c, 0, 64, 20
1, 122340, Control_c, 0, 64, 0
1, 122570, Control_c, 0, 64, 17
1, 122585, Control_c, 0, 64, 30
1, 122599, Control_c, 0, 64, 39
1, 122614, Control_c, 0, 64, 45
1, 122629, Control_c, 0, 64, 50
1, 122645, Control_c, 0, 64, 54
1, 122660, Control_c, 0, 64, 56
1, 122675, Control_c, 0, 64, 58
1, 122689, Control_c, 0, 64, 60
1, 122704, Control_c, 0, 64, 62
1, 122719, Control_c, 0, 64, 63
1, 122734, Control_c, 0, 64, 64
1, 122749, Control_c, 0, 64, 65
1, 122763, Control_c, 0, 64, 67
1, 122778, Control_c, 0, 64, 69
1, 122793, Control_c, 0, 64, 72
1, 122808, Control_c, 0, 64, 76
1, 122823, Control_c, 0, 64, 81
1, 122838, Control_c, 0, 64, 85
1, 122853, Control_c, 0, 64, 91
1, 122868, Control_c, 0, 64, 99
1, 122882, Control_c, 0, 64, 121
1, 122897, Control_c, 0, 64, 127
1, 123060, Note_on_c, 0, 68, 39
1, 123115, Note_off_c, 0, 69, 36
1, 123235, Note_off_c, 0, 68, 53
1, 123258, Note_on_c, 0, 66, 45
1, 123303, Note_off_c, 0, 66, 60
1, 123334, Note_on_c, 0, 68, 51
1, 123436, Note_on_c, 0, 66, 56
1, 123453, Control_c, 0, 64, 111
1, 123468, Control_c, 0, 64, 104
1, 123483, Control_c, 0, 64, 99
1, 123498, Control_c, 0, 64, 96
1, 123500, Note_off_c, 0, 68, 36
1, 123512, Control_c, 0, 64, 94
1, 123527, Control_c, 0, 64, 91
1, 123542, Control_c, 0, 64, 88
1, 123556, Control_c, 0, 64, 85
1, 123571, Control_c, 0, 64, 82
1, 123586, Control_c, 0, 64, 80
1, 123601, Control_c, 0, 64, 78
1, 123616, Control_c, 0, 64, 76
1, 123631, Control_c, 0, 64, 73
1, 123646, Control_c, 0, 64, 71
1, 123661, Control_c, 0, 64, 69
1, 123676, Control_c, 0, 64, 68
1, 123691, Control_c, 0, 64, 67
1, 123705, Control_c, 0, 64, 66
1, 123720, Control_c, 0, 64, 64
1, 123735, Control_c, 0, 64, 62
1, 123750, Control_c, 0, 64, 58
1, 123764, Control_c, 0, 64, 54
1, 123779, Control_c, 0, 64, 52
1, 123824, Control_c, 0, 64, 53
1, 123838, Control_c, 0, 64, 54
1, 123853, Control_c, 0, 64, 56
1, 123868, Control_c, 0, 64, 58
1, 123890, Control_c, 0, 64, 60
1, 123905, Control_c, 0, 64, 62
1, 123920, Control_c, 0, 64, 64
1, 123935, Control_c, 0, 64, 66
1, 123950, Control_c, 0, 64, 69
1, 123964, Control_c, 0, 64, 73
1, 123979, Control_c, 0, 64, 77
1, 123994, Control_c, 0, 64, 81
1, 124009, Control_c, 0, 64, 83
1, 124024, Control_c, 0, 64, 85
1, 124053, Control_c, 0, 64, 84
1, 124057, Note_on_c, 0, 65, 44
1, 124068, Control_c, 0, 64, 84
1, 124097, Control_c, 0, 64, 83
1, 124112, Control_c, 0, 64, 81
1, 124127, Control_c, 0, 64, 79
1, 124142, Control_c, 0, 64, 78
1, 124156, Control_c, 0, 64, 77
1, 124171, Control_c, 0, 64, 75
1, 124186, Control_c, 0, 64, 73
1, 124201, Control_c, 0, 64, 72
1, 124209, Note_off_c, 0, 66, 54
1, 124216, Control_c, 0, 64, 71
1, 124233, Control_c, 0, 64, 70
1, 124248, Control_c, 0, 64, 68
1, 124262, Control_c, 0, 64, 66
1, 124277, Control_c, 0, 64, 64
1, 124292, Control_c, 0, 64, 63
1, 124307, Control_c, 0, 64, 62
1, 124322, Control_c, 0, 64, 61
1, 124336, Control_c, 0, 64, 58
1, 124351, Control_c, 0, 64, 54
1, 124366, Control_c, 0, 64, 52
1, 124395, Control_c, 0, 64, 53
1, 124410, Control_c, 0, 64, 54
1, 124425, Control_c, 0, 64, 56
1, 124435, Note_on_c, 0, 63, 44
1, 124440, Control_c, 0, 64, 58
1, 124454, Control_c, 0, 64, 60
1, 124469, Control_c, 0, 64, 62
1, 124484, Control_c, 0, 64, 63
1, 124499, Control_c, 0, 64, 65
1, 124514, Control_c, 0, 64, 67
1, 124517, Note_off_c, 0, 65, 57
1, 124528, Control_c, 0, 64, 70
1, 124543, Control_c, 0, 64, 75
1, 124558, Control_c, 0, 64, 81
1, 124573, Control_c, 0, 64, 88
1, 124588, Control_c, 0, 64, 96
1, 124603, Control_c, 0, 64, 110
1, 124618, Control_c, 0, 64, 127
1, 124692, Note_off_c, 0, 63, 59
1, 125039, Note_on_c, 0, 70, 59
1, 125056, Control_c, 0, 64, 118
1, 125056, Note_on_c, 0, 61, 41
1, 125071, Control_c, 0, 64, 107
1, 125085, Control_c, 0, 64, 100
1, 125100, Control_c, 0, 64, 95
1, 125115, Control_c, 0, 64, 87
1, 125130, Control_c, 0, 64, 79
1, 125145, Control_c, 0, 64, 70
1, 125159, Control_c, 0, 64, 63
1, 125174, Control_c, 0, 64, 56
1, 125189, Control_c, 0, 64, 54
1, 125203, Control_c, 0, 64, 55
1, 125218, Control_c, 0, 64, 58
1, 125233, Control_c, 0, 64, 61
1, 125247, Note_on_c, 0, 75, 40
1, 125248, Control_c, 0, 64, 64
1, 125263, Control_c, 0, 64, 67
1, 125277, Control_c, 0, 64, 75
1, 125292, Control_c, 0, 64, 94
1, 125307, Control_c, 0, 64, 127
1, 125321, Note_on_c, 0, 78, 51
1, 125331, Note_off_c, 0, 75, 54
1, 125410, Note_off_c, 0, 78, 62
1, 125412, Note_on_c, 0, 82, 52
1, 125465, Note_on_c, 0, 59, 38
1, 125468, Note_off_c, 0, 82, 57
1, 125473, Note_on_c, 0, 87, 44
1, 125485, Note_off_c, 0, 70, 51
1, 125495, Note_off_c, 0, 87, 58
1, 125543, Note_off_c, 0, 59, 61
1, 125558, Note_off_c, 0, 61, 40
1, 125562, Note_on_c, 0, 87, 66
1, 125595, Note_off_c, 0, 87, 60
1, 125612, Note_on_c, 0, 90, 64
1, 125650, Note_off_c, 0, 90, 62
1, 125667, Note_on_c, 0, 94, 63
1, 125700, Note_off_c, 0, 94, 65
1, 125720, Note_on_c, 0, 63, 44
1, 125725, Note_on_c, 0, 99, 65
1, 125756, Note_on_c, 0, 54, 36
1, 125787, Note_on_c, 0, 94, 62
1, 125794, Note_off_c, 0, 99, 61
1, 125852, Note_off_c, 0, 94, 62
1, 125853, Note_on_c, 0, 90, 56
1, 125887, Note_off_c, 0, 90, 65
1, 125894, Note_on_c, 0, 87, 59
1, 125914, Note_off_c, 0, 87, 65
1, 125974, Note_on_c, 0, 65, 65
1, 125993, Note_on_c, 0, 87, 59
1, 126005, Note_on_c, 0, 56, 51
1, 126060, Note_on_c, 0, 82, 58
1, 126061, Note_off_c, 0, 87, 52
1, 126087, Note_off_c, 0, 65, 61
1, 126105, Note_on_c, 0, 78, 65
1, 126109, Note_off_c, 0, 82, 58
1, 126160, Note_off_c, 0, 78, 58
1, 126162, Note_off_c, 0, 54, 33
1, 126166, Note_on_c, 0, 75, 66
1, 126191, Note_off_c, 0, 63, 38
1, 126203, Note_off_c, 0, 75, 60
1, 126235, Note_on_c, 0, 66, 75
1, 126261, Note_on_c, 0, 58, 55
1, 126279, Note_off_c, 0, 56, 55
1, 126301, Control_c, 0, 64, 102
1, 126315, Control_c, 0, 64, 90
1, 126317, Note_on_c, 0, 75, 60
1, 126330, Control_c, 0, 64, 80
1, 126345, Control_c, 0, 64, 73
1, 126359, Control_c, 0, 64, 69
1, 126364, Note_off_c, 0, 75, 57
1, 126372, Note_on_c, 0, 78, 67
1, 126389, Control_c, 0, 64, 70
1, 126404, Control_c, 0, 64, 73
1, 126419, Control_c, 0, 64, 78
1, 126427, Note_on_c, 0, 82, 71
1, 126433, Control_c, 0, 64, 87
1, 126446, Note_off_c, 0, 78, 64
1, 126448, Control_c, 0, 64, 104
1, 126455, Note_off_c, 0, 58, 60
1, 126463, Control_c, 0, 64, 127
1, 126487, Note_on_c, 0, 87, 58
1, 126489, Note_off_c, 0, 82, 64
1, 126507, Note_off_c, 0, 87, 64
1, 126518, Note_off_c, 0, 66, 58
1, 126561, Note_on_c, 0, 87, 75
1, 126606, Note_off_c, 0, 87, 59
1, 126609, Note_on_c, 0, 90, 80
1, 126665, Note_off_c, 0, 90, 65
1, 126668, Note_on_c, 0, 94, 79
1, 126709, Note_on_c, 0, 99, 85
1, 126711, Note_off_c, 0, 94, 61
1, 126719, Note_on_c, 0, 68, 77
1, 126740, Note_on_c, 0, 59, 57
1, 126778, Note_on_c, 0, 94, 82
1, 126818, Note_off_c, 0, 99, 64
1, 126828, Note_on_c, 0, 90, 82
1, 126852, Note_off_c, 0, 94, 64
1, 126880, Note_on_c, 0, 87, 83
1, 126881, Note_off_c, 0, 90, 66
1, 126909, Note_off_c, 0, 87, 62
1, 126910, Note_off_c, 0, 59, 54
1, 126977, Note_on_c, 0, 70, 87
1, 126997, Note_on_c, 0, 61, 63
1, 126997, Note_off_c, 0, 68, 58
1, 126998, Note_on_c, 0, 87, 64
1, 127068, Note_off_c, 0, 87, 62
1, 127071, Note_on_c, 0, 81, 60
1, 127110, Poly_aftertouch_c, 0, 85, 0
1, 127134, Note_off_c, 0, 81, 63
1, 127140, Note_on_c, 0, 78, 26
1, 127155, Note_on_c, 0, 77, 49
1, 127159, Note_off_c, 0, 61, 52
1, 127176, Note_off_c, 0, 70, 56
1, 127176, Note_off_c, 0, 77, 60
1, 127178, Note_on_c, 0, 75, 74
1, 127180, Note_off_c, 0, 78, 50
1, 127250, Note_off_c, 0, 75, 57
1, 127319, Note_on_c, 0, 70, 81
1, 127336, Note_on_c, 0, 61, 60
1, 127345, Control_c, 0, 64, 102
1, 127360, Control_c, 0, 64, 96
1, 127374, Control_c, 0, 64, 90
1, 127389, Control_c, 0, 64, 82
1, 127404, Control_c, 0, 64, 72
1, 127419, Control_c, 0, 64, 62
1, 127435, Control_c, 0, 64, 46
1, 127449, Control_c, 0, 64, 40
1, 127464, Control_c, 0, 64, 39
1, 127494, Control_c, 0, 64, 41
1, 127509, Control_c, 0, 64, 48
1, 127524, Control_c, 0, 64, 55
1, 127533, Note_on_c, 0, 75, 58
1, 127536, Note_on_c, 0, 78, 58
1, 127539, Control_c, 0, 64, 62
1, 127553, Control_c, 0, 64, 67
1, 127568, Control_c, 0, 64, 75
1, 127573, Note_off_c, 0, 75, 61
1, 127573, Note_off_c, 0, 78, 64
1, 127583, Control_c, 0, 64, 95
1, 127597, Control_c, 0, 64, 127
1, 127671, Note_on_c, 0, 80, 66
1, 127676, Note_on_c, 0, 77, 66
1, 127700, Note_off_c, 0, 80, 69
1, 127710, Note_off_c, 0, 77, 63
1, 127777, Note_on_c, 0, 82, 78
1, 127788, Note_on_c, 0, 78, 69
1, 127789, Note_off_c, 0, 61, 51
1, 127816, Note_off_c, 0, 78, 68
1, 127820, Note_off_c, 0, 70, 52
1, 127824, Note_off_c, 0, 82, 63
1, 127883, Note_on_c, 0, 80, 78
1, 127885, Note_on_c, 0, 83, 83
1, 127908, Note_off_c, 0, 80, 69
1, 127926, Note_off_c, 0, 83, 62
1, 127998, Note_on_c, 0, 85, 86
1, 128000, Note_on_c, 0, 82, 77
1, 128049, Note_off_c, 0, 82, 56
1, 128055, Note_off_c, 0, 85, 63
1, 128116, Note_on_c, 0, 87, 85
1, 128120, Note_on_c, 0, 68, 57
1, 128124, Note_on_c, 0, 59, 48
1, 128127, Note_on_c, 0, 83, 72
1, 128156, Note_off_c, 0, 83, 65
1, 128178, Note_off_c, 0, 87, 63
1, 128213, Note_off_c, 0, 68, 57
1, 128223, Note_off_c, 0, 59, 60
1, 128233, Note_on_c, 0, 66, 62
1, 128233, Note_on_c, 0, 89, 83
1, 128242, Note_on_c, 0, 85, 71
1, 128268, Note_off_c, 0, 85, 70
1, 128272, Note_off_c, 0, 66, 60
1, 128332, Control_c, 0, 64, 83
1, 128347, Note_on_c, 0, 59, 55
1, 128347, Control_c, 0, 64, 64
1, 128362, Control_c, 0, 64, 40
1, 128384, Control_c, 0, 64, 34
1, 128395, Note_off_c, 0, 89, 54
1, 128396, Note_on_c, 0, 87, 66
1, 128399, Control_c, 0, 64, 47
1, 128405, Note_on_c, 0, 83, 59
1, 128411, Note_on_c, 0, 68, 53
1, 128414, Control_c, 0, 64, 56
1, 128428, Control_c, 0, 64, 63
1, 128443, Control_c, 0, 64, 73
1, 128444, Note_off_c, 0, 59, 61
1, 128458, Control_c, 0, 64, 104
1, 128466, Note_off_c, 0, 68, 60
1, 128473, Control_c, 0, 64, 127
1, 128487, Note_on_c, 0, 70, 60
1, 128526, Note_off_c, 0, 70, 61
1, 128533, Note_on_c, 0, 89, 68
1, 128538, Note_off_c, 0, 87, 61
1, 128543, Note_on_c, 0, 85, 67
1, 128548, Note_on_c, 0, 68, 61
1, 128552, Note_off_c, 0, 83, 60
1, 128588, Note_off_c, 0, 68, 63
1, 128605, Note_on_c, 0, 70, 59
1, 128635, Note_off_c, 0, 70, 65
1, 128642, Note_off_c, 0, 89, 62
1, 128645, Note_on_c, 0, 87, 73
1, 128646, Note_on_c, 0, 90, 71
1, 128647, Note_off_c, 0, 85, 65
1, 128661, Note_on_c, 0, 68, 59
1, 128671, Note_off_c, 0, 87, 69
1, 128678, Note_off_c, 0, 90, 63
1, 128689, Note_off_c, 0, 68, 67
1, 128707, Note_on_c, 0, 70, 60
1, 128733, Note_off_c, 0, 70, 62
1, 128752, Note_on_c, 0, 68, 62
1, 128758, Note_on_c, 0, 90, 85
1, 128761, Note_on_c, 0, 87, 68
1, 128785, Note_off_c, 0, 68, 66
1, 128785, Note_off_c, 0, 90, 61
1, 128790, Note_off_c, 0, 87, 66
1, 128809, Note_on_c, 0, 70, 63
1, 128829, Note_off_c, 0, 70, 60
1, 128863, Note_on_c, 0, 68, 62
1, 128864, Note_on_c, 0, 92, 83
1, 128872, Note_on_c, 0, 89, 76
1, 128894, Note_off_c, 0, 68, 63
1, 128896, Note_off_c, 0, 92, 63
1, 128898, Note_off_c, 0, 89, 69
1, 128901, Note_on_c, 0, 70, 66
1, 128934, Note_off_c, 0, 70, 62
1, 128953, Note_on_c, 0, 94, 90
1, 128955, Note_on_c, 0, 90, 78
1, 128967, Note_on_c, 0, 68, 57
1, 128977, Note_off_c, 0, 90, 71
1, 128995, Note_off_c, 0, 68, 64
1, 128997, Note_off_c, 0, 94, 64
1, 129017, Note_on_c, 0, 70, 72
1, 129041, Note_off_c, 0, 70, 67
1, 129058, Note_on_c, 0, 68, 70
1, 129069, Note_on_c, 0, 95, 98
1, 129077, Note_on_c, 0, 92, 78
1, 129090, Note_off_c, 0, 68, 60
1, 129099, Note_off_c, 0, 95, 63
1, 129101, Note_off_c, 0, 92, 70
1, 129134, Note_on_c, 0, 70, 67
1, 129159, Note_off_c, 0, 70, 69
1, 129175, Note_on_c, 0, 97, 87
1, 129176, Note_on_c, 0, 68, 71
1, 129178, Note_on_c, 0, 94, 87
1, 129207, Note_off_c, 0, 68, 60
1, 129218, Note_off_c, 0, 97, 65
1, 129223, Note_off_c, 0, 94, 63
1, 129241, Note_on_c, 0, 70, 70
1, 129271, Note_off_c, 0, 70, 67
1, 129283, Note_on_c, 0, 99, 99
1, 129285, Note_on_c, 0, 95, 83
1, 129289, Note_on_c, 0, 68, 64
1, 129320, Note_off_c, 0, 68, 62
1, 129347, Note_on_c, 0, 70, 71
1, 129376, Note_off_c, 0, 70, 60
1, 129382, Note_off_c, 0, 95, 57
1, 129387, Note_on_c, 0, 92, 76
1, 129390, Note_off_c, 0, 99, 64
1, 129393, Note_on_c, 0, 89, 75
1, 129396, Note_on_c, 0, 68, 64
1, 129402, Note_off_c, 0, 92, 68
1, 129420, Note_off_c, 0, 89, 68
1, 129429, Note_off_c, 0, 68, 60
1, 129456, Note_on_c, 0, 70, 68
1, 129482, Note_off_c, 0, 70, 64
1, 129500, Note_on_c, 0, 68, 62
1, 129506, Note_on_c, 0, 87, 77
1, 129508, Note_on_c, 0, 83, 75
1, 129536, Note_off_c, 0, 68, 63
1, 129556, Note_on_c, 0, 70, 71
1, 129568, Note_off_c, 0, 87, 56
1, 129590, Note_off_c, 0, 70, 63
1, 129601, Note_on_c, 0, 80, 74
1, 129604, Note_off_c, 0, 83, 37
1, 129606, Note_on_c, 0, 77, 68
1, 129608, Note_on_c, 0, 68, 63
1, 129628, Note_off_c, 0, 80, 66
1, 129634, Note_off_c, 0, 77, 67
1, 129649, Note_off_c, 0, 68, 62
1, 129667, Note_on_c, 0, 70, 68
1, 129698, Note_off_c, 0, 70, 66
1, 129707, Note_on_c, 0, 77, 75
1, 129712, Note_on_c, 0, 68, 66
1, 129716, Note_on_c, 0, 80, 77
1, 129747, Note_off_c, 0, 77, 57
1, 129750, Note_off_c, 0, 68, 61
1, 129768, Note_on_c, 0, 70, 71
1, 129771, Note_off_c, 0, 80, 62
1, 129801, Note_off_c, 0, 70, 53
1, 129811, Note_on_c, 0, 87, 79
1, 129816, Note_on_c, 0, 83, 56
1, 129822, Note_on_c, 0, 68, 56
1, 129835, Note_off_c, 0, 87, 69
1, 129837, Note_off_c, 0, 83, 61
1, 129858, Note_off_c, 0, 68, 63
1, 129882, Note_on_c, 0, 70, 62
1, 129913, Note_off_c, 0, 70, 65
1, 129934, Note_on_c, 0, 92, 84
1, 129937, Note_on_c, 0, 68, 63
1, 129938, Note_on_c, 0, 89, 71
1, 129962, Note_off_c, 0, 92, 65
1, 129964, Note_off_c, 0, 68, 65
1, 129965, Note_off_c, 0, 89, 67
1, 129986, Note_on_c, 0, 70, 68
1, 130016, Note_off_c, 0, 70, 66
1, 130027, Note_on_c, 0, 99, 87
1, 130031, Note_on_c, 0, 95, 79
1, 130033, Note_on_c, 0, 68, 58
1, 130066, Note_off_c, 0, 95, 59
1, 130068, Note_off_c, 0, 68, 63
1, 130070, Note_off_c, 0, 99, 66
1, 130093, Note_on_c, 0, 70, 60
1, 130147, Note_off_c, 0, 70, 59
1, 130155, Note_on_c, 0, 68, 58
1, 130160, Note_on_c, 0, 99, 81
1, 130185, Note_on_c, 0, 95, 44
1, 130236, Note_off_c, 0, 68, 55
1, 130246, Note_off_c, 0, 95, 61
1, 130260, Note_off_c, 0, 99, 63
1, 130269, Note_on_c, 0, 92, 67
1, 130272, Note_on_c, 0, 89, 69
1, 130296, Note_off_c, 0, 92, 66
1, 130301, Note_off_c, 0, 89, 67
1, 130391, Note_on_c, 0, 87, 76
1, 130404, Note_on_c, 0, 83, 59
1, 130440, Note_off_c, 0, 83, 63
1, 130500, Note_off_c, 0, 87, 59
1, 130514, Note_on_c, 0, 80, 65
1, 130527, Note_on_c, 0, 77, 61
1, 130550, Note_off_c, 0, 80, 60
1, 130601, Note_off_c, 0, 77, 61
1, 130669, Note_on_c, 0, 83, 71
1, 130671, Note_on_c, 0, 80, 57
1, 130700, Note_off_c, 0, 80, 65
1, 130811, Note_on_c, 0, 82, 81
1, 130821, Note_on_c, 0, 78, 65
1, 130845, Note_off_c, 0, 83, 60
1, 130857, Note_off_c, 0, 78, 63
1, 130955, Note_on_c, 0, 80, 70
1, 130966, Note_on_c, 0, 77, 56
1, 131005, Note_off_c, 0, 77, 64
1, 131020, Note_off_c, 0, 82, 50
1, 131137, Note_on_c, 0, 78, 50
1, 131139, Note_off_c, 0, 80, 57
1, 131149, Note_on_c, 0, 75, 44
1, 131242, Note_off_c, 0, 75, 51
1, 131271, Note_off_c, 0, 78, 53
1, 131355, Note_on_c, 0, 68, 58
1, 131392, Control_c, 0, 64, 116
1, 131398, Note_on_c, 0, 59, 38
1, 131407, Control_c, 0, 64, 107
1, 131423, Control_c, 0, 64, 99
1, 131438, Control_c, 0, 64, 92
1, 131452, Control_c, 0, 64, 85
1, 131467, Control_c, 0, 64, 80
1, 131482, Control_c, 0, 64, 75
1, 131497, Control_c, 0, 64, 70
1, 131512, Control_c, 0, 64, 65
1, 131526, Control_c, 0, 64, 61
1, 131541, Control_c, 0, 64, 59
1, 131542, Note_on_c, 0, 73, 34
1, 131556, Control_c, 0, 64, 60
1, 131571, Control_c, 0, 64, 60
1, 131586, Control_c, 0, 64, 62
1, 131596, Note_on_c, 0, 77, 48
1, 131600, Control_c, 0, 64, 64
1, 131606, Note_off_c, 0, 73, 57
1, 131615, Control_c, 0, 64, 66
1, 131630, Control_c, 0, 64, 71
1, 131644, Control_c, 0, 64, 79
1, 131659, Control_c, 0, 64, 97
1, 131665, Note_off_c, 0, 77, 55
1, 131670, Note_on_c, 0, 80, 57
1, 131674, Control_c, 0, 64, 127
1, 131727, Note_on_c, 0, 85, 52
1, 131742, Note_off_c, 0, 80, 61
1, 131747, Note_on_c, 0, 58, 40
1, 131759, Note_off_c, 0, 85, 63
1, 131795, Note_off_c, 0, 59, 51
1, 131819, Note_on_c, 0, 85, 61
1, 131820, Note_off_c, 0, 58, 59
1, 131828, Note_off_c, 0, 68, 55
1, 131857, Note_off_c, 0, 85, 64
1, 131891, Note_on_c, 0, 89, 55
1, 131917, Note_off_c, 0, 89, 62
1, 131927, Note_on_c, 0, 92, 69
1, 131961, Note_off_c, 0, 92, 64
1, 131988, Note_on_c, 0, 97, 63
1, 132003, Note_on_c, 0, 61, 52
1, 132033, Note_on_c, 0, 53, 42
1, 132058, Note_on_c, 0, 92, 62
1, 132064, Note_off_c, 0, 97, 58
1, 132120, Note_on_c, 0, 89, 62
1, 132123, Note_off_c, 0, 92, 58
1, 132158, Note_off_c, 0, 89, 65
1, 132171, Note_on_c, 0, 85, 62
1, 132197, Note_off_c, 0, 85, 66
1, 132263, Note_on_c, 0, 63, 72
1, 132282, Note_on_c, 0, 85, 57
1, 132295, Note_on_c, 0, 54, 54
1, 132340, Note_on_c, 0, 80, 59
1, 132351, Note_off_c, 0, 61, 53
1, 132394, Note_on_c, 0, 77, 68
1, 132394, Note_off_c, 0, 85, 37
1, 132396, Note_off_c, 0, 53, 38
1, 132410, Note_off_c, 0, 80, 58
1, 132419, Note_off_c, 0, 63, 62
1, 132435, Note_on_c, 0, 73, 64
1, 132484, Note_off_c, 0, 77, 49
1, 132493, Note_off_c, 0, 73, 64
1, 132521, Note_on_c, 0, 65, 80
1, 132543, Note_on_c, 0, 56, 59
1, 132586, Control_c, 0, 64, 119
1, 132588, Note_on_c, 0, 73, 61
1, 132591, Note_off_c, 0, 54, 34
1, 132600, Control_c, 0, 64, 93
1, 132615, Control_c, 0, 64, 79
1, 132630, Control_c, 0, 64, 69
1, 132636, Note_on_c, 0, 77, 66
1, 132645, Control_c, 0, 64, 62
1, 132652, Note_off_c, 0, 73, 63
1, 132660, Control_c, 0, 64, 63
1, 132675, Control_c, 0, 64, 64
1, 132690, Control_c, 0, 64, 66
1, 132699, Note_on_c, 0, 80, 73
1, 132705, Control_c, 0, 64, 70
1, 132715, Note_off_c, 0, 77, 60
1, 132720, Control_c, 0, 64, 79
1, 132735, Control_c, 0, 64, 115
1, 132749, Control_c, 0, 64, 127
1, 132761, Note_on_c, 0, 85, 62
1, 132773, Note_off_c, 0, 80, 64
1, 132788, Note_off_c, 0, 56, 62
1, 132790, Note_off_c, 0, 85, 67
1, 132837, Note_on_c, 0, 85, 74
1, 132891, Note_off_c, 0, 85, 59
1, 132897, Note_on_c, 0, 89, 82
1, 132951, Note_on_c, 0, 92, 82
1, 132957, Note_off_c, 0, 89, 64
1, 132997, Note_on_c, 0, 66, 78
1, 132998, Note_off_c, 0, 92, 66
1, 132999, Note_on_c, 0, 97, 81
1, 133012, Note_on_c, 0, 58, 67
1, 133022, Note_off_c, 0, 65, 55
1, 133061, Note_on_c, 0, 92, 79
1, 133107, Note_off_c, 0, 97, 59
1, 133119, Note_on_c, 0, 89, 79
1, 133145, Note_off_c, 0, 92, 64
1, 133168, Note_on_c, 0, 85, 80
1, 133170, Note_off_c, 0, 89, 65
1, 133203, Note_off_c, 0, 85, 62
1, 133255, Note_on_c, 0, 68, 86
1, 133277, Note_on_c, 0, 59, 61
1, 133280, Note_off_c, 0, 66, 59
1, 133280, Note_on_c, 0, 85, 59
1, 133291, Note_off_c, 0, 58, 48
1, 133338, Note_on_c, 0, 80, 69
1, 133358, Note_off_c, 0, 85, 58
1, 133395, Note_off_c, 0, 59, 58
1, 133405, Note_on_c, 0, 77, 70
1, 133429, Note_off_c, 0, 80, 61
1, 133471, Note_on_c, 0, 73, 76
1, 133472, Note_off_c, 0, 68, 59
1, 133482, Note_off_c, 0, 77, 58
1, 133587, Note_off_c, 0, 73, 58
1, 133641, Note_on_c, 0, 68, 77
1, 133662, Note_on_c, 0, 59, 57
1, 133727, Control_c, 0, 64, 102
1, 133742, Control_c, 0, 64, 87
1, 133757, Control_c, 0, 64, 75
1, 133772, Control_c, 0, 64, 64
1, 133787, Control_c, 0, 64, 56
1, 133802, Control_c, 0, 64, 52
1, 133817, Control_c, 0, 64, 51
1, 133832, Control_c, 0, 64, 52
1, 133846, Control_c, 0, 64, 55
1, 133861, Note_on_c, 0, 73, 50
1, 133861, Note_on_c, 0, 77, 56
1, 133861, Control_c, 0, 64, 60
1, 133876, Control_c, 0, 64, 63
1, 133891, Control_c, 0, 64, 67
1, 133903, Note_off_c, 0, 73, 65
1, 133903, Note_off_c, 0, 77, 62
1, 133906, Control_c, 0, 64, 75
1, 133921, Control_c, 0, 64, 93
1, 133936, Control_c, 0, 64, 127
1, 133988, Note_on_c, 0, 78, 73
1, 134009, Note_on_c, 0, 75, 52
1, 134026, Note_off_c, 0, 78, 60
1, 134036, Note_off_c, 0, 75, 62
1, 134103, Note_on_c, 0, 80, 75
1, 134117, Note_on_c, 0, 77, 62
1, 134142, Note_off_c, 0, 77, 64
1, 134145, Note_off_c, 0, 80, 59
1, 134210, Note_on_c, 0, 82, 79
1, 134218, Note_on_c, 0, 78, 66
1, 134240, Note_off_c, 0, 68, 58
1, 134240, Note_off_c, 0, 78, 64
1, 134255, Note_off_c, 0, 59, 35
1, 134256, Note_off_c, 0, 82, 63
1, 134323, Note_on_c, 0, 83, 81
1, 134328, Note_on_c, 0, 80, 70
1, 134371, Note_off_c, 0, 80, 59
1, 134374, Note_off_c, 0, 83, 61
1, 134453, Note_on_c, 0, 66, 58
1, 134454, Note_on_c, 0, 85, 75
1, 134456, Note_on_c, 0, 82, 74
1, 134463, Note_on_c, 0, 58, 48
1, 134486, Note_off_c, 0, 82, 63
1, 134505, Note_off_c, 0, 85, 63
1, 134551, Note_off_c, 0, 66, 59
1, 134558, Note_off_c, 0, 58, 58
1, 134568, Note_on_c, 0, 65, 57
1, 134575, Note_on_c, 0, 83, 70
1, 134575, Note_on_c, 0, 87, 74
1, 134601, Note_off_c, 0, 65, 65
1, 134603, Note_off_c, 0, 83, 66
1, 134690, Note_on_c, 0, 58, 48
1, 134699, Control_c, 0, 64, 121
1, 134714, Control_c, 0, 64, 86
1, 134727, Note_on_c, 0, 66, 48
1, 134729, Control_c, 0, 64, 69
1, 134741, Note_on_c, 0, 85, 62
1, 134744, Control_c, 0, 64, 58
1, 134747, Note_off_c, 0, 87, 58
1, 134753, Note_on_c, 0, 82, 48
1, 134759, Control_c, 0, 64, 51
1, 134774, Control_c, 0, 64, 55
1, 134777, Note_off_c, 0, 66, 61
1, 134788, Control_c, 0, 64, 58
1, 134795, Note_on_c, 0, 68, 56
1, 134803, Control_c, 0, 64, 63
1, 134818, Control_c, 0, 64, 68
1, 134833, Control_c, 0, 64, 80
1, 134844, Note_off_c, 0, 68, 59
1, 134848, Control_c, 0, 64, 127
1, 134867, Note_off_c, 0, 58, 52
1, 134876, Note_on_c, 0, 66, 55
1, 134883, Note_on_c, 0, 87, 66
1, 134892, Note_off_c, 0, 85, 56
1, 134912, Note_on_c, 0, 83, 54
1, 134917, Note_off_c, 0, 66, 61
1, 134925, Note_off_c, 0, 82, 56
1, 134930, Note_on_c, 0, 68, 54
1, 134957, Note_off_c, 0, 68, 62
1, 134979, Note_on_c, 0, 66, 58
1, 134986, Note_off_c, 0, 83, 63
1, 134997, Note_off_c, 0, 87, 64
1, 134999, Note_on_c, 0, 89, 67
1, 135011, Note_off_c, 0, 66, 66
1, 135024, Note_on_c, 0, 68, 70
1, 135029, Note_off_c, 0, 89, 66
1, 135057, Note_off_c, 0, 68, 61
1, 135084, Note_on_c, 0, 66, 60
1, 135104, Note_on_c, 0, 89, 71
1, 135119, Note_on_c, 0, 85, 55
1, 135127, Note_off_c, 0, 66, 63
1, 135138, Note_off_c, 0, 89, 67
1, 135140, Note_off_c, 0, 85, 64
1, 135149, Note_on_c, 0, 68, 48
1, 135176, Note_off_c, 0, 68, 55
1, 135205, Note_on_c, 0, 66, 47
1, 135214, Note_on_c, 0, 90, 76
1, 135220, Note_on_c, 0, 87, 71
1, 135228, Note_off_c, 0, 66, 60
1, 135242, Note_off_c, 0, 90, 65
1, 135244, Note_off_c, 0, 87, 70
1, 135249, Note_on_c, 0, 68, 59
1, 135266, Note_off_c, 0, 68, 64
1, 135315, Note_on_c, 0, 92, 82
1, 135318, Note_on_c, 0, 66, 42
1, 135330, Note_on_c, 0, 89, 56
1, 135337, Note_on_c, 0, 68, 65
1, 135342, Note_off_c, 0, 66, 56
1, 135349, Note_off_c, 0, 89, 61
1, 135354, Note_off_c, 0, 92, 63
1, 135375, Note_off_c, 0, 68, 59
1, 135403, Note_on_c, 0, 66, 56
1, 135424, Note_on_c, 0, 94, 91
1, 135432, Note_on_c, 0, 90, 69
1, 135440, Note_off_c, 0, 66, 61
1, 135451, Note_off_c, 0, 94, 63
1, 135456, Note_on_c, 0, 68, 56
1, 135459, Note_off_c, 0, 90, 69
1, 135483, Note_off_c, 0, 68, 59
1, 135505, Note_on_c, 0, 66, 65
1, 135518, Note_on_c, 0, 95, 87
1, 135525, Note_on_c, 0, 92, 79
1, 135539, Note_off_c, 0, 66, 64
1, 135549, Note_off_c, 0, 92, 68
1, 135556, Note_on_c, 0, 68, 69
1, 135562, Note_off_c, 0, 95, 64
1, 135593, Note_off_c, 0, 68, 62
1, 135615, Note_on_c, 0, 66, 67
1, 135631, Note_on_c, 0, 97, 91
1, 135638, Note_on_c, 0, 94, 80
1, 135656, Note_off_c, 0, 66, 61
1, 135686, Note_on_c, 0, 68, 52
1, 135713, Note_off_c, 0, 68, 55
1, 135730, Note_on_c, 0, 66, 61
1, 135733, Note_off_c, 0, 97, 63
1, 135734, Note_on_c, 0, 90, 75
1, 135738, Note_on_c, 0, 87, 78
1, 135739, Note_off_c, 0, 94, 63
1, 135756, Note_off_c, 0, 90, 70
1, 135758, Note_off_c, 0, 66, 67
1, 135761, Note_off_c, 0, 87, 68
1, 135782, Note_on_c, 0, 68, 66
1, 135809, Note_off_c, 0, 68, 62
1, 135833, Note_on_c, 0, 66, 65
1, 135852, Note_on_c, 0, 82, 77
1, 135853, Note_on_c, 0, 85, 79
1, 135882, Note_off_c, 0, 66, 61
1, 135906, Note_on_c, 0, 68, 63
1, 135909, Note_off_c, 0, 82, 56
1, 135918, Note_off_c, 0, 85, 60
1, 135934, Note_off_c, 0, 68, 63
1, 135957, Note_on_c, 0, 66, 58
1, 135960, Note_on_c, 0, 78, 81
1, 135968, Note_on_c, 0, 75, 69
1, 135986, Note_off_c, 0, 78, 66
1, 135989, Note_off_c, 0, 66, 64
1, 135995, Note_off_c, 0, 75, 64
1, 136006, Note_on_c, 0, 68, 69
1, 136046, Note_off_c, 0, 68, 59
1, 136064, Note_on_c, 0, 75, 72
1, 136067, Note_on_c, 0, 66, 63
1, 136073, Note_on_c, 0, 78, 77
1, 136093, Note_off_c, 0, 66, 66
1, 136103, Note_off_c, 0, 78, 65
1, 136111, Note_off_c, 0, 75, 54
1, 136122, Note_on_c, 0, 68, 57
1, 136155, Note_off_c, 0, 68, 62
1, 136170, Note_on_c, 0, 82, 74
1, 136170, Note_on_c, 0, 85, 79
1, 136178, Note_on_c, 0, 66, 55
1, 136190, Note_off_c, 0, 85, 72
1, 136193, Note_off_c, 0, 82, 69
1, 136211, Note_off_c, 0, 66, 64
1, 136231, Note_on_c, 0, 68, 66
1, 136270, Note_off_c, 0, 68, 60
1, 136287, Note_on_c, 0, 66, 64
1, 136289, Note_on_c, 0, 90, 80
1, 136297, Note_on_c, 0, 87, 61
1, 136312, Note_off_c, 0, 90, 68
1, 136324, Note_off_c, 0, 66, 62
1, 136327, Note_off_c, 0, 87, 66
1, 136352, Note_on_c, 0, 68, 57
1, 136374, Note_off_c, 0, 68, 60
1, 136392, Note_on_c, 0, 94, 73
1, 136392, Note_on_c, 0, 97, 73
1, 136405, Note_on_c, 0, 66, 56
1, 136421, Note_off_c, 0, 94, 67
1, 136424, Note_off_c, 0, 97, 64
1, 136432, Note_off_c, 0, 66, 61
1, 136447, Note_on_c, 0, 68, 63
1, 136512, Note_off_c, 0, 68, 56
1, 136516, Note_on_c, 0, 97, 66
1, 136529, Note_on_c, 0, 66, 53
1, 136538, Note_on_c, 0, 94, 58
1, 136568, Control_c, 0, 64, 88
1, 136583, Control_c, 0, 64, 73
1, 136598, Control_c, 0, 64, 64
1, 136620, Control_c, 0, 64, 59
1, 136635, Control_c, 0, 64, 60
1, 136637, Note_off_c, 0, 97, 62
1, 136639, Note_on_c, 0, 90, 68
1, 136643, Note_off_c, 0, 94, 63
1, 136648, Note_on_c, 0, 87, 67
1, 136649, Control_c, 0, 64, 63
1, 136663, Note_off_c, 0, 66, 31
1, 136664, Control_c, 0, 64, 66
1, 136669, Note_off_c, 0, 90, 66
1, 136679, Control_c, 0, 64, 72
1, 136682, Note_off_c, 0, 87, 63
1, 136694, Control_c, 0, 64, 83
1, 136709, Control_c, 0, 64, 127
1, 136780, Note_on_c, 0, 82, 71
1, 136781, Note_on_c, 0, 85, 70
1, 136827, Note_off_c, 0, 82, 54
1, 136908, Note_off_c, 0, 85, 61
1, 136911, Note_on_c, 0, 78, 63
1, 136917, Note_on_c, 0, 75, 56
1, 136959, Note_off_c, 0, 78, 57
1, 137057, Note_on_c, 0, 82, 62
1, 137076, Note_off_c, 0, 75, 48
1, 137083, Note_on_c, 0, 78, 46
1, 137108, Note_off_c, 0, 78, 61
1, 137206, Note_on_c, 0, 77, 57
1, 137213, Note_on_c, 0, 80, 60
1, 137280, Note_off_c, 0, 82, 37
1, 137298, Note_off_c, 0, 77, 57
1, 137387, Note_on_c, 0, 78, 47
1, 137397, Note_on_c, 0, 75, 42
1, 137449, Note_off_c, 0, 75, 59
1, 137556, Note_off_c, 0, 80, 21
1, 137574, Note_on_c, 0, 77, 43
1, 137582, Note_on_c, 0, 73, 44
1, 137599, Note_off_c, 0, 78, 36
1, 137745, Note_off_c, 0, 77, 37
1, 137785, Note_off_c, 0, 73, 38
1, 137814, Control_c, 0, 64, 115
1, 137829, Control_c, 0, 64, 109
1, 137843, Note_on_c, 0, 66, 44
1, 137843, Control_c, 0, 64, 104
1, 137858, Control_c, 0, 64, 99
1, 137863, Note_on_c, 0, 58, 33
1, 137873, Control_c, 0, 64, 95
1, 137887, Control_c, 0, 64, 92
1, 137902, Control_c, 0, 64, 91
1, 137917, Control_c, 0, 64, 87
1, 137932, Control_c, 0, 64, 83
1, 137947, Control_c, 0, 64, 78
1, 137961, Control_c, 0, 64, 74
1, 137976, Control_c, 0, 64, 71
1, 137991, Control_c, 0, 64, 68
1, 138006, Control_c, 0, 64, 64
1, 138020, Control_c, 0, 64, 60
1, 138035, Control_c, 0, 64, 56
1, 138036, Note_on_c, 0, 71, 41
1, 138050, Control_c, 0, 64, 56
1, 138065, Control_c, 0, 64, 58
1, 138079, Control_c, 0, 64, 60
1, 138094, Control_c, 0, 64, 62
1, 138113, Note_on_c, 0, 75, 38
1, 138117, Control_c, 0, 64, 64
1, 138132, Control_c, 0, 64, 69
1, 138145, Note_off_c, 0, 71, 57
1, 138147, Control_c, 0, 64, 78
1, 138161, Control_c, 0, 64, 93
1, 138175, Note_on_c, 0, 78, 51
1, 138176, Control_c, 0, 64, 127
1, 138214, Note_off_c, 0, 75, 56
1, 138250, Note_on_c, 0, 83, 51
1, 138261, Note_off_c, 0, 78, 63
1, 138272, Note_on_c, 0, 56, 32
1, 138291, Note_off_c, 0, 83, 64
1, 138332, Note_off_c, 0, 66, 49
1, 138354, Note_off_c, 0, 58, 57
1, 138356, Note_on_c, 0, 83, 58
1, 138365, Note_off_c, 0, 56, 56
1, 138406, Note_off_c, 0, 83, 55
1, 138422, Note_on_c, 0, 87, 53
1, 138464, Note_off_c, 0, 87, 60
1, 138467, Note_on_c, 0, 90, 57
1, 138506, Note_off_c, 0, 90, 65
1, 138517, Note_on_c, 0, 59, 46
1, 138539, Note_on_c, 0, 95, 51
1, 138543, Note_on_c, 0, 51, 41
1, 138596, Note_off_c, 0, 95, 56
1, 138607, Note_on_c, 0, 90, 52
1, 138652, Note_off_c, 0, 90, 61
1, 138656, Note_on_c, 0, 87, 55
1, 138692, Note_off_c, 0, 87, 66
1, 138708, Note_on_c, 0, 83, 53
1, 138736, Note_off_c, 0, 83, 64
1, 138783, Note_on_c, 0, 61, 60
1, 138817, Note_on_c, 0, 83, 61
1, 138833, Note_on_c, 0, 53, 35
1, 138881, Note_off_c, 0, 83, 50
1, 138887, Note_on_c, 0, 78, 52
1, 138938, Note_on_c, 0, 75, 55
1, 138941, Note_off_c, 0, 78, 57
1, 138942, Note_off_c, 0, 61, 61
1, 138981, Note_off_c, 0, 75, 58
1, 138985, Note_on_c, 0, 71, 60
1, 139024, Note_off_c, 0, 71, 61
1, 139044, Note_on_c, 0, 63, 69
1, 139079, Note_on_c, 0, 54, 55
1, 139117, Control_c, 0, 64, 104
1, 139132, Control_c, 0, 64, 90
1, 139136, Note_on_c, 0, 71, 57
1, 139136, Note_off_c, 0, 51, 31
1, 139147, Control_c, 0, 64, 78
1, 139158, Note_off_c, 0, 53, 38
1, 139162, Control_c, 0, 64, 70
1, 139177, Control_c, 0, 64, 66
1, 139182, Note_on_c, 0, 75, 56
1, 139191, Control_c, 0, 64, 67
1, 139192, Note_off_c, 0, 71, 56
1, 139207, Control_c, 0, 64, 68
1, 139222, Control_c, 0, 64, 70
1, 139223, Note_off_c, 0, 59, 31
1, 139236, Control_c, 0, 64, 74
1, 139238, Note_on_c, 0, 78, 64
1, 139251, Control_c, 0, 64, 82
1, 139263, Note_off_c, 0, 75, 62
1, 139266, Control_c, 0, 64, 104
1, 139272, Note_off_c, 0, 54, 59
1, 139281, Control_c, 0, 64, 127
1, 139293, Note_on_c, 0, 83, 57
1, 139306, Note_off_c, 0, 78, 63
1, 139329, Note_off_c, 0, 83, 65
1, 139373, Note_off_c, 0, 63, 60
1, 139379, Note_on_c, 0, 83, 67
1, 139444, Note_on_c, 0, 87, 64
1, 139447, Note_off_c, 0, 83, 60
1, 139492, Note_on_c, 0, 90, 61
1, 139496, Note_off_c, 0, 87, 57
1, 139528, Note_off_c, 0, 90, 64
1, 139548, Note_on_c, 0, 95, 62
1, 139552, Note_on_c, 0, 65, 62
1, 139566, Note_on_c, 0, 56, 52
1, 139628, Note_on_c, 0, 90, 61
1, 139632, Note_off_c, 0, 95, 57
1, 139679, Note_on_c, 0, 87, 69
1, 139696, Note_off_c, 0, 90, 62
1, 139699, Note_off_c, 0, 65, 62
1, 139728, Note_off_c, 0, 87, 59
1, 139735, Note_on_c, 0, 83, 62
1, 139767, Note_off_c, 0, 83, 65
1, 139831, Note_on_c, 0, 66, 75
1, 139847, Note_on_c, 0, 58, 62
1, 139852, Note_on_c, 0, 83, 62
1, 139895, Note_off_c, 0, 83, 53
1, 139901, Note_on_c, 0, 78, 65
1, 139947, Note_off_c, 0, 56, 33
1, 139959, Note_on_c, 0, 75, 68
1, 139979, Note_off_c, 0, 78, 62
1, 139986, Note_off_c, 0, 66, 60
1, 140007, Note_on_c, 0, 71, 69
1, 140031, Note_off_c, 0, 75, 56
1, 140054, Note_off_c, 0, 71, 61
1, 140075, Note_on_c, 0, 68, 80
1, 140086, Note_on_c, 0, 59, 63
1, 140112, Note_off_c, 0, 58, 55
1, 140142, Note_on_c, 0, 71, 64
1, 140181, Note_on_c, 0, 75, 66
1, 140206, Note_off_c, 0, 71, 60
1, 140216, Note_off_c, 0, 68, 61
1, 140236, Note_on_c, 0, 78, 73
1, 140264, Note_off_c, 0, 75, 62
1, 140296, Note_on_c, 0, 83, 64
1, 140304, Note_on_c, 0, 66, 81
1, 140308, Note_off_c, 0, 78, 64
1, 140315, Note_on_c, 0, 58, 71
1, 140329, Note_off_c, 0, 83, 65
1, 140389, Note_on_c, 0, 83, 72
1, 140437, Note_on_c, 0, 87, 75
1, 140447, Note_off_c, 0, 83, 61
1, 140485, Note_on_c, 0, 90, 73
1, 140497, Note_off_c, 0, 87, 62
1, 140516, Note_off_c, 0, 66, 56
1, 140524, Note_off_c, 0, 59, 17
1, 140533, Note_on_c, 0, 63, 74
1, 140536, Note_off_c, 0, 90, 63
1, 140537, Note_on_c, 0, 95, 79
1, 140549, Note_on_c, 0, 54, 66
1, 140560, Note_off_c, 0, 58, 60
1, 140590, Note_on_c, 0, 90, 69
1, 140612, Note_off_c, 0, 95, 59
1, 140641, Note_on_c, 0, 87, 78
1, 140666, Note_off_c, 0, 90, 64
1, 140690, Note_off_c, 0, 87, 64
1, 140691, Note_on_c, 0, 83, 70
1, 140715, Note_off_c, 0, 83, 67
1, 140756, Note_on_c, 0, 65, 76
1, 140764, Note_on_c, 0, 83, 84
1, 140774, Note_on_c, 0, 56, 65
1, 140801, Note_off_c, 0, 63, 59
1, 140815, Note_on_c, 0, 78, 74
1, 140850, Note_off_c, 0, 83, 56
1, 140852, Note_off_c, 0, 54, 27
1, 140859, Note_off_c, 0, 65, 61
1, 140871, Note_on_c, 0, 75, 70
1, 140898, Note_off_c, 0, 78, 60
1, 140920, Note_on_c, 0, 71, 74
1, 140944, Note_off_c, 0, 75, 56
1, 140974, Note_off_c, 0, 71, 62
1, 140985, Note_on_c, 0, 66, 77
1, 140998, Note_on_c, 0, 58, 65
1, 141030, Control_c, 0, 64, 101
1, 141038, Note_off_c, 0, 56, 59
1, 141045, Control_c, 0, 64, 80
1, 141060, Control_c, 0, 64, 66
1, 141065, Note_on_c, 0, 71, 59
1, 141075, Control_c, 0, 64, 54
1, 141090, Control_c, 0, 64, 44
1, 141111, Control_c, 0, 64, 46
1, 141114, Note_on_c, 0, 75, 61
1, 141126, Control_c, 0, 64, 50
1, 141132, Note_off_c, 0, 71, 60
1, 141141, Control_c, 0, 64, 59
1, 141156, Control_c, 0, 64, 64
1, 141165, Note_on_c, 0, 78, 71
1, 141171, Control_c, 0, 64, 70
1, 141185, Control_c, 0, 64, 86
1, 141197, Note_off_c, 0, 75, 63
1, 141200, Control_c, 0, 64, 127
1, 141212, Note_off_c, 0, 58, 61
1, 141213, Note_on_c, 0, 83, 66
1, 141221, Note_off_c, 0, 78, 64
1, 141245, Note_off_c, 0, 83, 64
1, 141275, Note_off_c, 0, 66, 59
1, 141299, Note_on_c, 0, 83, 69
1, 141352, Note_on_c, 0, 87, 74
1, 141358, Note_off_c, 0, 83, 59
1, 141414, Note_on_c, 0, 90, 60
1, 141421, Note_off_c, 0, 87, 60
1, 141457, Note_off_c, 0, 90, 61
1, 141469, Note_on_c, 0, 68, 64
1, 141472, Note_on_c, 0, 95, 60
1, 141480, Note_on_c, 0, 59, 51
1, 141511, Control_c, 0, 64, 99
1, 141526, Control_c, 0, 64, 80
1, 141535, Note_on_c, 0, 90, 52
1, 141541, Control_c, 0, 64, 67
1, 141550, Note_off_c, 0, 95, 56
1, 141556, Control_c, 0, 64, 57
1, 141571, Control_c, 0, 64, 48
1, 141585, Control_c, 0, 64, 50
1, 141600, Note_on_c, 0, 87, 61
1, 141600, Control_c, 0, 64, 56
1, 141613, Note_off_c, 0, 90, 62
1, 141615, Control_c, 0, 64, 62
1, 141630, Control_c, 0, 64, 67
1, 141642, Note_off_c, 0, 87, 62
1, 141644, Control_c, 0, 64, 78
1, 141659, Control_c, 0, 64, 110
1, 141665, Note_on_c, 0, 83, 58
1, 141674, Control_c, 0, 64, 127
1, 141718, Note_off_c, 0, 83, 60
1, 141765, Note_off_c, 0, 59, 32
1, 141779, Note_on_c, 0, 82, 51
1, 141779, Note_on_c, 0, 70, 66
1, 141788, Note_on_c, 0, 61, 50
1, 141847, Note_off_c, 0, 82, 63
1, 141862, Note_on_c, 0, 78, 51
1, 141900, Note_off_c, 0, 78, 65
1, 141928, Note_off_c, 0, 70, 60
1, 141931, Note_on_c, 0, 75, 63
1, 141969, Note_off_c, 0, 75, 57
1, 141985, Note_off_c, 0, 61, 51
1, 141989, Note_on_c, 0, 78, 64
1, 142022, Note_off_c, 0, 78, 67
1, 142029, Note_off_c, 0, 68, 41
1, 142036, Note_on_c, 0, 82, 63
1, 142061, Note_on_c, 0, 65, 57
1, 142061, Note_on_c, 0, 73, 72
1, 142064, Note_off_c, 0, 82, 66
1, 142120, Note_on_c, 0, 82, 65
1, 142163, Note_off_c, 0, 73, 63
1, 142169, Note_off_c, 0, 82, 63
1, 142172, Note_on_c, 0, 87, 70
1, 142212, Note_on_c, 0, 90, 70
1, 142224, Note_off_c, 0, 87, 63
1, 142250, Note_off_c, 0, 90, 61
1, 142263, Note_on_c, 0, 94, 81
1, 142267, Note_on_c, 0, 71, 73
1, 142282, Note_on_c, 0, 63, 61
1, 142282, Note_off_c, 0, 65, 54
1, 142327, Note_on_c, 0, 90, 70
1, 142376, Note_on_c, 0, 87, 71
1, 142378, Note_off_c, 0, 94, 63
1, 142399, Note_off_c, 0, 90, 62
1, 142430, Note_on_c, 0, 82, 65
1, 142433, Note_off_c, 0, 87, 62
1, 142494, Note_off_c, 0, 82, 62
1, 142502, Note_on_c, 0, 59, 56
1, 142503, Note_on_c, 0, 68, 61
1, 142505, Note_on_c, 0, 95, 77
1, 142512, Control_c, 0, 64, 95
1, 142517, Note_off_c, 0, 63, 53
1, 142527, Control_c, 0, 64, 70
1, 142542, Control_c, 0, 64, 56
1, 142547, Note_off_c, 0, 71, 55
1, 142557, Control_c, 0, 64, 42
1, 142561, Note_on_c, 0, 92, 76
1, 142572, Control_c, 0, 64, 48
1, 142586, Note_off_c, 0, 95, 58
1, 142586, Control_c, 0, 64, 55
1, 142610, Control_c, 0, 64, 62
1, 142625, Control_c, 0, 64, 72
1, 142627, Note_on_c, 0, 87, 72
1, 142639, Control_c, 0, 64, 101
1, 142643, Note_off_c, 0, 92, 65
1, 142654, Control_c, 0, 64, 127
1, 142665, Note_off_c, 0, 87, 61
1, 142673, Note_on_c, 0, 83, 66
1, 142694, Note_off_c, 0, 59, 54
1, 142700, Note_off_c, 0, 83, 67
1, 142742, Note_on_c, 0, 71, 73
1, 142744, Note_on_c, 0, 63, 69
1, 142756, Note_on_c, 0, 83, 73
1, 142758, Note_off_c, 0, 68, 61
1, 142783, Note_off_c, 0, 71, 59
1, 142788, Note_on_c, 0, 80, 74
1, 142811, Note_off_c, 0, 83, 56
1, 142821, Note_off_c, 0, 80, 62
1, 142844, Note_on_c, 0, 75, 75
1, 142870, Note_off_c, 0, 75, 66
1, 142886, Note_on_c, 0, 80, 69
1, 142918, Note_off_c, 0, 63, 62
1, 142929, Note_on_c, 0, 83, 73
1, 142936, Note_off_c, 0, 80, 64
1, 142944, Note_on_c, 0, 75, 89
1, 142950, Note_off_c, 0, 83, 68
1, 142952, Note_on_c, 0, 66, 71
1, 142996, Note_on_c, 0, 83, 78
1, 143004, Note_off_c, 0, 75, 60
1, 143064, Note_off_c, 0, 83, 61
1, 143069, Note_on_c, 0, 86, 71
1, 143105, Note_off_c, 0, 86, 60
1, 143120, Note_on_c, 0, 91, 69
1, 143148, Note_on_c, 0, 95, 85
1, 143148, Note_off_c, 0, 91, 67
1, 143154, Note_on_c, 0, 73, 92
1, 143165, Note_on_c, 0, 65, 71
1, 143194, Note_off_c, 0, 66, 35
1, 143218, Note_on_c, 0, 92, 79
1, 143242, Note_on_c, 0, 87, 80
1, 143245, Note_off_c, 0, 95, 66
1, 143267, Note_off_c, 0, 92, 66
1, 143296, Note_on_c, 0, 83, 54
1, 143302, Note_off_c, 0, 87, 61
1, 143317, Note_off_c, 0, 83, 60
1, 143377, Note_on_c, 0, 70, 80
1, 143386, Note_on_c, 0, 61, 71
1, 143397, Note_off_c, 0, 73, 59
1, 143397, Note_on_c, 0, 97, 75
1, 143402, Control_c, 0, 64, 83
1, 143418, Control_c, 0, 64, 61
1, 143419, Note_off_c, 0, 65, 57
1, 143433, Control_c, 0, 64, 0
1, 143445, Note_on_c, 0, 94, 80
1, 143477, Control_c, 0, 64, 44
1, 143480, Note_on_c, 0, 92, 53
1, 143492, Control_c, 0, 64, 64
1, 143500, Note_on_c, 0, 89, 76
1, 143500, Note_off_c, 0, 97, 63
1, 143505, Note_off_c, 0, 92, 63
1, 143506, Control_c, 0, 64, 82
1, 143520, Note_off_c, 0, 94, 63
1, 143521, Control_c, 0, 64, 127
1, 143543, Note_on_c, 0, 85, 72
1, 143545, Note_off_c, 0, 89, 62
1, 143552, Note_off_c, 0, 61, 59
1, 143568, Note_off_c, 0, 85, 70
1, 143610, Note_on_c, 0, 73, 88
1, 143618, Note_on_c, 0, 65, 76
1, 143622, Note_on_c, 0, 85, 72
1, 143638, Note_off_c, 0, 70, 62
1, 143665, Note_off_c, 0, 73, 61
1, 143677, Note_off_c, 0, 85, 64
1, 143683, Note_off_c, 0, 65, 60
1, 143706, Note_on_c, 0, 77, 74
1, 143743, Poly_aftertouch_c, 0, 83, 0
1, 143760, Note_off_c, 0, 77, 60
1, 143765, Note_on_c, 0, 83, 32
1, 143804, Note_off_c, 0, 83, 66
1, 143817, Note_on_c, 0, 77, 91
1, 143821, Note_on_c, 0, 68, 84
1, 143825, Note_on_c, 0, 86, 39
1, 143853, Note_off_c, 0, 86, 52
1, 143875, Note_on_c, 0, 85, 77
1, 143883, Note_off_c, 0, 77, 57
1, 143925, Note_on_c, 0, 89, 85
1, 143940, Note_off_c, 0, 85, 63
1, 143976, Note_on_c, 0, 94, 80
1, 144009, Note_off_c, 0, 89, 62
1, 144014, Note_on_c, 0, 97, 90
1, 144019, Note_on_c, 0, 75, 92
1, 144026, Note_on_c, 0, 66, 79
1, 144026, Note_off_c, 0, 94, 63
1, 144068, Note_on_c, 0, 94, 75
1, 144120, Note_on_c, 0, 89, 83
1, 144131, Note_off_c, 0, 97, 63
1, 144164, Note_off_c, 0, 68, 21
1, 144165, Note_on_c, 0, 85, 83
1, 144169, Note_off_c, 0, 94, 63
1, 144188, Note_off_c, 0, 89, 62
1, 144232, Note_off_c, 0, 85, 64
1, 144256, Note_on_c, 0, 71, 78
1, 144267, Note_on_c, 0, 63, 72
1, 144280, Note_on_c, 0, 99, 71
1, 144306, Note_off_c, 0, 66, 58
1, 144312, Note_off_c, 0, 75, 58
1, 144315, Control_c, 0, 64, 77
1, 144329, Control_c, 0, 64, 58
1, 144344, Control_c, 0, 64, 0
1, 144348, Note_on_c, 0, 95, 76
1, 144374, Note_off_c, 0, 99, 64
1, 144389, Control_c, 0, 64, 37
1, 144403, Control_c, 0, 64, 60
1, 144411, Note_on_c, 0, 90, 73
1, 144418, Control_c, 0, 64, 72
1, 144423, Note_off_c, 0, 95, 64
1, 144433, Control_c, 0, 64, 127
1, 144460, Note_off_c, 0, 90, 63
1, 144461, Note_on_c, 0, 87, 69
1, 144488, Note_off_c, 0, 87, 68
1, 144541, Note_on_c, 0, 87, 66
1, 144543, Note_on_c, 0, 73, 78
1, 144554, Note_on_c, 0, 65, 68
1, 144566, Note_off_c, 0, 71, 58
1, 144596, Note_on_c, 0, 83, 61
1, 144601, Note_off_c, 0, 87, 62
1, 144627, Note_off_c, 0, 73, 64
1, 144629, Note_off_c, 0, 83, 66
1, 144634, Note_off_c, 0, 63, 57
1, 144640, Note_on_c, 0, 78, 80
1, 144653, Poly_aftertouch_c, 0, 85, 0
1, 144687, Note_off_c, 0, 78, 65
1, 144688, Note_on_c, 0, 83, 68
1, 144733, Note_on_c, 0, 87, 77
1, 144736, Note_off_c, 0, 83, 66
1, 144750, Note_on_c, 0, 75, 96
1, 144756, Note_off_c, 0, 87, 70
1, 144760, Note_on_c, 0, 66, 73
1, 144782, Note_off_c, 0, 65, 60
1, 144804, Note_on_c, 0, 87, 83
1, 144850, Note_off_c, 0, 66, 62
1, 144850, Note_off_c, 0, 75, 61
1, 144863, Note_on_c, 0, 90, 81
1, 144870, Note_off_c, 0, 87, 63
1, 144914, Note_on_c, 0, 95, 78
1, 144923, Note_off_c, 0, 90, 64
1, 144957, Note_on_c, 0, 99, 88
1, 144962, Note_off_c, 0, 95, 66
1, 144970, Note_on_c, 0, 77, 101
1, 144975, Note_on_c, 0, 68, 84
1, 145037, Note_on_c, 0, 95, 84
1, 145063, Note_off_c, 0, 99, 64
1, 145080, Note_off_c, 0, 68, 60
1, 145081, Note_on_c, 0, 90, 88
1, 145122, Note_on_c, 0, 87, 81
1, 145137, Note_off_c, 0, 90, 63
1, 145165, Note_off_c, 0, 77, 55
1, 145187, Note_on_c, 0, 90, 73
1, 145190, Note_off_c, 0, 87, 63
1, 145191, Note_on_c, 0, 78, 102
1, 145201, Note_on_c, 0, 70, 81
1, 145251, Note_off_c, 0, 90, 64
1, 145252, Note_on_c, 0, 87, 82
1, 145261, Note_off_c, 0, 95, 21
1, 145272, Note_off_c, 0, 70, 63
1, 145308, Note_on_c, 0, 90, 80
1, 145337, Note_off_c, 0, 87, 63
1, 145353, Note_off_c, 0, 78, 38
1, 145362, Note_on_c, 0, 95, 88
1, 145385, Note_off_c, 0, 90, 64
1, 145422, Note_on_c, 0, 80, 99
1, 145430, Note_on_c, 0, 99, 95
1, 145433, Note_on_c, 0, 71, 84
1, 145442, Note_off_c, 0, 95, 65
1, 145509, Note_on_c, 0, 95, 93
1, 145522, Note_off_c, 0, 71, 60
1, 145539, Note_off_c, 0, 99, 65
1, 145579, Note_on_c, 0, 90, 91
1, 145625, Note_off_c, 0, 95, 63
1, 145660, Note_on_c, 0, 87, 102
1, 145689, Note_off_c, 0, 90, 62
1, 145725, Note_off_c, 0, 80, 61
1, 145771, Note_on_c, 0, 82, 98
1, 145781, Note_on_c, 0, 73, 82
1, 145800, Note_on_c, 0, 90, 94
1, 145833, Note_off_c, 0, 87, 59
1, 145891, Note_off_c, 0, 73, 58
1, 145898, Note_on_c, 0, 92, 92
1, 145908, Note_off_c, 0, 90, 63
1, 146005, Note_on_c, 0, 90, 91
1, 146009, Note_on_c, 0, 83, 96
1, 146013, Note_on_c, 0, 87, 83
1, 146016, Note_on_c, 0, 75, 82
1, 146025, Note_off_c, 0, 92, 61
1, 146026, Note_off_c, 0, 82, 57
1, 146071, Note_off_c, 0, 87, 60
1, 146074, Note_off_c, 0, 90, 63
1, 146076, Note_on_c, 0, 99, 88
1, 146155, Note_on_c, 0, 82, 91
1, 146158, Note_on_c, 0, 90, 87
1, 146159, Note_off_c, 0, 99, 63
1, 146164, Note_on_c, 0, 87, 84
1, 146167, Note_on_c, 0, 73, 78
1, 146172, Note_off_c, 0, 83, 61
1, 146179, Note_off_c, 0, 75, 57
1, 146209, Note_on_c, 0, 92, 87
1, 146209, Note_off_c, 0, 87, 65
1, 146217, Note_off_c, 0, 90, 63
1, 146267, Note_on_c, 0, 90, 76
1, 146267, Note_off_c, 0, 73, 60
1, 146273, Note_on_c, 0, 83, 87
1, 146277, Note_on_c, 0, 75, 88
1, 146288, Note_on_c, 0, 87, 79
1, 146289, Note_off_c, 0, 82, 62
1, 146313, Note_off_c, 0, 87, 66
1, 146332, Note_off_c, 0, 90, 64
1, 146335, Note_off_c, 0, 92, 57
1, 146337, Note_on_c, 0, 99, 91
1, 146369, Note_off_c, 0, 83, 55
1, 146392, Note_on_c, 0, 82, 96
1, 146399, Note_on_c, 0, 90, 77
1, 146399, Note_on_c, 0, 73, 80
1, 146408, Note_on_c, 0, 87, 82
1, 146416, Note_off_c, 0, 75, 59
1, 146416, Note_off_c, 0, 99, 64
1, 146444, Note_on_c, 0, 92, 83
1, 146448, Note_off_c, 0, 87, 62
1, 146450, Note_off_c, 0, 90, 64
1, 146491, Note_off_c, 0, 73, 63
1, 146494, Note_on_c, 0, 90, 73
1, 146500, Note_on_c, 0, 83, 83
1, 146503, Note_on_c, 0, 75, 83
1, 146506, Note_on_c, 0, 87, 76
1, 146511, Note_off_c, 0, 82, 64
1, 146546, Note_off_c, 0, 87, 62
1, 146564, Note_off_c, 0, 90, 63
1, 146569, Note_on_c, 0, 99, 85
1, 146578, Note_off_c, 0, 92, 64
1, 146613, Note_on_c, 0, 82, 90
1, 146614, Note_on_c, 0, 73, 80
1, 146619, Note_on_c, 0, 90, 72
1, 146623, Note_off_c, 0, 83, 62
1, 146631, Note_on_c, 0, 87, 80
1, 146632, Note_off_c, 0, 99, 66
1, 146634, Note_off_c, 0, 75, 59
1, 146661, Note_off_c, 0, 87, 63
1, 146665, Note_on_c, 0, 92, 71
1, 146673, Note_off_c, 0, 90, 64
1, 146717, Note_on_c, 0, 90, 67
1, 146721, Note_off_c, 0, 73, 60
1, 146724, Note_on_c, 0, 83, 86
1, 146729, Note_off_c, 0, 82, 65
1, 146731, Note_on_c, 0, 75, 76
1, 146740, Note_on_c, 0, 87, 78
1, 146766, Note_off_c, 0, 75, 59
1, 146769, Note_off_c, 0, 87, 64
1, 146771, Note_off_c, 0, 83, 63
1, 146780, Note_off_c, 0, 92, 38
1, 146787, Note_off_c, 0, 90, 63
1, 146790, Note_on_c, 0, 99, 82
1, 146838, Note_on_c, 0, 80, 86
1, 146846, Note_on_c, 0, 71, 77
1, 146846, Note_on_c, 0, 90, 69
1, 146848, Note_off_c, 0, 99, 63
1, 146855, Note_on_c, 0, 87, 79
1, 146885, Note_off_c, 0, 87, 63
1, 146887, Note_on_c, 0, 92, 79
1, 146897, Note_off_c, 0, 90, 63
1, 146937, Note_off_c, 0, 80, 60
1, 146942, Note_on_c, 0, 90, 66
1, 146948, Note_off_c, 0, 71, 58
1, 146953, Note_on_c, 0, 82, 86
1, 146954, Note_on_c, 0, 73, 79
1, 146965, Note_on_c, 0, 87, 73
1, 146991, Note_off_c, 0, 87, 68
1, 146993, Note_off_c, 0, 92, 0
1, 147013, Note_off_c, 0, 90, 64
1, 147015, Note_on_c, 0, 99, 83
1, 147019, Note_off_c, 0, 82, 64
1, 147026, Poly_aftertouch_c, 0, 92, 0
1, 147061, Note_on_c, 0, 80, 86
1, 147066, Note_on_c, 0, 71, 73
1, 147071, Note_off_c, 0, 99, 62
1, 147073, Note_on_c, 0, 90, 75
1, 147073, Note_off_c, 0, 73, 53
1, 147081, Note_on_c, 0, 87, 77
1, 147117, Note_off_c, 0, 87, 64
1, 147123, Note_on_c, 0, 92, 72
1, 147132, Note_off_c, 0, 90, 64
1, 147164, Note_off_c, 0, 71, 62
1, 147172, Note_on_c, 0, 90, 67
1, 147177, Note_on_c, 0, 82, 88
1, 147182, Note_on_c, 0, 73, 83
1, 147191, Note_off_c, 0, 80, 62
1, 147194, Note_on_c, 0, 87, 78
1, 147206, Note_off_c, 0, 92, 59
1, 147225, Note_off_c, 0, 87, 61
1, 147230, Note_off_c, 0, 82, 65
1, 147237, Note_off_c, 0, 73, 64
1, 147250, Note_off_c, 0, 90, 64
1, 147251, Note_on_c, 0, 99, 87
1, 147304, Note_on_c, 0, 83, 99
1, 147305, Note_on_c, 0, 75, 91
1, 147313, Note_on_c, 0, 90, 74
1, 147316, Note_on_c, 0, 87, 86
1, 147316, Note_off_c, 0, 99, 62
1, 147341, Note_on_c, 0, 92, 76
1, 147350, Note_off_c, 0, 90, 60
1, 147353, Note_off_c, 0, 87, 62
1, 147406, Note_on_c, 0, 90, 76
1, 147412, Note_on_c, 0, 82, 87
1, 147421, Note_on_c, 0, 73, 83
1, 147423, Note_on_c, 0, 87, 73
1, 147425, Note_off_c, 0, 83, 62
1, 147432, Note_off_c, 0, 92, 63
1, 147451, Note_off_c, 0, 87, 64
1, 147459, Note_off_c, 0, 75, 60
1, 147475, Note_on_c, 0, 99, 88
1, 147475, Note_off_c, 0, 90, 64
1, 147529, Note_on_c, 0, 83, 93
1, 147535, Note_on_c, 0, 75, 79
1, 147537, Note_off_c, 0, 99, 62
1, 147538, Note_on_c, 0, 90, 74
1, 147538, Note_off_c, 0, 73, 50
1, 147540, Note_on_c, 0, 87, 84
1, 147543, Note_off_c, 0, 82, 53
1, 147575, Note_on_c, 0, 92, 76
1, 147584, Note_off_c, 0, 87, 63
1, 147589, Note_off_c, 0, 90, 63
1, 147636, Note_on_c, 0, 90, 71
1, 147645, Note_on_c, 0, 82, 91
1, 147647, Note_on_c, 0, 73, 81
1, 147651, Note_off_c, 0, 83, 65
1, 147656, Note_on_c, 0, 87, 73
1, 147675, Note_off_c, 0, 75, 61
1, 147685, Note_off_c, 0, 87, 66
1, 147687, Note_off_c, 0, 82, 66
1, 147696, Note_off_c, 0, 73, 65
1, 147705, Note_off_c, 0, 90, 63
1, 147707, Note_on_c, 0, 99, 83
1, 147708, Note_off_c, 0, 92, 35
1, 147766, Note_off_c, 0, 99, 65
1, 147768, Note_on_c, 0, 80, 88
1, 147778, Note_on_c, 0, 71, 77
1, 147778, Note_on_c, 0, 90, 77
1, 147786, Note_on_c, 0, 87, 74
1, 147816, Note_off_c, 0, 87, 63
1, 147819, Note_on_c, 0, 92, 73
1, 147833, Note_off_c, 0, 90, 62
1, 147891, Note_on_c, 0, 90, 66
1, 147893, Note_off_c, 0, 80, 56
1, 147896, Note_off_c, 0, 71, 59
1, 147898, Note_on_c, 0, 82, 86
1, 147901, Note_on_c, 0, 73, 79
1, 147910, Note_on_c, 0, 87, 76
1, 147937, Note_off_c, 0, 87, 64
1, 147956, Note_off_c, 0, 90, 64
1, 147959, Note_on_c, 0, 99, 83
1, 147961, Note_off_c, 0, 92, 36
1, 147973, Note_off_c, 0, 82, 62
1, 148010, Note_on_c, 0, 80, 84
1, 148013, Note_on_c, 0, 71, 78
1, 148014, Note_on_c, 0, 90, 70
1, 148015, Note_off_c, 0, 99, 65
1, 148027, Note_on_c, 0, 87, 81
1, 148050, Note_off_c, 0, 73, 61
1, 148064, Note_on_c, 0, 92, 78
1, 148064, Note_off_c, 0, 87, 62
1, 148067, Note_off_c, 0, 90, 64
1, 148115, Note_off_c, 0, 71, 61
1, 148116, Note_on_c, 0, 90, 74
1, 148128, Note_on_c, 0, 82, 94
1, 148134, Note_on_c, 0, 73, 73
1, 148136, Note_off_c, 0, 80, 63
1, 148138, Note_off_c, 0, 92, 60
1, 148142, Note_on_c, 0, 87, 71
1, 148167, Note_off_c, 0, 87, 69
1, 148184, Note_off_c, 0, 90, 62
1, 148190, Note_on_c, 0, 99, 87
1, 148204, Note_off_c, 0, 82, 59
1, 148237, Note_on_c, 0, 90, 66
1, 148238, Note_on_c, 0, 71, 74
1, 148239, Note_on_c, 0, 80, 84
1, 148250, Note_off_c, 0, 99, 64
1, 148253, Note_on_c, 0, 87, 77
1, 148272, Note_off_c, 0, 73, 60
1, 148282, Note_off_c, 0, 87, 64
1, 148289, Note_on_c, 0, 92, 70
1, 148289, Note_off_c, 0, 90, 64
1, 148341, Note_on_c, 0, 90, 69
1, 148347, Note_off_c, 0, 71, 58
1, 148352, Note_on_c, 0, 82, 82
1, 148358, Note_on_c, 0, 73, 69
1, 148361, Note_off_c, 0, 80, 63
1, 148369, Note_on_c, 0, 87, 63
1, 148378, Note_off_c, 0, 92, 52
1, 148387, Note_off_c, 0, 87, 66
1, 148408, Note_off_c, 0, 90, 63
1, 148412, Note_on_c, 0, 99, 82
1, 148453, Note_off_c, 0, 82, 41
1, 148460, Note_on_c, 0, 90, 63
1, 148462, Note_off_c, 0, 99, 63
1, 148465, Note_on_c, 0, 71, 67
1, 148465, Note_on_c, 0, 80, 76
1, 148469, Note_on_c, 0, 87, 68
1, 148496, Note_off_c, 0, 73, 57
1, 148504, Note_off_c, 0, 87, 63
1, 148512, Note_on_c, 0, 92, 72
1, 148514, Note_off_c, 0, 90, 63
1, 148567, Note_on_c, 0, 90, 63
1, 148570, Note_on_c, 0, 73, 62
1, 148573, Note_on_c, 0, 82, 76
1, 148573, Note_off_c, 0, 71, 59
1, 148578, Note_off_c, 0, 80, 63
1, 148602, Note_on_c, 0, 87, 68
1, 148603, Note_off_c, 0, 92, 62
1, 148628, Note_off_c, 0, 82, 62
1, 148629, Note_off_c, 0, 87, 63
1, 148641, Note_off_c, 0, 73, 63
1, 148651, Note_off_c, 0, 90, 61
1, 148652, Note_on_c, 0, 99, 75
1, 148698, Note_off_c, 0, 99, 60
1, 148703, Note_on_c, 0, 90, 60
1, 148707, Note_on_c, 0, 78, 72
1, 148715, Note_on_c, 0, 87, 64
1, 148715, Note_on_c, 0, 70, 60
1, 148734, Control_c, 0, 64, 99
1, 148748, Note_off_c, 0, 87, 65
1, 148748, Note_on_c, 0, 92, 66
1, 148749, Control_c, 0, 64, 76
1, 148760, Note_off_c, 0, 90, 59
1, 148764, Control_c, 0, 64, 62
1, 148778, Control_c, 0, 64, 57
1, 148793, Control_c, 0, 64, 62
1, 148808, Control_c, 0, 64, 65
1, 148816, Note_on_c, 0, 90, 59
1, 148823, Control_c, 0, 64, 70
1, 148837, Note_on_c, 0, 80, 68
1, 148838, Control_c, 0, 64, 81
1, 148839, Note_on_c, 0, 71, 60
1, 148839, Note_off_c, 0, 78, 63
1, 148840, Note_off_c, 0, 70, 54
1, 148843, Note_off_c, 0, 92, 59
1, 148846, Note_on_c, 0, 87, 65
1, 148852, Control_c, 0, 64, 127
1, 148867, Note_off_c, 0, 87, 62
1, 148896, Note_on_c, 0, 99, 71
1, 148914, Note_off_c, 0, 90, 0
1, 148927, Note_off_c, 0, 80, 51
1, 148938, Note_on_c, 0, 90, 25
1, 148945, Note_off_c, 0, 99, 59
1, 148953, Note_off_c, 0, 71, 60
1, 148954, Note_on_c, 0, 87, 64
1, 148958, Note_on_c, 0, 78, 69
1, 148966, Note_on_c, 0, 70, 58
1, 148994, Note_on_c, 0, 92, 61
1, 148997, Note_off_c, 0, 87, 61
1, 149006, Note_off_c, 0, 90, 58
1, 149066, Note_on_c, 0, 90, 54
1, 149070, Note_on_c, 0, 80, 68
1, 149077, Note_off_c, 0, 70, 58
1, 149079, Note_off_c, 0, 92, 62
1, 149085, Note_off_c, 0, 78, 61
1, 149086, Note_on_c, 0, 71, 46
1, 149100, Note_on_c, 0, 87, 59
1, 149108, Note_off_c, 0, 80, 61
1, 149109, Note_off_c, 0, 71, 59
1, 149121, Note_off_c, 0, 87, 61
1, 149151, Note_off_c, 0, 90, 55
1, 149152, Note_on_c, 0, 99, 69
1, 149188, Note_off_c, 0, 99, 60
1, 149198, Note_on_c, 0, 90, 35
1, 149207, Note_on_c, 0, 82, 72
1, 149216, Note_on_c, 0, 87, 54
1, 149231, Note_on_c, 0, 73, 54
1, 149254, Note_off_c, 0, 87, 62
1, 149265, Note_off_c, 0, 90, 59
1, 149269, Note_on_c, 0, 92, 61
1, 149300, Note_off_c, 0, 82, 56
1, 149332, Note_on_c, 0, 90, 48
1, 149350, Note_off_c, 0, 92, 58
1, 149351, Note_on_c, 0, 80, 57
1, 149359, Note_on_c, 0, 87, 61
1, 149371, Note_off_c, 0, 73, 56
1, 149386, Note_on_c, 0, 71, 53
1, 149404, Note_off_c, 0, 87, 56
1, 149420, Note_off_c, 0, 90, 59
1, 149439, Note_on_c, 0, 99, 64
1, 149471, Note_on_c, 0, 82, 9
1, 149476, Note_off_c, 0, 71, 54
1, 149496, Note_off_c, 0, 80, 61
1, 149500, Note_on_c, 0, 90, 41
1, 149507, Note_off_c, 0, 99, 52
1, 149520, Note_on_c, 0, 73, 52
1, 149556, Note_off_c, 0, 90, 56
1, 149557, Note_on_c, 0, 92, 56
1, 149641, Note_on_c, 0, 90, 40
1, 149645, Note_off_c, 0, 92, 56
1, 149666, Note_on_c, 0, 71, 47
1, 149677, Note_on_c, 0, 80, 58
1, 149686, Note_on_c, 0, 87, 6
1, 149715, Note_off_c, 0, 82, 42
1, 149750, Note_off_c, 0, 87, 43
1, 149768, Note_on_c, 0, 99, 54
1, 149768, Note_off_c, 0, 71, 56
1, 149769, Note_off_c, 0, 90, 55
1, 149782, Note_off_c, 0, 80, 58
1, 149785, Note_off_c, 0, 73, 29
1, 149866, Note_off_c, 0, 99, 60
1, 149914, Note_on_c, 0, 71, 49
1, 149987, Note_on_c, 0, 76, 47
1, 150062, Control_c, 0, 64, 123
1, 150066, Note_on_c, 0, 80, 63
1, 150077, Control_c, 0, 64, 109
1, 150098, Control_c, 0, 64, 102
1, 150113, Control_c, 0, 64, 97
1, 150128, Control_c, 0, 64, 92
1, 150143, Control_c, 0, 64, 88
1, 150158, Control_c, 0, 64, 85
1, 150173, Control_c, 0, 64, 81
1, 150188, Control_c, 0, 64, 79
1, 150189, Note_on_c, 0, 83, 73
1, 150203, Control_c, 0, 64, 77
1, 150218, Control_c, 0, 64, 76
1, 150232, Control_c, 0, 64, 74
1, 150247, Control_c, 0, 64, 70
1, 150253, Note_on_c, 0, 92, 40
1, 150256, Note_on_c, 0, 88, 25
1, 150262, Control_c, 0, 64, 65
1, 150277, Control_c, 0, 64, 60
1, 150291, Control_c, 0, 64, 53
1, 150306, Control_c, 0, 64, 50
1, 150336, Control_c, 0, 64, 51
1, 150350, Control_c, 0, 64, 56
1, 150363, Note_off_c, 0, 92, 61
1, 150365, Control_c, 0, 64, 61
1, 150380, Control_c, 0, 64, 64
1, 150386, Note_off_c, 0, 88, 56
1, 150395, Control_c, 0, 64, 71
1, 150410, Control_c, 0, 64, 84
1, 150424, Control_c, 0, 64, 117
1, 150433, Note_on_c, 0, 95, 36
1, 150439, Control_c, 0, 64, 127
1, 150467, Note_off_c, 0, 95, 55
1, 150501, Note_on_c, 0, 88, 47
1, 150507, Note_on_c, 0, 92, 39
1, 150531, Note_off_c, 0, 88, 63
1, 150537, Note_off_c, 0, 92, 55
1, 150551, Note_off_c, 0, 83, 51
1, 150564, Note_on_c, 0, 100, 61
1, 150605, Note_off_c, 0, 100, 63
1, 150623, Note_on_c, 0, 92, 60
1, 150638, Note_on_c, 0, 88, 43
1, 150661, Note_off_c, 0, 92, 64
1, 150664, Note_off_c, 0, 88, 57
1, 150668, Note_on_c, 0, 95, 64
1, 150674, Note_off_c, 0, 71, 36
1, 150677, Note_off_c, 0, 80, 43
1, 150718, Note_off_c, 0, 95, 62
1, 150727, Note_off_c, 0, 76, 31
1, 150733, Note_on_c, 0, 92, 69
1, 150739, Note_on_c, 0, 88, 61
1, 150765, Note_off_c, 0, 88, 66
1, 150775, Note_off_c, 0, 92, 56
1, 150793, Note_on_c, 0, 100, 73
1, 150831, Note_off_c, 0, 100, 62
1, 150858, Note_on_c, 0, 92, 58
1, 150861, Note_on_c, 0, 88, 59
1, 150892, Note_on_c, 0, 95, 67
1, 150892, Note_off_c, 0, 92, 61
1, 150894, Note_off_c, 0, 88, 66
1, 150931, Note_off_c, 0, 95, 61
1, 150957, Note_on_c, 0, 92, 54
1, 150971, Note_on_c, 0, 88, 52
1, 150991, Note_off_c, 0, 88, 61
1, 151005, Note_off_c, 0, 92, 54
1, 151016, Note_on_c, 0, 100, 69
1, 151052, Note_off_c, 0, 100, 61
1, 151070, Note_on_c, 0, 88, 61
1, 151073, Poly_aftertouch_c, 0, 92, 127
1, 151103, Note_off_c, 0, 88, 64
1, 151109, Poly_aftertouch_c, 0, 92, 0
1, 151122, Note_on_c, 0, 95, 55
1, 151167, Note_off_c, 0, 95, 59
1, 151177, Poly_aftertouch_c, 0, 92, 127
1, 151183, Note_on_c, 0, 68, 38
1, 151183, Note_on_c, 0, 88, 53
1, 151206, Note_off_c, 0, 88, 61
1, 151224, Note_on_c, 0, 71, 47
1, 151227, Poly_aftertouch_c, 0, 92, 0
1, 151247, Note_on_c, 0, 100, 56
1, 151270, Note_off_c, 0, 68, 54
1, 151274, Note_on_c, 0, 76, 53
1, 151282, Note_off_c, 0, 100, 65
1, 151296, Note_on_c, 0, 92, 61
1, 151310, Note_on_c, 0, 88, 53
1, 151316, Note_off_c, 0, 71, 59
1, 151328, Note_on_c, 0, 80, 69
1, 151344, Note_off_c, 0, 76, 62
1, 151347, Note_off_c, 0, 88, 64
1, 151355, Note_off_c, 0, 92, 57
1, 151361, Note_on_c, 0, 95, 56
1, 151413, Note_off_c, 0, 95, 61
1, 151424, Note_off_c, 0, 80, 59
1, 151431, Note_on_c, 0, 92, 53
1, 151437, Note_on_c, 0, 88, 55
1, 151462, Note_off_c, 0, 88, 63
1, 151478, Note_off_c, 0, 92, 61
1, 151487, Note_on_c, 0, 100, 69
1, 151520, Note_off_c, 0, 100, 65
1, 151546, Note_on_c, 0, 92, 63
1, 151550, Note_on_c, 0, 88, 60
1, 151582, Note_off_c, 0, 88, 67
1, 151583, Note_off_c, 0, 92, 63
1, 151598, Note_on_c, 0, 95, 65
1, 151644, Note_off_c, 0, 95, 57
1, 151661, Note_on_c, 0, 88, 66
1, 151666, Poly_aftertouch_c, 0, 92, 127
1, 151687, Note_off_c, 0, 88, 68
1, 151698, Note_on_c, 0, 71, 50
1, 151701, Poly_aftertouch_c, 0, 92, 0
1, 151718, Note_on_c, 0, 100, 72
1, 151735, Note_off_c, 0, 71, 56
1, 151755, Note_on_c, 0, 76, 56
1, 151760, Note_off_c, 0, 100, 64
1, 151776, Note_on_c, 0, 92, 64
1, 151777, Note_on_c, 0, 80, 65
1, 151790, Note_on_c, 0, 88, 60
1, 151813, Note_off_c, 0, 92, 61
1, 151818, Note_off_c, 0, 88, 67
1, 151821, Note_on_c, 0, 95, 67
1, 151826, Note_on_c, 0, 83, 87
1, 151850, Note_off_c, 0, 80, 60
1, 151887, Note_on_c, 0, 92, 72
1, 151890, Note_off_c, 0, 95, 59
1, 151898, Note_on_c, 0, 88, 62
1, 151923, Note_off_c, 0, 83, 60
1, 151929, Note_off_c, 0, 88, 67
1, 151936, Control_c, 0, 67, 8
1, 151943, Note_off_c, 0, 76, 48
1, 151944, Note_off_c, 0, 92, 60
1, 151951, Control_c, 0, 67, 14
1, 151958, Note_on_c, 0, 100, 73
1, 151966, Control_c, 0, 67, 21
1, 151981, Control_c, 0, 67, 28
1, 151995, Control_c, 0, 67, 36
1, 151997, Note_off_c, 0, 100, 59
1, 152010, Control_c, 0, 67, 46
1, 152012, Note_on_c, 0, 92, 53
1, 152016, Note_on_c, 0, 88, 60
1, 152025, Control_c, 0, 67, 60
1, 152040, Control_c, 0, 67, 70
1, 152045, Note_off_c, 0, 92, 65
1, 152048, Note_off_c, 0, 88, 67
1, 152054, Note_on_c, 0, 95, 69
1, 152055, Control_c, 0, 67, 83
1, 152069, Control_c, 0, 67, 97
1, 152084, Control_c, 0, 67, 112
1, 152099, Control_c, 0, 67, 124
1, 152110, Note_off_c, 0, 95, 58
1, 152113, Control_c, 0, 67, 127
1, 152122, Note_on_c, 0, 88, 62
1, 152124, Note_on_c, 0, 92, 62
1, 152161, Note_off_c, 0, 92, 52
1, 152164, Note_off_c, 0, 88, 52
1, 152187, Note_on_c, 0, 95, 25
1, 152221, Poly_aftertouch_c, 0, 88, 127
1, 152227, Poly_aftertouch_c, 0, 92, 127
1, 152230, Note_on_c, 0, 68, 53
1, 152232, Poly_aftertouch_c, 0, 88, 0
1, 152239, Note_off_c, 0, 95, 42
1, 152248, Note_on_c, 0, 100, 73
1, 152255, Poly_aftertouch_c, 0, 92, 0
1, 152273, Note_on_c, 0, 71, 60
1, 152277, Note_off_c, 0, 68, 57
1, 152312, Note_off_c, 0, 100, 62
1, 152326, Note_on_c, 0, 76, 54
1, 152365, Note_on_c, 0, 80, 75
1, 152394, Note_on_c, 0, 95, 53
1, 152397, Note_on_c, 0, 92, 49
1, 152406, Note_off_c, 0, 76, 51
1, 152422, Note_off_c, 0, 95, 65
1, 152423, Note_off_c, 0, 92, 56
1, 152444, Note_on_c, 0, 100, 63
1, 152492, Note_off_c, 0, 100, 59
1, 152510, Note_on_c, 0, 95, 55
1, 152513, Note_on_c, 0, 92, 54
1, 152534, Note_off_c, 0, 92, 61
1, 152534, Note_off_c, 0, 95, 59
1, 152558, Note_off_c, 0, 80, 53
1, 152571, Note_on_c, 0, 104, 74
1, 152608, Note_off_c, 0, 104, 60
1, 152617, Note_on_c, 0, 95, 69
1, 152625, Note_on_c, 0, 92, 62
1, 152640, Note_off_c, 0, 71, 36
1, 152648, Note_off_c, 0, 92, 64
1, 152650, Note_off_c, 0, 95, 66
1, 152659, Note_on_c, 0, 100, 71
1, 152727, Note_on_c, 0, 95, 67
1, 152733, Note_on_c, 0, 92, 60
1, 152740, Note_off_c, 0, 100, 59
1, 152751, Note_off_c, 0, 92, 64
1, 152765, Note_off_c, 0, 95, 63
1, 152786, Note_on_c, 0, 104, 81
1, 152838, Note_off_c, 0, 104, 56
1, 152846, Note_on_c, 0, 92, 62
1, 152848, Note_on_c, 0, 95, 58
1, 152866, Note_off_c, 0, 92, 64
1, 152867, Note_off_c, 0, 95, 62
1, 152872, Note_on_c, 0, 100, 69
1, 152940, Note_on_c, 0, 95, 71
1, 152948, Note_on_c, 0, 92, 67
1, 152951, Note_off_c, 0, 100, 63
1, 152979, Note_off_c, 0, 92, 66
1, 152991, Note_off_c, 0, 95, 63
1, 153008, Note_on_c, 0, 104, 81
1, 153061, Note_on_c, 0, 95, 55
1, 153063, Note_off_c, 0, 104, 59
1, 153065, Note_on_c, 0, 92, 67
1, 153099, Note_off_c, 0, 95, 66
1, 153103, Note_off_c, 0, 92, 67
1, 153109, Note_on_c, 0, 100, 64
1, 153169, Note_on_c, 0, 64, 45
1, 153177, Note_on_c, 0, 95, 67
1, 153187, Note_off_c, 0, 100, 60
1, 153203, Note_on_c, 0, 92, 45
1, 153219, Note_off_c, 0, 95, 59
1, 153222, Note_off_c, 0, 64, 54
1, 153231, Note_off_c, 0, 92, 48
1, 153234, Note_on_c, 0, 68, 44
1, 153251, Note_on_c, 0, 71, 48
1, 153257, Note_on_c, 0, 104, 67
1, 153297, Note_off_c, 0, 104, 58
1, 153313, Note_on_c, 0, 76, 65
1, 153315, Note_on_c, 0, 92, 66
1, 153318, Note_on_c, 0, 95, 70
1, 153350, Note_off_c, 0, 92, 64
1, 153353, Note_off_c, 0, 95, 61
1, 153364, Note_off_c, 0, 68, 32
1, 153383, Note_on_c, 0, 100, 56
1, 153383, Note_off_c, 0, 76, 62
1, 153393, Note_off_c, 0, 71, 35
1, 153432, Note_off_c, 0, 100, 58
1, 153452, Note_on_c, 0, 92, 53
1, 153455, Note_on_c, 0, 95, 47
1, 153474, Note_off_c, 0, 92, 58
1, 153486, Note_off_c, 0, 95, 52
1, 153507, Note_on_c, 0, 104, 70
1, 153545, Note_off_c, 0, 104, 60
1, 153566, Note_on_c, 0, 95, 67
1, 153571, Note_on_c, 0, 92, 52
1, 153601, Note_off_c, 0, 95, 64
1, 153602, Note_off_c, 0, 92, 64
1, 153626, Note_on_c, 0, 100, 56
1, 153658, Note_on_c, 0, 59, 40
1, 153682, Note_off_c, 0, 100, 56
1, 153686, Note_on_c, 0, 95, 59
1, 153696, Note_on_c, 0, 92, 56
1, 153719, Note_off_c, 0, 92, 63
1, 153729, Note_off_c, 0, 59, 39
1, 153730, Note_on_c, 0, 64, 35
1, 153732, Note_off_c, 0, 95, 59
1, 153747, Note_on_c, 0, 68, 47
1, 153758, Note_on_c, 0, 104, 68
1, 153797, Note_off_c, 0, 104, 60
1, 153816, Note_on_c, 0, 71, 52
1, 153819, Note_on_c, 0, 95, 63
1, 153836, Note_on_c, 0, 92, 50
1, 153838, Note_off_c, 0, 64, 46
1, 153865, Note_off_c, 0, 95, 62
1, 153869, Note_off_c, 0, 92, 63
1, 153888, Note_on_c, 0, 100, 57
1, 153908, Note_off_c, 0, 71, 58
1, 153935, Note_off_c, 0, 68, 30
1, 153943, Note_off_c, 0, 100, 57
1, 153955, Note_on_c, 0, 95, 51
1, 153962, Note_on_c, 0, 92, 53
1, 153997, Note_off_c, 0, 92, 61
1, 154003, Note_off_c, 0, 95, 58
1, 154036, Note_on_c, 0, 104, 66
1, 154085, Note_off_c, 0, 104, 58
1, 154099, Note_on_c, 0, 95, 56
1, 154102, Note_on_c, 0, 92, 54
1, 154143, Note_off_c, 0, 92, 62
1, 154143, Note_off_c, 0, 95, 62
1, 154175, Note_on_c, 0, 100, 54
1, 154242, Note_off_c, 0, 100, 55
1, 154259, Note_on_c, 0, 95, 46
1, 154266, Note_on_c, 0, 92, 41
1, 154345, Note_off_c, 0, 92, 47
1, 154434, Note_on_c, 0, 104, 50
1, 154435, Note_off_c, 0, 95, 46
1, 154446, Note_on_c, 0, 61, 32
1, 154521, Note_off_c, 0, 104, 60
1, 154531, Note_on_c, 0, 64, 34
1, 154605, Note_on_c, 0, 69, 40
1, 154699, Note_on_c, 0, 73, 38
1, 154725, Control_c, 0, 64, 95
1, 154740, Control_c, 0, 64, 80
1, 154754, Control_c, 0, 64, 67
1, 154769, Control_c, 0, 64, 56
1, 154784, Control_c, 0, 64, 43
1, 154797, Note_on_c, 0, 93, 38
1, 154799, Control_c, 0, 64, 41
1, 154813, Control_c, 0, 64, 43
1, 154828, Control_c, 0, 64, 51
1, 154843, Control_c, 0, 64, 58
1, 154847, Note_off_c, 0, 93, 62
1, 154858, Control_c, 0, 64, 63
1, 154873, Control_c, 0, 64, 68
1, 154887, Control_c, 0, 64, 77
1, 154902, Control_c, 0, 64, 103
1, 154917, Control_c, 0, 64, 127
1, 154963, Note_on_c, 0, 93, 37
1, 154987, Note_off_c, 0, 93, 55
1, 155043, Note_on_c, 0, 93, 39
1, 155098, Note_off_c, 0, 93, 50
1, 155116, Note_on_c, 0, 97, 61
1, 155151, Note_off_c, 0, 97, 65
1, 155183, Note_on_c, 0, 105, 58
1, 155183, Note_off_c, 0, 73, 33
1, 155231, Note_off_c, 0, 105, 60
1, 155243, Note_on_c, 0, 100, 53
1, 155252, Note_off_c, 0, 61, 36
1, 155281, Note_off_c, 0, 100, 63
1, 155299, Note_on_c, 0, 97, 61
1, 155299, Note_off_c, 0, 64, 38
1, 155322, Note_off_c, 0, 69, 32
1, 155341, Note_off_c, 0, 97, 64
1, 155363, Note_on_c, 0, 93, 52
1, 155412, Note_off_c, 0, 93, 61
1, 155434, Note_on_c, 0, 92, 76
1, 155458, Note_off_c, 0, 92, 70
1, 155515, Note_on_c, 0, 92, 49
1, 155541, Note_off_c, 0, 92, 0
1, 155541, Note_on_c, 0, 92, 41
1, 155598, Note_off_c, 0, 92, 64
1, 155602, Note_on_c, 0, 97, 81
1, 155654, Note_on_c, 0, 104, 76
1, 155655, Note_off_c, 0, 97, 63
1, 155688, Note_on_c, 0, 100, 69
1, 155729, Note_off_c, 0, 104, 62
1, 155744, Note_off_c, 0, 100, 65
1, 155746, Note_on_c, 0, 97, 73
1, 155776, Note_off_c, 0, 97, 65
1, 155789, Note_on_c, 0, 92, 70
1, 155818, Note_off_c, 0, 92, 68
1, 155866, Note_on_c, 0, 90, 76
1, 155866, Note_on_c, 0, 81, 52
1, 155889, Note_off_c, 0, 90, 70
1, 155901, Note_off_c, 0, 81, 66
1, 155927, Note_on_c, 0, 90, 78
1, 155935, Note_on_c, 0, 85, 50
1, 155950, Note_off_c, 0, 90, 70
1, 155957, Note_off_c, 0, 85, 59
1, 155986, Note_on_c, 0, 81, 60
1, 155989, Note_on_c, 0, 90, 66
1, 156018, Note_off_c, 0, 81, 67
1, 156026, Note_off_c, 0, 90, 61
1, 156035, Note_on_c, 0, 85, 63
1, 156042, Note_on_c, 0, 93, 65
1, 156072, Note_off_c, 0, 85, 61
1, 156086, Note_on_c, 0, 102, 75
1, 156087, Note_off_c, 0, 93, 66
1, 156105, Note_on_c, 0, 81, 62
1, 156122, Note_on_c, 0, 97, 78
1, 156136, Note_off_c, 0, 81, 66
1, 156170, Note_on_c, 0, 85, 55
1, 156173, Note_off_c, 0, 102, 64
1, 156182, Note_on_c, 0, 93, 73
1, 156189, Note_off_c, 0, 97, 62
1, 156194, Note_off_c, 0, 85, 58
1, 156209, Note_off_c, 0, 93, 70
1, 156224, Note_on_c, 0, 90, 66
1, 156230, Note_on_c, 0, 81, 48
1, 156251, Note_off_c, 0, 81, 62
1, 156253, Note_off_c, 0, 90, 66
1, 156271, Note_on_c, 0, 85, 66
1, 156303, Note_on_c, 0, 88, 78
1, 156314, Note_off_c, 0, 85, 58
1, 156324, Note_off_c, 0, 88, 72
1, 156328, Note_on_c, 0, 81, 67
1, 156363, Note_off_c, 0, 81, 61
1, 156377, Note_on_c, 0, 88, 58
1, 156395, Note_off_c, 0, 88, 64
1, 156403, Note_on_c, 0, 85, 52
1, 156427, Note_on_c, 0, 88, 62
1, 156430, Note_off_c, 0, 85, 55
1, 156454, Note_on_c, 0, 81, 55
1, 156483, Note_off_c, 0, 88, 64
1, 156486, Note_off_c, 0, 81, 67
1, 156489, Note_on_c, 0, 93, 70
1, 156515, Note_on_c, 0, 85, 60
1, 156516, Note_off_c, 0, 93, 67
1, 156528, Note_on_c, 0, 100, 71
1, 156543, Note_off_c, 0, 85, 51
1, 156567, Note_on_c, 0, 97, 71
1, 156572, Note_on_c, 0, 81, 56
1, 156585, Note_off_c, 0, 100, 62
1, 156606, Note_off_c, 0, 81, 65
1, 156612, Note_on_c, 0, 93, 70
1, 156629, Note_off_c, 0, 97, 62
1, 156640, Note_on_c, 0, 85, 53
1, 156645, Note_off_c, 0, 93, 65
1, 156668, Note_on_c, 0, 88, 66
1, 156680, Note_off_c, 0, 85, 56
1, 156704, Note_off_c, 0, 88, 64
1, 156746, Note_on_c, 0, 76, 47
1, 156779, Note_on_c, 0, 81, 22
1, 156785, Note_on_c, 0, 86, 12
1, 156801, Note_off_c, 0, 76, 58
1, 156805, Note_on_c, 0, 85, 76
1, 156815, Note_off_c, 0, 81, 46
1, 156835, Note_off_c, 0, 86, 30
1, 156837, Note_off_c, 0, 85, 70
1, 156880, Note_on_c, 0, 85, 66
1, 156908, Note_off_c, 0, 85, 67
1, 156951, Note_on_c, 0, 88, 38
1, 156956, Note_on_c, 0, 89, 44
1, 156972, Note_on_c, 0, 97, 73
1, 156978, Note_off_c, 0, 88, 61
1, 156981, Note_off_c, 0, 89, 55
1, 157032, Note_on_c, 0, 93, 68
1, 157067, Note_on_c, 0, 88, 66
1, 157068, Note_off_c, 0, 97, 62
1, 157093, Note_off_c, 0, 93, 66
1, 157120, Note_off_c, 0, 88, 66
1, 157130, Note_on_c, 0, 85, 63
1, 157155, Note_off_c, 0, 85, 66
1, 157213, Note_on_c, 0, 83, 73
1, 157237, Note_off_c, 0, 83, 70
1, 157276, Note_on_c, 0, 83, 66
1, 157295, Note_off_c, 0, 83, 63
1, 157336, Note_on_c, 0, 83, 69
1, 157383, Note_off_c, 0, 83, 62
1, 157393, Note_on_c, 0, 85, 70
1, 157424, Note_off_c, 0, 85, 62
1, 157427, Note_on_c, 0, 95, 72
1, 157464, Note_on_c, 0, 88, 71
1, 157494, Note_off_c, 0, 95, 62
1, 157526, Note_off_c, 0, 88, 64
1, 157527, Note_on_c, 0, 85, 73
1, 157563, Note_off_c, 0, 85, 60
1, 157583, Note_on_c, 0, 83, 65
1, 157614, Note_off_c, 0, 83, 66
1, 157658, Note_on_c, 0, 73, 44
1, 157665, Note_on_c, 0, 81, 68
1, 157686, Note_off_c, 0, 73, 60
1, 157694, Note_off_c, 0, 81, 59
1, 157721, Note_on_c, 0, 76, 47
1, 157744, Note_off_c, 0, 76, 60
1, 157744, Poly_aftertouch_c, 0, 81, 0
1, 157780, Note_on_c, 0, 73, 50
1, 157803, Note_off_c, 0, 73, 59
1, 157810, Poly_aftertouch_c, 0, 81, 127
1, 157829, Note_on_c, 0, 76, 61
1, 157829, Poly_aftertouch_c, 0, 81, 0
1, 157840, Note_on_c, 0, 85, 74
1, 157860, Note_off_c, 0, 76, 64
1, 157875, Note_off_c, 0, 85, 63
1, 157879, Note_on_c, 0, 73, 60
1, 157884, Note_on_c, 0, 93, 68
1, 157905, Note_off_c, 0, 73, 65
1, 157920, Note_on_c, 0, 88, 67
1, 157938, Note_on_c, 0, 76, 57
1, 157942, Note_off_c, 0, 93, 59
1, 157968, Note_off_c, 0, 76, 61
1, 157977, Note_off_c, 0, 88, 64
1, 157979, Note_on_c, 0, 85, 72
1, 157983, Note_on_c, 0, 73, 57
1, 158009, Note_off_c, 0, 85, 65
1, 158013, Note_off_c, 0, 73, 65
1, 158031, Note_on_c, 0, 81, 62
1, 158053, Note_on_c, 0, 76, 51
1, 158067, Note_off_c, 0, 81, 63
1, 158076, Note_off_c, 0, 76, 58
1, 158096, Note_on_c, 0, 73, 58
1, 158108, Note_on_c, 0, 80, 69
1, 158132, Note_off_c, 0, 73, 62
1, 158133, Note_off_c, 0, 80, 65
1, 158168, Note_on_c, 0, 76, 51
1, 158176, Poly_aftertouch_c, 0, 80, 0
1, 158192, Note_off_c, 0, 76, 57
1, 158222, Note_on_c, 0, 73, 52
1, 158226, Note_on_c, 0, 80, 69
1, 158251, Note_off_c, 0, 73, 64
1, 158263, Note_off_c, 0, 80, 57
1, 158278, Note_on_c, 0, 85, 74
1, 158296, Note_on_c, 0, 76, 43
1, 158329, Note_off_c, 0, 76, 54
1, 158338, Note_on_c, 0, 92, 77
1, 158338, Note_off_c, 0, 85, 64
1, 158346, Note_on_c, 0, 73, 60
1, 158376, Note_on_c, 0, 88, 65
1, 158378, Note_off_c, 0, 73, 66
1, 158428, Note_off_c, 0, 92, 63
1, 158432, Note_on_c, 0, 85, 73
1, 158433, Note_off_c, 0, 88, 64
1, 158434, Note_on_c, 0, 76, 47
1, 158471, Note_off_c, 0, 85, 62
1, 158493, Note_on_c, 0, 80, 61
1, 158516, Note_off_c, 0, 76, 53
1, 158530, Note_off_c, 0, 80, 61
1, 158545, Note_on_c, 0, 69, 47
1, 158557, Note_on_c, 0, 73, 43
1, 158605, Note_on_c, 0, 78, 35
1, 158606, Note_off_c, 0, 78, 127
1, 158613, Note_off_c, 0, 69, 52
1, 158618, Note_off_c, 0, 73, 57
1, 158639, Note_on_c, 0, 78, 49
1, 158681, Note_off_c, 0, 78, 65
1, 158722, Note_on_c, 0, 78, 52
1, 158755, Note_off_c, 0, 78, 65
1, 158768, Note_on_c, 0, 81, 64
1, 158799, Note_off_c, 0, 81, 68
1, 158808, Note_on_c, 0, 90, 70
1, 158850, Note_on_c, 0, 85, 71
1, 158887, Note_off_c, 0, 90, 63
1, 158908, Note_off_c, 0, 85, 64
1, 158911, Note_on_c, 0, 81, 62
1, 158940, Note_off_c, 0, 81, 67
1, 158958, Note_on_c, 0, 78, 62
1, 158990, Note_off_c, 0, 78, 65
1, 159024, Note_on_c, 0, 69, 40
1, 159037, Note_on_c, 0, 66, 42
1, 159048, Note_on_c, 0, 75, 69
1, 159071, Note_off_c, 0, 75, 62
1, 159083, Control_c, 0, 64, 100
1, 159098, Control_c, 0, 64, 89
1, 159113, Poly_aftertouch_c, 0, 75, 0
1, 159113, Control_c, 0, 64, 87
1, 159127, Control_c, 0, 64, 93
1, 159142, Control_c, 0, 64, 105
1, 159148, Note_off_c, 0, 66, 52
1, 159149, Note_off_c, 0, 69, 62
1, 159157, Control_c, 0, 64, 127
1, 159168, Note_on_c, 0, 75, 75
1, 159212, Note_off_c, 0, 75, 53
1, 159230, Note_on_c, 0, 81, 68
1, 159268, Note_on_c, 0, 87, 75
1, 159277, Note_off_c, 0, 81, 64
1, 159328, Note_on_c, 0, 85, 71
1, 159365, Note_off_c, 0, 87, 61
1, 159372, Note_on_c, 0, 81, 70
1, 159390, Note_off_c, 0, 85, 64
1, 159404, Note_off_c, 0, 81, 65
1, 159426, Note_on_c, 0, 75, 66
1, 159457, Note_off_c, 0, 75, 65
1, 159470, Control_c, 0, 64, 96
1, 159484, Control_c, 0, 64, 68
1, 159499, Control_c, 0, 64, 36
1, 159504, Note_on_c, 0, 69, 39
1, 159506, Note_on_c, 0, 61, 37
1, 159512, Note_on_c, 0, 76, 72
1, 159514, Control_c, 0, 64, 0
1, 159538, Note_off_c, 0, 76, 69
1, 159558, Control_c, 0, 64, 54
1, 159573, Control_c, 0, 64, 69
1, 159588, Control_c, 0, 64, 90
1, 159593, Poly_aftertouch_c, 0, 76, 0
1, 159602, Control_c, 0, 64, 127
1, 159650, Poly_aftertouch_c, 0, 76, 127
1, 159668, Note_off_c, 0, 69, 38
1, 159681, Poly_aftertouch_c, 0, 76, 0
1, 159696, Note_on_c, 0, 81, 73
1, 159698, Note_off_c, 0, 61, 34
1, 159730, Note_off_c, 0, 81, 64
1, 159741, Note_on_c, 0, 88, 61
1, 159786, Note_on_c, 0, 85, 74
1, 159809, Note_off_c, 0, 88, 63
1, 159829, Note_off_c, 0, 85, 61
1, 159846, Note_on_c, 0, 81, 69
1, 159888, Note_off_c, 0, 81, 63
1, 159899, Note_on_c, 0, 76, 64
1, 159930, Note_off_c, 0, 76, 66
1, 159968, Note_on_c, 0, 77, 75
1, 159995, Note_off_c, 0, 77, 66
1, 160047, Poly_aftertouch_c, 0, 77, 0
1, 160087, Poly_aftertouch_c, 0, 77, 0
1, 160127, Poly_aftertouch_c, 0, 77, 0
1, 160147, Note_on_c, 0, 81, 68
1, 160177, Note_off_c, 0, 81, 67
1, 160184, Note_on_c, 0, 89, 78
1, 160233, Note_on_c, 0, 85, 69
1, 160265, Note_off_c, 0, 89, 62
1, 160281, Note_on_c, 0, 81, 69
1, 160297, Note_off_c, 0, 85, 65
1, 160325, Note_off_c, 0, 81, 63
1, 160344, Note_on_c, 0, 77, 64
1, 160382, Note_off_c, 0, 77, 60
1, 160411, Control_c, 0, 64, 99
1, 160425, Control_c, 0, 64, 82
1, 160426, Note_on_c, 0, 69, 46
1, 160427, Note_on_c, 0, 73, 43
1, 160435, Note_on_c, 0, 78, 70
1, 160440, Control_c, 0, 64, 71
1, 160451, Note_off_c, 0, 78, 67
1, 160455, Control_c, 0, 64, 67
1, 160470, Control_c, 0, 64, 69
1, 160485, Control_c, 0, 64, 74
1, 160498, Note_off_c, 0, 73, 50
1, 160499, Control_c, 0, 64, 84
1, 160507, Note_on_c, 0, 78, 55
1, 160514, Control_c, 0, 64, 107
1, 160529, Control_c, 0, 64, 127
1, 160542, Note_off_c, 0, 78, 0
1, 160553, Note_on_c, 0, 78, 52
1, 160603, Note_off_c, 0, 78, 64
1, 160615, Note_on_c, 0, 81, 73
1, 160620, Note_off_c, 0, 69, 39
1, 160667, Note_off_c, 0, 81, 65
1, 160669, Note_on_c, 0, 90, 73
1, 160719, Note_on_c, 0, 85, 73
1, 160758, Note_off_c, 0, 90, 63
1, 160776, Note_on_c, 0, 81, 71
1, 160782, Note_off_c, 0, 85, 63
1, 160815, Note_off_c, 0, 81, 60
1, 160834, Note_on_c, 0, 78, 56
1, 160865, Note_off_c, 0, 78, 66
1, 160877, Control_c, 0, 64, 115
1, 160892, Control_c, 0, 64, 82
1, 160907, Control_c, 0, 64, 65
1, 160922, Control_c, 0, 64, 44
1, 160926, Note_on_c, 0, 69, 35
1, 160930, Note_on_c, 0, 76, 69
1, 160935, Note_on_c, 0, 66, 26
1, 160937, Control_c, 0, 64, 32
1, 160951, Control_c, 0, 64, 44
1, 160953, Note_off_c, 0, 76, 64
1, 160966, Control_c, 0, 64, 57
1, 160982, Control_c, 0, 64, 65
1, 160997, Control_c, 0, 64, 74
1, 161011, Poly_aftertouch_c, 0, 76, 0
1, 161011, Control_c, 0, 64, 95
1, 161026, Control_c, 0, 64, 127
1, 161060, Poly_aftertouch_c, 0, 76, 0
1, 161070, Note_off_c, 0, 66, 35
1, 161083, Note_off_c, 0, 69, 34
1, 161104, Poly_aftertouch_c, 0, 76, 0
1, 161122, Note_on_c, 0, 81, 66
1, 161157, Note_on_c, 0, 88, 65
1, 161160, Note_off_c, 0, 81, 61
1, 161226, Note_on_c, 0, 85, 60
1, 161232, Note_off_c, 0, 88, 60
1, 161257, Note_off_c, 0, 85, 68
1, 161274, Note_on_c, 0, 81, 64
1, 161338, Note_off_c, 0, 81, 62
1, 161354, Note_on_c, 0, 76, 58
1, 161389, Control_c, 0, 64, 88
1, 161396, Note_off_c, 0, 76, 61
1, 161404, Control_c, 0, 64, 68
1, 161414, Note_on_c, 0, 69, 35
1, 161418, Note_on_c, 0, 61, 29
1, 161419, Control_c, 0, 64, 49
1, 161434, Control_c, 0, 64, 18
1, 161435, Note_on_c, 0, 77, 64
1, 161449, Control_c, 0, 64, 35
1, 161453, Note_off_c, 0, 77, 64
1, 161463, Control_c, 0, 64, 50
1, 161478, Control_c, 0, 64, 61
1, 161493, Control_c, 0, 64, 69
1, 161508, Control_c, 0, 64, 83
1, 161512, Note_on_c, 0, 77, 65
1, 161522, Control_c, 0, 64, 127
1, 161528, Note_off_c, 0, 77, 63
1, 161589, Note_on_c, 0, 77, 60
1, 161620, Note_off_c, 0, 77, 66
1, 161634, Note_on_c, 0, 81, 58
1, 161666, Note_off_c, 0, 81, 65
1, 161682, Note_on_c, 0, 89, 66
1, 161745, Note_on_c, 0, 85, 59
1, 161754, Note_off_c, 0, 89, 57
1, 161792, Note_off_c, 0, 85, 61
1, 161803, Note_on_c, 0, 81, 57
1, 161836, Note_off_c, 0, 81, 67
1, 161875, Note_on_c, 0, 77, 49
1, 161877, Control_c, 0, 64, 114
1, 161892, Control_c, 0, 64, 82
1, 161907, Control_c, 0, 64, 65
1, 161922, Control_c, 0, 64, 41
1, 161924, Note_off_c, 0, 77, 57
1, 161937, Control_c, 0, 64, 19
1, 161951, Control_c, 0, 64, 34
1, 161962, Note_on_c, 0, 78, 55
1, 161966, Control_c, 0, 64, 48
1, 161981, Control_c, 0, 64, 61
1, 161984, Note_off_c, 0, 78, 64
1, 161995, Control_c, 0, 64, 69
1, 162010, Control_c, 0, 64, 82
1, 162025, Control_c, 0, 64, 127
1, 162026, Note_on_c, 0, 78, 53
1, 162055, Note_off_c, 0, 78, 63
1, 162123, Note_on_c, 0, 78, 49
1, 162168, Note_off_c, 0, 78, 62
1, 162186, Note_on_c, 0, 81, 49
1, 162256, Note_off_c, 0, 81, 53
1, 162261, Note_off_c, 0, 69, 42
1, 162276, Note_on_c, 0, 90, 52
1, 162372, Note_on_c, 0, 85, 46
1, 162374, Note_off_c, 0, 61, 40
1, 162470, Note_on_c, 0, 81, 42
1, 162471, Note_off_c, 0, 90, 29
1, 162472, Note_off_c, 0, 85, 49
1, 162586, Note_off_c, 0, 81, 58
1, 162623, Note_on_c, 0, 78, 43
1, 162706, Note_off_c, 0, 78, 54
1, 162894, Note_on_c, 0, 42, 32
1, 162973, Note_on_c, 0, 81, 36
1, 162975, Control_c, 0, 64, 113
1, 162990, Control_c, 0, 64, 104
1, 163005, Control_c, 0, 64, 95
1, 163019, Control_c, 0, 64, 82
1, 163034, Control_c, 0, 64, 71
1, 163049, Control_c, 0, 64, 62
1, 163064, Control_c, 0, 64, 49
1, 163079, Control_c, 0, 64, 46
1, 163092, Note_on_c, 0, 86, 28
1, 163094, Control_c, 0, 64, 48
1, 163108, Control_c, 0, 64, 52
1, 163123, Control_c, 0, 64, 56
1, 163138, Control_c, 0, 64, 60
1, 163153, Control_c, 0, 64, 64
1, 163168, Control_c, 0, 64, 69
1, 163176, Note_on_c, 0, 90, 41
1, 163182, Control_c, 0, 64, 78
1, 163196, Note_on_c, 0, 50, 29
1, 163197, Control_c, 0, 64, 99
1, 163212, Control_c, 0, 64, 127
1, 163262, Note_off_c, 0, 42, 36
1, 163263, Note_off_c, 0, 81, 40
1, 163312, Note_off_c, 0, 50, 50
1, 163322, Note_on_c, 0, 93, 52
1, 163356, Note_on_c, 0, 54, 36
1, 163392, Note_off_c, 0, 54, 53
1, 163434, Note_off_c, 0, 86, 34
1, 163481, Note_on_c, 0, 57, 39
1, 163521, Note_off_c, 0, 57, 59
1, 163586, Note_on_c, 0, 62, 23
1, 163611, Note_on_c, 0, 66, 52
1, 163626, Note_off_c, 0, 62, 49
1, 163655, Note_off_c, 0, 66, 61
1, 163689, Note_on_c, 0, 69, 48
1, 163727, Note_off_c, 0, 69, 57
1, 163775, Note_on_c, 0, 66, 42
1, 163809, Note_off_c, 0, 66, 54
1, 163824, Note_off_c, 0, 93, 32
1, 163842, Note_on_c, 0, 62, 43
1, 163843, Note_off_c, 0, 90, 7
1, 163883, Note_off_c, 0, 62, 61
1, 163958, Poly_aftertouch_c, 0, 57, 127
1, 163990, Poly_aftertouch_c, 0, 57, 0
1, 164037, Note_on_c, 0, 54, 34
1, 164070, Note_off_c, 0, 54, 54
1, 164097, Note_on_c, 0, 50, 42
1, 164139, Note_off_c, 0, 50, 59
1, 164185, Note_on_c, 0, 42, 35
1, 164268, Note_on_c, 0, 78, 42
1, 164305, Note_on_c, 0, 86, 52
1, 164320, Note_off_c, 0, 78, 49
1, 164371, Note_on_c, 0, 50, 35
1, 164382, Note_on_c, 0, 90, 62
1, 164383, Note_off_c, 0, 42, 41
1, 164405, Note_off_c, 0, 86, 53
1, 164425, Note_off_c, 0, 50, 60
1, 164490, Note_on_c, 0, 54, 30
1, 164529, Note_off_c, 0, 54, 52
1, 164603, Note_on_c, 0, 57, 42
1, 164619, Note_off_c, 0, 90, 24
1, 164648, Note_off_c, 0, 57, 56
1, 164678, Note_on_c, 0, 62, 39
1, 164716, Note_on_c, 0, 66, 53
1, 164718, Note_off_c, 0, 62, 57
1, 164761, Note_off_c, 0, 66, 59
1, 164782, Note_on_c, 0, 69, 52
1, 164817, Note_on_c, 0, 81, 63
1, 164830, Note_off_c, 0, 69, 59
1, 164856, Note_on_c, 0, 86, 58
1, 164878, Note_on_c, 0, 66, 42
1, 164887, Note_on_c, 0, 90, 76
1, 164887, Note_off_c, 0, 81, 55
1, 164898, Note_off_c, 0, 86, 59
1, 164934, Note_on_c, 0, 93, 83
1, 164937, Note_off_c, 0, 66, 53
1, 164943, Note_off_c, 0, 90, 65
1, 164977, Note_on_c, 0, 62, 36
1, 165023, Note_off_c, 0, 62, 58
1, 165023, Note_off_c, 0, 93, 65
1, 165059, Note_on_c, 0, 57, 39
1, 165100, Note_off_c, 0, 57, 50
1, 165195, Note_on_c, 0, 54, 44
1, 165223, Note_off_c, 0, 54, 61
1, 165251, Note_on_c, 0, 50, 50
1, 165298, Note_off_c, 0, 50, 58
1, 165334, Note_on_c, 0, 42, 46
1, 165365, Note_on_c, 0, 78, 55
1, 165411, Note_on_c, 0, 81, 63
1, 165441, Note_off_c, 0, 78, 55
1, 165462, Note_on_c, 0, 86, 70
1, 165495, Note_off_c, 0, 81, 59
1, 165510, Note_on_c, 0, 50, 37
1, 165516, Note_on_c, 0, 90, 79
1, 165516, Note_off_c, 0, 42, 35
1, 165573, Note_off_c, 0, 50, 61
1, 165621, Note_on_c, 0, 54, 42
1, 165647, Note_off_c, 0, 54, 58
1, 165692, Note_off_c, 0, 86, 26
1, 165732, Note_on_c, 0, 57, 45
1, 165772, Note_off_c, 0, 57, 65
1, 165796, Note_on_c, 0, 62, 53
1, 165850, Note_off_c, 0, 62, 56
1, 165863, Note_on_c, 0, 66, 57
1, 165903, Note_off_c, 0, 66, 62
1, 165927, Note_on_c, 0, 69, 61
1, 165971, Note_off_c, 0, 69, 58
1, 165993, Note_on_c, 0, 66, 60
1, 166012, Note_off_c, 0, 90, 37
1, 166064, Note_off_c, 0, 66, 57
1, 166068, Note_on_c, 0, 62, 52
1, 166113, Note_off_c, 0, 62, 62
1, 166136, Note_on_c, 0, 57, 47
1, 166165, Note_off_c, 0, 57, 56
1, 166236, Note_on_c, 0, 54, 52
1, 166271, Note_off_c, 0, 54, 65
1, 166299, Note_on_c, 0, 50, 51
1, 166349, Note_off_c, 0, 50, 56
1, 166389, Note_on_c, 0, 42, 36
1, 166419, Note_on_c, 0, 74, 50
1, 166472, Note_on_c, 0, 78, 54
1, 166512, Note_on_c, 0, 81, 58
1, 166513, Note_off_c, 0, 74, 57
1, 166544, Note_off_c, 0, 78, 45
1, 166553, Note_on_c, 0, 50, 29
1, 166553, Note_off_c, 0, 42, 33
1, 166555, Note_on_c, 0, 86, 67
1, 166583, Note_off_c, 0, 81, 61
1, 166607, Note_off_c, 0, 50, 61
1, 166643, Note_off_c, 0, 86, 61
1, 166662, Note_on_c, 0, 54, 41
1, 166693, Note_off_c, 0, 54, 54
1, 166770, Note_on_c, 0, 57, 52
1, 166811, Note_off_c, 0, 57, 62
1, 166839, Note_on_c, 0, 62, 52
1, 166880, Note_off_c, 0, 62, 60
1, 166890, Note_on_c, 0, 66, 57
1, 166931, Note_off_c, 0, 66, 62
1, 166948, Note_on_c, 0, 69, 58
1, 166964, Note_on_c, 0, 78, 62
1, 166989, Note_on_c, 0, 81, 71
1, 167005, Note_off_c, 0, 69, 56
1, 167020, Note_off_c, 0, 78, 53
1, 167036, Note_on_c, 0, 86, 76
1, 167044, Note_on_c, 0, 66, 48
1, 167054, Note_off_c, 0, 81, 62
1, 167083, Note_on_c, 0, 90, 84
1, 167096, Note_off_c, 0, 66, 50
1, 167101, Note_off_c, 0, 86, 63
1, 167125, Note_on_c, 0, 62, 51
1, 167188, Note_off_c, 0, 62, 59
1, 167205, Note_on_c, 0, 57, 53
1, 167218, Note_off_c, 0, 90, 58
1, 167233, Note_off_c, 0, 57, 64
1, 167334, Note_on_c, 0, 54, 58
1, 167379, Note_off_c, 0, 54, 61
1, 167403, Note_on_c, 0, 50, 60
1, 167478, Note_off_c, 0, 50, 59
1, 167495, Note_on_c, 0, 42, 53
1, 167521, Note_on_c, 0, 81, 67
1, 167578, Note_on_c, 0, 86, 76
1, 167645, Note_on_c, 0, 93, 87
1, 167651, Note_on_c, 0, 50, 36
1, 167698, Note_off_c, 0, 42, 36
1, 167729, Note_off_c, 0, 50, 62
1, 167765, Note_on_c, 0, 54, 49
1, 167792, Note_off_c, 0, 54, 58
1, 167878, Note_on_c, 0, 57, 52
1, 167946, Note_off_c, 0, 57, 59
1, 167952, Note_on_c, 0, 62, 60
1, 168014, Note_on_c, 0, 66, 65
1, 168037, Note_off_c, 0, 62, 54
1, 168091, Note_off_c, 0, 66, 61
1, 168097, Note_on_c, 0, 69, 70
1, 168101, Note_off_c, 0, 81, 36
1, 168175, Note_off_c, 0, 69, 63
1, 168177, Note_off_c, 0, 93, 53
1, 168178, Note_on_c, 0, 66, 66
1, 168270, Note_on_c, 0, 62, 63
1, 168279, Note_off_c, 0, 86, 36
1, 168292, Note_off_c, 0, 66, 59
1, 168361, Note_on_c, 0, 57, 67
1, 168364, Note_off_c, 0, 62, 62
1, 168394, Note_off_c, 0, 57, 67
1, 168507, Note_on_c, 0, 54, 71
1, 168649, Note_off_c, 0, 54, 62
1, 168657, Note_on_c, 0, 50, 59
1, 168720, Control_c, 0, 67, 122
1, 168735, Control_c, 0, 67, 118
1, 168750, Control_c, 0, 67, 113
1, 168765, Control_c, 0, 67, 109
1, 168780, Control_c, 0, 67, 105
1, 168794, Control_c, 0, 67, 102
1, 168816, Control_c, 0, 67, 99
1, 168920, Control_c, 0, 67, 100
1, 168943, Note_on_c, 0, 41, 46
1, 168965, Control_c, 0, 67, 100
1, 169006, Note_on_c, 0, 94, 85
1, 169009, Note_on_c, 0, 86, 61
1, 169020, Note_on_c, 0, 82, 67
1, 169024, Control_c, 0, 64, 117
1, 169024, Control_c, 0, 67, 101
1, 169039, Control_c, 0, 64, 97
1, 169051, Note_off_c, 0, 50, 30
1, 169054, Control_c, 0, 64, 84
1, 169069, Control_c, 0, 64, 73
1, 169084, Control_c, 0, 64, 66
1, 169084, Control_c, 0, 67, 102
1, 169099, Control_c, 0, 64, 59
1, 169114, Control_c, 0, 64, 50
1, 169114, Control_c, 0, 67, 102
1, 169128, Control_c, 0, 64, 39
1, 169128, Control_c, 0, 67, 103
1, 169143, Control_c, 0, 64, 0
1, 169261, Note_on_c, 0, 50, 43
1, 169261, Control_c, 0, 64, 40
1, 169276, Control_c, 0, 64, 57
1, 169280, Note_off_c, 0, 41, 50
1, 169291, Control_c, 0, 64, 66
1, 169291, Control_c, 0, 67, 103
1, 169306, Control_c, 0, 64, 74
1, 169321, Control_c, 0, 64, 96
1, 169335, Control_c, 0, 64, 127
1, 169365, Note_off_c, 0, 50, 63
1, 169384, Note_on_c, 0, 53, 54
1, 169409, Control_c, 0, 67, 104
1, 169414, Note_off_c, 0, 53, 64
1, 169453, Control_c, 0, 67, 105
1, 169508, Note_on_c, 0, 58, 63
1, 169599, Note_off_c, 0, 58, 57
1, 169608, Note_on_c, 0, 62, 53
1, 169668, Note_on_c, 0, 65, 63
1, 169671, Note_off_c, 0, 62, 54
1, 169737, Note_off_c, 0, 65, 61
1, 169748, Note_on_c, 0, 70, 62
1, 169802, Note_off_c, 0, 70, 57
1, 169814, Note_on_c, 0, 65, 54
1, 169884, Note_on_c, 0, 62, 63
1, 169890, Note_off_c, 0, 65, 60
1, 169922, Note_off_c, 0, 62, 60
1, 169949, Note_on_c, 0, 58, 55
1, 169978, Note_off_c, 0, 58, 64
1, 170044, Note_on_c, 0, 53, 62
1, 170055, Control_c, 0, 67, 104
1, 170091, Note_off_c, 0, 53, 59
1, 170124, Note_on_c, 0, 50, 55
1, 170169, Note_off_c, 0, 50, 60
1, 170199, Note_on_c, 0, 41, 58
1, 170203, Note_off_c, 0, 82, 57
1, 170291, Note_off_c, 0, 86, 55
1, 170320, Note_on_c, 0, 50, 41
1, 170324, Note_off_c, 0, 41, 61
1, 170376, Note_off_c, 0, 50, 63
1, 170412, Note_on_c, 0, 53, 46
1, 170443, Note_off_c, 0, 53, 53
1, 170448, Control_c, 0, 67, 105
1, 170452, Note_off_c, 0, 94, 57
1, 170543, Note_on_c, 0, 58, 57
1, 170616, Note_off_c, 0, 58, 53
1, 170618, Note_on_c, 0, 62, 55
1, 170686, Control_c, 0, 67, 104
1, 170688, Note_on_c, 0, 65, 59
1, 170701, Control_c, 0, 67, 103
1, 170703, Note_off_c, 0, 62, 53
1, 170775, Note_off_c, 0, 65, 58
1, 170775, Control_c, 0, 67, 103
1, 170798, Note_on_c, 0, 98, 81
1, 170804, Control_c, 0, 67, 102
1, 170807, Note_on_c, 0, 70, 47
1, 170813, Note_on_c, 0, 89, 63
1, 170816, Note_on_c, 0, 86, 69
1, 170864, Note_off_c, 0, 70, 55
1, 170878, Control_c, 0, 67, 102
1, 170906, Note_on_c, 0, 65, 55
1, 170979, Note_on_c, 0, 62, 51
1, 170983, Note_off_c, 0, 65, 58
1, 171001, Note_off_c, 0, 98, 58
1, 171016, Note_off_c, 0, 62, 64
1, 171036, Note_off_c, 0, 86, 56
1, 171041, Control_c, 0, 67, 102
1, 171048, Note_on_c, 0, 58, 50
1, 171078, Control_c, 0, 67, 103
1, 171079, Note_off_c, 0, 58, 62
1, 171103, Note_off_c, 0, 89, 62
1, 171108, Control_c, 0, 67, 103
1, 171146, Note_on_c, 0, 53, 62
1, 171182, Control_c, 0, 67, 104
1, 171188, Note_off_c, 0, 53, 63
1, 171216, Note_on_c, 0, 50, 61
1, 171269, Note_off_c, 0, 50, 60
1, 171290, Note_on_c, 0, 41, 54
1, 171296, Note_on_c, 0, 94, 93
1, 171308, Note_on_c, 0, 82, 79
1, 171315, Note_on_c, 0, 86, 72
1, 171368, Note_off_c, 0, 41, 62
1, 171391, Control_c, 0, 67, 105
1, 171391, Note_on_c, 0, 50, 56
1, 171406, Control_c, 0, 67, 105
1, 171431, Note_off_c, 0, 50, 63
1, 171450, Note_on_c, 0, 53, 62
1, 171450, Control_c, 0, 67, 106
1, 171465, Control_c, 0, 67, 107
1, 171480, Control_c, 0, 67, 107
1, 171481, Note_off_c, 0, 53, 65
1, 171494, Control_c, 0, 67, 108
1, 171500, Note_off_c, 0, 94, 63
1, 171509, Control_c, 0, 67, 109
1, 171524, Control_c, 0, 67, 109
1, 171538, Control_c, 0, 67, 110
1, 171543, Note_off_c, 0, 86, 62
1, 171553, Control_c, 0, 67, 110
1, 171568, Control_c, 0, 67, 111
1, 171576, Note_on_c, 0, 58, 59
1, 171583, Control_c, 0, 67, 112
1, 171588, Note_off_c, 0, 82, 62
1, 171598, Control_c, 0, 67, 112
1, 171634, Note_on_c, 0, 62, 64
1, 171635, Note_off_c, 0, 58, 51
1, 171693, Note_on_c, 0, 65, 70
1, 171716, Control_c, 0, 67, 113
1, 171719, Note_off_c, 0, 62, 57
1, 171775, Note_off_c, 0, 65, 60
1, 171782, Note_on_c, 0, 89, 92
1, 171790, Note_on_c, 0, 70, 64
1, 171790, Note_on_c, 0, 86, 77
1, 171796, Note_on_c, 0, 77, 79
1, 171862, Note_off_c, 0, 70, 61
1, 171880, Note_on_c, 0, 65, 63
1, 171945, Note_off_c, 0, 65, 58
1, 171946, Note_on_c, 0, 62, 66
1, 171957, Note_off_c, 0, 77, 59
1, 171990, Control_c, 0, 67, 114
1, 171996, Note_off_c, 0, 62, 61
1, 172011, Note_on_c, 0, 58, 60
1, 172020, Control_c, 0, 67, 115
1, 172035, Control_c, 0, 67, 115
1, 172041, Note_off_c, 0, 58, 65
1, 172050, Control_c, 0, 67, 116
1, 172056, Note_off_c, 0, 89, 58
1, 172059, Note_off_c, 0, 86, 59
1, 172064, Control_c, 0, 67, 117
1, 172079, Control_c, 0, 67, 117
1, 172094, Control_c, 0, 67, 119
1, 172109, Control_c, 0, 67, 120
1, 172121, Note_on_c, 0, 53, 61
1, 172124, Control_c, 0, 67, 120
1, 172138, Control_c, 0, 67, 121
1, 172153, Control_c, 0, 67, 122
1, 172168, Control_c, 0, 67, 122
1, 172177, Note_off_c, 0, 53, 62
1, 172184, Note_on_c, 0, 50, 71
1, 172279, Note_off_c, 0, 50, 62
1, 172279, Note_on_c, 0, 41, 59
1, 172286, Control_c, 0, 67, 123
1, 172329, Note_on_c, 0, 94, 94
1, 172337, Note_on_c, 0, 86, 72
1, 172341, Note_on_c, 0, 82, 78
1, 172360, Control_c, 0, 64, 92
1, 172375, Control_c, 0, 64, 72
1, 172390, Control_c, 0, 64, 61
1, 172405, Control_c, 0, 64, 53
1, 172420, Control_c, 0, 64, 59
1, 172431, Note_on_c, 0, 50, 53
1, 172434, Control_c, 0, 64, 63
1, 172449, Control_c, 0, 64, 69
1, 172459, Note_off_c, 0, 41, 62
1, 172464, Control_c, 0, 64, 83
1, 172479, Control_c, 0, 64, 127
1, 172509, Note_off_c, 0, 50, 63
1, 172527, Note_on_c, 0, 53, 55
1, 172557, Note_off_c, 0, 53, 60
1, 172590, Control_c, 0, 67, 122
1, 172634, Control_c, 0, 67, 122
1, 172643, Note_on_c, 0, 58, 67
1, 172649, Control_c, 0, 67, 121
1, 172664, Control_c, 0, 67, 120
1, 172694, Control_c, 0, 67, 119
1, 172717, Note_on_c, 0, 62, 67
1, 172723, Control_c, 0, 67, 119
1, 172726, Note_off_c, 0, 58, 59
1, 172779, Note_on_c, 0, 65, 73
1, 172812, Note_off_c, 0, 62, 58
1, 172813, Control_c, 0, 67, 118
1, 172828, Control_c, 0, 67, 117
1, 172861, Note_on_c, 0, 70, 78
1, 172862, Note_off_c, 0, 65, 61
1, 172934, Note_off_c, 0, 70, 63
1, 172938, Note_on_c, 0, 65, 61
1, 172952, Note_off_c, 0, 94, 55
1, 172997, Note_on_c, 0, 62, 70
1, 173018, Note_off_c, 0, 65, 62
1, 173020, Control_c, 0, 67, 117
1, 173035, Control_c, 0, 67, 116
1, 173057, Note_off_c, 0, 62, 63
1, 173065, Note_on_c, 0, 58, 65
1, 173075, Note_off_c, 0, 86, 52
1, 173093, Note_off_c, 0, 58, 65
1, 173123, Control_c, 0, 67, 117
1, 173138, Control_c, 0, 67, 117
1, 173145, Note_off_c, 0, 82, 40
1, 173168, Control_c, 0, 67, 118
1, 173176, Note_on_c, 0, 53, 54
1, 173182, Control_c, 0, 67, 119
1, 173183, Note_on_c, 0, 55, 25
1, 173218, Note_off_c, 0, 53, 60
1, 173222, Note_off_c, 0, 55, 53
1, 173229, Note_on_c, 0, 50, 66
1, 173308, Control_c, 0, 67, 119
1, 173323, Control_c, 0, 67, 120
1, 173324, Note_off_c, 0, 50, 58
1, 173335, Note_on_c, 0, 41, 55
1, 173338, Control_c, 0, 67, 121
1, 173353, Control_c, 0, 67, 122
1, 173368, Control_c, 0, 67, 124
1, 173375, Note_on_c, 0, 93, 87
1, 173376, Note_on_c, 0, 86, 65
1, 173382, Control_c, 0, 67, 125
1, 173385, Note_on_c, 0, 81, 73
1, 173397, Control_c, 0, 64, 99
1, 173397, Control_c, 0, 67, 127
1, 173412, Control_c, 0, 64, 75
1, 173427, Control_c, 0, 64, 57
1, 173442, Control_c, 0, 64, 0
1, 173462, Note_on_c, 0, 50, 55
1, 173509, Note_off_c, 0, 41, 62
1, 173516, Control_c, 0, 64, 52
1, 173531, Control_c, 0, 64, 69
1, 173546, Control_c, 0, 64, 98
1, 173548, Note_off_c, 0, 50, 64
1, 173555, Note_on_c, 0, 53, 65
1, 173561, Control_c, 0, 64, 127
1, 173581, Note_off_c, 0, 53, 66
1, 173672, Note_on_c, 0, 58, 67
1, 173714, Note_off_c, 0, 81, 62
1, 173752, Note_on_c, 0, 62, 64
1, 173777, Note_off_c, 0, 58, 57
1, 173820, Note_on_c, 0, 65, 63
1, 173917, Note_off_c, 0, 62, 32
1, 173927, Note_on_c, 0, 92, 89
1, 173944, Note_on_c, 0, 80, 71
1, 173960, Note_on_c, 0, 68, 55
1, 173989, Note_off_c, 0, 93, 58
1, 173996, Note_off_c, 0, 65, 48
1, 174154, Note_off_c, 0, 68, 47
1, 174283, Note_off_c, 0, 92, 62
1, 174367, Note_off_c, 0, 86, 62
1, 174643, Note_off_c, 0, 80, 62
1, 174686, Note_on_c, 0, 39, 43
1, 174738, Note_on_c, 0, 91, 74
1, 174744, Note_on_c, 0, 82, 50
1, 174751, Note_on_c, 0, 79, 60
1, 174769, Control_c, 0, 64, 98
1, 174784, Control_c, 0, 64, 84
1, 174807, Control_c, 0, 64, 72
1, 174822, Control_c, 0, 64, 62
1, 174836, Control_c, 0, 64, 40
1, 174851, Control_c, 0, 64, 23
1, 174866, Control_c, 0, 64, 21
1, 174880, Control_c, 0, 64, 19
1, 174895, Control_c, 0, 64, 22
1, 174910, Control_c, 0, 64, 38
1, 174925, Control_c, 0, 64, 55
1, 174940, Control_c, 0, 64, 66
1, 174954, Control_c, 0, 64, 77
1, 174969, Control_c, 0, 64, 105
1, 174984, Control_c, 0, 64, 127
1, 174993, Note_off_c, 0, 39, 57
1, 175030, Note_on_c, 0, 46, 41
1, 175123, Note_off_c, 0, 46, 61
1, 175135, Note_on_c, 0, 51, 54
1, 175181, Note_off_c, 0, 51, 62
1, 175209, Note_on_c, 0, 55, 55
1, 175246, Note_off_c, 0, 55, 63
1, 175291, Note_on_c, 0, 58, 65
1, 175341, Note_off_c, 0, 58, 52
1, 175364, Note_on_c, 0, 63, 63
1, 175366, Note_off_c, 0, 91, 33
1, 175379, Note_off_c, 0, 79, 30
1, 175424, Note_off_c, 0, 63, 62
1, 175442, Note_on_c, 0, 67, 65
1, 175510, Note_off_c, 0, 67, 58
1, 175540, Note_on_c, 0, 63, 62
1, 175596, Note_off_c, 0, 63, 57
1, 175612, Note_on_c, 0, 58, 56
1, 175648, Note_off_c, 0, 58, 64
1, 175674, Note_off_c, 0, 82, 34
1, 175697, Note_on_c, 0, 55, 63
1, 175788, Note_off_c, 0, 55, 56
1, 175811, Note_on_c, 0, 51, 61
1, 175904, Note_off_c, 0, 51, 59
1, 175926, Note_on_c, 0, 46, 51
1, 176157, Note_on_c, 0, 39, 38
1, 176178, Control_c, 0, 64, 108
1, 176193, Control_c, 0, 64, 100
1, 176208, Control_c, 0, 64, 94
1, 176223, Control_c, 0, 64, 90
1, 176227, Note_off_c, 0, 46, 31
1, 176233, Note_on_c, 0, 78, 52
1, 176238, Control_c, 0, 64, 84
1, 176253, Control_c, 0, 64, 79
1, 176268, Control_c, 0, 64, 73
1, 176282, Control_c, 0, 64, 68
1, 176304, Control_c, 0, 64, 62
1, 176319, Control_c, 0, 64, 54
1, 176333, Control_c, 0, 64, 44
1, 176348, Control_c, 0, 64, 40
1, 176363, Control_c, 0, 64, 41
1, 176378, Control_c, 0, 64, 45
1, 176384, Note_on_c, 0, 82, 55
1, 176393, Control_c, 0, 64, 52
1, 176408, Control_c, 0, 64, 59
1, 176423, Control_c, 0, 64, 67
1, 176438, Control_c, 0, 64, 76
1, 176452, Control_c, 0, 64, 99
1, 176461, Note_off_c, 0, 39, 45
1, 176467, Control_c, 0, 64, 127
1, 176501, Note_on_c, 0, 46, 39
1, 176506, Note_on_c, 0, 90, 64
1, 176601, Note_off_c, 0, 46, 57
1, 176624, Note_on_c, 0, 51, 43
1, 176654, Note_off_c, 0, 51, 58
1, 176691, Note_on_c, 0, 54, 46
1, 176718, Note_off_c, 0, 54, 61
1, 176786, Note_on_c, 0, 58, 44
1, 176822, Note_off_c, 0, 58, 60
1, 176869, Note_on_c, 0, 63, 40
1, 176897, Note_off_c, 0, 63, 57
1, 176934, Note_on_c, 0, 66, 48
1, 176983, Note_off_c, 0, 66, 58
1, 177015, Note_on_c, 0, 63, 42
1, 177080, Note_off_c, 0, 63, 62
1, 177118, Note_on_c, 0, 58, 43
1, 177146, Note_off_c, 0, 58, 55
1, 177210, Note_on_c, 0, 54, 35
1, 177263, Note_off_c, 0, 54, 47
1, 177309, Note_on_c, 0, 51, 45
1, 177359, Note_off_c, 0, 51, 58
1, 177380, Note_on_c, 0, 46, 51
1, 177489, Note_off_c, 0, 46, 53
1, 177503, Note_on_c, 0, 39, 48
1, 177572, Note_off_c, 0, 39, 55
1, 177644, Note_on_c, 0, 46, 45
1, 177710, Note_off_c, 0, 46, 61
1, 177735, Note_on_c, 0, 51, 47
1, 177771, Note_off_c, 0, 51, 65
1, 177806, Note_off_c, 0, 90, 29
1, 177812, Note_on_c, 0, 54, 52
1, 177854, Note_off_c, 0, 54, 61
1, 177878, Note_off_c, 0, 82, 24
1, 177918, Note_on_c, 0, 58, 58
1, 177980, Note_off_c, 0, 58, 48
1, 178006, Note_on_c, 0, 63, 55
1, 178084, Note_off_c, 0, 78, 42
1, 178207, Note_on_c, 0, 66, 42
1, 178213, Note_on_c, 0, 89, 77
1, 178238, Note_on_c, 0, 77, 58
1, 178583, Note_off_c, 0, 63, 30
1, 178593, Note_off_c, 0, 77, 58
1, 178754, Note_off_c, 0, 66, 31
1, 178957, Note_on_c, 0, 90, 73
1, 178981, Note_on_c, 0, 78, 53
1, 179618, Note_off_c, 0, 89, 29
1, 179763, Note_off_c, 0, 78, 36
1, 180301, Note_off_c, 0, 90, 35
1, 180707, Note_on_c, 0, 89, 50
1, 180751, Note_on_c, 0, 77, 36
1, 180934, Note_off_c, 0, 77, 39
1, 181144, Note_on_c, 0, 39, 33
1, 181228, Control_c, 0, 64, 107
1, 181243, Control_c, 0, 64, 91
1, 181258, Control_c, 0, 64, 76
1, 181266, Note_on_c, 0, 77, 40
1, 181267, Note_off_c, 0, 89, 17
1, 181272, Control_c, 0, 64, 65
1, 181287, Control_c, 0, 64, 53
1, 181302, Control_c, 0, 64, 42
1, 181316, Control_c, 0, 64, 46
1, 181331, Control_c, 0, 64, 53
1, 181346, Control_c, 0, 64, 59
1, 181361, Control_c, 0, 64, 65
1, 181376, Control_c, 0, 64, 73
1, 181379, Note_on_c, 0, 81, 37
1, 181390, Control_c, 0, 64, 88
1, 181405, Control_c, 0, 64, 127
1, 181410, Note_off_c, 0, 39, 41
1, 181520, Note_on_c, 0, 89, 58
1, 181565, Note_on_c, 0, 49, 28
1, 181623, Note_off_c, 0, 77, 40
1, 181686, Note_off_c, 0, 49, 52
1, 181704, Note_on_c, 0, 54, 31
1, 181739, Note_off_c, 0, 54, 51
1, 181781, Note_off_c, 0, 81, 43
1, 181961, Note_off_c, 0, 89, 49
1, 181976, Note_on_c, 0, 66, 47
1, 182057, Note_off_c, 0, 66, 50
1, 182059, Note_on_c, 0, 69, 44
1, 182125, Note_on_c, 0, 87, 57
1, 182143, Note_on_c, 0, 75, 41
1, 182199, Note_off_c, 0, 69, 35
1, 182221, Note_on_c, 0, 66, 39
1, 182228, Note_off_c, 0, 75, 56
1, 182305, Note_off_c, 0, 66, 53
1, 182334, Note_on_c, 0, 61, 38
1, 182397, Note_on_c, 0, 89, 72
1, 182426, Note_on_c, 0, 77, 50
1, 182443, Note_on_c, 0, 57, 42
1, 182459, Note_off_c, 0, 61, 53
1, 182479, Note_off_c, 0, 77, 61
1, 182485, Note_off_c, 0, 89, 61
1, 182486, Note_off_c, 0, 57, 64
1, 182498, Note_off_c, 0, 87, 28
1, 182585, Note_on_c, 0, 87, 78
1, 182602, Note_on_c, 0, 54, 34
1, 182605, Note_on_c, 0, 75, 59
1, 182636, Note_off_c, 0, 54, 52
1, 182660, Note_on_c, 0, 49, 44
1, 182665, Note_off_c, 0, 75, 59
1, 182671, Note_off_c, 0, 87, 62
1, 182711, Note_off_c, 0, 49, 56
1, 182735, Note_on_c, 0, 42, 46
1, 182754, Control_c, 0, 64, 89
1, 182769, Control_c, 0, 64, 69
1, 182781, Note_on_c, 0, 85, 68
1, 182784, Control_c, 0, 64, 51
1, 182799, Control_c, 0, 64, 15
1, 182808, Note_on_c, 0, 73, 49
1, 182814, Control_c, 0, 64, 26
1, 182819, Note_on_c, 0, 82, 47
1, 182829, Control_c, 0, 64, 39
1, 182843, Control_c, 0, 64, 56
1, 182854, Note_on_c, 0, 49, 42
1, 182858, Control_c, 0, 64, 66
1, 182873, Control_c, 0, 64, 77
1, 182876, Note_off_c, 0, 42, 58
1, 182888, Control_c, 0, 64, 112
1, 182903, Control_c, 0, 64, 127
1, 182915, Note_off_c, 0, 49, 61
1, 182921, Note_off_c, 0, 73, 51
1, 182933, Note_on_c, 0, 54, 48
1, 182960, Note_off_c, 0, 54, 57
1, 183055, Note_on_c, 0, 58, 58
1, 183107, Note_off_c, 0, 58, 55
1, 183133, Note_on_c, 0, 61, 51
1, 183204, Note_on_c, 0, 66, 56
1, 183219, Note_off_c, 0, 61, 51
1, 183281, Note_off_c, 0, 66, 60
1, 183303, Note_on_c, 0, 70, 51
1, 183305, Note_on_c, 0, 90, 73
1, 183320, Note_on_c, 0, 78, 59
1, 183351, Note_off_c, 0, 70, 58
1, 183391, Note_on_c, 0, 66, 53
1, 183402, Note_off_c, 0, 85, 51
1, 183444, Note_off_c, 0, 66, 56
1, 183463, Note_off_c, 0, 82, 40
1, 183465, Note_on_c, 0, 61, 54
1, 183536, Note_off_c, 0, 61, 62
1, 183610, Poly_aftertouch_c, 0, 58, 0
1, 183645, Note_on_c, 0, 54, 59
1, 183674, Note_off_c, 0, 54, 65
1, 183702, Note_off_c, 0, 90, 56
1, 183727, Note_on_c, 0, 49, 55
1, 183771, Note_off_c, 0, 78, 59
1, 183843, Note_off_c, 0, 49, 56
1, 183855, Note_on_c, 0, 39, 62
1, 183880, Control_c, 0, 64, 94
1, 183895, Control_c, 0, 64, 72
1, 183907, Note_on_c, 0, 89, 72
1, 183910, Control_c, 0, 64, 58
1, 183923, Note_on_c, 0, 81, 48
1, 183924, Control_c, 0, 64, 25
1, 183929, Note_on_c, 0, 77, 53
1, 183939, Control_c, 0, 64, 11
1, 183954, Control_c, 0, 64, 19
1, 183969, Control_c, 0, 64, 41
1, 183984, Control_c, 0, 64, 57
1, 183998, Control_c, 0, 64, 67
1, 184013, Control_c, 0, 64, 80
1, 184020, Note_off_c, 0, 39, 61
1, 184028, Control_c, 0, 64, 127
1, 184059, Note_on_c, 0, 49, 49
1, 184107, Note_off_c, 0, 49, 62
1, 184124, Note_on_c, 0, 54, 52
1, 184151, Note_off_c, 0, 54, 60
1, 184155, Note_off_c, 0, 77, 56
1, 184237, Note_on_c, 0, 57, 61
1, 184245, Note_off_c, 0, 89, 57
1, 184306, Note_off_c, 0, 57, 60
1, 184316, Note_on_c, 0, 61, 61
1, 184385, Note_on_c, 0, 66, 57
1, 184419, Note_off_c, 0, 61, 51
1, 184481, Note_on_c, 0, 87, 62
1, 184490, Note_on_c, 0, 69, 47
1, 184496, Note_off_c, 0, 66, 56
1, 184497, Note_on_c, 0, 75, 49
1, 184536, Note_off_c, 0, 81, 63
1, 184596, Note_off_c, 0, 69, 58
1, 184599, Note_off_c, 0, 75, 60
1, 184620, Note_on_c, 0, 66, 60
1, 184714, Note_on_c, 0, 61, 47
1, 184719, Note_off_c, 0, 66, 49
1, 184724, Note_on_c, 0, 89, 81
1, 184748, Note_on_c, 0, 77, 60
1, 184799, Note_on_c, 0, 57, 63
1, 184811, Note_off_c, 0, 89, 60
1, 184813, Note_off_c, 0, 77, 62
1, 184817, Note_off_c, 0, 61, 61
1, 184823, Note_off_c, 0, 87, 53
1, 184835, Note_off_c, 0, 57, 65
1, 184909, Note_on_c, 0, 87, 89
1, 184922, Note_on_c, 0, 75, 73
1, 184933, Note_on_c, 0, 54, 52
1, 184975, Note_off_c, 0, 54, 61
1, 185003, Note_on_c, 0, 49, 52
1, 185007, Note_off_c, 0, 75, 60
1, 185013, Note_off_c, 0, 87, 62
1, 185044, Note_off_c, 0, 49, 60
1, 185067, Note_on_c, 0, 42, 57
1, 185089, Control_c, 0, 64, 98
1, 185104, Control_c, 0, 64, 72
1, 185106, Note_on_c, 0, 85, 78
1, 185118, Control_c, 0, 64, 52
1, 185132, Note_on_c, 0, 73, 62
1, 185133, Control_c, 0, 64, 0
1, 185136, Note_on_c, 0, 82, 61
1, 185163, Control_c, 0, 64, 30
1, 185172, Note_on_c, 0, 49, 42
1, 185178, Control_c, 0, 64, 54
1, 185193, Control_c, 0, 64, 66
1, 185207, Control_c, 0, 64, 81
1, 185213, Note_off_c, 0, 42, 60
1, 185222, Control_c, 0, 64, 127
1, 185252, Note_off_c, 0, 49, 62
1, 185256, Note_on_c, 0, 54, 57
1, 185267, Note_off_c, 0, 73, 53
1, 185294, Note_off_c, 0, 54, 65
1, 185380, Note_on_c, 0, 58, 57
1, 185452, Note_off_c, 0, 58, 57
1, 185453, Note_on_c, 0, 61, 56
1, 185532, Note_on_c, 0, 66, 60
1, 185565, Note_off_c, 0, 61, 52
1, 185607, Note_off_c, 0, 66, 61
1, 185636, Note_on_c, 0, 70, 51
1, 185637, Note_on_c, 0, 90, 73
1, 185653, Note_on_c, 0, 78, 57
1, 185690, Note_off_c, 0, 70, 57
1, 185725, Note_on_c, 0, 66, 60
1, 185790, Note_off_c, 0, 66, 60
1, 185795, Note_off_c, 0, 85, 33
1, 185801, Note_on_c, 0, 61, 58
1, 185866, Note_on_c, 0, 58, 59
1, 185874, Note_off_c, 0, 61, 62
1, 185875, Note_off_c, 0, 82, 37
1, 185897, Note_off_c, 0, 58, 66
1, 185974, Note_on_c, 0, 54, 63
1, 186006, Note_off_c, 0, 90, 61
1, 186018, Note_off_c, 0, 54, 60
1, 186057, Note_on_c, 0, 49, 58
1, 186154, Note_off_c, 0, 78, 35
1, 186156, Note_off_c, 0, 49, 56
1, 186157, Note_on_c, 0, 42, 51
1, 186185, Control_c, 0, 64, 106
1, 186200, Control_c, 0, 64, 75
1, 186215, Control_c, 0, 64, 60
1, 186220, Note_on_c, 0, 89, 65
1, 186230, Control_c, 0, 64, 36
1, 186233, Note_on_c, 0, 77, 53
1, 186245, Control_c, 0, 64, 30
1, 186260, Control_c, 0, 64, 38
1, 186275, Control_c, 0, 64, 49
1, 186289, Control_c, 0, 64, 61
1, 186304, Control_c, 0, 64, 69
1, 186319, Control_c, 0, 64, 85
1, 186323, Note_on_c, 0, 51, 59
1, 186329, Note_off_c, 0, 42, 53
1, 186334, Control_c, 0, 64, 127
1, 186384, Note_off_c, 0, 51, 62
1, 186391, Note_on_c, 0, 54, 61
1, 186391, Note_off_c, 0, 77, 62
1, 186397, Note_off_c, 0, 89, 62
1, 186421, Note_off_c, 0, 54, 65
1, 186498, Note_on_c, 0, 87, 86
1, 186513, Note_on_c, 0, 75, 72
1, 186523, Note_on_c, 0, 58, 57
1, 186597, Note_on_c, 0, 63, 61
1, 186598, Note_off_c, 0, 58, 56
1, 186617, Note_off_c, 0, 75, 62
1, 186686, Note_on_c, 0, 66, 61
1, 186691, Note_off_c, 0, 87, 61
1, 186829, Note_off_c, 0, 63, 30
1, 186837, Note_off_c, 0, 66, 58
1, 186850, Note_on_c, 0, 70, 50
1, 186865, Note_on_c, 0, 92, 88
1, 186874, Note_on_c, 0, 89, 67
1, 186879, Note_on_c, 0, 80, 70
1, 186905, Note_off_c, 0, 70, 55
1, 186951, Note_on_c, 0, 66, 57
1, 187031, Note_on_c, 0, 63, 58
1, 187035, Note_off_c, 0, 66, 61
1, 187087, Note_off_c, 0, 63, 60
1, 187102, Note_on_c, 0, 58, 53
1, 187128, Note_off_c, 0, 58, 63
1, 187186, Note_on_c, 0, 54, 69
1, 187230, Note_off_c, 0, 54, 56
1, 187268, Note_on_c, 0, 51, 68
1, 187343, Note_on_c, 0, 44, 80
1, 187344, Note_off_c, 0, 51, 61
1, 187351, Control_c, 0, 64, 94
1, 187366, Control_c, 0, 64, 71
1, 187380, Control_c, 0, 64, 55
1, 187395, Control_c, 0, 64, 0
1, 187439, Control_c, 0, 64, 38
1, 187454, Control_c, 0, 64, 57
1, 187469, Control_c, 0, 64, 69
1, 187474, Note_on_c, 0, 51, 62
1, 187484, Control_c, 0, 64, 86
1, 187492, Note_off_c, 0, 44, 63
1, 187499, Control_c, 0, 64, 127
1, 187510, Note_off_c, 0, 51, 65
1, 187532, Note_on_c, 0, 54, 52
1, 187557, Note_off_c, 0, 54, 58
1, 187613, Note_off_c, 0, 92, 57
1, 187645, Note_on_c, 0, 60, 67
1, 187660, Note_off_c, 0, 80, 45
1, 187687, Note_off_c, 0, 89, 56
1, 187717, Note_off_c, 0, 60, 59
1, 187721, Note_on_c, 0, 63, 59
1, 187777, Note_on_c, 0, 66, 58
1, 187855, Note_on_c, 0, 72, 56
1, 187855, Note_off_c, 0, 66, 60
1, 187880, Note_on_c, 0, 90, 72
1, 187891, Note_on_c, 0, 87, 54
1, 187896, Note_on_c, 0, 78, 56
1, 187897, Note_off_c, 0, 63, 28
1, 187947, Note_off_c, 0, 72, 54
1, 187973, Note_off_c, 0, 78, 63
1, 187987, Note_off_c, 0, 87, 63
1, 187989, Note_on_c, 0, 66, 52
1, 188007, Note_off_c, 0, 90, 64
1, 188075, Note_on_c, 0, 63, 49
1, 188087, Note_on_c, 0, 92, 90
1, 188101, Note_on_c, 0, 80, 72
1, 188105, Note_on_c, 0, 89, 65
1, 188152, Note_off_c, 0, 66, 36
1, 188159, Note_on_c, 0, 60, 57
1, 188162, Note_off_c, 0, 63, 61
1, 188164, Note_off_c, 0, 80, 63
1, 188173, Note_off_c, 0, 89, 63
1, 188174, Note_off_c, 0, 92, 65
1, 188188, Note_off_c, 0, 60, 66
1, 188250, Note_on_c, 0, 90, 94
1, 188264, Note_on_c, 0, 78, 78
1, 188282, Note_on_c, 0, 56, 56
1, 188282, Note_on_c, 0, 87, 69
1, 188325, Note_off_c, 0, 56, 62
1, 188355, Note_on_c, 0, 54, 57
1, 188358, Note_off_c, 0, 87, 63
1, 188364, Note_off_c, 0, 90, 62
1, 188384, Note_off_c, 0, 78, 61
1, 188424, Note_off_c, 0, 54, 54
1, 188432, Note_on_c, 0, 44, 58
1, 188433, Control_c, 0, 64, 90
1, 188448, Control_c, 0, 64, 67
1, 188448, Note_on_c, 0, 89, 84
1, 188461, Note_on_c, 0, 77, 65
1, 188461, Note_on_c, 0, 85, 59
1, 188462, Control_c, 0, 64, 36
1, 188477, Control_c, 0, 64, 0
1, 188522, Control_c, 0, 64, 36
1, 188534, Note_on_c, 0, 53, 59
1, 188536, Control_c, 0, 64, 60
1, 188542, Note_off_c, 0, 44, 63
1, 188551, Control_c, 0, 64, 73
1, 188566, Control_c, 0, 64, 105
1, 188580, Control_c, 0, 64, 127
1, 188586, Note_off_c, 0, 77, 57
1, 188597, Note_off_c, 0, 53, 63
1, 188608, Note_off_c, 0, 89, 62
1, 188609, Note_on_c, 0, 56, 52
1, 188635, Note_off_c, 0, 56, 60
1, 188682, Note_off_c, 0, 85, 60
1, 188716, Note_on_c, 0, 61, 67
1, 188776, Note_on_c, 0, 65, 63
1, 188790, Note_off_c, 0, 61, 55
1, 188832, Note_on_c, 0, 68, 70
1, 188853, Note_on_c, 0, 80, 70
1, 188868, Note_off_c, 0, 65, 57
1, 188896, Note_on_c, 0, 85, 79
1, 188900, Note_off_c, 0, 68, 61
1, 188904, Note_on_c, 0, 73, 68
1, 188921, Note_off_c, 0, 80, 63
1, 188931, Note_on_c, 0, 89, 80
1, 188976, Note_on_c, 0, 92, 97
1, 188978, Note_off_c, 0, 85, 63
1, 188983, Note_off_c, 0, 73, 63
1, 189005, Note_off_c, 0, 89, 64
1, 189009, Note_on_c, 0, 68, 60
1, 189077, Note_on_c, 0, 65, 63
1, 189089, Note_off_c, 0, 68, 58
1, 189130, Note_off_c, 0, 92, 64
1, 189133, Note_off_c, 0, 65, 63
1, 189137, Note_on_c, 0, 61, 66
1, 189165, Note_off_c, 0, 61, 65
1, 189250, Note_on_c, 0, 56, 76
1, 189323, Note_off_c, 0, 56, 62
1, 189329, Note_on_c, 0, 53, 74
1, 189356, Note_on_c, 0, 82, 79
1, 189407, Note_on_c, 0, 85, 86
1, 189431, Note_on_c, 0, 44, 69
1, 189435, Note_off_c, 0, 53, 62
1, 189444, Note_on_c, 0, 89, 83
1, 189476, Note_off_c, 0, 82, 61
1, 189497, Note_on_c, 0, 94, 97
1, 189551, Note_on_c, 0, 53, 64
1, 189552, Note_off_c, 0, 44, 63
1, 189590, Note_off_c, 0, 53, 63
1, 189603, Note_on_c, 0, 56, 64
1, 189605, Note_off_c, 0, 89, 52
1, 189609, Note_off_c, 0, 85, 27
1, 189622, Note_off_c, 0, 56, 67
1, 189714, Note_on_c, 0, 61, 68
1, 189770, Note_on_c, 0, 66, 65
1, 189819, Note_on_c, 0, 65, 63
1, 189829, Note_off_c, 0, 66, 53
1, 189834, Note_off_c, 0, 61, 38
1, 189852, Note_on_c, 0, 68, 72
1, 189886, Note_off_c, 0, 65, 50
1, 189929, Note_on_c, 0, 73, 73
1, 189929, Note_off_c, 0, 68, 61
1, 189931, Note_off_c, 0, 94, 53
1, 190001, Note_on_c, 0, 68, 63
1, 190004, Note_off_c, 0, 73, 64
1, 190071, Note_on_c, 0, 65, 61
1, 190091, Note_off_c, 0, 68, 60
1, 190144, Note_on_c, 0, 92, 82
1, 190147, Note_off_c, 0, 65, 61
1, 190159, Note_on_c, 0, 61, 54
1, 190161, Note_on_c, 0, 80, 56
1, 190189, Note_off_c, 0, 61, 64
1, 190278, Note_on_c, 0, 56, 61
1, 190324, Note_off_c, 0, 92, 65
1, 190332, Note_off_c, 0, 56, 59
1, 190338, Note_off_c, 0, 80, 60
1, 190349, Note_on_c, 0, 54, 66
1, 190379, Note_off_c, 0, 54, 66
1, 190416, Note_on_c, 0, 53, 46
1, 190451, Note_off_c, 0, 53, 59
1, 190461, Note_on_c, 0, 44, 55
1, 190531, Control_c, 0, 64, 91
1, 190534, Note_on_c, 0, 89, 65
1, 190546, Control_c, 0, 64, 75
1, 190548, Note_on_c, 0, 77, 54
1, 190561, Control_c, 0, 64, 64
1, 190576, Control_c, 0, 64, 52
1, 190591, Control_c, 0, 64, 49
1, 190605, Control_c, 0, 64, 53
1, 190620, Control_c, 0, 64, 57
1, 190635, Control_c, 0, 64, 63
1, 190639, Note_on_c, 0, 53, 49
1, 190649, Control_c, 0, 64, 70
1, 190662, Note_off_c, 0, 44, 56
1, 190664, Control_c, 0, 64, 86
1, 190679, Control_c, 0, 64, 127
1, 190685, Note_off_c, 0, 77, 61
1, 190716, Note_off_c, 0, 53, 63
1, 190717, Note_on_c, 0, 56, 57
1, 190721, Note_off_c, 0, 89, 63
1, 190746, Note_off_c, 0, 56, 64
1, 190859, Note_on_c, 0, 92, 75
1, 190865, Note_on_c, 0, 61, 47
1, 190880, Note_on_c, 0, 80, 54
1, 190923, Note_off_c, 0, 61, 53
1, 190928, Note_on_c, 0, 65, 54
1, 190972, Note_off_c, 0, 92, 66
1, 190981, Note_off_c, 0, 80, 63
1, 190989, Note_on_c, 0, 68, 60
1, 191060, Note_off_c, 0, 68, 59
1, 191072, Note_on_c, 0, 73, 60
1, 191079, Note_on_c, 0, 89, 85
1, 191086, Note_off_c, 0, 65, 28
1, 191092, Note_on_c, 0, 77, 73
1, 191136, Note_off_c, 0, 73, 62
1, 191151, Note_on_c, 0, 68, 58
1, 191184, Note_off_c, 0, 77, 61
1, 191189, Note_off_c, 0, 89, 60
1, 191198, Note_on_c, 0, 65, 67
1, 191214, Note_off_c, 0, 68, 60
1, 191263, Note_off_c, 0, 65, 62
1, 191285, Note_on_c, 0, 61, 51
1, 191307, Note_off_c, 0, 61, 58
1, 191314, Note_on_c, 0, 87, 85
1, 191335, Note_on_c, 0, 75, 71
1, 191375, Note_on_c, 0, 56, 69
1, 191408, Note_off_c, 0, 75, 62
1, 191438, Note_off_c, 0, 56, 62
1, 191455, Note_on_c, 0, 53, 62
1, 191501, Note_off_c, 0, 53, 59
1, 191515, Poly_aftertouch_c, 0, 85, 0
1, 191517, Note_on_c, 0, 44, 63
1, 191523, Note_on_c, 0, 89, 88
1, 191537, Note_on_c, 0, 77, 71
1, 191593, Note_off_c, 0, 44, 61
1, 191601, Note_off_c, 0, 87, 0
1, 191601, Note_on_c, 0, 53, 61
1, 191625, Note_on_c, 0, 87, 5
1, 191627, Note_off_c, 0, 77, 60
1, 191631, Note_off_c, 0, 53, 63
1, 191633, Note_off_c, 0, 89, 61
1, 191646, Note_on_c, 0, 56, 62
1, 191660, Note_off_c, 0, 87, 44
1, 191667, Note_off_c, 0, 56, 64
1, 191737, Note_on_c, 0, 87, 91
1, 191742, Note_on_c, 0, 75, 77
1, 191756, Note_on_c, 0, 61, 65
1, 191799, Note_off_c, 0, 61, 55
1, 191807, Note_on_c, 0, 65, 63
1, 191837, Note_off_c, 0, 75, 58
1, 191863, Note_off_c, 0, 87, 60
1, 191864, Note_on_c, 0, 68, 69
1, 191904, Note_off_c, 0, 65, 57
1, 191929, Note_off_c, 0, 68, 60
1, 191937, Note_on_c, 0, 73, 72
1, 191941, Note_on_c, 0, 85, 85
1, 191951, Note_on_c, 0, 81, 38
1, 191992, Note_off_c, 0, 81, 47
1, 192001, Note_off_c, 0, 73, 63
1, 192005, Note_on_c, 0, 68, 59
1, 192061, Note_on_c, 0, 65, 63
1, 192081, Note_off_c, 0, 68, 61
1, 192117, Note_off_c, 0, 65, 62
1, 192133, Note_on_c, 0, 61, 44
1, 192149, Note_on_c, 0, 87, 87
1, 192159, Note_off_c, 0, 61, 55
1, 192162, Note_on_c, 0, 75, 74
1, 192215, Note_off_c, 0, 85, 50
1, 192218, Note_on_c, 0, 56, 64
1, 192251, Note_off_c, 0, 75, 61
1, 192283, Note_off_c, 0, 56, 62
1, 192286, Note_off_c, 0, 87, 63
1, 192296, Note_on_c, 0, 53, 65
1, 192373, Note_off_c, 0, 53, 59
1, 192377, Note_on_c, 0, 44, 59
1, 192400, Control_c, 0, 64, 107
1, 192413, Note_on_c, 0, 89, 82
1, 192415, Control_c, 0, 64, 76
1, 192429, Note_on_c, 0, 77, 58
1, 192429, Control_c, 0, 64, 59
1, 192430, Note_on_c, 0, 85, 58
1, 192444, Control_c, 0, 64, 0
1, 192459, Control_c, 0, 64, 12
1, 192474, Control_c, 0, 64, 38
1, 192489, Control_c, 0, 64, 56
1, 192499, Note_off_c, 0, 44, 63
1, 192500, Note_on_c, 0, 53, 54
1, 192503, Control_c, 0, 64, 67
1, 192518, Control_c, 0, 64, 84
1, 192533, Control_c, 0, 64, 127
1, 192535, Note_off_c, 0, 53, 64
1, 192553, Note_on_c, 0, 56, 54
1, 192577, Note_off_c, 0, 56, 59
1, 192634, Note_off_c, 0, 77, 57
1, 192654, Note_off_c, 0, 89, 59
1, 192659, Note_on_c, 0, 61, 61
1, 192697, Note_off_c, 0, 61, 59
1, 192702, Note_off_c, 0, 85, 57
1, 192713, Note_on_c, 0, 65, 60
1, 192788, Note_on_c, 0, 68, 64
1, 192814, Note_off_c, 0, 65, 57
1, 192854, Note_off_c, 0, 68, 59
1, 192856, Note_on_c, 0, 90, 76
1, 192858, Note_on_c, 0, 73, 57
1, 192869, Note_on_c, 0, 82, 62
1, 192871, Note_on_c, 0, 78, 66
1, 192918, Note_off_c, 0, 73, 60
1, 192931, Note_on_c, 0, 68, 52
1, 192984, Note_off_c, 0, 78, 63
1, 192984, Note_off_c, 0, 82, 64
1, 192997, Note_off_c, 0, 90, 63
1, 192999, Note_on_c, 0, 65, 55
1, 193002, Note_off_c, 0, 68, 61
1, 193035, Note_off_c, 0, 65, 64
1, 193050, Note_on_c, 0, 61, 59
1, 193077, Note_on_c, 0, 84, 72
1, 193079, Note_off_c, 0, 61, 63
1, 193080, Note_on_c, 0, 92, 91
1, 193086, Note_on_c, 0, 80, 78
1, 193149, Note_on_c, 0, 56, 72
1, 193180, Note_off_c, 0, 84, 63
1, 193188, Note_off_c, 0, 80, 62
1, 193205, Note_off_c, 0, 56, 63
1, 193207, Note_off_c, 0, 92, 65
1, 193222, Note_on_c, 0, 53, 71
1, 193286, Note_on_c, 0, 44, 73
1, 193292, Note_off_c, 0, 53, 63
1, 193300, Note_on_c, 0, 94, 101
1, 193305, Note_on_c, 0, 82, 84
1, 193309, Note_on_c, 0, 85, 80
1, 193378, Note_off_c, 0, 44, 62
1, 193379, Note_on_c, 0, 53, 64
1, 193416, Note_off_c, 0, 53, 66
1, 193426, Note_on_c, 0, 56, 72
1, 193451, Note_off_c, 0, 56, 68
1, 193459, Control_c, 0, 67, 124
1, 193469, Note_off_c, 0, 82, 62
1, 193473, Control_c, 0, 67, 119
1, 193485, Note_off_c, 0, 85, 63
1, 193488, Control_c, 0, 67, 115
1, 193495, Note_off_c, 0, 94, 63
1, 193503, Control_c, 0, 67, 112
1, 193525, Control_c, 0, 67, 109
1, 193537, Note_on_c, 0, 61, 72
1, 193540, Control_c, 0, 67, 105
1, 193555, Control_c, 0, 67, 99
1, 193570, Control_c, 0, 67, 93
1, 193585, Control_c, 0, 67, 86
1, 193598, Note_on_c, 0, 65, 69
1, 193600, Control_c, 0, 67, 78
1, 193614, Control_c, 0, 67, 68
1, 193626, Note_off_c, 0, 61, 57
1, 193629, Control_c, 0, 67, 53
1, 193644, Control_c, 0, 67, 35
1, 193657, Note_on_c, 0, 68, 79
1, 193658, Control_c, 0, 67, 20
1, 193673, Control_c, 0, 67, 0
1, 193704, Note_off_c, 0, 65, 57
1, 193742, Note_off_c, 0, 68, 61
1, 193744, Note_on_c, 0, 96, 89
1, 193745, Note_on_c, 0, 73, 73
1, 193748, Note_on_c, 0, 87, 76
1, 193755, Note_on_c, 0, 84, 76
1, 193822, Note_off_c, 0, 73, 64
1, 193827, Note_on_c, 0, 68, 66
1, 193859, Note_off_c, 0, 84, 62
1, 193874, Note_off_c, 0, 96, 65
1, 193882, Note_off_c, 0, 87, 65
1, 193884, Note_on_c, 0, 65, 65
1, 193909, Note_off_c, 0, 68, 60
1, 193945, Note_off_c, 0, 65, 63
1, 193948, Note_on_c, 0, 61, 66
1, 193969, Note_on_c, 0, 89, 83
1, 193970, Note_on_c, 0, 97, 97
1, 193974, Note_on_c, 0, 85, 97
1, 193980, Note_off_c, 0, 61, 65
1, 194053, Note_on_c, 0, 56, 75
1, 194098, Note_off_c, 0, 89, 62
1, 194107, Note_off_c, 0, 85, 63
1, 194114, Note_off_c, 0, 56, 62
1, 194120, Note_on_c, 0, 53, 79
1, 194129, Note_off_c, 0, 97, 63
1, 194202, Note_on_c, 0, 44, 82
1, 194220, Note_off_c, 0, 53, 62
1, 194240, Note_on_c, 0, 99, 93
1, 194243, Note_on_c, 0, 90, 80
1, 194250, Note_on_c, 0, 87, 80
1, 194251, Control_c, 0, 64, 90
1, 194273, Control_c, 0, 64, 65
1, 194288, Control_c, 0, 64, 0
1, 194333, Control_c, 0, 64, 11
1, 194347, Control_c, 0, 64, 54
1, 194356, Note_off_c, 0, 44, 64
1, 194362, Control_c, 0, 64, 70
1, 194374, Note_on_c, 0, 54, 76
1, 194377, Control_c, 0, 64, 95
1, 194392, Control_c, 0, 64, 127
1, 194404, Note_off_c, 0, 99, 64
1, 194433, Note_off_c, 0, 54, 63
1, 194433, Note_off_c, 0, 90, 61
1, 194437, Note_off_c, 0, 87, 63
1, 194441, Note_on_c, 0, 58, 75
1, 194468, Note_off_c, 0, 58, 64
1, 194532, Note_on_c, 0, 97, 92
1, 194534, Note_on_c, 0, 85, 89
1, 194536, Note_on_c, 0, 89, 79
1, 194551, Note_on_c, 0, 61, 63
1, 194615, Note_on_c, 0, 63, 72
1, 194639, Note_off_c, 0, 85, 65
1, 194639, Note_off_c, 0, 89, 64
1, 194653, Note_off_c, 0, 61, 56
1, 194660, Note_off_c, 0, 97, 64
1, 194683, Note_on_c, 0, 66, 67
1, 194724, Note_off_c, 0, 63, 59
1, 194740, Note_on_c, 0, 99, 101
1, 194743, Note_on_c, 0, 90, 93
1, 194743, Note_on_c, 0, 73, 76
1, 194745, Note_on_c, 0, 70, 77
1, 194746, Note_on_c, 0, 87, 91
1, 194755, Note_off_c, 0, 66, 61
1, 194810, Note_off_c, 0, 73, 62
1, 194822, Note_on_c, 0, 66, 51
1, 194842, Note_off_c, 0, 90, 63
1, 194847, Note_off_c, 0, 87, 63
1, 194853, Note_off_c, 0, 70, 62
1, 194860, Note_on_c, 0, 63, 69
1, 194868, Note_off_c, 0, 99, 65
1, 194874, Note_off_c, 0, 66, 55
1, 194912, Note_off_c, 0, 63, 63
1, 194917, Note_on_c, 0, 61, 42
1, 194943, Note_off_c, 0, 61, 56
1, 194952, Note_on_c, 0, 101, 105
1, 194953, Note_on_c, 0, 89, 92
1, 194953, Note_on_c, 0, 92, 96
1, 195010, Note_on_c, 0, 58, 68
1, 195045, Note_off_c, 0, 58, 65
1, 195047, Note_off_c, 0, 89, 60
1, 195055, Note_off_c, 0, 101, 64
1, 195059, Note_off_c, 0, 92, 66
1, 195069, Note_on_c, 0, 54, 68
1, 195137, Note_off_c, 0, 54, 61
1, 195153, Note_on_c, 0, 44, 69
1, 195163, Note_on_c, 0, 102, 106
1, 195167, Note_on_c, 0, 90, 92
1, 195174, Note_on_c, 0, 94, 86
1, 195191, Poly_aftertouch_c, 0, 46, 127
1, 195205, Note_off_c, 0, 44, 64
1, 195217, Note_on_c, 0, 54, 69
1, 195239, Poly_aftertouch_c, 0, 46, 0
1, 195276, Note_off_c, 0, 54, 63
1, 195276, Note_off_c, 0, 102, 64
1, 195277, Note_off_c, 0, 94, 64
1, 195283, Note_off_c, 0, 90, 63
1, 195293, Note_on_c, 0, 58, 62
1, 195313, Note_off_c, 0, 58, 62
1, 195406, Note_on_c, 0, 99, 102
1, 195411, Note_on_c, 0, 87, 92
1, 195412, Note_on_c, 0, 90, 82
1, 195414, Note_on_c, 0, 61, 64
1, 195474, Note_on_c, 0, 63, 73
1, 195480, Note_off_c, 0, 61, 61
1, 195502, Note_off_c, 0, 87, 63
1, 195518, Note_off_c, 0, 90, 63
1, 195548, Note_off_c, 0, 99, 64
1, 195554, Note_on_c, 0, 66, 78
1, 195578, Note_off_c, 0, 63, 61
1, 195656, Note_on_c, 0, 73, 96
1, 195664, Note_on_c, 0, 70, 81
1, 195666, Note_on_c, 0, 101, 104
1, 195667, Note_on_c, 0, 89, 98
1, 195672, Note_on_c, 0, 92, 95
1, 195792, Note_off_c, 0, 89, 61
1, 195800, Note_off_c, 0, 101, 64
1, 195811, Note_off_c, 0, 92, 65
1, 195819, Note_off_c, 0, 73, 59
1, 195834, Note_off_c, 0, 70, 56
1, 195866, Note_off_c, 0, 66, 59
1, 196016, Note_on_c, 0, 102, 104
1, 196019, Note_on_c, 0, 90, 100
1, 196022, Note_on_c, 0, 94, 96
1, 196346, Note_off_c, 0, 90, 54
1, 196349, Note_off_c, 0, 102, 59
1, 196454, Note_off_c, 0, 94, 63
1, 196564, Note_on_c, 0, 37, 77
1, 196599, Note_on_c, 0, 96, 84
1, 196600, Note_on_c, 0, 104, 103
1, 196603, Note_on_c, 0, 92, 96
1, 196728, Control_c, 0, 64, 100
1, 196742, Control_c, 0, 64, 85
1, 196757, Control_c, 0, 64, 75
1, 196772, Control_c, 0, 64, 67
1, 196787, Control_c, 0, 64, 60
1, 196801, Control_c, 0, 64, 47
1, 196816, Control_c, 0, 64, 30
1, 196831, Control_c, 0, 64, 12
1, 196846, Control_c, 0, 64, 0
1, 196905, Control_c, 0, 64, 30
1, 196921, Control_c, 0, 64, 44
1, 196936, Control_c, 0, 64, 55
1, 196951, Control_c, 0, 64, 64
1, 196965, Control_c, 0, 64, 74
1, 196980, Control_c, 0, 64, 108
1, 196995, Control_c, 0, 64, 127
1, 197017, Note_on_c, 0, 44, 83
1, 197120, Note_off_c, 0, 104, 56
1, 197177, Note_off_c, 0, 37, 55
1, 197182, Note_off_c, 0, 92, 59
1, 197192, Note_off_c, 0, 96, 62
1, 197236, Note_on_c, 0, 48, 87
1, 197271, Note_off_c, 0, 44, 63
1, 197323, Note_off_c, 0, 48, 64
1, 197436, Note_on_c, 0, 102, 105
1, 197441, Note_on_c, 0, 90, 91
1, 197444, Note_on_c, 0, 94, 83
1, 197453, Note_on_c, 0, 49, 64
1, 197614, Note_on_c, 0, 56, 84
1, 197656, Note_off_c, 0, 49, 57
1, 197772, Note_on_c, 0, 60, 83
1, 197920, Note_on_c, 0, 49, 82
1, 197938, Note_off_c, 0, 56, 61
1, 197960, Note_off_c, 0, 60, 62
1, 198088, Note_on_c, 0, 56, 87
1, 198089, Note_off_c, 0, 102, 47
1, 198128, Note_off_c, 0, 94, 57
1, 198166, Note_off_c, 0, 49, 57
1, 198238, Note_off_c, 0, 90, 27
1, 198243, Note_on_c, 0, 60, 89
1, 198258, Note_off_c, 0, 56, 64
1, 198313, Note_off_c, 0, 60, 62
1, 198416, Note_on_c, 0, 101, 97
1, 198419, Note_on_c, 0, 61, 64
1, 198424, Note_on_c, 0, 89, 81
1, 198427, Note_on_c, 0, 92, 81
1, 198607, Note_on_c, 0, 68, 82
1, 198659, Note_off_c, 0, 101, 55
1, 198716, Note_off_c, 0, 89, 58
1, 198834, Note_on_c, 0, 72, 82
1, 198844, Note_off_c, 0, 61, 37
1, 198866, Note_off_c, 0, 92, 62
1, 198878, Note_off_c, 0, 68, 60
1, 199054, Note_off_c, 0, 72, 59
1, 199069, Note_on_c, 0, 78, 57
1, 199133, Note_on_c, 0, 99, 85
1, 199146, Note_on_c, 0, 90, 63
1, 199148, Note_on_c, 0, 87, 66
1, 199377, Note_on_c, 0, 80, 58
1, 199379, Note_off_c, 0, 78, 58
1, 199477, Note_off_c, 0, 80, 64
1, 199498, Note_on_c, 0, 82, 68
1, 199564, Note_off_c, 0, 82, 63
1, 199596, Note_on_c, 0, 80, 65
1, 199638, Note_off_c, 0, 80, 60
1, 199675, Note_on_c, 0, 82, 69
1, 199705, Note_off_c, 0, 82, 63
1, 199736, Note_on_c, 0, 80, 65
1, 199764, Note_off_c, 0, 80, 68
1, 199793, Note_on_c, 0, 82, 67
1, 199819, Note_off_c, 0, 82, 69
1, 199835, Note_on_c, 0, 80, 67
1, 199862, Note_off_c, 0, 80, 68
1, 199887, Note_on_c, 0, 82, 71
1, 199915, Note_off_c, 0, 82, 67
1, 199932, Note_on_c, 0, 80, 71
1, 199959, Note_off_c, 0, 80, 64
1, 199982, Note_on_c, 0, 82, 73
1, 200008, Note_off_c, 0, 82, 68
1, 200017, Note_on_c, 0, 80, 68
1, 200047, Note_off_c, 0, 80, 66
1, 200072, Note_on_c, 0, 82, 69
1, 200097, Note_off_c, 0, 82, 66
1, 200114, Note_on_c, 0, 80, 68
1, 200142, Note_off_c, 0, 80, 65
1, 200164, Note_on_c, 0, 82, 66
1, 200189, Note_off_c, 0, 82, 62
1, 200202, Note_on_c, 0, 80, 74
1, 200235, Note_off_c, 0, 80, 61
1, 200261, Note_on_c, 0, 82, 72
1, 200300, Note_off_c, 0, 82, 62
1, 200307, Note_on_c, 0, 80, 62
1, 200324, Control_c, 0, 64, 115
1, 200333, Note_off_c, 0, 80, 67
1, 200338, Control_c, 0, 64, 106
1, 200352, Note_off_c, 0, 99, 55
1, 200353, Control_c, 0, 64, 108
1, 200354, Note_on_c, 0, 82, 59
1, 200368, Control_c, 0, 64, 115
1, 200383, Control_c, 0, 64, 127
1, 200394, Note_off_c, 0, 82, 61
1, 200398, Note_on_c, 0, 80, 68
1, 200427, Note_off_c, 0, 80, 65
1, 200428, Control_c, 0, 64, 119
1, 200443, Control_c, 0, 64, 101
1, 200458, Control_c, 0, 64, 90
1, 200458, Note_on_c, 0, 82, 51
1, 200472, Control_c, 0, 64, 81
1, 200486, Note_off_c, 0, 82, 55
1, 200487, Control_c, 0, 64, 78
1, 200490, Note_off_c, 0, 87, 28
1, 200502, Control_c, 0, 64, 81
1, 200508, Note_on_c, 0, 80, 59
1, 200516, Control_c, 0, 64, 86
1, 200517, Note_off_c, 0, 90, 27
1, 200524, Note_off_c, 0, 80, 64
1, 200531, Control_c, 0, 64, 92
1, 200546, Control_c, 0, 64, 92
1, 200561, Control_c, 0, 64, 90
1, 200565, Note_on_c, 0, 82, 52
1, 200576, Control_c, 0, 64, 86
1, 200586, Note_off_c, 0, 82, 58
1, 200590, Control_c, 0, 64, 83
1, 200596, Note_on_c, 0, 80, 59
1, 200605, Control_c, 0, 64, 77
1, 200613, Note_off_c, 0, 80, 65
1, 200620, Control_c, 0, 64, 73
1, 200634, Control_c, 0, 64, 74
1, 200649, Control_c, 0, 64, 79
1, 200658, Note_on_c, 0, 82, 59
1, 200664, Control_c, 0, 64, 86
1, 200678, Note_off_c, 0, 82, 61
1, 200679, Control_c, 0, 64, 94
1, 200681, Note_on_c, 0, 80, 68
1, 200694, Control_c, 0, 64, 96
1, 200708, Control_c, 0, 64, 93
1, 200719, Note_off_c, 0, 80, 58
1, 200723, Control_c, 0, 64, 88
1, 200738, Control_c, 0, 64, 81
1, 200753, Control_c, 0, 64, 75
1, 200756, Note_on_c, 0, 82, 55
1, 200768, Control_c, 0, 64, 73
1, 200779, Note_off_c, 0, 82, 56
1, 200783, Control_c, 0, 64, 74
1, 200798, Control_c, 0, 64, 76
1, 200810, Note_on_c, 0, 80, 49
1, 200812, Note_on_c, 0, 94, 56
1, 200812, Control_c, 0, 64, 80
1, 200827, Control_c, 0, 64, 87
1, 200830, Note_on_c, 0, 90, 36
1, 200831, Note_off_c, 0, 80, 61
1, 200833, Note_on_c, 0, 85, 43
1, 200842, Control_c, 0, 64, 91
1, 200857, Control_c, 0, 64, 90
1, 200865, Note_on_c, 0, 82, 49
1, 200872, Control_c, 0, 64, 85
1, 200887, Control_c, 0, 64, 80
1, 200887, Note_off_c, 0, 82, 58
1, 200902, Control_c, 0, 64, 76
1, 200917, Control_c, 0, 64, 73
1, 200919, Note_on_c, 0, 80, 56
1, 200932, Control_c, 0, 64, 74
1, 200937, Note_off_c, 0, 80, 63
1, 200947, Control_c, 0, 64, 77
1, 200960, Note_on_c, 0, 82, 64
1, 200961, Control_c, 0, 64, 80
1, 200972, Note_off_c, 0, 90, 40
1, 200976, Control_c, 0, 64, 83
1, 200988, Note_off_c, 0, 82, 57
1, 200991, Control_c, 0, 64, 87
1, 201013, Control_c, 0, 64, 87
1, 201024, Note_on_c, 0, 80, 61
1, 201028, Control_c, 0, 64, 86
1, 201043, Control_c, 0, 64, 84
1, 201046, Note_off_c, 0, 85, 60
1, 201058, Note_off_c, 0, 80, 62
1, 201058, Control_c, 0, 64, 82
1, 201073, Control_c, 0, 64, 80
1, 201082, Note_on_c, 0, 82, 55
1, 201087, Control_c, 0, 64, 80
1, 201102, Note_off_c, 0, 82, 59
1, 201102, Control_c, 0, 64, 80
1, 201117, Control_c, 0, 64, 82
1, 201130, Note_on_c, 0, 80, 59
1, 201132, Control_c, 0, 64, 84
1, 201146, Control_c, 0, 64, 86
1, 201152, Note_off_c, 0, 80, 59
1, 201161, Control_c, 0, 64, 86
1, 201176, Control_c, 0, 64, 85
1, 201177, Note_on_c, 0, 82, 61
1, 201191, Control_c, 0, 64, 82
1, 201204, Note_off_c, 0, 82, 55
1, 201206, Control_c, 0, 64, 76
1, 201221, Control_c, 0, 64, 71
1, 201229, Note_on_c, 0, 96, 57
1, 201230, Note_on_c, 0, 87, 42
1, 201236, Control_c, 0, 64, 68
1, 201243, Note_on_c, 0, 80, 52
1, 201251, Control_c, 0, 64, 69
1, 201251, Note_on_c, 0, 84, 43
1, 201256, Note_off_c, 0, 94, 56
1, 201265, Control_c, 0, 64, 72
1, 201266, Note_off_c, 0, 80, 60
1, 201280, Control_c, 0, 64, 75
1, 201295, Control_c, 0, 64, 79
1, 201297, Note_on_c, 0, 82, 49
1, 201310, Control_c, 0, 64, 81
1, 201319, Note_off_c, 0, 82, 58
1, 201325, Control_c, 0, 64, 80
1, 201339, Control_c, 0, 64, 77
1, 201346, Note_on_c, 0, 80, 56
1, 201354, Control_c, 0, 64, 73
1, 201367, Note_off_c, 0, 80, 61
1, 201369, Control_c, 0, 64, 70
1, 201376, Note_off_c, 0, 84, 59
1, 201379, Note_off_c, 0, 96, 63
1, 201384, Control_c, 0, 64, 70
1, 201391, Note_on_c, 0, 82, 60
1, 201399, Control_c, 0, 64, 73
1, 201407, Note_off_c, 0, 87, 64
1, 201413, Control_c, 0, 64, 76
1, 201420, Note_off_c, 0, 82, 57
1, 201428, Control_c, 0, 64, 79
1, 201439, Note_on_c, 0, 80, 70
1, 201443, Control_c, 0, 64, 82
1, 201457, Control_c, 0, 64, 82
1, 201471, Note_off_c, 0, 80, 61
1, 201487, Control_c, 0, 64, 83
1, 201505, Note_on_c, 0, 82, 54
1, 201527, Note_off_c, 0, 82, 59
1, 201534, Note_on_c, 0, 89, 55
1, 201536, Note_on_c, 0, 97, 70
1, 201550, Note_on_c, 0, 85, 54
1, 201551, Note_on_c, 0, 80, 62
1, 201561, Control_c, 0, 64, 83
1, 201575, Note_off_c, 0, 80, 61
1, 201591, Control_c, 0, 64, 84
1, 201601, Note_on_c, 0, 82, 62
1, 201606, Control_c, 0, 64, 85
1, 201621, Note_off_c, 0, 82, 60
1, 201635, Control_c, 0, 64, 85
1, 201641, Note_off_c, 0, 85, 64
1, 201646, Note_on_c, 0, 80, 68
1, 201646, Note_off_c, 0, 89, 63
1, 201676, Note_off_c, 0, 97, 63
1, 201677, Note_off_c, 0, 80, 64
1, 201700, Note_on_c, 0, 82, 62
1, 201725, Control_c, 0, 64, 85
1, 201735, Note_off_c, 0, 82, 62
1, 201740, Control_c, 0, 64, 83
1, 201748, Note_on_c, 0, 80, 67
1, 201762, Control_c, 0, 64, 80
1, 201777, Control_c, 0, 64, 76
1, 201786, Note_on_c, 0, 99, 88
1, 201790, Note_off_c, 0, 80, 62
1, 201792, Control_c, 0, 64, 74
1, 201793, Note_on_c, 0, 87, 72
1, 201797, Note_on_c, 0, 90, 67
1, 201807, Control_c, 0, 64, 74
1, 201822, Control_c, 0, 64, 76
1, 201823, Note_on_c, 0, 82, 54
1, 201836, Control_c, 0, 64, 78
1, 201842, Note_off_c, 0, 82, 61
1, 201851, Control_c, 0, 64, 80
1, 201854, Note_on_c, 0, 80, 65
1, 201866, Control_c, 0, 64, 83
1, 201881, Control_c, 0, 64, 85
1, 201889, Note_off_c, 0, 80, 64
1, 201890, Note_off_c, 0, 87, 63
1, 201892, Note_off_c, 0, 90, 63
1, 201895, Control_c, 0, 64, 86
1, 201909, Note_on_c, 0, 82, 68
1, 201910, Control_c, 0, 64, 86
1, 201929, Note_off_c, 0, 99, 65
1, 201942, Note_off_c, 0, 82, 62
1, 201957, Note_on_c, 0, 80, 70
1, 201993, Note_off_c, 0, 80, 56
1, 202008, Note_on_c, 0, 101, 98
1, 202014, Note_on_c, 0, 89, 79
1, 202014, Control_c, 0, 64, 87
1, 202017, Note_on_c, 0, 92, 77
1, 202029, Note_on_c, 0, 82, 50
1, 202050, Note_off_c, 0, 82, 57
1, 202057, Note_on_c, 0, 80, 60
1, 202088, Control_c, 0, 64, 87
1, 202090, Note_off_c, 0, 80, 63
1, 202095, Note_off_c, 0, 89, 56
1, 202118, Control_c, 0, 64, 88
1, 202118, Note_on_c, 0, 82, 64
1, 202118, Note_off_c, 0, 92, 65
1, 202124, Note_off_c, 0, 101, 65
1, 202133, Control_c, 0, 64, 88
1, 202141, Note_off_c, 0, 82, 57
1, 202158, Note_on_c, 0, 80, 63
1, 202196, Note_off_c, 0, 80, 61
1, 202207, Control_c, 0, 64, 87
1, 202217, Note_on_c, 0, 82, 59
1, 202222, Control_c, 0, 64, 85
1, 202236, Note_on_c, 0, 102, 91
1, 202236, Control_c, 0, 64, 81
1, 202240, Note_off_c, 0, 82, 57
1, 202251, Control_c, 0, 64, 77
1, 202252, Note_on_c, 0, 90, 61
1, 202256, Note_on_c, 0, 94, 66
1, 202260, Note_on_c, 0, 80, 52
1, 202266, Control_c, 0, 64, 72
1, 202280, Control_c, 0, 64, 68
1, 202295, Control_c, 0, 64, 67
1, 202303, Note_off_c, 0, 80, 59
1, 202310, Control_c, 0, 64, 67
1, 202325, Control_c, 0, 64, 69
1, 202327, Note_on_c, 0, 82, 52
1, 202340, Control_c, 0, 64, 72
1, 202351, Note_off_c, 0, 82, 57
1, 202355, Control_c, 0, 64, 76
1, 202360, Note_on_c, 0, 80, 55
1, 202369, Control_c, 0, 64, 80
1, 202384, Control_c, 0, 64, 81
1, 202397, Note_off_c, 0, 94, 63
1, 202399, Control_c, 0, 64, 82
1, 202401, Note_off_c, 0, 102, 64
1, 202405, Note_off_c, 0, 90, 63
1, 202407, Note_off_c, 0, 80, 57
1, 202434, Note_on_c, 0, 82, 50
1, 202458, Control_c, 0, 64, 83
1, 202460, Note_off_c, 0, 82, 54
1, 202473, Control_c, 0, 64, 85
1, 202482, Note_on_c, 0, 80, 50
1, 202488, Control_c, 0, 64, 86
1, 202490, Note_on_c, 0, 101, 92
1, 202500, Note_on_c, 0, 89, 71
1, 202511, Control_c, 0, 64, 87
1, 202518, Note_on_c, 0, 92, 70
1, 202532, Note_off_c, 0, 80, 63
1, 202553, Note_on_c, 0, 82, 56
1, 202577, Note_off_c, 0, 82, 56
1, 202613, Note_on_c, 0, 80, 56
1, 202625, Note_off_c, 0, 101, 61
1, 202637, Note_off_c, 0, 89, 59
1, 202652, Note_off_c, 0, 80, 60
1, 202664, Note_on_c, 0, 82, 57
1, 202668, Note_off_c, 0, 92, 64
1, 202708, Note_off_c, 0, 82, 59
1, 202735, Note_on_c, 0, 80, 56
1, 202777, Note_off_c, 0, 80, 63
1, 202778, Control_c, 0, 64, 86
1, 202792, Control_c, 0, 64, 85
1, 202807, Control_c, 0, 64, 83
1, 202810, Note_on_c, 0, 82, 44
1, 202820, Note_on_c, 0, 99, 74
1, 202822, Control_c, 0, 64, 80
1, 202833, Note_on_c, 0, 87, 54
1, 202833, Note_off_c, 0, 82, 58
1, 202837, Control_c, 0, 64, 77
1, 202842, Note_on_c, 0, 90, 50
1, 202852, Control_c, 0, 64, 73
1, 202866, Control_c, 0, 64, 70
1, 202875, Note_on_c, 0, 80, 46
1, 202881, Control_c, 0, 64, 71
1, 202896, Control_c, 0, 64, 72
1, 202910, Note_off_c, 0, 80, 62
1, 202911, Control_c, 0, 64, 75
1, 202917, Note_on_c, 0, 82, 55
1, 202926, Control_c, 0, 64, 79
1, 202941, Control_c, 0, 64, 82
1, 202956, Control_c, 0, 64, 82
1, 202962, Note_off_c, 0, 82, 59
1, 202971, Control_c, 0, 64, 81
1, 202985, Control_c, 0, 64, 80
1, 202999, Note_on_c, 0, 80, 51
1, 203000, Control_c, 0, 64, 78
1, 203015, Control_c, 0, 64, 75
1, 203030, Control_c, 0, 64, 73
1, 203031, Note_off_c, 0, 87, 38
1, 203037, Note_off_c, 0, 80, 60
1, 203045, Control_c, 0, 64, 75
1, 203059, Control_c, 0, 64, 78
1, 203066, Note_on_c, 0, 82, 44
1, 203074, Control_c, 0, 64, 81
1, 203089, Control_c, 0, 64, 83
1, 203093, Note_off_c, 0, 82, 51
1, 203093, Note_off_c, 0, 90, 36
1, 203103, Control_c, 0, 64, 84
1, 203113, Note_on_c, 0, 80, 48
1, 203118, Control_c, 0, 64, 85
1, 203133, Control_c, 0, 64, 86
1, 203135, Note_off_c, 0, 80, 59
1, 203148, Control_c, 0, 64, 87
1, 203163, Control_c, 0, 64, 88
1, 203165, Note_on_c, 0, 82, 59
1, 203177, Control_c, 0, 64, 88
1, 203186, Note_off_c, 0, 82, 58
1, 203207, Control_c, 0, 64, 90
1, 203217, Note_on_c, 0, 80, 59
1, 203222, Control_c, 0, 64, 92
1, 203237, Control_c, 0, 64, 95
1, 203238, Note_off_c, 0, 80, 62
1, 203259, Control_c, 0, 64, 98
1, 203271, Note_on_c, 0, 82, 63
1, 203274, Control_c, 0, 64, 101
1, 203289, Control_c, 0, 64, 103
1, 203296, Note_off_c, 0, 82, 57
1, 203304, Control_c, 0, 64, 105
1, 203319, Control_c, 0, 64, 106
1, 203325, Note_on_c, 0, 80, 60
1, 203334, Control_c, 0, 64, 107
1, 203349, Control_c, 0, 64, 110
1, 203358, Note_off_c, 0, 80, 61
1, 203364, Control_c, 0, 64, 113
1, 203379, Control_c, 0, 64, 118
1, 203382, Note_on_c, 0, 82, 59
1, 203394, Control_c, 0, 64, 127
1, 203406, Note_off_c, 0, 82, 55
1, 203438, Note_on_c, 0, 80, 58
1, 203448, Note_on_c, 0, 94, 63
1, 203465, Note_on_c, 0, 90, 53
1, 203465, Note_on_c, 0, 87, 40
1, 203478, Note_off_c, 0, 80, 61
1, 203496, Note_on_c, 0, 82, 57
1, 203525, Note_off_c, 0, 82, 58
1, 203544, Note_off_c, 0, 99, 31
1, 203556, Note_on_c, 0, 80, 56
1, 203597, Note_off_c, 0, 80, 61
1, 203609, Note_on_c, 0, 82, 58
1, 203618, Note_off_c, 0, 90, 60
1, 203620, Note_off_c, 0, 87, 48
1, 203640, Note_off_c, 0, 82, 60
1, 203674, Note_on_c, 0, 80, 52
1, 203715, Note_off_c, 0, 80, 61
1, 203725, Note_on_c, 0, 82, 57
1, 203769, Note_off_c, 0, 82, 55
1, 203803, Note_on_c, 0, 80, 49
1, 203829, Note_on_c, 0, 96, 65
1, 203840, Note_off_c, 0, 80, 60
1, 203841, Note_on_c, 0, 90, 49
1, 203851, Note_on_c, 0, 87, 45
1, 203859, Note_on_c, 0, 82, 52
1, 203898, Note_off_c, 0, 94, 61
1, 203900, Note_off_c, 0, 82, 56
1, 203932, Note_on_c, 0, 80, 50
1, 203971, Note_off_c, 0, 80, 62
1, 203996, Note_on_c, 0, 82, 53
1, 204044, Note_off_c, 0, 82, 52
1, 204080, Note_on_c, 0, 80, 47
1, 204094, Note_off_c, 0, 87, 29
1, 204110, Note_off_c, 0, 80, 61
1, 204139, Note_on_c, 0, 82, 53
1, 204157, Note_off_c, 0, 90, 37
1, 204199, Note_off_c, 0, 82, 49
1, 204209, Note_on_c, 0, 80, 47
1, 204258, Note_off_c, 0, 80, 62
1, 204288, Note_on_c, 0, 82, 42
1, 204388, Note_off_c, 0, 96, 33
1, 204542, Control_c, 0, 64, 119
1, 204556, Control_c, 0, 64, 114
1, 204559, Note_on_c, 0, 80, 42
1, 204571, Control_c, 0, 64, 110
1, 204586, Control_c, 0, 64, 107
1, 204601, Control_c, 0, 64, 103
1, 204616, Control_c, 0, 64, 101
1, 204631, Control_c, 0, 64, 99
1, 204646, Control_c, 0, 64, 96
1, 204646, Note_on_c, 0, 97, 53
1, 204660, Note_on_c, 0, 89, 41
1, 204661, Control_c, 0, 64, 92
1, 204670, Note_off_c, 0, 82, 38
1, 204675, Control_c, 0, 64, 89
1, 204678, Note_on_c, 0, 85, 40
1, 204690, Control_c, 0, 64, 86
1, 204705, Control_c, 0, 64, 82
1, 204720, Control_c, 0, 64, 78
1, 204735, Control_c, 0, 64, 74
1, 204750, Control_c, 0, 64, 70
1, 204771, Control_c, 0, 64, 66
1, 204786, Control_c, 0, 64, 62
1, 204801, Control_c, 0, 64, 57
1, 204816, Control_c, 0, 64, 51
1, 204831, Control_c, 0, 64, 49
1, 204846, Control_c, 0, 64, 51
1, 204861, Control_c, 0, 64, 55
1, 204875, Control_c, 0, 64, 58
1, 204890, Control_c, 0, 64, 61
1, 204906, Control_c, 0, 64, 64
1, 204921, Control_c, 0, 64, 68
1, 204932, Note_off_c, 0, 80, 52
1, 204935, Control_c, 0, 64, 73
1, 204950, Control_c, 0, 64, 82
1, 204965, Control_c, 0, 64, 94
1, 204980, Control_c, 0, 64, 116
1, 204995, Control_c, 0, 64, 127
1, 205208, Note_off_c, 0, 85, 34
1, 205233, Note_on_c, 0, 77, 39
1, 205364, Note_off_c, 0, 89, 32
1, 205436, Note_off_c, 0, 77, 31
1, 205468, Note_on_c, 0, 75, 44
1, 205539, Note_on_c, 0, 73, 49
1, 205553, Note_off_c, 0, 75, 45
1, 205717, Note_off_c, 0, 73, 36
1, 205750, Note_on_c, 0, 68, 47
1, 205803, Note_off_c, 0, 68, 59
1, 205946, Note_on_c, 0, 65, 43
1, 206083, Note_off_c, 0, 65, 50
1, 206139, Note_on_c, 0, 61, 50
1, 206174, Note_off_c, 0, 61, 63
1, 206333, Note_on_c, 0, 58, 35
1, 206354, Note_off_c, 0, 97, 27
1, 206375, Note_off_c, 0, 58, 50
1, 206389, Note_on_c, 0, 56, 44
1, 206592, Note_off_c, 0, 56, 39
1, 206621, Note_on_c, 0, 53, 44
1, 206979, Note_on_c, 0, 49, 39
1, 207489, Note_on_c, 0, 44, 50
1, 208035, Note_on_c, 0, 41, 50
1, 208250, Note_off_c, 0, 53, 37
1, 208385, Note_off_c, 0, 49, 33
1, 208432, Note_off_c, 0, 41, 33
1, 208501, Note_off_c, 0, 44, 35
1, 208940, Note_on_c, 0, 49, 63
1, 208949, Note_on_c, 0, 37, 57
1, 208975, Control_c, 0, 64, 123
1, 208990, Control_c, 0, 64, 112
1, 209005, Control_c, 0, 64, 105
1, 209019, Control_c, 0, 64, 100
1, 209034, Control_c, 0, 64, 95
1, 209049, Control_c, 0, 64, 89
1, 209064, Control_c, 0, 64, 82
1, 209079, Control_c, 0, 64, 77
1, 209093, Control_c, 0, 64, 72
1, 209108, Control_c, 0, 64, 66
1, 209123, Control_c, 0, 64, 62
1, 209138, Control_c, 0, 64, 55
1, 209153, Control_c, 0, 64, 49
1, 209168, Control_c, 0, 64, 47
1, 209183, Control_c, 0, 64, 48
1, 209198, Control_c, 0, 64, 50
1, 209213, Control_c, 0, 64, 52
1, 209227, Control_c, 0, 64, 55
1, 209249, Control_c, 0, 64, 58
1, 209264, Control_c, 0, 64, 60
1, 209279, Control_c, 0, 64, 62
1, 209294, Control_c, 0, 64, 64
1, 209308, Control_c, 0, 64, 68
1, 209323, Control_c, 0, 64, 74
1, 209338, Control_c, 0, 64, 85
1, 209353, Control_c, 0, 64, 100
1, 209368, Control_c, 0, 64, 127
1, 209496, Note_off_c, 0, 49, 30
1, 209576, Note_off_c, 0, 37, 32
1, 210187, Note_on_c, 0, 50, 57
1, 210209, Note_on_c, 0, 38, 41
1, 210265, Control_c, 0, 64, 111
1, 210280, Control_c, 0, 64, 100
1, 210295, Control_c, 0, 64, 91
1, 210309, Control_c, 0, 64, 81
1, 210324, Control_c, 0, 64, 73
1, 210339, Control_c, 0, 64, 67
1, 210353, Control_c, 0, 64, 63
1, 210368, Control_c, 0, 64, 59
1, 210382, Control_c, 0, 64, 55
1, 210397, Control_c, 0, 64, 50
1, 210412, Control_c, 0, 64, 49
1, 210427, Control_c, 0, 64, 51
1, 210442, Control_c, 0, 64, 54
1, 210456, Control_c, 0, 64, 58
1, 210471, Control_c, 0, 64, 61
1, 210486, Control_c, 0, 64, 65
1, 210502, Control_c, 0, 64, 72
1, 210517, Control_c, 0, 64, 84
1, 210522, Note_on_c, 0, 54, 40
1, 210532, Control_c, 0, 64, 113
1, 210546, Control_c, 0, 64, 127
1, 210612, Note_off_c, 0, 54, 56
1, 210659, Note_on_c, 0, 59, 39
1, 210668, Note_on_c, 0, 66, 24
1, 210695, Note_off_c, 0, 38, 37
1, 210697, Note_off_c, 0, 50, 61
1, 210706, Note_off_c, 0, 66, 50
1, 210726, Note_off_c, 0, 59, 59
1, 210763, Note_on_c, 0, 54, 41
1, 210801, Note_off_c, 0, 54, 64
1, 210819, Note_on_c, 0, 66, 45
1, 210866, Note_on_c, 0, 59, 42
1, 210873, Note_off_c, 0, 66, 51
1, 210897, Note_on_c, 0, 54, 60
1, 210899, Note_off_c, 0, 59, 63
1, 210928, Note_off_c, 0, 54, 65
1, 211027, Note_on_c, 0, 54, 57
1, 211030, Note_on_c, 0, 42, 45
1, 211180, Note_off_c, 0, 42, 60
1, 211189, Note_on_c, 0, 66, 40
1, 211193, Note_off_c, 0, 54, 62
1, 211219, Note_off_c, 0, 66, 56
1, 211240, Note_on_c, 0, 71, 44
1, 211243, Note_on_c, 0, 78, 42
1, 211273, Note_off_c, 0, 78, 58
1, 211293, Note_off_c, 0, 71, 63
1, 211305, Note_on_c, 0, 56, 71
1, 211312, Note_on_c, 0, 44, 51
1, 211325, Note_on_c, 0, 66, 44
1, 211355, Note_off_c, 0, 44, 63
1, 211359, Note_off_c, 0, 66, 62
1, 211366, Note_on_c, 0, 78, 63
1, 211408, Note_off_c, 0, 56, 62
1, 211418, Note_off_c, 0, 78, 58
1, 211439, Note_on_c, 0, 45, 63
1, 211457, Note_on_c, 0, 66, 51
1, 211492, Note_off_c, 0, 66, 62
1, 211520, Note_on_c, 0, 57, 58
1, 211555, Control_c, 0, 64, 121
1, 211570, Control_c, 0, 64, 79
1, 211585, Control_c, 0, 64, 60
1, 211597, Note_on_c, 0, 62, 78
1, 211600, Control_c, 0, 64, 21
1, 211615, Control_c, 0, 64, 31
1, 211629, Control_c, 0, 64, 53
1, 211644, Control_c, 0, 64, 64
1, 211651, Note_off_c, 0, 62, 65
1, 211659, Control_c, 0, 64, 78
1, 211674, Control_c, 0, 64, 127
1, 211746, Note_off_c, 0, 45, 55
1, 211789, Note_on_c, 0, 78, 48
1, 211815, Note_off_c, 0, 78, 56
1, 211843, Note_on_c, 0, 90, 61
1, 211850, Note_on_c, 0, 83, 54
1, 211853, Note_off_c, 0, 57, 63
1, 211892, Note_off_c, 0, 90, 61
1, 211913, Note_off_c, 0, 83, 64
1, 211918, Note_on_c, 0, 78, 62
1, 211972, Note_off_c, 0, 78, 58
1, 211986, Note_on_c, 0, 83, 61
1, 211989, Note_on_c, 0, 90, 68
1, 212039, Note_off_c, 0, 90, 59
1, 212043, Note_off_c, 0, 83, 64
1, 212050, Note_on_c, 0, 78, 69
1, 212111, Note_off_c, 0, 78, 63
1, 212119, Note_on_c, 0, 66, 78
1, 212134, Note_on_c, 0, 90, 71
1, 212142, Note_on_c, 0, 83, 64
1, 212146, Note_off_c, 0, 66, 66
1, 212190, Note_off_c, 0, 90, 62
1, 212198, Note_off_c, 0, 83, 64
1, 212207, Note_on_c, 0, 78, 71
1, 212263, Note_off_c, 0, 78, 61
1, 212264, Note_on_c, 0, 47, 63
1, 212294, Note_on_c, 0, 90, 71
1, 212295, Note_off_c, 0, 47, 64
1, 212304, Note_on_c, 0, 59, 73
1, 212310, Note_on_c, 0, 83, 53
1, 212329, Note_off_c, 0, 59, 66
1, 212334, Note_off_c, 0, 90, 59
1, 212346, Note_off_c, 0, 83, 65
1, 212358, Note_on_c, 0, 78, 69
1, 212374, Note_on_c, 0, 68, 88
1, 212393, Note_off_c, 0, 78, 65
1, 212393, Note_off_c, 0, 68, 71
1, 212431, Note_on_c, 0, 90, 66
1, 212432, Note_on_c, 0, 83, 56
1, 212472, Note_on_c, 0, 78, 79
1, 212474, Note_off_c, 0, 83, 61
1, 212497, Control_c, 0, 64, 84
1, 212500, Note_on_c, 0, 49, 75
1, 212509, Note_off_c, 0, 90, 48
1, 212512, Control_c, 0, 64, 63
1, 212520, Note_off_c, 0, 78, 60
1, 212526, Control_c, 0, 64, 44
1, 212533, Note_off_c, 0, 49, 63
1, 212541, Control_c, 0, 64, 57
1, 212556, Control_c, 0, 64, 65
1, 212559, Note_on_c, 0, 61, 68
1, 212570, Control_c, 0, 64, 75
1, 212585, Control_c, 0, 64, 116
1, 212590, Note_off_c, 0, 61, 66
1, 212600, Control_c, 0, 64, 127
1, 212636, Note_on_c, 0, 69, 88
1, 212700, Note_off_c, 0, 69, 62
1, 212747, Note_on_c, 0, 90, 68
1, 212807, Note_off_c, 0, 90, 64
1, 212820, Note_on_c, 0, 95, 68
1, 212822, Note_on_c, 0, 102, 75
1, 212883, Note_off_c, 0, 102, 62
1, 212885, Note_off_c, 0, 95, 65
1, 212888, Note_on_c, 0, 90, 74
1, 212923, Note_on_c, 0, 47, 56
1, 212953, Note_off_c, 0, 47, 64
1, 212960, Note_off_c, 0, 90, 62
1, 212979, Note_on_c, 0, 95, 69
1, 212983, Note_on_c, 0, 102, 74
1, 212994, Note_on_c, 0, 59, 59
1, 213023, Note_off_c, 0, 59, 65
1, 213040, Note_off_c, 0, 102, 57
1, 213051, Note_off_c, 0, 95, 64
1, 213058, Note_on_c, 0, 90, 70
1, 213071, Note_on_c, 0, 62, 62
1, 213130, Note_on_c, 0, 66, 70
1, 213202, Note_on_c, 0, 71, 79
1, 213226, Note_off_c, 0, 90, 55
1, 213227, Note_on_c, 0, 95, 55
1, 213234, Note_on_c, 0, 102, 60
1, 213298, Note_off_c, 0, 102, 64
1, 213323, Note_off_c, 0, 71, 59
1, 213338, Note_off_c, 0, 95, 65
1, 213348, Note_on_c, 0, 90, 59
1, 213365, Note_off_c, 0, 66, 61
1, 213377, Note_off_c, 0, 90, 65
1, 213380, Note_off_c, 0, 62, 63
1, 213470, Note_on_c, 0, 90, 57
1, 213479, Note_on_c, 0, 83, 62
1, 213525, Note_off_c, 0, 90, 58
1, 213542, Note_off_c, 0, 83, 63
1, 213556, Note_on_c, 0, 57, 66
1, 213559, Note_on_c, 0, 78, 64
1, 213568, Note_on_c, 0, 45, 55
1, 213612, Note_off_c, 0, 78, 59
1, 213643, Note_on_c, 0, 90, 59
1, 213664, Note_on_c, 0, 83, 55
1, 213675, Note_off_c, 0, 45, 62
1, 213684, Note_off_c, 0, 57, 63
1, 213700, Note_off_c, 0, 90, 60
1, 213704, Note_off_c, 0, 83, 63
1, 213721, Note_on_c, 0, 78, 65
1, 213784, Note_off_c, 0, 78, 55
1, 213809, Note_on_c, 0, 90, 61
1, 213811, Note_on_c, 0, 56, 77
1, 213811, Note_on_c, 0, 83, 60
1, 213827, Note_on_c, 0, 44, 64
1, 213838, Note_off_c, 0, 90, 67
1, 213869, Note_off_c, 0, 83, 63
1, 213883, Note_on_c, 0, 78, 63
1, 213904, Note_off_c, 0, 78, 65
1, 213955, Note_off_c, 0, 56, 62
1, 213964, Note_off_c, 0, 44, 62
1, 213967, Note_on_c, 0, 78, 69
1, 213970, Note_on_c, 0, 71, 71
1, 214006, Note_off_c, 0, 78, 62
1, 214027, Note_off_c, 0, 71, 63
1, 214045, Note_on_c, 0, 66, 69
1, 214048, Note_on_c, 0, 54, 84
1, 214057, Note_on_c, 0, 42, 74
1, 214097, Note_off_c, 0, 66, 59
1, 214107, Note_on_c, 0, 78, 72
1, 214111, Note_on_c, 0, 71, 64
1, 214152, Note_off_c, 0, 78, 59
1, 214167, Note_off_c, 0, 71, 61
1, 214179, Note_on_c, 0, 66, 65
1, 214195, Note_off_c, 0, 42, 62
1, 214196, Note_off_c, 0, 54, 63
1, 214224, Note_off_c, 0, 66, 63
1, 214242, Note_on_c, 0, 71, 63
1, 214259, Note_on_c, 0, 78, 59
1, 214268, Note_on_c, 0, 52, 84
1, 214284, Note_on_c, 0, 40, 70
1, 214288, Note_off_c, 0, 78, 65
1, 214289, Control_c, 0, 64, 105
1, 214304, Note_off_c, 0, 71, 63
1, 214304, Control_c, 0, 64, 78
1, 214319, Control_c, 0, 64, 62
1, 214324, Note_on_c, 0, 66, 58
1, 214334, Control_c, 0, 64, 50
1, 214348, Note_off_c, 0, 66, 59
1, 214349, Control_c, 0, 64, 54
1, 214364, Control_c, 0, 64, 58
1, 214379, Control_c, 0, 64, 61
1, 214393, Control_c, 0, 64, 65
1, 214408, Control_c, 0, 64, 77
1, 214423, Control_c, 0, 64, 111
1, 214429, Note_on_c, 0, 59, 60
1, 214438, Control_c, 0, 64, 127
1, 214450, Note_off_c, 0, 52, 61
1, 214456, Note_on_c, 0, 66, 39
1, 214457, Note_off_c, 0, 40, 60
1, 214505, Note_off_c, 0, 66, 49
1, 214514, Note_on_c, 0, 54, 66
1, 214514, Note_off_c, 0, 59, 59
1, 214543, Note_on_c, 0, 50, 78
1, 214563, Note_on_c, 0, 38, 66
1, 214594, Note_off_c, 0, 54, 60
1, 214620, Note_on_c, 0, 66, 46
1, 214624, Control_c, 0, 64, 107
1, 214638, Control_c, 0, 64, 88
1, 214647, Note_on_c, 0, 59, 51
1, 214653, Control_c, 0, 64, 73
1, 214668, Control_c, 0, 64, 61
1, 214683, Control_c, 0, 64, 37
1, 214698, Control_c, 0, 64, 25
1, 214712, Control_c, 0, 64, 28
1, 214721, Note_on_c, 0, 54, 56
1, 214727, Control_c, 0, 64, 36
1, 214734, Note_off_c, 0, 66, 54
1, 214742, Control_c, 0, 64, 45
1, 214757, Control_c, 0, 64, 54
1, 214772, Control_c, 0, 64, 61
1, 214774, Note_off_c, 0, 38, 58
1, 214787, Control_c, 0, 64, 69
1, 214792, Note_off_c, 0, 59, 33
1, 214802, Control_c, 0, 64, 81
1, 214806, Note_off_c, 0, 50, 60
1, 214817, Control_c, 0, 64, 127
1, 214881, Note_off_c, 0, 54, 61
1, 214952, Note_on_c, 0, 49, 66
1, 214969, Note_on_c, 0, 37, 52
1, 215054, Control_c, 0, 64, 111
1, 215069, Control_c, 0, 64, 86
1, 215084, Control_c, 0, 64, 71
1, 215099, Control_c, 0, 64, 59
1, 215113, Control_c, 0, 64, 30
1, 215128, Control_c, 0, 64, 9
1, 215143, Control_c, 0, 64, 11
1, 215154, Note_on_c, 0, 52, 40
1, 215157, Control_c, 0, 64, 21
1, 215172, Control_c, 0, 64, 34
1, 215187, Control_c, 0, 64, 48
1, 215202, Control_c, 0, 64, 60
1, 215217, Control_c, 0, 64, 67
1, 215223, Note_off_c, 0, 52, 61
1, 215239, Control_c, 0, 64, 76
1, 215254, Control_c, 0, 64, 105
1, 215264, Note_on_c, 0, 59, 49
1, 215264, Note_on_c, 0, 64, 47
1, 215269, Control_c, 0, 64, 127
1, 215312, Note_off_c, 0, 64, 57
1, 215317, Note_off_c, 0, 59, 61
1, 215344, Note_on_c, 0, 52, 53
1, 215356, Note_off_c, 0, 49, 57
1, 215362, Note_off_c, 0, 37, 32
1, 215367, Note_off_c, 0, 52, 63
1, 215414, Note_on_c, 0, 64, 43
1, 215434, Note_on_c, 0, 59, 38
1, 215454, Note_off_c, 0, 64, 45
1, 215456, Note_on_c, 0, 52, 54
1, 215469, Note_off_c, 0, 59, 61
1, 215487, Note_off_c, 0, 52, 67
1, 215567, Note_on_c, 0, 52, 59
1, 215574, Note_on_c, 0, 40, 54
1, 215665, Note_on_c, 0, 64, 57
1, 215679, Note_off_c, 0, 40, 56
1, 215684, Note_off_c, 0, 52, 62
1, 215709, Note_off_c, 0, 64, 59
1, 215729, Note_on_c, 0, 71, 60
1, 215750, Note_on_c, 0, 76, 52
1, 215769, Note_off_c, 0, 71, 59
1, 215784, Note_off_c, 0, 76, 66
1, 215805, Note_on_c, 0, 42, 68
1, 215809, Note_on_c, 0, 54, 75
1, 215819, Note_on_c, 0, 64, 54
1, 215840, Note_off_c, 0, 64, 63
1, 215848, Note_off_c, 0, 42, 62
1, 215864, Note_on_c, 0, 76, 58
1, 215886, Note_on_c, 0, 71, 48
1, 215893, Note_off_c, 0, 54, 62
1, 215893, Note_off_c, 0, 76, 65
1, 215911, Note_off_c, 0, 71, 55
1, 215920, Note_on_c, 0, 64, 58
1, 215930, Note_on_c, 0, 44, 69
1, 215952, Note_off_c, 0, 64, 61
1, 216010, Note_on_c, 0, 56, 68
1, 216032, Control_c, 0, 64, 92
1, 216047, Control_c, 0, 64, 67
1, 216062, Control_c, 0, 64, 27
1, 216076, Control_c, 0, 64, 0
1, 216082, Note_on_c, 0, 61, 82
1, 216107, Control_c, 0, 64, 40
1, 216122, Control_c, 0, 64, 63
1, 216137, Control_c, 0, 64, 78
1, 216150, Note_off_c, 0, 61, 65
1, 216152, Control_c, 0, 64, 127
1, 216277, Note_on_c, 0, 76, 61
1, 216320, Note_off_c, 0, 76, 62
1, 216322, Note_off_c, 0, 44, 35
1, 216349, Note_on_c, 0, 83, 56
1, 216355, Note_on_c, 0, 88, 61
1, 216367, Note_off_c, 0, 56, 62
1, 216393, Note_off_c, 0, 83, 59
1, 216414, Note_off_c, 0, 88, 64
1, 216421, Note_on_c, 0, 76, 67
1, 216463, Note_off_c, 0, 76, 64
1, 216480, Note_on_c, 0, 83, 73
1, 216495, Note_on_c, 0, 88, 56
1, 216535, Note_off_c, 0, 83, 56
1, 216547, Note_off_c, 0, 88, 63
1, 216554, Note_on_c, 0, 76, 71
1, 216596, Note_off_c, 0, 76, 64
1, 216596, Note_on_c, 0, 64, 74
1, 216620, Note_off_c, 0, 64, 68
1, 216625, Note_on_c, 0, 85, 71
1, 216627, Note_on_c, 0, 88, 66
1, 216688, Note_off_c, 0, 88, 61
1, 216689, Note_off_c, 0, 85, 64
1, 216701, Note_on_c, 0, 45, 72
1, 216704, Note_on_c, 0, 76, 70
1, 216727, Note_off_c, 0, 45, 66
1, 216760, Note_off_c, 0, 76, 63
1, 216760, Note_on_c, 0, 57, 74
1, 216785, Note_off_c, 0, 57, 67
1, 216792, Note_on_c, 0, 88, 62
1, 216797, Note_on_c, 0, 85, 68
1, 216821, Note_off_c, 0, 88, 66
1, 216826, Note_off_c, 0, 85, 68
1, 216827, Note_on_c, 0, 66, 85
1, 216848, Note_off_c, 0, 66, 71
1, 216869, Note_on_c, 0, 76, 51
1, 216890, Note_off_c, 0, 76, 59
1, 216912, Note_on_c, 0, 88, 60
1, 216919, Note_on_c, 0, 85, 62
1, 216944, Control_c, 0, 64, 77
1, 216948, Note_off_c, 0, 88, 56
1, 216958, Note_on_c, 0, 76, 76
1, 216959, Control_c, 0, 64, 53
1, 216970, Note_on_c, 0, 47, 76
1, 216974, Control_c, 0, 64, 0
1, 216988, Control_c, 0, 64, 47
1, 217001, Note_off_c, 0, 47, 67
1, 217002, Note_off_c, 0, 76, 60
1, 217003, Control_c, 0, 64, 61
1, 217011, Note_off_c, 0, 85, 64
1, 217015, Note_on_c, 0, 59, 79
1, 217018, Control_c, 0, 64, 73
1, 217033, Control_c, 0, 64, 104
1, 217040, Note_off_c, 0, 59, 67
1, 217047, Control_c, 0, 64, 127
1, 217106, Note_on_c, 0, 68, 88
1, 217162, Note_off_c, 0, 68, 56
1, 217196, Poly_aftertouch_c, 0, 69, 127
1, 217221, Poly_aftertouch_c, 0, 69, 0
1, 217230, Note_on_c, 0, 88, 75
1, 217293, Note_off_c, 0, 88, 62
1, 217306, Note_on_c, 0, 92, 75
1, 217307, Note_on_c, 0, 100, 77
1, 217368, Note_off_c, 0, 92, 64
1, 217374, Note_on_c, 0, 88, 77
1, 217380, Note_on_c, 0, 45, 69
1, 217381, Note_off_c, 0, 100, 64
1, 217419, Note_off_c, 0, 45, 64
1, 217438, Note_off_c, 0, 88, 64
1, 217455, Note_on_c, 0, 57, 70
1, 217464, Note_on_c, 0, 92, 75
1, 217467, Note_on_c, 0, 100, 67
1, 217490, Note_off_c, 0, 57, 66
1, 217536, Note_off_c, 0, 92, 64
1, 217538, Note_on_c, 0, 61, 73
1, 217541, Note_on_c, 0, 88, 70
1, 217549, Note_off_c, 0, 100, 64
1, 217585, Note_on_c, 0, 64, 63
1, 217652, Note_on_c, 0, 69, 83
1, 217662, Control_c, 0, 64, 105
1, 217675, Note_off_c, 0, 88, 58
1, 217677, Control_c, 0, 64, 79
1, 217689, Note_on_c, 0, 100, 63
1, 217693, Control_c, 0, 64, 67
1, 217708, Control_c, 0, 64, 59
1, 217728, Note_on_c, 0, 92, 46
1, 217735, Note_off_c, 0, 69, 64
1, 217737, Control_c, 0, 64, 63
1, 217752, Control_c, 0, 64, 66
1, 217753, Note_off_c, 0, 100, 65
1, 217762, Note_off_c, 0, 64, 64
1, 217767, Note_off_c, 0, 92, 65
1, 217767, Control_c, 0, 64, 73
1, 217782, Control_c, 0, 64, 92
1, 217788, Note_off_c, 0, 61, 62
1, 217796, Control_c, 0, 64, 127
1, 217798, Note_on_c, 0, 88, 55
1, 217821, Note_off_c, 0, 88, 65
1, 217898, Note_on_c, 0, 88, 61
1, 217910, Note_on_c, 0, 81, 66
1, 217966, Note_off_c, 0, 88, 64
1, 217971, Note_off_c, 0, 81, 63
1, 217993, Note_on_c, 0, 56, 70
1, 217998, Note_on_c, 0, 76, 68
1, 218015, Note_on_c, 0, 44, 56
1, 218039, Note_off_c, 0, 76, 59
1, 218073, Note_on_c, 0, 88, 65
1, 218081, Note_on_c, 0, 81, 60
1, 218108, Note_off_c, 0, 56, 62
1, 218117, Note_off_c, 0, 81, 64
1, 218126, Note_off_c, 0, 88, 62
1, 218128, Note_off_c, 0, 44, 62
1, 218147, Note_on_c, 0, 76, 68
1, 218185, Note_off_c, 0, 76, 63
1, 218221, Note_on_c, 0, 81, 66
1, 218227, Note_on_c, 0, 54, 80
1, 218242, Note_on_c, 0, 88, 60
1, 218244, Note_on_c, 0, 42, 69
1, 218266, Note_off_c, 0, 88, 66
1, 218272, Note_off_c, 0, 81, 59
1, 218295, Note_on_c, 0, 76, 69
1, 218322, Note_off_c, 0, 76, 69
1, 218372, Note_off_c, 0, 42, 61
1, 218376, Note_off_c, 0, 54, 63
1, 218388, Note_on_c, 0, 76, 59
1, 218389, Note_on_c, 0, 69, 68
1, 218427, Note_off_c, 0, 76, 61
1, 218441, Note_off_c, 0, 69, 58
1, 218456, Note_on_c, 0, 52, 86
1, 218462, Note_on_c, 0, 64, 67
1, 218470, Note_on_c, 0, 40, 74
1, 218514, Note_off_c, 0, 64, 60
1, 218539, Note_on_c, 0, 76, 66
1, 218543, Note_on_c, 0, 69, 68
1, 218581, Note_off_c, 0, 69, 58
1, 218583, Note_off_c, 0, 52, 60
1, 218583, Note_off_c, 0, 76, 53
1, 218595, Note_off_c, 0, 40, 60
1, 218603, Note_on_c, 0, 64, 70
1, 218646, Note_off_c, 0, 64, 62
1, 218671, Note_on_c, 0, 50, 89
1, 218680, Note_on_c, 0, 38, 77
1, 218684, Note_on_c, 0, 69, 67
1, 218692, Note_on_c, 0, 76, 53
1, 218694, Control_c, 0, 64, 82
1, 218709, Control_c, 0, 64, 65
1, 218710, Note_off_c, 0, 76, 64
1, 218723, Note_off_c, 0, 69, 60
1, 218724, Control_c, 0, 64, 53
1, 218739, Control_c, 0, 64, 55
1, 218754, Control_c, 0, 64, 61
1, 218754, Note_on_c, 0, 64, 56
1, 218768, Control_c, 0, 64, 64
1, 218771, Note_off_c, 0, 64, 66
1, 218783, Control_c, 0, 64, 70
1, 218798, Control_c, 0, 64, 83
1, 218812, Control_c, 0, 64, 127
1, 218819, Note_off_c, 0, 38, 60
1, 218826, Note_off_c, 0, 50, 60
1, 218844, Note_on_c, 0, 64, 54
1, 218857, Note_on_c, 0, 57, 62
1, 218880, Note_off_c, 0, 64, 57
1, 218915, Note_on_c, 0, 49, 84
1, 218921, Note_off_c, 0, 57, 42
1, 218933, Note_on_c, 0, 37, 67
1, 218936, Note_on_c, 0, 52, 62
1, 218960, Control_c, 0, 64, 92
1, 218983, Control_c, 0, 64, 68
1, 218998, Control_c, 0, 64, 47
1, 219012, Control_c, 0, 64, 0
1, 219029, Note_off_c, 0, 52, 62
1, 219044, Note_on_c, 0, 64, 58
1, 219048, Note_on_c, 0, 57, 59
1, 219057, Control_c, 0, 64, 21
1, 219072, Control_c, 0, 64, 45
1, 219086, Control_c, 0, 64, 59
1, 219101, Control_c, 0, 64, 68
1, 219116, Control_c, 0, 64, 81
1, 219119, Note_off_c, 0, 64, 59
1, 219131, Control_c, 0, 64, 127
1, 219134, Note_on_c, 0, 52, 70
1, 219145, Note_off_c, 0, 57, 53
1, 219167, Note_off_c, 0, 49, 48
1, 219181, Note_off_c, 0, 37, 33
1, 219249, Note_off_c, 0, 52, 58
1, 219321, Note_on_c, 0, 48, 76
1, 219339, Note_on_c, 0, 36, 63
1, 219354, Control_c, 0, 64, 109
1, 219369, Control_c, 0, 64, 89
1, 219383, Control_c, 0, 64, 73
1, 219398, Control_c, 0, 64, 60
1, 219413, Control_c, 0, 64, 0
1, 219473, Control_c, 0, 64, 29
1, 219488, Control_c, 0, 64, 46
1, 219502, Control_c, 0, 64, 58
1, 219517, Control_c, 0, 64, 65
1, 219532, Control_c, 0, 64, 74
1, 219541, Note_on_c, 0, 52, 49
1, 219547, Control_c, 0, 64, 93
1, 219562, Control_c, 0, 64, 127
1, 219601, Note_off_c, 0, 52, 62
1, 219633, Note_on_c, 0, 57, 52
1, 219635, Note_on_c, 0, 64, 45
1, 219648, Note_off_c, 0, 36, 45
1, 219677, Note_off_c, 0, 64, 59
1, 219681, Note_off_c, 0, 48, 54
1, 219685, Note_off_c, 0, 57, 61
1, 219714, Note_on_c, 0, 52, 53
1, 219747, Note_off_c, 0, 52, 60
1, 219788, Note_on_c, 0, 64, 49
1, 219798, Note_on_c, 0, 57, 43
1, 219829, Note_on_c, 0, 52, 66
1, 219836, Note_off_c, 0, 57, 63
1, 219865, Note_off_c, 0, 52, 65
1, 219913, Note_off_c, 0, 64, 56
1, 219937, Note_on_c, 0, 52, 55
1, 219953, Note_on_c, 0, 40, 53
1, 220033, Note_on_c, 0, 64, 64
1, 220049, Note_off_c, 0, 52, 64
1, 220054, Note_off_c, 0, 40, 59
1, 220092, Note_off_c, 0, 64, 62
1, 220114, Note_on_c, 0, 69, 61
1, 220127, Note_on_c, 0, 76, 63
1, 220164, Note_off_c, 0, 69, 61
1, 220176, Note_off_c, 0, 76, 56
1, 220180, Note_on_c, 0, 54, 80
1, 220182, Note_on_c, 0, 42, 70
1, 220205, Note_on_c, 0, 64, 57
1, 220224, Note_off_c, 0, 42, 63
1, 220234, Note_off_c, 0, 64, 62
1, 220259, Note_on_c, 0, 69, 65
1, 220266, Note_on_c, 0, 76, 44
1, 220269, Note_off_c, 0, 54, 62
1, 220293, Note_off_c, 0, 76, 53
1, 220293, Note_off_c, 0, 69, 64
1, 220309, Note_on_c, 0, 44, 71
1, 220314, Note_on_c, 0, 64, 65
1, 220346, Note_off_c, 0, 64, 64
1, 220370, Note_on_c, 0, 56, 76
1, 220384, Control_c, 0, 64, 92
1, 220399, Control_c, 0, 64, 65
1, 220414, Control_c, 0, 64, 0
1, 220443, Note_on_c, 0, 60, 83
1, 220458, Control_c, 0, 64, 42
1, 220473, Control_c, 0, 64, 65
1, 220495, Control_c, 0, 64, 81
1, 220508, Note_off_c, 0, 60, 64
1, 220510, Control_c, 0, 64, 127
1, 220641, Note_on_c, 0, 76, 53
1, 220642, Note_off_c, 0, 44, 54
1, 220666, Note_off_c, 0, 76, 56
1, 220677, Note_on_c, 0, 77, 16
1, 220701, Note_on_c, 0, 81, 70
1, 220710, Note_on_c, 0, 88, 66
1, 220711, Note_off_c, 0, 56, 63
1, 220719, Note_off_c, 0, 77, 29
1, 220751, Note_off_c, 0, 81, 63
1, 220751, Note_off_c, 0, 88, 56
1, 220767, Note_on_c, 0, 76, 69
1, 220818, Note_off_c, 0, 76, 64
1, 220829, Note_on_c, 0, 81, 66
1, 220853, Note_on_c, 0, 88, 62
1, 220880, Note_off_c, 0, 81, 61
1, 220886, Note_off_c, 0, 88, 67
1, 220886, Note_on_c, 0, 76, 73
1, 220940, Note_off_c, 0, 76, 64
1, 220945, Note_on_c, 0, 64, 81
1, 220965, Note_on_c, 0, 84, 71
1, 220966, Note_on_c, 0, 88, 70
1, 220966, Note_off_c, 0, 64, 71
1, 221008, Note_off_c, 0, 88, 58
1, 221016, Note_off_c, 0, 84, 63
1, 221035, Note_on_c, 0, 76, 69
1, 221062, Poly_aftertouch_c, 0, 62, 0
1, 221063, Note_on_c, 0, 45, 68
1, 221072, Note_off_c, 0, 76, 64
1, 221090, Note_off_c, 0, 45, 66
1, 221110, Note_on_c, 0, 88, 70
1, 221114, Note_on_c, 0, 57, 64
1, 221118, Note_on_c, 0, 84, 63
1, 221137, Note_off_c, 0, 57, 64
1, 221143, Note_off_c, 0, 88, 64
1, 221146, Note_off_c, 0, 84, 68
1, 221169, Note_on_c, 0, 76, 72
1, 221178, Note_on_c, 0, 66, 84
1, 221194, Note_off_c, 0, 76, 73
1, 221199, Note_off_c, 0, 66, 71
1, 221242, Note_on_c, 0, 84, 59
1, 221247, Note_on_c, 0, 88, 63
1, 221287, Note_on_c, 0, 76, 78
1, 221288, Note_off_c, 0, 84, 51
1, 221303, Control_c, 0, 64, 75
1, 221308, Note_off_c, 0, 88, 55
1, 221318, Control_c, 0, 64, 51
1, 221320, Note_on_c, 0, 47, 77
1, 221333, Control_c, 0, 64, 40
1, 221342, Note_off_c, 0, 76, 63
1, 221348, Control_c, 0, 64, 59
1, 221350, Note_off_c, 0, 47, 67
1, 221363, Control_c, 0, 64, 67
1, 221369, Note_on_c, 0, 59, 77
1, 221378, Control_c, 0, 64, 81
1, 221393, Control_c, 0, 64, 127
1, 221395, Note_off_c, 0, 59, 68
1, 221460, Note_on_c, 0, 68, 92
1, 221524, Note_off_c, 0, 68, 59
1, 221591, Note_on_c, 0, 88, 73
1, 221652, Note_off_c, 0, 88, 60
1, 221666, Note_on_c, 0, 100, 79
1, 221669, Note_on_c, 0, 93, 73
1, 221731, Note_off_c, 0, 100, 63
1, 221732, Note_off_c, 0, 93, 65
1, 221741, Note_on_c, 0, 88, 80
1, 221765, Note_on_c, 0, 45, 63
1, 221797, Note_off_c, 0, 88, 62
1, 221798, Note_off_c, 0, 45, 63
1, 221819, Note_on_c, 0, 100, 80
1, 221822, Note_on_c, 0, 93, 77
1, 221831, Note_on_c, 0, 57, 69
1, 221860, Note_off_c, 0, 57, 66
1, 221890, Note_off_c, 0, 93, 64
1, 221893, Note_on_c, 0, 88, 80
1, 221896, Note_off_c, 0, 100, 61
1, 221923, Note_on_c, 0, 60, 61
1, 222011, Note_on_c, 0, 66, 78
1, 222038, Note_on_c, 0, 100, 66
1, 222045, Note_on_c, 0, 93, 63
1, 222046, Note_off_c, 0, 88, 62
1, 222130, Note_off_c, 0, 100, 65
1, 222135, Note_off_c, 0, 66, 61
1, 222156, Note_off_c, 0, 93, 66
1, 222164, Note_off_c, 0, 60, 63
1, 222166, Note_on_c, 0, 88, 60
1, 222194, Note_off_c, 0, 88, 66
1, 222271, Note_on_c, 0, 88, 63
1, 222289, Note_on_c, 0, 81, 61
1, 222314, Note_off_c, 0, 88, 54
1, 222344, Note_off_c, 0, 81, 61
1, 222351, Note_on_c, 0, 56, 68
1, 222366, Note_on_c, 0, 44, 57
1, 222367, Note_on_c, 0, 76, 66
1, 222424, Note_off_c, 0, 76, 56
1, 222436, Note_on_c, 0, 88, 67
1, 222451, Note_on_c, 0, 81, 62
1, 222472, Note_off_c, 0, 56, 62
1, 222480, Note_off_c, 0, 44, 62
1, 222490, Note_off_c, 0, 81, 62
1, 222501, Note_off_c, 0, 88, 63
1, 222519, Note_on_c, 0, 76, 69
1, 222555, Note_off_c, 0, 76, 64
1, 222584, Note_on_c, 0, 54, 79
1, 222591, Note_on_c, 0, 88, 67
1, 222593, Note_on_c, 0, 42, 68
1, 222594, Note_on_c, 0, 81, 66
1, 222626, Note_off_c, 0, 88, 66
1, 222637, Note_off_c, 0, 81, 62
1, 222650, Note_on_c, 0, 76, 79
1, 222673, Note_off_c, 0, 76, 70
1, 222713, Note_off_c, 0, 54, 63
1, 222718, Note_off_c, 0, 42, 62
1, 222751, Note_on_c, 0, 76, 68
1, 222755, Note_on_c, 0, 69, 72
1, 222798, Note_off_c, 0, 76, 53
1, 222805, Note_off_c, 0, 69, 59
1, 222814, Note_on_c, 0, 52, 88
1, 222823, Note_on_c, 0, 40, 74
1, 222824, Note_on_c, 0, 64, 64
1, 222846, Note_on_c, 0, 65, 50
1, 222868, Note_off_c, 0, 65, 58
1, 222871, Note_off_c, 0, 64, 59
1, 222892, Note_on_c, 0, 69, 73
1, 222897, Note_on_c, 0, 76, 71
1, 222933, Note_off_c, 0, 76, 53
1, 222938, Note_off_c, 0, 52, 61
1, 222948, Note_off_c, 0, 40, 61
1, 222950, Note_off_c, 0, 69, 63
1, 222952, Note_on_c, 0, 64, 73
1, 223008, Note_off_c, 0, 64, 61
1, 223018, Note_on_c, 0, 69, 65
1, 223032, Note_on_c, 0, 50, 90
1, 223032, Note_on_c, 0, 76, 68
1, 223043, Note_on_c, 0, 38, 79
1, 223053, Control_c, 0, 64, 83
1, 223063, Note_off_c, 0, 76, 64
1, 223068, Control_c, 0, 64, 63
1, 223083, Control_c, 0, 64, 48
1, 223091, Note_off_c, 0, 69, 63
1, 223098, Control_c, 0, 64, 55
1, 223107, Note_on_c, 0, 64, 61
1, 223113, Control_c, 0, 64, 62
1, 223127, Control_c, 0, 64, 68
1, 223136, Note_off_c, 0, 64, 64
1, 223142, Control_c, 0, 64, 82
1, 223157, Control_c, 0, 64, 127
1, 223173, Note_off_c, 0, 50, 61
1, 223181, Note_off_c, 0, 38, 60
1, 223199, Note_on_c, 0, 57, 70
1, 223205, Note_on_c, 0, 64, 56
1, 223247, Note_off_c, 0, 64, 62
1, 223260, Note_on_c, 0, 48, 88
1, 223270, Note_off_c, 0, 57, 61
1, 223272, Note_on_c, 0, 36, 77
1, 223275, Note_on_c, 0, 52, 75
1, 223291, Control_c, 0, 64, 110
1, 223306, Control_c, 0, 64, 78
1, 223321, Control_c, 0, 64, 62
1, 223336, Control_c, 0, 64, 30
1, 223351, Control_c, 0, 64, 0
1, 223363, Note_on_c, 0, 57, 71
1, 223363, Note_off_c, 0, 52, 63
1, 223365, Note_on_c, 0, 64, 70
1, 223366, Control_c, 0, 64, 20
1, 223381, Control_c, 0, 64, 37
1, 223396, Control_c, 0, 64, 52
1, 223411, Control_c, 0, 64, 63
1, 223425, Control_c, 0, 64, 72
1, 223435, Note_on_c, 0, 52, 84
1, 223440, Control_c, 0, 64, 104
1, 223442, Note_off_c, 0, 64, 62
1, 223455, Control_c, 0, 64, 127
1, 223465, Note_off_c, 0, 48, 56
1, 223482, Note_off_c, 0, 36, 55
1, 223495, Note_off_c, 0, 57, 53
1, 223589, Note_off_c, 0, 52, 60
1, 223622, Note_on_c, 0, 48, 90
1, 223631, Note_on_c, 0, 36, 74
1, 223699, Control_c, 0, 64, 95
1, 223714, Control_c, 0, 64, 71
1, 223729, Control_c, 0, 64, 44
1, 223744, Control_c, 0, 64, 0
1, 223788, Control_c, 0, 64, 32
1, 223802, Control_c, 0, 64, 51
1, 223812, Note_on_c, 0, 53, 64
1, 223817, Control_c, 0, 64, 65
1, 223832, Control_c, 0, 64, 75
1, 223847, Control_c, 0, 64, 106
1, 223862, Control_c, 0, 64, 127
1, 223864, Note_off_c, 0, 53, 59
1, 223881, Note_on_c, 0, 57, 71
1, 223892, Note_on_c, 0, 65, 63
1, 223894, Note_off_c, 0, 36, 56
1, 223934, Note_off_c, 0, 65, 54
1, 223944, Note_off_c, 0, 57, 63
1, 223962, Note_on_c, 0, 53, 65
1, 223978, Note_off_c, 0, 48, 59
1, 223992, Note_off_c, 0, 53, 65
1, 224019, Note_on_c, 0, 57, 57
1, 224042, Note_on_c, 0, 65, 45
1, 224066, Note_off_c, 0, 65, 56
1, 224068, Note_on_c, 0, 53, 76
1, 224091, Note_off_c, 0, 57, 62
1, 224117, Note_off_c, 0, 53, 63
1, 224168, Note_on_c, 0, 53, 72
1, 224182, Note_on_c, 0, 41, 68
1, 224290, Note_on_c, 0, 65, 62
1, 224306, Note_off_c, 0, 41, 61
1, 224323, Note_off_c, 0, 53, 61
1, 224347, Note_off_c, 0, 65, 60
1, 224362, Note_on_c, 0, 69, 69
1, 224371, Note_on_c, 0, 77, 63
1, 224402, Note_off_c, 0, 69, 60
1, 224408, Note_off_c, 0, 77, 64
1, 224425, Note_on_c, 0, 55, 94
1, 224433, Note_on_c, 0, 43, 80
1, 224439, Note_on_c, 0, 65, 70
1, 224465, Note_off_c, 0, 65, 67
1, 224469, Note_off_c, 0, 43, 65
1, 224505, Note_on_c, 0, 69, 70
1, 224516, Note_on_c, 0, 77, 50
1, 224518, Note_off_c, 0, 55, 59
1, 224534, Note_off_c, 0, 69, 62
1, 224540, Note_off_c, 0, 77, 55
1, 224565, Note_on_c, 0, 45, 82
1, 224570, Note_on_c, 0, 65, 61
1, 224600, Note_off_c, 0, 65, 64
1, 224625, Note_on_c, 0, 57, 90
1, 224639, Control_c, 0, 64, 82
1, 224654, Control_c, 0, 64, 52
1, 224669, Control_c, 0, 64, 0
1, 224685, Note_on_c, 0, 60, 95
1, 224713, Control_c, 0, 64, 47
1, 224728, Control_c, 0, 64, 68
1, 224742, Note_off_c, 0, 60, 66
1, 224743, Control_c, 0, 64, 106
1, 224758, Control_c, 0, 64, 127
1, 224812, Note_off_c, 0, 45, 59
1, 224865, Note_on_c, 0, 77, 76
1, 224903, Note_off_c, 0, 57, 61
1, 224911, Note_off_c, 0, 77, 62
1, 224929, Note_on_c, 0, 81, 77
1, 224936, Note_on_c, 0, 89, 73
1, 224990, Note_off_c, 0, 89, 62
1, 224991, Note_off_c, 0, 81, 62
1, 225009, Note_on_c, 0, 77, 79
1, 225051, Note_off_c, 0, 77, 61
1, 225066, Note_on_c, 0, 81, 82
1, 225074, Note_on_c, 0, 89, 83
1, 225120, Note_off_c, 0, 81, 65
1, 225131, Note_on_c, 0, 77, 85
1, 225139, Note_off_c, 0, 89, 63
1, 225171, Note_on_c, 0, 65, 82
1, 225188, Note_off_c, 0, 77, 59
1, 225192, Note_off_c, 0, 65, 69
1, 225199, Note_on_c, 0, 81, 89
1, 225203, Note_on_c, 0, 89, 79
1, 225269, Note_off_c, 0, 81, 64
1, 225274, Note_on_c, 0, 77, 91
1, 225286, Note_off_c, 0, 89, 63
1, 225289, Note_on_c, 0, 47, 76
1, 225316, Note_off_c, 0, 47, 65
1, 225330, Note_off_c, 0, 77, 64
1, 225345, Note_on_c, 0, 59, 74
1, 225358, Note_on_c, 0, 81, 82
1, 225360, Note_on_c, 0, 89, 79
1, 225370, Note_off_c, 0, 59, 68
1, 225400, Note_off_c, 0, 89, 58
1, 225405, Note_on_c, 0, 67, 73
1, 225412, Note_off_c, 0, 81, 66
1, 225423, Note_off_c, 0, 67, 66
1, 225426, Note_on_c, 0, 77, 77
1, 225428, Note_on_c, 0, 65, 40
1, 225453, Note_off_c, 0, 65, 56
1, 225453, Note_off_c, 0, 77, 60
1, 225476, Note_on_c, 0, 89, 84
1, 225485, Note_on_c, 0, 81, 81
1, 225527, Note_on_c, 0, 48, 80
1, 225540, Note_on_c, 0, 77, 91
1, 225566, Control_c, 0, 64, 76
1, 225571, Note_off_c, 0, 48, 65
1, 225572, Note_off_c, 0, 81, 63
1, 225575, Note_off_c, 0, 89, 52
1, 225581, Control_c, 0, 64, 50
1, 225594, Note_on_c, 0, 60, 71
1, 225596, Control_c, 0, 64, 54
1, 225605, Note_off_c, 0, 77, 62
1, 225611, Control_c, 0, 64, 65
1, 225618, Note_off_c, 0, 60, 70
1, 225625, Control_c, 0, 64, 75
1, 225640, Control_c, 0, 64, 127
1, 225662, Note_on_c, 0, 65, 79
1, 225729, Note_on_c, 0, 69, 99
1, 225864, Note_off_c, 0, 69, 60
1, 225872, Note_on_c, 0, 89, 81
1, 225917, Note_off_c, 0, 65, 58
1, 225930, Note_off_c, 0, 89, 61
1, 225944, Note_on_c, 0, 93, 79
1, 225949, Note_on_c, 0, 101, 78
1, 226010, Note_off_c, 0, 93, 66
1, 226012, Note_off_c, 0, 101, 63
1, 226016, Note_on_c, 0, 89, 89
1, 226073, Note_off_c, 0, 89, 62
1, 226091, Note_on_c, 0, 93, 91
1, 226096, Note_on_c, 0, 101, 86
1, 226159, Note_on_c, 0, 89, 89
1, 226159, Note_off_c, 0, 93, 67
1, 226175, Note_off_c, 0, 101, 65
1, 226254, Note_on_c, 0, 57, 77
1, 226266, Note_on_c, 0, 45, 66
1, 226283, Note_on_c, 0, 93, 78
1, 226287, Note_on_c, 0, 101, 81
1, 226302, Note_off_c, 0, 89, 61
1, 226388, Note_off_c, 0, 101, 65
1, 226412, Note_off_c, 0, 93, 66
1, 226417, Note_on_c, 0, 89, 73
1, 226444, Note_off_c, 0, 89, 67
1, 226493, Note_off_c, 0, 57, 60
1, 226507, Note_off_c, 0, 45, 62
1, 226539, Note_on_c, 0, 89, 75
1, 226550, Note_on_c, 0, 81, 72
1, 226602, Note_off_c, 0, 89, 61
1, 226603, Note_off_c, 0, 81, 64
1, 226618, Note_on_c, 0, 55, 80
1, 226625, Note_on_c, 0, 43, 71
1, 226630, Note_on_c, 0, 77, 75
1, 226676, Note_off_c, 0, 77, 62
1, 226698, Note_on_c, 0, 81, 76
1, 226707, Note_on_c, 0, 89, 72
1, 226737, Note_off_c, 0, 55, 61
1, 226746, Note_off_c, 0, 89, 59
1, 226751, Note_off_c, 0, 43, 62
1, 226756, Note_off_c, 0, 81, 62
1, 226770, Note_on_c, 0, 77, 79
1, 226815, Note_off_c, 0, 77, 62
1, 226838, Note_on_c, 0, 81, 75
1, 226840, Note_on_c, 0, 53, 93
1, 226844, Note_on_c, 0, 89, 72
1, 226848, Note_on_c, 0, 41, 82
1, 226875, Note_off_c, 0, 89, 64
1, 226892, Note_off_c, 0, 81, 66
1, 226909, Note_on_c, 0, 77, 74
1, 226937, Note_off_c, 0, 77, 64
1, 226968, Note_off_c, 0, 53, 61
1, 226978, Note_off_c, 0, 41, 63
1, 226994, Note_on_c, 0, 77, 70
1, 227000, Note_on_c, 0, 69, 83
1, 227037, Note_off_c, 0, 77, 48
1, 227047, Note_off_c, 0, 69, 63
1, 227067, Note_on_c, 0, 65, 78
1, 227069, Note_on_c, 0, 52, 93
1, 227079, Note_on_c, 0, 40, 79
1, 227130, Note_off_c, 0, 65, 53
1, 227142, Note_on_c, 0, 77, 78
1, 227143, Note_on_c, 0, 69, 76
1, 227187, Note_off_c, 0, 52, 62
1, 227193, Note_off_c, 0, 40, 62
1, 227201, Note_off_c, 0, 77, 59
1, 227203, Note_off_c, 0, 69, 62
1, 227205, Note_on_c, 0, 65, 70
1, 227274, Note_off_c, 0, 65, 54
1, 227279, Note_on_c, 0, 50, 94
1, 227279, Note_on_c, 0, 69, 67
1, 227279, Control_c, 0, 64, 110
1, 227286, Note_on_c, 0, 77, 69
1, 227287, Note_on_c, 0, 38, 79
1, 227294, Control_c, 0, 64, 77
1, 227309, Control_c, 0, 64, 61
1, 227319, Note_off_c, 0, 77, 64
1, 227323, Control_c, 0, 64, 47
1, 227338, Control_c, 0, 64, 54
1, 227342, Note_off_c, 0, 69, 63
1, 227351, Note_on_c, 0, 65, 69
1, 227353, Control_c, 0, 64, 61
1, 227368, Control_c, 0, 64, 65
1, 227376, Note_off_c, 0, 65, 68
1, 227383, Control_c, 0, 64, 74
1, 227397, Control_c, 0, 64, 101
1, 227412, Control_c, 0, 64, 127
1, 227439, Note_off_c, 0, 50, 60
1, 227459, Note_on_c, 0, 57, 73
1, 227459, Note_on_c, 0, 65, 54
1, 227460, Note_off_c, 0, 38, 58
1, 227510, Note_off_c, 0, 65, 58
1, 227530, Note_off_c, 0, 57, 59
1, 227534, Note_on_c, 0, 53, 73
1, 227535, Note_on_c, 0, 48, 82
1, 227548, Note_on_c, 0, 36, 70
1, 227575, Control_c, 0, 64, 91
1, 227590, Control_c, 0, 64, 69
1, 227605, Control_c, 0, 64, 46
1, 227620, Control_c, 0, 64, 0
1, 227622, Note_off_c, 0, 53, 63
1, 227624, Note_on_c, 0, 65, 64
1, 227635, Note_on_c, 0, 57, 64
1, 227649, Control_c, 0, 64, 19
1, 227664, Control_c, 0, 64, 38
1, 227679, Control_c, 0, 64, 52
1, 227694, Control_c, 0, 64, 62
1, 227709, Control_c, 0, 64, 69
1, 227711, Note_off_c, 0, 48, 51
1, 227718, Note_on_c, 0, 53, 72
1, 227719, Note_off_c, 0, 65, 56
1, 227723, Control_c, 0, 64, 83
1, 227738, Control_c, 0, 64, 127
1, 227743, Note_off_c, 0, 57, 56
1, 227777, Note_off_c, 0, 36, 36
1, 227974, Note_on_c, 0, 35, 41
1, 227997, Control_c, 0, 64, 118
1, 228012, Control_c, 0, 64, 100
1, 228027, Control_c, 0, 64, 91
1, 228034, Note_on_c, 0, 65, 62
1, 228042, Control_c, 0, 64, 83
1, 228052, Note_on_c, 0, 57, 51
1, 228056, Control_c, 0, 64, 76
1, 228073, Control_c, 0, 64, 70
1, 228088, Control_c, 0, 64, 64
1, 228102, Control_c, 0, 64, 54
1, 228117, Control_c, 0, 64, 41
1, 228132, Control_c, 0, 64, 33
1, 228161, Control_c, 0, 64, 35
1, 228176, Control_c, 0, 64, 40
1, 228191, Control_c, 0, 64, 49
1, 228206, Control_c, 0, 64, 55
1, 228220, Control_c, 0, 64, 60
1, 228224, Note_off_c, 0, 35, 42
1, 228235, Control_c, 0, 64, 65
1, 228250, Note_on_c, 0, 47, 42
1, 228250, Control_c, 0, 64, 71
1, 228265, Control_c, 0, 64, 83
1, 228276, Note_off_c, 0, 65, 53
1, 228279, Control_c, 0, 64, 105
1, 228294, Control_c, 0, 64, 127
1, 228311, Note_off_c, 0, 47, 58
1, 228322, Note_off_c, 0, 53, 43
1, 228336, Note_on_c, 0, 35, 46
1, 228347, Note_off_c, 0, 57, 58
1, 228383, Note_off_c, 0, 35, 54
1, 228442, Note_on_c, 0, 47, 41
1, 228481, Note_off_c, 0, 47, 48
1, 228506, Note_on_c, 0, 35, 41
1, 228544, Note_off_c, 0, 35, 53
1, 228594, Note_on_c, 0, 47, 37
1, 228627, Note_off_c, 0, 47, 51
1, 228635, Note_on_c, 0, 62, 54
1, 228658, Note_on_c, 0, 50, 38
1, 228688, Note_on_c, 0, 35, 19
1, 228743, Note_on_c, 0, 47, 43
1, 228746, Note_off_c, 0, 35, 49
1, 228776, Note_off_c, 0, 50, 51
1, 228783, Note_off_c, 0, 47, 59
1, 228821, Note_on_c, 0, 35, 32
1, 228824, Note_off_c, 0, 62, 62
1, 228866, Note_off_c, 0, 35, 51
1, 228889, Note_on_c, 0, 47, 43
1, 228919, Note_off_c, 0, 47, 54
1, 228952, Note_on_c, 0, 65, 69
1, 228964, Note_on_c, 0, 53, 57
1, 228966, Note_on_c, 0, 35, 32
1, 229001, Note_off_c, 0, 35, 52
1, 229016, Note_on_c, 0, 47, 50
1, 229039, Note_off_c, 0, 53, 60
1, 229071, Note_off_c, 0, 47, 49
1, 229074, Note_off_c, 0, 65, 62
1, 229098, Note_on_c, 0, 35, 48
1, 229125, Note_on_c, 0, 41, 49
1, 229159, Note_off_c, 0, 35, 44
1, 229172, Note_off_c, 0, 41, 56
1, 229173, Note_on_c, 0, 69, 71
1, 229187, Note_on_c, 0, 57, 55
1, 229239, Note_on_c, 0, 41, 53
1, 229242, Note_on_c, 0, 35, 41
1, 229265, Note_off_c, 0, 57, 61
1, 229276, Note_off_c, 0, 41, 62
1, 229296, Note_off_c, 0, 35, 51
1, 229297, Note_on_c, 0, 47, 43
1, 229300, Note_off_c, 0, 69, 62
1, 229345, Note_off_c, 0, 47, 59
1, 229355, Note_on_c, 0, 35, 38
1, 229358, Note_on_c, 0, 41, 61
1, 229381, Note_on_c, 0, 71, 80
1, 229389, Note_on_c, 0, 59, 62
1, 229398, Note_off_c, 0, 41, 60
1, 229410, Note_off_c, 0, 35, 53
1, 229418, Note_on_c, 0, 47, 50
1, 229429, Note_off_c, 0, 59, 58
1, 229453, Note_off_c, 0, 47, 63
1, 229473, Note_on_c, 0, 35, 44
1, 229476, Note_on_c, 0, 41, 59
1, 229484, Note_off_c, 0, 71, 58
1, 229519, Note_off_c, 0, 35, 55
1, 229521, Note_off_c, 0, 41, 60
1, 229548, Note_on_c, 0, 47, 53
1, 229569, Note_off_c, 0, 47, 61
1, 229574, Note_on_c, 0, 72, 88
1, 229578, Note_on_c, 0, 41, 60
1, 229580, Note_on_c, 0, 60, 75
1, 229585, Note_on_c, 0, 35, 48
1, 229626, Note_off_c, 0, 41, 61
1, 229626, Note_off_c, 0, 35, 56
1, 229629, Note_off_c, 0, 60, 62
1, 229640, Note_on_c, 0, 47, 62
1, 229679, Note_off_c, 0, 47, 60
1, 229697, Note_on_c, 0, 41, 59
1, 229713, Note_on_c, 0, 35, 48
1, 229738, Note_off_c, 0, 41, 61
1, 229742, Note_on_c, 0, 73, 93
1, 229745, Note_off_c, 0, 35, 57
1, 229748, Note_on_c, 0, 61, 86
1, 229764, Note_off_c, 0, 72, 63
1, 229769, Note_on_c, 0, 47, 52
1, 229789, Note_off_c, 0, 47, 62
1, 229807, Note_on_c, 0, 41, 59
1, 229808, Note_on_c, 0, 35, 53
1, 229841, Note_off_c, 0, 35, 62
1, 229847, Note_off_c, 0, 41, 57
1, 229855, Note_off_c, 0, 61, 61
1, 229858, Note_on_c, 0, 47, 68
1, 229918, Note_off_c, 0, 47, 58
1, 229926, Control_c, 0, 64, 77
1, 229930, Note_on_c, 0, 74, 85
1, 229935, Note_on_c, 0, 34, 66
1, 229938, Note_on_c, 0, 41, 56
1, 229939, Note_on_c, 0, 62, 74
1, 229941, Control_c, 0, 64, 55
1, 229949, Note_off_c, 0, 73, 64
1, 229956, Control_c, 0, 64, 0
1, 229971, Control_c, 0, 64, 13
1, 229986, Control_c, 0, 64, 44
1, 230000, Control_c, 0, 64, 59
1, 230010, Note_off_c, 0, 62, 59
1, 230015, Control_c, 0, 64, 70
1, 230022, Note_off_c, 0, 34, 60
1, 230028, Note_off_c, 0, 41, 64
1, 230030, Control_c, 0, 64, 96
1, 230039, Note_on_c, 0, 46, 62
1, 230044, Control_c, 0, 64, 127
1, 230049, Note_off_c, 0, 74, 63
1, 230087, Note_off_c, 0, 46, 58
1, 230097, Note_on_c, 0, 41, 62
1, 230118, Note_on_c, 0, 34, 51
1, 230130, Note_on_c, 0, 77, 91
1, 230137, Note_on_c, 0, 65, 79
1, 230146, Note_off_c, 0, 41, 62
1, 230155, Note_off_c, 0, 34, 55
1, 230162, Note_off_c, 0, 65, 66
1, 230171, Note_on_c, 0, 46, 62
1, 230195, Note_off_c, 0, 77, 61
1, 230204, Note_off_c, 0, 46, 66
1, 230224, Note_on_c, 0, 41, 63
1, 230232, Note_on_c, 0, 34, 55
1, 230258, Note_off_c, 0, 34, 63
1, 230274, Note_off_c, 0, 41, 61
1, 230281, Note_on_c, 0, 46, 73
1, 230287, Note_on_c, 0, 81, 93
1, 230291, Note_on_c, 0, 69, 86
1, 230319, Note_off_c, 0, 46, 64
1, 230323, Note_on_c, 0, 34, 63
1, 230326, Note_off_c, 0, 69, 58
1, 230329, Note_on_c, 0, 41, 53
1, 230356, Note_off_c, 0, 34, 63
1, 230371, Note_off_c, 0, 41, 62
1, 230391, Note_on_c, 0, 46, 68
1, 230425, Note_off_c, 0, 46, 65
1, 230434, Note_on_c, 0, 34, 65
1, 230437, Note_on_c, 0, 41, 60
1, 230439, Note_on_c, 0, 70, 90
1, 230443, Note_on_c, 0, 82, 88
1, 230469, Note_off_c, 0, 34, 63
1, 230475, Note_off_c, 0, 81, 66
1, 230486, Note_off_c, 0, 70, 63
1, 230490, Note_off_c, 0, 41, 62
1, 230495, Note_on_c, 0, 46, 65
1, 230532, Note_off_c, 0, 82, 63
1, 230544, Note_off_c, 0, 46, 56
1, 230553, Note_on_c, 0, 34, 62
1, 230565, Note_on_c, 0, 41, 54
1, 230598, Note_off_c, 0, 34, 57
1, 230614, Note_off_c, 0, 41, 62
1, 230621, Note_on_c, 0, 46, 56
1, 230638, Note_on_c, 0, 85, 87
1, 230646, Note_on_c, 0, 73, 79
1, 230676, Note_off_c, 0, 46, 61
1, 230692, Note_on_c, 0, 41, 55
1, 230703, Note_on_c, 0, 34, 44
1, 230724, Note_off_c, 0, 34, 64
1, 230736, Note_off_c, 0, 41, 63
1, 230750, Note_on_c, 0, 46, 57
1, 230788, Note_off_c, 0, 46, 61
1, 230796, Note_on_c, 0, 34, 57
1, 230821, Note_on_c, 0, 41, 60
1, 230839, Note_off_c, 0, 34, 62
1, 230856, Note_off_c, 0, 41, 64
1, 230881, Note_on_c, 0, 46, 49
1, 230914, Note_off_c, 0, 46, 62
1, 230925, Note_on_c, 0, 34, 62
1, 230934, Note_on_c, 0, 41, 63
1, 230955, Note_off_c, 0, 34, 64
1, 230977, Note_off_c, 0, 41, 65
1, 230983, Note_off_c, 0, 73, 62
1, 231006, Note_on_c, 0, 46, 58
1, 231036, Note_off_c, 0, 46, 64
1, 231045, Note_on_c, 0, 34, 55
1, 231060, Note_on_c, 0, 41, 64
1, 231069, Note_on_c, 0, 86, 86
1, 231079, Note_on_c, 0, 74, 79
1, 231083, Note_off_c, 0, 85, 64
1, 231089, Note_off_c, 0, 34, 60
1, 231100, Note_off_c, 0, 41, 62
1, 231111, Note_on_c, 0, 46, 59
1, 231142, Note_off_c, 0, 86, 64
1, 231167, Note_off_c, 0, 46, 60
1, 231181, Note_off_c, 0, 74, 60
1, 231188, Note_on_c, 0, 41, 58
1, 231197, Note_on_c, 0, 34, 42
1, 231223, Note_off_c, 0, 41, 64
1, 231236, Note_off_c, 0, 34, 50
1, 231241, Note_on_c, 0, 46, 55
1, 231279, Note_off_c, 0, 46, 61
1, 231292, Note_on_c, 0, 41, 65
1, 231316, Note_on_c, 0, 34, 54
1, 231340, Note_off_c, 0, 41, 60
1, 231345, Note_off_c, 0, 34, 59
1, 231355, Note_on_c, 0, 46, 68
1, 231391, Note_off_c, 0, 46, 58
1, 231411, Note_on_c, 0, 41, 59
1, 231414, Note_on_c, 0, 34, 65
1, 231445, Note_off_c, 0, 34, 63
1, 231455, Note_on_c, 0, 46, 70
1, 231456, Note_off_c, 0, 41, 62
1, 231492, Note_off_c, 0, 46, 61
1, 231547, Note_on_c, 0, 32, 76
1, 231569, Note_on_c, 0, 65, 88
1, 231571, Control_c, 0, 64, 89
1, 231575, Note_on_c, 0, 53, 89
1, 231578, Note_on_c, 0, 58, 83
1, 231586, Control_c, 0, 64, 61
1, 231601, Control_c, 0, 64, 0
1, 231686, Note_off_c, 0, 32, 59
1, 231689, Control_c, 0, 64, 53
1, 231704, Control_c, 0, 64, 72
1, 231718, Note_on_c, 0, 44, 61
1, 231727, Control_c, 0, 64, 111
1, 231742, Control_c, 0, 64, 127
1, 231763, Note_off_c, 0, 44, 59
1, 231785, Note_on_c, 0, 32, 65
1, 231808, Note_off_c, 0, 65, 58
1, 231821, Note_off_c, 0, 32, 60
1, 231839, Note_off_c, 0, 53, 57
1, 231847, Note_on_c, 0, 44, 67
1, 231881, Note_off_c, 0, 44, 64
1, 231883, Note_off_c, 0, 58, 58
1, 231891, Note_on_c, 0, 32, 67
1, 231933, Note_off_c, 0, 32, 57
1, 231946, Note_on_c, 0, 44, 67
1, 231987, Note_off_c, 0, 44, 60
1, 232003, Note_on_c, 0, 32, 61
1, 232032, Note_on_c, 0, 62, 83
1, 232040, Note_on_c, 0, 50, 76
1, 232043, Note_off_c, 0, 32, 60
1, 232069, Note_on_c, 0, 44, 58
1, 232104, Note_off_c, 0, 44, 60
1, 232123, Note_off_c, 0, 50, 62
1, 232128, Note_on_c, 0, 32, 55
1, 232157, Note_off_c, 0, 32, 63
1, 232163, Note_off_c, 0, 62, 62
1, 232173, Note_on_c, 0, 44, 53
1, 232201, Note_off_c, 0, 44, 61
1, 232218, Note_on_c, 0, 32, 66
1, 232258, Note_on_c, 0, 65, 93
1, 232261, Note_on_c, 0, 53, 89
1, 232273, Note_on_c, 0, 44, 61
1, 232288, Note_off_c, 0, 32, 60
1, 232300, Note_off_c, 0, 53, 63
1, 232333, Note_off_c, 0, 65, 60
1, 232374, Note_off_c, 0, 44, 53
1, 232399, Note_on_c, 0, 41, 64
1, 232401, Note_on_c, 0, 32, 58
1, 232421, Note_on_c, 0, 69, 96
1, 232428, Note_on_c, 0, 57, 86
1, 232462, Note_off_c, 0, 32, 56
1, 232463, Note_off_c, 0, 41, 61
1, 232476, Note_on_c, 0, 44, 72
1, 232482, Note_off_c, 0, 57, 62
1, 232535, Note_off_c, 0, 44, 60
1, 232538, Note_on_c, 0, 41, 71
1, 232563, Note_on_c, 0, 32, 50
1, 232586, Note_on_c, 0, 58, 98
1, 232589, Note_on_c, 0, 70, 87
1, 232592, Note_on_c, 0, 44, 66
1, 232593, Note_off_c, 0, 32, 56
1, 232603, Note_off_c, 0, 41, 61
1, 232614, Note_off_c, 0, 69, 65
1, 232636, Note_off_c, 0, 58, 64
1, 232643, Note_on_c, 0, 41, 53
1, 232648, Note_off_c, 0, 44, 62
1, 232666, Note_off_c, 0, 70, 64
1, 232680, Note_on_c, 0, 32, 28
1, 232712, Note_on_c, 0, 44, 60
1, 232714, Note_off_c, 0, 41, 62
1, 232723, Note_off_c, 0, 32, 52
1, 232745, Note_on_c, 0, 61, 96
1, 232746, Note_on_c, 0, 73, 98
1, 232758, Note_on_c, 0, 41, 61
1, 232771, Note_off_c, 0, 44, 59
1, 232778, Note_on_c, 0, 32, 54
1, 232795, Note_off_c, 0, 61, 61
1, 232810, Note_off_c, 0, 32, 62
1, 232824, Note_on_c, 0, 44, 62
1, 232830, Note_off_c, 0, 73, 62
1, 232830, Note_off_c, 0, 41, 63
1, 232885, Note_off_c, 0, 44, 57
1, 232887, Note_on_c, 0, 41, 60
1, 232890, Note_on_c, 0, 32, 60
1, 232899, Note_on_c, 0, 74, 100
1, 232905, Note_on_c, 0, 62, 95
1, 232935, Note_on_c, 0, 44, 67
1, 232940, Note_off_c, 0, 32, 55
1, 232950, Note_off_c, 0, 41, 64
1, 232956, Note_off_c, 0, 62, 60
1, 232964, Poly_aftertouch_c, 0, 34, 127
1, 232997, Note_off_c, 0, 44, 63
1, 233011, Poly_aftertouch_c, 0, 34, 0
1, 233050, Note_on_c, 0, 39, 76
1, 233056, Note_on_c, 0, 30, 77
1, 233069, Control_c, 0, 64, 73
1, 233073, Note_on_c, 0, 75, 96
1, 233074, Note_on_c, 0, 63, 95
1, 233084, Control_c, 0, 64, 0
1, 233107, Note_off_c, 0, 74, 56
1, 233140, Note_on_c, 0, 42, 78
1, 233140, Note_off_c, 0, 39, 63
1, 233143, Control_c, 0, 64, 47
1, 233149, Note_off_c, 0, 30, 61
1, 233158, Control_c, 0, 64, 69
1, 233171, Note_off_c, 0, 63, 62
1, 233173, Control_c, 0, 64, 127
1, 233197, Note_off_c, 0, 42, 61
1, 233200, Note_off_c, 0, 75, 63
1, 233233, Note_on_c, 0, 39, 61
1, 233242, Note_on_c, 0, 30, 53
1, 233276, Note_off_c, 0, 39, 64
1, 233277, Note_on_c, 0, 42, 75
1, 233279, Note_on_c, 0, 78, 100
1, 233280, Note_on_c, 0, 66, 99
1, 233283, Note_off_c, 0, 30, 53
1, 233318, Note_off_c, 0, 66, 65
1, 233322, Note_off_c, 0, 42, 60
1, 233335, Note_off_c, 0, 78, 63
1, 233340, Note_on_c, 0, 39, 60
1, 233346, Note_on_c, 0, 30, 49
1, 233372, Note_off_c, 0, 30, 63
1, 233393, Note_on_c, 0, 42, 67
1, 233393, Note_off_c, 0, 39, 63
1, 233432, Note_on_c, 0, 81, 98
1, 233432, Note_on_c, 0, 69, 100
1, 233437, Note_on_c, 0, 30, 72
1, 233447, Note_off_c, 0, 42, 60
1, 233448, Note_on_c, 0, 39, 65
1, 233459, Note_off_c, 0, 69, 63
1, 233465, Note_off_c, 0, 81, 68
1, 233487, Note_off_c, 0, 30, 62
1, 233495, Note_on_c, 0, 42, 59
1, 233512, Note_off_c, 0, 39, 59
1, 233546, Poly_aftertouch_c, 0, 39, 0
1, 233557, Note_off_c, 0, 42, 61
1, 233558, Note_on_c, 0, 39, 53
1, 233575, Note_on_c, 0, 30, 60
1, 233584, Note_on_c, 0, 82, 106
1, 233586, Note_on_c, 0, 70, 103
1, 233607, Note_off_c, 0, 30, 63
1, 233610, Note_on_c, 0, 42, 70
1, 233617, Note_off_c, 0, 70, 65
1, 233619, Note_on_c, 0, 80, 43
1, 233620, Note_off_c, 0, 80, 127
1, 233624, Note_off_c, 0, 82, 64
1, 233631, Note_off_c, 0, 39, 61
1, 233673, Note_off_c, 0, 42, 60
1, 233686, Note_on_c, 0, 30, 69
1, 233692, Note_on_c, 0, 39, 57
1, 233728, Note_off_c, 0, 30, 58
1, 233745, Note_on_c, 0, 42, 76
1, 233756, Note_off_c, 0, 39, 63
1, 233770, Note_on_c, 0, 74, 105
1, 233770, Note_on_c, 0, 86, 104
1, 233795, Poly_aftertouch_c, 0, 39, 0
1, 233802, Note_off_c, 0, 42, 62
1, 233805, Note_on_c, 0, 39, 56
1, 233808, Note_on_c, 0, 30, 67
1, 233846, Note_off_c, 0, 30, 63
1, 233860, Note_on_c, 0, 42, 68
1, 233878, Note_off_c, 0, 39, 57
1, 233912, Note_off_c, 0, 42, 54
1, 233921, Note_on_c, 0, 39, 50
1, 233925, Note_on_c, 0, 30, 71
1, 233972, Note_off_c, 0, 74, 55
1, 233977, Note_off_c, 0, 30, 57
1, 233987, Note_off_c, 0, 86, 57
1, 233993, Note_on_c, 0, 42, 76
1, 234002, Note_off_c, 0, 39, 64
1, 234011, Note_on_c, 0, 81, 45
1, 234049, Note_off_c, 0, 42, 61
1, 234051, Poly_aftertouch_c, 0, 83, 0
1, 234052, Note_off_c, 0, 81, 61
1, 234058, Note_on_c, 0, 39, 57
1, 234061, Note_on_c, 0, 30, 68
1, 234092, Note_off_c, 0, 30, 65
1, 234109, Note_on_c, 0, 42, 68
1, 234121, Note_off_c, 0, 39, 60
1, 234169, Note_off_c, 0, 42, 60
1, 234172, Note_on_c, 0, 75, 99
1, 234173, Note_on_c, 0, 30, 76
1, 234173, Note_on_c, 0, 87, 102
1, 234175, Note_on_c, 0, 39, 48
1, 234228, Note_on_c, 0, 42, 67
1, 234239, Note_off_c, 0, 30, 60
1, 234243, Note_off_c, 0, 39, 62
1, 234275, Note_off_c, 0, 75, 61
1, 234285, Note_off_c, 0, 42, 63
1, 234291, Note_on_c, 0, 30, 58
1, 234291, Note_off_c, 0, 87, 60
1, 234299, Note_on_c, 0, 39, 54
1, 234351, Note_on_c, 0, 42, 70
1, 234357, Note_off_c, 0, 30, 60
1, 234362, Note_off_c, 0, 39, 62
1, 234405, Note_off_c, 0, 42, 47
1, 234422, Note_on_c, 0, 30, 62
1, 234425, Note_on_c, 0, 39, 63
1, 234462, Note_off_c, 0, 30, 62
1, 234474, Note_on_c, 0, 42, 66
1, 234482, Note_off_c, 0, 39, 62
1, 234510, Note_off_c, 0, 42, 64
1, 234543, Note_on_c, 0, 30, 78
1, 234601, Note_on_c, 0, 39, 50
1, 234613, Note_on_c, 0, 42, 82
1, 234636, Note_off_c, 0, 39, 62
1, 234641, Note_off_c, 0, 30, 55
1, 234670, Note_off_c, 0, 42, 62
1, 234866, Note_on_c, 0, 39, 69
1, 234868, Note_on_c, 0, 27, 69
1, 234915, Control_c, 0, 64, 81
1, 234930, Control_c, 0, 64, 58
1, 234932, Note_on_c, 0, 83, 58
1, 234943, Note_on_c, 0, 78, 58
1, 234945, Control_c, 0, 64, 0
1, 235019, Control_c, 0, 64, 41
1, 235034, Control_c, 0, 64, 64
1, 235049, Control_c, 0, 64, 85
1, 235063, Control_c, 0, 64, 127
1, 235069, Note_off_c, 0, 78, 63
1, 235081, Note_off_c, 0, 83, 65
1, 235102, Note_off_c, 0, 27, 58
1, 235103, Note_on_c, 0, 90, 69
1, 235139, Note_off_c, 0, 90, 62
1, 235144, Note_off_c, 0, 39, 55
1, 235179, Note_on_c, 0, 83, 64
1, 235191, Note_on_c, 0, 78, 55
1, 235208, Note_off_c, 0, 83, 67
1, 235211, Note_off_c, 0, 78, 61
1, 235239, Note_on_c, 0, 90, 64
1, 235256, Note_off_c, 0, 90, 65
1, 235275, Note_on_c, 0, 83, 71
1, 235279, Note_on_c, 0, 78, 74
1, 235301, Note_off_c, 0, 83, 67
1, 235305, Note_off_c, 0, 78, 68
1, 235322, Note_on_c, 0, 90, 72
1, 235354, Note_off_c, 0, 90, 58
1, 235357, Note_on_c, 0, 83, 73
1, 235367, Note_on_c, 0, 42, 78
1, 235368, Note_on_c, 0, 30, 71
1, 235369, Note_on_c, 0, 78, 71
1, 235384, Note_off_c, 0, 78, 69
1, 235388, Note_off_c, 0, 83, 61
1, 235404, Note_on_c, 0, 90, 58
1, 235408, Note_off_c, 0, 30, 63
1, 235409, Note_off_c, 0, 42, 62
1, 235443, Note_on_c, 0, 83, 63
1, 235451, Note_on_c, 0, 78, 63
1, 235470, Note_off_c, 0, 90, 0
1, 235484, Note_off_c, 0, 83, 59
1, 235486, Note_off_c, 0, 78, 60
1, 235507, Poly_aftertouch_c, 0, 90, 127
1, 235519, Note_on_c, 0, 90, 6
1, 235526, Poly_aftertouch_c, 0, 83, 0
1, 235541, Note_on_c, 0, 44, 87
1, 235546, Note_off_c, 0, 90, 60
1, 235548, Poly_aftertouch_c, 0, 83, 0
1, 235549, Note_on_c, 0, 32, 69
1, 235559, Poly_aftertouch_c, 0, 78, 127
1, 235569, Poly_aftertouch_c, 0, 78, 0
1, 235591, Note_off_c, 0, 44, 57
1, 235592, Note_off_c, 0, 32, 63
1, 235710, Note_on_c, 0, 47, 81
1, 235715, Note_on_c, 0, 71, 62
1, 235722, Note_on_c, 0, 35, 66
1, 235728, Note_on_c, 0, 63, 52
1, 235752, Note_off_c, 0, 63, 62
1, 235762, Note_off_c, 0, 47, 61
1, 235764, Note_off_c, 0, 35, 60
1, 235775, Note_off_c, 0, 71, 64
1, 235792, Note_on_c, 0, 75, 60
1, 235829, Note_off_c, 0, 75, 53
1, 235829, Note_on_c, 0, 63, 74
1, 235840, Note_on_c, 0, 71, 49
1, 235874, Note_on_c, 0, 49, 84
1, 235877, Note_on_c, 0, 37, 81
1, 235886, Note_off_c, 0, 63, 63
1, 235917, Note_off_c, 0, 71, 64
1, 235918, Note_off_c, 0, 37, 58
1, 235919, Note_off_c, 0, 49, 60
1, 235931, Poly_aftertouch_c, 0, 75, 0
1, 235999, Note_on_c, 0, 66, 67
1, 236003, Note_on_c, 0, 71, 69
1, 236018, Note_on_c, 0, 51, 94
1, 236018, Note_off_c, 0, 66, 64
1, 236025, Note_on_c, 0, 39, 80
1, 236026, Note_off_c, 0, 71, 68
1, 236032, Note_on_c, 0, 78, 82
1, 236057, Note_off_c, 0, 51, 61
1, 236062, Note_off_c, 0, 39, 67
1, 236068, Note_off_c, 0, 78, 56
1, 236082, Note_on_c, 0, 66, 76
1, 236089, Note_on_c, 0, 71, 65
1, 236123, Note_on_c, 0, 78, 55
1, 236131, Note_off_c, 0, 71, 0
1, 236168, Poly_aftertouch_c, 0, 71, 127
1, 236169, Note_on_c, 0, 54, 98
1, 236175, Note_on_c, 0, 42, 87
1, 236176, Note_off_c, 0, 78, 0
1, 236181, Note_off_c, 0, 66, 63
1, 236198, Poly_aftertouch_c, 0, 71, 0
1, 236220, Note_off_c, 0, 54, 63
1, 236221, Poly_aftertouch_c, 0, 78, 127
1, 236223, Note_off_c, 0, 42, 61
1, 236233, Poly_aftertouch_c, 0, 78, 0
1, 236334, Note_on_c, 0, 83, 65
1, 236336, Note_on_c, 0, 56, 92
1, 236342, Note_on_c, 0, 78, 57
1, 236345, Note_on_c, 0, 44, 75
1, 236360, Note_off_c, 0, 78, 61
1, 236363, Note_off_c, 0, 83, 66
1, 236368, Note_off_c, 0, 56, 59
1, 236374, Note_off_c, 0, 44, 66
1, 236378, Note_on_c, 0, 90, 83
1, 236424, Note_off_c, 0, 90, 61
1, 236427, Note_on_c, 0, 83, 81
1, 236434, Note_on_c, 0, 78, 76
1, 236464, Note_off_c, 0, 83, 61
1, 236470, Note_off_c, 0, 78, 63
1, 236496, Note_on_c, 0, 59, 95
1, 236496, Note_on_c, 0, 90, 62
1, 236503, Note_on_c, 0, 47, 86
1, 236521, Note_on_c, 0, 83, 75
1, 236523, Note_off_c, 0, 90, 65
1, 236526, Note_off_c, 0, 59, 64
1, 236527, Note_on_c, 0, 78, 76
1, 236527, Note_off_c, 0, 47, 69
1, 236556, Note_off_c, 0, 78, 66
1, 236570, Note_off_c, 0, 83, 65
1, 236583, Note_on_c, 0, 90, 81
1, 236623, Note_on_c, 0, 83, 70
1, 236637, Note_on_c, 0, 78, 74
1, 236644, Note_off_c, 0, 90, 0
1, 236652, Note_off_c, 0, 83, 65
1, 236655, Note_on_c, 0, 61, 102
1, 236660, Note_on_c, 0, 49, 94
1, 236664, Note_off_c, 0, 78, 64
1, 236681, Poly_aftertouch_c, 0, 90, 127
1, 236692, Note_off_c, 0, 61, 64
1, 236703, Note_off_c, 0, 49, 61
1, 236711, Note_on_c, 0, 83, 75
1, 236718, Poly_aftertouch_c, 0, 90, 0
1, 236725, Note_on_c, 0, 78, 74
1, 236748, Note_off_c, 0, 78, 70
1, 236759, Note_off_c, 0, 83, 64
1, 236765, Note_on_c, 0, 90, 44
1, 236811, Note_on_c, 0, 63, 102
1, 236814, Note_on_c, 0, 78, 89
1, 236814, Note_off_c, 0, 90, 61
1, 236816, Note_on_c, 0, 51, 101
1, 236816, Note_on_c, 0, 83, 61
1, 236849, Note_off_c, 0, 83, 63
1, 236852, Note_off_c, 0, 63, 64
1, 236858, Note_off_c, 0, 51, 62
1, 236865, Note_off_c, 0, 78, 63
1, 236968, Note_on_c, 0, 75, 83
1, 236974, Note_on_c, 0, 66, 104
1, 236974, Note_on_c, 0, 83, 58
1, 236978, Note_on_c, 0, 54, 93
1, 236997, Note_off_c, 0, 75, 63
1, 236998, Note_on_c, 0, 84, 15
1, 237025, Note_off_c, 0, 83, 63
1, 237030, Note_on_c, 0, 87, 84
1, 237039, Note_off_c, 0, 84, 29
1, 237077, Note_off_c, 0, 87, 63
1, 237079, Note_on_c, 0, 83, 61
1, 237087, Note_on_c, 0, 75, 89
1, 237096, Note_off_c, 0, 54, 60
1, 237114, Note_off_c, 0, 75, 62
1, 237131, Note_off_c, 0, 66, 57
1, 237141, Note_on_c, 0, 87, 82
1, 237145, Note_off_c, 0, 83, 57
1, 237176, Note_on_c, 0, 83, 66
1, 237190, Note_off_c, 0, 87, 54
1, 237194, Note_on_c, 0, 75, 89
1, 237218, Note_off_c, 0, 75, 62
1, 237233, Note_on_c, 0, 87, 70
1, 237239, Note_off_c, 0, 83, 65
1, 237281, Note_off_c, 0, 87, 64
1, 237302, Note_on_c, 0, 68, 99
1, 237309, Note_on_c, 0, 56, 90
1, 237315, Note_on_c, 0, 83, 83
1, 237317, Note_on_c, 0, 78, 86
1, 237340, Note_off_c, 0, 78, 71
1, 237348, Note_off_c, 0, 68, 63
1, 237353, Note_off_c, 0, 83, 54
1, 237370, Note_on_c, 0, 90, 85
1, 237385, Note_off_c, 0, 56, 65
1, 237427, Note_on_c, 0, 83, 69
1, 237427, Note_on_c, 0, 78, 79
1, 237451, Note_off_c, 0, 78, 68
1, 237453, Note_off_c, 0, 90, 0
1, 237460, Note_off_c, 0, 83, 61
1, 237463, Note_on_c, 0, 90, 54
1, 237511, Note_on_c, 0, 83, 66
1, 237513, Note_off_c, 0, 90, 61
1, 237527, Note_on_c, 0, 78, 78
1, 237558, Note_on_c, 0, 90, 59
1, 237563, Note_off_c, 0, 83, 65
1, 237565, Note_off_c, 0, 78, 59
1, 237611, Note_off_c, 0, 90, 65
1, 237656, Note_on_c, 0, 51, 103
1, 237662, Note_on_c, 0, 39, 91
1, 237702, Note_on_c, 0, 87, 73
1, 237702, Control_c, 0, 64, 66
1, 237707, Note_on_c, 0, 83, 63
1, 237716, Note_on_c, 0, 84, 64
1, 237717, Control_c, 0, 64, 0
1, 237719, Note_on_c, 0, 49, 19
1, 237721, Note_off_c, 0, 87, 59
1, 237741, Note_off_c, 0, 84, 68
1, 237749, Note_off_c, 0, 83, 66
1, 237759, Note_off_c, 0, 49, 44
1, 237772, Note_on_c, 0, 95, 90
1, 237776, Control_c, 0, 64, 45
1, 237791, Control_c, 0, 64, 70
1, 237805, Control_c, 0, 64, 127
1, 237813, Note_off_c, 0, 95, 65
1, 237835, Note_on_c, 0, 87, 72
1, 237838, Note_on_c, 0, 83, 85
1, 237851, Note_off_c, 0, 39, 60
1, 237862, Note_off_c, 0, 87, 67
1, 237863, Note_off_c, 0, 83, 66
1, 237865, Note_off_c, 0, 51, 60
1, 237898, Note_on_c, 0, 95, 83
1, 237933, Note_on_c, 0, 87, 82
1, 237938, Note_on_c, 0, 83, 83
1, 237942, Note_off_c, 0, 95, 64
1, 237965, Note_off_c, 0, 83, 61
1, 237965, Note_off_c, 0, 87, 61
1, 237995, Note_on_c, 0, 95, 68
1, 238032, Note_off_c, 0, 95, 57
1, 238035, Note_on_c, 0, 87, 74
1, 238054, Note_on_c, 0, 83, 62
1, 238066, Note_on_c, 0, 54, 99
1, 238071, Note_on_c, 0, 42, 85
1, 238073, Note_off_c, 0, 83, 64
1, 238074, Note_off_c, 0, 87, 56
1, 238083, Note_on_c, 0, 95, 84
1, 238104, Note_off_c, 0, 42, 65
1, 238104, Note_off_c, 0, 54, 61
1, 238117, Note_on_c, 0, 87, 61
1, 238137, Note_off_c, 0, 95, 64
1, 238139, Note_on_c, 0, 83, 79
1, 238181, Note_off_c, 0, 87, 62
1, 238195, Note_off_c, 0, 83, 65
1, 238233, Note_on_c, 0, 56, 100
1, 238239, Note_on_c, 0, 44, 86
1, 238276, Note_off_c, 0, 44, 63
1, 238276, Note_off_c, 0, 56, 62
1, 238318, Poly_aftertouch_c, 0, 46, 127
1, 238343, Poly_aftertouch_c, 0, 46, 0
1, 238394, Note_on_c, 0, 66, 65
1, 238399, Note_on_c, 0, 59, 87
1, 238402, Note_on_c, 0, 75, 62
1, 238408, Note_on_c, 0, 47, 76
1, 238425, Note_off_c, 0, 66, 64
1, 238435, Note_off_c, 0, 75, 63
1, 238441, Note_off_c, 0, 59, 61
1, 238445, Note_on_c, 0, 78, 79
1, 238445, Note_off_c, 0, 47, 61
1, 238509, Note_on_c, 0, 66, 74
1, 238523, Note_on_c, 0, 75, 71
1, 238563, Note_off_c, 0, 66, 63
1, 238576, Note_on_c, 0, 61, 100
1, 238578, Note_on_c, 0, 49, 92
1, 238592, Note_off_c, 0, 75, 62
1, 238616, Note_off_c, 0, 61, 63
1, 238620, Note_off_c, 0, 78, 62
1, 238627, Note_off_c, 0, 49, 62
1, 238667, Note_on_c, 0, 71, 77
1, 238673, Note_on_c, 0, 75, 66
1, 238688, Note_off_c, 0, 71, 70
1, 238699, Note_off_c, 0, 75, 68
1, 238715, Note_on_c, 0, 83, 79
1, 238732, Note_on_c, 0, 63, 95
1, 238735, Note_on_c, 0, 51, 92
1, 238758, Note_on_c, 0, 75, 74
1, 238765, Note_on_c, 0, 71, 67
1, 238771, Note_off_c, 0, 63, 63
1, 238778, Note_off_c, 0, 51, 63
1, 238781, Note_off_c, 0, 83, 0
1, 238795, Note_off_c, 0, 71, 62
1, 238804, Note_off_c, 0, 75, 58
1, 238819, Poly_aftertouch_c, 0, 83, 127
1, 238831, Note_on_c, 0, 75, 64
1, 238844, Note_on_c, 0, 71, 67
1, 238850, Poly_aftertouch_c, 0, 83, 0
1, 238877, Note_off_c, 0, 71, 67
1, 238878, Note_on_c, 0, 66, 103
1, 238883, Note_on_c, 0, 54, 93
1, 238889, Note_on_c, 0, 83, 58
1, 238898, Note_off_c, 0, 75, 63
1, 238917, Note_off_c, 0, 66, 65
1, 238917, Note_off_c, 0, 83, 67
1, 238932, Note_off_c, 0, 54, 63
1, 239004, Note_on_c, 0, 83, 65
1, 239005, Note_on_c, 0, 87, 78
1, 239033, Note_off_c, 0, 83, 67
1, 239040, Note_off_c, 0, 87, 55
1, 239041, Note_on_c, 0, 68, 95
1, 239044, Note_on_c, 0, 56, 84
1, 239063, Note_on_c, 0, 95, 80
1, 239092, Note_off_c, 0, 56, 64
1, 239092, Note_off_c, 0, 68, 59
1, 239105, Note_off_c, 0, 95, 64
1, 239116, Note_on_c, 0, 87, 76
1, 239126, Note_on_c, 0, 83, 74
1, 239149, Note_off_c, 0, 87, 58
1, 239153, Note_off_c, 0, 83, 67
1, 239180, Note_on_c, 0, 95, 85
1, 239210, Note_on_c, 0, 71, 102
1, 239216, Note_on_c, 0, 59, 88
1, 239221, Note_off_c, 0, 95, 58
1, 239227, Note_on_c, 0, 87, 79
1, 239242, Note_on_c, 0, 83, 77
1, 239242, Note_off_c, 0, 71, 67
1, 239256, Note_off_c, 0, 59, 61
1, 239266, Note_off_c, 0, 83, 69
1, 239268, Note_off_c, 0, 87, 59
1, 239296, Note_on_c, 0, 95, 86
1, 239339, Note_on_c, 0, 87, 85
1, 239342, Note_off_c, 0, 95, 63
1, 239349, Note_on_c, 0, 83, 81
1, 239376, Note_on_c, 0, 73, 107
1, 239376, Note_off_c, 0, 83, 62
1, 239380, Note_on_c, 0, 61, 96
1, 239388, Note_off_c, 0, 87, 63
1, 239405, Note_on_c, 0, 95, 76
1, 239415, Note_off_c, 0, 73, 65
1, 239427, Note_off_c, 0, 61, 60
1, 239451, Note_on_c, 0, 87, 78
1, 239453, Note_off_c, 0, 95, 63
1, 239469, Note_on_c, 0, 83, 73
1, 239495, Note_off_c, 0, 83, 69
1, 239500, Note_off_c, 0, 87, 59
1, 239516, Note_on_c, 0, 95, 72
1, 239538, Note_on_c, 0, 75, 102
1, 239547, Note_on_c, 0, 87, 68
1, 239550, Note_on_c, 0, 76, 97
1, 239552, Note_on_c, 0, 63, 63
1, 239553, Note_off_c, 0, 63, 127
1, 239553, Note_off_c, 0, 95, 61
1, 239558, Note_on_c, 0, 64, 78
1, 239564, Note_on_c, 0, 83, 73
1, 239569, Note_off_c, 0, 76, 71
1, 239581, Note_off_c, 0, 64, 66
1, 239585, Note_off_c, 0, 75, 54
1, 239602, Note_off_c, 0, 83, 52
1, 239605, Note_off_c, 0, 87, 65
1, 239608, Note_on_c, 0, 95, 77
1, 239671, Note_off_c, 0, 95, 65
1, 239701, Note_on_c, 0, 87, 87
1, 239704, Note_on_c, 0, 82, 87
1, 239714, Note_on_c, 0, 78, 109
1, 239720, Note_on_c, 0, 66, 90
1, 239753, Note_off_c, 0, 82, 63
1, 239758, Note_off_c, 0, 87, 62
1, 239772, Note_on_c, 0, 94, 91
1, 239845, Note_on_c, 0, 82, 82
1, 239845, Note_on_c, 0, 87, 80
1, 239852, Note_off_c, 0, 94, 63
1, 239882, Note_off_c, 0, 87, 54
1, 239891, Note_off_c, 0, 82, 63
1, 239901, Note_off_c, 0, 66, 60
1, 239910, Note_on_c, 0, 94, 81
1, 239964, Note_off_c, 0, 78, 57
1, 239970, Note_on_c, 0, 82, 75
1, 239973, Note_on_c, 0, 87, 74
1, 239976, Note_off_c, 0, 94, 64
1, 240004, Note_off_c, 0, 87, 57
1, 240026, Note_on_c, 0, 94, 82
1, 240026, Note_off_c, 0, 82, 60
1, 240104, Note_off_c, 0, 94, 64
1, 240108, Note_on_c, 0, 87, 89
1, 240116, Note_on_c, 0, 80, 109
1, 240120, Note_on_c, 0, 83, 81
1, 240125, Note_on_c, 0, 68, 95
1, 240156, Note_off_c, 0, 87, 64
1, 240162, Note_off_c, 0, 83, 63
1, 240189, Note_on_c, 0, 95, 85
1, 240209, Note_on_c, 0, 93, 58
1, 240228, Note_off_c, 0, 93, 42
1, 240241, Note_off_c, 0, 95, 65
1, 240262, Note_on_c, 0, 83, 76
1, 240268, Note_on_c, 0, 81, 55
1, 240271, Note_on_c, 0, 86, 56
1, 240288, Note_off_c, 0, 81, 63
1, 240289, Note_off_c, 0, 86, 61
1, 240289, Note_off_c, 0, 83, 66
1, 240319, Note_on_c, 0, 95, 86
1, 240359, Note_off_c, 0, 95, 62
1, 240369, Note_on_c, 0, 87, 75
1, 240384, Note_on_c, 0, 83, 68
1, 240396, Note_off_c, 0, 87, 65
1, 240399, Note_off_c, 0, 83, 68
1, 240419, Note_on_c, 0, 95, 71
1, 240445, Note_on_c, 0, 87, 75
1, 240448, Note_off_c, 0, 95, 66
1, 240458, Note_on_c, 0, 83, 73
1, 240498, Note_on_c, 0, 95, 92
1, 240507, Note_off_c, 0, 87, 63
1, 240512, Note_off_c, 0, 83, 58
1, 240542, Note_off_c, 0, 80, 58
1, 240566, Note_off_c, 0, 95, 65
1, 240617, Note_off_c, 0, 68, 56
1, 240981, Control_c, 0, 64, 88
1, 240996, Control_c, 0, 64, 66
1, 241011, Control_c, 0, 64, 0
1, 241038, Note_on_c, 0, 71, 99
1, 241043, Note_on_c, 0, 59, 89
1, 241047, Note_on_c, 0, 95, 106
1, 241049, Note_on_c, 0, 83, 100
1, 241099, Control_c, 0, 64, 16
1, 241114, Control_c, 0, 64, 61
1, 241129, Control_c, 0, 64, 85
1, 241144, Control_c, 0, 64, 127
1, 241151, Note_off_c, 0, 83, 62
1, 241171, Note_off_c, 0, 59, 62
1, 241174, Note_off_c, 0, 95, 65
1, 241192, Note_off_c, 0, 71, 58
1, 241390, Note_on_c, 0, 73, 99
1, 241397, Note_on_c, 0, 61, 87
1, 241406, Note_on_c, 0, 97, 104
1, 241407, Note_on_c, 0, 85, 100
1, 241543, Note_off_c, 0, 61, 61
1, 241544, Note_off_c, 0, 73, 61
1, 241567, Note_off_c, 0, 85, 63
1, 241578, Note_on_c, 0, 93, 43
1, 241580, Note_off_c, 0, 97, 63
1, 241612, Note_off_c, 0, 93, 50
1, 241691, Note_on_c, 0, 75, 105
1, 241692, Note_on_c, 0, 87, 104
1, 241692, Note_on_c, 0, 99, 104
1, 241699, Note_on_c, 0, 63, 86
1, 241726, Note_off_c, 0, 75, 67
1, 241752, Note_off_c, 0, 63, 64
1, 241753, Note_off_c, 0, 99, 65
1, 241755, Note_off_c, 0, 87, 64
1, 241889, Note_on_c, 0, 66, 90
1, 241894, Note_on_c, 0, 90, 101
1, 241895, Note_on_c, 0, 78, 99
1, 241897, Note_on_c, 0, 54, 77
1, 241914, Note_off_c, 0, 66, 63
1, 241927, Note_off_c, 0, 54, 67
1, 241937, Note_off_c, 0, 78, 64
1, 241951, Note_off_c, 0, 90, 61
1, 241990, Poly_aftertouch_c, 0, 56, 0
1, 242058, Note_on_c, 0, 80, 97
1, 242060, Note_on_c, 0, 92, 97
1, 242061, Note_on_c, 0, 68, 92
1, 242067, Note_on_c, 0, 56, 87
1, 242083, Note_off_c, 0, 68, 69
1, 242097, Note_off_c, 0, 92, 65
1, 242099, Note_off_c, 0, 80, 61
1, 242102, Note_off_c, 0, 56, 62
1, 242214, Note_on_c, 0, 59, 88
1, 242217, Note_on_c, 0, 83, 98
1, 242218, Note_on_c, 0, 71, 95
1, 242222, Note_on_c, 0, 47, 80
1, 242236, Note_off_c, 0, 59, 72
1, 242239, Note_off_c, 0, 71, 67
1, 242246, Note_off_c, 0, 47, 65
1, 242253, Note_off_c, 0, 83, 67
1, 242349, Note_on_c, 0, 73, 98
1, 242351, Note_on_c, 0, 49, 85
1, 242351, Note_on_c, 0, 85, 96
1, 242351, Note_on_c, 0, 61, 89
1, 242374, Note_off_c, 0, 61, 65
1, 242385, Note_off_c, 0, 49, 60
1, 242386, Note_off_c, 0, 73, 65
1, 242390, Note_off_c, 0, 85, 66
1, 242465, Note_on_c, 0, 75, 96
1, 242466, Note_on_c, 0, 87, 89
1, 242468, Note_on_c, 0, 63, 88
1, 242469, Note_on_c, 0, 51, 89
1, 242482, Note_off_c, 0, 87, 74
1, 242486, Note_off_c, 0, 75, 66
1, 242487, Note_off_c, 0, 63, 71
1, 242491, Note_off_c, 0, 51, 70
1, 242575, Note_on_c, 0, 54, 94
1, 242575, Note_on_c, 0, 78, 92
1, 242575, Note_on_c, 0, 66, 90
1, 242578, Note_on_c, 0, 42, 85
1, 242596, Note_off_c, 0, 54, 71
1, 242606, Note_off_c, 0, 42, 65
1, 242607, Note_off_c, 0, 66, 59
1, 242610, Note_off_c, 0, 78, 60
1, 242673, Note_on_c, 0, 68, 91
1, 242675, Note_on_c, 0, 56, 84
1, 242675, Note_on_c, 0, 80, 89
1, 242679, Note_on_c, 0, 44, 79
1, 242694, Note_off_c, 0, 80, 73
1, 242696, Note_off_c, 0, 68, 68
1, 242700, Note_off_c, 0, 56, 67
1, 242705, Note_off_c, 0, 44, 66
1, 242775, Note_on_c, 0, 59, 92
1, 242777, Note_on_c, 0, 47, 90
1, 242778, Note_on_c, 0, 71, 82
1, 242786, Note_on_c, 0, 35, 77
1, 242792, Note_off_c, 0, 59, 72
1, 242803, Note_off_c, 0, 47, 65
1, 242805, Note_off_c, 0, 71, 65
1, 242818, Note_off_c, 0, 35, 62
1, 242867, Note_on_c, 0, 61, 95
1, 242871, Note_on_c, 0, 73, 95
1, 242881, Note_on_c, 0, 37, 77
1, 242883, Note_on_c, 0, 49, 76
1, 242900, Note_on_c, 0, 46, 47
1, 242901, Note_off_c, 0, 46, 127
1, 242907, Note_off_c, 0, 61, 63
1, 242907, Note_off_c, 0, 73, 61
1, 242912, Note_off_c, 0, 49, 67
1, 242912, Note_off_c, 0, 37, 61
1, 242969, Poly_aftertouch_c, 0, 36, 127
1, 242971, Note_on_c, 0, 63, 94
1, 242974, Note_on_c, 0, 75, 95
1, 242976, Note_on_c, 0, 51, 98
1, 242983, Note_on_c, 0, 39, 82
1, 242995, Note_off_c, 0, 51, 73
1, 243001, Note_off_c, 0, 75, 60
1, 243007, Poly_aftertouch_c, 0, 36, 0
1, 243007, Note_off_c, 0, 63, 63
1, 243010, Note_off_c, 0, 39, 68
1, 243129, Note_on_c, 0, 54, 103
1, 243129, Note_on_c, 0, 66, 101
1, 243130, Note_on_c, 0, 42, 99
1, 243135, Note_on_c, 0, 30, 88
1, 243153, Control_c, 0, 64, 73
1, 243168, Control_c, 0, 64, 0
1, 243243, Control_c, 0, 64, 46
1, 243258, Control_c, 0, 64, 66
1, 243272, Control_c, 0, 64, 94
1, 243283, Note_off_c, 0, 30, 62
1, 243287, Control_c, 0, 64, 127
1, 243307, Note_off_c, 0, 42, 56
1, 243307, Note_off_c, 0, 54, 60
1, 243308, Note_off_c, 0, 66, 58
1, 243439, Note_on_c, 0, 44, 99
1, 243443, Note_on_c, 0, 56, 100
1, 243443, Note_on_c, 0, 68, 96
1, 243445, Note_on_c, 0, 32, 87
1, 243465, Control_c, 0, 64, 79
1, 243480, Control_c, 0, 64, 40
1, 243494, Control_c, 0, 64, 0
1, 243553, Control_c, 0, 64, 59
1, 243568, Control_c, 0, 64, 80
1, 243583, Control_c, 0, 64, 127
1, 243585, Note_off_c, 0, 44, 65
1, 243606, Note_off_c, 0, 68, 62
1, 243618, Note_off_c, 0, 56, 62
1, 243630, Note_off_c, 0, 32, 61
1, 243854, Note_on_c, 0, 35, 93
1, 243854, Note_on_c, 0, 59, 95
1, 243855, Note_on_c, 0, 47, 95
1, 243860, Note_on_c, 0, 23, 88
1, 243901, Control_c, 0, 64, 102
1, 243906, Note_on_c, 0, 56, 35
1, 243916, Control_c, 0, 64, 69
1, 243931, Control_c, 0, 64, 12
1, 243946, Control_c, 0, 64, 0
1, 243961, Control_c, 0, 64, 17
1, 243976, Control_c, 0, 64, 45
1, 243991, Control_c, 0, 64, 63
1, 244006, Control_c, 0, 64, 79
1, 244020, Control_c, 0, 64, 127
1, 244044, Note_off_c, 0, 23, 58
1, 244065, Note_off_c, 0, 56, 0
1, 244068, Note_off_c, 0, 47, 60
1, 244080, Note_off_c, 0, 35, 60
1, 244083, Note_off_c, 0, 59, 60
1, 244102, Poly_aftertouch_c, 0, 56, 127
1, 244142, Poly_aftertouch_c, 0, 56, 0
1, 244259, Note_on_c, 0, 37, 97
1, 244262, Note_on_c, 0, 61, 100
1, 244265, Note_on_c, 0, 49, 99
1, 244265, Note_on_c, 0, 25, 83
1, 244347, Control_c, 0, 64, 90
1, 244361, Control_c, 0, 64, 64
1, 244376, Control_c, 0, 64, 0
1, 244458, Control_c, 0, 64, 32
1, 244473, Control_c, 0, 64, 57
1, 244488, Control_c, 0, 64, 69
1, 244503, Control_c, 0, 64, 95
1, 244517, Control_c, 0, 64, 127
1, 244583, Note_off_c, 0, 25, 58
1, 244600, Note_off_c, 0, 37, 57
1, 244629, Note_off_c, 0, 49, 58
1, 244639, Note_off_c, 0, 61, 58
1, 244761, Note_on_c, 0, 39, 98
1, 244766, Note_on_c, 0, 27, 90
1, 244766, Note_on_c, 0, 51, 106
1, 244769, Note_on_c, 0, 63, 95
1, 244859, Control_c, 0, 64, 87
1, 244873, Control_c, 0, 64, 69
1, 244888, Control_c, 0, 64, 52
1, 244903, Control_c, 0, 64, 0
1, 245022, Control_c, 0, 64, 33
1, 245037, Control_c, 0, 64, 47
1, 245052, Control_c, 0, 64, 59
1, 245066, Control_c, 0, 64, 66
1, 245081, Control_c, 0, 64, 74
1, 245096, Control_c, 0, 64, 95
1, 245111, Control_c, 0, 64, 127
1, 245216, Note_off_c, 0, 39, 57
1, 245246, Note_off_c, 0, 27, 37
1, 245293, Note_off_c, 0, 63, 57
1, 245368, Note_off_c, 0, 51, 52
1, 245699, Note_on_c, 0, 37, 82
1, 245711, Note_on_c, 0, 25, 69
1, 245761, Note_on_c, 0, 51, 94
1, 245762, Note_on_c, 0, 63, 88
1, 245785, Control_c, 0, 64, 114
1, 245800, Control_c, 0, 64, 74
1, 245815, Control_c, 0, 64, 50
1, 245830, Control_c, 0, 64, 0
1, 245875, Control_c, 0, 64, 39
1, 245884, Note_off_c, 0, 25, 62
1, 245889, Control_c, 0, 64, 62
1, 245904, Control_c, 0, 64, 76
1, 245919, Control_c, 0, 64, 97
1, 245923, Note_off_c, 0, 37, 59
1, 245941, Control_c, 0, 64, 127
1, 246060, Note_on_c, 0, 41, 64
1, 246116, Note_on_c, 0, 44, 71
1, 246119, Note_off_c, 0, 63, 63
1, 246176, Note_on_c, 0, 47, 70
1, 246178, Note_off_c, 0, 41, 61
1, 246200, Note_off_c, 0, 44, 61
1, 246241, Note_off_c, 0, 51, 60
1, 246242, Note_off_c, 0, 47, 61
1, 246252, Note_on_c, 0, 53, 76
1, 246284, Note_on_c, 0, 56, 78
1, 246327, Note_off_c, 0, 53, 63
1, 246331, Note_on_c, 0, 59, 73
1, 246367, Note_on_c, 0, 37, 76
1, 246390, Note_off_c, 0, 56, 64
1, 246398, Note_on_c, 0, 63, 91
1, 246403, Note_on_c, 0, 51, 98
1, 246424, Note_off_c, 0, 59, 64
1, 246439, Note_on_c, 0, 41, 74
1, 246483, Note_on_c, 0, 44, 78
1, 246492, Note_off_c, 0, 37, 59
1, 246540, Note_off_c, 0, 63, 58
1, 246546, Note_on_c, 0, 47, 90
1, 246573, Note_off_c, 0, 44, 62
1, 246578, Note_off_c, 0, 41, 32
1, 246591, Note_off_c, 0, 47, 64
1, 246629, Note_off_c, 0, 51, 63
1, 246629, Note_on_c, 0, 53, 78
1, 246703, Note_on_c, 0, 56, 83
1, 246735, Note_off_c, 0, 53, 62
1, 246756, Note_on_c, 0, 59, 83
1, 246809, Note_off_c, 0, 56, 63
1, 246864, Note_on_c, 0, 37, 95
1, 246867, Note_on_c, 0, 25, 93
1, 246899, Note_on_c, 0, 51, 109
1, 246901, Note_on_c, 0, 63, 100
1, 246912, Control_c, 0, 64, 87
1, 246921, Note_off_c, 0, 59, 59
1, 246927, Control_c, 0, 64, 55
1, 246942, Control_c, 0, 64, 0
1, 246954, Note_on_c, 0, 61, 16
1, 246990, Note_off_c, 0, 61, 34
1, 247016, Control_c, 0, 64, 59
1, 247021, Note_off_c, 0, 25, 63
1, 247031, Control_c, 0, 64, 82
1, 247045, Control_c, 0, 64, 127
1, 247047, Note_off_c, 0, 37, 62
1, 247112, Note_off_c, 0, 63, 62
1, 247132, Note_on_c, 0, 41, 67
1, 247174, Note_on_c, 0, 44, 73
1, 247180, Note_off_c, 0, 51, 63
1, 247204, Note_on_c, 0, 47, 72
1, 247259, Note_off_c, 0, 41, 52
1, 247265, Note_on_c, 0, 53, 71
1, 247269, Note_off_c, 0, 44, 57
1, 247269, Note_off_c, 0, 47, 62
1, 247309, Note_on_c, 0, 56, 77
1, 247364, Note_off_c, 0, 53, 62
1, 247365, Note_on_c, 0, 59, 76
1, 247449, Note_on_c, 0, 37, 84
1, 247478, Note_off_c, 0, 59, 60
1, 247511, Note_off_c, 0, 56, 33
1, 247565, Note_on_c, 0, 41, 64
1, 247591, Note_on_c, 0, 44, 66
1, 247608, Note_off_c, 0, 37, 60
1, 247629, Note_on_c, 0, 47, 69
1, 247634, Note_off_c, 0, 41, 64
1, 247645, Note_off_c, 0, 44, 61
1, 247666, Note_off_c, 0, 47, 64
1, 247701, Note_on_c, 0, 53, 70
1, 247762, Note_on_c, 0, 56, 65
1, 247778, Note_off_c, 0, 53, 59
1, 247784, Note_on_c, 0, 59, 66
1, 247824, Note_on_c, 0, 63, 69
1, 247839, Note_off_c, 0, 56, 63
1, 247854, Note_off_c, 0, 59, 63
1, 247887, Note_off_c, 0, 63, 62
1, 247902, Note_on_c, 0, 53, 65
1, 247982, Note_on_c, 0, 56, 63
1, 247997, Note_off_c, 0, 53, 60
1, 248018, Note_on_c, 0, 59, 58
1, 248063, Note_off_c, 0, 56, 62
1, 248075, Note_on_c, 0, 63, 74
1, 248079, Note_off_c, 0, 59, 61
1, 248098, Note_off_c, 0, 63, 69
1, 248146, Note_on_c, 0, 65, 65
1, 248173, Note_on_c, 0, 68, 76
1, 248233, Note_on_c, 0, 71, 71
1, 248239, Note_off_c, 0, 65, 61
1, 248265, Note_on_c, 0, 75, 80
1, 248271, Note_off_c, 0, 68, 61
1, 248284, Note_off_c, 0, 71, 64
1, 248313, Note_off_c, 0, 75, 63
1, 248318, Note_on_c, 0, 65, 68
1, 248373, Note_on_c, 0, 68, 76
1, 248394, Note_off_c, 0, 65, 61
1, 248398, Note_on_c, 0, 71, 77
1, 248432, Note_off_c, 0, 68, 62
1, 248442, Note_on_c, 0, 75, 69
1, 248448, Note_off_c, 0, 71, 62
1, 248472, Note_off_c, 0, 75, 64
1, 248477, Note_on_c, 0, 77, 74
1, 248514, Note_on_c, 0, 80, 82
1, 248552, Note_on_c, 0, 83, 82
1, 248566, Note_off_c, 0, 77, 62
1, 248587, Note_off_c, 0, 80, 63
1, 248589, Note_on_c, 0, 87, 83
1, 248605, Note_off_c, 0, 83, 65
1, 248635, Note_on_c, 0, 65, 70
1, 248668, Note_on_c, 0, 68, 76
1, 248687, Note_off_c, 0, 65, 62
1, 248698, Note_on_c, 0, 71, 72
1, 248730, Note_off_c, 0, 71, 61
1, 248730, Note_off_c, 0, 68, 59
1, 248736, Note_off_c, 0, 87, 33
1, 248739, Note_on_c, 0, 75, 78
1, 248763, Note_off_c, 0, 75, 68
1, 248784, Note_on_c, 0, 77, 69
1, 248828, Note_on_c, 0, 80, 76
1, 248873, Note_on_c, 0, 83, 78
1, 248874, Note_off_c, 0, 77, 62
1, 248909, Note_on_c, 0, 87, 78
1, 248912, Note_off_c, 0, 80, 63
1, 248923, Note_off_c, 0, 83, 65
1, 248963, Note_off_c, 0, 87, 65
1, 248985, Note_on_c, 0, 77, 75
1, 249036, Note_on_c, 0, 80, 71
1, 249060, Note_off_c, 0, 77, 64
1, 249070, Note_on_c, 0, 83, 71
1, 249105, Note_on_c, 0, 87, 80
1, 249115, Note_off_c, 0, 80, 60
1, 249131, Note_on_c, 0, 89, 72
1, 249131, Note_off_c, 0, 83, 62
1, 249136, Note_off_c, 0, 87, 59
1, 249172, Note_on_c, 0, 92, 87
1, 249209, Note_on_c, 0, 95, 87
1, 249211, Note_off_c, 0, 89, 62
1, 249241, Note_off_c, 0, 92, 66
1, 249253, Note_on_c, 0, 99, 93
1, 249261, Note_off_c, 0, 95, 65
1, 249296, Note_off_c, 0, 99, 66
1, 249300, Note_on_c, 0, 77, 76
1, 249330, Note_on_c, 0, 80, 79
1, 249352, Note_off_c, 0, 77, 65
1, 249365, Note_on_c, 0, 83, 78
1, 249404, Note_off_c, 0, 80, 56
1, 249408, Note_on_c, 0, 87, 94
1, 249430, Note_off_c, 0, 83, 62
1, 249445, Note_off_c, 0, 87, 60
1, 249449, Note_on_c, 0, 89, 81
1, 249484, Note_on_c, 0, 92, 88
1, 249525, Note_on_c, 0, 95, 89
1, 249533, Note_off_c, 0, 89, 61
1, 249556, Note_off_c, 0, 92, 66
1, 249568, Note_on_c, 0, 99, 98
1, 249578, Note_off_c, 0, 95, 66
1, 249614, Note_off_c, 0, 99, 66
1, 249615, Note_on_c, 0, 77, 73
1, 249652, Note_on_c, 0, 80, 79
1, 249673, Note_off_c, 0, 77, 63
1, 249698, Note_on_c, 0, 83, 76
1, 249738, Note_off_c, 0, 80, 60
1, 249748, Note_on_c, 0, 87, 91
1, 249771, Note_off_c, 0, 83, 63
1, 249792, Note_on_c, 0, 89, 85
1, 249792, Note_off_c, 0, 87, 64
1, 249835, Note_on_c, 0, 92, 88
1, 249881, Note_on_c, 0, 95, 95
1, 249886, Note_off_c, 0, 89, 60
1, 249916, Note_off_c, 0, 92, 66
1, 249929, Note_on_c, 0, 99, 106
1, 249947, Note_off_c, 0, 95, 64
1, 249997, Note_off_c, 0, 99, 67
1, 250694, Note_on_c, 0, 53, 96
1, 251225, Note_off_c, 0, 53, 47
1, 251366, Note_on_c, 0, 56, 92
1, 251619, Note_off_c, 0, 56, 61
1, 251718, Note_on_c, 0, 58, 104
1, 251865, Note_off_c, 0, 58, 59
1, 251954, Note_on_c, 0, 59, 99
1, 252162, Note_off_c, 0, 59, 59
1, 252186, Note_on_c, 0, 63, 101
1, 252424, Note_off_c, 0, 63, 54
1, 252487, Note_on_c, 0, 37, 88
1, 252495, Note_on_c, 0, 25, 77
1, 252528, Note_on_c, 0, 65, 90
1, 252531, Note_on_c, 0, 53, 90
1, 252537, Control_c, 0, 64, 111
1, 252552, Control_c, 0, 64, 70
1, 252567, Control_c, 0, 64, 24
1, 252582, Control_c, 0, 64, 0
1, 252641, Control_c, 0, 64, 41
1, 252654, Note_off_c, 0, 25, 62
1, 252656, Control_c, 0, 64, 63
1, 252678, Control_c, 0, 64, 80
1, 252693, Control_c, 0, 64, 127
1, 252707, Note_off_c, 0, 37, 58
1, 252835, Note_on_c, 0, 42, 42
1, 252845, Note_off_c, 0, 65, 48
1, 252904, Note_on_c, 0, 49, 69
1, 252913, Note_on_c, 0, 46, 9
1, 252940, Poly_aftertouch_c, 0, 41, 0
1, 252948, Note_on_c, 0, 54, 81
1, 252954, Note_off_c, 0, 53, 61
1, 252960, Note_off_c, 0, 46, 52
1, 252983, Note_off_c, 0, 49, 61
1, 253002, Note_on_c, 0, 58, 81
1, 253032, Note_off_c, 0, 54, 64
1, 253036, Note_on_c, 0, 61, 80
1, 253039, Note_off_c, 0, 42, 32
1, 253082, Note_on_c, 0, 37, 76
1, 253097, Note_on_c, 0, 53, 93
1, 253099, Note_on_c, 0, 65, 90
1, 253109, Note_off_c, 0, 58, 58
1, 253133, Note_off_c, 0, 61, 63
1, 253139, Note_on_c, 0, 42, 81
1, 253163, Note_off_c, 0, 37, 59
1, 253194, Note_on_c, 0, 46, 79
1, 253217, Note_off_c, 0, 65, 51
1, 253235, Note_off_c, 0, 42, 64
1, 253261, Note_on_c, 0, 49, 91
1, 253284, Note_off_c, 0, 46, 62
1, 253306, Note_off_c, 0, 49, 64
1, 253320, Note_on_c, 0, 54, 84
1, 253331, Note_off_c, 0, 53, 58
1, 253386, Poly_aftertouch_c, 0, 61, 0
1, 253399, Note_on_c, 0, 58, 84
1, 253432, Note_off_c, 0, 54, 62
1, 253452, Note_on_c, 0, 61, 84
1, 253506, Note_off_c, 0, 58, 64
1, 253545, Note_off_c, 0, 61, 61
1, 253560, Note_on_c, 0, 37, 94
1, 253565, Note_on_c, 0, 25, 92
1, 253586, Note_on_c, 0, 65, 93
1, 253589, Note_on_c, 0, 53, 99
1, 253605, Control_c, 0, 64, 88
1, 253620, Control_c, 0, 64, 42
1, 253637, Control_c, 0, 64, 0
1, 253696, Control_c, 0, 64, 39
1, 253697, Note_off_c, 0, 25, 63
1, 253710, Control_c, 0, 64, 70
1, 253725, Control_c, 0, 64, 113
1, 253729, Note_off_c, 0, 37, 64
1, 253740, Control_c, 0, 64, 127
1, 253825, Note_off_c, 0, 65, 41
1, 253839, Note_on_c, 0, 42, 74
1, 253874, Note_on_c, 0, 46, 72
1, 253885, Note_on_c, 0, 49, 76
1, 253947, Note_on_c, 0, 54, 83
1, 253948, Note_off_c, 0, 49, 60
1, 253962, Note_off_c, 0, 53, 52
1, 253971, Note_off_c, 0, 46, 50
1, 254001, Note_on_c, 0, 58, 79
1, 254045, Note_on_c, 0, 61, 75
1, 254045, Note_off_c, 0, 42, 53
1, 254055, Note_off_c, 0, 54, 59
1, 254093, Note_on_c, 0, 37, 83
1, 254159, Note_off_c, 0, 58, 58
1, 254184, Note_off_c, 0, 61, 56
1, 254186, Note_on_c, 0, 42, 73
1, 254213, Note_off_c, 0, 37, 57
1, 254256, Note_on_c, 0, 46, 70
1, 254296, Note_on_c, 0, 49, 79
1, 254299, Note_off_c, 0, 42, 61
1, 254318, Note_off_c, 0, 46, 62
1, 254342, Note_off_c, 0, 49, 63
1, 254379, Note_on_c, 0, 54, 79
1, 254442, Note_on_c, 0, 58, 70
1, 254457, Note_off_c, 0, 54, 65
1, 254458, Note_on_c, 0, 61, 68
1, 254494, Note_on_c, 0, 65, 73
1, 254524, Note_off_c, 0, 58, 62
1, 254546, Note_off_c, 0, 61, 62
1, 254563, Note_off_c, 0, 65, 62
1, 254586, Note_on_c, 0, 54, 68
1, 254684, Note_on_c, 0, 58, 69
1, 254727, Note_on_c, 0, 61, 66
1, 254747, Note_off_c, 0, 54, 62
1, 254779, Note_on_c, 0, 65, 72
1, 254796, Note_off_c, 0, 58, 62
1, 254809, Note_off_c, 0, 61, 60
1, 254809, Note_off_c, 0, 65, 60
1, 254830, Note_on_c, 0, 66, 65
1, 254868, Note_on_c, 0, 70, 76
1, 254889, Note_off_c, 0, 66, 62
1, 254906, Note_on_c, 0, 73, 77
1, 254949, Note_on_c, 0, 77, 82
1, 254963, Note_off_c, 0, 70, 64
1, 254987, Note_off_c, 0, 73, 64
1, 255004, Note_off_c, 0, 77, 64
1, 255014, Note_on_c, 0, 66, 73
1, 255074, Note_on_c, 0, 70, 75
1, 255105, Note_on_c, 0, 73, 72
1, 255116, Note_off_c, 0, 66, 61
1, 255136, Note_on_c, 0, 77, 80
1, 255183, Note_on_c, 0, 78, 78
1, 255188, Note_off_c, 0, 73, 59
1, 255188, Note_off_c, 0, 77, 62
1, 255221, Note_on_c, 0, 82, 82
1, 255253, Note_on_c, 0, 85, 81
1, 255256, Note_off_c, 0, 78, 64
1, 255294, Note_off_c, 0, 70, 36
1, 255295, Note_on_c, 0, 89, 84
1, 255300, Note_off_c, 0, 82, 65
1, 255322, Note_off_c, 0, 85, 66
1, 255333, Note_on_c, 0, 66, 68
1, 255390, Note_on_c, 0, 70, 70
1, 255413, Note_on_c, 0, 73, 78
1, 255423, Note_off_c, 0, 66, 62
1, 255426, Note_off_c, 0, 89, 54
1, 255452, Note_on_c, 0, 77, 76
1, 255456, Note_off_c, 0, 70, 61
1, 255461, Note_off_c, 0, 73, 64
1, 255478, Note_off_c, 0, 77, 66
1, 255484, Note_on_c, 0, 78, 76
1, 255525, Note_on_c, 0, 82, 77
1, 255535, Note_off_c, 0, 78, 64
1, 255559, Note_on_c, 0, 85, 79
1, 255584, Note_off_c, 0, 82, 67
1, 255589, Note_on_c, 0, 89, 81
1, 255611, Note_off_c, 0, 85, 65
1, 255640, Note_off_c, 0, 89, 64
1, 255686, Note_on_c, 0, 78, 65
1, 255755, Note_on_c, 0, 82, 68
1, 255787, Note_on_c, 0, 85, 68
1, 255792, Note_off_c, 0, 78, 63
1, 255810, Note_on_c, 0, 89, 78
1, 255822, Note_on_c, 0, 90, 68
1, 255856, Note_off_c, 0, 85, 60
1, 255866, Note_off_c, 0, 89, 62
1, 255874, Note_on_c, 0, 94, 87
1, 255899, Note_off_c, 0, 90, 60
1, 255903, Note_on_c, 0, 97, 85
1, 255938, Note_off_c, 0, 82, 51
1, 255941, Note_on_c, 0, 101, 86
1, 255947, Note_off_c, 0, 94, 64
1, 255970, Note_off_c, 0, 97, 64
1, 256003, Note_on_c, 0, 78, 76
1, 256048, Note_on_c, 0, 82, 79
1, 256076, Note_on_c, 0, 85, 82
1, 256087, Note_off_c, 0, 78, 63
1, 256094, Note_off_c, 0, 101, 46
1, 256101, Note_on_c, 0, 89, 87
1, 256123, Note_on_c, 0, 90, 81
1, 256148, Note_off_c, 0, 85, 60
1, 256159, Note_off_c, 0, 89, 62
1, 256174, Note_on_c, 0, 94, 93
1, 256204, Note_on_c, 0, 97, 88
1, 256207, Note_off_c, 0, 90, 63
1, 256245, Note_on_c, 0, 101, 96
1, 256256, Note_off_c, 0, 94, 64
1, 256269, Note_off_c, 0, 82, 55
1, 256279, Note_off_c, 0, 97, 64
1, 256308, Note_on_c, 0, 78, 81
1, 256357, Note_on_c, 0, 82, 80
1, 256386, Note_on_c, 0, 85, 82
1, 256408, Note_off_c, 0, 78, 64
1, 256435, Note_on_c, 0, 89, 96
1, 256453, Note_off_c, 0, 82, 65
1, 256463, Note_on_c, 0, 90, 87
1, 256478, Note_off_c, 0, 85, 65
1, 256493, Note_off_c, 0, 89, 62
1, 256498, Note_off_c, 0, 101, 31
1, 256514, Note_on_c, 0, 94, 92
1, 256551, Note_on_c, 0, 97, 90
1, 256570, Note_off_c, 0, 90, 64
1, 256598, Note_on_c, 0, 101, 102
1, 256615, Note_off_c, 0, 94, 64
1, 256651, Note_off_c, 0, 97, 64
1, 256707, Note_off_c, 0, 101, 64
1, 257340, Note_on_c, 0, 54, 99
1, 257630, Note_off_c, 0, 54, 58
1, 257905, Note_on_c, 0, 58, 102
1, 258185, Note_off_c, 0, 58, 60
1, 258272, Note_on_c, 0, 59, 101
1, 258492, Note_off_c, 0, 59, 0
1, 258505, Note_on_c, 0, 61, 103
1, 258526, Poly_aftertouch_c, 0, 59, 0
1, 258654, Note_off_c, 0, 61, 55
1, 258761, Note_on_c, 0, 65, 100
1, 259018, Note_off_c, 0, 65, 54
1, 259119, Note_on_c, 0, 37, 86
1, 259123, Note_on_c, 0, 25, 78
1, 259149, Note_on_c, 0, 66, 93
1, 259151, Note_on_c, 0, 54, 96
1, 259172, Control_c, 0, 64, 84
1, 259187, Control_c, 0, 64, 57
1, 259202, Control_c, 0, 64, 0
1, 259262, Control_c, 0, 64, 45
1, 259268, Note_off_c, 0, 25, 63
1, 259277, Control_c, 0, 64, 65
1, 259292, Control_c, 0, 64, 94
1, 259300, Note_off_c, 0, 37, 60
1, 259307, Control_c, 0, 64, 127
1, 259440, Note_on_c, 0, 44, 73
1, 259487, Note_on_c, 0, 47, 66
1, 259497, Note_off_c, 0, 66, 50
1, 259523, Note_off_c, 0, 44, 59
1, 259533, Note_on_c, 0, 51, 73
1, 259566, Note_off_c, 0, 47, 57
1, 259582, Note_on_c, 0, 56, 78
1, 259595, Note_off_c, 0, 54, 61
1, 259605, Note_off_c, 0, 51, 63
1, 259629, Note_on_c, 0, 59, 76
1, 259670, Note_off_c, 0, 56, 64
1, 259671, Note_on_c, 0, 63, 78
1, 259736, Note_on_c, 0, 37, 74
1, 259737, Note_on_c, 0, 66, 92
1, 259742, Note_on_c, 0, 54, 89
1, 259756, Note_off_c, 0, 59, 64
1, 259757, Note_off_c, 0, 63, 66
1, 259789, Note_on_c, 0, 44, 60
1, 259811, Note_off_c, 0, 37, 61
1, 259848, Note_on_c, 0, 47, 76
1, 259849, Poly_aftertouch_c, 0, 41, 127
1, 259885, Poly_aftertouch_c, 0, 41, 0
1, 259891, Note_off_c, 0, 44, 54
1, 259896, Note_on_c, 0, 51, 88
1, 259903, Note_off_c, 0, 66, 56
1, 259920, Note_off_c, 0, 47, 62
1, 259929, Note_off_c, 0, 51, 64
1, 259971, Note_on_c, 0, 56, 81
1, 259992, Note_off_c, 0, 54, 61
1, 260028, Note_on_c, 0, 59, 80
1, 260078, Note_on_c, 0, 63, 79
1, 260083, Note_off_c, 0, 56, 62
1, 260147, Note_off_c, 0, 59, 64
1, 260158, Note_on_c, 0, 37, 97
1, 260162, Note_on_c, 0, 25, 85
1, 260175, Note_on_c, 0, 66, 95
1, 260178, Note_on_c, 0, 54, 101
1, 260203, Note_off_c, 0, 63, 65
1, 260218, Note_off_c, 0, 25, 61
1, 260229, Note_off_c, 0, 37, 64
1, 260350, Note_off_c, 0, 66, 57
1, 260359, Note_on_c, 0, 46, 67
1, 260366, Note_on_c, 0, 43, 53
1, 260410, Note_off_c, 0, 43, 62
1, 260423, Note_on_c, 0, 47, 70
1, 260428, Note_on_c, 0, 51, 79
1, 260451, Note_off_c, 0, 46, 57
1, 260451, Note_off_c, 0, 47, 64
1, 260468, Note_on_c, 0, 56, 80
1, 260474, Note_off_c, 0, 54, 61
1, 260487, Note_off_c, 0, 51, 63
1, 260516, Note_on_c, 0, 59, 77
1, 260545, Note_off_c, 0, 56, 65
1, 260556, Note_on_c, 0, 63, 77
1, 260599, Poly_aftertouch_c, 0, 47, 0
1, 260608, Note_on_c, 0, 66, 90
1, 260609, Note_on_c, 0, 37, 87
1, 260613, Note_on_c, 0, 54, 100
1, 260623, Note_off_c, 0, 63, 66
1, 260640, Note_off_c, 0, 59, 64
1, 260661, Note_on_c, 0, 44, 77
1, 260690, Note_off_c, 0, 37, 64
1, 260705, Poly_aftertouch_c, 0, 41, 127
1, 260720, Note_on_c, 0, 47, 76
1, 260755, Note_off_c, 0, 66, 55
1, 260763, Note_on_c, 0, 51, 96
1, 260764, Poly_aftertouch_c, 0, 41, 0
1, 260795, Note_off_c, 0, 47, 62
1, 260804, Note_on_c, 0, 42, 37
1, 260805, Note_off_c, 0, 44, 31
1, 260818, Note_off_c, 0, 51, 65
1, 260828, Note_on_c, 0, 56, 85
1, 260833, Note_off_c, 0, 54, 60
1, 260848, Note_off_c, 0, 42, 51
1, 260917, Note_on_c, 0, 59, 78
1, 260953, Note_off_c, 0, 56, 64
1, 260979, Note_on_c, 0, 63, 86
1, 261130, Note_on_c, 0, 37, 95
1, 261134, Note_on_c, 0, 25, 93
1, 261155, Note_on_c, 0, 66, 98
1, 261156, Note_on_c, 0, 54, 103
1, 261173, Note_off_c, 0, 63, 60
1, 261182, Control_c, 0, 64, 92
1, 261197, Control_c, 0, 64, 58
1, 261203, Note_off_c, 0, 59, 46
1, 261212, Control_c, 0, 64, 0
1, 261256, Control_c, 0, 64, 9
1, 261271, Control_c, 0, 64, 58
1, 261286, Note_off_c, 0, 25, 64
1, 261286, Control_c, 0, 64, 79
1, 261301, Control_c, 0, 64, 127
1, 261307, Note_off_c, 0, 37, 64
1, 261418, Note_on_c, 0, 42, 73
1, 261450, Note_on_c, 0, 45, 69
1, 261468, Note_on_c, 0, 50, 79
1, 261470, Note_off_c, 0, 66, 54
1, 261506, Note_off_c, 0, 42, 60
1, 261526, Note_off_c, 0, 54, 61
1, 261533, Note_off_c, 0, 50, 62
1, 261553, Note_on_c, 0, 57, 75
1, 261566, Note_off_c, 0, 45, 59
1, 261592, Note_on_c, 0, 60, 79
1, 261656, Note_on_c, 0, 62, 85
1, 261689, Note_on_c, 0, 37, 81
1, 261692, Note_off_c, 0, 57, 61
1, 261734, Note_off_c, 0, 60, 56
1, 261754, Note_on_c, 0, 42, 80
1, 261784, Note_on_c, 0, 45, 74
1, 261804, Note_off_c, 0, 37, 60
1, 261827, Note_on_c, 0, 50, 89
1, 261835, Note_off_c, 0, 62, 55
1, 261864, Note_off_c, 0, 42, 59
1, 261884, Note_on_c, 0, 54, 86
1, 261885, Note_off_c, 0, 50, 64
1, 261904, Note_off_c, 0, 45, 62
1, 261949, Note_on_c, 0, 57, 77
1, 261969, Note_off_c, 0, 54, 59
1, 261981, Note_on_c, 0, 60, 83
1, 262034, Note_on_c, 0, 62, 84
1, 262043, Note_off_c, 0, 57, 59
1, 262112, Note_off_c, 0, 60, 58
1, 262114, Note_on_c, 0, 37, 93
1, 262118, Note_on_c, 0, 25, 86
1, 262145, Note_on_c, 0, 66, 96
1, 262150, Note_on_c, 0, 54, 95
1, 262168, Control_c, 0, 64, 83
1, 262180, Note_off_c, 0, 62, 61
1, 262183, Control_c, 0, 64, 62
1, 262198, Control_c, 0, 64, 45
1, 262213, Note_off_c, 0, 25, 63
1, 262213, Control_c, 0, 64, 55
1, 262228, Control_c, 0, 64, 63
1, 262242, Note_off_c, 0, 37, 64
1, 262243, Control_c, 0, 64, 71
1, 262258, Control_c, 0, 64, 91
1, 262272, Control_c, 0, 64, 127
1, 262358, Note_on_c, 0, 42, 71
1, 262398, Note_on_c, 0, 45, 55
1, 262433, Note_on_c, 0, 50, 71
1, 262448, Note_off_c, 0, 42, 61
1, 262487, Note_off_c, 0, 45, 56
1, 262492, Note_off_c, 0, 50, 58
1, 262493, Note_off_c, 0, 54, 61
1, 262495, Note_on_c, 0, 57, 71
1, 262502, Note_off_c, 0, 66, 59
1, 262539, Note_on_c, 0, 60, 73
1, 262597, Note_on_c, 0, 62, 75
1, 262602, Note_off_c, 0, 57, 58
1, 262636, Control_c, 0, 64, 104
1, 262645, Note_off_c, 0, 60, 58
1, 262651, Control_c, 0, 64, 83
1, 262666, Control_c, 0, 64, 74
1, 262681, Control_c, 0, 64, 73
1, 262685, Note_on_c, 0, 37, 65
1, 262696, Control_c, 0, 64, 78
1, 262711, Control_c, 0, 64, 90
1, 262711, Note_off_c, 0, 62, 59
1, 262726, Control_c, 0, 64, 127
1, 262786, Note_on_c, 0, 42, 57
1, 262799, Control_c, 0, 64, 84
1, 262813, Control_c, 0, 64, 71
1, 262828, Control_c, 0, 64, 71
1, 262834, Note_on_c, 0, 45, 59
1, 262842, Note_off_c, 0, 37, 60
1, 262843, Control_c, 0, 64, 79
1, 262858, Control_c, 0, 64, 92
1, 262873, Control_c, 0, 64, 127
1, 262886, Note_on_c, 0, 50, 63
1, 262886, Note_off_c, 0, 42, 60
1, 262898, Note_off_c, 0, 45, 61
1, 262929, Note_off_c, 0, 50, 63
1, 262950, Note_on_c, 0, 54, 60
1, 262999, Note_off_c, 0, 54, 62
1, 263004, Note_on_c, 0, 57, 61
1, 263058, Note_on_c, 0, 60, 60
1, 263091, Note_off_c, 0, 57, 55
1, 263105, Note_on_c, 0, 62, 64
1, 263125, Control_c, 0, 64, 102
1, 263128, Note_off_c, 0, 60, 62
1, 263139, Control_c, 0, 64, 83
1, 263154, Control_c, 0, 64, 72
1, 263167, Note_off_c, 0, 62, 61
1, 263176, Control_c, 0, 64, 66
1, 263191, Control_c, 0, 64, 66
1, 263206, Control_c, 0, 64, 71
1, 263212, Note_on_c, 0, 54, 51
1, 263222, Control_c, 0, 64, 83
1, 263237, Control_c, 0, 64, 113
1, 263251, Control_c, 0, 64, 127
1, 263298, Note_on_c, 0, 57, 55
1, 263311, Control_c, 0, 64, 91
1, 263325, Control_c, 0, 64, 79
1, 263334, Note_off_c, 0, 54, 59
1, 263340, Control_c, 0, 64, 77
1, 263346, Note_on_c, 0, 60, 58
1, 263355, Control_c, 0, 64, 85
1, 263370, Control_c, 0, 64, 110
1, 263373, Note_off_c, 0, 57, 62
1, 263385, Control_c, 0, 64, 127
1, 263389, Note_off_c, 0, 60, 58
1, 263395, Note_on_c, 0, 62, 60
1, 263428, Note_off_c, 0, 62, 63
1, 263439, Note_on_c, 0, 66, 59
1, 263477, Note_on_c, 0, 69, 67
1, 263484, Note_off_c, 0, 66, 57
1, 263518, Control_c, 0, 64, 89
1, 263519, Note_on_c, 0, 72, 70
1, 263531, Note_off_c, 0, 69, 60
1, 263533, Control_c, 0, 64, 74
1, 263548, Control_c, 0, 64, 68
1, 263559, Note_on_c, 0, 78, 75
1, 263559, Note_off_c, 0, 72, 66
1, 263562, Control_c, 0, 64, 71
1, 263577, Control_c, 0, 64, 82
1, 263587, Note_off_c, 0, 78, 67
1, 263592, Control_c, 0, 64, 104
1, 263604, Note_on_c, 0, 54, 69
1, 263607, Control_c, 0, 64, 127
1, 263651, Control_c, 0, 64, 87
1, 263666, Note_on_c, 0, 60, 63
1, 263666, Control_c, 0, 64, 69
1, 263673, Note_off_c, 0, 54, 63
1, 263681, Control_c, 0, 64, 65
1, 263687, Note_on_c, 0, 62, 64
1, 263695, Control_c, 0, 64, 71
1, 263698, Note_off_c, 0, 60, 64
1, 263710, Control_c, 0, 64, 80
1, 263717, Note_off_c, 0, 62, 64
1, 263721, Note_on_c, 0, 66, 67
1, 263725, Control_c, 0, 64, 100
1, 263740, Control_c, 0, 64, 127
1, 263756, Note_off_c, 0, 66, 63
1, 263774, Note_on_c, 0, 69, 71
1, 263814, Control_c, 0, 64, 102
1, 263823, Note_on_c, 0, 72, 66
1, 263828, Note_off_c, 0, 69, 63
1, 263829, Note_on_c, 0, 71, 46
1, 263829, Control_c, 0, 64, 78
1, 263844, Control_c, 0, 64, 67
1, 263852, Note_on_c, 0, 74, 76
1, 263852, Note_off_c, 0, 71, 52
1, 263859, Control_c, 0, 64, 67
1, 263873, Control_c, 0, 64, 73
1, 263879, Note_off_c, 0, 72, 64
1, 263886, Note_on_c, 0, 81, 82
1, 263888, Control_c, 0, 64, 86
1, 263890, Note_off_c, 0, 74, 65
1, 263903, Control_c, 0, 64, 127
1, 263926, Note_off_c, 0, 81, 64
1, 263940, Note_on_c, 0, 57, 67
1, 263955, Control_c, 0, 64, 98
1, 263969, Control_c, 0, 64, 79
1, 263984, Control_c, 0, 64, 71
1, 263996, Note_on_c, 0, 62, 60
1, 263999, Control_c, 0, 64, 72
1, 264008, Note_on_c, 0, 66, 71
1, 264014, Note_off_c, 0, 57, 63
1, 264015, Control_c, 0, 64, 80
1, 264030, Control_c, 0, 64, 92
1, 264031, Note_off_c, 0, 62, 65
1, 264045, Control_c, 0, 64, 127
1, 264050, Note_on_c, 0, 69, 76
1, 264061, Note_off_c, 0, 66, 64
1, 264100, Note_on_c, 0, 72, 73
1, 264111, Note_off_c, 0, 69, 56
1, 264148, Note_on_c, 0, 74, 75
1, 264148, Control_c, 0, 64, 99
1, 264163, Control_c, 0, 64, 81
1, 264173, Note_off_c, 0, 72, 61
1, 264175, Note_on_c, 0, 78, 86
1, 264178, Control_c, 0, 64, 70
1, 264192, Control_c, 0, 64, 64
1, 264204, Note_off_c, 0, 74, 63
1, 264207, Control_c, 0, 64, 66
1, 264219, Note_on_c, 0, 84, 83
1, 264222, Control_c, 0, 64, 72
1, 264228, Note_off_c, 0, 78, 67
1, 264237, Control_c, 0, 64, 85
1, 264252, Control_c, 0, 64, 127
1, 264255, Note_off_c, 0, 84, 66
1, 264263, Note_on_c, 0, 60, 68
1, 264312, Control_c, 0, 64, 91
1, 264313, Note_on_c, 0, 66, 67
1, 264327, Control_c, 0, 64, 73
1, 264333, Note_on_c, 0, 69, 71
1, 264337, Note_off_c, 0, 60, 63
1, 264341, Control_c, 0, 64, 68
1, 264356, Control_c, 0, 64, 71
1, 264371, Control_c, 0, 64, 81
1, 264372, Note_off_c, 0, 69, 64
1, 264374, Note_on_c, 0, 72, 71
1, 264375, Note_off_c, 0, 66, 60
1, 264386, Control_c, 0, 64, 101
1, 264401, Control_c, 0, 64, 127
1, 264410, Note_off_c, 0, 72, 54
1, 264419, Note_on_c, 0, 74, 74
1, 264457, Note_on_c, 0, 78, 78
1, 264500, Note_on_c, 0, 81, 76
1, 264505, Note_off_c, 0, 74, 61
1, 264519, Control_c, 0, 64, 95
1, 264533, Note_off_c, 0, 78, 64
1, 264534, Control_c, 0, 64, 79
1, 264535, Note_on_c, 0, 86, 89
1, 264543, Note_off_c, 0, 81, 65
1, 264549, Control_c, 0, 64, 70
1, 264564, Control_c, 0, 64, 68
1, 264571, Note_off_c, 0, 86, 65
1, 264579, Control_c, 0, 64, 72
1, 264586, Note_on_c, 0, 62, 67
1, 264593, Control_c, 0, 64, 80
1, 264608, Control_c, 0, 64, 100
1, 264623, Control_c, 0, 64, 127
1, 264641, Note_on_c, 0, 69, 64
1, 264652, Note_off_c, 0, 62, 63
1, 264675, Control_c, 0, 64, 112
1, 264678, Note_on_c, 0, 72, 72
1, 264690, Control_c, 0, 64, 88
1, 264697, Note_off_c, 0, 69, 61
1, 264698, Note_on_c, 0, 74, 72
1, 264705, Note_off_c, 0, 72, 68
1, 264705, Control_c, 0, 64, 78
1, 264719, Control_c, 0, 64, 78
1, 264726, Note_off_c, 0, 74, 63
1, 264734, Control_c, 0, 64, 85
1, 264735, Note_on_c, 0, 78, 72
1, 264749, Control_c, 0, 64, 101
1, 264764, Control_c, 0, 64, 127
1, 264766, Note_on_c, 0, 81, 74
1, 264796, Note_off_c, 0, 78, 63
1, 264805, Note_on_c, 0, 84, 80
1, 264808, Control_c, 0, 64, 123
1, 264824, Control_c, 0, 64, 88
1, 264833, Note_off_c, 0, 81, 64
1, 264839, Control_c, 0, 64, 74
1, 264840, Note_on_c, 0, 90, 82
1, 264849, Note_off_c, 0, 84, 64
1, 264854, Control_c, 0, 64, 70
1, 264869, Control_c, 0, 64, 75
1, 264884, Control_c, 0, 64, 88
1, 264895, Note_off_c, 0, 90, 64
1, 264898, Control_c, 0, 64, 127
1, 264900, Note_on_c, 0, 66, 65
1, 264946, Note_on_c, 0, 72, 65
1, 264970, Note_on_c, 0, 74, 66
1, 264971, Note_off_c, 0, 66, 62
1, 264998, Note_off_c, 0, 72, 61
1, 265004, Note_off_c, 0, 74, 64
1, 265008, Note_on_c, 0, 78, 70
1, 265045, Note_on_c, 0, 81, 67
1, 265059, Note_off_c, 0, 78, 56
1, 265084, Note_on_c, 0, 84, 78
1, 265105, Control_c, 0, 64, 100
1, 265107, Note_off_c, 0, 81, 62
1, 265120, Control_c, 0, 64, 82
1, 265131, Note_on_c, 0, 86, 82
1, 265134, Control_c, 0, 64, 73
1, 265148, Note_off_c, 0, 84, 64
1, 265149, Control_c, 0, 64, 71
1, 265164, Note_on_c, 0, 93, 82
1, 265164, Control_c, 0, 64, 72
1, 265172, Note_off_c, 0, 86, 63
1, 265179, Control_c, 0, 64, 76
1, 265194, Control_c, 0, 64, 82
1, 265209, Control_c, 0, 64, 94
1, 265209, Note_off_c, 0, 93, 65
1, 265213, Note_on_c, 0, 69, 66
1, 265224, Control_c, 0, 64, 104
1, 265239, Control_c, 0, 64, 100
1, 265254, Control_c, 0, 64, 90
1, 265266, Note_on_c, 0, 74, 61
1, 265269, Control_c, 0, 64, 81
1, 265283, Control_c, 0, 64, 76
1, 265287, Note_off_c, 0, 69, 60
1, 265292, Note_on_c, 0, 78, 67
1, 265307, Note_off_c, 0, 74, 60
1, 265313, Control_c, 0, 64, 79
1, 265328, Control_c, 0, 64, 83
1, 265333, Note_on_c, 0, 81, 69
1, 265342, Control_c, 0, 64, 92
1, 265355, Note_off_c, 0, 78, 61
1, 265357, Control_c, 0, 64, 105
1, 265372, Control_c, 0, 64, 127
1, 265381, Note_off_c, 0, 81, 54
1, 265383, Note_on_c, 0, 84, 71
1, 265429, Note_on_c, 0, 86, 78
1, 265459, Note_off_c, 0, 84, 61
1, 265462, Note_on_c, 0, 90, 83
1, 265494, Note_off_c, 0, 86, 64
1, 265498, Control_c, 0, 64, 103
1, 265513, Note_on_c, 0, 96, 82
1, 265513, Control_c, 0, 64, 87
1, 265522, Note_off_c, 0, 90, 65
1, 265528, Control_c, 0, 64, 77
1, 265542, Control_c, 0, 64, 72
1, 265557, Control_c, 0, 64, 73
1, 265564, Note_off_c, 0, 96, 64
1, 265572, Note_on_c, 0, 72, 65
1, 265572, Control_c, 0, 64, 76
1, 265587, Control_c, 0, 64, 83
1, 265602, Control_c, 0, 64, 93
1, 265617, Control_c, 0, 64, 102
1, 265623, Note_on_c, 0, 78, 68
1, 265632, Control_c, 0, 64, 104
1, 265647, Control_c, 0, 64, 100
1, 265650, Note_on_c, 0, 81, 68
1, 265652, Note_off_c, 0, 72, 58
1, 265662, Control_c, 0, 64, 93
1, 265677, Control_c, 0, 64, 84
1, 265692, Control_c, 0, 64, 77
1, 265693, Note_on_c, 0, 84, 78
1, 265707, Control_c, 0, 64, 75
1, 265707, Note_off_c, 0, 78, 59
1, 265721, Control_c, 0, 64, 79
1, 265725, Note_off_c, 0, 81, 62
1, 265733, Note_on_c, 0, 86, 74
1, 265736, Control_c, 0, 64, 85
1, 265751, Control_c, 0, 64, 95
1, 265765, Note_off_c, 0, 84, 57
1, 265765, Control_c, 0, 64, 107
1, 265780, Control_c, 0, 64, 109
1, 265790, Note_on_c, 0, 90, 82
1, 265795, Control_c, 0, 64, 102
1, 265810, Control_c, 0, 64, 92
1, 265823, Note_off_c, 0, 86, 59
1, 265825, Control_c, 0, 64, 79
1, 265826, Note_on_c, 0, 93, 82
1, 265839, Control_c, 0, 64, 71
1, 265854, Control_c, 0, 64, 69
1, 265864, Note_off_c, 0, 90, 64
1, 265869, Control_c, 0, 64, 72
1, 265870, Note_on_c, 0, 98, 85
1, 265883, Note_off_c, 0, 93, 67
1, 265884, Control_c, 0, 64, 76
1, 265899, Control_c, 0, 64, 82
1, 265913, Control_c, 0, 64, 87
1, 265923, Note_on_c, 0, 72, 64
1, 265939, Note_off_c, 0, 98, 64
1, 265943, Control_c, 0, 64, 82
1, 265957, Control_c, 0, 64, 76
1, 265972, Control_c, 0, 64, 69
1, 265978, Note_on_c, 0, 78, 66
1, 265987, Control_c, 0, 64, 66
1, 266002, Control_c, 0, 64, 68
1, 266003, Note_on_c, 0, 81, 68
1, 266017, Control_c, 0, 64, 72
1, 266032, Control_c, 0, 64, 80
1, 266046, Note_on_c, 0, 84, 83
1, 266047, Control_c, 0, 64, 99
1, 266061, Control_c, 0, 64, 127
1, 266079, Note_off_c, 0, 78, 54
1, 266095, Note_off_c, 0, 81, 59
1, 266098, Note_on_c, 0, 86, 81
1, 266106, Control_c, 0, 64, 103
1, 266121, Control_c, 0, 64, 86
1, 266136, Control_c, 0, 64, 77
1, 266137, Note_off_c, 0, 84, 55
1, 266144, Note_on_c, 0, 90, 80
1, 266151, Control_c, 0, 64, 73
1, 266172, Control_c, 0, 64, 75
1, 266178, Note_off_c, 0, 72, 27
1, 266187, Control_c, 0, 64, 84
1, 266198, Note_on_c, 0, 93, 82
1, 266202, Control_c, 0, 64, 99
1, 266217, Control_c, 0, 64, 127
1, 266227, Note_off_c, 0, 86, 63
1, 266243, Note_on_c, 0, 98, 87
1, 266246, Control_c, 0, 64, 112
1, 266249, Note_off_c, 0, 90, 64
1, 266261, Control_c, 0, 64, 92
1, 266267, Note_off_c, 0, 93, 66
1, 266276, Control_c, 0, 64, 78
1, 266291, Control_c, 0, 64, 70
1, 266306, Note_on_c, 0, 72, 61
1, 266306, Control_c, 0, 64, 69
1, 266321, Control_c, 0, 64, 72
1, 266330, Note_off_c, 0, 98, 61
1, 266336, Control_c, 0, 64, 77
1, 266351, Control_c, 0, 64, 83
1, 266365, Control_c, 0, 64, 88
1, 266371, Note_on_c, 0, 78, 67
1, 266380, Control_c, 0, 64, 89
1, 266395, Control_c, 0, 64, 85
1, 266410, Control_c, 0, 64, 81
1, 266412, Note_on_c, 0, 81, 66
1, 266425, Control_c, 0, 64, 75
1, 266440, Control_c, 0, 64, 71
1, 266455, Control_c, 0, 64, 70
1, 266456, Note_on_c, 0, 84, 77
1, 266466, Note_off_c, 0, 78, 56
1, 266470, Control_c, 0, 64, 74
1, 266485, Control_c, 0, 64, 80
1, 266500, Control_c, 0, 64, 90
1, 266505, Note_on_c, 0, 86, 75
1, 266514, Control_c, 0, 64, 103
1, 266529, Control_c, 0, 64, 110
1, 266543, Note_off_c, 0, 81, 36
1, 266543, Control_c, 0, 64, 107
1, 266557, Note_off_c, 0, 84, 56
1, 266558, Note_on_c, 0, 90, 80
1, 266558, Control_c, 0, 64, 96
1, 266571, Note_off_c, 0, 72, 18
1, 266573, Control_c, 0, 64, 85
1, 266587, Control_c, 0, 64, 76
1, 266602, Control_c, 0, 64, 69
1, 266611, Note_on_c, 0, 93, 82
1, 266617, Control_c, 0, 64, 66
1, 266632, Control_c, 0, 64, 68
1, 266647, Control_c, 0, 64, 73
1, 266661, Control_c, 0, 64, 79
1, 266664, Note_on_c, 0, 98, 86
1, 266675, Note_off_c, 0, 90, 62
1, 266676, Control_c, 0, 64, 87
1, 266691, Control_c, 0, 64, 93
1, 266697, Note_off_c, 0, 93, 66
1, 266721, Control_c, 0, 64, 89
1, 266724, Note_off_c, 0, 86, 61
1, 266735, Control_c, 0, 64, 81
1, 266750, Control_c, 0, 64, 71
1, 266751, Note_on_c, 0, 72, 53
1, 266765, Control_c, 0, 64, 65
1, 266780, Control_c, 0, 64, 64
1, 266782, Note_off_c, 0, 98, 59
1, 266795, Control_c, 0, 64, 67
1, 266810, Control_c, 0, 64, 71
1, 266825, Control_c, 0, 64, 77
1, 266829, Note_on_c, 0, 78, 55
1, 266839, Control_c, 0, 64, 85
1, 266854, Control_c, 0, 64, 89
1, 266869, Control_c, 0, 64, 83
1, 266884, Control_c, 0, 64, 76
1, 266898, Note_on_c, 0, 81, 56
1, 266899, Control_c, 0, 64, 69
1, 266920, Control_c, 0, 64, 66
1, 266935, Control_c, 0, 64, 67
1, 266950, Control_c, 0, 64, 70
1, 266965, Control_c, 0, 64, 74
1, 266977, Note_on_c, 0, 84, 60
1, 266980, Control_c, 0, 64, 78
1, 266994, Control_c, 0, 64, 81
1, 267009, Control_c, 0, 64, 80
1, 267024, Control_c, 0, 64, 77
1, 267039, Control_c, 0, 64, 70
1, 267039, Control_c, 0, 67, 8
1, 267054, Control_c, 0, 64, 66
1, 267054, Control_c, 0, 67, 19
1, 267066, Note_on_c, 0, 86, 59
1, 267069, Control_c, 0, 64, 66
1, 267069, Control_c, 0, 67, 28
1, 267084, Control_c, 0, 64, 67
1, 267084, Control_c, 0, 67, 35
1, 267099, Control_c, 0, 64, 70
1, 267099, Control_c, 0, 67, 41
1, 267113, Control_c, 0, 64, 74
1, 267113, Control_c, 0, 67, 50
1, 267128, Control_c, 0, 64, 80
1, 267128, Control_c, 0, 67, 58
1, 267129, Note_off_c, 0, 78, 16
1, 267135, Note_off_c, 0, 81, 28
1, 267143, Control_c, 0, 64, 83
1, 267143, Control_c, 0, 67, 66
1, 267147, Note_on_c, 0, 90, 64
1, 267158, Control_c, 0, 64, 82
1, 267158, Control_c, 0, 67, 75
1, 267173, Control_c, 0, 64, 79
1, 267173, Control_c, 0, 67, 82
1, 267185, Note_off_c, 0, 84, 38
1, 267187, Control_c, 0, 64, 75
1, 267187, Control_c, 0, 67, 90
1, 267188, Note_off_c, 0, 72, 36
1, 267202, Control_c, 0, 64, 70
1, 267202, Control_c, 0, 67, 100
1, 267218, Control_c, 0, 64, 65
1, 267218, Control_c, 0, 67, 107
1, 267233, Control_c, 0, 67, 111
1, 267242, Note_on_c, 0, 93, 61
1, 267248, Control_c, 0, 64, 67
1, 267248, Control_c, 0, 67, 112
1, 267263, Control_c, 0, 64, 68
1, 267263, Control_c, 0, 67, 112
1, 267278, Control_c, 0, 64, 70
1, 267278, Control_c, 0, 67, 114
1, 267292, Control_c, 0, 64, 72
1, 267307, Control_c, 0, 64, 75
1, 267322, Control_c, 0, 64, 77
1, 267331, Note_off_c, 0, 90, 31
1, 267347, Note_on_c, 0, 98, 62
1, 267352, Control_c, 0, 64, 75
1, 267366, Control_c, 0, 64, 72
1, 267366, Control_c, 0, 67, 114
1, 267381, Control_c, 0, 64, 68
1, 267382, Note_off_c, 0, 93, 62
1, 267396, Control_c, 0, 64, 65
1, 267410, Control_c, 0, 64, 64
1, 267425, Control_c, 0, 64, 66
1, 267440, Control_c, 0, 64, 68
1, 267454, Note_off_c, 0, 86, 43
1, 267455, Control_c, 0, 64, 70
1, 267457, Note_on_c, 0, 72, 40
1, 267470, Control_c, 0, 64, 71
1, 267484, Control_c, 0, 64, 72
1, 267499, Control_c, 0, 64, 70
1, 267514, Control_c, 0, 64, 69
1, 267528, Control_c, 0, 64, 67
1, 267534, Note_off_c, 0, 98, 53
1, 267543, Control_c, 0, 64, 65
1, 267558, Control_c, 0, 64, 65
1, 267573, Control_c, 0, 64, 65
1, 267573, Control_c, 0, 67, 114
1, 267588, Control_c, 0, 64, 66
1, 267589, Note_on_c, 0, 78, 37
1, 267603, Control_c, 0, 64, 67
1, 267603, Control_c, 0, 67, 113
1, 267617, Control_c, 0, 64, 67
1, 267670, Control_c, 0, 64, 67
1, 267699, Control_c, 0, 64, 66
1, 267714, Control_c, 0, 67, 112
1, 267737, Note_on_c, 0, 81, 43
1, 267758, Control_c, 0, 64, 66
1, 267862, Control_c, 0, 64, 65
1, 267891, Note_on_c, 0, 84, 40
1, 267922, Control_c, 0, 67, 112
1, 267951, Control_c, 0, 64, 65
1, 268027, Control_c, 0, 64, 64
1, 268056, Control_c, 0, 64, 64
1, 268071, Note_on_c, 0, 87, 33
1, 268071, Control_c, 0, 64, 63
1, 268086, Control_c, 0, 64, 63
1, 268086, Control_c, 0, 67, 111
1, 268130, Control_c, 0, 64, 62
1, 268145, Control_c, 0, 64, 62
1, 268160, Control_c, 0, 64, 61
1, 268175, Control_c, 0, 64, 61
1, 268190, Control_c, 0, 64, 60
1, 268205, Control_c, 0, 64, 60
1, 268220, Control_c, 0, 64, 59
1, 268220, Control_c, 0, 67, 110
1, 268234, Control_c, 0, 64, 59
1, 268249, Control_c, 0, 64, 58
1, 268256, Note_on_c, 0, 90, 35
1, 268264, Control_c, 0, 64, 57
1, 268279, Control_c, 0, 64, 57
1, 268294, Control_c, 0, 64, 56
1, 268308, Control_c, 0, 64, 54
1, 268323, Control_c, 0, 64, 53
1, 268338, Control_c, 0, 64, 51
1, 268352, Control_c, 0, 64, 50
1, 268367, Control_c, 0, 64, 48
1, 268382, Control_c, 0, 64, 47
1, 268434, Control_c, 0, 67, 110
1, 268449, Control_c, 0, 64, 48
1, 268464, Control_c, 0, 64, 49
1, 268479, Control_c, 0, 64, 50
1, 268479, Control_c, 0, 67, 109
1, 268494, Control_c, 0, 64, 52
1, 268502, Note_on_c, 0, 93, 36
1, 268508, Control_c, 0, 64, 54
1, 268523, Control_c, 0, 64, 56
1, 268538, Control_c, 0, 64, 57
1, 268538, Control_c, 0, 67, 109
1, 268553, Control_c, 0, 64, 58
1, 268567, Control_c, 0, 64, 60
1, 268567, Control_c, 0, 67, 108
1, 268582, Control_c, 0, 64, 62
1, 268597, Control_c, 0, 64, 64
1, 268612, Control_c, 0, 64, 66
1, 268612, Control_c, 0, 67, 107
1, 268627, Control_c, 0, 64, 68
1, 268641, Control_c, 0, 64, 70
1, 268656, Control_c, 0, 64, 73
1, 268671, Control_c, 0, 64, 77
1, 268686, Control_c, 0, 64, 82
1, 268701, Control_c, 0, 64, 88
1, 268715, Control_c, 0, 64, 94
1, 268715, Control_c, 0, 67, 107
1, 268730, Control_c, 0, 64, 103
1, 268745, Control_c, 0, 64, 118
1, 268758, Control_c, 0, 64, 127
1, 268777, Note_off_c, 0, 87, 30
1, 268804, Control_c, 0, 67, 106
1, 268872, Note_on_c, 0, 99, 42
1, 268878, Note_off_c, 0, 81, 35
1, 268944, Note_off_c, 0, 84, 29
1, 268977, Note_off_c, 0, 90, 29
1, 269018, Note_off_c, 0, 93, 37
1, 269026, Control_c, 0, 67, 105
1, 269093, Note_off_c, 0, 78, 26
1, 269179, Note_off_c, 0, 72, 40
1, 269312, Note_off_c, 0, 99, 32
1, 269359, Control_c, 0, 67, 105
1, 269537, Control_c, 0, 67, 104
1, 269581, Control_c, 0, 67, 103
1, 269656, Control_c, 0, 67, 103
1, 269790, Control_c, 0, 67, 102
1, 269878, Control_c, 0, 67, 102
1, 270034, Control_c, 0, 67, 101
1, 270271, Control_c, 0, 67, 100
1, 270345, Note_on_c, 0, 72, 29
1, 270367, Note_on_c, 0, 78, 24
1, 270429, Note_on_c, 0, 101, 56
1, 270442, Note_on_c, 0, 89, 38
1, 270479, Control_c, 0, 64, 111
1, 270479, Control_c, 0, 67, 100
1, 270494, Control_c, 0, 64, 101
1, 270509, Control_c, 0, 64, 95
1, 270524, Control_c, 0, 64, 90
1, 270539, Control_c, 0, 64, 86
1, 270553, Control_c, 0, 64, 82
1, 270568, Control_c, 0, 64, 76
1, 270583, Control_c, 0, 64, 72
1, 270598, Control_c, 0, 64, 68
1, 270613, Control_c, 0, 64, 64
1, 270627, Control_c, 0, 64, 60
1, 270642, Control_c, 0, 64, 59
1, 270642, Control_c, 0, 67, 99
1, 270664, Control_c, 0, 64, 61
1, 270679, Control_c, 0, 64, 63
1, 270679, Control_c, 0, 67, 98
1, 270694, Control_c, 0, 64, 64
1, 270709, Control_c, 0, 64, 67
1, 270724, Control_c, 0, 64, 73
1, 270724, Control_c, 0, 67, 98
1, 270738, Control_c, 0, 64, 83
1, 270753, Control_c, 0, 64, 107
1, 270768, Control_c, 0, 64, 127
1, 270827, Control_c, 0, 67, 97
1, 270843, Note_off_c, 0, 78, 37
1, 270875, Note_on_c, 0, 81, 31
1, 270901, Control_c, 0, 67, 97
1, 270922, Note_off_c, 0, 89, 38
1, 270938, Note_off_c, 0, 81, 54
1, 271071, Poly_aftertouch_c, 0, 78, 0
1, 271073, Note_on_c, 0, 81, 42
1, 271108, Note_off_c, 0, 81, 49
1, 271123, Control_c, 0, 67, 97
1, 271154, Note_on_c, 0, 78, 14
1, 271181, Note_off_c, 0, 101, 36
1, 271198, Control_c, 0, 67, 98
1, 271199, Note_off_c, 0, 78, 44
1, 271257, Control_c, 0, 67, 98
1, 271268, Poly_aftertouch_c, 0, 81, 127
1, 271290, Note_on_c, 0, 78, 20
1, 271317, Control_c, 0, 67, 99
1, 271329, Note_off_c, 0, 78, 48
1, 271391, Poly_aftertouch_c, 0, 81, 0
1, 271428, Control_c, 0, 67, 100
1, 271439, Note_on_c, 0, 78, 37
1, 271466, Note_off_c, 0, 78, 53
1, 271511, Note_on_c, 0, 99, 54
1, 271539, Note_on_c, 0, 87, 25
1, 271571, Note_on_c, 0, 78, 44
1, 271595, Poly_aftertouch_c, 0, 81, 0
1, 271598, Note_off_c, 0, 78, 57
1, 271614, Note_on_c, 0, 81, 19
1, 271656, Note_off_c, 0, 87, 38
1, 271668, Note_off_c, 0, 81, 47
1, 271714, Note_on_c, 0, 78, 36
1, 271743, Note_off_c, 0, 78, 53
1, 271769, Note_off_c, 0, 72, 22
1, 271772, Note_on_c, 0, 81, 29
1, 271806, Note_off_c, 0, 81, 51
1, 271835, Note_on_c, 0, 101, 74
1, 271859, Note_on_c, 0, 89, 53
1, 271895, Note_on_c, 0, 81, 46
1, 271936, Note_off_c, 0, 101, 61
1, 271939, Note_off_c, 0, 89, 62
1, 271944, Note_off_c, 0, 81, 59
1, 271962, Note_on_c, 0, 78, 22
1, 271967, Note_off_c, 0, 99, 23
1, 272008, Note_off_c, 0, 78, 58
1, 272049, Note_on_c, 0, 99, 85
1, 272065, Note_on_c, 0, 81, 41
1, 272077, Note_on_c, 0, 87, 58
1, 272142, Note_off_c, 0, 87, 59
1, 272155, Note_off_c, 0, 99, 64
1, 272196, Note_off_c, 0, 81, 60
1, 272220, Note_on_c, 0, 73, 49
1, 272222, Control_c, 0, 67, 100
1, 272252, Control_c, 0, 64, 119
1, 272267, Control_c, 0, 64, 89
1, 272281, Control_c, 0, 64, 71
1, 272292, Note_on_c, 0, 97, 67
1, 272296, Control_c, 0, 64, 58
1, 272298, Note_on_c, 0, 78, 27
1, 272311, Control_c, 0, 64, 40
1, 272326, Note_on_c, 0, 85, 45
1, 272326, Control_c, 0, 64, 46
1, 272341, Control_c, 0, 64, 52
1, 272355, Control_c, 0, 64, 57
1, 272370, Control_c, 0, 64, 62
1, 272380, Note_off_c, 0, 78, 61
1, 272385, Control_c, 0, 64, 68
1, 272400, Control_c, 0, 64, 76
1, 272410, Note_on_c, 0, 82, 52
1, 272414, Control_c, 0, 64, 93
1, 272429, Control_c, 0, 64, 127
1, 272438, Note_off_c, 0, 82, 54
1, 272481, Note_on_c, 0, 78, 43
1, 272498, Note_off_c, 0, 85, 35
1, 272512, Note_off_c, 0, 78, 60
1, 272535, Note_on_c, 0, 82, 54
1, 272563, Note_off_c, 0, 82, 61
1, 272583, Note_off_c, 0, 73, 42
1, 272607, Note_on_c, 0, 78, 51
1, 272628, Note_off_c, 0, 78, 62
1, 272648, Note_on_c, 0, 82, 58
1, 272683, Note_off_c, 0, 82, 61
1, 272714, Note_on_c, 0, 78, 61
1, 272750, Note_off_c, 0, 78, 64
1, 272768, Note_on_c, 0, 82, 57
1, 272802, Note_off_c, 0, 82, 57
1, 272830, Control_c, 0, 67, 100
1, 272843, Note_on_c, 0, 78, 51
1, 272848, Note_off_c, 0, 97, 60
1, 272861, Note_on_c, 0, 102, 70
1, 272877, Note_off_c, 0, 78, 61
1, 272880, Note_on_c, 0, 90, 54
1, 272901, Note_on_c, 0, 82, 56
1, 272944, Note_off_c, 0, 82, 60
1, 272983, Note_on_c, 0, 78, 52
1, 273013, Note_off_c, 0, 78, 62
1, 273030, Control_c, 0, 67, 99
1, 273047, Note_on_c, 0, 82, 52
1, 273076, Note_off_c, 0, 82, 57
1, 273111, Note_on_c, 0, 78, 53
1, 273138, Note_off_c, 0, 78, 61
1, 273168, Note_on_c, 0, 82, 54
1, 273207, Note_off_c, 0, 82, 56
1, 273236, Note_on_c, 0, 78, 51
1, 273266, Note_off_c, 0, 78, 60
1, 273266, Control_c, 0, 67, 98
1, 273338, Note_off_c, 0, 102, 30
1, 273349, Poly_aftertouch_c, 0, 82, 127
1, 273356, Note_on_c, 0, 78, 41
1, 273387, Note_off_c, 0, 78, 52
1, 273427, Note_off_c, 0, 90, 32
1, 273489, Poly_aftertouch_c, 0, 82, 0
1, 273496, Note_on_c, 0, 72, 40
1, 273533, Control_c, 0, 64, 109
1, 273535, Note_on_c, 0, 78, 28
1, 273544, Note_on_c, 0, 101, 61
1, 273547, Control_c, 0, 64, 87
1, 273562, Control_c, 0, 64, 74
1, 273564, Note_on_c, 0, 89, 46
1, 273577, Control_c, 0, 64, 64
1, 273593, Control_c, 0, 64, 52
1, 273608, Control_c, 0, 64, 44
1, 273623, Control_c, 0, 64, 46
1, 273638, Control_c, 0, 64, 52
1, 273660, Control_c, 0, 64, 58
1, 273660, Control_c, 0, 67, 98
1, 273669, Note_off_c, 0, 78, 45
1, 273675, Control_c, 0, 64, 63
1, 273690, Control_c, 0, 64, 69
1, 273703, Note_on_c, 0, 81, 40
1, 273704, Control_c, 0, 64, 79
1, 273719, Control_c, 0, 64, 104
1, 273734, Control_c, 0, 64, 127
1, 273740, Note_off_c, 0, 81, 60
1, 273785, Note_on_c, 0, 78, 39
1, 273811, Note_off_c, 0, 78, 57
1, 273840, Note_off_c, 0, 89, 40
1, 273851, Note_on_c, 0, 81, 42
1, 273870, Note_off_c, 0, 101, 31
1, 273876, Note_off_c, 0, 81, 55
1, 273913, Note_on_c, 0, 78, 51
1, 273937, Note_off_c, 0, 78, 60
1, 273975, Note_on_c, 0, 81, 43
1, 273999, Note_off_c, 0, 81, 56
1, 274029, Note_on_c, 0, 78, 61
1, 274064, Note_off_c, 0, 78, 64
1, 274089, Note_on_c, 0, 81, 50
1, 274120, Note_off_c, 0, 81, 53
1, 274134, Control_c, 0, 67, 98
1, 274161, Note_on_c, 0, 78, 53
1, 274200, Note_on_c, 0, 99, 66
1, 274203, Note_off_c, 0, 78, 59
1, 274224, Note_on_c, 0, 81, 49
1, 274229, Note_on_c, 0, 87, 40
1, 274256, Note_off_c, 0, 81, 52
1, 274289, Note_on_c, 0, 78, 51
1, 274307, Note_off_c, 0, 87, 56
1, 274323, Note_off_c, 0, 78, 63
1, 274341, Control_c, 0, 67, 99
1, 274361, Note_on_c, 0, 81, 46
1, 274387, Note_off_c, 0, 81, 55
1, 274429, Note_on_c, 0, 78, 56
1, 274460, Note_off_c, 0, 78, 63
1, 274488, Note_on_c, 0, 81, 52
1, 274498, Note_on_c, 0, 101, 83
1, 274527, Note_on_c, 0, 89, 59
1, 274532, Note_off_c, 0, 81, 54
1, 274554, Note_on_c, 0, 78, 53
1, 274583, Note_off_c, 0, 78, 62
1, 274595, Note_off_c, 0, 89, 63
1, 274596, Note_off_c, 0, 72, 28
1, 274608, Note_off_c, 0, 101, 63
1, 274623, Note_off_c, 0, 99, 55
1, 274667, Note_on_c, 0, 78, 64
1, 274679, Poly_aftertouch_c, 0, 81, 127
1, 274688, Note_on_c, 0, 99, 84
1, 274705, Note_off_c, 0, 78, 63
1, 274712, Note_on_c, 0, 87, 65
1, 274749, Control_c, 0, 67, 100
1, 274785, Note_off_c, 0, 87, 60
1, 274804, Note_off_c, 0, 99, 64
1, 274818, Poly_aftertouch_c, 0, 81, 0
1, 274824, Note_on_c, 0, 73, 54
1, 274882, Control_c, 0, 64, 99
1, 274897, Control_c, 0, 64, 80
1, 274898, Note_on_c, 0, 97, 77
1, 274912, Control_c, 0, 64, 66
1, 274915, Note_on_c, 0, 78, 29
1, 274927, Control_c, 0, 64, 50
1, 274934, Note_on_c, 0, 85, 52
1, 274942, Control_c, 0, 64, 36
1, 274956, Control_c, 0, 64, 38
1, 274971, Control_c, 0, 64, 44
1, 274986, Control_c, 0, 64, 52
1, 274998, Note_off_c, 0, 78, 61
1, 275001, Control_c, 0, 64, 58
1, 275016, Control_c, 0, 64, 64
1, 275024, Note_on_c, 0, 82, 50
1, 275031, Control_c, 0, 64, 71
1, 275046, Control_c, 0, 64, 82
1, 275055, Note_off_c, 0, 82, 61
1, 275061, Control_c, 0, 64, 104
1, 275075, Control_c, 0, 64, 127
1, 275075, Control_c, 0, 67, 99
1, 275079, Note_on_c, 0, 78, 45
1, 275089, Note_off_c, 0, 85, 59
1, 275126, Note_off_c, 0, 78, 61
1, 275150, Note_on_c, 0, 82, 61
1, 275156, Control_c, 0, 67, 98
1, 275189, Note_off_c, 0, 82, 60
1, 275223, Note_on_c, 0, 78, 53
1, 275255, Note_off_c, 0, 78, 61
1, 275285, Note_on_c, 0, 82, 48
1, 275305, Note_off_c, 0, 82, 59
1, 275335, Note_on_c, 0, 78, 62
1, 275339, Note_off_c, 0, 73, 34
1, 275371, Note_off_c, 0, 78, 64
1, 275385, Note_on_c, 0, 82, 61
1, 275433, Note_off_c, 0, 82, 56
1, 275451, Note_on_c, 0, 102, 70
1, 275454, Note_off_c, 0, 97, 60
1, 275467, Note_on_c, 0, 78, 55
1, 275481, Note_on_c, 0, 90, 48
1, 275508, Note_off_c, 0, 78, 64
1, 275542, Note_on_c, 0, 82, 49
1, 275566, Note_off_c, 0, 82, 56
1, 275594, Note_on_c, 0, 78, 53
1, 275632, Note_off_c, 0, 78, 64
1, 275648, Note_on_c, 0, 82, 57
1, 275694, Note_off_c, 0, 82, 56
1, 275732, Note_on_c, 0, 78, 51
1, 275759, Note_off_c, 0, 78, 62
1, 275791, Note_on_c, 0, 82, 41
1, 275820, Note_off_c, 0, 82, 53
1, 275850, Note_on_c, 0, 78, 57
1, 275854, Control_c, 0, 67, 98
1, 275882, Note_off_c, 0, 78, 63
1, 275910, Note_off_c, 0, 102, 52
1, 275920, Note_on_c, 0, 82, 53
1, 276027, Note_off_c, 0, 90, 37
1, 276049, Poly_aftertouch_c, 0, 78, 127
1, 276080, Note_on_c, 0, 72, 42
1, 276098, Note_off_c, 0, 82, 37
1, 276100, Control_c, 0, 64, 112
1, 276115, Control_c, 0, 64, 103
1, 276129, Control_c, 0, 64, 94
1, 276143, Note_on_c, 0, 101, 61
1, 276144, Control_c, 0, 64, 84
1, 276158, Note_on_c, 0, 89, 47
1, 276159, Control_c, 0, 64, 73
1, 276174, Control_c, 0, 64, 65
1, 276189, Control_c, 0, 64, 56
1, 276203, Control_c, 0, 64, 51
1, 276233, Control_c, 0, 64, 52
1, 276244, Poly_aftertouch_c, 0, 78, 0
1, 276247, Control_c, 0, 64, 56
1, 276262, Control_c, 0, 64, 60
1, 276277, Note_on_c, 0, 81, 41
1, 276277, Control_c, 0, 64, 64
1, 276292, Control_c, 0, 64, 68
1, 276307, Control_c, 0, 64, 75
1, 276319, Note_off_c, 0, 81, 63
1, 276322, Control_c, 0, 64, 87
1, 276337, Control_c, 0, 64, 113
1, 276352, Control_c, 0, 64, 127
1, 276357, Note_on_c, 0, 78, 52
1, 276390, Note_off_c, 0, 78, 60
1, 276438, Note_on_c, 0, 81, 36
1, 276463, Note_off_c, 0, 89, 40
1, 276466, Note_off_c, 0, 81, 54
1, 276481, Note_off_c, 0, 101, 36
1, 276498, Note_on_c, 0, 78, 47
1, 276521, Note_off_c, 0, 78, 58
1, 276529, Control_c, 0, 67, 98
1, 276564, Note_on_c, 0, 81, 39
1, 276590, Note_off_c, 0, 81, 55
1, 276613, Note_on_c, 0, 78, 54
1, 276637, Note_off_c, 0, 78, 61
1, 276685, Control_c, 0, 67, 99
1, 276691, Note_on_c, 0, 81, 38
1, 276717, Note_off_c, 0, 81, 54
1, 276731, Note_on_c, 0, 78, 61
1, 276739, Note_on_c, 0, 99, 72
1, 276744, Control_c, 0, 67, 100
1, 276760, Note_on_c, 0, 87, 54
1, 276766, Note_off_c, 0, 78, 64
1, 276768, Poly_aftertouch_c, 0, 94, 127
1, 276810, Note_on_c, 0, 81, 51
1, 276828, Poly_aftertouch_c, 0, 94, 0
1, 276834, Note_off_c, 0, 81, 58
1, 276859, Note_on_c, 0, 78, 60
1, 276894, Note_off_c, 0, 78, 65
1, 276927, Note_on_c, 0, 81, 52
1, 276949, Note_off_c, 0, 81, 61
1, 276972, Note_on_c, 0, 78, 68
1, 277003, Note_off_c, 0, 78, 66
1, 277029, Note_on_c, 0, 81, 62
1, 277055, Control_c, 0, 67, 100
1, 277102, Note_on_c, 0, 78, 56
1, 277117, Note_off_c, 0, 72, 42
1, 277121, Note_off_c, 0, 78, 63
1, 277178, Note_off_c, 0, 99, 59
1, 277216, Note_off_c, 0, 81, 58
1, 277225, Note_on_c, 0, 77, 57
1, 277228, Note_on_c, 0, 72, 54
1, 277237, Note_off_c, 0, 87, 60
1, 277263, Control_c, 0, 64, 97
1, 277273, Note_on_c, 0, 98, 69
1, 277277, Control_c, 0, 64, 80
1, 277279, Note_on_c, 0, 86, 56
1, 277292, Control_c, 0, 64, 67
1, 277307, Control_c, 0, 64, 56
1, 277322, Control_c, 0, 64, 49
1, 277336, Control_c, 0, 64, 51
1, 277351, Control_c, 0, 64, 53
1, 277366, Control_c, 0, 64, 58
1, 277373, Note_off_c, 0, 77, 62
1, 277381, Control_c, 0, 64, 62
1, 277403, Control_c, 0, 64, 67
1, 277410, Note_on_c, 0, 81, 51
1, 277418, Control_c, 0, 64, 75
1, 277433, Control_c, 0, 64, 91
1, 277448, Control_c, 0, 64, 127
1, 277448, Note_off_c, 0, 81, 62
1, 277469, Note_on_c, 0, 77, 52
1, 277505, Note_off_c, 0, 77, 64
1, 277540, Note_on_c, 0, 81, 55
1, 277566, Control_c, 0, 67, 101
1, 277568, Note_off_c, 0, 81, 62
1, 277587, Note_on_c, 0, 77, 67
1, 277602, Note_off_c, 0, 86, 59
1, 277621, Note_off_c, 0, 77, 64
1, 277626, Control_c, 0, 67, 102
1, 277652, Note_on_c, 0, 81, 59
1, 277691, Note_off_c, 0, 81, 60
1, 277704, Note_on_c, 0, 77, 64
1, 277741, Note_off_c, 0, 77, 63
1, 277773, Note_on_c, 0, 81, 59
1, 277804, Control_c, 0, 67, 102
1, 277815, Note_on_c, 0, 99, 85
1, 277815, Note_off_c, 0, 81, 59
1, 277830, Note_on_c, 0, 77, 61
1, 277836, Note_on_c, 0, 87, 67
1, 277869, Note_off_c, 0, 77, 62
1, 277905, Note_on_c, 0, 81, 57
1, 277946, Note_off_c, 0, 81, 58
1, 277964, Note_on_c, 0, 77, 60
1, 277995, Note_off_c, 0, 77, 66
1, 278025, Note_on_c, 0, 81, 57
1, 278069, Note_off_c, 0, 81, 59
1, 278093, Note_on_c, 0, 77, 55
1, 278114, Note_off_c, 0, 77, 62
1, 278159, Note_on_c, 0, 81, 50
1, 278189, Note_off_c, 0, 81, 52
1, 278200, Note_on_c, 0, 77, 66
1, 278231, Note_off_c, 0, 72, 62
1, 278256, Control_c, 0, 67, 103
1, 278269, Note_off_c, 0, 77, 59
1, 278277, Note_on_c, 0, 81, 61
1, 278370, Note_on_c, 0, 72, 63
1, 278375, Note_off_c, 0, 81, 61
1, 278390, Control_c, 0, 64, 104
1, 278405, Control_c, 0, 64, 92
1, 278408, Note_on_c, 0, 75, 49
1, 278420, Control_c, 0, 64, 79
1, 278435, Control_c, 0, 64, 67
1, 278449, Control_c, 0, 64, 54
1, 278464, Control_c, 0, 64, 37
1, 278479, Control_c, 0, 64, 39
1, 278494, Control_c, 0, 64, 45
1, 278509, Control_c, 0, 64, 54
1, 278514, Note_off_c, 0, 75, 60
1, 278523, Control_c, 0, 64, 60
1, 278538, Control_c, 0, 64, 66
1, 278546, Note_on_c, 0, 81, 45
1, 278553, Control_c, 0, 64, 74
1, 278562, Note_off_c, 0, 98, 58
1, 278568, Control_c, 0, 64, 95
1, 278583, Control_c, 0, 64, 127
1, 278590, Note_off_c, 0, 81, 61
1, 278605, Note_on_c, 0, 75, 48
1, 278648, Poly_aftertouch_c, 0, 97, 127
1, 278650, Note_off_c, 0, 75, 60
1, 278705, Note_on_c, 0, 81, 33
1, 278716, Note_off_c, 0, 87, 55
1, 278733, Note_off_c, 0, 81, 53
1, 278746, Note_on_c, 0, 75, 52
1, 278785, Note_off_c, 0, 75, 61
1, 278832, Note_on_c, 0, 81, 41
1, 278858, Note_off_c, 0, 81, 54
1, 278891, Note_on_c, 0, 75, 51
1, 278932, Note_off_c, 0, 75, 61
1, 278941, Note_on_c, 0, 101, 74
1, 278962, Note_on_c, 0, 89, 59
1, 278963, Poly_aftertouch_c, 0, 97, 0
1, 278964, Note_on_c, 0, 81, 42
1, 279008, Note_off_c, 0, 81, 55
1, 279037, Note_on_c, 0, 75, 50
1, 279077, Note_off_c, 0, 75, 61
1, 279122, Note_on_c, 0, 81, 42
1, 279157, Note_off_c, 0, 81, 50
1, 279181, Note_on_c, 0, 75, 47
1, 279221, Note_off_c, 0, 75, 61
1, 279270, Note_on_c, 0, 81, 38
1, 279305, Note_off_c, 0, 81, 50
1, 279330, Note_on_c, 0, 75, 47
1, 279374, Note_off_c, 0, 75, 60
1, 279421, Note_off_c, 0, 72, 42
1, 279426, Note_on_c, 0, 81, 39
1, 279569, Control_c, 0, 64, 111
1, 279583, Control_c, 0, 64, 98
1, 279591, Note_on_c, 0, 71, 51
1, 279596, Note_off_c, 0, 81, 46
1, 279598, Control_c, 0, 64, 85
1, 279613, Control_c, 0, 64, 74
1, 279628, Control_c, 0, 64, 64
1, 279639, Note_on_c, 0, 75, 30
1, 279651, Control_c, 0, 64, 52
1, 279665, Control_c, 0, 64, 42
1, 279680, Control_c, 0, 64, 42
1, 279695, Control_c, 0, 64, 45
1, 279710, Control_c, 0, 64, 50
1, 279725, Control_c, 0, 64, 54
1, 279740, Control_c, 0, 64, 59
1, 279745, Note_off_c, 0, 75, 54
1, 279754, Control_c, 0, 64, 64
1, 279769, Control_c, 0, 64, 68
1, 279780, Note_on_c, 0, 81, 37
1, 279784, Control_c, 0, 64, 76
1, 279798, Control_c, 0, 64, 87
1, 279804, Note_off_c, 0, 99, 35
1, 279813, Control_c, 0, 64, 103
1, 279828, Control_c, 0, 64, 127
1, 279833, Note_off_c, 0, 81, 56
1, 279861, Note_on_c, 0, 75, 35
1, 279873, Note_off_c, 0, 89, 36
1, 279912, Note_off_c, 0, 75, 56
1, 279970, Note_on_c, 0, 81, 35
1, 280007, Note_off_c, 0, 81, 49
1, 280036, Note_on_c, 0, 75, 43
1, 280080, Note_off_c, 0, 75, 56
1, 280129, Note_on_c, 0, 81, 38
1, 280167, Note_off_c, 0, 81, 48
1, 280206, Note_on_c, 0, 75, 39
1, 280251, Note_off_c, 0, 75, 54
1, 280296, Note_on_c, 0, 81, 33
1, 280334, Note_off_c, 0, 81, 48
1, 280358, Note_on_c, 0, 102, 55
1, 280364, Note_on_c, 0, 90, 38
1, 280401, Note_on_c, 0, 75, 33
1, 280452, Note_off_c, 0, 75, 42
1, 280475, Note_on_c, 0, 81, 34
1, 280565, Note_off_c, 0, 81, 38
1, 280594, Note_on_c, 0, 75, 30
1, 280650, Note_off_c, 0, 75, 47
1, 280700, Note_off_c, 0, 90, 39
1, 280705, Note_on_c, 0, 81, 33
1, 280746, Note_off_c, 0, 81, 47
1, 280793, Note_on_c, 0, 75, 42
1, 280852, Note_off_c, 0, 75, 54
1, 280918, Note_on_c, 0, 81, 32
1, 280919, Note_off_c, 0, 101, 20
1, 281014, Note_off_c, 0, 81, 38
1, 281043, Note_on_c, 0, 75, 35
1, 281076, Note_off_c, 0, 102, 36
1, 281124, Note_off_c, 0, 71, 38
1, 281164, Note_off_c, 0, 75, 47
1, 281201, Note_on_c, 0, 81, 32
1, 281363, Note_off_c, 0, 81, 40
1, 281406, Note_on_c, 0, 70, 38
1, 281552, Note_on_c, 0, 75, 39
1, 281622, Control_c, 0, 64, 117
1, 281637, Control_c, 0, 64, 111
1, 281652, Control_c, 0, 64, 106
1, 281663, Note_on_c, 0, 79, 47
1, 281666, Control_c, 0, 64, 101
1, 281681, Control_c, 0, 64, 99
1, 281696, Control_c, 0, 64, 97
1, 281711, Control_c, 0, 64, 94
1, 281726, Control_c, 0, 64, 90
1, 281740, Control_c, 0, 64, 84
1, 281755, Control_c, 0, 64, 80
1, 281770, Control_c, 0, 64, 78
1, 281785, Note_on_c, 0, 82, 50
1, 281785, Control_c, 0, 64, 75
1, 281800, Control_c, 0, 64, 71
1, 281804, Note_on_c, 0, 94, 28
1, 281814, Control_c, 0, 64, 65
1, 281829, Control_c, 0, 64, 56
1, 281832, Note_on_c, 0, 91, 19
1, 281844, Control_c, 0, 64, 49
1, 281858, Control_c, 0, 64, 47
1, 281873, Control_c, 0, 64, 46
1, 281896, Control_c, 0, 64, 46
1, 281911, Control_c, 0, 64, 49
1, 281926, Control_c, 0, 64, 55
1, 281941, Control_c, 0, 64, 60
1, 281955, Control_c, 0, 64, 64
1, 281970, Control_c, 0, 64, 69
1, 281979, Note_off_c, 0, 94, 54
1, 281985, Control_c, 0, 64, 77
1, 281988, Note_off_c, 0, 91, 42
1, 282000, Control_c, 0, 64, 89
1, 282014, Control_c, 0, 64, 107
1, 282016, Note_on_c, 0, 103, 43
1, 282029, Control_c, 0, 64, 127
1, 282082, Note_off_c, 0, 103, 41
1, 282106, Note_on_c, 0, 94, 40
1, 282113, Note_on_c, 0, 91, 40
1, 282145, Note_off_c, 0, 94, 57
1, 282146, Note_off_c, 0, 91, 53
1, 282179, Note_off_c, 0, 82, 32
1, 282191, Note_on_c, 0, 103, 51
1, 282212, Note_off_c, 0, 103, 58
1, 282215, Note_off_c, 0, 79, 41
1, 282247, Note_on_c, 0, 94, 54
1, 282255, Note_on_c, 0, 91, 39
1, 282269, Note_off_c, 0, 94, 61
1, 282282, Note_off_c, 0, 91, 48
1, 282292, Note_on_c, 0, 103, 65
1, 282324, Note_off_c, 0, 75, 41
1, 282331, Note_off_c, 0, 103, 62
1, 282352, Note_off_c, 0, 70, 41
1, 282358, Note_on_c, 0, 94, 59
1, 282364, Note_on_c, 0, 91, 56
1, 282384, Note_off_c, 0, 91, 61
1, 282392, Note_off_c, 0, 94, 65
1, 282422, Note_on_c, 0, 103, 63
1, 282451, Note_off_c, 0, 103, 62
1, 282459, Control_c, 0, 67, 102
1, 282471, Note_on_c, 0, 94, 66
1, 282480, Note_on_c, 0, 91, 52
1, 282501, Note_off_c, 0, 91, 61
1, 282504, Note_off_c, 0, 94, 63
1, 282531, Note_on_c, 0, 103, 66
1, 282562, Note_off_c, 0, 103, 63
1, 282591, Note_on_c, 0, 94, 58
1, 282593, Control_c, 0, 67, 102
1, 282594, Note_on_c, 0, 91, 54
1, 282615, Note_off_c, 0, 91, 60
1, 282622, Note_off_c, 0, 94, 58
1, 282623, Control_c, 0, 67, 101
1, 282647, Note_on_c, 0, 103, 68
1, 282689, Note_off_c, 0, 103, 59
1, 282719, Note_on_c, 0, 94, 54
1, 282722, Note_on_c, 0, 67, 35
1, 282725, Note_on_c, 0, 91, 44
1, 282743, Note_off_c, 0, 94, 56
1, 282747, Note_off_c, 0, 91, 58
1, 282775, Note_on_c, 0, 70, 39
1, 282779, Note_off_c, 0, 67, 44
1, 282785, Note_on_c, 0, 103, 52
1, 282812, Note_off_c, 0, 103, 54
1, 282830, Note_on_c, 0, 75, 42
1, 282834, Note_on_c, 0, 94, 54
1, 282836, Note_on_c, 0, 91, 50
1, 282854, Note_off_c, 0, 70, 55
1, 282866, Note_off_c, 0, 91, 56
1, 282870, Note_off_c, 0, 94, 62
1, 282891, Note_off_c, 0, 75, 56
1, 282892, Note_on_c, 0, 79, 63
1, 282900, Note_on_c, 0, 103, 59
1, 282933, Note_off_c, 0, 103, 58
1, 282959, Note_off_c, 0, 79, 64
1, 282960, Note_on_c, 0, 91, 53
1, 282961, Note_on_c, 0, 94, 52
1, 282986, Note_off_c, 0, 91, 58
1, 282989, Note_off_c, 0, 94, 56
1, 283020, Note_on_c, 0, 103, 59
1, 283054, Note_off_c, 0, 103, 58
1, 283076, Note_on_c, 0, 94, 56
1, 283079, Note_on_c, 0, 91, 52
1, 283103, Note_off_c, 0, 91, 61
1, 283103, Note_off_c, 0, 94, 58
1, 283134, Note_on_c, 0, 103, 65
1, 283171, Note_off_c, 0, 103, 59
1, 283193, Note_on_c, 0, 94, 55
1, 283198, Note_on_c, 0, 91, 48
1, 283219, Note_off_c, 0, 91, 60
1, 283220, Note_off_c, 0, 94, 54
1, 283228, Note_on_c, 0, 70, 42
1, 283249, Note_on_c, 0, 103, 58
1, 283273, Note_off_c, 0, 70, 52
1, 283279, Note_off_c, 0, 103, 60
1, 283299, Note_on_c, 0, 75, 47
1, 283312, Note_on_c, 0, 94, 47
1, 283315, Note_on_c, 0, 91, 46
1, 283330, Note_on_c, 0, 79, 57
1, 283338, Note_off_c, 0, 91, 59
1, 283338, Note_off_c, 0, 94, 54
1, 283366, Note_on_c, 0, 103, 64
1, 283401, Note_off_c, 0, 75, 53
1, 283408, Note_off_c, 0, 103, 62
1, 283410, Note_off_c, 0, 79, 63
1, 283416, Note_on_c, 0, 82, 73
1, 283430, Note_on_c, 0, 94, 62
1, 283436, Note_on_c, 0, 91, 55
1, 283465, Note_off_c, 0, 91, 63
1, 283470, Note_off_c, 0, 94, 60
1, 283493, Note_on_c, 0, 103, 65
1, 283494, Note_off_c, 0, 82, 60
1, 283528, Note_off_c, 0, 103, 63
1, 283559, Note_on_c, 0, 91, 59
1, 283563, Note_on_c, 0, 94, 45
1, 283585, Note_off_c, 0, 91, 62
1, 283588, Note_off_c, 0, 94, 53
1, 283610, Note_on_c, 0, 103, 66
1, 283643, Note_off_c, 0, 103, 63
1, 283674, Note_on_c, 0, 91, 60
1, 283675, Note_on_c, 0, 94, 50
1, 283700, Note_off_c, 0, 94, 54
1, 283705, Note_off_c, 0, 91, 63
1, 283720, Note_on_c, 0, 103, 68
1, 283758, Note_off_c, 0, 103, 61
1, 283772, Note_on_c, 0, 67, 36
1, 283786, Note_on_c, 0, 91, 60
1, 283795, Note_on_c, 0, 94, 39
1, 283809, Note_off_c, 0, 91, 61
1, 283811, Note_off_c, 0, 67, 57
1, 283816, Note_on_c, 0, 70, 43
1, 283828, Note_off_c, 0, 94, 47
1, 283831, Note_on_c, 0, 103, 68
1, 283853, Control_c, 0, 67, 100
1, 283868, Control_c, 0, 67, 100
1, 283873, Note_on_c, 0, 75, 53
1, 283874, Note_off_c, 0, 103, 57
1, 283898, Note_on_c, 0, 94, 42
1, 283901, Note_on_c, 0, 91, 56
1, 283932, Note_off_c, 0, 91, 62
1, 283934, Note_off_c, 0, 94, 49
1, 283942, Control_c, 0, 67, 99
1, 283957, Note_on_c, 0, 103, 60
1, 283965, Note_on_c, 0, 79, 75
1, 283978, Note_off_c, 0, 75, 50
1, 283988, Control_c, 0, 67, 98
1, 283995, Note_off_c, 0, 103, 61
1, 284030, Note_on_c, 0, 91, 51
1, 284039, Note_on_c, 0, 94, 39
1, 284055, Note_off_c, 0, 91, 57
1, 284070, Note_off_c, 0, 94, 51
1, 284082, Note_on_c, 0, 103, 65
1, 284106, Control_c, 0, 67, 98
1, 284120, Note_off_c, 0, 103, 61
1, 284153, Note_on_c, 0, 91, 54
1, 284155, Note_on_c, 0, 94, 44
1, 284161, Note_off_c, 0, 79, 52
1, 284180, Note_off_c, 0, 91, 56
1, 284185, Note_off_c, 0, 94, 52
1, 284188, Control_c, 0, 67, 97
1, 284202, Note_on_c, 0, 103, 68
1, 284247, Note_off_c, 0, 103, 58
1, 284269, Note_on_c, 0, 91, 56
1, 284279, Note_on_c, 0, 94, 36
1, 284299, Note_off_c, 0, 91, 62
1, 284309, Note_off_c, 0, 94, 45
1, 284321, Note_on_c, 0, 103, 60
1, 284335, Control_c, 0, 67, 97
1, 284355, Note_off_c, 0, 103, 64
1, 284373, Note_on_c, 0, 94, 53
1, 284379, Note_off_c, 0, 70, 37
1, 284384, Note_on_c, 0, 91, 61
1, 284405, Note_off_c, 0, 91, 61
1, 284408, Note_off_c, 0, 94, 57
1, 284432, Note_on_c, 0, 103, 72
1, 284467, Note_off_c, 0, 103, 60
1, 284492, Note_on_c, 0, 91, 56
1, 284495, Note_on_c, 0, 94, 47
1, 284519, Note_off_c, 0, 91, 61
1, 284520, Note_off_c, 0, 94, 54
1, 284538, Note_on_c, 0, 103, 69
1, 284575, Note_off_c, 0, 103, 61
1, 284597, Note_on_c, 0, 94, 58
1, 284604, Note_on_c, 0, 91, 61
1, 284629, Note_off_c, 0, 91, 61
1, 284632, Note_off_c, 0, 94, 54
1, 284647, Note_on_c, 0, 103, 73
1, 284692, Note_off_c, 0, 103, 54
1, 284713, Note_on_c, 0, 91, 62
1, 284716, Note_on_c, 0, 94, 44
1, 284745, Note_off_c, 0, 94, 49
1, 284746, Note_off_c, 0, 91, 65
1, 284767, Note_on_c, 0, 103, 57
1, 284814, Note_off_c, 0, 103, 52
1, 284816, Note_on_c, 0, 94, 44
1, 284832, Note_on_c, 0, 91, 53
1, 284850, Note_on_c, 0, 63, 39
1, 284856, Note_off_c, 0, 91, 61
1, 284861, Note_off_c, 0, 94, 52
1, 284892, Note_on_c, 0, 103, 51
1, 284892, Control_c, 0, 67, 96
1, 284905, Note_off_c, 0, 63, 55
1, 284922, Note_on_c, 0, 67, 40
1, 284928, Note_off_c, 0, 103, 48
1, 284942, Note_on_c, 0, 94, 43
1, 284954, Note_on_c, 0, 91, 53
1, 284962, Note_on_c, 0, 70, 51
1, 284984, Note_off_c, 0, 91, 59
1, 284991, Note_off_c, 0, 94, 58
1, 284999, Note_off_c, 0, 67, 53
1, 285018, Note_on_c, 0, 103, 57
1, 285029, Note_on_c, 0, 75, 58
1, 285044, Note_off_c, 0, 70, 56
1, 285054, Note_off_c, 0, 103, 50
1, 285083, Note_off_c, 0, 75, 57
1, 285083, Note_on_c, 0, 91, 46
1, 285093, Note_on_c, 0, 94, 36
1, 285110, Note_off_c, 0, 91, 55
1, 285123, Note_off_c, 0, 94, 51
1, 285147, Note_on_c, 0, 103, 62
1, 285173, Note_off_c, 0, 103, 58
1, 285210, Note_on_c, 0, 91, 46
1, 285210, Note_on_c, 0, 94, 45
1, 285235, Note_off_c, 0, 91, 57
1, 285239, Note_off_c, 0, 94, 51
1, 285264, Note_on_c, 0, 103, 59
1, 285296, Note_off_c, 0, 103, 53
1, 285315, Note_on_c, 0, 94, 47
1, 285330, Note_on_c, 0, 91, 44
1, 285353, Note_off_c, 0, 91, 56
1, 285355, Note_off_c, 0, 94, 53
1, 285378, Note_on_c, 0, 67, 32
1, 285389, Note_on_c, 0, 103, 53
1, 285410, Note_on_c, 0, 70, 46
1, 285418, Note_off_c, 0, 67, 47
1, 285420, Note_off_c, 0, 103, 51
1, 285437, Note_on_c, 0, 94, 43
1, 285442, Note_on_c, 0, 91, 48
1, 285458, Note_on_c, 0, 75, 49
1, 285469, Note_off_c, 0, 91, 56
1, 285474, Note_off_c, 0, 94, 50
1, 285509, Note_on_c, 0, 103, 53
1, 285522, Note_on_c, 0, 79, 67
1, 285524, Note_off_c, 0, 75, 48
1, 285542, Note_off_c, 0, 103, 50
1, 285570, Note_on_c, 0, 91, 44
1, 285580, Note_on_c, 0, 94, 33
1, 285591, Note_off_c, 0, 79, 62
1, 285595, Note_off_c, 0, 91, 55
1, 285613, Note_off_c, 0, 94, 48
1, 285645, Note_on_c, 0, 103, 52
1, 285652, Note_off_c, 0, 70, 19
1, 285674, Note_off_c, 0, 103, 51
1, 285699, Note_on_c, 0, 91, 48
1, 285700, Note_on_c, 0, 94, 43
1, 285727, Note_off_c, 0, 91, 55
1, 285736, Note_off_c, 0, 94, 49
1, 285767, Note_on_c, 0, 103, 53
1, 285801, Note_off_c, 0, 103, 48
1, 285815, Note_on_c, 0, 94, 41
1, 285828, Note_on_c, 0, 91, 39
1, 285854, Note_off_c, 0, 91, 49
1, 285865, Note_on_c, 0, 103, 50
1, 285893, Note_off_c, 0, 94, 0
1, 285908, Note_on_c, 0, 94, 34
1, 285908, Note_off_c, 0, 103, 51
1, 285938, Note_on_c, 0, 91, 43
1, 285959, Note_on_c, 0, 62, 38
1, 285964, Note_off_c, 0, 91, 55
1, 285983, Note_on_c, 0, 103, 36
1, 285983, Note_off_c, 0, 94, 53
1, 286043, Note_on_c, 0, 67, 41
1, 286055, Control_c, 0, 67, 97
1, 286099, Note_on_c, 0, 71, 47
1, 286144, Control_c, 0, 64, 111
1, 286149, Note_off_c, 0, 103, 40
1, 286159, Control_c, 0, 64, 99
1, 286174, Control_c, 0, 64, 90
1, 286188, Control_c, 0, 64, 84
1, 286203, Control_c, 0, 64, 80
1, 286210, Note_on_c, 0, 74, 51
1, 286218, Control_c, 0, 64, 77
1, 286233, Control_c, 0, 64, 74
1, 286242, Note_on_c, 0, 95, 37
1, 286248, Control_c, 0, 64, 69
1, 286263, Control_c, 0, 64, 63
1, 286265, Note_on_c, 0, 91, 33
1, 286278, Control_c, 0, 64, 52
1, 286293, Control_c, 0, 64, 40
1, 286307, Control_c, 0, 64, 39
1, 286337, Control_c, 0, 64, 41
1, 286346, Note_off_c, 0, 95, 55
1, 286352, Control_c, 0, 64, 47
1, 286353, Note_off_c, 0, 91, 39
1, 286367, Control_c, 0, 64, 55
1, 286390, Control_c, 0, 64, 63
1, 286404, Control_c, 0, 64, 70
1, 286419, Control_c, 0, 64, 80
1, 286432, Note_on_c, 0, 103, 8
1, 286434, Control_c, 0, 64, 99
1, 286449, Control_c, 0, 64, 127
1, 286475, Note_off_c, 0, 103, 52
1, 286492, Note_on_c, 0, 91, 38
1, 286499, Note_on_c, 0, 95, 38
1, 286529, Note_off_c, 0, 91, 50
1, 286529, Note_off_c, 0, 95, 53
1, 286565, Note_off_c, 0, 74, 36
1, 286570, Note_on_c, 0, 103, 52
1, 286595, Note_off_c, 0, 103, 59
1, 286618, Note_on_c, 0, 95, 59
1, 286629, Note_off_c, 0, 71, 37
1, 286633, Note_on_c, 0, 91, 48
1, 286657, Note_off_c, 0, 95, 61
1, 286659, Note_off_c, 0, 91, 57
1, 286689, Note_on_c, 0, 103, 58
1, 286704, Note_off_c, 0, 67, 41
1, 286722, Note_off_c, 0, 103, 66
1, 286741, Note_off_c, 0, 62, 39
1, 286743, Note_on_c, 0, 95, 53
1, 286750, Note_on_c, 0, 91, 55
1, 286773, Note_off_c, 0, 91, 58
1, 286776, Note_off_c, 0, 95, 56
1, 286806, Note_on_c, 0, 103, 63
1, 286839, Note_off_c, 0, 103, 65
1, 286859, Note_on_c, 0, 91, 58
1, 286868, Note_on_c, 0, 95, 43
1, 286895, Note_off_c, 0, 91, 62
1, 286902, Note_off_c, 0, 95, 49
1, 286922, Note_on_c, 0, 103, 63
1, 286953, Note_off_c, 0, 103, 65
1, 286976, Note_on_c, 0, 95, 44
1, 286984, Note_on_c, 0, 91, 57
1, 287004, Note_off_c, 0, 91, 61
1, 287021, Note_off_c, 0, 95, 44
1, 287027, Control_c, 0, 67, 96
1, 287037, Note_on_c, 0, 103, 58
1, 287070, Note_off_c, 0, 103, 59
1, 287083, Note_on_c, 0, 95, 38
1, 287091, Note_on_c, 0, 91, 57
1, 287118, Note_on_c, 0, 59, 25
1, 287134, Note_off_c, 0, 91, 63
1, 287147, Note_off_c, 0, 95, 43
1, 287171, Note_off_c, 0, 59, 46
1, 287172, Note_on_c, 0, 103, 50
1, 287189, Note_on_c, 0, 62, 33
1, 287206, Note_off_c, 0, 103, 51
1, 287217, Note_on_c, 0, 95, 31
1, 287229, Note_on_c, 0, 67, 48
1, 287229, Control_c, 0, 67, 95
1, 287230, Note_on_c, 0, 91, 53
1, 287258, Note_off_c, 0, 91, 59
1, 287279, Note_off_c, 0, 95, 43
1, 287295, Note_off_c, 0, 62, 51
1, 287305, Note_on_c, 0, 103, 52
1, 287316, Note_on_c, 0, 71, 64
1, 287323, Note_off_c, 0, 67, 57
1, 287332, Note_off_c, 0, 103, 55
1, 287351, Note_on_c, 0, 95, 37
1, 287356, Note_on_c, 0, 91, 53
1, 287390, Note_off_c, 0, 91, 63
1, 287395, Note_off_c, 0, 95, 48
1, 287418, Note_off_c, 0, 71, 60
1, 287420, Note_on_c, 0, 103, 60
1, 287450, Control_c, 0, 67, 96
1, 287458, Note_off_c, 0, 103, 62
1, 287491, Note_on_c, 0, 91, 51
1, 287495, Note_on_c, 0, 95, 35
1, 287514, Note_off_c, 0, 91, 58
1, 287527, Note_off_c, 0, 95, 47
1, 287544, Note_on_c, 0, 103, 63
1, 287578, Note_off_c, 0, 103, 63
1, 287599, Note_on_c, 0, 91, 59
1, 287609, Note_on_c, 0, 95, 38
1, 287637, Note_off_c, 0, 91, 62
1, 287643, Note_off_c, 0, 95, 49
1, 287663, Note_on_c, 0, 103, 58
1, 287694, Note_on_c, 0, 62, 29
1, 287695, Note_off_c, 0, 103, 64
1, 287712, Note_on_c, 0, 95, 36
1, 287724, Note_on_c, 0, 91, 59
1, 287732, Note_off_c, 0, 62, 48
1, 287745, Note_off_c, 0, 91, 60
1, 287752, Note_on_c, 0, 67, 43
1, 287753, Note_off_c, 0, 95, 46
1, 287777, Note_on_c, 0, 71, 55
1, 287782, Note_on_c, 0, 103, 63
1, 287814, Note_off_c, 0, 103, 64
1, 287827, Note_off_c, 0, 71, 59
1, 287834, Note_on_c, 0, 74, 69
1, 287837, Note_on_c, 0, 95, 37
1, 287840, Note_on_c, 0, 91, 56
1, 287882, Note_off_c, 0, 91, 63
1, 287882, Note_off_c, 0, 95, 48
1, 287911, Note_on_c, 0, 103, 59
1, 287923, Note_off_c, 0, 74, 59
1, 287947, Note_off_c, 0, 67, 19
1, 287949, Note_off_c, 0, 103, 61
1, 287979, Note_on_c, 0, 91, 52
1, 287991, Control_c, 0, 67, 97
1, 287995, Note_on_c, 0, 95, 20
1, 288002, Note_off_c, 0, 91, 58
1, 288036, Note_on_c, 0, 103, 62
1, 288043, Note_off_c, 0, 95, 38
1, 288069, Note_off_c, 0, 103, 64
1, 288087, Note_on_c, 0, 95, 40
1, 288090, Note_on_c, 0, 91, 60
1, 288123, Note_off_c, 0, 91, 64
1, 288129, Note_off_c, 0, 95, 48
1, 288154, Note_on_c, 0, 103, 63
1, 288191, Note_off_c, 0, 103, 65
1, 288216, Note_on_c, 0, 95, 42
1, 288221, Note_on_c, 0, 91, 57
1, 288243, Note_off_c, 0, 91, 61
1, 288246, Note_off_c, 0, 95, 51
1, 288247, Note_on_c, 0, 59, 25
1, 288276, Note_on_c, 0, 103, 60
1, 288284, Note_off_c, 0, 59, 52
1, 288290, Note_on_c, 0, 62, 44
1, 288309, Note_off_c, 0, 103, 64
1, 288317, Control_c, 0, 67, 96
1, 288328, Note_on_c, 0, 91, 61
1, 288329, Note_on_c, 0, 95, 50
1, 288338, Note_on_c, 0, 67, 52
1, 288363, Note_off_c, 0, 95, 48
1, 288366, Note_off_c, 0, 91, 62
1, 288394, Note_on_c, 0, 103, 61
1, 288397, Note_on_c, 0, 71, 74
1, 288417, Note_off_c, 0, 67, 56
1, 288433, Note_off_c, 0, 103, 59
1, 288460, Note_on_c, 0, 95, 31
1, 288463, Note_on_c, 0, 91, 52
1, 288486, Note_off_c, 0, 91, 57
1, 288497, Note_off_c, 0, 95, 49
1, 288516, Note_on_c, 0, 103, 61
1, 288555, Note_off_c, 0, 103, 59
1, 288571, Note_on_c, 0, 95, 36
1, 288579, Note_on_c, 0, 91, 51
1, 288601, Note_off_c, 0, 71, 50
1, 288604, Note_off_c, 0, 95, 51
1, 288606, Note_off_c, 0, 91, 58
1, 288648, Note_on_c, 0, 103, 57
1, 288676, Note_off_c, 0, 103, 61
1, 288698, Note_on_c, 0, 95, 46
1, 288710, Note_on_c, 0, 91, 46
1, 288726, Note_off_c, 0, 95, 52
1, 288734, Note_off_c, 0, 91, 56
1, 288761, Note_on_c, 0, 103, 62
1, 288794, Note_off_c, 0, 62, 37
1, 288794, Note_off_c, 0, 103, 63
1, 288816, Note_on_c, 0, 91, 57
1, 288818, Note_on_c, 0, 95, 51
1, 288845, Note_off_c, 0, 95, 53
1, 288848, Note_off_c, 0, 91, 63
1, 288874, Note_on_c, 0, 103, 64
1, 288907, Note_off_c, 0, 103, 63
1, 288918, Control_c, 0, 67, 97
1, 288931, Note_on_c, 0, 95, 55
1, 288934, Note_on_c, 0, 91, 62
1, 288958, Note_off_c, 0, 95, 52
1, 288962, Note_off_c, 0, 91, 62
1, 288988, Note_on_c, 0, 103, 64
1, 289026, Note_off_c, 0, 103, 61
1, 289053, Note_on_c, 0, 91, 58
1, 289053, Note_on_c, 0, 95, 47
1, 289077, Note_off_c, 0, 95, 55
1, 289079, Note_off_c, 0, 91, 63
1, 289109, Note_on_c, 0, 103, 61
1, 289141, Note_off_c, 0, 103, 60
1, 289169, Note_on_c, 0, 91, 60
1, 289169, Note_on_c, 0, 95, 50
1, 289197, Note_off_c, 0, 95, 50
1, 289198, Note_off_c, 0, 91, 63
1, 289227, Note_on_c, 0, 103, 58
1, 289256, Note_off_c, 0, 103, 56
1, 289271, Note_on_c, 0, 55, 36
1, 289283, Note_on_c, 0, 95, 39
1, 289285, Note_on_c, 0, 91, 58
1, 289319, Note_off_c, 0, 91, 62
1, 289327, Note_on_c, 0, 59, 40
1, 289328, Note_off_c, 0, 95, 43
1, 289332, Note_off_c, 0, 55, 46
1, 289347, Note_on_c, 0, 103, 58
1, 289382, Note_on_c, 0, 62, 47
1, 289393, Note_off_c, 0, 103, 60
1, 289402, Note_on_c, 0, 95, 41
1, 289415, Note_on_c, 0, 91, 59
1, 289429, Note_off_c, 0, 59, 56
1, 289438, Note_on_c, 0, 67, 60
1, 289451, Note_off_c, 0, 91, 62
1, 289454, Note_off_c, 0, 95, 54
1, 289458, Note_off_c, 0, 62, 58
1, 289490, Note_on_c, 0, 103, 56
1, 289503, Control_c, 0, 67, 97
1, 289517, Note_off_c, 0, 103, 57
1, 289545, Note_on_c, 0, 95, 39
1, 289548, Note_on_c, 0, 91, 55
1, 289560, Note_off_c, 0, 67, 61
1, 289563, Control_c, 0, 67, 98
1, 289573, Note_off_c, 0, 91, 60
1, 289579, Note_off_c, 0, 95, 50
1, 289607, Note_on_c, 0, 103, 59
1, 289637, Note_off_c, 0, 103, 66
1, 289652, Control_c, 0, 67, 98
1, 289658, Note_on_c, 0, 95, 53
1, 289664, Note_on_c, 0, 91, 59
1, 289667, Control_c, 0, 67, 99
1, 289691, Note_off_c, 0, 95, 53
1, 289696, Note_off_c, 0, 91, 63
1, 289724, Note_on_c, 0, 103, 61
1, 289760, Note_off_c, 0, 103, 61
1, 289783, Note_on_c, 0, 91, 61
1, 289785, Note_on_c, 0, 95, 48
1, 289795, Note_on_c, 0, 59, 38
1, 289813, Note_off_c, 0, 91, 62
1, 289813, Note_off_c, 0, 95, 52
1, 289835, Note_off_c, 0, 59, 52
1, 289841, Note_on_c, 0, 62, 47
1, 289842, Note_on_c, 0, 103, 62
1, 289875, Control_c, 0, 67, 100
1, 289885, Note_off_c, 0, 103, 58
1, 289896, Note_on_c, 0, 67, 55
1, 289903, Note_on_c, 0, 95, 49
1, 289904, Note_on_c, 0, 91, 55
1, 289930, Note_off_c, 0, 95, 52
1, 289936, Note_off_c, 0, 91, 63
1, 289948, Control_c, 0, 67, 100
1, 289959, Note_on_c, 0, 71, 74
1, 289966, Note_on_c, 0, 103, 60
1, 289976, Note_off_c, 0, 67, 57
1, 289993, Control_c, 0, 67, 101
1, 290004, Note_off_c, 0, 103, 60
1, 290019, Note_on_c, 0, 95, 55
1, 290021, Note_on_c, 0, 91, 61
1, 290022, Control_c, 0, 67, 102
1, 290049, Note_off_c, 0, 95, 51
1, 290052, Control_c, 0, 67, 102
1, 290057, Note_off_c, 0, 91, 63
1, 290062, Note_off_c, 0, 71, 58
1, 290089, Note_on_c, 0, 103, 62
1, 290111, Control_c, 0, 67, 103
1, 290112, Note_off_c, 0, 62, 59
1, 290135, Note_off_c, 0, 103, 60
1, 290149, Note_on_c, 0, 95, 54
1, 290150, Note_on_c, 0, 91, 61
1, 290176, Note_off_c, 0, 95, 54
1, 290185, Note_off_c, 0, 91, 63
1, 290208, Control_c, 0, 67, 103
1, 290213, Note_on_c, 0, 103, 64
1, 290254, Note_off_c, 0, 103, 57
1, 290263, Note_on_c, 0, 95, 56
1, 290266, Note_on_c, 0, 91, 62
1, 290281, Control_c, 0, 67, 104
1, 290288, Note_off_c, 0, 95, 55
1, 290298, Note_off_c, 0, 91, 64
1, 290339, Poly_aftertouch_c, 0, 103, 127
1, 290358, Poly_aftertouch_c, 0, 103, 0
1, 290379, Note_on_c, 0, 95, 55
1, 290380, Note_on_c, 0, 91, 57
1, 290408, Note_off_c, 0, 91, 59
1, 290417, Note_on_c, 0, 55, 45
1, 290424, Note_off_c, 0, 95, 60
1, 290440, Note_on_c, 0, 103, 51
1, 290500, Note_on_c, 0, 60, 47
1, 290519, Control_c, 0, 67, 105
1, 290541, Note_on_c, 0, 64, 54
1, 290579, Note_off_c, 0, 103, 55
1, 290593, Control_c, 0, 64, 100
1, 290608, Control_c, 0, 64, 85
1, 290608, Control_c, 0, 67, 105
1, 290618, Note_on_c, 0, 67, 63
1, 290623, Control_c, 0, 64, 72
1, 290633, Note_on_c, 0, 96, 47
1, 290638, Control_c, 0, 64, 62
1, 290638, Control_c, 0, 67, 106
1, 290639, Note_on_c, 0, 91, 37
1, 290652, Control_c, 0, 64, 43
1, 290667, Control_c, 0, 64, 17
1, 290667, Control_c, 0, 67, 107
1, 290682, Control_c, 0, 64, 13
1, 290711, Control_c, 0, 64, 23
1, 290726, Control_c, 0, 64, 36
1, 290739, Note_off_c, 0, 91, 58
1, 290741, Control_c, 0, 64, 48
1, 290743, Note_off_c, 0, 96, 64
1, 290756, Control_c, 0, 64, 59
1, 290770, Control_c, 0, 64, 65
1, 290785, Control_c, 0, 64, 71
1, 290794, Note_on_c, 0, 103, 42
1, 290800, Control_c, 0, 64, 80
1, 290815, Control_c, 0, 64, 96
1, 290826, Note_off_c, 0, 103, 54
1, 290830, Control_c, 0, 64, 127
1, 290866, Note_on_c, 0, 96, 44
1, 290879, Note_on_c, 0, 91, 52
1, 290901, Note_off_c, 0, 96, 62
1, 290908, Note_off_c, 0, 91, 63
1, 290940, Note_on_c, 0, 103, 55
1, 290949, Note_off_c, 0, 67, 31
1, 290977, Note_off_c, 0, 103, 64
1, 290999, Note_on_c, 0, 96, 57
1, 291006, Note_on_c, 0, 91, 59
1, 291021, Note_off_c, 0, 64, 52
1, 291033, Note_off_c, 0, 96, 64
1, 291041, Note_off_c, 0, 91, 63
1, 291068, Note_off_c, 0, 55, 36
1, 291068, Note_on_c, 0, 103, 59
1, 291095, Note_off_c, 0, 60, 56
1, 291098, Note_off_c, 0, 103, 65
1, 291119, Note_on_c, 0, 96, 53
1, 291127, Note_on_c, 0, 91, 59
1, 291143, Note_off_c, 0, 96, 60
1, 291160, Note_off_c, 0, 91, 64
1, 291180, Note_on_c, 0, 103, 63
1, 291210, Note_off_c, 0, 103, 66
1, 291223, Control_c, 0, 67, 107
1, 291232, Note_on_c, 0, 96, 53
1, 291248, Note_on_c, 0, 91, 48
1, 291255, Note_off_c, 0, 96, 57
1, 291270, Note_off_c, 0, 91, 57
1, 291290, Note_on_c, 0, 103, 61
1, 291321, Note_off_c, 0, 103, 66
1, 291340, Note_on_c, 0, 96, 57
1, 291351, Note_on_c, 0, 91, 57
1, 291363, Note_off_c, 0, 96, 57
1, 291375, Note_off_c, 0, 91, 56
1, 291402, Note_on_c, 0, 103, 62
1, 291438, Note_off_c, 0, 103, 63
1, 291453, Note_on_c, 0, 96, 55
1, 291470, Note_on_c, 0, 91, 49
1, 291476, Note_off_c, 0, 96, 57
1, 291492, Note_off_c, 0, 91, 58
1, 291516, Note_on_c, 0, 103, 58
1, 291548, Note_off_c, 0, 103, 65
1, 291563, Note_on_c, 0, 52, 39
1, 291564, Note_on_c, 0, 96, 57
1, 291572, Note_on_c, 0, 91, 60
1, 291593, Note_off_c, 0, 96, 54
1, 291611, Note_off_c, 0, 91, 59
1, 291614, Note_on_c, 0, 55, 43
1, 291640, Note_on_c, 0, 103, 61
1, 291647, Note_off_c, 0, 52, 43
1, 291672, Note_off_c, 0, 103, 65
1, 291679, Note_on_c, 0, 60, 55
1, 291703, Note_on_c, 0, 96, 41
1, 291703, Note_on_c, 0, 91, 58
1, 291732, Note_off_c, 0, 96, 52
1, 291744, Note_off_c, 0, 55, 55
1, 291747, Note_off_c, 0, 91, 59
1, 291751, Note_on_c, 0, 64, 67
1, 291758, Note_on_c, 0, 103, 60
1, 291786, Note_off_c, 0, 60, 59
1, 291798, Note_off_c, 0, 103, 62
1, 291830, Note_on_c, 0, 96, 45
1, 291839, Note_on_c, 0, 91, 55
1, 291855, Note_off_c, 0, 96, 55
1, 291870, Note_off_c, 0, 64, 60
1, 291876, Note_off_c, 0, 91, 58
1, 291888, Note_on_c, 0, 103, 65
1, 291929, Note_off_c, 0, 103, 61
1, 291945, Note_on_c, 0, 96, 54
1, 291968, Note_on_c, 0, 91, 59
1, 291968, Note_off_c, 0, 96, 59
1, 291998, Note_off_c, 0, 91, 56
1, 292022, Note_on_c, 0, 103, 58
1, 292051, Note_off_c, 0, 103, 64
1, 292062, Note_on_c, 0, 96, 56
1, 292083, Note_on_c, 0, 91, 62
1, 292094, Note_off_c, 0, 96, 61
1, 292114, Note_off_c, 0, 91, 61
1, 292135, Note_on_c, 0, 103, 61
1, 292138, Note_on_c, 0, 55, 43
1, 292164, Note_off_c, 0, 103, 63
1, 292180, Note_off_c, 0, 55, 58
1, 292183, Note_on_c, 0, 96, 56
1, 292200, Note_on_c, 0, 91, 56
1, 292201, Note_on_c, 0, 60, 50
1, 292209, Note_off_c, 0, 96, 57
1, 292222, Note_off_c, 0, 91, 59
1, 292230, Note_on_c, 0, 64, 63
1, 292251, Note_on_c, 0, 103, 65
1, 292290, Note_off_c, 0, 103, 61
1, 292297, Note_on_c, 0, 67, 80
1, 292307, Note_off_c, 0, 64, 59
1, 292310, Note_on_c, 0, 96, 56
1, 292316, Note_on_c, 0, 91, 56
1, 292348, Note_off_c, 0, 96, 61
1, 292358, Note_off_c, 0, 91, 60
1, 292398, Note_on_c, 0, 103, 67
1, 292426, Note_off_c, 0, 67, 59
1, 292434, Note_off_c, 0, 103, 63
1, 292458, Note_on_c, 0, 96, 55
1, 292469, Note_on_c, 0, 91, 59
1, 292494, Note_off_c, 0, 96, 62
1, 292496, Note_off_c, 0, 60, 55
1, 292502, Note_off_c, 0, 91, 62
1, 292526, Note_on_c, 0, 103, 68
1, 292560, Note_off_c, 0, 103, 63
1, 292591, Note_on_c, 0, 91, 61
1, 292592, Note_on_c, 0, 96, 46
1, 292616, Note_off_c, 0, 96, 54
1, 292624, Note_off_c, 0, 91, 62
1, 292657, Note_on_c, 0, 103, 63
1, 292688, Note_off_c, 0, 103, 63
1, 292712, Note_on_c, 0, 96, 56
1, 292717, Note_on_c, 0, 91, 60
1, 292735, Note_on_c, 0, 52, 51
1, 292735, Control_c, 0, 67, 107
1, 292748, Note_off_c, 0, 91, 63
1, 292750, Note_off_c, 0, 96, 55
1, 292765, Control_c, 0, 67, 106
1, 292773, Note_off_c, 0, 52, 55
1, 292776, Note_on_c, 0, 55, 55
1, 292776, Note_on_c, 0, 103, 62
1, 292795, Control_c, 0, 67, 105
1, 292808, Note_off_c, 0, 103, 65
1, 292825, Note_on_c, 0, 60, 60
1, 292838, Note_on_c, 0, 96, 53
1, 292840, Note_on_c, 0, 91, 59
1, 292869, Control_c, 0, 67, 105
1, 292876, Note_off_c, 0, 96, 59
1, 292881, Note_off_c, 0, 91, 58
1, 292893, Note_on_c, 0, 64, 80
1, 292899, Control_c, 0, 67, 104
1, 292901, Note_on_c, 0, 103, 64
1, 292943, Note_off_c, 0, 103, 61
1, 292973, Note_on_c, 0, 91, 61
1, 292976, Note_on_c, 0, 96, 50
1, 293008, Note_off_c, 0, 96, 56
1, 293011, Note_off_c, 0, 91, 62
1, 293015, Note_off_c, 0, 60, 0
1, 293033, Control_c, 0, 67, 103
1, 293043, Note_on_c, 0, 103, 68
1, 293051, Poly_aftertouch_c, 0, 60, 127
1, 293075, Note_off_c, 0, 103, 65
1, 293104, Note_on_c, 0, 91, 63
1, 293106, Note_on_c, 0, 96, 50
1, 293137, Note_off_c, 0, 96, 56
1, 293143, Control_c, 0, 67, 103
1, 293144, Note_off_c, 0, 91, 63
1, 293152, Note_off_c, 0, 64, 51
1, 293167, Note_on_c, 0, 103, 70
1, 293173, Control_c, 0, 67, 102
1, 293197, Note_off_c, 0, 103, 67
1, 293226, Note_on_c, 0, 91, 64
1, 293232, Note_on_c, 0, 96, 49
1, 293252, Note_off_c, 0, 96, 59
1, 293259, Note_off_c, 0, 91, 63
1, 293262, Control_c, 0, 67, 102
1, 293275, Poly_aftertouch_c, 0, 60, 0
1, 293277, Note_on_c, 0, 103, 68
1, 293291, Control_c, 0, 67, 101
1, 293309, Note_off_c, 0, 103, 66
1, 293328, Note_off_c, 0, 55, 40
1, 293331, Note_on_c, 0, 96, 63
1, 293336, Control_c, 0, 67, 100
1, 293337, Note_on_c, 0, 91, 66
1, 293361, Note_off_c, 0, 96, 64
1, 293369, Note_off_c, 0, 91, 62
1, 293395, Control_c, 0, 67, 100
1, 293397, Note_on_c, 0, 103, 66
1, 293410, Control_c, 0, 67, 99
1, 293427, Note_off_c, 0, 103, 66
1, 293439, Note_on_c, 0, 96, 62
1, 293456, Note_on_c, 0, 91, 64
1, 293474, Note_off_c, 0, 96, 62
1, 293487, Note_off_c, 0, 91, 63
1, 293498, Note_on_c, 0, 103, 70
1, 293513, Control_c, 0, 67, 98
1, 293536, Note_off_c, 0, 103, 60
1, 293543, Control_c, 0, 67, 98
1, 293552, Note_on_c, 0, 96, 59
1, 293562, Note_on_c, 0, 91, 65
1, 293588, Control_c, 0, 67, 97
1, 293589, Note_off_c, 0, 96, 62
1, 293599, Note_off_c, 0, 91, 59
1, 293623, Note_on_c, 0, 103, 67
1, 293656, Note_off_c, 0, 103, 65
1, 293674, Note_on_c, 0, 96, 57
1, 293693, Note_on_c, 0, 91, 61
1, 293699, Note_off_c, 0, 96, 64
1, 293707, Control_c, 0, 67, 97
1, 293723, Note_off_c, 0, 91, 61
1, 293738, Note_on_c, 0, 103, 62
1, 293751, Control_c, 0, 67, 96
1, 293779, Note_off_c, 0, 103, 62
1, 293787, Note_on_c, 0, 96, 61
1, 293799, Note_on_c, 0, 48, 50
1, 293802, Note_on_c, 0, 91, 64
1, 293830, Note_off_c, 0, 96, 59
1, 293849, Note_off_c, 0, 91, 56
1, 293850, Note_on_c, 0, 52, 48
1, 293855, Control_c, 0, 67, 95
1, 293877, Note_on_c, 0, 103, 65
1, 293878, Note_off_c, 0, 48, 51
1, 293889, Note_on_c, 0, 55, 58
1, 293918, Note_off_c, 0, 103, 61
1, 293930, Note_on_c, 0, 96, 56
1, 293957, Note_on_c, 0, 91, 58
1, 293968, Note_on_c, 0, 60, 72
1, 293973, Note_off_c, 0, 96, 61
1, 293979, Note_off_c, 0, 52, 60
1, 293990, Note_off_c, 0, 91, 59
1, 294003, Note_off_c, 0, 55, 60
1, 294016, Note_on_c, 0, 103, 66
1, 294051, Note_off_c, 0, 103, 65
1, 294073, Note_on_c, 0, 96, 54
1, 294076, Note_on_c, 0, 91, 62
1, 294101, Note_off_c, 0, 96, 62
1, 294110, Note_off_c, 0, 91, 65
1, 294121, Note_off_c, 0, 60, 62
1, 294138, Note_on_c, 0, 103, 65
1, 294173, Note_off_c, 0, 103, 65
1, 294188, Control_c, 0, 67, 96
1, 294195, Note_on_c, 0, 96, 60
1, 294202, Note_on_c, 0, 91, 66
1, 294218, Control_c, 0, 67, 97
1, 294233, Note_off_c, 0, 96, 62
1, 294234, Note_off_c, 0, 91, 64
1, 294265, Note_on_c, 0, 103, 71
1, 294294, Note_off_c, 0, 103, 66
1, 294315, Note_on_c, 0, 96, 59
1, 294321, Note_on_c, 0, 52, 57
1, 294323, Note_on_c, 0, 91, 63
1, 294351, Note_off_c, 0, 96, 62
1, 294355, Note_off_c, 0, 91, 65
1, 294370, Note_on_c, 0, 103, 68
1, 294371, Note_on_c, 0, 55, 59
1, 294394, Note_off_c, 0, 52, 59
1, 294410, Note_off_c, 0, 103, 62
1, 294416, Note_on_c, 0, 60, 66
1, 294437, Note_on_c, 0, 91, 65
1, 294439, Note_on_c, 0, 96, 58
1, 294475, Note_off_c, 0, 96, 62
1, 294478, Note_on_c, 0, 64, 84
1, 294483, Note_off_c, 0, 91, 58
1, 294500, Control_c, 0, 67, 97
1, 294511, Note_on_c, 0, 103, 68
1, 294511, Note_off_c, 0, 60, 63
1, 294543, Note_off_c, 0, 103, 66
1, 294559, Control_c, 0, 67, 98
1, 294567, Note_on_c, 0, 96, 59
1, 294583, Note_on_c, 0, 91, 63
1, 294604, Note_off_c, 0, 96, 62
1, 294604, Control_c, 0, 67, 98
1, 294610, Note_off_c, 0, 91, 64
1, 294642, Note_on_c, 0, 103, 64
1, 294657, Note_off_c, 0, 64, 59
1, 294671, Control_c, 0, 67, 99
1, 294673, Note_off_c, 0, 103, 67
1, 294688, Note_off_c, 0, 55, 59
1, 294690, Note_on_c, 0, 91, 68
1, 294695, Note_on_c, 0, 96, 62
1, 294727, Note_off_c, 0, 91, 59
1, 294730, Control_c, 0, 67, 100
1, 294731, Note_off_c, 0, 96, 62
1, 294753, Note_on_c, 0, 103, 70
1, 294794, Note_off_c, 0, 103, 59
1, 294811, Note_on_c, 0, 96, 60
1, 294815, Note_on_c, 0, 91, 59
1, 294836, Note_off_c, 0, 91, 61
1, 294850, Note_off_c, 0, 96, 59
1, 294881, Note_on_c, 0, 103, 17
1, 294887, Note_on_c, 0, 91, 69
1, 294907, Note_on_c, 0, 51, 62
1, 294908, Control_c, 0, 67, 100
1, 294909, Poly_aftertouch_c, 0, 96, 127
1, 294940, Note_off_c, 0, 103, 0
1, 294940, Note_on_c, 0, 103, 52
1, 294957, Note_off_c, 0, 91, 60
1, 294979, Note_on_c, 0, 56, 59
1, 294985, Poly_aftertouch_c, 0, 96, 0
1, 295013, Note_on_c, 0, 60, 67
1, 295041, Control_c, 0, 67, 101
1, 295086, Control_c, 0, 67, 102
1, 295090, Note_on_c, 0, 63, 76
1, 295110, Note_off_c, 0, 103, 58
1, 295115, Control_c, 0, 64, 113
1, 295130, Control_c, 0, 64, 88
1, 295130, Control_c, 0, 67, 102
1, 295144, Control_c, 0, 64, 68
1, 295157, Note_on_c, 0, 96, 57
1, 295158, Note_on_c, 0, 92, 54
1, 295160, Control_c, 0, 64, 52
1, 295160, Control_c, 0, 67, 103
1, 295175, Control_c, 0, 64, 11
1, 295190, Control_c, 0, 64, 0
1, 295234, Control_c, 0, 64, 17
1, 295249, Control_c, 0, 64, 40
1, 295264, Control_c, 0, 64, 54
1, 295277, Note_off_c, 0, 92, 64
1, 295279, Control_c, 0, 64, 63
1, 295286, Note_off_c, 0, 96, 65
1, 295294, Control_c, 0, 64, 71
1, 295301, Note_on_c, 0, 104, 67
1, 295308, Control_c, 0, 64, 83
1, 295323, Control_c, 0, 64, 127
1, 295353, Control_c, 0, 67, 103
1, 295367, Note_off_c, 0, 104, 63
1, 295391, Note_on_c, 0, 96, 54
1, 295401, Note_on_c, 0, 92, 62
1, 295422, Note_off_c, 0, 96, 64
1, 295434, Note_off_c, 0, 92, 66
1, 295449, Control_c, 0, 67, 104
1, 295468, Note_on_c, 0, 104, 76
1, 295469, Note_off_c, 0, 63, 56
1, 295498, Note_off_c, 0, 104, 66
1, 295509, Control_c, 0, 67, 105
1, 295512, Note_on_c, 0, 96, 63
1, 295521, Note_on_c, 0, 92, 62
1, 295533, Note_off_c, 0, 60, 56
1, 295538, Control_c, 0, 67, 105
1, 295540, Note_off_c, 0, 96, 67
1, 295552, Note_off_c, 0, 92, 67
1, 295575, Note_on_c, 0, 104, 74
1, 295608, Note_off_c, 0, 104, 66
1, 295620, Note_off_c, 0, 51, 33
1, 295620, Note_off_c, 0, 56, 51
1, 295623, Note_on_c, 0, 96, 63
1, 295627, Control_c, 0, 67, 106
1, 295633, Note_on_c, 0, 92, 66
1, 295641, Control_c, 0, 67, 107
1, 295654, Note_off_c, 0, 96, 66
1, 295664, Note_off_c, 0, 92, 67
1, 295685, Note_on_c, 0, 104, 81
1, 295721, Note_off_c, 0, 104, 62
1, 295730, Control_c, 0, 67, 107
1, 295735, Note_on_c, 0, 96, 64
1, 295749, Note_on_c, 0, 92, 65
1, 295766, Note_off_c, 0, 96, 65
1, 295778, Note_off_c, 0, 92, 66
1, 295806, Note_on_c, 0, 104, 80
1, 295836, Note_off_c, 0, 104, 65
1, 295847, Note_on_c, 0, 96, 60
1, 295859, Note_on_c, 0, 92, 62
1, 295879, Note_off_c, 0, 96, 65
1, 295889, Note_off_c, 0, 92, 67
1, 295913, Note_on_c, 0, 104, 81
1, 295948, Note_off_c, 0, 104, 63
1, 295961, Note_on_c, 0, 96, 64
1, 295979, Note_on_c, 0, 92, 65
1, 295994, Note_off_c, 0, 96, 64
1, 296010, Note_off_c, 0, 92, 67
1, 296031, Note_on_c, 0, 104, 83
1, 296060, Note_on_c, 0, 48, 44
1, 296081, Note_on_c, 0, 96, 61
1, 296081, Note_off_c, 0, 104, 62
1, 296091, Note_on_c, 0, 92, 64
1, 296091, Note_on_c, 0, 51, 55
1, 296129, Note_off_c, 0, 48, 53
1, 296133, Note_off_c, 0, 96, 63
1, 296137, Note_off_c, 0, 92, 63
1, 296139, Control_c, 0, 67, 108
1, 296145, Note_on_c, 0, 56, 61
1, 296173, Note_on_c, 0, 104, 77
1, 296212, Note_off_c, 0, 104, 61
1, 296216, Note_on_c, 0, 60, 80
1, 296240, Note_on_c, 0, 92, 68
1, 296245, Note_off_c, 0, 56, 63
1, 296250, Note_on_c, 0, 96, 49
1, 296271, Note_off_c, 0, 96, 60
1, 296274, Note_off_c, 0, 92, 63
1, 296305, Note_on_c, 0, 104, 83
1, 296306, Note_off_c, 0, 51, 53
1, 296331, Control_c, 0, 67, 109
1, 296350, Note_off_c, 0, 104, 63
1, 296360, Note_on_c, 0, 96, 60
1, 296361, Control_c, 0, 67, 109
1, 296365, Note_off_c, 0, 60, 59
1, 296377, Note_on_c, 0, 92, 67
1, 296396, Note_off_c, 0, 96, 64
1, 296405, Note_off_c, 0, 92, 68
1, 296436, Note_on_c, 0, 104, 81
1, 296471, Note_off_c, 0, 104, 62
1, 296479, Control_c, 0, 67, 108
1, 296483, Note_on_c, 0, 96, 61
1, 296492, Note_on_c, 0, 92, 72
1, 296494, Control_c, 0, 67, 107
1, 296521, Note_off_c, 0, 96, 64
1, 296523, Control_c, 0, 67, 107
1, 296529, Note_off_c, 0, 92, 63
1, 296553, Control_c, 0, 67, 106
1, 296557, Note_on_c, 0, 104, 85
1, 296573, Note_on_c, 0, 51, 56
1, 296583, Control_c, 0, 67, 105
1, 296598, Control_c, 0, 67, 105
1, 296607, Note_off_c, 0, 104, 64
1, 296613, Control_c, 0, 67, 104
1, 296616, Note_on_c, 0, 96, 58
1, 296634, Note_on_c, 0, 92, 70
1, 296642, Note_on_c, 0, 56, 56
1, 296643, Control_c, 0, 67, 103
1, 296653, Note_off_c, 0, 96, 64
1, 296654, Note_on_c, 0, 60, 69
1, 296660, Note_off_c, 0, 51, 61
1, 296660, Note_off_c, 0, 92, 68
1, 296672, Control_c, 0, 67, 103
1, 296687, Note_on_c, 0, 104, 82
1, 296702, Control_c, 0, 67, 102
1, 296735, Note_off_c, 0, 104, 64
1, 296741, Note_on_c, 0, 63, 88
1, 296746, Control_c, 0, 67, 102
1, 296747, Note_on_c, 0, 96, 62
1, 296759, Note_on_c, 0, 92, 68
1, 296773, Note_off_c, 0, 60, 62
1, 296783, Note_off_c, 0, 56, 59
1, 296787, Note_off_c, 0, 96, 64
1, 296801, Note_off_c, 0, 92, 63
1, 296827, Note_on_c, 0, 104, 86
1, 296836, Control_c, 0, 67, 101
1, 296879, Note_off_c, 0, 104, 63
1, 296897, Note_on_c, 0, 96, 58
1, 296897, Note_off_c, 0, 63, 60
1, 296902, Control_c, 0, 67, 100
1, 296906, Note_on_c, 0, 92, 71
1, 296930, Note_off_c, 0, 96, 67
1, 296933, Note_off_c, 0, 92, 68
1, 296965, Note_on_c, 0, 104, 83
1, 296996, Note_off_c, 0, 104, 66
1, 297006, Control_c, 0, 67, 100
1, 297019, Note_on_c, 0, 96, 55
1, 297021, Control_c, 0, 67, 99
1, 297022, Note_on_c, 0, 92, 71
1, 297047, Note_off_c, 0, 96, 65
1, 297051, Control_c, 0, 67, 98
1, 297054, Note_off_c, 0, 92, 66
1, 297081, Note_on_c, 0, 104, 83
1, 297081, Control_c, 0, 67, 98
1, 297110, Control_c, 0, 67, 97
1, 297114, Note_off_c, 0, 104, 62
1, 297129, Note_on_c, 0, 96, 66
1, 297139, Control_c, 0, 67, 97
1, 297141, Note_on_c, 0, 92, 69
1, 297149, Note_on_c, 0, 48, 59
1, 297164, Note_off_c, 0, 96, 64
1, 297169, Control_c, 0, 67, 96
1, 297170, Note_off_c, 0, 92, 68
1, 297187, Note_on_c, 0, 51, 67
1, 297199, Control_c, 0, 67, 95
1, 297205, Note_on_c, 0, 104, 83
1, 297220, Note_off_c, 0, 48, 60
1, 297227, Note_on_c, 0, 56, 75
1, 297243, Control_c, 0, 67, 95
1, 297253, Note_off_c, 0, 104, 63
1, 297265, Note_on_c, 0, 96, 61
1, 297274, Note_on_c, 0, 92, 66
1, 297286, Note_on_c, 0, 60, 92
1, 297302, Note_off_c, 0, 96, 64
1, 297302, Control_c, 0, 67, 94
1, 297311, Note_off_c, 0, 92, 64
1, 297340, Note_off_c, 0, 56, 61
1, 297341, Note_on_c, 0, 104, 84
1, 297346, Control_c, 0, 67, 93
1, 297389, Note_off_c, 0, 104, 63
1, 297404, Note_on_c, 0, 96, 54
1, 297415, Note_on_c, 0, 92, 69
1, 297435, Note_off_c, 0, 96, 67
1, 297435, Control_c, 0, 67, 93
1, 297443, Note_off_c, 0, 92, 68
1, 297465, Control_c, 0, 67, 92
1, 297474, Note_on_c, 0, 104, 81
1, 297495, Control_c, 0, 67, 92
1, 297501, Note_off_c, 0, 60, 56
1, 297505, Note_off_c, 0, 104, 65
1, 297510, Control_c, 0, 67, 91
1, 297523, Note_on_c, 0, 96, 61
1, 297525, Control_c, 0, 67, 90
1, 297534, Note_on_c, 0, 92, 64
1, 297552, Note_off_c, 0, 96, 67
1, 297554, Control_c, 0, 67, 90
1, 297567, Note_off_c, 0, 92, 67
1, 297584, Control_c, 0, 67, 89
1, 297592, Note_on_c, 0, 104, 84
1, 297599, Control_c, 0, 67, 88
1, 297622, Control_c, 0, 67, 88
1, 297634, Note_off_c, 0, 104, 64
1, 297637, Note_off_c, 0, 51, 53
1, 297641, Note_on_c, 0, 96, 61
1, 297651, Control_c, 0, 67, 87
1, 297662, Note_on_c, 0, 92, 61
1, 297677, Note_off_c, 0, 96, 65
1, 297681, Control_c, 0, 67, 87
1, 297686, Note_off_c, 0, 92, 64
1, 297696, Control_c, 0, 67, 86
1, 297711, Control_c, 0, 67, 85
1, 297713, Note_on_c, 0, 104, 83
1, 297725, Control_c, 0, 67, 85
1, 297740, Control_c, 0, 67, 84
1, 297746, Note_off_c, 0, 104, 63
1, 297755, Control_c, 0, 67, 80
1, 297757, Note_on_c, 0, 96, 62
1, 297769, Note_on_c, 0, 92, 64
1, 297769, Control_c, 0, 67, 71
1, 297784, Control_c, 0, 67, 61
1, 297787, Note_off_c, 0, 96, 66
1, 297799, Note_off_c, 0, 92, 67
1, 297799, Control_c, 0, 67, 53
1, 297814, Control_c, 0, 67, 48
1, 297827, Note_on_c, 0, 104, 78
1, 297829, Control_c, 0, 67, 45
1, 297844, Control_c, 0, 67, 39
1, 297859, Note_off_c, 0, 104, 65
1, 297859, Control_c, 0, 67, 35
1, 297866, Note_on_c, 0, 96, 61
1, 297873, Note_on_c, 0, 92, 70
1, 297874, Control_c, 0, 67, 32
1, 297889, Control_c, 0, 67, 28
1, 297901, Note_off_c, 0, 96, 66
1, 297903, Control_c, 0, 67, 24
1, 297907, Note_off_c, 0, 92, 62
1, 297918, Control_c, 0, 67, 22
1, 297933, Note_on_c, 0, 104, 82
1, 297933, Control_c, 0, 67, 19
1, 297948, Control_c, 0, 67, 16
1, 297962, Control_c, 0, 67, 12
1, 297964, Note_off_c, 0, 104, 64
1, 297977, Control_c, 0, 67, 8
1, 297979, Note_on_c, 0, 96, 55
1, 297992, Control_c, 0, 67, 0
1, 297999, Note_on_c, 0, 92, 66
1, 298003, Note_off_c, 0, 96, 65
1, 298019, Note_off_c, 0, 92, 64
1, 298042, Note_on_c, 0, 104, 85
1, 298077, Note_off_c, 0, 104, 63
1, 298088, Note_on_c, 0, 96, 64
1, 298100, Note_on_c, 0, 92, 64
1, 298125, Note_off_c, 0, 96, 65
1, 298134, Note_off_c, 0, 92, 65
1, 298157, Note_on_c, 0, 104, 85
1, 298160, Note_on_c, 0, 44, 64
1, 298205, Note_off_c, 0, 104, 63
1, 298207, Note_on_c, 0, 48, 60
1, 298211, Note_on_c, 0, 96, 67
1, 298226, Note_on_c, 0, 92, 71
1, 298236, Note_off_c, 0, 44, 61
1, 298237, Note_on_c, 0, 51, 77
1, 298249, Note_off_c, 0, 96, 63
1, 298256, Note_off_c, 0, 92, 67
1, 298285, Note_on_c, 0, 104, 88
1, 298285, Note_off_c, 0, 48, 61
1, 298307, Note_on_c, 0, 56, 86
1, 298334, Note_off_c, 0, 104, 63
1, 298344, Note_off_c, 0, 51, 64
1, 298350, Note_on_c, 0, 92, 71
1, 298351, Note_on_c, 0, 96, 64
1, 298389, Note_off_c, 0, 92, 66
1, 298389, Note_off_c, 0, 96, 66
1, 298416, Note_on_c, 0, 104, 86
1, 298441, Note_off_c, 0, 56, 60
1, 298466, Note_off_c, 0, 104, 63
1, 298474, Note_on_c, 0, 96, 65
1, 298487, Note_on_c, 0, 92, 70
1, 298513, Note_off_c, 0, 96, 64
1, 298516, Note_off_c, 0, 92, 67
1, 298537, Note_on_c, 0, 104, 88
1, 298593, Note_off_c, 0, 104, 64
1, 298598, Note_on_c, 0, 96, 58
1, 298601, Note_on_c, 0, 92, 70
1, 298633, Note_off_c, 0, 96, 66
1, 298634, Note_off_c, 0, 92, 64
1, 298655, Note_on_c, 0, 104, 84
1, 298666, Note_on_c, 0, 48, 69
1, 298705, Note_on_c, 0, 51, 71
1, 298715, Note_off_c, 0, 104, 63
1, 298716, Note_on_c, 0, 96, 70
1, 298731, Note_on_c, 0, 92, 73
1, 298744, Note_off_c, 0, 48, 62
1, 298747, Note_on_c, 0, 56, 80
1, 298758, Note_off_c, 0, 92, 67
1, 298766, Note_off_c, 0, 96, 64
1, 298785, Note_on_c, 0, 104, 87
1, 298815, Note_on_c, 0, 60, 96
1, 298839, Note_off_c, 0, 104, 62
1, 298850, Note_on_c, 0, 96, 71
1, 298851, Note_on_c, 0, 92, 78
1, 298868, Note_off_c, 0, 56, 63
1, 298881, Note_off_c, 0, 96, 65
1, 298896, Note_off_c, 0, 92, 65
1, 298914, Note_on_c, 0, 104, 91
1, 298965, Note_off_c, 0, 104, 63
1, 298965, Note_off_c, 0, 60, 60
1, 298972, Note_on_c, 0, 96, 68
1, 298981, Note_off_c, 0, 51, 63
1, 298986, Note_on_c, 0, 92, 69
1, 299003, Note_off_c, 0, 96, 66
1, 299014, Note_off_c, 0, 92, 67
1, 299023, Note_on_c, 0, 104, 78
1, 299065, Note_off_c, 0, 104, 59
1, 299085, Note_on_c, 0, 96, 66
1, 299095, Note_on_c, 0, 92, 68
1, 299127, Note_off_c, 0, 96, 63
1, 299132, Note_off_c, 0, 92, 67
1, 299135, Note_on_c, 0, 104, 77
1, 299190, Note_off_c, 0, 104, 54
1, 299197, Note_on_c, 0, 96, 58
1, 299219, Note_on_c, 0, 92, 53
1, 299244, Note_off_c, 0, 92, 63
1, 299246, Note_off_c, 0, 96, 59
1, 299258, Note_on_c, 0, 51, 81
1, 299316, Note_on_c, 0, 56, 76
1, 299343, Note_on_c, 0, 60, 80
1, 299393, Note_on_c, 0, 63, 92
1, 299433, Note_on_c, 0, 92, 87
1, 299477, Note_on_c, 0, 96, 80
1, 299523, Note_on_c, 0, 104, 107
1, 299682, Note_off_c, 0, 63, 57
1, 299744, Note_off_c, 0, 60, 60
1, 299765, Note_off_c, 0, 51, 53
1, 299790, Note_off_c, 0, 56, 54
1, 299799, Note_off_c, 0, 104, 63
1, 299875, Note_off_c, 0, 96, 62
1, 299878, Note_off_c, 0, 92, 61
1, 300631, Control_c, 0, 64, 108
1, 300646, Control_c, 0, 64, 95
1, 300661, Control_c, 0, 64, 87
1, 300676, Control_c, 0, 64, 80
1, 300691, Control_c, 0, 64, 72
1, 300705, Control_c, 0, 64, 65
1, 300718, Note_on_c, 0, 51, 103
1, 300719, Note_on_c, 0, 63, 89
1, 300720, Control_c, 0, 64, 57
1, 300720, Note_on_c, 0, 48, 95
1, 300722, Note_on_c, 0, 56, 83
1, 300724, Note_on_c, 0, 44, 81
1, 300729, Note_on_c, 0, 36, 77
1, 300735, Control_c, 0, 64, 47
1, 300750, Control_c, 0, 64, 38
1, 300765, Control_c, 0, 64, 17
1, 300780, Control_c, 0, 64, 0
1, 301016, Control_c, 0, 64, 34
1, 301030, Control_c, 0, 64, 47
1, 301045, Control_c, 0, 64, 55
1, 301060, Control_c, 0, 64, 59
1, 301075, Control_c, 0, 64, 62
1, 301090, Control_c, 0, 64, 66
1, 301105, Control_c, 0, 64, 71
1, 301120, Control_c, 0, 64, 80
1, 301134, Control_c, 0, 64, 94
1, 301149, Control_c, 0, 64, 127
1, 301606, Note_off_c, 0, 51, 47
1, 301809, Note_off_c, 0, 63, 38
1, 301822, Note_off_c, 0, 48, 49
1, 301890, Note_off_c, 0, 44, 32
1, 301892, Note_off_c, 0, 36, 34
1, 301897, Note_off_c, 0, 56, 51
1, 302002, Control_c, 0, 64, 116
1, 302017, Control_c, 0, 64, 111
1, 302032, Control_c, 0, 64, 107
1, 302047, Control_c, 0, 64, 103
1, 302062, Control_c, 0, 64, 98
1, 302076, Control_c, 0, 64, 94
1, 302091, Control_c, 0, 64, 90
1, 302113, Control_c, 0, 64, 87
1, 302128, Control_c, 0, 64, 86
1, 302142, Control_c, 0, 64, 85
1, 302157, Control_c, 0, 64, 84
1, 302172, Control_c, 0, 64, 83
1, 302187, Control_c, 0, 64, 81
1, 302202, Control_c, 0, 64, 80
1, 302217, Control_c, 0, 64, 79
1, 302232, Control_c, 0, 64, 79
1, 302247, Control_c, 0, 64, 78
1, 302262, Control_c, 0, 64, 77
1, 302276, Control_c, 0, 64, 77
1, 302291, Control_c, 0, 64, 76
1, 302306, Control_c, 0, 64, 76
1, 302335, Control_c, 0, 64, 75
1, 302366, Control_c, 0, 64, 75
1, 302381, Control_c, 0, 64, 74
1, 302396, Control_c, 0, 64, 73
1, 302411, Control_c, 0, 64, 72
1, 302425, Control_c, 0, 64, 70
1, 302440, Control_c, 0, 64, 69
1, 302455, Control_c, 0, 64, 69
1, 302470, Control_c, 0, 64, 68
1, 302485, Control_c, 0, 64, 67
1, 302499, Control_c, 0, 64, 67
1, 302514, Control_c, 0, 64, 66
1, 302529, Control_c, 0, 64, 66
1, 302544, Control_c, 0, 64, 65
1, 302559, Control_c, 0, 64, 65
1, 302588, Control_c, 0, 64, 64
1, 302618, Control_c, 0, 64, 64
1, 302647, Control_c, 0, 64, 63
1, 302662, Control_c, 0, 64, 63
1, 302677, Control_c, 0, 64, 62
1, 302692, Control_c, 0, 64, 62
1, 302721, Control_c, 0, 64, 61
1, 302750, Control_c, 0, 64, 60
1, 302765, Control_c, 0, 64, 60
1, 302780, Control_c, 0, 64, 59
1, 302795, Control_c, 0, 64, 58
1, 302825, Control_c, 0, 64, 58
1, 302877, Control_c, 0, 64, 57
1, 302892, Control_c, 0, 64, 57
1, 302906, Control_c, 0, 64, 56
1, 302936, Control_c, 0, 64, 56
1, 302965, Control_c, 0, 64, 55
1, 302980, Control_c, 0, 64, 54
1, 303025, Control_c, 0, 64, 54
1, 303084, Control_c, 0, 64, 53
1, 303099, Control_c, 0, 64, 53
1, 303114, Control_c, 0, 64, 52
1, 303144, Control_c, 0, 64, 52
1, 303159, Control_c, 0, 64, 51
1, 303174, Control_c, 0, 64, 51
1, 303203, Control_c, 0, 64, 50
1, 303278, Control_c, 0, 64, 50
1, 303367, Control_c, 0, 64, 50
1, 303396, Control_c, 0, 64, 51
1, 303411, Control_c, 0, 64, 51
1, 303441, Control_c, 0, 64, 52
1, 303455, Control_c, 0, 64, 53
1, 303470, Control_c, 0, 64, 53
1, 303485, Control_c, 0, 64, 54
1, 303500, Control_c, 0, 64, 55
1, 303515, Control_c, 0, 64, 55
1, 303529, Control_c, 0, 64, 56
1, 303544, Control_c, 0, 64, 57
1, 303559, Control_c, 0, 64, 58
1, 303573, Control_c, 0, 64, 59
1, 303588, Control_c, 0, 64, 59
1, 303611, Control_c, 0, 64, 60
1, 303626, Control_c, 0, 64, 62
1, 303641, Control_c, 0, 64, 63
1, 303655, Control_c, 0, 64, 64
1, 303670, Control_c, 0, 64, 65
1, 303685, Control_c, 0, 64, 66
1, 303700, Control_c, 0, 64, 68
1, 303715, Control_c, 0, 64, 72
1, 303729, Control_c, 0, 64, 76
1, 303744, Control_c, 0, 64, 80
1, 303759, Control_c, 0, 64, 86
1, 303773, Control_c, 0, 64, 95
1, 303788, Control_c, 0, 64, 127
1, 304001, Note_on_c, 0, 63, 90
1, 304004, Note_on_c, 0, 51, 89
1, 304005, Note_on_c, 0, 47, 74
1, 304008, Note_on_c, 0, 56, 80
1, 304017, Note_on_c, 0, 44, 68
1, 304020, Note_on_c, 0, 35, 58
1, 304947, Note_off_c, 0, 35, 32
1, 305005, Note_off_c, 0, 47, 28
1, 305089, Note_off_c, 0, 51, 38
1, 305233, Note_off_c, 0, 44, 31
1, 305390, Note_off_c, 0, 63, 28
1, 305472, Note_off_c, 0, 56, 37
1, 306146, Note_on_c, 0, 61, 81
1, 306146, Note_on_c, 0, 66, 86
1, 306152, Note_on_c, 0, 46, 66
1, 306157, Note_on_c, 0, 42, 65
1, 306158, Note_on_c, 0, 54, 77
1, 306164, Note_on_c, 0, 34, 56
1, 306347, Control_c, 0, 64, 107
1, 306362, Control_c, 0, 64, 97
1, 306377, Control_c, 0, 64, 90
1, 306392, Control_c, 0, 64, 84
1, 306407, Control_c, 0, 64, 80
1, 306421, Control_c, 0, 64, 76
1, 306436, Control_c, 0, 64, 73
1, 306451, Control_c, 0, 64, 70
1, 306465, Control_c, 0, 64, 68
1, 306480, Control_c, 0, 64, 67
1, 306495, Control_c, 0, 64, 66
1, 306510, Control_c, 0, 64, 65
1, 306525, Control_c, 0, 64, 63
1, 306539, Control_c, 0, 64, 62
1, 306554, Control_c, 0, 64, 61
1, 306569, Control_c, 0, 64, 60
1, 306584, Control_c, 0, 64, 58
1, 306607, Control_c, 0, 64, 55
1, 306622, Control_c, 0, 64, 53
1, 306636, Control_c, 0, 64, 53
1, 306651, Control_c, 0, 64, 52
1, 306666, Control_c, 0, 64, 49
1, 306680, Control_c, 0, 64, 43
1, 306695, Control_c, 0, 64, 24
1, 306710, Control_c, 0, 64, 0
1, 306873, Control_c, 0, 64, 20
1, 306888, Control_c, 0, 64, 31
1, 306903, Control_c, 0, 64, 40
1, 306918, Control_c, 0, 64, 50
1, 306933, Control_c, 0, 64, 56
1, 306947, Control_c, 0, 64, 59
1, 306962, Control_c, 0, 64, 62
1, 306977, Control_c, 0, 64, 64
1, 306992, Control_c, 0, 64, 67
1, 307006, Control_c, 0, 64, 71
1, 307021, Control_c, 0, 64, 77
1, 307036, Control_c, 0, 64, 83
1, 307051, Control_c, 0, 64, 91
1, 307066, Control_c, 0, 64, 100
1, 307080, Control_c, 0, 64, 111
1, 307095, Control_c, 0, 64, 127
1, 307303, Note_off_c, 0, 66, 32
1, 307502, Note_off_c, 0, 46, 35
1, 307520, Note_off_c, 0, 54, 29
1, 307635, Note_off_c, 0, 34, 40
1, 308641, Note_on_c, 0, 32, 45
1, 308641, Note_on_c, 0, 66, 72
1, 308643, Note_on_c, 0, 59, 67
1, 308646, Note_on_c, 0, 44, 53
1, 308650, Note_on_c, 0, 37, 42
1, 308659, Note_on_c, 0, 54, 63
1, 308696, Control_c, 0, 64, 105
1, 308711, Control_c, 0, 64, 95
1, 308721, Note_off_c, 0, 42, 52
1, 308725, Control_c, 0, 64, 87
1, 308734, Note_off_c, 0, 61, 38
1, 308741, Control_c, 0, 64, 75
1, 308756, Control_c, 0, 64, 66
1, 308771, Control_c, 0, 64, 53
1, 308786, Control_c, 0, 64, 28
1, 308801, Control_c, 0, 64, 15
1, 308815, Control_c, 0, 64, 11
1, 308830, Control_c, 0, 64, 9
1, 308852, Control_c, 0, 64, 11
1, 308867, Control_c, 0, 64, 23
1, 308882, Control_c, 0, 64, 35
1, 308897, Control_c, 0, 64, 47
1, 308912, Control_c, 0, 64, 56
1, 308927, Control_c, 0, 64, 62
1, 308942, Control_c, 0, 64, 67
1, 308956, Control_c, 0, 64, 73
1, 308971, Control_c, 0, 64, 85
1, 308986, Control_c, 0, 64, 111
1, 309001, Control_c, 0, 64, 127
1, 309097, Note_off_c, 0, 32, 38
1, 309122, Note_off_c, 0, 44, 29
1, 309141, Note_off_c, 0, 54, 31
1, 309259, Note_off_c, 0, 66, 24
1, 309264, Note_off_c, 0, 37, 37
1, 309268, Note_off_c, 0, 59, 35
1, 309636, Note_on_c, 0, 44, 63
1, 309636, Note_on_c, 0, 59, 76
1, 309638, Note_on_c, 0, 66, 79
1, 309644, Note_on_c, 0, 37, 57
1, 309649, Note_on_c, 0, 54, 75
1, 309651, Note_on_c, 0, 32, 49
1, 310276, Note_off_c, 0, 54, 35
1, 310897, Note_off_c, 0, 44, 33
1, 310933, Note_off_c, 0, 66, 34
1, 311063, Note_off_c, 0, 32, 31
1, 311297, Note_off_c, 0, 37, 36
1, 312270, Note_on_c, 0, 66, 65
1, 312272, Note_on_c, 0, 42, 49
1, 312277, Note_on_c, 0, 58, 56
1, 312281, Note_on_c, 0, 54, 61
1, 312285, Note_on_c, 0, 30, 41
1, 312286, Note_on_c, 0, 37, 41
1, 312334, Note_off_c, 0, 59, 63
1, 312365, Control_c, 0, 64, 117
1, 312380, Control_c, 0, 64, 92
1, 312395, Control_c, 0, 64, 79
1, 312409, Control_c, 0, 64, 69
1, 312424, Control_c, 0, 64, 59
1, 312439, Control_c, 0, 64, 39
1, 312454, Control_c, 0, 64, 27
1, 312469, Control_c, 0, 64, 25
1, 312513, Control_c, 0, 64, 30
1, 312528, Control_c, 0, 64, 37
1, 312543, Control_c, 0, 64, 45
1, 312558, Control_c, 0, 64, 52
1, 312572, Control_c, 0, 64, 58
1, 312595, Control_c, 0, 64, 62
1, 312610, Control_c, 0, 64, 64
1, 312624, Control_c, 0, 64, 66
1, 312639, Control_c, 0, 64, 71
1, 312654, Control_c, 0, 64, 79
1, 312669, Control_c, 0, 64, 90
1, 312684, Control_c, 0, 64, 103
1, 312698, Control_c, 0, 64, 127
1, 312787, Note_off_c, 0, 66, 28
1, 312792, Note_off_c, 0, 42, 36
1, 312860, Note_off_c, 0, 54, 31
1, 312892, Note_off_c, 0, 30, 35
1, 312900, Note_off_c, 0, 37, 37
1, 312993, Note_off_c, 0, 58, 37
1, 313252, Note_on_c, 0, 66, 77
1, 313255, Note_on_c, 0, 42, 65
1, 313256, Note_on_c, 0, 54, 75
1, 313258, Note_on_c, 0, 58, 70
1, 313270, Note_on_c, 0, 30, 47
1, 313271, Note_on_c, 0, 37, 52
1, 313890, Note_off_c, 0, 30, 40
1, 313997, Note_off_c, 0, 42, 32
1, 314073, Note_off_c, 0, 54, 28
1, 314127, Note_off_c, 0, 66, 29
1, 314155, Note_off_c, 0, 37, 34
1, 314380, Note_off_c, 0, 58, 35
1, 314628, Note_on_c, 0, 30, 60
1, 314719, Note_off_c, 0, 30, 58
1, 314724, Note_on_c, 0, 37, 63
1, 314815, Note_on_c, 0, 42, 80
1, 314954, Note_on_c, 0, 61, 84
1, 314963, Note_on_c, 0, 49, 77
1, 314964, Note_on_c, 0, 54, 64
1, 314964, Note_on_c, 0, 58, 70
1, 314967, Note_on_c, 0, 46, 71
1, 315235, Note_off_c, 0, 42, 19
1, 315521, Note_off_c, 0, 46, 33
1, 315688, Note_off_c, 0, 37, 37
1, 316410, Note_off_c, 0, 49, 30
1, 316705, Note_on_c, 0, 30, 73
1, 316743, Note_off_c, 0, 54, 35
1, 316948, Note_off_c, 0, 58, 62
1, 317336, Note_on_c, 0, 37, 61
1, 317350, Note_off_c, 0, 30, 51
1, 317626, Note_on_c, 0, 42, 69
1, 317810, Note_on_c, 0, 46, 64
1, 317853, Note_off_c, 0, 37, 38
1, 317872, Note_off_c, 0, 42, 57
1, 317987, Note_on_c, 0, 49, 67
1, 318004, Note_off_c, 0, 46, 61
1, 318178, Note_on_c, 0, 54, 72
1, 318263, Note_off_c, 0, 49, 39
1, 318288, Note_off_c, 0, 61, 35
1, 318408, Note_on_c, 0, 58, 77
1, 318838, Note_on_c, 0, 61, 67
1, 319487, Note_off_c, 0, 54, 32
1, 320323, Note_off_c, 0, 58, 16
1, 320329, Note_off_c, 0, 61, 30
1, 322863, Control_c, 0, 64, 123
1, 322877, Control_c, 0, 64, 119
1, 322892, Control_c, 0, 64, 118
1, 322907, Control_c, 0, 64, 117
1, 322922, Control_c, 0, 64, 115
1, 322937, Control_c, 0, 64, 114
1, 322952, Control_c, 0, 64, 113
1, 322966, Control_c, 0, 64, 112
1, 322981, Control_c, 0, 64, 111
1, 322996, Control_c, 0, 64, 111
1, 323011, Control_c, 0, 64, 110
1, 323026, Control_c, 0, 64, 110
1, 323040, Control_c, 0, 64, 109
1, 323055, Control_c, 0, 64, 108
1, 323092, Control_c, 0, 64, 107
1, 323107, Control_c, 0, 64, 107
1, 323122, Control_c, 0, 64, 106
1, 323137, Control_c, 0, 64, 106
1, 323152, Control_c, 0, 64, 105
1, 323167, Control_c, 0, 64, 104
1, 323196, Control_c, 0, 64, 103
1, 323211, Control_c, 0, 64, 102
1, 323241, Control_c, 0, 64, 102
1, 323256, Control_c, 0, 64, 101
1, 323286, Control_c, 0, 64, 101
1, 323301, Control_c, 0, 64, 100
1, 323316, Control_c, 0, 64, 100
1, 323330, Control_c, 0, 64, 99
1, 323345, Control_c, 0, 64, 99
1, 323360, Control_c, 0, 64, 98
1, 323375, Control_c, 0, 64, 98
1, 323404, Control_c, 0, 64, 97
1, 323419, Control_c, 0, 64, 97
1, 323434, Control_c, 0, 64, 96
1, 323449, Control_c, 0, 64, 96
1, 323464, Control_c, 0, 64, 95
1, 323537, Control_c, 0, 64, 95
1, 323582, Control_c, 0, 64, 94
1, 323611, Control_c, 0, 64, 94
1, 323626, Control_c, 0, 64, 93
1, 323641, Control_c, 0, 64, 92
1, 323656, Control_c, 0, 64, 92
1, 323685, Control_c, 0, 64, 91
1, 323700, Control_c, 0, 64, 91
1, 323730, Control_c, 0, 64, 90
1, 323775, Control_c, 0, 64, 90
1, 323804, Control_c, 0, 64, 89
1, 323841, Control_c, 0, 64, 88
1, 323870, Control_c, 0, 64, 88
1, 323885, Control_c, 0, 64, 87
1, 323900, Control_c, 0, 64, 87
1, 323915, Control_c, 0, 64, 86
1, 323931, Control_c, 0, 64, 86
1, 323960, Control_c, 0, 64, 85
1, 323975, Control_c, 0, 64, 85
1, 323990, Control_c, 0, 64, 84
1, 324019, Control_c, 0, 64, 84
1, 324034, Control_c, 0, 64, 83
1, 324064, Control_c, 0, 64, 82
1, 324079, Control_c, 0, 64, 82
1, 324094, Control_c, 0, 64, 81
1, 324109, Control_c, 0, 64, 81
1, 324123, Control_c, 0, 64, 80
1, 324138, Control_c, 0, 64, 80
1, 324153, Control_c, 0, 64, 79
1, 324168, Control_c, 0, 64, 79
1, 324198, Control_c, 0, 64, 78
1, 324213, Control_c, 0, 64, 78
1, 324243, Control_c, 0, 64, 77
1, 324258, Control_c, 0, 64, 77
1, 324302, Control_c, 0, 64, 76
1, 324317, Control_c, 0, 64, 76
1, 324332, Control_c, 0, 64, 75
1, 324346, Control_c, 0, 64, 75
1, 324391, Control_c, 0, 64, 74
1, 324406, Control_c, 0, 64, 73
1, 324420, Control_c, 0, 64, 73
1, 324435, Control_c, 0, 64, 72
1, 324465, Control_c, 0, 64, 72
1, 324480, Control_c, 0, 64, 71
1, 324494, Control_c, 0, 64, 70
1, 324509, Control_c, 0, 64, 70
1, 324524, Control_c, 0, 64, 69
1, 324553, Control_c, 0, 64, 68
1, 324576, Control_c, 0, 64, 67
1, 324591, Control_c, 0, 64, 67
1, 324606, Control_c, 0, 64, 66
1, 324620, Control_c, 0, 64, 65
1, 324635, Control_c, 0, 64, 65
1, 324650, Control_c, 0, 64, 64
1, 324665, Control_c, 0, 64, 63
1, 324680, Control_c, 0, 64, 63
1, 324694, Control_c, 0, 64, 62
1, 324709, Control_c, 0, 64, 61
1, 324725, Control_c, 0, 64, 61
1, 324740, Control_c, 0, 64, 60
1, 324755, Control_c, 0, 64, 59
1, 324769, Control_c, 0, 64, 57
1, 324784, Control_c, 0, 64, 56
1, 324799, Control_c, 0, 64, 54
1, 324814, Control_c, 0, 64, 52
1, 324829, Control_c, 0, 64, 50
1, 324843, Control_c, 0, 64, 47
1, 324858, Control_c, 0, 64, 39
1, 324873, Control_c, 0, 64, 30
1, 324888, Control_c, 0, 64, 19
1, 324903, Control_c, 0, 64, 0
1, 324978, End_track
0, 0, End_of_file
