0, 0, Header, 0, 1, 384
1, 0, Start_track
1, 0, Title_t, "Un Sospiro by Liszt--Eloise Kim    "
1, 0, Text_t, "2008 e-Piano Junior Competition virtual audition round"
1, 0, Text_t, "recorded January and February 2008"
1, 0, Text_t, "http://www.piano-e-competition.com/"
1, 0, Text_t, "File processed for distribution by software from Zenph Studios, Inc., http://www.zenph.com"
1, 0, Instrument_name_t, "Yamaha Disklavier Pro Mark IV concert grand piano, model DCFIIISM4PRO"
1, 0, Sequencer_specific, 39, 67, 113, 0, 1, 0, 1, 0, 85, 110, 32, 83, 111, 115, 112, 105, 114, 111, 44, 76, 105, 115, 122, 116, 69, 108, 111, 105, 115, 101, 32, 75, 105, 109, 32, 32, 32, 32, 32, 32
1, 0, Sequencer_specific, 6, 67, 113, 0, 0, 0, 69
1, 0, System_exclusive, 21, 67, 113, 126, 21, 0, 2, 2, 1, 9, 14, 1, 4, 0, 14, 12, 15, 14, 15, 2, 4, 247
1, 0, Sequencer_specific, 5, 67, 123, 12, 2, 1
1, 0, Tempo, 512820
1, 0, Time_signature, 4, 2, 24, 8
1, 0, System_exclusive, 5, 126, 127, 9, 1, 247
1, 1, System_exclusive, 8, 67, 16, 76, 0, 0, 126, 0, 247
1, 2, System_exclusive, 8, 67, 16, 76, 8, 9, 7, 1, 247
1, 3, Control_c, 0, 0, 0
1, 3, Control_c, 1, 0, 0
1, 3, Control_c, 2, 0, 0
1, 3, Control_c, 3, 0, 0
1, 3, Control_c, 4, 0, 0
1, 3, Control_c, 5, 0, 0
1, 3, Control_c, 6, 0, 0
1, 3, Control_c, 7, 0, 0
1, 3, Control_c, 8, 0, 0
1, 3, Control_c, 9, 0, 127
1, 3, Control_c, 10, 0, 0
1, 3, Control_c, 11, 0, 0
1, 3, Control_c, 12, 0, 0
1, 3, Control_c, 13, 0, 0
1, 3, Control_c, 14, 0, 0
1, 3, Control_c, 15, 0, 0
1, 4, Control_c, 0, 32, 0
1, 4, Control_c, 1, 32, 0
1, 4, Control_c, 2, 32, 0
1, 4, Control_c, 3, 32, 0
1, 4, Control_c, 4, 32, 0
1, 4, Control_c, 5, 32, 0
1, 4, Control_c, 6, 32, 0
1, 4, Control_c, 7, 32, 0
1, 4, Control_c, 8, 32, 0
1, 4, Control_c, 9, 32, 0
1, 4, Control_c, 10, 32, 0
1, 4, Control_c, 11, 32, 0
1, 4, Control_c, 12, 32, 0
1, 4, Control_c, 13, 32, 0
1, 4, Control_c, 14, 32, 0
1, 4, Control_c, 15, 32, 0
1, 5, Program_c, 0, 0
1, 5, Program_c, 1, 0
1, 5, Program_c, 2, 0
1, 5, Program_c, 3, 0
1, 5, Program_c, 4, 0
1, 5, Program_c, 5, 0
1, 5, Program_c, 6, 0
1, 5, Program_c, 7, 0
1, 5, Program_c, 8, 0
1, 5, Program_c, 9, 0
1, 5, Program_c, 10, 0
1, 5, Program_c, 11, 0
1, 5, Program_c, 12, 0
1, 5, Program_c, 13, 0
1, 5, Program_c, 14, 0
1, 5, Program_c, 15, 0
1, 6, Control_c, 0, 7, 100
1, 117, Control_c, 0, 67, 15
1, 229, Control_c, 0, 67, 31
1, 341, Control_c, 0, 67, 46
1, 452, Control_c, 0, 67, 63
1, 564, Control_c, 0, 67, 77
1, 676, Control_c, 0, 67, 94
1, 787, Control_c, 0, 67, 108
1, 899, Control_c, 0, 67, 127
1, 899, Control_c, 1, 7, 100
1, 899, Control_c, 2, 7, 100
1, 899, Control_c, 3, 7, 100
1, 899, Control_c, 4, 7, 100
1, 899, Control_c, 5, 7, 100
1, 899, Control_c, 6, 7, 100
1, 899, Control_c, 7, 7, 100
1, 899, Control_c, 8, 7, 100
1, 899, Control_c, 9, 7, 100
1, 899, Control_c, 10, 7, 100
1, 899, Control_c, 11, 7, 100
1, 899, Control_c, 12, 7, 100
1, 899, Control_c, 13, 7, 100
1, 899, Control_c, 14, 7, 100
1, 899, Control_c, 15, 7, 100
1, 1134, Control_c, 0, 64, 44
1, 1136, Note_on_c, 0, 37, 32
1, 1149, Control_c, 0, 64, 48
1, 1164, Control_c, 0, 64, 52
1, 1179, Control_c, 0, 64, 56
1, 1194, Control_c, 0, 64, 59
1, 1208, Control_c, 0, 64, 62
1, 1223, Control_c, 0, 64, 64
1, 1238, Control_c, 0, 64, 67
1, 1253, Control_c, 0, 64, 71
1, 1268, Control_c, 0, 64, 79
1, 1283, Control_c, 0, 64, 95
1, 1298, Control_c, 0, 64, 127
1, 1489, Note_on_c, 0, 44, 34
1, 1506, Note_off_c, 0, 37, 34
1, 1646, Note_on_c, 0, 49, 42
1, 1691, Note_off_c, 0, 44, 35
1, 1767, Note_off_c, 0, 49, 50
1, 1770, Note_on_c, 0, 53, 41
1, 1889, Note_off_c, 0, 53, 35
1, 1899, Note_on_c, 0, 56, 38
1, 2000, Note_on_c, 0, 61, 39
1, 2028, Note_off_c, 0, 56, 31
1, 2068, Note_off_c, 0, 61, 51
1, 2078, Note_on_c, 0, 65, 46
1, 2168, Note_off_c, 0, 65, 53
1, 2176, Note_on_c, 0, 68, 45
1, 2260, Note_off_c, 0, 68, 57
1, 2270, Note_on_c, 0, 65, 42
1, 2373, Note_off_c, 0, 65, 57
1, 2376, Note_on_c, 0, 61, 55
1, 2419, Note_off_c, 0, 61, 60
1, 2434, Note_on_c, 0, 56, 54
1, 2512, Note_on_c, 0, 53, 52
1, 2526, Note_off_c, 0, 56, 49
1, 2583, Note_off_c, 0, 53, 56
1, 2612, Note_on_c, 0, 49, 47
1, 2663, Note_off_c, 0, 49, 60
1, 2690, Note_on_c, 0, 44, 55
1, 2776, Note_off_c, 0, 44, 55
1, 2811, Note_on_c, 0, 37, 53
1, 2914, Note_off_c, 0, 37, 50
1, 2922, Note_on_c, 0, 44, 53
1, 3031, Note_on_c, 0, 49, 51
1, 3101, Note_on_c, 0, 53, 58
1, 3144, Note_off_c, 0, 53, 60
1, 3169, Note_off_c, 0, 44, 20
1, 3179, Note_on_c, 0, 56, 50
1, 3243, Note_on_c, 0, 61, 59
1, 3255, Note_off_c, 0, 56, 55
1, 3295, Note_off_c, 0, 61, 55
1, 3311, Note_on_c, 0, 65, 58
1, 3374, Note_off_c, 0, 49, 32
1, 3394, Note_on_c, 0, 68, 61
1, 3400, Note_off_c, 0, 65, 58
1, 3477, Note_on_c, 0, 65, 56
1, 3487, Note_off_c, 0, 68, 56
1, 3562, Note_on_c, 0, 61, 58
1, 3583, Note_off_c, 0, 65, 57
1, 3618, Note_on_c, 0, 56, 64
1, 3620, Note_off_c, 0, 61, 59
1, 3690, Note_on_c, 0, 53, 62
1, 3702, Note_off_c, 0, 56, 53
1, 3748, Note_off_c, 0, 53, 47
1, 3769, Note_on_c, 0, 49, 61
1, 3816, Note_off_c, 0, 49, 60
1, 3847, Note_on_c, 0, 44, 68
1, 3925, Note_off_c, 0, 44, 58
1, 3948, Note_on_c, 0, 37, 61
1, 4046, Note_on_c, 0, 44, 62
1, 4048, Note_off_c, 0, 37, 58
1, 4138, Note_on_c, 0, 49, 65
1, 4198, Note_on_c, 0, 53, 65
1, 4231, Note_off_c, 0, 53, 63
1, 4261, Note_off_c, 0, 44, 23
1, 4263, Note_on_c, 0, 56, 61
1, 4327, Note_on_c, 0, 61, 66
1, 4343, Note_off_c, 0, 56, 56
1, 4392, Note_off_c, 0, 61, 59
1, 4397, Note_on_c, 0, 65, 64
1, 4421, Note_off_c, 0, 49, 51
1, 4478, Note_off_c, 0, 65, 60
1, 4480, Note_on_c, 0, 68, 67
1, 4559, Note_on_c, 0, 65, 66
1, 4586, Note_off_c, 0, 68, 55
1, 4643, Note_on_c, 0, 61, 64
1, 4663, Note_off_c, 0, 65, 58
1, 4704, Note_on_c, 0, 56, 67
1, 4704, Note_off_c, 0, 61, 60
1, 4781, Note_off_c, 0, 56, 48
1, 4785, Note_on_c, 0, 53, 52
1, 4821, Note_off_c, 0, 53, 59
1, 4857, Note_on_c, 0, 49, 56
1, 4891, Note_off_c, 0, 49, 63
1, 4922, Note_on_c, 0, 44, 60
1, 4982, Note_off_c, 0, 44, 56
1, 5024, Note_on_c, 0, 37, 52
1, 5093, Note_off_c, 0, 37, 54
1, 5118, Note_on_c, 0, 44, 50
1, 5162, Note_off_c, 0, 44, 55
1, 5213, Note_on_c, 0, 49, 51
1, 5279, Note_on_c, 0, 53, 51
1, 5316, Note_off_c, 0, 53, 65
1, 5345, Note_on_c, 0, 56, 51
1, 5406, Note_off_c, 0, 56, 53
1, 5410, Note_on_c, 0, 61, 53
1, 5450, Note_off_c, 0, 61, 62
1, 5478, Note_on_c, 0, 65, 53
1, 5558, Note_off_c, 0, 65, 58
1, 5566, Note_on_c, 0, 68, 57
1, 5575, Note_on_c, 0, 61, 28
1, 5586, Note_off_c, 0, 49, 28
1, 5611, Note_off_c, 0, 61, 52
1, 5641, Note_off_c, 0, 68, 58
1, 5654, Note_on_c, 0, 65, 50
1, 5710, Note_on_c, 0, 61, 54
1, 5730, Note_off_c, 0, 65, 52
1, 5758, Note_off_c, 0, 61, 59
1, 5794, Note_on_c, 0, 56, 47
1, 5880, Note_on_c, 0, 53, 43
1, 5885, Note_off_c, 0, 56, 52
1, 5909, Note_off_c, 0, 53, 56
1, 5954, Note_on_c, 0, 49, 48
1, 5990, Note_off_c, 0, 49, 63
1, 6033, Note_on_c, 0, 44, 49
1, 6115, Note_off_c, 0, 44, 53
1, 6169, Control_c, 0, 64, 101
1, 6170, Note_on_c, 0, 37, 46
1, 6184, Control_c, 0, 64, 89
1, 6199, Control_c, 0, 64, 82
1, 6214, Control_c, 0, 64, 81
1, 6229, Control_c, 0, 64, 83
1, 6244, Control_c, 0, 64, 89
1, 6259, Control_c, 0, 64, 106
1, 6272, Note_off_c, 0, 37, 57
1, 6274, Control_c, 0, 64, 127
1, 6293, Note_on_c, 0, 44, 44
1, 6354, Note_off_c, 0, 44, 52
1, 6398, Note_on_c, 0, 49, 36
1, 6443, Note_off_c, 0, 49, 60
1, 6468, Note_on_c, 0, 53, 46
1, 6497, Note_off_c, 0, 53, 61
1, 6511, Control_c, 0, 67, 123
1, 6525, Control_c, 0, 67, 116
1, 6540, Control_c, 0, 67, 109
1, 6555, Control_c, 0, 67, 102
1, 6570, Control_c, 0, 67, 93
1, 6574, Note_on_c, 0, 56, 37
1, 6585, Control_c, 0, 67, 81
1, 6599, Control_c, 0, 67, 69
1, 6614, Control_c, 0, 67, 58
1, 6629, Control_c, 0, 67, 49
1, 6644, Control_c, 0, 67, 42
1, 6659, Control_c, 0, 67, 36
1, 6673, Control_c, 0, 67, 30
1, 6686, Note_on_c, 0, 61, 35
1, 6688, Control_c, 0, 67, 21
1, 6703, Control_c, 0, 67, 12
1, 6705, Note_off_c, 0, 56, 33
1, 6718, Control_c, 0, 67, 0
1, 6771, Note_off_c, 0, 61, 50
1, 6798, Note_on_c, 0, 65, 40
1, 7041, Note_on_c, 0, 68, 54
1, 7069, Note_off_c, 0, 65, 29
1, 7120, Note_off_c, 0, 68, 60
1, 7201, Note_on_c, 0, 65, 47
1, 7274, Note_off_c, 0, 65, 56
1, 7323, Note_on_c, 0, 61, 31
1, 7371, Note_off_c, 0, 61, 44
1, 7382, Note_on_c, 0, 56, 5
1, 7412, Note_on_c, 0, 53, 28
1, 7436, Note_off_c, 0, 56, 50
1, 7448, Note_off_c, 0, 53, 52
1, 7475, Note_on_c, 0, 49, 23
1, 7502, Note_on_c, 0, 44, 47
1, 7514, Note_off_c, 0, 49, 53
1, 7555, Note_off_c, 0, 44, 61
1, 7608, Note_on_c, 0, 37, 50
1, 7679, Note_on_c, 0, 70, 69
1, 7697, Note_off_c, 0, 37, 54
1, 7722, Note_on_c, 0, 44, 43
1, 7786, Note_off_c, 0, 44, 46
1, 7814, Note_on_c, 0, 49, 47
1, 7854, Note_off_c, 0, 49, 62
1, 7880, Note_on_c, 0, 53, 46
1, 7887, Note_off_c, 0, 70, 60
1, 7907, Note_off_c, 0, 53, 55
1, 7990, Note_on_c, 0, 56, 56
1, 8038, Note_off_c, 0, 56, 61
1, 8056, Note_on_c, 0, 61, 55
1, 8091, Note_off_c, 0, 61, 63
1, 8113, Note_on_c, 0, 65, 53
1, 8168, Note_off_c, 0, 65, 50
1, 8190, Note_on_c, 0, 73, 74
1, 8239, Note_off_c, 0, 73, 62
1, 8269, Poly_aftertouch_c, 0, 61, 127
1, 8305, Note_on_c, 0, 65, 55
1, 8308, Poly_aftertouch_c, 0, 61, 0
1, 8373, Note_on_c, 0, 61, 44
1, 8377, Note_off_c, 0, 65, 56
1, 8431, Note_on_c, 0, 56, 62
1, 8461, Note_off_c, 0, 56, 63
1, 8462, Note_off_c, 0, 61, 59
1, 8473, Note_on_c, 0, 44, 12
1, 8492, Note_on_c, 0, 53, 31
1, 8518, Note_off_c, 0, 44, 52
1, 8527, Note_off_c, 0, 53, 51
1, 8551, Note_on_c, 0, 49, 35
1, 8586, Note_off_c, 0, 49, 50
1, 8610, Note_on_c, 0, 44, 55
1, 8676, Note_off_c, 0, 44, 53
1, 8717, Note_on_c, 0, 37, 50
1, 8760, Note_on_c, 0, 75, 68
1, 8800, Control_c, 0, 64, 99
1, 8815, Control_c, 0, 64, 83
1, 8830, Control_c, 0, 64, 71
1, 8831, Note_off_c, 0, 37, 58
1, 8844, Control_c, 0, 64, 66
1, 8859, Control_c, 0, 64, 67
1, 8874, Control_c, 0, 64, 77
1, 8875, Note_on_c, 0, 46, 49
1, 8889, Control_c, 0, 64, 113
1, 8904, Control_c, 0, 64, 127
1, 8918, Note_off_c, 0, 75, 62
1, 8928, Note_off_c, 0, 46, 60
1, 8944, Note_on_c, 0, 49, 50
1, 8981, Note_off_c, 0, 49, 63
1, 9006, Note_on_c, 0, 54, 55
1, 9030, Note_off_c, 0, 54, 59
1, 9099, Note_on_c, 0, 58, 48
1, 9163, Note_on_c, 0, 61, 53
1, 9165, Note_off_c, 0, 58, 52
1, 9215, Note_off_c, 0, 61, 55
1, 9229, Note_on_c, 0, 66, 53
1, 9286, Note_off_c, 0, 66, 47
1, 9323, Note_on_c, 0, 77, 76
1, 9355, Control_c, 0, 67, 8
1, 9370, Control_c, 0, 67, 13
1, 9371, Note_off_c, 0, 77, 62
1, 9385, Control_c, 0, 67, 21
1, 9401, Control_c, 0, 67, 31
1, 9416, Control_c, 0, 67, 42
1, 9430, Control_c, 0, 67, 52
1, 9445, Control_c, 0, 67, 63
1, 9459, Note_on_c, 0, 66, 47
1, 9460, Control_c, 0, 67, 75
1, 9475, Control_c, 0, 67, 93
1, 9489, Control_c, 0, 67, 112
1, 9498, Note_off_c, 0, 66, 61
1, 9504, Control_c, 0, 67, 127
1, 9520, Note_on_c, 0, 61, 42
1, 9556, Note_off_c, 0, 61, 59
1, 9557, Note_on_c, 0, 58, 56
1, 9588, Note_off_c, 0, 58, 64
1, 9633, Note_on_c, 0, 54, 44
1, 9659, Note_off_c, 0, 54, 57
1, 9697, Note_on_c, 0, 49, 35
1, 9726, Note_off_c, 0, 49, 54
1, 9740, Note_on_c, 0, 46, 58
1, 9776, Note_off_c, 0, 46, 62
1, 9850, Note_on_c, 0, 37, 48
1, 9890, Note_on_c, 0, 75, 66
1, 9927, Control_c, 0, 64, 102
1, 9936, Note_off_c, 0, 37, 56
1, 9942, Control_c, 0, 64, 80
1, 9956, Control_c, 0, 64, 66
1, 9971, Control_c, 0, 64, 55
1, 9986, Control_c, 0, 64, 53
1, 9990, Note_on_c, 0, 46, 48
1, 10000, Control_c, 0, 64, 61
1, 10015, Control_c, 0, 64, 69
1, 10030, Control_c, 0, 64, 87
1, 10045, Control_c, 0, 64, 127
1, 10047, Note_off_c, 0, 46, 59
1, 10051, Note_off_c, 0, 75, 61
1, 10060, Note_on_c, 0, 49, 51
1, 10101, Note_off_c, 0, 49, 61
1, 10124, Note_on_c, 0, 54, 54
1, 10148, Note_off_c, 0, 54, 59
1, 10237, Note_on_c, 0, 58, 41
1, 10288, Note_off_c, 0, 58, 57
1, 10294, Note_on_c, 0, 61, 50
1, 10348, Note_off_c, 0, 61, 56
1, 10367, Note_on_c, 0, 66, 45
1, 10406, Note_off_c, 0, 66, 54
1, 10455, Note_on_c, 0, 70, 61
1, 10491, Note_off_c, 0, 70, 62
1, 10577, Note_on_c, 0, 66, 41
1, 10625, Note_off_c, 0, 66, 59
1, 10651, Note_on_c, 0, 61, 46
1, 10688, Note_off_c, 0, 61, 60
1, 10710, Note_on_c, 0, 58, 48
1, 10738, Note_off_c, 0, 58, 56
1, 10803, Note_on_c, 0, 54, 41
1, 10838, Note_off_c, 0, 54, 51
1, 10890, Note_on_c, 0, 49, 44
1, 10963, Note_off_c, 0, 49, 52
1, 11004, Note_on_c, 0, 46, 44
1, 11033, Note_off_c, 0, 46, 57
1, 11235, Note_on_c, 0, 37, 39
1, 11323, Note_on_c, 0, 73, 56
1, 11365, Control_c, 0, 64, 96
1, 11380, Control_c, 0, 64, 70
1, 11394, Control_c, 0, 64, 30
1, 11409, Control_c, 0, 64, 0
1, 11484, Control_c, 0, 64, 32
1, 11499, Control_c, 0, 64, 64
1, 11513, Control_c, 0, 64, 70
1, 11528, Control_c, 0, 64, 80
1, 11543, Control_c, 0, 64, 98
1, 11558, Note_off_c, 0, 73, 61
1, 11558, Control_c, 0, 64, 127
1, 11592, Note_off_c, 0, 37, 36
1, 11618, Note_on_c, 0, 44, 35
1, 11722, Note_on_c, 0, 49, 41
1, 11728, Note_off_c, 0, 44, 52
1, 11817, Note_on_c, 0, 53, 44
1, 11874, Note_off_c, 0, 49, 0
1, 11879, Note_off_c, 0, 53, 48
1, 11890, Note_on_c, 0, 56, 43
1, 11911, Poly_aftertouch_c, 0, 49, 127
1, 11957, Note_off_c, 0, 56, 50
1, 11965, Note_on_c, 0, 61, 45
1, 12002, Note_off_c, 0, 61, 59
1, 12032, Note_on_c, 0, 65, 48
1, 12094, Note_off_c, 0, 65, 55
1, 12121, Note_on_c, 0, 68, 53
1, 12126, Poly_aftertouch_c, 0, 49, 0
1, 12181, Note_off_c, 0, 68, 58
1, 12198, Note_on_c, 0, 65, 52
1, 12271, Note_off_c, 0, 65, 56
1, 12274, Note_on_c, 0, 61, 53
1, 12310, Note_off_c, 0, 61, 64
1, 12332, Note_on_c, 0, 56, 51
1, 12396, Note_off_c, 0, 56, 50
1, 12408, Note_on_c, 0, 53, 51
1, 12440, Note_off_c, 0, 53, 62
1, 12479, Note_on_c, 0, 49, 56
1, 12514, Note_off_c, 0, 49, 63
1, 12538, Note_on_c, 0, 44, 63
1, 12596, Note_off_c, 0, 44, 58
1, 12636, Note_on_c, 0, 37, 54
1, 12688, Note_off_c, 0, 37, 57
1, 12721, Note_on_c, 0, 44, 57
1, 12785, Note_off_c, 0, 44, 43
1, 12803, Note_on_c, 0, 49, 63
1, 12870, Note_on_c, 0, 53, 60
1, 12907, Note_off_c, 0, 53, 63
1, 12929, Note_on_c, 0, 56, 56
1, 12989, Note_on_c, 0, 61, 60
1, 12999, Note_off_c, 0, 56, 58
1, 13028, Note_off_c, 0, 61, 60
1, 13053, Note_on_c, 0, 65, 62
1, 13126, Note_off_c, 0, 49, 38
1, 13129, Note_on_c, 0, 68, 67
1, 13129, Note_off_c, 0, 65, 59
1, 13198, Note_on_c, 0, 65, 60
1, 13225, Note_off_c, 0, 68, 55
1, 13268, Note_on_c, 0, 61, 65
1, 13298, Note_off_c, 0, 65, 55
1, 13325, Note_on_c, 0, 56, 69
1, 13328, Note_off_c, 0, 61, 62
1, 13400, Note_on_c, 0, 53, 55
1, 13401, Note_off_c, 0, 56, 55
1, 13432, Note_off_c, 0, 53, 64
1, 13473, Note_on_c, 0, 49, 59
1, 13508, Note_off_c, 0, 49, 64
1, 13526, Note_on_c, 0, 44, 63
1, 13606, Note_off_c, 0, 44, 59
1, 13636, Note_on_c, 0, 37, 58
1, 13657, Control_c, 0, 64, 102
1, 13672, Control_c, 0, 64, 93
1, 13686, Control_c, 0, 64, 90
1, 13701, Poly_aftertouch_c, 0, 61, 127
1, 13713, Note_off_c, 0, 37, 54
1, 13727, Note_on_c, 0, 44, 62
1, 13730, Poly_aftertouch_c, 0, 68, 127
1, 13730, Control_c, 0, 64, 94
1, 13745, Control_c, 0, 64, 108
1, 13753, Poly_aftertouch_c, 0, 61, 0
1, 13760, Control_c, 0, 64, 127
1, 13774, Control_c, 0, 67, 125
1, 13776, Poly_aftertouch_c, 0, 68, 0
1, 13782, Note_off_c, 0, 44, 51
1, 13789, Control_c, 0, 67, 113
1, 13804, Control_c, 0, 67, 98
1, 13814, Note_on_c, 0, 49, 52
1, 13819, Control_c, 0, 67, 78
1, 13834, Control_c, 0, 67, 57
1, 13848, Control_c, 0, 67, 38
1, 13856, Note_off_c, 0, 49, 62
1, 13863, Control_c, 0, 67, 28
1, 13878, Control_c, 0, 67, 22
1, 13887, Note_on_c, 0, 53, 34
1, 13893, Control_c, 0, 67, 16
1, 13908, Control_c, 0, 67, 10
1, 13922, Control_c, 0, 67, 0
1, 13923, Note_off_c, 0, 53, 50
1, 13957, Note_on_c, 0, 56, 51
1, 14031, Note_on_c, 0, 61, 51
1, 14050, Note_off_c, 0, 56, 48
1, 14086, Note_off_c, 0, 61, 55
1, 14122, Note_on_c, 0, 65, 51
1, 14301, Note_off_c, 0, 65, 36
1, 14306, Note_on_c, 0, 68, 69
1, 14375, Note_off_c, 0, 68, 60
1, 14441, Note_on_c, 0, 65, 51
1, 14527, Note_off_c, 0, 65, 58
1, 14531, Note_on_c, 0, 61, 47
1, 14584, Note_on_c, 0, 56, 54
1, 14590, Note_off_c, 0, 61, 57
1, 14622, Note_off_c, 0, 56, 60
1, 14639, Note_on_c, 0, 53, 39
1, 14673, Note_off_c, 0, 53, 49
1, 14707, Note_on_c, 0, 49, 29
1, 14735, Note_on_c, 0, 44, 59
1, 14743, Note_off_c, 0, 49, 52
1, 14778, Note_off_c, 0, 44, 61
1, 14819, Note_on_c, 0, 37, 62
1, 14878, Note_on_c, 0, 70, 72
1, 14908, Control_c, 0, 64, 95
1, 14923, Control_c, 0, 64, 75
1, 14938, Control_c, 0, 64, 66
1, 14953, Control_c, 0, 64, 65
1, 14959, Note_off_c, 0, 37, 59
1, 14968, Control_c, 0, 64, 70
1, 14973, Note_on_c, 0, 44, 51
1, 14983, Control_c, 0, 64, 86
1, 14998, Control_c, 0, 64, 127
1, 15048, Note_on_c, 0, 49, 64
1, 15051, Note_off_c, 0, 44, 57
1, 15091, Note_off_c, 0, 70, 61
1, 15096, Note_off_c, 0, 49, 60
1, 15108, Note_on_c, 0, 53, 64
1, 15133, Note_off_c, 0, 53, 63
1, 15177, Note_on_c, 0, 56, 62
1, 15234, Note_off_c, 0, 56, 59
1, 15243, Note_on_c, 0, 61, 62
1, 15296, Note_on_c, 0, 65, 67
1, 15302, Note_off_c, 0, 61, 58
1, 15374, Note_on_c, 0, 73, 81
1, 15374, Note_off_c, 0, 65, 54
1, 15424, Note_off_c, 0, 73, 63
1, 15461, Note_on_c, 0, 65, 57
1, 15534, Note_on_c, 0, 61, 59
1, 15536, Note_off_c, 0, 65, 59
1, 15587, Note_on_c, 0, 56, 66
1, 15606, Note_off_c, 0, 61, 60
1, 15615, Note_off_c, 0, 56, 62
1, 15657, Note_on_c, 0, 53, 43
1, 15682, Note_off_c, 0, 53, 56
1, 15711, Note_on_c, 0, 49, 54
1, 15746, Note_off_c, 0, 49, 63
1, 15753, Note_on_c, 0, 44, 62
1, 15845, Note_off_c, 0, 44, 53
1, 15852, Note_on_c, 0, 37, 69
1, 15894, Note_on_c, 0, 75, 81
1, 15917, Control_c, 0, 64, 86
1, 15933, Control_c, 0, 64, 68
1, 15948, Control_c, 0, 64, 54
1, 15962, Control_c, 0, 64, 53
1, 15977, Control_c, 0, 64, 64
1, 15992, Control_c, 0, 64, 76
1, 15995, Note_off_c, 0, 37, 58
1, 15998, Poly_aftertouch_c, 0, 74, 127
1, 16007, Control_c, 0, 64, 109
1, 16021, Poly_aftertouch_c, 0, 74, 0
1, 16022, Control_c, 0, 64, 127
1, 16026, Note_on_c, 0, 46, 65
1, 16042, Note_off_c, 0, 75, 63
1, 16101, Note_on_c, 0, 49, 62
1, 16106, Note_off_c, 0, 46, 60
1, 16144, Note_off_c, 0, 49, 62
1, 16157, Note_on_c, 0, 54, 54
1, 16182, Note_off_c, 0, 54, 58
1, 16217, Note_on_c, 0, 58, 59
1, 16284, Note_on_c, 0, 61, 59
1, 16296, Note_off_c, 0, 58, 60
1, 16335, Note_on_c, 0, 66, 64
1, 16344, Note_off_c, 0, 61, 54
1, 16419, Note_off_c, 0, 66, 51
1, 16430, Note_on_c, 0, 77, 82
1, 16474, Note_off_c, 0, 77, 64
1, 16566, Note_on_c, 0, 66, 53
1, 16617, Note_on_c, 0, 61, 55
1, 16617, Note_off_c, 0, 66, 58
1, 16664, Note_on_c, 0, 58, 61
1, 16665, Note_off_c, 0, 61, 48
1, 16694, Note_off_c, 0, 58, 64
1, 16724, Note_on_c, 0, 54, 55
1, 16757, Note_off_c, 0, 54, 61
1, 16794, Note_on_c, 0, 49, 49
1, 16829, Note_off_c, 0, 49, 62
1, 16838, Note_on_c, 0, 46, 60
1, 16877, Note_off_c, 0, 46, 62
1, 16950, Note_on_c, 0, 37, 40
1, 16970, Note_on_c, 0, 75, 68
1, 16977, Control_c, 0, 64, 116
1, 16992, Control_c, 0, 64, 88
1, 17007, Control_c, 0, 64, 71
1, 17022, Note_off_c, 0, 37, 53
1, 17022, Control_c, 0, 64, 61
1, 17037, Control_c, 0, 64, 45
1, 17052, Control_c, 0, 64, 46
1, 17067, Control_c, 0, 64, 60
1, 17079, Note_on_c, 0, 46, 37
1, 17082, Control_c, 0, 64, 72
1, 17097, Control_c, 0, 64, 117
1, 17111, Control_c, 0, 64, 127
1, 17117, Note_off_c, 0, 75, 62
1, 17138, Note_off_c, 0, 46, 48
1, 17142, Note_on_c, 0, 49, 53
1, 17179, Note_off_c, 0, 49, 62
1, 17204, Note_on_c, 0, 54, 55
1, 17228, Note_off_c, 0, 54, 59
1, 17300, Note_on_c, 0, 58, 41
1, 17365, Note_off_c, 0, 58, 56
1, 17375, Note_on_c, 0, 61, 49
1, 17423, Note_off_c, 0, 61, 59
1, 17445, Note_on_c, 0, 66, 43
1, 17484, Note_off_c, 0, 66, 53
1, 17551, Note_on_c, 0, 70, 68
1, 17596, Note_off_c, 0, 70, 59
1, 17660, Note_on_c, 0, 66, 43
1, 17714, Note_off_c, 0, 66, 58
1, 17741, Note_on_c, 0, 61, 47
1, 17785, Note_off_c, 0, 61, 60
1, 17805, Note_on_c, 0, 58, 50
1, 17835, Note_off_c, 0, 58, 63
1, 17918, Note_on_c, 0, 54, 35
1, 17969, Note_off_c, 0, 54, 56
1, 18002, Note_on_c, 0, 49, 43
1, 18085, Note_off_c, 0, 49, 51
1, 18122, Note_on_c, 0, 46, 50
1, 18159, Note_off_c, 0, 46, 64
1, 18405, Note_on_c, 0, 37, 37
1, 18480, Note_on_c, 0, 73, 55
1, 18534, Control_c, 0, 64, 92
1, 18549, Control_c, 0, 64, 75
1, 18563, Control_c, 0, 64, 61
1, 18578, Control_c, 0, 64, 0
1, 18638, Control_c, 0, 64, 58
1, 18653, Control_c, 0, 64, 69
1, 18668, Control_c, 0, 64, 82
1, 18682, Control_c, 0, 64, 127
1, 18720, Note_off_c, 0, 73, 61
1, 18739, Note_off_c, 0, 37, 36
1, 18765, Note_on_c, 0, 44, 41
1, 18877, Note_on_c, 0, 49, 47
1, 18884, Note_off_c, 0, 44, 56
1, 18972, Note_on_c, 0, 53, 45
1, 19043, Note_on_c, 0, 56, 47
1, 19049, Note_off_c, 0, 53, 59
1, 19072, Note_off_c, 0, 49, 0
1, 19106, Note_on_c, 0, 61, 50
1, 19106, Note_off_c, 0, 56, 52
1, 19109, Poly_aftertouch_c, 0, 49, 127
1, 19143, Note_off_c, 0, 61, 63
1, 19169, Note_on_c, 0, 65, 53
1, 19246, Note_off_c, 0, 65, 59
1, 19252, Note_on_c, 0, 68, 56
1, 19278, Poly_aftertouch_c, 0, 49, 0
1, 19294, Poly_aftertouch_c, 0, 61, 127
1, 19320, Note_off_c, 0, 68, 59
1, 19325, Note_on_c, 0, 65, 49
1, 19340, Poly_aftertouch_c, 0, 61, 0
1, 19400, Note_on_c, 0, 61, 49
1, 19402, Note_off_c, 0, 65, 59
1, 19440, Note_off_c, 0, 61, 63
1, 19449, Note_on_c, 0, 56, 64
1, 19531, Note_off_c, 0, 56, 56
1, 19532, Note_on_c, 0, 53, 42
1, 19568, Note_off_c, 0, 53, 54
1, 19595, Note_on_c, 0, 49, 59
1, 19628, Note_off_c, 0, 49, 63
1, 19654, Note_on_c, 0, 44, 65
1, 19700, Poly_aftertouch_c, 0, 68, 127
1, 19702, Poly_aftertouch_c, 0, 61, 127
1, 19707, Note_off_c, 0, 44, 59
1, 19745, Note_on_c, 0, 37, 58
1, 19810, Note_off_c, 0, 37, 52
1, 19827, Note_on_c, 0, 44, 63
1, 19869, Poly_aftertouch_c, 0, 61, 0
1, 19875, Poly_aftertouch_c, 0, 68, 0
1, 19899, Note_off_c, 0, 44, 45
1, 19909, Note_on_c, 0, 49, 61
1, 19963, Note_on_c, 0, 53, 62
1, 19999, Note_off_c, 0, 53, 63
1, 20005, Note_on_c, 0, 56, 61
1, 20068, Note_on_c, 0, 61, 65
1, 20076, Note_off_c, 0, 56, 58
1, 20104, Note_off_c, 0, 61, 57
1, 20128, Note_on_c, 0, 65, 64
1, 20202, Note_on_c, 0, 68, 69
1, 20206, Note_off_c, 0, 65, 59
1, 20222, Note_off_c, 0, 49, 46
1, 20265, Note_on_c, 0, 65, 62
1, 20306, Note_off_c, 0, 68, 56
1, 20340, Note_on_c, 0, 61, 63
1, 20381, Note_off_c, 0, 65, 55
1, 20405, Note_on_c, 0, 56, 69
1, 20443, Note_on_c, 0, 53, 63
1, 20471, Note_off_c, 0, 61, 0
1, 20484, Note_off_c, 0, 56, 58
1, 20492, Note_off_c, 0, 53, 55
1, 20508, Poly_aftertouch_c, 0, 61, 127
1, 20535, Note_on_c, 0, 49, 65
1, 20622, Note_off_c, 0, 49, 60
1, 20629, Note_on_c, 0, 44, 71
1, 20661, Note_off_c, 0, 44, 64
1, 20912, Note_on_c, 0, 36, 78
1, 20930, Control_c, 0, 64, 82
1, 20945, Control_c, 0, 64, 62
1, 20960, Control_c, 0, 64, 0
1, 21056, Control_c, 0, 64, 62
1, 21071, Control_c, 0, 64, 75
1, 21085, Control_c, 0, 64, 127
1, 21138, Note_off_c, 0, 36, 63
1, 21158, Note_on_c, 0, 45, 58
1, 21169, Poly_aftertouch_c, 0, 61, 0
1, 21193, Note_off_c, 0, 45, 62
1, 21248, Note_on_c, 0, 51, 59
1, 21304, Note_off_c, 0, 51, 56
1, 21311, Note_on_c, 0, 53, 66
1, 21333, Note_off_c, 0, 53, 63
1, 21391, Note_on_c, 0, 57, 63
1, 21464, Note_on_c, 0, 63, 70
1, 21534, Note_on_c, 0, 65, 72
1, 21572, Note_off_c, 0, 57, 35
1, 21614, Note_on_c, 0, 69, 79
1, 21701, Poly_aftertouch_c, 0, 66, 127
1, 21795, Note_on_c, 0, 78, 88
1, 21806, Note_off_c, 0, 63, 38
1, 21815, Poly_aftertouch_c, 0, 66, 0
1, 21815, Note_off_c, 0, 69, 54
1, 21927, Note_off_c, 0, 78, 65
1, 21933, Note_on_c, 0, 69, 67
1, 21947, Note_off_c, 0, 65, 23
1, 22018, Note_on_c, 0, 65, 69
1, 22035, Note_off_c, 0, 69, 60
1, 22079, Note_on_c, 0, 63, 74
1, 22083, Poly_aftertouch_c, 0, 67, 127
1, 22143, Note_on_c, 0, 57, 78
1, 22156, Poly_aftertouch_c, 0, 67, 0
1, 22167, Note_off_c, 0, 57, 66
1, 22190, Note_off_c, 0, 63, 61
1, 22198, Note_off_c, 0, 65, 52
1, 22204, Note_on_c, 0, 53, 66
1, 22238, Note_off_c, 0, 53, 60
1, 22260, Note_on_c, 0, 51, 65
1, 22296, Note_off_c, 0, 51, 62
1, 22312, Note_on_c, 0, 45, 66
1, 22342, Note_off_c, 0, 45, 64
1, 22427, Note_on_c, 0, 33, 82
1, 22486, Control_c, 0, 64, 95
1, 22501, Control_c, 0, 64, 69
1, 22504, Note_on_c, 0, 77, 84
1, 22516, Control_c, 0, 64, 43
1, 22530, Control_c, 0, 64, 29
1, 22552, Control_c, 0, 64, 56
1, 22567, Control_c, 0, 64, 69
1, 22576, Note_off_c, 0, 33, 62
1, 22582, Control_c, 0, 64, 87
1, 22597, Control_c, 0, 64, 127
1, 22654, Note_off_c, 0, 77, 64
1, 22704, Note_on_c, 0, 48, 64
1, 22737, Note_off_c, 0, 48, 64
1, 22743, Note_on_c, 0, 51, 71
1, 22788, Note_off_c, 0, 51, 60
1, 22804, Note_on_c, 0, 53, 70
1, 22831, Note_off_c, 0, 53, 63
1, 22848, Note_on_c, 0, 60, 62
1, 22888, Note_on_c, 0, 63, 73
1, 22924, Note_on_c, 0, 65, 75
1, 22927, Note_off_c, 0, 60, 56
1, 22951, Note_off_c, 0, 63, 60
1, 23001, Note_off_c, 0, 65, 58
1, 23003, Note_on_c, 0, 72, 90
1, 23044, Note_off_c, 0, 72, 62
1, 23067, Note_on_c, 0, 65, 63
1, 23139, Note_on_c, 0, 63, 76
1, 23174, Note_off_c, 0, 65, 56
1, 23205, Note_on_c, 0, 60, 70
1, 23234, Note_off_c, 0, 60, 63
1, 23240, Note_off_c, 0, 63, 59
1, 23243, Note_on_c, 0, 53, 59
1, 23275, Note_off_c, 0, 53, 65
1, 23309, Note_on_c, 0, 51, 62
1, 23333, Note_on_c, 0, 45, 69
1, 23344, Note_off_c, 0, 51, 61
1, 23360, Note_off_c, 0, 45, 64
1, 23452, Note_on_c, 0, 34, 75
1, 23504, Note_on_c, 0, 33, 26
1, 23509, Control_c, 0, 64, 83
1, 23517, Note_on_c, 0, 75, 78
1, 23524, Control_c, 0, 64, 60
1, 23535, Note_off_c, 0, 33, 46
1, 23539, Control_c, 0, 64, 0
1, 23568, Control_c, 0, 64, 63
1, 23583, Control_c, 0, 64, 76
1, 23595, Note_off_c, 0, 34, 61
1, 23598, Control_c, 0, 64, 124
1, 23613, Control_c, 0, 64, 127
1, 23658, Note_off_c, 0, 75, 63
1, 23694, Note_on_c, 0, 49, 62
1, 23741, Note_on_c, 0, 53, 64
1, 23765, Note_off_c, 0, 49, 56
1, 23794, Note_off_c, 0, 53, 61
1, 23808, Note_on_c, 0, 58, 69
1, 23828, Note_off_c, 0, 58, 65
1, 23860, Note_on_c, 0, 61, 59
1, 23919, Note_off_c, 0, 61, 60
1, 23929, Note_on_c, 0, 65, 54
1, 23978, Note_on_c, 0, 70, 69
1, 24059, Note_off_c, 0, 70, 56
1, 24095, Note_on_c, 0, 73, 85
1, 24136, Note_off_c, 0, 73, 61
1, 24228, Note_on_c, 0, 70, 55
1, 24243, Note_off_c, 0, 65, 38
1, 24314, Note_off_c, 0, 70, 59
1, 24317, Note_on_c, 0, 65, 53
1, 24389, Note_on_c, 0, 61, 60
1, 24417, Note_off_c, 0, 61, 66
1, 24431, Note_off_c, 0, 65, 52
1, 24480, Note_on_c, 0, 58, 45
1, 24551, Note_off_c, 0, 58, 59
1, 24591, Note_on_c, 0, 53, 48
1, 24668, Note_off_c, 0, 53, 51
1, 24711, Note_on_c, 0, 49, 51
1, 24920, Note_on_c, 0, 42, 47
1, 25026, Note_on_c, 0, 80, 63
1, 25065, Control_c, 0, 64, 90
1, 25080, Control_c, 0, 64, 69
1, 25095, Control_c, 0, 64, 26
1, 25110, Control_c, 0, 64, 0
1, 25148, Note_off_c, 0, 49, 60
1, 25184, Control_c, 0, 64, 48
1, 25199, Control_c, 0, 64, 68
1, 25214, Control_c, 0, 64, 80
1, 25229, Control_c, 0, 64, 115
1, 25243, Control_c, 0, 64, 127
1, 25278, Note_off_c, 0, 80, 62
1, 25283, Note_on_c, 0, 49, 54
1, 25298, Note_off_c, 0, 42, 51
1, 25370, Note_off_c, 0, 49, 58
1, 25402, Note_on_c, 0, 51, 45
1, 25448, Note_off_c, 0, 51, 61
1, 25476, Note_on_c, 0, 58, 51
1, 25500, Note_off_c, 0, 58, 60
1, 25579, Note_on_c, 0, 61, 41
1, 25679, Note_on_c, 0, 63, 42
1, 25756, Note_on_c, 0, 70, 48
1, 25764, Note_off_c, 0, 63, 40
1, 25766, Note_off_c, 0, 61, 34
1, 25926, Note_on_c, 0, 78, 60
1, 25956, Note_off_c, 0, 78, 66
1, 25967, Note_off_c, 0, 70, 36
1, 26066, Control_c, 0, 67, 10
1, 26081, Control_c, 0, 67, 17
1, 26096, Control_c, 0, 67, 25
1, 26105, Note_on_c, 0, 70, 45
1, 26111, Control_c, 0, 67, 34
1, 26125, Control_c, 0, 67, 43
1, 26140, Control_c, 0, 67, 52
1, 26155, Control_c, 0, 67, 61
1, 26171, Control_c, 0, 67, 71
1, 26185, Control_c, 0, 67, 82
1, 26200, Control_c, 0, 67, 92
1, 26204, Note_off_c, 0, 70, 52
1, 26215, Control_c, 0, 67, 104
1, 26228, Note_on_c, 0, 63, 42
1, 26230, Control_c, 0, 67, 116
1, 26245, Control_c, 0, 67, 127
1, 26307, Note_off_c, 0, 63, 50
1, 26338, Note_on_c, 0, 61, 37
1, 26444, Note_off_c, 0, 61, 0
1, 26469, Note_on_c, 0, 58, 35
1, 26481, Poly_aftertouch_c, 0, 61, 127
1, 26634, Note_off_c, 0, 58, 33
1, 26642, Note_on_c, 0, 51, 31
1, 26880, Note_on_c, 0, 49, 29
1, 26929, Note_off_c, 0, 51, 24
1, 27120, Note_on_c, 0, 44, 29
1, 27179, Control_c, 0, 64, 115
1, 27194, Control_c, 0, 64, 99
1, 27209, Control_c, 0, 64, 88
1, 27224, Control_c, 0, 64, 75
1, 27239, Control_c, 0, 64, 62
1, 27253, Control_c, 0, 64, 0
1, 27259, Note_on_c, 0, 68, 46
1, 27357, Control_c, 0, 64, 50
1, 27371, Note_off_c, 0, 49, 51
1, 27372, Control_c, 0, 64, 67
1, 27387, Control_c, 0, 64, 77
1, 27402, Control_c, 0, 64, 94
1, 27407, Note_off_c, 0, 44, 61
1, 27417, Control_c, 0, 64, 127
1, 27429, Poly_aftertouch_c, 0, 61, 0
1, 27539, Note_on_c, 0, 53, 33
1, 27541, Note_off_c, 0, 68, 55
1, 27595, Note_off_c, 0, 53, 59
1, 27627, Note_on_c, 0, 56, 34
1, 27660, Note_off_c, 0, 56, 54
1, 27707, Note_on_c, 0, 61, 26
1, 27834, Note_on_c, 0, 65, 46
1, 27878, Note_off_c, 0, 61, 31
1, 27944, Note_off_c, 0, 65, 57
1, 27967, Note_on_c, 0, 67, 54
1, 28038, Note_off_c, 0, 67, 60
1, 28096, Note_on_c, 0, 65, 48
1, 28190, Note_on_c, 0, 61, 34
1, 28222, Note_off_c, 0, 61, 53
1, 28259, Note_off_c, 0, 65, 35
1, 28365, Poly_aftertouch_c, 0, 61, 127
1, 28381, Note_on_c, 0, 56, 45
1, 28403, Poly_aftertouch_c, 0, 61, 0
1, 28440, Note_off_c, 0, 56, 49
1, 28484, Note_on_c, 0, 53, 29
1, 28524, Note_off_c, 0, 53, 44
1, 28543, Note_on_c, 0, 68, 57
1, 28582, Note_off_c, 0, 68, 61
1, 28693, Note_on_c, 0, 68, 52
1, 28940, Note_on_c, 0, 44, 35
1, 28988, Control_c, 0, 64, 111
1, 29002, Control_c, 0, 64, 99
1, 29017, Control_c, 0, 64, 90
1, 29032, Control_c, 0, 64, 78
1, 29047, Control_c, 0, 64, 64
1, 29050, Note_on_c, 0, 77, 45
1, 29062, Control_c, 0, 64, 28
1, 29077, Control_c, 0, 64, 0
1, 29083, Note_off_c, 0, 68, 50
1, 29135, Control_c, 0, 64, 53
1, 29150, Control_c, 0, 64, 68
1, 29165, Control_c, 0, 64, 78
1, 29180, Control_c, 0, 64, 95
1, 29184, Note_off_c, 0, 44, 60
1, 29195, Control_c, 0, 64, 127
1, 29259, Note_off_c, 0, 77, 61
1, 29328, Note_on_c, 0, 54, 37
1, 29405, Note_off_c, 0, 54, 57
1, 29447, Note_on_c, 0, 56, 38
1, 29500, Note_off_c, 0, 56, 57
1, 29540, Note_on_c, 0, 60, 42
1, 29574, Note_off_c, 0, 60, 46
1, 29633, Note_on_c, 0, 60, 36
1, 29754, Note_on_c, 0, 66, 39
1, 29852, Note_off_c, 0, 60, 28
1, 29900, Note_on_c, 0, 68, 36
1, 29959, Note_off_c, 0, 68, 41
1, 30096, Note_on_c, 0, 77, 47
1, 30180, Note_off_c, 0, 77, 57
1, 30245, Note_on_c, 0, 68, 44
1, 30248, Note_off_c, 0, 66, 37
1, 30379, Note_on_c, 0, 66, 42
1, 30398, Note_off_c, 0, 68, 32
1, 30490, Note_on_c, 0, 60, 40
1, 30542, Note_off_c, 0, 60, 46
1, 30640, Note_on_c, 0, 60, 27
1, 30642, Note_off_c, 0, 66, 39
1, 30836, Note_on_c, 0, 56, 26
1, 30842, Note_off_c, 0, 60, 38
1, 31061, Note_on_c, 0, 54, 30
1, 31067, Note_off_c, 0, 56, 32
1, 31129, Note_off_c, 0, 54, 54
1, 31319, Note_on_c, 0, 75, 47
1, 31697, Note_on_c, 0, 37, 31
1, 31761, Control_c, 0, 64, 118
1, 31772, Note_on_c, 0, 73, 51
1, 31776, Control_c, 0, 64, 102
1, 31791, Control_c, 0, 64, 91
1, 31806, Control_c, 0, 64, 79
1, 31821, Control_c, 0, 64, 65
1, 31835, Control_c, 0, 64, 34
1, 31846, Note_off_c, 0, 75, 58
1, 31850, Control_c, 0, 64, 0
1, 31924, Control_c, 0, 64, 46
1, 31939, Control_c, 0, 64, 65
1, 31954, Control_c, 0, 64, 72
1, 31968, Control_c, 0, 64, 83
1, 31983, Control_c, 0, 64, 100
1, 31998, Control_c, 0, 64, 127
1, 32014, Note_off_c, 0, 73, 61
1, 32081, Note_off_c, 0, 37, 36
1, 32109, Note_on_c, 0, 44, 31
1, 32223, Note_on_c, 0, 49, 42
1, 32229, Note_off_c, 0, 44, 53
1, 32341, Note_on_c, 0, 53, 42
1, 32397, Note_off_c, 0, 53, 53
1, 32422, Note_on_c, 0, 56, 40
1, 32482, Note_off_c, 0, 56, 55
1, 32497, Note_on_c, 0, 61, 43
1, 32534, Note_off_c, 0, 61, 58
1, 32574, Note_on_c, 0, 65, 43
1, 32627, Note_off_c, 0, 65, 57
1, 32653, Note_on_c, 0, 68, 51
1, 32708, Poly_aftertouch_c, 0, 61, 127
1, 32716, Note_off_c, 0, 68, 57
1, 32742, Poly_aftertouch_c, 0, 61, 0
1, 32746, Note_off_c, 0, 49, 26
1, 32746, Note_on_c, 0, 65, 51
1, 32800, Note_off_c, 0, 65, 51
1, 32824, Note_on_c, 0, 61, 42
1, 32859, Note_off_c, 0, 61, 62
1, 32879, Note_on_c, 0, 56, 50
1, 32952, Note_on_c, 0, 53, 45
1, 32988, Note_off_c, 0, 53, 53
1, 33015, Note_off_c, 0, 56, 30
1, 33039, Note_on_c, 0, 49, 46
1, 33071, Note_off_c, 0, 49, 59
1, 33098, Note_on_c, 0, 44, 54
1, 33154, Note_off_c, 0, 44, 59
1, 33193, Note_on_c, 0, 37, 55
1, 33214, Control_c, 0, 67, 125
1, 33229, Control_c, 0, 67, 122
1, 33235, Poly_aftertouch_c, 0, 61, 127
1, 33243, Control_c, 0, 67, 119
1, 33250, Note_off_c, 0, 37, 56
1, 33252, Poly_aftertouch_c, 0, 68, 127
1, 33258, Control_c, 0, 67, 116
1, 33273, Control_c, 0, 67, 111
1, 33288, Control_c, 0, 67, 103
1, 33295, Poly_aftertouch_c, 0, 61, 0
1, 33302, Note_on_c, 0, 44, 43
1, 33303, Control_c, 0, 67, 92
1, 33317, Control_c, 0, 67, 79
1, 33332, Control_c, 0, 67, 68
1, 33333, Poly_aftertouch_c, 0, 68, 0
1, 33347, Control_c, 0, 67, 58
1, 33363, Control_c, 0, 67, 51
1, 33368, Note_off_c, 0, 44, 52
1, 33378, Control_c, 0, 67, 44
1, 33381, Note_on_c, 0, 49, 52
1, 33393, Control_c, 0, 67, 37
1, 33407, Control_c, 0, 67, 30
1, 33422, Control_c, 0, 67, 22
1, 33436, Note_on_c, 0, 53, 55
1, 33437, Control_c, 0, 67, 13
1, 33452, Control_c, 0, 67, 0
1, 33480, Note_off_c, 0, 53, 59
1, 33495, Note_on_c, 0, 56, 53
1, 33564, Note_on_c, 0, 61, 51
1, 33565, Note_off_c, 0, 56, 53
1, 33608, Note_off_c, 0, 61, 59
1, 33616, Note_off_c, 0, 49, 48
1, 33632, Note_on_c, 0, 65, 51
1, 33706, Note_on_c, 0, 68, 60
1, 33710, Note_off_c, 0, 65, 58
1, 33791, Note_on_c, 0, 65, 51
1, 33796, Note_off_c, 0, 68, 57
1, 33870, Note_on_c, 0, 61, 59
1, 33880, Note_off_c, 0, 65, 57
1, 33911, Note_off_c, 0, 61, 63
1, 33927, Note_on_c, 0, 56, 60
1, 33988, Note_off_c, 0, 56, 52
1, 34001, Note_on_c, 0, 53, 49
1, 34026, Note_off_c, 0, 53, 59
1, 34070, Note_on_c, 0, 49, 48
1, 34104, Note_off_c, 0, 49, 62
1, 34135, Note_on_c, 0, 44, 53
1, 34180, Poly_aftertouch_c, 0, 68, 127
1, 34195, Note_off_c, 0, 44, 58
1, 34230, Control_c, 0, 64, 108
1, 34232, Note_on_c, 0, 37, 53
1, 34245, Control_c, 0, 64, 91
1, 34260, Control_c, 0, 64, 83
1, 34275, Control_c, 0, 64, 80
1, 34276, Poly_aftertouch_c, 0, 61, 127
1, 34289, Control_c, 0, 64, 80
1, 34304, Control_c, 0, 64, 86
1, 34312, Note_off_c, 0, 37, 53
1, 34319, Control_c, 0, 64, 102
1, 34329, Poly_aftertouch_c, 0, 61, 0
1, 34334, Control_c, 0, 64, 127
1, 34335, Note_on_c, 0, 44, 44
1, 34355, Poly_aftertouch_c, 0, 68, 0
1, 34382, Note_off_c, 0, 44, 50
1, 34439, Note_on_c, 0, 49, 37
1, 34470, Note_off_c, 0, 49, 57
1, 34489, Note_on_c, 0, 53, 47
1, 34520, Note_off_c, 0, 53, 53
1, 34576, Note_on_c, 0, 56, 46
1, 34659, Note_off_c, 0, 56, 58
1, 34669, Note_on_c, 0, 61, 45
1, 34772, Note_on_c, 0, 65, 52
1, 34863, Note_off_c, 0, 61, 22
1, 34963, Note_on_c, 0, 68, 57
1, 35083, Note_off_c, 0, 65, 31
1, 35102, Note_off_c, 0, 68, 57
1, 35142, Note_on_c, 0, 80, 64
1, 35170, Note_off_c, 0, 80, 66
1, 35209, Note_on_c, 0, 65, 49
1, 35257, Note_off_c, 0, 65, 57
1, 35280, Note_on_c, 0, 61, 53
1, 35343, Note_on_c, 0, 56, 52
1, 35344, Note_off_c, 0, 61, 47
1, 35367, Note_off_c, 0, 56, 57
1, 35459, Poly_aftertouch_c, 0, 53, 127
1, 35460, Poly_aftertouch_c, 0, 44, 127
1, 35486, Note_on_c, 0, 49, 40
1, 35495, Poly_aftertouch_c, 0, 53, 0
1, 35512, Note_on_c, 0, 44, 26
1, 35516, Note_off_c, 0, 49, 52
1, 35578, Note_off_c, 0, 44, 60
1, 35611, Note_on_c, 0, 70, 62
1, 35623, Note_on_c, 0, 37, 52
1, 35638, Control_c, 0, 64, 108
1, 35653, Control_c, 0, 64, 88
1, 35668, Control_c, 0, 64, 77
1, 35683, Control_c, 0, 64, 69
1, 35712, Control_c, 0, 64, 75
1, 35719, Note_off_c, 0, 37, 54
1, 35727, Control_c, 0, 64, 89
1, 35741, Note_on_c, 0, 44, 53
1, 35742, Control_c, 0, 64, 127
1, 35757, Note_on_c, 0, 82, 72
1, 35778, Note_off_c, 0, 82, 69
1, 35780, Note_off_c, 0, 70, 60
1, 35787, Note_off_c, 0, 44, 59
1, 35826, Note_on_c, 0, 49, 53
1, 35862, Note_off_c, 0, 49, 62
1, 35880, Note_on_c, 0, 53, 50
1, 35906, Note_off_c, 0, 53, 56
1, 35966, Note_on_c, 0, 56, 55
1, 36005, Note_off_c, 0, 56, 61
1, 36023, Note_on_c, 0, 61, 64
1, 36081, Note_on_c, 0, 65, 65
1, 36105, Note_off_c, 0, 61, 58
1, 36168, Note_on_c, 0, 73, 68
1, 36225, Note_off_c, 0, 65, 55
1, 36255, Note_off_c, 0, 73, 59
1, 36283, Note_on_c, 0, 85, 76
1, 36302, Note_off_c, 0, 85, 71
1, 36341, Note_on_c, 0, 65, 56
1, 36394, Note_on_c, 0, 61, 58
1, 36399, Note_off_c, 0, 65, 54
1, 36445, Note_off_c, 0, 61, 52
1, 36452, Note_on_c, 0, 56, 62
1, 36478, Note_off_c, 0, 56, 62
1, 36538, Note_on_c, 0, 53, 55
1, 36562, Note_off_c, 0, 53, 60
1, 36592, Note_on_c, 0, 49, 54
1, 36625, Note_off_c, 0, 49, 63
1, 36639, Note_on_c, 0, 44, 50
1, 36696, Note_off_c, 0, 44, 60
1, 36723, Note_on_c, 0, 37, 65
1, 36729, Note_on_c, 0, 75, 71
1, 36757, Control_c, 0, 64, 98
1, 36780, Control_c, 0, 64, 77
1, 36795, Control_c, 0, 64, 64
1, 36809, Control_c, 0, 64, 56
1, 36818, Note_off_c, 0, 37, 57
1, 36824, Control_c, 0, 64, 61
1, 36839, Control_c, 0, 64, 70
1, 36854, Control_c, 0, 64, 88
1, 36861, Note_on_c, 0, 46, 60
1, 36869, Control_c, 0, 64, 127
1, 36877, Note_on_c, 0, 87, 77
1, 36897, Note_off_c, 0, 87, 68
1, 36907, Note_off_c, 0, 75, 60
1, 36935, Note_off_c, 0, 46, 59
1, 36941, Note_on_c, 0, 49, 55
1, 36985, Note_off_c, 0, 49, 61
1, 37000, Note_on_c, 0, 54, 60
1, 37022, Note_off_c, 0, 54, 60
1, 37080, Note_on_c, 0, 58, 61
1, 37142, Note_on_c, 0, 61, 65
1, 37145, Note_off_c, 0, 58, 61
1, 37191, Note_on_c, 0, 66, 66
1, 37215, Note_off_c, 0, 61, 54
1, 37264, Note_on_c, 0, 77, 67
1, 37318, Note_off_c, 0, 77, 65
1, 37339, Note_off_c, 0, 66, 58
1, 37388, Note_on_c, 0, 89, 77
1, 37409, Note_off_c, 0, 89, 71
1, 37454, Note_on_c, 0, 66, 55
1, 37498, Note_off_c, 0, 66, 53
1, 37508, Note_on_c, 0, 61, 51
1, 37559, Note_off_c, 0, 61, 59
1, 37570, Note_on_c, 0, 58, 63
1, 37599, Note_off_c, 0, 58, 64
1, 37660, Note_on_c, 0, 54, 57
1, 37695, Note_off_c, 0, 54, 62
1, 37723, Note_on_c, 0, 49, 43
1, 37751, Note_off_c, 0, 49, 60
1, 37766, Note_on_c, 0, 46, 65
1, 37799, Note_off_c, 0, 46, 64
1, 37858, Note_on_c, 0, 37, 51
1, 37859, Note_on_c, 0, 75, 60
1, 37869, Control_c, 0, 64, 91
1, 37884, Control_c, 0, 64, 74
1, 37898, Control_c, 0, 64, 62
1, 37911, Note_off_c, 0, 37, 58
1, 37913, Control_c, 0, 64, 39
1, 37928, Control_c, 0, 64, 40
1, 37943, Control_c, 0, 64, 61
1, 37957, Control_c, 0, 64, 72
1, 37972, Control_c, 0, 64, 95
1, 37975, Note_on_c, 0, 46, 33
1, 37977, Note_on_c, 0, 87, 64
1, 37987, Control_c, 0, 64, 127
1, 38000, Note_off_c, 0, 75, 59
1, 38002, Note_off_c, 0, 87, 67
1, 38038, Note_off_c, 0, 46, 61
1, 38052, Note_on_c, 0, 49, 44
1, 38085, Note_off_c, 0, 49, 61
1, 38093, Note_on_c, 0, 54, 57
1, 38116, Note_off_c, 0, 54, 59
1, 38197, Note_on_c, 0, 58, 44
1, 38244, Note_off_c, 0, 58, 60
1, 38258, Note_on_c, 0, 61, 57
1, 38321, Note_off_c, 0, 61, 55
1, 38324, Note_on_c, 0, 66, 51
1, 38386, Note_on_c, 0, 70, 56
1, 38460, Note_off_c, 0, 66, 56
1, 38481, Note_off_c, 0, 70, 58
1, 38516, Note_on_c, 0, 82, 57
1, 38534, Note_off_c, 0, 82, 61
1, 38595, Note_on_c, 0, 66, 46
1, 38626, Note_off_c, 0, 66, 59
1, 38652, Note_on_c, 0, 61, 37
1, 38685, Note_off_c, 0, 61, 54
1, 38699, Note_on_c, 0, 58, 51
1, 38724, Note_off_c, 0, 58, 61
1, 38794, Note_on_c, 0, 54, 43
1, 38823, Note_off_c, 0, 54, 55
1, 38860, Note_on_c, 0, 49, 51
1, 38922, Note_off_c, 0, 49, 53
1, 38958, Note_on_c, 0, 46, 48
1, 38994, Note_off_c, 0, 46, 62
1, 39188, Note_on_c, 0, 37, 31
1, 39224, Note_on_c, 0, 73, 49
1, 39248, Control_c, 0, 64, 97
1, 39263, Control_c, 0, 64, 84
1, 39277, Control_c, 0, 64, 73
1, 39292, Control_c, 0, 64, 63
1, 39307, Control_c, 0, 64, 47
1, 39322, Control_c, 0, 64, 22
1, 39337, Control_c, 0, 64, 14
1, 39351, Control_c, 0, 64, 37
1, 39366, Control_c, 0, 64, 60
1, 39381, Control_c, 0, 64, 71
1, 39395, Control_c, 0, 64, 87
1, 39410, Control_c, 0, 64, 127
1, 39458, Note_on_c, 0, 85, 50
1, 39470, Note_off_c, 0, 73, 59
1, 39493, Note_off_c, 0, 85, 66
1, 39552, Note_off_c, 0, 37, 39
1, 39581, Note_on_c, 0, 44, 38
1, 39665, Note_off_c, 0, 44, 58
1, 39674, Note_on_c, 0, 49, 45
1, 39758, Note_off_c, 0, 49, 48
1, 39758, Note_on_c, 0, 53, 50
1, 39808, Note_off_c, 0, 53, 63
1, 39856, Note_on_c, 0, 56, 45
1, 39920, Note_on_c, 0, 61, 49
1, 39924, Note_off_c, 0, 56, 52
1, 39962, Note_off_c, 0, 61, 61
1, 39963, Poly_aftertouch_c, 0, 49, 0
1, 39990, Note_on_c, 0, 65, 48
1, 40049, Note_off_c, 0, 65, 55
1, 40062, Note_on_c, 0, 68, 57
1, 40136, Note_off_c, 0, 68, 58
1, 40147, Note_on_c, 0, 65, 53
1, 40224, Note_on_c, 0, 61, 58
1, 40229, Note_off_c, 0, 65, 56
1, 40258, Note_off_c, 0, 61, 65
1, 40279, Note_on_c, 0, 56, 58
1, 40340, Note_on_c, 0, 53, 56
1, 40345, Note_off_c, 0, 56, 51
1, 40372, Note_off_c, 0, 53, 63
1, 40412, Note_on_c, 0, 49, 57
1, 40446, Note_off_c, 0, 49, 63
1, 40475, Note_on_c, 0, 44, 58
1, 40530, Note_off_c, 0, 44, 60
1, 40570, Note_on_c, 0, 37, 60
1, 40625, Poly_aftertouch_c, 0, 61, 127
1, 40630, Note_off_c, 0, 37, 55
1, 40667, Note_on_c, 0, 44, 49
1, 40676, Poly_aftertouch_c, 0, 61, 0
1, 40730, Note_off_c, 0, 44, 52
1, 40748, Note_on_c, 0, 49, 52
1, 40795, Note_on_c, 0, 53, 62
1, 40832, Note_off_c, 0, 53, 62
1, 40861, Note_on_c, 0, 56, 55
1, 40920, Note_on_c, 0, 61, 60
1, 40932, Note_off_c, 0, 56, 58
1, 40962, Note_off_c, 0, 61, 58
1, 40980, Note_on_c, 0, 65, 63
1, 41054, Note_on_c, 0, 68, 66
1, 41057, Note_off_c, 0, 65, 59
1, 41063, Note_off_c, 0, 49, 38
1, 41131, Note_on_c, 0, 65, 63
1, 41150, Note_off_c, 0, 68, 55
1, 41206, Note_on_c, 0, 61, 63
1, 41229, Note_off_c, 0, 65, 55
1, 41252, Note_off_c, 0, 61, 58
1, 41258, Note_on_c, 0, 56, 68
1, 41352, Note_off_c, 0, 56, 57
1, 41358, Note_on_c, 0, 53, 46
1, 41384, Note_off_c, 0, 53, 59
1, 41415, Note_on_c, 0, 49, 55
1, 41452, Note_off_c, 0, 49, 63
1, 41475, Note_on_c, 0, 44, 59
1, 41537, Note_off_c, 0, 44, 55
1, 41546, Poly_aftertouch_c, 0, 61, 127
1, 41554, Control_c, 0, 64, 115
1, 41564, Note_on_c, 0, 37, 60
1, 41569, Control_c, 0, 64, 90
1, 41584, Control_c, 0, 64, 77
1, 41598, Control_c, 0, 64, 68
1, 41613, Control_c, 0, 64, 65
1, 41625, Poly_aftertouch_c, 0, 68, 127
1, 41628, Control_c, 0, 64, 67
1, 41631, Note_off_c, 0, 37, 56
1, 41643, Control_c, 0, 64, 76
1, 41658, Control_c, 0, 64, 92
1, 41659, Note_on_c, 0, 44, 53
1, 41672, Control_c, 0, 64, 127
1, 41688, Poly_aftertouch_c, 0, 68, 0
1, 41695, Poly_aftertouch_c, 0, 61, 0
1, 41705, Note_off_c, 0, 44, 55
1, 41741, Note_on_c, 0, 49, 51
1, 41782, Note_off_c, 0, 49, 62
1, 41804, Note_on_c, 0, 53, 50
1, 41834, Note_off_c, 0, 53, 54
1, 41884, Note_on_c, 0, 56, 51
1, 41950, Note_on_c, 0, 61, 54
1, 41967, Note_off_c, 0, 56, 55
1, 42009, Note_off_c, 0, 61, 53
1, 42035, Note_on_c, 0, 65, 58
1, 42191, Note_on_c, 0, 68, 69
1, 42343, Note_off_c, 0, 68, 58
1, 42345, Note_off_c, 0, 65, 29
1, 42390, Note_on_c, 0, 80, 69
1, 42412, Note_off_c, 0, 80, 68
1, 42465, Note_on_c, 0, 65, 48
1, 42512, Note_off_c, 0, 65, 57
1, 42518, Note_on_c, 0, 61, 53
1, 42570, Note_on_c, 0, 56, 57
1, 42574, Note_off_c, 0, 61, 56
1, 42592, Note_off_c, 0, 56, 59
1, 42654, Note_on_c, 0, 53, 57
1, 42678, Poly_aftertouch_c, 0, 44, 127
1, 42679, Note_off_c, 0, 53, 62
1, 42701, Note_on_c, 0, 49, 55
1, 42732, Poly_aftertouch_c, 0, 44, 0
1, 42735, Note_off_c, 0, 49, 63
1, 42742, Note_on_c, 0, 44, 47
1, 42801, Note_off_c, 0, 44, 61
1, 42829, Note_on_c, 0, 37, 65
1, 42831, Note_on_c, 0, 70, 74
1, 42902, Control_c, 0, 64, 91
1, 42917, Control_c, 0, 64, 83
1, 42932, Note_off_c, 0, 37, 58
1, 42932, Control_c, 0, 64, 84
1, 42947, Control_c, 0, 64, 92
1, 42953, Note_on_c, 0, 44, 55
1, 42962, Control_c, 0, 64, 127
1, 42983, Note_on_c, 0, 82, 78
1, 43007, Note_off_c, 0, 82, 67
1, 43025, Note_off_c, 0, 44, 46
1, 43025, Note_off_c, 0, 70, 60
1, 43040, Note_on_c, 0, 49, 59
1, 43094, Note_off_c, 0, 49, 60
1, 43103, Note_on_c, 0, 53, 63
1, 43127, Note_off_c, 0, 53, 60
1, 43185, Note_on_c, 0, 56, 60
1, 43224, Note_off_c, 0, 56, 61
1, 43236, Note_on_c, 0, 61, 70
1, 43284, Note_on_c, 0, 65, 70
1, 43308, Note_off_c, 0, 61, 59
1, 43374, Note_on_c, 0, 73, 78
1, 43432, Note_off_c, 0, 65, 53
1, 43472, Note_off_c, 0, 73, 60
1, 43495, Note_on_c, 0, 85, 87
1, 43522, Note_off_c, 0, 85, 69
1, 43554, Note_on_c, 0, 65, 65
1, 43608, Note_on_c, 0, 61, 60
1, 43665, Note_on_c, 0, 56, 75
1, 43669, Note_off_c, 0, 61, 55
1, 43688, Note_off_c, 0, 56, 64
1, 43748, Note_on_c, 0, 53, 60
1, 43764, Note_off_c, 0, 65, 19
1, 43779, Note_off_c, 0, 53, 66
1, 43801, Note_on_c, 0, 49, 66
1, 43838, Note_off_c, 0, 49, 64
1, 43853, Note_on_c, 0, 44, 65
1, 43922, Note_off_c, 0, 44, 58
1, 43931, Note_on_c, 0, 37, 74
1, 43946, Note_on_c, 0, 75, 77
1, 43979, Control_c, 0, 64, 99
1, 43993, Control_c, 0, 64, 73
1, 44008, Control_c, 0, 64, 61
1, 44023, Control_c, 0, 64, 62
1, 44038, Control_c, 0, 64, 67
1, 44053, Control_c, 0, 64, 78
1, 44053, Note_off_c, 0, 37, 60
1, 44067, Control_c, 0, 64, 109
1, 44078, Note_on_c, 0, 46, 67
1, 44082, Control_c, 0, 64, 127
1, 44095, Note_on_c, 0, 87, 82
1, 44112, Note_off_c, 0, 87, 71
1, 44114, Note_off_c, 0, 75, 62
1, 44166, Note_on_c, 0, 49, 61
1, 44168, Note_off_c, 0, 46, 59
1, 44216, Note_on_c, 0, 54, 77
1, 44227, Note_off_c, 0, 49, 51
1, 44235, Note_off_c, 0, 54, 66
1, 44298, Note_on_c, 0, 58, 66
1, 44358, Note_on_c, 0, 61, 70
1, 44369, Note_off_c, 0, 58, 61
1, 44371, Poly_aftertouch_c, 0, 66, 0
1, 44393, Note_on_c, 0, 66, 32
1, 44437, Note_off_c, 0, 61, 57
1, 44461, Note_on_c, 0, 77, 66
1, 44534, Note_off_c, 0, 77, 65
1, 44567, Note_off_c, 0, 66, 56
1, 44595, Note_on_c, 0, 89, 87
1, 44613, Note_off_c, 0, 89, 71
1, 44663, Note_on_c, 0, 66, 57
1, 44732, Note_on_c, 0, 61, 58
1, 44733, Note_off_c, 0, 66, 58
1, 44769, Note_off_c, 0, 61, 62
1, 44775, Note_on_c, 0, 58, 73
1, 44799, Note_off_c, 0, 58, 66
1, 44852, Note_on_c, 0, 54, 58
1, 44883, Note_off_c, 0, 54, 64
1, 44912, Note_on_c, 0, 49, 58
1, 44952, Note_off_c, 0, 49, 62
1, 44961, Note_on_c, 0, 46, 69
1, 45004, Note_off_c, 0, 46, 62
1, 45066, Note_on_c, 0, 37, 57
1, 45090, Control_c, 0, 64, 82
1, 45095, Note_on_c, 0, 75, 66
1, 45105, Control_c, 0, 64, 64
1, 45120, Control_c, 0, 64, 45
1, 45135, Control_c, 0, 64, 52
1, 45149, Control_c, 0, 64, 65
1, 45164, Control_c, 0, 64, 81
1, 45167, Note_off_c, 0, 37, 56
1, 45179, Control_c, 0, 64, 127
1, 45213, Note_on_c, 0, 46, 53
1, 45223, Note_on_c, 0, 87, 66
1, 45249, Note_off_c, 0, 75, 60
1, 45250, Note_off_c, 0, 87, 64
1, 45269, Note_off_c, 0, 46, 57
1, 45276, Note_on_c, 0, 49, 56
1, 45314, Note_off_c, 0, 49, 60
1, 45327, Note_on_c, 0, 54, 61
1, 45351, Note_off_c, 0, 54, 61
1, 45427, Note_on_c, 0, 58, 46
1, 45457, Note_off_c, 0, 58, 52
1, 45535, Note_on_c, 0, 66, 49
1, 45539, Note_on_c, 0, 62, 10
1, 45585, Note_off_c, 0, 62, 50
1, 45606, Note_on_c, 0, 70, 63
1, 45698, Note_off_c, 0, 70, 59
1, 45700, Note_off_c, 0, 66, 54
1, 45728, Note_on_c, 0, 82, 64
1, 45746, Note_off_c, 0, 82, 64
1, 45823, Note_on_c, 0, 66, 55
1, 45883, Note_off_c, 0, 66, 55
1, 45885, Note_on_c, 0, 61, 48
1, 45928, Note_on_c, 0, 58, 60
1, 45957, Note_off_c, 0, 58, 63
1, 45976, Note_off_c, 0, 61, 56
1, 45992, Note_on_c, 0, 54, 51
1, 46026, Note_off_c, 0, 54, 60
1, 46069, Note_on_c, 0, 49, 57
1, 46147, Note_off_c, 0, 49, 55
1, 46167, Note_on_c, 0, 46, 57
1, 46202, Note_off_c, 0, 46, 64
1, 46356, Note_on_c, 0, 37, 45
1, 46432, Control_c, 0, 64, 89
1, 46437, Note_on_c, 0, 73, 47
1, 46447, Control_c, 0, 64, 70
1, 46462, Control_c, 0, 64, 53
1, 46477, Control_c, 0, 64, 0
1, 46528, Control_c, 0, 64, 47
1, 46543, Control_c, 0, 64, 68
1, 46558, Control_c, 0, 64, 80
1, 46573, Control_c, 0, 64, 103
1, 46587, Control_c, 0, 64, 127
1, 46665, Note_on_c, 0, 85, 61
1, 46673, Note_off_c, 0, 37, 54
1, 46685, Note_off_c, 0, 73, 59
1, 46691, Note_off_c, 0, 85, 68
1, 46718, Note_on_c, 0, 44, 47
1, 46796, Note_off_c, 0, 44, 58
1, 46799, Note_on_c, 0, 49, 53
1, 46844, Note_off_c, 0, 49, 61
1, 46879, Note_on_c, 0, 53, 46
1, 46908, Note_off_c, 0, 53, 54
1, 46971, Note_on_c, 0, 56, 50
1, 47031, Note_on_c, 0, 61, 55
1, 47076, Note_off_c, 0, 61, 58
1, 47093, Note_on_c, 0, 65, 56
1, 47133, Note_off_c, 0, 56, 25
1, 47164, Note_on_c, 0, 68, 58
1, 47168, Note_off_c, 0, 65, 55
1, 47204, Note_off_c, 0, 68, 57
1, 47226, Note_on_c, 0, 73, 64
1, 47253, Note_off_c, 0, 73, 67
1, 47323, Note_on_c, 0, 68, 66
1, 47396, Note_on_c, 0, 65, 64
1, 47405, Note_off_c, 0, 68, 55
1, 47474, Note_on_c, 0, 61, 63
1, 47481, Note_off_c, 0, 65, 58
1, 47514, Note_off_c, 0, 61, 56
1, 47520, Note_on_c, 0, 56, 65
1, 47568, Note_on_c, 0, 53, 48
1, 47573, Poly_aftertouch_c, 0, 44, 127
1, 47594, Note_off_c, 0, 56, 59
1, 47601, Note_off_c, 0, 53, 54
1, 47612, Poly_aftertouch_c, 0, 44, 0
1, 47632, Note_on_c, 0, 49, 62
1, 47661, Note_on_c, 0, 61, 23
1, 47663, Note_off_c, 0, 49, 64
1, 47684, Note_on_c, 0, 44, 63
1, 47738, Note_on_c, 0, 68, 8
1, 47743, Note_off_c, 0, 44, 57
1, 47761, Note_on_c, 0, 37, 66
1, 47836, Note_off_c, 0, 37, 58
1, 47846, Note_on_c, 0, 44, 71
1, 47881, Note_off_c, 0, 61, 40
1, 47886, Note_off_c, 0, 68, 41
1, 47919, Note_on_c, 0, 49, 69
1, 47975, Note_on_c, 0, 52, 74
1, 48027, Note_off_c, 0, 52, 52
1, 48046, Note_on_c, 0, 56, 67
1, 48107, Note_off_c, 0, 44, 39
1, 48108, Note_on_c, 0, 61, 71
1, 48123, Note_off_c, 0, 56, 59
1, 48165, Note_on_c, 0, 64, 71
1, 48172, Note_off_c, 0, 61, 61
1, 48185, Note_off_c, 0, 49, 58
1, 48234, Note_on_c, 0, 68, 75
1, 48241, Note_off_c, 0, 64, 63
1, 48304, Note_on_c, 0, 64, 72
1, 48367, Note_on_c, 0, 61, 73
1, 48377, Note_off_c, 0, 68, 58
1, 48420, Note_on_c, 0, 56, 73
1, 48477, Note_on_c, 0, 52, 72
1, 48492, Note_off_c, 0, 64, 37
1, 48495, Note_on_c, 0, 66, 19
1, 48510, Note_off_c, 0, 56, 59
1, 48534, Note_off_c, 0, 61, 0
1, 48534, Note_on_c, 0, 61, 3
1, 48544, Note_off_c, 0, 66, 46
1, 48558, Note_off_c, 0, 52, 58
1, 48562, Note_on_c, 0, 49, 76
1, 48662, Note_on_c, 0, 44, 83
1, 48675, Note_off_c, 0, 49, 60
1, 48688, Note_off_c, 0, 44, 69
1, 49018, Note_on_c, 0, 35, 83
1, 49041, Control_c, 0, 64, 94
1, 49056, Control_c, 0, 64, 67
1, 49071, Control_c, 0, 64, 0
1, 49159, Control_c, 0, 64, 29
1, 49174, Control_c, 0, 64, 65
1, 49189, Control_c, 0, 64, 75
1, 49204, Control_c, 0, 64, 104
1, 49219, Control_c, 0, 64, 127
1, 49237, Note_off_c, 0, 35, 63
1, 49276, Note_on_c, 0, 44, 53
1, 49284, Note_off_c, 0, 61, 47
1, 49303, Note_off_c, 0, 44, 59
1, 49367, Note_on_c, 0, 50, 68
1, 49425, Note_off_c, 0, 50, 62
1, 49430, Note_on_c, 0, 52, 77
1, 49460, Note_off_c, 0, 52, 65
1, 49532, Note_on_c, 0, 56, 69
1, 49593, Note_off_c, 0, 56, 61
1, 49605, Note_on_c, 0, 62, 68
1, 49669, Note_on_c, 0, 64, 74
1, 49741, Note_on_c, 0, 68, 77
1, 49783, Poly_aftertouch_c, 0, 66, 127
1, 49800, Note_off_c, 0, 64, 57
1, 49824, Poly_aftertouch_c, 0, 67, 127
1, 49840, Note_on_c, 0, 78, 85
1, 49951, Poly_aftertouch_c, 0, 67, 0
1, 50072, Note_off_c, 0, 78, 61
1, 50096, Note_off_c, 0, 68, 54
1, 50107, Note_on_c, 0, 90, 96
1, 50138, Note_off_c, 0, 90, 69
1, 50164, Note_on_c, 0, 68, 63
1, 50188, Note_off_c, 0, 62, 38
1, 50241, Note_on_c, 0, 64, 72
1, 50302, Note_on_c, 0, 62, 67
1, 50341, Poly_aftertouch_c, 0, 66, 0
1, 50359, Note_on_c, 0, 66, 28
1, 50363, Note_off_c, 0, 68, 37
1, 50364, Note_on_c, 0, 56, 76
1, 50389, Note_off_c, 0, 56, 64
1, 50408, Note_off_c, 0, 62, 60
1, 50426, Note_on_c, 0, 52, 67
1, 50432, Note_off_c, 0, 64, 60
1, 50459, Note_off_c, 0, 52, 59
1, 50474, Note_on_c, 0, 50, 67
1, 50474, Note_off_c, 0, 66, 36
1, 50516, Note_off_c, 0, 50, 59
1, 50525, Note_on_c, 0, 44, 74
1, 50554, Note_off_c, 0, 44, 64
1, 50650, Note_on_c, 0, 32, 66
1, 50653, Note_on_c, 0, 30, 74
1, 50688, Control_c, 0, 64, 68
1, 50703, Control_c, 0, 64, 0
1, 50709, Note_on_c, 0, 76, 87
1, 50792, Control_c, 0, 64, 65
1, 50798, Note_off_c, 0, 30, 60
1, 50806, Control_c, 0, 64, 90
1, 50821, Control_c, 0, 64, 127
1, 50831, Note_off_c, 0, 32, 58
1, 50908, Note_on_c, 0, 88, 89
1, 50918, Note_off_c, 0, 76, 63
1, 50947, Note_off_c, 0, 88, 70
1, 50959, Note_on_c, 0, 47, 44
1, 51007, Note_on_c, 0, 48, 22
1, 51025, Note_on_c, 0, 50, 67
1, 51030, Note_off_c, 0, 47, 61
1, 51053, Note_off_c, 0, 48, 48
1, 51073, Note_off_c, 0, 50, 61
1, 51074, Note_on_c, 0, 52, 71
1, 51096, Note_off_c, 0, 52, 66
1, 51166, Note_on_c, 0, 59, 75
1, 51196, Note_on_c, 0, 68, 37
1, 51219, Note_on_c, 0, 62, 72
1, 51228, Note_off_c, 0, 68, 52
1, 51250, Note_off_c, 0, 59, 60
1, 51253, Note_on_c, 0, 64, 72
1, 51272, Note_on_c, 0, 73, 18
1, 51311, Note_off_c, 0, 73, 43
1, 51312, Note_on_c, 0, 71, 84
1, 51362, Note_off_c, 0, 64, 61
1, 51398, Note_off_c, 0, 71, 58
1, 51415, Note_on_c, 0, 83, 93
1, 51422, Note_off_c, 0, 62, 35
1, 51429, Note_off_c, 0, 83, 72
1, 51440, Note_on_c, 0, 73, 10
1, 51461, Note_on_c, 0, 64, 67
1, 51487, Note_off_c, 0, 73, 42
1, 51514, Note_on_c, 0, 62, 71
1, 51561, Note_on_c, 0, 59, 82
1, 51584, Note_off_c, 0, 64, 0
1, 51586, Note_off_c, 0, 59, 66
1, 51601, Note_off_c, 0, 62, 57
1, 51622, Poly_aftertouch_c, 0, 64, 127
1, 51635, Note_on_c, 0, 52, 70
1, 51667, Poly_aftertouch_c, 0, 64, 0
1, 51696, Note_off_c, 0, 52, 61
1, 51696, Note_on_c, 0, 50, 67
1, 51746, Note_off_c, 0, 50, 58
1, 51757, Note_on_c, 0, 44, 71
1, 51793, Note_off_c, 0, 44, 63
1, 51866, Note_on_c, 0, 33, 86
1, 51888, Control_c, 0, 64, 85
1, 51903, Control_c, 0, 64, 0
1, 51905, Note_on_c, 0, 37, 35
1, 51907, Note_on_c, 0, 39, 37
1, 51907, Note_on_c, 0, 73, 74
1, 51956, Note_off_c, 0, 39, 43
1, 51973, Note_off_c, 0, 37, 38
1, 52021, Control_c, 0, 64, 69
1, 52036, Control_c, 0, 64, 102
1, 52051, Control_c, 0, 64, 127
1, 52055, Note_off_c, 0, 33, 60
1, 52069, Note_on_c, 0, 80, 18
1, 52083, Note_on_c, 0, 85, 94
1, 52101, Note_off_c, 0, 80, 51
1, 52104, Note_off_c, 0, 73, 63
1, 52120, Note_off_c, 0, 85, 68
1, 52163, Note_on_c, 0, 49, 70
1, 52215, Note_on_c, 0, 52, 69
1, 52245, Note_off_c, 0, 49, 59
1, 52263, Note_on_c, 0, 57, 74
1, 52274, Note_off_c, 0, 52, 62
1, 52289, Note_off_c, 0, 57, 67
1, 52314, Note_on_c, 0, 61, 73
1, 52361, Note_off_c, 0, 61, 62
1, 52375, Note_on_c, 0, 64, 69
1, 52415, Note_on_c, 0, 69, 74
1, 52467, Note_off_c, 0, 64, 53
1, 52477, Note_on_c, 0, 76, 84
1, 52535, Note_off_c, 0, 69, 58
1, 52555, Note_off_c, 0, 76, 68
1, 52581, Note_on_c, 0, 88, 99
1, 52607, Note_off_c, 0, 88, 65
1, 52619, Note_on_c, 0, 80, 39
1, 52620, Note_off_c, 0, 80, 127
1, 52643, Note_on_c, 0, 69, 74
1, 52700, Note_on_c, 0, 64, 75
1, 52757, Note_on_c, 0, 61, 87
1, 52778, Note_off_c, 0, 61, 70
1, 52784, Note_off_c, 0, 64, 62
1, 52829, Note_on_c, 0, 57, 64
1, 52864, Note_off_c, 0, 69, 33
1, 52868, Note_off_c, 0, 57, 57
1, 52881, Note_on_c, 0, 52, 68
1, 52926, Note_off_c, 0, 52, 58
1, 52935, Note_on_c, 0, 49, 78
1, 52958, Note_off_c, 0, 49, 66
1, 53062, Note_on_c, 0, 37, 82
1, 53155, Control_c, 0, 64, 85
1, 53157, Note_on_c, 0, 83, 91
1, 53170, Control_c, 0, 64, 53
1, 53185, Control_c, 0, 64, 0
1, 53252, Control_c, 0, 64, 64
1, 53267, Control_c, 0, 64, 78
1, 53281, Control_c, 0, 64, 116
1, 53296, Control_c, 0, 64, 127
1, 53365, Note_off_c, 0, 37, 56
1, 53456, Note_on_c, 0, 95, 97
1, 53458, Note_off_c, 0, 83, 61
1, 53496, Note_off_c, 0, 95, 65
1, 53601, Note_on_c, 0, 49, 75
1, 53689, Note_on_c, 0, 53, 68
1, 53699, Note_off_c, 0, 49, 59
1, 53757, Note_off_c, 0, 53, 63
1, 53758, Note_on_c, 0, 57, 73
1, 53777, Note_off_c, 0, 57, 66
1, 53873, Note_on_c, 0, 61, 66
1, 53923, Note_on_c, 0, 65, 71
1, 53927, Note_off_c, 0, 61, 62
1, 53982, Note_on_c, 0, 69, 69
1, 54041, Note_on_c, 0, 81, 82
1, 54145, Note_off_c, 0, 81, 65
1, 54207, Note_on_c, 0, 93, 93
1, 54239, Note_off_c, 0, 93, 64
1, 54242, Note_off_c, 0, 69, 27
1, 54246, Note_off_c, 0, 65, 0
1, 54283, Poly_aftertouch_c, 0, 65, 127
1, 54328, Poly_aftertouch_c, 0, 65, 0
1, 54331, Note_on_c, 0, 69, 65
1, 54431, Note_on_c, 0, 65, 73
1, 54526, Note_on_c, 0, 61, 72
1, 54554, Note_off_c, 0, 61, 66
1, 54558, Note_off_c, 0, 69, 46
1, 54579, Note_off_c, 0, 65, 57
1, 54610, Note_on_c, 0, 57, 68
1, 54751, Note_on_c, 0, 53, 76
1, 54778, Note_off_c, 0, 57, 59
1, 54915, Note_on_c, 0, 49, 70
1, 54921, Note_off_c, 0, 53, 60
1, 54947, Note_off_c, 0, 49, 65
1, 55201, Note_on_c, 0, 38, 69
1, 55324, Note_on_c, 0, 80, 85
1, 55357, Control_c, 0, 64, 81
1, 55372, Control_c, 0, 64, 63
1, 55387, Control_c, 0, 64, 0
1, 55431, Control_c, 0, 64, 53
1, 55446, Control_c, 0, 64, 69
1, 55461, Control_c, 0, 64, 85
1, 55476, Control_c, 0, 64, 127
1, 55552, Note_on_c, 0, 45, 64
1, 55563, Note_off_c, 0, 38, 56
1, 55669, Note_on_c, 0, 47, 62
1, 55670, Note_on_c, 0, 92, 87
1, 55726, Note_off_c, 0, 45, 36
1, 55749, Note_off_c, 0, 92, 65
1, 55752, Note_off_c, 0, 80, 62
1, 55753, Note_off_c, 0, 47, 62
1, 55785, Note_on_c, 0, 54, 67
1, 55813, Note_off_c, 0, 54, 64
1, 55861, Note_on_c, 0, 78, 82
1, 55887, Note_on_c, 0, 57, 58
1, 55927, Note_off_c, 0, 57, 57
1, 55965, Note_on_c, 0, 59, 72
1, 56000, Note_on_c, 0, 90, 86
1, 56016, Note_off_c, 0, 78, 64
1, 56029, Note_off_c, 0, 59, 57
1, 56038, Note_off_c, 0, 90, 62
1, 56075, Note_on_c, 0, 66, 74
1, 56100, Note_off_c, 0, 66, 66
1, 56141, Note_on_c, 0, 71, 81
1, 56174, Note_on_c, 0, 59, 61
1, 56196, Note_on_c, 0, 78, 28
1, 56217, Note_off_c, 0, 59, 52
1, 56260, Poly_aftertouch_c, 0, 80, 127
1, 56271, Note_on_c, 0, 57, 36
1, 56273, Note_on_c, 0, 54, 67
1, 56279, Note_off_c, 0, 71, 59
1, 56283, Note_on_c, 0, 83, 77
1, 56298, Note_off_c, 0, 78, 58
1, 56306, Note_off_c, 0, 54, 63
1, 56308, Note_off_c, 0, 57, 49
1, 56308, Note_off_c, 0, 83, 66
1, 56331, Poly_aftertouch_c, 0, 80, 0
1, 56420, Note_on_c, 0, 40, 64
1, 56483, Control_c, 0, 64, 112
1, 56486, Note_on_c, 0, 73, 74
1, 56489, Poly_aftertouch_c, 0, 44, 127
1, 56498, Control_c, 0, 64, 79
1, 56513, Control_c, 0, 64, 63
1, 56525, Poly_aftertouch_c, 0, 44, 0
1, 56529, Control_c, 0, 64, 56
1, 56544, Control_c, 0, 64, 64
1, 56559, Control_c, 0, 64, 75
1, 56573, Control_c, 0, 64, 103
1, 56588, Control_c, 0, 64, 127
1, 56608, Note_on_c, 0, 85, 78
1, 56631, Note_off_c, 0, 73, 63
1, 56632, Poly_aftertouch_c, 0, 78, 127
1, 56639, Note_on_c, 0, 47, 51
1, 56674, Note_off_c, 0, 85, 63
1, 56674, Poly_aftertouch_c, 0, 78, 0
1, 56676, Note_off_c, 0, 40, 52
1, 56716, Note_off_c, 0, 47, 62
1, 56717, Note_on_c, 0, 74, 81
1, 56751, Note_on_c, 0, 52, 46
1, 56781, Note_off_c, 0, 52, 51
1, 56821, Note_off_c, 0, 74, 61
1, 56826, Note_on_c, 0, 86, 84
1, 56859, Note_off_c, 0, 86, 65
1, 56873, Note_on_c, 0, 56, 50
1, 56963, Note_off_c, 0, 56, 0
1, 57008, Poly_aftertouch_c, 0, 56, 127
1, 57014, Note_on_c, 0, 78, 69
1, 57019, Note_on_c, 0, 59, 50
1, 57196, Poly_aftertouch_c, 0, 56, 0
1, 57220, Note_off_c, 0, 59, 58
1, 57232, Note_on_c, 0, 62, 49
1, 57267, Note_off_c, 0, 62, 62
1, 57326, Note_on_c, 0, 90, 78
1, 57553, Note_off_c, 0, 90, 62
1, 57565, Note_off_c, 0, 78, 58
1, 58445, Note_on_c, 0, 66, 52
1, 58552, Control_c, 0, 67, 8
1, 58567, Control_c, 0, 67, 12
1, 58582, Control_c, 0, 67, 18
1, 58597, Control_c, 0, 67, 25
1, 58612, Control_c, 0, 67, 36
1, 58627, Control_c, 0, 64, 120
1, 58627, Control_c, 0, 67, 47
1, 58642, Control_c, 0, 64, 108
1, 58642, Control_c, 0, 67, 58
1, 58656, Control_c, 0, 64, 101
1, 58656, Control_c, 0, 67, 71
1, 58671, Control_c, 0, 64, 94
1, 58671, Control_c, 0, 67, 85
1, 58686, Control_c, 0, 64, 87
1, 58686, Control_c, 0, 67, 102
1, 58701, Control_c, 0, 64, 78
1, 58701, Control_c, 0, 67, 121
1, 58716, Control_c, 0, 64, 68
1, 58716, Control_c, 0, 67, 127
1, 58731, Control_c, 0, 64, 55
1, 58745, Control_c, 0, 64, 0
1, 59012, Control_c, 0, 64, 47
1, 59027, Control_c, 0, 64, 60
1, 59042, Control_c, 0, 64, 64
1, 59057, Control_c, 0, 64, 68
1, 59072, Control_c, 0, 64, 74
1, 59086, Control_c, 0, 64, 86
1, 59101, Control_c, 0, 64, 104
1, 59116, Control_c, 0, 64, 127
1, 59246, Note_off_c, 0, 66, 33
1, 59548, Note_on_c, 0, 66, 32
1, 59563, Note_on_c, 0, 78, 37
1, 59899, Note_on_c, 0, 64, 34
1, 59909, Note_on_c, 0, 68, 43
1, 59909, Note_off_c, 0, 78, 60
1, 59917, Note_off_c, 0, 66, 39
1, 60131, Note_on_c, 0, 62, 35
1, 60136, Note_off_c, 0, 68, 59
1, 60153, Note_on_c, 0, 80, 53
1, 60183, Note_off_c, 0, 64, 37
1, 60207, Note_off_c, 0, 80, 60
1, 60344, Note_off_c, 0, 62, 36
1, 60392, Note_on_c, 0, 56, 32
1, 60415, Note_on_c, 0, 73, 48
1, 60475, Note_off_c, 0, 56, 49
1, 60855, Note_on_c, 0, 85, 45
1, 60888, Note_on_c, 0, 52, 19
1, 60952, Note_off_c, 0, 52, 42
1, 60964, Note_off_c, 0, 73, 49
1, 60991, Note_off_c, 0, 85, 48
1, 62033, Note_on_c, 0, 83, 47
1, 62046, Note_on_c, 0, 71, 24
1, 62466, Note_on_c, 0, 45, 35
1, 62505, Control_c, 0, 64, 109
1, 62519, Control_c, 0, 64, 96
1, 62534, Control_c, 0, 64, 87
1, 62549, Control_c, 0, 64, 77
1, 62563, Control_c, 0, 64, 70
1, 62578, Control_c, 0, 64, 63
1, 62593, Control_c, 0, 64, 60
1, 62608, Control_c, 0, 64, 62
1, 62623, Control_c, 0, 64, 70
1, 62637, Control_c, 0, 64, 88
1, 62652, Control_c, 0, 64, 127
1, 62705, Note_on_c, 0, 52, 36
1, 62740, Note_off_c, 0, 45, 40
1, 62771, Note_off_c, 0, 52, 59
1, 62840, Note_on_c, 0, 57, 43
1, 62877, Note_off_c, 0, 57, 62
1, 62886, Note_off_c, 0, 71, 40
1, 62959, Note_off_c, 0, 83, 45
1, 62961, Note_on_c, 0, 61, 47
1, 63059, Note_off_c, 0, 61, 47
1, 63076, Note_on_c, 0, 64, 46
1, 63144, Note_off_c, 0, 64, 59
1, 63208, Note_on_c, 0, 69, 40
1, 63405, Note_off_c, 0, 69, 0
1, 63410, Note_on_c, 0, 73, 37
1, 63426, Note_on_c, 0, 81, 53
1, 63443, Poly_aftertouch_c, 0, 69, 127
1, 63505, Note_off_c, 0, 73, 56
1, 63607, Poly_aftertouch_c, 0, 69, 0
1, 63673, Note_on_c, 0, 64, 46
1, 63773, Note_off_c, 0, 64, 53
1, 63816, Note_on_c, 0, 61, 40
1, 63847, Note_off_c, 0, 61, 60
1, 63923, Note_on_c, 0, 57, 50
1, 63960, Note_off_c, 0, 57, 63
1, 64025, Note_on_c, 0, 52, 43
1, 64061, Note_off_c, 0, 52, 60
1, 64109, Note_on_c, 0, 45, 37
1, 64147, Note_off_c, 0, 81, 58
1, 64180, Note_off_c, 0, 45, 54
1, 64203, Note_on_c, 0, 52, 38
1, 64247, Note_off_c, 0, 52, 64
1, 64310, Note_on_c, 0, 57, 39
1, 64343, Note_off_c, 0, 57, 50
1, 64410, Note_on_c, 0, 61, 42
1, 64487, Note_off_c, 0, 61, 52
1, 64525, Note_on_c, 0, 64, 48
1, 64588, Note_off_c, 0, 64, 58
1, 64603, Control_c, 0, 67, 126
1, 64618, Control_c, 0, 67, 123
1, 64633, Control_c, 0, 67, 119
1, 64648, Control_c, 0, 67, 115
1, 64656, Note_on_c, 0, 69, 42
1, 64663, Control_c, 0, 67, 111
1, 64678, Control_c, 0, 67, 106
1, 64693, Control_c, 0, 67, 104
1, 64708, Control_c, 0, 67, 102
1, 64722, Control_c, 0, 67, 100
1, 64737, Control_c, 0, 67, 96
1, 64752, Control_c, 0, 67, 92
1, 64766, Control_c, 0, 67, 87
1, 64781, Control_c, 0, 67, 82
1, 64796, Control_c, 0, 67, 78
1, 64811, Control_c, 0, 67, 73
1, 64826, Control_c, 0, 67, 67
1, 64840, Control_c, 0, 67, 60
1, 64855, Control_c, 0, 67, 52
1, 64870, Control_c, 0, 67, 42
1, 64872, Note_on_c, 0, 73, 37
1, 64885, Control_c, 0, 67, 30
1, 64900, Control_c, 0, 67, 17
1, 64914, Control_c, 0, 67, 0
1, 64931, Note_off_c, 0, 69, 37
1, 64944, Note_on_c, 0, 52, 60
1, 65042, Note_off_c, 0, 73, 58
1, 65101, Note_on_c, 0, 69, 40
1, 65134, Note_off_c, 0, 69, 57
1, 65220, Note_on_c, 0, 64, 48
1, 65253, Note_off_c, 0, 52, 61
1, 65298, Note_off_c, 0, 64, 49
1, 65341, Note_on_c, 0, 61, 41
1, 65371, Note_off_c, 0, 61, 54
1, 65442, Note_on_c, 0, 57, 44
1, 65470, Note_off_c, 0, 57, 54
1, 65532, Note_on_c, 0, 52, 53
1, 65578, Note_off_c, 0, 52, 56
1, 65715, Note_on_c, 0, 54, 73
1, 65721, Control_c, 0, 64, 106
1, 65736, Control_c, 0, 64, 87
1, 65751, Control_c, 0, 64, 74
1, 65766, Control_c, 0, 64, 65
1, 65781, Control_c, 0, 64, 61
1, 65796, Control_c, 0, 64, 64
1, 65811, Control_c, 0, 64, 74
1, 65826, Control_c, 0, 64, 96
1, 65840, Control_c, 0, 64, 127
1, 65853, Note_on_c, 0, 45, 47
1, 65956, Note_off_c, 0, 45, 55
1, 66009, Note_off_c, 0, 54, 60
1, 66054, Note_on_c, 0, 57, 20
1, 66094, Note_off_c, 0, 57, 45
1, 66134, Note_on_c, 0, 62, 53
1, 66174, Note_off_c, 0, 62, 61
1, 66276, Poly_aftertouch_c, 0, 66, 127
1, 66305, Note_on_c, 0, 69, 49
1, 66320, Poly_aftertouch_c, 0, 66, 0
1, 66370, Note_off_c, 0, 69, 42
1, 66381, Note_on_c, 0, 73, 60
1, 66384, Note_on_c, 0, 57, 77
1, 66445, Note_off_c, 0, 73, 58
1, 66490, Note_on_c, 0, 69, 52
1, 66514, Note_off_c, 0, 69, 58
1, 66557, Note_on_c, 0, 66, 64
1, 66586, Note_off_c, 0, 66, 65
1, 66591, Note_off_c, 0, 57, 62
1, 66651, Note_on_c, 0, 62, 59
1, 66679, Note_off_c, 0, 62, 64
1, 66738, Note_on_c, 0, 57, 57
1, 66779, Note_off_c, 0, 57, 57
1, 66821, Note_on_c, 0, 54, 64
1, 66850, Note_off_c, 0, 54, 63
1, 66932, Note_on_c, 0, 59, 78
1, 66942, Note_on_c, 0, 45, 60
1, 66967, Control_c, 0, 64, 106
1, 66982, Control_c, 0, 64, 83
1, 66997, Control_c, 0, 64, 69
1, 67012, Control_c, 0, 64, 64
1, 67020, Note_off_c, 0, 45, 60
1, 67026, Control_c, 0, 64, 68
1, 67041, Control_c, 0, 64, 80
1, 67046, Note_on_c, 0, 53, 56
1, 67056, Control_c, 0, 64, 127
1, 67108, Note_on_c, 0, 56, 68
1, 67118, Note_off_c, 0, 53, 60
1, 67122, Note_off_c, 0, 59, 62
1, 67149, Note_off_c, 0, 56, 59
1, 67200, Note_on_c, 0, 62, 43
1, 67226, Note_off_c, 0, 62, 54
1, 67267, Note_on_c, 0, 65, 62
1, 67367, Note_on_c, 0, 68, 63
1, 67378, Note_off_c, 0, 65, 31
1, 67419, Note_off_c, 0, 68, 50
1, 67451, Note_on_c, 0, 61, 80
1, 67456, Note_on_c, 0, 73, 59
1, 67482, Note_off_c, 0, 73, 63
1, 67553, Note_on_c, 0, 68, 66
1, 67611, Note_off_c, 0, 68, 58
1, 67628, Note_on_c, 0, 65, 44
1, 67632, Note_off_c, 0, 61, 63
1, 67656, Note_off_c, 0, 65, 53
1, 67703, Note_on_c, 0, 62, 51
1, 67725, Note_off_c, 0, 62, 59
1, 67789, Note_on_c, 0, 56, 55
1, 67860, Note_off_c, 0, 56, 50
1, 67870, Note_on_c, 0, 53, 62
1, 67903, Note_off_c, 0, 53, 63
1, 67945, Note_on_c, 0, 61, 78
1, 68241, Note_on_c, 0, 45, 54
1, 68360, Control_c, 0, 64, 92
1, 68364, Note_on_c, 0, 64, 64
1, 68374, Control_c, 0, 64, 75
1, 68389, Control_c, 0, 64, 59
1, 68404, Control_c, 0, 64, 0
1, 68434, Note_off_c, 0, 61, 61
1, 68509, Control_c, 0, 64, 62
1, 68524, Control_c, 0, 64, 70
1, 68538, Control_c, 0, 64, 81
1, 68553, Control_c, 0, 64, 109
1, 68568, Control_c, 0, 64, 127
1, 68612, Note_off_c, 0, 64, 62
1, 68642, Note_on_c, 0, 52, 39
1, 68720, Note_on_c, 0, 57, 44
1, 68799, Note_on_c, 0, 61, 49
1, 68814, Note_off_c, 0, 57, 54
1, 68861, Note_off_c, 0, 61, 54
1, 68868, Note_on_c, 0, 64, 47
1, 68929, Note_off_c, 0, 64, 56
1, 68950, Note_on_c, 0, 69, 49
1, 69027, Note_on_c, 0, 73, 56
1, 69028, Note_off_c, 0, 69, 60
1, 69051, Note_off_c, 0, 45, 34
1, 69104, Note_off_c, 0, 73, 58
1, 69105, Note_off_c, 0, 52, 34
1, 69111, Note_on_c, 0, 69, 34
1, 69176, Note_on_c, 0, 64, 53
1, 69224, Note_off_c, 0, 64, 59
1, 69240, Note_on_c, 0, 61, 58
1, 69242, Note_off_c, 0, 69, 31
1, 69297, Note_off_c, 0, 61, 55
1, 69308, Note_on_c, 0, 57, 49
1, 69349, Note_off_c, 0, 57, 57
1, 69377, Note_on_c, 0, 52, 55
1, 69412, Note_off_c, 0, 52, 63
1, 69441, Poly_aftertouch_c, 0, 64, 127
1, 69447, Note_on_c, 0, 45, 52
1, 69491, Poly_aftertouch_c, 0, 64, 0
1, 69520, Note_off_c, 0, 45, 60
1, 69526, Note_on_c, 0, 52, 37
1, 69572, Note_off_c, 0, 52, 61
1, 69594, Note_on_c, 0, 57, 60
1, 69616, Note_off_c, 0, 57, 60
1, 69677, Note_on_c, 0, 61, 47
1, 69731, Note_on_c, 0, 64, 58
1, 69737, Note_off_c, 0, 61, 57
1, 69808, Note_on_c, 0, 69, 57
1, 69813, Note_off_c, 0, 64, 57
1, 69871, Note_on_c, 0, 73, 65
1, 69875, Note_off_c, 0, 69, 59
1, 69952, Note_off_c, 0, 73, 54
1, 69972, Note_on_c, 0, 76, 66
1, 70004, Note_off_c, 0, 76, 65
1, 70058, Note_on_c, 0, 73, 54
1, 70131, Note_on_c, 0, 69, 58
1, 70132, Note_off_c, 0, 73, 52
1, 70179, Note_on_c, 0, 64, 61
1, 70240, Note_on_c, 0, 61, 61
1, 70246, Note_off_c, 0, 64, 61
1, 70262, Note_off_c, 0, 61, 65
1, 70291, Note_off_c, 0, 69, 25
1, 70329, Note_on_c, 0, 57, 34
1, 70372, Note_off_c, 0, 57, 48
1, 70392, Note_on_c, 0, 52, 50
1, 70428, Note_off_c, 0, 52, 59
1, 70458, Note_on_c, 0, 45, 62
1, 70525, Note_on_c, 0, 78, 74
1, 70532, Control_c, 0, 64, 89
1, 70547, Control_c, 0, 64, 75
1, 70562, Control_c, 0, 64, 66
1, 70577, Control_c, 0, 64, 67
1, 70592, Control_c, 0, 64, 76
1, 70607, Control_c, 0, 64, 100
1, 70621, Control_c, 0, 64, 127
1, 70646, Note_on_c, 0, 54, 58
1, 70652, Note_off_c, 0, 78, 63
1, 70676, Note_off_c, 0, 45, 58
1, 70717, Note_off_c, 0, 54, 60
1, 70720, Note_on_c, 0, 57, 63
1, 70744, Note_off_c, 0, 57, 60
1, 70785, Note_on_c, 0, 62, 51
1, 70840, Note_on_c, 0, 66, 63
1, 70878, Note_off_c, 0, 62, 48
1, 70884, Note_on_c, 0, 69, 62
1, 70944, Note_on_c, 0, 74, 67
1, 70951, Note_off_c, 0, 69, 59
1, 70999, Note_off_c, 0, 74, 58
1, 71001, Note_on_c, 0, 81, 87
1, 71021, Note_off_c, 0, 66, 32
1, 71036, Note_off_c, 0, 81, 63
1, 71075, Note_on_c, 0, 74, 58
1, 71123, Note_on_c, 0, 69, 67
1, 71127, Note_off_c, 0, 74, 55
1, 71169, Note_on_c, 0, 66, 67
1, 71234, Note_on_c, 0, 62, 72
1, 71259, Note_off_c, 0, 62, 61
1, 71270, Note_off_c, 0, 66, 58
1, 71276, Note_on_c, 0, 57, 63
1, 71276, Note_off_c, 0, 69, 54
1, 71314, Note_off_c, 0, 57, 56
1, 71335, Note_on_c, 0, 54, 68
1, 71374, Note_off_c, 0, 54, 62
1, 71417, Note_on_c, 0, 45, 72
1, 71468, Note_on_c, 0, 83, 85
1, 71474, Control_c, 0, 64, 106
1, 71489, Control_c, 0, 64, 82
1, 71504, Control_c, 0, 64, 69
1, 71519, Control_c, 0, 64, 64
1, 71534, Control_c, 0, 64, 68
1, 71549, Control_c, 0, 64, 87
1, 71557, Note_on_c, 0, 53, 67
1, 71563, Note_off_c, 0, 45, 56
1, 71564, Control_c, 0, 64, 127
1, 71573, Note_off_c, 0, 83, 64
1, 71627, Note_on_c, 0, 56, 71
1, 71645, Note_off_c, 0, 53, 60
1, 71678, Note_on_c, 0, 59, 75
1, 71678, Note_off_c, 0, 56, 53
1, 71707, Note_off_c, 0, 59, 64
1, 71722, Note_on_c, 0, 62, 68
1, 71778, Note_on_c, 0, 65, 64
1, 71802, Note_off_c, 0, 62, 54
1, 71821, Note_on_c, 0, 68, 68
1, 71871, Note_on_c, 0, 71, 75
1, 71908, Note_off_c, 0, 68, 60
1, 71927, Note_off_c, 0, 71, 61
1, 71933, Note_on_c, 0, 85, 98
1, 71944, Note_off_c, 0, 65, 34
1, 71975, Note_off_c, 0, 85, 66
1, 72008, Note_on_c, 0, 71, 67
1, 72050, Note_on_c, 0, 68, 69
1, 72097, Note_on_c, 0, 65, 69
1, 72098, Note_off_c, 0, 71, 61
1, 72139, Note_on_c, 0, 62, 75
1, 72162, Note_off_c, 0, 62, 65
1, 72177, Note_on_c, 0, 71, 28
1, 72177, Note_off_c, 0, 65, 59
1, 72196, Note_off_c, 0, 68, 60
1, 72208, Note_on_c, 0, 59, 69
1, 72215, Note_off_c, 0, 71, 44
1, 72265, Note_off_c, 0, 59, 43
1, 72284, Note_on_c, 0, 56, 76
1, 72360, Note_on_c, 0, 53, 80
1, 72369, Note_off_c, 0, 56, 59
1, 72384, Note_off_c, 0, 53, 66
1, 72440, Note_on_c, 0, 85, 96
1, 72533, Poly_aftertouch_c, 0, 53, 0
1, 72622, Note_on_c, 0, 45, 83
1, 72750, Control_c, 0, 64, 85
1, 72762, Note_on_c, 0, 88, 90
1, 72765, Control_c, 0, 64, 65
1, 72779, Control_c, 0, 64, 0
1, 72799, Note_off_c, 0, 85, 65
1, 72838, Control_c, 0, 64, 67
1, 72853, Control_c, 0, 64, 79
1, 72868, Control_c, 0, 64, 107
1, 72883, Control_c, 0, 64, 127
1, 72938, Note_off_c, 0, 88, 67
1, 72959, Note_off_c, 0, 45, 61
1, 72968, Note_on_c, 0, 52, 67
1, 73027, Note_on_c, 0, 57, 70
1, 73107, Note_on_c, 0, 61, 70
1, 73148, Note_off_c, 0, 61, 60
1, 73150, Note_on_c, 0, 64, 55
1, 73199, Note_on_c, 0, 69, 67
1, 73202, Note_off_c, 0, 64, 60
1, 73236, Note_off_c, 0, 69, 57
1, 73249, Note_on_c, 0, 73, 70
1, 73283, Note_off_c, 0, 57, 38
1, 73305, Note_off_c, 0, 73, 63
1, 73310, Note_on_c, 0, 76, 70
1, 73364, Note_on_c, 0, 73, 74
1, 73393, Note_off_c, 0, 76, 56
1, 73419, Note_on_c, 0, 69, 69
1, 73445, Note_off_c, 0, 73, 58
1, 73472, Note_on_c, 0, 64, 71
1, 73486, Note_off_c, 0, 69, 61
1, 73495, Note_off_c, 0, 52, 58
1, 73524, Note_on_c, 0, 61, 70
1, 73557, Note_off_c, 0, 61, 64
1, 73565, Note_off_c, 0, 64, 52
1, 73591, Note_on_c, 0, 57, 62
1, 73641, Note_on_c, 0, 52, 60
1, 73643, Note_off_c, 0, 57, 61
1, 73669, Note_on_c, 0, 53, 34
1, 73669, Note_on_c, 0, 69, 21
1, 73705, Note_off_c, 0, 52, 61
1, 73705, Note_off_c, 0, 53, 50
1, 73712, Note_on_c, 0, 45, 75
1, 73713, Poly_aftertouch_c, 0, 73, 127
1, 73720, Note_off_c, 0, 69, 44
1, 73760, Poly_aftertouch_c, 0, 73, 0
1, 73767, Note_off_c, 0, 45, 60
1, 73768, Note_on_c, 0, 50, 28
1, 73768, Note_on_c, 0, 52, 66
1, 73803, Note_off_c, 0, 50, 54
1, 73845, Note_on_c, 0, 56, 73
1, 73853, Note_off_c, 0, 52, 62
1, 73880, Note_off_c, 0, 56, 59
1, 73898, Note_on_c, 0, 61, 67
1, 73925, Note_off_c, 0, 61, 66
1, 73938, Note_on_c, 0, 64, 66
1, 73944, Poly_aftertouch_c, 0, 73, 0
1, 73990, Note_on_c, 0, 68, 72
1, 74008, Note_off_c, 0, 64, 55
1, 74043, Note_on_c, 0, 73, 71
1, 74056, Note_off_c, 0, 68, 55
1, 74104, Note_on_c, 0, 76, 75
1, 74106, Note_off_c, 0, 73, 62
1, 74160, Note_on_c, 0, 73, 76
1, 74209, Note_off_c, 0, 76, 58
1, 74237, Note_on_c, 0, 68, 71
1, 74273, Note_off_c, 0, 73, 60
1, 74282, Note_on_c, 0, 64, 84
1, 74297, Poly_aftertouch_c, 0, 72, 0
1, 74322, Note_off_c, 0, 64, 61
1, 74347, Note_off_c, 0, 68, 50
1, 74353, Note_on_c, 0, 61, 72
1, 74422, Note_off_c, 0, 61, 59
1, 74434, Note_on_c, 0, 56, 72
1, 74518, Note_off_c, 0, 56, 61
1, 74524, Note_on_c, 0, 52, 74
1, 74762, Note_on_c, 0, 46, 84
1, 74795, Control_c, 0, 64, 99
1, 74798, Note_off_c, 0, 52, 61
1, 74810, Control_c, 0, 64, 55
1, 74825, Control_c, 0, 64, 0
1, 74929, Control_c, 0, 64, 56
1, 74944, Control_c, 0, 64, 81
1, 74959, Control_c, 0, 64, 127
1, 75069, Note_on_c, 0, 52, 81
1, 75132, Note_off_c, 0, 46, 61
1, 75205, Note_on_c, 0, 55, 79
1, 75273, Note_off_c, 0, 52, 59
1, 75310, Note_off_c, 0, 55, 61
1, 75342, Note_on_c, 0, 61, 65
1, 75370, Note_on_c, 0, 88, 86
1, 75370, Note_on_c, 0, 76, 87
1, 75376, Note_off_c, 0, 61, 61
1, 75541, Note_on_c, 0, 64, 76
1, 75620, Note_off_c, 0, 76, 60
1, 75629, Note_off_c, 0, 88, 67
1, 75660, Note_on_c, 0, 67, 87
1, 75680, Note_off_c, 0, 64, 62
1, 75793, Note_on_c, 0, 76, 95
1, 75794, Note_on_c, 0, 88, 98
1, 75796, Note_on_c, 0, 73, 69
1, 75806, Note_off_c, 0, 67, 58
1, 75860, Note_off_c, 0, 73, 60
1, 75880, Note_on_c, 0, 85, 39
1, 75895, Note_on_c, 0, 67, 68
1, 75913, Note_off_c, 0, 85, 63
1, 75930, Note_off_c, 0, 88, 66
1, 75931, Note_off_c, 0, 76, 62
1, 75964, Note_on_c, 0, 64, 78
1, 75965, Note_off_c, 0, 67, 58
1, 75987, Note_off_c, 0, 64, 66
1, 76042, Note_on_c, 0, 85, 21
1, 76049, Note_on_c, 0, 61, 77
1, 76078, Note_off_c, 0, 85, 48
1, 76111, Note_off_c, 0, 61, 61
1, 76113, Note_on_c, 0, 56, 76
1, 76123, Note_on_c, 0, 88, 96
1, 76125, Note_on_c, 0, 76, 94
1, 76143, Note_off_c, 0, 56, 62
1, 76175, Note_on_c, 0, 85, 41
1, 76177, Note_off_c, 0, 76, 63
1, 76181, Note_on_c, 0, 55, 25
1, 76201, Note_off_c, 0, 85, 55
1, 76210, Note_off_c, 0, 88, 62
1, 76224, Note_on_c, 0, 52, 69
1, 76229, Note_off_c, 0, 55, 45
1, 76232, Poly_aftertouch_c, 0, 80, 127
1, 76253, Poly_aftertouch_c, 0, 80, 0
1, 76297, Note_on_c, 0, 85, 38
1, 76312, Note_on_c, 0, 46, 85
1, 76323, Note_off_c, 0, 85, 56
1, 76328, Note_off_c, 0, 52, 59
1, 76354, Poly_aftertouch_c, 0, 76, 127
1, 76375, Poly_aftertouch_c, 0, 76, 0
1, 76381, Control_c, 0, 64, 85
1, 76385, Note_on_c, 0, 76, 69
1, 76387, Note_on_c, 0, 88, 92
1, 76396, Control_c, 0, 64, 62
1, 76411, Control_c, 0, 64, 0
1, 76426, Control_c, 0, 64, 32
1, 76432, Note_on_c, 0, 85, 15
1, 76441, Control_c, 0, 64, 64
1, 76463, Control_c, 0, 64, 79
1, 76478, Control_c, 0, 64, 127
1, 76503, Note_on_c, 0, 52, 76
1, 76509, Note_on_c, 0, 80, 17
1, 76509, Note_off_c, 0, 76, 62
1, 76514, Note_off_c, 0, 46, 61
1, 76515, Note_off_c, 0, 88, 63
1, 76546, Note_off_c, 0, 80, 44
1, 76553, Note_off_c, 0, 85, 42
1, 76576, Note_on_c, 0, 55, 76
1, 76616, Note_on_c, 0, 76, 90
1, 76616, Note_off_c, 0, 52, 61
1, 76617, Note_on_c, 0, 88, 90
1, 76640, Note_off_c, 0, 76, 67
1, 76643, Note_off_c, 0, 88, 63
1, 76643, Note_off_c, 0, 55, 61
1, 76644, Note_on_c, 0, 80, 37
1, 76658, Note_on_c, 0, 60, 71
1, 76671, Note_off_c, 0, 80, 57
1, 76688, Note_off_c, 0, 60, 63
1, 76715, Note_on_c, 0, 76, 95
1, 76724, Note_on_c, 0, 88, 77
1, 76742, Note_off_c, 0, 76, 60
1, 76742, Note_off_c, 0, 88, 72
1, 76758, Note_on_c, 0, 64, 62
1, 76803, Note_on_c, 0, 76, 84
1, 76809, Note_on_c, 0, 88, 75
1, 76810, Note_off_c, 0, 64, 55
1, 76821, Note_off_c, 0, 76, 73
1, 76824, Note_off_c, 0, 88, 68
1, 76848, Note_on_c, 0, 67, 58
1, 76877, Note_on_c, 0, 88, 89
1, 76879, Note_on_c, 0, 76, 95
1, 76896, Note_on_c, 0, 80, 68
1, 76897, Note_off_c, 0, 76, 71
1, 76907, Note_off_c, 0, 88, 61
1, 76911, Note_on_c, 0, 86, 48
1, 76920, Note_off_c, 0, 80, 68
1, 76932, Note_off_c, 0, 86, 60
1, 76964, Note_on_c, 0, 72, 78
1, 76979, Note_on_c, 0, 80, 93
1, 76980, Note_on_c, 0, 92, 97
1, 76985, Note_off_c, 0, 67, 30
1, 76986, Note_off_c, 0, 72, 65
1, 77005, Note_on_c, 0, 90, 58
1, 77018, Note_off_c, 0, 92, 64
1, 77019, Note_off_c, 0, 80, 62
1, 77027, Note_off_c, 0, 90, 62
1, 77037, Note_on_c, 0, 67, 62
1, 77101, Note_off_c, 0, 67, 60
1, 77103, Note_on_c, 0, 64, 67
1, 77125, Note_off_c, 0, 64, 70
1, 77159, Note_on_c, 0, 60, 81
1, 77216, Note_off_c, 0, 60, 58
1, 77243, Note_on_c, 0, 55, 77
1, 77248, Note_on_c, 0, 76, 101
1, 77248, Note_on_c, 0, 88, 101
1, 77277, Note_off_c, 0, 76, 63
1, 77283, Note_on_c, 0, 80, 40
1, 77283, Note_on_c, 0, 85, 43
1, 77289, Note_off_c, 0, 88, 64
1, 77290, Note_on_c, 0, 82, 25
1, 77291, Note_off_c, 0, 82, 127
1, 77299, Note_off_c, 0, 55, 53
1, 77311, Note_off_c, 0, 80, 55
1, 77311, Note_off_c, 0, 85, 60
1, 77328, Note_on_c, 0, 52, 63
1, 77424, Note_on_c, 0, 44, 84
1, 77424, Note_off_c, 0, 52, 61
1, 77450, Control_c, 0, 64, 107
1, 77452, Poly_aftertouch_c, 0, 80, 127
1, 77465, Control_c, 0, 64, 66
1, 77468, Note_on_c, 0, 76, 86
1, 77474, Note_on_c, 0, 88, 98
1, 77480, Control_c, 0, 64, 0
1, 77508, Poly_aftertouch_c, 0, 80, 0
1, 77509, Note_on_c, 0, 85, 52
1, 77509, Control_c, 0, 64, 60
1, 77514, Note_off_c, 0, 76, 67
1, 77524, Control_c, 0, 64, 72
1, 77531, Note_off_c, 0, 85, 64
1, 77538, Note_off_c, 0, 88, 64
1, 77538, Control_c, 0, 64, 91
1, 77543, Note_off_c, 0, 44, 62
1, 77553, Control_c, 0, 64, 127
1, 77560, Note_on_c, 0, 53, 81
1, 77624, Note_on_c, 0, 85, 50
1, 77630, Note_on_c, 0, 56, 87
1, 77645, Note_off_c, 0, 85, 64
1, 77682, Note_off_c, 0, 53, 61
1, 77710, Note_off_c, 0, 56, 59
1, 77717, Note_on_c, 0, 89, 102
1, 77718, Note_on_c, 0, 77, 100
1, 77719, Note_on_c, 0, 60, 71
1, 77747, Note_off_c, 0, 60, 64
1, 77749, Note_off_c, 0, 77, 63
1, 77784, Note_off_c, 0, 89, 65
1, 77817, Poly_aftertouch_c, 0, 87, 0
1, 77818, Note_on_c, 0, 65, 66
1, 77880, Note_off_c, 0, 65, 54
1, 77910, Note_on_c, 0, 68, 83
1, 77953, Poly_aftertouch_c, 0, 65, 127
1, 78014, Note_off_c, 0, 68, 59
1, 78029, Note_on_c, 0, 72, 77
1, 78067, Note_on_c, 0, 99, 106
1, 78068, Note_on_c, 0, 87, 102
1, 78092, Note_off_c, 0, 72, 52
1, 78109, Poly_aftertouch_c, 0, 65, 0
1, 78122, Note_on_c, 0, 68, 79
1, 78181, Note_off_c, 0, 68, 60
1, 78196, Note_on_c, 0, 65, 71
1, 78220, Note_off_c, 0, 65, 66
1, 78284, Note_on_c, 0, 60, 74
1, 78313, Note_off_c, 0, 60, 62
1, 78360, Note_on_c, 0, 56, 72
1, 78429, Note_on_c, 0, 53, 84
1, 78451, Note_off_c, 0, 56, 54
1, 78524, Control_c, 0, 64, 79
1, 78539, Note_on_c, 0, 46, 89
1, 78539, Control_c, 0, 64, 0
1, 78571, Note_off_c, 0, 53, 61
1, 78584, Control_c, 0, 64, 64
1, 78587, Note_off_c, 0, 87, 59
1, 78592, Note_on_c, 0, 50, 5
1, 78596, Note_off_c, 0, 99, 64
1, 78599, Control_c, 0, 64, 77
1, 78614, Control_c, 0, 64, 127
1, 78649, Note_off_c, 0, 50, 43
1, 78739, Note_on_c, 0, 53, 64
1, 78742, Note_off_c, 0, 46, 60
1, 78758, Note_on_c, 0, 52, 48
1, 78789, Note_off_c, 0, 52, 35
1, 78837, Note_on_c, 0, 55, 67
1, 78855, Note_on_c, 0, 97, 101
1, 78856, Note_on_c, 0, 85, 96
1, 79002, Note_off_c, 0, 55, 61
1, 79014, Note_off_c, 0, 97, 65
1, 79019, Note_off_c, 0, 53, 33
1, 79021, Note_on_c, 0, 61, 82
1, 79046, Note_off_c, 0, 85, 63
1, 79070, Note_off_c, 0, 61, 59
1, 79121, Note_on_c, 0, 94, 94
1, 79123, Note_on_c, 0, 65, 72
1, 79123, Note_on_c, 0, 82, 103
1, 79154, Note_on_c, 0, 92, 44
1, 79218, Note_off_c, 0, 82, 59
1, 79219, Note_off_c, 0, 94, 63
1, 79220, Note_off_c, 0, 92, 43
1, 79227, Note_on_c, 0, 67, 78
1, 79296, Note_off_c, 0, 65, 32
1, 79317, Note_on_c, 0, 73, 79
1, 79323, Note_on_c, 0, 80, 96
1, 79323, Note_on_c, 0, 92, 90
1, 79332, Note_off_c, 0, 67, 53
1, 79347, Note_off_c, 0, 73, 61
1, 79365, Note_off_c, 0, 80, 62
1, 79366, Note_off_c, 0, 92, 66
1, 79397, Note_on_c, 0, 67, 69
1, 79468, Note_off_c, 0, 67, 59
1, 79470, Note_on_c, 0, 65, 76
1, 79484, Note_on_c, 0, 79, 100
1, 79485, Note_on_c, 0, 91, 97
1, 79493, Note_off_c, 0, 65, 67
1, 79517, Note_off_c, 0, 79, 64
1, 79519, Note_off_c, 0, 91, 59
1, 79562, Note_on_c, 0, 61, 70
1, 79580, Note_off_c, 0, 61, 65
1, 79602, Poly_aftertouch_c, 0, 85, 0
1, 79619, Note_on_c, 0, 75, 97
1, 79625, Note_on_c, 0, 54, 70
1, 79625, Note_on_c, 0, 87, 85
1, 79636, Note_off_c, 0, 75, 69
1, 79645, Note_off_c, 0, 54, 64
1, 79645, Note_off_c, 0, 87, 68
1, 79647, Note_on_c, 0, 55, 74
1, 79706, Note_on_c, 0, 53, 81
1, 79720, Note_off_c, 0, 55, 62
1, 79740, Note_off_c, 0, 53, 64
1, 79818, Note_on_c, 0, 36, 87
1, 79830, Control_c, 0, 64, 101
1, 79845, Note_on_c, 0, 73, 87
1, 79845, Control_c, 0, 64, 66
1, 79848, Note_on_c, 0, 85, 80
1, 79860, Control_c, 0, 64, 53
1, 79875, Control_c, 0, 64, 61
1, 79889, Control_c, 0, 64, 71
1, 79904, Control_c, 0, 64, 93
1, 79919, Control_c, 0, 64, 127
1, 79943, Note_on_c, 0, 44, 77
1, 79952, Note_off_c, 0, 36, 62
1, 79957, Note_off_c, 0, 73, 61
1, 79970, Note_off_c, 0, 85, 62
1, 79979, Poly_aftertouch_c, 0, 77, 0
1, 80015, Note_on_c, 0, 48, 79
1, 80028, Note_off_c, 0, 44, 61
1, 80056, Note_on_c, 0, 72, 97
1, 80059, Note_on_c, 0, 84, 89
1, 80074, Note_off_c, 0, 48, 62
1, 80080, Note_off_c, 0, 84, 66
1, 80085, Note_on_c, 0, 82, 55
1, 80088, Note_off_c, 0, 72, 64
1, 80097, Note_on_c, 0, 53, 74
1, 80107, Note_off_c, 0, 82, 61
1, 80126, Note_off_c, 0, 53, 64
1, 80173, Note_on_c, 0, 56, 70
1, 80192, Note_on_c, 0, 68, 97
1, 80196, Note_on_c, 0, 80, 91
1, 80223, Note_off_c, 0, 56, 52
1, 80228, Note_on_c, 0, 60, 72
1, 80232, Note_off_c, 0, 68, 57
1, 80233, Note_off_c, 0, 80, 60
1, 80295, Note_off_c, 0, 60, 53
1, 80307, Note_on_c, 0, 66, 76
1, 80319, Note_on_c, 0, 67, 96
1, 80325, Note_on_c, 0, 79, 90
1, 80330, Note_off_c, 0, 66, 68
1, 80341, Note_off_c, 0, 67, 65
1, 80345, Note_off_c, 0, 79, 66
1, 80381, Note_on_c, 0, 60, 47
1, 80396, Poly_aftertouch_c, 0, 70, 127
1, 80401, Note_off_c, 0, 60, 61
1, 80406, Note_on_c, 0, 56, 72
1, 80428, Note_on_c, 0, 65, 96
1, 80431, Note_off_c, 0, 56, 64
1, 80438, Poly_aftertouch_c, 0, 70, 0
1, 80439, Note_on_c, 0, 77, 76
1, 80447, Note_off_c, 0, 65, 68
1, 80454, Note_off_c, 0, 77, 67
1, 80469, Note_on_c, 0, 75, 24
1, 80489, Note_on_c, 0, 53, 65
1, 80504, Note_off_c, 0, 75, 47
1, 80510, Note_off_c, 0, 53, 64
1, 80537, Note_on_c, 0, 61, 97
1, 80544, Note_on_c, 0, 73, 81
1, 80557, Note_off_c, 0, 61, 69
1, 80559, Note_on_c, 0, 47, 58
1, 80577, Note_off_c, 0, 73, 60
1, 80590, Note_on_c, 0, 44, 57
1, 80594, Note_off_c, 0, 47, 64
1, 80617, Note_off_c, 0, 44, 60
1, 80693, Note_on_c, 0, 36, 77
1, 80702, Note_on_c, 0, 38, 76
1, 80709, Note_on_c, 0, 44, 52
1, 80738, Note_on_c, 0, 39, 32
1, 80743, Note_off_c, 0, 44, 57
1, 80771, Control_c, 0, 64, 72
1, 80786, Control_c, 0, 64, 0
1, 80789, Note_on_c, 0, 73, 66
1, 80793, Note_on_c, 0, 61, 91
1, 80801, Note_off_c, 0, 39, 39
1, 80831, Note_off_c, 0, 36, 61
1, 80831, Control_c, 0, 64, 49
1, 80845, Control_c, 0, 64, 67
1, 80846, Note_off_c, 0, 38, 61
1, 80860, Control_c, 0, 64, 84
1, 80875, Control_c, 0, 64, 127
1, 80979, Note_on_c, 0, 46, 68
1, 81054, Note_off_c, 0, 46, 61
1, 81061, Note_on_c, 0, 52, 57
1, 81086, Note_off_c, 0, 52, 61
1, 81128, Note_on_c, 0, 55, 66
1, 81158, Note_off_c, 0, 55, 63
1, 81211, Note_on_c, 0, 59, 62
1, 81243, Note_on_c, 0, 60, 38
1, 81265, Note_on_c, 0, 64, 73
1, 81282, Note_off_c, 0, 59, 57
1, 81341, Note_on_c, 0, 67, 70
1, 81341, Note_off_c, 0, 60, 33
1, 81346, Note_off_c, 0, 64, 61
1, 81366, Note_off_c, 0, 67, 57
1, 81405, Note_on_c, 0, 64, 64
1, 81422, Poly_aftertouch_c, 0, 65, 0
1, 81452, Note_off_c, 0, 64, 62
1, 81452, Poly_aftertouch_c, 0, 65, 0
1, 81467, Note_on_c, 0, 58, 67
1, 81490, Note_off_c, 0, 58, 66
1, 81541, Note_on_c, 0, 55, 70
1, 81584, Note_off_c, 0, 55, 61
1, 81598, Note_on_c, 0, 52, 76
1, 81714, Note_on_c, 0, 46, 86
1, 81726, Note_off_c, 0, 52, 58
1, 81741, Note_off_c, 0, 46, 69
1, 81882, Note_off_c, 0, 61, 57
1, 81897, Note_off_c, 0, 73, 58
1, 82126, Note_on_c, 0, 60, 96
1, 82126, Note_on_c, 0, 72, 89
1, 82393, Note_off_c, 0, 72, 54
1, 82396, Note_off_c, 0, 60, 53
1, 82700, Note_on_c, 0, 59, 89
1, 82705, Note_on_c, 0, 71, 83
1, 82904, Note_off_c, 0, 59, 60
1, 82942, Note_off_c, 0, 71, 58
1, 83072, Note_on_c, 0, 60, 92
1, 83075, Note_on_c, 0, 72, 81
1, 83135, Note_off_c, 0, 72, 59
1, 83146, Note_off_c, 0, 60, 54
1, 83225, Poly_aftertouch_c, 0, 70, 0
1, 83268, Note_on_c, 0, 59, 86
1, 83270, Note_on_c, 0, 71, 83
1, 83300, Note_off_c, 0, 59, 60
1, 83326, Note_off_c, 0, 71, 59
1, 83372, Poly_aftertouch_c, 0, 68, 127
1, 83413, Poly_aftertouch_c, 0, 68, 0
1, 83413, Note_on_c, 0, 60, 88
1, 83418, Note_on_c, 0, 72, 78
1, 83434, Note_off_c, 0, 72, 67
1, 83437, Note_off_c, 0, 60, 63
1, 83496, Poly_aftertouch_c, 0, 70, 127
1, 83523, Note_on_c, 0, 59, 85
1, 83529, Note_on_c, 0, 71, 82
1, 83534, Poly_aftertouch_c, 0, 70, 0
1, 83547, Note_on_c, 0, 68, 50
1, 83547, Note_off_c, 0, 59, 66
1, 83553, Note_off_c, 0, 71, 58
1, 83571, Note_off_c, 0, 68, 58
1, 83617, Note_on_c, 0, 60, 95
1, 83625, Note_on_c, 0, 72, 76
1, 83642, Note_on_c, 0, 70, 52
1, 83645, Note_off_c, 0, 60, 63
1, 83648, Note_off_c, 0, 72, 68
1, 83664, Note_off_c, 0, 70, 61
1, 83712, Note_on_c, 0, 59, 90
1, 83719, Note_on_c, 0, 71, 79
1, 83742, Note_off_c, 0, 59, 65
1, 83744, Note_off_c, 0, 71, 62
1, 83781, Poly_aftertouch_c, 0, 68, 127
1, 83791, Poly_aftertouch_c, 0, 63, 127
1, 83813, Note_on_c, 0, 60, 100
1, 83819, Note_on_c, 0, 72, 92
1, 83825, Poly_aftertouch_c, 0, 68, 0
1, 83826, Poly_aftertouch_c, 0, 63, 0
1, 83834, Note_on_c, 0, 70, 48
1, 83854, Note_off_c, 0, 72, 56
1, 83854, Note_off_c, 0, 60, 60
1, 83861, Note_off_c, 0, 70, 57
1, 83932, Note_on_c, 0, 59, 94
1, 83938, Note_on_c, 0, 71, 82
1, 83955, Poly_aftertouch_c, 0, 62, 0
1, 83964, Note_off_c, 0, 59, 66
1, 83967, Note_on_c, 0, 68, 49
1, 83993, Note_off_c, 0, 68, 55
1, 83997, Note_off_c, 0, 71, 60
1, 84087, Note_on_c, 0, 60, 97
1, 84093, Note_on_c, 0, 72, 91
1, 84110, Note_on_c, 0, 68, 38
1, 84113, Note_off_c, 0, 60, 63
1, 84115, Note_on_c, 0, 66, 53
1, 84140, Note_off_c, 0, 72, 61
1, 84145, Note_off_c, 0, 68, 51
1, 84149, Note_off_c, 0, 66, 62
1, 84243, Note_on_c, 0, 63, 103
1, 84246, Note_on_c, 0, 75, 95
1, 84259, Note_on_c, 0, 68, 53
1, 84260, Note_off_c, 0, 63, 70
1, 84270, Note_off_c, 0, 75, 59
1, 84272, Note_on_c, 0, 73, 45
1, 84282, Note_off_c, 0, 68, 60
1, 84295, Note_off_c, 0, 73, 59
1, 84444, Poly_aftertouch_c, 0, 68, 127
1, 84469, Control_c, 0, 64, 88
1, 84484, Note_on_c, 0, 61, 99
1, 84485, Poly_aftertouch_c, 0, 68, 0
1, 84485, Control_c, 0, 64, 57
1, 84500, Control_c, 0, 64, 0
1, 84502, Note_on_c, 0, 72, 77
1, 84515, Control_c, 0, 64, 49
1, 84525, Note_off_c, 0, 72, 67
1, 84529, Control_c, 0, 64, 66
1, 84531, Note_on_c, 0, 70, 36
1, 84538, Note_off_c, 0, 61, 63
1, 84544, Control_c, 0, 64, 82
1, 84559, Control_c, 0, 64, 127
1, 84563, Note_off_c, 0, 70, 49
1, 84972, Note_on_c, 0, 60, 79
1, 84982, Note_on_c, 0, 72, 65
1, 84996, Note_off_c, 0, 60, 67
1, 84999, Note_off_c, 0, 72, 66
1, 85030, Note_on_c, 0, 60, 91
1, 85032, Note_on_c, 0, 29, 100
1, 85034, Note_on_c, 0, 72, 92
1, 85040, Control_c, 0, 64, 77
1, 85055, Control_c, 0, 64, 49
1, 85059, Poly_aftertouch_c, 0, 70, 127
1, 85061, Note_off_c, 0, 29, 65
1, 85069, Note_on_c, 0, 70, 1
1, 85070, Control_c, 0, 64, 0
1, 85091, Note_off_c, 0, 70, 46
1, 85100, Control_c, 0, 64, 36
1, 85115, Control_c, 0, 64, 66
1, 85129, Control_c, 0, 64, 81
1, 85144, Control_c, 0, 64, 127
1, 85216, Note_off_c, 0, 60, 55
1, 85221, Note_off_c, 0, 72, 57
1, 85381, Note_on_c, 0, 41, 73
1, 85466, Note_on_c, 0, 48, 74
1, 85476, Note_off_c, 0, 41, 54
1, 85555, Note_off_c, 0, 48, 59
1, 85560, Note_on_c, 0, 53, 75
1, 85568, Note_on_c, 0, 57, 81
1, 85589, Note_off_c, 0, 53, 66
1, 85597, Note_off_c, 0, 57, 65
1, 85638, Note_on_c, 0, 57, 71
1, 85701, Note_off_c, 0, 57, 63
1, 85704, Note_on_c, 0, 60, 74
1, 85758, Note_off_c, 0, 60, 60
1, 85771, Note_on_c, 0, 65, 68
1, 85786, Note_on_c, 0, 69, 69
1, 85796, Note_off_c, 0, 65, 63
1, 85812, Note_off_c, 0, 69, 67
1, 85860, Note_on_c, 0, 69, 73
1, 85906, Note_off_c, 0, 69, 59
1, 85913, Note_on_c, 0, 72, 79
1, 85973, Note_off_c, 0, 72, 59
1, 85982, Note_on_c, 0, 77, 70
1, 85997, Note_on_c, 0, 81, 63
1, 86006, Note_off_c, 0, 77, 68
1, 86015, Note_off_c, 0, 81, 67
1, 86069, Note_on_c, 0, 81, 83
1, 86114, Note_off_c, 0, 81, 65
1, 86123, Note_on_c, 0, 84, 74
1, 86173, Note_on_c, 0, 89, 79
1, 86176, Note_on_c, 0, 93, 82
1, 86187, Note_off_c, 0, 84, 61
1, 86208, Note_off_c, 0, 93, 64
1, 86218, Note_off_c, 0, 89, 62
1, 86257, Note_on_c, 0, 89, 77
1, 86261, Note_on_c, 0, 93, 84
1, 86334, Note_on_c, 0, 84, 78
1, 86364, Note_off_c, 0, 93, 60
1, 86381, Note_off_c, 0, 89, 63
1, 86405, Note_on_c, 0, 81, 75
1, 86405, Note_off_c, 0, 84, 61
1, 86426, Note_off_c, 0, 81, 71
1, 86481, Note_on_c, 0, 77, 75
1, 86486, Note_on_c, 0, 81, 68
1, 86542, Note_on_c, 0, 72, 78
1, 86576, Note_off_c, 0, 81, 52
1, 86578, Note_off_c, 0, 77, 61
1, 86607, Note_on_c, 0, 69, 83
1, 86647, Note_off_c, 0, 72, 56
1, 86658, Note_off_c, 0, 69, 64
1, 86671, Note_on_c, 0, 48, 73
1, 86680, Note_on_c, 0, 60, 99
1, 86701, Note_on_c, 0, 77, 72
1, 86709, Note_on_c, 0, 81, 66
1, 86716, Control_c, 0, 64, 102
1, 86731, Control_c, 0, 64, 75
1, 86745, Control_c, 0, 64, 58
1, 86760, Control_c, 0, 64, 0
1, 86790, Control_c, 0, 64, 61
1, 86796, Note_on_c, 0, 72, 74
1, 86805, Control_c, 0, 64, 80
1, 86819, Control_c, 0, 64, 127
1, 86842, Note_off_c, 0, 60, 59
1, 86853, Note_off_c, 0, 81, 60
1, 86872, Note_off_c, 0, 77, 60
1, 86888, Note_on_c, 0, 69, 81
1, 86890, Note_off_c, 0, 48, 61
1, 86899, Note_off_c, 0, 72, 61
1, 86936, Note_off_c, 0, 69, 61
1, 87002, Note_on_c, 0, 69, 64
1, 87006, Note_on_c, 0, 65, 71
1, 87103, Note_on_c, 0, 60, 73
1, 87177, Note_off_c, 0, 60, 57
1, 87201, Note_on_c, 0, 57, 79
1, 87219, Note_off_c, 0, 69, 0
1, 87251, Note_off_c, 0, 57, 54
1, 87256, Poly_aftertouch_c, 0, 69, 127
1, 87380, Poly_aftertouch_c, 0, 69, 0
1, 87390, Control_c, 0, 64, 94
1, 87398, Note_off_c, 0, 65, 36
1, 87401, Note_on_c, 0, 50, 67
1, 87405, Control_c, 0, 64, 70
1, 87407, Note_on_c, 0, 62, 92
1, 87420, Control_c, 0, 64, 54
1, 87435, Control_c, 0, 64, 51
1, 87449, Control_c, 0, 64, 64
1, 87458, Note_off_c, 0, 62, 57
1, 87464, Control_c, 0, 64, 75
1, 87479, Control_c, 0, 64, 111
1, 87494, Control_c, 0, 64, 127
1, 87498, Note_off_c, 0, 50, 62
1, 87534, Note_on_c, 0, 59, 68
1, 87595, Note_off_c, 0, 59, 60
1, 87597, Note_on_c, 0, 41, 53
1, 87603, Note_on_c, 0, 62, 63
1, 87625, Note_on_c, 0, 65, 50
1, 87668, Note_on_c, 0, 47, 71
1, 87672, Note_off_c, 0, 62, 59
1, 87679, Note_on_c, 0, 69, 61
1, 87698, Note_off_c, 0, 65, 60
1, 87716, Note_off_c, 0, 69, 65
1, 87727, Note_on_c, 0, 50, 100
1, 87734, Note_off_c, 0, 47, 63
1, 87748, Note_off_c, 0, 41, 60
1, 87766, Note_off_c, 0, 50, 62
1, 87788, Note_on_c, 0, 69, 73
1, 87835, Note_off_c, 0, 69, 56
1, 87856, Note_on_c, 0, 74, 74
1, 87863, Note_on_c, 0, 77, 70
1, 87929, Note_on_c, 0, 81, 80
1, 87934, Note_off_c, 0, 74, 61
1, 87950, Note_off_c, 0, 77, 61
1, 87972, Note_off_c, 0, 81, 62
1, 87982, Note_on_c, 0, 53, 75
1, 87984, Note_on_c, 0, 65, 94
1, 88014, Poly_aftertouch_c, 0, 56, 127
1, 88036, Poly_aftertouch_c, 0, 54, 0
1, 88068, Note_on_c, 0, 81, 86
1, 88134, Note_on_c, 0, 89, 75
1, 88146, Note_on_c, 0, 86, 80
1, 88167, Note_off_c, 0, 81, 64
1, 88180, Note_off_c, 0, 65, 58
1, 88210, Note_off_c, 0, 53, 61
1, 88227, Note_on_c, 0, 93, 100
1, 88238, Note_off_c, 0, 86, 66
1, 88248, Note_off_c, 0, 89, 66
1, 88256, Note_off_c, 0, 93, 69
1, 88260, Poly_aftertouch_c, 0, 56, 0
1, 88547, Control_c, 0, 64, 101
1, 88562, Control_c, 0, 64, 74
1, 88571, Note_on_c, 0, 55, 63
1, 88577, Control_c, 0, 64, 64
1, 88584, Note_on_c, 0, 67, 98
1, 88592, Control_c, 0, 64, 65
1, 88607, Control_c, 0, 64, 72
1, 88621, Control_c, 0, 64, 89
1, 88631, Note_off_c, 0, 67, 59
1, 88636, Control_c, 0, 64, 127
1, 88673, Note_off_c, 0, 55, 63
1, 88728, Note_on_c, 0, 58, 80
1, 88781, Note_off_c, 0, 58, 65
1, 88802, Note_on_c, 0, 46, 35
1, 88813, Note_on_c, 0, 61, 72
1, 88817, Note_on_c, 0, 64, 47
1, 88844, Note_off_c, 0, 46, 58
1, 88844, Note_off_c, 0, 61, 65
1, 88848, Note_on_c, 0, 41, 49
1, 88870, Note_on_c, 0, 69, 69
1, 88880, Note_off_c, 0, 64, 62
1, 88883, Note_on_c, 0, 49, 82
1, 88895, Note_off_c, 0, 69, 67
1, 88946, Note_on_c, 0, 52, 99
1, 88947, Poly_aftertouch_c, 0, 62, 0
1, 88967, Note_off_c, 0, 41, 61
1, 88971, Note_off_c, 0, 49, 61
1, 88986, Note_off_c, 0, 52, 66
1, 89030, Note_on_c, 0, 70, 81
1, 89085, Note_off_c, 0, 70, 58
1, 89105, Note_on_c, 0, 76, 62
1, 89106, Note_on_c, 0, 73, 77
1, 89160, Note_off_c, 0, 73, 63
1, 89170, Note_on_c, 0, 81, 67
1, 89176, Note_off_c, 0, 76, 63
1, 89196, Note_on_c, 0, 57, 73
1, 89202, Note_off_c, 0, 81, 70
1, 89210, Note_on_c, 0, 69, 100
1, 89245, Poly_aftertouch_c, 0, 62, 127
1, 89304, Note_on_c, 0, 82, 89
1, 89378, Note_on_c, 0, 88, 85
1, 89381, Note_off_c, 0, 82, 60
1, 89385, Note_on_c, 0, 85, 85
1, 89469, Note_on_c, 0, 93, 96
1, 89480, Note_off_c, 0, 85, 67
1, 89488, Note_off_c, 0, 88, 69
1, 89499, Note_off_c, 0, 93, 64
1, 89518, Poly_aftertouch_c, 0, 62, 0
1, 89553, Note_off_c, 0, 57, 59
1, 89610, Note_off_c, 0, 69, 55
1, 89853, Note_on_c, 0, 60, 75
1, 89869, Note_on_c, 0, 72, 110
1, 89899, Note_off_c, 0, 72, 69
1, 89902, Note_off_c, 0, 60, 62
1, 89962, Poly_aftertouch_c, 0, 68, 127
1, 90003, Poly_aftertouch_c, 0, 68, 0
1, 90197, Poly_aftertouch_c, 0, 66, 0
1, 90253, Note_on_c, 0, 57, 70
1, 90323, Note_off_c, 0, 57, 61
1, 90329, Note_on_c, 0, 60, 67
1, 90415, Note_on_c, 0, 65, 56
1, 90418, Note_off_c, 0, 60, 58
1, 90426, Poly_aftertouch_c, 0, 32, 0
1, 90428, Note_on_c, 0, 41, 77
1, 90433, Note_on_c, 0, 33, 69
1, 90436, Note_on_c, 0, 69, 64
1, 90436, Note_on_c, 0, 36, 69
1, 90442, Note_on_c, 0, 29, 41
1, 90446, Control_c, 0, 64, 93
1, 90448, Note_off_c, 0, 65, 65
1, 90460, Note_off_c, 0, 41, 63
1, 90461, Control_c, 0, 64, 66
1, 90465, Note_off_c, 0, 69, 65
1, 90468, Note_off_c, 0, 36, 64
1, 90475, Control_c, 0, 64, 49
1, 90482, Note_off_c, 0, 29, 0
1, 90482, Note_on_c, 0, 29, 24
1, 90490, Control_c, 0, 64, 58
1, 90497, Note_on_c, 0, 41, 101
1, 90502, Note_on_c, 0, 36, 83
1, 90505, Control_c, 0, 64, 69
1, 90519, Note_on_c, 0, 69, 64
1, 90519, Control_c, 0, 64, 90
1, 90534, Control_c, 0, 64, 127
1, 90540, Note_off_c, 0, 41, 64
1, 90561, Note_off_c, 0, 33, 59
1, 90561, Note_off_c, 0, 36, 63
1, 90574, Note_off_c, 0, 69, 62
1, 90579, Note_on_c, 0, 72, 74
1, 90599, Note_off_c, 0, 29, 51
1, 90663, Note_off_c, 0, 72, 59
1, 90675, Note_on_c, 0, 81, 74
1, 90679, Note_on_c, 0, 77, 53
1, 90710, Note_off_c, 0, 81, 64
1, 90717, Note_off_c, 0, 77, 63
1, 90779, Note_on_c, 0, 81, 82
1, 90826, Note_off_c, 0, 81, 61
1, 90840, Note_on_c, 0, 84, 74
1, 90900, Note_on_c, 0, 93, 80
1, 90901, Note_on_c, 0, 89, 74
1, 90907, Note_off_c, 0, 84, 61
1, 90921, Note_off_c, 0, 93, 67
1, 90925, Note_off_c, 0, 89, 68
1, 90969, Note_on_c, 0, 89, 92
1, 90970, Note_on_c, 0, 93, 85
1, 91055, Note_on_c, 0, 84, 78
1, 91103, Poly_aftertouch_c, 0, 88, 0
1, 91106, Note_off_c, 0, 93, 61
1, 91121, Note_off_c, 0, 89, 63
1, 91141, Note_off_c, 0, 84, 63
1, 91144, Note_on_c, 0, 81, 72
1, 91172, Note_off_c, 0, 81, 63
1, 91223, Note_on_c, 0, 81, 69
1, 91224, Note_on_c, 0, 77, 78
1, 91297, Note_on_c, 0, 72, 73
1, 91307, Note_off_c, 0, 81, 55
1, 91327, Note_off_c, 0, 77, 62
1, 91360, Note_on_c, 0, 69, 81
1, 91408, Note_off_c, 0, 72, 57
1, 91445, Poly_aftertouch_c, 0, 56, 127
1, 91463, Note_off_c, 0, 69, 61
1, 91465, Note_on_c, 0, 48, 68
1, 91473, Note_on_c, 0, 60, 98
1, 91478, Note_on_c, 0, 77, 61
1, 91494, Note_on_c, 0, 56, 11
1, 91506, Note_on_c, 0, 81, 59
1, 91512, Control_c, 0, 64, 84
1, 91527, Control_c, 0, 64, 68
1, 91541, Note_off_c, 0, 56, 49
1, 91542, Control_c, 0, 64, 65
1, 91557, Control_c, 0, 64, 69
1, 91572, Control_c, 0, 64, 81
1, 91587, Control_c, 0, 64, 112
1, 91589, Note_on_c, 0, 72, 68
1, 91601, Control_c, 0, 64, 127
1, 91644, Note_off_c, 0, 60, 59
1, 91651, Note_off_c, 0, 81, 58
1, 91667, Note_off_c, 0, 48, 60
1, 91670, Note_off_c, 0, 77, 61
1, 91689, Note_on_c, 0, 69, 79
1, 91700, Note_off_c, 0, 72, 60
1, 91743, Note_off_c, 0, 69, 61
1, 91785, Poly_aftertouch_c, 0, 69, 0
1, 91790, Note_on_c, 0, 69, 56
1, 91795, Note_on_c, 0, 65, 74
1, 91891, Note_on_c, 0, 60, 77
1, 91991, Note_off_c, 0, 69, 0
1, 91992, Note_on_c, 0, 57, 83
1, 92001, Note_off_c, 0, 60, 56
1, 92028, Poly_aftertouch_c, 0, 69, 127
1, 92029, Note_on_c, 0, 69, 17
1, 92035, Note_off_c, 0, 57, 62
1, 92127, Note_off_c, 0, 69, 56
1, 92150, Control_c, 0, 64, 88
1, 92156, Note_on_c, 0, 50, 72
1, 92156, Note_off_c, 0, 65, 38
1, 92165, Control_c, 0, 64, 70
1, 92168, Note_on_c, 0, 62, 93
1, 92187, Control_c, 0, 64, 63
1, 92202, Control_c, 0, 64, 65
1, 92214, Note_off_c, 0, 62, 61
1, 92217, Control_c, 0, 64, 74
1, 92232, Control_c, 0, 64, 96
1, 92246, Control_c, 0, 64, 127
1, 92261, Note_off_c, 0, 50, 62
1, 92305, Note_on_c, 0, 59, 67
1, 92352, Note_on_c, 0, 41, 64
1, 92356, Note_off_c, 0, 59, 60
1, 92365, Note_on_c, 0, 62, 62
1, 92387, Note_on_c, 0, 65, 48
1, 92425, Note_on_c, 0, 47, 72
1, 92425, Note_off_c, 0, 62, 56
1, 92440, Note_on_c, 0, 69, 53
1, 92451, Note_off_c, 0, 65, 60
1, 92475, Note_off_c, 0, 69, 63
1, 92478, Note_on_c, 0, 50, 92
1, 92481, Note_off_c, 0, 47, 65
1, 92499, Note_off_c, 0, 41, 62
1, 92511, Note_off_c, 0, 50, 65
1, 92539, Note_on_c, 0, 69, 78
1, 92588, Note_off_c, 0, 69, 62
1, 92604, Note_on_c, 0, 74, 72
1, 92613, Note_on_c, 0, 77, 68
1, 92683, Note_off_c, 0, 74, 60
1, 92684, Note_on_c, 0, 81, 68
1, 92698, Note_off_c, 0, 77, 62
1, 92718, Note_off_c, 0, 81, 63
1, 92728, Note_on_c, 0, 53, 80
1, 92732, Note_on_c, 0, 65, 94
1, 92751, Poly_aftertouch_c, 0, 56, 127
1, 92767, Note_on_c, 0, 64, 47
1, 92768, Note_off_c, 0, 64, 127
1, 92811, Note_on_c, 0, 81, 83
1, 92882, Note_on_c, 0, 89, 73
1, 92883, Note_on_c, 0, 86, 80
1, 92911, Note_off_c, 0, 81, 62
1, 92918, Note_off_c, 0, 53, 61
1, 92927, Poly_aftertouch_c, 0, 56, 0
1, 92942, Note_off_c, 0, 65, 58
1, 92978, Note_on_c, 0, 93, 99
1, 92985, Note_off_c, 0, 86, 66
1, 92993, Note_off_c, 0, 89, 65
1, 93007, Note_off_c, 0, 93, 65
1, 93188, Control_c, 0, 64, 79
1, 93202, Note_on_c, 0, 55, 65
1, 93203, Control_c, 0, 64, 73
1, 93208, Note_on_c, 0, 67, 97
1, 93218, Control_c, 0, 64, 80
1, 93229, Note_on_c, 0, 57, 61
1, 93230, Note_off_c, 0, 57, 127
1, 93232, Control_c, 0, 64, 105
1, 93243, Note_off_c, 0, 67, 62
1, 93247, Control_c, 0, 64, 127
1, 93281, Note_off_c, 0, 55, 63
1, 93351, Note_on_c, 0, 58, 71
1, 93393, Note_off_c, 0, 58, 63
1, 93398, Note_on_c, 0, 46, 37
1, 93405, Poly_aftertouch_c, 0, 57, 0
1, 93422, Note_on_c, 0, 64, 49
1, 93423, Note_on_c, 0, 61, 76
1, 93450, Note_off_c, 0, 61, 65
1, 93454, Note_off_c, 0, 46, 59
1, 93456, Note_on_c, 0, 41, 51
1, 93472, Note_on_c, 0, 69, 75
1, 93486, Note_off_c, 0, 64, 64
1, 93489, Note_on_c, 0, 49, 78
1, 93494, Note_off_c, 0, 69, 69
1, 93548, Note_on_c, 0, 52, 98
1, 93569, Note_off_c, 0, 49, 60
1, 93571, Note_off_c, 0, 41, 62
1, 93573, Note_on_c, 0, 50, 38
1, 93574, Note_off_c, 0, 50, 127
1, 93585, Note_off_c, 0, 52, 66
1, 93645, Note_on_c, 0, 70, 76
1, 93691, Note_off_c, 0, 70, 57
1, 93722, Note_on_c, 0, 73, 77
1, 93725, Note_on_c, 0, 76, 59
1, 93778, Note_off_c, 0, 73, 64
1, 93789, Note_on_c, 0, 81, 71
1, 93802, Note_off_c, 0, 76, 62
1, 93806, Note_on_c, 0, 57, 66
1, 93811, Note_off_c, 0, 81, 69
1, 93822, Note_on_c, 0, 69, 101
1, 93915, Note_on_c, 0, 82, 89
1, 93992, Note_on_c, 0, 88, 85
1, 94001, Note_on_c, 0, 85, 81
1, 94008, Note_off_c, 0, 82, 61
1, 94085, Note_on_c, 0, 93, 86
1, 94087, Note_on_c, 0, 92, 79
1, 94089, Note_off_c, 0, 85, 67
1, 94093, Note_off_c, 0, 88, 68
1, 94099, Note_off_c, 0, 93, 73
1, 94102, Note_off_c, 0, 57, 56
1, 94105, Note_off_c, 0, 92, 67
1, 94152, Note_off_c, 0, 69, 62
1, 94460, Note_on_c, 0, 60, 74
1, 94471, Note_on_c, 0, 72, 103
1, 94496, Note_off_c, 0, 72, 71
1, 94505, Note_off_c, 0, 60, 62
1, 94512, Note_on_c, 0, 68, 30
1, 94548, Note_off_c, 0, 68, 49
1, 94839, Note_on_c, 0, 57, 63
1, 94925, Note_off_c, 0, 57, 60
1, 94927, Note_on_c, 0, 60, 65
1, 95012, Note_on_c, 0, 65, 54
1, 95015, Note_off_c, 0, 60, 57
1, 95030, Note_on_c, 0, 41, 72
1, 95032, Note_on_c, 0, 36, 74
1, 95036, Note_on_c, 0, 69, 60
1, 95038, Note_on_c, 0, 33, 62
1, 95056, Note_off_c, 0, 41, 62
1, 95056, Note_off_c, 0, 65, 60
1, 95069, Note_off_c, 0, 36, 67
1, 95071, Note_off_c, 0, 69, 63
1, 95071, Control_c, 0, 64, 80
1, 95075, Note_on_c, 0, 29, 6
1, 95086, Control_c, 0, 64, 51
1, 95088, Note_off_c, 0, 33, 0
1, 95101, Note_on_c, 0, 36, 70
1, 95101, Note_on_c, 0, 41, 97
1, 95101, Control_c, 0, 64, 0
1, 95116, Control_c, 0, 64, 17
1, 95122, Note_on_c, 0, 69, 69
1, 95125, Poly_aftertouch_c, 0, 33, 127
1, 95131, Control_c, 0, 64, 59
1, 95146, Control_c, 0, 64, 71
1, 95161, Control_c, 0, 64, 99
1, 95161, Note_off_c, 0, 41, 64
1, 95182, Control_c, 0, 64, 127
1, 95187, Poly_aftertouch_c, 0, 33, 0
1, 95188, Note_off_c, 0, 36, 63
1, 95196, Note_on_c, 0, 72, 73
1, 95205, Note_off_c, 0, 69, 60
1, 95229, Note_off_c, 0, 29, 51
1, 95286, Note_off_c, 0, 72, 60
1, 95301, Note_on_c, 0, 77, 69
1, 95305, Note_on_c, 0, 81, 74
1, 95325, Note_off_c, 0, 77, 68
1, 95336, Note_off_c, 0, 81, 62
1, 95395, Note_on_c, 0, 81, 77
1, 95453, Note_off_c, 0, 81, 62
1, 95475, Note_on_c, 0, 84, 69
1, 95524, Note_on_c, 0, 89, 68
1, 95530, Note_on_c, 0, 93, 75
1, 95533, Note_off_c, 0, 84, 61
1, 95550, Note_off_c, 0, 93, 70
1, 95553, Note_off_c, 0, 89, 64
1, 95603, Note_on_c, 0, 89, 86
1, 95604, Note_on_c, 0, 93, 83
1, 95695, Note_on_c, 0, 84, 79
1, 95736, Note_off_c, 0, 93, 59
1, 95751, Note_off_c, 0, 89, 62
1, 95777, Note_on_c, 0, 81, 74
1, 95780, Note_off_c, 0, 84, 61
1, 95809, Note_off_c, 0, 81, 55
1, 95856, Note_on_c, 0, 81, 60
1, 95859, Note_on_c, 0, 77, 74
1, 95930, Note_on_c, 0, 72, 76
1, 95953, Note_off_c, 0, 81, 55
1, 95970, Note_off_c, 0, 77, 60
1, 95997, Note_on_c, 0, 69, 82
1, 96051, Note_off_c, 0, 72, 59
1, 96081, Note_on_c, 0, 45, 91
1, 96083, Note_on_c, 0, 40, 80
1, 96085, Note_on_c, 0, 48, 90
1, 96091, Note_off_c, 0, 69, 60
1, 96095, Control_c, 0, 64, 81
1, 96098, Note_on_c, 0, 77, 71
1, 96106, Note_on_c, 0, 81, 59
1, 96110, Control_c, 0, 64, 48
1, 96125, Control_c, 0, 64, 0
1, 96169, Control_c, 0, 64, 59
1, 96184, Control_c, 0, 64, 70
1, 96191, Note_on_c, 0, 72, 74
1, 96199, Control_c, 0, 64, 87
1, 96213, Control_c, 0, 64, 127
1, 96240, Note_off_c, 0, 81, 59
1, 96263, Note_off_c, 0, 48, 60
1, 96264, Note_off_c, 0, 77, 59
1, 96284, Note_on_c, 0, 69, 76
1, 96291, Note_off_c, 0, 72, 61
1, 96303, Note_off_c, 0, 45, 60
1, 96309, Note_off_c, 0, 40, 61
1, 96323, Note_off_c, 0, 69, 56
1, 96385, Note_on_c, 0, 65, 67
1, 96387, Note_on_c, 0, 69, 59
1, 96454, Note_on_c, 0, 60, 69
1, 96478, Note_off_c, 0, 65, 57
1, 96535, Note_off_c, 0, 60, 58
1, 96545, Note_on_c, 0, 57, 61
1, 96553, Note_on_c, 0, 39, 68
1, 96583, Note_off_c, 0, 69, 0
1, 96603, Note_on_c, 0, 69, 20
1, 96638, Note_on_c, 0, 42, 76
1, 96649, Note_off_c, 0, 39, 60
1, 96668, Note_off_c, 0, 57, 57
1, 96713, Note_on_c, 0, 60, 32
1, 96714, Note_on_c, 0, 45, 74
1, 96720, Note_on_c, 0, 66, 25
1, 96726, Control_c, 0, 64, 83
1, 96735, Note_off_c, 0, 42, 56
1, 96740, Control_c, 0, 64, 63
1, 96755, Control_c, 0, 64, 50
1, 96765, Note_on_c, 0, 63, 13
1, 96767, Note_on_c, 0, 48, 91
1, 96770, Control_c, 0, 64, 60
1, 96785, Control_c, 0, 64, 69
1, 96790, Note_off_c, 0, 60, 59
1, 96791, Note_off_c, 0, 45, 62
1, 96795, Note_off_c, 0, 69, 61
1, 96798, Note_off_c, 0, 48, 60
1, 96798, Control_c, 0, 64, 85
1, 96809, Note_off_c, 0, 63, 42
1, 96812, Control_c, 0, 64, 127
1, 96829, Note_off_c, 0, 66, 39
1, 97009, Note_on_c, 0, 57, 60
1, 97020, Control_c, 0, 64, 91
1, 97035, Control_c, 0, 64, 87
1, 97050, Control_c, 0, 64, 99
1, 97065, Control_c, 0, 64, 127
1, 97071, Note_on_c, 0, 37, 90
1, 97107, Note_on_c, 0, 60, 71
1, 97125, Note_off_c, 0, 37, 61
1, 97134, Note_off_c, 0, 57, 54
1, 97217, Note_on_c, 0, 66, 67
1, 97229, Note_on_c, 0, 69, 69
1, 97235, Note_off_c, 0, 60, 60
1, 97260, Note_off_c, 0, 69, 63
1, 97266, Note_off_c, 0, 66, 62
1, 97322, Note_on_c, 0, 52, 66
1, 97328, Note_on_c, 0, 57, 87
1, 97329, Note_on_c, 0, 49, 86
1, 97343, Note_on_c, 0, 69, 83
1, 97349, Note_off_c, 0, 57, 68
1, 97372, Note_off_c, 0, 52, 61
1, 97375, Note_off_c, 0, 49, 63
1, 97417, Note_on_c, 0, 73, 71
1, 97418, Note_off_c, 0, 69, 56
1, 97481, Poly_aftertouch_c, 0, 57, 127
1, 97503, Poly_aftertouch_c, 0, 57, 0
1, 97516, Note_on_c, 0, 81, 67
1, 97519, Note_off_c, 0, 73, 62
1, 97522, Note_on_c, 0, 76, 66
1, 97539, Note_off_c, 0, 76, 67
1, 97542, Note_off_c, 0, 81, 68
1, 97610, Note_on_c, 0, 81, 82
1, 97665, Control_c, 0, 64, 101
1, 97676, Note_on_c, 0, 85, 74
1, 97679, Note_off_c, 0, 81, 59
1, 97680, Control_c, 0, 64, 71
1, 97693, Note_on_c, 0, 36, 93
1, 97695, Control_c, 0, 64, 68
1, 97709, Control_c, 0, 64, 78
1, 97721, Note_on_c, 0, 93, 76
1, 97724, Control_c, 0, 64, 127
1, 97728, Note_on_c, 0, 88, 77
1, 97742, Note_off_c, 0, 36, 65
1, 97749, Note_off_c, 0, 85, 63
1, 97753, Note_off_c, 0, 93, 60
1, 97776, Note_off_c, 0, 88, 64
1, 97883, Note_on_c, 0, 56, 86
1, 97884, Note_on_c, 0, 48, 69
1, 97886, Note_on_c, 0, 68, 87
1, 97900, Note_on_c, 0, 50, 66
1, 97901, Note_off_c, 0, 48, 64
1, 97903, Note_off_c, 0, 56, 66
1, 97933, Note_off_c, 0, 50, 63
1, 97955, Poly_aftertouch_c, 0, 49, 0
1, 97959, Note_off_c, 0, 68, 59
1, 97960, Note_on_c, 0, 72, 71
1, 97987, Poly_aftertouch_c, 0, 49, 0
1, 98015, Poly_aftertouch_c, 0, 56, 127
1, 98037, Note_off_c, 0, 72, 60
1, 98045, Note_on_c, 0, 75, 68
1, 98053, Note_on_c, 0, 80, 64
1, 98053, Poly_aftertouch_c, 0, 56, 0
1, 98072, Note_off_c, 0, 75, 66
1, 98078, Note_off_c, 0, 80, 68
1, 98121, Note_on_c, 0, 80, 87
1, 98201, Note_off_c, 0, 80, 58
1, 98207, Note_on_c, 0, 84, 67
1, 98210, Note_on_c, 0, 83, 65
1, 98242, Note_on_c, 0, 32, 74
1, 98271, Note_on_c, 0, 87, 77
1, 98282, Note_off_c, 0, 32, 59
1, 98289, Note_on_c, 0, 92, 80
1, 98301, Note_off_c, 0, 83, 59
1, 98311, Note_off_c, 0, 84, 61
1, 98325, Note_off_c, 0, 87, 62
1, 98331, Note_off_c, 0, 92, 61
1, 98355, Control_c, 0, 64, 81
1, 98370, Note_on_c, 0, 44, 87
1, 98370, Control_c, 0, 64, 46
1, 98374, Note_on_c, 0, 51, 87
1, 98380, Note_on_c, 0, 87, 81
1, 98384, Control_c, 0, 64, 0
1, 98385, Note_on_c, 0, 92, 76
1, 98414, Control_c, 0, 64, 63
1, 98429, Control_c, 0, 64, 79
1, 98443, Note_off_c, 0, 51, 60
1, 98444, Control_c, 0, 64, 127
1, 98482, Note_off_c, 0, 44, 59
1, 98498, Note_on_c, 0, 84, 70
1, 98545, Note_off_c, 0, 87, 60
1, 98546, Note_off_c, 0, 92, 63
1, 98575, Note_off_c, 0, 84, 61
1, 98576, Note_on_c, 0, 80, 68
1, 98600, Note_off_c, 0, 80, 69
1, 98675, Note_on_c, 0, 75, 74
1, 98684, Note_on_c, 0, 80, 61
1, 98757, Note_on_c, 0, 72, 71
1, 98802, Note_on_c, 0, 37, 60
1, 98833, Note_on_c, 0, 68, 71
1, 98884, Note_on_c, 0, 44, 74
1, 98887, Note_off_c, 0, 37, 59
1, 98970, Note_on_c, 0, 49, 78
1, 98999, Note_off_c, 0, 44, 63
1, 99015, Control_c, 0, 64, 111
1, 99030, Control_c, 0, 64, 81
1, 99045, Control_c, 0, 64, 71
1, 99051, Note_on_c, 0, 54, 94
1, 99060, Control_c, 0, 64, 72
1, 99064, Note_off_c, 0, 49, 62
1, 99075, Control_c, 0, 64, 79
1, 99086, Note_on_c, 0, 46, 44
1, 99088, Note_off_c, 0, 54, 60
1, 99089, Control_c, 0, 64, 95
1, 99095, Note_off_c, 0, 68, 62
1, 99100, Note_off_c, 0, 80, 62
1, 99104, Control_c, 0, 64, 127
1, 99117, Note_off_c, 0, 46, 55
1, 99121, Note_off_c, 0, 72, 59
1, 99145, Note_off_c, 0, 75, 60
1, 99505, Note_on_c, 0, 66, 93
1, 99617, Note_on_c, 0, 37, 52
1, 99626, Note_on_c, 0, 68, 53
1, 99689, Note_on_c, 0, 78, 54
1, 99704, Note_on_c, 0, 44, 67
1, 99716, Note_on_c, 0, 73, 3
1, 99720, Note_off_c, 0, 66, 55
1, 99727, Note_off_c, 0, 37, 57
1, 99727, Note_off_c, 0, 78, 62
1, 99764, Note_off_c, 0, 73, 44
1, 99787, Note_on_c, 0, 49, 75
1, 99838, Control_c, 0, 64, 121
1, 99846, Note_off_c, 0, 44, 61
1, 99853, Control_c, 0, 64, 83
1, 99868, Note_on_c, 0, 52, 91
1, 99868, Control_c, 0, 64, 67
1, 99875, Note_off_c, 0, 68, 48
1, 99879, Note_on_c, 0, 64, 87
1, 99883, Control_c, 0, 64, 60
1, 99885, Note_off_c, 0, 49, 63
1, 99894, Note_off_c, 0, 52, 66
1, 99898, Control_c, 0, 64, 63
1, 99912, Control_c, 0, 64, 72
1, 99927, Control_c, 0, 64, 90
1, 99942, Control_c, 0, 64, 127
1, 99974, Note_on_c, 0, 68, 69
1, 99998, Note_off_c, 0, 64, 50
1, 100019, Note_on_c, 0, 73, 52
1, 100074, Note_off_c, 0, 68, 58
1, 100076, Note_on_c, 0, 76, 64
1, 100097, Note_off_c, 0, 73, 62
1, 100105, Note_off_c, 0, 76, 67
1, 100153, Note_on_c, 0, 76, 76
1, 100224, Note_off_c, 0, 76, 58
1, 100229, Note_on_c, 0, 80, 68
1, 100241, Note_on_c, 0, 85, 67
1, 100312, Note_off_c, 0, 80, 60
1, 100315, Note_on_c, 0, 88, 68
1, 100327, Note_off_c, 0, 85, 64
1, 100341, Note_off_c, 0, 88, 70
1, 100391, Note_on_c, 0, 88, 74
1, 100467, Note_on_c, 0, 92, 74
1, 100470, Note_off_c, 0, 88, 60
1, 100488, Note_on_c, 0, 97, 67
1, 100553, Note_on_c, 0, 100, 74
1, 100574, Note_off_c, 0, 100, 72
1, 100580, Note_off_c, 0, 92, 37
1, 100594, Note_off_c, 0, 97, 62
1, 100643, Note_on_c, 0, 100, 85
1, 100688, Note_on_c, 0, 35, 66
1, 100703, Note_on_c, 0, 97, 76
1, 100708, Note_on_c, 0, 92, 67
1, 100731, Note_on_c, 0, 40, 66
1, 100741, Note_off_c, 0, 100, 65
1, 100759, Note_off_c, 0, 35, 58
1, 100768, Note_on_c, 0, 44, 71
1, 100770, Note_on_c, 0, 88, 77
1, 100774, Note_off_c, 0, 97, 62
1, 100780, Note_off_c, 0, 92, 63
1, 100792, Note_off_c, 0, 88, 71
1, 100795, Control_c, 0, 64, 86
1, 100809, Control_c, 0, 64, 71
1, 100815, Note_off_c, 0, 40, 62
1, 100830, Poly_aftertouch_c, 0, 38, 0
1, 100836, Note_on_c, 0, 50, 89
1, 100839, Control_c, 0, 64, 84
1, 100854, Control_c, 0, 64, 127
1, 100860, Note_off_c, 0, 50, 68
1, 100866, Note_on_c, 0, 86, 72
1, 100879, Note_on_c, 0, 84, 74
1, 100895, Note_off_c, 0, 44, 52
1, 100944, Note_on_c, 0, 80, 62
1, 100953, Note_on_c, 0, 77, 50
1, 100960, Note_off_c, 0, 86, 50
1, 100979, Note_on_c, 0, 82, 19
1, 101004, Note_off_c, 0, 84, 20
1, 101006, Note_off_c, 0, 80, 62
1, 101008, Note_on_c, 0, 74, 75
1, 101018, Note_off_c, 0, 82, 41
1, 101021, Note_off_c, 0, 77, 61
1, 101035, Note_off_c, 0, 74, 64
1, 101108, Note_on_c, 0, 74, 77
1, 101161, Note_on_c, 0, 65, 67
1, 101175, Note_on_c, 0, 68, 65
1, 101199, Note_on_c, 0, 34, 56
1, 101200, Note_off_c, 0, 74, 50
1, 101238, Note_on_c, 0, 62, 83
1, 101274, Note_on_c, 0, 42, 64
1, 101276, Note_off_c, 0, 62, 58
1, 101280, Note_off_c, 0, 65, 58
1, 101304, Note_off_c, 0, 34, 59
1, 101310, Note_off_c, 0, 68, 58
1, 101321, Control_c, 0, 64, 104
1, 101334, Note_on_c, 0, 62, 88
1, 101335, Control_c, 0, 64, 76
1, 101343, Note_on_c, 0, 50, 85
1, 101350, Control_c, 0, 64, 65
1, 101364, Note_off_c, 0, 50, 68
1, 101365, Control_c, 0, 64, 65
1, 101371, Note_on_c, 0, 44, 43
1, 101380, Control_c, 0, 64, 74
1, 101395, Control_c, 0, 64, 90
1, 101405, Note_off_c, 0, 44, 51
1, 101409, Control_c, 0, 64, 127
1, 101429, Note_on_c, 0, 66, 73
1, 101435, Note_off_c, 0, 42, 33
1, 101443, Note_off_c, 0, 62, 54
1, 101500, Note_on_c, 0, 70, 65
1, 101516, Note_off_c, 0, 66, 58
1, 101526, Note_on_c, 0, 74, 67
1, 101531, Note_off_c, 0, 70, 63
1, 101552, Note_off_c, 0, 74, 68
1, 101610, Note_on_c, 0, 74, 68
1, 101671, Note_off_c, 0, 74, 57
1, 101680, Note_on_c, 0, 78, 66
1, 101686, Note_on_c, 0, 82, 64
1, 101738, Note_on_c, 0, 34, 58
1, 101754, Note_on_c, 0, 86, 81
1, 101793, Note_on_c, 0, 40, 69
1, 101794, Note_off_c, 0, 78, 61
1, 101796, Note_off_c, 0, 86, 63
1, 101816, Note_off_c, 0, 82, 60
1, 101838, Note_off_c, 0, 34, 57
1, 101839, Control_c, 0, 64, 107
1, 101846, Note_on_c, 0, 43, 61
1, 101854, Control_c, 0, 64, 70
1, 101868, Control_c, 0, 64, 42
1, 101881, Note_on_c, 0, 85, 82
1, 101883, Control_c, 0, 64, 45
1, 101886, Note_on_c, 0, 49, 85
1, 101898, Control_c, 0, 64, 63
1, 101912, Note_off_c, 0, 49, 67
1, 101913, Control_c, 0, 64, 75
1, 101914, Note_off_c, 0, 43, 60
1, 101934, Note_off_c, 0, 40, 60
1, 101935, Control_c, 0, 64, 127
1, 101996, Note_on_c, 0, 78, 69
1, 102005, Note_on_c, 0, 82, 65
1, 102067, Note_off_c, 0, 85, 57
1, 102087, Note_on_c, 0, 73, 73
1, 102102, Note_off_c, 0, 82, 60
1, 102109, Note_off_c, 0, 73, 68
1, 102111, Note_off_c, 0, 78, 62
1, 102226, Note_on_c, 0, 66, 68
1, 102302, Note_on_c, 0, 63, 56
1, 102309, Note_off_c, 0, 66, 48
1, 102333, Note_off_c, 0, 63, 64
1, 102341, Note_on_c, 0, 33, 59
1, 102347, Note_on_c, 0, 58, 43
1, 102382, Note_off_c, 0, 58, 64
1, 102401, Note_on_c, 0, 40, 62
1, 102416, Note_on_c, 0, 38, 8
1, 102416, Note_off_c, 0, 33, 57
1, 102458, Note_on_c, 0, 43, 68
1, 102487, Note_off_c, 0, 38, 43
1, 102521, Poly_aftertouch_c, 0, 54, 0
1, 102522, Note_on_c, 0, 49, 86
1, 102551, Note_off_c, 0, 43, 60
1, 102552, Note_off_c, 0, 49, 66
1, 102562, Note_off_c, 0, 40, 36
1, 102588, Control_c, 0, 64, 107
1, 102603, Control_c, 0, 64, 78
1, 102613, Note_on_c, 0, 64, 78
1, 102616, Note_on_c, 0, 52, 82
1, 102618, Control_c, 0, 64, 63
1, 102632, Control_c, 0, 64, 44
1, 102647, Control_c, 0, 64, 42
1, 102662, Control_c, 0, 64, 56
1, 102684, Control_c, 0, 64, 65
1, 102699, Control_c, 0, 64, 75
1, 102714, Control_c, 0, 64, 94
1, 102729, Control_c, 0, 64, 127
1, 102805, Note_on_c, 0, 55, 67
1, 102810, Note_off_c, 0, 52, 59
1, 102819, Note_off_c, 0, 64, 34
1, 102898, Note_on_c, 0, 61, 66
1, 102906, Note_off_c, 0, 55, 58
1, 102956, Note_on_c, 0, 64, 60
1, 102964, Note_off_c, 0, 61, 64
1, 102980, Note_off_c, 0, 64, 69
1, 102990, Note_on_c, 0, 55, 53
1, 103072, Note_on_c, 0, 61, 68
1, 103073, Note_off_c, 0, 55, 61
1, 103112, Note_off_c, 0, 61, 56
1, 103133, Note_on_c, 0, 64, 50
1, 103170, Note_off_c, 0, 64, 0
1, 103170, Note_on_c, 0, 64, 37
1, 103240, Note_on_c, 0, 67, 69
1, 103250, Note_off_c, 0, 64, 59
1, 103301, Note_on_c, 0, 73, 61
1, 103307, Note_on_c, 0, 76, 67
1, 103308, Note_off_c, 0, 67, 59
1, 103328, Note_off_c, 0, 73, 66
1, 103333, Note_off_c, 0, 76, 69
1, 103370, Note_on_c, 0, 67, 57
1, 103431, Note_on_c, 0, 73, 54
1, 103461, Note_off_c, 0, 67, 61
1, 103496, Note_on_c, 0, 76, 68
1, 103497, Note_off_c, 0, 73, 61
1, 103513, Note_off_c, 0, 76, 68
1, 103564, Note_on_c, 0, 76, 73
1, 103623, Note_on_c, 0, 79, 75
1, 103635, Note_off_c, 0, 76, 59
1, 103709, Note_on_c, 0, 88, 66
1, 103710, Note_on_c, 0, 85, 64
1, 103715, Note_off_c, 0, 79, 62
1, 103735, Note_off_c, 0, 85, 68
1, 103737, Note_off_c, 0, 88, 67
1, 103774, Note_on_c, 0, 79, 35
1, 103844, Note_on_c, 0, 85, 62
1, 103850, Note_off_c, 0, 79, 58
1, 103887, Note_off_c, 0, 85, 58
1, 103913, Note_on_c, 0, 88, 68
1, 103928, Note_off_c, 0, 88, 68
1, 104011, Note_on_c, 0, 88, 54
1, 104147, Note_on_c, 0, 91, 69
1, 104312, Note_off_c, 0, 88, 33
1, 104315, Note_on_c, 0, 87, 45
1, 104321, Note_on_c, 0, 96, 56
1, 104456, Note_off_c, 0, 91, 62
1, 104464, Note_off_c, 0, 87, 60
1, 104477, Note_on_c, 0, 97, 65
1, 104504, Note_on_c, 0, 88, 44
1, 104531, Note_off_c, 0, 96, 59
1, 104539, Control_c, 0, 67, 10
1, 104553, Control_c, 0, 67, 21
1, 104558, Note_off_c, 0, 88, 62
1, 104568, Control_c, 0, 67, 33
1, 104583, Control_c, 0, 67, 46
1, 104598, Control_c, 0, 67, 57
1, 104613, Control_c, 0, 67, 67
1, 104615, Note_on_c, 0, 99, 64
1, 104617, Note_on_c, 0, 90, 60
1, 104625, Note_off_c, 0, 97, 62
1, 104628, Control_c, 0, 67, 77
1, 104643, Control_c, 0, 67, 87
1, 104644, Note_off_c, 0, 90, 65
1, 104645, Note_off_c, 0, 99, 66
1, 104658, Control_c, 0, 67, 94
1, 104673, Control_c, 0, 67, 101
1, 104688, Control_c, 0, 67, 107
1, 104702, Control_c, 0, 67, 112
1, 104717, Control_c, 0, 67, 117
1, 104732, Control_c, 0, 67, 121
1, 104746, Control_c, 0, 67, 124
1, 104761, Control_c, 0, 67, 126
1, 104776, Control_c, 0, 67, 127
1, 104785, Note_on_c, 0, 93, 36
1, 104791, Control_c, 0, 67, 127
1, 104792, Note_on_c, 0, 102, 52
1, 104830, Note_off_c, 0, 93, 42
1, 104878, Note_off_c, 0, 102, 58
1, 104897, Note_on_c, 0, 92, 57
1, 104909, Note_on_c, 0, 101, 50
1, 104932, Note_off_c, 0, 92, 68
1, 104968, Note_off_c, 0, 101, 56
1, 104982, Note_on_c, 0, 100, 50
1, 105001, Note_on_c, 0, 91, 46
1, 105028, Note_off_c, 0, 91, 57
1, 105033, Note_off_c, 0, 100, 63
1, 105044, Note_on_c, 0, 99, 58
1, 105063, Note_on_c, 0, 90, 48
1, 105066, Note_off_c, 0, 99, 64
1, 105084, Note_off_c, 0, 90, 60
1, 105104, Note_on_c, 0, 98, 60
1, 105127, Note_on_c, 0, 89, 53
1, 105140, Note_off_c, 0, 98, 57
1, 105147, Note_off_c, 0, 89, 63
1, 105157, Note_on_c, 0, 97, 65
1, 105187, Note_on_c, 0, 88, 56
1, 105189, Note_off_c, 0, 97, 63
1, 105207, Note_off_c, 0, 88, 61
1, 105216, Note_on_c, 0, 96, 60
1, 105227, Control_c, 0, 67, 127
1, 105259, Note_on_c, 0, 87, 44
1, 105263, Note_off_c, 0, 96, 62
1, 105265, Note_on_c, 0, 95, 69
1, 105284, Note_off_c, 0, 87, 56
1, 105311, Note_on_c, 0, 86, 62
1, 105333, Note_off_c, 0, 95, 62
1, 105334, Note_on_c, 0, 94, 70
1, 105342, Note_off_c, 0, 86, 63
1, 105346, Control_c, 0, 67, 126
1, 105358, Note_off_c, 0, 94, 68
1, 105362, Note_on_c, 0, 85, 60
1, 105376, Note_on_c, 0, 93, 72
1, 105384, Note_off_c, 0, 85, 65
1, 105428, Note_off_c, 0, 93, 61
1, 105430, Note_on_c, 0, 84, 54
1, 105437, Note_on_c, 0, 92, 66
1, 105449, Note_off_c, 0, 84, 62
1, 105468, Note_off_c, 0, 92, 61
1, 105485, Note_on_c, 0, 91, 76
1, 105492, Note_on_c, 0, 83, 43
1, 105518, Note_off_c, 0, 83, 57
1, 105537, Note_off_c, 0, 91, 62
1, 105546, Note_on_c, 0, 90, 70
1, 105582, Poly_aftertouch_c, 0, 82, 0
1, 105585, Note_off_c, 0, 90, 62
1, 105592, Note_on_c, 0, 89, 66
1, 105609, Note_on_c, 0, 80, 56
1, 105615, Note_off_c, 0, 89, 63
1, 105633, Note_off_c, 0, 80, 63
1, 105651, Note_on_c, 0, 88, 33
1, 105674, Note_on_c, 0, 89, 34
1, 105686, Note_on_c, 0, 79, 67
1, 105689, Note_off_c, 0, 88, 55
1, 105705, Note_off_c, 0, 89, 55
1, 105716, Note_off_c, 0, 79, 65
1, 105716, Note_on_c, 0, 84, 66
1, 105754, Control_c, 0, 64, 101
1, 105768, Control_c, 0, 64, 83
1, 105771, Note_off_c, 0, 84, 59
1, 105774, Note_on_c, 0, 85, 69
1, 105783, Control_c, 0, 64, 74
1, 105791, Note_on_c, 0, 76, 47
1, 105795, Poly_aftertouch_c, 0, 75, 127
1, 105813, Control_c, 0, 64, 81
1, 105817, Note_off_c, 0, 76, 58
1, 105828, Control_c, 0, 64, 104
1, 105829, Poly_aftertouch_c, 0, 75, 0
1, 105832, Note_off_c, 0, 85, 58
1, 105839, Note_on_c, 0, 87, 57
1, 105842, Control_c, 0, 64, 127
1, 105847, Note_on_c, 0, 78, 66
1, 105871, Note_off_c, 0, 87, 63
1, 105875, Note_off_c, 0, 78, 66
1, 105889, Note_on_c, 0, 90, 66
1, 105916, Note_on_c, 0, 81, 48
1, 105940, Note_off_c, 0, 81, 58
1, 105960, Note_on_c, 0, 89, 63
1, 105972, Note_on_c, 0, 80, 63
1, 105996, Note_off_c, 0, 90, 58
1, 106000, Note_off_c, 0, 80, 65
1, 106005, Note_on_c, 0, 88, 60
1, 106049, Note_on_c, 0, 79, 63
1, 106058, Note_off_c, 0, 89, 62
1, 106059, Note_on_c, 0, 87, 67
1, 106060, Note_off_c, 0, 88, 64
1, 106070, Note_off_c, 0, 79, 66
1, 106083, Note_off_c, 0, 87, 66
1, 106095, Note_on_c, 0, 78, 71
1, 106106, Note_on_c, 0, 86, 64
1, 106121, Note_off_c, 0, 78, 67
1, 106156, Note_off_c, 0, 86, 57
1, 106163, Note_on_c, 0, 77, 65
1, 106168, Note_on_c, 0, 85, 67
1, 106191, Note_off_c, 0, 77, 63
1, 106195, Note_off_c, 0, 85, 66
1, 106217, Note_on_c, 0, 84, 71
1, 106223, Note_on_c, 0, 76, 60
1, 106242, Note_off_c, 0, 76, 65
1, 106266, Note_on_c, 0, 83, 63
1, 106285, Note_on_c, 0, 75, 50
1, 106303, Control_c, 0, 67, 127
1, 106309, Note_off_c, 0, 75, 58
1, 106324, Note_on_c, 0, 82, 74
1, 106324, Note_on_c, 0, 74, 66
1, 106327, Note_off_c, 0, 83, 61
1, 106330, Note_off_c, 0, 84, 25
1, 106332, Control_c, 0, 67, 127
1, 106348, Note_off_c, 0, 82, 67
1, 106353, Note_off_c, 0, 74, 64
1, 106365, Note_on_c, 0, 81, 72
1, 106372, Note_on_c, 0, 73, 72
1, 106396, Note_off_c, 0, 73, 69
1, 106430, Note_off_c, 0, 81, 62
1, 106431, Note_on_c, 0, 80, 71
1, 106447, Note_on_c, 0, 72, 67
1, 106461, Note_off_c, 0, 80, 61
1, 106476, Note_off_c, 0, 72, 65
1, 106485, Note_on_c, 0, 79, 74
1, 106506, Note_on_c, 0, 71, 59
1, 106525, Note_off_c, 0, 71, 62
1, 106532, Note_on_c, 0, 70, 56
1, 106536, Note_off_c, 0, 79, 63
1, 106538, Note_on_c, 0, 78, 70
1, 106554, Note_off_c, 0, 70, 61
1, 106577, Note_off_c, 0, 78, 59
1, 106589, Note_on_c, 0, 77, 71
1, 106590, Note_on_c, 0, 69, 65
1, 106609, Note_off_c, 0, 69, 66
1, 106621, Note_off_c, 0, 77, 63
1, 106633, Note_on_c, 0, 68, 69
1, 106636, Note_on_c, 0, 76, 66
1, 106661, Note_off_c, 0, 68, 66
1, 106667, Note_off_c, 0, 76, 60
1, 106694, Note_on_c, 0, 72, 77
1, 106713, Note_on_c, 0, 67, 67
1, 106744, Note_off_c, 0, 67, 64
1, 106762, Note_on_c, 0, 73, 73
1, 106770, Control_c, 0, 64, 118
1, 106783, Note_off_c, 0, 72, 57
1, 106785, Control_c, 0, 64, 92
1, 106792, Note_on_c, 0, 64, 63
1, 106799, Control_c, 0, 64, 82
1, 106804, Note_on_c, 0, 75, 68
1, 106814, Control_c, 0, 64, 80
1, 106829, Control_c, 0, 64, 85
1, 106831, Note_off_c, 0, 64, 60
1, 106840, Note_off_c, 0, 73, 50
1, 106845, Control_c, 0, 64, 97
1, 106858, Note_on_c, 0, 66, 68
1, 106859, Note_off_c, 0, 75, 60
1, 106860, Note_on_c, 0, 78, 75
1, 106860, Control_c, 0, 64, 127
1, 106885, Note_off_c, 0, 66, 66
1, 106921, Note_on_c, 0, 69, 59
1, 106928, Note_on_c, 0, 77, 69
1, 106953, Note_off_c, 0, 69, 63
1, 106963, Note_off_c, 0, 78, 61
1, 106973, Note_on_c, 0, 76, 71
1, 106976, Note_on_c, 0, 68, 72
1, 107004, Note_off_c, 0, 68, 65
1, 107028, Note_on_c, 0, 75, 69
1, 107031, Note_off_c, 0, 76, 62
1, 107034, Note_off_c, 0, 77, 59
1, 107048, Note_on_c, 0, 67, 71
1, 107050, Note_off_c, 0, 75, 68
1, 107066, Note_on_c, 0, 74, 74
1, 107072, Note_off_c, 0, 67, 67
1, 107102, Note_on_c, 0, 66, 70
1, 107129, Note_off_c, 0, 74, 58
1, 107132, Note_on_c, 0, 73, 73
1, 107132, Note_off_c, 0, 66, 64
1, 107176, Note_on_c, 0, 65, 72
1, 107187, Note_off_c, 0, 73, 60
1, 107192, Note_on_c, 0, 72, 77
1, 107206, Note_off_c, 0, 65, 56
1, 107238, Note_on_c, 0, 64, 62
1, 107248, Note_off_c, 0, 72, 59
1, 107251, Note_on_c, 0, 71, 73
1, 107267, Note_off_c, 0, 64, 64
1, 107290, Note_on_c, 0, 63, 58
1, 107305, Note_on_c, 0, 70, 75
1, 107305, Note_off_c, 0, 71, 61
1, 107312, Note_off_c, 0, 63, 64
1, 107329, Note_off_c, 0, 70, 67
1, 107341, Note_on_c, 0, 62, 66
1, 107341, Note_on_c, 0, 69, 74
1, 107370, Note_off_c, 0, 62, 64
1, 107388, Note_on_c, 0, 61, 73
1, 107401, Note_on_c, 0, 68, 75
1, 107401, Note_off_c, 0, 69, 60
1, 107414, Note_on_c, 0, 70, 47
1, 107414, Note_off_c, 0, 61, 66
1, 107436, Note_off_c, 0, 70, 60
1, 107452, Note_off_c, 0, 68, 57
1, 107458, Note_on_c, 0, 67, 74
1, 107461, Note_on_c, 0, 60, 66
1, 107479, Note_off_c, 0, 60, 63
1, 107508, Note_on_c, 0, 59, 60
1, 107509, Note_off_c, 0, 67, 58
1, 107511, Note_on_c, 0, 66, 74
1, 107530, Note_off_c, 0, 59, 62
1, 107532, Note_on_c, 0, 58, 64
1, 107552, Note_off_c, 0, 58, 63
1, 107561, Note_on_c, 0, 65, 78
1, 107561, Note_off_c, 0, 66, 58
1, 107603, Note_on_c, 0, 57, 61
1, 107609, Note_off_c, 0, 65, 61
1, 107618, Note_on_c, 0, 64, 68
1, 107625, Note_off_c, 0, 57, 61
1, 107648, Note_off_c, 0, 64, 66
1, 107671, Note_on_c, 0, 54, 29
1, 107674, Note_on_c, 0, 60, 77
1, 107710, Note_off_c, 0, 54, 49
1, 107717, Note_on_c, 0, 55, 61
1, 107746, Note_on_c, 0, 61, 75
1, 107750, Note_off_c, 0, 55, 64
1, 107770, Note_on_c, 0, 51, 61
1, 107770, Note_off_c, 0, 60, 57
1, 107794, Note_on_c, 0, 63, 77
1, 107801, Control_c, 0, 64, 115
1, 107816, Control_c, 0, 64, 92
1, 107825, Note_off_c, 0, 51, 62
1, 107831, Control_c, 0, 64, 77
1, 107845, Control_c, 0, 64, 67
1, 107858, Note_on_c, 0, 54, 59
1, 107860, Control_c, 0, 64, 63
1, 107864, Note_off_c, 0, 61, 51
1, 107866, Note_off_c, 0, 63, 61
1, 107868, Note_on_c, 0, 66, 75
1, 107875, Control_c, 0, 64, 64
1, 107889, Control_c, 0, 64, 67
1, 107891, Note_off_c, 0, 54, 61
1, 107904, Control_c, 0, 64, 75
1, 107925, Note_on_c, 0, 57, 60
1, 107927, Control_c, 0, 64, 84
1, 107942, Control_c, 0, 64, 92
1, 107943, Note_on_c, 0, 65, 77
1, 107957, Control_c, 0, 64, 98
1, 107969, Note_off_c, 0, 57, 56
1, 107971, Control_c, 0, 64, 101
1, 108002, Note_on_c, 0, 56, 62
1, 108002, Note_off_c, 0, 66, 53
1, 108018, Note_on_c, 0, 64, 77
1, 108024, Note_off_c, 0, 56, 63
1, 108075, Note_on_c, 0, 55, 62
1, 108080, Note_off_c, 0, 65, 52
1, 108083, Note_on_c, 0, 60, 79
1, 108088, Note_off_c, 0, 64, 62
1, 108113, Note_off_c, 0, 55, 64
1, 108117, Note_on_c, 0, 51, 62
1, 108146, Note_on_c, 0, 61, 82
1, 108149, Control_c, 0, 64, 100
1, 108152, Note_off_c, 0, 51, 63
1, 108163, Control_c, 0, 64, 99
1, 108173, Note_on_c, 0, 52, 62
1, 108173, Note_off_c, 0, 60, 59
1, 108178, Control_c, 0, 64, 98
1, 108193, Control_c, 0, 64, 95
1, 108199, Note_on_c, 0, 63, 83
1, 108208, Control_c, 0, 64, 87
1, 108223, Control_c, 0, 64, 75
1, 108228, Note_off_c, 0, 52, 53
1, 108237, Note_on_c, 0, 54, 68
1, 108238, Control_c, 0, 64, 63
1, 108253, Control_c, 0, 64, 12
1, 108264, Note_off_c, 0, 61, 57
1, 108268, Control_c, 0, 64, 0
1, 108270, Note_off_c, 0, 54, 65
1, 108278, Note_on_c, 0, 66, 79
1, 108279, Note_off_c, 0, 63, 63
1, 108309, Note_on_c, 0, 57, 64
1, 108312, Control_c, 0, 64, 59
1, 108327, Control_c, 0, 64, 66
1, 108342, Control_c, 0, 64, 71
1, 108346, Note_off_c, 0, 57, 62
1, 108357, Note_on_c, 0, 65, 75
1, 108357, Control_c, 0, 64, 76
1, 108371, Control_c, 0, 64, 80
1, 108386, Control_c, 0, 64, 82
1, 108395, Note_on_c, 0, 56, 63
1, 108401, Control_c, 0, 64, 83
1, 108409, Note_off_c, 0, 66, 53
1, 108415, Note_off_c, 0, 56, 62
1, 108438, Note_on_c, 0, 64, 74
1, 108482, Note_on_c, 0, 55, 49
1, 108507, Note_off_c, 0, 55, 56
1, 108512, Note_off_c, 0, 64, 61
1, 108518, Note_off_c, 0, 65, 38
1, 108522, Note_on_c, 0, 60, 66
1, 108539, Note_on_c, 0, 51, 59
1, 108578, Note_off_c, 0, 51, 62
1, 108600, Note_on_c, 0, 61, 70
1, 108611, Note_off_c, 0, 60, 56
1, 108628, Note_on_c, 0, 52, 53
1, 108675, Note_off_c, 0, 52, 46
1, 108695, Note_on_c, 0, 63, 68
1, 108704, Note_off_c, 0, 61, 58
1, 108709, Note_on_c, 0, 54, 54
1, 108765, Control_c, 0, 64, 82
1, 108780, Note_off_c, 0, 54, 57
1, 108780, Control_c, 0, 64, 82
1, 108794, Control_c, 0, 64, 77
1, 108806, Note_off_c, 0, 63, 56
1, 108808, Note_on_c, 0, 66, 59
1, 108809, Control_c, 0, 64, 71
1, 108817, Note_on_c, 0, 57, 57
1, 108824, Control_c, 0, 64, 63
1, 108838, Control_c, 0, 64, 38
1, 108853, Control_c, 0, 64, 0
1, 108927, Control_c, 0, 64, 54
1, 108935, Note_off_c, 0, 57, 62
1, 108942, Control_c, 0, 64, 65
1, 108951, Note_on_c, 0, 56, 51
1, 108953, Note_on_c, 0, 65, 67
1, 108957, Control_c, 0, 64, 70
1, 108972, Control_c, 0, 64, 76
1, 108986, Control_c, 0, 64, 81
1, 109001, Control_c, 0, 64, 84
1, 109016, Control_c, 0, 64, 86
1, 109031, Control_c, 0, 64, 87
1, 109046, Control_c, 0, 64, 87
1, 109052, Note_off_c, 0, 56, 52
1, 109076, Note_on_c, 0, 55, 66
1, 109076, Note_on_c, 0, 64, 73
1, 109126, Note_off_c, 0, 66, 18
1, 109157, Note_off_c, 0, 55, 37
1, 109181, Note_on_c, 0, 63, 75
1, 109195, Note_on_c, 0, 54, 59
1, 109242, Note_off_c, 0, 54, 58
1, 109251, Note_off_c, 0, 64, 61
1, 109270, Note_off_c, 0, 65, 33
1, 109287, Note_off_c, 0, 63, 61
1, 109290, Note_on_c, 0, 62, 76
1, 109298, Note_on_c, 0, 53, 59
1, 109349, Note_off_c, 0, 53, 53
1, 109388, Control_c, 0, 64, 87
1, 109394, Note_on_c, 0, 52, 64
1, 109403, Control_c, 0, 64, 86
1, 109413, Note_on_c, 0, 61, 74
1, 109419, Note_off_c, 0, 62, 59
1, 109424, Control_c, 0, 64, 82
1, 109439, Control_c, 0, 64, 75
1, 109454, Control_c, 0, 64, 67
1, 109469, Control_c, 0, 64, 56
1, 109484, Control_c, 0, 64, 0
1, 109541, Note_on_c, 0, 51, 57
1, 109546, Note_on_c, 0, 60, 59
1, 109557, Control_c, 0, 64, 42
1, 109572, Control_c, 0, 64, 62
1, 109579, Note_off_c, 0, 61, 61
1, 109580, Note_off_c, 0, 52, 52
1, 109586, Control_c, 0, 64, 69
1, 109601, Control_c, 0, 64, 77
1, 109616, Control_c, 0, 64, 85
1, 109631, Control_c, 0, 64, 91
1, 109646, Control_c, 0, 64, 94
1, 109660, Control_c, 0, 64, 95
1, 109688, Note_off_c, 0, 51, 56
1, 109699, Note_on_c, 0, 54, 57
1, 109707, Note_on_c, 0, 63, 71
1, 109734, Control_c, 0, 64, 95
1, 109764, Control_c, 0, 64, 94
1, 109779, Control_c, 0, 64, 92
1, 109794, Control_c, 0, 64, 88
1, 109809, Control_c, 0, 64, 82
1, 109824, Control_c, 0, 64, 73
1, 109839, Control_c, 0, 64, 62
1, 109853, Control_c, 0, 64, 0
1, 109862, Note_on_c, 0, 52, 54
1, 109865, Note_on_c, 0, 61, 69
1, 109867, Note_off_c, 0, 54, 58
1, 109942, Control_c, 0, 64, 20
1, 109948, Note_off_c, 0, 63, 50
1, 109957, Control_c, 0, 64, 64
1, 109967, Note_off_c, 0, 60, 16
1, 109972, Control_c, 0, 64, 69
1, 109986, Control_c, 0, 64, 73
1, 110016, Control_c, 0, 64, 69
1, 110032, Control_c, 0, 64, 49
1, 110044, Note_off_c, 0, 52, 60
1, 110047, Control_c, 0, 64, 0
1, 110057, Note_on_c, 0, 64, 59
1, 110072, Note_off_c, 0, 61, 62
1, 110076, Note_on_c, 0, 55, 42
1, 110091, Control_c, 0, 64, 51
1, 110106, Control_c, 0, 64, 66
1, 110121, Control_c, 0, 64, 73
1, 110136, Control_c, 0, 64, 81
1, 110151, Control_c, 0, 64, 86
1, 110172, Control_c, 0, 64, 87
1, 110202, Control_c, 0, 64, 86
1, 110217, Control_c, 0, 64, 79
1, 110232, Control_c, 0, 64, 66
1, 110247, Control_c, 0, 64, 0
1, 110255, Note_off_c, 0, 55, 57
1, 110274, Note_on_c, 0, 63, 57
1, 110284, Note_off_c, 0, 64, 57
1, 110291, Note_on_c, 0, 54, 45
1, 110292, Control_c, 0, 64, 56
1, 110307, Control_c, 0, 64, 70
1, 110319, Note_off_c, 0, 63, 59
1, 110321, Control_c, 0, 64, 82
1, 110334, Note_off_c, 0, 54, 62
1, 110336, Control_c, 0, 64, 100
1, 110351, Control_c, 0, 64, 127
1, 110470, Control_c, 0, 64, 109
1, 110484, Control_c, 0, 64, 85
1, 110499, Control_c, 0, 64, 67
1, 110514, Control_c, 0, 64, 0
1, 110540, Note_on_c, 0, 66, 49
1, 110549, Note_on_c, 0, 57, 28
1, 110573, Control_c, 0, 64, 62
1, 110588, Control_c, 0, 64, 71
1, 110603, Control_c, 0, 64, 80
1, 110617, Control_c, 0, 64, 90
1, 110632, Control_c, 0, 64, 98
1, 110637, Note_off_c, 0, 66, 59
1, 110643, Note_off_c, 0, 57, 51
1, 110647, Control_c, 0, 64, 108
1, 110662, Control_c, 0, 64, 127
1, 110937, Control_c, 0, 64, 108
1, 110944, Note_on_c, 0, 56, 34
1, 110952, Control_c, 0, 64, 88
1, 110960, Note_on_c, 0, 64, 40
1, 110967, Control_c, 0, 64, 71
1, 110981, Control_c, 0, 64, 34
1, 110996, Control_c, 0, 64, 0
1, 111100, Control_c, 0, 64, 42
1, 111114, Control_c, 0, 64, 65
1, 111129, Control_c, 0, 64, 72
1, 111144, Control_c, 0, 64, 82
1, 111159, Control_c, 0, 64, 99
1, 111174, Control_c, 0, 64, 127
1, 111177, Note_off_c, 0, 64, 59
1, 111189, Note_off_c, 0, 56, 38
1, 111803, Note_on_c, 0, 51, 22
1, 111805, Note_on_c, 0, 60, 46
1, 111816, Note_on_c, 0, 45, 27
1, 111856, Note_on_c, 0, 54, 3
1, 111862, Control_c, 0, 64, 107
1, 111877, Control_c, 0, 64, 88
1, 111892, Control_c, 0, 64, 73
1, 111907, Control_c, 0, 64, 62
1, 111922, Control_c, 0, 64, 9
1, 111936, Control_c, 0, 64, 0
1, 111995, Control_c, 0, 64, 45
1, 112010, Control_c, 0, 64, 65
1, 112025, Control_c, 0, 64, 72
1, 112040, Control_c, 0, 64, 83
1, 112054, Control_c, 0, 64, 104
1, 112069, Control_c, 0, 64, 127
1, 112102, Note_off_c, 0, 51, 52
1, 112122, Note_off_c, 0, 45, 40
1, 112130, Note_off_c, 0, 60, 60
1, 112134, Note_off_c, 0, 54, 50
1, 112727, Note_on_c, 0, 45, 31
1, 112727, Note_on_c, 0, 61, 44
1, 112736, Note_on_c, 0, 55, 28
1, 112737, Note_on_c, 0, 52, 33
1, 112789, Control_c, 0, 64, 108
1, 112803, Control_c, 0, 64, 87
1, 112818, Control_c, 0, 64, 71
1, 112833, Control_c, 0, 64, 58
1, 112848, Control_c, 0, 64, 0
1, 112996, Control_c, 0, 64, 63
1, 113010, Control_c, 0, 64, 71
1, 113025, Control_c, 0, 64, 82
1, 113040, Control_c, 0, 64, 108
1, 113055, Control_c, 0, 64, 127
1, 113109, Note_off_c, 0, 45, 53
1, 113130, Note_off_c, 0, 55, 58
1, 113180, Note_off_c, 0, 52, 39
1, 113261, Note_off_c, 0, 61, 36
1, 114450, Note_on_c, 0, 69, 41
1, 115118, Note_on_c, 0, 44, 32
1, 115124, Control_c, 0, 64, 115
1, 115139, Control_c, 0, 64, 110
1, 115154, Control_c, 0, 64, 105
1, 115169, Control_c, 0, 64, 98
1, 115184, Control_c, 0, 64, 89
1, 115198, Control_c, 0, 64, 80
1, 115213, Control_c, 0, 64, 69
1, 115228, Control_c, 0, 64, 62
1, 115243, Control_c, 0, 64, 46
1, 115258, Control_c, 0, 64, 23
1, 115273, Control_c, 0, 64, 0
1, 115362, Control_c, 0, 64, 60
1, 115377, Control_c, 0, 64, 70
1, 115392, Control_c, 0, 64, 80
1, 115413, Control_c, 0, 64, 94
1, 115428, Control_c, 0, 64, 127
1, 115505, Note_on_c, 0, 51, 20
1, 115705, Note_on_c, 0, 56, 29
1, 115879, Note_on_c, 0, 60, 20
1, 116024, Note_on_c, 0, 63, 35
1, 116316, Note_off_c, 0, 63, 53
1, 116319, Note_on_c, 0, 68, 45
1, 116379, Note_off_c, 0, 60, 21
1, 116438, Note_off_c, 0, 56, 31
1, 116500, Note_on_c, 0, 63, 29
1, 116513, Note_off_c, 0, 51, 35
1, 116626, Note_on_c, 0, 60, 30
1, 116675, Note_off_c, 0, 63, 25
1, 116746, Note_on_c, 0, 56, 32
1, 116824, Note_off_c, 0, 44, 40
1, 116884, Note_on_c, 0, 51, 15
1, 116901, Note_off_c, 0, 56, 26
1, 116954, Note_off_c, 0, 51, 41
1, 116977, Note_on_c, 0, 44, 37
1, 116981, Note_off_c, 0, 60, 34
1, 117039, Note_off_c, 0, 68, 36
1, 117125, Note_on_c, 0, 51, 38
1, 117210, Note_off_c, 0, 51, 53
1, 117262, Note_off_c, 0, 44, 40
1, 117263, Note_on_c, 0, 56, 24
1, 117319, Note_off_c, 0, 56, 49
1, 117355, Note_on_c, 0, 60, 30
1, 117473, Note_on_c, 0, 63, 35
1, 117625, Note_on_c, 0, 68, 40
1, 117732, Note_off_c, 0, 69, 35
1, 117841, Note_off_c, 0, 60, 7
1, 117872, Note_off_c, 0, 63, 34
1, 117908, Note_off_c, 0, 68, 0
1, 117932, Note_on_c, 0, 68, 10
1, 117962, Note_on_c, 0, 72, 41
1, 118003, Note_off_c, 0, 72, 55
1, 118200, Note_on_c, 0, 63, 35
1, 118300, Note_on_c, 0, 60, 36
1, 118341, Note_off_c, 0, 60, 56
1, 118376, Note_off_c, 0, 63, 59
1, 118423, Note_off_c, 0, 68, 40
1, 118432, Note_on_c, 0, 56, 32
1, 118507, Note_off_c, 0, 56, 48
1, 118564, Note_on_c, 0, 51, 40
1, 118595, Note_off_c, 0, 51, 54
1, 118746, Note_on_c, 0, 44, 41
1, 118800, Note_on_c, 0, 69, 39
1, 118801, Note_on_c, 0, 73, 53
1, 118854, Control_c, 0, 64, 98
1, 118869, Control_c, 0, 64, 81
1, 118884, Control_c, 0, 64, 68
1, 118898, Control_c, 0, 64, 57
1, 118913, Control_c, 0, 64, 46
1, 118928, Control_c, 0, 64, 52
1, 118943, Control_c, 0, 64, 63
1, 118958, Control_c, 0, 64, 73
1, 118972, Control_c, 0, 64, 97
1, 118987, Control_c, 0, 64, 127
1, 118993, Note_on_c, 0, 52, 41
1, 118998, Note_off_c, 0, 44, 39
1, 119006, Note_off_c, 0, 69, 59
1, 119029, Note_off_c, 0, 73, 60
1, 119041, Note_off_c, 0, 52, 61
1, 119085, Note_on_c, 0, 57, 46
1, 119113, Note_off_c, 0, 57, 53
1, 119211, Note_on_c, 0, 61, 46
1, 119297, Note_off_c, 0, 61, 56
1, 119297, Note_on_c, 0, 64, 46
1, 119410, Note_on_c, 0, 69, 36
1, 119424, Note_off_c, 0, 64, 54
1, 119452, Note_off_c, 0, 69, 46
1, 119497, Note_on_c, 0, 76, 59
1, 119500, Note_on_c, 0, 73, 50
1, 119571, Note_off_c, 0, 76, 61
1, 119593, Note_off_c, 0, 73, 61
1, 119654, Note_on_c, 0, 69, 6
1, 119684, Note_off_c, 0, 69, 0
1, 119703, Poly_aftertouch_c, 0, 69, 0
1, 119706, Note_on_c, 0, 64, 45
1, 119765, Note_off_c, 0, 64, 52
1, 119784, Note_on_c, 0, 61, 45
1, 119811, Note_off_c, 0, 61, 60
1, 119860, Note_on_c, 0, 57, 45
1, 119899, Note_off_c, 0, 57, 53
1, 119949, Note_on_c, 0, 52, 45
1, 119979, Note_off_c, 0, 52, 51
1, 120110, Note_on_c, 0, 42, 47
1, 120186, Note_on_c, 0, 74, 43
1, 120188, Control_c, 0, 64, 101
1, 120190, Note_on_c, 0, 78, 63
1, 120202, Control_c, 0, 64, 83
1, 120217, Control_c, 0, 64, 71
1, 120232, Control_c, 0, 64, 61
1, 120246, Control_c, 0, 64, 41
1, 120261, Control_c, 0, 64, 34
1, 120276, Control_c, 0, 64, 44
1, 120291, Control_c, 0, 64, 61
1, 120305, Note_off_c, 0, 42, 36
1, 120306, Control_c, 0, 64, 72
1, 120320, Control_c, 0, 64, 93
1, 120335, Control_c, 0, 64, 127
1, 120350, Note_on_c, 0, 54, 42
1, 120379, Note_off_c, 0, 74, 60
1, 120379, Note_off_c, 0, 54, 56
1, 120403, Note_off_c, 0, 78, 61
1, 120448, Note_on_c, 0, 57, 44
1, 120475, Note_off_c, 0, 57, 54
1, 120563, Note_on_c, 0, 62, 40
1, 120653, Note_off_c, 0, 62, 46
1, 120666, Note_on_c, 0, 66, 42
1, 120755, Note_on_c, 0, 69, 39
1, 120796, Note_off_c, 0, 69, 52
1, 120834, Note_on_c, 0, 74, 49
1, 120898, Note_off_c, 0, 74, 53
1, 120936, Note_off_c, 0, 66, 34
1, 120954, Note_on_c, 0, 81, 53
1, 120960, Note_on_c, 0, 78, 48
1, 121036, Note_off_c, 0, 81, 61
1, 121072, Note_off_c, 0, 78, 61
1, 121084, Note_on_c, 0, 74, 41
1, 121179, Note_off_c, 0, 74, 58
1, 121216, Note_on_c, 0, 69, 35
1, 121317, Note_off_c, 0, 69, 37
1, 121333, Note_on_c, 0, 66, 32
1, 121393, Note_off_c, 0, 66, 42
1, 121432, Note_on_c, 0, 62, 36
1, 121463, Note_off_c, 0, 62, 53
1, 121509, Note_on_c, 0, 57, 36
1, 121649, Note_off_c, 0, 57, 36
1, 121678, Note_on_c, 0, 54, 34
1, 121720, Note_off_c, 0, 54, 60
1, 122084, Note_on_c, 0, 44, 30
1, 122155, Note_on_c, 0, 80, 31
1, 122164, Note_on_c, 0, 84, 45
1, 122242, Control_c, 0, 64, 93
1, 122257, Control_c, 0, 64, 77
1, 122272, Control_c, 0, 64, 64
1, 122287, Control_c, 0, 64, 41
1, 122302, Control_c, 0, 64, 0
1, 122346, Control_c, 0, 64, 36
1, 122361, Control_c, 0, 64, 63
1, 122376, Control_c, 0, 64, 75
1, 122390, Control_c, 0, 64, 92
1, 122405, Control_c, 0, 64, 127
1, 122442, Note_off_c, 0, 84, 60
1, 122466, Note_off_c, 0, 80, 60
1, 122473, Note_off_c, 0, 44, 37
1, 122501, Note_on_c, 0, 51, 35
1, 122609, Note_off_c, 0, 51, 58
1, 122632, Note_on_c, 0, 56, 43
1, 122722, Note_on_c, 0, 60, 46
1, 122758, Note_off_c, 0, 60, 56
1, 122945, Note_on_c, 0, 68, 26
1, 122984, Note_off_c, 0, 68, 50
1, 123023, Note_on_c, 0, 72, 34
1, 123056, Note_off_c, 0, 56, 37
1, 123085, Note_off_c, 0, 72, 57
1, 123107, Note_on_c, 0, 75, 47
1, 123172, Note_off_c, 0, 75, 54
1, 123220, Note_on_c, 0, 72, 39
1, 123259, Note_off_c, 0, 72, 49
1, 123273, Note_on_c, 0, 68, 52
1, 123318, Note_off_c, 0, 68, 57
1, 123348, Note_on_c, 0, 63, 41
1, 123402, Note_on_c, 0, 60, 35
1, 123433, Note_off_c, 0, 60, 51
1, 123476, Note_on_c, 0, 56, 43
1, 123512, Note_off_c, 0, 56, 60
1, 123555, Note_on_c, 0, 51, 43
1, 123619, Note_off_c, 0, 51, 55
1, 123625, Note_off_c, 0, 63, 58
1, 123669, Note_on_c, 0, 44, 49
1, 123756, Note_off_c, 0, 44, 59
1, 123780, Note_on_c, 0, 51, 36
1, 123822, Note_off_c, 0, 51, 49
1, 123869, Note_on_c, 0, 56, 40
1, 123896, Note_off_c, 0, 56, 55
1, 123942, Note_on_c, 0, 60, 37
1, 124047, Note_on_c, 0, 63, 37
1, 124182, Note_on_c, 0, 68, 39
1, 124289, Note_off_c, 0, 60, 24
1, 124335, Note_off_c, 0, 63, 31
1, 124393, Note_off_c, 0, 68, 0
1, 124414, Note_on_c, 0, 68, 23
1, 124424, Note_on_c, 0, 72, 53
1, 124493, Note_off_c, 0, 72, 59
1, 124639, Note_on_c, 0, 63, 41
1, 124710, Note_on_c, 0, 60, 47
1, 124734, Note_off_c, 0, 60, 60
1, 124773, Note_off_c, 0, 63, 59
1, 124801, Note_off_c, 0, 68, 40
1, 124830, Note_on_c, 0, 56, 39
1, 124883, Note_off_c, 0, 56, 56
1, 124925, Note_on_c, 0, 51, 50
1, 124960, Note_off_c, 0, 51, 61
1, 125086, Note_on_c, 0, 44, 47
1, 125155, Note_on_c, 0, 69, 45
1, 125157, Note_on_c, 0, 73, 59
1, 125163, Control_c, 0, 64, 95
1, 125177, Control_c, 0, 64, 78
1, 125192, Control_c, 0, 64, 65
1, 125207, Control_c, 0, 64, 42
1, 125223, Control_c, 0, 64, 0
1, 125253, Control_c, 0, 64, 41
1, 125267, Control_c, 0, 64, 62
1, 125282, Control_c, 0, 64, 74
1, 125297, Control_c, 0, 64, 97
1, 125312, Control_c, 0, 64, 127
1, 125326, Note_off_c, 0, 44, 49
1, 125339, Note_on_c, 0, 52, 42
1, 125352, Note_off_c, 0, 69, 60
1, 125368, Note_off_c, 0, 73, 61
1, 125381, Note_off_c, 0, 52, 62
1, 125419, Note_on_c, 0, 57, 49
1, 125444, Note_off_c, 0, 57, 57
1, 125534, Note_on_c, 0, 61, 44
1, 125592, Note_off_c, 0, 61, 58
1, 125608, Note_on_c, 0, 64, 48
1, 125682, Note_on_c, 0, 69, 38
1, 125703, Note_off_c, 0, 64, 37
1, 125725, Note_off_c, 0, 69, 45
1, 125758, Note_on_c, 0, 73, 51
1, 125766, Note_on_c, 0, 76, 62
1, 125837, Note_off_c, 0, 76, 62
1, 125864, Note_off_c, 0, 73, 62
1, 125922, Note_on_c, 0, 69, 26
1, 125960, Note_on_c, 0, 64, 52
1, 125960, Note_off_c, 0, 69, 46
1, 126032, Note_on_c, 0, 61, 53
1, 126033, Note_off_c, 0, 64, 38
1, 126060, Note_off_c, 0, 61, 63
1, 126110, Note_on_c, 0, 57, 48
1, 126149, Note_off_c, 0, 57, 57
1, 126203, Note_on_c, 0, 52, 42
1, 126234, Note_off_c, 0, 52, 51
1, 126356, Note_on_c, 0, 42, 48
1, 126415, Control_c, 0, 64, 113
1, 126425, Note_on_c, 0, 78, 59
1, 126427, Note_on_c, 0, 74, 47
1, 126430, Control_c, 0, 64, 87
1, 126445, Control_c, 0, 64, 71
1, 126460, Control_c, 0, 64, 59
1, 126475, Control_c, 0, 64, 0
1, 126505, Control_c, 0, 64, 43
1, 126519, Note_off_c, 0, 42, 48
1, 126520, Control_c, 0, 64, 64
1, 126534, Control_c, 0, 64, 76
1, 126549, Control_c, 0, 64, 102
1, 126564, Control_c, 0, 64, 127
1, 126576, Note_on_c, 0, 54, 44
1, 126600, Note_off_c, 0, 74, 59
1, 126605, Note_off_c, 0, 54, 57
1, 126618, Note_off_c, 0, 78, 62
1, 126675, Note_on_c, 0, 57, 53
1, 126699, Note_off_c, 0, 57, 62
1, 126799, Note_on_c, 0, 62, 43
1, 126879, Note_off_c, 0, 62, 44
1, 126888, Note_on_c, 0, 66, 43
1, 126975, Note_on_c, 0, 69, 40
1, 127032, Note_off_c, 0, 69, 55
1, 127060, Note_on_c, 0, 74, 40
1, 127114, Note_off_c, 0, 74, 53
1, 127149, Note_off_c, 0, 66, 37
1, 127206, Note_on_c, 0, 81, 52
1, 127211, Note_on_c, 0, 78, 48
1, 127283, Note_off_c, 0, 81, 60
1, 127311, Note_off_c, 0, 78, 60
1, 127343, Note_on_c, 0, 74, 39
1, 127447, Note_off_c, 0, 74, 53
1, 127474, Note_on_c, 0, 69, 37
1, 127602, Note_on_c, 0, 66, 34
1, 127690, Note_off_c, 0, 69, 20
1, 127703, Note_on_c, 0, 62, 32
1, 127736, Note_off_c, 0, 62, 52
1, 127739, Note_off_c, 0, 66, 0
1, 127776, Poly_aftertouch_c, 0, 66, 127
1, 127802, Note_on_c, 0, 57, 40
1, 127825, Poly_aftertouch_c, 0, 66, 0
1, 127886, Note_off_c, 0, 57, 49
1, 127962, Note_on_c, 0, 54, 27
1, 127999, Note_off_c, 0, 54, 51
1, 128159, Note_on_c, 0, 72, 30
1, 128345, Note_on_c, 0, 75, 46
1, 128717, Note_on_c, 0, 44, 29
1, 128761, Note_off_c, 0, 72, 30
1, 128824, Control_c, 0, 64, 116
1, 128839, Control_c, 0, 64, 108
1, 128854, Control_c, 0, 64, 99
1, 128869, Control_c, 0, 64, 91
1, 128881, Note_on_c, 0, 84, 51
1, 128891, Control_c, 0, 64, 82
1, 128906, Control_c, 0, 64, 71
1, 128921, Control_c, 0, 64, 62
1, 128935, Control_c, 0, 64, 37
1, 128950, Control_c, 0, 64, 0
1, 129009, Control_c, 0, 64, 50
1, 129024, Control_c, 0, 64, 66
1, 129039, Control_c, 0, 64, 77
1, 129053, Control_c, 0, 64, 100
1, 129068, Control_c, 0, 64, 127
1, 129083, Note_off_c, 0, 84, 56
1, 129146, Note_off_c, 0, 75, 52
1, 129186, Note_off_c, 0, 44, 36
1, 129266, Note_on_c, 0, 51, 25
1, 129375, Note_off_c, 0, 51, 55
1, 129390, Note_on_c, 0, 56, 35
1, 129474, Note_on_c, 0, 60, 41
1, 129554, Note_off_c, 0, 60, 50
1, 129565, Note_on_c, 0, 63, 42
1, 129627, Note_off_c, 0, 63, 55
1, 129647, Note_on_c, 0, 68, 44
1, 129703, Note_off_c, 0, 68, 53
1, 129736, Note_on_c, 0, 72, 36
1, 129777, Note_off_c, 0, 72, 51
1, 129797, Note_off_c, 0, 56, 35
1, 129814, Note_on_c, 0, 75, 35
1, 129850, Note_off_c, 0, 75, 60
1, 129892, Note_on_c, 0, 72, 44
1, 129935, Note_off_c, 0, 72, 58
1, 129957, Note_on_c, 0, 68, 44
1, 130019, Note_on_c, 0, 63, 55
1, 130029, Note_off_c, 0, 68, 52
1, 130046, Note_off_c, 0, 63, 60
1, 130123, Note_on_c, 0, 60, 38
1, 130231, Note_on_c, 0, 56, 27
1, 130300, Note_off_c, 0, 56, 38
1, 130362, Note_on_c, 0, 51, 31
1, 130719, Note_on_c, 0, 42, 51
1, 130744, Control_c, 0, 64, 97
1, 130759, Control_c, 0, 64, 82
1, 130773, Control_c, 0, 64, 71
1, 130788, Control_c, 0, 64, 62
1, 130803, Control_c, 0, 64, 44
1, 130818, Control_c, 0, 64, 38
1, 130826, Note_off_c, 0, 60, 1
1, 130833, Control_c, 0, 64, 51
1, 130848, Control_c, 0, 64, 64
1, 130850, Note_off_c, 0, 51, 48
1, 130863, Control_c, 0, 64, 74
1, 130878, Control_c, 0, 64, 92
1, 130890, Note_off_c, 0, 42, 56
1, 130893, Control_c, 0, 64, 127
1, 130983, Note_on_c, 0, 51, 44
1, 131088, Note_on_c, 0, 56, 34
1, 131163, Note_on_c, 0, 60, 43
1, 131171, Note_off_c, 0, 51, 39
1, 131190, Note_off_c, 0, 60, 54
1, 131221, Note_off_c, 0, 56, 30
1, 131235, Note_on_c, 0, 63, 40
1, 131297, Note_on_c, 0, 68, 50
1, 131301, Note_off_c, 0, 63, 51
1, 131339, Note_off_c, 0, 68, 58
1, 131364, Note_on_c, 0, 72, 52
1, 131429, Note_off_c, 0, 72, 59
1, 131447, Note_on_c, 0, 75, 47
1, 131491, Note_off_c, 0, 75, 60
1, 131504, Note_on_c, 0, 72, 47
1, 131578, Note_on_c, 0, 68, 54
1, 131629, Note_on_c, 0, 63, 57
1, 131662, Note_off_c, 0, 63, 63
1, 131674, Note_on_c, 0, 60, 41
1, 131685, Note_off_c, 0, 68, 58
1, 131686, Note_off_c, 0, 72, 23
1, 131722, Note_off_c, 0, 60, 55
1, 131751, Note_on_c, 0, 56, 44
1, 131793, Note_off_c, 0, 56, 58
1, 131820, Note_on_c, 0, 51, 49
1, 131857, Note_off_c, 0, 51, 62
1, 131954, Note_on_c, 0, 72, 51
1, 132089, Note_on_c, 0, 75, 67
1, 132225, Note_on_c, 0, 41, 50
1, 132271, Control_c, 0, 64, 93
1, 132286, Control_c, 0, 64, 75
1, 132301, Control_c, 0, 64, 63
1, 132316, Control_c, 0, 64, 0
1, 132351, Note_on_c, 0, 84, 64
1, 132375, Control_c, 0, 64, 36
1, 132390, Control_c, 0, 64, 65
1, 132406, Control_c, 0, 64, 80
1, 132421, Control_c, 0, 64, 127
1, 132437, Note_off_c, 0, 41, 61
1, 132438, Note_off_c, 0, 72, 37
1, 132485, Note_off_c, 0, 84, 61
1, 132525, Note_off_c, 0, 75, 61
1, 132576, Note_on_c, 0, 51, 46
1, 132635, Control_c, 0, 67, 123
1, 132650, Control_c, 0, 67, 117
1, 132661, Note_on_c, 0, 57, 52
1, 132665, Control_c, 0, 67, 111
1, 132680, Control_c, 0, 67, 105
1, 132695, Control_c, 0, 67, 97
1, 132698, Note_off_c, 0, 51, 53
1, 132709, Control_c, 0, 67, 88
1, 132724, Control_c, 0, 67, 79
1, 132739, Control_c, 0, 67, 70
1, 132740, Note_on_c, 0, 60, 48
1, 132744, Note_off_c, 0, 57, 56
1, 132754, Control_c, 0, 67, 62
1, 132764, Note_off_c, 0, 60, 56
1, 132769, Control_c, 0, 67, 54
1, 132783, Control_c, 0, 67, 46
1, 132789, Note_on_c, 0, 63, 47
1, 132798, Control_c, 0, 67, 33
1, 132813, Control_c, 0, 67, 19
1, 132827, Control_c, 0, 67, 0
1, 132845, Note_off_c, 0, 63, 54
1, 132848, Note_on_c, 0, 69, 54
1, 132890, Note_off_c, 0, 69, 57
1, 132913, Note_on_c, 0, 72, 53
1, 132975, Note_off_c, 0, 72, 58
1, 132983, Note_on_c, 0, 75, 56
1, 133052, Note_on_c, 0, 72, 46
1, 133068, Note_off_c, 0, 75, 47
1, 133111, Note_on_c, 0, 69, 53
1, 133166, Note_on_c, 0, 63, 61
1, 133197, Note_off_c, 0, 63, 65
1, 133214, Note_off_c, 0, 69, 59
1, 133236, Note_off_c, 0, 72, 22
1, 133239, Note_on_c, 0, 60, 55
1, 133279, Note_off_c, 0, 60, 59
1, 133310, Note_on_c, 0, 57, 49
1, 133348, Note_off_c, 0, 57, 62
1, 133379, Note_on_c, 0, 51, 57
1, 133411, Note_off_c, 0, 51, 63
1, 133470, Note_on_c, 0, 72, 57
1, 133614, Note_on_c, 0, 76, 69
1, 133736, Note_on_c, 0, 40, 59
1, 133784, Control_c, 0, 64, 109
1, 133799, Control_c, 0, 64, 80
1, 133814, Control_c, 0, 64, 65
1, 133829, Control_c, 0, 64, 34
1, 133843, Control_c, 0, 64, 0
1, 133871, Note_on_c, 0, 84, 66
1, 133873, Control_c, 0, 64, 20
1, 133888, Control_c, 0, 64, 64
1, 133903, Control_c, 0, 64, 80
1, 133917, Control_c, 0, 64, 127
1, 133948, Note_off_c, 0, 40, 61
1, 133967, Note_off_c, 0, 84, 61
1, 133982, Note_off_c, 0, 72, 38
1, 134003, Note_off_c, 0, 76, 62
1, 134100, Note_on_c, 0, 52, 45
1, 134175, Note_off_c, 0, 52, 56
1, 134176, Note_on_c, 0, 57, 52
1, 134235, Note_off_c, 0, 57, 55
1, 134253, Note_on_c, 0, 60, 55
1, 134274, Note_on_c, 0, 64, 38
1, 134275, Note_off_c, 0, 60, 59
1, 134336, Note_off_c, 0, 64, 57
1, 134338, Note_on_c, 0, 69, 44
1, 134380, Note_off_c, 0, 69, 57
1, 134400, Note_on_c, 0, 72, 51
1, 134443, Note_off_c, 0, 72, 60
1, 134479, Note_on_c, 0, 76, 49
1, 134531, Note_off_c, 0, 76, 59
1, 134559, Note_on_c, 0, 72, 47
1, 134617, Note_off_c, 0, 72, 53
1, 134629, Note_on_c, 0, 69, 44
1, 134701, Note_on_c, 0, 64, 48
1, 134731, Note_off_c, 0, 64, 64
1, 134809, Note_off_c, 0, 69, 38
1, 134818, Note_on_c, 0, 60, 38
1, 134883, Note_off_c, 0, 60, 56
1, 134940, Note_on_c, 0, 57, 30
1, 134956, Control_c, 0, 67, 8
1, 134971, Control_c, 0, 67, 12
1, 134985, Control_c, 0, 67, 16
1, 135000, Control_c, 0, 67, 21
1, 135011, Note_off_c, 0, 57, 40
1, 135015, Control_c, 0, 67, 27
1, 135030, Control_c, 0, 67, 32
1, 135045, Control_c, 0, 67, 38
1, 135060, Control_c, 0, 67, 43
1, 135075, Control_c, 0, 67, 49
1, 135077, Note_on_c, 0, 52, 34
1, 135090, Control_c, 0, 67, 54
1, 135104, Control_c, 0, 67, 60
1, 135115, Note_off_c, 0, 52, 46
1, 135119, Control_c, 0, 67, 66
1, 135134, Control_c, 0, 67, 72
1, 135149, Control_c, 0, 67, 79
1, 135164, Control_c, 0, 67, 87
1, 135178, Control_c, 0, 67, 97
1, 135193, Control_c, 0, 67, 106
1, 135208, Control_c, 0, 67, 117
1, 135218, Note_on_c, 0, 74, 47
1, 135222, Control_c, 0, 67, 127
1, 135388, Note_off_c, 0, 74, 52
1, 135400, Note_on_c, 0, 81, 52
1, 135755, Note_on_c, 0, 38, 37
1, 135823, Control_c, 0, 64, 110
1, 135838, Control_c, 0, 64, 86
1, 135853, Control_c, 0, 64, 68
1, 135868, Control_c, 0, 64, 0
1, 135892, Note_on_c, 0, 90, 61
1, 135966, Note_off_c, 0, 81, 43
1, 136001, Control_c, 0, 64, 62
1, 136016, Control_c, 0, 64, 69
1, 136031, Control_c, 0, 64, 79
1, 136045, Control_c, 0, 64, 99
1, 136060, Control_c, 0, 64, 127
1, 136082, Note_off_c, 0, 38, 44
1, 136106, Note_off_c, 0, 90, 63
1, 136305, Note_on_c, 0, 54, 32
1, 136407, Note_off_c, 0, 54, 48
1, 136412, Note_on_c, 0, 57, 42
1, 136494, Note_off_c, 0, 57, 55
1, 136496, Note_on_c, 0, 62, 45
1, 136523, Note_off_c, 0, 62, 55
1, 136577, Note_on_c, 0, 66, 42
1, 136625, Note_off_c, 0, 66, 57
1, 136639, Note_on_c, 0, 69, 44
1, 136678, Note_off_c, 0, 69, 58
1, 136710, Note_on_c, 0, 74, 46
1, 136756, Note_off_c, 0, 74, 59
1, 136789, Note_on_c, 0, 78, 49
1, 136831, Note_off_c, 0, 78, 61
1, 136863, Note_on_c, 0, 74, 44
1, 136910, Note_off_c, 0, 74, 57
1, 136922, Note_on_c, 0, 69, 50
1, 136979, Note_on_c, 0, 66, 59
1, 136979, Note_off_c, 0, 69, 53
1, 137001, Note_off_c, 0, 66, 62
1, 137079, Note_on_c, 0, 62, 48
1, 137198, Note_on_c, 0, 57, 43
1, 137259, Note_off_c, 0, 57, 52
1, 137336, Note_on_c, 0, 54, 35
1, 137689, Note_on_c, 0, 36, 50
1, 137706, Control_c, 0, 64, 106
1, 137721, Control_c, 0, 64, 85
1, 137735, Control_c, 0, 64, 69
1, 137750, Control_c, 0, 64, 48
1, 137765, Control_c, 0, 64, 41
1, 137780, Control_c, 0, 64, 56
1, 137795, Control_c, 0, 64, 66
1, 137797, Note_off_c, 0, 62, 1
1, 137807, Note_off_c, 0, 54, 57
1, 137809, Control_c, 0, 64, 77
1, 137818, Note_off_c, 0, 36, 62
1, 137824, Control_c, 0, 64, 104
1, 137839, Control_c, 0, 64, 127
1, 137959, Note_on_c, 0, 54, 44
1, 138020, Note_off_c, 0, 54, 53
1, 138038, Note_on_c, 0, 57, 43
1, 138110, Note_on_c, 0, 62, 37
1, 138124, Note_off_c, 0, 57, 55
1, 138142, Note_off_c, 0, 62, 52
1, 138189, Note_on_c, 0, 66, 43
1, 138232, Note_off_c, 0, 66, 58
1, 138238, Note_on_c, 0, 69, 49
1, 138282, Note_off_c, 0, 69, 53
1, 138316, Note_on_c, 0, 74, 44
1, 138360, Note_off_c, 0, 74, 61
1, 138379, Note_on_c, 0, 78, 53
1, 138425, Note_off_c, 0, 78, 58
1, 138452, Note_on_c, 0, 74, 44
1, 138470, Control_c, 0, 67, 126
1, 138485, Control_c, 0, 67, 120
1, 138500, Control_c, 0, 67, 112
1, 138504, Note_on_c, 0, 69, 50
1, 138515, Note_off_c, 0, 74, 49
1, 138515, Control_c, 0, 67, 105
1, 138530, Control_c, 0, 67, 97
1, 138545, Control_c, 0, 67, 88
1, 138559, Control_c, 0, 67, 76
1, 138567, Note_on_c, 0, 66, 51
1, 138574, Control_c, 0, 67, 65
1, 138589, Control_c, 0, 67, 53
1, 138590, Note_off_c, 0, 66, 59
1, 138592, Note_off_c, 0, 69, 58
1, 138604, Note_on_c, 0, 62, 46
1, 138604, Control_c, 0, 67, 41
1, 138626, Control_c, 0, 67, 29
1, 138640, Control_c, 0, 67, 17
1, 138652, Note_off_c, 0, 62, 57
1, 138655, Control_c, 0, 67, 0
1, 138685, Note_on_c, 0, 57, 44
1, 138722, Note_off_c, 0, 57, 59
1, 138749, Note_on_c, 0, 54, 48
1, 138784, Note_off_c, 0, 54, 61
1, 138867, Note_on_c, 0, 75, 48
1, 139018, Note_on_c, 0, 83, 60
1, 139073, Note_off_c, 0, 75, 58
1, 139173, Note_on_c, 0, 35, 54
1, 139233, Control_c, 0, 64, 88
1, 139248, Control_c, 0, 64, 74
1, 139263, Control_c, 0, 64, 64
1, 139278, Control_c, 0, 64, 51
1, 139279, Note_on_c, 0, 90, 68
1, 139293, Control_c, 0, 64, 52
1, 139307, Control_c, 0, 64, 63
1, 139322, Control_c, 0, 64, 76
1, 139332, Note_off_c, 0, 35, 62
1, 139337, Control_c, 0, 64, 127
1, 139400, Note_off_c, 0, 90, 65
1, 139417, Note_off_c, 0, 83, 61
1, 139525, Note_on_c, 0, 54, 34
1, 139597, Note_on_c, 0, 59, 53
1, 139663, Note_on_c, 0, 63, 56
1, 139681, Note_off_c, 0, 59, 59
1, 139683, Note_off_c, 0, 54, 60
1, 139688, Note_off_c, 0, 63, 62
1, 139713, Note_on_c, 0, 66, 48
1, 139769, Note_off_c, 0, 66, 52
1, 139770, Note_on_c, 0, 71, 47
1, 139815, Note_off_c, 0, 71, 58
1, 139829, Note_on_c, 0, 75, 53
1, 139879, Note_off_c, 0, 75, 58
1, 139896, Note_on_c, 0, 78, 60
1, 139943, Note_on_c, 0, 75, 56
1, 139998, Note_off_c, 0, 78, 57
1, 140006, Note_on_c, 0, 71, 62
1, 140059, Note_on_c, 0, 66, 57
1, 140084, Note_off_c, 0, 66, 61
1, 140098, Note_off_c, 0, 71, 61
1, 140142, Note_on_c, 0, 63, 61
1, 140160, Note_off_c, 0, 75, 36
1, 140174, Note_off_c, 0, 63, 63
1, 140208, Note_on_c, 0, 59, 61
1, 140239, Note_off_c, 0, 59, 64
1, 140266, Note_on_c, 0, 54, 62
1, 140294, Note_off_c, 0, 54, 61
1, 140346, Note_on_c, 0, 75, 64
1, 140475, Note_on_c, 0, 83, 76
1, 140507, Note_off_c, 0, 75, 57
1, 140601, Note_on_c, 0, 33, 65
1, 140642, Control_c, 0, 64, 74
1, 140657, Control_c, 0, 64, 16
1, 140672, Control_c, 0, 64, 0
1, 140725, Note_on_c, 0, 90, 72
1, 140775, Control_c, 0, 64, 70
1, 140790, Control_c, 0, 64, 90
1, 140805, Control_c, 0, 64, 127
1, 140815, Note_off_c, 0, 33, 61
1, 140849, Note_off_c, 0, 83, 60
1, 140850, Note_off_c, 0, 90, 64
1, 141026, Note_on_c, 0, 54, 38
1, 141093, Note_on_c, 0, 59, 53
1, 141119, Note_off_c, 0, 54, 54
1, 141171, Note_on_c, 0, 63, 54
1, 141174, Note_off_c, 0, 59, 59
1, 141203, Note_off_c, 0, 63, 63
1, 141246, Note_on_c, 0, 66, 41
1, 141299, Note_on_c, 0, 71, 46
1, 141309, Note_off_c, 0, 66, 53
1, 141345, Note_off_c, 0, 71, 58
1, 141371, Note_on_c, 0, 75, 49
1, 141442, Note_off_c, 0, 75, 59
1, 141460, Note_on_c, 0, 78, 52
1, 141521, Note_off_c, 0, 78, 59
1, 141538, Note_on_c, 0, 75, 40
1, 141598, Note_off_c, 0, 75, 54
1, 141637, Note_on_c, 0, 71, 34
1, 141702, Note_on_c, 0, 66, 45
1, 141734, Note_off_c, 0, 66, 61
1, 141776, Note_off_c, 0, 71, 50
1, 141845, Note_on_c, 0, 63, 45
1, 141921, Note_off_c, 0, 63, 54
1, 141931, Control_c, 0, 67, 8
1, 141946, Control_c, 0, 67, 12
1, 141961, Control_c, 0, 67, 17
1, 141976, Control_c, 0, 67, 25
1, 141991, Control_c, 0, 67, 34
1, 142006, Control_c, 0, 67, 44
1, 142015, Poly_aftertouch_c, 0, 59, 127
1, 142016, Note_on_c, 0, 59, 3
1, 142020, Control_c, 0, 67, 53
1, 142035, Control_c, 0, 67, 63
1, 142050, Control_c, 0, 67, 72
1, 142057, Note_off_c, 0, 59, 47
1, 142065, Control_c, 0, 67, 81
1, 142080, Control_c, 0, 67, 92
1, 142092, Note_on_c, 0, 54, 36
1, 142095, Control_c, 0, 67, 102
1, 142110, Control_c, 0, 67, 113
1, 142125, Control_c, 0, 67, 124
1, 142139, Control_c, 0, 67, 127
1, 142149, Note_off_c, 0, 54, 59
1, 142262, Note_on_c, 0, 78, 42
1, 142432, Note_on_c, 0, 84, 50
1, 142544, Note_off_c, 0, 78, 57
1, 142578, Note_on_c, 0, 87, 62
1, 142736, Note_off_c, 0, 84, 53
1, 142851, Note_off_c, 0, 87, 47
1, 142977, Note_on_c, 0, 32, 40
1, 143036, Control_c, 0, 64, 124
1, 143051, Control_c, 0, 64, 90
1, 143066, Control_c, 0, 64, 70
1, 143080, Control_c, 0, 64, 0
1, 143143, Note_on_c, 0, 93, 57
1, 143236, Control_c, 0, 64, 14
1, 143251, Control_c, 0, 64, 69
1, 143266, Control_c, 0, 64, 79
1, 143280, Control_c, 0, 64, 106
1, 143295, Control_c, 0, 64, 127
1, 143300, Note_off_c, 0, 93, 61
1, 143310, Note_off_c, 0, 32, 55
1, 143687, Note_on_c, 0, 44, 37
1, 143889, Note_off_c, 0, 44, 56
1, 143916, Note_on_c, 0, 60, 36
1, 143928, Note_on_c, 0, 51, 33
1, 144058, Note_off_c, 0, 51, 58
1, 144073, Note_off_c, 0, 60, 40
1, 144086, Note_on_c, 0, 63, 45
1, 144087, Note_on_c, 0, 54, 41
1, 144151, Note_off_c, 0, 54, 57
1, 144156, Note_off_c, 0, 63, 60
1, 144231, Note_on_c, 0, 60, 35
1, 144235, Note_on_c, 0, 69, 35
1, 144264, Note_off_c, 0, 60, 48
1, 144265, Note_off_c, 0, 69, 58
1, 144310, Control_c, 0, 67, 126
1, 144325, Control_c, 0, 67, 122
1, 144340, Control_c, 0, 67, 118
1, 144350, Note_on_c, 0, 72, 51
1, 144355, Control_c, 0, 67, 115
1, 144357, Note_on_c, 0, 63, 32
1, 144370, Control_c, 0, 67, 112
1, 144386, Control_c, 0, 67, 108
1, 144400, Control_c, 0, 67, 103
1, 144408, Note_off_c, 0, 63, 51
1, 144415, Control_c, 0, 67, 97
1, 144430, Control_c, 0, 67, 89
1, 144438, Note_off_c, 0, 72, 38
1, 144445, Control_c, 0, 67, 83
1, 144459, Control_c, 0, 67, 77
1, 144461, Note_on_c, 0, 75, 56
1, 144474, Control_c, 0, 67, 72
1, 144476, Note_on_c, 0, 66, 20
1, 144489, Control_c, 0, 67, 67
1, 144500, Note_off_c, 0, 75, 61
1, 144504, Control_c, 0, 67, 61
1, 144517, Note_off_c, 0, 66, 51
1, 144519, Control_c, 0, 67, 56
1, 144533, Control_c, 0, 67, 51
1, 144548, Control_c, 0, 67, 46
1, 144563, Control_c, 0, 67, 41
1, 144573, Note_on_c, 0, 81, 52
1, 144578, Note_on_c, 0, 72, 24
1, 144578, Control_c, 0, 67, 35
1, 144593, Control_c, 0, 67, 30
1, 144611, Note_off_c, 0, 81, 65
1, 144615, Control_c, 0, 67, 24
1, 144624, Note_off_c, 0, 72, 42
1, 144630, Control_c, 0, 67, 18
1, 144645, Control_c, 0, 67, 13
1, 144659, Control_c, 0, 67, 0
1, 144718, Note_on_c, 0, 84, 43
1, 144733, Poly_aftertouch_c, 0, 75, 127
1, 144774, Poly_aftertouch_c, 0, 75, 0
1, 144777, Note_off_c, 0, 84, 55
1, 144803, Note_on_c, 0, 87, 43
1, 144840, Poly_aftertouch_c, 0, 78, 127
1, 144873, Note_off_c, 0, 87, 47
1, 144906, Note_on_c, 0, 84, 46
1, 144912, Note_on_c, 0, 93, 48
1, 144945, Note_off_c, 0, 84, 53
1, 144972, Poly_aftertouch_c, 0, 78, 0
1, 145009, Poly_aftertouch_c, 0, 78, 127
1, 145015, Note_on_c, 0, 87, 53
1, 145015, Control_c, 0, 67, 16
1, 145020, Note_off_c, 0, 93, 56
1, 145030, Control_c, 0, 67, 27
1, 145045, Control_c, 0, 67, 39
1, 145059, Control_c, 0, 67, 49
1, 145060, Poly_aftertouch_c, 0, 78, 0
1, 145074, Control_c, 0, 67, 60
1, 145089, Control_c, 0, 67, 70
1, 145103, Note_on_c, 0, 81, 61
1, 145104, Control_c, 0, 67, 82
1, 145113, Note_on_c, 0, 72, 22
1, 145116, Note_off_c, 0, 87, 59
1, 145119, Control_c, 0, 67, 96
1, 145130, Note_off_c, 0, 81, 68
1, 145133, Control_c, 0, 67, 106
1, 145148, Control_c, 0, 67, 116
1, 145151, Note_off_c, 0, 72, 45
1, 145163, Control_c, 0, 67, 124
1, 145179, Control_c, 0, 67, 127
1, 145213, Note_on_c, 0, 75, 60
1, 145234, Note_on_c, 0, 66, 32
1, 145240, Note_off_c, 0, 75, 63
1, 145270, Note_off_c, 0, 66, 50
1, 145295, Note_on_c, 0, 81, 53
1, 145347, Note_off_c, 0, 81, 55
1, 145361, Note_on_c, 0, 87, 62
1, 145406, Note_off_c, 0, 87, 58
1, 145424, Note_on_c, 0, 84, 44
1, 145427, Note_on_c, 0, 93, 69
1, 145445, Note_off_c, 0, 84, 56
1, 145500, Note_on_c, 0, 87, 71
1, 145511, Note_off_c, 0, 93, 54
1, 145554, Note_on_c, 0, 81, 73
1, 145569, Note_off_c, 0, 87, 60
1, 145589, Note_off_c, 0, 81, 61
1, 145597, Poly_aftertouch_c, 0, 72, 0
1, 145627, Note_on_c, 0, 75, 73
1, 145629, Poly_aftertouch_c, 0, 72, 0
1, 145649, Note_off_c, 0, 75, 68
1, 145651, Note_on_c, 0, 66, 48
1, 145676, Note_off_c, 0, 66, 58
1, 145701, Note_on_c, 0, 81, 65
1, 145708, Poly_aftertouch_c, 0, 68, 127
1, 145739, Note_off_c, 0, 81, 62
1, 145745, Poly_aftertouch_c, 0, 68, 0
1, 145767, Note_on_c, 0, 87, 60
1, 145813, Note_off_c, 0, 87, 56
1, 145842, Note_on_c, 0, 78, 68
1, 145894, Note_off_c, 0, 78, 60
1, 145919, Note_on_c, 0, 84, 58
1, 145980, Note_on_c, 0, 87, 61
1, 146028, Note_off_c, 0, 84, 52
1, 146031, Control_c, 0, 64, 84
1, 146046, Control_c, 0, 64, 63
1, 146061, Control_c, 0, 64, 0
1, 146063, Note_on_c, 0, 93, 66
1, 146069, Note_on_c, 0, 32, 50
1, 146113, Control_c, 0, 64, 60
1, 146121, Note_off_c, 0, 87, 61
1, 146122, Note_off_c, 0, 93, 63
1, 146128, Control_c, 0, 64, 72
1, 146133, Note_off_c, 0, 32, 61
1, 146143, Control_c, 0, 64, 90
1, 146158, Control_c, 0, 64, 127
1, 146327, Note_on_c, 0, 44, 40
1, 146395, Note_off_c, 0, 44, 52
1, 146412, Note_on_c, 0, 60, 53
1, 146460, Note_on_c, 0, 51, 36
1, 146506, Note_off_c, 0, 60, 48
1, 146521, Note_off_c, 0, 51, 55
1, 146532, Note_on_c, 0, 63, 54
1, 146557, Note_on_c, 0, 54, 41
1, 146571, Note_off_c, 0, 63, 62
1, 146587, Note_off_c, 0, 54, 55
1, 146642, Note_on_c, 0, 69, 47
1, 146656, Note_on_c, 0, 60, 33
1, 146665, Note_off_c, 0, 69, 60
1, 146683, Note_off_c, 0, 60, 52
1, 146739, Note_on_c, 0, 72, 53
1, 146742, Note_on_c, 0, 63, 42
1, 146776, Note_off_c, 0, 63, 54
1, 146787, Note_off_c, 0, 72, 52
1, 146818, Note_on_c, 0, 66, 48
1, 146818, Note_on_c, 0, 75, 64
1, 146844, Note_off_c, 0, 66, 57
1, 146855, Note_off_c, 0, 75, 63
1, 146920, Note_on_c, 0, 81, 61
1, 146925, Note_on_c, 0, 72, 20
1, 146947, Note_off_c, 0, 81, 68
1, 146963, Note_off_c, 0, 72, 45
1, 146996, Note_on_c, 0, 75, 28
1, 147025, Note_on_c, 0, 84, 42
1, 147030, Note_off_c, 0, 75, 51
1, 147050, Note_off_c, 0, 84, 51
1, 147076, Note_on_c, 0, 78, 30
1, 147089, Note_on_c, 0, 87, 56
1, 147132, Note_off_c, 0, 87, 57
1, 147147, Note_on_c, 0, 84, 52
1, 147169, Note_off_c, 0, 84, 62
1, 147180, Note_on_c, 0, 93, 51
1, 147213, Note_off_c, 0, 78, 0
1, 147249, Note_on_c, 0, 87, 67
1, 147250, Poly_aftertouch_c, 0, 78, 127
1, 147256, Note_off_c, 0, 93, 53
1, 147292, Poly_aftertouch_c, 0, 78, 0
1, 147294, Note_on_c, 0, 72, 50
1, 147314, Note_on_c, 0, 81, 77
1, 147315, Note_off_c, 0, 87, 60
1, 147315, Note_off_c, 0, 72, 62
1, 147343, Note_off_c, 0, 81, 64
1, 147398, Note_on_c, 0, 75, 68
1, 147411, Note_on_c, 0, 66, 54
1, 147422, Note_off_c, 0, 75, 68
1, 147433, Note_off_c, 0, 66, 61
1, 147475, Note_on_c, 0, 81, 63
1, 147537, Note_off_c, 0, 81, 59
1, 147542, Note_on_c, 0, 87, 59
1, 147570, Note_on_c, 0, 84, 64
1, 147576, Note_off_c, 0, 87, 63
1, 147586, Note_off_c, 0, 84, 65
1, 147604, Note_on_c, 0, 93, 68
1, 147672, Note_on_c, 0, 87, 75
1, 147677, Note_off_c, 0, 93, 59
1, 147683, Note_on_c, 0, 72, 55
1, 147715, Note_off_c, 0, 72, 64
1, 147717, Note_on_c, 0, 81, 76
1, 147733, Note_off_c, 0, 87, 60
1, 147749, Note_off_c, 0, 81, 63
1, 147783, Note_on_c, 0, 75, 77
1, 147801, Note_off_c, 0, 75, 69
1, 147803, Note_on_c, 0, 66, 59
1, 147836, Note_off_c, 0, 66, 63
1, 147851, Note_on_c, 0, 81, 64
1, 147882, Note_off_c, 0, 81, 65
1, 147919, Note_on_c, 0, 87, 60
1, 147958, Note_off_c, 0, 87, 59
1, 147989, Note_on_c, 0, 78, 68
1, 148044, Note_off_c, 0, 78, 58
1, 148074, Note_on_c, 0, 84, 60
1, 148143, Note_on_c, 0, 87, 65
1, 148167, Note_off_c, 0, 84, 47
1, 148188, Control_c, 0, 64, 91
1, 148203, Control_c, 0, 64, 71
1, 148218, Control_c, 0, 64, 45
1, 148233, Control_c, 0, 64, 0
1, 148239, Note_on_c, 0, 32, 54
1, 148242, Note_on_c, 0, 93, 62
1, 148260, Note_off_c, 0, 87, 62
1, 148262, Control_c, 0, 64, 59
1, 148269, Note_off_c, 0, 93, 65
1, 148277, Control_c, 0, 64, 72
1, 148289, Note_off_c, 0, 32, 61
1, 148292, Control_c, 0, 64, 90
1, 148307, Control_c, 0, 64, 127
1, 148472, Note_on_c, 0, 44, 48
1, 148569, Note_off_c, 0, 44, 54
1, 148575, Note_on_c, 0, 60, 57
1, 148621, Note_on_c, 0, 51, 36
1, 148641, Note_off_c, 0, 60, 48
1, 148680, Note_off_c, 0, 51, 59
1, 148688, Note_on_c, 0, 63, 56
1, 148713, Note_on_c, 0, 54, 45
1, 148743, Note_off_c, 0, 63, 58
1, 148744, Note_off_c, 0, 54, 59
1, 148794, Note_on_c, 0, 69, 48
1, 148811, Note_on_c, 0, 60, 40
1, 148825, Note_off_c, 0, 69, 64
1, 148832, Note_off_c, 0, 60, 57
1, 148893, Note_on_c, 0, 63, 50
1, 148897, Note_on_c, 0, 72, 53
1, 148933, Note_off_c, 0, 63, 62
1, 148936, Note_off_c, 0, 72, 54
1, 148973, Note_on_c, 0, 75, 58
1, 149001, Note_off_c, 0, 75, 66
1, 149055, Note_on_c, 0, 72, 45
1, 149063, Note_on_c, 0, 81, 58
1, 149080, Note_off_c, 0, 72, 56
1, 149085, Note_off_c, 0, 81, 65
1, 149187, Note_on_c, 0, 84, 22
1, 149189, Poly_aftertouch_c, 0, 75, 127
1, 149222, Note_off_c, 0, 84, 51
1, 149228, Note_on_c, 0, 78, 45
1, 149228, Poly_aftertouch_c, 0, 75, 0
1, 149239, Note_on_c, 0, 87, 47
1, 149258, Note_off_c, 0, 78, 52
1, 149296, Note_off_c, 0, 87, 53
1, 149315, Note_on_c, 0, 84, 53
1, 149333, Note_off_c, 0, 84, 62
1, 149357, Note_on_c, 0, 93, 23
1, 149400, Note_off_c, 0, 93, 47
1, 149412, Note_on_c, 0, 87, 63
1, 149462, Note_off_c, 0, 87, 53
1, 149469, Note_on_c, 0, 81, 71
1, 149470, Note_on_c, 0, 72, 43
1, 149493, Note_off_c, 0, 81, 69
1, 149495, Note_off_c, 0, 72, 56
1, 149576, Note_on_c, 0, 75, 54
1, 149580, Note_on_c, 0, 66, 52
1, 149595, Note_off_c, 0, 75, 63
1, 149602, Note_off_c, 0, 66, 59
1, 149616, Note_on_c, 0, 81, 58
1, 149691, Note_off_c, 0, 81, 59
1, 149698, Note_on_c, 0, 87, 57
1, 149732, Note_off_c, 0, 87, 63
1, 149755, Note_on_c, 0, 84, 54
1, 149756, Note_on_c, 0, 93, 68
1, 149774, Note_off_c, 0, 84, 61
1, 149817, Note_on_c, 0, 87, 77
1, 149821, Note_off_c, 0, 93, 61
1, 149857, Note_on_c, 0, 72, 49
1, 149880, Note_off_c, 0, 72, 61
1, 149881, Note_on_c, 0, 81, 77
1, 149887, Note_off_c, 0, 87, 60
1, 149907, Note_off_c, 0, 81, 66
1, 149955, Note_on_c, 0, 75, 65
1, 149973, Note_on_c, 0, 66, 48
1, 149980, Note_off_c, 0, 75, 67
1, 149997, Note_off_c, 0, 66, 58
1, 150009, Note_on_c, 0, 81, 72
1, 150066, Poly_aftertouch_c, 0, 68, 0
1, 150078, Note_on_c, 0, 87, 69
1, 150082, Note_off_c, 0, 81, 62
1, 150129, Note_off_c, 0, 87, 61
1, 150137, Note_on_c, 0, 84, 49
1, 150143, Note_on_c, 0, 93, 66
1, 150156, Note_off_c, 0, 84, 60
1, 150191, Note_on_c, 0, 87, 68
1, 150223, Note_off_c, 0, 93, 58
1, 150234, Note_on_c, 0, 72, 47
1, 150257, Note_on_c, 0, 81, 78
1, 150257, Note_off_c, 0, 72, 60
1, 150270, Note_off_c, 0, 87, 61
1, 150281, Note_off_c, 0, 81, 67
1, 150331, Note_on_c, 0, 75, 69
1, 150355, Note_on_c, 0, 66, 46
1, 150355, Note_off_c, 0, 75, 68
1, 150380, Note_off_c, 0, 66, 56
1, 150391, Note_on_c, 0, 81, 67
1, 150427, Poly_aftertouch_c, 0, 72, 0
1, 150435, Control_c, 0, 67, 126
1, 150450, Control_c, 0, 67, 118
1, 150464, Control_c, 0, 67, 112
1, 150470, Note_off_c, 0, 81, 55
1, 150479, Control_c, 0, 67, 106
1, 150482, Note_on_c, 0, 87, 65
1, 150494, Control_c, 0, 67, 97
1, 150509, Control_c, 0, 67, 85
1, 150523, Control_c, 0, 67, 71
1, 150538, Control_c, 0, 67, 59
1, 150543, Note_off_c, 0, 87, 59
1, 150549, Note_on_c, 0, 84, 55
1, 150553, Control_c, 0, 67, 49
1, 150568, Note_on_c, 0, 93, 65
1, 150568, Control_c, 0, 67, 39
1, 150571, Note_off_c, 0, 84, 58
1, 150583, Control_c, 0, 67, 26
1, 150605, Control_c, 0, 67, 10
1, 150620, Control_c, 0, 67, 0
1, 150659, Note_off_c, 0, 93, 61
1, 150665, Note_on_c, 0, 87, 56
1, 150707, Note_off_c, 0, 87, 54
1, 150718, Note_on_c, 0, 72, 38
1, 150728, Note_on_c, 0, 81, 64
1, 150746, Note_off_c, 0, 72, 52
1, 150752, Note_off_c, 0, 81, 69
1, 150880, Note_on_c, 0, 66, 8
1, 150889, Note_on_c, 0, 75, 3
1, 150926, Note_off_c, 0, 66, 49
1, 150926, Note_off_c, 0, 75, 50
1, 150933, Note_on_c, 0, 81, 45
1, 151014, Note_off_c, 0, 81, 60
1, 151040, Note_on_c, 0, 87, 42
1, 151067, Note_off_c, 0, 87, 53
1, 151264, Note_on_c, 0, 87, 35
1, 151285, Note_on_c, 0, 96, 62
1, 151317, Control_c, 0, 64, 93
1, 151332, Control_c, 0, 64, 77
1, 151354, Control_c, 0, 64, 70
1, 151369, Control_c, 0, 64, 73
1, 151383, Control_c, 0, 64, 91
1, 151398, Control_c, 0, 64, 127
1, 151409, Note_off_c, 0, 87, 0
1, 151419, Note_off_c, 0, 96, 57
1, 151446, Note_on_c, 0, 87, 7
1, 151515, Note_off_c, 0, 87, 57
1, 151527, Note_on_c, 0, 81, 59
1, 151542, Poly_aftertouch_c, 0, 78, 127
1, 151544, Note_off_c, 0, 81, 65
1, 151577, Poly_aftertouch_c, 0, 78, 0
1, 151616, Note_on_c, 0, 84, 63
1, 151646, Note_on_c, 0, 81, 23
1, 151678, Note_off_c, 0, 84, 58
1, 151682, Note_on_c, 0, 75, 27
1, 151710, Note_on_c, 0, 66, 32
1, 151741, Note_off_c, 0, 75, 61
1, 151747, Note_off_c, 0, 66, 48
1, 151752, Note_off_c, 0, 81, 25
1, 151774, Note_on_c, 0, 71, 51
1, 151792, Note_on_c, 0, 59, 41
1, 151801, Note_off_c, 0, 71, 54
1, 151828, Note_off_c, 0, 59, 50
1, 151836, Note_on_c, 0, 75, 50
1, 151857, Note_on_c, 0, 66, 53
1, 151871, Note_off_c, 0, 75, 64
1, 151891, Note_on_c, 0, 78, 53
1, 151924, Note_off_c, 0, 78, 64
1, 151929, Note_off_c, 0, 66, 59
1, 151931, Note_on_c, 0, 84, 59
1, 151957, Note_off_c, 0, 84, 62
1, 151974, Note_on_c, 0, 75, 60
1, 151988, Poly_aftertouch_c, 0, 69, 127
1, 151998, Note_off_c, 0, 75, 63
1, 152009, Note_on_c, 0, 81, 55
1, 152015, Poly_aftertouch_c, 0, 69, 0
1, 152034, Note_off_c, 0, 81, 56
1, 152060, Note_on_c, 0, 87, 58
1, 152120, Note_on_c, 0, 90, 73
1, 152122, Note_off_c, 0, 87, 51
1, 152180, Note_on_c, 0, 87, 61
1, 152180, Note_on_c, 0, 96, 76
1, 152188, Note_off_c, 0, 90, 60
1, 152207, Note_off_c, 0, 87, 64
1, 152241, Note_off_c, 0, 96, 62
1, 152263, Note_on_c, 0, 87, 64
1, 152295, Note_off_c, 0, 87, 62
1, 152313, Note_on_c, 0, 83, 59
1, 152316, Note_on_c, 0, 78, 26
1, 152331, Note_off_c, 0, 83, 64
1, 152352, Note_off_c, 0, 78, 51
1, 152388, Note_on_c, 0, 84, 73
1, 152440, Note_on_c, 0, 75, 11
1, 152454, Note_off_c, 0, 84, 55
1, 152484, Note_on_c, 0, 66, 31
1, 152507, Note_off_c, 0, 75, 60
1, 152521, Note_off_c, 0, 66, 49
1, 152522, Note_on_c, 0, 71, 57
1, 152549, Note_off_c, 0, 71, 54
1, 152555, Note_on_c, 0, 59, 56
1, 152576, Note_on_c, 0, 75, 56
1, 152588, Note_off_c, 0, 59, 62
1, 152621, Note_off_c, 0, 75, 61
1, 152642, Note_on_c, 0, 78, 47
1, 152665, Note_off_c, 0, 78, 60
1, 152671, Note_on_c, 0, 84, 61
1, 152696, Note_off_c, 0, 84, 62
1, 152749, Note_on_c, 0, 81, 48
1, 152771, Note_off_c, 0, 81, 59
1, 152786, Poly_aftertouch_c, 0, 75, 127
1, 152805, Note_on_c, 0, 87, 53
1, 152849, Note_off_c, 0, 87, 61
1, 152850, Poly_aftertouch_c, 0, 75, 0
1, 152868, Note_on_c, 0, 90, 58
1, 152901, Note_off_c, 0, 90, 61
1, 152931, Note_on_c, 0, 96, 60
1, 152951, Note_on_c, 0, 87, 47
1, 152956, Note_off_c, 0, 96, 56
1, 153034, Note_off_c, 0, 87, 60
1, 153035, Note_on_c, 0, 90, 49
1, 153060, Note_off_c, 0, 90, 58
1, 153068, Note_on_c, 0, 81, 66
1, 153083, Note_on_c, 0, 71, 50
1, 153103, Note_off_c, 0, 81, 55
1, 153104, Note_off_c, 0, 71, 59
1, 153129, Note_on_c, 0, 87, 61
1, 153164, Note_on_c, 0, 90, 64
1, 153181, Note_off_c, 0, 87, 60
1, 153216, Note_off_c, 0, 90, 62
1, 153220, Note_on_c, 0, 96, 71
1, 153226, Note_on_c, 0, 87, 66
1, 153251, Note_off_c, 0, 87, 65
1, 153269, Note_off_c, 0, 96, 62
1, 153303, Poly_aftertouch_c, 0, 87, 127
1, 153317, Poly_aftertouch_c, 0, 87, 0
1, 153324, Note_on_c, 0, 90, 65
1, 153361, Note_off_c, 0, 90, 60
1, 153365, Note_on_c, 0, 71, 59
1, 153367, Note_on_c, 0, 81, 71
1, 153400, Note_off_c, 0, 71, 61
1, 153414, Note_off_c, 0, 81, 54
1, 153417, Note_on_c, 0, 87, 72
1, 153458, Note_on_c, 0, 90, 76
1, 153473, Note_off_c, 0, 87, 63
1, 153521, Note_off_c, 0, 90, 62
1, 153521, Note_on_c, 0, 87, 67
1, 153538, Note_on_c, 0, 96, 61
1, 153545, Note_off_c, 0, 87, 66
1, 153563, Note_on_c, 0, 98, 14
1, 153564, Note_off_c, 0, 98, 127
1, 153581, Note_off_c, 0, 96, 55
1, 153608, Poly_aftertouch_c, 0, 87, 127
1, 153637, Note_on_c, 0, 90, 58
1, 153641, Poly_aftertouch_c, 0, 87, 0
1, 153675, Note_on_c, 0, 71, 53
1, 153679, Note_on_c, 0, 81, 76
1, 153679, Note_off_c, 0, 90, 61
1, 153701, Note_off_c, 0, 71, 59
1, 153736, Note_on_c, 0, 87, 75
1, 153745, Note_off_c, 0, 81, 55
1, 153789, Note_on_c, 0, 90, 74
1, 153813, Note_off_c, 0, 87, 60
1, 153852, Note_on_c, 0, 87, 53
1, 153855, Note_off_c, 0, 90, 63
1, 153866, Note_on_c, 0, 96, 73
1, 153875, Note_off_c, 0, 87, 65
1, 153925, Note_off_c, 0, 96, 61
1, 153944, Note_on_c, 0, 87, 66
1, 153977, Note_off_c, 0, 87, 58
1, 153979, Note_on_c, 0, 90, 64
1, 154043, Note_off_c, 0, 90, 60
1, 154060, Note_on_c, 0, 81, 50
1, 154095, Note_off_c, 0, 81, 47
1, 154114, Note_on_c, 0, 87, 61
1, 154178, Note_on_c, 0, 90, 66
1, 154242, Note_off_c, 0, 87, 55
1, 154279, Note_on_c, 0, 96, 73
1, 154296, Note_off_c, 0, 90, 64
1, 154308, Note_off_c, 0, 96, 64
1, 154355, Note_on_c, 0, 56, 45
1, 154455, Note_off_c, 0, 56, 56
1, 154469, Note_on_c, 0, 62, 32
1, 154499, Note_on_c, 0, 66, 58
1, 154505, Note_off_c, 0, 62, 51
1, 154536, Note_off_c, 0, 66, 62
1, 154585, Note_on_c, 0, 72, 32
1, 154618, Note_off_c, 0, 72, 50
1, 154620, Note_on_c, 0, 84, 57
1, 154677, Note_on_c, 0, 90, 58
1, 154683, Note_off_c, 0, 84, 52
1, 154704, Control_c, 0, 67, 9
1, 154719, Control_c, 0, 67, 11
1, 154726, Note_on_c, 0, 92, 69
1, 154734, Control_c, 0, 67, 13
1, 154746, Note_off_c, 0, 90, 63
1, 154748, Note_off_c, 0, 92, 69
1, 154749, Control_c, 0, 67, 17
1, 154765, Control_c, 0, 67, 21
1, 154780, Control_c, 0, 67, 24
1, 154794, Control_c, 0, 67, 26
1, 154809, Control_c, 0, 67, 29
1, 154819, Note_on_c, 0, 101, 77
1, 154824, Control_c, 0, 67, 32
1, 154839, Control_c, 0, 67, 39
1, 154842, Note_off_c, 0, 101, 67
1, 154854, Control_c, 0, 67, 48
1, 154868, Control_c, 0, 67, 61
1, 154883, Control_c, 0, 67, 73
1, 154898, Control_c, 0, 67, 89
1, 154913, Control_c, 0, 67, 106
1, 154928, Control_c, 0, 67, 123
1, 154943, Control_c, 0, 67, 127
1, 155274, Note_on_c, 0, 99, 40
1, 155411, Note_on_c, 0, 97, 53
1, 155436, Note_off_c, 0, 99, 36
1, 155530, Note_on_c, 0, 96, 50
1, 155534, Note_off_c, 0, 97, 59
1, 155569, Note_off_c, 0, 96, 66
1, 155589, Note_on_c, 0, 94, 60
1, 155617, Note_off_c, 0, 94, 66
1, 155667, Note_on_c, 0, 92, 62
1, 155724, Note_off_c, 0, 92, 61
1, 155742, Note_on_c, 0, 91, 39
1, 155772, Note_off_c, 0, 91, 52
1, 155787, Note_on_c, 0, 94, 62
1, 155816, Note_on_c, 0, 85, 39
1, 155825, Control_c, 0, 64, 86
1, 155848, Control_c, 0, 64, 71
1, 155849, Note_on_c, 0, 92, 61
1, 155850, Note_off_c, 0, 85, 54
1, 155863, Control_c, 0, 64, 67
1, 155877, Control_c, 0, 64, 70
1, 155881, Note_off_c, 0, 94, 56
1, 155892, Control_c, 0, 64, 82
1, 155893, Note_off_c, 0, 92, 58
1, 155900, Note_on_c, 0, 90, 59
1, 155907, Control_c, 0, 64, 113
1, 155922, Control_c, 0, 64, 127
1, 155928, Note_off_c, 0, 90, 67
1, 155950, Note_on_c, 0, 89, 58
1, 155984, Note_off_c, 0, 89, 65
1, 156001, Note_on_c, 0, 87, 64
1, 156025, Note_on_c, 0, 80, 36
1, 156042, Note_off_c, 0, 87, 58
1, 156046, Note_on_c, 0, 86, 58
1, 156054, Note_off_c, 0, 80, 54
1, 156074, Note_off_c, 0, 86, 65
1, 156081, Note_on_c, 0, 90, 61
1, 156111, Note_on_c, 0, 82, 35
1, 156137, Note_on_c, 0, 89, 63
1, 156144, Note_off_c, 0, 82, 48
1, 156144, Note_off_c, 0, 90, 60
1, 156148, Note_on_c, 0, 80, 49
1, 156179, Note_on_c, 0, 87, 67
1, 156183, Note_off_c, 0, 80, 55
1, 156204, Note_off_c, 0, 89, 59
1, 156233, Note_off_c, 0, 87, 60
1, 156236, Note_on_c, 0, 85, 62
1, 156264, Note_off_c, 0, 85, 67
1, 156269, Note_on_c, 0, 84, 66
1, 156286, Note_on_c, 0, 77, 47
1, 156294, Poly_aftertouch_c, 0, 78, 0
1, 156310, Note_off_c, 0, 77, 57
1, 156315, Note_off_c, 0, 84, 54
1, 156344, Note_on_c, 0, 82, 59
1, 156375, Note_off_c, 0, 82, 64
1, 156384, Note_on_c, 0, 80, 70
1, 156413, Note_on_c, 0, 73, 48
1, 156420, Note_off_c, 0, 80, 59
1, 156440, Note_on_c, 0, 79, 61
1, 156442, Note_off_c, 0, 73, 58
1, 156483, Note_on_c, 0, 82, 66
1, 156487, Note_on_c, 0, 71, 53
1, 156489, Note_off_c, 0, 79, 59
1, 156520, Note_off_c, 0, 71, 64
1, 156531, Note_on_c, 0, 80, 64
1, 156540, Note_on_c, 0, 73, 43
1, 156562, Note_off_c, 0, 73, 60
1, 156579, Note_off_c, 0, 82, 60
1, 156597, Note_off_c, 0, 80, 61
1, 156598, Note_on_c, 0, 78, 64
1, 156615, Note_on_c, 0, 72, 57
1, 156626, Note_off_c, 0, 78, 66
1, 156628, Note_on_c, 0, 77, 66
1, 156636, Note_off_c, 0, 72, 63
1, 156681, Note_on_c, 0, 70, 60
1, 156683, Note_off_c, 0, 77, 56
1, 156688, Note_on_c, 0, 75, 69
1, 156698, Note_off_c, 0, 70, 63
1, 156735, Note_on_c, 0, 74, 59
1, 156736, Note_off_c, 0, 75, 58
1, 156744, Note_on_c, 0, 68, 57
1, 156752, Note_on_c, 0, 78, 58
1, 156764, Note_off_c, 0, 74, 62
1, 156782, Note_off_c, 0, 68, 61
1, 156801, Note_on_c, 0, 70, 57
1, 156815, Note_on_c, 0, 77, 59
1, 156851, Note_off_c, 0, 70, 57
1, 156859, Note_on_c, 0, 75, 68
1, 156871, Note_on_c, 0, 68, 54
1, 156877, Note_off_c, 0, 78, 52
1, 156892, Note_off_c, 0, 68, 61
1, 156904, Note_off_c, 0, 77, 59
1, 156907, Note_on_c, 0, 73, 61
1, 156917, Note_off_c, 0, 75, 58
1, 156939, Note_off_c, 0, 73, 64
1, 156943, Note_on_c, 0, 72, 70
1, 156949, Note_on_c, 0, 66, 7
1, 156985, Note_on_c, 0, 65, 43
1, 156996, Note_off_c, 0, 72, 41
1, 156997, Note_off_c, 0, 66, 40
1, 157011, Note_off_c, 0, 65, 54
1, 157011, Note_on_c, 0, 70, 66
1, 157057, Note_on_c, 0, 68, 62
1, 157068, Note_off_c, 0, 70, 60
1, 157095, Poly_aftertouch_c, 0, 63, 127
1, 157098, Note_on_c, 0, 61, 54
1, 157104, Note_off_c, 0, 68, 58
1, 157113, Note_on_c, 0, 67, 64
1, 157131, Note_off_c, 0, 61, 65
1, 157136, Poly_aftertouch_c, 0, 63, 0
1, 157154, Note_on_c, 0, 59, 58
1, 157175, Note_on_c, 0, 70, 71
1, 157175, Note_off_c, 0, 67, 59
1, 157190, Note_off_c, 0, 59, 62
1, 157217, Note_on_c, 0, 61, 57
1, 157219, Note_on_c, 0, 68, 70
1, 157241, Note_off_c, 0, 61, 60
1, 157262, Note_off_c, 0, 70, 60
1, 157264, Note_on_c, 0, 66, 65
1, 157264, Note_off_c, 0, 68, 57
1, 157292, Note_on_c, 0, 60, 58
1, 157292, Note_off_c, 0, 66, 65
1, 157296, Note_on_c, 0, 65, 73
1, 157311, Note_off_c, 0, 60, 62
1, 157366, Note_on_c, 0, 63, 73
1, 157368, Note_on_c, 0, 58, 55
1, 157372, Note_off_c, 0, 65, 59
1, 157388, Control_c, 0, 64, 124
1, 157390, Note_off_c, 0, 58, 61
1, 157403, Control_c, 0, 64, 113
1, 157408, Note_on_c, 0, 62, 65
1, 157418, Control_c, 0, 64, 110
1, 157420, Note_off_c, 0, 63, 59
1, 157425, Note_on_c, 0, 56, 60
1, 157436, Note_on_c, 0, 66, 63
1, 157438, Note_off_c, 0, 62, 63
1, 157462, Control_c, 0, 64, 111
1, 157467, Note_off_c, 0, 56, 59
1, 157479, Note_on_c, 0, 58, 66
1, 157495, Note_on_c, 0, 65, 62
1, 157532, Note_off_c, 0, 58, 61
1, 157544, Note_on_c, 0, 63, 75
1, 157563, Note_on_c, 0, 56, 60
1, 157565, Note_off_c, 0, 66, 37
1, 157585, Note_off_c, 0, 56, 62
1, 157602, Note_off_c, 0, 65, 58
1, 157603, Note_on_c, 0, 61, 67
1, 157617, Note_off_c, 0, 63, 60
1, 157638, Note_off_c, 0, 61, 64
1, 157645, Note_on_c, 0, 60, 71
1, 157646, Note_on_c, 0, 53, 65
1, 157676, Note_off_c, 0, 53, 63
1, 157712, Note_off_c, 0, 60, 61
1, 157713, Note_on_c, 0, 58, 71
1, 157724, Note_on_c, 0, 51, 47
1, 157749, Note_off_c, 0, 51, 55
1, 157768, Note_on_c, 0, 49, 56
1, 157773, Note_on_c, 0, 56, 68
1, 157774, Control_c, 0, 64, 110
1, 157788, Control_c, 0, 64, 107
1, 157797, Note_off_c, 0, 58, 55
1, 157798, Note_off_c, 0, 49, 61
1, 157803, Control_c, 0, 64, 96
1, 157814, Note_on_c, 0, 48, 55
1, 157818, Control_c, 0, 64, 82
1, 157832, Control_c, 0, 64, 68
1, 157838, Note_off_c, 0, 56, 61
1, 157847, Control_c, 0, 64, 58
1, 157858, Note_off_c, 0, 48, 61
1, 157861, Note_on_c, 0, 55, 68
1, 157862, Control_c, 0, 64, 56
1, 157877, Control_c, 0, 64, 59
1, 157879, Note_on_c, 0, 47, 62
1, 157892, Control_c, 0, 64, 63
1, 157906, Control_c, 0, 64, 67
1, 157921, Control_c, 0, 64, 73
1, 157935, Note_off_c, 0, 55, 58
1, 157936, Control_c, 0, 64, 78
1, 157938, Note_off_c, 0, 47, 50
1, 157952, Control_c, 0, 64, 80
1, 157953, Note_on_c, 0, 48, 56
1, 157960, Note_on_c, 0, 56, 64
1, 157967, Control_c, 0, 64, 81
1, 157982, Control_c, 0, 64, 80
1, 157993, Note_off_c, 0, 48, 58
1, 157997, Control_c, 0, 64, 77
1, 158011, Control_c, 0, 64, 68
1, 158012, Note_off_c, 0, 56, 55
1, 158022, Note_on_c, 0, 49, 56
1, 158025, Note_on_c, 0, 58, 67
1, 158026, Control_c, 0, 64, 64
1, 158041, Control_c, 0, 64, 67
1, 158052, Note_off_c, 0, 58, 65
1, 158055, Control_c, 0, 64, 72
1, 158061, Note_off_c, 0, 49, 63
1, 158070, Control_c, 0, 64, 77
1, 158087, Note_on_c, 0, 51, 63
1, 158093, Control_c, 0, 64, 81
1, 158094, Note_on_c, 0, 60, 68
1, 158108, Control_c, 0, 64, 82
1, 158119, Note_off_c, 0, 51, 63
1, 158123, Control_c, 0, 64, 78
1, 158130, Note_off_c, 0, 60, 56
1, 158137, Control_c, 0, 64, 68
1, 158152, Control_c, 0, 64, 64
1, 158153, Note_on_c, 0, 53, 64
1, 158165, Note_on_c, 0, 61, 65
1, 158167, Control_c, 0, 64, 66
1, 158182, Control_c, 0, 64, 72
1, 158196, Note_off_c, 0, 53, 52
1, 158197, Control_c, 0, 64, 79
1, 158202, Note_off_c, 0, 61, 63
1, 158211, Control_c, 0, 64, 88
1, 158217, Note_on_c, 0, 63, 66
1, 158223, Note_on_c, 0, 54, 61
1, 158226, Control_c, 0, 64, 89
1, 158241, Control_c, 0, 64, 82
1, 158245, Note_off_c, 0, 63, 66
1, 158255, Control_c, 0, 64, 71
1, 158270, Control_c, 0, 64, 68
1, 158274, Note_on_c, 0, 65, 67
1, 158276, Note_on_c, 0, 56, 58
1, 158278, Note_off_c, 0, 54, 59
1, 158285, Control_c, 0, 64, 72
1, 158300, Control_c, 0, 64, 79
1, 158311, Note_off_c, 0, 65, 57
1, 158315, Control_c, 0, 64, 86
1, 158322, Note_off_c, 0, 56, 60
1, 158329, Note_on_c, 0, 58, 61
1, 158330, Control_c, 0, 64, 87
1, 158333, Note_on_c, 0, 66, 73
1, 158344, Control_c, 0, 64, 87
1, 158359, Control_c, 0, 64, 86
1, 158360, Note_off_c, 0, 58, 65
1, 158367, Note_off_c, 0, 66, 53
1, 158374, Control_c, 0, 64, 89
1, 158384, Note_on_c, 0, 59, 66
1, 158389, Control_c, 0, 64, 96
1, 158402, Note_on_c, 0, 67, 72
1, 158403, Control_c, 0, 64, 100
1, 158418, Control_c, 0, 64, 99
1, 158433, Control_c, 0, 64, 85
1, 158439, Note_on_c, 0, 60, 72
1, 158442, Note_off_c, 0, 67, 56
1, 158448, Control_c, 0, 64, 69
1, 158457, Note_on_c, 0, 68, 72
1, 158463, Control_c, 0, 64, 68
1, 158465, Note_off_c, 0, 59, 58
1, 158478, Control_c, 0, 64, 75
1, 158493, Control_c, 0, 64, 85
1, 158496, Note_on_c, 0, 61, 73
1, 158496, Note_off_c, 0, 60, 60
1, 158508, Control_c, 0, 64, 90
1, 158514, Note_off_c, 0, 68, 61
1, 158522, Note_on_c, 0, 70, 59
1, 158541, Note_off_c, 0, 70, 63
1, 158552, Control_c, 0, 64, 84
1, 158554, Note_off_c, 0, 61, 63
1, 158566, Note_on_c, 0, 63, 66
1, 158567, Control_c, 0, 64, 73
1, 158571, Note_on_c, 0, 72, 72
1, 158581, Control_c, 0, 64, 71
1, 158585, Note_off_c, 0, 63, 66
1, 158596, Control_c, 0, 64, 80
1, 158600, Note_off_c, 0, 72, 58
1, 158611, Control_c, 0, 64, 85
1, 158621, Note_on_c, 0, 65, 59
1, 158632, Note_on_c, 0, 73, 62
1, 158641, Control_c, 0, 64, 83
1, 158655, Control_c, 0, 64, 83
1, 158660, Note_off_c, 0, 73, 67
1, 158663, Note_off_c, 0, 65, 47
1, 158667, Note_on_c, 0, 75, 68
1, 158670, Control_c, 0, 64, 88
1, 158685, Control_c, 0, 64, 92
1, 158691, Note_on_c, 0, 66, 58
1, 158715, Control_c, 0, 64, 85
1, 158718, Note_off_c, 0, 75, 60
1, 158725, Note_off_c, 0, 66, 60
1, 158725, Note_on_c, 0, 68, 62
1, 158729, Control_c, 0, 64, 73
1, 158731, Note_on_c, 0, 77, 71
1, 158744, Control_c, 0, 64, 74
1, 158760, Control_c, 0, 64, 84
1, 158761, Note_off_c, 0, 77, 58
1, 158766, Note_off_c, 0, 68, 60
1, 158775, Control_c, 0, 64, 101
1, 158786, Note_on_c, 0, 70, 69
1, 158790, Control_c, 0, 64, 108
1, 158794, Note_on_c, 0, 78, 70
1, 158804, Control_c, 0, 64, 99
1, 158817, Note_off_c, 0, 70, 64
1, 158819, Control_c, 0, 64, 76
1, 158832, Note_off_c, 0, 78, 63
1, 158842, Control_c, 0, 64, 61
1, 158856, Note_on_c, 0, 79, 69
1, 158857, Control_c, 0, 64, 65
1, 158871, Control_c, 0, 64, 78
1, 158874, Note_on_c, 0, 71, 16
1, 158882, Note_off_c, 0, 79, 66
1, 158886, Control_c, 0, 64, 99
1, 158901, Control_c, 0, 64, 127
1, 158904, Note_on_c, 0, 72, 74
1, 158918, Note_off_c, 0, 71, 50
1, 158921, Note_on_c, 0, 80, 52
1, 158940, Note_off_c, 0, 80, 62
1, 158946, Control_c, 0, 64, 100
1, 158958, Note_off_c, 0, 72, 61
1, 158961, Control_c, 0, 64, 82
1, 158964, Note_on_c, 0, 73, 65
1, 158976, Control_c, 0, 64, 80
1, 158980, Note_on_c, 0, 81, 64
1, 158990, Note_off_c, 0, 73, 68
1, 158991, Control_c, 0, 64, 87
1, 159005, Control_c, 0, 64, 92
1, 159009, Note_off_c, 0, 81, 64
1, 159024, Note_on_c, 0, 76, 64
1, 159035, Control_c, 0, 64, 89
1, 159046, Note_on_c, 0, 82, 67
1, 159050, Control_c, 0, 64, 85
1, 159058, Note_off_c, 0, 76, 63
1, 159063, Note_off_c, 0, 82, 66
1, 159068, Note_on_c, 0, 75, 77
1, 159079, Control_c, 0, 64, 88
1, 159094, Control_c, 0, 64, 94
1, 159107, Note_on_c, 0, 83, 65
1, 159109, Control_c, 0, 64, 96
1, 159113, Note_off_c, 0, 75, 58
1, 159136, Note_off_c, 0, 83, 62
1, 159139, Control_c, 0, 64, 94
1, 159150, Note_on_c, 0, 77, 65
1, 159153, Control_c, 0, 64, 87
1, 159167, Note_off_c, 0, 77, 66
1, 159168, Control_c, 0, 64, 77
1, 159183, Control_c, 0, 64, 69
1, 159196, Note_on_c, 0, 85, 26
1, 159198, Control_c, 0, 64, 73
1, 159207, Note_on_c, 0, 78, 67
1, 159212, Control_c, 0, 64, 92
1, 159227, Note_off_c, 0, 85, 46
1, 159227, Control_c, 0, 64, 127
1, 159235, Note_off_c, 0, 78, 66
1, 159252, Note_on_c, 0, 86, 65
1, 159260, Note_on_c, 0, 79, 70
1, 159268, Note_off_c, 0, 86, 65
1, 159286, Control_c, 0, 64, 106
1, 159289, Note_off_c, 0, 79, 64
1, 159301, Control_c, 0, 64, 87
1, 159307, Note_on_c, 0, 87, 39
1, 159316, Control_c, 0, 64, 83
1, 159331, Control_c, 0, 64, 88
1, 159334, Note_on_c, 0, 80, 66
1, 159337, Note_off_c, 0, 87, 53
1, 159346, Control_c, 0, 64, 109
1, 159348, Note_on_c, 0, 88, 62
1, 159357, Note_off_c, 0, 80, 68
1, 159360, Control_c, 0, 64, 127
1, 159378, Note_off_c, 0, 88, 58
1, 159393, Note_on_c, 0, 81, 66
1, 159405, Control_c, 0, 64, 124
1, 159420, Control_c, 0, 64, 99
1, 159420, Note_off_c, 0, 81, 63
1, 159435, Control_c, 0, 64, 84
1, 159450, Control_c, 0, 64, 77
1, 159458, Note_on_c, 0, 82, 58
1, 159464, Note_on_c, 0, 89, 65
1, 159465, Control_c, 0, 64, 78
1, 159476, Note_off_c, 0, 82, 64
1, 159479, Control_c, 0, 64, 83
1, 159489, Note_on_c, 0, 80, 3
1, 159494, Control_c, 0, 64, 84
1, 159495, Note_off_c, 0, 89, 65
1, 159514, Note_on_c, 0, 83, 60
1, 159526, Note_off_c, 0, 80, 51
1, 159531, Note_off_c, 0, 83, 63
1, 159533, Note_on_c, 0, 91, 66
1, 159569, Note_off_c, 0, 91, 62
1, 159587, Note_on_c, 0, 92, 67
1, 159589, Note_on_c, 0, 84, 62
1, 159621, Control_c, 0, 64, 84
1, 159623, Note_off_c, 0, 84, 59
1, 159623, Note_off_c, 0, 92, 60
1, 159652, Note_on_c, 0, 93, 68
1, 159668, Note_on_c, 0, 85, 26
1, 159669, Note_off_c, 0, 85, 127
1, 159671, Note_off_c, 0, 93, 60
1, 159700, Note_on_c, 0, 86, 57
1, 159705, Note_on_c, 0, 94, 65
1, 159733, Note_off_c, 0, 94, 65
1, 159748, Note_off_c, 0, 86, 59
1, 159774, Note_on_c, 0, 95, 59
1, 159775, Note_on_c, 0, 87, 65
1, 159801, Note_off_c, 0, 87, 66
1, 159802, Note_off_c, 0, 95, 64
1, 159841, Note_on_c, 0, 96, 63
1, 159849, Note_on_c, 0, 88, 58
1, 159867, Note_off_c, 0, 88, 63
1, 159890, Note_off_c, 0, 96, 57
1, 159921, Note_on_c, 0, 97, 55
1, 159924, Note_on_c, 0, 89, 49
1, 159946, Note_off_c, 0, 89, 60
1, 159951, Note_off_c, 0, 97, 64
1, 159960, Control_c, 0, 64, 83
1, 159983, Note_on_c, 0, 90, 53
1, 159987, Note_on_c, 0, 98, 65
1, 160004, Note_off_c, 0, 90, 61
1, 160034, Control_c, 0, 64, 83
1, 160049, Note_on_c, 0, 91, 52
1, 160049, Control_c, 0, 64, 82
1, 160064, Control_c, 0, 64, 82
1, 160076, Note_off_c, 0, 91, 51
1, 160079, Control_c, 0, 64, 80
1, 160094, Control_c, 0, 64, 78
1, 160109, Control_c, 0, 64, 73
1, 160123, Control_c, 0, 64, 66
1, 160138, Control_c, 0, 64, 54
1, 160153, Control_c, 0, 64, 0
1, 160201, Note_off_c, 0, 98, 59
1, 160206, Note_on_c, 0, 92, 67
1, 160206, Note_on_c, 0, 99, 57
1, 160237, Note_off_c, 0, 99, 66
1, 160242, Control_c, 0, 64, 40
1, 160246, Note_off_c, 0, 92, 61
1, 160257, Control_c, 0, 64, 68
1, 160272, Control_c, 0, 64, 81
1, 160287, Control_c, 0, 64, 107
1, 160301, Control_c, 0, 64, 127
1, 160591, Control_c, 0, 67, 126
1, 160606, Control_c, 0, 67, 121
1, 160621, Control_c, 0, 67, 115
1, 160636, Control_c, 0, 67, 106
1, 160650, Control_c, 0, 67, 97
1, 160665, Control_c, 0, 67, 87
1, 160680, Control_c, 0, 67, 75
1, 160695, Control_c, 0, 67, 64
1, 160710, Control_c, 0, 67, 55
1, 160725, Control_c, 0, 67, 47
1, 160739, Control_c, 0, 67, 39
1, 160754, Control_c, 0, 67, 32
1, 160769, Control_c, 0, 67, 24
1, 160783, Control_c, 0, 67, 15
1, 160798, Control_c, 0, 67, 0
1, 161562, Control_c, 0, 67, 10
1, 161577, Control_c, 0, 67, 16
1, 161592, Control_c, 0, 67, 24
1, 161606, Control_c, 0, 67, 33
1, 161621, Control_c, 0, 67, 43
1, 161636, Control_c, 0, 67, 54
1, 161651, Control_c, 0, 67, 63
1, 161666, Control_c, 0, 67, 71
1, 161680, Control_c, 0, 67, 79
1, 161695, Control_c, 0, 67, 87
1, 161710, Control_c, 0, 67, 94
1, 161724, Control_c, 0, 67, 103
1, 161739, Control_c, 0, 67, 111
1, 161754, Control_c, 0, 67, 121
1, 161769, Control_c, 0, 67, 127
1, 162389, Note_on_c, 0, 37, 33
1, 162472, Note_on_c, 0, 56, 48
1, 162518, Control_c, 0, 64, 116
1, 162533, Control_c, 0, 64, 94
1, 162547, Control_c, 0, 64, 74
1, 162562, Control_c, 0, 64, 58
1, 162585, Control_c, 0, 64, 0
1, 162674, Control_c, 0, 64, 60
1, 162689, Control_c, 0, 64, 67
1, 162704, Control_c, 0, 64, 75
1, 162719, Control_c, 0, 64, 86
1, 162734, Control_c, 0, 64, 107
1, 162750, Control_c, 0, 64, 127
1, 162830, Note_off_c, 0, 56, 56
1, 162871, Note_on_c, 0, 61, 42
1, 162920, Note_off_c, 0, 37, 38
1, 162981, Note_on_c, 0, 44, 27
1, 162997, Note_on_c, 0, 68, 50
1, 163009, Note_off_c, 0, 61, 58
1, 163053, Note_off_c, 0, 68, 56
1, 163101, Note_off_c, 0, 44, 52
1, 163124, Note_on_c, 0, 68, 36
1, 163172, Note_on_c, 0, 53, 39
1, 163178, Note_off_c, 0, 68, 44
1, 163203, Note_off_c, 0, 53, 53
1, 163222, Note_on_c, 0, 73, 43
1, 163288, Note_on_c, 0, 80, 47
1, 163362, Note_off_c, 0, 73, 27
1, 163402, Note_on_c, 0, 58, 75
1, 163434, Note_on_c, 0, 82, 48
1, 163540, Note_on_c, 0, 73, 43
1, 163544, Note_off_c, 0, 82, 42
1, 163564, Note_off_c, 0, 58, 61
1, 163581, Note_off_c, 0, 80, 40
1, 163594, Note_off_c, 0, 73, 57
1, 163623, Note_on_c, 0, 70, 27
1, 163644, Note_on_c, 0, 56, 45
1, 163676, Note_off_c, 0, 56, 57
1, 163684, Note_off_c, 0, 70, 0
1, 163684, Note_on_c, 0, 70, 24
1, 163727, Note_on_c, 0, 53, 39
1, 163759, Note_on_c, 0, 61, 58
1, 163763, Note_off_c, 0, 53, 48
1, 163783, Note_off_c, 0, 70, 52
1, 163830, Note_on_c, 0, 58, 53
1, 163831, Note_off_c, 0, 61, 57
1, 163858, Note_off_c, 0, 58, 58
1, 163903, Note_on_c, 0, 37, 54
1, 163981, Note_on_c, 0, 61, 69
1, 164016, Control_c, 0, 64, 110
1, 164031, Control_c, 0, 64, 76
1, 164046, Control_c, 0, 64, 60
1, 164061, Control_c, 0, 64, 0
1, 164097, Control_c, 0, 64, 44
1, 164112, Control_c, 0, 64, 64
1, 164127, Control_c, 0, 64, 74
1, 164139, Note_on_c, 0, 68, 48
1, 164142, Control_c, 0, 64, 99
1, 164146, Note_off_c, 0, 61, 63
1, 164157, Control_c, 0, 64, 127
1, 164192, Note_on_c, 0, 73, 55
1, 164201, Note_off_c, 0, 37, 37
1, 164201, Note_off_c, 0, 68, 57
1, 164203, Note_on_c, 0, 44, 48
1, 164222, Note_off_c, 0, 73, 63
1, 164249, Note_off_c, 0, 44, 62
1, 164298, Note_on_c, 0, 73, 37
1, 164303, Note_on_c, 0, 53, 51
1, 164326, Note_off_c, 0, 73, 55
1, 164330, Note_off_c, 0, 53, 57
1, 164347, Note_on_c, 0, 80, 53
1, 164386, Note_off_c, 0, 80, 56
1, 164413, Note_on_c, 0, 85, 32
1, 164469, Note_on_c, 0, 63, 85
1, 164493, Note_on_c, 0, 87, 63
1, 164495, Note_off_c, 0, 85, 60
1, 164568, Note_off_c, 0, 63, 60
1, 164577, Note_off_c, 0, 87, 61
1, 164577, Note_on_c, 0, 82, 60
1, 164607, Note_off_c, 0, 82, 66
1, 164685, Note_on_c, 0, 58, 33
1, 164717, Note_on_c, 0, 75, 59
1, 164718, Note_off_c, 0, 58, 50
1, 164748, Note_on_c, 0, 54, 51
1, 164765, Note_on_c, 0, 70, 64
1, 164783, Note_off_c, 0, 54, 62
1, 164807, Note_off_c, 0, 75, 45
1, 164848, Note_on_c, 0, 63, 67
1, 164868, Note_off_c, 0, 70, 59
1, 164873, Note_off_c, 0, 63, 63
1, 164934, Note_on_c, 0, 37, 57
1, 165009, Control_c, 0, 64, 117
1, 165012, Note_on_c, 0, 65, 79
1, 165024, Control_c, 0, 64, 81
1, 165039, Control_c, 0, 64, 66
1, 165054, Control_c, 0, 64, 45
1, 165069, Note_off_c, 0, 37, 59
1, 165069, Control_c, 0, 64, 0
1, 165083, Control_c, 0, 64, 22
1, 165098, Control_c, 0, 64, 61
1, 165113, Control_c, 0, 64, 73
1, 165126, Note_off_c, 0, 65, 58
1, 165128, Control_c, 0, 64, 100
1, 165140, Note_on_c, 0, 70, 57
1, 165143, Control_c, 0, 64, 127
1, 165173, Note_off_c, 0, 70, 65
1, 165198, Note_on_c, 0, 77, 50
1, 165221, Note_on_c, 0, 46, 30
1, 165227, Note_off_c, 0, 77, 63
1, 165264, Note_off_c, 0, 46, 47
1, 165283, Note_on_c, 0, 77, 37
1, 165313, Note_off_c, 0, 77, 52
1, 165334, Note_on_c, 0, 82, 67
1, 165334, Note_on_c, 0, 54, 50
1, 165361, Note_off_c, 0, 54, 58
1, 165368, Note_off_c, 0, 82, 56
1, 165418, Note_on_c, 0, 89, 58
1, 165498, Control_c, 0, 64, 118
1, 165502, Note_off_c, 0, 89, 59
1, 165513, Note_on_c, 0, 87, 59
1, 165513, Control_c, 0, 64, 80
1, 165514, Note_on_c, 0, 63, 72
1, 165528, Control_c, 0, 64, 64
1, 165543, Control_c, 0, 64, 43
1, 165558, Control_c, 0, 64, 42
1, 165580, Control_c, 0, 64, 56
1, 165595, Control_c, 0, 64, 66
1, 165605, Note_on_c, 0, 82, 52
1, 165607, Note_off_c, 0, 87, 60
1, 165610, Control_c, 0, 64, 79
1, 165625, Control_c, 0, 64, 127
1, 165644, Note_off_c, 0, 63, 57
1, 165649, Note_off_c, 0, 82, 57
1, 165666, Note_on_c, 0, 75, 54
1, 165687, Note_off_c, 0, 75, 61
1, 165719, Note_on_c, 0, 58, 32
1, 165752, Note_off_c, 0, 58, 52
1, 165770, Note_on_c, 0, 75, 61
1, 165826, Note_on_c, 0, 54, 36
1, 165838, Note_off_c, 0, 75, 57
1, 165840, Note_on_c, 0, 70, 59
1, 165858, Note_off_c, 0, 54, 50
1, 165908, Note_on_c, 0, 63, 57
1, 165912, Note_off_c, 0, 70, 54
1, 165928, Note_off_c, 0, 63, 64
1, 166016, Note_on_c, 0, 37, 46
1, 166070, Note_on_c, 0, 58, 69
1, 166070, Control_c, 0, 64, 91
1, 166085, Control_c, 0, 64, 72
1, 166100, Control_c, 0, 64, 59
1, 166115, Control_c, 0, 64, 0
1, 166141, Note_off_c, 0, 37, 57
1, 166145, Control_c, 0, 64, 33
1, 166160, Control_c, 0, 64, 64
1, 166175, Control_c, 0, 64, 74
1, 166190, Control_c, 0, 64, 90
1, 166199, Note_off_c, 0, 58, 60
1, 166204, Control_c, 0, 64, 116
1, 166219, Control_c, 0, 64, 127
1, 166234, Note_on_c, 0, 63, 47
1, 166279, Note_off_c, 0, 63, 61
1, 166303, Note_on_c, 0, 70, 40
1, 166336, Note_on_c, 0, 46, 20
1, 166338, Note_off_c, 0, 70, 54
1, 166382, Note_off_c, 0, 46, 49
1, 166394, Note_on_c, 0, 70, 40
1, 166428, Note_off_c, 0, 70, 50
1, 166464, Note_on_c, 0, 54, 35
1, 166499, Note_off_c, 0, 54, 50
1, 166522, Poly_aftertouch_c, 0, 75, 127
1, 166535, Note_on_c, 0, 82, 57
1, 166550, Poly_aftertouch_c, 0, 75, 0
1, 166670, Control_c, 0, 64, 118
1, 166676, Note_on_c, 0, 61, 56
1, 166685, Control_c, 0, 64, 97
1, 166700, Control_c, 0, 64, 80
1, 166714, Control_c, 0, 64, 68
1, 166729, Control_c, 0, 64, 51
1, 166745, Control_c, 0, 64, 0
1, 166805, Control_c, 0, 64, 63
1, 166819, Control_c, 0, 64, 71
1, 166834, Control_c, 0, 64, 81
1, 166839, Note_on_c, 0, 80, 26
1, 166839, Note_off_c, 0, 82, 37
1, 166849, Control_c, 0, 64, 94
1, 166864, Control_c, 0, 64, 110
1, 166874, Note_off_c, 0, 61, 53
1, 166876, Note_off_c, 0, 80, 50
1, 166878, Control_c, 0, 64, 127
1, 166901, Note_on_c, 0, 73, 55
1, 166921, Note_off_c, 0, 73, 64
1, 166923, Note_on_c, 0, 56, 45
1, 166955, Note_off_c, 0, 56, 55
1, 167006, Note_on_c, 0, 73, 48
1, 167158, Note_on_c, 0, 53, 37
1, 167159, Note_on_c, 0, 68, 43
1, 167161, Note_off_c, 0, 73, 38
1, 167209, Note_off_c, 0, 53, 61
1, 167293, Note_on_c, 0, 61, 43
1, 167311, Note_off_c, 0, 68, 37
1, 167331, Note_off_c, 0, 61, 52
1, 167557, Note_on_c, 0, 37, 33
1, 167616, Note_on_c, 0, 56, 45
1, 167794, Note_on_c, 0, 61, 43
1, 167832, Note_off_c, 0, 56, 34
1, 167900, Note_on_c, 0, 68, 51
1, 167910, Note_off_c, 0, 37, 39
1, 167911, Note_off_c, 0, 61, 57
1, 167914, Note_on_c, 0, 44, 39
1, 167950, Note_off_c, 0, 68, 58
1, 168004, Note_on_c, 0, 61, 52
1, 168062, Note_off_c, 0, 61, 55
1, 168082, Note_on_c, 0, 68, 60
1, 168089, Note_on_c, 0, 49, 43
1, 168112, Note_off_c, 0, 44, 33
1, 168160, Note_off_c, 0, 68, 55
1, 168164, Note_off_c, 0, 49, 56
1, 168172, Note_on_c, 0, 73, 48
1, 168193, Note_off_c, 0, 73, 59
1, 168214, Note_on_c, 0, 53, 47
1, 168239, Note_on_c, 0, 68, 56
1, 168273, Note_off_c, 0, 53, 57
1, 168314, Note_on_c, 0, 73, 45
1, 168315, Note_off_c, 0, 68, 52
1, 168389, Note_off_c, 0, 73, 59
1, 168395, Note_on_c, 0, 56, 24
1, 168403, Note_on_c, 0, 80, 59
1, 168431, Note_off_c, 0, 80, 64
1, 168490, Note_on_c, 0, 73, 55
1, 168528, Note_off_c, 0, 73, 59
1, 168536, Note_on_c, 0, 61, 43
1, 168541, Note_on_c, 0, 80, 54
1, 168608, Note_off_c, 0, 56, 14
1, 168628, Note_off_c, 0, 80, 60
1, 168635, Note_on_c, 0, 85, 58
1, 168635, Note_off_c, 0, 61, 60
1, 168662, Note_off_c, 0, 85, 65
1, 168689, Note_on_c, 0, 65, 47
1, 168705, Note_on_c, 0, 80, 57
1, 168780, Note_off_c, 0, 65, 52
1, 168785, Note_on_c, 0, 85, 53
1, 168785, Note_off_c, 0, 80, 58
1, 168848, Note_on_c, 0, 68, 40
1, 168860, Note_off_c, 0, 85, 61
1, 168862, Note_on_c, 0, 92, 68
1, 168902, Note_off_c, 0, 92, 61
1, 168955, Note_on_c, 0, 85, 59
1, 168988, Note_off_c, 0, 68, 36
1, 168992, Note_on_c, 0, 73, 40
1, 169040, Note_on_c, 0, 92, 59
1, 169046, Note_off_c, 0, 73, 58
1, 169090, Note_off_c, 0, 85, 34
1, 169138, Note_off_c, 0, 92, 61
1, 169153, Note_on_c, 0, 97, 62
1, 169268, Note_off_c, 0, 97, 58
1, 169271, Note_on_c, 0, 92, 58
1, 169394, Note_on_c, 0, 85, 57
1, 169407, Note_off_c, 0, 92, 61
1, 169423, Note_off_c, 0, 85, 63
1, 169498, Note_on_c, 0, 80, 52
1, 169587, Note_off_c, 0, 80, 61
1, 169608, Note_on_c, 0, 73, 48
1, 169682, Note_off_c, 0, 73, 51
1, 169805, Note_on_c, 0, 68, 10
1, 169886, Note_on_c, 0, 61, 56
1, 169913, Note_off_c, 0, 68, 40
1, 169934, Note_off_c, 0, 61, 61
1, 170140, Note_on_c, 0, 37, 33
1, 170234, Note_on_c, 0, 56, 67
1, 170267, Control_c, 0, 64, 102
1, 170282, Control_c, 0, 64, 80
1, 170296, Control_c, 0, 64, 66
1, 170311, Control_c, 0, 64, 43
1, 170326, Control_c, 0, 64, 0
1, 170356, Control_c, 0, 64, 51
1, 170370, Control_c, 0, 64, 66
1, 170385, Control_c, 0, 64, 77
1, 170400, Control_c, 0, 64, 96
1, 170414, Control_c, 0, 64, 127
1, 170461, Note_off_c, 0, 56, 58
1, 170469, Note_on_c, 0, 61, 46
1, 170474, Control_c, 0, 67, 126
1, 170488, Control_c, 0, 67, 113
1, 170503, Control_c, 0, 67, 99
1, 170518, Control_c, 0, 67, 82
1, 170533, Control_c, 0, 67, 64
1, 170540, Note_off_c, 0, 37, 40
1, 170548, Control_c, 0, 67, 47
1, 170557, Note_on_c, 0, 44, 40
1, 170562, Note_on_c, 0, 68, 50
1, 170563, Control_c, 0, 67, 30
1, 170569, Note_off_c, 0, 61, 59
1, 170577, Control_c, 0, 67, 0
1, 170605, Note_off_c, 0, 68, 61
1, 170643, Note_off_c, 0, 44, 54
1, 170667, Note_on_c, 0, 68, 49
1, 170705, Note_on_c, 0, 53, 52
1, 170713, Note_off_c, 0, 68, 57
1, 170738, Note_off_c, 0, 53, 62
1, 170750, Note_on_c, 0, 73, 52
1, 170822, Note_on_c, 0, 80, 54
1, 170834, Note_off_c, 0, 73, 46
1, 170907, Note_on_c, 0, 58, 81
1, 170935, Note_on_c, 0, 82, 59
1, 171026, Note_on_c, 0, 73, 51
1, 171045, Note_off_c, 0, 82, 56
1, 171054, Note_off_c, 0, 80, 59
1, 171057, Note_off_c, 0, 58, 60
1, 171098, Note_off_c, 0, 73, 61
1, 171099, Note_on_c, 0, 70, 51
1, 171122, Note_off_c, 0, 70, 59
1, 171128, Note_on_c, 0, 56, 45
1, 171156, Note_off_c, 0, 56, 56
1, 171204, Note_on_c, 0, 70, 46
1, 171239, Note_on_c, 0, 53, 51
1, 171251, Note_on_c, 0, 61, 62
1, 171275, Note_off_c, 0, 53, 62
1, 171284, Note_off_c, 0, 70, 43
1, 171320, Note_on_c, 0, 58, 70
1, 171334, Note_off_c, 0, 61, 60
1, 171350, Note_off_c, 0, 58, 65
1, 171428, Note_on_c, 0, 37, 56
1, 171487, Note_on_c, 0, 61, 80
1, 171519, Control_c, 0, 64, 101
1, 171534, Control_c, 0, 64, 79
1, 171549, Control_c, 0, 64, 62
1, 171572, Control_c, 0, 64, 35
1, 171587, Control_c, 0, 64, 46
1, 171602, Control_c, 0, 64, 64
1, 171616, Note_on_c, 0, 68, 57
1, 171616, Control_c, 0, 64, 75
1, 171631, Control_c, 0, 64, 98
1, 171637, Note_off_c, 0, 61, 63
1, 171646, Control_c, 0, 64, 127
1, 171689, Note_on_c, 0, 44, 47
1, 171692, Note_on_c, 0, 73, 58
1, 171693, Note_off_c, 0, 37, 37
1, 171701, Note_off_c, 0, 68, 59
1, 171719, Note_off_c, 0, 73, 62
1, 171749, Note_off_c, 0, 44, 58
1, 171779, Note_on_c, 0, 73, 63
1, 171791, Note_on_c, 0, 53, 58
1, 171809, Note_off_c, 0, 73, 66
1, 171815, Note_off_c, 0, 53, 59
1, 171839, Note_on_c, 0, 80, 65
1, 171871, Note_off_c, 0, 80, 57
1, 171880, Note_on_c, 0, 85, 57
1, 171976, Note_on_c, 0, 63, 87
1, 171982, Note_on_c, 0, 87, 57
1, 172061, Note_on_c, 0, 82, 63
1, 172077, Note_off_c, 0, 63, 60
1, 172077, Note_off_c, 0, 87, 58
1, 172122, Note_off_c, 0, 82, 57
1, 172124, Note_on_c, 0, 75, 61
1, 172124, Note_off_c, 0, 85, 40
1, 172142, Note_off_c, 0, 75, 65
1, 172205, Note_on_c, 0, 58, 40
1, 172217, Note_on_c, 0, 75, 66
1, 172235, Note_off_c, 0, 58, 56
1, 172244, Note_on_c, 0, 54, 42
1, 172274, Note_off_c, 0, 54, 56
1, 172277, Note_on_c, 0, 70, 71
1, 172346, Note_off_c, 0, 75, 37
1, 172355, Note_on_c, 0, 63, 75
1, 172373, Note_off_c, 0, 70, 59
1, 172401, Note_off_c, 0, 63, 49
1, 172431, Note_on_c, 0, 37, 51
1, 172524, Note_on_c, 0, 65, 79
1, 172527, Control_c, 0, 64, 109
1, 172542, Control_c, 0, 64, 81
1, 172557, Control_c, 0, 64, 67
1, 172571, Control_c, 0, 64, 52
1, 172586, Control_c, 0, 64, 29
1, 172587, Note_off_c, 0, 37, 48
1, 172601, Control_c, 0, 64, 44
1, 172615, Control_c, 0, 64, 64
1, 172630, Control_c, 0, 64, 82
1, 172645, Control_c, 0, 64, 127
1, 172664, Note_off_c, 0, 65, 57
1, 172687, Note_on_c, 0, 70, 47
1, 172713, Note_on_c, 0, 77, 59
1, 172713, Note_off_c, 0, 70, 60
1, 172737, Note_on_c, 0, 46, 35
1, 172742, Note_off_c, 0, 77, 66
1, 172789, Note_off_c, 0, 46, 50
1, 172849, Note_on_c, 0, 54, 49
1, 172861, Poly_aftertouch_c, 0, 77, 127
1, 172871, Note_on_c, 0, 82, 61
1, 172876, Note_off_c, 0, 54, 59
1, 172897, Poly_aftertouch_c, 0, 77, 0
1, 172912, Note_off_c, 0, 82, 52
1, 172950, Note_on_c, 0, 89, 61
1, 173040, Note_on_c, 0, 63, 72
1, 173049, Note_off_c, 0, 89, 58
1, 173063, Note_on_c, 0, 87, 61
1, 173067, Control_c, 0, 64, 88
1, 173081, Control_c, 0, 64, 73
1, 173096, Control_c, 0, 64, 63
1, 173111, Control_c, 0, 64, 59
1, 173126, Control_c, 0, 64, 63
1, 173142, Control_c, 0, 64, 72
1, 173144, Note_on_c, 0, 82, 56
1, 173149, Note_off_c, 0, 87, 60
1, 173156, Control_c, 0, 64, 95
1, 173172, Control_c, 0, 64, 127
1, 173185, Note_off_c, 0, 63, 57
1, 173186, Note_off_c, 0, 82, 60
1, 173205, Note_on_c, 0, 75, 48
1, 173228, Note_off_c, 0, 75, 58
1, 173275, Note_on_c, 0, 58, 23
1, 173312, Note_on_c, 0, 75, 56
1, 173313, Note_off_c, 0, 58, 53
1, 173353, Note_on_c, 0, 54, 34
1, 173363, Note_off_c, 0, 75, 57
1, 173380, Note_on_c, 0, 70, 58
1, 173385, Note_off_c, 0, 54, 52
1, 173425, Note_off_c, 0, 70, 57
1, 173449, Note_on_c, 0, 63, 55
1, 173470, Note_off_c, 0, 63, 63
1, 173550, Note_on_c, 0, 37, 43
1, 173572, Control_c, 0, 64, 97
1, 173587, Control_c, 0, 64, 80
1, 173596, Note_on_c, 0, 58, 68
1, 173602, Control_c, 0, 64, 68
1, 173617, Control_c, 0, 64, 54
1, 173631, Control_c, 0, 64, 50
1, 173646, Control_c, 0, 64, 57
1, 173661, Control_c, 0, 64, 66
1, 173665, Note_off_c, 0, 37, 58
1, 173676, Control_c, 0, 64, 78
1, 173691, Control_c, 0, 64, 106
1, 173705, Control_c, 0, 64, 127
1, 173728, Note_off_c, 0, 58, 60
1, 173743, Note_on_c, 0, 63, 50
1, 173821, Note_off_c, 0, 63, 59
1, 173837, Note_on_c, 0, 70, 43
1, 173851, Note_on_c, 0, 46, 24
1, 173863, Note_off_c, 0, 70, 56
1, 173896, Note_off_c, 0, 46, 47
1, 173939, Note_on_c, 0, 70, 14
1, 173981, Note_off_c, 0, 70, 50
1, 173982, Note_on_c, 0, 54, 39
1, 174003, Note_on_c, 0, 75, 36
1, 174014, Note_off_c, 0, 54, 51
1, 174037, Note_off_c, 0, 75, 51
1, 174093, Note_on_c, 0, 82, 51
1, 174240, Note_on_c, 0, 61, 55
1, 174247, Control_c, 0, 64, 107
1, 174249, Note_on_c, 0, 85, 43
1, 174261, Control_c, 0, 64, 87
1, 174276, Control_c, 0, 64, 74
1, 174291, Control_c, 0, 64, 64
1, 174306, Control_c, 0, 64, 54
1, 174321, Control_c, 0, 64, 56
1, 174335, Control_c, 0, 64, 63
1, 174350, Control_c, 0, 64, 73
1, 174364, Note_off_c, 0, 85, 52
1, 174365, Control_c, 0, 64, 106
1, 174370, Note_on_c, 0, 80, 48
1, 174379, Control_c, 0, 64, 127
1, 174456, Note_off_c, 0, 61, 57
1, 174465, Note_off_c, 0, 80, 61
1, 174474, Note_off_c, 0, 82, 40
1, 174477, Note_on_c, 0, 73, 44
1, 174503, Note_on_c, 0, 56, 38
1, 174508, Note_off_c, 0, 73, 62
1, 174559, Note_off_c, 0, 56, 44
1, 174607, Note_on_c, 0, 73, 56
1, 174683, Control_c, 0, 67, 8
1, 174698, Control_c, 0, 67, 11
1, 174712, Control_c, 0, 67, 15
1, 174729, Control_c, 0, 67, 20
1, 174741, Note_on_c, 0, 53, 33
1, 174744, Control_c, 0, 67, 25
1, 174758, Control_c, 0, 67, 32
1, 174759, Note_on_c, 0, 68, 46
1, 174773, Control_c, 0, 67, 39
1, 174788, Control_c, 0, 67, 48
1, 174793, Note_off_c, 0, 53, 61
1, 174795, Note_off_c, 0, 73, 41
1, 174802, Control_c, 0, 67, 57
1, 174817, Control_c, 0, 67, 66
1, 174832, Control_c, 0, 67, 76
1, 174847, Control_c, 0, 67, 87
1, 174862, Control_c, 0, 67, 100
1, 174876, Control_c, 0, 67, 113
1, 174891, Control_c, 0, 67, 126
1, 174906, Control_c, 0, 67, 127
1, 174912, Note_on_c, 0, 61, 45
1, 174924, Note_off_c, 0, 68, 50
1, 174966, Note_off_c, 0, 61, 57
1, 175186, Note_on_c, 0, 37, 38
1, 175247, Control_c, 0, 64, 113
1, 175262, Control_c, 0, 64, 104
1, 175276, Control_c, 0, 64, 96
1, 175284, Note_on_c, 0, 56, 48
1, 175291, Control_c, 0, 64, 86
1, 175314, Control_c, 0, 64, 77
1, 175329, Control_c, 0, 64, 69
1, 175343, Control_c, 0, 64, 62
1, 175358, Control_c, 0, 64, 56
1, 175373, Control_c, 0, 64, 58
1, 175388, Control_c, 0, 64, 64
1, 175403, Control_c, 0, 64, 71
1, 175417, Control_c, 0, 64, 85
1, 175432, Control_c, 0, 64, 116
1, 175447, Control_c, 0, 64, 127
1, 175485, Note_off_c, 0, 56, 53
1, 175526, Note_on_c, 0, 61, 39
1, 175585, Note_off_c, 0, 37, 36
1, 175600, Note_on_c, 0, 68, 47
1, 175606, Note_off_c, 0, 61, 52
1, 175621, Note_on_c, 0, 44, 35
1, 175657, Note_off_c, 0, 68, 56
1, 175721, Note_on_c, 0, 61, 53
1, 175773, Note_off_c, 0, 61, 58
1, 175797, Note_on_c, 0, 68, 56
1, 175803, Note_on_c, 0, 49, 41
1, 175829, Note_off_c, 0, 44, 41
1, 175872, Note_off_c, 0, 68, 54
1, 175885, Note_off_c, 0, 49, 56
1, 175889, Note_on_c, 0, 73, 53
1, 175912, Note_off_c, 0, 73, 62
1, 175946, Note_on_c, 0, 53, 43
1, 175972, Note_on_c, 0, 68, 55
1, 176009, Note_off_c, 0, 53, 59
1, 176041, Note_on_c, 0, 73, 40
1, 176057, Note_off_c, 0, 68, 50
1, 176131, Note_on_c, 0, 56, 35
1, 176134, Note_on_c, 0, 80, 57
1, 176134, Note_off_c, 0, 73, 58
1, 176163, Note_off_c, 0, 80, 66
1, 176224, Note_on_c, 0, 73, 47
1, 176274, Note_off_c, 0, 73, 58
1, 176279, Note_on_c, 0, 80, 56
1, 176289, Note_on_c, 0, 61, 45
1, 176289, Note_off_c, 0, 56, 25
1, 176355, Note_off_c, 0, 80, 57
1, 176366, Note_on_c, 0, 85, 57
1, 176367, Note_off_c, 0, 61, 57
1, 176396, Note_off_c, 0, 85, 65
1, 176427, Note_on_c, 0, 65, 45
1, 176456, Note_on_c, 0, 80, 49
1, 176509, Note_off_c, 0, 80, 56
1, 176518, Note_off_c, 0, 65, 47
1, 176584, Note_on_c, 0, 68, 42
1, 176614, Note_on_c, 0, 92, 43
1, 176639, Note_off_c, 0, 92, 57
1, 176753, Note_off_c, 0, 68, 42
1, 176757, Note_on_c, 0, 73, 39
1, 176764, Poly_aftertouch_c, 0, 86, 127
1, 176772, Note_on_c, 0, 92, 52
1, 176789, Poly_aftertouch_c, 0, 86, 0
1, 176795, Note_off_c, 0, 73, 59
1, 176885, Note_off_c, 0, 92, 61
1, 176905, Note_on_c, 0, 97, 55
1, 177010, Note_off_c, 0, 97, 57
1, 177015, Note_on_c, 0, 92, 55
1, 177112, Note_on_c, 0, 85, 54
1, 177129, Note_off_c, 0, 92, 59
1, 177138, Note_off_c, 0, 85, 56
1, 177238, Note_on_c, 0, 80, 46
1, 177324, Note_off_c, 0, 80, 57
1, 177348, Note_on_c, 0, 73, 41
1, 177422, Note_off_c, 0, 73, 54
1, 177458, Note_on_c, 0, 68, 51
1, 177623, Note_on_c, 0, 61, 60
1, 177655, Note_off_c, 0, 61, 65
1, 177705, Note_off_c, 0, 68, 59
1, 177866, Note_on_c, 0, 45, 50
1, 177960, Note_on_c, 0, 66, 80
1, 178006, Control_c, 0, 64, 95
1, 178006, Control_c, 0, 67, 120
1, 178021, Control_c, 0, 64, 78
1, 178021, Control_c, 0, 67, 107
1, 178036, Control_c, 0, 64, 65
1, 178036, Control_c, 0, 67, 89
1, 178051, Control_c, 0, 64, 49
1, 178051, Control_c, 0, 67, 72
1, 178066, Control_c, 0, 64, 33
1, 178066, Control_c, 0, 67, 56
1, 178080, Control_c, 0, 64, 48
1, 178080, Control_c, 0, 67, 40
1, 178095, Control_c, 0, 64, 65
1, 178095, Control_c, 0, 67, 19
1, 178110, Control_c, 0, 64, 79
1, 178110, Control_c, 0, 67, 0
1, 178125, Control_c, 0, 64, 127
1, 178205, Note_off_c, 0, 66, 60
1, 178214, Note_on_c, 0, 72, 51
1, 178249, Note_off_c, 0, 45, 52
1, 178278, Note_on_c, 0, 51, 42
1, 178311, Note_off_c, 0, 72, 59
1, 178319, Note_on_c, 0, 78, 55
1, 178352, Note_off_c, 0, 78, 64
1, 178372, Note_off_c, 0, 51, 57
1, 178419, Note_on_c, 0, 78, 68
1, 178424, Note_on_c, 0, 60, 54
1, 178447, Note_off_c, 0, 60, 59
1, 178512, Note_on_c, 0, 84, 50
1, 178513, Note_off_c, 0, 78, 52
1, 178556, Note_on_c, 0, 90, 75
1, 178580, Note_off_c, 0, 84, 60
1, 178607, Note_off_c, 0, 90, 63
1, 178622, Note_on_c, 0, 65, 75
1, 178670, Note_on_c, 0, 89, 72
1, 178754, Note_on_c, 0, 85, 71
1, 178783, Note_off_c, 0, 89, 62
1, 178805, Note_off_c, 0, 85, 64
1, 178813, Note_off_c, 0, 65, 57
1, 178836, Note_on_c, 0, 77, 52
1, 178849, Note_on_c, 0, 60, 52
1, 178857, Note_off_c, 0, 77, 59
1, 178884, Note_off_c, 0, 60, 63
1, 178901, Note_on_c, 0, 57, 44
1, 178915, Note_on_c, 0, 77, 64
1, 178929, Note_off_c, 0, 57, 54
1, 178972, Note_on_c, 0, 72, 75
1, 178987, Note_off_c, 0, 77, 59
1, 179028, Note_off_c, 0, 72, 62
1, 179039, Note_on_c, 0, 65, 76
1, 179071, Note_off_c, 0, 65, 65
1, 179102, Note_on_c, 0, 45, 49
1, 179176, Control_c, 0, 64, 95
1, 179183, Note_on_c, 0, 60, 91
1, 179191, Control_c, 0, 64, 76
1, 179206, Control_c, 0, 64, 64
1, 179221, Control_c, 0, 64, 51
1, 179235, Control_c, 0, 64, 55
1, 179250, Control_c, 0, 64, 67
1, 179252, Note_off_c, 0, 45, 61
1, 179265, Control_c, 0, 64, 80
1, 179280, Control_c, 0, 64, 120
1, 179295, Control_c, 0, 64, 127
1, 179303, Note_off_c, 0, 60, 57
1, 179309, Note_on_c, 0, 65, 54
1, 179372, Note_off_c, 0, 65, 57
1, 179374, Note_on_c, 0, 72, 64
1, 179402, Note_off_c, 0, 72, 66
1, 179458, Note_on_c, 0, 72, 61
1, 179502, Note_off_c, 0, 72, 58
1, 179520, Note_on_c, 0, 60, 51
1, 179520, Note_on_c, 0, 77, 64
1, 179542, Note_off_c, 0, 60, 57
1, 179565, Note_off_c, 0, 77, 57
1, 179570, Note_on_c, 0, 84, 70
1, 179593, Note_off_c, 0, 84, 68
1, 179673, Note_on_c, 0, 63, 88
1, 179704, Note_on_c, 0, 87, 61
1, 179711, Control_c, 0, 64, 120
1, 179725, Control_c, 0, 64, 89
1, 179740, Control_c, 0, 64, 72
1, 179755, Control_c, 0, 64, 64
1, 179770, Control_c, 0, 64, 62
1, 179785, Control_c, 0, 64, 67
1, 179806, Control_c, 0, 64, 81
1, 179821, Note_on_c, 0, 82, 67
1, 179821, Control_c, 0, 64, 127
1, 179854, Note_off_c, 0, 87, 58
1, 179883, Note_off_c, 0, 63, 56
1, 179887, Note_on_c, 0, 75, 61
1, 179889, Note_off_c, 0, 82, 61
1, 179909, Note_on_c, 0, 58, 63
1, 179910, Note_off_c, 0, 75, 63
1, 179943, Note_off_c, 0, 58, 60
1, 179980, Note_on_c, 0, 75, 72
1, 180032, Note_on_c, 0, 54, 51
1, 180063, Note_on_c, 0, 70, 61
1, 180068, Note_off_c, 0, 54, 62
1, 180104, Note_off_c, 0, 75, 60
1, 180133, Note_off_c, 0, 70, 58
1, 180134, Note_on_c, 0, 63, 72
1, 180160, Note_off_c, 0, 63, 66
1, 180224, Note_on_c, 0, 46, 59
1, 180310, Note_on_c, 0, 61, 83
1, 180311, Control_c, 0, 64, 95
1, 180327, Control_c, 0, 64, 76
1, 180341, Control_c, 0, 64, 62
1, 180356, Control_c, 0, 64, 41
1, 180371, Control_c, 0, 64, 28
1, 180386, Control_c, 0, 64, 40
1, 180401, Control_c, 0, 64, 59
1, 180415, Control_c, 0, 64, 71
1, 180430, Control_c, 0, 64, 92
1, 180445, Control_c, 0, 64, 127
1, 180498, Note_on_c, 0, 65, 52
1, 180503, Note_off_c, 0, 61, 61
1, 180552, Note_off_c, 0, 46, 59
1, 180575, Note_on_c, 0, 53, 42
1, 180596, Note_off_c, 0, 65, 58
1, 180612, Note_on_c, 0, 73, 58
1, 180614, Note_off_c, 0, 53, 63
1, 180668, Note_off_c, 0, 73, 60
1, 180727, Note_on_c, 0, 73, 56
1, 180829, Note_on_c, 0, 61, 50
1, 180844, Note_on_c, 0, 77, 69
1, 180882, Control_c, 0, 67, 11
1, 180897, Control_c, 0, 67, 16
1, 180912, Control_c, 0, 67, 21
1, 180927, Control_c, 0, 67, 28
1, 180930, Note_off_c, 0, 73, 52
1, 180942, Control_c, 0, 67, 36
1, 180943, Note_off_c, 0, 61, 56
1, 180956, Control_c, 0, 67, 45
1, 180971, Control_c, 0, 67, 54
1, 180975, Note_on_c, 0, 85, 64
1, 180986, Control_c, 0, 67, 63
1, 180993, Note_off_c, 0, 77, 61
1, 181000, Control_c, 0, 67, 73
1, 181005, Note_off_c, 0, 85, 65
1, 181015, Control_c, 0, 67, 82
1, 181030, Control_c, 0, 67, 94
1, 181045, Control_c, 0, 67, 105
1, 181060, Control_c, 0, 67, 116
1, 181074, Control_c, 0, 67, 127
1, 181145, Note_on_c, 0, 62, 39
1, 181170, Note_on_c, 0, 59, 37
1, 181253, Control_c, 0, 64, 104
1, 181258, Note_on_c, 0, 68, 76
1, 181268, Control_c, 0, 64, 83
1, 181283, Control_c, 0, 64, 67
1, 181305, Control_c, 0, 64, 44
1, 181320, Control_c, 0, 64, 0
1, 181365, Control_c, 0, 64, 61
1, 181379, Control_c, 0, 64, 70
1, 181394, Control_c, 0, 64, 83
1, 181409, Control_c, 0, 64, 106
1, 181418, Note_off_c, 0, 62, 59
1, 181423, Control_c, 0, 64, 127
1, 181443, Note_off_c, 0, 59, 60
1, 181509, Note_off_c, 0, 68, 57
1, 181529, Note_on_c, 0, 71, 45
1, 181621, Note_on_c, 0, 54, 44
1, 181622, Note_off_c, 0, 71, 51
1, 181660, Note_on_c, 0, 80, 49
1, 181683, Note_off_c, 0, 54, 56
1, 181723, Note_off_c, 0, 80, 59
1, 181872, Note_on_c, 0, 80, 13
1, 181913, Note_on_c, 0, 42, 42
1, 181920, Note_off_c, 0, 80, 49
1, 181935, Note_on_c, 0, 83, 50
1, 181959, Note_off_c, 0, 42, 59
1, 182078, Note_on_c, 0, 92, 48
1, 182092, Note_off_c, 0, 83, 61
1, 182099, Note_off_c, 0, 92, 62
1, 182316, Note_on_c, 0, 58, 32
1, 182346, Note_on_c, 0, 63, 34
1, 182424, Control_c, 0, 64, 100
1, 182437, Note_on_c, 0, 66, 55
1, 182438, Control_c, 0, 64, 82
1, 182453, Control_c, 0, 64, 68
1, 182468, Control_c, 0, 64, 56
1, 182483, Control_c, 0, 64, 16
1, 182498, Control_c, 0, 64, 0
1, 182512, Control_c, 0, 64, 12
1, 182527, Control_c, 0, 64, 48
1, 182542, Control_c, 0, 64, 65
1, 182557, Control_c, 0, 64, 78
1, 182571, Control_c, 0, 64, 107
1, 182586, Control_c, 0, 64, 127
1, 182671, Note_on_c, 0, 70, 43
1, 182674, Note_off_c, 0, 63, 40
1, 182692, Note_off_c, 0, 66, 48
1, 182722, Note_off_c, 0, 58, 34
1, 182746, Note_on_c, 0, 54, 30
1, 182825, Note_on_c, 0, 78, 41
1, 182832, Note_off_c, 0, 54, 58
1, 182843, Note_off_c, 0, 70, 51
1, 182891, Note_off_c, 0, 78, 61
1, 183009, Note_on_c, 0, 78, 30
1, 183130, Note_on_c, 0, 42, 42
1, 183174, Note_on_c, 0, 82, 43
1, 183192, Note_off_c, 0, 42, 55
1, 183329, Note_off_c, 0, 78, 36
1, 183357, Note_on_c, 0, 90, 48
1, 183383, Note_off_c, 0, 90, 63
1, 183386, Note_off_c, 0, 82, 60
1, 183823, Note_on_c, 0, 44, 32
1, 183937, Control_c, 0, 64, 121
1, 183938, Note_on_c, 0, 56, 59
1, 183952, Control_c, 0, 64, 95
1, 183966, Control_c, 0, 64, 81
1, 183981, Control_c, 0, 64, 70
1, 183996, Control_c, 0, 64, 59
1, 184011, Control_c, 0, 64, 50
1, 184025, Control_c, 0, 64, 55
1, 184040, Control_c, 0, 64, 64
1, 184055, Control_c, 0, 64, 73
1, 184070, Control_c, 0, 64, 91
1, 184085, Control_c, 0, 64, 127
1, 184092, Note_off_c, 0, 44, 61
1, 184167, Poly_aftertouch_c, 0, 64, 127
1, 184199, Note_off_c, 0, 56, 58
1, 184204, Note_on_c, 0, 61, 48
1, 184254, Poly_aftertouch_c, 0, 64, 0
1, 184309, Note_on_c, 0, 68, 47
1, 184319, Note_off_c, 0, 61, 59
1, 184354, Note_off_c, 0, 68, 60
1, 184377, Note_on_c, 0, 34, 43
1, 184418, Note_off_c, 0, 34, 62
1, 184463, Note_on_c, 0, 68, 41
1, 184576, Note_on_c, 0, 73, 51
1, 184660, Note_off_c, 0, 68, 32
1, 184662, Note_on_c, 0, 80, 58
1, 184685, Note_off_c, 0, 80, 63
1, 184692, Note_off_c, 0, 73, 60
1, 184836, Note_on_c, 0, 44, 40
1, 184836, Note_on_c, 0, 52, 42
1, 184908, Control_c, 0, 64, 113
1, 184922, Control_c, 0, 64, 88
1, 184937, Control_c, 0, 64, 74
1, 184942, Note_on_c, 0, 55, 62
1, 184952, Control_c, 0, 64, 63
1, 184966, Control_c, 0, 64, 27
1, 184981, Control_c, 0, 64, 0
1, 185078, Control_c, 0, 64, 38
1, 185093, Control_c, 0, 64, 63
1, 185108, Control_c, 0, 64, 68
1, 185124, Control_c, 0, 64, 75
1, 185138, Control_c, 0, 64, 84
1, 185142, Note_on_c, 0, 61, 30
1, 185150, Note_off_c, 0, 44, 56
1, 185153, Control_c, 0, 64, 92
1, 185155, Note_off_c, 0, 52, 58
1, 185155, Note_off_c, 0, 55, 48
1, 185168, Control_c, 0, 64, 102
1, 185173, Note_on_c, 0, 67, 51
1, 185183, Control_c, 0, 64, 127
1, 185240, Note_off_c, 0, 67, 57
1, 185284, Note_off_c, 0, 61, 37
1, 185369, Note_on_c, 0, 44, 35
1, 185371, Note_on_c, 0, 56, 54
1, 185380, Note_on_c, 0, 53, 39
1, 185390, Control_c, 0, 64, 116
1, 185404, Control_c, 0, 64, 92
1, 185419, Control_c, 0, 64, 74
1, 185434, Control_c, 0, 64, 60
1, 185449, Control_c, 0, 64, 0
1, 185494, Control_c, 0, 64, 46
1, 185509, Control_c, 0, 64, 66
1, 185524, Control_c, 0, 64, 75
1, 185538, Control_c, 0, 64, 89
1, 185553, Control_c, 0, 64, 115
1, 185558, Note_off_c, 0, 56, 54
1, 185568, Note_off_c, 0, 53, 56
1, 185568, Control_c, 0, 64, 127
1, 185569, Note_on_c, 0, 61, 42
1, 185571, Note_off_c, 0, 44, 58
1, 185691, Note_on_c, 0, 68, 49
1, 185723, Note_off_c, 0, 61, 59
1, 185763, Note_off_c, 0, 68, 56
1, 185807, Note_on_c, 0, 44, 33
1, 185899, Note_off_c, 0, 44, 54
1, 185954, Note_on_c, 0, 54, 45
1, 186138, Note_on_c, 0, 60, 42
1, 186153, Control_c, 0, 64, 116
1, 186168, Control_c, 0, 64, 88
1, 186172, Note_off_c, 0, 54, 31
1, 186183, Control_c, 0, 64, 75
1, 186198, Control_c, 0, 64, 66
1, 186212, Control_c, 0, 64, 61
1, 186227, Control_c, 0, 64, 62
1, 186230, Note_on_c, 0, 65, 48
1, 186242, Control_c, 0, 64, 67
1, 186257, Control_c, 0, 64, 78
1, 186272, Control_c, 0, 64, 120
1, 186287, Control_c, 0, 64, 127
1, 186308, Note_off_c, 0, 60, 58
1, 186406, Note_on_c, 0, 68, 39
1, 186436, Note_off_c, 0, 68, 53
1, 186496, Note_off_c, 0, 65, 23
1, 186546, Note_on_c, 0, 68, 47
1, 186572, Note_off_c, 0, 68, 59
1, 186619, Note_on_c, 0, 77, 50
1, 186654, Note_off_c, 0, 77, 62
1, 186696, Note_on_c, 0, 68, 46
1, 186791, Note_off_c, 0, 68, 58
1, 186803, Note_on_c, 0, 77, 50
1, 186823, Note_off_c, 0, 77, 61
1, 186911, Note_on_c, 0, 77, 49
1, 186944, Note_off_c, 0, 77, 51
1, 186969, Note_on_c, 0, 80, 49
1, 186989, Note_off_c, 0, 80, 61
1, 187071, Note_on_c, 0, 80, 57
1, 187099, Note_off_c, 0, 80, 67
1, 187136, Note_on_c, 0, 89, 62
1, 187163, Note_off_c, 0, 89, 65
1, 187202, Note_on_c, 0, 80, 58
1, 187289, Note_off_c, 0, 80, 60
1, 187356, Note_on_c, 0, 89, 4
1, 187449, Note_on_c, 0, 92, 66
1, 187451, Note_off_c, 0, 89, 53
1, 187473, Note_off_c, 0, 92, 67
1, 187553, Note_on_c, 0, 92, 64
1, 187579, Note_off_c, 0, 92, 66
1, 187624, Note_on_c, 0, 101, 65
1, 187678, Note_on_c, 0, 92, 60
1, 187707, Note_off_c, 0, 92, 66
1, 187774, Note_off_c, 0, 101, 58
1, 187781, Note_on_c, 0, 92, 61
1, 187840, Note_off_c, 0, 92, 63
1, 187850, Note_on_c, 0, 89, 50
1, 187871, Note_off_c, 0, 89, 61
1, 187936, Note_on_c, 0, 89, 73
1, 188003, Note_on_c, 0, 80, 48
1, 188024, Note_off_c, 0, 80, 61
1, 188074, Note_off_c, 0, 89, 54
1, 188104, Note_on_c, 0, 80, 64
1, 188156, Note_off_c, 0, 80, 53
1, 188192, Note_on_c, 0, 77, 40
1, 188218, Note_off_c, 0, 77, 56
1, 188280, Note_on_c, 0, 77, 65
1, 188350, Note_off_c, 0, 77, 55
1, 188363, Note_on_c, 0, 68, 56
1, 188388, Note_off_c, 0, 68, 63
1, 188479, Note_on_c, 0, 68, 54
1, 188520, Note_off_c, 0, 68, 57
1, 188568, Note_on_c, 0, 65, 49
1, 188617, Note_off_c, 0, 65, 53
1, 188769, Poly_aftertouch_c, 0, 77, 0
1, 188872, Note_on_c, 0, 80, 44
1, 189071, Note_on_c, 0, 77, 56
1, 189101, Note_off_c, 0, 77, 66
1, 189118, Note_off_c, 0, 80, 62
1, 189349, Note_on_c, 0, 92, 59
1, 189432, Note_off_c, 0, 92, 60
1, 189708, Note_on_c, 0, 89, 58
1, 189748, Note_off_c, 0, 89, 64
1, 190380, Note_on_c, 0, 104, 51
1, 190624, Note_off_c, 0, 104, 36
1, 192338, Note_on_c, 0, 65, 40
1, 192342, Note_on_c, 0, 44, 35
1, 192346, Note_on_c, 0, 68, 40
1, 192351, Note_on_c, 0, 32, 36
1, 192367, Note_on_c, 0, 54, 22
1, 192369, Note_on_c, 0, 60, 30
1, 192514, Control_c, 0, 64, 104
1, 192536, Control_c, 0, 64, 91
1, 192551, Control_c, 0, 64, 80
1, 192566, Control_c, 0, 64, 69
1, 192580, Control_c, 0, 64, 58
1, 192595, Control_c, 0, 64, 0
1, 192787, Control_c, 0, 64, 56
1, 192802, Control_c, 0, 64, 64
1, 192817, Control_c, 0, 64, 69
1, 192831, Control_c, 0, 64, 75
1, 192846, Control_c, 0, 64, 83
1, 192861, Control_c, 0, 64, 92
1, 192876, Control_c, 0, 64, 108
1, 192891, Control_c, 0, 64, 127
1, 193039, Note_off_c, 0, 54, 38
1, 193429, Note_off_c, 0, 60, 52
1, 193521, Note_off_c, 0, 32, 31
1, 193549, Note_off_c, 0, 44, 35
1, 193989, Note_on_c, 0, 63, 36
1, 194550, Note_off_c, 0, 65, 21
1, 194621, Note_on_c, 0, 37, 30
1, 194716, Control_c, 0, 64, 113
1, 194731, Control_c, 0, 64, 95
1, 194746, Control_c, 0, 64, 88
1, 194761, Control_c, 0, 64, 84
1, 194782, Control_c, 0, 64, 84
1, 194797, Control_c, 0, 64, 84
1, 194812, Control_c, 0, 64, 86
1, 194827, Control_c, 0, 64, 93
1, 194842, Control_c, 0, 64, 110
1, 194857, Control_c, 0, 64, 127
1, 194908, Note_off_c, 0, 68, 20
1, 194953, Note_off_c, 0, 37, 40
1, 194960, Note_on_c, 0, 44, 32
1, 194999, Note_off_c, 0, 63, 33
1, 195128, Note_on_c, 0, 49, 38
1, 195168, Note_off_c, 0, 44, 35
1, 195224, Note_on_c, 0, 53, 41
1, 195285, Note_off_c, 0, 53, 55
1, 195340, Note_on_c, 0, 56, 36
1, 195442, Note_on_c, 0, 61, 39
1, 195491, Note_off_c, 0, 61, 54
1, 195492, Note_off_c, 0, 56, 27
1, 195529, Note_on_c, 0, 65, 39
1, 195599, Note_off_c, 0, 65, 54
1, 195625, Note_on_c, 0, 68, 47
1, 195662, Note_off_c, 0, 49, 28
1, 195716, Note_off_c, 0, 68, 50
1, 195737, Note_on_c, 0, 65, 42
1, 195811, Note_on_c, 0, 61, 47
1, 195855, Note_off_c, 0, 61, 60
1, 195859, Note_off_c, 0, 65, 29
1, 195887, Note_on_c, 0, 56, 44
1, 195963, Note_on_c, 0, 53, 36
1, 196022, Note_off_c, 0, 53, 59
1, 196049, Note_on_c, 0, 49, 45
1, 196095, Note_off_c, 0, 49, 61
1, 196145, Note_on_c, 0, 44, 44
1, 196241, Note_off_c, 0, 44, 58
1, 196282, Note_on_c, 0, 37, 43
1, 196291, Note_off_c, 0, 56, 35
1, 196371, Note_off_c, 0, 37, 55
1, 196392, Note_on_c, 0, 44, 46
1, 196449, Note_off_c, 0, 44, 55
1, 196502, Note_on_c, 0, 49, 44
1, 196532, Note_off_c, 0, 49, 58
1, 196598, Note_on_c, 0, 53, 41
1, 196709, Note_on_c, 0, 56, 44
1, 196865, Note_on_c, 0, 61, 50
1, 197140, Note_off_c, 0, 61, 0
1, 197155, Note_on_c, 0, 61, 37
1, 197168, Note_on_c, 0, 65, 51
1, 197233, Note_off_c, 0, 65, 57
1, 197251, Note_off_c, 0, 56, 11
1, 197280, Note_off_c, 0, 53, 18
1, 197383, Note_on_c, 0, 56, 41
1, 197438, Note_on_c, 0, 53, 49
1, 197474, Note_off_c, 0, 53, 63
1, 197510, Note_off_c, 0, 56, 58
1, 197544, Note_off_c, 0, 61, 41
1, 197559, Note_on_c, 0, 49, 44
1, 197618, Note_off_c, 0, 49, 56
1, 197652, Note_on_c, 0, 44, 46
1, 197686, Note_off_c, 0, 44, 60
1, 197820, Note_on_c, 0, 37, 47
1, 197886, Note_on_c, 0, 62, 42
1, 197891, Note_on_c, 0, 66, 65
1, 197926, Control_c, 0, 64, 97
1, 197941, Control_c, 0, 64, 79
1, 197956, Control_c, 0, 64, 68
1, 197970, Control_c, 0, 64, 60
1, 197985, Control_c, 0, 64, 56
1, 198000, Control_c, 0, 64, 59
1, 198015, Control_c, 0, 64, 66
1, 198030, Control_c, 0, 64, 77
1, 198044, Control_c, 0, 64, 99
1, 198059, Control_c, 0, 64, 127
1, 198060, Note_on_c, 0, 45, 46
1, 198092, Note_off_c, 0, 37, 33
1, 198101, Note_off_c, 0, 62, 58
1, 198121, Note_off_c, 0, 66, 59
1, 198126, Note_off_c, 0, 45, 60
1, 198163, Note_on_c, 0, 50, 40
1, 198193, Note_off_c, 0, 50, 54
1, 198279, Note_on_c, 0, 54, 49
1, 198359, Note_on_c, 0, 57, 52
1, 198359, Note_off_c, 0, 54, 58
1, 198440, Note_on_c, 0, 62, 46
1, 198489, Note_off_c, 0, 62, 56
1, 198526, Note_on_c, 0, 69, 68
1, 198530, Note_on_c, 0, 66, 63
1, 198537, Note_off_c, 0, 57, 26
1, 198609, Note_off_c, 0, 69, 61
1, 198641, Note_off_c, 0, 66, 60
1, 198689, Note_on_c, 0, 62, 33
1, 198730, Note_off_c, 0, 62, 54
1, 198749, Note_on_c, 0, 57, 50
1, 198802, Note_on_c, 0, 54, 54
1, 198811, Note_off_c, 0, 57, 44
1, 198838, Note_off_c, 0, 54, 62
1, 198900, Note_on_c, 0, 50, 25
1, 198935, Note_off_c, 0, 50, 48
1, 198965, Note_on_c, 0, 45, 38
1, 198999, Note_off_c, 0, 45, 47
1, 199021, Note_on_c, 0, 42, 44
1, 199063, Note_off_c, 0, 42, 60
1, 199117, Note_on_c, 0, 37, 39
1, 199164, Control_c, 0, 64, 97
1, 199177, Note_on_c, 0, 71, 62
1, 199178, Note_on_c, 0, 67, 58
1, 199179, Control_c, 0, 64, 79
1, 199193, Control_c, 0, 64, 67
1, 199208, Control_c, 0, 64, 51
1, 199223, Control_c, 0, 64, 36
1, 199238, Control_c, 0, 64, 40
1, 199253, Control_c, 0, 64, 57
1, 199269, Note_off_c, 0, 37, 59
1, 199275, Control_c, 0, 64, 68
1, 199290, Control_c, 0, 64, 83
1, 199304, Control_c, 0, 64, 127
1, 199366, Note_off_c, 0, 67, 60
1, 199373, Note_off_c, 0, 71, 61
1, 199388, Note_on_c, 0, 47, 36
1, 199448, Note_off_c, 0, 47, 55
1, 199465, Note_on_c, 0, 50, 46
1, 199505, Note_off_c, 0, 50, 62
1, 199535, Note_on_c, 0, 55, 54
1, 199558, Note_off_c, 0, 55, 60
1, 199614, Note_on_c, 0, 59, 41
1, 199695, Note_on_c, 0, 62, 41
1, 199798, Note_on_c, 0, 67, 37
1, 199817, Note_off_c, 0, 59, 35
1, 199841, Note_off_c, 0, 67, 45
1, 199865, Note_off_c, 0, 62, 34
1, 199904, Note_on_c, 0, 74, 55
1, 199907, Note_on_c, 0, 71, 51
1, 199973, Note_off_c, 0, 74, 59
1, 199990, Note_off_c, 0, 71, 57
1, 200041, Note_on_c, 0, 67, 41
1, 200118, Note_off_c, 0, 67, 56
1, 200145, Note_on_c, 0, 62, 41
1, 200233, Note_on_c, 0, 59, 43
1, 200261, Note_off_c, 0, 59, 60
1, 200332, Note_off_c, 0, 62, 34
1, 200363, Note_on_c, 0, 55, 26
1, 200419, Note_off_c, 0, 55, 43
1, 200472, Note_on_c, 0, 50, 30
1, 200536, Note_off_c, 0, 50, 52
1, 200614, Note_on_c, 0, 47, 28
1, 200652, Note_off_c, 0, 47, 55
1, 201043, Note_on_c, 0, 37, 37
1, 201089, Note_on_c, 0, 73, 38
1, 201107, Note_on_c, 0, 77, 46
1, 201159, Control_c, 0, 64, 94
1, 201173, Control_c, 0, 64, 75
1, 201188, Control_c, 0, 64, 59
1, 201203, Control_c, 0, 64, 0
1, 201307, Control_c, 0, 64, 60
1, 201321, Control_c, 0, 64, 69
1, 201336, Control_c, 0, 64, 80
1, 201351, Control_c, 0, 64, 101
1, 201361, Note_off_c, 0, 77, 60
1, 201366, Control_c, 0, 64, 127
1, 201387, Note_off_c, 0, 73, 59
1, 201418, Note_off_c, 0, 37, 44
1, 201468, Note_on_c, 0, 44, 36
1, 201571, Note_off_c, 0, 44, 59
1, 201588, Note_on_c, 0, 49, 39
1, 201680, Note_on_c, 0, 53, 39
1, 201723, Note_off_c, 0, 49, 0
1, 201736, Note_off_c, 0, 53, 56
1, 201761, Poly_aftertouch_c, 0, 49, 127
1, 201763, Note_on_c, 0, 56, 38
1, 201826, Note_off_c, 0, 56, 52
1, 201837, Note_on_c, 0, 61, 42
1, 201892, Note_off_c, 0, 61, 55
1, 201906, Note_on_c, 0, 65, 44
1, 201981, Note_off_c, 0, 65, 48
1, 201981, Poly_aftertouch_c, 0, 49, 0
1, 201991, Note_on_c, 0, 68, 52
1, 202071, Note_off_c, 0, 68, 54
1, 202081, Note_on_c, 0, 65, 37
1, 202154, Note_on_c, 0, 61, 53
1, 202200, Note_off_c, 0, 61, 56
1, 202227, Note_off_c, 0, 65, 28
1, 202228, Note_on_c, 0, 56, 44
1, 202287, Note_on_c, 0, 53, 46
1, 202290, Note_off_c, 0, 56, 58
1, 202339, Note_off_c, 0, 53, 60
1, 202365, Note_on_c, 0, 49, 49
1, 202407, Note_off_c, 0, 49, 62
1, 202431, Poly_aftertouch_c, 0, 61, 127
1, 202443, Note_on_c, 0, 44, 52
1, 202451, Poly_aftertouch_c, 0, 68, 127
1, 202524, Note_off_c, 0, 44, 58
1, 202535, Note_on_c, 0, 37, 60
1, 202588, Note_off_c, 0, 37, 57
1, 202634, Poly_aftertouch_c, 0, 61, 0
1, 202668, Poly_aftertouch_c, 0, 68, 0
1, 202705, Note_on_c, 0, 53, 37
1, 202735, Note_off_c, 0, 53, 54
1, 202774, Note_on_c, 0, 56, 49
1, 202818, Note_off_c, 0, 56, 59
1, 202844, Note_on_c, 0, 59, 53
1, 202868, Note_off_c, 0, 59, 59
1, 202926, Note_on_c, 0, 61, 49
1, 202996, Note_on_c, 0, 65, 50
1, 203070, Note_off_c, 0, 61, 29
1, 203080, Note_on_c, 0, 68, 58
1, 203156, Note_off_c, 0, 68, 56
1, 203157, Note_on_c, 0, 73, 63
1, 203229, Note_off_c, 0, 65, 35
1, 203308, Note_off_c, 0, 73, 0
1, 203324, Note_on_c, 0, 73, 35
1, 203331, Note_on_c, 0, 77, 64
1, 203368, Note_off_c, 0, 77, 57
1, 203513, Note_on_c, 0, 68, 54
1, 203579, Note_on_c, 0, 65, 56
1, 203638, Note_on_c, 0, 61, 52
1, 203660, Note_off_c, 0, 61, 61
1, 203666, Note_off_c, 0, 65, 58
1, 203689, Note_off_c, 0, 68, 59
1, 203702, Note_off_c, 0, 73, 30
1, 203745, Note_on_c, 0, 57, 29
1, 203781, Control_c, 0, 67, 124
1, 203788, Note_off_c, 0, 57, 50
1, 203796, Control_c, 0, 67, 120
1, 203811, Control_c, 0, 67, 114
1, 203812, Note_on_c, 0, 54, 48
1, 203826, Control_c, 0, 67, 108
1, 203840, Control_c, 0, 67, 101
1, 203855, Control_c, 0, 67, 92
1, 203856, Note_off_c, 0, 54, 55
1, 203871, Control_c, 0, 67, 81
1, 203886, Control_c, 0, 67, 70
1, 203901, Control_c, 0, 67, 61
1, 203915, Control_c, 0, 67, 54
1, 203919, Note_on_c, 0, 49, 49
1, 203930, Control_c, 0, 67, 50
1, 203945, Control_c, 0, 67, 48
1, 203960, Control_c, 0, 67, 46
1, 203973, Note_on_c, 0, 74, 43
1, 203975, Control_c, 0, 67, 44
1, 203976, Note_on_c, 0, 78, 71
1, 203989, Control_c, 0, 67, 41
1, 204004, Control_c, 0, 67, 38
1, 204019, Control_c, 0, 64, 104
1, 204019, Control_c, 0, 67, 35
1, 204033, Control_c, 0, 64, 86
1, 204033, Control_c, 0, 67, 32
1, 204048, Control_c, 0, 64, 74
1, 204048, Control_c, 0, 67, 28
1, 204063, Control_c, 0, 64, 64
1, 204063, Control_c, 0, 67, 24
1, 204078, Control_c, 0, 64, 55
1, 204078, Control_c, 0, 67, 19
1, 204093, Control_c, 0, 64, 54
1, 204093, Control_c, 0, 67, 10
1, 204107, Control_c, 0, 64, 62
1, 204107, Control_c, 0, 67, 0
1, 204120, Note_off_c, 0, 49, 57
1, 204122, Control_c, 0, 64, 75
1, 204131, Note_on_c, 0, 54, 48
1, 204137, Control_c, 0, 64, 117
1, 204152, Control_c, 0, 64, 127
1, 204161, Note_off_c, 0, 74, 60
1, 204187, Note_off_c, 0, 78, 63
1, 204202, Note_off_c, 0, 54, 58
1, 204214, Note_on_c, 0, 57, 41
1, 204243, Note_off_c, 0, 57, 55
1, 204262, Note_on_c, 0, 62, 51
1, 204288, Note_off_c, 0, 62, 57
1, 204344, Note_on_c, 0, 66, 49
1, 204420, Note_off_c, 0, 66, 59
1, 204426, Note_on_c, 0, 69, 51
1, 204489, Note_on_c, 0, 74, 54
1, 204551, Note_off_c, 0, 74, 46
1, 204581, Note_on_c, 0, 81, 67
1, 204588, Note_on_c, 0, 78, 63
1, 204651, Note_off_c, 0, 81, 63
1, 204661, Note_off_c, 0, 69, 18
1, 204675, Note_off_c, 0, 78, 64
1, 204727, Note_on_c, 0, 74, 42
1, 204780, Note_off_c, 0, 74, 58
1, 204800, Note_on_c, 0, 69, 47
1, 204844, Note_on_c, 0, 66, 58
1, 204864, Note_off_c, 0, 69, 57
1, 204876, Note_off_c, 0, 66, 62
1, 205024, Note_on_c, 0, 54, 51
1, 205040, Poly_aftertouch_c, 0, 57, 127
1, 205068, Note_off_c, 0, 54, 57
1, 205072, Poly_aftertouch_c, 0, 57, 0
1, 205111, Note_on_c, 0, 49, 51
1, 205168, Control_c, 0, 64, 99
1, 205177, Note_on_c, 0, 79, 57
1, 205177, Note_on_c, 0, 83, 67
1, 205183, Control_c, 0, 64, 83
1, 205198, Control_c, 0, 64, 73
1, 205213, Control_c, 0, 64, 65
1, 205228, Control_c, 0, 64, 61
1, 205239, Note_off_c, 0, 49, 60
1, 205242, Control_c, 0, 64, 65
1, 205265, Control_c, 0, 64, 77
1, 205280, Control_c, 0, 64, 109
1, 205294, Control_c, 0, 64, 127
1, 205332, Note_off_c, 0, 79, 63
1, 205345, Note_off_c, 0, 83, 62
1, 205370, Note_on_c, 0, 59, 44
1, 205424, Note_off_c, 0, 59, 55
1, 205445, Note_on_c, 0, 62, 46
1, 205481, Note_off_c, 0, 62, 62
1, 205514, Note_on_c, 0, 67, 42
1, 205541, Note_off_c, 0, 67, 54
1, 205596, Note_on_c, 0, 71, 35
1, 205653, Note_off_c, 0, 71, 41
1, 205672, Note_on_c, 0, 74, 43
1, 205764, Note_on_c, 0, 79, 45
1, 205791, Note_off_c, 0, 74, 34
1, 205810, Note_off_c, 0, 79, 61
1, 205898, Note_on_c, 0, 86, 55
1, 205901, Note_on_c, 0, 83, 52
1, 205964, Note_off_c, 0, 86, 62
1, 205981, Note_off_c, 0, 83, 61
1, 206057, Note_on_c, 0, 79, 45
1, 206164, Note_off_c, 0, 79, 33
1, 206178, Note_on_c, 0, 74, 37
1, 206286, Note_on_c, 0, 71, 32
1, 206319, Note_off_c, 0, 71, 51
1, 206387, Note_off_c, 0, 74, 41
1, 206422, Note_on_c, 0, 67, 33
1, 206474, Control_c, 0, 67, 8
1, 206484, Note_off_c, 0, 67, 54
1, 206488, Control_c, 0, 67, 12
1, 206503, Control_c, 0, 67, 18
1, 206518, Control_c, 0, 67, 24
1, 206533, Control_c, 0, 67, 31
1, 206548, Control_c, 0, 67, 39
1, 206554, Note_on_c, 0, 62, 29
1, 206563, Control_c, 0, 67, 46
1, 206577, Control_c, 0, 67, 53
1, 206592, Control_c, 0, 67, 60
1, 206607, Control_c, 0, 67, 67
1, 206622, Control_c, 0, 67, 73
1, 206630, Note_off_c, 0, 62, 48
1, 206636, Control_c, 0, 67, 81
1, 206651, Control_c, 0, 67, 88
1, 206666, Control_c, 0, 67, 96
1, 206680, Note_on_c, 0, 59, 24
1, 206682, Control_c, 0, 67, 104
1, 206697, Control_c, 0, 67, 112
1, 206712, Control_c, 0, 67, 120
1, 206726, Note_off_c, 0, 59, 47
1, 206726, Control_c, 0, 67, 127
1, 206741, Control_c, 0, 67, 127
1, 206841, Note_on_c, 0, 73, 39
1, 207004, Note_on_c, 0, 80, 54
1, 207055, Note_off_c, 0, 73, 55
1, 207171, Note_on_c, 0, 85, 60
1, 207313, Note_off_c, 0, 80, 55
1, 207520, Note_on_c, 0, 49, 35
1, 207627, Note_on_c, 0, 89, 59
1, 207630, Control_c, 0, 64, 107
1, 207645, Control_c, 0, 64, 94
1, 207660, Control_c, 0, 64, 82
1, 207675, Control_c, 0, 64, 70
1, 207681, Note_off_c, 0, 85, 62
1, 207690, Control_c, 0, 64, 59
1, 207705, Control_c, 0, 64, 9
1, 207720, Control_c, 0, 64, 0
1, 207779, Control_c, 0, 64, 34
1, 207794, Control_c, 0, 64, 64
1, 207808, Control_c, 0, 64, 75
1, 207823, Control_c, 0, 64, 92
1, 207838, Control_c, 0, 64, 127
1, 207859, Note_off_c, 0, 89, 62
1, 207910, Note_off_c, 0, 49, 57
1, 207991, Note_on_c, 0, 56, 30
1, 208076, Note_off_c, 0, 56, 55
1, 208087, Note_on_c, 0, 61, 40
1, 208168, Note_off_c, 0, 61, 49
1, 208182, Note_on_c, 0, 65, 42
1, 208230, Note_off_c, 0, 65, 52
1, 208281, Note_on_c, 0, 68, 45
1, 208328, Poly_aftertouch_c, 0, 61, 127
1, 208343, Note_off_c, 0, 68, 50
1, 208357, Note_on_c, 0, 73, 42
1, 208406, Poly_aftertouch_c, 0, 61, 0
1, 208407, Note_off_c, 0, 73, 54
1, 208421, Note_on_c, 0, 77, 43
1, 208466, Note_off_c, 0, 77, 60
1, 208491, Note_on_c, 0, 80, 53
1, 208551, Note_off_c, 0, 80, 60
1, 208588, Note_on_c, 0, 77, 45
1, 208629, Note_off_c, 0, 77, 61
1, 208636, Note_on_c, 0, 73, 53
1, 208699, Note_on_c, 0, 68, 52
1, 208709, Note_off_c, 0, 73, 57
1, 208724, Note_off_c, 0, 68, 59
1, 208780, Note_on_c, 0, 65, 40
1, 208891, Note_on_c, 0, 61, 32
1, 208942, Note_off_c, 0, 61, 49
1, 209028, Note_on_c, 0, 56, 38
1, 209410, Control_c, 0, 64, 124
1, 209425, Control_c, 0, 64, 99
1, 209438, Note_on_c, 0, 47, 54
1, 209440, Control_c, 0, 64, 86
1, 209454, Control_c, 0, 64, 74
1, 209469, Control_c, 0, 64, 65
1, 209484, Control_c, 0, 64, 54
1, 209499, Control_c, 0, 64, 42
1, 209514, Control_c, 0, 64, 49
1, 209528, Control_c, 0, 64, 63
1, 209543, Control_c, 0, 64, 72
1, 209547, Note_off_c, 0, 56, 39
1, 209558, Control_c, 0, 64, 89
1, 209572, Control_c, 0, 64, 127
1, 209593, Note_off_c, 0, 47, 62
1, 209693, Note_on_c, 0, 56, 33
1, 209695, Note_off_c, 0, 65, 10
1, 209815, Note_on_c, 0, 61, 33
1, 209908, Note_on_c, 0, 65, 34
1, 209957, Note_off_c, 0, 65, 43
1, 209972, Note_on_c, 0, 68, 44
1, 209999, Note_off_c, 0, 56, 26
1, 210039, Note_on_c, 0, 73, 48
1, 210056, Note_off_c, 0, 68, 48
1, 210084, Note_off_c, 0, 73, 56
1, 210119, Note_on_c, 0, 77, 37
1, 210129, Note_off_c, 0, 61, 38
1, 210163, Note_off_c, 0, 77, 60
1, 210182, Note_on_c, 0, 80, 50
1, 210225, Note_off_c, 0, 80, 58
1, 210262, Note_on_c, 0, 77, 52
1, 210307, Note_off_c, 0, 77, 54
1, 210321, Note_on_c, 0, 73, 49
1, 210368, Note_on_c, 0, 68, 53
1, 210390, Note_off_c, 0, 68, 61
1, 210411, Note_off_c, 0, 73, 59
1, 210443, Note_on_c, 0, 65, 36
1, 210489, Note_off_c, 0, 65, 46
1, 210518, Note_on_c, 0, 61, 44
1, 210564, Note_off_c, 0, 61, 60
1, 210606, Note_on_c, 0, 56, 40
1, 210640, Note_off_c, 0, 56, 51
1, 210711, Note_on_c, 0, 74, 49
1, 210860, Note_on_c, 0, 82, 57
1, 210877, Note_off_c, 0, 74, 42
1, 211034, Note_on_c, 0, 46, 46
1, 211070, Control_c, 0, 64, 116
1, 211085, Control_c, 0, 64, 90
1, 211100, Control_c, 0, 64, 76
1, 211115, Control_c, 0, 64, 64
1, 211130, Control_c, 0, 64, 49
1, 211142, Note_on_c, 0, 89, 57
1, 211144, Control_c, 0, 64, 30
1, 211159, Control_c, 0, 64, 37
1, 211174, Control_c, 0, 64, 61
1, 211189, Control_c, 0, 64, 72
1, 211204, Control_c, 0, 64, 95
1, 211218, Control_c, 0, 64, 127
1, 211261, Note_off_c, 0, 46, 60
1, 211275, Note_off_c, 0, 89, 63
1, 211298, Note_off_c, 0, 82, 56
1, 211419, Note_on_c, 0, 53, 27
1, 211481, Note_on_c, 0, 58, 47
1, 211512, Note_off_c, 0, 53, 36
1, 211559, Note_on_c, 0, 62, 43
1, 211561, Note_off_c, 0, 58, 60
1, 211590, Note_off_c, 0, 62, 55
1, 211619, Note_on_c, 0, 65, 34
1, 211626, Note_on_c, 0, 70, 47
1, 211650, Note_off_c, 0, 65, 52
1, 211678, Note_off_c, 0, 70, 55
1, 211695, Note_on_c, 0, 74, 36
1, 211725, Note_off_c, 0, 74, 52
1, 211740, Note_on_c, 0, 77, 47
1, 211773, Note_off_c, 0, 77, 65
1, 211788, Note_on_c, 0, 82, 59
1, 211850, Note_off_c, 0, 82, 57
1, 211867, Note_on_c, 0, 77, 57
1, 211926, Note_on_c, 0, 74, 52
1, 211937, Note_off_c, 0, 77, 46
1, 211962, Note_on_c, 0, 70, 66
1, 211965, Note_off_c, 0, 74, 60
1, 212001, Note_off_c, 0, 70, 62
1, 212068, Note_on_c, 0, 65, 49
1, 212121, Note_off_c, 0, 65, 55
1, 212139, Note_on_c, 0, 62, 53
1, 212204, Note_off_c, 0, 62, 51
1, 212218, Note_on_c, 0, 58, 59
1, 212306, Note_off_c, 0, 58, 57
1, 212321, Note_on_c, 0, 53, 58
1, 212508, Note_on_c, 0, 44, 66
1, 212509, Control_c, 0, 64, 110
1, 212523, Control_c, 0, 64, 89
1, 212538, Control_c, 0, 64, 76
1, 212553, Control_c, 0, 64, 65
1, 212568, Control_c, 0, 64, 58
1, 212583, Control_c, 0, 64, 61
1, 212597, Control_c, 0, 64, 68
1, 212612, Control_c, 0, 64, 82
1, 212615, Note_off_c, 0, 53, 55
1, 212627, Control_c, 0, 64, 127
1, 212644, Note_off_c, 0, 44, 62
1, 212707, Note_on_c, 0, 53, 45
1, 212787, Note_on_c, 0, 58, 54
1, 212843, Note_on_c, 0, 62, 56
1, 212855, Note_off_c, 0, 58, 61
1, 212869, Note_off_c, 0, 53, 45
1, 212908, Note_on_c, 0, 65, 55
1, 212912, Note_off_c, 0, 62, 59
1, 212929, Note_off_c, 0, 65, 60
1, 212954, Note_on_c, 0, 70, 62
1, 213017, Note_on_c, 0, 74, 57
1, 213026, Note_off_c, 0, 70, 55
1, 213073, Note_on_c, 0, 77, 61
1, 213097, Note_off_c, 0, 74, 56
1, 213124, Note_off_c, 0, 77, 58
1, 213127, Note_on_c, 0, 82, 65
1, 213183, Note_on_c, 0, 77, 56
1, 213231, Note_on_c, 0, 74, 63
1, 213234, Note_off_c, 0, 82, 38
1, 213292, Note_on_c, 0, 70, 60
1, 213297, Note_off_c, 0, 74, 59
1, 213311, Note_off_c, 0, 77, 56
1, 213312, Note_off_c, 0, 70, 63
1, 213321, Note_on_c, 0, 65, 65
1, 213365, Note_off_c, 0, 65, 57
1, 213387, Note_on_c, 0, 62, 49
1, 213422, Note_off_c, 0, 62, 62
1, 213428, Note_on_c, 0, 58, 62
1, 213464, Note_on_c, 0, 53, 65
1, 213464, Note_off_c, 0, 58, 65
1, 213508, Note_off_c, 0, 53, 64
1, 213564, Note_on_c, 0, 74, 66
1, 213692, Note_off_c, 0, 74, 57
1, 213706, Note_on_c, 0, 83, 81
1, 213821, Note_on_c, 0, 43, 75
1, 213857, Control_c, 0, 64, 99
1, 213873, Control_c, 0, 64, 79
1, 213888, Control_c, 0, 64, 66
1, 213903, Control_c, 0, 64, 47
1, 213917, Control_c, 0, 64, 35
1, 213932, Control_c, 0, 64, 57
1, 213932, Control_c, 0, 67, 125
1, 213947, Control_c, 0, 64, 68
1, 213947, Control_c, 0, 67, 115
1, 213959, Note_on_c, 0, 91, 83
1, 213962, Control_c, 0, 64, 85
1, 213962, Control_c, 0, 67, 108
1, 213976, Control_c, 0, 64, 127
1, 213976, Control_c, 0, 67, 99
1, 213991, Control_c, 0, 67, 90
1, 213999, Note_off_c, 0, 43, 62
1, 214006, Control_c, 0, 67, 78
1, 214021, Control_c, 0, 67, 65
1, 214036, Control_c, 0, 67, 52
1, 214051, Control_c, 0, 67, 37
1, 214054, Note_off_c, 0, 91, 64
1, 214066, Control_c, 0, 67, 27
1, 214072, Note_off_c, 0, 83, 56
1, 214081, Control_c, 0, 67, 16
1, 214095, Control_c, 0, 67, 0
1, 214182, Note_on_c, 0, 57, 8
1, 214232, Note_off_c, 0, 57, 48
1, 214245, Note_on_c, 0, 60, 28
1, 214269, Note_on_c, 0, 62, 44
1, 214272, Poly_aftertouch_c, 0, 59, 127
1, 214279, Note_off_c, 0, 60, 47
1, 214304, Poly_aftertouch_c, 0, 59, 0
1, 214316, Note_on_c, 0, 67, 62
1, 214319, Note_off_c, 0, 62, 56
1, 214346, Note_off_c, 0, 67, 64
1, 214355, Note_on_c, 0, 71, 30
1, 214388, Note_off_c, 0, 71, 55
1, 214410, Note_on_c, 0, 74, 39
1, 214428, Note_on_c, 0, 79, 61
1, 214441, Note_off_c, 0, 74, 51
1, 214490, Note_off_c, 0, 79, 64
1, 214492, Note_on_c, 0, 83, 71
1, 214553, Note_on_c, 0, 79, 64
1, 214588, Note_off_c, 0, 83, 57
1, 214612, Note_on_c, 0, 74, 73
1, 214650, Note_off_c, 0, 79, 62
1, 214656, Note_on_c, 0, 71, 76
1, 214677, Note_off_c, 0, 74, 59
1, 214679, Note_off_c, 0, 71, 69
1, 214731, Note_on_c, 0, 67, 68
1, 214807, Note_on_c, 0, 62, 66
1, 214808, Note_off_c, 0, 67, 58
1, 214872, Note_on_c, 0, 59, 70
1, 214891, Note_off_c, 0, 62, 55
1, 214958, Note_off_c, 0, 59, 59
1, 214965, Note_on_c, 0, 55, 73
1, 215149, Control_c, 0, 64, 104
1, 215164, Control_c, 0, 64, 88
1, 215172, Note_on_c, 0, 41, 82
1, 215179, Control_c, 0, 64, 73
1, 215194, Control_c, 0, 64, 54
1, 215208, Control_c, 0, 64, 0
1, 215267, Control_c, 0, 64, 59
1, 215282, Control_c, 0, 64, 68
1, 215297, Control_c, 0, 64, 82
1, 215300, Note_off_c, 0, 41, 62
1, 215309, Note_off_c, 0, 55, 59
1, 215312, Control_c, 0, 64, 127
1, 215389, Note_on_c, 0, 55, 51
1, 215436, Note_on_c, 0, 59, 65
1, 215444, Note_off_c, 0, 55, 60
1, 215509, Note_on_c, 0, 62, 57
1, 215548, Note_on_c, 0, 67, 59
1, 215553, Note_off_c, 0, 62, 57
1, 215564, Note_off_c, 0, 59, 47
1, 215568, Note_off_c, 0, 67, 62
1, 215605, Note_on_c, 0, 71, 60
1, 215657, Note_on_c, 0, 74, 59
1, 215667, Note_off_c, 0, 71, 59
1, 215696, Note_off_c, 0, 74, 55
1, 215702, Note_on_c, 0, 79, 65
1, 215764, Note_off_c, 0, 79, 64
1, 215767, Note_on_c, 0, 83, 71
1, 215825, Note_on_c, 0, 79, 64
1, 215857, Note_off_c, 0, 83, 48
1, 215876, Note_on_c, 0, 74, 71
1, 215926, Note_on_c, 0, 71, 76
1, 215949, Note_off_c, 0, 71, 68
1, 215965, Note_on_c, 0, 67, 68
1, 215966, Note_off_c, 0, 74, 60
1, 215979, Note_off_c, 0, 79, 58
1, 216009, Note_off_c, 0, 67, 59
1, 216018, Note_on_c, 0, 62, 66
1, 216076, Note_on_c, 0, 59, 65
1, 216084, Note_off_c, 0, 62, 58
1, 216129, Note_on_c, 0, 55, 70
1, 216134, Note_off_c, 0, 59, 62
1, 216168, Note_off_c, 0, 55, 63
1, 216209, Note_on_c, 0, 76, 71
1, 216305, Note_off_c, 0, 76, 60
1, 216341, Note_on_c, 0, 83, 85
1, 216474, Note_on_c, 0, 40, 75
1, 216558, Control_c, 0, 64, 87
1, 216572, Control_c, 0, 64, 65
1, 216587, Control_c, 0, 64, 16
1, 216602, Control_c, 0, 64, 27
1, 216614, Note_on_c, 0, 92, 87
1, 216617, Control_c, 0, 64, 64
1, 216632, Control_c, 0, 64, 81
1, 216646, Control_c, 0, 64, 127
1, 216656, Note_off_c, 0, 40, 60
1, 216742, Note_off_c, 0, 83, 60
1, 216748, Note_off_c, 0, 92, 64
1, 216814, Note_on_c, 0, 56, 59
1, 216871, Note_on_c, 0, 59, 68
1, 216919, Note_on_c, 0, 64, 60
1, 216921, Note_off_c, 0, 56, 48
1, 216956, Note_off_c, 0, 59, 62
1, 216964, Note_on_c, 0, 68, 77
1, 216985, Note_off_c, 0, 68, 69
1, 216993, Note_on_c, 0, 71, 57
1, 216995, Note_off_c, 0, 64, 63
1, 217051, Note_on_c, 0, 76, 62
1, 217068, Note_off_c, 0, 71, 58
1, 217105, Note_on_c, 0, 80, 60
1, 217154, Note_on_c, 0, 83, 74
1, 217160, Note_off_c, 0, 80, 62
1, 217176, Note_off_c, 0, 76, 33
1, 217212, Note_on_c, 0, 80, 68
1, 217261, Note_off_c, 0, 83, 59
1, 217280, Note_on_c, 0, 76, 74
1, 217326, Note_on_c, 0, 71, 80
1, 217338, Note_off_c, 0, 76, 62
1, 217341, Note_off_c, 0, 80, 56
1, 217347, Note_off_c, 0, 71, 69
1, 217406, Note_on_c, 0, 68, 79
1, 217485, Note_off_c, 0, 68, 39
1, 217488, Note_on_c, 0, 64, 68
1, 217569, Note_on_c, 0, 59, 68
1, 217652, Note_on_c, 0, 56, 80
1, 217662, Note_off_c, 0, 59, 60
1, 217853, Control_c, 0, 64, 109
1, 217857, Note_on_c, 0, 38, 86
1, 217869, Control_c, 0, 64, 73
1, 217884, Control_c, 0, 64, 30
1, 217899, Control_c, 0, 64, 0
1, 217908, Note_off_c, 0, 64, 6
1, 217943, Control_c, 0, 64, 59
1, 217958, Control_c, 0, 64, 71
1, 217973, Control_c, 0, 64, 90
1, 217995, Control_c, 0, 64, 127
1, 218018, Note_off_c, 0, 38, 62
1, 218026, Note_off_c, 0, 56, 54
1, 218124, Note_on_c, 0, 56, 60
1, 218178, Note_on_c, 0, 59, 68
1, 218194, Note_off_c, 0, 56, 55
1, 218247, Note_on_c, 0, 64, 66
1, 218281, Note_off_c, 0, 59, 61
1, 218312, Note_on_c, 0, 68, 69
1, 218335, Note_off_c, 0, 68, 66
1, 218337, Note_off_c, 0, 64, 63
1, 218369, Note_on_c, 0, 71, 58
1, 218407, Note_on_c, 0, 76, 63
1, 218447, Note_off_c, 0, 71, 48
1, 218458, Note_on_c, 0, 80, 69
1, 218459, Note_off_c, 0, 76, 58
1, 218517, Note_off_c, 0, 80, 63
1, 218524, Note_on_c, 0, 83, 68
1, 218566, Note_on_c, 0, 80, 70
1, 218597, Note_off_c, 0, 83, 60
1, 218630, Note_on_c, 0, 76, 71
1, 218662, Note_off_c, 0, 80, 60
1, 218678, Note_on_c, 0, 71, 78
1, 218686, Note_off_c, 0, 76, 65
1, 218728, Note_off_c, 0, 71, 60
1, 218763, Note_on_c, 0, 68, 80
1, 218844, Note_on_c, 0, 64, 75
1, 218851, Note_off_c, 0, 68, 59
1, 218961, Note_on_c, 0, 59, 70
1, 218980, Note_off_c, 0, 64, 59
1, 219078, Note_on_c, 0, 56, 84
1, 219103, Note_off_c, 0, 59, 60
1, 219123, Note_off_c, 0, 56, 63
1, 219401, Note_on_c, 0, 37, 79
1, 219470, Control_c, 0, 64, 74
1, 219493, Control_c, 0, 64, 56
1, 219508, Control_c, 0, 64, 39
1, 219522, Control_c, 0, 64, 54
1, 219537, Control_c, 0, 64, 68
1, 219552, Control_c, 0, 64, 91
1, 219567, Control_c, 0, 64, 127
1, 219640, Note_on_c, 0, 44, 76
1, 219679, Note_off_c, 0, 37, 58
1, 219751, Note_on_c, 0, 49, 75
1, 219786, Note_off_c, 0, 44, 62
1, 219825, Note_on_c, 0, 53, 69
1, 219834, Note_off_c, 0, 49, 54
1, 219847, Note_off_c, 0, 53, 64
1, 219897, Note_on_c, 0, 56, 78
1, 219945, Note_off_c, 0, 56, 59
1, 219971, Note_on_c, 0, 61, 69
1, 219998, Note_off_c, 0, 61, 68
1, 220040, Note_on_c, 0, 65, 73
1, 220066, Note_off_c, 0, 65, 67
1, 220158, Note_on_c, 0, 68, 83
1, 220195, Note_on_c, 0, 70, 30
1, 220333, Note_on_c, 0, 73, 74
1, 220412, Note_on_c, 0, 77, 73
1, 220489, Note_on_c, 0, 80, 77
1, 220561, Note_on_c, 0, 85, 82
1, 220624, Note_off_c, 0, 68, 58
1, 220630, Note_on_c, 0, 89, 75
1, 220651, Note_off_c, 0, 77, 59
1, 220674, Note_off_c, 0, 73, 57
1, 220683, Note_off_c, 0, 70, 39
1, 220730, Note_on_c, 0, 92, 89
1, 221712, Note_off_c, 0, 92, 60
1, 221754, Note_off_c, 0, 89, 57
1, 221780, Note_off_c, 0, 80, 55
1, 221819, Note_off_c, 0, 85, 50
1, 221827, Control_c, 0, 67, 9
1, 221842, Control_c, 0, 67, 15
1, 221858, Control_c, 0, 67, 23
1, 221873, Control_c, 0, 67, 34
1, 221888, Control_c, 0, 67, 46
1, 221903, Control_c, 0, 67, 61
1, 221917, Control_c, 0, 67, 76
1, 221932, Control_c, 0, 67, 93
1, 221947, Control_c, 0, 67, 113
1, 221961, Control_c, 0, 67, 127
1, 222075, Note_on_c, 0, 34, 62
1, 222139, Control_c, 0, 64, 109
1, 222154, Control_c, 0, 64, 86
1, 222168, Control_c, 0, 64, 70
1, 222183, Control_c, 0, 64, 52
1, 222198, Control_c, 0, 64, 0
1, 222228, Control_c, 0, 64, 57
1, 222243, Control_c, 0, 64, 76
1, 222257, Control_c, 0, 64, 110
1, 222272, Control_c, 0, 64, 127
1, 222308, Note_off_c, 0, 34, 59
1, 222329, Note_on_c, 0, 46, 60
1, 222369, Note_off_c, 0, 46, 62
1, 222445, Note_on_c, 0, 49, 59
1, 222531, Note_on_c, 0, 53, 53
1, 222531, Note_off_c, 0, 49, 60
1, 222556, Note_off_c, 0, 53, 57
1, 222577, Note_on_c, 0, 58, 62
1, 222624, Note_off_c, 0, 58, 60
1, 222651, Note_on_c, 0, 61, 63
1, 222684, Note_off_c, 0, 61, 66
1, 222728, Note_on_c, 0, 65, 64
1, 222755, Note_off_c, 0, 65, 65
1, 222841, Note_on_c, 0, 70, 78
1, 222978, Note_on_c, 0, 73, 64
1, 222994, Note_off_c, 0, 70, 53
1, 223053, Note_on_c, 0, 77, 67
1, 223077, Note_off_c, 0, 73, 36
1, 223077, Note_off_c, 0, 77, 68
1, 223140, Note_on_c, 0, 82, 58
1, 223233, Note_on_c, 0, 85, 61
1, 223294, Note_on_c, 0, 89, 64
1, 223378, Note_on_c, 0, 94, 75
1, 223518, Note_on_c, 0, 30, 71
1, 223548, Control_c, 0, 64, 84
1, 223563, Control_c, 0, 64, 65
1, 223578, Control_c, 0, 64, 0
1, 223601, Note_off_c, 0, 94, 62
1, 223607, Control_c, 0, 64, 40
1, 223622, Control_c, 0, 64, 72
1, 223637, Control_c, 0, 64, 99
1, 223644, Note_off_c, 0, 82, 61
1, 223645, Note_off_c, 0, 89, 62
1, 223652, Control_c, 0, 64, 127
1, 223675, Note_off_c, 0, 85, 60
1, 223706, Note_off_c, 0, 30, 61
1, 223723, Note_on_c, 0, 42, 65
1, 223754, Note_off_c, 0, 42, 63
1, 223858, Note_on_c, 0, 49, 59
1, 223937, Note_on_c, 0, 54, 60
1, 224009, Note_on_c, 0, 58, 60
1, 224013, Note_off_c, 0, 54, 59
1, 224017, Note_off_c, 0, 49, 61
1, 224031, Note_off_c, 0, 58, 62
1, 224076, Note_on_c, 0, 61, 64
1, 224154, Note_on_c, 0, 66, 67
1, 224158, Note_off_c, 0, 61, 61
1, 224232, Note_on_c, 0, 70, 62
1, 224246, Note_off_c, 0, 66, 50
1, 224318, Note_off_c, 0, 70, 61
1, 224377, Note_on_c, 0, 73, 75
1, 224534, Control_c, 0, 67, 127
1, 224547, Note_on_c, 0, 78, 61
1, 224548, Control_c, 0, 67, 115
1, 224563, Control_c, 0, 67, 98
1, 224578, Control_c, 0, 67, 78
1, 224593, Control_c, 0, 67, 54
1, 224608, Control_c, 0, 67, 34
1, 224622, Control_c, 0, 67, 14
1, 224637, Control_c, 0, 67, 0
1, 224657, Note_off_c, 0, 73, 59
1, 224664, Note_on_c, 0, 82, 68
1, 224689, Note_off_c, 0, 82, 67
1, 224700, Note_off_c, 0, 78, 60
1, 224801, Note_on_c, 0, 85, 60
1, 224953, Note_on_c, 0, 90, 73
1, 225137, Note_on_c, 0, 94, 69
1, 225391, Note_on_c, 0, 97, 73
1, 225829, Note_on_c, 0, 27, 74
1, 225943, Control_c, 0, 64, 91
1, 225958, Control_c, 0, 64, 75
1, 225973, Control_c, 0, 64, 64
1, 225988, Control_c, 0, 64, 51
1, 226002, Control_c, 0, 64, 55
1, 226017, Control_c, 0, 64, 67
1, 226032, Control_c, 0, 64, 86
1, 226047, Control_c, 0, 64, 127
1, 226117, Note_off_c, 0, 97, 63
1, 226150, Note_off_c, 0, 94, 61
1, 226153, Note_off_c, 0, 85, 61
1, 226171, Note_off_c, 0, 90, 61
1, 226252, Note_off_c, 0, 27, 52
1, 226270, Note_on_c, 0, 39, 81
1, 226314, Note_off_c, 0, 39, 58
1, 226499, Note_on_c, 0, 51, 64
1, 226639, Note_on_c, 0, 54, 72
1, 226698, Note_off_c, 0, 51, 53
1, 226765, Note_on_c, 0, 58, 69
1, 226782, Note_off_c, 0, 54, 60
1, 226807, Note_off_c, 0, 58, 61
1, 226885, Note_on_c, 0, 63, 63
1, 227065, Note_on_c, 0, 66, 66
1, 227199, Note_off_c, 0, 63, 59
1, 227288, Note_on_c, 0, 70, 71
1, 227571, Note_off_c, 0, 66, 58
1, 227608, Note_off_c, 0, 70, 37
1, 227667, Note_on_c, 0, 75, 62
1, 228019, Note_on_c, 0, 78, 48
1, 228216, Note_on_c, 0, 82, 53
1, 228445, Note_on_c, 0, 87, 48
1, 228765, Note_on_c, 0, 90, 67
1, 229229, Note_on_c, 0, 94, 63
1, 230303, Note_on_c, 0, 99, 61
1, 230405, Note_off_c, 0, 94, 61
1, 230518, Note_off_c, 0, 90, 62
1, 230687, Note_off_c, 0, 82, 30
1, 230694, Note_off_c, 0, 78, 37
1, 230747, Note_off_c, 0, 87, 35
1, 230824, Note_off_c, 0, 99, 57
1, 230902, Control_c, 0, 67, 9
1, 230917, Control_c, 0, 67, 11
1, 230932, Control_c, 0, 67, 13
1, 230947, Control_c, 0, 67, 15
1, 230962, Control_c, 0, 67, 18
1, 230977, Control_c, 0, 67, 22
1, 230991, Control_c, 0, 67, 25
1, 231006, Control_c, 0, 67, 30
1, 231021, Control_c, 0, 67, 34
1, 231036, Control_c, 0, 67, 38
1, 231050, Control_c, 0, 67, 44
1, 231065, Control_c, 0, 67, 48
1, 231080, Control_c, 0, 67, 53
1, 231095, Control_c, 0, 67, 59
1, 231110, Control_c, 0, 67, 64
1, 231124, Control_c, 0, 67, 69
1, 231139, Control_c, 0, 67, 75
1, 231154, Control_c, 0, 67, 81
1, 231169, Control_c, 0, 67, 86
1, 231184, Control_c, 0, 67, 90
1, 231198, Control_c, 0, 67, 95
1, 231213, Control_c, 0, 67, 100
1, 231228, Control_c, 0, 67, 106
1, 231242, Control_c, 0, 67, 113
1, 231257, Control_c, 0, 67, 119
1, 231272, Control_c, 0, 67, 125
1, 231287, Control_c, 0, 67, 127
1, 231897, Note_on_c, 0, 101, 59
1, 231905, Note_on_c, 0, 77, 37
1, 231922, Poly_aftertouch_c, 0, 89, 127
1, 231933, Control_c, 0, 64, 118
1, 231940, Note_off_c, 0, 75, 27
1, 231947, Control_c, 0, 64, 92
1, 231962, Control_c, 0, 64, 78
1, 231977, Control_c, 0, 64, 69
1, 231991, Control_c, 0, 64, 67
1, 232006, Control_c, 0, 64, 71
1, 232021, Control_c, 0, 64, 87
1, 232036, Control_c, 0, 64, 127
1, 232111, Note_off_c, 0, 101, 62
1, 232136, Poly_aftertouch_c, 0, 89, 0
1, 232475, Note_on_c, 0, 99, 53
1, 232505, Note_on_c, 0, 75, 36
1, 232544, Poly_aftertouch_c, 0, 87, 127
1, 232547, Control_c, 0, 64, 102
1, 232562, Control_c, 0, 64, 87
1, 232577, Control_c, 0, 64, 77
1, 232592, Control_c, 0, 64, 68
1, 232607, Control_c, 0, 64, 61
1, 232621, Control_c, 0, 64, 58
1, 232636, Control_c, 0, 64, 64
1, 232644, Note_off_c, 0, 77, 36
1, 232651, Control_c, 0, 64, 75
1, 232666, Control_c, 0, 64, 106
1, 232681, Control_c, 0, 64, 127
1, 232777, Note_off_c, 0, 99, 62
1, 232792, Poly_aftertouch_c, 0, 87, 0
1, 232806, Note_off_c, 0, 75, 47
1, 233567, Note_on_c, 0, 94, 44
1, 233574, Note_on_c, 0, 70, 35
1, 233612, Note_on_c, 0, 82, 17
1, 233733, Control_c, 0, 64, 105
1, 233748, Control_c, 0, 64, 95
1, 233763, Control_c, 0, 64, 88
1, 233777, Control_c, 0, 64, 81
1, 233792, Control_c, 0, 64, 75
1, 233807, Control_c, 0, 64, 68
1, 233822, Control_c, 0, 64, 64
1, 233838, Control_c, 0, 64, 64
1, 233853, Control_c, 0, 64, 70
1, 233867, Control_c, 0, 64, 83
1, 233882, Control_c, 0, 64, 127
1, 234229, Note_off_c, 0, 94, 48
1, 234246, Note_off_c, 0, 70, 36
1, 234349, Note_off_c, 0, 82, 37
1, 235816, Note_on_c, 0, 63, 47
1, 235854, Control_c, 0, 64, 111
1, 235869, Control_c, 0, 64, 97
1, 235884, Control_c, 0, 64, 88
1, 235899, Control_c, 0, 64, 79
1, 235913, Control_c, 0, 64, 69
1, 235928, Control_c, 0, 64, 58
1, 235943, Control_c, 0, 64, 0
1, 236292, Control_c, 0, 64, 41
1, 236307, Control_c, 0, 64, 59
1, 236322, Control_c, 0, 64, 64
1, 236336, Control_c, 0, 64, 68
1, 236351, Control_c, 0, 64, 76
1, 236366, Control_c, 0, 64, 90
1, 236381, Control_c, 0, 64, 127
1, 236407, Note_off_c, 0, 63, 56
1, 236500, Control_c, 0, 67, 124
1, 236514, Control_c, 0, 67, 111
1, 236529, Control_c, 0, 67, 96
1, 236544, Control_c, 0, 67, 80
1, 236559, Control_c, 0, 67, 63
1, 236574, Control_c, 0, 67, 49
1, 236588, Control_c, 0, 67, 37
1, 236603, Control_c, 0, 67, 27
1, 236618, Control_c, 0, 67, 15
1, 236633, Control_c, 0, 67, 0
1, 236998, Note_on_c, 0, 65, 49
1, 237263, Control_c, 0, 64, 113
1, 237277, Control_c, 0, 64, 107
1, 237292, Control_c, 0, 64, 102
1, 237307, Control_c, 0, 64, 99
1, 237322, Control_c, 0, 64, 96
1, 237336, Control_c, 0, 64, 94
1, 237351, Control_c, 0, 64, 91
1, 237366, Note_on_c, 0, 63, 53
1, 237366, Control_c, 0, 64, 86
1, 237381, Control_c, 0, 64, 80
1, 237396, Control_c, 0, 64, 72
1, 237410, Control_c, 0, 64, 64
1, 237425, Control_c, 0, 64, 48
1, 237440, Control_c, 0, 64, 12
1, 237463, Control_c, 0, 64, 0
1, 237478, Control_c, 0, 64, 9
1, 237492, Control_c, 0, 64, 46
1, 237507, Control_c, 0, 64, 63
1, 237515, Note_off_c, 0, 65, 57
1, 237522, Control_c, 0, 64, 71
1, 237536, Control_c, 0, 64, 85
1, 237551, Control_c, 0, 64, 124
1, 237566, Control_c, 0, 64, 127
1, 237653, Note_off_c, 0, 63, 60
1, 238215, Note_on_c, 0, 58, 48
1, 238218, Note_on_c, 0, 51, 28
1, 238230, Note_on_c, 0, 54, 35
1, 238285, Control_c, 0, 64, 107
1, 238300, Control_c, 0, 64, 90
1, 238315, Control_c, 0, 64, 78
1, 238330, Control_c, 0, 64, 67
1, 238345, Control_c, 0, 64, 56
1, 238359, Control_c, 0, 64, 48
1, 238374, Control_c, 0, 64, 49
1, 238389, Control_c, 0, 64, 57
1, 238404, Control_c, 0, 64, 65
1, 238419, Control_c, 0, 64, 74
1, 238433, Control_c, 0, 64, 91
1, 238448, Control_c, 0, 64, 127
1, 238719, Note_off_c, 0, 54, 58
1, 239010, Note_off_c, 0, 58, 61
1, 239396, Note_on_c, 0, 49, 36
1, 239398, Note_on_c, 0, 61, 40
1, 239420, Note_on_c, 0, 56, 30
1, 239434, Note_on_c, 0, 53, 12
1, 239539, Control_c, 0, 64, 120
1, 239554, Control_c, 0, 64, 103
1, 239569, Control_c, 0, 64, 93
1, 239584, Control_c, 0, 64, 84
1, 239598, Control_c, 0, 64, 75
1, 239613, Control_c, 0, 64, 67
1, 239628, Control_c, 0, 64, 57
1, 239643, Control_c, 0, 64, 38
1, 239658, Control_c, 0, 64, 22
1, 239672, Control_c, 0, 64, 21
1, 239725, Control_c, 0, 64, 29
1, 239739, Control_c, 0, 64, 44
1, 239754, Control_c, 0, 64, 55
1, 239769, Control_c, 0, 64, 62
1, 239784, Control_c, 0, 64, 67
1, 239799, Control_c, 0, 64, 73
1, 239813, Control_c, 0, 64, 83
1, 239828, Control_c, 0, 64, 106
1, 239843, Control_c, 0, 64, 127
1, 239922, Note_off_c, 0, 51, 33
1, 240863, Note_off_c, 0, 53, 39
1, 240988, Note_off_c, 0, 56, 38
1, 241008, Note_off_c, 0, 61, 37
1, 241362, Note_on_c, 0, 61, 49
1, 241368, Note_on_c, 0, 45, 29
1, 241368, Note_on_c, 0, 57, 32
1, 241378, Note_on_c, 0, 52, 9
1, 241577, Control_c, 0, 64, 117
1, 241592, Control_c, 0, 64, 102
1, 241606, Control_c, 0, 64, 91
1, 241621, Control_c, 0, 64, 82
1, 241636, Control_c, 0, 64, 74
1, 241651, Control_c, 0, 64, 65
1, 241666, Control_c, 0, 64, 52
1, 241681, Control_c, 0, 64, 0
1, 241874, Control_c, 0, 64, 52
1, 241889, Control_c, 0, 64, 61
1, 241904, Control_c, 0, 64, 66
1, 241918, Control_c, 0, 64, 70
1, 241933, Control_c, 0, 64, 77
1, 241955, Control_c, 0, 64, 86
1, 241970, Control_c, 0, 64, 97
1, 241985, Control_c, 0, 64, 127
1, 242116, Note_off_c, 0, 49, 35
1, 242466, Note_off_c, 0, 57, 52
1, 242733, Note_off_c, 0, 61, 32
1, 243227, Note_on_c, 0, 42, 39
1, 243237, Note_on_c, 0, 61, 44
1, 243245, Note_on_c, 0, 58, 39
1, 243298, Note_on_c, 0, 54, 11
1, 243513, Control_c, 0, 64, 108
1, 243528, Control_c, 0, 64, 96
1, 243543, Control_c, 0, 64, 88
1, 243558, Control_c, 0, 64, 80
1, 243572, Control_c, 0, 64, 70
1, 243577, Note_off_c, 0, 52, 32
1, 243587, Control_c, 0, 64, 55
1, 243602, Control_c, 0, 64, 0
1, 243612, Note_off_c, 0, 45, 16
1, 243735, Control_c, 0, 64, 17
1, 243750, Control_c, 0, 64, 61
1, 243765, Control_c, 0, 64, 66
1, 243780, Control_c, 0, 64, 74
1, 243794, Control_c, 0, 64, 85
1, 243809, Control_c, 0, 64, 101
1, 243824, Control_c, 0, 64, 127
1, 244477, Note_off_c, 0, 58, 34
1, 244575, Note_off_c, 0, 54, 39
1, 244748, Note_off_c, 0, 61, 57
1, 245140, Note_on_c, 0, 63, 46
1, 245141, Note_on_c, 0, 39, 38
1, 245154, Note_on_c, 0, 58, 34
1, 245184, Note_on_c, 0, 54, 7
1, 245365, Control_c, 0, 64, 107
1, 245380, Control_c, 0, 64, 97
1, 245395, Control_c, 0, 64, 89
1, 245410, Control_c, 0, 64, 82
1, 245425, Control_c, 0, 64, 76
1, 245440, Control_c, 0, 64, 68
1, 245455, Control_c, 0, 64, 62
1, 245469, Control_c, 0, 64, 45
1, 245484, Control_c, 0, 64, 23
1, 245499, Control_c, 0, 64, 0
1, 245558, Control_c, 0, 64, 35
1, 245573, Control_c, 0, 64, 59
1, 245587, Control_c, 0, 64, 67
1, 245602, Control_c, 0, 64, 76
1, 245617, Control_c, 0, 64, 92
1, 245632, Control_c, 0, 64, 127
1, 245946, Note_off_c, 0, 42, 35
1, 246159, Control_c, 0, 67, 9
1, 246174, Control_c, 0, 67, 15
1, 246189, Control_c, 0, 67, 22
1, 246204, Control_c, 0, 67, 31
1, 246218, Control_c, 0, 67, 41
1, 246233, Control_c, 0, 67, 51
1, 246248, Control_c, 0, 67, 62
1, 246263, Control_c, 0, 67, 75
1, 246278, Control_c, 0, 67, 87
1, 246292, Control_c, 0, 67, 97
1, 246307, Control_c, 0, 67, 109
1, 246322, Control_c, 0, 67, 120
1, 246337, Control_c, 0, 67, 127
1, 246593, Note_off_c, 0, 58, 32
1, 246594, Note_off_c, 0, 54, 34
1, 246881, Note_off_c, 0, 63, 34
1, 247525, Note_on_c, 0, 65, 37
1, 247530, Note_on_c, 0, 44, 26
1, 247543, Note_on_c, 0, 61, 36
1, 247546, Note_on_c, 0, 37, 27
1, 247595, Poly_aftertouch_c, 0, 53, 127
1, 247614, Poly_aftertouch_c, 0, 56, 127
1, 247774, Control_c, 0, 64, 115
1, 247789, Control_c, 0, 64, 102
1, 247804, Control_c, 0, 64, 94
1, 247819, Control_c, 0, 64, 89
1, 247834, Control_c, 0, 64, 83
1, 247842, Note_off_c, 0, 39, 33
1, 247848, Control_c, 0, 64, 77
1, 247863, Control_c, 0, 64, 70
1, 247878, Control_c, 0, 64, 63
1, 247893, Control_c, 0, 64, 47
1, 247908, Control_c, 0, 64, 0
1, 248227, Control_c, 0, 64, 29
1, 248242, Control_c, 0, 64, 53
1, 248257, Control_c, 0, 64, 61
1, 248272, Control_c, 0, 64, 65
1, 248286, Control_c, 0, 64, 68
1, 248301, Control_c, 0, 64, 73
1, 248316, Control_c, 0, 64, 79
1, 248331, Control_c, 0, 64, 87
1, 248345, Control_c, 0, 64, 97
1, 248360, Control_c, 0, 64, 120
1, 248375, Control_c, 0, 64, 127
1, 249094, Note_off_c, 0, 65, 35
1, 249740, Note_off_c, 0, 44, 35
1, 249849, Note_on_c, 0, 65, 51
1, 249866, Note_off_c, 0, 37, 40
1, 250511, Note_on_c, 0, 36, 39
1, 250519, Note_on_c, 0, 29, 40
1, 250532, Control_c, 0, 64, 100
1, 250547, Control_c, 0, 64, 85
1, 250562, Control_c, 0, 64, 73
1, 250577, Control_c, 0, 64, 63
1, 250591, Control_c, 0, 64, 31
1, 250594, Poly_aftertouch_c, 0, 53, 0
1, 250606, Control_c, 0, 64, 0
1, 250652, Control_c, 0, 64, 59
1, 250667, Control_c, 0, 64, 69
1, 250681, Control_c, 0, 64, 81
1, 250696, Control_c, 0, 64, 112
1, 250711, Control_c, 0, 64, 127
1, 250722, Note_off_c, 0, 61, 32
1, 250784, Note_off_c, 0, 36, 60
1, 250792, Note_off_c, 0, 29, 39
1, 250803, Poly_aftertouch_c, 0, 56, 0
1, 250806, Note_off_c, 0, 65, 47
1, 251321, Note_on_c, 0, 65, 48
1, 251323, Note_on_c, 0, 57, 34
1, 251324, Note_on_c, 0, 41, 33
1, 251325, Note_on_c, 0, 60, 44
1, 251330, Note_on_c, 0, 53, 31
1, 251336, Note_on_c, 0, 48, 29
1, 252346, Note_off_c, 0, 65, 57
1, 253049, Note_on_c, 0, 65, 45
1, 253501, Note_off_c, 0, 65, 35
1, 254296, Note_on_c, 0, 65, 41
1, 254625, Note_off_c, 0, 57, 0
1, 254642, Note_off_c, 0, 48, 36
1, 254662, Poly_aftertouch_c, 0, 57, 127
1, 254672, Note_off_c, 0, 41, 40
1, 255853, Note_on_c, 0, 25, 38
1, 255936, Control_c, 0, 64, 100
1, 255951, Control_c, 0, 64, 82
1, 255966, Control_c, 0, 64, 70
1, 255980, Control_c, 0, 64, 63
1, 255995, Control_c, 0, 64, 60
1, 256025, Control_c, 0, 64, 62
1, 256040, Control_c, 0, 64, 66
1, 256055, Control_c, 0, 64, 73
1, 256070, Control_c, 0, 64, 87
1, 256085, Control_c, 0, 64, 127
1, 256165, Note_off_c, 0, 25, 40
1, 256193, Note_off_c, 0, 53, 1
1, 256319, Note_off_c, 0, 65, 34
1, 256396, Note_off_c, 0, 60, 34
1, 256398, Poly_aftertouch_c, 0, 57, 0
1, 256572, Note_on_c, 0, 32, 39
1, 256866, Note_on_c, 0, 37, 44
1, 257120, Note_on_c, 0, 44, 52
1, 257366, Note_on_c, 0, 53, 43
1, 257425, Note_off_c, 0, 32, 33
1, 257536, Note_off_c, 0, 37, 35
1, 257545, Note_off_c, 0, 44, 52
1, 257706, Note_on_c, 0, 56, 48
1, 258170, Note_on_c, 0, 61, 47
1, 259557, Note_on_c, 0, 65, 41
1, 262615, Note_off_c, 0, 53, 20
1, 263036, Note_off_c, 0, 65, 23
1, 263206, Note_off_c, 0, 56, 30
1, 263402, Note_off_c, 0, 61, 37
1, 263602, Control_c, 0, 67, 126
1, 263617, Control_c, 0, 67, 125
1, 263632, Control_c, 0, 67, 123
1, 263647, Control_c, 0, 67, 121
1, 263668, Control_c, 0, 67, 120
1, 263683, Control_c, 0, 67, 117
1, 263698, Control_c, 0, 67, 115
1, 263713, Control_c, 0, 67, 113
1, 263728, Control_c, 0, 67, 111
1, 263743, Control_c, 0, 67, 109
1, 263758, Control_c, 0, 67, 108
1, 263772, Control_c, 0, 67, 105
1, 263788, Control_c, 0, 67, 102
1, 263802, Control_c, 0, 67, 97
1, 263817, Control_c, 0, 67, 90
1, 263832, Control_c, 0, 67, 83
1, 263847, Control_c, 0, 67, 78
1, 263862, Control_c, 0, 67, 74
1, 263877, Control_c, 0, 67, 71
1, 263892, Control_c, 0, 67, 69
1, 263907, Control_c, 0, 67, 65
1, 263921, Control_c, 0, 67, 62
1, 263936, Control_c, 0, 67, 60
1, 263951, Control_c, 0, 67, 60
1, 264039, Control_c, 0, 67, 59
1, 264054, Control_c, 0, 67, 59
1, 264069, Control_c, 0, 67, 57
1, 264084, Control_c, 0, 67, 55
1, 264099, Control_c, 0, 67, 50
1, 264113, Control_c, 0, 67, 46
1, 264128, Control_c, 0, 67, 43
1, 264143, Control_c, 0, 67, 40
1, 264158, Control_c, 0, 67, 39
1, 264173, Control_c, 0, 67, 36
1, 264189, Control_c, 0, 67, 32
1, 264204, Control_c, 0, 67, 28
1, 264218, Control_c, 0, 67, 23
1, 264233, Control_c, 0, 67, 19
1, 264248, Control_c, 0, 67, 14
1, 264263, Control_c, 0, 67, 8
1, 264278, Control_c, 0, 67, 0
1, 264292, Control_c, 0, 64, 124
1, 264307, Control_c, 0, 64, 118
1, 264322, Control_c, 0, 64, 115
1, 264336, Control_c, 0, 64, 113
1, 264351, Control_c, 0, 64, 111
1, 264366, Control_c, 0, 64, 110
1, 264381, Control_c, 0, 64, 109
1, 264396, Control_c, 0, 64, 108
1, 264418, Control_c, 0, 64, 108
1, 264433, Control_c, 0, 64, 107
1, 264448, Control_c, 0, 64, 106
1, 264463, Control_c, 0, 64, 105
1, 264477, Control_c, 0, 64, 104
1, 264492, Control_c, 0, 64, 103
1, 264507, Control_c, 0, 64, 102
1, 264522, Control_c, 0, 64, 101
1, 264537, Control_c, 0, 64, 100
1, 264551, Control_c, 0, 64, 99
1, 264566, Control_c, 0, 64, 99
1, 264581, Control_c, 0, 64, 98
1, 264596, Control_c, 0, 64, 97
1, 264611, Control_c, 0, 64, 96
1, 264625, Control_c, 0, 64, 96
1, 264640, Control_c, 0, 64, 95
1, 264655, Control_c, 0, 64, 94
1, 264670, Control_c, 0, 64, 93
1, 264685, Control_c, 0, 64, 92
1, 264700, Control_c, 0, 64, 92
1, 264714, Control_c, 0, 64, 91
1, 264729, Control_c, 0, 64, 90
1, 264744, Control_c, 0, 64, 90
1, 264759, Control_c, 0, 64, 89
1, 264774, Control_c, 0, 64, 88
1, 264789, Control_c, 0, 64, 86
1, 264804, Control_c, 0, 64, 85
1, 264818, Control_c, 0, 64, 83
1, 264833, Control_c, 0, 64, 82
1, 264848, Control_c, 0, 64, 81
1, 264862, Control_c, 0, 64, 80
1, 264877, Control_c, 0, 64, 79
1, 264892, Control_c, 0, 64, 79
1, 264907, Control_c, 0, 64, 78
1, 264922, Control_c, 0, 64, 77
1, 264936, Control_c, 0, 64, 76
1, 264951, Control_c, 0, 64, 76
1, 264966, Control_c, 0, 64, 75
1, 264997, Control_c, 0, 64, 75
1, 265027, Control_c, 0, 64, 74
1, 265071, Control_c, 0, 64, 74
1, 265115, Control_c, 0, 64, 73
1, 265145, Control_c, 0, 64, 73
1, 265167, Control_c, 0, 64, 72
1, 265182, Control_c, 0, 64, 72
1, 265197, Control_c, 0, 64, 71
1, 265227, Control_c, 0, 64, 71
1, 265286, Control_c, 0, 64, 70
1, 265315, Control_c, 0, 64, 70
1, 265330, Control_c, 0, 64, 69
1, 265419, Control_c, 0, 64, 69
1, 265434, Control_c, 0, 64, 68
1, 265478, Control_c, 0, 64, 68
1, 265507, Control_c, 0, 64, 67
1, 265522, Control_c, 0, 64, 67
1, 265537, Control_c, 0, 64, 66
1, 265552, Control_c, 0, 64, 66
1, 265582, Control_c, 0, 64, 65
1, 265626, Control_c, 0, 64, 65
1, 265656, Control_c, 0, 64, 64
1, 265685, Control_c, 0, 64, 64
1, 265700, Control_c, 0, 64, 63
1, 265790, Control_c, 0, 64, 63
1, 265820, Control_c, 0, 64, 62
1, 265850, Control_c, 0, 64, 62
1, 265879, Control_c, 0, 64, 61
1, 265916, Control_c, 0, 64, 61
1, 265946, Control_c, 0, 64, 60
1, 265990, Control_c, 0, 64, 60
1, 266020, Control_c, 0, 64, 59
1, 266033, Control_c, 0, 64, 59
1, 266063, Control_c, 0, 64, 58
1, 266093, Control_c, 0, 64, 58
1, 266122, Control_c, 0, 64, 57
1, 266137, Control_c, 0, 64, 57
1, 266152, Control_c, 0, 64, 56
1, 266167, Control_c, 0, 64, 56
1, 266182, Control_c, 0, 64, 55
1, 266196, Control_c, 0, 64, 55
1, 266211, Control_c, 0, 64, 54
1, 266226, Control_c, 0, 64, 53
1, 266241, Control_c, 0, 64, 52
1, 266256, Control_c, 0, 64, 50
1, 266270, Control_c, 0, 64, 48
1, 266285, Control_c, 0, 64, 46
1, 266300, Control_c, 0, 64, 42
1, 266315, Control_c, 0, 64, 36
1, 266330, Control_c, 0, 64, 23
1, 266345, Control_c, 0, 64, 0
1, 266345, End_track
0, 0, End_of_file
