0, 0, Header, 0, 1, 384
1, 0, Start_track
1, 0, Title_t, "RachmaninovMomMusicOp16--Kim    "
1, 0, Text_t, "2011 ePiano Junior Competition"
1, 0, Text_t, "captured in spring and summer 2011"
1, 0, Text_t, "http://www.piano-e-competition.com/"
1, 0, Text_t, "standard-resolution version"
1, 0, Text_t, "File processed for distribution with software designed and coded by Dr. John Q. Walker, founder of Zenph Sound Innovations"
1, 0, Instrument_name_t, "Yamaha Disklavier Pro Mark IV concert grand piano, model DCFIIISM4PRO"
1, 0, Sequencer_specific, 39, 67, 113, 0, 1, 0, 1, 0, 82, 97, 99, 104, 109, 97, 110, 77, 111, 109, 101, 110, 116, 115, 49, 54, 83, 117, 89, 101, 111, 110, 32, 75, 105, 109, 32, 32, 32, 32, 32, 32
1, 0, Sequencer_specific, 6, 67, 113, 0, 0, 0, 69
1, 0, System_exclusive, 21, 67, 113, 126, 21, 0, 2, 2, 2, 5, 12, 8, 4, 14, 1, 4, 13, 0, 11, 13, 1, 247
1, 0, Sequencer_specific, 5, 67, 123, 12, 2, 1
1, 0, Tempo, 512820
1, 0, Time_signature, 4, 2, 24, 8
1, 0, System_exclusive, 5, 126, 127, 9, 1, 247
1, 1, System_exclusive, 8, 67, 16, 76, 0, 0, 126, 0, 247
1, 2, System_exclusive, 8, 67, 16, 76, 8, 9, 7, 1, 247
1, 3, Control_c, 0, 0, 108
1, 3, Control_c, 1, 0, 108
1, 3, Control_c, 2, 0, 0
1, 3, Control_c, 3, 0, 0
1, 3, Control_c, 4, 0, 0
1, 3, Control_c, 5, 0, 0
1, 3, Control_c, 6, 0, 0
1, 3, Control_c, 7, 0, 0
1, 3, Control_c, 8, 0, 0
1, 3, Control_c, 9, 0, 127
1, 3, Control_c, 10, 0, 0
1, 3, Control_c, 11, 0, 0
1, 3, Control_c, 12, 0, 0
1, 3, Control_c, 13, 0, 0
1, 3, Control_c, 14, 0, 0
1, 3, Control_c, 15, 0, 0
1, 4, Control_c, 0, 32, 0
1, 4, Control_c, 1, 32, 0
1, 4, Control_c, 2, 32, 0
1, 4, Control_c, 3, 32, 0
1, 4, Control_c, 4, 32, 0
1, 4, Control_c, 5, 32, 0
1, 4, Control_c, 6, 32, 0
1, 4, Control_c, 7, 32, 0
1, 4, Control_c, 8, 32, 0
1, 4, Control_c, 9, 32, 0
1, 4, Control_c, 10, 32, 0
1, 4, Control_c, 11, 32, 0
1, 4, Control_c, 12, 32, 0
1, 4, Control_c, 13, 32, 0
1, 4, Control_c, 14, 32, 0
1, 4, Control_c, 15, 32, 0
1, 5, Program_c, 0, 0
1, 5, Program_c, 1, 0
1, 5, Program_c, 2, 0
1, 5, Program_c, 3, 0
1, 5, Program_c, 4, 0
1, 5, Program_c, 5, 0
1, 5, Program_c, 6, 0
1, 5, Program_c, 7, 0
1, 5, Program_c, 8, 0
1, 5, Program_c, 9, 0
1, 5, Program_c, 10, 0
1, 5, Program_c, 11, 0
1, 5, Program_c, 12, 0
1, 5, Program_c, 13, 0
1, 5, Program_c, 14, 0
1, 5, Program_c, 15, 0
1, 6, Control_c, 0, 7, 100
1, 6, Control_c, 1, 7, 100
1, 6, Control_c, 2, 7, 100
1, 6, Control_c, 3, 7, 100
1, 6, Control_c, 4, 7, 100
1, 6, Control_c, 5, 7, 100
1, 6, Control_c, 6, 7, 100
1, 6, Control_c, 7, 7, 100
1, 6, Control_c, 8, 7, 100
1, 6, Control_c, 9, 7, 100
1, 6, Control_c, 10, 7, 100
1, 6, Control_c, 11, 7, 100
1, 6, Control_c, 12, 7, 100
1, 6, Control_c, 13, 7, 100
1, 6, Control_c, 14, 7, 100
1, 6, Control_c, 15, 7, 100
1, 42, Control_c, 0, 64, 15
1, 79, Control_c, 0, 64, 31
1, 116, Control_c, 0, 64, 46
1, 153, Control_c, 0, 64, 63
1, 190, Control_c, 0, 64, 77
1, 226, Control_c, 0, 64, 94
1, 263, Control_c, 0, 64, 108
1, 300, Control_c, 0, 64, 127
1, 386, Note_on_c, 0, 46, 33
1, 607, Note_off_c, 0, 46, 39
1, 1044, Note_on_c, 0, 53, 27
1, 1066, Note_on_c, 0, 61, 33
1, 1376, Note_on_c, 0, 63, 41
1, 1387, Note_on_c, 0, 58, 31
1, 1433, Note_off_c, 0, 61, 39
1, 1447, Note_off_c, 0, 53, 39
1, 1453, Note_off_c, 0, 63, 60
1, 1583, Note_on_c, 0, 65, 52
1, 1597, Note_on_c, 0, 61, 41
1, 1610, Note_off_c, 0, 58, 37
1, 1644, Note_off_c, 0, 65, 59
1, 1754, Note_off_c, 0, 61, 50
1, 1781, Note_on_c, 0, 63, 60
1, 1794, Note_on_c, 0, 58, 46
1, 1983, Note_on_c, 0, 61, 59
1, 1999, Note_on_c, 0, 53, 44
1, 2018, Note_off_c, 0, 63, 38
1, 2062, Note_off_c, 0, 58, 28
1, 2085, Note_off_c, 0, 53, 48
1, 2143, Note_off_c, 0, 61, 56
1, 2401, Note_on_c, 0, 61, 40
1, 2406, Note_on_c, 0, 53, 38
1, 2604, Note_on_c, 0, 63, 39
1, 2629, Note_on_c, 0, 58, 35
1, 2629, Note_off_c, 0, 53, 38
1, 2649, Note_off_c, 0, 61, 36
1, 2654, Note_off_c, 0, 63, 61
1, 2817, Note_on_c, 0, 61, 36
1, 2818, Note_on_c, 0, 65, 44
1, 2823, Note_off_c, 0, 58, 42
1, 2863, Note_off_c, 0, 65, 60
1, 2964, Note_off_c, 0, 61, 53
1, 3025, Note_on_c, 0, 63, 42
1, 3031, Note_on_c, 0, 58, 32
1, 3137, Note_off_c, 0, 63, 40
1, 3241, Note_on_c, 0, 53, 40
1, 3258, Note_on_c, 0, 61, 39
1, 3292, Note_off_c, 0, 58, 37
1, 3302, Note_off_c, 0, 61, 61
1, 3336, Note_off_c, 0, 53, 60
1, 3582, Control_c, 0, 64, 95
1, 3596, Control_c, 0, 64, 76
1, 3611, Note_on_c, 0, 34, 43
1, 3611, Control_c, 0, 64, 64
1, 3626, Control_c, 0, 64, 51
1, 3641, Control_c, 0, 64, 39
1, 3656, Control_c, 0, 64, 39
1, 3671, Control_c, 0, 64, 40
1, 3686, Control_c, 0, 64, 50
1, 3701, Control_c, 0, 64, 59
1, 3716, Control_c, 0, 64, 66
1, 3731, Control_c, 0, 64, 72
1, 3745, Control_c, 0, 64, 85
1, 3760, Control_c, 0, 64, 113
1, 3775, Control_c, 0, 64, 127
1, 3781, Note_off_c, 0, 34, 41
1, 4154, Note_on_c, 0, 53, 36
1, 4165, Note_on_c, 0, 61, 28
1, 4276, Note_on_c, 0, 73, 53
1, 4398, Note_off_c, 0, 53, 36
1, 4429, Note_on_c, 0, 63, 32
1, 4446, Note_on_c, 0, 58, 24
1, 4488, Note_off_c, 0, 61, 35
1, 4506, Note_off_c, 0, 63, 54
1, 4650, Note_off_c, 0, 58, 38
1, 4661, Note_on_c, 0, 61, 31
1, 4664, Note_on_c, 0, 65, 49
1, 4821, Note_off_c, 0, 73, 53
1, 4892, Note_off_c, 0, 61, 37
1, 4901, Note_on_c, 0, 58, 33
1, 4909, Note_on_c, 0, 63, 32
1, 4992, Note_on_c, 0, 67, 63
1, 5050, Note_off_c, 0, 65, 62
1, 5118, Note_on_c, 0, 53, 43
1, 5124, Note_on_c, 0, 61, 42
1, 5146, Note_off_c, 0, 63, 32
1, 5164, Note_off_c, 0, 58, 32
1, 5165, Note_off_c, 0, 53, 58
1, 5177, Note_off_c, 0, 61, 58
1, 5259, Note_on_c, 0, 69, 72
1, 5303, Control_c, 0, 64, 119
1, 5317, Control_c, 0, 64, 104
1, 5332, Control_c, 0, 64, 96
1, 5346, Note_off_c, 0, 67, 61
1, 5347, Control_c, 0, 64, 91
1, 5362, Control_c, 0, 64, 86
1, 5377, Control_c, 0, 64, 82
1, 5391, Control_c, 0, 64, 76
1, 5406, Control_c, 0, 64, 71
1, 5421, Control_c, 0, 64, 66
1, 5436, Note_on_c, 0, 58, 42
1, 5436, Control_c, 0, 64, 64
1, 5440, Note_on_c, 0, 64, 51
1, 5451, Control_c, 0, 64, 63
1, 5480, Control_c, 0, 64, 64
1, 5495, Control_c, 0, 64, 64
1, 5510, Control_c, 0, 64, 65
1, 5516, Note_on_c, 0, 70, 80
1, 5525, Control_c, 0, 64, 66
1, 5540, Control_c, 0, 64, 69
1, 5555, Control_c, 0, 64, 73
1, 5569, Control_c, 0, 64, 80
1, 5585, Control_c, 0, 64, 88
1, 5599, Note_off_c, 0, 64, 61
1, 5600, Note_on_c, 0, 65, 58
1, 5600, Control_c, 0, 64, 99
1, 5615, Note_on_c, 0, 61, 50
1, 5615, Control_c, 0, 64, 117
1, 5629, Control_c, 0, 64, 127
1, 5671, Note_off_c, 0, 58, 27
1, 5728, Note_off_c, 0, 69, 52
1, 5745, Note_on_c, 0, 63, 57
1, 5751, Note_off_c, 0, 65, 60
1, 5752, Note_off_c, 0, 61, 50
1, 5753, Note_on_c, 0, 66, 63
1, 5897, Note_off_c, 0, 66, 61
1, 5904, Note_on_c, 0, 61, 62
1, 5910, Note_off_c, 0, 63, 57
1, 5913, Note_on_c, 0, 65, 50
1, 5937, Note_off_c, 0, 61, 65
1, 6024, Note_on_c, 0, 72, 79
1, 6061, Note_off_c, 0, 65, 57
1, 6074, Note_on_c, 0, 63, 55
1, 6081, Note_on_c, 0, 53, 56
1, 6116, Note_off_c, 0, 63, 64
1, 6136, Note_off_c, 0, 53, 64
1, 6152, Note_off_c, 0, 70, 59
1, 6244, Control_c, 0, 64, 108
1, 6258, Control_c, 0, 64, 84
1, 6270, Note_on_c, 0, 46, 66
1, 6273, Control_c, 0, 64, 68
1, 6288, Control_c, 0, 64, 53
1, 6303, Control_c, 0, 64, 49
1, 6318, Control_c, 0, 64, 55
1, 6333, Control_c, 0, 64, 60
1, 6348, Control_c, 0, 64, 66
1, 6363, Control_c, 0, 64, 75
1, 6378, Control_c, 0, 64, 100
1, 6393, Control_c, 0, 64, 127
1, 6396, Note_off_c, 0, 46, 63
1, 6543, Note_on_c, 0, 61, 44
1, 6546, Note_on_c, 0, 53, 45
1, 6604, Note_on_c, 0, 73, 79
1, 6653, Note_off_c, 0, 53, 48
1, 6700, Note_on_c, 0, 57, 53
1, 6707, Note_on_c, 0, 65, 61
1, 6721, Note_off_c, 0, 61, 50
1, 6746, Note_off_c, 0, 57, 64
1, 6813, Note_off_c, 0, 72, 45
1, 6845, Note_on_c, 0, 75, 84
1, 6858, Note_off_c, 0, 65, 61
1, 6858, Note_on_c, 0, 58, 58
1, 6870, Note_on_c, 0, 66, 59
1, 6938, Note_off_c, 0, 73, 62
1, 7025, Note_on_c, 0, 69, 77
1, 7039, Note_off_c, 0, 66, 58
1, 7042, Note_on_c, 0, 60, 59
1, 7074, Note_off_c, 0, 58, 58
1, 7097, Note_on_c, 0, 76, 95
1, 7101, Note_off_c, 0, 69, 61
1, 7155, Note_off_c, 0, 75, 61
1, 7203, Note_on_c, 0, 70, 77
1, 7218, Note_on_c, 0, 61, 62
1, 7224, Note_off_c, 0, 60, 65
1, 7334, Note_off_c, 0, 61, 59
1, 7365, Note_on_c, 0, 77, 87
1, 7401, Control_c, 0, 64, 109
1, 7410, Note_off_c, 0, 70, 55
1, 7416, Control_c, 0, 64, 99
1, 7431, Control_c, 0, 64, 93
1, 7445, Control_c, 0, 64, 90
1, 7460, Control_c, 0, 64, 86
1, 7475, Control_c, 0, 64, 81
1, 7489, Control_c, 0, 64, 77
1, 7504, Control_c, 0, 64, 73
1, 7506, Note_off_c, 0, 76, 53
1, 7519, Control_c, 0, 64, 72
1, 7534, Control_c, 0, 64, 70
1, 7549, Control_c, 0, 64, 69
1, 7564, Control_c, 0, 64, 66
1, 7579, Control_c, 0, 64, 63
1, 7585, Note_on_c, 0, 61, 49
1, 7588, Note_on_c, 0, 70, 55
1, 7593, Control_c, 0, 64, 59
1, 7608, Control_c, 0, 64, 59
1, 7637, Control_c, 0, 64, 59
1, 7652, Control_c, 0, 64, 60
1, 7667, Control_c, 0, 64, 61
1, 7677, Note_on_c, 0, 78, 81
1, 7682, Control_c, 0, 64, 62
1, 7697, Control_c, 0, 64, 64
1, 7711, Control_c, 0, 64, 67
1, 7726, Control_c, 0, 64, 70
1, 7741, Control_c, 0, 64, 76
1, 7756, Control_c, 0, 64, 84
1, 7760, Note_on_c, 0, 72, 65
1, 7771, Control_c, 0, 64, 96
1, 7777, Note_on_c, 0, 63, 55
1, 7785, Control_c, 0, 64, 115
1, 7800, Control_c, 0, 64, 127
1, 7815, Note_off_c, 0, 72, 64
1, 7830, Note_off_c, 0, 61, 29
1, 7836, Note_off_c, 0, 70, 56
1, 7897, Note_off_c, 0, 77, 53
1, 7922, Note_on_c, 0, 73, 68
1, 7930, Note_on_c, 0, 65, 58
1, 7957, Note_off_c, 0, 63, 50
1, 8046, Note_off_c, 0, 73, 62
1, 8119, Note_on_c, 0, 72, 57
1, 8121, Note_on_c, 0, 63, 48
1, 8121, Note_off_c, 0, 65, 54
1, 8199, Note_off_c, 0, 72, 54
1, 8231, Note_on_c, 0, 77, 72
1, 8314, Note_on_c, 0, 61, 47
1, 8319, Note_on_c, 0, 70, 55
1, 8352, Note_off_c, 0, 70, 67
1, 8356, Note_off_c, 0, 63, 37
1, 8390, Note_off_c, 0, 61, 62
1, 8399, Note_off_c, 0, 78, 60
1, 8580, Control_c, 0, 64, 98
1, 8595, Note_on_c, 0, 34, 56
1, 8595, Control_c, 0, 64, 75
1, 8609, Control_c, 0, 64, 61
1, 8624, Control_c, 0, 64, 42
1, 8639, Control_c, 0, 64, 48
1, 8653, Control_c, 0, 64, 55
1, 8668, Control_c, 0, 64, 63
1, 8683, Control_c, 0, 64, 72
1, 8698, Control_c, 0, 64, 91
1, 8703, Note_off_c, 0, 34, 61
1, 8713, Control_c, 0, 64, 127
1, 8913, Note_on_c, 0, 54, 36
1, 8920, Note_on_c, 0, 63, 39
1, 8995, Note_on_c, 0, 75, 67
1, 9078, Note_on_c, 0, 65, 53
1, 9096, Note_on_c, 0, 56, 41
1, 9121, Note_off_c, 0, 65, 62
1, 9129, Note_off_c, 0, 54, 40
1, 9171, Note_off_c, 0, 63, 34
1, 9265, Note_on_c, 0, 66, 49
1, 9268, Note_on_c, 0, 73, 83
1, 9274, Note_on_c, 0, 58, 44
1, 9339, Note_off_c, 0, 56, 28
1, 9377, Note_off_c, 0, 66, 60
1, 9434, Note_on_c, 0, 65, 50
1, 9436, Note_on_c, 0, 56, 49
1, 9507, Note_off_c, 0, 58, 31
1, 9522, Note_on_c, 0, 72, 89
1, 9556, Note_off_c, 0, 77, 31
1, 9571, Note_off_c, 0, 65, 49
1, 9590, Note_off_c, 0, 75, 36
1, 9598, Note_off_c, 0, 73, 60
1, 9599, Note_off_c, 0, 56, 51
1, 9617, Note_on_c, 0, 63, 51
1, 9620, Note_on_c, 0, 54, 56
1, 9684, Note_off_c, 0, 54, 59
1, 9707, Note_off_c, 0, 63, 60
1, 9765, Control_c, 0, 64, 105
1, 9777, Note_on_c, 0, 75, 77
1, 9779, Control_c, 0, 64, 96
1, 9794, Control_c, 0, 64, 91
1, 9809, Control_c, 0, 64, 86
1, 9824, Control_c, 0, 64, 79
1, 9839, Control_c, 0, 64, 71
1, 9853, Control_c, 0, 64, 63
1, 9868, Control_c, 0, 64, 58
1, 9898, Control_c, 0, 64, 59
1, 9913, Control_c, 0, 64, 60
1, 9928, Control_c, 0, 64, 63
1, 9933, Note_on_c, 0, 58, 41
1, 9943, Control_c, 0, 64, 64
1, 9946, Note_on_c, 0, 66, 42
1, 9958, Control_c, 0, 64, 68
1, 9973, Control_c, 0, 64, 73
1, 9987, Control_c, 0, 64, 82
1, 10002, Control_c, 0, 64, 95
1, 10017, Control_c, 0, 64, 127
1, 10047, Note_off_c, 0, 72, 50
1, 10049, Note_off_c, 0, 58, 53
1, 10066, Note_on_c, 0, 77, 75
1, 10132, Note_off_c, 0, 66, 54
1, 10141, Note_on_c, 0, 65, 50
1, 10142, Note_on_c, 0, 68, 51
1, 10181, Note_off_c, 0, 68, 63
1, 10195, Note_off_c, 0, 75, 57
1, 10292, Note_off_c, 0, 65, 55
1, 10298, Note_on_c, 0, 70, 53
1, 10309, Note_on_c, 0, 66, 44
1, 10352, Note_off_c, 0, 70, 59
1, 10453, Note_off_c, 0, 66, 52
1, 10468, Note_on_c, 0, 65, 41
1, 10478, Note_on_c, 0, 68, 45
1, 10554, Note_on_c, 0, 75, 67
1, 10607, Note_off_c, 0, 68, 35
1, 10630, Note_off_c, 0, 65, 36
1, 10634, Note_on_c, 0, 66, 43
1, 10637, Note_on_c, 0, 58, 47
1, 10662, Note_off_c, 0, 66, 60
1, 10673, Note_off_c, 0, 58, 65
1, 10733, Note_off_c, 0, 77, 53
1, 10766, Control_c, 0, 64, 100
1, 10780, Control_c, 0, 64, 81
1, 10795, Control_c, 0, 64, 67
1, 10810, Control_c, 0, 64, 53
1, 10825, Control_c, 0, 64, 44
1, 10830, Note_on_c, 0, 46, 47
1, 10840, Control_c, 0, 64, 49
1, 10854, Control_c, 0, 64, 55
1, 10869, Control_c, 0, 64, 62
1, 10884, Control_c, 0, 64, 68
1, 10899, Control_c, 0, 64, 79
1, 10907, Note_off_c, 0, 46, 63
1, 10914, Control_c, 0, 64, 100
1, 10928, Control_c, 0, 64, 127
1, 11061, Note_on_c, 0, 63, 41
1, 11067, Note_on_c, 0, 54, 42
1, 11129, Note_on_c, 0, 73, 62
1, 11195, Note_off_c, 0, 54, 0
1, 11199, Note_on_c, 0, 65, 48
1, 11227, Note_on_c, 0, 56, 43
1, 11244, Note_off_c, 0, 65, 62
1, 11248, Poly_aftertouch_c, 0, 54, 0
1, 11280, Note_off_c, 0, 63, 33
1, 11389, Note_on_c, 0, 66, 45
1, 11391, Note_on_c, 0, 58, 46
1, 11392, Note_on_c, 0, 72, 72
1, 11415, Note_off_c, 0, 56, 33
1, 11504, Note_off_c, 0, 66, 52
1, 11524, Note_off_c, 0, 73, 55
1, 11555, Note_on_c, 0, 65, 47
1, 11567, Note_on_c, 0, 56, 46
1, 11613, Note_off_c, 0, 75, 27
1, 11652, Note_on_c, 0, 70, 72
1, 11664, Note_off_c, 0, 58, 25
1, 11722, Note_off_c, 0, 65, 32
1, 11735, Note_on_c, 0, 63, 38
1, 11746, Note_on_c, 0, 54, 41
1, 11746, Note_off_c, 0, 72, 58
1, 11800, Note_off_c, 0, 56, 26
1, 11836, Note_off_c, 0, 54, 55
1, 11844, Note_off_c, 0, 63, 56
1, 11848, Control_c, 0, 64, 122
1, 11862, Control_c, 0, 64, 112
1, 11877, Control_c, 0, 64, 103
1, 11892, Control_c, 0, 64, 97
1, 11907, Control_c, 0, 64, 92
1, 11922, Control_c, 0, 64, 87
1, 11933, Note_on_c, 0, 73, 54
1, 11937, Control_c, 0, 64, 83
1, 11952, Control_c, 0, 64, 79
1, 11967, Control_c, 0, 64, 76
1, 11982, Control_c, 0, 64, 73
1, 11997, Control_c, 0, 64, 71
1, 12012, Control_c, 0, 64, 67
1, 12027, Control_c, 0, 64, 64
1, 12042, Control_c, 0, 64, 61
1, 12056, Control_c, 0, 64, 57
1, 12067, Note_off_c, 0, 70, 53
1, 12071, Control_c, 0, 64, 55
1, 12086, Control_c, 0, 64, 55
1, 12101, Control_c, 0, 64, 57
1, 12116, Control_c, 0, 64, 59
1, 12126, Note_on_c, 0, 57, 42
1, 12131, Control_c, 0, 64, 62
1, 12134, Note_on_c, 0, 66, 35
1, 12146, Control_c, 0, 64, 65
1, 12161, Control_c, 0, 64, 70
1, 12175, Control_c, 0, 64, 76
1, 12190, Control_c, 0, 64, 85
1, 12191, Note_off_c, 0, 57, 60
1, 12205, Control_c, 0, 64, 96
1, 12220, Control_c, 0, 64, 112
1, 12235, Control_c, 0, 64, 127
1, 12247, Note_on_c, 0, 75, 48
1, 12315, Note_on_c, 0, 68, 51
1, 12328, Note_on_c, 0, 63, 40
1, 12358, Note_off_c, 0, 66, 33
1, 12375, Note_off_c, 0, 73, 53
1, 12403, Note_off_c, 0, 68, 57
1, 12505, Note_on_c, 0, 66, 38
1, 12509, Note_on_c, 0, 69, 44
1, 12541, Note_off_c, 0, 63, 27
1, 12558, Note_off_c, 0, 69, 62
1, 12592, Note_off_c, 0, 66, 53
1, 12716, Note_on_c, 0, 63, 24
1, 12736, Note_on_c, 0, 68, 32
1, 12836, Note_off_c, 0, 68, 33
1, 12857, Note_on_c, 0, 73, 40
1, 12962, Note_on_c, 0, 57, 33
1, 12990, Note_on_c, 0, 66, 34
1, 12990, Note_off_c, 0, 63, 34
1, 13037, Note_off_c, 0, 66, 55
1, 13073, Note_off_c, 0, 57, 59
1, 13148, Note_off_c, 0, 75, 26
1, 13264, Control_c, 0, 64, 119
1, 13287, Control_c, 0, 64, 108
1, 13302, Control_c, 0, 64, 98
1, 13313, Note_on_c, 0, 34, 44
1, 13317, Control_c, 0, 64, 84
1, 13318, Note_off_c, 0, 73, 33
1, 13331, Control_c, 0, 64, 70
1, 13346, Control_c, 0, 64, 59
1, 13361, Control_c, 0, 64, 41
1, 13376, Control_c, 0, 64, 46
1, 13391, Control_c, 0, 64, 52
1, 13405, Control_c, 0, 64, 58
1, 13420, Control_c, 0, 64, 65
1, 13431, Note_off_c, 0, 34, 55
1, 13435, Control_c, 0, 64, 73
1, 13448, Control_c, 0, 64, 89
1, 13463, Control_c, 0, 64, 127
1, 13677, Note_on_c, 0, 53, 33
1, 13690, Note_on_c, 0, 61, 27
1, 13740, Note_on_c, 0, 72, 54
1, 13857, Note_on_c, 0, 63, 42
1, 13868, Note_off_c, 0, 53, 38
1, 13874, Note_on_c, 0, 58, 33
1, 13911, Note_off_c, 0, 61, 37
1, 13919, Note_off_c, 0, 63, 56
1, 14059, Note_on_c, 0, 65, 37
1, 14063, Note_on_c, 0, 61, 41
1, 14080, Note_on_c, 0, 70, 61
1, 14083, Note_off_c, 0, 58, 40
1, 14120, Note_off_c, 0, 65, 60
1, 14266, Note_on_c, 0, 58, 37
1, 14280, Note_on_c, 0, 63, 41
1, 14282, Note_off_c, 0, 61, 37
1, 14344, Note_on_c, 0, 67, 68
1, 14447, Note_on_c, 0, 61, 49
1, 14454, Note_on_c, 0, 53, 47
1, 14501, Note_off_c, 0, 53, 59
1, 14524, Note_off_c, 0, 72, 30
1, 14527, Note_off_c, 0, 61, 60
1, 14530, Note_off_c, 0, 58, 30
1, 14566, Note_off_c, 0, 63, 23
1, 14586, Note_on_c, 0, 69, 77
1, 14590, Note_off_c, 0, 70, 28
1, 14673, Control_c, 0, 64, 120
1, 14678, Note_off_c, 0, 67, 60
1, 14688, Control_c, 0, 64, 104
1, 14702, Control_c, 0, 64, 99
1, 14717, Control_c, 0, 64, 96
1, 14732, Control_c, 0, 64, 93
1, 14747, Control_c, 0, 64, 88
1, 14761, Note_on_c, 0, 58, 51
1, 14762, Control_c, 0, 64, 81
1, 14763, Note_on_c, 0, 64, 52
1, 14784, Control_c, 0, 64, 75
1, 14799, Control_c, 0, 64, 71
1, 14814, Control_c, 0, 64, 68
1, 14828, Control_c, 0, 64, 67
1, 14845, Note_on_c, 0, 70, 81
1, 14858, Control_c, 0, 64, 68
1, 14873, Control_c, 0, 64, 69
1, 14888, Control_c, 0, 64, 71
1, 14902, Control_c, 0, 64, 74
1, 14917, Control_c, 0, 64, 80
1, 14932, Control_c, 0, 64, 91
1, 14933, Note_on_c, 0, 65, 62
1, 14935, Note_off_c, 0, 58, 54
1, 14940, Note_on_c, 0, 61, 62
1, 14940, Note_off_c, 0, 64, 62
1, 14947, Control_c, 0, 64, 127
1, 15067, Note_off_c, 0, 69, 29
1, 15075, Note_on_c, 0, 66, 69
1, 15076, Note_on_c, 0, 63, 63
1, 15082, Note_off_c, 0, 65, 60
1, 15095, Note_off_c, 0, 61, 51
1, 15219, Note_on_c, 0, 65, 59
1, 15221, Note_off_c, 0, 66, 61
1, 15225, Note_on_c, 0, 61, 70
1, 15231, Note_off_c, 0, 63, 61
1, 15262, Note_off_c, 0, 61, 64
1, 15316, Note_on_c, 0, 72, 87
1, 15371, Note_off_c, 0, 65, 55
1, 15386, Note_on_c, 0, 63, 60
1, 15389, Note_on_c, 0, 53, 66
1, 15422, Note_off_c, 0, 63, 63
1, 15438, Note_off_c, 0, 70, 61
1, 15440, Note_off_c, 0, 53, 63
1, 15562, Control_c, 0, 64, 109
1, 15565, Note_on_c, 0, 46, 73
1, 15577, Control_c, 0, 64, 77
1, 15592, Control_c, 0, 64, 60
1, 15607, Control_c, 0, 64, 37
1, 15621, Control_c, 0, 64, 44
1, 15636, Control_c, 0, 64, 49
1, 15651, Control_c, 0, 64, 58
1, 15666, Control_c, 0, 64, 67
1, 15681, Control_c, 0, 64, 80
1, 15693, Note_off_c, 0, 46, 62
1, 15696, Control_c, 0, 64, 127
1, 15820, Note_on_c, 0, 61, 54
1, 15827, Note_on_c, 0, 53, 53
1, 15897, Note_on_c, 0, 73, 87
1, 15932, Note_off_c, 0, 53, 55
1, 15985, Note_on_c, 0, 57, 57
1, 15992, Note_on_c, 0, 65, 65
1, 16001, Note_off_c, 0, 61, 60
1, 16033, Note_off_c, 0, 57, 62
1, 16060, Note_off_c, 0, 72, 53
1, 16125, Note_on_c, 0, 75, 91
1, 16137, Note_on_c, 0, 58, 66
1, 16143, Note_off_c, 0, 65, 61
1, 16146, Note_on_c, 0, 66, 65
1, 16192, Note_off_c, 0, 73, 62
1, 16307, Note_on_c, 0, 69, 79
1, 16315, Note_on_c, 0, 60, 70
1, 16323, Note_off_c, 0, 66, 61
1, 16354, Note_off_c, 0, 58, 62
1, 16368, Note_on_c, 0, 76, 97
1, 16372, Note_off_c, 0, 69, 54
1, 16405, Note_off_c, 0, 75, 64
1, 16474, Note_on_c, 0, 70, 82
1, 16486, Note_on_c, 0, 61, 69
1, 16507, Note_off_c, 0, 60, 57
1, 16593, Note_off_c, 0, 61, 58
1, 16628, Note_on_c, 0, 77, 92
1, 16668, Note_off_c, 0, 70, 57
1, 16712, Control_c, 0, 64, 109
1, 16727, Control_c, 0, 64, 97
1, 16741, Control_c, 0, 64, 90
1, 16756, Control_c, 0, 64, 86
1, 16760, Note_off_c, 0, 76, 56
1, 16772, Control_c, 0, 64, 84
1, 16787, Control_c, 0, 64, 80
1, 16802, Control_c, 0, 64, 77
1, 16817, Control_c, 0, 64, 75
1, 16832, Control_c, 0, 64, 73
1, 16846, Control_c, 0, 64, 72
1, 16860, Note_on_c, 0, 61, 54
1, 16861, Note_on_c, 0, 70, 65
1, 16861, Control_c, 0, 64, 70
1, 16876, Control_c, 0, 64, 67
1, 16891, Control_c, 0, 64, 64
1, 16906, Control_c, 0, 64, 61
1, 16920, Control_c, 0, 64, 61
1, 16948, Note_on_c, 0, 78, 91
1, 16964, Control_c, 0, 64, 62
1, 16979, Control_c, 0, 64, 63
1, 16994, Control_c, 0, 64, 65
1, 17009, Control_c, 0, 64, 67
1, 17031, Control_c, 0, 64, 72
1, 17046, Control_c, 0, 64, 81
1, 17054, Note_on_c, 0, 72, 71
1, 17061, Control_c, 0, 64, 97
1, 17062, Note_on_c, 0, 63, 61
1, 17076, Control_c, 0, 64, 127
1, 17109, Note_off_c, 0, 61, 52
1, 17121, Note_off_c, 0, 72, 62
1, 17138, Note_off_c, 0, 70, 59
1, 17160, Note_off_c, 0, 77, 52
1, 17216, Note_on_c, 0, 73, 76
1, 17222, Note_on_c, 0, 65, 65
1, 17267, Note_off_c, 0, 63, 56
1, 17321, Note_off_c, 0, 73, 63
1, 17384, Note_on_c, 0, 72, 75
1, 17392, Note_on_c, 0, 63, 65
1, 17410, Note_off_c, 0, 65, 53
1, 17473, Note_off_c, 0, 72, 56
1, 17495, Note_on_c, 0, 77, 83
1, 17579, Note_on_c, 0, 61, 70
1, 17580, Note_on_c, 0, 70, 71
1, 17586, Note_off_c, 0, 63, 58
1, 17612, Note_off_c, 0, 70, 65
1, 17628, Note_off_c, 0, 78, 62
1, 17657, Note_off_c, 0, 61, 62
1, 17854, Control_c, 0, 64, 99
1, 17865, Note_on_c, 0, 37, 72
1, 17869, Control_c, 0, 64, 76
1, 17884, Control_c, 0, 64, 61
1, 17899, Control_c, 0, 64, 30
1, 17914, Control_c, 0, 64, 0
1, 17928, Control_c, 0, 64, 20
1, 17942, Control_c, 0, 64, 41
1, 17957, Control_c, 0, 64, 59
1, 17972, Control_c, 0, 64, 69
1, 17987, Control_c, 0, 64, 82
1, 18001, Control_c, 0, 64, 127
1, 18002, Note_off_c, 0, 37, 59
1, 18176, Note_on_c, 0, 63, 50
1, 18189, Note_on_c, 0, 54, 46
1, 18269, Note_on_c, 0, 75, 75
1, 18356, Note_on_c, 0, 65, 55
1, 18378, Note_on_c, 0, 56, 46
1, 18407, Note_off_c, 0, 65, 61
1, 18420, Note_off_c, 0, 63, 50
1, 18429, Note_off_c, 0, 54, 28
1, 18530, Note_on_c, 0, 73, 86
1, 18542, Note_on_c, 0, 66, 52
1, 18552, Note_on_c, 0, 58, 50
1, 18593, Note_off_c, 0, 56, 36
1, 18644, Note_off_c, 0, 66, 59
1, 18691, Note_off_c, 0, 77, 57
1, 18698, Note_on_c, 0, 65, 60
1, 18713, Note_on_c, 0, 56, 57
1, 18768, Note_on_c, 0, 72, 91
1, 18793, Note_off_c, 0, 75, 30
1, 18820, Note_off_c, 0, 73, 61
1, 18829, Note_off_c, 0, 58, 27
1, 18830, Note_off_c, 0, 65, 52
1, 18857, Note_on_c, 0, 54, 63
1, 18857, Note_on_c, 0, 63, 62
1, 18897, Note_off_c, 0, 56, 36
1, 18935, Note_off_c, 0, 54, 62
1, 18942, Note_off_c, 0, 63, 61
1, 19009, Note_on_c, 0, 75, 82
1, 19061, Control_c, 0, 64, 106
1, 19076, Control_c, 0, 64, 98
1, 19091, Control_c, 0, 64, 95
1, 19106, Control_c, 0, 64, 93
1, 19121, Control_c, 0, 64, 89
1, 19136, Control_c, 0, 64, 81
1, 19151, Control_c, 0, 64, 74
1, 19166, Control_c, 0, 64, 69
1, 19171, Note_on_c, 0, 56, 46
1, 19181, Control_c, 0, 64, 64
1, 19186, Note_on_c, 0, 66, 48
1, 19196, Control_c, 0, 64, 62
1, 19211, Control_c, 0, 64, 63
1, 19226, Control_c, 0, 64, 64
1, 19240, Control_c, 0, 64, 64
1, 19255, Control_c, 0, 64, 65
1, 19266, Note_off_c, 0, 72, 50
1, 19278, Control_c, 0, 64, 67
1, 19293, Control_c, 0, 64, 71
1, 19298, Note_on_c, 0, 77, 82
1, 19308, Control_c, 0, 64, 77
1, 19322, Control_c, 0, 64, 89
1, 19337, Control_c, 0, 64, 105
1, 19352, Control_c, 0, 64, 127
1, 19368, Note_off_c, 0, 56, 35
1, 19383, Note_on_c, 0, 68, 59
1, 19388, Note_on_c, 0, 60, 50
1, 19423, Note_off_c, 0, 66, 50
1, 19428, Note_off_c, 0, 75, 56
1, 19435, Note_off_c, 0, 68, 60
1, 19513, Note_off_c, 0, 60, 54
1, 19535, Note_on_c, 0, 70, 61
1, 19544, Note_on_c, 0, 66, 45
1, 19596, Note_off_c, 0, 70, 62
1, 19685, Note_off_c, 0, 66, 56
1, 19700, Note_on_c, 0, 68, 54
1, 19718, Note_on_c, 0, 60, 46
1, 19748, Note_off_c, 0, 68, 54
1, 19820, Note_on_c, 0, 75, 69
1, 19896, Note_on_c, 0, 56, 45
1, 19896, Note_on_c, 0, 66, 53
1, 19929, Note_off_c, 0, 66, 63
1, 19945, Note_off_c, 0, 56, 63
1, 19946, Note_off_c, 0, 60, 35
1, 20039, Note_off_c, 0, 77, 56
1, 20102, Control_c, 0, 64, 90
1, 20116, Control_c, 0, 64, 72
1, 20130, Note_on_c, 0, 37, 53
1, 20131, Control_c, 0, 64, 59
1, 20146, Control_c, 0, 64, 44
1, 20161, Control_c, 0, 64, 54
1, 20176, Control_c, 0, 64, 61
1, 20189, Control_c, 0, 64, 68
1, 20203, Control_c, 0, 64, 78
1, 20218, Control_c, 0, 64, 101
1, 20221, Note_off_c, 0, 37, 60
1, 20233, Control_c, 0, 64, 127
1, 20400, Note_on_c, 0, 61, 41
1, 20414, Note_on_c, 0, 58, 31
1, 20482, Note_on_c, 0, 73, 60
1, 20520, Note_off_c, 0, 61, 52
1, 20564, Note_on_c, 0, 56, 37
1, 20571, Note_on_c, 0, 63, 43
1, 20704, Note_off_c, 0, 56, 35
1, 20705, Note_off_c, 0, 63, 50
1, 20721, Note_on_c, 0, 65, 45
1, 20724, Note_on_c, 0, 61, 37
1, 20730, Note_on_c, 0, 72, 72
1, 20842, Note_off_c, 0, 73, 55
1, 20910, Note_off_c, 0, 65, 49
1, 20919, Note_off_c, 0, 75, 14
1, 20920, Note_off_c, 0, 61, 43
1, 20927, Note_on_c, 0, 63, 36
1, 20929, Note_on_c, 0, 56, 38
1, 20994, Note_on_c, 0, 70, 72
1, 21079, Note_off_c, 0, 72, 56
1, 21093, Note_off_c, 0, 56, 39
1, 21108, Note_on_c, 0, 65, 43
1, 21124, Note_on_c, 0, 61, 37
1, 21166, Note_off_c, 0, 58, 23
1, 21184, Note_off_c, 0, 63, 29
1, 21190, Control_c, 0, 64, 117
1, 21205, Control_c, 0, 64, 106
1, 21219, Control_c, 0, 64, 98
1, 21234, Control_c, 0, 64, 93
1, 21244, Note_off_c, 0, 65, 34
1, 21249, Control_c, 0, 64, 89
1, 21258, Note_on_c, 0, 73, 54
1, 21264, Control_c, 0, 64, 87
1, 21279, Control_c, 0, 64, 85
1, 21293, Control_c, 0, 64, 81
1, 21308, Control_c, 0, 64, 76
1, 21323, Control_c, 0, 64, 70
1, 21337, Control_c, 0, 64, 65
1, 21352, Control_c, 0, 64, 61
1, 21358, Note_off_c, 0, 70, 54
1, 21367, Control_c, 0, 64, 57
1, 21382, Control_c, 0, 64, 56
1, 21383, Note_off_c, 0, 61, 29
1, 21397, Control_c, 0, 64, 56
1, 21411, Control_c, 0, 64, 58
1, 21426, Control_c, 0, 64, 59
1, 21441, Control_c, 0, 64, 61
1, 21456, Control_c, 0, 64, 64
1, 21458, Note_on_c, 0, 56, 36
1, 21466, Note_on_c, 0, 65, 39
1, 21471, Control_c, 0, 64, 69
1, 21485, Control_c, 0, 64, 76
1, 21500, Control_c, 0, 64, 87
1, 21513, Note_off_c, 0, 65, 64
1, 21523, Control_c, 0, 64, 102
1, 21537, Control_c, 0, 64, 127
1, 21539, Note_off_c, 0, 56, 55
1, 21559, Note_on_c, 0, 75, 48
1, 21664, Note_on_c, 0, 66, 44
1, 21665, Note_on_c, 0, 63, 37
1, 21676, Note_off_c, 0, 73, 56
1, 21694, Note_off_c, 0, 66, 60
1, 21825, Note_on_c, 0, 65, 38
1, 21837, Note_on_c, 0, 68, 39
1, 21849, Note_off_c, 0, 63, 28
1, 21878, Note_off_c, 0, 68, 59
1, 22023, Note_off_c, 0, 65, 38
1, 22043, Note_on_c, 0, 66, 36
1, 22053, Note_on_c, 0, 58, 34
1, 22114, Note_off_c, 0, 58, 57
1, 22156, Note_off_c, 0, 66, 36
1, 22159, Note_on_c, 0, 73, 37
1, 22312, Note_off_c, 0, 75, 32
1, 22322, Note_on_c, 0, 56, 33
1, 22325, Note_on_c, 0, 65, 37
1, 22412, Note_off_c, 0, 65, 54
1, 22447, Note_off_c, 0, 56, 37
1, 22480, Control_c, 0, 67, 9
1, 22495, Control_c, 0, 67, 16
1, 22510, Control_c, 0, 67, 20
1, 22513, Note_off_c, 0, 73, 34
1, 22525, Control_c, 0, 67, 24
1, 22539, Control_c, 0, 67, 28
1, 22554, Control_c, 0, 67, 32
1, 22569, Control_c, 0, 67, 34
1, 22583, Control_c, 0, 67, 35
1, 22628, Control_c, 0, 67, 36
1, 22702, Control_c, 0, 64, 117
1, 22717, Control_c, 0, 64, 110
1, 22731, Control_c, 0, 64, 104
1, 22742, Note_on_c, 0, 49, 30
1, 22746, Control_c, 0, 64, 98
1, 22761, Control_c, 0, 64, 89
1, 22776, Control_c, 0, 64, 79
1, 22790, Control_c, 0, 64, 69
1, 22790, Control_c, 0, 67, 35
1, 22805, Control_c, 0, 64, 60
1, 22805, Control_c, 0, 67, 34
1, 22820, Control_c, 0, 64, 50
1, 22835, Control_c, 0, 64, 52
1, 22850, Control_c, 0, 64, 53
1, 22850, Control_c, 0, 67, 34
1, 22865, Control_c, 0, 64, 56
1, 22880, Control_c, 0, 64, 60
1, 22880, Control_c, 0, 67, 33
1, 22895, Control_c, 0, 64, 64
1, 22895, Control_c, 0, 67, 32
1, 22909, Control_c, 0, 64, 69
1, 22924, Control_c, 0, 64, 76
1, 22939, Control_c, 0, 64, 86
1, 22939, Control_c, 0, 67, 31
1, 22954, Note_off_c, 0, 49, 40
1, 22954, Control_c, 0, 64, 104
1, 22969, Control_c, 0, 64, 127
1, 22969, Control_c, 0, 67, 31
1, 22998, Control_c, 0, 67, 30
1, 23050, Control_c, 0, 67, 29
1, 23124, Control_c, 0, 67, 29
1, 23139, Control_c, 0, 67, 28
1, 23176, Note_on_c, 0, 61, 27
1, 23193, Note_on_c, 0, 58, 20
1, 23200, Control_c, 0, 67, 27
1, 23229, Control_c, 0, 67, 27
1, 23283, Note_on_c, 0, 77, 47
1, 23288, Control_c, 0, 67, 26
1, 23318, Control_c, 0, 67, 26
1, 23348, Control_c, 0, 67, 25
1, 23372, Note_off_c, 0, 61, 40
1, 23393, Control_c, 0, 67, 24
1, 23409, Note_on_c, 0, 63, 32
1, 23416, Note_on_c, 0, 56, 19
1, 23422, Control_c, 0, 67, 24
1, 23452, Control_c, 0, 67, 23
1, 23481, Control_c, 0, 67, 22
1, 23511, Control_c, 0, 67, 22
1, 23540, Control_c, 0, 67, 21
1, 23570, Control_c, 0, 67, 21
1, 23585, Control_c, 0, 67, 20
1, 23603, Note_off_c, 0, 56, 38
1, 23614, Control_c, 0, 67, 19
1, 23619, Note_on_c, 0, 65, 28
1, 23644, Control_c, 0, 67, 19
1, 23646, Note_on_c, 0, 61, 24
1, 23659, Control_c, 0, 67, 17
1, 23672, Note_on_c, 0, 68, 51
1, 23674, Control_c, 0, 67, 17
1, 23680, Note_off_c, 0, 63, 29
1, 23703, Control_c, 0, 67, 16
1, 23718, Control_c, 0, 67, 15
1, 23732, Control_c, 0, 67, 14
1, 23747, Control_c, 0, 67, 14
1, 23770, Control_c, 0, 67, 12
1, 23785, Control_c, 0, 67, 12
1, 23800, Control_c, 0, 67, 11
1, 23829, Control_c, 0, 67, 11
1, 23844, Control_c, 0, 67, 10
1, 23845, Note_off_c, 0, 58, 6
1, 23858, Note_off_c, 0, 61, 38
1, 23859, Control_c, 0, 67, 9
1, 23874, Control_c, 0, 67, 9
1, 23888, Control_c, 0, 67, 0
1, 23893, Note_on_c, 0, 63, 31
1, 23908, Note_on_c, 0, 56, 13
1, 23982, Note_on_c, 0, 70, 69
1, 23986, Note_off_c, 0, 65, 28
1, 24034, Note_off_c, 0, 68, 61
1, 24051, Note_off_c, 0, 56, 37
1, 24055, Note_on_c, 0, 58, 37
1, 24129, Note_on_c, 0, 61, 25
1, 24181, Note_off_c, 0, 63, 29
1, 24200, Note_off_c, 0, 58, 0
1, 24203, Note_on_c, 0, 72, 73
1, 24285, Note_off_c, 0, 70, 62
1, 24293, Poly_aftertouch_c, 0, 58, 0
1, 24316, Note_off_c, 0, 61, 20
1, 24367, Note_on_c, 0, 65, 51
1, 24375, Note_on_c, 0, 56, 44
1, 24405, Note_off_c, 0, 65, 64
1, 24430, Note_off_c, 0, 56, 58
1, 24450, Note_on_c, 0, 73, 83
1, 24534, Note_on_c, 0, 66, 67
1, 24539, Note_on_c, 0, 63, 54
1, 24595, Note_off_c, 0, 66, 60
1, 24616, Note_off_c, 0, 77, 33
1, 24635, Note_off_c, 0, 72, 36
1, 24655, Note_off_c, 0, 63, 52
1, 24669, Note_on_c, 0, 68, 65
1, 24672, Note_on_c, 0, 65, 61
1, 24730, Note_off_c, 0, 68, 60
1, 24809, Note_on_c, 0, 63, 64
1, 24822, Note_on_c, 0, 66, 58
1, 24841, Note_off_c, 0, 65, 52
1, 24881, Note_off_c, 0, 66, 57
1, 24888, Note_on_c, 0, 75, 89
1, 24953, Note_off_c, 0, 63, 60
1, 24968, Note_on_c, 0, 56, 69
1, 24972, Note_on_c, 0, 65, 62
1, 24999, Note_off_c, 0, 65, 67
1, 25019, Note_off_c, 0, 56, 61
1, 25023, Note_off_c, 0, 73, 50
1, 25168, Note_on_c, 0, 47, 72
1, 25171, Control_c, 0, 64, 107
1, 25185, Control_c, 0, 64, 75
1, 25200, Control_c, 0, 64, 61
1, 25215, Control_c, 0, 64, 36
1, 25230, Control_c, 0, 64, 36
1, 25245, Control_c, 0, 64, 49
1, 25267, Control_c, 0, 64, 62
1, 25282, Control_c, 0, 64, 74
1, 25296, Note_off_c, 0, 47, 63
1, 25297, Control_c, 0, 64, 100
1, 25311, Control_c, 0, 64, 127
1, 25419, Note_on_c, 0, 62, 54
1, 25429, Note_on_c, 0, 53, 55
1, 25454, Note_off_c, 0, 62, 64
1, 25484, Note_on_c, 0, 77, 85
1, 25539, Note_off_c, 0, 75, 61
1, 25540, Note_off_c, 0, 53, 60
1, 25572, Note_on_c, 0, 63, 68
1, 25576, Note_on_c, 0, 56, 59
1, 25633, Note_off_c, 0, 63, 62
1, 25721, Note_on_c, 0, 78, 98
1, 25721, Note_on_c, 0, 66, 68
1, 25745, Note_on_c, 0, 63, 61
1, 25774, Note_off_c, 0, 56, 48
1, 25825, Note_off_c, 0, 66, 55
1, 25841, Note_off_c, 0, 77, 47
1, 25885, Note_on_c, 0, 65, 82
1, 25894, Note_on_c, 0, 56, 75
1, 25896, Note_off_c, 0, 63, 62
1, 25960, Note_on_c, 0, 80, 94
1, 26043, Note_off_c, 0, 78, 55
1, 26045, Note_on_c, 0, 63, 83
1, 26048, Note_on_c, 0, 54, 76
1, 26061, Note_off_c, 0, 65, 62
1, 26067, Note_off_c, 0, 56, 63
1, 26117, Note_off_c, 0, 54, 64
1, 26156, Note_off_c, 0, 63, 59
1, 26259, Note_on_c, 0, 71, 72
1, 26272, Note_on_c, 0, 63, 62
1, 26308, Note_on_c, 0, 82, 85
1, 26405, Note_off_c, 0, 71, 61
1, 26433, Note_off_c, 0, 80, 59
1, 26535, Note_on_c, 0, 70, 75
1, 26545, Note_off_c, 0, 63, 58
1, 26546, Note_on_c, 0, 62, 61
1, 26603, Note_on_c, 0, 80, 96
1, 26609, Note_off_c, 0, 70, 63
1, 26660, Note_off_c, 0, 62, 56
1, 26690, Note_off_c, 0, 82, 50
1, 26696, Note_on_c, 0, 71, 84
1, 26707, Note_on_c, 0, 63, 65
1, 26761, Note_off_c, 0, 63, 58
1, 26836, Note_off_c, 0, 71, 52
1, 26844, Note_on_c, 0, 66, 79
1, 26853, Note_on_c, 0, 63, 66
1, 26893, Note_off_c, 0, 63, 63
1, 26900, Note_off_c, 0, 66, 62
1, 27000, Note_on_c, 0, 54, 67
1, 27000, Note_on_c, 0, 65, 67
1, 27038, Note_off_c, 0, 65, 61
1, 27081, Note_on_c, 0, 78, 83
1, 27164, Note_on_c, 0, 56, 60
1, 27165, Note_on_c, 0, 63, 60
1, 27191, Note_off_c, 0, 80, 58
1, 27199, Note_off_c, 0, 54, 37
1, 27201, Note_off_c, 0, 63, 61
1, 27229, Note_off_c, 0, 56, 64
1, 27345, Control_c, 0, 64, 114
1, 27360, Control_c, 0, 64, 94
1, 27374, Control_c, 0, 64, 79
1, 27379, Note_on_c, 0, 46, 62
1, 27389, Control_c, 0, 64, 65
1, 27404, Control_c, 0, 64, 46
1, 27419, Control_c, 0, 64, 0
1, 27463, Control_c, 0, 64, 28
1, 27478, Control_c, 0, 64, 54
1, 27493, Control_c, 0, 64, 66
1, 27515, Control_c, 0, 64, 77
1, 27530, Control_c, 0, 64, 101
1, 27539, Note_off_c, 0, 46, 62
1, 27545, Control_c, 0, 64, 127
1, 27674, Note_on_c, 0, 62, 42
1, 27684, Note_on_c, 0, 53, 47
1, 27707, Note_off_c, 0, 62, 64
1, 27753, Note_on_c, 0, 77, 69
1, 27816, Note_off_c, 0, 78, 59
1, 27819, Note_off_c, 0, 53, 58
1, 27831, Note_on_c, 0, 63, 54
1, 27863, Note_on_c, 0, 56, 38
1, 27894, Note_off_c, 0, 77, 61
1, 27912, Note_off_c, 0, 63, 61
1, 28016, Note_on_c, 0, 65, 47
1, 28022, Note_on_c, 0, 62, 30
1, 28046, Note_off_c, 0, 56, 38
1, 28062, Note_on_c, 0, 68, 66
1, 28075, Note_off_c, 0, 65, 57
1, 28205, Note_off_c, 0, 62, 38
1, 28238, Note_on_c, 0, 56, 36
1, 28240, Note_on_c, 0, 63, 47
1, 28308, Note_on_c, 0, 69, 83
1, 28365, Note_off_c, 0, 68, 59
1, 28393, Note_on_c, 0, 62, 62
1, 28399, Note_off_c, 0, 63, 28
1, 28400, Note_on_c, 0, 53, 59
1, 28445, Note_off_c, 0, 53, 61
1, 28463, Note_off_c, 0, 62, 62
1, 28464, Note_off_c, 0, 56, 41
1, 28513, Note_on_c, 0, 70, 91
1, 28550, Note_off_c, 0, 69, 60
1, 28673, Note_on_c, 0, 65, 67
1, 28681, Note_on_c, 0, 56, 61
1, 28731, Note_on_c, 0, 72, 94
1, 28772, Note_off_c, 0, 70, 60
1, 28774, Note_off_c, 0, 56, 58
1, 28826, Note_on_c, 0, 66, 84
1, 28833, Note_on_c, 0, 62, 69
1, 28838, Note_off_c, 0, 65, 61
1, 28883, Note_off_c, 0, 66, 60
1, 28947, Note_off_c, 0, 62, 57
1, 28956, Note_on_c, 0, 68, 86
1, 28961, Note_on_c, 0, 65, 76
1, 29015, Note_off_c, 0, 68, 62
1, 29069, Note_off_c, 0, 65, 61
1, 29101, Note_on_c, 0, 66, 81
1, 29108, Note_on_c, 0, 62, 72
1, 29155, Note_off_c, 0, 66, 60
1, 29172, Note_on_c, 0, 74, 96
1, 29210, Note_off_c, 0, 72, 62
1, 29262, Note_on_c, 0, 65, 82
1, 29262, Note_off_c, 0, 62, 55
1, 29271, Note_on_c, 0, 56, 82
1, 29280, Note_off_c, 0, 65, 72
1, 29321, Note_off_c, 0, 56, 66
1, 29456, Control_c, 0, 64, 78
1, 29471, Control_c, 0, 64, 46
1, 29483, Note_on_c, 0, 34, 89
1, 29486, Control_c, 0, 64, 0
1, 29530, Control_c, 0, 64, 50
1, 29545, Control_c, 0, 64, 69
1, 29561, Control_c, 0, 64, 111
1, 29570, Note_off_c, 0, 34, 61
1, 29576, Control_c, 0, 64, 127
1, 29729, Note_on_c, 0, 68, 76
1, 29739, Note_on_c, 0, 58, 55
1, 29805, Note_on_c, 0, 75, 94
1, 29816, Note_off_c, 0, 58, 59
1, 29878, Note_off_c, 0, 74, 57
1, 29888, Note_on_c, 0, 70, 83
1, 29894, Note_on_c, 0, 65, 67
1, 29915, Note_off_c, 0, 68, 56
1, 29980, Note_off_c, 0, 70, 62
1, 30043, Note_on_c, 0, 71, 75
1, 30043, Note_on_c, 0, 68, 71
1, 30065, Note_on_c, 0, 77, 98
1, 30092, Note_off_c, 0, 75, 64
1, 30126, Note_off_c, 0, 71, 61
1, 30186, Note_off_c, 0, 65, 33
1, 30215, Note_off_c, 0, 68, 58
1, 30219, Note_on_c, 0, 70, 80
1, 30227, Note_on_c, 0, 62, 71
1, 30285, Note_off_c, 0, 70, 60
1, 30296, Note_on_c, 0, 78, 97
1, 30347, Note_off_c, 0, 77, 54
1, 30391, Note_on_c, 0, 68, 83
1, 30406, Note_on_c, 0, 58, 74
1, 30412, Note_off_c, 0, 62, 53
1, 30479, Note_off_c, 0, 68, 60
1, 30642, Note_on_c, 0, 66, 63
1, 30646, Note_on_c, 0, 62, 53
1, 30695, Note_on_c, 0, 82, 80
1, 30699, Note_off_c, 0, 58, 54
1, 30703, Control_c, 0, 64, 97
1, 30718, Control_c, 0, 64, 82
1, 30733, Control_c, 0, 64, 72
1, 30747, Control_c, 0, 64, 67
1, 30762, Control_c, 0, 64, 64
1, 30777, Control_c, 0, 64, 62
1, 30806, Control_c, 0, 64, 64
1, 30811, Note_off_c, 0, 78, 58
1, 30821, Control_c, 0, 64, 66
1, 30836, Control_c, 0, 64, 70
1, 30839, Note_off_c, 0, 62, 61
1, 30851, Control_c, 0, 64, 78
1, 30865, Note_off_c, 0, 66, 63
1, 30866, Control_c, 0, 64, 99
1, 30881, Control_c, 0, 64, 127
1, 30961, Note_on_c, 0, 64, 69
1, 30967, Note_on_c, 0, 56, 53
1, 31026, Note_off_c, 0, 56, 59
1, 31053, Note_on_c, 0, 80, 84
1, 31089, Note_off_c, 0, 82, 56
1, 31116, Note_off_c, 0, 64, 59
1, 31125, Note_on_c, 0, 65, 64
1, 31132, Note_on_c, 0, 62, 61
1, 31153, Note_off_c, 0, 80, 62
1, 31173, Note_off_c, 0, 62, 61
1, 31185, Note_on_c, 0, 78, 79
1, 31222, Note_off_c, 0, 78, 56
1, 31235, Note_on_c, 0, 80, 81
1, 31291, Note_off_c, 0, 65, 59
1, 31295, Note_on_c, 0, 78, 84
1, 31300, Note_off_c, 0, 80, 64
1, 31310, Note_on_c, 0, 59, 53
1, 31313, Note_on_c, 0, 63, 53
1, 31319, Control_c, 0, 64, 103
1, 31334, Control_c, 0, 64, 89
1, 31349, Control_c, 0, 64, 76
1, 31364, Control_c, 0, 64, 68
1, 31378, Control_c, 0, 64, 61
1, 31393, Control_c, 0, 64, 54
1, 31408, Control_c, 0, 64, 53
1, 31435, Control_c, 0, 64, 54
1, 31450, Control_c, 0, 64, 55
1, 31465, Control_c, 0, 64, 57
1, 31480, Control_c, 0, 64, 60
1, 31495, Control_c, 0, 64, 63
1, 31510, Control_c, 0, 64, 68
1, 31525, Control_c, 0, 64, 80
1, 31530, Note_on_c, 0, 56, 49
1, 31530, Note_on_c, 0, 61, 57
1, 31539, Control_c, 0, 64, 97
1, 31548, Note_off_c, 0, 59, 39
1, 31554, Control_c, 0, 64, 112
1, 31569, Control_c, 0, 64, 104
1, 31584, Control_c, 0, 64, 92
1, 31599, Control_c, 0, 64, 81
1, 31614, Control_c, 0, 64, 69
1, 31628, Control_c, 0, 64, 64
1, 31633, Note_off_c, 0, 63, 29
1, 31643, Control_c, 0, 64, 65
1, 31658, Control_c, 0, 64, 67
1, 31673, Control_c, 0, 64, 69
1, 31688, Control_c, 0, 64, 71
1, 31698, Note_off_c, 0, 78, 34
1, 31702, Control_c, 0, 64, 76
1, 31717, Control_c, 0, 64, 83
1, 31732, Control_c, 0, 64, 90
1, 31747, Control_c, 0, 64, 93
1, 31791, Control_c, 0, 64, 93
1, 31802, Note_off_c, 0, 56, 28
1, 31806, Control_c, 0, 64, 92
1, 31819, Note_on_c, 0, 58, 40
1, 31820, Control_c, 0, 64, 92
1, 31825, Note_on_c, 0, 62, 39
1, 31835, Control_c, 0, 64, 91
1, 31850, Control_c, 0, 64, 89
1, 31865, Control_c, 0, 64, 84
1, 31875, Note_on_c, 0, 77, 64
1, 31875, Note_off_c, 0, 61, 31
1, 31880, Control_c, 0, 64, 78
1, 31894, Control_c, 0, 64, 68
1, 31909, Control_c, 0, 64, 58
1, 31924, Control_c, 0, 64, 39
1, 31940, Control_c, 0, 64, 35
1, 31955, Control_c, 0, 64, 39
1, 31970, Control_c, 0, 64, 49
1, 31985, Control_c, 0, 64, 60
1, 32007, Control_c, 0, 64, 66
1, 32022, Control_c, 0, 64, 74
1, 32034, Note_off_c, 0, 62, 63
1, 32037, Control_c, 0, 64, 88
1, 32049, Note_off_c, 0, 58, 63
1, 32051, Control_c, 0, 64, 122
1, 32066, Control_c, 0, 64, 127
1, 32257, Note_on_c, 0, 39, 36
1, 32273, Control_c, 0, 64, 113
1, 32288, Control_c, 0, 64, 96
1, 32303, Control_c, 0, 64, 80
1, 32307, Note_on_c, 0, 78, 53
1, 32317, Note_off_c, 0, 77, 47
1, 32318, Control_c, 0, 64, 66
1, 32332, Control_c, 0, 64, 47
1, 32347, Control_c, 0, 64, 16
1, 32362, Control_c, 0, 64, 21
1, 32377, Control_c, 0, 64, 33
1, 32392, Control_c, 0, 64, 46
1, 32407, Control_c, 0, 64, 58
1, 32422, Control_c, 0, 64, 66
1, 32437, Control_c, 0, 64, 73
1, 32437, Note_off_c, 0, 39, 54
1, 32451, Control_c, 0, 64, 91
1, 32466, Control_c, 0, 64, 127
1, 32714, Note_on_c, 0, 63, 36
1, 32745, Note_on_c, 0, 54, 16
1, 32899, Note_on_c, 0, 65, 49
1, 32934, Note_off_c, 0, 54, 37
1, 32937, Note_on_c, 0, 56, 39
1, 32939, Note_off_c, 0, 65, 63
1, 32974, Note_off_c, 0, 63, 37
1, 33100, Note_on_c, 0, 66, 40
1, 33124, Note_on_c, 0, 58, 31
1, 33148, Note_on_c, 0, 70, 45
1, 33164, Note_off_c, 0, 56, 33
1, 33272, Note_off_c, 0, 66, 43
1, 33333, Note_on_c, 0, 65, 40
1, 33340, Note_on_c, 0, 56, 36
1, 33404, Note_off_c, 0, 58, 32
1, 33417, Note_on_c, 0, 72, 63
1, 33474, Note_off_c, 0, 70, 63
1, 33517, Note_on_c, 0, 54, 46
1, 33519, Note_on_c, 0, 63, 45
1, 33530, Note_off_c, 0, 56, 41
1, 33531, Note_off_c, 0, 65, 39
1, 33579, Note_off_c, 0, 54, 58
1, 33607, Note_off_c, 0, 63, 59
1, 33640, Note_on_c, 0, 74, 78
1, 33695, Note_off_c, 0, 72, 64
1, 33748, Note_off_c, 0, 78, 60
1, 33805, Note_on_c, 0, 58, 56
1, 33814, Note_on_c, 0, 66, 55
1, 33853, Note_off_c, 0, 58, 58
1, 33880, Note_on_c, 0, 75, 90
1, 33948, Note_off_c, 0, 66, 47
1, 33965, Note_on_c, 0, 68, 70
1, 33972, Note_on_c, 0, 65, 58
1, 34008, Note_off_c, 0, 74, 46
1, 34027, Note_off_c, 0, 68, 61
1, 34084, Note_off_c, 0, 65, 57
1, 34100, Note_on_c, 0, 66, 58
1, 34101, Note_on_c, 0, 70, 76
1, 34166, Note_off_c, 0, 70, 60
1, 34225, Note_off_c, 0, 66, 61
1, 34252, Note_on_c, 0, 69, 68
1, 34269, Note_on_c, 0, 60, 49
1, 34292, Note_off_c, 0, 69, 58
1, 34297, Note_off_c, 0, 60, 63
1, 34338, Note_on_c, 0, 77, 87
1, 34413, Note_on_c, 0, 59, 70
1, 34415, Note_on_c, 0, 68, 69
1, 34431, Note_off_c, 0, 75, 54
1, 34443, Note_off_c, 0, 68, 65
1, 34468, Note_off_c, 0, 59, 64
1, 34638, Control_c, 0, 64, 104
1, 34652, Note_on_c, 0, 44, 73
1, 34653, Control_c, 0, 64, 71
1, 34663, Note_on_c, 0, 32, 62
1, 34668, Control_c, 0, 64, 46
1, 34683, Control_c, 0, 64, 0
1, 34712, Control_c, 0, 64, 27
1, 34727, Control_c, 0, 64, 51
1, 34742, Control_c, 0, 64, 64
1, 34750, Note_off_c, 0, 32, 62
1, 34757, Control_c, 0, 64, 76
1, 34772, Control_c, 0, 64, 108
1, 34777, Note_off_c, 0, 44, 64
1, 34786, Control_c, 0, 64, 127
1, 34948, Note_on_c, 0, 66, 53
1, 34960, Note_on_c, 0, 56, 45
1, 35030, Note_off_c, 0, 56, 55
1, 35048, Note_on_c, 0, 78, 80
1, 35146, Note_off_c, 0, 77, 57
1, 35146, Note_on_c, 0, 68, 62
1, 35153, Note_on_c, 0, 60, 53
1, 35191, Note_off_c, 0, 66, 49
1, 35213, Note_off_c, 0, 68, 61
1, 35314, Note_on_c, 0, 70, 64
1, 35323, Note_off_c, 0, 60, 38
1, 35326, Note_on_c, 0, 66, 57
1, 35355, Note_on_c, 0, 77, 89
1, 35394, Note_off_c, 0, 70, 63
1, 35476, Note_off_c, 0, 78, 60
1, 35510, Note_on_c, 0, 68, 70
1, 35514, Note_off_c, 0, 66, 59
1, 35522, Note_on_c, 0, 60, 64
1, 35549, Note_off_c, 0, 68, 55
1, 35588, Note_on_c, 0, 75, 91
1, 35620, Note_off_c, 0, 77, 63
1, 35666, Note_on_c, 0, 66, 69
1, 35670, Note_on_c, 0, 56, 65
1, 35674, Note_off_c, 0, 60, 54
1, 35751, Note_off_c, 0, 56, 61
1, 35764, Note_off_c, 0, 66, 58
1, 35838, Poly_aftertouch_c, 0, 60, 127
1, 35877, Poly_aftertouch_c, 0, 60, 0
1, 35883, Note_on_c, 0, 70, 50
1, 35897, Note_on_c, 0, 66, 51
1, 35913, Control_c, 0, 64, 99
1, 35926, Note_on_c, 0, 73, 79
1, 35928, Control_c, 0, 64, 85
1, 35944, Control_c, 0, 64, 75
1, 35959, Control_c, 0, 64, 68
1, 35973, Control_c, 0, 64, 66
1, 35979, Note_off_c, 0, 75, 56
1, 35988, Control_c, 0, 64, 67
1, 36003, Control_c, 0, 64, 70
1, 36016, Note_off_c, 0, 70, 63
1, 36018, Control_c, 0, 64, 73
1, 36033, Control_c, 0, 64, 80
1, 36047, Control_c, 0, 64, 94
1, 36062, Control_c, 0, 64, 127
1, 36109, Note_off_c, 0, 73, 62
1, 36178, Note_on_c, 0, 68, 58
1, 36183, Note_on_c, 0, 63, 54
1, 36183, Note_on_c, 0, 72, 90
1, 36199, Note_off_c, 0, 66, 47
1, 36251, Note_off_c, 0, 68, 58
1, 36304, Note_off_c, 0, 72, 62
1, 36343, Note_on_c, 0, 58, 69
1, 36343, Note_on_c, 0, 66, 66
1, 36348, Note_on_c, 0, 73, 102
1, 36373, Control_c, 0, 64, 111
1, 36380, Note_off_c, 0, 63, 33
1, 36388, Control_c, 0, 64, 109
1, 36403, Control_c, 0, 64, 122
1, 36410, Note_off_c, 0, 66, 62
1, 36417, Control_c, 0, 64, 127
1, 36461, Note_off_c, 0, 73, 61
1, 36499, Control_c, 0, 64, 120
1, 36514, Control_c, 0, 64, 93
1, 36515, Note_on_c, 0, 60, 74
1, 36515, Note_on_c, 0, 63, 70
1, 36519, Note_on_c, 0, 75, 100
1, 36524, Note_off_c, 0, 58, 58
1, 36529, Control_c, 0, 64, 82
1, 36544, Control_c, 0, 64, 80
1, 36559, Control_c, 0, 64, 86
1, 36573, Control_c, 0, 64, 96
1, 36575, Note_off_c, 0, 63, 61
1, 36585, Note_off_c, 0, 60, 64
1, 36588, Control_c, 0, 64, 116
1, 36603, Control_c, 0, 64, 127
1, 36647, Control_c, 0, 64, 103
1, 36662, Control_c, 0, 64, 86
1, 36677, Control_c, 0, 64, 76
1, 36683, Note_off_c, 0, 75, 61
1, 36684, Note_on_c, 0, 77, 99
1, 36691, Control_c, 0, 64, 70
1, 36696, Note_on_c, 0, 61, 74
1, 36700, Note_on_c, 0, 58, 75
1, 36706, Control_c, 0, 64, 70
1, 36721, Control_c, 0, 64, 76
1, 36737, Control_c, 0, 64, 89
1, 36752, Control_c, 0, 64, 114
1, 36756, Note_off_c, 0, 58, 57
1, 36767, Control_c, 0, 64, 127
1, 36774, Note_off_c, 0, 61, 56
1, 36841, Control_c, 0, 64, 109
1, 36856, Control_c, 0, 64, 87
1, 36870, Control_c, 0, 64, 75
1, 36881, Note_on_c, 0, 51, 79
1, 36881, Note_on_c, 0, 60, 71
1, 36885, Control_c, 0, 64, 69
1, 36886, Note_on_c, 0, 78, 97
1, 36900, Control_c, 0, 64, 71
1, 36910, Note_off_c, 0, 77, 63
1, 36914, Control_c, 0, 64, 78
1, 36918, Note_off_c, 0, 60, 65
1, 36929, Control_c, 0, 64, 92
1, 36944, Control_c, 0, 64, 127
1, 36956, Note_off_c, 0, 51, 65
1, 37121, Note_off_c, 0, 78, 61
1, 37132, Note_on_c, 0, 41, 70
1, 37143, Note_on_c, 0, 29, 57
1, 37152, Control_c, 0, 64, 84
1, 37167, Control_c, 0, 64, 63
1, 37182, Control_c, 0, 64, 0
1, 37186, Note_on_c, 0, 80, 81
1, 37248, Control_c, 0, 64, 30
1, 37263, Control_c, 0, 64, 57
1, 37271, Note_off_c, 0, 29, 62
1, 37278, Control_c, 0, 64, 69
1, 37293, Control_c, 0, 64, 92
1, 37307, Control_c, 0, 64, 127
1, 37312, Note_off_c, 0, 41, 64
1, 37501, Note_on_c, 0, 65, 57
1, 37516, Note_on_c, 0, 56, 45
1, 37666, Note_on_c, 0, 67, 69
1, 37667, Note_off_c, 0, 56, 52
1, 37675, Note_on_c, 0, 60, 57
1, 37699, Note_off_c, 0, 65, 58
1, 37724, Note_off_c, 0, 67, 63
1, 37835, Note_on_c, 0, 65, 50
1, 37836, Note_on_c, 0, 68, 61
1, 37876, Note_off_c, 0, 60, 59
1, 37889, Note_on_c, 0, 72, 72
1, 37921, Note_off_c, 0, 80, 60
1, 37961, Note_off_c, 0, 68, 57
1, 38058, Note_off_c, 0, 65, 59
1, 38066, Note_on_c, 0, 67, 66
1, 38077, Note_on_c, 0, 60, 57
1, 38141, Note_on_c, 0, 74, 85
1, 38191, Note_off_c, 0, 72, 60
1, 38221, Note_on_c, 0, 65, 77
1, 38223, Note_on_c, 0, 56, 71
1, 38231, Note_off_c, 0, 67, 61
1, 38239, Note_off_c, 0, 60, 54
1, 38285, Note_off_c, 0, 65, 63
1, 38287, Note_off_c, 0, 56, 64
1, 38342, Note_on_c, 0, 76, 93
1, 38381, Note_off_c, 0, 74, 63
1, 38499, Note_on_c, 0, 68, 77
1, 38503, Note_on_c, 0, 60, 64
1, 38538, Note_off_c, 0, 60, 64
1, 38580, Note_on_c, 0, 77, 96
1, 38606, Note_off_c, 0, 76, 61
1, 38641, Note_off_c, 0, 68, 58
1, 38653, Note_on_c, 0, 70, 87
1, 38660, Note_on_c, 0, 67, 76
1, 38723, Note_off_c, 0, 70, 61
1, 38778, Note_off_c, 0, 67, 60
1, 38801, Note_on_c, 0, 68, 75
1, 38804, Note_on_c, 0, 72, 88
1, 38861, Note_off_c, 0, 72, 62
1, 38901, Note_off_c, 0, 68, 61
1, 38941, Note_on_c, 0, 71, 87
1, 38944, Note_on_c, 0, 62, 78
1, 38996, Note_off_c, 0, 71, 61
1, 38998, Note_off_c, 0, 62, 62
1, 39026, Note_on_c, 0, 79, 97
1, 39065, Note_off_c, 0, 77, 59
1, 39072, Note_on_c, 0, 66, 4
1, 39101, Note_on_c, 0, 70, 90
1, 39105, Note_on_c, 0, 61, 91
1, 39123, Note_off_c, 0, 66, 50
1, 39130, Note_off_c, 0, 70, 65
1, 39153, Note_off_c, 0, 61, 62
1, 39339, Control_c, 0, 64, 103
1, 39343, Note_on_c, 0, 46, 88
1, 39350, Note_on_c, 0, 34, 86
1, 39354, Control_c, 0, 64, 66
1, 39369, Control_c, 0, 64, 0
1, 39427, Control_c, 0, 64, 22
1, 39442, Control_c, 0, 64, 57
1, 39453, Note_off_c, 0, 34, 62
1, 39457, Control_c, 0, 64, 70
1, 39472, Control_c, 0, 64, 93
1, 39489, Note_off_c, 0, 46, 65
1, 39495, Control_c, 0, 64, 127
1, 39651, Note_on_c, 0, 58, 69
1, 39653, Note_on_c, 0, 68, 73
1, 39729, Note_on_c, 0, 80, 91
1, 39752, Note_off_c, 0, 58, 60
1, 39805, Note_off_c, 0, 79, 58
1, 39836, Note_on_c, 0, 70, 87
1, 39843, Note_on_c, 0, 62, 72
1, 39870, Note_off_c, 0, 68, 58
1, 39942, Note_off_c, 0, 70, 62
1, 40011, Note_on_c, 0, 71, 87
1, 40015, Note_on_c, 0, 68, 77
1, 40020, Note_off_c, 0, 62, 54
1, 40030, Poly_aftertouch_c, 0, 65, 127
1, 40053, Note_on_c, 0, 78, 96
1, 40097, Note_off_c, 0, 80, 63
1, 40107, Note_off_c, 0, 71, 61
1, 40187, Note_off_c, 0, 68, 61
1, 40201, Poly_aftertouch_c, 0, 65, 0
1, 40208, Note_on_c, 0, 70, 90
1, 40214, Note_on_c, 0, 62, 77
1, 40268, Note_off_c, 0, 70, 60
1, 40286, Note_on_c, 0, 77, 90
1, 40288, Note_off_c, 0, 78, 63
1, 40303, Note_on_c, 0, 76, 66
1, 40321, Note_off_c, 0, 76, 42
1, 40348, Note_off_c, 0, 62, 49
1, 40377, Note_on_c, 0, 68, 90
1, 40385, Note_on_c, 0, 58, 74
1, 40420, Note_off_c, 0, 58, 64
1, 40427, Note_off_c, 0, 77, 53
1, 40458, Note_on_c, 0, 75, 79
1, 40462, Note_off_c, 0, 68, 59
1, 40467, Poly_aftertouch_c, 0, 69, 127
1, 40493, Poly_aftertouch_c, 0, 69, 0
1, 40503, Note_on_c, 0, 77, 72
1, 40510, Note_off_c, 0, 75, 62
1, 40557, Note_on_c, 0, 71, 73
1, 40561, Note_on_c, 0, 75, 85
1, 40573, Note_on_c, 0, 68, 72
1, 40584, Control_c, 0, 64, 87
1, 40585, Note_off_c, 0, 77, 62
1, 40599, Control_c, 0, 64, 68
1, 40613, Control_c, 0, 64, 55
1, 40628, Control_c, 0, 64, 54
1, 40643, Control_c, 0, 64, 60
1, 40658, Control_c, 0, 64, 64
1, 40673, Control_c, 0, 64, 71
1, 40680, Note_off_c, 0, 71, 61
1, 40688, Control_c, 0, 64, 88
1, 40703, Control_c, 0, 64, 127
1, 40768, Note_off_c, 0, 68, 56
1, 40809, Note_on_c, 0, 65, 64
1, 40813, Note_on_c, 0, 70, 69
1, 40820, Note_on_c, 0, 74, 92
1, 40830, Note_off_c, 0, 75, 59
1, 40867, Note_off_c, 0, 70, 63
1, 40968, Note_off_c, 0, 74, 56
1, 40990, Note_on_c, 0, 68, 78
1, 40990, Note_on_c, 0, 75, 96
1, 40995, Note_on_c, 0, 59, 77
1, 40999, Note_off_c, 0, 65, 58
1, 41032, Note_off_c, 0, 68, 61
1, 41144, Note_on_c, 0, 65, 84
1, 41153, Note_on_c, 0, 62, 77
1, 41155, Note_on_c, 0, 77, 104
1, 41156, Note_off_c, 0, 75, 66
1, 41160, Note_off_c, 0, 59, 58
1, 41174, Note_off_c, 0, 65, 64
1, 41189, Note_off_c, 0, 62, 62
1, 41332, Note_on_c, 0, 78, 104
1, 41334, Note_on_c, 0, 61, 75
1, 41347, Note_on_c, 0, 57, 62
1, 41360, Note_off_c, 0, 77, 60
1, 41375, Note_off_c, 0, 57, 66
1, 41384, Note_off_c, 0, 61, 47
1, 41448, Poly_aftertouch_c, 0, 62, 0
1, 41485, Note_off_c, 0, 78, 55
1, 41493, Note_on_c, 0, 53, 81
1, 41506, Note_on_c, 0, 60, 44
1, 41506, Note_on_c, 0, 80, 97
1, 41507, Note_on_c, 0, 62, 46
1, 41520, Note_off_c, 0, 53, 69
1, 41536, Note_off_c, 0, 60, 54
1, 41539, Note_off_c, 0, 62, 54
1, 41621, Note_on_c, 0, 42, 87
1, 41630, Control_c, 0, 64, 87
1, 41645, Control_c, 0, 64, 58
1, 41660, Control_c, 0, 64, 0
1, 41675, Note_on_c, 0, 49, 63
1, 41677, Note_off_c, 0, 42, 63
1, 41689, Control_c, 0, 64, 41
1, 41704, Note_on_c, 0, 54, 77
1, 41704, Note_off_c, 0, 49, 66
1, 41704, Control_c, 0, 64, 64
1, 41719, Control_c, 0, 64, 89
1, 41738, Note_off_c, 0, 54, 67
1, 41741, Control_c, 0, 64, 127
1, 41794, Note_on_c, 0, 58, 40
1, 41797, Note_on_c, 0, 57, 58
1, 41834, Note_off_c, 0, 58, 48
1, 41840, Note_off_c, 0, 57, 60
1, 41842, Note_on_c, 0, 61, 90
1, 41850, Note_on_c, 0, 82, 100
1, 41878, Note_off_c, 0, 61, 60
1, 41897, Note_off_c, 0, 80, 60
1, 42116, Note_on_c, 0, 66, 79
1, 42126, Note_on_c, 0, 58, 70
1, 42154, Note_on_c, 0, 67, 55
1, 42166, Note_off_c, 0, 82, 52
1, 42234, Poly_aftertouch_c, 0, 63, 127
1, 42247, Note_off_c, 0, 67, 60
1, 42275, Note_on_c, 0, 68, 88
1, 42285, Note_on_c, 0, 61, 74
1, 42290, Note_off_c, 0, 66, 57
1, 42313, Note_off_c, 0, 58, 61
1, 42373, Note_off_c, 0, 68, 60
1, 42461, Note_on_c, 0, 70, 75
1, 42476, Note_on_c, 0, 66, 57
1, 42525, Note_on_c, 0, 72, 82
1, 42545, Note_off_c, 0, 61, 51
1, 42582, Note_off_c, 0, 70, 62
1, 42693, Note_on_c, 0, 61, 68
1, 42694, Note_on_c, 0, 68, 75
1, 42699, Note_off_c, 0, 66, 62
1, 42718, Poly_aftertouch_c, 0, 63, 0
1, 42748, Note_on_c, 0, 73, 99
1, 42790, Note_off_c, 0, 72, 62
1, 42792, Note_off_c, 0, 68, 59
1, 42839, Note_on_c, 0, 58, 84
1, 42844, Note_on_c, 0, 66, 81
1, 42861, Note_off_c, 0, 61, 59
1, 42897, Note_off_c, 0, 66, 63
1, 42935, Note_off_c, 0, 58, 60
1, 42977, Note_on_c, 0, 75, 101
1, 42982, Note_on_c, 0, 65, 84
1, 42986, Note_on_c, 0, 58, 73
1, 42994, Note_off_c, 0, 73, 67
1, 43067, Note_off_c, 0, 65, 60
1, 43135, Note_on_c, 0, 63, 87
1, 43147, Note_on_c, 0, 54, 84
1, 43156, Note_off_c, 0, 58, 63
1, 43189, Note_off_c, 0, 63, 62
1, 43202, Note_on_c, 0, 77, 102
1, 43211, Note_off_c, 0, 75, 61
1, 43298, Note_on_c, 0, 61, 94
1, 43304, Note_on_c, 0, 58, 83
1, 43314, Note_off_c, 0, 54, 64
1, 43345, Note_off_c, 0, 61, 63
1, 43351, Note_off_c, 0, 58, 64
1, 43496, Note_on_c, 0, 60, 87
1, 43508, Note_on_c, 0, 51, 80
1, 43516, Note_on_c, 0, 78, 94
1, 43520, Control_c, 0, 64, 110
1, 43535, Control_c, 0, 64, 72
1, 43549, Control_c, 0, 64, 55
1, 43555, Note_off_c, 0, 77, 55
1, 43564, Control_c, 0, 64, 38
1, 43579, Control_c, 0, 64, 50
1, 43594, Control_c, 0, 64, 59
1, 43609, Control_c, 0, 64, 67
1, 43623, Note_off_c, 0, 60, 60
1, 43624, Control_c, 0, 64, 100
1, 43634, Note_off_c, 0, 51, 63
1, 43638, Control_c, 0, 64, 127
1, 43701, Note_off_c, 0, 78, 64
1, 43733, Note_on_c, 0, 59, 88
1, 43734, Note_on_c, 0, 51, 93
1, 43738, Note_on_c, 0, 80, 103
1, 43758, Note_off_c, 0, 59, 66
1, 43794, Note_off_c, 0, 51, 63
1, 43839, Note_off_c, 0, 80, 64
1, 43877, Note_on_c, 0, 42, 91
1, 43898, Note_on_c, 0, 81, 100
1, 43929, Note_off_c, 0, 42, 63
1, 44003, Note_on_c, 0, 41, 88
1, 44028, Note_off_c, 0, 81, 56
1, 44062, Note_off_c, 0, 41, 64
1, 44063, Note_on_c, 0, 50, 80
1, 44086, Note_on_c, 0, 47, 38
1, 44122, Note_off_c, 0, 47, 48
1, 44129, Note_on_c, 0, 56, 83
1, 44133, Note_on_c, 0, 58, 92
1, 44165, Control_c, 0, 64, 82
1, 44168, Note_on_c, 0, 82, 94
1, 44179, Control_c, 0, 64, 61
1, 44194, Control_c, 0, 64, 38
1, 44209, Control_c, 0, 64, 42
1, 44224, Control_c, 0, 64, 51
1, 44239, Control_c, 0, 64, 58
1, 44250, Note_off_c, 0, 50, 63
1, 44253, Control_c, 0, 64, 65
1, 44268, Control_c, 0, 64, 83
1, 44280, Note_off_c, 0, 56, 64
1, 44283, Control_c, 0, 64, 127
1, 44297, Note_off_c, 0, 58, 67
1, 44426, Note_on_c, 0, 56, 69
1, 44426, Note_on_c, 0, 65, 74
1, 44504, Note_on_c, 0, 70, 95
1, 44569, Note_off_c, 0, 56, 53
1, 44588, Note_on_c, 0, 66, 92
1, 44599, Note_on_c, 0, 62, 72
1, 44617, Note_off_c, 0, 65, 59
1, 44618, Note_off_c, 0, 82, 60
1, 44656, Note_off_c, 0, 70, 61
1, 44668, Note_off_c, 0, 66, 59
1, 44746, Note_on_c, 0, 68, 92
1, 44755, Note_on_c, 0, 65, 74
1, 44764, Note_on_c, 0, 72, 90
1, 44768, Note_off_c, 0, 62, 56
1, 44816, Note_off_c, 0, 68, 58
1, 44867, Note_off_c, 0, 65, 61
1, 44903, Note_on_c, 0, 66, 85
1, 44906, Note_on_c, 0, 62, 73
1, 44965, Note_off_c, 0, 66, 56
1, 44967, Note_on_c, 0, 74, 98
1, 44993, Note_off_c, 0, 72, 65
1, 45052, Note_on_c, 0, 65, 87
1, 45062, Note_on_c, 0, 56, 80
1, 45067, Note_off_c, 0, 62, 62
1, 45097, Note_off_c, 0, 65, 61
1, 45228, Note_on_c, 0, 59, 69
1, 45237, Note_on_c, 0, 63, 75
1, 45260, Note_on_c, 0, 75, 85
1, 45266, Note_off_c, 0, 56, 56
1, 45269, Control_c, 0, 64, 110
1, 45283, Control_c, 0, 64, 82
1, 45298, Control_c, 0, 64, 73
1, 45313, Control_c, 0, 64, 76
1, 45318, Note_off_c, 0, 74, 57
1, 45327, Control_c, 0, 64, 84
1, 45338, Note_off_c, 0, 59, 63
1, 45342, Control_c, 0, 64, 98
1, 45349, Note_off_c, 0, 63, 62
1, 45357, Control_c, 0, 64, 127
1, 45460, Note_off_c, 0, 75, 61
1, 45482, Note_on_c, 0, 62, 82
1, 45489, Note_on_c, 0, 77, 96
1, 45490, Note_on_c, 0, 53, 78
1, 45617, Note_off_c, 0, 62, 61
1, 45651, Note_on_c, 0, 59, 82
1, 45654, Note_on_c, 0, 56, 83
1, 45663, Note_on_c, 0, 78, 100
1, 45676, Note_off_c, 0, 53, 60
1, 45682, Note_off_c, 0, 59, 64
1, 45688, Note_off_c, 0, 77, 64
1, 45703, Note_off_c, 0, 56, 65
1, 45842, Note_on_c, 0, 58, 93
1, 45845, Note_on_c, 0, 50, 82
1, 45845, Note_on_c, 0, 77, 101
1, 45855, Control_c, 0, 64, 120
1, 45870, Control_c, 0, 64, 83
1, 45877, Note_off_c, 0, 78, 61
1, 45885, Control_c, 0, 64, 69
1, 45899, Control_c, 0, 64, 62
1, 45914, Control_c, 0, 64, 64
1, 45929, Control_c, 0, 64, 71
1, 45936, Note_off_c, 0, 50, 64
1, 45937, Note_off_c, 0, 58, 60
1, 45943, Control_c, 0, 64, 84
1, 45958, Control_c, 0, 64, 127
1, 46065, Note_on_c, 0, 78, 104
1, 46067, Note_on_c, 0, 47, 83
1, 46072, Note_on_c, 0, 51, 92
1, 46090, Note_off_c, 0, 77, 64
1, 46092, Control_c, 0, 64, 91
1, 46107, Control_c, 0, 64, 71
1, 46122, Control_c, 0, 64, 60
1, 46151, Control_c, 0, 64, 65
1, 46166, Control_c, 0, 64, 69
1, 46181, Control_c, 0, 64, 80
1, 46196, Control_c, 0, 64, 127
1, 46238, Note_off_c, 0, 51, 53
1, 46279, Note_off_c, 0, 47, 56
1, 46297, Note_off_c, 0, 78, 61
1, 46348, Note_on_c, 0, 46, 91
1, 46349, Note_on_c, 0, 53, 90
1, 46355, Note_on_c, 0, 80, 100
1, 46381, Control_c, 0, 64, 101
1, 46396, Control_c, 0, 64, 71
1, 46411, Control_c, 0, 64, 48
1, 46426, Control_c, 0, 64, 0
1, 46471, Control_c, 0, 64, 32
1, 46478, Note_off_c, 0, 53, 59
1, 46486, Control_c, 0, 64, 55
1, 46500, Control_c, 0, 64, 66
1, 46515, Control_c, 0, 64, 91
1, 46530, Control_c, 0, 64, 127
1, 46543, Note_off_c, 0, 46, 62
1, 46813, Note_on_c, 0, 39, 94
1, 46819, Note_on_c, 0, 27, 83
1, 46843, Note_on_c, 0, 82, 92
1, 46846, Note_on_c, 0, 78, 92
1, 46858, Note_on_c, 0, 40, 35
1, 46885, Control_c, 0, 64, 92
1, 46891, Note_off_c, 0, 40, 57
1, 46900, Control_c, 0, 64, 66
1, 46915, Control_c, 0, 64, 0
1, 46932, Note_off_c, 0, 80, 53
1, 47041, Note_off_c, 0, 27, 63
1, 47055, Control_c, 0, 64, 45
1, 47070, Control_c, 0, 64, 67
1, 47085, Control_c, 0, 64, 96
1, 47100, Control_c, 0, 64, 127
1, 47112, Note_off_c, 0, 39, 60
1, 47379, Note_on_c, 0, 63, 74
1, 47400, Note_on_c, 0, 54, 64
1, 47546, Note_off_c, 0, 54, 60
1, 47651, Note_on_c, 0, 65, 85
1, 47660, Note_on_c, 0, 58, 76
1, 47679, Note_off_c, 0, 63, 56
1, 47737, Note_off_c, 0, 65, 62
1, 47817, Poly_aftertouch_c, 0, 83, 127
1, 47842, Note_on_c, 0, 66, 91
1, 47857, Note_on_c, 0, 63, 73
1, 47924, Note_off_c, 0, 66, 61
1, 47933, Note_off_c, 0, 58, 55
1, 48000, Note_off_c, 0, 63, 61
1, 48003, Note_on_c, 0, 68, 90
1, 48009, Note_on_c, 0, 58, 80
1, 48086, Note_off_c, 0, 68, 60
1, 48160, Note_on_c, 0, 69, 92
1, 48168, Note_on_c, 0, 63, 79
1, 48188, Note_off_c, 0, 58, 57
1, 48222, Note_off_c, 0, 63, 63
1, 48301, Note_on_c, 0, 70, 86
1, 48310, Note_off_c, 0, 69, 59
1, 48311, Note_on_c, 0, 66, 72
1, 48427, Control_c, 0, 64, 105
1, 48431, Note_off_c, 0, 66, 51
1, 48442, Control_c, 0, 64, 84
1, 48456, Note_on_c, 0, 72, 88
1, 48457, Control_c, 0, 64, 71
1, 48460, Note_on_c, 0, 63, 82
1, 48480, Control_c, 0, 64, 68
1, 48492, Note_off_c, 0, 70, 58
1, 48495, Control_c, 0, 64, 71
1, 48509, Control_c, 0, 64, 78
1, 48524, Control_c, 0, 64, 89
1, 48539, Control_c, 0, 64, 99
1, 48545, Note_off_c, 0, 72, 63
1, 48553, Control_c, 0, 64, 94
1, 48568, Control_c, 0, 64, 84
1, 48583, Control_c, 0, 64, 76
1, 48598, Control_c, 0, 64, 71
1, 48613, Control_c, 0, 64, 73
1, 48622, Note_on_c, 0, 74, 86
1, 48627, Control_c, 0, 64, 78
1, 48631, Note_on_c, 0, 66, 73
1, 48642, Control_c, 0, 64, 86
1, 48651, Note_off_c, 0, 63, 60
1, 48657, Control_c, 0, 64, 115
1, 48672, Control_c, 0, 64, 127
1, 48691, Note_off_c, 0, 66, 62
1, 48728, Poly_aftertouch_c, 0, 83, 0
1, 48776, Control_c, 0, 64, 98
1, 48786, Note_on_c, 0, 70, 74
1, 48786, Note_off_c, 0, 74, 62
1, 48787, Note_on_c, 0, 75, 81
1, 48791, Control_c, 0, 64, 78
1, 48806, Control_c, 0, 64, 65
1, 48821, Control_c, 0, 64, 54
1, 48836, Control_c, 0, 64, 55
1, 48850, Control_c, 0, 64, 59
1, 48865, Control_c, 0, 64, 64
1, 48880, Control_c, 0, 64, 71
1, 48895, Control_c, 0, 64, 87
1, 48910, Control_c, 0, 64, 127
1, 48954, Control_c, 0, 64, 95
1, 48969, Control_c, 0, 64, 74
1, 48976, Note_on_c, 0, 77, 81
1, 48980, Note_on_c, 0, 68, 71
1, 48984, Control_c, 0, 64, 62
1, 48996, Note_off_c, 0, 75, 58
1, 48999, Control_c, 0, 64, 59
1, 49013, Control_c, 0, 64, 64
1, 49026, Note_off_c, 0, 70, 24
1, 49028, Control_c, 0, 64, 69
1, 49043, Control_c, 0, 64, 76
1, 49058, Control_c, 0, 64, 88
1, 49073, Control_c, 0, 64, 115
1, 49088, Control_c, 0, 64, 127
1, 49094, Note_off_c, 0, 68, 60
1, 49206, Control_c, 0, 64, 89
1, 49224, Note_on_c, 0, 75, 69
1, 49228, Control_c, 0, 64, 75
1, 49235, Note_on_c, 0, 66, 54
1, 49243, Control_c, 0, 64, 66
1, 49258, Control_c, 0, 64, 60
1, 49264, Note_off_c, 0, 77, 57
1, 49268, Note_off_c, 0, 78, 50
1, 49273, Control_c, 0, 64, 60
1, 49288, Control_c, 0, 64, 61
1, 49302, Control_c, 0, 64, 62
1, 49317, Control_c, 0, 64, 64
1, 49332, Control_c, 0, 64, 66
1, 49347, Control_c, 0, 64, 70
1, 49362, Control_c, 0, 64, 78
1, 49376, Control_c, 0, 64, 88
1, 49391, Control_c, 0, 64, 96
1, 49406, Control_c, 0, 64, 91
1, 49421, Control_c, 0, 64, 81
1, 49436, Control_c, 0, 64, 70
1, 49450, Control_c, 0, 64, 63
1, 49465, Control_c, 0, 64, 61
1, 49480, Control_c, 0, 64, 64
1, 49494, Control_c, 0, 64, 66
1, 49509, Control_c, 0, 64, 70
1, 49526, Control_c, 0, 64, 77
1, 49540, Control_c, 0, 64, 85
1, 49555, Control_c, 0, 64, 89
1, 49585, Control_c, 0, 64, 87
1, 49599, Control_c, 0, 64, 86
1, 49614, Control_c, 0, 64, 84
1, 49629, Control_c, 0, 64, 83
1, 49644, Control_c, 0, 64, 81
1, 49659, Control_c, 0, 64, 79
1, 49673, Note_on_c, 0, 78, 46
1, 49673, Control_c, 0, 64, 78
1, 49681, Note_on_c, 0, 70, 42
1, 49688, Control_c, 0, 64, 77
1, 49703, Control_c, 0, 64, 76
1, 49718, Control_c, 0, 64, 74
1, 49733, Control_c, 0, 64, 72
1, 49747, Control_c, 0, 64, 70
1, 49762, Control_c, 0, 64, 69
1, 49777, Control_c, 0, 64, 68
1, 49792, Control_c, 0, 64, 67
1, 49800, Note_off_c, 0, 66, 35
1, 49806, Control_c, 0, 64, 66
1, 49821, Control_c, 0, 64, 65
1, 49832, Note_off_c, 0, 75, 34
1, 49836, Control_c, 0, 64, 64
1, 49851, Control_c, 0, 64, 63
1, 49866, Control_c, 0, 64, 62
1, 49881, Control_c, 0, 64, 62
1, 49896, Control_c, 0, 64, 61
1, 49911, Control_c, 0, 64, 61
1, 49925, Control_c, 0, 64, 60
1, 49940, Control_c, 0, 64, 59
1, 49955, Control_c, 0, 64, 58
1, 49977, Control_c, 0, 64, 56
1, 49992, Control_c, 0, 64, 54
1, 50006, Control_c, 0, 64, 50
1, 50021, Control_c, 0, 64, 47
1, 50036, Control_c, 0, 64, 46
1, 50066, Control_c, 0, 64, 48
1, 50081, Control_c, 0, 64, 51
1, 50096, Control_c, 0, 64, 54
1, 50110, Control_c, 0, 64, 57
1, 50125, Control_c, 0, 64, 60
1, 50140, Control_c, 0, 64, 63
1, 50155, Control_c, 0, 64, 65
1, 50170, Control_c, 0, 64, 68
1, 50184, Note_off_c, 0, 70, 30
1, 50185, Control_c, 0, 64, 71
1, 50199, Control_c, 0, 64, 75
1, 50214, Control_c, 0, 64, 78
1, 50229, Control_c, 0, 64, 81
1, 50244, Control_c, 0, 64, 83
1, 50259, Control_c, 0, 64, 84
1, 50299, Note_off_c, 0, 78, 49
1, 50311, Note_off_c, 0, 82, 31
1, 50319, Control_c, 0, 64, 83
1, 50334, Control_c, 0, 64, 82
1, 50348, Control_c, 0, 64, 82
1, 50363, Control_c, 0, 64, 81
1, 50378, Control_c, 0, 64, 81
1, 50393, Control_c, 0, 64, 80
1, 50408, Control_c, 0, 64, 79
1, 50422, Control_c, 0, 64, 79
1, 50437, Control_c, 0, 64, 78
1, 50452, Control_c, 0, 64, 77
1, 50482, Control_c, 0, 64, 77
1, 50496, Control_c, 0, 64, 76
1, 50511, Control_c, 0, 64, 75
1, 50526, Control_c, 0, 64, 75
1, 50540, Control_c, 0, 64, 74
1, 50555, Control_c, 0, 64, 74
1, 50570, Control_c, 0, 64, 73
1, 50585, Control_c, 0, 64, 72
1, 50614, Control_c, 0, 64, 72
1, 50629, Control_c, 0, 64, 71
1, 50644, Control_c, 0, 64, 71
1, 50674, Control_c, 0, 64, 70
1, 50704, Control_c, 0, 64, 70
1, 50726, Control_c, 0, 64, 69
1, 50755, Control_c, 0, 64, 69
1, 50785, Control_c, 0, 64, 68
1, 50800, Control_c, 0, 64, 68
1, 50815, Control_c, 0, 64, 67
1, 50844, Control_c, 0, 64, 67
1, 50874, Control_c, 0, 64, 66
1, 50889, Control_c, 0, 64, 66
1, 50948, Control_c, 0, 64, 65
1, 50978, Control_c, 0, 64, 65
1, 51022, Control_c, 0, 64, 64
1, 51067, Control_c, 0, 64, 64
1, 51157, Control_c, 0, 64, 63
1, 51216, Control_c, 0, 64, 63
1, 51319, Control_c, 0, 64, 62
1, 51534, Control_c, 0, 64, 62
1, 51816, Control_c, 0, 64, 62
1, 51994, Control_c, 0, 64, 63
1, 52083, Control_c, 0, 64, 63
1, 52128, Control_c, 0, 64, 64
1, 52172, Control_c, 0, 64, 64
1, 52201, Control_c, 0, 64, 65
1, 52239, Control_c, 0, 64, 65
1, 52254, Control_c, 0, 64, 66
1, 52268, Control_c, 0, 64, 66
1, 52283, Control_c, 0, 64, 67
1, 52298, Control_c, 0, 64, 68
1, 52313, Control_c, 0, 64, 69
1, 52328, Control_c, 0, 64, 70
1, 52342, Control_c, 0, 64, 71
1, 52357, Control_c, 0, 64, 72
1, 52372, Control_c, 0, 64, 73
1, 52386, Control_c, 0, 64, 75
1, 52400, Control_c, 0, 64, 78
1, 52415, Control_c, 0, 64, 81
1, 52430, Control_c, 0, 64, 84
1, 52445, Control_c, 0, 64, 87
1, 52459, Control_c, 0, 64, 91
1, 52474, Control_c, 0, 64, 97
1, 52489, Control_c, 0, 64, 106
1, 52504, Control_c, 0, 64, 127
1, 52820, Note_on_c, 0, 66, 63
1, 53367, Note_on_c, 0, 58, 68
1, 53386, Control_c, 0, 64, 120
1, 53401, Control_c, 0, 64, 99
1, 53416, Control_c, 0, 64, 88
1, 53431, Control_c, 0, 64, 81
1, 53446, Control_c, 0, 64, 75
1, 53461, Control_c, 0, 64, 71
1, 53476, Control_c, 0, 64, 67
1, 53490, Control_c, 0, 64, 64
1, 53506, Control_c, 0, 64, 62
1, 53521, Control_c, 0, 64, 61
1, 53565, Control_c, 0, 64, 62
1, 53572, Note_off_c, 0, 66, 48
1, 53580, Control_c, 0, 64, 63
1, 53595, Control_c, 0, 64, 65
1, 53610, Control_c, 0, 64, 68
1, 53625, Control_c, 0, 64, 72
1, 53639, Control_c, 0, 64, 82
1, 53654, Control_c, 0, 64, 101
1, 53669, Control_c, 0, 64, 127
1, 53755, Note_on_c, 0, 60, 82
1, 53795, Control_c, 0, 64, 120
1, 53810, Control_c, 0, 64, 100
1, 53825, Control_c, 0, 64, 86
1, 53839, Control_c, 0, 64, 73
1, 53854, Control_c, 0, 64, 63
1, 53869, Control_c, 0, 64, 52
1, 53871, Note_off_c, 0, 58, 58
1, 53884, Control_c, 0, 64, 52
1, 53899, Control_c, 0, 64, 54
1, 53913, Control_c, 0, 64, 57
1, 53928, Control_c, 0, 64, 60
1, 53943, Control_c, 0, 64, 63
1, 53958, Control_c, 0, 64, 69
1, 53972, Control_c, 0, 64, 79
1, 53987, Control_c, 0, 64, 102
1, 54002, Control_c, 0, 64, 127
1, 54045, Note_on_c, 0, 62, 83
1, 54091, Control_c, 0, 64, 94
1, 54106, Control_c, 0, 64, 77
1, 54120, Control_c, 0, 64, 65
1, 54135, Control_c, 0, 64, 55
1, 54150, Control_c, 0, 64, 48
1, 54164, Control_c, 0, 64, 48
1, 54172, Note_off_c, 0, 60, 58
1, 54179, Control_c, 0, 64, 47
1, 54209, Control_c, 0, 64, 49
1, 54224, Control_c, 0, 64, 53
1, 54239, Control_c, 0, 64, 58
1, 54254, Control_c, 0, 64, 63
1, 54269, Control_c, 0, 64, 68
1, 54284, Control_c, 0, 64, 77
1, 54299, Control_c, 0, 64, 93
1, 54314, Control_c, 0, 64, 127
1, 54355, Note_on_c, 0, 63, 83
1, 54388, Control_c, 0, 64, 110
1, 54403, Control_c, 0, 64, 101
1, 54418, Control_c, 0, 64, 93
1, 54433, Control_c, 0, 64, 87
1, 54448, Control_c, 0, 64, 83
1, 54469, Control_c, 0, 64, 80
1, 54484, Control_c, 0, 64, 76
1, 54499, Control_c, 0, 64, 71
1, 54514, Control_c, 0, 64, 68
1, 54529, Control_c, 0, 64, 64
1, 54543, Control_c, 0, 64, 61
1, 54553, Note_off_c, 0, 62, 55
1, 54558, Control_c, 0, 64, 58
1, 54573, Control_c, 0, 64, 55
1, 54588, Control_c, 0, 64, 49
1, 54603, Control_c, 0, 64, 42
1, 54618, Control_c, 0, 64, 32
1, 54632, Control_c, 0, 64, 32
1, 54647, Control_c, 0, 64, 34
1, 54662, Control_c, 0, 64, 40
1, 54677, Control_c, 0, 64, 48
1, 54692, Control_c, 0, 64, 54
1, 54707, Control_c, 0, 64, 60
1, 54722, Control_c, 0, 64, 64
1, 54736, Control_c, 0, 64, 68
1, 54751, Control_c, 0, 64, 73
1, 54766, Control_c, 0, 64, 83
1, 54781, Control_c, 0, 64, 98
1, 54795, Control_c, 0, 64, 127
1, 55029, Note_on_c, 0, 65, 77
1, 55077, Control_c, 0, 64, 109
1, 55092, Control_c, 0, 64, 101
1, 55107, Control_c, 0, 64, 96
1, 55122, Control_c, 0, 64, 92
1, 55137, Control_c, 0, 64, 89
1, 55151, Control_c, 0, 64, 87
1, 55166, Control_c, 0, 64, 84
1, 55181, Control_c, 0, 64, 81
1, 55196, Control_c, 0, 64, 78
1, 55218, Control_c, 0, 64, 76
1, 55223, Note_off_c, 0, 63, 56
1, 55233, Control_c, 0, 64, 73
1, 55248, Control_c, 0, 64, 71
1, 55263, Control_c, 0, 64, 69
1, 55278, Control_c, 0, 64, 68
1, 55292, Control_c, 0, 64, 66
1, 55307, Control_c, 0, 64, 66
1, 55322, Control_c, 0, 64, 65
1, 55337, Control_c, 0, 64, 64
1, 55352, Control_c, 0, 64, 63
1, 55366, Control_c, 0, 64, 62
1, 55381, Control_c, 0, 64, 61
1, 55396, Control_c, 0, 64, 59
1, 55410, Control_c, 0, 64, 58
1, 55425, Control_c, 0, 64, 58
1, 55440, Control_c, 0, 64, 57
1, 55470, Control_c, 0, 64, 58
1, 55484, Control_c, 0, 64, 58
1, 55499, Control_c, 0, 64, 59
1, 55514, Control_c, 0, 64, 60
1, 55529, Control_c, 0, 64, 61
1, 55544, Control_c, 0, 64, 62
1, 55559, Control_c, 0, 64, 63
1, 55573, Control_c, 0, 64, 64
1, 55588, Control_c, 0, 64, 66
1, 55603, Control_c, 0, 64, 67
1, 55617, Control_c, 0, 64, 70
1, 55632, Control_c, 0, 64, 75
1, 55647, Control_c, 0, 64, 80
1, 55662, Control_c, 0, 64, 84
1, 55677, Control_c, 0, 64, 87
1, 55691, Control_c, 0, 64, 88
1, 55706, Control_c, 0, 64, 90
1, 55721, Control_c, 0, 64, 92
1, 55735, Control_c, 0, 64, 92
1, 55810, Control_c, 0, 64, 92
1, 55825, Control_c, 0, 64, 91
1, 55855, Control_c, 0, 64, 90
1, 55870, Control_c, 0, 64, 89
1, 55884, Control_c, 0, 64, 89
1, 55890, Note_on_c, 0, 66, 63
1, 55899, Control_c, 0, 64, 88
1, 55914, Control_c, 0, 64, 87
1, 55929, Control_c, 0, 64, 86
1, 55944, Control_c, 0, 64, 85
1, 55967, Control_c, 0, 64, 85
1, 55981, Control_c, 0, 64, 84
1, 55996, Control_c, 0, 64, 84
1, 56011, Control_c, 0, 64, 83
1, 56026, Control_c, 0, 64, 82
1, 56040, Control_c, 0, 64, 82
1, 56055, Control_c, 0, 64, 81
1, 56085, Control_c, 0, 64, 81
1, 56114, Control_c, 0, 64, 80
1, 56123, Note_off_c, 0, 65, 48
1, 56129, Control_c, 0, 64, 80
1, 56144, Control_c, 0, 64, 79
1, 56174, Control_c, 0, 64, 79
1, 56189, Control_c, 0, 64, 78
1, 56203, Control_c, 0, 64, 77
1, 56218, Control_c, 0, 64, 76
1, 56233, Control_c, 0, 64, 75
1, 56248, Control_c, 0, 64, 74
1, 56278, Control_c, 0, 64, 74
1, 56308, Control_c, 0, 64, 73
1, 56322, Control_c, 0, 64, 73
1, 56325, Note_on_c, 0, 68, 74
1, 56337, Control_c, 0, 64, 72
1, 56366, Control_c, 0, 64, 72
1, 56396, Control_c, 0, 64, 71
1, 56411, Control_c, 0, 64, 71
1, 56455, Control_c, 0, 64, 70
1, 56469, Note_off_c, 0, 66, 60
1, 56485, Control_c, 0, 64, 70
1, 56514, Control_c, 0, 64, 69
1, 56544, Control_c, 0, 64, 69
1, 56573, Control_c, 0, 64, 68
1, 56588, Control_c, 0, 64, 68
1, 56603, Control_c, 0, 64, 67
1, 56618, Control_c, 0, 64, 66
1, 56633, Control_c, 0, 64, 66
1, 56635, Note_on_c, 0, 69, 82
1, 56648, Control_c, 0, 64, 65
1, 56662, Control_c, 0, 64, 64
1, 56692, Control_c, 0, 64, 64
1, 56716, Control_c, 0, 64, 63
1, 56745, Control_c, 0, 64, 63
1, 56773, Note_off_c, 0, 68, 60
1, 56775, Control_c, 0, 64, 62
1, 56805, Control_c, 0, 64, 62
1, 56849, Control_c, 0, 64, 61
1, 56878, Control_c, 0, 64, 61
1, 56909, Control_c, 0, 64, 60
1, 56924, Control_c, 0, 64, 60
1, 56938, Control_c, 0, 64, 59
1, 56953, Control_c, 0, 64, 59
1, 56968, Control_c, 0, 64, 58
1, 56982, Control_c, 0, 64, 58
1, 56990, Note_on_c, 0, 70, 69
1, 56997, Control_c, 0, 64, 57
1, 57012, Control_c, 0, 64, 57
1, 57027, Control_c, 0, 64, 56
1, 57057, Control_c, 0, 64, 56
1, 57086, Control_c, 0, 64, 55
1, 57145, Control_c, 0, 64, 55
1, 57148, Note_off_c, 0, 69, 55
1, 57175, Control_c, 0, 64, 54
1, 57475, Note_on_c, 0, 71, 63
1, 57494, Control_c, 0, 64, 54
1, 57569, Control_c, 0, 64, 53
1, 57655, Note_off_c, 0, 70, 51
1, 57673, Control_c, 0, 64, 53
1, 57820, Control_c, 0, 64, 53
1, 57835, Control_c, 0, 64, 54
1, 57850, Control_c, 0, 64, 54
1, 57865, Control_c, 0, 64, 55
1, 57879, Control_c, 0, 64, 55
1, 57894, Control_c, 0, 64, 56
1, 57909, Control_c, 0, 64, 56
1, 57924, Control_c, 0, 64, 57
1, 57939, Control_c, 0, 64, 58
1, 57953, Control_c, 0, 64, 58
1, 57968, Control_c, 0, 64, 59
1, 57983, Control_c, 0, 64, 60
1, 57998, Control_c, 0, 64, 61
1, 58013, Control_c, 0, 64, 61
1, 58027, Note_on_c, 0, 63, 28
1, 58028, Control_c, 0, 64, 62
1, 58034, Note_on_c, 0, 57, 29
1, 58043, Control_c, 0, 64, 64
1, 58044, Note_on_c, 0, 53, 30
1, 58058, Control_c, 0, 64, 65
1, 58072, Control_c, 0, 64, 66
1, 58087, Control_c, 0, 64, 68
1, 58102, Control_c, 0, 64, 70
1, 58117, Control_c, 0, 64, 73
1, 58132, Control_c, 0, 64, 76
1, 58146, Control_c, 0, 64, 80
1, 58161, Control_c, 0, 64, 84
1, 58176, Control_c, 0, 64, 89
1, 58191, Control_c, 0, 64, 95
1, 58213, Control_c, 0, 64, 102
1, 58227, Control_c, 0, 64, 115
1, 58242, Control_c, 0, 64, 127
1, 58791, Control_c, 0, 64, 119
1, 58804, Note_on_c, 0, 72, 41
1, 58806, Control_c, 0, 64, 104
1, 58821, Control_c, 0, 64, 98
1, 58836, Control_c, 0, 64, 94
1, 58850, Control_c, 0, 64, 91
1, 58865, Control_c, 0, 64, 88
1, 58880, Control_c, 0, 64, 82
1, 58895, Control_c, 0, 64, 74
1, 58910, Control_c, 0, 64, 66
1, 58925, Control_c, 0, 64, 58
1, 58940, Control_c, 0, 64, 49
1, 58955, Note_off_c, 0, 71, 57
1, 58961, Control_c, 0, 64, 47
1, 58991, Control_c, 0, 64, 48
1, 59006, Control_c, 0, 64, 52
1, 59021, Control_c, 0, 64, 55
1, 59035, Control_c, 0, 64, 57
1, 59050, Control_c, 0, 64, 61
1, 59065, Control_c, 0, 64, 64
1, 59080, Control_c, 0, 64, 67
1, 59095, Control_c, 0, 64, 72
1, 59111, Control_c, 0, 64, 78
1, 59126, Control_c, 0, 64, 87
1, 59140, Control_c, 0, 64, 96
1, 59155, Control_c, 0, 64, 107
1, 59170, Control_c, 0, 64, 120
1, 59185, Control_c, 0, 64, 127
1, 59219, Note_off_c, 0, 63, 40
1, 59253, Note_off_c, 0, 57, 40
1, 59320, Note_off_c, 0, 53, 38
1, 59352, Note_off_c, 0, 72, 36
1, 59393, Control_c, 0, 67, 11
1, 59407, Control_c, 0, 67, 25
1, 59422, Control_c, 0, 67, 39
1, 59437, Control_c, 0, 67, 53
1, 59451, Control_c, 0, 67, 63
1, 59466, Control_c, 0, 67, 72
1, 59481, Control_c, 0, 67, 81
1, 59496, Control_c, 0, 67, 90
1, 59511, Control_c, 0, 67, 98
1, 59525, Control_c, 0, 67, 106
1, 59540, Control_c, 0, 67, 112
1, 59555, Control_c, 0, 67, 117
1, 59570, Control_c, 0, 67, 122
1, 59584, Control_c, 0, 67, 124
1, 59599, Control_c, 0, 67, 125
1, 59740, Control_c, 0, 64, 122
1, 59755, Control_c, 0, 64, 119
1, 59770, Control_c, 0, 64, 116
1, 59784, Control_c, 0, 64, 115
1, 59814, Control_c, 0, 64, 114
1, 59814, Control_c, 0, 67, 124
1, 59829, Control_c, 0, 64, 112
1, 59844, Control_c, 0, 64, 110
1, 59858, Control_c, 0, 64, 109
1, 59873, Control_c, 0, 64, 108
1, 59888, Control_c, 0, 64, 107
1, 59903, Control_c, 0, 64, 104
1, 59903, Control_c, 0, 67, 124
1, 59918, Control_c, 0, 64, 101
1, 59918, Control_c, 0, 67, 123
1, 59933, Control_c, 0, 64, 98
1, 59947, Control_c, 0, 64, 95
1, 59962, Control_c, 0, 64, 92
1, 59965, Note_on_c, 0, 34, 39
1, 59977, Control_c, 0, 64, 88
1, 59992, Control_c, 0, 64, 84
1, 59992, Control_c, 0, 67, 122
1, 60007, Control_c, 0, 64, 80
1, 60022, Control_c, 0, 64, 76
1, 60037, Control_c, 0, 64, 72
1, 60052, Control_c, 0, 64, 66
1, 60067, Control_c, 0, 64, 60
1, 60067, Control_c, 0, 67, 122
1, 60081, Control_c, 0, 64, 50
1, 60081, Control_c, 0, 67, 121
1, 60096, Control_c, 0, 64, 47
1, 60111, Control_c, 0, 67, 120
1, 60126, Control_c, 0, 64, 48
1, 60126, Control_c, 0, 67, 120
1, 60141, Control_c, 0, 64, 51
1, 60141, Control_c, 0, 67, 119
1, 60155, Control_c, 0, 64, 54
1, 60155, Control_c, 0, 67, 119
1, 60170, Control_c, 0, 64, 58
1, 60185, Control_c, 0, 64, 62
1, 60199, Control_c, 0, 64, 66
1, 60214, Control_c, 0, 64, 70
1, 60229, Control_c, 0, 64, 76
1, 60229, Control_c, 0, 67, 118
1, 60244, Control_c, 0, 64, 84
1, 60244, Control_c, 0, 67, 117
1, 60259, Control_c, 0, 64, 96
1, 60267, Note_off_c, 0, 34, 42
1, 60273, Control_c, 0, 64, 116
1, 60273, Control_c, 0, 67, 117
1, 60288, Control_c, 0, 64, 127
1, 60474, Control_c, 0, 67, 116
1, 60518, Control_c, 0, 67, 115
1, 60548, Control_c, 0, 67, 115
1, 60637, Control_c, 0, 67, 114
1, 60757, Control_c, 0, 67, 114
1, 60854, Note_on_c, 0, 73, 37
1, 60934, Control_c, 0, 67, 113
1, 61142, Control_c, 0, 67, 112
1, 61210, Note_on_c, 0, 53, 27
1, 61286, Note_on_c, 0, 65, 39
1, 61411, Note_off_c, 0, 73, 34
1, 61630, Note_off_c, 0, 65, 35
1, 61648, Note_on_c, 0, 67, 45
1, 61842, Note_off_c, 0, 53, 11
1, 61915, Note_on_c, 0, 69, 50
1, 61922, Note_on_c, 0, 65, 33
1, 61967, Note_on_c, 0, 61, 25
1, 62050, Note_off_c, 0, 67, 40
1, 62113, Note_off_c, 0, 69, 53
1, 62186, Note_off_c, 0, 65, 39
1, 62199, Note_on_c, 0, 70, 60
1, 62209, Control_c, 0, 67, 113
1, 62444, Note_on_c, 0, 53, 41
1, 62521, Control_c, 0, 67, 114
1, 62533, Note_off_c, 0, 61, 40
1, 62629, Note_off_c, 0, 53, 43
1, 62749, Note_on_c, 0, 72, 56
1, 62841, Note_off_c, 0, 70, 63
1, 62958, Control_c, 0, 67, 114
1, 63002, Control_c, 0, 64, 122
1, 63017, Control_c, 0, 64, 108
1, 63032, Control_c, 0, 64, 100
1, 63042, Note_on_c, 0, 34, 28
1, 63047, Control_c, 0, 64, 93
1, 63062, Control_c, 0, 64, 87
1, 63076, Control_c, 0, 64, 80
1, 63089, Note_on_c, 0, 70, 64
1, 63091, Control_c, 0, 64, 71
1, 63107, Control_c, 0, 64, 63
1, 63122, Control_c, 0, 64, 53
1, 63137, Control_c, 0, 64, 50
1, 63152, Control_c, 0, 64, 52
1, 63167, Control_c, 0, 64, 54
1, 63181, Control_c, 0, 64, 58
1, 63196, Control_c, 0, 64, 61
1, 63211, Control_c, 0, 64, 64
1, 63226, Control_c, 0, 64, 69
1, 63241, Control_c, 0, 64, 78
1, 63255, Control_c, 0, 64, 95
1, 63261, Note_off_c, 0, 72, 61
1, 63270, Control_c, 0, 64, 127
1, 63326, Note_off_c, 0, 34, 41
1, 63388, Control_c, 0, 67, 114
1, 63479, Note_on_c, 0, 73, 56
1, 63499, Control_c, 0, 67, 113
1, 63544, Control_c, 0, 67, 112
1, 63617, Control_c, 0, 67, 112
1, 63661, Control_c, 0, 67, 111
1, 63705, Control_c, 0, 67, 110
1, 63740, Note_on_c, 0, 75, 65
1, 63754, Note_on_c, 0, 53, 37
1, 63899, Control_c, 0, 67, 110
1, 63991, Note_on_c, 0, 76, 73
1, 64000, Note_off_c, 0, 73, 36
1, 64004, Note_off_c, 0, 70, 31
1, 64049, Note_off_c, 0, 75, 61
1, 64126, Note_off_c, 0, 76, 63
1, 64212, Note_on_c, 0, 65, 41
1, 64217, Note_on_c, 0, 61, 38
1, 64269, Note_on_c, 0, 69, 54
1, 64271, Note_on_c, 0, 77, 61
1, 64276, Control_c, 0, 64, 125
1, 64291, Control_c, 0, 64, 101
1, 64306, Control_c, 0, 64, 93
1, 64320, Note_off_c, 0, 53, 22
1, 64320, Control_c, 0, 64, 88
1, 64320, Control_c, 0, 67, 109
1, 64335, Control_c, 0, 64, 85
1, 64350, Control_c, 0, 64, 82
1, 64365, Control_c, 0, 64, 79
1, 64381, Control_c, 0, 64, 75
1, 64395, Control_c, 0, 64, 69
1, 64410, Control_c, 0, 64, 64
1, 64425, Control_c, 0, 64, 57
1, 64440, Control_c, 0, 64, 52
1, 64469, Control_c, 0, 64, 52
1, 64484, Control_c, 0, 64, 53
1, 64499, Control_c, 0, 64, 55
1, 64514, Control_c, 0, 64, 58
1, 64529, Control_c, 0, 64, 61
1, 64544, Control_c, 0, 64, 63
1, 64559, Control_c, 0, 64, 67
1, 64574, Control_c, 0, 64, 73
1, 64588, Control_c, 0, 64, 84
1, 64603, Control_c, 0, 64, 99
1, 64618, Control_c, 0, 64, 127
1, 64641, Note_on_c, 0, 78, 47
1, 64756, Note_off_c, 0, 77, 54
1, 64797, Note_off_c, 0, 69, 34
1, 64826, Control_c, 0, 67, 109
1, 64871, Note_on_c, 0, 53, 40
1, 64931, Note_off_c, 0, 65, 38
1, 65021, Note_off_c, 0, 61, 52
1, 65095, Note_off_c, 0, 53, 41
1, 65174, Note_on_c, 0, 77, 51
1, 65322, Note_off_c, 0, 78, 36
1, 65426, Control_c, 0, 64, 117
1, 65441, Control_c, 0, 64, 111
1, 65452, Note_on_c, 0, 34, 37
1, 65456, Control_c, 0, 64, 107
1, 65470, Control_c, 0, 64, 104
1, 65485, Control_c, 0, 64, 101
1, 65489, Note_on_c, 0, 68, 59
1, 65501, Control_c, 0, 64, 95
1, 65516, Control_c, 0, 64, 85
1, 65531, Control_c, 0, 64, 73
1, 65546, Control_c, 0, 64, 64
1, 65560, Control_c, 0, 64, 53
1, 65575, Control_c, 0, 64, 54
1, 65590, Control_c, 0, 64, 57
1, 65605, Control_c, 0, 64, 59
1, 65620, Control_c, 0, 64, 61
1, 65635, Control_c, 0, 64, 65
1, 65649, Control_c, 0, 64, 70
1, 65664, Control_c, 0, 64, 81
1, 65671, Note_off_c, 0, 34, 42
1, 65679, Control_c, 0, 64, 104
1, 65701, Control_c, 0, 64, 127
1, 65881, Note_on_c, 0, 75, 51
1, 66135, Note_on_c, 0, 51, 39
1, 66135, Note_on_c, 0, 73, 59
1, 66270, Note_off_c, 0, 51, 35
1, 66308, Control_c, 0, 67, 109
1, 66347, Note_off_c, 0, 68, 28
1, 66369, Note_on_c, 0, 72, 66
1, 66399, Note_off_c, 0, 77, 35
1, 66420, Note_off_c, 0, 75, 29
1, 66446, Note_off_c, 0, 73, 57
1, 66608, Note_on_c, 0, 70, 37
1, 66618, Note_on_c, 0, 63, 35
1, 66620, Note_on_c, 0, 58, 30
1, 66627, Control_c, 0, 64, 112
1, 66635, Note_on_c, 0, 67, 49
1, 66641, Control_c, 0, 64, 104
1, 66649, Note_on_c, 0, 75, 50
1, 66656, Control_c, 0, 64, 99
1, 66671, Control_c, 0, 64, 94
1, 66686, Control_c, 0, 64, 86
1, 66695, Note_off_c, 0, 72, 53
1, 66701, Control_c, 0, 64, 77
1, 66715, Control_c, 0, 64, 65
1, 66730, Control_c, 0, 64, 55
1, 66745, Control_c, 0, 64, 46
1, 66760, Control_c, 0, 64, 47
1, 66775, Control_c, 0, 64, 48
1, 66789, Control_c, 0, 64, 52
1, 66804, Control_c, 0, 64, 57
1, 66819, Control_c, 0, 64, 61
1, 66834, Control_c, 0, 64, 66
1, 66848, Control_c, 0, 64, 71
1, 66863, Control_c, 0, 64, 81
1, 66878, Control_c, 0, 64, 95
1, 66883, Note_off_c, 0, 70, 36
1, 66893, Control_c, 0, 64, 127
1, 66951, Note_off_c, 0, 63, 41
1, 66969, Note_off_c, 0, 58, 51
1, 67006, Note_on_c, 0, 77, 47
1, 67056, Control_c, 0, 67, 109
1, 67069, Note_off_c, 0, 67, 33
1, 67123, Note_off_c, 0, 75, 37
1, 67146, Control_c, 0, 67, 108
1, 67241, Note_on_c, 0, 51, 36
1, 67272, Control_c, 0, 67, 107
1, 67402, Note_off_c, 0, 51, 39
1, 67501, Note_on_c, 0, 75, 50
1, 67552, Note_off_c, 0, 77, 58
1, 67777, Note_on_c, 0, 34, 37
1, 67790, Control_c, 0, 64, 112
1, 67805, Control_c, 0, 64, 99
1, 67820, Control_c, 0, 64, 87
1, 67835, Control_c, 0, 64, 75
1, 67839, Note_on_c, 0, 66, 48
1, 67850, Control_c, 0, 64, 68
1, 67864, Control_c, 0, 64, 62
1, 67879, Control_c, 0, 64, 59
1, 67895, Control_c, 0, 64, 60
1, 67909, Control_c, 0, 64, 61
1, 67924, Control_c, 0, 64, 63
1, 67947, Control_c, 0, 64, 66
1, 67962, Control_c, 0, 64, 72
1, 67976, Control_c, 0, 64, 83
1, 67991, Control_c, 0, 64, 105
1, 68006, Control_c, 0, 64, 127
1, 68014, Note_off_c, 0, 34, 41
1, 68160, Note_on_c, 0, 73, 45
1, 68406, Note_on_c, 0, 72, 53
1, 68413, Note_on_c, 0, 54, 35
1, 68537, Note_off_c, 0, 54, 36
1, 68634, Note_off_c, 0, 73, 27
1, 68656, Note_on_c, 0, 70, 62
1, 68701, Note_off_c, 0, 72, 58
1, 68717, Note_off_c, 0, 66, 28
1, 68786, Note_off_c, 0, 75, 11
1, 68898, Note_on_c, 0, 69, 24
1, 68918, Control_c, 0, 64, 125
1, 68919, Note_on_c, 0, 63, 26
1, 68922, Note_on_c, 0, 57, 27
1, 68926, Note_on_c, 0, 65, 47
1, 68933, Control_c, 0, 64, 108
1, 68947, Note_on_c, 0, 73, 47
1, 68948, Control_c, 0, 64, 99
1, 68963, Control_c, 0, 64, 94
1, 68978, Control_c, 0, 64, 90
1, 68989, Note_off_c, 0, 70, 35
1, 68992, Control_c, 0, 64, 85
1, 69007, Control_c, 0, 64, 79
1, 69022, Control_c, 0, 64, 72
1, 69037, Control_c, 0, 64, 63
1, 69052, Control_c, 0, 64, 55
1, 69066, Control_c, 0, 64, 47
1, 69081, Control_c, 0, 64, 47
1, 69111, Control_c, 0, 64, 48
1, 69126, Control_c, 0, 64, 50
1, 69141, Control_c, 0, 64, 55
1, 69155, Control_c, 0, 64, 60
1, 69170, Control_c, 0, 64, 64
1, 69185, Control_c, 0, 64, 68
1, 69200, Control_c, 0, 64, 75
1, 69209, Note_off_c, 0, 69, 41
1, 69215, Control_c, 0, 64, 85
1, 69229, Control_c, 0, 64, 105
1, 69244, Control_c, 0, 64, 127
1, 69299, Note_on_c, 0, 75, 41
1, 69307, Note_off_c, 0, 63, 38
1, 69440, Note_off_c, 0, 73, 36
1, 69564, Control_c, 0, 67, 107
1, 69571, Note_on_c, 0, 53, 31
1, 69737, Note_off_c, 0, 57, 41
1, 69794, Note_off_c, 0, 53, 42
1, 69918, Note_on_c, 0, 73, 38
1, 70146, Note_off_c, 0, 75, 31
1, 70208, Control_c, 0, 64, 119
1, 70223, Control_c, 0, 64, 111
1, 70238, Control_c, 0, 64, 102
1, 70242, Note_on_c, 0, 34, 32
1, 70252, Control_c, 0, 64, 88
1, 70267, Control_c, 0, 64, 75
1, 70282, Control_c, 0, 64, 64
1, 70297, Control_c, 0, 64, 54
1, 70312, Control_c, 0, 64, 53
1, 70327, Control_c, 0, 64, 56
1, 70342, Control_c, 0, 64, 58
1, 70357, Control_c, 0, 64, 61
1, 70371, Control_c, 0, 64, 64
1, 70386, Control_c, 0, 64, 69
1, 70401, Control_c, 0, 64, 77
1, 70416, Control_c, 0, 64, 94
1, 70431, Control_c, 0, 64, 127
1, 70435, Note_off_c, 0, 34, 41
1, 70509, Note_off_c, 0, 73, 26
1, 70657, Note_on_c, 0, 72, 38
1, 70911, Note_on_c, 0, 70, 48
1, 70962, Note_on_c, 0, 53, 32
1, 71122, Note_off_c, 0, 65, 37
1, 71160, Note_on_c, 0, 67, 50
1, 71257, Note_off_c, 0, 70, 37
1, 71363, Note_off_c, 0, 72, 42
1, 71391, Note_off_c, 0, 53, 36
1, 71402, Note_on_c, 0, 64, 60
1, 71439, Note_on_c, 0, 69, 52
1, 71452, Note_on_c, 0, 61, 37
1, 71460, Note_on_c, 0, 58, 30
1, 71507, Note_off_c, 0, 67, 30
1, 71750, Note_on_c, 0, 70, 57
1, 71928, Control_c, 0, 67, 107
1, 71969, Note_on_c, 0, 53, 45
1, 71988, Control_c, 0, 67, 108
1, 72032, Control_c, 0, 67, 109
1, 72040, Note_off_c, 0, 64, 57
1, 72062, Control_c, 0, 67, 109
1, 72094, Note_off_c, 0, 61, 55
1, 72133, Note_off_c, 0, 58, 41
1, 72136, Control_c, 0, 67, 110
1, 72163, Note_off_c, 0, 53, 45
1, 72196, Control_c, 0, 67, 110
1, 72210, Control_c, 0, 67, 111
1, 72233, Note_on_c, 0, 72, 66
1, 72270, Control_c, 0, 67, 112
1, 72336, Note_off_c, 0, 69, 41
1, 72342, Note_off_c, 0, 70, 53
1, 72482, Note_on_c, 0, 34, 38
1, 72514, Control_c, 0, 64, 125
1, 72529, Control_c, 0, 64, 96
1, 72542, Note_on_c, 0, 63, 70
1, 72543, Control_c, 0, 64, 79
1, 72558, Control_c, 0, 64, 67
1, 72573, Control_c, 0, 64, 58
1, 72588, Control_c, 0, 64, 54
1, 72603, Control_c, 0, 64, 56
1, 72617, Control_c, 0, 64, 58
1, 72632, Control_c, 0, 64, 62
1, 72632, Control_c, 0, 67, 112
1, 72647, Control_c, 0, 64, 65
1, 72661, Control_c, 0, 64, 72
1, 72676, Control_c, 0, 64, 87
1, 72676, Control_c, 0, 67, 113
1, 72693, Control_c, 0, 64, 119
1, 72706, Note_off_c, 0, 34, 41
1, 72707, Control_c, 0, 64, 127
1, 72834, Note_off_c, 0, 63, 38
1, 72846, Note_on_c, 0, 73, 68
1, 72872, Note_off_c, 0, 72, 40
1, 73081, Note_on_c, 0, 53, 46
1, 73084, Note_on_c, 0, 75, 73
1, 73332, Note_on_c, 0, 76, 77
1, 73440, Control_c, 0, 67, 112
1, 73441, Note_off_c, 0, 73, 36
1, 73597, Note_on_c, 0, 61, 57
1, 73604, Control_c, 0, 67, 112
1, 73606, Note_on_c, 0, 65, 45
1, 73608, Note_on_c, 0, 58, 40
1, 73633, Note_on_c, 0, 77, 64
1, 73649, Control_c, 0, 64, 110
1, 73663, Control_c, 0, 64, 99
1, 73678, Control_c, 0, 64, 91
1, 73693, Control_c, 0, 64, 84
1, 73707, Control_c, 0, 64, 79
1, 73712, Note_off_c, 0, 75, 11
1, 73722, Control_c, 0, 64, 75
1, 73731, Note_off_c, 0, 76, 53
1, 73737, Control_c, 0, 64, 73
1, 73752, Control_c, 0, 64, 72
1, 73767, Control_c, 0, 64, 70
1, 73782, Control_c, 0, 64, 68
1, 73797, Control_c, 0, 64, 65
1, 73809, Note_off_c, 0, 53, 36
1, 73812, Control_c, 0, 64, 64
1, 73827, Control_c, 0, 64, 63
1, 73841, Control_c, 0, 64, 62
1, 73856, Control_c, 0, 64, 62
1, 73871, Control_c, 0, 64, 60
1, 73886, Control_c, 0, 64, 58
1, 73900, Control_c, 0, 64, 56
1, 73915, Control_c, 0, 64, 54
1, 73937, Control_c, 0, 64, 51
1, 73952, Control_c, 0, 64, 46
1, 73967, Control_c, 0, 64, 39
1, 73982, Control_c, 0, 64, 31
1, 73987, Note_on_c, 0, 78, 56
1, 73996, Control_c, 0, 64, 27
1, 74041, Control_c, 0, 64, 28
1, 74056, Control_c, 0, 64, 31
1, 74059, Note_off_c, 0, 77, 59
1, 74071, Control_c, 0, 64, 35
1, 74086, Control_c, 0, 64, 39
1, 74101, Control_c, 0, 64, 43
1, 74113, Control_c, 0, 64, 47
1, 74113, Control_c, 0, 67, 111
1, 74128, Control_c, 0, 64, 52
1, 74143, Control_c, 0, 64, 57
1, 74158, Control_c, 0, 64, 61
1, 74173, Control_c, 0, 64, 64
1, 74187, Control_c, 0, 64, 66
1, 74202, Control_c, 0, 64, 70
1, 74217, Control_c, 0, 64, 76
1, 74225, Note_on_c, 0, 53, 39
1, 74232, Control_c, 0, 64, 84
1, 74247, Control_c, 0, 64, 96
1, 74262, Control_c, 0, 64, 117
1, 74277, Control_c, 0, 64, 127
1, 74289, Note_off_c, 0, 65, 36
1, 74375, Note_off_c, 0, 61, 59
1, 74381, Note_off_c, 0, 58, 61
1, 74423, Note_off_c, 0, 53, 39
1, 74524, Note_on_c, 0, 77, 55
1, 74544, Control_c, 0, 67, 112
1, 74574, Control_c, 0, 67, 112
1, 74601, Note_off_c, 0, 78, 59
1, 74613, Note_off_c, 0, 77, 59
1, 74779, Note_on_c, 0, 34, 35
1, 74840, Note_on_c, 0, 60, 57
1, 74953, Note_off_c, 0, 34, 43
1, 74972, Note_off_c, 0, 60, 62
1, 75166, Note_on_c, 0, 75, 50
1, 75404, Note_on_c, 0, 73, 62
1, 75416, Note_on_c, 0, 54, 38
1, 75661, Note_on_c, 0, 72, 67
1, 75693, Note_off_c, 0, 75, 37
1, 75736, Note_off_c, 0, 73, 59
1, 75898, Note_on_c, 0, 59, 54
1, 75917, Note_on_c, 0, 57, 33
1, 75923, Note_on_c, 0, 63, 28
1, 75939, Control_c, 0, 64, 117
1, 75954, Note_on_c, 0, 75, 55
1, 75954, Control_c, 0, 64, 106
1, 75969, Control_c, 0, 64, 96
1, 75983, Control_c, 0, 64, 89
1, 75983, Control_c, 0, 67, 112
1, 75998, Control_c, 0, 64, 84
1, 76013, Control_c, 0, 64, 80
1, 76028, Control_c, 0, 64, 77
1, 76035, Note_off_c, 0, 54, 37
1, 76043, Control_c, 0, 64, 74
1, 76048, Note_off_c, 0, 72, 52
1, 76057, Control_c, 0, 64, 71
1, 76072, Control_c, 0, 64, 69
1, 76087, Control_c, 0, 64, 68
1, 76102, Control_c, 0, 64, 67
1, 76117, Control_c, 0, 64, 66
1, 76131, Control_c, 0, 64, 64
1, 76146, Control_c, 0, 64, 63
1, 76161, Control_c, 0, 64, 63
1, 76183, Control_c, 0, 64, 62
1, 76198, Control_c, 0, 64, 62
1, 76213, Control_c, 0, 64, 60
1, 76228, Control_c, 0, 64, 59
1, 76243, Control_c, 0, 64, 58
1, 76257, Control_c, 0, 64, 57
1, 76272, Control_c, 0, 64, 57
1, 76287, Control_c, 0, 64, 55
1, 76301, Control_c, 0, 64, 53
1, 76310, Note_on_c, 0, 77, 50
1, 76316, Control_c, 0, 64, 50
1, 76331, Control_c, 0, 64, 47
1, 76346, Control_c, 0, 64, 44
1, 76360, Control_c, 0, 64, 41
1, 76375, Control_c, 0, 64, 38
1, 76390, Control_c, 0, 64, 37
1, 76391, Note_off_c, 0, 75, 55
1, 76420, Control_c, 0, 64, 38
1, 76435, Control_c, 0, 64, 41
1, 76449, Control_c, 0, 64, 44
1, 76464, Control_c, 0, 64, 47
1, 76479, Control_c, 0, 64, 50
1, 76494, Control_c, 0, 64, 53
1, 76508, Control_c, 0, 64, 57
1, 76523, Control_c, 0, 64, 61
1, 76538, Control_c, 0, 64, 63
1, 76553, Control_c, 0, 64, 66
1, 76557, Note_on_c, 0, 54, 35
1, 76567, Control_c, 0, 64, 69
1, 76582, Control_c, 0, 64, 75
1, 76597, Control_c, 0, 64, 84
1, 76612, Control_c, 0, 64, 96
1, 76627, Control_c, 0, 64, 127
1, 76685, Note_off_c, 0, 63, 52
1, 76701, Note_off_c, 0, 59, 60
1, 76723, Note_off_c, 0, 57, 50
1, 76764, Note_off_c, 0, 54, 42
1, 76835, Note_off_c, 0, 77, 35
1, 76846, Note_on_c, 0, 75, 41
1, 76879, Control_c, 0, 67, 112
1, 76914, Note_off_c, 0, 75, 56
1, 77128, Note_on_c, 0, 34, 33
1, 77166, Note_on_c, 0, 58, 51
1, 77299, Note_off_c, 0, 58, 58
1, 77302, Note_off_c, 0, 34, 43
1, 77489, Note_on_c, 0, 73, 43
1, 77746, Note_on_c, 0, 72, 48
1, 77769, Control_c, 0, 67, 112
1, 77774, Note_on_c, 0, 54, 30
1, 77799, Control_c, 0, 67, 111
1, 77946, Control_c, 0, 67, 110
1, 77959, Note_off_c, 0, 73, 23
1, 77994, Note_on_c, 0, 70, 53
1, 78052, Note_off_c, 0, 72, 57
1, 78065, Control_c, 0, 67, 110
1, 78235, Note_on_c, 0, 57, 41
1, 78273, Note_on_c, 0, 63, 26
1, 78286, Note_on_c, 0, 73, 45
1, 78289, Control_c, 0, 64, 116
1, 78304, Control_c, 0, 64, 105
1, 78318, Control_c, 0, 64, 98
1, 78333, Control_c, 0, 64, 92
1, 78348, Control_c, 0, 64, 87
1, 78363, Control_c, 0, 64, 83
1, 78377, Control_c, 0, 64, 80
1, 78392, Control_c, 0, 64, 77
1, 78407, Control_c, 0, 64, 74
1, 78429, Control_c, 0, 64, 71
1, 78436, Note_off_c, 0, 70, 34
1, 78444, Control_c, 0, 64, 69
1, 78446, Note_off_c, 0, 54, 33
1, 78459, Control_c, 0, 64, 68
1, 78474, Control_c, 0, 64, 67
1, 78489, Control_c, 0, 64, 66
1, 78504, Control_c, 0, 64, 65
1, 78518, Control_c, 0, 64, 64
1, 78533, Control_c, 0, 64, 63
1, 78548, Control_c, 0, 64, 63
1, 78563, Control_c, 0, 64, 62
1, 78577, Control_c, 0, 64, 61
1, 78592, Control_c, 0, 64, 61
1, 78607, Control_c, 0, 64, 60
1, 78622, Control_c, 0, 64, 59
1, 78637, Control_c, 0, 64, 58
1, 78643, Note_on_c, 0, 75, 37
1, 78651, Control_c, 0, 64, 57
1, 78666, Control_c, 0, 64, 56
1, 78681, Control_c, 0, 64, 55
1, 78696, Control_c, 0, 64, 53
1, 78711, Control_c, 0, 64, 52
1, 78725, Control_c, 0, 64, 49
1, 78740, Control_c, 0, 64, 45
1, 78755, Control_c, 0, 64, 38
1, 78769, Control_c, 0, 64, 30
1, 78776, Note_off_c, 0, 73, 36
1, 78784, Control_c, 0, 64, 29
1, 78843, Control_c, 0, 64, 32
1, 78858, Control_c, 0, 64, 36
1, 78873, Control_c, 0, 64, 40
1, 78888, Control_c, 0, 64, 44
1, 78903, Control_c, 0, 64, 47
1, 78905, Note_on_c, 0, 53, 31
1, 78918, Control_c, 0, 64, 52
1, 78933, Control_c, 0, 64, 56
1, 78948, Control_c, 0, 64, 59
1, 78963, Control_c, 0, 64, 61
1, 78978, Control_c, 0, 64, 63
1, 78992, Control_c, 0, 64, 65
1, 79007, Control_c, 0, 64, 67
1, 79022, Control_c, 0, 64, 70
1, 79037, Control_c, 0, 64, 74
1, 79052, Control_c, 0, 64, 78
1, 79067, Control_c, 0, 64, 84
1, 79082, Control_c, 0, 64, 92
1, 79097, Control_c, 0, 64, 106
1, 79112, Control_c, 0, 64, 127
1, 79113, Note_off_c, 0, 57, 38
1, 79304, Note_on_c, 0, 73, 40
1, 79306, Note_off_c, 0, 63, 36
1, 79380, Note_off_c, 0, 75, 33
1, 79449, Note_off_c, 0, 73, 52
1, 79484, Note_on_c, 0, 58, 42
1, 79542, Note_off_c, 0, 58, 59
1, 79565, Note_off_c, 0, 53, 40
1, 79624, Control_c, 0, 67, 110
1, 79742, Control_c, 0, 64, 122
1, 79757, Control_c, 0, 64, 105
1, 79772, Control_c, 0, 64, 96
1, 79787, Control_c, 0, 64, 89
1, 79788, Note_on_c, 0, 58, 38
1, 79801, Control_c, 0, 64, 82
1, 79815, Note_on_c, 0, 34, 31
1, 79816, Control_c, 0, 64, 73
1, 79831, Control_c, 0, 64, 64
1, 79846, Control_c, 0, 64, 53
1, 79846, Control_c, 0, 67, 111
1, 79861, Control_c, 0, 64, 48
1, 79891, Control_c, 0, 64, 50
1, 79906, Control_c, 0, 64, 54
1, 79928, Control_c, 0, 64, 57
1, 79943, Control_c, 0, 64, 61
1, 79958, Control_c, 0, 64, 65
1, 79973, Control_c, 0, 64, 70
1, 79988, Control_c, 0, 64, 77
1, 80003, Control_c, 0, 64, 89
1, 80018, Control_c, 0, 64, 108
1, 80024, Note_off_c, 0, 34, 41
1, 80032, Control_c, 0, 64, 127
1, 80105, Note_off_c, 0, 58, 37
1, 80432, Note_on_c, 0, 72, 34
1, 80772, Note_on_c, 0, 53, 27
1, 80797, Note_on_c, 0, 70, 49
1, 81084, Note_on_c, 0, 67, 54
1, 81202, Note_off_c, 0, 70, 39
1, 81225, Control_c, 0, 67, 110
1, 81285, Note_on_c, 0, 65, 28
1, 81309, Note_on_c, 0, 61, 33
1, 81343, Note_on_c, 0, 69, 56
1, 81377, Note_off_c, 0, 53, 20
1, 81380, Note_off_c, 0, 72, 36
1, 81626, Note_on_c, 0, 70, 60
1, 81712, Note_off_c, 0, 65, 35
1, 81777, Note_off_c, 0, 69, 59
1, 81786, Note_off_c, 0, 67, 38
1, 81850, Note_on_c, 0, 53, 45
1, 81914, Control_c, 0, 67, 111
1, 81958, Control_c, 0, 67, 112
1, 81990, Note_off_c, 0, 61, 41
1, 82018, Control_c, 0, 67, 112
1, 82060, Note_off_c, 0, 53, 39
1, 82077, Control_c, 0, 67, 113
1, 82088, Note_on_c, 0, 68, 67
1, 82121, Control_c, 0, 67, 114
1, 82136, Control_c, 0, 67, 114
1, 82218, Control_c, 0, 67, 115
1, 82260, Note_off_c, 0, 70, 38
1, 82292, Control_c, 0, 67, 115
1, 82322, Control_c, 0, 64, 125
1, 82330, Note_on_c, 0, 34, 43
1, 82337, Control_c, 0, 64, 106
1, 82352, Control_c, 0, 64, 94
1, 82367, Control_c, 0, 64, 87
1, 82381, Note_on_c, 0, 66, 62
1, 82382, Control_c, 0, 64, 81
1, 82397, Control_c, 0, 64, 76
1, 82397, Control_c, 0, 67, 116
1, 82412, Control_c, 0, 64, 70
1, 82426, Control_c, 0, 64, 64
1, 82441, Control_c, 0, 64, 59
1, 82456, Control_c, 0, 64, 56
1, 82456, Control_c, 0, 67, 117
1, 82463, Note_off_c, 0, 68, 57
1, 82471, Control_c, 0, 64, 56
1, 82486, Control_c, 0, 64, 57
1, 82500, Control_c, 0, 64, 58
1, 82515, Control_c, 0, 64, 60
1, 82530, Control_c, 0, 64, 62
1, 82545, Control_c, 0, 64, 65
1, 82545, Control_c, 0, 67, 117
1, 82560, Control_c, 0, 64, 69
1, 82574, Control_c, 0, 64, 75
1, 82589, Control_c, 0, 64, 85
1, 82589, Control_c, 0, 67, 118
1, 82604, Control_c, 0, 64, 100
1, 82618, Control_c, 0, 64, 127
1, 82618, Control_c, 0, 67, 119
1, 82621, Note_off_c, 0, 34, 41
1, 82647, Note_on_c, 0, 65, 68
1, 82678, Control_c, 0, 67, 119
1, 82708, Note_off_c, 0, 66, 61
1, 82863, Note_on_c, 0, 63, 64
1, 82865, Note_on_c, 0, 53, 63
1, 82937, Control_c, 0, 67, 119
1, 82943, Note_off_c, 0, 65, 54
1, 83100, Note_on_c, 0, 61, 73
1, 83183, Note_off_c, 0, 63, 58
1, 83228, Note_off_c, 0, 61, 59
1, 83294, Control_c, 0, 67, 118
1, 83309, Control_c, 0, 64, 110
1, 83324, Control_c, 0, 64, 103
1, 83333, Note_on_c, 0, 58, 40
1, 83333, Note_on_c, 0, 61, 24
1, 83334, Note_on_c, 0, 54, 46
1, 83339, Control_c, 0, 64, 97
1, 83352, Note_on_c, 0, 64, 58
1, 83353, Control_c, 0, 64, 92
1, 83368, Control_c, 0, 64, 87
1, 83383, Control_c, 0, 64, 81
1, 83383, Control_c, 0, 67, 117
1, 83398, Control_c, 0, 64, 77
1, 83413, Control_c, 0, 64, 74
1, 83428, Control_c, 0, 64, 71
1, 83431, Note_off_c, 0, 53, 54
1, 83442, Control_c, 0, 64, 69
1, 83457, Control_c, 0, 64, 67
1, 83472, Control_c, 0, 64, 65
1, 83487, Control_c, 0, 64, 64
1, 83502, Control_c, 0, 64, 63
1, 83516, Control_c, 0, 64, 63
1, 83531, Control_c, 0, 64, 62
1, 83546, Control_c, 0, 64, 61
1, 83560, Control_c, 0, 64, 59
1, 83575, Control_c, 0, 64, 58
1, 83590, Control_c, 0, 64, 56
1, 83605, Control_c, 0, 64, 55
1, 83620, Control_c, 0, 64, 54
1, 83634, Control_c, 0, 64, 51
1, 83646, Note_on_c, 0, 65, 56
1, 83649, Control_c, 0, 64, 48
1, 83672, Control_c, 0, 64, 43
1, 83687, Control_c, 0, 64, 37
1, 83702, Control_c, 0, 64, 31
1, 83716, Control_c, 0, 64, 23
1, 83731, Control_c, 0, 64, 0
1, 83750, Note_off_c, 0, 64, 59
1, 83875, Note_on_c, 0, 53, 37
1, 83925, Control_c, 0, 67, 117
1, 83926, Note_off_c, 0, 54, 36
1, 83954, Control_c, 0, 64, 19
1, 83969, Control_c, 0, 64, 35
1, 83984, Control_c, 0, 64, 47
1, 83998, Control_c, 0, 64, 55
1, 84013, Control_c, 0, 64, 59
1, 84013, Control_c, 0, 67, 116
1, 84028, Control_c, 0, 64, 61
1, 84043, Control_c, 0, 64, 63
1, 84058, Control_c, 0, 64, 66
1, 84072, Control_c, 0, 64, 69
1, 84087, Control_c, 0, 64, 74
1, 84102, Control_c, 0, 64, 80
1, 84117, Control_c, 0, 64, 88
1, 84132, Control_c, 0, 64, 99
1, 84139, Note_off_c, 0, 61, 40
1, 84146, Control_c, 0, 64, 114
1, 84158, Note_on_c, 0, 63, 50
1, 84161, Note_off_c, 0, 58, 35
1, 84161, Control_c, 0, 64, 127
1, 84196, Note_off_c, 0, 53, 42
1, 84357, Note_off_c, 0, 65, 26
1, 84398, Control_c, 0, 64, 116
1, 84421, Control_c, 0, 64, 108
1, 84436, Control_c, 0, 64, 101
1, 84450, Control_c, 0, 64, 96
1, 84465, Control_c, 0, 64, 91
1, 84480, Control_c, 0, 64, 85
1, 84490, Note_on_c, 0, 61, 41
1, 84495, Control_c, 0, 64, 77
1, 84510, Control_c, 0, 64, 68
1, 84514, Note_on_c, 0, 34, 34
1, 84525, Control_c, 0, 64, 59
1, 84539, Control_c, 0, 64, 44
1, 84541, Note_off_c, 0, 63, 56
1, 84554, Control_c, 0, 64, 36
1, 84584, Control_c, 0, 64, 36
1, 84597, Control_c, 0, 64, 44
1, 84611, Control_c, 0, 64, 52
1, 84626, Control_c, 0, 64, 59
1, 84641, Control_c, 0, 64, 65
1, 84656, Control_c, 0, 64, 70
1, 84672, Control_c, 0, 64, 81
1, 84686, Control_c, 0, 64, 104
1, 84689, Note_off_c, 0, 34, 40
1, 84701, Control_c, 0, 64, 127
1, 84862, Note_on_c, 0, 58, 50
1, 84899, Note_off_c, 0, 61, 53
1, 85074, Note_off_c, 0, 58, 34
1, 85103, Note_on_c, 0, 65, 54
1, 85127, Note_on_c, 0, 55, 47
1, 85127, Note_on_c, 0, 61, 48
1, 85339, Note_on_c, 0, 57, 70
1, 85362, Note_off_c, 0, 65, 61
1, 85375, Control_c, 0, 67, 117
1, 85438, Note_off_c, 0, 55, 54
1, 85449, Control_c, 0, 67, 117
1, 85480, Control_c, 0, 67, 118
1, 85554, Control_c, 0, 67, 119
1, 85569, Control_c, 0, 64, 113
1, 85569, Control_c, 0, 67, 119
1, 85574, Note_on_c, 0, 58, 68
1, 85579, Note_on_c, 0, 66, 50
1, 85584, Control_c, 0, 64, 99
1, 85594, Note_on_c, 0, 63, 46
1, 85598, Control_c, 0, 64, 91
1, 85598, Control_c, 0, 67, 120
1, 85613, Control_c, 0, 64, 84
1, 85628, Control_c, 0, 64, 78
1, 85643, Control_c, 0, 64, 71
1, 85658, Control_c, 0, 64, 65
1, 85661, Note_off_c, 0, 61, 55
1, 85664, Note_off_c, 0, 57, 58
1, 85673, Control_c, 0, 64, 56
1, 85688, Control_c, 0, 64, 47
1, 85702, Control_c, 0, 64, 43
1, 85717, Control_c, 0, 64, 42
1, 85747, Control_c, 0, 64, 44
1, 85762, Control_c, 0, 64, 49
1, 85777, Control_c, 0, 64, 55
1, 85791, Control_c, 0, 64, 61
1, 85806, Control_c, 0, 64, 66
1, 85821, Control_c, 0, 64, 71
1, 85824, Note_off_c, 0, 66, 54
1, 85835, Control_c, 0, 64, 79
1, 85835, Control_c, 0, 67, 119
1, 85844, Note_on_c, 0, 60, 75
1, 85850, Control_c, 0, 64, 92
1, 85865, Control_c, 0, 64, 114
1, 85880, Control_c, 0, 64, 127
1, 85895, Control_c, 0, 67, 119
1, 85961, Control_c, 0, 67, 118
1, 86050, Control_c, 0, 64, 125
1, 86065, Control_c, 0, 64, 112
1, 86075, Note_on_c, 0, 57, 43
1, 86080, Control_c, 0, 64, 104
1, 86089, Note_on_c, 0, 54, 46
1, 86093, Note_off_c, 0, 58, 27
1, 86095, Control_c, 0, 64, 98
1, 86110, Control_c, 0, 64, 91
1, 86124, Control_c, 0, 64, 82
1, 86139, Control_c, 0, 64, 74
1, 86154, Control_c, 0, 64, 66
1, 86168, Control_c, 0, 64, 61
1, 86198, Control_c, 0, 64, 61
1, 86213, Control_c, 0, 64, 62
1, 86228, Control_c, 0, 64, 62
1, 86232, Note_off_c, 0, 63, 56
1, 86242, Control_c, 0, 64, 64
1, 86242, Control_c, 0, 67, 117
1, 86258, Control_c, 0, 64, 66
1, 86273, Control_c, 0, 64, 70
1, 86288, Control_c, 0, 64, 77
1, 86303, Control_c, 0, 64, 87
1, 86303, Control_c, 0, 67, 117
1, 86318, Control_c, 0, 64, 99
1, 86332, Note_off_c, 0, 57, 58
1, 86332, Control_c, 0, 64, 114
1, 86347, Control_c, 0, 64, 127
1, 86371, Note_off_c, 0, 54, 63
1, 86380, Note_on_c, 0, 61, 61
1, 86391, Control_c, 0, 67, 116
1, 86537, Note_off_c, 0, 60, 59
1, 86570, Control_c, 0, 64, 122
1, 86584, Control_c, 0, 64, 114
1, 86599, Control_c, 0, 64, 108
1, 86614, Control_c, 0, 64, 102
1, 86629, Control_c, 0, 64, 95
1, 86644, Control_c, 0, 64, 89
1, 86665, Control_c, 0, 64, 85
1, 86680, Control_c, 0, 64, 82
1, 86686, Note_on_c, 0, 34, 45
1, 86695, Control_c, 0, 64, 77
1, 86710, Control_c, 0, 64, 70
1, 86725, Control_c, 0, 64, 61
1, 86740, Control_c, 0, 64, 43
1, 86755, Control_c, 0, 64, 41
1, 86770, Control_c, 0, 64, 40
1, 86784, Control_c, 0, 64, 38
1, 86814, Control_c, 0, 64, 42
1, 86829, Control_c, 0, 64, 52
1, 86844, Control_c, 0, 64, 59
1, 86858, Control_c, 0, 64, 65
1, 86873, Control_c, 0, 64, 70
1, 86888, Control_c, 0, 64, 79
1, 86888, Control_c, 0, 67, 115
1, 86903, Control_c, 0, 64, 94
1, 86918, Control_c, 0, 64, 127
1, 86925, Note_off_c, 0, 34, 40
1, 86932, Control_c, 0, 67, 115
1, 87083, Note_on_c, 0, 58, 51
1, 87143, Note_off_c, 0, 61, 49
1, 87185, Control_c, 0, 67, 114
1, 87274, Control_c, 0, 67, 114
1, 87321, Note_on_c, 0, 65, 50
1, 87324, Note_on_c, 0, 61, 40
1, 87347, Note_off_c, 0, 58, 37
1, 87348, Control_c, 0, 67, 113
1, 87352, Note_on_c, 0, 55, 44
1, 87459, Control_c, 0, 67, 112
1, 87551, Note_off_c, 0, 65, 61
1, 87567, Note_on_c, 0, 57, 61
1, 87655, Note_off_c, 0, 55, 35
1, 87755, Control_c, 0, 64, 113
1, 87770, Control_c, 0, 64, 104
1, 87785, Control_c, 0, 64, 96
1, 87800, Control_c, 0, 64, 90
1, 87802, Note_on_c, 0, 66, 39
1, 87806, Note_on_c, 0, 58, 46
1, 87811, Note_off_c, 0, 57, 52
1, 87814, Control_c, 0, 64, 86
1, 87821, Note_on_c, 0, 63, 32
1, 87829, Control_c, 0, 64, 83
1, 87844, Control_c, 0, 64, 78
1, 87860, Control_c, 0, 64, 73
1, 87875, Control_c, 0, 64, 68
1, 87890, Control_c, 0, 64, 63
1, 87895, Note_off_c, 0, 61, 28
1, 87904, Control_c, 0, 64, 59
1, 87919, Control_c, 0, 64, 53
1, 87934, Control_c, 0, 64, 48
1, 87949, Control_c, 0, 64, 43
1, 87964, Control_c, 0, 64, 42
1, 87978, Control_c, 0, 64, 43
1, 87993, Control_c, 0, 64, 45
1, 88008, Control_c, 0, 64, 50
1, 88023, Control_c, 0, 64, 54
1, 88037, Control_c, 0, 64, 59
1, 88052, Control_c, 0, 64, 63
1, 88067, Control_c, 0, 64, 67
1, 88082, Control_c, 0, 64, 72
1, 88095, Note_off_c, 0, 66, 35
1, 88097, Control_c, 0, 64, 79
1, 88111, Control_c, 0, 64, 89
1, 88126, Control_c, 0, 64, 101
1, 88141, Control_c, 0, 64, 115
1, 88164, Control_c, 0, 64, 127
1, 88172, Note_off_c, 0, 58, 0
1, 88182, Note_on_c, 0, 60, 42
1, 88209, Poly_aftertouch_c, 0, 58, 127
1, 88250, Poly_aftertouch_c, 0, 58, 0
1, 88371, Control_c, 0, 64, 125
1, 88385, Control_c, 0, 64, 117
1, 88400, Control_c, 0, 64, 116
1, 88406, Note_on_c, 0, 57, 32
1, 88415, Control_c, 0, 64, 115
1, 88418, Note_on_c, 0, 54, 35
1, 88504, Control_c, 0, 64, 116
1, 88540, Note_off_c, 0, 63, 41
1, 88563, Control_c, 0, 64, 117
1, 88593, Control_c, 0, 64, 119
1, 88629, Note_off_c, 0, 57, 43
1, 88677, Note_off_c, 0, 54, 43
1, 88712, Note_on_c, 0, 61, 40
1, 88727, Control_c, 0, 64, 120
1, 88831, Control_c, 0, 64, 119
1, 88846, Control_c, 0, 64, 117
1, 88847, Note_off_c, 0, 60, 34
1, 88860, Control_c, 0, 64, 116
1, 88875, Control_c, 0, 64, 115
1, 88890, Control_c, 0, 64, 112
1, 88913, Control_c, 0, 64, 109
1, 88928, Control_c, 0, 64, 107
1, 88942, Control_c, 0, 64, 104
1, 88957, Control_c, 0, 64, 102
1, 88972, Control_c, 0, 64, 97
1, 88987, Control_c, 0, 64, 92
1, 89002, Control_c, 0, 64, 88
1, 89016, Control_c, 0, 64, 85
1, 89031, Control_c, 0, 64, 82
1, 89046, Control_c, 0, 64, 81
1, 89057, Note_on_c, 0, 34, 43
1, 89060, Control_c, 0, 64, 78
1, 89075, Control_c, 0, 64, 76
1, 89090, Control_c, 0, 64, 71
1, 89105, Control_c, 0, 64, 66
1, 89120, Control_c, 0, 64, 60
1, 89134, Control_c, 0, 64, 53
1, 89149, Control_c, 0, 64, 51
1, 89164, Control_c, 0, 64, 51
1, 89178, Control_c, 0, 64, 54
1, 89193, Control_c, 0, 64, 56
1, 89208, Control_c, 0, 64, 59
1, 89223, Control_c, 0, 64, 62
1, 89238, Control_c, 0, 64, 66
1, 89253, Control_c, 0, 64, 74
1, 89268, Control_c, 0, 64, 87
1, 89268, Control_c, 0, 67, 112
1, 89283, Control_c, 0, 64, 110
1, 89297, Control_c, 0, 64, 127
1, 89303, Note_off_c, 0, 34, 41
1, 89461, Control_c, 0, 67, 111
1, 89489, Note_on_c, 0, 60, 53
1, 89718, Note_off_c, 0, 61, 34
1, 89767, Note_on_c, 0, 53, 45
1, 89854, Control_c, 0, 67, 110
1, 89956, Note_off_c, 0, 53, 55
1, 90046, Control_c, 0, 67, 110
1, 90066, Note_on_c, 0, 58, 51
1, 90463, Note_on_c, 0, 65, 32
1, 90472, Note_on_c, 0, 61, 31
1, 90746, Note_off_c, 0, 60, 2
1, 90983, Note_on_c, 0, 57, 36
1, 91069, Note_off_c, 0, 58, 37
1, 91142, Note_off_c, 0, 57, 37
1, 91360, Note_on_c, 0, 55, 43
1, 91528, Note_off_c, 0, 65, 33
1, 91551, Note_off_c, 0, 55, 33
1, 91562, Note_off_c, 0, 61, 36
1, 91603, Control_c, 0, 67, 109
1, 91654, Note_on_c, 0, 57, 51
1, 91781, Control_c, 0, 64, 122
1, 91795, Control_c, 0, 64, 120
1, 91810, Control_c, 0, 64, 117
1, 91825, Control_c, 0, 64, 115
1, 91840, Control_c, 0, 64, 114
1, 91855, Note_off_c, 0, 57, 56
1, 91856, Control_c, 0, 64, 112
1, 91870, Control_c, 0, 64, 110
1, 91885, Control_c, 0, 64, 108
1, 91908, Control_c, 0, 64, 107
1, 91923, Control_c, 0, 64, 106
1, 91938, Control_c, 0, 64, 105
1, 91952, Control_c, 0, 64, 104
1, 91967, Control_c, 0, 64, 103
1, 91982, Control_c, 0, 64, 101
1, 91997, Control_c, 0, 64, 100
1, 92012, Control_c, 0, 64, 97
1, 92026, Control_c, 0, 64, 94
1, 92041, Control_c, 0, 64, 91
1, 92056, Control_c, 0, 64, 88
1, 92071, Control_c, 0, 64, 86
1, 92079, Note_on_c, 0, 57, 34
1, 92085, Control_c, 0, 64, 83
1, 92100, Control_c, 0, 64, 81
1, 92115, Control_c, 0, 64, 79
1, 92130, Control_c, 0, 64, 76
1, 92145, Control_c, 0, 64, 74
1, 92159, Control_c, 0, 64, 72
1, 92174, Control_c, 0, 64, 71
1, 92189, Control_c, 0, 64, 69
1, 92204, Control_c, 0, 64, 68
1, 92219, Control_c, 0, 64, 67
1, 92234, Control_c, 0, 64, 66
1, 92249, Control_c, 0, 64, 64
1, 92263, Control_c, 0, 64, 63
1, 92278, Control_c, 0, 64, 62
1, 92293, Control_c, 0, 64, 61
1, 92308, Control_c, 0, 64, 59
1, 92323, Control_c, 0, 64, 57
1, 92338, Control_c, 0, 64, 55
1, 92352, Control_c, 0, 64, 55
1, 92367, Control_c, 0, 67, 109
1, 92396, Control_c, 0, 64, 56
1, 92396, Control_c, 0, 67, 108
1, 92411, Control_c, 0, 64, 57
1, 92426, Control_c, 0, 64, 58
1, 92426, Control_c, 0, 67, 107
1, 92441, Control_c, 0, 64, 59
1, 92456, Control_c, 0, 64, 60
1, 92456, Control_c, 0, 67, 107
1, 92471, Control_c, 0, 64, 61
1, 92485, Control_c, 0, 64, 62
1, 92500, Control_c, 0, 64, 63
1, 92500, Control_c, 0, 67, 106
1, 92512, Note_on_c, 0, 58, 44
1, 92515, Control_c, 0, 64, 65
1, 92530, Control_c, 0, 64, 67
1, 92530, Control_c, 0, 67, 105
1, 92544, Control_c, 0, 64, 69
1, 92559, Control_c, 0, 64, 72
1, 92559, Control_c, 0, 67, 105
1, 92574, Control_c, 0, 64, 75
1, 92589, Control_c, 0, 64, 78
1, 92603, Control_c, 0, 64, 79
1, 92613, Note_off_c, 0, 57, 41
1, 92716, Control_c, 0, 64, 79
1, 92746, Control_c, 0, 64, 78
1, 92761, Control_c, 0, 64, 78
1, 92775, Control_c, 0, 64, 77
1, 92790, Control_c, 0, 64, 77
1, 92797, Note_on_c, 0, 57, 55
1, 92805, Control_c, 0, 64, 76
1, 92820, Control_c, 0, 64, 76
1, 92835, Control_c, 0, 64, 75
1, 92849, Control_c, 0, 64, 74
1, 92864, Control_c, 0, 64, 73
1, 92879, Control_c, 0, 64, 72
1, 92884, Note_off_c, 0, 58, 58
1, 92894, Control_c, 0, 64, 70
1, 92908, Control_c, 0, 64, 68
1, 92923, Control_c, 0, 64, 65
1, 92938, Control_c, 0, 64, 63
1, 92953, Control_c, 0, 64, 61
1, 92968, Control_c, 0, 64, 59
1, 92982, Control_c, 0, 64, 58
1, 93027, Control_c, 0, 64, 59
1, 93041, Control_c, 0, 64, 59
1, 93056, Control_c, 0, 64, 60
1, 93065, Note_on_c, 0, 58, 61
1, 93071, Control_c, 0, 64, 60
1, 93086, Control_c, 0, 64, 61
1, 93101, Control_c, 0, 64, 61
1, 93116, Control_c, 0, 64, 62
1, 93131, Control_c, 0, 64, 62
1, 93146, Control_c, 0, 64, 63
1, 93161, Control_c, 0, 64, 64
1, 93175, Control_c, 0, 64, 65
1, 93190, Control_c, 0, 64, 66
1, 93205, Control_c, 0, 64, 67
1, 93219, Control_c, 0, 64, 68
1, 93223, Note_off_c, 0, 57, 55
1, 93234, Control_c, 0, 64, 70
1, 93249, Control_c, 0, 64, 71
1, 93264, Control_c, 0, 64, 72
1, 93367, Control_c, 0, 64, 71
1, 93420, Control_c, 0, 64, 71
1, 93434, Control_c, 0, 64, 70
1, 93449, Control_c, 0, 64, 70
1, 93459, Note_on_c, 0, 61, 43
1, 93480, Control_c, 0, 64, 69
1, 93495, Control_c, 0, 64, 69
1, 93509, Control_c, 0, 64, 68
1, 93524, Control_c, 0, 64, 67
1, 93539, Control_c, 0, 64, 67
1, 93554, Control_c, 0, 64, 66
1, 93569, Control_c, 0, 64, 65
1, 93584, Control_c, 0, 64, 63
1, 93598, Control_c, 0, 64, 62
1, 93604, Note_off_c, 0, 58, 59
1, 93613, Control_c, 0, 64, 60
1, 93628, Control_c, 0, 64, 59
1, 93643, Control_c, 0, 64, 57
1, 93657, Control_c, 0, 64, 56
1, 93657, Control_c, 0, 67, 104
1, 93672, Control_c, 0, 64, 54
1, 93687, Control_c, 0, 64, 52
1, 93687, Control_c, 0, 67, 104
1, 93702, Control_c, 0, 67, 103
1, 93731, Control_c, 0, 64, 53
1, 93731, Control_c, 0, 67, 102
1, 93746, Control_c, 0, 64, 54
1, 93746, Control_c, 0, 67, 102
1, 93761, Control_c, 0, 64, 55
1, 93761, Control_c, 0, 67, 101
1, 93776, Control_c, 0, 64, 56
1, 93776, Control_c, 0, 67, 100
1, 93791, Control_c, 0, 64, 57
1, 93805, Control_c, 0, 64, 58
1, 93805, Control_c, 0, 67, 99
1, 93820, Control_c, 0, 64, 59
1, 93820, Control_c, 0, 67, 98
1, 93835, Control_c, 0, 64, 59
1, 93835, Control_c, 0, 67, 97
1, 93849, Note_on_c, 0, 60, 56
1, 93850, Control_c, 0, 64, 60
1, 93864, Control_c, 0, 64, 61
1, 93864, Control_c, 0, 67, 97
1, 93879, Control_c, 0, 64, 62
1, 93894, Control_c, 0, 64, 63
1, 93909, Control_c, 0, 67, 96
1, 93924, Control_c, 0, 64, 63
1, 93924, Control_c, 0, 67, 95
1, 93974, Note_off_c, 0, 61, 35
1, 93998, Control_c, 0, 67, 95
1, 94042, Control_c, 0, 67, 94
1, 94072, Control_c, 0, 67, 94
1, 94087, Control_c, 0, 67, 93
1, 94102, Control_c, 0, 67, 92
1, 94116, Control_c, 0, 67, 91
1, 94131, Control_c, 0, 67, 82
1, 94153, Control_c, 0, 67, 71
1, 94156, Note_on_c, 0, 58, 61
1, 94168, Control_c, 0, 67, 63
1, 94183, Control_c, 0, 64, 63
1, 94183, Control_c, 0, 67, 57
1, 94198, Control_c, 0, 67, 52
1, 94213, Control_c, 0, 67, 49
1, 94228, Control_c, 0, 64, 62
1, 94228, Control_c, 0, 67, 46
1, 94243, Control_c, 0, 64, 62
1, 94243, Control_c, 0, 67, 44
1, 94258, Control_c, 0, 67, 41
1, 94273, Control_c, 0, 64, 61
1, 94273, Control_c, 0, 67, 36
1, 94287, Control_c, 0, 64, 60
1, 94287, Control_c, 0, 67, 31
1, 94302, Control_c, 0, 64, 59
1, 94302, Control_c, 0, 67, 26
1, 94309, Note_off_c, 0, 60, 37
1, 94317, Control_c, 0, 64, 57
1, 94317, Control_c, 0, 67, 23
1, 94332, Control_c, 0, 64, 54
1, 94332, Control_c, 0, 67, 19
1, 94347, Control_c, 0, 64, 52
1, 94347, Control_c, 0, 67, 15
1, 94362, Control_c, 0, 67, 11
1, 94377, Control_c, 0, 64, 53
1, 94377, Control_c, 0, 67, 0
1, 94392, Control_c, 0, 64, 55
1, 94407, Control_c, 0, 64, 57
1, 94422, Control_c, 0, 64, 59
1, 94436, Control_c, 0, 64, 60
1, 94451, Control_c, 0, 64, 62
1, 94466, Control_c, 0, 64, 63
1, 94480, Control_c, 0, 64, 64
1, 94495, Control_c, 0, 64, 64
1, 94520, Note_on_c, 0, 57, 46
1, 94569, Control_c, 0, 64, 64
1, 94599, Control_c, 0, 64, 63
1, 94614, Control_c, 0, 64, 62
1, 94624, Note_off_c, 0, 58, 55
1, 94628, Control_c, 0, 64, 61
1, 94643, Control_c, 0, 64, 58
1, 94658, Control_c, 0, 64, 54
1, 94672, Control_c, 0, 64, 51
1, 94687, Control_c, 0, 64, 50
1, 94717, Control_c, 0, 64, 50
1, 94732, Control_c, 0, 64, 52
1, 94747, Control_c, 0, 64, 54
1, 94761, Control_c, 0, 64, 56
1, 94776, Control_c, 0, 64, 58
1, 94791, Control_c, 0, 64, 59
1, 94806, Control_c, 0, 64, 61
1, 94821, Control_c, 0, 64, 63
1, 94836, Control_c, 0, 64, 66
1, 94851, Control_c, 0, 64, 69
1, 94865, Control_c, 0, 64, 73
1, 94880, Control_c, 0, 64, 79
1, 94902, Control_c, 0, 64, 86
1, 94917, Control_c, 0, 64, 95
1, 94932, Control_c, 0, 64, 109
1, 94946, Control_c, 0, 64, 127
1, 95224, Note_on_c, 0, 42, 37
1, 95228, Note_on_c, 0, 49, 29
1, 95247, Note_on_c, 0, 58, 49
1, 95259, Control_c, 0, 64, 111
1, 95274, Control_c, 0, 64, 102
1, 95289, Control_c, 0, 64, 95
1, 95303, Control_c, 0, 64, 90
1, 95318, Control_c, 0, 64, 84
1, 95333, Control_c, 0, 64, 80
1, 95348, Control_c, 0, 64, 76
1, 95349, Note_off_c, 0, 57, 40
1, 95363, Control_c, 0, 64, 73
1, 95377, Control_c, 0, 64, 69
1, 95392, Control_c, 0, 64, 65
1, 95407, Control_c, 0, 64, 61
1, 95422, Control_c, 0, 64, 56
1, 95437, Control_c, 0, 64, 52
1, 95451, Control_c, 0, 64, 50
1, 95495, Control_c, 0, 64, 50
1, 95510, Control_c, 0, 64, 52
1, 95525, Control_c, 0, 64, 54
1, 95540, Control_c, 0, 64, 56
1, 95555, Control_c, 0, 64, 58
1, 95569, Control_c, 0, 64, 60
1, 95584, Control_c, 0, 64, 62
1, 95599, Control_c, 0, 64, 64
1, 95614, Control_c, 0, 64, 66
1, 95629, Control_c, 0, 64, 69
1, 95651, Control_c, 0, 64, 73
1, 95666, Control_c, 0, 64, 81
1, 95681, Control_c, 0, 64, 90
1, 95695, Control_c, 0, 64, 101
1, 95710, Control_c, 0, 64, 127
1, 95974, Note_on_c, 0, 70, 39
1, 96067, Note_off_c, 0, 70, 60
1, 96240, Note_on_c, 0, 60, 50
1, 96498, Note_on_c, 0, 61, 63
1, 96648, Note_off_c, 0, 60, 38
1, 96681, Control_c, 0, 64, 105
1, 96696, Control_c, 0, 64, 92
1, 96711, Control_c, 0, 64, 84
1, 96726, Control_c, 0, 64, 79
1, 96741, Control_c, 0, 64, 74
1, 96756, Control_c, 0, 64, 71
1, 96771, Control_c, 0, 64, 68
1, 96785, Control_c, 0, 64, 65
1, 96800, Control_c, 0, 64, 63
1, 96815, Control_c, 0, 64, 62
1, 96830, Control_c, 0, 64, 61
1, 96845, Control_c, 0, 64, 59
1, 96860, Control_c, 0, 64, 57
1, 96872, Note_on_c, 0, 66, 46
1, 96874, Control_c, 0, 64, 54
1, 96889, Control_c, 0, 64, 51
1, 96904, Control_c, 0, 64, 47
1, 96919, Control_c, 0, 64, 42
1, 96934, Control_c, 0, 64, 35
1, 96948, Control_c, 0, 64, 22
1, 96963, Control_c, 0, 64, 0
1, 97069, Note_off_c, 0, 61, 58
1, 97148, Control_c, 0, 64, 30
1, 97163, Control_c, 0, 64, 50
1, 97178, Control_c, 0, 64, 59
1, 97193, Control_c, 0, 64, 63
1, 97208, Control_c, 0, 64, 66
1, 97222, Control_c, 0, 64, 69
1, 97237, Control_c, 0, 64, 76
1, 97252, Control_c, 0, 64, 90
1, 97267, Control_c, 0, 64, 127
1, 97469, Note_off_c, 0, 42, 34
1, 97489, Note_on_c, 0, 50, 33
1, 97535, Note_on_c, 0, 65, 51
1, 97540, Note_off_c, 0, 49, 39
1, 97558, Note_off_c, 0, 58, 27
1, 97729, Note_on_c, 0, 51, 42
1, 97739, Note_on_c, 0, 42, 39
1, 97788, Note_on_c, 0, 63, 47
1, 97789, Note_on_c, 0, 59, 44
1, 97827, Note_off_c, 0, 65, 56
1, 97859, Control_c, 0, 64, 122
1, 97865, Note_off_c, 0, 50, 40
1, 97874, Control_c, 0, 64, 113
1, 97891, Note_off_c, 0, 66, 38
1, 97896, Control_c, 0, 64, 111
1, 97926, Control_c, 0, 64, 110
1, 97941, Control_c, 0, 64, 110
1, 97956, Control_c, 0, 64, 109
1, 98014, Note_on_c, 0, 65, 62
1, 98044, Control_c, 0, 64, 109
1, 98089, Control_c, 0, 64, 108
1, 98156, Note_on_c, 0, 66, 68
1, 98237, Control_c, 0, 64, 108
1, 98253, Control_c, 0, 64, 107
1, 98267, Control_c, 0, 64, 106
1, 98282, Control_c, 0, 64, 104
1, 98294, Note_off_c, 0, 65, 30
1, 98297, Control_c, 0, 64, 102
1, 98312, Control_c, 0, 64, 100
1, 98327, Control_c, 0, 64, 97
1, 98327, Note_on_c, 0, 68, 66
1, 98341, Control_c, 0, 64, 93
1, 98356, Control_c, 0, 64, 89
1, 98371, Control_c, 0, 64, 85
1, 98386, Control_c, 0, 64, 83
1, 98401, Note_off_c, 0, 63, 35
1, 98401, Control_c, 0, 64, 82
1, 98406, Note_off_c, 0, 66, 55
1, 98416, Control_c, 0, 64, 80
1, 98431, Control_c, 0, 64, 78
1, 98446, Control_c, 0, 64, 76
1, 98460, Control_c, 0, 64, 73
1, 98475, Control_c, 0, 64, 70
1, 98490, Control_c, 0, 64, 67
1, 98505, Control_c, 0, 64, 65
1, 98519, Control_c, 0, 64, 63
1, 98534, Control_c, 0, 64, 61
1, 98549, Control_c, 0, 64, 59
1, 98564, Control_c, 0, 64, 59
1, 98579, Control_c, 0, 64, 59
1, 98593, Control_c, 0, 64, 60
1, 98608, Control_c, 0, 64, 61
1, 98623, Control_c, 0, 64, 63
1, 98646, Control_c, 0, 64, 65
1, 98649, Note_on_c, 0, 66, 71
1, 98660, Control_c, 0, 64, 69
1, 98675, Control_c, 0, 64, 75
1, 98682, Note_off_c, 0, 59, 50
1, 98690, Control_c, 0, 64, 84
1, 98705, Control_c, 0, 64, 98
1, 98719, Control_c, 0, 64, 127
1, 98836, Note_on_c, 0, 60, 58
1, 98845, Note_on_c, 0, 65, 64
1, 98898, Note_off_c, 0, 66, 61
1, 98905, Note_off_c, 0, 68, 50
1, 99006, Note_on_c, 0, 66, 81
1, 99069, Note_off_c, 0, 65, 51
1, 99125, Note_on_c, 0, 68, 81
1, 99193, Note_off_c, 0, 66, 54
1, 99224, Control_c, 0, 64, 117
1, 99239, Control_c, 0, 64, 103
1, 99242, Note_on_c, 0, 50, 68
1, 99249, Note_on_c, 0, 70, 84
1, 99254, Control_c, 0, 64, 92
1, 99269, Control_c, 0, 64, 82
1, 99278, Note_off_c, 0, 68, 61
1, 99283, Control_c, 0, 64, 72
1, 99295, Note_off_c, 0, 51, 55
1, 99298, Control_c, 0, 64, 64
1, 99313, Control_c, 0, 64, 60
1, 99328, Control_c, 0, 64, 60
1, 99343, Control_c, 0, 64, 62
1, 99358, Control_c, 0, 64, 64
1, 99370, Note_on_c, 0, 68, 86
1, 99373, Control_c, 0, 64, 66
1, 99395, Control_c, 0, 64, 75
1, 99410, Control_c, 0, 64, 95
1, 99413, Note_off_c, 0, 42, 41
1, 99424, Control_c, 0, 64, 127
1, 99430, Note_off_c, 0, 70, 56
1, 99431, Note_off_c, 0, 60, 57
1, 99489, Note_on_c, 0, 66, 86
1, 99526, Note_off_c, 0, 68, 60
1, 99570, Note_off_c, 0, 66, 62
1, 99604, Note_on_c, 0, 42, 58
1, 99604, Note_on_c, 0, 49, 56
1, 99637, Note_off_c, 0, 50, 58
1, 99647, Control_c, 0, 64, 88
1, 99661, Note_on_c, 0, 68, 79
1, 99661, Control_c, 0, 64, 68
1, 99669, Note_on_c, 0, 61, 74
1, 99676, Control_c, 0, 64, 48
1, 99691, Control_c, 0, 64, 36
1, 99706, Control_c, 0, 64, 44
1, 99721, Control_c, 0, 64, 54
1, 99735, Control_c, 0, 64, 63
1, 99750, Control_c, 0, 64, 70
1, 99765, Control_c, 0, 64, 92
1, 99767, Note_off_c, 0, 42, 61
1, 99780, Control_c, 0, 64, 127
1, 99810, Note_off_c, 0, 49, 61
1, 99811, Note_off_c, 0, 61, 62
1, 99829, Note_on_c, 0, 70, 83
1, 99860, Note_off_c, 0, 68, 59
1, 99889, Note_off_c, 0, 70, 63
1, 99992, Note_on_c, 0, 80, 75
1, 100218, Control_c, 0, 64, 110
1, 100221, Note_on_c, 0, 62, 55
1, 100233, Control_c, 0, 64, 96
1, 100247, Control_c, 0, 64, 88
1, 100259, Note_on_c, 0, 54, 36
1, 100262, Control_c, 0, 64, 83
1, 100263, Note_on_c, 0, 58, 36
1, 100277, Control_c, 0, 64, 81
1, 100284, Note_on_c, 0, 78, 56
1, 100291, Control_c, 0, 64, 80
1, 100306, Control_c, 0, 64, 79
1, 100321, Control_c, 0, 64, 75
1, 100336, Control_c, 0, 64, 72
1, 100351, Control_c, 0, 64, 69
1, 100362, Note_off_c, 0, 80, 53
1, 100366, Control_c, 0, 64, 66
1, 100380, Control_c, 0, 64, 63
1, 100395, Control_c, 0, 64, 58
1, 100410, Control_c, 0, 64, 54
1, 100425, Control_c, 0, 64, 53
1, 100455, Control_c, 0, 64, 53
1, 100470, Control_c, 0, 64, 55
1, 100484, Control_c, 0, 64, 57
1, 100499, Control_c, 0, 64, 60
1, 100514, Control_c, 0, 64, 65
1, 100529, Control_c, 0, 64, 70
1, 100544, Control_c, 0, 64, 78
1, 100558, Control_c, 0, 64, 93
1, 100573, Control_c, 0, 64, 127
1, 100597, Note_off_c, 0, 62, 59
1, 100664, Note_on_c, 0, 77, 59
1, 100686, Note_off_c, 0, 78, 54
1, 100813, Note_on_c, 0, 63, 54
1, 100826, Control_c, 0, 64, 113
1, 100835, Note_off_c, 0, 77, 58
1, 100841, Control_c, 0, 64, 98
1, 100853, Note_on_c, 0, 75, 50
1, 100856, Control_c, 0, 64, 89
1, 100870, Control_c, 0, 64, 82
1, 100893, Control_c, 0, 64, 74
1, 100908, Control_c, 0, 64, 69
1, 100922, Control_c, 0, 64, 65
1, 100937, Control_c, 0, 64, 65
1, 100952, Control_c, 0, 64, 67
1, 100967, Control_c, 0, 64, 70
1, 100982, Control_c, 0, 64, 76
1, 100983, Note_off_c, 0, 75, 61
1, 100996, Control_c, 0, 64, 87
1, 100997, Note_on_c, 0, 73, 63
1, 101006, Note_off_c, 0, 54, 40
1, 101011, Control_c, 0, 64, 112
1, 101026, Control_c, 0, 64, 127
1, 101057, Note_off_c, 0, 73, 59
1, 101099, Note_on_c, 0, 75, 60
1, 101126, Note_off_c, 0, 63, 59
1, 101126, Note_off_c, 0, 75, 63
1, 101153, Note_on_c, 0, 73, 54
1, 101173, Note_off_c, 0, 73, 62
1, 101192, Note_on_c, 0, 75, 65
1, 101248, Note_on_c, 0, 73, 64
1, 101248, Note_off_c, 0, 75, 54
1, 101248, Control_c, 0, 64, 110
1, 101252, Note_on_c, 0, 64, 52
1, 101257, Note_off_c, 0, 58, 37
1, 101263, Control_c, 0, 64, 97
1, 101267, Note_on_c, 0, 55, 39
1, 101278, Control_c, 0, 64, 86
1, 101285, Note_on_c, 0, 61, 37
1, 101293, Control_c, 0, 64, 77
1, 101307, Control_c, 0, 64, 68
1, 101322, Control_c, 0, 64, 61
1, 101337, Control_c, 0, 64, 52
1, 101352, Control_c, 0, 64, 47
1, 101367, Control_c, 0, 64, 46
1, 101381, Control_c, 0, 64, 47
1, 101396, Control_c, 0, 64, 52
1, 101411, Control_c, 0, 64, 56
1, 101426, Control_c, 0, 64, 61
1, 101442, Control_c, 0, 64, 67
1, 101457, Control_c, 0, 64, 75
1, 101463, Note_off_c, 0, 73, 60
1, 101468, Note_on_c, 0, 71, 66
1, 101471, Control_c, 0, 64, 89
1, 101486, Control_c, 0, 64, 127
1, 101518, Note_off_c, 0, 64, 49
1, 101623, Note_off_c, 0, 61, 49
1, 101624, Note_off_c, 0, 71, 59
1, 101627, Note_on_c, 0, 70, 68
1, 101863, Control_c, 0, 64, 114
1, 101866, Note_on_c, 0, 59, 31
1, 101870, Note_on_c, 0, 56, 33
1, 101878, Control_c, 0, 64, 105
1, 101892, Control_c, 0, 64, 97
1, 101907, Control_c, 0, 64, 90
1, 101909, Note_on_c, 0, 71, 56
1, 101916, Note_on_c, 0, 63, 50
1, 101922, Control_c, 0, 64, 84
1, 101936, Control_c, 0, 64, 78
1, 101951, Control_c, 0, 64, 71
1, 101966, Control_c, 0, 64, 65
1, 101981, Control_c, 0, 64, 58
1, 101982, Note_off_c, 0, 55, 34
1, 101994, Note_off_c, 0, 70, 52
1, 101996, Control_c, 0, 64, 49
1, 102011, Control_c, 0, 64, 47
1, 102041, Control_c, 0, 64, 47
1, 102056, Control_c, 0, 64, 50
1, 102070, Control_c, 0, 64, 54
1, 102085, Control_c, 0, 64, 59
1, 102100, Control_c, 0, 64, 64
1, 102115, Control_c, 0, 64, 69
1, 102129, Control_c, 0, 64, 76
1, 102144, Control_c, 0, 64, 86
1, 102159, Control_c, 0, 64, 101
1, 102174, Control_c, 0, 64, 127
1, 102211, Note_off_c, 0, 56, 42
1, 102395, Note_off_c, 0, 63, 32
1, 102491, Note_on_c, 0, 47, 35
1, 102491, Note_on_c, 0, 54, 36
1, 102523, Control_c, 0, 64, 116
1, 102530, Note_on_c, 0, 62, 46
1, 102538, Control_c, 0, 64, 104
1, 102553, Control_c, 0, 64, 95
1, 102568, Control_c, 0, 64, 85
1, 102583, Control_c, 0, 64, 78
1, 102598, Control_c, 0, 64, 73
1, 102613, Control_c, 0, 64, 69
1, 102628, Control_c, 0, 64, 69
1, 102642, Control_c, 0, 64, 70
1, 102655, Note_off_c, 0, 59, 39
1, 102657, Control_c, 0, 64, 71
1, 102672, Control_c, 0, 64, 73
1, 102686, Control_c, 0, 64, 76
1, 102701, Control_c, 0, 64, 82
1, 102716, Control_c, 0, 64, 91
1, 102731, Control_c, 0, 64, 109
1, 102746, Control_c, 0, 64, 127
1, 102810, Note_on_c, 0, 70, 53
1, 102873, Note_off_c, 0, 47, 49
1, 102885, Note_off_c, 0, 62, 56
1, 102973, Note_on_c, 0, 68, 69
1, 103008, Note_off_c, 0, 71, 52
1, 103102, Control_c, 0, 64, 115
1, 103108, Note_off_c, 0, 70, 45
1, 103111, Note_on_c, 0, 46, 49
1, 103116, Note_on_c, 0, 66, 69
1, 103117, Control_c, 0, 64, 94
1, 103138, Note_off_c, 0, 68, 61
1, 103139, Control_c, 0, 64, 85
1, 103144, Note_on_c, 0, 61, 60
1, 103154, Control_c, 0, 64, 83
1, 103169, Control_c, 0, 64, 85
1, 103183, Control_c, 0, 64, 87
1, 103194, Note_off_c, 0, 66, 61
1, 103198, Control_c, 0, 64, 91
1, 103213, Control_c, 0, 64, 99
1, 103228, Control_c, 0, 64, 114
1, 103243, Control_c, 0, 64, 127
1, 103287, Note_on_c, 0, 65, 71
1, 103326, Note_off_c, 0, 46, 36
1, 103346, Note_off_c, 0, 54, 42
1, 103407, Note_off_c, 0, 61, 34
1, 103458, Note_on_c, 0, 63, 73
1, 103528, Note_off_c, 0, 65, 57
1, 103672, Control_c, 0, 64, 111
1, 103687, Control_c, 0, 64, 104
1, 103695, Note_on_c, 0, 54, 35
1, 103702, Control_c, 0, 64, 100
1, 103707, Note_on_c, 0, 44, 34
1, 103710, Note_on_c, 0, 51, 35
1, 103716, Control_c, 0, 64, 96
1, 103731, Control_c, 0, 64, 92
1, 103746, Control_c, 0, 64, 87
1, 103752, Note_on_c, 0, 70, 45
1, 103761, Note_on_c, 0, 60, 48
1, 103761, Control_c, 0, 64, 83
1, 103776, Control_c, 0, 64, 80
1, 103791, Control_c, 0, 64, 78
1, 103805, Control_c, 0, 64, 76
1, 103820, Control_c, 0, 64, 74
1, 103836, Control_c, 0, 64, 71
1, 103851, Control_c, 0, 64, 69
1, 103866, Control_c, 0, 64, 66
1, 103888, Control_c, 0, 64, 64
1, 103903, Control_c, 0, 64, 62
1, 103918, Control_c, 0, 64, 59
1, 103932, Note_off_c, 0, 63, 55
1, 103932, Control_c, 0, 64, 53
1, 103947, Control_c, 0, 64, 46
1, 103962, Control_c, 0, 64, 35
1, 103977, Control_c, 0, 64, 31
1, 104006, Control_c, 0, 64, 32
1, 104021, Control_c, 0, 64, 37
1, 104036, Control_c, 0, 64, 43
1, 104051, Control_c, 0, 64, 51
1, 104066, Control_c, 0, 64, 57
1, 104080, Control_c, 0, 64, 61
1, 104095, Control_c, 0, 64, 65
1, 104110, Control_c, 0, 64, 69
1, 104125, Control_c, 0, 64, 75
1, 104139, Control_c, 0, 64, 88
1, 104154, Control_c, 0, 64, 106
1, 104169, Control_c, 0, 64, 127
1, 104243, Note_off_c, 0, 54, 42
1, 104257, Note_on_c, 0, 68, 51
1, 104268, Note_off_c, 0, 51, 38
1, 104333, Note_off_c, 0, 44, 39
1, 104348, Note_off_c, 0, 60, 59
1, 104491, Note_on_c, 0, 66, 55
1, 104513, Note_off_c, 0, 70, 33
1, 104527, Note_off_c, 0, 68, 57
1, 104549, Note_off_c, 0, 66, 57
1, 104717, Note_on_c, 0, 49, 24
1, 104722, Note_on_c, 0, 37, 28
1, 104770, Note_on_c, 0, 65, 45
1, 104772, Note_on_c, 0, 59, 43
1, 104785, Control_c, 0, 64, 105
1, 104793, Note_on_c, 0, 53, 42
1, 104800, Control_c, 0, 64, 85
1, 104815, Control_c, 0, 64, 72
1, 104829, Control_c, 0, 64, 62
1, 104844, Control_c, 0, 64, 48
1, 104859, Control_c, 0, 64, 43
1, 104874, Control_c, 0, 64, 44
1, 104889, Control_c, 0, 64, 48
1, 104903, Control_c, 0, 64, 53
1, 104918, Control_c, 0, 64, 56
1, 104933, Control_c, 0, 64, 60
1, 104948, Control_c, 0, 64, 63
1, 104962, Control_c, 0, 64, 67
1, 104977, Control_c, 0, 64, 75
1, 104992, Control_c, 0, 64, 86
1, 105007, Control_c, 0, 64, 104
1, 105022, Control_c, 0, 64, 127
1, 105028, Note_off_c, 0, 37, 38
1, 105031, Note_off_c, 0, 53, 38
1, 105051, Note_on_c, 0, 63, 41
1, 105138, Note_off_c, 0, 49, 34
1, 105171, Note_off_c, 0, 65, 35
1, 105290, Note_on_c, 0, 61, 44
1, 105371, Note_off_c, 0, 59, 21
1, 105603, Note_on_c, 0, 49, 35
1, 105605, Note_on_c, 0, 42, 44
1, 105649, Note_on_c, 0, 58, 75
1, 105785, Control_c, 0, 64, 98
1, 105800, Control_c, 0, 64, 85
1, 105808, Note_off_c, 0, 63, 7
1, 105815, Control_c, 0, 64, 74
1, 105829, Note_off_c, 0, 61, 56
1, 105830, Control_c, 0, 64, 67
1, 105844, Control_c, 0, 64, 62
1, 105859, Control_c, 0, 64, 58
1, 105874, Control_c, 0, 64, 55
1, 105889, Control_c, 0, 64, 52
1, 105903, Control_c, 0, 64, 51
1, 105948, Control_c, 0, 64, 52
1, 105963, Control_c, 0, 64, 55
1, 105977, Control_c, 0, 64, 58
1, 105992, Control_c, 0, 64, 61
1, 106007, Control_c, 0, 64, 63
1, 106022, Control_c, 0, 64, 66
1, 106037, Control_c, 0, 64, 72
1, 106051, Control_c, 0, 64, 83
1, 106066, Control_c, 0, 64, 106
1, 106081, Control_c, 0, 64, 127
1, 106176, Note_on_c, 0, 70, 58
1, 106282, Note_off_c, 0, 70, 60
1, 106430, Note_on_c, 0, 60, 66
1, 106665, Note_on_c, 0, 61, 78
1, 106825, Note_off_c, 0, 60, 35
1, 106971, Control_c, 0, 64, 119
1, 106986, Control_c, 0, 64, 107
1, 107000, Control_c, 0, 64, 102
1, 107015, Control_c, 0, 64, 98
1, 107024, Note_on_c, 0, 66, 59
1, 107031, Control_c, 0, 64, 93
1, 107046, Control_c, 0, 64, 88
1, 107061, Control_c, 0, 64, 84
1, 107076, Control_c, 0, 64, 82
1, 107090, Control_c, 0, 64, 80
1, 107105, Control_c, 0, 64, 78
1, 107120, Control_c, 0, 64, 76
1, 107135, Control_c, 0, 64, 74
1, 107149, Control_c, 0, 64, 72
1, 107164, Control_c, 0, 64, 71
1, 107179, Control_c, 0, 64, 70
1, 107194, Control_c, 0, 64, 68
1, 107209, Control_c, 0, 64, 66
1, 107220, Note_off_c, 0, 61, 58
1, 107224, Control_c, 0, 64, 65
1, 107239, Control_c, 0, 64, 64
1, 107254, Control_c, 0, 64, 62
1, 107269, Control_c, 0, 64, 61
1, 107284, Control_c, 0, 64, 58
1, 107298, Control_c, 0, 64, 54
1, 107313, Control_c, 0, 64, 49
1, 107328, Control_c, 0, 64, 48
1, 107357, Control_c, 0, 64, 50
1, 107372, Control_c, 0, 64, 52
1, 107387, Control_c, 0, 64, 55
1, 107402, Control_c, 0, 64, 59
1, 107417, Control_c, 0, 64, 62
1, 107431, Control_c, 0, 64, 65
1, 107446, Control_c, 0, 64, 70
1, 107461, Control_c, 0, 64, 77
1, 107476, Control_c, 0, 64, 88
1, 107491, Control_c, 0, 64, 112
1, 107505, Control_c, 0, 64, 127
1, 107612, Note_on_c, 0, 50, 50
1, 107639, Note_on_c, 0, 65, 66
1, 107666, Note_off_c, 0, 49, 60
1, 107666, Note_off_c, 0, 42, 33
1, 107712, Note_off_c, 0, 58, 55
1, 107824, Note_on_c, 0, 51, 55
1, 107835, Note_on_c, 0, 42, 49
1, 107862, Note_on_c, 0, 63, 67
1, 107874, Note_on_c, 0, 59, 62
1, 107925, Note_off_c, 0, 65, 58
1, 107934, Note_off_c, 0, 50, 35
1, 107968, Note_off_c, 0, 66, 36
1, 108065, Note_on_c, 0, 65, 74
1, 108202, Note_on_c, 0, 66, 79
1, 108209, Control_c, 0, 64, 114
1, 108224, Control_c, 0, 64, 109
1, 108239, Control_c, 0, 64, 105
1, 108253, Control_c, 0, 64, 102
1, 108257, Note_off_c, 0, 63, 52
1, 108268, Control_c, 0, 64, 100
1, 108283, Control_c, 0, 64, 97
1, 108288, Note_off_c, 0, 65, 52
1, 108298, Control_c, 0, 64, 95
1, 108313, Control_c, 0, 64, 92
1, 108328, Control_c, 0, 64, 88
1, 108342, Control_c, 0, 64, 85
1, 108357, Control_c, 0, 64, 83
1, 108365, Note_on_c, 0, 68, 76
1, 108379, Control_c, 0, 64, 80
1, 108394, Control_c, 0, 64, 78
1, 108409, Control_c, 0, 64, 76
1, 108424, Control_c, 0, 64, 74
1, 108439, Control_c, 0, 64, 72
1, 108453, Control_c, 0, 64, 70
1, 108457, Note_off_c, 0, 66, 57
1, 108468, Control_c, 0, 64, 69
1, 108483, Control_c, 0, 64, 66
1, 108498, Control_c, 0, 64, 64
1, 108513, Control_c, 0, 64, 62
1, 108527, Control_c, 0, 64, 61
1, 108542, Control_c, 0, 64, 59
1, 108557, Control_c, 0, 64, 56
1, 108572, Control_c, 0, 64, 53
1, 108587, Control_c, 0, 64, 50
1, 108602, Control_c, 0, 64, 49
1, 108617, Control_c, 0, 64, 50
1, 108632, Control_c, 0, 64, 53
1, 108647, Control_c, 0, 64, 57
1, 108662, Control_c, 0, 64, 61
1, 108676, Control_c, 0, 64, 64
1, 108691, Control_c, 0, 64, 68
1, 108696, Note_on_c, 0, 66, 79
1, 108706, Control_c, 0, 64, 77
1, 108709, Note_off_c, 0, 59, 60
1, 108721, Control_c, 0, 64, 87
1, 108736, Control_c, 0, 64, 102
1, 108751, Control_c, 0, 64, 127
1, 108873, Note_on_c, 0, 60, 69
1, 108873, Note_on_c, 0, 65, 71
1, 108903, Note_off_c, 0, 68, 53
1, 109000, Note_off_c, 0, 66, 36
1, 109023, Note_on_c, 0, 66, 64
1, 109067, Note_off_c, 0, 65, 61
1, 109160, Note_on_c, 0, 68, 85
1, 109220, Note_off_c, 0, 66, 56
1, 109274, Note_on_c, 0, 50, 69
1, 109283, Note_on_c, 0, 70, 85
1, 109291, Control_c, 0, 64, 105
1, 109306, Control_c, 0, 64, 87
1, 109316, Note_off_c, 0, 68, 60
1, 109321, Control_c, 0, 64, 73
1, 109335, Control_c, 0, 64, 64
1, 109349, Note_off_c, 0, 51, 40
1, 109350, Control_c, 0, 64, 54
1, 109365, Control_c, 0, 64, 54
1, 109380, Control_c, 0, 64, 56
1, 109395, Control_c, 0, 64, 59
1, 109409, Note_on_c, 0, 68, 90
1, 109410, Control_c, 0, 64, 62
1, 109425, Control_c, 0, 64, 67
1, 109437, Note_off_c, 0, 60, 63
1, 109440, Control_c, 0, 64, 78
1, 109449, Note_off_c, 0, 70, 58
1, 109455, Control_c, 0, 64, 127
1, 109460, Note_off_c, 0, 42, 51
1, 109520, Note_on_c, 0, 66, 89
1, 109556, Note_off_c, 0, 68, 60
1, 109595, Note_off_c, 0, 66, 60
1, 109628, Note_on_c, 0, 42, 59
1, 109633, Note_on_c, 0, 49, 64
1, 109663, Control_c, 0, 64, 90
1, 109665, Note_off_c, 0, 50, 59
1, 109678, Control_c, 0, 64, 66
1, 109691, Note_on_c, 0, 68, 77
1, 109692, Control_c, 0, 64, 40
1, 109697, Note_on_c, 0, 61, 74
1, 109707, Control_c, 0, 64, 0
1, 109723, Note_on_c, 0, 69, 55
1, 109737, Control_c, 0, 64, 24
1, 109751, Control_c, 0, 64, 47
1, 109766, Control_c, 0, 64, 64
1, 109781, Control_c, 0, 64, 81
1, 109785, Note_off_c, 0, 42, 62
1, 109796, Control_c, 0, 64, 127
1, 109806, Note_off_c, 0, 61, 61
1, 109814, Note_off_c, 0, 49, 61
1, 109851, Note_on_c, 0, 70, 88
1, 109880, Note_off_c, 0, 68, 63
1, 109885, Note_off_c, 0, 69, 58
1, 109910, Note_off_c, 0, 70, 66
1, 110029, Note_on_c, 0, 83, 91
1, 110238, Note_on_c, 0, 62, 70
1, 110260, Note_on_c, 0, 54, 49
1, 110268, Note_on_c, 0, 58, 50
1, 110286, Note_on_c, 0, 82, 79
1, 110309, Control_c, 0, 64, 119
1, 110323, Control_c, 0, 64, 103
1, 110338, Control_c, 0, 64, 94
1, 110353, Control_c, 0, 64, 88
1, 110368, Control_c, 0, 64, 84
1, 110382, Control_c, 0, 64, 80
1, 110389, Note_off_c, 0, 83, 53
1, 110397, Control_c, 0, 64, 75
1, 110412, Control_c, 0, 64, 69
1, 110427, Control_c, 0, 64, 64
1, 110441, Control_c, 0, 64, 59
1, 110456, Control_c, 0, 64, 54
1, 110471, Control_c, 0, 64, 49
1, 110486, Control_c, 0, 64, 48
1, 110501, Control_c, 0, 64, 50
1, 110516, Control_c, 0, 64, 54
1, 110530, Control_c, 0, 64, 58
1, 110545, Control_c, 0, 64, 62
1, 110560, Control_c, 0, 64, 68
1, 110575, Control_c, 0, 64, 78
1, 110590, Control_c, 0, 64, 106
1, 110605, Control_c, 0, 64, 127
1, 110650, Note_off_c, 0, 62, 61
1, 110668, Note_on_c, 0, 80, 84
1, 110819, Note_on_c, 0, 63, 72
1, 110869, Note_on_c, 0, 78, 79
1, 110894, Control_c, 0, 64, 102
1, 110909, Control_c, 0, 64, 92
1, 110923, Control_c, 0, 64, 85
1, 110938, Control_c, 0, 64, 77
1, 110942, Note_off_c, 0, 80, 59
1, 110945, Note_off_c, 0, 82, 18
1, 110953, Control_c, 0, 64, 70
1, 110967, Control_c, 0, 64, 67
1, 110982, Control_c, 0, 64, 66
1, 110997, Control_c, 0, 64, 67
1, 111012, Control_c, 0, 64, 70
1, 111028, Control_c, 0, 64, 76
1, 111031, Note_on_c, 0, 77, 87
1, 111043, Control_c, 0, 64, 86
1, 111058, Control_c, 0, 64, 115
1, 111062, Note_off_c, 0, 78, 63
1, 111072, Control_c, 0, 64, 127
1, 111156, Note_on_c, 0, 78, 92
1, 111181, Note_off_c, 0, 77, 61
1, 111198, Note_off_c, 0, 63, 60
1, 111291, Note_on_c, 0, 64, 68
1, 111309, Control_c, 0, 64, 122
1, 111324, Control_c, 0, 64, 104
1, 111331, Note_on_c, 0, 75, 71
1, 111339, Control_c, 0, 64, 97
1, 111353, Control_c, 0, 64, 91
1, 111359, Note_off_c, 0, 78, 62
1, 111376, Control_c, 0, 64, 85
1, 111391, Control_c, 0, 64, 77
1, 111405, Control_c, 0, 64, 68
1, 111420, Control_c, 0, 64, 61
1, 111435, Control_c, 0, 64, 51
1, 111450, Control_c, 0, 64, 47
1, 111479, Control_c, 0, 64, 47
1, 111494, Control_c, 0, 64, 50
1, 111509, Control_c, 0, 64, 55
1, 111524, Control_c, 0, 64, 58
1, 111539, Control_c, 0, 64, 62
1, 111553, Control_c, 0, 64, 67
1, 111568, Control_c, 0, 64, 74
1, 111583, Control_c, 0, 64, 88
1, 111598, Control_c, 0, 64, 127
1, 111669, Note_off_c, 0, 58, 34
1, 111673, Note_off_c, 0, 54, 32
1, 111681, Note_off_c, 0, 64, 54
1, 111702, Note_on_c, 0, 73, 65
1, 111745, Note_off_c, 0, 75, 60
1, 111831, Note_off_c, 0, 73, 62
1, 111910, Control_c, 0, 64, 125
1, 111919, Note_on_c, 0, 65, 59
1, 111925, Control_c, 0, 64, 108
1, 111936, Note_on_c, 0, 53, 45
1, 111940, Control_c, 0, 64, 102
1, 111947, Note_on_c, 0, 61, 40
1, 111955, Control_c, 0, 64, 98
1, 111960, Note_on_c, 0, 58, 40
1, 111969, Control_c, 0, 64, 94
1, 111984, Control_c, 0, 64, 89
1, 111999, Control_c, 0, 64, 84
1, 112014, Control_c, 0, 64, 79
1, 112028, Control_c, 0, 64, 76
1, 112043, Control_c, 0, 64, 73
1, 112058, Control_c, 0, 64, 70
1, 112073, Control_c, 0, 64, 66
1, 112088, Control_c, 0, 64, 62
1, 112102, Control_c, 0, 64, 59
1, 112140, Control_c, 0, 64, 60
1, 112155, Control_c, 0, 64, 61
1, 112170, Control_c, 0, 64, 62
1, 112177, Note_on_c, 0, 72, 50
1, 112184, Control_c, 0, 64, 64
1, 112199, Control_c, 0, 64, 66
1, 112214, Control_c, 0, 64, 69
1, 112228, Control_c, 0, 64, 74
1, 112243, Control_c, 0, 64, 84
1, 112258, Control_c, 0, 64, 95
1, 112273, Control_c, 0, 64, 108
1, 112283, Note_off_c, 0, 72, 58
1, 112288, Control_c, 0, 64, 127
1, 112310, Note_on_c, 0, 70, 62
1, 112418, Note_off_c, 0, 70, 53
1, 112437, Note_on_c, 0, 72, 64
1, 112438, Note_on_c, 0, 67, 64
1, 112450, Control_c, 0, 64, 115
1, 112465, Control_c, 0, 64, 102
1, 112480, Control_c, 0, 64, 93
1, 112494, Control_c, 0, 64, 84
1, 112509, Control_c, 0, 64, 77
1, 112524, Control_c, 0, 64, 71
1, 112538, Control_c, 0, 64, 68
1, 112553, Control_c, 0, 64, 68
1, 112566, Note_on_c, 0, 73, 67
1, 112568, Control_c, 0, 64, 70
1, 112570, Note_off_c, 0, 72, 60
1, 112583, Control_c, 0, 64, 72
1, 112598, Control_c, 0, 64, 76
1, 112613, Control_c, 0, 64, 84
1, 112624, Note_off_c, 0, 73, 59
1, 112627, Note_off_c, 0, 67, 57
1, 112629, Control_c, 0, 64, 96
1, 112632, Note_off_c, 0, 65, 55
1, 112634, Note_off_c, 0, 53, 41
1, 112643, Control_c, 0, 64, 125
1, 112658, Control_c, 0, 64, 127
1, 112693, Note_on_c, 0, 77, 70
1, 112821, Control_c, 0, 64, 113
1, 112823, Note_on_c, 0, 75, 60
1, 112836, Control_c, 0, 64, 99
1, 112838, Note_on_c, 0, 63, 40
1, 112838, Note_on_c, 0, 69, 50
1, 112843, Note_on_c, 0, 53, 39
1, 112846, Note_off_c, 0, 58, 35
1, 112847, Note_off_c, 0, 77, 47
1, 112850, Note_off_c, 0, 61, 30
1, 112850, Control_c, 0, 64, 88
1, 112873, Control_c, 0, 64, 77
1, 112888, Control_c, 0, 64, 66
1, 112903, Control_c, 0, 64, 53
1, 112918, Control_c, 0, 64, 40
1, 112932, Control_c, 0, 64, 39
1, 112947, Control_c, 0, 64, 40
1, 112962, Control_c, 0, 64, 45
1, 112972, Note_on_c, 0, 73, 57
1, 112976, Control_c, 0, 64, 52
1, 112991, Control_c, 0, 64, 58
1, 112999, Note_off_c, 0, 75, 46
1, 113006, Control_c, 0, 64, 63
1, 113021, Control_c, 0, 64, 68
1, 113036, Control_c, 0, 64, 76
1, 113050, Control_c, 0, 64, 89
1, 113065, Note_off_c, 0, 63, 55
1, 113065, Control_c, 0, 64, 109
1, 113080, Control_c, 0, 64, 127
1, 113097, Note_off_c, 0, 69, 27
1, 113109, Note_off_c, 0, 73, 56
1, 113127, Note_off_c, 0, 53, 37
1, 113136, Note_on_c, 0, 72, 51
1, 113243, Control_c, 0, 64, 125
1, 113258, Control_c, 0, 64, 113
1, 113273, Control_c, 0, 64, 107
1, 113288, Control_c, 0, 64, 103
1, 113303, Control_c, 0, 64, 99
1, 113317, Control_c, 0, 64, 94
1, 113323, Note_on_c, 0, 65, 30
1, 113329, Note_on_c, 0, 58, 33
1, 113332, Control_c, 0, 64, 89
1, 113332, Note_on_c, 0, 61, 28
1, 113347, Control_c, 0, 64, 85
1, 113362, Control_c, 0, 64, 80
1, 113370, Note_off_c, 0, 72, 33
1, 113376, Control_c, 0, 64, 74
1, 113377, Note_on_c, 0, 73, 39
1, 113384, Note_on_c, 0, 69, 33
1, 113391, Control_c, 0, 64, 68
1, 113406, Control_c, 0, 64, 62
1, 113422, Control_c, 0, 64, 51
1, 113437, Control_c, 0, 64, 44
1, 113452, Control_c, 0, 64, 43
1, 113496, Control_c, 0, 64, 45
1, 113511, Control_c, 0, 64, 49
1, 113526, Control_c, 0, 64, 54
1, 113540, Control_c, 0, 64, 59
1, 113555, Control_c, 0, 64, 63
1, 113570, Control_c, 0, 64, 67
1, 113583, Note_off_c, 0, 65, 41
1, 113584, Control_c, 0, 64, 73
1, 113599, Control_c, 0, 64, 84
1, 113622, Control_c, 0, 64, 102
1, 113636, Control_c, 0, 64, 127
1, 113675, Note_off_c, 0, 61, 41
1, 113681, Note_off_c, 0, 58, 55
1, 113872, Note_on_c, 0, 70, 44
1, 113896, Note_off_c, 0, 69, 38
1, 113919, Control_c, 0, 64, 95
1, 113931, Note_on_c, 0, 44, 55
1, 113934, Control_c, 0, 64, 77
1, 113948, Control_c, 0, 64, 65
1, 113963, Control_c, 0, 64, 51
1, 113978, Control_c, 0, 64, 48
1, 113984, Note_off_c, 0, 73, 39
1, 113989, Note_on_c, 0, 51, 67
1, 113992, Control_c, 0, 64, 52
1, 114007, Control_c, 0, 64, 55
1, 114022, Control_c, 0, 64, 59
1, 114037, Control_c, 0, 64, 63
1, 114042, Note_off_c, 0, 70, 41
1, 114052, Control_c, 0, 64, 68
1, 114057, Note_off_c, 0, 44, 63
1, 114066, Control_c, 0, 64, 78
1, 114081, Control_c, 0, 64, 104
1, 114093, Note_on_c, 0, 59, 80
1, 114096, Control_c, 0, 64, 127
1, 114147, Note_off_c, 0, 51, 64
1, 114329, Note_off_c, 0, 59, 60
1, 114485, Note_on_c, 0, 63, 87
1, 114567, Note_off_c, 0, 63, 59
1, 114699, Note_on_c, 0, 55, 54
1, 114719, Note_on_c, 0, 75, 66
1, 114734, Note_on_c, 0, 71, 54
1, 114738, Note_on_c, 0, 63, 47
1, 114771, Control_c, 0, 64, 117
1, 114786, Control_c, 0, 64, 93
1, 114801, Control_c, 0, 64, 81
1, 114815, Control_c, 0, 64, 72
1, 114830, Control_c, 0, 64, 66
1, 114845, Control_c, 0, 64, 62
1, 114860, Control_c, 0, 64, 61
1, 114889, Control_c, 0, 64, 63
1, 114904, Control_c, 0, 64, 64
1, 114919, Control_c, 0, 64, 67
1, 114928, Note_on_c, 0, 56, 76
1, 114934, Control_c, 0, 64, 72
1, 114948, Control_c, 0, 64, 81
1, 114963, Control_c, 0, 64, 100
1, 114978, Control_c, 0, 64, 127
1, 115004, Note_off_c, 0, 63, 49
1, 115026, Note_off_c, 0, 71, 56
1, 115071, Note_on_c, 0, 58, 85
1, 115091, Note_off_c, 0, 55, 59
1, 115109, Note_off_c, 0, 75, 58
1, 115170, Note_off_c, 0, 56, 57
1, 115190, Note_on_c, 0, 59, 91
1, 115234, Note_off_c, 0, 58, 62
1, 115294, Note_on_c, 0, 62, 92
1, 115326, Note_off_c, 0, 59, 62
1, 115441, Note_on_c, 0, 65, 77
1, 115471, Note_on_c, 0, 83, 77
1, 115479, Note_on_c, 0, 80, 58
1, 115485, Note_on_c, 0, 71, 49
1, 115488, Note_off_c, 0, 62, 53
1, 115506, Control_c, 0, 64, 102
1, 115520, Control_c, 0, 64, 89
1, 115535, Control_c, 0, 64, 79
1, 115550, Control_c, 0, 64, 69
1, 115564, Control_c, 0, 64, 61
1, 115579, Control_c, 0, 64, 51
1, 115594, Control_c, 0, 64, 47
1, 115638, Control_c, 0, 64, 50
1, 115653, Control_c, 0, 64, 53
1, 115668, Control_c, 0, 64, 58
1, 115683, Control_c, 0, 64, 62
1, 115698, Control_c, 0, 64, 64
1, 115712, Control_c, 0, 64, 69
1, 115718, Note_on_c, 0, 63, 77
1, 115727, Control_c, 0, 64, 76
1, 115742, Control_c, 0, 64, 90
1, 115750, Note_off_c, 0, 83, 52
1, 115757, Control_c, 0, 64, 112
1, 115762, Note_off_c, 0, 65, 59
1, 115771, Control_c, 0, 64, 127
1, 115781, Note_off_c, 0, 71, 50
1, 115822, Note_off_c, 0, 80, 57
1, 115911, Note_off_c, 0, 63, 62
1, 115973, Control_c, 0, 64, 120
1, 115988, Control_c, 0, 64, 107
1, 116002, Control_c, 0, 64, 99
1, 116017, Control_c, 0, 64, 94
1, 116032, Control_c, 0, 64, 88
1, 116046, Control_c, 0, 64, 83
1, 116061, Control_c, 0, 64, 75
1, 116075, Control_c, 0, 64, 68
1, 116090, Control_c, 0, 64, 61
1, 116105, Control_c, 0, 64, 53
1, 116120, Control_c, 0, 64, 48
1, 116135, Control_c, 0, 64, 43
1, 116149, Control_c, 0, 64, 40
1, 116164, Control_c, 0, 64, 40
1, 116179, Control_c, 0, 64, 46
1, 116194, Control_c, 0, 64, 54
1, 116209, Control_c, 0, 64, 59
1, 116209, Note_on_c, 0, 68, 79
1, 116224, Control_c, 0, 64, 64
1, 116239, Control_c, 0, 64, 71
1, 116254, Control_c, 0, 64, 83
1, 116268, Control_c, 0, 64, 127
1, 116326, Note_off_c, 0, 68, 59
1, 116379, Note_on_c, 0, 66, 60
1, 116384, Note_on_c, 0, 75, 73
1, 116412, Note_on_c, 0, 71, 53
1, 116433, Note_on_c, 0, 68, 44
1, 116477, Note_on_c, 0, 63, 57
1, 116477, Note_off_c, 0, 66, 61
1, 116503, Note_on_c, 0, 77, 86
1, 116509, Note_off_c, 0, 63, 65
1, 116547, Note_off_c, 0, 71, 59
1, 116596, Note_off_c, 0, 75, 61
1, 116601, Note_on_c, 0, 78, 85
1, 116619, Note_on_c, 0, 49, 61
1, 116629, Note_off_c, 0, 68, 59
1, 116640, Note_off_c, 0, 77, 62
1, 116653, Note_off_c, 0, 49, 64
1, 116669, Note_off_c, 0, 78, 63
1, 116706, Control_c, 0, 64, 95
1, 116717, Note_on_c, 0, 65, 66
1, 116721, Control_c, 0, 64, 81
1, 116728, Note_on_c, 0, 80, 75
1, 116736, Control_c, 0, 64, 78
1, 116739, Note_on_c, 0, 71, 60
1, 116751, Control_c, 0, 64, 80
1, 116759, Note_on_c, 0, 68, 58
1, 116765, Control_c, 0, 64, 84
1, 116780, Control_c, 0, 64, 89
1, 116794, Control_c, 0, 64, 99
1, 116809, Control_c, 0, 64, 127
1, 116942, Note_off_c, 0, 65, 38
1, 116971, Note_on_c, 0, 61, 51
1, 117005, Note_off_c, 0, 61, 65
1, 117007, Note_on_c, 0, 77, 65
1, 117044, Note_off_c, 0, 80, 60
1, 117089, Note_off_c, 0, 71, 54
1, 117090, Control_c, 0, 64, 119
1, 117105, Control_c, 0, 64, 85
1, 117118, Note_on_c, 0, 44, 66
1, 117120, Control_c, 0, 64, 67
1, 117124, Note_off_c, 0, 68, 37
1, 117135, Note_off_c, 0, 77, 58
1, 117135, Control_c, 0, 64, 52
1, 117150, Control_c, 0, 64, 38
1, 117162, Note_on_c, 0, 51, 73
1, 117164, Control_c, 0, 64, 41
1, 117179, Control_c, 0, 64, 47
1, 117194, Control_c, 0, 64, 53
1, 117208, Note_off_c, 0, 44, 63
1, 117208, Control_c, 0, 64, 58
1, 117223, Control_c, 0, 64, 63
1, 117231, Note_on_c, 0, 59, 85
1, 117238, Control_c, 0, 64, 71
1, 117253, Control_c, 0, 64, 89
1, 117268, Control_c, 0, 64, 127
1, 117281, Note_off_c, 0, 51, 63
1, 117418, Note_off_c, 0, 59, 62
1, 117538, Note_on_c, 0, 63, 84
1, 117555, Note_on_c, 0, 61, 54
1, 117595, Note_off_c, 0, 61, 46
1, 117617, Note_off_c, 0, 63, 61
1, 117660, Poly_aftertouch_c, 0, 62, 0
1, 117734, Note_on_c, 0, 55, 64
1, 117735, Note_on_c, 0, 75, 76
1, 117742, Note_on_c, 0, 71, 61
1, 117744, Note_on_c, 0, 63, 64
1, 117751, Control_c, 0, 64, 109
1, 117766, Control_c, 0, 64, 86
1, 117781, Control_c, 0, 64, 73
1, 117795, Control_c, 0, 64, 66
1, 117810, Control_c, 0, 64, 66
1, 117825, Control_c, 0, 64, 69
1, 117840, Control_c, 0, 64, 73
1, 117854, Control_c, 0, 64, 80
1, 117860, Note_off_c, 0, 63, 62
1, 117869, Control_c, 0, 64, 98
1, 117884, Control_c, 0, 64, 127
1, 117888, Note_off_c, 0, 71, 61
1, 117917, Note_off_c, 0, 75, 62
1, 117922, Note_on_c, 0, 56, 87
1, 118076, Note_off_c, 0, 55, 31
1, 118077, Note_on_c, 0, 58, 84
1, 118081, Note_on_c, 0, 80, 86
1, 118090, Note_on_c, 0, 68, 77
1, 118094, Note_on_c, 0, 75, 68
1, 118146, Note_off_c, 0, 56, 58
1, 118203, Note_on_c, 0, 59, 90
1, 118214, Note_off_c, 0, 68, 60
1, 118235, Note_off_c, 0, 58, 62
1, 118254, Note_off_c, 0, 75, 61
1, 118259, Note_off_c, 0, 80, 61
1, 118304, Note_on_c, 0, 62, 98
1, 118320, Note_off_c, 0, 59, 50
1, 118451, Note_on_c, 0, 65, 87
1, 118476, Note_on_c, 0, 83, 92
1, 118483, Note_on_c, 0, 71, 84
1, 118486, Note_on_c, 0, 80, 71
1, 118488, Note_off_c, 0, 62, 58
1, 118514, Control_c, 0, 64, 107
1, 118529, Control_c, 0, 64, 82
1, 118543, Control_c, 0, 64, 68
1, 118558, Control_c, 0, 64, 60
1, 118573, Control_c, 0, 64, 55
1, 118588, Control_c, 0, 64, 58
1, 118603, Control_c, 0, 64, 60
1, 118618, Control_c, 0, 64, 63
1, 118632, Control_c, 0, 64, 67
1, 118647, Control_c, 0, 64, 78
1, 118662, Control_c, 0, 64, 127
1, 118706, Note_on_c, 0, 63, 96
1, 118728, Note_off_c, 0, 65, 64
1, 118729, Note_off_c, 0, 83, 59
1, 118741, Note_off_c, 0, 71, 57
1, 118779, Note_off_c, 0, 63, 64
1, 118803, Note_off_c, 0, 80, 61
1, 118962, Note_on_c, 0, 70, 102
1, 119011, Control_c, 0, 64, 82
1, 119026, Control_c, 0, 64, 64
1, 119041, Control_c, 0, 64, 31
1, 119056, Control_c, 0, 64, 19
1, 119071, Control_c, 0, 64, 22
1, 119085, Control_c, 0, 64, 34
1, 119100, Control_c, 0, 64, 48
1, 119115, Control_c, 0, 64, 60
1, 119130, Control_c, 0, 64, 70
1, 119145, Control_c, 0, 64, 89
1, 119159, Control_c, 0, 64, 127
1, 119172, Note_off_c, 0, 70, 56
1, 119192, Note_on_c, 0, 68, 94
1, 119240, Note_off_c, 0, 68, 63
1, 119343, Note_on_c, 0, 75, 81
1, 119350, Note_on_c, 0, 66, 78
1, 119360, Note_on_c, 0, 68, 72
1, 119360, Note_on_c, 0, 71, 72
1, 119455, Note_on_c, 0, 77, 86
1, 119460, Note_off_c, 0, 66, 60
1, 119462, Note_on_c, 0, 65, 73
1, 119516, Note_off_c, 0, 71, 52
1, 119530, Note_off_c, 0, 65, 63
1, 119532, Note_on_c, 0, 63, 73
1, 119558, Note_off_c, 0, 63, 67
1, 119560, Note_on_c, 0, 78, 86
1, 119571, Note_off_c, 0, 75, 59
1, 119607, Note_off_c, 0, 68, 60
1, 119608, Note_off_c, 0, 77, 57
1, 119630, Note_off_c, 0, 78, 62
1, 119634, Note_on_c, 0, 49, 78
1, 119670, Note_off_c, 0, 49, 63
1, 119685, Control_c, 0, 64, 91
1, 119700, Control_c, 0, 64, 69
1, 119712, Note_on_c, 0, 65, 83
1, 119712, Note_on_c, 0, 80, 83
1, 119715, Control_c, 0, 64, 61
1, 119716, Note_on_c, 0, 71, 68
1, 119726, Note_on_c, 0, 68, 69
1, 119729, Control_c, 0, 64, 62
1, 119744, Control_c, 0, 64, 65
1, 119759, Control_c, 0, 64, 67
1, 119774, Control_c, 0, 64, 71
1, 119789, Control_c, 0, 64, 85
1, 119804, Control_c, 0, 64, 127
1, 119935, Note_off_c, 0, 65, 53
1, 119956, Note_on_c, 0, 61, 65
1, 119976, Note_on_c, 0, 77, 77
1, 119984, Note_off_c, 0, 61, 65
1, 120013, Note_off_c, 0, 80, 61
1, 120059, Note_off_c, 0, 71, 52
1, 120071, Note_off_c, 0, 68, 54
1, 120084, Note_on_c, 0, 47, 74
1, 120115, Control_c, 0, 64, 92
1, 120126, Note_off_c, 0, 77, 54
1, 120130, Control_c, 0, 64, 68
1, 120141, Note_on_c, 0, 54, 77
1, 120145, Control_c, 0, 64, 41
1, 120147, Note_off_c, 0, 47, 64
1, 120160, Control_c, 0, 64, 35
1, 120174, Control_c, 0, 64, 52
1, 120189, Control_c, 0, 64, 60
1, 120197, Note_on_c, 0, 62, 93
1, 120204, Control_c, 0, 64, 67
1, 120219, Control_c, 0, 64, 83
1, 120233, Control_c, 0, 64, 127
1, 120245, Note_off_c, 0, 54, 63
1, 120370, Note_off_c, 0, 62, 61
1, 120507, Note_on_c, 0, 66, 98
1, 120597, Note_off_c, 0, 66, 59
1, 120680, Note_on_c, 0, 58, 65
1, 120716, Note_on_c, 0, 78, 81
1, 120719, Note_on_c, 0, 74, 61
1, 120728, Note_on_c, 0, 66, 69
1, 120746, Control_c, 0, 64, 93
1, 120761, Control_c, 0, 64, 76
1, 120776, Control_c, 0, 64, 66
1, 120791, Control_c, 0, 64, 62
1, 120805, Control_c, 0, 64, 65
1, 120820, Control_c, 0, 64, 70
1, 120835, Control_c, 0, 64, 79
1, 120849, Control_c, 0, 64, 127
1, 120889, Note_off_c, 0, 66, 61
1, 120892, Note_on_c, 0, 59, 85
1, 120925, Note_off_c, 0, 74, 59
1, 120974, Note_off_c, 0, 78, 62
1, 121013, Note_off_c, 0, 58, 35
1, 121029, Note_on_c, 0, 61, 91
1, 121059, Note_off_c, 0, 59, 63
1, 121144, Note_on_c, 0, 62, 91
1, 121170, Note_off_c, 0, 61, 62
1, 121251, Note_on_c, 0, 66, 98
1, 121256, Note_off_c, 0, 62, 64
1, 121294, Note_off_c, 0, 66, 66
1, 121394, Note_on_c, 0, 69, 97
1, 121408, Note_on_c, 0, 86, 89
1, 121416, Note_on_c, 0, 74, 77
1, 121417, Note_on_c, 0, 83, 66
1, 121422, Control_c, 0, 64, 91
1, 121436, Control_c, 0, 64, 69
1, 121451, Control_c, 0, 64, 54
1, 121466, Control_c, 0, 64, 39
1, 121480, Control_c, 0, 64, 46
1, 121495, Control_c, 0, 64, 53
1, 121509, Note_off_c, 0, 83, 65
1, 121510, Control_c, 0, 64, 61
1, 121515, Note_off_c, 0, 86, 63
1, 121525, Control_c, 0, 64, 69
1, 121540, Control_c, 0, 64, 85
1, 121554, Control_c, 0, 64, 127
1, 121576, Note_off_c, 0, 74, 62
1, 121628, Note_on_c, 0, 68, 98
1, 121638, Note_off_c, 0, 69, 58
1, 121665, Note_off_c, 0, 68, 66
1, 121750, Note_on_c, 0, 78, 90
1, 121759, Note_on_c, 0, 71, 74
1, 121762, Control_c, 0, 64, 92
1, 121762, Note_on_c, 0, 74, 74
1, 121777, Control_c, 0, 64, 77
1, 121792, Control_c, 0, 64, 70
1, 121807, Control_c, 0, 64, 71
1, 121821, Control_c, 0, 64, 75
1, 121836, Control_c, 0, 64, 82
1, 121858, Control_c, 0, 64, 94
1, 121870, Note_on_c, 0, 80, 91
1, 121873, Control_c, 0, 64, 127
1, 121876, Note_on_c, 0, 69, 79
1, 121906, Note_off_c, 0, 69, 60
1, 121910, Note_off_c, 0, 74, 57
1, 121953, Note_off_c, 0, 71, 0
1, 121960, Note_on_c, 0, 81, 100
1, 121968, Note_off_c, 0, 80, 67
1, 121969, Note_off_c, 0, 78, 63
1, 121985, Note_on_c, 0, 52, 78
1, 121997, Poly_aftertouch_c, 0, 71, 0
1, 122010, Note_on_c, 0, 74, 4
1, 122021, Note_off_c, 0, 52, 64
1, 122028, Note_on_c, 0, 59, 78
1, 122028, Note_off_c, 0, 81, 63
1, 122043, Note_off_c, 0, 74, 40
1, 122051, Control_c, 0, 64, 82
1, 122066, Control_c, 0, 64, 65
1, 122080, Control_c, 0, 64, 60
1, 122082, Note_off_c, 0, 59, 63
1, 122083, Note_on_c, 0, 83, 96
1, 122089, Note_on_c, 0, 68, 79
1, 122091, Note_on_c, 0, 74, 67
1, 122095, Control_c, 0, 64, 65
1, 122098, Note_on_c, 0, 71, 78
1, 122110, Control_c, 0, 64, 73
1, 122125, Control_c, 0, 64, 92
1, 122140, Control_c, 0, 64, 127
1, 122175, Note_off_c, 0, 68, 60
1, 122290, Note_on_c, 0, 64, 69
1, 122311, Note_on_c, 0, 80, 86
1, 122315, Note_off_c, 0, 64, 67
1, 122342, Note_off_c, 0, 83, 63
1, 122374, Note_off_c, 0, 71, 57
1, 122416, Note_on_c, 0, 47, 79
1, 122425, Note_off_c, 0, 74, 59
1, 122437, Control_c, 0, 64, 89
1, 122442, Note_off_c, 0, 80, 61
1, 122451, Control_c, 0, 64, 65
1, 122462, Note_on_c, 0, 54, 78
1, 122466, Control_c, 0, 64, 37
1, 122468, Note_off_c, 0, 47, 61
1, 122481, Control_c, 0, 64, 49
1, 122496, Control_c, 0, 64, 59
1, 122511, Control_c, 0, 64, 65
1, 122514, Note_on_c, 0, 62, 93
1, 122526, Control_c, 0, 64, 75
1, 122540, Control_c, 0, 64, 127
1, 122555, Note_off_c, 0, 54, 63
1, 122638, Note_off_c, 0, 62, 61
1, 122781, Note_on_c, 0, 66, 98
1, 122827, Note_on_c, 0, 65, 35
1, 122828, Note_off_c, 0, 66, 65
1, 122860, Note_off_c, 0, 65, 51
1, 122949, Note_on_c, 0, 58, 68
1, 122961, Note_on_c, 0, 78, 95
1, 122963, Note_on_c, 0, 66, 84
1, 122964, Note_on_c, 0, 74, 73
1, 123032, Note_off_c, 0, 66, 63
1, 123068, Note_off_c, 0, 74, 61
1, 123092, Note_off_c, 0, 78, 64
1, 123125, Note_on_c, 0, 59, 86
1, 123181, Note_off_c, 0, 58, 23
1, 123285, Note_on_c, 0, 61, 90
1, 123304, Note_on_c, 0, 86, 100
1, 123307, Note_on_c, 0, 82, 36
1, 123308, Note_on_c, 0, 74, 95
1, 123315, Note_on_c, 0, 83, 83
1, 123317, Note_off_c, 0, 59, 63
1, 123356, Note_off_c, 0, 82, 44
1, 123418, Note_on_c, 0, 62, 90
1, 123432, Note_off_c, 0, 86, 58
1, 123438, Note_off_c, 0, 61, 59
1, 123438, Note_off_c, 0, 83, 62
1, 123476, Note_off_c, 0, 74, 60
1, 123527, Note_on_c, 0, 66, 98
1, 123545, Note_off_c, 0, 62, 59
1, 123572, Note_off_c, 0, 66, 64
1, 123683, Note_on_c, 0, 71, 109
1, 123683, Note_on_c, 0, 78, 95
1, 123688, Note_on_c, 0, 74, 86
1, 123696, Control_c, 0, 64, 79
1, 123711, Control_c, 0, 64, 59
1, 123725, Control_c, 0, 64, 43
1, 123740, Control_c, 0, 64, 58
1, 123755, Control_c, 0, 64, 67
1, 123770, Control_c, 0, 64, 85
1, 123785, Control_c, 0, 64, 127
1, 123796, Note_off_c, 0, 74, 60
1, 123819, Note_off_c, 0, 78, 64
1, 123822, Note_off_c, 0, 71, 57
1, 123849, Note_on_c, 0, 80, 102
1, 123905, Note_on_c, 0, 69, 92
1, 123940, Note_off_c, 0, 80, 65
1, 123944, Note_off_c, 0, 69, 67
1, 123995, Note_on_c, 0, 81, 101
1, 124043, Note_on_c, 0, 52, 79
1, 124091, Note_off_c, 0, 52, 66
1, 124100, Note_on_c, 0, 59, 79
1, 124119, Note_off_c, 0, 81, 63
1, 124149, Control_c, 0, 64, 109
1, 124163, Control_c, 0, 64, 73
1, 124165, Note_on_c, 0, 83, 99
1, 124166, Note_on_c, 0, 74, 88
1, 124167, Note_on_c, 0, 68, 90
1, 124171, Note_on_c, 0, 71, 91
1, 124178, Control_c, 0, 64, 59
1, 124184, Note_off_c, 0, 59, 57
1, 124193, Control_c, 0, 64, 56
1, 124208, Control_c, 0, 64, 64
1, 124223, Control_c, 0, 64, 73
1, 124237, Control_c, 0, 64, 111
1, 124252, Control_c, 0, 64, 127
1, 124294, Note_off_c, 0, 68, 60
1, 124338, Note_off_c, 0, 83, 54
1, 124472, Note_on_c, 0, 80, 97
1, 124475, Note_on_c, 0, 64, 78
1, 124555, Note_off_c, 0, 64, 62
1, 124608, Note_off_c, 0, 71, 58
1, 124662, Note_off_c, 0, 80, 62
1, 124663, Note_off_c, 0, 74, 60
1, 124948, Note_on_c, 0, 45, 56
1, 124949, Note_on_c, 0, 52, 54
1, 124991, Note_on_c, 0, 61, 96
1, 125047, Control_c, 0, 64, 106
1, 125061, Control_c, 0, 64, 92
1, 125076, Control_c, 0, 64, 84
1, 125091, Control_c, 0, 64, 79
1, 125105, Control_c, 0, 64, 76
1, 125120, Control_c, 0, 64, 73
1, 125135, Control_c, 0, 64, 69
1, 125150, Control_c, 0, 64, 66
1, 125165, Control_c, 0, 64, 64
1, 125179, Control_c, 0, 64, 62
1, 125194, Control_c, 0, 64, 58
1, 125209, Control_c, 0, 64, 51
1, 125223, Control_c, 0, 64, 36
1, 125238, Control_c, 0, 64, 0
1, 125313, Control_c, 0, 64, 26
1, 125328, Control_c, 0, 64, 43
1, 125343, Control_c, 0, 64, 58
1, 125357, Control_c, 0, 64, 65
1, 125372, Control_c, 0, 64, 71
1, 125387, Control_c, 0, 64, 83
1, 125402, Control_c, 0, 64, 112
1, 125417, Control_c, 0, 64, 127
1, 125480, Note_on_c, 0, 73, 86
1, 125631, Note_off_c, 0, 73, 62
1, 125714, Note_on_c, 0, 63, 92
1, 125930, Note_on_c, 0, 64, 94
1, 125969, Note_off_c, 0, 63, 56
1, 126211, Control_c, 0, 64, 115
1, 126225, Control_c, 0, 64, 100
1, 126240, Control_c, 0, 64, 93
1, 126246, Note_on_c, 0, 69, 76
1, 126255, Control_c, 0, 64, 88
1, 126270, Control_c, 0, 64, 84
1, 126285, Control_c, 0, 64, 81
1, 126299, Control_c, 0, 64, 78
1, 126314, Control_c, 0, 64, 76
1, 126329, Control_c, 0, 64, 74
1, 126351, Control_c, 0, 64, 72
1, 126366, Control_c, 0, 64, 70
1, 126381, Control_c, 0, 64, 69
1, 126396, Control_c, 0, 64, 67
1, 126406, Note_off_c, 0, 64, 53
1, 126411, Control_c, 0, 64, 64
1, 126425, Control_c, 0, 64, 61
1, 126440, Control_c, 0, 64, 58
1, 126455, Control_c, 0, 64, 55
1, 126469, Control_c, 0, 64, 51
1, 126484, Control_c, 0, 64, 45
1, 126499, Control_c, 0, 64, 39
1, 126514, Control_c, 0, 64, 38
1, 126543, Control_c, 0, 64, 41
1, 126558, Control_c, 0, 64, 46
1, 126573, Control_c, 0, 64, 51
1, 126588, Control_c, 0, 64, 56
1, 126603, Control_c, 0, 64, 59
1, 126617, Control_c, 0, 64, 62
1, 126632, Control_c, 0, 64, 65
1, 126647, Control_c, 0, 64, 69
1, 126662, Control_c, 0, 64, 77
1, 126676, Control_c, 0, 64, 91
1, 126691, Control_c, 0, 64, 109
1, 126706, Control_c, 0, 64, 127
1, 126735, Note_on_c, 0, 68, 88
1, 126782, Note_off_c, 0, 69, 58
1, 126863, Note_off_c, 0, 68, 60
1, 126912, Note_on_c, 0, 51, 56
1, 126970, Note_on_c, 0, 68, 78
1, 127096, Note_off_c, 0, 52, 59
1, 127152, Note_on_c, 0, 67, 86
1, 127197, Note_off_c, 0, 68, 60
1, 127247, Control_c, 0, 64, 117
1, 127262, Control_c, 0, 64, 113
1, 127277, Control_c, 0, 64, 109
1, 127291, Note_on_c, 0, 66, 85
1, 127292, Control_c, 0, 64, 104
1, 127306, Control_c, 0, 64, 99
1, 127321, Control_c, 0, 64, 94
1, 127328, Note_off_c, 0, 67, 61
1, 127336, Control_c, 0, 64, 90
1, 127351, Control_c, 0, 64, 88
1, 127366, Control_c, 0, 64, 85
1, 127380, Control_c, 0, 64, 82
1, 127395, Control_c, 0, 64, 80
1, 127410, Control_c, 0, 64, 78
1, 127425, Control_c, 0, 64, 75
1, 127439, Control_c, 0, 64, 73
1, 127454, Control_c, 0, 64, 71
1, 127469, Control_c, 0, 64, 69
1, 127470, Note_on_c, 0, 67, 68
1, 127484, Control_c, 0, 64, 68
1, 127498, Control_c, 0, 64, 67
1, 127513, Control_c, 0, 64, 65
1, 127528, Control_c, 0, 64, 64
1, 127543, Control_c, 0, 64, 62
1, 127558, Control_c, 0, 64, 61
1, 127572, Control_c, 0, 64, 59
1, 127587, Control_c, 0, 64, 56
1, 127590, Note_off_c, 0, 66, 56
1, 127602, Control_c, 0, 64, 52
1, 127617, Control_c, 0, 64, 44
1, 127632, Control_c, 0, 64, 31
1, 127647, Control_c, 0, 64, 22
1, 127662, Control_c, 0, 64, 18
1, 127677, Control_c, 0, 64, 16
1, 127721, Control_c, 0, 64, 19
1, 127736, Control_c, 0, 64, 28
1, 127751, Control_c, 0, 64, 37
1, 127765, Control_c, 0, 64, 44
1, 127780, Control_c, 0, 64, 51
1, 127796, Control_c, 0, 64, 56
1, 127811, Control_c, 0, 64, 60
1, 127826, Control_c, 0, 64, 63
1, 127848, Control_c, 0, 64, 65
1, 127863, Control_c, 0, 64, 69
1, 127877, Control_c, 0, 64, 74
1, 127892, Control_c, 0, 64, 85
1, 127907, Control_c, 0, 64, 100
1, 127921, Control_c, 0, 64, 127
1, 127924, Note_off_c, 0, 45, 37
1, 128002, Note_off_c, 0, 51, 35
1, 128042, Note_off_c, 0, 61, 49
1, 128049, Note_on_c, 0, 63, 70
1, 128254, Note_on_c, 0, 51, 41
1, 128255, Note_on_c, 0, 44, 38
1, 128308, Note_on_c, 0, 60, 69
1, 128381, Control_c, 0, 64, 100
1, 128395, Control_c, 0, 64, 89
1, 128410, Control_c, 0, 64, 81
1, 128425, Control_c, 0, 64, 75
1, 128432, Note_off_c, 0, 67, 25
1, 128436, Note_off_c, 0, 63, 56
1, 128440, Control_c, 0, 64, 71
1, 128455, Control_c, 0, 64, 69
1, 128469, Control_c, 0, 64, 67
1, 128484, Control_c, 0, 64, 65
1, 128499, Control_c, 0, 64, 62
1, 128514, Control_c, 0, 64, 59
1, 128529, Control_c, 0, 64, 57
1, 128544, Control_c, 0, 64, 55
1, 128559, Control_c, 0, 64, 53
1, 128574, Control_c, 0, 64, 52
1, 128612, Control_c, 0, 64, 52
1, 128626, Control_c, 0, 64, 54
1, 128641, Control_c, 0, 64, 57
1, 128656, Control_c, 0, 64, 59
1, 128671, Control_c, 0, 64, 61
1, 128686, Control_c, 0, 64, 63
1, 128700, Control_c, 0, 64, 66
1, 128708, Note_on_c, 0, 72, 63
1, 128715, Control_c, 0, 64, 72
1, 128730, Control_c, 0, 64, 80
1, 128744, Control_c, 0, 64, 90
1, 128759, Control_c, 0, 64, 109
1, 128774, Control_c, 0, 64, 127
1, 128824, Note_off_c, 0, 72, 59
1, 128947, Note_on_c, 0, 62, 76
1, 129157, Note_on_c, 0, 63, 89
1, 129251, Note_off_c, 0, 62, 52
1, 129344, Control_c, 0, 64, 117
1, 129359, Control_c, 0, 64, 109
1, 129374, Control_c, 0, 64, 101
1, 129390, Control_c, 0, 64, 96
1, 129405, Control_c, 0, 64, 93
1, 129420, Control_c, 0, 64, 91
1, 129435, Control_c, 0, 64, 89
1, 129449, Control_c, 0, 64, 86
1, 129464, Note_on_c, 0, 68, 63
1, 129464, Control_c, 0, 64, 82
1, 129479, Control_c, 0, 64, 79
1, 129494, Control_c, 0, 64, 77
1, 129509, Control_c, 0, 64, 75
1, 129523, Control_c, 0, 64, 74
1, 129538, Control_c, 0, 64, 72
1, 129553, Control_c, 0, 64, 70
1, 129567, Control_c, 0, 64, 68
1, 129582, Control_c, 0, 64, 67
1, 129597, Control_c, 0, 64, 65
1, 129612, Control_c, 0, 64, 63
1, 129627, Control_c, 0, 64, 62
1, 129634, Note_off_c, 0, 63, 58
1, 129641, Control_c, 0, 64, 59
1, 129656, Control_c, 0, 64, 55
1, 129671, Control_c, 0, 64, 51
1, 129686, Control_c, 0, 64, 49
1, 129730, Control_c, 0, 64, 51
1, 129745, Control_c, 0, 64, 54
1, 129760, Control_c, 0, 64, 57
1, 129775, Control_c, 0, 64, 59
1, 129790, Control_c, 0, 64, 62
1, 129805, Control_c, 0, 64, 64
1, 129820, Control_c, 0, 64, 67
1, 129835, Control_c, 0, 64, 73
1, 129849, Control_c, 0, 64, 82
1, 129864, Control_c, 0, 64, 93
1, 129879, Control_c, 0, 64, 113
1, 129893, Control_c, 0, 64, 127
1, 129996, Note_on_c, 0, 67, 66
1, 130042, Note_off_c, 0, 68, 57
1, 130076, Note_off_c, 0, 67, 61
1, 130147, Note_on_c, 0, 50, 43
1, 130222, Note_on_c, 0, 67, 60
1, 130346, Control_c, 0, 64, 125
1, 130361, Control_c, 0, 64, 116
1, 130371, Note_off_c, 0, 51, 32
1, 130376, Control_c, 0, 64, 114
1, 130377, Note_on_c, 0, 66, 73
1, 130390, Control_c, 0, 64, 110
1, 130405, Control_c, 0, 64, 107
1, 130420, Control_c, 0, 64, 104
1, 130435, Control_c, 0, 64, 102
1, 130450, Control_c, 0, 64, 101
1, 130464, Control_c, 0, 64, 99
1, 130479, Control_c, 0, 64, 97
1, 130494, Control_c, 0, 64, 94
1, 130509, Control_c, 0, 64, 91
1, 130511, Note_on_c, 0, 65, 72
1, 130523, Control_c, 0, 64, 89
1, 130538, Note_off_c, 0, 67, 23
1, 130538, Control_c, 0, 64, 87
1, 130553, Control_c, 0, 64, 86
1, 130558, Note_off_c, 0, 66, 57
1, 130568, Control_c, 0, 64, 85
1, 130583, Control_c, 0, 64, 83
1, 130598, Control_c, 0, 64, 81
1, 130613, Control_c, 0, 64, 79
1, 130628, Control_c, 0, 64, 77
1, 130643, Control_c, 0, 64, 76
1, 130657, Control_c, 0, 64, 75
1, 130672, Control_c, 0, 64, 73
1, 130687, Control_c, 0, 64, 71
1, 130702, Control_c, 0, 64, 69
1, 130716, Control_c, 0, 64, 68
1, 130728, Note_on_c, 0, 66, 52
1, 130731, Control_c, 0, 64, 67
1, 130746, Control_c, 0, 64, 66
1, 130761, Control_c, 0, 64, 65
1, 130776, Control_c, 0, 64, 64
1, 130790, Control_c, 0, 64, 63
1, 130805, Control_c, 0, 64, 62
1, 130818, Note_off_c, 0, 65, 56
1, 130820, Control_c, 0, 64, 61
1, 130842, Control_c, 0, 64, 58
1, 130857, Control_c, 0, 64, 53
1, 130872, Control_c, 0, 64, 42
1, 130887, Control_c, 0, 64, 34
1, 130916, Control_c, 0, 64, 35
1, 130931, Control_c, 0, 64, 40
1, 130946, Control_c, 0, 64, 47
1, 130961, Control_c, 0, 64, 55
1, 130976, Control_c, 0, 64, 59
1, 130991, Control_c, 0, 64, 63
1, 131006, Control_c, 0, 64, 66
1, 131021, Control_c, 0, 64, 69
1, 131036, Control_c, 0, 64, 75
1, 131046, Note_off_c, 0, 44, 32
1, 131051, Control_c, 0, 64, 86
1, 131066, Control_c, 0, 64, 97
1, 131081, Control_c, 0, 64, 114
1, 131086, Note_off_c, 0, 60, 27
1, 131095, Control_c, 0, 64, 127
1, 131131, Note_off_c, 0, 50, 32
1, 131457, Note_on_c, 0, 62, 49
1, 131515, Note_off_c, 0, 66, 38
1, 131716, Note_on_c, 0, 43, 22
1, 131720, Note_on_c, 0, 50, 27
1, 131725, Control_c, 0, 64, 115
1, 131739, Control_c, 0, 64, 108
1, 131754, Control_c, 0, 64, 102
1, 131769, Control_c, 0, 64, 94
1, 131777, Note_off_c, 0, 62, 36
1, 131779, Note_on_c, 0, 71, 48
1, 131784, Control_c, 0, 64, 87
1, 131796, Note_on_c, 0, 59, 42
1, 131799, Control_c, 0, 64, 80
1, 131814, Control_c, 0, 64, 76
1, 131829, Control_c, 0, 64, 73
1, 131844, Control_c, 0, 64, 69
1, 131859, Control_c, 0, 64, 65
1, 131874, Control_c, 0, 64, 59
1, 131889, Control_c, 0, 64, 51
1, 131903, Control_c, 0, 64, 49
1, 131933, Control_c, 0, 64, 50
1, 131948, Control_c, 0, 64, 52
1, 131962, Control_c, 0, 64, 54
1, 131977, Control_c, 0, 64, 57
1, 131992, Control_c, 0, 64, 59
1, 132007, Control_c, 0, 64, 61
1, 132022, Control_c, 0, 64, 63
1, 132036, Control_c, 0, 64, 65
1, 132051, Control_c, 0, 64, 68
1, 132066, Control_c, 0, 64, 73
1, 132081, Control_c, 0, 64, 78
1, 132096, Control_c, 0, 64, 84
1, 132110, Control_c, 0, 64, 89
1, 132125, Control_c, 0, 64, 95
1, 132140, Control_c, 0, 64, 104
1, 132154, Control_c, 0, 64, 127
1, 132353, Note_off_c, 0, 71, 20
1, 132437, Note_on_c, 0, 61, 33
1, 132671, Note_on_c, 0, 62, 47
1, 132831, Control_c, 0, 64, 112
1, 132841, Note_on_c, 0, 49, 35
1, 132845, Control_c, 0, 64, 102
1, 132860, Control_c, 0, 64, 92
1, 132875, Control_c, 0, 64, 82
1, 132877, Note_off_c, 0, 62, 53
1, 132890, Control_c, 0, 64, 73
1, 132905, Control_c, 0, 64, 64
1, 132909, Note_on_c, 0, 66, 34
1, 132914, Note_off_c, 0, 50, 42
1, 132919, Control_c, 0, 64, 57
1, 132934, Control_c, 0, 64, 55
1, 132944, Note_off_c, 0, 61, 34
1, 132949, Control_c, 0, 64, 56
1, 132964, Control_c, 0, 64, 59
1, 132979, Control_c, 0, 64, 61
1, 132993, Control_c, 0, 64, 63
1, 132996, Note_off_c, 0, 43, 33
1, 133008, Control_c, 0, 64, 66
1, 133023, Control_c, 0, 64, 71
1, 133038, Control_c, 0, 64, 78
1, 133052, Control_c, 0, 64, 91
1, 133067, Control_c, 0, 64, 116
1, 133090, Control_c, 0, 64, 127
1, 133114, Note_on_c, 0, 65, 49
1, 133136, Note_off_c, 0, 66, 37
1, 133244, Note_off_c, 0, 65, 56
1, 133274, Note_on_c, 0, 64, 45
1, 133386, Control_c, 0, 64, 115
1, 133401, Control_c, 0, 64, 108
1, 133415, Control_c, 0, 64, 105
1, 133430, Control_c, 0, 64, 104
1, 133433, Note_on_c, 0, 37, 28
1, 133445, Control_c, 0, 64, 101
1, 133460, Control_c, 0, 64, 95
1, 133475, Control_c, 0, 64, 88
1, 133489, Note_on_c, 0, 65, 35
1, 133489, Control_c, 0, 64, 81
1, 133504, Control_c, 0, 64, 75
1, 133519, Control_c, 0, 64, 71
1, 133534, Control_c, 0, 64, 66
1, 133549, Control_c, 0, 64, 61
1, 133551, Note_off_c, 0, 64, 31
1, 133564, Control_c, 0, 64, 54
1, 133579, Control_c, 0, 64, 49
1, 133594, Control_c, 0, 64, 48
1, 133623, Control_c, 0, 64, 49
1, 133638, Control_c, 0, 64, 52
1, 133653, Control_c, 0, 64, 56
1, 133668, Control_c, 0, 64, 59
1, 133682, Control_c, 0, 64, 62
1, 133697, Control_c, 0, 64, 64
1, 133712, Control_c, 0, 64, 68
1, 133727, Control_c, 0, 64, 74
1, 133729, Note_off_c, 0, 59, 33
1, 133741, Control_c, 0, 64, 86
1, 133756, Control_c, 0, 64, 105
1, 133771, Control_c, 0, 64, 127
1, 133788, Note_off_c, 0, 37, 35
1, 133963, Note_off_c, 0, 49, 32
1, 133967, Note_off_c, 0, 65, 31
1, 134293, Note_on_c, 0, 61, 36
1, 134601, Control_c, 0, 67, 9
1, 134616, Control_c, 0, 67, 21
1, 134631, Control_c, 0, 67, 33
1, 134646, Control_c, 0, 67, 44
1, 134661, Control_c, 0, 67, 54
1, 134672, Note_on_c, 0, 49, 25
1, 134676, Control_c, 0, 67, 67
1, 134678, Note_on_c, 0, 42, 31
1, 134691, Control_c, 0, 67, 78
1, 134706, Control_c, 0, 67, 89
1, 134720, Control_c, 0, 67, 98
1, 134735, Control_c, 0, 67, 107
1, 134750, Control_c, 0, 67, 117
1, 134759, Note_on_c, 0, 58, 53
1, 134764, Control_c, 0, 67, 127
1, 134809, Control_c, 0, 64, 104
1, 134824, Control_c, 0, 64, 91
1, 134838, Control_c, 0, 64, 83
1, 134853, Control_c, 0, 64, 77
1, 134868, Control_c, 0, 64, 72
1, 134882, Control_c, 0, 64, 69
1, 134884, Note_off_c, 0, 61, 34
1, 134897, Control_c, 0, 64, 66
1, 134912, Control_c, 0, 64, 64
1, 134927, Control_c, 0, 64, 61
1, 134942, Control_c, 0, 64, 58
1, 134956, Control_c, 0, 64, 55
1, 134971, Control_c, 0, 64, 52
1, 135002, Control_c, 0, 64, 52
1, 135017, Control_c, 0, 64, 53
1, 135032, Control_c, 0, 64, 55
1, 135047, Control_c, 0, 64, 58
1, 135061, Control_c, 0, 64, 61
1, 135076, Control_c, 0, 64, 64
1, 135091, Control_c, 0, 64, 66
1, 135106, Control_c, 0, 64, 70
1, 135121, Control_c, 0, 64, 76
1, 135135, Control_c, 0, 64, 83
1, 135150, Control_c, 0, 64, 93
1, 135165, Control_c, 0, 64, 104
1, 135179, Control_c, 0, 64, 127
1, 135469, Note_on_c, 0, 70, 38
1, 135570, Note_off_c, 0, 70, 53
1, 135767, Note_on_c, 0, 60, 44
1, 136011, Note_on_c, 0, 61, 50
1, 136150, Note_off_c, 0, 60, 30
1, 136203, Control_c, 0, 64, 122
1, 136217, Control_c, 0, 64, 112
1, 136232, Control_c, 0, 64, 106
1, 136247, Control_c, 0, 64, 101
1, 136263, Control_c, 0, 64, 98
1, 136278, Control_c, 0, 64, 96
1, 136292, Control_c, 0, 64, 95
1, 136307, Control_c, 0, 64, 92
1, 136322, Control_c, 0, 64, 90
1, 136336, Control_c, 0, 64, 87
1, 136351, Control_c, 0, 64, 84
1, 136366, Control_c, 0, 64, 82
1, 136381, Control_c, 0, 64, 80
1, 136396, Control_c, 0, 64, 77
1, 136411, Control_c, 0, 64, 75
1, 136416, Note_on_c, 0, 66, 36
1, 136426, Control_c, 0, 64, 74
1, 136440, Control_c, 0, 64, 73
1, 136455, Control_c, 0, 64, 72
1, 136470, Control_c, 0, 64, 71
1, 136485, Control_c, 0, 64, 69
1, 136500, Control_c, 0, 64, 68
1, 136515, Control_c, 0, 64, 67
1, 136529, Control_c, 0, 64, 66
1, 136536, Note_off_c, 0, 61, 35
1, 136544, Control_c, 0, 64, 65
1, 136559, Control_c, 0, 64, 63
1, 136574, Control_c, 0, 64, 60
1, 136589, Control_c, 0, 64, 57
1, 136604, Control_c, 0, 64, 56
1, 136619, Control_c, 0, 64, 57
1, 136634, Control_c, 0, 64, 57
1, 136649, Control_c, 0, 64, 59
1, 136664, Control_c, 0, 64, 60
1, 136679, Control_c, 0, 64, 62
1, 136694, Control_c, 0, 64, 64
1, 136708, Control_c, 0, 64, 67
1, 136723, Control_c, 0, 64, 73
1, 136738, Control_c, 0, 64, 79
1, 136752, Control_c, 0, 64, 88
1, 136756, Note_off_c, 0, 58, 22
1, 136767, Control_c, 0, 64, 98
1, 136782, Control_c, 0, 64, 109
1, 136797, Control_c, 0, 64, 127
1, 136979, Note_off_c, 0, 42, 33
1, 137022, Note_off_c, 0, 49, 27
1, 137122, Note_on_c, 0, 50, 26
1, 137149, Note_on_c, 0, 65, 41
1, 137311, Note_off_c, 0, 65, 36
1, 137319, Note_off_c, 0, 66, 23
1, 137418, Note_on_c, 0, 42, 35
1, 137425, Note_on_c, 0, 51, 31
1, 137462, Note_on_c, 0, 63, 39
1, 137469, Note_on_c, 0, 59, 43
1, 137486, Control_c, 0, 64, 115
1, 137501, Control_c, 0, 64, 109
1, 137513, Note_off_c, 0, 50, 40
1, 137516, Control_c, 0, 64, 102
1, 137530, Control_c, 0, 64, 97
1, 137545, Control_c, 0, 64, 94
1, 137560, Control_c, 0, 64, 92
1, 137582, Control_c, 0, 64, 91
1, 137597, Control_c, 0, 64, 89
1, 137612, Control_c, 0, 64, 87
1, 137627, Control_c, 0, 64, 85
1, 137642, Control_c, 0, 64, 83
1, 137656, Control_c, 0, 64, 81
1, 137671, Control_c, 0, 64, 80
1, 137686, Control_c, 0, 64, 79
1, 137701, Control_c, 0, 64, 78
1, 137716, Control_c, 0, 64, 77
1, 137730, Control_c, 0, 64, 76
1, 137745, Control_c, 0, 64, 75
1, 137758, Note_on_c, 0, 65, 44
1, 137760, Control_c, 0, 64, 74
1, 137774, Control_c, 0, 64, 73
1, 137789, Control_c, 0, 64, 72
1, 137804, Control_c, 0, 64, 71
1, 137819, Control_c, 0, 64, 71
1, 137834, Control_c, 0, 64, 70
1, 137848, Control_c, 0, 64, 70
1, 137863, Control_c, 0, 64, 69
1, 137878, Control_c, 0, 64, 69
1, 137893, Control_c, 0, 64, 68
1, 137895, Note_off_c, 0, 63, 17
1, 137923, Control_c, 0, 64, 68
1, 137935, Note_on_c, 0, 66, 49
1, 137937, Control_c, 0, 64, 67
1, 137952, Control_c, 0, 64, 67
1, 137967, Control_c, 0, 64, 66
1, 137982, Control_c, 0, 64, 65
1, 137996, Note_off_c, 0, 65, 29
1, 138056, Control_c, 0, 64, 66
1, 138086, Control_c, 0, 64, 66
1, 138101, Control_c, 0, 64, 67
1, 138116, Control_c, 0, 64, 67
1, 138128, Note_on_c, 0, 68, 44
1, 138130, Control_c, 0, 64, 68
1, 138145, Control_c, 0, 64, 69
1, 138160, Control_c, 0, 64, 70
1, 138175, Control_c, 0, 64, 72
1, 138190, Control_c, 0, 64, 74
1, 138205, Control_c, 0, 64, 76
1, 138220, Control_c, 0, 64, 78
1, 138222, Note_off_c, 0, 66, 26
1, 138235, Control_c, 0, 64, 80
1, 138250, Control_c, 0, 64, 82
1, 138250, Note_off_c, 0, 59, 24
1, 138265, Control_c, 0, 64, 86
1, 138279, Control_c, 0, 64, 89
1, 138294, Control_c, 0, 64, 93
1, 138309, Control_c, 0, 64, 98
1, 138331, Control_c, 0, 64, 104
1, 138346, Control_c, 0, 64, 113
1, 138360, Control_c, 0, 64, 127
1, 138456, Note_on_c, 0, 66, 54
1, 138655, Note_on_c, 0, 60, 54
1, 138656, Note_off_c, 0, 66, 59
1, 138670, Note_on_c, 0, 65, 48
1, 138684, Note_off_c, 0, 68, 35
1, 138855, Note_on_c, 0, 66, 54
1, 138882, Note_off_c, 0, 65, 35
1, 138992, Note_on_c, 0, 68, 59
1, 138998, Control_c, 0, 64, 125
1, 139013, Control_c, 0, 64, 120
1, 139020, Note_off_c, 0, 66, 36
1, 139027, Control_c, 0, 64, 115
1, 139042, Control_c, 0, 64, 110
1, 139057, Control_c, 0, 64, 105
1, 139079, Control_c, 0, 64, 100
1, 139094, Control_c, 0, 64, 95
1, 139108, Control_c, 0, 64, 90
1, 139120, Note_on_c, 0, 50, 48
1, 139123, Control_c, 0, 64, 84
1, 139137, Note_on_c, 0, 70, 62
1, 139138, Control_c, 0, 64, 78
1, 139139, Note_off_c, 0, 68, 57
1, 139153, Control_c, 0, 64, 72
1, 139161, Note_off_c, 0, 51, 39
1, 139168, Control_c, 0, 64, 68
1, 139183, Control_c, 0, 64, 64
1, 139198, Control_c, 0, 64, 62
1, 139213, Control_c, 0, 64, 60
1, 139227, Control_c, 0, 64, 60
1, 139242, Control_c, 0, 64, 60
1, 139256, Control_c, 0, 64, 61
1, 139263, Note_off_c, 0, 42, 41
1, 139270, Note_on_c, 0, 68, 65
1, 139271, Control_c, 0, 64, 62
1, 139286, Control_c, 0, 64, 64
1, 139300, Control_c, 0, 64, 67
1, 139301, Note_off_c, 0, 70, 55
1, 139315, Control_c, 0, 64, 71
1, 139330, Control_c, 0, 64, 81
1, 139341, Note_off_c, 0, 60, 41
1, 139345, Control_c, 0, 64, 94
1, 139359, Control_c, 0, 64, 117
1, 139374, Control_c, 0, 64, 127
1, 139406, Note_on_c, 0, 66, 70
1, 139438, Note_off_c, 0, 68, 56
1, 139469, Note_off_c, 0, 66, 61
1, 139540, Note_on_c, 0, 49, 44
1, 139548, Note_on_c, 0, 42, 39
1, 139561, Note_off_c, 0, 50, 54
1, 139567, Control_c, 0, 64, 109
1, 139582, Control_c, 0, 64, 87
1, 139585, Note_on_c, 0, 61, 65
1, 139585, Note_on_c, 0, 68, 55
1, 139597, Control_c, 0, 64, 71
1, 139612, Control_c, 0, 64, 56
1, 139626, Control_c, 0, 64, 39
1, 139641, Control_c, 0, 64, 39
1, 139656, Control_c, 0, 64, 43
1, 139671, Control_c, 0, 64, 50
1, 139686, Control_c, 0, 64, 55
1, 139693, Note_off_c, 0, 42, 60
1, 139700, Control_c, 0, 64, 62
1, 139715, Control_c, 0, 64, 68
1, 139730, Control_c, 0, 64, 75
1, 139734, Note_off_c, 0, 61, 61
1, 139741, Note_off_c, 0, 49, 60
1, 139745, Control_c, 0, 64, 89
1, 139759, Control_c, 0, 64, 109
1, 139775, Control_c, 0, 64, 127
1, 139794, Note_on_c, 0, 70, 58
1, 139806, Note_off_c, 0, 68, 57
1, 139837, Note_off_c, 0, 70, 65
1, 139951, Note_on_c, 0, 80, 65
1, 140089, Note_on_c, 0, 62, 67
1, 140095, Control_c, 0, 64, 115
1, 140110, Control_c, 0, 64, 104
1, 140111, Note_on_c, 0, 78, 61
1, 140119, Note_on_c, 0, 54, 41
1, 140124, Control_c, 0, 64, 95
1, 140129, Note_on_c, 0, 58, 44
1, 140139, Control_c, 0, 64, 88
1, 140153, Note_off_c, 0, 80, 51
1, 140154, Control_c, 0, 64, 82
1, 140169, Control_c, 0, 64, 74
1, 140183, Control_c, 0, 64, 67
1, 140198, Control_c, 0, 64, 61
1, 140213, Control_c, 0, 64, 55
1, 140228, Control_c, 0, 64, 56
1, 140243, Control_c, 0, 64, 57
1, 140257, Control_c, 0, 64, 59
1, 140265, Note_on_c, 0, 77, 61
1, 140268, Note_off_c, 0, 78, 56
1, 140272, Control_c, 0, 64, 61
1, 140287, Control_c, 0, 64, 64
1, 140302, Control_c, 0, 64, 69
1, 140317, Control_c, 0, 64, 76
1, 140331, Control_c, 0, 64, 87
1, 140346, Control_c, 0, 64, 104
1, 140361, Control_c, 0, 64, 127
1, 140400, Note_off_c, 0, 62, 63
1, 140428, Note_on_c, 0, 78, 64
1, 140453, Note_off_c, 0, 77, 58
1, 140606, Control_c, 0, 64, 120
1, 140621, Control_c, 0, 64, 108
1, 140629, Note_on_c, 0, 63, 56
1, 140636, Control_c, 0, 64, 98
1, 140651, Control_c, 0, 64, 92
1, 140663, Note_off_c, 0, 78, 51
1, 140666, Control_c, 0, 64, 86
1, 140673, Note_on_c, 0, 75, 46
1, 140680, Control_c, 0, 64, 82
1, 140695, Control_c, 0, 64, 78
1, 140710, Control_c, 0, 64, 74
1, 140725, Control_c, 0, 64, 69
1, 140740, Control_c, 0, 64, 62
1, 140754, Control_c, 0, 64, 53
1, 140769, Control_c, 0, 64, 47
1, 140813, Control_c, 0, 64, 48
1, 140828, Control_c, 0, 64, 52
1, 140843, Control_c, 0, 64, 55
1, 140858, Control_c, 0, 64, 60
1, 140873, Control_c, 0, 64, 64
1, 140888, Control_c, 0, 64, 69
1, 140900, Note_off_c, 0, 54, 33
1, 140903, Control_c, 0, 64, 77
1, 140918, Control_c, 0, 64, 92
1, 140931, Note_off_c, 0, 75, 0
1, 140933, Control_c, 0, 64, 115
1, 140947, Control_c, 0, 64, 127
1, 140968, Poly_aftertouch_c, 0, 75, 127
1, 141019, Poly_aftertouch_c, 0, 75, 0
1, 141044, Note_on_c, 0, 73, 43
1, 141078, Note_off_c, 0, 73, 62
1, 141093, Note_off_c, 0, 63, 35
1, 141133, Note_on_c, 0, 75, 31
1, 141140, Control_c, 0, 64, 120
1, 141154, Control_c, 0, 64, 110
1, 141169, Control_c, 0, 64, 105
1, 141184, Control_c, 0, 64, 100
1, 141198, Control_c, 0, 64, 93
1, 141213, Control_c, 0, 64, 88
1, 141228, Control_c, 0, 64, 84
1, 141233, Note_on_c, 0, 64, 44
1, 141237, Note_off_c, 0, 75, 34
1, 141243, Control_c, 0, 64, 83
1, 141250, Note_on_c, 0, 73, 40
1, 141253, Note_on_c, 0, 55, 37
1, 141258, Control_c, 0, 64, 81
1, 141263, Note_on_c, 0, 61, 29
1, 141272, Control_c, 0, 64, 79
1, 141287, Control_c, 0, 64, 75
1, 141302, Control_c, 0, 64, 70
1, 141325, Control_c, 0, 64, 65
1, 141340, Control_c, 0, 64, 62
1, 141354, Control_c, 0, 64, 57
1, 141355, Note_off_c, 0, 58, 36
1, 141370, Control_c, 0, 64, 53
1, 141385, Control_c, 0, 64, 49
1, 141400, Control_c, 0, 64, 48
1, 141415, Control_c, 0, 64, 49
1, 141429, Control_c, 0, 64, 52
1, 141444, Control_c, 0, 64, 56
1, 141459, Control_c, 0, 64, 60
1, 141474, Control_c, 0, 64, 65
1, 141489, Control_c, 0, 64, 70
1, 141503, Control_c, 0, 64, 79
1, 141518, Control_c, 0, 64, 95
1, 141527, Note_off_c, 0, 73, 60
1, 141533, Control_c, 0, 64, 127
1, 141541, Note_on_c, 0, 71, 49
1, 141574, Note_off_c, 0, 64, 37
1, 141623, Note_off_c, 0, 61, 40
1, 141690, Note_off_c, 0, 71, 54
1, 141728, Note_on_c, 0, 70, 55
1, 141955, Note_on_c, 0, 59, 33
1, 141962, Control_c, 0, 64, 117
1, 141969, Note_on_c, 0, 56, 31
1, 141977, Control_c, 0, 64, 108
1, 141992, Control_c, 0, 64, 99
1, 141994, Note_on_c, 0, 71, 47
1, 141998, Note_on_c, 0, 63, 50
1, 142007, Control_c, 0, 64, 91
1, 142021, Control_c, 0, 64, 85
1, 142036, Control_c, 0, 64, 79
1, 142051, Control_c, 0, 64, 75
1, 142053, Note_off_c, 0, 55, 41
1, 142074, Control_c, 0, 64, 71
1, 142089, Control_c, 0, 64, 65
1, 142098, Note_off_c, 0, 70, 32
1, 142103, Control_c, 0, 64, 59
1, 142118, Control_c, 0, 64, 50
1, 142133, Control_c, 0, 64, 48
1, 142147, Control_c, 0, 64, 50
1, 142162, Control_c, 0, 64, 52
1, 142179, Control_c, 0, 64, 55
1, 142194, Control_c, 0, 64, 58
1, 142208, Control_c, 0, 64, 62
1, 142223, Control_c, 0, 64, 66
1, 142238, Control_c, 0, 64, 71
1, 142252, Control_c, 0, 64, 80
1, 142267, Control_c, 0, 64, 90
1, 142272, Note_off_c, 0, 56, 41
1, 142282, Control_c, 0, 64, 104
1, 142297, Control_c, 0, 64, 127
1, 142493, Note_off_c, 0, 63, 29
1, 142677, Note_on_c, 0, 47, 26
1, 142687, Note_on_c, 0, 54, 32
1, 142703, Note_on_c, 0, 62, 39
1, 142741, Control_c, 0, 64, 120
1, 142756, Control_c, 0, 64, 106
1, 142770, Control_c, 0, 64, 95
1, 142785, Control_c, 0, 64, 86
1, 142800, Control_c, 0, 64, 77
1, 142823, Control_c, 0, 64, 71
1, 142837, Note_off_c, 0, 59, 38
1, 142837, Control_c, 0, 64, 68
1, 142852, Control_c, 0, 64, 66
1, 142867, Control_c, 0, 64, 66
1, 142882, Control_c, 0, 64, 64
1, 142897, Control_c, 0, 64, 64
1, 142926, Control_c, 0, 64, 64
1, 142941, Control_c, 0, 64, 65
1, 142956, Control_c, 0, 64, 66
1, 142972, Control_c, 0, 64, 69
1, 142986, Control_c, 0, 64, 73
1, 143001, Control_c, 0, 64, 79
1, 143016, Control_c, 0, 64, 89
1, 143025, Note_on_c, 0, 70, 45
1, 143031, Control_c, 0, 64, 101
1, 143046, Control_c, 0, 64, 127
1, 143092, Note_off_c, 0, 62, 36
1, 143117, Note_off_c, 0, 47, 40
1, 143211, Note_on_c, 0, 68, 55
1, 143253, Note_off_c, 0, 71, 38
1, 143316, Note_off_c, 0, 70, 30
1, 143362, Note_on_c, 0, 46, 38
1, 143368, Note_on_c, 0, 66, 52
1, 143376, Note_off_c, 0, 68, 37
1, 143386, Note_on_c, 0, 61, 50
1, 143413, Note_off_c, 0, 66, 61
1, 143536, Note_on_c, 0, 66, 24
1, 143556, Note_on_c, 0, 65, 60
1, 143556, Note_off_c, 0, 54, 43
1, 143559, Note_off_c, 0, 46, 41
1, 143580, Note_off_c, 0, 66, 50
1, 143725, Note_on_c, 0, 63, 60
1, 143786, Note_off_c, 0, 65, 55
1, 143853, Note_off_c, 0, 61, 22
1, 143884, Control_c, 0, 64, 120
1, 143898, Control_c, 0, 64, 117
1, 143913, Control_c, 0, 64, 114
1, 143928, Control_c, 0, 64, 109
1, 143943, Control_c, 0, 64, 104
1, 143958, Control_c, 0, 64, 100
1, 143972, Control_c, 0, 64, 96
1, 143986, Note_on_c, 0, 51, 32
1, 143987, Control_c, 0, 64, 92
1, 143994, Note_on_c, 0, 54, 31
1, 144000, Note_on_c, 0, 44, 27
1, 144002, Control_c, 0, 64, 88
1, 144015, Note_on_c, 0, 70, 45
1, 144016, Control_c, 0, 64, 84
1, 144029, Note_on_c, 0, 60, 45
1, 144031, Control_c, 0, 64, 80
1, 144046, Control_c, 0, 64, 78
1, 144061, Control_c, 0, 64, 76
1, 144076, Control_c, 0, 64, 74
1, 144090, Control_c, 0, 64, 71
1, 144105, Control_c, 0, 64, 68
1, 144120, Control_c, 0, 64, 65
1, 144135, Control_c, 0, 64, 64
1, 144150, Control_c, 0, 64, 62
1, 144164, Control_c, 0, 64, 58
1, 144179, Control_c, 0, 64, 51
1, 144194, Control_c, 0, 64, 42
1, 144209, Control_c, 0, 64, 32
1, 144217, Note_off_c, 0, 63, 52
1, 144224, Control_c, 0, 64, 28
1, 144253, Control_c, 0, 64, 29
1, 144268, Control_c, 0, 64, 36
1, 144283, Control_c, 0, 64, 45
1, 144298, Control_c, 0, 64, 52
1, 144320, Control_c, 0, 64, 59
1, 144335, Control_c, 0, 64, 63
1, 144350, Control_c, 0, 64, 66
1, 144365, Control_c, 0, 64, 71
1, 144379, Control_c, 0, 64, 77
1, 144394, Control_c, 0, 64, 85
1, 144409, Control_c, 0, 64, 96
1, 144423, Control_c, 0, 64, 112
1, 144438, Control_c, 0, 64, 127
1, 144493, Note_on_c, 0, 68, 47
1, 144524, Note_off_c, 0, 54, 42
1, 144531, Note_off_c, 0, 51, 36
1, 144608, Note_off_c, 0, 44, 37
1, 144617, Note_off_c, 0, 60, 57
1, 144755, Note_on_c, 0, 66, 42
1, 144778, Note_off_c, 0, 70, 30
1, 144800, Note_off_c, 0, 68, 51
1, 144827, Note_off_c, 0, 66, 59
1, 145002, Control_c, 0, 64, 125
1, 145011, Note_on_c, 0, 37, 22
1, 145017, Control_c, 0, 64, 105
1, 145019, Note_on_c, 0, 49, 19
1, 145023, Note_on_c, 0, 59, 45
1, 145031, Note_on_c, 0, 65, 42
1, 145032, Control_c, 0, 64, 94
1, 145046, Control_c, 0, 64, 83
1, 145069, Control_c, 0, 64, 72
1, 145074, Note_on_c, 0, 53, 36
1, 145084, Control_c, 0, 64, 62
1, 145099, Control_c, 0, 64, 50
1, 145114, Control_c, 0, 64, 47
1, 145128, Control_c, 0, 64, 49
1, 145143, Control_c, 0, 64, 52
1, 145158, Control_c, 0, 64, 56
1, 145172, Control_c, 0, 64, 60
1, 145187, Control_c, 0, 64, 65
1, 145202, Control_c, 0, 64, 71
1, 145217, Control_c, 0, 64, 79
1, 145232, Control_c, 0, 64, 91
1, 145246, Control_c, 0, 64, 108
1, 145261, Control_c, 0, 64, 127
1, 145273, Note_off_c, 0, 37, 29
1, 145287, Note_on_c, 0, 63, 43
1, 145288, Note_off_c, 0, 53, 36
1, 145368, Note_off_c, 0, 65, 35
1, 145394, Note_off_c, 0, 49, 38
1, 145492, Note_off_c, 0, 59, 35
1, 145558, Note_on_c, 0, 61, 46
1, 145634, Note_off_c, 0, 63, 29
1, 145744, Note_off_c, 0, 61, 37
1, 145872, Note_on_c, 0, 42, 41
1, 145875, Note_on_c, 0, 49, 36
1, 145930, Note_on_c, 0, 58, 76
1, 146055, Control_c, 0, 64, 117
1, 146069, Control_c, 0, 64, 97
1, 146084, Control_c, 0, 64, 86
1, 146099, Control_c, 0, 64, 78
1, 146114, Control_c, 0, 64, 72
1, 146129, Control_c, 0, 64, 65
1, 146143, Control_c, 0, 64, 61
1, 146158, Control_c, 0, 64, 54
1, 146174, Control_c, 0, 64, 47
1, 146189, Control_c, 0, 64, 36
1, 146204, Control_c, 0, 64, 11
1, 146218, Control_c, 0, 64, 0
1, 146367, Control_c, 0, 64, 29
1, 146382, Control_c, 0, 64, 47
1, 146397, Control_c, 0, 64, 57
1, 146411, Control_c, 0, 64, 61
1, 146426, Control_c, 0, 64, 63
1, 146441, Control_c, 0, 64, 66
1, 146456, Control_c, 0, 64, 69
1, 146471, Control_c, 0, 64, 75
1, 146485, Control_c, 0, 64, 83
1, 146500, Control_c, 0, 64, 98
1, 146515, Control_c, 0, 64, 127
1, 146716, Note_on_c, 0, 70, 46
1, 146796, Note_off_c, 0, 70, 62
1, 147002, Note_on_c, 0, 60, 52
1, 147255, Note_on_c, 0, 61, 64
1, 147395, Note_off_c, 0, 60, 36
1, 147449, Control_c, 0, 64, 116
1, 147464, Control_c, 0, 64, 109
1, 147479, Control_c, 0, 64, 104
1, 147494, Control_c, 0, 64, 100
1, 147509, Control_c, 0, 64, 97
1, 147523, Control_c, 0, 64, 95
1, 147538, Control_c, 0, 64, 92
1, 147553, Control_c, 0, 64, 90
1, 147568, Control_c, 0, 64, 88
1, 147583, Control_c, 0, 64, 87
1, 147597, Control_c, 0, 64, 86
1, 147612, Control_c, 0, 64, 85
1, 147627, Control_c, 0, 64, 85
1, 147641, Control_c, 0, 64, 84
1, 147656, Control_c, 0, 64, 82
1, 147668, Note_on_c, 0, 66, 50
1, 147671, Control_c, 0, 64, 81
1, 147686, Control_c, 0, 64, 79
1, 147701, Control_c, 0, 64, 78
1, 147715, Control_c, 0, 64, 77
1, 147730, Control_c, 0, 64, 76
1, 147745, Control_c, 0, 64, 74
1, 147761, Control_c, 0, 64, 72
1, 147776, Control_c, 0, 64, 71
1, 147791, Control_c, 0, 64, 70
1, 147806, Control_c, 0, 64, 69
1, 147816, Note_off_c, 0, 61, 54
1, 147820, Control_c, 0, 64, 68
1, 147835, Control_c, 0, 64, 67
1, 147850, Control_c, 0, 64, 66
1, 147864, Control_c, 0, 64, 66
1, 147879, Control_c, 0, 64, 65
1, 147894, Control_c, 0, 64, 64
1, 147909, Control_c, 0, 64, 64
1, 147924, Control_c, 0, 64, 63
1, 147938, Control_c, 0, 64, 62
1, 147953, Control_c, 0, 64, 61
1, 147968, Control_c, 0, 64, 60
1, 147983, Control_c, 0, 64, 58
1, 147998, Control_c, 0, 64, 55
1, 148012, Control_c, 0, 64, 54
1, 148042, Control_c, 0, 64, 55
1, 148064, Control_c, 0, 64, 56
1, 148079, Control_c, 0, 64, 57
1, 148094, Control_c, 0, 64, 58
1, 148109, Control_c, 0, 64, 60
1, 148124, Control_c, 0, 64, 61
1, 148138, Control_c, 0, 64, 62
1, 148153, Control_c, 0, 64, 64
1, 148168, Control_c, 0, 64, 66
1, 148183, Control_c, 0, 64, 69
1, 148198, Control_c, 0, 64, 71
1, 148212, Control_c, 0, 64, 74
1, 148227, Control_c, 0, 64, 78
1, 148242, Control_c, 0, 64, 82
1, 148257, Control_c, 0, 64, 86
1, 148272, Control_c, 0, 64, 93
1, 148287, Control_c, 0, 64, 97
1, 148301, Control_c, 0, 64, 100
1, 148316, Control_c, 0, 64, 102
1, 148331, Control_c, 0, 64, 111
1, 148340, Note_on_c, 0, 65, 45
1, 148346, Control_c, 0, 64, 127
1, 148634, Note_on_c, 0, 63, 30
1, 148643, Note_off_c, 0, 65, 47
1, 148695, Note_off_c, 0, 58, 36
1, 148707, Note_off_c, 0, 66, 38
1, 148878, Note_on_c, 0, 65, 43
1, 148946, Note_off_c, 0, 63, 33
1, 149032, Note_on_c, 0, 66, 49
1, 149062, Note_off_c, 0, 65, 36
1, 149221, Note_on_c, 0, 68, 48
1, 149265, Note_off_c, 0, 66, 32
1, 149504, Note_on_c, 0, 66, 49
1, 149708, Note_off_c, 0, 66, 49
1, 149712, Note_off_c, 0, 68, 32
1, 149741, Note_on_c, 0, 65, 17
1, 149913, Note_on_c, 0, 66, 40
1, 149914, Note_off_c, 0, 65, 41
1, 150012, Note_off_c, 0, 66, 50
1, 150043, Note_on_c, 0, 68, 46
1, 150129, Note_off_c, 0, 68, 59
1, 150164, Note_on_c, 0, 70, 44
1, 150225, Note_off_c, 0, 70, 53
1, 150284, Note_on_c, 0, 68, 41
1, 150339, Note_off_c, 0, 68, 52
1, 150391, Note_on_c, 0, 66, 32
1, 150426, Note_off_c, 0, 66, 55
1, 150492, Note_on_c, 0, 68, 38
1, 150558, Note_off_c, 0, 68, 39
1, 150609, Note_on_c, 0, 70, 44
1, 150668, Note_off_c, 0, 70, 57
1, 150722, Note_on_c, 0, 80, 45
1, 150818, Note_off_c, 0, 80, 49
1, 150829, Note_on_c, 0, 78, 41
1, 150874, Note_off_c, 0, 78, 54
1, 150922, Note_on_c, 0, 77, 8
1, 150966, Note_off_c, 0, 77, 50
1, 150990, Note_on_c, 0, 75, 46
1, 151035, Note_off_c, 0, 75, 63
1, 151083, Note_on_c, 0, 72, 45
1, 151106, Note_off_c, 0, 42, 34
1, 151118, Note_off_c, 0, 72, 64
1, 151147, Note_on_c, 0, 73, 50
1, 151178, Note_off_c, 0, 73, 65
1, 151230, Note_on_c, 0, 83, 46
1, 151269, Note_off_c, 0, 49, 31
1, 151276, Note_off_c, 0, 83, 64
1, 151286, Note_on_c, 0, 82, 62
1, 151296, Control_c, 0, 67, 125
1, 151311, Control_c, 0, 67, 124
1, 151326, Control_c, 0, 67, 122
1, 151341, Control_c, 0, 67, 120
1, 151342, Note_on_c, 0, 80, 60
1, 151353, Note_off_c, 0, 82, 61
1, 151355, Control_c, 0, 67, 117
1, 151370, Control_c, 0, 67, 115
1, 151385, Control_c, 0, 67, 113
1, 151396, Note_off_c, 0, 80, 61
1, 151400, Control_c, 0, 67, 110
1, 151408, Note_on_c, 0, 78, 58
1, 151415, Control_c, 0, 67, 109
1, 151429, Control_c, 0, 67, 106
1, 151435, Note_off_c, 0, 78, 65
1, 151444, Control_c, 0, 67, 104
1, 151459, Control_c, 0, 67, 99
1, 151463, Note_on_c, 0, 77, 57
1, 151474, Control_c, 0, 67, 95
1, 151488, Control_c, 0, 67, 91
1, 151495, Note_off_c, 0, 77, 64
1, 151503, Control_c, 0, 67, 89
1, 151512, Note_on_c, 0, 78, 61
1, 151518, Control_c, 0, 67, 88
1, 151533, Control_c, 0, 67, 87
1, 151542, Note_off_c, 0, 78, 64
1, 151548, Control_c, 0, 67, 86
1, 151563, Control_c, 0, 67, 84
1, 151577, Note_on_c, 0, 87, 59
1, 151577, Control_c, 0, 67, 82
1, 151592, Control_c, 0, 67, 79
1, 151607, Control_c, 0, 67, 77
1, 151622, Control_c, 0, 67, 74
1, 151622, Note_off_c, 0, 87, 57
1, 151625, Note_on_c, 0, 85, 69
1, 151637, Control_c, 0, 67, 71
1, 151652, Control_c, 0, 67, 67
1, 151667, Control_c, 0, 67, 63
1, 151681, Note_on_c, 0, 83, 62
1, 151681, Control_c, 0, 67, 60
1, 151691, Note_off_c, 0, 85, 62
1, 151696, Control_c, 0, 67, 56
1, 151711, Control_c, 0, 67, 53
1, 151722, Note_off_c, 0, 83, 64
1, 151726, Control_c, 0, 67, 50
1, 151731, Note_on_c, 0, 82, 69
1, 151741, Control_c, 0, 67, 47
1, 151756, Control_c, 0, 67, 44
1, 151758, Note_off_c, 0, 82, 69
1, 151771, Control_c, 0, 67, 41
1, 151781, Note_on_c, 0, 81, 63
1, 151786, Control_c, 0, 67, 37
1, 151808, Control_c, 0, 67, 33
1, 151817, Note_off_c, 0, 81, 67
1, 151823, Control_c, 0, 67, 28
1, 151838, Control_c, 0, 67, 22
1, 151840, Note_on_c, 0, 82, 56
1, 151853, Control_c, 0, 67, 17
1, 151859, Note_off_c, 0, 82, 63
1, 151867, Control_c, 0, 67, 12
1, 151882, Control_c, 0, 67, 9
1, 151896, Note_on_c, 0, 92, 75
1, 151897, Control_c, 0, 67, 0
1, 151959, Note_on_c, 0, 90, 65
1, 151997, Note_off_c, 0, 92, 61
1, 152003, Note_on_c, 0, 89, 68
1, 152027, Note_off_c, 0, 90, 61
1, 152059, Note_on_c, 0, 87, 70
1, 152060, Note_off_c, 0, 89, 63
1, 152088, Note_off_c, 0, 87, 66
1, 152117, Note_on_c, 0, 84, 66
1, 152148, Note_off_c, 0, 84, 63
1, 152169, Note_on_c, 0, 85, 58
1, 152192, Note_off_c, 0, 85, 65
1, 152224, Note_on_c, 0, 95, 72
1, 152275, Note_on_c, 0, 94, 76
1, 152301, Note_off_c, 0, 95, 63
1, 152320, Note_on_c, 0, 92, 78
1, 152361, Note_off_c, 0, 94, 62
1, 152376, Note_on_c, 0, 90, 72
1, 152382, Note_off_c, 0, 92, 65
1, 152415, Note_off_c, 0, 90, 62
1, 152432, Note_on_c, 0, 84, 66
1, 152474, Note_off_c, 0, 84, 61
1, 152486, Note_on_c, 0, 85, 70
1, 152509, Note_off_c, 0, 85, 70
1, 152559, Note_on_c, 0, 95, 71
1, 152608, Note_on_c, 0, 94, 71
1, 152633, Note_off_c, 0, 95, 60
1, 152657, Note_on_c, 0, 92, 68
1, 152695, Note_off_c, 0, 94, 61
1, 152716, Note_on_c, 0, 90, 62
1, 152722, Note_off_c, 0, 92, 63
1, 152766, Note_off_c, 0, 90, 60
1, 152794, Control_c, 0, 64, 102
1, 152806, Note_on_c, 0, 84, 50
1, 152809, Control_c, 0, 64, 86
1, 152823, Control_c, 0, 64, 78
1, 152838, Control_c, 0, 64, 72
1, 152847, Note_off_c, 0, 84, 60
1, 152853, Control_c, 0, 64, 70
1, 152868, Control_c, 0, 64, 70
1, 152883, Control_c, 0, 64, 72
1, 152886, Note_on_c, 0, 85, 43
1, 152898, Control_c, 0, 64, 76
1, 152909, Note_off_c, 0, 85, 57
1, 152913, Control_c, 0, 64, 82
1, 152927, Control_c, 0, 64, 94
1, 152942, Control_c, 0, 64, 117
1, 152949, Note_on_c, 0, 95, 64
1, 152957, Control_c, 0, 64, 127
1, 152999, Note_on_c, 0, 94, 65
1, 153028, Note_off_c, 0, 95, 61
1, 153061, Note_off_c, 0, 94, 60
1, 153077, Note_on_c, 0, 85, 45
1, 153102, Note_off_c, 0, 85, 56
1, 153116, Note_on_c, 0, 86, 59
1, 153149, Note_off_c, 0, 86, 52
1, 153151, Note_on_c, 0, 95, 75
1, 153193, Note_on_c, 0, 94, 67
1, 153220, Note_off_c, 0, 95, 61
1, 153238, Note_on_c, 0, 86, 64
1, 153253, Note_off_c, 0, 94, 63
1, 153290, Note_on_c, 0, 87, 74
1, 153291, Note_off_c, 0, 86, 64
1, 153328, Note_off_c, 0, 87, 62
1, 153340, Note_on_c, 0, 95, 76
1, 153386, Note_on_c, 0, 94, 79
1, 153421, Note_off_c, 0, 95, 65
1, 153432, Note_on_c, 0, 87, 64
1, 153452, Note_off_c, 0, 94, 64
1, 153461, Note_off_c, 0, 87, 67
1, 153470, Note_on_c, 0, 88, 70
1, 153505, Note_on_c, 0, 86, 27
1, 153506, Note_off_c, 0, 86, 127
1, 153524, Note_on_c, 0, 94, 82
1, 153524, Note_on_c, 0, 95, 70
1, 153524, Note_off_c, 0, 88, 65
1, 153586, Note_off_c, 0, 95, 62
1, 153588, Note_on_c, 0, 88, 71
1, 153594, Note_off_c, 0, 94, 64
1, 153644, Note_on_c, 0, 89, 79
1, 153644, Note_off_c, 0, 88, 66
1, 153668, Note_on_c, 0, 95, 80
1, 153684, Note_off_c, 0, 89, 59
1, 153699, Note_on_c, 0, 94, 75
1, 153736, Control_c, 0, 64, 85
1, 153741, Note_on_c, 0, 88, 74
1, 153742, Note_off_c, 0, 95, 65
1, 153751, Control_c, 0, 64, 65
1, 153752, Note_off_c, 0, 94, 63
1, 153765, Control_c, 0, 64, 49
1, 153780, Control_c, 0, 64, 55
1, 153792, Note_on_c, 0, 66, 61
1, 153795, Control_c, 0, 64, 62
1, 153798, Note_on_c, 0, 90, 76
1, 153803, Note_off_c, 0, 88, 66
1, 153810, Control_c, 0, 64, 69
1, 153824, Control_c, 0, 64, 90
1, 153828, Note_on_c, 0, 73, 73
1, 153830, Note_off_c, 0, 66, 64
1, 153839, Control_c, 0, 64, 127
1, 153843, Note_on_c, 0, 95, 66
1, 153855, Note_off_c, 0, 90, 64
1, 153866, Note_on_c, 0, 76, 68
1, 153870, Note_on_c, 0, 94, 75
1, 153882, Note_off_c, 0, 95, 61
1, 153912, Note_off_c, 0, 73, 64
1, 153916, Note_off_c, 0, 94, 62
1, 153936, Note_on_c, 0, 82, 85
1, 153954, Note_on_c, 0, 93, 70
1, 153973, Note_off_c, 0, 76, 59
1, 154010, Note_off_c, 0, 93, 65
1, 154017, Note_on_c, 0, 94, 73
1, 154062, Note_off_c, 0, 94, 60
1, 154087, Note_on_c, 0, 98, 68
1, 154121, Note_on_c, 0, 97, 81
1, 154124, Note_off_c, 0, 98, 62
1, 154160, Note_off_c, 0, 82, 52
1, 154175, Note_on_c, 0, 93, 71
1, 154178, Note_off_c, 0, 97, 63
1, 154222, Note_on_c, 0, 94, 81
1, 154224, Note_off_c, 0, 93, 67
1, 154264, Note_on_c, 0, 99, 80
1, 154269, Note_off_c, 0, 94, 64
1, 154306, Note_on_c, 0, 97, 75
1, 154338, Note_off_c, 0, 99, 65
1, 154354, Note_on_c, 0, 93, 81
1, 154366, Note_off_c, 0, 97, 64
1, 154405, Note_on_c, 0, 94, 83
1, 154417, Note_off_c, 0, 93, 66
1, 154451, Note_on_c, 0, 99, 87
1, 154460, Note_off_c, 0, 94, 64
1, 154499, Note_on_c, 0, 97, 80
1, 154534, Note_off_c, 0, 99, 64
1, 154539, Note_on_c, 0, 93, 83
1, 154563, Note_off_c, 0, 97, 64
1, 154594, Note_on_c, 0, 94, 89
1, 154615, Note_off_c, 0, 93, 66
1, 154639, Note_on_c, 0, 99, 91
1, 154655, Note_off_c, 0, 94, 64
1, 154686, Note_on_c, 0, 97, 86
1, 154723, Note_on_c, 0, 93, 84
1, 154727, Note_off_c, 0, 99, 65
1, 154758, Note_off_c, 0, 97, 64
1, 154777, Note_on_c, 0, 94, 93
1, 154805, Note_off_c, 0, 93, 66
1, 154828, Note_on_c, 0, 99, 88
1, 154850, Note_off_c, 0, 94, 63
1, 154867, Note_on_c, 0, 97, 90
1, 154904, Note_on_c, 0, 93, 84
1, 154906, Note_off_c, 0, 99, 65
1, 154938, Note_off_c, 0, 97, 63
1, 154963, Note_on_c, 0, 94, 93
1, 154980, Note_off_c, 0, 93, 66
1, 155004, Note_on_c, 0, 99, 81
1, 155037, Note_off_c, 0, 94, 63
1, 155050, Note_on_c, 0, 97, 90
1, 155083, Note_off_c, 0, 99, 65
1, 155092, Note_on_c, 0, 93, 79
1, 155124, Note_off_c, 0, 97, 63
1, 155158, Note_on_c, 0, 94, 90
1, 155175, Note_off_c, 0, 93, 65
1, 155196, Note_on_c, 0, 99, 77
1, 155223, Note_off_c, 0, 94, 64
1, 155243, Note_on_c, 0, 97, 82
1, 155277, Note_off_c, 0, 99, 65
1, 155292, Note_on_c, 0, 93, 82
1, 155315, Note_off_c, 0, 97, 64
1, 155360, Note_on_c, 0, 94, 86
1, 155380, Note_off_c, 0, 93, 65
1, 155396, Note_on_c, 0, 99, 66
1, 155441, Note_off_c, 0, 94, 63
1, 155445, Note_on_c, 0, 97, 71
1, 155473, Note_off_c, 0, 99, 62
1, 155497, Note_on_c, 0, 92, 60
1, 155511, Note_off_c, 0, 97, 60
1, 155578, Note_on_c, 0, 93, 62
1, 155589, Note_off_c, 0, 92, 58
1, 155613, Note_off_c, 0, 93, 65
1, 155632, Note_on_c, 0, 94, 66
1, 155679, Note_off_c, 0, 94, 61
1, 155682, Note_on_c, 0, 99, 67
1, 155718, Note_on_c, 0, 97, 72
1, 155760, Note_off_c, 0, 99, 57
1, 155772, Note_on_c, 0, 94, 62
1, 155783, Note_on_c, 0, 92, 80
1, 155789, Note_off_c, 0, 97, 63
1, 155811, Note_off_c, 0, 94, 62
1, 155822, Note_off_c, 0, 92, 63
1, 155837, Note_on_c, 0, 90, 50
1, 155858, Note_on_c, 0, 88, 71
1, 155859, Note_off_c, 0, 90, 59
1, 155896, Note_on_c, 0, 89, 72
1, 155898, Note_off_c, 0, 88, 64
1, 155925, Note_off_c, 0, 89, 67
1, 155927, Note_on_c, 0, 90, 72
1, 155950, Note_off_c, 0, 90, 69
1, 155957, Note_on_c, 0, 97, 74
1, 155974, Note_on_c, 0, 94, 80
1, 156027, Note_off_c, 0, 97, 57
1, 156033, Note_on_c, 0, 90, 65
1, 156044, Note_off_c, 0, 94, 64
1, 156051, Note_off_c, 0, 90, 63
1, 156073, Note_on_c, 0, 89, 42
1, 156074, Note_on_c, 0, 88, 60
1, 156099, Note_off_c, 0, 88, 57
1, 156105, Note_off_c, 0, 89, 52
1, 156109, Note_on_c, 0, 87, 77
1, 156131, Note_on_c, 0, 85, 81
1, 156156, Note_off_c, 0, 85, 63
1, 156165, Note_on_c, 0, 83, 71
1, 156168, Note_off_c, 0, 87, 63
1, 156204, Control_c, 0, 64, 105
1, 156210, Note_on_c, 0, 84, 74
1, 156216, Note_off_c, 0, 83, 63
1, 156219, Control_c, 0, 64, 92
1, 156234, Control_c, 0, 64, 98
1, 156236, Note_off_c, 0, 84, 67
1, 156248, Note_on_c, 0, 85, 70
1, 156249, Control_c, 0, 64, 127
1, 156267, Note_on_c, 0, 94, 72
1, 156274, Note_off_c, 0, 85, 67
1, 156289, Note_on_c, 0, 90, 82
1, 156333, Note_off_c, 0, 94, 62
1, 156334, Note_on_c, 0, 87, 66
1, 156360, Note_on_c, 0, 85, 76
1, 156362, Note_off_c, 0, 87, 67
1, 156375, Note_off_c, 0, 90, 62
1, 156391, Note_off_c, 0, 85, 66
1, 156404, Note_on_c, 0, 83, 68
1, 156443, Note_off_c, 0, 83, 58
1, 156455, Note_on_c, 0, 82, 60
1, 156469, Note_on_c, 0, 80, 73
1, 156483, Note_off_c, 0, 82, 64
1, 156493, Control_c, 0, 64, 125
1, 156502, Note_off_c, 0, 80, 61
1, 156506, Note_on_c, 0, 81, 78
1, 156508, Control_c, 0, 64, 127
1, 156529, Note_off_c, 0, 81, 70
1, 156588, Note_on_c, 0, 88, 25
1, 156609, Note_on_c, 0, 86, 33
1, 156626, Note_off_c, 0, 88, 41
1, 156628, Note_on_c, 0, 81, 76
1, 156638, Note_off_c, 0, 86, 57
1, 156672, Note_off_c, 0, 81, 65
1, 156681, Note_on_c, 0, 78, 62
1, 156701, Note_off_c, 0, 78, 62
1, 156738, Note_on_c, 0, 76, 75
1, 156746, Control_c, 0, 64, 111
1, 156761, Control_c, 0, 64, 89
1, 156771, Note_off_c, 0, 76, 64
1, 156771, Note_on_c, 0, 77, 69
1, 156775, Control_c, 0, 64, 82
1, 156783, Note_on_c, 0, 78, 67
1, 156790, Control_c, 0, 64, 83
1, 156800, Note_off_c, 0, 77, 67
1, 156805, Control_c, 0, 64, 91
1, 156820, Control_c, 0, 64, 119
1, 156824, Note_off_c, 0, 78, 63
1, 156835, Control_c, 0, 64, 127
1, 156840, Note_on_c, 0, 85, 56
1, 156845, Note_on_c, 0, 82, 75
1, 156877, Note_off_c, 0, 85, 62
1, 156899, Note_on_c, 0, 78, 80
1, 156902, Note_on_c, 0, 80, 49
1, 156911, Note_off_c, 0, 82, 63
1, 156924, Note_off_c, 0, 80, 59
1, 156949, Note_on_c, 0, 77, 75
1, 156949, Note_off_c, 0, 78, 64
1, 156991, Note_on_c, 0, 75, 79
1, 156999, Note_off_c, 0, 77, 61
1, 157033, Note_on_c, 0, 73, 67
1, 157056, Note_on_c, 0, 71, 68
1, 157059, Note_off_c, 0, 75, 61
1, 157064, Control_c, 0, 64, 106
1, 157070, Note_off_c, 0, 73, 66
1, 157079, Control_c, 0, 64, 87
1, 157094, Control_c, 0, 64, 77
1, 157102, Note_off_c, 0, 71, 59
1, 157103, Note_on_c, 0, 72, 70
1, 157108, Control_c, 0, 64, 75
1, 157123, Control_c, 0, 64, 78
1, 157134, Note_on_c, 0, 73, 70
1, 157138, Control_c, 0, 64, 86
1, 157144, Note_off_c, 0, 72, 60
1, 157153, Control_c, 0, 64, 102
1, 157168, Control_c, 0, 64, 127
1, 157173, Note_off_c, 0, 73, 63
1, 157175, Note_on_c, 0, 82, 74
1, 157194, Note_on_c, 0, 78, 79
1, 157241, Note_off_c, 0, 82, 59
1, 157243, Note_on_c, 0, 75, 64
1, 157257, Note_on_c, 0, 73, 76
1, 157272, Note_off_c, 0, 75, 66
1, 157273, Note_off_c, 0, 78, 62
1, 157301, Note_off_c, 0, 73, 64
1, 157305, Note_on_c, 0, 71, 71
1, 157363, Note_off_c, 0, 71, 56
1, 157369, Note_on_c, 0, 70, 73
1, 157384, Note_on_c, 0, 68, 61
1, 157405, Control_c, 0, 64, 105
1, 157410, Note_off_c, 0, 70, 56
1, 157420, Control_c, 0, 64, 82
1, 157435, Control_c, 0, 64, 69
1, 157444, Note_on_c, 0, 69, 59
1, 157450, Control_c, 0, 64, 64
1, 157480, Control_c, 0, 64, 66
1, 157486, Note_off_c, 0, 68, 46
1, 157495, Control_c, 0, 64, 68
1, 157509, Control_c, 0, 64, 72
1, 157521, Note_on_c, 0, 70, 62
1, 157524, Control_c, 0, 64, 79
1, 157537, Note_off_c, 0, 69, 62
1, 157539, Control_c, 0, 64, 92
1, 157539, Note_on_c, 0, 75, 50
1, 157554, Control_c, 0, 64, 127
1, 157561, Note_off_c, 0, 70, 63
1, 157586, Note_on_c, 0, 73, 74
1, 157623, Note_off_c, 0, 75, 60
1, 157647, Note_on_c, 0, 70, 65
1, 157647, Note_off_c, 0, 73, 62
1, 157677, Note_off_c, 0, 70, 66
1, 157680, Note_on_c, 0, 64, 67
1, 157702, Control_c, 0, 64, 94
1, 157716, Control_c, 0, 64, 82
1, 157725, Note_on_c, 0, 65, 68
1, 157730, Note_off_c, 0, 64, 61
1, 157731, Control_c, 0, 64, 78
1, 157746, Control_c, 0, 64, 81
1, 157757, Note_off_c, 0, 65, 65
1, 157761, Control_c, 0, 64, 91
1, 157766, Note_on_c, 0, 66, 67
1, 157776, Control_c, 0, 64, 107
1, 157798, Control_c, 0, 64, 127
1, 157810, Note_off_c, 0, 66, 62
1, 157821, Note_on_c, 0, 71, 70
1, 157845, Note_on_c, 0, 70, 73
1, 157872, Control_c, 0, 64, 98
1, 157882, Note_off_c, 0, 71, 61
1, 157887, Control_c, 0, 64, 85
1, 157896, Note_on_c, 0, 66, 70
1, 157902, Control_c, 0, 64, 81
1, 157903, Note_off_c, 0, 70, 65
1, 157917, Control_c, 0, 64, 83
1, 157924, Note_off_c, 0, 66, 67
1, 157931, Control_c, 0, 64, 88
1, 157946, Control_c, 0, 64, 102
1, 157953, Note_on_c, 0, 59, 69
1, 157961, Control_c, 0, 64, 127
1, 157989, Note_off_c, 0, 59, 63
1, 157990, Control_c, 0, 64, 125
1, 157995, Note_on_c, 0, 60, 65
1, 158004, Control_c, 0, 64, 101
1, 158019, Control_c, 0, 64, 87
1, 158025, Note_off_c, 0, 60, 67
1, 158034, Note_on_c, 0, 61, 73
1, 158034, Control_c, 0, 64, 77
1, 158049, Control_c, 0, 64, 73
1, 158064, Control_c, 0, 64, 74
1, 158076, Note_off_c, 0, 61, 58
1, 158079, Control_c, 0, 64, 77
1, 158088, Note_on_c, 0, 66, 68
1, 158094, Control_c, 0, 64, 81
1, 158103, Note_on_c, 0, 63, 64
1, 158109, Control_c, 0, 64, 89
1, 158123, Control_c, 0, 64, 104
1, 158138, Control_c, 0, 64, 127
1, 158158, Note_off_c, 0, 66, 61
1, 158161, Note_on_c, 0, 61, 68
1, 158174, Note_off_c, 0, 63, 62
1, 158198, Note_off_c, 0, 61, 58
1, 158198, Control_c, 0, 64, 102
1, 158204, Note_on_c, 0, 56, 66
1, 158213, Control_c, 0, 64, 87
1, 158228, Control_c, 0, 64, 76
1, 158243, Control_c, 0, 64, 71
1, 158258, Control_c, 0, 64, 71
1, 158261, Note_on_c, 0, 57, 65
1, 158273, Control_c, 0, 64, 76
1, 158284, Note_off_c, 0, 56, 51
1, 158287, Control_c, 0, 64, 86
1, 158302, Control_c, 0, 64, 104
1, 158317, Note_on_c, 0, 58, 67
1, 158317, Control_c, 0, 64, 127
1, 158361, Control_c, 0, 64, 100
1, 158363, Note_on_c, 0, 63, 64
1, 158367, Note_off_c, 0, 58, 57
1, 158376, Control_c, 0, 64, 83
1, 158380, Note_off_c, 0, 57, 61
1, 158391, Control_c, 0, 64, 73
1, 158406, Control_c, 0, 64, 69
1, 158409, Note_on_c, 0, 61, 66
1, 158420, Control_c, 0, 64, 71
1, 158435, Control_c, 0, 64, 76
1, 158450, Control_c, 0, 64, 82
1, 158459, Note_off_c, 0, 63, 59
1, 158465, Note_on_c, 0, 58, 66
1, 158465, Control_c, 0, 64, 89
1, 158480, Control_c, 0, 64, 101
1, 158490, Note_off_c, 0, 61, 60
1, 158494, Control_c, 0, 64, 127
1, 158531, Note_off_c, 0, 58, 62
1, 158537, Note_on_c, 0, 52, 60
1, 158539, Control_c, 0, 64, 115
1, 158561, Control_c, 0, 64, 109
1, 158576, Control_c, 0, 64, 105
1, 158591, Control_c, 0, 64, 100
1, 158606, Control_c, 0, 64, 92
1, 158620, Control_c, 0, 64, 86
1, 158630, Note_on_c, 0, 53, 58
1, 158635, Control_c, 0, 64, 77
1, 158650, Control_c, 0, 64, 68
1, 158665, Control_c, 0, 64, 59
1, 158679, Control_c, 0, 64, 47
1, 158694, Control_c, 0, 64, 45
1, 158709, Control_c, 0, 64, 47
1, 158725, Control_c, 0, 64, 51
1, 158730, Note_on_c, 0, 54, 56
1, 158732, Note_off_c, 0, 52, 53
1, 158740, Control_c, 0, 64, 55
1, 158754, Control_c, 0, 64, 59
1, 158769, Control_c, 0, 64, 63
1, 158784, Control_c, 0, 64, 67
1, 158785, Note_on_c, 0, 59, 59
1, 158799, Control_c, 0, 64, 73
1, 158800, Note_off_c, 0, 54, 62
1, 158814, Control_c, 0, 64, 81
1, 158827, Note_off_c, 0, 53, 56
1, 158828, Control_c, 0, 64, 88
1, 158839, Note_on_c, 0, 58, 64
1, 158843, Control_c, 0, 64, 93
1, 158858, Control_c, 0, 64, 97
1, 158872, Control_c, 0, 64, 100
1, 158876, Note_off_c, 0, 59, 60
1, 158887, Control_c, 0, 64, 108
1, 158895, Note_on_c, 0, 54, 53
1, 158902, Control_c, 0, 64, 115
1, 158916, Note_off_c, 0, 58, 58
1, 158917, Control_c, 0, 64, 122
1, 158932, Control_c, 0, 64, 127
1, 158946, Note_on_c, 0, 52, 62
1, 158954, Note_off_c, 0, 54, 61
1, 158995, Note_on_c, 0, 53, 68
1, 159000, Note_off_c, 0, 52, 58
1, 159066, Note_on_c, 0, 54, 68
1, 159092, Note_off_c, 0, 53, 61
1, 159113, Note_on_c, 0, 59, 71
1, 159122, Note_off_c, 0, 54, 60
1, 159125, Control_c, 0, 64, 122
1, 159140, Control_c, 0, 64, 117
1, 159155, Control_c, 0, 64, 114
1, 159170, Control_c, 0, 64, 109
1, 159170, Note_on_c, 0, 58, 70
1, 159185, Control_c, 0, 64, 106
1, 159200, Control_c, 0, 64, 104
1, 159215, Control_c, 0, 64, 101
1, 159217, Note_off_c, 0, 59, 58
1, 159229, Control_c, 0, 64, 97
1, 159234, Note_on_c, 0, 54, 72
1, 159244, Control_c, 0, 64, 93
1, 159259, Control_c, 0, 64, 89
1, 159274, Control_c, 0, 64, 86
1, 159285, Note_off_c, 0, 58, 47
1, 159289, Control_c, 0, 64, 83
1, 159310, Control_c, 0, 64, 80
1, 159325, Control_c, 0, 64, 76
1, 159329, Note_on_c, 0, 53, 59
1, 159340, Control_c, 0, 64, 73
1, 159355, Control_c, 0, 64, 70
1, 159361, Note_off_c, 0, 54, 59
1, 159370, Control_c, 0, 64, 67
1, 159384, Control_c, 0, 64, 64
1, 159399, Control_c, 0, 64, 61
1, 159414, Control_c, 0, 64, 60
1, 159459, Control_c, 0, 64, 60
1, 159462, Note_on_c, 0, 54, 61
1, 159473, Control_c, 0, 64, 61
1, 159488, Control_c, 0, 64, 62
1, 159502, Control_c, 0, 64, 64
1, 159517, Control_c, 0, 64, 66
1, 159529, Note_on_c, 0, 59, 60
1, 159532, Control_c, 0, 64, 69
1, 159536, Note_off_c, 0, 54, 63
1, 159547, Control_c, 0, 64, 72
1, 159562, Control_c, 0, 64, 77
1, 159576, Control_c, 0, 64, 81
1, 159591, Control_c, 0, 64, 84
1, 159595, Note_on_c, 0, 58, 68
1, 159606, Control_c, 0, 64, 88
1, 159608, Note_off_c, 0, 53, 51
1, 159621, Control_c, 0, 64, 89
1, 159636, Control_c, 0, 64, 90
1, 159646, Note_off_c, 0, 59, 51
1, 159660, Note_on_c, 0, 54, 67
1, 159688, Note_off_c, 0, 58, 53
1, 159709, Control_c, 0, 64, 89
1, 159710, Note_on_c, 0, 53, 73
1, 159712, Note_off_c, 0, 54, 63
1, 159724, Control_c, 0, 64, 89
1, 159755, Control_c, 0, 64, 88
1, 159770, Control_c, 0, 64, 87
1, 159776, Note_on_c, 0, 54, 67
1, 159785, Control_c, 0, 64, 86
1, 159799, Control_c, 0, 64, 84
1, 159802, Note_off_c, 0, 53, 58
1, 159814, Control_c, 0, 64, 80
1, 159829, Control_c, 0, 64, 75
1, 159839, Note_on_c, 0, 59, 77
1, 159839, Note_off_c, 0, 54, 64
1, 159844, Control_c, 0, 64, 70
1, 159859, Control_c, 0, 64, 68
1, 159888, Note_on_c, 0, 58, 71
1, 159888, Control_c, 0, 64, 68
1, 159903, Control_c, 0, 64, 69
1, 159918, Control_c, 0, 64, 70
1, 159928, Note_off_c, 0, 59, 62
1, 159933, Control_c, 0, 64, 71
1, 159941, Note_on_c, 0, 54, 75
1, 159963, Control_c, 0, 64, 71
1, 159972, Note_off_c, 0, 58, 58
1, 159978, Control_c, 0, 64, 70
1, 159992, Control_c, 0, 64, 68
1, 159995, Note_on_c, 0, 53, 74
1, 160001, Note_off_c, 0, 54, 65
1, 160007, Control_c, 0, 64, 66
1, 160022, Control_c, 0, 64, 65
1, 160059, Control_c, 0, 64, 66
1, 160065, Note_on_c, 0, 54, 60
1, 160083, Note_off_c, 0, 53, 61
1, 160118, Control_c, 0, 64, 65
1, 160124, Note_on_c, 0, 59, 70
1, 160126, Note_off_c, 0, 54, 65
1, 160133, Control_c, 0, 64, 64
1, 160148, Control_c, 0, 64, 62
1, 160162, Control_c, 0, 64, 59
1, 160177, Control_c, 0, 64, 58
1, 160185, Note_on_c, 0, 58, 69
1, 160206, Note_off_c, 0, 59, 59
1, 160207, Control_c, 0, 64, 58
1, 160236, Control_c, 0, 64, 59
1, 160240, Note_on_c, 0, 54, 75
1, 160252, Note_off_c, 0, 58, 61
1, 160298, Note_off_c, 0, 54, 64
1, 160301, Note_on_c, 0, 53, 71
1, 160366, Note_on_c, 0, 54, 65
1, 160374, Note_off_c, 0, 53, 62
1, 160427, Note_off_c, 0, 54, 64
1, 160428, Note_on_c, 0, 59, 70
1, 160428, Control_c, 0, 64, 58
1, 160495, Note_on_c, 0, 58, 71
1, 160511, Note_off_c, 0, 59, 60
1, 160517, Control_c, 0, 64, 58
1, 160562, Note_on_c, 0, 54, 66
1, 160562, Control_c, 0, 64, 57
1, 160581, Note_off_c, 0, 58, 59
1, 160592, Control_c, 0, 64, 57
1, 160607, Control_c, 0, 64, 56
1, 160636, Control_c, 0, 64, 55
1, 160651, Control_c, 0, 64, 54
1, 160666, Control_c, 0, 64, 54
1, 160681, Control_c, 0, 64, 52
1, 160696, Control_c, 0, 64, 51
1, 160711, Control_c, 0, 64, 48
1, 160716, Note_on_c, 0, 53, 62
1, 160725, Note_off_c, 0, 54, 59
1, 160726, Control_c, 0, 64, 43
1, 160740, Control_c, 0, 64, 33
1, 160755, Control_c, 0, 64, 18
1, 160770, Control_c, 0, 64, 0
1, 160896, Control_c, 0, 64, 17
1, 160911, Control_c, 0, 64, 33
1, 160926, Control_c, 0, 64, 44
1, 160940, Control_c, 0, 64, 57
1, 160942, Note_off_c, 0, 53, 52
1, 160955, Control_c, 0, 64, 63
1, 160970, Control_c, 0, 64, 67
1, 160985, Control_c, 0, 64, 72
1, 161000, Control_c, 0, 64, 79
1, 161014, Control_c, 0, 64, 90
1, 161029, Control_c, 0, 64, 105
1, 161044, Control_c, 0, 64, 115
1, 161074, Control_c, 0, 64, 109
1, 161076, Note_on_c, 0, 54, 68
1, 161088, Control_c, 0, 64, 97
1, 161103, Control_c, 0, 64, 86
1, 161118, Control_c, 0, 64, 73
1, 161133, Control_c, 0, 64, 64
1, 161147, Control_c, 0, 64, 55
1, 161162, Control_c, 0, 64, 54
1, 161177, Control_c, 0, 64, 57
1, 161192, Control_c, 0, 64, 60
1, 161207, Control_c, 0, 64, 63
1, 161221, Control_c, 0, 64, 67
1, 161236, Control_c, 0, 64, 75
1, 161251, Control_c, 0, 64, 86
1, 161258, Note_off_c, 0, 54, 62
1, 161266, Control_c, 0, 64, 94
1, 161281, Control_c, 0, 64, 90
1, 161295, Control_c, 0, 64, 80
1, 161298, Note_on_c, 0, 57, 77
1, 161310, Control_c, 0, 64, 69
1, 161325, Control_c, 0, 64, 59
1, 161341, Control_c, 0, 64, 46
1, 161356, Control_c, 0, 64, 49
1, 161370, Control_c, 0, 64, 56
1, 161385, Control_c, 0, 64, 61
1, 161400, Control_c, 0, 64, 69
1, 161415, Control_c, 0, 64, 81
1, 161430, Control_c, 0, 64, 107
1, 161432, Note_off_c, 0, 57, 64
1, 161444, Control_c, 0, 64, 127
1, 161459, Control_c, 0, 64, 102
1, 161474, Note_on_c, 0, 58, 86
1, 161474, Control_c, 0, 64, 82
1, 161489, Control_c, 0, 64, 65
1, 161504, Control_c, 0, 64, 48
1, 161519, Control_c, 0, 64, 41
1, 161541, Control_c, 0, 64, 51
1, 161556, Control_c, 0, 64, 58
1, 161570, Control_c, 0, 64, 64
1, 161585, Control_c, 0, 64, 74
1, 161600, Control_c, 0, 64, 93
1, 161615, Control_c, 0, 64, 127
1, 161624, Note_off_c, 0, 58, 62
1, 161659, Control_c, 0, 64, 98
1, 161664, Note_on_c, 0, 59, 82
1, 161674, Control_c, 0, 64, 75
1, 161689, Control_c, 0, 64, 59
1, 161704, Control_c, 0, 64, 42
1, 161718, Control_c, 0, 64, 49
1, 161733, Control_c, 0, 64, 57
1, 161748, Control_c, 0, 64, 62
1, 161763, Control_c, 0, 64, 69
1, 161778, Control_c, 0, 64, 86
1, 161793, Control_c, 0, 64, 127
1, 161808, Note_off_c, 0, 59, 60
1, 161867, Control_c, 0, 64, 93
1, 161877, Note_on_c, 0, 61, 87
1, 161882, Control_c, 0, 64, 74
1, 161896, Control_c, 0, 64, 61
1, 161911, Control_c, 0, 64, 40
1, 161926, Control_c, 0, 64, 34
1, 161941, Control_c, 0, 64, 37
1, 161956, Control_c, 0, 64, 45
1, 161970, Control_c, 0, 64, 52
1, 161985, Control_c, 0, 64, 57
1, 162000, Control_c, 0, 64, 63
1, 162015, Control_c, 0, 64, 70
1, 162030, Control_c, 0, 64, 85
1, 162044, Control_c, 0, 64, 127
1, 162104, Note_on_c, 0, 62, 84
1, 162109, Note_off_c, 0, 61, 54
1, 162118, Control_c, 0, 64, 92
1, 162134, Control_c, 0, 64, 72
1, 162149, Control_c, 0, 64, 56
1, 162164, Control_c, 0, 64, 33
1, 162179, Control_c, 0, 64, 30
1, 162193, Control_c, 0, 64, 33
1, 162208, Control_c, 0, 64, 41
1, 162223, Control_c, 0, 64, 49
1, 162238, Control_c, 0, 64, 56
1, 162253, Control_c, 0, 64, 61
1, 162267, Control_c, 0, 64, 66
1, 162290, Control_c, 0, 64, 73
1, 162305, Control_c, 0, 64, 88
1, 162320, Control_c, 0, 64, 127
1, 162328, Note_off_c, 0, 62, 58
1, 162383, Note_on_c, 0, 63, 85
1, 162423, Control_c, 0, 64, 99
1, 162438, Control_c, 0, 64, 82
1, 162453, Control_c, 0, 64, 69
1, 162468, Control_c, 0, 64, 57
1, 162483, Control_c, 0, 64, 41
1, 162498, Control_c, 0, 64, 39
1, 162512, Control_c, 0, 64, 40
1, 162527, Control_c, 0, 64, 43
1, 162542, Control_c, 0, 64, 47
1, 162557, Control_c, 0, 64, 52
1, 162572, Control_c, 0, 64, 57
1, 162586, Control_c, 0, 64, 61
1, 162601, Control_c, 0, 64, 65
1, 162616, Control_c, 0, 64, 71
1, 162631, Control_c, 0, 64, 81
1, 162646, Control_c, 0, 64, 96
1, 162660, Control_c, 0, 64, 127
1, 162735, Note_off_c, 0, 63, 59
1, 162883, Note_on_c, 0, 54, 45
1, 162884, Note_on_c, 0, 48, 44
1, 162924, Note_on_c, 0, 64, 78
1, 162957, Note_on_c, 0, 58, 55
1, 163017, Control_c, 0, 64, 108
1, 163032, Control_c, 0, 64, 94
1, 163054, Control_c, 0, 64, 85
1, 163069, Control_c, 0, 64, 79
1, 163084, Control_c, 0, 64, 74
1, 163099, Control_c, 0, 64, 70
1, 163114, Control_c, 0, 64, 67
1, 163128, Control_c, 0, 64, 64
1, 163143, Control_c, 0, 64, 60
1, 163158, Control_c, 0, 64, 57
1, 163173, Control_c, 0, 64, 53
1, 163188, Control_c, 0, 64, 47
1, 163203, Control_c, 0, 64, 37
1, 163217, Control_c, 0, 64, 22
1, 163232, Control_c, 0, 64, 0
1, 163291, Control_c, 0, 64, 14
1, 163306, Control_c, 0, 64, 23
1, 163321, Control_c, 0, 64, 31
1, 163335, Control_c, 0, 64, 39
1, 163350, Control_c, 0, 64, 46
1, 163365, Control_c, 0, 64, 55
1, 163380, Control_c, 0, 64, 59
1, 163395, Control_c, 0, 64, 62
1, 163409, Control_c, 0, 64, 64
1, 163424, Control_c, 0, 64, 67
1, 163439, Control_c, 0, 64, 74
1, 163454, Control_c, 0, 64, 82
1, 163469, Control_c, 0, 64, 95
1, 163483, Control_c, 0, 64, 117
1, 163498, Control_c, 0, 64, 127
1, 163722, Note_off_c, 0, 58, 27
1, 163826, Note_off_c, 0, 48, 32
1, 163919, Note_off_c, 0, 54, 42
1, 164679, Note_on_c, 0, 72, 46
1, 164804, Note_off_c, 0, 64, 54
1, 164833, Control_c, 0, 64, 105
1, 164848, Control_c, 0, 64, 94
1, 164862, Control_c, 0, 64, 85
1, 164877, Control_c, 0, 64, 76
1, 164881, Note_on_c, 0, 29, 31
1, 164892, Control_c, 0, 64, 66
1, 164907, Control_c, 0, 64, 56
1, 164921, Control_c, 0, 64, 46
1, 164936, Control_c, 0, 64, 48
1, 164951, Control_c, 0, 64, 52
1, 164966, Control_c, 0, 64, 57
1, 164981, Control_c, 0, 64, 62
1, 164995, Control_c, 0, 64, 68
1, 165010, Control_c, 0, 64, 78
1, 165012, Note_off_c, 0, 29, 51
1, 165025, Control_c, 0, 64, 117
1, 165040, Control_c, 0, 64, 127
1, 165072, Note_on_c, 0, 41, 35
1, 165108, Note_off_c, 0, 41, 61
1, 165156, Note_off_c, 0, 72, 38
1, 165200, Note_on_c, 0, 48, 42
1, 165261, Note_off_c, 0, 48, 55
1, 165292, Note_on_c, 0, 53, 52
1, 165342, Note_off_c, 0, 53, 58
1, 165388, Note_on_c, 0, 57, 53
1, 165460, Note_off_c, 0, 57, 63
1, 165486, Note_on_c, 0, 65, 47
1, 165689, Note_off_c, 0, 65, 30
1, 165698, Note_on_c, 0, 72, 48
1, 165853, Note_off_c, 0, 72, 59
1, 166176, Note_on_c, 0, 69, 45
1, 166240, Note_off_c, 0, 69, 54
1, 166289, Note_on_c, 0, 65, 41
1, 166349, Note_off_c, 0, 65, 55
1, 166404, Note_on_c, 0, 59, 29
1, 166461, Note_off_c, 0, 59, 52
1, 166483, Note_on_c, 0, 48, 31
1, 166512, Note_on_c, 0, 60, 49
1, 166601, Note_off_c, 0, 60, 62
1, 166637, Note_on_c, 0, 57, 48
1, 166673, Note_off_c, 0, 57, 64
1, 166703, Note_on_c, 0, 60, 46
1, 166734, Note_off_c, 0, 60, 65
1, 166793, Note_on_c, 0, 62, 66
1, 166862, Note_on_c, 0, 64, 60
1, 166866, Note_off_c, 0, 62, 58
1, 166899, Note_off_c, 0, 64, 63
1, 166914, Note_on_c, 0, 65, 63
1, 166984, Note_off_c, 0, 65, 60
1, 166986, Note_on_c, 0, 64, 68
1, 166991, Note_on_c, 0, 57, 70
1, 166998, Note_off_c, 0, 48, 39
1, 167042, Note_off_c, 0, 64, 62
1, 167066, Note_on_c, 0, 60, 62
1, 167100, Note_off_c, 0, 60, 64
1, 167109, Note_on_c, 0, 64, 56
1, 167149, Note_off_c, 0, 64, 63
1, 167185, Note_on_c, 0, 65, 78
1, 167260, Note_on_c, 0, 67, 66
1, 167319, Note_on_c, 0, 69, 68
1, 167343, Note_off_c, 0, 67, 56
1, 167370, Note_off_c, 0, 69, 61
1, 167376, Control_c, 0, 64, 103
1, 167376, Note_on_c, 0, 58, 51
1, 167376, Note_on_c, 0, 61, 51
1, 167379, Note_on_c, 0, 72, 67
1, 167388, Note_off_c, 0, 57, 54
1, 167391, Control_c, 0, 64, 85
1, 167406, Control_c, 0, 64, 74
1, 167421, Control_c, 0, 64, 67
1, 167436, Control_c, 0, 64, 64
1, 167437, Note_off_c, 0, 65, 57
1, 167448, Note_on_c, 0, 70, 65
1, 167451, Control_c, 0, 64, 65
1, 167465, Control_c, 0, 64, 66
1, 167480, Control_c, 0, 64, 69
1, 167491, Note_off_c, 0, 72, 59
1, 167495, Control_c, 0, 64, 74
1, 167503, Note_off_c, 0, 61, 62
1, 167508, Note_on_c, 0, 69, 71
1, 167510, Control_c, 0, 64, 86
1, 167531, Control_c, 0, 64, 127
1, 167545, Note_off_c, 0, 58, 62
1, 167574, Note_off_c, 0, 70, 60
1, 167589, Note_on_c, 0, 67, 70
1, 167607, Note_off_c, 0, 69, 61
1, 167647, Note_off_c, 0, 67, 62
1, 167659, Note_on_c, 0, 65, 58
1, 167704, Note_off_c, 0, 65, 59
1, 167728, Note_on_c, 0, 64, 61
1, 167799, Note_off_c, 0, 64, 49
1, 167844, Control_c, 0, 64, 120
1, 167859, Control_c, 0, 64, 105
1, 167864, Note_on_c, 0, 29, 38
1, 167874, Control_c, 0, 64, 94
1, 167874, Note_on_c, 0, 41, 37
1, 167888, Control_c, 0, 64, 82
1, 167903, Control_c, 0, 64, 71
1, 167907, Note_on_c, 0, 69, 48
1, 167918, Control_c, 0, 64, 58
1, 167933, Control_c, 0, 64, 40
1, 167948, Control_c, 0, 64, 38
1, 167963, Poly_aftertouch_c, 0, 65, 127
1, 167977, Control_c, 0, 64, 40
1, 167992, Control_c, 0, 64, 46
1, 168006, Control_c, 0, 64, 55
1, 168021, Control_c, 0, 64, 62
1, 168036, Control_c, 0, 64, 68
1, 168051, Control_c, 0, 64, 77
1, 168056, Note_off_c, 0, 29, 40
1, 168062, Poly_aftertouch_c, 0, 65, 0
1, 168066, Control_c, 0, 64, 92
1, 168080, Control_c, 0, 64, 127
1, 168083, Note_off_c, 0, 69, 58
1, 168152, Note_off_c, 0, 41, 40
1, 168220, Note_on_c, 0, 69, 43
1, 168281, Note_off_c, 0, 69, 50
1, 168315, Note_on_c, 0, 65, 40
1, 168360, Note_off_c, 0, 65, 56
1, 168397, Note_on_c, 0, 59, 38
1, 168427, Note_off_c, 0, 59, 55
1, 168459, Note_on_c, 0, 60, 52
1, 168460, Note_on_c, 0, 48, 32
1, 168506, Note_off_c, 0, 60, 64
1, 168542, Note_on_c, 0, 57, 56
1, 168578, Note_off_c, 0, 57, 63
1, 168615, Note_on_c, 0, 60, 34
1, 168651, Note_off_c, 0, 60, 44
1, 168675, Note_on_c, 0, 62, 65
1, 168729, Note_off_c, 0, 62, 56
1, 168733, Note_on_c, 0, 64, 57
1, 168741, Note_off_c, 0, 48, 37
1, 168768, Note_off_c, 0, 64, 65
1, 168791, Note_on_c, 0, 65, 53
1, 168846, Note_on_c, 0, 64, 65
1, 168855, Note_off_c, 0, 65, 51
1, 168871, Note_on_c, 0, 57, 53
1, 168913, Note_off_c, 0, 64, 62
1, 168938, Note_on_c, 0, 60, 57
1, 168968, Note_off_c, 0, 60, 63
1, 168989, Note_on_c, 0, 64, 52
1, 169028, Note_off_c, 0, 64, 66
1, 169081, Note_on_c, 0, 65, 71
1, 169157, Note_on_c, 0, 67, 54
1, 169201, Note_off_c, 0, 67, 60
1, 169221, Note_on_c, 0, 69, 56
1, 169236, Control_c, 0, 64, 120
1, 169251, Control_c, 0, 64, 103
1, 169262, Note_off_c, 0, 57, 53
1, 169264, Note_off_c, 0, 69, 62
1, 169266, Control_c, 0, 64, 91
1, 169274, Note_on_c, 0, 61, 44
1, 169281, Control_c, 0, 64, 81
1, 169281, Note_on_c, 0, 58, 38
1, 169293, Note_on_c, 0, 72, 53
1, 169296, Control_c, 0, 64, 73
1, 169310, Control_c, 0, 64, 67
1, 169326, Control_c, 0, 64, 65
1, 169341, Control_c, 0, 64, 66
1, 169356, Control_c, 0, 64, 66
1, 169359, Note_on_c, 0, 70, 53
1, 169370, Control_c, 0, 64, 68
1, 169379, Note_off_c, 0, 65, 40
1, 169385, Control_c, 0, 64, 70
1, 169400, Note_off_c, 0, 58, 63
1, 169400, Control_c, 0, 64, 77
1, 169403, Note_off_c, 0, 61, 61
1, 169415, Control_c, 0, 64, 87
1, 169419, Note_off_c, 0, 72, 35
1, 169430, Control_c, 0, 64, 108
1, 169435, Note_on_c, 0, 69, 55
1, 169445, Control_c, 0, 64, 127
1, 169480, Note_off_c, 0, 70, 50
1, 169486, Note_off_c, 0, 69, 55
1, 169499, Note_on_c, 0, 67, 62
1, 169537, Note_off_c, 0, 67, 62
1, 169571, Note_on_c, 0, 65, 50
1, 169610, Note_off_c, 0, 65, 60
1, 169617, Note_on_c, 0, 41, 38
1, 169651, Note_on_c, 0, 64, 45
1, 169686, Note_off_c, 0, 41, 60
1, 169695, Note_off_c, 0, 64, 59
1, 169719, Note_on_c, 0, 48, 38
1, 169770, Control_c, 0, 64, 111
1, 169792, Control_c, 0, 64, 100
1, 169807, Control_c, 0, 64, 92
1, 169819, Note_on_c, 0, 57, 37
1, 169822, Control_c, 0, 64, 85
1, 169828, Note_on_c, 0, 69, 49
1, 169837, Control_c, 0, 64, 79
1, 169851, Control_c, 0, 64, 71
1, 169861, Note_on_c, 0, 65, 34
1, 169866, Control_c, 0, 64, 64
1, 169881, Control_c, 0, 64, 54
1, 169896, Control_c, 0, 64, 52
1, 169911, Control_c, 0, 64, 53
1, 169925, Control_c, 0, 64, 55
1, 169940, Control_c, 0, 64, 57
1, 169956, Control_c, 0, 64, 59
1, 169971, Control_c, 0, 64, 62
1, 169985, Control_c, 0, 64, 66
1, 170000, Control_c, 0, 64, 71
1, 170015, Control_c, 0, 64, 80
1, 170030, Control_c, 0, 64, 95
1, 170037, Note_off_c, 0, 48, 32
1, 170037, Note_off_c, 0, 65, 42
1, 170045, Control_c, 0, 64, 127
1, 170094, Note_off_c, 0, 69, 59
1, 170208, Note_on_c, 0, 65, 35
1, 170244, Note_off_c, 0, 57, 39
1, 170292, Note_off_c, 0, 65, 49
1, 170307, Note_on_c, 0, 69, 39
1, 170347, Note_off_c, 0, 69, 61
1, 170368, Note_on_c, 0, 70, 53
1, 170442, Note_off_c, 0, 70, 53
1, 170451, Note_on_c, 0, 69, 57
1, 170498, Note_off_c, 0, 69, 56
1, 170513, Note_on_c, 0, 65, 50
1, 170551, Note_off_c, 0, 65, 63
1, 170575, Note_on_c, 0, 64, 54
1, 170621, Note_off_c, 0, 64, 57
1, 170634, Note_on_c, 0, 65, 60
1, 170682, Note_off_c, 0, 65, 54
1, 170688, Note_on_c, 0, 69, 62
1, 170732, Note_off_c, 0, 69, 60
1, 170750, Note_on_c, 0, 70, 63
1, 170813, Note_on_c, 0, 69, 64
1, 170831, Note_off_c, 0, 70, 58
1, 170868, Note_on_c, 0, 65, 58
1, 170882, Note_off_c, 0, 69, 61
1, 170901, Note_off_c, 0, 65, 65
1, 170918, Note_on_c, 0, 64, 62
1, 170975, Note_on_c, 0, 65, 64
1, 170984, Note_off_c, 0, 64, 59
1, 171030, Control_c, 0, 67, 17
1, 171033, Note_on_c, 0, 69, 58
1, 171044, Note_off_c, 0, 65, 61
1, 171045, Control_c, 0, 67, 27
1, 171060, Control_c, 0, 67, 37
1, 171075, Control_c, 0, 67, 49
1, 171086, Note_off_c, 0, 69, 62
1, 171090, Control_c, 0, 67, 63
1, 171095, Note_on_c, 0, 70, 65
1, 171104, Control_c, 0, 67, 77
1, 171119, Control_c, 0, 67, 94
1, 171134, Control_c, 0, 67, 109
1, 171149, Control_c, 0, 67, 124
1, 171164, Control_c, 0, 67, 127
1, 171169, Note_on_c, 0, 69, 59
1, 171198, Note_off_c, 0, 70, 54
1, 171227, Note_on_c, 0, 65, 59
1, 171244, Note_off_c, 0, 69, 59
1, 171263, Note_off_c, 0, 65, 64
1, 171293, Note_on_c, 0, 64, 53
1, 171357, Note_on_c, 0, 65, 59
1, 171359, Note_off_c, 0, 64, 54
1, 171411, Note_on_c, 0, 69, 60
1, 171411, Note_off_c, 0, 65, 52
1, 171461, Note_off_c, 0, 69, 58
1, 171475, Note_on_c, 0, 70, 64
1, 171589, Note_on_c, 0, 61, 75
1, 171594, Note_on_c, 0, 69, 55
1, 171647, Note_off_c, 0, 70, 34
1, 171684, Note_off_c, 0, 69, 58
1, 171689, Note_on_c, 0, 65, 45
1, 171727, Note_off_c, 0, 65, 63
1, 171768, Note_on_c, 0, 64, 44
1, 171826, Note_off_c, 0, 64, 54
1, 171831, Note_on_c, 0, 65, 48
1, 171904, Note_off_c, 0, 65, 51
1, 171914, Note_on_c, 0, 69, 49
1, 171959, Note_off_c, 0, 69, 61
1, 171979, Note_on_c, 0, 70, 53
1, 172074, Note_on_c, 0, 69, 53
1, 172078, Note_off_c, 0, 70, 50
1, 172131, Note_on_c, 0, 65, 47
1, 172132, Note_off_c, 0, 69, 56
1, 172170, Note_off_c, 0, 65, 62
1, 172207, Note_on_c, 0, 64, 42
1, 172253, Note_off_c, 0, 64, 57
1, 172280, Note_on_c, 0, 65, 51
1, 172329, Note_off_c, 0, 65, 58
1, 172353, Note_on_c, 0, 69, 41
1, 172392, Note_off_c, 0, 69, 60
1, 172420, Note_on_c, 0, 70, 48
1, 172500, Note_on_c, 0, 69, 48
1, 172548, Note_off_c, 0, 69, 58
1, 172548, Note_off_c, 0, 70, 35
1, 172569, Note_on_c, 0, 65, 39
1, 172606, Note_off_c, 0, 65, 60
1, 172637, Note_on_c, 0, 64, 39
1, 172706, Note_off_c, 0, 64, 52
1, 172736, Note_on_c, 0, 65, 36
1, 172775, Note_off_c, 0, 65, 53
1, 172810, Note_on_c, 0, 69, 37
1, 172849, Note_off_c, 0, 69, 60
1, 172882, Note_on_c, 0, 70, 44
1, 172953, Note_off_c, 0, 70, 48
1, 172965, Note_on_c, 0, 69, 43
1, 173019, Note_off_c, 0, 69, 56
1, 173053, Note_on_c, 0, 65, 41
1, 173096, Note_off_c, 0, 65, 59
1, 173141, Note_on_c, 0, 64, 35
1, 173199, Note_off_c, 0, 61, 48
1, 173216, Note_off_c, 0, 64, 47
1, 173231, Note_on_c, 0, 65, 32
1, 173411, Note_on_c, 0, 69, 30
1, 173420, Note_off_c, 0, 65, 39
1, 173618, Note_on_c, 0, 70, 36
1, 173702, Note_off_c, 0, 69, 36
1, 173861, Note_off_c, 0, 70, 37
1, 173995, Control_c, 0, 64, 119
1, 174010, Control_c, 0, 64, 110
1, 174024, Control_c, 0, 64, 104
1, 174039, Control_c, 0, 64, 99
1, 174054, Control_c, 0, 64, 96
1, 174069, Control_c, 0, 64, 94
1, 174084, Control_c, 0, 64, 92
1, 174098, Control_c, 0, 64, 89
1, 174113, Control_c, 0, 64, 86
1, 174129, Control_c, 0, 64, 83
1, 174144, Control_c, 0, 64, 82
1, 174147, Note_on_c, 0, 34, 33
1, 174159, Control_c, 0, 64, 80
1, 174174, Control_c, 0, 64, 78
1, 174189, Control_c, 0, 64, 76
1, 174203, Control_c, 0, 64, 74
1, 174218, Control_c, 0, 64, 72
1, 174233, Control_c, 0, 64, 71
1, 174247, Control_c, 0, 64, 68
1, 174262, Control_c, 0, 64, 64
1, 174285, Control_c, 0, 64, 59
1, 174300, Control_c, 0, 64, 53
1, 174315, Control_c, 0, 64, 50
1, 174344, Control_c, 0, 64, 51
1, 174359, Control_c, 0, 64, 53
1, 174374, Control_c, 0, 64, 56
1, 174389, Control_c, 0, 64, 60
1, 174403, Control_c, 0, 64, 64
1, 174418, Control_c, 0, 64, 68
1, 174433, Control_c, 0, 64, 76
1, 174448, Control_c, 0, 64, 86
1, 174463, Control_c, 0, 64, 101
1, 174478, Control_c, 0, 64, 127
1, 174480, Note_off_c, 0, 34, 41
1, 174681, Note_on_c, 0, 73, 45
1, 174805, Note_on_c, 0, 70, 35
1, 174852, Note_off_c, 0, 73, 28
1, 174867, Note_off_c, 0, 70, 47
1, 174913, Note_on_c, 0, 64, 27
1, 174949, Note_off_c, 0, 64, 54
1, 175004, Note_on_c, 0, 53, 32
1, 175047, Note_on_c, 0, 65, 47
1, 175140, Note_off_c, 0, 65, 60
1, 175178, Note_on_c, 0, 61, 39
1, 175209, Note_off_c, 0, 61, 60
1, 175269, Note_on_c, 0, 65, 11
1, 175323, Note_off_c, 0, 65, 50
1, 175326, Note_on_c, 0, 67, 59
1, 175379, Note_off_c, 0, 67, 48
1, 175422, Note_on_c, 0, 69, 50
1, 175454, Note_off_c, 0, 69, 64
1, 175503, Note_on_c, 0, 70, 49
1, 175547, Note_on_c, 0, 69, 65
1, 175553, Note_off_c, 0, 70, 58
1, 175559, Note_on_c, 0, 58, 38
1, 175559, Note_on_c, 0, 61, 43
1, 175611, Note_off_c, 0, 69, 62
1, 175623, Note_off_c, 0, 53, 38
1, 175651, Note_on_c, 0, 65, 48
1, 175690, Note_off_c, 0, 65, 62
1, 175714, Note_on_c, 0, 69, 57
1, 175767, Note_off_c, 0, 69, 55
1, 175773, Note_on_c, 0, 70, 75
1, 175822, Note_off_c, 0, 70, 63
1, 175869, Note_on_c, 0, 72, 55
1, 175901, Note_off_c, 0, 72, 57
1, 175944, Note_on_c, 0, 73, 46
1, 175969, Note_off_c, 0, 73, 59
1, 176006, Note_on_c, 0, 77, 54
1, 176008, Note_on_c, 0, 53, 40
1, 176059, Note_off_c, 0, 61, 32
1, 176062, Note_off_c, 0, 77, 52
1, 176075, Note_on_c, 0, 75, 53
1, 176094, Note_off_c, 0, 58, 38
1, 176155, Note_on_c, 0, 73, 50
1, 176156, Note_off_c, 0, 75, 45
1, 176168, Note_off_c, 0, 53, 36
1, 176207, Note_off_c, 0, 73, 62
1, 176227, Note_on_c, 0, 72, 71
1, 176276, Note_off_c, 0, 72, 63
1, 176320, Note_on_c, 0, 70, 59
1, 176358, Note_off_c, 0, 70, 64
1, 176404, Note_on_c, 0, 67, 54
1, 176461, Note_off_c, 0, 67, 55
1, 176469, Note_on_c, 0, 34, 43
1, 176479, Control_c, 0, 64, 95
1, 176486, Note_on_c, 0, 69, 59
1, 176493, Control_c, 0, 64, 78
1, 176516, Control_c, 0, 64, 67
1, 176531, Control_c, 0, 64, 60
1, 176534, Note_off_c, 0, 69, 61
1, 176546, Control_c, 0, 64, 60
1, 176561, Control_c, 0, 64, 62
1, 176570, Note_on_c, 0, 70, 52
1, 176576, Control_c, 0, 64, 63
1, 176590, Control_c, 0, 64, 65
1, 176600, Note_off_c, 0, 70, 66
1, 176605, Control_c, 0, 64, 70
1, 176620, Control_c, 0, 64, 80
1, 176635, Control_c, 0, 64, 105
1, 176646, Note_on_c, 0, 72, 56
1, 176650, Control_c, 0, 64, 127
1, 176678, Note_off_c, 0, 34, 41
1, 176700, Note_off_c, 0, 72, 52
1, 176714, Note_on_c, 0, 73, 72
1, 176780, Note_off_c, 0, 73, 63
1, 176790, Note_on_c, 0, 75, 66
1, 176823, Note_off_c, 0, 75, 63
1, 176857, Note_on_c, 0, 77, 67
1, 176912, Note_on_c, 0, 75, 79
1, 176919, Note_on_c, 0, 53, 57
1, 176927, Note_off_c, 0, 77, 59
1, 176980, Note_on_c, 0, 70, 69
1, 176985, Note_off_c, 0, 75, 58
1, 177009, Note_off_c, 0, 53, 59
1, 177018, Note_off_c, 0, 70, 61
1, 177053, Note_on_c, 0, 73, 59
1, 177082, Note_off_c, 0, 73, 65
1, 177107, Note_on_c, 0, 76, 84
1, 177180, Note_off_c, 0, 76, 63
1, 177183, Note_on_c, 0, 77, 77
1, 177225, Note_off_c, 0, 77, 57
1, 177253, Note_on_c, 0, 78, 55
1, 177312, Note_off_c, 0, 78, 61
1, 177315, Note_on_c, 0, 61, 52
1, 177315, Note_on_c, 0, 77, 89
1, 177318, Note_on_c, 0, 70, 52
1, 177386, Note_off_c, 0, 77, 64
1, 177404, Note_on_c, 0, 73, 71
1, 177440, Note_off_c, 0, 70, 54
1, 177444, Note_off_c, 0, 73, 60
1, 177464, Note_on_c, 0, 77, 63
1, 177535, Note_on_c, 0, 78, 88
1, 177547, Note_off_c, 0, 77, 59
1, 177609, Note_off_c, 0, 78, 64
1, 177622, Note_on_c, 0, 81, 69
1, 177679, Note_off_c, 0, 81, 60
1, 177691, Note_on_c, 0, 82, 64
1, 177753, Note_off_c, 0, 82, 61
1, 177766, Note_on_c, 0, 53, 45
1, 177773, Note_on_c, 0, 85, 61
1, 177857, Note_off_c, 0, 61, 28
1, 177857, Note_on_c, 0, 82, 60
1, 177872, Note_off_c, 0, 85, 51
1, 177932, Note_on_c, 0, 78, 56
1, 177932, Note_off_c, 0, 82, 57
1, 177947, Note_off_c, 0, 53, 60
1, 178023, Note_off_c, 0, 78, 64
1, 178045, Note_on_c, 0, 77, 73
1, 178150, Note_on_c, 0, 75, 48
1, 178170, Note_off_c, 0, 77, 38
1, 178236, Note_on_c, 0, 73, 42
1, 178256, Note_off_c, 0, 75, 49
1, 178356, Control_c, 0, 64, 113
1, 178368, Note_on_c, 0, 34, 54
1, 178370, Control_c, 0, 64, 106
1, 178385, Note_off_c, 0, 73, 34
1, 178385, Control_c, 0, 64, 102
1, 178400, Control_c, 0, 64, 94
1, 178415, Control_c, 0, 64, 84
1, 178430, Control_c, 0, 64, 72
1, 178444, Control_c, 0, 64, 63
1, 178459, Control_c, 0, 64, 55
1, 178474, Control_c, 0, 64, 53
1, 178504, Control_c, 0, 64, 55
1, 178519, Control_c, 0, 64, 59
1, 178534, Control_c, 0, 64, 64
1, 178549, Control_c, 0, 64, 70
1, 178563, Control_c, 0, 64, 83
1, 178578, Control_c, 0, 64, 127
1, 178579, Note_off_c, 0, 34, 59
1, 178686, Note_on_c, 0, 75, 49
1, 178731, Note_off_c, 0, 75, 61
1, 178775, Note_on_c, 0, 77, 51
1, 178832, Note_off_c, 0, 77, 54
1, 178836, Note_on_c, 0, 75, 63
1, 178889, Note_on_c, 0, 73, 60
1, 178894, Note_on_c, 0, 54, 43
1, 178939, Note_off_c, 0, 75, 54
1, 178963, Note_on_c, 0, 70, 56
1, 178966, Note_off_c, 0, 73, 62
1, 178987, Note_off_c, 0, 54, 53
1, 178990, Note_off_c, 0, 70, 65
1, 179029, Note_on_c, 0, 69, 55
1, 179072, Note_off_c, 0, 69, 61
1, 179076, Note_on_c, 0, 72, 78
1, 179136, Note_off_c, 0, 72, 63
1, 179144, Note_on_c, 0, 73, 67
1, 179172, Note_off_c, 0, 73, 68
1, 179217, Note_on_c, 0, 74, 70
1, 179246, Note_on_c, 0, 69, 43
1, 179248, Note_on_c, 0, 57, 48
1, 179249, Note_off_c, 0, 74, 63
1, 179255, Note_on_c, 0, 63, 40
1, 179258, Note_on_c, 0, 75, 77
1, 179323, Note_off_c, 0, 75, 61
1, 179340, Note_off_c, 0, 69, 50
1, 179341, Note_on_c, 0, 74, 68
1, 179375, Note_off_c, 0, 74, 62
1, 179390, Note_on_c, 0, 75, 65
1, 179435, Note_off_c, 0, 75, 58
1, 179482, Note_on_c, 0, 77, 81
1, 179517, Note_off_c, 0, 63, 31
1, 179566, Note_on_c, 0, 78, 66
1, 179610, Note_off_c, 0, 78, 55
1, 179614, Note_on_c, 0, 81, 64
1, 179672, Note_off_c, 0, 81, 65
1, 179673, Note_off_c, 0, 77, 50
1, 179675, Note_on_c, 0, 54, 44
1, 179685, Note_on_c, 0, 82, 66
1, 179759, Note_on_c, 0, 81, 58
1, 179767, Note_off_c, 0, 82, 57
1, 179786, Note_off_c, 0, 57, 42
1, 179818, Note_off_c, 0, 54, 56
1, 179818, Note_off_c, 0, 81, 61
1, 179824, Note_on_c, 0, 78, 61
1, 179876, Note_off_c, 0, 78, 62
1, 179896, Note_on_c, 0, 75, 69
1, 180003, Note_on_c, 0, 73, 50
1, 180028, Note_off_c, 0, 75, 36
1, 180058, Note_on_c, 0, 72, 49
1, 180059, Note_off_c, 0, 73, 52
1, 180125, Note_off_c, 0, 72, 56
1, 180170, Note_on_c, 0, 34, 50
1, 180179, Control_c, 0, 64, 125
1, 180194, Control_c, 0, 64, 103
1, 180208, Control_c, 0, 64, 90
1, 180223, Control_c, 0, 64, 81
1, 180238, Control_c, 0, 64, 72
1, 180260, Control_c, 0, 64, 66
1, 180275, Control_c, 0, 64, 60
1, 180289, Control_c, 0, 64, 57
1, 180304, Control_c, 0, 64, 56
1, 180319, Control_c, 0, 64, 57
1, 180334, Control_c, 0, 64, 60
1, 180349, Control_c, 0, 64, 62
1, 180364, Control_c, 0, 64, 65
1, 180379, Control_c, 0, 64, 71
1, 180394, Control_c, 0, 64, 84
1, 180400, Note_off_c, 0, 34, 60
1, 180408, Control_c, 0, 64, 110
1, 180423, Control_c, 0, 64, 127
1, 180448, Note_on_c, 0, 73, 53
1, 180492, Note_off_c, 0, 73, 60
1, 180528, Note_on_c, 0, 75, 58
1, 180597, Note_on_c, 0, 73, 59
1, 180638, Note_on_c, 0, 72, 67
1, 180640, Note_off_c, 0, 75, 55
1, 180658, Note_on_c, 0, 54, 44
1, 180699, Note_off_c, 0, 73, 47
1, 180710, Note_on_c, 0, 69, 60
1, 180728, Note_off_c, 0, 72, 63
1, 180744, Note_off_c, 0, 69, 66
1, 180778, Note_on_c, 0, 66, 45
1, 180805, Note_off_c, 0, 66, 55
1, 180823, Note_on_c, 0, 70, 74
1, 180876, Note_off_c, 0, 70, 61
1, 180908, Note_on_c, 0, 71, 58
1, 180957, Note_off_c, 0, 71, 56
1, 180975, Note_on_c, 0, 72, 54
1, 181024, Note_off_c, 0, 72, 61
1, 181037, Note_on_c, 0, 73, 69
1, 181038, Control_c, 0, 64, 112
1, 181049, Note_on_c, 0, 63, 37
1, 181050, Note_on_c, 0, 57, 45
1, 181053, Control_c, 0, 64, 93
1, 181068, Control_c, 0, 64, 81
1, 181082, Control_c, 0, 64, 73
1, 181097, Control_c, 0, 64, 68
1, 181103, Note_off_c, 0, 73, 62
1, 181112, Control_c, 0, 64, 66
1, 181127, Control_c, 0, 64, 67
1, 181130, Note_off_c, 0, 54, 32
1, 181139, Note_on_c, 0, 72, 52
1, 181142, Control_c, 0, 64, 68
1, 181157, Control_c, 0, 64, 70
1, 181172, Control_c, 0, 64, 72
1, 181183, Note_off_c, 0, 72, 59
1, 181185, Control_c, 0, 64, 77
1, 181200, Control_c, 0, 64, 84
1, 181215, Control_c, 0, 64, 95
1, 181223, Note_on_c, 0, 73, 52
1, 181229, Control_c, 0, 64, 127
1, 181254, Note_off_c, 0, 73, 52
1, 181274, Note_on_c, 0, 75, 68
1, 181324, Note_off_c, 0, 75, 60
1, 181368, Note_on_c, 0, 77, 51
1, 181398, Note_off_c, 0, 77, 50
1, 181467, Control_c, 0, 64, 125
1, 181482, Control_c, 0, 64, 110
1, 181495, Note_on_c, 0, 53, 43
1, 181497, Control_c, 0, 64, 100
1, 181512, Control_c, 0, 64, 95
1, 181527, Control_c, 0, 64, 94
1, 181541, Control_c, 0, 64, 93
1, 181562, Poly_aftertouch_c, 0, 81, 127
1, 181571, Control_c, 0, 64, 94
1, 181586, Control_c, 0, 64, 95
1, 181592, Note_on_c, 0, 77, 52
1, 181601, Control_c, 0, 64, 96
1, 181603, Poly_aftertouch_c, 0, 81, 0
1, 181616, Control_c, 0, 64, 99
1, 181624, Note_off_c, 0, 63, 40
1, 181631, Control_c, 0, 64, 101
1, 181646, Control_c, 0, 64, 103
1, 181660, Control_c, 0, 64, 106
1, 181664, Note_off_c, 0, 77, 53
1, 181673, Note_on_c, 0, 75, 50
1, 181675, Note_off_c, 0, 57, 37
1, 181675, Control_c, 0, 64, 108
1, 181690, Control_c, 0, 64, 110
1, 181704, Control_c, 0, 64, 111
1, 181719, Control_c, 0, 64, 112
1, 181729, Note_off_c, 0, 75, 57
1, 181734, Note_off_c, 0, 53, 41
1, 181734, Control_c, 0, 64, 113
1, 181743, Note_on_c, 0, 73, 62
1, 181749, Control_c, 0, 64, 115
1, 181771, Control_c, 0, 64, 116
1, 181786, Control_c, 0, 64, 119
1, 181801, Control_c, 0, 64, 120
1, 181813, Note_off_c, 0, 73, 60
1, 181853, Note_on_c, 0, 72, 46
1, 181934, Note_off_c, 0, 72, 54
1, 181965, Control_c, 0, 64, 119
1, 181976, Note_on_c, 0, 69, 43
1, 181980, Control_c, 0, 64, 116
1, 181994, Control_c, 0, 64, 114
1, 182009, Control_c, 0, 64, 111
1, 182024, Control_c, 0, 64, 109
1, 182038, Control_c, 0, 64, 107
1, 182053, Control_c, 0, 64, 104
1, 182068, Control_c, 0, 64, 101
1, 182083, Control_c, 0, 64, 98
1, 182098, Control_c, 0, 64, 96
1, 182114, Control_c, 0, 64, 94
1, 182128, Control_c, 0, 64, 92
1, 182141, Note_on_c, 0, 34, 42
1, 182143, Control_c, 0, 64, 90
1, 182150, Note_off_c, 0, 69, 34
1, 182158, Control_c, 0, 64, 86
1, 182173, Control_c, 0, 64, 83
1, 182188, Control_c, 0, 64, 80
1, 182202, Control_c, 0, 64, 77
1, 182217, Control_c, 0, 64, 73
1, 182232, Control_c, 0, 64, 69
1, 182247, Control_c, 0, 64, 63
1, 182262, Control_c, 0, 64, 57
1, 182276, Control_c, 0, 64, 56
1, 182306, Control_c, 0, 64, 57
1, 182321, Control_c, 0, 64, 59
1, 182335, Control_c, 0, 64, 61
1, 182350, Control_c, 0, 64, 64
1, 182365, Control_c, 0, 64, 67
1, 182380, Control_c, 0, 64, 71
1, 182395, Control_c, 0, 64, 79
1, 182403, Note_off_c, 0, 34, 46
1, 182409, Control_c, 0, 64, 88
1, 182424, Control_c, 0, 64, 100
1, 182439, Control_c, 0, 64, 127
1, 182456, Note_on_c, 0, 72, 41
1, 182525, Note_off_c, 0, 72, 60
1, 182557, Note_on_c, 0, 73, 51
1, 182609, Note_off_c, 0, 73, 52
1, 182626, Note_on_c, 0, 72, 47
1, 182704, Note_on_c, 0, 70, 61
1, 182724, Note_off_c, 0, 72, 52
1, 182774, Note_on_c, 0, 53, 34
1, 182777, Note_off_c, 0, 70, 59
1, 182789, Note_on_c, 0, 64, 55
1, 182824, Note_off_c, 0, 64, 63
1, 182861, Note_on_c, 0, 65, 38
1, 182893, Note_off_c, 0, 65, 51
1, 182919, Note_on_c, 0, 67, 73
1, 182991, Note_off_c, 0, 67, 59
1, 182997, Note_on_c, 0, 70, 63
1, 183040, Note_off_c, 0, 70, 59
1, 183062, Note_on_c, 0, 73, 65
1, 183103, Note_on_c, 0, 65, 43
1, 183107, Note_on_c, 0, 61, 47
1, 183115, Note_on_c, 0, 69, 80
1, 183137, Note_off_c, 0, 73, 60
1, 183175, Note_off_c, 0, 69, 61
1, 183203, Note_on_c, 0, 67, 62
1, 183248, Note_off_c, 0, 67, 60
1, 183262, Note_on_c, 0, 69, 59
1, 183273, Note_off_c, 0, 53, 39
1, 183324, Note_on_c, 0, 70, 84
1, 183330, Note_off_c, 0, 69, 62
1, 183339, Note_off_c, 0, 65, 36
1, 183378, Note_off_c, 0, 70, 65
1, 183411, Note_on_c, 0, 72, 72
1, 183463, Note_off_c, 0, 72, 57
1, 183481, Note_on_c, 0, 73, 70
1, 183525, Note_off_c, 0, 73, 58
1, 183545, Note_on_c, 0, 53, 53
1, 183549, Note_on_c, 0, 77, 69
1, 183586, Note_off_c, 0, 61, 37
1, 183612, Note_on_c, 0, 75, 68
1, 183642, Note_off_c, 0, 77, 59
1, 183649, Note_off_c, 0, 53, 63
1, 183669, Note_on_c, 0, 73, 66
1, 183721, Note_off_c, 0, 75, 60
1, 183747, Note_off_c, 0, 73, 65
1, 183762, Note_on_c, 0, 72, 83
1, 183806, Note_off_c, 0, 72, 65
1, 183846, Note_on_c, 0, 70, 69
1, 183893, Note_off_c, 0, 70, 60
1, 183924, Note_on_c, 0, 67, 61
1, 184004, Note_on_c, 0, 34, 59
1, 184009, Note_off_c, 0, 67, 57
1, 184025, Note_on_c, 0, 69, 64
1, 184063, Control_c, 0, 64, 97
1, 184069, Note_off_c, 0, 69, 56
1, 184078, Control_c, 0, 64, 83
1, 184093, Control_c, 0, 64, 73
1, 184094, Note_on_c, 0, 70, 62
1, 184107, Control_c, 0, 64, 68
1, 184122, Control_c, 0, 64, 67
1, 184123, Note_off_c, 0, 70, 67
1, 184137, Control_c, 0, 64, 68
1, 184152, Control_c, 0, 64, 69
1, 184163, Note_on_c, 0, 72, 69
1, 184167, Control_c, 0, 64, 72
1, 184181, Control_c, 0, 64, 79
1, 184196, Control_c, 0, 64, 93
1, 184205, Note_off_c, 0, 34, 59
1, 184211, Control_c, 0, 64, 127
1, 184221, Note_off_c, 0, 72, 42
1, 184228, Note_on_c, 0, 73, 80
1, 184292, Note_off_c, 0, 73, 64
1, 184293, Note_on_c, 0, 75, 78
1, 184347, Note_off_c, 0, 75, 63
1, 184354, Note_on_c, 0, 77, 76
1, 184412, Note_on_c, 0, 75, 79
1, 184430, Note_on_c, 0, 53, 70
1, 184433, Note_off_c, 0, 77, 60
1, 184490, Note_on_c, 0, 70, 77
1, 184515, Note_off_c, 0, 75, 52
1, 184533, Note_off_c, 0, 53, 55
1, 184537, Note_off_c, 0, 70, 63
1, 184540, Note_on_c, 0, 73, 74
1, 184577, Note_off_c, 0, 73, 62
1, 184611, Note_on_c, 0, 76, 93
1, 184683, Note_on_c, 0, 77, 87
1, 184688, Note_off_c, 0, 76, 61
1, 184731, Note_off_c, 0, 77, 65
1, 184742, Note_on_c, 0, 78, 77
1, 184809, Note_on_c, 0, 77, 90
1, 184810, Note_off_c, 0, 78, 63
1, 184811, Note_on_c, 0, 70, 66
1, 184815, Note_on_c, 0, 61, 61
1, 184880, Note_off_c, 0, 77, 63
1, 184896, Note_on_c, 0, 73, 80
1, 184939, Note_off_c, 0, 70, 54
1, 184946, Note_off_c, 0, 73, 64
1, 184961, Note_on_c, 0, 77, 73
1, 185040, Note_on_c, 0, 78, 91
1, 185072, Note_off_c, 0, 77, 61
1, 185117, Note_on_c, 0, 81, 79
1, 185119, Note_off_c, 0, 78, 64
1, 185193, Note_on_c, 0, 82, 77
1, 185197, Note_off_c, 0, 81, 63
1, 185255, Note_on_c, 0, 53, 60
1, 185258, Note_off_c, 0, 82, 63
1, 185261, Note_on_c, 0, 85, 75
1, 185342, Note_on_c, 0, 82, 70
1, 185355, Note_off_c, 0, 61, 32
1, 185378, Note_off_c, 0, 85, 59
1, 185403, Note_on_c, 0, 78, 73
1, 185437, Note_off_c, 0, 82, 59
1, 185451, Note_off_c, 0, 53, 61
1, 185490, Note_on_c, 0, 77, 84
1, 185491, Note_off_c, 0, 78, 64
1, 185591, Note_on_c, 0, 75, 69
1, 185631, Note_off_c, 0, 77, 57
1, 185679, Note_on_c, 0, 73, 67
1, 185730, Note_off_c, 0, 75, 59
1, 185819, Note_on_c, 0, 37, 76
1, 185825, Note_off_c, 0, 73, 59
1, 185871, Control_c, 0, 64, 112
1, 185886, Control_c, 0, 64, 98
1, 185901, Control_c, 0, 64, 87
1, 185916, Control_c, 0, 64, 77
1, 185931, Control_c, 0, 64, 66
1, 185945, Control_c, 0, 64, 55
1, 185960, Control_c, 0, 64, 42
1, 185975, Control_c, 0, 64, 41
1, 185990, Control_c, 0, 64, 42
1, 186005, Control_c, 0, 64, 47
1, 186019, Control_c, 0, 64, 55
1, 186034, Control_c, 0, 64, 63
1, 186049, Control_c, 0, 64, 70
1, 186064, Control_c, 0, 64, 90
1, 186078, Control_c, 0, 64, 127
1, 186097, Note_off_c, 0, 37, 57
1, 186152, Note_on_c, 0, 75, 61
1, 186224, Note_off_c, 0, 75, 61
1, 186234, Note_on_c, 0, 77, 70
1, 186311, Note_on_c, 0, 75, 68
1, 186329, Note_off_c, 0, 77, 62
1, 186367, Note_on_c, 0, 73, 78
1, 186382, Note_on_c, 0, 56, 58
1, 186416, Note_off_c, 0, 75, 55
1, 186439, Note_on_c, 0, 72, 69
1, 186452, Note_off_c, 0, 73, 62
1, 186475, Note_off_c, 0, 72, 64
1, 186488, Note_on_c, 0, 70, 74
1, 186527, Note_off_c, 0, 56, 55
1, 186547, Note_on_c, 0, 72, 77
1, 186558, Note_off_c, 0, 70, 61
1, 186605, Note_on_c, 0, 73, 84
1, 186617, Note_off_c, 0, 72, 64
1, 186654, Note_off_c, 0, 73, 65
1, 186684, Note_on_c, 0, 74, 73
1, 186721, Note_off_c, 0, 74, 51
1, 186738, Note_on_c, 0, 75, 86
1, 186740, Note_on_c, 0, 70, 57
1, 186743, Note_on_c, 0, 60, 52
1, 186746, Note_on_c, 0, 66, 55
1, 186803, Note_off_c, 0, 75, 61
1, 186820, Note_on_c, 0, 74, 73
1, 186864, Note_on_c, 0, 75, 65
1, 186865, Note_off_c, 0, 74, 59
1, 186901, Note_off_c, 0, 70, 38
1, 186922, Note_off_c, 0, 75, 62
1, 186958, Note_on_c, 0, 77, 88
1, 187037, Note_on_c, 0, 78, 79
1, 187076, Note_off_c, 0, 66, 34
1, 187098, Note_on_c, 0, 80, 69
1, 187127, Note_off_c, 0, 78, 60
1, 187130, Poly_aftertouch_c, 0, 62, 127
1, 187156, Note_off_c, 0, 80, 62
1, 187164, Note_on_c, 0, 82, 64
1, 187181, Note_on_c, 0, 56, 49
1, 187190, Poly_aftertouch_c, 0, 62, 0
1, 187209, Note_off_c, 0, 77, 57
1, 187240, Note_on_c, 0, 80, 62
1, 187277, Note_off_c, 0, 82, 58
1, 187289, Note_off_c, 0, 60, 29
1, 187319, Note_on_c, 0, 78, 58
1, 187333, Note_off_c, 0, 80, 63
1, 187347, Note_off_c, 0, 56, 58
1, 187384, Note_off_c, 0, 78, 64
1, 187406, Note_on_c, 0, 75, 72
1, 187503, Note_on_c, 0, 73, 62
1, 187527, Note_off_c, 0, 75, 56
1, 187599, Note_off_c, 0, 73, 55
1, 187664, Poly_aftertouch_c, 0, 72, 127
1, 187680, Control_c, 0, 64, 120
1, 187696, Control_c, 0, 64, 104
1, 187699, Poly_aftertouch_c, 0, 72, 0
1, 187704, Note_on_c, 0, 37, 53
1, 187711, Control_c, 0, 64, 98
1, 187726, Control_c, 0, 64, 95
1, 187748, Control_c, 0, 64, 91
1, 187763, Control_c, 0, 64, 87
1, 187778, Control_c, 0, 64, 81
1, 187792, Control_c, 0, 64, 74
1, 187807, Control_c, 0, 64, 67
1, 187822, Control_c, 0, 64, 61
1, 187837, Control_c, 0, 64, 56
1, 187852, Control_c, 0, 64, 55
1, 187867, Control_c, 0, 64, 56
1, 187882, Control_c, 0, 64, 58
1, 187897, Control_c, 0, 64, 61
1, 187911, Control_c, 0, 64, 64
1, 187926, Control_c, 0, 64, 69
1, 187941, Control_c, 0, 64, 83
1, 187946, Note_off_c, 0, 37, 57
1, 187955, Control_c, 0, 64, 113
1, 187970, Control_c, 0, 64, 127
1, 188003, Note_on_c, 0, 73, 48
1, 188041, Note_off_c, 0, 73, 64
1, 188068, Note_on_c, 0, 75, 53
1, 188133, Note_on_c, 0, 73, 63
1, 188192, Note_off_c, 0, 75, 55
1, 188199, Note_on_c, 0, 72, 69
1, 188208, Note_on_c, 0, 56, 42
1, 188244, Note_off_c, 0, 73, 60
1, 188265, Note_on_c, 0, 70, 67
1, 188281, Note_off_c, 0, 72, 63
1, 188310, Note_off_c, 0, 70, 61
1, 188319, Note_off_c, 0, 56, 56
1, 188331, Note_on_c, 0, 68, 65
1, 188364, Note_off_c, 0, 68, 62
1, 188383, Note_on_c, 0, 70, 67
1, 188419, Note_off_c, 0, 70, 61
1, 188460, Note_on_c, 0, 71, 57
1, 188518, Note_off_c, 0, 71, 56
1, 188530, Note_on_c, 0, 72, 62
1, 188586, Note_off_c, 0, 72, 61
1, 188588, Note_on_c, 0, 67, 44
1, 188588, Note_on_c, 0, 64, 46
1, 188591, Note_on_c, 0, 73, 73
1, 188600, Control_c, 0, 64, 115
1, 188615, Control_c, 0, 64, 96
1, 188630, Control_c, 0, 64, 84
1, 188645, Control_c, 0, 64, 77
1, 188648, Note_off_c, 0, 73, 62
1, 188660, Control_c, 0, 64, 74
1, 188675, Control_c, 0, 64, 75
1, 188678, Note_on_c, 0, 72, 51
1, 188690, Control_c, 0, 64, 77
1, 188705, Control_c, 0, 64, 79
1, 188719, Control_c, 0, 64, 83
1, 188734, Control_c, 0, 64, 90
1, 188740, Note_off_c, 0, 72, 57
1, 188746, Note_off_c, 0, 67, 50
1, 188749, Control_c, 0, 64, 100
1, 188764, Note_on_c, 0, 73, 50
1, 188764, Control_c, 0, 64, 127
1, 188806, Note_off_c, 0, 73, 57
1, 188816, Note_on_c, 0, 75, 72
1, 188866, Note_off_c, 0, 75, 61
1, 188912, Note_on_c, 0, 76, 54
1, 188961, Note_off_c, 0, 76, 59
1, 188987, Note_on_c, 0, 79, 50
1, 189035, Note_off_c, 0, 79, 61
1, 189053, Note_on_c, 0, 80, 55
1, 189057, Note_on_c, 0, 65, 40
1, 189063, Note_on_c, 0, 68, 35
1, 189073, Note_off_c, 0, 64, 35
1, 189092, Note_off_c, 0, 80, 62
1, 189148, Note_on_c, 0, 77, 52
1, 189198, Note_off_c, 0, 77, 55
1, 189229, Note_off_c, 0, 68, 42
1, 189238, Note_off_c, 0, 65, 50
1, 189271, Note_on_c, 0, 75, 43
1, 189351, Note_off_c, 0, 75, 56
1, 189363, Note_on_c, 0, 73, 54
1, 189431, Note_off_c, 0, 73, 64
1, 189477, Note_on_c, 0, 70, 43
1, 189547, Note_off_c, 0, 70, 47
1, 189619, Note_on_c, 0, 68, 36
1, 189749, Control_c, 0, 64, 120
1, 189764, Control_c, 0, 64, 114
1, 189779, Control_c, 0, 64, 109
1, 189793, Control_c, 0, 64, 105
1, 189808, Control_c, 0, 64, 101
1, 189823, Control_c, 0, 64, 98
1, 189825, Note_off_c, 0, 68, 36
1, 189838, Control_c, 0, 64, 93
1, 189853, Control_c, 0, 64, 89
1, 189857, Note_on_c, 0, 37, 35
1, 189867, Control_c, 0, 64, 85
1, 189882, Control_c, 0, 64, 81
1, 189897, Control_c, 0, 64, 77
1, 189912, Control_c, 0, 64, 73
1, 189927, Control_c, 0, 64, 68
1, 189942, Control_c, 0, 64, 62
1, 189957, Control_c, 0, 64, 57
1, 189971, Control_c, 0, 64, 56
1, 190008, Control_c, 0, 64, 56
1, 190023, Control_c, 0, 64, 58
1, 190038, Control_c, 0, 64, 61
1, 190053, Control_c, 0, 64, 63
1, 190068, Control_c, 0, 64, 66
1, 190082, Control_c, 0, 64, 74
1, 190098, Control_c, 0, 64, 85
1, 190113, Control_c, 0, 64, 102
1, 190114, Note_off_c, 0, 37, 41
1, 190128, Control_c, 0, 64, 127
1, 190226, Note_on_c, 0, 77, 54
1, 190336, Note_off_c, 0, 77, 56
1, 190365, Note_on_c, 0, 73, 31
1, 190414, Note_off_c, 0, 73, 45
1, 190429, Note_on_c, 0, 67, 27
1, 190505, Note_off_c, 0, 67, 40
1, 190524, Note_on_c, 0, 56, 33
1, 190566, Note_on_c, 0, 68, 45
1, 190616, Note_off_c, 0, 68, 60
1, 190652, Note_on_c, 0, 65, 51
1, 190699, Note_off_c, 0, 65, 59
1, 190764, Note_on_c, 0, 68, 27
1, 190798, Note_on_c, 0, 70, 60
1, 190798, Note_off_c, 0, 68, 45
1, 190827, Note_off_c, 0, 70, 67
1, 190869, Note_on_c, 0, 72, 55
1, 190906, Note_off_c, 0, 72, 59
1, 190932, Note_on_c, 0, 73, 63
1, 190978, Note_off_c, 0, 73, 58
1, 190982, Note_on_c, 0, 65, 45
1, 190988, Note_on_c, 0, 72, 65
1, 190998, Note_on_c, 0, 61, 42
1, 191020, Note_off_c, 0, 72, 62
1, 191042, Note_off_c, 0, 56, 37
1, 191056, Note_on_c, 0, 68, 61
1, 191117, Note_off_c, 0, 68, 58
1, 191129, Note_on_c, 0, 72, 60
1, 191191, Note_on_c, 0, 73, 72
1, 191216, Note_off_c, 0, 65, 31
1, 191228, Note_off_c, 0, 72, 57
1, 191256, Note_on_c, 0, 75, 58
1, 191267, Note_off_c, 0, 73, 64
1, 191285, Note_off_c, 0, 75, 64
1, 191332, Note_on_c, 0, 77, 63
1, 191387, Note_off_c, 0, 77, 45
1, 191388, Note_on_c, 0, 80, 73
1, 191393, Note_on_c, 0, 56, 48
1, 191453, Note_off_c, 0, 61, 37
1, 191461, Note_on_c, 0, 78, 70
1, 191467, Note_off_c, 0, 80, 59
1, 191524, Note_off_c, 0, 56, 61
1, 191527, Note_off_c, 0, 78, 64
1, 191531, Note_on_c, 0, 77, 77
1, 191603, Note_on_c, 0, 75, 82
1, 191608, Note_off_c, 0, 77, 59
1, 191671, Note_on_c, 0, 73, 70
1, 191688, Note_off_c, 0, 75, 60
1, 191715, Note_off_c, 0, 73, 62
1, 191741, Note_on_c, 0, 72, 65
1, 191810, Note_on_c, 0, 35, 65
1, 191820, Note_off_c, 0, 72, 62
1, 191832, Note_on_c, 0, 73, 68
1, 191876, Control_c, 0, 64, 92
1, 191891, Control_c, 0, 64, 78
1, 191897, Note_off_c, 0, 73, 61
1, 191903, Note_on_c, 0, 75, 68
1, 191906, Control_c, 0, 64, 68
1, 191921, Control_c, 0, 64, 63
1, 191938, Note_off_c, 0, 75, 62
1, 191950, Control_c, 0, 64, 64
1, 191963, Note_on_c, 0, 76, 71
1, 191965, Control_c, 0, 64, 66
1, 191980, Control_c, 0, 64, 70
1, 191994, Control_c, 0, 64, 80
1, 192009, Control_c, 0, 64, 108
1, 192010, Note_off_c, 0, 35, 61
1, 192010, Note_off_c, 0, 76, 59
1, 192018, Note_on_c, 0, 77, 83
1, 192024, Control_c, 0, 64, 127
1, 192070, Note_off_c, 0, 77, 62
1, 192085, Note_on_c, 0, 76, 78
1, 192148, Note_off_c, 0, 76, 63
1, 192150, Note_on_c, 0, 77, 83
1, 192207, Note_on_c, 0, 78, 79
1, 192216, Note_on_c, 0, 56, 75
1, 192227, Note_off_c, 0, 77, 63
1, 192267, Note_on_c, 0, 80, 80
1, 192298, Note_off_c, 0, 78, 63
1, 192335, Note_on_c, 0, 82, 88
1, 192337, Note_off_c, 0, 80, 65
1, 192405, Note_on_c, 0, 80, 83
1, 192445, Note_off_c, 0, 82, 60
1, 192470, Note_on_c, 0, 78, 90
1, 192504, Note_off_c, 0, 80, 63
1, 192543, Note_off_c, 0, 78, 64
1, 192544, Note_on_c, 0, 77, 93
1, 192611, Note_on_c, 0, 65, 68
1, 192630, Note_on_c, 0, 61, 56
1, 192662, Note_on_c, 0, 82, 82
1, 192665, Note_off_c, 0, 77, 60
1, 192705, Note_off_c, 0, 56, 55
1, 192742, Note_off_c, 0, 82, 64
1, 192753, Note_on_c, 0, 83, 83
1, 192817, Note_on_c, 0, 82, 88
1, 192828, Note_off_c, 0, 83, 59
1, 192878, Note_off_c, 0, 82, 65
1, 192886, Note_on_c, 0, 80, 86
1, 192945, Note_on_c, 0, 82, 76
1, 192952, Note_off_c, 0, 80, 63
1, 193003, Note_on_c, 0, 83, 79
1, 193017, Note_off_c, 0, 82, 60
1, 193053, Note_off_c, 0, 65, 49
1, 193059, Note_off_c, 0, 83, 64
1, 193065, Note_on_c, 0, 89, 81
1, 193069, Note_on_c, 0, 56, 64
1, 193119, Note_off_c, 0, 61, 58
1, 193134, Note_on_c, 0, 82, 79
1, 193135, Note_off_c, 0, 89, 60
1, 193155, Note_off_c, 0, 56, 63
1, 193199, Note_on_c, 0, 80, 77
1, 193206, Note_off_c, 0, 82, 64
1, 193249, Note_off_c, 0, 80, 64
1, 193264, Note_on_c, 0, 78, 80
1, 193307, Note_off_c, 0, 78, 53
1, 193346, Note_on_c, 0, 80, 74
1, 193406, Note_off_c, 0, 80, 62
1, 193432, Note_on_c, 0, 78, 45
1, 193456, Note_off_c, 0, 78, 55
1, 193494, Note_on_c, 0, 34, 52
1, 193537, Control_c, 0, 64, 100
1, 193549, Note_on_c, 0, 77, 58
1, 193552, Control_c, 0, 64, 77
1, 193566, Control_c, 0, 64, 63
1, 193581, Control_c, 0, 64, 46
1, 193596, Control_c, 0, 64, 42
1, 193611, Control_c, 0, 64, 47
1, 193626, Control_c, 0, 64, 53
1, 193631, Note_on_c, 0, 75, 61
1, 193641, Control_c, 0, 64, 61
1, 193656, Control_c, 0, 64, 68
1, 193671, Control_c, 0, 64, 78
1, 193677, Note_off_c, 0, 77, 58
1, 193686, Control_c, 0, 64, 104
1, 193696, Note_off_c, 0, 34, 59
1, 193701, Control_c, 0, 64, 127
1, 193701, Note_on_c, 0, 74, 62
1, 193722, Note_off_c, 0, 75, 56
1, 193749, Note_off_c, 0, 74, 61
1, 193793, Note_on_c, 0, 70, 57
1, 193817, Note_off_c, 0, 70, 64
1, 193868, Note_on_c, 0, 68, 64
1, 193921, Note_off_c, 0, 68, 50
1, 193941, Note_on_c, 0, 67, 52
1, 193972, Note_on_c, 0, 56, 44
1, 193985, Note_on_c, 0, 68, 43
1, 193990, Note_off_c, 0, 67, 58
1, 194044, Note_off_c, 0, 68, 63
1, 194062, Note_on_c, 0, 65, 59
1, 194095, Note_off_c, 0, 65, 65
1, 194121, Note_on_c, 0, 68, 64
1, 194148, Note_off_c, 0, 68, 68
1, 194186, Note_on_c, 0, 69, 83
1, 194252, Note_off_c, 0, 69, 60
1, 194258, Note_on_c, 0, 70, 72
1, 194290, Note_off_c, 0, 70, 64
1, 194314, Note_on_c, 0, 71, 73
1, 194349, Note_on_c, 0, 65, 61
1, 194350, Note_off_c, 0, 56, 53
1, 194352, Note_on_c, 0, 62, 61
1, 194372, Note_on_c, 0, 70, 86
1, 194382, Note_off_c, 0, 71, 61
1, 194424, Note_off_c, 0, 70, 63
1, 194443, Note_on_c, 0, 69, 80
1, 194497, Note_off_c, 0, 69, 62
1, 194503, Note_on_c, 0, 70, 77
1, 194527, Note_off_c, 0, 70, 70
1, 194574, Note_on_c, 0, 72, 89
1, 194648, Note_on_c, 0, 73, 84
1, 194663, Note_off_c, 0, 72, 55
1, 194687, Note_off_c, 0, 65, 60
1, 194699, Note_on_c, 0, 78, 76
1, 194711, Note_off_c, 0, 73, 62
1, 194749, Note_on_c, 0, 56, 73
1, 194756, Note_on_c, 0, 80, 81
1, 194764, Note_off_c, 0, 78, 65
1, 194770, Note_off_c, 0, 62, 60
1, 194827, Note_on_c, 0, 77, 83
1, 194833, Note_off_c, 0, 56, 63
1, 194854, Note_off_c, 0, 80, 63
1, 194894, Note_on_c, 0, 75, 82
1, 194927, Note_off_c, 0, 77, 62
1, 194953, Note_on_c, 0, 74, 85
1, 194973, Note_off_c, 0, 75, 63
1, 195004, Note_off_c, 0, 74, 61
1, 195025, Note_on_c, 0, 71, 78
1, 195094, Note_off_c, 0, 71, 61
1, 195102, Note_on_c, 0, 70, 72
1, 195136, Note_off_c, 0, 70, 63
1, 195152, Note_on_c, 0, 38, 72
1, 195173, Note_on_c, 0, 72, 72
1, 195212, Control_c, 0, 64, 83
1, 195235, Control_c, 0, 64, 65
1, 195250, Note_off_c, 0, 72, 64
1, 195250, Control_c, 0, 64, 49
1, 195251, Note_on_c, 0, 74, 77
1, 195265, Control_c, 0, 64, 43
1, 195280, Control_c, 0, 64, 49
1, 195294, Control_c, 0, 64, 58
1, 195307, Note_on_c, 0, 75, 75
1, 195309, Control_c, 0, 64, 66
1, 195310, Note_off_c, 0, 74, 63
1, 195324, Control_c, 0, 64, 79
1, 195339, Control_c, 0, 64, 127
1, 195354, Note_off_c, 0, 38, 62
1, 195361, Note_off_c, 0, 75, 60
1, 195366, Note_on_c, 0, 76, 83
1, 195411, Note_off_c, 0, 76, 61
1, 195421, Note_on_c, 0, 75, 78
1, 195474, Note_off_c, 0, 75, 60
1, 195485, Note_on_c, 0, 76, 86
1, 195534, Note_off_c, 0, 76, 61
1, 195541, Note_on_c, 0, 77, 90
1, 195543, Note_on_c, 0, 58, 73
1, 195572, Note_on_c, 0, 56, 50
1, 195600, Note_off_c, 0, 77, 62
1, 195602, Note_off_c, 0, 56, 61
1, 195607, Note_on_c, 0, 76, 84
1, 195675, Note_on_c, 0, 77, 93
1, 195683, Note_off_c, 0, 76, 63
1, 195731, Note_on_c, 0, 78, 89
1, 195775, Note_off_c, 0, 77, 61
1, 195796, Note_on_c, 0, 80, 89
1, 195829, Note_off_c, 0, 78, 64
1, 195864, Note_off_c, 0, 80, 64
1, 195870, Note_on_c, 0, 81, 87
1, 195936, Note_on_c, 0, 68, 66
1, 195945, Note_on_c, 0, 65, 62
1, 195991, Note_on_c, 0, 82, 86
1, 196009, Note_off_c, 0, 81, 65
1, 196076, Note_off_c, 0, 58, 52
1, 196084, Note_off_c, 0, 82, 64
1, 196093, Note_on_c, 0, 83, 77
1, 196154, Note_off_c, 0, 68, 58
1, 196156, Note_on_c, 0, 82, 86
1, 196202, Note_off_c, 0, 83, 60
1, 196216, Note_on_c, 0, 80, 75
1, 196256, Note_off_c, 0, 82, 63
1, 196281, Note_on_c, 0, 71, 70
1, 196283, Note_off_c, 0, 80, 64
1, 196331, Poly_aftertouch_c, 0, 81, 0
1, 196356, Note_on_c, 0, 70, 83
1, 196376, Note_off_c, 0, 71, 48
1, 196394, Note_on_c, 0, 58, 59
1, 196419, Note_on_c, 0, 78, 80
1, 196432, Note_off_c, 0, 70, 63
1, 196463, Note_off_c, 0, 65, 51
1, 196491, Note_on_c, 0, 80, 79
1, 196491, Note_off_c, 0, 78, 64
1, 196561, Note_off_c, 0, 58, 60
1, 196577, Note_on_c, 0, 77, 70
1, 196649, Note_on_c, 0, 76, 59
1, 196669, Note_off_c, 0, 80, 56
1, 196687, Note_off_c, 0, 76, 47
1, 196697, Note_off_c, 0, 77, 61
1, 196717, Note_on_c, 0, 70, 59
1, 196801, Note_on_c, 0, 68, 68
1, 196801, Note_off_c, 0, 70, 55
1, 196864, Note_off_c, 0, 68, 61
1, 196937, Note_on_c, 0, 39, 43
1, 196984, Control_c, 0, 64, 117
1, 196999, Control_c, 0, 64, 89
1, 197014, Control_c, 0, 64, 73
1, 197017, Note_on_c, 0, 78, 60
1, 197029, Control_c, 0, 64, 61
1, 197036, Note_on_c, 0, 66, 40
1, 197044, Control_c, 0, 64, 25
1, 197058, Control_c, 0, 64, 0
1, 197147, Control_c, 0, 64, 50
1, 197162, Control_c, 0, 64, 64
1, 197177, Control_c, 0, 64, 73
1, 197191, Control_c, 0, 64, 97
1, 197201, Note_off_c, 0, 39, 49
1, 197206, Control_c, 0, 64, 127
1, 197218, Note_off_c, 0, 78, 61
1, 197221, Note_off_c, 0, 66, 56
1, 197351, Note_on_c, 0, 78, 54
1, 197402, Note_on_c, 0, 75, 50
1, 197405, Note_off_c, 0, 78, 53
1, 197491, Note_on_c, 0, 69, 46
1, 197526, Note_off_c, 0, 69, 65
1, 197537, Note_off_c, 0, 75, 48
1, 197547, Note_on_c, 0, 58, 38
1, 197556, Control_c, 0, 67, 122
1, 197567, Note_on_c, 0, 70, 59
1, 197570, Control_c, 0, 67, 114
1, 197585, Control_c, 0, 67, 107
1, 197600, Control_c, 0, 67, 99
1, 197615, Control_c, 0, 67, 94
1, 197629, Control_c, 0, 67, 89
1, 197631, Note_off_c, 0, 70, 63
1, 197644, Control_c, 0, 67, 82
1, 197659, Control_c, 0, 67, 75
1, 197672, Note_on_c, 0, 66, 36
1, 197674, Control_c, 0, 67, 67
1, 197689, Control_c, 0, 67, 59
1, 197704, Note_off_c, 0, 66, 52
1, 197704, Control_c, 0, 67, 49
1, 197711, Note_on_c, 0, 70, 42
1, 197719, Control_c, 0, 67, 41
1, 197734, Control_c, 0, 67, 32
1, 197740, Note_off_c, 0, 70, 66
1, 197749, Control_c, 0, 67, 25
1, 197763, Control_c, 0, 67, 17
1, 197778, Control_c, 0, 67, 10
1, 197779, Note_on_c, 0, 72, 66
1, 197793, Control_c, 0, 67, 0
1, 197835, Note_off_c, 0, 72, 62
1, 197847, Note_on_c, 0, 74, 65
1, 197885, Note_off_c, 0, 74, 61
1, 197925, Note_on_c, 0, 75, 58
1, 197956, Note_on_c, 0, 66, 46
1, 197965, Note_off_c, 0, 75, 61
1, 197966, Note_on_c, 0, 63, 46
1, 197972, Note_on_c, 0, 74, 77
1, 198026, Note_off_c, 0, 74, 63
1, 198028, Note_off_c, 0, 58, 37
1, 198053, Note_on_c, 0, 70, 65
1, 198085, Note_off_c, 0, 70, 65
1, 198115, Note_on_c, 0, 74, 63
1, 198179, Note_on_c, 0, 75, 80
1, 198182, Note_off_c, 0, 74, 61
1, 198220, Note_off_c, 0, 75, 60
1, 198246, Note_off_c, 0, 66, 35
1, 198261, Note_on_c, 0, 77, 78
1, 198321, Note_off_c, 0, 77, 59
1, 198332, Note_on_c, 0, 78, 74
1, 198384, Note_off_c, 0, 78, 61
1, 198385, Note_on_c, 0, 58, 66
1, 198388, Note_off_c, 0, 63, 58
1, 198390, Note_on_c, 0, 82, 75
1, 198446, Note_off_c, 0, 58, 60
1, 198446, Note_on_c, 0, 80, 72
1, 198502, Note_off_c, 0, 82, 55
1, 198515, Note_on_c, 0, 78, 75
1, 198556, Note_off_c, 0, 80, 63
1, 198574, Note_off_c, 0, 78, 64
1, 198580, Note_on_c, 0, 77, 84
1, 198625, Note_off_c, 0, 77, 65
1, 198666, Note_on_c, 0, 75, 73
1, 198714, Note_off_c, 0, 75, 51
1, 198739, Note_on_c, 0, 70, 72
1, 198807, Note_on_c, 0, 44, 71
1, 198820, Note_on_c, 0, 32, 61
1, 198822, Note_off_c, 0, 70, 61
1, 198847, Note_on_c, 0, 72, 58
1, 198852, Control_c, 0, 64, 115
1, 198867, Control_c, 0, 64, 85
1, 198883, Control_c, 0, 64, 68
1, 198898, Control_c, 0, 64, 57
1, 198912, Note_off_c, 0, 72, 64
1, 198913, Control_c, 0, 64, 52
1, 198927, Control_c, 0, 64, 54
1, 198937, Note_on_c, 0, 70, 64
1, 198942, Control_c, 0, 64, 57
1, 198957, Control_c, 0, 64, 61
1, 198980, Control_c, 0, 64, 65
1, 198995, Control_c, 0, 64, 75
1, 198999, Note_off_c, 0, 32, 59
1, 199009, Control_c, 0, 64, 104
1, 199017, Note_off_c, 0, 70, 60
1, 199023, Note_on_c, 0, 72, 64
1, 199024, Control_c, 0, 64, 127
1, 199075, Note_off_c, 0, 72, 62
1, 199084, Note_on_c, 0, 78, 69
1, 199084, Note_off_c, 0, 44, 63
1, 199144, Note_off_c, 0, 78, 64
1, 199153, Note_on_c, 0, 82, 69
1, 199221, Note_on_c, 0, 78, 62
1, 199242, Note_off_c, 0, 82, 63
1, 199269, Note_on_c, 0, 54, 66
1, 199278, Note_on_c, 0, 77, 76
1, 199312, Note_off_c, 0, 78, 62
1, 199351, Note_on_c, 0, 75, 77
1, 199360, Note_off_c, 0, 77, 62
1, 199402, Note_off_c, 0, 75, 61
1, 199419, Note_on_c, 0, 72, 68
1, 199460, Note_on_c, 0, 75, 76
1, 199475, Note_off_c, 0, 72, 63
1, 199516, Note_off_c, 0, 75, 63
1, 199529, Note_on_c, 0, 78, 72
1, 199591, Note_on_c, 0, 75, 69
1, 199634, Note_off_c, 0, 78, 55
1, 199658, Note_on_c, 0, 63, 52
1, 199659, Note_on_c, 0, 66, 59
1, 199661, Note_on_c, 0, 73, 73
1, 199681, Note_off_c, 0, 75, 59
1, 199717, Note_off_c, 0, 73, 63
1, 199748, Note_on_c, 0, 72, 69
1, 199791, Note_off_c, 0, 72, 52
1, 199814, Note_on_c, 0, 70, 69
1, 199820, Note_off_c, 0, 54, 32
1, 199844, Note_off_c, 0, 70, 66
1, 199874, Note_on_c, 0, 72, 76
1, 199925, Note_on_c, 0, 75, 78
1, 199927, Note_off_c, 0, 72, 64
1, 199984, Note_off_c, 0, 75, 62
1, 199987, Note_on_c, 0, 73, 82
1, 199992, Note_off_c, 0, 66, 56
1, 200035, Note_off_c, 0, 73, 64
1, 200053, Note_on_c, 0, 77, 85
1, 200062, Note_on_c, 0, 54, 75
1, 200106, Note_off_c, 0, 63, 57
1, 200107, Note_off_c, 0, 77, 61
1, 200121, Note_on_c, 0, 75, 84
1, 200178, Note_on_c, 0, 78, 89
1, 200181, Note_off_c, 0, 75, 62
1, 200186, Note_off_c, 0, 54, 62
1, 200223, Note_off_c, 0, 78, 67
1, 200247, Note_on_c, 0, 77, 87
1, 200310, Note_on_c, 0, 78, 92
1, 200319, Note_off_c, 0, 77, 61
1, 200381, Note_on_c, 0, 82, 93
1, 200390, Note_off_c, 0, 78, 64
1, 200511, Note_on_c, 0, 41, 71
1, 200522, Note_on_c, 0, 29, 61
1, 200562, Note_on_c, 0, 80, 88
1, 200566, Control_c, 0, 64, 98
1, 200580, Control_c, 0, 64, 72
1, 200581, Note_on_c, 0, 77, 73
1, 200595, Control_c, 0, 64, 48
1, 200598, Note_off_c, 0, 82, 61
1, 200610, Control_c, 0, 64, 0
1, 200670, Control_c, 0, 64, 23
1, 200685, Control_c, 0, 64, 50
1, 200699, Control_c, 0, 64, 66
1, 200714, Control_c, 0, 64, 83
1, 200715, Note_off_c, 0, 29, 60
1, 200716, Note_off_c, 0, 77, 59
1, 200727, Note_off_c, 0, 80, 65
1, 200729, Control_c, 0, 64, 127
1, 200798, Note_off_c, 0, 41, 61
1, 200885, Note_on_c, 0, 80, 67
1, 200947, Note_on_c, 0, 77, 72
1, 200973, Note_off_c, 0, 80, 60
1, 201018, Note_on_c, 0, 71, 64
1, 201037, Note_off_c, 0, 77, 61
1, 201050, Note_off_c, 0, 71, 62
1, 201072, Note_on_c, 0, 72, 72
1, 201090, Note_on_c, 0, 60, 66
1, 201096, Note_on_c, 0, 48, 64
1, 201149, Note_off_c, 0, 72, 63
1, 201157, Note_on_c, 0, 68, 69
1, 201181, Note_off_c, 0, 48, 59
1, 201187, Note_off_c, 0, 68, 64
1, 201216, Note_on_c, 0, 72, 51
1, 201216, Note_off_c, 0, 60, 64
1, 201249, Note_off_c, 0, 72, 67
1, 201281, Note_on_c, 0, 74, 93
1, 201350, Note_off_c, 0, 74, 55
1, 201364, Note_on_c, 0, 76, 78
1, 201399, Note_off_c, 0, 76, 62
1, 201405, Note_on_c, 0, 77, 69
1, 201464, Note_on_c, 0, 76, 92
1, 201473, Note_on_c, 0, 68, 82
1, 201477, Note_on_c, 0, 65, 71
1, 201483, Note_off_c, 0, 77, 61
1, 201486, Note_on_c, 0, 56, 64
1, 201532, Note_off_c, 0, 76, 65
1, 201543, Note_on_c, 0, 72, 81
1, 201564, Note_off_c, 0, 68, 60
1, 201591, Note_off_c, 0, 65, 60
1, 201596, Note_off_c, 0, 72, 60
1, 201600, Note_on_c, 0, 76, 69
1, 201612, Note_off_c, 0, 56, 62
1, 201629, Note_off_c, 0, 76, 67
1, 201672, Note_on_c, 0, 77, 99
1, 201752, Note_on_c, 0, 79, 85
1, 201800, Note_off_c, 0, 77, 58
1, 201803, Note_on_c, 0, 80, 78
1, 201832, Note_off_c, 0, 79, 63
1, 201856, Note_off_c, 0, 80, 64
1, 201860, Note_on_c, 0, 84, 83
1, 201872, Note_on_c, 0, 60, 96
1, 201878, Note_on_c, 0, 48, 82
1, 201930, Note_on_c, 0, 82, 83
1, 201952, Note_off_c, 0, 60, 62
1, 201976, Note_off_c, 0, 84, 65
1, 202001, Note_on_c, 0, 80, 84
1, 202015, Note_off_c, 0, 48, 64
1, 202049, Note_off_c, 0, 82, 60
1, 202065, Note_on_c, 0, 79, 92
1, 202097, Note_off_c, 0, 80, 63
1, 202138, Note_off_c, 0, 79, 65
1, 202139, Note_on_c, 0, 77, 85
1, 202186, Note_off_c, 0, 77, 64
1, 202206, Note_on_c, 0, 72, 89
1, 202291, Note_on_c, 0, 74, 84
1, 202299, Note_off_c, 0, 72, 61
1, 202310, Note_on_c, 0, 46, 94
1, 202321, Note_on_c, 0, 34, 80
1, 202358, Control_c, 0, 64, 98
1, 202373, Control_c, 0, 64, 69
1, 202374, Note_off_c, 0, 74, 62
1, 202388, Control_c, 0, 64, 47
1, 202390, Note_on_c, 0, 71, 79
1, 202402, Control_c, 0, 64, 11
1, 202417, Control_c, 0, 64, 14
1, 202432, Control_c, 0, 64, 31
1, 202447, Control_c, 0, 64, 48
1, 202462, Control_c, 0, 64, 61
1, 202470, Note_on_c, 0, 74, 86
1, 202476, Note_off_c, 0, 71, 63
1, 202476, Control_c, 0, 64, 71
1, 202491, Control_c, 0, 64, 98
1, 202494, Note_off_c, 0, 34, 61
1, 202506, Control_c, 0, 64, 127
1, 202542, Note_on_c, 0, 80, 84
1, 202556, Note_off_c, 0, 74, 61
1, 202560, Note_off_c, 0, 46, 63
1, 202599, Note_on_c, 0, 83, 81
1, 202609, Note_off_c, 0, 80, 63
1, 202666, Note_on_c, 0, 80, 77
1, 202703, Note_off_c, 0, 83, 65
1, 202734, Note_on_c, 0, 56, 92
1, 202742, Note_on_c, 0, 78, 84
1, 202807, Note_on_c, 0, 77, 86
1, 202810, Note_off_c, 0, 80, 59
1, 202834, Note_off_c, 0, 78, 63
1, 202866, Note_on_c, 0, 74, 81
1, 202869, Note_off_c, 0, 77, 65
1, 202940, Note_on_c, 0, 77, 89
1, 202943, Note_off_c, 0, 74, 65
1, 202995, Note_on_c, 0, 80, 86
1, 202997, Note_off_c, 0, 77, 65
1, 203067, Note_on_c, 0, 77, 83
1, 203108, Note_off_c, 0, 80, 57
1, 203142, Note_on_c, 0, 75, 79
1, 203147, Note_on_c, 0, 68, 81
1, 203147, Note_on_c, 0, 65, 71
1, 203154, Note_off_c, 0, 77, 61
1, 203201, Note_off_c, 0, 75, 62
1, 203213, Note_on_c, 0, 74, 79
1, 203220, Note_off_c, 0, 56, 59
1, 203281, Note_on_c, 0, 72, 82
1, 203283, Note_off_c, 0, 74, 61
1, 203334, Note_off_c, 0, 72, 62
1, 203342, Note_on_c, 0, 74, 84
1, 203393, Note_off_c, 0, 68, 60
1, 203409, Note_on_c, 0, 77, 92
1, 203415, Note_off_c, 0, 74, 63
1, 203477, Note_on_c, 0, 75, 88
1, 203478, Note_off_c, 0, 77, 65
1, 203511, Note_off_c, 0, 65, 56
1, 203531, Note_on_c, 0, 78, 85
1, 203543, Note_on_c, 0, 56, 96
1, 203544, Note_off_c, 0, 75, 62
1, 203562, Note_off_c, 0, 78, 65
1, 203597, Note_on_c, 0, 77, 92
1, 203639, Note_off_c, 0, 56, 61
1, 203668, Note_on_c, 0, 80, 94
1, 203678, Note_off_c, 0, 77, 63
1, 203742, Note_off_c, 0, 80, 64
1, 203751, Note_on_c, 0, 79, 84
1, 203768, Note_on_c, 0, 78, 54
1, 203792, Note_off_c, 0, 78, 37
1, 203818, Note_on_c, 0, 81, 67
1, 203818, Note_off_c, 0, 79, 63
1, 203847, Note_on_c, 0, 80, 17
1, 203875, Note_on_c, 0, 83, 91
1, 203882, Note_on_c, 0, 84, 84
1, 203886, Note_off_c, 0, 80, 29
1, 203887, Note_off_c, 0, 81, 65
1, 203900, Note_off_c, 0, 84, 59
1, 203966, Note_off_c, 0, 83, 63
1, 204016, Note_on_c, 0, 42, 95
1, 204023, Note_on_c, 0, 30, 87
1, 204027, Note_on_c, 0, 82, 97
1, 204034, Note_on_c, 0, 70, 93
1, 204036, Note_on_c, 0, 78, 90
1, 204063, Control_c, 0, 64, 80
1, 204078, Control_c, 0, 64, 49
1, 204093, Control_c, 0, 64, 0
1, 204182, Control_c, 0, 64, 60
1, 204196, Control_c, 0, 64, 80
1, 204197, Note_off_c, 0, 30, 61
1, 204211, Note_off_c, 0, 82, 58
1, 204211, Control_c, 0, 64, 127
1, 204236, Note_off_c, 0, 78, 61
1, 204278, Note_off_c, 0, 42, 61
1, 204307, Note_off_c, 0, 70, 57
1, 204391, Note_on_c, 0, 70, 61
1, 204454, Note_off_c, 0, 70, 64
1, 204466, Note_on_c, 0, 68, 66
1, 204528, Note_off_c, 0, 68, 60
1, 204547, Note_on_c, 0, 70, 66
1, 204601, Note_off_c, 0, 70, 62
1, 204602, Note_on_c, 0, 58, 79
1, 204614, Note_on_c, 0, 49, 62
1, 204629, Note_on_c, 0, 72, 65
1, 204703, Note_on_c, 0, 73, 79
1, 204704, Note_off_c, 0, 72, 63
1, 204756, Note_off_c, 0, 49, 61
1, 204758, Note_off_c, 0, 73, 64
1, 204769, Note_on_c, 0, 75, 81
1, 204778, Note_off_c, 0, 58, 63
1, 204834, Note_on_c, 0, 73, 85
1, 204852, Note_off_c, 0, 75, 61
1, 204894, Note_off_c, 0, 73, 65
1, 204900, Note_on_c, 0, 72, 79
1, 204974, Note_on_c, 0, 73, 83
1, 204983, Note_off_c, 0, 72, 62
1, 205010, Note_on_c, 0, 70, 94
1, 205017, Note_on_c, 0, 58, 83
1, 205017, Note_on_c, 0, 66, 81
1, 205029, Note_on_c, 0, 75, 80
1, 205058, Note_off_c, 0, 73, 63
1, 205088, Note_on_c, 0, 77, 78
1, 205094, Note_off_c, 0, 70, 64
1, 205124, Note_off_c, 0, 75, 61
1, 205147, Note_on_c, 0, 78, 87
1, 205152, Note_off_c, 0, 58, 62
1, 205152, Note_off_c, 0, 66, 61
1, 205152, Note_off_c, 0, 77, 67
1, 205228, Note_on_c, 0, 77, 86
1, 205249, Note_off_c, 0, 78, 63
1, 205286, Note_on_c, 0, 75, 83
1, 205305, Note_off_c, 0, 77, 62
1, 205335, Note_off_c, 0, 75, 63
1, 205350, Note_on_c, 0, 77, 87
1, 205414, Note_on_c, 0, 58, 99
1, 205417, Note_on_c, 0, 49, 87
1, 205423, Note_on_c, 0, 78, 89
1, 205428, Note_off_c, 0, 77, 64
1, 205487, Note_on_c, 0, 80, 80
1, 205493, Note_off_c, 0, 58, 62
1, 205514, Note_off_c, 0, 49, 62
1, 205518, Note_off_c, 0, 78, 62
1, 205548, Note_on_c, 0, 82, 77
1, 205560, Note_off_c, 0, 80, 64
1, 205591, Note_off_c, 0, 82, 61
1, 205624, Note_on_c, 0, 80, 86
1, 205686, Note_on_c, 0, 82, 90
1, 205727, Note_off_c, 0, 80, 61
1, 205754, Note_on_c, 0, 83, 100
1, 205785, Note_off_c, 0, 82, 63
1, 205830, Note_off_c, 0, 83, 62
1, 205881, Note_on_c, 0, 41, 101
1, 205887, Note_on_c, 0, 29, 91
1, 205892, Note_on_c, 0, 82, 96
1, 205898, Note_on_c, 0, 70, 98
1, 205907, Note_on_c, 0, 80, 89
1, 205925, Control_c, 0, 64, 79
1, 205940, Control_c, 0, 64, 44
1, 205955, Control_c, 0, 64, 0
1, 206028, Control_c, 0, 64, 52
1, 206043, Control_c, 0, 64, 76
1, 206046, Note_off_c, 0, 29, 61
1, 206058, Control_c, 0, 64, 127
1, 206066, Note_off_c, 0, 82, 63
1, 206077, Note_off_c, 0, 80, 55
1, 206099, Note_off_c, 0, 41, 60
1, 206146, Note_off_c, 0, 70, 55
1, 206234, Note_on_c, 0, 70, 71
1, 206296, Note_off_c, 0, 70, 64
1, 206307, Note_on_c, 0, 68, 75
1, 206366, Note_off_c, 0, 68, 59
1, 206369, Note_on_c, 0, 70, 77
1, 206423, Note_off_c, 0, 70, 63
1, 206432, Note_on_c, 0, 58, 92
1, 206438, Note_on_c, 0, 56, 78
1, 206439, Note_on_c, 0, 50, 74
1, 206447, Note_on_c, 0, 72, 82
1, 206525, Note_on_c, 0, 74, 80
1, 206528, Note_off_c, 0, 72, 63
1, 206560, Note_off_c, 0, 50, 62
1, 206580, Note_on_c, 0, 75, 86
1, 206581, Note_off_c, 0, 74, 63
1, 206597, Note_off_c, 0, 56, 63
1, 206597, Note_off_c, 0, 58, 64
1, 206647, Note_on_c, 0, 74, 84
1, 206673, Note_off_c, 0, 75, 61
1, 206710, Note_off_c, 0, 74, 64
1, 206712, Note_on_c, 0, 72, 85
1, 206791, Note_on_c, 0, 74, 85
1, 206794, Note_off_c, 0, 72, 63
1, 206837, Note_on_c, 0, 70, 95
1, 206840, Note_on_c, 0, 58, 93
1, 206840, Note_on_c, 0, 68, 86
1, 206849, Note_on_c, 0, 75, 84
1, 206880, Note_off_c, 0, 74, 60
1, 206915, Note_on_c, 0, 77, 82
1, 206922, Note_off_c, 0, 70, 63
1, 206948, Note_off_c, 0, 68, 61
1, 206953, Note_off_c, 0, 75, 61
1, 206972, Note_off_c, 0, 58, 62
1, 206983, Note_on_c, 0, 78, 85
1, 206986, Note_off_c, 0, 77, 65
1, 207064, Note_on_c, 0, 77, 87
1, 207087, Note_off_c, 0, 78, 64
1, 207124, Note_on_c, 0, 75, 84
1, 207145, Note_off_c, 0, 77, 63
1, 207185, Note_off_c, 0, 75, 62
1, 207204, Note_on_c, 0, 77, 95
1, 207278, Note_on_c, 0, 58, 102
1, 207284, Note_on_c, 0, 50, 85
1, 207287, Note_on_c, 0, 56, 89
1, 207291, Note_on_c, 0, 78, 89
1, 207299, Note_off_c, 0, 77, 61
1, 207362, Note_on_c, 0, 80, 85
1, 207366, Note_off_c, 0, 58, 60
1, 207389, Note_off_c, 0, 50, 64
1, 207394, Note_off_c, 0, 78, 61
1, 207397, Note_off_c, 0, 56, 61
1, 207428, Note_on_c, 0, 82, 86
1, 207447, Note_off_c, 0, 80, 63
1, 207511, Note_off_c, 0, 82, 58
1, 207516, Note_on_c, 0, 80, 85
1, 207584, Note_on_c, 0, 82, 82
1, 207622, Note_off_c, 0, 80, 61
1, 207657, Note_on_c, 0, 83, 98
1, 207672, Note_off_c, 0, 82, 63
1, 207752, Note_off_c, 0, 83, 60
1, 207790, Note_on_c, 0, 32, 26
1, 207836, Note_off_c, 0, 32, 54
1, 207856, Note_on_c, 0, 39, 97
1, 207860, Note_on_c, 0, 27, 92
1, 207862, Note_on_c, 0, 82, 101
1, 207865, Note_on_c, 0, 70, 99
1, 207867, Note_on_c, 0, 78, 87
1, 207926, Control_c, 0, 64, 71
1, 207941, Control_c, 0, 64, 0
1, 208042, Note_off_c, 0, 82, 61
1, 208052, Control_c, 0, 64, 61
1, 208054, Note_off_c, 0, 78, 64
1, 208067, Control_c, 0, 64, 98
1, 208082, Control_c, 0, 64, 127
1, 208091, Note_off_c, 0, 27, 60
1, 208107, Note_off_c, 0, 70, 59
1, 208154, Note_off_c, 0, 39, 57
1, 208243, Note_on_c, 0, 70, 85
1, 208248, Note_on_c, 0, 66, 80
1, 208358, Note_on_c, 0, 71, 88
1, 208408, Note_off_c, 0, 66, 54
1, 208410, Note_off_c, 0, 70, 38
1, 208436, Note_on_c, 0, 73, 86
1, 208461, Note_off_c, 0, 71, 64
1, 208520, Note_on_c, 0, 58, 91
1, 208527, Note_on_c, 0, 46, 74
1, 208528, Note_on_c, 0, 51, 78
1, 208537, Note_off_c, 0, 73, 65
1, 208540, Note_on_c, 0, 68, 92
1, 208540, Note_on_c, 0, 71, 93
1, 208628, Note_on_c, 0, 73, 88
1, 208630, Note_off_c, 0, 46, 61
1, 208659, Note_off_c, 0, 71, 62
1, 208666, Note_off_c, 0, 58, 60
1, 208668, Note_off_c, 0, 68, 59
1, 208673, Note_off_c, 0, 51, 61
1, 208695, Note_on_c, 0, 75, 84
1, 208722, Note_off_c, 0, 73, 65
1, 208769, Note_off_c, 0, 75, 63
1, 208780, Note_on_c, 0, 70, 91
1, 208784, Note_on_c, 0, 73, 75
1, 208799, Note_on_c, 0, 74, 71
1, 208841, Note_on_c, 0, 75, 80
1, 208858, Note_off_c, 0, 70, 60
1, 208879, Note_off_c, 0, 74, 61
1, 208880, Note_off_c, 0, 73, 62
1, 208896, Note_on_c, 0, 77, 79
1, 208907, Note_on_c, 0, 76, 49
1, 208912, Note_off_c, 0, 75, 62
1, 208929, Note_off_c, 0, 76, 57
1, 208957, Note_off_c, 0, 77, 52
1, 208959, Note_on_c, 0, 70, 92
1, 208961, Note_on_c, 0, 66, 83
1, 208968, Note_on_c, 0, 58, 77
1, 208972, Note_on_c, 0, 75, 85
1, 208976, Note_on_c, 0, 71, 80
1, 209004, Note_off_c, 0, 70, 64
1, 209036, Note_off_c, 0, 58, 61
1, 209037, Note_off_c, 0, 66, 61
1, 209039, Note_on_c, 0, 77, 78
1, 209051, Note_off_c, 0, 71, 60
1, 209060, Note_off_c, 0, 75, 62
1, 209108, Note_off_c, 0, 77, 62
1, 209114, Note_on_c, 0, 79, 59
1, 209154, Note_on_c, 0, 77, 86
1, 209163, Note_on_c, 0, 73, 90
1, 209163, Note_off_c, 0, 79, 63
1, 209196, Poly_aftertouch_c, 0, 78, 0
1, 209211, Note_on_c, 0, 78, 60
1, 209241, Note_off_c, 0, 73, 62
1, 209248, Note_off_c, 0, 77, 62
1, 209276, Note_on_c, 0, 80, 76
1, 209297, Note_off_c, 0, 78, 65
1, 209329, Note_off_c, 0, 80, 63
1, 209332, Note_on_c, 0, 78, 83
1, 209335, Note_on_c, 0, 58, 93
1, 209341, Note_on_c, 0, 46, 75
1, 209341, Note_on_c, 0, 51, 84
1, 209346, Note_on_c, 0, 75, 76
1, 209389, Note_off_c, 0, 46, 57
1, 209392, Note_off_c, 0, 58, 61
1, 209401, Note_on_c, 0, 80, 84
1, 209402, Note_off_c, 0, 75, 55
1, 209409, Note_off_c, 0, 51, 62
1, 209442, Note_off_c, 0, 78, 64
1, 209443, Note_on_c, 0, 82, 82
1, 209481, Note_off_c, 0, 80, 65
1, 209521, Note_off_c, 0, 82, 65
1, 209529, Note_on_c, 0, 77, 88
1, 209529, Note_on_c, 0, 80, 80
1, 209583, Note_on_c, 0, 82, 84
1, 209596, Note_off_c, 0, 77, 61
1, 209621, Note_off_c, 0, 80, 63
1, 209636, Note_on_c, 0, 83, 80
1, 209661, Note_off_c, 0, 82, 65
1, 209701, Note_on_c, 0, 82, 78
1, 209704, Note_on_c, 0, 78, 86
1, 209708, Note_off_c, 0, 83, 64
1, 209756, Note_on_c, 0, 83, 76
1, 209799, Note_off_c, 0, 78, 62
1, 209800, Note_off_c, 0, 82, 64
1, 209817, Note_on_c, 0, 85, 80
1, 209842, Note_off_c, 0, 83, 65
1, 209876, Control_c, 0, 64, 107
1, 209888, Note_off_c, 0, 85, 65
1, 209891, Control_c, 0, 64, 78
1, 209898, Note_on_c, 0, 80, 71
1, 209899, Note_on_c, 0, 77, 72
1, 209902, Note_on_c, 0, 83, 65
1, 209906, Control_c, 0, 64, 62
1, 209921, Control_c, 0, 64, 48
1, 209935, Control_c, 0, 64, 50
1, 209950, Control_c, 0, 64, 56
1, 209965, Control_c, 0, 64, 62
1, 209966, Note_off_c, 0, 77, 64
1, 209967, Note_on_c, 0, 85, 74
1, 209967, Note_on_c, 0, 75, 71
1, 209980, Control_c, 0, 64, 68
1, 209984, Note_off_c, 0, 80, 63
1, 209987, Note_off_c, 0, 83, 64
1, 209995, Control_c, 0, 64, 91
1, 210004, Note_on_c, 0, 87, 76
1, 210010, Control_c, 0, 64, 127
1, 210016, Note_on_c, 0, 73, 68
1, 210025, Note_off_c, 0, 85, 66
1, 210027, Note_off_c, 0, 75, 62
1, 210060, Note_off_c, 0, 87, 64
1, 210066, Note_off_c, 0, 73, 64
1, 210071, Note_on_c, 0, 82, 78
1, 210076, Note_on_c, 0, 85, 73
1, 210078, Note_on_c, 0, 75, 74
1, 210122, Note_on_c, 0, 73, 59
1, 210126, Note_off_c, 0, 82, 61
1, 210129, Note_on_c, 0, 87, 77
1, 210140, Note_off_c, 0, 75, 61
1, 210156, Note_on_c, 0, 71, 76
1, 210161, Note_off_c, 0, 85, 64
1, 210170, Note_on_c, 0, 89, 69
1, 210181, Note_off_c, 0, 73, 64
1, 210197, Note_off_c, 0, 87, 65
1, 210203, Note_off_c, 0, 71, 64
1, 210230, Note_off_c, 0, 89, 61
1, 210235, Note_on_c, 0, 73, 67
1, 210248, Note_on_c, 0, 83, 74
1, 210253, Note_on_c, 0, 87, 75
1, 210289, Note_off_c, 0, 73, 64
1, 210296, Note_off_c, 0, 83, 54
1, 210304, Note_on_c, 0, 89, 77
1, 210317, Note_on_c, 0, 71, 53
1, 210317, Note_on_c, 0, 72, 41
1, 210331, Note_on_c, 0, 70, 78
1, 210331, Note_off_c, 0, 87, 65
1, 210338, Note_on_c, 0, 90, 81
1, 210341, Note_off_c, 0, 71, 63
1, 210346, Note_off_c, 0, 72, 62
1, 210363, Note_off_c, 0, 89, 65
1, 210385, Note_off_c, 0, 70, 64
1, 210403, Note_on_c, 0, 71, 77
1, 210411, Note_on_c, 0, 89, 67
1, 210412, Note_on_c, 0, 85, 84
1, 210412, Note_off_c, 0, 90, 63
1, 210438, Note_on_c, 0, 88, 45
1, 210439, Note_off_c, 0, 88, 127
1, 210455, Note_on_c, 0, 70, 74
1, 210456, Note_off_c, 0, 71, 60
1, 210470, Note_on_c, 0, 90, 53
1, 210470, Note_off_c, 0, 85, 63
1, 210488, Note_on_c, 0, 91, 77
1, 210498, Note_on_c, 0, 68, 74
1, 210509, Note_on_c, 0, 92, 82
1, 210510, Note_off_c, 0, 89, 65
1, 210516, Note_off_c, 0, 70, 64
1, 210527, Note_off_c, 0, 90, 62
1, 210534, Note_off_c, 0, 91, 64
1, 210546, Note_off_c, 0, 68, 0
1, 210568, Note_off_c, 0, 92, 64
1, 210572, Note_on_c, 0, 87, 78
1, 210576, Note_on_c, 0, 90, 76
1, 210584, Poly_aftertouch_c, 0, 68, 127
1, 210624, Note_off_c, 0, 87, 57
1, 210629, Note_on_c, 0, 66, 74
1, 210629, Note_on_c, 0, 92, 83
1, 210631, Poly_aftertouch_c, 0, 68, 0
1, 210657, Note_on_c, 0, 94, 88
1, 210662, Note_off_c, 0, 90, 64
1, 210677, Note_off_c, 0, 66, 51
1, 210678, Note_on_c, 0, 65, 43
1, 210680, Note_on_c, 0, 64, 44
1, 210694, Note_off_c, 0, 92, 65
1, 210706, Note_off_c, 0, 64, 61
1, 210706, Note_off_c, 0, 65, 56
1, 210722, Note_on_c, 0, 66, 66
1, 210733, Note_off_c, 0, 94, 63
1, 210736, Note_on_c, 0, 89, 83
1, 210751, Note_on_c, 0, 92, 87
1, 210783, Note_on_c, 0, 94, 75
1, 210790, Note_off_c, 0, 89, 63
1, 210794, Note_on_c, 0, 63, 73
1, 210794, Note_off_c, 0, 66, 61
1, 210820, Note_off_c, 0, 92, 65
1, 210826, Note_on_c, 0, 95, 85
1, 210856, Note_off_c, 0, 94, 64
1, 210859, Note_off_c, 0, 63, 62
1, 210883, Note_on_c, 0, 65, 62
1, 210888, Note_on_c, 0, 90, 83
1, 210894, Note_off_c, 0, 95, 62
1, 210900, Note_on_c, 0, 94, 73
1, 210948, Note_on_c, 0, 63, 56
1, 210954, Note_on_c, 0, 95, 77
1, 210966, Note_off_c, 0, 65, 55
1, 210994, Note_on_c, 0, 97, 82
1, 210999, Note_off_c, 0, 63, 57
1, 211001, Note_off_c, 0, 94, 63
1, 211014, Note_on_c, 0, 62, 61
1, 211022, Note_off_c, 0, 95, 66
1, 211023, Note_off_c, 0, 90, 57
1, 211041, Note_off_c, 0, 97, 65
1, 211103, Note_on_c, 0, 63, 68
1, 211117, Note_on_c, 0, 94, 71
1, 211117, Note_off_c, 0, 62, 51
1, 211130, Note_on_c, 0, 90, 75
1, 211137, Control_c, 0, 64, 86
1, 211152, Control_c, 0, 64, 70
1, 211167, Control_c, 0, 64, 63
1, 211169, Note_off_c, 0, 63, 62
1, 211182, Control_c, 0, 64, 65
1, 211184, Note_on_c, 0, 65, 63
1, 211191, Note_on_c, 0, 89, 74
1, 211196, Control_c, 0, 64, 68
1, 211211, Control_c, 0, 64, 74
1, 211212, Note_off_c, 0, 90, 62
1, 211213, Note_off_c, 0, 94, 62
1, 211226, Control_c, 0, 64, 83
1, 211241, Control_c, 0, 64, 117
1, 211247, Note_off_c, 0, 89, 64
1, 211249, Note_on_c, 0, 87, 71
1, 211256, Control_c, 0, 64, 127
1, 211258, Note_off_c, 0, 65, 60
1, 211261, Note_on_c, 0, 66, 64
1, 211303, Note_off_c, 0, 87, 0
1, 211312, Note_on_c, 0, 68, 69
1, 211314, Note_on_c, 0, 92, 86
1, 211321, Poly_aftertouch_c, 0, 87, 0
1, 211327, Note_on_c, 0, 89, 78
1, 211332, Note_off_c, 0, 66, 59
1, 211362, Note_on_c, 0, 70, 71
1, 211374, Note_on_c, 0, 87, 71
1, 211377, Note_off_c, 0, 68, 61
1, 211392, Note_off_c, 0, 92, 65
1, 211403, Note_off_c, 0, 70, 62
1, 211405, Note_off_c, 0, 89, 63
1, 211415, Note_on_c, 0, 71, 72
1, 211427, Note_on_c, 0, 86, 75
1, 211437, Note_off_c, 0, 87, 64
1, 211470, Note_off_c, 0, 71, 51
1, 211478, Control_c, 0, 64, 100
1, 211481, Note_on_c, 0, 73, 80
1, 211488, Note_on_c, 0, 94, 89
1, 211488, Note_off_c, 0, 86, 61
1, 211489, Note_on_c, 0, 90, 81
1, 211493, Control_c, 0, 64, 89
1, 211507, Control_c, 0, 64, 90
1, 211522, Control_c, 0, 64, 103
1, 211534, Note_off_c, 0, 73, 66
1, 211537, Control_c, 0, 64, 127
1, 211550, Note_on_c, 0, 89, 86
1, 211572, Note_on_c, 0, 76, 60
1, 211577, Note_on_c, 0, 74, 53
1, 211580, Note_off_c, 0, 90, 64
1, 211584, Note_off_c, 0, 94, 64
1, 211595, Note_off_c, 0, 74, 62
1, 211598, Note_on_c, 0, 87, 80
1, 211604, Note_off_c, 0, 76, 64
1, 211609, Note_off_c, 0, 89, 64
1, 211614, Note_on_c, 0, 75, 82
1, 211640, Control_c, 0, 64, 88
1, 211657, Control_c, 0, 64, 78
1, 211665, Note_off_c, 0, 75, 64
1, 211667, Note_on_c, 0, 92, 97
1, 211670, Note_off_c, 0, 87, 41
1, 211672, Control_c, 0, 64, 81
1, 211676, Note_on_c, 0, 89, 83
1, 211680, Note_on_c, 0, 77, 82
1, 211686, Control_c, 0, 64, 97
1, 211701, Control_c, 0, 64, 127
1, 211735, Note_on_c, 0, 87, 79
1, 211747, Note_on_c, 0, 78, 82
1, 211753, Note_off_c, 0, 77, 64
1, 211762, Note_off_c, 0, 89, 64
1, 211771, Note_off_c, 0, 92, 65
1, 211786, Note_on_c, 0, 86, 81
1, 211798, Note_on_c, 0, 80, 78
1, 211799, Note_off_c, 0, 87, 65
1, 211816, Note_off_c, 0, 78, 62
1, 211842, Control_c, 0, 64, 114
1, 211847, Note_off_c, 0, 86, 55
1, 211849, Note_on_c, 0, 90, 88
1, 211853, Note_on_c, 0, 94, 92
1, 211857, Control_c, 0, 64, 80
1, 211870, Note_off_c, 0, 80, 64
1, 211872, Control_c, 0, 64, 68
1, 211873, Note_on_c, 0, 78, 76
1, 211887, Control_c, 0, 64, 65
1, 211902, Control_c, 0, 64, 69
1, 211912, Note_on_c, 0, 89, 86
1, 211917, Control_c, 0, 64, 76
1, 211929, Note_on_c, 0, 80, 70
1, 211932, Control_c, 0, 64, 89
1, 211946, Note_off_c, 0, 78, 63
1, 211946, Note_off_c, 0, 90, 64
1, 211946, Control_c, 0, 64, 127
1, 211955, Note_off_c, 0, 94, 64
1, 211967, Note_on_c, 0, 87, 77
1, 211977, Note_off_c, 0, 89, 65
1, 211983, Note_on_c, 0, 82, 83
1, 211987, Note_off_c, 0, 80, 65
1, 212020, Control_c, 0, 64, 95
1, 212022, Note_off_c, 0, 87, 54
1, 212033, Note_on_c, 0, 92, 90
1, 212035, Control_c, 0, 64, 78
1, 212042, Note_on_c, 0, 89, 85
1, 212044, Note_on_c, 0, 80, 76
1, 212048, Note_off_c, 0, 82, 64
1, 212050, Control_c, 0, 64, 74
1, 212064, Control_c, 0, 64, 78
1, 212079, Control_c, 0, 64, 88
1, 212093, Note_on_c, 0, 87, 83
1, 212094, Control_c, 0, 64, 117
1, 212109, Control_c, 0, 64, 127
1, 212110, Note_on_c, 0, 82, 67
1, 212119, Note_off_c, 0, 80, 63
1, 212121, Note_off_c, 0, 89, 62
1, 212126, Note_off_c, 0, 92, 66
1, 212149, Note_on_c, 0, 86, 76
1, 212159, Note_off_c, 0, 82, 64
1, 212160, Note_off_c, 0, 87, 65
1, 212179, Note_on_c, 0, 83, 69
1, 212198, Control_c, 0, 64, 94
1, 212202, Note_off_c, 0, 86, 60
1, 212212, Control_c, 0, 64, 79
1, 212215, Note_on_c, 0, 94, 93
1, 212222, Note_on_c, 0, 90, 80
1, 212227, Note_off_c, 0, 83, 59
1, 212227, Control_c, 0, 64, 70
1, 212234, Note_on_c, 0, 82, 69
1, 212242, Control_c, 0, 64, 71
1, 212257, Control_c, 0, 64, 76
1, 212272, Control_c, 0, 64, 86
1, 212279, Note_on_c, 0, 89, 84
1, 212287, Control_c, 0, 64, 110
1, 212291, Note_off_c, 0, 82, 64
1, 212298, Note_on_c, 0, 80, 65
1, 212301, Control_c, 0, 64, 127
1, 212308, Note_off_c, 0, 90, 64
1, 212308, Note_off_c, 0, 94, 64
1, 212334, Note_off_c, 0, 89, 65
1, 212335, Note_on_c, 0, 87, 72
1, 212358, Note_on_c, 0, 78, 59
1, 212368, Note_off_c, 0, 80, 63
1, 212388, Note_off_c, 0, 87, 57
1, 212410, Note_on_c, 0, 92, 85
1, 212415, Note_on_c, 0, 80, 49
1, 212419, Note_on_c, 0, 89, 80
1, 212478, Note_off_c, 0, 80, 61
1, 212479, Note_on_c, 0, 87, 73
1, 212506, Note_off_c, 0, 92, 65
1, 212513, Note_off_c, 0, 89, 63
1, 212527, Note_off_c, 0, 78, 59
1, 212545, Note_off_c, 0, 87, 63
1, 212546, Note_on_c, 0, 86, 64
1, 212564, Note_on_c, 0, 77, 59
1, 212635, Control_c, 0, 64, 101
1, 212640, Note_off_c, 0, 86, 61
1, 212644, Note_off_c, 0, 77, 58
1, 212650, Control_c, 0, 64, 79
1, 212654, Note_on_c, 0, 75, 56
1, 212665, Control_c, 0, 64, 66
1, 212680, Control_c, 0, 64, 58
1, 212686, Note_on_c, 0, 90, 54
1, 212695, Control_c, 0, 64, 61
1, 212710, Control_c, 0, 64, 65
1, 212725, Control_c, 0, 64, 69
1, 212740, Control_c, 0, 64, 78
1, 212755, Control_c, 0, 64, 110
1, 212756, Note_off_c, 0, 75, 62
1, 212760, Note_off_c, 0, 90, 63
1, 212769, Control_c, 0, 64, 127
1, 212771, Note_on_c, 0, 77, 57
1, 212778, Note_on_c, 0, 89, 65
1, 212826, Note_off_c, 0, 89, 55
1, 212847, Note_on_c, 0, 87, 67
1, 212853, Note_off_c, 0, 77, 61
1, 212856, Note_on_c, 0, 78, 73
1, 212892, Note_off_c, 0, 87, 59
1, 212915, Note_on_c, 0, 86, 49
1, 212938, Note_off_c, 0, 86, 59
1, 212962, Note_off_c, 0, 78, 58
1, 212963, Note_on_c, 0, 87, 78
1, 212978, Note_on_c, 0, 77, 62
1, 213021, Note_on_c, 0, 85, 84
1, 213034, Note_off_c, 0, 87, 64
1, 213036, Note_off_c, 0, 77, 65
1, 213050, Note_on_c, 0, 75, 59
1, 213056, Note_on_c, 0, 70, 39
1, 213062, Note_on_c, 0, 68, 34
1, 213077, Note_off_c, 0, 85, 65
1, 213081, Note_on_c, 0, 83, 74
1, 213081, Note_off_c, 0, 75, 59
1, 213095, Note_off_c, 0, 68, 48
1, 213097, Note_off_c, 0, 70, 54
1, 213139, Note_on_c, 0, 82, 80
1, 213154, Note_off_c, 0, 83, 56
1, 213190, Note_on_c, 0, 72, 21
1, 213194, Note_on_c, 0, 80, 78
1, 213199, Note_on_c, 0, 71, 41
1, 213240, Note_off_c, 0, 72, 54
1, 213249, Note_off_c, 0, 71, 61
1, 213249, Note_off_c, 0, 82, 60
1, 213265, Note_on_c, 0, 78, 77
1, 213290, Note_off_c, 0, 80, 63
1, 213318, Note_off_c, 0, 78, 64
1, 213322, Note_on_c, 0, 77, 77
1, 213334, Poly_aftertouch_c, 0, 69, 0
1, 213383, Note_on_c, 0, 75, 77
1, 213389, Note_off_c, 0, 77, 58
1, 213407, Note_on_c, 0, 63, 54
1, 213428, Control_c, 0, 64, 107
1, 213442, Note_on_c, 0, 78, 76
1, 213443, Control_c, 0, 64, 75
1, 213455, Note_off_c, 0, 75, 61
1, 213456, Note_on_c, 0, 82, 58
1, 213457, Control_c, 0, 64, 61
1, 213472, Control_c, 0, 64, 52
1, 213487, Control_c, 0, 64, 58
1, 213500, Note_off_c, 0, 78, 64
1, 213502, Control_c, 0, 64, 62
1, 213506, Note_off_c, 0, 63, 62
1, 213508, Note_on_c, 0, 77, 73
1, 213509, Note_off_c, 0, 82, 59
1, 213516, Control_c, 0, 64, 65
1, 213525, Note_on_c, 0, 65, 50
1, 213531, Control_c, 0, 64, 74
1, 213546, Control_c, 0, 64, 97
1, 213556, Note_off_c, 0, 77, 53
1, 213561, Control_c, 0, 64, 127
1, 213570, Note_on_c, 0, 66, 59
1, 213570, Note_off_c, 0, 65, 60
1, 213581, Note_on_c, 0, 75, 70
1, 213609, Note_off_c, 0, 66, 61
1, 213624, Note_off_c, 0, 75, 59
1, 213629, Note_on_c, 0, 68, 70
1, 213631, Note_on_c, 0, 74, 72
1, 213664, Note_off_c, 0, 74, 59
1, 213693, Note_on_c, 0, 66, 72
1, 213695, Note_on_c, 0, 75, 76
1, 213703, Note_off_c, 0, 68, 60
1, 213747, Note_off_c, 0, 66, 62
1, 213749, Note_on_c, 0, 73, 79
1, 213764, Note_off_c, 0, 75, 62
1, 213768, Note_on_c, 0, 65, 68
1, 213804, Note_off_c, 0, 73, 63
1, 213818, Note_on_c, 0, 71, 74
1, 213824, Note_off_c, 0, 65, 61
1, 213835, Note_on_c, 0, 56, 68
1, 213847, Note_on_c, 0, 63, 67
1, 213857, Control_c, 0, 64, 120
1, 213872, Control_c, 0, 64, 89
1, 213887, Control_c, 0, 64, 73
1, 213890, Note_on_c, 0, 70, 74
1, 213896, Note_off_c, 0, 71, 60
1, 213901, Control_c, 0, 64, 63
1, 213908, Note_off_c, 0, 63, 62
1, 213910, Note_on_c, 0, 61, 63
1, 213916, Control_c, 0, 64, 57
1, 213942, Note_off_c, 0, 61, 67
1, 213946, Control_c, 0, 64, 58
1, 213962, Note_off_c, 0, 56, 60
1, 213962, Note_on_c, 0, 68, 64
1, 213968, Control_c, 0, 64, 61
1, 213983, Control_c, 0, 64, 64
1, 213998, Control_c, 0, 64, 68
1, 214000, Note_on_c, 0, 59, 63
1, 214001, Note_off_c, 0, 70, 59
1, 214012, Control_c, 0, 64, 80
1, 214027, Control_c, 0, 64, 112
1, 214035, Note_on_c, 0, 66, 65
1, 214042, Control_c, 0, 64, 127
1, 214054, Note_off_c, 0, 59, 54
1, 214063, Note_off_c, 0, 68, 59
1, 214070, Note_on_c, 0, 58, 57
1, 214102, Note_off_c, 0, 66, 61
1, 214102, Control_c, 0, 64, 102
1, 214114, Note_on_c, 0, 65, 64
1, 214117, Control_c, 0, 64, 86
1, 214132, Control_c, 0, 64, 75
1, 214147, Control_c, 0, 64, 68
1, 214153, Note_on_c, 0, 56, 46
1, 214162, Control_c, 0, 64, 66
1, 214173, Note_off_c, 0, 58, 51
1, 214176, Control_c, 0, 64, 67
1, 214191, Control_c, 0, 64, 70
1, 214206, Control_c, 0, 64, 73
1, 214211, Note_off_c, 0, 65, 54
1, 214218, Note_on_c, 0, 63, 55
1, 214221, Control_c, 0, 64, 79
1, 214236, Control_c, 0, 64, 92
1, 214249, Note_on_c, 0, 54, 52
1, 214251, Control_c, 0, 64, 127
1, 214254, Note_off_c, 0, 56, 56
1, 214283, Note_off_c, 0, 54, 65
1, 214348, Note_off_c, 0, 63, 54
1, 214430, Note_on_c, 0, 39, 60
1, 214443, Control_c, 0, 64, 112
1, 214458, Control_c, 0, 64, 96
1, 214473, Control_c, 0, 64, 81
1, 214487, Control_c, 0, 64, 71
1, 214502, Control_c, 0, 64, 63
1, 214517, Control_c, 0, 64, 56
1, 214531, Control_c, 0, 64, 50
1, 214546, Control_c, 0, 64, 49
1, 214576, Control_c, 0, 64, 52
1, 214591, Control_c, 0, 64, 56
1, 214606, Control_c, 0, 64, 60
1, 214621, Control_c, 0, 64, 64
1, 214635, Control_c, 0, 64, 70
1, 214643, Note_on_c, 0, 46, 52
1, 214650, Control_c, 0, 64, 84
1, 214660, Note_off_c, 0, 39, 60
1, 214665, Control_c, 0, 64, 110
1, 214680, Control_c, 0, 64, 127
1, 214732, Note_off_c, 0, 46, 61
1, 214758, Note_on_c, 0, 54, 61
1, 214805, Note_off_c, 0, 54, 60
1, 214850, Control_c, 0, 64, 115
1, 214860, Note_on_c, 0, 44, 50
1, 214862, Note_on_c, 0, 59, 53
1, 214866, Control_c, 0, 64, 89
1, 214881, Control_c, 0, 64, 74
1, 214896, Control_c, 0, 64, 64
1, 214910, Control_c, 0, 64, 60
1, 214923, Note_off_c, 0, 59, 59
1, 214925, Control_c, 0, 64, 62
1, 214940, Control_c, 0, 64, 65
1, 214945, Note_off_c, 0, 44, 60
1, 214954, Note_on_c, 0, 53, 62
1, 214954, Control_c, 0, 64, 69
1, 214966, Note_on_c, 0, 65, 47
1, 214969, Control_c, 0, 64, 78
1, 214970, Note_on_c, 0, 61, 37
1, 214984, Control_c, 0, 64, 102
1, 214999, Note_off_c, 0, 65, 64
1, 214999, Control_c, 0, 64, 127
1, 215002, Note_off_c, 0, 53, 61
1, 215002, Note_off_c, 0, 61, 51
1, 215036, Note_on_c, 0, 62, 69
1, 215048, Note_on_c, 0, 59, 54
1, 215071, Note_off_c, 0, 62, 61
1, 215077, Note_off_c, 0, 59, 54
1, 215104, Note_on_c, 0, 51, 64
1, 215115, Note_on_c, 0, 66, 60
1, 215133, Control_c, 0, 64, 84
1, 215144, Note_off_c, 0, 66, 64
1, 215148, Control_c, 0, 64, 67
1, 215162, Control_c, 0, 64, 54
1, 215169, Note_on_c, 0, 58, 70
1, 215177, Control_c, 0, 64, 54
1, 215178, Note_on_c, 0, 65, 71
1, 215180, Note_off_c, 0, 51, 62
1, 215192, Control_c, 0, 64, 60
1, 215207, Control_c, 0, 64, 64
1, 215208, Note_off_c, 0, 65, 68
1, 215222, Control_c, 0, 64, 72
1, 215231, Note_on_c, 0, 70, 75
1, 215232, Note_off_c, 0, 58, 63
1, 215236, Control_c, 0, 64, 95
1, 215240, Note_on_c, 0, 63, 60
1, 215247, Note_off_c, 0, 70, 69
1, 215251, Control_c, 0, 64, 127
1, 215269, Note_off_c, 0, 63, 64
1, 215297, Note_on_c, 0, 71, 82
1, 215307, Note_on_c, 0, 56, 71
1, 215310, Control_c, 0, 64, 112
1, 215325, Control_c, 0, 64, 78
1, 215340, Control_c, 0, 64, 63
1, 215342, Note_off_c, 0, 71, 62
1, 215354, Control_c, 0, 64, 48
1, 215364, Note_on_c, 0, 77, 77
1, 215365, Note_on_c, 0, 73, 75
1, 215369, Control_c, 0, 64, 54
1, 215378, Note_on_c, 0, 65, 73
1, 215382, Note_off_c, 0, 56, 64
1, 215384, Control_c, 0, 64, 61
1, 215394, Note_off_c, 0, 73, 65
1, 215399, Control_c, 0, 64, 68
1, 215403, Note_off_c, 0, 77, 59
1, 215414, Control_c, 0, 64, 85
1, 215428, Control_c, 0, 64, 127
1, 215433, Note_on_c, 0, 74, 83
1, 215438, Note_off_c, 0, 65, 61
1, 215441, Note_on_c, 0, 71, 78
1, 215488, Note_off_c, 0, 74, 63
1, 215488, Note_off_c, 0, 71, 60
1, 215509, Note_on_c, 0, 78, 84
1, 215515, Note_on_c, 0, 63, 76
1, 215521, Note_on_c, 0, 75, 58
1, 215525, Control_c, 0, 64, 90
1, 215533, Note_off_c, 0, 78, 69
1, 215539, Note_off_c, 0, 75, 60
1, 215540, Control_c, 0, 64, 67
1, 215554, Control_c, 0, 64, 51
1, 215569, Control_c, 0, 64, 55
1, 215571, Note_on_c, 0, 77, 87
1, 215578, Note_on_c, 0, 70, 76
1, 215584, Control_c, 0, 64, 65
1, 215599, Control_c, 0, 64, 77
1, 215604, Note_off_c, 0, 63, 62
1, 215614, Control_c, 0, 64, 116
1, 215617, Note_off_c, 0, 77, 65
1, 215629, Control_c, 0, 64, 127
1, 215634, Note_on_c, 0, 75, 66
1, 215643, Note_off_c, 0, 70, 62
1, 215644, Note_on_c, 0, 82, 64
1, 215662, Note_on_c, 0, 78, 26
1, 215664, Note_off_c, 0, 82, 46
1, 215676, Note_off_c, 0, 75, 61
1, 215700, Note_off_c, 0, 78, 32
1, 215707, Note_on_c, 0, 83, 88
1, 215720, Note_on_c, 0, 68, 72
1, 215720, Control_c, 0, 64, 89
1, 215734, Control_c, 0, 64, 65
1, 215749, Control_c, 0, 64, 37
1, 215769, Note_off_c, 0, 83, 62
1, 215778, Note_on_c, 0, 89, 82
1, 215779, Control_c, 0, 64, 58
1, 215780, Note_on_c, 0, 85, 78
1, 215789, Note_on_c, 0, 77, 76
1, 215791, Note_off_c, 0, 68, 64
1, 215793, Control_c, 0, 64, 68
1, 215808, Control_c, 0, 64, 89
1, 215813, Note_off_c, 0, 85, 62
1, 215823, Control_c, 0, 64, 127
1, 215825, Note_off_c, 0, 89, 62
1, 215832, Note_off_c, 0, 77, 53
1, 215852, Note_on_c, 0, 86, 84
1, 215861, Note_on_c, 0, 83, 62
1, 215891, Note_off_c, 0, 83, 66
1, 215918, Note_on_c, 0, 75, 71
1, 215918, Note_on_c, 0, 90, 87
1, 215925, Note_off_c, 0, 86, 52
1, 215926, Control_c, 0, 64, 108
1, 215934, Note_on_c, 0, 87, 48
1, 215935, Note_off_c, 0, 87, 127
1, 215941, Control_c, 0, 64, 74
1, 215956, Control_c, 0, 64, 52
1, 215970, Note_off_c, 0, 90, 65
1, 215986, Control_c, 0, 64, 63
1, 215996, Note_on_c, 0, 82, 70
1, 216001, Control_c, 0, 64, 70
1, 216007, Note_on_c, 0, 89, 70
1, 216016, Control_c, 0, 64, 93
1, 216019, Note_off_c, 0, 75, 60
1, 216031, Control_c, 0, 64, 127
1, 216048, Note_off_c, 0, 89, 64
1, 216054, Note_off_c, 0, 82, 64
1, 216069, Note_on_c, 0, 87, 60
1, 216070, Note_on_c, 0, 94, 84
1, 216102, Note_off_c, 0, 87, 66
1, 216113, Note_off_c, 0, 94, 63
1, 216161, Note_on_c, 0, 95, 73
1, 216180, Note_on_c, 0, 80, 59
1, 216193, Control_c, 0, 64, 78
1, 216215, Control_c, 0, 64, 60
1, 216230, Control_c, 0, 64, 23
1, 216245, Control_c, 0, 64, 28
1, 216249, Note_off_c, 0, 95, 62
1, 216260, Control_c, 0, 64, 45
1, 216275, Note_on_c, 0, 101, 69
1, 216275, Control_c, 0, 64, 55
1, 216281, Note_off_c, 0, 80, 61
1, 216284, Note_on_c, 0, 97, 54
1, 216290, Control_c, 0, 64, 62
1, 216292, Note_on_c, 0, 89, 52
1, 216304, Control_c, 0, 64, 67
1, 216319, Control_c, 0, 64, 76
1, 216321, Note_off_c, 0, 97, 64
1, 216334, Control_c, 0, 64, 100
1, 216349, Control_c, 0, 64, 127
1, 216416, Note_off_c, 0, 89, 60
1, 216418, Note_off_c, 0, 101, 60
1, 216418, Note_on_c, 0, 98, 71
1, 216436, Note_on_c, 0, 95, 55
1, 216705, Control_c, 0, 64, 116
1, 216720, Control_c, 0, 64, 106
1, 216734, Control_c, 0, 64, 100
1, 216749, Control_c, 0, 64, 95
1, 216757, Note_on_c, 0, 94, 36
1, 216759, Note_on_c, 0, 102, 64
1, 216760, Note_on_c, 0, 87, 37
1, 216764, Control_c, 0, 64, 91
1, 216768, Note_on_c, 0, 99, 53
1, 216779, Control_c, 0, 64, 88
1, 216794, Control_c, 0, 64, 83
1, 216809, Control_c, 0, 64, 78
1, 216823, Control_c, 0, 64, 74
1, 216838, Control_c, 0, 64, 70
1, 216853, Control_c, 0, 64, 67
1, 216862, Note_off_c, 0, 98, 57
1, 216868, Control_c, 0, 64, 65
1, 216874, Note_off_c, 0, 95, 56
1, 216883, Control_c, 0, 64, 62
1, 216898, Control_c, 0, 64, 58
1, 216913, Control_c, 0, 64, 53
1, 216927, Control_c, 0, 64, 47
1, 216942, Control_c, 0, 64, 45
1, 216979, Control_c, 0, 64, 46
1, 216994, Control_c, 0, 64, 48
1, 217008, Control_c, 0, 64, 51
1, 217023, Control_c, 0, 64, 55
1, 217038, Control_c, 0, 64, 58
1, 217053, Control_c, 0, 64, 60
1, 217068, Control_c, 0, 64, 62
1, 217083, Control_c, 0, 64, 65
1, 217098, Control_c, 0, 64, 67
1, 217113, Control_c, 0, 64, 72
1, 217127, Control_c, 0, 64, 77
1, 217141, Control_c, 0, 64, 82
1, 217145, Note_off_c, 0, 87, 35
1, 217156, Control_c, 0, 64, 84
1, 217171, Control_c, 0, 64, 84
1, 217176, Note_off_c, 0, 99, 34
1, 217178, Note_off_c, 0, 94, 38
1, 217186, Control_c, 0, 64, 85
1, 217245, Control_c, 0, 64, 84
1, 217261, Control_c, 0, 64, 84
1, 217262, Note_off_c, 0, 102, 34
1, 217291, Control_c, 0, 64, 83
1, 217305, Control_c, 0, 64, 83
1, 217320, Control_c, 0, 64, 82
1, 217335, Control_c, 0, 64, 82
1, 217349, Control_c, 0, 64, 81
1, 217364, Control_c, 0, 64, 81
1, 217394, Control_c, 0, 64, 80
1, 217409, Control_c, 0, 64, 80
1, 217423, Control_c, 0, 64, 79
1, 217453, Control_c, 0, 64, 79
1, 217483, Control_c, 0, 64, 78
1, 217497, Control_c, 0, 64, 78
1, 217527, Control_c, 0, 64, 77
1, 217557, Control_c, 0, 64, 77
1, 217601, Control_c, 0, 64, 76
1, 217631, Control_c, 0, 64, 76
1, 217646, Control_c, 0, 64, 75
1, 217661, Control_c, 0, 64, 74
1, 217691, Control_c, 0, 64, 74
1, 217727, Control_c, 0, 64, 73
1, 217786, Control_c, 0, 64, 73
1, 217831, Control_c, 0, 64, 72
1, 217905, Control_c, 0, 64, 72
1, 217935, Control_c, 0, 64, 71
1, 217964, Control_c, 0, 64, 71
1, 217979, Control_c, 0, 64, 70
1, 217994, Control_c, 0, 64, 70
1, 218023, Control_c, 0, 64, 69
1, 218128, Control_c, 0, 64, 69
1, 218143, Control_c, 0, 64, 68
1, 218187, Control_c, 0, 64, 68
1, 218232, Control_c, 0, 64, 67
1, 218276, Control_c, 0, 64, 67
1, 218291, Control_c, 0, 64, 66
1, 218365, Control_c, 0, 64, 66
1, 218409, Control_c, 0, 64, 65
1, 218476, Control_c, 0, 64, 65
1, 218535, Control_c, 0, 64, 64
1, 218565, Control_c, 0, 64, 64
1, 218579, Control_c, 0, 64, 63
1, 218609, Control_c, 0, 64, 63
1, 218624, Control_c, 0, 64, 62
1, 218654, Control_c, 0, 64, 62
1, 218669, Control_c, 0, 64, 61
1, 218698, Control_c, 0, 64, 61
1, 218713, Control_c, 0, 64, 60
1, 218728, Control_c, 0, 64, 60
1, 218743, Control_c, 0, 64, 59
1, 218758, Control_c, 0, 64, 59
1, 218772, Control_c, 0, 64, 58
1, 218787, Control_c, 0, 64, 58
1, 218802, Control_c, 0, 64, 57
1, 218817, Control_c, 0, 64, 57
1, 218832, Control_c, 0, 64, 56
1, 218847, Control_c, 0, 64, 56
1, 218877, Control_c, 0, 64, 55
1, 218966, Control_c, 0, 64, 56
1, 218981, Control_c, 0, 64, 56
1, 218995, Control_c, 0, 64, 57
1, 219010, Control_c, 0, 64, 58
1, 219025, Control_c, 0, 64, 59
1, 219040, Control_c, 0, 64, 60
1, 219055, Control_c, 0, 64, 61
1, 219069, Control_c, 0, 64, 62
1, 219084, Control_c, 0, 64, 63
1, 219099, Control_c, 0, 64, 63
1, 219114, Control_c, 0, 64, 65
1, 219128, Control_c, 0, 64, 67
1, 219143, Control_c, 0, 64, 71
1, 219158, Control_c, 0, 64, 75
1, 219169, Note_on_c, 0, 66, 74
1, 219173, Control_c, 0, 64, 83
1, 219188, Control_c, 0, 64, 95
1, 219210, Control_c, 0, 64, 127
1, 219700, Note_on_c, 0, 58, 68
1, 219730, Control_c, 0, 64, 102
1, 219745, Control_c, 0, 64, 87
1, 219760, Control_c, 0, 64, 76
1, 219775, Control_c, 0, 64, 66
1, 219789, Control_c, 0, 64, 61
1, 219804, Control_c, 0, 64, 59
1, 219819, Control_c, 0, 64, 58
1, 219834, Control_c, 0, 64, 57
1, 219858, Note_off_c, 0, 66, 51
1, 219864, Control_c, 0, 64, 58
1, 219879, Control_c, 0, 64, 59
1, 219893, Control_c, 0, 64, 61
1, 219908, Control_c, 0, 64, 63
1, 219923, Control_c, 0, 64, 66
1, 219938, Control_c, 0, 64, 72
1, 219959, Control_c, 0, 64, 87
1, 219974, Control_c, 0, 64, 127
1, 220088, Note_on_c, 0, 60, 84
1, 220123, Control_c, 0, 64, 109
1, 220138, Control_c, 0, 64, 88
1, 220152, Control_c, 0, 64, 72
1, 220167, Control_c, 0, 64, 61
1, 220168, Note_off_c, 0, 58, 60
1, 220182, Control_c, 0, 64, 53
1, 220212, Control_c, 0, 64, 53
1, 220226, Control_c, 0, 64, 56
1, 220241, Control_c, 0, 64, 60
1, 220256, Control_c, 0, 64, 64
1, 220271, Control_c, 0, 64, 71
1, 220286, Control_c, 0, 64, 89
1, 220300, Control_c, 0, 64, 127
1, 220378, Note_on_c, 0, 62, 91
1, 220404, Control_c, 0, 64, 125
1, 220419, Control_c, 0, 64, 99
1, 220433, Control_c, 0, 64, 89
1, 220449, Control_c, 0, 64, 83
1, 220464, Control_c, 0, 64, 74
1, 220465, Note_off_c, 0, 60, 53
1, 220479, Control_c, 0, 64, 65
1, 220494, Control_c, 0, 64, 54
1, 220509, Control_c, 0, 64, 39
1, 220523, Control_c, 0, 64, 32
1, 220553, Control_c, 0, 64, 34
1, 220567, Control_c, 0, 64, 42
1, 220582, Control_c, 0, 64, 51
1, 220597, Control_c, 0, 64, 59
1, 220612, Control_c, 0, 64, 66
1, 220627, Control_c, 0, 64, 74
1, 220642, Control_c, 0, 64, 90
1, 220657, Control_c, 0, 64, 127
1, 220670, Note_on_c, 0, 63, 87
1, 220753, Control_c, 0, 64, 115
1, 220768, Control_c, 0, 64, 105
1, 220782, Control_c, 0, 64, 98
1, 220797, Control_c, 0, 64, 91
1, 220812, Control_c, 0, 64, 86
1, 220827, Control_c, 0, 64, 82
1, 220842, Control_c, 0, 64, 78
1, 220857, Control_c, 0, 64, 74
1, 220863, Note_off_c, 0, 62, 52
1, 220872, Control_c, 0, 64, 70
1, 220886, Control_c, 0, 64, 67
1, 220901, Control_c, 0, 64, 64
1, 220916, Control_c, 0, 64, 63
1, 220930, Control_c, 0, 64, 61
1, 220945, Control_c, 0, 64, 59
1, 220960, Control_c, 0, 64, 57
1, 220974, Control_c, 0, 64, 52
1, 220989, Control_c, 0, 64, 44
1, 221004, Control_c, 0, 64, 39
1, 221048, Control_c, 0, 64, 39
1, 221063, Control_c, 0, 64, 42
1, 221078, Control_c, 0, 64, 47
1, 221093, Control_c, 0, 64, 51
1, 221108, Control_c, 0, 64, 54
1, 221122, Control_c, 0, 64, 57
1, 221137, Control_c, 0, 64, 60
1, 221152, Control_c, 0, 64, 64
1, 221167, Control_c, 0, 64, 67
1, 221182, Control_c, 0, 64, 73
1, 221196, Control_c, 0, 64, 81
1, 221211, Control_c, 0, 64, 92
1, 221226, Control_c, 0, 64, 106
1, 221242, Control_c, 0, 64, 127
1, 221407, Note_on_c, 0, 65, 70
1, 221435, Control_c, 0, 64, 116
1, 221457, Control_c, 0, 64, 104
1, 221471, Control_c, 0, 64, 99
1, 221486, Control_c, 0, 64, 95
1, 221501, Control_c, 0, 64, 92
1, 221516, Control_c, 0, 64, 89
1, 221531, Control_c, 0, 64, 85
1, 221545, Control_c, 0, 64, 80
1, 221560, Control_c, 0, 64, 77
1, 221575, Control_c, 0, 64, 74
1, 221587, Note_off_c, 0, 63, 58
1, 221590, Control_c, 0, 64, 73
1, 221605, Control_c, 0, 64, 71
1, 221620, Control_c, 0, 64, 70
1, 221635, Control_c, 0, 64, 68
1, 221650, Control_c, 0, 64, 67
1, 221664, Control_c, 0, 64, 66
1, 221679, Control_c, 0, 64, 66
1, 221694, Control_c, 0, 64, 65
1, 221709, Control_c, 0, 64, 65
1, 221724, Control_c, 0, 64, 64
1, 221753, Control_c, 0, 64, 63
1, 221768, Control_c, 0, 64, 62
1, 221783, Control_c, 0, 64, 61
1, 221797, Control_c, 0, 64, 59
1, 221812, Control_c, 0, 64, 57
1, 221827, Control_c, 0, 64, 54
1, 221842, Control_c, 0, 64, 51
1, 221857, Control_c, 0, 64, 48
1, 221901, Control_c, 0, 64, 49
1, 221915, Control_c, 0, 64, 51
1, 221930, Control_c, 0, 64, 53
1, 221945, Control_c, 0, 64, 56
1, 221960, Control_c, 0, 64, 57
1, 221975, Control_c, 0, 64, 59
1, 221989, Control_c, 0, 64, 61
1, 222004, Control_c, 0, 64, 64
1, 222019, Control_c, 0, 64, 66
1, 222034, Control_c, 0, 64, 70
1, 222050, Control_c, 0, 64, 76
1, 222065, Control_c, 0, 64, 84
1, 222080, Control_c, 0, 64, 95
1, 222094, Control_c, 0, 64, 110
1, 222109, Control_c, 0, 64, 117
1, 222124, Control_c, 0, 64, 119
1, 222250, Control_c, 0, 64, 117
1, 222258, Note_on_c, 0, 66, 63
1, 222265, Control_c, 0, 64, 115
1, 222280, Control_c, 0, 64, 114
1, 222295, Control_c, 0, 64, 113
1, 222339, Control_c, 0, 64, 112
1, 222353, Control_c, 0, 64, 112
1, 222368, Control_c, 0, 64, 111
1, 222383, Control_c, 0, 64, 110
1, 222428, Control_c, 0, 64, 110
1, 222457, Control_c, 0, 64, 109
1, 222472, Note_off_c, 0, 65, 54
1, 222487, Control_c, 0, 64, 109
1, 222532, Control_c, 0, 64, 108
1, 222546, Control_c, 0, 64, 107
1, 222576, Control_c, 0, 64, 107
1, 222591, Control_c, 0, 64, 106
1, 222606, Control_c, 0, 64, 106
1, 222620, Control_c, 0, 64, 105
1, 222635, Control_c, 0, 64, 104
1, 222650, Control_c, 0, 64, 104
1, 222665, Control_c, 0, 64, 103
1, 222666, Note_on_c, 0, 68, 77
1, 222680, Control_c, 0, 64, 102
1, 222694, Control_c, 0, 64, 101
1, 222709, Control_c, 0, 64, 100
1, 222724, Control_c, 0, 64, 99
1, 222738, Control_c, 0, 64, 99
1, 222753, Control_c, 0, 64, 98
1, 222768, Control_c, 0, 64, 97
1, 222783, Control_c, 0, 64, 97
1, 222798, Control_c, 0, 64, 96
1, 222812, Note_off_c, 0, 66, 57
1, 222812, Control_c, 0, 64, 95
1, 222827, Control_c, 0, 64, 94
1, 222843, Control_c, 0, 64, 93
1, 222858, Control_c, 0, 64, 93
1, 222873, Control_c, 0, 64, 92
1, 222903, Control_c, 0, 64, 91
1, 222917, Control_c, 0, 64, 91
1, 222932, Control_c, 0, 64, 90
1, 222955, Control_c, 0, 64, 90
1, 222969, Control_c, 0, 64, 89
1, 222981, Note_on_c, 0, 69, 87
1, 222984, Control_c, 0, 64, 88
1, 222999, Control_c, 0, 64, 88
1, 223014, Control_c, 0, 64, 87
1, 223029, Control_c, 0, 64, 87
1, 223043, Control_c, 0, 64, 86
1, 223058, Control_c, 0, 64, 86
1, 223073, Control_c, 0, 64, 85
1, 223098, Note_off_c, 0, 68, 58
1, 223103, Control_c, 0, 64, 85
1, 223118, Control_c, 0, 64, 84
1, 223133, Control_c, 0, 64, 84
1, 223148, Control_c, 0, 64, 83
1, 223163, Control_c, 0, 64, 83
1, 223177, Control_c, 0, 64, 82
1, 223192, Control_c, 0, 64, 81
1, 223207, Control_c, 0, 64, 79
1, 223222, Control_c, 0, 64, 78
1, 223237, Control_c, 0, 64, 76
1, 223251, Control_c, 0, 64, 75
1, 223266, Control_c, 0, 64, 73
1, 223280, Note_on_c, 0, 70, 82
1, 223281, Control_c, 0, 64, 71
1, 223296, Control_c, 0, 64, 69
1, 223311, Control_c, 0, 64, 68
1, 223325, Control_c, 0, 64, 67
1, 223340, Control_c, 0, 64, 66
1, 223355, Control_c, 0, 64, 65
1, 223370, Control_c, 0, 64, 64
1, 223384, Control_c, 0, 64, 64
1, 223399, Control_c, 0, 64, 63
1, 223414, Control_c, 0, 64, 62
1, 223429, Control_c, 0, 64, 62
1, 223430, Note_off_c, 0, 69, 52
1, 223444, Control_c, 0, 64, 61
1, 223459, Control_c, 0, 64, 60
1, 223474, Control_c, 0, 64, 60
1, 223489, Control_c, 0, 64, 59
1, 223504, Control_c, 0, 64, 58
1, 223518, Control_c, 0, 64, 57
1, 223533, Control_c, 0, 64, 56
1, 223548, Control_c, 0, 64, 55
1, 223562, Control_c, 0, 64, 54
1, 223577, Control_c, 0, 64, 53
1, 223592, Control_c, 0, 64, 50
1, 223607, Control_c, 0, 64, 47
1, 223622, Control_c, 0, 64, 45
1, 223638, Control_c, 0, 64, 41
1, 223653, Control_c, 0, 64, 37
1, 223667, Control_c, 0, 64, 29
1, 223682, Control_c, 0, 64, 0
1, 223731, Note_on_c, 0, 71, 78
1, 223824, Note_off_c, 0, 70, 63
1, 223969, Control_c, 0, 64, 23
1, 223984, Control_c, 0, 64, 36
1, 223998, Control_c, 0, 64, 47
1, 224013, Control_c, 0, 64, 55
1, 224028, Control_c, 0, 64, 59
1, 224043, Control_c, 0, 64, 61
1, 224058, Control_c, 0, 64, 64
1, 224073, Control_c, 0, 64, 66
1, 224088, Control_c, 0, 64, 70
1, 224103, Control_c, 0, 64, 77
1, 224118, Control_c, 0, 64, 86
1, 224133, Control_c, 0, 64, 99
1, 224147, Control_c, 0, 64, 127
1, 224204, Note_on_c, 0, 41, 50
1, 224218, Note_on_c, 0, 63, 51
1, 224228, Note_on_c, 0, 57, 49
1, 224675, Note_off_c, 0, 57, 52
1, 224723, Note_off_c, 0, 71, 51
1, 225092, Note_off_c, 0, 41, 31
1, 225332, Note_on_c, 0, 72, 43
1, 225548, Note_off_c, 0, 72, 36
1, 225627, Note_off_c, 0, 63, 53
1, 225965, Note_on_c, 0, 34, 31
1, 226060, Note_on_c, 0, 41, 39
1, 226109, Note_on_c, 0, 46, 45
1, 226178, Note_on_c, 0, 49, 51
1, 226223, Note_on_c, 0, 53, 57
1, 226231, Control_c, 0, 64, 115
1, 226246, Control_c, 0, 64, 100
1, 226260, Control_c, 0, 64, 91
1, 226275, Control_c, 0, 64, 84
1, 226276, Note_on_c, 0, 58, 65
1, 226290, Control_c, 0, 64, 77
1, 226305, Control_c, 0, 64, 69
1, 226320, Control_c, 0, 64, 62
1, 226334, Control_c, 0, 64, 53
1, 226349, Control_c, 0, 64, 49
1, 226350, Note_on_c, 0, 61, 68
1, 226379, Control_c, 0, 64, 49
1, 226393, Control_c, 0, 64, 51
1, 226408, Control_c, 0, 64, 55
1, 226423, Control_c, 0, 64, 59
1, 226438, Control_c, 0, 64, 64
1, 226453, Control_c, 0, 64, 72
1, 226459, Note_off_c, 0, 49, 35
1, 226467, Control_c, 0, 64, 91
1, 226482, Control_c, 0, 64, 127
1, 226488, Note_off_c, 0, 34, 42
1, 226512, Note_off_c, 0, 53, 54
1, 226544, Note_off_c, 0, 41, 33
1, 226589, Note_off_c, 0, 58, 37
1, 226592, Note_off_c, 0, 46, 51
1, 226647, Note_off_c, 0, 61, 59
1, 227080, Note_on_c, 0, 73, 51
1, 227475, Note_on_c, 0, 53, 32
1, 227534, Note_on_c, 0, 65, 54
1, 227680, Note_off_c, 0, 73, 61
1, 227844, Note_off_c, 0, 65, 37
1, 227874, Note_on_c, 0, 67, 66
1, 228119, Note_on_c, 0, 65, 44
1, 228127, Note_on_c, 0, 69, 67
1, 228130, Note_on_c, 0, 61, 36
1, 228289, Note_off_c, 0, 67, 31
1, 228343, Control_c, 0, 64, 110
1, 228357, Control_c, 0, 64, 102
1, 228372, Control_c, 0, 64, 96
1, 228373, Note_off_c, 0, 53, 41
1, 228387, Control_c, 0, 64, 92
1, 228402, Control_c, 0, 64, 88
1, 228417, Control_c, 0, 64, 85
1, 228433, Note_on_c, 0, 70, 81
1, 228433, Control_c, 0, 64, 82
1, 228448, Control_c, 0, 64, 79
1, 228462, Control_c, 0, 64, 77
1, 228477, Control_c, 0, 64, 75
1, 228492, Control_c, 0, 64, 73
1, 228507, Control_c, 0, 64, 71
1, 228522, Control_c, 0, 64, 68
1, 228529, Note_off_c, 0, 69, 57
1, 228536, Control_c, 0, 64, 67
1, 228551, Control_c, 0, 64, 66
1, 228566, Control_c, 0, 64, 65
1, 228581, Control_c, 0, 64, 64
1, 228596, Control_c, 0, 64, 62
1, 228610, Control_c, 0, 64, 60
1, 228625, Control_c, 0, 64, 58
1, 228640, Control_c, 0, 64, 55
1, 228655, Control_c, 0, 64, 50
1, 228670, Control_c, 0, 64, 39
1, 228684, Control_c, 0, 64, 0
1, 228694, Note_on_c, 0, 53, 55
1, 228758, Note_off_c, 0, 65, 56
1, 228774, Control_c, 0, 64, 36
1, 228788, Control_c, 0, 64, 61
1, 228803, Control_c, 0, 64, 76
1, 228818, Control_c, 0, 64, 116
1, 228826, Note_off_c, 0, 61, 62
1, 228831, Note_off_c, 0, 53, 62
1, 228833, Control_c, 0, 64, 127
1, 228973, Note_on_c, 0, 72, 75
1, 229034, Note_off_c, 0, 70, 60
1, 229038, Note_off_c, 0, 72, 63
1, 229047, Note_on_c, 0, 37, 48
1, 229102, Note_on_c, 0, 44, 56
1, 229138, Note_on_c, 0, 49, 57
1, 229144, Note_off_c, 0, 37, 52
1, 229209, Note_off_c, 0, 44, 53
1, 229225, Note_on_c, 0, 53, 64
1, 229268, Note_off_c, 0, 49, 60
1, 229272, Note_on_c, 0, 56, 70
1, 229319, Note_on_c, 0, 61, 72
1, 229325, Note_off_c, 0, 53, 45
1, 229385, Note_on_c, 0, 65, 74
1, 229404, Note_off_c, 0, 56, 62
1, 229439, Note_off_c, 0, 61, 60
1, 229523, Note_off_c, 0, 65, 61
1, 229743, Note_on_c, 0, 73, 76
1, 230008, Note_on_c, 0, 75, 84
1, 230019, Note_on_c, 0, 56, 40
1, 230184, Note_off_c, 0, 73, 37
1, 230252, Note_on_c, 0, 76, 88
1, 230474, Note_on_c, 0, 68, 49
1, 230481, Note_on_c, 0, 61, 42
1, 230521, Note_on_c, 0, 77, 81
1, 230530, Control_c, 0, 64, 119
1, 230545, Control_c, 0, 64, 106
1, 230560, Control_c, 0, 64, 98
1, 230575, Control_c, 0, 64, 93
1, 230589, Control_c, 0, 64, 90
1, 230604, Control_c, 0, 64, 86
1, 230620, Control_c, 0, 64, 83
1, 230622, Note_off_c, 0, 75, 32
1, 230634, Control_c, 0, 64, 79
1, 230647, Note_off_c, 0, 76, 59
1, 230649, Control_c, 0, 64, 76
1, 230664, Control_c, 0, 64, 74
1, 230679, Control_c, 0, 64, 72
1, 230694, Control_c, 0, 64, 70
1, 230709, Control_c, 0, 64, 68
1, 230723, Control_c, 0, 64, 66
1, 230738, Control_c, 0, 64, 64
1, 230753, Note_off_c, 0, 56, 33
1, 230753, Control_c, 0, 64, 63
1, 230768, Control_c, 0, 64, 62
1, 230783, Control_c, 0, 64, 61
1, 230798, Control_c, 0, 64, 60
1, 230813, Control_c, 0, 64, 58
1, 230828, Control_c, 0, 64, 56
1, 230843, Control_c, 0, 64, 54
1, 230858, Control_c, 0, 64, 50
1, 230859, Note_on_c, 0, 78, 77
1, 230872, Control_c, 0, 64, 44
1, 230887, Control_c, 0, 64, 36
1, 230902, Control_c, 0, 64, 25
1, 230917, Control_c, 0, 64, 0
1, 230972, Note_off_c, 0, 77, 55
1, 231095, Control_c, 0, 64, 34
1, 231097, Note_on_c, 0, 56, 48
1, 231110, Control_c, 0, 64, 55
1, 231124, Control_c, 0, 64, 66
1, 231139, Control_c, 0, 64, 74
1, 231154, Control_c, 0, 64, 90
1, 231156, Note_off_c, 0, 68, 58
1, 231169, Control_c, 0, 64, 127
1, 231249, Note_off_c, 0, 61, 58
1, 231261, Note_off_c, 0, 56, 63
1, 231386, Note_on_c, 0, 77, 71
1, 231441, Note_off_c, 0, 77, 65
1, 231448, Note_off_c, 0, 78, 63
1, 231475, Note_on_c, 0, 39, 44
1, 231523, Note_on_c, 0, 46, 53
1, 231567, Note_on_c, 0, 51, 54
1, 231621, Note_off_c, 0, 39, 35
1, 231649, Note_on_c, 0, 54, 51
1, 231660, Note_off_c, 0, 46, 48
1, 231694, Note_off_c, 0, 51, 58
1, 231698, Note_on_c, 0, 58, 70
1, 231712, Note_off_c, 0, 54, 58
1, 231749, Note_on_c, 0, 63, 70
1, 231802, Note_off_c, 0, 58, 58
1, 231813, Note_on_c, 0, 66, 69
1, 231866, Note_off_c, 0, 63, 60
1, 231938, Note_off_c, 0, 66, 60
1, 232121, Note_on_c, 0, 75, 65
1, 232382, Note_on_c, 0, 58, 40
1, 232385, Note_on_c, 0, 73, 81
1, 232624, Note_on_c, 0, 72, 85
1, 232689, Note_off_c, 0, 75, 34
1, 232788, Note_off_c, 0, 73, 37
1, 232842, Note_on_c, 0, 70, 47
1, 232852, Note_on_c, 0, 66, 43
1, 232882, Note_on_c, 0, 75, 72
1, 232910, Control_c, 0, 64, 114
1, 232925, Control_c, 0, 64, 105
1, 232940, Control_c, 0, 64, 100
1, 232955, Control_c, 0, 64, 94
1, 232970, Control_c, 0, 64, 88
1, 232984, Control_c, 0, 64, 82
1, 232999, Control_c, 0, 64, 76
1, 233014, Control_c, 0, 64, 73
1, 233028, Control_c, 0, 64, 70
1, 233043, Control_c, 0, 64, 66
1, 233049, Note_off_c, 0, 72, 60
1, 233058, Control_c, 0, 64, 63
1, 233073, Control_c, 0, 64, 61
1, 233080, Note_off_c, 0, 58, 51
1, 233102, Control_c, 0, 64, 61
1, 233117, Control_c, 0, 64, 59
1, 233132, Control_c, 0, 64, 56
1, 233147, Control_c, 0, 64, 50
1, 233153, Note_on_c, 0, 77, 75
1, 233162, Control_c, 0, 64, 40
1, 233177, Control_c, 0, 64, 0
1, 233257, Note_off_c, 0, 75, 55
1, 233370, Control_c, 0, 64, 39
1, 233385, Control_c, 0, 64, 57
1, 233398, Note_on_c, 0, 58, 40
1, 233400, Control_c, 0, 64, 65
1, 233415, Control_c, 0, 64, 71
1, 233431, Note_off_c, 0, 70, 62
1, 233437, Control_c, 0, 64, 84
1, 233452, Control_c, 0, 64, 127
1, 233487, Note_off_c, 0, 66, 61
1, 233508, Note_off_c, 0, 58, 63
1, 233639, Note_on_c, 0, 75, 61
1, 233647, Note_off_c, 0, 77, 59
1, 233700, Note_off_c, 0, 75, 60
1, 233723, Note_on_c, 0, 42, 51
1, 233784, Note_on_c, 0, 49, 46
1, 233819, Note_on_c, 0, 54, 55
1, 233823, Note_off_c, 0, 42, 55
1, 233877, Note_on_c, 0, 57, 57
1, 233903, Note_off_c, 0, 49, 54
1, 233925, Note_on_c, 0, 63, 57
1, 233940, Note_off_c, 0, 54, 59
1, 233960, Note_on_c, 0, 66, 62
1, 234029, Note_on_c, 0, 69, 66
1, 234034, Note_off_c, 0, 57, 37
1, 234103, Note_off_c, 0, 63, 51
1, 234106, Note_off_c, 0, 66, 60
1, 234187, Note_off_c, 0, 69, 59
1, 234390, Note_on_c, 0, 73, 58
1, 234631, Note_on_c, 0, 57, 38
1, 234635, Note_on_c, 0, 72, 64
1, 234716, Note_off_c, 0, 73, 60
1, 234879, Note_on_c, 0, 73, 73
1, 234945, Note_off_c, 0, 72, 59
1, 235023, Note_off_c, 0, 73, 62
1, 235126, Control_c, 0, 64, 119
1, 235128, Note_on_c, 0, 63, 32
1, 235131, Note_on_c, 0, 66, 32
1, 235141, Control_c, 0, 64, 107
1, 235149, Note_on_c, 0, 73, 56
1, 235156, Control_c, 0, 64, 99
1, 235171, Control_c, 0, 64, 93
1, 235186, Control_c, 0, 64, 89
1, 235201, Control_c, 0, 64, 85
1, 235216, Control_c, 0, 64, 82
1, 235230, Control_c, 0, 64, 79
1, 235245, Control_c, 0, 64, 77
1, 235260, Control_c, 0, 64, 75
1, 235275, Control_c, 0, 64, 72
1, 235282, Note_off_c, 0, 57, 32
1, 235290, Control_c, 0, 64, 70
1, 235304, Control_c, 0, 64, 69
1, 235319, Control_c, 0, 64, 67
1, 235334, Control_c, 0, 64, 66
1, 235349, Control_c, 0, 64, 65
1, 235364, Control_c, 0, 64, 64
1, 235378, Control_c, 0, 64, 64
1, 235393, Control_c, 0, 64, 63
1, 235408, Control_c, 0, 64, 63
1, 235409, Note_on_c, 0, 75, 55
1, 235422, Control_c, 0, 64, 62
1, 235437, Control_c, 0, 64, 61
1, 235452, Control_c, 0, 64, 60
1, 235467, Control_c, 0, 64, 60
1, 235472, Note_off_c, 0, 73, 57
1, 235482, Control_c, 0, 64, 58
1, 235496, Control_c, 0, 64, 56
1, 235511, Control_c, 0, 64, 52
1, 235526, Control_c, 0, 64, 45
1, 235541, Control_c, 0, 64, 38
1, 235556, Control_c, 0, 64, 35
1, 235600, Control_c, 0, 64, 39
1, 235616, Control_c, 0, 64, 45
1, 235631, Control_c, 0, 64, 51
1, 235640, Note_on_c, 0, 57, 38
1, 235645, Control_c, 0, 64, 57
1, 235660, Control_c, 0, 64, 62
1, 235683, Control_c, 0, 64, 65
1, 235698, Control_c, 0, 64, 69
1, 235713, Control_c, 0, 64, 76
1, 235727, Control_c, 0, 64, 88
1, 235742, Control_c, 0, 64, 112
1, 235756, Note_off_c, 0, 66, 46
1, 235757, Control_c, 0, 64, 127
1, 235776, Note_off_c, 0, 63, 54
1, 235778, Note_off_c, 0, 57, 63
1, 235896, Note_on_c, 0, 73, 55
1, 235931, Note_off_c, 0, 75, 60
1, 235950, Note_off_c, 0, 73, 62
1, 236000, Note_on_c, 0, 46, 40
1, 236067, Note_on_c, 0, 53, 42
1, 236079, Note_on_c, 0, 58, 46
1, 236126, Note_on_c, 0, 61, 55
1, 236172, Note_on_c, 0, 65, 55
1, 236187, Control_c, 0, 64, 101
1, 236201, Control_c, 0, 64, 91
1, 236212, Note_on_c, 0, 70, 63
1, 236216, Control_c, 0, 64, 85
1, 236231, Control_c, 0, 64, 80
1, 236245, Control_c, 0, 64, 76
1, 236260, Control_c, 0, 64, 70
1, 236271, Note_on_c, 0, 73, 59
1, 236275, Control_c, 0, 64, 64
1, 236290, Control_c, 0, 64, 55
1, 236305, Control_c, 0, 64, 46
1, 236319, Control_c, 0, 64, 45
1, 236334, Control_c, 0, 64, 46
1, 236349, Control_c, 0, 64, 50
1, 236364, Control_c, 0, 64, 56
1, 236379, Control_c, 0, 64, 62
1, 236393, Control_c, 0, 64, 67
1, 236400, Note_off_c, 0, 65, 58
1, 236408, Control_c, 0, 64, 76
1, 236423, Note_off_c, 0, 46, 37
1, 236432, Control_c, 0, 64, 92
1, 236436, Note_off_c, 0, 70, 39
1, 236443, Note_off_c, 0, 61, 38
1, 236447, Control_c, 0, 64, 127
1, 236480, Note_off_c, 0, 53, 40
1, 236545, Note_off_c, 0, 58, 54
1, 236684, Note_on_c, 0, 72, 62
1, 236978, Note_on_c, 0, 53, 39
1, 236985, Note_on_c, 0, 70, 76
1, 237127, Note_off_c, 0, 73, 23
1, 237241, Note_on_c, 0, 67, 82
1, 237319, Note_off_c, 0, 70, 60
1, 237356, Note_off_c, 0, 72, 19
1, 237439, Note_on_c, 0, 65, 50
1, 237466, Note_on_c, 0, 61, 46
1, 237486, Note_on_c, 0, 69, 81
1, 237547, Note_off_c, 0, 67, 56
1, 237743, Control_c, 0, 64, 112
1, 237758, Control_c, 0, 64, 105
1, 237773, Control_c, 0, 64, 100
1, 237788, Control_c, 0, 64, 96
1, 237792, Note_on_c, 0, 70, 84
1, 237792, Note_off_c, 0, 53, 39
1, 237803, Control_c, 0, 64, 92
1, 237818, Control_c, 0, 64, 88
1, 237833, Control_c, 0, 64, 84
1, 237847, Control_c, 0, 64, 81
1, 237862, Control_c, 0, 64, 79
1, 237877, Control_c, 0, 64, 76
1, 237891, Control_c, 0, 64, 74
1, 237898, Note_off_c, 0, 69, 53
1, 237906, Control_c, 0, 64, 72
1, 237928, Control_c, 0, 64, 70
1, 237943, Control_c, 0, 64, 69
1, 237958, Control_c, 0, 64, 68
1, 237973, Control_c, 0, 64, 67
1, 237988, Control_c, 0, 64, 66
1, 238003, Control_c, 0, 64, 65
1, 238018, Control_c, 0, 64, 63
1, 238033, Control_c, 0, 64, 62
1, 238039, Note_on_c, 0, 53, 63
1, 238048, Control_c, 0, 64, 58
1, 238063, Control_c, 0, 64, 53
1, 238077, Control_c, 0, 64, 44
1, 238092, Control_c, 0, 64, 30
1, 238107, Control_c, 0, 64, 12
1, 238122, Control_c, 0, 64, 11
1, 238137, Control_c, 0, 64, 24
1, 238152, Control_c, 0, 64, 43
1, 238161, Note_off_c, 0, 65, 60
1, 238167, Control_c, 0, 64, 58
1, 238182, Control_c, 0, 64, 68
1, 238191, Note_off_c, 0, 53, 58
1, 238196, Note_off_c, 0, 61, 61
1, 238196, Control_c, 0, 64, 80
1, 238211, Control_c, 0, 64, 127
1, 238275, Note_on_c, 0, 72, 81
1, 238350, Note_off_c, 0, 70, 60
1, 238361, Note_on_c, 0, 49, 56
1, 238392, Note_off_c, 0, 72, 62
1, 238410, Note_on_c, 0, 56, 63
1, 238444, Note_on_c, 0, 61, 74
1, 238444, Note_off_c, 0, 49, 58
1, 238493, Note_on_c, 0, 65, 64
1, 238521, Note_off_c, 0, 56, 57
1, 238532, Note_on_c, 0, 68, 70
1, 238563, Note_on_c, 0, 73, 80
1, 238575, Note_off_c, 0, 65, 62
1, 238605, Note_off_c, 0, 61, 58
1, 238618, Note_on_c, 0, 77, 81
1, 238670, Note_off_c, 0, 68, 61
1, 238699, Note_off_c, 0, 73, 62
1, 238923, Note_on_c, 0, 73, 84
1, 239019, Note_off_c, 0, 77, 56
1, 239152, Note_on_c, 0, 56, 43
1, 239156, Note_on_c, 0, 75, 87
1, 239231, Note_off_c, 0, 73, 57
1, 239338, Note_off_c, 0, 75, 63
1, 239388, Note_on_c, 0, 76, 96
1, 239572, Note_off_c, 0, 76, 62
1, 239604, Note_on_c, 0, 68, 56
1, 239611, Note_on_c, 0, 61, 48
1, 239664, Note_on_c, 0, 77, 90
1, 239842, Control_c, 0, 64, 110
1, 239857, Control_c, 0, 64, 104
1, 239872, Control_c, 0, 64, 102
1, 239878, Note_off_c, 0, 56, 41
1, 239887, Control_c, 0, 64, 99
1, 239901, Control_c, 0, 64, 97
1, 239916, Control_c, 0, 64, 94
1, 239931, Control_c, 0, 64, 91
1, 239946, Control_c, 0, 64, 88
1, 239961, Control_c, 0, 64, 86
1, 239975, Control_c, 0, 64, 83
1, 239990, Control_c, 0, 64, 81
1, 239991, Note_on_c, 0, 78, 85
1, 240005, Control_c, 0, 64, 79
1, 240020, Control_c, 0, 64, 77
1, 240035, Control_c, 0, 64, 75
1, 240049, Control_c, 0, 64, 73
1, 240063, Note_off_c, 0, 77, 53
1, 240064, Control_c, 0, 64, 72
1, 240079, Control_c, 0, 64, 70
1, 240093, Control_c, 0, 64, 69
1, 240108, Control_c, 0, 64, 67
1, 240123, Control_c, 0, 64, 66
1, 240138, Control_c, 0, 64, 66
1, 240153, Control_c, 0, 64, 65
1, 240175, Control_c, 0, 64, 64
1, 240190, Control_c, 0, 64, 64
1, 240205, Control_c, 0, 64, 63
1, 240220, Control_c, 0, 64, 62
1, 240235, Control_c, 0, 64, 59
1, 240244, Note_on_c, 0, 56, 57
1, 240249, Control_c, 0, 64, 54
1, 240264, Control_c, 0, 64, 44
1, 240279, Control_c, 0, 64, 34
1, 240293, Control_c, 0, 64, 30
1, 240308, Control_c, 0, 64, 31
1, 240323, Control_c, 0, 64, 42
1, 240338, Control_c, 0, 64, 55
1, 240353, Control_c, 0, 64, 65
1, 240367, Control_c, 0, 64, 74
1, 240382, Control_c, 0, 64, 101
1, 240397, Control_c, 0, 64, 127
1, 240399, Note_off_c, 0, 68, 60
1, 240452, Note_off_c, 0, 56, 62
1, 240459, Note_off_c, 0, 61, 59
1, 240504, Note_on_c, 0, 77, 83
1, 240612, Note_on_c, 0, 51, 52
1, 240618, Note_off_c, 0, 77, 61
1, 240660, Note_on_c, 0, 58, 58
1, 240667, Note_off_c, 0, 51, 59
1, 240702, Note_off_c, 0, 78, 62
1, 240712, Note_on_c, 0, 70, 56
1, 240736, Note_off_c, 0, 58, 61
1, 240752, Note_on_c, 0, 63, 49
1, 240759, Note_on_c, 0, 75, 67
1, 240789, Note_off_c, 0, 70, 56
1, 240806, Note_on_c, 0, 78, 80
1, 240875, Note_on_c, 0, 82, 79
1, 240889, Note_off_c, 0, 75, 55
1, 240912, Note_on_c, 0, 66, 49
1, 240929, Note_off_c, 0, 78, 61
1, 240978, Note_off_c, 0, 63, 28
1, 241241, Note_on_c, 0, 75, 69
1, 241417, Note_off_c, 0, 82, 53
1, 241487, Note_on_c, 0, 58, 37
1, 241505, Note_on_c, 0, 73, 81
1, 241610, Note_off_c, 0, 75, 56
1, 241722, Note_off_c, 0, 66, 33
1, 241738, Note_on_c, 0, 72, 86
1, 241802, Note_off_c, 0, 73, 59
1, 241961, Note_on_c, 0, 70, 46
1, 241974, Note_on_c, 0, 66, 43
1, 241988, Note_on_c, 0, 75, 69
1, 242059, Control_c, 0, 64, 109
1, 242074, Control_c, 0, 64, 98
1, 242089, Control_c, 0, 64, 92
1, 242104, Control_c, 0, 64, 89
1, 242116, Note_off_c, 0, 72, 56
1, 242118, Control_c, 0, 64, 85
1, 242133, Control_c, 0, 64, 82
1, 242148, Control_c, 0, 64, 78
1, 242160, Note_off_c, 0, 58, 37
1, 242162, Control_c, 0, 64, 75
1, 242177, Control_c, 0, 64, 72
1, 242192, Control_c, 0, 64, 71
1, 242207, Control_c, 0, 64, 69
1, 242222, Control_c, 0, 64, 68
1, 242236, Control_c, 0, 64, 66
1, 242251, Control_c, 0, 64, 64
1, 242264, Note_on_c, 0, 77, 66
1, 242266, Control_c, 0, 64, 63
1, 242280, Control_c, 0, 64, 62
1, 242295, Control_c, 0, 64, 61
1, 242310, Control_c, 0, 64, 59
1, 242325, Control_c, 0, 64, 56
1, 242336, Note_off_c, 0, 75, 58
1, 242340, Control_c, 0, 64, 52
1, 242355, Control_c, 0, 64, 45
1, 242370, Control_c, 0, 64, 37
1, 242385, Control_c, 0, 64, 30
1, 242400, Control_c, 0, 64, 29
1, 242451, Control_c, 0, 64, 31
1, 242466, Control_c, 0, 64, 36
1, 242481, Control_c, 0, 64, 43
1, 242495, Control_c, 0, 64, 51
1, 242510, Control_c, 0, 64, 56
1, 242516, Note_on_c, 0, 58, 38
1, 242525, Control_c, 0, 64, 61
1, 242540, Control_c, 0, 64, 65
1, 242555, Control_c, 0, 64, 71
1, 242570, Control_c, 0, 64, 81
1, 242584, Control_c, 0, 64, 103
1, 242599, Control_c, 0, 64, 127
1, 242612, Note_off_c, 0, 70, 55
1, 242651, Note_off_c, 0, 66, 52
1, 242653, Note_off_c, 0, 58, 60
1, 242771, Note_off_c, 0, 77, 61
1, 242779, Note_on_c, 0, 75, 42
1, 242822, Note_off_c, 0, 75, 63
1, 242838, Control_c, 0, 67, 12
1, 242853, Control_c, 0, 67, 23
1, 242867, Control_c, 0, 67, 34
1, 242882, Control_c, 0, 67, 44
1, 242897, Control_c, 0, 67, 51
1, 242911, Control_c, 0, 67, 56
1, 242916, Note_on_c, 0, 54, 36
1, 242926, Control_c, 0, 67, 62
1, 242941, Control_c, 0, 67, 68
1, 242956, Control_c, 0, 67, 75
1, 242961, Note_off_c, 0, 54, 48
1, 242971, Control_c, 0, 67, 84
1, 242985, Control_c, 0, 67, 91
1, 243000, Control_c, 0, 67, 98
1, 243006, Note_on_c, 0, 61, 35
1, 243015, Control_c, 0, 67, 105
1, 243030, Control_c, 0, 67, 112
1, 243040, Note_on_c, 0, 73, 40
1, 243045, Control_c, 0, 67, 119
1, 243059, Control_c, 0, 67, 125
1, 243074, Control_c, 0, 67, 127
1, 243079, Note_on_c, 0, 78, 40
1, 243091, Note_off_c, 0, 73, 54
1, 243116, Note_off_c, 0, 78, 52
1, 243130, Note_on_c, 0, 81, 47
1, 243216, Note_on_c, 0, 85, 58
1, 243231, Note_off_c, 0, 81, 57
1, 243239, Note_on_c, 0, 66, 37
1, 243239, Note_on_c, 0, 69, 32
1, 243291, Note_off_c, 0, 85, 58
1, 243385, Note_off_c, 0, 61, 34
1, 243662, Note_on_c, 0, 73, 45
1, 243942, Note_on_c, 0, 72, 57
1, 243945, Note_on_c, 0, 63, 28
1, 243990, Note_off_c, 0, 73, 59
1, 244088, Note_off_c, 0, 66, 39
1, 244105, Note_off_c, 0, 69, 40
1, 244175, Note_on_c, 0, 73, 79
1, 244221, Note_off_c, 0, 72, 38
1, 244321, Note_off_c, 0, 73, 62
1, 244435, Note_on_c, 0, 69, 36
1, 244436, Note_on_c, 0, 66, 33
1, 244446, Note_on_c, 0, 73, 65
1, 244498, Control_c, 0, 64, 115
1, 244513, Control_c, 0, 64, 103
1, 244528, Control_c, 0, 64, 94
1, 244543, Control_c, 0, 64, 87
1, 244557, Control_c, 0, 64, 82
1, 244572, Control_c, 0, 64, 78
1, 244587, Control_c, 0, 64, 75
1, 244602, Control_c, 0, 64, 73
1, 244617, Control_c, 0, 64, 72
1, 244631, Control_c, 0, 64, 70
1, 244646, Control_c, 0, 64, 68
1, 244647, Note_off_c, 0, 63, 33
1, 244668, Control_c, 0, 64, 68
1, 244697, Note_off_c, 0, 73, 49
1, 244698, Control_c, 0, 64, 67
1, 244713, Control_c, 0, 64, 66
1, 244728, Control_c, 0, 64, 65
1, 244750, Note_on_c, 0, 75, 55
1, 244757, Control_c, 0, 64, 65
1, 244772, Control_c, 0, 64, 64
1, 244787, Control_c, 0, 64, 64
1, 244802, Control_c, 0, 64, 63
1, 244817, Control_c, 0, 64, 63
1, 244861, Control_c, 0, 64, 62
1, 244876, Control_c, 0, 64, 62
1, 244906, Control_c, 0, 64, 61
1, 244920, Control_c, 0, 64, 61
1, 244935, Control_c, 0, 64, 60
1, 244950, Control_c, 0, 64, 60
1, 244964, Control_c, 0, 64, 59
1, 244979, Control_c, 0, 64, 58
1, 244994, Control_c, 0, 64, 57
1, 245009, Control_c, 0, 64, 55
1, 245024, Control_c, 0, 64, 52
1, 245026, Note_on_c, 0, 63, 29
1, 245038, Control_c, 0, 64, 48
1, 245053, Control_c, 0, 64, 47
1, 245082, Control_c, 0, 64, 47
1, 245097, Control_c, 0, 64, 50
1, 245112, Control_c, 0, 64, 54
1, 245127, Control_c, 0, 64, 57
1, 245142, Control_c, 0, 64, 61
1, 245157, Note_off_c, 0, 75, 25
1, 245157, Control_c, 0, 64, 64
1, 245157, Control_c, 0, 67, 126
1, 245172, Control_c, 0, 64, 68
1, 245172, Control_c, 0, 67, 125
1, 245187, Control_c, 0, 64, 74
1, 245187, Control_c, 0, 67, 124
1, 245202, Control_c, 0, 64, 82
1, 245202, Control_c, 0, 67, 123
1, 245217, Control_c, 0, 64, 92
1, 245217, Control_c, 0, 67, 122
1, 245232, Control_c, 0, 64, 101
1, 245247, Control_c, 0, 64, 110
1, 245258, Note_off_c, 0, 63, 37
1, 245260, Note_off_c, 0, 69, 40
1, 245261, Control_c, 0, 64, 119
1, 245276, Control_c, 0, 64, 122
1, 245299, Note_off_c, 0, 66, 35
1, 245306, Control_c, 0, 67, 123
1, 245321, Control_c, 0, 64, 120
1, 245336, Control_c, 0, 64, 116
1, 245336, Control_c, 0, 67, 124
1, 245351, Control_c, 0, 64, 112
1, 245359, Note_on_c, 0, 73, 43
1, 245366, Control_c, 0, 64, 109
1, 245366, Control_c, 0, 67, 124
1, 245380, Control_c, 0, 64, 105
1, 245395, Control_c, 0, 64, 100
1, 245395, Control_c, 0, 67, 125
1, 245417, Control_c, 0, 64, 93
1, 245432, Control_c, 0, 64, 83
1, 245447, Control_c, 0, 64, 71
1, 245461, Control_c, 0, 64, 61
1, 245476, Control_c, 0, 64, 47
1, 245491, Control_c, 0, 64, 48
1, 245506, Control_c, 0, 64, 51
1, 245513, Note_on_c, 0, 58, 35
1, 245521, Control_c, 0, 64, 55
1, 245536, Control_c, 0, 64, 61
1, 245550, Control_c, 0, 64, 66
1, 245565, Control_c, 0, 64, 76
1, 245574, Note_off_c, 0, 73, 62
1, 245580, Control_c, 0, 64, 94
1, 245594, Control_c, 0, 64, 127
1, 245628, Note_off_c, 0, 58, 58
1, 245786, Control_c, 0, 67, 124
1, 245816, Control_c, 0, 67, 124
1, 245846, Control_c, 0, 67, 123
1, 245860, Control_c, 0, 67, 122
1, 245875, Control_c, 0, 67, 122
1, 245890, Control_c, 0, 67, 121
1, 245893, Note_on_c, 0, 89, 57
1, 245905, Control_c, 0, 67, 120
1, 245905, Note_on_c, 0, 73, 35
1, 245922, Note_on_c, 0, 82, 33
1, 245929, Note_on_c, 0, 77, 40
1, 245929, Note_on_c, 0, 85, 33
1, 245930, Note_on_c, 0, 65, 32
1, 245935, Control_c, 0, 67, 119
1, 245936, Note_on_c, 0, 70, 31
1, 245950, Control_c, 0, 67, 119
1, 245965, Control_c, 0, 67, 117
1, 245979, Control_c, 0, 67, 117
1, 245994, Control_c, 0, 67, 116
1, 246009, Control_c, 0, 67, 113
1, 246024, Control_c, 0, 67, 107
1, 246039, Control_c, 0, 67, 101
1, 246054, Control_c, 0, 67, 95
1, 246057, Note_off_c, 0, 89, 61
1, 246069, Control_c, 0, 67, 90
1, 246083, Note_off_c, 0, 85, 43
1, 246084, Control_c, 0, 67, 87
1, 246099, Control_c, 0, 67, 82
1, 246114, Control_c, 0, 67, 78
1, 246124, Note_off_c, 0, 77, 36
1, 246126, Note_off_c, 0, 82, 40
1, 246128, Control_c, 0, 67, 72
1, 246143, Control_c, 0, 67, 67
1, 246164, Note_off_c, 0, 73, 47
1, 246165, Control_c, 0, 67, 61
1, 246180, Control_c, 0, 67, 56
1, 246195, Control_c, 0, 67, 51
1, 246209, Control_c, 0, 67, 46
1, 246224, Note_off_c, 0, 70, 42
1, 246224, Control_c, 0, 67, 42
1, 246239, Control_c, 0, 67, 39
1, 246254, Control_c, 0, 67, 35
1, 246269, Control_c, 0, 67, 32
1, 246275, Note_off_c, 0, 65, 39
1, 246284, Control_c, 0, 67, 30
1, 246299, Control_c, 0, 67, 28
1, 246314, Control_c, 0, 67, 27
1, 246328, Control_c, 0, 67, 26
1, 246343, Control_c, 0, 67, 24
1, 246358, Control_c, 0, 67, 22
1, 246373, Control_c, 0, 67, 19
1, 246388, Control_c, 0, 67, 16
1, 246403, Control_c, 0, 67, 12
1, 246417, Control_c, 0, 67, 8
1, 246432, Control_c, 0, 67, 0
1, 246551, Note_on_c, 0, 70, 48
1, 246854, Note_on_c, 0, 65, 37
1, 246876, Note_on_c, 0, 61, 37
1, 246910, Note_on_c, 0, 67, 56
1, 247007, Note_off_c, 0, 70, 58
1, 247146, Note_off_c, 0, 65, 40
1, 247172, Note_on_c, 0, 69, 73
1, 247269, Note_off_c, 0, 67, 52
1, 247393, Note_on_c, 0, 66, 46
1, 247395, Note_on_c, 0, 70, 74
1, 247402, Note_on_c, 0, 63, 42
1, 247432, Control_c, 0, 64, 113
1, 247447, Control_c, 0, 64, 98
1, 247462, Control_c, 0, 64, 88
1, 247477, Control_c, 0, 64, 78
1, 247492, Control_c, 0, 64, 70
1, 247496, Note_off_c, 0, 61, 31
1, 247506, Control_c, 0, 64, 63
1, 247509, Note_off_c, 0, 69, 54
1, 247521, Control_c, 0, 64, 60
1, 247580, Control_c, 0, 64, 60
1, 247595, Control_c, 0, 64, 61
1, 247611, Control_c, 0, 64, 63
1, 247626, Control_c, 0, 64, 65
1, 247633, Note_on_c, 0, 72, 79
1, 247641, Control_c, 0, 64, 67
1, 247653, Note_off_c, 0, 66, 54
1, 247663, Control_c, 0, 64, 71
1, 247678, Control_c, 0, 64, 77
1, 247693, Control_c, 0, 64, 87
1, 247708, Control_c, 0, 64, 107
1, 247723, Control_c, 0, 64, 127
1, 247865, Note_on_c, 0, 57, 46
1, 247869, Note_on_c, 0, 54, 51
1, 247885, Control_c, 0, 64, 104
1, 247900, Control_c, 0, 64, 90
1, 247915, Control_c, 0, 64, 79
1, 247929, Control_c, 0, 64, 73
1, 247944, Control_c, 0, 64, 70
1, 247959, Control_c, 0, 64, 71
1, 247974, Control_c, 0, 64, 72
1, 247979, Note_off_c, 0, 63, 52
1, 247989, Control_c, 0, 64, 74
1, 248004, Control_c, 0, 64, 77
1, 248019, Control_c, 0, 64, 83
1, 248034, Control_c, 0, 64, 93
1, 248048, Control_c, 0, 64, 116
1, 248063, Control_c, 0, 64, 127
1, 248101, Note_off_c, 0, 57, 54
1, 248132, Note_on_c, 0, 73, 72
1, 248146, Note_off_c, 0, 54, 36
1, 248314, Control_c, 0, 64, 113
1, 248318, Note_off_c, 0, 70, 35
1, 248323, Note_off_c, 0, 72, 45
1, 248329, Control_c, 0, 64, 104
1, 248344, Control_c, 0, 64, 95
1, 248359, Control_c, 0, 64, 89
1, 248373, Control_c, 0, 64, 85
1, 248388, Control_c, 0, 64, 82
1, 248412, Control_c, 0, 64, 80
1, 248427, Control_c, 0, 64, 77
1, 248430, Note_on_c, 0, 46, 49
1, 248442, Control_c, 0, 64, 73
1, 248457, Control_c, 0, 64, 67
1, 248472, Control_c, 0, 64, 62
1, 248486, Control_c, 0, 64, 55
1, 248501, Control_c, 0, 64, 51
1, 248516, Control_c, 0, 64, 50
1, 248531, Control_c, 0, 64, 51
1, 248546, Control_c, 0, 64, 53
1, 248560, Control_c, 0, 64, 57
1, 248575, Control_c, 0, 64, 60
1, 248589, Control_c, 0, 64, 64
1, 248603, Control_c, 0, 64, 68
1, 248618, Control_c, 0, 64, 75
1, 248633, Control_c, 0, 64, 88
1, 248648, Control_c, 0, 64, 109
1, 248663, Control_c, 0, 64, 127
1, 248668, Note_off_c, 0, 46, 57
1, 248785, Note_on_c, 0, 70, 69
1, 248977, Note_off_c, 0, 73, 38
1, 249005, Note_on_c, 0, 65, 49
1, 249020, Note_on_c, 0, 61, 44
1, 249029, Note_on_c, 0, 53, 44
1, 249044, Note_on_c, 0, 67, 73
1, 249143, Note_off_c, 0, 70, 61
1, 249235, Note_off_c, 0, 53, 40
1, 249272, Note_on_c, 0, 69, 84
1, 249302, Note_off_c, 0, 65, 56
1, 249323, Note_off_c, 0, 61, 60
1, 249338, Note_off_c, 0, 67, 54
1, 249506, Note_on_c, 0, 70, 75
1, 249511, Note_on_c, 0, 66, 47
1, 249518, Note_on_c, 0, 63, 43
1, 249531, Control_c, 0, 64, 117
1, 249546, Control_c, 0, 64, 102
1, 249560, Control_c, 0, 64, 92
1, 249575, Control_c, 0, 64, 84
1, 249577, Note_off_c, 0, 69, 57
1, 249590, Control_c, 0, 64, 78
1, 249605, Control_c, 0, 64, 72
1, 249619, Control_c, 0, 64, 65
1, 249634, Control_c, 0, 64, 60
1, 249649, Control_c, 0, 64, 55
1, 249664, Control_c, 0, 64, 56
1, 249679, Control_c, 0, 64, 57
1, 249694, Control_c, 0, 64, 59
1, 249709, Control_c, 0, 64, 61
1, 249724, Control_c, 0, 64, 63
1, 249739, Control_c, 0, 64, 66
1, 249753, Control_c, 0, 64, 73
1, 249768, Control_c, 0, 64, 84
1, 249769, Note_on_c, 0, 72, 71
1, 249783, Control_c, 0, 64, 101
1, 249798, Control_c, 0, 64, 127
1, 249835, Note_off_c, 0, 66, 34
1, 249998, Control_c, 0, 64, 113
1, 250010, Note_on_c, 0, 57, 46
1, 250013, Control_c, 0, 64, 105
1, 250014, Note_on_c, 0, 54, 40
1, 250028, Control_c, 0, 64, 100
1, 250043, Control_c, 0, 64, 94
1, 250058, Control_c, 0, 64, 88
1, 250072, Control_c, 0, 64, 80
1, 250087, Control_c, 0, 64, 72
1, 250102, Control_c, 0, 64, 67
1, 250117, Control_c, 0, 64, 64
1, 250132, Control_c, 0, 64, 65
1, 250162, Control_c, 0, 64, 66
1, 250168, Note_off_c, 0, 63, 36
1, 250176, Control_c, 0, 64, 68
1, 250191, Control_c, 0, 64, 70
1, 250206, Control_c, 0, 64, 75
1, 250221, Control_c, 0, 64, 86
1, 250236, Control_c, 0, 64, 100
1, 250250, Control_c, 0, 64, 127
1, 250285, Note_off_c, 0, 57, 52
1, 250344, Note_off_c, 0, 54, 41
1, 250364, Note_on_c, 0, 73, 52
1, 250481, Note_off_c, 0, 70, 1
1, 250517, Control_c, 0, 64, 125
1, 250532, Control_c, 0, 64, 113
1, 250546, Control_c, 0, 64, 108
1, 250553, Note_off_c, 0, 72, 53
1, 250561, Control_c, 0, 64, 104
1, 250576, Control_c, 0, 64, 98
1, 250591, Control_c, 0, 64, 92
1, 250606, Control_c, 0, 64, 88
1, 250621, Control_c, 0, 64, 86
1, 250636, Control_c, 0, 64, 83
1, 250657, Control_c, 0, 64, 80
1, 250672, Control_c, 0, 64, 76
1, 250684, Note_on_c, 0, 46, 40
1, 250687, Control_c, 0, 64, 70
1, 250701, Control_c, 0, 64, 66
1, 250716, Control_c, 0, 64, 62
1, 250731, Control_c, 0, 64, 59
1, 250746, Control_c, 0, 64, 56
1, 250761, Control_c, 0, 64, 55
1, 250791, Control_c, 0, 64, 56
1, 250806, Control_c, 0, 64, 57
1, 250821, Control_c, 0, 64, 60
1, 250836, Control_c, 0, 64, 62
1, 250851, Control_c, 0, 64, 65
1, 250866, Control_c, 0, 64, 70
1, 250880, Control_c, 0, 64, 80
1, 250895, Control_c, 0, 64, 93
1, 250910, Control_c, 0, 64, 127
1, 250955, Note_off_c, 0, 46, 41
1, 251061, Note_on_c, 0, 72, 52
1, 251354, Note_on_c, 0, 53, 42
1, 251643, Note_on_c, 0, 70, 49
1, 251793, Note_off_c, 0, 73, 17
1, 251989, Note_on_c, 0, 65, 37
1, 252009, Note_on_c, 0, 61, 35
1, 252451, Note_on_c, 0, 69, 45
1, 252615, Note_off_c, 0, 53, 33
1, 252639, Note_off_c, 0, 70, 31
1, 252640, Note_off_c, 0, 65, 29
1, 252779, Note_on_c, 0, 67, 43
1, 252812, Note_off_c, 0, 61, 32
1, 252834, Note_off_c, 0, 69, 30
1, 252946, Note_off_c, 0, 72, 36
1, 253066, Note_on_c, 0, 69, 50
1, 253162, Note_off_c, 0, 67, 32
1, 253249, Note_off_c, 0, 69, 56
1, 253305, Control_c, 0, 64, 114
1, 253320, Control_c, 0, 64, 104
1, 253335, Control_c, 0, 64, 98
1, 253349, Control_c, 0, 64, 95
1, 253364, Control_c, 0, 64, 92
1, 253379, Control_c, 0, 64, 90
1, 253393, Control_c, 0, 64, 88
1, 253408, Control_c, 0, 64, 86
1, 253423, Control_c, 0, 64, 83
1, 253438, Control_c, 0, 64, 81
1, 253453, Control_c, 0, 64, 79
1, 253459, Note_on_c, 0, 69, 37
1, 253468, Control_c, 0, 64, 77
1, 253483, Control_c, 0, 64, 75
1, 253498, Control_c, 0, 64, 73
1, 253512, Control_c, 0, 64, 71
1, 253527, Control_c, 0, 64, 69
1, 253542, Control_c, 0, 64, 68
1, 253557, Control_c, 0, 64, 67
1, 253572, Control_c, 0, 64, 66
1, 253586, Control_c, 0, 64, 65
1, 253601, Control_c, 0, 64, 64
1, 253616, Control_c, 0, 64, 63
1, 253631, Control_c, 0, 64, 62
1, 253653, Control_c, 0, 64, 61
1, 253667, Control_c, 0, 64, 58
1, 253682, Control_c, 0, 64, 56
1, 253697, Control_c, 0, 64, 56
1, 253727, Control_c, 0, 64, 56
1, 253742, Control_c, 0, 64, 57
1, 253757, Control_c, 0, 64, 59
1, 253772, Control_c, 0, 64, 61
1, 253787, Control_c, 0, 64, 62
1, 253801, Control_c, 0, 64, 63
1, 253816, Control_c, 0, 64, 65
1, 253831, Control_c, 0, 64, 68
1, 253846, Control_c, 0, 64, 72
1, 253861, Control_c, 0, 64, 78
1, 253867, Note_on_c, 0, 70, 46
1, 253875, Control_c, 0, 64, 84
1, 253890, Control_c, 0, 64, 89
1, 253905, Control_c, 0, 64, 92
1, 253920, Note_off_c, 0, 69, 42
1, 253920, Control_c, 0, 64, 94
1, 253935, Control_c, 0, 64, 95
1, 253962, Note_off_c, 0, 70, 58
1, 253995, Control_c, 0, 64, 95
1, 254010, Control_c, 0, 64, 94
1, 254024, Control_c, 0, 64, 92
1, 254039, Control_c, 0, 64, 90
1, 254054, Control_c, 0, 64, 88
1, 254066, Note_on_c, 0, 72, 61
1, 254069, Control_c, 0, 64, 86
1, 254084, Control_c, 0, 64, 83
1, 254098, Control_c, 0, 64, 80
1, 254113, Control_c, 0, 64, 75
1, 254128, Control_c, 0, 64, 68
1, 254143, Control_c, 0, 64, 64
1, 254158, Control_c, 0, 64, 64
1, 254187, Control_c, 0, 64, 64
1, 254216, Control_c, 0, 64, 65
1, 254231, Control_c, 0, 64, 67
1, 254246, Control_c, 0, 64, 69
1, 254249, Note_on_c, 0, 73, 76
1, 254261, Control_c, 0, 64, 72
1, 254276, Control_c, 0, 64, 78
1, 254290, Control_c, 0, 64, 86
1, 254305, Control_c, 0, 64, 97
1, 254320, Control_c, 0, 64, 114
1, 254335, Control_c, 0, 64, 127
1, 254340, Note_off_c, 0, 72, 50
1, 254404, Note_on_c, 0, 75, 86
1, 254431, Note_off_c, 0, 73, 62
1, 254476, Note_off_c, 0, 75, 62
1, 254476, Control_c, 0, 64, 125
1, 254490, Control_c, 0, 64, 117
1, 254505, Control_c, 0, 64, 110
1, 254520, Control_c, 0, 64, 104
1, 254535, Control_c, 0, 64, 96
1, 254542, Note_on_c, 0, 75, 85
1, 254550, Control_c, 0, 64, 87
1, 254565, Control_c, 0, 64, 77
1, 254580, Control_c, 0, 64, 68
1, 254594, Control_c, 0, 64, 59
1, 254609, Control_c, 0, 64, 55
1, 254624, Control_c, 0, 64, 57
1, 254639, Control_c, 0, 64, 58
1, 254654, Control_c, 0, 64, 59
1, 254669, Control_c, 0, 64, 61
1, 254684, Control_c, 0, 64, 63
1, 254698, Control_c, 0, 64, 67
1, 254713, Control_c, 0, 64, 73
1, 254728, Control_c, 0, 64, 86
1, 254742, Control_c, 0, 64, 119
1, 254747, Note_on_c, 0, 76, 94
1, 254757, Control_c, 0, 64, 127
1, 254773, Note_off_c, 0, 75, 63
1, 254820, Note_off_c, 0, 76, 62
1, 254920, Note_on_c, 0, 76, 90
1, 254921, Control_c, 0, 64, 111
1, 254936, Control_c, 0, 64, 86
1, 254951, Control_c, 0, 64, 71
1, 254966, Control_c, 0, 64, 61
1, 254981, Control_c, 0, 64, 60
1, 254995, Control_c, 0, 64, 63
1, 255010, Control_c, 0, 64, 64
1, 255025, Control_c, 0, 64, 66
1, 255039, Control_c, 0, 64, 70
1, 255054, Control_c, 0, 64, 81
1, 255069, Control_c, 0, 64, 108
1, 255084, Control_c, 0, 64, 127
1, 255087, Note_on_c, 0, 77, 97
1, 255114, Note_off_c, 0, 76, 62
1, 255240, Note_on_c, 0, 82, 100
1, 255267, Note_off_c, 0, 77, 61
1, 255342, Note_off_c, 0, 82, 63
1, 255457, Note_on_c, 0, 65, 65
1, 255461, Note_on_c, 0, 60, 61
1, 255508, Note_on_c, 0, 81, 90
1, 255517, Note_on_c, 0, 69, 83
1, 255551, Control_c, 0, 64, 109
1, 255565, Control_c, 0, 64, 88
1, 255580, Control_c, 0, 64, 73
1, 255596, Control_c, 0, 64, 62
1, 255611, Control_c, 0, 64, 45
1, 255626, Control_c, 0, 64, 36
1, 255656, Control_c, 0, 64, 37
1, 255670, Control_c, 0, 64, 42
1, 255685, Control_c, 0, 64, 50
1, 255700, Control_c, 0, 64, 56
1, 255715, Control_c, 0, 64, 63
1, 255730, Control_c, 0, 64, 70
1, 255744, Control_c, 0, 64, 83
1, 255759, Control_c, 0, 64, 127
1, 255915, Note_off_c, 0, 81, 62
1, 255943, Note_on_c, 0, 71, 87
1, 256139, Note_on_c, 0, 72, 94
1, 256168, Note_off_c, 0, 71, 60
1, 256340, Note_on_c, 0, 61, 82
1, 256372, Note_on_c, 0, 77, 88
1, 256409, Note_off_c, 0, 65, 55
1, 256421, Note_off_c, 0, 72, 58
1, 256465, Note_off_c, 0, 60, 32
1, 256616, Note_off_c, 0, 61, 56
1, 256679, Note_off_c, 0, 69, 60
1, 256725, Note_on_c, 0, 76, 97
1, 256755, Note_off_c, 0, 77, 66
1, 256896, Note_on_c, 0, 65, 75
1, 256902, Note_on_c, 0, 62, 68
1, 256912, Note_on_c, 0, 60, 58
1, 256949, Note_on_c, 0, 74, 84
1, 256964, Note_on_c, 0, 70, 82
1, 256967, Note_off_c, 0, 76, 59
1, 256988, Control_c, 0, 64, 95
1, 257003, Control_c, 0, 64, 78
1, 257017, Control_c, 0, 64, 62
1, 257032, Control_c, 0, 64, 27
1, 257047, Control_c, 0, 64, 0
1, 257121, Control_c, 0, 64, 49
1, 257136, Control_c, 0, 64, 67
1, 257148, Note_on_c, 0, 76, 92
1, 257151, Control_c, 0, 64, 87
1, 257165, Control_c, 0, 64, 127
1, 257188, Note_off_c, 0, 74, 57
1, 257205, Note_off_c, 0, 70, 60
1, 257284, Note_on_c, 0, 77, 91
1, 257329, Note_off_c, 0, 76, 59
1, 257445, Note_on_c, 0, 79, 89
1, 257498, Note_off_c, 0, 77, 58
1, 257692, Note_off_c, 0, 65, 52
1, 257698, Note_off_c, 0, 62, 28
1, 257710, Note_off_c, 0, 60, 38
1, 257826, Note_on_c, 0, 77, 95
1, 257896, Note_off_c, 0, 79, 54
1, 258005, Note_on_c, 0, 65, 70
1, 258021, Note_on_c, 0, 60, 48
1, 258028, Note_on_c, 0, 62, 55
1, 258034, Note_on_c, 0, 76, 83
1, 258046, Note_on_c, 0, 71, 72
1, 258064, Control_c, 0, 64, 93
1, 258079, Control_c, 0, 64, 73
1, 258090, Note_off_c, 0, 77, 57
1, 258094, Control_c, 0, 64, 60
1, 258109, Control_c, 0, 64, 41
1, 258124, Control_c, 0, 64, 38
1, 258145, Control_c, 0, 64, 38
1, 258160, Control_c, 0, 64, 41
1, 258175, Control_c, 0, 64, 46
1, 258190, Control_c, 0, 64, 52
1, 258205, Control_c, 0, 64, 59
1, 258219, Control_c, 0, 64, 65
1, 258234, Control_c, 0, 64, 72
1, 258240, Note_on_c, 0, 77, 91
1, 258249, Control_c, 0, 64, 86
1, 258264, Control_c, 0, 64, 127
1, 258276, Note_off_c, 0, 76, 60
1, 258375, Note_on_c, 0, 79, 89
1, 258432, Note_off_c, 0, 77, 57
1, 258520, Note_on_c, 0, 81, 85
1, 258561, Note_off_c, 0, 79, 60
1, 258664, Note_on_c, 0, 67, 74
1, 258672, Note_on_c, 0, 79, 90
1, 258695, Note_off_c, 0, 65, 61
1, 258732, Note_off_c, 0, 81, 60
1, 258732, Note_off_c, 0, 62, 58
1, 258765, Note_off_c, 0, 71, 62
1, 258804, Note_off_c, 0, 60, 36
1, 258830, Note_on_c, 0, 77, 96
1, 258837, Note_on_c, 0, 68, 78
1, 258875, Note_off_c, 0, 67, 58
1, 258913, Note_off_c, 0, 79, 54
1, 259028, Control_c, 0, 64, 114
1, 259041, Note_on_c, 0, 69, 66
1, 259042, Control_c, 0, 64, 99
1, 259053, Note_on_c, 0, 65, 51
1, 259057, Note_on_c, 0, 76, 78
1, 259057, Control_c, 0, 64, 89
1, 259061, Note_on_c, 0, 60, 49
1, 259068, Note_on_c, 0, 72, 59
1, 259072, Control_c, 0, 64, 83
1, 259086, Control_c, 0, 64, 78
1, 259100, Note_off_c, 0, 68, 57
1, 259101, Control_c, 0, 64, 73
1, 259116, Control_c, 0, 64, 68
1, 259122, Note_off_c, 0, 77, 58
1, 259131, Control_c, 0, 64, 64
1, 259146, Control_c, 0, 64, 61
1, 259160, Control_c, 0, 64, 59
1, 259175, Control_c, 0, 64, 55
1, 259190, Control_c, 0, 64, 47
1, 259204, Control_c, 0, 64, 29
1, 259219, Control_c, 0, 64, 0
1, 259277, Note_on_c, 0, 77, 88
1, 259316, Note_off_c, 0, 76, 62
1, 259471, Control_c, 0, 64, 28
1, 259486, Control_c, 0, 64, 44
1, 259497, Note_on_c, 0, 84, 80
1, 259501, Control_c, 0, 64, 53
1, 259516, Control_c, 0, 64, 56
1, 259531, Control_c, 0, 64, 58
1, 259546, Control_c, 0, 64, 61
1, 259560, Control_c, 0, 64, 63
1, 259575, Control_c, 0, 64, 66
1, 259590, Control_c, 0, 64, 70
1, 259605, Control_c, 0, 64, 77
1, 259620, Control_c, 0, 64, 93
1, 259642, Control_c, 0, 64, 127
1, 259693, Note_off_c, 0, 84, 62
1, 259808, Note_on_c, 0, 84, 83
1, 260157, Note_off_c, 0, 60, 31
1, 260214, Note_off_c, 0, 65, 24
1, 260390, Note_off_c, 0, 69, 37
1, 260489, Note_off_c, 0, 84, 53
1, 260850, Control_c, 0, 67, 14
1, 260865, Note_off_c, 0, 72, 31
1, 260865, Control_c, 0, 67, 25
1, 260880, Control_c, 0, 67, 36
1, 260895, Control_c, 0, 67, 46
1, 260905, Note_off_c, 0, 77, 54
1, 260910, Control_c, 0, 67, 57
1, 260924, Control_c, 0, 67, 67
1, 260939, Control_c, 0, 67, 78
1, 260954, Control_c, 0, 67, 89
1, 260969, Control_c, 0, 67, 100
1, 260984, Control_c, 0, 67, 111
1, 260998, Control_c, 0, 67, 122
1, 261013, Control_c, 0, 67, 127
1, 261659, Note_on_c, 0, 53, 27
1, 261659, Note_on_c, 0, 65, 24
1, 261671, Note_on_c, 0, 60, 22
1, 261700, Note_on_c, 0, 80, 48
1, 261705, Note_on_c, 0, 75, 42
1, 261725, Note_on_c, 0, 69, 43
1, 261749, Control_c, 0, 64, 109
1, 261763, Control_c, 0, 64, 96
1, 261778, Control_c, 0, 64, 89
1, 261793, Control_c, 0, 64, 83
1, 261807, Control_c, 0, 64, 77
1, 261822, Control_c, 0, 64, 69
1, 261837, Control_c, 0, 64, 61
1, 261852, Control_c, 0, 64, 45
1, 261867, Control_c, 0, 64, 37
1, 261889, Control_c, 0, 64, 34
1, 261904, Control_c, 0, 64, 34
1, 261919, Control_c, 0, 64, 35
1, 261933, Control_c, 0, 64, 40
1, 261948, Control_c, 0, 64, 49
1, 261963, Control_c, 0, 64, 58
1, 261978, Control_c, 0, 64, 64
1, 261993, Control_c, 0, 64, 69
1, 262008, Control_c, 0, 64, 75
1, 262023, Control_c, 0, 64, 85
1, 262038, Control_c, 0, 64, 101
1, 262053, Control_c, 0, 64, 127
1, 262095, Note_on_c, 0, 81, 58
1, 262121, Note_off_c, 0, 69, 40
1, 262163, Note_off_c, 0, 75, 57
1, 262164, Note_off_c, 0, 80, 60
1, 262206, Note_off_c, 0, 81, 65
1, 262385, Note_on_c, 0, 89, 70
1, 262652, Note_off_c, 0, 89, 54
1, 262816, Note_on_c, 0, 89, 54
1, 263202, Note_off_c, 0, 65, 31
1, 263242, Note_off_c, 0, 60, 30
1, 263326, Note_off_c, 0, 53, 21
1, 264116, Note_off_c, 0, 89, 31
1, 265121, Note_on_c, 0, 34, 43
1, 265151, Control_c, 0, 64, 112
1, 265166, Control_c, 0, 64, 103
1, 265182, Control_c, 0, 64, 96
1, 265197, Control_c, 0, 64, 89
1, 265211, Control_c, 0, 64, 81
1, 265226, Control_c, 0, 64, 73
1, 265241, Control_c, 0, 64, 65
1, 265256, Control_c, 0, 64, 58
1, 265271, Control_c, 0, 64, 52
1, 265285, Control_c, 0, 64, 48
1, 265300, Control_c, 0, 64, 45
1, 265315, Control_c, 0, 64, 45
1, 265329, Control_c, 0, 64, 49
1, 265344, Control_c, 0, 64, 55
1, 265359, Control_c, 0, 64, 61
1, 265374, Control_c, 0, 64, 66
1, 265389, Control_c, 0, 64, 74
1, 265403, Control_c, 0, 64, 87
1, 265418, Control_c, 0, 64, 115
1, 265433, Control_c, 0, 64, 127
1, 265460, Note_off_c, 0, 34, 41
1, 265955, Note_on_c, 0, 97, 40
1, 265976, Note_on_c, 0, 89, 33
1, 266051, Note_off_c, 0, 97, 55
1, 266076, Note_off_c, 0, 89, 54
1, 266303, Note_on_c, 0, 89, 48
1, 266317, Note_on_c, 0, 84, 37
1, 266364, Note_off_c, 0, 84, 56
1, 266405, Note_off_c, 0, 89, 55
1, 266498, Note_on_c, 0, 61, 31
1, 266526, Note_on_c, 0, 58, 24
1, 266537, Note_on_c, 0, 53, 22
1, 266545, Note_on_c, 0, 85, 40
1, 266548, Note_on_c, 0, 81, 42
1, 266583, Note_off_c, 0, 81, 58
1, 266604, Note_off_c, 0, 85, 59
1, 266738, Note_on_c, 0, 82, 47
1, 266744, Note_on_c, 0, 89, 52
1, 266783, Note_off_c, 0, 82, 61
1, 266801, Note_off_c, 0, 89, 57
1, 266816, Note_off_c, 0, 53, 41
1, 266903, Note_on_c, 0, 94, 57
1, 266906, Note_on_c, 0, 84, 52
1, 266912, Note_off_c, 0, 58, 37
1, 266963, Note_off_c, 0, 84, 53
1, 266977, Note_off_c, 0, 94, 60
1, 266994, Note_off_c, 0, 61, 36
1, 267043, Note_on_c, 0, 85, 61
1, 267046, Note_on_c, 0, 89, 53
1, 267067, Note_off_c, 0, 89, 60
1, 267073, Note_off_c, 0, 85, 69
1, 267186, Note_on_c, 0, 63, 45
1, 267203, Note_on_c, 0, 58, 38
1, 267204, Note_on_c, 0, 82, 53
1, 267206, Note_on_c, 0, 54, 36
1, 267209, Note_on_c, 0, 78, 45
1, 267227, Note_off_c, 0, 82, 65
1, 267233, Note_off_c, 0, 78, 57
1, 267311, Note_on_c, 0, 85, 70
1, 267338, Note_on_c, 0, 80, 49
1, 267367, Note_off_c, 0, 80, 56
1, 267368, Note_off_c, 0, 85, 63
1, 267398, Note_off_c, 0, 54, 42
1, 267405, Note_off_c, 0, 58, 56
1, 267443, Note_off_c, 0, 63, 55
1, 267444, Note_on_c, 0, 90, 73
1, 267457, Note_on_c, 0, 81, 62
1, 267488, Note_off_c, 0, 81, 66
1, 267498, Note_off_c, 0, 90, 61
1, 267569, Note_on_c, 0, 87, 67
1, 267571, Note_on_c, 0, 82, 70
1, 267601, Note_off_c, 0, 82, 65
1, 267601, Note_off_c, 0, 87, 63
1, 267678, Control_c, 0, 64, 108
1, 267693, Control_c, 0, 64, 88
1, 267708, Control_c, 0, 64, 75
1, 267709, Note_on_c, 0, 66, 45
1, 267709, Note_on_c, 0, 78, 64
1, 267710, Note_on_c, 0, 74, 54
1, 267711, Note_on_c, 0, 63, 44
1, 267716, Note_on_c, 0, 58, 38
1, 267722, Control_c, 0, 64, 65
1, 267737, Control_c, 0, 64, 62
1, 267740, Note_off_c, 0, 74, 63
1, 267742, Note_off_c, 0, 78, 66
1, 267752, Control_c, 0, 64, 63
1, 267767, Control_c, 0, 64, 64
1, 267782, Control_c, 0, 64, 66
1, 267797, Control_c, 0, 64, 69
1, 267812, Control_c, 0, 64, 76
1, 267827, Control_c, 0, 64, 88
1, 267837, Note_on_c, 0, 82, 60
1, 267839, Note_on_c, 0, 75, 55
1, 267842, Control_c, 0, 64, 122
1, 267857, Control_c, 0, 64, 127
1, 267890, Note_off_c, 0, 75, 58
1, 267902, Note_off_c, 0, 66, 35
1, 267916, Note_off_c, 0, 63, 39
1, 267934, Note_off_c, 0, 82, 54
1, 267965, Note_off_c, 0, 58, 59
1, 267994, Note_on_c, 0, 87, 46
1, 268009, Note_on_c, 0, 77, 45
1, 268146, Note_off_c, 0, 77, 52
1, 268159, Note_off_c, 0, 87, 29
1, 268161, Note_on_c, 0, 82, 45
1, 268167, Note_on_c, 0, 78, 40
1, 268249, Note_off_c, 0, 82, 56
1, 268265, Note_off_c, 0, 78, 53
1, 268322, Control_c, 0, 64, 120
1, 268337, Control_c, 0, 64, 109
1, 268352, Control_c, 0, 64, 100
1, 268368, Control_c, 0, 64, 91
1, 268369, Note_on_c, 0, 34, 46
1, 268383, Control_c, 0, 64, 82
1, 268398, Control_c, 0, 64, 72
1, 268412, Control_c, 0, 64, 63
1, 268427, Control_c, 0, 64, 52
1, 268442, Control_c, 0, 64, 51
1, 268457, Control_c, 0, 64, 53
1, 268472, Control_c, 0, 64, 55
1, 268487, Control_c, 0, 64, 58
1, 268501, Control_c, 0, 64, 63
1, 268516, Control_c, 0, 64, 69
1, 268531, Control_c, 0, 64, 81
1, 268545, Control_c, 0, 64, 112
1, 268560, Control_c, 0, 64, 127
1, 268563, Note_off_c, 0, 34, 39
1, 268703, Note_on_c, 0, 85, 34
1, 268709, Note_on_c, 0, 77, 43
1, 268740, Note_off_c, 0, 85, 51
1, 268746, Note_off_c, 0, 77, 62
1, 268889, Note_on_c, 0, 77, 52
1, 268892, Note_on_c, 0, 72, 49
1, 268921, Note_off_c, 0, 72, 64
1, 268980, Note_off_c, 0, 77, 57
1, 269023, Note_on_c, 0, 61, 37
1, 269024, Note_on_c, 0, 53, 34
1, 269031, Note_on_c, 0, 73, 55
1, 269044, Note_on_c, 0, 69, 44
1, 269045, Note_on_c, 0, 58, 35
1, 269070, Note_off_c, 0, 69, 54
1, 269090, Note_off_c, 0, 73, 61
1, 269170, Note_on_c, 0, 77, 61
1, 269171, Note_on_c, 0, 70, 54
1, 269212, Note_off_c, 0, 70, 62
1, 269213, Note_off_c, 0, 53, 42
1, 269244, Note_off_c, 0, 77, 60
1, 269302, Note_on_c, 0, 82, 69
1, 269311, Note_on_c, 0, 72, 59
1, 269314, Note_off_c, 0, 58, 39
1, 269379, Note_off_c, 0, 61, 39
1, 269385, Note_off_c, 0, 72, 53
1, 269390, Note_off_c, 0, 82, 57
1, 269432, Note_on_c, 0, 73, 70
1, 269436, Note_on_c, 0, 77, 63
1, 269464, Note_off_c, 0, 73, 64
1, 269465, Note_off_c, 0, 77, 65
1, 269554, Note_on_c, 0, 63, 47
1, 269568, Note_on_c, 0, 70, 65
1, 269571, Note_on_c, 0, 58, 40
1, 269574, Note_on_c, 0, 66, 57
1, 269578, Note_on_c, 0, 54, 39
1, 269603, Note_off_c, 0, 70, 61
1, 269606, Note_off_c, 0, 66, 63
1, 269688, Note_on_c, 0, 72, 61
1, 269694, Note_on_c, 0, 68, 57
1, 269732, Note_off_c, 0, 68, 61
1, 269739, Note_off_c, 0, 72, 59
1, 269782, Note_off_c, 0, 54, 40
1, 269792, Note_off_c, 0, 63, 35
1, 269823, Note_on_c, 0, 78, 63
1, 269826, Note_on_c, 0, 69, 64
1, 269852, Note_off_c, 0, 58, 32
1, 269880, Note_off_c, 0, 78, 57
1, 269883, Note_off_c, 0, 69, 54
1, 269949, Note_on_c, 0, 70, 66
1, 269949, Note_on_c, 0, 75, 61
1, 269988, Note_off_c, 0, 70, 59
1, 269989, Note_off_c, 0, 75, 60
1, 270059, Control_c, 0, 64, 119
1, 270073, Control_c, 0, 64, 96
1, 270088, Control_c, 0, 64, 82
1, 270090, Note_on_c, 0, 58, 40
1, 270097, Note_on_c, 0, 54, 41
1, 270100, Note_on_c, 0, 62, 57
1, 270103, Control_c, 0, 64, 72
1, 270104, Note_on_c, 0, 66, 56
1, 270125, Control_c, 0, 64, 65
1, 270140, Control_c, 0, 64, 62
1, 270143, Note_off_c, 0, 62, 64
1, 270155, Control_c, 0, 64, 64
1, 270156, Note_off_c, 0, 66, 59
1, 270170, Control_c, 0, 64, 65
1, 270185, Control_c, 0, 64, 66
1, 270199, Control_c, 0, 64, 68
1, 270214, Control_c, 0, 64, 73
1, 270229, Control_c, 0, 64, 83
1, 270244, Control_c, 0, 64, 108
1, 270253, Note_on_c, 0, 70, 50
1, 270259, Control_c, 0, 64, 127
1, 270263, Note_on_c, 0, 63, 42
1, 270314, Note_off_c, 0, 63, 58
1, 270372, Note_off_c, 0, 58, 41
1, 270401, Note_off_c, 0, 54, 43
1, 270415, Note_off_c, 0, 70, 42
1, 270432, Note_on_c, 0, 75, 44
1, 270447, Note_on_c, 0, 65, 43
1, 270590, Note_on_c, 0, 70, 33
1, 270611, Note_on_c, 0, 66, 40
1, 270614, Note_off_c, 0, 75, 38
1, 270657, Note_off_c, 0, 65, 32
1, 270771, Note_off_c, 0, 70, 35
1, 270799, Note_off_c, 0, 66, 30
1, 270822, Control_c, 0, 64, 122
1, 270837, Control_c, 0, 64, 109
1, 270852, Control_c, 0, 64, 101
1, 270874, Control_c, 0, 64, 93
1, 270888, Control_c, 0, 64, 85
1, 270893, Note_on_c, 0, 34, 40
1, 270903, Control_c, 0, 64, 77
1, 270918, Control_c, 0, 64, 69
1, 270933, Control_c, 0, 64, 61
1, 270948, Control_c, 0, 64, 50
1, 270963, Control_c, 0, 64, 47
1, 270978, Control_c, 0, 64, 48
1, 270992, Control_c, 0, 64, 51
1, 271007, Control_c, 0, 64, 55
1, 271022, Control_c, 0, 64, 60
1, 271037, Control_c, 0, 64, 65
1, 271052, Control_c, 0, 64, 70
1, 271067, Control_c, 0, 64, 81
1, 271082, Control_c, 0, 64, 96
1, 271096, Control_c, 0, 64, 127
1, 271130, Note_off_c, 0, 34, 42
1, 271224, Note_on_c, 0, 73, 38
1, 271231, Note_on_c, 0, 65, 43
1, 271271, Note_off_c, 0, 73, 60
1, 271279, Note_off_c, 0, 65, 61
1, 271438, Note_on_c, 0, 60, 52
1, 271444, Note_on_c, 0, 65, 54
1, 271469, Note_off_c, 0, 60, 65
1, 271528, Note_off_c, 0, 65, 57
1, 271571, Control_c, 0, 64, 116
1, 271580, Note_on_c, 0, 53, 49
1, 271581, Note_on_c, 0, 61, 62
1, 271586, Control_c, 0, 64, 96
1, 271593, Note_on_c, 0, 57, 50
1, 271601, Control_c, 0, 64, 86
1, 271623, Control_c, 0, 64, 81
1, 271630, Note_off_c, 0, 57, 64
1, 271638, Control_c, 0, 64, 78
1, 271652, Control_c, 0, 64, 75
1, 271655, Note_off_c, 0, 61, 62
1, 271667, Control_c, 0, 64, 72
1, 271682, Control_c, 0, 64, 69
1, 271697, Control_c, 0, 64, 67
1, 271712, Control_c, 0, 64, 66
1, 271726, Control_c, 0, 64, 65
1, 271733, Note_on_c, 0, 65, 58
1, 271740, Note_on_c, 0, 58, 43
1, 271741, Control_c, 0, 64, 63
1, 271756, Control_c, 0, 64, 60
1, 271770, Control_c, 0, 64, 54
1, 271782, Note_off_c, 0, 58, 62
1, 271785, Control_c, 0, 64, 47
1, 271800, Control_c, 0, 64, 41
1, 271815, Control_c, 0, 64, 34
1, 271830, Control_c, 0, 64, 34
1, 271839, Note_off_c, 0, 65, 56
1, 271845, Control_c, 0, 64, 34
1, 271860, Control_c, 0, 64, 39
1, 271875, Control_c, 0, 64, 46
1, 271889, Control_c, 0, 64, 53
1, 271890, Note_on_c, 0, 60, 44
1, 271892, Note_on_c, 0, 70, 41
1, 271904, Control_c, 0, 64, 59
1, 271919, Control_c, 0, 64, 64
1, 271934, Control_c, 0, 64, 68
1, 271945, Note_off_c, 0, 53, 60
1, 271949, Control_c, 0, 64, 74
1, 271963, Control_c, 0, 64, 83
1, 271978, Control_c, 0, 64, 96
1, 271988, Note_off_c, 0, 70, 39
1, 271993, Control_c, 0, 64, 115
1, 272008, Control_c, 0, 64, 127
1, 272039, Note_off_c, 0, 60, 36
1, 272046, Note_on_c, 0, 61, 44
1, 272048, Note_on_c, 0, 65, 42
1, 272139, Note_off_c, 0, 61, 46
1, 272155, Note_off_c, 0, 65, 51
1, 272185, Control_c, 0, 64, 125
1, 272200, Control_c, 0, 64, 110
1, 272215, Control_c, 0, 64, 99
1, 272230, Control_c, 0, 64, 88
1, 272242, Note_on_c, 0, 34, 42
1, 272244, Control_c, 0, 64, 77
1, 272259, Control_c, 0, 64, 67
1, 272274, Control_c, 0, 64, 56
1, 272289, Control_c, 0, 64, 46
1, 272319, Control_c, 0, 64, 48
1, 272334, Control_c, 0, 64, 52
1, 272349, Control_c, 0, 64, 57
1, 272372, Control_c, 0, 64, 62
1, 272387, Control_c, 0, 64, 67
1, 272401, Control_c, 0, 64, 75
1, 272416, Control_c, 0, 64, 88
1, 272431, Control_c, 0, 64, 116
1, 272444, Note_off_c, 0, 34, 40
1, 272446, Control_c, 0, 64, 127
1, 272552, Note_on_c, 0, 73, 47
1, 272569, Note_on_c, 0, 65, 38
1, 272596, Note_off_c, 0, 73, 62
1, 272611, Note_off_c, 0, 65, 62
1, 272724, Note_on_c, 0, 66, 62
1, 272749, Note_on_c, 0, 60, 45
1, 272776, Note_off_c, 0, 60, 60
1, 272790, Note_off_c, 0, 66, 62
1, 272861, Control_c, 0, 64, 115
1, 272867, Note_on_c, 0, 61, 64
1, 272876, Control_c, 0, 64, 101
1, 272877, Note_on_c, 0, 53, 48
1, 272886, Note_on_c, 0, 57, 47
1, 272891, Control_c, 0, 64, 93
1, 272906, Control_c, 0, 64, 88
1, 272912, Note_off_c, 0, 57, 57
1, 272920, Control_c, 0, 64, 83
1, 272928, Note_off_c, 0, 61, 60
1, 272935, Control_c, 0, 64, 78
1, 272950, Control_c, 0, 64, 75
1, 272965, Control_c, 0, 64, 72
1, 272980, Control_c, 0, 64, 69
1, 272994, Control_c, 0, 64, 67
1, 273007, Note_on_c, 0, 65, 59
1, 273009, Control_c, 0, 64, 64
1, 273015, Note_on_c, 0, 58, 47
1, 273024, Control_c, 0, 64, 61
1, 273039, Control_c, 0, 64, 59
1, 273046, Note_off_c, 0, 58, 58
1, 273054, Control_c, 0, 64, 56
1, 273068, Control_c, 0, 64, 52
1, 273083, Control_c, 0, 64, 45
1, 273098, Control_c, 0, 64, 35
1, 273100, Note_off_c, 0, 65, 56
1, 273120, Control_c, 0, 64, 19
1, 273135, Control_c, 0, 64, 16
1, 273166, Control_c, 0, 64, 20
1, 273180, Control_c, 0, 64, 30
1, 273182, Note_on_c, 0, 70, 39
1, 273185, Note_on_c, 0, 60, 40
1, 273195, Control_c, 0, 64, 40
1, 273210, Control_c, 0, 64, 50
1, 273225, Control_c, 0, 64, 60
1, 273240, Control_c, 0, 64, 64
1, 273255, Control_c, 0, 64, 66
1, 273259, Note_off_c, 0, 53, 57
1, 273270, Control_c, 0, 64, 70
1, 273285, Control_c, 0, 64, 76
1, 273298, Control_c, 0, 64, 84
1, 273301, Note_off_c, 0, 70, 0
1, 273313, Control_c, 0, 64, 98
1, 273328, Control_c, 0, 64, 117
1, 273342, Control_c, 0, 64, 127
1, 273349, Poly_aftertouch_c, 0, 70, 0
1, 273350, Note_on_c, 0, 65, 42
1, 273353, Note_on_c, 0, 61, 39
1, 273410, Note_off_c, 0, 60, 25
1, 273524, Note_off_c, 0, 61, 36
1, 273560, Note_off_c, 0, 65, 32
1, 273565, Control_c, 0, 64, 122
1, 273580, Control_c, 0, 64, 113
1, 273595, Control_c, 0, 64, 105
1, 273609, Control_c, 0, 64, 99
1, 273610, Note_on_c, 0, 34, 37
1, 273624, Control_c, 0, 64, 93
1, 273639, Control_c, 0, 64, 88
1, 273654, Control_c, 0, 64, 82
1, 273669, Control_c, 0, 64, 76
1, 273683, Control_c, 0, 64, 67
1, 273698, Control_c, 0, 64, 59
1, 273713, Control_c, 0, 64, 49
1, 273728, Control_c, 0, 64, 46
1, 273772, Control_c, 0, 64, 50
1, 273787, Control_c, 0, 64, 55
1, 273802, Control_c, 0, 64, 60
1, 273816, Control_c, 0, 64, 66
1, 273831, Control_c, 0, 64, 72
1, 273846, Control_c, 0, 64, 84
1, 273869, Control_c, 0, 64, 111
1, 273884, Control_c, 0, 64, 127
1, 273911, Note_off_c, 0, 34, 43
1, 273984, Note_on_c, 0, 73, 35
1, 274005, Note_on_c, 0, 65, 35
1, 274048, Note_off_c, 0, 73, 62
1, 274081, Note_off_c, 0, 65, 59
1, 274271, Note_on_c, 0, 65, 44
1, 274279, Note_on_c, 0, 60, 40
1, 274319, Note_off_c, 0, 60, 63
1, 274435, Note_off_c, 0, 65, 56
1, 274444, Note_on_c, 0, 53, 40
1, 274474, Note_on_c, 0, 61, 40
1, 274488, Note_on_c, 0, 57, 34
1, 274520, Note_off_c, 0, 57, 53
1, 274566, Note_off_c, 0, 61, 56
1, 274662, Note_on_c, 0, 65, 48
1, 274670, Note_on_c, 0, 58, 45
1, 274704, Note_off_c, 0, 53, 42
1, 274704, Note_off_c, 0, 58, 63
1, 274827, Note_off_c, 0, 65, 56
1, 274845, Note_on_c, 0, 70, 51
1, 274846, Note_on_c, 0, 60, 44
1, 275029, Note_on_c, 0, 61, 50
1, 275032, Note_on_c, 0, 65, 50
1, 275047, Note_off_c, 0, 60, 35
1, 275133, Note_off_c, 0, 65, 59
1, 275196, Control_c, 0, 64, 116
1, 275210, Control_c, 0, 64, 112
1, 275225, Control_c, 0, 64, 107
1, 275240, Control_c, 0, 64, 102
1, 275255, Control_c, 0, 64, 97
1, 275270, Control_c, 0, 64, 92
1, 275285, Control_c, 0, 64, 89
1, 275297, Note_on_c, 0, 60, 40
1, 275300, Control_c, 0, 64, 86
1, 275314, Control_c, 0, 64, 83
1, 275329, Control_c, 0, 64, 80
1, 275330, Note_on_c, 0, 63, 42
1, 275344, Control_c, 0, 64, 78
1, 275366, Control_c, 0, 64, 76
1, 275381, Control_c, 0, 64, 74
1, 275395, Control_c, 0, 64, 72
1, 275410, Control_c, 0, 64, 70
1, 275425, Control_c, 0, 64, 69
1, 275431, Note_off_c, 0, 61, 58
1, 275440, Control_c, 0, 64, 67
1, 275448, Note_off_c, 0, 70, 19
1, 275455, Control_c, 0, 64, 65
1, 275470, Control_c, 0, 64, 63
1, 275485, Control_c, 0, 64, 59
1, 275500, Control_c, 0, 64, 55
1, 275529, Control_c, 0, 64, 56
1, 275544, Control_c, 0, 64, 57
1, 275559, Control_c, 0, 64, 58
1, 275574, Control_c, 0, 64, 60
1, 275589, Control_c, 0, 64, 62
1, 275604, Control_c, 0, 64, 63
1, 275619, Control_c, 0, 64, 66
1, 275632, Note_on_c, 0, 58, 40
1, 275634, Control_c, 0, 64, 69
1, 275638, Note_on_c, 0, 61, 52
1, 275649, Control_c, 0, 64, 73
1, 275655, Note_off_c, 0, 60, 56
1, 275664, Control_c, 0, 64, 78
1, 275678, Control_c, 0, 64, 84
1, 275693, Control_c, 0, 64, 90
1, 275708, Control_c, 0, 64, 97
1, 275723, Control_c, 0, 64, 108
1, 275737, Control_c, 0, 64, 127
1, 275783, Note_off_c, 0, 63, 32
1, 275818, Note_off_c, 0, 58, 57
1, 275824, Note_on_c, 0, 51, 50
1, 275824, Note_on_c, 0, 60, 56
1, 275845, Note_off_c, 0, 61, 61
1, 275976, Note_on_c, 0, 58, 68
1, 275982, Note_on_c, 0, 49, 54
1, 276008, Note_off_c, 0, 60, 41
1, 276014, Note_off_c, 0, 51, 37
1, 276033, Control_c, 0, 64, 125
1, 276048, Control_c, 0, 64, 120
1, 276063, Control_c, 0, 64, 115
1, 276078, Control_c, 0, 64, 112
1, 276093, Control_c, 0, 64, 109
1, 276115, Control_c, 0, 64, 107
1, 276130, Control_c, 0, 64, 105
1, 276144, Control_c, 0, 64, 103
1, 276149, Note_on_c, 0, 51, 59
1, 276155, Note_on_c, 0, 54, 64
1, 276159, Control_c, 0, 64, 100
1, 276174, Control_c, 0, 64, 96
1, 276176, Note_off_c, 0, 49, 55
1, 276189, Control_c, 0, 64, 92
1, 276204, Control_c, 0, 64, 88
1, 276218, Control_c, 0, 64, 83
1, 276233, Control_c, 0, 64, 79
1, 276248, Control_c, 0, 64, 76
1, 276253, Note_off_c, 0, 58, 38
1, 276263, Control_c, 0, 64, 75
1, 276278, Control_c, 0, 64, 74
1, 276304, Note_on_c, 0, 49, 63
1, 276307, Note_on_c, 0, 53, 66
1, 276308, Control_c, 0, 64, 75
1, 276317, Note_off_c, 0, 54, 62
1, 276323, Control_c, 0, 64, 75
1, 276336, Note_off_c, 0, 51, 60
1, 276352, Control_c, 0, 64, 76
1, 276368, Control_c, 0, 64, 75
1, 276383, Control_c, 0, 64, 75
1, 276398, Control_c, 0, 64, 74
1, 276413, Control_c, 0, 64, 71
1, 276428, Control_c, 0, 64, 66
1, 276442, Control_c, 0, 64, 60
1, 276457, Control_c, 0, 64, 60
1, 276464, Note_on_c, 0, 51, 62
1, 276471, Note_on_c, 0, 48, 57
1, 276472, Control_c, 0, 64, 60
1, 276474, Note_off_c, 0, 49, 61
1, 276487, Control_c, 0, 64, 61
1, 276502, Control_c, 0, 64, 62
1, 276511, Note_off_c, 0, 53, 58
1, 276516, Control_c, 0, 64, 63
1, 276561, Control_c, 0, 64, 62
1, 276576, Control_c, 0, 64, 61
1, 276591, Control_c, 0, 64, 60
1, 276605, Control_c, 0, 64, 59
1, 276620, Control_c, 0, 64, 58
1, 276623, Note_on_c, 0, 49, 60
1, 276635, Control_c, 0, 64, 59
1, 276635, Note_off_c, 0, 48, 58
1, 276640, Note_on_c, 0, 46, 54
1, 276650, Control_c, 0, 64, 60
1, 276665, Control_c, 0, 64, 61
1, 276668, Note_off_c, 0, 51, 58
1, 276680, Control_c, 0, 64, 61
1, 276709, Control_c, 0, 64, 61
1, 276724, Control_c, 0, 64, 60
1, 276739, Control_c, 0, 64, 58
1, 276753, Control_c, 0, 64, 55
1, 276768, Control_c, 0, 64, 56
1, 276783, Control_c, 0, 64, 57
1, 276798, Control_c, 0, 64, 59
1, 276801, Note_on_c, 0, 51, 54
1, 276802, Note_on_c, 0, 48, 43
1, 276813, Control_c, 0, 64, 60
1, 276827, Control_c, 0, 64, 61
1, 276842, Note_off_c, 0, 46, 56
1, 276860, Note_off_c, 0, 49, 61
1, 276865, Control_c, 0, 64, 60
1, 276880, Control_c, 0, 64, 59
1, 276895, Control_c, 0, 64, 57
1, 276909, Control_c, 0, 64, 56
1, 276939, Control_c, 0, 64, 59
1, 276954, Control_c, 0, 64, 60
1, 276968, Control_c, 0, 64, 61
1, 276983, Control_c, 0, 64, 62
1, 276996, Note_on_c, 0, 46, 47
1, 276996, Note_on_c, 0, 49, 55
1, 276998, Control_c, 0, 64, 63
1, 277000, Note_off_c, 0, 48, 58
1, 277041, Control_c, 0, 64, 64
1, 277050, Note_off_c, 0, 51, 56
1, 277056, Control_c, 0, 64, 65
1, 277070, Control_c, 0, 64, 66
1, 277130, Control_c, 0, 64, 66
1, 277145, Control_c, 0, 64, 67
1, 277160, Control_c, 0, 64, 68
1, 277163, Note_off_c, 0, 49, 62
1, 277168, Note_off_c, 0, 46, 60
1, 277169, Note_on_c, 0, 48, 46
1, 277175, Control_c, 0, 64, 69
1, 277181, Note_on_c, 0, 39, 43
1, 277190, Control_c, 0, 64, 69
1, 277220, Control_c, 0, 64, 70
1, 277329, Note_off_c, 0, 48, 61
1, 277341, Note_on_c, 0, 46, 50
1, 277348, Note_off_c, 0, 39, 51
1, 277353, Control_c, 0, 64, 69
1, 277360, Note_on_c, 0, 37, 44
1, 277442, Control_c, 0, 64, 69
1, 277501, Control_c, 0, 64, 68
1, 277519, Note_on_c, 0, 42, 52
1, 277541, Note_on_c, 0, 39, 41
1, 277543, Note_off_c, 0, 37, 52
1, 277545, Control_c, 0, 64, 68
1, 277612, Control_c, 0, 64, 67
1, 277617, Note_off_c, 0, 46, 37
1, 277671, Control_c, 0, 64, 67
1, 277701, Control_c, 0, 64, 66
1, 277726, Note_on_c, 0, 41, 52
1, 277730, Control_c, 0, 64, 66
1, 277742, Note_on_c, 0, 37, 40
1, 277745, Control_c, 0, 64, 65
1, 277760, Control_c, 0, 64, 65
1, 277770, Note_off_c, 0, 42, 61
1, 277775, Control_c, 0, 64, 64
1, 277789, Control_c, 0, 64, 64
1, 277790, Note_off_c, 0, 39, 43
1, 277819, Control_c, 0, 64, 63
1, 277849, Control_c, 0, 64, 63
1, 277863, Control_c, 0, 64, 62
1, 277893, Control_c, 0, 64, 62
1, 277908, Control_c, 0, 64, 61
1, 277938, Control_c, 0, 64, 61
1, 277941, Note_on_c, 0, 39, 40
1, 277966, Note_off_c, 0, 41, 55
1, 277968, Control_c, 0, 64, 60
1, 277970, Note_on_c, 0, 36, 40
1, 277977, Note_off_c, 0, 37, 42
1, 277983, Control_c, 0, 64, 60
1, 278012, Control_c, 0, 64, 59
1, 278027, Control_c, 0, 64, 59
1, 278057, Control_c, 0, 64, 58
1, 278087, Control_c, 0, 64, 58
1, 278132, Control_c, 0, 64, 57
1, 278161, Control_c, 0, 64, 57
1, 278191, Control_c, 0, 64, 56
1, 278220, Control_c, 0, 64, 56
1, 278223, Note_on_c, 0, 37, 46
1, 278254, Note_on_c, 0, 34, 28
1, 278304, Note_off_c, 0, 36, 40
1, 278323, Control_c, 0, 64, 55
1, 278377, Note_off_c, 0, 39, 42
1, 278391, Control_c, 0, 64, 55
1, 278479, Control_c, 0, 64, 54
1, 278731, Control_c, 0, 64, 54
1, 278740, Note_on_c, 0, 40, 48
1, 278749, Note_on_c, 0, 28, 44
1, 278777, Control_c, 0, 64, 53
1, 278806, Control_c, 0, 64, 53
1, 278850, Control_c, 0, 64, 52
1, 278866, Note_off_c, 0, 37, 35
1, 278880, Control_c, 0, 64, 52
1, 278910, Control_c, 0, 64, 51
1, 278925, Control_c, 0, 64, 51
1, 278940, Control_c, 0, 64, 50
1, 278940, Note_off_c, 0, 34, 44
1, 278954, Control_c, 0, 64, 49
1, 278969, Control_c, 0, 64, 49
1, 278984, Control_c, 0, 64, 48
1, 278999, Control_c, 0, 64, 47
1, 279014, Control_c, 0, 64, 46
1, 279028, Control_c, 0, 64, 45
1, 279043, Control_c, 0, 64, 44
1, 279169, Control_c, 0, 64, 45
1, 279184, Control_c, 0, 64, 46
1, 279199, Control_c, 0, 64, 46
1, 279214, Control_c, 0, 64, 47
1, 279228, Control_c, 0, 64, 48
1, 279243, Control_c, 0, 64, 50
1, 279258, Control_c, 0, 64, 52
1, 279273, Control_c, 0, 64, 54
1, 279288, Control_c, 0, 64, 55
1, 279302, Control_c, 0, 64, 57
1, 279317, Control_c, 0, 64, 59
1, 279332, Control_c, 0, 64, 60
1, 279347, Control_c, 0, 64, 62
1, 279361, Control_c, 0, 64, 63
1, 279376, Control_c, 0, 64, 64
1, 279391, Control_c, 0, 64, 65
1, 279406, Control_c, 0, 64, 66
1, 279421, Control_c, 0, 64, 68
1, 279435, Control_c, 0, 64, 70
1, 279450, Control_c, 0, 64, 74
1, 279465, Control_c, 0, 64, 77
1, 279480, Control_c, 0, 64, 80
1, 279495, Control_c, 0, 64, 84
1, 279509, Control_c, 0, 64, 87
1, 279524, Control_c, 0, 64, 92
1, 279539, Control_c, 0, 64, 100
1, 279555, Control_c, 0, 64, 110
1, 279569, Control_c, 0, 64, 127
1, 280182, Note_off_c, 0, 40, 41
1, 280206, Note_off_c, 0, 28, 34
1, 280711, Control_c, 0, 64, 119
1, 280726, Control_c, 0, 64, 105
1, 280733, Note_on_c, 0, 29, 35
1, 280735, Note_on_c, 0, 41, 36
1, 280741, Control_c, 0, 64, 95
1, 280755, Control_c, 0, 64, 86
1, 280770, Control_c, 0, 64, 81
1, 280785, Control_c, 0, 64, 76
1, 280800, Control_c, 0, 64, 72
1, 280815, Control_c, 0, 64, 66
1, 280829, Control_c, 0, 64, 60
1, 280844, Control_c, 0, 64, 49
1, 280859, Control_c, 0, 64, 48
1, 280874, Control_c, 0, 64, 49
1, 280889, Control_c, 0, 64, 50
1, 280904, Control_c, 0, 64, 51
1, 280919, Control_c, 0, 64, 54
1, 280934, Control_c, 0, 64, 58
1, 280948, Control_c, 0, 64, 62
1, 280963, Control_c, 0, 64, 65
1, 280978, Control_c, 0, 64, 68
1, 280993, Control_c, 0, 64, 73
1, 281007, Control_c, 0, 64, 80
1, 281022, Control_c, 0, 64, 90
1, 281037, Control_c, 0, 64, 104
1, 281052, Control_c, 0, 64, 127
1, 281102, Note_off_c, 0, 41, 40
1, 281177, Note_off_c, 0, 29, 35
1, 281997, Note_on_c, 0, 53, 28
1, 282000, Note_on_c, 0, 61, 35
1, 282024, Note_on_c, 0, 22, 29
1, 282032, Note_on_c, 0, 49, 31
1, 282032, Note_on_c, 0, 58, 33
1, 282040, Note_on_c, 0, 34, 27
1, 282135, Control_c, 0, 64, 112
1, 282150, Control_c, 0, 64, 102
1, 282165, Control_c, 0, 64, 98
1, 282179, Control_c, 0, 64, 93
1, 282194, Control_c, 0, 64, 87
1, 282209, Control_c, 0, 64, 81
1, 282224, Control_c, 0, 64, 76
1, 282239, Control_c, 0, 64, 73
1, 282253, Control_c, 0, 64, 70
1, 282268, Control_c, 0, 64, 68
1, 282283, Control_c, 0, 64, 65
1, 282298, Control_c, 0, 64, 62
1, 282313, Control_c, 0, 64, 60
1, 282327, Control_c, 0, 64, 60
1, 282342, Control_c, 0, 64, 58
1, 282357, Control_c, 0, 64, 56
1, 282371, Control_c, 0, 64, 53
1, 282386, Control_c, 0, 64, 48
1, 282401, Control_c, 0, 64, 44
1, 282416, Control_c, 0, 64, 42
1, 282431, Control_c, 0, 64, 39
1, 282445, Control_c, 0, 64, 34
1, 282460, Control_c, 0, 64, 26
1, 282475, Control_c, 0, 64, 13
1, 282490, Control_c, 0, 64, 0
1, 282668, Control_c, 0, 64, 9
1, 282683, Control_c, 0, 64, 14
1, 282698, Control_c, 0, 64, 19
1, 282713, Control_c, 0, 64, 23
1, 282727, Control_c, 0, 64, 27
1, 282743, Control_c, 0, 64, 31
1, 282758, Control_c, 0, 64, 34
1, 282773, Control_c, 0, 64, 37
1, 282788, Control_c, 0, 64, 43
1, 282802, Control_c, 0, 64, 51
1, 282817, Control_c, 0, 64, 54
1, 282832, Control_c, 0, 64, 56
1, 282854, Control_c, 0, 64, 57
1, 282869, Control_c, 0, 64, 59
1, 282883, Control_c, 0, 64, 60
1, 282898, Control_c, 0, 64, 62
1, 282913, Control_c, 0, 64, 63
1, 282928, Control_c, 0, 64, 64
1, 282943, Control_c, 0, 64, 66
1, 282958, Control_c, 0, 64, 67
1, 282973, Control_c, 0, 64, 70
1, 282988, Control_c, 0, 64, 73
1, 283002, Control_c, 0, 64, 76
1, 283017, Control_c, 0, 64, 80
1, 283032, Control_c, 0, 64, 83
1, 283047, Control_c, 0, 64, 88
1, 283062, Control_c, 0, 64, 93
1, 283076, Control_c, 0, 64, 100
1, 283091, Control_c, 0, 64, 112
1, 283106, Control_c, 0, 64, 127
1, 284587, Note_off_c, 0, 49, 23
1, 284989, Note_off_c, 0, 53, 25
1, 285642, Note_off_c, 0, 22, 28
1, 285669, Note_off_c, 0, 61, 28
1, 285715, Note_off_c, 0, 34, 32
1, 285763, Note_off_c, 0, 58, 27
1, 285811, Control_c, 0, 64, 120
1, 285826, Control_c, 0, 64, 114
1, 285849, Control_c, 0, 64, 109
1, 285864, Control_c, 0, 64, 106
1, 285878, Control_c, 0, 64, 104
1, 285893, Control_c, 0, 64, 102
1, 285908, Control_c, 0, 64, 100
1, 285923, Control_c, 0, 64, 99
1, 285938, Control_c, 0, 64, 98
1, 285954, Control_c, 0, 64, 97
1, 285968, Control_c, 0, 64, 96
1, 285983, Control_c, 0, 64, 96
1, 285998, Control_c, 0, 64, 95
1, 286013, Control_c, 0, 64, 93
1, 286027, Control_c, 0, 64, 92
1, 286042, Control_c, 0, 64, 91
1, 286057, Control_c, 0, 64, 89
1, 286072, Control_c, 0, 64, 88
1, 286087, Control_c, 0, 64, 88
1, 286101, Control_c, 0, 64, 87
1, 286116, Control_c, 0, 64, 86
1, 286131, Control_c, 0, 64, 85
1, 286146, Control_c, 0, 64, 84
1, 286161, Control_c, 0, 64, 84
1, 286175, Control_c, 0, 64, 83
1, 286205, Control_c, 0, 64, 83
1, 286219, Control_c, 0, 64, 82
1, 286264, Control_c, 0, 64, 82
1, 286279, Control_c, 0, 64, 81
1, 286293, Control_c, 0, 64, 81
1, 286308, Control_c, 0, 64, 80
1, 286338, Control_c, 0, 64, 80
1, 286368, Control_c, 0, 64, 79
1, 286427, Control_c, 0, 64, 79
1, 286457, Control_c, 0, 64, 78
1, 286472, Control_c, 0, 64, 78
1, 286486, Control_c, 0, 64, 77
1, 286501, Control_c, 0, 64, 77
1, 286531, Control_c, 0, 64, 76
1, 286560, Control_c, 0, 64, 76
1, 286612, Control_c, 0, 64, 75
1, 286627, Control_c, 0, 64, 75
1, 286657, Control_c, 0, 64, 74
1, 286687, Control_c, 0, 64, 74
1, 286716, Control_c, 0, 64, 73
1, 286747, Control_c, 0, 64, 73
1, 286806, Control_c, 0, 64, 72
1, 286850, Control_c, 0, 64, 72
1, 286865, Control_c, 0, 64, 71
1, 286880, Control_c, 0, 64, 71
1, 286910, Control_c, 0, 64, 70
1, 286939, Control_c, 0, 64, 70
1, 286969, Control_c, 0, 64, 69
1, 286998, Control_c, 0, 64, 69
1, 287028, Control_c, 0, 64, 68
1, 287072, Control_c, 0, 64, 68
1, 287102, Control_c, 0, 64, 67
1, 287116, Control_c, 0, 64, 67
1, 287146, Control_c, 0, 64, 66
1, 287176, Control_c, 0, 64, 66
1, 287206, Control_c, 0, 64, 65
1, 287235, Control_c, 0, 64, 65
1, 287280, Control_c, 0, 64, 64
1, 287376, Control_c, 0, 64, 64
1, 287420, Control_c, 0, 64, 63
1, 287480, Control_c, 0, 64, 63
1, 287525, Control_c, 0, 64, 62
1, 287555, Control_c, 0, 64, 62
1, 287614, Control_c, 0, 64, 61
1, 287644, Control_c, 0, 64, 61
1, 287733, Control_c, 0, 64, 60
1, 287778, Control_c, 0, 64, 60
1, 287808, Control_c, 0, 64, 59
1, 287881, Control_c, 0, 64, 59
1, 287911, Control_c, 0, 64, 58
1, 287926, Control_c, 0, 64, 58
1, 287955, Control_c, 0, 64, 57
1, 287985, Control_c, 0, 64, 57
1, 288000, Control_c, 0, 64, 56
1, 288029, Control_c, 0, 64, 56
1, 288073, Control_c, 0, 64, 55
1, 288096, Control_c, 0, 64, 55
1, 288111, Control_c, 0, 64, 54
1, 288126, Control_c, 0, 64, 54
1, 288140, Control_c, 0, 64, 53
1, 288155, Control_c, 0, 64, 53
1, 288170, Control_c, 0, 64, 52
1, 288185, Control_c, 0, 64, 52
1, 288199, Control_c, 0, 64, 51
1, 288214, Control_c, 0, 64, 51
1, 288229, Control_c, 0, 64, 50
1, 288244, Control_c, 0, 64, 50
1, 288259, Control_c, 0, 64, 49
1, 288272, Control_c, 0, 64, 48
1, 288287, Control_c, 0, 64, 47
1, 288302, Control_c, 0, 64, 46
1, 288317, Control_c, 0, 64, 45
1, 288332, Control_c, 0, 64, 44
1, 288347, Control_c, 0, 64, 42
1, 288362, Control_c, 0, 64, 41
1, 288377, Control_c, 0, 64, 40
1, 288392, Control_c, 0, 64, 38
1, 288407, Control_c, 0, 64, 36
1, 288422, Control_c, 0, 64, 34
1, 288436, Control_c, 0, 64, 32
1, 288451, Control_c, 0, 64, 30
1, 288466, Control_c, 0, 64, 26
1, 288481, Control_c, 0, 64, 22
1, 288495, Control_c, 0, 64, 16
1, 288510, Control_c, 0, 64, 9
1, 288525, Control_c, 0, 64, 0
1, 288917, Control_c, 0, 67, 124
1, 288932, Control_c, 0, 67, 120
1, 288947, Control_c, 0, 67, 115
1, 288962, Control_c, 0, 67, 110
1, 288976, Control_c, 0, 67, 105
1, 288991, Control_c, 0, 67, 98
1, 289006, Control_c, 0, 67, 92
1, 289021, Control_c, 0, 67, 87
1, 289036, Control_c, 0, 67, 81
1, 289051, Control_c, 0, 67, 75
1, 289066, Control_c, 0, 67, 69
1, 289081, Control_c, 0, 67, 64
1, 289095, Control_c, 0, 67, 59
1, 289110, Control_c, 0, 67, 56
1, 289125, Control_c, 0, 67, 52
1, 289140, Control_c, 0, 67, 48
1, 289155, Control_c, 0, 67, 44
1, 289170, Control_c, 0, 67, 39
1, 289185, Control_c, 0, 67, 31
1, 289200, Control_c, 0, 67, 24
1, 289215, Control_c, 0, 64, 14
1, 289215, Control_c, 0, 67, 16
1, 289230, Control_c, 0, 64, 21
1, 289230, Control_c, 0, 67, 9
1, 289244, Control_c, 0, 64, 27
1, 289244, Control_c, 0, 67, 0
1, 289259, Control_c, 0, 64, 33
1, 289274, Control_c, 0, 64, 38
1, 289289, Control_c, 0, 64, 42
1, 289304, Control_c, 0, 64, 46
1, 289318, Control_c, 0, 64, 50
1, 289333, Control_c, 0, 64, 53
1, 289348, Control_c, 0, 64, 54
1, 289363, Control_c, 0, 64, 56
1, 289378, Control_c, 0, 64, 57
1, 289392, Control_c, 0, 64, 58
1, 289407, Control_c, 0, 64, 59
1, 289422, Control_c, 0, 64, 60
1, 289436, Control_c, 0, 64, 61
1, 289451, Control_c, 0, 64, 62
1, 289466, Control_c, 0, 64, 63
1, 289481, Control_c, 0, 64, 64
1, 289496, Control_c, 0, 64, 65
1, 289510, Control_c, 0, 64, 66
1, 289525, Control_c, 0, 64, 67
1, 289540, Control_c, 0, 64, 68
1, 289555, Control_c, 0, 64, 70
1, 289570, Control_c, 0, 64, 72
1, 289592, Control_c, 0, 64, 74
1, 289607, Control_c, 0, 64, 76
1, 289622, Control_c, 0, 64, 78
1, 289636, Control_c, 0, 64, 81
1, 289651, Control_c, 0, 64, 85
1, 289666, Control_c, 0, 64, 90
1, 289681, Control_c, 0, 64, 97
1, 289696, Control_c, 0, 64, 112
1, 289710, Control_c, 0, 64, 127
1, 290028, Note_on_c, 0, 50, 14
1, 290036, Note_on_c, 0, 82, 36
1, 290072, Note_on_c, 0, 70, 26
1, 290204, Note_off_c, 0, 50, 40
1, 290239, Note_on_c, 0, 58, 37
1, 290258, Note_off_c, 0, 70, 41
1, 290272, Note_on_c, 0, 78, 28
1, 290272, Note_off_c, 0, 82, 32
1, 290293, Note_off_c, 0, 58, 57
1, 290330, Note_off_c, 0, 78, 43
1, 290356, Note_on_c, 0, 65, 40
1, 290367, Note_on_c, 0, 77, 43
1, 290420, Note_off_c, 0, 65, 50
1, 290433, Note_off_c, 0, 77, 57
1, 290452, Note_on_c, 0, 83, 62
1, 290458, Note_on_c, 0, 59, 39
1, 290479, Note_on_c, 0, 71, 34
1, 290526, Note_off_c, 0, 59, 60
1, 290529, Note_on_c, 0, 80, 61
1, 290534, Note_on_c, 0, 65, 50
1, 290544, Note_off_c, 0, 83, 53
1, 290548, Note_off_c, 0, 71, 40
1, 290572, Note_off_c, 0, 65, 62
1, 290589, Note_on_c, 0, 66, 49
1, 290613, Note_on_c, 0, 78, 44
1, 290619, Note_off_c, 0, 80, 59
1, 290622, Note_off_c, 0, 66, 63
1, 290637, Note_off_c, 0, 78, 55
1, 290648, Note_on_c, 0, 68, 56
1, 290649, Note_on_c, 0, 77, 61
1, 290700, Note_off_c, 0, 68, 56
1, 290708, Note_on_c, 0, 78, 55
1, 290725, Note_on_c, 0, 66, 42
1, 290741, Note_off_c, 0, 77, 59
1, 290750, Note_on_c, 0, 80, 60
1, 290754, Note_on_c, 0, 65, 52
1, 290771, Note_off_c, 0, 66, 47
1, 290784, Note_off_c, 0, 78, 64
1, 290791, Note_off_c, 0, 65, 65
1, 290813, Note_off_c, 0, 80, 63
1, 290816, Note_on_c, 0, 83, 71
1, 290842, Note_on_c, 0, 71, 53
1, 290849, Note_on_c, 0, 64, 31
1, 290881, Note_on_c, 0, 78, 66
1, 290883, Note_off_c, 0, 64, 52
1, 290887, Note_on_c, 0, 63, 52
1, 290894, Note_off_c, 0, 83, 61
1, 290911, Note_off_c, 0, 63, 61
1, 290914, Note_off_c, 0, 71, 40
1, 290942, Note_on_c, 0, 77, 58
1, 290945, Note_on_c, 0, 62, 57
1, 290973, Note_off_c, 0, 62, 59
1, 290973, Note_off_c, 0, 78, 58
1, 290978, Control_c, 0, 64, 120
1, 290993, Control_c, 0, 64, 74
1, 291004, Note_off_c, 0, 77, 63
1, 291008, Control_c, 0, 64, 55
1, 291009, Note_on_c, 0, 83, 77
1, 291015, Note_on_c, 0, 51, 61
1, 291023, Control_c, 0, 64, 40
1, 291030, Note_on_c, 0, 71, 60
1, 291037, Control_c, 0, 64, 54
1, 291052, Control_c, 0, 64, 61
1, 291067, Control_c, 0, 64, 67
1, 291089, Control_c, 0, 64, 83
1, 291096, Note_off_c, 0, 51, 64
1, 291099, Note_on_c, 0, 80, 63
1, 291100, Note_off_c, 0, 71, 52
1, 291104, Control_c, 0, 64, 127
1, 291108, Note_off_c, 0, 83, 61
1, 291110, Note_on_c, 0, 59, 57
1, 291141, Note_off_c, 0, 59, 65
1, 291154, Note_on_c, 0, 78, 60
1, 291158, Note_on_c, 0, 66, 58
1, 291188, Note_off_c, 0, 80, 63
1, 291191, Note_off_c, 0, 66, 64
1, 291206, Note_off_c, 0, 78, 62
1, 291212, Note_on_c, 0, 84, 85
1, 291221, Note_on_c, 0, 72, 77
1, 291233, Note_on_c, 0, 60, 65
1, 291276, Note_off_c, 0, 60, 53
1, 291286, Note_on_c, 0, 66, 62
1, 291286, Note_on_c, 0, 81, 73
1, 291298, Note_off_c, 0, 72, 57
1, 291305, Note_off_c, 0, 84, 60
1, 291329, Note_on_c, 0, 80, 71
1, 291342, Note_on_c, 0, 68, 65
1, 291356, Note_off_c, 0, 66, 60
1, 291364, Note_off_c, 0, 81, 64
1, 291383, Note_off_c, 0, 68, 60
1, 291394, Note_on_c, 0, 78, 71
1, 291397, Note_on_c, 0, 69, 73
1, 291447, Note_on_c, 0, 81, 73
1, 291449, Note_off_c, 0, 78, 63
1, 291457, Note_on_c, 0, 68, 68
1, 291459, Note_off_c, 0, 69, 61
1, 291462, Note_off_c, 0, 80, 65
1, 291471, Note_off_c, 0, 81, 70
1, 291504, Note_on_c, 0, 66, 66
1, 291527, Note_off_c, 0, 68, 60
1, 291555, Note_off_c, 0, 66, 60
1, 291577, Note_on_c, 0, 90, 87
1, 291581, Note_on_c, 0, 65, 65
1, 291585, Note_on_c, 0, 78, 79
1, 291627, Note_off_c, 0, 65, 58
1, 291644, Note_on_c, 0, 64, 55
1, 291650, Note_on_c, 0, 85, 74
1, 291668, Note_on_c, 0, 63, 58
1, 291677, Note_off_c, 0, 64, 65
1, 291698, Note_off_c, 0, 63, 64
1, 291707, Note_off_c, 0, 90, 62
1, 291711, Note_off_c, 0, 78, 52
1, 291724, Note_on_c, 0, 84, 60
1, 291740, Note_off_c, 0, 85, 62
1, 291790, Note_on_c, 0, 53, 63
1, 291817, Control_c, 0, 64, 94
1, 291837, Note_off_c, 0, 84, 65
1, 291838, Note_on_c, 0, 90, 71
1, 291838, Control_c, 0, 64, 68
1, 291849, Note_on_c, 0, 78, 60
1, 291853, Control_c, 0, 64, 52
1, 291868, Control_c, 0, 64, 44
1, 291883, Control_c, 0, 64, 51
1, 291898, Control_c, 0, 64, 57
1, 291900, Note_off_c, 0, 53, 61
1, 291909, Note_on_c, 0, 63, 61
1, 291912, Control_c, 0, 64, 63
1, 291927, Control_c, 0, 64, 73
1, 291942, Control_c, 0, 64, 101
1, 291945, Note_on_c, 0, 82, 68
1, 291957, Control_c, 0, 64, 127
1, 291973, Note_off_c, 0, 63, 58
1, 291973, Note_off_c, 0, 90, 62
1, 291990, Note_on_c, 0, 69, 62
1, 291992, Note_off_c, 0, 78, 46
1, 292001, Note_on_c, 0, 81, 66
1, 292020, Note_off_c, 0, 82, 63
1, 292029, Note_off_c, 0, 69, 55
1, 292057, Note_on_c, 0, 70, 74
1, 292062, Note_off_c, 0, 81, 62
1, 292065, Note_on_c, 0, 89, 96
1, 292075, Note_on_c, 0, 77, 78
1, 292085, Note_off_c, 0, 70, 64
1, 292103, Note_on_c, 0, 71, 53
1, 292115, Note_on_c, 0, 73, 72
1, 292124, Note_off_c, 0, 71, 61
1, 292137, Note_on_c, 0, 82, 78
1, 292141, Note_off_c, 0, 89, 61
1, 292163, Note_off_c, 0, 73, 65
1, 292178, Note_off_c, 0, 77, 59
1, 292193, Note_on_c, 0, 72, 36
1, 292196, Note_on_c, 0, 81, 71
1, 292219, Note_off_c, 0, 82, 63
1, 292223, Note_off_c, 0, 72, 54
1, 292253, Control_c, 0, 64, 104
1, 292254, Note_on_c, 0, 56, 72
1, 292258, Note_on_c, 0, 88, 88
1, 292265, Note_off_c, 0, 81, 64
1, 292268, Control_c, 0, 64, 77
1, 292272, Note_on_c, 0, 76, 79
1, 292283, Control_c, 0, 64, 64
1, 292298, Control_c, 0, 64, 62
1, 292312, Control_c, 0, 64, 66
1, 292318, Note_on_c, 0, 64, 59
1, 292327, Note_on_c, 0, 82, 79
1, 292327, Note_off_c, 0, 56, 63
1, 292328, Control_c, 0, 64, 71
1, 292343, Control_c, 0, 64, 81
1, 292351, Note_off_c, 0, 64, 65
1, 292358, Control_c, 0, 64, 116
1, 292359, Note_off_c, 0, 76, 62
1, 292361, Note_off_c, 0, 88, 64
1, 292373, Note_on_c, 0, 68, 58
1, 292373, Control_c, 0, 64, 127
1, 292386, Note_on_c, 0, 81, 67
1, 292416, Note_off_c, 0, 68, 57
1, 292419, Note_off_c, 0, 82, 63
1, 292451, Note_off_c, 0, 81, 64
1, 292454, Note_on_c, 0, 87, 90
1, 292459, Note_on_c, 0, 70, 66
1, 292462, Note_on_c, 0, 75, 78
1, 292515, Note_on_c, 0, 73, 53
1, 292523, Note_on_c, 0, 82, 73
1, 292529, Note_off_c, 0, 70, 60
1, 292550, Note_off_c, 0, 73, 67
1, 292555, Note_off_c, 0, 87, 60
1, 292565, Note_on_c, 0, 71, 64
1, 292571, Note_off_c, 0, 75, 55
1, 292587, Note_on_c, 0, 81, 61
1, 292598, Note_off_c, 0, 71, 65
1, 292623, Note_off_c, 0, 82, 60
1, 292647, Control_c, 0, 64, 96
1, 292661, Control_c, 0, 64, 71
1, 292666, Note_off_c, 0, 81, 63
1, 292675, Note_on_c, 0, 58, 55
1, 292675, Note_on_c, 0, 87, 67
1, 292676, Control_c, 0, 64, 51
1, 292679, Note_on_c, 0, 75, 44
1, 292691, Control_c, 0, 64, 43
1, 292706, Control_c, 0, 64, 54
1, 292721, Control_c, 0, 64, 61
1, 292735, Control_c, 0, 64, 68
1, 292744, Note_off_c, 0, 58, 60
1, 292750, Control_c, 0, 64, 81
1, 292753, Note_on_c, 0, 65, 50
1, 292753, Note_on_c, 0, 82, 54
1, 292765, Control_c, 0, 64, 127
1, 292787, Note_off_c, 0, 87, 59
1, 292797, Note_off_c, 0, 75, 53
1, 292808, Note_on_c, 0, 81, 57
1, 292813, Note_off_c, 0, 65, 59
1, 292817, Note_on_c, 0, 68, 56
1, 292833, Note_off_c, 0, 82, 62
1, 292851, Note_off_c, 0, 68, 65
1, 292852, Note_off_c, 0, 81, 63
1, 292870, Note_on_c, 0, 70, 57
1, 292879, Note_on_c, 0, 86, 74
1, 292889, Note_on_c, 0, 74, 62
1, 292917, Note_off_c, 0, 74, 58
1, 292934, Note_on_c, 0, 71, 61
1, 292946, Note_off_c, 0, 86, 57
1, 292953, Note_on_c, 0, 80, 67
1, 292962, Note_off_c, 0, 71, 66
1, 293004, Note_on_c, 0, 78, 64
1, 293023, Note_off_c, 0, 80, 61
1, 293037, Note_off_c, 0, 78, 66
1, 293039, Note_off_c, 0, 70, 55
1, 293047, Note_on_c, 0, 68, 70
1, 293050, Note_on_c, 0, 77, 68
1, 293093, Note_off_c, 0, 68, 54
1, 293093, Note_on_c, 0, 66, 59
1, 293104, Note_off_c, 0, 77, 61
1, 293120, Note_on_c, 0, 78, 65
1, 293134, Note_off_c, 0, 66, 62
1, 293162, Note_off_c, 0, 78, 56
1, 293164, Note_on_c, 0, 65, 65
1, 293177, Note_on_c, 0, 80, 49
1, 293203, Note_off_c, 0, 65, 58
1, 293229, Note_off_c, 0, 80, 61
1, 293235, Note_on_c, 0, 64, 52
1, 293257, Note_on_c, 0, 81, 71
1, 293267, Note_on_c, 0, 69, 69
1, 293290, Note_on_c, 0, 63, 49
1, 293293, Note_off_c, 0, 64, 56
1, 293329, Note_off_c, 0, 69, 56
1, 293333, Note_off_c, 0, 63, 64
1, 293352, Note_off_c, 0, 81, 64
1, 293356, Note_on_c, 0, 78, 52
1, 293363, Note_on_c, 0, 62, 51
1, 293426, Note_on_c, 0, 77, 45
1, 293438, Note_off_c, 0, 78, 48
1, 293484, Control_c, 0, 64, 109
1, 293485, Note_on_c, 0, 50, 49
1, 293489, Note_off_c, 0, 62, 33
1, 293495, Note_off_c, 0, 77, 61
1, 293499, Control_c, 0, 64, 79
1, 293507, Note_on_c, 0, 82, 66
1, 293514, Control_c, 0, 64, 62
1, 293529, Control_c, 0, 64, 53
1, 293531, Note_on_c, 0, 70, 43
1, 293544, Control_c, 0, 64, 57
1, 293558, Control_c, 0, 64, 60
1, 293573, Control_c, 0, 64, 62
1, 293588, Control_c, 0, 64, 65
1, 293592, Note_off_c, 0, 50, 59
1, 293603, Control_c, 0, 64, 73
1, 293610, Note_on_c, 0, 58, 46
1, 293618, Control_c, 0, 64, 89
1, 293626, Note_on_c, 0, 78, 44
1, 293632, Control_c, 0, 64, 127
1, 293656, Note_off_c, 0, 82, 59
1, 293659, Note_off_c, 0, 58, 60
1, 293659, Note_off_c, 0, 70, 54
1, 293695, Note_on_c, 0, 65, 49
1, 293699, Note_on_c, 0, 77, 52
1, 293712, Note_off_c, 0, 78, 57
1, 293739, Note_off_c, 0, 65, 56
1, 293746, Note_off_c, 0, 77, 61
1, 293758, Note_on_c, 0, 83, 69
1, 293765, Note_on_c, 0, 59, 57
1, 293772, Note_on_c, 0, 71, 55
1, 293807, Note_off_c, 0, 59, 62
1, 293830, Note_off_c, 0, 71, 52
1, 293835, Note_on_c, 0, 65, 63
1, 293837, Note_on_c, 0, 80, 63
1, 293872, Note_off_c, 0, 83, 58
1, 293876, Note_off_c, 0, 65, 59
1, 293880, Note_on_c, 0, 66, 66
1, 293892, Note_on_c, 0, 78, 65
1, 293916, Note_off_c, 0, 66, 63
1, 293924, Note_off_c, 0, 80, 62
1, 293927, Note_off_c, 0, 78, 65
1, 293938, Note_on_c, 0, 68, 69
1, 293947, Note_on_c, 0, 77, 75
1, 293996, Note_on_c, 0, 66, 60
1, 294000, Note_off_c, 0, 68, 62
1, 294002, Note_on_c, 0, 78, 73
1, 294026, Note_off_c, 0, 77, 61
1, 294042, Note_on_c, 0, 80, 72
1, 294044, Note_on_c, 0, 65, 52
1, 294057, Note_off_c, 0, 66, 60
1, 294085, Note_off_c, 0, 65, 64
1, 294088, Note_off_c, 0, 78, 64
1, 294107, Note_off_c, 0, 80, 65
1, 294116, Note_on_c, 0, 64, 63
1, 294118, Note_on_c, 0, 83, 92
1, 294123, Note_on_c, 0, 71, 80
1, 294148, Note_off_c, 0, 64, 65
1, 294168, Note_on_c, 0, 63, 68
1, 294193, Note_on_c, 0, 78, 74
1, 294210, Note_off_c, 0, 63, 60
1, 294214, Note_off_c, 0, 83, 60
1, 294222, Note_off_c, 0, 71, 52
1, 294238, Note_on_c, 0, 77, 71
1, 294239, Note_on_c, 0, 62, 61
1, 294267, Note_off_c, 0, 62, 64
1, 294277, Control_c, 0, 64, 112
1, 294284, Note_off_c, 0, 78, 62
1, 294292, Control_c, 0, 64, 75
1, 294295, Note_on_c, 0, 51, 77
1, 294306, Control_c, 0, 64, 56
1, 294313, Note_on_c, 0, 83, 90
1, 294313, Note_off_c, 0, 77, 64
1, 294321, Control_c, 0, 64, 31
1, 294324, Note_on_c, 0, 71, 74
1, 294336, Control_c, 0, 64, 49
1, 294351, Control_c, 0, 64, 60
1, 294366, Control_c, 0, 64, 68
1, 294381, Control_c, 0, 64, 84
1, 294383, Note_on_c, 0, 59, 71
1, 294383, Note_off_c, 0, 51, 65
1, 294390, Note_on_c, 0, 58, 14
1, 294392, Note_on_c, 0, 80, 74
1, 294396, Control_c, 0, 64, 127
1, 294414, Note_off_c, 0, 71, 60
1, 294420, Note_off_c, 0, 83, 62
1, 294425, Note_off_c, 0, 59, 57
1, 294440, Note_off_c, 0, 58, 38
1, 294440, Note_on_c, 0, 66, 68
1, 294444, Note_on_c, 0, 78, 71
1, 294474, Note_off_c, 0, 66, 63
1, 294482, Note_off_c, 0, 80, 63
1, 294509, Note_on_c, 0, 84, 89
1, 294514, Note_on_c, 0, 60, 77
1, 294516, Note_on_c, 0, 72, 85
1, 294518, Note_off_c, 0, 78, 59
1, 294573, Note_off_c, 0, 60, 63
1, 294574, Note_on_c, 0, 66, 74
1, 294580, Note_on_c, 0, 81, 78
1, 294595, Note_off_c, 0, 72, 61
1, 294611, Note_off_c, 0, 84, 63
1, 294621, Note_on_c, 0, 68, 79
1, 294625, Note_on_c, 0, 80, 79
1, 294653, Note_off_c, 0, 66, 61
1, 294664, Note_off_c, 0, 81, 64
1, 294676, Note_off_c, 0, 68, 63
1, 294681, Note_on_c, 0, 69, 81
1, 294686, Note_on_c, 0, 78, 81
1, 294742, Note_on_c, 0, 81, 75
1, 294744, Note_on_c, 0, 68, 74
1, 294746, Note_off_c, 0, 69, 61
1, 294754, Note_off_c, 0, 78, 63
1, 294760, Note_off_c, 0, 80, 64
1, 294775, Note_off_c, 0, 81, 66
1, 294792, Note_on_c, 0, 66, 73
1, 294813, Note_off_c, 0, 68, 61
1, 294858, Note_off_c, 0, 66, 62
1, 294875, Note_on_c, 0, 65, 73
1, 294877, Note_on_c, 0, 90, 92
1, 294883, Note_on_c, 0, 78, 88
1, 294933, Note_off_c, 0, 65, 60
1, 294941, Note_on_c, 0, 64, 63
1, 294945, Note_on_c, 0, 85, 82
1, 294969, Note_on_c, 0, 63, 62
1, 294975, Note_off_c, 0, 64, 65
1, 295000, Note_off_c, 0, 63, 65
1, 295009, Note_off_c, 0, 78, 60
1, 295010, Note_off_c, 0, 90, 62
1, 295015, Note_on_c, 0, 84, 71
1, 295061, Note_off_c, 0, 85, 61
1, 295088, Note_on_c, 0, 53, 69
1, 295123, Note_on_c, 0, 90, 80
1, 295126, Note_off_c, 0, 84, 63
1, 295131, Control_c, 0, 64, 85
1, 295134, Note_on_c, 0, 78, 71
1, 295146, Control_c, 0, 64, 66
1, 295161, Control_c, 0, 64, 51
1, 295176, Control_c, 0, 64, 48
1, 295191, Control_c, 0, 64, 55
1, 295200, Note_off_c, 0, 53, 63
1, 295205, Control_c, 0, 64, 60
1, 295206, Note_on_c, 0, 63, 62
1, 295220, Control_c, 0, 64, 66
1, 295234, Note_on_c, 0, 82, 67
1, 295235, Control_c, 0, 64, 80
1, 295248, Note_off_c, 0, 63, 59
1, 295249, Control_c, 0, 64, 127
1, 295263, Note_off_c, 0, 90, 62
1, 295283, Note_off_c, 0, 78, 62
1, 295287, Note_on_c, 0, 69, 58
1, 295290, Note_on_c, 0, 81, 69
1, 295318, Note_off_c, 0, 82, 61
1, 295319, Note_off_c, 0, 69, 53
1, 295347, Note_on_c, 0, 70, 63
1, 295354, Note_on_c, 0, 89, 96
1, 295360, Note_on_c, 0, 77, 83
1, 295362, Note_off_c, 0, 81, 62
1, 295368, Note_off_c, 0, 70, 62
1, 295373, Note_on_c, 0, 71, 67
1, 295397, Note_on_c, 0, 73, 76
1, 295403, Note_off_c, 0, 71, 63
1, 295424, Note_on_c, 0, 82, 83
1, 295434, Note_off_c, 0, 89, 60
1, 295442, Note_off_c, 0, 73, 66
1, 295453, Note_on_c, 0, 72, 68
1, 295458, Note_off_c, 0, 77, 61
1, 295478, Note_off_c, 0, 72, 67
1, 295484, Note_on_c, 0, 81, 73
1, 295510, Note_off_c, 0, 82, 63
1, 295536, Note_on_c, 0, 56, 78
1, 295543, Note_on_c, 0, 88, 94
1, 295546, Control_c, 0, 64, 81
1, 295552, Note_on_c, 0, 76, 86
1, 295554, Note_off_c, 0, 81, 63
1, 295561, Control_c, 0, 64, 63
1, 295584, Control_c, 0, 64, 60
1, 295599, Control_c, 0, 64, 66
1, 295604, Note_on_c, 0, 64, 63
1, 295614, Control_c, 0, 64, 72
1, 295618, Note_on_c, 0, 82, 83
1, 295622, Note_off_c, 0, 56, 64
1, 295628, Control_c, 0, 64, 89
1, 295640, Note_off_c, 0, 64, 64
1, 295643, Control_c, 0, 64, 127
1, 295647, Note_off_c, 0, 76, 62
1, 295658, Note_off_c, 0, 88, 63
1, 295659, Note_on_c, 0, 68, 71
1, 295677, Note_on_c, 0, 81, 70
1, 295710, Note_off_c, 0, 82, 63
1, 295718, Note_off_c, 0, 68, 57
1, 295743, Note_on_c, 0, 87, 92
1, 295746, Note_on_c, 0, 70, 76
1, 295746, Note_off_c, 0, 81, 66
1, 295751, Note_on_c, 0, 75, 82
1, 295796, Note_on_c, 0, 73, 59
1, 295813, Note_on_c, 0, 82, 77
1, 295819, Note_off_c, 0, 70, 52
1, 295850, Note_off_c, 0, 73, 64
1, 295861, Note_on_c, 0, 71, 66
1, 295861, Note_off_c, 0, 87, 60
1, 295865, Note_off_c, 0, 75, 56
1, 295872, Note_on_c, 0, 81, 61
1, 295892, Note_off_c, 0, 71, 64
1, 295922, Note_off_c, 0, 82, 59
1, 295954, Control_c, 0, 64, 87
1, 295965, Note_off_c, 0, 81, 61
1, 295966, Note_on_c, 0, 58, 58
1, 295969, Note_on_c, 0, 87, 69
1, 295969, Control_c, 0, 64, 66
1, 295984, Control_c, 0, 64, 48
1, 295985, Note_on_c, 0, 75, 48
1, 295999, Control_c, 0, 64, 51
1, 296014, Control_c, 0, 64, 60
1, 296028, Control_c, 0, 64, 68
1, 296043, Control_c, 0, 64, 82
1, 296052, Note_on_c, 0, 65, 60
1, 296055, Note_off_c, 0, 58, 62
1, 296056, Note_on_c, 0, 82, 55
1, 296058, Control_c, 0, 64, 127
1, 296096, Note_off_c, 0, 87, 62
1, 296103, Note_off_c, 0, 75, 59
1, 296123, Note_on_c, 0, 68, 62
1, 296132, Note_on_c, 0, 81, 55
1, 296135, Note_off_c, 0, 65, 61
1, 296149, Note_off_c, 0, 82, 64
1, 296160, Note_off_c, 0, 68, 63
1, 296167, Note_off_c, 0, 81, 65
1, 296182, Note_on_c, 0, 70, 67
1, 296195, Note_on_c, 0, 86, 74
1, 296202, Note_on_c, 0, 74, 67
1, 296240, Note_off_c, 0, 74, 47
1, 296249, Note_on_c, 0, 71, 71
1, 296258, Note_off_c, 0, 86, 61
1, 296264, Note_on_c, 0, 80, 73
1, 296282, Note_off_c, 0, 71, 60
1, 296296, Note_off_c, 0, 70, 0
1, 296308, Note_on_c, 0, 70, 57
1, 296329, Note_on_c, 0, 78, 61
1, 296345, Note_off_c, 0, 80, 62
1, 296364, Note_off_c, 0, 78, 66
1, 296374, Note_off_c, 0, 70, 62
1, 296378, Note_on_c, 0, 77, 69
1, 296384, Note_on_c, 0, 68, 72
1, 296414, Note_off_c, 0, 77, 60
1, 296434, Note_on_c, 0, 66, 62
1, 296439, Note_off_c, 0, 68, 60
1, 296452, Note_on_c, 0, 75, 46
1, 296476, Note_off_c, 0, 75, 39
1, 296491, Note_on_c, 0, 74, 64
1, 296494, Note_off_c, 0, 66, 61
1, 296516, Note_on_c, 0, 65, 64
1, 296526, Note_off_c, 0, 74, 65
1, 296580, Note_off_c, 0, 65, 61
1, 296581, Note_on_c, 0, 70, 89
1, 296584, Note_on_c, 0, 64, 64
1, 296646, Note_on_c, 0, 63, 62
1, 296657, Note_off_c, 0, 64, 58
1, 296670, Note_on_c, 0, 68, 76
1, 296705, Note_off_c, 0, 63, 59
1, 296736, Note_on_c, 0, 62, 49
1, 296740, Note_off_c, 0, 70, 58
1, 296762, Note_off_c, 0, 62, 58
1, 296762, Note_off_c, 0, 68, 60
1, 296764, Note_on_c, 0, 65, 54
1, 296810, Note_off_c, 0, 65, 61
1, 296913, Note_on_c, 0, 39, 64
1, 296964, Note_on_c, 0, 69, 75
1, 296969, Control_c, 0, 64, 107
1, 296984, Control_c, 0, 64, 74
1, 296986, Note_on_c, 0, 57, 57
1, 296999, Control_c, 0, 64, 56
1, 297014, Control_c, 0, 64, 28
1, 297029, Control_c, 0, 64, 40
1, 297043, Control_c, 0, 64, 51
1, 297058, Control_c, 0, 64, 58
1, 297081, Control_c, 0, 64, 65
1, 297096, Control_c, 0, 64, 74
1, 297110, Control_c, 0, 64, 98
1, 297126, Control_c, 0, 64, 127
1, 297144, Note_on_c, 0, 46, 50
1, 297154, Note_on_c, 0, 66, 55
1, 297155, Note_off_c, 0, 57, 56
1, 297171, Note_off_c, 0, 39, 59
1, 297186, Note_off_c, 0, 46, 62
1, 297192, Note_off_c, 0, 69, 62
1, 297212, Note_on_c, 0, 48, 55
1, 297244, Note_on_c, 0, 65, 59
1, 297267, Note_off_c, 0, 66, 52
1, 297286, Note_off_c, 0, 48, 58
1, 297294, Note_off_c, 0, 65, 63
1, 297295, Note_on_c, 0, 50, 62
1, 297300, Note_on_c, 0, 70, 79
1, 297318, Note_on_c, 0, 58, 63
1, 297358, Note_on_c, 0, 51, 78
1, 297358, Note_off_c, 0, 58, 61
1, 297364, Note_off_c, 0, 50, 63
1, 297370, Note_on_c, 0, 66, 61
1, 297411, Note_off_c, 0, 70, 62
1, 297412, Note_off_c, 0, 51, 64
1, 297417, Note_on_c, 0, 65, 67
1, 297422, Note_on_c, 0, 53, 75
1, 297478, Note_off_c, 0, 65, 63
1, 297481, Note_off_c, 0, 66, 35
1, 297486, Note_on_c, 0, 63, 67
1, 297488, Note_on_c, 0, 54, 80
1, 297490, Note_off_c, 0, 53, 63
1, 297524, Note_on_c, 0, 65, 61
1, 297546, Note_on_c, 0, 56, 80
1, 297546, Note_off_c, 0, 63, 59
1, 297577, Note_off_c, 0, 54, 62
1, 297588, Note_on_c, 0, 66, 65
1, 297591, Note_off_c, 0, 65, 62
1, 297605, Note_off_c, 0, 56, 64
1, 297615, Note_off_c, 0, 66, 65
1, 297617, Note_on_c, 0, 57, 65
1, 297692, Note_on_c, 0, 78, 90
1, 297692, Note_on_c, 0, 66, 75
1, 297698, Note_off_c, 0, 57, 64
1, 297704, Note_on_c, 0, 58, 64
1, 297762, Note_on_c, 0, 69, 67
1, 297768, Note_on_c, 0, 60, 67
1, 297779, Note_off_c, 0, 58, 62
1, 297797, Note_off_c, 0, 66, 60
1, 297805, Note_off_c, 0, 60, 65
1, 297815, Note_off_c, 0, 78, 61
1, 297834, Note_on_c, 0, 70, 67
1, 297840, Note_on_c, 0, 62, 61
1, 297859, Note_off_c, 0, 69, 59
1, 297911, Note_off_c, 0, 62, 60
1, 297914, Note_on_c, 0, 65, 63
1, 297922, Note_off_c, 0, 70, 63
1, 297931, Note_on_c, 0, 78, 80
1, 297932, Note_on_c, 0, 66, 66
1, 297990, Note_on_c, 0, 63, 62
1, 298006, Note_on_c, 0, 70, 59
1, 298029, Note_off_c, 0, 65, 52
1, 298036, Note_off_c, 0, 66, 56
1, 298038, Note_off_c, 0, 78, 62
1, 298046, Note_on_c, 0, 69, 69
1, 298065, Note_on_c, 0, 61, 64
1, 298066, Note_off_c, 0, 70, 60
1, 298086, Note_off_c, 0, 63, 62
1, 298093, Note_off_c, 0, 69, 61
1, 298101, Note_off_c, 0, 61, 63
1, 298129, Note_on_c, 0, 60, 68
1, 298131, Note_on_c, 0, 77, 91
1, 298138, Note_on_c, 0, 65, 73
1, 298175, Note_on_c, 0, 67, 40
1, 298176, Note_off_c, 0, 67, 127
1, 298182, Note_off_c, 0, 60, 55
1, 298194, Note_on_c, 0, 73, 79
1, 298203, Note_on_c, 0, 58, 73
1, 298224, Note_off_c, 0, 77, 60
1, 298236, Note_off_c, 0, 65, 62
1, 298249, Note_on_c, 0, 72, 64
1, 298256, Note_on_c, 0, 57, 58
1, 298257, Note_off_c, 0, 73, 64
1, 298262, Note_off_c, 0, 58, 61
1, 298276, Note_off_c, 0, 72, 67
1, 298292, Note_off_c, 0, 57, 63
1, 298313, Note_on_c, 0, 55, 79
1, 298319, Note_on_c, 0, 76, 95
1, 298326, Note_on_c, 0, 64, 81
1, 298357, Note_off_c, 0, 55, 56
1, 298367, Note_on_c, 0, 65, 35
1, 298368, Note_off_c, 0, 65, 127
1, 298375, Note_on_c, 0, 54, 80
1, 298386, Note_on_c, 0, 70, 82
1, 298410, Note_off_c, 0, 64, 61
1, 298410, Note_off_c, 0, 76, 61
1, 298429, Note_off_c, 0, 54, 64
1, 298451, Note_on_c, 0, 69, 74
1, 298452, Note_on_c, 0, 53, 75
1, 298485, Note_off_c, 0, 70, 56
1, 298492, Note_off_c, 0, 53, 61
1, 298512, Control_c, 0, 64, 117
1, 298512, Note_off_c, 0, 69, 62
1, 298519, Note_on_c, 0, 41, 82
1, 298519, Note_on_c, 0, 75, 88
1, 298527, Control_c, 0, 64, 75
1, 298529, Note_on_c, 0, 63, 80
1, 298541, Control_c, 0, 64, 51
1, 298556, Control_c, 0, 64, 42
1, 298578, Control_c, 0, 64, 57
1, 298593, Control_c, 0, 64, 64
1, 298602, Note_on_c, 0, 73, 76
1, 298608, Control_c, 0, 64, 77
1, 298616, Note_on_c, 0, 53, 71
1, 298619, Note_off_c, 0, 41, 65
1, 298622, Control_c, 0, 64, 127
1, 298646, Note_off_c, 0, 75, 62
1, 298653, Note_on_c, 0, 72, 61
1, 298670, Note_off_c, 0, 73, 62
1, 298670, Note_off_c, 0, 63, 62
1, 298673, Note_on_c, 0, 51, 72
1, 298673, Note_off_c, 0, 53, 63
1, 298682, Note_off_c, 0, 72, 67
1, 298742, Control_c, 0, 64, 110
1, 298755, Note_on_c, 0, 42, 74
1, 298757, Note_on_c, 0, 72, 80
1, 298757, Control_c, 0, 64, 73
1, 298764, Note_off_c, 0, 51, 61
1, 298771, Control_c, 0, 64, 51
1, 298775, Note_on_c, 0, 60, 59
1, 298786, Control_c, 0, 64, 0
1, 298801, Control_c, 0, 64, 11
1, 298816, Control_c, 0, 64, 40
1, 298831, Control_c, 0, 64, 57
1, 298845, Control_c, 0, 64, 68
1, 298850, Note_on_c, 0, 70, 65
1, 298852, Note_on_c, 0, 49, 64
1, 298860, Control_c, 0, 64, 90
1, 298875, Control_c, 0, 64, 127
1, 298891, Note_off_c, 0, 42, 58
1, 298891, Note_off_c, 0, 60, 63
1, 298896, Note_off_c, 0, 72, 62
1, 298912, Note_on_c, 0, 51, 72
1, 298926, Note_on_c, 0, 69, 58
1, 298948, Note_off_c, 0, 49, 62
1, 298951, Note_off_c, 0, 70, 51
1, 298968, Note_off_c, 0, 69, 62
1, 298971, Note_off_c, 0, 51, 63
1, 298976, Note_on_c, 0, 73, 91
1, 298980, Note_on_c, 0, 53, 71
1, 298986, Note_on_c, 0, 61, 80
1, 299046, Note_on_c, 0, 54, 81
1, 299056, Note_off_c, 0, 53, 62
1, 299063, Note_on_c, 0, 70, 79
1, 299093, Note_off_c, 0, 73, 62
1, 299102, Note_off_c, 0, 61, 54
1, 299111, Note_on_c, 0, 68, 75
1, 299116, Note_on_c, 0, 56, 81
1, 299141, Note_off_c, 0, 54, 61
1, 299162, Note_off_c, 0, 70, 62
1, 299166, Note_on_c, 0, 58, 87
1, 299171, Note_on_c, 0, 66, 82
1, 299204, Note_off_c, 0, 56, 64
1, 299228, Note_on_c, 0, 59, 82
1, 299231, Note_off_c, 0, 58, 65
1, 299233, Note_on_c, 0, 70, 79
1, 299251, Note_off_c, 0, 66, 61
1, 299261, Note_off_c, 0, 68, 64
1, 299289, Note_off_c, 0, 70, 61
1, 299295, Note_on_c, 0, 69, 9
1, 299304, Note_on_c, 0, 60, 79
1, 299313, Note_off_c, 0, 59, 62
1, 299348, Note_off_c, 0, 69, 49
1, 299371, Note_on_c, 0, 82, 93
1, 299374, Note_on_c, 0, 70, 90
1, 299378, Note_on_c, 0, 61, 72
1, 299404, Note_off_c, 0, 60, 62
1, 299433, Note_off_c, 0, 82, 62
1, 299438, Note_on_c, 0, 63, 75
1, 299439, Note_on_c, 0, 72, 43
1, 299444, Note_on_c, 0, 71, 24
1, 299448, Note_off_c, 0, 70, 45
1, 299457, Note_off_c, 0, 61, 62
1, 299480, Note_off_c, 0, 71, 44
1, 299483, Note_off_c, 0, 72, 66
1, 299494, Note_off_c, 0, 63, 63
1, 299496, Note_on_c, 0, 73, 47
1, 299511, Note_on_c, 0, 65, 67
1, 299524, Note_off_c, 0, 73, 55
1, 299573, Note_off_c, 0, 65, 58
1, 299579, Note_on_c, 0, 82, 82
1, 299584, Note_on_c, 0, 70, 83
1, 299591, Note_on_c, 0, 66, 71
1, 299621, Note_off_c, 0, 82, 66
1, 299630, Note_on_c, 0, 80, 20
1, 299648, Note_off_c, 0, 66, 61
1, 299670, Note_off_c, 0, 80, 49
1, 299675, Note_on_c, 0, 65, 70
1, 299679, Note_on_c, 0, 73, 73
1, 299681, Note_off_c, 0, 70, 63
1, 299738, Note_on_c, 0, 72, 65
1, 299743, Note_on_c, 0, 63, 73
1, 299744, Note_off_c, 0, 65, 58
1, 299793, Note_on_c, 0, 80, 86
1, 299797, Note_off_c, 0, 73, 51
1, 299803, Note_off_c, 0, 72, 63
1, 299803, Note_on_c, 0, 68, 92
1, 299805, Note_on_c, 0, 62, 65
1, 299815, Note_off_c, 0, 63, 60
1, 299849, Note_on_c, 0, 61, 76
1, 299865, Note_on_c, 0, 77, 72
1, 299875, Note_off_c, 0, 62, 63
1, 299900, Note_off_c, 0, 61, 63
1, 299901, Note_off_c, 0, 68, 63
1, 299902, Note_off_c, 0, 80, 64
1, 299910, Note_on_c, 0, 75, 69
1, 299926, Note_on_c, 0, 60, 76
1, 299932, Note_off_c, 0, 77, 60
1, 299952, Note_off_c, 0, 75, 57
1, 299970, Note_on_c, 0, 79, 95
1, 299975, Note_on_c, 0, 67, 85
1, 299983, Note_off_c, 0, 60, 63
1, 299992, Note_on_c, 0, 58, 76
1, 300003, Note_on_c, 0, 69, 55
1, 300018, Note_on_c, 0, 57, 78
1, 300027, Note_off_c, 0, 69, 59
1, 300029, Note_on_c, 0, 73, 84
1, 300044, Note_off_c, 0, 67, 62
1, 300047, Note_off_c, 0, 79, 63
1, 300055, Note_off_c, 0, 58, 57
1, 300071, Note_off_c, 0, 57, 62
1, 300106, Note_on_c, 0, 56, 77
1, 300112, Note_on_c, 0, 72, 69
1, 300155, Note_off_c, 0, 56, 61
1, 300162, Note_off_c, 0, 73, 59
1, 300175, Note_on_c, 0, 78, 99
1, 300176, Note_off_c, 0, 72, 60
1, 300179, Control_c, 0, 64, 122
1, 300181, Note_on_c, 0, 66, 84
1, 300182, Note_on_c, 0, 44, 93
1, 300194, Control_c, 0, 64, 73
1, 300208, Control_c, 0, 64, 59
1, 300223, Control_c, 0, 64, 63
1, 300238, Control_c, 0, 64, 70
1, 300239, Note_on_c, 0, 77, 74
1, 300253, Control_c, 0, 64, 88
1, 300254, Note_on_c, 0, 56, 86
1, 300260, Note_off_c, 0, 44, 62
1, 300268, Control_c, 0, 64, 127
1, 300272, Note_on_c, 0, 75, 75
1, 300283, Note_off_c, 0, 78, 61
1, 300297, Note_off_c, 0, 77, 63
1, 300301, Note_off_c, 0, 66, 62
1, 300311, Note_off_c, 0, 75, 60
1, 300323, Note_off_c, 0, 56, 61
1, 300325, Note_on_c, 0, 54, 73
1, 300357, Control_c, 0, 64, 84
1, 300372, Control_c, 0, 64, 55
1, 300375, Note_on_c, 0, 46, 82
1, 300376, Note_on_c, 0, 76, 99
1, 300380, Note_on_c, 0, 64, 93
1, 300387, Control_c, 0, 64, 0
1, 300388, Note_off_c, 0, 54, 62
1, 300402, Control_c, 0, 64, 12
1, 300417, Control_c, 0, 64, 54
1, 300432, Control_c, 0, 64, 74
1, 300435, Note_on_c, 0, 53, 76
1, 300447, Control_c, 0, 64, 127
1, 300449, Note_on_c, 0, 69, 82
1, 300467, Note_off_c, 0, 46, 62
1, 300469, Note_off_c, 0, 64, 60
1, 300470, Note_off_c, 0, 76, 61
1, 300500, Note_on_c, 0, 70, 76
1, 300509, Note_on_c, 0, 55, 66
1, 300515, Note_off_c, 0, 69, 63
1, 300519, Note_off_c, 0, 53, 63
1, 300521, Note_off_c, 0, 70, 70
1, 300542, Note_off_c, 0, 55, 64
1, 300555, Note_on_c, 0, 57, 83
1, 300566, Note_on_c, 0, 65, 95
1, 300570, Note_on_c, 0, 77, 96
1, 300634, Note_on_c, 0, 60, 84
1, 300641, Note_on_c, 0, 72, 91
1, 300644, Note_off_c, 0, 65, 59
1, 300646, Note_off_c, 0, 57, 58
1, 300653, Note_off_c, 0, 77, 65
1, 300681, Note_on_c, 0, 58, 85
1, 300685, Note_off_c, 0, 60, 66
1, 300703, Note_off_c, 0, 58, 71
1, 300709, Note_on_c, 0, 73, 99
1, 300727, Note_off_c, 0, 72, 64
1, 300772, Note_off_c, 0, 73, 66
1, 300929, Note_on_c, 0, 48, 100
1, 300936, Note_on_c, 0, 36, 87
1, 300962, Note_on_c, 0, 73, 102
1, 300964, Note_on_c, 0, 85, 100
1, 300972, Control_c, 0, 64, 87
1, 300987, Control_c, 0, 64, 54
1, 301001, Control_c, 0, 64, 0
1, 301046, Control_c, 0, 64, 26
1, 301061, Control_c, 0, 64, 61
1, 301075, Control_c, 0, 64, 83
1, 301082, Note_off_c, 0, 36, 64
1, 301090, Control_c, 0, 64, 127
1, 301131, Note_off_c, 0, 48, 67
1, 301207, Note_off_c, 0, 73, 57
1, 301215, Note_on_c, 0, 84, 76
1, 301254, Note_on_c, 0, 55, 74
1, 301300, Note_on_c, 0, 82, 77
1, 301344, Note_off_c, 0, 55, 61
1, 301351, Note_on_c, 0, 64, 68
1, 301356, Note_on_c, 0, 58, 60
1, 301370, Note_on_c, 0, 80, 79
1, 301376, Note_off_c, 0, 84, 58
1, 301398, Note_off_c, 0, 64, 61
1, 301403, Note_off_c, 0, 82, 64
1, 301407, Note_off_c, 0, 58, 61
1, 301425, Note_on_c, 0, 78, 79
1, 301430, Note_on_c, 0, 57, 78
1, 301433, Note_off_c, 0, 80, 63
1, 301480, Note_on_c, 0, 79, 72
1, 301487, Note_off_c, 0, 85, 58
1, 301501, Note_on_c, 0, 58, 82
1, 301511, Note_off_c, 0, 57, 62
1, 301523, Note_off_c, 0, 78, 57
1, 301527, Note_on_c, 0, 63, 74
1, 301530, Note_on_c, 0, 82, 81
1, 301534, Note_on_c, 0, 67, 73
1, 301539, Note_off_c, 0, 79, 64
1, 301577, Note_off_c, 0, 58, 63
1, 301594, Note_off_c, 0, 67, 62
1, 301595, Note_on_c, 0, 80, 89
1, 301600, Note_off_c, 0, 63, 63
1, 301619, Note_on_c, 0, 59, 83
1, 301637, Note_off_c, 0, 82, 62
1, 301662, Note_on_c, 0, 79, 78
1, 301681, Note_on_c, 0, 60, 81
1, 301687, Note_off_c, 0, 80, 63
1, 301693, Note_off_c, 0, 59, 64
1, 301712, Note_on_c, 0, 64, 73
1, 301723, Note_on_c, 0, 84, 99
1, 301732, Note_on_c, 0, 72, 89
1, 301735, Note_off_c, 0, 60, 66
1, 301735, Control_c, 0, 64, 89
1, 301745, Note_off_c, 0, 79, 64
1, 301750, Control_c, 0, 64, 70
1, 301755, Note_on_c, 0, 70, 85
1, 301763, Note_off_c, 0, 64, 62
1, 301765, Control_c, 0, 64, 66
1, 301780, Control_c, 0, 64, 71
1, 301795, Control_c, 0, 64, 88
1, 301797, Note_on_c, 0, 82, 80
1, 301810, Control_c, 0, 64, 127
1, 301811, Note_off_c, 0, 72, 63
1, 301824, Note_on_c, 0, 63, 73
1, 301829, Note_off_c, 0, 70, 64
1, 301857, Note_on_c, 0, 80, 78
1, 301867, Note_on_c, 0, 64, 71
1, 301869, Control_c, 0, 64, 94
1, 301884, Control_c, 0, 64, 72
1, 301896, Note_off_c, 0, 63, 61
1, 301898, Control_c, 0, 64, 67
1, 301905, Note_off_c, 0, 84, 38
1, 301913, Note_on_c, 0, 79, 81
1, 301913, Control_c, 0, 64, 72
1, 301923, Note_off_c, 0, 82, 59
1, 301930, Control_c, 0, 64, 86
1, 301932, Note_on_c, 0, 70, 74
1, 301942, Note_off_c, 0, 80, 63
1, 301944, Control_c, 0, 64, 127
1, 301949, Note_on_c, 0, 73, 76
1, 301954, Note_off_c, 0, 70, 67
1, 301970, Note_off_c, 0, 64, 51
1, 301971, Note_off_c, 0, 79, 65
1, 301974, Note_on_c, 0, 77, 81
1, 301992, Note_off_c, 0, 73, 63
1, 302043, Note_on_c, 0, 70, 71
1, 302043, Note_off_c, 0, 77, 41
1, 302050, Note_on_c, 0, 76, 81
1, 302106, Note_off_c, 0, 70, 63
1, 302125, Note_off_c, 0, 76, 62
1, 302134, Note_on_c, 0, 67, 62
1, 302134, Note_on_c, 0, 82, 92
1, 302135, Note_on_c, 0, 70, 76
1, 302217, Note_on_c, 0, 77, 65
1, 302224, Note_off_c, 0, 67, 62
1, 302240, Note_on_c, 0, 60, 58
1, 302263, Note_off_c, 0, 82, 60
1, 302268, Note_off_c, 0, 60, 67
1, 302295, Note_on_c, 0, 76, 61
1, 302295, Note_off_c, 0, 70, 57
1, 302328, Note_off_c, 0, 77, 58
1, 302455, Note_on_c, 0, 41, 51
1, 302459, Note_on_c, 0, 53, 39
1, 302501, Control_c, 0, 64, 90
1, 302503, Note_off_c, 0, 76, 39
1, 302509, Note_on_c, 0, 80, 57
1, 302515, Control_c, 0, 64, 69
1, 302527, Note_on_c, 0, 68, 43
1, 302530, Control_c, 0, 64, 50
1, 302545, Control_c, 0, 64, 14
1, 302560, Control_c, 0, 64, 26
1, 302575, Control_c, 0, 64, 36
1, 302589, Control_c, 0, 64, 47
1, 302595, Note_off_c, 0, 41, 58
1, 302604, Control_c, 0, 64, 58
1, 302619, Control_c, 0, 64, 65
1, 302634, Control_c, 0, 64, 77
1, 302649, Control_c, 0, 64, 101
1, 302663, Control_c, 0, 64, 127
1, 302688, Note_off_c, 0, 53, 53
1, 302721, Note_on_c, 0, 78, 10
1, 302746, Note_off_c, 0, 80, 54
1, 302751, Note_off_c, 0, 68, 33
1, 302771, Note_off_c, 0, 78, 48
1, 302784, Note_on_c, 0, 77, 44
1, 302785, Note_on_c, 0, 60, 43
1, 302858, Note_off_c, 0, 60, 56
1, 302870, Note_off_c, 0, 77, 60
1, 302894, Note_on_c, 0, 81, 56
1, 302912, Note_on_c, 0, 61, 40
1, 302913, Note_on_c, 0, 69, 41
1, 302949, Note_off_c, 0, 61, 60
1, 302983, Note_on_c, 0, 63, 43
1, 302994, Note_on_c, 0, 78, 49
1, 303035, Note_off_c, 0, 63, 56
1, 303041, Note_off_c, 0, 81, 34
1, 303046, Note_off_c, 0, 69, 40
1, 303057, Note_on_c, 0, 77, 50
1, 303058, Note_on_c, 0, 61, 50
1, 303083, Note_off_c, 0, 78, 51
1, 303095, Note_off_c, 0, 77, 62
1, 303110, Note_off_c, 0, 61, 59
1, 303112, Note_on_c, 0, 60, 57
1, 303124, Note_on_c, 0, 75, 60
1, 303165, Note_on_c, 0, 58, 58
1, 303171, Note_off_c, 0, 60, 51
1, 303177, Note_on_c, 0, 77, 64
1, 303200, Note_off_c, 0, 75, 53
1, 303225, Note_off_c, 0, 58, 52
1, 303229, Note_on_c, 0, 78, 63
1, 303234, Note_on_c, 0, 57, 57
1, 303247, Note_off_c, 0, 77, 59
1, 303282, Note_on_c, 0, 61, 63
1, 303283, Note_on_c, 0, 81, 81
1, 303293, Note_off_c, 0, 78, 60
1, 303294, Control_c, 0, 64, 112
1, 303294, Note_on_c, 0, 69, 66
1, 303308, Control_c, 0, 64, 90
1, 303309, Note_off_c, 0, 57, 58
1, 303323, Control_c, 0, 64, 80
1, 303338, Control_c, 0, 64, 79
1, 303346, Note_off_c, 0, 61, 61
1, 303352, Note_on_c, 0, 63, 59
1, 303353, Control_c, 0, 64, 83
1, 303355, Note_on_c, 0, 78, 54
1, 303368, Control_c, 0, 64, 93
1, 303383, Control_c, 0, 64, 127
1, 303395, Note_off_c, 0, 81, 63
1, 303397, Note_off_c, 0, 69, 61
1, 303398, Note_on_c, 0, 77, 64
1, 303411, Note_on_c, 0, 61, 45
1, 303425, Note_off_c, 0, 63, 57
1, 303430, Note_off_c, 0, 78, 62
1, 303446, Note_off_c, 0, 77, 54
1, 303457, Control_c, 0, 64, 107
1, 303472, Note_on_c, 0, 81, 76
1, 303472, Control_c, 0, 64, 81
1, 303473, Note_off_c, 0, 61, 61
1, 303479, Note_on_c, 0, 60, 63
1, 303481, Note_on_c, 0, 69, 68
1, 303486, Control_c, 0, 64, 68
1, 303501, Control_c, 0, 64, 65
1, 303517, Control_c, 0, 64, 67
1, 303532, Control_c, 0, 64, 71
1, 303547, Control_c, 0, 64, 77
1, 303553, Note_on_c, 0, 77, 71
1, 303557, Note_off_c, 0, 69, 62
1, 303558, Note_on_c, 0, 61, 52
1, 303561, Control_c, 0, 64, 88
1, 303568, Note_off_c, 0, 81, 64
1, 303571, Note_off_c, 0, 60, 57
1, 303576, Control_c, 0, 64, 115
1, 303591, Control_c, 0, 64, 127
1, 303594, Note_on_c, 0, 63, 62
1, 303606, Control_c, 0, 64, 107
1, 303617, Note_on_c, 0, 75, 63
1, 303620, Note_off_c, 0, 77, 62
1, 303621, Control_c, 0, 64, 90
1, 303624, Note_off_c, 0, 61, 58
1, 303635, Control_c, 0, 64, 78
1, 303650, Control_c, 0, 64, 69
1, 303658, Note_off_c, 0, 63, 60
1, 303660, Note_off_c, 0, 75, 61
1, 303662, Note_on_c, 0, 65, 62
1, 303665, Control_c, 0, 64, 66
1, 303671, Note_on_c, 0, 82, 73
1, 303680, Control_c, 0, 64, 69
1, 303681, Note_on_c, 0, 70, 67
1, 303695, Control_c, 0, 64, 73
1, 303710, Control_c, 0, 64, 77
1, 303723, Note_off_c, 0, 70, 60
1, 303724, Control_c, 0, 64, 82
1, 303731, Note_off_c, 0, 65, 62
1, 303735, Note_on_c, 0, 63, 54
1, 303735, Note_on_c, 0, 78, 72
1, 303739, Control_c, 0, 64, 91
1, 303754, Control_c, 0, 64, 114
1, 303768, Control_c, 0, 64, 127
1, 303779, Note_off_c, 0, 82, 61
1, 303796, Note_on_c, 0, 61, 58
1, 303798, Note_on_c, 0, 77, 64
1, 303835, Note_off_c, 0, 78, 60
1, 303847, Note_off_c, 0, 63, 55
1, 303860, Note_off_c, 0, 77, 61
1, 303869, Note_on_c, 0, 75, 67
1, 303874, Note_on_c, 0, 66, 69
1, 303886, Note_off_c, 0, 61, 59
1, 303895, Control_c, 0, 64, 117
1, 303910, Control_c, 0, 64, 101
1, 303924, Control_c, 0, 64, 88
1, 303927, Note_on_c, 0, 77, 62
1, 303935, Note_off_c, 0, 75, 58
1, 303939, Control_c, 0, 64, 75
1, 303943, Note_on_c, 0, 65, 54
1, 303954, Control_c, 0, 64, 67
1, 303968, Control_c, 0, 64, 61
1, 303974, Note_off_c, 0, 66, 52
1, 303991, Note_on_c, 0, 78, 65
1, 303997, Note_off_c, 0, 77, 59
1, 303998, Control_c, 0, 64, 64
1, 304009, Note_on_c, 0, 63, 52
1, 304013, Control_c, 0, 64, 67
1, 304028, Control_c, 0, 64, 72
1, 304042, Control_c, 0, 64, 82
1, 304043, Note_off_c, 0, 65, 60
1, 304057, Control_c, 0, 64, 106
1, 304062, Note_off_c, 0, 78, 62
1, 304070, Note_on_c, 0, 82, 76
1, 304072, Control_c, 0, 64, 127
1, 304080, Note_on_c, 0, 68, 67
1, 304085, Note_on_c, 0, 70, 65
1, 304085, Note_off_c, 0, 63, 61
1, 304153, Note_on_c, 0, 78, 58
1, 304158, Note_off_c, 0, 68, 61
1, 304189, Note_on_c, 0, 66, 37
1, 304191, Note_on_c, 0, 65, 49
1, 304201, Note_off_c, 0, 82, 58
1, 304213, Note_off_c, 0, 70, 51
1, 304219, Note_off_c, 0, 66, 53
1, 304224, Note_off_c, 0, 65, 66
1, 304228, Note_on_c, 0, 77, 53
1, 304316, Note_off_c, 0, 78, 29
1, 304325, Control_c, 0, 64, 92
1, 304340, Control_c, 0, 64, 72
1, 304355, Control_c, 0, 64, 58
1, 304364, Note_off_c, 0, 77, 58
1, 304365, Note_on_c, 0, 50, 34
1, 304370, Control_c, 0, 64, 36
1, 304382, Note_on_c, 0, 82, 52
1, 304384, Control_c, 0, 64, 39
1, 304399, Control_c, 0, 64, 48
1, 304411, Note_on_c, 0, 70, 32
1, 304414, Control_c, 0, 64, 54
1, 304429, Control_c, 0, 64, 61
1, 304444, Control_c, 0, 64, 67
1, 304458, Control_c, 0, 64, 75
1, 304473, Control_c, 0, 64, 93
1, 304488, Control_c, 0, 64, 127
1, 304521, Note_on_c, 0, 78, 42
1, 304522, Note_off_c, 0, 50, 38
1, 304522, Note_on_c, 0, 58, 49
1, 304549, Note_off_c, 0, 82, 58
1, 304569, Note_off_c, 0, 58, 64
1, 304590, Note_off_c, 0, 70, 37
1, 304602, Note_on_c, 0, 65, 49
1, 304617, Note_off_c, 0, 78, 53
1, 304620, Note_on_c, 0, 77, 46
1, 304666, Note_off_c, 0, 65, 52
1, 304668, Note_off_c, 0, 77, 61
1, 304680, Note_on_c, 0, 83, 69
1, 304681, Note_on_c, 0, 59, 55
1, 304694, Note_on_c, 0, 71, 55
1, 304727, Note_off_c, 0, 59, 61
1, 304747, Note_off_c, 0, 71, 55
1, 304749, Note_on_c, 0, 65, 50
1, 304751, Note_on_c, 0, 80, 64
1, 304787, Note_off_c, 0, 83, 59
1, 304790, Note_off_c, 0, 65, 60
1, 304794, Note_on_c, 0, 66, 62
1, 304814, Note_on_c, 0, 78, 67
1, 304838, Note_off_c, 0, 66, 61
1, 304847, Note_off_c, 0, 80, 61
1, 304849, Note_off_c, 0, 78, 65
1, 304859, Note_on_c, 0, 68, 63
1, 304866, Note_on_c, 0, 77, 74
1, 304927, Note_on_c, 0, 66, 58
1, 304927, Note_off_c, 0, 68, 61
1, 304930, Note_on_c, 0, 78, 73
1, 304954, Note_on_c, 0, 65, 64
1, 304955, Note_off_c, 0, 77, 58
1, 304963, Note_on_c, 0, 80, 68
1, 304980, Note_off_c, 0, 66, 55
1, 304996, Note_off_c, 0, 65, 62
1, 305000, Note_off_c, 0, 78, 64
1, 305022, Note_on_c, 0, 83, 84
1, 305025, Note_off_c, 0, 80, 65
1, 305029, Note_on_c, 0, 64, 67
1, 305033, Note_on_c, 0, 71, 74
1, 305061, Note_off_c, 0, 64, 62
1, 305085, Note_on_c, 0, 78, 65
1, 305090, Note_on_c, 0, 63, 68
1, 305121, Note_off_c, 0, 83, 60
1, 305135, Note_off_c, 0, 63, 60
1, 305135, Note_off_c, 0, 71, 55
1, 305138, Note_on_c, 0, 77, 69
1, 305164, Note_on_c, 0, 62, 54
1, 305189, Note_off_c, 0, 62, 62
1, 305191, Note_off_c, 0, 78, 61
1, 305192, Control_c, 0, 64, 116
1, 305206, Control_c, 0, 64, 79
1, 305213, Note_on_c, 0, 51, 75
1, 305216, Note_off_c, 0, 77, 63
1, 305221, Control_c, 0, 64, 62
1, 305223, Note_on_c, 0, 83, 80
1, 305236, Control_c, 0, 64, 48
1, 305244, Note_on_c, 0, 71, 64
1, 305251, Control_c, 0, 64, 58
1, 305266, Control_c, 0, 64, 64
1, 305280, Control_c, 0, 64, 73
1, 305295, Control_c, 0, 64, 96
1, 305298, Note_on_c, 0, 80, 67
1, 305312, Note_on_c, 0, 59, 70
1, 305316, Note_off_c, 0, 51, 64
1, 305318, Control_c, 0, 64, 127
1, 305321, Note_off_c, 0, 71, 57
1, 305338, Note_off_c, 0, 83, 63
1, 305357, Note_on_c, 0, 78, 69
1, 305361, Note_off_c, 0, 59, 58
1, 305369, Note_on_c, 0, 66, 71
1, 305394, Note_off_c, 0, 80, 63
1, 305399, Note_off_c, 0, 66, 66
1, 305421, Note_on_c, 0, 84, 92
1, 305428, Note_on_c, 0, 72, 83
1, 305432, Note_off_c, 0, 78, 62
1, 305441, Note_on_c, 0, 60, 73
1, 305495, Note_on_c, 0, 81, 78
1, 305499, Note_on_c, 0, 66, 76
1, 305509, Note_off_c, 0, 72, 60
1, 305510, Note_off_c, 0, 60, 62
1, 305526, Note_off_c, 0, 84, 60
1, 305535, Note_on_c, 0, 80, 78
1, 305542, Note_on_c, 0, 68, 83
1, 305577, Note_off_c, 0, 81, 63
1, 305580, Note_off_c, 0, 66, 62
1, 305600, Note_on_c, 0, 78, 85
1, 305603, Note_off_c, 0, 68, 64
1, 305604, Note_on_c, 0, 69, 87
1, 305650, Note_on_c, 0, 81, 77
1, 305669, Note_on_c, 0, 68, 75
1, 305670, Note_off_c, 0, 78, 64
1, 305675, Note_off_c, 0, 80, 63
1, 305676, Note_off_c, 0, 69, 58
1, 305690, Note_off_c, 0, 81, 67
1, 305710, Note_on_c, 0, 66, 74
1, 305738, Note_off_c, 0, 68, 62
1, 305771, Note_off_c, 0, 66, 62
1, 305785, Note_on_c, 0, 90, 89
1, 305792, Note_on_c, 0, 65, 73
1, 305795, Note_on_c, 0, 78, 82
1, 305855, Note_on_c, 0, 64, 64
1, 305856, Note_on_c, 0, 85, 83
1, 305863, Note_off_c, 0, 65, 57
1, 305884, Note_on_c, 0, 63, 67
1, 305902, Note_off_c, 0, 64, 59
1, 305917, Note_off_c, 0, 63, 66
1, 305925, Note_off_c, 0, 78, 59
1, 305928, Note_on_c, 0, 84, 76
1, 305935, Note_off_c, 0, 90, 61
1, 305984, Note_off_c, 0, 85, 61
1, 306012, Note_on_c, 0, 53, 72
1, 306029, Control_c, 0, 64, 100
1, 306043, Note_on_c, 0, 90, 82
1, 306044, Control_c, 0, 64, 75
1, 306054, Note_on_c, 0, 78, 65
1, 306055, Note_off_c, 0, 84, 63
1, 306066, Control_c, 0, 64, 62
1, 306081, Control_c, 0, 64, 52
1, 306096, Control_c, 0, 64, 58
1, 306110, Control_c, 0, 64, 61
1, 306125, Control_c, 0, 64, 65
1, 306137, Note_off_c, 0, 53, 61
1, 306140, Control_c, 0, 64, 75
1, 306147, Note_on_c, 0, 63, 68
1, 306155, Control_c, 0, 64, 107
1, 306168, Note_on_c, 0, 82, 75
1, 306170, Control_c, 0, 64, 127
1, 306182, Note_off_c, 0, 63, 62
1, 306188, Note_off_c, 0, 90, 64
1, 306197, Note_off_c, 0, 78, 59
1, 306220, Note_on_c, 0, 69, 64
1, 306225, Note_on_c, 0, 81, 66
1, 306242, Note_off_c, 0, 82, 64
1, 306262, Note_off_c, 0, 69, 52
1, 306280, Note_on_c, 0, 89, 100
1, 306289, Note_on_c, 0, 71, 79
1, 306289, Note_on_c, 0, 77, 79
1, 306295, Note_off_c, 0, 81, 65
1, 306336, Note_on_c, 0, 79, 18
1, 306337, Note_off_c, 0, 79, 127
1, 306340, Note_on_c, 0, 73, 73
1, 306350, Note_on_c, 0, 82, 82
1, 306351, Note_off_c, 0, 71, 58
1, 306366, Note_off_c, 0, 89, 60
1, 306374, Note_off_c, 0, 73, 65
1, 306389, Note_on_c, 0, 72, 73
1, 306403, Note_off_c, 0, 77, 61
1, 306412, Note_on_c, 0, 81, 76
1, 306412, Note_off_c, 0, 72, 68
1, 306440, Note_off_c, 0, 82, 63
1, 306467, Control_c, 0, 64, 97
1, 306472, Note_on_c, 0, 56, 78
1, 306472, Note_on_c, 0, 88, 93
1, 306481, Note_off_c, 0, 81, 65
1, 306482, Note_on_c, 0, 76, 83
1, 306482, Control_c, 0, 64, 73
1, 306497, Control_c, 0, 64, 61
1, 306511, Control_c, 0, 64, 58
1, 306512, Note_on_c, 0, 63, 57
1, 306520, Note_on_c, 0, 55, 21
1, 306526, Control_c, 0, 64, 64
1, 306539, Note_on_c, 0, 64, 68
1, 306540, Note_on_c, 0, 82, 86
1, 306541, Control_c, 0, 64, 71
1, 306549, Note_off_c, 0, 56, 63
1, 306556, Control_c, 0, 64, 83
1, 306557, Note_off_c, 0, 63, 61
1, 306568, Note_off_c, 0, 64, 66
1, 306569, Note_off_c, 0, 55, 28
1, 306569, Note_off_c, 0, 76, 62
1, 306570, Control_c, 0, 64, 127
1, 306571, Note_off_c, 0, 88, 64
1, 306588, Note_on_c, 0, 68, 73
1, 306592, Note_on_c, 0, 81, 74
1, 306624, Note_off_c, 0, 82, 64
1, 306642, Note_off_c, 0, 68, 58
1, 306662, Note_on_c, 0, 87, 92
1, 306663, Note_off_c, 0, 81, 65
1, 306668, Note_on_c, 0, 75, 81
1, 306684, Note_on_c, 0, 70, 48
1, 306713, Note_on_c, 0, 71, 41
1, 306722, Note_on_c, 0, 73, 62
1, 306722, Note_on_c, 0, 82, 81
1, 306730, Note_off_c, 0, 70, 48
1, 306739, Note_off_c, 0, 71, 57
1, 306773, Note_off_c, 0, 75, 57
1, 306775, Note_off_c, 0, 87, 62
1, 306777, Note_off_c, 0, 73, 64
1, 306782, Note_on_c, 0, 81, 69
1, 306786, Note_on_c, 0, 71, 61
1, 306823, Note_off_c, 0, 71, 67
1, 306833, Note_off_c, 0, 82, 62
1, 306861, Control_c, 0, 64, 96
1, 306875, Note_off_c, 0, 81, 63
1, 306875, Control_c, 0, 64, 71
1, 306876, Note_on_c, 0, 58, 66
1, 306885, Note_on_c, 0, 87, 70
1, 306890, Control_c, 0, 64, 55
1, 306894, Note_on_c, 0, 75, 52
1, 306905, Control_c, 0, 64, 32
1, 306920, Control_c, 0, 64, 46
1, 306934, Control_c, 0, 64, 56
1, 306949, Control_c, 0, 64, 62
1, 306961, Note_on_c, 0, 65, 57
1, 306961, Note_off_c, 0, 58, 62
1, 306963, Note_on_c, 0, 82, 51
1, 306964, Control_c, 0, 64, 70
1, 306979, Control_c, 0, 64, 86
1, 306993, Control_c, 0, 64, 127
1, 306999, Note_off_c, 0, 75, 53
1, 306999, Note_off_c, 0, 87, 61
1, 307028, Note_on_c, 0, 68, 62
1, 307031, Note_on_c, 0, 81, 56
1, 307042, Note_off_c, 0, 65, 62
1, 307055, Note_off_c, 0, 82, 63
1, 307064, Note_off_c, 0, 68, 64
1, 307074, Note_off_c, 0, 81, 62
1, 307093, Note_on_c, 0, 70, 60
1, 307095, Note_on_c, 0, 86, 76
1, 307107, Note_on_c, 0, 74, 65
1, 307131, Note_off_c, 0, 74, 52
1, 307139, Note_off_c, 0, 70, 60
1, 307150, Note_on_c, 0, 71, 75
1, 307166, Note_on_c, 0, 80, 72
1, 307178, Note_off_c, 0, 86, 53
1, 307184, Note_off_c, 0, 71, 59
1, 307213, Note_on_c, 0, 78, 67
1, 307222, Note_on_c, 0, 70, 69
1, 307254, Note_off_c, 0, 70, 56
1, 307255, Note_off_c, 0, 80, 62
1, 307260, Note_off_c, 0, 78, 62
1, 307267, Note_on_c, 0, 77, 76
1, 307273, Note_on_c, 0, 68, 76
1, 307318, Note_on_c, 0, 78, 70
1, 307319, Note_on_c, 0, 66, 65
1, 307323, Note_off_c, 0, 77, 63
1, 307332, Note_off_c, 0, 68, 61
1, 307371, Note_off_c, 0, 66, 58
1, 307374, Note_on_c, 0, 80, 71
1, 307381, Note_off_c, 0, 78, 63
1, 307393, Note_on_c, 0, 65, 70
1, 307428, Note_off_c, 0, 80, 64
1, 307451, Note_on_c, 0, 82, 84
1, 307455, Note_off_c, 0, 65, 59
1, 307458, Note_on_c, 0, 70, 77
1, 307465, Note_on_c, 0, 64, 59
1, 307503, Note_on_c, 0, 63, 64
1, 307512, Note_off_c, 0, 64, 56
1, 307527, Note_on_c, 0, 78, 68
1, 307542, Note_off_c, 0, 63, 59
1, 307576, Note_off_c, 0, 70, 63
1, 307579, Note_off_c, 0, 82, 63
1, 307585, Note_on_c, 0, 77, 56
1, 307599, Note_off_c, 0, 78, 62
1, 307607, Note_on_c, 0, 62, 45
1, 307618, Note_off_c, 0, 77, 65
1, 307686, Note_off_c, 0, 62, 55
1, 307708, Note_on_c, 0, 55, 58
1, 307713, Control_c, 0, 64, 95
1, 307728, Control_c, 0, 64, 71
1, 307741, Note_on_c, 0, 87, 67
1, 307743, Control_c, 0, 64, 56
1, 307751, Note_on_c, 0, 75, 54
1, 307757, Control_c, 0, 64, 42
1, 307772, Control_c, 0, 64, 51
1, 307787, Control_c, 0, 64, 57
1, 307802, Control_c, 0, 64, 63
1, 307816, Control_c, 0, 64, 70
1, 307824, Note_off_c, 0, 55, 60
1, 307831, Control_c, 0, 64, 86
1, 307843, Note_on_c, 0, 63, 52
1, 307846, Control_c, 0, 64, 127
1, 307863, Note_on_c, 0, 83, 49
1, 307896, Note_off_c, 0, 63, 55
1, 307896, Note_off_c, 0, 87, 61
1, 307898, Note_off_c, 0, 75, 60
1, 307914, Note_on_c, 0, 70, 66
1, 307918, Note_on_c, 0, 82, 63
1, 307938, Note_off_c, 0, 83, 59
1, 307945, Note_off_c, 0, 70, 67
1, 307985, Note_off_c, 0, 82, 63
1, 307990, Note_on_c, 0, 88, 70
1, 307997, Note_on_c, 0, 76, 72
1, 308002, Note_on_c, 0, 64, 65
1, 308018, Note_on_c, 0, 86, 49
1, 308042, Note_off_c, 0, 86, 56
1, 308056, Note_on_c, 0, 70, 73
1, 308062, Note_off_c, 0, 64, 64
1, 308063, Note_off_c, 0, 76, 58
1, 308066, Note_on_c, 0, 85, 75
1, 308091, Note_off_c, 0, 88, 57
1, 308110, Note_on_c, 0, 71, 74
1, 308123, Note_on_c, 0, 83, 69
1, 308136, Note_off_c, 0, 70, 61
1, 308158, Note_off_c, 0, 85, 63
1, 308161, Note_off_c, 0, 83, 59
1, 308168, Note_on_c, 0, 82, 83
1, 308169, Note_on_c, 0, 73, 81
1, 308169, Note_off_c, 0, 71, 64
1, 308225, Note_on_c, 0, 83, 64
1, 308241, Note_on_c, 0, 71, 65
1, 308248, Note_off_c, 0, 73, 63
1, 308263, Note_on_c, 0, 85, 78
1, 308266, Note_on_c, 0, 70, 71
1, 308275, Note_off_c, 0, 82, 49
1, 308297, Note_off_c, 0, 83, 65
1, 308308, Note_off_c, 0, 71, 64
1, 308332, Note_off_c, 0, 70, 63
1, 308336, Note_off_c, 0, 85, 64
1, 308340, Note_on_c, 0, 88, 92
1, 308342, Note_on_c, 0, 76, 89
1, 308346, Note_on_c, 0, 69, 82
1, 308395, Note_off_c, 0, 69, 63
1, 308406, Note_on_c, 0, 68, 74
1, 308414, Note_on_c, 0, 83, 79
1, 308448, Note_off_c, 0, 88, 62
1, 308460, Note_off_c, 0, 68, 61
1, 308461, Note_off_c, 0, 76, 59
1, 308471, Note_on_c, 0, 82, 77
1, 308476, Note_on_c, 0, 67, 68
1, 308504, Note_off_c, 0, 67, 67
1, 308509, Note_off_c, 0, 83, 61
1, 308521, Control_c, 0, 64, 104
1, 308536, Control_c, 0, 64, 72
1, 308541, Note_on_c, 0, 56, 77
1, 308551, Control_c, 0, 64, 53
1, 308555, Note_on_c, 0, 88, 87
1, 308561, Note_off_c, 0, 82, 63
1, 308561, Note_on_c, 0, 76, 87
1, 308565, Control_c, 0, 64, 41
1, 308580, Control_c, 0, 64, 56
1, 308595, Control_c, 0, 64, 65
1, 308610, Control_c, 0, 64, 77
1, 308625, Control_c, 0, 64, 127
1, 308627, Note_on_c, 0, 64, 70
1, 308629, Note_off_c, 0, 56, 65
1, 308636, Note_on_c, 0, 85, 79
1, 308654, Note_off_c, 0, 76, 62
1, 308668, Note_off_c, 0, 88, 63
1, 308674, Note_off_c, 0, 64, 59
1, 308684, Note_on_c, 0, 71, 68
1, 308698, Note_on_c, 0, 83, 74
1, 308713, Note_off_c, 0, 71, 63
1, 308714, Note_off_c, 0, 85, 65
1, 308746, Note_on_c, 0, 89, 93
1, 308755, Note_on_c, 0, 77, 91
1, 308755, Note_on_c, 0, 65, 73
1, 308761, Note_off_c, 0, 83, 64
1, 308811, Note_on_c, 0, 71, 79
1, 308816, Note_on_c, 0, 86, 82
1, 308826, Note_off_c, 0, 65, 62
1, 308856, Note_on_c, 0, 85, 81
1, 308857, Note_off_c, 0, 77, 62
1, 308864, Note_off_c, 0, 89, 61
1, 308866, Note_on_c, 0, 73, 83
1, 308887, Note_off_c, 0, 71, 59
1, 308909, Note_off_c, 0, 86, 63
1, 308923, Note_on_c, 0, 83, 85
1, 308924, Note_off_c, 0, 85, 65
1, 308928, Note_off_c, 0, 73, 66
1, 308934, Note_on_c, 0, 74, 81
1, 308957, Note_on_c, 0, 85, 64
1, 308990, Note_on_c, 0, 73, 70
1, 308991, Note_off_c, 0, 83, 64
1, 309007, Note_off_c, 0, 74, 59
1, 309018, Note_off_c, 0, 85, 66
1, 309020, Note_on_c, 0, 86, 52
1, 309027, Note_on_c, 0, 71, 73
1, 309039, Note_off_c, 0, 86, 61
1, 309080, Note_off_c, 0, 73, 63
1, 309109, Note_on_c, 0, 70, 68
1, 309112, Note_on_c, 0, 95, 96
1, 309121, Note_on_c, 0, 83, 80
1, 309139, Note_off_c, 0, 71, 63
1, 309166, Note_off_c, 0, 70, 63
1, 309182, Note_on_c, 0, 90, 76
1, 309200, Note_on_c, 0, 69, 68
1, 309249, Note_off_c, 0, 95, 63
1, 309251, Note_off_c, 0, 69, 60
1, 309256, Note_on_c, 0, 89, 74
1, 309259, Note_off_c, 0, 83, 60
1, 309266, Note_on_c, 0, 68, 58
1, 309307, Note_off_c, 0, 90, 58
1, 309351, Note_on_c, 0, 58, 68
1, 309352, Note_off_c, 0, 68, 52
1, 309358, Control_c, 0, 64, 82
1, 309363, Note_off_c, 0, 89, 64
1, 309373, Control_c, 0, 64, 65
1, 309380, Note_on_c, 0, 95, 78
1, 309387, Control_c, 0, 64, 50
1, 309388, Note_on_c, 0, 83, 66
1, 309402, Control_c, 0, 64, 52
1, 309417, Control_c, 0, 64, 57
1, 309432, Control_c, 0, 64, 60
1, 309447, Control_c, 0, 64, 66
1, 309456, Note_off_c, 0, 58, 64
1, 309461, Control_c, 0, 64, 76
1, 309473, Note_on_c, 0, 68, 58
1, 309476, Control_c, 0, 64, 115
1, 309488, Note_off_c, 0, 95, 60
1, 309491, Note_on_c, 0, 87, 68
1, 309491, Control_c, 0, 64, 127
1, 309507, Note_off_c, 0, 68, 64
1, 309522, Note_off_c, 0, 83, 62
1, 309532, Note_on_c, 0, 74, 65
1, 309549, Note_on_c, 0, 86, 68
1, 309581, Note_off_c, 0, 87, 63
1, 309612, Note_off_c, 0, 74, 60
1, 309615, Note_on_c, 0, 76, 72
1, 309617, Note_on_c, 0, 94, 92
1, 309617, Note_off_c, 0, 86, 64
1, 309620, Note_on_c, 0, 82, 86
1, 309676, Note_on_c, 0, 78, 77
1, 309676, Note_off_c, 0, 76, 64
1, 309684, Note_on_c, 0, 87, 80
1, 309702, Note_off_c, 0, 94, 64
1, 309715, Note_off_c, 0, 82, 63
1, 309728, Note_on_c, 0, 77, 79
1, 309728, Note_on_c, 0, 86, 80
1, 309728, Note_off_c, 0, 78, 62
1, 309762, Note_off_c, 0, 87, 64
1, 309789, Note_off_c, 0, 77, 62
1, 309795, Note_on_c, 0, 80, 76
1, 309795, Note_on_c, 0, 93, 92
1, 309796, Note_on_c, 0, 81, 88
1, 309815, Note_off_c, 0, 86, 62
1, 309840, Note_on_c, 0, 91, 39
1, 309841, Note_off_c, 0, 91, 127
1, 309854, Note_on_c, 0, 78, 52
1, 309855, Note_off_c, 0, 80, 57
1, 309868, Note_on_c, 0, 87, 88
1, 309878, Note_off_c, 0, 78, 58
1, 309890, Note_on_c, 0, 77, 80
1, 309898, Note_off_c, 0, 81, 63
1, 309899, Note_off_c, 0, 93, 66
1, 309924, Note_on_c, 0, 86, 81
1, 309935, Note_off_c, 0, 77, 56
1, 309946, Note_on_c, 0, 78, 81
1, 309955, Note_off_c, 0, 87, 63
1, 309989, Note_on_c, 0, 92, 95
1, 309994, Note_on_c, 0, 80, 85
1, 309997, Note_off_c, 0, 86, 65
1, 309999, Note_off_c, 0, 78, 60
1, 310018, Note_on_c, 0, 77, 73
1, 310049, Note_off_c, 0, 77, 66
1, 310052, Note_on_c, 0, 87, 86
1, 310090, Note_off_c, 0, 80, 62
1, 310098, Note_off_c, 0, 92, 65
1, 310102, Note_on_c, 0, 86, 75
1, 310138, Control_c, 0, 64, 125
1, 310139, Note_off_c, 0, 87, 62
1, 310152, Control_c, 0, 64, 79
1, 310167, Control_c, 0, 64, 62
1, 310175, Note_on_c, 0, 59, 71
1, 310179, Note_off_c, 0, 86, 63
1, 310182, Control_c, 0, 64, 40
1, 310185, Note_on_c, 0, 92, 87
1, 310190, Note_on_c, 0, 80, 74
1, 310197, Control_c, 0, 64, 52
1, 310211, Control_c, 0, 64, 60
1, 310226, Control_c, 0, 64, 67
1, 310239, Note_off_c, 0, 59, 62
1, 310241, Control_c, 0, 64, 81
1, 310245, Note_off_c, 0, 92, 63
1, 310252, Note_on_c, 0, 66, 74
1, 310256, Control_c, 0, 64, 127
1, 310263, Note_off_c, 0, 80, 59
1, 310265, Note_on_c, 0, 85, 73
1, 310310, Note_off_c, 0, 66, 62
1, 310311, Note_on_c, 0, 68, 64
1, 310330, Note_on_c, 0, 83, 69
1, 310342, Note_off_c, 0, 68, 65
1, 310346, Note_off_c, 0, 85, 64
1, 310355, Note_on_c, 0, 70, 68
1, 310374, Note_on_c, 0, 90, 90
1, 310382, Note_on_c, 0, 78, 83
1, 310382, Note_off_c, 0, 83, 65
1, 310392, Note_off_c, 0, 70, 59
1, 310422, Note_on_c, 0, 71, 75
1, 310445, Note_on_c, 0, 87, 80
1, 310473, Note_off_c, 0, 78, 60
1, 310483, Note_on_c, 0, 73, 73
1, 310493, Note_on_c, 0, 85, 74
1, 310501, Note_off_c, 0, 90, 63
1, 310506, Note_off_c, 0, 71, 60
1, 310539, Note_on_c, 0, 75, 85
1, 310543, Note_off_c, 0, 87, 64
1, 310546, Note_off_c, 0, 73, 64
1, 310561, Note_on_c, 0, 83, 87
1, 310566, Note_off_c, 0, 85, 64
1, 310593, Note_on_c, 0, 73, 65
1, 310606, Note_on_c, 0, 85, 60
1, 310624, Note_off_c, 0, 75, 60
1, 310633, Note_on_c, 0, 87, 85
1, 310641, Note_off_c, 0, 83, 62
1, 310665, Note_on_c, 0, 71, 78
1, 310671, Note_off_c, 0, 73, 51
1, 310671, Note_off_c, 0, 85, 65
1, 310683, Note_off_c, 0, 87, 65
1, 310715, Note_off_c, 0, 71, 58
1, 310733, Note_on_c, 0, 64, 81
1, 310737, Note_on_c, 0, 80, 95
1, 310738, Note_on_c, 0, 92, 99
1, 310801, Note_on_c, 0, 73, 86
1, 310805, Note_on_c, 0, 88, 78
1, 310847, Note_on_c, 0, 71, 72
1, 310847, Note_off_c, 0, 64, 50
1, 310854, Note_off_c, 0, 73, 66
1, 310865, Note_off_c, 0, 80, 62
1, 310868, Note_off_c, 0, 71, 71
1, 310870, Note_on_c, 0, 86, 84
1, 310877, Note_off_c, 0, 92, 64
1, 310897, Note_off_c, 0, 88, 64
1, 310974, Note_on_c, 0, 57, 83
1, 311005, Control_c, 0, 64, 87
1, 311005, Note_on_c, 0, 93, 97
1, 311009, Note_on_c, 0, 81, 87
1, 311017, Note_off_c, 0, 86, 62
1, 311020, Control_c, 0, 64, 62
1, 311034, Control_c, 0, 64, 40
1, 311049, Control_c, 0, 64, 48
1, 311064, Control_c, 0, 64, 57
1, 311079, Control_c, 0, 64, 63
1, 311094, Control_c, 0, 64, 70
1, 311103, Note_on_c, 0, 64, 69
1, 311107, Note_off_c, 0, 57, 62
1, 311108, Control_c, 0, 64, 98
1, 311109, Note_on_c, 0, 86, 77
1, 311123, Control_c, 0, 64, 127
1, 311133, Note_off_c, 0, 64, 65
1, 311139, Note_off_c, 0, 93, 65
1, 311154, Note_off_c, 0, 81, 65
1, 311154, Note_on_c, 0, 69, 75
1, 311163, Note_on_c, 0, 85, 81
1, 311212, Note_off_c, 0, 86, 62
1, 311220, Note_off_c, 0, 69, 48
1, 311239, Note_on_c, 0, 73, 78
1, 311246, Note_on_c, 0, 92, 100
1, 311247, Note_on_c, 0, 80, 97
1, 311258, Note_off_c, 0, 85, 64
1, 311310, Note_off_c, 0, 73, 64
1, 311323, Note_on_c, 0, 74, 77
1, 311327, Note_on_c, 0, 86, 77
1, 311357, Note_off_c, 0, 92, 66
1, 311362, Note_off_c, 0, 80, 65
1, 311366, Note_on_c, 0, 85, 82
1, 311372, Note_off_c, 0, 74, 64
1, 311383, Note_on_c, 0, 75, 75
1, 311399, Note_off_c, 0, 86, 63
1, 311429, Note_on_c, 0, 76, 45
1, 311434, Note_on_c, 0, 91, 99
1, 311434, Note_off_c, 0, 75, 62
1, 311436, Note_on_c, 0, 79, 96
1, 311449, Note_off_c, 0, 85, 64
1, 311463, Note_on_c, 0, 89, 54
1, 311464, Note_off_c, 0, 89, 127
1, 311500, Note_on_c, 0, 74, 78
1, 311503, Note_on_c, 0, 86, 80
1, 311504, Note_off_c, 0, 76, 64
1, 311529, Note_off_c, 0, 79, 62
1, 311530, Note_off_c, 0, 91, 63
1, 311539, Note_on_c, 0, 73, 77
1, 311551, Note_on_c, 0, 85, 82
1, 311560, Note_off_c, 0, 74, 62
1, 311580, Note_off_c, 0, 86, 61
1, 311589, Note_off_c, 0, 73, 65
1, 311616, Note_on_c, 0, 71, 77
1, 311619, Note_on_c, 0, 90, 100
1, 311622, Note_on_c, 0, 78, 94
1, 311627, Note_off_c, 0, 85, 64
1, 311658, Note_off_c, 0, 71, 60
1, 311672, Note_on_c, 0, 70, 70
1, 311682, Note_on_c, 0, 86, 79
1, 311715, Note_off_c, 0, 70, 60
1, 311723, Note_off_c, 0, 90, 61
1, 311724, Note_on_c, 0, 85, 81
1, 311724, Note_off_c, 0, 78, 61
1, 311735, Note_on_c, 0, 69, 69
1, 311758, Note_off_c, 0, 86, 62
1, 311759, Note_off_c, 0, 69, 70
1, 311783, Note_off_c, 0, 85, 63
1, 311797, Control_c, 0, 64, 81
1, 311804, Note_on_c, 0, 78, 80
1, 311806, Note_on_c, 0, 90, 86
1, 311807, Note_on_c, 0, 53, 77
1, 311812, Control_c, 0, 64, 59
1, 311827, Control_c, 0, 64, 0
1, 311842, Control_c, 0, 64, 39
1, 311856, Control_c, 0, 64, 59
1, 311865, Note_off_c, 0, 53, 59
1, 311871, Control_c, 0, 64, 69
1, 311881, Note_on_c, 0, 63, 72
1, 311886, Note_on_c, 0, 82, 71
1, 311886, Control_c, 0, 64, 88
1, 311893, Note_off_c, 0, 78, 60
1, 311901, Control_c, 0, 64, 127
1, 311914, Note_off_c, 0, 63, 60
1, 311929, Note_off_c, 0, 90, 62
1, 311929, Note_on_c, 0, 81, 70
1, 311941, Note_on_c, 0, 67, 65
1, 311959, Note_off_c, 0, 82, 56
1, 311974, Note_off_c, 0, 81, 60
1, 311976, Note_off_c, 0, 67, 61
1, 312004, Note_on_c, 0, 77, 83
1, 312005, Note_on_c, 0, 89, 89
1, 312009, Note_on_c, 0, 68, 76
1, 312051, Note_on_c, 0, 79, 38
1, 312052, Note_off_c, 0, 79, 127
1, 312072, Note_on_c, 0, 84, 71
1, 312072, Note_off_c, 0, 68, 61
1, 312075, Note_off_c, 0, 77, 56
1, 312083, Note_on_c, 0, 69, 72
1, 312122, Note_off_c, 0, 89, 59
1, 312124, Note_on_c, 0, 82, 70
1, 312130, Note_off_c, 0, 69, 51
1, 312137, Note_on_c, 0, 70, 78
1, 312155, Note_off_c, 0, 84, 62
1, 312178, Note_off_c, 0, 82, 64
1, 312189, Note_on_c, 0, 81, 74
1, 312202, Note_off_c, 0, 70, 63
1, 312212, Note_on_c, 0, 72, 79
1, 312255, Note_on_c, 0, 82, 80
1, 312275, Note_on_c, 0, 70, 61
1, 312285, Note_off_c, 0, 81, 61
1, 312288, Note_off_c, 0, 72, 62
1, 312297, Note_on_c, 0, 69, 76
1, 312311, Note_on_c, 0, 84, 82
1, 312324, Note_off_c, 0, 70, 63
1, 312329, Note_off_c, 0, 82, 64
1, 312367, Note_off_c, 0, 69, 61
1, 312376, Note_off_c, 0, 84, 57
1, 312381, Note_on_c, 0, 72, 76
1, 312392, Note_on_c, 0, 91, 91
1, 312395, Note_on_c, 0, 79, 78
1, 312436, Note_on_c, 0, 89, 22
1, 312437, Note_off_c, 0, 89, 127
1, 312440, Note_on_c, 0, 70, 68
1, 312443, Note_on_c, 0, 82, 74
1, 312443, Note_off_c, 0, 72, 61
1, 312471, Note_on_c, 0, 69, 62
1, 312475, Note_off_c, 0, 70, 64
1, 312486, Note_on_c, 0, 84, 77
1, 312486, Note_off_c, 0, 69, 67
1, 312494, Note_off_c, 0, 79, 63
1, 312500, Note_off_c, 0, 91, 64
1, 312520, Note_off_c, 0, 82, 64
1, 312536, Note_off_c, 0, 84, 64
1, 312589, Note_on_c, 0, 56, 66
1, 312592, Control_c, 0, 64, 115
1, 312606, Control_c, 0, 64, 76
1, 312615, Note_on_c, 0, 92, 85
1, 312621, Control_c, 0, 64, 59
1, 312627, Note_on_c, 0, 80, 66
1, 312636, Control_c, 0, 64, 42
1, 312651, Control_c, 0, 64, 54
1, 312666, Note_on_c, 0, 63, 63
1, 312666, Control_c, 0, 64, 62
1, 312680, Control_c, 0, 64, 70
1, 312689, Note_on_c, 0, 85, 75
1, 312689, Note_off_c, 0, 56, 63
1, 312695, Control_c, 0, 64, 98
1, 312708, Note_off_c, 0, 63, 60
1, 312710, Control_c, 0, 64, 127
1, 312719, Note_on_c, 0, 68, 68
1, 312735, Note_off_c, 0, 92, 64
1, 312735, Note_off_c, 0, 80, 62
1, 312747, Note_off_c, 0, 68, 66
1, 312762, Note_on_c, 0, 84, 69
1, 312780, Note_off_c, 0, 85, 64
1, 312816, Note_on_c, 0, 72, 62
1, 312822, Note_on_c, 0, 91, 93
1, 312832, Note_on_c, 0, 79, 77
1, 312837, Note_off_c, 0, 84, 65
1, 312873, Note_on_c, 0, 73, 71
1, 312876, Note_off_c, 0, 72, 64
1, 312890, Note_on_c, 0, 85, 85
1, 312910, Note_off_c, 0, 73, 63
1, 312917, Note_off_c, 0, 79, 61
1, 312919, Note_off_c, 0, 91, 63
1, 312922, Note_on_c, 0, 74, 71
1, 312944, Note_on_c, 0, 84, 79
1, 312974, Note_off_c, 0, 85, 65
1, 312987, Note_off_c, 0, 74, 63
1, 312997, Note_on_c, 0, 75, 70
1, 313010, Note_on_c, 0, 90, 95
1, 313018, Note_off_c, 0, 84, 64
1, 313021, Note_on_c, 0, 78, 83
1, 313033, Note_on_c, 0, 73, 68
1, 313041, Note_off_c, 0, 75, 55
1, 313079, Note_off_c, 0, 78, 63
1, 313082, Note_on_c, 0, 85, 79
1, 313082, Note_off_c, 0, 73, 58
1, 313105, Note_on_c, 0, 72, 73
1, 313113, Note_off_c, 0, 90, 63
1, 313128, Note_on_c, 0, 84, 74
1, 313161, Note_off_c, 0, 85, 64
1, 313165, Note_off_c, 0, 72, 63
1, 313173, Note_on_c, 0, 70, 70
1, 313208, Note_on_c, 0, 89, 90
1, 313211, Note_off_c, 0, 84, 63
1, 313212, Note_on_c, 0, 77, 78
1, 313217, Note_on_c, 0, 69, 63
1, 313236, Note_off_c, 0, 70, 62
1, 313248, Note_off_c, 0, 69, 66
1, 313253, Note_on_c, 0, 79, 29
1, 313260, Note_off_c, 0, 79, 49
1, 313276, Note_on_c, 0, 85, 74
1, 313286, Note_off_c, 0, 77, 57
1, 313290, Note_on_c, 0, 68, 64
1, 313301, Note_off_c, 0, 89, 61
1, 313322, Note_off_c, 0, 68, 65
1, 313329, Note_on_c, 0, 84, 65
1, 313347, Note_off_c, 0, 85, 59
1, 313385, Control_c, 0, 64, 99
1, 313391, Note_off_c, 0, 84, 65
1, 313400, Control_c, 0, 64, 73
1, 313400, Note_on_c, 0, 52, 68
1, 313414, Note_on_c, 0, 89, 73
1, 313415, Control_c, 0, 64, 60
1, 313420, Note_on_c, 0, 77, 60
1, 313429, Control_c, 0, 64, 61
1, 313442, Note_off_c, 0, 52, 64
1, 313444, Control_c, 0, 64, 65
1, 313444, Note_off_c, 0, 89, 64
1, 313459, Control_c, 0, 64, 71
1, 313474, Control_c, 0, 64, 82
1, 313486, Note_on_c, 0, 62, 48
1, 313489, Control_c, 0, 64, 127
1, 313510, Note_off_c, 0, 62, 59
1, 313522, Note_off_c, 0, 77, 60
1, 313525, Note_on_c, 0, 81, 60
1, 313569, Note_on_c, 0, 68, 56
1, 313584, Note_on_c, 0, 80, 62
1, 313584, Note_off_c, 0, 81, 60
1, 313614, Note_off_c, 0, 68, 56
1, 313617, Note_off_c, 0, 80, 66
1, 313634, Note_on_c, 0, 88, 72
1, 313644, Note_on_c, 0, 76, 64
1, 313646, Note_on_c, 0, 67, 57
1, 313686, Note_off_c, 0, 67, 60
1, 313703, Note_off_c, 0, 76, 58
1, 313704, Note_on_c, 0, 68, 54
1, 313704, Note_on_c, 0, 83, 69
1, 313719, Note_off_c, 0, 88, 57
1, 313745, Note_on_c, 0, 69, 69
1, 313746, Note_off_c, 0, 68, 58
1, 313784, Note_on_c, 0, 81, 54
1, 313808, Note_off_c, 0, 69, 62
1, 313820, Note_on_c, 0, 71, 54
1, 313822, Note_off_c, 0, 83, 61
1, 313825, Note_off_c, 0, 81, 62
1, 313841, Note_on_c, 0, 80, 72
1, 313890, Note_off_c, 0, 71, 61
1, 313907, Note_on_c, 0, 69, 46
1, 313910, Note_on_c, 0, 81, 48
1, 313915, Note_off_c, 0, 80, 61
1, 313932, Note_off_c, 0, 81, 64
1, 313936, Note_on_c, 0, 83, 60
1, 313946, Note_on_c, 0, 68, 55
1, 313954, Note_off_c, 0, 83, 67
1, 313966, Note_off_c, 0, 69, 43
1, 314009, Note_off_c, 0, 68, 55
1, 314033, Note_on_c, 0, 71, 54
1, 314042, Note_on_c, 0, 90, 75
1, 314059, Note_on_c, 0, 78, 60
1, 314111, Note_on_c, 0, 69, 49
1, 314116, Note_on_c, 0, 81, 60
1, 314130, Note_off_c, 0, 71, 49
1, 314155, Note_off_c, 0, 69, 63
1, 314160, Note_on_c, 0, 68, 39
1, 314179, Note_on_c, 0, 83, 59
1, 314187, Note_off_c, 0, 81, 62
1, 314193, Note_off_c, 0, 68, 50
1, 314202, Note_off_c, 0, 78, 34
1, 314209, Note_off_c, 0, 90, 60
1, 314221, Note_off_c, 0, 83, 58
1, 314303, Note_on_c, 0, 55, 49
1, 314349, Control_c, 0, 64, 84
1, 314352, Note_on_c, 0, 91, 71
1, 314364, Control_c, 0, 64, 64
1, 314373, Note_on_c, 0, 79, 47
1, 314379, Control_c, 0, 64, 50
1, 314394, Control_c, 0, 64, 52
1, 314408, Control_c, 0, 64, 57
1, 314423, Control_c, 0, 64, 60
1, 314438, Control_c, 0, 64, 64
1, 314452, Control_c, 0, 64, 71
1, 314464, Note_on_c, 0, 62, 43
1, 314467, Control_c, 0, 64, 98
1, 314473, Note_off_c, 0, 55, 55
1, 314482, Control_c, 0, 64, 127
1, 314490, Note_on_c, 0, 84, 44
1, 314497, Note_off_c, 0, 91, 59
1, 314510, Note_off_c, 0, 62, 62
1, 314517, Note_off_c, 0, 79, 63
1, 314552, Note_on_c, 0, 67, 57
1, 314566, Note_on_c, 0, 83, 50
1, 314587, Note_off_c, 0, 67, 62
1, 314613, Note_off_c, 0, 84, 36
1, 314631, Note_on_c, 0, 90, 85
1, 314632, Note_off_c, 0, 83, 64
1, 314637, Note_on_c, 0, 71, 60
1, 314649, Note_on_c, 0, 78, 67
1, 314700, Note_off_c, 0, 71, 58
1, 314708, Note_on_c, 0, 84, 68
1, 314714, Note_on_c, 0, 72, 68
1, 314739, Note_off_c, 0, 90, 63
1, 314741, Note_off_c, 0, 84, 62
1, 314747, Note_on_c, 0, 83, 64
1, 314747, Note_off_c, 0, 72, 64
1, 314756, Note_on_c, 0, 73, 66
1, 314761, Note_off_c, 0, 78, 51
1, 314776, Note_off_c, 0, 83, 67
1, 314796, Note_off_c, 0, 73, 57
1, 314823, Note_on_c, 0, 86, 82
1, 314824, Note_on_c, 0, 74, 71
1, 314883, Note_off_c, 0, 74, 60
1, 314887, Note_on_c, 0, 81, 73
1, 314892, Note_on_c, 0, 72, 64
1, 314926, Note_off_c, 0, 86, 61
1, 314928, Note_on_c, 0, 71, 67
1, 314942, Note_on_c, 0, 79, 65
1, 314947, Note_off_c, 0, 72, 58
1, 314950, Note_off_c, 0, 81, 63
1, 314963, Note_off_c, 0, 71, 63
1, 314983, Note_off_c, 0, 79, 64
1, 314996, Note_on_c, 0, 78, 77
1, 315002, Note_on_c, 0, 69, 73
1, 315049, Note_on_c, 0, 79, 70
1, 315060, Note_off_c, 0, 69, 58
1, 315067, Note_on_c, 0, 67, 73
1, 315084, Note_off_c, 0, 78, 63
1, 315105, Note_on_c, 0, 81, 71
1, 315113, Note_off_c, 0, 79, 65
1, 315119, Note_on_c, 0, 66, 51
1, 315120, Note_off_c, 0, 67, 62
1, 315130, Note_off_c, 0, 81, 70
1, 315144, Note_off_c, 0, 66, 59
1, 315187, Control_c, 0, 64, 117
1, 315201, Control_c, 0, 64, 76
1, 315206, Note_on_c, 0, 54, 66
1, 315216, Control_c, 0, 64, 51
1, 315222, Note_on_c, 0, 90, 82
1, 315230, Control_c, 0, 64, 30
1, 315239, Note_on_c, 0, 78, 66
1, 315245, Control_c, 0, 64, 49
1, 315260, Control_c, 0, 64, 59
1, 315275, Control_c, 0, 64, 67
1, 315284, Note_on_c, 0, 61, 63
1, 315290, Control_c, 0, 64, 82
1, 315303, Note_off_c, 0, 54, 63
1, 315305, Control_c, 0, 64, 127
1, 315323, Note_on_c, 0, 83, 61
1, 315323, Note_off_c, 0, 78, 62
1, 315331, Note_off_c, 0, 61, 60
1, 315332, Note_off_c, 0, 90, 64
1, 315340, Note_on_c, 0, 66, 61
1, 315372, Note_off_c, 0, 66, 65
1, 315380, Note_off_c, 0, 83, 63
1, 315389, Note_on_c, 0, 81, 55
1, 315420, Note_on_c, 0, 89, 96
1, 315428, Note_on_c, 0, 69, 63
1, 315430, Note_off_c, 0, 81, 65
1, 315436, Note_on_c, 0, 77, 71
1, 315478, Note_on_c, 0, 71, 70
1, 315486, Note_off_c, 0, 69, 63
1, 315492, Note_on_c, 0, 83, 72
1, 315504, Note_off_c, 0, 89, 61
1, 315511, Note_off_c, 0, 71, 65
1, 315536, Note_on_c, 0, 72, 65
1, 315543, Note_off_c, 0, 83, 64
1, 315546, Note_on_c, 0, 81, 69
1, 315584, Note_off_c, 0, 81, 60
1, 315599, Note_off_c, 0, 72, 64
1, 315603, Note_on_c, 0, 73, 75
1, 315612, Note_on_c, 0, 85, 81
1, 315646, Note_on_c, 0, 86, 50
1, 315661, Note_on_c, 0, 71, 51
1, 315671, Note_off_c, 0, 73, 62
1, 315675, Note_off_c, 0, 86, 51
1, 315681, Note_on_c, 0, 80, 72
1, 315682, Note_off_c, 0, 77, 56
1, 315691, Note_off_c, 0, 71, 66
1, 315728, Note_on_c, 0, 69, 71
1, 315740, Note_off_c, 0, 85, 54
1, 315740, Note_on_c, 0, 78, 66
1, 315759, Note_off_c, 0, 69, 55
1, 315762, Note_off_c, 0, 80, 60
1, 315781, Note_off_c, 0, 78, 60
1, 315803, Note_on_c, 0, 68, 72
1, 315803, Note_on_c, 0, 77, 64
1, 315849, Note_on_c, 0, 66, 49
1, 315852, Note_off_c, 0, 68, 58
1, 315858, Note_on_c, 0, 78, 48
1, 315873, Note_off_c, 0, 66, 59
1, 315881, Note_on_c, 0, 80, 69
1, 315882, Note_off_c, 0, 77, 62
1, 315890, Note_off_c, 0, 78, 63
1, 315908, Note_off_c, 0, 80, 69
1, 315912, Note_on_c, 0, 65, 54
1, 315950, Control_c, 0, 64, 90
1, 315965, Control_c, 0, 64, 66
1, 315973, Note_off_c, 0, 65, 55
1, 315975, Note_on_c, 0, 53, 60
1, 315979, Control_c, 0, 64, 37
1, 315981, Note_on_c, 0, 89, 81
1, 315994, Control_c, 0, 64, 16
1, 315998, Note_on_c, 0, 77, 62
1, 316009, Control_c, 0, 64, 43
1, 316023, Control_c, 0, 64, 56
1, 316038, Control_c, 0, 64, 66
1, 316052, Note_off_c, 0, 53, 62
1, 316053, Control_c, 0, 64, 78
1, 316059, Note_off_c, 0, 89, 61
1, 316065, Note_on_c, 0, 60, 42
1, 316068, Control_c, 0, 64, 113
1, 316071, Note_on_c, 0, 82, 65
1, 316083, Control_c, 0, 64, 127
1, 316093, Note_off_c, 0, 77, 58
1, 316094, Note_off_c, 0, 60, 53
1, 316102, Note_on_c, 0, 65, 60
1, 316130, Note_on_c, 0, 81, 61
1, 316142, Note_off_c, 0, 82, 63
1, 316145, Note_off_c, 0, 65, 56
1, 316167, Note_off_c, 0, 81, 64
1, 316180, Note_on_c, 0, 88, 83
1, 316189, Note_on_c, 0, 69, 58
1, 316196, Note_on_c, 0, 76, 70
1, 316221, Note_off_c, 0, 69, 63
1, 316245, Note_on_c, 0, 70, 57
1, 316262, Note_on_c, 0, 82, 61
1, 316263, Note_off_c, 0, 88, 60
1, 316274, Note_off_c, 0, 70, 65
1, 316294, Note_on_c, 0, 71, 67
1, 316294, Note_on_c, 0, 81, 61
1, 316295, Note_off_c, 0, 82, 64
1, 316327, Note_off_c, 0, 81, 65
1, 316340, Note_off_c, 0, 71, 59
1, 316359, Note_on_c, 0, 72, 60
1, 316378, Note_on_c, 0, 84, 75
1, 316400, Note_off_c, 0, 72, 62
1, 316400, Note_off_c, 0, 76, 56
1, 316406, Note_on_c, 0, 70, 55
1, 316441, Note_off_c, 0, 70, 65
1, 316450, Note_on_c, 0, 79, 60
1, 316475, Note_on_c, 0, 69, 57
1, 316503, Note_on_c, 0, 77, 57
1, 316506, Note_off_c, 0, 79, 53
1, 316533, Note_off_c, 0, 69, 53
1, 316552, Note_off_c, 0, 77, 59
1, 316567, Note_on_c, 0, 67, 56
1, 316580, Note_on_c, 0, 76, 46
1, 316607, Note_off_c, 0, 67, 60
1, 316617, Note_on_c, 0, 65, 52
1, 316622, Note_on_c, 0, 77, 53
1, 316626, Note_off_c, 0, 84, 35
1, 316641, Note_off_c, 0, 65, 60
1, 316644, Note_off_c, 0, 76, 55
1, 316661, Note_on_c, 0, 79, 52
1, 316664, Note_off_c, 0, 77, 61
1, 316685, Note_off_c, 0, 79, 65
1, 316692, Note_on_c, 0, 64, 50
1, 316742, Note_off_c, 0, 64, 50
1, 316773, Control_c, 0, 64, 101
1, 316777, Note_on_c, 0, 52, 52
1, 316788, Control_c, 0, 64, 72
1, 316797, Note_on_c, 0, 88, 64
1, 316802, Control_c, 0, 64, 59
1, 316817, Control_c, 0, 64, 49
1, 316828, Note_on_c, 0, 76, 27
1, 316832, Control_c, 0, 64, 55
1, 316846, Control_c, 0, 64, 58
1, 316861, Control_c, 0, 64, 62
1, 316865, Note_on_c, 0, 59, 46
1, 316869, Note_off_c, 0, 52, 60
1, 316876, Control_c, 0, 64, 67
1, 316889, Note_off_c, 0, 88, 60
1, 316891, Control_c, 0, 64, 75
1, 316901, Note_on_c, 0, 81, 53
1, 316901, Note_off_c, 0, 59, 64
1, 316906, Control_c, 0, 64, 95
1, 316920, Control_c, 0, 64, 127
1, 316935, Note_on_c, 0, 64, 50
1, 316938, Note_off_c, 0, 76, 39
1, 316970, Note_off_c, 0, 64, 62
1, 316975, Note_on_c, 0, 79, 50
1, 316977, Note_off_c, 0, 81, 63
1, 317022, Note_off_c, 0, 79, 63
1, 317026, Note_on_c, 0, 87, 72
1, 317042, Note_on_c, 0, 67, 42
1, 317060, Note_on_c, 0, 75, 49
1, 317093, Note_off_c, 0, 67, 58
1, 317111, Note_on_c, 0, 69, 52
1, 317124, Note_off_c, 0, 87, 62
1, 317132, Note_on_c, 0, 81, 33
1, 317140, Note_off_c, 0, 69, 61
1, 317161, Note_off_c, 0, 81, 51
1, 317168, Note_on_c, 0, 79, 43
1, 317177, Note_on_c, 0, 70, 35
1, 317192, Note_off_c, 0, 75, 44
1, 317192, Note_off_c, 0, 79, 62
1, 317215, Note_off_c, 0, 70, 55
1, 317242, Note_on_c, 0, 71, 50
1, 317250, Note_on_c, 0, 83, 65
1, 317323, Note_off_c, 0, 71, 47
1, 317352, Note_on_c, 0, 69, 33
1, 317371, Note_on_c, 0, 78, 37
1, 317415, Note_off_c, 0, 78, 50
1, 317423, Note_off_c, 0, 69, 48
1, 317425, Note_on_c, 0, 76, 44
1, 317433, Note_on_c, 0, 67, 34
1, 317487, Note_off_c, 0, 76, 59
1, 317522, Note_on_c, 0, 66, 42
1, 317527, Note_off_c, 0, 67, 48
1, 317532, Note_on_c, 0, 75, 43
1, 317588, Note_off_c, 0, 66, 58
1, 317591, Note_off_c, 0, 75, 61
1, 317617, Note_on_c, 0, 76, 47
1, 317634, Note_on_c, 0, 64, 47
1, 317762, Note_on_c, 0, 78, 49
1, 317769, Note_off_c, 0, 83, 55
1, 317783, Note_on_c, 0, 63, 37
1, 317786, Note_off_c, 0, 76, 50
1, 317793, Note_off_c, 0, 64, 31
1, 317848, Note_off_c, 0, 63, 55
1, 318014, Note_off_c, 0, 78, 53
1, 318157, Note_on_c, 0, 39, 44
1, 318220, Note_on_c, 0, 87, 60
1, 318233, Note_on_c, 0, 75, 51
1, 318256, Control_c, 0, 64, 92
1, 318271, Control_c, 0, 64, 75
1, 318286, Control_c, 0, 64, 64
1, 318300, Control_c, 0, 64, 57
1, 318315, Control_c, 0, 64, 55
1, 318330, Control_c, 0, 64, 56
1, 318345, Control_c, 0, 64, 59
1, 318360, Control_c, 0, 64, 63
1, 318375, Control_c, 0, 64, 68
1, 318390, Control_c, 0, 64, 78
1, 318405, Control_c, 0, 64, 104
1, 318419, Control_c, 0, 64, 127
1, 318456, Note_on_c, 0, 83, 31
1, 318466, Note_off_c, 0, 39, 40
1, 318479, Note_on_c, 0, 46, 32
1, 318497, Note_off_c, 0, 87, 61
1, 318517, Note_off_c, 0, 46, 57
1, 318554, Note_off_c, 0, 75, 52
1, 318556, Note_on_c, 0, 54, 49
1, 318583, Note_on_c, 0, 82, 44
1, 318592, Note_off_c, 0, 54, 64
1, 318619, Note_off_c, 0, 83, 43
1, 318661, Note_off_c, 0, 82, 64
1, 318667, Note_on_c, 0, 86, 72
1, 318669, Note_on_c, 0, 58, 43
1, 318682, Note_on_c, 0, 74, 63
1, 318725, Note_off_c, 0, 58, 57
1, 318747, Note_on_c, 0, 63, 53
1, 318765, Note_on_c, 0, 82, 65
1, 318775, Note_off_c, 0, 63, 63
1, 318807, Note_off_c, 0, 74, 51
1, 318813, Note_on_c, 0, 65, 51
1, 318824, Note_off_c, 0, 86, 59
1, 318837, Note_on_c, 0, 80, 59
1, 318847, Note_off_c, 0, 65, 63
1, 318870, Note_on_c, 0, 66, 60
1, 318877, Note_off_c, 0, 80, 63
1, 318881, Note_off_c, 0, 82, 63
1, 318889, Note_on_c, 0, 78, 73
1, 318904, Note_off_c, 0, 66, 65
1, 318932, Note_on_c, 0, 65, 60
1, 318952, Note_on_c, 0, 80, 67
1, 318965, Note_off_c, 0, 65, 63
1, 318970, Note_off_c, 0, 78, 62
1, 318989, Note_on_c, 0, 82, 69
1, 318996, Note_on_c, 0, 63, 62
1, 319031, Note_off_c, 0, 63, 64
1, 319035, Note_on_c, 0, 61, 59
1, 319052, Note_off_c, 0, 80, 60
1, 319061, Note_on_c, 0, 87, 85
1, 319061, Note_off_c, 0, 82, 65
1, 319062, Note_off_c, 0, 61, 63
1, 319063, Note_on_c, 0, 75, 83
1, 319103, Note_on_c, 0, 59, 63
1, 319131, Note_off_c, 0, 59, 66
1, 319141, Note_on_c, 0, 80, 67
1, 319153, Note_on_c, 0, 56, 41
1, 319167, Note_off_c, 0, 87, 62
1, 319168, Note_on_c, 0, 78, 70
1, 319185, Note_off_c, 0, 56, 54
1, 319195, Note_off_c, 0, 75, 59
1, 319257, Control_c, 0, 64, 116
1, 319258, Note_on_c, 0, 42, 73
1, 319263, Note_off_c, 0, 80, 62
1, 319272, Control_c, 0, 64, 78
1, 319279, Note_on_c, 0, 86, 85
1, 319283, Note_on_c, 0, 74, 78
1, 319287, Control_c, 0, 64, 62
1, 319302, Note_off_c, 0, 78, 60
1, 319302, Control_c, 0, 64, 52
1, 319316, Control_c, 0, 64, 60
1, 319331, Control_c, 0, 64, 64
1, 319346, Control_c, 0, 64, 69
1, 319347, Note_on_c, 0, 49, 65
1, 319360, Note_off_c, 0, 42, 63
1, 319361, Control_c, 0, 64, 82
1, 319376, Control_c, 0, 64, 127
1, 319388, Note_on_c, 0, 83, 64
1, 319391, Note_off_c, 0, 74, 61
1, 319406, Note_off_c, 0, 49, 63
1, 319416, Note_off_c, 0, 86, 63
1, 319430, Note_on_c, 0, 58, 63
1, 319435, Note_on_c, 0, 82, 68
1, 319449, Note_off_c, 0, 83, 64
1, 319460, Note_off_c, 0, 58, 65
1, 319495, Note_on_c, 0, 85, 90
1, 319499, Note_off_c, 0, 82, 65
1, 319506, Note_on_c, 0, 73, 78
1, 319511, Note_on_c, 0, 61, 66
1, 319561, Note_on_c, 0, 63, 66
1, 319579, Note_on_c, 0, 82, 74
1, 319598, Note_off_c, 0, 61, 60
1, 319602, Note_off_c, 0, 63, 57
1, 319617, Note_off_c, 0, 73, 61
1, 319620, Note_on_c, 0, 65, 68
1, 319639, Note_off_c, 0, 85, 62
1, 319647, Note_on_c, 0, 80, 66
1, 319670, Note_off_c, 0, 65, 60
1, 319672, Note_on_c, 0, 66, 74
1, 319679, Note_off_c, 0, 80, 63
1, 319681, Note_off_c, 0, 82, 62
1, 319700, Note_on_c, 0, 78, 81
1, 319727, Note_on_c, 0, 59, 70
1, 319728, Note_off_c, 0, 66, 64
1, 319764, Note_on_c, 0, 80, 74
1, 319801, Note_off_c, 0, 78, 61
1, 319804, Note_on_c, 0, 82, 73
1, 319805, Note_on_c, 0, 58, 75
1, 319813, Note_off_c, 0, 59, 62
1, 319848, Note_off_c, 0, 58, 61
1, 319858, Note_off_c, 0, 80, 63
1, 319877, Note_on_c, 0, 66, 70
1, 319885, Note_on_c, 0, 86, 87
1, 319887, Note_on_c, 0, 74, 87
1, 319890, Note_off_c, 0, 82, 57
1, 319931, Note_off_c, 0, 66, 60
1, 319939, Note_on_c, 0, 59, 66
1, 319949, Note_on_c, 0, 58, 68
1, 319958, Note_on_c, 0, 80, 81
1, 319963, Note_off_c, 0, 59, 70
1, 319976, Note_off_c, 0, 58, 68
1, 319983, Note_off_c, 0, 74, 60
1, 319991, Note_off_c, 0, 86, 62
1, 320028, Note_on_c, 0, 78, 71
1, 320064, Note_off_c, 0, 80, 62
1, 320083, Note_on_c, 0, 44, 84
1, 320094, Control_c, 0, 64, 76
1, 320108, Note_on_c, 0, 85, 84
1, 320109, Control_c, 0, 64, 54
1, 320116, Note_on_c, 0, 73, 78
1, 320116, Note_off_c, 0, 78, 62
1, 320124, Control_c, 0, 64, 0
1, 320138, Control_c, 0, 64, 39
1, 320153, Control_c, 0, 64, 55
1, 320168, Control_c, 0, 64, 66
1, 320173, Note_on_c, 0, 51, 69
1, 320183, Control_c, 0, 64, 82
1, 320188, Note_on_c, 0, 80, 69
1, 320198, Control_c, 0, 64, 127
1, 320206, Note_off_c, 0, 44, 61
1, 320229, Note_on_c, 0, 56, 73
1, 320229, Note_off_c, 0, 51, 64
1, 320238, Note_off_c, 0, 73, 58
1, 320244, Note_off_c, 0, 85, 64
1, 320261, Note_on_c, 0, 78, 68
1, 320261, Note_off_c, 0, 56, 67
1, 320295, Note_off_c, 0, 80, 63
1, 320324, Note_on_c, 0, 60, 68
1, 320329, Note_on_c, 0, 84, 94
1, 320338, Note_on_c, 0, 72, 79
1, 320347, Note_off_c, 0, 78, 64
1, 320389, Note_on_c, 0, 63, 71
1, 320394, Note_off_c, 0, 60, 64
1, 320409, Note_on_c, 0, 78, 73
1, 320410, Note_off_c, 0, 72, 61
1, 320418, Note_off_c, 0, 63, 64
1, 320440, Note_on_c, 0, 65, 70
1, 320442, Note_off_c, 0, 84, 61
1, 320454, Note_on_c, 0, 77, 73
1, 320496, Note_off_c, 0, 65, 62
1, 320497, Note_on_c, 0, 66, 70
1, 320500, Note_off_c, 0, 78, 60
1, 320515, Note_off_c, 0, 77, 65
1, 320518, Note_on_c, 0, 75, 82
1, 320545, Note_on_c, 0, 65, 56
1, 320563, Note_off_c, 0, 66, 60
1, 320567, Note_on_c, 0, 77, 75
1, 320592, Note_off_c, 0, 75, 62
1, 320617, Note_on_c, 0, 63, 69
1, 320617, Note_on_c, 0, 78, 79
1, 320641, Note_off_c, 0, 77, 63
1, 320642, Note_off_c, 0, 65, 62
1, 320670, Note_off_c, 0, 78, 64
1, 320679, Note_on_c, 0, 66, 75
1, 320681, Note_off_c, 0, 63, 62
1, 320699, Note_on_c, 0, 85, 96
1, 320700, Note_on_c, 0, 73, 92
1, 320737, Note_on_c, 0, 65, 41
1, 320741, Note_on_c, 0, 63, 62
1, 320748, Note_off_c, 0, 66, 62
1, 320762, Note_off_c, 0, 65, 58
1, 320770, Note_on_c, 0, 80, 76
1, 320772, Note_off_c, 0, 63, 66
1, 320841, Note_on_c, 0, 78, 72
1, 320846, Note_off_c, 0, 85, 64
1, 320847, Note_off_c, 0, 73, 60
1, 320900, Note_on_c, 0, 46, 77
1, 320906, Note_off_c, 0, 80, 62
1, 320931, Control_c, 0, 64, 81
1, 320939, Note_on_c, 0, 84, 85
1, 320946, Control_c, 0, 64, 63
1, 320947, Note_on_c, 0, 72, 74
1, 320953, Note_off_c, 0, 78, 64
1, 320960, Control_c, 0, 64, 50
1, 320975, Control_c, 0, 64, 57
1, 320990, Control_c, 0, 64, 61
1, 321005, Control_c, 0, 64, 64
1, 321019, Control_c, 0, 64, 71
1, 321025, Note_off_c, 0, 46, 62
1, 321041, Note_on_c, 0, 56, 64
1, 321042, Control_c, 0, 64, 86
1, 321057, Control_c, 0, 64, 127
1, 321064, Note_off_c, 0, 84, 61
1, 321070, Note_on_c, 0, 78, 66
1, 321082, Note_off_c, 0, 56, 63
1, 321096, Note_off_c, 0, 72, 52
1, 321099, Note_on_c, 0, 60, 64
1, 321141, Note_on_c, 0, 77, 68
1, 321160, Note_off_c, 0, 78, 60
1, 321185, Note_off_c, 0, 60, 61
1, 321189, Note_on_c, 0, 62, 63
1, 321212, Note_on_c, 0, 83, 86
1, 321216, Note_off_c, 0, 77, 64
1, 321222, Note_on_c, 0, 71, 81
1, 321251, Note_on_c, 0, 63, 66
1, 321251, Note_off_c, 0, 62, 61
1, 321288, Note_on_c, 0, 78, 74
1, 321288, Note_off_c, 0, 63, 62
1, 321311, Note_off_c, 0, 71, 56
1, 321313, Note_on_c, 0, 65, 65
1, 321317, Note_off_c, 0, 83, 63
1, 321339, Note_on_c, 0, 77, 71
1, 321364, Note_off_c, 0, 65, 0
1, 321394, Note_off_c, 0, 78, 56
1, 321401, Poly_aftertouch_c, 0, 65, 127
1, 321404, Note_off_c, 0, 77, 63
1, 321415, Note_on_c, 0, 83, 88
1, 321418, Note_on_c, 0, 71, 77
1, 321464, Note_on_c, 0, 72, 26
1, 321490, Poly_aftertouch_c, 0, 65, 0
1, 321493, Note_on_c, 0, 77, 65
1, 321497, Note_off_c, 0, 71, 62
1, 321502, Note_off_c, 0, 72, 33
1, 321514, Note_off_c, 0, 83, 60
1, 321522, Note_on_c, 0, 78, 72
1, 321524, Note_on_c, 0, 63, 60
1, 321552, Note_off_c, 0, 77, 63
1, 321556, Note_off_c, 0, 63, 62
1, 321561, Note_on_c, 0, 62, 55
1, 321576, Note_off_c, 0, 78, 64
1, 321589, Note_off_c, 0, 62, 65
1, 321599, Note_on_c, 0, 82, 77
1, 321605, Note_on_c, 0, 70, 73
1, 321663, Note_on_c, 0, 75, 75
1, 321669, Note_off_c, 0, 70, 62
1, 321700, Note_off_c, 0, 82, 63
1, 321715, Note_on_c, 0, 74, 67
1, 321734, Note_off_c, 0, 75, 62
1, 321745, Note_off_c, 0, 74, 65
1, 321830, Note_on_c, 0, 39, 60
1, 321851, Control_c, 0, 64, 97
1, 321866, Control_c, 0, 64, 69
1, 321868, Note_on_c, 0, 75, 72
1, 321880, Control_c, 0, 64, 46
1, 321882, Note_on_c, 0, 63, 65
1, 321896, Control_c, 0, 64, 0
1, 321911, Control_c, 0, 64, 36
1, 321926, Control_c, 0, 64, 52
1, 321940, Control_c, 0, 64, 63
1, 321955, Control_c, 0, 64, 73
1, 321970, Control_c, 0, 64, 100
1, 321970, Note_on_c, 0, 46, 54
1, 321970, Note_off_c, 0, 39, 63
1, 321985, Control_c, 0, 64, 127
1, 322002, Note_on_c, 0, 71, 53
1, 322015, Note_off_c, 0, 46, 63
1, 322035, Note_off_c, 0, 75, 62
1, 322038, Note_on_c, 0, 54, 58
1, 322044, Note_off_c, 0, 63, 61
1, 322069, Note_off_c, 0, 54, 65
1, 322100, Note_on_c, 0, 70, 49
1, 322101, Note_off_c, 0, 71, 62
1, 322124, Note_on_c, 0, 58, 66
1, 322138, Note_off_c, 0, 70, 65
1, 322141, Note_on_c, 0, 74, 79
1, 322155, Note_on_c, 0, 62, 60
1, 322196, Note_off_c, 0, 58, 59
1, 322199, Note_on_c, 0, 63, 56
1, 322206, Note_off_c, 0, 62, 60
1, 322226, Note_on_c, 0, 70, 73
1, 322238, Note_off_c, 0, 63, 60
1, 322251, Note_on_c, 0, 65, 59
1, 322265, Note_off_c, 0, 74, 62
1, 322286, Note_off_c, 0, 65, 64
1, 322292, Note_on_c, 0, 68, 60
1, 322320, Note_off_c, 0, 70, 62
1, 322326, Note_off_c, 0, 68, 63
1, 322339, Note_on_c, 0, 66, 79
1, 322408, Note_on_c, 0, 63, 62
1, 322408, Note_on_c, 0, 68, 73
1, 322422, Note_off_c, 0, 66, 60
1, 322424, Note_on_c, 0, 70, 75
1, 322444, Note_off_c, 0, 63, 63
1, 322456, Note_on_c, 0, 61, 61
1, 322465, Poly_aftertouch_c, 0, 65, 0
1, 322486, Note_off_c, 0, 61, 65
1, 322493, Note_off_c, 0, 68, 61
1, 322506, Note_off_c, 0, 70, 59
1, 322517, Note_on_c, 0, 75, 86
1, 322524, Note_on_c, 0, 63, 81
1, 322539, Note_on_c, 0, 59, 64
1, 322569, Note_off_c, 0, 59, 65
1, 322619, Note_on_c, 0, 68, 68
1, 322620, Note_off_c, 0, 75, 61
1, 322625, Note_on_c, 0, 66, 69
1, 322650, Note_off_c, 0, 63, 58
1, 322709, Note_on_c, 0, 42, 77
1, 322718, Note_off_c, 0, 68, 60
1, 322718, Control_c, 0, 64, 82
1, 322733, Control_c, 0, 64, 59
1, 322736, Note_on_c, 0, 74, 82
1, 322740, Note_on_c, 0, 62, 77
1, 322742, Note_off_c, 0, 66, 61
1, 322748, Control_c, 0, 64, 0
1, 322778, Control_c, 0, 64, 28
1, 322793, Control_c, 0, 64, 49
1, 322805, Note_off_c, 0, 42, 63
1, 322808, Control_c, 0, 64, 63
1, 322822, Control_c, 0, 64, 74
1, 322825, Note_on_c, 0, 71, 69
1, 322830, Note_off_c, 0, 62, 59
1, 322837, Control_c, 0, 64, 120
1, 322852, Control_c, 0, 64, 127
1, 322855, Note_off_c, 0, 74, 62
1, 322888, Note_on_c, 0, 58, 26
1, 322888, Note_on_c, 0, 70, 67
1, 322897, Note_off_c, 0, 71, 62
1, 322928, Note_off_c, 0, 58, 44
1, 322951, Note_on_c, 0, 61, 61
1, 322951, Note_on_c, 0, 73, 84
1, 322953, Note_off_c, 0, 70, 64
1, 323003, Note_on_c, 0, 63, 62
1, 323025, Note_on_c, 0, 70, 72
1, 323025, Note_off_c, 0, 61, 60
1, 323048, Note_off_c, 0, 63, 59
1, 323058, Note_on_c, 0, 65, 69
1, 323075, Note_off_c, 0, 73, 57
1, 323096, Note_off_c, 0, 65, 58
1, 323097, Note_on_c, 0, 68, 64
1, 323127, Note_off_c, 0, 70, 62
1, 323135, Note_off_c, 0, 68, 60
1, 323146, Note_on_c, 0, 66, 76
1, 323195, Note_on_c, 0, 59, 50
1, 323207, Note_on_c, 0, 68, 70
1, 323238, Note_on_c, 0, 58, 60
1, 323243, Note_off_c, 0, 66, 59
1, 323249, Note_on_c, 0, 70, 70
1, 323265, Note_off_c, 0, 59, 58
1, 323305, Note_off_c, 0, 68, 61
1, 323315, Note_off_c, 0, 58, 62
1, 323321, Note_on_c, 0, 62, 66
1, 323328, Note_on_c, 0, 74, 79
1, 323338, Note_off_c, 0, 70, 61
1, 323387, Note_off_c, 0, 62, 60
1, 323392, Note_on_c, 0, 59, 57
1, 323410, Note_on_c, 0, 68, 70
1, 323421, Note_off_c, 0, 59, 64
1, 323422, Note_on_c, 0, 58, 45
1, 323436, Note_off_c, 0, 74, 62
1, 323445, Note_off_c, 0, 58, 59
1, 323466, Note_on_c, 0, 66, 60
1, 323509, Note_off_c, 0, 68, 61
1, 323511, Control_c, 0, 64, 117
1, 323526, Control_c, 0, 64, 76
1, 323532, Note_on_c, 0, 44, 67
1, 323539, Note_off_c, 0, 66, 62
1, 323541, Control_c, 0, 64, 54
1, 323544, Note_on_c, 0, 73, 74
1, 323555, Note_on_c, 0, 61, 64
1, 323556, Control_c, 0, 64, 0
1, 323586, Control_c, 0, 64, 25
1, 323600, Control_c, 0, 64, 50
1, 323615, Control_c, 0, 64, 65
1, 323622, Note_on_c, 0, 51, 57
1, 323630, Control_c, 0, 64, 77
1, 323632, Note_on_c, 0, 68, 63
1, 323633, Note_off_c, 0, 44, 62
1, 323645, Control_c, 0, 64, 114
1, 323654, Note_off_c, 0, 51, 65
1, 323655, Note_off_c, 0, 61, 57
1, 323660, Note_on_c, 0, 56, 63
1, 323660, Control_c, 0, 64, 127
1, 323670, Note_off_c, 0, 73, 59
1, 323693, Note_on_c, 0, 66, 61
1, 323693, Note_off_c, 0, 56, 65
1, 323725, Note_off_c, 0, 68, 60
1, 323759, Note_on_c, 0, 60, 64
1, 323769, Note_on_c, 0, 72, 75
1, 323770, Note_off_c, 0, 66, 61
1, 323841, Note_off_c, 0, 60, 62
1, 323842, Note_on_c, 0, 66, 63
1, 323846, Note_on_c, 0, 63, 54
1, 323874, Note_off_c, 0, 72, 60
1, 323880, Note_off_c, 0, 63, 61
1, 323901, Note_on_c, 0, 65, 65
1, 323929, Note_off_c, 0, 66, 60
1, 323949, Note_off_c, 0, 65, 61
1, 323955, Note_on_c, 0, 63, 69
1, 324019, Note_on_c, 0, 65, 64
1, 324035, Note_off_c, 0, 63, 61
1, 324099, Note_on_c, 0, 66, 65
1, 324102, Note_off_c, 0, 65, 61
1, 324157, Note_off_c, 0, 66, 59
1, 324161, Note_on_c, 0, 61, 73
1, 324170, Note_on_c, 0, 73, 71
1, 324258, Note_on_c, 0, 68, 66
1, 324260, Note_on_c, 0, 65, 58
1, 324295, Note_off_c, 0, 65, 65
1, 324313, Note_off_c, 0, 61, 61
1, 324325, Note_off_c, 0, 73, 57
1, 324352, Note_on_c, 0, 66, 55
1, 324375, Note_off_c, 0, 68, 51
1, 324461, Note_on_c, 0, 34, 57
1, 324468, Control_c, 0, 64, 97
1, 324483, Control_c, 0, 64, 69
1, 324489, Note_off_c, 0, 66, 60
1, 324492, Note_on_c, 0, 72, 63
1, 324498, Control_c, 0, 64, 40
1, 324513, Control_c, 0, 64, 0
1, 324513, Note_on_c, 0, 60, 52
1, 324542, Control_c, 0, 64, 29
1, 324557, Control_c, 0, 64, 51
1, 324572, Control_c, 0, 64, 64
1, 324582, Note_off_c, 0, 34, 61
1, 324587, Control_c, 0, 64, 74
1, 324589, Note_on_c, 0, 46, 53
1, 324601, Control_c, 0, 64, 101
1, 324616, Control_c, 0, 64, 127
1, 324621, Note_off_c, 0, 46, 63
1, 324626, Note_off_c, 0, 72, 57
1, 324630, Note_on_c, 0, 66, 50
1, 324659, Note_off_c, 0, 60, 59
1, 324712, Note_on_c, 0, 53, 57
1, 324723, Note_on_c, 0, 65, 53
1, 324767, Note_off_c, 0, 66, 35
1, 324769, Note_off_c, 0, 53, 57
1, 324801, Note_on_c, 0, 71, 77
1, 324808, Note_on_c, 0, 56, 47
1, 324808, Note_on_c, 0, 62, 52
1, 324813, Note_on_c, 0, 59, 66
1, 324813, Note_off_c, 0, 65, 61
1, 324874, Note_off_c, 0, 62, 57
1, 324889, Note_off_c, 0, 56, 55
1, 324897, Note_on_c, 0, 66, 63
1, 324926, Note_off_c, 0, 71, 60
1, 324937, Note_off_c, 0, 59, 55
1, 324951, Note_on_c, 0, 65, 64
1, 325025, Control_c, 0, 64, 103
1, 325030, Note_on_c, 0, 71, 82
1, 325037, Note_off_c, 0, 65, 63
1, 325038, Note_off_c, 0, 66, 37
1, 325040, Control_c, 0, 64, 81
1, 325042, Note_on_c, 0, 59, 73
1, 325055, Control_c, 0, 64, 67
1, 325069, Control_c, 0, 64, 57
1, 325085, Control_c, 0, 64, 51
1, 325100, Control_c, 0, 64, 53
1, 325115, Control_c, 0, 64, 57
1, 325130, Control_c, 0, 64, 61
1, 325135, Note_on_c, 0, 66, 57
1, 325145, Control_c, 0, 64, 66
1, 325159, Control_c, 0, 64, 74
1, 325166, Note_off_c, 0, 71, 62
1, 325173, Note_off_c, 0, 59, 63
1, 325174, Control_c, 0, 64, 99
1, 325183, Note_on_c, 0, 65, 63
1, 325189, Control_c, 0, 64, 127
1, 325226, Note_off_c, 0, 66, 61
1, 325258, Note_off_c, 0, 65, 62
1, 325276, Note_on_c, 0, 70, 68
1, 325291, Note_on_c, 0, 58, 61
1, 325292, Control_c, 0, 64, 103
1, 325307, Control_c, 0, 64, 82
1, 325322, Control_c, 0, 64, 67
1, 325337, Control_c, 0, 64, 54
1, 325352, Control_c, 0, 64, 41
1, 325366, Control_c, 0, 64, 42
1, 325381, Control_c, 0, 64, 45
1, 325396, Control_c, 0, 64, 50
1, 325399, Note_on_c, 0, 63, 58
1, 325411, Control_c, 0, 64, 54
1, 325426, Control_c, 0, 64, 58
1, 325440, Control_c, 0, 64, 63
1, 325455, Control_c, 0, 64, 67
1, 325470, Control_c, 0, 64, 72
1, 325484, Control_c, 0, 64, 81
1, 325499, Note_on_c, 0, 62, 66
1, 325499, Control_c, 0, 64, 92
1, 325514, Control_c, 0, 64, 108
1, 325537, Control_c, 0, 64, 127
1, 325550, Note_off_c, 0, 58, 38
1, 325623, Note_off_c, 0, 70, 24
1, 325680, Note_on_c, 0, 54, 52
1, 325697, Note_on_c, 0, 39, 46
1, 325706, Note_on_c, 0, 46, 41
1, 325716, Note_on_c, 0, 57, 75
1, 325744, Control_c, 0, 64, 125
1, 325758, Control_c, 0, 64, 108
1, 325773, Note_off_c, 0, 62, 56
1, 325773, Control_c, 0, 64, 99
1, 325780, Note_off_c, 0, 63, 37
1, 325788, Control_c, 0, 64, 91
1, 325803, Control_c, 0, 64, 80
1, 325818, Control_c, 0, 64, 68
1, 325833, Control_c, 0, 64, 58
1, 325847, Control_c, 0, 64, 45
1, 325862, Control_c, 0, 64, 44
1, 325893, Control_c, 0, 64, 46
1, 325907, Control_c, 0, 64, 50
1, 325922, Control_c, 0, 64, 54
1, 325937, Control_c, 0, 64, 59
1, 325952, Control_c, 0, 64, 64
1, 325967, Control_c, 0, 64, 69
1, 325981, Control_c, 0, 64, 77
1, 325996, Control_c, 0, 64, 91
1, 326011, Control_c, 0, 64, 127
1, 326025, Note_on_c, 0, 63, 47
1, 326083, Note_off_c, 0, 57, 60
1, 326108, Note_off_c, 0, 63, 55
1, 326110, Note_on_c, 0, 66, 52
1, 326188, Control_c, 0, 64, 101
1, 326203, Control_c, 0, 64, 81
1, 326206, Note_off_c, 0, 66, 57
1, 326208, Note_on_c, 0, 58, 72
1, 326218, Control_c, 0, 64, 66
1, 326233, Control_c, 0, 64, 52
1, 326248, Control_c, 0, 64, 40
1, 326262, Control_c, 0, 64, 43
1, 326266, Note_on_c, 0, 63, 32
1, 326285, Control_c, 0, 64, 48
1, 326300, Control_c, 0, 64, 53
1, 326304, Note_off_c, 0, 63, 57
1, 326314, Control_c, 0, 64, 57
1, 326329, Control_c, 0, 64, 62
1, 326344, Control_c, 0, 64, 67
1, 326346, Note_on_c, 0, 66, 47
1, 326359, Control_c, 0, 64, 75
1, 326374, Control_c, 0, 64, 89
1, 326385, Note_off_c, 0, 66, 64
1, 326388, Control_c, 0, 64, 127
1, 326405, Note_on_c, 0, 63, 46
1, 326454, Note_off_c, 0, 63, 60
1, 326486, Note_on_c, 0, 66, 57
1, 326527, Note_off_c, 0, 66, 61
1, 326553, Note_on_c, 0, 63, 59
1, 326560, Note_off_c, 0, 39, 38
1, 326566, Note_off_c, 0, 54, 33
1, 326594, Note_off_c, 0, 63, 58
1, 326628, Note_on_c, 0, 66, 58
1, 326637, Note_off_c, 0, 46, 37
1, 326665, Note_off_c, 0, 66, 63
1, 326693, Note_on_c, 0, 63, 61
1, 326728, Note_off_c, 0, 63, 62
1, 326742, Note_off_c, 0, 58, 31
1, 326756, Note_on_c, 0, 66, 63
1, 326822, Note_on_c, 0, 63, 68
1, 326829, Note_off_c, 0, 66, 51
1, 326929, Note_on_c, 0, 54, 50
1, 326933, Note_on_c, 0, 39, 46
1, 326943, Note_on_c, 0, 46, 46
1, 326947, Note_on_c, 0, 57, 76
1, 326952, Control_c, 0, 64, 105
1, 326967, Control_c, 0, 64, 80
1, 326976, Note_off_c, 0, 63, 58
1, 326982, Control_c, 0, 64, 65
1, 326997, Control_c, 0, 64, 51
1, 327011, Control_c, 0, 64, 39
1, 327049, Control_c, 0, 64, 41
1, 327064, Control_c, 0, 64, 46
1, 327079, Control_c, 0, 64, 53
1, 327093, Control_c, 0, 64, 59
1, 327108, Control_c, 0, 64, 64
1, 327123, Control_c, 0, 64, 74
1, 327137, Control_c, 0, 64, 92
1, 327152, Control_c, 0, 64, 127
1, 327156, Note_on_c, 0, 63, 52
1, 327198, Note_off_c, 0, 57, 62
1, 327225, Note_off_c, 0, 63, 59
1, 327234, Note_on_c, 0, 66, 55
1, 327300, Control_c, 0, 64, 91
1, 327311, Note_off_c, 0, 66, 59
1, 327314, Note_on_c, 0, 58, 71
1, 327315, Control_c, 0, 64, 68
1, 327330, Control_c, 0, 64, 52
1, 327338, Note_on_c, 0, 63, 49
1, 327344, Control_c, 0, 64, 13
1, 327359, Control_c, 0, 64, 11
1, 327374, Control_c, 0, 64, 15
1, 327386, Note_off_c, 0, 63, 62
1, 327389, Control_c, 0, 64, 28
1, 327404, Control_c, 0, 64, 43
1, 327419, Control_c, 0, 64, 53
1, 327424, Note_on_c, 0, 66, 53
1, 327434, Control_c, 0, 64, 60
1, 327449, Control_c, 0, 64, 65
1, 327463, Control_c, 0, 64, 72
1, 327468, Note_off_c, 0, 66, 61
1, 327479, Control_c, 0, 64, 84
1, 327493, Note_on_c, 0, 63, 53
1, 327494, Control_c, 0, 64, 108
1, 327508, Control_c, 0, 64, 127
1, 327543, Note_off_c, 0, 63, 58
1, 327584, Note_on_c, 0, 66, 45
1, 327627, Note_off_c, 0, 66, 62
1, 327643, Note_off_c, 0, 39, 38
1, 327644, Note_off_c, 0, 54, 32
1, 327667, Note_on_c, 0, 63, 42
1, 327707, Note_off_c, 0, 63, 60
1, 327724, Note_off_c, 0, 46, 38
1, 327735, Note_off_c, 0, 58, 31
1, 327745, Note_on_c, 0, 66, 46
1, 327791, Note_off_c, 0, 66, 62
1, 327821, Note_on_c, 0, 63, 40
1, 327872, Note_off_c, 0, 63, 60
1, 327899, Note_on_c, 0, 66, 48
1, 327950, Note_off_c, 0, 66, 56
1, 327994, Note_on_c, 0, 63, 42
1, 328171, Note_on_c, 0, 54, 38
1, 328183, Note_on_c, 0, 39, 32
1, 328186, Note_on_c, 0, 46, 37
1, 328203, Note_on_c, 0, 57, 57
1, 328212, Control_c, 0, 64, 113
1, 328227, Control_c, 0, 64, 103
1, 328242, Control_c, 0, 64, 96
1, 328250, Note_off_c, 0, 63, 38
1, 328257, Control_c, 0, 64, 90
1, 328271, Control_c, 0, 64, 84
1, 328287, Control_c, 0, 64, 75
1, 328302, Control_c, 0, 64, 66
1, 328317, Control_c, 0, 64, 57
1, 328331, Control_c, 0, 64, 47
1, 328346, Control_c, 0, 64, 46
1, 328376, Control_c, 0, 64, 48
1, 328391, Control_c, 0, 64, 52
1, 328406, Control_c, 0, 64, 56
1, 328421, Control_c, 0, 64, 61
1, 328435, Control_c, 0, 64, 66
1, 328450, Control_c, 0, 64, 72
1, 328465, Control_c, 0, 64, 83
1, 328474, Note_on_c, 0, 63, 43
1, 328480, Control_c, 0, 64, 99
1, 328494, Control_c, 0, 64, 127
1, 328558, Note_off_c, 0, 57, 38
1, 328577, Note_off_c, 0, 63, 53
1, 328611, Note_on_c, 0, 66, 36
1, 328695, Control_c, 0, 64, 114
1, 328704, Note_off_c, 0, 66, 51
1, 328710, Control_c, 0, 64, 100
1, 328719, Note_on_c, 0, 58, 58
1, 328725, Control_c, 0, 64, 91
1, 328739, Control_c, 0, 64, 82
1, 328740, Note_on_c, 0, 63, 34
1, 328754, Control_c, 0, 64, 72
1, 328769, Control_c, 0, 64, 63
1, 328784, Control_c, 0, 64, 53
1, 328799, Control_c, 0, 64, 50
1, 328812, Note_off_c, 0, 63, 46
1, 328814, Control_c, 0, 64, 51
1, 328829, Control_c, 0, 64, 54
1, 328844, Control_c, 0, 64, 58
1, 328858, Control_c, 0, 64, 61
1, 328859, Note_on_c, 0, 66, 37
1, 328873, Control_c, 0, 64, 64
1, 328888, Control_c, 0, 64, 68
1, 328902, Control_c, 0, 64, 76
1, 328904, Note_off_c, 0, 66, 61
1, 328917, Control_c, 0, 64, 87
1, 328932, Control_c, 0, 64, 103
1, 328947, Control_c, 0, 64, 127
1, 328951, Note_on_c, 0, 63, 39
1, 328988, Note_off_c, 0, 63, 59
1, 329041, Note_on_c, 0, 66, 34
1, 329071, Note_off_c, 0, 66, 53
1, 329100, Note_on_c, 0, 63, 42
1, 329139, Note_off_c, 0, 63, 60
1, 329169, Note_on_c, 0, 66, 45
1, 329210, Note_off_c, 0, 66, 62
1, 329245, Note_on_c, 0, 63, 47
1, 329294, Note_off_c, 0, 63, 62
1, 329330, Note_on_c, 0, 66, 45
1, 329360, Note_off_c, 0, 66, 61
1, 329404, Note_on_c, 0, 63, 42
1, 329436, Note_off_c, 0, 63, 53
1, 329455, Note_on_c, 0, 66, 52
1, 329494, Note_off_c, 0, 66, 62
1, 329532, Note_on_c, 0, 63, 44
1, 329572, Note_off_c, 0, 63, 57
1, 329621, Note_on_c, 0, 66, 38
1, 329651, Note_off_c, 0, 54, 41
1, 329651, Note_off_c, 0, 66, 58
1, 329667, Note_off_c, 0, 39, 27
1, 329678, Note_on_c, 0, 63, 41
1, 329719, Note_off_c, 0, 63, 60
1, 329753, Note_on_c, 0, 66, 45
1, 329807, Note_off_c, 0, 66, 58
1, 329816, Note_off_c, 0, 58, 27
1, 329846, Note_on_c, 0, 63, 28
1, 329896, Note_off_c, 0, 63, 50
1, 329927, Note_off_c, 0, 46, 32
1, 329968, Note_on_c, 0, 66, 23
1, 330006, Note_off_c, 0, 66, 50
1, 330039, Note_on_c, 0, 63, 28
1, 330092, Note_off_c, 0, 63, 48
1, 330148, Note_on_c, 0, 66, 30
1, 330273, Note_off_c, 0, 66, 32
1, 330281, Note_on_c, 0, 63, 33
1, 330532, Note_off_c, 0, 63, 35
1, 330644, Note_on_c, 0, 38, 25
1, 330704, Note_on_c, 0, 70, 39
1, 330716, Note_on_c, 0, 58, 30
1, 330726, Control_c, 0, 64, 101
1, 330741, Control_c, 0, 64, 86
1, 330756, Control_c, 0, 64, 70
1, 330778, Control_c, 0, 64, 60
1, 330793, Control_c, 0, 64, 49
1, 330808, Control_c, 0, 64, 50
1, 330823, Control_c, 0, 64, 53
1, 330838, Control_c, 0, 64, 57
1, 330852, Control_c, 0, 64, 61
1, 330867, Control_c, 0, 64, 65
1, 330882, Control_c, 0, 64, 73
1, 330897, Control_c, 0, 64, 94
1, 330899, Note_off_c, 0, 38, 40
1, 330904, Note_on_c, 0, 46, 39
1, 330912, Control_c, 0, 64, 127
1, 330916, Note_on_c, 0, 68, 39
1, 330945, Note_off_c, 0, 46, 63
1, 330985, Note_on_c, 0, 48, 44
1, 331005, Note_on_c, 0, 66, 37
1, 331030, Note_off_c, 0, 58, 38
1, 331038, Note_off_c, 0, 66, 57
1, 331038, Note_off_c, 0, 48, 53
1, 331046, Note_off_c, 0, 68, 33
1, 331049, Note_off_c, 0, 70, 33
1, 331060, Note_on_c, 0, 50, 50
1, 331077, Note_on_c, 0, 65, 46
1, 331099, Note_off_c, 0, 50, 63
1, 331115, Note_on_c, 0, 51, 61
1, 331128, Note_on_c, 0, 66, 53
1, 331129, Note_off_c, 0, 65, 58
1, 331144, Note_off_c, 0, 51, 66
1, 331169, Note_on_c, 0, 68, 66
1, 331173, Note_on_c, 0, 53, 63
1, 331208, Note_off_c, 0, 66, 59
1, 331227, Note_on_c, 0, 71, 83
1, 331233, Note_on_c, 0, 59, 71
1, 331234, Note_off_c, 0, 68, 62
1, 331237, Note_on_c, 0, 58, 73
1, 331237, Note_off_c, 0, 53, 63
1, 331291, Note_on_c, 0, 56, 69
1, 331297, Note_on_c, 0, 68, 71
1, 331317, Note_off_c, 0, 59, 61
1, 331326, Note_off_c, 0, 58, 61
1, 331338, Note_on_c, 0, 54, 78
1, 331363, Note_off_c, 0, 56, 63
1, 331366, Note_off_c, 0, 71, 59
1, 331368, Note_on_c, 0, 66, 74
1, 331384, Note_off_c, 0, 54, 61
1, 331407, Note_on_c, 0, 53, 84
1, 331424, Note_off_c, 0, 68, 62
1, 331427, Note_on_c, 0, 65, 84
1, 331478, Note_on_c, 0, 51, 82
1, 331486, Note_off_c, 0, 53, 63
1, 331494, Note_on_c, 0, 50, 80
1, 331505, Note_off_c, 0, 51, 68
1, 331521, Note_on_c, 0, 68, 80
1, 331521, Note_off_c, 0, 65, 65
1, 331523, Note_off_c, 0, 50, 68
1, 331553, Note_off_c, 0, 68, 62
1, 331555, Note_off_c, 0, 66, 63
1, 331674, Control_c, 0, 64, 87
1, 331683, Note_on_c, 0, 69, 84
1, 331688, Note_on_c, 0, 39, 91
1, 331688, Note_on_c, 0, 60, 98
1, 331688, Note_on_c, 0, 72, 99
1, 331689, Control_c, 0, 64, 0
1, 331690, Note_on_c, 0, 66, 83
1, 331691, Note_on_c, 0, 27, 91
1, 331726, Note_on_c, 0, 40, 41
1, 331762, Note_off_c, 0, 40, 55
1, 331773, Note_off_c, 0, 27, 64
1, 331778, Control_c, 0, 64, 58
1, 331793, Control_c, 0, 64, 78
1, 331794, Note_off_c, 0, 60, 66
1, 331801, Note_off_c, 0, 39, 64
1, 331807, Control_c, 0, 64, 127
1, 331819, Note_off_c, 0, 66, 60
1, 331838, Note_off_c, 0, 69, 64
1, 331850, Note_off_c, 0, 72, 66
1, 332057, Note_on_c, 0, 72, 45
1, 332060, Note_on_c, 0, 84, 62
1, 332062, Note_on_c, 0, 81, 53
1, 332064, Note_on_c, 0, 69, 46
1, 332082, Note_off_c, 0, 72, 56
1, 332095, Note_off_c, 0, 69, 60
1, 332097, Note_off_c, 0, 81, 65
1, 332111, Note_off_c, 0, 84, 63
1, 332116, Note_on_c, 0, 66, 54
1, 332122, Note_on_c, 0, 78, 65
1, 332153, Note_off_c, 0, 66, 62
1, 332161, Note_off_c, 0, 78, 60
1, 332167, Note_on_c, 0, 72, 53
1, 332169, Note_on_c, 0, 84, 61
1, 332174, Note_on_c, 0, 81, 72
1, 332185, Note_on_c, 0, 69, 62
1, 332212, Note_off_c, 0, 72, 53
1, 332221, Note_on_c, 0, 77, 73
1, 332222, Note_off_c, 0, 81, 61
1, 332227, Note_off_c, 0, 69, 56
1, 332246, Note_off_c, 0, 84, 63
1, 332256, Note_on_c, 0, 65, 53
1, 332284, Note_on_c, 0, 78, 66
1, 332293, Note_off_c, 0, 77, 63
1, 332314, Note_on_c, 0, 84, 59
1, 332317, Note_off_c, 0, 78, 67
1, 332329, Note_on_c, 0, 81, 65
1, 332352, Note_on_c, 0, 72, 58
1, 332376, Note_on_c, 0, 76, 75
1, 332388, Note_off_c, 0, 72, 62
1, 332388, Note_off_c, 0, 84, 63
1, 332388, Note_off_c, 0, 81, 64
1, 332391, Note_on_c, 0, 69, 34
1, 332418, Note_off_c, 0, 76, 60
1, 332427, Note_on_c, 0, 77, 61
1, 332433, Note_off_c, 0, 69, 46
1, 332436, Note_on_c, 0, 63, 60
1, 332456, Note_on_c, 0, 84, 57
1, 332456, Note_off_c, 0, 77, 65
1, 332468, Note_on_c, 0, 81, 59
1, 332473, Note_off_c, 0, 63, 63
1, 332474, Note_off_c, 0, 65, 47
1, 332531, Note_on_c, 0, 72, 28
1, 332543, Note_on_c, 0, 75, 54
1, 332555, Poly_aftertouch_c, 0, 69, 127
1, 332577, Note_off_c, 0, 84, 51
1, 332591, Note_on_c, 0, 63, 41
1, 332607, Poly_aftertouch_c, 0, 69, 0
1, 332608, Note_on_c, 0, 78, 52
1, 332618, Note_off_c, 0, 72, 37
1, 332645, Note_off_c, 0, 81, 59
1, 332648, Note_on_c, 0, 66, 40
1, 332657, Note_off_c, 0, 75, 55
1, 332677, Note_off_c, 0, 63, 52
1, 332686, Note_off_c, 0, 66, 61
1, 332692, Note_off_c, 0, 78, 57
1, 333003, Note_on_c, 0, 38, 44
1, 333071, Note_on_c, 0, 70, 64
1, 333083, Control_c, 0, 64, 92
1, 333087, Note_on_c, 0, 58, 55
1, 333098, Control_c, 0, 64, 73
1, 333113, Control_c, 0, 64, 59
1, 333127, Control_c, 0, 64, 28
1, 333142, Control_c, 0, 64, 0
1, 333172, Control_c, 0, 64, 24
1, 333187, Control_c, 0, 64, 41
1, 333202, Control_c, 0, 64, 56
1, 333217, Control_c, 0, 64, 66
1, 333232, Control_c, 0, 64, 78
1, 333246, Control_c, 0, 64, 127
1, 333249, Note_off_c, 0, 38, 55
1, 333256, Note_on_c, 0, 46, 50
1, 333274, Note_on_c, 0, 68, 57
1, 333296, Note_off_c, 0, 46, 63
1, 333323, Note_on_c, 0, 48, 60
1, 333354, Note_on_c, 0, 66, 52
1, 333373, Note_off_c, 0, 58, 57
1, 333384, Note_off_c, 0, 48, 59
1, 333387, Note_on_c, 0, 50, 66
1, 333387, Note_off_c, 0, 66, 65
1, 333390, Note_off_c, 0, 68, 60
1, 333399, Note_on_c, 0, 65, 65
1, 333422, Note_off_c, 0, 70, 30
1, 333441, Note_on_c, 0, 51, 78
1, 333446, Note_off_c, 0, 50, 63
1, 333455, Note_on_c, 0, 66, 70
1, 333473, Note_off_c, 0, 65, 62
1, 333482, Note_on_c, 0, 68, 77
1, 333485, Note_off_c, 0, 51, 62
1, 333497, Note_on_c, 0, 53, 76
1, 333530, Note_off_c, 0, 66, 61
1, 333549, Note_on_c, 0, 71, 93
1, 333551, Note_on_c, 0, 59, 96
1, 333575, Note_off_c, 0, 53, 65
1, 333575, Note_off_c, 0, 68, 61
1, 333577, Note_on_c, 0, 57, 75
1, 333587, Note_on_c, 0, 56, 59
1, 333622, Note_on_c, 0, 68, 68
1, 333635, Note_off_c, 0, 57, 62
1, 333642, Note_off_c, 0, 59, 62
1, 333662, Note_on_c, 0, 54, 80
1, 333687, Note_on_c, 0, 66, 78
1, 333691, Note_off_c, 0, 56, 64
1, 333700, Note_off_c, 0, 71, 56
1, 333712, Note_off_c, 0, 54, 64
1, 333728, Note_on_c, 0, 53, 85
1, 333747, Note_off_c, 0, 68, 61
1, 333747, Note_on_c, 0, 65, 84
1, 333749, Note_off_c, 0, 66, 63
1, 333795, Note_on_c, 0, 66, 68
1, 333801, Note_off_c, 0, 53, 60
1, 333807, Note_on_c, 0, 51, 86
1, 333825, Note_on_c, 0, 50, 75
1, 333829, Note_on_c, 0, 68, 80
1, 333832, Note_off_c, 0, 65, 64
1, 333834, Note_off_c, 0, 51, 69
1, 333843, Note_off_c, 0, 50, 66
1, 333863, Note_off_c, 0, 66, 64
1, 333879, Note_off_c, 0, 68, 60
1, 333944, Note_on_c, 0, 68, 19
1, 333976, Note_off_c, 0, 68, 48
1, 333995, Control_c, 0, 64, 105
1, 334010, Control_c, 0, 64, 55
1, 334013, Note_on_c, 0, 39, 96
1, 334018, Note_on_c, 0, 27, 92
1, 334019, Note_on_c, 0, 69, 95
1, 334019, Note_on_c, 0, 60, 103
1, 334021, Note_on_c, 0, 72, 99
1, 334023, Note_on_c, 0, 66, 89
1, 334025, Control_c, 0, 64, 0
1, 334078, Note_on_c, 0, 37, 28
1, 334099, Control_c, 0, 64, 56
1, 334114, Control_c, 0, 64, 80
1, 334115, Note_off_c, 0, 27, 63
1, 334123, Note_off_c, 0, 37, 47
1, 334129, Control_c, 0, 64, 127
1, 334135, Note_off_c, 0, 60, 65
1, 334141, Note_off_c, 0, 39, 65
1, 334162, Note_off_c, 0, 66, 62
1, 334175, Note_off_c, 0, 69, 62
1, 334186, Note_off_c, 0, 72, 66
1, 334338, Note_on_c, 0, 69, 58
1, 334343, Note_on_c, 0, 84, 71
1, 334345, Note_on_c, 0, 81, 66
1, 334348, Note_on_c, 0, 72, 49
1, 334376, Note_off_c, 0, 72, 55
1, 334381, Note_off_c, 0, 69, 59
1, 334385, Note_off_c, 0, 81, 62
1, 334395, Note_off_c, 0, 84, 65
1, 334402, Note_on_c, 0, 78, 79
1, 334404, Note_on_c, 0, 66, 59
1, 334447, Note_off_c, 0, 66, 62
1, 334451, Note_on_c, 0, 72, 68
1, 334463, Note_on_c, 0, 81, 78
1, 334463, Note_on_c, 0, 84, 82
1, 334464, Note_on_c, 0, 69, 61
1, 334466, Note_off_c, 0, 78, 61
1, 334508, Note_on_c, 0, 77, 82
1, 334508, Note_off_c, 0, 81, 63
1, 334519, Note_off_c, 0, 72, 59
1, 334520, Control_c, 0, 64, 109
1, 334531, Note_off_c, 0, 69, 62
1, 334531, Note_on_c, 0, 65, 72
1, 334535, Control_c, 0, 64, 95
1, 334550, Control_c, 0, 64, 93
1, 334552, Note_off_c, 0, 84, 64
1, 334565, Control_c, 0, 64, 101
1, 334573, Note_on_c, 0, 78, 85
1, 334580, Control_c, 0, 64, 127
1, 334583, Note_on_c, 0, 66, 54
1, 334597, Note_off_c, 0, 77, 61
1, 334607, Note_off_c, 0, 65, 60
1, 334612, Note_on_c, 0, 84, 74
1, 334615, Note_on_c, 0, 81, 80
1, 334626, Note_off_c, 0, 78, 64
1, 334633, Note_on_c, 0, 72, 71
1, 334643, Note_off_c, 0, 66, 61
1, 334648, Note_on_c, 0, 69, 61
1, 334654, Control_c, 0, 64, 106
1, 334670, Control_c, 0, 64, 85
1, 334681, Note_on_c, 0, 76, 83
1, 334685, Control_c, 0, 64, 82
1, 334689, Note_off_c, 0, 69, 61
1, 334692, Note_off_c, 0, 72, 62
1, 334698, Note_on_c, 0, 64, 73
1, 334699, Control_c, 0, 64, 85
1, 334701, Note_off_c, 0, 81, 60
1, 334703, Note_off_c, 0, 84, 62
1, 334714, Control_c, 0, 64, 90
1, 334726, Note_on_c, 0, 77, 74
1, 334729, Control_c, 0, 64, 94
1, 334740, Note_on_c, 0, 65, 47
1, 334741, Note_off_c, 0, 76, 65
1, 334744, Control_c, 0, 64, 100
1, 334759, Control_c, 0, 64, 116
1, 334763, Note_off_c, 0, 64, 61
1, 334773, Control_c, 0, 64, 127
1, 334781, Note_off_c, 0, 77, 65
1, 334785, Note_on_c, 0, 81, 70
1, 334788, Control_c, 0, 64, 114
1, 334791, Note_on_c, 0, 84, 70
1, 334791, Note_off_c, 0, 65, 58
1, 334803, Control_c, 0, 64, 97
1, 334818, Control_c, 0, 64, 84
1, 334821, Note_on_c, 0, 72, 54
1, 334824, Note_on_c, 0, 69, 50
1, 334832, Control_c, 0, 64, 76
1, 334847, Control_c, 0, 64, 69
1, 334862, Control_c, 0, 64, 64
1, 334876, Note_off_c, 0, 69, 57
1, 334877, Note_on_c, 0, 75, 61
1, 334877, Control_c, 0, 64, 63
1, 334885, Note_off_c, 0, 72, 56
1, 334892, Control_c, 0, 64, 65
1, 334893, Note_on_c, 0, 63, 48
1, 334895, Note_off_c, 0, 84, 56
1, 334907, Control_c, 0, 64, 69
1, 334922, Control_c, 0, 64, 73
1, 334937, Control_c, 0, 64, 79
1, 334951, Control_c, 0, 64, 86
1, 334964, Note_on_c, 0, 66, 52
1, 334966, Control_c, 0, 64, 85
1, 334976, Note_off_c, 0, 63, 52
1, 334977, Note_on_c, 0, 78, 62
1, 334981, Control_c, 0, 64, 79
1, 334996, Control_c, 0, 64, 72
1, 335004, Note_off_c, 0, 81, 52
1, 335010, Control_c, 0, 64, 67
1, 335017, Note_off_c, 0, 75, 38
1, 335040, Control_c, 0, 64, 72
1, 335055, Control_c, 0, 64, 80
1, 335070, Control_c, 0, 64, 94
1, 335084, Control_c, 0, 64, 107
1, 335099, Control_c, 0, 64, 102
1, 335114, Control_c, 0, 64, 92
1, 335121, Note_off_c, 0, 78, 50
1, 335129, Control_c, 0, 64, 82
1, 335143, Control_c, 0, 64, 76
1, 335158, Control_c, 0, 64, 72
1, 335173, Control_c, 0, 64, 71
1, 335188, Control_c, 0, 64, 73
1, 335203, Control_c, 0, 64, 75
1, 335217, Control_c, 0, 64, 77
1, 335225, Note_on_c, 0, 71, 45
1, 335229, Note_off_c, 0, 66, 36
1, 335247, Control_c, 0, 64, 76
1, 335270, Control_c, 0, 64, 73
1, 335278, Note_on_c, 0, 83, 53
1, 335285, Control_c, 0, 64, 70
1, 335299, Control_c, 0, 64, 67
1, 335301, Note_on_c, 0, 75, 30
1, 335329, Control_c, 0, 64, 68
1, 335343, Control_c, 0, 64, 69
1, 335358, Control_c, 0, 64, 70
1, 335417, Control_c, 0, 64, 69
1, 335420, Note_off_c, 0, 83, 58
1, 335432, Control_c, 0, 64, 69
1, 335470, Note_on_c, 0, 79, 44
1, 335470, Note_on_c, 0, 70, 41
1, 335487, Note_off_c, 0, 75, 40
1, 335503, Note_off_c, 0, 71, 56
1, 335508, Control_c, 0, 64, 69
1, 335522, Control_c, 0, 64, 70
1, 335537, Control_c, 0, 64, 72
1, 335544, Note_off_c, 0, 70, 53
1, 335547, Note_on_c, 0, 69, 42
1, 335550, Note_on_c, 0, 78, 53
1, 335552, Control_c, 0, 64, 73
1, 335582, Control_c, 0, 64, 73
1, 335596, Control_c, 0, 64, 71
1, 335607, Note_off_c, 0, 79, 32
1, 335611, Control_c, 0, 64, 71
1, 335618, Note_off_c, 0, 69, 57
1, 335626, Note_off_c, 0, 78, 64
1, 335626, Control_c, 0, 64, 70
1, 335634, Note_on_c, 0, 84, 61
1, 335643, Note_on_c, 0, 75, 44
1, 335645, Note_on_c, 0, 72, 44
1, 335655, Control_c, 0, 64, 71
1, 335670, Control_c, 0, 64, 73
1, 335685, Control_c, 0, 64, 75
1, 335687, Note_off_c, 0, 72, 62
1, 335694, Note_off_c, 0, 84, 58
1, 335700, Note_on_c, 0, 70, 59
1, 335700, Control_c, 0, 64, 74
1, 335709, Note_off_c, 0, 75, 56
1, 335713, Note_on_c, 0, 79, 59
1, 335715, Control_c, 0, 64, 71
1, 335730, Control_c, 0, 64, 68
1, 335745, Control_c, 0, 64, 66
1, 335757, Note_on_c, 0, 69, 53
1, 335760, Control_c, 0, 64, 64
1, 335764, Note_on_c, 0, 78, 61
1, 335774, Control_c, 0, 64, 66
1, 335780, Note_off_c, 0, 70, 57
1, 335789, Control_c, 0, 64, 67
1, 335789, Note_off_c, 0, 79, 47
1, 335804, Control_c, 0, 64, 70
1, 335815, Note_off_c, 0, 69, 60
1, 335819, Control_c, 0, 64, 74
1, 335820, Note_on_c, 0, 83, 75
1, 335828, Note_off_c, 0, 78, 64
1, 335829, Note_on_c, 0, 71, 62
1, 335833, Control_c, 0, 64, 77
1, 335835, Note_on_c, 0, 75, 56
1, 335848, Control_c, 0, 64, 76
1, 335863, Control_c, 0, 64, 72
1, 335878, Control_c, 0, 64, 67
1, 335879, Note_off_c, 0, 71, 60
1, 335893, Note_on_c, 0, 70, 69
1, 335893, Control_c, 0, 64, 66
1, 335899, Note_on_c, 0, 79, 70
1, 335900, Note_off_c, 0, 83, 59
1, 335902, Note_off_c, 0, 75, 58
1, 335907, Control_c, 0, 64, 67
1, 335922, Control_c, 0, 64, 70
1, 335932, Note_on_c, 0, 69, 63
1, 335937, Control_c, 0, 64, 73
1, 335948, Note_on_c, 0, 78, 75
1, 335952, Control_c, 0, 64, 78
1, 335966, Control_c, 0, 64, 80
1, 335970, Note_off_c, 0, 70, 60
1, 335976, Note_off_c, 0, 79, 64
1, 335981, Control_c, 0, 64, 78
1, 335996, Control_c, 0, 64, 74
1, 335998, Note_on_c, 0, 84, 85
1, 336001, Note_off_c, 0, 69, 61
1, 336004, Note_on_c, 0, 72, 71
1, 336009, Note_off_c, 0, 78, 64
1, 336019, Control_c, 0, 64, 71
1, 336020, Note_on_c, 0, 75, 72
1, 336048, Control_c, 0, 64, 74
1, 336063, Control_c, 0, 64, 80
1, 336069, Note_off_c, 0, 72, 64
1, 336070, Note_on_c, 0, 79, 74
1, 336072, Note_on_c, 0, 70, 77
1, 336078, Control_c, 0, 64, 88
1, 336090, Note_off_c, 0, 75, 58
1, 336091, Note_off_c, 0, 84, 62
1, 336093, Control_c, 0, 64, 94
1, 336108, Control_c, 0, 64, 93
1, 336114, Note_on_c, 0, 69, 73
1, 336122, Control_c, 0, 64, 89
1, 336127, Note_on_c, 0, 78, 81
1, 336137, Control_c, 0, 64, 84
1, 336152, Note_off_c, 0, 70, 63
1, 336166, Control_c, 0, 64, 88
1, 336168, Note_off_c, 0, 79, 62
1, 336178, Note_off_c, 0, 69, 63
1, 336179, Note_on_c, 0, 71, 84
1, 336181, Note_on_c, 0, 83, 91
1, 336181, Control_c, 0, 64, 95
1, 336193, Note_off_c, 0, 78, 65
1, 336195, Note_on_c, 0, 75, 83
1, 336196, Control_c, 0, 64, 114
1, 336211, Control_c, 0, 64, 127
1, 336241, Note_on_c, 0, 70, 76
1, 336241, Note_off_c, 0, 71, 61
1, 336242, Note_on_c, 0, 79, 75
1, 336266, Note_off_c, 0, 75, 59
1, 336272, Note_on_c, 0, 69, 78
1, 336274, Note_off_c, 0, 83, 66
1, 336288, Note_on_c, 0, 78, 83
1, 336310, Note_off_c, 0, 79, 65
1, 336341, Note_off_c, 0, 70, 60
1, 336341, Note_off_c, 0, 78, 63
1, 336357, Note_on_c, 0, 72, 76
1, 336357, Note_on_c, 0, 84, 99
1, 336367, Note_on_c, 0, 75, 88
1, 336406, Note_on_c, 0, 82, 80
1, 336421, Note_on_c, 0, 66, 70
1, 336424, Note_off_c, 0, 72, 64
1, 336447, Note_off_c, 0, 84, 63
1, 336455, Note_on_c, 0, 81, 74
1, 336458, Note_off_c, 0, 75, 61
1, 336478, Note_off_c, 0, 81, 70
1, 336479, Note_on_c, 0, 65, 73
1, 336481, Note_off_c, 0, 69, 31
1, 336485, Note_off_c, 0, 82, 63
1, 336518, Note_off_c, 0, 66, 61
1, 336532, Note_on_c, 0, 83, 97
1, 336539, Note_on_c, 0, 71, 83
1, 336548, Note_on_c, 0, 70, 66
1, 336551, Note_on_c, 0, 75, 70
1, 336555, Note_off_c, 0, 65, 62
1, 336581, Note_on_c, 0, 79, 80
1, 336582, Note_off_c, 0, 75, 65
1, 336601, Note_off_c, 0, 71, 60
1, 336611, Note_on_c, 0, 69, 76
1, 336629, Note_off_c, 0, 83, 65
1, 336630, Note_on_c, 0, 78, 86
1, 336652, Note_off_c, 0, 79, 65
1, 336695, Note_off_c, 0, 78, 65
1, 336704, Note_on_c, 0, 75, 76
1, 336707, Note_on_c, 0, 72, 79
1, 336716, Note_on_c, 0, 84, 92
1, 336756, Note_off_c, 0, 75, 60
1, 336779, Note_on_c, 0, 82, 81
1, 336782, Note_on_c, 0, 66, 58
1, 336798, Note_off_c, 0, 69, 37
1, 336801, Note_off_c, 0, 70, 33
1, 336801, Note_off_c, 0, 72, 62
1, 336812, Note_on_c, 0, 65, 76
1, 336839, Note_off_c, 0, 66, 60
1, 336842, Note_off_c, 0, 65, 67
1, 336859, Note_on_c, 0, 81, 75
1, 336871, Note_off_c, 0, 84, 58
1, 336877, Note_on_c, 0, 80, 13
1, 336894, Note_off_c, 0, 82, 62
1, 336909, Note_off_c, 0, 81, 64
1, 336927, Note_off_c, 0, 80, 50
1, 337054, Note_on_c, 0, 29, 58
1, 337074, Note_on_c, 0, 41, 39
1, 337080, Control_c, 0, 64, 94
1, 337094, Control_c, 0, 64, 66
1, 337098, Note_on_c, 0, 83, 68
1, 337109, Control_c, 0, 64, 42
1, 337118, Note_on_c, 0, 81, 53
1, 337120, Note_on_c, 0, 71, 56
1, 337120, Note_on_c, 0, 75, 51
1, 337124, Control_c, 0, 64, 32
1, 337131, Note_on_c, 0, 78, 54
1, 337139, Control_c, 0, 64, 49
1, 337154, Control_c, 0, 64, 59
1, 337158, Note_off_c, 0, 29, 61
1, 337168, Control_c, 0, 64, 68
1, 337183, Control_c, 0, 64, 93
1, 337198, Control_c, 0, 64, 127
1, 337204, Note_off_c, 0, 41, 63
1, 337304, Note_on_c, 0, 51, 61
1, 337315, Note_off_c, 0, 71, 63
1, 337317, Note_off_c, 0, 83, 61
1, 337338, Note_off_c, 0, 81, 54
1, 337348, Note_off_c, 0, 75, 56
1, 337351, Note_off_c, 0, 78, 49
1, 337363, Note_on_c, 0, 54, 70
1, 337377, Note_off_c, 0, 51, 62
1, 337403, Note_off_c, 0, 54, 62
1, 337432, Note_on_c, 0, 57, 64
1, 337435, Note_on_c, 0, 84, 88
1, 337441, Note_on_c, 0, 72, 80
1, 337453, Note_on_c, 0, 75, 69
1, 337456, Note_on_c, 0, 78, 65
1, 337456, Note_on_c, 0, 81, 71
1, 337477, Note_off_c, 0, 57, 54
1, 337497, Note_on_c, 0, 58, 72
1, 337550, Note_on_c, 0, 59, 73
1, 337573, Note_off_c, 0, 58, 62
1, 337596, Note_off_c, 0, 59, 63
1, 337606, Note_on_c, 0, 60, 79
1, 337622, Note_off_c, 0, 72, 55
1, 337639, Note_off_c, 0, 60, 59
1, 337670, Note_on_c, 0, 63, 82
1, 337707, Note_off_c, 0, 84, 56
1, 337713, Note_on_c, 0, 66, 82
1, 337718, Note_off_c, 0, 63, 65
1, 337729, Note_on_c, 0, 64, 32
1, 337749, Note_off_c, 0, 81, 51
1, 337763, Note_off_c, 0, 64, 51
1, 337775, Note_off_c, 0, 66, 64
1, 337778, Note_on_c, 0, 69, 86
1, 337810, Note_off_c, 0, 75, 58
1, 337834, Note_on_c, 0, 70, 91
1, 337861, Note_off_c, 0, 69, 61
1, 337876, Note_on_c, 0, 71, 84
1, 337908, Note_off_c, 0, 78, 25
1, 337928, Note_off_c, 0, 70, 59
1, 337936, Note_on_c, 0, 72, 105
1, 337943, Note_on_c, 0, 83, 97
1, 337947, Note_on_c, 0, 78, 77
1, 337947, Note_on_c, 0, 81, 82
1, 337948, Note_on_c, 0, 75, 95
1, 337962, Note_off_c, 0, 71, 64
1, 338082, Note_off_c, 0, 72, 63
1, 338085, Note_on_c, 0, 71, 75
1, 338104, Note_off_c, 0, 83, 59
1, 338120, Note_off_c, 0, 75, 60
1, 338135, Note_off_c, 0, 81, 63
1, 338141, Note_off_c, 0, 78, 63
1, 338142, Note_on_c, 0, 70, 77
1, 338153, Note_off_c, 0, 71, 62
1, 338172, Note_off_c, 0, 70, 63
1, 338198, Note_on_c, 0, 84, 98
1, 338201, Note_on_c, 0, 75, 94
1, 338205, Note_on_c, 0, 72, 95
1, 338205, Note_on_c, 0, 78, 77
1, 338207, Note_on_c, 0, 81, 73
1, 338212, Note_on_c, 0, 69, 79
1, 338279, Note_off_c, 0, 69, 60
1, 338291, Note_on_c, 0, 66, 77
1, 338341, Note_on_c, 0, 63, 74
1, 338344, Note_off_c, 0, 66, 62
1, 338365, Note_off_c, 0, 63, 68
1, 338415, Note_on_c, 0, 60, 70
1, 338444, Note_off_c, 0, 72, 56
1, 338466, Note_off_c, 0, 60, 63
1, 338470, Note_on_c, 0, 59, 74
1, 338525, Note_on_c, 0, 58, 68
1, 338527, Note_off_c, 0, 59, 63
1, 338548, Note_off_c, 0, 84, 49
1, 338554, Note_off_c, 0, 58, 65
1, 338588, Note_on_c, 0, 57, 73
1, 338635, Note_off_c, 0, 81, 30
1, 338641, Note_off_c, 0, 75, 47
1, 338667, Note_off_c, 0, 57, 63
1, 338674, Note_on_c, 0, 54, 70
1, 338746, Note_on_c, 0, 51, 68
1, 338759, Note_off_c, 0, 54, 62
1, 338781, Note_off_c, 0, 78, 26
1, 338789, Note_off_c, 0, 51, 61
1, 339009, Note_on_c, 0, 41, 47
1, 339022, Note_on_c, 0, 29, 49
1, 339073, Control_c, 0, 64, 92
1, 339088, Control_c, 0, 64, 67
1, 339103, Control_c, 0, 64, 36
1, 339104, Note_on_c, 0, 83, 53
1, 339115, Note_on_c, 0, 81, 50
1, 339118, Control_c, 0, 64, 0
1, 339133, Control_c, 0, 64, 19
1, 339147, Control_c, 0, 64, 43
1, 339162, Control_c, 0, 64, 61
1, 339168, Note_off_c, 0, 29, 54
1, 339177, Control_c, 0, 64, 72
1, 339191, Control_c, 0, 64, 102
1, 339206, Control_c, 0, 64, 127
1, 339213, Note_off_c, 0, 41, 64
1, 339295, Note_off_c, 0, 83, 59
1, 339310, Note_on_c, 0, 75, 38
1, 339318, Note_off_c, 0, 81, 53
1, 339329, Note_on_c, 0, 51, 44
1, 339351, Note_on_c, 0, 71, 51
1, 339352, Note_off_c, 0, 75, 47
1, 339359, Note_off_c, 0, 51, 52
1, 339393, Note_on_c, 0, 53, 54
1, 339401, Note_off_c, 0, 71, 57
1, 339434, Note_on_c, 0, 84, 68
1, 339437, Note_on_c, 0, 81, 46
1, 339448, Note_off_c, 0, 53, 60
1, 339467, Note_on_c, 0, 54, 54
1, 339515, Note_on_c, 0, 75, 53
1, 339517, Note_on_c, 0, 56, 62
1, 339525, Note_off_c, 0, 54, 58
1, 339526, Note_off_c, 0, 84, 62
1, 339555, Note_off_c, 0, 56, 65
1, 339562, Note_off_c, 0, 81, 63
1, 339569, Note_on_c, 0, 57, 62
1, 339577, Note_on_c, 0, 72, 59
1, 339606, Note_off_c, 0, 75, 62
1, 339611, Note_off_c, 0, 57, 55
1, 339625, Note_off_c, 0, 72, 51
1, 339632, Note_on_c, 0, 83, 86
1, 339636, Note_on_c, 0, 81, 66
1, 339639, Note_on_c, 0, 59, 63
1, 339688, Note_off_c, 0, 59, 61
1, 339690, Note_on_c, 0, 60, 62
1, 339709, Note_on_c, 0, 75, 73
1, 339718, Note_off_c, 0, 60, 66
1, 339723, Note_off_c, 0, 83, 59
1, 339737, Note_on_c, 0, 71, 73
1, 339742, Note_on_c, 0, 62, 60
1, 339749, Note_off_c, 0, 81, 64
1, 339781, Note_off_c, 0, 62, 64
1, 339784, Note_off_c, 0, 75, 61
1, 339802, Note_off_c, 0, 71, 62
1, 339809, Note_on_c, 0, 63, 73
1, 339814, Note_on_c, 0, 81, 72
1, 339821, Note_on_c, 0, 84, 96
1, 339836, Note_off_c, 0, 63, 68
1, 339865, Note_on_c, 0, 65, 73
1, 339883, Note_on_c, 0, 75, 83
1, 339894, Note_off_c, 0, 81, 63
1, 339896, Note_off_c, 0, 65, 66
1, 339911, Note_off_c, 0, 84, 62
1, 339919, Note_on_c, 0, 72, 60
1, 339923, Note_off_c, 0, 75, 59
1, 339948, Note_off_c, 0, 72, 66
1, 340015, Control_c, 0, 64, 96
1, 340022, Note_on_c, 0, 90, 82
1, 340024, Note_on_c, 0, 41, 71
1, 340030, Control_c, 0, 64, 72
1, 340045, Control_c, 0, 64, 67
1, 340060, Control_c, 0, 64, 73
1, 340075, Control_c, 0, 64, 97
1, 340089, Control_c, 0, 64, 127
1, 340094, Note_off_c, 0, 41, 62
1, 340103, Note_on_c, 0, 51, 78
1, 340127, Note_off_c, 0, 90, 63
1, 340129, Note_on_c, 0, 80, 64
1, 340133, Poly_aftertouch_c, 0, 83, 127
1, 340150, Note_off_c, 0, 51, 62
1, 340150, Poly_aftertouch_c, 0, 84, 0
1, 340160, Note_on_c, 0, 53, 69
1, 340162, Note_off_c, 0, 80, 65
1, 340170, Poly_aftertouch_c, 0, 83, 0
1, 340173, Note_on_c, 0, 79, 53
1, 340192, Note_off_c, 0, 79, 63
1, 340203, Poly_aftertouch_c, 0, 82, 0
1, 340222, Note_on_c, 0, 89, 92
1, 340231, Note_off_c, 0, 53, 58
1, 340232, Note_on_c, 0, 83, 61
1, 340242, Note_on_c, 0, 54, 51
1, 340260, Note_on_c, 0, 55, 59
1, 340276, Note_on_c, 0, 80, 71
1, 340279, Note_off_c, 0, 54, 51
1, 340304, Note_off_c, 0, 55, 62
1, 340311, Note_on_c, 0, 57, 58
1, 340311, Note_off_c, 0, 89, 60
1, 340325, Note_on_c, 0, 77, 79
1, 340348, Note_off_c, 0, 80, 62
1, 340377, Note_off_c, 0, 57, 63
1, 340382, Note_off_c, 0, 83, 0
1, 340391, Note_off_c, 0, 77, 64
1, 340401, Note_on_c, 0, 83, 52
1, 340402, Note_on_c, 0, 88, 100
1, 340407, Note_on_c, 0, 59, 77
1, 340446, Note_on_c, 0, 60, 70
1, 340453, Note_on_c, 0, 80, 85
1, 340455, Note_off_c, 0, 59, 64
1, 340475, Note_off_c, 0, 60, 67
1, 340490, Note_off_c, 0, 88, 63
1, 340497, Note_on_c, 0, 76, 74
1, 340502, Note_on_c, 0, 62, 71
1, 340503, Note_off_c, 0, 83, 65
1, 340535, Note_off_c, 0, 80, 64
1, 340538, Note_off_c, 0, 62, 65
1, 340571, Note_off_c, 0, 76, 63
1, 340584, Note_on_c, 0, 87, 95
1, 340587, Note_on_c, 0, 83, 72
1, 340595, Note_on_c, 0, 63, 37
1, 340611, Note_on_c, 0, 64, 26
1, 340624, Note_on_c, 0, 65, 72
1, 340625, Note_off_c, 0, 63, 53
1, 340636, Note_on_c, 0, 80, 85
1, 340645, Note_off_c, 0, 64, 52
1, 340648, Note_off_c, 0, 65, 67
1, 340666, Note_on_c, 0, 66, 43
1, 340684, Note_off_c, 0, 83, 63
1, 340690, Note_off_c, 0, 87, 63
1, 340691, Note_on_c, 0, 75, 78
1, 340694, Note_off_c, 0, 66, 56
1, 340711, Note_off_c, 0, 80, 62
1, 340741, Note_off_c, 0, 75, 64
1, 340764, Control_c, 0, 64, 89
1, 340779, Note_on_c, 0, 29, 84
1, 340779, Control_c, 0, 64, 61
1, 340788, Note_on_c, 0, 41, 68
1, 340794, Control_c, 0, 64, 33
1, 340795, Note_on_c, 0, 83, 80
1, 340805, Note_off_c, 0, 29, 62
1, 340809, Control_c, 0, 64, 60
1, 340811, Note_on_c, 0, 81, 69
1, 340823, Note_off_c, 0, 41, 65
1, 340824, Control_c, 0, 64, 72
1, 340838, Control_c, 0, 64, 127
1, 340878, Note_on_c, 0, 75, 67
1, 340889, Note_off_c, 0, 83, 57
1, 340905, Note_off_c, 0, 81, 59
1, 340906, Note_on_c, 0, 71, 68
1, 340919, Note_on_c, 0, 51, 71
1, 340940, Note_off_c, 0, 51, 64
1, 340946, Note_off_c, 0, 75, 61
1, 340969, Note_off_c, 0, 71, 64
1, 340979, Note_on_c, 0, 53, 68
1, 340985, Note_on_c, 0, 81, 72
1, 340989, Note_on_c, 0, 84, 86
1, 341021, Note_off_c, 0, 53, 63
1, 341030, Note_on_c, 0, 54, 76
1, 341059, Note_on_c, 0, 75, 83
1, 341078, Note_off_c, 0, 84, 63
1, 341080, Note_on_c, 0, 56, 72
1, 341104, Note_off_c, 0, 81, 62
1, 341108, Note_off_c, 0, 54, 63
1, 341111, Note_on_c, 0, 72, 79
1, 341123, Note_on_c, 0, 57, 79
1, 341125, Note_off_c, 0, 56, 63
1, 341127, Poly_aftertouch_c, 0, 79, 127
1, 341140, Note_off_c, 0, 75, 61
1, 341161, Poly_aftertouch_c, 0, 79, 0
1, 341179, Note_on_c, 0, 83, 97
1, 341183, Note_on_c, 0, 81, 79
1, 341188, Note_on_c, 0, 59, 81
1, 341190, Note_off_c, 0, 57, 60
1, 341194, Note_off_c, 0, 72, 64
1, 341232, Note_on_c, 0, 60, 74
1, 341244, Note_on_c, 0, 75, 89
1, 341247, Note_off_c, 0, 59, 66
1, 341279, Note_off_c, 0, 83, 63
1, 341287, Note_off_c, 0, 60, 65
1, 341294, Note_on_c, 0, 71, 88
1, 341298, Note_on_c, 0, 62, 73
1, 341299, Note_off_c, 0, 81, 63
1, 341325, Note_off_c, 0, 62, 65
1, 341325, Note_off_c, 0, 75, 64
1, 341347, Note_off_c, 0, 71, 63
1, 341356, Note_on_c, 0, 80, 88
1, 341361, Note_on_c, 0, 63, 85
1, 341364, Note_on_c, 0, 84, 99
1, 341379, Note_on_c, 0, 79, 38
1, 341387, Note_off_c, 0, 63, 65
1, 341396, Note_on_c, 0, 81, 63
1, 341411, Note_on_c, 0, 65, 80
1, 341418, Note_on_c, 0, 75, 92
1, 341420, Note_off_c, 0, 79, 0
1, 341439, Note_on_c, 0, 79, 25
1, 341444, Note_off_c, 0, 65, 61
1, 341444, Note_off_c, 0, 80, 48
1, 341446, Note_off_c, 0, 81, 56
1, 341453, Note_on_c, 0, 72, 78
1, 341459, Note_off_c, 0, 84, 60
1, 341461, Note_off_c, 0, 75, 64
1, 341468, Note_off_c, 0, 79, 54
1, 341478, Note_off_c, 0, 72, 70
1, 341542, Control_c, 0, 64, 73
1, 341543, Note_on_c, 0, 90, 97
1, 341548, Note_on_c, 0, 41, 77
1, 341557, Control_c, 0, 64, 47
1, 341561, Note_on_c, 0, 83, 76
1, 341572, Control_c, 0, 64, 56
1, 341586, Control_c, 0, 64, 70
1, 341601, Control_c, 0, 64, 122
1, 341615, Note_on_c, 0, 80, 79
1, 341616, Control_c, 0, 64, 127
1, 341618, Note_off_c, 0, 41, 61
1, 341623, Note_on_c, 0, 51, 86
1, 341647, Note_off_c, 0, 90, 63
1, 341662, Note_off_c, 0, 51, 61
1, 341668, Note_on_c, 0, 79, 74
1, 341668, Note_off_c, 0, 83, 62
1, 341673, Note_off_c, 0, 80, 63
1, 341677, Note_on_c, 0, 53, 71
1, 341693, Note_off_c, 0, 79, 71
1, 341733, Note_on_c, 0, 89, 104
1, 341735, Note_on_c, 0, 54, 81
1, 341739, Note_on_c, 0, 83, 80
1, 341739, Note_off_c, 0, 53, 60
1, 341771, Note_on_c, 0, 80, 82
1, 341787, Note_on_c, 0, 56, 78
1, 341819, Note_off_c, 0, 54, 65
1, 341821, Note_off_c, 0, 89, 61
1, 341834, Note_on_c, 0, 77, 88
1, 341836, Note_on_c, 0, 57, 79
1, 341844, Note_off_c, 0, 56, 63
1, 341852, Note_off_c, 0, 80, 64
1, 341864, Note_off_c, 0, 83, 61
1, 341872, Note_off_c, 0, 57, 61
1, 341903, Note_on_c, 0, 59, 83
1, 341906, Note_on_c, 0, 88, 97
1, 341909, Note_on_c, 0, 83, 70
1, 341918, Note_off_c, 0, 77, 45
1, 341943, Note_on_c, 0, 60, 76
1, 341960, Note_on_c, 0, 80, 88
1, 341961, Note_off_c, 0, 59, 65
1, 341989, Note_off_c, 0, 60, 65
1, 341996, Note_on_c, 0, 62, 77
1, 341997, Note_off_c, 0, 88, 65
1, 342022, Note_on_c, 0, 76, 84
1, 342027, Note_off_c, 0, 83, 63
1, 342037, Note_off_c, 0, 62, 61
1, 342043, Note_off_c, 0, 80, 64
1, 342080, Note_on_c, 0, 63, 82
1, 342092, Note_on_c, 0, 83, 72
1, 342094, Note_off_c, 0, 76, 58
1, 342095, Note_on_c, 0, 87, 92
1, 342108, Note_off_c, 0, 63, 62
1, 342137, Note_on_c, 0, 65, 80
1, 342149, Note_on_c, 0, 80, 84
1, 342194, Note_off_c, 0, 65, 61
1, 342199, Note_off_c, 0, 87, 63
1, 342202, Note_on_c, 0, 66, 68
1, 342211, Note_off_c, 0, 83, 58
1, 342216, Note_on_c, 0, 75, 79
1, 342231, Note_off_c, 0, 66, 65
1, 342236, Note_off_c, 0, 80, 62
1, 342266, Note_off_c, 0, 75, 63
1, 342428, Note_on_c, 0, 41, 56
1, 342454, Control_c, 0, 64, 94
1, 342469, Control_c, 0, 64, 68
1, 342473, Note_on_c, 0, 73, 78
1, 342481, Note_on_c, 0, 61, 70
1, 342484, Control_c, 0, 64, 38
1, 342499, Control_c, 0, 64, 0
1, 342544, Control_c, 0, 64, 40
1, 342558, Control_c, 0, 64, 59
1, 342573, Control_c, 0, 64, 73
1, 342588, Control_c, 0, 64, 127
1, 342625, Note_off_c, 0, 41, 58
1, 342626, Note_on_c, 0, 49, 57
1, 342628, Note_on_c, 0, 71, 63
1, 342657, Note_off_c, 0, 61, 60
1, 342681, Note_on_c, 0, 51, 54
1, 342692, Note_off_c, 0, 73, 59
1, 342702, Note_off_c, 0, 49, 61
1, 342707, Note_on_c, 0, 69, 55
1, 342714, Note_off_c, 0, 51, 65
1, 342720, Note_on_c, 0, 53, 68
1, 342736, Note_off_c, 0, 71, 62
1, 342740, Note_off_c, 0, 69, 65
1, 342756, Note_on_c, 0, 68, 78
1, 342801, Note_on_c, 0, 54, 78
1, 342802, Note_off_c, 0, 53, 63
1, 342818, Note_on_c, 0, 69, 76
1, 342841, Note_off_c, 0, 68, 60
1, 342849, Note_on_c, 0, 56, 76
1, 342852, Note_on_c, 0, 71, 80
1, 342878, Note_off_c, 0, 54, 61
1, 342889, Note_off_c, 0, 69, 62
1, 342920, Note_on_c, 0, 61, 85
1, 342926, Note_on_c, 0, 62, 94
1, 342926, Note_on_c, 0, 74, 96
1, 342932, Note_off_c, 0, 56, 61
1, 342949, Note_off_c, 0, 71, 61
1, 342965, Note_off_c, 0, 61, 63
1, 342994, Note_on_c, 0, 59, 73
1, 343003, Note_on_c, 0, 71, 75
1, 343029, Note_off_c, 0, 62, 59
1, 343048, Note_off_c, 0, 74, 59
1, 343064, Note_on_c, 0, 69, 78
1, 343066, Note_off_c, 0, 59, 63
1, 343067, Note_on_c, 0, 57, 83
1, 343110, Note_off_c, 0, 71, 62
1, 343115, Note_on_c, 0, 68, 88
1, 343118, Note_off_c, 0, 69, 64
1, 343129, Note_on_c, 0, 56, 79
1, 343131, Note_off_c, 0, 57, 58
1, 343161, Note_on_c, 0, 55, 73
1, 343167, Note_off_c, 0, 56, 61
1, 343176, Note_on_c, 0, 69, 79
1, 343210, Note_off_c, 0, 68, 61
1, 343212, Note_on_c, 0, 71, 90
1, 343219, Note_off_c, 0, 55, 64
1, 343221, Note_on_c, 0, 53, 75
1, 343230, Note_off_c, 0, 69, 66
1, 343251, Note_off_c, 0, 53, 67
1, 343251, Note_off_c, 0, 71, 65
1, 343395, Control_c, 0, 64, 93
1, 343407, Note_on_c, 0, 42, 98
1, 343410, Control_c, 0, 64, 18
1, 343412, Note_on_c, 0, 69, 79
1, 343412, Note_on_c, 0, 75, 102
1, 343414, Note_on_c, 0, 30, 92
1, 343414, Note_on_c, 0, 63, 98
1, 343417, Note_on_c, 0, 72, 79
1, 343424, Control_c, 0, 64, 0
1, 343449, Note_on_c, 0, 31, 36
1, 343466, Note_on_c, 0, 74, 37
1, 343485, Control_c, 0, 64, 56
1, 343490, Note_off_c, 0, 31, 51
1, 343507, Control_c, 0, 64, 82
1, 343511, Note_off_c, 0, 30, 64
1, 343515, Note_off_c, 0, 63, 64
1, 343516, Note_off_c, 0, 74, 44
1, 343522, Control_c, 0, 64, 127
1, 343536, Note_off_c, 0, 42, 65
1, 343546, Note_off_c, 0, 69, 64
1, 343549, Note_off_c, 0, 72, 64
1, 343568, Note_off_c, 0, 75, 64
1, 343695, Note_on_c, 0, 84, 72
1, 343696, Note_on_c, 0, 87, 74
1, 343705, Note_on_c, 0, 72, 54
1, 343710, Note_on_c, 0, 75, 60
1, 343730, Note_off_c, 0, 75, 60
1, 343748, Note_on_c, 0, 69, 73
1, 343751, Note_on_c, 0, 80, 81
1, 343756, Note_off_c, 0, 84, 63
1, 343758, Note_off_c, 0, 72, 56
1, 343759, Note_off_c, 0, 87, 63
1, 343796, Note_on_c, 0, 81, 65
1, 343799, Note_off_c, 0, 80, 64
1, 343811, Note_on_c, 0, 75, 67
1, 343823, Note_on_c, 0, 87, 76
1, 343835, Note_off_c, 0, 81, 65
1, 343840, Note_on_c, 0, 85, 64
1, 343844, Note_on_c, 0, 72, 32
1, 343847, Note_on_c, 0, 84, 56
1, 343853, Note_off_c, 0, 75, 60
1, 343857, Note_on_c, 0, 83, 46
1, 343865, Note_on_c, 0, 68, 57
1, 343870, Note_off_c, 0, 84, 63
1, 343872, Note_off_c, 0, 85, 65
1, 343877, Note_off_c, 0, 72, 55
1, 343880, Note_off_c, 0, 83, 58
1, 343886, Note_on_c, 0, 81, 60
1, 343897, Note_off_c, 0, 87, 62
1, 343900, Note_off_c, 0, 69, 61
1, 343905, Note_off_c, 0, 68, 61
1, 343906, Note_on_c, 0, 80, 39
1, 343925, Note_on_c, 0, 75, 61
1, 343927, Note_on_c, 0, 87, 63
1, 343927, Note_off_c, 0, 81, 65
1, 343936, Note_off_c, 0, 80, 54
1, 343939, Note_on_c, 0, 84, 73
1, 343962, Note_off_c, 0, 75, 61
1, 343976, Note_on_c, 0, 72, 15
1, 343978, Note_on_c, 0, 67, 70
1, 343993, Note_on_c, 0, 79, 81
1, 343994, Note_off_c, 0, 84, 63
1, 344002, Note_off_c, 0, 87, 64
1, 344014, Note_off_c, 0, 67, 62
1, 344041, Note_on_c, 0, 75, 68
1, 344049, Note_off_c, 0, 79, 61
1, 344067, Note_on_c, 0, 84, 70
1, 344069, Note_on_c, 0, 87, 65
1, 344073, Note_off_c, 0, 75, 55
1, 344100, Note_on_c, 0, 66, 70
1, 344139, Note_on_c, 0, 78, 72
1, 344181, Note_on_c, 0, 75, 61
1, 344223, Note_on_c, 0, 69, 63
1, 344229, Note_off_c, 0, 75, 58
1, 344231, Note_on_c, 0, 81, 60
1, 344231, Note_off_c, 0, 87, 55
1, 344270, Note_off_c, 0, 84, 59
1, 344271, Note_off_c, 0, 66, 50
1, 344274, Note_off_c, 0, 78, 52
1, 344279, Note_off_c, 0, 72, 45
1, 344288, Note_off_c, 0, 69, 61
1, 344314, Note_off_c, 0, 81, 64
1, 344574, Note_on_c, 0, 41, 52
1, 344628, Note_on_c, 0, 73, 76
1, 344640, Note_on_c, 0, 61, 64
1, 344657, Control_c, 0, 64, 83
1, 344672, Control_c, 0, 64, 63
1, 344686, Control_c, 0, 64, 22
1, 344701, Control_c, 0, 64, 0
1, 344731, Control_c, 0, 64, 15
1, 344746, Control_c, 0, 64, 44
1, 344760, Control_c, 0, 64, 60
1, 344775, Control_c, 0, 64, 71
1, 344790, Control_c, 0, 64, 98
1, 344804, Control_c, 0, 64, 127
1, 344812, Note_off_c, 0, 41, 54
1, 344816, Note_on_c, 0, 71, 63
1, 344826, Note_on_c, 0, 49, 51
1, 344859, Note_off_c, 0, 61, 54
1, 344875, Note_on_c, 0, 51, 57
1, 344883, Note_off_c, 0, 73, 60
1, 344905, Note_on_c, 0, 69, 54
1, 344906, Note_off_c, 0, 49, 60
1, 344913, Note_off_c, 0, 51, 63
1, 344925, Note_on_c, 0, 53, 63
1, 344935, Note_off_c, 0, 71, 62
1, 344938, Note_off_c, 0, 69, 65
1, 344947, Note_on_c, 0, 68, 72
1, 345004, Note_off_c, 0, 53, 61
1, 345005, Note_on_c, 0, 54, 78
1, 345020, Note_on_c, 0, 69, 72
1, 345036, Note_off_c, 0, 68, 59
1, 345050, Note_on_c, 0, 71, 77
1, 345066, Note_on_c, 0, 56, 73
1, 345083, Note_off_c, 0, 69, 62
1, 345087, Note_off_c, 0, 54, 61
1, 345119, Note_on_c, 0, 62, 99
1, 345119, Note_on_c, 0, 74, 99
1, 345121, Note_on_c, 0, 61, 81
1, 345136, Note_off_c, 0, 56, 64
1, 345149, Note_off_c, 0, 71, 60
1, 345168, Note_off_c, 0, 61, 60
1, 345179, Note_on_c, 0, 71, 61
1, 345182, Note_on_c, 0, 59, 77
1, 345225, Note_off_c, 0, 62, 60
1, 345251, Note_off_c, 0, 74, 60
1, 345255, Note_on_c, 0, 69, 75
1, 345256, Note_off_c, 0, 59, 62
1, 345265, Note_on_c, 0, 57, 83
1, 345302, Note_off_c, 0, 71, 63
1, 345306, Note_on_c, 0, 68, 84
1, 345310, Note_off_c, 0, 69, 64
1, 345335, Note_on_c, 0, 54, 83
1, 345352, Note_off_c, 0, 54, 67
1, 345358, Note_off_c, 0, 57, 59
1, 345360, Note_on_c, 0, 55, 70
1, 345379, Note_on_c, 0, 69, 83
1, 345394, Note_off_c, 0, 55, 65
1, 345398, Note_on_c, 0, 71, 94
1, 345401, Note_off_c, 0, 68, 60
1, 345410, Note_on_c, 0, 53, 77
1, 345416, Note_off_c, 0, 69, 64
1, 345439, Note_off_c, 0, 71, 66
1, 345439, Note_off_c, 0, 53, 67
1, 345569, Control_c, 0, 64, 78
1, 345583, Control_c, 0, 64, 0
1, 345584, Note_on_c, 0, 42, 105
1, 345587, Note_on_c, 0, 69, 83
1, 345590, Note_on_c, 0, 30, 93
1, 345591, Note_on_c, 0, 63, 99
1, 345591, Note_on_c, 0, 75, 98
1, 345593, Note_on_c, 0, 72, 80
1, 345629, Note_on_c, 0, 31, 14
1, 345642, Control_c, 0, 64, 46
1, 345657, Control_c, 0, 64, 93
1, 345661, Note_off_c, 0, 30, 64
1, 345663, Note_off_c, 0, 63, 65
1, 345672, Control_c, 0, 64, 127
1, 345677, Note_off_c, 0, 31, 40
1, 345688, Note_off_c, 0, 42, 64
1, 345690, Note_off_c, 0, 69, 61
1, 345699, Note_off_c, 0, 72, 65
1, 345716, Note_off_c, 0, 75, 64
1, 345868, Note_on_c, 0, 72, 60
1, 345869, Note_on_c, 0, 84, 67
1, 345873, Note_on_c, 0, 75, 64
1, 345874, Note_on_c, 0, 87, 66
1, 345901, Note_off_c, 0, 72, 64
1, 345906, Note_off_c, 0, 75, 55
1, 345915, Note_on_c, 0, 69, 72
1, 345924, Note_on_c, 0, 80, 67
1, 345928, Note_off_c, 0, 84, 64
1, 345928, Note_off_c, 0, 87, 64
1, 345954, Note_off_c, 0, 80, 65
1, 345965, Note_on_c, 0, 81, 71
1, 345991, Note_on_c, 0, 72, 58
1, 345991, Note_on_c, 0, 75, 71
1, 345992, Note_off_c, 0, 69, 55
1, 345994, Note_on_c, 0, 87, 79
1, 346002, Note_on_c, 0, 84, 74
1, 346002, Note_off_c, 0, 81, 63
1, 346017, Note_off_c, 0, 75, 67
1, 346024, Note_on_c, 0, 68, 67
1, 346045, Note_off_c, 0, 72, 56
1, 346051, Note_on_c, 0, 80, 68
1, 346053, Note_off_c, 0, 84, 64
1, 346069, Note_off_c, 0, 87, 63
1, 346076, Note_on_c, 0, 81, 66
1, 346077, Note_off_c, 0, 80, 68
1, 346082, Note_off_c, 0, 68, 56
1, 346100, Note_on_c, 0, 75, 69
1, 346103, Note_on_c, 0, 87, 70
1, 346111, Note_off_c, 0, 81, 65
1, 346115, Note_on_c, 0, 72, 24
1, 346115, Note_on_c, 0, 84, 74
1, 346125, Note_off_c, 0, 75, 65
1, 346151, Note_on_c, 0, 67, 67
1, 346175, Note_on_c, 0, 79, 83
1, 346179, Note_off_c, 0, 84, 64
1, 346181, Note_off_c, 0, 87, 64
1, 346190, Note_on_c, 0, 80, 53
1, 346195, Note_off_c, 0, 67, 56
1, 346225, Note_off_c, 0, 79, 64
1, 346228, Note_on_c, 0, 75, 56
1, 346231, Poly_aftertouch_c, 0, 86, 0
1, 346243, Note_on_c, 0, 87, 61
1, 346255, Note_on_c, 0, 84, 55
1, 346256, Note_off_c, 0, 75, 53
1, 346263, Note_on_c, 0, 83, 52
1, 346266, Note_off_c, 0, 80, 64
1, 346277, Note_on_c, 0, 66, 71
1, 346285, Note_on_c, 0, 85, 43
1, 346318, Note_on_c, 0, 78, 74
1, 346398, Note_on_c, 0, 69, 61
1, 346417, Note_on_c, 0, 81, 59
1, 346439, Note_off_c, 0, 72, 43
1, 346444, Note_off_c, 0, 83, 59
1, 346446, Note_off_c, 0, 84, 58
1, 346450, Note_off_c, 0, 87, 55
1, 346452, Note_off_c, 0, 78, 52
1, 346477, Note_off_c, 0, 85, 39
1, 346485, Note_off_c, 0, 66, 36
1, 346510, Note_off_c, 0, 81, 62
1, 346749, Note_on_c, 0, 71, 42
1, 346774, Note_off_c, 0, 69, 35
1, 346800, Control_c, 0, 64, 117
1, 346807, Note_on_c, 0, 83, 64
1, 346815, Control_c, 0, 64, 95
1, 346829, Control_c, 0, 64, 82
1, 346844, Control_c, 0, 64, 73
1, 346847, Note_on_c, 0, 75, 33
1, 346859, Control_c, 0, 64, 67
1, 346873, Control_c, 0, 64, 65
1, 346888, Control_c, 0, 64, 63
1, 346903, Control_c, 0, 64, 61
1, 346933, Control_c, 0, 64, 62
1, 346947, Control_c, 0, 64, 63
1, 346962, Control_c, 0, 64, 66
1, 346977, Control_c, 0, 64, 68
1, 346992, Control_c, 0, 64, 72
1, 347002, Note_on_c, 0, 70, 41
1, 347007, Control_c, 0, 64, 78
1, 347009, Note_off_c, 0, 83, 58
1, 347015, Note_on_c, 0, 79, 48
1, 347021, Control_c, 0, 64, 87
1, 347036, Control_c, 0, 64, 93
1, 347041, Note_off_c, 0, 71, 52
1, 347051, Control_c, 0, 64, 89
1, 347053, Note_off_c, 0, 75, 38
1, 347066, Control_c, 0, 64, 82
1, 347081, Control_c, 0, 64, 75
1, 347093, Note_on_c, 0, 69, 44
1, 347096, Control_c, 0, 64, 69
1, 347111, Control_c, 0, 64, 68
1, 347126, Note_on_c, 0, 78, 45
1, 347126, Control_c, 0, 64, 71
1, 347138, Note_off_c, 0, 70, 37
1, 347141, Control_c, 0, 64, 77
1, 347155, Control_c, 0, 64, 86
1, 347170, Control_c, 0, 64, 96
1, 347173, Note_on_c, 0, 84, 75
1, 347176, Note_off_c, 0, 79, 30
1, 347176, Note_off_c, 0, 69, 54
1, 347179, Note_off_c, 0, 78, 64
1, 347185, Control_c, 0, 64, 96
1, 347194, Note_on_c, 0, 72, 46
1, 347200, Control_c, 0, 64, 89
1, 347200, Note_on_c, 0, 75, 44
1, 347215, Control_c, 0, 64, 81
1, 347229, Control_c, 0, 64, 74
1, 347240, Note_off_c, 0, 72, 61
1, 347260, Note_on_c, 0, 70, 59
1, 347266, Control_c, 0, 64, 79
1, 347267, Note_off_c, 0, 84, 60
1, 347274, Note_on_c, 0, 79, 63
1, 347281, Control_c, 0, 64, 87
1, 347288, Note_off_c, 0, 75, 52
1, 347296, Control_c, 0, 64, 100
1, 347311, Control_c, 0, 64, 127
1, 347314, Note_on_c, 0, 69, 60
1, 347331, Note_on_c, 0, 78, 62
1, 347348, Note_off_c, 0, 70, 56
1, 347373, Note_off_c, 0, 79, 61
1, 347384, Note_on_c, 0, 83, 85
1, 347385, Note_off_c, 0, 69, 61
1, 347388, Note_on_c, 0, 71, 66
1, 347397, Note_off_c, 0, 78, 64
1, 347409, Note_on_c, 0, 75, 64
1, 347456, Note_off_c, 0, 71, 62
1, 347457, Note_on_c, 0, 70, 71
1, 347463, Note_on_c, 0, 79, 67
1, 347477, Note_off_c, 0, 75, 59
1, 347485, Note_off_c, 0, 83, 61
1, 347500, Note_on_c, 0, 69, 70
1, 347510, Note_on_c, 0, 78, 72
1, 347540, Note_off_c, 0, 79, 65
1, 347540, Note_off_c, 0, 70, 63
1, 347564, Note_on_c, 0, 84, 94
1, 347566, Note_off_c, 0, 69, 61
1, 347568, Note_on_c, 0, 72, 77
1, 347577, Note_on_c, 0, 75, 84
1, 347577, Note_off_c, 0, 78, 63
1, 347635, Note_on_c, 0, 70, 78
1, 347636, Note_on_c, 0, 79, 75
1, 347640, Note_off_c, 0, 72, 64
1, 347658, Note_off_c, 0, 75, 60
1, 347667, Note_off_c, 0, 84, 62
1, 347677, Note_on_c, 0, 69, 72
1, 347686, Note_on_c, 0, 78, 81
1, 347719, Note_off_c, 0, 79, 62
1, 347730, Note_off_c, 0, 70, 62
1, 347742, Note_on_c, 0, 83, 99
1, 347748, Note_on_c, 0, 71, 83
1, 347749, Note_off_c, 0, 69, 61
1, 347755, Note_on_c, 0, 75, 88
1, 347757, Note_off_c, 0, 78, 64
1, 347808, Note_on_c, 0, 79, 74
1, 347817, Note_on_c, 0, 70, 75
1, 347817, Note_off_c, 0, 71, 63
1, 347831, Note_off_c, 0, 75, 56
1, 347834, Note_on_c, 0, 69, 74
1, 347841, Note_off_c, 0, 83, 67
1, 347844, Note_on_c, 0, 78, 80
1, 347865, Note_off_c, 0, 79, 65
1, 347894, Note_off_c, 0, 78, 64
1, 347915, Note_off_c, 0, 70, 58
1, 347919, Note_on_c, 0, 84, 102
1, 347920, Note_on_c, 0, 72, 84
1, 347927, Note_on_c, 0, 75, 92
1, 347941, Note_off_c, 0, 69, 51
1, 347978, Note_on_c, 0, 82, 75
1, 347990, Note_on_c, 0, 66, 64
1, 348012, Note_off_c, 0, 72, 61
1, 348020, Note_off_c, 0, 84, 60
1, 348023, Note_on_c, 0, 81, 74
1, 348025, Note_off_c, 0, 75, 59
1, 348045, Note_on_c, 0, 65, 77
1, 348046, Note_off_c, 0, 81, 69
1, 348053, Note_off_c, 0, 82, 63
1, 348095, Note_off_c, 0, 66, 60
1, 348102, Note_on_c, 0, 83, 99
1, 348118, Note_on_c, 0, 75, 80
1, 348121, Note_on_c, 0, 70, 71
1, 348121, Note_on_c, 0, 71, 84
1, 348138, Note_off_c, 0, 65, 60
1, 348154, Note_off_c, 0, 75, 57
1, 348160, Note_on_c, 0, 79, 75
1, 348189, Note_off_c, 0, 71, 60
1, 348196, Note_on_c, 0, 69, 75
1, 348209, Note_off_c, 0, 83, 63
1, 348213, Note_on_c, 0, 78, 80
1, 348229, Note_off_c, 0, 79, 64
1, 348280, Note_off_c, 0, 78, 63
1, 348285, Note_on_c, 0, 72, 82
1, 348288, Note_on_c, 0, 75, 84
1, 348295, Note_on_c, 0, 84, 92
1, 348340, Note_off_c, 0, 75, 60
1, 348344, Note_off_c, 0, 70, 52
1, 348357, Note_on_c, 0, 82, 80
1, 348360, Note_on_c, 0, 66, 59
1, 348373, Note_off_c, 0, 69, 58
1, 348383, Note_off_c, 0, 72, 63
1, 348384, Note_on_c, 0, 65, 78
1, 348414, Note_off_c, 0, 66, 61
1, 348419, Note_off_c, 0, 65, 61
1, 348421, Note_on_c, 0, 81, 68
1, 348441, Note_off_c, 0, 84, 57
1, 348448, Note_off_c, 0, 81, 68
1, 348453, Note_off_c, 0, 82, 63
1, 348640, Note_on_c, 0, 40, 53
1, 348649, Note_on_c, 0, 28, 54
1, 348668, Control_c, 0, 64, 104
1, 348683, Note_on_c, 0, 82, 73
1, 348683, Control_c, 0, 64, 69
1, 348697, Note_on_c, 0, 74, 49
1, 348698, Control_c, 0, 64, 38
1, 348699, Note_on_c, 0, 70, 59
1, 348700, Note_on_c, 0, 80, 52
1, 348713, Control_c, 0, 64, 0
1, 348717, Note_on_c, 0, 77, 52
1, 348750, Control_c, 0, 64, 40
1, 348765, Control_c, 0, 64, 60
1, 348768, Note_off_c, 0, 28, 61
1, 348780, Control_c, 0, 64, 73
1, 348795, Control_c, 0, 64, 119
1, 348809, Control_c, 0, 64, 127
1, 348825, Note_off_c, 0, 40, 63
1, 348911, Note_off_c, 0, 82, 62
1, 348917, Note_on_c, 0, 50, 58
1, 348917, Note_off_c, 0, 77, 58
1, 348918, Note_off_c, 0, 70, 60
1, 348920, Note_off_c, 0, 80, 56
1, 348939, Note_off_c, 0, 74, 58
1, 348966, Note_off_c, 0, 50, 58
1, 348976, Note_on_c, 0, 52, 68
1, 349013, Note_off_c, 0, 52, 65
1, 349034, Note_on_c, 0, 83, 88
1, 349036, Note_on_c, 0, 80, 71
1, 349039, Note_on_c, 0, 71, 82
1, 349040, Note_on_c, 0, 74, 75
1, 349041, Note_on_c, 0, 53, 63
1, 349048, Note_on_c, 0, 77, 66
1, 349093, Note_off_c, 0, 53, 52
1, 349108, Note_on_c, 0, 56, 74
1, 349157, Note_on_c, 0, 58, 75
1, 349191, Note_off_c, 0, 56, 64
1, 349212, Note_off_c, 0, 58, 64
1, 349218, Note_on_c, 0, 59, 80
1, 349239, Note_off_c, 0, 71, 53
1, 349273, Note_on_c, 0, 62, 80
1, 349280, Note_off_c, 0, 59, 54
1, 349296, Note_off_c, 0, 83, 61
1, 349324, Note_on_c, 0, 64, 77
1, 349338, Note_off_c, 0, 62, 66
1, 349369, Note_off_c, 0, 80, 59
1, 349371, Note_off_c, 0, 64, 63
1, 349378, Note_on_c, 0, 65, 83
1, 349388, Note_off_c, 0, 77, 55
1, 349400, Note_off_c, 0, 74, 58
1, 349441, Note_on_c, 0, 68, 91
1, 349455, Note_off_c, 0, 65, 59
1, 349481, Note_on_c, 0, 70, 90
1, 349536, Note_off_c, 0, 68, 60
1, 349540, Note_on_c, 0, 82, 99
1, 349543, Note_on_c, 0, 74, 89
1, 349547, Note_on_c, 0, 80, 84
1, 349549, Note_on_c, 0, 77, 80
1, 349555, Note_on_c, 0, 71, 99
1, 349583, Note_off_c, 0, 70, 62
1, 349672, Note_on_c, 0, 70, 85
1, 349674, Note_off_c, 0, 71, 61
1, 349707, Note_off_c, 0, 82, 62
1, 349719, Note_off_c, 0, 80, 60
1, 349726, Note_off_c, 0, 77, 60
1, 349729, Note_on_c, 0, 68, 78
1, 349732, Note_off_c, 0, 74, 54
1, 349744, Note_off_c, 0, 70, 63
1, 349775, Note_off_c, 0, 68, 62
1, 349800, Note_on_c, 0, 83, 100
1, 349800, Note_on_c, 0, 78, 85
1, 349804, Note_on_c, 0, 74, 80
1, 349806, Note_on_c, 0, 71, 91
1, 349806, Note_on_c, 0, 65, 80
1, 349814, Note_on_c, 0, 80, 77
1, 349867, Note_off_c, 0, 65, 59
1, 349869, Note_on_c, 0, 64, 75
1, 349894, Poly_aftertouch_c, 0, 72, 127
1, 349917, Note_on_c, 0, 62, 75
1, 349922, Note_off_c, 0, 64, 64
1, 349942, Note_off_c, 0, 62, 65
1, 349969, Note_on_c, 0, 77, 35
1, 349990, Note_on_c, 0, 59, 80
1, 350010, Note_off_c, 0, 78, 32
1, 350044, Note_off_c, 0, 59, 64
1, 350050, Note_on_c, 0, 58, 78
1, 350083, Poly_aftertouch_c, 0, 72, 0
1, 350084, Note_off_c, 0, 71, 51
1, 350102, Note_on_c, 0, 56, 70
1, 350110, Note_off_c, 0, 58, 63
1, 350135, Note_off_c, 0, 56, 68
1, 350139, Note_off_c, 0, 83, 51
1, 350170, Note_on_c, 0, 53, 74
1, 350240, Note_on_c, 0, 52, 68
1, 350256, Note_off_c, 0, 53, 60
1, 350259, Note_off_c, 0, 80, 36
1, 350276, Note_off_c, 0, 74, 46
1, 350304, Note_on_c, 0, 50, 66
1, 350309, Note_off_c, 0, 52, 64
1, 350332, Note_off_c, 0, 50, 65
1, 350362, Note_off_c, 0, 77, 28
1, 350551, Note_on_c, 0, 28, 51
1, 350578, Note_on_c, 0, 40, 38
1, 350603, Control_c, 0, 64, 89
1, 350617, Control_c, 0, 64, 66
1, 350632, Control_c, 0, 64, 36
1, 350635, Note_on_c, 0, 82, 55
1, 350648, Note_on_c, 0, 80, 49
1, 350649, Control_c, 0, 64, 0
1, 350678, Control_c, 0, 64, 37
1, 350679, Note_off_c, 0, 28, 60
1, 350693, Control_c, 0, 64, 56
1, 350708, Control_c, 0, 64, 67
1, 350722, Control_c, 0, 64, 81
1, 350737, Control_c, 0, 64, 127
1, 350753, Note_off_c, 0, 40, 49
1, 350809, Note_on_c, 0, 74, 32
1, 350861, Note_off_c, 0, 80, 53
1, 350864, Note_on_c, 0, 50, 28
1, 350882, Note_off_c, 0, 82, 58
1, 350896, Note_on_c, 0, 52, 56
1, 350903, Note_off_c, 0, 50, 44
1, 350913, Note_on_c, 0, 70, 51
1, 350931, Note_off_c, 0, 74, 59
1, 350944, Note_off_c, 0, 52, 62
1, 350956, Note_off_c, 0, 70, 60
1, 350974, Note_on_c, 0, 53, 52
1, 350988, Note_on_c, 0, 80, 58
1, 351003, Note_on_c, 0, 83, 68
1, 351014, Note_off_c, 0, 53, 64
1, 351034, Note_on_c, 0, 55, 61
1, 351090, Note_on_c, 0, 74, 59
1, 351092, Note_off_c, 0, 55, 58
1, 351104, Note_off_c, 0, 83, 57
1, 351113, Note_on_c, 0, 56, 55
1, 351113, Note_off_c, 0, 80, 62
1, 351123, Note_on_c, 0, 71, 62
1, 351159, Note_on_c, 0, 58, 69
1, 351171, Note_off_c, 0, 74, 62
1, 351179, Note_off_c, 0, 71, 62
1, 351187, Note_off_c, 0, 56, 58
1, 351201, Note_on_c, 0, 82, 81
1, 351215, Note_on_c, 0, 80, 77
1, 351219, Note_off_c, 0, 58, 62
1, 351236, Note_on_c, 0, 59, 64
1, 351274, Note_on_c, 0, 74, 75
1, 351294, Note_off_c, 0, 59, 54
1, 351305, Note_on_c, 0, 70, 71
1, 351308, Note_off_c, 0, 80, 63
1, 351311, Note_off_c, 0, 82, 63
1, 351317, Note_on_c, 0, 61, 62
1, 351329, Note_off_c, 0, 70, 70
1, 351345, Note_off_c, 0, 74, 63
1, 351369, Note_on_c, 0, 62, 65
1, 351386, Note_on_c, 0, 83, 84
1, 351393, Note_on_c, 0, 80, 76
1, 351409, Note_on_c, 0, 64, 73
1, 351413, Note_off_c, 0, 61, 52
1, 351440, Note_off_c, 0, 62, 62
1, 351460, Note_on_c, 0, 74, 64
1, 351468, Note_off_c, 0, 64, 63
1, 351470, Note_on_c, 0, 71, 70
1, 351474, Note_off_c, 0, 80, 63
1, 351475, Note_on_c, 0, 65, 58
1, 351477, Note_off_c, 0, 74, 66
1, 351487, Note_off_c, 0, 83, 61
1, 351496, Note_off_c, 0, 71, 68
1, 351501, Note_off_c, 0, 65, 63
1, 351588, Note_on_c, 0, 41, 75
1, 351589, Control_c, 0, 64, 94
1, 351592, Note_on_c, 0, 89, 83
1, 351604, Control_c, 0, 64, 71
1, 351609, Note_on_c, 0, 82, 61
1, 351618, Control_c, 0, 64, 63
1, 351633, Control_c, 0, 64, 65
1, 351648, Control_c, 0, 64, 69
1, 351663, Control_c, 0, 64, 78
1, 351677, Note_off_c, 0, 41, 61
1, 351678, Control_c, 0, 64, 100
1, 351690, Note_off_c, 0, 89, 59
1, 351692, Note_on_c, 0, 79, 68
1, 351692, Control_c, 0, 64, 127
1, 351701, Note_off_c, 0, 82, 63
1, 351716, Note_on_c, 0, 52, 33
1, 351736, Note_on_c, 0, 53, 69
1, 351753, Note_off_c, 0, 79, 65
1, 351757, Note_on_c, 0, 77, 65
1, 351764, Note_off_c, 0, 52, 48
1, 351764, Poly_aftertouch_c, 0, 50, 127
1, 351788, Poly_aftertouch_c, 0, 50, 0
1, 351788, Note_off_c, 0, 77, 61
1, 351793, Note_off_c, 0, 53, 0
1, 351803, Note_on_c, 0, 88, 89
1, 351812, Note_on_c, 0, 82, 82
1, 351830, Poly_aftertouch_c, 0, 53, 127
1, 351849, Note_on_c, 0, 56, 64
1, 351856, Poly_aftertouch_c, 0, 53, 0
1, 351873, Note_on_c, 0, 79, 77
1, 351892, Note_off_c, 0, 56, 62
1, 351898, Note_off_c, 0, 82, 63
1, 351907, Note_on_c, 0, 57, 69
1, 351908, Note_off_c, 0, 88, 64
1, 351910, Note_on_c, 0, 76, 75
1, 351944, Note_off_c, 0, 57, 61
1, 351950, Note_off_c, 0, 79, 65
1, 351972, Note_off_c, 0, 76, 65
1, 351979, Note_on_c, 0, 58, 69
1, 351991, Note_on_c, 0, 87, 90
1, 351996, Note_on_c, 0, 82, 83
1, 352020, Note_off_c, 0, 58, 62
1, 352048, Note_on_c, 0, 60, 65
1, 352050, Note_on_c, 0, 79, 80
1, 352080, Note_off_c, 0, 60, 59
1, 352085, Note_on_c, 0, 75, 76
1, 352086, Note_off_c, 0, 87, 64
1, 352087, Note_off_c, 0, 82, 63
1, 352107, Note_on_c, 0, 61, 70
1, 352134, Note_off_c, 0, 79, 64
1, 352155, Note_on_c, 0, 62, 67
1, 352159, Note_off_c, 0, 75, 63
1, 352179, Note_on_c, 0, 86, 88
1, 352183, Note_on_c, 0, 82, 82
1, 352188, Note_off_c, 0, 61, 62
1, 352189, Note_on_c, 0, 64, 73
1, 352223, Note_off_c, 0, 64, 59
1, 352226, Note_on_c, 0, 65, 64
1, 352228, Note_off_c, 0, 62, 61
1, 352248, Note_on_c, 0, 79, 68
1, 352256, Note_off_c, 0, 65, 64
1, 352259, Note_off_c, 0, 82, 64
1, 352261, Note_off_c, 0, 86, 59
1, 352276, Note_off_c, 0, 79, 68
1, 352287, Note_on_c, 0, 74, 68
1, 352348, Note_off_c, 0, 74, 62
1, 352368, Control_c, 0, 64, 89
1, 352371, Note_on_c, 0, 29, 73
1, 352383, Control_c, 0, 64, 66
1, 352393, Note_on_c, 0, 82, 64
1, 352398, Control_c, 0, 64, 57
1, 352405, Note_on_c, 0, 41, 39
1, 352405, Note_off_c, 0, 29, 62
1, 352406, Note_on_c, 0, 80, 64
1, 352413, Control_c, 0, 64, 64
1, 352420, Note_on_c, 0, 40, 16
1, 352428, Control_c, 0, 64, 74
1, 352442, Control_c, 0, 64, 127
1, 352443, Note_off_c, 0, 41, 52
1, 352458, Note_on_c, 0, 74, 68
1, 352471, Note_off_c, 0, 40, 46
1, 352484, Note_off_c, 0, 80, 62
1, 352502, Note_off_c, 0, 82, 62
1, 352514, Note_on_c, 0, 50, 73
1, 352522, Note_on_c, 0, 70, 68
1, 352536, Note_off_c, 0, 74, 61
1, 352557, Note_on_c, 0, 52, 68
1, 352560, Note_off_c, 0, 70, 62
1, 352569, Note_off_c, 0, 50, 59
1, 352594, Note_on_c, 0, 83, 82
1, 352597, Note_on_c, 0, 80, 79
1, 352605, Note_on_c, 0, 53, 74
1, 352619, Note_off_c, 0, 52, 65
1, 352640, Note_off_c, 0, 53, 66
1, 352649, Note_on_c, 0, 74, 73
1, 352654, Note_on_c, 0, 55, 71
1, 352679, Note_off_c, 0, 83, 60
1, 352685, Note_off_c, 0, 80, 62
1, 352697, Note_on_c, 0, 71, 77
1, 352718, Note_on_c, 0, 56, 74
1, 352719, Note_off_c, 0, 55, 59
1, 352725, Note_off_c, 0, 74, 64
1, 352765, Note_on_c, 0, 58, 81
1, 352766, Note_on_c, 0, 82, 92
1, 352773, Note_on_c, 0, 80, 89
1, 352775, Note_off_c, 0, 71, 43
1, 352803, Note_off_c, 0, 56, 63
1, 352828, Note_on_c, 0, 74, 79
1, 352830, Note_off_c, 0, 58, 64
1, 352832, Note_on_c, 0, 59, 77
1, 352869, Note_off_c, 0, 80, 63
1, 352870, Note_on_c, 0, 70, 79
1, 352876, Note_off_c, 0, 82, 63
1, 352882, Note_off_c, 0, 59, 63
1, 352900, Note_off_c, 0, 74, 64
1, 352910, Note_on_c, 0, 61, 76
1, 352912, Note_off_c, 0, 70, 65
1, 352941, Note_on_c, 0, 83, 95
1, 352947, Note_on_c, 0, 80, 81
1, 352956, Note_on_c, 0, 62, 75
1, 352986, Note_on_c, 0, 64, 83
1, 352997, Note_off_c, 0, 61, 60
1, 353008, Note_on_c, 0, 74, 84
1, 353027, Note_off_c, 0, 62, 63
1, 353031, Note_on_c, 0, 71, 83
1, 353032, Note_off_c, 0, 64, 65
1, 353034, Note_off_c, 0, 74, 66
1, 353037, Note_on_c, 0, 65, 70
1, 353038, Note_off_c, 0, 80, 63
1, 353046, Note_off_c, 0, 83, 59
1, 353061, Note_off_c, 0, 71, 62
1, 353066, Note_off_c, 0, 65, 66
1, 353131, Control_c, 0, 64, 102
1, 353141, Note_on_c, 0, 89, 94
1, 353146, Control_c, 0, 64, 72
1, 353149, Note_on_c, 0, 40, 75
1, 353154, Note_on_c, 0, 82, 74
1, 353161, Control_c, 0, 64, 56
1, 353190, Control_c, 0, 64, 67
1, 353198, Note_on_c, 0, 41, 24
1, 353205, Control_c, 0, 64, 82
1, 353217, Note_on_c, 0, 79, 76
1, 353218, Note_off_c, 0, 40, 61
1, 353220, Control_c, 0, 64, 127
1, 353225, Note_on_c, 0, 50, 70
1, 353248, Note_off_c, 0, 41, 54
1, 353248, Note_off_c, 0, 82, 64
1, 353248, Note_off_c, 0, 89, 62
1, 353275, Note_off_c, 0, 50, 63
1, 353278, Note_on_c, 0, 77, 82
1, 353280, Note_on_c, 0, 52, 72
1, 353282, Note_off_c, 0, 79, 65
1, 353324, Note_off_c, 0, 77, 63
1, 353340, Note_on_c, 0, 88, 98
1, 353342, Note_off_c, 0, 52, 38
1, 353344, Note_on_c, 0, 82, 89
1, 353359, Note_on_c, 0, 53, 74
1, 353392, Note_on_c, 0, 55, 75
1, 353402, Note_on_c, 0, 79, 80
1, 353412, Note_off_c, 0, 53, 62
1, 353432, Note_off_c, 0, 82, 63
1, 353439, Note_on_c, 0, 76, 84
1, 353440, Note_off_c, 0, 55, 61
1, 353442, Note_on_c, 0, 57, 76
1, 353445, Note_off_c, 0, 88, 66
1, 353474, Note_off_c, 0, 79, 66
1, 353488, Note_off_c, 0, 57, 60
1, 353508, Note_off_c, 0, 76, 64
1, 353516, Note_on_c, 0, 58, 74
1, 353526, Note_on_c, 0, 87, 97
1, 353532, Note_on_c, 0, 82, 86
1, 353574, Note_off_c, 0, 58, 63
1, 353579, Note_on_c, 0, 60, 75
1, 353585, Note_on_c, 0, 79, 78
1, 353619, Note_off_c, 0, 87, 65
1, 353622, Note_off_c, 0, 82, 63
1, 353624, Note_on_c, 0, 75, 79
1, 353647, Note_on_c, 0, 61, 73
1, 353648, Note_off_c, 0, 60, 63
1, 353678, Note_off_c, 0, 79, 63
1, 353698, Note_on_c, 0, 62, 68
1, 353719, Note_off_c, 0, 75, 56
1, 353721, Note_on_c, 0, 86, 89
1, 353723, Note_on_c, 0, 82, 80
1, 353732, Note_off_c, 0, 61, 61
1, 353742, Note_on_c, 0, 64, 71
1, 353788, Note_on_c, 0, 79, 75
1, 353798, Note_off_c, 0, 62, 56
1, 353808, Note_on_c, 0, 65, 67
1, 353812, Note_off_c, 0, 64, 62
1, 353821, Note_off_c, 0, 86, 60
1, 353845, Note_off_c, 0, 82, 61
1, 353845, Note_on_c, 0, 74, 77
1, 353848, Note_off_c, 0, 65, 60
1, 353869, Note_off_c, 0, 79, 63
1, 353916, Note_off_c, 0, 74, 63
1, 354060, Note_on_c, 0, 42, 66
1, 354109, Control_c, 0, 64, 104
1, 354116, Note_on_c, 0, 74, 81
1, 354124, Note_on_c, 0, 62, 75
1, 354124, Control_c, 0, 64, 73
1, 354138, Control_c, 0, 64, 59
1, 354153, Control_c, 0, 64, 36
1, 354168, Control_c, 0, 64, 38
1, 354183, Control_c, 0, 64, 51
1, 354198, Control_c, 0, 64, 60
1, 354212, Control_c, 0, 64, 72
1, 354227, Control_c, 0, 64, 107
1, 354242, Control_c, 0, 64, 127
1, 354259, Note_on_c, 0, 50, 53
1, 354263, Note_on_c, 0, 72, 67
1, 354283, Note_off_c, 0, 42, 61
1, 354298, Note_off_c, 0, 50, 63
1, 354310, Note_off_c, 0, 62, 60
1, 354314, Note_off_c, 0, 74, 58
1, 354324, Note_on_c, 0, 52, 69
1, 354340, Note_on_c, 0, 70, 75
1, 354355, Note_off_c, 0, 52, 62
1, 354369, Note_off_c, 0, 72, 63
1, 354393, Note_off_c, 0, 70, 64
1, 354399, Note_on_c, 0, 54, 78
1, 354399, Note_on_c, 0, 69, 85
1, 354449, Note_on_c, 0, 70, 69
1, 354453, Note_on_c, 0, 55, 72
1, 354482, Note_off_c, 0, 69, 61
1, 354489, Note_off_c, 0, 54, 64
1, 354493, Note_on_c, 0, 57, 76
1, 354494, Note_on_c, 0, 72, 81
1, 354529, Note_off_c, 0, 70, 64
1, 354535, Note_off_c, 0, 55, 63
1, 354562, Note_on_c, 0, 62, 80
1, 354566, Note_off_c, 0, 57, 60
1, 354566, Note_on_c, 0, 75, 98
1, 354570, Note_on_c, 0, 63, 95
1, 354589, Note_off_c, 0, 72, 57
1, 354638, Note_on_c, 0, 72, 57
1, 354647, Note_off_c, 0, 62, 61
1, 354648, Note_on_c, 0, 59, 73
1, 354662, Note_off_c, 0, 63, 62
1, 354679, Note_on_c, 0, 58, 80
1, 354692, Note_off_c, 0, 75, 61
1, 354700, Note_off_c, 0, 59, 64
1, 354703, Note_on_c, 0, 70, 76
1, 354705, Note_off_c, 0, 58, 69
1, 354757, Note_off_c, 0, 72, 64
1, 354761, Note_on_c, 0, 57, 82
1, 354768, Note_on_c, 0, 69, 83
1, 354768, Note_off_c, 0, 70, 63
1, 354823, Note_on_c, 0, 55, 78
1, 354832, Note_on_c, 0, 70, 81
1, 354845, Note_on_c, 0, 54, 90
1, 354853, Note_off_c, 0, 57, 64
1, 354862, Note_off_c, 0, 55, 61
1, 354876, Note_on_c, 0, 72, 89
1, 354879, Note_off_c, 0, 54, 66
1, 354896, Note_off_c, 0, 69, 60
1, 354930, Note_off_c, 0, 70, 63
1, 354958, Note_off_c, 0, 72, 62
1, 355050, Control_c, 0, 64, 80
1, 355057, Note_on_c, 0, 43, 101
1, 355059, Note_on_c, 0, 31, 91
1, 355059, Note_on_c, 0, 76, 97
1, 355061, Note_on_c, 0, 64, 97
1, 355062, Note_on_c, 0, 73, 96
1, 355065, Control_c, 0, 64, 0
1, 355067, Note_on_c, 0, 70, 78
1, 355138, Note_off_c, 0, 31, 64
1, 355139, Control_c, 0, 64, 56
1, 355154, Control_c, 0, 64, 86
1, 355164, Note_off_c, 0, 64, 64
1, 355168, Control_c, 0, 64, 127
1, 355169, Note_off_c, 0, 43, 65
1, 355188, Note_off_c, 0, 70, 62
1, 355209, Note_off_c, 0, 73, 64
1, 355219, Note_off_c, 0, 76, 66
1, 355365, Note_on_c, 0, 88, 72
1, 355367, Note_on_c, 0, 76, 67
1, 355369, Note_on_c, 0, 73, 67
1, 355371, Note_on_c, 0, 85, 69
1, 355401, Note_off_c, 0, 85, 64
1, 355402, Note_off_c, 0, 76, 64
1, 355404, Note_off_c, 0, 73, 63
1, 355421, Note_on_c, 0, 70, 69
1, 355426, Note_on_c, 0, 82, 73
1, 355426, Note_off_c, 0, 88, 64
1, 355474, Note_off_c, 0, 82, 62
1, 355493, Note_on_c, 0, 76, 68
1, 355495, Note_on_c, 0, 81, 61
1, 355499, Note_on_c, 0, 85, 69
1, 355519, Note_on_c, 0, 88, 24
1, 355520, Note_on_c, 0, 69, 43
1, 355520, Note_on_c, 0, 73, 61
1, 355523, Note_off_c, 0, 85, 68
1, 355536, Note_off_c, 0, 76, 57
1, 355546, Note_off_c, 0, 70, 56
1, 355547, Note_on_c, 0, 82, 47
1, 355551, Note_on_c, 0, 68, 68
1, 355551, Note_off_c, 0, 73, 65
1, 355564, Note_off_c, 0, 81, 66
1, 355574, Note_on_c, 0, 85, 80
1, 355583, Note_off_c, 0, 88, 0
1, 355590, Note_off_c, 0, 68, 55
1, 355592, Note_on_c, 0, 88, 48
1, 355602, Note_off_c, 0, 82, 0
1, 355619, Note_on_c, 0, 82, 33
1, 355629, Note_on_c, 0, 76, 38
1, 355635, Note_off_c, 0, 69, 0
1, 355640, Note_on_c, 0, 73, 52
1, 355642, Note_off_c, 0, 85, 64
1, 355647, Note_off_c, 0, 82, 57
1, 355649, Note_on_c, 0, 80, 76
1, 355660, Note_on_c, 0, 69, 21
1, 355660, Note_off_c, 0, 76, 48
1, 355686, Note_on_c, 0, 67, 56
1, 355692, Note_off_c, 0, 73, 50
1, 355711, Note_off_c, 0, 80, 62
1, 355712, Note_on_c, 0, 82, 68
1, 355716, Note_on_c, 0, 85, 49
1, 355717, Note_off_c, 0, 67, 65
1, 355747, Note_off_c, 0, 85, 66
1, 355749, Note_on_c, 0, 76, 63
1, 355751, Note_off_c, 0, 82, 61
1, 355758, Poly_aftertouch_c, 0, 81, 0
1, 355768, Note_on_c, 0, 79, 72
1, 355775, Note_off_c, 0, 69, 0
1, 355793, Poly_aftertouch_c, 0, 73, 127
1, 355798, Note_on_c, 0, 67, 61
1, 355812, Poly_aftertouch_c, 0, 69, 127
1, 355816, Note_off_c, 0, 88, 52
1, 355821, Note_off_c, 0, 76, 55
1, 355847, Poly_aftertouch_c, 0, 73, 0
1, 355853, Note_on_c, 0, 82, 76
1, 355867, Note_on_c, 0, 70, 56
1, 355871, Note_off_c, 0, 79, 61
1, 355887, Poly_aftertouch_c, 0, 69, 0
1, 355887, Note_off_c, 0, 67, 61
1, 355896, Note_off_c, 0, 70, 66
1, 355927, Note_off_c, 0, 82, 63
1, 356138, Note_on_c, 0, 42, 64
1, 356179, Note_on_c, 0, 74, 84
1, 356193, Note_on_c, 0, 62, 72
1, 356200, Control_c, 0, 64, 97
1, 356214, Control_c, 0, 64, 71
1, 356238, Control_c, 0, 64, 56
1, 356253, Control_c, 0, 64, 37
1, 356268, Control_c, 0, 64, 42
1, 356283, Control_c, 0, 64, 51
1, 356297, Control_c, 0, 64, 58
1, 356312, Control_c, 0, 64, 64
1, 356327, Control_c, 0, 64, 74
1, 356341, Control_c, 0, 64, 116
1, 356356, Control_c, 0, 64, 127
1, 356360, Note_on_c, 0, 50, 44
1, 356365, Note_on_c, 0, 72, 58
1, 356365, Note_off_c, 0, 42, 61
1, 356388, Note_off_c, 0, 50, 58
1, 356410, Note_on_c, 0, 52, 65
1, 356411, Note_off_c, 0, 62, 56
1, 356438, Note_off_c, 0, 74, 59
1, 356449, Note_off_c, 0, 52, 57
1, 356450, Note_on_c, 0, 70, 63
1, 356483, Note_off_c, 0, 70, 64
1, 356486, Note_on_c, 0, 54, 76
1, 356489, Note_off_c, 0, 72, 62
1, 356504, Note_on_c, 0, 69, 79
1, 356542, Note_on_c, 0, 55, 71
1, 356558, Note_off_c, 0, 54, 59
1, 356564, Note_on_c, 0, 70, 73
1, 356585, Note_on_c, 0, 57, 76
1, 356591, Note_off_c, 0, 69, 59
1, 356611, Note_on_c, 0, 72, 78
1, 356629, Note_off_c, 0, 55, 62
1, 356639, Note_off_c, 0, 70, 64
1, 356653, Note_off_c, 0, 57, 64
1, 356667, Note_on_c, 0, 62, 74
1, 356674, Note_on_c, 0, 75, 99
1, 356677, Note_on_c, 0, 63, 96
1, 356682, Note_off_c, 0, 72, 60
1, 356742, Note_on_c, 0, 60, 76
1, 356745, Note_off_c, 0, 62, 60
1, 356750, Note_on_c, 0, 72, 68
1, 356766, Note_off_c, 0, 63, 62
1, 356775, Note_on_c, 0, 58, 76
1, 356785, Note_off_c, 0, 60, 63
1, 356803, Note_off_c, 0, 58, 67
1, 356811, Note_on_c, 0, 70, 75
1, 356815, Note_off_c, 0, 75, 59
1, 356846, Note_off_c, 0, 72, 64
1, 356852, Note_on_c, 0, 57, 85
1, 356861, Note_on_c, 0, 69, 84
1, 356862, Note_off_c, 0, 70, 65
1, 356911, Note_on_c, 0, 55, 72
1, 356915, Note_off_c, 0, 57, 63
1, 356922, Note_on_c, 0, 70, 80
1, 356938, Note_off_c, 0, 55, 68
1, 356940, Note_on_c, 0, 53, 71
1, 356969, Note_off_c, 0, 53, 63
1, 356971, Note_on_c, 0, 72, 85
1, 356972, Note_off_c, 0, 69, 61
1, 357021, Note_off_c, 0, 70, 64
1, 357048, Note_off_c, 0, 72, 62
1, 357106, Control_c, 0, 64, 91
1, 357120, Control_c, 0, 64, 50
1, 357132, Note_on_c, 0, 31, 90
1, 357132, Note_on_c, 0, 43, 100
1, 357135, Control_c, 0, 64, 0
1, 357140, Note_on_c, 0, 76, 102
1, 357141, Note_on_c, 0, 64, 97
1, 357143, Note_on_c, 0, 73, 92
1, 357147, Note_on_c, 0, 70, 84
1, 357193, Control_c, 0, 64, 41
1, 357195, Note_off_c, 0, 31, 64
1, 357208, Control_c, 0, 64, 70
1, 357219, Note_off_c, 0, 64, 64
1, 357223, Control_c, 0, 64, 127
1, 357226, Note_off_c, 0, 43, 64
1, 357234, Note_off_c, 0, 70, 62
1, 357249, Note_off_c, 0, 73, 64
1, 357265, Note_off_c, 0, 76, 67
1, 357418, Note_on_c, 0, 76, 72
1, 357422, Note_on_c, 0, 88, 68
1, 357424, Note_on_c, 0, 73, 67
1, 357436, Note_on_c, 0, 85, 43
1, 357446, Note_off_c, 0, 76, 65
1, 357452, Note_off_c, 0, 73, 67
1, 357461, Note_off_c, 0, 85, 55
1, 357467, Note_on_c, 0, 82, 72
1, 357470, Note_on_c, 0, 70, 69
1, 357472, Note_off_c, 0, 88, 64
1, 357518, Note_off_c, 0, 82, 61
1, 357523, Note_on_c, 0, 88, 48
1, 357532, Note_on_c, 0, 76, 75
1, 357541, Note_on_c, 0, 85, 56
1, 357542, Note_on_c, 0, 81, 73
1, 357552, Note_off_c, 0, 88, 67
1, 357553, Note_on_c, 0, 73, 63
1, 357559, Note_off_c, 0, 85, 62
1, 357574, Note_off_c, 0, 76, 57
1, 357575, Note_off_c, 0, 70, 52
1, 357587, Note_off_c, 0, 73, 65
1, 357589, Note_on_c, 0, 68, 69
1, 357593, Note_off_c, 0, 81, 64
1, 357599, Note_on_c, 0, 69, 37
1, 357614, Note_on_c, 0, 85, 86
1, 357623, Note_off_c, 0, 68, 60
1, 357625, Note_on_c, 0, 88, 73
1, 357664, Note_on_c, 0, 76, 55
1, 357665, Note_off_c, 0, 85, 65
1, 357669, Note_on_c, 0, 80, 77
1, 357675, Note_off_c, 0, 88, 47
1, 357681, Note_on_c, 0, 73, 51
1, 357689, Note_off_c, 0, 76, 57
1, 357690, Note_off_c, 0, 69, 0
1, 357710, Note_on_c, 0, 69, 34
1, 357713, Note_on_c, 0, 82, 44
1, 357715, Note_on_c, 0, 68, 74
1, 357732, Note_on_c, 0, 88, 42
1, 357736, Note_off_c, 0, 80, 62
1, 357738, Note_off_c, 0, 68, 68
1, 357756, Note_on_c, 0, 85, 46
1, 357770, Note_off_c, 0, 73, 0
1, 357780, Note_on_c, 0, 76, 67
1, 357791, Note_off_c, 0, 82, 64
1, 357792, Note_on_c, 0, 79, 74
1, 357804, Note_on_c, 0, 73, 26
1, 357836, Note_off_c, 0, 85, 46
1, 357848, Note_on_c, 0, 67, 49
1, 357848, Note_off_c, 0, 73, 59
1, 357862, Note_off_c, 0, 76, 60
1, 357875, Note_off_c, 0, 69, 0
1, 357894, Note_off_c, 0, 88, 30
1, 357910, Note_on_c, 0, 70, 66
1, 357915, Note_off_c, 0, 67, 62
1, 357916, Note_on_c, 0, 82, 69
1, 357934, Note_off_c, 0, 70, 67
1, 357942, Poly_aftertouch_c, 0, 69, 0
1, 357949, Note_off_c, 0, 79, 62
1, 357993, Note_off_c, 0, 82, 64
1, 358135, Note_on_c, 0, 44, 77
1, 358179, Control_c, 0, 64, 78
1, 358186, Note_on_c, 0, 76, 93
1, 358189, Note_on_c, 0, 64, 87
1, 358194, Control_c, 0, 64, 50
1, 358209, Control_c, 0, 64, 0
1, 358253, Control_c, 0, 64, 49
1, 358268, Control_c, 0, 64, 71
1, 358283, Control_c, 0, 64, 127
1, 358298, Note_off_c, 0, 44, 62
1, 358312, Note_on_c, 0, 52, 69
1, 358331, Note_on_c, 0, 74, 74
1, 358358, Note_off_c, 0, 64, 60
1, 358389, Note_on_c, 0, 54, 84
1, 358394, Note_off_c, 0, 52, 61
1, 358396, Note_off_c, 0, 76, 62
1, 358408, Note_on_c, 0, 72, 71
1, 358441, Note_off_c, 0, 74, 62
1, 358447, Note_on_c, 0, 55, 73
1, 358450, Note_off_c, 0, 72, 61
1, 358454, Note_on_c, 0, 71, 86
1, 358487, Note_off_c, 0, 54, 61
1, 358497, Note_on_c, 0, 57, 81
1, 358507, Note_on_c, 0, 72, 63
1, 358532, Note_off_c, 0, 55, 63
1, 358539, Note_off_c, 0, 71, 62
1, 358556, Note_off_c, 0, 57, 66
1, 358557, Note_on_c, 0, 59, 81
1, 358557, Note_on_c, 0, 74, 78
1, 358584, Note_off_c, 0, 72, 64
1, 358586, Note_off_c, 0, 59, 64
1, 358626, Note_on_c, 0, 77, 105
1, 358626, Note_on_c, 0, 65, 104
1, 358640, Note_on_c, 0, 64, 91
1, 358655, Note_off_c, 0, 74, 63
1, 358687, Note_on_c, 0, 62, 57
1, 358707, Note_off_c, 0, 65, 63
1, 358707, Note_on_c, 0, 74, 70
1, 358712, Note_off_c, 0, 64, 62
1, 358735, Note_off_c, 0, 62, 55
1, 358743, Note_on_c, 0, 60, 83
1, 358765, Note_on_c, 0, 72, 75
1, 358766, Note_off_c, 0, 77, 60
1, 358815, Note_on_c, 0, 59, 79
1, 358821, Note_off_c, 0, 74, 63
1, 358822, Note_on_c, 0, 71, 91
1, 358827, Note_off_c, 0, 72, 63
1, 358836, Note_off_c, 0, 60, 38
1, 358847, Note_on_c, 0, 57, 81
1, 358881, Note_on_c, 0, 72, 66
1, 358907, Note_off_c, 0, 71, 62
1, 358910, Note_on_c, 0, 55, 77
1, 358913, Note_off_c, 0, 59, 37
1, 358915, Note_on_c, 0, 74, 91
1, 358937, Note_off_c, 0, 72, 65
1, 358951, Note_off_c, 0, 55, 43
1, 358951, Note_off_c, 0, 74, 67
1, 358954, Note_off_c, 0, 57, 65
1, 359121, Control_c, 0, 64, 77
1, 359124, Note_on_c, 0, 45, 101
1, 359124, Note_on_c, 0, 66, 101
1, 359125, Note_on_c, 0, 78, 103
1, 359126, Note_on_c, 0, 75, 92
1, 359127, Note_on_c, 0, 33, 94
1, 359127, Note_on_c, 0, 72, 71
1, 359136, Control_c, 0, 64, 0
1, 359195, Control_c, 0, 64, 54
1, 359210, Control_c, 0, 64, 82
1, 359219, Note_off_c, 0, 33, 64
1, 359225, Control_c, 0, 64, 127
1, 359248, Note_off_c, 0, 45, 65
1, 359248, Note_off_c, 0, 66, 64
1, 359271, Note_off_c, 0, 72, 63
1, 359284, Note_off_c, 0, 75, 62
1, 359295, Note_off_c, 0, 78, 65
1, 359442, Note_on_c, 0, 75, 79
1, 359446, Note_on_c, 0, 72, 60
1, 359452, Note_on_c, 0, 87, 81
1, 359455, Note_on_c, 0, 90, 76
1, 359510, Note_off_c, 0, 87, 63
1, 359511, Note_on_c, 0, 71, 73
1, 359512, Note_off_c, 0, 75, 62
1, 359514, Note_on_c, 0, 86, 86
1, 359514, Note_off_c, 0, 90, 62
1, 359562, Note_on_c, 0, 70, 65
1, 359577, Note_on_c, 0, 87, 85
1, 359581, Note_off_c, 0, 86, 65
1, 359584, Note_on_c, 0, 90, 79
1, 359593, Note_off_c, 0, 72, 0
1, 359593, Note_on_c, 0, 72, 17
1, 359610, Note_off_c, 0, 71, 60
1, 359614, Note_on_c, 0, 75, 75
1, 359619, Note_off_c, 0, 70, 63
1, 359624, Note_on_c, 0, 84, 85
1, 359634, Note_off_c, 0, 87, 64
1, 359638, Note_off_c, 0, 90, 62
1, 359655, Note_off_c, 0, 75, 57
1, 359681, Note_on_c, 0, 86, 86
1, 359686, Note_on_c, 0, 69, 61
1, 359686, Note_off_c, 0, 72, 59
1, 359697, Note_on_c, 0, 87, 84
1, 359697, Note_off_c, 0, 84, 65
1, 359701, Note_on_c, 0, 68, 52
1, 359704, Note_on_c, 0, 90, 73
1, 359726, Note_off_c, 0, 68, 57
1, 359735, Note_off_c, 0, 86, 59
1, 359750, Note_off_c, 0, 69, 58
1, 359753, Note_on_c, 0, 75, 77
1, 359753, Note_off_c, 0, 87, 63
1, 359758, Note_on_c, 0, 83, 87
1, 359763, Note_on_c, 0, 72, 45
1, 359773, Note_off_c, 0, 90, 64
1, 359793, Note_off_c, 0, 75, 59
1, 359818, Note_on_c, 0, 66, 78
1, 359828, Note_off_c, 0, 83, 65
1, 359830, Note_on_c, 0, 87, 84
1, 359848, Note_on_c, 0, 91, 73
1, 359862, Note_on_c, 0, 90, 11
1, 359878, Note_off_c, 0, 66, 58
1, 359886, Note_on_c, 0, 75, 78
1, 359890, Note_on_c, 0, 81, 76
1, 359901, Note_off_c, 0, 90, 51
1, 359908, Note_on_c, 0, 83, 61
1, 359917, Note_off_c, 0, 91, 57
1, 359928, Note_off_c, 0, 83, 39
1, 359941, Note_off_c, 0, 75, 62
1, 359950, Note_on_c, 0, 69, 66
1, 359951, Note_on_c, 0, 66, 48
1, 359957, Note_off_c, 0, 72, 55
1, 359958, Note_on_c, 0, 84, 81
1, 359961, Note_off_c, 0, 87, 58
1, 359982, Note_off_c, 0, 69, 68
1, 359987, Note_off_c, 0, 81, 64
1, 359991, Note_off_c, 0, 66, 63
1, 360034, Note_off_c, 0, 84, 64
1, 360272, Note_on_c, 0, 45, 58
1, 360334, Note_on_c, 0, 77, 80
1, 360348, Note_on_c, 0, 65, 70
1, 360368, Control_c, 0, 64, 116
1, 360382, Control_c, 0, 64, 80
1, 360397, Control_c, 0, 64, 64
1, 360412, Control_c, 0, 64, 45
1, 360427, Control_c, 0, 64, 30
1, 360442, Control_c, 0, 64, 33
1, 360456, Control_c, 0, 64, 44
1, 360471, Control_c, 0, 64, 55
1, 360486, Control_c, 0, 64, 62
1, 360499, Note_on_c, 0, 53, 45
1, 360501, Control_c, 0, 64, 69
1, 360516, Control_c, 0, 64, 86
1, 360520, Note_off_c, 0, 45, 57
1, 360531, Control_c, 0, 64, 127
1, 360536, Note_on_c, 0, 75, 61
1, 360555, Note_off_c, 0, 53, 63
1, 360584, Note_on_c, 0, 55, 55
1, 360596, Note_off_c, 0, 65, 58
1, 360611, Note_off_c, 0, 77, 60
1, 360623, Note_on_c, 0, 73, 70
1, 360626, Note_off_c, 0, 55, 55
1, 360660, Note_on_c, 0, 57, 68
1, 360677, Note_off_c, 0, 75, 60
1, 360681, Note_off_c, 0, 73, 64
1, 360689, Note_on_c, 0, 72, 75
1, 360730, Note_on_c, 0, 58, 75
1, 360751, Note_on_c, 0, 73, 70
1, 360757, Note_off_c, 0, 57, 62
1, 360782, Note_off_c, 0, 72, 62
1, 360786, Note_on_c, 0, 60, 72
1, 360804, Note_on_c, 0, 75, 83
1, 360822, Note_off_c, 0, 58, 62
1, 360832, Note_off_c, 0, 73, 64
1, 360848, Note_off_c, 0, 60, 63
1, 360850, Note_on_c, 0, 65, 76
1, 360871, Note_on_c, 0, 66, 91
1, 360871, Note_on_c, 0, 78, 95
1, 360892, Note_off_c, 0, 75, 62
1, 360933, Note_off_c, 0, 65, 58
1, 360936, Note_on_c, 0, 63, 77
1, 360941, Note_on_c, 0, 75, 69
1, 360963, Note_off_c, 0, 66, 62
1, 360982, Note_on_c, 0, 61, 73
1, 360999, Note_off_c, 0, 63, 60
1, 361018, Note_on_c, 0, 73, 83
1, 361024, Note_off_c, 0, 78, 60
1, 361050, Note_off_c, 0, 61, 62
1, 361058, Note_on_c, 0, 60, 85
1, 361067, Note_off_c, 0, 75, 61
1, 361083, Note_on_c, 0, 72, 83
1, 361084, Note_off_c, 0, 73, 64
1, 361147, Note_on_c, 0, 73, 81
1, 361151, Note_off_c, 0, 60, 61
1, 361151, Note_on_c, 0, 58, 79
1, 361162, Note_on_c, 0, 59, 51
1, 361187, Note_off_c, 0, 72, 61
1, 361188, Note_off_c, 0, 59, 57
1, 361189, Note_off_c, 0, 58, 64
1, 361198, Note_on_c, 0, 75, 89
1, 361229, Note_off_c, 0, 73, 62
1, 361304, Note_on_c, 0, 45, 95
1, 361324, Control_c, 0, 64, 115
1, 361339, Control_c, 0, 64, 69
1, 361343, Note_on_c, 0, 78, 94
1, 361346, Note_on_c, 0, 66, 94
1, 361354, Control_c, 0, 64, 31
1, 361363, Note_off_c, 0, 75, 54
1, 361368, Control_c, 0, 64, 0
1, 361383, Control_c, 0, 64, 54
1, 361398, Control_c, 0, 64, 66
1, 361413, Control_c, 0, 64, 96
1, 361425, Note_off_c, 0, 45, 62
1, 361428, Control_c, 0, 64, 127
1, 361449, Note_on_c, 0, 54, 82
1, 361450, Note_on_c, 0, 75, 82
1, 361484, Note_off_c, 0, 66, 60
1, 361488, Note_off_c, 0, 78, 63
1, 361520, Note_off_c, 0, 54, 62
1, 361527, Note_on_c, 0, 73, 78
1, 361544, Note_on_c, 0, 61, 85
1, 361560, Note_off_c, 0, 75, 62
1, 361600, Note_off_c, 0, 61, 56
1, 361613, Note_on_c, 0, 80, 97
1, 361615, Note_on_c, 0, 68, 101
1, 361616, Note_on_c, 0, 71, 93
1, 361630, Note_off_c, 0, 73, 66
1, 361632, Note_on_c, 0, 63, 77
1, 361700, Note_off_c, 0, 80, 64
1, 361703, Note_on_c, 0, 73, 62
1, 361716, Note_on_c, 0, 61, 66
1, 361737, Note_off_c, 0, 63, 62
1, 361762, Note_on_c, 0, 75, 86
1, 361764, Note_off_c, 0, 71, 59
1, 361769, Note_on_c, 0, 59, 87
1, 361789, Note_off_c, 0, 68, 56
1, 361792, Note_off_c, 0, 61, 57
1, 361809, Note_off_c, 0, 73, 64
1, 361851, Note_off_c, 0, 75, 61
1, 361865, Note_on_c, 0, 66, 100
1, 361950, Note_on_c, 0, 75, 99
1, 361965, Note_on_c, 0, 63, 83
1, 361974, Note_off_c, 0, 66, 58
1, 361980, Note_off_c, 0, 59, 62
1, 362002, Note_off_c, 0, 75, 63
1, 362025, Note_on_c, 0, 61, 68
1, 362028, Note_off_c, 0, 63, 63
1, 362039, Note_on_c, 0, 73, 101
1, 362042, Note_off_c, 0, 61, 69
1, 362048, Note_on_c, 0, 75, 53
1, 362064, Note_off_c, 0, 75, 66
1, 362083, Note_off_c, 0, 73, 67
1, 362094, Note_on_c, 0, 60, 3
1, 362134, Note_off_c, 0, 60, 41
1, 362136, Note_on_c, 0, 59, 93
1, 362143, Note_on_c, 0, 71, 114
1, 362147, Note_on_c, 0, 81, 99
1, 362147, Note_on_c, 0, 69, 98
1, 362218, Note_off_c, 0, 59, 50
1, 362247, Note_on_c, 0, 54, 88
1, 362275, Note_off_c, 0, 69, 44
1, 362281, Note_on_c, 0, 73, 100
1, 362290, Note_off_c, 0, 71, 58
1, 362306, Note_off_c, 0, 81, 61
1, 362321, Note_off_c, 0, 54, 66
1, 362363, Note_off_c, 0, 73, 65
1, 362382, Note_on_c, 0, 45, 107
1, 362399, Note_on_c, 0, 75, 103
1, 362412, Note_on_c, 0, 73, 47
1, 362430, Note_off_c, 0, 73, 64
1, 362434, Note_off_c, 0, 45, 67
1, 362490, Note_off_c, 0, 75, 60
1, 362681, Note_on_c, 0, 39, 98
1, 362683, Note_on_c, 0, 27, 96
1, 362687, Note_on_c, 0, 70, 105
1, 362690, Note_on_c, 0, 82, 106
1, 362692, Note_on_c, 0, 75, 93
1, 362693, Note_on_c, 0, 79, 82
1, 362718, Control_c, 0, 64, 68
1, 362732, Control_c, 0, 64, 0
1, 362806, Control_c, 0, 64, 62
1, 362821, Control_c, 0, 64, 110
1, 362834, Note_off_c, 0, 82, 62
1, 362836, Control_c, 0, 64, 127
1, 362845, Note_off_c, 0, 79, 61
1, 362860, Note_off_c, 0, 27, 64
1, 362872, Note_off_c, 0, 75, 59
1, 362876, Note_off_c, 0, 70, 63
1, 362906, Note_off_c, 0, 39, 61
1, 363053, Note_on_c, 0, 55, 84
1, 363136, Note_on_c, 0, 58, 78
1, 363150, Note_off_c, 0, 55, 59
1, 363199, Note_off_c, 0, 58, 64
1, 363215, Note_on_c, 0, 67, 67
1, 363222, Note_on_c, 0, 63, 50
1, 363236, Note_on_c, 0, 58, 87
1, 363240, Note_on_c, 0, 55, 80
1, 363242, Note_off_c, 0, 67, 67
1, 363243, Note_on_c, 0, 46, 77
1, 363245, Note_on_c, 0, 51, 75
1, 363245, Note_off_c, 0, 63, 59
1, 363329, Note_on_c, 0, 67, 72
1, 363393, Note_on_c, 0, 70, 85
1, 363422, Note_off_c, 0, 67, 61
1, 363449, Note_on_c, 0, 79, 85
1, 363452, Note_on_c, 0, 75, 83
1, 363463, Note_off_c, 0, 46, 60
1, 363470, Note_off_c, 0, 70, 64
1, 363492, Note_off_c, 0, 55, 48
1, 363509, Note_off_c, 0, 51, 50
1, 363526, Note_on_c, 0, 67, 85
1, 363532, Note_off_c, 0, 58, 60
1, 363545, Note_on_c, 0, 77, 47
1, 363550, Note_off_c, 0, 75, 60
1, 363568, Note_off_c, 0, 77, 56
1, 363569, Note_off_c, 0, 79, 61
1, 363580, Note_on_c, 0, 70, 82
1, 363595, Note_off_c, 0, 67, 63
1, 363622, Note_off_c, 0, 70, 66
1, 363632, Note_on_c, 0, 79, 65
1, 363633, Note_on_c, 0, 75, 72
1, 363645, Note_on_c, 0, 60, 104
1, 363648, Note_off_c, 0, 75, 67
1, 363651, Note_on_c, 0, 48, 86
1, 363658, Note_on_c, 0, 51, 74
1, 363660, Note_off_c, 0, 79, 69
1, 363661, Note_on_c, 0, 55, 66
1, 363675, Note_off_c, 0, 48, 69
1, 363683, Note_off_c, 0, 51, 68
1, 363690, Note_off_c, 0, 55, 64
1, 363694, Note_off_c, 0, 60, 69
1, 363712, Note_on_c, 0, 79, 89
1, 363782, Note_on_c, 0, 82, 85
1, 363801, Note_off_c, 0, 79, 58
1, 363840, Note_on_c, 0, 91, 62
1, 363847, Note_off_c, 0, 82, 65
1, 363857, Note_off_c, 0, 91, 63
1, 363861, Note_on_c, 0, 89, 42
1, 363861, Note_on_c, 0, 86, 32
1, 363875, Note_on_c, 0, 67, 104
1, 363879, Note_on_c, 0, 63, 69
1, 363883, Note_on_c, 0, 55, 93
1, 363886, Note_on_c, 0, 58, 80
1, 363886, Note_off_c, 0, 89, 56
1, 363893, Note_off_c, 0, 86, 44
1, 363926, Note_off_c, 0, 55, 62
1, 363928, Note_off_c, 0, 67, 62
1, 363934, Note_off_c, 0, 63, 63
1, 363938, Note_off_c, 0, 58, 64
1, 363983, Note_on_c, 0, 67, 68
1, 364030, Note_off_c, 0, 67, 62
1, 364031, Note_on_c, 0, 70, 76
1, 364055, Note_off_c, 0, 70, 70
1, 364082, Note_on_c, 0, 79, 72
1, 364096, Note_on_c, 0, 75, 48
1, 364109, Note_off_c, 0, 79, 69
1, 364114, Note_on_c, 0, 70, 106
1, 364117, Note_off_c, 0, 75, 42
1, 364120, Note_on_c, 0, 63, 79
1, 364120, Note_on_c, 0, 58, 88
1, 364120, Note_on_c, 0, 67, 90
1, 364153, Poly_aftertouch_c, 0, 71, 0
1, 364189, Note_on_c, 0, 79, 86
1, 364247, Note_on_c, 0, 82, 88
1, 364281, Note_off_c, 0, 79, 61
1, 364302, Note_on_c, 0, 91, 87
1, 364304, Note_on_c, 0, 87, 85
1, 364325, Note_off_c, 0, 82, 64
1, 364337, Note_off_c, 0, 58, 62
1, 364367, Note_off_c, 0, 70, 55
1, 364378, Note_on_c, 0, 79, 95
1, 364397, Note_on_c, 0, 89, 56
1, 364402, Note_off_c, 0, 87, 63
1, 364410, Note_off_c, 0, 67, 55
1, 364418, Note_off_c, 0, 63, 54
1, 364420, Note_off_c, 0, 89, 56
1, 364423, Note_off_c, 0, 91, 62
1, 364433, Note_on_c, 0, 82, 91
1, 364461, Note_off_c, 0, 79, 64
1, 364499, Note_on_c, 0, 91, 83
1, 364501, Note_off_c, 0, 82, 67
1, 364505, Note_on_c, 0, 87, 84
1, 364512, Note_on_c, 0, 72, 107
1, 364518, Note_on_c, 0, 60, 91
1, 364522, Note_on_c, 0, 63, 69
1, 364522, Note_off_c, 0, 91, 70
1, 364524, Note_off_c, 0, 87, 71
1, 364529, Note_on_c, 0, 67, 63
1, 364540, Note_off_c, 0, 60, 69
1, 364544, Note_off_c, 0, 67, 69
1, 364553, Note_off_c, 0, 63, 65
1, 364555, Note_off_c, 0, 72, 67
1, 364578, Note_on_c, 0, 91, 100
1, 364647, Note_on_c, 0, 94, 100
1, 364678, Note_off_c, 0, 91, 62
1, 364729, Note_on_c, 0, 103, 92
1, 364732, Note_on_c, 0, 79, 108
1, 364735, Note_on_c, 0, 99, 91
1, 364736, Note_on_c, 0, 75, 87
1, 364743, Note_on_c, 0, 70, 80
1, 364744, Note_on_c, 0, 67, 90
1, 364744, Note_off_c, 0, 94, 64
1, 364792, Note_off_c, 0, 79, 62
1, 364809, Note_off_c, 0, 75, 63
1, 364817, Note_off_c, 0, 67, 66
1, 364819, Note_off_c, 0, 70, 63
1, 364829, Note_on_c, 0, 94, 96
1, 364853, Note_off_c, 0, 103, 63
1, 364865, Note_on_c, 0, 97, 24
1, 364877, Note_off_c, 0, 99, 64
1, 364895, Note_on_c, 0, 91, 86
1, 364904, Note_off_c, 0, 97, 30
1, 364905, Note_off_c, 0, 94, 65
1, 364937, Note_off_c, 0, 91, 62
1, 364995, Note_on_c, 0, 72, 104
1, 364998, Note_on_c, 0, 91, 81
1, 364999, Note_on_c, 0, 67, 87
1, 365001, Note_on_c, 0, 63, 82
1, 365005, Note_on_c, 0, 60, 91
1, 365007, Note_on_c, 0, 87, 83
1, 365063, Note_on_c, 0, 82, 88
1, 365093, Note_off_c, 0, 87, 63
1, 365096, Note_off_c, 0, 91, 62
1, 365118, Note_on_c, 0, 79, 84
1, 365124, Note_off_c, 0, 82, 66
1, 365173, Note_off_c, 0, 60, 59
1, 365189, Note_on_c, 0, 91, 95
1, 365194, Note_on_c, 0, 87, 90
1, 365200, Note_off_c, 0, 79, 56
1, 365220, Note_off_c, 0, 72, 53
1, 365257, Note_on_c, 0, 85, 59
1, 365259, Note_on_c, 0, 82, 88
1, 365259, Note_off_c, 0, 63, 52
1, 365286, Note_off_c, 0, 91, 64
1, 365290, Note_off_c, 0, 85, 67
1, 365295, Note_off_c, 0, 87, 65
1, 365321, Note_on_c, 0, 79, 81
1, 365324, Note_off_c, 0, 82, 67
1, 365330, Note_off_c, 0, 67, 55
1, 365342, Note_off_c, 0, 79, 70
1, 365396, Note_on_c, 0, 70, 93
1, 365399, Note_on_c, 0, 63, 77
1, 365399, Note_on_c, 0, 58, 88
1, 365399, Note_on_c, 0, 67, 75
1, 365411, Note_on_c, 0, 75, 88
1, 365414, Note_on_c, 0, 79, 78
1, 365415, Note_off_c, 0, 70, 72
1, 365420, Note_off_c, 0, 67, 70
1, 365429, Note_off_c, 0, 63, 63
1, 365455, Note_off_c, 0, 58, 63
1, 365456, Note_on_c, 0, 70, 83
1, 365466, Note_off_c, 0, 79, 63
1, 365470, Note_on_c, 0, 73, 39
1, 365490, Note_off_c, 0, 75, 61
1, 365499, Note_on_c, 0, 67, 69
1, 365500, Note_off_c, 0, 73, 49
1, 365509, Note_off_c, 0, 70, 66
1, 365530, Note_off_c, 0, 67, 67
1, 365604, Note_on_c, 0, 91, 100
1, 365607, Note_on_c, 0, 67, 88
1, 365608, Note_on_c, 0, 58, 85
1, 365617, Note_on_c, 0, 55, 70
1, 365617, Note_on_c, 0, 65, 74
1, 365624, Note_on_c, 0, 62, 61
1, 365626, Note_on_c, 0, 53, 74
1, 365630, Note_off_c, 0, 67, 69
1, 365634, Note_on_c, 0, 88, 49
1, 365640, Note_off_c, 0, 58, 66
1, 365643, Note_off_c, 0, 65, 67
1, 365646, Note_off_c, 0, 62, 63
1, 365657, Note_off_c, 0, 88, 56
1, 365659, Note_off_c, 0, 53, 66
1, 365663, Note_off_c, 0, 55, 63
1, 365674, Note_on_c, 0, 82, 85
1, 365691, Note_off_c, 0, 91, 62
1, 365727, Note_on_c, 0, 79, 86
1, 365730, Note_off_c, 0, 82, 65
1, 365766, Note_off_c, 0, 79, 66
1, 365829, Note_on_c, 0, 60, 102
1, 365831, Note_on_c, 0, 55, 71
1, 365839, Note_on_c, 0, 48, 87
1, 365841, Note_on_c, 0, 51, 76
1, 365846, Note_on_c, 0, 79, 75
1, 365849, Note_on_c, 0, 75, 79
1, 365875, Control_c, 0, 64, 120
1, 365890, Control_c, 0, 64, 79
1, 365905, Control_c, 0, 64, 63
1, 365907, Note_on_c, 0, 70, 81
1, 365920, Control_c, 0, 64, 49
1, 365931, Note_off_c, 0, 79, 60
1, 365935, Control_c, 0, 64, 47
1, 365942, Note_off_c, 0, 75, 62
1, 365949, Control_c, 0, 64, 53
1, 365971, Control_c, 0, 64, 61
1, 365975, Note_on_c, 0, 67, 79
1, 365981, Note_off_c, 0, 70, 66
1, 365986, Control_c, 0, 64, 69
1, 366001, Control_c, 0, 64, 94
1, 366016, Control_c, 0, 64, 127
1, 366044, Note_on_c, 0, 79, 85
1, 366048, Note_off_c, 0, 48, 60
1, 366051, Note_on_c, 0, 75, 89
1, 366060, Note_off_c, 0, 67, 62
1, 366085, Note_off_c, 0, 60, 58
1, 366118, Note_on_c, 0, 70, 85
1, 366134, Note_off_c, 0, 79, 62
1, 366137, Note_off_c, 0, 51, 53
1, 366148, Note_off_c, 0, 75, 61
1, 366163, Note_off_c, 0, 55, 37
1, 366168, Note_on_c, 0, 67, 78
1, 366174, Note_off_c, 0, 70, 65
1, 366197, Note_off_c, 0, 67, 61
1, 366248, Note_on_c, 0, 58, 86
1, 366257, Note_on_c, 0, 46, 73
1, 366259, Note_on_c, 0, 51, 67
1, 366271, Note_on_c, 0, 55, 51
1, 366275, Note_off_c, 0, 58, 64
1, 366284, Note_on_c, 0, 67, 79
1, 366290, Note_on_c, 0, 63, 79
1, 366301, Note_off_c, 0, 55, 54
1, 366323, Note_off_c, 0, 51, 63
1, 366340, Note_off_c, 0, 46, 63
1, 366358, Note_on_c, 0, 58, 83
1, 366385, Note_off_c, 0, 67, 59
1, 366403, Note_on_c, 0, 55, 74
1, 366447, Note_off_c, 0, 58, 52
1, 366494, Note_off_c, 0, 55, 62
1, 366519, Note_off_c, 0, 63, 30
1, 366577, Note_on_c, 0, 39, 86
1, 366583, Note_on_c, 0, 27, 80
1, 366609, Note_on_c, 0, 66, 73
1, 366624, Control_c, 0, 64, 114
1, 366630, Note_on_c, 0, 63, 53
1, 366639, Control_c, 0, 64, 69
1, 366639, Note_on_c, 0, 54, 60
1, 366654, Control_c, 0, 64, 0
1, 366687, Note_off_c, 0, 54, 61
1, 366735, Control_c, 0, 64, 57
1, 366750, Control_c, 0, 64, 72
1, 366751, Note_off_c, 0, 27, 63
1, 366765, Control_c, 0, 64, 127
1, 366785, Note_off_c, 0, 39, 61
1, 366803, Note_on_c, 0, 54, 65
1, 366835, Note_off_c, 0, 63, 56
1, 366848, Note_off_c, 0, 66, 56
1, 366867, Note_off_c, 0, 54, 64
1, 366877, Note_on_c, 0, 58, 57
1, 366921, Note_off_c, 0, 58, 63
1, 366947, Note_on_c, 0, 66, 40
1, 366982, Note_off_c, 0, 66, 49
1, 366987, Note_on_c, 0, 58, 80
1, 367015, Note_on_c, 0, 46, 48
1, 367018, Note_on_c, 0, 54, 48
1, 367020, Note_on_c, 0, 51, 55
1, 367065, Note_on_c, 0, 66, 66
1, 367124, Note_on_c, 0, 70, 71
1, 367154, Note_off_c, 0, 66, 59
1, 367176, Note_on_c, 0, 78, 74
1, 367178, Note_on_c, 0, 75, 75
1, 367193, Note_off_c, 0, 70, 63
1, 367252, Note_on_c, 0, 66, 82
1, 367256, Note_off_c, 0, 75, 62
1, 367277, Note_off_c, 0, 46, 39
1, 367278, Note_off_c, 0, 78, 61
1, 367293, Note_on_c, 0, 70, 76
1, 367301, Note_off_c, 0, 58, 62
1, 367303, Note_off_c, 0, 66, 63
1, 367328, Note_off_c, 0, 54, 41
1, 367330, Note_on_c, 0, 78, 66
1, 367342, Note_off_c, 0, 70, 66
1, 367342, Note_off_c, 0, 51, 41
1, 367346, Note_on_c, 0, 75, 62
1, 367359, Note_off_c, 0, 78, 66
1, 367362, Note_off_c, 0, 75, 65
1, 367376, Note_on_c, 0, 59, 100
1, 367388, Note_on_c, 0, 79, 13
1, 367390, Note_on_c, 0, 51, 71
1, 367391, Note_on_c, 0, 47, 75
1, 367392, Note_on_c, 0, 54, 78
1, 367417, Note_off_c, 0, 47, 65
1, 367420, Note_off_c, 0, 59, 65
1, 367423, Note_off_c, 0, 54, 67
1, 367430, Note_off_c, 0, 51, 64
1, 367432, Note_off_c, 0, 79, 47
1, 367433, Note_on_c, 0, 78, 88
1, 367484, Note_on_c, 0, 82, 75
1, 367505, Note_off_c, 0, 78, 62
1, 367534, Note_on_c, 0, 90, 65
1, 367547, Note_on_c, 0, 87, 60
1, 367547, Note_off_c, 0, 82, 65
1, 367566, Note_off_c, 0, 90, 65
1, 367583, Note_off_c, 0, 87, 61
1, 367593, Note_on_c, 0, 66, 96
1, 367598, Note_on_c, 0, 63, 84
1, 367603, Control_c, 0, 64, 89
1, 367605, Note_on_c, 0, 54, 74
1, 367608, Note_on_c, 0, 58, 72
1, 367618, Control_c, 0, 64, 78
1, 367633, Control_c, 0, 64, 79
1, 367637, Note_off_c, 0, 54, 66
1, 367641, Note_off_c, 0, 66, 61
1, 367645, Note_off_c, 0, 58, 61
1, 367646, Control_c, 0, 64, 89
1, 367658, Note_off_c, 0, 63, 61
1, 367661, Control_c, 0, 64, 112
1, 367676, Control_c, 0, 64, 127
1, 367690, Note_on_c, 0, 66, 65
1, 367721, Note_off_c, 0, 66, 60
1, 367728, Note_on_c, 0, 70, 71
1, 367756, Note_off_c, 0, 70, 68
1, 367771, Note_on_c, 0, 78, 73
1, 367789, Note_on_c, 0, 75, 44
1, 367795, Note_off_c, 0, 78, 68
1, 367813, Note_off_c, 0, 75, 52
1, 367824, Note_on_c, 0, 70, 102
1, 367841, Note_on_c, 0, 66, 67
1, 367843, Note_on_c, 0, 58, 71
1, 367850, Note_on_c, 0, 63, 61
1, 367854, Control_c, 0, 64, 99
1, 367858, Note_on_c, 0, 61, 45
1, 367869, Control_c, 0, 64, 82
1, 367872, Note_on_c, 0, 71, 33
1, 367878, Note_off_c, 0, 58, 62
1, 367884, Control_c, 0, 64, 73
1, 367887, Note_on_c, 0, 78, 85
1, 367897, Note_off_c, 0, 61, 45
1, 367899, Control_c, 0, 64, 67
1, 367909, Note_off_c, 0, 71, 42
1, 367913, Control_c, 0, 64, 67
1, 367928, Control_c, 0, 64, 70
1, 367943, Control_c, 0, 64, 77
1, 367944, Note_on_c, 0, 82, 81
1, 367958, Control_c, 0, 64, 93
1, 367972, Control_c, 0, 64, 127
1, 367984, Note_off_c, 0, 78, 62
1, 367994, Note_on_c, 0, 90, 82
1, 367999, Note_on_c, 0, 87, 82
1, 368013, Note_off_c, 0, 82, 65
1, 368072, Note_on_c, 0, 78, 90
1, 368084, Note_off_c, 0, 87, 64
1, 368109, Note_off_c, 0, 70, 60
1, 368115, Note_off_c, 0, 90, 63
1, 368120, Note_on_c, 0, 82, 81
1, 368145, Note_off_c, 0, 78, 64
1, 368154, Note_off_c, 0, 66, 39
1, 368155, Note_off_c, 0, 63, 21
1, 368174, Note_on_c, 0, 90, 73
1, 368186, Note_off_c, 0, 82, 66
1, 368188, Note_on_c, 0, 71, 94
1, 368189, Note_on_c, 0, 87, 68
1, 368195, Note_on_c, 0, 59, 80
1, 368195, Note_on_c, 0, 63, 68
1, 368200, Note_on_c, 0, 66, 69
1, 368218, Note_off_c, 0, 90, 63
1, 368222, Note_off_c, 0, 87, 65
1, 368228, Note_off_c, 0, 59, 68
1, 368234, Note_off_c, 0, 71, 66
1, 368236, Note_off_c, 0, 66, 66
1, 368254, Note_off_c, 0, 63, 61
1, 368265, Note_on_c, 0, 90, 78
1, 368328, Note_on_c, 0, 94, 88
1, 368350, Note_off_c, 0, 90, 59
1, 368411, Note_on_c, 0, 78, 92
1, 368412, Note_on_c, 0, 75, 83
1, 368412, Note_on_c, 0, 102, 87
1, 368420, Note_off_c, 0, 94, 64
1, 368422, Note_on_c, 0, 99, 76
1, 368425, Control_c, 0, 64, 109
1, 368440, Control_c, 0, 64, 84
1, 368443, Note_on_c, 0, 70, 40
1, 368455, Note_on_c, 0, 68, 17
1, 368455, Control_c, 0, 64, 72
1, 368460, Note_on_c, 0, 67, 57
1, 368469, Control_c, 0, 64, 73
1, 368481, Note_off_c, 0, 70, 49
1, 368484, Control_c, 0, 64, 82
1, 368485, Note_off_c, 0, 78, 62
1, 368496, Note_off_c, 0, 68, 49
1, 368498, Note_off_c, 0, 75, 61
1, 368499, Control_c, 0, 64, 99
1, 368504, Note_on_c, 0, 94, 83
1, 368508, Note_off_c, 0, 67, 62
1, 368514, Control_c, 0, 64, 127
1, 368540, Note_off_c, 0, 99, 63
1, 368541, Note_off_c, 0, 102, 64
1, 368546, Poly_aftertouch_c, 0, 71, 0
1, 368558, Note_on_c, 0, 90, 77
1, 368567, Note_off_c, 0, 94, 63
1, 368594, Note_off_c, 0, 90, 61
1, 368658, Note_on_c, 0, 71, 84
1, 368663, Control_c, 0, 64, 97
1, 368670, Note_on_c, 0, 90, 57
1, 368675, Note_on_c, 0, 59, 70
1, 368675, Note_on_c, 0, 66, 63
1, 368677, Control_c, 0, 64, 80
1, 368678, Note_on_c, 0, 87, 68
1, 368690, Note_on_c, 0, 63, 56
1, 368692, Control_c, 0, 64, 71
1, 368703, Note_on_c, 0, 61, 42
1, 368707, Control_c, 0, 64, 67
1, 368722, Control_c, 0, 64, 68
1, 368728, Note_on_c, 0, 82, 74
1, 368737, Control_c, 0, 64, 73
1, 368747, Note_off_c, 0, 87, 58
1, 368751, Control_c, 0, 64, 81
1, 368761, Note_off_c, 0, 90, 63
1, 368766, Control_c, 0, 64, 103
1, 368781, Control_c, 0, 64, 127
1, 368784, Note_on_c, 0, 78, 76
1, 368791, Note_off_c, 0, 82, 64
1, 368823, Note_off_c, 0, 59, 61
1, 368848, Note_on_c, 0, 90, 75
1, 368851, Note_on_c, 0, 87, 81
1, 368857, Note_off_c, 0, 78, 64
1, 368867, Note_off_c, 0, 61, 30
1, 368868, Note_off_c, 0, 71, 61
1, 368889, Note_off_c, 0, 63, 54
1, 368911, Note_on_c, 0, 82, 79
1, 368939, Note_off_c, 0, 87, 62
1, 368943, Note_off_c, 0, 66, 49
1, 368943, Note_off_c, 0, 90, 64
1, 368968, Note_on_c, 0, 78, 86
1, 368976, Note_off_c, 0, 82, 64
1, 368995, Note_off_c, 0, 78, 64
1, 369059, Note_on_c, 0, 70, 62
1, 369063, Note_on_c, 0, 58, 67
1, 369071, Note_on_c, 0, 63, 46
1, 369073, Note_on_c, 0, 75, 77
1, 369078, Note_off_c, 0, 70, 64
1, 369082, Note_on_c, 0, 78, 56
1, 369094, Note_off_c, 0, 58, 66
1, 369097, Note_off_c, 0, 63, 54
1, 369127, Poly_aftertouch_c, 0, 66, 127
1, 369134, Note_on_c, 0, 70, 77
1, 369137, Note_off_c, 0, 75, 60
1, 369144, Poly_aftertouch_c, 0, 66, 0
1, 369150, Note_off_c, 0, 78, 62
1, 369162, Note_on_c, 0, 66, 38
1, 369173, Note_off_c, 0, 70, 62
1, 369193, Note_off_c, 0, 66, 63
1, 369278, Control_c, 0, 64, 104
1, 369285, Note_on_c, 0, 66, 64
1, 369286, Note_on_c, 0, 90, 72
1, 369287, Note_on_c, 0, 54, 58
1, 369292, Control_c, 0, 64, 80
1, 369298, Note_on_c, 0, 87, 57
1, 369307, Control_c, 0, 64, 67
1, 369309, Note_on_c, 0, 58, 50
1, 369317, Note_off_c, 0, 66, 65
1, 369322, Control_c, 0, 64, 66
1, 369324, Note_on_c, 0, 63, 32
1, 369337, Control_c, 0, 64, 72
1, 369341, Note_off_c, 0, 58, 66
1, 369350, Note_on_c, 0, 82, 75
1, 369352, Control_c, 0, 64, 87
1, 369354, Note_off_c, 0, 54, 64
1, 369361, Note_off_c, 0, 63, 31
1, 369366, Control_c, 0, 64, 127
1, 369396, Note_off_c, 0, 87, 59
1, 369402, Note_off_c, 0, 90, 64
1, 369423, Note_on_c, 0, 78, 75
1, 369425, Note_off_c, 0, 82, 64
1, 369457, Note_off_c, 0, 78, 64
1, 369539, Note_on_c, 0, 59, 56
1, 369553, Note_on_c, 0, 78, 62
1, 369554, Note_on_c, 0, 75, 62
1, 369558, Note_on_c, 0, 47, 48
1, 369562, Note_on_c, 0, 54, 41
1, 369565, Note_on_c, 0, 51, 49
1, 369574, Control_c, 0, 64, 90
1, 369589, Control_c, 0, 64, 69
1, 369604, Control_c, 0, 64, 52
1, 369618, Control_c, 0, 64, 0
1, 369623, Note_on_c, 0, 71, 64
1, 369633, Control_c, 0, 64, 11
1, 369648, Control_c, 0, 64, 27
1, 369649, Note_off_c, 0, 75, 49
1, 369660, Note_off_c, 0, 78, 58
1, 369663, Control_c, 0, 64, 42
1, 369678, Control_c, 0, 64, 55
1, 369692, Control_c, 0, 64, 63
1, 369699, Note_on_c, 0, 66, 58
1, 369707, Control_c, 0, 64, 70
1, 369730, Control_c, 0, 64, 85
1, 369735, Note_off_c, 0, 71, 56
1, 369745, Control_c, 0, 64, 127
1, 369778, Note_off_c, 0, 47, 49
1, 369800, Note_on_c, 0, 78, 62
1, 369801, Note_on_c, 0, 75, 55
1, 369802, Note_off_c, 0, 66, 59
1, 369823, Note_off_c, 0, 59, 60
1, 369840, Note_off_c, 0, 51, 55
1, 369888, Note_off_c, 0, 54, 35
1, 369893, Note_on_c, 0, 71, 53
1, 369924, Note_off_c, 0, 75, 51
1, 369931, Note_off_c, 0, 78, 55
1, 369976, Note_off_c, 0, 71, 62
1, 370000, Note_on_c, 0, 66, 50
1, 370043, Note_off_c, 0, 66, 60
1, 370126, Note_on_c, 0, 58, 36
1, 370137, Note_on_c, 0, 46, 34
1, 370157, Note_on_c, 0, 54, 32
1, 370159, Note_on_c, 0, 51, 35
1, 370160, Control_c, 0, 64, 104
1, 370175, Control_c, 0, 64, 80
1, 370177, Note_on_c, 0, 66, 35
1, 370189, Control_c, 0, 64, 64
1, 370204, Note_on_c, 0, 63, 19
1, 370204, Control_c, 0, 64, 39
1, 370219, Control_c, 0, 64, 0
1, 370234, Control_c, 0, 64, 11
1, 370238, Note_off_c, 0, 54, 49
1, 370249, Control_c, 0, 64, 31
1, 370256, Note_off_c, 0, 58, 0
1, 370263, Control_c, 0, 64, 47
1, 370278, Control_c, 0, 64, 58
1, 370293, Poly_aftertouch_c, 0, 58, 127
1, 370293, Control_c, 0, 64, 65
1, 370308, Control_c, 0, 64, 73
1, 370323, Control_c, 0, 64, 98
1, 370338, Control_c, 0, 64, 127
1, 370385, Note_off_c, 0, 46, 38
1, 370469, Poly_aftertouch_c, 0, 58, 0
1, 370496, Note_off_c, 0, 51, 41
1, 370499, Note_on_c, 0, 54, 30
1, 370544, Note_off_c, 0, 54, 50
1, 370593, Note_off_c, 0, 66, 34
1, 370610, Note_off_c, 0, 63, 38
1, 370776, Control_c, 0, 67, 19
1, 370791, Control_c, 0, 67, 31
1, 370806, Control_c, 0, 67, 47
1, 370821, Control_c, 0, 67, 59
1, 370836, Control_c, 0, 67, 71
1, 370851, Control_c, 0, 67, 82
1, 370865, Control_c, 0, 67, 93
1, 370880, Control_c, 0, 67, 104
1, 370895, Control_c, 0, 67, 115
1, 370910, Control_c, 0, 67, 124
1, 370925, Control_c, 0, 67, 127
1, 370975, Note_on_c, 0, 50, 30
1, 371006, Note_on_c, 0, 82, 51
1, 371013, Control_c, 0, 64, 98
1, 371028, Control_c, 0, 64, 83
1, 371043, Control_c, 0, 64, 71
1, 371057, Control_c, 0, 64, 61
1, 371072, Control_c, 0, 64, 41
1, 371087, Control_c, 0, 64, 36
1, 371095, Poly_aftertouch_c, 0, 70, 127
1, 371102, Control_c, 0, 64, 42
1, 371117, Control_c, 0, 64, 48
1, 371131, Control_c, 0, 64, 56
1, 371146, Control_c, 0, 64, 63
1, 371161, Control_c, 0, 64, 70
1, 371176, Control_c, 0, 64, 80
1, 371191, Control_c, 0, 64, 101
1, 371196, Note_off_c, 0, 50, 40
1, 371213, Control_c, 0, 64, 127
1, 371236, Note_on_c, 0, 78, 34
1, 371248, Note_on_c, 0, 58, 34
1, 371286, Poly_aftertouch_c, 0, 70, 0
1, 371289, Note_off_c, 0, 58, 60
1, 371296, Note_off_c, 0, 82, 35
1, 371339, Note_on_c, 0, 65, 41
1, 371365, Note_on_c, 0, 77, 37
1, 371396, Note_off_c, 0, 78, 29
1, 371423, Note_off_c, 0, 77, 58
1, 371430, Note_off_c, 0, 65, 39
1, 371452, Note_on_c, 0, 83, 56
1, 371454, Note_on_c, 0, 59, 43
1, 371478, Note_on_c, 0, 71, 32
1, 371494, Note_off_c, 0, 59, 54
1, 371528, Note_off_c, 0, 71, 43
1, 371533, Note_on_c, 0, 65, 39
1, 371545, Note_on_c, 0, 80, 46
1, 371577, Note_off_c, 0, 65, 61
1, 371582, Note_off_c, 0, 83, 50
1, 371590, Note_on_c, 0, 66, 53
1, 371607, Note_on_c, 0, 78, 49
1, 371629, Note_off_c, 0, 80, 56
1, 371632, Note_off_c, 0, 66, 62
1, 371632, Note_off_c, 0, 78, 61
1, 371658, Note_on_c, 0, 68, 57
1, 371667, Note_on_c, 0, 77, 49
1, 371726, Note_off_c, 0, 68, 58
1, 371727, Note_on_c, 0, 78, 57
1, 371730, Note_on_c, 0, 66, 52
1, 371741, Note_off_c, 0, 77, 49
1, 371761, Note_on_c, 0, 65, 56
1, 371766, Note_on_c, 0, 80, 52
1, 371781, Note_off_c, 0, 66, 58
1, 371799, Note_off_c, 0, 78, 62
1, 371800, Note_off_c, 0, 65, 61
1, 371808, Note_off_c, 0, 80, 54
1, 371822, Note_on_c, 0, 83, 77
1, 371837, Note_on_c, 0, 71, 61
1, 371848, Note_on_c, 0, 64, 41
1, 371877, Note_off_c, 0, 64, 55
1, 371892, Note_on_c, 0, 63, 61
1, 371897, Note_on_c, 0, 78, 67
1, 371924, Note_off_c, 0, 71, 54
1, 371932, Note_off_c, 0, 63, 63
1, 371936, Note_off_c, 0, 83, 60
1, 371963, Note_on_c, 0, 77, 64
1, 371965, Note_on_c, 0, 62, 60
1, 372001, Note_off_c, 0, 62, 62
1, 372007, Control_c, 0, 64, 97
1, 372008, Note_off_c, 0, 78, 60
1, 372021, Control_c, 0, 64, 74
1, 372031, Note_on_c, 0, 51, 66
1, 372031, Note_off_c, 0, 77, 63
1, 372036, Control_c, 0, 64, 60
1, 372043, Note_on_c, 0, 83, 80
1, 372051, Control_c, 0, 64, 51
1, 372058, Note_on_c, 0, 71, 56
1, 372066, Control_c, 0, 64, 59
1, 372081, Control_c, 0, 64, 65
1, 372095, Control_c, 0, 64, 75
1, 372110, Control_c, 0, 64, 100
1, 372111, Note_off_c, 0, 51, 64
1, 372113, Note_on_c, 0, 59, 60
1, 372120, Note_on_c, 0, 80, 65
1, 372121, Note_off_c, 0, 71, 56
1, 372125, Control_c, 0, 64, 127
1, 372147, Note_off_c, 0, 59, 63
1, 372149, Note_off_c, 0, 83, 62
1, 372164, Note_on_c, 0, 66, 62
1, 372172, Note_on_c, 0, 78, 63
1, 372200, Note_off_c, 0, 66, 64
1, 372201, Note_off_c, 0, 80, 63
1, 372228, Note_on_c, 0, 84, 86
1, 372234, Note_off_c, 0, 78, 63
1, 372239, Note_on_c, 0, 72, 71
1, 372243, Note_on_c, 0, 60, 71
1, 372296, Note_on_c, 0, 66, 70
1, 372307, Note_on_c, 0, 81, 73
1, 372311, Note_off_c, 0, 60, 58
1, 372317, Note_off_c, 0, 72, 60
1, 372334, Note_off_c, 0, 84, 62
1, 372338, Note_on_c, 0, 80, 71
1, 372344, Note_on_c, 0, 68, 69
1, 372379, Note_off_c, 0, 81, 64
1, 372383, Note_off_c, 0, 66, 61
1, 372403, Note_off_c, 0, 68, 61
1, 372404, Note_on_c, 0, 69, 72
1, 372404, Note_on_c, 0, 78, 74
1, 372460, Note_on_c, 0, 81, 68
1, 372460, Note_off_c, 0, 78, 64
1, 372462, Note_on_c, 0, 68, 64
1, 372466, Note_off_c, 0, 69, 61
1, 372472, Note_off_c, 0, 80, 63
1, 372484, Note_off_c, 0, 81, 71
1, 372514, Note_on_c, 0, 66, 65
1, 372534, Note_off_c, 0, 68, 61
1, 372576, Note_off_c, 0, 66, 61
1, 372586, Note_on_c, 0, 90, 90
1, 372592, Note_on_c, 0, 65, 68
1, 372597, Note_on_c, 0, 78, 74
1, 372661, Note_off_c, 0, 65, 59
1, 372662, Note_on_c, 0, 64, 58
1, 372665, Note_on_c, 0, 85, 73
1, 372693, Note_on_c, 0, 63, 58
1, 372708, Note_off_c, 0, 64, 64
1, 372712, Note_off_c, 0, 78, 53
1, 372727, Note_off_c, 0, 63, 63
1, 372742, Note_off_c, 0, 90, 62
1, 372743, Note_on_c, 0, 84, 68
1, 372800, Note_off_c, 0, 85, 56
1, 372836, Note_on_c, 0, 53, 59
1, 372843, Control_c, 0, 64, 89
1, 372858, Control_c, 0, 64, 72
1, 372867, Note_on_c, 0, 90, 72
1, 372869, Note_off_c, 0, 84, 62
1, 372873, Control_c, 0, 64, 61
1, 372888, Control_c, 0, 64, 52
1, 372890, Note_on_c, 0, 78, 60
1, 372903, Control_c, 0, 64, 56
1, 372917, Control_c, 0, 64, 59
1, 372932, Control_c, 0, 64, 63
1, 372947, Control_c, 0, 64, 68
1, 372962, Note_off_c, 0, 53, 64
1, 372962, Control_c, 0, 64, 77
1, 372964, Note_on_c, 0, 63, 59
1, 372977, Control_c, 0, 64, 95
1, 372986, Note_on_c, 0, 82, 66
1, 372991, Control_c, 0, 64, 127
1, 373000, Note_off_c, 0, 90, 62
1, 373007, Note_off_c, 0, 63, 59
1, 373009, Note_off_c, 0, 78, 53
1, 373038, Note_on_c, 0, 81, 66
1, 373050, Note_on_c, 0, 69, 45
1, 373055, Note_off_c, 0, 82, 64
1, 373078, Note_off_c, 0, 69, 51
1, 373092, Note_off_c, 0, 81, 60
1, 373097, Note_on_c, 0, 89, 91
1, 373104, Note_on_c, 0, 77, 80
1, 373116, Note_on_c, 0, 71, 72
1, 373134, Note_on_c, 0, 88, 41
1, 373157, Note_on_c, 0, 73, 71
1, 373162, Note_on_c, 0, 82, 81
1, 373167, Note_off_c, 0, 88, 35
1, 373175, Note_off_c, 0, 71, 55
1, 373182, Note_off_c, 0, 89, 61
1, 373193, Note_off_c, 0, 77, 60
1, 373203, Note_off_c, 0, 73, 65
1, 373215, Note_on_c, 0, 72, 65
1, 373220, Note_on_c, 0, 81, 74
1, 373242, Note_off_c, 0, 72, 67
1, 373248, Note_off_c, 0, 82, 63
1, 373274, Control_c, 0, 64, 96
1, 373282, Note_on_c, 0, 88, 92
1, 373288, Note_on_c, 0, 56, 79
1, 373289, Control_c, 0, 64, 77
1, 373292, Note_on_c, 0, 76, 81
1, 373293, Note_off_c, 0, 81, 65
1, 373304, Control_c, 0, 64, 65
1, 373319, Control_c, 0, 64, 61
1, 373331, Note_on_c, 0, 63, 49
1, 373333, Control_c, 0, 64, 65
1, 373348, Note_on_c, 0, 82, 82
1, 373348, Control_c, 0, 64, 69
1, 373354, Note_on_c, 0, 64, 67
1, 373356, Note_off_c, 0, 76, 62
1, 373358, Note_off_c, 0, 63, 56
1, 373361, Note_off_c, 0, 56, 63
1, 373363, Control_c, 0, 64, 77
1, 373378, Control_c, 0, 64, 94
1, 373383, Note_off_c, 0, 88, 65
1, 373384, Note_off_c, 0, 64, 66
1, 373393, Control_c, 0, 64, 127
1, 373398, Note_on_c, 0, 68, 75
1, 373405, Note_on_c, 0, 81, 71
1, 373427, Note_off_c, 0, 82, 63
1, 373461, Note_off_c, 0, 68, 60
1, 373469, Note_on_c, 0, 87, 90
1, 373470, Note_off_c, 0, 81, 65
1, 373477, Note_on_c, 0, 75, 76
1, 373483, Note_on_c, 0, 70, 71
1, 373527, Note_on_c, 0, 73, 64
1, 373537, Note_on_c, 0, 82, 76
1, 373559, Note_off_c, 0, 73, 65
1, 373566, Note_off_c, 0, 70, 61
1, 373578, Note_off_c, 0, 75, 55
1, 373579, Note_off_c, 0, 87, 61
1, 373587, Note_on_c, 0, 71, 69
1, 373590, Note_on_c, 0, 81, 66
1, 373615, Note_off_c, 0, 71, 64
1, 373635, Note_off_c, 0, 82, 62
1, 373651, Control_c, 0, 64, 97
1, 373665, Control_c, 0, 64, 73
1, 373671, Note_off_c, 0, 81, 63
1, 373676, Note_on_c, 0, 58, 62
1, 373680, Control_c, 0, 64, 55
1, 373683, Note_on_c, 0, 87, 67
1, 373687, Note_on_c, 0, 75, 43
1, 373695, Control_c, 0, 64, 48
1, 373710, Control_c, 0, 64, 57
1, 373725, Control_c, 0, 64, 61
1, 373739, Control_c, 0, 64, 65
1, 373754, Control_c, 0, 64, 72
1, 373763, Note_on_c, 0, 65, 56
1, 373763, Note_on_c, 0, 82, 54
1, 373763, Note_off_c, 0, 58, 62
1, 373769, Control_c, 0, 64, 94
1, 373784, Control_c, 0, 64, 127
1, 373795, Note_off_c, 0, 87, 63
1, 373806, Note_off_c, 0, 75, 39
1, 373818, Note_on_c, 0, 68, 62
1, 373819, Note_on_c, 0, 81, 58
1, 373829, Note_off_c, 0, 65, 60
1, 373847, Note_off_c, 0, 82, 64
1, 373850, Note_off_c, 0, 68, 66
1, 373865, Note_off_c, 0, 81, 61
1, 373872, Note_on_c, 0, 70, 60
1, 373889, Note_on_c, 0, 86, 70
1, 373900, Note_on_c, 0, 74, 56
1, 373923, Note_off_c, 0, 74, 53
1, 373924, Note_off_c, 0, 70, 59
1, 373933, Note_on_c, 0, 71, 69
1, 373960, Note_on_c, 0, 80, 64
1, 373965, Note_off_c, 0, 71, 59
1, 373984, Note_off_c, 0, 86, 59
1, 373990, Note_on_c, 0, 78, 70
1, 373997, Note_on_c, 0, 70, 57
1, 374030, Note_off_c, 0, 70, 65
1, 374037, Note_off_c, 0, 80, 60
1, 374040, Note_off_c, 0, 78, 59
1, 374055, Note_on_c, 0, 77, 68
1, 374058, Note_on_c, 0, 68, 64
1, 374088, Note_off_c, 0, 68, 64
1, 374090, Note_on_c, 0, 66, 63
1, 374094, Note_off_c, 0, 77, 57
1, 374102, Note_on_c, 0, 78, 60
1, 374141, Note_off_c, 0, 66, 59
1, 374153, Note_on_c, 0, 80, 67
1, 374159, Note_on_c, 0, 65, 66
1, 374178, Note_off_c, 0, 78, 58
1, 374220, Note_off_c, 0, 65, 46
1, 374224, Note_off_c, 0, 80, 63
1, 374241, Note_on_c, 0, 81, 73
1, 374246, Note_on_c, 0, 64, 54
1, 374256, Note_on_c, 0, 69, 65
1, 374276, Note_on_c, 0, 63, 56
1, 374290, Note_off_c, 0, 64, 61
1, 374310, Note_off_c, 0, 63, 65
1, 374320, Note_off_c, 0, 69, 62
1, 374340, Note_on_c, 0, 78, 49
1, 374351, Note_off_c, 0, 81, 65
1, 374356, Note_on_c, 0, 62, 49
1, 374397, Note_on_c, 0, 77, 46
1, 374407, Note_off_c, 0, 78, 46
1, 374470, Note_on_c, 0, 50, 50
1, 374486, Note_off_c, 0, 62, 32
1, 374488, Control_c, 0, 64, 90
1, 374493, Note_off_c, 0, 77, 60
1, 374503, Control_c, 0, 64, 71
1, 374505, Note_on_c, 0, 82, 65
1, 374518, Control_c, 0, 64, 56
1, 374532, Note_on_c, 0, 70, 41
1, 374533, Control_c, 0, 64, 40
1, 374548, Control_c, 0, 64, 46
1, 374562, Control_c, 0, 64, 53
1, 374577, Control_c, 0, 64, 60
1, 374592, Control_c, 0, 64, 67
1, 374602, Note_off_c, 0, 50, 62
1, 374607, Note_on_c, 0, 58, 48
1, 374608, Control_c, 0, 64, 81
1, 374623, Control_c, 0, 64, 120
1, 374627, Note_on_c, 0, 78, 47
1, 374638, Control_c, 0, 64, 127
1, 374658, Note_off_c, 0, 82, 59
1, 374664, Note_off_c, 0, 58, 59
1, 374666, Note_off_c, 0, 70, 52
1, 374701, Note_on_c, 0, 65, 50
1, 374703, Note_on_c, 0, 77, 54
1, 374725, Note_off_c, 0, 78, 59
1, 374753, Note_off_c, 0, 77, 60
1, 374757, Note_off_c, 0, 65, 50
1, 374766, Note_on_c, 0, 83, 77
1, 374771, Note_on_c, 0, 59, 63
1, 374780, Note_on_c, 0, 71, 59
1, 374819, Note_off_c, 0, 59, 57
1, 374836, Note_on_c, 0, 65, 58
1, 374842, Note_on_c, 0, 80, 69
1, 374850, Note_off_c, 0, 71, 59
1, 374878, Note_off_c, 0, 65, 60
1, 374882, Note_on_c, 0, 66, 65
1, 374889, Note_off_c, 0, 83, 58
1, 374903, Note_on_c, 0, 78, 61
1, 374919, Note_off_c, 0, 66, 62
1, 374937, Note_on_c, 0, 68, 73
1, 374937, Note_off_c, 0, 78, 65
1, 374938, Note_off_c, 0, 80, 62
1, 374946, Note_on_c, 0, 77, 75
1, 375006, Note_on_c, 0, 78, 80
1, 375010, Note_on_c, 0, 66, 63
1, 375024, Note_off_c, 0, 68, 60
1, 375043, Note_on_c, 0, 65, 65
1, 375047, Note_off_c, 0, 77, 62
1, 375059, Note_on_c, 0, 80, 73
1, 375075, Note_off_c, 0, 66, 61
1, 375087, Note_off_c, 0, 65, 61
1, 375099, Note_off_c, 0, 78, 63
1, 375115, Note_off_c, 0, 80, 65
1, 375116, Note_on_c, 0, 64, 73
1, 375119, Note_on_c, 0, 83, 89
1, 375128, Note_on_c, 0, 71, 80
1, 375157, Note_off_c, 0, 64, 58
1, 375176, Note_on_c, 0, 63, 69
1, 375192, Note_on_c, 0, 78, 81
1, 375208, Note_off_c, 0, 63, 64
1, 375231, Note_on_c, 0, 62, 67
1, 375233, Note_off_c, 0, 83, 60
1, 375239, Note_on_c, 0, 77, 80
1, 375244, Note_off_c, 0, 71, 59
1, 375286, Note_off_c, 0, 78, 61
1, 375289, Note_off_c, 0, 62, 62
1, 375304, Note_on_c, 0, 51, 86
1, 375311, Control_c, 0, 64, 86
1, 375326, Control_c, 0, 64, 64
1, 375327, Note_on_c, 0, 83, 91
1, 375328, Note_off_c, 0, 77, 64
1, 375339, Note_on_c, 0, 71, 76
1, 375341, Control_c, 0, 64, 29
1, 375356, Control_c, 0, 64, 40
1, 375371, Control_c, 0, 64, 55
1, 375385, Control_c, 0, 64, 64
1, 375391, Note_on_c, 0, 59, 69
1, 375396, Note_on_c, 0, 80, 76
1, 375397, Note_off_c, 0, 51, 64
1, 375400, Control_c, 0, 64, 74
1, 375412, Note_off_c, 0, 71, 58
1, 375416, Control_c, 0, 64, 109
1, 375431, Control_c, 0, 64, 127
1, 375436, Note_off_c, 0, 83, 62
1, 375444, Note_off_c, 0, 59, 57
1, 375453, Note_on_c, 0, 78, 72
1, 375454, Note_on_c, 0, 66, 67
1, 375479, Note_off_c, 0, 80, 63
1, 375483, Note_off_c, 0, 66, 66
1, 375507, Note_on_c, 0, 84, 94
1, 375516, Note_on_c, 0, 72, 80
1, 375520, Note_on_c, 0, 60, 77
1, 375520, Note_off_c, 0, 78, 61
1, 375576, Note_on_c, 0, 66, 77
1, 375577, Note_on_c, 0, 81, 81
1, 375590, Note_off_c, 0, 72, 62
1, 375614, Note_on_c, 0, 80, 78
1, 375615, Note_off_c, 0, 84, 61
1, 375616, Note_off_c, 0, 60, 57
1, 375624, Note_on_c, 0, 68, 83
1, 375657, Note_off_c, 0, 81, 64
1, 375662, Note_off_c, 0, 66, 61
1, 375677, Note_on_c, 0, 78, 85
1, 375683, Note_on_c, 0, 69, 80
1, 375683, Note_off_c, 0, 68, 63
1, 375730, Note_on_c, 0, 81, 73
1, 375745, Note_off_c, 0, 78, 64
1, 375754, Note_on_c, 0, 68, 76
1, 375755, Note_off_c, 0, 80, 64
1, 375762, Note_off_c, 0, 69, 61
1, 375773, Note_off_c, 0, 81, 67
1, 375787, Note_on_c, 0, 66, 74
1, 375817, Note_off_c, 0, 68, 60
1, 375843, Note_off_c, 0, 66, 61
1, 375867, Note_on_c, 0, 65, 73
1, 375867, Note_on_c, 0, 90, 94
1, 375877, Note_on_c, 0, 78, 83
1, 375936, Note_on_c, 0, 64, 58
1, 375942, Note_on_c, 0, 85, 82
1, 375942, Note_off_c, 0, 65, 57
1, 375966, Note_on_c, 0, 63, 58
1, 375973, Note_off_c, 0, 64, 64
1, 375994, Note_off_c, 0, 63, 64
1, 375994, Note_off_c, 0, 78, 52
1, 376011, Note_on_c, 0, 84, 72
1, 376025, Note_off_c, 0, 90, 60
1, 376058, Note_off_c, 0, 85, 61
1, 376081, Note_on_c, 0, 53, 67
1, 376090, Control_c, 0, 64, 104
1, 376105, Control_c, 0, 64, 77
1, 376120, Control_c, 0, 64, 65
1, 376130, Note_on_c, 0, 90, 79
1, 376130, Note_off_c, 0, 84, 62
1, 376134, Control_c, 0, 64, 56
1, 376139, Note_on_c, 0, 78, 65
1, 376149, Control_c, 0, 64, 59
1, 376164, Control_c, 0, 64, 63
1, 376179, Control_c, 0, 64, 66
1, 376194, Control_c, 0, 64, 75
1, 376195, Note_off_c, 0, 53, 62
1, 376201, Note_on_c, 0, 63, 64
1, 376210, Control_c, 0, 64, 93
1, 376224, Control_c, 0, 64, 127
1, 376242, Note_on_c, 0, 82, 71
1, 376248, Note_off_c, 0, 63, 58
1, 376267, Note_off_c, 0, 90, 63
1, 376280, Note_on_c, 0, 69, 62
1, 376283, Note_off_c, 0, 78, 63
1, 376301, Note_on_c, 0, 81, 68
1, 376321, Note_off_c, 0, 69, 51
1, 376322, Note_off_c, 0, 82, 62
1, 376356, Note_on_c, 0, 71, 70
1, 376361, Note_on_c, 0, 89, 94
1, 376367, Note_on_c, 0, 77, 81
1, 376371, Note_off_c, 0, 81, 64
1, 376403, Note_on_c, 0, 73, 74
1, 376414, Note_off_c, 0, 71, 58
1, 376436, Note_on_c, 0, 82, 58
1, 376443, Note_off_c, 0, 73, 64
1, 376456, Note_on_c, 0, 72, 71
1, 376458, Note_on_c, 0, 83, 72
1, 376461, Note_off_c, 0, 89, 60
1, 376479, Note_off_c, 0, 72, 68
1, 376488, Note_off_c, 0, 77, 62
1, 376494, Note_on_c, 0, 81, 73
1, 376514, Note_off_c, 0, 83, 62
1, 376529, Note_off_c, 0, 82, 45
1, 376544, Note_on_c, 0, 56, 78
1, 376557, Control_c, 0, 64, 85
1, 376559, Note_on_c, 0, 88, 87
1, 376565, Note_off_c, 0, 81, 66
1, 376569, Note_on_c, 0, 76, 80
1, 376572, Control_c, 0, 64, 66
1, 376587, Control_c, 0, 64, 56
1, 376602, Control_c, 0, 64, 60
1, 376608, Note_on_c, 0, 64, 66
1, 376617, Control_c, 0, 64, 64
1, 376622, Note_on_c, 0, 82, 77
1, 376623, Note_off_c, 0, 56, 63
1, 376631, Control_c, 0, 64, 69
1, 376642, Note_off_c, 0, 64, 66
1, 376646, Control_c, 0, 64, 80
1, 376651, Note_off_c, 0, 76, 62
1, 376659, Note_off_c, 0, 88, 64
1, 376660, Note_on_c, 0, 68, 74
1, 376661, Control_c, 0, 64, 127
1, 376686, Note_on_c, 0, 81, 69
1, 376712, Note_off_c, 0, 82, 63
1, 376719, Note_off_c, 0, 68, 60
1, 376750, Note_on_c, 0, 70, 67
1, 376751, Note_on_c, 0, 87, 85
1, 376753, Note_off_c, 0, 81, 65
1, 376760, Note_on_c, 0, 75, 79
1, 376798, Note_on_c, 0, 73, 65
1, 376814, Note_on_c, 0, 82, 76
1, 376827, Note_off_c, 0, 70, 62
1, 376844, Note_off_c, 0, 73, 63
1, 376854, Note_off_c, 0, 87, 62
1, 376857, Note_on_c, 0, 71, 65
1, 376857, Note_off_c, 0, 75, 58
1, 376872, Note_on_c, 0, 81, 66
1, 376884, Note_off_c, 0, 71, 66
1, 376910, Note_off_c, 0, 82, 59
1, 376952, Note_on_c, 0, 58, 67
1, 376957, Control_c, 0, 64, 102
1, 376961, Note_off_c, 0, 81, 63
1, 376968, Note_on_c, 0, 87, 69
1, 376972, Control_c, 0, 64, 76
1, 376985, Note_on_c, 0, 75, 53
1, 376987, Control_c, 0, 64, 61
1, 377003, Control_c, 0, 64, 41
1, 377018, Control_c, 0, 64, 49
1, 377033, Control_c, 0, 64, 57
1, 377048, Control_c, 0, 64, 62
1, 377049, Note_on_c, 0, 65, 56
1, 377054, Note_on_c, 0, 82, 53
1, 377057, Note_off_c, 0, 58, 60
1, 377062, Control_c, 0, 64, 69
1, 377077, Control_c, 0, 64, 82
1, 377092, Control_c, 0, 64, 127
1, 377101, Note_off_c, 0, 87, 60
1, 377117, Note_on_c, 0, 68, 59
1, 377125, Note_off_c, 0, 65, 60
1, 377129, Note_on_c, 0, 81, 57
1, 377137, Note_off_c, 0, 75, 34
1, 377145, Note_off_c, 0, 82, 61
1, 377152, Note_off_c, 0, 68, 64
1, 377164, Note_off_c, 0, 81, 65
1, 377179, Note_on_c, 0, 70, 59
1, 377197, Note_on_c, 0, 86, 66
1, 377206, Note_on_c, 0, 74, 63
1, 377224, Note_off_c, 0, 74, 60
1, 377245, Note_off_c, 0, 70, 60
1, 377251, Note_on_c, 0, 71, 72
1, 377267, Note_on_c, 0, 80, 72
1, 377281, Note_off_c, 0, 86, 52
1, 377295, Note_off_c, 0, 71, 56
1, 377316, Note_on_c, 0, 70, 61
1, 377324, Note_on_c, 0, 78, 61
1, 377335, Note_off_c, 0, 80, 63
1, 377351, Control_c, 0, 67, 125
1, 377358, Note_off_c, 0, 78, 67
1, 377366, Control_c, 0, 67, 118
1, 377374, Note_off_c, 0, 70, 63
1, 377376, Note_on_c, 0, 77, 70
1, 377380, Control_c, 0, 67, 109
1, 377390, Note_on_c, 0, 68, 69
1, 377395, Control_c, 0, 67, 101
1, 377409, Note_off_c, 0, 77, 61
1, 377410, Control_c, 0, 67, 94
1, 377420, Note_on_c, 0, 66, 67
1, 377425, Control_c, 0, 67, 86
1, 377440, Control_c, 0, 67, 79
1, 377442, Note_on_c, 0, 75, 73
1, 377444, Note_off_c, 0, 68, 55
1, 377454, Control_c, 0, 67, 69
1, 377469, Control_c, 0, 67, 55
1, 377481, Note_off_c, 0, 75, 61
1, 377484, Control_c, 0, 67, 42
1, 377492, Note_off_c, 0, 66, 61
1, 377498, Note_on_c, 0, 74, 72
1, 377498, Control_c, 0, 67, 30
1, 377513, Control_c, 0, 67, 19
1, 377516, Note_on_c, 0, 65, 66
1, 377528, Control_c, 0, 67, 8
1, 377541, Note_off_c, 0, 74, 59
1, 377543, Control_c, 0, 67, 0
1, 377590, Note_off_c, 0, 65, 61
1, 377591, Note_on_c, 0, 70, 87
1, 377597, Note_on_c, 0, 64, 65
1, 377662, Note_on_c, 0, 63, 61
1, 377677, Note_off_c, 0, 64, 57
1, 377686, Note_on_c, 0, 68, 69
1, 377724, Note_off_c, 0, 63, 62
1, 377749, Note_on_c, 0, 62, 61
1, 377763, Note_on_c, 0, 65, 62
1, 377778, Note_off_c, 0, 62, 65
1, 377782, Note_off_c, 0, 70, 46
1, 377808, Note_off_c, 0, 68, 60
1, 377831, Note_off_c, 0, 65, 59
1, 377933, Note_on_c, 0, 39, 67
1, 377990, Note_on_c, 0, 69, 74
1, 378014, Note_on_c, 0, 57, 55
1, 378026, Control_c, 0, 64, 88
1, 378041, Control_c, 0, 64, 66
1, 378055, Control_c, 0, 64, 24
1, 378070, Control_c, 0, 64, 0
1, 378100, Control_c, 0, 64, 33
1, 378115, Control_c, 0, 64, 53
1, 378129, Control_c, 0, 64, 64
1, 378144, Control_c, 0, 64, 76
1, 378159, Control_c, 0, 64, 101
1, 378163, Note_on_c, 0, 46, 50
1, 378167, Note_on_c, 0, 66, 52
1, 378174, Control_c, 0, 64, 127
1, 378181, Note_off_c, 0, 39, 54
1, 378185, Note_off_c, 0, 57, 53
1, 378204, Note_off_c, 0, 46, 63
1, 378205, Note_off_c, 0, 69, 62
1, 378224, Note_on_c, 0, 48, 58
1, 378225, Poly_aftertouch_c, 0, 67, 127
1, 378264, Poly_aftertouch_c, 0, 67, 0
1, 378270, Note_on_c, 0, 65, 54
1, 378297, Note_off_c, 0, 66, 59
1, 378303, Note_off_c, 0, 48, 57
1, 378315, Note_on_c, 0, 50, 62
1, 378330, Note_off_c, 0, 65, 63
1, 378334, Note_on_c, 0, 70, 79
1, 378358, Note_on_c, 0, 58, 61
1, 378383, Note_on_c, 0, 51, 75
1, 378394, Note_off_c, 0, 50, 61
1, 378396, Note_off_c, 0, 58, 60
1, 378412, Note_on_c, 0, 66, 70
1, 378434, Note_off_c, 0, 51, 63
1, 378444, Note_on_c, 0, 53, 78
1, 378455, Note_off_c, 0, 70, 61
1, 378457, Note_on_c, 0, 65, 66
1, 378496, Note_off_c, 0, 66, 56
1, 378518, Note_on_c, 0, 54, 78
1, 378521, Note_off_c, 0, 65, 63
1, 378521, Note_off_c, 0, 53, 63
1, 378531, Note_on_c, 0, 63, 65
1, 378569, Note_on_c, 0, 65, 60
1, 378584, Note_on_c, 0, 56, 80
1, 378601, Note_off_c, 0, 63, 61
1, 378617, Note_off_c, 0, 54, 63
1, 378623, Note_on_c, 0, 66, 71
1, 378634, Note_off_c, 0, 65, 63
1, 378643, Note_off_c, 0, 56, 64
1, 378645, Note_on_c, 0, 57, 71
1, 378655, Note_off_c, 0, 66, 66
1, 378738, Note_off_c, 0, 57, 63
1, 378744, Note_on_c, 0, 58, 66
1, 378753, Note_on_c, 0, 78, 87
1, 378768, Note_on_c, 0, 66, 69
1, 378817, Note_on_c, 0, 60, 67
1, 378837, Note_on_c, 0, 69, 69
1, 378839, Note_off_c, 0, 58, 62
1, 378858, Note_off_c, 0, 60, 64
1, 378872, Note_off_c, 0, 66, 60
1, 378881, Note_on_c, 0, 62, 67
1, 378896, Note_on_c, 0, 70, 62
1, 378903, Note_off_c, 0, 78, 61
1, 378944, Note_off_c, 0, 69, 57
1, 378967, Note_off_c, 0, 62, 59
1, 378968, Note_on_c, 0, 65, 61
1, 378986, Note_off_c, 0, 70, 63
1, 378992, Note_on_c, 0, 78, 75
1, 378995, Note_on_c, 0, 66, 65
1, 379026, Control_c, 0, 64, 102
1, 379041, Control_c, 0, 64, 85
1, 379044, Note_on_c, 0, 63, 63
1, 379056, Control_c, 0, 64, 79
1, 379071, Control_c, 0, 64, 84
1, 379075, Note_on_c, 0, 70, 62
1, 379085, Control_c, 0, 64, 100
1, 379086, Note_off_c, 0, 65, 47
1, 379100, Control_c, 0, 64, 127
1, 379116, Note_off_c, 0, 66, 59
1, 379116, Note_off_c, 0, 78, 62
1, 379119, Note_on_c, 0, 69, 66
1, 379124, Note_on_c, 0, 61, 62
1, 379141, Note_off_c, 0, 70, 62
1, 379145, Note_off_c, 0, 63, 62
1, 379160, Note_off_c, 0, 61, 63
1, 379167, Note_off_c, 0, 69, 61
1, 379188, Note_on_c, 0, 60, 70
1, 379202, Note_on_c, 0, 77, 87
1, 379206, Note_on_c, 0, 65, 78
1, 379258, Note_off_c, 0, 60, 60
1, 379259, Note_on_c, 0, 58, 76
1, 379262, Note_on_c, 0, 73, 77
1, 379298, Note_off_c, 0, 77, 60
1, 379303, Note_on_c, 0, 57, 62
1, 379314, Note_off_c, 0, 65, 62
1, 379324, Note_off_c, 0, 58, 61
1, 379325, Note_on_c, 0, 72, 59
1, 379332, Note_off_c, 0, 73, 64
1, 379340, Note_off_c, 0, 57, 63
1, 379352, Note_off_c, 0, 72, 66
1, 379370, Note_on_c, 0, 55, 81
1, 379382, Control_c, 0, 64, 106
1, 379387, Note_on_c, 0, 76, 93
1, 379392, Note_on_c, 0, 64, 81
1, 379397, Control_c, 0, 64, 98
1, 379412, Control_c, 0, 64, 97
1, 379427, Control_c, 0, 64, 98
1, 379433, Note_off_c, 0, 55, 62
1, 379437, Note_on_c, 0, 54, 81
1, 379449, Control_c, 0, 64, 110
1, 379453, Note_on_c, 0, 65, 17
1, 379454, Note_off_c, 0, 65, 127
1, 379464, Control_c, 0, 64, 127
1, 379466, Note_on_c, 0, 70, 81
1, 379497, Note_off_c, 0, 76, 63
1, 379498, Note_off_c, 0, 54, 65
1, 379498, Note_off_c, 0, 64, 61
1, 379519, Note_on_c, 0, 53, 78
1, 379524, Note_on_c, 0, 69, 73
1, 379554, Note_off_c, 0, 70, 61
1, 379575, Note_off_c, 0, 53, 64
1, 379582, Control_c, 0, 64, 83
1, 379588, Note_on_c, 0, 41, 88
1, 379591, Note_off_c, 0, 69, 63
1, 379595, Note_on_c, 0, 75, 96
1, 379597, Control_c, 0, 64, 65
1, 379602, Note_on_c, 0, 63, 84
1, 379612, Control_c, 0, 64, 50
1, 379627, Control_c, 0, 64, 55
1, 379642, Control_c, 0, 64, 66
1, 379656, Control_c, 0, 64, 82
1, 379657, Note_on_c, 0, 73, 45
1, 379671, Control_c, 0, 64, 127
1, 379672, Note_on_c, 0, 53, 85
1, 379683, Note_off_c, 0, 41, 64
1, 379711, Note_off_c, 0, 75, 64
1, 379721, Note_on_c, 0, 72, 65
1, 379734, Note_off_c, 0, 53, 61
1, 379738, Note_on_c, 0, 51, 81
1, 379749, Note_off_c, 0, 73, 64
1, 379752, Note_off_c, 0, 63, 61
1, 379758, Note_off_c, 0, 72, 60
1, 379808, Note_on_c, 0, 42, 90
1, 379831, Note_off_c, 0, 51, 57
1, 379835, Control_c, 0, 64, 79
1, 379843, Note_on_c, 0, 72, 83
1, 379849, Control_c, 0, 64, 57
1, 379853, Note_on_c, 0, 60, 68
1, 379864, Control_c, 0, 64, 0
1, 379908, Control_c, 0, 64, 37
1, 379923, Control_c, 0, 64, 60
1, 379937, Note_on_c, 0, 70, 65
1, 379938, Control_c, 0, 64, 72
1, 379939, Note_on_c, 0, 49, 67
1, 379953, Control_c, 0, 64, 109
1, 379968, Control_c, 0, 64, 127
1, 379987, Note_off_c, 0, 72, 62
1, 379990, Note_off_c, 0, 60, 64
1, 379991, Note_off_c, 0, 42, 60
1, 380000, Note_on_c, 0, 51, 68
1, 380014, Note_on_c, 0, 69, 61
1, 380026, Note_off_c, 0, 70, 61
1, 380044, Note_off_c, 0, 49, 62
1, 380056, Note_off_c, 0, 51, 62
1, 380056, Note_off_c, 0, 69, 59
1, 380059, Note_on_c, 0, 53, 71
1, 380068, Note_on_c, 0, 73, 91
1, 380074, Note_on_c, 0, 61, 82
1, 380124, Note_on_c, 0, 54, 82
1, 380136, Note_off_c, 0, 53, 63
1, 380142, Note_on_c, 0, 70, 78
1, 380184, Note_on_c, 0, 68, 78
1, 380186, Note_off_c, 0, 61, 59
1, 380199, Note_off_c, 0, 73, 60
1, 380203, Note_on_c, 0, 56, 81
1, 380235, Note_off_c, 0, 54, 63
1, 380246, Note_off_c, 0, 70, 61
1, 380253, Note_on_c, 0, 58, 86
1, 380256, Note_on_c, 0, 66, 80
1, 380300, Note_off_c, 0, 56, 63
1, 380309, Note_on_c, 0, 69, 79
1, 380313, Note_on_c, 0, 59, 78
1, 380321, Note_off_c, 0, 58, 65
1, 380339, Note_off_c, 0, 66, 62
1, 380348, Note_off_c, 0, 68, 56
1, 380352, Note_off_c, 0, 69, 65
1, 380390, Note_on_c, 0, 60, 80
1, 380396, Note_off_c, 0, 59, 64
1, 380437, Note_on_c, 0, 82, 96
1, 380439, Note_on_c, 0, 70, 93
1, 380459, Note_on_c, 0, 61, 79
1, 380484, Note_off_c, 0, 60, 62
1, 380498, Note_on_c, 0, 80, 37
1, 380501, Note_off_c, 0, 82, 65
1, 380516, Note_on_c, 0, 63, 80
1, 380524, Note_on_c, 0, 72, 71
1, 380532, Note_on_c, 0, 71, 39
1, 380540, Note_off_c, 0, 61, 63
1, 380540, Note_off_c, 0, 70, 62
1, 380547, Note_off_c, 0, 80, 63
1, 380548, Note_on_c, 0, 73, 72
1, 380553, Note_off_c, 0, 72, 68
1, 380562, Note_off_c, 0, 71, 49
1, 380565, Note_off_c, 0, 73, 65
1, 380573, Note_off_c, 0, 63, 63
1, 380580, Note_on_c, 0, 65, 73
1, 380649, Note_off_c, 0, 65, 56
1, 380655, Note_on_c, 0, 82, 88
1, 380658, Note_on_c, 0, 70, 90
1, 380660, Note_on_c, 0, 66, 77
1, 380705, Note_off_c, 0, 82, 66
1, 380720, Note_off_c, 0, 66, 60
1, 380737, Note_on_c, 0, 65, 76
1, 380753, Note_on_c, 0, 73, 75
1, 380754, Note_off_c, 0, 70, 61
1, 380802, Note_off_c, 0, 65, 55
1, 380808, Note_on_c, 0, 63, 74
1, 380816, Note_on_c, 0, 72, 70
1, 380848, Note_off_c, 0, 73, 63
1, 380860, Note_on_c, 0, 62, 67
1, 380872, Note_on_c, 0, 80, 87
1, 380881, Note_on_c, 0, 68, 85
1, 380884, Note_off_c, 0, 72, 63
1, 380886, Note_off_c, 0, 63, 60
1, 380909, Note_on_c, 0, 67, 63
1, 380911, Note_on_c, 0, 61, 75
1, 380919, Note_on_c, 0, 69, 52
1, 380920, Note_off_c, 0, 62, 63
1, 380936, Note_off_c, 0, 61, 67
1, 380938, Note_on_c, 0, 77, 76
1, 380977, Note_off_c, 0, 80, 64
1, 380980, Note_off_c, 0, 69, 42
1, 380986, Note_on_c, 0, 75, 77
1, 380987, Note_on_c, 0, 60, 73
1, 380989, Note_off_c, 0, 67, 58
1, 380992, Note_off_c, 0, 68, 61
1, 381024, Note_off_c, 0, 77, 63
1, 381040, Note_off_c, 0, 75, 63
1, 381044, Note_off_c, 0, 60, 62
1, 381057, Note_on_c, 0, 58, 84
1, 381058, Note_on_c, 0, 59, 56
1, 381069, Note_on_c, 0, 79, 92
1, 381075, Note_on_c, 0, 67, 92
1, 381079, Note_off_c, 0, 59, 64
1, 381102, Note_on_c, 0, 77, 44
1, 381105, Note_off_c, 0, 58, 66
1, 381120, Note_on_c, 0, 73, 82
1, 381129, Note_off_c, 0, 77, 37
1, 381144, Note_off_c, 0, 79, 62
1, 381147, Note_on_c, 0, 56, 80
1, 381155, Note_off_c, 0, 67, 60
1, 381180, Note_on_c, 0, 72, 83
1, 381212, Note_off_c, 0, 56, 62
1, 381214, Note_off_c, 0, 73, 64
1, 381239, Note_on_c, 0, 44, 94
1, 381258, Note_on_c, 0, 78, 101
1, 381259, Control_c, 0, 64, 109
1, 381261, Note_on_c, 0, 66, 91
1, 381273, Control_c, 0, 64, 69
1, 381278, Note_off_c, 0, 72, 60
1, 381288, Control_c, 0, 64, 35
1, 381303, Control_c, 0, 64, 45
1, 381310, Note_off_c, 0, 44, 61
1, 381318, Control_c, 0, 64, 66
1, 381322, Note_on_c, 0, 56, 89
1, 381329, Note_on_c, 0, 77, 56
1, 381333, Control_c, 0, 64, 87
1, 381340, Note_on_c, 0, 76, 64
1, 381345, Poly_aftertouch_c, 0, 46, 0
1, 381347, Control_c, 0, 64, 127
1, 381352, Note_on_c, 0, 75, 75
1, 381362, Note_off_c, 0, 78, 64
1, 381373, Note_off_c, 0, 76, 64
1, 381375, Note_off_c, 0, 66, 61
1, 381378, Note_off_c, 0, 75, 67
1, 381378, Note_off_c, 0, 77, 63
1, 381388, Note_off_c, 0, 56, 63
1, 381390, Note_on_c, 0, 54, 56
1, 381396, Poly_aftertouch_c, 0, 46, 0
1, 381436, Control_c, 0, 64, 92
1, 381448, Note_on_c, 0, 76, 98
1, 381451, Note_on_c, 0, 64, 94
1, 381451, Control_c, 0, 64, 52
1, 381454, Note_off_c, 0, 54, 57
1, 381454, Note_on_c, 0, 46, 95
1, 381466, Control_c, 0, 64, 0
1, 381510, Control_c, 0, 64, 61
1, 381513, Note_on_c, 0, 53, 72
1, 381522, Note_on_c, 0, 69, 84
1, 381525, Control_c, 0, 64, 127
1, 381550, Note_off_c, 0, 64, 61
1, 381555, Note_off_c, 0, 46, 61
1, 381561, Note_off_c, 0, 76, 62
1, 381564, Note_on_c, 0, 55, 74
1, 381572, Note_on_c, 0, 70, 86
1, 381592, Note_off_c, 0, 69, 65
1, 381593, Note_off_c, 0, 53, 63
1, 381595, Note_off_c, 0, 70, 69
1, 381600, Note_off_c, 0, 55, 63
1, 381618, Note_on_c, 0, 57, 82
1, 381647, Note_on_c, 0, 65, 98
1, 381650, Note_on_c, 0, 77, 96
1, 381710, Note_on_c, 0, 60, 85
1, 381727, Note_on_c, 0, 72, 90
1, 381737, Note_off_c, 0, 57, 60
1, 381737, Note_off_c, 0, 65, 60
1, 381741, Note_off_c, 0, 77, 66
1, 381757, Note_on_c, 0, 58, 88
1, 381768, Note_off_c, 0, 60, 66
1, 381792, Note_off_c, 0, 58, 64
1, 381797, Note_on_c, 0, 73, 96
1, 381821, Note_off_c, 0, 72, 66
1, 381866, Note_off_c, 0, 73, 66
1, 382033, Note_on_c, 0, 48, 97
1, 382038, Note_on_c, 0, 36, 88
1, 382065, Note_on_c, 0, 85, 106
1, 382066, Note_on_c, 0, 73, 98
1, 382068, Control_c, 0, 64, 112
1, 382083, Control_c, 0, 64, 66
1, 382097, Control_c, 0, 64, 0
1, 382201, Control_c, 0, 64, 61
1, 382205, Note_off_c, 0, 36, 63
1, 382216, Control_c, 0, 64, 99
1, 382231, Control_c, 0, 64, 127
1, 382273, Note_off_c, 0, 48, 64
1, 382341, Note_off_c, 0, 73, 58
1, 382348, Note_on_c, 0, 84, 77
1, 382382, Note_on_c, 0, 55, 73
1, 382439, Note_on_c, 0, 82, 75
1, 382486, Note_on_c, 0, 58, 62
1, 382493, Note_off_c, 0, 55, 58
1, 382523, Note_on_c, 0, 65, 46
1, 382524, Note_on_c, 0, 80, 79
1, 382536, Note_on_c, 0, 64, 45
1, 382541, Note_off_c, 0, 58, 64
1, 382554, Note_off_c, 0, 84, 47
1, 382562, Note_off_c, 0, 64, 58
1, 382565, Note_off_c, 0, 65, 63
1, 382569, Note_off_c, 0, 82, 64
1, 382587, Note_on_c, 0, 78, 79
1, 382590, Note_on_c, 0, 57, 79
1, 382591, Note_off_c, 0, 80, 64
1, 382643, Note_on_c, 0, 79, 77
1, 382649, Note_off_c, 0, 85, 61
1, 382659, Note_on_c, 0, 58, 82
1, 382681, Note_off_c, 0, 78, 55
1, 382682, Note_off_c, 0, 57, 62
1, 382686, Note_on_c, 0, 67, 70
1, 382688, Note_on_c, 0, 64, 58
1, 382691, Note_off_c, 0, 58, 64
1, 382694, Note_on_c, 0, 59, 60
1, 382695, Note_on_c, 0, 82, 85
1, 382701, Note_off_c, 0, 79, 65
1, 382726, Note_off_c, 0, 59, 63
1, 382740, Note_off_c, 0, 67, 62
1, 382748, Note_on_c, 0, 80, 84
1, 382774, Note_off_c, 0, 64, 63
1, 382783, Poly_aftertouch_c, 0, 59, 0
1, 382794, Note_off_c, 0, 82, 62
1, 382813, Note_on_c, 0, 79, 83
1, 382824, Note_on_c, 0, 60, 68
1, 382827, Poly_aftertouch_c, 0, 59, 0
1, 382835, Note_on_c, 0, 63, 71
1, 382836, Note_off_c, 0, 80, 63
1, 382846, Control_c, 0, 64, 95
1, 382861, Control_c, 0, 64, 73
1, 382865, Note_on_c, 0, 84, 95
1, 382871, Note_on_c, 0, 72, 85
1, 382875, Control_c, 0, 64, 65
1, 382878, Note_off_c, 0, 60, 67
1, 382885, Note_on_c, 0, 74, 71
1, 382888, Note_off_c, 0, 79, 66
1, 382890, Control_c, 0, 64, 70
1, 382893, Note_on_c, 0, 70, 84
1, 382898, Note_off_c, 0, 63, 64
1, 382905, Control_c, 0, 64, 84
1, 382905, Note_off_c, 0, 74, 52
1, 382919, Control_c, 0, 64, 127
1, 382923, Note_on_c, 0, 71, 58
1, 382942, Note_on_c, 0, 82, 82
1, 382944, Note_off_c, 0, 71, 63
1, 382954, Note_off_c, 0, 72, 59
1, 382966, Note_on_c, 0, 63, 80
1, 382975, Note_off_c, 0, 70, 60
1, 382997, Note_on_c, 0, 80, 80
1, 383053, Note_on_c, 0, 79, 81
1, 383058, Note_off_c, 0, 84, 62
1, 383060, Note_off_c, 0, 63, 63
1, 383063, Note_on_c, 0, 70, 76
1, 383066, Note_off_c, 0, 82, 61
1, 383083, Note_on_c, 0, 73, 79
1, 383083, Note_off_c, 0, 80, 64
1, 383095, Note_off_c, 0, 70, 64
1, 383103, Note_on_c, 0, 77, 81
1, 383108, Note_off_c, 0, 79, 66
1, 383117, Note_off_c, 0, 73, 62
1, 383153, Note_off_c, 0, 77, 59
1, 383171, Note_on_c, 0, 70, 75
1, 383201, Note_on_c, 0, 76, 79
1, 383233, Note_off_c, 0, 70, 63
1, 383260, Note_on_c, 0, 67, 69
1, 383278, Note_on_c, 0, 82, 86
1, 383282, Control_c, 0, 64, 90
1, 383285, Note_on_c, 0, 70, 78
1, 383296, Note_off_c, 0, 76, 56
1, 383297, Control_c, 0, 64, 77
1, 383312, Control_c, 0, 64, 70
1, 383326, Control_c, 0, 64, 68
1, 383341, Control_c, 0, 64, 70
1, 383356, Note_off_c, 0, 67, 60
1, 383356, Control_c, 0, 64, 78
1, 383371, Control_c, 0, 64, 91
1, 383373, Note_on_c, 0, 77, 63
1, 383383, Note_on_c, 0, 60, 56
1, 383386, Control_c, 0, 64, 127
1, 383417, Note_off_c, 0, 60, 66
1, 383443, Note_off_c, 0, 82, 60
1, 383444, Note_on_c, 0, 76, 57
1, 383456, Note_off_c, 0, 70, 57
1, 383486, Note_off_c, 0, 77, 55
1, 383582, Note_on_c, 0, 41, 50
1, 383602, Note_on_c, 0, 53, 36
1, 383609, Control_c, 0, 64, 95
1, 383624, Control_c, 0, 64, 75
1, 383625, Note_on_c, 0, 80, 60
1, 383639, Control_c, 0, 64, 56
1, 383648, Note_off_c, 0, 76, 36
1, 383654, Control_c, 0, 64, 0
1, 383657, Note_on_c, 0, 68, 47
1, 383698, Control_c, 0, 64, 27
1, 383713, Control_c, 0, 64, 47
1, 383728, Control_c, 0, 64, 60
1, 383736, Note_off_c, 0, 41, 59
1, 383742, Control_c, 0, 64, 67
1, 383757, Control_c, 0, 64, 78
1, 383772, Control_c, 0, 64, 109
1, 383787, Control_c, 0, 64, 127
1, 383830, Note_off_c, 0, 53, 54
1, 383842, Note_on_c, 0, 78, 30
1, 383889, Note_off_c, 0, 80, 58
1, 383895, Note_off_c, 0, 78, 44
1, 383903, Note_on_c, 0, 77, 49
1, 383910, Note_off_c, 0, 68, 32
1, 383919, Note_on_c, 0, 60, 43
1, 384018, Note_off_c, 0, 60, 54
1, 384026, Note_off_c, 0, 77, 61
1, 384041, Note_on_c, 0, 81, 58
1, 384050, Note_on_c, 0, 61, 36
1, 384056, Note_on_c, 0, 69, 50
1, 384088, Note_off_c, 0, 61, 61
1, 384123, Note_on_c, 0, 63, 43
1, 384130, Note_on_c, 0, 78, 57
1, 384168, Note_off_c, 0, 63, 61
1, 384199, Note_on_c, 0, 61, 50
1, 384202, Note_off_c, 0, 69, 37
1, 384204, Note_on_c, 0, 77, 42
1, 384228, Note_off_c, 0, 77, 56
1, 384231, Note_off_c, 0, 78, 54
1, 384238, Note_on_c, 0, 60, 59
1, 384244, Note_on_c, 0, 75, 67
1, 384246, Note_off_c, 0, 61, 58
1, 384277, Note_off_c, 0, 81, 21
1, 384292, Note_on_c, 0, 58, 59
1, 384310, Note_on_c, 0, 77, 67
1, 384314, Note_off_c, 0, 60, 55
1, 384351, Note_off_c, 0, 75, 57
1, 384365, Note_on_c, 0, 57, 58
1, 384368, Note_on_c, 0, 78, 60
1, 384381, Note_off_c, 0, 77, 61
1, 384407, Note_on_c, 0, 81, 79
1, 384411, Note_on_c, 0, 61, 62
1, 384417, Note_off_c, 0, 78, 59
1, 384421, Note_on_c, 0, 69, 69
1, 384432, Control_c, 0, 64, 107
1, 384432, Note_off_c, 0, 58, 31
1, 384445, Note_off_c, 0, 57, 60
1, 384446, Control_c, 0, 64, 83
1, 384461, Control_c, 0, 64, 71
1, 384476, Control_c, 0, 64, 70
1, 384476, Note_off_c, 0, 61, 62
1, 384477, Note_on_c, 0, 63, 63
1, 384481, Note_on_c, 0, 78, 62
1, 384490, Control_c, 0, 64, 79
1, 384505, Control_c, 0, 64, 99
1, 384520, Control_c, 0, 64, 127
1, 384523, Note_on_c, 0, 77, 65
1, 384524, Note_off_c, 0, 81, 62
1, 384530, Note_off_c, 0, 69, 59
1, 384547, Note_on_c, 0, 61, 54
1, 384557, Note_off_c, 0, 63, 59
1, 384557, Note_off_c, 0, 78, 64
1, 384574, Note_off_c, 0, 77, 54
1, 384594, Control_c, 0, 64, 85
1, 384595, Note_on_c, 0, 81, 76
1, 384598, Note_on_c, 0, 69, 63
1, 384605, Note_off_c, 0, 61, 61
1, 384608, Note_on_c, 0, 60, 67
1, 384609, Control_c, 0, 64, 67
1, 384624, Control_c, 0, 64, 57
1, 384638, Control_c, 0, 64, 61
1, 384653, Control_c, 0, 64, 66
1, 384668, Control_c, 0, 64, 76
1, 384682, Note_on_c, 0, 77, 68
1, 384683, Control_c, 0, 64, 100
1, 384685, Note_on_c, 0, 61, 56
1, 384700, Note_off_c, 0, 69, 63
1, 384705, Note_off_c, 0, 60, 59
1, 384705, Control_c, 0, 64, 127
1, 384718, Note_off_c, 0, 81, 65
1, 384724, Note_on_c, 0, 63, 64
1, 384743, Note_on_c, 0, 75, 67
1, 384761, Note_off_c, 0, 77, 62
1, 384763, Note_off_c, 0, 61, 61
1, 384779, Control_c, 0, 64, 104
1, 384794, Control_c, 0, 64, 80
1, 384798, Note_on_c, 0, 65, 61
1, 384798, Note_off_c, 0, 63, 61
1, 384801, Note_off_c, 0, 75, 62
1, 384801, Note_on_c, 0, 82, 80
1, 384805, Note_on_c, 0, 70, 73
1, 384809, Control_c, 0, 64, 68
1, 384824, Control_c, 0, 64, 63
1, 384839, Control_c, 0, 64, 67
1, 384853, Control_c, 0, 64, 76
1, 384867, Note_on_c, 0, 78, 72
1, 384867, Control_c, 0, 64, 91
1, 384868, Note_off_c, 0, 65, 63
1, 384870, Note_on_c, 0, 63, 57
1, 384873, Note_off_c, 0, 70, 61
1, 384882, Control_c, 0, 64, 127
1, 384921, Note_on_c, 0, 61, 57
1, 384932, Note_off_c, 0, 82, 60
1, 384938, Note_on_c, 0, 77, 67
1, 384970, Note_off_c, 0, 78, 60
1, 384972, Note_off_c, 0, 63, 57
1, 384986, Control_c, 0, 64, 115
1, 384998, Note_off_c, 0, 77, 62
1, 385001, Note_on_c, 0, 66, 62
1, 385001, Control_c, 0, 64, 90
1, 385006, Note_off_c, 0, 61, 57
1, 385007, Note_on_c, 0, 75, 65
1, 385016, Control_c, 0, 64, 78
1, 385031, Control_c, 0, 64, 71
1, 385046, Control_c, 0, 64, 70
1, 385061, Control_c, 0, 64, 74
1, 385061, Note_on_c, 0, 65, 48
1, 385076, Control_c, 0, 64, 83
1, 385076, Note_on_c, 0, 77, 61
1, 385090, Note_off_c, 0, 66, 53
1, 385090, Control_c, 0, 64, 100
1, 385092, Note_off_c, 0, 75, 55
1, 385105, Control_c, 0, 64, 127
1, 385118, Note_on_c, 0, 63, 56
1, 385138, Note_on_c, 0, 78, 64
1, 385148, Note_off_c, 0, 65, 57
1, 385150, Control_c, 0, 64, 112
1, 385153, Note_off_c, 0, 77, 60
1, 385165, Control_c, 0, 64, 86
1, 385180, Control_c, 0, 64, 74
1, 385189, Note_off_c, 0, 63, 61
1, 385194, Control_c, 0, 64, 67
1, 385195, Note_off_c, 0, 78, 60
1, 385200, Note_on_c, 0, 82, 74
1, 385201, Note_on_c, 0, 68, 54
1, 385209, Control_c, 0, 64, 69
1, 385224, Control_c, 0, 64, 78
1, 385229, Note_on_c, 0, 70, 60
1, 385239, Control_c, 0, 64, 93
1, 385254, Control_c, 0, 64, 127
1, 385295, Note_on_c, 0, 66, 50
1, 385296, Note_on_c, 0, 78, 60
1, 385310, Note_off_c, 0, 68, 50
1, 385323, Note_on_c, 0, 65, 50
1, 385344, Note_off_c, 0, 66, 60
1, 385351, Note_off_c, 0, 70, 53
1, 385352, Note_off_c, 0, 82, 55
1, 385356, Note_off_c, 0, 65, 65
1, 385379, Note_on_c, 0, 77, 49
1, 385495, Note_off_c, 0, 78, 27
1, 385498, Control_c, 0, 64, 99
1, 385513, Control_c, 0, 64, 80
1, 385518, Note_on_c, 0, 50, 47
1, 385522, Note_off_c, 0, 77, 58
1, 385527, Control_c, 0, 64, 66
1, 385529, Note_on_c, 0, 82, 53
1, 385542, Control_c, 0, 64, 53
1, 385557, Control_c, 0, 64, 47
1, 385564, Note_on_c, 0, 70, 27
1, 385572, Control_c, 0, 64, 53
1, 385587, Control_c, 0, 64, 57
1, 385601, Control_c, 0, 64, 60
1, 385617, Control_c, 0, 64, 64
1, 385632, Control_c, 0, 64, 69
1, 385641, Note_off_c, 0, 50, 56
1, 385647, Control_c, 0, 64, 78
1, 385662, Control_c, 0, 64, 99
1, 385675, Note_on_c, 0, 58, 47
1, 385677, Control_c, 0, 64, 127
1, 385678, Note_on_c, 0, 78, 41
1, 385710, Note_off_c, 0, 82, 55
1, 385716, Note_off_c, 0, 70, 42
1, 385718, Note_off_c, 0, 58, 62
1, 385766, Note_on_c, 0, 65, 48
1, 385769, Note_off_c, 0, 78, 51
1, 385773, Note_on_c, 0, 77, 47
1, 385827, Note_off_c, 0, 65, 53
1, 385828, Note_off_c, 0, 77, 61
1, 385839, Note_on_c, 0, 83, 68
1, 385849, Note_on_c, 0, 59, 53
1, 385860, Note_on_c, 0, 71, 51
1, 385895, Note_off_c, 0, 59, 60
1, 385916, Note_off_c, 0, 71, 56
1, 385917, Note_on_c, 0, 80, 68
1, 385924, Note_on_c, 0, 65, 52
1, 385957, Note_off_c, 0, 83, 60
1, 385959, Note_off_c, 0, 65, 64
1, 385961, Note_on_c, 0, 66, 60
1, 385984, Note_on_c, 0, 78, 57
1, 386008, Note_off_c, 0, 80, 61
1, 386009, Note_off_c, 0, 66, 60
1, 386017, Note_off_c, 0, 78, 65
1, 386025, Note_on_c, 0, 68, 64
1, 386028, Note_on_c, 0, 77, 71
1, 386089, Note_on_c, 0, 78, 72
1, 386091, Note_on_c, 0, 66, 51
1, 386093, Note_off_c, 0, 68, 59
1, 386114, Note_off_c, 0, 77, 61
1, 386131, Note_on_c, 0, 65, 60
1, 386132, Note_on_c, 0, 80, 61
1, 386149, Note_off_c, 0, 66, 60
1, 386162, Note_off_c, 0, 65, 64
1, 386164, Note_off_c, 0, 78, 63
1, 386199, Note_on_c, 0, 83, 80
1, 386199, Note_off_c, 0, 80, 64
1, 386206, Note_on_c, 0, 64, 61
1, 386206, Note_on_c, 0, 71, 72
1, 386238, Note_off_c, 0, 64, 65
1, 386265, Note_on_c, 0, 63, 52
1, 386272, Note_on_c, 0, 78, 70
1, 386298, Note_off_c, 0, 63, 50
1, 386305, Note_off_c, 0, 83, 61
1, 386314, Note_off_c, 0, 71, 44
1, 386325, Note_on_c, 0, 77, 62
1, 386333, Note_on_c, 0, 62, 54
1, 386368, Note_off_c, 0, 62, 57
1, 386383, Note_off_c, 0, 78, 61
1, 386396, Control_c, 0, 64, 120
1, 386401, Note_on_c, 0, 51, 70
1, 386411, Note_off_c, 0, 77, 63
1, 386411, Control_c, 0, 64, 80
1, 386414, Note_on_c, 0, 83, 82
1, 386426, Control_c, 0, 64, 63
1, 386436, Note_on_c, 0, 71, 62
1, 386441, Control_c, 0, 64, 41
1, 386456, Control_c, 0, 64, 48
1, 386471, Control_c, 0, 64, 57
1, 386486, Control_c, 0, 64, 63
1, 386500, Control_c, 0, 64, 72
1, 386503, Note_on_c, 0, 59, 53
1, 386505, Note_on_c, 0, 80, 57
1, 386513, Note_off_c, 0, 51, 64
1, 386515, Control_c, 0, 64, 94
1, 386530, Control_c, 0, 64, 127
1, 386532, Note_off_c, 0, 71, 59
1, 386541, Note_off_c, 0, 83, 62
1, 386550, Note_off_c, 0, 59, 63
1, 386560, Note_on_c, 0, 78, 62
1, 386572, Note_on_c, 0, 66, 59
1, 386594, Note_off_c, 0, 80, 63
1, 386606, Note_off_c, 0, 66, 65
1, 386621, Note_on_c, 0, 84, 87
1, 386625, Note_off_c, 0, 78, 62
1, 386632, Note_on_c, 0, 72, 77
1, 386642, Note_on_c, 0, 60, 73
1, 386695, Note_on_c, 0, 66, 66
1, 386698, Note_on_c, 0, 81, 71
1, 386703, Note_off_c, 0, 72, 62
1, 386707, Note_off_c, 0, 60, 62
1, 386728, Note_on_c, 0, 80, 74
1, 386732, Note_off_c, 0, 84, 62
1, 386745, Note_on_c, 0, 68, 72
1, 386761, Note_off_c, 0, 81, 64
1, 386778, Note_off_c, 0, 66, 61
1, 386798, Note_on_c, 0, 78, 74
1, 386802, Note_off_c, 0, 68, 61
1, 386805, Note_on_c, 0, 69, 74
1, 386845, Note_on_c, 0, 81, 68
1, 386858, Note_on_c, 0, 68, 54
1, 386861, Note_off_c, 0, 78, 63
1, 386862, Note_off_c, 0, 69, 58
1, 386862, Note_off_c, 0, 80, 61
1, 386880, Note_off_c, 0, 81, 66
1, 386912, Note_on_c, 0, 66, 65
1, 386939, Note_off_c, 0, 68, 61
1, 386970, Note_off_c, 0, 66, 58
1, 386998, Note_on_c, 0, 90, 80
1, 387004, Note_on_c, 0, 65, 58
1, 387017, Note_on_c, 0, 78, 68
1, 387056, Note_off_c, 0, 65, 49
1, 387074, Note_on_c, 0, 85, 68
1, 387085, Note_on_c, 0, 64, 37
1, 387103, Note_on_c, 0, 63, 50
1, 387115, Note_off_c, 0, 64, 57
1, 387124, Note_off_c, 0, 63, 61
1, 387131, Note_off_c, 0, 78, 57
1, 387144, Note_on_c, 0, 84, 65
1, 387145, Note_off_c, 0, 90, 61
1, 387190, Note_off_c, 0, 85, 57
1, 387233, Note_on_c, 0, 53, 59
1, 387249, Control_c, 0, 64, 96
1, 387264, Control_c, 0, 64, 72
1, 387267, Note_off_c, 0, 84, 62
1, 387268, Note_on_c, 0, 90, 68
1, 387278, Control_c, 0, 64, 61
1, 387288, Note_on_c, 0, 78, 48
1, 387293, Control_c, 0, 64, 52
1, 387308, Control_c, 0, 64, 56
1, 387323, Control_c, 0, 64, 60
1, 387338, Control_c, 0, 64, 64
1, 387353, Control_c, 0, 64, 69
1, 387353, Note_off_c, 0, 53, 63
1, 387359, Note_on_c, 0, 63, 53
1, 387367, Control_c, 0, 64, 93
1, 387382, Control_c, 0, 64, 127
1, 387395, Note_on_c, 0, 82, 58
1, 387406, Note_off_c, 0, 63, 60
1, 387415, Note_off_c, 0, 90, 61
1, 387428, Note_off_c, 0, 78, 55
1, 387439, Note_on_c, 0, 69, 62
1, 387454, Note_on_c, 0, 81, 59
1, 387468, Note_off_c, 0, 82, 58
1, 387490, Note_off_c, 0, 69, 44
1, 387507, Note_off_c, 0, 81, 59
1, 387515, Note_on_c, 0, 89, 93
1, 387519, Note_on_c, 0, 71, 67
1, 387523, Note_on_c, 0, 77, 77
1, 387569, Note_on_c, 0, 73, 68
1, 387580, Note_off_c, 0, 71, 61
1, 387586, Note_on_c, 0, 82, 73
1, 387598, Note_off_c, 0, 73, 67
1, 387600, Note_off_c, 0, 89, 60
1, 387609, Note_on_c, 0, 72, 69
1, 387633, Note_off_c, 0, 72, 67
1, 387634, Note_off_c, 0, 77, 50
1, 387647, Note_on_c, 0, 81, 63
1, 387670, Note_off_c, 0, 82, 64
1, 387687, Control_c, 0, 64, 96
1, 387702, Control_c, 0, 64, 79
1, 387703, Note_on_c, 0, 56, 77
1, 387704, Note_on_c, 0, 88, 85
1, 387717, Control_c, 0, 64, 71
1, 387720, Note_on_c, 0, 76, 74
1, 387720, Note_off_c, 0, 81, 65
1, 387732, Control_c, 0, 64, 72
1, 387746, Control_c, 0, 64, 83
1, 387753, Note_on_c, 0, 64, 63
1, 387761, Control_c, 0, 64, 104
1, 387774, Note_off_c, 0, 56, 63
1, 387776, Note_on_c, 0, 82, 81
1, 387776, Control_c, 0, 64, 127
1, 387786, Note_off_c, 0, 76, 63
1, 387791, Note_off_c, 0, 64, 64
1, 387799, Note_off_c, 0, 88, 64
1, 387810, Note_on_c, 0, 68, 68
1, 387839, Note_on_c, 0, 81, 63
1, 387852, Note_off_c, 0, 82, 63
1, 387854, Note_off_c, 0, 68, 57
1, 387892, Note_on_c, 0, 87, 88
1, 387892, Note_off_c, 0, 81, 65
1, 387901, Note_on_c, 0, 75, 79
1, 387904, Note_on_c, 0, 70, 66
1, 387941, Note_on_c, 0, 73, 60
1, 387945, Note_on_c, 0, 88, 9
1, 387972, Note_off_c, 0, 70, 62
1, 387983, Note_on_c, 0, 83, 49
1, 387986, Note_off_c, 0, 73, 63
1, 387991, Note_off_c, 0, 88, 38
1, 387992, Note_off_c, 0, 75, 55
1, 387995, Note_on_c, 0, 82, 64
1, 388000, Note_on_c, 0, 71, 67
1, 388006, Note_off_c, 0, 87, 61
1, 388030, Note_off_c, 0, 71, 63
1, 388044, Note_off_c, 0, 83, 53
1, 388071, Control_c, 0, 64, 100
1, 388073, Note_off_c, 0, 82, 65
1, 388086, Control_c, 0, 64, 76
1, 388090, Note_on_c, 0, 58, 65
1, 388100, Note_on_c, 0, 87, 73
1, 388101, Control_c, 0, 64, 62
1, 388107, Note_on_c, 0, 75, 64
1, 388116, Control_c, 0, 64, 47
1, 388131, Control_c, 0, 64, 54
1, 388146, Control_c, 0, 64, 61
1, 388161, Control_c, 0, 64, 64
1, 388170, Note_off_c, 0, 58, 62
1, 388175, Note_on_c, 0, 65, 60
1, 388176, Control_c, 0, 64, 70
1, 388191, Control_c, 0, 64, 84
1, 388192, Note_on_c, 0, 82, 58
1, 388198, Note_off_c, 0, 75, 56
1, 388205, Note_off_c, 0, 87, 63
1, 388206, Control_c, 0, 64, 127
1, 388233, Note_on_c, 0, 68, 64
1, 388238, Note_on_c, 0, 81, 64
1, 388251, Note_off_c, 0, 65, 62
1, 388254, Note_off_c, 0, 82, 60
1, 388268, Note_off_c, 0, 68, 62
1, 388291, Note_off_c, 0, 81, 61
1, 388292, Note_on_c, 0, 70, 66
1, 388301, Note_on_c, 0, 86, 80
1, 388310, Note_on_c, 0, 74, 68
1, 388343, Note_off_c, 0, 74, 59
1, 388352, Note_off_c, 0, 70, 62
1, 388358, Note_on_c, 0, 71, 73
1, 388394, Note_off_c, 0, 71, 56
1, 388407, Note_on_c, 0, 81, 44
1, 388412, Note_off_c, 0, 86, 59
1, 388429, Note_on_c, 0, 70, 66
1, 388430, Note_on_c, 0, 78, 39
1, 388431, Note_off_c, 0, 78, 127
1, 388447, Note_off_c, 0, 81, 50
1, 388454, Note_on_c, 0, 79, 51
1, 388475, Note_off_c, 0, 79, 61
1, 388481, Note_on_c, 0, 77, 76
1, 388483, Note_off_c, 0, 70, 58
1, 388508, Note_on_c, 0, 68, 61
1, 388533, Note_off_c, 0, 77, 42
1, 388537, Note_on_c, 0, 66, 67
1, 388539, Note_on_c, 0, 78, 82
1, 388549, Note_off_c, 0, 68, 58
1, 388587, Note_on_c, 0, 80, 70
1, 388597, Note_off_c, 0, 66, 61
1, 388597, Note_off_c, 0, 78, 62
1, 388615, Note_on_c, 0, 65, 71
1, 388643, Note_off_c, 0, 80, 64
1, 388657, Note_on_c, 0, 82, 92
1, 388664, Note_on_c, 0, 70, 84
1, 388671, Note_off_c, 0, 65, 58
1, 388688, Note_on_c, 0, 64, 59
1, 388723, Note_on_c, 0, 63, 59
1, 388724, Note_on_c, 0, 78, 76
1, 388746, Note_off_c, 0, 64, 60
1, 388757, Note_off_c, 0, 63, 64
1, 388762, Note_off_c, 0, 70, 62
1, 388770, Note_on_c, 0, 77, 64
1, 388790, Note_off_c, 0, 82, 64
1, 388791, Note_off_c, 0, 78, 63
1, 388796, Note_on_c, 0, 62, 55
1, 388803, Note_off_c, 0, 77, 65
1, 388881, Note_off_c, 0, 62, 57
1, 388893, Note_on_c, 0, 55, 58
1, 388894, Control_c, 0, 64, 89
1, 388909, Control_c, 0, 64, 69
1, 388913, Note_on_c, 0, 87, 76
1, 388922, Note_on_c, 0, 75, 66
1, 388924, Control_c, 0, 64, 53
1, 388939, Control_c, 0, 64, 45
1, 388954, Control_c, 0, 64, 55
1, 388969, Control_c, 0, 64, 61
1, 388984, Control_c, 0, 64, 67
1, 388999, Control_c, 0, 64, 78
1, 389007, Note_off_c, 0, 55, 62
1, 389014, Control_c, 0, 64, 127
1, 389019, Note_on_c, 0, 83, 59
1, 389024, Note_on_c, 0, 63, 63
1, 389065, Note_off_c, 0, 63, 60
1, 389067, Note_off_c, 0, 87, 62
1, 389082, Note_off_c, 0, 75, 61
1, 389083, Note_on_c, 0, 82, 71
1, 389089, Note_on_c, 0, 70, 68
1, 389106, Note_off_c, 0, 83, 62
1, 389130, Note_off_c, 0, 70, 58
1, 389156, Note_on_c, 0, 88, 82
1, 389159, Note_off_c, 0, 82, 62
1, 389163, Note_on_c, 0, 76, 80
1, 389178, Note_on_c, 0, 64, 66
1, 389206, Note_on_c, 0, 86, 34
1, 389207, Note_off_c, 0, 86, 127
1, 389240, Note_on_c, 0, 85, 80
1, 389242, Note_on_c, 0, 70, 76
1, 389245, Note_off_c, 0, 64, 64
1, 389254, Note_off_c, 0, 76, 57
1, 389280, Note_off_c, 0, 88, 61
1, 389284, Note_on_c, 0, 71, 71
1, 389294, Note_on_c, 0, 83, 74
1, 389314, Note_off_c, 0, 70, 63
1, 389330, Note_off_c, 0, 85, 64
1, 389344, Note_off_c, 0, 83, 61
1, 389344, Note_on_c, 0, 82, 84
1, 389349, Note_off_c, 0, 71, 64
1, 389353, Note_on_c, 0, 73, 78
1, 389394, Note_on_c, 0, 83, 70
1, 389415, Note_off_c, 0, 73, 63
1, 389421, Note_on_c, 0, 71, 67
1, 389433, Note_off_c, 0, 82, 63
1, 389436, Note_on_c, 0, 85, 79
1, 389440, Note_on_c, 0, 70, 69
1, 389476, Note_off_c, 0, 71, 63
1, 389478, Note_off_c, 0, 83, 64
1, 389500, Note_off_c, 0, 70, 63
1, 389505, Note_off_c, 0, 85, 67
1, 389510, Note_on_c, 0, 69, 78
1, 389513, Note_on_c, 0, 88, 95
1, 389516, Note_on_c, 0, 76, 91
1, 389560, Note_off_c, 0, 69, 62
1, 389568, Note_on_c, 0, 68, 79
1, 389586, Note_on_c, 0, 83, 74
1, 389622, Note_off_c, 0, 68, 63
1, 389628, Note_off_c, 0, 88, 63
1, 389630, Note_on_c, 0, 82, 79
1, 389630, Note_off_c, 0, 76, 62
1, 389638, Note_on_c, 0, 67, 71
1, 389672, Note_off_c, 0, 67, 60
1, 389675, Note_off_c, 0, 83, 63
1, 389689, Control_c, 0, 64, 93
1, 389703, Control_c, 0, 64, 67
1, 389713, Note_on_c, 0, 56, 83
1, 389718, Control_c, 0, 64, 38
1, 389724, Note_off_c, 0, 82, 61
1, 389726, Note_on_c, 0, 76, 86
1, 389726, Note_on_c, 0, 88, 77
1, 389729, Note_on_c, 0, 89, 92
1, 389733, Control_c, 0, 64, 35
1, 389748, Note_on_c, 0, 77, 63
1, 389748, Control_c, 0, 64, 56
1, 389762, Control_c, 0, 64, 65
1, 389769, Note_off_c, 0, 77, 41
1, 389778, Control_c, 0, 64, 81
1, 389789, Note_on_c, 0, 64, 64
1, 389793, Control_c, 0, 64, 127
1, 389797, Note_off_c, 0, 56, 65
1, 389798, Note_on_c, 0, 85, 80
1, 389809, Note_off_c, 0, 76, 61
1, 389827, Note_off_c, 0, 89, 58
1, 389834, Note_off_c, 0, 88, 65
1, 389848, Note_on_c, 0, 71, 72
1, 389848, Note_off_c, 0, 64, 61
1, 389866, Note_on_c, 0, 83, 65
1, 389879, Note_off_c, 0, 85, 64
1, 389883, Note_off_c, 0, 71, 59
1, 389912, Note_on_c, 0, 89, 95
1, 389918, Note_on_c, 0, 77, 87
1, 389926, Note_off_c, 0, 83, 65
1, 389939, Note_on_c, 0, 65, 76
1, 389994, Note_on_c, 0, 71, 70
1, 389994, Note_on_c, 0, 86, 80
1, 390016, Note_off_c, 0, 65, 61
1, 390020, Note_off_c, 0, 77, 60
1, 390033, Note_on_c, 0, 85, 84
1, 390041, Note_off_c, 0, 89, 62
1, 390044, Note_on_c, 0, 73, 79
1, 390076, Note_off_c, 0, 71, 62
1, 390088, Note_off_c, 0, 86, 63
1, 390104, Note_on_c, 0, 83, 84
1, 390107, Note_off_c, 0, 73, 65
1, 390109, Note_off_c, 0, 85, 62
1, 390114, Note_on_c, 0, 74, 78
1, 390143, Note_on_c, 0, 85, 53
1, 390176, Note_on_c, 0, 73, 71
1, 390179, Note_off_c, 0, 83, 65
1, 390193, Note_on_c, 0, 86, 69
1, 390197, Note_off_c, 0, 74, 59
1, 390208, Note_off_c, 0, 85, 66
1, 390213, Note_on_c, 0, 71, 69
1, 390218, Note_off_c, 0, 86, 69
1, 390272, Note_off_c, 0, 73, 62
1, 390296, Note_on_c, 0, 70, 72
1, 390302, Note_on_c, 0, 95, 91
1, 390311, Note_on_c, 0, 83, 81
1, 390311, Note_off_c, 0, 71, 58
1, 390364, Note_off_c, 0, 70, 63
1, 390370, Note_on_c, 0, 90, 77
1, 390389, Note_on_c, 0, 69, 73
1, 390442, Note_off_c, 0, 69, 61
1, 390445, Note_on_c, 0, 89, 75
1, 390446, Note_off_c, 0, 95, 64
1, 390450, Note_off_c, 0, 83, 59
1, 390459, Note_on_c, 0, 68, 60
1, 390505, Note_off_c, 0, 90, 58
1, 390537, Note_on_c, 0, 58, 68
1, 390538, Note_off_c, 0, 68, 56
1, 390541, Control_c, 0, 64, 90
1, 390556, Control_c, 0, 64, 71
1, 390563, Note_off_c, 0, 89, 62
1, 390564, Note_on_c, 0, 95, 80
1, 390569, Note_on_c, 0, 83, 73
1, 390571, Control_c, 0, 64, 60
1, 390587, Control_c, 0, 64, 59
1, 390601, Control_c, 0, 64, 64
1, 390616, Control_c, 0, 64, 69
1, 390631, Control_c, 0, 64, 80
1, 390646, Control_c, 0, 64, 127
1, 390659, Note_off_c, 0, 58, 64
1, 390660, Note_on_c, 0, 68, 69
1, 390686, Note_on_c, 0, 87, 72
1, 390687, Note_off_c, 0, 95, 63
1, 390702, Note_off_c, 0, 83, 61
1, 390704, Note_off_c, 0, 68, 61
1, 390736, Note_on_c, 0, 74, 69
1, 390748, Note_on_c, 0, 86, 70
1, 390775, Note_off_c, 0, 87, 63
1, 390808, Note_on_c, 0, 94, 96
1, 390810, Note_on_c, 0, 82, 90
1, 390814, Note_off_c, 0, 86, 66
1, 390820, Note_on_c, 0, 76, 77
1, 390823, Note_off_c, 0, 74, 62
1, 390874, Note_on_c, 0, 87, 84
1, 390882, Note_on_c, 0, 78, 80
1, 390886, Note_off_c, 0, 76, 63
1, 390910, Note_off_c, 0, 94, 64
1, 390913, Note_off_c, 0, 82, 64
1, 390924, Note_on_c, 0, 86, 79
1, 390939, Note_off_c, 0, 78, 65
1, 390945, Note_on_c, 0, 77, 80
1, 390957, Note_off_c, 0, 87, 64
1, 390992, Note_on_c, 0, 93, 96
1, 390995, Note_on_c, 0, 81, 89
1, 391006, Note_off_c, 0, 86, 63
1, 391008, Note_off_c, 0, 77, 63
1, 391009, Note_on_c, 0, 80, 77
1, 391034, Note_on_c, 0, 78, 70
1, 391053, Note_on_c, 0, 87, 89
1, 391070, Note_off_c, 0, 80, 62
1, 391073, Note_off_c, 0, 78, 56
1, 391080, Note_off_c, 0, 81, 61
1, 391091, Note_off_c, 0, 93, 66
1, 391095, Note_on_c, 0, 77, 83
1, 391108, Note_on_c, 0, 86, 82
1, 391142, Note_off_c, 0, 87, 63
1, 391175, Note_on_c, 0, 92, 97
1, 391183, Note_off_c, 0, 86, 64
1, 391189, Note_on_c, 0, 82, 72
1, 391195, Note_on_c, 0, 81, 83
1, 391242, Note_on_c, 0, 87, 85
1, 391255, Note_off_c, 0, 81, 47
1, 391255, Note_off_c, 0, 77, 61
1, 391277, Note_off_c, 0, 82, 63
1, 391292, Note_off_c, 0, 92, 65
1, 391293, Note_on_c, 0, 86, 78
1, 391338, Note_off_c, 0, 87, 60
1, 391364, Control_c, 0, 64, 92
1, 391365, Note_off_c, 0, 86, 65
1, 391374, Note_on_c, 0, 92, 90
1, 391374, Note_on_c, 0, 80, 83
1, 391380, Control_c, 0, 64, 69
1, 391381, Note_on_c, 0, 59, 70
1, 391395, Control_c, 0, 64, 56
1, 391410, Control_c, 0, 64, 58
1, 391431, Control_c, 0, 64, 64
1, 391446, Control_c, 0, 64, 70
1, 391460, Note_off_c, 0, 59, 63
1, 391461, Control_c, 0, 64, 94
1, 391465, Note_on_c, 0, 85, 77
1, 391470, Note_on_c, 0, 66, 73
1, 391476, Note_off_c, 0, 80, 64
1, 391476, Note_off_c, 0, 92, 63
1, 391476, Control_c, 0, 64, 127
1, 391520, Note_on_c, 0, 68, 76
1, 391529, Note_on_c, 0, 83, 75
1, 391538, Note_off_c, 0, 66, 60
1, 391552, Note_off_c, 0, 85, 62
1, 391559, Note_off_c, 0, 68, 61
1, 391574, Note_on_c, 0, 70, 73
1, 391581, Note_on_c, 0, 90, 94
1, 391588, Note_on_c, 0, 78, 92
1, 391593, Note_off_c, 0, 83, 66
1, 391650, Note_on_c, 0, 87, 84
1, 391651, Note_on_c, 0, 71, 72
1, 391679, Note_off_c, 0, 78, 61
1, 391702, Note_on_c, 0, 73, 78
1, 391702, Note_on_c, 0, 85, 78
1, 391720, Note_off_c, 0, 70, 58
1, 391723, Note_off_c, 0, 90, 62
1, 391732, Note_off_c, 0, 71, 62
1, 391755, Note_on_c, 0, 82, 91
1, 391756, Note_off_c, 0, 87, 63
1, 391765, Note_on_c, 0, 75, 81
1, 391769, Note_off_c, 0, 85, 66
1, 391777, Note_off_c, 0, 73, 63
1, 391814, Note_on_c, 0, 83, 61
1, 391814, Note_on_c, 0, 85, 66
1, 391815, Note_on_c, 0, 73, 66
1, 391839, Note_off_c, 0, 82, 63
1, 391840, Note_on_c, 0, 87, 83
1, 391841, Note_off_c, 0, 75, 61
1, 391845, Note_off_c, 0, 83, 67
1, 391872, Note_off_c, 0, 73, 63
1, 391878, Note_off_c, 0, 85, 66
1, 391890, Note_on_c, 0, 71, 71
1, 391890, Note_off_c, 0, 87, 62
1, 391926, Note_off_c, 0, 71, 59
1, 391950, Note_on_c, 0, 80, 101
1, 391950, Note_on_c, 0, 92, 104
1, 391953, Note_on_c, 0, 64, 81
1, 392024, Note_on_c, 0, 73, 86
1, 392025, Note_on_c, 0, 88, 79
1, 392081, Note_on_c, 0, 71, 65
1, 392089, Note_off_c, 0, 73, 65
1, 392092, Note_off_c, 0, 64, 59
1, 392095, Note_on_c, 0, 86, 82
1, 392099, Note_off_c, 0, 80, 61
1, 392108, Note_off_c, 0, 92, 63
1, 392111, Note_off_c, 0, 71, 66
1, 392122, Note_off_c, 0, 88, 64
1, 392220, Note_on_c, 0, 57, 75
1, 392235, Note_on_c, 0, 59, 72
1, 392259, Note_on_c, 0, 93, 94
1, 392260, Note_off_c, 0, 59, 52
1, 392261, Note_on_c, 0, 81, 86
1, 392269, Control_c, 0, 64, 90
1, 392274, Note_off_c, 0, 86, 63
1, 392284, Control_c, 0, 64, 67
1, 392299, Control_c, 0, 64, 46
1, 392314, Control_c, 0, 64, 42
1, 392328, Control_c, 0, 64, 54
1, 392343, Control_c, 0, 64, 62
1, 392358, Control_c, 0, 64, 69
1, 392361, Note_on_c, 0, 64, 67
1, 392373, Control_c, 0, 64, 90
1, 392382, Note_off_c, 0, 57, 60
1, 392383, Note_on_c, 0, 86, 73
1, 392388, Control_c, 0, 64, 127
1, 392403, Note_off_c, 0, 64, 59
1, 392416, Note_off_c, 0, 93, 65
1, 392425, Note_off_c, 0, 81, 64
1, 392427, Note_on_c, 0, 69, 73
1, 392434, Note_on_c, 0, 85, 80
1, 392473, Note_off_c, 0, 86, 59
1, 392475, Note_off_c, 0, 69, 51
1, 392511, Note_on_c, 0, 73, 78
1, 392516, Note_on_c, 0, 92, 103
1, 392518, Note_on_c, 0, 80, 94
1, 392531, Note_off_c, 0, 85, 64
1, 392578, Note_off_c, 0, 73, 63
1, 392585, Note_on_c, 0, 86, 75
1, 392587, Note_on_c, 0, 74, 80
1, 392626, Note_off_c, 0, 92, 65
1, 392640, Note_off_c, 0, 74, 63
1, 392640, Note_off_c, 0, 80, 62
1, 392642, Note_on_c, 0, 85, 76
1, 392647, Note_on_c, 0, 75, 75
1, 392663, Note_off_c, 0, 86, 62
1, 392698, Note_on_c, 0, 91, 96
1, 392701, Note_on_c, 0, 79, 90
1, 392702, Note_on_c, 0, 76, 81
1, 392704, Note_off_c, 0, 75, 62
1, 392723, Note_off_c, 0, 85, 64
1, 392728, Note_on_c, 0, 81, 53
1, 392729, Note_off_c, 0, 81, 127
1, 392769, Note_on_c, 0, 86, 81
1, 392771, Note_on_c, 0, 74, 73
1, 392775, Note_off_c, 0, 76, 62
1, 392791, Note_off_c, 0, 79, 60
1, 392803, Note_off_c, 0, 91, 62
1, 392814, Note_on_c, 0, 73, 74
1, 392820, Note_on_c, 0, 85, 78
1, 392835, Note_off_c, 0, 74, 61
1, 392853, Note_off_c, 0, 86, 62
1, 392873, Note_off_c, 0, 73, 64
1, 392882, Note_on_c, 0, 90, 101
1, 392888, Note_on_c, 0, 78, 92
1, 392898, Note_on_c, 0, 72, 62
1, 392899, Note_on_c, 0, 71, 56
1, 392901, Note_off_c, 0, 85, 64
1, 392918, Note_off_c, 0, 72, 65
1, 392939, Note_off_c, 0, 71, 61
1, 392954, Note_on_c, 0, 86, 73
1, 392956, Note_on_c, 0, 70, 73
1, 392995, Note_on_c, 0, 85, 80
1, 392999, Note_off_c, 0, 78, 61
1, 393007, Note_off_c, 0, 90, 62
1, 393011, Note_on_c, 0, 69, 72
1, 393013, Note_off_c, 0, 70, 62
1, 393034, Note_off_c, 0, 86, 63
1, 393047, Note_off_c, 0, 69, 64
1, 393056, Note_off_c, 0, 85, 64
1, 393078, Control_c, 0, 64, 90
1, 393090, Note_on_c, 0, 78, 83
1, 393092, Control_c, 0, 64, 65
1, 393093, Note_on_c, 0, 90, 88
1, 393096, Note_on_c, 0, 53, 77
1, 393107, Control_c, 0, 64, 36
1, 393122, Control_c, 0, 64, 42
1, 393137, Control_c, 0, 64, 62
1, 393145, Note_on_c, 0, 87, 18
1, 393152, Control_c, 0, 64, 72
1, 393163, Note_off_c, 0, 53, 60
1, 393166, Control_c, 0, 64, 107
1, 393168, Note_on_c, 0, 63, 74
1, 393169, Note_on_c, 0, 82, 75
1, 393181, Control_c, 0, 64, 127
1, 393189, Note_off_c, 0, 78, 59
1, 393195, Note_off_c, 0, 87, 44
1, 393209, Note_on_c, 0, 80, 75
1, 393212, Note_off_c, 0, 90, 63
1, 393215, Note_off_c, 0, 63, 60
1, 393230, Note_on_c, 0, 67, 64
1, 393245, Note_off_c, 0, 82, 64
1, 393255, Note_off_c, 0, 80, 66
1, 393269, Note_on_c, 0, 69, 3
1, 393273, Note_off_c, 0, 67, 55
1, 393292, Note_on_c, 0, 89, 96
1, 393298, Note_on_c, 0, 77, 83
1, 393303, Note_on_c, 0, 68, 70
1, 393307, Note_off_c, 0, 69, 39
1, 393340, Note_on_c, 0, 79, 36
1, 393341, Note_off_c, 0, 79, 127
1, 393348, Note_off_c, 0, 68, 55
1, 393354, Note_on_c, 0, 84, 71
1, 393356, Note_off_c, 0, 77, 58
1, 393368, Note_on_c, 0, 69, 69
1, 393404, Note_off_c, 0, 69, 57
1, 393406, Note_on_c, 0, 82, 76
1, 393422, Note_on_c, 0, 70, 77
1, 393428, Note_off_c, 0, 89, 56
1, 393440, Note_off_c, 0, 84, 61
1, 393466, Note_off_c, 0, 82, 64
1, 393476, Note_on_c, 0, 81, 71
1, 393481, Note_off_c, 0, 70, 62
1, 393490, Note_on_c, 0, 72, 81
1, 393536, Note_on_c, 0, 82, 82
1, 393562, Note_on_c, 0, 70, 63
1, 393565, Note_off_c, 0, 72, 59
1, 393576, Note_off_c, 0, 81, 62
1, 393592, Note_on_c, 0, 69, 70
1, 393600, Note_on_c, 0, 84, 79
1, 393617, Note_off_c, 0, 70, 60
1, 393617, Note_off_c, 0, 82, 64
1, 393637, Note_off_c, 0, 84, 59
1, 393661, Note_off_c, 0, 69, 63
1, 393670, Note_on_c, 0, 72, 71
1, 393690, Note_on_c, 0, 91, 97
1, 393691, Note_on_c, 0, 79, 89
1, 393735, Note_on_c, 0, 70, 68
1, 393741, Note_off_c, 0, 72, 62
1, 393742, Note_on_c, 0, 82, 69
1, 393756, Note_on_c, 0, 69, 66
1, 393765, Note_off_c, 0, 70, 67
1, 393776, Note_off_c, 0, 69, 64
1, 393780, Note_on_c, 0, 84, 70
1, 393791, Note_off_c, 0, 79, 63
1, 393801, Note_off_c, 0, 91, 62
1, 393815, Note_off_c, 0, 82, 64
1, 393824, Note_off_c, 0, 84, 61
1, 393884, Note_on_c, 0, 56, 64
1, 393886, Control_c, 0, 64, 101
1, 393901, Control_c, 0, 64, 72
1, 393915, Control_c, 0, 64, 54
1, 393918, Note_on_c, 0, 92, 82
1, 393930, Note_on_c, 0, 80, 71
1, 393930, Control_c, 0, 64, 44
1, 393945, Control_c, 0, 64, 56
1, 393960, Control_c, 0, 64, 63
1, 393971, Note_on_c, 0, 63, 62
1, 393975, Control_c, 0, 64, 72
1, 393989, Control_c, 0, 64, 96
1, 393993, Note_on_c, 0, 85, 73
1, 393997, Note_off_c, 0, 56, 63
1, 394004, Control_c, 0, 64, 127
1, 394017, Note_off_c, 0, 63, 60
1, 394027, Note_on_c, 0, 68, 69
1, 394047, Note_off_c, 0, 92, 65
1, 394058, Note_off_c, 0, 80, 60
1, 394063, Note_off_c, 0, 68, 62
1, 394073, Note_on_c, 0, 84, 65
1, 394100, Note_off_c, 0, 85, 64
1, 394121, Note_on_c, 0, 72, 65
1, 394128, Note_on_c, 0, 91, 90
1, 394138, Note_on_c, 0, 79, 80
1, 394146, Note_off_c, 0, 84, 64
1, 394175, Note_on_c, 0, 73, 70
1, 394177, Note_off_c, 0, 72, 64
1, 394202, Note_on_c, 0, 85, 83
1, 394219, Note_off_c, 0, 79, 61
1, 394223, Note_off_c, 0, 73, 60
1, 394228, Note_on_c, 0, 74, 70
1, 394230, Note_off_c, 0, 91, 62
1, 394236, Poly_aftertouch_c, 0, 89, 0
1, 394257, Note_on_c, 0, 84, 74
1, 394286, Note_off_c, 0, 85, 64
1, 394299, Note_off_c, 0, 74, 62
1, 394322, Note_on_c, 0, 90, 95
1, 394330, Note_on_c, 0, 78, 82
1, 394333, Note_off_c, 0, 84, 65
1, 394337, Note_on_c, 0, 73, 73
1, 394394, Note_on_c, 0, 85, 76
1, 394394, Note_off_c, 0, 73, 64
1, 394403, Note_off_c, 0, 78, 63
1, 394411, Note_off_c, 0, 90, 64
1, 394428, Note_on_c, 0, 72, 67
1, 394451, Note_on_c, 0, 84, 71
1, 394483, Note_off_c, 0, 85, 63
1, 394491, Note_off_c, 0, 72, 63
1, 394501, Note_on_c, 0, 70, 65
1, 394528, Note_on_c, 0, 89, 86
1, 394528, Note_off_c, 0, 84, 63
1, 394532, Note_on_c, 0, 69, 66
1, 394537, Note_on_c, 0, 77, 73
1, 394557, Note_off_c, 0, 70, 61
1, 394571, Note_off_c, 0, 69, 62
1, 394600, Note_on_c, 0, 85, 72
1, 394615, Note_off_c, 0, 77, 54
1, 394620, Note_off_c, 0, 89, 60
1, 394653, Note_on_c, 0, 84, 64
1, 394674, Note_off_c, 0, 85, 58
1, 394709, Control_c, 0, 64, 90
1, 394717, Note_off_c, 0, 84, 63
1, 394724, Control_c, 0, 64, 69
1, 394725, Note_on_c, 0, 52, 68
1, 394737, Note_on_c, 0, 89, 77
1, 394738, Control_c, 0, 64, 64
1, 394749, Note_on_c, 0, 77, 63
1, 394753, Control_c, 0, 64, 67
1, 394760, Note_off_c, 0, 52, 67
1, 394768, Control_c, 0, 64, 75
1, 394779, Note_off_c, 0, 89, 64
1, 394783, Control_c, 0, 64, 102
1, 394798, Control_c, 0, 64, 127
1, 394809, Note_off_c, 0, 77, 42
1, 394848, Note_on_c, 0, 81, 61
1, 394898, Note_on_c, 0, 68, 51
1, 394919, Note_off_c, 0, 81, 65
1, 394922, Note_on_c, 0, 80, 53
1, 394936, Note_off_c, 0, 68, 57
1, 394949, Note_off_c, 0, 80, 63
1, 394955, Note_on_c, 0, 67, 57
1, 394960, Note_on_c, 0, 88, 69
1, 394972, Note_on_c, 0, 76, 70
1, 395004, Note_off_c, 0, 67, 53
1, 395010, Note_on_c, 0, 68, 50
1, 395029, Note_on_c, 0, 83, 66
1, 395044, Note_off_c, 0, 76, 59
1, 395050, Note_on_c, 0, 69, 67
1, 395056, Note_off_c, 0, 88, 59
1, 395067, Note_off_c, 0, 68, 56
1, 395101, Note_on_c, 0, 81, 59
1, 395117, Note_off_c, 0, 69, 60
1, 395130, Note_on_c, 0, 71, 58
1, 395142, Note_off_c, 0, 83, 60
1, 395180, Note_on_c, 0, 80, 64
1, 395210, Note_off_c, 0, 71, 62
1, 395221, Note_on_c, 0, 69, 55
1, 395243, Note_off_c, 0, 80, 61
1, 395260, Note_on_c, 0, 83, 62
1, 395264, Note_off_c, 0, 81, 59
1, 395273, Note_on_c, 0, 68, 51
1, 395288, Note_off_c, 0, 83, 66
1, 395306, Note_off_c, 0, 69, 59
1, 395326, Note_off_c, 0, 68, 58
1, 395354, Note_on_c, 0, 71, 56
1, 395378, Note_on_c, 0, 90, 75
1, 395389, Note_on_c, 0, 78, 64
1, 395441, Note_on_c, 0, 69, 51
1, 395443, Note_on_c, 0, 81, 56
1, 395446, Note_off_c, 0, 71, 57
1, 395494, Note_off_c, 0, 69, 58
1, 395496, Note_on_c, 0, 68, 42
1, 395508, Note_on_c, 0, 83, 60
1, 395528, Note_off_c, 0, 68, 51
1, 395533, Note_off_c, 0, 81, 61
1, 395539, Note_off_c, 0, 90, 56
1, 395541, Note_off_c, 0, 78, 32
1, 395581, Note_off_c, 0, 83, 61
1, 395649, Note_on_c, 0, 55, 46
1, 395693, Control_c, 0, 64, 100
1, 395706, Note_on_c, 0, 91, 73
1, 395708, Control_c, 0, 64, 75
1, 395720, Note_on_c, 0, 79, 55
1, 395723, Control_c, 0, 64, 61
1, 395738, Control_c, 0, 64, 47
1, 395752, Control_c, 0, 64, 56
1, 395767, Control_c, 0, 64, 62
1, 395782, Control_c, 0, 64, 67
1, 395796, Control_c, 0, 64, 80
1, 395801, Note_on_c, 0, 62, 44
1, 395811, Control_c, 0, 64, 127
1, 395819, Note_off_c, 0, 55, 54
1, 395846, Note_off_c, 0, 91, 57
1, 395849, Note_off_c, 0, 62, 63
1, 395855, Note_on_c, 0, 84, 43
1, 395867, Note_off_c, 0, 79, 62
1, 395886, Note_on_c, 0, 67, 58
1, 395930, Note_on_c, 0, 83, 46
1, 395930, Note_off_c, 0, 67, 62
1, 395956, Note_off_c, 0, 84, 42
1, 395992, Note_on_c, 0, 71, 63
1, 395998, Note_off_c, 0, 83, 63
1, 396000, Note_on_c, 0, 90, 85
1, 396016, Note_on_c, 0, 78, 71
1, 396038, Note_off_c, 0, 71, 57
1, 396069, Note_on_c, 0, 72, 64
1, 396077, Note_on_c, 0, 84, 64
1, 396100, Note_off_c, 0, 72, 66
1, 396110, Note_on_c, 0, 73, 70
1, 396112, Note_off_c, 0, 90, 63
1, 396115, Note_on_c, 0, 83, 67
1, 396120, Note_off_c, 0, 84, 60
1, 396129, Note_off_c, 0, 78, 58
1, 396142, Note_off_c, 0, 83, 68
1, 396159, Note_off_c, 0, 73, 56
1, 396185, Note_on_c, 0, 74, 70
1, 396206, Note_on_c, 0, 86, 86
1, 396238, Note_off_c, 0, 74, 51
1, 396254, Note_on_c, 0, 72, 65
1, 396272, Note_on_c, 0, 81, 69
1, 396302, Note_on_c, 0, 71, 68
1, 396304, Note_off_c, 0, 86, 60
1, 396314, Note_off_c, 0, 72, 62
1, 396322, Note_on_c, 0, 79, 69
1, 396332, Note_off_c, 0, 71, 66
1, 396337, Note_off_c, 0, 81, 62
1, 396376, Note_off_c, 0, 79, 65
1, 396376, Note_on_c, 0, 69, 74
1, 396379, Note_on_c, 0, 78, 79
1, 396425, Note_on_c, 0, 79, 71
1, 396431, Note_off_c, 0, 69, 63
1, 396437, Note_on_c, 0, 67, 74
1, 396458, Note_off_c, 0, 78, 63
1, 396463, Note_off_c, 0, 67, 68
1, 396471, Note_on_c, 0, 66, 57
1, 396482, Note_on_c, 0, 81, 64
1, 396492, Note_off_c, 0, 79, 65
1, 396492, Note_off_c, 0, 66, 59
1, 396510, Note_off_c, 0, 81, 68
1, 396575, Control_c, 0, 64, 98
1, 396577, Note_on_c, 0, 54, 53
1, 396590, Control_c, 0, 64, 72
1, 396603, Note_on_c, 0, 90, 78
1, 396605, Control_c, 0, 64, 56
1, 396611, Note_on_c, 0, 78, 70
1, 396619, Control_c, 0, 64, 49
1, 396634, Control_c, 0, 64, 59
1, 396649, Control_c, 0, 64, 64
1, 396656, Note_on_c, 0, 56, 3
1, 396661, Note_on_c, 0, 61, 59
1, 396664, Control_c, 0, 64, 74
1, 396686, Control_c, 0, 64, 102
1, 396700, Note_off_c, 0, 54, 64
1, 396701, Control_c, 0, 64, 127
1, 396715, Note_on_c, 0, 83, 58
1, 396716, Note_off_c, 0, 56, 43
1, 396728, Note_off_c, 0, 90, 63
1, 396730, Note_on_c, 0, 66, 60
1, 396731, Note_off_c, 0, 61, 62
1, 396737, Note_off_c, 0, 78, 63
1, 396759, Note_off_c, 0, 66, 64
1, 396769, Note_on_c, 0, 81, 58
1, 396776, Note_off_c, 0, 83, 63
1, 396822, Note_on_c, 0, 89, 86
1, 396823, Note_on_c, 0, 69, 64
1, 396828, Note_off_c, 0, 81, 62
1, 396829, Note_on_c, 0, 77, 79
1, 396865, Note_on_c, 0, 88, 31
1, 396866, Note_off_c, 0, 88, 127
1, 396876, Note_on_c, 0, 71, 63
1, 396879, Note_off_c, 0, 69, 63
1, 396898, Note_on_c, 0, 83, 66
1, 396899, Note_off_c, 0, 89, 62
1, 396905, Note_off_c, 0, 71, 68
1, 396929, Note_on_c, 0, 72, 67
1, 396929, Note_off_c, 0, 83, 67
1, 396948, Note_on_c, 0, 81, 60
1, 396975, Note_off_c, 0, 81, 65
1, 396987, Note_off_c, 0, 72, 60
1, 396993, Note_on_c, 0, 73, 78
1, 397013, Note_on_c, 0, 85, 82
1, 397047, Note_on_c, 0, 71, 57
1, 397057, Note_off_c, 0, 73, 62
1, 397072, Note_off_c, 0, 77, 56
1, 397078, Note_off_c, 0, 71, 66
1, 397089, Note_on_c, 0, 80, 66
1, 397123, Note_on_c, 0, 69, 63
1, 397133, Note_on_c, 0, 78, 58
1, 397167, Note_off_c, 0, 80, 61
1, 397167, Note_off_c, 0, 85, 57
1, 397173, Note_off_c, 0, 69, 46
1, 397193, Note_on_c, 0, 77, 67
1, 397193, Note_on_c, 0, 68, 66
1, 397205, Note_off_c, 0, 78, 0
1, 397226, Note_off_c, 0, 68, 65
1, 397243, Poly_aftertouch_c, 0, 78, 127
1, 397248, Note_on_c, 0, 78, 15
1, 397254, Note_on_c, 0, 66, 34
1, 397278, Note_off_c, 0, 77, 61
1, 397279, Note_on_c, 0, 80, 60
1, 397281, Note_off_c, 0, 66, 56
1, 397282, Note_off_c, 0, 78, 60
1, 397308, Note_off_c, 0, 80, 64
1, 397319, Note_on_c, 0, 65, 46
1, 397339, Control_c, 0, 64, 120
1, 397354, Control_c, 0, 64, 78
1, 397360, Note_off_c, 0, 65, 48
1, 397364, Note_on_c, 0, 53, 61
1, 397369, Control_c, 0, 64, 60
1, 397378, Note_on_c, 0, 89, 75
1, 397384, Control_c, 0, 64, 30
1, 397392, Note_on_c, 0, 77, 62
1, 397399, Control_c, 0, 64, 41
1, 397414, Control_c, 0, 64, 56
1, 397436, Control_c, 0, 64, 63
1, 397449, Note_off_c, 0, 53, 61
1, 397450, Control_c, 0, 64, 71
1, 397462, Note_on_c, 0, 60, 47
1, 397462, Note_off_c, 0, 89, 59
1, 397465, Control_c, 0, 64, 90
1, 397478, Note_on_c, 0, 82, 59
1, 397480, Control_c, 0, 64, 127
1, 397481, Note_off_c, 0, 77, 59
1, 397488, Note_off_c, 0, 60, 56
1, 397503, Note_on_c, 0, 65, 57
1, 397533, Note_on_c, 0, 81, 58
1, 397542, Note_off_c, 0, 82, 61
1, 397566, Note_off_c, 0, 65, 39
1, 397566, Note_off_c, 0, 81, 66
1, 397582, Note_on_c, 0, 88, 79
1, 397592, Note_on_c, 0, 69, 56
1, 397598, Note_on_c, 0, 76, 60
1, 397628, Note_off_c, 0, 69, 62
1, 397644, Note_on_c, 0, 70, 62
1, 397663, Note_on_c, 0, 82, 58
1, 397668, Note_off_c, 0, 88, 63
1, 397677, Note_off_c, 0, 70, 66
1, 397697, Note_off_c, 0, 82, 65
1, 397703, Note_on_c, 0, 71, 64
1, 397705, Note_on_c, 0, 81, 52
1, 397733, Note_off_c, 0, 81, 65
1, 397755, Note_off_c, 0, 71, 59
1, 397771, Note_on_c, 0, 72, 56
1, 397782, Note_on_c, 0, 84, 76
1, 397795, Note_off_c, 0, 76, 58
1, 397808, Note_on_c, 0, 70, 59
1, 397810, Note_off_c, 0, 72, 63
1, 397842, Note_off_c, 0, 70, 62
1, 397857, Note_on_c, 0, 79, 55
1, 397886, Note_on_c, 0, 69, 58
1, 397914, Note_on_c, 0, 77, 53
1, 397921, Note_off_c, 0, 79, 57
1, 397941, Note_off_c, 0, 69, 56
1, 397957, Note_off_c, 0, 77, 59
1, 397960, Note_on_c, 0, 67, 59
1, 397980, Note_on_c, 0, 76, 49
1, 398004, Note_off_c, 0, 67, 59
1, 398012, Note_off_c, 0, 84, 53
1, 398013, Note_on_c, 0, 65, 54
1, 398039, Note_on_c, 0, 77, 55
1, 398041, Note_off_c, 0, 65, 61
1, 398063, Note_off_c, 0, 76, 56
1, 398071, Note_on_c, 0, 79, 51
1, 398075, Note_off_c, 0, 77, 64
1, 398087, Note_on_c, 0, 64, 50
1, 398102, Note_off_c, 0, 79, 66
1, 398139, Note_off_c, 0, 64, 42
1, 398185, Control_c, 0, 64, 89
1, 398187, Note_on_c, 0, 52, 51
1, 398199, Control_c, 0, 64, 67
1, 398213, Note_on_c, 0, 88, 67
1, 398214, Control_c, 0, 64, 51
1, 398229, Note_on_c, 0, 76, 52
1, 398229, Control_c, 0, 64, 40
1, 398244, Control_c, 0, 64, 50
1, 398259, Control_c, 0, 64, 57
1, 398273, Control_c, 0, 64, 63
1, 398275, Note_off_c, 0, 52, 59
1, 398288, Control_c, 0, 64, 70
1, 398289, Note_on_c, 0, 59, 26
1, 398303, Control_c, 0, 64, 83
1, 398309, Note_off_c, 0, 88, 59
1, 398311, Note_on_c, 0, 81, 56
1, 398317, Note_off_c, 0, 76, 60
1, 398318, Control_c, 0, 64, 127
1, 398329, Note_off_c, 0, 59, 44
1, 398349, Note_on_c, 0, 64, 51
1, 398380, Note_on_c, 0, 79, 49
1, 398384, Note_off_c, 0, 64, 63
1, 398391, Note_off_c, 0, 81, 62
1, 398433, Note_off_c, 0, 79, 62
1, 398438, Note_on_c, 0, 87, 74
1, 398450, Note_on_c, 0, 67, 49
1, 398457, Note_on_c, 0, 75, 59
1, 398500, Note_off_c, 0, 67, 56
1, 398527, Note_on_c, 0, 69, 51
1, 398529, Note_on_c, 0, 81, 49
1, 398546, Note_off_c, 0, 87, 62
1, 398560, Note_off_c, 0, 69, 61
1, 398567, Note_off_c, 0, 81, 65
1, 398581, Note_on_c, 0, 79, 40
1, 398597, Note_on_c, 0, 70, 36
1, 398606, Note_off_c, 0, 79, 60
1, 398617, Note_off_c, 0, 75, 36
1, 398637, Note_off_c, 0, 70, 53
1, 398671, Note_on_c, 0, 83, 62
1, 398672, Note_on_c, 0, 71, 48
1, 398760, Note_on_c, 0, 78, 46
1, 398763, Note_off_c, 0, 71, 53
1, 398778, Note_on_c, 0, 69, 31
1, 398809, Note_off_c, 0, 78, 55
1, 398818, Note_on_c, 0, 76, 34
1, 398844, Note_on_c, 0, 67, 34
1, 398855, Note_off_c, 0, 69, 40
1, 398904, Note_off_c, 0, 76, 33
1, 398927, Note_off_c, 0, 67, 51
1, 398949, Note_on_c, 0, 66, 27
1, 398951, Note_on_c, 0, 75, 39
1, 399008, Note_off_c, 0, 66, 47
1, 399010, Note_off_c, 0, 75, 59
1, 399045, Note_on_c, 0, 76, 46
1, 399062, Note_on_c, 0, 64, 43
1, 399187, Note_off_c, 0, 83, 55
1, 399202, Note_off_c, 0, 64, 37
1, 399212, Note_on_c, 0, 78, 39
1, 399220, Note_on_c, 0, 63, 23
1, 399229, Note_off_c, 0, 76, 32
1, 399330, Note_off_c, 0, 63, 34
1, 399451, Note_off_c, 0, 78, 35
1, 399654, Note_on_c, 0, 39, 35
1, 399697, Control_c, 0, 64, 115
1, 399712, Control_c, 0, 64, 98
1, 399720, Note_on_c, 0, 87, 52
1, 399726, Control_c, 0, 64, 82
1, 399741, Control_c, 0, 64, 69
1, 399753, Note_on_c, 0, 75, 22
1, 399756, Control_c, 0, 64, 58
1, 399771, Control_c, 0, 64, 50
1, 399786, Control_c, 0, 64, 51
1, 399800, Control_c, 0, 64, 53
1, 399815, Control_c, 0, 64, 58
1, 399830, Control_c, 0, 64, 62
1, 399844, Control_c, 0, 64, 68
1, 399859, Control_c, 0, 64, 76
1, 399874, Control_c, 0, 64, 95
1, 399889, Control_c, 0, 64, 127
1, 399922, Note_off_c, 0, 39, 41
1, 399946, Note_on_c, 0, 46, 30
1, 399980, Note_off_c, 0, 87, 36
1, 399982, Note_on_c, 0, 83, 26
1, 399988, Note_off_c, 0, 46, 54
1, 400037, Note_on_c, 0, 54, 49
1, 400055, Note_off_c, 0, 75, 35
1, 400073, Note_on_c, 0, 82, 39
1, 400074, Note_off_c, 0, 54, 65
1, 400111, Note_off_c, 0, 83, 32
1, 400154, Note_off_c, 0, 82, 62
1, 400162, Note_on_c, 0, 58, 43
1, 400181, Note_on_c, 0, 86, 65
1, 400202, Note_on_c, 0, 74, 48
1, 400218, Note_off_c, 0, 58, 57
1, 400260, Note_on_c, 0, 63, 44
1, 400287, Note_on_c, 0, 82, 56
1, 400289, Note_off_c, 0, 63, 62
1, 400302, Note_off_c, 0, 86, 51
1, 400326, Note_off_c, 0, 74, 46
1, 400327, Note_on_c, 0, 65, 52
1, 400351, Note_on_c, 0, 80, 49
1, 400365, Note_off_c, 0, 65, 63
1, 400388, Note_off_c, 0, 82, 62
1, 400394, Note_on_c, 0, 66, 51
1, 400400, Note_off_c, 0, 80, 61
1, 400419, Note_on_c, 0, 78, 63
1, 400446, Note_off_c, 0, 66, 62
1, 400479, Note_on_c, 0, 65, 44
1, 400486, Note_off_c, 0, 78, 61
1, 400494, Note_on_c, 0, 80, 51
1, 400504, Note_off_c, 0, 65, 59
1, 400517, Note_on_c, 0, 82, 59
1, 400552, Note_on_c, 0, 63, 52
1, 400567, Note_off_c, 0, 80, 60
1, 400576, Note_off_c, 0, 82, 63
1, 400581, Note_off_c, 0, 63, 63
1, 400582, Note_on_c, 0, 61, 53
1, 400596, Note_on_c, 0, 87, 75
1, 400603, Note_on_c, 0, 75, 66
1, 400612, Note_off_c, 0, 61, 63
1, 400656, Note_on_c, 0, 59, 51
1, 400681, Note_off_c, 0, 59, 58
1, 400692, Note_on_c, 0, 78, 62
1, 400693, Note_off_c, 0, 87, 62
1, 400694, Note_on_c, 0, 80, 57
1, 400699, Note_off_c, 0, 75, 59
1, 400772, Control_c, 0, 64, 101
1, 400783, Note_off_c, 0, 80, 61
1, 400787, Control_c, 0, 64, 74
1, 400789, Note_on_c, 0, 42, 63
1, 400792, Note_on_c, 0, 86, 73
1, 400795, Note_off_c, 0, 78, 61
1, 400801, Control_c, 0, 64, 58
1, 400803, Note_on_c, 0, 74, 64
1, 400816, Control_c, 0, 64, 47
1, 400831, Control_c, 0, 64, 56
1, 400846, Control_c, 0, 64, 63
1, 400860, Control_c, 0, 64, 71
1, 400869, Note_on_c, 0, 49, 58
1, 400875, Control_c, 0, 64, 92
1, 400878, Note_off_c, 0, 42, 62
1, 400890, Control_c, 0, 64, 127
1, 400893, Note_on_c, 0, 83, 61
1, 400910, Note_off_c, 0, 74, 61
1, 400913, Note_off_c, 0, 49, 64
1, 400919, Note_off_c, 0, 86, 59
1, 400943, Note_on_c, 0, 58, 61
1, 400944, Note_on_c, 0, 82, 62
1, 400958, Note_off_c, 0, 83, 63
1, 400977, Note_off_c, 0, 58, 65
1, 401015, Note_off_c, 0, 82, 63
1, 401017, Note_on_c, 0, 85, 83
1, 401032, Note_on_c, 0, 61, 58
1, 401038, Note_on_c, 0, 73, 69
1, 401080, Note_on_c, 0, 63, 62
1, 401104, Note_on_c, 0, 82, 73
1, 401112, Note_off_c, 0, 63, 65
1, 401125, Note_off_c, 0, 73, 61
1, 401144, Note_on_c, 0, 65, 62
1, 401154, Note_off_c, 0, 85, 59
1, 401173, Note_off_c, 0, 61, 34
1, 401174, Note_on_c, 0, 80, 59
1, 401196, Note_off_c, 0, 65, 56
1, 401204, Note_off_c, 0, 82, 62
1, 401207, Note_on_c, 0, 66, 65
1, 401210, Note_off_c, 0, 80, 64
1, 401220, Note_on_c, 0, 78, 71
1, 401277, Note_on_c, 0, 59, 64
1, 401277, Note_off_c, 0, 66, 62
1, 401291, Note_on_c, 0, 80, 66
1, 401309, Note_off_c, 0, 78, 61
1, 401322, Note_on_c, 0, 82, 66
1, 401363, Note_off_c, 0, 59, 61
1, 401370, Note_on_c, 0, 58, 55
1, 401381, Note_off_c, 0, 80, 63
1, 401400, Note_off_c, 0, 58, 64
1, 401405, Note_off_c, 0, 82, 60
1, 401406, Note_on_c, 0, 86, 84
1, 401413, Note_on_c, 0, 74, 81
1, 401423, Note_on_c, 0, 66, 64
1, 401453, Note_off_c, 0, 66, 67
1, 401489, Note_on_c, 0, 80, 72
1, 401491, Note_on_c, 0, 59, 57
1, 401499, Note_on_c, 0, 58, 66
1, 401504, Note_off_c, 0, 74, 61
1, 401515, Note_off_c, 0, 86, 59
1, 401519, Note_off_c, 0, 59, 66
1, 401527, Note_off_c, 0, 58, 68
1, 401560, Note_on_c, 0, 78, 65
1, 401599, Note_off_c, 0, 80, 62
1, 401624, Control_c, 0, 64, 95
1, 401627, Note_on_c, 0, 44, 75
1, 401632, Note_off_c, 0, 78, 60
1, 401633, Note_on_c, 0, 85, 82
1, 401639, Control_c, 0, 64, 69
1, 401646, Note_on_c, 0, 73, 68
1, 401654, Control_c, 0, 64, 45
1, 401669, Control_c, 0, 64, 33
1, 401684, Control_c, 0, 64, 51
1, 401698, Control_c, 0, 64, 62
1, 401712, Note_on_c, 0, 51, 67
1, 401713, Control_c, 0, 64, 70
1, 401721, Note_on_c, 0, 80, 65
1, 401728, Control_c, 0, 64, 89
1, 401742, Note_off_c, 0, 44, 61
1, 401743, Control_c, 0, 64, 127
1, 401760, Note_off_c, 0, 51, 61
1, 401767, Note_on_c, 0, 56, 67
1, 401768, Note_off_c, 0, 85, 63
1, 401783, Note_off_c, 0, 73, 62
1, 401785, Note_on_c, 0, 78, 65
1, 401801, Note_off_c, 0, 56, 66
1, 401811, Note_off_c, 0, 80, 63
1, 401858, Note_on_c, 0, 84, 84
1, 401862, Note_off_c, 0, 78, 63
1, 401866, Note_on_c, 0, 72, 72
1, 401873, Note_on_c, 0, 60, 53
1, 401923, Note_on_c, 0, 63, 73
1, 401928, Note_off_c, 0, 60, 62
1, 401935, Note_on_c, 0, 78, 67
1, 401937, Note_off_c, 0, 72, 64
1, 401962, Note_off_c, 0, 63, 55
1, 401971, Note_off_c, 0, 84, 60
1, 401986, Note_on_c, 0, 65, 66
1, 401991, Note_on_c, 0, 77, 72
1, 402046, Note_on_c, 0, 66, 70
1, 402049, Note_off_c, 0, 78, 51
1, 402052, Note_off_c, 0, 65, 0
1, 402058, Note_off_c, 0, 77, 64
1, 402058, Note_on_c, 0, 75, 76
1, 402089, Note_off_c, 0, 66, 54
1, 402090, Poly_aftertouch_c, 0, 65, 127
1, 402091, Note_on_c, 0, 65, 8
1, 402111, Note_on_c, 0, 77, 70
1, 402132, Note_off_c, 0, 75, 61
1, 402161, Note_on_c, 0, 63, 65
1, 402170, Note_on_c, 0, 78, 76
1, 402181, Note_off_c, 0, 65, 56
1, 402183, Note_off_c, 0, 77, 60
1, 402222, Note_off_c, 0, 63, 61
1, 402225, Note_on_c, 0, 66, 68
1, 402229, Note_off_c, 0, 78, 62
1, 402249, Note_on_c, 0, 85, 86
1, 402255, Note_on_c, 0, 73, 82
1, 402272, Note_on_c, 0, 65, 52
1, 402303, Note_off_c, 0, 66, 60
1, 402311, Note_off_c, 0, 65, 63
1, 402313, Note_on_c, 0, 63, 63
1, 402338, Note_on_c, 0, 80, 68
1, 402344, Note_off_c, 0, 63, 65
1, 402395, Note_off_c, 0, 85, 63
1, 402404, Note_on_c, 0, 78, 62
1, 402411, Note_off_c, 0, 73, 60
1, 402445, Note_on_c, 0, 46, 74
1, 402448, Note_off_c, 0, 80, 62
1, 402477, Control_c, 0, 64, 78
1, 402491, Note_off_c, 0, 78, 62
1, 402492, Control_c, 0, 64, 60
1, 402493, Note_on_c, 0, 84, 80
1, 402504, Note_on_c, 0, 72, 67
1, 402507, Control_c, 0, 64, 34
1, 402521, Control_c, 0, 64, 47
1, 402536, Control_c, 0, 64, 57
1, 402551, Control_c, 0, 64, 64
1, 402567, Control_c, 0, 64, 73
1, 402582, Control_c, 0, 64, 95
1, 402584, Note_off_c, 0, 46, 63
1, 402589, Note_on_c, 0, 56, 61
1, 402590, Poly_aftertouch_c, 0, 83, 127
1, 402597, Control_c, 0, 64, 127
1, 402600, Note_off_c, 0, 84, 59
1, 402607, Note_on_c, 0, 78, 69
1, 402616, Poly_aftertouch_c, 0, 83, 0
1, 402628, Note_off_c, 0, 56, 63
1, 402631, Note_off_c, 0, 72, 57
1, 402648, Note_on_c, 0, 60, 56
1, 402678, Note_on_c, 0, 77, 70
1, 402707, Note_off_c, 0, 78, 61
1, 402734, Note_off_c, 0, 60, 60
1, 402738, Note_on_c, 0, 62, 64
1, 402746, Note_on_c, 0, 83, 85
1, 402753, Note_on_c, 0, 71, 80
1, 402755, Note_off_c, 0, 77, 62
1, 402794, Note_on_c, 0, 63, 71
1, 402803, Note_off_c, 0, 62, 60
1, 402814, Note_on_c, 0, 78, 80
1, 402842, Note_off_c, 0, 63, 61
1, 402845, Note_off_c, 0, 83, 62
1, 402854, Note_off_c, 0, 71, 60
1, 402861, Note_on_c, 0, 65, 66
1, 402865, Note_on_c, 0, 77, 75
1, 402901, Note_off_c, 0, 65, 54
1, 402920, Note_off_c, 0, 78, 56
1, 402922, Note_on_c, 0, 66, 71
1, 402928, Note_off_c, 0, 77, 63
1, 402939, Note_on_c, 0, 83, 90
1, 402944, Note_on_c, 0, 71, 80
1, 402964, Note_off_c, 0, 66, 55
1, 402996, Note_on_c, 0, 65, 71
1, 403007, Note_on_c, 0, 77, 73
1, 403016, Note_off_c, 0, 71, 61
1, 403021, Note_off_c, 0, 83, 59
1, 403042, Note_off_c, 0, 65, 54
1, 403049, Note_on_c, 0, 78, 69
1, 403065, Note_on_c, 0, 63, 62
1, 403077, Note_off_c, 0, 77, 61
1, 403082, Note_on_c, 0, 62, 60
1, 403095, Note_off_c, 0, 63, 65
1, 403104, Note_off_c, 0, 78, 65
1, 403114, Note_off_c, 0, 62, 65
1, 403122, Note_on_c, 0, 82, 80
1, 403125, Note_on_c, 0, 70, 82
1, 403160, Note_off_c, 0, 82, 64
1, 403164, Note_on_c, 0, 59, 58
1, 403172, Note_on_c, 0, 80, 44
1, 403184, Note_on_c, 0, 75, 77
1, 403192, Note_off_c, 0, 59, 64
1, 403222, Note_off_c, 0, 70, 63
1, 403226, Note_on_c, 0, 74, 73
1, 403238, Note_off_c, 0, 80, 41
1, 403244, Note_off_c, 0, 75, 62
1, 403253, Note_off_c, 0, 74, 66
1, 403261, Poly_aftertouch_c, 0, 81, 0
1, 403349, Note_on_c, 0, 39, 70
1, 403390, Control_c, 0, 64, 104
1, 403399, Note_on_c, 0, 75, 82
1, 403412, Note_on_c, 0, 63, 75
1, 403413, Control_c, 0, 64, 73
1, 403428, Control_c, 0, 64, 54
1, 403442, Control_c, 0, 64, 18
1, 403457, Control_c, 0, 64, 33
1, 403472, Control_c, 0, 64, 50
1, 403487, Control_c, 0, 64, 61
1, 403501, Control_c, 0, 64, 71
1, 403512, Note_on_c, 0, 46, 58
1, 403516, Control_c, 0, 64, 93
1, 403519, Note_off_c, 0, 39, 63
1, 403526, Note_on_c, 0, 71, 54
1, 403531, Control_c, 0, 64, 127
1, 403573, Note_off_c, 0, 46, 63
1, 403582, Note_on_c, 0, 54, 61
1, 403594, Note_off_c, 0, 75, 62
1, 403602, Note_off_c, 0, 63, 62
1, 403619, Note_off_c, 0, 54, 64
1, 403632, Note_on_c, 0, 70, 63
1, 403650, Note_off_c, 0, 71, 63
1, 403682, Note_on_c, 0, 58, 67
1, 403691, Note_on_c, 0, 74, 82
1, 403694, Note_off_c, 0, 70, 64
1, 403713, Note_on_c, 0, 62, 61
1, 403735, Note_on_c, 0, 63, 73
1, 403755, Note_off_c, 0, 62, 60
1, 403762, Note_off_c, 0, 58, 58
1, 403764, Note_on_c, 0, 70, 74
1, 403798, Note_off_c, 0, 63, 60
1, 403800, Note_on_c, 0, 65, 72
1, 403804, Poly_aftertouch_c, 0, 72, 0
1, 403807, Note_off_c, 0, 74, 61
1, 403822, Note_on_c, 0, 68, 67
1, 403833, Note_off_c, 0, 65, 62
1, 403858, Note_off_c, 0, 70, 62
1, 403862, Note_off_c, 0, 68, 52
1, 403877, Note_on_c, 0, 66, 81
1, 403915, Note_on_c, 0, 65, 65
1, 403936, Note_on_c, 0, 63, 60
1, 403942, Note_off_c, 0, 65, 68
1, 403948, Note_on_c, 0, 68, 60
1, 403951, Note_off_c, 0, 66, 62
1, 403957, Note_on_c, 0, 70, 72
1, 403980, Note_on_c, 0, 61, 71
1, 403996, Note_off_c, 0, 63, 62
1, 404005, Note_off_c, 0, 61, 66
1, 404026, Note_off_c, 0, 68, 61
1, 404031, Note_off_c, 0, 70, 64
1, 404055, Note_on_c, 0, 63, 86
1, 404056, Note_on_c, 0, 75, 89
1, 404063, Note_on_c, 0, 59, 69
1, 404090, Note_off_c, 0, 59, 65
1, 404121, Note_on_c, 0, 56, 46
1, 404147, Note_off_c, 0, 56, 56
1, 404165, Note_on_c, 0, 66, 70
1, 404182, Note_off_c, 0, 75, 61
1, 404204, Note_on_c, 0, 69, 42
1, 404207, Note_off_c, 0, 63, 61
1, 404246, Note_on_c, 0, 42, 78
1, 404251, Note_off_c, 0, 69, 61
1, 404264, Control_c, 0, 64, 78
1, 404274, Note_on_c, 0, 74, 85
1, 404279, Control_c, 0, 64, 58
1, 404283, Note_on_c, 0, 62, 78
1, 404294, Control_c, 0, 64, 0
1, 404296, Note_off_c, 0, 66, 55
1, 404309, Control_c, 0, 64, 22
1, 404323, Control_c, 0, 64, 44
1, 404330, Note_on_c, 0, 49, 65
1, 404338, Control_c, 0, 64, 57
1, 404349, Note_off_c, 0, 42, 64
1, 404354, Control_c, 0, 64, 66
1, 404369, Control_c, 0, 64, 78
1, 404377, Note_on_c, 0, 71, 67
1, 404383, Control_c, 0, 64, 127
1, 404397, Note_off_c, 0, 49, 64
1, 404408, Note_off_c, 0, 62, 58
1, 404415, Note_on_c, 0, 58, 66
1, 404428, Note_off_c, 0, 74, 61
1, 404451, Note_off_c, 0, 58, 64
1, 404452, Note_on_c, 0, 70, 67
1, 404466, Note_off_c, 0, 71, 61
1, 404508, Note_on_c, 0, 73, 88
1, 404509, Note_on_c, 0, 61, 67
1, 404512, Note_off_c, 0, 70, 64
1, 404577, Note_on_c, 0, 63, 18
1, 404589, Note_on_c, 0, 70, 74
1, 404592, Note_on_c, 0, 62, 46
1, 404601, Note_off_c, 0, 61, 56
1, 404615, Note_on_c, 0, 65, 74
1, 404619, Note_off_c, 0, 62, 63
1, 404621, Note_off_c, 0, 63, 50
1, 404641, Note_off_c, 0, 73, 58
1, 404652, Note_on_c, 0, 68, 62
1, 404677, Note_off_c, 0, 65, 58
1, 404681, Note_off_c, 0, 70, 61
1, 404686, Note_off_c, 0, 68, 64
1, 404702, Note_on_c, 0, 66, 76
1, 404738, Note_on_c, 0, 59, 61
1, 404762, Note_on_c, 0, 68, 81
1, 404783, Note_on_c, 0, 58, 60
1, 404799, Note_off_c, 0, 66, 60
1, 404814, Note_on_c, 0, 70, 72
1, 404827, Note_off_c, 0, 59, 61
1, 404866, Note_on_c, 0, 62, 65
1, 404871, Note_off_c, 0, 68, 60
1, 404874, Note_off_c, 0, 58, 57
1, 404895, Note_on_c, 0, 74, 86
1, 404903, Note_off_c, 0, 70, 62
1, 404939, Note_on_c, 0, 59, 56
1, 404944, Note_off_c, 0, 62, 62
1, 404964, Note_on_c, 0, 58, 60
1, 404968, Note_off_c, 0, 59, 66
1, 404982, Note_on_c, 0, 68, 73
1, 404991, Note_off_c, 0, 58, 64
1, 405017, Note_off_c, 0, 74, 62
1, 405033, Note_on_c, 0, 66, 66
1, 405070, Note_off_c, 0, 68, 60
1, 405092, Note_on_c, 0, 44, 65
1, 405103, Control_c, 0, 64, 90
1, 405113, Note_on_c, 0, 73, 85
1, 405113, Note_off_c, 0, 66, 60
1, 405118, Control_c, 0, 64, 65
1, 405123, Note_on_c, 0, 61, 71
1, 405133, Control_c, 0, 64, 11
1, 405147, Control_c, 0, 64, 0
1, 405162, Control_c, 0, 64, 16
1, 405177, Control_c, 0, 64, 51
1, 405192, Control_c, 0, 64, 67
1, 405196, Note_on_c, 0, 51, 59
1, 405198, Note_on_c, 0, 68, 67
1, 405207, Control_c, 0, 64, 90
1, 405210, Note_off_c, 0, 44, 62
1, 405221, Control_c, 0, 64, 127
1, 405224, Note_off_c, 0, 51, 66
1, 405232, Note_on_c, 0, 56, 60
1, 405241, Note_off_c, 0, 61, 61
1, 405256, Note_off_c, 0, 73, 61
1, 405262, Note_off_c, 0, 56, 66
1, 405268, Note_on_c, 0, 66, 63
1, 405286, Poly_aftertouch_c, 0, 70, 127
1, 405304, Note_off_c, 0, 68, 60
1, 405315, Poly_aftertouch_c, 0, 70, 0
1, 405329, Note_on_c, 0, 60, 66
1, 405340, Note_on_c, 0, 72, 81
1, 405346, Note_off_c, 0, 66, 61
1, 405402, Note_on_c, 0, 63, 64
1, 405412, Note_on_c, 0, 66, 61
1, 405414, Note_off_c, 0, 60, 61
1, 405445, Note_off_c, 0, 63, 56
1, 405451, Note_off_c, 0, 72, 59
1, 405474, Note_on_c, 0, 65, 68
1, 405502, Note_off_c, 0, 66, 60
1, 405534, Note_off_c, 0, 65, 62
1, 405538, Note_on_c, 0, 63, 73
1, 405593, Note_on_c, 0, 65, 56
1, 405599, Note_off_c, 0, 63, 62
1, 405668, Note_on_c, 0, 66, 62
1, 405682, Note_off_c, 0, 65, 59
1, 405743, Note_off_c, 0, 66, 60
1, 405744, Note_on_c, 0, 61, 59
1, 405762, Note_on_c, 0, 73, 76
1, 405834, Note_on_c, 0, 65, 51
1, 405867, Note_on_c, 0, 68, 57
1, 405903, Note_off_c, 0, 65, 62
1, 405927, Note_off_c, 0, 61, 56
1, 405939, Note_off_c, 0, 73, 62
1, 405950, Note_on_c, 0, 66, 55
1, 405989, Note_off_c, 0, 68, 54
1, 406093, Note_on_c, 0, 34, 51
1, 406117, Note_on_c, 0, 72, 66
1, 406117, Note_off_c, 0, 66, 58
1, 406117, Control_c, 0, 64, 93
1, 406132, Control_c, 0, 64, 71
1, 406145, Note_on_c, 0, 60, 48
1, 406147, Control_c, 0, 64, 56
1, 406161, Control_c, 0, 64, 34
1, 406176, Control_c, 0, 64, 36
1, 406191, Control_c, 0, 64, 42
1, 406206, Control_c, 0, 64, 52
1, 406221, Control_c, 0, 64, 58
1, 406233, Note_on_c, 0, 46, 54
1, 406233, Note_off_c, 0, 34, 61
1, 406235, Control_c, 0, 64, 63
1, 406250, Control_c, 0, 64, 70
1, 406265, Control_c, 0, 64, 88
1, 406266, Note_off_c, 0, 72, 53
1, 406266, Note_off_c, 0, 46, 64
1, 406267, Note_on_c, 0, 66, 41
1, 406279, Control_c, 0, 64, 127
1, 406326, Note_off_c, 0, 60, 35
1, 406377, Note_on_c, 0, 65, 47
1, 406378, Note_on_c, 0, 53, 60
1, 406454, Note_off_c, 0, 66, 40
1, 406460, Note_off_c, 0, 53, 59
1, 406464, Note_off_c, 0, 65, 60
1, 406465, Note_on_c, 0, 71, 68
1, 406483, Note_on_c, 0, 59, 55
1, 406487, Note_on_c, 0, 62, 48
1, 406488, Note_on_c, 0, 56, 39
1, 406544, Note_off_c, 0, 62, 59
1, 406562, Note_on_c, 0, 66, 59
1, 406581, Note_off_c, 0, 71, 58
1, 406588, Note_off_c, 0, 56, 56
1, 406613, Note_off_c, 0, 59, 55
1, 406625, Note_on_c, 0, 65, 56
1, 406696, Note_on_c, 0, 71, 77
1, 406705, Note_off_c, 0, 66, 32
1, 406711, Note_on_c, 0, 59, 66
1, 406716, Note_off_c, 0, 65, 62
1, 406718, Control_c, 0, 64, 104
1, 406733, Control_c, 0, 64, 83
1, 406748, Control_c, 0, 64, 72
1, 406763, Control_c, 0, 64, 65
1, 406778, Control_c, 0, 64, 63
1, 406792, Control_c, 0, 64, 63
1, 406807, Control_c, 0, 64, 65
1, 406813, Note_on_c, 0, 66, 57
1, 406822, Control_c, 0, 64, 69
1, 406837, Control_c, 0, 64, 73
1, 406843, Note_off_c, 0, 71, 60
1, 406852, Note_off_c, 0, 59, 62
1, 406852, Control_c, 0, 64, 80
1, 406857, Note_on_c, 0, 65, 59
1, 406866, Control_c, 0, 64, 92
1, 406881, Control_c, 0, 64, 122
1, 406896, Control_c, 0, 64, 127
1, 406927, Note_off_c, 0, 66, 59
1, 406944, Note_off_c, 0, 65, 62
1, 406955, Control_c, 0, 64, 116
1, 406960, Note_on_c, 0, 70, 70
1, 406970, Control_c, 0, 64, 101
1, 406972, Note_on_c, 0, 58, 66
1, 406985, Control_c, 0, 64, 89
1, 407000, Control_c, 0, 64, 77
1, 407015, Control_c, 0, 64, 66
1, 407030, Control_c, 0, 64, 58
1, 407045, Control_c, 0, 64, 51
1, 407059, Control_c, 0, 64, 52
1, 407074, Control_c, 0, 64, 54
1, 407078, Note_on_c, 0, 63, 55
1, 407089, Control_c, 0, 64, 56
1, 407103, Control_c, 0, 64, 59
1, 407118, Control_c, 0, 64, 61
1, 407133, Control_c, 0, 64, 63
1, 407148, Control_c, 0, 64, 66
1, 407170, Control_c, 0, 64, 71
1, 407185, Control_c, 0, 64, 78
1, 407186, Note_on_c, 0, 62, 61
1, 407200, Control_c, 0, 64, 88
1, 407215, Control_c, 0, 64, 100
1, 407217, Note_off_c, 0, 70, 36
1, 407230, Control_c, 0, 64, 127
1, 407341, Note_off_c, 0, 58, 25
1, 407409, Note_on_c, 0, 54, 50
1, 407436, Note_on_c, 0, 39, 44
1, 407447, Note_on_c, 0, 57, 71
1, 407451, Note_on_c, 0, 46, 39
1, 407493, Note_off_c, 0, 62, 58
1, 407497, Control_c, 0, 64, 108
1, 407504, Note_off_c, 0, 63, 10
1, 407512, Control_c, 0, 64, 92
1, 407527, Control_c, 0, 64, 78
1, 407541, Control_c, 0, 64, 68
1, 407556, Control_c, 0, 64, 58
1, 407571, Control_c, 0, 64, 46
1, 407586, Control_c, 0, 64, 44
1, 407615, Control_c, 0, 64, 46
1, 407630, Control_c, 0, 64, 50
1, 407645, Control_c, 0, 64, 54
1, 407660, Control_c, 0, 64, 58
1, 407675, Control_c, 0, 64, 62
1, 407689, Control_c, 0, 64, 66
1, 407704, Control_c, 0, 64, 72
1, 407719, Control_c, 0, 64, 84
1, 407733, Control_c, 0, 64, 104
1, 407736, Note_on_c, 0, 63, 47
1, 407748, Control_c, 0, 64, 127
1, 407854, Note_off_c, 0, 57, 61
1, 407866, Note_on_c, 0, 66, 52
1, 407873, Note_off_c, 0, 63, 51
1, 407963, Control_c, 0, 64, 113
1, 407978, Control_c, 0, 64, 97
1, 407993, Control_c, 0, 64, 82
1, 407997, Note_off_c, 0, 66, 56
1, 408008, Control_c, 0, 64, 68
1, 408009, Note_on_c, 0, 58, 65
1, 408020, Note_on_c, 0, 63, 45
1, 408023, Control_c, 0, 64, 55
1, 408037, Control_c, 0, 64, 35
1, 408052, Control_c, 0, 64, 38
1, 408067, Control_c, 0, 64, 45
1, 408082, Control_c, 0, 64, 53
1, 408097, Note_off_c, 0, 63, 60
1, 408097, Control_c, 0, 64, 59
1, 408112, Control_c, 0, 64, 64
1, 408127, Control_c, 0, 64, 72
1, 408135, Note_on_c, 0, 66, 50
1, 408142, Control_c, 0, 64, 83
1, 408157, Control_c, 0, 64, 107
1, 408172, Control_c, 0, 64, 127
1, 408192, Note_off_c, 0, 66, 57
1, 408236, Note_on_c, 0, 63, 52
1, 408278, Note_off_c, 0, 63, 62
1, 408310, Note_on_c, 0, 66, 54
1, 408350, Note_off_c, 0, 66, 61
1, 408371, Note_on_c, 0, 63, 60
1, 408386, Note_off_c, 0, 39, 39
1, 408386, Note_off_c, 0, 54, 41
1, 408426, Note_off_c, 0, 63, 55
1, 408444, Note_on_c, 0, 66, 61
1, 408449, Note_off_c, 0, 46, 38
1, 408502, Note_off_c, 0, 66, 59
1, 408520, Note_on_c, 0, 63, 60
1, 408562, Note_off_c, 0, 63, 60
1, 408577, Note_on_c, 0, 66, 56
1, 408580, Note_off_c, 0, 58, 37
1, 408645, Note_on_c, 0, 63, 66
1, 408661, Note_off_c, 0, 66, 55
1, 408772, Note_on_c, 0, 54, 52
1, 408780, Note_on_c, 0, 39, 44
1, 408794, Note_on_c, 0, 46, 43
1, 408798, Note_on_c, 0, 57, 71
1, 408817, Control_c, 0, 64, 97
1, 408830, Note_off_c, 0, 63, 50
1, 408831, Control_c, 0, 64, 79
1, 408846, Control_c, 0, 64, 66
1, 408861, Control_c, 0, 64, 56
1, 408876, Control_c, 0, 64, 51
1, 408905, Control_c, 0, 64, 52
1, 408920, Control_c, 0, 64, 54
1, 408935, Control_c, 0, 64, 58
1, 408950, Control_c, 0, 64, 61
1, 408966, Control_c, 0, 64, 65
1, 408980, Control_c, 0, 64, 71
1, 408995, Control_c, 0, 64, 85
1, 409009, Note_on_c, 0, 63, 48
1, 409010, Control_c, 0, 64, 117
1, 409025, Control_c, 0, 64, 127
1, 409040, Note_off_c, 0, 57, 61
1, 409064, Note_off_c, 0, 63, 59
1, 409081, Note_on_c, 0, 66, 55
1, 409129, Control_c, 0, 64, 120
1, 409143, Control_c, 0, 64, 89
1, 409153, Note_off_c, 0, 66, 56
1, 409158, Control_c, 0, 64, 68
1, 409159, Note_on_c, 0, 58, 66
1, 409173, Control_c, 0, 64, 53
1, 409188, Control_c, 0, 64, 33
1, 409192, Note_on_c, 0, 63, 40
1, 409203, Control_c, 0, 64, 35
1, 409218, Control_c, 0, 64, 41
1, 409230, Note_off_c, 0, 63, 59
1, 409233, Control_c, 0, 64, 51
1, 409247, Control_c, 0, 64, 60
1, 409262, Control_c, 0, 64, 65
1, 409267, Note_on_c, 0, 66, 52
1, 409277, Control_c, 0, 64, 72
1, 409292, Control_c, 0, 64, 89
1, 409306, Control_c, 0, 64, 127
1, 409307, Note_off_c, 0, 66, 62
1, 409331, Note_on_c, 0, 63, 51
1, 409385, Note_off_c, 0, 63, 57
1, 409422, Note_on_c, 0, 66, 54
1, 409462, Note_off_c, 0, 66, 60
1, 409511, Note_on_c, 0, 63, 45
1, 409511, Note_off_c, 0, 54, 32
1, 409543, Note_off_c, 0, 39, 37
1, 409562, Note_off_c, 0, 46, 35
1, 409562, Note_off_c, 0, 63, 60
1, 409594, Note_on_c, 0, 66, 48
1, 409649, Note_off_c, 0, 66, 59
1, 409671, Note_on_c, 0, 63, 53
1, 409716, Note_off_c, 0, 58, 32
1, 409720, Note_off_c, 0, 63, 60
1, 409772, Note_on_c, 0, 66, 49
1, 409829, Note_off_c, 0, 66, 54
1, 409855, Note_on_c, 0, 63, 41
1, 410068, Note_on_c, 0, 54, 37
1, 410085, Note_on_c, 0, 46, 37
1, 410088, Note_on_c, 0, 39, 32
1, 410112, Note_on_c, 0, 57, 52
1, 410114, Control_c, 0, 64, 116
1, 410128, Control_c, 0, 64, 105
1, 410151, Control_c, 0, 64, 96
1, 410166, Control_c, 0, 64, 88
1, 410178, Note_off_c, 0, 63, 29
1, 410181, Control_c, 0, 64, 79
1, 410196, Control_c, 0, 64, 71
1, 410210, Control_c, 0, 64, 64
1, 410225, Control_c, 0, 64, 57
1, 410240, Control_c, 0, 64, 54
1, 410269, Control_c, 0, 64, 54
1, 410284, Control_c, 0, 64, 55
1, 410299, Control_c, 0, 64, 57
1, 410314, Control_c, 0, 64, 60
1, 410328, Control_c, 0, 64, 62
1, 410343, Control_c, 0, 64, 65
1, 410358, Control_c, 0, 64, 70
1, 410373, Control_c, 0, 64, 80
1, 410388, Control_c, 0, 64, 97
1, 410402, Control_c, 0, 64, 127
1, 410409, Note_on_c, 0, 63, 39
1, 410514, Note_off_c, 0, 57, 35
1, 410515, Note_off_c, 0, 63, 50
1, 410539, Note_on_c, 0, 66, 41
1, 410640, Control_c, 0, 64, 117
1, 410642, Note_off_c, 0, 66, 52
1, 410655, Control_c, 0, 64, 105
1, 410670, Control_c, 0, 64, 94
1, 410673, Note_on_c, 0, 58, 54
1, 410685, Control_c, 0, 64, 81
1, 410686, Note_on_c, 0, 63, 24
1, 410699, Control_c, 0, 64, 70
1, 410714, Control_c, 0, 64, 60
1, 410729, Control_c, 0, 64, 47
1, 410744, Control_c, 0, 64, 49
1, 410759, Control_c, 0, 64, 52
1, 410763, Note_off_c, 0, 63, 40
1, 410774, Control_c, 0, 64, 55
1, 410789, Control_c, 0, 64, 57
1, 410802, Note_on_c, 0, 66, 40
1, 410804, Control_c, 0, 64, 60
1, 410819, Control_c, 0, 64, 64
1, 410833, Control_c, 0, 64, 69
1, 410848, Control_c, 0, 64, 76
1, 410863, Control_c, 0, 64, 87
1, 410866, Note_off_c, 0, 66, 56
1, 410878, Control_c, 0, 64, 101
1, 410893, Control_c, 0, 64, 127
1, 410914, Note_on_c, 0, 63, 34
1, 410959, Note_off_c, 0, 63, 58
1, 411022, Note_on_c, 0, 66, 29
1, 411056, Note_off_c, 0, 66, 50
1, 411070, Note_on_c, 0, 63, 44
1, 411120, Note_off_c, 0, 63, 60
1, 411156, Note_on_c, 0, 66, 45
1, 411197, Note_off_c, 0, 66, 61
1, 411237, Note_on_c, 0, 63, 44
1, 411272, Note_off_c, 0, 63, 61
1, 411308, Note_on_c, 0, 66, 49
1, 411344, Note_off_c, 0, 66, 63
1, 411372, Note_on_c, 0, 63, 49
1, 411415, Note_off_c, 0, 63, 61
1, 411444, Note_on_c, 0, 66, 54
1, 411483, Note_off_c, 0, 66, 62
1, 411522, Note_on_c, 0, 63, 44
1, 411558, Note_off_c, 0, 63, 60
1, 411590, Note_on_c, 0, 66, 50
1, 411627, Note_off_c, 0, 66, 63
1, 411660, Note_on_c, 0, 63, 52
1, 411701, Note_off_c, 0, 63, 62
1, 411741, Note_on_c, 0, 66, 50
1, 411776, Note_off_c, 0, 66, 62
1, 411803, Note_on_c, 0, 63, 50
1, 411841, Note_off_c, 0, 63, 62
1, 411880, Note_on_c, 0, 66, 51
1, 411911, Note_off_c, 0, 66, 61
1, 411939, Note_on_c, 0, 63, 52
1, 411973, Note_off_c, 0, 63, 62
1, 411984, Note_off_c, 0, 54, 42
1, 411993, Note_off_c, 0, 39, 28
1, 412008, Note_on_c, 0, 66, 54
1, 412046, Note_off_c, 0, 66, 60
1, 412086, Note_on_c, 0, 63, 41
1, 412088, Note_off_c, 0, 46, 35
1, 412128, Note_off_c, 0, 63, 62
1, 412188, Note_on_c, 0, 66, 45
1, 412211, Note_off_c, 0, 58, 35
1, 412246, Note_off_c, 0, 66, 54
1, 412276, Note_on_c, 0, 63, 35
1, 412554, Note_off_c, 0, 63, 31
1, 412591, Control_c, 0, 64, 117
1, 412605, Control_c, 0, 64, 107
1, 412615, Note_on_c, 0, 57, 44
1, 412620, Control_c, 0, 64, 100
1, 412635, Control_c, 0, 64, 96
1, 412650, Control_c, 0, 64, 93
1, 412665, Control_c, 0, 64, 91
1, 412679, Control_c, 0, 64, 88
1, 412694, Control_c, 0, 64, 85
1, 412709, Control_c, 0, 64, 82
1, 412723, Control_c, 0, 64, 80
1, 412738, Control_c, 0, 64, 77
1, 412753, Control_c, 0, 64, 74
1, 412768, Control_c, 0, 64, 69
1, 412783, Control_c, 0, 64, 65
1, 412798, Control_c, 0, 64, 63
1, 412813, Control_c, 0, 64, 61
1, 412828, Control_c, 0, 64, 60
1, 412843, Control_c, 0, 64, 57
1, 412858, Control_c, 0, 64, 54
1, 412887, Control_c, 0, 64, 55
1, 412902, Control_c, 0, 64, 57
1, 412917, Control_c, 0, 64, 59
1, 412931, Control_c, 0, 64, 61
1, 412947, Control_c, 0, 64, 64
1, 412962, Control_c, 0, 64, 67
1, 412977, Control_c, 0, 64, 75
1, 412992, Control_c, 0, 64, 85
1, 413007, Control_c, 0, 64, 99
1, 413021, Control_c, 0, 64, 127
1, 413125, Control_c, 0, 64, 119
1, 413135, Note_on_c, 0, 58, 62
1, 413140, Control_c, 0, 64, 112
1, 413162, Control_c, 0, 64, 107
1, 413177, Control_c, 0, 64, 103
1, 413188, Note_off_c, 0, 57, 9
1, 413191, Control_c, 0, 64, 97
1, 413206, Control_c, 0, 64, 89
1, 413221, Control_c, 0, 64, 80
1, 413236, Control_c, 0, 64, 70
1, 413251, Control_c, 0, 64, 61
1, 413266, Control_c, 0, 64, 52
1, 413281, Control_c, 0, 64, 51
1, 413296, Control_c, 0, 64, 52
1, 413310, Control_c, 0, 64, 54
1, 413325, Control_c, 0, 64, 56
1, 413340, Control_c, 0, 64, 60
1, 413354, Control_c, 0, 64, 63
1, 413369, Control_c, 0, 64, 67
1, 413384, Control_c, 0, 64, 72
1, 413399, Control_c, 0, 64, 81
1, 413414, Control_c, 0, 64, 90
1, 413427, Note_off_c, 0, 58, 54
1, 413428, Control_c, 0, 64, 96
1, 413443, Control_c, 0, 64, 97
1, 413458, Control_c, 0, 64, 96
1, 413461, Note_on_c, 0, 57, 72
1, 413473, Control_c, 0, 64, 94
1, 413488, Control_c, 0, 64, 92
1, 413502, Control_c, 0, 64, 89
1, 413517, Control_c, 0, 64, 84
1, 413532, Control_c, 0, 64, 76
1, 413546, Control_c, 0, 64, 67
1, 413561, Control_c, 0, 64, 56
1, 413576, Control_c, 0, 64, 40
1, 413591, Control_c, 0, 64, 38
1, 413606, Control_c, 0, 64, 39
1, 413621, Control_c, 0, 64, 44
1, 413636, Control_c, 0, 64, 51
1, 413651, Control_c, 0, 64, 56
1, 413665, Control_c, 0, 64, 62
1, 413679, Note_off_c, 0, 57, 54
1, 413680, Control_c, 0, 64, 66
1, 413695, Control_c, 0, 64, 70
1, 413710, Control_c, 0, 64, 78
1, 413725, Control_c, 0, 64, 84
1, 413740, Control_c, 0, 64, 87
1, 413742, Note_on_c, 0, 58, 73
1, 413770, Control_c, 0, 64, 85
1, 413785, Control_c, 0, 64, 85
1, 413800, Control_c, 0, 64, 84
1, 413814, Control_c, 0, 64, 82
1, 413829, Control_c, 0, 64, 80
1, 413844, Control_c, 0, 64, 78
1, 413859, Control_c, 0, 64, 76
1, 413874, Control_c, 0, 64, 73
1, 413896, Control_c, 0, 64, 70
1, 413911, Control_c, 0, 64, 66
1, 413925, Control_c, 0, 64, 63
1, 413940, Control_c, 0, 64, 60
1, 413955, Control_c, 0, 64, 57
1, 413970, Control_c, 0, 64, 55
1, 413984, Control_c, 0, 64, 50
1, 413999, Control_c, 0, 64, 41
1, 414014, Control_c, 0, 64, 24
1, 414029, Control_c, 0, 64, 0
1, 414221, Control_c, 0, 64, 30
1, 414236, Control_c, 0, 64, 43
1, 414250, Control_c, 0, 64, 53
1, 414265, Control_c, 0, 64, 59
1, 414280, Control_c, 0, 64, 63
1, 414294, Control_c, 0, 64, 65
1, 414309, Control_c, 0, 64, 67
1, 414324, Note_off_c, 0, 58, 38
1, 414324, Control_c, 0, 64, 71
1, 414339, Control_c, 0, 64, 76
1, 414354, Control_c, 0, 64, 83
1, 414369, Control_c, 0, 64, 93
1, 414384, Control_c, 0, 64, 105
1, 414399, Control_c, 0, 64, 127
1, 414502, Control_c, 0, 64, 125
1, 414512, Note_on_c, 0, 57, 74
1, 414517, Control_c, 0, 64, 110
1, 414532, Control_c, 0, 64, 103
1, 414548, Control_c, 0, 64, 99
1, 414563, Control_c, 0, 64, 96
1, 414578, Control_c, 0, 64, 92
1, 414592, Control_c, 0, 64, 88
1, 414607, Control_c, 0, 64, 83
1, 414622, Control_c, 0, 64, 80
1, 414637, Control_c, 0, 64, 77
1, 414659, Control_c, 0, 64, 74
1, 414673, Control_c, 0, 64, 72
1, 414688, Control_c, 0, 64, 70
1, 414703, Control_c, 0, 64, 67
1, 414718, Control_c, 0, 64, 64
1, 414733, Control_c, 0, 64, 62
1, 414748, Control_c, 0, 64, 60
1, 414762, Control_c, 0, 64, 58
1, 414777, Control_c, 0, 64, 55
1, 414792, Control_c, 0, 64, 49
1, 414807, Control_c, 0, 64, 44
1, 414822, Control_c, 0, 64, 41
1, 414881, Control_c, 0, 64, 43
1, 414896, Control_c, 0, 64, 46
1, 414911, Control_c, 0, 64, 50
1, 414925, Control_c, 0, 64, 53
1, 414940, Control_c, 0, 64, 56
1, 414955, Control_c, 0, 64, 58
1, 414970, Control_c, 0, 64, 61
1, 414985, Control_c, 0, 64, 64
1, 414999, Control_c, 0, 64, 66
1, 415014, Control_c, 0, 64, 71
1, 415029, Control_c, 0, 64, 76
1, 415044, Control_c, 0, 64, 83
1, 415059, Control_c, 0, 64, 92
1, 415073, Control_c, 0, 64, 105
1, 415088, Control_c, 0, 64, 127
1, 415355, Note_on_c, 0, 58, 73
1, 415408, Control_c, 0, 64, 119
1, 415422, Control_c, 0, 64, 109
1, 415437, Control_c, 0, 64, 99
1, 415452, Control_c, 0, 64, 90
1, 415467, Control_c, 0, 64, 82
1, 415482, Control_c, 0, 64, 76
1, 415496, Control_c, 0, 64, 72
1, 415511, Control_c, 0, 64, 69
1, 415526, Control_c, 0, 64, 65
1, 415531, Note_off_c, 0, 57, 55
1, 415541, Control_c, 0, 64, 60
1, 415555, Control_c, 0, 64, 54
1, 415570, Control_c, 0, 64, 48
1, 415586, Control_c, 0, 64, 47
1, 415601, Control_c, 0, 64, 48
1, 415616, Control_c, 0, 64, 50
1, 415630, Control_c, 0, 64, 53
1, 415645, Control_c, 0, 64, 57
1, 415660, Control_c, 0, 64, 61
1, 415675, Control_c, 0, 64, 66
1, 415690, Control_c, 0, 64, 72
1, 415704, Control_c, 0, 64, 83
1, 415719, Control_c, 0, 64, 105
1, 415734, Control_c, 0, 64, 127
1, 415863, Note_on_c, 0, 66, 70
1, 415927, Control_c, 0, 64, 106
1, 415941, Control_c, 0, 64, 98
1, 415956, Control_c, 0, 64, 91
1, 415971, Control_c, 0, 64, 86
1, 415986, Control_c, 0, 64, 82
1, 416001, Control_c, 0, 64, 79
1, 416015, Control_c, 0, 64, 74
1, 416030, Control_c, 0, 64, 69
1, 416036, Note_off_c, 0, 58, 56
1, 416045, Control_c, 0, 64, 65
1, 416060, Control_c, 0, 64, 63
1, 416075, Control_c, 0, 64, 62
1, 416089, Control_c, 0, 64, 59
1, 416104, Control_c, 0, 64, 54
1, 416119, Control_c, 0, 64, 47
1, 416134, Control_c, 0, 64, 45
1, 416157, Control_c, 0, 64, 47
1, 416172, Control_c, 0, 64, 50
1, 416187, Control_c, 0, 64, 54
1, 416202, Control_c, 0, 64, 56
1, 416217, Control_c, 0, 64, 59
1, 416232, Control_c, 0, 64, 63
1, 416246, Control_c, 0, 64, 67
1, 416261, Control_c, 0, 64, 72
1, 416276, Control_c, 0, 64, 79
1, 416291, Control_c, 0, 64, 90
1, 416306, Control_c, 0, 64, 110
1, 416320, Control_c, 0, 64, 127
1, 416438, Note_off_c, 0, 66, 29
1, 416605, Note_on_c, 0, 29, 44
1, 416611, Note_on_c, 0, 41, 44
1, 416614, Note_on_c, 0, 65, 69
1, 416638, Note_on_c, 0, 63, 51
1, 416643, Note_on_c, 0, 57, 54
1, 416689, Control_c, 0, 64, 97
1, 416704, Control_c, 0, 64, 81
1, 416718, Control_c, 0, 64, 69
1, 416733, Control_c, 0, 64, 57
1, 416748, Control_c, 0, 64, 41
1, 416763, Control_c, 0, 64, 39
1, 416778, Control_c, 0, 64, 40
1, 416792, Control_c, 0, 64, 44
1, 416807, Control_c, 0, 64, 50
1, 416822, Control_c, 0, 64, 55
1, 416837, Control_c, 0, 64, 60
1, 416852, Control_c, 0, 64, 66
1, 416867, Control_c, 0, 64, 75
1, 416882, Control_c, 0, 64, 100
1, 416903, Control_c, 0, 64, 127
1, 416930, Note_off_c, 0, 41, 51
1, 416957, Note_off_c, 0, 29, 38
1, 417010, Note_off_c, 0, 57, 61
1, 417020, Note_off_c, 0, 65, 48
1, 417085, Note_off_c, 0, 63, 36
1, 417253, Note_on_c, 0, 64, 65
1, 417257, Note_on_c, 0, 44, 48
1, 417271, Note_on_c, 0, 52, 55
1, 417275, Note_on_c, 0, 59, 51
1, 417275, Note_on_c, 0, 32, 44
1, 417349, Control_c, 0, 64, 120
1, 417364, Control_c, 0, 64, 95
1, 417379, Control_c, 0, 64, 81
1, 417393, Control_c, 0, 64, 70
1, 417408, Control_c, 0, 64, 61
1, 417423, Control_c, 0, 64, 44
1, 417438, Control_c, 0, 64, 34
1, 417482, Control_c, 0, 64, 35
1, 417497, Control_c, 0, 64, 40
1, 417511, Control_c, 0, 64, 48
1, 417526, Control_c, 0, 64, 55
1, 417541, Control_c, 0, 64, 61
1, 417556, Control_c, 0, 64, 65
1, 417571, Control_c, 0, 64, 70
1, 417585, Control_c, 0, 64, 80
1, 417600, Control_c, 0, 64, 96
1, 417615, Control_c, 0, 64, 127
1, 417690, Note_off_c, 0, 44, 37
1, 417719, Note_off_c, 0, 32, 41
1, 417734, Note_off_c, 0, 52, 58
1, 417764, Note_off_c, 0, 59, 60
1, 418046, Note_on_c, 0, 63, 47
1, 418053, Control_c, 0, 64, 112
1, 418058, Note_on_c, 0, 46, 35
1, 418061, Note_on_c, 0, 53, 41
1, 418061, Note_on_c, 0, 56, 36
1, 418068, Control_c, 0, 64, 100
1, 418073, Note_on_c, 0, 34, 30
1, 418083, Control_c, 0, 64, 92
1, 418098, Control_c, 0, 64, 87
1, 418113, Control_c, 0, 64, 83
1, 418128, Control_c, 0, 64, 79
1, 418142, Control_c, 0, 64, 75
1, 418157, Control_c, 0, 64, 72
1, 418172, Control_c, 0, 64, 70
1, 418187, Control_c, 0, 64, 68
1, 418202, Control_c, 0, 64, 67
1, 418216, Control_c, 0, 64, 64
1, 418231, Control_c, 0, 64, 61
1, 418232, Note_off_c, 0, 64, 30
1, 418246, Control_c, 0, 64, 56
1, 418261, Control_c, 0, 64, 50
1, 418276, Control_c, 0, 64, 43
1, 418290, Control_c, 0, 64, 40
1, 418305, Control_c, 0, 64, 39
1, 418334, Control_c, 0, 64, 42
1, 418349, Control_c, 0, 64, 47
1, 418364, Control_c, 0, 64, 52
1, 418379, Control_c, 0, 64, 56
1, 418402, Control_c, 0, 64, 59
1, 418416, Control_c, 0, 64, 62
1, 418431, Control_c, 0, 64, 65
1, 418446, Control_c, 0, 64, 68
1, 418461, Control_c, 0, 64, 74
1, 418476, Control_c, 0, 64, 81
1, 418490, Control_c, 0, 64, 89
1, 418499, Note_off_c, 0, 46, 34
1, 418505, Control_c, 0, 64, 99
1, 418520, Control_c, 0, 64, 122
1, 418535, Control_c, 0, 64, 127
1, 418642, Note_off_c, 0, 53, 38
1, 418691, Note_off_c, 0, 56, 33
1, 418698, Note_off_c, 0, 34, 41
1, 418873, Note_off_c, 0, 63, 32
1, 419329, Note_on_c, 0, 63, 50
1, 419343, Note_on_c, 0, 27, 24
1, 419345, Note_on_c, 0, 39, 25
1, 419368, Note_on_c, 0, 54, 43
1, 419433, Control_c, 0, 64, 125
1, 419448, Control_c, 0, 64, 109
1, 419463, Control_c, 0, 64, 100
1, 419478, Control_c, 0, 64, 93
1, 419493, Control_c, 0, 64, 87
1, 419508, Control_c, 0, 64, 82
1, 419523, Control_c, 0, 64, 78
1, 419538, Control_c, 0, 64, 75
1, 419552, Control_c, 0, 64, 73
1, 419567, Control_c, 0, 64, 72
1, 419582, Control_c, 0, 64, 70
1, 419596, Control_c, 0, 64, 68
1, 419611, Control_c, 0, 64, 67
1, 419626, Control_c, 0, 64, 67
1, 419641, Control_c, 0, 64, 66
1, 419656, Control_c, 0, 64, 66
1, 419670, Control_c, 0, 64, 65
1, 419685, Control_c, 0, 64, 64
1, 419700, Control_c, 0, 64, 63
1, 419715, Control_c, 0, 64, 63
1, 419730, Control_c, 0, 64, 62
1, 419744, Control_c, 0, 64, 62
1, 419759, Control_c, 0, 64, 61
1, 419774, Control_c, 0, 64, 61
1, 419788, Control_c, 0, 64, 60
1, 419803, Control_c, 0, 64, 59
1, 419818, Control_c, 0, 64, 59
1, 419833, Control_c, 0, 64, 58
1, 419848, Control_c, 0, 64, 57
1, 419863, Control_c, 0, 64, 57
1, 419878, Control_c, 0, 64, 56
1, 419900, Control_c, 0, 64, 55
1, 419915, Control_c, 0, 64, 54
1, 419930, Control_c, 0, 64, 54
1, 419944, Control_c, 0, 64, 53
1, 419959, Control_c, 0, 64, 52
1, 419974, Control_c, 0, 64, 51
1, 420062, Control_c, 0, 64, 52
1, 420077, Control_c, 0, 64, 52
1, 420092, Control_c, 0, 64, 53
1, 420107, Control_c, 0, 64, 53
1, 420121, Control_c, 0, 64, 54
1, 420137, Control_c, 0, 64, 54
1, 420152, Control_c, 0, 64, 55
1, 420167, Control_c, 0, 64, 56
1, 420182, Control_c, 0, 64, 56
1, 420197, Control_c, 0, 64, 57
1, 420211, Control_c, 0, 64, 57
1, 420241, Control_c, 0, 64, 58
1, 420256, Control_c, 0, 64, 59
1, 420271, Control_c, 0, 64, 60
1, 420285, Control_c, 0, 64, 60
1, 420300, Control_c, 0, 64, 61
1, 420315, Control_c, 0, 64, 62
1, 420330, Control_c, 0, 64, 63
1, 420345, Control_c, 0, 64, 63
1, 420359, Control_c, 0, 64, 64
1, 420374, Control_c, 0, 64, 65
1, 420389, Control_c, 0, 64, 67
1, 420404, Control_c, 0, 64, 68
1, 420418, Control_c, 0, 64, 70
1, 420433, Control_c, 0, 64, 73
1, 420448, Control_c, 0, 64, 75
1, 420463, Control_c, 0, 64, 78
1, 420478, Control_c, 0, 64, 80
1, 420492, Control_c, 0, 64, 82
1, 420507, Control_c, 0, 64, 85
1, 420522, Control_c, 0, 64, 89
1, 420537, Control_c, 0, 64, 94
1, 420552, Control_c, 0, 64, 101
1, 420566, Control_c, 0, 64, 110
1, 420581, Control_c, 0, 64, 127
1, 420875, Note_off_c, 0, 54, 37
1, 421260, Note_off_c, 0, 27, 31
1, 421665, Note_off_c, 0, 39, 30
1, 421983, Note_off_c, 0, 63, 20
1, 422064, Control_c, 0, 64, 125
1, 422079, Control_c, 0, 64, 120
1, 422094, Control_c, 0, 64, 119
1, 422109, Control_c, 0, 64, 117
1, 422124, Control_c, 0, 64, 116
1, 422146, Control_c, 0, 64, 115
1, 422161, Control_c, 0, 64, 115
1, 422176, Control_c, 0, 64, 114
1, 422190, Control_c, 0, 64, 113
1, 422205, Control_c, 0, 64, 112
1, 422220, Control_c, 0, 64, 110
1, 422235, Control_c, 0, 64, 108
1, 422250, Control_c, 0, 64, 106
1, 422264, Control_c, 0, 64, 105
1, 422279, Control_c, 0, 64, 104
1, 422294, Control_c, 0, 64, 103
1, 422309, Control_c, 0, 64, 103
1, 422338, Control_c, 0, 64, 102
1, 422353, Control_c, 0, 64, 102
1, 422368, Control_c, 0, 64, 101
1, 422382, Control_c, 0, 64, 100
1, 422397, Control_c, 0, 64, 99
1, 422412, Control_c, 0, 64, 98
1, 422427, Control_c, 0, 64, 97
1, 422442, Control_c, 0, 64, 96
1, 422457, Control_c, 0, 64, 95
1, 422471, Control_c, 0, 64, 95
1, 422486, Control_c, 0, 64, 94
1, 422501, Control_c, 0, 64, 93
1, 422516, Control_c, 0, 64, 93
1, 422532, Control_c, 0, 64, 92
1, 422547, Control_c, 0, 64, 92
1, 422561, Control_c, 0, 64, 91
1, 422576, Control_c, 0, 64, 90
1, 422591, Control_c, 0, 64, 90
1, 422605, Control_c, 0, 64, 89
1, 422620, Control_c, 0, 64, 89
1, 422665, Control_c, 0, 64, 88
1, 422680, Control_c, 0, 64, 88
1, 422695, Control_c, 0, 64, 87
1, 422710, Control_c, 0, 64, 86
1, 422724, Control_c, 0, 64, 86
1, 422739, Control_c, 0, 64, 85
1, 422754, Control_c, 0, 64, 85
1, 422769, Control_c, 0, 64, 84
1, 422784, Control_c, 0, 64, 84
1, 422799, Control_c, 0, 64, 83
1, 422813, Control_c, 0, 64, 83
1, 422828, Control_c, 0, 64, 82
1, 422843, Control_c, 0, 64, 82
1, 422858, Control_c, 0, 64, 81
1, 422873, Control_c, 0, 64, 80
1, 422894, Control_c, 0, 64, 80
1, 422909, Control_c, 0, 64, 79
1, 422924, Control_c, 0, 64, 79
1, 422939, Control_c, 0, 64, 78
1, 422954, Control_c, 0, 64, 78
1, 422969, Control_c, 0, 64, 77
1, 422984, Control_c, 0, 64, 76
1, 422999, Control_c, 0, 64, 76
1, 423013, Control_c, 0, 64, 75
1, 423043, Control_c, 0, 64, 75
1, 423058, Control_c, 0, 64, 74
1, 423088, Control_c, 0, 64, 74
1, 423103, Control_c, 0, 64, 73
1, 423133, Control_c, 0, 64, 73
1, 423148, Control_c, 0, 64, 72
1, 423177, Control_c, 0, 64, 72
1, 423206, Control_c, 0, 64, 71
1, 423236, Control_c, 0, 64, 71
1, 423251, Control_c, 0, 64, 70
1, 423280, Control_c, 0, 64, 70
1, 423310, Control_c, 0, 64, 69
1, 423356, Control_c, 0, 64, 69
1, 423385, Control_c, 0, 64, 68
1, 423415, Control_c, 0, 64, 68
1, 423459, Control_c, 0, 64, 67
1, 423533, Control_c, 0, 64, 67
1, 423607, Control_c, 0, 64, 66
1, 423659, Control_c, 0, 64, 66
1, 423689, Control_c, 0, 64, 65
1, 423718, Control_c, 0, 64, 65
1, 423748, Control_c, 0, 64, 64
1, 423851, Control_c, 0, 64, 64
1, 423985, Control_c, 0, 64, 63
1, 424044, Control_c, 0, 64, 63
1, 424792, Control_c, 0, 64, 62
1, 425030, Control_c, 0, 64, 62
1, 425809, Control_c, 0, 64, 62
1, 426201, Control_c, 0, 64, 63
1, 426379, Control_c, 0, 64, 62
1, 426743, Control_c, 0, 64, 63
1, 427232, Control_c, 0, 64, 62
1, 427610, Control_c, 0, 64, 62
1, 428210, Control_c, 0, 64, 62
1, 428610, Control_c, 0, 64, 63
1, 428847, Control_c, 0, 64, 63
1, 428944, Control_c, 0, 64, 64
1, 429003, Control_c, 0, 64, 64
1, 429033, Control_c, 0, 64, 65
1, 429062, Control_c, 0, 64, 65
1, 429092, Control_c, 0, 64, 66
1, 429107, Control_c, 0, 64, 67
1, 429121, Control_c, 0, 64, 69
1, 429136, Control_c, 0, 64, 71
1, 429151, Control_c, 0, 64, 72
1, 429166, Control_c, 0, 64, 73
1, 429181, Control_c, 0, 64, 74
1, 429196, Control_c, 0, 64, 76
1, 429211, Control_c, 0, 64, 77
1, 429226, Control_c, 0, 64, 80
1, 429241, Control_c, 0, 64, 82
1, 429255, Control_c, 0, 64, 84
1, 429270, Control_c, 0, 64, 87
1, 429285, Control_c, 0, 64, 89
1, 429300, Control_c, 0, 64, 92
1, 429315, Control_c, 0, 64, 96
1, 429329, Control_c, 0, 64, 100
1, 429344, Control_c, 0, 64, 105
1, 429359, Control_c, 0, 64, 115
1, 429374, Control_c, 0, 64, 127
1, 430928, Note_on_c, 0, 62, 46
1, 430937, Note_on_c, 0, 42, 30
1, 430941, Note_on_c, 0, 35, 34
1, 430943, Note_on_c, 0, 47, 27
1, 430950, Note_on_c, 0, 59, 41
1, 430955, Note_on_c, 0, 54, 38
1, 430964, Note_on_c, 0, 50, 26
1, 431232, Note_off_c, 0, 59, 54
1, 431264, Note_off_c, 0, 50, 40
1, 431323, Note_off_c, 0, 54, 43
1, 431350, Note_off_c, 0, 47, 32
1, 431563, Note_on_c, 0, 61, 65
1, 431581, Note_on_c, 0, 58, 61
1, 431631, Note_off_c, 0, 62, 57
1, 431708, Note_off_c, 0, 58, 61
1, 431734, Note_on_c, 0, 40, 39
1, 431754, Note_on_c, 0, 47, 34
1, 431777, Note_on_c, 0, 62, 64
1, 431786, Note_on_c, 0, 55, 45
1, 431801, Note_on_c, 0, 59, 60
1, 431857, Control_c, 0, 64, 122
1, 431879, Control_c, 0, 64, 98
1, 431894, Control_c, 0, 64, 89
1, 431903, Note_off_c, 0, 61, 60
1, 431909, Control_c, 0, 64, 84
1, 431923, Control_c, 0, 64, 81
1, 431938, Control_c, 0, 64, 78
1, 431953, Control_c, 0, 64, 74
1, 431968, Control_c, 0, 64, 68
1, 431977, Note_off_c, 0, 35, 33
1, 431983, Control_c, 0, 64, 64
1, 431998, Control_c, 0, 64, 61
1, 432008, Note_off_c, 0, 42, 34
1, 432013, Control_c, 0, 64, 56
1, 432028, Control_c, 0, 64, 48
1, 432042, Control_c, 0, 64, 33
1, 432057, Control_c, 0, 64, 15
1, 432087, Control_c, 0, 64, 19
1, 432102, Control_c, 0, 64, 29
1, 432117, Control_c, 0, 64, 38
1, 432132, Control_c, 0, 64, 47
1, 432147, Control_c, 0, 64, 57
1, 432162, Control_c, 0, 64, 62
1, 432177, Control_c, 0, 64, 64
1, 432192, Control_c, 0, 64, 67
1, 432207, Control_c, 0, 64, 71
1, 432221, Control_c, 0, 64, 76
1, 432236, Control_c, 0, 64, 84
1, 432251, Control_c, 0, 64, 93
1, 432265, Control_c, 0, 64, 108
1, 432280, Control_c, 0, 64, 127
1, 432654, Note_on_c, 0, 64, 44
1, 432672, Control_c, 0, 64, 116
1, 432675, Note_on_c, 0, 61, 40
1, 432687, Control_c, 0, 64, 106
1, 432702, Control_c, 0, 64, 101
1, 432717, Control_c, 0, 64, 95
1, 432732, Control_c, 0, 64, 89
1, 432746, Control_c, 0, 64, 82
1, 432761, Control_c, 0, 64, 78
1, 432776, Control_c, 0, 64, 74
1, 432791, Control_c, 0, 64, 69
1, 432806, Control_c, 0, 64, 64
1, 432808, Note_off_c, 0, 59, 38
1, 432815, Note_off_c, 0, 62, 33
1, 432821, Control_c, 0, 64, 57
1, 432836, Control_c, 0, 64, 48
1, 432851, Control_c, 0, 64, 40
1, 432865, Control_c, 0, 64, 37
1, 432880, Control_c, 0, 64, 38
1, 432895, Control_c, 0, 64, 42
1, 432910, Control_c, 0, 64, 48
1, 432925, Control_c, 0, 64, 53
1, 432940, Control_c, 0, 64, 57
1, 432955, Control_c, 0, 64, 61
1, 432970, Control_c, 0, 64, 64
1, 432985, Control_c, 0, 64, 67
1, 433000, Control_c, 0, 64, 71
1, 433014, Control_c, 0, 64, 76
1, 433029, Control_c, 0, 64, 81
1, 433044, Control_c, 0, 64, 86
1, 433059, Control_c, 0, 64, 91
1, 433074, Control_c, 0, 64, 100
1, 433088, Control_c, 0, 64, 112
1, 433103, Control_c, 0, 64, 127
1, 433125, Note_off_c, 0, 61, 26
1, 433207, Control_c, 0, 64, 125
1, 433213, Note_off_c, 0, 47, 24
1, 433222, Control_c, 0, 64, 122
1, 433236, Control_c, 0, 64, 120
1, 433248, Note_off_c, 0, 55, 39
1, 433251, Control_c, 0, 64, 119
1, 433262, Note_off_c, 0, 40, 38
1, 433266, Control_c, 0, 64, 115
1, 433281, Control_c, 0, 64, 112
1, 433295, Control_c, 0, 64, 110
1, 433303, Note_off_c, 0, 64, 36
1, 433310, Control_c, 0, 64, 109
1, 433325, Control_c, 0, 64, 107
1, 433340, Control_c, 0, 64, 105
1, 433355, Control_c, 0, 64, 102
1, 433377, Control_c, 0, 64, 100
1, 433392, Control_c, 0, 64, 99
1, 433407, Control_c, 0, 64, 98
1, 433422, Control_c, 0, 64, 97
1, 433437, Control_c, 0, 64, 96
1, 433451, Control_c, 0, 64, 94
1, 433466, Control_c, 0, 64, 92
1, 433481, Control_c, 0, 64, 91
1, 433495, Control_c, 0, 64, 91
1, 433510, Control_c, 0, 64, 90
1, 433525, Control_c, 0, 64, 88
1, 433540, Control_c, 0, 64, 86
1, 433555, Control_c, 0, 64, 84
1, 433569, Control_c, 0, 64, 83
1, 433584, Control_c, 0, 64, 82
1, 433599, Control_c, 0, 64, 81
1, 433614, Control_c, 0, 64, 80
1, 433629, Control_c, 0, 64, 79
1, 433643, Control_c, 0, 64, 78
1, 433658, Control_c, 0, 64, 77
1, 433673, Control_c, 0, 64, 76
1, 433688, Control_c, 0, 64, 75
1, 433703, Control_c, 0, 64, 74
1, 433718, Control_c, 0, 64, 73
1, 433733, Control_c, 0, 64, 72
1, 433748, Control_c, 0, 64, 71
1, 433763, Control_c, 0, 64, 71
1, 433778, Control_c, 0, 64, 70
1, 433793, Control_c, 0, 64, 69
1, 433807, Control_c, 0, 64, 69
1, 433822, Control_c, 0, 64, 68
1, 433837, Control_c, 0, 64, 68
1, 433852, Control_c, 0, 64, 67
1, 433882, Control_c, 0, 64, 67
1, 433897, Control_c, 0, 64, 66
1, 433911, Control_c, 0, 64, 66
1, 433941, Control_c, 0, 64, 65
1, 433956, Control_c, 0, 64, 65
1, 433985, Control_c, 0, 64, 64
1, 434030, Control_c, 0, 64, 64
1, 434045, Control_c, 0, 64, 63
1, 434059, Control_c, 0, 64, 63
1, 434089, Control_c, 0, 64, 62
1, 434126, Control_c, 0, 64, 62
1, 434156, Control_c, 0, 64, 61
1, 434171, Control_c, 0, 64, 61
1, 434200, Control_c, 0, 64, 60
1, 434215, Control_c, 0, 64, 60
1, 434230, Control_c, 0, 64, 59
1, 434274, Control_c, 0, 64, 59
1, 434289, Control_c, 0, 64, 58
1, 434304, Control_c, 0, 64, 58
1, 434333, Control_c, 0, 64, 57
1, 434422, Control_c, 0, 64, 58
1, 434451, Control_c, 0, 64, 58
1, 434481, Control_c, 0, 64, 59
1, 434496, Control_c, 0, 64, 59
1, 434511, Control_c, 0, 64, 60
1, 434541, Control_c, 0, 64, 60
1, 434556, Control_c, 0, 64, 61
1, 434571, Control_c, 0, 64, 63
1, 434586, Control_c, 0, 64, 64
1, 434601, Control_c, 0, 64, 65
1, 434615, Control_c, 0, 64, 66
1, 434630, Control_c, 0, 64, 68
1, 434645, Control_c, 0, 64, 71
1, 434660, Control_c, 0, 64, 77
1, 434675, Control_c, 0, 64, 84
1, 434690, Control_c, 0, 64, 96
1, 434705, Control_c, 0, 64, 127
1, 434848, Note_on_c, 0, 47, 39
1, 434857, Note_on_c, 0, 42, 38
1, 434857, Note_on_c, 0, 62, 66
1, 434869, Note_on_c, 0, 35, 40
1, 434884, Note_on_c, 0, 54, 53
1, 434885, Note_on_c, 0, 59, 50
1, 434892, Note_on_c, 0, 50, 50
1, 435215, Note_off_c, 0, 50, 53
1, 435225, Note_off_c, 0, 47, 30
1, 435226, Note_off_c, 0, 59, 58
1, 435289, Note_off_c, 0, 54, 63
1, 435459, Note_on_c, 0, 61, 81
1, 435463, Note_on_c, 0, 58, 75
1, 435498, Note_off_c, 0, 62, 61
1, 435640, Note_off_c, 0, 58, 61
1, 435676, Note_on_c, 0, 40, 42
1, 435686, Note_on_c, 0, 47, 38
1, 435763, Note_on_c, 0, 62, 70
1, 435772, Control_c, 0, 64, 108
1, 435781, Note_on_c, 0, 55, 53
1, 435781, Note_on_c, 0, 59, 61
1, 435787, Control_c, 0, 64, 95
1, 435802, Control_c, 0, 64, 86
1, 435817, Control_c, 0, 64, 74
1, 435831, Control_c, 0, 64, 63
1, 435846, Control_c, 0, 64, 44
1, 435859, Note_off_c, 0, 42, 33
1, 435861, Control_c, 0, 64, 19
1, 435871, Note_off_c, 0, 35, 38
1, 435876, Control_c, 0, 64, 19
1, 435882, Note_off_c, 0, 61, 56
1, 435905, Control_c, 0, 64, 23
1, 435920, Control_c, 0, 64, 34
1, 435935, Control_c, 0, 64, 46
1, 435950, Control_c, 0, 64, 57
1, 435964, Control_c, 0, 64, 65
1, 435979, Control_c, 0, 64, 72
1, 435994, Control_c, 0, 64, 84
1, 436002, Note_off_c, 0, 59, 65
1, 436009, Control_c, 0, 64, 108
1, 436024, Control_c, 0, 64, 127
1, 436114, Note_on_c, 0, 61, 77
1, 436124, Note_on_c, 0, 58, 66
1, 436196, Note_off_c, 0, 62, 58
1, 436227, Note_off_c, 0, 58, 57
1, 436341, Note_on_c, 0, 62, 72
1, 436370, Note_on_c, 0, 59, 64
1, 436417, Note_off_c, 0, 61, 59
1, 436571, Note_off_c, 0, 59, 57
1, 436609, Control_c, 0, 64, 108
1, 436624, Control_c, 0, 64, 94
1, 436639, Note_off_c, 0, 62, 53
1, 436639, Control_c, 0, 64, 86
1, 436642, Note_on_c, 0, 64, 58
1, 436654, Control_c, 0, 64, 79
1, 436661, Note_on_c, 0, 61, 40
1, 436669, Control_c, 0, 64, 75
1, 436684, Control_c, 0, 64, 72
1, 436699, Control_c, 0, 64, 70
1, 436713, Control_c, 0, 64, 68
1, 436728, Control_c, 0, 64, 66
1, 436743, Control_c, 0, 64, 64
1, 436758, Control_c, 0, 64, 62
1, 436773, Control_c, 0, 64, 59
1, 436787, Control_c, 0, 64, 54
1, 436802, Control_c, 0, 64, 45
1, 436817, Control_c, 0, 64, 36
1, 436831, Control_c, 0, 64, 32
1, 436861, Control_c, 0, 64, 33
1, 436876, Control_c, 0, 64, 38
1, 436891, Control_c, 0, 64, 44
1, 436907, Control_c, 0, 64, 50
1, 436922, Control_c, 0, 64, 55
1, 436936, Control_c, 0, 64, 59
1, 436951, Control_c, 0, 64, 62
1, 436966, Control_c, 0, 64, 64
1, 436981, Control_c, 0, 64, 68
1, 436996, Control_c, 0, 64, 73
1, 437010, Control_c, 0, 64, 80
1, 437025, Control_c, 0, 64, 90
1, 437040, Control_c, 0, 64, 101
1, 437051, Note_off_c, 0, 61, 31
1, 437055, Control_c, 0, 64, 115
1, 437070, Control_c, 0, 64, 127
1, 437163, Note_off_c, 0, 47, 30
1, 437166, Control_c, 0, 64, 125
1, 437181, Control_c, 0, 64, 116
1, 437196, Control_c, 0, 64, 114
1, 437207, Note_off_c, 0, 40, 39
1, 437211, Control_c, 0, 64, 110
1, 437214, Note_off_c, 0, 55, 34
1, 437225, Control_c, 0, 64, 107
1, 437240, Control_c, 0, 64, 104
1, 437255, Control_c, 0, 64, 103
1, 437270, Control_c, 0, 64, 101
1, 437285, Control_c, 0, 64, 98
1, 437296, Note_off_c, 0, 64, 42
1, 437299, Control_c, 0, 64, 96
1, 437314, Control_c, 0, 64, 96
1, 437329, Control_c, 0, 64, 95
1, 437343, Control_c, 0, 64, 93
1, 437358, Control_c, 0, 64, 90
1, 437373, Control_c, 0, 64, 88
1, 437388, Control_c, 0, 64, 86
1, 437403, Control_c, 0, 64, 85
1, 437417, Control_c, 0, 64, 83
1, 437432, Control_c, 0, 64, 82
1, 437447, Control_c, 0, 64, 81
1, 437462, Control_c, 0, 64, 80
1, 437477, Control_c, 0, 64, 78
1, 437492, Control_c, 0, 64, 77
1, 437507, Control_c, 0, 64, 76
1, 437522, Control_c, 0, 64, 74
1, 437536, Control_c, 0, 64, 74
1, 437551, Control_c, 0, 64, 73
1, 437566, Control_c, 0, 64, 72
1, 437581, Control_c, 0, 64, 72
1, 437596, Control_c, 0, 64, 71
1, 437610, Control_c, 0, 64, 70
1, 437625, Control_c, 0, 64, 69
1, 437640, Control_c, 0, 64, 68
1, 437654, Control_c, 0, 64, 68
1, 437669, Control_c, 0, 64, 67
1, 437684, Control_c, 0, 64, 66
1, 437715, Control_c, 0, 64, 65
1, 437730, Control_c, 0, 64, 65
1, 437745, Control_c, 0, 64, 64
1, 437759, Control_c, 0, 64, 64
1, 437789, Control_c, 0, 64, 63
1, 437819, Control_c, 0, 64, 63
1, 437833, Control_c, 0, 64, 62
1, 437848, Control_c, 0, 64, 62
1, 437885, Control_c, 0, 64, 61
1, 437915, Control_c, 0, 64, 60
1, 437930, Control_c, 0, 64, 60
1, 437945, Control_c, 0, 64, 59
1, 437959, Control_c, 0, 64, 58
1, 437974, Control_c, 0, 64, 58
1, 437989, Control_c, 0, 64, 57
1, 438004, Control_c, 0, 64, 56
1, 438019, Control_c, 0, 64, 55
1, 438033, Control_c, 0, 64, 54
1, 438046, Control_c, 0, 64, 52
1, 438061, Control_c, 0, 64, 51
1, 438076, Control_c, 0, 64, 51
1, 438106, Control_c, 0, 64, 52
1, 438121, Control_c, 0, 64, 52
1, 438136, Control_c, 0, 64, 53
1, 438151, Control_c, 0, 64, 54
1, 438165, Control_c, 0, 64, 56
1, 438180, Control_c, 0, 64, 57
1, 438195, Control_c, 0, 64, 59
1, 438210, Control_c, 0, 64, 61
1, 438225, Control_c, 0, 64, 63
1, 438239, Control_c, 0, 64, 64
1, 438254, Control_c, 0, 64, 67
1, 438269, Control_c, 0, 64, 70
1, 438283, Control_c, 0, 64, 75
1, 438298, Control_c, 0, 64, 83
1, 438313, Control_c, 0, 64, 95
1, 438328, Control_c, 0, 64, 127
1, 438458, Note_on_c, 0, 62, 55
1, 438461, Note_on_c, 0, 47, 26
1, 438466, Note_on_c, 0, 59, 45
1, 438477, Note_on_c, 0, 35, 26
1, 438488, Note_on_c, 0, 54, 40
1, 438693, Note_off_c, 0, 59, 60
1, 438866, Note_on_c, 0, 64, 76
1, 438894, Note_on_c, 0, 61, 68
1, 438949, Note_off_c, 0, 62, 55
1, 438956, Note_off_c, 0, 47, 40
1, 439018, Note_off_c, 0, 54, 44
1, 439034, Note_off_c, 0, 35, 39
1, 439046, Note_off_c, 0, 64, 61
1, 439137, Note_on_c, 0, 66, 90
1, 439147, Note_on_c, 0, 62, 78
1, 439202, Note_off_c, 0, 61, 60
1, 439367, Note_off_c, 0, 62, 56
1, 439371, Note_off_c, 0, 66, 60
1, 439678, Note_on_c, 0, 28, 47
1, 439681, Note_on_c, 0, 40, 48
1, 439689, Note_on_c, 0, 69, 75
1, 439712, Note_on_c, 0, 59, 58
1, 439714, Note_on_c, 0, 66, 63
1, 439719, Note_on_c, 0, 55, 51
1, 439730, Note_on_c, 0, 62, 55
1, 439856, Control_c, 0, 64, 107
1, 439871, Control_c, 0, 64, 94
1, 439885, Control_c, 0, 64, 87
1, 439900, Control_c, 0, 64, 81
1, 439915, Control_c, 0, 64, 78
1, 439930, Control_c, 0, 64, 77
1, 439945, Control_c, 0, 64, 75
1, 439960, Control_c, 0, 64, 73
1, 439975, Control_c, 0, 64, 69
1, 439990, Control_c, 0, 64, 66
1, 440004, Control_c, 0, 64, 64
1, 440019, Control_c, 0, 64, 62
1, 440034, Control_c, 0, 64, 59
1, 440049, Control_c, 0, 64, 56
1, 440064, Control_c, 0, 64, 51
1, 440078, Control_c, 0, 64, 44
1, 440093, Control_c, 0, 64, 33
1, 440116, Control_c, 0, 64, 9
1, 440131, Control_c, 0, 64, 0
1, 440249, Control_c, 0, 64, 19
1, 440264, Control_c, 0, 64, 28
1, 440279, Control_c, 0, 64, 35
1, 440294, Control_c, 0, 64, 44
1, 440309, Control_c, 0, 64, 52
1, 440324, Control_c, 0, 64, 57
1, 440339, Control_c, 0, 64, 60
1, 440353, Control_c, 0, 64, 62
1, 440368, Control_c, 0, 64, 63
1, 440383, Control_c, 0, 64, 65
1, 440398, Control_c, 0, 64, 68
1, 440413, Control_c, 0, 64, 73
1, 440427, Control_c, 0, 64, 80
1, 440442, Control_c, 0, 64, 92
1, 440457, Control_c, 0, 64, 114
1, 440472, Control_c, 0, 64, 127
1, 440639, Note_off_c, 0, 28, 34
1, 440666, Note_off_c, 0, 62, 46
1, 440761, Note_off_c, 0, 40, 40
1, 440871, Note_off_c, 0, 55, 44
1, 440942, Note_off_c, 0, 59, 31
1, 441012, Note_off_c, 0, 69, 37
1, 441055, Note_off_c, 0, 66, 36
1, 441266, Note_on_c, 0, 45, 35
1, 441288, Note_on_c, 0, 33, 35
1, 441295, Note_on_c, 0, 67, 59
1, 441321, Note_on_c, 0, 55, 42
1, 441323, Note_on_c, 0, 61, 40
1, 441323, Note_on_c, 0, 64, 46
1, 441327, Note_on_c, 0, 57, 41
1, 441353, Control_c, 0, 64, 117
1, 441368, Control_c, 0, 64, 92
1, 441382, Control_c, 0, 64, 76
1, 441397, Control_c, 0, 64, 64
1, 441412, Control_c, 0, 64, 50
1, 441427, Control_c, 0, 64, 41
1, 441456, Control_c, 0, 64, 42
1, 441471, Control_c, 0, 64, 47
1, 441486, Control_c, 0, 64, 52
1, 441501, Control_c, 0, 64, 57
1, 441516, Control_c, 0, 64, 63
1, 441531, Control_c, 0, 64, 68
1, 441546, Control_c, 0, 64, 78
1, 441561, Control_c, 0, 64, 97
1, 441575, Control_c, 0, 64, 127
1, 441689, Note_off_c, 0, 45, 41
1, 441747, Note_off_c, 0, 67, 56
1, 441762, Note_off_c, 0, 55, 36
1, 441769, Note_off_c, 0, 57, 36
1, 441780, Note_off_c, 0, 33, 38
1, 441786, Note_off_c, 0, 64, 36
1, 441875, Note_off_c, 0, 61, 35
1, 442059, Note_on_c, 0, 69, 61
1, 442082, Note_on_c, 0, 66, 43
1, 442138, Note_off_c, 0, 69, 59
1, 442154, Note_off_c, 0, 66, 54
1, 442267, Note_on_c, 0, 26, 31
1, 442285, Note_on_c, 0, 67, 49
1, 442285, Note_on_c, 0, 38, 26
1, 442307, Note_on_c, 0, 64, 42
1, 442321, Note_on_c, 0, 57, 35
1, 442323, Note_on_c, 0, 55, 38
1, 442324, Note_on_c, 0, 61, 36
1, 442324, Control_c, 0, 64, 125
1, 442339, Control_c, 0, 64, 104
1, 442361, Control_c, 0, 64, 95
1, 442376, Control_c, 0, 64, 87
1, 442391, Control_c, 0, 64, 76
1, 442405, Control_c, 0, 64, 66
1, 442420, Control_c, 0, 64, 56
1, 442435, Control_c, 0, 64, 42
1, 442450, Control_c, 0, 64, 39
1, 442479, Control_c, 0, 64, 40
1, 442494, Control_c, 0, 64, 45
1, 442510, Control_c, 0, 64, 52
1, 442525, Control_c, 0, 64, 57
1, 442541, Control_c, 0, 64, 62
1, 442553, Note_off_c, 0, 64, 50
1, 442555, Control_c, 0, 64, 67
1, 442570, Control_c, 0, 64, 74
1, 442585, Control_c, 0, 64, 90
1, 442600, Control_c, 0, 64, 127
1, 442697, Note_off_c, 0, 67, 57
1, 442715, Note_off_c, 0, 61, 38
1, 442773, Note_off_c, 0, 57, 43
1, 442792, Note_off_c, 0, 55, 42
1, 443075, Note_on_c, 0, 66, 41
1, 443091, Note_on_c, 0, 57, 33
1, 443114, Note_on_c, 0, 62, 32
1, 443124, Note_on_c, 0, 54, 36
1, 443126, Control_c, 0, 64, 109
1, 443141, Control_c, 0, 64, 98
1, 443155, Control_c, 0, 64, 93
1, 443170, Control_c, 0, 64, 89
1, 443185, Control_c, 0, 64, 85
1, 443200, Control_c, 0, 64, 80
1, 443215, Control_c, 0, 64, 76
1, 443229, Control_c, 0, 64, 70
1, 443244, Control_c, 0, 64, 66
1, 443259, Control_c, 0, 64, 61
1, 443274, Control_c, 0, 64, 55
1, 443289, Control_c, 0, 64, 48
1, 443305, Control_c, 0, 64, 45
1, 443319, Control_c, 0, 64, 46
1, 443334, Control_c, 0, 64, 48
1, 443349, Control_c, 0, 64, 51
1, 443364, Control_c, 0, 64, 54
1, 443378, Control_c, 0, 64, 58
1, 443393, Control_c, 0, 64, 61
1, 443408, Control_c, 0, 64, 63
1, 443423, Control_c, 0, 64, 66
1, 443438, Control_c, 0, 64, 70
1, 443452, Control_c, 0, 64, 75
1, 443467, Control_c, 0, 64, 81
1, 443482, Control_c, 0, 64, 87
1, 443497, Control_c, 0, 64, 96
1, 443512, Control_c, 0, 64, 110
1, 443526, Control_c, 0, 64, 127
1, 443622, Note_off_c, 0, 62, 30
1, 443638, Note_off_c, 0, 54, 37
1, 443696, Note_off_c, 0, 57, 37
1, 443778, Control_c, 0, 64, 117
1, 443782, Note_off_c, 0, 26, 31
1, 443793, Control_c, 0, 64, 115
1, 443800, Note_off_c, 0, 38, 31
1, 443808, Control_c, 0, 64, 113
1, 443823, Control_c, 0, 64, 111
1, 443838, Control_c, 0, 64, 108
1, 443859, Control_c, 0, 64, 105
1, 443874, Control_c, 0, 64, 103
1, 443887, Note_off_c, 0, 66, 33
1, 443889, Control_c, 0, 64, 101
1, 443904, Control_c, 0, 64, 98
1, 443919, Control_c, 0, 64, 97
1, 443934, Control_c, 0, 64, 96
1, 443948, Control_c, 0, 64, 95
1, 443963, Control_c, 0, 64, 94
1, 443978, Control_c, 0, 64, 92
1, 443993, Control_c, 0, 64, 91
1, 444008, Control_c, 0, 64, 91
1, 444023, Control_c, 0, 64, 90
1, 444038, Control_c, 0, 64, 89
1, 444052, Control_c, 0, 64, 88
1, 444067, Control_c, 0, 64, 86
1, 444082, Control_c, 0, 64, 85
1, 444097, Control_c, 0, 64, 84
1, 444112, Control_c, 0, 64, 83
1, 444127, Control_c, 0, 64, 82
1, 444142, Control_c, 0, 64, 81
1, 444157, Control_c, 0, 64, 80
1, 444172, Control_c, 0, 64, 78
1, 444187, Control_c, 0, 64, 77
1, 444201, Control_c, 0, 64, 76
1, 444216, Control_c, 0, 64, 75
1, 444231, Control_c, 0, 64, 74
1, 444246, Control_c, 0, 64, 73
1, 444261, Control_c, 0, 64, 72
1, 444275, Control_c, 0, 64, 71
1, 444290, Control_c, 0, 64, 71
1, 444305, Control_c, 0, 64, 70
1, 444320, Control_c, 0, 64, 70
1, 444335, Control_c, 0, 64, 69
1, 444349, Control_c, 0, 64, 69
1, 444364, Control_c, 0, 64, 68
1, 444379, Control_c, 0, 64, 68
1, 444393, Control_c, 0, 64, 67
1, 444423, Control_c, 0, 64, 67
1, 444438, Control_c, 0, 64, 66
1, 444453, Control_c, 0, 64, 66
1, 444482, Control_c, 0, 64, 65
1, 444497, Control_c, 0, 64, 65
1, 444512, Control_c, 0, 64, 64
1, 444542, Control_c, 0, 64, 64
1, 444571, Control_c, 0, 64, 63
1, 444608, Control_c, 0, 64, 63
1, 444638, Control_c, 0, 64, 62
1, 444668, Control_c, 0, 64, 62
1, 444682, Control_c, 0, 64, 61
1, 444712, Control_c, 0, 64, 61
1, 444726, Control_c, 0, 64, 60
1, 444741, Control_c, 0, 64, 60
1, 444756, Control_c, 0, 64, 59
1, 444771, Control_c, 0, 64, 59
1, 444831, Control_c, 0, 64, 59
1, 444846, Control_c, 0, 64, 60
1, 444861, Control_c, 0, 64, 61
1, 444875, Control_c, 0, 64, 61
1, 444890, Control_c, 0, 64, 62
1, 444905, Control_c, 0, 64, 64
1, 444920, Control_c, 0, 64, 65
1, 444935, Control_c, 0, 64, 66
1, 444950, Control_c, 0, 64, 67
1, 444965, Control_c, 0, 64, 70
1, 444980, Control_c, 0, 64, 73
1, 444995, Control_c, 0, 64, 79
1, 445010, Control_c, 0, 64, 85
1, 445024, Control_c, 0, 64, 94
1, 445039, Control_c, 0, 64, 109
1, 445054, Control_c, 0, 64, 127
1, 445129, Note_on_c, 0, 66, 61
1, 445160, Note_on_c, 0, 62, 49
1, 445340, Note_off_c, 0, 62, 61
1, 445499, Note_on_c, 0, 64, 79
1, 445519, Note_on_c, 0, 61, 72
1, 445576, Note_off_c, 0, 66, 50
1, 445737, Note_on_c, 0, 62, 89
1, 445744, Note_on_c, 0, 59, 76
1, 445826, Note_off_c, 0, 64, 54
1, 445916, Note_off_c, 0, 59, 58
1, 445928, Note_off_c, 0, 62, 57
1, 446053, Note_off_c, 0, 61, 40
1, 446069, Note_on_c, 0, 40, 53
1, 446081, Note_on_c, 0, 28, 53
1, 446108, Note_on_c, 0, 66, 80
1, 446125, Note_on_c, 0, 55, 64
1, 446131, Note_on_c, 0, 62, 57
1, 446268, Control_c, 0, 64, 98
1, 446284, Control_c, 0, 64, 83
1, 446299, Control_c, 0, 64, 71
1, 446314, Control_c, 0, 64, 64
1, 446328, Control_c, 0, 64, 60
1, 446343, Control_c, 0, 64, 58
1, 446358, Control_c, 0, 64, 55
1, 446372, Control_c, 0, 64, 51
1, 446387, Control_c, 0, 64, 49
1, 446417, Control_c, 0, 64, 51
1, 446432, Control_c, 0, 64, 54
1, 446446, Control_c, 0, 64, 58
1, 446461, Control_c, 0, 64, 61
1, 446476, Control_c, 0, 64, 64
1, 446491, Control_c, 0, 64, 71
1, 446507, Control_c, 0, 64, 84
1, 446522, Control_c, 0, 64, 127
1, 446541, Note_off_c, 0, 62, 59
1, 446759, Note_on_c, 0, 64, 79
1, 446784, Note_on_c, 0, 61, 68
1, 446878, Note_off_c, 0, 66, 60
1, 446885, Control_c, 0, 64, 96
1, 446900, Control_c, 0, 64, 78
1, 446914, Control_c, 0, 64, 64
1, 446929, Control_c, 0, 64, 43
1, 446944, Control_c, 0, 64, 0
1, 446974, Control_c, 0, 64, 19
1, 446989, Control_c, 0, 64, 33
1, 447003, Control_c, 0, 64, 44
1, 447018, Control_c, 0, 64, 54
1, 447033, Control_c, 0, 64, 62
1, 447048, Control_c, 0, 64, 68
1, 447063, Control_c, 0, 64, 78
1, 447077, Control_c, 0, 64, 98
1, 447092, Control_c, 0, 64, 127
1, 447222, Note_off_c, 0, 55, 40
1, 447256, Note_off_c, 0, 28, 49
1, 447326, Note_off_c, 0, 61, 59
1, 447329, Note_off_c, 0, 40, 32
1, 447368, Note_off_c, 0, 64, 33
1, 447694, Note_on_c, 0, 29, 35
1, 447694, Note_on_c, 0, 41, 34
1, 447694, Note_on_c, 0, 64, 52
1, 447713, Note_on_c, 0, 56, 43
1, 447721, Note_on_c, 0, 61, 42
1, 447782, Control_c, 0, 64, 125
1, 447797, Control_c, 0, 64, 96
1, 447812, Control_c, 0, 64, 86
1, 447826, Control_c, 0, 64, 80
1, 447841, Control_c, 0, 64, 77
1, 447856, Control_c, 0, 64, 74
1, 447871, Control_c, 0, 64, 70
1, 447886, Control_c, 0, 64, 64
1, 447900, Control_c, 0, 64, 59
1, 447915, Control_c, 0, 64, 52
1, 447930, Control_c, 0, 64, 46
1, 447944, Control_c, 0, 64, 38
1, 447959, Control_c, 0, 64, 28
1, 447974, Control_c, 0, 64, 20
1, 447989, Control_c, 0, 64, 19
1, 448018, Control_c, 0, 64, 22
1, 448033, Control_c, 0, 64, 27
1, 448048, Control_c, 0, 64, 32
1, 448063, Control_c, 0, 64, 39
1, 448078, Control_c, 0, 64, 44
1, 448094, Control_c, 0, 64, 48
1, 448109, Control_c, 0, 64, 52
1, 448123, Control_c, 0, 64, 57
1, 448138, Control_c, 0, 64, 61
1, 448153, Control_c, 0, 64, 63
1, 448167, Control_c, 0, 64, 66
1, 448182, Control_c, 0, 64, 69
1, 448197, Control_c, 0, 64, 73
1, 448212, Control_c, 0, 64, 78
1, 448227, Control_c, 0, 64, 84
1, 448241, Control_c, 0, 64, 90
1, 448256, Control_c, 0, 64, 100
1, 448271, Control_c, 0, 64, 115
1, 448286, Control_c, 0, 64, 127
1, 448522, Note_off_c, 0, 64, 53
1, 448579, Note_off_c, 0, 29, 36
1, 448644, Note_off_c, 0, 61, 39
1, 448787, Note_off_c, 0, 41, 40
1, 449031, Note_on_c, 0, 62, 48
1, 449043, Note_on_c, 0, 59, 42
1, 449126, Note_off_c, 0, 56, 34
1, 449153, Note_off_c, 0, 59, 61
1, 449188, Note_off_c, 0, 62, 62
1, 449451, Note_on_c, 0, 59, 42
1, 449457, Note_on_c, 0, 61, 45
1, 449460, Note_on_c, 0, 44, 36
1, 449462, Note_on_c, 0, 53, 41
1, 449467, Note_on_c, 0, 32, 35
1, 449470, Control_c, 0, 64, 108
1, 449479, Note_on_c, 0, 49, 37
1, 449485, Control_c, 0, 64, 94
1, 449500, Control_c, 0, 64, 81
1, 449515, Control_c, 0, 64, 69
1, 449530, Control_c, 0, 64, 59
1, 449544, Control_c, 0, 64, 38
1, 449559, Control_c, 0, 64, 31
1, 449588, Control_c, 0, 64, 32
1, 449603, Control_c, 0, 64, 38
1, 449618, Control_c, 0, 64, 46
1, 449633, Control_c, 0, 64, 54
1, 449648, Control_c, 0, 64, 61
1, 449663, Control_c, 0, 64, 66
1, 449678, Control_c, 0, 64, 73
1, 449693, Control_c, 0, 64, 84
1, 449708, Control_c, 0, 64, 97
1, 449723, Control_c, 0, 64, 108
1, 449738, Control_c, 0, 64, 111
1, 449753, Control_c, 0, 64, 110
1, 449767, Control_c, 0, 64, 108
1, 449778, Note_off_c, 0, 59, 35
1, 449782, Control_c, 0, 64, 106
1, 449794, Note_off_c, 0, 44, 35
1, 449797, Control_c, 0, 64, 104
1, 449809, Note_off_c, 0, 49, 28
1, 449812, Control_c, 0, 64, 101
1, 449827, Control_c, 0, 64, 96
1, 449830, Note_off_c, 0, 53, 37
1, 449844, Note_off_c, 0, 32, 36
1, 449849, Control_c, 0, 64, 93
1, 449864, Control_c, 0, 64, 90
1, 449879, Control_c, 0, 64, 87
1, 449892, Note_off_c, 0, 61, 32
1, 449893, Control_c, 0, 64, 85
1, 449908, Control_c, 0, 64, 83
1, 449923, Control_c, 0, 64, 81
1, 449938, Control_c, 0, 64, 79
1, 449953, Control_c, 0, 64, 77
1, 449967, Control_c, 0, 64, 75
1, 449982, Control_c, 0, 64, 73
1, 449997, Control_c, 0, 64, 71
1, 450012, Control_c, 0, 64, 70
1, 450027, Control_c, 0, 64, 69
1, 450042, Control_c, 0, 64, 68
1, 450057, Control_c, 0, 64, 67
1, 450072, Control_c, 0, 64, 66
1, 450087, Control_c, 0, 64, 65
1, 450101, Control_c, 0, 64, 65
1, 450116, Control_c, 0, 64, 64
1, 450131, Control_c, 0, 64, 63
1, 450146, Control_c, 0, 64, 62
1, 450161, Control_c, 0, 64, 62
1, 450176, Control_c, 0, 64, 61
1, 450190, Control_c, 0, 64, 61
1, 450205, Control_c, 0, 64, 59
1, 450220, Control_c, 0, 64, 58
1, 450235, Control_c, 0, 64, 57
1, 450250, Control_c, 0, 64, 57
1, 450265, Control_c, 0, 64, 55
1, 450280, Control_c, 0, 64, 54
1, 450294, Control_c, 0, 64, 52
1, 450309, Control_c, 0, 64, 51
1, 450324, Control_c, 0, 64, 51
1, 450338, Control_c, 0, 64, 50
1, 450353, Note_on_c, 0, 58, 36
1, 450353, Control_c, 0, 64, 49
1, 450365, Note_on_c, 0, 54, 32
1, 450367, Note_on_c, 0, 42, 32
1, 450368, Control_c, 0, 64, 48
1, 450381, Note_on_c, 0, 49, 23
1, 450387, Note_on_c, 0, 30, 22
1, 450427, Control_c, 0, 64, 49
1, 450442, Control_c, 0, 64, 49
1, 450457, Control_c, 0, 64, 51
1, 450472, Control_c, 0, 64, 52
1, 450488, Control_c, 0, 64, 54
1, 450503, Control_c, 0, 64, 55
1, 450517, Control_c, 0, 64, 57
1, 450532, Control_c, 0, 64, 58
1, 450547, Control_c, 0, 64, 60
1, 450562, Control_c, 0, 64, 62
1, 450577, Control_c, 0, 64, 64
1, 450599, Control_c, 0, 64, 66
1, 450614, Control_c, 0, 64, 69
1, 450629, Control_c, 0, 64, 72
1, 450643, Control_c, 0, 64, 77
1, 450658, Control_c, 0, 64, 82
1, 450673, Control_c, 0, 64, 89
1, 450688, Control_c, 0, 64, 95
1, 450703, Control_c, 0, 64, 101
1, 450717, Control_c, 0, 64, 103
1, 450762, Control_c, 0, 64, 103
1, 450777, Control_c, 0, 64, 102
1, 450791, Control_c, 0, 64, 100
1, 450806, Control_c, 0, 64, 99
1, 450821, Control_c, 0, 64, 98
1, 450831, Note_off_c, 0, 54, 34
1, 450836, Control_c, 0, 64, 96
1, 450851, Control_c, 0, 64, 94
1, 450858, Note_off_c, 0, 58, 28
1, 450866, Control_c, 0, 64, 93
1, 450881, Control_c, 0, 64, 92
1, 450885, Note_off_c, 0, 30, 34
1, 450893, Note_off_c, 0, 49, 32
1, 450896, Control_c, 0, 64, 92
1, 450910, Control_c, 0, 64, 91
1, 450925, Control_c, 0, 64, 89
1, 450940, Control_c, 0, 64, 87
1, 450942, Note_off_c, 0, 42, 34
1, 450955, Control_c, 0, 64, 86
1, 450969, Control_c, 0, 64, 85
1, 450984, Control_c, 0, 64, 84
1, 450999, Control_c, 0, 64, 82
1, 451014, Control_c, 0, 64, 81
1, 451029, Control_c, 0, 64, 79
1, 451043, Control_c, 0, 64, 77
1, 451058, Control_c, 0, 64, 76
1, 451073, Control_c, 0, 64, 75
1, 451088, Control_c, 0, 64, 74
1, 451103, Control_c, 0, 64, 73
1, 451118, Control_c, 0, 64, 73
1, 451132, Control_c, 0, 64, 72
1, 451147, Control_c, 0, 64, 71
1, 451162, Control_c, 0, 64, 70
1, 451177, Control_c, 0, 64, 70
1, 451192, Control_c, 0, 64, 69
1, 451207, Control_c, 0, 64, 68
1, 451222, Control_c, 0, 64, 68
1, 451236, Control_c, 0, 64, 67
1, 451251, Control_c, 0, 64, 67
1, 451296, Control_c, 0, 64, 66
1, 451311, Control_c, 0, 64, 66
1, 451326, Control_c, 0, 64, 65
1, 451348, Control_c, 0, 64, 65
1, 451378, Control_c, 0, 64, 64
1, 451407, Control_c, 0, 64, 64
1, 451452, Control_c, 0, 64, 63
1, 451496, Control_c, 0, 64, 63
1, 451555, Control_c, 0, 64, 62
1, 451614, Control_c, 0, 64, 62
1, 451688, Control_c, 0, 64, 61
1, 451762, Control_c, 0, 64, 61
1, 451806, Control_c, 0, 64, 60
1, 451851, Control_c, 0, 64, 60
1, 451881, Control_c, 0, 64, 59
1, 451896, Control_c, 0, 64, 59
1, 451940, Control_c, 0, 64, 58
1, 452073, Control_c, 0, 64, 59
1, 452096, Control_c, 0, 64, 59
1, 452126, Control_c, 0, 64, 60
1, 452156, Control_c, 0, 64, 60
1, 452170, Control_c, 0, 64, 61
1, 452185, Control_c, 0, 64, 61
1, 452200, Control_c, 0, 64, 62
1, 452214, Control_c, 0, 64, 62
1, 452229, Control_c, 0, 64, 63
1, 452244, Control_c, 0, 64, 63
1, 452259, Control_c, 0, 64, 64
1, 452274, Control_c, 0, 64, 65
1, 452289, Control_c, 0, 64, 66
1, 452304, Control_c, 0, 64, 68
1, 452319, Control_c, 0, 64, 70
1, 452334, Control_c, 0, 64, 73
1, 452349, Control_c, 0, 64, 77
1, 452363, Control_c, 0, 64, 82
1, 452378, Control_c, 0, 64, 88
1, 452393, Control_c, 0, 64, 96
1, 452408, Control_c, 0, 64, 112
1, 452422, Control_c, 0, 64, 127
1, 452532, Note_on_c, 0, 62, 73
1, 452535, Note_on_c, 0, 47, 40
1, 452541, Note_on_c, 0, 35, 42
1, 452545, Note_on_c, 0, 42, 44
1, 452548, Note_on_c, 0, 59, 58
1, 452549, Note_on_c, 0, 54, 56
1, 452554, Note_on_c, 0, 50, 57
1, 452878, Note_off_c, 0, 50, 57
1, 452899, Note_off_c, 0, 59, 57
1, 452969, Note_off_c, 0, 54, 64
1, 453055, Note_off_c, 0, 47, 30
1, 453144, Note_on_c, 0, 61, 85
1, 453153, Note_on_c, 0, 58, 78
1, 453181, Note_off_c, 0, 62, 61
1, 453286, Note_off_c, 0, 58, 47
1, 453317, Note_on_c, 0, 40, 56
1, 453328, Note_on_c, 0, 47, 47
1, 453358, Note_on_c, 0, 62, 81
1, 453374, Note_on_c, 0, 55, 66
1, 453393, Control_c, 0, 64, 115
1, 453399, Note_on_c, 0, 59, 52
1, 453401, Note_on_c, 0, 60, 59
1, 453408, Control_c, 0, 64, 104
1, 453423, Control_c, 0, 64, 95
1, 453432, Note_off_c, 0, 35, 36
1, 453437, Control_c, 0, 64, 88
1, 453446, Note_off_c, 0, 42, 37
1, 453450, Note_off_c, 0, 61, 60
1, 453452, Control_c, 0, 64, 83
1, 453467, Control_c, 0, 64, 80
1, 453478, Note_off_c, 0, 60, 54
1, 453482, Control_c, 0, 64, 78
1, 453497, Control_c, 0, 64, 75
1, 453511, Control_c, 0, 64, 71
1, 453526, Control_c, 0, 64, 67
1, 453541, Control_c, 0, 64, 63
1, 453556, Control_c, 0, 64, 59
1, 453571, Control_c, 0, 64, 55
1, 453593, Control_c, 0, 64, 46
1, 453608, Control_c, 0, 64, 31
1, 453623, Control_c, 0, 64, 0
1, 453757, Control_c, 0, 64, 27
1, 453773, Control_c, 0, 64, 41
1, 453788, Control_c, 0, 64, 54
1, 453803, Control_c, 0, 64, 61
1, 453817, Control_c, 0, 64, 64
1, 453832, Control_c, 0, 64, 67
1, 453847, Control_c, 0, 64, 71
1, 453861, Control_c, 0, 64, 77
1, 453876, Control_c, 0, 64, 87
1, 453891, Control_c, 0, 64, 101
1, 453906, Control_c, 0, 64, 127
1, 454106, Note_on_c, 0, 64, 65
1, 454116, Note_on_c, 0, 61, 54
1, 454128, Control_c, 0, 64, 107
1, 454143, Control_c, 0, 64, 99
1, 454158, Control_c, 0, 64, 92
1, 454173, Control_c, 0, 64, 86
1, 454187, Control_c, 0, 64, 80
1, 454202, Note_off_c, 0, 59, 35
1, 454202, Control_c, 0, 64, 76
1, 454216, Note_off_c, 0, 62, 48
1, 454217, Control_c, 0, 64, 73
1, 454232, Control_c, 0, 64, 71
1, 454247, Control_c, 0, 64, 69
1, 454261, Control_c, 0, 64, 66
1, 454276, Control_c, 0, 64, 64
1, 454291, Control_c, 0, 64, 62
1, 454306, Control_c, 0, 64, 57
1, 454321, Control_c, 0, 64, 52
1, 454343, Control_c, 0, 64, 46
1, 454358, Control_c, 0, 64, 42
1, 454387, Control_c, 0, 64, 44
1, 454402, Control_c, 0, 64, 49
1, 454417, Control_c, 0, 64, 53
1, 454432, Control_c, 0, 64, 57
1, 454447, Control_c, 0, 64, 60
1, 454461, Control_c, 0, 64, 63
1, 454476, Control_c, 0, 64, 66
1, 454492, Control_c, 0, 64, 70
1, 454507, Control_c, 0, 64, 75
1, 454522, Control_c, 0, 64, 80
1, 454537, Control_c, 0, 64, 85
1, 454552, Control_c, 0, 64, 90
1, 454566, Control_c, 0, 64, 94
1, 454581, Control_c, 0, 64, 97
1, 454596, Control_c, 0, 64, 99
1, 454612, Note_off_c, 0, 47, 33
1, 454655, Control_c, 0, 64, 99
1, 454670, Control_c, 0, 64, 98
1, 454684, Control_c, 0, 64, 97
1, 454699, Control_c, 0, 64, 96
1, 454714, Control_c, 0, 64, 95
1, 454729, Control_c, 0, 64, 94
1, 454744, Control_c, 0, 64, 92
1, 454751, Note_off_c, 0, 61, 49
1, 454758, Control_c, 0, 64, 91
1, 454773, Note_off_c, 0, 40, 35
1, 454773, Control_c, 0, 64, 90
1, 454788, Control_c, 0, 64, 89
1, 454799, Note_off_c, 0, 64, 29
1, 454803, Control_c, 0, 64, 87
1, 454814, Note_off_c, 0, 55, 32
1, 454817, Control_c, 0, 64, 85
1, 454832, Control_c, 0, 64, 84
1, 454847, Control_c, 0, 64, 83
1, 454862, Control_c, 0, 64, 82
1, 454877, Control_c, 0, 64, 81
1, 454891, Control_c, 0, 64, 80
1, 454906, Control_c, 0, 64, 79
1, 454921, Control_c, 0, 64, 78
1, 454936, Control_c, 0, 64, 76
1, 454951, Control_c, 0, 64, 75
1, 454966, Control_c, 0, 64, 74
1, 454981, Control_c, 0, 64, 73
1, 454996, Control_c, 0, 64, 72
1, 455010, Control_c, 0, 64, 71
1, 455025, Control_c, 0, 64, 70
1, 455040, Control_c, 0, 64, 69
1, 455055, Control_c, 0, 64, 68
1, 455070, Control_c, 0, 64, 68
1, 455091, Control_c, 0, 64, 67
1, 455106, Control_c, 0, 64, 66
1, 455121, Control_c, 0, 64, 66
1, 455136, Control_c, 0, 64, 65
1, 455151, Control_c, 0, 64, 64
1, 455166, Control_c, 0, 64, 63
1, 455180, Control_c, 0, 64, 63
1, 455195, Control_c, 0, 64, 62
1, 455210, Control_c, 0, 64, 61
1, 455225, Control_c, 0, 64, 59
1, 455240, Control_c, 0, 64, 57
1, 455255, Control_c, 0, 64, 53
1, 455270, Control_c, 0, 64, 47
1, 455285, Control_c, 0, 64, 36
1, 455300, Control_c, 0, 64, 23
1, 455315, Control_c, 0, 64, 21
1, 455344, Control_c, 0, 64, 25
1, 455359, Note_on_c, 0, 62, 74
1, 455359, Control_c, 0, 64, 35
1, 455365, Note_on_c, 0, 59, 61
1, 455374, Control_c, 0, 64, 43
1, 455389, Control_c, 0, 64, 49
1, 455404, Control_c, 0, 64, 54
1, 455419, Control_c, 0, 64, 59
1, 455433, Control_c, 0, 64, 63
1, 455448, Control_c, 0, 64, 66
1, 455463, Control_c, 0, 64, 70
1, 455478, Control_c, 0, 64, 79
1, 455493, Control_c, 0, 64, 95
1, 455507, Control_c, 0, 64, 127
1, 455634, Note_on_c, 0, 35, 56
1, 455642, Note_on_c, 0, 42, 56
1, 455694, Note_on_c, 0, 61, 80
1, 455707, Note_on_c, 0, 58, 72
1, 455715, Note_on_c, 0, 50, 55
1, 455776, Note_off_c, 0, 59, 40
1, 455857, Note_off_c, 0, 58, 62
1, 455868, Note_off_c, 0, 50, 62
1, 455872, Note_off_c, 0, 62, 32
1, 455985, Note_on_c, 0, 59, 85
1, 455989, Note_on_c, 0, 56, 84
1, 456045, Note_off_c, 0, 61, 59
1, 456075, Note_off_c, 0, 56, 63
1, 456167, Note_on_c, 0, 61, 87
1, 456186, Note_on_c, 0, 58, 82
1, 456227, Note_off_c, 0, 59, 55
1, 456355, Note_on_c, 0, 47, 43
1, 456362, Note_on_c, 0, 40, 46
1, 456418, Control_c, 0, 64, 101
1, 456431, Note_on_c, 0, 62, 70
1, 456433, Control_c, 0, 64, 90
1, 456440, Note_on_c, 0, 55, 51
1, 456448, Control_c, 0, 64, 84
1, 456452, Note_on_c, 0, 59, 60
1, 456462, Control_c, 0, 64, 80
1, 456476, Note_off_c, 0, 58, 57
1, 456477, Control_c, 0, 64, 77
1, 456492, Control_c, 0, 64, 73
1, 456507, Control_c, 0, 64, 67
1, 456522, Control_c, 0, 64, 62
1, 456537, Control_c, 0, 64, 57
1, 456538, Note_off_c, 0, 61, 52
1, 456543, Note_off_c, 0, 42, 35
1, 456552, Control_c, 0, 64, 54
1, 456567, Control_c, 0, 64, 49
1, 456589, Control_c, 0, 64, 40
1, 456594, Note_off_c, 0, 35, 34
1, 456604, Control_c, 0, 64, 27
1, 456618, Control_c, 0, 64, 15
1, 456662, Control_c, 0, 64, 24
1, 456677, Control_c, 0, 64, 34
1, 456692, Control_c, 0, 64, 43
1, 456707, Control_c, 0, 64, 51
1, 456722, Control_c, 0, 64, 60
1, 456737, Control_c, 0, 64, 63
1, 456751, Note_on_c, 0, 61, 72
1, 456751, Control_c, 0, 64, 66
1, 456762, Note_on_c, 0, 58, 59
1, 456763, Note_off_c, 0, 59, 56
1, 456766, Control_c, 0, 64, 70
1, 456781, Control_c, 0, 64, 77
1, 456796, Control_c, 0, 64, 85
1, 456811, Control_c, 0, 64, 95
1, 456813, Note_off_c, 0, 62, 60
1, 456826, Control_c, 0, 64, 108
1, 456841, Control_c, 0, 64, 127
1, 456956, Note_on_c, 0, 62, 71
1, 456973, Note_off_c, 0, 61, 62
1, 456981, Note_on_c, 0, 59, 54
1, 456984, Note_off_c, 0, 58, 59
1, 457074, Note_off_c, 0, 59, 59
1, 457110, Note_off_c, 0, 62, 60
1, 457212, Control_c, 0, 64, 122
1, 457226, Control_c, 0, 64, 116
1, 457241, Control_c, 0, 64, 112
1, 457256, Control_c, 0, 64, 107
1, 457270, Control_c, 0, 64, 101
1, 457277, Note_on_c, 0, 64, 58
1, 457285, Control_c, 0, 64, 94
1, 457300, Control_c, 0, 64, 88
1, 457315, Control_c, 0, 64, 82
1, 457338, Control_c, 0, 64, 78
1, 457342, Note_on_c, 0, 61, 25
1, 457352, Control_c, 0, 64, 74
1, 457367, Control_c, 0, 64, 70
1, 457382, Control_c, 0, 64, 65
1, 457397, Control_c, 0, 64, 59
1, 457411, Control_c, 0, 64, 51
1, 457426, Control_c, 0, 64, 44
1, 457441, Control_c, 0, 64, 40
1, 457456, Control_c, 0, 64, 36
1, 457471, Control_c, 0, 64, 36
1, 457500, Control_c, 0, 64, 38
1, 457516, Control_c, 0, 64, 43
1, 457531, Control_c, 0, 64, 48
1, 457546, Control_c, 0, 64, 52
1, 457560, Control_c, 0, 64, 56
1, 457575, Control_c, 0, 64, 60
1, 457590, Control_c, 0, 64, 63
1, 457604, Control_c, 0, 64, 65
1, 457619, Control_c, 0, 64, 67
1, 457634, Control_c, 0, 64, 71
1, 457649, Control_c, 0, 64, 76
1, 457664, Control_c, 0, 64, 82
1, 457680, Control_c, 0, 64, 88
1, 457695, Control_c, 0, 64, 94
1, 457709, Control_c, 0, 64, 99
1, 457724, Control_c, 0, 64, 104
1, 457739, Control_c, 0, 64, 109
1, 457754, Control_c, 0, 64, 110
1, 457776, Note_off_c, 0, 61, 34
1, 457828, Control_c, 0, 64, 110
1, 457843, Control_c, 0, 64, 108
1, 457857, Control_c, 0, 64, 108
1, 457872, Control_c, 0, 64, 107
1, 457873, Note_off_c, 0, 55, 39
1, 457886, Note_off_c, 0, 40, 38
1, 457887, Note_off_c, 0, 64, 35
1, 457887, Control_c, 0, 64, 107
1, 457902, Control_c, 0, 64, 105
1, 457917, Control_c, 0, 64, 104
1, 457922, Note_off_c, 0, 47, 28
1, 457932, Control_c, 0, 64, 102
1, 457947, Control_c, 0, 64, 102
1, 457962, Control_c, 0, 64, 100
1, 457976, Control_c, 0, 64, 98
1, 457991, Control_c, 0, 64, 96
1, 458006, Control_c, 0, 64, 96
1, 458021, Control_c, 0, 64, 95
1, 458035, Control_c, 0, 64, 92
1, 458050, Control_c, 0, 64, 90
1, 458065, Control_c, 0, 64, 88
1, 458087, Control_c, 0, 64, 87
1, 458102, Control_c, 0, 64, 85
1, 458117, Control_c, 0, 64, 84
1, 458132, Control_c, 0, 64, 83
1, 458146, Control_c, 0, 64, 81
1, 458161, Control_c, 0, 64, 80
1, 458176, Control_c, 0, 64, 78
1, 458191, Control_c, 0, 64, 77
1, 458206, Control_c, 0, 64, 76
1, 458221, Control_c, 0, 64, 75
1, 458235, Control_c, 0, 64, 74
1, 458250, Control_c, 0, 64, 73
1, 458265, Control_c, 0, 64, 72
1, 458280, Control_c, 0, 64, 71
1, 458295, Control_c, 0, 64, 70
1, 458309, Control_c, 0, 64, 69
1, 458324, Control_c, 0, 64, 68
1, 458339, Control_c, 0, 64, 67
1, 458354, Control_c, 0, 64, 67
1, 458369, Control_c, 0, 64, 66
1, 458383, Control_c, 0, 64, 66
1, 458398, Control_c, 0, 64, 65
1, 458413, Control_c, 0, 64, 65
1, 458442, Control_c, 0, 64, 64
1, 458457, Control_c, 0, 64, 64
1, 458488, Control_c, 0, 64, 63
1, 458503, Control_c, 0, 64, 63
1, 458532, Control_c, 0, 64, 62
1, 458547, Control_c, 0, 64, 62
1, 458562, Control_c, 0, 64, 61
1, 458577, Control_c, 0, 64, 61
1, 458592, Control_c, 0, 64, 60
1, 458606, Control_c, 0, 64, 58
1, 458621, Control_c, 0, 64, 55
1, 458636, Control_c, 0, 64, 53
1, 458650, Control_c, 0, 64, 52
1, 458665, Control_c, 0, 64, 52
1, 458725, Control_c, 0, 64, 53
1, 458740, Control_c, 0, 64, 54
1, 458755, Control_c, 0, 64, 56
1, 458769, Control_c, 0, 64, 57
1, 458784, Control_c, 0, 64, 58
1, 458799, Control_c, 0, 64, 60
1, 458814, Control_c, 0, 64, 61
1, 458836, Control_c, 0, 64, 63
1, 458851, Control_c, 0, 64, 65
1, 458865, Control_c, 0, 64, 67
1, 458880, Control_c, 0, 64, 71
1, 458895, Control_c, 0, 64, 76
1, 458910, Control_c, 0, 64, 83
1, 458925, Control_c, 0, 64, 90
1, 458939, Control_c, 0, 64, 99
1, 458954, Control_c, 0, 64, 115
1, 458969, Control_c, 0, 64, 127
1, 459122, Note_on_c, 0, 47, 17
1, 459127, Note_on_c, 0, 35, 26
1, 459135, Note_on_c, 0, 62, 32
1, 459151, Note_on_c, 0, 59, 33
1, 459160, Note_on_c, 0, 54, 32
1, 459377, Note_off_c, 0, 59, 41
1, 459624, Note_off_c, 0, 47, 35
1, 459625, Note_on_c, 0, 64, 59
1, 459631, Note_on_c, 0, 61, 49
1, 459726, Note_off_c, 0, 62, 38
1, 459769, Note_off_c, 0, 64, 61
1, 459774, Note_off_c, 0, 35, 36
1, 459813, Note_off_c, 0, 54, 39
1, 459907, Note_on_c, 0, 66, 72
1, 459922, Note_on_c, 0, 62, 60
1, 459962, Note_off_c, 0, 61, 56
1, 460086, Note_off_c, 0, 62, 56
1, 460087, Note_off_c, 0, 66, 59
1, 460397, Note_on_c, 0, 69, 66
1, 460400, Note_on_c, 0, 28, 37
1, 460400, Note_on_c, 0, 40, 37
1, 460427, Note_on_c, 0, 66, 50
1, 460433, Note_on_c, 0, 59, 39
1, 460456, Note_on_c, 0, 62, 44
1, 460460, Note_on_c, 0, 55, 37
1, 460466, Control_c, 0, 64, 111
1, 460481, Control_c, 0, 64, 101
1, 460495, Control_c, 0, 64, 92
1, 460510, Control_c, 0, 64, 87
1, 460525, Control_c, 0, 64, 84
1, 460540, Control_c, 0, 64, 81
1, 460555, Control_c, 0, 64, 78
1, 460570, Control_c, 0, 64, 74
1, 460584, Control_c, 0, 64, 72
1, 460599, Control_c, 0, 64, 70
1, 460614, Control_c, 0, 64, 69
1, 460628, Control_c, 0, 64, 68
1, 460643, Control_c, 0, 64, 66
1, 460658, Control_c, 0, 64, 64
1, 460673, Control_c, 0, 64, 63
1, 460688, Control_c, 0, 64, 62
1, 460717, Control_c, 0, 64, 61
1, 460732, Control_c, 0, 64, 60
1, 460747, Control_c, 0, 64, 57
1, 460762, Control_c, 0, 64, 54
1, 460776, Control_c, 0, 64, 52
1, 460791, Control_c, 0, 64, 51
1, 460806, Control_c, 0, 64, 49
1, 460820, Control_c, 0, 64, 45
1, 460835, Control_c, 0, 64, 41
1, 460850, Control_c, 0, 64, 38
1, 460866, Control_c, 0, 64, 37
1, 460925, Control_c, 0, 64, 38
1, 460940, Control_c, 0, 64, 40
1, 460955, Control_c, 0, 64, 42
1, 460970, Control_c, 0, 64, 45
1, 460985, Control_c, 0, 64, 47
1, 460999, Control_c, 0, 64, 49
1, 461014, Control_c, 0, 64, 52
1, 461029, Control_c, 0, 64, 54
1, 461044, Control_c, 0, 64, 57
1, 461059, Control_c, 0, 64, 59
1, 461081, Control_c, 0, 64, 61
1, 461096, Control_c, 0, 64, 63
1, 461111, Control_c, 0, 64, 64
1, 461125, Control_c, 0, 64, 67
1, 461140, Control_c, 0, 64, 70
1, 461155, Control_c, 0, 64, 74
1, 461170, Control_c, 0, 64, 79
1, 461185, Control_c, 0, 64, 85
1, 461199, Control_c, 0, 64, 93
1, 461214, Control_c, 0, 64, 101
1, 461229, Control_c, 0, 64, 116
1, 461244, Control_c, 0, 64, 127
1, 461260, Note_off_c, 0, 62, 53
1, 461524, Note_off_c, 0, 69, 50
1, 461576, Note_off_c, 0, 66, 35
1, 461864, Note_off_c, 0, 59, 0
1, 461870, Note_on_c, 0, 67, 49
1, 461890, Control_c, 0, 64, 115
1, 461899, Note_on_c, 0, 64, 44
1, 461901, Poly_aftertouch_c, 0, 59, 127
1, 461905, Control_c, 0, 64, 103
1, 461920, Control_c, 0, 64, 91
1, 461935, Control_c, 0, 64, 80
1, 461949, Control_c, 0, 64, 68
1, 461964, Control_c, 0, 64, 58
1, 461979, Control_c, 0, 64, 50
1, 461994, Control_c, 0, 64, 51
1, 462008, Control_c, 0, 64, 53
1, 462022, Control_c, 0, 64, 55
1, 462037, Control_c, 0, 64, 59
1, 462052, Control_c, 0, 64, 61
1, 462067, Control_c, 0, 64, 65
1, 462081, Control_c, 0, 64, 70
1, 462096, Control_c, 0, 64, 80
1, 462111, Control_c, 0, 64, 100
1, 462126, Control_c, 0, 64, 127
1, 462132, Note_off_c, 0, 67, 37
1, 462189, Poly_aftertouch_c, 0, 59, 0
1, 462244, Note_off_c, 0, 28, 39
1, 462312, Note_off_c, 0, 64, 53
1, 462318, Note_off_c, 0, 40, 44
1, 462457, Note_on_c, 0, 66, 68
1, 462476, Note_on_c, 0, 62, 63
1, 462600, Note_off_c, 0, 62, 62
1, 462620, Note_off_c, 0, 55, 39
1, 462629, Note_off_c, 0, 66, 58
1, 462686, Note_on_c, 0, 45, 52
1, 462695, Note_on_c, 0, 33, 46
1, 462757, Note_on_c, 0, 67, 71
1, 462766, Note_on_c, 0, 61, 63
1, 462767, Note_on_c, 0, 64, 58
1, 462788, Note_on_c, 0, 57, 51
1, 462790, Note_on_c, 0, 55, 58
1, 462934, Note_off_c, 0, 67, 60
1, 462945, Note_off_c, 0, 64, 59
1, 463006, Note_off_c, 0, 55, 57
1, 463017, Note_off_c, 0, 57, 57
1, 463054, Note_on_c, 0, 69, 85
1, 463059, Note_on_c, 0, 66, 72
1, 463121, Note_off_c, 0, 61, 61
1, 463149, Note_off_c, 0, 45, 57
1, 463149, Note_off_c, 0, 69, 63
1, 463154, Note_off_c, 0, 66, 60
1, 463206, Note_off_c, 0, 33, 34
1, 463236, Note_on_c, 0, 71, 86
1, 463244, Note_on_c, 0, 67, 82
1, 463382, Note_off_c, 0, 67, 56
1, 463387, Note_off_c, 0, 71, 58
1, 463450, Note_on_c, 0, 42, 66
1, 463465, Note_on_c, 0, 30, 59
1, 463488, Note_on_c, 0, 71, 84
1, 463499, Note_on_c, 0, 57, 64
1, 463502, Note_on_c, 0, 62, 64
1, 463503, Note_on_c, 0, 67, 66
1, 463594, Control_c, 0, 64, 91
1, 463609, Control_c, 0, 64, 73
1, 463624, Control_c, 0, 64, 60
1, 463639, Control_c, 0, 64, 47
1, 463654, Control_c, 0, 64, 43
1, 463668, Control_c, 0, 64, 41
1, 463683, Control_c, 0, 64, 39
1, 463713, Control_c, 0, 64, 40
1, 463727, Control_c, 0, 64, 44
1, 463742, Control_c, 0, 64, 51
1, 463757, Control_c, 0, 64, 56
1, 463772, Control_c, 0, 64, 59
1, 463786, Control_c, 0, 64, 62
1, 463801, Control_c, 0, 64, 65
1, 463816, Control_c, 0, 64, 70
1, 463831, Control_c, 0, 64, 81
1, 463846, Control_c, 0, 64, 120
1, 463861, Control_c, 0, 64, 127
1, 463977, Note_off_c, 0, 67, 58
1, 463986, Note_off_c, 0, 71, 54
1, 464186, Note_on_c, 0, 69, 81
1, 464189, Note_on_c, 0, 66, 69
1, 464284, Control_c, 0, 64, 117
1, 464299, Control_c, 0, 64, 107
1, 464314, Control_c, 0, 64, 102
1, 464329, Control_c, 0, 64, 98
1, 464343, Control_c, 0, 64, 93
1, 464358, Control_c, 0, 64, 86
1, 464373, Control_c, 0, 64, 82
1, 464388, Control_c, 0, 64, 78
1, 464403, Control_c, 0, 64, 76
1, 464417, Control_c, 0, 64, 73
1, 464432, Control_c, 0, 64, 70
1, 464447, Control_c, 0, 64, 66
1, 464462, Control_c, 0, 64, 62
1, 464476, Control_c, 0, 64, 60
1, 464491, Control_c, 0, 64, 57
1, 464506, Control_c, 0, 64, 53
1, 464521, Control_c, 0, 64, 48
1, 464536, Control_c, 0, 64, 43
1, 464550, Control_c, 0, 64, 38
1, 464565, Control_c, 0, 64, 38
1, 464595, Control_c, 0, 64, 40
1, 464610, Control_c, 0, 64, 44
1, 464624, Control_c, 0, 64, 50
1, 464639, Control_c, 0, 64, 55
1, 464654, Control_c, 0, 64, 58
1, 464669, Control_c, 0, 64, 61
1, 464684, Control_c, 0, 64, 63
1, 464699, Control_c, 0, 64, 65
1, 464713, Control_c, 0, 64, 70
1, 464728, Control_c, 0, 64, 84
1, 464743, Control_c, 0, 64, 116
1, 464758, Control_c, 0, 64, 127
1, 464931, Note_off_c, 0, 69, 50
1, 464962, Note_off_c, 0, 30, 41
1, 465041, Note_off_c, 0, 42, 32
1, 465053, Note_off_c, 0, 66, 61
1, 465068, Note_off_c, 0, 62, 38
1, 465275, Note_on_c, 0, 67, 87
1, 465289, Note_on_c, 0, 64, 80
1, 465303, Note_off_c, 0, 57, 0
1, 465303, Note_on_c, 0, 57, 17
1, 465405, Note_off_c, 0, 64, 60
1, 465457, Note_off_c, 0, 57, 37
1, 465474, Note_off_c, 0, 67, 59
1, 465507, Note_on_c, 0, 47, 73
1, 465521, Note_on_c, 0, 35, 63
1, 465571, Note_on_c, 0, 69, 91
1, 465576, Note_on_c, 0, 66, 64
1, 465582, Note_on_c, 0, 63, 66
1, 465590, Note_on_c, 0, 59, 64
1, 465596, Note_on_c, 0, 57, 64
1, 465619, Control_c, 0, 64, 81
1, 465634, Control_c, 0, 64, 62
1, 465648, Control_c, 0, 64, 30
1, 465664, Control_c, 0, 64, 36
1, 465679, Control_c, 0, 64, 50
1, 465694, Control_c, 0, 64, 58
1, 465709, Control_c, 0, 64, 65
1, 465723, Control_c, 0, 64, 77
1, 465738, Control_c, 0, 64, 127
1, 465755, Note_off_c, 0, 66, 57
1, 465766, Note_off_c, 0, 69, 59
1, 465820, Note_off_c, 0, 57, 61
1, 465825, Note_off_c, 0, 59, 59
1, 465864, Note_off_c, 0, 47, 58
1, 465876, Note_on_c, 0, 71, 95
1, 465886, Note_on_c, 0, 67, 81
1, 465915, Note_off_c, 0, 63, 62
1, 465941, Note_off_c, 0, 35, 57
1, 465952, Note_off_c, 0, 67, 62
1, 465972, Note_off_c, 0, 71, 64
1, 466047, Note_on_c, 0, 72, 96
1, 466055, Note_on_c, 0, 69, 90
1, 466156, Note_off_c, 0, 72, 60
1, 466185, Note_off_c, 0, 69, 50
1, 466224, Note_on_c, 0, 40, 73
1, 466231, Note_on_c, 0, 28, 66
1, 466272, Note_on_c, 0, 72, 89
1, 466284, Note_on_c, 0, 59, 71
1, 466284, Note_on_c, 0, 69, 65
1, 466286, Note_on_c, 0, 64, 67
1, 466323, Control_c, 0, 64, 98
1, 466338, Control_c, 0, 64, 72
1, 466353, Control_c, 0, 64, 55
1, 466368, Control_c, 0, 64, 23
1, 466383, Control_c, 0, 64, 25
1, 466397, Control_c, 0, 64, 32
1, 466412, Control_c, 0, 64, 46
1, 466427, Control_c, 0, 64, 58
1, 466441, Control_c, 0, 64, 67
1, 466456, Control_c, 0, 64, 84
1, 466472, Control_c, 0, 64, 127
1, 466510, Note_off_c, 0, 69, 62
1, 466514, Note_off_c, 0, 72, 62
1, 466515, Note_off_c, 0, 28, 54
1, 466600, Note_on_c, 0, 71, 88
1, 466604, Note_on_c, 0, 67, 78
1, 466612, Note_off_c, 0, 64, 65
1, 466615, Note_off_c, 0, 40, 62
1, 466628, Note_off_c, 0, 59, 64
1, 466634, Note_off_c, 0, 67, 60
1, 466657, Note_off_c, 0, 71, 62
1, 466734, Note_on_c, 0, 61, 87
1, 466742, Note_on_c, 0, 55, 72
1, 466779, Note_on_c, 0, 57, 39
1, 466830, Note_on_c, 0, 45, 75
1, 466830, Note_off_c, 0, 57, 42
1, 466843, Note_on_c, 0, 33, 64
1, 466844, Note_off_c, 0, 55, 60
1, 466922, Note_on_c, 0, 71, 88
1, 466925, Note_on_c, 0, 67, 65
1, 466975, Control_c, 0, 64, 95
1, 466990, Control_c, 0, 64, 83
1, 467005, Control_c, 0, 64, 76
1, 467019, Control_c, 0, 64, 75
1, 467030, Note_off_c, 0, 61, 61
1, 467034, Control_c, 0, 64, 78
1, 467049, Control_c, 0, 64, 83
1, 467071, Control_c, 0, 64, 96
1, 467083, Note_off_c, 0, 67, 58
1, 467086, Control_c, 0, 64, 127
1, 467102, Note_off_c, 0, 71, 60
1, 467146, Note_off_c, 0, 45, 55
1, 467211, Note_on_c, 0, 69, 98
1, 467222, Note_on_c, 0, 66, 86
1, 467265, Note_off_c, 0, 33, 35
1, 467288, Note_off_c, 0, 66, 60
1, 467304, Note_off_c, 0, 69, 62
1, 467385, Note_on_c, 0, 67, 94
1, 467393, Note_on_c, 0, 64, 83
1, 467428, Note_off_c, 0, 64, 61
1, 467498, Note_off_c, 0, 67, 56
1, 467548, Note_on_c, 0, 38, 56
1, 467551, Note_on_c, 0, 26, 53
1, 467584, Note_on_c, 0, 71, 78
1, 467596, Note_on_c, 0, 62, 53
1, 467607, Note_on_c, 0, 67, 35
1, 467614, Note_on_c, 0, 57, 58
1, 467620, Control_c, 0, 64, 92
1, 467635, Control_c, 0, 64, 69
1, 467650, Control_c, 0, 64, 49
1, 467665, Control_c, 0, 64, 0
1, 467709, Control_c, 0, 64, 31
1, 467724, Control_c, 0, 64, 46
1, 467739, Control_c, 0, 64, 57
1, 467754, Control_c, 0, 64, 66
1, 467768, Control_c, 0, 64, 77
1, 467783, Control_c, 0, 64, 110
1, 467798, Note_off_c, 0, 26, 48
1, 467798, Control_c, 0, 64, 127
1, 467819, Note_off_c, 0, 67, 51
1, 467819, Note_off_c, 0, 71, 56
1, 467920, Note_off_c, 0, 38, 54
1, 467942, Note_off_c, 0, 62, 62
1, 467966, Note_on_c, 0, 69, 76
1, 467970, Note_on_c, 0, 66, 65
1, 467974, Note_off_c, 0, 57, 65
1, 468016, Note_off_c, 0, 69, 61
1, 468106, Note_on_c, 0, 54, 64
1, 468108, Note_off_c, 0, 66, 54
1, 468108, Note_on_c, 0, 59, 64
1, 468153, Note_off_c, 0, 54, 63
1, 468158, Note_on_c, 0, 43, 55
1, 468164, Note_on_c, 0, 31, 47
1, 468202, Note_on_c, 0, 66, 68
1, 468204, Note_off_c, 0, 59, 62
1, 468212, Note_on_c, 0, 69, 71
1, 468328, Note_off_c, 0, 69, 58
1, 468348, Note_off_c, 0, 66, 57
1, 468406, Note_off_c, 0, 43, 53
1, 468416, Note_on_c, 0, 67, 81
1, 468435, Note_on_c, 0, 64, 68
1, 468508, Note_off_c, 0, 64, 61
1, 468516, Note_off_c, 0, 67, 60
1, 468517, Note_off_c, 0, 31, 40
1, 468618, Note_on_c, 0, 66, 82
1, 468626, Note_on_c, 0, 62, 70
1, 468666, Note_off_c, 0, 62, 61
1, 468740, Note_off_c, 0, 66, 54
1, 468878, Note_on_c, 0, 37, 50
1, 468884, Note_on_c, 0, 25, 45
1, 468929, Note_on_c, 0, 69, 73
1, 468937, Note_on_c, 0, 59, 45
1, 468941, Note_on_c, 0, 66, 40
1, 468961, Note_on_c, 0, 55, 44
1, 469015, Control_c, 0, 64, 109
1, 469030, Control_c, 0, 64, 83
1, 469045, Control_c, 0, 64, 67
1, 469060, Control_c, 0, 64, 52
1, 469075, Control_c, 0, 64, 33
1, 469089, Control_c, 0, 64, 32
1, 469119, Control_c, 0, 64, 33
1, 469134, Control_c, 0, 64, 39
1, 469149, Control_c, 0, 64, 50
1, 469164, Control_c, 0, 64, 58
1, 469179, Control_c, 0, 64, 64
1, 469194, Control_c, 0, 64, 71
1, 469208, Control_c, 0, 64, 95
1, 469213, Note_off_c, 0, 55, 49
1, 469223, Control_c, 0, 64, 127
1, 469265, Note_off_c, 0, 66, 62
1, 469270, Note_off_c, 0, 69, 62
1, 469289, Note_off_c, 0, 59, 61
1, 469427, Note_on_c, 0, 67, 80
1, 469446, Note_on_c, 0, 58, 66
1, 469446, Note_on_c, 0, 64, 64
1, 469455, Note_on_c, 0, 55, 61
1, 469468, Control_c, 0, 64, 91
1, 469482, Control_c, 0, 64, 71
1, 469497, Control_c, 0, 64, 61
1, 469512, Control_c, 0, 64, 58
1, 469527, Control_c, 0, 64, 61
1, 469541, Control_c, 0, 64, 63
1, 469556, Control_c, 0, 64, 66
1, 469571, Control_c, 0, 64, 72
1, 469586, Control_c, 0, 64, 93
1, 469587, Note_off_c, 0, 64, 62
1, 469601, Control_c, 0, 64, 127
1, 469617, Note_off_c, 0, 67, 59
1, 469638, Note_off_c, 0, 55, 60
1, 469664, Note_off_c, 0, 58, 59
1, 469699, Note_off_c, 0, 25, 40
1, 469711, Note_off_c, 0, 37, 59
1, 469757, Note_on_c, 0, 66, 80
1, 469759, Note_on_c, 0, 38, 59
1, 469766, Note_on_c, 0, 62, 68
1, 469772, Note_on_c, 0, 26, 60
1, 469772, Note_on_c, 0, 59, 71
1, 469780, Note_on_c, 0, 54, 73
1, 469809, Control_c, 0, 64, 81
1, 469824, Control_c, 0, 64, 62
1, 469838, Control_c, 0, 64, 33
1, 469853, Control_c, 0, 64, 22
1, 469868, Control_c, 0, 64, 32
1, 469883, Control_c, 0, 64, 44
1, 469898, Control_c, 0, 64, 53
1, 469912, Control_c, 0, 64, 60
1, 469927, Control_c, 0, 64, 68
1, 469942, Control_c, 0, 64, 88
1, 469951, Note_off_c, 0, 66, 62
1, 469957, Control_c, 0, 64, 127
1, 469970, Note_off_c, 0, 26, 49
1, 469970, Note_off_c, 0, 38, 60
1, 469992, Note_off_c, 0, 54, 63
1, 470002, Note_off_c, 0, 62, 61
1, 470099, Note_on_c, 0, 64, 81
1, 470105, Note_on_c, 0, 61, 71
1, 470110, Note_on_c, 0, 40, 62
1, 470112, Note_on_c, 0, 55, 70
1, 470120, Note_on_c, 0, 28, 57
1, 470133, Note_off_c, 0, 59, 61
1, 470142, Control_c, 0, 64, 79
1, 470157, Control_c, 0, 64, 60
1, 470171, Control_c, 0, 64, 0
1, 470244, Control_c, 0, 64, 26
1, 470259, Control_c, 0, 64, 45
1, 470274, Control_c, 0, 64, 58
1, 470288, Control_c, 0, 64, 65
1, 470303, Control_c, 0, 64, 71
1, 470318, Control_c, 0, 64, 83
1, 470333, Control_c, 0, 64, 100
1, 470348, Control_c, 0, 64, 127
1, 470374, Note_off_c, 0, 40, 49
1, 470389, Note_off_c, 0, 28, 31
1, 470419, Note_off_c, 0, 61, 61
1, 470473, Note_off_c, 0, 64, 38
1, 470598, Note_on_c, 0, 41, 50
1, 470601, Control_c, 0, 64, 105
1, 470612, Note_on_c, 0, 62, 64
1, 470616, Control_c, 0, 64, 100
1, 470619, Note_on_c, 0, 29, 47
1, 470620, Note_on_c, 0, 59, 55
1, 470631, Control_c, 0, 64, 96
1, 470633, Note_on_c, 0, 56, 51
1, 470645, Control_c, 0, 64, 92
1, 470660, Control_c, 0, 64, 87
1, 470675, Control_c, 0, 64, 81
1, 470690, Control_c, 0, 64, 74
1, 470705, Control_c, 0, 64, 69
1, 470720, Control_c, 0, 64, 64
1, 470734, Control_c, 0, 64, 58
1, 470749, Control_c, 0, 64, 46
1, 470750, Note_off_c, 0, 55, 39
1, 470764, Control_c, 0, 64, 32
1, 470778, Control_c, 0, 64, 24
1, 470793, Control_c, 0, 64, 20
1, 470830, Control_c, 0, 64, 21
1, 470845, Control_c, 0, 64, 29
1, 470860, Control_c, 0, 64, 39
1, 470875, Control_c, 0, 64, 48
1, 470890, Control_c, 0, 64, 56
1, 470905, Control_c, 0, 64, 61
1, 470919, Control_c, 0, 64, 64
1, 470934, Control_c, 0, 64, 67
1, 470949, Control_c, 0, 64, 72
1, 470953, Note_off_c, 0, 59, 56
1, 470961, Note_off_c, 0, 62, 59
1, 470964, Control_c, 0, 64, 79
1, 470979, Control_c, 0, 64, 91
1, 470990, Note_off_c, 0, 41, 50
1, 470991, Note_off_c, 0, 29, 39
1, 470993, Control_c, 0, 64, 107
1, 471008, Control_c, 0, 64, 127
1, 471066, Note_off_c, 0, 56, 62
1, 471427, Note_on_c, 0, 61, 57
1, 471437, Note_on_c, 0, 53, 53
1, 471447, Note_on_c, 0, 44, 40
1, 471457, Note_on_c, 0, 32, 39
1, 471462, Note_on_c, 0, 49, 40
1, 471506, Note_off_c, 0, 44, 58
1, 471506, Note_off_c, 0, 53, 59
1, 471508, Note_off_c, 0, 32, 58
1, 471510, Note_off_c, 0, 49, 57
1, 471632, Note_on_c, 0, 58, 66
1, 471653, Note_on_c, 0, 42, 49
1, 471653, Control_c, 0, 64, 122
1, 471660, Note_on_c, 0, 52, 54
1, 471661, Note_on_c, 0, 30, 39
1, 471668, Control_c, 0, 64, 102
1, 471675, Note_on_c, 0, 49, 33
1, 471683, Control_c, 0, 64, 87
1, 471694, Note_off_c, 0, 61, 59
1, 471698, Control_c, 0, 64, 72
1, 471713, Control_c, 0, 64, 56
1, 471727, Control_c, 0, 64, 24
1, 471742, Control_c, 0, 64, 12
1, 471787, Control_c, 0, 64, 15
1, 471802, Control_c, 0, 64, 28
1, 471816, Control_c, 0, 64, 42
1, 471831, Control_c, 0, 64, 52
1, 471846, Control_c, 0, 64, 60
1, 471861, Control_c, 0, 64, 65
1, 471876, Control_c, 0, 64, 69
1, 471890, Control_c, 0, 64, 75
1, 471901, Note_off_c, 0, 52, 36
1, 471905, Control_c, 0, 64, 82
1, 471915, Note_off_c, 0, 30, 43
1, 471920, Control_c, 0, 64, 86
1, 471934, Control_c, 0, 64, 87
1, 471949, Control_c, 0, 64, 85
1, 471953, Note_off_c, 0, 42, 34
1, 471954, Note_off_c, 0, 49, 27
1, 471959, Note_off_c, 0, 58, 35
1, 471964, Control_c, 0, 64, 84
1, 471979, Control_c, 0, 64, 83
1, 472008, Control_c, 0, 64, 82
1, 472023, Control_c, 0, 64, 80
1, 472038, Control_c, 0, 64, 79
1, 472054, Control_c, 0, 64, 77
1, 472069, Control_c, 0, 64, 75
1, 472084, Control_c, 0, 64, 74
1, 472098, Control_c, 0, 64, 73
1, 472113, Control_c, 0, 64, 72
1, 472128, Control_c, 0, 64, 71
1, 472143, Control_c, 0, 64, 70
1, 472157, Control_c, 0, 64, 69
1, 472172, Control_c, 0, 64, 68
1, 472187, Control_c, 0, 64, 67
1, 472202, Control_c, 0, 64, 66
1, 472217, Control_c, 0, 64, 65
1, 472231, Control_c, 0, 64, 65
1, 472246, Control_c, 0, 64, 64
1, 472261, Control_c, 0, 64, 63
1, 472276, Control_c, 0, 64, 62
1, 472291, Control_c, 0, 64, 62
1, 472328, Control_c, 0, 64, 61
1, 472343, Control_c, 0, 64, 61
1, 472357, Control_c, 0, 64, 60
1, 472372, Control_c, 0, 64, 60
1, 472387, Control_c, 0, 64, 59
1, 472402, Control_c, 0, 64, 58
1, 472417, Control_c, 0, 64, 57
1, 472431, Control_c, 0, 64, 57
1, 472446, Control_c, 0, 64, 56
1, 472461, Control_c, 0, 64, 55
1, 472462, Note_on_c, 0, 35, 30
1, 472462, Note_on_c, 0, 59, 42
1, 472476, Control_c, 0, 64, 54
1, 472479, Note_on_c, 0, 42, 33
1, 472485, Note_on_c, 0, 50, 33
1, 472491, Control_c, 0, 64, 51
1, 472505, Control_c, 0, 64, 49
1, 472520, Control_c, 0, 64, 46
1, 472535, Control_c, 0, 64, 46
1, 472595, Control_c, 0, 64, 46
1, 472610, Control_c, 0, 64, 48
1, 472625, Control_c, 0, 64, 50
1, 472639, Control_c, 0, 64, 52
1, 472654, Control_c, 0, 64, 54
1, 472669, Control_c, 0, 64, 55
1, 472684, Control_c, 0, 64, 57
1, 472699, Control_c, 0, 64, 59
1, 472713, Control_c, 0, 64, 60
1, 472728, Control_c, 0, 64, 62
1, 472743, Control_c, 0, 64, 63
1, 472757, Control_c, 0, 64, 64
1, 472772, Control_c, 0, 64, 66
1, 472787, Control_c, 0, 64, 68
1, 472802, Control_c, 0, 64, 71
1, 472817, Control_c, 0, 64, 74
1, 472831, Control_c, 0, 64, 78
1, 472846, Control_c, 0, 64, 81
1, 472862, Control_c, 0, 64, 84
1, 472877, Control_c, 0, 64, 88
1, 472892, Control_c, 0, 64, 91
1, 472907, Control_c, 0, 64, 92
1, 472945, Note_off_c, 0, 50, 30
1, 472951, Control_c, 0, 64, 91
1, 472966, Control_c, 0, 64, 90
1, 472980, Control_c, 0, 64, 89
1, 472995, Control_c, 0, 64, 87
1, 473009, Note_off_c, 0, 59, 35
1, 473010, Control_c, 0, 64, 86
1, 473025, Note_off_c, 0, 42, 35
1, 473025, Control_c, 0, 64, 84
1, 473040, Control_c, 0, 64, 84
1, 473062, Control_c, 0, 64, 83
1, 473077, Control_c, 0, 64, 82
1, 473084, Note_off_c, 0, 35, 30
1, 473092, Control_c, 0, 64, 81
1, 473107, Control_c, 0, 64, 80
1, 473122, Control_c, 0, 64, 80
1, 473136, Control_c, 0, 64, 79
1, 473151, Control_c, 0, 64, 78
1, 473166, Control_c, 0, 64, 78
1, 473180, Control_c, 0, 64, 77
1, 473195, Control_c, 0, 64, 76
1, 473210, Control_c, 0, 64, 75
1, 473225, Control_c, 0, 64, 75
1, 473240, Control_c, 0, 64, 74
1, 473254, Control_c, 0, 64, 74
1, 473269, Control_c, 0, 64, 73
1, 473284, Control_c, 0, 64, 73
1, 473299, Control_c, 0, 64, 72
1, 473314, Control_c, 0, 64, 72
1, 473328, Control_c, 0, 64, 71
1, 473343, Control_c, 0, 64, 71
1, 473358, Control_c, 0, 64, 70
1, 473373, Control_c, 0, 64, 69
1, 473388, Control_c, 0, 64, 69
1, 473403, Control_c, 0, 64, 68
1, 473418, Control_c, 0, 64, 67
1, 473433, Control_c, 0, 64, 67
1, 473447, Control_c, 0, 64, 66
1, 473477, Control_c, 0, 64, 66
1, 473492, Control_c, 0, 64, 65
1, 473521, Control_c, 0, 64, 65
1, 473551, Control_c, 0, 64, 64
1, 473580, Control_c, 0, 64, 64
1, 473610, Control_c, 0, 64, 63
1, 473656, Control_c, 0, 64, 63
1, 473685, Control_c, 0, 64, 62
1, 473730, Control_c, 0, 64, 62
1, 473774, Control_c, 0, 64, 61
1, 473826, Control_c, 0, 64, 61
1, 473856, Control_c, 0, 64, 60
1, 473885, Control_c, 0, 64, 60
1, 473915, Control_c, 0, 64, 59
1, 473930, Control_c, 0, 64, 59
1, 473945, Control_c, 0, 64, 58
1, 473959, Control_c, 0, 64, 58
1, 473974, Control_c, 0, 64, 57
1, 473989, Control_c, 0, 64, 57
1, 474003, Control_c, 0, 64, 56
1, 474107, Control_c, 0, 64, 57
1, 474121, Control_c, 0, 64, 57
1, 474136, Control_c, 0, 64, 58
1, 474151, Control_c, 0, 64, 58
1, 474166, Control_c, 0, 64, 59
1, 474181, Control_c, 0, 64, 60
1, 474196, Control_c, 0, 64, 60
1, 474211, Control_c, 0, 64, 61
1, 474225, Control_c, 0, 64, 62
1, 474240, Control_c, 0, 64, 63
1, 474255, Control_c, 0, 64, 64
1, 474270, Control_c, 0, 64, 66
1, 474285, Control_c, 0, 64, 68
1, 474300, Control_c, 0, 64, 70
1, 474315, Control_c, 0, 64, 73
1, 474329, Control_c, 0, 64, 78
1, 474344, Control_c, 0, 64, 84
1, 474359, Control_c, 0, 64, 94
1, 474374, Control_c, 0, 64, 114
1, 474389, Control_c, 0, 64, 127
1, 474592, Note_on_c, 0, 42, 48
1, 474598, Note_on_c, 0, 61, 79
1, 474602, Note_on_c, 0, 30, 47
1, 474609, Note_on_c, 0, 58, 59
1, 474623, Note_on_c, 0, 49, 59
1, 474923, Note_off_c, 0, 49, 57
1, 474945, Note_off_c, 0, 58, 60
1, 475050, Note_off_c, 0, 42, 57
1, 475133, Note_on_c, 0, 59, 85
1, 475142, Note_on_c, 0, 56, 80
1, 475170, Note_off_c, 0, 61, 60
1, 475321, Note_on_c, 0, 35, 63
1, 475334, Note_on_c, 0, 42, 57
1, 475344, Note_on_c, 0, 61, 91
1, 475345, Note_on_c, 0, 58, 77
1, 475372, Note_on_c, 0, 50, 66
1, 475384, Note_off_c, 0, 56, 62
1, 475397, Note_off_c, 0, 59, 56
1, 475486, Control_c, 0, 64, 116
1, 475501, Control_c, 0, 64, 95
1, 475516, Control_c, 0, 64, 80
1, 475530, Note_off_c, 0, 30, 42
1, 475531, Control_c, 0, 64, 67
1, 475546, Control_c, 0, 64, 57
1, 475561, Control_c, 0, 64, 42
1, 475575, Control_c, 0, 64, 33
1, 475590, Control_c, 0, 64, 25
1, 475605, Control_c, 0, 64, 14
1, 475620, Control_c, 0, 64, 0
1, 475649, Control_c, 0, 64, 11
1, 475664, Control_c, 0, 64, 24
1, 475679, Control_c, 0, 64, 38
1, 475694, Control_c, 0, 64, 48
1, 475709, Control_c, 0, 64, 54
1, 475723, Control_c, 0, 64, 60
1, 475738, Control_c, 0, 64, 65
1, 475753, Control_c, 0, 64, 71
1, 475768, Control_c, 0, 64, 86
1, 475782, Control_c, 0, 64, 127
1, 475897, Note_off_c, 0, 61, 59
1, 476068, Note_on_c, 0, 62, 69
1, 476089, Note_on_c, 0, 59, 63
1, 476147, Control_c, 0, 64, 107
1, 476161, Control_c, 0, 64, 94
1, 476175, Note_off_c, 0, 58, 51
1, 476176, Control_c, 0, 64, 87
1, 476191, Control_c, 0, 64, 83
1, 476205, Control_c, 0, 64, 80
1, 476220, Control_c, 0, 64, 75
1, 476236, Control_c, 0, 64, 67
1, 476251, Control_c, 0, 64, 60
1, 476266, Control_c, 0, 64, 48
1, 476280, Control_c, 0, 64, 43
1, 476295, Control_c, 0, 64, 42
1, 476310, Control_c, 0, 64, 41
1, 476340, Control_c, 0, 64, 42
1, 476354, Control_c, 0, 64, 45
1, 476369, Control_c, 0, 64, 52
1, 476384, Control_c, 0, 64, 56
1, 476399, Control_c, 0, 64, 59
1, 476413, Control_c, 0, 64, 61
1, 476428, Control_c, 0, 64, 64
1, 476443, Control_c, 0, 64, 67
1, 476458, Control_c, 0, 64, 73
1, 476473, Control_c, 0, 64, 86
1, 476488, Control_c, 0, 64, 107
1, 476503, Control_c, 0, 64, 127
1, 476780, Note_off_c, 0, 59, 32
1, 476786, Note_off_c, 0, 42, 32
1, 476843, Note_off_c, 0, 35, 29
1, 476847, Note_off_c, 0, 50, 38
1, 476881, Control_c, 0, 64, 119
1, 476896, Control_c, 0, 64, 111
1, 476911, Control_c, 0, 64, 106
1, 476926, Control_c, 0, 64, 103
1, 476941, Control_c, 0, 64, 100
1, 476947, Note_off_c, 0, 62, 45
1, 476956, Control_c, 0, 64, 98
1, 476971, Control_c, 0, 64, 96
1, 476984, Control_c, 0, 64, 93
1, 476999, Control_c, 0, 64, 91
1, 477014, Control_c, 0, 64, 88
1, 477028, Control_c, 0, 64, 84
1, 477043, Control_c, 0, 64, 82
1, 477058, Control_c, 0, 64, 79
1, 477073, Control_c, 0, 64, 78
1, 477088, Control_c, 0, 64, 76
1, 477102, Control_c, 0, 64, 74
1, 477117, Control_c, 0, 64, 71
1, 477132, Control_c, 0, 64, 68
1, 477147, Control_c, 0, 64, 66
1, 477162, Control_c, 0, 64, 64
1, 477177, Control_c, 0, 64, 62
1, 477191, Control_c, 0, 64, 58
1, 477206, Control_c, 0, 64, 48
1, 477221, Control_c, 0, 64, 35
1, 477236, Control_c, 0, 64, 29
1, 477281, Control_c, 0, 64, 30
1, 477295, Control_c, 0, 64, 31
1, 477310, Control_c, 0, 64, 33
1, 477325, Control_c, 0, 64, 35
1, 477340, Control_c, 0, 64, 38
1, 477344, Note_on_c, 0, 61, 80
1, 477353, Note_on_c, 0, 58, 66
1, 477354, Control_c, 0, 64, 44
1, 477369, Control_c, 0, 64, 50
1, 477384, Control_c, 0, 64, 55
1, 477399, Control_c, 0, 64, 61
1, 477414, Control_c, 0, 64, 67
1, 477428, Control_c, 0, 64, 77
1, 477443, Control_c, 0, 64, 104
1, 477458, Control_c, 0, 64, 127
1, 477603, Note_on_c, 0, 42, 70
1, 477609, Note_on_c, 0, 30, 66
1, 477609, Note_off_c, 0, 58, 62
1, 477652, Note_on_c, 0, 59, 83
1, 477673, Note_on_c, 0, 49, 67
1, 477675, Note_on_c, 0, 56, 72
1, 477738, Note_off_c, 0, 61, 57
1, 477779, Note_off_c, 0, 49, 57
1, 477800, Note_off_c, 0, 56, 61
1, 477851, Note_off_c, 0, 59, 62
1, 477904, Note_on_c, 0, 58, 88
1, 477915, Note_on_c, 0, 54, 81
1, 477993, Note_off_c, 0, 54, 62
1, 478002, Note_off_c, 0, 42, 59
1, 478016, Note_off_c, 0, 58, 63
1, 478074, Note_on_c, 0, 59, 82
1, 478085, Note_on_c, 0, 56, 78
1, 478256, Note_on_c, 0, 35, 63
1, 478263, Note_on_c, 0, 42, 59
1, 478306, Note_on_c, 0, 61, 86
1, 478314, Note_on_c, 0, 58, 75
1, 478330, Note_off_c, 0, 56, 62
1, 478330, Note_on_c, 0, 50, 69
1, 478357, Note_off_c, 0, 59, 60
1, 478363, Note_off_c, 0, 30, 36
1, 478377, Control_c, 0, 64, 104
1, 478392, Control_c, 0, 64, 93
1, 478407, Control_c, 0, 64, 87
1, 478422, Control_c, 0, 64, 81
1, 478437, Control_c, 0, 64, 75
1, 478452, Control_c, 0, 64, 68
1, 478467, Control_c, 0, 64, 61
1, 478482, Control_c, 0, 64, 48
1, 478497, Control_c, 0, 64, 36
1, 478512, Control_c, 0, 64, 31
1, 478527, Control_c, 0, 64, 27
1, 478556, Control_c, 0, 64, 27
1, 478571, Control_c, 0, 64, 33
1, 478586, Control_c, 0, 64, 42
1, 478600, Control_c, 0, 64, 49
1, 478615, Control_c, 0, 64, 56
1, 478630, Control_c, 0, 64, 61
1, 478645, Control_c, 0, 64, 65
1, 478660, Control_c, 0, 64, 71
1, 478674, Control_c, 0, 64, 83
1, 478689, Control_c, 0, 64, 106
1, 478704, Control_c, 0, 64, 127
1, 478789, Note_off_c, 0, 61, 57
1, 478995, Note_on_c, 0, 62, 74
1, 479004, Note_on_c, 0, 59, 64
1, 479052, Control_c, 0, 64, 125
1, 479067, Control_c, 0, 64, 106
1, 479081, Control_c, 0, 64, 97
1, 479096, Control_c, 0, 64, 92
1, 479111, Control_c, 0, 64, 86
1, 479126, Control_c, 0, 64, 79
1, 479135, Note_off_c, 0, 58, 45
1, 479141, Control_c, 0, 64, 71
1, 479156, Control_c, 0, 64, 64
1, 479171, Control_c, 0, 64, 52
1, 479186, Control_c, 0, 64, 37
1, 479200, Control_c, 0, 64, 24
1, 479215, Control_c, 0, 64, 0
1, 479305, Control_c, 0, 64, 23
1, 479320, Control_c, 0, 64, 35
1, 479335, Control_c, 0, 64, 43
1, 479350, Control_c, 0, 64, 49
1, 479365, Control_c, 0, 64, 53
1, 479379, Control_c, 0, 64, 57
1, 479394, Control_c, 0, 64, 60
1, 479409, Control_c, 0, 64, 62
1, 479423, Control_c, 0, 64, 65
1, 479427, Note_off_c, 0, 35, 38
1, 479438, Control_c, 0, 64, 68
1, 479453, Control_c, 0, 64, 73
1, 479468, Control_c, 0, 64, 79
1, 479475, Note_off_c, 0, 42, 49
1, 479483, Control_c, 0, 64, 86
1, 479497, Control_c, 0, 64, 93
1, 479512, Control_c, 0, 64, 99
1, 479527, Control_c, 0, 64, 101
1, 479571, Control_c, 0, 64, 101
1, 479586, Control_c, 0, 64, 100
1, 479601, Control_c, 0, 64, 99
1, 479615, Control_c, 0, 64, 98
1, 479630, Control_c, 0, 64, 97
1, 479640, Note_off_c, 0, 59, 23
1, 479645, Note_off_c, 0, 50, 31
1, 479645, Control_c, 0, 64, 96
1, 479672, Note_off_c, 0, 62, 38
1, 479675, Control_c, 0, 64, 95
1, 479689, Control_c, 0, 64, 95
1, 479704, Control_c, 0, 64, 94
1, 479719, Control_c, 0, 64, 92
1, 479734, Control_c, 0, 64, 90
1, 479749, Control_c, 0, 64, 89
1, 479764, Control_c, 0, 64, 87
1, 479779, Control_c, 0, 64, 85
1, 479801, Control_c, 0, 64, 84
1, 479816, Control_c, 0, 64, 82
1, 479830, Control_c, 0, 64, 79
1, 479830, Control_c, 0, 67, 11
1, 479845, Control_c, 0, 64, 77
1, 479845, Control_c, 0, 67, 29
1, 479860, Control_c, 0, 64, 76
1, 479860, Control_c, 0, 67, 51
1, 479875, Control_c, 0, 64, 75
1, 479875, Control_c, 0, 67, 67
1, 479890, Control_c, 0, 64, 74
1, 479890, Control_c, 0, 67, 84
1, 479904, Control_c, 0, 64, 74
1, 479904, Control_c, 0, 67, 102
1, 479919, Control_c, 0, 64, 72
1, 479919, Control_c, 0, 67, 119
1, 479934, Control_c, 0, 64, 71
1, 479934, Control_c, 0, 67, 127
1, 479949, Control_c, 0, 64, 70
1, 479964, Control_c, 0, 64, 69
1, 479979, Control_c, 0, 64, 69
1, 479994, Control_c, 0, 64, 68
1, 480009, Control_c, 0, 64, 67
1, 480038, Control_c, 0, 64, 66
1, 480069, Control_c, 0, 64, 66
1, 480084, Control_c, 0, 64, 65
1, 480099, Control_c, 0, 64, 65
1, 480114, Control_c, 0, 64, 64
1, 480143, Control_c, 0, 64, 64
1, 480173, Control_c, 0, 64, 63
1, 480188, Control_c, 0, 64, 63
1, 480202, Control_c, 0, 64, 62
1, 480247, Control_c, 0, 64, 62
1, 480277, Control_c, 0, 64, 61
1, 480307, Control_c, 0, 64, 61
1, 480336, Control_c, 0, 64, 60
1, 480351, Control_c, 0, 64, 60
1, 480381, Control_c, 0, 64, 59
1, 480395, Control_c, 0, 64, 58
1, 480410, Control_c, 0, 64, 57
1, 480425, Control_c, 0, 64, 56
1, 480439, Control_c, 0, 64, 54
1, 480499, Control_c, 0, 64, 55
1, 480513, Control_c, 0, 64, 56
1, 480528, Control_c, 0, 64, 57
1, 480551, Control_c, 0, 64, 58
1, 480566, Control_c, 0, 64, 59
1, 480580, Control_c, 0, 64, 60
1, 480595, Control_c, 0, 64, 61
1, 480610, Control_c, 0, 64, 62
1, 480625, Control_c, 0, 64, 63
1, 480640, Control_c, 0, 64, 64
1, 480654, Control_c, 0, 64, 65
1, 480669, Control_c, 0, 64, 66
1, 480684, Control_c, 0, 64, 68
1, 480699, Control_c, 0, 64, 69
1, 480706, Note_on_c, 0, 59, 36
1, 480709, Note_on_c, 0, 40, 28
1, 480714, Control_c, 0, 64, 72
1, 480727, Control_c, 0, 64, 76
1, 480731, Note_on_c, 0, 56, 24
1, 480732, Note_on_c, 0, 52, 31
1, 480742, Control_c, 0, 64, 80
1, 480757, Control_c, 0, 64, 84
1, 480771, Control_c, 0, 64, 87
1, 480786, Control_c, 0, 64, 91
1, 480801, Control_c, 0, 64, 96
1, 480816, Control_c, 0, 64, 102
1, 480831, Control_c, 0, 64, 115
1, 480846, Control_c, 0, 64, 127
1, 481046, Note_off_c, 0, 56, 39
1, 481261, Note_on_c, 0, 61, 52
1, 481278, Note_on_c, 0, 57, 41
1, 481356, Note_off_c, 0, 59, 32
1, 481425, Note_off_c, 0, 52, 43
1, 481547, Note_on_c, 0, 33, 30
1, 481550, Control_c, 0, 64, 119
1, 481553, Note_on_c, 0, 45, 30
1, 481564, Control_c, 0, 64, 110
1, 481579, Control_c, 0, 64, 104
1, 481594, Control_c, 0, 64, 95
1, 481602, Note_on_c, 0, 62, 47
1, 481603, Note_on_c, 0, 59, 43
1, 481609, Control_c, 0, 64, 89
1, 481610, Note_on_c, 0, 52, 30
1, 481624, Control_c, 0, 64, 85
1, 481639, Control_c, 0, 64, 81
1, 481648, Note_off_c, 0, 57, 33
1, 481654, Control_c, 0, 64, 77
1, 481669, Control_c, 0, 64, 71
1, 481684, Control_c, 0, 64, 65
1, 481696, Note_off_c, 0, 40, 40
1, 481696, Note_off_c, 0, 61, 29
1, 481699, Control_c, 0, 64, 60
1, 481714, Control_c, 0, 64, 59
1, 481728, Control_c, 0, 64, 60
1, 481743, Control_c, 0, 64, 60
1, 481758, Control_c, 0, 64, 61
1, 481773, Control_c, 0, 64, 63
1, 481788, Control_c, 0, 64, 64
1, 481803, Control_c, 0, 64, 66
1, 481817, Control_c, 0, 64, 70
1, 481832, Control_c, 0, 64, 76
1, 481847, Control_c, 0, 64, 85
1, 481862, Control_c, 0, 64, 96
1, 481877, Control_c, 0, 64, 112
1, 481883, Note_on_c, 0, 61, 65
1, 481891, Control_c, 0, 64, 127
1, 481897, Note_on_c, 0, 57, 55
1, 481910, Note_off_c, 0, 59, 38
1, 481929, Note_off_c, 0, 62, 38
1, 481994, Note_off_c, 0, 61, 59
1, 482062, Note_on_c, 0, 62, 69
1, 482068, Note_on_c, 0, 59, 59
1, 482134, Note_off_c, 0, 59, 62
1, 482152, Note_off_c, 0, 62, 60
1, 482221, Note_off_c, 0, 57, 20
1, 482261, Note_on_c, 0, 64, 66
1, 482269, Control_c, 0, 64, 102
1, 482274, Note_on_c, 0, 61, 56
1, 482284, Control_c, 0, 64, 85
1, 482298, Control_c, 0, 64, 71
1, 482313, Control_c, 0, 64, 60
1, 482328, Control_c, 0, 64, 43
1, 482343, Control_c, 0, 64, 45
1, 482358, Control_c, 0, 64, 50
1, 482372, Control_c, 0, 64, 55
1, 482387, Control_c, 0, 64, 60
1, 482402, Control_c, 0, 64, 65
1, 482417, Control_c, 0, 64, 71
1, 482424, Note_off_c, 0, 52, 55
1, 482432, Control_c, 0, 64, 84
1, 482435, Note_off_c, 0, 61, 61
1, 482447, Control_c, 0, 64, 105
1, 482462, Note_off_c, 0, 45, 41
1, 482462, Note_off_c, 0, 64, 60
1, 482462, Control_c, 0, 64, 127
1, 482569, Note_on_c, 0, 38, 42
1, 482582, Note_on_c, 0, 62, 66
1, 482584, Note_on_c, 0, 59, 52
1, 482594, Note_on_c, 0, 53, 60
1, 482596, Control_c, 0, 64, 116
1, 482598, Note_on_c, 0, 45, 39
1, 482611, Control_c, 0, 64, 95
1, 482626, Control_c, 0, 64, 80
1, 482640, Control_c, 0, 64, 68
1, 482655, Control_c, 0, 64, 56
1, 482670, Control_c, 0, 64, 35
1, 482672, Note_off_c, 0, 33, 38
1, 482685, Control_c, 0, 64, 31
1, 482700, Control_c, 0, 64, 32
1, 482714, Control_c, 0, 64, 36
1, 482729, Control_c, 0, 64, 43
1, 482744, Control_c, 0, 64, 50
1, 482759, Control_c, 0, 64, 58
1, 482774, Control_c, 0, 64, 64
1, 482796, Control_c, 0, 64, 70
1, 482801, Note_off_c, 0, 45, 53
1, 482810, Control_c, 0, 64, 78
1, 482825, Control_c, 0, 64, 87
1, 482840, Control_c, 0, 64, 96
1, 482842, Note_off_c, 0, 53, 56
1, 482855, Control_c, 0, 64, 99
1, 482885, Control_c, 0, 64, 98
1, 482914, Control_c, 0, 64, 98
1, 482929, Control_c, 0, 64, 97
1, 482944, Control_c, 0, 64, 96
1, 482959, Control_c, 0, 64, 94
1, 482973, Control_c, 0, 64, 93
1, 482987, Control_c, 0, 64, 91
1, 483002, Control_c, 0, 64, 87
1, 483010, Note_on_c, 0, 45, 27
1, 483012, Note_on_c, 0, 61, 53
1, 483017, Control_c, 0, 64, 84
1, 483020, Note_on_c, 0, 57, 41
1, 483025, Note_on_c, 0, 33, 30
1, 483032, Control_c, 0, 64, 82
1, 483038, Note_on_c, 0, 52, 35
1, 483046, Control_c, 0, 64, 80
1, 483061, Control_c, 0, 64, 77
1, 483070, Note_off_c, 0, 59, 30
1, 483076, Control_c, 0, 64, 71
1, 483091, Control_c, 0, 64, 67
1, 483098, Note_off_c, 0, 38, 30
1, 483106, Control_c, 0, 64, 62
1, 483114, Note_off_c, 0, 62, 30
1, 483120, Control_c, 0, 64, 57
1, 483135, Control_c, 0, 64, 51
1, 483150, Control_c, 0, 64, 44
1, 483165, Control_c, 0, 64, 37
1, 483180, Control_c, 0, 64, 35
1, 483210, Control_c, 0, 64, 36
1, 483225, Control_c, 0, 64, 39
1, 483240, Control_c, 0, 64, 44
1, 483255, Control_c, 0, 64, 50
1, 483270, Control_c, 0, 64, 54
1, 483284, Control_c, 0, 64, 58
1, 483299, Control_c, 0, 64, 61
1, 483300, Note_off_c, 0, 57, 55
1, 483314, Control_c, 0, 64, 63
1, 483314, Control_c, 0, 67, 122
1, 483329, Control_c, 0, 64, 66
1, 483329, Control_c, 0, 67, 112
1, 483342, Note_off_c, 0, 52, 44
1, 483344, Control_c, 0, 64, 68
1, 483344, Control_c, 0, 67, 101
1, 483359, Control_c, 0, 64, 72
1, 483359, Control_c, 0, 67, 92
1, 483374, Control_c, 0, 64, 75
1, 483374, Control_c, 0, 67, 85
1, 483389, Control_c, 0, 64, 80
1, 483389, Control_c, 0, 67, 79
1, 483402, Note_off_c, 0, 61, 55
1, 483404, Control_c, 0, 64, 84
1, 483404, Control_c, 0, 67, 73
1, 483418, Control_c, 0, 64, 87
1, 483418, Control_c, 0, 67, 65
1, 483433, Control_c, 0, 64, 89
1, 483433, Control_c, 0, 67, 57
1, 483442, Note_off_c, 0, 33, 36
1, 483448, Control_c, 0, 64, 92
1, 483448, Control_c, 0, 67, 48
1, 483462, Control_c, 0, 64, 95
1, 483462, Control_c, 0, 67, 39
1, 483477, Control_c, 0, 64, 98
1, 483477, Control_c, 0, 67, 27
1, 483492, Control_c, 0, 64, 99
1, 483492, Control_c, 0, 67, 15
1, 483507, Control_c, 0, 67, 0
1, 483547, Note_off_c, 0, 45, 30
1, 483603, Control_c, 0, 64, 98
1, 483633, Control_c, 0, 64, 98
1, 483648, Control_c, 0, 64, 97
1, 483662, Control_c, 0, 64, 96
1, 483677, Control_c, 0, 64, 95
1, 483692, Control_c, 0, 64, 94
1, 483707, Control_c, 0, 64, 92
1, 483711, Note_on_c, 0, 62, 84
1, 483723, Control_c, 0, 64, 90
1, 483737, Note_on_c, 0, 59, 66
1, 483737, Control_c, 0, 64, 86
1, 483752, Control_c, 0, 64, 82
1, 483767, Control_c, 0, 64, 78
1, 483782, Control_c, 0, 64, 75
1, 483796, Control_c, 0, 64, 71
1, 483811, Control_c, 0, 64, 68
1, 483826, Control_c, 0, 64, 65
1, 483841, Control_c, 0, 64, 63
1, 483856, Control_c, 0, 64, 61
1, 483870, Control_c, 0, 64, 60
1, 483885, Control_c, 0, 64, 58
1, 483900, Control_c, 0, 64, 55
1, 483915, Control_c, 0, 64, 49
1, 483930, Control_c, 0, 64, 41
1, 483944, Control_c, 0, 64, 33
1, 483959, Control_c, 0, 64, 29
1, 484003, Control_c, 0, 64, 34
1, 484018, Control_c, 0, 64, 40
1, 484034, Control_c, 0, 64, 46
1, 484049, Control_c, 0, 64, 50
1, 484064, Control_c, 0, 64, 53
1, 484079, Control_c, 0, 64, 57
1, 484093, Control_c, 0, 64, 61
1, 484108, Control_c, 0, 64, 64
1, 484123, Control_c, 0, 64, 68
1, 484138, Control_c, 0, 64, 73
1, 484153, Control_c, 0, 64, 82
1, 484167, Control_c, 0, 64, 94
1, 484182, Control_c, 0, 64, 127
1, 484372, Note_on_c, 0, 64, 91
1, 484381, Note_on_c, 0, 61, 73
1, 484413, Note_off_c, 0, 62, 59
1, 484442, Note_off_c, 0, 59, 59
1, 484516, Note_off_c, 0, 61, 60
1, 484537, Note_off_c, 0, 64, 59
1, 484619, Note_on_c, 0, 45, 48
1, 484620, Note_on_c, 0, 38, 55
1, 484636, Note_on_c, 0, 64, 89
1, 484652, Note_on_c, 0, 61, 75
1, 484653, Note_on_c, 0, 53, 76
1, 484767, Control_c, 0, 64, 104
1, 484782, Control_c, 0, 64, 92
1, 484797, Control_c, 0, 64, 83
1, 484811, Control_c, 0, 64, 75
1, 484826, Control_c, 0, 64, 68
1, 484843, Control_c, 0, 64, 60
1, 484857, Control_c, 0, 64, 51
1, 484872, Control_c, 0, 64, 46
1, 484887, Control_c, 0, 64, 43
1, 484902, Control_c, 0, 64, 41
1, 484931, Control_c, 0, 64, 43
1, 484946, Control_c, 0, 64, 46
1, 484961, Control_c, 0, 64, 51
1, 484976, Control_c, 0, 64, 54
1, 484990, Control_c, 0, 64, 58
1, 485005, Control_c, 0, 64, 61
1, 485020, Control_c, 0, 64, 65
1, 485042, Control_c, 0, 64, 69
1, 485057, Control_c, 0, 64, 76
1, 485072, Control_c, 0, 64, 89
1, 485087, Control_c, 0, 64, 127
1, 485198, Note_off_c, 0, 64, 58
1, 485353, Note_on_c, 0, 62, 68
1, 485353, Note_on_c, 0, 65, 82
1, 485449, Note_off_c, 0, 61, 55
1, 485502, Control_c, 0, 64, 105
1, 485516, Control_c, 0, 64, 96
1, 485531, Control_c, 0, 64, 89
1, 485546, Control_c, 0, 64, 84
1, 485561, Control_c, 0, 64, 81
1, 485576, Control_c, 0, 64, 78
1, 485590, Control_c, 0, 64, 75
1, 485605, Control_c, 0, 64, 72
1, 485620, Control_c, 0, 64, 69
1, 485636, Control_c, 0, 64, 67
1, 485651, Control_c, 0, 64, 66
1, 485665, Control_c, 0, 64, 65
1, 485680, Control_c, 0, 64, 64
1, 485695, Control_c, 0, 64, 62
1, 485710, Control_c, 0, 64, 60
1, 485725, Control_c, 0, 64, 59
1, 485739, Control_c, 0, 64, 57
1, 485754, Control_c, 0, 64, 55
1, 485769, Control_c, 0, 64, 52
1, 485791, Control_c, 0, 64, 47
1, 485806, Control_c, 0, 64, 42
1, 485821, Control_c, 0, 64, 40
1, 485836, Control_c, 0, 64, 38
1, 485939, Control_c, 0, 64, 39
1, 485954, Control_c, 0, 64, 41
1, 485969, Control_c, 0, 64, 44
1, 485984, Control_c, 0, 64, 46
1, 485999, Control_c, 0, 64, 48
1, 486013, Control_c, 0, 64, 51
1, 486028, Control_c, 0, 64, 53
1, 486043, Control_c, 0, 64, 56
1, 486057, Control_c, 0, 64, 59
1, 486072, Control_c, 0, 64, 62
1, 486087, Control_c, 0, 64, 64
1, 486102, Control_c, 0, 64, 67
1, 486117, Control_c, 0, 64, 71
1, 486131, Control_c, 0, 64, 79
1, 486146, Control_c, 0, 64, 91
1, 486161, Control_c, 0, 64, 105
1, 486176, Control_c, 0, 64, 127
1, 486341, Note_off_c, 0, 62, 34
1, 486467, Note_off_c, 0, 65, 58
1, 486633, Note_on_c, 0, 64, 76
1, 486653, Note_on_c, 0, 61, 59
1, 486714, Note_off_c, 0, 53, 58
1, 486745, Note_off_c, 0, 45, 39
1, 486782, Note_off_c, 0, 64, 59
1, 486885, Note_off_c, 0, 61, 56
1, 486891, Note_on_c, 0, 45, 41
1, 486896, Note_on_c, 0, 33, 47
1, 486939, Note_on_c, 0, 62, 69
1, 486953, Note_on_c, 0, 59, 62
1, 486954, Control_c, 0, 64, 103
1, 486969, Control_c, 0, 64, 81
1, 486971, Note_off_c, 0, 38, 51
1, 486975, Note_on_c, 0, 52, 58
1, 486984, Control_c, 0, 64, 67
1, 486999, Control_c, 0, 64, 59
1, 487014, Control_c, 0, 64, 55
1, 487028, Control_c, 0, 64, 58
1, 487043, Control_c, 0, 64, 62
1, 487058, Control_c, 0, 64, 66
1, 487073, Control_c, 0, 64, 75
1, 487077, Note_off_c, 0, 59, 63
1, 487088, Control_c, 0, 64, 93
1, 487103, Control_c, 0, 64, 127
1, 487190, Note_on_c, 0, 61, 79
1, 487199, Note_on_c, 0, 57, 71
1, 487231, Note_off_c, 0, 52, 63
1, 487245, Note_off_c, 0, 62, 59
1, 487275, Note_off_c, 0, 57, 62
1, 487306, Note_off_c, 0, 61, 62
1, 487365, Note_on_c, 0, 62, 83
1, 487380, Note_on_c, 0, 59, 74
1, 487386, Note_off_c, 0, 45, 51
1, 487468, Note_off_c, 0, 59, 58
1, 487498, Note_off_c, 0, 62, 60
1, 487577, Note_on_c, 0, 38, 46
1, 487589, Note_on_c, 0, 45, 35
1, 487610, Note_on_c, 0, 62, 76
1, 487644, Control_c, 0, 64, 110
1, 487646, Note_on_c, 0, 53, 54
1, 487652, Note_on_c, 0, 59, 42
1, 487659, Control_c, 0, 64, 91
1, 487674, Control_c, 0, 64, 80
1, 487689, Control_c, 0, 64, 72
1, 487703, Control_c, 0, 64, 68
1, 487718, Control_c, 0, 64, 65
1, 487733, Control_c, 0, 64, 62
1, 487748, Control_c, 0, 64, 57
1, 487756, Note_off_c, 0, 33, 48
1, 487763, Control_c, 0, 64, 48
1, 487777, Control_c, 0, 64, 38
1, 487792, Control_c, 0, 64, 28
1, 487807, Control_c, 0, 64, 23
1, 487822, Control_c, 0, 64, 23
1, 487851, Control_c, 0, 64, 27
1, 487866, Control_c, 0, 64, 36
1, 487881, Control_c, 0, 64, 44
1, 487896, Control_c, 0, 64, 50
1, 487911, Control_c, 0, 64, 57
1, 487926, Control_c, 0, 64, 61
1, 487941, Control_c, 0, 64, 64
1, 487956, Control_c, 0, 64, 68
1, 487970, Control_c, 0, 64, 74
1, 487985, Control_c, 0, 64, 84
1, 488000, Control_c, 0, 64, 101
1, 488015, Control_c, 0, 64, 127
1, 488325, Note_on_c, 0, 64, 60
1, 488334, Note_on_c, 0, 61, 55
1, 488379, Control_c, 0, 64, 115
1, 488394, Control_c, 0, 64, 107
1, 488408, Control_c, 0, 64, 102
1, 488423, Control_c, 0, 64, 96
1, 488438, Control_c, 0, 64, 92
1, 488452, Control_c, 0, 64, 88
1, 488467, Control_c, 0, 64, 85
1, 488480, Note_off_c, 0, 62, 33
1, 488482, Control_c, 0, 64, 81
1, 488497, Control_c, 0, 64, 78
1, 488512, Control_c, 0, 64, 76
1, 488522, Note_off_c, 0, 59, 29
1, 488526, Control_c, 0, 64, 74
1, 488541, Control_c, 0, 64, 72
1, 488556, Control_c, 0, 64, 70
1, 488571, Control_c, 0, 64, 68
1, 488586, Control_c, 0, 64, 67
1, 488600, Control_c, 0, 64, 65
1, 488615, Control_c, 0, 64, 64
1, 488630, Control_c, 0, 64, 63
1, 488645, Control_c, 0, 64, 62
1, 488659, Control_c, 0, 64, 58
1, 488674, Control_c, 0, 64, 55
1, 488689, Control_c, 0, 64, 52
1, 488704, Control_c, 0, 64, 47
1, 488719, Control_c, 0, 64, 42
1, 488734, Control_c, 0, 64, 37
1, 488748, Control_c, 0, 64, 37
1, 488763, Control_c, 0, 64, 37
1, 488786, Control_c, 0, 64, 39
1, 488801, Control_c, 0, 64, 43
1, 488815, Control_c, 0, 64, 47
1, 488831, Control_c, 0, 64, 50
1, 488846, Control_c, 0, 64, 52
1, 488861, Control_c, 0, 64, 54
1, 488876, Control_c, 0, 64, 57
1, 488890, Control_c, 0, 64, 60
1, 488905, Control_c, 0, 64, 62
1, 488920, Control_c, 0, 64, 64
1, 488935, Control_c, 0, 64, 66
1, 488950, Control_c, 0, 64, 70
1, 488964, Control_c, 0, 64, 75
1, 488979, Control_c, 0, 64, 82
1, 488994, Control_c, 0, 64, 90
1, 489009, Control_c, 0, 64, 100
1, 489024, Control_c, 0, 64, 119
1, 489038, Control_c, 0, 64, 127
1, 489094, Note_off_c, 0, 61, 37
1, 489149, Note_off_c, 0, 64, 54
1, 489394, Note_off_c, 0, 45, 33
1, 489580, Note_on_c, 0, 62, 57
1, 489594, Note_on_c, 0, 59, 47
1, 489699, Note_off_c, 0, 53, 41
1, 489888, Note_on_c, 0, 33, 36
1, 489889, Note_on_c, 0, 45, 36
1, 489959, Note_on_c, 0, 61, 57
1, 489965, Control_c, 0, 64, 104
1, 489980, Control_c, 0, 64, 87
1, 489986, Note_on_c, 0, 52, 42
1, 489987, Note_on_c, 0, 57, 48
1, 489994, Control_c, 0, 64, 73
1, 490009, Control_c, 0, 64, 63
1, 490021, Note_off_c, 0, 38, 41
1, 490024, Control_c, 0, 64, 53
1, 490039, Control_c, 0, 64, 52
1, 490041, Note_off_c, 0, 62, 53
1, 490054, Control_c, 0, 64, 55
1, 490069, Control_c, 0, 64, 59
1, 490072, Note_off_c, 0, 59, 33
1, 490084, Control_c, 0, 64, 62
1, 490098, Control_c, 0, 64, 66
1, 490113, Control_c, 0, 64, 73
1, 490128, Control_c, 0, 64, 90
1, 490143, Control_c, 0, 64, 127
1, 490188, Note_off_c, 0, 61, 60
1, 490284, Note_on_c, 0, 62, 83
1, 490284, Note_off_c, 0, 45, 54
1, 490301, Note_on_c, 0, 59, 63
1, 490318, Note_off_c, 0, 57, 63
1, 490339, Note_off_c, 0, 33, 39
1, 490367, Note_off_c, 0, 59, 63
1, 490389, Note_off_c, 0, 62, 62
1, 490460, Note_off_c, 0, 52, 36
1, 490464, Note_on_c, 0, 64, 85
1, 490469, Poly_aftertouch_c, 0, 57, 127
1, 490479, Note_on_c, 0, 61, 71
1, 490513, Poly_aftertouch_c, 0, 57, 0
1, 490573, Note_off_c, 0, 64, 67
1, 490580, Note_off_c, 0, 61, 56
1, 490665, Note_on_c, 0, 42, 61
1, 490678, Note_on_c, 0, 30, 52
1, 490711, Note_on_c, 0, 66, 86
1, 490727, Note_on_c, 0, 57, 70
1, 490730, Note_on_c, 0, 63, 61
1, 490788, Control_c, 0, 64, 94
1, 490802, Control_c, 0, 64, 70
1, 490817, Control_c, 0, 64, 56
1, 490832, Control_c, 0, 64, 23
1, 490847, Control_c, 0, 64, 13
1, 490862, Control_c, 0, 64, 17
1, 490877, Control_c, 0, 64, 29
1, 490892, Control_c, 0, 64, 41
1, 490907, Control_c, 0, 64, 49
1, 490921, Control_c, 0, 64, 57
1, 490936, Control_c, 0, 64, 63
1, 490951, Control_c, 0, 64, 68
1, 490966, Control_c, 0, 64, 76
1, 490981, Control_c, 0, 64, 96
1, 490996, Control_c, 0, 64, 127
1, 491065, Note_off_c, 0, 30, 34
1, 491099, Note_off_c, 0, 57, 63
1, 491145, Note_off_c, 0, 42, 61
1, 491345, Note_on_c, 0, 44, 67
1, 491353, Note_on_c, 0, 32, 57
1, 491393, Note_on_c, 0, 56, 77
1, 491447, Control_c, 0, 64, 100
1, 491462, Control_c, 0, 64, 77
1, 491476, Control_c, 0, 64, 67
1, 491491, Control_c, 0, 64, 60
1, 491506, Control_c, 0, 64, 59
1, 491521, Control_c, 0, 64, 61
1, 491536, Note_off_c, 0, 63, 60
1, 491536, Control_c, 0, 64, 64
1, 491550, Control_c, 0, 64, 68
1, 491565, Control_c, 0, 64, 77
1, 491580, Control_c, 0, 64, 105
1, 491595, Control_c, 0, 64, 127
1, 491695, Note_on_c, 0, 63, 81
1, 491697, Note_on_c, 0, 60, 70
1, 491721, Note_off_c, 0, 32, 52
1, 491726, Note_off_c, 0, 66, 58
1, 491779, Note_off_c, 0, 60, 63
1, 491823, Note_off_c, 0, 63, 63
1, 491869, Note_on_c, 0, 64, 87
1, 491878, Note_on_c, 0, 61, 81
1, 491915, Note_off_c, 0, 44, 35
1, 492017, Note_on_c, 0, 46, 76
1, 492032, Note_on_c, 0, 36, 63
1, 492048, Note_on_c, 0, 63, 72
1, 492048, Note_on_c, 0, 66, 86
1, 492051, Note_off_c, 0, 64, 59
1, 492063, Note_off_c, 0, 61, 57
1, 492093, Control_c, 0, 64, 100
1, 492107, Control_c, 0, 64, 75
1, 492122, Control_c, 0, 64, 64
1, 492137, Control_c, 0, 64, 59
1, 492143, Note_off_c, 0, 63, 62
1, 492152, Control_c, 0, 64, 62
1, 492167, Control_c, 0, 64, 64
1, 492181, Control_c, 0, 64, 67
1, 492196, Control_c, 0, 64, 77
1, 492204, Note_on_c, 0, 64, 87
1, 492211, Control_c, 0, 64, 108
1, 492213, Note_on_c, 0, 61, 84
1, 492226, Control_c, 0, 64, 127
1, 492239, Note_off_c, 0, 66, 61
1, 492331, Note_off_c, 0, 46, 60
1, 492343, Note_on_c, 0, 66, 92
1, 492353, Note_on_c, 0, 63, 79
1, 492356, Note_off_c, 0, 64, 58
1, 492371, Note_off_c, 0, 61, 58
1, 492436, Note_off_c, 0, 66, 60
1, 492460, Note_off_c, 0, 63, 55
1, 492484, Note_on_c, 0, 48, 72
1, 492524, Note_on_c, 0, 68, 87
1, 492533, Note_on_c, 0, 64, 68
1, 492573, Control_c, 0, 64, 75
1, 492588, Control_c, 0, 64, 56
1, 492603, Control_c, 0, 64, 0
1, 492662, Control_c, 0, 64, 13
1, 492677, Control_c, 0, 64, 37
1, 492692, Control_c, 0, 64, 53
1, 492707, Control_c, 0, 64, 63
1, 492722, Control_c, 0, 64, 69
1, 492733, Note_off_c, 0, 56, 60
1, 492737, Control_c, 0, 64, 79
1, 492746, Note_off_c, 0, 64, 62
1, 492752, Control_c, 0, 64, 100
1, 492754, Note_off_c, 0, 68, 60
1, 492767, Control_c, 0, 64, 127
1, 492843, Note_on_c, 0, 66, 84
1, 492856, Note_on_c, 0, 63, 67
1, 492862, Note_on_c, 0, 57, 70
1, 492886, Control_c, 0, 64, 88
1, 492901, Control_c, 0, 64, 67
1, 492916, Control_c, 0, 64, 45
1, 492930, Control_c, 0, 64, 15
1, 492945, Control_c, 0, 64, 23
1, 492960, Control_c, 0, 64, 36
1, 492975, Control_c, 0, 64, 49
1, 492990, Control_c, 0, 64, 58
1, 493004, Control_c, 0, 64, 64
1, 493011, Note_off_c, 0, 63, 60
1, 493019, Control_c, 0, 64, 72
1, 493034, Control_c, 0, 64, 87
1, 493035, Note_off_c, 0, 48, 61
1, 493047, Note_off_c, 0, 57, 62
1, 493049, Control_c, 0, 64, 110
1, 493064, Control_c, 0, 64, 127
1, 493065, Note_off_c, 0, 36, 36
1, 493211, Control_c, 0, 64, 119
1, 493226, Control_c, 0, 64, 105
1, 493241, Control_c, 0, 64, 98
1, 493244, Note_on_c, 0, 64, 58
1, 493256, Control_c, 0, 64, 93
1, 493259, Note_on_c, 0, 61, 51
1, 493260, Note_on_c, 0, 49, 38
1, 493277, Note_on_c, 0, 37, 33
1, 493278, Control_c, 0, 64, 90
1, 493282, Note_on_c, 0, 56, 43
1, 493293, Control_c, 0, 64, 87
1, 493308, Control_c, 0, 64, 85
1, 493322, Control_c, 0, 64, 80
1, 493337, Control_c, 0, 64, 75
1, 493352, Control_c, 0, 64, 71
1, 493360, Note_off_c, 0, 66, 57
1, 493367, Control_c, 0, 64, 68
1, 493382, Control_c, 0, 64, 65
1, 493396, Control_c, 0, 64, 62
1, 493411, Control_c, 0, 64, 54
1, 493426, Control_c, 0, 64, 44
1, 493441, Control_c, 0, 64, 31
1, 493455, Control_c, 0, 64, 19
1, 493470, Control_c, 0, 64, 14
1, 493500, Control_c, 0, 64, 19
1, 493515, Control_c, 0, 64, 30
1, 493529, Control_c, 0, 64, 40
1, 493544, Control_c, 0, 64, 47
1, 493559, Control_c, 0, 64, 53
1, 493574, Control_c, 0, 64, 58
1, 493589, Control_c, 0, 64, 62
1, 493603, Control_c, 0, 64, 66
1, 493616, Note_off_c, 0, 61, 57
1, 493618, Note_off_c, 0, 56, 57
1, 493618, Control_c, 0, 64, 72
1, 493634, Control_c, 0, 64, 80
1, 493646, Note_off_c, 0, 64, 63
1, 493649, Control_c, 0, 64, 94
1, 493664, Control_c, 0, 64, 127
1, 493756, Note_off_c, 0, 37, 33
1, 493906, Note_on_c, 0, 66, 91
1, 493929, Note_on_c, 0, 63, 69
1, 493940, Note_off_c, 0, 49, 35
1, 494026, Control_c, 0, 64, 107
1, 494041, Control_c, 0, 64, 101
1, 494056, Control_c, 0, 64, 98
1, 494070, Control_c, 0, 64, 94
1, 494085, Control_c, 0, 64, 89
1, 494100, Control_c, 0, 64, 85
1, 494115, Control_c, 0, 64, 81
1, 494130, Control_c, 0, 64, 78
1, 494144, Control_c, 0, 64, 76
1, 494159, Control_c, 0, 64, 72
1, 494174, Control_c, 0, 64, 67
1, 494189, Control_c, 0, 64, 62
1, 494204, Control_c, 0, 64, 54
1, 494218, Control_c, 0, 64, 48
1, 494233, Control_c, 0, 64, 44
1, 494248, Control_c, 0, 64, 43
1, 494263, Control_c, 0, 64, 44
1, 494278, Control_c, 0, 64, 48
1, 494293, Control_c, 0, 64, 54
1, 494308, Control_c, 0, 64, 59
1, 494323, Control_c, 0, 64, 63
1, 494338, Control_c, 0, 64, 68
1, 494352, Control_c, 0, 64, 75
1, 494367, Control_c, 0, 64, 91
1, 494382, Control_c, 0, 64, 127
1, 494505, Note_on_c, 0, 68, 90
1, 494506, Note_on_c, 0, 64, 72
1, 494540, Note_off_c, 0, 66, 57
1, 494570, Note_off_c, 0, 63, 40
1, 494668, Note_off_c, 0, 64, 59
1, 494670, Note_off_c, 0, 68, 59
1, 494740, Note_on_c, 0, 42, 62
1, 494742, Note_on_c, 0, 49, 57
1, 494763, Note_on_c, 0, 68, 92
1, 494785, Note_on_c, 0, 64, 73
1, 494791, Note_on_c, 0, 57, 72
1, 494835, Control_c, 0, 64, 112
1, 494849, Control_c, 0, 64, 101
1, 494864, Control_c, 0, 64, 93
1, 494879, Control_c, 0, 64, 85
1, 494893, Control_c, 0, 64, 74
1, 494908, Control_c, 0, 64, 65
1, 494923, Control_c, 0, 64, 54
1, 494938, Control_c, 0, 64, 42
1, 494954, Control_c, 0, 64, 39
1, 494968, Control_c, 0, 64, 38
1, 494983, Control_c, 0, 64, 39
1, 494998, Control_c, 0, 64, 45
1, 495013, Control_c, 0, 64, 51
1, 495028, Control_c, 0, 64, 57
1, 495042, Control_c, 0, 64, 62
1, 495057, Control_c, 0, 64, 67
1, 495072, Control_c, 0, 64, 75
1, 495087, Control_c, 0, 64, 95
1, 495101, Control_c, 0, 64, 127
1, 495308, Note_off_c, 0, 64, 56
1, 495313, Note_off_c, 0, 68, 49
1, 495497, Note_on_c, 0, 69, 81
1, 495530, Note_on_c, 0, 66, 60
1, 495569, Control_c, 0, 64, 125
1, 495584, Control_c, 0, 64, 111
1, 495599, Control_c, 0, 64, 104
1, 495613, Control_c, 0, 64, 99
1, 495628, Control_c, 0, 64, 95
1, 495643, Control_c, 0, 64, 91
1, 495658, Control_c, 0, 64, 88
1, 495673, Control_c, 0, 64, 84
1, 495688, Control_c, 0, 64, 80
1, 495703, Control_c, 0, 64, 76
1, 495718, Control_c, 0, 64, 73
1, 495732, Control_c, 0, 64, 71
1, 495747, Control_c, 0, 64, 69
1, 495762, Control_c, 0, 64, 68
1, 495777, Control_c, 0, 64, 66
1, 495791, Control_c, 0, 64, 65
1, 495806, Control_c, 0, 64, 64
1, 495821, Control_c, 0, 64, 63
1, 495836, Control_c, 0, 64, 62
1, 495851, Control_c, 0, 64, 61
1, 495866, Control_c, 0, 64, 60
1, 495880, Control_c, 0, 64, 58
1, 495895, Control_c, 0, 64, 56
1, 495910, Control_c, 0, 64, 52
1, 495924, Control_c, 0, 64, 45
1, 495939, Control_c, 0, 64, 37
1, 495954, Control_c, 0, 64, 30
1, 495969, Control_c, 0, 64, 29
1, 495998, Control_c, 0, 64, 33
1, 496014, Control_c, 0, 64, 40
1, 496029, Control_c, 0, 64, 46
1, 496044, Control_c, 0, 64, 51
1, 496059, Control_c, 0, 64, 55
1, 496074, Control_c, 0, 64, 59
1, 496088, Control_c, 0, 64, 62
1, 496103, Control_c, 0, 64, 66
1, 496118, Control_c, 0, 64, 69
1, 496133, Control_c, 0, 64, 74
1, 496147, Control_c, 0, 64, 81
1, 496162, Control_c, 0, 64, 89
1, 496177, Control_c, 0, 64, 101
1, 496192, Control_c, 0, 64, 127
1, 496319, Note_off_c, 0, 69, 50
1, 496414, Note_off_c, 0, 66, 32
1, 496418, Note_off_c, 0, 49, 39
1, 496453, Note_off_c, 0, 42, 33
1, 496773, Note_on_c, 0, 68, 71
1, 496791, Note_on_c, 0, 64, 55
1, 496925, Note_off_c, 0, 57, 34
1, 496943, Note_off_c, 0, 68, 52
1, 497036, Note_on_c, 0, 35, 39
1, 497040, Note_on_c, 0, 47, 40
1, 497052, Control_c, 0, 64, 122
1, 497067, Control_c, 0, 64, 98
1, 497082, Control_c, 0, 64, 81
1, 497091, Note_on_c, 0, 66, 67
1, 497097, Control_c, 0, 64, 68
1, 497098, Note_on_c, 0, 57, 53
1, 497112, Control_c, 0, 64, 58
1, 497119, Note_on_c, 0, 63, 53
1, 497126, Control_c, 0, 64, 46
1, 497132, Note_off_c, 0, 64, 57
1, 497141, Control_c, 0, 64, 47
1, 497156, Control_c, 0, 64, 49
1, 497170, Control_c, 0, 64, 52
1, 497185, Control_c, 0, 64, 56
1, 497200, Control_c, 0, 64, 60
1, 497215, Control_c, 0, 64, 64
1, 497230, Control_c, 0, 64, 71
1, 497244, Control_c, 0, 64, 82
1, 497249, Note_off_c, 0, 63, 61
1, 497259, Control_c, 0, 64, 98
1, 497274, Control_c, 0, 64, 127
1, 497351, Note_on_c, 0, 64, 78
1, 497360, Note_on_c, 0, 61, 69
1, 497369, Note_off_c, 0, 57, 55
1, 497384, Note_off_c, 0, 66, 61
1, 497436, Note_off_c, 0, 61, 59
1, 497518, Note_on_c, 0, 66, 80
1, 497532, Note_on_c, 0, 63, 69
1, 497556, Note_off_c, 0, 64, 61
1, 497559, Note_off_c, 0, 47, 33
1, 497602, Note_off_c, 0, 63, 60
1, 497626, Note_off_c, 0, 66, 61
1, 497704, Note_on_c, 0, 40, 48
1, 497719, Note_on_c, 0, 47, 33
1, 497724, Note_on_c, 0, 66, 70
1, 497749, Control_c, 0, 64, 112
1, 497750, Note_on_c, 0, 63, 49
1, 497760, Note_on_c, 0, 56, 51
1, 497772, Control_c, 0, 64, 100
1, 497787, Control_c, 0, 64, 89
1, 497801, Control_c, 0, 64, 80
1, 497816, Control_c, 0, 64, 73
1, 497831, Control_c, 0, 64, 66
1, 497843, Note_off_c, 0, 35, 39
1, 497846, Control_c, 0, 64, 60
1, 497861, Control_c, 0, 64, 52
1, 497875, Control_c, 0, 64, 46
1, 497890, Control_c, 0, 64, 44
1, 497905, Control_c, 0, 64, 42
1, 497919, Control_c, 0, 64, 41
1, 497948, Control_c, 0, 64, 43
1, 497963, Control_c, 0, 64, 46
1, 497978, Control_c, 0, 64, 51
1, 497992, Control_c, 0, 64, 55
1, 498007, Control_c, 0, 64, 58
1, 498022, Control_c, 0, 64, 61
1, 498037, Control_c, 0, 64, 64
1, 498052, Control_c, 0, 64, 68
1, 498067, Control_c, 0, 64, 74
1, 498082, Control_c, 0, 64, 81
1, 498097, Control_c, 0, 64, 89
1, 498111, Control_c, 0, 64, 98
1, 498126, Control_c, 0, 64, 109
1, 498141, Control_c, 0, 64, 127
1, 498204, Note_off_c, 0, 66, 57
1, 498363, Control_c, 0, 64, 108
1, 498377, Note_on_c, 0, 64, 50
1, 498377, Note_on_c, 0, 68, 57
1, 498378, Control_c, 0, 64, 99
1, 498392, Control_c, 0, 64, 92
1, 498407, Control_c, 0, 64, 86
1, 498423, Control_c, 0, 64, 80
1, 498438, Control_c, 0, 64, 75
1, 498453, Control_c, 0, 64, 70
1, 498468, Control_c, 0, 64, 66
1, 498482, Control_c, 0, 64, 62
1, 498497, Control_c, 0, 64, 56
1, 498512, Control_c, 0, 64, 48
1, 498524, Note_off_c, 0, 63, 52
1, 498535, Control_c, 0, 64, 39
1, 498549, Control_c, 0, 64, 38
1, 498579, Control_c, 0, 64, 39
1, 498594, Control_c, 0, 64, 42
1, 498609, Control_c, 0, 64, 47
1, 498623, Control_c, 0, 64, 53
1, 498638, Control_c, 0, 64, 56
1, 498653, Control_c, 0, 64, 59
1, 498668, Control_c, 0, 64, 61
1, 498683, Control_c, 0, 64, 63
1, 498698, Control_c, 0, 64, 66
1, 498713, Control_c, 0, 64, 69
1, 498728, Control_c, 0, 64, 76
1, 498742, Control_c, 0, 64, 82
1, 498757, Control_c, 0, 64, 87
1, 498772, Control_c, 0, 64, 91
1, 498787, Control_c, 0, 64, 95
1, 498798, Note_off_c, 0, 64, 30
1, 498802, Control_c, 0, 64, 97
1, 498804, Note_off_c, 0, 56, 31
1, 498816, Control_c, 0, 64, 98
1, 498846, Control_c, 0, 64, 98
1, 498905, Control_c, 0, 64, 96
1, 498920, Control_c, 0, 64, 95
1, 498934, Control_c, 0, 64, 95
1, 498937, Note_off_c, 0, 47, 34
1, 498949, Control_c, 0, 64, 94
1, 498964, Control_c, 0, 64, 92
1, 498979, Control_c, 0, 64, 91
1, 498994, Control_c, 0, 64, 90
1, 498997, Note_off_c, 0, 68, 26
1, 499009, Control_c, 0, 64, 89
1, 499012, Note_off_c, 0, 40, 34
1, 499024, Control_c, 0, 64, 88
1, 499039, Control_c, 0, 64, 87
1, 499053, Control_c, 0, 64, 85
1, 499068, Control_c, 0, 64, 84
1, 499083, Control_c, 0, 64, 82
1, 499098, Control_c, 0, 64, 81
1, 499113, Control_c, 0, 64, 80
1, 499128, Control_c, 0, 64, 79
1, 499142, Control_c, 0, 64, 78
1, 499157, Control_c, 0, 64, 76
1, 499172, Control_c, 0, 64, 75
1, 499187, Control_c, 0, 64, 74
1, 499202, Control_c, 0, 64, 72
1, 499217, Control_c, 0, 64, 71
1, 499232, Control_c, 0, 64, 70
1, 499247, Control_c, 0, 64, 69
1, 499269, Control_c, 0, 64, 68
1, 499284, Control_c, 0, 64, 68
1, 499299, Control_c, 0, 64, 67
1, 499314, Control_c, 0, 64, 66
1, 499328, Control_c, 0, 64, 65
1, 499358, Control_c, 0, 64, 64
1, 499372, Control_c, 0, 64, 64
1, 499402, Control_c, 0, 64, 63
1, 499417, Control_c, 0, 64, 63
1, 499447, Control_c, 0, 64, 62
1, 499462, Control_c, 0, 64, 61
1, 499477, Control_c, 0, 64, 61
1, 499492, Control_c, 0, 64, 60
1, 499507, Control_c, 0, 64, 60
1, 499521, Control_c, 0, 64, 59
1, 499536, Control_c, 0, 64, 58
1, 499551, Control_c, 0, 64, 56
1, 499565, Control_c, 0, 64, 54
1, 499595, Control_c, 0, 64, 55
1, 499610, Control_c, 0, 64, 56
1, 499625, Control_c, 0, 64, 58
1, 499639, Control_c, 0, 64, 61
1, 499654, Control_c, 0, 64, 63
1, 499660, Note_on_c, 0, 68, 44
1, 499669, Control_c, 0, 64, 64
1, 499674, Note_on_c, 0, 64, 37
1, 499684, Control_c, 0, 64, 67
1, 499699, Control_c, 0, 64, 71
1, 499713, Control_c, 0, 64, 78
1, 499728, Control_c, 0, 64, 86
1, 499743, Control_c, 0, 64, 102
1, 499757, Control_c, 0, 64, 127
1, 499953, Note_on_c, 0, 49, 29
1, 499958, Note_on_c, 0, 37, 28
1, 499995, Note_on_c, 0, 69, 47
1, 500006, Note_on_c, 0, 66, 34
1, 500027, Note_on_c, 0, 59, 39
1, 500041, Note_off_c, 0, 64, 31
1, 500097, Note_off_c, 0, 68, 36
1, 500161, Note_off_c, 0, 66, 34
1, 500261, Note_off_c, 0, 37, 40
1, 500290, Note_on_c, 0, 68, 64
1, 500311, Note_on_c, 0, 65, 52
1, 500329, Note_off_c, 0, 69, 53
1, 500388, Note_off_c, 0, 68, 60
1, 500431, Note_off_c, 0, 49, 39
1, 500463, Note_on_c, 0, 66, 65
1, 500464, Note_on_c, 0, 69, 74
1, 500479, Note_off_c, 0, 65, 62
1, 500501, Note_off_c, 0, 66, 61
1, 500506, Note_off_c, 0, 59, 41
1, 500520, Note_off_c, 0, 69, 63
1, 500604, Note_on_c, 0, 49, 52
1, 500610, Note_on_c, 0, 42, 52
1, 500617, Note_on_c, 0, 71, 76
1, 500639, Note_on_c, 0, 57, 54
1, 500650, Note_on_c, 0, 68, 39
1, 500676, Note_off_c, 0, 68, 55
1, 500699, Note_off_c, 0, 57, 58
1, 500759, Note_on_c, 0, 69, 83
1, 500782, Note_on_c, 0, 66, 74
1, 500796, Note_off_c, 0, 71, 64
1, 500908, Note_on_c, 0, 71, 94
1, 500914, Note_on_c, 0, 68, 76
1, 500919, Note_off_c, 0, 69, 60
1, 500932, Note_off_c, 0, 49, 60
1, 500943, Note_off_c, 0, 66, 61
1, 500979, Note_off_c, 0, 68, 56
1, 500981, Note_off_c, 0, 71, 64
1, 501083, Note_on_c, 0, 51, 76
1, 501116, Note_on_c, 0, 73, 85
1, 501125, Note_on_c, 0, 69, 64
1, 501152, Control_c, 0, 64, 99
1, 501167, Control_c, 0, 64, 77
1, 501182, Control_c, 0, 64, 64
1, 501197, Control_c, 0, 64, 55
1, 501211, Control_c, 0, 64, 55
1, 501226, Control_c, 0, 64, 59
1, 501238, Note_off_c, 0, 69, 64
1, 501241, Control_c, 0, 64, 62
1, 501256, Control_c, 0, 64, 65
1, 501271, Control_c, 0, 64, 71
1, 501282, Note_off_c, 0, 73, 62
1, 501285, Control_c, 0, 64, 88
1, 501300, Control_c, 0, 64, 127
1, 501346, Note_off_c, 0, 51, 63
1, 501429, Note_on_c, 0, 71, 90
1, 501438, Note_on_c, 0, 53, 79
1, 501445, Note_on_c, 0, 68, 71
1, 501446, Note_on_c, 0, 59, 72
1, 501449, Note_on_c, 0, 61, 65
1, 501463, Control_c, 0, 64, 83
1, 501478, Control_c, 0, 64, 64
1, 501492, Control_c, 0, 64, 40
1, 501507, Control_c, 0, 64, 35
1, 501530, Control_c, 0, 64, 48
1, 501544, Control_c, 0, 64, 56
1, 501559, Control_c, 0, 64, 63
1, 501574, Control_c, 0, 64, 70
1, 501581, Note_off_c, 0, 68, 61
1, 501589, Control_c, 0, 64, 87
1, 501604, Control_c, 0, 64, 127
1, 501608, Note_off_c, 0, 71, 52
1, 501616, Note_off_c, 0, 53, 63
1, 501635, Note_off_c, 0, 61, 57
1, 501647, Note_off_c, 0, 59, 60
1, 501792, Note_on_c, 0, 69, 82
1, 501793, Note_on_c, 0, 54, 60
1, 501805, Note_on_c, 0, 66, 65
1, 501814, Note_on_c, 0, 61, 61
1, 501818, Note_on_c, 0, 57, 66
1, 501855, Control_c, 0, 64, 98
1, 501870, Control_c, 0, 64, 84
1, 501885, Control_c, 0, 64, 71
1, 501900, Control_c, 0, 64, 62
1, 501915, Control_c, 0, 64, 49
1, 501930, Control_c, 0, 64, 36
1, 501945, Control_c, 0, 64, 33
1, 501959, Control_c, 0, 64, 32
1, 501974, Control_c, 0, 64, 31
1, 501989, Control_c, 0, 64, 32
1, 502004, Control_c, 0, 64, 37
1, 502019, Control_c, 0, 64, 45
1, 502033, Control_c, 0, 64, 53
1, 502048, Control_c, 0, 64, 60
1, 502058, Note_off_c, 0, 57, 60
1, 502063, Control_c, 0, 64, 66
1, 502078, Control_c, 0, 64, 73
1, 502093, Control_c, 0, 64, 87
1, 502107, Control_c, 0, 64, 127
1, 502120, Note_off_c, 0, 61, 61
1, 502126, Note_off_c, 0, 66, 55
1, 502163, Note_off_c, 0, 42, 27
1, 502171, Note_off_c, 0, 69, 62
1, 502325, Note_off_c, 0, 54, 32
1, 502444, Note_on_c, 0, 71, 99
1, 502464, Note_on_c, 0, 68, 76
1, 502560, Control_c, 0, 64, 125
1, 502575, Control_c, 0, 64, 105
1, 502589, Control_c, 0, 64, 96
1, 502604, Control_c, 0, 64, 91
1, 502619, Control_c, 0, 64, 87
1, 502634, Control_c, 0, 64, 81
1, 502649, Control_c, 0, 64, 75
1, 502663, Control_c, 0, 64, 67
1, 502678, Control_c, 0, 64, 60
1, 502693, Control_c, 0, 64, 54
1, 502708, Control_c, 0, 64, 52
1, 502723, Control_c, 0, 64, 47
1, 502738, Control_c, 0, 64, 43
1, 502753, Control_c, 0, 64, 42
1, 502768, Control_c, 0, 64, 42
1, 502782, Control_c, 0, 64, 47
1, 502797, Control_c, 0, 64, 53
1, 502812, Control_c, 0, 64, 59
1, 502827, Control_c, 0, 64, 64
1, 502842, Control_c, 0, 64, 70
1, 502856, Control_c, 0, 64, 83
1, 502871, Control_c, 0, 64, 127
1, 502964, Note_off_c, 0, 71, 56
1, 503051, Note_off_c, 0, 68, 60
1, 503103, Note_on_c, 0, 73, 101
1, 503119, Note_on_c, 0, 69, 74
1, 503286, Note_off_c, 0, 73, 60
1, 503288, Note_off_c, 0, 69, 59
1, 503355, Note_on_c, 0, 47, 65
1, 503360, Note_on_c, 0, 54, 69
1, 503381, Note_on_c, 0, 73, 103
1, 503392, Note_on_c, 0, 69, 76
1, 503397, Note_on_c, 0, 62, 76
1, 503457, Control_c, 0, 64, 101
1, 503472, Control_c, 0, 64, 85
1, 503486, Control_c, 0, 64, 78
1, 503501, Control_c, 0, 64, 73
1, 503516, Control_c, 0, 64, 69
1, 503531, Control_c, 0, 64, 65
1, 503546, Control_c, 0, 64, 58
1, 503561, Control_c, 0, 64, 45
1, 503575, Control_c, 0, 64, 38
1, 503590, Control_c, 0, 64, 38
1, 503620, Control_c, 0, 64, 41
1, 503635, Control_c, 0, 64, 48
1, 503650, Control_c, 0, 64, 55
1, 503665, Control_c, 0, 64, 61
1, 503679, Control_c, 0, 64, 66
1, 503694, Control_c, 0, 64, 74
1, 503709, Control_c, 0, 64, 87
1, 503723, Control_c, 0, 64, 120
1, 503738, Control_c, 0, 64, 127
1, 503891, Note_off_c, 0, 69, 55
1, 503909, Note_off_c, 0, 73, 61
1, 504170, Note_on_c, 0, 74, 88
1, 504186, Note_on_c, 0, 71, 71
1, 504294, Control_c, 0, 64, 105
1, 504309, Control_c, 0, 64, 92
1, 504324, Control_c, 0, 64, 85
1, 504339, Control_c, 0, 64, 79
1, 504353, Control_c, 0, 64, 74
1, 504368, Control_c, 0, 64, 69
1, 504383, Control_c, 0, 64, 65
1, 504398, Control_c, 0, 64, 61
1, 504413, Control_c, 0, 64, 59
1, 504427, Control_c, 0, 64, 56
1, 504442, Control_c, 0, 64, 51
1, 504457, Control_c, 0, 64, 43
1, 504472, Control_c, 0, 64, 27
1, 504487, Control_c, 0, 64, 0
1, 504731, Control_c, 0, 64, 9
1, 504746, Control_c, 0, 64, 23
1, 504760, Control_c, 0, 64, 37
1, 504775, Control_c, 0, 64, 47
1, 504790, Control_c, 0, 64, 54
1, 504806, Control_c, 0, 64, 57
1, 504821, Control_c, 0, 64, 59
1, 504836, Control_c, 0, 64, 61
1, 504851, Control_c, 0, 64, 64
1, 504865, Control_c, 0, 64, 68
1, 504880, Control_c, 0, 64, 72
1, 504895, Control_c, 0, 64, 78
1, 504910, Control_c, 0, 64, 85
1, 504925, Control_c, 0, 64, 95
1, 504939, Control_c, 0, 64, 117
1, 504954, Control_c, 0, 64, 127
1, 505011, Note_off_c, 0, 47, 35
1, 505021, Note_off_c, 0, 54, 55
1, 505048, Note_off_c, 0, 71, 51
1, 505099, Note_off_c, 0, 74, 60
1, 505412, Note_on_c, 0, 73, 85
1, 505430, Note_on_c, 0, 69, 62
1, 505567, Note_off_c, 0, 73, 59
1, 505573, Note_off_c, 0, 62, 58
1, 505666, Note_on_c, 0, 52, 52
1, 505673, Note_on_c, 0, 40, 50
1, 505722, Note_on_c, 0, 71, 80
1, 505738, Note_on_c, 0, 68, 69
1, 505744, Note_on_c, 0, 62, 56
1, 505748, Control_c, 0, 64, 91
1, 505762, Control_c, 0, 64, 72
1, 505777, Control_c, 0, 64, 60
1, 505792, Control_c, 0, 64, 48
1, 505806, Control_c, 0, 64, 51
1, 505808, Note_off_c, 0, 69, 37
1, 505821, Control_c, 0, 64, 54
1, 505836, Control_c, 0, 64, 58
1, 505851, Control_c, 0, 64, 62
1, 505866, Control_c, 0, 64, 68
1, 505880, Control_c, 0, 64, 90
1, 505892, Note_off_c, 0, 68, 61
1, 505895, Control_c, 0, 64, 127
1, 505972, Note_on_c, 0, 69, 85
1, 505986, Note_on_c, 0, 66, 77
1, 506018, Note_off_c, 0, 62, 58
1, 506019, Note_off_c, 0, 71, 58
1, 506078, Note_off_c, 0, 66, 60
1, 506139, Note_on_c, 0, 71, 84
1, 506149, Note_on_c, 0, 68, 81
1, 506152, Note_off_c, 0, 52, 55
1, 506202, Note_off_c, 0, 69, 55
1, 506238, Note_off_c, 0, 68, 60
1, 506264, Note_off_c, 0, 71, 60
1, 506331, Note_on_c, 0, 45, 49
1, 506333, Note_on_c, 0, 52, 41
1, 506366, Note_on_c, 0, 71, 78
1, 506386, Note_on_c, 0, 68, 59
1, 506392, Control_c, 0, 64, 122
1, 506397, Note_on_c, 0, 61, 59
1, 506408, Control_c, 0, 64, 98
1, 506422, Control_c, 0, 64, 87
1, 506437, Control_c, 0, 64, 79
1, 506452, Control_c, 0, 64, 73
1, 506467, Control_c, 0, 64, 67
1, 506482, Control_c, 0, 64, 61
1, 506497, Control_c, 0, 64, 54
1, 506512, Control_c, 0, 64, 49
1, 506516, Note_off_c, 0, 40, 28
1, 506527, Control_c, 0, 64, 49
1, 506556, Control_c, 0, 64, 50
1, 506571, Control_c, 0, 64, 51
1, 506586, Control_c, 0, 64, 54
1, 506601, Control_c, 0, 64, 57
1, 506616, Control_c, 0, 64, 60
1, 506630, Control_c, 0, 64, 64
1, 506645, Control_c, 0, 64, 69
1, 506660, Control_c, 0, 64, 77
1, 506675, Control_c, 0, 64, 94
1, 506690, Control_c, 0, 64, 127
1, 506820, Note_off_c, 0, 71, 58
1, 507008, Note_on_c, 0, 73, 71
1, 507030, Note_on_c, 0, 69, 53
1, 507052, Control_c, 0, 64, 104
1, 507067, Control_c, 0, 64, 92
1, 507082, Control_c, 0, 64, 83
1, 507097, Control_c, 0, 64, 73
1, 507101, Note_off_c, 0, 68, 53
1, 507111, Control_c, 0, 64, 66
1, 507126, Control_c, 0, 64, 58
1, 507141, Control_c, 0, 64, 47
1, 507156, Control_c, 0, 64, 41
1, 507170, Control_c, 0, 64, 41
1, 507185, Control_c, 0, 64, 46
1, 507201, Control_c, 0, 64, 51
1, 507216, Control_c, 0, 64, 56
1, 507231, Control_c, 0, 64, 61
1, 507245, Control_c, 0, 64, 67
1, 507260, Control_c, 0, 64, 77
1, 507275, Control_c, 0, 64, 108
1, 507289, Note_off_c, 0, 69, 56
1, 507290, Control_c, 0, 64, 127
1, 507318, Note_off_c, 0, 61, 50
1, 507522, Note_on_c, 0, 71, 66
1, 507542, Note_on_c, 0, 68, 56
1, 507562, Note_off_c, 0, 73, 60
1, 507728, Note_off_c, 0, 52, 32
1, 507800, Note_on_c, 0, 73, 71
1, 507817, Note_on_c, 0, 69, 58
1, 507859, Note_off_c, 0, 68, 55
1, 507886, Note_off_c, 0, 71, 56
1, 507901, Note_off_c, 0, 69, 62
1, 508070, Note_on_c, 0, 71, 83
1, 508078, Note_on_c, 0, 68, 77
1, 508110, Note_off_c, 0, 73, 64
1, 508222, Note_on_c, 0, 73, 90
1, 508224, Note_on_c, 0, 69, 80
1, 508253, Note_off_c, 0, 68, 60
1, 508256, Note_off_c, 0, 71, 60
1, 508272, Note_off_c, 0, 69, 59
1, 508297, Note_off_c, 0, 73, 64
1, 508375, Note_on_c, 0, 54, 71
1, 508376, Note_on_c, 0, 42, 66
1, 508393, Note_off_c, 0, 45, 58
1, 508396, Note_on_c, 0, 74, 86
1, 508410, Note_on_c, 0, 64, 73
1, 508410, Note_on_c, 0, 71, 66
1, 508446, Note_off_c, 0, 71, 60
1, 508524, Note_off_c, 0, 42, 60
1, 508554, Note_on_c, 0, 73, 91
1, 508567, Note_on_c, 0, 70, 82
1, 508588, Note_off_c, 0, 74, 61
1, 508628, Note_off_c, 0, 54, 60
1, 508640, Note_off_c, 0, 73, 63
1, 508681, Note_on_c, 0, 74, 96
1, 508690, Note_off_c, 0, 64, 0
1, 508698, Note_off_c, 0, 70, 61
1, 508700, Note_on_c, 0, 71, 62
1, 508701, Note_on_c, 0, 72, 64
1, 508727, Poly_aftertouch_c, 0, 64, 127
1, 508729, Note_on_c, 0, 64, 2
1, 508731, Note_off_c, 0, 71, 64
1, 508731, Note_off_c, 0, 72, 68
1, 508745, Note_off_c, 0, 74, 58
1, 508769, Note_off_c, 0, 64, 50
1, 508808, Note_on_c, 0, 54, 86
1, 508812, Note_on_c, 0, 47, 73
1, 508816, Control_c, 0, 64, 104
1, 508831, Control_c, 0, 64, 75
1, 508834, Note_on_c, 0, 76, 83
1, 508840, Note_on_c, 0, 73, 77
1, 508842, Note_on_c, 0, 62, 80
1, 508846, Control_c, 0, 64, 60
1, 508850, Note_on_c, 0, 74, 72
1, 508861, Control_c, 0, 64, 54
1, 508865, Note_on_c, 0, 64, 45
1, 508867, Note_off_c, 0, 74, 42
1, 508871, Note_off_c, 0, 73, 63
1, 508876, Control_c, 0, 64, 60
1, 508890, Control_c, 0, 64, 64
1, 508893, Note_off_c, 0, 64, 54
1, 508905, Control_c, 0, 64, 72
1, 508906, Note_off_c, 0, 62, 62
1, 508920, Control_c, 0, 64, 96
1, 508935, Control_c, 0, 64, 127
1, 508968, Note_on_c, 0, 74, 79
1, 508980, Note_on_c, 0, 71, 92
1, 508984, Note_off_c, 0, 76, 65
1, 509102, Note_on_c, 0, 76, 99
1, 509106, Note_on_c, 0, 73, 88
1, 509112, Note_off_c, 0, 54, 59
1, 509117, Note_off_c, 0, 71, 56
1, 509117, Note_off_c, 0, 74, 60
1, 509173, Note_off_c, 0, 76, 61
1, 509176, Note_off_c, 0, 73, 63
1, 509245, Note_on_c, 0, 56, 93
1, 509281, Note_on_c, 0, 78, 96
1, 509283, Note_on_c, 0, 74, 75
1, 509298, Control_c, 0, 64, 105
1, 509313, Control_c, 0, 64, 75
1, 509328, Control_c, 0, 64, 61
1, 509343, Control_c, 0, 64, 63
1, 509358, Control_c, 0, 64, 67
1, 509372, Control_c, 0, 64, 72
1, 509382, Note_off_c, 0, 74, 64
1, 509387, Control_c, 0, 64, 90
1, 509402, Control_c, 0, 64, 127
1, 509420, Note_off_c, 0, 78, 61
1, 509440, Note_on_c, 0, 53, 27
1, 509451, Note_off_c, 0, 56, 62
1, 509534, Note_off_c, 0, 53, 35
1, 509569, Note_on_c, 0, 76, 98
1, 509571, Note_on_c, 0, 58, 101
1, 509574, Note_on_c, 0, 64, 95
1, 509576, Note_on_c, 0, 73, 82
1, 509577, Note_on_c, 0, 66, 83
1, 509595, Control_c, 0, 64, 93
1, 509610, Control_c, 0, 64, 63
1, 509625, Control_c, 0, 64, 0
1, 509654, Control_c, 0, 64, 33
1, 509669, Control_c, 0, 64, 58
1, 509684, Control_c, 0, 64, 73
1, 509699, Control_c, 0, 64, 127
1, 509749, Note_off_c, 0, 73, 63
1, 509761, Note_off_c, 0, 76, 59
1, 509785, Note_off_c, 0, 64, 57
1, 509788, Note_off_c, 0, 66, 57
1, 509820, Note_off_c, 0, 58, 59
1, 509917, Note_on_c, 0, 74, 90
1, 509922, Note_on_c, 0, 62, 93
1, 509923, Note_on_c, 0, 59, 94
1, 509926, Note_on_c, 0, 71, 81
1, 509927, Note_on_c, 0, 66, 79
1, 509943, Control_c, 0, 64, 88
1, 509958, Control_c, 0, 64, 64
1, 509973, Control_c, 0, 64, 0
1, 510017, Control_c, 0, 64, 30
1, 510032, Control_c, 0, 64, 53
1, 510047, Control_c, 0, 64, 66
1, 510062, Control_c, 0, 64, 81
1, 510062, Note_off_c, 0, 59, 63
1, 510077, Control_c, 0, 64, 127
1, 510119, Note_off_c, 0, 47, 56
1, 510151, Note_off_c, 0, 62, 62
1, 510176, Note_off_c, 0, 74, 59
1, 510190, Note_off_c, 0, 71, 58
1, 510220, Note_off_c, 0, 66, 61
1, 510351, Note_on_c, 0, 35, 87
1, 510358, Control_c, 0, 64, 111
1, 510372, Control_c, 0, 64, 67
1, 510387, Control_c, 0, 64, 0
1, 510448, Control_c, 0, 64, 24
1, 510463, Control_c, 0, 64, 65
1, 510477, Control_c, 0, 64, 117
1, 510500, Control_c, 0, 64, 127
1, 510509, Note_on_c, 0, 47, 88
1, 510509, Note_off_c, 0, 35, 61
1, 510552, Note_off_c, 0, 47, 65
1, 510555, Poly_aftertouch_c, 0, 40, 0
1, 510641, Note_on_c, 0, 54, 79
1, 510723, Note_on_c, 0, 57, 86
1, 510822, Note_on_c, 0, 62, 87
1, 510854, Note_on_c, 0, 80, 102
1, 510855, Note_on_c, 0, 68, 96
1, 510855, Note_on_c, 0, 76, 82
1, 511204, Note_off_c, 0, 76, 62
1, 511324, Note_off_c, 0, 80, 58
1, 511383, Note_off_c, 0, 68, 59
1, 511454, Note_on_c, 0, 78, 103
1, 511456, Note_on_c, 0, 74, 77
1, 511457, Note_on_c, 0, 66, 92
1, 511686, Note_off_c, 0, 74, 60
1, 511712, Note_off_c, 0, 78, 59
1, 511824, Note_on_c, 0, 76, 91
1, 511835, Note_on_c, 0, 73, 74
1, 511859, Note_off_c, 0, 66, 58
1, 511891, Note_off_c, 0, 73, 64
1, 511895, Note_off_c, 0, 62, 57
1, 511957, Note_off_c, 0, 57, 58
1, 512002, Note_off_c, 0, 54, 60
1, 512053, Note_on_c, 0, 74, 95
1, 512068, Note_on_c, 0, 71, 81
1, 512107, Note_off_c, 0, 76, 55
1, 512113, Note_off_c, 0, 71, 57
1, 512200, Note_on_c, 0, 73, 91
1, 512203, Note_on_c, 0, 69, 92
1, 512217, Note_off_c, 0, 74, 64
1, 512255, Note_off_c, 0, 73, 63
1, 512262, Note_off_c, 0, 69, 65
1, 512327, Note_on_c, 0, 71, 94
1, 512341, Note_on_c, 0, 68, 87
1, 512390, Note_off_c, 0, 68, 65
1, 512417, Note_off_c, 0, 71, 60
1, 512514, Note_on_c, 0, 49, 46
1, 512527, Note_on_c, 0, 42, 47
1, 512536, Note_on_c, 0, 69, 80
1, 512548, Note_on_c, 0, 57, 70
1, 512554, Note_on_c, 0, 61, 60
1, 512556, Note_on_c, 0, 66, 64
1, 512590, Control_c, 0, 64, 82
1, 512605, Control_c, 0, 64, 64
1, 512620, Control_c, 0, 64, 39
1, 512634, Control_c, 0, 64, 0
1, 512723, Control_c, 0, 64, 26
1, 512745, Control_c, 0, 64, 42
1, 512760, Control_c, 0, 64, 54
1, 512775, Control_c, 0, 64, 62
1, 512791, Control_c, 0, 64, 67
1, 512806, Control_c, 0, 64, 75
1, 512820, Control_c, 0, 64, 92
1, 512835, Control_c, 0, 64, 127
1, 512904, Note_off_c, 0, 57, 59
1, 512975, Note_off_c, 0, 66, 47
1, 512978, Note_off_c, 0, 61, 58
1, 513026, Note_off_c, 0, 69, 56
1, 513327, Note_on_c, 0, 47, 57
1, 513327, Note_on_c, 0, 54, 65
1, 513347, Note_on_c, 0, 76, 87
1, 513353, Note_on_c, 0, 66, 58
1, 513358, Note_on_c, 0, 62, 73
1, 513360, Note_on_c, 0, 73, 70
1, 513393, Note_off_c, 0, 42, 53
1, 513423, Note_off_c, 0, 49, 58
1, 513493, Control_c, 0, 64, 90
1, 513508, Control_c, 0, 64, 70
1, 513523, Control_c, 0, 64, 54
1, 513538, Control_c, 0, 64, 35
1, 513553, Control_c, 0, 64, 33
1, 513582, Control_c, 0, 64, 35
1, 513598, Control_c, 0, 64, 41
1, 513613, Control_c, 0, 64, 51
1, 513628, Control_c, 0, 64, 56
1, 513642, Control_c, 0, 64, 60
1, 513657, Control_c, 0, 64, 65
1, 513672, Control_c, 0, 64, 73
1, 513687, Control_c, 0, 64, 92
1, 513702, Control_c, 0, 64, 127
1, 513759, Note_off_c, 0, 76, 61
1, 513779, Note_off_c, 0, 73, 60
1, 513859, Note_on_c, 0, 74, 90
1, 513866, Note_on_c, 0, 71, 73
1, 513994, Note_off_c, 0, 71, 63
1, 514033, Note_off_c, 0, 74, 63
1, 514143, Note_on_c, 0, 73, 85
1, 514167, Note_on_c, 0, 69, 68
1, 514190, Control_c, 0, 64, 103
1, 514205, Control_c, 0, 64, 83
1, 514220, Control_c, 0, 64, 72
1, 514226, Note_off_c, 0, 66, 56
1, 514242, Control_c, 0, 64, 67
1, 514257, Control_c, 0, 64, 69
1, 514272, Control_c, 0, 64, 75
1, 514287, Control_c, 0, 64, 83
1, 514301, Control_c, 0, 64, 96
1, 514316, Control_c, 0, 64, 127
1, 514417, Note_on_c, 0, 71, 89
1, 514435, Note_on_c, 0, 68, 79
1, 514457, Note_off_c, 0, 69, 61
1, 514471, Note_off_c, 0, 73, 62
1, 514513, Note_off_c, 0, 68, 61
1, 514552, Note_off_c, 0, 62, 56
1, 514600, Note_on_c, 0, 69, 86
1, 514611, Note_on_c, 0, 66, 77
1, 514632, Note_off_c, 0, 71, 59
1, 514670, Note_off_c, 0, 66, 60
1, 514673, Note_off_c, 0, 69, 61
1, 514739, Note_off_c, 0, 54, 32
1, 514805, Note_on_c, 0, 42, 47
1, 514808, Note_on_c, 0, 49, 43
1, 514829, Note_on_c, 0, 69, 73
1, 514855, Note_on_c, 0, 57, 61
1, 514855, Note_on_c, 0, 61, 60
1, 514855, Note_on_c, 0, 66, 58
1, 514865, Control_c, 0, 64, 102
1, 514871, Note_off_c, 0, 47, 35
1, 514880, Control_c, 0, 64, 84
1, 514895, Control_c, 0, 64, 69
1, 514909, Control_c, 0, 64, 51
1, 514924, Control_c, 0, 64, 13
1, 514939, Control_c, 0, 64, 0
1, 515006, Control_c, 0, 64, 14
1, 515021, Control_c, 0, 64, 34
1, 515036, Control_c, 0, 64, 46
1, 515050, Control_c, 0, 64, 54
1, 515065, Control_c, 0, 64, 60
1, 515080, Control_c, 0, 64, 64
1, 515095, Control_c, 0, 64, 69
1, 515110, Control_c, 0, 64, 81
1, 515124, Control_c, 0, 64, 102
1, 515134, Note_off_c, 0, 42, 36
1, 515139, Control_c, 0, 64, 127
1, 515174, Note_off_c, 0, 57, 58
1, 515262, Note_off_c, 0, 49, 36
1, 515267, Note_off_c, 0, 61, 53
1, 515348, Note_off_c, 0, 69, 59
1, 515352, Note_off_c, 0, 66, 32
1, 515630, Note_on_c, 0, 47, 37
1, 515645, Note_on_c, 0, 54, 40
1, 515666, Note_on_c, 0, 73, 75
1, 515683, Note_on_c, 0, 69, 58
1, 515705, Note_on_c, 0, 62, 54
1, 515718, Control_c, 0, 64, 102
1, 515740, Control_c, 0, 64, 85
1, 515755, Control_c, 0, 64, 69
1, 515770, Control_c, 0, 64, 58
1, 515785, Control_c, 0, 64, 36
1, 515800, Control_c, 0, 64, 28
1, 515829, Control_c, 0, 64, 28
1, 515844, Control_c, 0, 64, 36
1, 515858, Control_c, 0, 64, 47
1, 515873, Control_c, 0, 64, 56
1, 515888, Control_c, 0, 64, 62
1, 515903, Control_c, 0, 64, 68
1, 515918, Control_c, 0, 64, 77
1, 515930, Note_off_c, 0, 69, 59
1, 515933, Control_c, 0, 64, 97
1, 515947, Control_c, 0, 64, 127
1, 515957, Note_on_c, 0, 71, 79
1, 515971, Note_on_c, 0, 68, 76
1, 515973, Note_off_c, 0, 62, 50
1, 516024, Note_off_c, 0, 73, 58
1, 516038, Note_off_c, 0, 54, 35
1, 516059, Note_off_c, 0, 68, 60
1, 516157, Note_on_c, 0, 69, 77
1, 516163, Note_on_c, 0, 66, 72
1, 516191, Note_off_c, 0, 71, 59
1, 516282, Note_off_c, 0, 66, 55
1, 516287, Note_off_c, 0, 69, 59
1, 516408, Control_c, 0, 64, 117
1, 516423, Control_c, 0, 64, 98
1, 516437, Note_on_c, 0, 69, 56
1, 516437, Control_c, 0, 64, 82
1, 516445, Note_on_c, 0, 57, 38
1, 516450, Note_on_c, 0, 66, 45
1, 516452, Control_c, 0, 64, 68
1, 516454, Note_on_c, 0, 49, 35
1, 516463, Note_on_c, 0, 61, 42
1, 516467, Control_c, 0, 64, 54
1, 516488, Note_off_c, 0, 47, 39
1, 516489, Control_c, 0, 64, 24
1, 516504, Control_c, 0, 64, 21
1, 516533, Control_c, 0, 64, 22
1, 516548, Control_c, 0, 64, 33
1, 516563, Control_c, 0, 64, 48
1, 516578, Control_c, 0, 64, 60
1, 516593, Control_c, 0, 64, 68
1, 516607, Control_c, 0, 64, 79
1, 516614, Note_off_c, 0, 69, 52
1, 516622, Control_c, 0, 64, 99
1, 516631, Note_off_c, 0, 57, 53
1, 516637, Control_c, 0, 64, 127
1, 516655, Note_off_c, 0, 66, 37
1, 516676, Note_off_c, 0, 61, 36
1, 516681, Control_c, 0, 64, 117
1, 516696, Control_c, 0, 64, 106
1, 516711, Control_c, 0, 64, 103
1, 516726, Control_c, 0, 64, 101
1, 516729, Note_off_c, 0, 49, 40
1, 516741, Control_c, 0, 64, 96
1, 516755, Control_c, 0, 64, 91
1, 516770, Control_c, 0, 64, 86
1, 516786, Control_c, 0, 64, 82
1, 516801, Control_c, 0, 64, 79
1, 516816, Control_c, 0, 64, 76
1, 516831, Control_c, 0, 64, 74
1, 516846, Control_c, 0, 64, 72
1, 516860, Control_c, 0, 64, 70
1, 516875, Control_c, 0, 64, 68
1, 516890, Control_c, 0, 64, 66
1, 516905, Control_c, 0, 64, 65
1, 516919, Control_c, 0, 64, 64
1, 516934, Control_c, 0, 64, 63
1, 516949, Control_c, 0, 64, 62
1, 516964, Control_c, 0, 64, 62
1, 516979, Control_c, 0, 64, 61
1, 516993, Control_c, 0, 64, 60
1, 517008, Control_c, 0, 64, 59
1, 517023, Control_c, 0, 64, 58
1, 517038, Control_c, 0, 64, 57
1, 517053, Control_c, 0, 64, 57
1, 517067, Control_c, 0, 64, 56
1, 517082, Control_c, 0, 64, 54
1, 517097, Control_c, 0, 64, 52
1, 517112, Control_c, 0, 64, 49
1, 517127, Control_c, 0, 64, 47
1, 517142, Control_c, 0, 64, 47
1, 517201, Control_c, 0, 64, 47
1, 517216, Control_c, 0, 64, 48
1, 517237, Control_c, 0, 64, 48
1, 517252, Control_c, 0, 64, 49
1, 517267, Control_c, 0, 64, 50
1, 517282, Note_on_c, 0, 68, 44
1, 517282, Control_c, 0, 64, 52
1, 517293, Note_on_c, 0, 65, 37
1, 517297, Note_on_c, 0, 49, 23
1, 517297, Control_c, 0, 64, 53
1, 517300, Note_on_c, 0, 61, 30
1, 517310, Note_on_c, 0, 56, 27
1, 517311, Note_on_c, 0, 37, 23
1, 517311, Control_c, 0, 64, 55
1, 517326, Control_c, 0, 64, 56
1, 517341, Control_c, 0, 64, 58
1, 517356, Control_c, 0, 64, 60
1, 517371, Control_c, 0, 64, 62
1, 517386, Control_c, 0, 64, 64
1, 517401, Control_c, 0, 64, 65
1, 517416, Control_c, 0, 64, 68
1, 517430, Control_c, 0, 64, 72
1, 517445, Control_c, 0, 64, 76
1, 517460, Control_c, 0, 64, 80
1, 517475, Control_c, 0, 64, 85
1, 517490, Control_c, 0, 64, 91
1, 517504, Control_c, 0, 64, 99
1, 517519, Control_c, 0, 64, 112
1, 517534, Control_c, 0, 64, 127
1, 517773, Note_off_c, 0, 56, 36
1, 517802, Control_c, 0, 64, 125
1, 517816, Control_c, 0, 64, 119
1, 517819, Note_off_c, 0, 68, 27
1, 517826, Note_off_c, 0, 61, 30
1, 517831, Control_c, 0, 64, 115
1, 517842, Note_off_c, 0, 37, 36
1, 517846, Control_c, 0, 64, 110
1, 517860, Control_c, 0, 64, 104
1, 517869, Note_off_c, 0, 65, 33
1, 517875, Control_c, 0, 64, 101
1, 517890, Control_c, 0, 64, 98
1, 517905, Control_c, 0, 64, 96
1, 517920, Control_c, 0, 64, 94
1, 517934, Control_c, 0, 64, 92
1, 517949, Control_c, 0, 64, 90
1, 517964, Control_c, 0, 64, 88
1, 517967, Note_off_c, 0, 49, 31
1, 517987, Control_c, 0, 64, 86
1, 518002, Control_c, 0, 64, 85
1, 518016, Control_c, 0, 64, 84
1, 518031, Control_c, 0, 64, 82
1, 518046, Control_c, 0, 64, 81
1, 518060, Control_c, 0, 64, 80
1, 518075, Control_c, 0, 64, 79
1, 518090, Control_c, 0, 64, 78
1, 518105, Control_c, 0, 64, 77
1, 518120, Control_c, 0, 64, 76
1, 518134, Control_c, 0, 64, 76
1, 518149, Control_c, 0, 64, 75
1, 518165, Control_c, 0, 64, 74
1, 518180, Control_c, 0, 64, 73
1, 518195, Control_c, 0, 64, 73
1, 518209, Control_c, 0, 64, 72
1, 518224, Control_c, 0, 64, 71
1, 518239, Control_c, 0, 64, 70
1, 518254, Control_c, 0, 64, 69
1, 518268, Control_c, 0, 64, 69
1, 518298, Control_c, 0, 64, 68
1, 518313, Control_c, 0, 64, 68
1, 518328, Control_c, 0, 64, 67
1, 518343, Control_c, 0, 64, 67
1, 518373, Control_c, 0, 64, 66
1, 518388, Control_c, 0, 64, 66
1, 518403, Control_c, 0, 64, 65
1, 518418, Control_c, 0, 64, 65
1, 518447, Control_c, 0, 64, 64
1, 518477, Control_c, 0, 64, 64
1, 518507, Control_c, 0, 64, 63
1, 518537, Control_c, 0, 64, 63
1, 518566, Control_c, 0, 64, 62
1, 518596, Control_c, 0, 64, 62
1, 518640, Control_c, 0, 64, 61
1, 518670, Control_c, 0, 64, 61
1, 518714, Control_c, 0, 64, 60
1, 518766, Control_c, 0, 64, 60
1, 518796, Control_c, 0, 64, 59
1, 518884, Control_c, 0, 64, 59
1, 519091, Control_c, 0, 64, 59
1, 519136, Control_c, 0, 64, 60
1, 519165, Control_c, 0, 64, 60
1, 519195, Control_c, 0, 64, 61
1, 519225, Control_c, 0, 64, 61
1, 519240, Control_c, 0, 64, 62
1, 519255, Control_c, 0, 64, 62
1, 519270, Control_c, 0, 64, 63
1, 519285, Control_c, 0, 64, 63
1, 519299, Control_c, 0, 64, 64
1, 519314, Control_c, 0, 64, 65
1, 519329, Control_c, 0, 64, 65
1, 519344, Control_c, 0, 64, 66
1, 519359, Control_c, 0, 64, 68
1, 519373, Control_c, 0, 64, 69
1, 519388, Control_c, 0, 64, 71
1, 519403, Control_c, 0, 64, 72
1, 519418, Control_c, 0, 64, 74
1, 519433, Control_c, 0, 64, 76
1, 519447, Control_c, 0, 64, 78
1, 519462, Control_c, 0, 64, 81
1, 519485, Control_c, 0, 64, 85
1, 519499, Control_c, 0, 64, 89
1, 519514, Control_c, 0, 64, 93
1, 519529, Control_c, 0, 64, 98
1, 519544, Control_c, 0, 64, 106
1, 519559, Control_c, 0, 64, 125
1, 519574, Control_c, 0, 64, 127
1, 519607, Note_on_c, 0, 61, 62
1, 519718, Poly_aftertouch_c, 0, 64, 127
1, 520234, Note_on_c, 0, 59, 75
1, 520302, Note_off_c, 0, 61, 62
1, 520346, Poly_aftertouch_c, 0, 64, 0
1, 520397, Control_c, 0, 64, 125
1, 520408, Note_on_c, 0, 61, 84
1, 520411, Control_c, 0, 64, 105
1, 520426, Control_c, 0, 64, 98
1, 520441, Control_c, 0, 64, 93
1, 520456, Control_c, 0, 64, 88
1, 520471, Control_c, 0, 64, 83
1, 520485, Control_c, 0, 64, 78
1, 520500, Control_c, 0, 64, 74
1, 520515, Control_c, 0, 64, 72
1, 520529, Control_c, 0, 64, 71
1, 520544, Control_c, 0, 64, 69
1, 520546, Note_off_c, 0, 59, 38
1, 520559, Control_c, 0, 64, 67
1, 520574, Control_c, 0, 64, 65
1, 520589, Control_c, 0, 64, 64
1, 520603, Control_c, 0, 64, 63
1, 520618, Control_c, 0, 64, 62
1, 520633, Control_c, 0, 64, 60
1, 520648, Control_c, 0, 64, 56
1, 520662, Control_c, 0, 64, 50
1, 520677, Control_c, 0, 64, 42
1, 520692, Control_c, 0, 64, 39
1, 520722, Control_c, 0, 64, 39
1, 520737, Control_c, 0, 64, 42
1, 520751, Control_c, 0, 64, 46
1, 520766, Control_c, 0, 64, 50
1, 520782, Control_c, 0, 64, 54
1, 520797, Control_c, 0, 64, 56
1, 520812, Control_c, 0, 64, 58
1, 520826, Control_c, 0, 64, 60
1, 520841, Control_c, 0, 64, 63
1, 520856, Control_c, 0, 64, 65
1, 520871, Control_c, 0, 64, 69
1, 520886, Control_c, 0, 64, 74
1, 520900, Control_c, 0, 64, 81
1, 520915, Control_c, 0, 64, 90
1, 520930, Control_c, 0, 64, 102
1, 520945, Control_c, 0, 64, 127
1, 521118, Note_on_c, 0, 62, 75
1, 521160, Control_c, 0, 64, 117
1, 521175, Control_c, 0, 64, 106
1, 521190, Control_c, 0, 64, 98
1, 521205, Control_c, 0, 64, 92
1, 521219, Control_c, 0, 64, 87
1, 521234, Control_c, 0, 64, 83
1, 521249, Control_c, 0, 64, 79
1, 521264, Control_c, 0, 64, 76
1, 521278, Control_c, 0, 64, 73
1, 521285, Note_off_c, 0, 61, 55
1, 521293, Control_c, 0, 64, 71
1, 521308, Control_c, 0, 64, 68
1, 521323, Control_c, 0, 64, 67
1, 521338, Control_c, 0, 64, 66
1, 521352, Control_c, 0, 64, 64
1, 521367, Control_c, 0, 64, 63
1, 521382, Control_c, 0, 64, 61
1, 521397, Control_c, 0, 64, 58
1, 521412, Control_c, 0, 64, 55
1, 521426, Control_c, 0, 64, 51
1, 521441, Control_c, 0, 64, 45
1, 521456, Control_c, 0, 64, 37
1, 521471, Control_c, 0, 64, 35
1, 521500, Control_c, 0, 64, 37
1, 521515, Control_c, 0, 64, 42
1, 521530, Control_c, 0, 64, 48
1, 521545, Control_c, 0, 64, 51
1, 521559, Control_c, 0, 64, 53
1, 521575, Control_c, 0, 64, 56
1, 521590, Control_c, 0, 64, 59
1, 521605, Control_c, 0, 64, 61
1, 521620, Control_c, 0, 64, 64
1, 521635, Control_c, 0, 64, 66
1, 521649, Control_c, 0, 64, 68
1, 521664, Control_c, 0, 64, 72
1, 521679, Control_c, 0, 64, 76
1, 521694, Control_c, 0, 64, 82
1, 521708, Control_c, 0, 64, 89
1, 521731, Control_c, 0, 64, 96
1, 521746, Control_c, 0, 64, 105
1, 521761, Control_c, 0, 64, 127
1, 522152, Note_on_c, 0, 67, 46
1, 522168, Note_on_c, 0, 55, 39
1, 522185, Note_on_c, 0, 64, 36
1, 522200, Note_on_c, 0, 47, 33
1, 522202, Note_on_c, 0, 40, 35
1, 522544, Note_off_c, 0, 62, 59
1, 522919, Note_on_c, 0, 61, 57
1, 523552, Note_on_c, 0, 59, 65
1, 523625, Poly_aftertouch_c, 0, 65, 127
1, 523697, Note_off_c, 0, 61, 59
1, 523838, Note_on_c, 0, 61, 68
1, 523960, Note_off_c, 0, 59, 58
1, 524111, Poly_aftertouch_c, 0, 65, 0
1, 524144, Note_on_c, 0, 59, 74
1, 524148, Poly_aftertouch_c, 0, 65, 127
1, 524242, Note_off_c, 0, 61, 60
1, 524296, Note_off_c, 0, 59, 64
1, 524349, Note_on_c, 0, 61, 82
1, 524388, Poly_aftertouch_c, 0, 65, 0
1, 524425, Poly_aftertouch_c, 0, 65, 127
1, 524539, Note_off_c, 0, 61, 59
1, 524565, Poly_aftertouch_c, 0, 65, 0
1, 524685, Note_on_c, 0, 62, 71
1, 524702, Control_c, 0, 64, 110
1, 524725, Control_c, 0, 64, 100
1, 524740, Control_c, 0, 64, 90
1, 524755, Control_c, 0, 64, 81
1, 524770, Control_c, 0, 64, 75
1, 524785, Control_c, 0, 64, 70
1, 524799, Control_c, 0, 64, 67
1, 524814, Control_c, 0, 64, 63
1, 524829, Control_c, 0, 64, 57
1, 524844, Control_c, 0, 64, 46
1, 524859, Control_c, 0, 64, 29
1, 524874, Control_c, 0, 64, 0
1, 524932, Control_c, 0, 64, 18
1, 524947, Control_c, 0, 64, 36
1, 524962, Control_c, 0, 64, 50
1, 524977, Control_c, 0, 64, 61
1, 524991, Control_c, 0, 64, 66
1, 525006, Control_c, 0, 64, 72
1, 525021, Control_c, 0, 64, 82
1, 525034, Note_off_c, 0, 67, 37
1, 525036, Control_c, 0, 64, 97
1, 525051, Control_c, 0, 64, 127
1, 525053, Note_off_c, 0, 64, 51
1, 525110, Note_off_c, 0, 40, 37
1, 525134, Note_off_c, 0, 47, 37
1, 525160, Note_off_c, 0, 55, 42
1, 525645, Note_on_c, 0, 67, 38
1, 525646, Note_on_c, 0, 47, 33
1, 525676, Note_on_c, 0, 40, 34
1, 525677, Note_on_c, 0, 55, 37
1, 525691, Note_on_c, 0, 64, 29
1, 525956, Note_off_c, 0, 62, 53
1, 526511, Note_on_c, 0, 61, 42
1, 526579, Control_c, 0, 64, 125
1, 526594, Control_c, 0, 64, 108
1, 526609, Control_c, 0, 64, 101
1, 526624, Control_c, 0, 64, 95
1, 526639, Control_c, 0, 64, 90
1, 526653, Control_c, 0, 64, 85
1, 526668, Control_c, 0, 64, 81
1, 526683, Control_c, 0, 64, 78
1, 526698, Control_c, 0, 64, 75
1, 526712, Control_c, 0, 64, 73
1, 526727, Control_c, 0, 64, 71
1, 526742, Control_c, 0, 64, 70
1, 526757, Control_c, 0, 64, 68
1, 526771, Control_c, 0, 64, 66
1, 526786, Control_c, 0, 64, 65
1, 526801, Control_c, 0, 64, 64
1, 526816, Control_c, 0, 64, 63
1, 526831, Control_c, 0, 64, 62
1, 526845, Control_c, 0, 64, 61
1, 526860, Control_c, 0, 64, 60
1, 526905, Control_c, 0, 64, 60
1, 526919, Control_c, 0, 64, 61
1, 526934, Control_c, 0, 64, 62
1, 526949, Control_c, 0, 64, 63
1, 526971, Control_c, 0, 64, 64
1, 526986, Control_c, 0, 64, 64
1, 527001, Control_c, 0, 64, 66
1, 527016, Control_c, 0, 64, 68
1, 527031, Control_c, 0, 64, 71
1, 527045, Control_c, 0, 64, 76
1, 527060, Control_c, 0, 64, 82
1, 527075, Control_c, 0, 64, 90
1, 527090, Control_c, 0, 64, 98
1, 527104, Control_c, 0, 64, 108
1, 527119, Control_c, 0, 64, 127
1, 527243, Note_on_c, 0, 59, 49
1, 527299, Note_off_c, 0, 61, 56
1, 527402, Control_c, 0, 64, 122
1, 527417, Control_c, 0, 64, 115
1, 527432, Control_c, 0, 64, 110
1, 527446, Note_on_c, 0, 61, 52
1, 527447, Control_c, 0, 64, 106
1, 527461, Control_c, 0, 64, 101
1, 527476, Control_c, 0, 64, 97
1, 527491, Control_c, 0, 64, 92
1, 527500, Note_off_c, 0, 59, 38
1, 527506, Control_c, 0, 64, 88
1, 527520, Control_c, 0, 64, 85
1, 527535, Control_c, 0, 64, 82
1, 527550, Control_c, 0, 64, 78
1, 527565, Control_c, 0, 64, 75
1, 527580, Control_c, 0, 64, 71
1, 527594, Control_c, 0, 64, 69
1, 527609, Control_c, 0, 64, 66
1, 527624, Control_c, 0, 64, 64
1, 527639, Control_c, 0, 64, 60
1, 527654, Control_c, 0, 64, 54
1, 527668, Control_c, 0, 64, 48
1, 527683, Control_c, 0, 64, 47
1, 527698, Control_c, 0, 64, 47
1, 527720, Control_c, 0, 64, 49
1, 527735, Control_c, 0, 64, 51
1, 527750, Control_c, 0, 64, 55
1, 527765, Control_c, 0, 64, 58
1, 527780, Control_c, 0, 64, 61
1, 527794, Control_c, 0, 64, 64
1, 527809, Control_c, 0, 64, 67
1, 527824, Control_c, 0, 64, 71
1, 527839, Control_c, 0, 64, 77
1, 527852, Note_off_c, 0, 61, 52
1, 527854, Control_c, 0, 64, 84
1, 527868, Control_c, 0, 64, 92
1, 527883, Control_c, 0, 64, 97
1, 527898, Control_c, 0, 64, 103
1, 527912, Control_c, 0, 64, 110
1, 527927, Control_c, 0, 64, 127
1, 528314, Control_c, 0, 64, 117
1, 528329, Control_c, 0, 64, 110
1, 528343, Control_c, 0, 64, 107
1, 528347, Note_on_c, 0, 62, 39
1, 528358, Control_c, 0, 64, 102
1, 528373, Control_c, 0, 64, 97
1, 528388, Control_c, 0, 64, 92
1, 528403, Control_c, 0, 64, 87
1, 528417, Control_c, 0, 64, 84
1, 528432, Control_c, 0, 64, 80
1, 528447, Control_c, 0, 64, 76
1, 528469, Control_c, 0, 64, 71
1, 528484, Control_c, 0, 64, 64
1, 528499, Control_c, 0, 64, 54
1, 528514, Control_c, 0, 64, 42
1, 528529, Control_c, 0, 64, 41
1, 528558, Control_c, 0, 64, 43
1, 528573, Control_c, 0, 64, 48
1, 528588, Control_c, 0, 64, 52
1, 528603, Control_c, 0, 64, 58
1, 528617, Control_c, 0, 64, 62
1, 528632, Control_c, 0, 64, 65
1, 528647, Control_c, 0, 64, 69
1, 528662, Control_c, 0, 64, 75
1, 528677, Control_c, 0, 64, 83
1, 528691, Control_c, 0, 64, 93
1, 528706, Control_c, 0, 64, 102
1, 528721, Control_c, 0, 64, 111
1, 528734, Note_off_c, 0, 67, 29
1, 528736, Control_c, 0, 64, 127
1, 528872, Note_off_c, 0, 40, 38
1, 528923, Note_off_c, 0, 47, 28
1, 528955, Note_off_c, 0, 55, 25
1, 528988, Control_c, 0, 64, 119
1, 529003, Control_c, 0, 64, 113
1, 529018, Control_c, 0, 64, 108
1, 529033, Control_c, 0, 64, 104
1, 529047, Control_c, 0, 64, 102
1, 529062, Control_c, 0, 64, 100
1, 529077, Control_c, 0, 64, 98
1, 529092, Control_c, 0, 64, 95
1, 529107, Control_c, 0, 64, 93
1, 529122, Control_c, 0, 64, 90
1, 529137, Control_c, 0, 64, 88
1, 529152, Control_c, 0, 64, 86
1, 529166, Control_c, 0, 64, 84
1, 529181, Control_c, 0, 64, 82
1, 529196, Control_c, 0, 64, 81
1, 529218, Control_c, 0, 64, 79
1, 529233, Control_c, 0, 64, 78
1, 529247, Control_c, 0, 64, 77
1, 529262, Control_c, 0, 64, 76
1, 529277, Control_c, 0, 64, 74
1, 529292, Control_c, 0, 64, 73
1, 529307, Control_c, 0, 64, 72
1, 529322, Control_c, 0, 64, 71
1, 529336, Control_c, 0, 64, 70
1, 529344, Note_off_c, 0, 64, 26
1, 529351, Control_c, 0, 64, 70
1, 529366, Control_c, 0, 64, 69
1, 529381, Control_c, 0, 64, 68
1, 529396, Control_c, 0, 64, 68
1, 529411, Control_c, 0, 64, 67
1, 529426, Control_c, 0, 64, 66
1, 529440, Control_c, 0, 64, 66
1, 529470, Control_c, 0, 64, 65
1, 529485, Control_c, 0, 64, 64
1, 529500, Control_c, 0, 64, 64
1, 529529, Control_c, 0, 64, 63
1, 529560, Control_c, 0, 64, 63
1, 529575, Control_c, 0, 64, 62
1, 529619, Control_c, 0, 64, 62
1, 529649, Control_c, 0, 64, 61
1, 529693, Control_c, 0, 64, 61
1, 529782, Control_c, 0, 64, 60
1, 529915, Control_c, 0, 64, 60
1, 530419, Note_on_c, 0, 61, 29
1, 530676, Note_off_c, 0, 62, 54
1, 530679, Control_c, 0, 64, 59
1, 530731, Control_c, 0, 64, 59
1, 530745, Control_c, 0, 64, 58
1, 530760, Control_c, 0, 64, 58
1, 530775, Control_c, 0, 64, 57
1, 530834, Control_c, 0, 64, 57
1, 530952, Control_c, 0, 64, 57
1, 530982, Control_c, 0, 64, 58
1, 530997, Control_c, 0, 64, 58
1, 531027, Control_c, 0, 64, 59
1, 531042, Control_c, 0, 64, 59
1, 531056, Control_c, 0, 64, 60
1, 531086, Control_c, 0, 64, 60
1, 531101, Control_c, 0, 64, 61
1, 531116, Control_c, 0, 64, 61
1, 531131, Control_c, 0, 64, 62
1, 531145, Control_c, 0, 64, 63
1, 531161, Control_c, 0, 64, 63
1, 531176, Control_c, 0, 64, 64
1, 531191, Control_c, 0, 64, 65
1, 531205, Control_c, 0, 64, 66
1, 531220, Control_c, 0, 64, 67
1, 531235, Control_c, 0, 64, 69
1, 531250, Control_c, 0, 64, 71
1, 531265, Control_c, 0, 64, 73
1, 531280, Control_c, 0, 64, 75
1, 531295, Control_c, 0, 64, 78
1, 531309, Control_c, 0, 64, 80
1, 531324, Control_c, 0, 64, 83
1, 531339, Control_c, 0, 64, 86
1, 531353, Control_c, 0, 64, 89
1, 531368, Control_c, 0, 64, 92
1, 531383, Control_c, 0, 64, 96
1, 531398, Control_c, 0, 64, 103
1, 531413, Control_c, 0, 64, 115
1, 531427, Control_c, 0, 64, 127
1, 531775, Note_off_c, 0, 61, 34
1, 532243, Control_c, 0, 67, 12
1, 532258, Control_c, 0, 67, 19
1, 532273, Control_c, 0, 67, 24
1, 532288, Control_c, 0, 67, 29
1, 532302, Control_c, 0, 67, 34
1, 532317, Control_c, 0, 67, 39
1, 532332, Control_c, 0, 67, 43
1, 532347, Control_c, 0, 67, 48
1, 532362, Control_c, 0, 67, 53
1, 532377, Control_c, 0, 67, 57
1, 532391, Control_c, 0, 67, 61
1, 532406, Control_c, 0, 67, 66
1, 532421, Control_c, 0, 67, 70
1, 532436, Control_c, 0, 67, 74
1, 532451, Control_c, 0, 67, 79
1, 532465, Control_c, 0, 67, 84
1, 532480, Control_c, 0, 67, 89
1, 532495, Control_c, 0, 67, 92
1, 532510, Control_c, 0, 67, 96
1, 532525, Control_c, 0, 67, 99
1, 532539, Control_c, 0, 67, 104
1, 532554, Control_c, 0, 67, 108
1, 532569, Control_c, 0, 67, 111
1, 532583, Control_c, 0, 67, 114
1, 532598, Control_c, 0, 67, 117
1, 532613, Control_c, 0, 67, 120
1, 532628, Control_c, 0, 67, 124
1, 532643, Control_c, 0, 67, 127
1, 532924, Note_on_c, 0, 35, 32
1, 532925, Note_on_c, 0, 47, 28
1, 532940, Control_c, 0, 64, 125
1, 532950, Note_on_c, 0, 59, 37
1, 532962, Control_c, 0, 64, 102
1, 532967, Note_on_c, 0, 54, 36
1, 532972, Note_on_c, 0, 50, 37
1, 532977, Control_c, 0, 64, 89
1, 532992, Control_c, 0, 64, 82
1, 533000, Note_off_c, 0, 47, 55
1, 533007, Control_c, 0, 64, 77
1, 533021, Control_c, 0, 64, 74
1, 533036, Control_c, 0, 64, 70
1, 533051, Note_off_c, 0, 35, 36
1, 533051, Control_c, 0, 64, 67
1, 533066, Control_c, 0, 64, 64
1, 533081, Control_c, 0, 64, 64
1, 533095, Control_c, 0, 64, 63
1, 533110, Control_c, 0, 64, 62
1, 533125, Control_c, 0, 64, 61
1, 533140, Control_c, 0, 64, 60
1, 533155, Control_c, 0, 64, 60
1, 533170, Control_c, 0, 64, 59
1, 533185, Control_c, 0, 64, 59
1, 533200, Control_c, 0, 64, 58
1, 533214, Control_c, 0, 64, 57
1, 533229, Control_c, 0, 64, 57
1, 533244, Control_c, 0, 64, 56
1, 533259, Control_c, 0, 64, 55
1, 533274, Control_c, 0, 64, 55
1, 533288, Control_c, 0, 64, 54
1, 533303, Control_c, 0, 64, 54
1, 533333, Control_c, 0, 64, 53
1, 533348, Control_c, 0, 64, 52
1, 533362, Control_c, 0, 64, 51
1, 533377, Control_c, 0, 64, 50
1, 533392, Control_c, 0, 64, 50
1, 533406, Control_c, 0, 64, 49
1, 533421, Control_c, 0, 64, 48
1, 533436, Control_c, 0, 64, 47
1, 533451, Control_c, 0, 64, 45
1, 533466, Control_c, 0, 64, 43
1, 533480, Control_c, 0, 64, 41
1, 533490, Note_off_c, 0, 50, 53
1, 533495, Control_c, 0, 64, 39
1, 533501, Note_on_c, 0, 42, 39
1, 533510, Control_c, 0, 64, 33
1, 533519, Note_on_c, 0, 30, 32
1, 533525, Control_c, 0, 64, 25
1, 533539, Control_c, 0, 64, 13
1, 533556, Control_c, 0, 64, 0
1, 533596, Note_off_c, 0, 30, 44
1, 533605, Note_off_c, 0, 59, 58
1, 533613, Note_off_c, 0, 42, 37
1, 533620, Note_on_c, 0, 58, 55
1, 533640, Note_on_c, 0, 49, 46
1, 533691, Note_off_c, 0, 54, 44
1, 533737, Note_off_c, 0, 49, 57
1, 533749, Note_off_c, 0, 58, 54
1, 533802, Note_on_c, 0, 43, 39
1, 533802, Note_on_c, 0, 50, 57
1, 533804, Note_on_c, 0, 59, 55
1, 533805, Note_on_c, 0, 31, 41
1, 533818, Note_on_c, 0, 55, 41
1, 533841, Note_off_c, 0, 43, 63
1, 533849, Note_off_c, 0, 31, 61
1, 534127, Note_on_c, 0, 42, 48
1, 534130, Note_on_c, 0, 30, 48
1, 534174, Note_off_c, 0, 30, 62
1, 534176, Note_off_c, 0, 42, 58
1, 534249, Note_off_c, 0, 59, 58
1, 534437, Note_on_c, 0, 61, 48
1, 534439, Note_on_c, 0, 52, 46
1, 534458, Note_on_c, 0, 31, 43
1, 534465, Note_on_c, 0, 43, 30
1, 534497, Note_off_c, 0, 43, 49
1, 534505, Note_off_c, 0, 31, 61
1, 534529, Note_off_c, 0, 50, 52
1, 534777, Note_on_c, 0, 28, 50
1, 534780, Note_on_c, 0, 40, 46
1, 534810, Note_off_c, 0, 28, 56
1, 534812, Note_off_c, 0, 40, 56
1, 535087, Note_on_c, 0, 43, 60
1, 535088, Note_on_c, 0, 31, 64
1, 535117, Note_off_c, 0, 43, 63
1, 535125, Note_off_c, 0, 31, 65
1, 535438, Note_on_c, 0, 23, 52
1, 535447, Note_on_c, 0, 35, 43
1, 535476, Note_off_c, 0, 23, 62
1, 535480, Note_off_c, 0, 35, 57
1, 535528, Note_off_c, 0, 55, 36
1, 535542, Note_off_c, 0, 61, 62
1, 535569, Note_off_c, 0, 52, 63
1, 535736, Note_on_c, 0, 59, 61
1, 535738, Note_on_c, 0, 35, 41
1, 535742, Note_on_c, 0, 47, 36
1, 535742, Note_on_c, 0, 50, 65
1, 535747, Note_on_c, 0, 54, 55
1, 535782, Note_off_c, 0, 47, 52
1, 535809, Note_off_c, 0, 35, 56
1, 536049, Note_off_c, 0, 50, 64
1, 536069, Note_on_c, 0, 42, 58
1, 536072, Note_on_c, 0, 30, 55
1, 536164, Note_on_c, 0, 58, 68
1, 536167, Note_on_c, 0, 49, 65
1, 536178, Note_off_c, 0, 42, 37
1, 536190, Note_off_c, 0, 30, 37
1, 536204, Note_off_c, 0, 59, 56
1, 536297, Note_off_c, 0, 49, 59
1, 536330, Note_on_c, 0, 31, 54
1, 536333, Note_on_c, 0, 43, 44
1, 536371, Note_on_c, 0, 50, 66
1, 536371, Note_on_c, 0, 55, 49
1, 536372, Note_on_c, 0, 59, 66
1, 536398, Note_off_c, 0, 54, 37
1, 536415, Note_off_c, 0, 58, 59
1, 536475, Control_c, 0, 64, 37
1, 536490, Control_c, 0, 64, 52
1, 536504, Control_c, 0, 64, 59
1, 536519, Control_c, 0, 64, 63
1, 536527, Note_off_c, 0, 43, 37
1, 536534, Note_off_c, 0, 31, 55
1, 536534, Control_c, 0, 64, 65
1, 536543, Note_off_c, 0, 50, 64
1, 536549, Control_c, 0, 64, 68
1, 536564, Control_c, 0, 64, 72
1, 536578, Control_c, 0, 64, 78
1, 536593, Control_c, 0, 64, 85
1, 536608, Control_c, 0, 64, 92
1, 536618, Note_on_c, 0, 58, 76
1, 536622, Control_c, 0, 64, 94
1, 536628, Note_on_c, 0, 49, 76
1, 536661, Note_off_c, 0, 59, 55
1, 536682, Control_c, 0, 64, 93
1, 536704, Control_c, 0, 64, 91
1, 536719, Control_c, 0, 64, 88
1, 536728, Note_on_c, 0, 42, 72
1, 536729, Note_on_c, 0, 30, 66
1, 536734, Control_c, 0, 64, 85
1, 536749, Control_c, 0, 64, 81
1, 536765, Control_c, 0, 64, 74
1, 536780, Control_c, 0, 64, 66
1, 536792, Note_off_c, 0, 49, 60
1, 536795, Control_c, 0, 64, 59
1, 536809, Control_c, 0, 64, 57
1, 536821, Note_on_c, 0, 59, 71
1, 536825, Note_on_c, 0, 50, 77
1, 536853, Control_c, 0, 64, 58
1, 536868, Control_c, 0, 64, 59
1, 536884, Control_c, 0, 64, 61
1, 536893, Note_off_c, 0, 30, 62
1, 536899, Control_c, 0, 64, 64
1, 536914, Control_c, 0, 64, 68
1, 536917, Note_off_c, 0, 59, 63
1, 536920, Note_off_c, 0, 42, 58
1, 536928, Control_c, 0, 64, 73
1, 536943, Control_c, 0, 64, 80
1, 536958, Control_c, 0, 64, 85
1, 536973, Control_c, 0, 64, 86
1, 536988, Control_c, 0, 64, 85
1, 537002, Control_c, 0, 64, 83
1, 537017, Control_c, 0, 64, 81
1, 537031, Note_on_c, 0, 43, 49
1, 537032, Control_c, 0, 64, 78
1, 537036, Note_on_c, 0, 31, 53
1, 537037, Note_on_c, 0, 52, 73
1, 537042, Note_on_c, 0, 61, 68
1, 537047, Control_c, 0, 64, 75
1, 537061, Control_c, 0, 64, 72
1, 537076, Control_c, 0, 64, 68
1, 537077, Note_off_c, 0, 43, 60
1, 537085, Note_off_c, 0, 50, 58
1, 537091, Note_off_c, 0, 31, 62
1, 537091, Control_c, 0, 64, 64
1, 537106, Control_c, 0, 64, 61
1, 537120, Control_c, 0, 64, 59
1, 537135, Control_c, 0, 64, 58
1, 537150, Control_c, 0, 64, 56
1, 537165, Control_c, 0, 64, 53
1, 537179, Control_c, 0, 64, 49
1, 537194, Control_c, 0, 64, 45
1, 537209, Control_c, 0, 64, 42
1, 537224, Control_c, 0, 64, 40
1, 537239, Control_c, 0, 64, 38
1, 537254, Control_c, 0, 64, 34
1, 537269, Control_c, 0, 64, 32
1, 537284, Control_c, 0, 64, 31
1, 537298, Control_c, 0, 64, 30
1, 537334, Note_on_c, 0, 40, 67
1, 537336, Note_on_c, 0, 28, 70
1, 537367, Note_off_c, 0, 40, 65
1, 537370, Note_off_c, 0, 28, 62
1, 537468, Control_c, 0, 64, 29
1, 537483, Control_c, 0, 64, 23
1, 537498, Control_c, 0, 64, 0
1, 537646, Note_on_c, 0, 31, 77
1, 537646, Note_on_c, 0, 43, 76
1, 537669, Note_off_c, 0, 43, 66
1, 537685, Note_off_c, 0, 31, 64
1, 537993, Note_on_c, 0, 23, 55
1, 537995, Note_on_c, 0, 35, 56
1, 538004, Note_off_c, 0, 55, 31
1, 538030, Note_off_c, 0, 23, 63
1, 538036, Note_off_c, 0, 58, 1
1, 538045, Note_off_c, 0, 35, 62
1, 538085, Note_off_c, 0, 52, 64
1, 538292, Note_on_c, 0, 47, 40
1, 538306, Note_on_c, 0, 35, 37
1, 538310, Note_on_c, 0, 59, 43
1, 538318, Note_on_c, 0, 54, 45
1, 538328, Note_on_c, 0, 50, 55
1, 538357, Note_off_c, 0, 61, 53
1, 538367, Control_c, 0, 64, 26
1, 538381, Control_c, 0, 64, 45
1, 538396, Control_c, 0, 64, 54
1, 538411, Control_c, 0, 64, 59
1, 538415, Note_off_c, 0, 47, 55
1, 538425, Control_c, 0, 64, 62
1, 538440, Control_c, 0, 64, 64
1, 538455, Control_c, 0, 64, 68
1, 538464, Note_off_c, 0, 50, 61
1, 538470, Control_c, 0, 64, 74
1, 538485, Control_c, 0, 64, 81
1, 538494, Note_off_c, 0, 35, 39
1, 538500, Control_c, 0, 64, 85
1, 538515, Control_c, 0, 64, 88
1, 538573, Note_on_c, 0, 52, 76
1, 538574, Control_c, 0, 64, 87
1, 538579, Note_on_c, 0, 61, 70
1, 538589, Control_c, 0, 64, 87
1, 538604, Control_c, 0, 64, 85
1, 538619, Control_c, 0, 64, 84
1, 538633, Control_c, 0, 64, 80
1, 538636, Note_off_c, 0, 54, 55
1, 538648, Control_c, 0, 64, 74
1, 538663, Control_c, 0, 64, 66
1, 538678, Control_c, 0, 64, 60
1, 538688, Note_on_c, 0, 38, 65
1, 538693, Control_c, 0, 64, 54
1, 538696, Note_on_c, 0, 26, 62
1, 538702, Note_off_c, 0, 52, 63
1, 538707, Control_c, 0, 64, 54
1, 538722, Control_c, 0, 64, 55
1, 538737, Control_c, 0, 64, 56
1, 538752, Control_c, 0, 64, 58
1, 538767, Control_c, 0, 64, 61
1, 538781, Control_c, 0, 64, 64
1, 538791, Note_on_c, 0, 62, 78
1, 538796, Control_c, 0, 64, 68
1, 538798, Note_on_c, 0, 54, 89
1, 538806, Note_off_c, 0, 59, 55
1, 538811, Control_c, 0, 64, 75
1, 538825, Control_c, 0, 64, 83
1, 538840, Control_c, 0, 64, 93
1, 538855, Control_c, 0, 64, 99
1, 538857, Note_off_c, 0, 61, 52
1, 538870, Control_c, 0, 64, 103
1, 538881, Note_off_c, 0, 62, 60
1, 538881, Note_off_c, 0, 26, 29
1, 538885, Control_c, 0, 64, 104
1, 538891, Note_off_c, 0, 38, 46
1, 538899, Control_c, 0, 64, 104
1, 538914, Control_c, 0, 64, 105
1, 538929, Control_c, 0, 64, 106
1, 538952, Note_off_c, 0, 54, 60
1, 538996, Control_c, 0, 64, 106
1, 539011, Control_c, 0, 64, 104
1, 539025, Control_c, 0, 64, 103
1, 539040, Control_c, 0, 64, 101
1, 539055, Control_c, 0, 64, 99
1, 539070, Control_c, 0, 64, 96
1, 539071, Note_on_c, 0, 40, 58
1, 539081, Note_on_c, 0, 28, 52
1, 539085, Control_c, 0, 64, 93
1, 539099, Control_c, 0, 64, 90
1, 539113, Note_on_c, 0, 57, 83
1, 539113, Note_on_c, 0, 66, 78
1, 539114, Control_c, 0, 64, 86
1, 539129, Control_c, 0, 64, 83
1, 539132, Note_on_c, 0, 59, 53
1, 539133, Note_on_c, 0, 62, 58
1, 539144, Control_c, 0, 64, 79
1, 539160, Control_c, 0, 64, 75
1, 539171, Note_off_c, 0, 40, 59
1, 539175, Control_c, 0, 64, 71
1, 539182, Note_off_c, 0, 28, 56
1, 539190, Control_c, 0, 64, 69
1, 539204, Control_c, 0, 64, 68
1, 539219, Control_c, 0, 64, 66
1, 539234, Control_c, 0, 64, 65
1, 539248, Control_c, 0, 64, 63
1, 539263, Control_c, 0, 64, 61
1, 539278, Control_c, 0, 64, 60
1, 539293, Control_c, 0, 64, 59
1, 539308, Control_c, 0, 64, 58
1, 539322, Control_c, 0, 64, 55
1, 539337, Control_c, 0, 64, 52
1, 539352, Control_c, 0, 64, 50
1, 539367, Control_c, 0, 64, 48
1, 539382, Control_c, 0, 64, 45
1, 539397, Control_c, 0, 64, 41
1, 539412, Control_c, 0, 64, 34
1, 539427, Control_c, 0, 64, 22
1, 539442, Control_c, 0, 64, 0
1, 539445, Note_on_c, 0, 42, 81
1, 539448, Note_on_c, 0, 30, 76
1, 539477, Note_off_c, 0, 42, 68
1, 539486, Note_off_c, 0, 30, 65
1, 539749, Note_on_c, 0, 43, 81
1, 539752, Note_on_c, 0, 31, 76
1, 539792, Note_off_c, 0, 31, 64
1, 539793, Note_off_c, 0, 43, 61
1, 540042, Note_on_c, 0, 45, 80
1, 540046, Note_on_c, 0, 33, 76
1, 540085, Note_off_c, 0, 45, 59
1, 540086, Note_off_c, 0, 33, 62
1, 540169, Note_off_c, 0, 59, 59
1, 540236, Note_off_c, 0, 57, 60
1, 540345, Note_on_c, 0, 64, 62
1, 540348, Note_on_c, 0, 47, 39
1, 540350, Note_on_c, 0, 35, 42
1, 540352, Note_on_c, 0, 61, 55
1, 540357, Note_on_c, 0, 55, 59
1, 540377, Note_off_c, 0, 66, 47
1, 540381, Note_off_c, 0, 62, 55
1, 540418, Note_off_c, 0, 47, 47
1, 540446, Note_off_c, 0, 35, 55
1, 540582, Control_c, 0, 64, 23
1, 540596, Control_c, 0, 64, 42
1, 540611, Control_c, 0, 64, 54
1, 540627, Control_c, 0, 64, 58
1, 540642, Control_c, 0, 64, 60
1, 540652, Note_on_c, 0, 45, 37
1, 540655, Note_off_c, 0, 55, 57
1, 540655, Note_on_c, 0, 33, 43
1, 540657, Control_c, 0, 64, 62
1, 540671, Control_c, 0, 64, 64
1, 540686, Control_c, 0, 64, 67
1, 540688, Note_off_c, 0, 45, 56
1, 540701, Control_c, 0, 64, 70
1, 540716, Control_c, 0, 64, 74
1, 540731, Control_c, 0, 64, 76
1, 540734, Note_off_c, 0, 33, 61
1, 540747, Control_c, 0, 64, 77
1, 540769, Note_on_c, 0, 66, 61
1, 540776, Control_c, 0, 64, 77
1, 540786, Note_on_c, 0, 57, 60
1, 540791, Control_c, 0, 64, 76
1, 540804, Note_off_c, 0, 64, 54
1, 540806, Control_c, 0, 64, 76
1, 540820, Control_c, 0, 64, 75
1, 540834, Note_off_c, 0, 61, 61
1, 540835, Control_c, 0, 64, 74
1, 540850, Control_c, 0, 64, 73
1, 540859, Note_off_c, 0, 66, 61
1, 540865, Control_c, 0, 64, 72
1, 540874, Note_off_c, 0, 57, 63
1, 540880, Control_c, 0, 64, 72
1, 540894, Control_c, 0, 64, 71
1, 540909, Control_c, 0, 64, 69
1, 540924, Control_c, 0, 64, 68
1, 540939, Control_c, 0, 64, 67
1, 540954, Control_c, 0, 64, 65
1, 540958, Note_on_c, 0, 35, 34
1, 540960, Note_on_c, 0, 23, 44
1, 540965, Note_on_c, 0, 64, 54
1, 540968, Control_c, 0, 64, 65
1, 540980, Note_on_c, 0, 61, 41
1, 540983, Control_c, 0, 64, 64
1, 540990, Note_on_c, 0, 55, 47
1, 540998, Control_c, 0, 64, 63
1, 541007, Note_off_c, 0, 35, 59
1, 541013, Control_c, 0, 64, 62
1, 541021, Note_off_c, 0, 23, 60
1, 541028, Control_c, 0, 64, 61
1, 541042, Control_c, 0, 64, 60
1, 541057, Control_c, 0, 64, 59
1, 541072, Control_c, 0, 64, 59
1, 541087, Control_c, 0, 64, 58
1, 541102, Control_c, 0, 64, 56
1, 541117, Control_c, 0, 64, 55
1, 541132, Control_c, 0, 64, 53
1, 541147, Control_c, 0, 64, 52
1, 541162, Control_c, 0, 64, 51
1, 541176, Control_c, 0, 64, 49
1, 541198, Control_c, 0, 64, 47
1, 541213, Control_c, 0, 64, 46
1, 541227, Control_c, 0, 64, 43
1, 541242, Control_c, 0, 64, 41
1, 541257, Control_c, 0, 64, 38
1, 541272, Note_on_c, 0, 25, 59
1, 541272, Note_on_c, 0, 37, 57
1, 541272, Control_c, 0, 64, 36
1, 541287, Control_c, 0, 64, 36
1, 541302, Control_c, 0, 64, 34
1, 541313, Note_off_c, 0, 37, 61
1, 541317, Control_c, 0, 64, 33
1, 541332, Control_c, 0, 64, 33
1, 541333, Note_off_c, 0, 25, 59
1, 541346, Control_c, 0, 64, 32
1, 541361, Control_c, 0, 64, 31
1, 541427, Note_off_c, 0, 55, 61
1, 541480, Control_c, 0, 64, 31
1, 541575, Note_on_c, 0, 26, 51
1, 541575, Note_on_c, 0, 38, 47
1, 541575, Note_on_c, 0, 62, 52
1, 541579, Note_on_c, 0, 57, 40
1, 541585, Control_c, 0, 64, 30
1, 541597, Note_on_c, 0, 54, 51
1, 541615, Note_off_c, 0, 64, 55
1, 541618, Note_off_c, 0, 38, 61
1, 541629, Note_off_c, 0, 26, 60
1, 541703, Control_c, 0, 64, 30
1, 541806, Control_c, 0, 64, 29
1, 541823, Note_off_c, 0, 61, 36
1, 541867, Note_on_c, 0, 40, 64
1, 541868, Note_on_c, 0, 28, 68
1, 541905, Note_off_c, 0, 40, 65
1, 541910, Note_off_c, 0, 28, 64
1, 541925, Control_c, 0, 64, 29
1, 541947, Control_c, 0, 64, 28
1, 541977, Control_c, 0, 64, 28
1, 542080, Control_c, 0, 64, 27
1, 542125, Control_c, 0, 64, 27
1, 542169, Note_on_c, 0, 42, 77
1, 542171, Note_on_c, 0, 30, 73
1, 542215, Note_off_c, 0, 42, 62
1, 542226, Note_off_c, 0, 30, 62
1, 542340, Note_off_c, 0, 57, 37
1, 542366, Note_off_c, 0, 54, 53
1, 542375, Note_off_c, 0, 62, 58
1, 542393, Control_c, 0, 64, 26
1, 542422, Control_c, 0, 64, 26
1, 542437, Control_c, 0, 64, 25
1, 542466, Note_on_c, 0, 43, 81
1, 542466, Control_c, 0, 64, 25
1, 542469, Note_on_c, 0, 31, 77
1, 542496, Control_c, 0, 64, 24
1, 542526, Control_c, 0, 64, 24
1, 542546, Note_off_c, 0, 31, 62
1, 542558, Note_off_c, 0, 43, 61
1, 542570, Control_c, 0, 64, 23
1, 542600, Control_c, 0, 64, 23
1, 542756, Note_on_c, 0, 45, 65
1, 542768, Note_on_c, 0, 33, 59
1, 542785, Control_c, 0, 64, 24
1, 542800, Control_c, 0, 64, 27
1, 542805, Note_on_c, 0, 54, 80
1, 542810, Note_on_c, 0, 62, 75
1, 542815, Control_c, 0, 64, 30
1, 542829, Control_c, 0, 64, 34
1, 542844, Control_c, 0, 64, 40
1, 542859, Control_c, 0, 64, 45
1, 542873, Control_c, 0, 64, 50
1, 542888, Control_c, 0, 64, 56
1, 542903, Control_c, 0, 64, 61
1, 542918, Control_c, 0, 64, 64
1, 542923, Note_off_c, 0, 45, 58
1, 542928, Note_off_c, 0, 33, 60
1, 542933, Control_c, 0, 64, 67
1, 542947, Control_c, 0, 64, 71
1, 542962, Control_c, 0, 64, 78
1, 542977, Control_c, 0, 64, 86
1, 542992, Control_c, 0, 64, 94
1, 543007, Control_c, 0, 64, 101
1, 543022, Control_c, 0, 64, 109
1, 543032, Note_on_c, 0, 61, 86
1, 543037, Control_c, 0, 64, 115
1, 543044, Note_on_c, 0, 52, 85
1, 543066, Control_c, 0, 64, 108
1, 543076, Note_off_c, 0, 54, 64
1, 543081, Control_c, 0, 64, 98
1, 543090, Note_off_c, 0, 62, 61
1, 543096, Control_c, 0, 64, 88
1, 543108, Note_on_c, 0, 43, 79
1, 543111, Control_c, 0, 64, 77
1, 543117, Note_on_c, 0, 31, 68
1, 543126, Control_c, 0, 64, 67
1, 543141, Control_c, 0, 64, 60
1, 543142, Note_off_c, 0, 52, 64
1, 543156, Control_c, 0, 64, 56
1, 543171, Control_c, 0, 64, 57
1, 543186, Control_c, 0, 64, 59
1, 543201, Control_c, 0, 64, 61
1, 543216, Control_c, 0, 64, 64
1, 543219, Note_off_c, 0, 61, 54
1, 543224, Note_on_c, 0, 59, 84
1, 543226, Note_on_c, 0, 50, 92
1, 543230, Control_c, 0, 64, 69
1, 543245, Control_c, 0, 64, 79
1, 543252, Note_off_c, 0, 43, 57
1, 543260, Control_c, 0, 64, 98
1, 543275, Control_c, 0, 64, 127
1, 543295, Note_off_c, 0, 31, 61
1, 543344, Note_off_c, 0, 50, 60
1, 543454, Note_on_c, 0, 40, 66
1, 543464, Note_on_c, 0, 28, 61
1, 543512, Note_on_c, 0, 55, 73
1, 543512, Note_on_c, 0, 62, 84
1, 543519, Control_c, 0, 64, 108
1, 543520, Note_on_c, 0, 54, 89
1, 543534, Control_c, 0, 64, 95
1, 543546, Note_off_c, 0, 59, 60
1, 543549, Control_c, 0, 64, 86
1, 543563, Control_c, 0, 64, 80
1, 543578, Control_c, 0, 64, 76
1, 543593, Control_c, 0, 64, 72
1, 543597, Note_off_c, 0, 40, 59
1, 543608, Control_c, 0, 64, 69
1, 543612, Note_off_c, 0, 28, 57
1, 543621, Control_c, 0, 64, 66
1, 543636, Control_c, 0, 64, 64
1, 543651, Control_c, 0, 64, 62
1, 543666, Control_c, 0, 64, 61
1, 543681, Control_c, 0, 64, 59
1, 543695, Control_c, 0, 64, 57
1, 543710, Control_c, 0, 64, 56
1, 543725, Control_c, 0, 64, 54
1, 543740, Control_c, 0, 64, 53
1, 543755, Control_c, 0, 64, 51
1, 543770, Control_c, 0, 64, 47
1, 543785, Control_c, 0, 64, 43
1, 543800, Control_c, 0, 64, 40
1, 543814, Control_c, 0, 64, 39
1, 543829, Control_c, 0, 64, 38
1, 543844, Control_c, 0, 64, 38
1, 543853, Note_on_c, 0, 42, 86
1, 543856, Note_on_c, 0, 30, 80
1, 543889, Control_c, 0, 64, 36
1, 543894, Note_off_c, 0, 42, 62
1, 543903, Control_c, 0, 64, 29
1, 543907, Note_off_c, 0, 30, 62
1, 543918, Control_c, 0, 64, 12
1, 543933, Control_c, 0, 64, 0
1, 544098, Note_off_c, 0, 54, 62
1, 544140, Note_on_c, 0, 43, 70
1, 544140, Note_on_c, 0, 61, 77
1, 544146, Note_on_c, 0, 31, 66
1, 544152, Note_on_c, 0, 52, 76
1, 544170, Note_off_c, 0, 62, 62
1, 544199, Note_off_c, 0, 43, 61
1, 544204, Note_off_c, 0, 31, 63
1, 544431, Note_on_c, 0, 42, 79
1, 544436, Note_on_c, 0, 30, 73
1, 544470, Note_off_c, 0, 42, 63
1, 544480, Note_off_c, 0, 30, 63
1, 544656, Note_off_c, 0, 61, 60
1, 544660, Note_off_c, 0, 52, 64
1, 544668, Note_off_c, 0, 55, 61
1, 544723, Note_on_c, 0, 31, 54
1, 544724, Note_on_c, 0, 43, 55
1, 544727, Note_on_c, 0, 61, 66
1, 544739, Note_on_c, 0, 52, 60
1, 544741, Note_on_c, 0, 55, 45
1, 544777, Note_off_c, 0, 43, 62
1, 544801, Note_off_c, 0, 31, 61
1, 545028, Note_on_c, 0, 40, 62
1, 545029, Note_on_c, 0, 28, 63
1, 545067, Note_off_c, 0, 40, 66
1, 545073, Note_off_c, 0, 28, 64
1, 545317, Note_on_c, 0, 42, 66
1, 545320, Note_on_c, 0, 30, 60
1, 545360, Note_off_c, 0, 42, 61
1, 545365, Note_off_c, 0, 30, 63
1, 545502, Note_off_c, 0, 52, 61
1, 545617, Note_on_c, 0, 59, 57
1, 545621, Note_on_c, 0, 45, 45
1, 545623, Note_on_c, 0, 33, 45
1, 545630, Note_on_c, 0, 50, 54
1, 545640, Note_off_c, 0, 61, 60
1, 545664, Note_off_c, 0, 45, 60
1, 545674, Note_off_c, 0, 33, 61
1, 545703, Note_off_c, 0, 55, 45
1, 545816, Note_off_c, 0, 50, 64
1, 545839, Note_off_c, 0, 59, 59
1, 545932, Note_on_c, 0, 59, 43
1, 545934, Note_on_c, 0, 31, 43
1, 545936, Note_on_c, 0, 43, 38
1, 545948, Note_on_c, 0, 52, 39
1, 545970, Note_on_c, 0, 49, 37
1, 545970, Note_off_c, 0, 43, 56
1, 545994, Note_off_c, 0, 31, 60
1, 546243, Note_on_c, 0, 25, 49
1, 546251, Note_on_c, 0, 37, 40
1, 546290, Note_off_c, 0, 37, 60
1, 546292, Note_off_c, 0, 25, 62
1, 546359, Note_off_c, 0, 52, 56
1, 546403, Note_off_c, 0, 49, 47
1, 546580, Note_on_c, 0, 30, 43
1, 546583, Note_off_c, 0, 59, 35
1, 546584, Note_on_c, 0, 42, 42
1, 546587, Note_on_c, 0, 58, 41
1, 546604, Note_on_c, 0, 54, 38
1, 546608, Note_on_c, 0, 49, 26
1, 546638, Note_off_c, 0, 42, 59
1, 546655, Note_off_c, 0, 30, 59
1, 546906, Note_on_c, 0, 28, 58
1, 546906, Note_on_c, 0, 40, 54
1, 546961, Note_off_c, 0, 40, 62
1, 546980, Note_off_c, 0, 28, 60
1, 547250, Note_on_c, 0, 38, 64
1, 547252, Note_on_c, 0, 26, 64
1, 547320, Note_off_c, 0, 38, 62
1, 547331, Note_off_c, 0, 26, 62
1, 547365, Control_c, 0, 67, 123
1, 547380, Control_c, 0, 67, 117
1, 547395, Control_c, 0, 67, 114
1, 547410, Control_c, 0, 67, 109
1, 547423, Note_off_c, 0, 49, 38
1, 547425, Control_c, 0, 67, 103
1, 547429, Note_off_c, 0, 54, 42
1, 547430, Note_off_c, 0, 58, 31
1, 547439, Control_c, 0, 67, 94
1, 547454, Control_c, 0, 67, 86
1, 547469, Control_c, 0, 67, 78
1, 547484, Control_c, 0, 67, 71
1, 547499, Control_c, 0, 67, 66
1, 547514, Control_c, 0, 67, 59
1, 547529, Control_c, 0, 67, 52
1, 547543, Control_c, 0, 67, 44
1, 547558, Control_c, 0, 67, 36
1, 547573, Control_c, 0, 67, 26
1, 547588, Control_c, 0, 67, 17
1, 547603, Control_c, 0, 67, 8
1, 547605, Note_on_c, 0, 37, 67
1, 547606, Note_on_c, 0, 25, 67
1, 547617, Control_c, 0, 67, 0
1, 547694, Note_off_c, 0, 37, 59
1, 547721, Note_off_c, 0, 25, 57
1, 548040, Control_c, 0, 64, 19
1, 548055, Control_c, 0, 64, 29
1, 548070, Control_c, 0, 64, 35
1, 548084, Control_c, 0, 64, 40
1, 548099, Control_c, 0, 64, 44
1, 548105, Note_on_c, 0, 23, 55
1, 548111, Note_on_c, 0, 35, 48
1, 548115, Control_c, 0, 64, 48
1, 548125, Note_on_c, 0, 62, 71
1, 548130, Control_c, 0, 64, 52
1, 548141, Note_on_c, 0, 54, 51
1, 548145, Control_c, 0, 64, 55
1, 548146, Note_on_c, 0, 59, 55
1, 548153, Note_on_c, 0, 50, 54
1, 548159, Control_c, 0, 64, 57
1, 548174, Control_c, 0, 64, 60
1, 548189, Control_c, 0, 64, 62
1, 548204, Control_c, 0, 64, 64
1, 548219, Control_c, 0, 64, 67
1, 548233, Control_c, 0, 64, 72
1, 548248, Control_c, 0, 64, 82
1, 548263, Control_c, 0, 64, 99
1, 548278, Control_c, 0, 64, 127
1, 548411, Note_off_c, 0, 23, 53
1, 548465, Note_off_c, 0, 50, 57
1, 548516, Note_off_c, 0, 59, 53
1, 548538, Note_off_c, 0, 35, 39
1, 548572, Note_off_c, 0, 54, 63
1, 548767, Note_on_c, 0, 61, 83
1, 548772, Note_on_c, 0, 58, 79
1, 548804, Note_off_c, 0, 62, 62
1, 548892, Note_off_c, 0, 58, 58
1, 548927, Note_on_c, 0, 40, 65
1, 548934, Note_off_c, 0, 61, 62
1, 548936, Note_on_c, 0, 47, 61
1, 548979, Note_on_c, 0, 62, 84
1, 548990, Note_on_c, 0, 59, 79
1, 549002, Note_on_c, 0, 55, 68
1, 549101, Control_c, 0, 64, 105
1, 549115, Control_c, 0, 64, 88
1, 549130, Control_c, 0, 64, 77
1, 549145, Control_c, 0, 64, 69
1, 549160, Control_c, 0, 64, 63
1, 549175, Control_c, 0, 64, 54
1, 549189, Control_c, 0, 64, 47
1, 549204, Control_c, 0, 64, 41
1, 549219, Control_c, 0, 64, 35
1, 549234, Control_c, 0, 64, 34
1, 549264, Control_c, 0, 64, 34
1, 549279, Control_c, 0, 64, 38
1, 549294, Control_c, 0, 64, 43
1, 549308, Control_c, 0, 64, 49
1, 549323, Control_c, 0, 64, 54
1, 549338, Control_c, 0, 64, 59
1, 549353, Control_c, 0, 64, 64
1, 549368, Control_c, 0, 64, 68
1, 549382, Control_c, 0, 64, 73
1, 549397, Control_c, 0, 64, 83
1, 549412, Control_c, 0, 64, 100
1, 549434, Control_c, 0, 64, 127
1, 549615, Note_on_c, 0, 64, 82
1, 549634, Note_on_c, 0, 61, 69
1, 549732, Note_off_c, 0, 59, 54
1, 549803, Note_off_c, 0, 62, 32
1, 550142, Note_on_c, 0, 46, 75
1, 550193, Note_off_c, 0, 47, 61
1, 550316, Control_c, 0, 64, 101
1, 550332, Control_c, 0, 64, 86
1, 550337, Note_on_c, 0, 47, 72
1, 550347, Control_c, 0, 64, 74
1, 550361, Control_c, 0, 64, 65
1, 550376, Control_c, 0, 64, 56
1, 550391, Note_off_c, 0, 46, 58
1, 550391, Control_c, 0, 64, 49
1, 550420, Control_c, 0, 64, 52
1, 550435, Control_c, 0, 64, 56
1, 550450, Control_c, 0, 64, 60
1, 550465, Control_c, 0, 64, 63
1, 550480, Control_c, 0, 64, 71
1, 550495, Control_c, 0, 64, 88
1, 550509, Control_c, 0, 64, 127
1, 550528, Note_off_c, 0, 61, 60
1, 550579, Note_off_c, 0, 47, 61
1, 550606, Note_off_c, 0, 64, 58
1, 550623, Note_off_c, 0, 40, 36
1, 550795, Note_on_c, 0, 62, 83
1, 550799, Note_on_c, 0, 59, 71
1, 550837, Note_off_c, 0, 55, 60
1, 551044, Note_on_c, 0, 35, 69
1, 551049, Note_on_c, 0, 23, 67
1, 551100, Note_on_c, 0, 61, 80
1, 551110, Note_on_c, 0, 50, 66
1, 551111, Note_on_c, 0, 58, 76
1, 551124, Control_c, 0, 64, 109
1, 551139, Control_c, 0, 64, 77
1, 551152, Note_off_c, 0, 59, 61
1, 551154, Control_c, 0, 64, 63
1, 551169, Control_c, 0, 64, 44
1, 551180, Note_off_c, 0, 62, 55
1, 551183, Control_c, 0, 64, 41
1, 551198, Control_c, 0, 64, 50
1, 551213, Control_c, 0, 64, 57
1, 551228, Control_c, 0, 64, 66
1, 551243, Control_c, 0, 64, 78
1, 551251, Note_off_c, 0, 23, 55
1, 551258, Control_c, 0, 64, 127
1, 551258, Note_off_c, 0, 58, 61
1, 551328, Note_off_c, 0, 50, 60
1, 551374, Note_on_c, 0, 59, 87
1, 551383, Note_on_c, 0, 56, 83
1, 551386, Note_off_c, 0, 35, 54
1, 551425, Note_off_c, 0, 61, 61
1, 551449, Note_off_c, 0, 56, 64
1, 551535, Note_on_c, 0, 61, 93
1, 551553, Note_on_c, 0, 58, 82
1, 551586, Note_off_c, 0, 59, 60
1, 551734, Note_on_c, 0, 47, 65
1, 551742, Note_on_c, 0, 40, 60
1, 551785, Note_on_c, 0, 62, 85
1, 551799, Note_on_c, 0, 59, 71
1, 551806, Note_on_c, 0, 55, 66
1, 551809, Note_off_c, 0, 58, 62
1, 551843, Control_c, 0, 64, 109
1, 551846, Note_off_c, 0, 61, 61
1, 551858, Control_c, 0, 64, 96
1, 551873, Control_c, 0, 64, 88
1, 551888, Control_c, 0, 64, 80
1, 551902, Control_c, 0, 64, 75
1, 551917, Control_c, 0, 64, 70
1, 551933, Control_c, 0, 64, 64
1, 551948, Control_c, 0, 64, 56
1, 551963, Control_c, 0, 64, 44
1, 551978, Control_c, 0, 64, 38
1, 551993, Control_c, 0, 64, 37
1, 552022, Control_c, 0, 64, 37
1, 552037, Control_c, 0, 64, 40
1, 552052, Control_c, 0, 64, 45
1, 552067, Control_c, 0, 64, 52
1, 552081, Control_c, 0, 64, 58
1, 552096, Control_c, 0, 64, 64
1, 552111, Control_c, 0, 64, 69
1, 552125, Control_c, 0, 64, 77
1, 552140, Control_c, 0, 64, 92
1, 552155, Control_c, 0, 64, 127
1, 552208, Note_off_c, 0, 59, 63
1, 552234, Note_off_c, 0, 62, 59
1, 552364, Note_on_c, 0, 64, 78
1, 552383, Note_on_c, 0, 61, 64
1, 552542, Note_on_c, 0, 45, 78
1, 552578, Note_off_c, 0, 47, 61
1, 552713, Note_on_c, 0, 46, 85
1, 552799, Note_off_c, 0, 45, 55
1, 552890, Control_c, 0, 64, 120
1, 552904, Control_c, 0, 64, 102
1, 552919, Control_c, 0, 64, 94
1, 552934, Control_c, 0, 64, 89
1, 552948, Control_c, 0, 64, 85
1, 552963, Control_c, 0, 64, 83
1, 552964, Note_on_c, 0, 47, 72
1, 552978, Control_c, 0, 64, 81
1, 552993, Control_c, 0, 64, 77
1, 553008, Control_c, 0, 64, 74
1, 553023, Control_c, 0, 64, 70
1, 553038, Control_c, 0, 64, 67
1, 553052, Control_c, 0, 64, 65
1, 553067, Control_c, 0, 64, 63
1, 553082, Control_c, 0, 64, 59
1, 553096, Note_off_c, 0, 46, 61
1, 553097, Control_c, 0, 64, 53
1, 553112, Control_c, 0, 64, 42
1, 553127, Control_c, 0, 64, 24
1, 553142, Control_c, 0, 64, 0
1, 553223, Control_c, 0, 64, 26
1, 553237, Control_c, 0, 64, 40
1, 553252, Control_c, 0, 64, 48
1, 553267, Control_c, 0, 64, 54
1, 553282, Control_c, 0, 64, 61
1, 553285, Note_off_c, 0, 61, 57
1, 553297, Control_c, 0, 64, 65
1, 553312, Control_c, 0, 64, 70
1, 553319, Note_off_c, 0, 40, 48
1, 553327, Control_c, 0, 64, 81
1, 553342, Control_c, 0, 64, 106
1, 553356, Control_c, 0, 64, 127
1, 553385, Note_off_c, 0, 55, 53
1, 553423, Note_off_c, 0, 64, 61
1, 553628, Note_on_c, 0, 35, 41
1, 553676, Note_on_c, 0, 62, 55
1, 553691, Note_on_c, 0, 59, 45
1, 553698, Control_c, 0, 64, 125
1, 553702, Note_on_c, 0, 54, 48
1, 553713, Control_c, 0, 64, 99
1, 553727, Control_c, 0, 64, 86
1, 553742, Control_c, 0, 64, 73
1, 553757, Control_c, 0, 64, 64
1, 553771, Control_c, 0, 64, 52
1, 553786, Control_c, 0, 64, 43
1, 553801, Control_c, 0, 64, 42
1, 553816, Control_c, 0, 64, 45
1, 553831, Control_c, 0, 64, 52
1, 553845, Control_c, 0, 64, 57
1, 553860, Control_c, 0, 64, 63
1, 553875, Control_c, 0, 64, 69
1, 553890, Control_c, 0, 64, 81
1, 553905, Control_c, 0, 64, 127
1, 553916, Note_off_c, 0, 59, 61
1, 554060, Note_off_c, 0, 47, 53
1, 554086, Note_on_c, 0, 64, 75
1, 554103, Note_on_c, 0, 61, 66
1, 554131, Note_off_c, 0, 54, 46
1, 554145, Note_off_c, 0, 62, 55
1, 554187, Note_off_c, 0, 35, 39
1, 554230, Note_off_c, 0, 64, 61
1, 554319, Note_on_c, 0, 66, 90
1, 554333, Note_on_c, 0, 62, 79
1, 554380, Note_off_c, 0, 61, 60
1, 554473, Note_off_c, 0, 66, 60
1, 554486, Note_off_c, 0, 62, 55
1, 554647, Note_on_c, 0, 40, 51
1, 554652, Note_on_c, 0, 28, 48
1, 554709, Note_on_c, 0, 69, 79
1, 554727, Note_on_c, 0, 59, 53
1, 554728, Note_on_c, 0, 66, 58
1, 554740, Note_on_c, 0, 55, 46
1, 554758, Note_on_c, 0, 62, 48
1, 554823, Control_c, 0, 64, 119
1, 554838, Control_c, 0, 64, 100
1, 554853, Control_c, 0, 64, 91
1, 554868, Control_c, 0, 64, 84
1, 554883, Control_c, 0, 64, 78
1, 554898, Control_c, 0, 64, 71
1, 554913, Control_c, 0, 64, 66
1, 554927, Control_c, 0, 64, 61
1, 554942, Control_c, 0, 64, 56
1, 554957, Control_c, 0, 64, 49
1, 554972, Control_c, 0, 64, 41
1, 554987, Control_c, 0, 64, 38
1, 555016, Control_c, 0, 64, 39
1, 555031, Control_c, 0, 64, 42
1, 555046, Control_c, 0, 64, 47
1, 555061, Control_c, 0, 64, 51
1, 555075, Control_c, 0, 64, 55
1, 555090, Control_c, 0, 64, 58
1, 555105, Control_c, 0, 64, 62
1, 555121, Control_c, 0, 64, 65
1, 555136, Control_c, 0, 64, 69
1, 555150, Control_c, 0, 64, 76
1, 555165, Control_c, 0, 64, 86
1, 555180, Control_c, 0, 64, 101
1, 555195, Control_c, 0, 64, 127
1, 555381, Note_off_c, 0, 40, 56
1, 555491, Note_off_c, 0, 28, 33
1, 555596, Note_off_c, 0, 62, 31
1, 555682, Note_on_c, 0, 42, 69
1, 555692, Note_on_c, 0, 30, 59
1, 555781, Note_off_c, 0, 30, 60
1, 555796, Note_off_c, 0, 42, 62
1, 555859, Note_on_c, 0, 43, 82
1, 555865, Note_on_c, 0, 31, 74
1, 555875, Note_off_c, 0, 69, 35
1, 555914, Note_off_c, 0, 66, 49
1, 555953, Note_off_c, 0, 31, 61
1, 555975, Note_off_c, 0, 43, 62
1, 556112, Note_on_c, 0, 47, 76
1, 556130, Note_on_c, 0, 35, 62
1, 556150, Note_on_c, 0, 67, 67
1, 556159, Note_on_c, 0, 64, 54
1, 556171, Note_off_c, 0, 59, 0
1, 556208, Poly_aftertouch_c, 0, 59, 127
1, 556218, Control_c, 0, 64, 92
1, 556233, Control_c, 0, 64, 72
1, 556247, Control_c, 0, 64, 59
1, 556262, Control_c, 0, 64, 29
1, 556277, Control_c, 0, 64, 23
1, 556292, Control_c, 0, 64, 22
1, 556321, Control_c, 0, 64, 24
1, 556336, Control_c, 0, 64, 36
1, 556350, Control_c, 0, 64, 50
1, 556365, Control_c, 0, 64, 56
1, 556379, Control_c, 0, 64, 61
1, 556394, Control_c, 0, 64, 65
1, 556409, Control_c, 0, 64, 72
1, 556418, Poly_aftertouch_c, 0, 59, 0
1, 556424, Control_c, 0, 64, 89
1, 556439, Note_off_c, 0, 67, 61
1, 556439, Control_c, 0, 64, 127
1, 556502, Poly_aftertouch_c, 0, 36, 127
1, 556597, Note_on_c, 0, 66, 82
1, 556610, Note_on_c, 0, 62, 72
1, 556642, Note_off_c, 0, 35, 33
1, 556665, Note_off_c, 0, 47, 58
1, 556681, Poly_aftertouch_c, 0, 36, 0
1, 556709, Note_off_c, 0, 62, 61
1, 556765, Note_off_c, 0, 55, 53
1, 556785, Note_off_c, 0, 66, 55
1, 556796, Note_on_c, 0, 45, 71
1, 556810, Note_on_c, 0, 33, 61
1, 556838, Note_off_c, 0, 64, 0
1, 556862, Note_on_c, 0, 64, 26
1, 556867, Note_on_c, 0, 67, 81
1, 556877, Note_on_c, 0, 61, 65
1, 556884, Control_c, 0, 64, 101
1, 556886, Note_on_c, 0, 57, 70
1, 556889, Note_on_c, 0, 55, 70
1, 556899, Control_c, 0, 64, 71
1, 556922, Control_c, 0, 64, 57
1, 556937, Control_c, 0, 64, 50
1, 556951, Control_c, 0, 64, 57
1, 556966, Control_c, 0, 64, 61
1, 556981, Control_c, 0, 64, 64
1, 556995, Control_c, 0, 64, 72
1, 557010, Control_c, 0, 64, 94
1, 557025, Control_c, 0, 64, 127
1, 557045, Note_off_c, 0, 67, 63
1, 557067, Note_off_c, 0, 64, 53
1, 557105, Note_off_c, 0, 57, 59
1, 557106, Note_off_c, 0, 55, 60
1, 557125, Note_off_c, 0, 45, 56
1, 557151, Note_on_c, 0, 69, 94
1, 557158, Note_on_c, 0, 66, 79
1, 557176, Note_off_c, 0, 33, 59
1, 557201, Note_off_c, 0, 61, 61
1, 557245, Note_off_c, 0, 66, 61
1, 557250, Note_off_c, 0, 69, 63
1, 557319, Note_on_c, 0, 71, 96
1, 557324, Note_on_c, 0, 43, 78
1, 557330, Note_on_c, 0, 67, 83
1, 557333, Note_on_c, 0, 31, 69
1, 557403, Note_off_c, 0, 43, 63
1, 557407, Note_off_c, 0, 31, 60
1, 557458, Note_off_c, 0, 71, 57
1, 557479, Note_off_c, 0, 67, 52
1, 557533, Note_on_c, 0, 42, 83
1, 557546, Note_on_c, 0, 30, 67
1, 557560, Note_on_c, 0, 71, 92
1, 557574, Note_on_c, 0, 57, 72
1, 557574, Note_on_c, 0, 62, 71
1, 557578, Note_on_c, 0, 67, 73
1, 557618, Control_c, 0, 64, 110
1, 557633, Control_c, 0, 64, 87
1, 557648, Control_c, 0, 64, 72
1, 557670, Control_c, 0, 64, 62
1, 557685, Control_c, 0, 64, 48
1, 557700, Control_c, 0, 64, 34
1, 557715, Control_c, 0, 64, 34
1, 557774, Control_c, 0, 64, 38
1, 557789, Control_c, 0, 64, 45
1, 557804, Control_c, 0, 64, 53
1, 557819, Control_c, 0, 64, 60
1, 557833, Control_c, 0, 64, 65
1, 557848, Control_c, 0, 64, 70
1, 557863, Control_c, 0, 64, 79
1, 557878, Control_c, 0, 64, 94
1, 557892, Control_c, 0, 64, 127
1, 558023, Note_off_c, 0, 71, 53
1, 558034, Note_off_c, 0, 67, 61
1, 558183, Note_on_c, 0, 69, 87
1, 558195, Note_on_c, 0, 66, 72
1, 558235, Note_off_c, 0, 30, 59
1, 558281, Note_off_c, 0, 42, 62
1, 558353, Note_on_c, 0, 43, 82
1, 558356, Note_on_c, 0, 31, 75
1, 558431, Note_off_c, 0, 31, 62
1, 558441, Note_off_c, 0, 43, 61
1, 558522, Note_on_c, 0, 45, 93
1, 558530, Note_on_c, 0, 33, 86
1, 558593, Note_off_c, 0, 33, 62
1, 558615, Note_off_c, 0, 45, 62
1, 558761, Note_on_c, 0, 48, 98
1, 558772, Note_on_c, 0, 36, 80
1, 558819, Control_c, 0, 64, 86
1, 558834, Control_c, 0, 64, 67
1, 558848, Control_c, 0, 64, 48
1, 558863, Control_c, 0, 64, 24
1, 558893, Control_c, 0, 64, 27
1, 558908, Control_c, 0, 64, 36
1, 558922, Control_c, 0, 64, 48
1, 558926, Note_off_c, 0, 62, 57
1, 558937, Control_c, 0, 64, 56
1, 558952, Control_c, 0, 64, 64
1, 558957, Note_off_c, 0, 66, 60
1, 558967, Control_c, 0, 64, 74
1, 558982, Control_c, 0, 64, 105
1, 558987, Note_off_c, 0, 69, 58
1, 558996, Control_c, 0, 64, 127
1, 559088, Note_on_c, 0, 67, 90
1, 559108, Note_on_c, 0, 64, 80
1, 559189, Note_off_c, 0, 36, 56
1, 559193, Note_off_c, 0, 48, 58
1, 559238, Note_off_c, 0, 64, 58
1, 559239, Note_off_c, 0, 57, 37
1, 559311, Note_off_c, 0, 67, 58
1, 559330, Note_on_c, 0, 47, 83
1, 559343, Note_on_c, 0, 35, 72
1, 559372, Note_on_c, 0, 69, 91
1, 559377, Note_on_c, 0, 66, 65
1, 559387, Note_on_c, 0, 63, 69
1, 559390, Note_on_c, 0, 59, 72
1, 559391, Control_c, 0, 64, 77
1, 559393, Note_on_c, 0, 57, 77
1, 559405, Control_c, 0, 64, 55
1, 559420, Control_c, 0, 64, 0
1, 559450, Control_c, 0, 64, 19
1, 559464, Control_c, 0, 64, 50
1, 559479, Control_c, 0, 64, 65
1, 559494, Control_c, 0, 64, 85
1, 559509, Control_c, 0, 64, 127
1, 559514, Note_off_c, 0, 66, 55
1, 559539, Note_off_c, 0, 69, 63
1, 559549, Note_off_c, 0, 47, 60
1, 559560, Note_off_c, 0, 57, 60
1, 559581, Note_off_c, 0, 59, 59
1, 559605, Note_off_c, 0, 35, 59
1, 559650, Note_on_c, 0, 71, 100
1, 559658, Note_on_c, 0, 67, 83
1, 559685, Note_off_c, 0, 63, 63
1, 559727, Note_off_c, 0, 67, 59
1, 559752, Note_off_c, 0, 71, 62
1, 559830, Note_on_c, 0, 72, 96
1, 559837, Note_on_c, 0, 39, 86
1, 559840, Note_on_c, 0, 69, 86
1, 559843, Note_on_c, 0, 27, 76
1, 559974, Note_off_c, 0, 72, 58
1, 559980, Note_off_c, 0, 27, 60
1, 559991, Note_off_c, 0, 69, 47
1, 559998, Note_off_c, 0, 39, 60
1, 560054, Note_on_c, 0, 40, 79
1, 560064, Note_on_c, 0, 28, 72
1, 560099, Note_on_c, 0, 72, 86
1, 560108, Note_on_c, 0, 64, 67
1, 560110, Control_c, 0, 64, 105
1, 560111, Note_on_c, 0, 59, 72
1, 560112, Note_on_c, 0, 69, 64
1, 560125, Control_c, 0, 64, 68
1, 560140, Control_c, 0, 64, 29
1, 560155, Control_c, 0, 64, 0
1, 560199, Control_c, 0, 64, 49
1, 560213, Control_c, 0, 64, 65
1, 560228, Control_c, 0, 64, 83
1, 560229, Note_off_c, 0, 40, 63
1, 560234, Note_off_c, 0, 28, 62
1, 560243, Control_c, 0, 64, 127
1, 560335, Note_on_c, 0, 42, 85
1, 560341, Note_on_c, 0, 30, 75
1, 560352, Note_off_c, 0, 69, 60
1, 560354, Note_off_c, 0, 72, 62
1, 560383, Note_off_c, 0, 30, 64
1, 560402, Note_off_c, 0, 42, 61
1, 560466, Note_on_c, 0, 71, 87
1, 560472, Note_on_c, 0, 43, 82
1, 560472, Note_on_c, 0, 67, 76
1, 560478, Note_off_c, 0, 64, 65
1, 560481, Note_on_c, 0, 31, 73
1, 560481, Note_off_c, 0, 59, 65
1, 560494, Note_off_c, 0, 67, 69
1, 560514, Note_off_c, 0, 71, 64
1, 560523, Note_off_c, 0, 31, 61
1, 560538, Note_off_c, 0, 43, 60
1, 560577, Note_on_c, 0, 61, 88
1, 560586, Note_on_c, 0, 55, 79
1, 560658, Note_on_c, 0, 45, 82
1, 560680, Note_on_c, 0, 33, 72
1, 560680, Note_off_c, 0, 55, 61
1, 560767, Note_on_c, 0, 71, 91
1, 560774, Note_on_c, 0, 67, 69
1, 560785, Control_c, 0, 64, 93
1, 560800, Control_c, 0, 64, 75
1, 560815, Control_c, 0, 64, 63
1, 560830, Control_c, 0, 64, 56
1, 560843, Control_c, 0, 64, 58
1, 560858, Control_c, 0, 64, 62
1, 560865, Note_off_c, 0, 61, 58
1, 560873, Control_c, 0, 64, 65
1, 560888, Control_c, 0, 64, 72
1, 560901, Note_off_c, 0, 67, 60
1, 560903, Control_c, 0, 64, 92
1, 560908, Note_off_c, 0, 45, 58
1, 560914, Note_off_c, 0, 71, 63
1, 560917, Control_c, 0, 64, 127
1, 560969, Note_off_c, 0, 33, 59
1, 561014, Note_on_c, 0, 69, 99
1, 561026, Note_on_c, 0, 66, 85
1, 561088, Note_off_c, 0, 66, 59
1, 561107, Note_off_c, 0, 69, 60
1, 561178, Note_on_c, 0, 37, 81
1, 561182, Note_on_c, 0, 67, 97
1, 561192, Note_on_c, 0, 25, 69
1, 561196, Note_on_c, 0, 64, 78
1, 561220, Note_off_c, 0, 64, 70
1, 561284, Note_off_c, 0, 25, 60
1, 561295, Note_off_c, 0, 67, 57
1, 561298, Note_off_c, 0, 37, 58
1, 561349, Note_on_c, 0, 38, 71
1, 561356, Note_on_c, 0, 26, 69
1, 561365, Note_on_c, 0, 71, 85
1, 561372, Note_on_c, 0, 57, 69
1, 561376, Note_on_c, 0, 62, 63
1, 561376, Control_c, 0, 64, 90
1, 561390, Note_on_c, 0, 69, 50
1, 561391, Control_c, 0, 64, 64
1, 561393, Note_on_c, 0, 67, 48
1, 561406, Control_c, 0, 64, 0
1, 561417, Note_off_c, 0, 69, 41
1, 561458, Control_c, 0, 64, 13
1, 561473, Control_c, 0, 64, 54
1, 561476, Note_off_c, 0, 26, 62
1, 561482, Note_off_c, 0, 38, 62
1, 561488, Control_c, 0, 64, 67
1, 561503, Control_c, 0, 64, 79
1, 561518, Control_c, 0, 64, 113
1, 561533, Control_c, 0, 64, 127
1, 561536, Note_off_c, 0, 71, 55
1, 561555, Note_on_c, 0, 40, 81
1, 561555, Note_off_c, 0, 67, 35
1, 561563, Note_on_c, 0, 28, 75
1, 561601, Note_off_c, 0, 28, 63
1, 561605, Note_off_c, 0, 40, 62
1, 561675, Note_off_c, 0, 62, 63
1, 561696, Note_on_c, 0, 42, 80
1, 561697, Note_on_c, 0, 66, 73
1, 561700, Note_on_c, 0, 69, 85
1, 561703, Note_on_c, 0, 30, 66
1, 561710, Note_off_c, 0, 57, 61
1, 561745, Note_off_c, 0, 69, 63
1, 561764, Note_off_c, 0, 30, 59
1, 561772, Note_off_c, 0, 42, 60
1, 561799, Note_on_c, 0, 59, 79
1, 561799, Note_off_c, 0, 66, 63
1, 561807, Note_on_c, 0, 54, 75
1, 561836, Note_off_c, 0, 54, 68
1, 561872, Note_on_c, 0, 43, 71
1, 561887, Note_on_c, 0, 31, 60
1, 561888, Control_c, 0, 64, 106
1, 561903, Control_c, 0, 64, 84
1, 561912, Note_off_c, 0, 59, 53
1, 561918, Control_c, 0, 64, 72
1, 561923, Note_on_c, 0, 69, 88
1, 561924, Note_on_c, 0, 66, 69
1, 561933, Control_c, 0, 64, 66
1, 561948, Control_c, 0, 64, 66
1, 561951, Note_on_c, 0, 64, 40
1, 561962, Control_c, 0, 64, 69
1, 561977, Control_c, 0, 64, 73
1, 561992, Control_c, 0, 64, 81
1, 561993, Note_off_c, 0, 64, 52
1, 562007, Control_c, 0, 64, 100
1, 562019, Note_off_c, 0, 43, 58
1, 562022, Control_c, 0, 64, 127
1, 562042, Note_off_c, 0, 69, 59
1, 562056, Note_off_c, 0, 66, 56
1, 562088, Note_off_c, 0, 31, 60
1, 562123, Note_on_c, 0, 67, 93
1, 562130, Note_on_c, 0, 64, 79
1, 562231, Note_off_c, 0, 64, 59
1, 562240, Note_off_c, 0, 67, 60
1, 562305, Note_on_c, 0, 35, 69
1, 562317, Note_on_c, 0, 23, 68
1, 562326, Note_on_c, 0, 66, 91
1, 562326, Control_c, 0, 64, 90
1, 562335, Note_on_c, 0, 62, 79
1, 562341, Control_c, 0, 64, 69
1, 562356, Control_c, 0, 64, 59
1, 562371, Control_c, 0, 64, 60
1, 562386, Control_c, 0, 64, 65
1, 562401, Control_c, 0, 64, 72
1, 562404, Note_off_c, 0, 62, 63
1, 562415, Control_c, 0, 64, 89
1, 562430, Control_c, 0, 64, 127
1, 562434, Note_off_c, 0, 23, 60
1, 562442, Note_off_c, 0, 35, 60
1, 562484, Note_off_c, 0, 66, 54
1, 562600, Note_on_c, 0, 37, 69
1, 562618, Note_on_c, 0, 25, 59
1, 562630, Note_on_c, 0, 69, 90
1, 562642, Note_on_c, 0, 59, 64
1, 562642, Note_on_c, 0, 66, 58
1, 562648, Note_on_c, 0, 55, 65
1, 562688, Note_on_c, 0, 57, 27
1, 562711, Control_c, 0, 64, 99
1, 562726, Control_c, 0, 64, 77
1, 562727, Note_off_c, 0, 57, 32
1, 562741, Control_c, 0, 64, 62
1, 562755, Control_c, 0, 64, 37
1, 562770, Control_c, 0, 64, 0
1, 562830, Control_c, 0, 64, 13
1, 562845, Control_c, 0, 64, 34
1, 562860, Control_c, 0, 64, 50
1, 562875, Control_c, 0, 64, 60
1, 562889, Control_c, 0, 64, 67
1, 562911, Control_c, 0, 64, 78
1, 562926, Control_c, 0, 64, 109
1, 562929, Note_off_c, 0, 55, 56
1, 562940, Control_c, 0, 64, 127
1, 562948, Note_off_c, 0, 66, 61
1, 562955, Note_off_c, 0, 59, 63
1, 562958, Note_off_c, 0, 69, 61
1, 563120, Note_on_c, 0, 67, 89
1, 563128, Note_on_c, 0, 64, 70
1, 563134, Note_on_c, 0, 55, 75
1, 563137, Note_on_c, 0, 58, 74
1, 563150, Control_c, 0, 64, 89
1, 563165, Control_c, 0, 64, 69
1, 563180, Control_c, 0, 64, 56
1, 563194, Control_c, 0, 64, 47
1, 563209, Control_c, 0, 64, 53
1, 563224, Control_c, 0, 64, 58
1, 563238, Control_c, 0, 64, 63
1, 563253, Control_c, 0, 64, 70
1, 563268, Note_off_c, 0, 64, 63
1, 563268, Control_c, 0, 64, 91
1, 563283, Control_c, 0, 64, 127
1, 563307, Note_off_c, 0, 67, 59
1, 563314, Note_off_c, 0, 55, 62
1, 563318, Note_off_c, 0, 58, 64
1, 563362, Note_off_c, 0, 25, 59
1, 563386, Note_off_c, 0, 37, 61
1, 563420, Note_on_c, 0, 38, 65
1, 563430, Note_on_c, 0, 66, 80
1, 563431, Note_on_c, 0, 26, 68
1, 563438, Note_on_c, 0, 62, 65
1, 563441, Note_on_c, 0, 59, 66
1, 563448, Note_on_c, 0, 54, 78
1, 563461, Control_c, 0, 64, 115
1, 563476, Control_c, 0, 64, 78
1, 563491, Control_c, 0, 64, 61
1, 563505, Control_c, 0, 64, 32
1, 563520, Control_c, 0, 64, 23
1, 563535, Control_c, 0, 64, 31
1, 563550, Control_c, 0, 64, 43
1, 563564, Control_c, 0, 64, 53
1, 563579, Control_c, 0, 64, 60
1, 563594, Control_c, 0, 64, 66
1, 563609, Control_c, 0, 64, 81
1, 563621, Note_off_c, 0, 26, 60
1, 563622, Note_off_c, 0, 66, 62
1, 563624, Control_c, 0, 64, 127
1, 563630, Note_off_c, 0, 38, 61
1, 563669, Note_off_c, 0, 62, 59
1, 563682, Note_off_c, 0, 54, 63
1, 563760, Note_on_c, 0, 40, 59
1, 563761, Note_on_c, 0, 64, 84
1, 563762, Note_on_c, 0, 28, 56
1, 563769, Note_on_c, 0, 61, 75
1, 563775, Note_on_c, 0, 55, 74
1, 563794, Control_c, 0, 64, 87
1, 563801, Note_off_c, 0, 59, 61
1, 563809, Control_c, 0, 64, 66
1, 563824, Control_c, 0, 64, 43
1, 563838, Control_c, 0, 64, 0
1, 563883, Control_c, 0, 64, 20
1, 563898, Control_c, 0, 64, 38
1, 563914, Control_c, 0, 64, 51
1, 563929, Control_c, 0, 64, 61
1, 563943, Control_c, 0, 64, 68
1, 563958, Control_c, 0, 64, 80
1, 563973, Control_c, 0, 64, 115
1, 563988, Control_c, 0, 64, 127
1, 563995, Note_off_c, 0, 40, 55
1, 564017, Note_off_c, 0, 28, 33
1, 564034, Note_off_c, 0, 61, 61
1, 564067, Note_off_c, 0, 64, 56
1, 564225, Control_c, 0, 64, 120
1, 564231, Note_on_c, 0, 41, 41
1, 564240, Control_c, 0, 64, 106
1, 564241, Note_on_c, 0, 62, 59
1, 564245, Note_on_c, 0, 59, 44
1, 564252, Note_on_c, 0, 29, 36
1, 564252, Note_on_c, 0, 56, 46
1, 564255, Control_c, 0, 64, 96
1, 564269, Control_c, 0, 64, 89
1, 564284, Control_c, 0, 64, 82
1, 564299, Control_c, 0, 64, 76
1, 564314, Control_c, 0, 64, 71
1, 564325, Note_off_c, 0, 55, 55
1, 564328, Control_c, 0, 64, 66
1, 564343, Control_c, 0, 64, 60
1, 564358, Control_c, 0, 64, 49
1, 564373, Control_c, 0, 64, 37
1, 564387, Control_c, 0, 64, 20
1, 564410, Control_c, 0, 64, 13
1, 564440, Control_c, 0, 64, 23
1, 564454, Control_c, 0, 64, 37
1, 564469, Control_c, 0, 64, 47
1, 564484, Control_c, 0, 64, 57
1, 564499, Control_c, 0, 64, 63
1, 564514, Control_c, 0, 64, 67
1, 564525, Note_off_c, 0, 62, 55
1, 564529, Control_c, 0, 64, 72
1, 564543, Control_c, 0, 64, 83
1, 564558, Control_c, 0, 64, 101
1, 564569, Note_off_c, 0, 59, 38
1, 564573, Control_c, 0, 64, 127
1, 564585, Note_off_c, 0, 41, 34
1, 564601, Note_off_c, 0, 29, 36
1, 564623, Note_off_c, 0, 56, 56
1, 565043, Note_on_c, 0, 61, 58
1, 565053, Note_on_c, 0, 53, 46
1, 565057, Note_on_c, 0, 44, 38
1, 565062, Note_on_c, 0, 32, 33
1, 565077, Note_on_c, 0, 49, 39
1, 565109, Note_off_c, 0, 44, 58
1, 565113, Note_off_c, 0, 32, 56
1, 565114, Note_off_c, 0, 53, 59
1, 565120, Note_off_c, 0, 49, 57
1, 565262, Control_c, 0, 64, 115
1, 565268, Note_on_c, 0, 58, 58
1, 565277, Control_c, 0, 64, 100
1, 565290, Note_on_c, 0, 42, 36
1, 565291, Control_c, 0, 64, 86
1, 565301, Note_on_c, 0, 52, 38
1, 565304, Note_on_c, 0, 30, 27
1, 565306, Control_c, 0, 64, 75
1, 565307, Note_off_c, 0, 61, 53
1, 565310, Note_on_c, 0, 49, 30
1, 565321, Control_c, 0, 64, 66
1, 565336, Control_c, 0, 64, 56
1, 565351, Control_c, 0, 64, 43
1, 565365, Control_c, 0, 64, 41
1, 565395, Control_c, 0, 64, 41
1, 565409, Control_c, 0, 64, 45
1, 565424, Control_c, 0, 64, 50
1, 565439, Control_c, 0, 64, 54
1, 565454, Control_c, 0, 64, 60
1, 565469, Control_c, 0, 64, 66
1, 565483, Control_c, 0, 64, 72
1, 565498, Control_c, 0, 64, 83
1, 565511, Note_off_c, 0, 30, 43
1, 565514, Control_c, 0, 64, 95
1, 565522, Note_off_c, 0, 52, 36
1, 565529, Control_c, 0, 64, 105
1, 565537, Note_off_c, 0, 42, 42
1, 565544, Control_c, 0, 64, 106
1, 565559, Control_c, 0, 64, 102
1, 565569, Note_off_c, 0, 49, 34
1, 565574, Control_c, 0, 64, 99
1, 565588, Control_c, 0, 64, 97
1, 565603, Control_c, 0, 64, 95
1, 565618, Control_c, 0, 64, 92
1, 565632, Control_c, 0, 64, 88
1, 565647, Control_c, 0, 64, 85
1, 565662, Control_c, 0, 64, 83
1, 565675, Note_off_c, 0, 58, 35
1, 565677, Control_c, 0, 64, 80
1, 565692, Control_c, 0, 64, 76
1, 565706, Control_c, 0, 64, 73
1, 565721, Control_c, 0, 64, 71
1, 565736, Control_c, 0, 64, 70
1, 565751, Control_c, 0, 64, 69
1, 565766, Control_c, 0, 64, 68
1, 565781, Control_c, 0, 64, 66
1, 565796, Control_c, 0, 64, 65
1, 565811, Control_c, 0, 64, 65
1, 565840, Control_c, 0, 64, 64
1, 565855, Control_c, 0, 64, 64
1, 565870, Control_c, 0, 64, 63
1, 565885, Control_c, 0, 64, 62
1, 565921, Control_c, 0, 64, 61
1, 565936, Control_c, 0, 64, 61
1, 565951, Control_c, 0, 64, 60
1, 565966, Control_c, 0, 64, 59
1, 565981, Control_c, 0, 64, 58
1, 565996, Control_c, 0, 64, 57
1, 566010, Control_c, 0, 64, 56
1, 566025, Control_c, 0, 64, 53
1, 566040, Control_c, 0, 64, 50
1, 566055, Control_c, 0, 64, 46
1, 566060, Note_on_c, 0, 35, 28
1, 566068, Note_on_c, 0, 59, 37
1, 566070, Control_c, 0, 64, 42
1, 566073, Note_on_c, 0, 42, 28
1, 566084, Control_c, 0, 64, 36
1, 566097, Note_on_c, 0, 50, 20
1, 566099, Control_c, 0, 64, 30
1, 566113, Control_c, 0, 64, 27
1, 566157, Control_c, 0, 64, 29
1, 566172, Control_c, 0, 64, 33
1, 566187, Control_c, 0, 64, 37
1, 566202, Control_c, 0, 64, 41
1, 566217, Control_c, 0, 64, 45
1, 566231, Control_c, 0, 64, 49
1, 566246, Control_c, 0, 64, 53
1, 566261, Control_c, 0, 64, 57
1, 566276, Control_c, 0, 64, 59
1, 566291, Control_c, 0, 64, 61
1, 566307, Control_c, 0, 64, 63
1, 566322, Control_c, 0, 64, 65
1, 566336, Control_c, 0, 64, 67
1, 566351, Control_c, 0, 64, 69
1, 566366, Control_c, 0, 64, 72
1, 566381, Control_c, 0, 64, 75
1, 566396, Control_c, 0, 64, 79
1, 566410, Control_c, 0, 64, 83
1, 566425, Control_c, 0, 64, 88
1, 566440, Control_c, 0, 64, 93
1, 566455, Control_c, 0, 64, 99
1, 566470, Control_c, 0, 64, 104
1, 566484, Control_c, 0, 64, 110
1, 566499, Control_c, 0, 64, 116
1, 566514, Control_c, 0, 64, 120
1, 566568, Note_off_c, 0, 50, 33
1, 566630, Note_off_c, 0, 42, 36
1, 566632, Note_off_c, 0, 35, 33
1, 566633, Control_c, 0, 64, 117
1, 566640, Note_off_c, 0, 59, 31
1, 566654, Control_c, 0, 64, 115
1, 566669, Control_c, 0, 64, 115
1, 566684, Control_c, 0, 64, 113
1, 566714, Control_c, 0, 64, 112
1, 566729, Control_c, 0, 64, 110
1, 566744, Control_c, 0, 64, 108
1, 566759, Control_c, 0, 64, 107
1, 566774, Control_c, 0, 64, 106
1, 566788, Control_c, 0, 64, 104
1, 566803, Control_c, 0, 64, 102
1, 566818, Control_c, 0, 64, 100
1, 566833, Control_c, 0, 64, 99
1, 566848, Control_c, 0, 64, 98
1, 566862, Control_c, 0, 64, 97
1, 566877, Control_c, 0, 64, 95
1, 566892, Control_c, 0, 64, 94
1, 566907, Control_c, 0, 64, 93
1, 566922, Control_c, 0, 64, 93
1, 566936, Control_c, 0, 64, 92
1, 566951, Control_c, 0, 64, 91
1, 566966, Control_c, 0, 64, 90
1, 566980, Control_c, 0, 64, 89
1, 567010, Control_c, 0, 64, 88
1, 567025, Control_c, 0, 64, 87
1, 567040, Control_c, 0, 64, 87
1, 567054, Control_c, 0, 64, 86
1, 567069, Control_c, 0, 64, 85
1, 567084, Control_c, 0, 64, 84
1, 567100, Control_c, 0, 64, 82
1, 567115, Control_c, 0, 64, 81
1, 567130, Control_c, 0, 64, 80
1, 567145, Control_c, 0, 64, 78
1, 567159, Control_c, 0, 64, 77
1, 567174, Control_c, 0, 64, 75
1, 567189, Control_c, 0, 64, 74
1, 567204, Control_c, 0, 64, 73
1, 567219, Control_c, 0, 64, 72
1, 567233, Control_c, 0, 64, 72
1, 567248, Control_c, 0, 64, 71
1, 567263, Control_c, 0, 64, 70
1, 567277, Control_c, 0, 64, 69
1, 567292, Control_c, 0, 64, 68
1, 567307, Control_c, 0, 64, 67
1, 567322, Control_c, 0, 64, 66
1, 567337, Control_c, 0, 64, 66
1, 567352, Control_c, 0, 64, 65
1, 567367, Control_c, 0, 64, 64
1, 567382, Control_c, 0, 64, 63
1, 567403, Control_c, 0, 64, 63
1, 567418, Control_c, 0, 64, 62
1, 567433, Control_c, 0, 64, 61
1, 567448, Control_c, 0, 64, 60
1, 567463, Control_c, 0, 64, 59
1, 567477, Control_c, 0, 64, 57
1, 567492, Control_c, 0, 64, 56
1, 567507, Control_c, 0, 64, 53
1, 567522, Control_c, 0, 64, 49
1, 567537, Control_c, 0, 64, 45
1, 567552, Control_c, 0, 64, 36
1, 567567, Control_c, 0, 64, 19
1, 567581, Control_c, 0, 64, 0
1, 567645, Note_on_c, 0, 40, 82
1, 567745, Control_c, 0, 64, 49
1, 567759, Control_c, 0, 64, 82
1, 567774, Control_c, 0, 64, 127
1, 567783, Note_off_c, 0, 40, 63
1, 567784, Note_on_c, 0, 52, 91
1, 567831, Note_off_c, 0, 52, 66
1, 567909, Note_on_c, 0, 59, 83
1, 567970, Note_on_c, 0, 62, 88
1, 568046, Note_on_c, 0, 67, 93
1, 568074, Note_on_c, 0, 81, 78
1, 568075, Note_on_c, 0, 85, 103
1, 568076, Note_on_c, 0, 73, 101
1, 568410, Note_off_c, 0, 81, 63
1, 568457, Note_off_c, 0, 85, 60
1, 568497, Note_off_c, 0, 73, 61
1, 568641, Note_on_c, 0, 83, 103
1, 568646, Note_on_c, 0, 71, 93
1, 568652, Note_on_c, 0, 79, 80
1, 568852, Note_off_c, 0, 79, 64
1, 568884, Note_off_c, 0, 83, 60
1, 568887, Note_off_c, 0, 67, 53
1, 568926, Note_off_c, 0, 62, 54
1, 568931, Note_off_c, 0, 59, 53
1, 569012, Note_on_c, 0, 81, 94
1, 569029, Note_on_c, 0, 78, 79
1, 569088, Note_off_c, 0, 71, 51
1, 569097, Note_off_c, 0, 78, 63
1, 569230, Note_on_c, 0, 79, 97
1, 569245, Note_on_c, 0, 76, 92
1, 569275, Note_off_c, 0, 81, 59
1, 569298, Note_off_c, 0, 76, 63
1, 569376, Note_on_c, 0, 78, 101
1, 569379, Note_on_c, 0, 74, 94
1, 569397, Note_off_c, 0, 79, 64
1, 569439, Note_off_c, 0, 74, 63
1, 569442, Note_off_c, 0, 78, 63
1, 569509, Note_on_c, 0, 76, 99
1, 569516, Note_on_c, 0, 73, 91
1, 569576, Note_off_c, 0, 73, 63
1, 569599, Note_off_c, 0, 76, 62
1, 569701, Note_on_c, 0, 47, 51
1, 569704, Note_on_c, 0, 54, 55
1, 569709, Note_on_c, 0, 74, 93
1, 569718, Note_on_c, 0, 62, 84
1, 569721, Note_on_c, 0, 71, 79
1, 569723, Note_on_c, 0, 66, 75
1, 569740, Control_c, 0, 64, 113
1, 569754, Control_c, 0, 64, 75
1, 569769, Control_c, 0, 64, 59
1, 569784, Control_c, 0, 64, 0
1, 569873, Control_c, 0, 64, 19
1, 569887, Control_c, 0, 64, 42
1, 569902, Control_c, 0, 64, 57
1, 569917, Control_c, 0, 64, 65
1, 569932, Control_c, 0, 64, 72
1, 569946, Control_c, 0, 64, 91
1, 569961, Control_c, 0, 64, 127
1, 569980, Note_off_c, 0, 47, 37
1, 570069, Note_off_c, 0, 54, 59
1, 570070, Note_off_c, 0, 62, 57
1, 570110, Note_off_c, 0, 71, 54
1, 570144, Note_off_c, 0, 66, 59
1, 570160, Note_off_c, 0, 74, 58
1, 570559, Note_on_c, 0, 66, 72
1, 570568, Note_on_c, 0, 59, 58
1, 570573, Note_on_c, 0, 52, 63
1, 570577, Note_on_c, 0, 81, 96
1, 570583, Note_on_c, 0, 69, 88
1, 570590, Note_on_c, 0, 78, 75
1, 570667, Control_c, 0, 64, 109
1, 570682, Control_c, 0, 64, 79
1, 570696, Control_c, 0, 64, 64
1, 570711, Control_c, 0, 64, 41
1, 570726, Control_c, 0, 64, 0
1, 570785, Control_c, 0, 64, 29
1, 570800, Control_c, 0, 64, 45
1, 570815, Control_c, 0, 64, 60
1, 570829, Control_c, 0, 64, 68
1, 570844, Control_c, 0, 64, 80
1, 570859, Control_c, 0, 64, 127
1, 570890, Note_off_c, 0, 78, 63
1, 571005, Note_off_c, 0, 81, 59
1, 571006, Note_off_c, 0, 69, 58
1, 571015, Note_off_c, 0, 66, 61
1, 571131, Note_on_c, 0, 64, 74
1, 571137, Note_on_c, 0, 79, 89
1, 571154, Note_on_c, 0, 67, 83
1, 571159, Note_on_c, 0, 76, 74
1, 571194, Control_c, 0, 64, 83
1, 571208, Control_c, 0, 64, 65
1, 571223, Control_c, 0, 64, 49
1, 571238, Control_c, 0, 64, 45
1, 571252, Control_c, 0, 64, 54
1, 571267, Control_c, 0, 64, 60
1, 571282, Control_c, 0, 64, 67
1, 571297, Control_c, 0, 64, 84
1, 571303, Note_off_c, 0, 76, 62
1, 571312, Control_c, 0, 64, 127
1, 571326, Note_off_c, 0, 79, 65
1, 571451, Note_on_c, 0, 78, 88
1, 571471, Note_on_c, 0, 74, 65
1, 571553, Note_off_c, 0, 74, 63
1, 571627, Note_off_c, 0, 64, 56
1, 571652, Note_off_c, 0, 59, 55
1, 571700, Note_on_c, 0, 76, 91
1, 571716, Note_on_c, 0, 73, 78
1, 571722, Note_off_c, 0, 52, 64
1, 571741, Note_off_c, 0, 78, 62
1, 571781, Note_off_c, 0, 73, 62
1, 571838, Note_off_c, 0, 67, 60
1, 571876, Note_on_c, 0, 74, 91
1, 571885, Note_on_c, 0, 71, 86
1, 571919, Note_off_c, 0, 76, 61
1, 571944, Note_off_c, 0, 71, 63
1, 571958, Note_off_c, 0, 74, 61
1, 572086, Note_on_c, 0, 47, 43
1, 572090, Note_on_c, 0, 54, 50
1, 572099, Note_on_c, 0, 74, 84
1, 572115, Note_on_c, 0, 62, 72
1, 572115, Note_on_c, 0, 71, 71
1, 572121, Note_on_c, 0, 66, 68
1, 572134, Control_c, 0, 64, 103
1, 572148, Control_c, 0, 64, 74
1, 572163, Control_c, 0, 64, 55
1, 572178, Control_c, 0, 64, 0
1, 572252, Control_c, 0, 64, 9
1, 572267, Control_c, 0, 64, 42
1, 572282, Control_c, 0, 64, 58
1, 572297, Control_c, 0, 64, 65
1, 572312, Control_c, 0, 64, 71
1, 572327, Control_c, 0, 64, 84
1, 572341, Control_c, 0, 64, 127
1, 572407, Note_off_c, 0, 47, 36
1, 572426, Note_off_c, 0, 62, 60
1, 572442, Note_off_c, 0, 71, 56
1, 572465, Note_off_c, 0, 54, 58
1, 572500, Note_off_c, 0, 66, 59
1, 572522, Note_off_c, 0, 74, 62
1, 572810, Note_on_c, 0, 52, 48
1, 572814, Note_on_c, 0, 59, 50
1, 572843, Note_on_c, 0, 78, 85
1, 572854, Note_on_c, 0, 74, 59
1, 572864, Note_on_c, 0, 67, 62
1, 572868, Control_c, 0, 64, 122
1, 572883, Control_c, 0, 64, 83
1, 572897, Control_c, 0, 64, 65
1, 572912, Control_c, 0, 64, 41
1, 572927, Control_c, 0, 64, 26
1, 572957, Control_c, 0, 64, 32
1, 572971, Control_c, 0, 64, 44
1, 572986, Control_c, 0, 64, 54
1, 573001, Control_c, 0, 64, 62
1, 573016, Control_c, 0, 64, 72
1, 573031, Control_c, 0, 64, 92
1, 573045, Control_c, 0, 64, 127
1, 573053, Note_off_c, 0, 67, 52
1, 573058, Note_off_c, 0, 74, 62
1, 573137, Note_on_c, 0, 76, 90
1, 573153, Note_on_c, 0, 73, 83
1, 573178, Note_off_c, 0, 59, 56
1, 573187, Note_off_c, 0, 78, 61
1, 573233, Note_off_c, 0, 73, 63
1, 573311, Note_on_c, 0, 74, 89
1, 573325, Note_on_c, 0, 71, 88
1, 573350, Note_off_c, 0, 76, 61
1, 573416, Note_off_c, 0, 71, 60
1, 573426, Note_off_c, 0, 74, 61
1, 573513, Control_c, 0, 64, 99
1, 573516, Note_on_c, 0, 54, 51
1, 573519, Note_on_c, 0, 74, 85
1, 573521, Note_on_c, 0, 62, 51
1, 573528, Control_c, 0, 64, 71
1, 573530, Note_on_c, 0, 71, 72
1, 573538, Note_off_c, 0, 52, 56
1, 573539, Note_on_c, 0, 66, 67
1, 573543, Control_c, 0, 64, 50
1, 573558, Control_c, 0, 64, 0
1, 573617, Control_c, 0, 64, 38
1, 573632, Control_c, 0, 64, 55
1, 573647, Control_c, 0, 64, 65
1, 573662, Control_c, 0, 64, 77
1, 573676, Control_c, 0, 64, 103
1, 573691, Control_c, 0, 64, 127
1, 573692, Note_off_c, 0, 62, 57
1, 573716, Note_off_c, 0, 74, 58
1, 573716, Note_off_c, 0, 71, 59
1, 573724, Note_off_c, 0, 66, 59
1, 573740, Note_off_c, 0, 54, 64
1, 573824, Control_c, 0, 64, 108
1, 573838, Control_c, 0, 64, 97
1, 573853, Control_c, 0, 64, 88
1, 573868, Control_c, 0, 64, 83
1, 573883, Control_c, 0, 64, 80
1, 573898, Control_c, 0, 64, 77
1, 573913, Control_c, 0, 64, 74
1, 573928, Control_c, 0, 64, 70
1, 573943, Control_c, 0, 64, 66
1, 573958, Control_c, 0, 64, 64
1, 573972, Control_c, 0, 64, 62
1, 573987, Control_c, 0, 64, 59
1, 574002, Control_c, 0, 64, 52
1, 574017, Control_c, 0, 64, 38
1, 574032, Control_c, 0, 64, 0
1, 574091, Control_c, 0, 64, 14
1, 574098, Note_on_c, 0, 42, 41
1, 574106, Control_c, 0, 64, 36
1, 574120, Control_c, 0, 64, 53
1, 574134, Note_off_c, 0, 42, 63
1, 574135, Control_c, 0, 64, 62
1, 574157, Control_c, 0, 64, 67
1, 574172, Control_c, 0, 64, 74
1, 574187, Control_c, 0, 64, 89
1, 574202, Control_c, 0, 64, 127
1, 574209, Note_on_c, 0, 73, 70
1, 574225, Note_on_c, 0, 70, 55
1, 574233, Note_on_c, 0, 58, 52
1, 574233, Note_on_c, 0, 61, 54
1, 574237, Note_on_c, 0, 66, 49
1, 574242, Note_on_c, 0, 49, 38
1, 574414, Note_off_c, 0, 58, 56
1, 574481, Note_off_c, 0, 61, 36
1, 574492, Note_off_c, 0, 49, 32
1, 574591, Note_off_c, 0, 73, 52
1, 574634, Note_off_c, 0, 66, 28
1, 574634, Note_off_c, 0, 70, 32
1, 574722, Control_c, 0, 64, 122
1, 574736, Control_c, 0, 64, 107
1, 574751, Control_c, 0, 64, 101
1, 574766, Control_c, 0, 64, 97
1, 574781, Control_c, 0, 64, 93
1, 574796, Control_c, 0, 64, 89
1, 574810, Control_c, 0, 64, 86
1, 574825, Control_c, 0, 64, 84
1, 574840, Control_c, 0, 64, 82
1, 574855, Control_c, 0, 64, 80
1, 574870, Control_c, 0, 64, 78
1, 574892, Control_c, 0, 64, 77
1, 574907, Control_c, 0, 64, 75
1, 574922, Control_c, 0, 64, 74
1, 574937, Control_c, 0, 64, 73
1, 574951, Control_c, 0, 64, 72
1, 574966, Control_c, 0, 64, 71
1, 574981, Control_c, 0, 64, 70
1, 574996, Control_c, 0, 64, 69
1, 575011, Control_c, 0, 64, 68
1, 575025, Control_c, 0, 64, 67
1, 575040, Control_c, 0, 64, 67
1, 575055, Control_c, 0, 64, 66
1, 575069, Control_c, 0, 64, 65
1, 575084, Control_c, 0, 64, 64
1, 575099, Control_c, 0, 64, 64
1, 575114, Control_c, 0, 64, 63
1, 575129, Control_c, 0, 64, 62
1, 575144, Control_c, 0, 64, 61
1, 575159, Control_c, 0, 64, 61
1, 575174, Control_c, 0, 64, 60
1, 575189, Control_c, 0, 64, 60
1, 575204, Control_c, 0, 64, 59
1, 575218, Control_c, 0, 64, 58
1, 575233, Control_c, 0, 64, 57
1, 575248, Control_c, 0, 64, 55
1, 575263, Control_c, 0, 64, 53
1, 575278, Control_c, 0, 64, 50
1, 575292, Control_c, 0, 64, 46
1, 575307, Control_c, 0, 64, 41
1, 575322, Control_c, 0, 64, 39
1, 575381, Control_c, 0, 64, 40
1, 575396, Control_c, 0, 64, 42
1, 575411, Control_c, 0, 64, 44
1, 575411, Control_c, 0, 67, 20
1, 575426, Control_c, 0, 64, 48
1, 575426, Control_c, 0, 67, 35
1, 575440, Control_c, 0, 64, 51
1, 575440, Control_c, 0, 67, 49
1, 575455, Control_c, 0, 64, 53
1, 575455, Control_c, 0, 67, 64
1, 575470, Control_c, 0, 64, 56
1, 575470, Control_c, 0, 67, 83
1, 575485, Control_c, 0, 64, 59
1, 575485, Control_c, 0, 67, 99
1, 575499, Control_c, 0, 64, 61
1, 575499, Control_c, 0, 67, 115
1, 575514, Control_c, 0, 64, 63
1, 575514, Control_c, 0, 67, 127
1, 575529, Control_c, 0, 64, 66
1, 575544, Control_c, 0, 64, 69
1, 575559, Control_c, 0, 64, 73
1, 575573, Control_c, 0, 64, 80
1, 575588, Control_c, 0, 64, 90
1, 575603, Control_c, 0, 64, 108
1, 575618, Control_c, 0, 64, 127
1, 575672, Note_on_c, 0, 40, 31
1, 575743, Note_on_c, 0, 47, 37
1, 575958, Note_on_c, 0, 73, 55
1, 575970, Note_on_c, 0, 55, 37
1, 575979, Note_on_c, 0, 62, 30
1, 575997, Note_on_c, 0, 61, 38
1, 576024, Note_on_c, 0, 69, 26
1, 576135, Note_off_c, 0, 73, 55
1, 576234, Note_off_c, 0, 69, 41
1, 576332, Note_off_c, 0, 61, 38
1, 576624, Note_on_c, 0, 71, 60
1, 576661, Note_on_c, 0, 59, 43
1, 576692, Note_on_c, 0, 67, 31
1, 576774, Note_off_c, 0, 71, 53
1, 576808, Note_off_c, 0, 67, 49
1, 576843, Note_off_c, 0, 62, 48
1, 576982, Note_off_c, 0, 55, 41
1, 576986, Note_on_c, 0, 69, 56
1, 576994, Note_on_c, 0, 66, 45
1, 577062, Note_off_c, 0, 66, 55
1, 577068, Note_off_c, 0, 47, 36
1, 577069, Note_off_c, 0, 59, 55
1, 577223, Note_on_c, 0, 67, 66
1, 577232, Note_off_c, 0, 40, 42
1, 577235, Note_on_c, 0, 64, 55
1, 577253, Note_off_c, 0, 69, 58
1, 577344, Note_off_c, 0, 64, 56
1, 577360, Note_off_c, 0, 67, 61
1, 577364, Note_on_c, 0, 66, 62
1, 577365, Note_on_c, 0, 62, 62
1, 577398, Note_off_c, 0, 66, 65
1, 577429, Note_off_c, 0, 62, 62
1, 577484, Note_on_c, 0, 64, 70
1, 577506, Note_on_c, 0, 61, 57
1, 577560, Note_off_c, 0, 61, 52
1, 577565, Note_off_c, 0, 64, 63
1, 577641, Control_c, 0, 64, 111
1, 577656, Control_c, 0, 64, 95
1, 577657, Note_on_c, 0, 35, 31
1, 577662, Note_on_c, 0, 47, 32
1, 577671, Control_c, 0, 64, 85
1, 577676, Note_on_c, 0, 62, 60
1, 577685, Control_c, 0, 64, 78
1, 577695, Note_on_c, 0, 59, 40
1, 577698, Note_on_c, 0, 54, 50
1, 577700, Control_c, 0, 64, 73
1, 577715, Control_c, 0, 64, 69
1, 577730, Control_c, 0, 64, 64
1, 577745, Control_c, 0, 64, 57
1, 577759, Control_c, 0, 64, 47
1, 577774, Control_c, 0, 64, 41
1, 577789, Control_c, 0, 64, 37
1, 577804, Control_c, 0, 64, 34
1, 577819, Control_c, 0, 64, 34
1, 577848, Control_c, 0, 64, 38
1, 577863, Control_c, 0, 64, 44
1, 577885, Control_c, 0, 64, 50
1, 577900, Control_c, 0, 64, 57
1, 577915, Control_c, 0, 64, 63
1, 577930, Control_c, 0, 64, 66
1, 577945, Control_c, 0, 64, 73
1, 577957, Note_off_c, 0, 35, 39
1, 577960, Control_c, 0, 64, 84
1, 577974, Control_c, 0, 64, 101
1, 577985, Note_off_c, 0, 54, 32
1, 577989, Control_c, 0, 64, 127
1, 578074, Note_off_c, 0, 62, 56
1, 578178, Note_off_c, 0, 59, 35
1, 578205, Note_off_c, 0, 47, 38
1, 578559, Note_on_c, 0, 40, 34
1, 578578, Note_on_c, 0, 47, 28
1, 578588, Note_on_c, 0, 69, 53
1, 578609, Note_on_c, 0, 59, 35
1, 578613, Control_c, 0, 64, 112
1, 578614, Note_on_c, 0, 66, 45
1, 578635, Control_c, 0, 64, 98
1, 578650, Control_c, 0, 64, 90
1, 578651, Note_on_c, 0, 55, 22
1, 578664, Control_c, 0, 64, 85
1, 578679, Control_c, 0, 64, 82
1, 578694, Control_c, 0, 64, 79
1, 578709, Control_c, 0, 64, 75
1, 578724, Control_c, 0, 64, 70
1, 578739, Control_c, 0, 64, 63
1, 578754, Control_c, 0, 64, 56
1, 578769, Control_c, 0, 64, 51
1, 578828, Control_c, 0, 64, 51
1, 578843, Control_c, 0, 64, 54
1, 578858, Control_c, 0, 64, 56
1, 578872, Control_c, 0, 64, 59
1, 578887, Control_c, 0, 64, 63
1, 578902, Control_c, 0, 64, 66
1, 578916, Control_c, 0, 64, 72
1, 578931, Control_c, 0, 64, 81
1, 578946, Control_c, 0, 64, 94
1, 578959, Note_off_c, 0, 69, 50
1, 578961, Control_c, 0, 64, 115
1, 578976, Control_c, 0, 64, 127
1, 578993, Note_off_c, 0, 66, 34
1, 579143, Note_on_c, 0, 67, 58
1, 579152, Note_on_c, 0, 64, 48
1, 579249, Note_off_c, 0, 64, 60
1, 579272, Note_off_c, 0, 67, 63
1, 579455, Note_on_c, 0, 66, 59
1, 579487, Note_on_c, 0, 62, 47
1, 579538, Note_off_c, 0, 59, 45
1, 579704, Note_on_c, 0, 64, 68
1, 579723, Note_on_c, 0, 61, 61
1, 579734, Note_off_c, 0, 62, 59
1, 579800, Note_off_c, 0, 61, 56
1, 579826, Note_off_c, 0, 40, 45
1, 579827, Note_off_c, 0, 66, 27
1, 579844, Note_off_c, 0, 55, 42
1, 579907, Note_on_c, 0, 62, 67
1, 579920, Note_on_c, 0, 59, 63
1, 579943, Note_off_c, 0, 64, 57
1, 580017, Note_off_c, 0, 47, 40
1, 580024, Note_off_c, 0, 62, 61
1, 580031, Note_off_c, 0, 59, 50
1, 580158, Note_on_c, 0, 62, 53
1, 580162, Control_c, 0, 64, 102
1, 580165, Note_on_c, 0, 59, 20
1, 580168, Note_on_c, 0, 35, 29
1, 580173, Note_on_c, 0, 47, 30
1, 580177, Control_c, 0, 64, 90
1, 580188, Note_on_c, 0, 54, 46
1, 580192, Control_c, 0, 64, 78
1, 580207, Control_c, 0, 64, 69
1, 580222, Control_c, 0, 64, 59
1, 580236, Control_c, 0, 64, 42
1, 580251, Control_c, 0, 64, 34
1, 580266, Control_c, 0, 64, 33
1, 580295, Control_c, 0, 64, 34
1, 580310, Control_c, 0, 64, 39
1, 580325, Control_c, 0, 64, 47
1, 580340, Control_c, 0, 64, 53
1, 580355, Control_c, 0, 64, 58
1, 580369, Control_c, 0, 64, 63
1, 580384, Control_c, 0, 64, 66
1, 580399, Control_c, 0, 64, 70
1, 580414, Control_c, 0, 64, 76
1, 580429, Control_c, 0, 64, 85
1, 580444, Control_c, 0, 64, 96
1, 580459, Note_off_c, 0, 35, 37
1, 580459, Control_c, 0, 64, 127
1, 580611, Note_off_c, 0, 54, 39
1, 580678, Note_off_c, 0, 62, 36
1, 580703, Note_off_c, 0, 47, 31
1, 581088, Note_on_c, 0, 40, 37
1, 581101, Note_on_c, 0, 47, 29
1, 581112, Note_off_c, 0, 59, 27
1, 581113, Note_on_c, 0, 66, 53
1, 581137, Note_on_c, 0, 55, 42
1, 581141, Note_on_c, 0, 62, 41
1, 581148, Control_c, 0, 64, 112
1, 581163, Control_c, 0, 64, 100
1, 581178, Control_c, 0, 64, 89
1, 581192, Control_c, 0, 64, 77
1, 581207, Control_c, 0, 64, 65
1, 581222, Control_c, 0, 64, 51
1, 581237, Control_c, 0, 64, 34
1, 581252, Control_c, 0, 64, 33
1, 581267, Control_c, 0, 64, 33
1, 581282, Control_c, 0, 64, 36
1, 581297, Control_c, 0, 64, 43
1, 581311, Control_c, 0, 64, 50
1, 581326, Control_c, 0, 64, 57
1, 581341, Control_c, 0, 64, 63
1, 581356, Control_c, 0, 64, 68
1, 581371, Control_c, 0, 64, 74
1, 581385, Control_c, 0, 64, 86
1, 581400, Control_c, 0, 64, 100
1, 581415, Control_c, 0, 64, 127
1, 581443, Note_on_c, 0, 64, 69
1, 581466, Note_on_c, 0, 61, 62
1, 581502, Note_off_c, 0, 62, 56
1, 581556, Note_off_c, 0, 61, 59
1, 581588, Note_off_c, 0, 55, 56
1, 581620, Note_off_c, 0, 47, 40
1, 581648, Note_on_c, 0, 62, 67
1, 581657, Note_on_c, 0, 59, 68
1, 581714, Note_off_c, 0, 64, 57
1, 581738, Note_off_c, 0, 66, 35
1, 581791, Note_off_c, 0, 62, 59
1, 581798, Note_off_c, 0, 59, 59
1, 581897, Control_c, 0, 64, 122
1, 581912, Control_c, 0, 64, 105
1, 581927, Control_c, 0, 64, 94
1, 581941, Control_c, 0, 64, 82
1, 581952, Note_on_c, 0, 62, 49
1, 581952, Note_on_c, 0, 59, 40
1, 581956, Note_on_c, 0, 42, 44
1, 581956, Control_c, 0, 64, 68
1, 581971, Control_c, 0, 64, 57
1, 581986, Note_on_c, 0, 50, 19
1, 581986, Control_c, 0, 64, 35
1, 581987, Note_on_c, 0, 54, 43
1, 582001, Control_c, 0, 64, 30
1, 582045, Control_c, 0, 64, 30
1, 582052, Note_off_c, 0, 40, 42
1, 582060, Control_c, 0, 64, 38
1, 582075, Control_c, 0, 64, 50
1, 582089, Control_c, 0, 64, 58
1, 582104, Control_c, 0, 64, 63
1, 582119, Control_c, 0, 64, 69
1, 582134, Control_c, 0, 64, 78
1, 582149, Control_c, 0, 64, 88
1, 582154, Note_off_c, 0, 50, 39
1, 582163, Note_off_c, 0, 62, 56
1, 582164, Note_off_c, 0, 42, 60
1, 582164, Control_c, 0, 64, 91
1, 582177, Note_off_c, 0, 59, 42
1, 582179, Control_c, 0, 64, 88
1, 582188, Note_off_c, 0, 54, 35
1, 582194, Control_c, 0, 64, 85
1, 582208, Control_c, 0, 64, 84
1, 582223, Control_c, 0, 64, 83
1, 582238, Control_c, 0, 64, 81
1, 582253, Control_c, 0, 64, 78
1, 582268, Control_c, 0, 64, 75
1, 582283, Control_c, 0, 64, 74
1, 582298, Control_c, 0, 64, 72
1, 582313, Control_c, 0, 64, 70
1, 582328, Control_c, 0, 64, 69
1, 582343, Control_c, 0, 64, 68
1, 582357, Control_c, 0, 64, 67
1, 582379, Control_c, 0, 64, 66
1, 582394, Control_c, 0, 64, 65
1, 582409, Control_c, 0, 64, 64
1, 582424, Control_c, 0, 64, 63
1, 582438, Control_c, 0, 64, 63
1, 582453, Control_c, 0, 64, 62
1, 582468, Control_c, 0, 64, 61
1, 582483, Control_c, 0, 64, 61
1, 582498, Control_c, 0, 64, 60
1, 582513, Control_c, 0, 64, 60
1, 582528, Control_c, 0, 64, 59
1, 582543, Control_c, 0, 64, 57
1, 582557, Control_c, 0, 64, 57
1, 582572, Control_c, 0, 64, 56
1, 582587, Control_c, 0, 64, 55
1, 582602, Control_c, 0, 64, 52
1, 582617, Control_c, 0, 64, 49
1, 582631, Control_c, 0, 64, 46
1, 582691, Control_c, 0, 64, 47
1, 582705, Control_c, 0, 64, 48
1, 582720, Control_c, 0, 64, 50
1, 582735, Control_c, 0, 64, 51
1, 582750, Control_c, 0, 64, 53
1, 582764, Control_c, 0, 64, 54
1, 582779, Control_c, 0, 64, 55
1, 582794, Control_c, 0, 64, 56
1, 582809, Control_c, 0, 64, 58
1, 582823, Note_on_c, 0, 61, 36
1, 582824, Control_c, 0, 64, 60
1, 582826, Note_on_c, 0, 42, 33
1, 582834, Note_on_c, 0, 58, 34
1, 582838, Note_on_c, 0, 30, 31
1, 582838, Control_c, 0, 64, 61
1, 582841, Note_on_c, 0, 54, 32
1, 582853, Control_c, 0, 64, 63
1, 582855, Note_on_c, 0, 49, 26
1, 582868, Control_c, 0, 64, 64
1, 582883, Control_c, 0, 64, 65
1, 582898, Control_c, 0, 64, 67
1, 582912, Control_c, 0, 64, 69
1, 582927, Control_c, 0, 64, 72
1, 582942, Control_c, 0, 64, 76
1, 582957, Control_c, 0, 64, 81
1, 582972, Control_c, 0, 64, 86
1, 582987, Control_c, 0, 64, 92
1, 583002, Control_c, 0, 64, 100
1, 583017, Control_c, 0, 64, 112
1, 583031, Control_c, 0, 64, 127
1, 583232, Control_c, 0, 64, 125
1, 583247, Control_c, 0, 64, 122
1, 583261, Control_c, 0, 64, 119
1, 583276, Control_c, 0, 64, 115
1, 583291, Control_c, 0, 64, 112
1, 583291, Control_c, 0, 67, 125
1, 583306, Control_c, 0, 64, 109
1, 583306, Control_c, 0, 67, 123
1, 583316, Note_off_c, 0, 49, 34
1, 583321, Note_off_c, 0, 54, 36
1, 583321, Control_c, 0, 64, 108
1, 583321, Control_c, 0, 67, 119
1, 583335, Control_c, 0, 64, 105
1, 583335, Control_c, 0, 67, 114
1, 583350, Control_c, 0, 64, 103
1, 583350, Control_c, 0, 67, 106
1, 583365, Control_c, 0, 64, 100
1, 583365, Control_c, 0, 67, 99
1, 583380, Control_c, 0, 64, 97
1, 583380, Control_c, 0, 67, 92
1, 583383, Note_off_c, 0, 30, 36
1, 583395, Control_c, 0, 64, 95
1, 583395, Control_c, 0, 67, 84
1, 583410, Control_c, 0, 64, 94
1, 583410, Control_c, 0, 67, 77
1, 583425, Note_off_c, 0, 61, 29
1, 583425, Control_c, 0, 64, 92
1, 583425, Control_c, 0, 67, 72
1, 583428, Note_off_c, 0, 42, 34
1, 583440, Control_c, 0, 64, 90
1, 583440, Control_c, 0, 67, 69
1, 583454, Control_c, 0, 64, 88
1, 583454, Control_c, 0, 67, 68
1, 583469, Control_c, 0, 64, 86
1, 583476, Note_off_c, 0, 58, 32
1, 583484, Control_c, 0, 64, 85
1, 583498, Control_c, 0, 64, 84
1, 583513, Control_c, 0, 64, 83
1, 583513, Control_c, 0, 67, 67
1, 583528, Control_c, 0, 64, 82
1, 583543, Control_c, 0, 64, 81
1, 583543, Control_c, 0, 67, 67
1, 583558, Control_c, 0, 64, 81
1, 583558, Control_c, 0, 67, 66
1, 583573, Control_c, 0, 64, 80
1, 583587, Control_c, 0, 64, 79
1, 583587, Control_c, 0, 67, 66
1, 583602, Control_c, 0, 64, 78
1, 583602, Control_c, 0, 67, 65
1, 583617, Control_c, 0, 64, 77
1, 583617, Control_c, 0, 67, 64
1, 583632, Control_c, 0, 64, 76
1, 583632, Control_c, 0, 67, 64
1, 583647, Control_c, 0, 64, 76
1, 583647, Control_c, 0, 67, 63
1, 583661, Control_c, 0, 64, 75
1, 583661, Control_c, 0, 67, 54
1, 583676, Control_c, 0, 64, 74
1, 583676, Control_c, 0, 67, 42
1, 583691, Control_c, 0, 64, 74
1, 583691, Control_c, 0, 67, 32
1, 583705, Control_c, 0, 64, 73
1, 583705, Control_c, 0, 67, 23
1, 583720, Control_c, 0, 64, 72
1, 583720, Control_c, 0, 67, 16
1, 583735, Control_c, 0, 64, 72
1, 583735, Control_c, 0, 67, 12
1, 583750, Control_c, 0, 64, 71
1, 583750, Control_c, 0, 67, 10
1, 583765, Control_c, 0, 64, 70
1, 583765, Control_c, 0, 67, 0
1, 583780, Control_c, 0, 64, 69
1, 583795, Control_c, 0, 64, 68
1, 583809, Control_c, 0, 64, 68
1, 583824, Control_c, 0, 64, 67
1, 583839, Control_c, 0, 64, 67
1, 583854, Control_c, 0, 64, 66
1, 583877, Control_c, 0, 64, 66
1, 583907, Control_c, 0, 64, 65
1, 583922, Control_c, 0, 64, 65
1, 583937, Control_c, 0, 64, 64
1, 583981, Control_c, 0, 64, 64
1, 584010, Control_c, 0, 64, 63
1, 584040, Control_c, 0, 64, 63
1, 584084, Control_c, 0, 64, 62
1, 584114, Control_c, 0, 64, 62
1, 584158, Control_c, 0, 64, 61
1, 584188, Control_c, 0, 64, 61
1, 584233, Control_c, 0, 64, 60
1, 584307, Control_c, 0, 64, 60
1, 584366, Control_c, 0, 64, 59
1, 584425, Control_c, 0, 64, 59
1, 584499, Control_c, 0, 64, 58
1, 584759, Control_c, 0, 64, 59
1, 584789, Control_c, 0, 64, 59
1, 584819, Control_c, 0, 64, 60
1, 584848, Control_c, 0, 64, 60
1, 584863, Control_c, 0, 64, 61
1, 584878, Control_c, 0, 64, 61
1, 584893, Control_c, 0, 64, 62
1, 584907, Control_c, 0, 64, 62
1, 584922, Control_c, 0, 64, 63
1, 584937, Control_c, 0, 64, 64
1, 584951, Control_c, 0, 64, 65
1, 584966, Control_c, 0, 64, 66
1, 584981, Control_c, 0, 64, 68
1, 584996, Control_c, 0, 64, 70
1, 585011, Control_c, 0, 64, 73
1, 585026, Control_c, 0, 64, 76
1, 585041, Control_c, 0, 64, 79
1, 585055, Control_c, 0, 64, 83
1, 585070, Control_c, 0, 64, 88
1, 585085, Control_c, 0, 64, 94
1, 585100, Control_c, 0, 64, 102
1, 585112, Note_on_c, 0, 50, 63
1, 585115, Control_c, 0, 64, 127
1, 585751, Note_on_c, 0, 49, 78
1, 585834, Note_off_c, 0, 50, 61
1, 585863, Control_c, 0, 64, 115
1, 585878, Control_c, 0, 64, 105
1, 585893, Control_c, 0, 64, 98
1, 585908, Control_c, 0, 64, 92
1, 585923, Control_c, 0, 64, 87
1, 585926, Note_on_c, 0, 50, 86
1, 585938, Control_c, 0, 64, 83
1, 585953, Control_c, 0, 64, 79
1, 585967, Control_c, 0, 64, 75
1, 585982, Control_c, 0, 64, 72
1, 585989, Note_off_c, 0, 49, 58
1, 585997, Control_c, 0, 64, 70
1, 586012, Control_c, 0, 64, 68
1, 586027, Control_c, 0, 64, 67
1, 586041, Control_c, 0, 64, 65
1, 586056, Control_c, 0, 64, 64
1, 586071, Control_c, 0, 64, 63
1, 586086, Control_c, 0, 64, 61
1, 586101, Control_c, 0, 64, 59
1, 586123, Control_c, 0, 64, 57
1, 586138, Control_c, 0, 64, 53
1, 586152, Control_c, 0, 64, 50
1, 586167, Control_c, 0, 64, 45
1, 586182, Control_c, 0, 64, 37
1, 586197, Control_c, 0, 64, 23
1, 586212, Control_c, 0, 64, 0
1, 586301, Control_c, 0, 64, 25
1, 586316, Control_c, 0, 64, 36
1, 586331, Control_c, 0, 64, 45
1, 586346, Control_c, 0, 64, 53
1, 586361, Control_c, 0, 64, 59
1, 586376, Control_c, 0, 64, 62
1, 586391, Control_c, 0, 64, 65
1, 586405, Control_c, 0, 64, 68
1, 586420, Control_c, 0, 64, 74
1, 586435, Control_c, 0, 64, 82
1, 586450, Control_c, 0, 64, 95
1, 586465, Control_c, 0, 64, 122
1, 586479, Control_c, 0, 64, 127
1, 586674, Note_on_c, 0, 52, 78
1, 586701, Control_c, 0, 64, 109
1, 586716, Control_c, 0, 64, 102
1, 586731, Control_c, 0, 64, 96
1, 586746, Control_c, 0, 64, 90
1, 586761, Control_c, 0, 64, 86
1, 586775, Control_c, 0, 64, 82
1, 586790, Control_c, 0, 64, 78
1, 586803, Note_off_c, 0, 50, 50
1, 586805, Control_c, 0, 64, 75
1, 586820, Control_c, 0, 64, 73
1, 586835, Control_c, 0, 64, 71
1, 586850, Control_c, 0, 64, 70
1, 586865, Control_c, 0, 64, 68
1, 586886, Control_c, 0, 64, 66
1, 586901, Control_c, 0, 64, 65
1, 586916, Control_c, 0, 64, 65
1, 586930, Control_c, 0, 64, 64
1, 586945, Control_c, 0, 64, 63
1, 586960, Control_c, 0, 64, 62
1, 586975, Control_c, 0, 64, 60
1, 586990, Control_c, 0, 64, 57
1, 587005, Control_c, 0, 64, 54
1, 587020, Control_c, 0, 64, 50
1, 587035, Control_c, 0, 64, 43
1, 587050, Control_c, 0, 64, 34
1, 587065, Control_c, 0, 64, 29
1, 587109, Control_c, 0, 64, 31
1, 587124, Control_c, 0, 64, 35
1, 587139, Control_c, 0, 64, 39
1, 587154, Control_c, 0, 64, 43
1, 587169, Control_c, 0, 64, 47
1, 587184, Control_c, 0, 64, 49
1, 587199, Control_c, 0, 64, 53
1, 587214, Control_c, 0, 64, 56
1, 587228, Control_c, 0, 64, 59
1, 587243, Control_c, 0, 64, 61
1, 587258, Control_c, 0, 64, 62
1, 587273, Control_c, 0, 64, 63
1, 587288, Control_c, 0, 64, 65
1, 587302, Control_c, 0, 64, 67
1, 587317, Control_c, 0, 64, 69
1, 587332, Control_c, 0, 64, 72
1, 587346, Control_c, 0, 64, 76
1, 587361, Control_c, 0, 64, 80
1, 587376, Control_c, 0, 64, 84
1, 587391, Control_c, 0, 64, 90
1, 587406, Control_c, 0, 64, 98
1, 587420, Control_c, 0, 64, 109
1, 587435, Control_c, 0, 64, 127
1, 587722, Note_on_c, 0, 59, 46
1, 587751, Note_on_c, 0, 43, 38
1, 587751, Note_on_c, 0, 47, 40
1, 587759, Note_on_c, 0, 55, 43
1, 587760, Note_on_c, 0, 31, 35
1, 588120, Note_off_c, 0, 52, 54
1, 588559, Note_on_c, 0, 50, 59
1, 588940, Note_off_c, 0, 50, 61
1, 589216, Note_on_c, 0, 49, 58
1, 589414, Note_off_c, 0, 49, 55
1, 589533, Control_c, 0, 64, 125
1, 589546, Note_on_c, 0, 50, 54
1, 589548, Control_c, 0, 64, 110
1, 589563, Control_c, 0, 64, 104
1, 589578, Control_c, 0, 64, 98
1, 589592, Control_c, 0, 64, 92
1, 589607, Control_c, 0, 64, 83
1, 589622, Control_c, 0, 64, 73
1, 589637, Control_c, 0, 64, 64
1, 589652, Control_c, 0, 64, 53
1, 589667, Control_c, 0, 64, 50
1, 589682, Control_c, 0, 64, 52
1, 589696, Control_c, 0, 64, 53
1, 589711, Control_c, 0, 64, 55
1, 589726, Control_c, 0, 64, 58
1, 589741, Control_c, 0, 64, 61
1, 589756, Note_off_c, 0, 50, 64
1, 589756, Control_c, 0, 64, 65
1, 589770, Control_c, 0, 64, 71
1, 589785, Control_c, 0, 64, 80
1, 589800, Control_c, 0, 64, 91
1, 589814, Control_c, 0, 64, 105
1, 589829, Control_c, 0, 64, 127
1, 589884, Note_on_c, 0, 49, 64
1, 590001, Note_off_c, 0, 49, 58
1, 590101, Note_on_c, 0, 50, 74
1, 590236, Control_c, 0, 64, 117
1, 590251, Control_c, 0, 64, 109
1, 590267, Control_c, 0, 64, 103
1, 590282, Control_c, 0, 64, 97
1, 590297, Control_c, 0, 64, 92
1, 590312, Control_c, 0, 64, 88
1, 590326, Control_c, 0, 64, 84
1, 590341, Control_c, 0, 64, 81
1, 590350, Note_on_c, 0, 52, 71
1, 590356, Control_c, 0, 64, 78
1, 590371, Control_c, 0, 64, 75
1, 590385, Control_c, 0, 64, 72
1, 590400, Control_c, 0, 64, 69
1, 590404, Note_off_c, 0, 50, 59
1, 590415, Control_c, 0, 64, 66
1, 590430, Control_c, 0, 64, 63
1, 590445, Control_c, 0, 64, 57
1, 590460, Control_c, 0, 64, 47
1, 590475, Control_c, 0, 64, 36
1, 590490, Control_c, 0, 64, 27
1, 590505, Control_c, 0, 64, 22
1, 590519, Control_c, 0, 64, 19
1, 590549, Control_c, 0, 64, 21
1, 590563, Control_c, 0, 64, 29
1, 590578, Control_c, 0, 64, 38
1, 590593, Control_c, 0, 64, 46
1, 590615, Control_c, 0, 64, 55
1, 590630, Control_c, 0, 64, 61
1, 590645, Control_c, 0, 64, 64
1, 590660, Control_c, 0, 64, 68
1, 590674, Control_c, 0, 64, 74
1, 590689, Control_c, 0, 64, 83
1, 590704, Control_c, 0, 64, 98
1, 590718, Note_off_c, 0, 59, 34
1, 590719, Control_c, 0, 64, 117
1, 590734, Control_c, 0, 64, 127
1, 590755, Note_off_c, 0, 43, 39
1, 590760, Note_off_c, 0, 47, 33
1, 590761, Note_off_c, 0, 31, 41
1, 590783, Note_off_c, 0, 55, 33
1, 591233, Note_on_c, 0, 58, 51
1, 591238, Control_c, 0, 64, 122
1, 591243, Note_on_c, 0, 55, 50
1, 591244, Note_on_c, 0, 40, 46
1, 591250, Note_on_c, 0, 46, 44
1, 591253, Note_on_c, 0, 28, 44
1, 591253, Control_c, 0, 64, 106
1, 591268, Control_c, 0, 64, 99
1, 591283, Control_c, 0, 64, 91
1, 591297, Control_c, 0, 64, 83
1, 591312, Control_c, 0, 64, 76
1, 591327, Control_c, 0, 64, 68
1, 591342, Control_c, 0, 64, 61
1, 591357, Control_c, 0, 64, 49
1, 591379, Control_c, 0, 64, 41
1, 591393, Control_c, 0, 64, 38
1, 591408, Control_c, 0, 64, 36
1, 591438, Control_c, 0, 64, 37
1, 591453, Control_c, 0, 64, 43
1, 591467, Control_c, 0, 64, 50
1, 591482, Control_c, 0, 64, 56
1, 591497, Control_c, 0, 64, 61
1, 591512, Control_c, 0, 64, 65
1, 591527, Control_c, 0, 64, 69
1, 591542, Control_c, 0, 64, 78
1, 591557, Control_c, 0, 64, 88
1, 591572, Control_c, 0, 64, 100
1, 591572, Note_off_c, 0, 52, 60
1, 591586, Control_c, 0, 64, 109
1, 591601, Control_c, 0, 64, 110
1, 591616, Control_c, 0, 64, 108
1, 591631, Control_c, 0, 64, 106
1, 591637, Note_off_c, 0, 28, 35
1, 591646, Control_c, 0, 64, 104
1, 591660, Control_c, 0, 64, 101
1, 591675, Control_c, 0, 64, 98
1, 591676, Note_off_c, 0, 40, 41
1, 591690, Control_c, 0, 64, 97
1, 591705, Control_c, 0, 64, 95
1, 591720, Control_c, 0, 64, 93
1, 591729, Note_off_c, 0, 46, 29
1, 591734, Control_c, 0, 64, 91
1, 591749, Control_c, 0, 64, 89
1, 591752, Note_off_c, 0, 55, 30
1, 591764, Control_c, 0, 64, 89
1, 591779, Control_c, 0, 64, 87
1, 591780, Note_off_c, 0, 58, 25
1, 591793, Control_c, 0, 64, 86
1, 591808, Control_c, 0, 64, 84
1, 591823, Control_c, 0, 64, 82
1, 591838, Control_c, 0, 64, 81
1, 591853, Control_c, 0, 64, 79
1, 591869, Control_c, 0, 64, 77
1, 591884, Control_c, 0, 64, 76
1, 591898, Control_c, 0, 64, 75
1, 591913, Control_c, 0, 64, 73
1, 591928, Control_c, 0, 64, 72
1, 591943, Control_c, 0, 64, 71
1, 591958, Control_c, 0, 64, 71
1, 591972, Control_c, 0, 64, 70
1, 591987, Control_c, 0, 64, 70
1, 592002, Control_c, 0, 64, 69
1, 592016, Control_c, 0, 64, 68
1, 592046, Control_c, 0, 64, 68
1, 592061, Control_c, 0, 64, 67
1, 592076, Control_c, 0, 64, 67
1, 592090, Control_c, 0, 64, 66
1, 592128, Control_c, 0, 64, 66
1, 592158, Control_c, 0, 64, 65
1, 592172, Control_c, 0, 64, 65
1, 592187, Control_c, 0, 64, 64
1, 592216, Control_c, 0, 64, 64
1, 592231, Control_c, 0, 64, 63
1, 592246, Control_c, 0, 64, 62
1, 592249, Note_on_c, 0, 52, 50
1, 592257, Note_on_c, 0, 58, 43
1, 592261, Note_on_c, 0, 42, 32
1, 592261, Control_c, 0, 64, 61
1, 592262, Note_on_c, 0, 30, 31
1, 592266, Note_on_c, 0, 54, 49
1, 592276, Control_c, 0, 64, 60
1, 592284, Note_on_c, 0, 46, 38
1, 592290, Control_c, 0, 64, 57
1, 592305, Control_c, 0, 64, 53
1, 592320, Control_c, 0, 64, 46
1, 592335, Control_c, 0, 64, 38
1, 592350, Control_c, 0, 64, 31
1, 592394, Control_c, 0, 64, 33
1, 592409, Control_c, 0, 64, 37
1, 592409, Control_c, 0, 67, 14
1, 592423, Control_c, 0, 64, 42
1, 592423, Control_c, 0, 67, 27
1, 592438, Control_c, 0, 64, 47
1, 592438, Control_c, 0, 67, 42
1, 592453, Control_c, 0, 64, 50
1, 592453, Control_c, 0, 67, 58
1, 592468, Control_c, 0, 64, 54
1, 592468, Control_c, 0, 67, 76
1, 592483, Control_c, 0, 64, 58
1, 592483, Control_c, 0, 67, 88
1, 592497, Control_c, 0, 64, 61
1, 592497, Control_c, 0, 67, 99
1, 592512, Control_c, 0, 64, 63
1, 592512, Control_c, 0, 67, 110
1, 592520, Note_off_c, 0, 58, 36
1, 592527, Control_c, 0, 64, 65
1, 592527, Control_c, 0, 67, 125
1, 592542, Control_c, 0, 64, 66
1, 592542, Control_c, 0, 67, 127
1, 592546, Note_off_c, 0, 30, 46
1, 592555, Note_off_c, 0, 54, 30
1, 592556, Note_off_c, 0, 46, 37
1, 592557, Control_c, 0, 64, 68
1, 592571, Control_c, 0, 64, 71
1, 592586, Control_c, 0, 64, 73
1, 592601, Control_c, 0, 64, 74
1, 592638, Note_off_c, 0, 42, 37
1, 592691, Control_c, 0, 64, 73
1, 592735, Control_c, 0, 64, 73
1, 592750, Control_c, 0, 64, 72
1, 592765, Control_c, 0, 64, 72
1, 592780, Control_c, 0, 64, 71
1, 592809, Control_c, 0, 64, 71
1, 592839, Control_c, 0, 64, 70
1, 592891, Control_c, 0, 64, 70
1, 592950, Control_c, 0, 64, 69
1, 593038, Control_c, 0, 64, 69
1, 593084, Control_c, 0, 64, 68
1, 593173, Control_c, 0, 64, 68
1, 593247, Control_c, 0, 64, 67
1, 593321, Control_c, 0, 64, 67
1, 593559, Control_c, 0, 64, 66
1, 593611, Control_c, 0, 64, 66
1, 593645, Note_on_c, 0, 35, 32
1, 593646, Note_on_c, 0, 59, 27
1, 593648, Note_on_c, 0, 42, 22
1, 593655, Note_on_c, 0, 47, 23
1, 593655, Control_c, 0, 64, 65
1, 593661, Note_on_c, 0, 54, 27
1, 593700, Control_c, 0, 64, 65
1, 593730, Control_c, 0, 64, 64
1, 593744, Control_c, 0, 64, 64
1, 593774, Control_c, 0, 64, 63
1, 593788, Control_c, 0, 64, 62
1, 593803, Control_c, 0, 64, 62
1, 593818, Control_c, 0, 64, 61
1, 593833, Control_c, 0, 64, 61
1, 593848, Control_c, 0, 64, 60
1, 593862, Control_c, 0, 64, 59
1, 593877, Control_c, 0, 64, 58
1, 593892, Control_c, 0, 64, 57
1, 593907, Control_c, 0, 64, 55
1, 593922, Control_c, 0, 64, 53
1, 593936, Control_c, 0, 64, 49
1, 593951, Control_c, 0, 64, 44
1, 593966, Control_c, 0, 64, 37
1, 593981, Control_c, 0, 64, 36
1, 594010, Control_c, 0, 64, 36
1, 594025, Control_c, 0, 64, 39
1, 594040, Control_c, 0, 64, 43
1, 594055, Control_c, 0, 64, 49
1, 594070, Control_c, 0, 64, 52
1, 594085, Control_c, 0, 64, 56
1, 594100, Control_c, 0, 64, 59
1, 594114, Control_c, 0, 64, 62
1, 594129, Control_c, 0, 64, 64
1, 594144, Control_c, 0, 64, 66
1, 594159, Control_c, 0, 64, 69
1, 594174, Control_c, 0, 64, 73
1, 594188, Control_c, 0, 64, 79
1, 594203, Control_c, 0, 64, 84
1, 594218, Control_c, 0, 64, 91
1, 594233, Control_c, 0, 64, 101
1, 594248, Control_c, 0, 64, 110
1, 594263, Control_c, 0, 64, 127
1, 594398, Note_off_c, 0, 52, 36
1, 594745, Control_c, 0, 64, 125
1, 594759, Control_c, 0, 64, 119
1, 594774, Control_c, 0, 64, 115
1, 594789, Control_c, 0, 64, 111
1, 594804, Control_c, 0, 64, 108
1, 594818, Control_c, 0, 64, 105
1, 594828, Note_on_c, 0, 50, 35
1, 594833, Control_c, 0, 64, 102
1, 594848, Control_c, 0, 64, 99
1, 594863, Control_c, 0, 64, 95
1, 594878, Control_c, 0, 64, 91
1, 594892, Control_c, 0, 64, 86
1, 594907, Control_c, 0, 64, 83
1, 594922, Control_c, 0, 64, 80
1, 594937, Control_c, 0, 64, 77
1, 594952, Control_c, 0, 64, 74
1, 594967, Control_c, 0, 64, 72
1, 594982, Control_c, 0, 64, 70
1, 594997, Control_c, 0, 64, 68
1, 595011, Control_c, 0, 64, 66
1, 595026, Control_c, 0, 64, 64
1, 595041, Control_c, 0, 64, 62
1, 595056, Control_c, 0, 64, 59
1, 595071, Control_c, 0, 64, 54
1, 595086, Control_c, 0, 64, 52
1, 595138, Control_c, 0, 64, 52
1, 595153, Control_c, 0, 64, 54
1, 595168, Control_c, 0, 64, 56
1, 595183, Control_c, 0, 64, 58
1, 595197, Control_c, 0, 64, 59
1, 595212, Control_c, 0, 64, 61
1, 595227, Control_c, 0, 64, 63
1, 595241, Control_c, 0, 64, 65
1, 595256, Control_c, 0, 64, 68
1, 595271, Control_c, 0, 64, 72
1, 595286, Control_c, 0, 64, 77
1, 595301, Control_c, 0, 64, 81
1, 595316, Control_c, 0, 64, 86
1, 595331, Control_c, 0, 64, 92
1, 595346, Control_c, 0, 64, 101
1, 595360, Control_c, 0, 64, 127
1, 595429, Note_off_c, 0, 50, 36
1, 596059, Note_on_c, 0, 49, 30
1, 596336, Note_off_c, 0, 49, 38
1, 596559, Note_on_c, 0, 50, 27
1, 596597, Control_c, 0, 64, 115
1, 596619, Control_c, 0, 64, 107
1, 596634, Control_c, 0, 64, 102
1, 596649, Control_c, 0, 64, 98
1, 596665, Control_c, 0, 64, 93
1, 596680, Control_c, 0, 64, 89
1, 596694, Control_c, 0, 64, 84
1, 596709, Control_c, 0, 64, 81
1, 596724, Control_c, 0, 64, 79
1, 596739, Control_c, 0, 64, 77
1, 596754, Control_c, 0, 64, 75
1, 596768, Control_c, 0, 64, 73
1, 596783, Control_c, 0, 64, 70
1, 596799, Control_c, 0, 64, 69
1, 596814, Control_c, 0, 64, 68
1, 596829, Control_c, 0, 64, 67
1, 596843, Control_c, 0, 64, 66
1, 596858, Control_c, 0, 64, 65
1, 596873, Control_c, 0, 64, 64
1, 596887, Control_c, 0, 64, 64
1, 596902, Control_c, 0, 64, 63
1, 596917, Control_c, 0, 64, 63
1, 596932, Control_c, 0, 64, 62
1, 596947, Control_c, 0, 64, 61
1, 596961, Control_c, 0, 64, 61
1, 596976, Control_c, 0, 64, 60
1, 596991, Control_c, 0, 64, 60
1, 597006, Control_c, 0, 64, 59
1, 597021, Control_c, 0, 64, 59
1, 597036, Control_c, 0, 64, 58
1, 597051, Control_c, 0, 64, 58
1, 597066, Control_c, 0, 64, 57
1, 597080, Control_c, 0, 64, 57
1, 597095, Control_c, 0, 64, 56
1, 597110, Control_c, 0, 64, 55
1, 597125, Control_c, 0, 64, 55
1, 597154, Control_c, 0, 64, 54
1, 597169, Control_c, 0, 64, 53
1, 597184, Control_c, 0, 64, 52
1, 597198, Control_c, 0, 64, 52
1, 597213, Control_c, 0, 64, 51
1, 597228, Control_c, 0, 64, 50
1, 597243, Control_c, 0, 64, 50
1, 597399, Control_c, 0, 64, 50
1, 597413, Control_c, 0, 64, 51
1, 597443, Control_c, 0, 64, 52
1, 597459, Control_c, 0, 64, 52
1, 597474, Control_c, 0, 64, 53
1, 597489, Control_c, 0, 64, 53
1, 597504, Control_c, 0, 64, 54
1, 597518, Control_c, 0, 64, 54
1, 597548, Control_c, 0, 64, 55
1, 597563, Control_c, 0, 64, 56
1, 597578, Control_c, 0, 64, 56
1, 597592, Control_c, 0, 64, 57
1, 597607, Control_c, 0, 64, 58
1, 597622, Control_c, 0, 64, 59
1, 597636, Control_c, 0, 64, 60
1, 597651, Control_c, 0, 64, 61
1, 597666, Control_c, 0, 64, 62
1, 597681, Control_c, 0, 64, 63
1, 597696, Control_c, 0, 64, 64
1, 597710, Control_c, 0, 64, 65
1, 597725, Control_c, 0, 64, 66
1, 597740, Control_c, 0, 64, 67
1, 597755, Control_c, 0, 64, 69
1, 597770, Control_c, 0, 64, 72
1, 597784, Control_c, 0, 64, 75
1, 597799, Control_c, 0, 64, 77
1, 597814, Control_c, 0, 64, 80
1, 597829, Control_c, 0, 64, 82
1, 597844, Control_c, 0, 64, 84
1, 597858, Control_c, 0, 64, 87
1, 597873, Control_c, 0, 64, 91
1, 597888, Control_c, 0, 64, 95
1, 597903, Control_c, 0, 64, 100
1, 597918, Control_c, 0, 64, 107
1, 597933, Control_c, 0, 64, 114
1, 597948, Control_c, 0, 64, 127
1, 599138, Note_off_c, 0, 50, 25
1, 599231, Note_off_c, 0, 54, 30
1, 599546, Note_off_c, 0, 35, 23
1, 599551, Note_off_c, 0, 59, 29
1, 599552, Note_off_c, 0, 42, 29
1, 599821, Control_c, 0, 64, 125
1, 599832, Note_off_c, 0, 47, 19
1, 599836, Control_c, 0, 64, 120
1, 599851, Control_c, 0, 64, 119
1, 599867, Control_c, 0, 64, 117
1, 599882, Control_c, 0, 64, 115
1, 599896, Control_c, 0, 64, 114
1, 599911, Control_c, 0, 64, 113
1, 599926, Control_c, 0, 64, 112
1, 599941, Control_c, 0, 64, 110
1, 599956, Control_c, 0, 64, 110
1, 599970, Control_c, 0, 64, 109
1, 599985, Control_c, 0, 64, 107
1, 600000, Control_c, 0, 64, 104
1, 600015, Control_c, 0, 64, 102
1, 600030, Control_c, 0, 64, 101
1, 600044, Control_c, 0, 64, 100
1, 600059, Control_c, 0, 64, 99
1, 600074, Control_c, 0, 64, 98
1, 600089, Control_c, 0, 64, 96
1, 600103, Control_c, 0, 64, 95
1, 600118, Control_c, 0, 64, 93
1, 600133, Control_c, 0, 64, 92
1, 600148, Control_c, 0, 64, 90
1, 600163, Control_c, 0, 64, 89
1, 600178, Control_c, 0, 64, 88
1, 600193, Control_c, 0, 64, 87
1, 600207, Control_c, 0, 64, 87
1, 600222, Control_c, 0, 64, 86
1, 600237, Control_c, 0, 64, 85
1, 600252, Control_c, 0, 64, 84
1, 600267, Control_c, 0, 64, 83
1, 600282, Control_c, 0, 64, 83
1, 600296, Control_c, 0, 64, 82
1, 600311, Control_c, 0, 64, 82
1, 600326, Control_c, 0, 64, 81
1, 600341, Control_c, 0, 64, 80
1, 600363, Control_c, 0, 64, 79
1, 600377, Control_c, 0, 64, 79
1, 600392, Control_c, 0, 64, 78
1, 600407, Control_c, 0, 64, 77
1, 600422, Control_c, 0, 64, 77
1, 600437, Control_c, 0, 64, 76
1, 600452, Control_c, 0, 64, 76
1, 600467, Control_c, 0, 64, 75
1, 600497, Control_c, 0, 64, 75
1, 600511, Control_c, 0, 64, 74
1, 600526, Control_c, 0, 64, 74
1, 600571, Control_c, 0, 64, 73
1, 600615, Control_c, 0, 64, 73
1, 600629, Control_c, 0, 64, 72
1, 600644, Control_c, 0, 64, 72
1, 600661, Control_c, 0, 64, 71
1, 600675, Control_c, 0, 64, 71
1, 600690, Control_c, 0, 64, 70
1, 600720, Control_c, 0, 64, 70
1, 600749, Control_c, 0, 64, 69
1, 600779, Control_c, 0, 64, 69
1, 600823, Control_c, 0, 64, 68
1, 600838, Control_c, 0, 64, 68
1, 600867, Control_c, 0, 64, 67
1, 600897, Control_c, 0, 64, 67
1, 600941, Control_c, 0, 64, 66
1, 600971, Control_c, 0, 64, 66
1, 601045, Control_c, 0, 64, 65
1, 601075, Control_c, 0, 64, 65
1, 601126, Control_c, 0, 64, 64
1, 601171, Control_c, 0, 64, 64
1, 601230, Control_c, 0, 64, 63
1, 601290, Control_c, 0, 64, 63
1, 601349, Control_c, 0, 64, 62
1, 601439, Control_c, 0, 64, 62
1, 601513, Control_c, 0, 64, 61
1, 601588, Control_c, 0, 64, 61
1, 601647, Control_c, 0, 64, 60
1, 601706, Control_c, 0, 64, 60
1, 601765, Control_c, 0, 64, 59
1, 601810, Control_c, 0, 64, 59
1, 601862, Control_c, 0, 64, 58
1, 601906, Control_c, 0, 64, 58
1, 601980, Control_c, 0, 64, 57
1, 602039, Control_c, 0, 64, 57
1, 602069, Control_c, 0, 64, 56
1, 602128, Control_c, 0, 64, 56
1, 602172, Control_c, 0, 64, 55
1, 602202, Control_c, 0, 64, 55
1, 602231, Control_c, 0, 64, 54
1, 602247, Control_c, 0, 64, 54
1, 602277, Control_c, 0, 64, 53
1, 602292, Control_c, 0, 64, 53
1, 602306, Control_c, 0, 64, 52
1, 602336, Control_c, 0, 64, 52
1, 602351, Control_c, 0, 64, 51
1, 602366, Control_c, 0, 64, 50
1, 602380, Control_c, 0, 64, 50
1, 602410, Control_c, 0, 64, 49
1, 602425, Control_c, 0, 64, 49
1, 602440, Control_c, 0, 64, 48
1, 602455, Control_c, 0, 64, 48
1, 602470, Control_c, 0, 64, 47
1, 602514, Control_c, 0, 64, 46
1, 602529, Control_c, 0, 64, 46
1, 602544, Control_c, 0, 64, 45
1, 602559, Control_c, 0, 64, 44
1, 602573, Control_c, 0, 64, 43
1, 602610, Control_c, 0, 64, 42
1, 602625, Control_c, 0, 64, 42
1, 602655, Control_c, 0, 64, 41
1, 602699, Control_c, 0, 64, 40
1, 602714, Control_c, 0, 64, 40
1, 602729, Control_c, 0, 64, 39
1, 602744, Control_c, 0, 64, 38
1, 602759, Control_c, 0, 64, 36
1, 602773, Control_c, 0, 64, 34
1, 602787, Control_c, 0, 64, 31
1, 602802, Control_c, 0, 64, 30
1, 602817, Control_c, 0, 64, 26
1, 602832, Control_c, 0, 64, 19
1, 602846, Control_c, 0, 64, 0
1, 603173, Control_c, 0, 67, 121
1, 603188, Control_c, 0, 67, 109
1, 603203, Control_c, 0, 67, 91
1, 603218, Control_c, 0, 67, 66
1, 603233, Control_c, 0, 67, 32
1, 603248, Control_c, 0, 67, 0
1, 603493, Note_on_c, 0, 40, 91
1, 603551, Control_c, 0, 64, 55
1, 603566, Control_c, 0, 64, 73
1, 603581, Control_c, 0, 64, 127
1, 603663, Note_on_c, 0, 47, 74
1, 603698, Note_off_c, 0, 40, 61
1, 603759, Note_off_c, 0, 47, 62
1, 603779, Note_on_c, 0, 55, 78
1, 603861, Note_on_c, 0, 54, 82
1, 603862, Note_off_c, 0, 55, 64
1, 603928, Note_off_c, 0, 54, 64
1, 603930, Note_on_c, 0, 55, 76
1, 603982, Note_on_c, 0, 52, 80
1, 603985, Note_off_c, 0, 55, 63
1, 604034, Note_off_c, 0, 52, 64
1, 604041, Note_on_c, 0, 55, 79
1, 604112, Note_off_c, 0, 55, 63
1, 604124, Note_on_c, 0, 52, 68
1, 604127, Note_on_c, 0, 53, 71
1, 604166, Note_on_c, 0, 51, 84
1, 604181, Note_off_c, 0, 53, 63
1, 604182, Note_off_c, 0, 52, 65
1, 604220, Note_on_c, 0, 55, 80
1, 604222, Note_off_c, 0, 51, 65
1, 604276, Note_on_c, 0, 51, 82
1, 604287, Note_off_c, 0, 55, 61
1, 604324, Note_on_c, 0, 50, 83
1, 604344, Note_off_c, 0, 51, 64
1, 604375, Note_off_c, 0, 50, 64
1, 604387, Note_on_c, 0, 52, 84
1, 604433, Control_c, 0, 64, 94
1, 604448, Control_c, 0, 64, 77
1, 604451, Note_off_c, 0, 52, 62
1, 604455, Note_on_c, 0, 50, 84
1, 604463, Control_c, 0, 64, 66
1, 604477, Control_c, 0, 64, 50
1, 604492, Control_c, 0, 64, 26
1, 604503, Note_on_c, 0, 49, 78
1, 604507, Control_c, 0, 64, 0
1, 604513, Note_off_c, 0, 50, 64
1, 604550, Note_off_c, 0, 49, 64
1, 604554, Note_on_c, 0, 52, 79
1, 604611, Note_on_c, 0, 49, 70
1, 604613, Note_off_c, 0, 52, 64
1, 604654, Note_on_c, 0, 48, 75
1, 604655, Note_off_c, 0, 49, 63
1, 604701, Note_off_c, 0, 48, 61
1, 604715, Note_on_c, 0, 49, 78
1, 604774, Control_c, 0, 64, 28
1, 604777, Note_off_c, 0, 49, 64
1, 604779, Note_on_c, 0, 48, 66
1, 604789, Control_c, 0, 64, 55
1, 604794, Note_on_c, 0, 47, 48
1, 604804, Control_c, 0, 64, 74
1, 604819, Control_c, 0, 64, 127
1, 604846, Note_off_c, 0, 48, 63
1, 604884, Poly_aftertouch_c, 0, 48, 0
1, 604890, Note_on_c, 0, 48, 64
1, 604895, Note_off_c, 0, 47, 63
1, 604946, Note_on_c, 0, 46, 89
1, 604954, Note_off_c, 0, 48, 62
1, 605006, Note_on_c, 0, 47, 86
1, 605018, Note_off_c, 0, 46, 63
1, 605079, Control_c, 0, 64, 117
1, 605090, Note_on_c, 0, 40, 94
1, 605093, Control_c, 0, 64, 72
1, 605108, Control_c, 0, 64, 39
1, 605119, Note_off_c, 0, 47, 62
1, 605123, Control_c, 0, 64, 0
1, 605153, Control_c, 0, 64, 23
1, 605168, Control_c, 0, 64, 56
1, 605183, Control_c, 0, 64, 70
1, 605197, Control_c, 0, 64, 92
1, 605212, Control_c, 0, 64, 127
1, 605228, Note_off_c, 0, 40, 63
1, 605241, Note_on_c, 0, 47, 68
1, 605278, Note_off_c, 0, 47, 64
1, 605308, Note_on_c, 0, 55, 63
1, 605355, Note_off_c, 0, 55, 62
1, 605364, Note_on_c, 0, 54, 79
1, 605425, Note_off_c, 0, 54, 64
1, 605428, Note_on_c, 0, 55, 79
1, 605464, Note_off_c, 0, 55, 64
1, 605466, Note_on_c, 0, 52, 82
1, 605519, Note_off_c, 0, 52, 67
1, 605535, Note_on_c, 0, 55, 81
1, 605595, Note_off_c, 0, 55, 63
1, 605597, Note_on_c, 0, 52, 86
1, 605650, Note_on_c, 0, 51, 88
1, 605665, Note_off_c, 0, 52, 63
1, 605705, Note_off_c, 0, 51, 66
1, 605716, Note_on_c, 0, 55, 77
1, 605763, Note_on_c, 0, 51, 87
1, 605774, Note_off_c, 0, 55, 61
1, 605818, Note_on_c, 0, 50, 84
1, 605828, Note_off_c, 0, 51, 63
1, 605869, Note_off_c, 0, 50, 66
1, 605886, Note_on_c, 0, 52, 84
1, 605943, Note_off_c, 0, 52, 64
1, 605945, Note_on_c, 0, 50, 82
1, 605947, Control_c, 0, 64, 107
1, 605962, Control_c, 0, 64, 88
1, 605977, Control_c, 0, 64, 75
1, 605991, Control_c, 0, 64, 67
1, 605996, Note_on_c, 0, 49, 82
1, 606001, Note_off_c, 0, 50, 64
1, 606006, Control_c, 0, 64, 60
1, 606021, Control_c, 0, 64, 45
1, 606036, Control_c, 0, 64, 0
1, 606052, Note_off_c, 0, 49, 65
1, 606057, Note_on_c, 0, 52, 74
1, 606108, Note_on_c, 0, 49, 76
1, 606114, Note_off_c, 0, 52, 66
1, 606163, Note_off_c, 0, 49, 65
1, 606168, Note_on_c, 0, 48, 64
1, 606175, Note_on_c, 0, 47, 62
1, 606207, Note_off_c, 0, 47, 62
1, 606210, Note_off_c, 0, 48, 64
1, 606226, Note_on_c, 0, 49, 79
1, 606259, Control_c, 0, 64, 41
1, 606274, Control_c, 0, 64, 63
1, 606285, Note_on_c, 0, 48, 67
1, 606288, Control_c, 0, 64, 80
1, 606297, Note_off_c, 0, 49, 62
1, 606299, Note_on_c, 0, 47, 48
1, 606303, Control_c, 0, 64, 127
1, 606354, Note_off_c, 0, 48, 63
1, 606394, Note_on_c, 0, 48, 71
1, 606408, Note_off_c, 0, 47, 62
1, 606452, Note_on_c, 0, 46, 89
1, 606459, Note_off_c, 0, 48, 62
1, 606512, Note_on_c, 0, 47, 89
1, 606526, Note_on_c, 0, 59, 102
1, 606526, Note_off_c, 0, 46, 64
1, 606630, Note_on_c, 0, 40, 81
1, 606633, Note_off_c, 0, 59, 61
1, 606643, Note_off_c, 0, 47, 60
1, 606665, Note_on_c, 0, 67, 98
1, 606677, Note_on_c, 0, 64, 92
1, 606681, Control_c, 0, 64, 86
1, 606695, Control_c, 0, 64, 60
1, 606710, Control_c, 0, 64, 0
1, 606769, Control_c, 0, 64, 49
1, 606784, Control_c, 0, 64, 68
1, 606799, Control_c, 0, 64, 89
1, 606800, Note_off_c, 0, 40, 63
1, 606806, Note_on_c, 0, 47, 57
1, 606813, Control_c, 0, 64, 127
1, 606865, Note_off_c, 0, 47, 61
1, 606888, Note_on_c, 0, 55, 64
1, 606923, Note_off_c, 0, 55, 61
1, 606958, Note_on_c, 0, 54, 78
1, 607016, Note_off_c, 0, 54, 64
1, 607017, Note_on_c, 0, 55, 72
1, 607063, Note_off_c, 0, 55, 63
1, 607064, Note_on_c, 0, 52, 81
1, 607124, Note_off_c, 0, 52, 66
1, 607144, Note_on_c, 0, 55, 77
1, 607202, Note_off_c, 0, 55, 61
1, 607204, Note_on_c, 0, 52, 86
1, 607257, Note_on_c, 0, 51, 84
1, 607274, Note_off_c, 0, 52, 62
1, 607307, Note_off_c, 0, 51, 65
1, 607320, Note_on_c, 0, 55, 81
1, 607374, Note_on_c, 0, 51, 89
1, 607384, Note_off_c, 0, 55, 60
1, 607425, Note_on_c, 0, 50, 80
1, 607439, Note_off_c, 0, 51, 63
1, 607475, Note_off_c, 0, 50, 65
1, 607492, Note_on_c, 0, 52, 86
1, 607548, Control_c, 0, 64, 101
1, 607549, Note_off_c, 0, 52, 65
1, 607550, Note_on_c, 0, 50, 82
1, 607562, Control_c, 0, 64, 84
1, 607577, Control_c, 0, 64, 72
1, 607592, Control_c, 0, 64, 64
1, 607603, Note_on_c, 0, 49, 79
1, 607606, Note_off_c, 0, 50, 66
1, 607607, Control_c, 0, 64, 52
1, 607622, Control_c, 0, 64, 26
1, 607636, Control_c, 0, 64, 0
1, 607657, Note_off_c, 0, 49, 65
1, 607658, Note_on_c, 0, 52, 77
1, 607717, Note_on_c, 0, 49, 75
1, 607722, Note_off_c, 0, 52, 66
1, 607767, Note_off_c, 0, 49, 63
1, 607767, Note_on_c, 0, 48, 70
1, 607800, Control_c, 0, 64, 50
1, 607815, Control_c, 0, 64, 69
1, 607820, Note_off_c, 0, 48, 61
1, 607823, Note_off_c, 0, 64, 55
1, 607825, Note_on_c, 0, 49, 76
1, 607830, Control_c, 0, 64, 127
1, 607856, Note_off_c, 0, 67, 59
1, 607895, Note_on_c, 0, 48, 73
1, 607906, Note_off_c, 0, 49, 63
1, 607945, Note_on_c, 0, 47, 74
1, 607963, Note_off_c, 0, 48, 63
1, 607997, Note_on_c, 0, 48, 68
1, 608005, Note_off_c, 0, 47, 62
1, 608061, Note_on_c, 0, 46, 89
1, 608071, Note_off_c, 0, 48, 62
1, 608118, Note_on_c, 0, 47, 84
1, 608139, Note_off_c, 0, 46, 64
1, 608157, Note_on_c, 0, 59, 104
1, 608259, Note_on_c, 0, 40, 86
1, 608260, Note_off_c, 0, 59, 58
1, 608289, Note_off_c, 0, 47, 60
1, 608291, Note_on_c, 0, 67, 99
1, 608297, Control_c, 0, 64, 70
1, 608303, Note_on_c, 0, 64, 92
1, 608311, Control_c, 0, 64, 0
1, 608400, Control_c, 0, 64, 54
1, 608415, Control_c, 0, 64, 71
1, 608430, Control_c, 0, 64, 101
1, 608432, Note_off_c, 0, 40, 62
1, 608433, Note_on_c, 0, 47, 63
1, 608445, Control_c, 0, 64, 127
1, 608495, Note_off_c, 0, 47, 62
1, 608520, Note_on_c, 0, 55, 69
1, 608564, Note_off_c, 0, 55, 59
1, 608596, Note_on_c, 0, 54, 77
1, 608658, Note_off_c, 0, 54, 64
1, 608663, Note_on_c, 0, 55, 75
1, 608694, Note_off_c, 0, 55, 63
1, 608700, Note_on_c, 0, 52, 80
1, 608757, Note_off_c, 0, 52, 66
1, 608774, Note_on_c, 0, 55, 78
1, 608829, Note_on_c, 0, 52, 86
1, 608829, Note_off_c, 0, 55, 64
1, 608882, Note_on_c, 0, 51, 86
1, 608904, Note_off_c, 0, 52, 65
1, 608937, Note_off_c, 0, 51, 65
1, 608943, Note_on_c, 0, 55, 80
1, 609001, Note_on_c, 0, 51, 88
1, 609017, Note_off_c, 0, 55, 61
1, 609053, Note_on_c, 0, 50, 81
1, 609075, Note_off_c, 0, 51, 63
1, 609102, Note_off_c, 0, 50, 65
1, 609126, Note_on_c, 0, 52, 81
1, 609178, Control_c, 0, 64, 99
1, 609186, Note_on_c, 0, 50, 84
1, 609186, Note_off_c, 0, 52, 65
1, 609193, Control_c, 0, 64, 81
1, 609207, Control_c, 0, 64, 71
1, 609222, Control_c, 0, 64, 63
1, 609237, Note_on_c, 0, 49, 81
1, 609237, Control_c, 0, 64, 54
1, 609243, Note_off_c, 0, 50, 64
1, 609252, Control_c, 0, 64, 39
1, 609267, Control_c, 0, 64, 0
1, 609296, Note_on_c, 0, 52, 79
1, 609299, Note_off_c, 0, 49, 64
1, 609359, Note_on_c, 0, 49, 73
1, 609368, Note_off_c, 0, 52, 64
1, 609412, Note_on_c, 0, 48, 75
1, 609430, Note_off_c, 0, 49, 55
1, 609478, Note_off_c, 0, 48, 62
1, 609478, Note_on_c, 0, 49, 67
1, 609483, Control_c, 0, 64, 44
1, 609498, Control_c, 0, 64, 61
1, 609512, Control_c, 0, 64, 82
1, 609520, Note_off_c, 0, 64, 56
1, 609527, Control_c, 0, 64, 127
1, 609536, Note_on_c, 0, 48, 67
1, 609556, Note_off_c, 0, 49, 62
1, 609559, Note_off_c, 0, 67, 57
1, 609591, Note_on_c, 0, 47, 72
1, 609612, Note_off_c, 0, 48, 62
1, 609648, Poly_aftertouch_c, 0, 48, 0
1, 609653, Note_off_c, 0, 47, 61
1, 609655, Note_on_c, 0, 48, 63
1, 609722, Note_on_c, 0, 46, 78
1, 609725, Note_off_c, 0, 48, 63
1, 609781, Note_on_c, 0, 47, 71
1, 609797, Note_off_c, 0, 46, 62
1, 609823, Note_on_c, 0, 59, 94
1, 609930, Note_off_c, 0, 59, 60
1, 609938, Note_on_c, 0, 40, 63
1, 609939, Note_off_c, 0, 47, 56
1, 609956, Control_c, 0, 64, 95
1, 609962, Note_on_c, 0, 67, 89
1, 609971, Control_c, 0, 64, 65
1, 609979, Note_on_c, 0, 64, 68
1, 609986, Control_c, 0, 64, 27
1, 610001, Control_c, 0, 64, 0
1, 610030, Control_c, 0, 64, 29
1, 610045, Control_c, 0, 64, 51
1, 610060, Control_c, 0, 64, 65
1, 610075, Control_c, 0, 64, 80
1, 610076, Note_off_c, 0, 40, 60
1, 610097, Control_c, 0, 64, 127
1, 610099, Note_on_c, 0, 47, 57
1, 610147, Note_off_c, 0, 47, 62
1, 610182, Note_on_c, 0, 55, 65
1, 610218, Note_off_c, 0, 55, 61
1, 610249, Note_on_c, 0, 54, 74
1, 610305, Note_on_c, 0, 55, 68
1, 610309, Note_off_c, 0, 54, 64
1, 610353, Note_on_c, 0, 52, 74
1, 610354, Note_off_c, 0, 55, 65
1, 610399, Note_off_c, 0, 52, 63
1, 610410, Note_off_c, 0, 64, 62
1, 610420, Note_on_c, 0, 55, 77
1, 610435, Note_off_c, 0, 67, 61
1, 610488, Note_on_c, 0, 49, 81
1, 610496, Note_off_c, 0, 55, 61
1, 610525, Note_on_c, 0, 48, 67
1, 610563, Note_off_c, 0, 49, 62
1, 610587, Note_on_c, 0, 55, 80
1, 610591, Note_off_c, 0, 48, 63
1, 610647, Note_on_c, 0, 48, 74
1, 610663, Note_off_c, 0, 55, 64
1, 610703, Note_on_c, 0, 47, 79
1, 610716, Note_on_c, 0, 69, 100
1, 610728, Note_on_c, 0, 66, 79
1, 610728, Note_off_c, 0, 48, 62
1, 610751, Note_off_c, 0, 66, 69
1, 610759, Note_off_c, 0, 69, 68
1, 610809, Control_c, 0, 64, 80
1, 610810, Note_off_c, 0, 47, 60
1, 610812, Note_on_c, 0, 40, 79
1, 610813, Note_on_c, 0, 71, 111
1, 610823, Note_on_c, 0, 67, 90
1, 610824, Control_c, 0, 64, 54
1, 610846, Control_c, 0, 64, 0
1, 610891, Control_c, 0, 64, 24
1, 610906, Control_c, 0, 64, 58
1, 610920, Control_c, 0, 64, 71
1, 610923, Note_on_c, 0, 47, 68
1, 610934, Note_off_c, 0, 40, 61
1, 610935, Control_c, 0, 64, 99
1, 610950, Control_c, 0, 64, 127
1, 610983, Note_off_c, 0, 47, 62
1, 611001, Note_on_c, 0, 55, 76
1, 611073, Note_on_c, 0, 54, 85
1, 611075, Note_off_c, 0, 55, 60
1, 611077, Note_off_c, 0, 67, 52
1, 611134, Note_off_c, 0, 71, 55
1, 611153, Note_off_c, 0, 54, 64
1, 611156, Note_on_c, 0, 55, 82
1, 611222, Note_on_c, 0, 52, 87
1, 611226, Note_off_c, 0, 55, 62
1, 611341, Note_on_c, 0, 45, 76
1, 611359, Note_off_c, 0, 52, 60
1, 611377, Note_on_c, 0, 69, 99
1, 611395, Control_c, 0, 64, 78
1, 611399, Note_on_c, 0, 66, 75
1, 611410, Control_c, 0, 64, 52
1, 611425, Control_c, 0, 64, 0
1, 611469, Control_c, 0, 64, 27
1, 611484, Control_c, 0, 64, 60
1, 611499, Control_c, 0, 64, 73
1, 611514, Note_on_c, 0, 52, 70
1, 611514, Control_c, 0, 64, 112
1, 611523, Note_off_c, 0, 45, 61
1, 611523, Note_off_c, 0, 66, 60
1, 611528, Control_c, 0, 64, 127
1, 611553, Note_off_c, 0, 69, 66
1, 611600, Note_off_c, 0, 52, 64
1, 611624, Note_on_c, 0, 60, 76
1, 611633, Note_on_c, 0, 67, 105
1, 611642, Note_on_c, 0, 64, 88
1, 611686, Note_off_c, 0, 60, 58
1, 611696, Note_on_c, 0, 59, 80
1, 611696, Note_off_c, 0, 64, 60
1, 611715, Note_off_c, 0, 67, 65
1, 611764, Note_off_c, 0, 59, 63
1, 611778, Note_on_c, 0, 60, 85
1, 611783, Note_on_c, 0, 69, 109
1, 611804, Note_on_c, 0, 66, 80
1, 611830, Note_off_c, 0, 60, 62
1, 611830, Note_on_c, 0, 57, 83
1, 611855, Note_off_c, 0, 57, 67
1, 611865, Note_off_c, 0, 66, 59
1, 611899, Note_off_c, 0, 69, 58
1, 611957, Note_on_c, 0, 40, 81
1, 611979, Note_on_c, 0, 71, 95
1, 611981, Control_c, 0, 64, 84
1, 611991, Note_on_c, 0, 67, 79
1, 611996, Control_c, 0, 64, 58
1, 612011, Control_c, 0, 64, 0
1, 612085, Control_c, 0, 64, 51
1, 612099, Control_c, 0, 64, 66
1, 612109, Note_off_c, 0, 40, 62
1, 612114, Control_c, 0, 64, 83
1, 612121, Note_on_c, 0, 47, 61
1, 612129, Control_c, 0, 64, 127
1, 612158, Note_off_c, 0, 47, 62
1, 612197, Note_on_c, 0, 55, 63
1, 612243, Note_off_c, 0, 55, 61
1, 612257, Note_on_c, 0, 54, 74
1, 612320, Note_off_c, 0, 54, 63
1, 612333, Note_on_c, 0, 55, 70
1, 612365, Note_off_c, 0, 55, 64
1, 612372, Note_on_c, 0, 52, 75
1, 612426, Note_off_c, 0, 52, 65
1, 612450, Note_on_c, 0, 55, 74
1, 612510, Note_on_c, 0, 52, 84
1, 612510, Note_off_c, 0, 55, 63
1, 612566, Note_on_c, 0, 51, 82
1, 612576, Note_off_c, 0, 52, 61
1, 612623, Note_off_c, 0, 51, 65
1, 612628, Note_on_c, 0, 55, 78
1, 612682, Note_on_c, 0, 51, 86
1, 612692, Note_off_c, 0, 55, 58
1, 612730, Note_on_c, 0, 50, 80
1, 612754, Note_off_c, 0, 51, 63
1, 612775, Note_off_c, 0, 50, 65
1, 612802, Note_on_c, 0, 52, 82
1, 612849, Control_c, 0, 64, 112
1, 612864, Note_off_c, 0, 52, 65
1, 612864, Control_c, 0, 64, 92
1, 612867, Note_on_c, 0, 50, 82
1, 612879, Control_c, 0, 64, 81
1, 612894, Control_c, 0, 64, 72
1, 612909, Control_c, 0, 64, 64
1, 612915, Note_on_c, 0, 49, 80
1, 612923, Control_c, 0, 64, 52
1, 612928, Note_off_c, 0, 50, 64
1, 612938, Control_c, 0, 64, 26
1, 612953, Control_c, 0, 64, 0
1, 612972, Note_on_c, 0, 52, 72
1, 612975, Note_off_c, 0, 49, 64
1, 613026, Note_on_c, 0, 49, 75
1, 613037, Note_off_c, 0, 52, 65
1, 613081, Note_on_c, 0, 48, 75
1, 613096, Note_off_c, 0, 49, 63
1, 613109, Control_c, 0, 64, 51
1, 613124, Control_c, 0, 64, 69
1, 613138, Control_c, 0, 64, 127
1, 613147, Note_off_c, 0, 48, 60
1, 613148, Note_on_c, 0, 49, 65
1, 613172, Note_off_c, 0, 71, 60
1, 613181, Note_off_c, 0, 67, 60
1, 613183, Note_on_c, 0, 48, 57
1, 613210, Note_on_c, 0, 47, 76
1, 613210, Note_off_c, 0, 49, 63
1, 613239, Note_off_c, 0, 48, 62
1, 613280, Note_on_c, 0, 48, 67
1, 613291, Note_off_c, 0, 47, 60
1, 613344, Note_on_c, 0, 46, 88
1, 613354, Note_off_c, 0, 48, 59
1, 613404, Note_on_c, 0, 47, 80
1, 613444, Note_off_c, 0, 46, 62
1, 613458, Note_off_c, 0, 47, 63
1, 613459, Note_on_c, 0, 64, 103
1, 613544, Note_off_c, 0, 64, 60
1, 613586, Note_on_c, 0, 45, 87
1, 613588, Note_on_c, 0, 33, 85
1, 613612, Control_c, 0, 64, 69
1, 613615, Note_on_c, 0, 67, 100
1, 613621, Note_on_c, 0, 60, 97
1, 613627, Control_c, 0, 64, 0
1, 613686, Control_c, 0, 64, 49
1, 613690, Note_off_c, 0, 33, 63
1, 613701, Control_c, 0, 64, 72
1, 613716, Control_c, 0, 64, 127
1, 613739, Note_off_c, 0, 45, 63
1, 613815, Note_on_c, 0, 52, 67
1, 613856, Note_off_c, 0, 60, 63
1, 613872, Note_off_c, 0, 52, 64
1, 613893, Note_on_c, 0, 55, 70
1, 613935, Note_off_c, 0, 55, 62
1, 613936, Note_on_c, 0, 54, 78
1, 614000, Note_on_c, 0, 55, 83
1, 614006, Note_off_c, 0, 54, 64
1, 614051, Note_on_c, 0, 52, 83
1, 614059, Note_off_c, 0, 55, 63
1, 614104, Note_on_c, 0, 60, 99
1, 614106, Note_off_c, 0, 52, 65
1, 614157, Note_off_c, 0, 67, 60
1, 614177, Note_on_c, 0, 55, 83
1, 614186, Note_off_c, 0, 60, 64
1, 614230, Note_on_c, 0, 52, 79
1, 614250, Note_off_c, 0, 55, 63
1, 614289, Note_on_c, 0, 54, 85
1, 614319, Note_off_c, 0, 52, 63
1, 614349, Note_on_c, 0, 55, 89
1, 614380, Note_off_c, 0, 54, 58
1, 614408, Note_on_c, 0, 52, 85
1, 614420, Note_off_c, 0, 55, 65
1, 614443, Note_on_c, 0, 59, 99
1, 614443, Note_off_c, 0, 52, 65
1, 614518, Note_off_c, 0, 59, 62
1, 614553, Control_c, 0, 64, 97
1, 614563, Note_on_c, 0, 63, 102
1, 614564, Note_on_c, 0, 47, 91
1, 614565, Note_on_c, 0, 35, 85
1, 614568, Control_c, 0, 64, 61
1, 614580, Note_on_c, 0, 57, 88
1, 614590, Control_c, 0, 64, 0
1, 614647, Note_off_c, 0, 35, 62
1, 614665, Control_c, 0, 64, 27
1, 614680, Control_c, 0, 64, 59
1, 614689, Note_off_c, 0, 47, 63
1, 614695, Control_c, 0, 64, 74
1, 614709, Control_c, 0, 64, 115
1, 614724, Control_c, 0, 64, 127
1, 614748, Note_off_c, 0, 57, 62
1, 614773, Note_on_c, 0, 54, 58
1, 614811, Note_off_c, 0, 54, 47
1, 614838, Note_on_c, 0, 57, 74
1, 614876, Note_off_c, 0, 57, 61
1, 614885, Note_on_c, 0, 55, 79
1, 614949, Note_on_c, 0, 57, 80
1, 614953, Note_off_c, 0, 55, 63
1, 614990, Note_on_c, 0, 54, 84
1, 615005, Note_off_c, 0, 57, 64
1, 615040, Note_on_c, 0, 59, 95
1, 615052, Note_off_c, 0, 54, 64
1, 615132, Note_on_c, 0, 57, 78
1, 615181, Note_off_c, 0, 59, 61
1, 615195, Note_on_c, 0, 54, 76
1, 615200, Note_off_c, 0, 63, 58
1, 615218, Note_off_c, 0, 57, 62
1, 615248, Note_on_c, 0, 55, 84
1, 615294, Note_off_c, 0, 54, 62
1, 615335, Note_on_c, 0, 57, 83
1, 615350, Note_off_c, 0, 55, 56
1, 615407, Note_on_c, 0, 54, 78
1, 615415, Note_off_c, 0, 57, 64
1, 615443, Note_off_c, 0, 54, 67
1, 615457, Note_on_c, 0, 64, 100
1, 615609, Note_off_c, 0, 64, 58
1, 615612, Note_on_c, 0, 40, 65
1, 615680, Control_c, 0, 64, 100
1, 615690, Note_on_c, 0, 64, 93
1, 615695, Control_c, 0, 64, 69
1, 615703, Note_on_c, 0, 55, 76
1, 615709, Control_c, 0, 64, 22
1, 615724, Control_c, 0, 64, 0
1, 615813, Control_c, 0, 64, 55
1, 615829, Control_c, 0, 64, 70
1, 615844, Control_c, 0, 64, 87
1, 615855, Note_off_c, 0, 55, 60
1, 615859, Note_off_c, 0, 40, 60
1, 615859, Control_c, 0, 64, 127
1, 615861, Note_on_c, 0, 47, 56
1, 615908, Note_off_c, 0, 47, 61
1, 615954, Note_on_c, 0, 55, 57
1, 615993, Note_off_c, 0, 55, 61
1, 616019, Note_on_c, 0, 54, 65
1, 616052, Note_off_c, 0, 64, 60
1, 616078, Note_off_c, 0, 54, 57
1, 616089, Note_on_c, 0, 55, 62
1, 616129, Note_off_c, 0, 55, 60
1, 616140, Note_on_c, 0, 52, 64
1, 616198, Note_off_c, 0, 52, 60
1, 616238, Note_on_c, 0, 55, 57
1, 616239, Note_on_c, 0, 67, 56
1, 616304, Note_off_c, 0, 55, 57
1, 616317, Note_on_c, 0, 52, 62
1, 616318, Note_on_c, 0, 64, 60
1, 616323, Note_off_c, 0, 67, 60
1, 616376, Note_off_c, 0, 64, 59
1, 616379, Note_on_c, 0, 51, 66
1, 616383, Note_on_c, 0, 63, 68
1, 616386, Note_off_c, 0, 52, 63
1, 616435, Note_on_c, 0, 67, 76
1, 616436, Note_off_c, 0, 63, 62
1, 616438, Note_off_c, 0, 51, 63
1, 616441, Note_on_c, 0, 55, 60
1, 616480, Poly_aftertouch_c, 0, 51, 0
1, 616488, Note_on_c, 0, 51, 69
1, 616489, Note_on_c, 0, 63, 66
1, 616495, Note_off_c, 0, 55, 63
1, 616516, Note_off_c, 0, 67, 61
1, 616543, Note_on_c, 0, 50, 69
1, 616547, Note_on_c, 0, 62, 78
1, 616550, Note_off_c, 0, 63, 63
1, 616562, Note_off_c, 0, 51, 62
1, 616591, Note_off_c, 0, 50, 60
1, 616605, Note_off_c, 0, 62, 62
1, 616605, Note_on_c, 0, 52, 75
1, 616608, Note_on_c, 0, 64, 86
1, 616665, Note_off_c, 0, 52, 65
1, 616666, Note_on_c, 0, 62, 74
1, 616668, Note_on_c, 0, 50, 70
1, 616668, Control_c, 0, 64, 110
1, 616683, Control_c, 0, 64, 92
1, 616691, Note_off_c, 0, 64, 64
1, 616697, Control_c, 0, 64, 80
1, 616712, Control_c, 0, 64, 70
1, 616716, Note_on_c, 0, 49, 77
1, 616719, Note_on_c, 0, 61, 84
1, 616721, Note_off_c, 0, 62, 65
1, 616723, Note_off_c, 0, 50, 65
1, 616727, Control_c, 0, 64, 62
1, 616742, Control_c, 0, 64, 37
1, 616757, Control_c, 0, 64, 0
1, 616776, Note_on_c, 0, 52, 68
1, 616778, Note_off_c, 0, 49, 64
1, 616778, Note_off_c, 0, 61, 63
1, 616784, Note_on_c, 0, 64, 84
1, 616814, Poly_aftertouch_c, 0, 49, 0
1, 616829, Note_on_c, 0, 49, 66
1, 616844, Note_on_c, 0, 61, 83
1, 616844, Note_off_c, 0, 52, 64
1, 616871, Note_off_c, 0, 64, 62
1, 616877, Note_on_c, 0, 48, 77
1, 616888, Note_off_c, 0, 49, 62
1, 616905, Note_on_c, 0, 60, 92
1, 616905, Note_off_c, 0, 61, 65
1, 616935, Note_on_c, 0, 49, 67
1, 616936, Note_off_c, 0, 48, 63
1, 616962, Note_on_c, 0, 61, 84
1, 616969, Note_off_c, 0, 60, 63
1, 616986, Control_c, 0, 64, 35
1, 616991, Note_on_c, 0, 48, 59
1, 617001, Control_c, 0, 64, 61
1, 617008, Note_on_c, 0, 60, 76
1, 617008, Note_off_c, 0, 49, 63
1, 617015, Control_c, 0, 64, 72
1, 617029, Note_on_c, 0, 47, 72
1, 617029, Control_c, 0, 64, 112
1, 617030, Note_off_c, 0, 61, 62
1, 617044, Control_c, 0, 64, 127
1, 617059, Note_off_c, 0, 48, 62
1, 617067, Note_on_c, 0, 59, 80
1, 617071, Note_off_c, 0, 60, 65
1, 617085, Note_off_c, 0, 47, 61
1, 617100, Note_on_c, 0, 48, 59
1, 617121, Note_on_c, 0, 60, 81
1, 617134, Note_off_c, 0, 59, 65
1, 617160, Note_on_c, 0, 46, 75
1, 617169, Note_off_c, 0, 48, 61
1, 617186, Note_on_c, 0, 58, 87
1, 617194, Note_off_c, 0, 60, 64
1, 617213, Note_on_c, 0, 47, 77
1, 617231, Note_off_c, 0, 46, 61
1, 617247, Note_on_c, 0, 59, 87
1, 617311, Control_c, 0, 64, 80
1, 617319, Note_off_c, 0, 58, 61
1, 617324, Note_on_c, 0, 40, 85
1, 617326, Control_c, 0, 64, 41
1, 617339, Note_off_c, 0, 47, 54
1, 617340, Note_on_c, 0, 52, 90
1, 617341, Control_c, 0, 64, 0
1, 617349, Note_off_c, 0, 59, 63
1, 617400, Control_c, 0, 64, 51
1, 617415, Control_c, 0, 64, 71
1, 617430, Note_off_c, 0, 52, 64
1, 617431, Control_c, 0, 64, 98
1, 617445, Control_c, 0, 64, 127
1, 617465, Note_on_c, 0, 59, 71
1, 617471, Note_off_c, 0, 40, 62
1, 617485, Note_on_c, 0, 47, 46
1, 617517, Note_off_c, 0, 47, 62
1, 617517, Note_off_c, 0, 59, 58
1, 617548, Note_on_c, 0, 55, 61
1, 617561, Note_on_c, 0, 67, 62
1, 617599, Note_off_c, 0, 55, 59
1, 617604, Note_off_c, 0, 67, 64
1, 617617, Note_on_c, 0, 66, 69
1, 617621, Note_on_c, 0, 54, 72
1, 617690, Note_off_c, 0, 54, 61
1, 617693, Note_on_c, 0, 55, 66
1, 617696, Note_on_c, 0, 67, 78
1, 617700, Note_off_c, 0, 66, 61
1, 617723, Note_on_c, 0, 52, 69
1, 617727, Note_off_c, 0, 55, 62
1, 617759, Note_off_c, 0, 67, 61
1, 617759, Note_on_c, 0, 64, 77
1, 617789, Note_off_c, 0, 52, 62
1, 617798, Note_on_c, 0, 55, 66
1, 617816, Note_off_c, 0, 64, 64
1, 617841, Note_on_c, 0, 67, 81
1, 617870, Note_off_c, 0, 55, 63
1, 617874, Note_on_c, 0, 52, 75
1, 617914, Note_off_c, 0, 67, 63
1, 617914, Note_on_c, 0, 64, 64
1, 617925, Note_on_c, 0, 65, 65
1, 617935, Note_on_c, 0, 51, 81
1, 617941, Note_off_c, 0, 52, 63
1, 617949, Note_off_c, 0, 65, 62
1, 617956, Note_on_c, 0, 63, 83
1, 617956, Note_off_c, 0, 64, 64
1, 618002, Note_off_c, 0, 51, 64
1, 618003, Note_on_c, 0, 55, 70
1, 618010, Note_off_c, 0, 63, 64
1, 618011, Note_on_c, 0, 67, 89
1, 618040, Poly_aftertouch_c, 0, 51, 0
1, 618046, Note_on_c, 0, 51, 73
1, 618061, Note_off_c, 0, 55, 62
1, 618077, Note_on_c, 0, 63, 79
1, 618099, Note_on_c, 0, 50, 76
1, 618101, Note_off_c, 0, 67, 63
1, 618125, Note_off_c, 0, 51, 63
1, 618126, Note_on_c, 0, 62, 90
1, 618132, Note_off_c, 0, 63, 64
1, 618149, Note_off_c, 0, 50, 62
1, 618170, Note_on_c, 0, 52, 78
1, 618191, Note_off_c, 0, 62, 61
1, 618192, Note_on_c, 0, 64, 89
1, 618234, Note_on_c, 0, 50, 78
1, 618239, Note_off_c, 0, 52, 65
1, 618252, Note_on_c, 0, 62, 79
1, 618254, Control_c, 0, 64, 98
1, 618268, Control_c, 0, 64, 74
1, 618279, Note_off_c, 0, 64, 64
1, 618283, Control_c, 0, 64, 55
1, 618284, Note_on_c, 0, 49, 74
1, 618298, Note_off_c, 0, 50, 63
1, 618298, Control_c, 0, 64, 0
1, 618309, Note_on_c, 0, 61, 85
1, 618310, Note_off_c, 0, 62, 68
1, 618351, Note_on_c, 0, 52, 74
1, 618355, Note_off_c, 0, 49, 64
1, 618373, Note_off_c, 0, 61, 64
1, 618379, Note_on_c, 0, 64, 87
1, 618393, Poly_aftertouch_c, 0, 49, 0
1, 618400, Note_on_c, 0, 49, 64
1, 618412, Note_off_c, 0, 52, 65
1, 618436, Note_on_c, 0, 61, 84
1, 618454, Note_on_c, 0, 48, 76
1, 618459, Note_off_c, 0, 64, 62
1, 618461, Note_off_c, 0, 49, 62
1, 618497, Note_off_c, 0, 61, 65
1, 618499, Note_on_c, 0, 60, 85
1, 618511, Note_on_c, 0, 49, 68
1, 618515, Note_off_c, 0, 48, 62
1, 618550, Note_on_c, 0, 61, 84
1, 618555, Note_off_c, 0, 60, 61
1, 618580, Note_on_c, 0, 48, 60
1, 618587, Control_c, 0, 64, 26
1, 618591, Note_off_c, 0, 49, 63
1, 618601, Control_c, 0, 64, 59
1, 618602, Note_on_c, 0, 60, 73
1, 618607, Note_on_c, 0, 47, 75
1, 618616, Control_c, 0, 64, 71
1, 618623, Note_off_c, 0, 61, 63
1, 618627, Note_off_c, 0, 48, 61
1, 618631, Control_c, 0, 64, 127
1, 618665, Note_on_c, 0, 59, 82
1, 618669, Note_off_c, 0, 60, 65
1, 618676, Note_off_c, 0, 47, 60
1, 618682, Note_on_c, 0, 48, 68
1, 618722, Note_on_c, 0, 60, 82
1, 618730, Note_off_c, 0, 59, 60
1, 618741, Note_on_c, 0, 46, 80
1, 618746, Note_off_c, 0, 48, 62
1, 618775, Note_on_c, 0, 58, 83
1, 618798, Note_on_c, 0, 47, 79
1, 618802, Note_off_c, 0, 60, 63
1, 618819, Note_off_c, 0, 46, 62
1, 618844, Note_on_c, 0, 59, 105
1, 618862, Note_off_c, 0, 58, 61
1, 618952, Note_on_c, 0, 40, 83
1, 618993, Note_off_c, 0, 47, 45
1, 618996, Note_off_c, 0, 59, 58
1, 619017, Control_c, 0, 64, 98
1, 619020, Note_on_c, 0, 67, 104
1, 619032, Control_c, 0, 64, 66
1, 619039, Note_on_c, 0, 64, 82
1, 619047, Control_c, 0, 64, 0
1, 619128, Control_c, 0, 64, 52
1, 619143, Control_c, 0, 64, 68
1, 619152, Note_off_c, 0, 40, 63
1, 619157, Note_on_c, 0, 47, 62
1, 619158, Control_c, 0, 64, 86
1, 619172, Control_c, 0, 64, 127
1, 619223, Note_off_c, 0, 47, 62
1, 619243, Note_on_c, 0, 55, 68
1, 619301, Note_off_c, 0, 55, 53
1, 619319, Note_on_c, 0, 54, 78
1, 619349, Note_off_c, 0, 67, 55
1, 619382, Note_off_c, 0, 54, 64
1, 619386, Note_on_c, 0, 55, 71
1, 619428, Note_on_c, 0, 52, 73
1, 619431, Note_off_c, 0, 55, 64
1, 619454, Note_off_c, 0, 64, 60
1, 619491, Note_off_c, 0, 52, 64
1, 619508, Note_on_c, 0, 67, 59
1, 619514, Note_on_c, 0, 55, 69
1, 619580, Note_on_c, 0, 64, 67
1, 619582, Note_off_c, 0, 67, 61
1, 619586, Note_off_c, 0, 55, 61
1, 619592, Note_on_c, 0, 52, 67
1, 619641, Note_off_c, 0, 64, 63
1, 619642, Note_on_c, 0, 51, 78
1, 619644, Note_on_c, 0, 63, 77
1, 619649, Note_off_c, 0, 52, 62
1, 619695, Note_on_c, 0, 67, 80
1, 619695, Note_off_c, 0, 63, 64
1, 619700, Note_off_c, 0, 51, 65
1, 619705, Note_on_c, 0, 55, 72
1, 619754, Note_on_c, 0, 51, 78
1, 619756, Note_on_c, 0, 63, 73
1, 619765, Note_off_c, 0, 55, 63
1, 619775, Note_off_c, 0, 67, 61
1, 619803, Note_on_c, 0, 62, 82
1, 619808, Note_on_c, 0, 50, 78
1, 619825, Note_off_c, 0, 63, 63
1, 619837, Note_off_c, 0, 51, 62
1, 619860, Note_off_c, 0, 50, 64
1, 619875, Note_off_c, 0, 62, 64
1, 619881, Note_on_c, 0, 64, 82
1, 619884, Note_on_c, 0, 52, 76
1, 619921, Control_c, 0, 64, 112
1, 619933, Note_on_c, 0, 62, 76
1, 619936, Control_c, 0, 64, 85
1, 619946, Note_off_c, 0, 52, 65
1, 619950, Note_on_c, 0, 50, 78
1, 619951, Control_c, 0, 64, 70
1, 619962, Note_off_c, 0, 64, 63
1, 619966, Control_c, 0, 64, 57
1, 619981, Control_c, 0, 64, 0
1, 619989, Note_on_c, 0, 61, 88
1, 619992, Note_off_c, 0, 62, 66
1, 619995, Note_on_c, 0, 49, 72
1, 620010, Note_off_c, 0, 50, 63
1, 620051, Note_off_c, 0, 61, 61
1, 620051, Note_on_c, 0, 52, 70
1, 620054, Note_off_c, 0, 49, 64
1, 620056, Note_on_c, 0, 64, 85
1, 620091, Poly_aftertouch_c, 0, 49, 0
1, 620099, Note_on_c, 0, 49, 67
1, 620110, Note_on_c, 0, 61, 80
1, 620112, Note_off_c, 0, 52, 65
1, 620135, Note_off_c, 0, 64, 61
1, 620157, Note_on_c, 0, 48, 73
1, 620170, Note_on_c, 0, 60, 86
1, 620173, Note_off_c, 0, 49, 58
1, 620173, Note_off_c, 0, 61, 64
1, 620222, Note_on_c, 0, 49, 62
1, 620224, Note_off_c, 0, 48, 60
1, 620225, Note_off_c, 0, 60, 44
1, 620231, Note_on_c, 0, 61, 76
1, 620266, Note_on_c, 0, 48, 46
1, 620273, Note_on_c, 0, 60, 80
1, 620276, Control_c, 0, 64, 35
1, 620291, Control_c, 0, 64, 60
1, 620297, Note_off_c, 0, 49, 63
1, 620299, Note_off_c, 0, 61, 62
1, 620306, Control_c, 0, 64, 75
1, 620317, Note_on_c, 0, 47, 76
1, 620320, Control_c, 0, 64, 127
1, 620338, Note_off_c, 0, 48, 63
1, 620340, Note_off_c, 0, 60, 67
1, 620342, Note_on_c, 0, 59, 79
1, 620382, Note_off_c, 0, 47, 60
1, 620384, Note_on_c, 0, 48, 62
1, 620400, Note_on_c, 0, 60, 80
1, 620403, Note_off_c, 0, 59, 63
1, 620449, Note_on_c, 0, 46, 79
1, 620455, Note_on_c, 0, 58, 82
1, 620460, Note_off_c, 0, 48, 60
1, 620478, Note_off_c, 0, 60, 64
1, 620504, Note_on_c, 0, 47, 80
1, 620519, Note_off_c, 0, 46, 62
1, 620526, Note_on_c, 0, 59, 103
1, 620540, Note_off_c, 0, 58, 62
1, 620649, Note_on_c, 0, 40, 83
1, 620674, Note_off_c, 0, 47, 58
1, 620692, Note_off_c, 0, 59, 56
1, 620714, Note_on_c, 0, 67, 97
1, 620714, Control_c, 0, 64, 84
1, 620729, Control_c, 0, 64, 60
1, 620731, Note_on_c, 0, 64, 80
1, 620743, Control_c, 0, 64, 0
1, 620802, Control_c, 0, 64, 33
1, 620817, Control_c, 0, 64, 62
1, 620832, Control_c, 0, 64, 74
1, 620847, Control_c, 0, 64, 102
1, 620848, Note_off_c, 0, 40, 61
1, 620862, Control_c, 0, 64, 127
1, 620865, Note_on_c, 0, 47, 58
1, 620910, Note_off_c, 0, 47, 63
1, 620940, Note_on_c, 0, 55, 64
1, 620984, Note_off_c, 0, 55, 53
1, 621008, Note_on_c, 0, 54, 79
1, 621065, Note_off_c, 0, 67, 56
1, 621072, Note_off_c, 0, 54, 63
1, 621078, Note_on_c, 0, 55, 64
1, 621109, Note_off_c, 0, 55, 68
1, 621116, Note_on_c, 0, 52, 77
1, 621177, Note_off_c, 0, 64, 59
1, 621178, Note_off_c, 0, 52, 63
1, 621190, Note_on_c, 0, 55, 69
1, 621193, Note_on_c, 0, 67, 62
1, 621263, Note_off_c, 0, 55, 61
1, 621267, Note_on_c, 0, 52, 71
1, 621276, Note_off_c, 0, 67, 62
1, 621277, Note_on_c, 0, 64, 70
1, 621334, Note_on_c, 0, 51, 73
1, 621344, Note_off_c, 0, 64, 61
1, 621345, Note_off_c, 0, 52, 61
1, 621346, Note_on_c, 0, 63, 77
1, 621392, Note_on_c, 0, 55, 69
1, 621392, Note_off_c, 0, 51, 64
1, 621393, Note_on_c, 0, 67, 79
1, 621397, Note_off_c, 0, 63, 63
1, 621437, Poly_aftertouch_c, 0, 63, 0
1, 621442, Note_on_c, 0, 63, 71
1, 621445, Note_on_c, 0, 51, 74
1, 621454, Note_off_c, 0, 55, 61
1, 621467, Note_off_c, 0, 67, 60
1, 621492, Note_on_c, 0, 50, 78
1, 621500, Note_on_c, 0, 62, 81
1, 621507, Note_off_c, 0, 63, 63
1, 621519, Note_off_c, 0, 51, 62
1, 621546, Note_off_c, 0, 50, 63
1, 621563, Note_off_c, 0, 62, 61
1, 621566, Note_on_c, 0, 52, 78
1, 621566, Note_on_c, 0, 64, 85
1, 621612, Control_c, 0, 64, 90
1, 621614, Note_on_c, 0, 62, 73
1, 621622, Note_off_c, 0, 52, 65
1, 621625, Note_on_c, 0, 50, 79
1, 621627, Control_c, 0, 64, 72
1, 621642, Control_c, 0, 64, 59
1, 621647, Note_off_c, 0, 64, 64
1, 621657, Control_c, 0, 64, 22
1, 621672, Note_on_c, 0, 61, 85
1, 621672, Control_c, 0, 64, 0
1, 621674, Note_on_c, 0, 49, 79
1, 621678, Note_off_c, 0, 62, 65
1, 621685, Note_off_c, 0, 50, 63
1, 621733, Note_off_c, 0, 61, 61
1, 621734, Note_on_c, 0, 52, 72
1, 621734, Note_off_c, 0, 49, 64
1, 621740, Note_on_c, 0, 64, 80
1, 621783, Note_on_c, 0, 49, 68
1, 621788, Note_on_c, 0, 61, 81
1, 621795, Note_off_c, 0, 52, 64
1, 621807, Note_off_c, 0, 64, 62
1, 621836, Note_on_c, 0, 48, 71
1, 621852, Note_off_c, 0, 61, 65
1, 621854, Note_on_c, 0, 60, 80
1, 621856, Note_off_c, 0, 49, 59
1, 621895, Note_on_c, 0, 49, 63
1, 621896, Note_off_c, 0, 48, 62
1, 621909, Note_on_c, 0, 61, 82
1, 621915, Note_off_c, 0, 60, 61
1, 621960, Note_on_c, 0, 60, 68
1, 621965, Note_on_c, 0, 48, 53
1, 621982, Note_off_c, 0, 61, 63
1, 621982, Note_off_c, 0, 49, 63
1, 622012, Note_on_c, 0, 47, 68
1, 622025, Note_off_c, 0, 60, 66
1, 622032, Note_on_c, 0, 59, 77
1, 622035, Note_off_c, 0, 48, 63
1, 622042, Control_c, 0, 64, 42
1, 622057, Control_c, 0, 64, 62
1, 622079, Control_c, 0, 64, 73
1, 622082, Note_off_c, 0, 47, 60
1, 622093, Control_c, 0, 64, 91
1, 622097, Note_on_c, 0, 48, 52
1, 622105, Note_on_c, 0, 60, 81
1, 622108, Control_c, 0, 64, 127
1, 622109, Note_off_c, 0, 59, 58
1, 622162, Note_off_c, 0, 48, 62
1, 622165, Note_on_c, 0, 46, 68
1, 622167, Note_on_c, 0, 58, 76
1, 622171, Note_off_c, 0, 60, 64
1, 622237, Note_on_c, 0, 47, 62
1, 622243, Note_off_c, 0, 58, 63
1, 622245, Note_on_c, 0, 59, 89
1, 622246, Note_off_c, 0, 46, 61
1, 622385, Note_on_c, 0, 40, 61
1, 622392, Note_off_c, 0, 47, 57
1, 622406, Control_c, 0, 64, 105
1, 622421, Control_c, 0, 64, 79
1, 622436, Control_c, 0, 64, 63
1, 622437, Note_on_c, 0, 67, 77
1, 622450, Control_c, 0, 64, 0
1, 622460, Note_on_c, 0, 64, 59
1, 622462, Note_off_c, 0, 59, 61
1, 622510, Control_c, 0, 64, 38
1, 622524, Control_c, 0, 64, 56
1, 622539, Note_off_c, 0, 40, 58
1, 622539, Control_c, 0, 64, 67
1, 622554, Control_c, 0, 64, 77
1, 622557, Note_on_c, 0, 47, 51
1, 622569, Control_c, 0, 64, 110
1, 622584, Control_c, 0, 64, 127
1, 622604, Note_off_c, 0, 47, 60
1, 622645, Note_on_c, 0, 55, 51
1, 622677, Note_off_c, 0, 55, 61
1, 622710, Note_on_c, 0, 54, 69
1, 622761, Note_off_c, 0, 54, 57
1, 622762, Note_on_c, 0, 55, 68
1, 622819, Note_off_c, 0, 55, 62
1, 622826, Note_on_c, 0, 52, 76
1, 622853, Note_off_c, 0, 52, 65
1, 622877, Note_off_c, 0, 64, 57
1, 622892, Note_on_c, 0, 55, 77
1, 622904, Note_off_c, 0, 67, 60
1, 622961, Note_on_c, 0, 49, 79
1, 622967, Note_off_c, 0, 55, 61
1, 622999, Note_on_c, 0, 48, 75
1, 623035, Note_off_c, 0, 49, 63
1, 623067, Note_on_c, 0, 55, 78
1, 623070, Note_off_c, 0, 48, 62
1, 623128, Note_on_c, 0, 49, 66
1, 623145, Note_on_c, 0, 48, 74
1, 623146, Note_off_c, 0, 55, 63
1, 623156, Note_off_c, 0, 49, 54
1, 623171, Note_on_c, 0, 47, 79
1, 623211, Note_on_c, 0, 69, 101
1, 623225, Note_on_c, 0, 66, 73
1, 623225, Note_off_c, 0, 48, 57
1, 623252, Note_off_c, 0, 66, 66
1, 623258, Note_off_c, 0, 69, 64
1, 623290, Note_off_c, 0, 47, 62
1, 623291, Note_on_c, 0, 40, 74
1, 623303, Control_c, 0, 64, 77
1, 623312, Note_on_c, 0, 71, 101
1, 623318, Control_c, 0, 64, 55
1, 623324, Note_on_c, 0, 67, 85
1, 623333, Control_c, 0, 64, 0
1, 623390, Note_on_c, 0, 47, 71
1, 623391, Control_c, 0, 64, 49
1, 623399, Note_off_c, 0, 40, 61
1, 623406, Control_c, 0, 64, 66
1, 623421, Control_c, 0, 64, 80
1, 623436, Control_c, 0, 64, 127
1, 623470, Note_off_c, 0, 47, 62
1, 623482, Note_on_c, 0, 55, 78
1, 623555, Note_off_c, 0, 67, 52
1, 623557, Note_on_c, 0, 54, 85
1, 623571, Note_off_c, 0, 55, 61
1, 623595, Note_off_c, 0, 71, 53
1, 623655, Note_on_c, 0, 55, 83
1, 623660, Note_off_c, 0, 54, 64
1, 623729, Note_on_c, 0, 52, 84
1, 623738, Note_off_c, 0, 55, 62
1, 623775, Note_off_c, 0, 52, 66
1, 623885, Note_on_c, 0, 38, 79
1, 623918, Control_c, 0, 64, 92
1, 623933, Note_on_c, 0, 69, 96
1, 623933, Control_c, 0, 64, 65
1, 623944, Note_on_c, 0, 66, 76
1, 623948, Control_c, 0, 64, 42
1, 623962, Control_c, 0, 64, 37
1, 623977, Control_c, 0, 64, 52
1, 623992, Control_c, 0, 64, 61
1, 624007, Control_c, 0, 64, 70
1, 624013, Note_off_c, 0, 38, 62
1, 624022, Control_c, 0, 64, 90
1, 624037, Control_c, 0, 64, 127
1, 624041, Note_on_c, 0, 50, 73
1, 624077, Note_off_c, 0, 66, 57
1, 624089, Note_off_c, 0, 50, 59
1, 624099, Note_off_c, 0, 69, 60
1, 624156, Note_on_c, 0, 67, 100
1, 624158, Note_on_c, 0, 60, 72
1, 624169, Note_on_c, 0, 64, 83
1, 624217, Note_on_c, 0, 59, 64
1, 624227, Note_off_c, 0, 60, 63
1, 624232, Note_off_c, 0, 64, 58
1, 624249, Note_off_c, 0, 67, 68
1, 624280, Note_off_c, 0, 59, 63
1, 624320, Note_on_c, 0, 60, 83
1, 624323, Note_on_c, 0, 69, 102
1, 624340, Note_on_c, 0, 66, 84
1, 624379, Note_off_c, 0, 60, 62
1, 624393, Note_on_c, 0, 68, 19
1, 624412, Note_on_c, 0, 50, 83
1, 624422, Note_off_c, 0, 66, 47
1, 624436, Note_off_c, 0, 68, 43
1, 624460, Note_off_c, 0, 69, 55
1, 624511, Note_on_c, 0, 43, 83
1, 624518, Control_c, 0, 64, 93
1, 624522, Note_off_c, 0, 50, 62
1, 624533, Control_c, 0, 64, 62
1, 624536, Note_on_c, 0, 71, 100
1, 624547, Note_on_c, 0, 67, 83
1, 624548, Control_c, 0, 64, 0
1, 624638, Control_c, 0, 64, 39
1, 624648, Note_on_c, 0, 50, 63
1, 624652, Control_c, 0, 64, 65
1, 624666, Note_off_c, 0, 43, 60
1, 624667, Control_c, 0, 64, 83
1, 624682, Control_c, 0, 64, 127
1, 624720, Note_off_c, 0, 50, 62
1, 624736, Note_on_c, 0, 59, 72
1, 624794, Note_off_c, 0, 59, 59
1, 624803, Note_on_c, 0, 57, 77
1, 624839, Note_off_c, 0, 71, 53
1, 624875, Note_off_c, 0, 57, 64
1, 624875, Note_off_c, 0, 67, 57
1, 624883, Note_on_c, 0, 59, 79
1, 624937, Note_off_c, 0, 59, 63
1, 624955, Note_on_c, 0, 55, 49
1, 624959, Note_on_c, 0, 53, 62
1, 624999, Note_off_c, 0, 53, 59
1, 625000, Note_off_c, 0, 55, 62
1, 625020, Note_on_c, 0, 71, 70
1, 625020, Note_on_c, 0, 59, 70
1, 625092, Note_on_c, 0, 67, 68
1, 625094, Note_on_c, 0, 55, 71
1, 625094, Note_off_c, 0, 59, 62
1, 625103, Note_off_c, 0, 71, 61
1, 625148, Note_on_c, 0, 66, 79
1, 625152, Note_on_c, 0, 54, 72
1, 625156, Note_off_c, 0, 67, 62
1, 625167, Note_off_c, 0, 55, 61
1, 625204, Note_off_c, 0, 66, 62
1, 625206, Note_on_c, 0, 71, 85
1, 625207, Note_on_c, 0, 59, 76
1, 625215, Note_off_c, 0, 54, 64
1, 625262, Note_on_c, 0, 66, 70
1, 625269, Note_on_c, 0, 54, 74
1, 625277, Note_off_c, 0, 59, 61
1, 625296, Note_off_c, 0, 71, 62
1, 625316, Note_on_c, 0, 65, 82
1, 625317, Note_on_c, 0, 53, 72
1, 625339, Note_off_c, 0, 66, 62
1, 625348, Note_off_c, 0, 54, 63
1, 625368, Note_off_c, 0, 65, 61
1, 625381, Note_off_c, 0, 53, 60
1, 625390, Note_on_c, 0, 55, 81
1, 625393, Note_on_c, 0, 67, 91
1, 625442, Note_on_c, 0, 65, 71
1, 625465, Note_off_c, 0, 55, 63
1, 625473, Note_off_c, 0, 67, 63
1, 625475, Note_on_c, 0, 53, 70
1, 625495, Note_on_c, 0, 64, 77
1, 625501, Note_on_c, 0, 52, 70
1, 625520, Control_c, 0, 64, 105
1, 625534, Control_c, 0, 64, 81
1, 625536, Note_off_c, 0, 53, 63
1, 625540, Note_off_c, 0, 65, 60
1, 625549, Control_c, 0, 64, 66
1, 625550, Note_off_c, 0, 64, 64
1, 625556, Note_on_c, 0, 67, 87
1, 625564, Control_c, 0, 64, 47
1, 625578, Note_off_c, 0, 52, 64
1, 625578, Note_on_c, 0, 55, 77
1, 625579, Control_c, 0, 64, 0
1, 625621, Note_on_c, 0, 64, 78
1, 625637, Note_on_c, 0, 52, 71
1, 625638, Note_off_c, 0, 67, 64
1, 625641, Note_off_c, 0, 55, 61
1, 625677, Note_on_c, 0, 63, 81
1, 625679, Note_off_c, 0, 64, 65
1, 625685, Note_on_c, 0, 51, 81
1, 625708, Note_off_c, 0, 63, 66
1, 625710, Note_off_c, 0, 52, 65
1, 625740, Note_on_c, 0, 64, 88
1, 625748, Note_on_c, 0, 52, 72
1, 625748, Note_off_c, 0, 51, 63
1, 625795, Note_on_c, 0, 63, 84
1, 625820, Note_on_c, 0, 51, 79
1, 625833, Note_off_c, 0, 52, 61
1, 625838, Control_c, 0, 64, 30
1, 625853, Control_c, 0, 64, 47
1, 625854, Note_off_c, 0, 64, 63
1, 625866, Note_on_c, 0, 50, 76
1, 625867, Control_c, 0, 64, 64
1, 625872, Note_on_c, 0, 62, 85
1, 625882, Control_c, 0, 64, 81
1, 625897, Note_off_c, 0, 63, 62
1, 625897, Control_c, 0, 64, 127
1, 625900, Note_off_c, 0, 51, 62
1, 625935, Note_off_c, 0, 50, 63
1, 625940, Note_off_c, 0, 62, 62
1, 625944, Note_on_c, 0, 52, 79
1, 626003, Note_on_c, 0, 49, 79
1, 626015, Note_off_c, 0, 52, 58
1, 626059, Note_on_c, 0, 50, 81
1, 626085, Note_off_c, 0, 49, 63
1, 626104, Note_off_c, 0, 50, 65
1, 626115, Note_on_c, 0, 69, 95
1, 626222, Note_off_c, 0, 69, 57
1, 626263, Note_on_c, 0, 45, 67
1, 626266, Note_on_c, 0, 33, 70
1, 626269, Control_c, 0, 64, 87
1, 626283, Control_c, 0, 64, 63
1, 626298, Control_c, 0, 64, 0
1, 626303, Note_on_c, 0, 72, 87
1, 626315, Note_on_c, 0, 60, 77
1, 626320, Note_on_c, 0, 64, 67
1, 626358, Control_c, 0, 64, 51
1, 626362, Note_off_c, 0, 33, 62
1, 626372, Control_c, 0, 64, 68
1, 626387, Control_c, 0, 64, 94
1, 626402, Control_c, 0, 64, 127
1, 626411, Note_off_c, 0, 45, 63
1, 626493, Note_on_c, 0, 52, 67
1, 626529, Note_off_c, 0, 60, 62
1, 626534, Note_off_c, 0, 52, 64
1, 626568, Note_on_c, 0, 55, 64
1, 626604, Note_off_c, 0, 55, 64
1, 626610, Note_on_c, 0, 54, 74
1, 626670, Note_on_c, 0, 55, 77
1, 626694, Note_off_c, 0, 54, 50
1, 626718, Note_on_c, 0, 52, 78
1, 626725, Note_off_c, 0, 55, 63
1, 626775, Note_off_c, 0, 52, 63
1, 626786, Note_on_c, 0, 60, 95
1, 626818, Note_on_c, 0, 69, 39
1, 626820, Note_off_c, 0, 64, 63
1, 626860, Note_on_c, 0, 55, 81
1, 626878, Note_off_c, 0, 69, 38
1, 626878, Note_off_c, 0, 72, 63
1, 626888, Note_off_c, 0, 60, 61
1, 626914, Note_on_c, 0, 52, 71
1, 626927, Note_off_c, 0, 55, 61
1, 626961, Note_on_c, 0, 54, 77
1, 627001, Note_off_c, 0, 52, 64
1, 627025, Note_on_c, 0, 55, 87
1, 627074, Note_off_c, 0, 54, 54
1, 627084, Note_on_c, 0, 52, 81
1, 627089, Note_off_c, 0, 55, 65
1, 627108, Note_off_c, 0, 52, 71
1, 627116, Note_on_c, 0, 71, 98
1, 627239, Control_c, 0, 64, 69
1, 627240, Note_on_c, 0, 75, 105
1, 627242, Note_on_c, 0, 63, 100
1, 627244, Note_on_c, 0, 47, 102
1, 627245, Note_on_c, 0, 69, 85
1, 627247, Note_on_c, 0, 35, 90
1, 627254, Control_c, 0, 64, 0
1, 627280, Note_on_c, 0, 37, 39
1, 627281, Note_off_c, 0, 71, 52
1, 627320, Note_off_c, 0, 35, 63
1, 627321, Control_c, 0, 64, 30
1, 627328, Note_off_c, 0, 37, 35
1, 627336, Control_c, 0, 64, 65
1, 627351, Control_c, 0, 64, 102
1, 627363, Note_off_c, 0, 47, 60
1, 627366, Control_c, 0, 64, 127
1, 627444, Note_on_c, 0, 54, 78
1, 627503, Note_off_c, 0, 63, 60
1, 627515, Note_off_c, 0, 54, 63
1, 627516, Note_on_c, 0, 57, 78
1, 627569, Note_off_c, 0, 57, 64
1, 627570, Note_on_c, 0, 55, 81
1, 627581, Note_off_c, 0, 69, 55
1, 627638, Note_on_c, 0, 57, 80
1, 627647, Note_off_c, 0, 55, 63
1, 627688, Note_on_c, 0, 54, 91
1, 627702, Note_off_c, 0, 57, 65
1, 627728, Note_off_c, 0, 75, 50
1, 627766, Note_on_c, 0, 63, 110
1, 627774, Note_off_c, 0, 54, 59
1, 627850, Note_on_c, 0, 57, 79
1, 627908, Note_on_c, 0, 54, 83
1, 627939, Note_off_c, 0, 57, 64
1, 627963, Note_on_c, 0, 55, 86
1, 627972, Note_off_c, 0, 63, 55
1, 628012, Note_off_c, 0, 54, 61
1, 628042, Note_on_c, 0, 57, 93
1, 628087, Note_off_c, 0, 55, 57
1, 628113, Note_on_c, 0, 54, 92
1, 628134, Note_off_c, 0, 57, 65
1, 628167, Note_off_c, 0, 54, 67
1, 628216, Note_on_c, 0, 76, 108
1, 628217, Note_on_c, 0, 64, 101
1, 628252, Note_on_c, 0, 68, 42
1, 628279, Note_off_c, 0, 68, 56
1, 628344, Note_off_c, 0, 76, 60
1, 628354, Note_off_c, 0, 64, 56
1, 628406, Note_on_c, 0, 40, 98
1, 628408, Note_on_c, 0, 28, 93
1, 628440, Control_c, 0, 64, 90
1, 628451, Note_on_c, 0, 76, 103
1, 628452, Note_on_c, 0, 67, 85
1, 628454, Note_on_c, 0, 64, 100
1, 628454, Control_c, 0, 64, 51
1, 628469, Control_c, 0, 64, 0
1, 628504, Note_off_c, 0, 28, 65
1, 628529, Control_c, 0, 64, 34
1, 628533, Note_off_c, 0, 40, 64
1, 628544, Control_c, 0, 64, 69
1, 628559, Control_c, 0, 64, 127
1, 628649, Note_on_c, 0, 47, 71
1, 628687, Note_off_c, 0, 47, 61
1, 628688, Note_off_c, 0, 64, 54
1, 628711, Note_off_c, 0, 67, 56
1, 628717, Note_on_c, 0, 55, 63
1, 628720, Note_on_c, 0, 53, 65
1, 628761, Note_off_c, 0, 55, 58
1, 628763, Note_on_c, 0, 54, 83
1, 628764, Note_off_c, 0, 53, 59
1, 628787, Note_off_c, 0, 76, 61
1, 628831, Note_on_c, 0, 55, 75
1, 628875, Note_on_c, 0, 52, 85
1, 628887, Note_off_c, 0, 54, 63
1, 628901, Note_off_c, 0, 55, 63
1, 628998, Note_on_c, 0, 62, 100
1, 629022, Note_on_c, 0, 67, 70
1, 629093, Note_off_c, 0, 67, 60
1, 629097, Note_on_c, 0, 76, 77
1, 629098, Note_off_c, 0, 52, 65
1, 629111, Note_on_c, 0, 55, 73
1, 629151, Note_off_c, 0, 62, 61
1, 629161, Note_on_c, 0, 79, 81
1, 629163, Note_off_c, 0, 76, 67
1, 629182, Note_on_c, 0, 52, 80
1, 629205, Note_off_c, 0, 55, 58
1, 629220, Note_on_c, 0, 78, 84
1, 629232, Note_off_c, 0, 79, 63
1, 629236, Note_on_c, 0, 55, 65
1, 629240, Note_on_c, 0, 60, 98
1, 629247, Note_off_c, 0, 52, 63
1, 629283, Note_on_c, 0, 79, 82
1, 629298, Note_off_c, 0, 60, 64
1, 629301, Note_on_c, 0, 52, 70
1, 629304, Note_off_c, 0, 55, 58
1, 629316, Note_off_c, 0, 78, 63
1, 629333, Note_off_c, 0, 52, 67
1, 629347, Note_on_c, 0, 76, 94
1, 629369, Note_off_c, 0, 79, 64
1, 629396, Note_off_c, 0, 76, 65
1, 629432, Note_on_c, 0, 40, 81
1, 629470, Note_on_c, 0, 86, 97
1, 629474, Note_on_c, 0, 74, 94
1, 629486, Control_c, 0, 64, 89
1, 629501, Control_c, 0, 64, 69
1, 629516, Control_c, 0, 64, 59
1, 629531, Control_c, 0, 64, 62
1, 629545, Control_c, 0, 64, 67
1, 629568, Control_c, 0, 64, 77
1, 629579, Note_on_c, 0, 47, 66
1, 629582, Control_c, 0, 64, 125
1, 629587, Note_off_c, 0, 40, 62
1, 629597, Control_c, 0, 64, 127
1, 629620, Note_on_c, 0, 79, 77
1, 629632, Note_off_c, 0, 47, 60
1, 629644, Note_off_c, 0, 86, 62
1, 629656, Note_off_c, 0, 74, 60
1, 629657, Note_on_c, 0, 55, 64
1, 629682, Note_on_c, 0, 76, 85
1, 629701, Note_off_c, 0, 79, 65
1, 629728, Note_off_c, 0, 55, 58
1, 629729, Note_on_c, 0, 54, 81
1, 629745, Note_on_c, 0, 84, 100
1, 629752, Note_on_c, 0, 72, 94
1, 629763, Note_off_c, 0, 76, 65
1, 629775, Note_on_c, 0, 55, 66
1, 629791, Note_off_c, 0, 84, 71
1, 629813, Note_on_c, 0, 79, 81
1, 629826, Note_off_c, 0, 54, 56
1, 629832, Note_off_c, 0, 72, 62
1, 629839, Note_on_c, 0, 52, 82
1, 629869, Note_on_c, 0, 76, 76
1, 629872, Note_off_c, 0, 55, 63
1, 629881, Note_off_c, 0, 79, 64
1, 629914, Note_off_c, 0, 76, 55
1, 629923, Note_on_c, 0, 62, 101
1, 629927, Note_on_c, 0, 67, 82
1, 629937, Note_on_c, 0, 55, 56
1, 629947, Note_off_c, 0, 52, 65
1, 629998, Note_on_c, 0, 76, 81
1, 630000, Note_off_c, 0, 67, 63
1, 630012, Note_off_c, 0, 62, 60
1, 630043, Note_on_c, 0, 52, 76
1, 630045, Note_on_c, 0, 79, 81
1, 630050, Note_off_c, 0, 76, 65
1, 630070, Note_off_c, 0, 55, 61
1, 630086, Note_on_c, 0, 78, 82
1, 630097, Note_off_c, 0, 52, 60
1, 630098, Note_on_c, 0, 55, 60
1, 630107, Note_off_c, 0, 79, 63
1, 630110, Note_on_c, 0, 60, 98
1, 630142, Note_on_c, 0, 52, 68
1, 630151, Note_off_c, 0, 60, 67
1, 630161, Note_on_c, 0, 79, 85
1, 630168, Note_off_c, 0, 55, 62
1, 630192, Note_off_c, 0, 52, 67
1, 630212, Note_off_c, 0, 78, 63
1, 630226, Note_on_c, 0, 76, 84
1, 630253, Note_off_c, 0, 79, 63
1, 630287, Note_on_c, 0, 40, 79
1, 630294, Control_c, 0, 64, 74
1, 630309, Note_on_c, 0, 83, 102
1, 630313, Note_on_c, 0, 71, 93
1, 630317, Control_c, 0, 64, 50
1, 630328, Note_off_c, 0, 76, 64
1, 630331, Control_c, 0, 64, 0
1, 630346, Control_c, 0, 64, 30
1, 630361, Control_c, 0, 64, 55
1, 630374, Note_on_c, 0, 48, 71
1, 630376, Control_c, 0, 64, 69
1, 630391, Control_c, 0, 64, 92
1, 630403, Note_off_c, 0, 40, 62
1, 630405, Control_c, 0, 64, 127
1, 630419, Note_off_c, 0, 83, 65
1, 630422, Note_on_c, 0, 76, 74
1, 630433, Note_off_c, 0, 48, 62
1, 630437, Note_off_c, 0, 71, 62
1, 630447, Note_on_c, 0, 52, 69
1, 630477, Note_on_c, 0, 72, 77
1, 630488, Note_off_c, 0, 76, 62
1, 630511, Note_on_c, 0, 51, 81
1, 630512, Note_off_c, 0, 52, 60
1, 630517, Note_on_c, 0, 81, 88
1, 630532, Note_on_c, 0, 69, 87
1, 630536, Note_off_c, 0, 72, 64
1, 630566, Note_on_c, 0, 52, 70
1, 630583, Note_off_c, 0, 69, 61
1, 630586, Note_off_c, 0, 81, 68
1, 630594, Note_off_c, 0, 51, 64
1, 630597, Note_on_c, 0, 76, 76
1, 630619, Note_on_c, 0, 48, 82
1, 630628, Note_on_c, 0, 72, 73
1, 630651, Note_off_c, 0, 76, 62
1, 630676, Note_off_c, 0, 52, 0
1, 630686, Note_off_c, 0, 72, 61
1, 630690, Note_on_c, 0, 64, 76
1, 630697, Note_on_c, 0, 59, 98
1, 630711, Note_on_c, 0, 52, 14
1, 630715, Note_off_c, 0, 48, 64
1, 630762, Note_off_c, 0, 64, 61
1, 630764, Note_on_c, 0, 72, 73
1, 630772, Note_off_c, 0, 59, 60
1, 630798, Note_on_c, 0, 48, 74
1, 630803, Note_on_c, 0, 76, 82
1, 630815, Note_off_c, 0, 52, 61
1, 630818, Note_off_c, 0, 72, 65
1, 630847, Note_on_c, 0, 75, 78
1, 630863, Note_off_c, 0, 76, 61
1, 630866, Note_off_c, 0, 48, 64
1, 630875, Note_on_c, 0, 57, 94
1, 630877, Note_on_c, 0, 52, 67
1, 630914, Note_on_c, 0, 76, 79
1, 630924, Note_off_c, 0, 57, 65
1, 630935, Note_off_c, 0, 52, 65
1, 630935, Note_on_c, 0, 48, 64
1, 630951, Note_on_c, 0, 49, 30
1, 630951, Note_off_c, 0, 75, 63
1, 630961, Note_on_c, 0, 72, 85
1, 630962, Note_off_c, 0, 48, 65
1, 630979, Note_off_c, 0, 76, 64
1, 630988, Note_off_c, 0, 49, 53
1, 631005, Note_off_c, 0, 72, 61
1, 631040, Note_on_c, 0, 40, 73
1, 631042, Control_c, 0, 64, 101
1, 631064, Control_c, 0, 64, 69
1, 631066, Note_on_c, 0, 83, 91
1, 631072, Note_on_c, 0, 71, 92
1, 631078, Note_on_c, 0, 81, 76
1, 631078, Control_c, 0, 64, 41
1, 631093, Control_c, 0, 64, 27
1, 631108, Control_c, 0, 64, 56
1, 631121, Note_off_c, 0, 81, 0
1, 631121, Note_on_c, 0, 81, 39
1, 631123, Control_c, 0, 64, 64
1, 631128, Note_on_c, 0, 48, 70
1, 631138, Control_c, 0, 64, 76
1, 631146, Note_off_c, 0, 40, 61
1, 631152, Control_c, 0, 64, 127
1, 631153, Note_on_c, 0, 76, 78
1, 631164, Note_off_c, 0, 83, 62
1, 631179, Note_off_c, 0, 71, 63
1, 631181, Note_off_c, 0, 48, 60
1, 631186, Note_off_c, 0, 81, 53
1, 631198, Note_on_c, 0, 52, 69
1, 631207, Note_on_c, 0, 72, 81
1, 631231, Note_off_c, 0, 76, 65
1, 631259, Note_on_c, 0, 51, 76
1, 631261, Note_off_c, 0, 52, 61
1, 631266, Note_on_c, 0, 81, 94
1, 631274, Note_off_c, 0, 72, 65
1, 631274, Note_on_c, 0, 69, 83
1, 631331, Note_on_c, 0, 53, 46
1, 631331, Note_off_c, 0, 81, 70
1, 631334, Note_off_c, 0, 69, 62
1, 631335, Note_on_c, 0, 52, 68
1, 631341, Note_on_c, 0, 76, 78
1, 631346, Note_off_c, 0, 51, 62
1, 631370, Note_on_c, 0, 48, 78
1, 631373, Note_on_c, 0, 72, 76
1, 631388, Note_off_c, 0, 53, 63
1, 631395, Note_off_c, 0, 76, 63
1, 631422, Note_off_c, 0, 52, 0
1, 631424, Note_off_c, 0, 72, 48
1, 631434, Note_on_c, 0, 64, 75
1, 631439, Note_on_c, 0, 59, 95
1, 631458, Note_off_c, 0, 48, 62
1, 631459, Poly_aftertouch_c, 0, 52, 127
1, 631491, Note_off_c, 0, 64, 62
1, 631503, Note_off_c, 0, 59, 61
1, 631505, Note_on_c, 0, 72, 71
1, 631532, Note_on_c, 0, 48, 75
1, 631539, Note_on_c, 0, 76, 78
1, 631546, Note_off_c, 0, 72, 63
1, 631556, Poly_aftertouch_c, 0, 52, 0
1, 631587, Note_on_c, 0, 75, 78
1, 631592, Note_off_c, 0, 76, 63
1, 631606, Note_off_c, 0, 48, 62
1, 631609, Note_on_c, 0, 57, 89
1, 631610, Note_on_c, 0, 52, 63
1, 631654, Note_off_c, 0, 57, 65
1, 631655, Note_on_c, 0, 76, 83
1, 631659, Note_off_c, 0, 52, 62
1, 631697, Note_off_c, 0, 75, 62
1, 631709, Note_on_c, 0, 72, 79
1, 631739, Note_off_c, 0, 76, 60
1, 631760, Control_c, 0, 64, 108
1, 631770, Note_on_c, 0, 40, 69
1, 631775, Control_c, 0, 64, 70
1, 631790, Control_c, 0, 64, 45
1, 631793, Note_on_c, 0, 79, 87
1, 631805, Note_on_c, 0, 67, 82
1, 631805, Note_off_c, 0, 72, 64
1, 631814, Control_c, 0, 64, 21
1, 631829, Control_c, 0, 64, 50
1, 631844, Control_c, 0, 64, 60
1, 631858, Control_c, 0, 64, 70
1, 631863, Note_on_c, 0, 48, 69
1, 631870, Note_off_c, 0, 40, 63
1, 631873, Control_c, 0, 64, 95
1, 631888, Control_c, 0, 64, 127
1, 631909, Note_on_c, 0, 72, 73
1, 631910, Note_off_c, 0, 79, 64
1, 631914, Note_off_c, 0, 67, 63
1, 631927, Note_off_c, 0, 48, 61
1, 631944, Note_on_c, 0, 57, 70
1, 631957, Note_on_c, 0, 69, 78
1, 631972, Note_off_c, 0, 72, 66
1, 631981, Note_off_c, 0, 57, 62
1, 631999, Note_on_c, 0, 77, 88
1, 632011, Note_on_c, 0, 65, 85
1, 632012, Note_off_c, 0, 69, 64
1, 632016, Note_on_c, 0, 59, 71
1, 632061, Note_on_c, 0, 60, 78
1, 632064, Note_on_c, 0, 72, 74
1, 632088, Note_on_c, 0, 57, 79
1, 632095, Note_on_c, 0, 69, 81
1, 632095, Note_off_c, 0, 65, 63
1, 632118, Note_off_c, 0, 77, 55
1, 632139, Note_off_c, 0, 59, 54
1, 632145, Note_off_c, 0, 72, 64
1, 632148, Note_off_c, 0, 69, 63
1, 632175, Note_on_c, 0, 67, 98
1, 632183, Note_off_c, 0, 57, 60
1, 632231, Note_on_c, 0, 69, 71
1, 632253, Note_off_c, 0, 67, 57
1, 632270, Note_on_c, 0, 57, 77
1, 632278, Note_off_c, 0, 69, 59
1, 632281, Note_on_c, 0, 72, 76
1, 632298, Note_off_c, 0, 60, 63
1, 632334, Note_off_c, 0, 57, 62
1, 632337, Note_on_c, 0, 71, 78
1, 632348, Note_off_c, 0, 72, 61
1, 632350, Note_on_c, 0, 65, 94
1, 632352, Note_on_c, 0, 60, 62
1, 632383, Note_on_c, 0, 57, 62
1, 632389, Note_off_c, 0, 65, 64
1, 632402, Note_off_c, 0, 60, 65
1, 632413, Note_on_c, 0, 72, 79
1, 632415, Note_off_c, 0, 57, 66
1, 632419, Note_off_c, 0, 71, 60
1, 632467, Note_on_c, 0, 68, 78
1, 632482, Note_off_c, 0, 72, 64
1, 632509, Note_on_c, 0, 40, 78
1, 632509, Control_c, 0, 64, 107
1, 632524, Control_c, 0, 64, 70
1, 632539, Control_c, 0, 64, 41
1, 632544, Note_on_c, 0, 46, 47
1, 632559, Note_on_c, 0, 76, 93
1, 632562, Control_c, 0, 64, 0
1, 632566, Note_on_c, 0, 64, 79
1, 632568, Note_off_c, 0, 68, 58
1, 632576, Control_c, 0, 64, 42
1, 632577, Note_on_c, 0, 47, 67
1, 632579, Note_off_c, 0, 46, 52
1, 632589, Note_off_c, 0, 40, 61
1, 632591, Control_c, 0, 64, 60
1, 632607, Control_c, 0, 64, 71
1, 632613, Note_off_c, 0, 47, 65
1, 632622, Control_c, 0, 64, 93
1, 632637, Control_c, 0, 64, 127
1, 632643, Note_on_c, 0, 54, 72
1, 632645, Note_off_c, 0, 76, 59
1, 632655, Note_on_c, 0, 69, 84
1, 632662, Note_off_c, 0, 64, 62
1, 632678, Note_off_c, 0, 54, 62
1, 632709, Note_on_c, 0, 66, 70
1, 632726, Note_off_c, 0, 69, 61
1, 632728, Poly_aftertouch_c, 0, 70, 0
1, 632738, Note_on_c, 0, 56, 59
1, 632754, Note_on_c, 0, 75, 93
1, 632765, Note_on_c, 0, 63, 77
1, 632769, Note_off_c, 0, 66, 63
1, 632776, Note_off_c, 0, 56, 65
1, 632780, Note_on_c, 0, 57, 74
1, 632818, Note_on_c, 0, 69, 70
1, 632847, Note_off_c, 0, 63, 62
1, 632849, Note_on_c, 0, 54, 81
1, 632854, Note_on_c, 0, 66, 74
1, 632880, Note_off_c, 0, 75, 59
1, 632883, Note_off_c, 0, 57, 52
1, 632886, Note_off_c, 0, 69, 61
1, 632899, Note_off_c, 0, 66, 58
1, 632943, Note_on_c, 0, 64, 95
1, 632953, Note_on_c, 0, 57, 28
1, 632964, Note_off_c, 0, 54, 60
1, 633002, Note_on_c, 0, 66, 66
1, 633019, Note_off_c, 0, 64, 61
1, 633039, Note_off_c, 0, 66, 63
1, 633048, Note_on_c, 0, 69, 75
1, 633057, Note_on_c, 0, 54, 80
1, 633099, Note_on_c, 0, 68, 81
1, 633108, Note_off_c, 0, 57, 0
1, 633114, Note_off_c, 0, 54, 64
1, 633114, Note_off_c, 0, 69, 61
1, 633126, Note_on_c, 0, 63, 92
1, 633144, Poly_aftertouch_c, 0, 57, 127
1, 633174, Note_on_c, 0, 69, 76
1, 633175, Note_on_c, 0, 54, 69
1, 633182, Note_off_c, 0, 63, 64
1, 633203, Note_off_c, 0, 54, 67
1, 633209, Poly_aftertouch_c, 0, 57, 0
1, 633223, Note_on_c, 0, 66, 85
1, 633223, Note_off_c, 0, 68, 47
1, 633250, Note_off_c, 0, 69, 63
1, 633325, Note_off_c, 0, 66, 61
1, 633332, Note_on_c, 0, 40, 65
1, 633397, Note_on_c, 0, 76, 93
1, 633400, Control_c, 0, 64, 96
1, 633407, Note_on_c, 0, 64, 77
1, 633407, Note_on_c, 0, 67, 71
1, 633415, Control_c, 0, 64, 64
1, 633430, Control_c, 0, 64, 0
1, 633502, Note_on_c, 0, 47, 61
1, 633504, Control_c, 0, 64, 31
1, 633507, Note_off_c, 0, 40, 63
1, 633519, Control_c, 0, 64, 62
1, 633534, Control_c, 0, 64, 78
1, 633541, Note_off_c, 0, 47, 64
1, 633548, Control_c, 0, 64, 127
1, 633571, Note_on_c, 0, 55, 67
1, 633603, Note_off_c, 0, 64, 59
1, 633626, Note_off_c, 0, 55, 50
1, 633641, Note_on_c, 0, 54, 73
1, 633661, Note_off_c, 0, 76, 56
1, 633664, Note_off_c, 0, 67, 59
1, 633695, Note_on_c, 0, 55, 75
1, 633742, Note_on_c, 0, 52, 83
1, 633746, Note_off_c, 0, 54, 61
1, 633783, Note_off_c, 0, 55, 60
1, 633829, Note_on_c, 0, 62, 89
1, 633867, Note_off_c, 0, 52, 64
1, 633911, Note_on_c, 0, 64, 75
1, 633917, Note_on_c, 0, 55, 6
1, 633960, Note_on_c, 0, 52, 73
1, 633962, Note_off_c, 0, 62, 62
1, 633983, Note_on_c, 0, 67, 77
1, 633985, Note_off_c, 0, 64, 62
1, 634026, Note_off_c, 0, 52, 62
1, 634035, Note_off_c, 0, 67, 63
1, 634036, Note_on_c, 0, 66, 79
1, 634041, Note_on_c, 0, 60, 80
1, 634097, Note_on_c, 0, 67, 78
1, 634102, Note_on_c, 0, 52, 65
1, 634106, Note_off_c, 0, 60, 63
1, 634116, Note_off_c, 0, 55, 49
1, 634118, Note_off_c, 0, 66, 61
1, 634141, Note_off_c, 0, 52, 66
1, 634164, Note_on_c, 0, 64, 81
1, 634169, Note_off_c, 0, 67, 64
1, 634257, Note_on_c, 0, 40, 65
1, 634296, Control_c, 0, 64, 114
1, 634303, Note_on_c, 0, 74, 88
1, 634311, Control_c, 0, 64, 78
1, 634326, Control_c, 0, 64, 60
1, 634341, Control_c, 0, 64, 0
1, 634347, Note_off_c, 0, 64, 60
1, 634385, Control_c, 0, 64, 34
1, 634400, Control_c, 0, 64, 52
1, 634414, Note_off_c, 0, 40, 61
1, 634415, Control_c, 0, 64, 64
1, 634422, Note_on_c, 0, 47, 48
1, 634430, Control_c, 0, 64, 71
1, 634444, Control_c, 0, 64, 84
1, 634453, Note_on_c, 0, 67, 64
1, 634459, Control_c, 0, 64, 120
1, 634461, Note_off_c, 0, 47, 61
1, 634474, Control_c, 0, 64, 127
1, 634490, Note_off_c, 0, 74, 61
1, 634493, Note_on_c, 0, 55, 63
1, 634530, Note_on_c, 0, 64, 64
1, 634530, Note_off_c, 0, 67, 62
1, 634571, Note_off_c, 0, 55, 60
1, 634583, Note_on_c, 0, 72, 86
1, 634584, Note_on_c, 0, 54, 66
1, 634604, Note_off_c, 0, 64, 64
1, 634637, Note_on_c, 0, 55, 65
1, 634656, Note_on_c, 0, 67, 66
1, 634690, Note_off_c, 0, 72, 59
1, 634695, Note_on_c, 0, 52, 73
1, 634715, Note_off_c, 0, 67, 60
1, 634716, Note_off_c, 0, 54, 32
1, 634720, Note_on_c, 0, 64, 64
1, 634754, Note_off_c, 0, 64, 65
1, 634768, Note_on_c, 0, 62, 87
1, 634770, Control_c, 0, 64, 100
1, 634782, Note_off_c, 0, 52, 65
1, 634785, Control_c, 0, 64, 87
1, 634807, Control_c, 0, 64, 79
1, 634822, Control_c, 0, 64, 76
1, 634837, Control_c, 0, 64, 77
1, 634844, Note_on_c, 0, 64, 67
1, 634851, Control_c, 0, 64, 80
1, 634854, Note_off_c, 0, 62, 60
1, 634866, Control_c, 0, 64, 84
1, 634867, Note_on_c, 0, 52, 70
1, 634881, Control_c, 0, 64, 92
1, 634896, Control_c, 0, 64, 108
1, 634906, Note_off_c, 0, 64, 62
1, 634910, Note_on_c, 0, 67, 78
1, 634911, Control_c, 0, 64, 127
1, 634926, Note_off_c, 0, 55, 0
1, 634926, Note_on_c, 0, 55, 21
1, 634932, Note_off_c, 0, 52, 62
1, 634943, Note_on_c, 0, 60, 87
1, 634960, Note_on_c, 0, 66, 78
1, 634962, Note_off_c, 0, 67, 62
1, 634992, Note_on_c, 0, 52, 68
1, 634992, Note_off_c, 0, 60, 65
1, 635009, Note_off_c, 0, 55, 59
1, 635021, Note_on_c, 0, 67, 73
1, 635032, Note_off_c, 0, 52, 65
1, 635039, Note_off_c, 0, 66, 60
1, 635076, Note_on_c, 0, 64, 79
1, 635078, Note_off_c, 0, 67, 64
1, 635120, Control_c, 0, 64, 99
1, 635135, Control_c, 0, 64, 73
1, 635135, Note_on_c, 0, 40, 66
1, 635150, Control_c, 0, 64, 57
1, 635153, Note_on_c, 0, 71, 84
1, 635155, Note_off_c, 0, 64, 63
1, 635164, Control_c, 0, 64, 19
1, 635179, Control_c, 0, 64, 33
1, 635194, Control_c, 0, 64, 48
1, 635209, Control_c, 0, 64, 59
1, 635218, Note_on_c, 0, 48, 60
1, 635220, Note_off_c, 0, 40, 61
1, 635224, Control_c, 0, 64, 67
1, 635224, Note_on_c, 0, 64, 69
1, 635239, Control_c, 0, 64, 79
1, 635253, Note_off_c, 0, 71, 62
1, 635254, Control_c, 0, 64, 117
1, 635258, Note_off_c, 0, 48, 64
1, 635268, Control_c, 0, 64, 127
1, 635273, Note_on_c, 0, 52, 65
1, 635279, Note_on_c, 0, 60, 74
1, 635285, Note_off_c, 0, 64, 64
1, 635339, Note_on_c, 0, 69, 84
1, 635345, Note_off_c, 0, 60, 64
1, 635346, Note_off_c, 0, 52, 65
1, 635349, Note_on_c, 0, 51, 71
1, 635397, Note_on_c, 0, 64, 66
1, 635412, Note_on_c, 0, 52, 58
1, 635439, Note_off_c, 0, 69, 57
1, 635443, Note_off_c, 0, 64, 58
1, 635451, Note_on_c, 0, 60, 70
1, 635458, Note_on_c, 0, 48, 72
1, 635478, Note_off_c, 0, 60, 66
1, 635505, Control_c, 0, 64, 98
1, 635517, Note_on_c, 0, 59, 87
1, 635517, Note_off_c, 0, 51, 51
1, 635519, Control_c, 0, 64, 82
1, 635534, Control_c, 0, 64, 70
1, 635549, Note_off_c, 0, 48, 63
1, 635557, Control_c, 0, 64, 64
1, 635572, Control_c, 0, 64, 64
1, 635586, Note_on_c, 0, 60, 66
1, 635587, Control_c, 0, 64, 67
1, 635601, Control_c, 0, 64, 71
1, 635607, Note_off_c, 0, 59, 60
1, 635616, Control_c, 0, 64, 77
1, 635621, Note_on_c, 0, 48, 65
1, 635631, Control_c, 0, 64, 90
1, 635646, Control_c, 0, 64, 127
1, 635647, Note_on_c, 0, 64, 74
1, 635649, Note_off_c, 0, 60, 62
1, 635692, Note_off_c, 0, 64, 59
1, 635695, Note_off_c, 0, 48, 61
1, 635700, Note_on_c, 0, 57, 82
1, 635704, Note_on_c, 0, 63, 74
1, 635751, Note_on_c, 0, 48, 61
1, 635757, Note_on_c, 0, 64, 72
1, 635758, Note_off_c, 0, 57, 64
1, 635767, Note_off_c, 0, 52, 61
1, 635777, Note_off_c, 0, 63, 59
1, 635792, Note_off_c, 0, 48, 62
1, 635815, Note_off_c, 0, 64, 64
1, 635819, Note_on_c, 0, 60, 74
1, 635884, Note_on_c, 0, 40, 70
1, 635884, Control_c, 0, 64, 88
1, 635896, Note_on_c, 0, 71, 90
1, 635898, Control_c, 0, 64, 68
1, 635907, Note_off_c, 0, 60, 55
1, 635913, Control_c, 0, 64, 51
1, 635928, Control_c, 0, 64, 37
1, 635942, Control_c, 0, 64, 53
1, 635957, Control_c, 0, 64, 60
1, 635966, Note_off_c, 0, 40, 62
1, 635968, Note_on_c, 0, 48, 64
1, 635971, Note_on_c, 0, 64, 70
1, 635972, Control_c, 0, 64, 67
1, 635987, Control_c, 0, 64, 76
1, 636002, Note_off_c, 0, 71, 62
1, 636002, Control_c, 0, 64, 97
1, 636007, Note_off_c, 0, 48, 64
1, 636017, Control_c, 0, 64, 127
1, 636023, Note_on_c, 0, 60, 75
1, 636028, Note_on_c, 0, 52, 64
1, 636029, Note_off_c, 0, 64, 65
1, 636081, Note_on_c, 0, 69, 85
1, 636091, Note_off_c, 0, 60, 63
1, 636095, Note_on_c, 0, 51, 72
1, 636095, Note_off_c, 0, 52, 63
1, 636142, Note_on_c, 0, 64, 60
1, 636146, Note_on_c, 0, 52, 62
1, 636173, Note_off_c, 0, 51, 63
1, 636179, Note_off_c, 0, 64, 61
1, 636183, Note_off_c, 0, 69, 59
1, 636193, Note_on_c, 0, 60, 66
1, 636199, Note_on_c, 0, 48, 74
1, 636218, Note_off_c, 0, 60, 68
1, 636254, Control_c, 0, 64, 119
1, 636258, Note_on_c, 0, 59, 87
1, 636269, Control_c, 0, 64, 95
1, 636270, Note_off_c, 0, 48, 62
1, 636284, Control_c, 0, 64, 81
1, 636306, Control_c, 0, 64, 73
1, 636317, Note_on_c, 0, 60, 70
1, 636321, Control_c, 0, 64, 72
1, 636336, Control_c, 0, 64, 75
1, 636342, Note_off_c, 0, 59, 61
1, 636350, Control_c, 0, 64, 80
1, 636357, Note_on_c, 0, 48, 69
1, 636365, Control_c, 0, 64, 86
1, 636378, Note_off_c, 0, 60, 63
1, 636380, Note_on_c, 0, 64, 66
1, 636380, Control_c, 0, 64, 99
1, 636388, Note_off_c, 0, 52, 59
1, 636395, Control_c, 0, 64, 127
1, 636416, Note_off_c, 0, 64, 64
1, 636427, Note_on_c, 0, 52, 55
1, 636428, Note_on_c, 0, 63, 76
1, 636431, Note_off_c, 0, 48, 61
1, 636436, Note_on_c, 0, 57, 79
1, 636479, Note_on_c, 0, 48, 56
1, 636485, Note_off_c, 0, 57, 63
1, 636488, Note_on_c, 0, 64, 73
1, 636494, Note_off_c, 0, 52, 64
1, 636499, Note_off_c, 0, 63, 61
1, 636515, Note_off_c, 0, 48, 63
1, 636545, Note_off_c, 0, 64, 62
1, 636547, Note_on_c, 0, 60, 78
1, 636603, Control_c, 0, 64, 102
1, 636618, Control_c, 0, 64, 76
1, 636621, Note_off_c, 0, 60, 62
1, 636631, Note_on_c, 0, 67, 79
1, 636633, Control_c, 0, 64, 60
1, 636648, Control_c, 0, 64, 29
1, 636649, Note_on_c, 0, 41, 44
1, 636656, Note_on_c, 0, 40, 34
1, 636663, Control_c, 0, 64, 20
1, 636678, Control_c, 0, 64, 36
1, 636693, Control_c, 0, 64, 50
1, 636707, Note_off_c, 0, 40, 49
1, 636708, Control_c, 0, 64, 60
1, 636716, Note_on_c, 0, 60, 58
1, 636722, Control_c, 0, 64, 66
1, 636732, Note_off_c, 0, 67, 61
1, 636737, Control_c, 0, 64, 75
1, 636750, Note_off_c, 0, 41, 57
1, 636752, Control_c, 0, 64, 92
1, 636759, Note_off_c, 0, 60, 65
1, 636762, Note_on_c, 0, 57, 71
1, 636766, Control_c, 0, 64, 127
1, 636767, Note_on_c, 0, 48, 60
1, 636771, Poly_aftertouch_c, 0, 45, 127
1, 636798, Poly_aftertouch_c, 0, 45, 0
1, 636799, Poly_aftertouch_c, 0, 47, 0
1, 636818, Note_on_c, 0, 65, 83
1, 636822, Note_off_c, 0, 57, 63
1, 636822, Note_on_c, 0, 47, 38
1, 636830, Note_off_c, 0, 48, 57
1, 636865, Note_on_c, 0, 48, 56
1, 636881, Note_on_c, 0, 60, 55
1, 636914, Note_on_c, 0, 45, 68
1, 636915, Note_on_c, 0, 57, 76
1, 636918, Note_off_c, 0, 60, 65
1, 636942, Note_off_c, 0, 65, 52
1, 636959, Note_off_c, 0, 57, 64
1, 636992, Note_on_c, 0, 55, 86
1, 637031, Note_off_c, 0, 45, 60
1, 637033, Control_c, 0, 64, 104
1, 637055, Control_c, 0, 64, 84
1, 637060, Note_on_c, 0, 57, 71
1, 637061, Note_off_c, 0, 47, 24
1, 637070, Control_c, 0, 64, 72
1, 637085, Control_c, 0, 64, 69
1, 637093, Note_on_c, 0, 45, 59
1, 637094, Note_off_c, 0, 55, 61
1, 637099, Note_off_c, 0, 57, 60
1, 637099, Control_c, 0, 64, 70
1, 637111, Note_on_c, 0, 60, 77
1, 637114, Control_c, 0, 64, 73
1, 637129, Control_c, 0, 64, 76
1, 637144, Control_c, 0, 64, 80
1, 637159, Note_off_c, 0, 60, 60
1, 637159, Control_c, 0, 64, 92
1, 637171, Note_on_c, 0, 53, 87
1, 637171, Note_on_c, 0, 59, 74
1, 637174, Control_c, 0, 64, 127
1, 637221, Note_on_c, 0, 60, 67
1, 637229, Note_off_c, 0, 53, 62
1, 637235, Note_off_c, 0, 59, 63
1, 637245, Note_off_c, 0, 48, 55
1, 637262, Note_off_c, 0, 45, 63
1, 637281, Note_on_c, 0, 57, 71
1, 637294, Note_off_c, 0, 60, 62
1, 637352, Control_c, 0, 64, 107
1, 637357, Note_off_c, 0, 57, 63
1, 637362, Note_on_c, 0, 64, 78
1, 637365, Note_on_c, 0, 40, 62
1, 637367, Control_c, 0, 64, 79
1, 637381, Control_c, 0, 64, 63
1, 637397, Control_c, 0, 64, 42
1, 637410, Note_on_c, 0, 45, 41
1, 637412, Control_c, 0, 64, 31
1, 637420, Note_on_c, 0, 57, 58
1, 637427, Control_c, 0, 64, 41
1, 637442, Control_c, 0, 64, 48
1, 637457, Control_c, 0, 64, 54
1, 637460, Note_on_c, 0, 44, 51
1, 637471, Control_c, 0, 64, 60
1, 637483, Note_on_c, 0, 54, 75
1, 637486, Control_c, 0, 64, 67
1, 637498, Note_off_c, 0, 57, 61
1, 637501, Control_c, 0, 64, 76
1, 637516, Control_c, 0, 64, 94
1, 637530, Note_off_c, 0, 45, 59
1, 637530, Control_c, 0, 64, 127
1, 637537, Note_on_c, 0, 42, 68
1, 637552, Note_on_c, 0, 63, 80
1, 637560, Note_off_c, 0, 54, 64
1, 637575, Note_off_c, 0, 44, 60
1, 637588, Note_off_c, 0, 40, 55
1, 637596, Note_off_c, 0, 64, 61
1, 637617, Note_on_c, 0, 57, 71
1, 637621, Note_off_c, 0, 42, 60
1, 637657, Note_off_c, 0, 63, 60
1, 637674, Note_on_c, 0, 54, 71
1, 637686, Note_off_c, 0, 57, 64
1, 637731, Note_on_c, 0, 52, 81
1, 637743, Note_off_c, 0, 54, 62
1, 637752, Control_c, 0, 64, 94
1, 637767, Control_c, 0, 64, 78
1, 637782, Control_c, 0, 64, 67
1, 637804, Control_c, 0, 64, 60
1, 637817, Note_on_c, 0, 54, 57
1, 637819, Control_c, 0, 64, 56
1, 637831, Note_off_c, 0, 52, 65
1, 637834, Control_c, 0, 64, 59
1, 637849, Control_c, 0, 64, 62
1, 637858, Note_on_c, 0, 57, 64
1, 637858, Note_off_c, 0, 54, 64
1, 637864, Control_c, 0, 64, 65
1, 637878, Control_c, 0, 64, 69
1, 637893, Control_c, 0, 64, 79
1, 637908, Control_c, 0, 64, 114
1, 637921, Note_on_c, 0, 56, 72
1, 637922, Control_c, 0, 64, 127
1, 637923, Note_off_c, 0, 57, 63
1, 637931, Note_on_c, 0, 51, 75
1, 637982, Note_on_c, 0, 48, 45
1, 637991, Note_on_c, 0, 57, 67
1, 638021, Note_off_c, 0, 51, 63
1, 638022, Note_off_c, 0, 56, 61
1, 638044, Note_on_c, 0, 54, 74
1, 638054, Note_on_c, 0, 47, 57
1, 638065, Note_off_c, 0, 57, 62
1, 638095, Note_off_c, 0, 48, 52
1, 638108, Note_off_c, 0, 54, 62
1, 638200, Note_off_c, 0, 47, 52
1, 638205, Control_c, 0, 64, 103
1, 638208, Note_on_c, 0, 40, 50
1, 638219, Control_c, 0, 64, 85
1, 638234, Control_c, 0, 64, 71
1, 638249, Control_c, 0, 64, 57
1, 638250, Note_on_c, 0, 64, 70
1, 638264, Control_c, 0, 64, 15
1, 638279, Note_on_c, 0, 55, 52
1, 638279, Control_c, 0, 64, 0
1, 638308, Control_c, 0, 64, 24
1, 638323, Control_c, 0, 64, 40
1, 638338, Control_c, 0, 64, 52
1, 638352, Control_c, 0, 64, 61
1, 638367, Control_c, 0, 64, 68
1, 638382, Control_c, 0, 64, 77
1, 638397, Control_c, 0, 64, 92
1, 638399, Note_off_c, 0, 40, 62
1, 638399, Note_off_c, 0, 55, 58
1, 638405, Note_on_c, 0, 47, 46
1, 638412, Control_c, 0, 64, 127
1, 638450, Note_off_c, 0, 47, 60
1, 638504, Note_on_c, 0, 55, 45
1, 638551, Note_off_c, 0, 55, 50
1, 638560, Note_on_c, 0, 54, 66
1, 638598, Note_off_c, 0, 64, 62
1, 638620, Note_off_c, 0, 54, 57
1, 638625, Note_on_c, 0, 55, 68
1, 638665, Note_off_c, 0, 55, 64
1, 638673, Note_on_c, 0, 52, 67
1, 638716, Note_off_c, 0, 52, 61
1, 638739, Note_on_c, 0, 55, 71
1, 638794, Note_off_c, 0, 55, 61
1, 638796, Note_on_c, 0, 52, 79
1, 638846, Note_on_c, 0, 51, 84
1, 638861, Note_off_c, 0, 52, 63
1, 638902, Note_off_c, 0, 51, 65
1, 638904, Note_on_c, 0, 55, 72
1, 638938, Control_c, 0, 64, 115
1, 638953, Control_c, 0, 64, 106
1, 638955, Note_on_c, 0, 51, 84
1, 638968, Control_c, 0, 64, 101
1, 638974, Note_off_c, 0, 55, 60
1, 638983, Control_c, 0, 64, 98
1, 638998, Control_c, 0, 64, 94
1, 639010, Note_on_c, 0, 50, 78
1, 639013, Control_c, 0, 64, 90
1, 639028, Control_c, 0, 64, 85
1, 639034, Note_off_c, 0, 51, 63
1, 639043, Control_c, 0, 64, 82
1, 639045, Note_off_c, 0, 50, 62
1, 639058, Control_c, 0, 64, 79
1, 639072, Control_c, 0, 64, 76
1, 639081, Note_on_c, 0, 52, 74
1, 639087, Control_c, 0, 64, 73
1, 639102, Control_c, 0, 64, 69
1, 639117, Control_c, 0, 64, 66
1, 639132, Control_c, 0, 64, 64
1, 639135, Note_off_c, 0, 52, 62
1, 639138, Note_on_c, 0, 50, 75
1, 639147, Control_c, 0, 64, 62
1, 639162, Control_c, 0, 64, 61
1, 639176, Control_c, 0, 64, 60
1, 639191, Control_c, 0, 64, 58
1, 639194, Note_on_c, 0, 49, 66
1, 639195, Note_off_c, 0, 50, 63
1, 639206, Control_c, 0, 64, 54
1, 639221, Control_c, 0, 64, 50
1, 639236, Control_c, 0, 64, 46
1, 639243, Note_off_c, 0, 49, 61
1, 639250, Control_c, 0, 64, 41
1, 639251, Note_on_c, 0, 52, 60
1, 639265, Control_c, 0, 64, 36
1, 639280, Control_c, 0, 64, 31
1, 639302, Control_c, 0, 64, 20
1, 639307, Note_off_c, 0, 52, 62
1, 639310, Note_on_c, 0, 49, 60
1, 639317, Control_c, 0, 64, 0
1, 639351, Note_off_c, 0, 49, 65
1, 639364, Note_on_c, 0, 48, 60
1, 639402, Note_off_c, 0, 48, 64
1, 639422, Note_on_c, 0, 49, 56
1, 639490, Note_off_c, 0, 49, 55
1, 639493, Note_on_c, 0, 48, 55
1, 639548, Note_off_c, 0, 48, 58
1, 639550, Note_on_c, 0, 47, 51
1, 639602, Note_off_c, 0, 47, 61
1, 639632, Note_on_c, 0, 48, 50
1, 639715, Note_on_c, 0, 46, 50
1, 639726, Note_off_c, 0, 48, 56
1, 639803, Note_on_c, 0, 47, 39
1, 639816, Note_off_c, 0, 46, 37
1, 639951, Note_on_c, 0, 40, 39
1, 639970, Control_c, 0, 64, 22
1, 639984, Control_c, 0, 64, 31
1, 639985, Note_off_c, 0, 47, 34
1, 639999, Control_c, 0, 64, 42
1, 640014, Control_c, 0, 64, 52
1, 640029, Control_c, 0, 64, 58
1, 640051, Control_c, 0, 64, 62
1, 640066, Control_c, 0, 64, 65
1, 640080, Control_c, 0, 64, 69
1, 640095, Control_c, 0, 64, 74
1, 640110, Control_c, 0, 64, 83
1, 640125, Control_c, 0, 64, 98
1, 640140, Control_c, 0, 64, 127
1, 640145, Note_off_c, 0, 40, 46
1, 640173, Note_on_c, 0, 47, 29
1, 640234, Note_off_c, 0, 47, 59
1, 640282, Note_on_c, 0, 55, 41
1, 640351, Note_off_c, 0, 55, 50
1, 640385, Note_on_c, 0, 79, 57
1, 640395, Note_on_c, 0, 76, 34
1, 640418, Note_on_c, 0, 54, 39
1, 640459, Note_off_c, 0, 54, 62
1, 640472, Note_off_c, 0, 76, 59
1, 640495, Note_on_c, 0, 55, 41
1, 640566, Note_off_c, 0, 55, 49
1, 640589, Note_on_c, 0, 52, 44
1, 640693, Note_on_c, 0, 78, 70
1, 640702, Note_on_c, 0, 58, 51
1, 640718, Note_on_c, 0, 74, 52
1, 640728, Note_off_c, 0, 52, 61
1, 640749, Note_off_c, 0, 58, 61
1, 640764, Note_on_c, 0, 59, 56
1, 640816, Note_off_c, 0, 59, 61
1, 640852, Note_on_c, 0, 55, 48
1, 640900, Note_off_c, 0, 79, 0
1, 640903, Note_on_c, 0, 59, 53
1, 640903, Note_off_c, 0, 55, 58
1, 640926, Note_on_c, 0, 76, 79
1, 640938, Poly_aftertouch_c, 0, 79, 127
1, 640940, Note_off_c, 0, 74, 61
1, 640941, Note_on_c, 0, 72, 63
1, 640954, Note_on_c, 0, 60, 55
1, 640962, Note_off_c, 0, 59, 58
1, 640980, Poly_aftertouch_c, 0, 79, 0
1, 640985, Note_off_c, 0, 60, 66
1, 640989, Note_on_c, 0, 55, 55
1, 640989, Note_off_c, 0, 78, 61
1, 641010, Note_off_c, 0, 55, 62
1, 641016, Note_off_c, 0, 76, 64
1, 641094, Control_c, 0, 64, 106
1, 641100, Note_on_c, 0, 42, 66
1, 641108, Note_on_c, 0, 74, 79
1, 641109, Control_c, 0, 64, 80
1, 641124, Control_c, 0, 64, 65
1, 641134, Note_on_c, 0, 71, 63
1, 641138, Control_c, 0, 64, 56
1, 641153, Control_c, 0, 64, 59
1, 641161, Note_off_c, 0, 72, 56
1, 641168, Control_c, 0, 64, 63
1, 641181, Note_on_c, 0, 50, 60
1, 641183, Control_c, 0, 64, 65
1, 641189, Note_off_c, 0, 42, 63
1, 641198, Control_c, 0, 64, 71
1, 641213, Control_c, 0, 64, 84
1, 641219, Note_off_c, 0, 50, 66
1, 641228, Control_c, 0, 64, 127
1, 641241, Note_on_c, 0, 57, 61
1, 641284, Note_off_c, 0, 57, 56
1, 641305, Note_on_c, 0, 72, 85
1, 641311, Note_on_c, 0, 56, 71
1, 641315, Note_on_c, 0, 69, 76
1, 641333, Note_off_c, 0, 71, 63
1, 641351, Note_off_c, 0, 74, 59
1, 641366, Note_off_c, 0, 56, 56
1, 641381, Note_on_c, 0, 57, 64
1, 641395, Note_off_c, 0, 72, 64
1, 641427, Note_on_c, 0, 50, 58
1, 641443, Note_off_c, 0, 57, 58
1, 641481, Note_on_c, 0, 57, 45
1, 641481, Control_c, 0, 64, 96
1, 641490, Note_on_c, 0, 71, 82
1, 641494, Note_off_c, 0, 50, 61
1, 641496, Control_c, 0, 64, 80
1, 641510, Control_c, 0, 64, 69
1, 641520, Note_on_c, 0, 67, 59
1, 641525, Control_c, 0, 64, 61
1, 641529, Note_off_c, 0, 69, 52
1, 641547, Control_c, 0, 64, 58
1, 641548, Note_off_c, 0, 57, 65
1, 641561, Control_c, 0, 64, 62
1, 641564, Note_off_c, 0, 67, 64
1, 641576, Control_c, 0, 64, 66
1, 641581, Note_on_c, 0, 59, 58
1, 641591, Control_c, 0, 64, 74
1, 641606, Control_c, 0, 64, 93
1, 641611, Note_on_c, 0, 51, 62
1, 641621, Note_off_c, 0, 59, 59
1, 641621, Control_c, 0, 64, 127
1, 641651, Control_c, 0, 64, 96
1, 641666, Control_c, 0, 64, 81
1, 641669, Poly_aftertouch_c, 0, 59, 0
1, 641681, Control_c, 0, 64, 70
1, 641690, Note_on_c, 0, 69, 74
1, 641692, Note_off_c, 0, 51, 61
1, 641696, Control_c, 0, 64, 67
1, 641702, Poly_aftertouch_c, 0, 59, 0
1, 641710, Control_c, 0, 64, 71
1, 641716, Note_on_c, 0, 66, 53
1, 641725, Control_c, 0, 64, 78
1, 641740, Control_c, 0, 64, 87
1, 641749, Note_on_c, 0, 60, 56
1, 641751, Note_off_c, 0, 71, 59
1, 641755, Control_c, 0, 64, 102
1, 641769, Control_c, 0, 64, 127
1, 641773, Note_off_c, 0, 60, 63
1, 641794, Note_off_c, 0, 66, 56
1, 641815, Note_on_c, 0, 51, 66
1, 641883, Note_off_c, 0, 51, 56
1, 641903, Control_c, 0, 64, 114
1, 641917, Control_c, 0, 64, 93
1, 641922, Note_on_c, 0, 43, 52
1, 641932, Control_c, 0, 64, 77
1, 641934, Note_on_c, 0, 67, 61
1, 641947, Control_c, 0, 64, 63
1, 641950, Note_on_c, 0, 64, 48
1, 641952, Note_off_c, 0, 69, 61
1, 641961, Control_c, 0, 64, 38
1, 641976, Control_c, 0, 64, 0
1, 641991, Control_c, 0, 64, 22
1, 642006, Control_c, 0, 64, 43
1, 642021, Control_c, 0, 64, 57
1, 642035, Control_c, 0, 64, 66
1, 642037, Note_off_c, 0, 43, 58
1, 642050, Control_c, 0, 64, 75
1, 642059, Note_on_c, 0, 52, 51
1, 642065, Control_c, 0, 64, 96
1, 642080, Control_c, 0, 64, 127
1, 642098, Note_off_c, 0, 67, 63
1, 642111, Note_off_c, 0, 52, 62
1, 642147, Note_on_c, 0, 59, 51
1, 642197, Note_off_c, 0, 59, 61
1, 642223, Note_on_c, 0, 58, 52
1, 642234, Note_on_c, 0, 76, 73
1, 642259, Note_off_c, 0, 58, 64
1, 642293, Note_on_c, 0, 59, 43
1, 642331, Note_off_c, 0, 59, 63
1, 642369, Note_on_c, 0, 52, 55
1, 642420, Note_off_c, 0, 64, 60
1, 642432, Note_on_c, 0, 45, 55
1, 642459, Control_c, 0, 64, 101
1, 642469, Note_on_c, 0, 74, 80
1, 642474, Control_c, 0, 64, 76
1, 642489, Control_c, 0, 64, 64
1, 642504, Control_c, 0, 64, 54
1, 642509, Note_on_c, 0, 71, 54
1, 642519, Control_c, 0, 64, 59
1, 642533, Control_c, 0, 64, 63
1, 642542, Note_off_c, 0, 45, 61
1, 642548, Control_c, 0, 64, 68
1, 642560, Note_off_c, 0, 76, 57
1, 642563, Control_c, 0, 64, 80
1, 642577, Note_on_c, 0, 57, 52
1, 642578, Control_c, 0, 64, 107
1, 642593, Control_c, 0, 64, 127
1, 642615, Note_off_c, 0, 57, 61
1, 642635, Note_on_c, 0, 56, 64
1, 642662, Note_off_c, 0, 52, 50
1, 642675, Note_on_c, 0, 72, 88
1, 642689, Note_off_c, 0, 71, 62
1, 642696, Note_on_c, 0, 69, 74
1, 642696, Note_off_c, 0, 56, 60
1, 642702, Note_on_c, 0, 57, 62
1, 642709, Note_off_c, 0, 74, 62
1, 642742, Note_off_c, 0, 57, 56
1, 642762, Note_off_c, 0, 72, 64
1, 642763, Note_on_c, 0, 53, 66
1, 642831, Note_on_c, 0, 59, 63
1, 642845, Control_c, 0, 64, 98
1, 642847, Note_on_c, 0, 71, 84
1, 642854, Note_off_c, 0, 53, 62
1, 642859, Control_c, 0, 64, 79
1, 642867, Note_off_c, 0, 59, 66
1, 642874, Control_c, 0, 64, 67
1, 642875, Note_on_c, 0, 67, 59
1, 642878, Note_off_c, 0, 69, 61
1, 642888, Note_on_c, 0, 60, 61
1, 642889, Control_c, 0, 64, 61
1, 642904, Control_c, 0, 64, 64
1, 642907, Note_off_c, 0, 67, 66
1, 642918, Control_c, 0, 64, 67
1, 642933, Control_c, 0, 64, 73
1, 642948, Note_off_c, 0, 60, 61
1, 642948, Control_c, 0, 64, 83
1, 642950, Note_on_c, 0, 57, 61
1, 642963, Control_c, 0, 64, 103
1, 642978, Control_c, 0, 64, 127
1, 643008, Control_c, 0, 64, 97
1, 643010, Note_on_c, 0, 63, 52
1, 643023, Control_c, 0, 64, 78
1, 643042, Note_on_c, 0, 69, 78
1, 643046, Control_c, 0, 64, 66
1, 643061, Control_c, 0, 64, 61
1, 643070, Note_on_c, 0, 66, 48
1, 643074, Note_off_c, 0, 71, 62
1, 643076, Control_c, 0, 64, 65
1, 643090, Control_c, 0, 64, 69
1, 643097, Note_on_c, 0, 64, 50
1, 643100, Note_off_c, 0, 63, 54
1, 643105, Control_c, 0, 64, 77
1, 643106, Note_off_c, 0, 66, 62
1, 643120, Control_c, 0, 64, 93
1, 643132, Note_off_c, 0, 64, 65
1, 643135, Control_c, 0, 64, 127
1, 643142, Note_on_c, 0, 60, 57
1, 643163, Note_off_c, 0, 57, 62
1, 643171, Note_off_c, 0, 60, 65
1, 643268, Control_c, 0, 64, 117
1, 643269, Note_on_c, 0, 47, 57
1, 643282, Control_c, 0, 64, 99
1, 643294, Note_on_c, 0, 67, 59
1, 643297, Control_c, 0, 64, 83
1, 643308, Note_off_c, 0, 69, 59
1, 643312, Control_c, 0, 64, 66
1, 643319, Note_on_c, 0, 64, 52
1, 643327, Control_c, 0, 64, 49
1, 643342, Control_c, 0, 64, 24
1, 643356, Control_c, 0, 64, 30
1, 643371, Control_c, 0, 64, 40
1, 643386, Control_c, 0, 64, 51
1, 643401, Control_c, 0, 64, 61
1, 643410, Note_off_c, 0, 47, 51
1, 643416, Control_c, 0, 64, 67
1, 643431, Control_c, 0, 64, 74
1, 643442, Note_on_c, 0, 57, 45
1, 643445, Control_c, 0, 64, 88
1, 643460, Control_c, 0, 64, 116
1, 643475, Control_c, 0, 64, 127
1, 643479, Note_off_c, 0, 57, 61
1, 643494, Note_on_c, 0, 59, 59
1, 643535, Note_off_c, 0, 59, 60
1, 643561, Note_on_c, 0, 57, 51
1, 643602, Note_off_c, 0, 57, 64
1, 643642, Note_on_c, 0, 59, 44
1, 643669, Note_off_c, 0, 59, 57
1, 643701, Note_on_c, 0, 47, 54
1, 643715, Note_on_c, 0, 66, 57
1, 643717, Note_off_c, 0, 64, 57
1, 643737, Note_off_c, 0, 67, 50
1, 643738, Note_off_c, 0, 47, 62
1, 643745, Note_on_c, 0, 63, 42
1, 643884, Note_on_c, 0, 48, 41
1, 643884, Control_c, 0, 64, 112
1, 643899, Control_c, 0, 64, 100
1, 643911, Note_on_c, 0, 64, 54
1, 643913, Control_c, 0, 64, 86
1, 643919, Note_off_c, 0, 66, 53
1, 643928, Control_c, 0, 64, 71
1, 643931, Note_off_c, 0, 63, 33
1, 643943, Control_c, 0, 64, 59
1, 643958, Control_c, 0, 64, 36
1, 643972, Control_c, 0, 64, 38
1, 643987, Control_c, 0, 64, 43
1, 644002, Control_c, 0, 64, 50
1, 644017, Control_c, 0, 64, 56
1, 644031, Control_c, 0, 64, 63
1, 644046, Control_c, 0, 64, 69
1, 644050, Note_on_c, 0, 55, 41
1, 644061, Note_off_c, 0, 48, 35
1, 644061, Control_c, 0, 64, 80
1, 644076, Control_c, 0, 64, 98
1, 644091, Control_c, 0, 64, 127
1, 644102, Note_off_c, 0, 55, 59
1, 644143, Note_on_c, 0, 60, 41
1, 644173, Note_off_c, 0, 60, 56
1, 644197, Note_on_c, 0, 59, 49
1, 644226, Note_off_c, 0, 59, 62
1, 644256, Note_on_c, 0, 60, 57
1, 644287, Note_off_c, 0, 60, 65
1, 644310, Note_on_c, 0, 57, 56
1, 644346, Note_off_c, 0, 57, 65
1, 644364, Note_on_c, 0, 60, 62
1, 644422, Note_off_c, 0, 60, 56
1, 644438, Note_on_c, 0, 57, 55
1, 644475, Note_on_c, 0, 56, 57
1, 644477, Note_off_c, 0, 57, 62
1, 644548, Note_off_c, 0, 56, 58
1, 644562, Note_on_c, 0, 60, 48
1, 644568, Note_on_c, 0, 66, 66
1, 644599, Note_on_c, 0, 63, 43
1, 644612, Note_off_c, 0, 60, 57
1, 644614, Note_on_c, 0, 56, 38
1, 644633, Note_off_c, 0, 64, 38
1, 644665, Note_off_c, 0, 63, 51
1, 644667, Note_on_c, 0, 55, 58
1, 644669, Note_off_c, 0, 56, 56
1, 644721, Control_c, 0, 64, 120
1, 644735, Control_c, 0, 64, 102
1, 644748, Note_off_c, 0, 55, 56
1, 644750, Control_c, 0, 64, 87
1, 644762, Note_on_c, 0, 48, 53
1, 644765, Control_c, 0, 64, 74
1, 644780, Control_c, 0, 64, 63
1, 644785, Note_on_c, 0, 67, 60
1, 644794, Control_c, 0, 64, 47
1, 644809, Note_off_c, 0, 66, 57
1, 644809, Control_c, 0, 64, 46
1, 644817, Note_on_c, 0, 64, 41
1, 644824, Control_c, 0, 64, 52
1, 644839, Control_c, 0, 64, 56
1, 644854, Control_c, 0, 64, 61
1, 644867, Note_off_c, 0, 48, 58
1, 644868, Control_c, 0, 64, 66
1, 644881, Note_on_c, 0, 55, 51
1, 644883, Control_c, 0, 64, 74
1, 644898, Control_c, 0, 64, 87
1, 644913, Control_c, 0, 64, 116
1, 644928, Note_off_c, 0, 55, 60
1, 644928, Control_c, 0, 64, 127
1, 644959, Note_on_c, 0, 60, 55
1, 644966, Note_off_c, 0, 64, 50
1, 645002, Note_off_c, 0, 60, 63
1, 645028, Note_on_c, 0, 59, 56
1, 645052, Note_off_c, 0, 67, 55
1, 645063, Note_off_c, 0, 59, 64
1, 645094, Note_on_c, 0, 60, 64
1, 645150, Note_off_c, 0, 60, 58
1, 645174, Note_on_c, 0, 55, 62
1, 645239, Note_off_c, 0, 55, 60
1, 645250, Note_on_c, 0, 47, 58
1, 645253, Control_c, 0, 64, 110
1, 645268, Control_c, 0, 64, 86
1, 645291, Control_c, 0, 64, 70
1, 645303, Note_on_c, 0, 68, 66
1, 645305, Control_c, 0, 64, 59
1, 645320, Control_c, 0, 64, 48
1, 645321, Note_on_c, 0, 64, 52
1, 645335, Control_c, 0, 64, 53
1, 645350, Control_c, 0, 64, 58
1, 645359, Note_off_c, 0, 47, 55
1, 645365, Control_c, 0, 64, 61
1, 645380, Control_c, 0, 64, 66
1, 645395, Control_c, 0, 64, 74
1, 645401, Note_on_c, 0, 56, 53
1, 645410, Control_c, 0, 64, 90
1, 645425, Control_c, 0, 64, 127
1, 645428, Note_off_c, 0, 68, 62
1, 645447, Note_off_c, 0, 56, 60
1, 645448, Note_off_c, 0, 64, 54
1, 645476, Note_on_c, 0, 60, 59
1, 645485, Note_on_c, 0, 69, 86
1, 645496, Note_on_c, 0, 66, 69
1, 645517, Note_off_c, 0, 60, 59
1, 645545, Note_off_c, 0, 66, 55
1, 645546, Note_on_c, 0, 59, 64
1, 645565, Note_off_c, 0, 69, 64
1, 645575, Note_off_c, 0, 59, 65
1, 645609, Note_on_c, 0, 60, 64
1, 645619, Note_on_c, 0, 71, 94
1, 645634, Note_on_c, 0, 68, 81
1, 645651, Note_off_c, 0, 60, 55
1, 645681, Note_on_c, 0, 56, 43
1, 645705, Note_off_c, 0, 68, 59
1, 645711, Note_off_c, 0, 56, 54
1, 645713, Note_off_c, 0, 71, 60
1, 645761, Note_on_c, 0, 45, 75
1, 645780, Control_c, 0, 64, 107
1, 645795, Control_c, 0, 64, 77
1, 645804, Note_on_c, 0, 72, 86
1, 645809, Control_c, 0, 64, 52
1, 645824, Control_c, 0, 64, 0
1, 645828, Note_on_c, 0, 69, 65
1, 645869, Control_c, 0, 64, 23
1, 645884, Control_c, 0, 64, 55
1, 645893, Note_off_c, 0, 45, 59
1, 645899, Control_c, 0, 64, 67
1, 645914, Control_c, 0, 64, 83
1, 645923, Note_on_c, 0, 52, 54
1, 645929, Control_c, 0, 64, 127
1, 645961, Note_off_c, 0, 52, 64
1, 646000, Note_on_c, 0, 60, 59
1, 646046, Note_off_c, 0, 60, 61
1, 646072, Note_on_c, 0, 59, 72
1, 646131, Note_off_c, 0, 59, 62
1, 646146, Note_on_c, 0, 60, 66
1, 646183, Note_off_c, 0, 60, 62
1, 646192, Note_on_c, 0, 57, 69
1, 646233, Note_off_c, 0, 57, 63
1, 646268, Note_on_c, 0, 60, 69
1, 646322, Note_off_c, 0, 60, 62
1, 646329, Note_on_c, 0, 57, 73
1, 646381, Note_on_c, 0, 56, 72
1, 646385, Note_off_c, 0, 57, 63
1, 646441, Note_on_c, 0, 60, 71
1, 646441, Note_off_c, 0, 56, 64
1, 646490, Note_on_c, 0, 56, 72
1, 646500, Note_off_c, 0, 60, 63
1, 646541, Note_on_c, 0, 55, 73
1, 646565, Note_off_c, 0, 56, 62
1, 646596, Note_off_c, 0, 55, 62
1, 646608, Note_on_c, 0, 57, 82
1, 646675, Note_off_c, 0, 57, 65
1, 646677, Note_on_c, 0, 55, 82
1, 646722, Note_on_c, 0, 54, 84
1, 646742, Note_off_c, 0, 55, 62
1, 646791, Note_on_c, 0, 57, 80
1, 646795, Note_off_c, 0, 54, 65
1, 646814, Note_off_c, 0, 69, 52
1, 646838, Note_off_c, 0, 72, 59
1, 646848, Note_on_c, 0, 54, 77
1, 646862, Note_off_c, 0, 57, 63
1, 646890, Note_on_c, 0, 53, 81
1, 646919, Note_off_c, 0, 54, 63
1, 646951, Note_on_c, 0, 54, 67
1, 646951, Note_off_c, 0, 53, 63
1, 647011, Note_on_c, 0, 53, 70
1, 647025, Note_on_c, 0, 52, 78
1, 647031, Note_off_c, 0, 54, 64
1, 647061, Note_off_c, 0, 53, 64
1, 647075, Note_on_c, 0, 80, 40
1, 647097, Poly_aftertouch_c, 0, 53, 0
1, 647103, Note_on_c, 0, 53, 71
1, 647109, Note_off_c, 0, 52, 65
1, 647133, Note_off_c, 0, 80, 50
1, 647154, Note_on_c, 0, 51, 87
1, 647179, Note_off_c, 0, 53, 62
1, 647216, Note_on_c, 0, 52, 89
1, 647239, Note_off_c, 0, 51, 65
1, 647249, Note_on_c, 0, 83, 100
1, 647249, Note_off_c, 0, 52, 63
1, 647251, Note_on_c, 0, 80, 91
1, 647252, Note_on_c, 0, 71, 103
1, 647272, Note_on_c, 0, 72, 67
1, 647294, Note_off_c, 0, 72, 41
1, 647326, Note_off_c, 0, 71, 58
1, 647339, Note_off_c, 0, 83, 62
1, 647376, Note_off_c, 0, 80, 62
1, 647397, Control_c, 0, 64, 73
1, 647398, Note_on_c, 0, 45, 103
1, 647409, Note_on_c, 0, 33, 84
1, 647409, Note_on_c, 0, 35, 81
1, 647412, Control_c, 0, 64, 0
1, 647414, Note_on_c, 0, 84, 104
1, 647415, Note_on_c, 0, 72, 110
1, 647415, Note_on_c, 0, 81, 86
1, 647476, Note_off_c, 0, 33, 63
1, 647486, Control_c, 0, 64, 48
1, 647498, Note_off_c, 0, 35, 63
1, 647501, Control_c, 0, 64, 71
1, 647516, Control_c, 0, 64, 127
1, 647521, Note_off_c, 0, 45, 62
1, 647580, Note_off_c, 0, 84, 60
1, 647617, Note_off_c, 0, 81, 63
1, 647628, Note_off_c, 0, 72, 58
1, 647634, Note_on_c, 0, 52, 67
1, 647670, Note_off_c, 0, 52, 61
1, 647681, Note_on_c, 0, 60, 74
1, 647732, Note_off_c, 0, 60, 65
1, 647738, Note_on_c, 0, 59, 73
1, 647809, Note_on_c, 0, 60, 72
1, 647812, Note_off_c, 0, 59, 62
1, 647830, Note_on_c, 0, 57, 70
1, 647851, Note_off_c, 0, 60, 63
1, 647890, Note_off_c, 0, 57, 64
1, 647902, Note_on_c, 0, 72, 76
1, 647923, Note_on_c, 0, 60, 73
1, 647961, Note_on_c, 0, 69, 81
1, 647978, Note_on_c, 0, 57, 74
1, 647984, Note_off_c, 0, 60, 64
1, 647984, Note_off_c, 0, 72, 63
1, 648021, Note_on_c, 0, 56, 72
1, 648024, Note_on_c, 0, 68, 84
1, 648025, Note_off_c, 0, 69, 66
1, 648047, Note_off_c, 0, 57, 64
1, 648068, Note_on_c, 0, 72, 78
1, 648075, Note_off_c, 0, 68, 62
1, 648076, Note_on_c, 0, 60, 81
1, 648087, Note_off_c, 0, 56, 63
1, 648114, Note_on_c, 0, 68, 76
1, 648125, Note_on_c, 0, 56, 65
1, 648142, Note_off_c, 0, 60, 62
1, 648148, Note_off_c, 0, 72, 65
1, 648164, Note_on_c, 0, 67, 86
1, 648168, Note_on_c, 0, 55, 78
1, 648179, Note_off_c, 0, 68, 63
1, 648200, Note_off_c, 0, 56, 63
1, 648224, Note_off_c, 0, 55, 53
1, 648227, Note_on_c, 0, 69, 90
1, 648231, Note_off_c, 0, 67, 62
1, 648236, Note_on_c, 0, 57, 82
1, 648285, Note_on_c, 0, 67, 75
1, 648301, Note_on_c, 0, 55, 77
1, 648303, Note_off_c, 0, 57, 64
1, 648319, Note_off_c, 0, 69, 62
1, 648336, Note_on_c, 0, 66, 86
1, 648339, Note_on_c, 0, 54, 80
1, 648343, Note_off_c, 0, 67, 65
1, 648361, Note_off_c, 0, 55, 62
1, 648391, Note_off_c, 0, 66, 64
1, 648393, Note_on_c, 0, 57, 79
1, 648394, Note_on_c, 0, 69, 88
1, 648397, Note_off_c, 0, 54, 64
1, 648444, Note_on_c, 0, 54, 67
1, 648444, Note_on_c, 0, 66, 86
1, 648459, Note_off_c, 0, 57, 61
1, 648468, Note_off_c, 0, 69, 61
1, 648487, Note_on_c, 0, 53, 78
1, 648508, Control_c, 0, 64, 101
1, 648509, Note_on_c, 0, 65, 81
1, 648511, Note_off_c, 0, 66, 64
1, 648523, Control_c, 0, 64, 88
1, 648538, Control_c, 0, 64, 81
1, 648545, Note_off_c, 0, 53, 63
1, 648552, Note_off_c, 0, 65, 51
1, 648552, Control_c, 0, 64, 76
1, 648564, Note_on_c, 0, 66, 77
1, 648567, Control_c, 0, 64, 73
1, 648583, Control_c, 0, 64, 72
1, 648598, Control_c, 0, 64, 70
1, 648603, Note_on_c, 0, 53, 45
1, 648611, Note_on_c, 0, 65, 72
1, 648613, Control_c, 0, 64, 69
1, 648627, Control_c, 0, 64, 67
1, 648629, Note_off_c, 0, 66, 63
1, 648642, Control_c, 0, 64, 65
1, 648646, Note_on_c, 0, 52, 66
1, 648657, Control_c, 0, 64, 64
1, 648662, Note_off_c, 0, 65, 64
1, 648663, Note_off_c, 0, 54, 41
1, 648672, Control_c, 0, 64, 63
1, 648672, Control_c, 0, 67, 20
1, 648677, Note_on_c, 0, 64, 74
1, 648679, Note_off_c, 0, 53, 62
1, 648687, Control_c, 0, 64, 62
1, 648687, Control_c, 0, 67, 41
1, 648701, Control_c, 0, 64, 61
1, 648701, Control_c, 0, 67, 62
1, 648702, Note_off_c, 0, 52, 62
1, 648710, Note_off_c, 0, 64, 60
1, 648716, Control_c, 0, 64, 60
1, 648716, Control_c, 0, 67, 82
1, 648730, Note_on_c, 0, 53, 49
1, 648731, Control_c, 0, 64, 59
1, 648731, Control_c, 0, 67, 107
1, 648745, Note_on_c, 0, 65, 63
1, 648746, Control_c, 0, 64, 58
1, 648746, Control_c, 0, 67, 127
1, 648761, Control_c, 0, 64, 57
1, 648775, Control_c, 0, 64, 56
1, 648788, Note_off_c, 0, 65, 60
1, 648790, Control_c, 0, 64, 56
1, 648805, Control_c, 0, 64, 55
1, 648808, Note_off_c, 0, 53, 58
1, 648811, Note_on_c, 0, 51, 56
1, 648817, Note_on_c, 0, 63, 49
1, 648820, Control_c, 0, 64, 54
1, 648835, Control_c, 0, 64, 53
1, 648850, Control_c, 0, 64, 52
1, 648865, Control_c, 0, 64, 51
1, 648880, Control_c, 0, 64, 51
1, 648894, Control_c, 0, 64, 50
1, 648897, Note_off_c, 0, 63, 57
1, 648901, Note_off_c, 0, 51, 46
1, 648908, Note_on_c, 0, 52, 46
1, 648909, Control_c, 0, 64, 49
1, 648924, Control_c, 0, 64, 48
1, 648933, Note_on_c, 0, 64, 43
1, 648939, Control_c, 0, 64, 47
1, 648954, Control_c, 0, 64, 46
1, 648968, Control_c, 0, 64, 45
1, 648983, Control_c, 0, 64, 44
1, 648998, Control_c, 0, 64, 41
1, 649013, Control_c, 0, 64, 39
1, 649035, Control_c, 0, 64, 37
1, 649050, Control_c, 0, 64, 36
1, 649055, Note_off_c, 0, 64, 55
1, 649079, Control_c, 0, 64, 36
1, 649094, Control_c, 0, 64, 34
1, 649099, Note_off_c, 0, 52, 47
1, 649109, Control_c, 0, 64, 30
1, 649118, Note_on_c, 0, 45, 35
1, 649124, Control_c, 0, 64, 28
1, 649154, Control_c, 0, 64, 28
1, 649169, Control_c, 0, 64, 33
1, 649183, Control_c, 0, 64, 39
1, 649198, Control_c, 0, 64, 44
1, 649213, Control_c, 0, 64, 48
1, 649227, Control_c, 0, 64, 53
1, 649242, Control_c, 0, 64, 58
1, 649257, Control_c, 0, 64, 62
1, 649272, Control_c, 0, 64, 64
1, 649287, Control_c, 0, 64, 67
1, 649301, Control_c, 0, 64, 71
1, 649316, Control_c, 0, 64, 77
1, 649331, Control_c, 0, 64, 86
1, 649334, Note_on_c, 0, 52, 37
1, 649342, Note_off_c, 0, 45, 37
1, 649346, Control_c, 0, 64, 100
1, 649360, Control_c, 0, 64, 127
1, 649388, Note_off_c, 0, 52, 60
1, 649440, Note_on_c, 0, 57, 32
1, 649523, Note_off_c, 0, 57, 55
1, 649559, Note_on_c, 0, 83, 63
1, 649570, Note_on_c, 0, 59, 38
1, 649586, Note_on_c, 0, 79, 36
1, 649632, Note_off_c, 0, 59, 55
1, 649640, Note_off_c, 0, 79, 59
1, 649690, Note_on_c, 0, 60, 18
1, 649732, Note_off_c, 0, 60, 41
1, 649756, Note_on_c, 0, 62, 39
1, 649836, Note_off_c, 0, 62, 56
1, 649882, Note_on_c, 0, 63, 25
1, 649901, Note_on_c, 0, 81, 69
1, 649931, Note_off_c, 0, 63, 46
1, 649959, Note_on_c, 0, 78, 38
1, 649971, Note_on_c, 0, 64, 42
1, 650003, Note_off_c, 0, 78, 55
1, 650021, Note_off_c, 0, 64, 59
1, 650030, Note_on_c, 0, 66, 48
1, 650063, Note_off_c, 0, 66, 62
1, 650093, Note_on_c, 0, 67, 52
1, 650125, Note_on_c, 0, 79, 84
1, 650138, Note_off_c, 0, 67, 59
1, 650150, Note_on_c, 0, 76, 56
1, 650167, Note_on_c, 0, 69, 61
1, 650182, Note_off_c, 0, 81, 64
1, 650190, Note_off_c, 0, 83, 38
1, 650209, Note_off_c, 0, 69, 61
1, 650221, Note_off_c, 0, 79, 65
1, 650235, Note_on_c, 0, 71, 63
1, 650278, Note_on_c, 0, 62, 42
1, 650284, Note_off_c, 0, 71, 54
1, 650324, Note_on_c, 0, 69, 60
1, 650332, Note_on_c, 0, 78, 82
1, 650348, Control_c, 0, 64, 125
1, 650363, Control_c, 0, 64, 92
1, 650365, Note_on_c, 0, 74, 55
1, 650378, Control_c, 0, 64, 76
1, 650383, Note_off_c, 0, 76, 51
1, 650387, Note_on_c, 0, 67, 49
1, 650391, Note_off_c, 0, 69, 56
1, 650393, Control_c, 0, 64, 67
1, 650407, Control_c, 0, 64, 63
1, 650409, Note_on_c, 0, 66, 56
1, 650422, Control_c, 0, 64, 65
1, 650433, Note_off_c, 0, 62, 31
1, 650437, Control_c, 0, 64, 68
1, 650439, Note_off_c, 0, 67, 62
1, 650450, Note_off_c, 0, 66, 63
1, 650452, Control_c, 0, 64, 73
1, 650467, Control_c, 0, 64, 89
1, 650481, Control_c, 0, 64, 127
1, 650495, Note_on_c, 0, 64, 59
1, 650531, Note_on_c, 0, 76, 85
1, 650544, Note_off_c, 0, 64, 57
1, 650548, Note_on_c, 0, 72, 72
1, 650548, Note_off_c, 0, 74, 64
1, 650549, Control_c, 0, 64, 102
1, 650563, Note_on_c, 0, 62, 64
1, 650563, Control_c, 0, 64, 82
1, 650578, Control_c, 0, 64, 72
1, 650582, Note_off_c, 0, 78, 63
1, 650593, Control_c, 0, 64, 71
1, 650607, Control_c, 0, 64, 77
1, 650619, Note_off_c, 0, 76, 65
1, 650620, Note_on_c, 0, 60, 59
1, 650622, Control_c, 0, 64, 86
1, 650623, Note_off_c, 0, 62, 62
1, 650637, Control_c, 0, 64, 99
1, 650651, Note_off_c, 0, 60, 62
1, 650652, Control_c, 0, 64, 127
1, 650701, Note_on_c, 0, 59, 60
1, 650719, Note_on_c, 0, 74, 82
1, 650741, Control_c, 0, 64, 92
1, 650746, Note_on_c, 0, 71, 64
1, 650749, Note_off_c, 0, 59, 56
1, 650755, Control_c, 0, 64, 75
1, 650761, Note_on_c, 0, 57, 61
1, 650761, Note_off_c, 0, 72, 53
1, 650770, Control_c, 0, 64, 67
1, 650785, Control_c, 0, 64, 63
1, 650814, Control_c, 0, 64, 65
1, 650817, Note_on_c, 0, 55, 61
1, 650829, Control_c, 0, 64, 67
1, 650835, Note_off_c, 0, 57, 62
1, 650844, Control_c, 0, 64, 71
1, 650859, Note_off_c, 0, 71, 62
1, 650859, Control_c, 0, 64, 77
1, 650864, Note_off_c, 0, 55, 59
1, 650874, Note_on_c, 0, 54, 46
1, 650874, Control_c, 0, 64, 86
1, 650889, Control_c, 0, 64, 99
1, 650902, Note_on_c, 0, 72, 76
1, 650903, Note_off_c, 0, 54, 57
1, 650904, Control_c, 0, 64, 115
1, 650913, Note_on_c, 0, 69, 62
1, 650919, Control_c, 0, 64, 127
1, 650927, Note_on_c, 0, 52, 61
1, 650967, Note_off_c, 0, 52, 60
1, 650969, Note_off_c, 0, 74, 55
1, 650978, Note_off_c, 0, 69, 61
1, 651002, Note_on_c, 0, 50, 56
1, 651038, Control_c, 0, 64, 119
1, 651053, Control_c, 0, 64, 114
1, 651068, Control_c, 0, 64, 108
1, 651082, Note_on_c, 0, 43, 49
1, 651082, Control_c, 0, 64, 100
1, 651085, Note_off_c, 0, 50, 57
1, 651097, Control_c, 0, 64, 88
1, 651112, Control_c, 0, 64, 73
1, 651127, Control_c, 0, 64, 57
1, 651130, Note_on_c, 0, 71, 59
1, 651135, Note_off_c, 0, 72, 61
1, 651139, Note_on_c, 0, 67, 49
1, 651142, Control_c, 0, 64, 13
1, 651157, Control_c, 0, 64, 0
1, 651171, Control_c, 0, 64, 19
1, 651186, Control_c, 0, 64, 43
1, 651201, Control_c, 0, 64, 60
1, 651210, Note_on_c, 0, 50, 43
1, 651216, Control_c, 0, 64, 70
1, 651220, Note_off_c, 0, 43, 57
1, 651230, Control_c, 0, 64, 82
1, 651237, Note_off_c, 0, 71, 64
1, 651245, Control_c, 0, 64, 109
1, 651248, Note_off_c, 0, 50, 63
1, 651260, Control_c, 0, 64, 127
1, 651292, Note_on_c, 0, 55, 51
1, 651365, Note_off_c, 0, 55, 58
1, 651384, Note_on_c, 0, 57, 48
1, 651425, Note_on_c, 0, 81, 65
1, 651443, Note_off_c, 0, 57, 57
1, 651487, Note_on_c, 0, 59, 40
1, 651517, Note_off_c, 0, 67, 54
1, 651518, Note_off_c, 0, 59, 49
1, 651536, Note_on_c, 0, 60, 54
1, 651593, Note_off_c, 0, 60, 58
1, 651610, Note_on_c, 0, 61, 55
1, 651625, Note_on_c, 0, 79, 82
1, 651658, Note_on_c, 0, 76, 60
1, 651677, Note_on_c, 0, 62, 56
1, 651682, Note_off_c, 0, 61, 53
1, 651690, Note_off_c, 0, 81, 62
1, 651710, Note_off_c, 0, 62, 65
1, 651733, Note_on_c, 0, 64, 62
1, 651759, Note_off_c, 0, 76, 62
1, 651813, Note_off_c, 0, 64, 61
1, 651814, Note_on_c, 0, 66, 66
1, 651822, Note_on_c, 0, 78, 87
1, 651840, Note_on_c, 0, 74, 61
1, 651869, Note_off_c, 0, 79, 61
1, 651872, Note_on_c, 0, 67, 61
1, 651872, Note_off_c, 0, 66, 57
1, 651925, Note_off_c, 0, 78, 64
1, 651926, Note_on_c, 0, 69, 61
1, 651929, Note_off_c, 0, 67, 60
1, 651958, Note_off_c, 0, 69, 62
1, 652007, Note_on_c, 0, 67, 51
1, 652029, Note_on_c, 0, 60, 58
1, 652031, Control_c, 0, 64, 103
1, 652032, Note_on_c, 0, 76, 81
1, 652045, Control_c, 0, 64, 88
1, 652060, Control_c, 0, 64, 75
1, 652061, Note_on_c, 0, 72, 56
1, 652066, Note_off_c, 0, 67, 61
1, 652075, Control_c, 0, 64, 66
1, 652081, Note_off_c, 0, 74, 60
1, 652090, Control_c, 0, 64, 59
1, 652095, Note_on_c, 0, 66, 54
1, 652105, Control_c, 0, 64, 57
1, 652120, Control_c, 0, 64, 60
1, 652135, Control_c, 0, 64, 61
1, 652148, Note_on_c, 0, 64, 65
1, 652150, Control_c, 0, 64, 63
1, 652157, Note_off_c, 0, 66, 60
1, 652165, Control_c, 0, 64, 66
1, 652179, Control_c, 0, 64, 71
1, 652194, Control_c, 0, 64, 82
1, 652199, Note_off_c, 0, 64, 61
1, 652200, Note_off_c, 0, 60, 31
1, 652207, Control_c, 0, 64, 101
1, 652217, Note_on_c, 0, 74, 80
1, 652222, Control_c, 0, 64, 127
1, 652228, Note_on_c, 0, 71, 72
1, 652236, Note_on_c, 0, 62, 70
1, 652237, Note_off_c, 0, 72, 62
1, 652260, Note_off_c, 0, 76, 60
1, 652272, Note_off_c, 0, 62, 61
1, 652296, Note_on_c, 0, 60, 67
1, 652302, Note_off_c, 0, 74, 62
1, 652348, Note_on_c, 0, 59, 68
1, 652367, Note_off_c, 0, 60, 63
1, 652396, Note_off_c, 0, 59, 56
1, 652400, Control_c, 0, 64, 100
1, 652414, Note_on_c, 0, 72, 74
1, 652415, Control_c, 0, 64, 85
1, 652430, Control_c, 0, 64, 72
1, 652439, Note_off_c, 0, 71, 52
1, 652440, Note_on_c, 0, 57, 63
1, 652442, Note_on_c, 0, 69, 52
1, 652444, Control_c, 0, 64, 65
1, 652459, Control_c, 0, 64, 62
1, 652474, Control_c, 0, 64, 64
1, 652486, Note_off_c, 0, 57, 56
1, 652489, Control_c, 0, 64, 66
1, 652504, Control_c, 0, 64, 68
1, 652507, Note_on_c, 0, 55, 64
1, 652518, Control_c, 0, 64, 74
1, 652533, Control_c, 0, 64, 84
1, 652548, Control_c, 0, 64, 99
1, 652551, Note_on_c, 0, 54, 66
1, 652564, Control_c, 0, 64, 114
1, 652565, Note_off_c, 0, 55, 52
1, 652579, Control_c, 0, 64, 108
1, 652590, Note_off_c, 0, 54, 66
1, 652594, Control_c, 0, 64, 96
1, 652609, Control_c, 0, 64, 83
1, 652623, Control_c, 0, 64, 73
1, 652624, Note_on_c, 0, 71, 69
1, 652638, Control_c, 0, 64, 65
1, 652639, Note_on_c, 0, 52, 60
1, 652639, Note_on_c, 0, 67, 54
1, 652644, Note_off_c, 0, 69, 57
1, 652653, Control_c, 0, 64, 64
1, 652667, Control_c, 0, 64, 66
1, 652671, Note_off_c, 0, 72, 54
1, 652682, Control_c, 0, 64, 69
1, 652694, Note_off_c, 0, 52, 58
1, 652697, Control_c, 0, 64, 72
1, 652711, Note_on_c, 0, 50, 59
1, 652712, Control_c, 0, 64, 80
1, 652727, Control_c, 0, 64, 92
1, 652741, Control_c, 0, 64, 120
1, 652753, Note_off_c, 0, 67, 52
1, 652756, Control_c, 0, 64, 127
1, 652812, Note_off_c, 0, 50, 56
1, 652813, Note_on_c, 0, 49, 56
1, 652845, Note_off_c, 0, 71, 55
1, 652927, Control_c, 0, 64, 125
1, 652941, Note_on_c, 0, 48, 53
1, 652941, Control_c, 0, 64, 103
1, 652956, Control_c, 0, 64, 87
1, 652957, Note_off_c, 0, 49, 38
1, 652969, Note_on_c, 0, 67, 47
1, 652971, Control_c, 0, 64, 72
1, 652972, Note_on_c, 0, 69, 49
1, 652986, Control_c, 0, 64, 56
1, 653001, Control_c, 0, 64, 30
1, 653016, Control_c, 0, 64, 27
1, 653030, Control_c, 0, 64, 33
1, 653045, Control_c, 0, 64, 42
1, 653060, Control_c, 0, 64, 50
1, 653074, Control_c, 0, 64, 58
1, 653089, Control_c, 0, 64, 64
1, 653104, Control_c, 0, 64, 70
1, 653119, Control_c, 0, 64, 78
1, 653129, Note_off_c, 0, 48, 58
1, 653134, Control_c, 0, 64, 91
1, 653148, Control_c, 0, 64, 110
1, 653150, Note_on_c, 0, 57, 50
1, 653163, Control_c, 0, 64, 127
1, 653243, Note_on_c, 0, 64, 54
1, 653262, Note_off_c, 0, 57, 48
1, 653277, Note_off_c, 0, 64, 62
1, 653328, Note_on_c, 0, 79, 65
1, 653355, Note_on_c, 0, 76, 45
1, 653424, Note_on_c, 0, 59, 49
1, 653450, Note_off_c, 0, 67, 34
1, 653450, Note_off_c, 0, 69, 34
1, 653452, Note_off_c, 0, 76, 59
1, 653468, Note_off_c, 0, 59, 61
1, 653472, Note_off_c, 0, 79, 60
1, 653485, Note_on_c, 0, 57, 53
1, 653537, Note_off_c, 0, 57, 54
1, 653542, Control_c, 0, 64, 93
1, 653557, Control_c, 0, 64, 74
1, 653572, Control_c, 0, 64, 64
1, 653577, Note_on_c, 0, 47, 54
1, 653586, Control_c, 0, 64, 58
1, 653601, Control_c, 0, 64, 60
1, 653604, Note_on_c, 0, 79, 70
1, 653616, Control_c, 0, 64, 63
1, 653631, Control_c, 0, 64, 65
1, 653632, Note_on_c, 0, 75, 50
1, 653646, Control_c, 0, 64, 69
1, 653647, Note_off_c, 0, 47, 61
1, 653661, Control_c, 0, 64, 78
1, 653676, Control_c, 0, 64, 94
1, 653690, Control_c, 0, 64, 127
1, 653699, Note_on_c, 0, 57, 60
1, 653781, Note_on_c, 0, 63, 46
1, 653804, Note_off_c, 0, 57, 55
1, 653816, Note_off_c, 0, 63, 54
1, 653860, Note_on_c, 0, 69, 54
1, 653861, Note_on_c, 0, 67, 63
1, 653884, Note_off_c, 0, 75, 53
1, 653964, Note_off_c, 0, 69, 58
1, 653965, Note_on_c, 0, 59, 36
1, 653966, Note_off_c, 0, 67, 60
1, 653985, Note_off_c, 0, 79, 53
1, 654010, Note_on_c, 0, 57, 46
1, 654016, Note_off_c, 0, 59, 57
1, 654046, Control_c, 0, 64, 109
1, 654061, Control_c, 0, 64, 83
1, 654076, Control_c, 0, 64, 67
1, 654079, Note_off_c, 0, 57, 55
1, 654085, Note_on_c, 0, 48, 55
1, 654090, Control_c, 0, 64, 55
1, 654102, Note_on_c, 0, 69, 57
1, 654105, Control_c, 0, 64, 48
1, 654107, Note_on_c, 0, 67, 59
1, 654120, Control_c, 0, 64, 55
1, 654135, Control_c, 0, 64, 59
1, 654150, Control_c, 0, 64, 64
1, 654156, Note_off_c, 0, 48, 54
1, 654166, Control_c, 0, 64, 72
1, 654180, Note_on_c, 0, 57, 51
1, 654181, Control_c, 0, 64, 87
1, 654195, Control_c, 0, 64, 127
1, 654244, Note_on_c, 0, 64, 59
1, 654283, Note_off_c, 0, 64, 65
1, 654314, Note_off_c, 0, 57, 55
1, 654323, Note_on_c, 0, 79, 71
1, 654335, Note_on_c, 0, 76, 61
1, 654395, Note_off_c, 0, 67, 54
1, 654397, Note_on_c, 0, 59, 60
1, 654408, Note_off_c, 0, 79, 63
1, 654410, Note_off_c, 0, 76, 63
1, 654412, Note_off_c, 0, 69, 37
1, 654436, Note_off_c, 0, 59, 65
1, 654449, Note_on_c, 0, 57, 56
1, 654492, Note_off_c, 0, 57, 54
1, 654499, Control_c, 0, 64, 95
1, 654510, Note_on_c, 0, 47, 63
1, 654514, Control_c, 0, 64, 73
1, 654516, Note_on_c, 0, 78, 74
1, 654528, Control_c, 0, 64, 61
1, 654533, Note_on_c, 0, 75, 57
1, 654543, Control_c, 0, 64, 56
1, 654557, Note_off_c, 0, 47, 60
1, 654558, Control_c, 0, 64, 61
1, 654573, Control_c, 0, 64, 64
1, 654588, Control_c, 0, 64, 68
1, 654590, Note_on_c, 0, 57, 58
1, 654603, Control_c, 0, 64, 76
1, 654615, Note_on_c, 0, 53, 14
1, 654618, Control_c, 0, 64, 94
1, 654633, Control_c, 0, 64, 127
1, 654663, Note_on_c, 0, 63, 57
1, 654686, Note_off_c, 0, 63, 61
1, 654704, Note_off_c, 0, 57, 58
1, 654713, Note_on_c, 0, 66, 66
1, 654716, Note_on_c, 0, 69, 73
1, 654746, Note_off_c, 0, 78, 62
1, 654765, Note_off_c, 0, 75, 54
1, 654809, Note_on_c, 0, 59, 49
1, 654811, Note_off_c, 0, 69, 61
1, 654822, Note_off_c, 0, 66, 57
1, 654843, Note_off_c, 0, 59, 65
1, 654847, Note_on_c, 0, 57, 55
1, 654884, Control_c, 0, 64, 108
1, 654899, Control_c, 0, 64, 79
1, 654913, Control_c, 0, 64, 63
1, 654915, Note_off_c, 0, 57, 60
1, 654916, Note_on_c, 0, 48, 62
1, 654926, Note_on_c, 0, 69, 69
1, 654928, Control_c, 0, 64, 43
1, 654933, Note_on_c, 0, 65, 58
1, 654937, Note_off_c, 0, 53, 32
1, 654943, Control_c, 0, 64, 48
1, 654958, Control_c, 0, 64, 55
1, 654974, Control_c, 0, 64, 60
1, 654989, Control_c, 0, 64, 65
1, 655004, Note_off_c, 0, 48, 59
1, 655004, Control_c, 0, 64, 73
1, 655007, Note_on_c, 0, 57, 47
1, 655026, Control_c, 0, 64, 90
1, 655041, Control_c, 0, 64, 127
1, 655075, Note_on_c, 0, 62, 58
1, 655107, Note_off_c, 0, 62, 64
1, 655113, Note_on_c, 0, 74, 64
1, 655115, Note_on_c, 0, 77, 74
1, 655128, Note_off_c, 0, 57, 62
1, 655140, Note_off_c, 0, 65, 58
1, 655177, Note_off_c, 0, 69, 61
1, 655200, Note_off_c, 0, 74, 61
1, 655206, Note_off_c, 0, 77, 61
1, 655212, Note_on_c, 0, 59, 53
1, 655241, Note_off_c, 0, 59, 64
1, 655253, Note_on_c, 0, 57, 55
1, 655280, Note_off_c, 0, 57, 63
1, 655292, Control_c, 0, 64, 102
1, 655306, Control_c, 0, 64, 79
1, 655310, Note_on_c, 0, 47, 65
1, 655318, Note_on_c, 0, 77, 75
1, 655321, Control_c, 0, 64, 64
1, 655329, Note_on_c, 0, 74, 64
1, 655336, Control_c, 0, 64, 52
1, 655351, Control_c, 0, 64, 53
1, 655366, Control_c, 0, 64, 58
1, 655381, Control_c, 0, 64, 61
1, 655381, Note_off_c, 0, 47, 61
1, 655396, Control_c, 0, 64, 66
1, 655401, Note_on_c, 0, 56, 66
1, 655411, Control_c, 0, 64, 77
1, 655425, Control_c, 0, 64, 103
1, 655440, Control_c, 0, 64, 127
1, 655456, Note_on_c, 0, 62, 66
1, 655484, Poly_aftertouch_c, 0, 53, 0
1, 655486, Note_off_c, 0, 62, 64
1, 655511, Note_on_c, 0, 68, 76
1, 655511, Note_off_c, 0, 56, 60
1, 655512, Note_on_c, 0, 65, 63
1, 655527, Note_off_c, 0, 77, 55
1, 655552, Note_off_c, 0, 74, 58
1, 655604, Note_off_c, 0, 65, 58
1, 655614, Note_off_c, 0, 68, 60
1, 655621, Note_on_c, 0, 57, 42
1, 655631, Note_on_c, 0, 56, 62
1, 655655, Note_off_c, 0, 57, 54
1, 655679, Poly_aftertouch_c, 0, 59, 0
1, 655682, Note_off_c, 0, 56, 53
1, 655694, Note_on_c, 0, 48, 68
1, 655706, Control_c, 0, 64, 92
1, 655716, Note_on_c, 0, 69, 80
1, 655721, Control_c, 0, 64, 70
1, 655728, Note_on_c, 0, 65, 64
1, 655736, Control_c, 0, 64, 51
1, 655745, Note_on_c, 0, 51, 21
1, 655751, Control_c, 0, 64, 25
1, 655774, Control_c, 0, 64, 38
1, 655784, Note_on_c, 0, 57, 56
1, 655789, Control_c, 0, 64, 50
1, 655789, Note_off_c, 0, 48, 60
1, 655804, Control_c, 0, 64, 58
1, 655808, Note_off_c, 0, 51, 46
1, 655819, Control_c, 0, 64, 66
1, 655834, Control_c, 0, 64, 75
1, 655848, Control_c, 0, 64, 98
1, 655855, Note_on_c, 0, 62, 54
1, 655863, Control_c, 0, 64, 127
1, 655881, Note_off_c, 0, 62, 63
1, 655897, Note_off_c, 0, 57, 58
1, 655906, Note_on_c, 0, 77, 82
1, 655908, Note_on_c, 0, 74, 72
1, 655915, Note_off_c, 0, 65, 56
1, 655945, Note_off_c, 0, 69, 62
1, 655980, Note_on_c, 0, 59, 62
1, 655990, Note_off_c, 0, 74, 62
1, 655990, Note_off_c, 0, 77, 62
1, 656012, Note_off_c, 0, 59, 65
1, 656016, Note_on_c, 0, 57, 68
1, 656078, Note_off_c, 0, 57, 55
1, 656094, Note_on_c, 0, 47, 71
1, 656099, Control_c, 0, 64, 84
1, 656109, Note_on_c, 0, 76, 79
1, 656114, Control_c, 0, 64, 66
1, 656123, Note_on_c, 0, 74, 62
1, 656129, Control_c, 0, 64, 49
1, 656144, Control_c, 0, 64, 42
1, 656159, Control_c, 0, 64, 54
1, 656169, Note_off_c, 0, 47, 62
1, 656174, Control_c, 0, 64, 60
1, 656184, Note_on_c, 0, 56, 65
1, 656189, Control_c, 0, 64, 65
1, 656204, Control_c, 0, 64, 74
1, 656219, Control_c, 0, 64, 94
1, 656230, Poly_aftertouch_c, 0, 53, 127
1, 656233, Control_c, 0, 64, 127
1, 656244, Note_on_c, 0, 62, 64
1, 656275, Note_off_c, 0, 62, 65
1, 656286, Note_off_c, 0, 56, 60
1, 656298, Note_on_c, 0, 68, 79
1, 656308, Note_on_c, 0, 64, 64
1, 656314, Note_off_c, 0, 76, 62
1, 656323, Note_off_c, 0, 74, 60
1, 656368, Note_off_c, 0, 64, 59
1, 656369, Note_on_c, 0, 57, 68
1, 656381, Note_off_c, 0, 68, 60
1, 656391, Poly_aftertouch_c, 0, 53, 0
1, 656407, Note_on_c, 0, 56, 60
1, 656425, Note_off_c, 0, 57, 60
1, 656478, Note_on_c, 0, 47, 69
1, 656480, Note_off_c, 0, 56, 63
1, 656484, Control_c, 0, 64, 103
1, 656499, Control_c, 0, 64, 78
1, 656514, Note_on_c, 0, 67, 76
1, 656520, Note_on_c, 0, 64, 67
1, 656522, Control_c, 0, 64, 62
1, 656537, Control_c, 0, 64, 46
1, 656552, Control_c, 0, 64, 50
1, 656567, Note_off_c, 0, 47, 60
1, 656567, Control_c, 0, 64, 56
1, 656571, Note_on_c, 0, 55, 54
1, 656582, Control_c, 0, 64, 59
1, 656597, Control_c, 0, 64, 63
1, 656612, Control_c, 0, 64, 67
1, 656627, Control_c, 0, 64, 78
1, 656629, Note_on_c, 0, 60, 62
1, 656642, Control_c, 0, 64, 102
1, 656657, Control_c, 0, 64, 127
1, 656660, Note_off_c, 0, 60, 66
1, 656686, Note_off_c, 0, 55, 59
1, 656689, Note_on_c, 0, 76, 83
1, 656700, Note_on_c, 0, 72, 69
1, 656716, Note_off_c, 0, 64, 58
1, 656734, Note_off_c, 0, 67, 58
1, 656756, Note_on_c, 0, 57, 62
1, 656772, Note_off_c, 0, 76, 66
1, 656798, Note_off_c, 0, 72, 61
1, 656801, Note_on_c, 0, 55, 69
1, 656804, Control_c, 0, 67, 124
1, 656806, Note_off_c, 0, 57, 60
1, 656819, Control_c, 0, 67, 117
1, 656834, Control_c, 0, 67, 108
1, 656848, Control_c, 0, 67, 99
1, 656860, Note_off_c, 0, 55, 58
1, 656863, Control_c, 0, 67, 90
1, 656878, Control_c, 0, 64, 99
1, 656878, Control_c, 0, 67, 83
1, 656879, Note_on_c, 0, 45, 77
1, 656893, Control_c, 0, 64, 78
1, 656893, Control_c, 0, 67, 77
1, 656898, Note_on_c, 0, 75, 78
1, 656908, Control_c, 0, 64, 64
1, 656908, Control_c, 0, 67, 72
1, 656919, Note_on_c, 0, 72, 60
1, 656922, Control_c, 0, 64, 55
1, 656922, Control_c, 0, 67, 67
1, 656937, Control_c, 0, 64, 59
1, 656937, Control_c, 0, 67, 61
1, 656952, Control_c, 0, 64, 62
1, 656952, Control_c, 0, 67, 56
1, 656967, Note_off_c, 0, 45, 62
1, 656967, Control_c, 0, 64, 65
1, 656967, Control_c, 0, 67, 49
1, 656973, Note_on_c, 0, 54, 62
1, 656982, Control_c, 0, 64, 71
1, 656982, Control_c, 0, 67, 42
1, 656997, Control_c, 0, 64, 84
1, 656997, Control_c, 0, 67, 34
1, 657012, Control_c, 0, 64, 110
1, 657012, Control_c, 0, 67, 29
1, 657021, Note_on_c, 0, 60, 71
1, 657026, Control_c, 0, 64, 127
1, 657026, Control_c, 0, 67, 23
1, 657041, Control_c, 0, 67, 18
1, 657042, Poly_aftertouch_c, 0, 48, 0
1, 657050, Note_off_c, 0, 60, 65
1, 657056, Control_c, 0, 67, 13
1, 657071, Control_c, 0, 67, 9
1, 657086, Control_c, 0, 67, 0
1, 657089, Note_on_c, 0, 66, 72
1, 657090, Note_off_c, 0, 54, 61
1, 657094, Note_on_c, 0, 63, 62
1, 657113, Note_off_c, 0, 72, 57
1, 657130, Note_off_c, 0, 75, 58
1, 657147, Poly_aftertouch_c, 0, 50, 0
1, 657152, Note_on_c, 0, 55, 63
1, 657169, Note_off_c, 0, 63, 61
1, 657181, Note_off_c, 0, 66, 60
1, 657196, Note_off_c, 0, 55, 61
1, 657200, Note_on_c, 0, 54, 68
1, 657250, Note_off_c, 0, 54, 58
1, 657251, Note_on_c, 0, 45, 74
1, 657271, Control_c, 0, 64, 92
1, 657286, Control_c, 0, 64, 76
1, 657289, Note_on_c, 0, 66, 76
1, 657295, Note_on_c, 0, 63, 70
1, 657301, Control_c, 0, 64, 65
1, 657315, Control_c, 0, 64, 57
1, 657330, Control_c, 0, 64, 58
1, 657345, Control_c, 0, 64, 63
1, 657350, Note_on_c, 0, 54, 68
1, 657354, Note_off_c, 0, 45, 60
1, 657360, Control_c, 0, 64, 66
1, 657375, Control_c, 0, 64, 71
1, 657390, Control_c, 0, 64, 83
1, 657399, Note_on_c, 0, 59, 67
1, 657405, Control_c, 0, 64, 111
1, 657420, Control_c, 0, 64, 127
1, 657428, Note_off_c, 0, 59, 66
1, 657459, Note_off_c, 0, 63, 59
1, 657470, Note_off_c, 0, 54, 62
1, 657471, Note_on_c, 0, 75, 80
1, 657473, Note_on_c, 0, 71, 69
1, 657516, Note_off_c, 0, 66, 58
1, 657530, Note_on_c, 0, 55, 61
1, 657556, Note_off_c, 0, 71, 59
1, 657558, Note_off_c, 0, 75, 62
1, 657560, Note_off_c, 0, 55, 65
1, 657582, Note_on_c, 0, 54, 66
1, 657610, Note_off_c, 0, 54, 68
1, 657643, Note_on_c, 0, 44, 85
1, 657658, Control_c, 0, 64, 94
1, 657672, Control_c, 0, 64, 72
1, 657676, Note_on_c, 0, 74, 77
1, 657687, Control_c, 0, 64, 58
1, 657688, Note_on_c, 0, 71, 60
1, 657702, Control_c, 0, 64, 35
1, 657717, Control_c, 0, 64, 38
1, 657732, Control_c, 0, 64, 49
1, 657746, Control_c, 0, 64, 57
1, 657753, Note_on_c, 0, 53, 66
1, 657761, Control_c, 0, 64, 63
1, 657765, Note_off_c, 0, 44, 62
1, 657776, Control_c, 0, 64, 72
1, 657791, Control_c, 0, 64, 90
1, 657806, Control_c, 0, 64, 127
1, 657812, Note_on_c, 0, 59, 63
1, 657840, Note_off_c, 0, 59, 64
1, 657858, Note_on_c, 0, 65, 72
1, 657864, Note_on_c, 0, 62, 69
1, 657871, Note_off_c, 0, 53, 62
1, 657897, Note_off_c, 0, 71, 58
1, 657897, Note_off_c, 0, 74, 53
1, 657933, Note_on_c, 0, 55, 71
1, 657962, Note_off_c, 0, 62, 53
1, 657984, Note_off_c, 0, 55, 53
1, 657985, Note_on_c, 0, 53, 64
1, 657991, Note_off_c, 0, 65, 61
1, 658037, Note_off_c, 0, 53, 51
1, 658051, Note_on_c, 0, 44, 80
1, 658076, Note_on_c, 0, 64, 76
1, 658077, Note_on_c, 0, 62, 77
1, 658079, Control_c, 0, 64, 90
1, 658094, Control_c, 0, 64, 71
1, 658109, Control_c, 0, 64, 57
1, 658124, Control_c, 0, 64, 53
1, 658138, Control_c, 0, 64, 59
1, 658153, Control_c, 0, 64, 63
1, 658155, Note_on_c, 0, 52, 67
1, 658167, Note_off_c, 0, 44, 63
1, 658169, Control_c, 0, 64, 67
1, 658184, Control_c, 0, 64, 78
1, 658199, Control_c, 0, 64, 127
1, 658219, Note_on_c, 0, 59, 66
1, 658248, Note_off_c, 0, 59, 65
1, 658254, Note_on_c, 0, 74, 85
1, 658261, Note_on_c, 0, 71, 73
1, 658276, Note_off_c, 0, 52, 60
1, 658294, Note_off_c, 0, 64, 61
1, 658296, Note_off_c, 0, 62, 60
1, 658339, Note_on_c, 0, 53, 70
1, 658355, Note_off_c, 0, 74, 64
1, 658366, Note_off_c, 0, 71, 61
1, 658401, Note_on_c, 0, 52, 64
1, 658404, Note_off_c, 0, 53, 62
1, 658441, Note_on_c, 0, 43, 79
1, 658451, Control_c, 0, 64, 101
1, 658456, Note_on_c, 0, 73, 91
1, 658466, Control_c, 0, 64, 71
1, 658469, Note_on_c, 0, 70, 79
1, 658477, Note_off_c, 0, 52, 61
1, 658481, Control_c, 0, 64, 43
1, 658495, Control_c, 0, 64, 9
1, 658510, Control_c, 0, 64, 39
1, 658523, Note_on_c, 0, 50, 44
1, 658525, Control_c, 0, 64, 52
1, 658531, Note_off_c, 0, 43, 63
1, 658540, Control_c, 0, 64, 62
1, 658555, Control_c, 0, 64, 71
1, 658559, Note_on_c, 0, 52, 51
1, 658569, Control_c, 0, 64, 104
1, 658584, Control_c, 0, 64, 127
1, 658590, Note_on_c, 0, 58, 76
1, 658618, Note_off_c, 0, 58, 68
1, 658639, Note_on_c, 0, 64, 83
1, 658650, Note_on_c, 0, 61, 79
1, 658657, Note_off_c, 0, 52, 61
1, 658688, Note_off_c, 0, 73, 61
1, 658691, Note_off_c, 0, 70, 57
1, 658712, Note_on_c, 0, 54, 77
1, 658743, Note_off_c, 0, 61, 59
1, 658746, Note_off_c, 0, 64, 62
1, 658765, Note_off_c, 0, 54, 63
1, 658776, Note_on_c, 0, 52, 68
1, 658836, Note_on_c, 0, 43, 81
1, 658843, Control_c, 0, 64, 102
1, 658848, Note_on_c, 0, 64, 88
1, 658851, Note_on_c, 0, 61, 91
1, 658853, Note_off_c, 0, 52, 54
1, 658856, Note_off_c, 0, 50, 38
1, 658858, Control_c, 0, 64, 66
1, 658873, Control_c, 0, 64, 28
1, 658887, Control_c, 0, 64, 0
1, 658902, Control_c, 0, 64, 26
1, 658917, Control_c, 0, 64, 48
1, 658932, Control_c, 0, 64, 63
1, 658936, Note_off_c, 0, 43, 62
1, 658939, Note_on_c, 0, 50, 38
1, 658943, Note_on_c, 0, 52, 50
1, 658946, Control_c, 0, 64, 81
1, 658962, Control_c, 0, 64, 127
1, 658977, Note_on_c, 0, 57, 77
1, 659006, Note_off_c, 0, 57, 68
1, 659013, Note_on_c, 0, 69, 83
1, 659018, Note_on_c, 0, 73, 95
1, 659031, Note_off_c, 0, 61, 61
1, 659042, Note_off_c, 0, 64, 60
1, 659043, Note_off_c, 0, 52, 60
1, 659092, Note_on_c, 0, 54, 78
1, 659099, Note_off_c, 0, 69, 59
1, 659114, Note_off_c, 0, 73, 62
1, 659149, Note_on_c, 0, 52, 75
1, 659152, Note_off_c, 0, 54, 62
1, 659204, Note_off_c, 0, 52, 65
1, 659240, Note_off_c, 0, 50, 52
1, 659248, Note_on_c, 0, 72, 92
1, 659250, Note_on_c, 0, 42, 82
1, 659256, Note_on_c, 0, 69, 86
1, 659258, Control_c, 0, 64, 81
1, 659273, Control_c, 0, 64, 60
1, 659288, Control_c, 0, 64, 0
1, 659321, Poly_aftertouch_c, 0, 49, 127
1, 659332, Control_c, 0, 64, 31
1, 659347, Control_c, 0, 64, 52
1, 659362, Control_c, 0, 64, 64
1, 659363, Note_off_c, 0, 42, 63
1, 659364, Note_on_c, 0, 51, 65
1, 659377, Control_c, 0, 64, 75
1, 659381, Poly_aftertouch_c, 0, 49, 0
1, 659391, Control_c, 0, 64, 110
1, 659406, Control_c, 0, 64, 127
1, 659415, Note_on_c, 0, 57, 72
1, 659431, Poly_aftertouch_c, 0, 50, 127
1, 659449, Note_off_c, 0, 57, 63
1, 659474, Note_on_c, 0, 63, 83
1, 659476, Note_on_c, 0, 60, 80
1, 659492, Note_off_c, 0, 51, 61
1, 659517, Poly_aftertouch_c, 0, 50, 0
1, 659532, Note_off_c, 0, 69, 52
1, 659549, Note_off_c, 0, 72, 57
1, 659560, Note_on_c, 0, 52, 69
1, 659588, Note_off_c, 0, 60, 59
1, 659623, Note_on_c, 0, 51, 71
1, 659635, Note_off_c, 0, 52, 62
1, 659647, Note_off_c, 0, 63, 59
1, 659751, Note_on_c, 0, 43, 62
1, 659762, Note_off_c, 0, 51, 59
1, 659785, Control_c, 0, 64, 105
1, 659799, Note_on_c, 0, 71, 83
1, 659800, Control_c, 0, 64, 75
1, 659814, Control_c, 0, 64, 59
1, 659821, Note_on_c, 0, 67, 55
1, 659829, Control_c, 0, 64, 39
1, 659844, Control_c, 0, 64, 44
1, 659859, Control_c, 0, 64, 54
1, 659874, Control_c, 0, 64, 63
1, 659888, Control_c, 0, 64, 71
1, 659896, Note_off_c, 0, 43, 61
1, 659903, Control_c, 0, 64, 93
1, 659909, Note_on_c, 0, 52, 58
1, 659918, Control_c, 0, 64, 127
1, 659960, Note_off_c, 0, 52, 64
1, 659992, Note_on_c, 0, 59, 63
1, 660037, Note_off_c, 0, 59, 52
1, 660064, Note_on_c, 0, 58, 66
1, 660104, Note_on_c, 0, 64, 70
1, 660107, Note_off_c, 0, 58, 58
1, 660129, Note_on_c, 0, 59, 65
1, 660141, Note_off_c, 0, 71, 61
1, 660164, Note_off_c, 0, 67, 57
1, 660166, Note_off_c, 0, 59, 64
1, 660168, Note_on_c, 0, 55, 63
1, 660197, Note_off_c, 0, 55, 63
1, 660215, Note_off_c, 0, 64, 53
1, 660281, Control_c, 0, 64, 98
1, 660291, Note_on_c, 0, 40, 82
1, 660296, Control_c, 0, 64, 69
1, 660311, Control_c, 0, 64, 50
1, 660317, Note_on_c, 0, 70, 81
1, 660326, Control_c, 0, 64, 52
1, 660331, Note_on_c, 0, 67, 54
1, 660340, Control_c, 0, 64, 62
1, 660355, Control_c, 0, 64, 69
1, 660356, Note_off_c, 0, 40, 56
1, 660365, Note_on_c, 0, 41, 35
1, 660370, Control_c, 0, 64, 90
1, 660380, Note_on_c, 0, 46, 41
1, 660385, Control_c, 0, 64, 127
1, 660410, Note_off_c, 0, 41, 53
1, 660413, Note_off_c, 0, 46, 53
1, 660421, Note_on_c, 0, 55, 74
1, 660484, Note_off_c, 0, 55, 59
1, 660501, Note_on_c, 0, 64, 74
1, 660511, Note_off_c, 0, 67, 63
1, 660518, Note_on_c, 0, 58, 73
1, 660529, Note_on_c, 0, 53, 12
1, 660544, Note_on_c, 0, 55, 67
1, 660563, Note_off_c, 0, 64, 62
1, 660582, Note_off_c, 0, 70, 35
1, 660589, Note_off_c, 0, 55, 63
1, 660592, Note_off_c, 0, 58, 63
1, 660606, Note_on_c, 0, 52, 64
1, 660619, Note_off_c, 0, 53, 35
1, 660627, Note_off_c, 0, 52, 65
1, 660630, Note_on_c, 0, 51, 37
1, 660666, Note_off_c, 0, 51, 49
1, 660681, Control_c, 0, 64, 112
1, 660696, Control_c, 0, 64, 69
1, 660699, Note_on_c, 0, 37, 85
1, 660711, Control_c, 0, 64, 0
1, 660715, Note_on_c, 0, 69, 85
1, 660722, Note_on_c, 0, 64, 71
1, 660724, Note_on_c, 0, 44, 54
1, 660741, Control_c, 0, 64, 46
1, 660752, Note_on_c, 0, 45, 65
1, 660756, Control_c, 0, 64, 61
1, 660761, Note_off_c, 0, 44, 45
1, 660770, Control_c, 0, 64, 74
1, 660778, Note_off_c, 0, 37, 62
1, 660785, Control_c, 0, 64, 127
1, 660796, Note_off_c, 0, 45, 64
1, 660822, Note_on_c, 0, 52, 75
1, 660866, Note_off_c, 0, 52, 63
1, 660905, Note_on_c, 0, 52, 51
1, 660914, Note_on_c, 0, 57, 80
1, 660923, Note_off_c, 0, 69, 58
1, 660939, Note_on_c, 0, 51, 10
1, 660961, Note_off_c, 0, 64, 57
1, 660987, Note_off_c, 0, 51, 51
1, 660992, Note_off_c, 0, 57, 62
1, 661011, Note_off_c, 0, 52, 58
1, 661036, Note_on_c, 0, 47, 61
1, 661059, Note_off_c, 0, 47, 58
1, 661104, Control_c, 0, 64, 77
1, 661109, Note_on_c, 0, 36, 95
1, 661119, Control_c, 0, 64, 44
1, 661134, Note_on_c, 0, 68, 90
1, 661134, Control_c, 0, 64, 0
1, 661140, Note_on_c, 0, 64, 75
1, 661149, Control_c, 0, 64, 9
1, 661164, Control_c, 0, 64, 52
1, 661170, Note_off_c, 0, 36, 65
1, 661179, Control_c, 0, 64, 76
1, 661194, Control_c, 0, 64, 127
1, 661244, Note_on_c, 0, 52, 61
1, 661274, Note_on_c, 0, 51, 83
1, 661280, Note_off_c, 0, 52, 65
1, 661310, Note_off_c, 0, 51, 57
1, 661328, Note_on_c, 0, 56, 81
1, 661341, Note_off_c, 0, 64, 59
1, 661345, Note_off_c, 0, 68, 52
1, 661349, Note_on_c, 0, 52, 74
1, 661395, Note_on_c, 0, 51, 81
1, 661396, Note_off_c, 0, 52, 64
1, 661406, Note_off_c, 0, 56, 63
1, 661420, Note_off_c, 0, 51, 69
1, 661521, Control_c, 0, 64, 75
1, 661532, Note_on_c, 0, 35, 85
1, 661536, Control_c, 0, 64, 52
1, 661540, Note_on_c, 0, 67, 80
1, 661551, Control_c, 0, 64, 52
1, 661555, Note_on_c, 0, 64, 61
1, 661566, Control_c, 0, 64, 65
1, 661580, Control_c, 0, 64, 83
1, 661592, Note_off_c, 0, 35, 62
1, 661595, Control_c, 0, 64, 127
1, 661674, Note_on_c, 0, 46, 65
1, 661705, Note_off_c, 0, 46, 65
1, 661721, Note_on_c, 0, 47, 62
1, 661766, Note_off_c, 0, 47, 63
1, 661768, Note_on_c, 0, 55, 78
1, 661778, Note_on_c, 0, 46, 70
1, 661799, Note_off_c, 0, 64, 58
1, 661804, Note_off_c, 0, 46, 66
1, 661877, Note_off_c, 0, 55, 59
1, 661888, Note_on_c, 0, 35, 69
1, 661894, Note_off_c, 0, 67, 34
1, 661943, Control_c, 0, 64, 80
1, 661945, Note_on_c, 0, 34, 91
1, 661954, Note_off_c, 0, 35, 61
1, 661958, Control_c, 0, 64, 52
1, 661959, Note_on_c, 0, 67, 90
1, 661965, Note_on_c, 0, 61, 90
1, 661967, Note_on_c, 0, 64, 75
1, 661973, Control_c, 0, 64, 0
1, 661987, Control_c, 0, 64, 49
1, 662002, Control_c, 0, 64, 62
1, 662004, Note_off_c, 0, 34, 63
1, 662017, Control_c, 0, 64, 76
1, 662032, Control_c, 0, 64, 127
1, 662053, Note_on_c, 0, 46, 78
1, 662092, Note_off_c, 0, 46, 0
1, 662129, Poly_aftertouch_c, 0, 46, 127
1, 662163, Poly_aftertouch_c, 0, 46, 0
1, 662165, Note_on_c, 0, 55, 93
1, 662170, Note_on_c, 0, 45, 63
1, 662202, Note_off_c, 0, 45, 64
1, 662219, Note_off_c, 0, 67, 58
1, 662219, Note_on_c, 0, 46, 61
1, 662232, Note_off_c, 0, 55, 59
1, 662252, Note_off_c, 0, 46, 65
1, 662257, Note_off_c, 0, 61, 60
1, 662257, Note_off_c, 0, 64, 61
1, 662289, Note_on_c, 0, 34, 76
1, 662329, Control_c, 0, 64, 108
1, 662344, Control_c, 0, 64, 65
1, 662345, Note_on_c, 0, 33, 67
1, 662350, Note_on_c, 0, 31, 66
1, 662353, Note_on_c, 0, 67, 101
1, 662358, Note_on_c, 0, 60, 100
1, 662359, Control_c, 0, 64, 0
1, 662362, Note_on_c, 0, 64, 86
1, 662362, Note_off_c, 0, 34, 60
1, 662378, Note_off_c, 0, 31, 56
1, 662389, Control_c, 0, 64, 56
1, 662391, Note_off_c, 0, 33, 63
1, 662403, Control_c, 0, 64, 72
1, 662418, Control_c, 0, 64, 127
1, 662446, Note_on_c, 0, 44, 76
1, 662486, Note_off_c, 0, 44, 57
1, 662513, Note_on_c, 0, 45, 79
1, 662550, Poly_aftertouch_c, 0, 44, 127
1, 662579, Note_on_c, 0, 55, 102
1, 662586, Poly_aftertouch_c, 0, 44, 0
1, 662608, Note_off_c, 0, 60, 61
1, 662633, Note_off_c, 0, 67, 61
1, 662657, Note_off_c, 0, 45, 56
1, 662658, Note_on_c, 0, 33, 85
1, 662660, Note_off_c, 0, 64, 47
1, 662668, Note_off_c, 0, 55, 60
1, 662686, Note_off_c, 0, 33, 68
1, 662756, Note_on_c, 0, 31, 85
1, 662760, Note_on_c, 0, 59, 105
1, 662762, Note_on_c, 0, 67, 95
1, 662765, Control_c, 0, 64, 76
1, 662768, Note_on_c, 0, 64, 86
1, 662780, Control_c, 0, 64, 0
1, 662830, Note_off_c, 0, 31, 62
1, 662839, Control_c, 0, 64, 53
1, 662845, Note_on_c, 0, 42, 74
1, 662853, Control_c, 0, 64, 80
1, 662868, Control_c, 0, 64, 127
1, 662899, Poly_aftertouch_c, 0, 36, 127
1, 662907, Note_on_c, 0, 43, 82
1, 662914, Note_off_c, 0, 42, 64
1, 662927, Note_off_c, 0, 59, 59
1, 662939, Poly_aftertouch_c, 0, 36, 0
1, 662947, Note_off_c, 0, 64, 57
1, 662953, Note_off_c, 0, 67, 0
1, 662959, Note_off_c, 0, 43, 63
1, 662968, Note_on_c, 0, 42, 67
1, 662973, Poly_aftertouch_c, 0, 67, 0
1, 662979, Note_on_c, 0, 55, 101
1, 663019, Note_on_c, 0, 64, 29
1, 663025, Note_on_c, 0, 43, 72
1, 663036, Note_off_c, 0, 42, 64
1, 663060, Note_off_c, 0, 64, 53
1, 663066, Note_off_c, 0, 55, 57
1, 663099, Note_off_c, 0, 43, 62
1, 663125, Note_on_c, 0, 31, 93
1, 663214, Note_off_c, 0, 31, 53
1, 663236, Note_on_c, 0, 34, 44
1, 663336, Poly_aftertouch_c, 0, 36, 127
1, 663336, Control_c, 0, 64, 69
1, 663338, Note_on_c, 0, 64, 71
1, 663340, Note_on_c, 0, 58, 120
1, 663340, Note_on_c, 0, 67, 96
1, 663344, Note_off_c, 0, 34, 0
1, 663345, Note_on_c, 0, 42, 108
1, 663349, Note_on_c, 0, 30, 96
1, 663351, Control_c, 0, 64, 0
1, 663372, Poly_aftertouch_c, 0, 36, 0
1, 663387, Note_on_c, 0, 65, 31
1, 663388, Note_off_c, 0, 65, 127
1, 663393, Poly_aftertouch_c, 0, 34, 0
1, 663425, Control_c, 0, 64, 72
1, 663439, Control_c, 0, 64, 127
1, 663450, Note_off_c, 0, 30, 65
1, 663465, Note_off_c, 0, 58, 65
1, 663483, Note_off_c, 0, 42, 64
1, 663486, Poly_aftertouch_c, 0, 62, 0
1, 663486, Note_off_c, 0, 64, 61
1, 663496, Note_off_c, 0, 67, 66
1, 663686, Note_on_c, 0, 88, 91
1, 663686, Note_on_c, 0, 89, 97
1, 663689, Note_on_c, 0, 76, 91
1, 663773, Note_off_c, 0, 89, 61
1, 663777, Note_off_c, 0, 88, 64
1, 663781, Note_on_c, 0, 91, 102
1, 663785, Note_off_c, 0, 76, 56
1, 663790, Note_on_c, 0, 79, 89
1, 663849, Note_on_c, 0, 90, 89
1, 663859, Note_on_c, 0, 78, 88
1, 663859, Note_off_c, 0, 79, 60
1, 663869, Note_off_c, 0, 91, 64
1, 663894, Note_off_c, 0, 90, 65
1, 663927, Note_on_c, 0, 79, 84
1, 663928, Note_on_c, 0, 91, 100
1, 663939, Note_off_c, 0, 78, 63
1, 663974, Note_off_c, 0, 79, 67
1, 663978, Note_on_c, 0, 76, 79
1, 663990, Note_on_c, 0, 88, 87
1, 664021, Note_off_c, 0, 91, 64
1, 664046, Note_off_c, 0, 76, 61
1, 664052, Note_off_c, 0, 88, 64
1, 664055, Note_on_c, 0, 79, 85
1, 664062, Note_on_c, 0, 91, 91
1, 664113, Note_on_c, 0, 88, 71
1, 664121, Note_on_c, 0, 76, 86
1, 664126, Note_off_c, 0, 79, 64
1, 664151, Note_off_c, 0, 91, 68
1, 664157, Note_on_c, 0, 75, 83
1, 664157, Note_on_c, 0, 87, 93
1, 664176, Note_off_c, 0, 88, 66
1, 664193, Note_off_c, 0, 76, 63
1, 664213, Note_off_c, 0, 75, 64
1, 664221, Note_on_c, 0, 79, 94
1, 664221, Note_on_c, 0, 91, 98
1, 664226, Note_off_c, 0, 87, 65
1, 664252, Note_on_c, 0, 90, 51
1, 664264, Note_on_c, 0, 87, 78
1, 664273, Note_off_c, 0, 90, 58
1, 664281, Note_on_c, 0, 75, 84
1, 664305, Note_on_c, 0, 86, 95
1, 664306, Note_off_c, 0, 79, 64
1, 664306, Note_off_c, 0, 91, 66
1, 664313, Note_on_c, 0, 74, 87
1, 664334, Note_off_c, 0, 87, 64
1, 664357, Note_off_c, 0, 75, 59
1, 664370, Note_on_c, 0, 91, 107
1, 664376, Note_off_c, 0, 86, 62
1, 664384, Note_off_c, 0, 74, 60
1, 664386, Note_on_c, 0, 79, 89
1, 664395, Control_c, 0, 64, 100
1, 664410, Control_c, 0, 64, 74
1, 664425, Control_c, 0, 64, 66
1, 664427, Note_on_c, 0, 86, 78
1, 664440, Control_c, 0, 64, 73
1, 664443, Note_off_c, 0, 79, 64
1, 664449, Note_off_c, 0, 91, 66
1, 664455, Control_c, 0, 64, 88
1, 664460, Note_on_c, 0, 74, 66
1, 664470, Note_on_c, 0, 85, 88
1, 664470, Control_c, 0, 64, 127
1, 664471, Note_on_c, 0, 73, 85
1, 664482, Note_off_c, 0, 86, 65
1, 664489, Note_off_c, 0, 74, 66
1, 664497, Note_off_c, 0, 73, 64
1, 664504, Note_off_c, 0, 85, 63
1, 664519, Note_on_c, 0, 72, 47
1, 664532, Note_on_c, 0, 88, 93
1, 664544, Note_off_c, 0, 72, 58
1, 664559, Note_on_c, 0, 76, 81
1, 664592, Note_on_c, 0, 82, 86
1, 664611, Note_off_c, 0, 88, 65
1, 664612, Note_off_c, 0, 76, 62
1, 664619, Control_c, 0, 64, 104
1, 664631, Note_on_c, 0, 71, 59
1, 664634, Control_c, 0, 64, 82
1, 664637, Note_on_c, 0, 81, 85
1, 664640, Note_off_c, 0, 82, 65
1, 664649, Control_c, 0, 64, 76
1, 664653, Note_off_c, 0, 71, 61
1, 664655, Note_on_c, 0, 69, 63
1, 664663, Control_c, 0, 64, 80
1, 664670, Note_off_c, 0, 81, 62
1, 664678, Control_c, 0, 64, 96
1, 664684, Note_off_c, 0, 69, 65
1, 664693, Control_c, 0, 64, 127
1, 664697, Note_on_c, 0, 82, 86
1, 664758, Note_on_c, 0, 79, 85
1, 664773, Note_on_c, 0, 67, 60
1, 664775, Note_on_c, 0, 80, 19
1, 664792, Note_off_c, 0, 82, 64
1, 664815, Note_off_c, 0, 80, 50
1, 664821, Note_on_c, 0, 78, 80
1, 664821, Note_off_c, 0, 79, 67
1, 664830, Note_off_c, 0, 67, 61
1, 664844, Note_off_c, 0, 78, 70
1, 664881, Note_on_c, 0, 79, 86
1, 664929, Note_on_c, 0, 76, 79
1, 664965, Note_off_c, 0, 79, 63
1, 664973, Note_on_c, 0, 75, 81
1, 664980, Note_off_c, 0, 76, 65
1, 664994, Note_off_c, 0, 75, 70
1, 665042, Control_c, 0, 64, 82
1, 665044, Note_on_c, 0, 76, 86
1, 665046, Note_on_c, 0, 64, 103
1, 665057, Control_c, 0, 64, 61
1, 665072, Control_c, 0, 64, 0
1, 665101, Control_c, 0, 64, 45
1, 665106, Note_on_c, 0, 70, 71
1, 665116, Control_c, 0, 64, 59
1, 665130, Control_c, 0, 64, 68
1, 665132, Note_off_c, 0, 76, 63
1, 665145, Control_c, 0, 64, 82
1, 665148, Note_off_c, 0, 70, 63
1, 665160, Control_c, 0, 64, 127
1, 665164, Note_on_c, 0, 69, 82
1, 665219, Note_off_c, 0, 64, 56
1, 665227, Note_on_c, 0, 70, 80
1, 665234, Note_off_c, 0, 69, 61
1, 665284, Note_on_c, 0, 67, 77
1, 665314, Note_off_c, 0, 70, 63
1, 665344, Note_off_c, 0, 67, 65
1, 665348, Note_on_c, 0, 66, 76
1, 665373, Note_off_c, 0, 66, 67
1, 665413, Note_on_c, 0, 67, 81
1, 665462, Note_on_c, 0, 64, 73
1, 665480, Note_off_c, 0, 67, 61
1, 665521, Note_off_c, 0, 64, 65
1, 665523, Note_on_c, 0, 63, 71
1, 665549, Note_off_c, 0, 63, 67
1, 665591, Note_on_c, 0, 64, 77
1, 665645, Note_on_c, 0, 58, 83
1, 665659, Note_off_c, 0, 64, 64
1, 665695, Note_off_c, 0, 58, 63
1, 665707, Note_on_c, 0, 57, 74
1, 665773, Note_on_c, 0, 58, 72
1, 665778, Note_off_c, 0, 57, 62
1, 665805, Control_c, 0, 64, 94
1, 665819, Control_c, 0, 64, 75
1, 665834, Control_c, 0, 64, 62
1, 665840, Note_on_c, 0, 55, 68
1, 665849, Control_c, 0, 64, 52
1, 665852, Note_off_c, 0, 58, 62
1, 665864, Control_c, 0, 64, 55
1, 665879, Control_c, 0, 64, 61
1, 665893, Control_c, 0, 64, 66
1, 665898, Note_off_c, 0, 55, 63
1, 665906, Note_on_c, 0, 54, 69
1, 665908, Control_c, 0, 64, 75
1, 665923, Control_c, 0, 64, 113
1, 665935, Note_off_c, 0, 54, 67
1, 665938, Control_c, 0, 64, 127
1, 665966, Note_on_c, 0, 55, 71
1, 666038, Note_on_c, 0, 51, 73
1, 666041, Note_off_c, 0, 55, 62
1, 666071, Note_off_c, 0, 51, 65
1, 666106, Note_on_c, 0, 52, 69
1, 666134, Note_off_c, 0, 52, 67
1, 666169, Note_on_c, 0, 54, 60
1, 666198, Note_off_c, 0, 54, 54
1, 666205, Control_c, 0, 64, 125
1, 666220, Note_on_c, 0, 53, 68
1, 666220, Control_c, 0, 64, 103
1, 666235, Control_c, 0, 64, 94
1, 666257, Control_c, 0, 64, 88
1, 666272, Control_c, 0, 64, 84
1, 666287, Control_c, 0, 64, 81
1, 666288, Note_off_c, 0, 53, 54
1, 666302, Control_c, 0, 64, 76
1, 666317, Control_c, 0, 64, 73
1, 666331, Control_c, 0, 64, 70
1, 666333, Note_on_c, 0, 57, 52
1, 666346, Control_c, 0, 64, 68
1, 666359, Note_off_c, 0, 57, 57
1, 666361, Control_c, 0, 64, 66
1, 666375, Control_c, 0, 64, 64
1, 666390, Control_c, 0, 64, 62
1, 666403, Note_on_c, 0, 62, 38
1, 666405, Control_c, 0, 64, 60
1, 666420, Control_c, 0, 64, 59
1, 666431, Note_off_c, 0, 62, 55
1, 666435, Control_c, 0, 64, 57
1, 666449, Control_c, 0, 64, 54
1, 666464, Control_c, 0, 64, 51
1, 666479, Control_c, 0, 64, 47
1, 666494, Control_c, 0, 64, 40
1, 666509, Control_c, 0, 64, 30
1, 666512, Note_on_c, 0, 64, 25
1, 666524, Control_c, 0, 64, 12
1, 666538, Control_c, 0, 64, 0
1, 666545, Note_off_c, 0, 64, 52
1, 666559, Note_on_c, 0, 66, 52
1, 666589, Note_on_c, 0, 63, 13
1, 666640, Note_off_c, 0, 63, 27
1, 666718, Note_on_c, 0, 35, 29
1, 666727, Note_off_c, 0, 66, 42
1, 666747, Note_on_c, 0, 67, 46
1, 666767, Note_on_c, 0, 64, 36
1, 666805, Control_c, 0, 64, 28
1, 666820, Control_c, 0, 64, 46
1, 666835, Control_c, 0, 64, 59
1, 666849, Control_c, 0, 64, 64
1, 666864, Control_c, 0, 64, 69
1, 666868, Note_off_c, 0, 35, 53
1, 666879, Control_c, 0, 64, 75
1, 666893, Control_c, 0, 64, 85
1, 666908, Control_c, 0, 64, 107
1, 666923, Control_c, 0, 64, 127
1, 667019, Note_on_c, 0, 46, 28
1, 667057, Note_off_c, 0, 46, 49
1, 667072, Note_on_c, 0, 47, 46
1, 667105, Note_off_c, 0, 47, 61
1, 667167, Note_on_c, 0, 46, 23
1, 667203, Note_on_c, 0, 47, 49
1, 667235, Note_off_c, 0, 47, 60
1, 667237, Note_off_c, 0, 46, 0
1, 667251, Note_on_c, 0, 46, 41
1, 667294, Note_off_c, 0, 46, 62
1, 667338, Note_on_c, 0, 47, 37
1, 667363, Note_off_c, 0, 47, 57
1, 667371, Note_on_c, 0, 35, 63
1, 667382, Note_off_c, 0, 64, 38
1, 667413, Note_off_c, 0, 35, 56
1, 667463, Note_on_c, 0, 44, 56
1, 667499, Note_off_c, 0, 44, 46
1, 667529, Note_on_c, 0, 47, 53
1, 667573, Note_off_c, 0, 47, 61
1, 667600, Note_on_c, 0, 35, 68
1, 667641, Note_off_c, 0, 35, 60
1, 667671, Note_on_c, 0, 66, 71
1, 667682, Note_off_c, 0, 67, 51
1, 667688, Note_on_c, 0, 47, 58
1, 667695, Note_on_c, 0, 63, 49
1, 667747, Note_off_c, 0, 63, 57
1, 667756, Note_off_c, 0, 47, 50
1, 667790, Note_on_c, 0, 36, 64
1, 667808, Note_on_c, 0, 67, 74
1, 667829, Control_c, 0, 64, 101
1, 667831, Note_off_c, 0, 66, 62
1, 667835, Note_on_c, 0, 64, 64
1, 667844, Control_c, 0, 64, 72
1, 667859, Control_c, 0, 64, 50
1, 667874, Control_c, 0, 64, 0
1, 667903, Control_c, 0, 64, 11
1, 667918, Control_c, 0, 64, 41
1, 667933, Control_c, 0, 64, 58
1, 667937, Note_on_c, 0, 46, 53
1, 667947, Control_c, 0, 64, 67
1, 667962, Control_c, 0, 64, 78
1, 667966, Note_off_c, 0, 36, 56
1, 667977, Control_c, 0, 64, 127
1, 667981, Note_off_c, 0, 46, 63
1, 668008, Note_on_c, 0, 47, 59
1, 668051, Note_off_c, 0, 47, 62
1, 668068, Note_on_c, 0, 46, 70
1, 668126, Note_off_c, 0, 46, 58
1, 668133, Note_on_c, 0, 47, 73
1, 668190, Note_off_c, 0, 47, 60
1, 668202, Note_on_c, 0, 46, 72
1, 668208, Note_off_c, 0, 64, 53
1, 668279, Note_off_c, 0, 46, 63
1, 668283, Note_on_c, 0, 47, 72
1, 668318, Note_on_c, 0, 36, 78
1, 668323, Note_off_c, 0, 47, 63
1, 668399, Note_on_c, 0, 46, 76
1, 668404, Note_off_c, 0, 36, 60
1, 668443, Note_on_c, 0, 47, 69
1, 668477, Note_off_c, 0, 46, 57
1, 668494, Note_off_c, 0, 47, 60
1, 668497, Note_on_c, 0, 36, 78
1, 668539, Note_off_c, 0, 67, 53
1, 668553, Note_off_c, 0, 36, 61
1, 668570, Note_on_c, 0, 47, 79
1, 668571, Note_on_c, 0, 66, 88
1, 668577, Note_on_c, 0, 63, 89
1, 668620, Note_off_c, 0, 63, 65
1, 668626, Note_off_c, 0, 66, 65
1, 668651, Note_off_c, 0, 47, 51
1, 668676, Note_on_c, 0, 37, 92
1, 668682, Control_c, 0, 64, 65
1, 668685, Note_on_c, 0, 67, 97
1, 668686, Note_on_c, 0, 64, 105
1, 668697, Control_c, 0, 64, 0
1, 668756, Control_c, 0, 64, 51
1, 668765, Note_off_c, 0, 64, 64
1, 668771, Control_c, 0, 64, 75
1, 668774, Note_on_c, 0, 46, 73
1, 668785, Note_off_c, 0, 67, 66
1, 668786, Control_c, 0, 64, 127
1, 668795, Note_off_c, 0, 37, 62
1, 668828, Note_off_c, 0, 46, 64
1, 668917, Poly_aftertouch_c, 0, 47, 0
1, 668919, Note_on_c, 0, 49, 89
1, 668944, Note_on_c, 0, 66, 43
1, 668957, Note_on_c, 0, 75, 31
1, 668968, Note_off_c, 0, 66, 56
1, 668983, Note_on_c, 0, 58, 81
1, 668988, Note_off_c, 0, 75, 45
1, 669013, Note_off_c, 0, 49, 62
1, 669033, Note_on_c, 0, 66, 97
1, 669036, Note_on_c, 0, 78, 84
1, 669039, Note_on_c, 0, 59, 79
1, 669039, Note_on_c, 0, 75, 94
1, 669060, Note_off_c, 0, 58, 62
1, 669064, Note_off_c, 0, 78, 66
1, 669069, Note_off_c, 0, 66, 67
1, 669072, Note_off_c, 0, 59, 64
1, 669087, Note_off_c, 0, 75, 62
1, 669138, Note_on_c, 0, 76, 92
1, 669138, Note_on_c, 0, 79, 101
1, 669139, Note_on_c, 0, 67, 105
1, 669147, Note_on_c, 0, 55, 78
1, 669174, Note_off_c, 0, 55, 66
1, 669223, Note_off_c, 0, 67, 61
1, 669251, Poly_aftertouch_c, 0, 73, 0
1, 669258, Note_off_c, 0, 79, 63
1, 669276, Note_off_c, 0, 76, 60
1, 669281, Note_on_c, 0, 65, 68
1, 669318, Note_off_c, 0, 65, 61
1, 669340, Note_on_c, 0, 67, 77
1, 669391, Note_off_c, 0, 67, 60
1, 669393, Note_on_c, 0, 66, 82
1, 669456, Note_on_c, 0, 67, 79
1, 669463, Note_off_c, 0, 66, 59
1, 669510, Note_on_c, 0, 78, 102
1, 669511, Note_on_c, 0, 90, 95
1, 669513, Note_on_c, 0, 87, 93
1, 669532, Note_on_c, 0, 64, 81
1, 669555, Note_off_c, 0, 90, 64
1, 669569, Note_off_c, 0, 67, 52
1, 669569, Note_off_c, 0, 78, 60
1, 669603, Note_off_c, 0, 87, 62
1, 669640, Note_on_c, 0, 79, 106
1, 669641, Note_on_c, 0, 88, 88
1, 669642, Note_on_c, 0, 91, 105
1, 669644, Note_on_c, 0, 76, 101
1, 669686, Note_off_c, 0, 64, 54
1, 669694, Note_off_c, 0, 76, 58
1, 669731, Note_on_c, 0, 67, 66
1, 669794, Note_on_c, 0, 64, 81
1, 669806, Note_off_c, 0, 67, 63
1, 669817, Note_off_c, 0, 91, 54
1, 669864, Note_on_c, 0, 66, 78
1, 669865, Note_off_c, 0, 79, 51
1, 669877, Note_off_c, 0, 64, 61
1, 669883, Note_off_c, 0, 88, 62
1, 669906, Note_off_c, 0, 66, 64
1, 669920, Note_on_c, 0, 67, 78
1, 669964, Note_off_c, 0, 67, 56
1, 669978, Note_on_c, 0, 64, 82
1, 670043, Note_off_c, 0, 64, 64
1, 670053, Note_on_c, 0, 67, 77
1, 670117, Note_off_c, 0, 67, 62
1, 670119, Note_on_c, 0, 64, 76
1, 670163, Note_off_c, 0, 64, 62
1, 670169, Note_on_c, 0, 55, 76
1, 670200, Note_off_c, 0, 55, 61
1, 670289, Note_on_c, 0, 53, 55
1, 670295, Note_on_c, 0, 54, 26
1, 670325, Note_on_c, 0, 55, 68
1, 670332, Note_off_c, 0, 53, 63
1, 670334, Note_off_c, 0, 54, 56
1, 670394, Note_on_c, 0, 52, 77
1, 670403, Note_off_c, 0, 55, 62
1, 670435, Note_off_c, 0, 52, 64
1, 670452, Note_on_c, 0, 66, 85
1, 670455, Note_on_c, 0, 58, 78
1, 670460, Note_on_c, 0, 54, 76
1, 670583, Note_off_c, 0, 54, 62
1, 670601, Note_off_c, 0, 66, 60
1, 670634, Note_off_c, 0, 58, 62
1, 670634, Note_on_c, 0, 38, 69
1, 670685, Note_on_c, 0, 59, 71
1, 670686, Note_on_c, 0, 67, 83
1, 670698, Note_on_c, 0, 55, 73
1, 670712, Control_c, 0, 64, 96
1, 670727, Control_c, 0, 64, 66
1, 670749, Control_c, 0, 64, 0
1, 670853, Control_c, 0, 64, 33
1, 670859, Note_on_c, 0, 46, 55
1, 670868, Control_c, 0, 64, 62
1, 670883, Control_c, 0, 64, 73
1, 670897, Control_c, 0, 64, 101
1, 670908, Note_off_c, 0, 46, 62
1, 670912, Control_c, 0, 64, 127
1, 670932, Note_on_c, 0, 47, 67
1, 670979, Note_off_c, 0, 47, 59
1, 671000, Note_on_c, 0, 46, 72
1, 671026, Note_off_c, 0, 38, 27
1, 671046, Note_off_c, 0, 46, 58
1, 671061, Note_on_c, 0, 47, 73
1, 671111, Note_off_c, 0, 47, 60
1, 671117, Note_on_c, 0, 46, 76
1, 671180, Note_off_c, 0, 55, 25
1, 671192, Note_off_c, 0, 67, 55
1, 671195, Note_on_c, 0, 47, 80
1, 671198, Note_off_c, 0, 46, 63
1, 671253, Note_on_c, 0, 38, 80
1, 671257, Note_off_c, 0, 47, 63
1, 671283, Note_off_c, 0, 59, 55
1, 671324, Note_on_c, 0, 46, 75
1, 671338, Note_off_c, 0, 38, 62
1, 671368, Note_on_c, 0, 47, 75
1, 671408, Note_off_c, 0, 46, 58
1, 671424, Note_on_c, 0, 38, 84
1, 671429, Note_off_c, 0, 47, 64
1, 671505, Note_off_c, 0, 38, 66
1, 671511, Note_on_c, 0, 47, 86
1, 671514, Note_on_c, 0, 66, 93
1, 671515, Note_on_c, 0, 54, 95
1, 671517, Note_on_c, 0, 58, 86
1, 671574, Poly_aftertouch_c, 0, 43, 127
1, 671591, Note_off_c, 0, 54, 64
1, 671609, Note_off_c, 0, 66, 61
1, 671638, Note_off_c, 0, 58, 61
1, 671646, Note_on_c, 0, 39, 95
1, 671680, Note_off_c, 0, 47, 61
1, 671683, Note_on_c, 0, 59, 89
1, 671683, Note_on_c, 0, 67, 98
1, 671684, Note_on_c, 0, 55, 99
1, 671706, Control_c, 0, 64, 95
1, 671720, Control_c, 0, 64, 61
1, 671725, Poly_aftertouch_c, 0, 43, 0
1, 671735, Control_c, 0, 64, 0
1, 671810, Control_c, 0, 64, 48
1, 671820, Note_on_c, 0, 46, 71
1, 671825, Control_c, 0, 64, 68
1, 671840, Control_c, 0, 64, 98
1, 671852, Note_off_c, 0, 39, 60
1, 671855, Control_c, 0, 64, 127
1, 671887, Note_on_c, 0, 47, 81
1, 671888, Note_off_c, 0, 46, 63
1, 671949, Note_off_c, 0, 47, 54
1, 671954, Note_on_c, 0, 46, 78
1, 672021, Note_off_c, 0, 46, 62
1, 672025, Note_on_c, 0, 47, 79
1, 672078, Note_on_c, 0, 46, 81
1, 672085, Note_off_c, 0, 47, 59
1, 672106, Note_off_c, 0, 55, 24
1, 672159, Note_on_c, 0, 47, 79
1, 672166, Note_off_c, 0, 46, 59
1, 672174, Note_off_c, 0, 67, 53
1, 672221, Note_on_c, 0, 39, 88
1, 672242, Note_off_c, 0, 47, 62
1, 672295, Note_off_c, 0, 59, 55
1, 672298, Note_on_c, 0, 46, 73
1, 672336, Note_off_c, 0, 39, 61
1, 672353, Note_on_c, 0, 47, 79
1, 672378, Note_off_c, 0, 46, 58
1, 672414, Note_off_c, 0, 47, 60
1, 672419, Note_on_c, 0, 39, 88
1, 672505, Note_on_c, 0, 47, 82
1, 672509, Note_on_c, 0, 66, 91
1, 672513, Note_on_c, 0, 54, 95
1, 672513, Note_on_c, 0, 58, 84
1, 672524, Note_off_c, 0, 39, 60
1, 672627, Note_off_c, 0, 66, 59
1, 672628, Note_off_c, 0, 54, 62
1, 672639, Note_off_c, 0, 47, 50
1, 672641, Note_off_c, 0, 58, 60
1, 672656, Note_on_c, 0, 40, 77
1, 672679, Control_c, 0, 64, 77
1, 672693, Control_c, 0, 64, 36
1, 672699, Note_on_c, 0, 55, 92
1, 672700, Note_on_c, 0, 59, 84
1, 672700, Note_on_c, 0, 67, 91
1, 672708, Control_c, 0, 64, 0
1, 672748, Note_off_c, 0, 55, 62
1, 672753, Control_c, 0, 64, 39
1, 672767, Control_c, 0, 64, 66
1, 672775, Note_on_c, 0, 46, 77
1, 672776, Note_off_c, 0, 59, 64
1, 672782, Control_c, 0, 64, 99
1, 672789, Note_off_c, 0, 67, 66
1, 672797, Control_c, 0, 64, 127
1, 672813, Note_off_c, 0, 40, 61
1, 672859, Note_on_c, 0, 47, 72
1, 672882, Note_off_c, 0, 46, 63
1, 672897, Note_on_c, 0, 66, 97
1, 672897, Note_off_c, 0, 47, 63
1, 672898, Note_on_c, 0, 78, 96
1, 672901, Note_on_c, 0, 75, 85
1, 672912, Note_on_c, 0, 52, 76
1, 672941, Note_off_c, 0, 52, 67
1, 672943, Note_off_c, 0, 66, 61
1, 672945, Note_off_c, 0, 78, 62
1, 672994, Note_off_c, 0, 75, 60
1, 673017, Note_on_c, 0, 58, 81
1, 673043, Note_on_c, 0, 76, 87
1, 673044, Note_on_c, 0, 67, 98
1, 673046, Note_on_c, 0, 79, 99
1, 673072, Note_on_c, 0, 59, 77
1, 673091, Note_off_c, 0, 67, 59
1, 673095, Note_off_c, 0, 79, 64
1, 673099, Note_off_c, 0, 58, 62
1, 673119, Note_off_c, 0, 76, 62
1, 673135, Note_off_c, 0, 59, 61
1, 673147, Note_on_c, 0, 55, 84
1, 673170, Note_on_c, 0, 79, 99
1, 673170, Note_off_c, 0, 55, 67
1, 673171, Note_on_c, 0, 67, 102
1, 673177, Note_on_c, 0, 76, 87
1, 673201, Note_off_c, 0, 67, 65
1, 673207, Note_on_c, 0, 75, 23
1, 673208, Note_off_c, 0, 75, 127
1, 673219, Note_off_c, 0, 79, 70
1, 673222, Note_off_c, 0, 76, 66
1, 673251, Note_on_c, 0, 64, 76
1, 673306, Note_off_c, 0, 64, 62
1, 673314, Note_on_c, 0, 78, 111
1, 673316, Note_on_c, 0, 90, 102
1, 673320, Note_on_c, 0, 87, 99
1, 673325, Note_on_c, 0, 67, 72
1, 673367, Note_off_c, 0, 78, 58
1, 673371, Note_off_c, 0, 67, 61
1, 673371, Note_off_c, 0, 90, 62
1, 673377, Note_on_c, 0, 66, 77
1, 673409, Note_off_c, 0, 87, 63
1, 673442, Note_on_c, 0, 67, 77
1, 673445, Note_off_c, 0, 66, 61
1, 673451, Note_on_c, 0, 79, 110
1, 673451, Note_on_c, 0, 88, 93
1, 673453, Note_on_c, 0, 91, 107
1, 673523, Note_on_c, 0, 64, 87
1, 673528, Note_off_c, 0, 79, 61
1, 673528, Note_off_c, 0, 91, 62
1, 673560, Note_off_c, 0, 88, 64
1, 673569, Note_off_c, 0, 67, 60
1, 673611, Note_on_c, 0, 91, 111
1, 673612, Note_on_c, 0, 79, 111
1, 673613, Note_on_c, 0, 88, 85
1, 673627, Note_on_c, 0, 76, 109
1, 673691, Note_off_c, 0, 76, 59
1, 673706, Note_off_c, 0, 64, 59
1, 673719, Note_on_c, 0, 67, 70
1, 673803, Note_on_c, 0, 64, 81
1, 673818, Note_off_c, 0, 67, 64
1, 673866, Note_off_c, 0, 91, 51
1, 673869, Note_on_c, 0, 66, 81
1, 673888, Note_off_c, 0, 64, 61
1, 673911, Note_off_c, 0, 66, 65
1, 673925, Note_off_c, 0, 88, 58
1, 673932, Note_on_c, 0, 67, 74
1, 673936, Note_off_c, 0, 79, 52
1, 673966, Note_off_c, 0, 67, 60
1, 673985, Note_on_c, 0, 64, 83
1, 674048, Note_off_c, 0, 64, 63
1, 674054, Note_on_c, 0, 67, 83
1, 674119, Note_off_c, 0, 67, 65
1, 674121, Note_on_c, 0, 64, 78
1, 674170, Note_off_c, 0, 64, 65
1, 674171, Note_on_c, 0, 55, 80
1, 674194, Note_off_c, 0, 55, 69
1, 674268, Note_on_c, 0, 54, 66
1, 674295, Note_on_c, 0, 55, 81
1, 674309, Note_off_c, 0, 54, 64
1, 674350, Note_on_c, 0, 52, 82
1, 674361, Note_off_c, 0, 55, 64
1, 674374, Note_off_c, 0, 52, 68
1, 674504, Note_on_c, 0, 36, 71
1, 674537, Control_c, 0, 64, 91
1, 674547, Note_on_c, 0, 37, 23
1, 674552, Control_c, 0, 64, 33
1, 674557, Note_off_c, 0, 36, 62
1, 674567, Control_c, 0, 64, 0
1, 674572, Note_on_c, 0, 43, 66
1, 674572, Note_on_c, 0, 55, 106
1, 674572, Note_on_c, 0, 67, 100
1, 674573, Note_on_c, 0, 60, 81
1, 674576, Note_on_c, 0, 64, 87
1, 674581, Note_on_c, 0, 52, 111
1, 674595, Note_off_c, 0, 37, 45
1, 674602, Poly_aftertouch_c, 0, 35, 0
1, 674615, Note_on_c, 0, 44, 36
1, 674616, Note_off_c, 0, 44, 127
1, 674626, Note_off_c, 0, 43, 59
1, 674626, Control_c, 0, 64, 45
1, 674641, Control_c, 0, 64, 76
1, 674647, Note_off_c, 0, 52, 63
1, 674650, Note_off_c, 0, 55, 63
1, 674656, Control_c, 0, 64, 127
1, 674682, Note_off_c, 0, 60, 63
1, 674687, Note_off_c, 0, 67, 63
1, 674699, Note_off_c, 0, 64, 63
1, 674909, Note_on_c, 0, 78, 102
1, 674909, Note_on_c, 0, 90, 98
1, 674911, Note_on_c, 0, 87, 94
1, 674924, Note_on_c, 0, 66, 88
1, 674928, Note_on_c, 0, 63, 76
1, 674994, Note_off_c, 0, 78, 62
1, 675005, Note_off_c, 0, 90, 62
1, 675012, Note_off_c, 0, 63, 56
1, 675015, Note_off_c, 0, 87, 63
1, 675044, Note_off_c, 0, 66, 53
1, 675061, Note_on_c, 0, 88, 96
1, 675062, Note_on_c, 0, 64, 78
1, 675062, Note_on_c, 0, 67, 89
1, 675064, Note_on_c, 0, 91, 103
1, 675064, Note_on_c, 0, 79, 101
1, 675106, Note_off_c, 0, 67, 65
1, 675110, Note_off_c, 0, 79, 67
1, 675115, Note_off_c, 0, 64, 63
1, 675118, Note_off_c, 0, 91, 63
1, 675127, Note_off_c, 0, 88, 63
1, 675186, Note_on_c, 0, 91, 105
1, 675192, Note_on_c, 0, 79, 96
1, 675193, Note_on_c, 0, 67, 88
1, 675270, Note_on_c, 0, 65, 3
1, 675279, Note_on_c, 0, 88, 89
1, 675285, Note_on_c, 0, 64, 88
1, 675290, Note_off_c, 0, 79, 63
1, 675301, Note_off_c, 0, 91, 64
1, 675302, Note_off_c, 0, 67, 61
1, 675311, Note_off_c, 0, 65, 52
1, 675335, Note_on_c, 0, 87, 83
1, 675345, Note_on_c, 0, 63, 82
1, 675354, Note_off_c, 0, 88, 61
1, 675371, Note_off_c, 0, 64, 63
1, 675378, Note_off_c, 0, 87, 64
1, 675407, Note_on_c, 0, 91, 97
1, 675411, Note_on_c, 0, 79, 93
1, 675414, Note_on_c, 0, 67, 91
1, 675418, Note_off_c, 0, 63, 63
1, 675470, Note_on_c, 0, 87, 92
1, 675484, Note_on_c, 0, 63, 77
1, 675488, Note_off_c, 0, 79, 56
1, 675501, Note_off_c, 0, 91, 62
1, 675514, Note_off_c, 0, 67, 60
1, 675522, Note_on_c, 0, 86, 84
1, 675525, Note_on_c, 0, 62, 76
1, 675541, Note_off_c, 0, 87, 62
1, 675567, Note_off_c, 0, 63, 61
1, 675585, Note_on_c, 0, 91, 106
1, 675588, Note_on_c, 0, 79, 98
1, 675591, Note_on_c, 0, 67, 93
1, 675606, Note_off_c, 0, 62, 62
1, 675607, Note_off_c, 0, 86, 66
1, 675621, Note_on_c, 0, 81, 42
1, 675622, Note_off_c, 0, 81, 127
1, 675642, Note_off_c, 0, 79, 64
1, 675645, Note_on_c, 0, 86, 82
1, 675665, Note_on_c, 0, 62, 76
1, 675686, Note_off_c, 0, 91, 55
1, 675688, Note_off_c, 0, 67, 59
1, 675695, Note_on_c, 0, 85, 90
1, 675699, Note_on_c, 0, 61, 81
1, 675726, Note_off_c, 0, 86, 64
1, 675729, Note_off_c, 0, 62, 65
1, 675758, Note_off_c, 0, 61, 65
1, 675761, Note_off_c, 0, 85, 66
1, 675773, Note_on_c, 0, 67, 90
1, 675774, Note_on_c, 0, 79, 81
1, 675785, Note_on_c, 0, 77, 98
1, 675802, Note_off_c, 0, 77, 69
1, 675812, Note_off_c, 0, 79, 61
1, 675836, Note_on_c, 0, 73, 95
1, 675841, Note_on_c, 0, 61, 80
1, 675863, Note_off_c, 0, 67, 62
1, 675877, Note_on_c, 0, 60, 81
1, 675881, Note_off_c, 0, 73, 67
1, 675883, Note_on_c, 0, 72, 69
1, 675899, Note_on_c, 0, 71, 46
1, 675900, Note_off_c, 0, 71, 127
1, 675917, Note_off_c, 0, 61, 54
1, 675922, Note_on_c, 0, 79, 95
1, 675939, Note_on_c, 0, 67, 90
1, 675940, Note_off_c, 0, 72, 64
1, 675955, Note_off_c, 0, 60, 63
1, 675999, Note_on_c, 0, 72, 78
1, 676004, Note_off_c, 0, 67, 65
1, 676006, Note_on_c, 0, 74, 71
1, 676015, Note_on_c, 0, 60, 65
1, 676023, Note_off_c, 0, 79, 59
1, 676024, Note_off_c, 0, 74, 60
1, 676038, Note_on_c, 0, 59, 88
1, 676049, Poly_aftertouch_c, 0, 61, 0
1, 676052, Note_on_c, 0, 71, 90
1, 676073, Note_off_c, 0, 60, 65
1, 676077, Note_off_c, 0, 72, 64
1, 676083, Note_off_c, 0, 59, 66
1, 676115, Note_off_c, 0, 71, 64
1, 676119, Note_on_c, 0, 67, 94
1, 676131, Note_on_c, 0, 55, 93
1, 676156, Note_off_c, 0, 67, 64
1, 676200, Note_off_c, 0, 55, 61
1, 676209, Note_on_c, 0, 60, 83
1, 676237, Note_on_c, 0, 47, 73
1, 676262, Note_off_c, 0, 47, 65
1, 676264, Note_off_c, 0, 60, 66
1, 676271, Note_on_c, 0, 59, 79
1, 676368, Note_on_c, 0, 57, 85
1, 676404, Note_off_c, 0, 59, 61
1, 676418, Note_on_c, 0, 55, 84
1, 676441, Note_off_c, 0, 55, 70
1, 676444, Note_off_c, 0, 57, 67
1, 676456, Note_on_c, 0, 36, 86
1, 676491, Note_on_c, 0, 37, 45
1, 676522, Note_off_c, 0, 36, 62
1, 676528, Note_off_c, 0, 37, 52
1, 676547, Note_on_c, 0, 43, 61
1, 676554, Control_c, 0, 64, 67
1, 676569, Control_c, 0, 64, 0
1, 676571, Note_on_c, 0, 52, 110
1, 676575, Note_on_c, 0, 61, 48
1, 676577, Note_on_c, 0, 67, 98
1, 676581, Note_on_c, 0, 55, 100
1, 676584, Note_on_c, 0, 64, 87
1, 676602, Note_on_c, 0, 42, 54
1, 676629, Note_on_c, 0, 57, 13
1, 676630, Note_off_c, 0, 57, 127
1, 676638, Note_off_c, 0, 42, 49
1, 676644, Control_c, 0, 64, 40
1, 676647, Note_off_c, 0, 52, 60
1, 676648, Note_off_c, 0, 43, 63
1, 676656, Note_off_c, 0, 55, 64
1, 676658, Control_c, 0, 64, 74
1, 676661, Note_off_c, 0, 61, 62
1, 676673, Control_c, 0, 64, 127
1, 676692, Note_off_c, 0, 67, 64
1, 676695, Note_off_c, 0, 64, 62
1, 676859, Note_on_c, 0, 78, 100
1, 676862, Note_on_c, 0, 90, 93
1, 676866, Note_on_c, 0, 87, 90
1, 676871, Note_on_c, 0, 66, 81
1, 676882, Note_on_c, 0, 63, 64
1, 676920, Note_off_c, 0, 63, 61
1, 676925, Note_off_c, 0, 78, 62
1, 676943, Note_off_c, 0, 90, 62
1, 676957, Note_off_c, 0, 66, 59
1, 676982, Note_off_c, 0, 87, 42
1, 676990, Note_on_c, 0, 88, 92
1, 676991, Note_on_c, 0, 91, 98
1, 676992, Note_on_c, 0, 64, 82
1, 676993, Note_on_c, 0, 79, 100
1, 676993, Note_on_c, 0, 67, 89
1, 677034, Note_off_c, 0, 67, 65
1, 677038, Note_off_c, 0, 91, 65
1, 677040, Note_off_c, 0, 79, 65
1, 677040, Note_off_c, 0, 64, 64
1, 677052, Note_off_c, 0, 88, 64
1, 677111, Note_on_c, 0, 91, 105
1, 677113, Note_on_c, 0, 79, 97
1, 677118, Note_on_c, 0, 67, 85
1, 677186, Note_on_c, 0, 88, 83
1, 677192, Note_on_c, 0, 64, 86
1, 677204, Note_off_c, 0, 79, 62
1, 677210, Note_off_c, 0, 67, 59
1, 677210, Note_off_c, 0, 91, 64
1, 677239, Note_on_c, 0, 63, 82
1, 677240, Note_on_c, 0, 87, 84
1, 677265, Note_off_c, 0, 88, 64
1, 677266, Note_off_c, 0, 64, 64
1, 677300, Note_off_c, 0, 87, 54
1, 677313, Note_on_c, 0, 67, 84
1, 677314, Note_on_c, 0, 91, 101
1, 677317, Note_on_c, 0, 79, 92
1, 677331, Note_off_c, 0, 63, 62
1, 677375, Note_on_c, 0, 87, 90
1, 677378, Note_on_c, 0, 63, 73
1, 677387, Note_off_c, 0, 79, 63
1, 677401, Note_off_c, 0, 67, 61
1, 677408, Note_on_c, 0, 88, 43
1, 677416, Note_on_c, 0, 62, 75
1, 677416, Note_off_c, 0, 91, 63
1, 677421, Note_on_c, 0, 86, 84
1, 677438, Note_off_c, 0, 88, 51
1, 677449, Note_off_c, 0, 87, 64
1, 677461, Note_off_c, 0, 63, 62
1, 677494, Note_on_c, 0, 79, 93
1, 677496, Note_on_c, 0, 67, 88
1, 677502, Note_off_c, 0, 86, 61
1, 677503, Note_on_c, 0, 91, 95
1, 677503, Note_off_c, 0, 62, 61
1, 677529, Note_on_c, 0, 89, 56
1, 677530, Note_off_c, 0, 89, 127
1, 677557, Note_on_c, 0, 86, 77
1, 677564, Note_on_c, 0, 61, 78
1, 677572, Note_off_c, 0, 79, 62
1, 677590, Note_off_c, 0, 67, 61
1, 677593, Note_off_c, 0, 91, 55
1, 677605, Note_on_c, 0, 85, 91
1, 677633, Note_off_c, 0, 86, 65
1, 677660, Note_off_c, 0, 85, 68
1, 677666, Note_off_c, 0, 61, 63
1, 677675, Note_on_c, 0, 79, 68
1, 677680, Note_on_c, 0, 67, 88
1, 677687, Note_on_c, 0, 81, 42
1, 677695, Note_off_c, 0, 79, 65
1, 677711, Note_off_c, 0, 81, 58
1, 677735, Note_on_c, 0, 61, 68
1, 677748, Note_on_c, 0, 73, 55
1, 677749, Note_off_c, 0, 73, 127
1, 677757, Note_off_c, 0, 67, 55
1, 677759, Note_on_c, 0, 74, 76
1, 677772, Note_on_c, 0, 60, 81
1, 677781, Note_on_c, 0, 72, 79
1, 677794, Note_off_c, 0, 74, 53
1, 677810, Note_off_c, 0, 61, 61
1, 677826, Note_off_c, 0, 72, 66
1, 677836, Note_on_c, 0, 79, 95
1, 677845, Note_on_c, 0, 67, 80
1, 677849, Note_off_c, 0, 60, 63
1, 677887, Note_off_c, 0, 67, 66
1, 677890, Note_on_c, 0, 72, 90
1, 677900, Note_on_c, 0, 60, 64
1, 677917, Note_off_c, 0, 79, 62
1, 677943, Note_on_c, 0, 71, 87
1, 677944, Note_on_c, 0, 59, 81
1, 677958, Note_off_c, 0, 72, 62
1, 677970, Note_off_c, 0, 60, 65
1, 677989, Note_off_c, 0, 59, 66
1, 678002, Note_off_c, 0, 71, 64
1, 678009, Note_on_c, 0, 67, 80
1, 678037, Note_on_c, 0, 55, 84
1, 678042, Note_off_c, 0, 67, 60
1, 678051, Control_c, 0, 64, 106
1, 678066, Control_c, 0, 64, 75
1, 678081, Control_c, 0, 64, 60
1, 678095, Control_c, 0, 64, 53
1, 678098, Note_on_c, 0, 60, 78
1, 678110, Control_c, 0, 64, 61
1, 678126, Control_c, 0, 64, 67
1, 678133, Note_off_c, 0, 55, 62
1, 678134, Note_on_c, 0, 47, 67
1, 678141, Note_off_c, 0, 60, 63
1, 678141, Control_c, 0, 64, 78
1, 678156, Control_c, 0, 64, 127
1, 678162, Note_on_c, 0, 59, 74
1, 678179, Note_on_c, 0, 45, 77
1, 678189, Note_off_c, 0, 47, 59
1, 678195, Note_off_c, 0, 59, 0
1, 678200, Control_c, 0, 64, 97
1, 678215, Control_c, 0, 64, 71
1, 678237, Control_c, 0, 64, 57
1, 678239, Poly_aftertouch_c, 0, 59, 127
1, 678243, Note_on_c, 0, 47, 54
1, 678267, Control_c, 0, 64, 65
1, 678269, Note_on_c, 0, 57, 78
1, 678275, Note_off_c, 0, 45, 0
1, 678282, Control_c, 0, 64, 73
1, 678289, Note_on_c, 0, 45, 39
1, 678297, Control_c, 0, 64, 93
1, 678301, Poly_aftertouch_c, 0, 59, 0
1, 678311, Control_c, 0, 64, 127
1, 678325, Note_off_c, 0, 47, 60
1, 678330, Note_on_c, 0, 43, 65
1, 678332, Note_on_c, 0, 55, 72
1, 678340, Note_off_c, 0, 45, 63
1, 678340, Note_off_c, 0, 57, 60
1, 678358, Note_off_c, 0, 55, 66
1, 678360, Note_off_c, 0, 43, 64
1, 678444, Control_c, 0, 64, 122
1, 678459, Control_c, 0, 64, 91
1, 678471, Note_on_c, 0, 67, 66
1, 678474, Control_c, 0, 64, 77
1, 678482, Note_on_c, 0, 64, 56
1, 678489, Control_c, 0, 64, 69
1, 678502, Note_off_c, 0, 64, 61
1, 678502, Note_off_c, 0, 67, 64
1, 678504, Control_c, 0, 64, 64
1, 678519, Control_c, 0, 64, 61
1, 678534, Control_c, 0, 64, 57
1, 678549, Control_c, 0, 64, 54
1, 678563, Control_c, 0, 64, 53
1, 678569, Note_on_c, 0, 62, 57
1, 678578, Control_c, 0, 64, 55
1, 678593, Control_c, 0, 64, 58
1, 678599, Note_off_c, 0, 62, 65
1, 678608, Control_c, 0, 64, 59
1, 678610, Note_on_c, 0, 63, 61
1, 678637, Control_c, 0, 64, 57
1, 678644, Note_off_c, 0, 63, 64
1, 678652, Control_c, 0, 64, 55
1, 678667, Note_on_c, 0, 67, 63
1, 678667, Control_c, 0, 64, 52
1, 678679, Note_on_c, 0, 64, 37
1, 678689, Note_off_c, 0, 67, 64
1, 678696, Control_c, 0, 64, 57
1, 678710, Note_off_c, 0, 64, 33
1, 678711, Control_c, 0, 64, 61
1, 678718, Note_on_c, 0, 61, 54
1, 678726, Control_c, 0, 64, 63
1, 678741, Control_c, 0, 64, 64
1, 678753, Note_on_c, 0, 62, 67
1, 678756, Control_c, 0, 64, 62
1, 678758, Note_off_c, 0, 61, 62
1, 678771, Control_c, 0, 64, 59
1, 678784, Note_off_c, 0, 62, 66
1, 678785, Control_c, 0, 64, 55
1, 678800, Control_c, 0, 64, 52
1, 678815, Control_c, 0, 64, 55
1, 678817, Note_on_c, 0, 64, 69
1, 678817, Note_on_c, 0, 67, 67
1, 678829, Control_c, 0, 64, 60
1, 678842, Note_off_c, 0, 64, 67
1, 678844, Control_c, 0, 64, 63
1, 678847, Note_off_c, 0, 67, 65
1, 678859, Control_c, 0, 64, 64
1, 678872, Note_on_c, 0, 60, 73
1, 678874, Control_c, 0, 64, 63
1, 678889, Control_c, 0, 64, 60
1, 678903, Control_c, 0, 64, 56
1, 678918, Note_on_c, 0, 61, 76
1, 678918, Control_c, 0, 64, 57
1, 678930, Note_off_c, 0, 60, 64
1, 678934, Control_c, 0, 64, 59
1, 678949, Control_c, 0, 64, 62
1, 678964, Control_c, 0, 64, 64
1, 678969, Note_off_c, 0, 61, 61
1, 678987, Control_c, 0, 64, 65
1, 678994, Note_on_c, 0, 67, 78
1, 678999, Note_on_c, 0, 64, 65
1, 679002, Control_c, 0, 64, 64
1, 679016, Control_c, 0, 64, 62
1, 679019, Note_off_c, 0, 67, 66
1, 679028, Note_off_c, 0, 64, 66
1, 679031, Control_c, 0, 64, 58
1, 679040, Note_on_c, 0, 59, 82
1, 679046, Control_c, 0, 64, 56
1, 679060, Control_c, 0, 64, 60
1, 679075, Control_c, 0, 64, 64
1, 679090, Control_c, 0, 64, 70
1, 679094, Note_on_c, 0, 60, 78
1, 679105, Control_c, 0, 64, 82
1, 679120, Control_c, 0, 64, 97
1, 679122, Note_off_c, 0, 59, 55
1, 679134, Control_c, 0, 64, 92
1, 679139, Note_off_c, 0, 60, 63
1, 679149, Control_c, 0, 64, 78
1, 679161, Note_on_c, 0, 67, 84
1, 679162, Note_on_c, 0, 64, 78
1, 679164, Control_c, 0, 64, 69
1, 679179, Control_c, 0, 64, 63
1, 679187, Note_off_c, 0, 64, 68
1, 679192, Note_off_c, 0, 67, 66
1, 679194, Control_c, 0, 64, 64
1, 679208, Control_c, 0, 64, 69
1, 679213, Note_on_c, 0, 58, 82
1, 679223, Control_c, 0, 64, 76
1, 679238, Control_c, 0, 64, 92
1, 679252, Control_c, 0, 64, 127
1, 679254, Note_on_c, 0, 59, 85
1, 679282, Control_c, 0, 64, 92
1, 679284, Note_off_c, 0, 58, 63
1, 679297, Control_c, 0, 64, 76
1, 679304, Note_off_c, 0, 59, 66
1, 679312, Control_c, 0, 64, 69
1, 679326, Note_on_c, 0, 67, 86
1, 679327, Note_on_c, 0, 64, 87
1, 679327, Control_c, 0, 64, 71
1, 679341, Control_c, 0, 64, 84
1, 679353, Note_off_c, 0, 64, 67
1, 679356, Control_c, 0, 64, 127
1, 679359, Note_off_c, 0, 67, 63
1, 679385, Note_on_c, 0, 59, 96
1, 679438, Note_on_c, 0, 60, 81
1, 679464, Note_off_c, 0, 59, 66
1, 679480, Note_off_c, 0, 60, 63
1, 679493, Note_on_c, 0, 67, 94
1, 679494, Note_on_c, 0, 64, 94
1, 679526, Note_off_c, 0, 64, 65
1, 679529, Note_off_c, 0, 67, 66
1, 679568, Note_on_c, 0, 60, 95
1, 679601, Note_on_c, 0, 61, 87
1, 679635, Note_off_c, 0, 60, 64
1, 679660, Note_on_c, 0, 64, 101
1, 679660, Note_on_c, 0, 67, 98
1, 679664, Note_off_c, 0, 61, 64
1, 679681, Poly_aftertouch_c, 0, 58, 0
1, 679694, Note_off_c, 0, 64, 68
1, 679703, Note_off_c, 0, 67, 63
1, 679741, Note_on_c, 0, 61, 95
1, 679793, Note_on_c, 0, 62, 97
1, 679836, Note_off_c, 0, 61, 60
1, 679854, Control_c, 0, 64, 125
1, 679869, Control_c, 0, 64, 97
1, 679873, Note_on_c, 0, 67, 97
1, 679875, Note_on_c, 0, 64, 97
1, 679883, Control_c, 0, 64, 101
1, 679884, Note_off_c, 0, 62, 59
1, 679898, Control_c, 0, 64, 127
1, 679981, Note_on_c, 0, 62, 81
1, 679990, Note_off_c, 0, 64, 55
1, 680022, Note_off_c, 0, 67, 61
1, 680053, Note_on_c, 0, 63, 75
1, 680065, Note_off_c, 0, 62, 58
1, 680102, Note_on_c, 0, 67, 75
1, 680105, Note_off_c, 0, 63, 64
1, 680116, Note_on_c, 0, 64, 68
1, 680161, Note_on_c, 0, 61, 82
1, 680191, Note_off_c, 0, 64, 64
1, 680199, Note_off_c, 0, 67, 57
1, 680208, Note_on_c, 0, 62, 82
1, 680233, Note_off_c, 0, 61, 62
1, 680296, Note_on_c, 0, 67, 75
1, 680298, Note_off_c, 0, 62, 63
1, 680301, Note_on_c, 0, 64, 71
1, 680305, Note_on_c, 0, 45, 103
1, 680307, Note_on_c, 0, 33, 94
1, 680372, Control_c, 0, 64, 90
1, 680377, Note_off_c, 0, 64, 59
1, 680383, Note_on_c, 0, 60, 88
1, 680387, Control_c, 0, 64, 70
1, 680401, Control_c, 0, 64, 61
1, 680416, Control_c, 0, 64, 64
1, 680428, Note_off_c, 0, 67, 63
1, 680431, Control_c, 0, 64, 71
1, 680446, Control_c, 0, 64, 95
1, 680456, Note_on_c, 0, 61, 76
1, 680461, Control_c, 0, 64, 127
1, 680483, Note_off_c, 0, 60, 62
1, 680507, Note_on_c, 0, 64, 74
1, 680507, Note_on_c, 0, 67, 76
1, 680523, Note_off_c, 0, 61, 63
1, 680571, Note_off_c, 0, 33, 59
1, 680571, Note_off_c, 0, 45, 58
1, 680576, Note_on_c, 0, 60, 91
1, 680582, Note_off_c, 0, 64, 64
1, 680626, Note_off_c, 0, 67, 62
1, 680634, Note_on_c, 0, 61, 88
1, 680671, Note_off_c, 0, 60, 62
1, 680708, Note_on_c, 0, 64, 77
1, 680715, Note_on_c, 0, 67, 84
1, 680719, Note_on_c, 0, 46, 103
1, 680719, Note_off_c, 0, 61, 63
1, 680723, Note_on_c, 0, 34, 93
1, 680751, Control_c, 0, 64, 96
1, 680766, Control_c, 0, 64, 63
1, 680780, Control_c, 0, 64, 0
1, 680791, Note_on_c, 0, 59, 89
1, 680796, Note_off_c, 0, 64, 60
1, 680824, Control_c, 0, 64, 33
1, 680835, Note_off_c, 0, 67, 59
1, 680839, Control_c, 0, 64, 64
1, 680854, Control_c, 0, 64, 89
1, 680869, Control_c, 0, 64, 127
1, 680873, Note_on_c, 0, 60, 89
1, 680894, Note_off_c, 0, 59, 63
1, 680937, Note_on_c, 0, 67, 80
1, 680941, Note_on_c, 0, 64, 73
1, 680946, Note_off_c, 0, 60, 65
1, 680972, Note_off_c, 0, 46, 59
1, 680989, Note_off_c, 0, 34, 56
1, 681008, Note_off_c, 0, 64, 61
1, 681009, Note_on_c, 0, 60, 89
1, 681053, Note_off_c, 0, 67, 61
1, 681078, Note_on_c, 0, 61, 93
1, 681103, Note_off_c, 0, 60, 63
1, 681156, Note_off_c, 0, 61, 60
1, 681162, Note_on_c, 0, 47, 110
1, 681165, Note_on_c, 0, 35, 94
1, 681167, Note_on_c, 0, 67, 87
1, 681171, Note_on_c, 0, 63, 85
1, 681180, Control_c, 0, 64, 70
1, 681195, Control_c, 0, 64, 0
1, 681261, Control_c, 0, 64, 63
1, 681267, Note_on_c, 0, 58, 90
1, 681276, Control_c, 0, 64, 96
1, 681278, Note_off_c, 0, 63, 61
1, 681291, Control_c, 0, 64, 127
1, 681322, Note_off_c, 0, 67, 63
1, 681355, Note_off_c, 0, 47, 59
1, 681357, Note_on_c, 0, 59, 91
1, 681357, Note_off_c, 0, 58, 63
1, 681385, Note_off_c, 0, 35, 57
1, 681446, Note_on_c, 0, 63, 96
1, 681452, Note_on_c, 0, 67, 79
1, 681456, Note_off_c, 0, 59, 36
1, 681517, Note_off_c, 0, 67, 58
1, 681544, Note_off_c, 0, 63, 61
1, 681547, Note_on_c, 0, 59, 101
1, 681610, Note_off_c, 0, 59, 64
1, 681656, Note_on_c, 0, 60, 101
1, 681738, Note_off_c, 0, 60, 62
1, 681882, Note_on_c, 0, 40, 106
1, 681884, Note_on_c, 0, 28, 94
1, 681885, Note_on_c, 0, 52, 114
1, 681899, Control_c, 0, 64, 64
1, 681914, Control_c, 0, 64, 0
1, 681959, Control_c, 0, 64, 52
1, 681981, Control_c, 0, 64, 79
1, 681986, Note_off_c, 0, 28, 64
1, 681996, Control_c, 0, 64, 127
1, 682012, Note_off_c, 0, 40, 63
1, 682059, Note_off_c, 0, 52, 61
1, 682094, Note_on_c, 0, 57, 65
1, 682131, Note_on_c, 0, 59, 35
1, 682150, Note_on_c, 0, 47, 46
1, 682157, Note_off_c, 0, 57, 62
1, 682161, Note_on_c, 0, 55, 64
1, 682176, Note_off_c, 0, 59, 31
1, 682189, Note_on_c, 0, 65, 52
1, 682219, Note_off_c, 0, 47, 34
1, 682222, Note_off_c, 0, 65, 62
1, 682223, Note_on_c, 0, 54, 64
1, 682224, Note_on_c, 0, 67, 26
1, 682236, Note_on_c, 0, 64, 53
1, 682258, Note_off_c, 0, 55, 62
1, 682260, Note_on_c, 0, 52, 74
1, 682268, Note_off_c, 0, 67, 0
1, 682269, Note_on_c, 0, 65, 43
1, 682278, Note_off_c, 0, 64, 42
1, 682280, Note_on_c, 0, 67, 63
1, 682289, Note_off_c, 0, 54, 64
1, 682294, Note_off_c, 0, 52, 62
1, 682299, Note_off_c, 0, 65, 54
1, 682320, Note_on_c, 0, 64, 66
1, 682343, Note_off_c, 0, 67, 64
1, 682361, Note_off_c, 0, 64, 61
1, 682424, Note_on_c, 0, 67, 82
1, 682431, Note_on_c, 0, 79, 88
1, 682490, Note_on_c, 0, 76, 85
1, 682501, Note_on_c, 0, 64, 74
1, 682513, Note_off_c, 0, 67, 60
1, 682519, Note_off_c, 0, 79, 67
1, 682552, Note_on_c, 0, 63, 77
1, 682552, Note_on_c, 0, 75, 91
1, 682569, Note_off_c, 0, 76, 64
1, 682579, Note_off_c, 0, 64, 62
1, 682614, Note_on_c, 0, 79, 98
1, 682620, Note_on_c, 0, 67, 92
1, 682622, Note_off_c, 0, 75, 65
1, 682623, Note_off_c, 0, 63, 63
1, 682676, Note_on_c, 0, 75, 85
1, 682690, Note_on_c, 0, 63, 82
1, 682709, Note_off_c, 0, 67, 62
1, 682730, Note_on_c, 0, 62, 81
1, 682730, Note_off_c, 0, 79, 65
1, 682735, Note_on_c, 0, 74, 90
1, 682762, Note_off_c, 0, 75, 64
1, 682769, Note_off_c, 0, 63, 62
1, 682803, Note_on_c, 0, 79, 112
1, 682804, Note_off_c, 0, 74, 50
1, 682805, Note_on_c, 0, 67, 89
1, 682820, Note_off_c, 0, 62, 61
1, 682863, Note_on_c, 0, 74, 81
1, 682871, Note_on_c, 0, 62, 67
1, 682889, Note_off_c, 0, 67, 60
1, 682918, Note_off_c, 0, 79, 61
1, 682920, Note_on_c, 0, 73, 93
1, 682923, Note_on_c, 0, 61, 82
1, 682938, Note_off_c, 0, 62, 64
1, 682945, Note_off_c, 0, 61, 71
1, 682946, Note_off_c, 0, 74, 63
1, 682974, Note_off_c, 0, 73, 68
1, 682995, Note_on_c, 0, 67, 72
1, 683006, Note_on_c, 0, 55, 84
1, 683017, Note_off_c, 0, 67, 65
1, 683065, Note_on_c, 0, 61, 80
1, 683078, Note_on_c, 0, 49, 75
1, 683088, Note_off_c, 0, 55, 61
1, 683115, Note_on_c, 0, 48, 75
1, 683119, Note_on_c, 0, 60, 81
1, 683119, Note_off_c, 0, 61, 64
1, 683138, Note_off_c, 0, 49, 60
1, 683178, Note_on_c, 0, 49, 57
1, 683178, Note_off_c, 0, 48, 63
1, 683182, Note_on_c, 0, 61, 82
1, 683183, Note_off_c, 0, 60, 63
1, 683235, Note_on_c, 0, 60, 76
1, 683243, Note_on_c, 0, 48, 69
1, 683249, Control_c, 0, 64, 72
1, 683264, Control_c, 0, 64, 24
1, 683276, Note_on_c, 0, 47, 78
1, 683277, Note_off_c, 0, 49, 63
1, 683279, Control_c, 0, 64, 0
1, 683300, Note_off_c, 0, 61, 59
1, 683301, Note_on_c, 0, 59, 82
1, 683303, Note_off_c, 0, 48, 63
1, 683304, Note_off_c, 0, 60, 65
1, 683356, Note_on_c, 0, 60, 82
1, 683362, Note_off_c, 0, 47, 61
1, 683363, Note_on_c, 0, 48, 69
1, 683367, Note_off_c, 0, 59, 62
1, 683397, Control_c, 0, 64, 38
1, 683406, Note_on_c, 0, 46, 78
1, 683412, Control_c, 0, 64, 69
1, 683425, Note_on_c, 0, 58, 90
1, 683426, Control_c, 0, 64, 127
1, 683428, Note_off_c, 0, 60, 68
1, 683441, Note_on_c, 0, 47, 82
1, 683446, Note_off_c, 0, 48, 62
1, 683480, Note_off_c, 0, 46, 64
1, 683480, Note_off_c, 0, 47, 65
1, 683495, Note_on_c, 0, 59, 88
1, 683524, Note_off_c, 0, 58, 60
1, 683603, Note_on_c, 0, 52, 95
1, 683607, Note_on_c, 0, 40, 107
1, 683612, Note_on_c, 0, 28, 94
1, 683612, Control_c, 0, 64, 60
1, 683617, Note_off_c, 0, 59, 64
1, 683626, Control_c, 0, 64, 0
1, 683652, Note_on_c, 0, 34, 26
1, 683671, Control_c, 0, 64, 36
1, 683686, Note_off_c, 0, 28, 65
1, 683686, Control_c, 0, 64, 70
1, 683688, Note_off_c, 0, 52, 62
1, 683694, Note_on_c, 0, 29, 2
1, 683700, Note_off_c, 0, 34, 30
1, 683700, Control_c, 0, 64, 127
1, 683703, Note_off_c, 0, 40, 65
1, 683735, Note_off_c, 0, 29, 51
1, 683738, Note_on_c, 0, 59, 72
1, 683803, Note_off_c, 0, 59, 63
1, 683826, Note_on_c, 0, 67, 69
1, 683872, Note_off_c, 0, 67, 64
1, 683875, Note_on_c, 0, 66, 75
1, 683880, Note_on_c, 0, 55, 47
1, 683887, Note_on_c, 0, 57, 31
1, 683919, Note_on_c, 0, 54, 71
1, 683924, Note_off_c, 0, 57, 62
1, 683936, Note_on_c, 0, 67, 75
1, 683942, Note_on_c, 0, 51, 74
1, 683951, Note_off_c, 0, 55, 62
1, 683962, Note_off_c, 0, 66, 61
1, 683982, Note_off_c, 0, 54, 63
1, 683985, Note_off_c, 0, 51, 64
1, 684001, Note_on_c, 0, 64, 71
1, 684003, Note_off_c, 0, 67, 65
1, 684031, Note_off_c, 0, 64, 65
1, 684096, Note_on_c, 0, 79, 88
1, 684102, Note_on_c, 0, 67, 81
1, 684162, Note_on_c, 0, 76, 81
1, 684174, Note_on_c, 0, 64, 75
1, 684188, Note_off_c, 0, 67, 60
1, 684190, Note_off_c, 0, 79, 67
1, 684221, Note_on_c, 0, 63, 76
1, 684227, Note_on_c, 0, 75, 89
1, 684247, Note_off_c, 0, 76, 64
1, 684253, Note_off_c, 0, 64, 62
1, 684284, Note_off_c, 0, 63, 64
1, 684290, Note_on_c, 0, 79, 102
1, 684295, Note_on_c, 0, 67, 91
1, 684301, Note_off_c, 0, 75, 62
1, 684353, Note_on_c, 0, 75, 82
1, 684364, Note_on_c, 0, 63, 86
1, 684375, Note_off_c, 0, 67, 58
1, 684397, Note_off_c, 0, 79, 66
1, 684398, Note_on_c, 0, 62, 80
1, 684400, Note_on_c, 0, 74, 89
1, 684433, Note_off_c, 0, 75, 64
1, 684434, Note_off_c, 0, 63, 61
1, 684470, Note_on_c, 0, 79, 111
1, 684472, Note_on_c, 0, 67, 88
1, 684474, Note_off_c, 0, 62, 58
1, 684476, Note_off_c, 0, 74, 64
1, 684534, Note_on_c, 0, 74, 89
1, 684539, Note_off_c, 0, 67, 62
1, 684545, Note_on_c, 0, 62, 81
1, 684582, Note_off_c, 0, 79, 58
1, 684587, Note_on_c, 0, 73, 91
1, 684592, Note_on_c, 0, 61, 75
1, 684600, Note_off_c, 0, 62, 65
1, 684602, Note_off_c, 0, 74, 61
1, 684616, Note_off_c, 0, 61, 66
1, 684640, Note_off_c, 0, 73, 68
1, 684652, Note_on_c, 0, 67, 85
1, 684671, Note_on_c, 0, 55, 84
1, 684690, Note_off_c, 0, 67, 62
1, 684727, Note_on_c, 0, 61, 67
1, 684747, Note_on_c, 0, 49, 75
1, 684756, Note_off_c, 0, 55, 59
1, 684778, Note_on_c, 0, 48, 76
1, 684794, Note_off_c, 0, 61, 64
1, 684794, Note_on_c, 0, 60, 79
1, 684797, Note_off_c, 0, 49, 57
1, 684851, Note_on_c, 0, 49, 65
1, 684851, Note_off_c, 0, 48, 62
1, 684852, Note_off_c, 0, 60, 64
1, 684857, Note_on_c, 0, 61, 83
1, 684902, Note_on_c, 0, 48, 65
1, 684909, Control_c, 0, 64, 98
1, 684918, Note_on_c, 0, 60, 82
1, 684924, Control_c, 0, 64, 61
1, 684938, Control_c, 0, 64, 0
1, 684940, Note_off_c, 0, 49, 62
1, 684942, Note_off_c, 0, 61, 63
1, 684947, Note_on_c, 0, 47, 73
1, 684986, Note_off_c, 0, 48, 63
1, 684988, Note_on_c, 0, 59, 80
1, 684995, Note_off_c, 0, 60, 65
1, 685038, Note_off_c, 0, 47, 61
1, 685044, Note_on_c, 0, 48, 68
1, 685050, Control_c, 0, 64, 59
1, 685062, Note_on_c, 0, 62, 80
1, 685065, Control_c, 0, 64, 83
1, 685077, Note_off_c, 0, 59, 57
1, 685079, Control_c, 0, 64, 127
1, 685100, Note_on_c, 0, 58, 88
1, 685110, Note_off_c, 0, 48, 62
1, 685121, Note_off_c, 0, 62, 64
1, 685128, Note_off_c, 0, 58, 66
1, 685200, Note_on_c, 0, 71, 108
1, 685201, Note_on_c, 0, 59, 102
1, 685227, Note_on_c, 0, 60, 57
1, 685228, Note_off_c, 0, 60, 127
1, 685236, Note_off_c, 0, 59, 66
1, 685261, Note_off_c, 0, 71, 64
1, 685330, Note_on_c, 0, 40, 103
1, 685335, Note_on_c, 0, 28, 93
1, 685347, Control_c, 0, 64, 101
1, 685361, Control_c, 0, 64, 63
1, 685372, Note_on_c, 0, 79, 102
1, 685373, Note_on_c, 0, 67, 103
1, 685376, Control_c, 0, 64, 0
1, 685378, Note_on_c, 0, 76, 87
1, 685436, Note_off_c, 0, 28, 63
1, 685450, Control_c, 0, 64, 59
1, 685465, Control_c, 0, 64, 93
1, 685467, Note_off_c, 0, 40, 66
1, 685480, Control_c, 0, 64, 127
1, 685518, Note_off_c, 0, 76, 61
1, 685530, Note_off_c, 0, 79, 62
1, 685592, Note_on_c, 0, 47, 63
1, 685616, Note_on_c, 0, 55, 70
1, 685675, Note_off_c, 0, 47, 60
1, 685677, Note_on_c, 0, 54, 72
1, 685684, Note_off_c, 0, 67, 60
1, 685686, Note_on_c, 0, 66, 73
1, 685729, Note_off_c, 0, 55, 62
1, 685731, Note_on_c, 0, 52, 72
1, 685744, Note_on_c, 0, 67, 76
1, 685766, Note_off_c, 0, 54, 64
1, 685775, Note_off_c, 0, 66, 60
1, 685784, Note_off_c, 0, 52, 64
1, 685803, Note_on_c, 0, 64, 75
1, 685807, Note_off_c, 0, 67, 64
1, 685825, Note_off_c, 0, 64, 70
1, 685899, Note_on_c, 0, 79, 82
1, 685902, Note_on_c, 0, 67, 72
1, 685962, Note_on_c, 0, 63, 72
1, 685962, Note_on_c, 0, 76, 79
1, 685977, Note_off_c, 0, 67, 55
1, 685989, Note_off_c, 0, 79, 67
1, 686017, Note_on_c, 0, 75, 84
1, 686037, Note_off_c, 0, 76, 61
1, 686080, Note_on_c, 0, 79, 96
1, 686083, Note_off_c, 0, 63, 64
1, 686087, Note_on_c, 0, 67, 85
1, 686087, Note_off_c, 0, 75, 64
1, 686138, Note_on_c, 0, 75, 80
1, 686149, Note_on_c, 0, 63, 77
1, 686162, Note_off_c, 0, 67, 59
1, 686181, Note_on_c, 0, 62, 79
1, 686181, Note_off_c, 0, 79, 65
1, 686184, Note_on_c, 0, 74, 95
1, 686214, Note_off_c, 0, 75, 64
1, 686223, Note_off_c, 0, 63, 62
1, 686252, Note_off_c, 0, 62, 52
1, 686255, Note_on_c, 0, 79, 103
1, 686259, Note_on_c, 0, 67, 83
1, 686263, Note_off_c, 0, 74, 62
1, 686314, Note_on_c, 0, 74, 82
1, 686324, Note_off_c, 0, 67, 61
1, 686325, Note_on_c, 0, 62, 81
1, 686357, Note_off_c, 0, 79, 62
1, 686370, Note_on_c, 0, 73, 91
1, 686370, Note_on_c, 0, 61, 77
1, 686376, Note_off_c, 0, 62, 64
1, 686392, Note_off_c, 0, 61, 67
1, 686394, Note_off_c, 0, 74, 64
1, 686423, Note_off_c, 0, 73, 68
1, 686434, Note_on_c, 0, 67, 82
1, 686467, Note_on_c, 0, 55, 68
1, 686474, Note_on_c, 0, 53, 67
1, 686478, Note_off_c, 0, 67, 50
1, 686516, Note_on_c, 0, 61, 58
1, 686534, Note_on_c, 0, 49, 77
1, 686536, Note_off_c, 0, 55, 55
1, 686538, Note_off_c, 0, 53, 55
1, 686576, Note_on_c, 0, 60, 81
1, 686579, Note_off_c, 0, 61, 63
1, 686580, Note_on_c, 0, 48, 70
1, 686594, Note_off_c, 0, 49, 62
1, 686629, Poly_aftertouch_c, 0, 49, 0
1, 686639, Note_on_c, 0, 49, 57
1, 686639, Note_on_c, 0, 61, 77
1, 686641, Note_off_c, 0, 60, 63
1, 686643, Note_off_c, 0, 48, 63
1, 686691, Note_on_c, 0, 48, 64
1, 686695, Control_c, 0, 64, 78
1, 686699, Note_on_c, 0, 60, 77
1, 686710, Control_c, 0, 64, 60
1, 686718, Note_on_c, 0, 63, 3
1, 686723, Note_off_c, 0, 49, 63
1, 686724, Control_c, 0, 64, 13
1, 686727, Note_on_c, 0, 47, 76
1, 686727, Note_off_c, 0, 61, 64
1, 686727, Note_off_c, 0, 63, 43
1, 686739, Control_c, 0, 64, 24
1, 686754, Control_c, 0, 64, 48
1, 686763, Note_on_c, 0, 59, 81
1, 686764, Note_off_c, 0, 60, 65
1, 686766, Note_off_c, 0, 48, 64
1, 686769, Control_c, 0, 64, 59
1, 686784, Control_c, 0, 64, 69
1, 686798, Control_c, 0, 64, 90
1, 686813, Control_c, 0, 64, 127
1, 686816, Note_on_c, 0, 48, 70
1, 686818, Note_off_c, 0, 47, 61
1, 686823, Note_on_c, 0, 60, 77
1, 686826, Note_off_c, 0, 59, 60
1, 686869, Note_on_c, 0, 46, 74
1, 686875, Note_off_c, 0, 48, 62
1, 686879, Note_on_c, 0, 58, 71
1, 686885, Note_off_c, 0, 60, 65
1, 686894, Note_off_c, 0, 46, 67
1, 686906, Note_off_c, 0, 58, 64
1, 686966, Note_on_c, 0, 59, 100
1, 686967, Note_on_c, 0, 71, 106
1, 686999, Note_off_c, 0, 59, 68
1, 687026, Note_off_c, 0, 71, 66
1, 687072, Poly_aftertouch_c, 0, 67, 0
1, 687115, Note_on_c, 0, 41, 99
1, 687128, Note_on_c, 0, 29, 77
1, 687128, Note_on_c, 0, 40, 79
1, 687133, Note_on_c, 0, 28, 78
1, 687140, Control_c, 0, 64, 80
1, 687144, Note_on_c, 0, 30, 47
1, 687147, Note_on_c, 0, 79, 106
1, 687148, Note_on_c, 0, 67, 104
1, 687151, Note_on_c, 0, 76, 91
1, 687155, Control_c, 0, 64, 0
1, 687175, Note_off_c, 0, 40, 0
1, 687175, Note_on_c, 0, 40, 37
1, 687186, Note_off_c, 0, 30, 54
1, 687217, Note_off_c, 0, 40, 0
1, 687217, Note_on_c, 0, 40, 19
1, 687226, Note_off_c, 0, 28, 61
1, 687250, Note_off_c, 0, 29, 62
1, 687266, Control_c, 0, 64, 40
1, 687274, Note_off_c, 0, 40, 63
1, 687279, Note_off_c, 0, 41, 65
1, 687280, Note_off_c, 0, 76, 63
1, 687281, Control_c, 0, 64, 72
1, 687286, Note_off_c, 0, 79, 62
1, 687296, Control_c, 0, 64, 127
1, 687426, Note_on_c, 0, 55, 69
1, 687432, Note_on_c, 0, 47, 41
1, 687437, Note_off_c, 0, 67, 60
1, 687439, Note_on_c, 0, 66, 71
1, 687441, Poly_aftertouch_c, 0, 46, 0
1, 687462, Poly_aftertouch_c, 0, 46, 0
1, 687467, Note_off_c, 0, 47, 54
1, 687473, Note_on_c, 0, 54, 70
1, 687494, Note_on_c, 0, 67, 70
1, 687511, Note_on_c, 0, 52, 71
1, 687513, Note_off_c, 0, 55, 62
1, 687515, Note_off_c, 0, 66, 55
1, 687544, Note_off_c, 0, 54, 64
1, 687554, Note_on_c, 0, 64, 73
1, 687555, Note_off_c, 0, 67, 63
1, 687555, Note_off_c, 0, 52, 62
1, 687581, Note_off_c, 0, 64, 66
1, 687662, Note_on_c, 0, 79, 81
1, 687675, Note_on_c, 0, 67, 74
1, 687723, Note_on_c, 0, 76, 74
1, 687745, Note_off_c, 0, 79, 65
1, 687750, Note_on_c, 0, 64, 67
1, 687752, Note_off_c, 0, 67, 61
1, 687775, Note_on_c, 0, 75, 80
1, 687786, Note_on_c, 0, 63, 74
1, 687786, Note_off_c, 0, 76, 64
1, 687814, Note_off_c, 0, 64, 62
1, 687825, Note_off_c, 0, 75, 63
1, 687829, Note_on_c, 0, 79, 79
1, 687853, Note_off_c, 0, 63, 63
1, 687856, Note_on_c, 0, 67, 79
1, 687884, Note_off_c, 0, 79, 66
1, 687887, Note_on_c, 0, 75, 66
1, 687897, Note_on_c, 0, 63, 56
1, 687919, Note_on_c, 0, 76, 32
1, 687925, Note_off_c, 0, 67, 58
1, 687941, Note_off_c, 0, 75, 64
1, 687946, Note_on_c, 0, 62, 69
1, 687952, Note_off_c, 0, 76, 34
1, 687991, Note_on_c, 0, 78, 76
1, 687992, Note_off_c, 0, 78, 127
1, 687994, Note_on_c, 0, 66, 96
1, 688000, Note_off_c, 0, 63, 60
1, 688002, Note_on_c, 0, 77, 89
1, 688028, Note_on_c, 0, 74, 41
1, 688028, Note_off_c, 0, 66, 61
1, 688038, Note_off_c, 0, 77, 51
1, 688050, Note_off_c, 0, 62, 61
1, 688052, Note_off_c, 0, 74, 55
1, 688099, Note_on_c, 0, 79, 96
1, 688104, Control_c, 0, 64, 104
1, 688105, Note_on_c, 0, 67, 88
1, 688111, Note_on_c, 0, 69, 89
1, 688119, Control_c, 0, 64, 127
1, 688140, Note_on_c, 0, 76, 54
1, 688177, Note_on_c, 0, 75, 33
1, 688178, Note_off_c, 0, 75, 127
1, 688179, Note_on_c, 0, 74, 70
1, 688189, Note_on_c, 0, 62, 69
1, 688191, Note_off_c, 0, 79, 62
1, 688195, Note_off_c, 0, 69, 51
1, 688238, Note_off_c, 0, 76, 63
1, 688240, Note_off_c, 0, 67, 35
1, 688245, Note_on_c, 0, 73, 80
1, 688250, Note_off_c, 0, 74, 64
1, 688257, Note_on_c, 0, 61, 71
1, 688265, Note_off_c, 0, 62, 64
1, 688282, Note_off_c, 0, 61, 66
1, 688287, Note_on_c, 0, 79, 80
1, 688302, Note_off_c, 0, 73, 64
1, 688341, Note_on_c, 0, 55, 78
1, 688347, Note_on_c, 0, 73, 68
1, 688362, Note_off_c, 0, 79, 63
1, 688366, Note_off_c, 0, 73, 62
1, 688389, Note_on_c, 0, 74, 40
1, 688415, Note_off_c, 0, 74, 52
1, 688421, Note_on_c, 0, 49, 79
1, 688435, Note_off_c, 0, 55, 61
1, 688479, Note_on_c, 0, 64, 98
1, 688482, Note_on_c, 0, 76, 92
1, 688485, Note_on_c, 0, 73, 64
1, 688485, Note_on_c, 0, 74, 70
1, 688492, Note_on_c, 0, 48, 77
1, 688497, Note_on_c, 0, 72, 72
1, 688505, Note_off_c, 0, 49, 62
1, 688513, Note_on_c, 0, 65, 43
1, 688514, Note_off_c, 0, 65, 127
1, 688514, Note_off_c, 0, 72, 68
1, 688517, Note_off_c, 0, 74, 63
1, 688518, Note_off_c, 0, 64, 64
1, 688520, Note_off_c, 0, 73, 66
1, 688523, Note_off_c, 0, 76, 63
1, 688580, Note_on_c, 0, 49, 79
1, 688589, Note_off_c, 0, 48, 62
1, 688590, Note_on_c, 0, 79, 101
1, 688597, Note_on_c, 0, 67, 81
1, 688597, Note_on_c, 0, 76, 88
1, 688602, Note_on_c, 0, 69, 85
1, 688621, Note_off_c, 0, 69, 66
1, 688631, Note_off_c, 0, 67, 64
1, 688650, Note_on_c, 0, 48, 60
1, 688676, Note_on_c, 0, 72, 81
1, 688682, Note_off_c, 0, 76, 50
1, 688687, Note_off_c, 0, 79, 56
1, 688699, Note_off_c, 0, 49, 56
1, 688731, Note_on_c, 0, 47, 72
1, 688760, Note_on_c, 0, 71, 80
1, 688760, Note_off_c, 0, 72, 64
1, 688764, Note_off_c, 0, 48, 60
1, 688788, Note_off_c, 0, 71, 62
1, 688820, Note_off_c, 0, 47, 58
1, 688823, Note_on_c, 0, 48, 75
1, 688827, Note_on_c, 0, 72, 86
1, 688907, Note_on_c, 0, 46, 84
1, 688914, Note_on_c, 0, 70, 91
1, 688924, Note_off_c, 0, 48, 60
1, 688929, Note_off_c, 0, 72, 62
1, 689030, Note_on_c, 0, 47, 80
1, 689041, Note_on_c, 0, 71, 86
1, 689044, Note_on_c, 0, 63, 97
1, 689044, Note_on_c, 0, 75, 99
1, 689053, Note_off_c, 0, 46, 58
1, 689068, Note_off_c, 0, 70, 60
1, 689137, Note_off_c, 0, 63, 62
1, 689158, Note_off_c, 0, 71, 60
1, 689183, Note_off_c, 0, 75, 59
1, 689289, Note_on_c, 0, 40, 71
1, 689309, Note_off_c, 0, 47, 55
1, 689336, Note_on_c, 0, 79, 94
1, 689343, Note_on_c, 0, 67, 88
1, 689346, Note_on_c, 0, 76, 77
1, 689358, Control_c, 0, 64, 110
1, 689373, Control_c, 0, 64, 73
1, 689388, Control_c, 0, 64, 44
1, 689403, Control_c, 0, 64, 0
1, 689447, Control_c, 0, 64, 43
1, 689470, Control_c, 0, 64, 59
1, 689485, Control_c, 0, 64, 71
1, 689497, Note_off_c, 0, 40, 58
1, 689499, Control_c, 0, 64, 105
1, 689509, Note_on_c, 0, 47, 54
1, 689514, Control_c, 0, 64, 127
1, 689557, Note_off_c, 0, 47, 62
1, 689590, Note_on_c, 0, 55, 67
1, 689626, Note_off_c, 0, 55, 61
1, 689658, Note_on_c, 0, 54, 79
1, 689696, Note_off_c, 0, 67, 56
1, 689712, Note_on_c, 0, 55, 71
1, 689747, Note_on_c, 0, 52, 79
1, 689751, Note_off_c, 0, 54, 63
1, 689760, Note_off_c, 0, 55, 62
1, 689776, Note_off_c, 0, 52, 68
1, 689816, Note_off_c, 0, 79, 56
1, 689861, Note_on_c, 0, 67, 84
1, 689876, Note_off_c, 0, 76, 54
1, 689893, Note_on_c, 0, 65, 45
1, 689922, Note_off_c, 0, 65, 36
1, 689939, Note_on_c, 0, 61, 76
1, 689946, Note_off_c, 0, 67, 61
1, 689981, Note_on_c, 0, 60, 76
1, 690013, Note_off_c, 0, 61, 62
1, 690042, Note_on_c, 0, 67, 83
1, 690050, Note_off_c, 0, 60, 63
1, 690099, Note_off_c, 0, 67, 67
1, 690105, Note_on_c, 0, 60, 76
1, 690142, Note_on_c, 0, 59, 81
1, 690166, Note_off_c, 0, 60, 66
1, 690180, Note_on_c, 0, 81, 101
1, 690181, Note_off_c, 0, 59, 65
1, 690182, Note_on_c, 0, 69, 102
1, 690183, Note_on_c, 0, 78, 90
1, 690291, Note_off_c, 0, 69, 60
1, 690296, Note_off_c, 0, 81, 65
1, 690330, Note_on_c, 0, 40, 91
1, 690338, Note_off_c, 0, 78, 62
1, 690378, Note_on_c, 0, 83, 102
1, 690380, Note_on_c, 0, 71, 107
1, 690380, Note_on_c, 0, 79, 92
1, 690395, Control_c, 0, 64, 109
1, 690410, Control_c, 0, 64, 64
1, 690425, Control_c, 0, 64, 0
1, 690499, Control_c, 0, 64, 48
1, 690511, Note_on_c, 0, 47, 68
1, 690514, Note_off_c, 0, 40, 64
1, 690514, Control_c, 0, 64, 70
1, 690529, Control_c, 0, 64, 127
1, 690581, Note_off_c, 0, 47, 61
1, 690597, Note_on_c, 0, 55, 79
1, 690609, Note_off_c, 0, 83, 55
1, 690630, Note_off_c, 0, 71, 52
1, 690684, Note_on_c, 0, 54, 86
1, 690688, Note_off_c, 0, 55, 60
1, 690733, Note_off_c, 0, 79, 47
1, 690765, Note_on_c, 0, 55, 82
1, 690770, Note_off_c, 0, 54, 65
1, 690839, Note_on_c, 0, 52, 93
1, 690854, Note_off_c, 0, 55, 62
1, 690976, Note_on_c, 0, 45, 86
1, 690994, Note_off_c, 0, 52, 62
1, 691018, Note_on_c, 0, 81, 99
1, 691019, Note_on_c, 0, 78, 86
1, 691021, Note_on_c, 0, 69, 95
1, 691026, Control_c, 0, 64, 86
1, 691028, Note_on_c, 0, 76, 55
1, 691041, Control_c, 0, 64, 65
1, 691049, Note_off_c, 0, 76, 54
1, 691056, Control_c, 0, 64, 47
1, 691070, Control_c, 0, 64, 59
1, 691085, Control_c, 0, 64, 69
1, 691100, Control_c, 0, 64, 91
1, 691114, Control_c, 0, 64, 127
1, 691158, Note_on_c, 0, 52, 76
1, 691164, Note_off_c, 0, 78, 64
1, 691170, Note_off_c, 0, 81, 63
1, 691178, Note_off_c, 0, 45, 59
1, 691179, Note_off_c, 0, 69, 60
1, 691242, Note_off_c, 0, 52, 64
1, 691254, Note_on_c, 0, 79, 99
1, 691255, Note_on_c, 0, 60, 83
1, 691256, Note_on_c, 0, 76, 86
1, 691257, Note_on_c, 0, 67, 102
1, 691322, Note_off_c, 0, 60, 48
1, 691337, Note_on_c, 0, 59, 83
1, 691343, Note_off_c, 0, 67, 62
1, 691357, Note_off_c, 0, 79, 64
1, 691373, Note_off_c, 0, 76, 65
1, 691414, Note_off_c, 0, 59, 62
1, 691423, Note_on_c, 0, 60, 90
1, 691427, Note_on_c, 0, 81, 100
1, 691431, Note_on_c, 0, 69, 110
1, 691435, Note_on_c, 0, 78, 97
1, 691443, Note_on_c, 0, 71, 84
1, 691482, Note_on_c, 0, 57, 85
1, 691484, Note_off_c, 0, 60, 65
1, 691504, Note_off_c, 0, 71, 0
1, 691504, Note_on_c, 0, 71, 13
1, 691512, Note_off_c, 0, 57, 65
1, 691523, Note_off_c, 0, 69, 61
1, 691542, Note_off_c, 0, 78, 62
1, 691544, Note_off_c, 0, 71, 24
1, 691548, Note_off_c, 0, 81, 61
1, 691628, Note_on_c, 0, 40, 94
1, 691648, Control_c, 0, 64, 84
1, 691652, Note_on_c, 0, 79, 89
1, 691653, Note_on_c, 0, 83, 101
1, 691655, Note_on_c, 0, 71, 105
1, 691662, Control_c, 0, 64, 47
1, 691677, Control_c, 0, 64, 0
1, 691745, Control_c, 0, 64, 63
1, 691750, Note_on_c, 0, 47, 58
1, 691754, Note_off_c, 0, 83, 62
1, 691760, Control_c, 0, 64, 88
1, 691763, Note_off_c, 0, 79, 66
1, 691772, Note_off_c, 0, 40, 62
1, 691775, Control_c, 0, 64, 127
1, 691805, Note_off_c, 0, 47, 62
1, 691828, Note_on_c, 0, 55, 73
1, 691842, Note_off_c, 0, 71, 59
1, 691923, Note_on_c, 0, 54, 63
1, 691928, Note_on_c, 0, 66, 73
1, 691931, Note_off_c, 0, 55, 0
1, 691969, Poly_aftertouch_c, 0, 55, 0
1, 691970, Note_on_c, 0, 52, 70
1, 691976, Note_off_c, 0, 54, 54
1, 691991, Note_on_c, 0, 67, 76
1, 692040, Note_off_c, 0, 52, 63
1, 692040, Note_off_c, 0, 66, 62
1, 692046, Note_off_c, 0, 67, 63
1, 692050, Note_on_c, 0, 64, 76
1, 692080, Note_off_c, 0, 64, 65
1, 692146, Note_on_c, 0, 79, 86
1, 692150, Note_on_c, 0, 67, 77
1, 692211, Note_on_c, 0, 63, 70
1, 692214, Note_on_c, 0, 76, 83
1, 692243, Note_off_c, 0, 67, 60
1, 692245, Note_off_c, 0, 79, 66
1, 692276, Note_on_c, 0, 75, 90
1, 692294, Note_off_c, 0, 76, 64
1, 692338, Note_on_c, 0, 79, 101
1, 692338, Note_off_c, 0, 63, 64
1, 692344, Note_on_c, 0, 67, 86
1, 692350, Note_off_c, 0, 75, 61
1, 692395, Note_on_c, 0, 75, 80
1, 692411, Note_on_c, 0, 63, 78
1, 692422, Note_on_c, 0, 77, 47
1, 692427, Note_off_c, 0, 67, 60
1, 692439, Note_on_c, 0, 62, 78
1, 692443, Note_off_c, 0, 77, 58
1, 692443, Note_off_c, 0, 79, 65
1, 692448, Note_on_c, 0, 74, 86
1, 692483, Note_off_c, 0, 63, 61
1, 692484, Note_off_c, 0, 75, 64
1, 692496, Note_off_c, 0, 74, 66
1, 692500, Note_off_c, 0, 62, 56
1, 692525, Control_c, 0, 64, 102
1, 692526, Note_on_c, 0, 67, 86
1, 692526, Note_on_c, 0, 79, 106
1, 692535, Note_on_c, 0, 77, 78
1, 692540, Control_c, 0, 64, 81
1, 692555, Control_c, 0, 64, 79
1, 692569, Control_c, 0, 64, 100
1, 692584, Control_c, 0, 64, 127
1, 692586, Note_on_c, 0, 74, 83
1, 692587, Note_off_c, 0, 77, 0
1, 692587, Note_on_c, 0, 77, 14
1, 692594, Note_on_c, 0, 62, 84
1, 692594, Note_off_c, 0, 67, 62
1, 692625, Note_off_c, 0, 77, 53
1, 692636, Note_off_c, 0, 79, 66
1, 692642, Note_on_c, 0, 61, 75
1, 692645, Note_on_c, 0, 73, 89
1, 692648, Note_off_c, 0, 62, 65
1, 692658, Note_off_c, 0, 74, 63
1, 692665, Note_off_c, 0, 61, 67
1, 692699, Note_off_c, 0, 73, 68
1, 692717, Note_on_c, 0, 67, 73
1, 692725, Note_on_c, 0, 55, 81
1, 692747, Note_off_c, 0, 67, 58
1, 692780, Note_on_c, 0, 61, 66
1, 692798, Note_on_c, 0, 49, 75
1, 692812, Note_off_c, 0, 55, 61
1, 692840, Note_on_c, 0, 48, 74
1, 692845, Note_on_c, 0, 60, 83
1, 692845, Note_off_c, 0, 61, 64
1, 692858, Note_off_c, 0, 49, 62
1, 692899, Note_off_c, 0, 48, 62
1, 692905, Note_off_c, 0, 60, 62
1, 692907, Note_on_c, 0, 49, 57
1, 692911, Note_on_c, 0, 61, 80
1, 692960, Note_on_c, 0, 48, 69
1, 692966, Note_on_c, 0, 60, 80
1, 692991, Note_off_c, 0, 61, 63
1, 693002, Note_off_c, 0, 49, 62
1, 693003, Note_on_c, 0, 47, 75
1, 693029, Note_off_c, 0, 60, 66
1, 693035, Note_on_c, 0, 59, 87
1, 693036, Note_off_c, 0, 48, 62
1, 693073, Note_off_c, 0, 59, 64
1, 693083, Note_off_c, 0, 47, 62
1, 693087, Note_on_c, 0, 48, 59
1, 693101, Note_on_c, 0, 60, 89
1, 693138, Note_on_c, 0, 46, 77
1, 693169, Note_on_c, 0, 58, 80
1, 693177, Note_off_c, 0, 60, 64
1, 693189, Note_off_c, 0, 48, 51
1, 693192, Note_on_c, 0, 47, 84
1, 693194, Note_off_c, 0, 58, 69
1, 693227, Note_off_c, 0, 46, 63
1, 693236, Note_off_c, 0, 47, 62
1, 693260, Note_on_c, 0, 64, 102
1, 693271, Note_on_c, 0, 59, 94
1, 693327, Note_off_c, 0, 59, 57
1, 693408, Note_on_c, 0, 45, 89
1, 693411, Note_on_c, 0, 33, 83
1, 693415, Note_off_c, 0, 64, 54
1, 693452, Control_c, 0, 64, 98
1, 693466, Control_c, 0, 64, 65
1, 693475, Note_on_c, 0, 67, 104
1, 693481, Control_c, 0, 64, 0
1, 693487, Note_on_c, 0, 60, 90
1, 693537, Note_off_c, 0, 33, 62
1, 693540, Control_c, 0, 64, 51
1, 693555, Control_c, 0, 64, 72
1, 693570, Control_c, 0, 64, 127
1, 693587, Note_off_c, 0, 45, 63
1, 693672, Note_on_c, 0, 52, 69
1, 693721, Note_off_c, 0, 52, 61
1, 693733, Note_on_c, 0, 55, 72
1, 693769, Note_off_c, 0, 60, 57
1, 693773, Note_off_c, 0, 55, 63
1, 693775, Note_on_c, 0, 54, 78
1, 693841, Note_on_c, 0, 55, 79
1, 693888, Note_on_c, 0, 52, 82
1, 693895, Note_off_c, 0, 54, 57
1, 693898, Note_off_c, 0, 55, 63
1, 693948, Note_on_c, 0, 60, 101
1, 693976, Note_off_c, 0, 52, 57
1, 694036, Note_on_c, 0, 55, 80
1, 694045, Note_off_c, 0, 67, 59
1, 694077, Note_off_c, 0, 60, 60
1, 694082, Note_on_c, 0, 52, 76
1, 694114, Note_off_c, 0, 55, 60
1, 694133, Note_on_c, 0, 54, 83
1, 694176, Note_off_c, 0, 52, 65
1, 694200, Note_on_c, 0, 55, 90
1, 694254, Note_off_c, 0, 54, 64
1, 694255, Note_on_c, 0, 52, 76
1, 694259, Note_off_c, 0, 55, 64
1, 694290, Note_off_c, 0, 52, 66
1, 694303, Note_on_c, 0, 59, 102
1, 694390, Note_off_c, 0, 59, 60
1, 694419, Note_on_c, 0, 47, 86
1, 694420, Note_on_c, 0, 35, 82
1, 694422, Control_c, 0, 64, 84
1, 694425, Note_on_c, 0, 63, 101
1, 694432, Note_on_c, 0, 57, 96
1, 694437, Control_c, 0, 64, 55
1, 694452, Control_c, 0, 64, 0
1, 694491, Note_off_c, 0, 35, 62
1, 694511, Control_c, 0, 64, 56
1, 694526, Control_c, 0, 64, 72
1, 694537, Note_off_c, 0, 47, 62
1, 694541, Control_c, 0, 64, 102
1, 694556, Control_c, 0, 64, 127
1, 694614, Note_off_c, 0, 57, 64
1, 694622, Note_on_c, 0, 54, 54
1, 694689, Note_on_c, 0, 57, 76
1, 694717, Note_off_c, 0, 54, 34
1, 694741, Note_on_c, 0, 56, 79
1, 694743, Note_off_c, 0, 57, 62
1, 694824, Note_on_c, 0, 57, 74
1, 694831, Note_off_c, 0, 56, 65
1, 694865, Note_on_c, 0, 54, 79
1, 694876, Note_off_c, 0, 57, 64
1, 694909, Note_on_c, 0, 59, 103
1, 694928, Note_off_c, 0, 54, 61
1, 694993, Note_on_c, 0, 57, 82
1, 695041, Note_on_c, 0, 54, 75
1, 695086, Note_off_c, 0, 57, 58
1, 695099, Note_off_c, 0, 59, 56
1, 695101, Note_on_c, 0, 55, 82
1, 695132, Note_off_c, 0, 63, 52
1, 695152, Note_off_c, 0, 54, 63
1, 695176, Note_on_c, 0, 57, 87
1, 695227, Note_on_c, 0, 54, 82
1, 695233, Note_off_c, 0, 55, 62
1, 695239, Note_off_c, 0, 57, 66
1, 695273, Note_off_c, 0, 54, 66
1, 695306, Note_on_c, 0, 64, 103
1, 695486, Note_off_c, 0, 64, 55
1, 695526, Note_on_c, 0, 40, 72
1, 695528, Note_on_c, 0, 28, 69
1, 695577, Control_c, 0, 64, 87
1, 695589, Note_on_c, 0, 64, 91
1, 695592, Control_c, 0, 64, 61
1, 695605, Note_on_c, 0, 55, 83
1, 695607, Control_c, 0, 64, 0
1, 695671, Note_off_c, 0, 28, 63
1, 695696, Control_c, 0, 64, 50
1, 695712, Note_off_c, 0, 40, 64
1, 695713, Control_c, 0, 64, 69
1, 695727, Control_c, 0, 64, 93
1, 695742, Control_c, 0, 64, 127
1, 695769, Note_off_c, 0, 55, 61
1, 695846, Control_c, 0, 67, 17
1, 695850, Note_on_c, 0, 47, 47
1, 695859, Note_off_c, 0, 64, 63
1, 695860, Control_c, 0, 67, 34
1, 695875, Control_c, 0, 67, 54
1, 695890, Control_c, 0, 67, 70
1, 695905, Control_c, 0, 67, 87
1, 695920, Control_c, 0, 67, 104
1, 695934, Control_c, 0, 67, 118
1, 695939, Note_on_c, 0, 55, 50
1, 695949, Control_c, 0, 67, 127
1, 696024, Note_off_c, 0, 55, 58
1, 696063, Note_on_c, 0, 54, 44
1, 696112, Control_c, 0, 64, 109
1, 696127, Control_c, 0, 64, 95
1, 696140, Note_on_c, 0, 79, 69
1, 696142, Control_c, 0, 64, 82
1, 696156, Note_off_c, 0, 47, 35
1, 696157, Control_c, 0, 64, 73
1, 696171, Control_c, 0, 64, 67
1, 696178, Note_on_c, 0, 55, 40
1, 696186, Control_c, 0, 64, 64
1, 696198, Note_on_c, 0, 76, 48
1, 696208, Control_c, 0, 64, 64
1, 696223, Control_c, 0, 64, 65
1, 696238, Control_c, 0, 64, 66
1, 696251, Note_off_c, 0, 54, 37
1, 696252, Control_c, 0, 64, 70
1, 696267, Control_c, 0, 64, 76
1, 696282, Control_c, 0, 64, 90
1, 696294, Note_off_c, 0, 76, 62
1, 696297, Control_c, 0, 64, 107
1, 696311, Note_on_c, 0, 52, 48
1, 696311, Note_off_c, 0, 55, 54
1, 696312, Control_c, 0, 64, 106
1, 696327, Control_c, 0, 64, 94
1, 696342, Control_c, 0, 64, 83
1, 696356, Control_c, 0, 64, 74
1, 696371, Control_c, 0, 64, 70
1, 696386, Control_c, 0, 64, 73
1, 696401, Control_c, 0, 64, 81
1, 696416, Control_c, 0, 64, 94
1, 696431, Note_on_c, 0, 58, 48
1, 696431, Control_c, 0, 64, 115
1, 696439, Note_on_c, 0, 78, 77
1, 696446, Control_c, 0, 64, 113
1, 696460, Control_c, 0, 64, 95
1, 696468, Note_on_c, 0, 74, 54
1, 696475, Control_c, 0, 64, 80
1, 696477, Note_off_c, 0, 58, 59
1, 696480, Note_on_c, 0, 59, 50
1, 696490, Control_c, 0, 64, 73
1, 696505, Control_c, 0, 64, 75
1, 696508, Note_off_c, 0, 52, 60
1, 696520, Control_c, 0, 64, 80
1, 696527, Note_off_c, 0, 59, 56
1, 696535, Control_c, 0, 64, 86
1, 696550, Control_c, 0, 64, 90
1, 696558, Note_on_c, 0, 55, 51
1, 696565, Control_c, 0, 64, 88
1, 696580, Control_c, 0, 64, 83
1, 696589, Note_off_c, 0, 79, 33
1, 696595, Control_c, 0, 64, 75
1, 696609, Note_off_c, 0, 55, 60
1, 696609, Control_c, 0, 64, 71
1, 696617, Note_on_c, 0, 59, 62
1, 696624, Control_c, 0, 64, 73
1, 696639, Control_c, 0, 64, 79
1, 696654, Control_c, 0, 64, 90
1, 696660, Note_on_c, 0, 76, 91
1, 696664, Note_on_c, 0, 60, 55
1, 696667, Note_on_c, 0, 72, 79
1, 696669, Control_c, 0, 64, 110
1, 696677, Note_off_c, 0, 59, 53
1, 696677, Note_off_c, 0, 74, 62
1, 696683, Control_c, 0, 64, 127
1, 696693, Note_on_c, 0, 55, 63
1, 696693, Note_off_c, 0, 60, 65
1, 696714, Note_off_c, 0, 78, 61
1, 696723, Note_off_c, 0, 55, 64
1, 696752, Note_off_c, 0, 76, 63
1, 696813, Note_on_c, 0, 42, 69
1, 696816, Control_c, 0, 64, 104
1, 696831, Control_c, 0, 64, 81
1, 696846, Note_on_c, 0, 74, 86
1, 696846, Control_c, 0, 64, 66
1, 696861, Control_c, 0, 64, 59
1, 696872, Note_on_c, 0, 71, 64
1, 696875, Control_c, 0, 64, 62
1, 696883, Note_off_c, 0, 72, 60
1, 696890, Control_c, 0, 64, 65
1, 696905, Note_on_c, 0, 50, 62
1, 696905, Control_c, 0, 64, 70
1, 696911, Note_off_c, 0, 42, 63
1, 696920, Control_c, 0, 64, 81
1, 696935, Control_c, 0, 64, 120
1, 696955, Note_off_c, 0, 50, 64
1, 696957, Control_c, 0, 64, 127
1, 696975, Note_on_c, 0, 57, 59
1, 696987, Control_c, 0, 64, 93
1, 697001, Control_c, 0, 64, 76
1, 697012, Note_off_c, 0, 57, 54
1, 697016, Control_c, 0, 64, 67
1, 697031, Control_c, 0, 64, 65
1, 697046, Control_c, 0, 64, 69
1, 697050, Note_on_c, 0, 72, 84
1, 697059, Note_off_c, 0, 71, 62
1, 697060, Note_on_c, 0, 69, 76
1, 697061, Control_c, 0, 64, 77
1, 697075, Control_c, 0, 64, 92
1, 697081, Note_on_c, 0, 56, 16
1, 697081, Note_off_c, 0, 74, 61
1, 697090, Control_c, 0, 64, 127
1, 697119, Note_on_c, 0, 57, 61
1, 697126, Note_off_c, 0, 56, 49
1, 697133, Note_off_c, 0, 72, 65
1, 697149, Control_c, 0, 64, 105
1, 697164, Control_c, 0, 64, 79
1, 697177, Note_on_c, 0, 50, 64
1, 697177, Note_off_c, 0, 57, 62
1, 697179, Control_c, 0, 64, 64
1, 697194, Control_c, 0, 64, 52
1, 697208, Control_c, 0, 64, 59
1, 697223, Control_c, 0, 64, 65
1, 697227, Note_on_c, 0, 71, 85
1, 697238, Control_c, 0, 64, 75
1, 697239, Note_on_c, 0, 57, 56
1, 697242, Note_off_c, 0, 50, 63
1, 697253, Control_c, 0, 64, 99
1, 697255, Note_on_c, 0, 67, 58
1, 697257, Note_off_c, 0, 69, 61
1, 697268, Control_c, 0, 64, 127
1, 697286, Note_off_c, 0, 57, 64
1, 697289, Note_off_c, 0, 67, 65
1, 697312, Note_on_c, 0, 59, 63
1, 697313, Control_c, 0, 64, 89
1, 697328, Control_c, 0, 64, 70
1, 697343, Control_c, 0, 64, 60
1, 697352, Note_on_c, 0, 51, 65
1, 697355, Note_off_c, 0, 59, 58
1, 697357, Control_c, 0, 64, 61
1, 697372, Control_c, 0, 64, 67
1, 697387, Control_c, 0, 64, 76
1, 697402, Control_c, 0, 64, 105
1, 697415, Note_on_c, 0, 59, 53
1, 697416, Note_on_c, 0, 69, 76
1, 697417, Control_c, 0, 64, 127
1, 697425, Note_off_c, 0, 51, 62
1, 697441, Note_on_c, 0, 66, 52
1, 697446, Note_off_c, 0, 59, 65
1, 697452, Note_off_c, 0, 71, 60
1, 697471, Note_on_c, 0, 60, 56
1, 697483, Note_off_c, 0, 66, 59
1, 697501, Note_off_c, 0, 60, 66
1, 697554, Note_on_c, 0, 51, 60
1, 697579, Control_c, 0, 64, 110
1, 697594, Control_c, 0, 64, 81
1, 697609, Control_c, 0, 64, 63
1, 697616, Note_off_c, 0, 51, 54
1, 697623, Control_c, 0, 64, 25
1, 697628, Note_off_c, 0, 69, 58
1, 697629, Note_on_c, 0, 67, 60
1, 697632, Note_on_c, 0, 43, 51
1, 697638, Control_c, 0, 64, 11
1, 697645, Note_on_c, 0, 64, 50
1, 697653, Control_c, 0, 64, 45
1, 697668, Control_c, 0, 64, 58
1, 697683, Control_c, 0, 64, 67
1, 697698, Control_c, 0, 64, 76
1, 697720, Control_c, 0, 64, 95
1, 697734, Note_off_c, 0, 43, 61
1, 697735, Control_c, 0, 64, 127
1, 697744, Note_on_c, 0, 52, 56
1, 697764, Note_off_c, 0, 67, 61
1, 697789, Note_off_c, 0, 52, 59
1, 697826, Note_on_c, 0, 59, 51
1, 697874, Note_off_c, 0, 59, 54
1, 697898, Note_on_c, 0, 76, 70
1, 697905, Note_on_c, 0, 58, 53
1, 697936, Note_off_c, 0, 58, 64
1, 697966, Note_on_c, 0, 59, 47
1, 697995, Note_off_c, 0, 59, 63
1, 698031, Note_off_c, 0, 64, 58
1, 698032, Note_on_c, 0, 52, 52
1, 698076, Control_c, 0, 64, 88
1, 698079, Note_on_c, 0, 45, 64
1, 698091, Control_c, 0, 64, 67
1, 698101, Note_on_c, 0, 74, 73
1, 698106, Control_c, 0, 64, 51
1, 698121, Control_c, 0, 64, 51
1, 698127, Note_on_c, 0, 71, 56
1, 698136, Control_c, 0, 64, 61
1, 698139, Note_off_c, 0, 52, 0
1, 698151, Control_c, 0, 64, 67
1, 698152, Note_off_c, 0, 76, 60
1, 698158, Note_on_c, 0, 52, 28
1, 698159, Note_off_c, 0, 45, 63
1, 698166, Control_c, 0, 64, 74
1, 698180, Control_c, 0, 64, 92
1, 698194, Note_on_c, 0, 57, 61
1, 698195, Control_c, 0, 64, 127
1, 698241, Note_off_c, 0, 57, 64
1, 698250, Note_on_c, 0, 56, 63
1, 698285, Note_off_c, 0, 52, 51
1, 698303, Note_on_c, 0, 72, 76
1, 698307, Note_off_c, 0, 71, 62
1, 698313, Note_on_c, 0, 57, 52
1, 698316, Note_on_c, 0, 69, 69
1, 698318, Note_off_c, 0, 56, 63
1, 698329, Note_off_c, 0, 74, 61
1, 698364, Note_off_c, 0, 57, 51
1, 698380, Note_off_c, 0, 72, 64
1, 698384, Note_on_c, 0, 53, 64
1, 698467, Note_on_c, 0, 59, 59
1, 698469, Control_c, 0, 64, 119
1, 698479, Note_off_c, 0, 53, 62
1, 698484, Control_c, 0, 64, 84
1, 698492, Note_on_c, 0, 71, 73
1, 698499, Control_c, 0, 64, 67
1, 698503, Note_off_c, 0, 69, 60
1, 698505, Note_off_c, 0, 59, 65
1, 698512, Note_on_c, 0, 67, 52
1, 698514, Control_c, 0, 64, 58
1, 698528, Control_c, 0, 64, 61
1, 698543, Control_c, 0, 64, 64
1, 698558, Note_off_c, 0, 67, 57
1, 698558, Control_c, 0, 64, 67
1, 698573, Control_c, 0, 64, 73
1, 698587, Control_c, 0, 64, 89
1, 698596, Note_on_c, 0, 57, 45
1, 698602, Control_c, 0, 64, 127
1, 698607, Poly_aftertouch_c, 0, 60, 0
1, 698647, Control_c, 0, 67, 124
1, 698652, Note_on_c, 0, 63, 56
1, 698661, Control_c, 0, 67, 120
1, 698676, Control_c, 0, 67, 115
1, 698691, Control_c, 0, 67, 109
1, 698706, Control_c, 0, 67, 103
1, 698709, Note_on_c, 0, 69, 72
1, 698717, Note_off_c, 0, 63, 48
1, 698720, Control_c, 0, 67, 97
1, 698722, Note_on_c, 0, 64, 51
1, 698733, Note_on_c, 0, 66, 52
1, 698735, Control_c, 0, 67, 94
1, 698741, Note_off_c, 0, 71, 58
1, 698750, Control_c, 0, 67, 90
1, 698759, Note_off_c, 0, 64, 64
1, 698765, Control_c, 0, 67, 87
1, 698768, Note_on_c, 0, 60, 54
1, 698780, Control_c, 0, 67, 84
1, 698784, Note_off_c, 0, 57, 63
1, 698786, Note_off_c, 0, 66, 53
1, 698795, Control_c, 0, 67, 79
1, 698796, Note_off_c, 0, 60, 65
1, 698810, Control_c, 0, 67, 74
1, 698825, Control_c, 0, 67, 69
1, 698840, Control_c, 0, 67, 63
1, 698854, Control_c, 0, 67, 57
1, 698869, Control_c, 0, 67, 52
1, 698881, Note_on_c, 0, 47, 62
1, 698884, Control_c, 0, 67, 47
1, 698899, Control_c, 0, 64, 99
1, 698899, Control_c, 0, 67, 42
1, 698914, Control_c, 0, 64, 77
1, 698914, Control_c, 0, 67, 38
1, 698923, Note_on_c, 0, 67, 54
1, 698929, Control_c, 0, 64, 66
1, 698929, Control_c, 0, 67, 33
1, 698944, Control_c, 0, 64, 66
1, 698944, Control_c, 0, 67, 27
1, 698945, Note_off_c, 0, 69, 55
1, 698952, Note_on_c, 0, 64, 43
1, 698959, Control_c, 0, 64, 70
1, 698959, Control_c, 0, 67, 21
1, 698974, Control_c, 0, 64, 78
1, 698974, Control_c, 0, 67, 12
1, 698989, Control_c, 0, 64, 94
1, 698989, Control_c, 0, 67, 0
1, 699003, Control_c, 0, 64, 127
1, 699004, Note_off_c, 0, 47, 38
1, 699009, Note_on_c, 0, 57, 56
1, 699014, Note_off_c, 0, 64, 61
1, 699054, Note_off_c, 0, 57, 60
1, 699075, Note_on_c, 0, 59, 48
1, 699115, Note_off_c, 0, 59, 59
1, 699142, Note_on_c, 0, 57, 48
1, 699144, Note_off_c, 0, 67, 62
1, 699165, Note_on_c, 0, 66, 55
1, 699174, Note_on_c, 0, 63, 33
1, 699183, Note_off_c, 0, 57, 62
1, 699215, Note_off_c, 0, 66, 61
1, 699215, Note_off_c, 0, 63, 50
1, 699224, Note_on_c, 0, 59, 55
1, 699325, Note_off_c, 0, 59, 63
1, 699343, Note_on_c, 0, 47, 74
1, 699399, Note_off_c, 0, 47, 65
1, 699419, Note_on_c, 0, 83, 106
1, 699423, Note_on_c, 0, 71, 104
1, 699435, Poly_aftertouch_c, 0, 45, 0
1, 699452, Note_off_c, 0, 71, 65
1, 699478, Note_off_c, 0, 83, 64
1, 699593, Note_on_c, 0, 87, 18
1, 699634, Control_c, 0, 64, 102
1, 699636, Note_on_c, 0, 40, 102
1, 699636, Note_off_c, 0, 87, 38
1, 699638, Note_on_c, 0, 28, 97
1, 699647, Note_on_c, 0, 91, 103
1, 699649, Note_on_c, 0, 79, 107
1, 699649, Control_c, 0, 64, 57
1, 699650, Note_on_c, 0, 88, 95
1, 699664, Control_c, 0, 64, 0
1, 699709, Control_c, 0, 64, 44
1, 699724, Control_c, 0, 64, 79
1, 699728, Note_off_c, 0, 28, 63
1, 699737, Note_off_c, 0, 91, 66
1, 699739, Control_c, 0, 64, 127
1, 699744, Note_off_c, 0, 40, 65
1, 699752, Note_off_c, 0, 88, 68
1, 699757, Note_off_c, 0, 79, 68
1, 699865, Note_on_c, 0, 71, 77
1, 699892, Note_on_c, 0, 55, 63
1, 699907, Note_on_c, 0, 79, 69
1, 699922, Note_off_c, 0, 71, 61
1, 699925, Note_on_c, 0, 48, 14
1, 699962, Note_on_c, 0, 78, 80
1, 699966, Note_on_c, 0, 54, 70
1, 699969, Note_off_c, 0, 79, 64
1, 699974, Note_off_c, 0, 48, 48
1, 699978, Note_off_c, 0, 55, 54
1, 699982, Poly_aftertouch_c, 0, 51, 0
1, 700011, Note_on_c, 0, 52, 66
1, 700017, Note_on_c, 0, 79, 71
1, 700042, Note_off_c, 0, 54, 64
1, 700044, Note_off_c, 0, 52, 62
1, 700057, Note_on_c, 0, 76, 84
1, 700059, Note_off_c, 0, 78, 64
1, 700071, Note_off_c, 0, 79, 67
1, 700081, Note_off_c, 0, 76, 69
1, 700168, Note_on_c, 0, 67, 79
1, 700170, Note_on_c, 0, 55, 75
1, 700184, Note_on_c, 0, 91, 86
1, 700187, Note_on_c, 0, 79, 77
1, 700236, Note_on_c, 0, 64, 64
1, 700243, Note_off_c, 0, 67, 58
1, 700244, Note_off_c, 0, 55, 61
1, 700245, Note_on_c, 0, 88, 82
1, 700267, Note_off_c, 0, 79, 64
1, 700276, Note_on_c, 0, 63, 57
1, 700292, Note_off_c, 0, 91, 66
1, 700309, Note_off_c, 0, 64, 62
1, 700309, Note_on_c, 0, 87, 86
1, 700333, Note_off_c, 0, 88, 65
1, 700361, Note_off_c, 0, 63, 64
1, 700363, Note_on_c, 0, 55, 87
1, 700365, Note_on_c, 0, 67, 91
1, 700373, Note_off_c, 0, 87, 61
1, 700376, Note_on_c, 0, 79, 93
1, 700376, Note_on_c, 0, 91, 101
1, 700440, Note_on_c, 0, 87, 87
1, 700443, Note_off_c, 0, 79, 61
1, 700448, Note_on_c, 0, 63, 77
1, 700455, Note_off_c, 0, 55, 63
1, 700459, Note_off_c, 0, 67, 60
1, 700470, Note_on_c, 0, 62, 73
1, 700481, Note_off_c, 0, 91, 63
1, 700492, Note_on_c, 0, 86, 81
1, 700509, Note_off_c, 0, 63, 62
1, 700515, Note_off_c, 0, 87, 64
1, 700536, Note_off_c, 0, 62, 0
1, 700553, Note_on_c, 0, 67, 95
1, 700553, Note_on_c, 0, 91, 104
1, 700557, Note_on_c, 0, 79, 85
1, 700558, Note_on_c, 0, 55, 81
1, 700561, Note_on_c, 0, 81, 88
1, 700562, Control_c, 0, 64, 125
1, 700573, Note_off_c, 0, 86, 65
1, 700576, Poly_aftertouch_c, 0, 62, 0
1, 700576, Control_c, 0, 64, 122
1, 700591, Control_c, 0, 64, 127
1, 700608, Note_off_c, 0, 81, 59
1, 700610, Note_off_c, 0, 79, 63
1, 700616, Note_on_c, 0, 87, 84
1, 700632, Note_off_c, 0, 67, 59
1, 700643, Note_on_c, 0, 62, 69
1, 700664, Note_off_c, 0, 91, 62
1, 700681, Note_on_c, 0, 85, 85
1, 700703, Note_off_c, 0, 62, 66
1, 700713, Note_off_c, 0, 87, 55
1, 700720, Note_off_c, 0, 55, 61
1, 700749, Note_off_c, 0, 85, 66
1, 700750, Note_on_c, 0, 79, 78
1, 700783, Note_on_c, 0, 53, 71
1, 700792, Note_off_c, 0, 79, 61
1, 700813, Note_on_c, 0, 55, 21
1, 700833, Note_on_c, 0, 73, 84
1, 700846, Note_off_c, 0, 55, 33
1, 700851, Note_on_c, 0, 49, 78
1, 700859, Note_off_c, 0, 53, 62
1, 700879, Note_on_c, 0, 72, 81
1, 700879, Note_off_c, 0, 73, 64
1, 700908, Note_off_c, 0, 49, 62
1, 700911, Note_on_c, 0, 48, 48
1, 700930, Note_on_c, 0, 47, 23
1, 700940, Note_off_c, 0, 72, 61
1, 700943, Note_on_c, 0, 73, 88
1, 700953, Note_off_c, 0, 48, 62
1, 700962, Note_on_c, 0, 49, 71
1, 700965, Note_off_c, 0, 47, 45
1, 700998, Control_c, 0, 64, 92
1, 701004, Note_on_c, 0, 72, 83
1, 701013, Control_c, 0, 64, 79
1, 701016, Note_on_c, 0, 48, 70
1, 701018, Note_off_c, 0, 73, 65
1, 701028, Control_c, 0, 64, 85
1, 701042, Control_c, 0, 64, 127
1, 701045, Note_on_c, 0, 47, 76
1, 701050, Note_off_c, 0, 49, 63
1, 701061, Note_off_c, 0, 72, 65
1, 701063, Note_on_c, 0, 71, 81
1, 701076, Note_off_c, 0, 48, 64
1, 701111, Note_on_c, 0, 72, 78
1, 701123, Note_off_c, 0, 71, 61
1, 701126, Note_on_c, 0, 48, 69
1, 701131, Note_off_c, 0, 47, 62
1, 701173, Note_on_c, 0, 70, 81
1, 701180, Note_on_c, 0, 46, 77
1, 701184, Note_off_c, 0, 72, 63
1, 701191, Note_off_c, 0, 48, 62
1, 701192, Note_off_c, 0, 70, 72
1, 701209, Note_off_c, 0, 46, 68
1, 701278, Note_on_c, 0, 71, 105
1, 701278, Note_on_c, 0, 83, 106
1, 701302, Note_off_c, 0, 71, 64
1, 701312, Note_on_c, 0, 81, 42
1, 701313, Note_off_c, 0, 81, 127
1, 701326, Note_off_c, 0, 83, 66
1, 701413, Control_c, 0, 64, 122
1, 701415, Note_on_c, 0, 40, 109
1, 701418, Note_on_c, 0, 28, 96
1, 701428, Control_c, 0, 64, 64
1, 701450, Note_on_c, 0, 79, 104
1, 701451, Note_on_c, 0, 88, 98
1, 701451, Note_on_c, 0, 91, 99
1, 701451, Control_c, 0, 64, 0
1, 701495, Control_c, 0, 64, 17
1, 701507, Note_off_c, 0, 28, 63
1, 701510, Control_c, 0, 64, 68
1, 701522, Note_off_c, 0, 91, 66
1, 701525, Control_c, 0, 64, 127
1, 701529, Note_off_c, 0, 40, 65
1, 701535, Note_off_c, 0, 88, 66
1, 701542, Note_off_c, 0, 79, 66
1, 701642, Note_on_c, 0, 71, 74
1, 701669, Note_on_c, 0, 55, 72
1, 701677, Note_on_c, 0, 79, 74
1, 701677, Note_on_c, 0, 47, 36
1, 701688, Note_on_c, 0, 48, 44
1, 701718, Note_off_c, 0, 71, 56
1, 701720, Note_on_c, 0, 78, 81
1, 701729, Note_off_c, 0, 47, 59
1, 701731, Note_off_c, 0, 48, 52
1, 701734, Note_on_c, 0, 54, 71
1, 701740, Note_off_c, 0, 79, 62
1, 701767, Note_off_c, 0, 55, 61
1, 701777, Note_on_c, 0, 52, 64
1, 701783, Note_on_c, 0, 79, 69
1, 701803, Note_off_c, 0, 54, 63
1, 701808, Note_off_c, 0, 52, 65
1, 701815, Note_off_c, 0, 78, 65
1, 701816, Note_on_c, 0, 76, 83
1, 701832, Note_off_c, 0, 79, 67
1, 701838, Note_off_c, 0, 76, 70
1, 701921, Note_on_c, 0, 67, 82
1, 701926, Note_on_c, 0, 55, 68
1, 701938, Note_on_c, 0, 91, 93
1, 701940, Note_on_c, 0, 79, 85
1, 701989, Note_on_c, 0, 64, 70
1, 701993, Note_on_c, 0, 88, 78
1, 701998, Note_off_c, 0, 55, 62
1, 702007, Note_off_c, 0, 67, 60
1, 702018, Note_off_c, 0, 79, 62
1, 702031, Note_off_c, 0, 91, 64
1, 702035, Note_on_c, 0, 63, 68
1, 702046, Note_on_c, 0, 87, 65
1, 702066, Note_off_c, 0, 64, 62
1, 702106, Note_on_c, 0, 79, 86
1, 702110, Note_on_c, 0, 55, 81
1, 702110, Note_off_c, 0, 63, 63
1, 702111, Note_on_c, 0, 91, 87
1, 702114, Note_on_c, 0, 67, 82
1, 702123, Note_off_c, 0, 87, 41
1, 702136, Note_on_c, 0, 86, 74
1, 702145, Note_off_c, 0, 91, 60
1, 702148, Note_off_c, 0, 79, 67
1, 702170, Note_on_c, 0, 63, 66
1, 702175, Note_off_c, 0, 88, 66
1, 702200, Note_off_c, 0, 55, 61
1, 702208, Note_off_c, 0, 67, 59
1, 702214, Note_on_c, 0, 62, 73
1, 702226, Note_on_c, 0, 90, 99
1, 702230, Note_on_c, 0, 78, 97
1, 702265, Note_off_c, 0, 63, 53
1, 702267, Note_on_c, 0, 88, 14
1, 702319, Note_off_c, 0, 78, 63
1, 702328, Note_off_c, 0, 62, 60
1, 702329, Note_off_c, 0, 88, 40
1, 702355, Note_on_c, 0, 55, 60
1, 702355, Note_on_c, 0, 67, 68
1, 702360, Note_off_c, 0, 90, 62
1, 702373, Note_off_c, 0, 86, 58
1, 702386, Note_on_c, 0, 88, 50
1, 702400, Note_on_c, 0, 91, 87
1, 702405, Note_on_c, 0, 79, 80
1, 702434, Note_off_c, 0, 67, 60
1, 702461, Note_on_c, 0, 62, 65
1, 702462, Note_off_c, 0, 88, 65
1, 702470, Note_off_c, 0, 91, 63
1, 702485, Note_off_c, 0, 79, 64
1, 702537, Note_on_c, 0, 61, 74
1, 702548, Note_off_c, 0, 62, 63
1, 702561, Note_off_c, 0, 61, 67
1, 702572, Note_off_c, 0, 55, 56
1, 702574, Note_on_c, 0, 88, 84
1, 702575, Note_on_c, 0, 76, 94
1, 702576, Note_on_c, 0, 85, 82
1, 702596, Note_off_c, 0, 76, 67
1, 702607, Note_off_c, 0, 88, 62
1, 702608, Note_off_c, 0, 85, 61
1, 702627, Note_on_c, 0, 55, 64
1, 702691, Note_on_c, 0, 79, 95
1, 702691, Note_on_c, 0, 91, 100
1, 702695, Note_on_c, 0, 88, 91
1, 702715, Note_off_c, 0, 88, 72
1, 702716, Note_on_c, 0, 49, 53
1, 702717, Note_off_c, 0, 79, 66
1, 702718, Note_off_c, 0, 91, 66
1, 702720, Note_off_c, 0, 55, 63
1, 702733, Note_on_c, 0, 50, 63
1, 702759, Note_off_c, 0, 50, 66
1, 702791, Note_on_c, 0, 75, 101
1, 702794, Note_on_c, 0, 87, 94
1, 702798, Note_on_c, 0, 48, 61
1, 702802, Note_on_c, 0, 84, 75
1, 702810, Note_off_c, 0, 49, 0
1, 702820, Note_off_c, 0, 75, 59
1, 702820, Note_off_c, 0, 87, 61
1, 702823, Note_off_c, 0, 84, 71
1, 702825, Note_on_c, 0, 49, 55
1, 702837, Note_off_c, 0, 48, 63
1, 702894, Note_on_c, 0, 79, 96
1, 702895, Note_on_c, 0, 91, 92
1, 702898, Note_on_c, 0, 81, 97
1, 702900, Note_on_c, 0, 89, 79
1, 702900, Note_on_c, 0, 48, 79
1, 702905, Note_on_c, 0, 88, 75
1, 702913, Note_off_c, 0, 81, 76
1, 702914, Note_on_c, 0, 93, 60
1, 702915, Note_off_c, 0, 93, 127
1, 702915, Note_off_c, 0, 91, 67
1, 702920, Note_off_c, 0, 89, 71
1, 702923, Note_off_c, 0, 88, 73
1, 702927, Note_off_c, 0, 79, 66
1, 702950, Note_off_c, 0, 49, 57
1, 702990, Note_on_c, 0, 47, 81
1, 703000, Note_on_c, 0, 72, 109
1, 703006, Note_on_c, 0, 84, 82
1, 703009, Note_on_c, 0, 81, 71
1, 703011, Note_on_c, 0, 83, 83
1, 703015, Note_on_c, 0, 80, 73
1, 703022, Note_off_c, 0, 48, 62
1, 703027, Note_off_c, 0, 72, 64
1, 703030, Note_off_c, 0, 80, 65
1, 703030, Note_off_c, 0, 83, 72
1, 703034, Note_off_c, 0, 81, 70
1, 703035, Note_off_c, 0, 84, 63
1, 703078, Note_off_c, 0, 47, 59
1, 703105, Note_on_c, 0, 79, 113
1, 703105, Note_on_c, 0, 91, 104
1, 703109, Note_on_c, 0, 88, 90
1, 703112, Note_on_c, 0, 48, 85
1, 703125, Note_on_c, 0, 89, 56
1, 703126, Note_off_c, 0, 89, 127
1, 703174, Note_off_c, 0, 79, 61
1, 703180, Note_off_c, 0, 91, 64
1, 703204, Note_off_c, 0, 88, 64
1, 703216, Note_on_c, 0, 46, 96
1, 703241, Note_off_c, 0, 48, 64
1, 703307, Note_off_c, 0, 46, 63
1, 703436, Note_on_c, 0, 47, 102
1, 703439, Note_on_c, 0, 83, 108
1, 703441, Note_on_c, 0, 71, 111
1, 703466, Note_off_c, 0, 71, 64
1, 703480, Note_off_c, 0, 47, 65
1, 703484, Note_on_c, 0, 75, 25
1, 703485, Note_off_c, 0, 75, 127
1, 703489, Note_off_c, 0, 83, 58
1, 703665, Note_on_c, 0, 40, 105
1, 703669, Note_on_c, 0, 28, 97
1, 703669, Note_on_c, 0, 88, 95
1, 703670, Note_on_c, 0, 79, 109
1, 703671, Note_on_c, 0, 91, 105
1, 703675, Control_c, 0, 64, 68
1, 703698, Control_c, 0, 64, 0
1, 703704, Note_on_c, 0, 85, 40
1, 703732, Note_off_c, 0, 85, 34
1, 703757, Control_c, 0, 64, 62
1, 703758, Note_off_c, 0, 28, 64
1, 703764, Note_off_c, 0, 91, 65
1, 703772, Control_c, 0, 64, 127
1, 703777, Note_off_c, 0, 88, 65
1, 703784, Note_off_c, 0, 79, 69
1, 703790, Note_off_c, 0, 40, 67
1, 703896, Note_on_c, 0, 71, 80
1, 703910, Note_on_c, 0, 47, 66
1, 703941, Note_on_c, 0, 79, 78
1, 703946, Note_on_c, 0, 55, 70
1, 703953, Note_off_c, 0, 71, 61
1, 703998, Note_on_c, 0, 78, 78
1, 704003, Note_off_c, 0, 47, 58
1, 704004, Note_off_c, 0, 79, 64
1, 704008, Note_on_c, 0, 54, 74
1, 704040, Note_off_c, 0, 55, 61
1, 704050, Note_on_c, 0, 52, 81
1, 704057, Note_on_c, 0, 79, 82
1, 704069, Note_off_c, 0, 54, 65
1, 704083, Note_off_c, 0, 52, 65
1, 704092, Note_off_c, 0, 78, 63
1, 704116, Note_on_c, 0, 76, 93
1, 704135, Note_off_c, 0, 79, 64
1, 704197, Note_on_c, 0, 79, 91
1, 704205, Note_off_c, 0, 76, 58
1, 704212, Note_on_c, 0, 67, 84
1, 704214, Note_on_c, 0, 55, 79
1, 704282, Note_on_c, 0, 61, 76
1, 704289, Note_off_c, 0, 67, 60
1, 704294, Note_off_c, 0, 55, 61
1, 704316, Note_on_c, 0, 60, 73
1, 704359, Note_off_c, 0, 61, 60
1, 704363, Note_off_c, 0, 79, 56
1, 704384, Note_on_c, 0, 67, 83
1, 704388, Note_off_c, 0, 60, 65
1, 704402, Note_on_c, 0, 55, 68
1, 704408, Note_off_c, 0, 67, 69
1, 704445, Note_on_c, 0, 60, 77
1, 704494, Note_on_c, 0, 59, 69
1, 704497, Note_off_c, 0, 55, 60
1, 704507, Note_off_c, 0, 60, 65
1, 704524, Note_off_c, 0, 59, 65
1, 704526, Note_on_c, 0, 81, 100
1, 704527, Note_on_c, 0, 78, 94
1, 704527, Note_on_c, 0, 69, 106
1, 704608, Note_off_c, 0, 69, 59
1, 704625, Note_off_c, 0, 81, 63
1, 704650, Note_on_c, 0, 40, 92
1, 704654, Note_off_c, 0, 78, 61
1, 704700, Note_on_c, 0, 83, 103
1, 704701, Note_on_c, 0, 71, 108
1, 704702, Note_on_c, 0, 79, 87
1, 704728, Control_c, 0, 64, 68
1, 704743, Control_c, 0, 64, 0
1, 704815, Note_off_c, 0, 40, 62
1, 704816, Note_on_c, 0, 47, 70
1, 704816, Control_c, 0, 64, 57
1, 704831, Control_c, 0, 64, 73
1, 704846, Control_c, 0, 64, 127
1, 704882, Note_off_c, 0, 47, 62
1, 704892, Note_off_c, 0, 83, 55
1, 704899, Note_on_c, 0, 55, 73
1, 704914, Note_off_c, 0, 71, 53
1, 704977, Note_on_c, 0, 54, 88
1, 704984, Note_off_c, 0, 55, 62
1, 705037, Note_off_c, 0, 79, 34
1, 705052, Note_on_c, 0, 55, 82
1, 705064, Note_off_c, 0, 54, 63
1, 705118, Note_on_c, 0, 52, 87
1, 705129, Note_off_c, 0, 55, 65
1, 705159, Note_off_c, 0, 52, 67
1, 705265, Note_on_c, 0, 38, 93
1, 705295, Note_on_c, 0, 78, 86
1, 705296, Note_on_c, 0, 69, 101
1, 705297, Note_on_c, 0, 81, 94
1, 705299, Control_c, 0, 64, 74
1, 705314, Control_c, 0, 64, 27
1, 705326, Note_on_c, 0, 79, 48
1, 705327, Note_off_c, 0, 79, 127
1, 705329, Control_c, 0, 64, 0
1, 705344, Control_c, 0, 64, 39
1, 705359, Control_c, 0, 64, 60
1, 705372, Control_c, 0, 64, 77
1, 705386, Control_c, 0, 64, 127
1, 705393, Note_off_c, 0, 38, 64
1, 705413, Note_on_c, 0, 50, 76
1, 705436, Note_off_c, 0, 78, 66
1, 705442, Note_off_c, 0, 50, 66
1, 705442, Note_off_c, 0, 69, 62
1, 705444, Note_off_c, 0, 81, 66
1, 705516, Note_on_c, 0, 60, 89
1, 705518, Note_on_c, 0, 67, 103
1, 705519, Note_on_c, 0, 79, 104
1, 705521, Note_on_c, 0, 76, 93
1, 705588, Note_on_c, 0, 59, 80
1, 705603, Note_off_c, 0, 67, 63
1, 705618, Note_off_c, 0, 79, 63
1, 705621, Note_off_c, 0, 76, 64
1, 705623, Poly_aftertouch_c, 0, 73, 0
1, 705626, Note_off_c, 0, 60, 60
1, 705639, Note_off_c, 0, 59, 65
1, 705680, Note_on_c, 0, 81, 100
1, 705682, Note_on_c, 0, 69, 108
1, 705684, Note_on_c, 0, 60, 75
1, 705688, Note_on_c, 0, 78, 98
1, 705694, Note_on_c, 0, 62, 62
1, 705713, Note_off_c, 0, 62, 64
1, 705735, Note_off_c, 0, 60, 66
1, 705764, Note_on_c, 0, 53, 73
1, 705773, Note_off_c, 0, 69, 60
1, 705785, Note_off_c, 0, 53, 65
1, 705799, Note_off_c, 0, 78, 58
1, 705803, Note_off_c, 0, 81, 62
1, 705901, Note_on_c, 0, 43, 99
1, 705903, Note_on_c, 0, 83, 102
1, 705904, Note_on_c, 0, 71, 116
1, 705905, Note_on_c, 0, 31, 98
1, 705905, Note_on_c, 0, 79, 82
1, 705905, Control_c, 0, 64, 73
1, 705919, Control_c, 0, 64, 0
1, 705982, Note_off_c, 0, 83, 66
1, 705986, Control_c, 0, 64, 49
1, 705994, Note_off_c, 0, 31, 65
1, 705998, Note_off_c, 0, 79, 66
1, 706001, Control_c, 0, 64, 79
1, 706007, Note_off_c, 0, 71, 68
1, 706013, Note_off_c, 0, 43, 64
1, 706016, Control_c, 0, 64, 127
1, 706019, Poly_aftertouch_c, 0, 33, 127
1, 706033, Poly_aftertouch_c, 0, 33, 0
1, 706116, Note_on_c, 0, 60, 73
1, 706137, Note_on_c, 0, 62, 62
1, 706161, Note_on_c, 0, 59, 73
1, 706161, Note_off_c, 0, 62, 61
1, 706169, Note_off_c, 0, 60, 65
1, 706173, Note_on_c, 0, 50, 36
1, 706183, Note_on_c, 0, 71, 58
1, 706187, Note_on_c, 0, 69, 63
1, 706197, Poly_aftertouch_c, 0, 48, 0
1, 706208, Note_off_c, 0, 50, 46
1, 706213, Note_off_c, 0, 59, 54
1, 706222, Poly_aftertouch_c, 0, 48, 0
1, 706229, Note_off_c, 0, 71, 63
1, 706232, Note_on_c, 0, 57, 2
1, 706277, Note_on_c, 0, 71, 79
1, 706291, Note_on_c, 0, 59, 54
1, 706293, Note_on_c, 0, 55, 77
1, 706317, Note_off_c, 0, 57, 57
1, 706317, Note_off_c, 0, 59, 64
1, 706332, Note_off_c, 0, 55, 65
1, 706333, Note_on_c, 0, 67, 89
1, 706343, Note_off_c, 0, 69, 59
1, 706351, Note_off_c, 0, 71, 62
1, 706369, Note_off_c, 0, 67, 63
1, 706445, Note_on_c, 0, 71, 86
1, 706447, Note_on_c, 0, 83, 98
1, 706509, Note_on_c, 0, 79, 87
1, 706521, Note_on_c, 0, 67, 75
1, 706548, Note_off_c, 0, 71, 60
1, 706556, Note_off_c, 0, 83, 67
1, 706575, Note_on_c, 0, 66, 74
1, 706579, Note_on_c, 0, 78, 94
1, 706605, Note_off_c, 0, 67, 63
1, 706605, Note_off_c, 0, 79, 65
1, 706644, Note_on_c, 0, 83, 104
1, 706649, Note_on_c, 0, 71, 91
1, 706650, Note_off_c, 0, 78, 61
1, 706662, Note_off_c, 0, 66, 58
1, 706688, Note_on_c, 0, 77, 38
1, 706712, Note_on_c, 0, 78, 86
1, 706715, Note_off_c, 0, 77, 55
1, 706737, Note_on_c, 0, 66, 22
1, 706745, Note_on_c, 0, 67, 69
1, 706751, Note_off_c, 0, 71, 58
1, 706757, Note_on_c, 0, 65, 79
1, 706758, Note_off_c, 0, 83, 61
1, 706770, Note_on_c, 0, 77, 92
1, 706787, Note_off_c, 0, 78, 65
1, 706789, Note_off_c, 0, 67, 59
1, 706798, Note_off_c, 0, 77, 64
1, 706808, Note_off_c, 0, 66, 35
1, 706832, Note_on_c, 0, 83, 106
1, 706836, Note_on_c, 0, 71, 95
1, 706854, Note_off_c, 0, 65, 56
1, 706895, Note_on_c, 0, 77, 86
1, 706903, Note_off_c, 0, 71, 62
1, 706917, Note_on_c, 0, 65, 70
1, 706934, Note_on_c, 0, 64, 74
1, 706946, Note_on_c, 0, 76, 93
1, 706954, Note_off_c, 0, 83, 61
1, 706965, Note_off_c, 0, 65, 62
1, 706968, Note_off_c, 0, 77, 62
1, 706972, Note_off_c, 0, 64, 61
1, 707002, Note_off_c, 0, 76, 65
1, 707008, Note_on_c, 0, 72, 76
1, 707031, Note_off_c, 0, 72, 70
1, 707047, Note_on_c, 0, 57, 69
1, 707052, Note_on_c, 0, 59, 61
1, 707079, Note_off_c, 0, 59, 66
1, 707093, Note_on_c, 0, 64, 83
1, 707093, Note_off_c, 0, 57, 60
1, 707111, Poly_aftertouch_c, 0, 71, 0
1, 707137, Note_on_c, 0, 51, 53
1, 707141, Note_on_c, 0, 50, 56
1, 707147, Note_off_c, 0, 64, 65
1, 707147, Note_on_c, 0, 63, 86
1, 707179, Note_off_c, 0, 50, 62
1, 707185, Note_off_c, 0, 51, 60
1, 707207, Note_on_c, 0, 52, 80
1, 707209, Note_on_c, 0, 64, 86
1, 707209, Note_off_c, 0, 63, 63
1, 707260, Note_on_c, 0, 63, 79
1, 707274, Note_off_c, 0, 52, 64
1, 707284, Control_c, 0, 64, 96
1, 707291, Note_on_c, 0, 49, 63
1, 707299, Note_off_c, 0, 64, 60
1, 707299, Control_c, 0, 64, 74
1, 707314, Control_c, 0, 64, 64
1, 707329, Control_c, 0, 64, 65
1, 707333, Note_on_c, 0, 62, 89
1, 707344, Control_c, 0, 64, 73
1, 707357, Note_off_c, 0, 63, 61
1, 707359, Control_c, 0, 64, 112
1, 707364, Poly_aftertouch_c, 0, 50, 127
1, 707371, Note_off_c, 0, 49, 63
1, 707372, Note_on_c, 0, 52, 75
1, 707374, Control_c, 0, 64, 127
1, 707401, Note_off_c, 0, 62, 62
1, 707410, Poly_aftertouch_c, 0, 49, 0
1, 707418, Note_on_c, 0, 49, 63
1, 707454, Poly_aftertouch_c, 0, 50, 0
1, 707457, Note_off_c, 0, 52, 63
1, 707495, Note_on_c, 0, 50, 66
1, 707533, Note_off_c, 0, 49, 63
1, 707543, Note_off_c, 0, 50, 63
1, 707586, Note_on_c, 0, 69, 90
1, 707591, Note_on_c, 0, 57, 83
1, 707642, Note_off_c, 0, 57, 62
1, 707669, Note_off_c, 0, 69, 60
1, 707741, Note_on_c, 0, 45, 65
1, 707742, Note_on_c, 0, 33, 63
1, 707782, Control_c, 0, 64, 95
1, 707796, Control_c, 0, 64, 66
1, 707809, Note_on_c, 0, 72, 81
1, 707811, Control_c, 0, 64, 0
1, 707822, Note_on_c, 0, 64, 66
1, 707824, Note_on_c, 0, 60, 68
1, 707870, Control_c, 0, 64, 11
1, 707882, Note_off_c, 0, 33, 62
1, 707885, Control_c, 0, 64, 54
1, 707900, Control_c, 0, 64, 71
1, 707914, Control_c, 0, 64, 127
1, 707928, Note_off_c, 0, 45, 63
1, 708020, Note_on_c, 0, 52, 64
1, 708077, Note_off_c, 0, 52, 60
1, 708083, Note_on_c, 0, 55, 61
1, 708120, Note_off_c, 0, 55, 63
1, 708124, Note_off_c, 0, 60, 57
1, 708125, Note_on_c, 0, 54, 70
1, 708198, Note_on_c, 0, 55, 73
1, 708223, Note_off_c, 0, 54, 55
1, 708258, Note_on_c, 0, 52, 70
1, 708260, Note_off_c, 0, 55, 62
1, 708310, Note_on_c, 0, 60, 86
1, 708342, Note_off_c, 0, 52, 60
1, 708368, Note_on_c, 0, 55, 76
1, 708387, Note_off_c, 0, 72, 61
1, 708395, Note_off_c, 0, 64, 44
1, 708415, Note_off_c, 0, 60, 62
1, 708440, Note_on_c, 0, 52, 82
1, 708451, Note_off_c, 0, 55, 62
1, 708488, Note_on_c, 0, 54, 78
1, 708525, Note_off_c, 0, 52, 62
1, 708539, Note_on_c, 0, 55, 87
1, 708602, Note_on_c, 0, 52, 85
1, 708619, Note_off_c, 0, 54, 61
1, 708620, Note_off_c, 0, 55, 64
1, 708648, Note_off_c, 0, 52, 67
1, 708660, Note_on_c, 0, 71, 106
1, 708662, Note_on_c, 0, 59, 108
1, 708697, Note_off_c, 0, 59, 66
1, 708724, Note_off_c, 0, 71, 62
1, 708772, Poly_aftertouch_c, 0, 67, 0
1, 708802, Note_on_c, 0, 47, 100
1, 708805, Note_on_c, 0, 35, 97
1, 708819, Note_on_c, 0, 63, 106
1, 708820, Note_on_c, 0, 75, 107
1, 708827, Note_on_c, 0, 69, 85
1, 708839, Note_on_c, 0, 73, 71
1, 708841, Control_c, 0, 64, 71
1, 708855, Control_c, 0, 64, 0
1, 708894, Note_off_c, 0, 73, 0
1, 708912, Note_off_c, 0, 35, 62
1, 708915, Control_c, 0, 64, 17
1, 708937, Control_c, 0, 64, 64
1, 708948, Note_off_c, 0, 47, 65
1, 708952, Control_c, 0, 64, 127
1, 708969, Poly_aftertouch_c, 0, 73, 0
1, 709043, Note_on_c, 0, 54, 80
1, 709113, Note_on_c, 0, 57, 74
1, 709121, Note_off_c, 0, 54, 64
1, 709129, Note_on_c, 0, 55, 53
1, 709136, Note_off_c, 0, 63, 56
1, 709162, Note_off_c, 0, 55, 51
1, 709165, Note_on_c, 0, 56, 87
1, 709165, Note_off_c, 0, 75, 53
1, 709173, Note_off_c, 0, 57, 64
1, 709235, Note_on_c, 0, 57, 87
1, 709281, Note_on_c, 0, 54, 86
1, 709285, Note_off_c, 0, 56, 59
1, 709293, Note_off_c, 0, 57, 66
1, 709308, Note_off_c, 0, 69, 0
1, 709327, Note_on_c, 0, 69, 37
1, 709337, Note_on_c, 0, 63, 115
1, 709351, Note_on_c, 0, 71, 63
1, 709378, Note_off_c, 0, 69, 44
1, 709415, Note_off_c, 0, 54, 61
1, 709429, Note_on_c, 0, 57, 90
1, 709502, Note_on_c, 0, 54, 90
1, 709525, Note_off_c, 0, 57, 62
1, 709528, Note_off_c, 0, 71, 46
1, 709545, Note_off_c, 0, 63, 53
1, 709552, Note_on_c, 0, 56, 84
1, 709605, Note_off_c, 0, 54, 61
1, 709614, Note_on_c, 0, 57, 101
1, 709650, Note_off_c, 0, 56, 59
1, 709683, Note_on_c, 0, 54, 87
1, 709698, Note_off_c, 0, 57, 66
1, 709738, Note_off_c, 0, 54, 68
1, 709773, Note_on_c, 0, 64, 106
1, 709773, Note_on_c, 0, 76, 109
1, 709805, Note_on_c, 0, 74, 46
1, 709806, Note_off_c, 0, 74, 127
1, 709806, Note_on_c, 0, 68, 47
1, 709831, Note_off_c, 0, 68, 58
1, 709897, Poly_aftertouch_c, 0, 71, 0
1, 709897, Poly_aftertouch_c, 0, 72, 0
1, 709908, Note_off_c, 0, 76, 65
1, 709914, Note_off_c, 0, 64, 55
1, 710003, Note_on_c, 0, 40, 110
1, 710003, Note_on_c, 0, 28, 93
1, 710011, Note_on_c, 0, 67, 75
1, 710018, Note_on_c, 0, 64, 108
1, 710018, Note_on_c, 0, 76, 103
1, 710027, Control_c, 0, 64, 72
1, 710042, Control_c, 0, 64, 0
1, 710066, Note_on_c, 0, 72, 18
1, 710067, Note_off_c, 0, 72, 127
1, 710086, Poly_aftertouch_c, 0, 34, 127
1, 710088, Control_c, 0, 64, 47
1, 710102, Control_c, 0, 64, 84
1, 710104, Poly_aftertouch_c, 0, 29, 0
1, 710112, Note_off_c, 0, 28, 64
1, 710117, Control_c, 0, 64, 127
1, 710126, Poly_aftertouch_c, 0, 34, 0
1, 710131, Note_off_c, 0, 40, 66
1, 710138, Poly_aftertouch_c, 0, 29, 0
1, 710239, Note_on_c, 0, 47, 82
1, 710266, Note_off_c, 0, 64, 55
1, 710277, Note_off_c, 0, 47, 63
1, 710294, Note_on_c, 0, 55, 62
1, 710313, Note_off_c, 0, 67, 50
1, 710316, Note_off_c, 0, 55, 60
1, 710361, Note_off_c, 0, 76, 56
1, 710391, Note_on_c, 0, 66, 77
1, 710429, Note_on_c, 0, 68, 80
1, 710452, Note_off_c, 0, 68, 67
1, 710456, Note_on_c, 0, 67, 70
1, 710496, Note_off_c, 0, 66, 0
1, 710505, Note_on_c, 0, 64, 86
1, 710515, Note_on_c, 0, 66, 28
1, 710531, Note_off_c, 0, 67, 62
1, 710550, Note_off_c, 0, 66, 57
1, 710615, Note_on_c, 0, 74, 106
1, 710632, Note_on_c, 0, 79, 90
1, 710648, Note_on_c, 0, 66, 51
1, 710704, Note_off_c, 0, 64, 60
1, 710715, Note_off_c, 0, 79, 61
1, 710725, Note_on_c, 0, 67, 65
1, 710727, Note_off_c, 0, 74, 53
1, 710738, Note_on_c, 0, 88, 83
1, 710740, Poly_aftertouch_c, 0, 68, 127
1, 710768, Poly_aftertouch_c, 0, 68, 0
1, 710779, Note_off_c, 0, 66, 36
1, 710801, Note_on_c, 0, 64, 75
1, 710813, Note_off_c, 0, 88, 65
1, 710815, Note_on_c, 0, 91, 89
1, 710825, Note_off_c, 0, 67, 0
1, 710848, Poly_aftertouch_c, 0, 65, 127
1, 710852, Note_on_c, 0, 72, 110
1, 710862, Poly_aftertouch_c, 0, 67, 127
1, 710870, Note_on_c, 0, 90, 87
1, 710874, Note_off_c, 0, 64, 56
1, 710892, Note_off_c, 0, 91, 62
1, 710914, Note_off_c, 0, 72, 68
1, 710916, Note_on_c, 0, 64, 51
1, 710921, Poly_aftertouch_c, 0, 67, 0
1, 710933, Note_on_c, 0, 91, 76
1, 710955, Note_off_c, 0, 64, 65
1, 710966, Poly_aftertouch_c, 0, 65, 0
1, 710978, Note_off_c, 0, 90, 57
1, 710987, Note_on_c, 0, 88, 94
1, 711011, Note_off_c, 0, 91, 66
1, 711027, Note_off_c, 0, 88, 68
1, 711045, Note_on_c, 0, 53, 84
1, 711089, Control_c, 0, 64, 93
1, 711096, Note_on_c, 0, 98, 111
1, 711098, Note_on_c, 0, 86, 104
1, 711104, Control_c, 0, 64, 89
1, 711119, Control_c, 0, 64, 127
1, 711129, Note_on_c, 0, 90, 41
1, 711130, Note_off_c, 0, 90, 127
1, 711150, Note_on_c, 0, 88, 8
1, 711151, Note_off_c, 0, 88, 127
1, 711178, Note_on_c, 0, 59, 67
1, 711209, Note_off_c, 0, 53, 62
1, 711237, Note_off_c, 0, 59, 63
1, 711243, Note_on_c, 0, 91, 82
1, 711247, Note_off_c, 0, 98, 67
1, 711256, Note_on_c, 0, 67, 71
1, 711260, Note_off_c, 0, 86, 63
1, 711298, Note_on_c, 0, 88, 87
1, 711301, Note_off_c, 0, 67, 60
1, 711318, Note_off_c, 0, 91, 66
1, 711344, Note_on_c, 0, 96, 102
1, 711351, Note_on_c, 0, 65, 62
1, 711356, Note_on_c, 0, 84, 91
1, 711370, Note_on_c, 0, 67, 78
1, 711373, Note_off_c, 0, 88, 67
1, 711397, Note_on_c, 0, 86, 21
1, 711398, Note_off_c, 0, 86, 127
1, 711416, Note_on_c, 0, 91, 84
1, 711422, Note_off_c, 0, 84, 65
1, 711429, Note_on_c, 0, 64, 81
1, 711435, Note_off_c, 0, 96, 67
1, 711458, Note_off_c, 0, 67, 61
1, 711462, Note_on_c, 0, 88, 74
1, 711466, Note_off_c, 0, 65, 56
1, 711482, Note_off_c, 0, 91, 62
1, 711505, Note_off_c, 0, 88, 56
1, 711516, Note_on_c, 0, 79, 83
1, 711523, Note_on_c, 0, 74, 111
1, 711540, Note_on_c, 0, 68, 70
1, 711546, Note_off_c, 0, 64, 63
1, 711557, Note_on_c, 0, 67, 70
1, 711589, Note_on_c, 0, 88, 81
1, 711592, Note_off_c, 0, 79, 63
1, 711607, Note_off_c, 0, 74, 60
1, 711621, Note_on_c, 0, 91, 88
1, 711637, Note_off_c, 0, 88, 66
1, 711640, Note_on_c, 0, 64, 74
1, 711648, Note_off_c, 0, 68, 57
1, 711669, Note_off_c, 0, 67, 53
1, 711670, Note_on_c, 0, 90, 86
1, 711684, Note_off_c, 0, 91, 64
1, 711704, Note_on_c, 0, 67, 60
1, 711705, Note_off_c, 0, 64, 0
1, 711708, Note_on_c, 0, 72, 103
1, 711719, Note_on_c, 0, 64, 60
1, 711739, Note_off_c, 0, 72, 68
1, 711741, Note_on_c, 0, 91, 88
1, 711756, Note_off_c, 0, 67, 64
1, 711774, Note_off_c, 0, 64, 65
1, 711785, Note_off_c, 0, 90, 63
1, 711795, Note_on_c, 0, 88, 88
1, 711839, Note_off_c, 0, 91, 63
1, 711872, Note_on_c, 0, 48, 85
1, 711881, Control_c, 0, 64, 98
1, 711887, Note_on_c, 0, 83, 102
1, 711887, Note_on_c, 0, 95, 102
1, 711896, Control_c, 0, 64, 66
1, 711911, Note_off_c, 0, 88, 64
1, 711911, Control_c, 0, 64, 37
1, 711934, Control_c, 0, 64, 57
1, 711941, Note_on_c, 0, 55, 74
1, 711949, Control_c, 0, 64, 71
1, 711963, Control_c, 0, 64, 107
1, 711970, Note_off_c, 0, 48, 63
1, 711978, Control_c, 0, 64, 127
1, 712003, Note_off_c, 0, 55, 63
1, 712006, Note_on_c, 0, 88, 75
1, 712010, Note_off_c, 0, 95, 65
1, 712015, Note_off_c, 0, 83, 65
1, 712021, Note_on_c, 0, 64, 66
1, 712058, Note_on_c, 0, 84, 82
1, 712071, Note_off_c, 0, 88, 65
1, 712103, Note_on_c, 0, 63, 82
1, 712104, Note_off_c, 0, 64, 55
1, 712105, Note_on_c, 0, 93, 96
1, 712113, Note_on_c, 0, 81, 85
1, 712125, Note_off_c, 0, 84, 65
1, 712146, Note_on_c, 0, 64, 62
1, 712169, Note_off_c, 0, 63, 62
1, 712173, Note_off_c, 0, 81, 65
1, 712175, Note_off_c, 0, 93, 69
1, 712176, Note_on_c, 0, 88, 79
1, 712206, Note_on_c, 0, 60, 83
1, 712219, Note_on_c, 0, 84, 74
1, 712240, Note_off_c, 0, 64, 64
1, 712242, Note_off_c, 0, 88, 64
1, 712274, Note_on_c, 0, 76, 84
1, 712274, Poly_aftertouch_c, 0, 64, 0
1, 712275, Note_off_c, 0, 84, 64
1, 712282, Note_on_c, 0, 64, 70
1, 712286, Poly_aftertouch_c, 0, 62, 127
1, 712287, Note_on_c, 0, 71, 104
1, 712305, Note_off_c, 0, 60, 65
1, 712310, Poly_aftertouch_c, 0, 62, 0
1, 712348, Note_on_c, 0, 84, 77
1, 712349, Note_off_c, 0, 76, 62
1, 712364, Note_off_c, 0, 71, 58
1, 712379, Note_on_c, 0, 88, 84
1, 712395, Note_on_c, 0, 60, 76
1, 712399, Note_off_c, 0, 84, 65
1, 712428, Note_on_c, 0, 87, 80
1, 712441, Note_off_c, 0, 88, 64
1, 712442, Note_off_c, 0, 64, 0
1, 712463, Note_on_c, 0, 69, 102
1, 712474, Note_off_c, 0, 87, 63
1, 712480, Poly_aftertouch_c, 0, 64, 127
1, 712492, Note_on_c, 0, 88, 83
1, 712504, Note_on_c, 0, 86, 58
1, 712507, Note_off_c, 0, 69, 67
1, 712521, Poly_aftertouch_c, 0, 64, 0
1, 712534, Note_on_c, 0, 84, 87
1, 712537, Note_off_c, 0, 86, 66
1, 712544, Note_off_c, 0, 60, 59
1, 712560, Note_off_c, 0, 88, 67
1, 712573, Note_off_c, 0, 84, 63
1, 712631, Control_c, 0, 64, 84
1, 712634, Note_on_c, 0, 48, 84
1, 712640, Note_on_c, 0, 95, 106
1, 712645, Note_on_c, 0, 83, 102
1, 712645, Control_c, 0, 64, 70
1, 712660, Control_c, 0, 64, 71
1, 712683, Control_c, 0, 64, 95
1, 712698, Control_c, 0, 64, 127
1, 712701, Note_on_c, 0, 55, 72
1, 712735, Note_off_c, 0, 95, 69
1, 712742, Note_off_c, 0, 48, 63
1, 712752, Note_on_c, 0, 88, 82
1, 712772, Note_off_c, 0, 55, 62
1, 712784, Note_on_c, 0, 64, 77
1, 712799, Note_off_c, 0, 83, 62
1, 712808, Note_on_c, 0, 84, 82
1, 712825, Note_off_c, 0, 88, 65
1, 712849, Note_off_c, 0, 64, 51
1, 712868, Note_on_c, 0, 93, 100
1, 712871, Note_on_c, 0, 81, 92
1, 712874, Note_on_c, 0, 63, 56
1, 712884, Note_off_c, 0, 84, 65
1, 712888, Note_on_c, 0, 62, 69
1, 712898, Note_off_c, 0, 63, 61
1, 712904, Note_on_c, 0, 64, 68
1, 712921, Note_off_c, 0, 81, 65
1, 712924, Note_off_c, 0, 93, 69
1, 712936, Note_on_c, 0, 88, 76
1, 712954, Note_off_c, 0, 62, 0
1, 712966, Note_on_c, 0, 60, 84
1, 712972, Note_on_c, 0, 84, 79
1, 712991, Poly_aftertouch_c, 0, 62, 127
1, 712998, Note_off_c, 0, 88, 64
1, 713002, Note_off_c, 0, 64, 62
1, 713027, Note_on_c, 0, 76, 84
1, 713030, Note_off_c, 0, 84, 62
1, 713039, Note_on_c, 0, 64, 73
1, 713042, Note_on_c, 0, 71, 101
1, 713049, Poly_aftertouch_c, 0, 62, 0
1, 713057, Note_off_c, 0, 60, 66
1, 713091, Note_off_c, 0, 76, 63
1, 713109, Note_off_c, 0, 71, 55
1, 713115, Note_on_c, 0, 84, 73
1, 713133, Note_on_c, 0, 88, 88
1, 713137, Poly_aftertouch_c, 0, 65, 127
1, 713149, Note_on_c, 0, 60, 81
1, 713160, Note_off_c, 0, 84, 64
1, 713164, Poly_aftertouch_c, 0, 65, 0
1, 713184, Note_on_c, 0, 87, 73
1, 713194, Note_off_c, 0, 88, 62
1, 713210, Note_on_c, 0, 69, 103
1, 713215, Note_off_c, 0, 60, 56
1, 713241, Note_on_c, 0, 60, 67
1, 713247, Note_on_c, 0, 88, 86
1, 713250, Note_off_c, 0, 69, 68
1, 713260, Note_off_c, 0, 64, 65
1, 713281, Note_off_c, 0, 60, 65
1, 713290, Note_off_c, 0, 87, 64
1, 713308, Note_on_c, 0, 84, 87
1, 713354, Note_off_c, 0, 88, 61
1, 713380, Control_c, 0, 64, 104
1, 713383, Note_on_c, 0, 45, 77
1, 713394, Note_on_c, 0, 91, 96
1, 713395, Control_c, 0, 64, 73
1, 713396, Note_on_c, 0, 79, 91
1, 713407, Note_off_c, 0, 84, 64
1, 713409, Control_c, 0, 64, 58
1, 713431, Control_c, 0, 64, 63
1, 713446, Control_c, 0, 64, 73
1, 713461, Control_c, 0, 64, 105
1, 713466, Note_on_c, 0, 52, 75
1, 713470, Note_off_c, 0, 45, 63
1, 713476, Control_c, 0, 64, 127
1, 713497, Note_off_c, 0, 52, 66
1, 713510, Note_on_c, 0, 84, 78
1, 713511, Note_off_c, 0, 91, 66
1, 713522, Note_off_c, 0, 79, 63
1, 713525, Note_on_c, 0, 60, 71
1, 713551, Note_on_c, 0, 81, 82
1, 713575, Note_off_c, 0, 84, 65
1, 713595, Note_on_c, 0, 59, 73
1, 713596, Note_off_c, 0, 60, 0
1, 713607, Note_on_c, 0, 89, 93
1, 713614, Note_on_c, 0, 77, 86
1, 713616, Note_on_c, 0, 60, 50
1, 713621, Note_off_c, 0, 81, 67
1, 713623, Note_on_c, 0, 88, 73
1, 713667, Note_off_c, 0, 88, 0
1, 713667, Note_on_c, 0, 88, 31
1, 713670, Note_off_c, 0, 77, 63
1, 713675, Note_on_c, 0, 84, 76
1, 713682, Note_on_c, 0, 57, 81
1, 713682, Note_off_c, 0, 89, 68
1, 713693, Note_off_c, 0, 88, 59
1, 713705, Note_on_c, 0, 81, 78
1, 713714, Note_off_c, 0, 59, 53
1, 713735, Note_off_c, 0, 84, 63
1, 713766, Note_off_c, 0, 81, 63
1, 713771, Note_on_c, 0, 72, 76
1, 713772, Note_on_c, 0, 67, 97
1, 713779, Note_off_c, 0, 57, 62
1, 713832, Note_off_c, 0, 72, 66
1, 713836, Note_on_c, 0, 81, 73
1, 713849, Note_off_c, 0, 67, 58
1, 713867, Note_on_c, 0, 57, 79
1, 713868, Note_on_c, 0, 84, 86
1, 713896, Note_off_c, 0, 81, 65
1, 713906, Note_off_c, 0, 60, 65
1, 713923, Note_on_c, 0, 83, 68
1, 713925, Note_off_c, 0, 84, 64
1, 713941, Note_on_c, 0, 60, 48
1, 713949, Note_on_c, 0, 65, 94
1, 713959, Note_off_c, 0, 57, 0
1, 713982, Note_on_c, 0, 84, 91
1, 713983, Note_off_c, 0, 65, 67
1, 713994, Note_on_c, 0, 61, 6
1, 713995, Note_off_c, 0, 61, 127
1, 713995, Poly_aftertouch_c, 0, 57, 127
1, 714008, Note_off_c, 0, 60, 65
1, 714011, Note_off_c, 0, 83, 64
1, 714025, Poly_aftertouch_c, 0, 57, 0
1, 714045, Poly_aftertouch_c, 0, 61, 0
1, 714045, Note_on_c, 0, 81, 83
1, 714060, Note_off_c, 0, 84, 62
1, 714129, Note_on_c, 0, 88, 97
1, 714129, Control_c, 0, 64, 105
1, 714129, Note_off_c, 0, 81, 57
1, 714132, Note_on_c, 0, 47, 67
1, 714132, Note_on_c, 0, 76, 81
1, 714141, Note_on_c, 0, 45, 42
1, 714144, Control_c, 0, 64, 69
1, 714155, Note_on_c, 0, 77, 65
1, 714158, Control_c, 0, 64, 32
1, 714179, Note_off_c, 0, 45, 49
1, 714180, Control_c, 0, 64, 39
1, 714181, Note_off_c, 0, 77, 41
1, 714191, Note_on_c, 0, 54, 71
1, 714195, Control_c, 0, 64, 62
1, 714210, Control_c, 0, 64, 78
1, 714225, Control_c, 0, 64, 127
1, 714227, Note_on_c, 0, 81, 80
1, 714229, Note_off_c, 0, 76, 64
1, 714232, Note_off_c, 0, 47, 62
1, 714235, Note_off_c, 0, 88, 62
1, 714263, Note_off_c, 0, 54, 63
1, 714271, Note_on_c, 0, 57, 73
1, 714276, Note_on_c, 0, 78, 76
1, 714298, Note_off_c, 0, 81, 64
1, 714319, Note_on_c, 0, 75, 87
1, 714325, Note_on_c, 0, 87, 85
1, 714331, Note_off_c, 0, 57, 63
1, 714334, Note_off_c, 0, 78, 64
1, 714340, Note_on_c, 0, 56, 63
1, 714380, Note_off_c, 0, 75, 62
1, 714394, Note_off_c, 0, 87, 65
1, 714400, Note_on_c, 0, 81, 65
1, 714410, Note_on_c, 0, 57, 63
1, 714413, Note_on_c, 0, 54, 83
1, 714413, Note_on_c, 0, 86, 57
1, 714424, Note_on_c, 0, 78, 70
1, 714430, Note_off_c, 0, 86, 62
1, 714441, Note_off_c, 0, 81, 60
1, 714444, Note_off_c, 0, 56, 59
1, 714474, Note_off_c, 0, 78, 57
1, 714502, Note_on_c, 0, 69, 77
1, 714506, Note_on_c, 0, 64, 96
1, 714516, Note_off_c, 0, 54, 60
1, 714549, Note_off_c, 0, 69, 61
1, 714573, Note_on_c, 0, 78, 71
1, 714575, Note_off_c, 0, 64, 60
1, 714614, Note_on_c, 0, 81, 79
1, 714614, Note_on_c, 0, 54, 80
1, 714632, Note_off_c, 0, 78, 61
1, 714637, Note_on_c, 0, 55, 18
1, 714650, Note_on_c, 0, 80, 78
1, 714652, Note_off_c, 0, 57, 59
1, 714672, Note_off_c, 0, 81, 63
1, 714675, Note_off_c, 0, 54, 62
1, 714689, Note_on_c, 0, 57, 43
1, 714691, Note_on_c, 0, 63, 96
1, 714722, Note_on_c, 0, 54, 67
1, 714722, Note_on_c, 0, 81, 75
1, 714725, Note_off_c, 0, 57, 55
1, 714739, Note_off_c, 0, 63, 62
1, 714767, Note_on_c, 0, 78, 93
1, 714770, Note_off_c, 0, 54, 64
1, 714775, Note_off_c, 0, 55, 23
1, 714798, Note_off_c, 0, 81, 66
1, 714801, Note_off_c, 0, 80, 64
1, 714859, Note_off_c, 0, 78, 64
1, 714885, Note_on_c, 0, 40, 71
1, 714932, Note_on_c, 0, 79, 84
1, 714933, Note_on_c, 0, 88, 101
1, 714936, Note_on_c, 0, 76, 91
1, 714945, Control_c, 0, 64, 77
1, 714960, Control_c, 0, 64, 55
1, 714975, Control_c, 0, 64, 0
1, 715005, Control_c, 0, 64, 43
1, 715020, Control_c, 0, 64, 60
1, 715025, Note_on_c, 0, 47, 65
1, 715031, Note_off_c, 0, 40, 64
1, 715035, Control_c, 0, 64, 73
1, 715049, Control_c, 0, 64, 127
1, 715065, Note_off_c, 0, 47, 61
1, 715091, Note_on_c, 0, 55, 69
1, 715107, Note_off_c, 0, 88, 63
1, 715119, Note_off_c, 0, 76, 59
1, 715152, Note_off_c, 0, 79, 63
1, 715154, Note_off_c, 0, 55, 53
1, 715163, Note_on_c, 0, 54, 80
1, 715213, Note_on_c, 0, 55, 68
1, 715256, Note_on_c, 0, 52, 81
1, 715281, Note_off_c, 0, 54, 63
1, 715293, Note_off_c, 0, 55, 62
1, 715340, Note_on_c, 0, 55, 62
1, 715346, Note_on_c, 0, 62, 103
1, 715387, Note_on_c, 0, 67, 71
1, 715391, Note_off_c, 0, 52, 64
1, 715452, Note_on_c, 0, 76, 72
1, 715456, Note_off_c, 0, 67, 62
1, 715472, Note_off_c, 0, 62, 58
1, 715485, Note_on_c, 0, 52, 77
1, 715487, Poly_aftertouch_c, 0, 69, 127
1, 715503, Note_on_c, 0, 79, 82
1, 715512, Poly_aftertouch_c, 0, 69, 0
1, 715519, Note_off_c, 0, 76, 64
1, 715556, Note_on_c, 0, 60, 100
1, 715561, Note_on_c, 0, 78, 77
1, 715566, Note_off_c, 0, 52, 64
1, 715571, Note_off_c, 0, 79, 62
1, 715615, Note_on_c, 0, 52, 63
1, 715617, Note_off_c, 0, 60, 63
1, 715621, Note_on_c, 0, 79, 80
1, 715640, Note_off_c, 0, 55, 56
1, 715658, Note_off_c, 0, 52, 65
1, 715667, Poly_aftertouch_c, 0, 56, 0
1, 715693, Note_on_c, 0, 76, 94
1, 715698, Note_off_c, 0, 78, 40
1, 715720, Note_off_c, 0, 79, 66
1, 715751, Note_off_c, 0, 76, 63
1, 715775, Note_on_c, 0, 40, 77
1, 715831, Note_on_c, 0, 86, 92
1, 715839, Note_on_c, 0, 74, 84
1, 715843, Note_on_c, 0, 84, 83
1, 715843, Control_c, 0, 64, 90
1, 715846, Note_on_c, 0, 72, 87
1, 715856, Control_c, 0, 64, 68
1, 715870, Control_c, 0, 64, 58
1, 715878, Note_off_c, 0, 84, 0
1, 715882, Note_off_c, 0, 72, 61
1, 715885, Control_c, 0, 64, 63
1, 715886, Note_on_c, 0, 84, 45
1, 715900, Control_c, 0, 64, 70
1, 715915, Control_c, 0, 64, 87
1, 715920, Note_on_c, 0, 47, 65
1, 715929, Control_c, 0, 64, 127
1, 715932, Note_off_c, 0, 40, 62
1, 715932, Note_off_c, 0, 84, 0
1, 715932, Note_on_c, 0, 84, 21
1, 715971, Note_on_c, 0, 79, 69
1, 715974, Note_off_c, 0, 47, 60
1, 715980, Note_off_c, 0, 86, 61
1, 715995, Note_off_c, 0, 74, 63
1, 715995, Note_on_c, 0, 55, 66
1, 715997, Note_off_c, 0, 84, 59
1, 716001, Poly_aftertouch_c, 0, 46, 0
1, 716026, Note_on_c, 0, 76, 82
1, 716051, Note_off_c, 0, 79, 65
1, 716071, Note_on_c, 0, 54, 76
1, 716071, Note_off_c, 0, 55, 56
1, 716089, Note_on_c, 0, 84, 98
1, 716097, Note_on_c, 0, 72, 90
1, 716102, Note_off_c, 0, 76, 64
1, 716111, Note_on_c, 0, 56, 76
1, 716140, Note_on_c, 0, 55, 74
1, 716144, Note_off_c, 0, 56, 59
1, 716162, Note_on_c, 0, 79, 76
1, 716165, Note_off_c, 0, 72, 64
1, 716173, Note_on_c, 0, 52, 78
1, 716173, Note_off_c, 0, 84, 67
1, 716204, Note_off_c, 0, 54, 59
1, 716211, Note_on_c, 0, 76, 64
1, 716226, Note_off_c, 0, 79, 60
1, 716253, Note_off_c, 0, 76, 56
1, 716257, Note_on_c, 0, 62, 93
1, 716264, Note_off_c, 0, 52, 65
1, 716271, Note_on_c, 0, 69, 65
1, 716280, Note_on_c, 0, 67, 45
1, 716308, Note_off_c, 0, 67, 55
1, 716330, Note_off_c, 0, 62, 58
1, 716347, Note_off_c, 0, 69, 61
1, 716349, Note_on_c, 0, 52, 81
1, 716349, Note_on_c, 0, 76, 58
1, 716353, Note_on_c, 0, 77, 56
1, 716364, Note_on_c, 0, 79, 79
1, 716385, Note_off_c, 0, 55, 62
1, 716385, Note_off_c, 0, 77, 61
1, 716388, Note_off_c, 0, 76, 62
1, 716403, Note_on_c, 0, 78, 78
1, 716425, Note_off_c, 0, 79, 62
1, 716432, Note_off_c, 0, 52, 65
1, 716433, Note_on_c, 0, 55, 67
1, 716436, Note_on_c, 0, 60, 91
1, 716478, Note_off_c, 0, 60, 66
1, 716481, Note_on_c, 0, 52, 65
1, 716486, Note_on_c, 0, 79, 81
1, 716492, Note_off_c, 0, 55, 63
1, 716510, Note_off_c, 0, 52, 67
1, 716531, Note_on_c, 0, 76, 78
1, 716535, Note_off_c, 0, 78, 64
1, 716545, Poly_aftertouch_c, 0, 59, 0
1, 716575, Note_off_c, 0, 79, 62
1, 716607, Note_on_c, 0, 40, 79
1, 716619, Control_c, 0, 64, 88
1, 716624, Note_on_c, 0, 83, 98
1, 716629, Note_on_c, 0, 71, 92
1, 716634, Control_c, 0, 64, 63
1, 716648, Note_off_c, 0, 76, 65
1, 716649, Control_c, 0, 64, 0
1, 716679, Control_c, 0, 64, 53
1, 716690, Note_on_c, 0, 48, 68
1, 716693, Control_c, 0, 64, 66
1, 716708, Control_c, 0, 64, 87
1, 716716, Note_off_c, 0, 40, 62
1, 716723, Control_c, 0, 64, 127
1, 716748, Note_off_c, 0, 48, 63
1, 716749, Note_on_c, 0, 76, 78
1, 716757, Note_on_c, 0, 52, 65
1, 716761, Note_off_c, 0, 83, 62
1, 716764, Note_off_c, 0, 71, 61
1, 716807, Note_on_c, 0, 72, 77
1, 716823, Note_off_c, 0, 76, 64
1, 716826, Note_off_c, 0, 52, 64
1, 716829, Note_on_c, 0, 51, 74
1, 716853, Note_on_c, 0, 81, 87
1, 716870, Note_on_c, 0, 69, 82
1, 716880, Note_off_c, 0, 72, 64
1, 716882, Note_on_c, 0, 52, 70
1, 716924, Note_off_c, 0, 51, 62
1, 716926, Note_off_c, 0, 69, 64
1, 716930, Note_off_c, 0, 81, 68
1, 716932, Note_on_c, 0, 48, 79
1, 716939, Note_on_c, 0, 76, 67
1, 716978, Note_off_c, 0, 76, 54
1, 716981, Note_on_c, 0, 72, 57
1, 717021, Note_on_c, 0, 59, 100
1, 717025, Note_off_c, 0, 72, 62
1, 717029, Note_on_c, 0, 64, 72
1, 717038, Note_off_c, 0, 48, 63
1, 717091, Note_off_c, 0, 64, 62
1, 717094, Note_on_c, 0, 65, 12
1, 717108, Note_off_c, 0, 59, 59
1, 717109, Note_on_c, 0, 72, 70
1, 717123, Note_on_c, 0, 48, 75
1, 717130, Note_on_c, 0, 76, 83
1, 717145, Note_off_c, 0, 65, 39
1, 717161, Note_on_c, 0, 75, 79
1, 717196, Note_off_c, 0, 52, 0
1, 717196, Note_on_c, 0, 52, 27
1, 717196, Note_off_c, 0, 76, 63
1, 717208, Note_off_c, 0, 48, 63
1, 717210, Note_on_c, 0, 57, 92
1, 717222, Note_off_c, 0, 72, 59
1, 717244, Note_on_c, 0, 76, 77
1, 717264, Note_on_c, 0, 48, 70
1, 717267, Note_off_c, 0, 57, 64
1, 717280, Note_off_c, 0, 52, 65
1, 717290, Note_off_c, 0, 75, 64
1, 717291, Note_on_c, 0, 72, 77
1, 717309, Note_off_c, 0, 48, 62
1, 717315, Note_off_c, 0, 76, 66
1, 717338, Note_off_c, 0, 72, 65
1, 717394, Note_on_c, 0, 40, 74
1, 717398, Note_on_c, 0, 83, 96
1, 717398, Control_c, 0, 64, 84
1, 717404, Note_on_c, 0, 71, 89
1, 717413, Control_c, 0, 64, 65
1, 717428, Control_c, 0, 64, 58
1, 717442, Control_c, 0, 64, 66
1, 717457, Control_c, 0, 64, 76
1, 717472, Control_c, 0, 64, 125
1, 717474, Note_on_c, 0, 48, 65
1, 717487, Note_off_c, 0, 40, 62
1, 717487, Control_c, 0, 64, 127
1, 717492, Note_on_c, 0, 76, 77
1, 717506, Note_off_c, 0, 48, 64
1, 717506, Note_off_c, 0, 83, 60
1, 717507, Note_off_c, 0, 71, 62
1, 717530, Note_on_c, 0, 52, 65
1, 717557, Note_on_c, 0, 72, 58
1, 717562, Note_off_c, 0, 76, 64
1, 717595, Note_off_c, 0, 52, 62
1, 717597, Note_on_c, 0, 81, 88
1, 717598, Note_on_c, 0, 51, 74
1, 717602, Note_on_c, 0, 69, 88
1, 717613, Note_off_c, 0, 72, 65
1, 717640, Note_on_c, 0, 52, 61
1, 717655, Note_off_c, 0, 69, 63
1, 717668, Note_off_c, 0, 51, 63
1, 717670, Note_off_c, 0, 81, 68
1, 717672, Note_on_c, 0, 76, 71
1, 717697, Note_on_c, 0, 48, 74
1, 717712, Note_on_c, 0, 72, 67
1, 717720, Note_off_c, 0, 76, 57
1, 717756, Note_off_c, 0, 72, 59
1, 717762, Note_on_c, 0, 64, 71
1, 717768, Note_on_c, 0, 59, 95
1, 717787, Note_off_c, 0, 48, 64
1, 717820, Note_off_c, 0, 64, 60
1, 717834, Note_on_c, 0, 72, 67
1, 717840, Note_off_c, 0, 59, 59
1, 717864, Note_on_c, 0, 76, 78
1, 717870, Note_on_c, 0, 48, 69
1, 717905, Note_on_c, 0, 75, 76
1, 717926, Note_off_c, 0, 52, 0
1, 717932, Note_off_c, 0, 76, 63
1, 717953, Note_on_c, 0, 57, 88
1, 717953, Note_off_c, 0, 48, 59
1, 717953, Note_off_c, 0, 72, 55
1, 717956, Note_on_c, 0, 52, 20
1, 717983, Note_on_c, 0, 76, 83
1, 717994, Note_on_c, 0, 48, 54
1, 717995, Note_off_c, 0, 57, 65
1, 718000, Note_off_c, 0, 52, 66
1, 718031, Note_off_c, 0, 75, 62
1, 718034, Note_off_c, 0, 48, 64
1, 718051, Note_on_c, 0, 72, 77
1, 718089, Note_off_c, 0, 76, 62
1, 718124, Note_on_c, 0, 40, 67
1, 718132, Control_c, 0, 64, 78
1, 718144, Note_on_c, 0, 79, 83
1, 718147, Control_c, 0, 64, 59
1, 718148, Note_on_c, 0, 67, 79
1, 718150, Note_off_c, 0, 72, 64
1, 718162, Control_c, 0, 64, 50
1, 718177, Control_c, 0, 64, 63
1, 718192, Control_c, 0, 64, 71
1, 718206, Control_c, 0, 64, 98
1, 718221, Control_c, 0, 64, 127
1, 718226, Note_on_c, 0, 48, 68
1, 718228, Note_off_c, 0, 40, 63
1, 718257, Note_off_c, 0, 67, 63
1, 718257, Note_on_c, 0, 72, 69
1, 718266, Note_off_c, 0, 79, 62
1, 718290, Note_off_c, 0, 48, 62
1, 718299, Note_on_c, 0, 57, 69
1, 718302, Note_on_c, 0, 69, 75
1, 718318, Note_off_c, 0, 72, 65
1, 718322, Note_on_c, 0, 55, 24
1, 718332, Note_off_c, 0, 57, 66
1, 718348, Note_on_c, 0, 77, 87
1, 718356, Note_on_c, 0, 65, 82
1, 718358, Note_off_c, 0, 69, 64
1, 718364, Note_off_c, 0, 55, 51
1, 718380, Note_on_c, 0, 59, 69
1, 718409, Note_off_c, 0, 65, 66
1, 718410, Note_on_c, 0, 72, 74
1, 718416, Note_on_c, 0, 60, 79
1, 718433, Note_on_c, 0, 69, 84
1, 718445, Note_on_c, 0, 57, 78
1, 718476, Note_off_c, 0, 77, 57
1, 718480, Note_off_c, 0, 72, 62
1, 718490, Note_off_c, 0, 59, 56
1, 718492, Note_off_c, 0, 69, 63
1, 718526, Note_on_c, 0, 67, 99
1, 718535, Note_off_c, 0, 57, 63
1, 718576, Note_on_c, 0, 69, 82
1, 718588, Note_off_c, 0, 67, 60
1, 718624, Note_on_c, 0, 72, 81
1, 718631, Note_off_c, 0, 69, 63
1, 718633, Note_on_c, 0, 57, 76
1, 718686, Note_off_c, 0, 60, 0
1, 718693, Note_on_c, 0, 71, 71
1, 718697, Note_off_c, 0, 72, 60
1, 718703, Note_on_c, 0, 60, 53
1, 718713, Note_on_c, 0, 65, 96
1, 718752, Note_off_c, 0, 65, 66
1, 718755, Note_on_c, 0, 72, 84
1, 718767, Note_off_c, 0, 60, 65
1, 718785, Note_off_c, 0, 71, 63
1, 718785, Note_off_c, 0, 57, 65
1, 718830, Note_on_c, 0, 69, 78
1, 718846, Note_off_c, 0, 72, 62
1, 718882, Control_c, 0, 64, 106
1, 718886, Note_on_c, 0, 40, 84
1, 718896, Control_c, 0, 64, 68
1, 718910, Note_on_c, 0, 76, 96
1, 718911, Control_c, 0, 64, 0
1, 718916, Note_on_c, 0, 64, 82
1, 718917, Note_off_c, 0, 69, 49
1, 718922, Note_on_c, 0, 46, 56
1, 718941, Control_c, 0, 64, 52
1, 718950, Note_on_c, 0, 65, 42
1, 718951, Note_off_c, 0, 65, 127
1, 718955, Control_c, 0, 64, 70
1, 718958, Note_off_c, 0, 40, 62
1, 718970, Control_c, 0, 64, 114
1, 718985, Control_c, 0, 64, 127
1, 718996, Note_off_c, 0, 46, 63
1, 719011, Note_off_c, 0, 76, 62
1, 719014, Note_on_c, 0, 54, 70
1, 719014, Note_on_c, 0, 69, 80
1, 719017, Note_off_c, 0, 64, 62
1, 719044, Note_off_c, 0, 54, 67
1, 719070, Note_on_c, 0, 66, 70
1, 719081, Note_off_c, 0, 69, 61
1, 719095, Note_on_c, 0, 56, 58
1, 719115, Note_on_c, 0, 75, 91
1, 719124, Note_on_c, 0, 63, 81
1, 719132, Note_off_c, 0, 66, 63
1, 719155, Note_on_c, 0, 57, 75
1, 719165, Note_off_c, 0, 56, 55
1, 719183, Note_on_c, 0, 69, 71
1, 719200, Note_off_c, 0, 63, 61
1, 719202, Note_on_c, 0, 66, 80
1, 719204, Note_on_c, 0, 54, 73
1, 719223, Note_off_c, 0, 75, 61
1, 719237, Note_off_c, 0, 57, 49
1, 719243, Note_off_c, 0, 69, 63
1, 719265, Note_off_c, 0, 66, 64
1, 719297, Note_on_c, 0, 64, 99
1, 719301, Note_on_c, 0, 57, 51
1, 719308, Note_off_c, 0, 54, 55
1, 719333, Note_on_c, 0, 58, 45
1, 719354, Note_on_c, 0, 66, 79
1, 719358, Note_off_c, 0, 64, 63
1, 719365, Note_off_c, 0, 58, 34
1, 719408, Note_on_c, 0, 69, 74
1, 719411, Note_off_c, 0, 66, 62
1, 719429, Note_on_c, 0, 54, 71
1, 719456, Note_on_c, 0, 68, 79
1, 719457, Note_on_c, 0, 55, 30
1, 719476, Note_off_c, 0, 69, 62
1, 719488, Note_off_c, 0, 54, 65
1, 719503, Note_on_c, 0, 63, 98
1, 719527, Poly_aftertouch_c, 0, 53, 127
1, 719536, Note_on_c, 0, 54, 71
1, 719545, Note_on_c, 0, 69, 80
1, 719551, Poly_aftertouch_c, 0, 53, 0
1, 719551, Note_off_c, 0, 57, 60
1, 719552, Note_off_c, 0, 63, 64
1, 719576, Note_off_c, 0, 55, 27
1, 719583, Note_off_c, 0, 54, 64
1, 719598, Note_on_c, 0, 66, 81
1, 719600, Note_off_c, 0, 68, 58
1, 719625, Note_off_c, 0, 69, 64
1, 719685, Note_on_c, 0, 40, 77
1, 719708, Note_off_c, 0, 66, 61
1, 719734, Control_c, 0, 64, 78
1, 719749, Control_c, 0, 64, 0
1, 719750, Note_off_c, 0, 40, 64
1, 719754, Note_on_c, 0, 47, 85
1, 719767, Note_on_c, 0, 76, 101
1, 719770, Note_on_c, 0, 64, 105
1, 719770, Note_on_c, 0, 67, 93
1, 719775, Note_on_c, 0, 55, 100
1, 719818, Note_off_c, 0, 47, 61
1, 719820, Note_on_c, 0, 70, 43
1, 719823, Control_c, 0, 64, 65
1, 719829, Note_off_c, 0, 55, 63
1, 719838, Control_c, 0, 64, 127
1, 719858, Note_off_c, 0, 70, 49
1, 719896, Note_off_c, 0, 64, 60
1, 719897, Note_off_c, 0, 76, 62
1, 719912, Note_off_c, 0, 67, 61
1, 720142, Note_on_c, 0, 67, 57
1, 720171, Note_off_c, 0, 67, 64
1, 720171, Control_c, 0, 64, 116
1, 720186, Control_c, 0, 64, 102
1, 720201, Control_c, 0, 64, 95
1, 720216, Control_c, 0, 64, 85
1, 720223, Note_on_c, 0, 62, 55
1, 720231, Control_c, 0, 64, 78
1, 720245, Control_c, 0, 64, 73
1, 720260, Control_c, 0, 64, 72
1, 720262, Note_on_c, 0, 63, 73
1, 720263, Note_off_c, 0, 62, 64
1, 720275, Control_c, 0, 64, 71
1, 720290, Control_c, 0, 64, 70
1, 720300, Note_off_c, 0, 63, 59
1, 720304, Control_c, 0, 64, 68
1, 720319, Control_c, 0, 64, 65
1, 720323, Note_on_c, 0, 67, 56
1, 720324, Note_on_c, 0, 64, 68
1, 720334, Control_c, 0, 64, 64
1, 720343, Note_off_c, 0, 64, 65
1, 720353, Note_off_c, 0, 67, 64
1, 720378, Control_c, 0, 64, 64
1, 720383, Note_on_c, 0, 61, 70
1, 720393, Control_c, 0, 64, 62
1, 720408, Control_c, 0, 64, 61
1, 720421, Note_on_c, 0, 62, 71
1, 720423, Control_c, 0, 64, 61
1, 720426, Note_off_c, 0, 61, 59
1, 720437, Control_c, 0, 64, 60
1, 720447, Note_off_c, 0, 62, 66
1, 720452, Control_c, 0, 64, 59
1, 720468, Control_c, 0, 64, 57
1, 720477, Note_on_c, 0, 64, 52
1, 720480, Note_on_c, 0, 67, 67
1, 720483, Control_c, 0, 64, 56
1, 720498, Control_c, 0, 64, 54
1, 720506, Note_off_c, 0, 67, 68
1, 720507, Note_off_c, 0, 64, 65
1, 720512, Control_c, 0, 64, 52
1, 720527, Control_c, 0, 64, 49
1, 720540, Note_on_c, 0, 60, 71
1, 720542, Control_c, 0, 64, 47
1, 720557, Control_c, 0, 64, 44
1, 720564, Note_on_c, 0, 61, 72
1, 720572, Control_c, 0, 64, 42
1, 720573, Note_off_c, 0, 60, 66
1, 720587, Control_c, 0, 64, 41
1, 720601, Control_c, 0, 64, 40
1, 720602, Note_off_c, 0, 61, 60
1, 720616, Control_c, 0, 64, 38
1, 720631, Control_c, 0, 64, 36
1, 720633, Note_on_c, 0, 64, 70
1, 720633, Note_on_c, 0, 67, 71
1, 720646, Control_c, 0, 64, 34
1, 720658, Note_off_c, 0, 67, 68
1, 720659, Note_off_c, 0, 64, 67
1, 720661, Control_c, 0, 64, 33
1, 720675, Control_c, 0, 64, 30
1, 720684, Note_on_c, 0, 59, 72
1, 720690, Control_c, 0, 64, 25
1, 720705, Control_c, 0, 64, 16
1, 720719, Note_on_c, 0, 60, 82
1, 720719, Control_c, 0, 64, 0
1, 720731, Note_off_c, 0, 59, 62
1, 720752, Note_off_c, 0, 60, 66
1, 720788, Note_on_c, 0, 64, 75
1, 720794, Note_on_c, 0, 67, 77
1, 720813, Note_off_c, 0, 64, 71
1, 720816, Note_off_c, 0, 67, 70
1, 720848, Note_on_c, 0, 58, 88
1, 720888, Note_on_c, 0, 59, 79
1, 720915, Note_off_c, 0, 58, 64
1, 720928, Note_off_c, 0, 59, 66
1, 720962, Note_on_c, 0, 67, 85
1, 720963, Note_on_c, 0, 64, 86
1, 720982, Note_off_c, 0, 64, 72
1, 720987, Note_off_c, 0, 67, 66
1, 721022, Note_on_c, 0, 57, 86
1, 721053, Note_on_c, 0, 58, 85
1, 721073, Note_off_c, 0, 57, 65
1, 721100, Note_off_c, 0, 58, 62
1, 721125, Note_on_c, 0, 67, 91
1, 721127, Note_on_c, 0, 64, 84
1, 721149, Note_off_c, 0, 64, 70
1, 721157, Note_off_c, 0, 67, 64
1, 721174, Note_on_c, 0, 58, 91
1, 721213, Note_on_c, 0, 59, 86
1, 721241, Note_off_c, 0, 58, 61
1, 721271, Note_off_c, 0, 59, 64
1, 721291, Note_on_c, 0, 67, 82
1, 721292, Note_on_c, 0, 64, 84
1, 721313, Note_off_c, 0, 64, 71
1, 721318, Note_off_c, 0, 67, 64
1, 721321, Control_c, 0, 64, 60
1, 721335, Control_c, 0, 64, 84
1, 721339, Note_on_c, 0, 57, 74
1, 721350, Control_c, 0, 64, 127
1, 721384, Note_on_c, 0, 58, 81
1, 721399, Note_off_c, 0, 57, 64
1, 721414, Note_off_c, 0, 58, 65
1, 721460, Note_on_c, 0, 59, 74
1, 721471, Note_on_c, 0, 64, 46
1, 721485, Note_on_c, 0, 62, 43
1, 721487, Note_off_c, 0, 59, 68
1, 721498, Note_off_c, 0, 64, 55
1, 721514, Note_off_c, 0, 62, 55
1, 721521, Note_on_c, 0, 52, 74
1, 721568, Note_on_c, 0, 54, 74
1, 721579, Note_off_c, 0, 52, 65
1, 721598, Note_off_c, 0, 54, 68
1, 721649, Note_on_c, 0, 57, 64
1, 721654, Note_on_c, 0, 59, 59
1, 721667, Note_on_c, 0, 55, 43
1, 721667, Note_on_c, 0, 53, 47
1, 721687, Note_off_c, 0, 57, 65
1, 721691, Note_off_c, 0, 59, 55
1, 721694, Note_off_c, 0, 53, 57
1, 721694, Note_off_c, 0, 55, 55
1, 721702, Note_on_c, 0, 50, 75
1, 721745, Note_on_c, 0, 51, 80
1, 721753, Note_off_c, 0, 50, 64
1, 721773, Note_off_c, 0, 51, 68
1, 721811, Note_on_c, 0, 55, 91
1, 721822, Note_on_c, 0, 50, 83
1, 721841, Note_off_c, 0, 50, 72
1, 721853, Note_off_c, 0, 55, 66
1, 721875, Note_on_c, 0, 43, 85
1, 721924, Note_on_c, 0, 46, 81
1, 721937, Note_off_c, 0, 43, 63
1, 721949, Note_off_c, 0, 46, 67
1, 721980, Poly_aftertouch_c, 0, 44, 127
1, 721986, Note_on_c, 0, 50, 93
1, 721989, Note_on_c, 0, 47, 95
1, 722012, Poly_aftertouch_c, 0, 44, 0
1, 722013, Note_off_c, 0, 47, 67
1, 722031, Note_off_c, 0, 50, 65
1, 722064, Note_on_c, 0, 40, 81
1, 722100, Note_on_c, 0, 42, 83
1, 722117, Note_off_c, 0, 40, 64
1, 722130, Note_off_c, 0, 42, 66
1, 722163, Note_on_c, 0, 45, 91
1, 722168, Note_on_c, 0, 47, 87
1, 722168, Note_on_c, 0, 43, 85
1, 722171, Note_on_c, 0, 41, 87
1, 722192, Note_off_c, 0, 43, 66
1, 722195, Note_off_c, 0, 41, 67
1, 722198, Note_off_c, 0, 47, 56
1, 722199, Note_off_c, 0, 45, 63
1, 722244, Note_on_c, 0, 36, 71
1, 722250, Note_on_c, 0, 38, 79
1, 722283, Note_off_c, 0, 36, 65
1, 722287, Note_off_c, 0, 38, 62
1, 722332, Note_on_c, 0, 41, 82
1, 722338, Note_on_c, 0, 38, 96
1, 722374, Note_off_c, 0, 38, 65
1, 722389, Note_off_c, 0, 41, 65
1, 722447, Note_on_c, 0, 33, 61
1, 722482, Note_off_c, 0, 33, 60
1, 722514, Note_on_c, 0, 40, 96
1, 722514, Poly_aftertouch_c, 0, 31, 127
1, 722520, Note_on_c, 0, 35, 93
1, 722549, Note_off_c, 0, 35, 67
1, 722557, Poly_aftertouch_c, 0, 31, 0
1, 722569, Note_on_c, 0, 30, 77
1, 722569, Note_off_c, 0, 40, 65
1, 722634, Note_on_c, 0, 31, 74
1, 722652, Note_off_c, 0, 30, 60
1, 722750, Note_on_c, 0, 40, 108
1, 722758, Note_on_c, 0, 28, 102
1, 722758, Control_c, 0, 64, 66
1, 722773, Control_c, 0, 64, 0
1, 722799, Note_off_c, 0, 31, 63
1, 722892, Control_c, 0, 64, 51
1, 722907, Control_c, 0, 64, 87
1, 722920, Note_off_c, 0, 28, 63
1, 722922, Control_c, 0, 64, 127
1, 722926, Note_off_c, 0, 40, 63
1, 723328, Note_on_c, 0, 79, 109
1, 723328, Note_on_c, 0, 88, 89
1, 723328, Note_on_c, 0, 91, 107
1, 723330, Note_on_c, 0, 59, 82
1, 723331, Note_on_c, 0, 83, 91
1, 723334, Note_on_c, 0, 64, 93
1, 723337, Note_on_c, 0, 67, 86
1, 723338, Note_off_c, 0, 67, 127
1, 723339, Note_on_c, 0, 55, 73
1, 723353, Note_on_c, 0, 57, 76
1, 723370, Note_off_c, 0, 57, 66
1, 723885, Note_on_c, 0, 67, 43
1, 724428, Note_off_c, 0, 91, 64
1, 724451, Note_off_c, 0, 88, 64
1, 724454, Note_off_c, 0, 79, 62
1, 724457, Note_off_c, 0, 55, 59
1, 724459, Note_off_c, 0, 83, 63
1, 724478, Note_off_c, 0, 64, 55
1, 724487, Note_off_c, 0, 59, 56
1, 724493, Note_off_c, 0, 67, 64
1, 724538, Control_c, 0, 64, 98
1, 724553, Control_c, 0, 64, 86
1, 724568, Control_c, 0, 64, 79
1, 724583, Control_c, 0, 64, 75
1, 724598, Control_c, 0, 64, 73
1, 724612, Control_c, 0, 64, 72
1, 724627, Control_c, 0, 64, 71
1, 724642, Control_c, 0, 64, 70
1, 724664, Control_c, 0, 64, 69
1, 724679, Control_c, 0, 64, 68
1, 724694, Control_c, 0, 64, 67
1, 724709, Control_c, 0, 64, 65
1, 724723, Control_c, 0, 64, 63
1, 724738, Control_c, 0, 64, 63
1, 724753, Control_c, 0, 64, 62
1, 724767, Control_c, 0, 64, 61
1, 724782, Control_c, 0, 64, 60
1, 724797, Control_c, 0, 64, 58
1, 724812, Control_c, 0, 64, 58
1, 724827, Control_c, 0, 64, 57
1, 724842, Control_c, 0, 64, 56
1, 724857, Control_c, 0, 64, 56
1, 724872, Control_c, 0, 64, 55
1, 724887, Control_c, 0, 64, 54
1, 724902, Control_c, 0, 64, 54
1, 724916, Control_c, 0, 64, 53
1, 724946, Control_c, 0, 64, 53
1, 724975, Control_c, 0, 64, 52
1, 725317, Control_c, 0, 64, 53
1, 725443, Control_c, 0, 64, 53
1, 725561, Control_c, 0, 64, 54
1, 725665, Control_c, 0, 64, 54
1, 725799, Control_c, 0, 64, 55
1, 725977, Control_c, 0, 64, 55
1, 726754, Control_c, 0, 64, 56
1, 727807, Control_c, 0, 64, 55
1, 728118, Control_c, 0, 64, 56
1, 728614, Control_c, 0, 64, 56
1, 728807, Control_c, 0, 64, 57
1, 729229, Control_c, 0, 64, 56
1, 729542, Control_c, 0, 64, 56
1, 729719, Control_c, 0, 64, 55
1, 729823, Control_c, 0, 64, 55
1, 729949, Control_c, 0, 64, 54
1, 730068, Control_c, 0, 64, 54
1, 730157, Control_c, 0, 64, 53
1, 730231, Control_c, 0, 64, 53
1, 730306, Control_c, 0, 64, 52
1, 730424, Control_c, 0, 64, 52
1, 730601, Control_c, 0, 64, 52
1, 730653, Control_c, 0, 64, 53
1, 730771, Control_c, 0, 64, 52
1, 730876, Control_c, 0, 64, 52
1, 730906, Control_c, 0, 64, 51
1, 730936, Control_c, 0, 64, 51
1, 731009, Control_c, 0, 64, 50
1, 731054, Control_c, 0, 64, 50
1, 731099, Control_c, 0, 64, 49
1, 731144, Control_c, 0, 64, 49
1, 731173, Control_c, 0, 64, 48
1, 731188, Control_c, 0, 64, 48
1, 731202, Control_c, 0, 64, 47
1, 731232, Control_c, 0, 64, 46
1, 731247, Control_c, 0, 64, 46
1, 731291, Control_c, 0, 64, 45
1, 731306, Control_c, 0, 64, 44
1, 731321, Control_c, 0, 64, 43
1, 731336, Control_c, 0, 64, 42
1, 731350, Control_c, 0, 64, 41
1, 731365, Control_c, 0, 64, 39
1, 731380, Control_c, 0, 64, 37
1, 731402, Control_c, 0, 64, 34
1, 731417, Control_c, 0, 64, 32
1, 731432, Control_c, 0, 64, 30
1, 731447, Control_c, 0, 64, 26
1, 731462, Control_c, 0, 64, 23
1, 731476, Control_c, 0, 64, 19
1, 731491, Control_c, 0, 64, 15
1, 731506, Control_c, 0, 64, 9
1, 731521, Control_c, 0, 64, 0
1, 734109, Control_c, 0, 64, 11
1, 734124, Control_c, 0, 64, 15
1, 734139, Control_c, 0, 64, 19
1, 734154, Control_c, 0, 64, 23
1, 734168, Control_c, 0, 64, 26
1, 734183, Control_c, 0, 64, 30
1, 734198, Control_c, 0, 64, 33
1, 734213, Control_c, 0, 64, 36
1, 734227, Control_c, 0, 64, 39
1, 734242, Control_c, 0, 64, 41
1, 734257, Control_c, 0, 64, 44
1, 734272, Control_c, 0, 64, 47
1, 734286, Control_c, 0, 64, 48
1, 734301, Control_c, 0, 64, 49
1, 734316, Control_c, 0, 64, 50
1, 734331, Control_c, 0, 64, 51
1, 734346, Control_c, 0, 64, 51
1, 734360, Control_c, 0, 64, 52
1, 734375, Control_c, 0, 64, 53
1, 734413, Control_c, 0, 64, 53
1, 734427, Control_c, 0, 64, 54
1, 734442, Control_c, 0, 64, 54
1, 734457, Control_c, 0, 64, 55
1, 734472, Control_c, 0, 64, 56
1, 734516, Control_c, 0, 64, 56
1, 734531, Control_c, 0, 64, 57
1, 734546, Control_c, 0, 64, 57
1, 734575, Control_c, 0, 64, 58
1, 734605, Control_c, 0, 64, 58
1, 734619, Control_c, 0, 64, 59
1, 734634, Control_c, 0, 64, 60
1, 734649, Control_c, 0, 64, 60
1, 734679, Control_c, 0, 64, 61
1, 734709, Control_c, 0, 64, 61
1, 734724, Control_c, 0, 64, 62
1, 734739, Control_c, 0, 64, 62
1, 734753, Control_c, 0, 64, 63
1, 734783, Control_c, 0, 64, 63
1, 734813, Control_c, 0, 64, 64
1, 734843, Control_c, 0, 64, 64
1, 734858, Control_c, 0, 64, 65
1, 734888, Control_c, 0, 64, 65
1, 734903, Control_c, 0, 64, 66
1, 734932, Control_c, 0, 64, 67
1, 734947, Control_c, 0, 64, 67
1, 734962, Control_c, 0, 64, 68
1, 735036, Control_c, 0, 64, 68
1, 735095, Control_c, 0, 64, 69
1, 735110, Control_c, 0, 64, 69
1, 735124, Control_c, 0, 64, 70
1, 735147, Control_c, 0, 64, 71
1, 735162, Control_c, 0, 64, 71
1, 735177, Control_c, 0, 64, 72
1, 735192, Control_c, 0, 64, 73
1, 735206, Control_c, 0, 64, 74
1, 735221, Control_c, 0, 64, 74
1, 735236, Control_c, 0, 64, 75
1, 735250, Control_c, 0, 64, 76
1, 735265, Control_c, 0, 64, 78
1, 735280, Control_c, 0, 64, 79
1, 735295, Control_c, 0, 64, 81
1, 735310, Control_c, 0, 64, 82
1, 735324, Control_c, 0, 64, 84
1, 735339, Control_c, 0, 64, 87
1, 735354, Control_c, 0, 64, 91
1, 735368, Control_c, 0, 64, 96
1, 735383, Control_c, 0, 64, 102
1, 735398, Control_c, 0, 64, 107
1, 735413, Control_c, 0, 64, 113
1, 735428, Control_c, 0, 64, 127
1, 736927, Note_on_c, 0, 53, 33
1, 737345, Note_off_c, 0, 53, 33
1, 737572, Note_on_c, 0, 44, 10
1, 737790, Note_off_c, 0, 44, 38
1, 737854, Note_on_c, 0, 37, 23
1, 738098, Note_off_c, 0, 37, 39
1, 738107, Note_on_c, 0, 44, 29
1, 738305, Note_off_c, 0, 44, 37
1, 738342, Note_on_c, 0, 37, 24
1, 738511, Note_off_c, 0, 37, 35
1, 738592, Note_on_c, 0, 44, 10
1, 738658, Note_off_c, 0, 44, 41
1, 738814, Note_on_c, 0, 53, 28
1, 738961, Note_off_c, 0, 53, 39
1, 739059, Note_on_c, 0, 44, 26
1, 739192, Note_off_c, 0, 44, 36
1, 739288, Note_on_c, 0, 37, 29
1, 739482, Note_off_c, 0, 37, 36
1, 739515, Note_on_c, 0, 44, 12
1, 739695, Note_off_c, 0, 44, 37
1, 739735, Note_on_c, 0, 37, 20
1, 739940, Note_off_c, 0, 37, 37
1, 739994, Note_on_c, 0, 44, 23
1, 740160, Note_off_c, 0, 44, 28
1, 740277, Note_on_c, 0, 53, 28
1, 740455, Note_off_c, 0, 53, 39
1, 740656, Note_on_c, 0, 44, 22
1, 740825, Note_off_c, 0, 44, 39
1, 740885, Note_on_c, 0, 37, 32
1, 741210, Note_on_c, 0, 44, 19
1, 741248, Note_on_c, 0, 56, 54
1, 741270, Note_off_c, 0, 37, 38
1, 741511, Note_on_c, 0, 37, 23
1, 741514, Note_off_c, 0, 44, 37
1, 741581, Note_off_c, 0, 37, 43
1, 741714, Note_on_c, 0, 44, 33
1, 741993, Note_on_c, 0, 54, 35
1, 742024, Note_on_c, 0, 61, 63
1, 742043, Note_on_c, 0, 58, 49
1, 742089, Note_off_c, 0, 44, 28
1, 742247, Note_off_c, 0, 54, 43
1, 742360, Note_on_c, 0, 44, 27
1, 742495, Note_off_c, 0, 44, 29
1, 742552, Note_on_c, 0, 37, 35
1, 742718, Note_off_c, 0, 58, 36
1, 742763, Note_on_c, 0, 44, 37
1, 742774, Note_off_c, 0, 37, 39
1, 743000, Note_off_c, 0, 44, 34
1, 743006, Note_on_c, 0, 37, 27
1, 743184, Note_on_c, 0, 65, 59
1, 743207, Note_on_c, 0, 60, 44
1, 743215, Note_off_c, 0, 37, 40
1, 743306, Note_on_c, 0, 44, 32
1, 743363, Note_off_c, 0, 61, 37
1, 743418, Note_off_c, 0, 56, 32
1, 743467, Note_off_c, 0, 65, 55
1, 743471, Note_off_c, 0, 44, 31
1, 743681, Note_on_c, 0, 53, 32
1, 743689, Note_on_c, 0, 65, 48
1, 743708, Control_c, 0, 64, 111
1, 743723, Control_c, 0, 64, 99
1, 743733, Note_on_c, 0, 56, 39
1, 743734, Note_on_c, 0, 61, 42
1, 743738, Control_c, 0, 64, 92
1, 743753, Control_c, 0, 64, 86
1, 743768, Control_c, 0, 64, 79
1, 743783, Control_c, 0, 64, 71
1, 743798, Control_c, 0, 64, 63
1, 743812, Control_c, 0, 64, 54
1, 743827, Control_c, 0, 64, 43
1, 743836, Note_off_c, 0, 60, 37
1, 743842, Control_c, 0, 64, 35
1, 743857, Control_c, 0, 64, 33
1, 743872, Control_c, 0, 64, 34
1, 743886, Control_c, 0, 64, 40
1, 743901, Control_c, 0, 64, 46
1, 743916, Control_c, 0, 64, 53
1, 743931, Control_c, 0, 64, 60
1, 743946, Control_c, 0, 64, 64
1, 743960, Control_c, 0, 64, 68
1, 743975, Control_c, 0, 64, 73
1, 743990, Control_c, 0, 64, 80
1, 744005, Control_c, 0, 64, 91
1, 744020, Control_c, 0, 64, 104
1, 744034, Control_c, 0, 64, 127
1, 744046, Note_off_c, 0, 53, 39
1, 744139, Note_on_c, 0, 44, 24
1, 744228, Note_off_c, 0, 44, 53
1, 744340, Note_on_c, 0, 37, 30
1, 744535, Note_off_c, 0, 37, 41
1, 744560, Note_on_c, 0, 44, 30
1, 744757, Note_off_c, 0, 44, 37
1, 744778, Note_on_c, 0, 37, 21
1, 744955, Note_off_c, 0, 37, 34
1, 744998, Note_on_c, 0, 44, 30
1, 745129, Note_off_c, 0, 44, 32
1, 745224, Note_on_c, 0, 53, 37
1, 745335, Note_off_c, 0, 53, 37
1, 745470, Note_off_c, 0, 56, 35
1, 745476, Note_on_c, 0, 44, 27
1, 745637, Note_off_c, 0, 44, 32
1, 745678, Note_on_c, 0, 37, 31
1, 745902, Note_off_c, 0, 37, 40
1, 745902, Note_on_c, 0, 44, 35
1, 745920, Note_off_c, 0, 61, 30
1, 746104, Note_off_c, 0, 44, 39
1, 746114, Note_on_c, 0, 37, 36
1, 746285, Note_off_c, 0, 37, 38
1, 746323, Note_on_c, 0, 44, 42
1, 746472, Note_off_c, 0, 44, 31
1, 746489, Note_off_c, 0, 65, 32
1, 746574, Note_on_c, 0, 53, 44
1, 746615, Control_c, 0, 64, 117
1, 746629, Control_c, 0, 64, 111
1, 746644, Control_c, 0, 64, 107
1, 746659, Control_c, 0, 64, 101
1, 746674, Control_c, 0, 64, 94
1, 746689, Control_c, 0, 64, 87
1, 746704, Control_c, 0, 64, 82
1, 746719, Control_c, 0, 64, 79
1, 746734, Control_c, 0, 64, 77
1, 746748, Control_c, 0, 64, 74
1, 746763, Control_c, 0, 64, 70
1, 746778, Control_c, 0, 64, 67
1, 746808, Control_c, 0, 64, 68
1, 746823, Control_c, 0, 64, 70
1, 746838, Control_c, 0, 64, 73
1, 746849, Note_on_c, 0, 44, 47
1, 746853, Control_c, 0, 64, 77
1, 746868, Control_c, 0, 64, 84
1, 746871, Note_off_c, 0, 53, 41
1, 746883, Control_c, 0, 64, 94
1, 746898, Control_c, 0, 64, 119
1, 746913, Control_c, 0, 64, 127
1, 747022, Note_off_c, 0, 44, 51
1, 747051, Note_on_c, 0, 37, 50
1, 747294, Note_on_c, 0, 66, 74
1, 747306, Note_on_c, 0, 44, 35
1, 747309, Note_on_c, 0, 63, 57
1, 747343, Note_off_c, 0, 37, 33
1, 747515, Note_on_c, 0, 37, 44
1, 747533, Note_off_c, 0, 44, 40
1, 747751, Note_on_c, 0, 44, 47
1, 747754, Note_off_c, 0, 37, 32
1, 747760, Note_off_c, 0, 66, 57
1, 748090, Note_on_c, 0, 51, 35
1, 748111, Note_on_c, 0, 66, 45
1, 748112, Control_c, 0, 64, 120
1, 748121, Note_on_c, 0, 70, 61
1, 748126, Control_c, 0, 64, 108
1, 748139, Note_on_c, 0, 60, 45
1, 748141, Control_c, 0, 64, 96
1, 748156, Control_c, 0, 64, 88
1, 748171, Control_c, 0, 64, 82
1, 748186, Control_c, 0, 64, 79
1, 748200, Control_c, 0, 64, 77
1, 748215, Control_c, 0, 64, 73
1, 748227, Note_off_c, 0, 44, 32
1, 748230, Control_c, 0, 64, 69
1, 748245, Control_c, 0, 64, 65
1, 748254, Note_off_c, 0, 63, 52
1, 748260, Control_c, 0, 64, 62
1, 748275, Control_c, 0, 64, 61
1, 748290, Control_c, 0, 64, 59
1, 748305, Control_c, 0, 64, 55
1, 748319, Control_c, 0, 64, 49
1, 748334, Control_c, 0, 64, 48
1, 748349, Control_c, 0, 64, 50
1, 748364, Control_c, 0, 64, 53
1, 748379, Control_c, 0, 64, 56
1, 748393, Control_c, 0, 64, 60
1, 748408, Control_c, 0, 64, 63
1, 748424, Control_c, 0, 64, 67
1, 748439, Control_c, 0, 64, 72
1, 748454, Control_c, 0, 64, 79
1, 748469, Control_c, 0, 64, 91
1, 748484, Control_c, 0, 64, 108
1, 748498, Control_c, 0, 64, 127
1, 748555, Note_on_c, 0, 44, 29
1, 748623, Note_off_c, 0, 60, 34
1, 748773, Note_off_c, 0, 44, 36
1, 748776, Note_on_c, 0, 37, 28
1, 748821, Note_off_c, 0, 66, 36
1, 748987, Note_off_c, 0, 37, 38
1, 749008, Note_on_c, 0, 44, 32
1, 749256, Note_on_c, 0, 37, 26
1, 749265, Note_off_c, 0, 44, 36
1, 749529, Note_off_c, 0, 37, 38
1, 749545, Note_on_c, 0, 68, 43
1, 749560, Note_on_c, 0, 65, 42
1, 749583, Note_off_c, 0, 51, 39
1, 749600, Note_on_c, 0, 44, 21
1, 749714, Note_off_c, 0, 70, 35
1, 749772, Note_off_c, 0, 44, 38
1, 749779, Note_off_c, 0, 65, 35
1, 749782, Note_off_c, 0, 68, 53
1, 749905, Control_c, 0, 64, 111
1, 749915, Note_on_c, 0, 53, 30
1, 749920, Control_c, 0, 64, 104
1, 749934, Note_on_c, 0, 68, 47
1, 749935, Control_c, 0, 64, 95
1, 749950, Control_c, 0, 64, 86
1, 749957, Note_on_c, 0, 65, 29
1, 749964, Note_on_c, 0, 61, 36
1, 749964, Control_c, 0, 64, 80
1, 749979, Control_c, 0, 64, 76
1, 749994, Control_c, 0, 64, 71
1, 750009, Control_c, 0, 64, 66
1, 750025, Control_c, 0, 64, 60
1, 750040, Control_c, 0, 64, 52
1, 750054, Control_c, 0, 64, 42
1, 750069, Control_c, 0, 64, 34
1, 750084, Control_c, 0, 64, 35
1, 750099, Control_c, 0, 64, 39
1, 750120, Control_c, 0, 64, 46
1, 750135, Control_c, 0, 64, 53
1, 750150, Control_c, 0, 64, 60
1, 750165, Control_c, 0, 64, 64
1, 750180, Control_c, 0, 64, 68
1, 750195, Control_c, 0, 64, 75
1, 750209, Control_c, 0, 64, 83
1, 750224, Control_c, 0, 64, 93
1, 750237, Note_off_c, 0, 53, 42
1, 750239, Control_c, 0, 64, 107
1, 750254, Control_c, 0, 64, 127
1, 750296, Note_on_c, 0, 44, 18
1, 750449, Note_off_c, 0, 44, 38
1, 750500, Note_on_c, 0, 37, 32
1, 750690, Note_off_c, 0, 37, 38
1, 750733, Note_on_c, 0, 44, 19
1, 750917, Note_off_c, 0, 44, 37
1, 750940, Note_on_c, 0, 37, 31
1, 751068, Note_off_c, 0, 37, 34
1, 751163, Note_on_c, 0, 44, 26
1, 751345, Note_off_c, 0, 44, 32
1, 751385, Note_on_c, 0, 53, 39
1, 751489, Note_off_c, 0, 53, 38
1, 751638, Note_on_c, 0, 44, 33
1, 751800, Note_off_c, 0, 44, 34
1, 751837, Note_on_c, 0, 37, 35
1, 752035, Note_on_c, 0, 44, 35
1, 752037, Note_off_c, 0, 37, 41
1, 752051, Note_off_c, 0, 61, 32
1, 752141, Note_off_c, 0, 65, 33
1, 752239, Note_on_c, 0, 37, 39
1, 752240, Note_off_c, 0, 44, 38
1, 752427, Note_off_c, 0, 37, 32
1, 752472, Note_on_c, 0, 44, 40
1, 752610, Note_off_c, 0, 68, 32
1, 752610, Note_off_c, 0, 44, 33
1, 752709, Control_c, 0, 64, 120
1, 752724, Control_c, 0, 64, 110
1, 752728, Note_on_c, 0, 53, 46
1, 752738, Control_c, 0, 64, 103
1, 752753, Control_c, 0, 64, 96
1, 752768, Control_c, 0, 64, 89
1, 752783, Control_c, 0, 64, 85
1, 752797, Control_c, 0, 64, 83
1, 752812, Control_c, 0, 64, 82
1, 752827, Control_c, 0, 64, 80
1, 752842, Control_c, 0, 64, 75
1, 752857, Control_c, 0, 64, 69
1, 752871, Control_c, 0, 64, 64
1, 752886, Control_c, 0, 64, 63
1, 752901, Control_c, 0, 64, 64
1, 752916, Control_c, 0, 64, 64
1, 752931, Control_c, 0, 64, 66
1, 752946, Control_c, 0, 64, 67
1, 752961, Control_c, 0, 64, 70
1, 752976, Control_c, 0, 64, 74
1, 752989, Note_off_c, 0, 53, 52
1, 752990, Control_c, 0, 64, 83
1, 753005, Control_c, 0, 64, 95
1, 753006, Note_on_c, 0, 44, 47
1, 753020, Control_c, 0, 64, 127
1, 753174, Note_off_c, 0, 44, 61
1, 753199, Note_on_c, 0, 37, 48
1, 753473, Note_on_c, 0, 44, 33
1, 753481, Note_off_c, 0, 37, 28
1, 753512, Note_on_c, 0, 68, 77
1, 753526, Note_on_c, 0, 65, 57
1, 753760, Note_on_c, 0, 37, 42
1, 753761, Note_off_c, 0, 44, 37
1, 753962, Note_off_c, 0, 37, 35
1, 753965, Note_on_c, 0, 44, 55
1, 754076, Note_off_c, 0, 44, 59
1, 754235, Note_on_c, 0, 56, 60
1, 754378, Note_off_c, 0, 65, 50
1, 754460, Note_off_c, 0, 56, 56
1, 754553, Note_on_c, 0, 44, 48
1, 754651, Note_off_c, 0, 68, 54
1, 754746, Note_off_c, 0, 44, 45
1, 754757, Note_on_c, 0, 37, 55
1, 754952, Note_on_c, 0, 66, 73
1, 754976, Note_on_c, 0, 44, 38
1, 754979, Note_on_c, 0, 63, 54
1, 755003, Note_off_c, 0, 37, 37
1, 755203, Note_off_c, 0, 63, 56
1, 755208, Note_on_c, 0, 37, 44
1, 755227, Note_off_c, 0, 44, 37
1, 755349, Note_off_c, 0, 37, 34
1, 755483, Note_on_c, 0, 44, 40
1, 755491, Note_on_c, 0, 65, 79
1, 755509, Note_on_c, 0, 61, 67
1, 755578, Note_off_c, 0, 66, 54
1, 755660, Note_off_c, 0, 61, 59
1, 755676, Note_off_c, 0, 65, 61
1, 755715, Note_off_c, 0, 44, 31
1, 755721, Note_on_c, 0, 53, 45
1, 755769, Note_on_c, 0, 65, 70
1, 755778, Control_c, 0, 64, 109
1, 755788, Note_on_c, 0, 61, 55
1, 755793, Control_c, 0, 64, 92
1, 755808, Control_c, 0, 64, 81
1, 755822, Control_c, 0, 64, 73
1, 755837, Control_c, 0, 64, 65
1, 755852, Control_c, 0, 64, 58
1, 755867, Control_c, 0, 64, 47
1, 755882, Control_c, 0, 64, 45
1, 755897, Control_c, 0, 64, 47
1, 755912, Control_c, 0, 64, 50
1, 755927, Control_c, 0, 64, 55
1, 755942, Control_c, 0, 64, 59
1, 755957, Control_c, 0, 64, 64
1, 755971, Control_c, 0, 64, 68
1, 755986, Control_c, 0, 64, 74
1, 756001, Control_c, 0, 64, 83
1, 756010, Note_off_c, 0, 53, 40
1, 756015, Control_c, 0, 64, 95
1, 756030, Control_c, 0, 64, 115
1, 756037, Note_on_c, 0, 44, 45
1, 756045, Control_c, 0, 64, 127
1, 756228, Note_off_c, 0, 44, 41
1, 756235, Note_on_c, 0, 37, 44
1, 756424, Control_c, 0, 64, 120
1, 756428, Note_on_c, 0, 44, 37
1, 756438, Control_c, 0, 64, 107
1, 756443, Note_on_c, 0, 63, 63
1, 756453, Control_c, 0, 64, 100
1, 756455, Note_on_c, 0, 59, 53
1, 756468, Control_c, 0, 64, 95
1, 756481, Note_off_c, 0, 37, 27
1, 756483, Control_c, 0, 64, 92
1, 756498, Control_c, 0, 64, 89
1, 756512, Control_c, 0, 64, 85
1, 756527, Control_c, 0, 64, 80
1, 756541, Note_off_c, 0, 61, 51
1, 756542, Control_c, 0, 64, 75
1, 756556, Control_c, 0, 64, 70
1, 756571, Control_c, 0, 64, 65
1, 756586, Control_c, 0, 64, 61
1, 756598, Note_off_c, 0, 65, 51
1, 756601, Control_c, 0, 64, 56
1, 756616, Control_c, 0, 64, 51
1, 756630, Control_c, 0, 64, 50
1, 756645, Control_c, 0, 64, 51
1, 756660, Control_c, 0, 64, 53
1, 756668, Note_on_c, 0, 37, 33
1, 756675, Control_c, 0, 64, 55
1, 756681, Note_off_c, 0, 44, 40
1, 756690, Control_c, 0, 64, 59
1, 756705, Control_c, 0, 64, 63
1, 756720, Control_c, 0, 64, 66
1, 756735, Control_c, 0, 64, 71
1, 756750, Control_c, 0, 64, 80
1, 756764, Control_c, 0, 64, 93
1, 756779, Control_c, 0, 64, 117
1, 756794, Control_c, 0, 64, 127
1, 756834, Note_off_c, 0, 37, 35
1, 756848, Note_on_c, 0, 44, 33
1, 756956, Note_off_c, 0, 44, 37
1, 757054, Note_on_c, 0, 53, 40
1, 757111, Note_off_c, 0, 53, 54
1, 757274, Note_on_c, 0, 44, 34
1, 757477, Note_off_c, 0, 44, 39
1, 757497, Note_on_c, 0, 37, 34
1, 757693, Note_on_c, 0, 65, 51
1, 757716, Note_on_c, 0, 61, 40
1, 757721, Note_off_c, 0, 37, 40
1, 757736, Note_on_c, 0, 44, 28
1, 757864, Note_off_c, 0, 59, 34
1, 757867, Note_off_c, 0, 63, 37
1, 757927, Note_off_c, 0, 44, 38
1, 757943, Note_on_c, 0, 37, 28
1, 758017, Note_off_c, 0, 61, 48
1, 758084, Note_off_c, 0, 37, 33
1, 758193, Note_on_c, 0, 44, 26
1, 758313, Note_off_c, 0, 44, 34
1, 758542, Note_on_c, 0, 53, 33
1, 758550, Control_c, 0, 64, 112
1, 758565, Control_c, 0, 64, 105
1, 758580, Control_c, 0, 64, 101
1, 758595, Control_c, 0, 64, 96
1, 758601, Note_on_c, 0, 61, 40
1, 758609, Control_c, 0, 64, 91
1, 758624, Control_c, 0, 64, 86
1, 758625, Note_on_c, 0, 58, 33
1, 758639, Control_c, 0, 64, 82
1, 758654, Control_c, 0, 64, 78
1, 758669, Control_c, 0, 64, 71
1, 758683, Control_c, 0, 64, 64
1, 758698, Control_c, 0, 64, 54
1, 758701, Note_off_c, 0, 65, 5
1, 758713, Control_c, 0, 64, 47
1, 758728, Control_c, 0, 64, 49
1, 758742, Control_c, 0, 64, 51
1, 758757, Control_c, 0, 64, 55
1, 758772, Control_c, 0, 64, 58
1, 758787, Control_c, 0, 64, 61
1, 758803, Control_c, 0, 64, 65
1, 758818, Control_c, 0, 64, 69
1, 758832, Control_c, 0, 64, 76
1, 758847, Control_c, 0, 64, 86
1, 758862, Control_c, 0, 64, 96
1, 758877, Note_off_c, 0, 53, 39
1, 758877, Control_c, 0, 64, 105
1, 758892, Control_c, 0, 64, 114
1, 758906, Control_c, 0, 64, 125
1, 758921, Control_c, 0, 64, 127
1, 758952, Note_on_c, 0, 46, 27
1, 759010, Note_on_c, 0, 63, 41
1, 759033, Note_on_c, 0, 60, 33
1, 759048, Note_off_c, 0, 61, 33
1, 759081, Note_off_c, 0, 58, 31
1, 759110, Note_off_c, 0, 46, 40
1, 759180, Control_c, 0, 64, 119
1, 759191, Note_on_c, 0, 37, 29
1, 759195, Control_c, 0, 64, 114
1, 759210, Control_c, 0, 64, 112
1, 759225, Control_c, 0, 64, 108
1, 759239, Control_c, 0, 64, 105
1, 759254, Control_c, 0, 64, 101
1, 759269, Control_c, 0, 64, 97
1, 759284, Control_c, 0, 64, 95
1, 759299, Control_c, 0, 64, 93
1, 759313, Control_c, 0, 64, 90
1, 759328, Control_c, 0, 64, 85
1, 759340, Note_on_c, 0, 65, 44
1, 759343, Control_c, 0, 64, 78
1, 759351, Note_off_c, 0, 63, 24
1, 759354, Note_on_c, 0, 61, 35
1, 759358, Control_c, 0, 64, 70
1, 759362, Note_off_c, 0, 60, 36
1, 759373, Control_c, 0, 64, 63
1, 759376, Note_off_c, 0, 37, 42
1, 759385, Note_on_c, 0, 46, 23
1, 759388, Control_c, 0, 64, 53
1, 759403, Control_c, 0, 64, 47
1, 759417, Control_c, 0, 64, 48
1, 759432, Control_c, 0, 64, 50
1, 759447, Control_c, 0, 64, 52
1, 759462, Control_c, 0, 64, 55
1, 759477, Control_c, 0, 64, 59
1, 759492, Control_c, 0, 64, 62
1, 759506, Control_c, 0, 64, 66
1, 759521, Control_c, 0, 64, 71
1, 759536, Control_c, 0, 64, 79
1, 759550, Control_c, 0, 64, 89
1, 759565, Control_c, 0, 64, 103
1, 759567, Note_off_c, 0, 46, 39
1, 759578, Note_on_c, 0, 37, 34
1, 759580, Control_c, 0, 64, 127
1, 759725, Note_off_c, 0, 37, 31
1, 759775, Note_on_c, 0, 46, 29
1, 759990, Note_on_c, 0, 53, 39
1, 760052, Note_off_c, 0, 46, 32
1, 760155, Note_off_c, 0, 53, 33
1, 760236, Note_on_c, 0, 46, 29
1, 760410, Note_off_c, 0, 46, 40
1, 760446, Note_on_c, 0, 37, 31
1, 760639, Note_on_c, 0, 46, 40
1, 760649, Note_off_c, 0, 37, 40
1, 760837, Note_on_c, 0, 37, 41
1, 760860, Note_off_c, 0, 46, 39
1, 760889, Note_off_c, 0, 61, 31
1, 761021, Note_off_c, 0, 37, 42
1, 761048, Note_on_c, 0, 46, 48
1, 761340, Note_off_c, 0, 65, 21
1, 761367, Control_c, 0, 64, 114
1, 761370, Note_on_c, 0, 54, 53
1, 761382, Control_c, 0, 64, 107
1, 761397, Control_c, 0, 64, 101
1, 761412, Control_c, 0, 64, 96
1, 761426, Control_c, 0, 64, 91
1, 761441, Control_c, 0, 64, 87
1, 761456, Control_c, 0, 64, 83
1, 761471, Control_c, 0, 64, 79
1, 761486, Control_c, 0, 64, 76
1, 761497, Note_off_c, 0, 46, 33
1, 761501, Control_c, 0, 64, 73
1, 761515, Control_c, 0, 64, 70
1, 761530, Control_c, 0, 64, 66
1, 761545, Control_c, 0, 64, 62
1, 761560, Control_c, 0, 64, 61
1, 761604, Control_c, 0, 64, 62
1, 761619, Control_c, 0, 64, 62
1, 761633, Control_c, 0, 64, 64
1, 761648, Control_c, 0, 64, 65
1, 761663, Control_c, 0, 64, 66
1, 761678, Control_c, 0, 64, 69
1, 761693, Control_c, 0, 64, 73
1, 761705, Note_on_c, 0, 46, 39
1, 761707, Control_c, 0, 64, 79
1, 761722, Control_c, 0, 64, 88
1, 761737, Control_c, 0, 64, 107
1, 761746, Note_off_c, 0, 54, 63
1, 761752, Control_c, 0, 64, 127
1, 761923, Note_on_c, 0, 37, 44
1, 761926, Note_off_c, 0, 46, 40
1, 762187, Note_on_c, 0, 46, 35
1, 762207, Note_on_c, 0, 61, 69
1, 762224, Note_on_c, 0, 58, 55
1, 762228, Note_off_c, 0, 37, 35
1, 762419, Note_on_c, 0, 37, 43
1, 762446, Note_off_c, 0, 46, 40
1, 762547, Note_off_c, 0, 37, 36
1, 762619, Note_on_c, 0, 46, 58
1, 762836, Note_on_c, 0, 54, 48
1, 762865, Control_c, 0, 64, 104
1, 762879, Control_c, 0, 64, 95
1, 762894, Control_c, 0, 64, 91
1, 762901, Note_on_c, 0, 63, 76
1, 762909, Note_on_c, 0, 59, 65
1, 762909, Control_c, 0, 64, 87
1, 762924, Control_c, 0, 64, 84
1, 762939, Control_c, 0, 64, 80
1, 762944, Note_off_c, 0, 46, 37
1, 762953, Control_c, 0, 64, 75
1, 762954, Note_off_c, 0, 58, 56
1, 762968, Control_c, 0, 64, 71
1, 762983, Control_c, 0, 64, 68
1, 762998, Control_c, 0, 64, 65
1, 763012, Control_c, 0, 64, 60
1, 763027, Control_c, 0, 64, 52
1, 763028, Note_off_c, 0, 61, 51
1, 763042, Control_c, 0, 64, 44
1, 763057, Control_c, 0, 64, 42
1, 763087, Control_c, 0, 64, 43
1, 763102, Control_c, 0, 64, 47
1, 763117, Control_c, 0, 64, 52
1, 763132, Control_c, 0, 64, 57
1, 763146, Control_c, 0, 64, 62
1, 763161, Control_c, 0, 64, 65
1, 763176, Control_c, 0, 64, 69
1, 763181, Note_on_c, 0, 45, 47
1, 763191, Control_c, 0, 64, 75
1, 763204, Note_off_c, 0, 54, 64
1, 763205, Control_c, 0, 64, 83
1, 763220, Control_c, 0, 64, 96
1, 763235, Control_c, 0, 64, 115
1, 763250, Control_c, 0, 64, 127
1, 763392, Note_off_c, 0, 45, 56
1, 763394, Note_on_c, 0, 37, 50
1, 763469, Poly_aftertouch_c, 0, 64, 127
1, 763614, Control_c, 0, 64, 125
1, 763628, Control_c, 0, 64, 115
1, 763641, Note_on_c, 0, 60, 53
1, 763643, Control_c, 0, 64, 106
1, 763651, Note_on_c, 0, 44, 36
1, 763658, Control_c, 0, 64, 97
1, 763673, Control_c, 0, 64, 89
1, 763688, Control_c, 0, 64, 84
1, 763702, Note_off_c, 0, 37, 31
1, 763702, Control_c, 0, 64, 81
1, 763717, Control_c, 0, 64, 79
1, 763732, Control_c, 0, 64, 76
1, 763747, Control_c, 0, 64, 72
1, 763762, Control_c, 0, 64, 67
1, 763776, Control_c, 0, 64, 63
1, 763791, Control_c, 0, 64, 58
1, 763806, Control_c, 0, 64, 51
1, 763820, Control_c, 0, 64, 45
1, 763829, Note_off_c, 0, 59, 39
1, 763835, Control_c, 0, 64, 43
1, 763865, Control_c, 0, 64, 45
1, 763878, Poly_aftertouch_c, 0, 64, 0
1, 763880, Control_c, 0, 64, 50
1, 763895, Control_c, 0, 64, 54
1, 763897, Note_on_c, 0, 37, 30
1, 763910, Control_c, 0, 64, 58
1, 763921, Note_off_c, 0, 44, 40
1, 763925, Control_c, 0, 64, 62
1, 763939, Control_c, 0, 64, 65
1, 763954, Control_c, 0, 64, 68
1, 763969, Control_c, 0, 64, 75
1, 763984, Control_c, 0, 64, 83
1, 763999, Control_c, 0, 64, 94
1, 764014, Control_c, 0, 64, 112
1, 764028, Control_c, 0, 64, 127
1, 764185, Note_off_c, 0, 37, 39
1, 764196, Note_on_c, 0, 44, 27
1, 764230, Note_on_c, 0, 61, 52
1, 764419, Note_off_c, 0, 61, 58
1, 764432, Note_off_c, 0, 63, 46
1, 764500, Note_off_c, 0, 44, 22
1, 764565, Note_on_c, 0, 53, 34
1, 764599, Control_c, 0, 64, 122
1, 764609, Note_on_c, 0, 61, 60
1, 764614, Control_c, 0, 64, 108
1, 764629, Control_c, 0, 64, 98
1, 764643, Control_c, 0, 64, 92
1, 764658, Control_c, 0, 64, 88
1, 764673, Control_c, 0, 64, 85
1, 764688, Control_c, 0, 64, 80
1, 764703, Control_c, 0, 64, 74
1, 764718, Control_c, 0, 64, 65
1, 764732, Control_c, 0, 64, 56
1, 764747, Control_c, 0, 64, 46
1, 764762, Control_c, 0, 64, 45
1, 764774, Note_off_c, 0, 60, 61
1, 764777, Control_c, 0, 64, 45
1, 764792, Control_c, 0, 64, 46
1, 764807, Control_c, 0, 64, 49
1, 764822, Control_c, 0, 64, 52
1, 764837, Control_c, 0, 64, 56
1, 764851, Control_c, 0, 64, 59
1, 764866, Control_c, 0, 64, 62
1, 764881, Control_c, 0, 64, 65
1, 764896, Control_c, 0, 64, 68
1, 764911, Control_c, 0, 64, 73
1, 764925, Control_c, 0, 64, 80
1, 764939, Note_off_c, 0, 53, 41
1, 764940, Control_c, 0, 64, 90
1, 764954, Note_on_c, 0, 44, 32
1, 764955, Control_c, 0, 64, 104
1, 764970, Control_c, 0, 64, 127
1, 765119, Note_off_c, 0, 44, 37
1, 765159, Note_on_c, 0, 37, 38
1, 765358, Note_on_c, 0, 44, 35
1, 765384, Note_on_c, 0, 60, 57
1, 765393, Note_off_c, 0, 37, 35
1, 765554, Note_off_c, 0, 61, 53
1, 765588, Note_on_c, 0, 37, 32
1, 765611, Note_off_c, 0, 44, 36
1, 765770, Note_off_c, 0, 37, 41
1, 765782, Note_on_c, 0, 44, 36
1, 765993, Control_c, 0, 64, 116
1, 766008, Control_c, 0, 64, 108
1, 766023, Control_c, 0, 64, 102
1, 766033, Note_on_c, 0, 52, 39
1, 766038, Control_c, 0, 64, 98
1, 766053, Control_c, 0, 64, 94
1, 766068, Control_c, 0, 64, 90
1, 766083, Control_c, 0, 64, 85
1, 766097, Control_c, 0, 64, 82
1, 766112, Control_c, 0, 64, 80
1, 766127, Control_c, 0, 64, 79
1, 766142, Control_c, 0, 64, 77
1, 766149, Note_off_c, 0, 44, 34
1, 766157, Control_c, 0, 64, 74
1, 766171, Control_c, 0, 64, 69
1, 766186, Control_c, 0, 64, 64
1, 766201, Control_c, 0, 64, 59
1, 766216, Control_c, 0, 64, 57
1, 766231, Control_c, 0, 64, 57
1, 766260, Control_c, 0, 64, 58
1, 766275, Control_c, 0, 64, 60
1, 766289, Control_c, 0, 64, 62
1, 766304, Control_c, 0, 64, 64
1, 766319, Control_c, 0, 64, 68
1, 766333, Note_on_c, 0, 44, 13
1, 766334, Control_c, 0, 64, 73
1, 766342, Note_off_c, 0, 52, 37
1, 766349, Control_c, 0, 64, 81
1, 766363, Control_c, 0, 64, 94
1, 766378, Control_c, 0, 64, 120
1, 766393, Control_c, 0, 64, 127
1, 766478, Note_off_c, 0, 44, 37
1, 766521, Note_on_c, 0, 37, 30
1, 766706, Note_off_c, 0, 37, 36
1, 766736, Note_on_c, 0, 44, 26
1, 766757, Note_on_c, 0, 58, 45
1, 766950, Note_on_c, 0, 37, 28
1, 766951, Note_off_c, 0, 44, 37
1, 767021, Note_off_c, 0, 60, 35
1, 767114, Note_off_c, 0, 37, 38
1, 767148, Note_on_c, 0, 44, 27
1, 767298, Note_off_c, 0, 44, 30
1, 767372, Control_c, 0, 64, 114
1, 767387, Control_c, 0, 64, 104
1, 767401, Control_c, 0, 64, 97
1, 767413, Note_on_c, 0, 53, 40
1, 767416, Control_c, 0, 64, 92
1, 767431, Control_c, 0, 64, 90
1, 767445, Control_c, 0, 64, 89
1, 767460, Control_c, 0, 64, 86
1, 767475, Control_c, 0, 64, 82
1, 767490, Control_c, 0, 64, 79
1, 767505, Control_c, 0, 64, 77
1, 767520, Control_c, 0, 64, 74
1, 767535, Control_c, 0, 64, 70
1, 767550, Control_c, 0, 64, 64
1, 767565, Control_c, 0, 64, 58
1, 767580, Control_c, 0, 64, 58
1, 767596, Control_c, 0, 64, 59
1, 767611, Control_c, 0, 64, 60
1, 767625, Control_c, 0, 64, 61
1, 767640, Control_c, 0, 64, 63
1, 767655, Control_c, 0, 64, 65
1, 767669, Control_c, 0, 64, 68
1, 767684, Control_c, 0, 64, 73
1, 767699, Control_c, 0, 64, 82
1, 767714, Control_c, 0, 64, 93
1, 767720, Note_on_c, 0, 44, 38
1, 767724, Note_off_c, 0, 53, 42
1, 767729, Control_c, 0, 64, 110
1, 767743, Control_c, 0, 64, 127
1, 767881, Note_off_c, 0, 44, 35
1, 767925, Note_on_c, 0, 37, 39
1, 768197, Note_on_c, 0, 44, 30
1, 768232, Note_on_c, 0, 56, 59
1, 768237, Note_off_c, 0, 37, 38
1, 768444, Note_on_c, 0, 37, 41
1, 768478, Note_off_c, 0, 44, 38
1, 768580, Note_off_c, 0, 58, 32
1, 768604, Note_off_c, 0, 37, 35
1, 768635, Note_on_c, 0, 44, 50
1, 768897, Note_on_c, 0, 54, 46
1, 768933, Note_on_c, 0, 61, 71
1, 768953, Note_on_c, 0, 58, 56
1, 769001, Note_off_c, 0, 44, 35
1, 769200, Note_on_c, 0, 44, 49
1, 769200, Note_off_c, 0, 54, 57
1, 769396, Note_on_c, 0, 37, 54
1, 769408, Note_off_c, 0, 44, 39
1, 769536, Note_off_c, 0, 58, 37
1, 769590, Note_on_c, 0, 44, 51
1, 769630, Note_off_c, 0, 37, 34
1, 769795, Note_on_c, 0, 37, 42
1, 769808, Note_off_c, 0, 44, 52
1, 769880, Note_on_c, 0, 66, 78
1, 769909, Note_on_c, 0, 60, 64
1, 769993, Note_off_c, 0, 61, 59
1, 770004, Note_off_c, 0, 37, 33
1, 770011, Note_on_c, 0, 44, 44
1, 770076, Note_off_c, 0, 56, 36
1, 770090, Note_off_c, 0, 60, 63
1, 770203, Note_off_c, 0, 44, 29
1, 770296, Note_on_c, 0, 53, 46
1, 770313, Note_on_c, 0, 65, 71
1, 770351, Note_on_c, 0, 61, 54
1, 770360, Note_on_c, 0, 56, 50
1, 770366, Control_c, 0, 64, 116
1, 770381, Control_c, 0, 64, 100
1, 770396, Control_c, 0, 64, 89
1, 770411, Control_c, 0, 64, 82
1, 770420, Note_off_c, 0, 66, 54
1, 770426, Control_c, 0, 64, 76
1, 770441, Control_c, 0, 64, 69
1, 770456, Control_c, 0, 64, 60
1, 770470, Control_c, 0, 64, 44
1, 770485, Control_c, 0, 64, 30
1, 770500, Control_c, 0, 64, 19
1, 770515, Control_c, 0, 64, 11
1, 770544, Control_c, 0, 64, 22
1, 770559, Control_c, 0, 64, 39
1, 770574, Control_c, 0, 64, 52
1, 770589, Control_c, 0, 64, 63
1, 770604, Control_c, 0, 64, 68
1, 770618, Control_c, 0, 64, 76
1, 770633, Control_c, 0, 64, 91
1, 770648, Control_c, 0, 64, 127
1, 770679, Note_off_c, 0, 53, 46
1, 770681, Note_on_c, 0, 44, 39
1, 770839, Note_off_c, 0, 44, 35
1, 770882, Note_on_c, 0, 37, 44
1, 771073, Note_on_c, 0, 44, 49
1, 771089, Note_off_c, 0, 37, 44
1, 771266, Note_off_c, 0, 44, 55
1, 771287, Note_on_c, 0, 37, 43
1, 771399, Note_off_c, 0, 37, 48
1, 771502, Note_on_c, 0, 44, 39
1, 771695, Note_off_c, 0, 44, 33
1, 771739, Note_on_c, 0, 53, 49
1, 771772, Note_off_c, 0, 56, 38
1, 771896, Note_off_c, 0, 53, 35
1, 771961, Note_off_c, 0, 61, 36
1, 772066, Note_on_c, 0, 44, 32
1, 772229, Note_off_c, 0, 44, 39
1, 772265, Note_on_c, 0, 37, 39
1, 772453, Note_on_c, 0, 44, 32
1, 772469, Note_off_c, 0, 37, 41
1, 772473, Note_on_c, 0, 63, 65
1, 772480, Note_on_c, 0, 60, 54
1, 772635, Note_off_c, 0, 65, 49
1, 772681, Note_on_c, 0, 37, 46
1, 772696, Note_off_c, 0, 44, 39
1, 772773, Note_off_c, 0, 60, 58
1, 772805, Note_off_c, 0, 37, 52
1, 772855, Note_on_c, 0, 44, 50
1, 773029, Note_off_c, 0, 44, 35
1, 773040, Note_on_c, 0, 65, 75
1, 773047, Note_on_c, 0, 53, 51
1, 773054, Note_on_c, 0, 61, 60
1, 773079, Note_on_c, 0, 56, 55
1, 773117, Control_c, 0, 64, 107
1, 773131, Control_c, 0, 64, 82
1, 773146, Control_c, 0, 64, 66
1, 773161, Control_c, 0, 64, 51
1, 773173, Note_off_c, 0, 63, 36
1, 773177, Control_c, 0, 64, 40
1, 773192, Control_c, 0, 64, 46
1, 773207, Control_c, 0, 64, 51
1, 773222, Control_c, 0, 64, 57
1, 773236, Control_c, 0, 64, 63
1, 773251, Control_c, 0, 64, 69
1, 773266, Control_c, 0, 64, 82
1, 773280, Note_off_c, 0, 53, 55
1, 773280, Control_c, 0, 64, 127
1, 773286, Note_on_c, 0, 44, 58
1, 773470, Note_on_c, 0, 37, 63
1, 773488, Note_off_c, 0, 44, 57
1, 773630, Note_on_c, 0, 66, 90
1, 773638, Note_on_c, 0, 44, 55
1, 773640, Note_on_c, 0, 63, 66
1, 773697, Note_off_c, 0, 65, 58
1, 773704, Note_off_c, 0, 37, 37
1, 773782, Note_off_c, 0, 56, 56
1, 773829, Note_on_c, 0, 37, 61
1, 773870, Note_off_c, 0, 44, 53
1, 773887, Note_off_c, 0, 61, 34
1, 773889, Note_off_c, 0, 63, 55
1, 774021, Note_off_c, 0, 66, 58
1, 774030, Note_on_c, 0, 44, 65
1, 774034, Note_off_c, 0, 37, 59
1, 774265, Note_on_c, 0, 54, 56
1, 774311, Note_on_c, 0, 68, 83
1, 774324, Note_on_c, 0, 65, 59
1, 774336, Note_on_c, 0, 60, 61
1, 774347, Control_c, 0, 64, 103
1, 774362, Control_c, 0, 64, 83
1, 774376, Control_c, 0, 64, 70
1, 774391, Control_c, 0, 64, 61
1, 774401, Note_off_c, 0, 44, 31
1, 774406, Control_c, 0, 64, 54
1, 774421, Control_c, 0, 64, 57
1, 774436, Control_c, 0, 64, 61
1, 774451, Control_c, 0, 64, 64
1, 774465, Control_c, 0, 64, 68
1, 774480, Control_c, 0, 64, 79
1, 774495, Control_c, 0, 64, 127
1, 774583, Note_on_c, 0, 44, 42
1, 774602, Note_off_c, 0, 54, 64
1, 774665, Note_on_c, 0, 70, 88
1, 774678, Note_on_c, 0, 66, 66
1, 774741, Note_off_c, 0, 68, 59
1, 774832, Note_on_c, 0, 37, 57
1, 774839, Note_off_c, 0, 44, 51
1, 774894, Note_off_c, 0, 65, 32
1, 775037, Note_on_c, 0, 44, 55
1, 775045, Note_off_c, 0, 37, 50
1, 775173, Note_off_c, 0, 60, 47
1, 775300, Note_on_c, 0, 37, 44
1, 775352, Note_off_c, 0, 66, 34
1, 775359, Note_off_c, 0, 44, 36
1, 775477, Note_off_c, 0, 37, 46
1, 775620, Note_on_c, 0, 44, 21
1, 775657, Note_on_c, 0, 68, 71
1, 775678, Note_on_c, 0, 65, 50
1, 775773, Note_off_c, 0, 70, 51
1, 775878, Note_off_c, 0, 68, 60
1, 775897, Note_off_c, 0, 65, 61
1, 775964, Note_on_c, 0, 53, 38
1, 775974, Note_off_c, 0, 44, 29
1, 776001, Note_on_c, 0, 68, 64
1, 776009, Control_c, 0, 64, 112
1, 776014, Note_on_c, 0, 65, 46
1, 776023, Control_c, 0, 64, 101
1, 776032, Note_on_c, 0, 61, 41
1, 776038, Control_c, 0, 64, 95
1, 776053, Control_c, 0, 64, 88
1, 776068, Control_c, 0, 64, 74
1, 776082, Control_c, 0, 64, 63
1, 776097, Control_c, 0, 64, 43
1, 776112, Control_c, 0, 64, 0
1, 776171, Control_c, 0, 64, 13
1, 776186, Control_c, 0, 64, 34
1, 776201, Control_c, 0, 64, 49
1, 776216, Control_c, 0, 64, 60
1, 776230, Control_c, 0, 64, 66
1, 776245, Control_c, 0, 64, 72
1, 776260, Control_c, 0, 64, 86
1, 776274, Control_c, 0, 64, 119
1, 776289, Control_c, 0, 64, 127
1, 776341, Note_off_c, 0, 53, 42
1, 776427, Note_on_c, 0, 44, 22
1, 776579, Note_off_c, 0, 44, 40
1, 776620, Note_on_c, 0, 37, 34
1, 776821, Note_on_c, 0, 44, 36
1, 776821, Note_off_c, 0, 37, 40
1, 777008, Note_off_c, 0, 44, 39
1, 777021, Note_on_c, 0, 37, 33
1, 777175, Note_off_c, 0, 37, 33
1, 777244, Note_on_c, 0, 44, 35
1, 777416, Note_off_c, 0, 44, 26
1, 777448, Note_on_c, 0, 53, 41
1, 777634, Note_off_c, 0, 53, 43
1, 777687, Note_off_c, 0, 61, 36
1, 777721, Note_on_c, 0, 44, 32
1, 777740, Note_off_c, 0, 65, 34
1, 777905, Note_off_c, 0, 44, 39
1, 777917, Note_on_c, 0, 37, 47
1, 778099, Note_on_c, 0, 44, 33
1, 778135, Note_on_c, 0, 65, 68
1, 778143, Note_off_c, 0, 37, 32
1, 778157, Note_on_c, 0, 61, 53
1, 778246, Note_off_c, 0, 68, 37
1, 778313, Note_on_c, 0, 37, 46
1, 778325, Note_off_c, 0, 65, 62
1, 778336, Note_off_c, 0, 44, 39
1, 778414, Note_on_c, 0, 66, 88
1, 778435, Note_on_c, 0, 63, 69
1, 778459, Note_off_c, 0, 37, 54
1, 778469, Note_off_c, 0, 61, 55
1, 778510, Note_on_c, 0, 44, 58
1, 778629, Note_off_c, 0, 44, 52
1, 778701, Note_on_c, 0, 53, 57
1, 778724, Note_on_c, 0, 68, 85
1, 778726, Note_on_c, 0, 65, 66
1, 778746, Note_off_c, 0, 63, 61
1, 778747, Note_on_c, 0, 61, 68
1, 778755, Note_off_c, 0, 66, 60
1, 778781, Control_c, 0, 64, 102
1, 778796, Control_c, 0, 64, 81
1, 778811, Control_c, 0, 64, 67
1, 778826, Control_c, 0, 64, 50
1, 778841, Control_c, 0, 64, 0
1, 778930, Control_c, 0, 64, 25
1, 778945, Control_c, 0, 64, 59
1, 778960, Control_c, 0, 64, 69
1, 778969, Note_on_c, 0, 44, 58
1, 778971, Note_off_c, 0, 53, 58
1, 778974, Control_c, 0, 64, 86
1, 778989, Control_c, 0, 64, 127
1, 779141, Note_off_c, 0, 65, 56
1, 779163, Note_on_c, 0, 37, 65
1, 779172, Note_off_c, 0, 44, 59
1, 779183, Note_off_c, 0, 68, 60
1, 779416, Note_on_c, 0, 44, 50
1, 779450, Note_on_c, 0, 70, 88
1, 779482, Note_on_c, 0, 66, 57
1, 779491, Note_off_c, 0, 37, 32
1, 779680, Note_on_c, 0, 37, 57
1, 779684, Note_off_c, 0, 44, 55
1, 779844, Note_off_c, 0, 37, 57
1, 779868, Note_on_c, 0, 44, 66
1, 779971, Note_off_c, 0, 44, 61
1, 780088, Note_on_c, 0, 56, 66
1, 780220, Note_off_c, 0, 66, 37
1, 780268, Note_off_c, 0, 56, 50
1, 780282, Note_off_c, 0, 70, 50
1, 780374, Note_on_c, 0, 44, 49
1, 780479, Note_on_c, 0, 68, 82
1, 780490, Note_on_c, 0, 65, 58
1, 780567, Note_off_c, 0, 44, 39
1, 780594, Note_off_c, 0, 65, 60
1, 780596, Note_on_c, 0, 37, 48
1, 780773, Note_off_c, 0, 37, 35
1, 780774, Note_on_c, 0, 66, 83
1, 780779, Note_on_c, 0, 44, 44
1, 780804, Note_on_c, 0, 63, 67
1, 780865, Note_off_c, 0, 68, 53
1, 781031, Note_off_c, 0, 44, 52
1, 781035, Note_off_c, 0, 61, 35
1, 781038, Note_on_c, 0, 37, 45
1, 781165, Note_off_c, 0, 37, 57
1, 781326, Note_on_c, 0, 44, 34
1, 781349, Note_on_c, 0, 65, 72
1, 781366, Note_on_c, 0, 61, 61
1, 781378, Note_off_c, 0, 63, 56
1, 781404, Note_off_c, 0, 66, 56
1, 781499, Note_off_c, 0, 65, 60
1, 781527, Note_off_c, 0, 61, 59
1, 781578, Note_off_c, 0, 44, 35
1, 781603, Note_on_c, 0, 53, 40
1, 781640, Note_on_c, 0, 65, 65
1, 781660, Note_on_c, 0, 61, 59
1, 781686, Control_c, 0, 64, 110
1, 781701, Control_c, 0, 64, 92
1, 781715, Control_c, 0, 64, 79
1, 781730, Control_c, 0, 64, 69
1, 781745, Control_c, 0, 64, 60
1, 781760, Control_c, 0, 64, 51
1, 781774, Control_c, 0, 64, 48
1, 781804, Control_c, 0, 64, 50
1, 781819, Control_c, 0, 64, 54
1, 781834, Control_c, 0, 64, 57
1, 781849, Control_c, 0, 64, 62
1, 781864, Control_c, 0, 64, 66
1, 781879, Control_c, 0, 64, 71
1, 781893, Control_c, 0, 64, 79
1, 781897, Note_off_c, 0, 53, 37
1, 781908, Control_c, 0, 64, 92
1, 781923, Control_c, 0, 64, 120
1, 781938, Control_c, 0, 64, 127
1, 781940, Note_on_c, 0, 44, 36
1, 782130, Note_off_c, 0, 44, 38
1, 782140, Note_on_c, 0, 37, 39
1, 782351, Note_on_c, 0, 63, 61
1, 782358, Note_on_c, 0, 44, 36
1, 782360, Note_on_c, 0, 59, 54
1, 782390, Note_off_c, 0, 37, 39
1, 782435, Control_c, 0, 64, 125
1, 782445, Note_off_c, 0, 61, 49
1, 782450, Control_c, 0, 64, 109
1, 782464, Control_c, 0, 64, 96
1, 782479, Control_c, 0, 64, 84
1, 782481, Note_off_c, 0, 65, 49
1, 782494, Control_c, 0, 64, 77
1, 782510, Control_c, 0, 64, 76
1, 782548, Note_on_c, 0, 37, 41
1, 782569, Control_c, 0, 64, 77
1, 782579, Note_off_c, 0, 44, 40
1, 782584, Control_c, 0, 64, 79
1, 782598, Control_c, 0, 64, 83
1, 782613, Control_c, 0, 64, 87
1, 782628, Control_c, 0, 64, 95
1, 782643, Control_c, 0, 64, 112
1, 782658, Control_c, 0, 64, 127
1, 782729, Note_on_c, 0, 44, 55
1, 782746, Note_off_c, 0, 37, 56
1, 782935, Note_on_c, 0, 53, 55
1, 782935, Note_off_c, 0, 44, 33
1, 783116, Note_off_c, 0, 53, 47
1, 783150, Note_on_c, 0, 44, 53
1, 783230, Note_on_c, 0, 65, 71
1, 783243, Note_on_c, 0, 61, 65
1, 783333, Note_off_c, 0, 63, 55
1, 783351, Note_off_c, 0, 59, 36
1, 783353, Note_on_c, 0, 37, 50
1, 783353, Note_off_c, 0, 44, 56
1, 783421, Control_c, 0, 64, 115
1, 783436, Control_c, 0, 64, 107
1, 783451, Control_c, 0, 64, 101
1, 783466, Control_c, 0, 64, 95
1, 783481, Control_c, 0, 64, 89
1, 783495, Control_c, 0, 64, 85
1, 783510, Control_c, 0, 64, 82
1, 783525, Control_c, 0, 64, 78
1, 783539, Control_c, 0, 64, 76
1, 783554, Control_c, 0, 64, 73
1, 783556, Note_on_c, 0, 45, 38
1, 783571, Control_c, 0, 64, 71
1, 783585, Control_c, 0, 64, 68
1, 783599, Note_on_c, 0, 63, 51
1, 783600, Control_c, 0, 64, 66
1, 783609, Note_off_c, 0, 37, 34
1, 783611, Note_on_c, 0, 59, 39
1, 783615, Control_c, 0, 64, 64
1, 783630, Control_c, 0, 64, 61
1, 783644, Control_c, 0, 64, 57
1, 783657, Note_off_c, 0, 61, 54
1, 783658, Note_off_c, 0, 65, 55
1, 783659, Control_c, 0, 64, 51
1, 783674, Control_c, 0, 64, 47
1, 783689, Control_c, 0, 64, 46
1, 783704, Control_c, 0, 64, 47
1, 783718, Control_c, 0, 64, 49
1, 783733, Control_c, 0, 64, 52
1, 783748, Control_c, 0, 64, 56
1, 783763, Control_c, 0, 64, 59
1, 783777, Control_c, 0, 64, 63
1, 783792, Control_c, 0, 64, 66
1, 783807, Control_c, 0, 64, 71
1, 783830, Control_c, 0, 64, 78
1, 783844, Control_c, 0, 64, 85
1, 783859, Control_c, 0, 64, 91
1, 783874, Control_c, 0, 64, 94
1, 783890, Note_on_c, 0, 37, 30
1, 783904, Control_c, 0, 64, 93
1, 783918, Control_c, 0, 64, 92
1, 783922, Note_off_c, 0, 45, 36
1, 783933, Control_c, 0, 64, 91
1, 783948, Control_c, 0, 64, 88
1, 783962, Note_on_c, 0, 65, 51
1, 783963, Control_c, 0, 64, 85
1, 783968, Note_on_c, 0, 61, 46
1, 783977, Control_c, 0, 64, 80
1, 783980, Note_off_c, 0, 59, 37
1, 783992, Control_c, 0, 64, 76
1, 784021, Note_off_c, 0, 63, 55
1, 784022, Control_c, 0, 64, 77
1, 784037, Control_c, 0, 64, 78
1, 784052, Control_c, 0, 64, 80
1, 784067, Control_c, 0, 64, 83
1, 784081, Control_c, 0, 64, 88
1, 784096, Control_c, 0, 64, 93
1, 784099, Note_off_c, 0, 37, 43
1, 784111, Control_c, 0, 64, 100
1, 784114, Note_on_c, 0, 45, 35
1, 784126, Control_c, 0, 64, 109
1, 784141, Control_c, 0, 64, 120
1, 784152, Note_off_c, 0, 61, 53
1, 784156, Control_c, 0, 64, 127
1, 784265, Note_off_c, 0, 45, 35
1, 784318, Control_c, 0, 64, 122
1, 784333, Control_c, 0, 64, 119
1, 784348, Control_c, 0, 64, 115
1, 784364, Control_c, 0, 64, 112
1, 784379, Control_c, 0, 64, 108
1, 784393, Control_c, 0, 64, 104
1, 784408, Control_c, 0, 64, 102
1, 784423, Control_c, 0, 64, 100
1, 784435, Note_on_c, 0, 53, 32
1, 784438, Control_c, 0, 64, 98
1, 784453, Control_c, 0, 64, 93
1, 784456, Note_on_c, 0, 61, 44
1, 784467, Control_c, 0, 64, 89
1, 784472, Note_on_c, 0, 58, 35
1, 784482, Control_c, 0, 64, 84
1, 784497, Control_c, 0, 64, 79
1, 784512, Control_c, 0, 64, 75
1, 784527, Control_c, 0, 64, 69
1, 784541, Control_c, 0, 64, 62
1, 784564, Control_c, 0, 64, 50
1, 784578, Note_off_c, 0, 65, 56
1, 784579, Control_c, 0, 64, 41
1, 784608, Control_c, 0, 64, 42
1, 784623, Control_c, 0, 64, 46
1, 784638, Control_c, 0, 64, 50
1, 784653, Control_c, 0, 64, 55
1, 784667, Control_c, 0, 64, 60
1, 784682, Control_c, 0, 64, 64
1, 784697, Control_c, 0, 64, 68
1, 784712, Control_c, 0, 64, 72
1, 784727, Control_c, 0, 64, 79
1, 784741, Control_c, 0, 64, 89
1, 784755, Control_c, 0, 64, 101
1, 784770, Control_c, 0, 64, 120
1, 784779, Note_off_c, 0, 53, 40
1, 784785, Control_c, 0, 64, 127
1, 784817, Note_on_c, 0, 46, 18
1, 784880, Note_on_c, 0, 63, 46
1, 784911, Note_on_c, 0, 60, 24
1, 784961, Note_off_c, 0, 58, 34
1, 784964, Note_off_c, 0, 61, 27
1, 784967, Note_off_c, 0, 46, 42
1, 785046, Note_on_c, 0, 37, 27
1, 785186, Control_c, 0, 64, 116
1, 785201, Control_c, 0, 64, 105
1, 785215, Note_on_c, 0, 65, 43
1, 785215, Control_c, 0, 64, 99
1, 785224, Note_on_c, 0, 61, 39
1, 785230, Control_c, 0, 64, 92
1, 785240, Note_on_c, 0, 46, 33
1, 785244, Note_off_c, 0, 60, 39
1, 785245, Control_c, 0, 64, 84
1, 785260, Control_c, 0, 64, 74
1, 785275, Control_c, 0, 64, 64
1, 785277, Note_off_c, 0, 37, 40
1, 785289, Note_off_c, 0, 63, 18
1, 785289, Control_c, 0, 64, 58
1, 785312, Control_c, 0, 64, 59
1, 785327, Control_c, 0, 64, 60
1, 785342, Control_c, 0, 64, 61
1, 785357, Control_c, 0, 64, 63
1, 785371, Control_c, 0, 64, 65
1, 785386, Control_c, 0, 64, 69
1, 785401, Control_c, 0, 64, 75
1, 785415, Control_c, 0, 64, 85
1, 785430, Control_c, 0, 64, 96
1, 785441, Note_on_c, 0, 37, 28
1, 785445, Control_c, 0, 64, 116
1, 785450, Note_off_c, 0, 46, 36
1, 785460, Control_c, 0, 64, 127
1, 785611, Note_off_c, 0, 37, 42
1, 785655, Note_on_c, 0, 46, 32
1, 785864, Note_on_c, 0, 53, 42
1, 785897, Note_off_c, 0, 46, 33
1, 786002, Note_off_c, 0, 61, 36
1, 786047, Note_off_c, 0, 53, 41
1, 786096, Note_on_c, 0, 46, 39
1, 786284, Note_off_c, 0, 46, 39
1, 786302, Note_on_c, 0, 37, 37
1, 786540, Note_on_c, 0, 46, 34
1, 786582, Note_off_c, 0, 37, 39
1, 786601, Note_on_c, 0, 63, 53
1, 786631, Note_on_c, 0, 60, 42
1, 786802, Note_off_c, 0, 65, 33
1, 786891, Note_on_c, 0, 37, 39
1, 786916, Note_off_c, 0, 46, 39
1, 786966, Note_off_c, 0, 60, 56
1, 787023, Note_off_c, 0, 37, 34
1, 787125, Note_on_c, 0, 61, 75
1, 787140, Note_on_c, 0, 46, 40
1, 787160, Note_on_c, 0, 58, 52
1, 787172, Note_off_c, 0, 63, 60
1, 787305, Note_off_c, 0, 58, 54
1, 787322, Note_off_c, 0, 61, 59
1, 787396, Note_on_c, 0, 54, 51
1, 787432, Control_c, 0, 64, 120
1, 787442, Note_on_c, 0, 61, 70
1, 787447, Control_c, 0, 64, 104
1, 787455, Note_on_c, 0, 58, 59
1, 787462, Control_c, 0, 64, 94
1, 787477, Control_c, 0, 64, 88
1, 787492, Control_c, 0, 64, 86
1, 787507, Control_c, 0, 64, 85
1, 787507, Note_off_c, 0, 46, 30
1, 787521, Control_c, 0, 64, 82
1, 787536, Control_c, 0, 64, 77
1, 787551, Control_c, 0, 64, 69
1, 787574, Control_c, 0, 64, 62
1, 787589, Control_c, 0, 64, 58
1, 787604, Control_c, 0, 64, 59
1, 787618, Control_c, 0, 64, 59
1, 787633, Control_c, 0, 64, 60
1, 787648, Control_c, 0, 64, 61
1, 787663, Control_c, 0, 64, 63
1, 787678, Control_c, 0, 64, 65
1, 787692, Control_c, 0, 64, 68
1, 787707, Control_c, 0, 64, 73
1, 787721, Note_on_c, 0, 46, 54
1, 787722, Control_c, 0, 64, 82
1, 787737, Control_c, 0, 64, 92
1, 787746, Note_off_c, 0, 54, 63
1, 787752, Control_c, 0, 64, 107
1, 787766, Control_c, 0, 64, 127
1, 787864, Note_off_c, 0, 58, 36
1, 787914, Note_on_c, 0, 37, 62
1, 787925, Note_off_c, 0, 46, 59
1, 788112, Note_on_c, 0, 45, 50
1, 788137, Control_c, 0, 64, 117
1, 788150, Note_on_c, 0, 63, 71
1, 788152, Control_c, 0, 64, 107
1, 788158, Note_on_c, 0, 59, 62
1, 788167, Control_c, 0, 64, 100
1, 788182, Control_c, 0, 64, 95
1, 788192, Note_off_c, 0, 37, 34
1, 788197, Control_c, 0, 64, 89
1, 788203, Note_off_c, 0, 61, 57
1, 788211, Control_c, 0, 64, 84
1, 788226, Control_c, 0, 64, 78
1, 788241, Control_c, 0, 64, 73
1, 788256, Control_c, 0, 64, 68
1, 788271, Control_c, 0, 64, 63
1, 788285, Control_c, 0, 64, 57
1, 788300, Control_c, 0, 64, 50
1, 788323, Control_c, 0, 64, 45
1, 788338, Control_c, 0, 64, 46
1, 788353, Control_c, 0, 64, 50
1, 788358, Note_on_c, 0, 37, 42
1, 788368, Control_c, 0, 64, 54
1, 788383, Note_off_c, 0, 45, 57
1, 788383, Control_c, 0, 64, 58
1, 788398, Control_c, 0, 64, 62
1, 788413, Control_c, 0, 64, 66
1, 788428, Control_c, 0, 64, 70
1, 788442, Control_c, 0, 64, 76
1, 788457, Control_c, 0, 64, 87
1, 788472, Control_c, 0, 64, 97
1, 788484, Note_off_c, 0, 37, 56
1, 788487, Control_c, 0, 64, 109
1, 788502, Control_c, 0, 64, 127
1, 788574, Note_on_c, 0, 45, 41
1, 788664, Control_c, 0, 64, 119
1, 788679, Control_c, 0, 64, 115
1, 788694, Control_c, 0, 64, 112
1, 788708, Control_c, 0, 64, 109
1, 788723, Control_c, 0, 64, 108
1, 788738, Control_c, 0, 64, 105
1, 788753, Control_c, 0, 64, 102
1, 788768, Control_c, 0, 64, 100
1, 788782, Control_c, 0, 64, 98
1, 788797, Control_c, 0, 64, 97
1, 788812, Control_c, 0, 64, 94
1, 788827, Control_c, 0, 64, 91
1, 788842, Control_c, 0, 64, 87
1, 788853, Note_on_c, 0, 60, 41
1, 788854, Note_on_c, 0, 54, 35
1, 788857, Control_c, 0, 64, 84
1, 788872, Control_c, 0, 64, 82
1, 788887, Control_c, 0, 64, 80
1, 788901, Control_c, 0, 64, 78
1, 788916, Control_c, 0, 64, 74
1, 788931, Control_c, 0, 64, 72
1, 788946, Control_c, 0, 64, 69
1, 788948, Note_off_c, 0, 45, 38
1, 788960, Control_c, 0, 64, 67
1, 788975, Control_c, 0, 64, 65
1, 788978, Note_off_c, 0, 59, 35
1, 788990, Control_c, 0, 64, 63
1, 789005, Control_c, 0, 64, 59
1, 789020, Control_c, 0, 64, 51
1, 789034, Control_c, 0, 64, 41
1, 789057, Control_c, 0, 64, 35
1, 789086, Control_c, 0, 64, 39
1, 789101, Control_c, 0, 64, 45
1, 789116, Control_c, 0, 64, 54
1, 789131, Control_c, 0, 64, 61
1, 789146, Control_c, 0, 64, 65
1, 789161, Control_c, 0, 64, 69
1, 789168, Note_on_c, 0, 44, 30
1, 789170, Note_off_c, 0, 54, 55
1, 789176, Control_c, 0, 64, 76
1, 789191, Control_c, 0, 64, 86
1, 789206, Control_c, 0, 64, 104
1, 789221, Control_c, 0, 64, 127
1, 789331, Note_off_c, 0, 44, 40
1, 789395, Note_on_c, 0, 37, 28
1, 789587, Note_off_c, 0, 37, 41
1, 789607, Note_on_c, 0, 65, 41
1, 789649, Note_on_c, 0, 44, 17
1, 789838, Note_off_c, 0, 60, 36
1, 789847, Note_off_c, 0, 44, 36
1, 789897, Note_on_c, 0, 37, 20
1, 790094, Note_off_c, 0, 37, 39
1, 790157, Note_off_c, 0, 65, 42
1, 790222, Note_on_c, 0, 61, 41
1, 790277, Note_on_c, 0, 44, 5
1, 790395, Note_off_c, 0, 63, 28
1, 790440, Note_off_c, 0, 44, 35
1, 790488, Note_off_c, 0, 61, 36
1, 790613, Control_c, 0, 64, 109
1, 790624, Note_on_c, 0, 53, 32
1, 790628, Control_c, 0, 64, 101
1, 790643, Control_c, 0, 64, 96
1, 790651, Note_on_c, 0, 61, 34
1, 790658, Control_c, 0, 64, 92
1, 790673, Control_c, 0, 64, 87
1, 790687, Control_c, 0, 64, 82
1, 790702, Control_c, 0, 64, 75
1, 790717, Control_c, 0, 64, 69
1, 790732, Control_c, 0, 64, 63
1, 790747, Control_c, 0, 64, 56
1, 790762, Control_c, 0, 64, 48
1, 790777, Control_c, 0, 64, 43
1, 790791, Control_c, 0, 64, 42
1, 790806, Control_c, 0, 64, 45
1, 790821, Control_c, 0, 64, 50
1, 790836, Control_c, 0, 64, 54
1, 790851, Control_c, 0, 64, 60
1, 790866, Control_c, 0, 64, 65
1, 790881, Control_c, 0, 64, 72
1, 790896, Control_c, 0, 64, 82
1, 790910, Control_c, 0, 64, 98
1, 790917, Note_off_c, 0, 53, 40
1, 790925, Control_c, 0, 64, 127
1, 791024, Note_on_c, 0, 44, 16
1, 791158, Note_off_c, 0, 44, 35
1, 791226, Note_on_c, 0, 37, 27
1, 791422, Note_off_c, 0, 37, 40
1, 791445, Note_on_c, 0, 44, 31
1, 791621, Note_off_c, 0, 44, 39
1, 791655, Note_on_c, 0, 37, 30
1, 791760, Note_off_c, 0, 37, 36
1, 791881, Note_on_c, 0, 44, 18
1, 792014, Note_off_c, 0, 44, 31
1, 792112, Note_on_c, 0, 53, 34
1, 792215, Note_off_c, 0, 53, 36
1, 792377, Note_on_c, 0, 44, 12
1, 792464, Note_off_c, 0, 44, 43
1, 792487, Note_off_c, 0, 61, 31
1, 792553, Note_on_c, 0, 37, 27
1, 792743, Note_off_c, 0, 37, 40
1, 792746, Note_on_c, 0, 44, 29
1, 792941, Note_off_c, 0, 44, 38
1, 792960, Note_on_c, 0, 37, 23
1, 793053, Note_off_c, 0, 37, 35
1, 793184, Note_on_c, 0, 44, 32
1, 793319, Note_off_c, 0, 44, 29
1, 793468, Note_on_c, 0, 53, 35
1, 793482, Control_c, 0, 64, 115
1, 793496, Control_c, 0, 64, 109
1, 793511, Control_c, 0, 64, 103
1, 793526, Control_c, 0, 64, 95
1, 793541, Control_c, 0, 64, 87
1, 793564, Control_c, 0, 64, 79
1, 793578, Control_c, 0, 64, 74
1, 793593, Control_c, 0, 64, 72
1, 793608, Control_c, 0, 64, 72
1, 793652, Control_c, 0, 64, 73
1, 793667, Control_c, 0, 64, 74
1, 793682, Control_c, 0, 64, 77
1, 793696, Control_c, 0, 64, 79
1, 793711, Control_c, 0, 64, 83
1, 793726, Control_c, 0, 64, 90
1, 793742, Control_c, 0, 64, 102
1, 793757, Control_c, 0, 64, 127
1, 793821, Note_off_c, 0, 53, 41
1, 793849, Note_on_c, 0, 44, 27
1, 793989, Note_on_c, 0, 61, 66
1, 794047, Note_off_c, 0, 44, 39
1, 794127, Note_on_c, 0, 37, 32
1, 794332, Note_on_c, 0, 44, 32
1, 794340, Note_off_c, 0, 37, 40
1, 794357, Note_on_c, 0, 70, 69
1, 794386, Note_on_c, 0, 66, 50
1, 794467, Note_off_c, 0, 66, 56
1, 794561, Note_off_c, 0, 44, 38
1, 794571, Note_on_c, 0, 37, 39
1, 794651, Note_on_c, 0, 68, 84
1, 794673, Note_on_c, 0, 65, 67
1, 794685, Note_off_c, 0, 37, 50
1, 794722, Note_off_c, 0, 70, 59
1, 794751, Note_on_c, 0, 44, 49
1, 794804, Note_off_c, 0, 65, 58
1, 794825, Note_off_c, 0, 68, 61
1, 794858, Note_off_c, 0, 44, 52
1, 794914, Note_on_c, 0, 68, 81
1, 794926, Note_on_c, 0, 53, 46
1, 794927, Note_on_c, 0, 65, 64
1, 794950, Control_c, 0, 64, 102
1, 794965, Control_c, 0, 64, 81
1, 794980, Control_c, 0, 64, 67
1, 794995, Control_c, 0, 64, 57
1, 795010, Control_c, 0, 64, 48
1, 795024, Control_c, 0, 64, 50
1, 795039, Control_c, 0, 64, 50
1, 795062, Control_c, 0, 64, 53
1, 795076, Control_c, 0, 64, 58
1, 795091, Control_c, 0, 64, 61
1, 795106, Control_c, 0, 64, 65
1, 795121, Control_c, 0, 64, 70
1, 795127, Note_off_c, 0, 53, 43
1, 795136, Control_c, 0, 64, 79
1, 795149, Note_on_c, 0, 44, 48
1, 795150, Control_c, 0, 64, 93
1, 795165, Control_c, 0, 64, 127
1, 795277, Note_off_c, 0, 65, 54
1, 795296, Note_off_c, 0, 44, 53
1, 795305, Note_off_c, 0, 68, 56
1, 795334, Note_on_c, 0, 37, 49
1, 795534, Note_off_c, 0, 37, 33
1, 795540, Note_on_c, 0, 66, 68
1, 795548, Note_on_c, 0, 44, 33
1, 795564, Note_on_c, 0, 63, 53
1, 795636, Note_off_c, 0, 61, 33
1, 795677, Note_off_c, 0, 63, 56
1, 795766, Note_off_c, 0, 44, 39
1, 795779, Note_on_c, 0, 37, 39
1, 795858, Note_off_c, 0, 37, 53
1, 796014, Note_on_c, 0, 65, 63
1, 796032, Note_on_c, 0, 61, 56
1, 796038, Note_on_c, 0, 44, 36
1, 796062, Note_off_c, 0, 66, 52
1, 796178, Note_off_c, 0, 65, 58
1, 796183, Note_off_c, 0, 44, 35
1, 796187, Note_off_c, 0, 61, 56
1, 796269, Control_c, 0, 64, 119
1, 796284, Control_c, 0, 64, 106
1, 796285, Note_on_c, 0, 53, 38
1, 796298, Control_c, 0, 64, 98
1, 796313, Control_c, 0, 64, 91
1, 796328, Control_c, 0, 64, 83
1, 796344, Note_on_c, 0, 65, 41
1, 796344, Control_c, 0, 64, 74
1, 796351, Note_on_c, 0, 61, 41
1, 796359, Control_c, 0, 64, 65
1, 796374, Control_c, 0, 64, 56
1, 796388, Control_c, 0, 64, 50
1, 796403, Control_c, 0, 64, 49
1, 796418, Control_c, 0, 64, 50
1, 796433, Control_c, 0, 64, 54
1, 796448, Control_c, 0, 64, 57
1, 796462, Control_c, 0, 64, 62
1, 796477, Control_c, 0, 64, 65
1, 796492, Control_c, 0, 64, 69
1, 796507, Control_c, 0, 64, 75
1, 796508, Note_off_c, 0, 65, 53
1, 796521, Control_c, 0, 64, 82
1, 796530, Note_off_c, 0, 53, 41
1, 796536, Control_c, 0, 64, 87
1, 796559, Control_c, 0, 64, 91
1, 796598, Note_off_c, 0, 61, 37
1, 796618, Note_on_c, 0, 45, 33
1, 796618, Control_c, 0, 64, 90
1, 796628, Note_on_c, 0, 60, 49
1, 796631, Note_on_c, 0, 63, 43
1, 796647, Control_c, 0, 64, 89
1, 796662, Control_c, 0, 64, 88
1, 796677, Control_c, 0, 64, 88
1, 796692, Control_c, 0, 64, 87
1, 796707, Control_c, 0, 64, 87
1, 796721, Control_c, 0, 64, 86
1, 796736, Control_c, 0, 64, 84
1, 796751, Control_c, 0, 64, 83
1, 796766, Control_c, 0, 64, 82
1, 796781, Control_c, 0, 64, 82
1, 796795, Control_c, 0, 64, 80
1, 796810, Control_c, 0, 64, 78
1, 796812, Note_off_c, 0, 60, 42
1, 796816, Note_off_c, 0, 45, 39
1, 796819, Note_off_c, 0, 63, 33
1, 796821, Note_on_c, 0, 65, 43
1, 796825, Control_c, 0, 64, 76
1, 796829, Note_on_c, 0, 61, 39
1, 796840, Control_c, 0, 64, 74
1, 796846, Note_on_c, 0, 37, 28
1, 796855, Control_c, 0, 64, 73
1, 796870, Control_c, 0, 64, 72
1, 796884, Control_c, 0, 64, 71
1, 796899, Control_c, 0, 64, 70
1, 796914, Control_c, 0, 64, 68
1, 796929, Control_c, 0, 64, 67
1, 796944, Control_c, 0, 64, 66
1, 796959, Control_c, 0, 64, 65
1, 796974, Control_c, 0, 64, 62
1, 796989, Control_c, 0, 64, 58
1, 797003, Control_c, 0, 64, 54
1, 797013, Note_on_c, 0, 45, 34
1, 797018, Control_c, 0, 64, 53
1, 797022, Note_off_c, 0, 37, 45
1, 797033, Control_c, 0, 64, 53
1, 797047, Control_c, 0, 64, 54
1, 797062, Control_c, 0, 64, 55
1, 797077, Control_c, 0, 64, 57
1, 797092, Control_c, 0, 64, 59
1, 797107, Control_c, 0, 64, 61
1, 797121, Control_c, 0, 64, 62
1, 797136, Control_c, 0, 64, 64
1, 797152, Control_c, 0, 64, 66
1, 797167, Control_c, 0, 64, 69
1, 797178, Note_off_c, 0, 45, 52
1, 797182, Control_c, 0, 64, 73
1, 797197, Control_c, 0, 64, 77
1, 797205, Note_on_c, 0, 37, 30
1, 797211, Control_c, 0, 64, 83
1, 797226, Control_c, 0, 64, 90
1, 797241, Control_c, 0, 64, 98
1, 797256, Control_c, 0, 64, 111
1, 797270, Control_c, 0, 64, 127
1, 797389, Note_off_c, 0, 37, 39
1, 797397, Note_on_c, 0, 45, 39
1, 797427, Note_off_c, 0, 65, 36
1, 797498, Note_off_c, 0, 45, 54
1, 797555, Note_off_c, 0, 61, 30
1, 797575, Control_c, 0, 64, 119
1, 797590, Control_c, 0, 64, 115
1, 797597, Note_on_c, 0, 53, 48
1, 797605, Control_c, 0, 64, 110
1, 797619, Control_c, 0, 64, 102
1, 797634, Control_c, 0, 64, 96
1, 797649, Control_c, 0, 64, 92
1, 797664, Control_c, 0, 64, 88
1, 797678, Control_c, 0, 64, 84
1, 797693, Control_c, 0, 64, 78
1, 797708, Control_c, 0, 64, 70
1, 797723, Control_c, 0, 64, 63
1, 797738, Control_c, 0, 64, 58
1, 797752, Control_c, 0, 64, 60
1, 797767, Control_c, 0, 64, 62
1, 797782, Control_c, 0, 64, 64
1, 797792, Note_on_c, 0, 44, 48
1, 797795, Note_off_c, 0, 53, 46
1, 797797, Control_c, 0, 64, 66
1, 797812, Control_c, 0, 64, 71
1, 797826, Control_c, 0, 64, 81
1, 797841, Control_c, 0, 64, 99
1, 797856, Control_c, 0, 64, 127
1, 797891, Note_on_c, 0, 61, 77
1, 797978, Note_off_c, 0, 44, 47
1, 798017, Note_on_c, 0, 37, 46
1, 798245, Note_on_c, 0, 44, 40
1, 798245, Note_on_c, 0, 68, 75
1, 798260, Note_on_c, 0, 65, 55
1, 798271, Note_off_c, 0, 37, 30
1, 798468, Note_on_c, 0, 70, 86
1, 798470, Note_on_c, 0, 66, 66
1, 798474, Note_on_c, 0, 37, 47
1, 798478, Note_off_c, 0, 44, 40
1, 798491, Note_off_c, 0, 65, 60
1, 798511, Note_off_c, 0, 68, 59
1, 798539, Note_off_c, 0, 66, 61
1, 798572, Note_off_c, 0, 37, 53
1, 798652, Note_on_c, 0, 68, 88
1, 798666, Note_on_c, 0, 44, 53
1, 798668, Note_on_c, 0, 65, 74
1, 798709, Note_off_c, 0, 70, 59
1, 798765, Note_off_c, 0, 44, 52
1, 798779, Note_off_c, 0, 65, 58
1, 798785, Note_off_c, 0, 68, 61
1, 798844, Note_on_c, 0, 53, 47
1, 798869, Note_on_c, 0, 68, 78
1, 798880, Control_c, 0, 64, 115
1, 798891, Note_on_c, 0, 65, 66
1, 798895, Control_c, 0, 64, 93
1, 798910, Control_c, 0, 64, 79
1, 798924, Control_c, 0, 64, 67
1, 798939, Control_c, 0, 64, 56
1, 798954, Control_c, 0, 64, 38
1, 798969, Control_c, 0, 64, 36
1, 798984, Control_c, 0, 64, 40
1, 798998, Control_c, 0, 64, 47
1, 799013, Control_c, 0, 64, 54
1, 799028, Control_c, 0, 64, 59
1, 799043, Control_c, 0, 64, 64
1, 799051, Note_off_c, 0, 53, 60
1, 799058, Control_c, 0, 64, 70
1, 799067, Note_on_c, 0, 44, 54
1, 799072, Control_c, 0, 64, 83
1, 799087, Control_c, 0, 64, 110
1, 799102, Control_c, 0, 64, 127
1, 799165, Note_off_c, 0, 65, 58
1, 799166, Note_off_c, 0, 68, 59
1, 799242, Note_off_c, 0, 44, 60
1, 799246, Note_on_c, 0, 37, 62
1, 799431, Note_on_c, 0, 66, 69
1, 799449, Note_on_c, 0, 44, 40
1, 799460, Note_on_c, 0, 63, 52
1, 799478, Note_off_c, 0, 37, 33
1, 799509, Note_off_c, 0, 63, 60
1, 799516, Note_off_c, 0, 61, 52
1, 799634, Note_off_c, 0, 44, 56
1, 799636, Note_on_c, 0, 65, 84
1, 799643, Note_on_c, 0, 61, 78
1, 799647, Note_on_c, 0, 37, 45
1, 799685, Note_off_c, 0, 66, 54
1, 799728, Note_off_c, 0, 37, 57
1, 799806, Note_on_c, 0, 63, 83
1, 799810, Note_on_c, 0, 44, 45
1, 799812, Note_on_c, 0, 60, 74
1, 799839, Note_off_c, 0, 61, 58
1, 799844, Note_off_c, 0, 65, 59
1, 799983, Note_on_c, 0, 53, 47
1, 799999, Control_c, 0, 64, 105
1, 800013, Control_c, 0, 64, 94
1, 800014, Note_on_c, 0, 65, 66
1, 800023, Note_on_c, 0, 61, 63
1, 800023, Note_off_c, 0, 44, 30
1, 800028, Control_c, 0, 64, 84
1, 800043, Control_c, 0, 64, 75
1, 800058, Control_c, 0, 64, 67
1, 800069, Note_off_c, 0, 63, 57
1, 800072, Control_c, 0, 64, 59
1, 800081, Note_off_c, 0, 60, 56
1, 800087, Control_c, 0, 64, 46
1, 800102, Control_c, 0, 64, 35
1, 800117, Control_c, 0, 64, 30
1, 800131, Control_c, 0, 64, 30
1, 800146, Control_c, 0, 64, 38
1, 800161, Control_c, 0, 64, 45
1, 800176, Control_c, 0, 64, 52
1, 800191, Control_c, 0, 64, 60
1, 800205, Control_c, 0, 64, 64
1, 800216, Note_off_c, 0, 53, 39
1, 800220, Control_c, 0, 64, 68
1, 800228, Note_on_c, 0, 45, 40
1, 800235, Control_c, 0, 64, 75
1, 800250, Control_c, 0, 64, 87
1, 800265, Control_c, 0, 64, 106
1, 800280, Control_c, 0, 64, 127
1, 800417, Note_on_c, 0, 63, 57
1, 800423, Note_off_c, 0, 61, 46
1, 800438, Note_on_c, 0, 60, 42
1, 800448, Note_off_c, 0, 45, 36
1, 800461, Note_off_c, 0, 65, 57
1, 800467, Note_on_c, 0, 37, 38
1, 800599, Control_c, 0, 64, 116
1, 800614, Control_c, 0, 64, 109
1, 800629, Control_c, 0, 64, 104
1, 800643, Control_c, 0, 64, 100
1, 800658, Control_c, 0, 64, 98
1, 800673, Control_c, 0, 64, 96
1, 800688, Control_c, 0, 64, 94
1, 800691, Note_on_c, 0, 45, 34
1, 800697, Note_on_c, 0, 65, 48
1, 800703, Control_c, 0, 64, 90
1, 800718, Control_c, 0, 64, 87
1, 800725, Note_on_c, 0, 61, 38
1, 800733, Control_c, 0, 64, 83
1, 800738, Note_off_c, 0, 37, 37
1, 800748, Control_c, 0, 64, 77
1, 800750, Note_off_c, 0, 60, 31
1, 800754, Note_off_c, 0, 63, 36
1, 800762, Control_c, 0, 64, 72
1, 800777, Control_c, 0, 64, 65
1, 800792, Control_c, 0, 64, 58
1, 800807, Control_c, 0, 64, 51
1, 800822, Control_c, 0, 64, 50
1, 800836, Control_c, 0, 64, 52
1, 800851, Control_c, 0, 64, 53
1, 800866, Control_c, 0, 64, 56
1, 800881, Control_c, 0, 64, 59
1, 800895, Control_c, 0, 64, 61
1, 800910, Control_c, 0, 64, 63
1, 800925, Control_c, 0, 64, 66
1, 800930, Note_off_c, 0, 45, 55
1, 800933, Note_on_c, 0, 37, 31
1, 800940, Control_c, 0, 64, 71
1, 800955, Control_c, 0, 64, 79
1, 800969, Control_c, 0, 64, 91
1, 800984, Control_c, 0, 64, 109
1, 800999, Control_c, 0, 64, 127
1, 801117, Note_on_c, 0, 45, 40
1, 801117, Note_off_c, 0, 37, 43
1, 801159, Note_off_c, 0, 65, 38
1, 801204, Note_off_c, 0, 61, 40
1, 801207, Note_off_c, 0, 45, 57
1, 801337, Note_on_c, 0, 53, 48
1, 801379, Control_c, 0, 64, 115
1, 801393, Control_c, 0, 64, 103
1, 801408, Control_c, 0, 64, 96
1, 801423, Control_c, 0, 64, 92
1, 801438, Control_c, 0, 64, 91
1, 801453, Control_c, 0, 64, 88
1, 801467, Control_c, 0, 64, 83
1, 801482, Control_c, 0, 64, 74
1, 801497, Control_c, 0, 64, 68
1, 801511, Control_c, 0, 64, 64
1, 801526, Control_c, 0, 64, 62
1, 801541, Control_c, 0, 64, 62
1, 801556, Control_c, 0, 64, 61
1, 801585, Control_c, 0, 64, 63
1, 801600, Control_c, 0, 64, 65
1, 801610, Note_on_c, 0, 44, 39
1, 801615, Control_c, 0, 64, 67
1, 801630, Note_off_c, 0, 53, 38
1, 801630, Control_c, 0, 64, 70
1, 801645, Control_c, 0, 64, 75
1, 801660, Control_c, 0, 64, 83
1, 801675, Control_c, 0, 64, 106
1, 801690, Control_c, 0, 64, 127
1, 801723, Note_on_c, 0, 56, 58
1, 801837, Note_off_c, 0, 44, 40
1, 801875, Note_on_c, 0, 37, 41
1, 802082, Note_on_c, 0, 44, 32
1, 802089, Note_off_c, 0, 37, 39
1, 802092, Note_on_c, 0, 61, 65
1, 802109, Note_on_c, 0, 58, 50
1, 802331, Note_on_c, 0, 37, 48
1, 802351, Note_off_c, 0, 44, 40
1, 802360, Note_off_c, 0, 58, 60
1, 802372, Note_off_c, 0, 61, 59
1, 802520, Note_off_c, 0, 37, 52
1, 802536, Note_on_c, 0, 65, 80
1, 802551, Note_on_c, 0, 60, 64
1, 802560, Note_on_c, 0, 44, 48
1, 802667, Note_off_c, 0, 56, 30
1, 802686, Note_off_c, 0, 65, 56
1, 802735, Note_off_c, 0, 44, 31
1, 802766, Note_on_c, 0, 53, 55
1, 802784, Note_on_c, 0, 65, 89
1, 802794, Note_on_c, 0, 61, 65
1, 802797, Note_on_c, 0, 56, 70
1, 802824, Note_off_c, 0, 60, 63
1, 802845, Control_c, 0, 64, 96
1, 802860, Control_c, 0, 64, 71
1, 802875, Control_c, 0, 64, 54
1, 802890, Control_c, 0, 64, 36
1, 802904, Control_c, 0, 64, 44
1, 802919, Control_c, 0, 64, 51
1, 802934, Control_c, 0, 64, 57
1, 802949, Control_c, 0, 64, 62
1, 802963, Control_c, 0, 64, 68
1, 802978, Control_c, 0, 64, 88
1, 802993, Control_c, 0, 64, 127
1, 803002, Note_off_c, 0, 53, 56
1, 803004, Note_on_c, 0, 44, 64
1, 803055, Note_off_c, 0, 56, 62
1, 803074, Note_off_c, 0, 61, 61
1, 803108, Note_off_c, 0, 65, 57
1, 803179, Note_on_c, 0, 37, 71
1, 803207, Note_off_c, 0, 44, 58
1, 803389, Note_on_c, 0, 44, 63
1, 803390, Note_on_c, 0, 68, 88
1, 803401, Note_on_c, 0, 65, 70
1, 803409, Note_on_c, 0, 60, 74
1, 803462, Note_off_c, 0, 37, 51
1, 803595, Note_on_c, 0, 37, 72
1, 803621, Note_off_c, 0, 44, 59
1, 803645, Note_off_c, 0, 60, 60
1, 803671, Note_off_c, 0, 65, 55
1, 803717, Note_off_c, 0, 68, 59
1, 803791, Note_on_c, 0, 73, 92
1, 803800, Note_on_c, 0, 65, 70
1, 803806, Note_on_c, 0, 44, 69
1, 803821, Poly_aftertouch_c, 0, 66, 0
1, 803824, Note_off_c, 0, 37, 55
1, 803895, Note_off_c, 0, 73, 66
1, 803909, Note_off_c, 0, 65, 57
1, 803942, Note_on_c, 0, 59, 89
1, 804051, Note_off_c, 0, 59, 60
1, 804080, Note_on_c, 0, 53, 75
1, 804115, Note_off_c, 0, 44, 24
1, 804175, Note_on_c, 0, 73, 86
1, 804185, Note_on_c, 0, 65, 70
1, 804238, Control_c, 0, 64, 102
1, 804253, Control_c, 0, 64, 87
1, 804268, Control_c, 0, 64, 78
1, 804283, Control_c, 0, 64, 72
1, 804298, Control_c, 0, 64, 69
1, 804312, Control_c, 0, 64, 67
1, 804327, Control_c, 0, 64, 66
1, 804343, Control_c, 0, 64, 65
1, 804372, Control_c, 0, 64, 66
1, 804387, Control_c, 0, 64, 67
1, 804402, Control_c, 0, 64, 70
1, 804417, Control_c, 0, 64, 75
1, 804432, Control_c, 0, 64, 83
1, 804447, Control_c, 0, 64, 99
1, 804462, Control_c, 0, 64, 127
1, 804495, Note_on_c, 0, 44, 70
1, 804498, Note_off_c, 0, 53, 60
1, 804690, Note_on_c, 0, 37, 76
1, 804723, Note_off_c, 0, 44, 58
1, 804874, Note_on_c, 0, 45, 80
1, 804918, Note_off_c, 0, 37, 55
1, 805066, Note_on_c, 0, 37, 79
1, 805123, Note_off_c, 0, 45, 61
1, 805285, Note_on_c, 0, 45, 82
1, 805319, Note_off_c, 0, 37, 59
1, 805366, Note_off_c, 0, 65, 36
1, 805587, Note_on_c, 0, 54, 81
1, 805635, Note_off_c, 0, 73, 37
1, 805669, Note_off_c, 0, 45, 59
1, 805692, Control_c, 0, 64, 110
1, 805707, Control_c, 0, 64, 89
1, 805721, Control_c, 0, 64, 73
1, 805736, Control_c, 0, 64, 61
1, 805750, Control_c, 0, 64, 40
1, 805765, Control_c, 0, 64, 30
1, 805780, Control_c, 0, 64, 34
1, 805795, Control_c, 0, 64, 45
1, 805810, Note_on_c, 0, 46, 72
1, 805810, Control_c, 0, 64, 56
1, 805825, Control_c, 0, 64, 63
1, 805839, Control_c, 0, 64, 70
1, 805854, Control_c, 0, 64, 85
1, 805866, Note_off_c, 0, 54, 63
1, 805869, Control_c, 0, 64, 127
1, 805896, Note_on_c, 0, 66, 88
1, 805902, Note_on_c, 0, 61, 80
1, 806024, Note_on_c, 0, 37, 65
1, 806027, Note_off_c, 0, 46, 57
1, 806228, Note_on_c, 0, 46, 64
1, 806257, Note_on_c, 0, 75, 90
1, 806259, Note_on_c, 0, 71, 71
1, 806308, Note_off_c, 0, 37, 34
1, 806444, Note_off_c, 0, 71, 62
1, 806450, Note_off_c, 0, 75, 61
1, 806464, Note_on_c, 0, 37, 62
1, 806499, Note_off_c, 0, 46, 59
1, 806553, Note_on_c, 0, 73, 97
1, 806571, Note_on_c, 0, 70, 75
1, 806635, Note_off_c, 0, 37, 58
1, 806656, Note_on_c, 0, 46, 66
1, 806749, Note_off_c, 0, 73, 62
1, 806754, Note_off_c, 0, 70, 62
1, 806838, Note_on_c, 0, 73, 97
1, 806850, Note_on_c, 0, 54, 66
1, 806857, Note_on_c, 0, 70, 77
1, 806885, Control_c, 0, 64, 92
1, 806900, Control_c, 0, 64, 77
1, 806912, Note_off_c, 0, 46, 57
1, 806915, Control_c, 0, 64, 67
1, 806930, Control_c, 0, 64, 58
1, 806945, Control_c, 0, 64, 48
1, 806960, Control_c, 0, 64, 46
1, 806975, Control_c, 0, 64, 47
1, 806990, Control_c, 0, 64, 51
1, 807004, Control_c, 0, 64, 55
1, 807019, Control_c, 0, 64, 60
1, 807041, Control_c, 0, 64, 65
1, 807056, Control_c, 0, 64, 72
1, 807063, Note_on_c, 0, 46, 71
1, 807071, Control_c, 0, 64, 88
1, 807085, Control_c, 0, 64, 127
1, 807100, Note_off_c, 0, 54, 65
1, 807237, Note_on_c, 0, 37, 73
1, 807262, Note_off_c, 0, 73, 59
1, 807275, Note_off_c, 0, 70, 56
1, 807297, Note_off_c, 0, 46, 54
1, 807428, Note_on_c, 0, 71, 86
1, 807429, Note_on_c, 0, 46, 60
1, 807458, Note_on_c, 0, 68, 65
1, 807486, Note_off_c, 0, 37, 37
1, 807494, Note_off_c, 0, 66, 50
1, 807651, Note_on_c, 0, 37, 62
1, 807673, Note_off_c, 0, 46, 58
1, 807674, Note_off_c, 0, 68, 61
1, 807928, Note_on_c, 0, 46, 46
1, 807929, Note_on_c, 0, 70, 76
1, 807956, Note_on_c, 0, 66, 60
1, 807988, Note_off_c, 0, 71, 59
1, 808027, Note_off_c, 0, 61, 55
1, 808089, Note_off_c, 0, 70, 60
1, 808129, Note_off_c, 0, 66, 59
1, 808147, Note_off_c, 0, 37, 31
1, 808179, Note_on_c, 0, 50, 44
1, 808234, Control_c, 0, 64, 125
1, 808238, Note_on_c, 0, 70, 52
1, 808246, Note_off_c, 0, 46, 55
1, 808249, Control_c, 0, 64, 98
1, 808264, Control_c, 0, 64, 89
1, 808267, Note_on_c, 0, 58, 50
1, 808268, Note_on_c, 0, 66, 50
1, 808279, Control_c, 0, 64, 83
1, 808294, Control_c, 0, 64, 80
1, 808308, Control_c, 0, 64, 78
1, 808324, Control_c, 0, 64, 73
1, 808339, Control_c, 0, 64, 68
1, 808354, Control_c, 0, 64, 63
1, 808369, Control_c, 0, 64, 58
1, 808383, Control_c, 0, 64, 55
1, 808442, Control_c, 0, 64, 56
1, 808457, Control_c, 0, 64, 57
1, 808472, Control_c, 0, 64, 58
1, 808478, Note_off_c, 0, 70, 59
1, 808479, Note_off_c, 0, 66, 59
1, 808481, Note_on_c, 0, 46, 44
1, 808482, Note_on_c, 0, 68, 58
1, 808487, Control_c, 0, 64, 60
1, 808500, Note_on_c, 0, 65, 50
1, 808502, Control_c, 0, 64, 61
1, 808524, Control_c, 0, 64, 62
1, 808539, Control_c, 0, 64, 64
1, 808554, Control_c, 0, 64, 67
1, 808569, Control_c, 0, 64, 71
1, 808583, Control_c, 0, 64, 74
1, 808598, Control_c, 0, 64, 76
1, 808613, Control_c, 0, 64, 77
1, 808657, Control_c, 0, 64, 76
1, 808675, Note_on_c, 0, 70, 55
1, 808685, Note_on_c, 0, 37, 38
1, 808687, Control_c, 0, 64, 76
1, 808691, Note_on_c, 0, 66, 47
1, 808691, Note_off_c, 0, 65, 53
1, 808694, Note_off_c, 0, 68, 37
1, 808700, Note_off_c, 0, 46, 36
1, 808718, Control_c, 0, 64, 75
1, 808732, Control_c, 0, 64, 74
1, 808747, Control_c, 0, 64, 74
1, 808762, Control_c, 0, 64, 73
1, 808776, Control_c, 0, 64, 72
1, 808791, Control_c, 0, 64, 71
1, 808806, Control_c, 0, 64, 69
1, 808821, Control_c, 0, 64, 68
1, 808836, Control_c, 0, 64, 66
1, 808850, Control_c, 0, 64, 65
1, 808859, Note_on_c, 0, 46, 44
1, 808865, Control_c, 0, 64, 64
1, 808890, Note_off_c, 0, 37, 40
1, 808895, Control_c, 0, 64, 65
1, 808909, Control_c, 0, 64, 65
1, 808924, Control_c, 0, 64, 66
1, 808939, Control_c, 0, 64, 67
1, 808954, Control_c, 0, 64, 69
1, 808969, Control_c, 0, 64, 70
1, 808984, Control_c, 0, 64, 72
1, 808999, Control_c, 0, 64, 75
1, 809014, Control_c, 0, 64, 80
1, 809029, Control_c, 0, 64, 87
1, 809035, Note_on_c, 0, 37, 50
1, 809042, Note_off_c, 0, 58, 30
1, 809044, Control_c, 0, 64, 96
1, 809047, Note_off_c, 0, 46, 54
1, 809058, Control_c, 0, 64, 106
1, 809073, Control_c, 0, 64, 127
1, 809216, Note_off_c, 0, 66, 31
1, 809217, Note_on_c, 0, 46, 63
1, 809237, Note_off_c, 0, 50, 39
1, 809425, Note_on_c, 0, 49, 63
1, 809481, Control_c, 0, 64, 119
1, 809482, Note_off_c, 0, 37, 34
1, 809488, Note_off_c, 0, 46, 55
1, 809496, Control_c, 0, 64, 104
1, 809511, Control_c, 0, 64, 96
1, 809525, Control_c, 0, 64, 91
1, 809540, Control_c, 0, 64, 85
1, 809555, Control_c, 0, 64, 77
1, 809570, Control_c, 0, 64, 68
1, 809585, Control_c, 0, 64, 59
1, 809599, Control_c, 0, 64, 44
1, 809613, Note_on_c, 0, 46, 63
1, 809614, Control_c, 0, 64, 43
1, 809629, Control_c, 0, 64, 45
1, 809644, Control_c, 0, 64, 50
1, 809659, Control_c, 0, 64, 54
1, 809673, Control_c, 0, 64, 58
1, 809688, Control_c, 0, 64, 62
1, 809703, Control_c, 0, 64, 66
1, 809705, Note_on_c, 0, 66, 81
1, 809717, Note_on_c, 0, 61, 71
1, 809718, Control_c, 0, 64, 72
1, 809732, Control_c, 0, 64, 83
1, 809746, Note_off_c, 0, 70, 40
1, 809747, Control_c, 0, 64, 105
1, 809762, Control_c, 0, 64, 127
1, 809811, Note_on_c, 0, 37, 63
1, 809832, Note_off_c, 0, 46, 58
1, 809853, Note_off_c, 0, 61, 57
1, 809881, Note_off_c, 0, 66, 60
1, 810042, Note_on_c, 0, 46, 55
1, 810084, Note_on_c, 0, 73, 83
1, 810099, Note_on_c, 0, 70, 71
1, 810191, Note_off_c, 0, 37, 31
1, 810331, Note_on_c, 0, 37, 58
1, 810332, Note_on_c, 0, 75, 91
1, 810345, Note_on_c, 0, 71, 80
1, 810366, Note_off_c, 0, 70, 62
1, 810374, Note_off_c, 0, 73, 60
1, 810391, Note_off_c, 0, 46, 48
1, 810413, Note_off_c, 0, 49, 59
1, 810417, Note_off_c, 0, 71, 62
1, 810448, Note_off_c, 0, 37, 58
1, 810504, Note_on_c, 0, 73, 88
1, 810511, Note_on_c, 0, 46, 70
1, 810519, Note_on_c, 0, 70, 85
1, 810543, Note_off_c, 0, 75, 62
1, 810591, Note_off_c, 0, 70, 63
1, 810603, Note_off_c, 0, 73, 63
1, 810688, Note_on_c, 0, 54, 63
1, 810717, Note_on_c, 0, 73, 75
1, 810729, Note_on_c, 0, 70, 65
1, 810748, Note_off_c, 0, 46, 53
1, 810784, Note_off_c, 0, 70, 61
1, 810923, Note_on_c, 0, 71, 89
1, 810933, Note_on_c, 0, 68, 85
1, 810936, Note_on_c, 0, 46, 67
1, 810942, Note_off_c, 0, 54, 63
1, 810954, Note_off_c, 0, 73, 65
1, 811077, Note_on_c, 0, 73, 93
1, 811082, Note_off_c, 0, 71, 60
1, 811088, Note_on_c, 0, 70, 80
1, 811093, Note_on_c, 0, 37, 68
1, 811106, Note_off_c, 0, 46, 59
1, 811115, Note_off_c, 0, 68, 61
1, 811163, Note_off_c, 0, 70, 62
1, 811246, Note_on_c, 0, 46, 59
1, 811277, Note_on_c, 0, 71, 87
1, 811293, Note_on_c, 0, 68, 76
1, 811328, Note_off_c, 0, 73, 62
1, 811331, Note_off_c, 0, 37, 35
1, 811363, Control_c, 0, 64, 115
1, 811378, Control_c, 0, 64, 99
1, 811393, Control_c, 0, 64, 87
1, 811407, Control_c, 0, 64, 75
1, 811422, Control_c, 0, 64, 66
1, 811437, Control_c, 0, 64, 58
1, 811452, Control_c, 0, 64, 54
1, 811467, Control_c, 0, 64, 54
1, 811482, Control_c, 0, 64, 56
1, 811488, Note_on_c, 0, 37, 54
1, 811496, Control_c, 0, 64, 59
1, 811511, Control_c, 0, 64, 62
1, 811535, Control_c, 0, 64, 65
1, 811549, Control_c, 0, 64, 71
1, 811555, Note_off_c, 0, 46, 52
1, 811564, Control_c, 0, 64, 84
1, 811579, Control_c, 0, 64, 127
1, 811602, Note_off_c, 0, 68, 61
1, 811733, Note_on_c, 0, 70, 80
1, 811739, Note_on_c, 0, 46, 43
1, 811749, Note_on_c, 0, 66, 68
1, 811777, Note_off_c, 0, 71, 56
1, 811892, Note_off_c, 0, 70, 60
1, 811908, Note_off_c, 0, 66, 58
1, 811953, Note_off_c, 0, 37, 37
1, 812016, Note_on_c, 0, 50, 44
1, 812054, Note_on_c, 0, 70, 58
1, 812066, Note_on_c, 0, 58, 51
1, 812069, Note_on_c, 0, 66, 47
1, 812082, Control_c, 0, 64, 112
1, 812087, Note_off_c, 0, 46, 37
1, 812097, Control_c, 0, 64, 95
1, 812112, Control_c, 0, 64, 85
1, 812126, Control_c, 0, 64, 79
1, 812141, Control_c, 0, 64, 75
1, 812156, Control_c, 0, 64, 73
1, 812171, Control_c, 0, 64, 69
1, 812186, Control_c, 0, 64, 65
1, 812200, Control_c, 0, 64, 60
1, 812215, Control_c, 0, 64, 56
1, 812230, Control_c, 0, 64, 55
1, 812282, Control_c, 0, 64, 56
1, 812287, Note_on_c, 0, 68, 63
1, 812289, Note_off_c, 0, 66, 56
1, 812296, Note_off_c, 0, 70, 58
1, 812297, Control_c, 0, 64, 57
1, 812302, Note_on_c, 0, 65, 53
1, 812307, Note_on_c, 0, 46, 41
1, 812312, Control_c, 0, 64, 59
1, 812328, Control_c, 0, 64, 61
1, 812343, Control_c, 0, 64, 62
1, 812358, Control_c, 0, 64, 64
1, 812372, Control_c, 0, 64, 66
1, 812387, Control_c, 0, 64, 71
1, 812402, Control_c, 0, 64, 75
1, 812417, Control_c, 0, 64, 80
1, 812431, Control_c, 0, 64, 83
1, 812446, Control_c, 0, 64, 85
1, 812459, Note_off_c, 0, 68, 52
1, 812462, Note_on_c, 0, 70, 53
1, 812463, Note_on_c, 0, 66, 48
1, 812464, Note_off_c, 0, 65, 56
1, 812482, Note_on_c, 0, 37, 39
1, 812490, Control_c, 0, 64, 84
1, 812493, Note_off_c, 0, 46, 36
1, 812519, Control_c, 0, 64, 84
1, 812534, Control_c, 0, 64, 83
1, 812549, Control_c, 0, 64, 83
1, 812564, Control_c, 0, 64, 82
1, 812579, Control_c, 0, 64, 82
1, 812594, Control_c, 0, 64, 80
1, 812609, Control_c, 0, 64, 79
1, 812623, Control_c, 0, 64, 76
1, 812638, Control_c, 0, 64, 74
1, 812653, Control_c, 0, 64, 73
1, 812654, Note_on_c, 0, 46, 48
1, 812668, Control_c, 0, 64, 72
1, 812683, Control_c, 0, 64, 71
1, 812690, Note_off_c, 0, 37, 40
1, 812697, Control_c, 0, 64, 69
1, 812712, Control_c, 0, 64, 68
1, 812727, Control_c, 0, 64, 65
1, 812741, Control_c, 0, 64, 63
1, 812756, Control_c, 0, 64, 62
1, 812771, Control_c, 0, 64, 63
1, 812786, Control_c, 0, 64, 64
1, 812801, Control_c, 0, 64, 65
1, 812815, Control_c, 0, 64, 67
1, 812830, Control_c, 0, 64, 69
1, 812841, Note_on_c, 0, 37, 44
1, 812845, Control_c, 0, 64, 74
1, 812860, Note_off_c, 0, 46, 52
1, 812860, Control_c, 0, 64, 80
1, 812875, Control_c, 0, 64, 89
1, 812889, Control_c, 0, 64, 100
1, 812904, Control_c, 0, 64, 115
1, 812919, Control_c, 0, 64, 127
1, 813011, Note_off_c, 0, 58, 30
1, 813030, Note_on_c, 0, 46, 54
1, 813064, Note_off_c, 0, 50, 39
1, 813139, Note_off_c, 0, 66, 33
1, 813220, Note_off_c, 0, 37, 29
1, 813244, Note_on_c, 0, 49, 60
1, 813244, Note_off_c, 0, 70, 35
1, 813268, Control_c, 0, 64, 112
1, 813283, Control_c, 0, 64, 105
1, 813298, Control_c, 0, 64, 101
1, 813304, Note_off_c, 0, 46, 51
1, 813313, Control_c, 0, 64, 99
1, 813327, Control_c, 0, 64, 96
1, 813342, Control_c, 0, 64, 92
1, 813357, Control_c, 0, 64, 87
1, 813372, Control_c, 0, 64, 82
1, 813387, Control_c, 0, 64, 76
1, 813402, Control_c, 0, 64, 70
1, 813417, Control_c, 0, 64, 64
1, 813431, Control_c, 0, 64, 56
1, 813446, Control_c, 0, 64, 52
1, 813461, Control_c, 0, 64, 53
1, 813476, Control_c, 0, 64, 56
1, 813491, Control_c, 0, 64, 58
1, 813497, Note_on_c, 0, 46, 49
1, 813506, Control_c, 0, 64, 61
1, 813520, Control_c, 0, 64, 64
1, 813535, Control_c, 0, 64, 68
1, 813550, Control_c, 0, 64, 75
1, 813564, Control_c, 0, 64, 86
1, 813579, Control_c, 0, 64, 106
1, 813594, Control_c, 0, 64, 127
1, 813628, Note_on_c, 0, 66, 66
1, 813657, Note_on_c, 0, 58, 49
1, 813730, Note_on_c, 0, 37, 50
1, 813733, Note_off_c, 0, 46, 50
1, 813797, Note_off_c, 0, 58, 37
1, 813893, Note_on_c, 0, 70, 87
1, 813905, Note_on_c, 0, 46, 56
1, 813937, Note_off_c, 0, 37, 36
1, 813944, Note_off_c, 0, 66, 56
1, 814091, Note_off_c, 0, 70, 57
1, 814100, Note_on_c, 0, 37, 70
1, 814124, Note_off_c, 0, 46, 56
1, 814187, Note_on_c, 0, 73, 95
1, 814272, Note_on_c, 0, 46, 85
1, 814278, Note_off_c, 0, 49, 64
1, 814285, Note_off_c, 0, 37, 60
1, 814328, Note_off_c, 0, 73, 56
1, 814491, Note_on_c, 0, 73, 85
1, 814500, Note_on_c, 0, 53, 84
1, 814517, Note_on_c, 0, 58, 64
1, 814522, Note_on_c, 0, 65, 61
1, 814543, Control_c, 0, 64, 98
1, 814546, Note_off_c, 0, 46, 60
1, 814558, Control_c, 0, 64, 71
1, 814572, Note_on_c, 0, 59, 11
1, 814573, Control_c, 0, 64, 51
1, 814588, Control_c, 0, 64, 0
1, 814621, Note_off_c, 0, 59, 34
1, 814647, Control_c, 0, 64, 28
1, 814662, Control_c, 0, 64, 45
1, 814676, Control_c, 0, 64, 58
1, 814691, Control_c, 0, 64, 66
1, 814706, Control_c, 0, 64, 80
1, 814722, Control_c, 0, 64, 127
1, 814753, Note_on_c, 0, 46, 80
1, 814771, Note_off_c, 0, 53, 60
1, 814776, Note_off_c, 0, 58, 63
1, 814867, Note_off_c, 0, 65, 58
1, 814947, Note_off_c, 0, 73, 62
1, 814948, Note_on_c, 0, 37, 81
1, 814975, Note_off_c, 0, 46, 58
1, 815134, Note_on_c, 0, 46, 84
1, 815142, Note_on_c, 0, 77, 97
1, 815166, Note_off_c, 0, 37, 60
1, 815367, Note_on_c, 0, 37, 85
1, 815399, Note_off_c, 0, 46, 61
1, 815610, Note_on_c, 0, 46, 87
1, 815643, Note_off_c, 0, 37, 58
1, 815663, Note_on_c, 0, 82, 105
1, 815704, Note_off_c, 0, 77, 46
1, 815763, Note_off_c, 0, 82, 62
1, 815879, Note_on_c, 0, 52, 91
1, 815916, Note_off_c, 0, 46, 61
1, 815944, Control_c, 0, 64, 105
1, 815959, Control_c, 0, 64, 69
1, 815974, Control_c, 0, 64, 32
1, 815989, Control_c, 0, 64, 0
1, 816016, Note_on_c, 0, 54, 85
1, 816040, Control_c, 0, 64, 28
1, 816055, Control_c, 0, 64, 57
1, 816070, Control_c, 0, 64, 70
1, 816085, Control_c, 0, 64, 101
1, 816100, Control_c, 0, 64, 127
1, 816114, Note_on_c, 0, 58, 85
1, 816125, Note_off_c, 0, 54, 64
1, 816189, Note_on_c, 0, 64, 77
1, 816203, Note_off_c, 0, 58, 66
1, 816234, Note_off_c, 0, 64, 65
1, 816296, Note_on_c, 0, 70, 97
1, 816436, Note_on_c, 0, 46, 76
1, 816467, Note_off_c, 0, 52, 55
1, 816515, Note_on_c, 0, 82, 101
1, 816707, Note_on_c, 0, 37, 66
1, 816745, Note_off_c, 0, 46, 56
1, 816915, Note_on_c, 0, 46, 68
1, 816962, Note_off_c, 0, 37, 49
1, 817097, Note_on_c, 0, 37, 65
1, 817147, Note_off_c, 0, 46, 54
1, 817294, Note_on_c, 0, 46, 67
1, 817317, Note_off_c, 0, 37, 57
1, 817494, Note_on_c, 0, 52, 68
1, 817524, Control_c, 0, 64, 106
1, 817539, Control_c, 0, 64, 102
1, 817554, Control_c, 0, 64, 105
1, 817568, Control_c, 0, 64, 112
1, 817581, Note_off_c, 0, 46, 50
1, 817583, Control_c, 0, 64, 125
1, 817598, Control_c, 0, 64, 127
1, 817627, Control_c, 0, 64, 115
1, 817642, Control_c, 0, 64, 104
1, 817657, Control_c, 0, 64, 92
1, 817672, Control_c, 0, 64, 82
1, 817686, Control_c, 0, 64, 81
1, 817701, Control_c, 0, 64, 85
1, 817716, Control_c, 0, 64, 90
1, 817718, Note_on_c, 0, 46, 59
1, 817731, Control_c, 0, 64, 94
1, 817734, Note_off_c, 0, 52, 55
1, 817746, Control_c, 0, 64, 95
1, 817760, Control_c, 0, 64, 94
1, 817775, Control_c, 0, 64, 91
1, 817790, Control_c, 0, 64, 85
1, 817805, Control_c, 0, 64, 77
1, 817819, Control_c, 0, 64, 70
1, 817834, Control_c, 0, 64, 67
1, 817849, Control_c, 0, 64, 69
1, 817864, Control_c, 0, 64, 73
1, 817879, Control_c, 0, 64, 77
1, 817894, Control_c, 0, 64, 81
1, 817899, Note_on_c, 0, 37, 60
1, 817909, Control_c, 0, 64, 82
1, 817924, Control_c, 0, 64, 81
1, 817928, Note_off_c, 0, 46, 51
1, 817939, Control_c, 0, 64, 78
1, 817954, Control_c, 0, 64, 74
1, 817969, Control_c, 0, 64, 70
1, 817998, Control_c, 0, 64, 72
1, 818013, Control_c, 0, 64, 75
1, 818028, Control_c, 0, 64, 77
1, 818043, Control_c, 0, 64, 78
1, 818058, Control_c, 0, 64, 77
1, 818073, Control_c, 0, 64, 75
1, 818088, Control_c, 0, 64, 73
1, 818103, Control_c, 0, 64, 71
1, 818105, Note_on_c, 0, 46, 44
1, 818117, Control_c, 0, 64, 69
1, 818132, Control_c, 0, 64, 68
1, 818137, Note_off_c, 0, 37, 55
1, 818147, Control_c, 0, 64, 70
1, 818162, Control_c, 0, 64, 72
1, 818177, Control_c, 0, 64, 74
1, 818191, Control_c, 0, 64, 76
1, 818206, Control_c, 0, 64, 76
1, 818221, Control_c, 0, 64, 75
1, 818235, Control_c, 0, 64, 74
1, 818250, Control_c, 0, 64, 70
1, 818272, Control_c, 0, 64, 68
1, 818287, Control_c, 0, 64, 66
1, 818302, Control_c, 0, 64, 67
1, 818317, Control_c, 0, 64, 69
1, 818332, Control_c, 0, 64, 72
1, 818344, Note_on_c, 0, 37, 50
1, 818347, Control_c, 0, 64, 75
1, 818362, Control_c, 0, 64, 77
1, 818389, Note_off_c, 0, 46, 41
1, 818391, Control_c, 0, 64, 75
1, 818406, Control_c, 0, 64, 72
1, 818421, Control_c, 0, 64, 68
1, 818435, Control_c, 0, 64, 64
1, 818450, Control_c, 0, 64, 65
1, 818465, Control_c, 0, 64, 67
1, 818480, Control_c, 0, 64, 69
1, 818495, Control_c, 0, 64, 72
1, 818509, Control_c, 0, 64, 76
1, 818524, Control_c, 0, 64, 82
1, 818539, Control_c, 0, 64, 86
1, 818554, Control_c, 0, 64, 87
1, 818607, Note_on_c, 0, 46, 51
1, 818637, Note_off_c, 0, 37, 36
1, 818770, Note_off_c, 0, 70, 28
1, 818806, Control_c, 0, 64, 86
1, 818839, Note_off_c, 0, 82, 27
1, 818851, Control_c, 0, 64, 86
1, 818940, Control_c, 0, 64, 85
1, 818955, Control_c, 0, 64, 85
1, 818970, Control_c, 0, 64, 84
1, 818985, Control_c, 0, 64, 84
1, 819000, Control_c, 0, 64, 83
1, 819012, Note_on_c, 0, 54, 54
1, 819021, Control_c, 0, 64, 82
1, 819036, Control_c, 0, 64, 82
1, 819051, Control_c, 0, 64, 81
1, 819065, Control_c, 0, 64, 80
1, 819080, Control_c, 0, 64, 78
1, 819095, Control_c, 0, 64, 77
1, 819110, Control_c, 0, 64, 76
1, 819125, Control_c, 0, 64, 74
1, 819126, Note_off_c, 0, 46, 37
1, 819140, Control_c, 0, 64, 73
1, 819155, Control_c, 0, 64, 71
1, 819170, Control_c, 0, 64, 70
1, 819184, Control_c, 0, 64, 68
1, 819199, Control_c, 0, 64, 67
1, 819214, Control_c, 0, 64, 66
1, 819229, Control_c, 0, 64, 66
1, 819244, Control_c, 0, 64, 65
1, 819258, Control_c, 0, 64, 64
1, 819273, Control_c, 0, 64, 63
1, 819288, Control_c, 0, 64, 63
1, 819303, Control_c, 0, 64, 61
1, 819318, Control_c, 0, 64, 60
1, 819332, Control_c, 0, 64, 57
1, 819347, Control_c, 0, 64, 53
1, 819362, Control_c, 0, 64, 51
1, 819377, Control_c, 0, 64, 52
1, 819391, Control_c, 0, 64, 54
1, 819406, Control_c, 0, 64, 56
1, 819421, Control_c, 0, 64, 59
1, 819426, Note_on_c, 0, 45, 40
1, 819436, Control_c, 0, 64, 62
1, 819451, Control_c, 0, 64, 64
1, 819465, Control_c, 0, 64, 68
1, 819480, Control_c, 0, 64, 73
1, 819493, Note_off_c, 0, 54, 64
1, 819495, Control_c, 0, 64, 80
1, 819511, Control_c, 0, 64, 89
1, 819526, Control_c, 0, 64, 100
1, 819541, Control_c, 0, 64, 125
1, 819555, Control_c, 0, 64, 127
1, 819673, Note_on_c, 0, 69, 53
1, 819718, Note_off_c, 0, 45, 31
1, 819719, Note_on_c, 0, 37, 38
1, 820005, Note_on_c, 0, 45, 26
1, 820024, Note_off_c, 0, 37, 35
1, 820040, Note_on_c, 0, 81, 60
1, 820058, Note_on_c, 0, 78, 48
1, 820124, Note_off_c, 0, 78, 55
1, 820171, Note_off_c, 0, 81, 65
1, 820275, Note_off_c, 0, 45, 37
1, 820303, Note_on_c, 0, 83, 76
1, 820320, Note_on_c, 0, 37, 39
1, 820325, Note_on_c, 0, 80, 59
1, 820370, Note_off_c, 0, 80, 58
1, 820381, Note_off_c, 0, 83, 62
1, 820458, Note_off_c, 0, 37, 36
1, 820484, Note_on_c, 0, 81, 82
1, 820507, Note_on_c, 0, 78, 67
1, 820508, Note_on_c, 0, 45, 45
1, 820571, Note_off_c, 0, 78, 61
1, 820591, Note_off_c, 0, 81, 63
1, 820688, Note_on_c, 0, 81, 83
1, 820698, Note_on_c, 0, 54, 51
1, 820708, Note_on_c, 0, 78, 62
1, 820746, Note_off_c, 0, 45, 36
1, 820861, Note_off_c, 0, 78, 60
1, 820885, Note_off_c, 0, 81, 63
1, 820886, Note_on_c, 0, 45, 56
1, 820910, Note_off_c, 0, 54, 63
1, 821077, Note_on_c, 0, 74, 80
1, 821089, Note_on_c, 0, 37, 50
1, 821098, Note_off_c, 0, 45, 47
1, 821101, Note_on_c, 0, 71, 66
1, 821139, Note_off_c, 0, 69, 60
1, 821277, Note_on_c, 0, 45, 64
1, 821288, Note_off_c, 0, 37, 57
1, 821376, Note_off_c, 0, 71, 62
1, 821465, Note_on_c, 0, 37, 57
1, 821506, Note_off_c, 0, 45, 55
1, 821668, Note_on_c, 0, 73, 86
1, 821676, Note_off_c, 0, 37, 55
1, 821683, Note_on_c, 0, 45, 49
1, 821684, Note_on_c, 0, 69, 70
1, 821770, Note_off_c, 0, 74, 51
1, 821867, Note_off_c, 0, 69, 61
1, 821876, Note_off_c, 0, 73, 63
1, 821942, Note_on_c, 0, 54, 51
1, 821994, Note_on_c, 0, 72, 76
1, 822017, Control_c, 0, 64, 110
1, 822021, Note_off_c, 0, 45, 38
1, 822028, Note_on_c, 0, 69, 60
1, 822031, Control_c, 0, 64, 98
1, 822046, Control_c, 0, 64, 87
1, 822061, Control_c, 0, 64, 77
1, 822076, Control_c, 0, 64, 66
1, 822091, Control_c, 0, 64, 59
1, 822106, Control_c, 0, 64, 54
1, 822121, Control_c, 0, 64, 54
1, 822136, Control_c, 0, 64, 56
1, 822151, Control_c, 0, 64, 58
1, 822165, Control_c, 0, 64, 62
1, 822180, Control_c, 0, 64, 65
1, 822195, Control_c, 0, 64, 71
1, 822210, Control_c, 0, 64, 82
1, 822225, Control_c, 0, 64, 110
1, 822239, Control_c, 0, 64, 127
1, 822294, Note_on_c, 0, 68, 75
1, 822297, Note_off_c, 0, 54, 62
1, 822303, Note_on_c, 0, 65, 58
1, 822315, Note_on_c, 0, 44, 45
1, 822379, Note_off_c, 0, 65, 62
1, 822388, Note_off_c, 0, 68, 61
1, 822407, Note_off_c, 0, 69, 0
1, 822444, Poly_aftertouch_c, 0, 69, 127
1, 822476, Note_on_c, 0, 66, 80
1, 822499, Note_on_c, 0, 63, 66
1, 822507, Note_on_c, 0, 37, 46
1, 822515, Note_off_c, 0, 44, 40
1, 822520, Poly_aftertouch_c, 0, 69, 0
1, 822526, Note_off_c, 0, 72, 48
1, 822583, Note_off_c, 0, 63, 61
1, 822588, Note_off_c, 0, 66, 60
1, 822683, Control_c, 0, 64, 101
1, 822685, Note_on_c, 0, 66, 66
1, 822693, Note_on_c, 0, 44, 39
1, 822699, Control_c, 0, 64, 86
1, 822704, Note_on_c, 0, 63, 60
1, 822714, Control_c, 0, 64, 72
1, 822728, Note_off_c, 0, 37, 32
1, 822729, Control_c, 0, 64, 62
1, 822744, Control_c, 0, 64, 50
1, 822766, Control_c, 0, 64, 46
1, 822795, Control_c, 0, 64, 48
1, 822810, Control_c, 0, 64, 52
1, 822825, Control_c, 0, 64, 56
1, 822839, Control_c, 0, 64, 59
1, 822854, Control_c, 0, 64, 63
1, 822869, Control_c, 0, 64, 67
1, 822882, Note_on_c, 0, 37, 42
1, 822884, Control_c, 0, 64, 73
1, 822887, Note_off_c, 0, 44, 55
1, 822899, Control_c, 0, 64, 84
1, 822914, Control_c, 0, 64, 103
1, 822929, Control_c, 0, 64, 127
1, 823025, Note_off_c, 0, 37, 36
1, 823072, Note_on_c, 0, 44, 46
1, 823115, Note_off_c, 0, 63, 33
1, 823242, Note_off_c, 0, 44, 30
1, 823268, Note_on_c, 0, 54, 49
1, 823415, Note_off_c, 0, 54, 49
1, 823512, Note_on_c, 0, 44, 36
1, 823653, Note_off_c, 0, 44, 60
1, 823701, Note_on_c, 0, 37, 40
1, 823913, Note_on_c, 0, 68, 61
1, 823919, Note_on_c, 0, 65, 45
1, 823923, Note_on_c, 0, 44, 34
1, 823942, Note_off_c, 0, 37, 38
1, 824028, Note_off_c, 0, 66, 54
1, 824122, Note_on_c, 0, 37, 35
1, 824143, Note_off_c, 0, 44, 37
1, 824306, Note_off_c, 0, 37, 40
1, 824324, Note_on_c, 0, 69, 74
1, 824339, Note_on_c, 0, 44, 38
1, 824344, Note_on_c, 0, 66, 60
1, 824392, Note_off_c, 0, 65, 50
1, 824434, Note_off_c, 0, 68, 61
1, 824461, Note_off_c, 0, 66, 58
1, 824462, Note_off_c, 0, 69, 62
1, 824577, Note_on_c, 0, 54, 43
1, 824596, Note_off_c, 0, 44, 30
1, 824623, Note_on_c, 0, 69, 58
1, 824633, Control_c, 0, 64, 100
1, 824644, Note_on_c, 0, 66, 52
1, 824648, Control_c, 0, 64, 83
1, 824663, Control_c, 0, 64, 69
1, 824677, Control_c, 0, 64, 56
1, 824692, Control_c, 0, 64, 41
1, 824707, Control_c, 0, 64, 41
1, 824722, Control_c, 0, 64, 43
1, 824737, Control_c, 0, 64, 48
1, 824751, Control_c, 0, 64, 54
1, 824766, Control_c, 0, 64, 61
1, 824781, Control_c, 0, 64, 66
1, 824796, Control_c, 0, 64, 72
1, 824811, Control_c, 0, 64, 85
1, 824825, Control_c, 0, 64, 106
1, 824837, Note_off_c, 0, 54, 62
1, 824840, Control_c, 0, 64, 127
1, 824851, Note_on_c, 0, 45, 41
1, 824929, Note_on_c, 0, 61, 74
1, 824944, Note_on_c, 0, 57, 55
1, 824970, Note_off_c, 0, 69, 36
1, 825027, Note_off_c, 0, 66, 55
1, 825068, Note_off_c, 0, 45, 35
1, 825079, Note_on_c, 0, 37, 44
1, 825117, Note_off_c, 0, 57, 58
1, 825304, Note_on_c, 0, 45, 33
1, 825328, Note_on_c, 0, 71, 65
1, 825342, Note_off_c, 0, 37, 31
1, 825358, Note_on_c, 0, 68, 50
1, 825536, Note_off_c, 0, 61, 49
1, 825660, Note_off_c, 0, 71, 37
1, 825689, Note_off_c, 0, 68, 28
1, 825689, Note_on_c, 0, 37, 35
1, 825711, Note_off_c, 0, 45, 38
1, 825875, Note_off_c, 0, 37, 42
1, 825927, Note_on_c, 0, 69, 60
1, 825948, Note_on_c, 0, 45, 33
1, 825952, Note_on_c, 0, 66, 45
1, 826059, Note_off_c, 0, 66, 56
1, 826078, Note_off_c, 0, 69, 60
1, 826201, Note_on_c, 0, 54, 35
1, 826214, Note_on_c, 0, 69, 53
1, 826228, Note_on_c, 0, 66, 40
1, 826279, Note_off_c, 0, 45, 30
1, 826393, Note_off_c, 0, 66, 41
1, 826473, Note_off_c, 0, 54, 40
1, 826479, Note_on_c, 0, 45, 38
1, 826655, Note_off_c, 0, 45, 34
1, 826666, Note_on_c, 0, 66, 63
1, 826681, Note_on_c, 0, 62, 55
1, 826685, Note_on_c, 0, 37, 39
1, 826771, Note_off_c, 0, 69, 34
1, 826870, Note_on_c, 0, 45, 53
1, 826902, Note_off_c, 0, 37, 44
1, 826904, Note_off_c, 0, 66, 58
1, 826911, Note_off_c, 0, 62, 59
1, 827077, Note_on_c, 0, 62, 69
1, 827085, Note_on_c, 0, 37, 42
1, 827095, Note_on_c, 0, 59, 56
1, 827096, Note_off_c, 0, 45, 51
1, 827144, Note_off_c, 0, 59, 58
1, 827279, Note_on_c, 0, 61, 82
1, 827291, Note_on_c, 0, 57, 70
1, 827303, Note_off_c, 0, 37, 36
1, 827311, Note_on_c, 0, 45, 47
1, 827332, Note_off_c, 0, 62, 55
1, 827449, Note_off_c, 0, 57, 63
1, 827449, Note_off_c, 0, 61, 58
1, 827549, Note_on_c, 0, 51, 43
1, 827569, Control_c, 0, 64, 110
1, 827584, Control_c, 0, 64, 105
1, 827599, Control_c, 0, 64, 101
1, 827603, Note_on_c, 0, 60, 67
1, 827614, Control_c, 0, 64, 96
1, 827629, Control_c, 0, 64, 88
1, 827637, Note_on_c, 0, 57, 49
1, 827643, Control_c, 0, 64, 79
1, 827658, Control_c, 0, 64, 70
1, 827669, Note_off_c, 0, 45, 40
1, 827673, Control_c, 0, 64, 65
1, 827688, Control_c, 0, 64, 61
1, 827702, Control_c, 0, 64, 57
1, 827717, Control_c, 0, 64, 52
1, 827732, Control_c, 0, 64, 49
1, 827747, Control_c, 0, 64, 48
1, 827762, Control_c, 0, 64, 49
1, 827776, Control_c, 0, 64, 53
1, 827791, Control_c, 0, 64, 57
1, 827806, Control_c, 0, 64, 61
1, 827821, Control_c, 0, 64, 65
1, 827836, Control_c, 0, 64, 71
1, 827850, Control_c, 0, 64, 80
1, 827865, Control_c, 0, 64, 91
1, 827880, Control_c, 0, 64, 105
1, 827895, Control_c, 0, 64, 127
1, 827913, Note_on_c, 0, 56, 70
1, 827921, Note_off_c, 0, 51, 51
1, 827925, Note_on_c, 0, 53, 52
1, 827927, Note_on_c, 0, 44, 43
1, 827987, Note_off_c, 0, 53, 62
1, 827990, Note_off_c, 0, 57, 0
1, 828014, Note_off_c, 0, 56, 63
1, 828035, Poly_aftertouch_c, 0, 57, 127
1, 828109, Note_on_c, 0, 54, 76
1, 828115, Note_off_c, 0, 60, 59
1, 828136, Poly_aftertouch_c, 0, 57, 0
1, 828137, Note_on_c, 0, 51, 59
1, 828140, Note_off_c, 0, 44, 39
1, 828145, Note_on_c, 0, 37, 40
1, 828193, Note_off_c, 0, 51, 56
1, 828221, Note_off_c, 0, 54, 61
1, 828303, Control_c, 0, 64, 110
1, 828318, Control_c, 0, 64, 103
1, 828327, Note_on_c, 0, 54, 61
1, 828333, Control_c, 0, 64, 97
1, 828340, Note_on_c, 0, 51, 38
1, 828344, Note_on_c, 0, 44, 40
1, 828348, Control_c, 0, 64, 94
1, 828351, Note_off_c, 0, 37, 41
1, 828363, Control_c, 0, 64, 91
1, 828378, Control_c, 0, 64, 88
1, 828392, Control_c, 0, 64, 81
1, 828407, Control_c, 0, 64, 72
1, 828422, Control_c, 0, 64, 64
1, 828437, Control_c, 0, 64, 55
1, 828452, Control_c, 0, 64, 50
1, 828466, Control_c, 0, 64, 51
1, 828481, Control_c, 0, 64, 52
1, 828496, Control_c, 0, 64, 55
1, 828511, Control_c, 0, 64, 57
1, 828525, Control_c, 0, 64, 60
1, 828540, Control_c, 0, 64, 62
1, 828545, Note_on_c, 0, 37, 27
1, 828554, Note_off_c, 0, 44, 42
1, 828555, Control_c, 0, 64, 65
1, 828570, Control_c, 0, 64, 68
1, 828585, Control_c, 0, 64, 74
1, 828599, Control_c, 0, 64, 81
1, 828614, Control_c, 0, 64, 89
1, 828629, Control_c, 0, 64, 98
1, 828644, Control_c, 0, 64, 110
1, 828659, Control_c, 0, 64, 127
1, 828669, Note_off_c, 0, 51, 29
1, 828726, Note_on_c, 0, 44, 37
1, 828793, Note_off_c, 0, 37, 37
1, 828930, Note_on_c, 0, 51, 40
1, 828981, Note_off_c, 0, 44, 35
1, 829150, Note_on_c, 0, 44, 36
1, 829242, Note_on_c, 0, 56, 56
1, 829277, Note_on_c, 0, 53, 40
1, 829361, Note_on_c, 0, 37, 30
1, 829364, Note_off_c, 0, 54, 42
1, 829382, Note_off_c, 0, 44, 36
1, 829437, Control_c, 0, 64, 120
1, 829452, Control_c, 0, 64, 117
1, 829466, Control_c, 0, 64, 116
1, 829481, Control_c, 0, 64, 115
1, 829504, Control_c, 0, 64, 113
1, 829519, Control_c, 0, 64, 109
1, 829534, Control_c, 0, 64, 107
1, 829548, Control_c, 0, 64, 104
1, 829563, Control_c, 0, 64, 102
1, 829578, Control_c, 0, 64, 100
1, 829593, Control_c, 0, 64, 97
1, 829608, Control_c, 0, 64, 91
1, 829611, Note_on_c, 0, 57, 49
1, 829622, Control_c, 0, 64, 87
1, 829627, Note_on_c, 0, 54, 44
1, 829637, Control_c, 0, 64, 84
1, 829652, Note_on_c, 0, 44, 32
1, 829652, Control_c, 0, 64, 81
1, 829655, Note_off_c, 0, 37, 37
1, 829666, Control_c, 0, 64, 79
1, 829681, Control_c, 0, 64, 77
1, 829696, Control_c, 0, 64, 74
1, 829711, Control_c, 0, 64, 71
1, 829726, Control_c, 0, 64, 68
1, 829732, Note_off_c, 0, 53, 32
1, 829740, Control_c, 0, 64, 65
1, 829755, Control_c, 0, 64, 62
1, 829764, Note_off_c, 0, 56, 22
1, 829770, Control_c, 0, 64, 59
1, 829785, Control_c, 0, 64, 55
1, 829814, Control_c, 0, 64, 56
1, 829829, Control_c, 0, 64, 57
1, 829844, Control_c, 0, 64, 58
1, 829859, Control_c, 0, 64, 60
1, 829874, Control_c, 0, 64, 62
1, 829881, Note_on_c, 0, 37, 26
1, 829882, Note_off_c, 0, 44, 40
1, 829890, Control_c, 0, 64, 64
1, 829905, Control_c, 0, 64, 65
1, 829919, Control_c, 0, 64, 68
1, 829934, Control_c, 0, 64, 72
1, 829949, Control_c, 0, 64, 79
1, 829964, Control_c, 0, 64, 86
1, 829978, Control_c, 0, 64, 95
1, 829993, Control_c, 0, 64, 99
1, 829999, Note_off_c, 0, 51, 34
1, 830008, Control_c, 0, 64, 100
1, 830083, Control_c, 0, 64, 99
1, 830097, Control_c, 0, 64, 98
1, 830099, Note_on_c, 0, 44, 28
1, 830112, Control_c, 0, 64, 98
1, 830127, Control_c, 0, 64, 97
1, 830142, Control_c, 0, 64, 96
1, 830157, Control_c, 0, 64, 94
1, 830171, Control_c, 0, 64, 92
1, 830186, Control_c, 0, 64, 91
1, 830201, Control_c, 0, 64, 89
1, 830216, Control_c, 0, 64, 87
1, 830231, Control_c, 0, 64, 85
1, 830243, Note_off_c, 0, 37, 27
1, 830253, Control_c, 0, 64, 83
1, 830268, Control_c, 0, 64, 82
1, 830282, Control_c, 0, 64, 79
1, 830297, Control_c, 0, 64, 77
1, 830297, Note_on_c, 0, 49, 34
1, 830312, Control_c, 0, 64, 76
1, 830327, Control_c, 0, 64, 74
1, 830342, Control_c, 0, 64, 73
1, 830357, Control_c, 0, 64, 71
1, 830370, Note_off_c, 0, 44, 35
1, 830371, Control_c, 0, 64, 71
1, 830386, Control_c, 0, 64, 69
1, 830401, Control_c, 0, 64, 68
1, 830416, Control_c, 0, 64, 66
1, 830431, Control_c, 0, 64, 64
1, 830445, Control_c, 0, 64, 63
1, 830460, Control_c, 0, 64, 61
1, 830475, Control_c, 0, 64, 60
1, 830504, Control_c, 0, 64, 61
1, 830519, Control_c, 0, 64, 61
1, 830527, Note_on_c, 0, 44, 11
1, 830534, Control_c, 0, 64, 62
1, 830549, Control_c, 0, 64, 63
1, 830563, Control_c, 0, 64, 64
1, 830578, Control_c, 0, 64, 66
1, 830593, Control_c, 0, 64, 67
1, 830608, Control_c, 0, 64, 70
1, 830623, Control_c, 0, 64, 74
1, 830637, Control_c, 0, 64, 79
1, 830652, Control_c, 0, 64, 84
1, 830667, Control_c, 0, 64, 89
1, 830682, Control_c, 0, 64, 94
1, 830698, Control_c, 0, 64, 99
1, 830712, Control_c, 0, 64, 105
1, 830724, Note_on_c, 0, 37, 29
1, 830727, Control_c, 0, 64, 112
1, 830742, Control_c, 0, 64, 117
1, 830757, Control_c, 0, 64, 120
1, 830759, Note_off_c, 0, 44, 33
1, 830772, Control_c, 0, 64, 122
1, 830846, Control_c, 0, 64, 120
1, 830861, Control_c, 0, 64, 119
1, 830876, Control_c, 0, 64, 115
1, 830891, Control_c, 0, 64, 114
1, 830905, Control_c, 0, 64, 113
1, 830920, Control_c, 0, 64, 112
1, 830935, Control_c, 0, 64, 110
1, 830950, Control_c, 0, 64, 108
1, 830965, Control_c, 0, 64, 105
1, 830971, Note_on_c, 0, 44, 30
1, 830980, Control_c, 0, 64, 103
1, 831001, Control_c, 0, 64, 100
1, 831013, Note_on_c, 0, 56, 47
1, 831016, Control_c, 0, 64, 97
1, 831031, Control_c, 0, 64, 96
1, 831042, Note_on_c, 0, 53, 37
1, 831046, Control_c, 0, 64, 94
1, 831061, Control_c, 0, 64, 92
1, 831063, Note_off_c, 0, 37, 35
1, 831075, Control_c, 0, 64, 89
1, 831090, Control_c, 0, 64, 84
1, 831102, Note_off_c, 0, 54, 26
1, 831105, Control_c, 0, 64, 81
1, 831115, Note_off_c, 0, 57, 38
1, 831120, Control_c, 0, 64, 78
1, 831135, Control_c, 0, 64, 74
1, 831150, Control_c, 0, 64, 69
1, 831165, Control_c, 0, 64, 64
1, 831180, Control_c, 0, 64, 58
1, 831194, Control_c, 0, 64, 56
1, 831209, Control_c, 0, 64, 58
1, 831221, Note_on_c, 0, 37, 38
1, 831224, Control_c, 0, 64, 59
1, 831239, Control_c, 0, 64, 61
1, 831247, Note_off_c, 0, 44, 41
1, 831254, Control_c, 0, 64, 63
1, 831268, Control_c, 0, 64, 65
1, 831283, Control_c, 0, 64, 70
1, 831298, Control_c, 0, 64, 76
1, 831312, Control_c, 0, 64, 84
1, 831327, Control_c, 0, 64, 95
1, 831342, Control_c, 0, 64, 112
1, 831357, Control_c, 0, 64, 127
1, 831417, Note_off_c, 0, 49, 53
1, 831427, Note_on_c, 0, 44, 57
1, 831496, Note_off_c, 0, 37, 42
1, 831543, Note_off_c, 0, 53, 43
1, 831648, Note_on_c, 0, 52, 55
1, 831686, Note_on_c, 0, 61, 76
1, 831713, Control_c, 0, 64, 115
1, 831728, Control_c, 0, 64, 106
1, 831750, Control_c, 0, 64, 97
1, 831765, Note_off_c, 0, 44, 31
1, 831765, Control_c, 0, 64, 91
1, 831780, Control_c, 0, 64, 85
1, 831788, Note_off_c, 0, 56, 61
1, 831795, Control_c, 0, 64, 78
1, 831810, Control_c, 0, 64, 70
1, 831824, Control_c, 0, 64, 63
1, 831839, Control_c, 0, 64, 53
1, 831854, Control_c, 0, 64, 52
1, 831869, Control_c, 0, 64, 54
1, 831884, Control_c, 0, 64, 56
1, 831898, Control_c, 0, 64, 58
1, 831913, Control_c, 0, 64, 61
1, 831928, Control_c, 0, 64, 64
1, 831937, Note_on_c, 0, 44, 64
1, 831943, Control_c, 0, 64, 69
1, 831958, Control_c, 0, 64, 78
1, 831973, Control_c, 0, 64, 94
1, 831985, Note_off_c, 0, 52, 41
1, 831988, Control_c, 0, 64, 127
1, 832130, Note_on_c, 0, 37, 72
1, 832175, Note_off_c, 0, 44, 58
1, 832315, Note_on_c, 0, 44, 82
1, 832357, Note_off_c, 0, 37, 56
1, 832362, Note_off_c, 0, 61, 52
1, 832524, Note_on_c, 0, 37, 76
1, 832553, Note_off_c, 0, 44, 60
1, 832697, Note_on_c, 0, 64, 96
1, 832771, Note_on_c, 0, 44, 75
1, 832840, Note_off_c, 0, 44, 62
1, 832848, Note_off_c, 0, 37, 60
1, 832943, Note_off_c, 0, 64, 58
1, 833080, Note_on_c, 0, 40, 80
1, 833090, Note_on_c, 0, 28, 73
1, 833181, Control_c, 0, 64, 100
1, 833196, Control_c, 0, 64, 67
1, 833211, Control_c, 0, 64, 16
1, 833226, Control_c, 0, 64, 0
1, 833228, Note_on_c, 0, 47, 82
1, 833278, Control_c, 0, 64, 46
1, 833293, Control_c, 0, 64, 65
1, 833308, Control_c, 0, 64, 82
1, 833322, Control_c, 0, 64, 127
1, 833334, Note_on_c, 0, 56, 88
1, 833356, Note_off_c, 0, 47, 61
1, 833446, Note_off_c, 0, 28, 36
1, 833544, Note_off_c, 0, 40, 52
1, 833570, Note_on_c, 0, 64, 89
1, 833812, Note_off_c, 0, 56, 28
1, 833993, Note_on_c, 0, 47, 48
1, 834231, Note_on_c, 0, 40, 57
1, 834273, Note_off_c, 0, 47, 52
1, 834444, Note_on_c, 0, 47, 63
1, 834480, Note_off_c, 0, 40, 56
1, 834639, Note_on_c, 0, 40, 66
1, 834670, Note_off_c, 0, 47, 60
1, 834791, Note_off_c, 0, 40, 53
1, 834846, Note_on_c, 0, 47, 73
1, 835073, Note_on_c, 0, 56, 76
1, 835144, Note_off_c, 0, 47, 49
1, 835278, Note_off_c, 0, 56, 60
1, 835365, Note_on_c, 0, 47, 58
1, 835436, Note_on_c, 0, 66, 92
1, 835496, Note_off_c, 0, 64, 63
1, 835550, Note_on_c, 0, 40, 66
1, 835594, Note_off_c, 0, 40, 62
1, 835594, Note_off_c, 0, 47, 33
1, 835754, Note_on_c, 0, 57, 62
1, 835785, Note_off_c, 0, 66, 57
1, 835791, Note_on_c, 0, 69, 88
1, 835803, Note_on_c, 0, 61, 77
1, 835850, Control_c, 0, 64, 115
1, 835864, Control_c, 0, 64, 94
1, 835879, Control_c, 0, 64, 82
1, 835894, Control_c, 0, 64, 72
1, 835908, Control_c, 0, 64, 66
1, 835923, Control_c, 0, 64, 62
1, 835938, Control_c, 0, 64, 63
1, 835953, Control_c, 0, 64, 64
1, 835968, Control_c, 0, 64, 66
1, 835982, Control_c, 0, 64, 69
1, 835997, Control_c, 0, 64, 74
1, 836012, Control_c, 0, 64, 84
1, 836027, Control_c, 0, 64, 125
1, 836042, Control_c, 0, 64, 127
1, 836124, Note_on_c, 0, 49, 73
1, 836124, Note_off_c, 0, 57, 58
1, 836182, Note_off_c, 0, 61, 54
1, 836253, Note_off_c, 0, 49, 62
1, 836329, Note_on_c, 0, 68, 87
1, 836342, Note_on_c, 0, 40, 63
1, 836343, Note_on_c, 0, 59, 81
1, 836376, Note_off_c, 0, 69, 58
1, 836444, Note_off_c, 0, 40, 61
1, 836474, Note_off_c, 0, 68, 60
1, 836590, Note_on_c, 0, 56, 70
1, 836618, Note_on_c, 0, 68, 80
1, 836633, Note_on_c, 0, 64, 62
1, 836658, Control_c, 0, 64, 110
1, 836673, Control_c, 0, 64, 103
1, 836675, Note_off_c, 0, 59, 56
1, 836687, Control_c, 0, 64, 95
1, 836702, Control_c, 0, 64, 86
1, 836717, Control_c, 0, 64, 76
1, 836731, Control_c, 0, 64, 67
1, 836746, Control_c, 0, 64, 60
1, 836761, Control_c, 0, 64, 50
1, 836776, Control_c, 0, 64, 48
1, 836791, Control_c, 0, 64, 48
1, 836805, Control_c, 0, 64, 51
1, 836820, Control_c, 0, 64, 56
1, 836835, Control_c, 0, 64, 60
1, 836850, Control_c, 0, 64, 64
1, 836852, Note_on_c, 0, 47, 58
1, 836865, Control_c, 0, 64, 70
1, 836879, Control_c, 0, 64, 83
1, 836894, Control_c, 0, 64, 127
1, 836927, Note_off_c, 0, 56, 64
1, 837051, Note_on_c, 0, 40, 71
1, 837083, Note_off_c, 0, 47, 55
1, 837216, Note_on_c, 0, 47, 72
1, 837226, Note_off_c, 0, 40, 56
1, 837384, Note_on_c, 0, 40, 63
1, 837422, Note_off_c, 0, 47, 56
1, 837496, Note_on_c, 0, 57, 88
1, 837595, Note_off_c, 0, 40, 37
1, 837603, Note_on_c, 0, 47, 57
1, 837607, Note_off_c, 0, 64, 61
1, 837675, Note_off_c, 0, 68, 35
1, 837701, Note_off_c, 0, 57, 60
1, 837739, Note_off_c, 0, 47, 52
1, 837838, Note_on_c, 0, 68, 82
1, 837840, Note_on_c, 0, 57, 49
1, 837843, Note_on_c, 0, 59, 82
1, 837843, Note_on_c, 0, 63, 68
1, 837903, Control_c, 0, 64, 92
1, 837918, Control_c, 0, 64, 77
1, 837932, Control_c, 0, 64, 67
1, 837947, Control_c, 0, 64, 61
1, 837962, Control_c, 0, 64, 60
1, 837976, Control_c, 0, 64, 62
1, 837991, Control_c, 0, 64, 65
1, 838006, Control_c, 0, 64, 68
1, 838021, Control_c, 0, 64, 73
1, 838036, Control_c, 0, 64, 84
1, 838051, Control_c, 0, 64, 127
1, 838054, Note_off_c, 0, 57, 48
1, 838055, Note_on_c, 0, 47, 56
1, 838241, Note_on_c, 0, 61, 84
1, 838332, Note_off_c, 0, 47, 58
1, 838337, Note_on_c, 0, 40, 49
1, 838384, Note_off_c, 0, 59, 52
1, 838514, Note_on_c, 0, 47, 61
1, 838528, Note_off_c, 0, 40, 55
1, 838749, Note_on_c, 0, 40, 47
1, 838802, Note_off_c, 0, 47, 52
1, 838977, Note_on_c, 0, 59, 80
1, 839005, Note_off_c, 0, 40, 36
1, 839073, Note_on_c, 0, 47, 44
1, 839112, Note_off_c, 0, 63, 56
1, 839180, Note_off_c, 0, 68, 51
1, 839266, Note_off_c, 0, 59, 58
1, 839390, Note_on_c, 0, 56, 32
1, 839432, Note_on_c, 0, 68, 59
1, 839444, Note_on_c, 0, 59, 53
1, 839445, Control_c, 0, 64, 105
1, 839452, Note_on_c, 0, 64, 45
1, 839460, Control_c, 0, 64, 93
1, 839476, Control_c, 0, 64, 88
1, 839490, Control_c, 0, 64, 87
1, 839496, Note_off_c, 0, 47, 33
1, 839505, Control_c, 0, 64, 85
1, 839520, Control_c, 0, 64, 80
1, 839535, Control_c, 0, 64, 73
1, 839550, Control_c, 0, 64, 64
1, 839565, Control_c, 0, 64, 47
1, 839579, Control_c, 0, 64, 28
1, 839594, Control_c, 0, 64, 23
1, 839638, Control_c, 0, 64, 26
1, 839653, Control_c, 0, 64, 35
1, 839668, Control_c, 0, 64, 46
1, 839683, Control_c, 0, 64, 53
1, 839697, Control_c, 0, 64, 58
1, 839712, Control_c, 0, 64, 62
1, 839727, Control_c, 0, 64, 65
1, 839742, Control_c, 0, 64, 70
1, 839756, Note_on_c, 0, 47, 45
1, 839756, Control_c, 0, 64, 81
1, 839771, Control_c, 0, 64, 99
1, 839786, Control_c, 0, 64, 127
1, 839803, Note_off_c, 0, 56, 54
1, 839953, Note_on_c, 0, 40, 51
1, 839957, Note_off_c, 0, 47, 53
1, 840027, Note_off_c, 0, 61, 0
1, 840064, Poly_aftertouch_c, 0, 61, 127
1, 840169, Note_on_c, 0, 47, 50
1, 840182, Note_off_c, 0, 40, 36
1, 840291, Poly_aftertouch_c, 0, 61, 0
1, 840388, Note_on_c, 0, 40, 43
1, 840404, Note_off_c, 0, 47, 37
1, 840532, Note_off_c, 0, 59, 37
1, 840587, Note_off_c, 0, 40, 43
1, 840627, Note_off_c, 0, 64, 32
1, 840651, Note_on_c, 0, 47, 35
1, 840693, Note_off_c, 0, 68, 37
1, 841002, Control_c, 0, 64, 125
1, 841017, Control_c, 0, 64, 109
1, 841032, Control_c, 0, 64, 102
1, 841032, Note_on_c, 0, 54, 32
1, 841047, Control_c, 0, 64, 96
1, 841053, Note_on_c, 0, 68, 41
1, 841061, Control_c, 0, 64, 90
1, 841066, Note_on_c, 0, 60, 42
1, 841076, Control_c, 0, 64, 85
1, 841079, Note_on_c, 0, 66, 32
1, 841091, Control_c, 0, 64, 81
1, 841106, Control_c, 0, 64, 78
1, 841121, Control_c, 0, 64, 76
1, 841136, Control_c, 0, 64, 74
1, 841142, Note_off_c, 0, 47, 31
1, 841151, Control_c, 0, 64, 71
1, 841166, Control_c, 0, 64, 69
1, 841181, Control_c, 0, 64, 67
1, 841196, Control_c, 0, 64, 65
1, 841210, Control_c, 0, 64, 64
1, 841225, Control_c, 0, 64, 61
1, 841240, Control_c, 0, 64, 55
1, 841255, Control_c, 0, 64, 46
1, 841270, Control_c, 0, 64, 40
1, 841284, Control_c, 0, 64, 37
1, 841314, Control_c, 0, 64, 38
1, 841329, Control_c, 0, 64, 44
1, 841343, Control_c, 0, 64, 52
1, 841358, Control_c, 0, 64, 57
1, 841373, Control_c, 0, 64, 60
1, 841388, Control_c, 0, 64, 64
1, 841402, Control_c, 0, 64, 67
1, 841417, Control_c, 0, 64, 73
1, 841419, Note_on_c, 0, 44, 27
1, 841432, Control_c, 0, 64, 84
1, 841447, Control_c, 0, 64, 98
1, 841461, Note_off_c, 0, 54, 42
1, 841462, Control_c, 0, 64, 127
1, 841650, Note_on_c, 0, 39, 31
1, 841665, Note_off_c, 0, 44, 35
1, 841856, Note_off_c, 0, 39, 41
1, 841861, Note_off_c, 0, 60, 33
1, 841878, Note_on_c, 0, 44, 29
1, 841966, Note_off_c, 0, 68, 31
1, 842042, Note_off_c, 0, 66, 33
1, 842102, Note_off_c, 0, 44, 36
1, 842125, Note_on_c, 0, 39, 28
1, 842418, Note_off_c, 0, 39, 40
1, 842442, Note_on_c, 0, 44, 30
1, 842531, Note_off_c, 0, 44, 53
1, 843011, Control_c, 0, 64, 115
1, 843014, Note_on_c, 0, 25, 36
1, 843020, Note_on_c, 0, 37, 32
1, 843026, Control_c, 0, 64, 108
1, 843041, Control_c, 0, 64, 102
1, 843056, Control_c, 0, 64, 98
1, 843071, Control_c, 0, 64, 94
1, 843085, Control_c, 0, 64, 88
1, 843100, Control_c, 0, 64, 82
1, 843115, Control_c, 0, 64, 71
1, 843130, Control_c, 0, 64, 63
1, 843145, Control_c, 0, 64, 53
1, 843160, Control_c, 0, 64, 50
1, 843174, Control_c, 0, 64, 51
1, 843189, Control_c, 0, 64, 53
1, 843202, Note_on_c, 0, 53, 39
1, 843204, Control_c, 0, 64, 57
1, 843219, Control_c, 0, 64, 60
1, 843234, Control_c, 0, 64, 62
1, 843248, Control_c, 0, 64, 66
1, 843263, Control_c, 0, 64, 72
1, 843278, Control_c, 0, 64, 83
1, 843293, Control_c, 0, 64, 108
1, 843300, Note_on_c, 0, 56, 44
1, 843308, Control_c, 0, 64, 127
1, 843375, Note_off_c, 0, 56, 53
1, 843378, Note_on_c, 0, 61, 49
1, 843378, Note_off_c, 0, 53, 34
1, 843477, Note_on_c, 0, 65, 54
1, 843478, Note_off_c, 0, 61, 60
1, 843557, Note_off_c, 0, 25, 38
1, 843580, Note_off_c, 0, 65, 61
1, 843675, Note_off_c, 0, 37, 40
1, 843789, Note_on_c, 0, 68, 50
1, 844305, Note_on_c, 0, 44, 31
1, 844498, Note_off_c, 0, 68, 25
1, 844539, Note_on_c, 0, 37, 35
1, 844562, Note_off_c, 0, 44, 37
1, 844778, Note_on_c, 0, 44, 28
1, 844785, Note_off_c, 0, 37, 38
1, 844815, Note_on_c, 0, 56, 64
1, 845044, Note_on_c, 0, 37, 39
1, 845072, Note_off_c, 0, 44, 37
1, 845222, Note_off_c, 0, 37, 40
1, 845240, Note_on_c, 0, 44, 48
1, 845478, Note_off_c, 0, 44, 22
1, 845482, Note_on_c, 0, 54, 45
1, 845510, Note_on_c, 0, 61, 73
1, 845527, Note_on_c, 0, 58, 61
1, 845775, Note_off_c, 0, 54, 61
1, 845780, Note_on_c, 0, 44, 48
1, 845980, Note_on_c, 0, 37, 61
1, 845991, Note_off_c, 0, 44, 57
1, 846156, Note_off_c, 0, 58, 60
1, 846173, Note_on_c, 0, 44, 60
1, 846179, Note_off_c, 0, 37, 56
1, 846386, Note_on_c, 0, 37, 50
1, 846386, Note_off_c, 0, 44, 56
1, 846517, Note_on_c, 0, 65, 84
1, 846540, Note_on_c, 0, 60, 66
1, 846574, Note_off_c, 0, 61, 58
1, 846596, Note_off_c, 0, 37, 41
1, 846615, Note_on_c, 0, 44, 52
1, 846663, Note_off_c, 0, 56, 31
1, 846789, Note_off_c, 0, 44, 35
1, 846816, Note_off_c, 0, 65, 60
1, 846900, Note_on_c, 0, 53, 45
1, 846949, Note_on_c, 0, 65, 77
1, 846962, Control_c, 0, 64, 116
1, 846975, Note_off_c, 0, 60, 62
1, 846977, Note_on_c, 0, 61, 57
1, 846977, Control_c, 0, 64, 98
1, 846984, Note_on_c, 0, 56, 59
1, 846992, Control_c, 0, 64, 84
1, 847007, Control_c, 0, 64, 70
1, 847021, Control_c, 0, 64, 56
1, 847036, Control_c, 0, 64, 26
1, 847051, Control_c, 0, 64, 0
1, 847110, Control_c, 0, 64, 9
1, 847125, Control_c, 0, 64, 38
1, 847140, Control_c, 0, 64, 54
1, 847155, Control_c, 0, 64, 64
1, 847169, Control_c, 0, 64, 73
1, 847184, Control_c, 0, 64, 98
1, 847199, Control_c, 0, 64, 127
1, 847209, Note_off_c, 0, 56, 61
1, 847244, Note_off_c, 0, 61, 60
1, 847288, Note_off_c, 0, 65, 62
1, 847333, Note_off_c, 0, 53, 33
1, 847495, Note_on_c, 0, 44, 27
1, 847685, Note_off_c, 0, 44, 38
1, 847706, Note_on_c, 0, 73, 34
1, 847723, Note_on_c, 0, 37, 26
1, 847894, Note_off_c, 0, 73, 35
1, 847912, Note_on_c, 0, 80, 52
1, 847919, Note_off_c, 0, 37, 40
1, 847924, Note_on_c, 0, 77, 40
1, 847939, Note_on_c, 0, 44, 27
1, 847985, Note_off_c, 0, 77, 48
1, 848055, Note_off_c, 0, 80, 35
1, 848100, Note_on_c, 0, 82, 61
1, 848107, Note_off_c, 0, 44, 40
1, 848135, Note_on_c, 0, 73, 44
1, 848143, Note_on_c, 0, 37, 26
1, 848185, Note_off_c, 0, 73, 56
1, 848189, Note_off_c, 0, 82, 58
1, 848198, Note_off_c, 0, 37, 47
1, 848305, Note_on_c, 0, 80, 63
1, 848313, Note_on_c, 0, 44, 26
1, 848335, Note_on_c, 0, 77, 44
1, 848383, Note_off_c, 0, 80, 57
1, 848386, Note_off_c, 0, 77, 54
1, 848427, Note_off_c, 0, 44, 33
1, 848507, Note_on_c, 0, 53, 38
1, 848523, Note_on_c, 0, 80, 46
1, 848529, Note_on_c, 0, 77, 42
1, 848622, Note_off_c, 0, 53, 36
1, 848661, Note_off_c, 0, 77, 51
1, 848708, Note_off_c, 0, 80, 36
1, 848725, Note_on_c, 0, 44, 32
1, 848811, Note_off_c, 0, 44, 54
1, 848919, Note_on_c, 0, 37, 30
1, 849110, Note_on_c, 0, 78, 53
1, 849124, Note_off_c, 0, 37, 39
1, 849131, Note_on_c, 0, 70, 35
1, 849138, Note_on_c, 0, 44, 29
1, 849286, Note_off_c, 0, 70, 44
1, 849319, Note_off_c, 0, 44, 38
1, 849322, Note_on_c, 0, 37, 27
1, 849390, Note_off_c, 0, 37, 50
1, 849520, Note_on_c, 0, 77, 51
1, 849532, Note_on_c, 0, 44, 27
1, 849548, Note_on_c, 0, 68, 31
1, 849599, Note_off_c, 0, 68, 50
1, 849614, Note_off_c, 0, 77, 58
1, 849686, Note_off_c, 0, 44, 30
1, 849745, Note_on_c, 0, 53, 37
1, 849754, Note_on_c, 0, 77, 52
1, 849766, Note_off_c, 0, 78, 37
1, 849767, Note_on_c, 0, 68, 36
1, 849851, Note_off_c, 0, 77, 54
1, 849919, Note_off_c, 0, 53, 42
1, 849936, Note_off_c, 0, 68, 41
1, 849968, Note_on_c, 0, 44, 46
1, 850147, Note_on_c, 0, 37, 63
1, 850155, Note_off_c, 0, 44, 54
1, 850347, Note_on_c, 0, 66, 85
1, 850363, Note_on_c, 0, 44, 43
1, 850364, Note_on_c, 0, 63, 71
1, 850432, Note_off_c, 0, 37, 34
1, 850568, Note_on_c, 0, 37, 57
1, 850616, Note_off_c, 0, 44, 39
1, 850708, Note_off_c, 0, 37, 57
1, 850752, Note_on_c, 0, 44, 65
1, 850856, Note_off_c, 0, 63, 46
1, 850991, Note_on_c, 0, 54, 52
1, 851062, Note_on_c, 0, 68, 88
1, 851080, Note_on_c, 0, 60, 68
1, 851095, Note_on_c, 0, 65, 60
1, 851124, Note_off_c, 0, 44, 32
1, 851136, Control_c, 0, 64, 103
1, 851151, Control_c, 0, 64, 83
1, 851166, Control_c, 0, 64, 70
1, 851181, Control_c, 0, 64, 59
1, 851185, Note_off_c, 0, 66, 47
1, 851196, Control_c, 0, 64, 41
1, 851217, Control_c, 0, 64, 38
1, 851232, Control_c, 0, 64, 38
1, 851247, Control_c, 0, 64, 42
1, 851262, Control_c, 0, 64, 51
1, 851277, Control_c, 0, 64, 59
1, 851292, Control_c, 0, 64, 64
1, 851307, Control_c, 0, 64, 76
1, 851322, Control_c, 0, 64, 119
1, 851336, Control_c, 0, 64, 127
1, 851350, Note_on_c, 0, 44, 56
1, 851383, Note_off_c, 0, 54, 62
1, 851428, Note_on_c, 0, 70, 90
1, 851435, Note_on_c, 0, 66, 71
1, 851482, Note_off_c, 0, 65, 57
1, 851492, Note_off_c, 0, 68, 60
1, 851587, Note_on_c, 0, 37, 61
1, 851591, Note_off_c, 0, 44, 56
1, 851777, Note_off_c, 0, 66, 53
1, 851787, Note_on_c, 0, 44, 62
1, 851806, Note_off_c, 0, 60, 59
1, 851843, Note_off_c, 0, 37, 37
1, 852030, Note_on_c, 0, 37, 55
1, 852058, Note_off_c, 0, 44, 56
1, 852177, Note_off_c, 0, 37, 57
1, 852288, Note_on_c, 0, 68, 84
1, 852298, Note_on_c, 0, 44, 42
1, 852308, Note_on_c, 0, 65, 61
1, 852375, Note_off_c, 0, 70, 55
1, 852467, Note_off_c, 0, 44, 36
1, 852510, Note_off_c, 0, 65, 57
1, 852523, Note_off_c, 0, 68, 60
1, 852571, Note_on_c, 0, 53, 43
1, 852633, Control_c, 0, 64, 115
1, 852639, Note_on_c, 0, 68, 71
1, 852648, Control_c, 0, 64, 98
1, 852651, Note_on_c, 0, 65, 52
1, 852663, Control_c, 0, 64, 88
1, 852672, Note_on_c, 0, 61, 52
1, 852678, Control_c, 0, 64, 79
1, 852693, Control_c, 0, 64, 68
1, 852714, Control_c, 0, 64, 57
1, 852729, Control_c, 0, 64, 37
1, 852744, Control_c, 0, 64, 32
1, 852759, Control_c, 0, 64, 33
1, 852774, Control_c, 0, 64, 39
1, 852788, Control_c, 0, 64, 48
1, 852803, Control_c, 0, 64, 55
1, 852818, Control_c, 0, 64, 62
1, 852833, Control_c, 0, 64, 67
1, 852848, Control_c, 0, 64, 77
1, 852863, Control_c, 0, 64, 98
1, 852878, Control_c, 0, 64, 127
1, 852885, Note_off_c, 0, 61, 56
1, 852916, Note_off_c, 0, 65, 56
1, 852946, Note_off_c, 0, 53, 41
1, 852982, Note_off_c, 0, 68, 62
1, 853094, Note_on_c, 0, 44, 30
1, 853280, Note_off_c, 0, 44, 38
1, 853304, Note_on_c, 0, 73, 39
1, 853322, Note_on_c, 0, 37, 28
1, 853346, Note_off_c, 0, 73, 50
1, 853511, Note_off_c, 0, 37, 41
1, 853513, Note_on_c, 0, 80, 54
1, 853522, Note_on_c, 0, 77, 53
1, 853545, Note_on_c, 0, 44, 30
1, 853570, Note_off_c, 0, 77, 57
1, 853576, Note_off_c, 0, 80, 53
1, 853700, Note_on_c, 0, 82, 62
1, 853700, Note_off_c, 0, 44, 32
1, 853736, Note_on_c, 0, 37, 26
1, 853744, Note_on_c, 0, 73, 29
1, 853759, Note_off_c, 0, 82, 59
1, 853781, Note_off_c, 0, 73, 47
1, 853801, Note_off_c, 0, 37, 46
1, 853897, Note_on_c, 0, 44, 32
1, 853898, Note_on_c, 0, 80, 60
1, 853918, Note_on_c, 0, 77, 49
1, 853966, Note_off_c, 0, 77, 57
1, 853973, Note_off_c, 0, 80, 59
1, 854002, Note_off_c, 0, 44, 37
1, 854121, Note_on_c, 0, 80, 49
1, 854121, Note_on_c, 0, 53, 32
1, 854147, Note_on_c, 0, 77, 42
1, 854251, Note_off_c, 0, 77, 54
1, 854265, Note_off_c, 0, 80, 51
1, 854279, Note_off_c, 0, 53, 34
1, 854346, Note_on_c, 0, 44, 30
1, 854495, Note_off_c, 0, 44, 41
1, 854544, Note_on_c, 0, 37, 36
1, 854740, Note_on_c, 0, 78, 53
1, 854751, Note_off_c, 0, 37, 42
1, 854760, Note_on_c, 0, 75, 42
1, 854765, Note_on_c, 0, 44, 32
1, 854855, Note_off_c, 0, 75, 57
1, 854958, Note_off_c, 0, 44, 39
1, 854970, Note_on_c, 0, 37, 34
1, 855060, Note_off_c, 0, 37, 53
1, 855171, Note_on_c, 0, 77, 52
1, 855184, Note_on_c, 0, 44, 29
1, 855186, Note_on_c, 0, 73, 42
1, 855261, Note_off_c, 0, 73, 56
1, 855265, Note_off_c, 0, 77, 60
1, 855312, Note_off_c, 0, 44, 33
1, 855387, Note_on_c, 0, 53, 41
1, 855391, Note_on_c, 0, 77, 62
1, 855398, Note_on_c, 0, 73, 49
1, 855400, Note_off_c, 0, 78, 49
1, 855488, Note_off_c, 0, 77, 60
1, 855544, Note_off_c, 0, 73, 63
1, 855555, Note_off_c, 0, 53, 32
1, 855616, Note_on_c, 0, 44, 46
1, 855801, Note_on_c, 0, 68, 90
1, 855832, Note_off_c, 0, 44, 51
1, 855843, Note_on_c, 0, 37, 47
1, 856111, Note_on_c, 0, 44, 48
1, 856148, Note_on_c, 0, 70, 90
1, 856169, Note_on_c, 0, 66, 68
1, 856178, Note_on_c, 0, 61, 61
1, 856208, Note_off_c, 0, 37, 32
1, 856228, Control_c, 0, 64, 99
1, 856243, Control_c, 0, 64, 84
1, 856258, Control_c, 0, 64, 75
1, 856273, Control_c, 0, 64, 69
1, 856288, Control_c, 0, 64, 64
1, 856288, Note_off_c, 0, 68, 37
1, 856303, Control_c, 0, 64, 59
1, 856318, Control_c, 0, 64, 53
1, 856333, Control_c, 0, 64, 52
1, 856347, Control_c, 0, 64, 53
1, 856362, Control_c, 0, 64, 55
1, 856377, Control_c, 0, 64, 58
1, 856380, Note_on_c, 0, 37, 50
1, 856392, Control_c, 0, 64, 61
1, 856402, Note_off_c, 0, 44, 59
1, 856407, Control_c, 0, 64, 65
1, 856421, Control_c, 0, 64, 72
1, 856436, Control_c, 0, 64, 85
1, 856458, Control_c, 0, 64, 125
1, 856473, Control_c, 0, 64, 127
1, 856553, Note_off_c, 0, 37, 58
1, 856577, Note_on_c, 0, 44, 67
1, 856690, Note_off_c, 0, 44, 61
1, 856784, Note_on_c, 0, 56, 71
1, 856819, Note_off_c, 0, 66, 61
1, 856848, Note_off_c, 0, 70, 60
1, 856923, Note_off_c, 0, 56, 59
1, 856993, Note_on_c, 0, 44, 60
1, 857074, Note_on_c, 0, 68, 90
1, 857082, Note_on_c, 0, 65, 75
1, 857120, Note_off_c, 0, 61, 60
1, 857162, Note_off_c, 0, 65, 60
1, 857170, Note_off_c, 0, 44, 61
1, 857186, Note_on_c, 0, 37, 60
1, 857394, Note_on_c, 0, 44, 51
1, 857408, Note_on_c, 0, 66, 84
1, 857434, Note_on_c, 0, 63, 68
1, 857459, Control_c, 0, 64, 99
1, 857462, Note_off_c, 0, 37, 33
1, 857474, Control_c, 0, 64, 86
1, 857489, Control_c, 0, 64, 78
1, 857491, Note_off_c, 0, 68, 48
1, 857503, Control_c, 0, 64, 71
1, 857518, Control_c, 0, 64, 67
1, 857533, Control_c, 0, 64, 65
1, 857548, Control_c, 0, 64, 66
1, 857563, Control_c, 0, 64, 67
1, 857577, Control_c, 0, 64, 69
1, 857592, Control_c, 0, 64, 72
1, 857607, Control_c, 0, 64, 77
1, 857622, Control_c, 0, 64, 87
1, 857637, Control_c, 0, 64, 125
1, 857651, Control_c, 0, 64, 127
1, 857674, Note_on_c, 0, 37, 56
1, 857680, Note_off_c, 0, 44, 58
1, 857745, Note_off_c, 0, 63, 62
1, 857792, Note_off_c, 0, 37, 55
1, 857886, Note_on_c, 0, 65, 87
1, 857892, Note_on_c, 0, 44, 55
1, 857907, Note_on_c, 0, 61, 73
1, 857925, Note_off_c, 0, 66, 61
1, 858033, Note_off_c, 0, 61, 53
1, 858038, Note_off_c, 0, 44, 50
1, 858061, Note_off_c, 0, 65, 54
1, 858116, Note_on_c, 0, 53, 49
1, 858167, Note_on_c, 0, 65, 87
1, 858182, Note_on_c, 0, 61, 68
1, 858193, Control_c, 0, 64, 83
1, 858208, Control_c, 0, 64, 66
1, 858222, Control_c, 0, 64, 45
1, 858237, Control_c, 0, 64, 19
1, 858252, Control_c, 0, 64, 29
1, 858267, Control_c, 0, 64, 38
1, 858282, Control_c, 0, 64, 51
1, 858297, Control_c, 0, 64, 60
1, 858312, Control_c, 0, 64, 68
1, 858326, Control_c, 0, 64, 79
1, 858341, Control_c, 0, 64, 127
1, 858365, Note_off_c, 0, 53, 52
1, 858393, Note_on_c, 0, 44, 52
1, 858401, Note_off_c, 0, 61, 54
1, 858547, Note_off_c, 0, 44, 57
1, 858556, Note_on_c, 0, 68, 64
1, 858589, Note_on_c, 0, 37, 47
1, 858616, Note_off_c, 0, 65, 54
1, 858673, Note_off_c, 0, 68, 58
1, 858816, Note_on_c, 0, 44, 55
1, 858842, Note_off_c, 0, 37, 33
1, 858868, Control_c, 0, 64, 107
1, 858873, Note_on_c, 0, 63, 69
1, 858883, Control_c, 0, 64, 81
1, 858888, Note_on_c, 0, 71, 59
1, 858897, Control_c, 0, 64, 66
1, 858908, Note_on_c, 0, 59, 40
1, 858912, Control_c, 0, 64, 54
1, 858927, Control_c, 0, 64, 47
1, 858942, Control_c, 0, 64, 55
1, 858956, Control_c, 0, 64, 60
1, 858962, Note_off_c, 0, 71, 62
1, 858971, Control_c, 0, 64, 65
1, 858986, Control_c, 0, 64, 72
1, 858989, Note_off_c, 0, 59, 55
1, 859001, Control_c, 0, 64, 86
1, 859016, Control_c, 0, 64, 127
1, 859068, Note_off_c, 0, 63, 64
1, 859159, Note_on_c, 0, 73, 62
1, 859174, Note_on_c, 0, 65, 52
1, 859182, Note_off_c, 0, 44, 50
1, 859198, Note_on_c, 0, 37, 35
1, 859245, Note_off_c, 0, 65, 61
1, 859249, Note_off_c, 0, 73, 63
1, 859349, Note_on_c, 0, 71, 71
1, 859369, Note_off_c, 0, 37, 40
1, 859370, Note_on_c, 0, 44, 42
1, 859383, Note_on_c, 0, 63, 50
1, 859432, Note_off_c, 0, 71, 58
1, 859435, Note_off_c, 0, 63, 55
1, 859558, Note_off_c, 0, 44, 29
1, 859567, Note_on_c, 0, 71, 58
1, 859579, Note_on_c, 0, 63, 49
1, 859582, Note_on_c, 0, 53, 26
1, 859713, Note_off_c, 0, 71, 54
1, 859744, Note_off_c, 0, 53, 42
1, 859800, Note_on_c, 0, 44, 39
1, 859945, Note_off_c, 0, 63, 49
1, 860005, Note_off_c, 0, 44, 40
1, 860005, Note_on_c, 0, 37, 42
1, 860199, Poly_aftertouch_c, 0, 67, 127
1, 860212, Note_on_c, 0, 65, 65
1, 860223, Note_on_c, 0, 44, 42
1, 860232, Note_on_c, 0, 70, 52
1, 860240, Poly_aftertouch_c, 0, 67, 0
1, 860247, Control_c, 0, 64, 115
1, 860254, Note_on_c, 0, 61, 41
1, 860261, Note_off_c, 0, 37, 39
1, 860262, Control_c, 0, 64, 105
1, 860276, Control_c, 0, 64, 100
1, 860291, Control_c, 0, 64, 96
1, 860306, Control_c, 0, 64, 92
1, 860321, Control_c, 0, 64, 86
1, 860336, Control_c, 0, 64, 76
1, 860351, Control_c, 0, 64, 69
1, 860366, Control_c, 0, 64, 66
1, 860381, Control_c, 0, 64, 66
1, 860425, Control_c, 0, 64, 66
1, 860440, Control_c, 0, 64, 68
1, 860455, Control_c, 0, 64, 70
1, 860464, Note_on_c, 0, 37, 30
1, 860469, Control_c, 0, 64, 74
1, 860470, Note_off_c, 0, 44, 39
1, 860484, Control_c, 0, 64, 80
1, 860499, Control_c, 0, 64, 91
1, 860513, Control_c, 0, 64, 125
1, 860528, Control_c, 0, 64, 127
1, 860579, Note_off_c, 0, 61, 47
1, 860658, Note_off_c, 0, 37, 41
1, 860706, Note_on_c, 0, 68, 52
1, 860708, Note_on_c, 0, 60, 37
1, 860723, Note_on_c, 0, 44, 33
1, 860789, Note_off_c, 0, 70, 38
1, 860836, Note_off_c, 0, 65, 48
1, 860864, Note_off_c, 0, 60, 34
1, 860909, Note_off_c, 0, 44, 35
1, 861055, Control_c, 0, 64, 122
1, 861060, Note_on_c, 0, 53, 36
1, 861070, Control_c, 0, 64, 106
1, 861085, Control_c, 0, 64, 98
1, 861099, Control_c, 0, 64, 91
1, 861102, Note_on_c, 0, 70, 41
1, 861110, Note_on_c, 0, 61, 43
1, 861114, Control_c, 0, 64, 86
1, 861129, Control_c, 0, 64, 82
1, 861132, Note_on_c, 0, 58, 37
1, 861143, Note_off_c, 0, 68, 32
1, 861144, Control_c, 0, 64, 79
1, 861159, Control_c, 0, 64, 76
1, 861174, Control_c, 0, 64, 71
1, 861188, Control_c, 0, 64, 65
1, 861203, Control_c, 0, 64, 56
1, 861218, Control_c, 0, 64, 43
1, 861233, Control_c, 0, 64, 40
1, 861263, Control_c, 0, 64, 43
1, 861278, Control_c, 0, 64, 50
1, 861292, Control_c, 0, 64, 56
1, 861307, Control_c, 0, 64, 62
1, 861322, Control_c, 0, 64, 67
1, 861331, Note_off_c, 0, 58, 59
1, 861336, Control_c, 0, 64, 72
1, 861351, Control_c, 0, 64, 83
1, 861366, Control_c, 0, 64, 97
1, 861381, Control_c, 0, 64, 127
1, 861441, Note_off_c, 0, 53, 39
1, 861466, Note_on_c, 0, 63, 48
1, 861469, Note_off_c, 0, 61, 49
1, 861487, Note_on_c, 0, 60, 42
1, 861488, Note_on_c, 0, 46, 31
1, 861644, Note_off_c, 0, 63, 52
1, 861657, Note_off_c, 0, 46, 44
1, 861677, Note_on_c, 0, 65, 61
1, 861709, Note_on_c, 0, 61, 51
1, 861718, Note_on_c, 0, 37, 34
1, 861803, Note_off_c, 0, 61, 56
1, 861812, Note_off_c, 0, 65, 58
1, 861909, Control_c, 0, 64, 110
1, 861923, Control_c, 0, 64, 99
1, 861938, Control_c, 0, 64, 93
1, 861939, Note_on_c, 0, 46, 36
1, 861947, Note_on_c, 0, 65, 54
1, 861953, Control_c, 0, 64, 90
1, 861967, Control_c, 0, 64, 88
1, 861974, Note_on_c, 0, 61, 42
1, 861982, Control_c, 0, 64, 86
1, 861990, Note_off_c, 0, 37, 37
1, 861997, Control_c, 0, 64, 83
1, 862012, Control_c, 0, 64, 78
1, 862027, Control_c, 0, 64, 73
1, 862041, Control_c, 0, 64, 69
1, 862056, Control_c, 0, 64, 65
1, 862071, Control_c, 0, 64, 60
1, 862086, Control_c, 0, 64, 54
1, 862101, Control_c, 0, 64, 52
1, 862116, Control_c, 0, 64, 54
1, 862120, Note_off_c, 0, 60, 36
1, 862130, Control_c, 0, 64, 55
1, 862145, Control_c, 0, 64, 57
1, 862158, Note_on_c, 0, 37, 31
1, 862160, Control_c, 0, 64, 59
1, 862175, Control_c, 0, 64, 63
1, 862184, Note_off_c, 0, 46, 41
1, 862190, Control_c, 0, 64, 67
1, 862205, Control_c, 0, 64, 72
1, 862220, Control_c, 0, 64, 79
1, 862234, Control_c, 0, 64, 90
1, 862249, Control_c, 0, 64, 104
1, 862264, Control_c, 0, 64, 127
1, 862357, Note_off_c, 0, 37, 41
1, 862368, Note_on_c, 0, 46, 38
1, 862556, Note_off_c, 0, 61, 25
1, 862587, Note_on_c, 0, 53, 46
1, 862613, Note_off_c, 0, 65, 40
1, 862641, Note_off_c, 0, 46, 39
1, 862813, Note_off_c, 0, 53, 42
1, 862827, Note_on_c, 0, 46, 36
1, 863016, Note_off_c, 0, 46, 38
1, 863033, Note_on_c, 0, 37, 37
1, 863293, Note_on_c, 0, 46, 36
1, 863300, Note_on_c, 0, 63, 51
1, 863329, Note_on_c, 0, 60, 37
1, 863352, Note_off_c, 0, 37, 38
1, 863411, Poly_aftertouch_c, 0, 66, 127
1, 863576, Note_on_c, 0, 37, 50
1, 863609, Note_off_c, 0, 60, 50
1, 863633, Note_off_c, 0, 46, 38
1, 863812, Note_on_c, 0, 61, 73
1, 863817, Note_off_c, 0, 37, 36
1, 863833, Note_on_c, 0, 46, 46
1, 863841, Note_on_c, 0, 58, 56
1, 863880, Note_off_c, 0, 63, 55
1, 863968, Poly_aftertouch_c, 0, 66, 0
1, 864069, Note_off_c, 0, 58, 57
1, 864113, Note_off_c, 0, 61, 60
1, 864173, Note_on_c, 0, 54, 55
1, 864228, Note_on_c, 0, 61, 70
1, 864255, Note_on_c, 0, 58, 53
1, 864273, Control_c, 0, 64, 122
1, 864288, Control_c, 0, 64, 105
1, 864303, Control_c, 0, 64, 97
1, 864317, Control_c, 0, 64, 92
1, 864319, Note_off_c, 0, 46, 36
1, 864332, Control_c, 0, 64, 87
1, 864347, Control_c, 0, 64, 84
1, 864361, Control_c, 0, 64, 80
1, 864376, Control_c, 0, 64, 75
1, 864391, Control_c, 0, 64, 69
1, 864406, Control_c, 0, 64, 63
1, 864421, Control_c, 0, 64, 58
1, 864435, Control_c, 0, 64, 57
1, 864450, Control_c, 0, 64, 57
1, 864465, Control_c, 0, 64, 58
1, 864480, Control_c, 0, 64, 60
1, 864495, Control_c, 0, 64, 62
1, 864509, Control_c, 0, 64, 64
1, 864524, Control_c, 0, 64, 67
1, 864539, Control_c, 0, 64, 73
1, 864554, Control_c, 0, 64, 85
1, 864569, Control_c, 0, 64, 108
1, 864584, Control_c, 0, 64, 127
1, 864632, Note_on_c, 0, 46, 51
1, 864686, Note_off_c, 0, 54, 63
1, 864845, Note_on_c, 0, 65, 69
1, 864854, Note_off_c, 0, 46, 53
1, 864873, Note_on_c, 0, 37, 46
1, 864903, Note_off_c, 0, 70, 42
1, 864952, Note_off_c, 0, 61, 58
1, 864998, Note_off_c, 0, 58, 37
1, 865121, Note_on_c, 0, 46, 41
1, 865165, Note_on_c, 0, 63, 58
1, 865181, Note_on_c, 0, 66, 60
1, 865210, Note_on_c, 0, 58, 41
1, 865214, Control_c, 0, 64, 110
1, 865229, Control_c, 0, 64, 102
1, 865234, Note_off_c, 0, 37, 37
1, 865244, Control_c, 0, 64, 95
1, 865251, Note_off_c, 0, 65, 53
1, 865258, Control_c, 0, 64, 88
1, 865273, Control_c, 0, 64, 80
1, 865288, Control_c, 0, 64, 70
1, 865303, Control_c, 0, 64, 61
1, 865318, Control_c, 0, 64, 51
1, 865332, Control_c, 0, 64, 49
1, 865347, Control_c, 0, 64, 51
1, 865362, Control_c, 0, 64, 54
1, 865377, Control_c, 0, 64, 57
1, 865392, Control_c, 0, 64, 60
1, 865406, Control_c, 0, 64, 63
1, 865421, Control_c, 0, 64, 67
1, 865444, Control_c, 0, 64, 73
1, 865459, Control_c, 0, 64, 83
1, 865464, Note_on_c, 0, 68, 65
1, 865465, Note_on_c, 0, 65, 58
1, 865473, Control_c, 0, 64, 96
1, 865481, Note_on_c, 0, 37, 41
1, 865488, Control_c, 0, 64, 127
1, 865495, Note_off_c, 0, 46, 39
1, 865505, Note_off_c, 0, 66, 58
1, 865539, Note_off_c, 0, 63, 58
1, 865665, Note_off_c, 0, 37, 43
1, 865676, Note_on_c, 0, 66, 66
1, 865689, Note_on_c, 0, 46, 42
1, 865690, Note_on_c, 0, 63, 50
1, 865712, Note_off_c, 0, 65, 58
1, 865790, Note_off_c, 0, 66, 57
1, 865791, Note_off_c, 0, 63, 59
1, 865874, Control_c, 0, 64, 122
1, 865888, Control_c, 0, 64, 109
1, 865903, Control_c, 0, 64, 102
1, 865905, Note_on_c, 0, 54, 48
1, 865905, Note_on_c, 0, 66, 53
1, 865905, Note_off_c, 0, 68, 37
1, 865918, Control_c, 0, 64, 98
1, 865932, Control_c, 0, 64, 94
1, 865942, Note_on_c, 0, 63, 37
1, 865947, Control_c, 0, 64, 88
1, 865962, Control_c, 0, 64, 82
1, 865977, Control_c, 0, 64, 76
1, 865992, Control_c, 0, 64, 70
1, 866006, Control_c, 0, 64, 63
1, 866021, Control_c, 0, 64, 58
1, 866036, Control_c, 0, 64, 56
1, 866045, Note_off_c, 0, 46, 31
1, 866051, Control_c, 0, 64, 57
1, 866066, Control_c, 0, 64, 58
1, 866080, Control_c, 0, 64, 60
1, 866095, Control_c, 0, 64, 63
1, 866110, Control_c, 0, 64, 65
1, 866125, Control_c, 0, 64, 69
1, 866140, Control_c, 0, 64, 75
1, 866148, Note_off_c, 0, 54, 57
1, 866150, Note_on_c, 0, 44, 31
1, 866155, Control_c, 0, 64, 84
1, 866170, Control_c, 0, 64, 99
1, 866192, Control_c, 0, 64, 127
1, 866197, Note_off_c, 0, 63, 38
1, 866335, Note_off_c, 0, 66, 35
1, 866366, Note_off_c, 0, 44, 39
1, 866394, Note_off_c, 0, 58, 38
1, 866399, Note_on_c, 0, 37, 33
1, 866606, Control_c, 0, 64, 115
1, 866621, Note_off_c, 0, 37, 39
1, 866621, Control_c, 0, 64, 106
1, 866623, Note_on_c, 0, 44, 31
1, 866635, Note_on_c, 0, 65, 45
1, 866637, Control_c, 0, 64, 102
1, 866652, Control_c, 0, 64, 100
1, 866653, Note_on_c, 0, 60, 40
1, 866667, Control_c, 0, 64, 95
1, 866674, Note_on_c, 0, 56, 40
1, 866682, Control_c, 0, 64, 86
1, 866697, Control_c, 0, 64, 74
1, 866711, Control_c, 0, 64, 63
1, 866726, Control_c, 0, 64, 45
1, 866741, Control_c, 0, 64, 42
1, 866755, Control_c, 0, 64, 47
1, 866770, Control_c, 0, 64, 52
1, 866785, Control_c, 0, 64, 57
1, 866800, Control_c, 0, 64, 61
1, 866815, Control_c, 0, 64, 66
1, 866819, Note_off_c, 0, 56, 59
1, 866829, Control_c, 0, 64, 73
1, 866844, Control_c, 0, 64, 88
1, 866859, Control_c, 0, 64, 112
1, 866874, Control_c, 0, 64, 127
1, 866953, Note_on_c, 0, 63, 52
1, 866963, Note_on_c, 0, 37, 34
1, 866967, Note_on_c, 0, 54, 50
1, 866971, Note_off_c, 0, 44, 37
1, 867043, Note_off_c, 0, 65, 37
1, 867082, Note_off_c, 0, 54, 60
1, 867124, Note_off_c, 0, 60, 37
1, 867158, Note_off_c, 0, 37, 41
1, 867192, Note_on_c, 0, 61, 56
1, 867231, Note_on_c, 0, 53, 39
1, 867233, Note_on_c, 0, 44, 24
1, 867258, Note_off_c, 0, 63, 28
1, 867398, Note_off_c, 0, 44, 38
1, 867401, Note_off_c, 0, 61, 56
1, 867446, Note_off_c, 0, 53, 37
1, 867534, Control_c, 0, 64, 122
1, 867549, Control_c, 0, 64, 114
1, 867564, Control_c, 0, 64, 108
1, 867578, Control_c, 0, 64, 102
1, 867593, Control_c, 0, 64, 95
1, 867608, Control_c, 0, 64, 89
1, 867609, Note_on_c, 0, 61, 44
1, 867619, Note_on_c, 0, 53, 30
1, 867623, Control_c, 0, 64, 84
1, 867638, Control_c, 0, 64, 80
1, 867652, Control_c, 0, 64, 77
1, 867667, Control_c, 0, 64, 72
1, 867690, Control_c, 0, 64, 66
1, 867705, Control_c, 0, 64, 62
1, 867720, Control_c, 0, 64, 60
1, 867734, Control_c, 0, 64, 59
1, 867749, Control_c, 0, 64, 56
1, 867764, Control_c, 0, 64, 51
1, 867778, Control_c, 0, 64, 45
1, 867793, Control_c, 0, 64, 41
1, 867808, Control_c, 0, 64, 41
1, 867823, Control_c, 0, 64, 43
1, 867838, Control_c, 0, 64, 48
1, 867853, Control_c, 0, 64, 53
1, 867867, Control_c, 0, 64, 58
1, 867882, Control_c, 0, 64, 62
1, 867897, Control_c, 0, 64, 67
1, 867912, Control_c, 0, 64, 73
1, 867927, Control_c, 0, 64, 86
1, 867932, Note_off_c, 0, 53, 42
1, 867941, Control_c, 0, 64, 115
1, 867956, Control_c, 0, 64, 127
1, 867981, Note_on_c, 0, 44, 25
1, 868118, Note_off_c, 0, 44, 35
1, 868203, Note_on_c, 0, 37, 28
1, 868385, Note_off_c, 0, 37, 36
1, 868416, Note_on_c, 0, 44, 26
1, 868598, Note_off_c, 0, 44, 40
1, 868645, Control_c, 0, 67, 14
1, 868647, Note_on_c, 0, 37, 21
1, 868660, Control_c, 0, 67, 21
1, 868674, Control_c, 0, 67, 27
1, 868689, Control_c, 0, 67, 36
1, 868704, Control_c, 0, 67, 46
1, 868719, Control_c, 0, 67, 54
1, 868733, Control_c, 0, 67, 62
1, 868748, Control_c, 0, 67, 69
1, 868763, Control_c, 0, 67, 76
1, 868778, Control_c, 0, 67, 83
1, 868781, Note_off_c, 0, 37, 30
1, 868793, Control_c, 0, 67, 91
1, 868808, Control_c, 0, 67, 97
1, 868823, Control_c, 0, 67, 104
1, 868837, Control_c, 0, 67, 111
1, 868852, Control_c, 0, 67, 119
1, 868858, Note_on_c, 0, 44, 29
1, 868867, Control_c, 0, 67, 125
1, 868882, Control_c, 0, 67, 127
1, 868924, Note_off_c, 0, 61, 20
1, 868949, Note_off_c, 0, 44, 37
1, 869070, Note_on_c, 0, 53, 35
1, 869122, Note_off_c, 0, 53, 44
1, 869300, Note_on_c, 0, 44, 23
1, 869437, Note_off_c, 0, 44, 36
1, 869490, Note_on_c, 0, 37, 31
1, 869675, Note_off_c, 0, 37, 41
1, 869707, Note_on_c, 0, 44, 25
1, 869893, Note_off_c, 0, 44, 37
1, 869952, Note_on_c, 0, 37, 17
1, 870147, Note_off_c, 0, 37, 38
1, 870211, Note_on_c, 0, 44, 13
1, 870389, Note_off_c, 0, 44, 36
1, 870609, Note_on_c, 0, 65, 36
1, 870611, Note_on_c, 0, 53, 22
1, 870617, Note_on_c, 0, 61, 35
1, 870811, Note_off_c, 0, 53, 40
1, 870957, Note_off_c, 0, 61, 41
1, 870996, Note_off_c, 0, 65, 38
1, 870998, Note_on_c, 0, 44, 21
1, 871151, Note_off_c, 0, 44, 38
1, 871202, Note_on_c, 0, 37, 27
1, 871354, Note_on_c, 0, 68, 54
1, 871366, Note_on_c, 0, 65, 42
1, 871371, Note_on_c, 0, 60, 42
1, 871389, Note_on_c, 0, 44, 31
1, 871393, Note_off_c, 0, 37, 40
1, 871580, Note_on_c, 0, 37, 26
1, 871583, Note_off_c, 0, 44, 39
1, 871618, Note_off_c, 0, 65, 59
1, 871687, Note_off_c, 0, 60, 47
1, 871707, Note_off_c, 0, 37, 34
1, 871788, Note_on_c, 0, 44, 32
1, 872020, Note_on_c, 0, 70, 53
1, 872025, Note_off_c, 0, 68, 51
1, 872045, Note_on_c, 0, 66, 36
1, 872048, Note_on_c, 0, 54, 35
1, 872058, Note_on_c, 0, 59, 43
1, 872058, Note_on_c, 0, 63, 36
1, 872086, Control_c, 0, 64, 125
1, 872100, Control_c, 0, 64, 105
1, 872115, Control_c, 0, 64, 93
1, 872130, Control_c, 0, 64, 82
1, 872144, Control_c, 0, 64, 70
1, 872159, Control_c, 0, 64, 61
1, 872161, Note_off_c, 0, 44, 34
1, 872182, Control_c, 0, 64, 44
1, 872197, Control_c, 0, 64, 0
1, 872286, Control_c, 0, 64, 47
1, 872301, Control_c, 0, 64, 62
1, 872316, Control_c, 0, 64, 71
1, 872331, Control_c, 0, 64, 90
1, 872334, Note_on_c, 0, 44, 36
1, 872346, Control_c, 0, 64, 127
1, 872351, Note_off_c, 0, 54, 48
1, 872438, Note_off_c, 0, 66, 39
1, 872496, Note_off_c, 0, 59, 37
1, 872502, Note_off_c, 0, 70, 50
1, 872508, Note_off_c, 0, 44, 41
1, 872549, Note_on_c, 0, 37, 34
1, 872663, Note_off_c, 0, 63, 35
1, 872745, Note_off_c, 0, 37, 41
1, 872748, Note_on_c, 0, 44, 29
1, 872750, Note_on_c, 0, 68, 47
1, 872753, Note_on_c, 0, 60, 34
1, 872755, Note_on_c, 0, 65, 34
1, 872760, Control_c, 0, 64, 113
1, 872775, Control_c, 0, 64, 98
1, 872790, Control_c, 0, 64, 88
1, 872805, Control_c, 0, 64, 78
1, 872820, Control_c, 0, 64, 71
1, 872835, Control_c, 0, 64, 65
1, 872849, Control_c, 0, 64, 63
1, 872864, Control_c, 0, 64, 64
1, 872879, Control_c, 0, 64, 65
1, 872894, Control_c, 0, 64, 67
1, 872909, Control_c, 0, 64, 72
1, 872930, Control_c, 0, 64, 80
1, 872945, Control_c, 0, 64, 95
1, 872960, Control_c, 0, 64, 127
1, 872979, Note_off_c, 0, 44, 36
1, 872992, Note_on_c, 0, 66, 56
1, 873011, Note_on_c, 0, 37, 28
1, 873011, Note_on_c, 0, 63, 55
1, 873023, Note_off_c, 0, 65, 35
1, 873050, Note_off_c, 0, 60, 36
1, 873073, Note_off_c, 0, 68, 37
1, 873092, Note_off_c, 0, 37, 49
1, 873196, Note_on_c, 0, 65, 64
1, 873213, Note_on_c, 0, 44, 36
1, 873221, Note_on_c, 0, 61, 56
1, 873223, Note_off_c, 0, 66, 54
1, 873224, Note_off_c, 0, 63, 51
1, 873341, Note_off_c, 0, 61, 55
1, 873357, Note_off_c, 0, 65, 57
1, 873380, Note_off_c, 0, 44, 29
1, 873420, Control_c, 0, 64, 112
1, 873435, Control_c, 0, 64, 103
1, 873450, Control_c, 0, 64, 97
1, 873465, Control_c, 0, 64, 90
1, 873466, Note_on_c, 0, 53, 33
1, 873479, Control_c, 0, 64, 84
1, 873490, Note_on_c, 0, 65, 55
1, 873494, Control_c, 0, 64, 75
1, 873503, Note_on_c, 0, 61, 44
1, 873509, Control_c, 0, 64, 66
1, 873524, Control_c, 0, 64, 53
1, 873539, Control_c, 0, 64, 32
1, 873553, Control_c, 0, 64, 29
1, 873568, Control_c, 0, 64, 31
1, 873583, Control_c, 0, 64, 38
1, 873598, Control_c, 0, 64, 48
1, 873613, Control_c, 0, 64, 58
1, 873628, Control_c, 0, 64, 64
1, 873643, Control_c, 0, 64, 71
1, 873658, Control_c, 0, 64, 81
1, 873679, Control_c, 0, 64, 99
1, 873694, Note_off_c, 0, 61, 58
1, 873694, Control_c, 0, 64, 127
1, 873708, Note_off_c, 0, 53, 40
1, 873729, Note_off_c, 0, 65, 59
1, 873854, Note_on_c, 0, 44, 24
1, 873991, Note_off_c, 0, 44, 32
1, 874047, Note_on_c, 0, 73, 40
1, 874074, Note_on_c, 0, 37, 27
1, 874096, Note_off_c, 0, 73, 54
1, 874242, Note_on_c, 0, 80, 52
1, 874261, Note_on_c, 0, 77, 41
1, 874266, Note_off_c, 0, 37, 40
1, 874273, Note_on_c, 0, 44, 30
1, 874299, Note_off_c, 0, 77, 57
1, 874312, Note_off_c, 0, 80, 56
1, 874442, Note_on_c, 0, 82, 59
1, 874457, Note_off_c, 0, 44, 38
1, 874468, Note_on_c, 0, 73, 37
1, 874477, Note_on_c, 0, 37, 17
1, 874504, Note_off_c, 0, 73, 52
1, 874506, Note_off_c, 0, 82, 57
1, 874545, Note_off_c, 0, 37, 45
1, 874638, Note_on_c, 0, 80, 57
1, 874654, Note_on_c, 0, 44, 31
1, 874655, Note_on_c, 0, 77, 48
1, 874701, Note_off_c, 0, 77, 57
1, 874715, Note_off_c, 0, 80, 58
1, 874796, Note_off_c, 0, 44, 32
1, 874862, Note_on_c, 0, 80, 40
1, 874877, Note_on_c, 0, 77, 43
1, 874878, Note_on_c, 0, 53, 32
1, 874942, Note_off_c, 0, 53, 46
1, 875101, Note_on_c, 0, 44, 17
1, 875175, Note_off_c, 0, 77, 31
1, 875216, Note_off_c, 0, 44, 35
1, 875231, Note_off_c, 0, 80, 40
1, 875284, Note_on_c, 0, 37, 29
1, 875487, Note_on_c, 0, 44, 33
1, 875487, Note_off_c, 0, 37, 40
1, 875682, Note_off_c, 0, 44, 38
1, 875705, Note_on_c, 0, 37, 27
1, 875861, Note_off_c, 0, 37, 33
1, 875947, Note_on_c, 0, 44, 27
1, 876034, Note_off_c, 0, 44, 38
1, 876271, Note_on_c, 0, 53, 48
1, 876303, Note_on_c, 0, 61, 43
1, 876323, Note_on_c, 0, 56, 36
1, 876576, Note_off_c, 0, 53, 52
1, 876601, Note_off_c, 0, 61, 34
1, 876614, Note_off_c, 0, 56, 41
1, 876653, Note_on_c, 0, 44, 33
1, 876830, Note_on_c, 0, 37, 46
1, 876838, Note_off_c, 0, 44, 40
1, 877038, Note_on_c, 0, 65, 62
1, 877049, Note_on_c, 0, 44, 39
1, 877049, Note_on_c, 0, 61, 50
1, 877050, Note_on_c, 0, 57, 67
1, 877080, Note_off_c, 0, 37, 32
1, 877091, Control_c, 0, 64, 109
1, 877106, Control_c, 0, 64, 99
1, 877120, Control_c, 0, 64, 93
1, 877135, Control_c, 0, 64, 88
1, 877150, Control_c, 0, 64, 84
1, 877165, Control_c, 0, 64, 78
1, 877180, Control_c, 0, 64, 70
1, 877194, Control_c, 0, 64, 63
1, 877209, Control_c, 0, 64, 56
1, 877238, Control_c, 0, 64, 58
1, 877253, Control_c, 0, 64, 58
1, 877268, Control_c, 0, 64, 60
1, 877276, Note_off_c, 0, 44, 41
1, 877283, Control_c, 0, 64, 61
1, 877288, Note_on_c, 0, 37, 27
1, 877298, Control_c, 0, 64, 64
1, 877312, Control_c, 0, 64, 67
1, 877327, Control_c, 0, 64, 71
1, 877342, Control_c, 0, 64, 78
1, 877357, Control_c, 0, 64, 86
1, 877372, Control_c, 0, 64, 98
1, 877387, Control_c, 0, 64, 109
1, 877387, Note_off_c, 0, 65, 54
1, 877402, Control_c, 0, 64, 127
1, 877419, Note_off_c, 0, 37, 34
1, 877549, Note_off_c, 0, 57, 50
1, 877554, Note_on_c, 0, 44, 27
1, 877709, Note_off_c, 0, 44, 27
1, 877741, Note_off_c, 0, 61, 37
1, 877884, Control_c, 0, 64, 125
1, 877899, Control_c, 0, 64, 119
1, 877914, Control_c, 0, 64, 115
1, 877929, Control_c, 0, 64, 111
1, 877943, Control_c, 0, 64, 108
1, 877958, Note_on_c, 0, 54, 32
1, 877958, Control_c, 0, 64, 104
1, 877973, Control_c, 0, 64, 100
1, 877988, Control_c, 0, 64, 95
1, 877992, Note_on_c, 0, 66, 33
1, 878003, Control_c, 0, 64, 91
1, 878011, Note_on_c, 0, 58, 39
1, 878013, Note_on_c, 0, 60, 31
1, 878017, Control_c, 0, 64, 87
1, 878032, Control_c, 0, 64, 83
1, 878047, Control_c, 0, 64, 79
1, 878061, Control_c, 0, 64, 76
1, 878076, Control_c, 0, 64, 73
1, 878091, Control_c, 0, 64, 71
1, 878106, Control_c, 0, 64, 68
1, 878121, Control_c, 0, 64, 65
1, 878135, Control_c, 0, 64, 63
1, 878150, Control_c, 0, 64, 59
1, 878173, Control_c, 0, 64, 54
1, 878188, Control_c, 0, 64, 44
1, 878203, Control_c, 0, 64, 29
1, 878217, Control_c, 0, 64, 20
1, 878247, Control_c, 0, 64, 27
1, 878262, Control_c, 0, 64, 39
1, 878276, Control_c, 0, 64, 50
1, 878291, Control_c, 0, 64, 60
1, 878306, Control_c, 0, 64, 65
1, 878321, Control_c, 0, 64, 69
1, 878336, Control_c, 0, 64, 75
1, 878350, Control_c, 0, 64, 84
1, 878365, Control_c, 0, 64, 95
1, 878380, Control_c, 0, 64, 110
1, 878395, Control_c, 0, 64, 127
1, 878458, Note_off_c, 0, 54, 42
1, 878471, Note_off_c, 0, 60, 30
1, 878522, Note_off_c, 0, 58, 33
1, 878525, Note_off_c, 0, 66, 35
1, 878537, Note_on_c, 0, 44, 25
1, 878704, Note_off_c, 0, 44, 29
1, 878755, Note_on_c, 0, 37, 28
1, 879002, Note_on_c, 0, 44, 31
1, 879005, Note_on_c, 0, 65, 34
1, 879009, Note_on_c, 0, 56, 35
1, 879020, Note_on_c, 0, 60, 22
1, 879023, Note_off_c, 0, 37, 37
1, 879119, Note_off_c, 0, 56, 45
1, 879266, Note_off_c, 0, 44, 34
1, 879282, Note_on_c, 0, 54, 44
1, 879289, Note_on_c, 0, 63, 38
1, 879297, Note_off_c, 0, 60, 39
1, 879303, Note_on_c, 0, 37, 29
1, 879330, Note_off_c, 0, 65, 37
1, 879372, Note_off_c, 0, 54, 61
1, 879465, Note_off_c, 0, 37, 33
1, 879484, Note_off_c, 0, 63, 40
1, 879505, Note_on_c, 0, 61, 48
1, 879515, Note_on_c, 0, 53, 46
1, 879542, Note_on_c, 0, 44, 25
1, 879649, Note_off_c, 0, 61, 49
1, 879674, Note_off_c, 0, 53, 49
1, 879679, Note_off_c, 0, 44, 29
1, 879788, Control_c, 0, 64, 112
1, 879803, Control_c, 0, 64, 101
1, 879818, Control_c, 0, 64, 92
1, 879833, Control_c, 0, 64, 85
1, 879845, Note_on_c, 0, 61, 40
1, 879847, Control_c, 0, 64, 80
1, 879862, Control_c, 0, 64, 77
1, 879868, Note_on_c, 0, 53, 24
1, 879877, Control_c, 0, 64, 73
1, 879892, Control_c, 0, 64, 66
1, 879907, Control_c, 0, 64, 58
1, 879921, Control_c, 0, 64, 44
1, 879936, Control_c, 0, 64, 38
1, 879981, Control_c, 0, 64, 41
1, 879995, Control_c, 0, 64, 47
1, 880010, Control_c, 0, 64, 54
1, 880025, Control_c, 0, 64, 60
1, 880040, Control_c, 0, 64, 64
1, 880055, Control_c, 0, 64, 67
1, 880070, Control_c, 0, 64, 73
1, 880084, Control_c, 0, 64, 80
1, 880099, Control_c, 0, 64, 92
1, 880114, Control_c, 0, 64, 110
1, 880129, Control_c, 0, 64, 127
1, 880162, Note_off_c, 0, 53, 38
1, 880214, Note_off_c, 0, 61, 35
1, 880311, Note_on_c, 0, 44, 21
1, 880514, Note_off_c, 0, 44, 37
1, 880538, Note_on_c, 0, 61, 33
1, 880560, Note_on_c, 0, 37, 25
1, 880735, Note_off_c, 0, 61, 39
1, 880758, Note_off_c, 0, 37, 39
1, 880767, Note_on_c, 0, 68, 34
1, 880777, Note_on_c, 0, 65, 33
1, 880787, Note_on_c, 0, 44, 21
1, 880972, Note_off_c, 0, 44, 37
1, 880979, Note_on_c, 0, 70, 45
1, 880998, Note_on_c, 0, 37, 28
1, 880998, Note_off_c, 0, 65, 36
1, 881003, Note_on_c, 0, 61, 36
1, 881044, Note_off_c, 0, 68, 36
1, 881076, Note_off_c, 0, 37, 42
1, 881183, Note_on_c, 0, 68, 50
1, 881196, Note_on_c, 0, 44, 35
1, 881212, Note_on_c, 0, 65, 38
1, 881281, Note_off_c, 0, 65, 56
1, 881288, Note_off_c, 0, 68, 53
1, 881327, Note_off_c, 0, 44, 35
1, 881413, Note_off_c, 0, 70, 40
1, 881414, Note_on_c, 0, 68, 41
1, 881428, Note_on_c, 0, 65, 43
1, 881435, Note_on_c, 0, 53, 34
1, 881463, Note_off_c, 0, 61, 36
1, 881497, Note_off_c, 0, 68, 52
1, 881503, Note_off_c, 0, 65, 50
1, 881600, Note_off_c, 0, 53, 38
1, 881660, Note_on_c, 0, 44, 42
1, 881876, Note_on_c, 0, 56, 66
1, 881937, Note_on_c, 0, 37, 37
1, 881945, Note_off_c, 0, 44, 38
1, 882158, Note_on_c, 0, 51, 77
1, 882181, Note_on_c, 0, 44, 38
1, 882225, Note_off_c, 0, 37, 38
1, 882311, Poly_aftertouch_c, 0, 53, 127
1, 882423, Poly_aftertouch_c, 0, 53, 0
1, 882470, Note_on_c, 0, 37, 46
1, 882511, Note_off_c, 0, 44, 37
1, 882517, Note_off_c, 0, 56, 21
1, 882618, Note_off_c, 0, 37, 36
1, 882841, Note_on_c, 0, 49, 74
1, 882869, Note_on_c, 0, 44, 33
1, 882928, Note_off_c, 0, 51, 59
1, 883123, Note_off_c, 0, 44, 34
1, 883244, Note_off_c, 0, 49, 57
1, 883355, Note_on_c, 0, 53, 41
1, 883382, Note_on_c, 0, 49, 63
1, 883392, Control_c, 0, 64, 111
1, 883393, Note_on_c, 0, 56, 54
1, 883415, Control_c, 0, 64, 102
1, 883430, Control_c, 0, 64, 94
1, 883444, Control_c, 0, 64, 87
1, 883459, Control_c, 0, 64, 79
1, 883474, Control_c, 0, 64, 75
1, 883489, Control_c, 0, 64, 72
1, 883504, Control_c, 0, 64, 70
1, 883518, Control_c, 0, 64, 65
1, 883533, Control_c, 0, 64, 59
1, 883548, Control_c, 0, 64, 44
1, 883563, Control_c, 0, 64, 29
1, 883578, Control_c, 0, 64, 28
1, 883607, Control_c, 0, 64, 31
1, 883622, Control_c, 0, 64, 38
1, 883636, Control_c, 0, 64, 46
1, 883651, Control_c, 0, 64, 56
1, 883666, Control_c, 0, 64, 62
1, 883680, Control_c, 0, 64, 65
1, 883695, Control_c, 0, 64, 68
1, 883710, Control_c, 0, 64, 75
1, 883725, Control_c, 0, 64, 85
1, 883740, Control_c, 0, 64, 103
1, 883754, Control_c, 0, 64, 127
1, 883887, Note_off_c, 0, 53, 41
1, 883905, Note_on_c, 0, 44, 33
1, 884118, Note_on_c, 0, 37, 48
1, 884138, Note_off_c, 0, 44, 37
1, 884326, Note_on_c, 0, 44, 46
1, 884362, Note_off_c, 0, 37, 34
1, 884551, Note_on_c, 0, 37, 45
1, 884577, Note_off_c, 0, 44, 34
1, 884774, Note_on_c, 0, 44, 37
1, 884897, Note_off_c, 0, 37, 34
1, 885007, Note_off_c, 0, 44, 35
1, 885077, Note_on_c, 0, 52, 52
1, 885105, Control_c, 0, 64, 113
1, 885120, Control_c, 0, 64, 107
1, 885134, Control_c, 0, 64, 102
1, 885149, Control_c, 0, 64, 98
1, 885164, Control_c, 0, 64, 93
1, 885179, Control_c, 0, 64, 90
1, 885194, Control_c, 0, 64, 86
1, 885209, Control_c, 0, 64, 84
1, 885224, Control_c, 0, 64, 82
1, 885238, Control_c, 0, 64, 80
1, 885253, Control_c, 0, 64, 78
1, 885268, Control_c, 0, 64, 75
1, 885283, Control_c, 0, 64, 73
1, 885298, Control_c, 0, 64, 72
1, 885313, Control_c, 0, 64, 71
1, 885327, Control_c, 0, 64, 70
1, 885342, Control_c, 0, 64, 69
1, 885357, Control_c, 0, 64, 68
1, 885372, Control_c, 0, 64, 67
1, 885387, Control_c, 0, 64, 66
1, 885401, Control_c, 0, 64, 65
1, 885416, Control_c, 0, 64, 64
1, 885431, Control_c, 0, 64, 62
1, 885446, Control_c, 0, 64, 59
1, 885461, Control_c, 0, 64, 54
1, 885465, Note_on_c, 0, 44, 27
1, 885475, Control_c, 0, 64, 51
1, 885490, Control_c, 0, 64, 52
1, 885505, Control_c, 0, 64, 54
1, 885520, Control_c, 0, 64, 55
1, 885534, Control_c, 0, 64, 56
1, 885549, Control_c, 0, 64, 58
1, 885564, Control_c, 0, 64, 61
1, 885579, Control_c, 0, 64, 63
1, 885594, Control_c, 0, 64, 65
1, 885608, Control_c, 0, 64, 68
1, 885623, Control_c, 0, 64, 73
1, 885638, Control_c, 0, 64, 79
1, 885645, Note_off_c, 0, 44, 38
1, 885660, Control_c, 0, 64, 89
1, 885666, Note_on_c, 0, 37, 32
1, 885675, Control_c, 0, 64, 99
1, 885690, Control_c, 0, 64, 116
1, 885705, Control_c, 0, 64, 127
1, 885858, Note_off_c, 0, 52, 51
1, 885871, Note_off_c, 0, 37, 41
1, 885878, Note_on_c, 0, 44, 34
1, 886073, Note_off_c, 0, 44, 39
1, 886090, Note_on_c, 0, 37, 34
1, 886308, Note_on_c, 0, 44, 35
1, 886454, Control_c, 0, 64, 115
1, 886469, Control_c, 0, 64, 110
1, 886473, Note_off_c, 0, 37, 35
1, 886483, Control_c, 0, 64, 105
1, 886498, Control_c, 0, 64, 102
1, 886508, Note_on_c, 0, 53, 45
1, 886513, Control_c, 0, 64, 99
1, 886520, Note_off_c, 0, 44, 36
1, 886528, Control_c, 0, 64, 95
1, 886543, Control_c, 0, 64, 91
1, 886557, Control_c, 0, 64, 87
1, 886572, Control_c, 0, 64, 84
1, 886587, Control_c, 0, 64, 80
1, 886603, Control_c, 0, 64, 77
1, 886618, Control_c, 0, 64, 75
1, 886633, Control_c, 0, 64, 74
1, 886648, Control_c, 0, 64, 72
1, 886662, Control_c, 0, 64, 71
1, 886677, Control_c, 0, 64, 69
1, 886692, Control_c, 0, 64, 68
1, 886706, Control_c, 0, 64, 67
1, 886721, Control_c, 0, 64, 65
1, 886736, Control_c, 0, 64, 64
1, 886751, Control_c, 0, 64, 61
1, 886754, Note_on_c, 0, 44, 27
1, 886766, Control_c, 0, 64, 55
1, 886780, Control_c, 0, 64, 45
1, 886795, Control_c, 0, 64, 35
1, 886810, Control_c, 0, 64, 31
1, 886854, Control_c, 0, 64, 34
1, 886869, Control_c, 0, 64, 41
1, 886884, Control_c, 0, 64, 48
1, 886899, Control_c, 0, 64, 53
1, 886914, Control_c, 0, 64, 58
1, 886915, Note_off_c, 0, 44, 34
1, 886929, Control_c, 0, 64, 62
1, 886944, Control_c, 0, 64, 65
1, 886950, Note_on_c, 0, 37, 21
1, 886958, Control_c, 0, 64, 69
1, 886973, Control_c, 0, 64, 76
1, 886988, Control_c, 0, 64, 85
1, 887003, Control_c, 0, 64, 98
1, 887018, Control_c, 0, 64, 122
1, 887033, Control_c, 0, 64, 127
1, 887123, Note_off_c, 0, 37, 42
1, 887155, Note_on_c, 0, 44, 30
1, 887194, Note_off_c, 0, 53, 30
1, 887358, Note_off_c, 0, 44, 36
1, 887377, Note_on_c, 0, 37, 28
1, 887625, Note_on_c, 0, 44, 21
1, 887804, Note_off_c, 0, 44, 37
1, 887832, Note_on_c, 0, 53, 32
1, 888070, Note_off_c, 0, 37, 39
1, 888108, Note_on_c, 0, 44, 19
1, 888333, Note_off_c, 0, 44, 37
1, 888353, Note_on_c, 0, 37, 19
1, 888422, Note_off_c, 0, 53, 35
1, 888608, Note_off_c, 0, 37, 40
1, 888628, Note_on_c, 0, 44, 20
1, 888959, Note_on_c, 0, 37, 28
1, 888963, Note_off_c, 0, 44, 29
1, 889450, Note_on_c, 0, 44, 33
1, 890545, Note_on_c, 0, 53, 33
1, 892056, Note_off_c, 0, 49, 27
1, 892362, Note_off_c, 0, 37, 30
1, 892567, Note_off_c, 0, 44, 35
1, 892676, Note_off_c, 0, 56, 31
1, 892839, Note_off_c, 0, 53, 29
1, 894001, Control_c, 0, 64, 125
1, 894016, Control_c, 0, 64, 120
1, 894031, Control_c, 0, 64, 117
1, 894045, Control_c, 0, 64, 115
1, 894060, Control_c, 0, 64, 115
1, 894074, Control_c, 0, 64, 114
1, 894089, Control_c, 0, 64, 113
1, 894104, Control_c, 0, 64, 112
1, 894119, Control_c, 0, 64, 110
1, 894133, Control_c, 0, 64, 108
1, 894148, Control_c, 0, 64, 108
1, 894163, Control_c, 0, 64, 107
1, 894178, Control_c, 0, 64, 107
1, 894193, Control_c, 0, 64, 105
1, 894208, Control_c, 0, 64, 103
1, 894223, Control_c, 0, 64, 102
1, 894237, Control_c, 0, 64, 101
1, 894252, Control_c, 0, 64, 100
1, 894267, Control_c, 0, 64, 99
1, 894282, Control_c, 0, 64, 98
1, 894297, Control_c, 0, 64, 97
1, 894311, Control_c, 0, 64, 96
1, 894326, Control_c, 0, 64, 95
1, 894341, Control_c, 0, 64, 94
1, 894356, Control_c, 0, 64, 94
1, 894370, Control_c, 0, 64, 93
1, 894385, Control_c, 0, 64, 92
1, 894400, Control_c, 0, 64, 91
1, 894415, Control_c, 0, 64, 90
1, 894444, Control_c, 0, 64, 90
1, 894459, Control_c, 0, 64, 89
1, 894474, Control_c, 0, 64, 89
1, 894488, Control_c, 0, 64, 88
1, 894503, Control_c, 0, 64, 87
1, 894518, Control_c, 0, 64, 87
1, 894548, Control_c, 0, 64, 86
1, 894563, Control_c, 0, 64, 86
1, 894578, Control_c, 0, 64, 85
1, 894593, Control_c, 0, 64, 84
1, 894608, Control_c, 0, 64, 84
1, 894646, Control_c, 0, 64, 83
1, 894661, Control_c, 0, 64, 82
1, 894675, Control_c, 0, 64, 82
1, 894690, Control_c, 0, 64, 81
1, 894705, Control_c, 0, 64, 80
1, 894720, Control_c, 0, 64, 80
1, 894735, Control_c, 0, 64, 79
1, 894749, Control_c, 0, 64, 78
1, 894764, Control_c, 0, 64, 78
1, 894779, Control_c, 0, 64, 77
1, 894793, Control_c, 0, 64, 77
1, 894808, Control_c, 0, 64, 76
1, 894823, Control_c, 0, 64, 76
1, 894838, Control_c, 0, 64, 75
1, 894853, Control_c, 0, 64, 75
1, 894882, Control_c, 0, 64, 74
1, 894897, Control_c, 0, 64, 73
1, 894912, Control_c, 0, 64, 73
1, 894927, Control_c, 0, 64, 72
1, 894956, Control_c, 0, 64, 72
1, 894986, Control_c, 0, 64, 71
1, 895001, Control_c, 0, 64, 71
1, 895016, Control_c, 0, 64, 70
1, 895046, Control_c, 0, 64, 70
1, 895060, Control_c, 0, 64, 69
1, 895075, Control_c, 0, 64, 69
1, 895105, Control_c, 0, 64, 68
1, 895149, Control_c, 0, 64, 68
1, 895164, Control_c, 0, 64, 67
1, 895193, Control_c, 0, 64, 67
1, 895223, Control_c, 0, 64, 66
1, 895238, Control_c, 0, 64, 66
1, 895282, Control_c, 0, 64, 65
1, 895311, Control_c, 0, 64, 65
1, 895341, Control_c, 0, 64, 64
1, 895371, Control_c, 0, 64, 64
1, 895409, Control_c, 0, 64, 63
1, 895454, Control_c, 0, 64, 63
1, 895498, Control_c, 0, 64, 62
1, 895528, Control_c, 0, 64, 62
1, 895558, Control_c, 0, 64, 61
1, 895588, Control_c, 0, 64, 61
1, 895632, Control_c, 0, 64, 60
1, 895662, Control_c, 0, 64, 60
1, 895691, Control_c, 0, 64, 59
1, 895706, Control_c, 0, 64, 59
1, 895721, Control_c, 0, 64, 58
1, 895750, Control_c, 0, 64, 58
1, 895780, Control_c, 0, 64, 57
1, 895795, Control_c, 0, 64, 57
1, 895809, Control_c, 0, 64, 56
1, 895824, Control_c, 0, 64, 56
1, 895839, Control_c, 0, 64, 55
1, 895854, Control_c, 0, 64, 55
1, 895869, Control_c, 0, 64, 54
1, 895898, Control_c, 0, 64, 54
1, 895928, Control_c, 0, 64, 53
1, 895943, Control_c, 0, 64, 53
1, 895958, Control_c, 0, 64, 52
1, 895973, Control_c, 0, 64, 52
1, 895988, Control_c, 0, 64, 51
1, 896002, Control_c, 0, 64, 51
1, 896047, Control_c, 0, 64, 50
1, 896062, Control_c, 0, 64, 49
1, 896077, Control_c, 0, 64, 48
1, 896091, Control_c, 0, 64, 48
1, 896106, Control_c, 0, 64, 47
1, 896121, Control_c, 0, 64, 46
1, 896143, Control_c, 0, 64, 44
1, 896157, Control_c, 0, 64, 43
1, 896172, Control_c, 0, 64, 42
1, 896188, Control_c, 0, 64, 41
1, 896203, Control_c, 0, 64, 40
1, 896218, Control_c, 0, 64, 38
1, 896233, Control_c, 0, 64, 36
1, 896247, Control_c, 0, 64, 34
1, 896262, Control_c, 0, 64, 33
1, 896277, Control_c, 0, 64, 33
1, 896292, Control_c, 0, 64, 32
1, 896307, Control_c, 0, 64, 31
1, 896321, Control_c, 0, 64, 31
1, 896336, Control_c, 0, 64, 30
1, 896351, Control_c, 0, 64, 30
1, 896396, Control_c, 0, 64, 29
1, 896411, Control_c, 0, 64, 28
1, 896426, Control_c, 0, 64, 28
1, 896440, Control_c, 0, 64, 27
1, 896455, Control_c, 0, 64, 26
1, 896470, Control_c, 0, 64, 25
1, 896485, Control_c, 0, 64, 23
1, 896500, Control_c, 0, 64, 21
1, 896514, Control_c, 0, 64, 19
1, 896529, Control_c, 0, 64, 17
1, 896544, Control_c, 0, 64, 13
1, 896558, Control_c, 0, 64, 0
1, 897041, Control_c, 0, 67, 117
1, 897056, Control_c, 0, 67, 100
1, 897070, Control_c, 0, 67, 69
1, 897085, Control_c, 0, 67, 33
1, 897100, Control_c, 0, 67, 0
1, 897612, Note_on_c, 0, 36, 99
1, 897618, Note_on_c, 0, 24, 96
1, 897670, Control_c, 0, 64, 39
1, 897685, Control_c, 0, 64, 54
1, 897700, Control_c, 0, 64, 63
1, 897715, Control_c, 0, 64, 71
1, 897730, Control_c, 0, 64, 96
1, 897744, Control_c, 0, 64, 127
1, 897761, Note_off_c, 0, 24, 61
1, 897818, Note_off_c, 0, 36, 64
1, 897987, Note_on_c, 0, 60, 48
1, 898020, Note_on_c, 0, 48, 49
1, 898050, Note_off_c, 0, 60, 63
1, 898068, Note_off_c, 0, 48, 60
1, 898089, Note_on_c, 0, 64, 50
1, 898100, Note_on_c, 0, 52, 50
1, 898133, Note_off_c, 0, 64, 58
1, 898150, Note_off_c, 0, 52, 58
1, 898162, Note_on_c, 0, 60, 47
1, 898173, Note_on_c, 0, 48, 54
1, 898268, Note_on_c, 0, 43, 56
1, 898276, Note_off_c, 0, 48, 57
1, 898278, Note_on_c, 0, 55, 70
1, 898283, Note_off_c, 0, 60, 60
1, 898407, Note_on_c, 0, 48, 50
1, 898424, Note_on_c, 0, 60, 55
1, 898483, Note_off_c, 0, 60, 63
1, 898491, Note_off_c, 0, 48, 58
1, 898497, Note_on_c, 0, 52, 51
1, 898500, Note_off_c, 0, 55, 59
1, 898501, Note_on_c, 0, 64, 57
1, 898550, Note_on_c, 0, 48, 34
1, 898569, Note_off_c, 0, 52, 56
1, 898585, Note_on_c, 0, 60, 56
1, 898590, Note_off_c, 0, 64, 56
1, 898675, Note_on_c, 0, 47, 60
1, 898685, Note_off_c, 0, 48, 59
1, 898703, Note_on_c, 0, 59, 80
1, 898730, Note_off_c, 0, 60, 59
1, 898810, Note_on_c, 0, 48, 56
1, 898851, Note_on_c, 0, 60, 38
1, 898867, Note_off_c, 0, 48, 61
1, 898883, Note_off_c, 0, 60, 56
1, 898891, Note_on_c, 0, 52, 51
1, 898892, Note_on_c, 0, 64, 59
1, 898967, Note_on_c, 0, 60, 64
1, 898977, Note_on_c, 0, 48, 61
1, 898985, Note_off_c, 0, 59, 63
1, 898989, Note_off_c, 0, 43, 38
1, 898990, Note_off_c, 0, 52, 55
1, 899064, Note_on_c, 0, 57, 88
1, 899067, Note_off_c, 0, 48, 62
1, 899072, Note_on_c, 0, 45, 68
1, 899072, Note_off_c, 0, 60, 63
1, 899079, Note_off_c, 0, 64, 0
1, 899112, Note_off_c, 0, 47, 55
1, 899116, Poly_aftertouch_c, 0, 64, 127
1, 899158, Note_on_c, 0, 48, 60
1, 899162, Poly_aftertouch_c, 0, 64, 0
1, 899179, Note_on_c, 0, 60, 61
1, 899219, Note_off_c, 0, 48, 62
1, 899227, Note_off_c, 0, 60, 65
1, 899232, Note_on_c, 0, 52, 62
1, 899239, Note_on_c, 0, 64, 63
1, 899287, Note_off_c, 0, 57, 62
1, 899302, Note_on_c, 0, 48, 65
1, 899308, Note_off_c, 0, 52, 61
1, 899311, Note_off_c, 0, 64, 62
1, 899320, Note_on_c, 0, 60, 66
1, 899341, Note_off_c, 0, 45, 59
1, 899391, Note_on_c, 0, 56, 90
1, 899393, Note_off_c, 0, 48, 64
1, 899396, Note_on_c, 0, 44, 76
1, 899403, Note_off_c, 0, 60, 62
1, 899469, Note_on_c, 0, 48, 64
1, 899488, Note_on_c, 0, 60, 65
1, 899529, Note_off_c, 0, 48, 62
1, 899533, Note_on_c, 0, 52, 70
1, 899547, Note_off_c, 0, 60, 63
1, 899550, Note_off_c, 0, 44, 62
1, 899553, Note_on_c, 0, 64, 67
1, 899562, Note_off_c, 0, 56, 60
1, 899604, Note_on_c, 0, 48, 63
1, 899615, Note_on_c, 0, 60, 63
1, 899617, Poly_aftertouch_c, 0, 45, 127
1, 899624, Note_off_c, 0, 64, 60
1, 899628, Note_off_c, 0, 52, 56
1, 899645, Poly_aftertouch_c, 0, 45, 0
1, 899680, Note_on_c, 0, 43, 79
1, 899682, Note_off_c, 0, 48, 64
1, 899690, Note_on_c, 0, 55, 98
1, 899709, Note_off_c, 0, 60, 63
1, 899763, Note_on_c, 0, 48, 56
1, 899785, Note_on_c, 0, 60, 58
1, 899824, Note_on_c, 0, 52, 70
1, 899851, Note_off_c, 0, 60, 64
1, 899857, Note_on_c, 0, 64, 71
1, 899862, Note_off_c, 0, 52, 59
1, 899897, Note_off_c, 0, 43, 61
1, 899912, Note_off_c, 0, 55, 58
1, 899916, Note_off_c, 0, 48, 54
1, 899930, Note_off_c, 0, 64, 60
1, 899937, Note_on_c, 0, 60, 61
1, 900009, Note_on_c, 0, 36, 78
1, 900033, Note_on_c, 0, 54, 86
1, 900050, Note_off_c, 0, 60, 59
1, 900077, Note_on_c, 0, 42, 46
1, 900114, Note_off_c, 0, 36, 61
1, 900115, Note_off_c, 0, 42, 63
1, 900157, Note_on_c, 0, 60, 63
1, 900167, Note_off_c, 0, 54, 62
1, 900194, Note_off_c, 0, 60, 64
1, 900210, Note_on_c, 0, 64, 64
1, 900267, Note_on_c, 0, 60, 66
1, 900270, Note_on_c, 0, 48, 42
1, 900277, Note_off_c, 0, 64, 59
1, 900346, Note_off_c, 0, 48, 61
1, 900347, Note_on_c, 0, 43, 71
1, 900348, Note_off_c, 0, 60, 63
1, 900351, Note_on_c, 0, 55, 87
1, 900390, Control_c, 0, 64, 105
1, 900405, Control_c, 0, 64, 85
1, 900420, Control_c, 0, 64, 75
1, 900435, Control_c, 0, 64, 72
1, 900441, Note_on_c, 0, 60, 66
1, 900448, Note_on_c, 0, 48, 64
1, 900450, Control_c, 0, 64, 74
1, 900465, Control_c, 0, 64, 76
1, 900479, Control_c, 0, 64, 78
1, 900494, Control_c, 0, 64, 84
1, 900502, Note_off_c, 0, 60, 65
1, 900509, Control_c, 0, 64, 96
1, 900510, Note_off_c, 0, 48, 61
1, 900512, Note_on_c, 0, 64, 69
1, 900513, Note_on_c, 0, 52, 66
1, 900524, Control_c, 0, 64, 127
1, 900546, Note_off_c, 0, 55, 62
1, 900573, Note_on_c, 0, 48, 61
1, 900579, Note_on_c, 0, 60, 68
1, 900595, Note_off_c, 0, 64, 56
1, 900596, Note_off_c, 0, 52, 56
1, 900675, Note_on_c, 0, 47, 74
1, 900680, Note_on_c, 0, 59, 86
1, 900683, Note_off_c, 0, 60, 61
1, 900693, Note_off_c, 0, 48, 62
1, 900694, Control_c, 0, 64, 119
1, 900709, Control_c, 0, 64, 97
1, 900724, Control_c, 0, 64, 86
1, 900731, Note_off_c, 0, 43, 52
1, 900739, Control_c, 0, 64, 77
1, 900753, Control_c, 0, 64, 72
1, 900768, Control_c, 0, 64, 68
1, 900771, Note_on_c, 0, 60, 68
1, 900775, Note_on_c, 0, 48, 61
1, 900783, Control_c, 0, 64, 66
1, 900798, Control_c, 0, 64, 67
1, 900812, Control_c, 0, 64, 69
1, 900827, Control_c, 0, 64, 73
1, 900834, Note_off_c, 0, 60, 65
1, 900840, Note_off_c, 0, 48, 63
1, 900842, Control_c, 0, 64, 79
1, 900843, Note_on_c, 0, 64, 69
1, 900847, Note_on_c, 0, 52, 68
1, 900857, Control_c, 0, 64, 90
1, 900872, Control_c, 0, 64, 127
1, 900908, Note_on_c, 0, 60, 73
1, 900909, Note_off_c, 0, 59, 64
1, 900918, Note_on_c, 0, 48, 68
1, 900936, Note_off_c, 0, 52, 61
1, 900948, Note_off_c, 0, 64, 61
1, 900956, Poly_aftertouch_c, 0, 45, 0
1, 900987, Note_on_c, 0, 57, 94
1, 900990, Note_on_c, 0, 45, 66
1, 900995, Note_off_c, 0, 48, 64
1, 900999, Note_off_c, 0, 60, 62
1, 901021, Note_off_c, 0, 47, 61
1, 901069, Note_on_c, 0, 48, 69
1, 901074, Note_on_c, 0, 60, 73
1, 901097, Poly_aftertouch_c, 0, 64, 0
1, 901124, Note_off_c, 0, 48, 62
1, 901133, Note_on_c, 0, 64, 62
1, 901137, Note_on_c, 0, 52, 73
1, 901138, Note_off_c, 0, 60, 63
1, 901186, Note_off_c, 0, 57, 60
1, 901196, Note_on_c, 0, 48, 79
1, 901203, Note_off_c, 0, 52, 64
1, 901210, Note_on_c, 0, 60, 73
1, 901222, Note_off_c, 0, 64, 61
1, 901231, Note_off_c, 0, 45, 62
1, 901294, Note_on_c, 0, 44, 85
1, 901296, Note_on_c, 0, 56, 96
1, 901298, Note_off_c, 0, 48, 64
1, 901324, Note_off_c, 0, 60, 61
1, 901369, Note_on_c, 0, 48, 73
1, 901390, Note_on_c, 0, 60, 53
1, 901450, Note_off_c, 0, 48, 62
1, 901453, Note_off_c, 0, 60, 64
1, 901455, Note_on_c, 0, 52, 81
1, 901455, Note_on_c, 0, 64, 72
1, 901457, Note_off_c, 0, 56, 60
1, 901469, Note_off_c, 0, 44, 63
1, 901525, Note_on_c, 0, 60, 69
1, 901528, Note_off_c, 0, 64, 61
1, 901537, Note_off_c, 0, 52, 65
1, 901542, Note_on_c, 0, 48, 72
1, 901594, Note_on_c, 0, 43, 81
1, 901603, Note_off_c, 0, 48, 62
1, 901608, Note_on_c, 0, 55, 94
1, 901617, Note_off_c, 0, 60, 60
1, 901678, Note_on_c, 0, 48, 77
1, 901699, Note_on_c, 0, 60, 77
1, 901718, Note_off_c, 0, 55, 59
1, 901744, Note_on_c, 0, 64, 79
1, 901749, Note_off_c, 0, 48, 64
1, 901751, Note_off_c, 0, 60, 65
1, 901757, Note_on_c, 0, 52, 87
1, 901830, Note_off_c, 0, 64, 65
1, 901836, Note_on_c, 0, 60, 70
1, 901837, Note_off_c, 0, 52, 62
1, 901845, Note_on_c, 0, 48, 66
1, 901853, Note_off_c, 0, 60, 65
1, 901859, Note_off_c, 0, 43, 62
1, 901863, Note_off_c, 0, 48, 66
1, 902057, Note_on_c, 0, 36, 97
1, 902062, Note_on_c, 0, 24, 88
1, 902063, Note_on_c, 0, 76, 101
1, 902066, Note_on_c, 0, 64, 101
1, 902069, Note_on_c, 0, 67, 94
1, 902072, Note_on_c, 0, 72, 87
1, 902095, Control_c, 0, 64, 78
1, 902110, Control_c, 0, 64, 46
1, 902132, Control_c, 0, 64, 0
1, 902191, Control_c, 0, 64, 51
1, 902200, Note_off_c, 0, 24, 59
1, 902206, Control_c, 0, 64, 71
1, 902221, Control_c, 0, 64, 127
1, 902269, Note_off_c, 0, 76, 60
1, 902295, Note_off_c, 0, 72, 58
1, 902301, Note_off_c, 0, 67, 59
1, 902304, Note_off_c, 0, 36, 60
1, 902402, Note_off_c, 0, 64, 55
1, 902447, Note_on_c, 0, 48, 51
1, 902468, Note_on_c, 0, 60, 59
1, 902486, Note_off_c, 0, 48, 62
1, 902500, Note_off_c, 0, 60, 66
1, 902510, Note_on_c, 0, 52, 57
1, 902530, Note_on_c, 0, 64, 56
1, 902572, Note_on_c, 0, 60, 64
1, 902572, Note_off_c, 0, 52, 57
1, 902575, Note_on_c, 0, 48, 61
1, 902582, Note_off_c, 0, 64, 55
1, 902676, Note_on_c, 0, 43, 64
1, 902677, Note_off_c, 0, 48, 62
1, 902691, Note_off_c, 0, 60, 60
1, 902692, Note_on_c, 0, 55, 82
1, 902792, Note_on_c, 0, 48, 60
1, 902803, Note_on_c, 0, 60, 63
1, 902863, Note_off_c, 0, 48, 62
1, 902865, Note_off_c, 0, 60, 64
1, 902880, Note_on_c, 0, 52, 59
1, 902882, Note_on_c, 0, 64, 63
1, 902922, Note_off_c, 0, 55, 60
1, 902946, Note_on_c, 0, 60, 65
1, 902951, Note_on_c, 0, 48, 58
1, 902974, Note_off_c, 0, 52, 51
1, 902981, Note_off_c, 0, 64, 56
1, 903057, Note_on_c, 0, 47, 71
1, 903069, Note_on_c, 0, 59, 85
1, 903076, Note_off_c, 0, 48, 61
1, 903086, Note_off_c, 0, 60, 60
1, 903170, Note_on_c, 0, 60, 62
1, 903175, Note_on_c, 0, 48, 65
1, 903236, Note_off_c, 0, 60, 64
1, 903239, Note_on_c, 0, 64, 67
1, 903240, Note_off_c, 0, 48, 62
1, 903244, Note_on_c, 0, 52, 63
1, 903303, Note_off_c, 0, 43, 23
1, 903315, Note_on_c, 0, 60, 66
1, 903323, Note_off_c, 0, 59, 64
1, 903329, Note_on_c, 0, 48, 64
1, 903347, Note_off_c, 0, 52, 58
1, 903370, Note_off_c, 0, 64, 57
1, 903408, Note_on_c, 0, 57, 93
1, 903410, Note_on_c, 0, 45, 78
1, 903413, Note_off_c, 0, 48, 64
1, 903424, Note_off_c, 0, 60, 63
1, 903437, Note_off_c, 0, 47, 59
1, 903456, Note_on_c, 0, 64, 10
1, 903483, Note_on_c, 0, 48, 69
1, 903492, Note_off_c, 0, 64, 0
1, 903498, Note_on_c, 0, 60, 68
1, 903508, Poly_aftertouch_c, 0, 64, 0
1, 903544, Note_off_c, 0, 48, 62
1, 903553, Note_on_c, 0, 64, 62
1, 903555, Note_on_c, 0, 52, 71
1, 903559, Note_off_c, 0, 60, 62
1, 903586, Note_off_c, 0, 57, 61
1, 903630, Note_off_c, 0, 52, 62
1, 903631, Note_on_c, 0, 48, 73
1, 903640, Note_off_c, 0, 64, 61
1, 903641, Note_on_c, 0, 60, 65
1, 903655, Note_off_c, 0, 45, 60
1, 903713, Note_on_c, 0, 56, 99
1, 903717, Note_on_c, 0, 44, 82
1, 903718, Note_off_c, 0, 48, 63
1, 903730, Note_off_c, 0, 60, 65
1, 903792, Note_on_c, 0, 48, 62
1, 903816, Note_on_c, 0, 60, 51
1, 903825, Note_off_c, 0, 56, 59
1, 903851, Note_off_c, 0, 48, 63
1, 903857, Note_on_c, 0, 52, 70
1, 903860, Note_off_c, 0, 60, 65
1, 903865, Note_on_c, 0, 64, 70
1, 903875, Note_off_c, 0, 44, 61
1, 903932, Note_on_c, 0, 60, 79
1, 903933, Note_off_c, 0, 64, 62
1, 903938, Note_on_c, 0, 48, 67
1, 903940, Note_off_c, 0, 52, 63
1, 903993, Note_on_c, 0, 43, 80
1, 903995, Note_on_c, 0, 55, 100
1, 903999, Note_off_c, 0, 48, 64
1, 904003, Note_off_c, 0, 60, 59
1, 904070, Note_on_c, 0, 48, 68
1, 904089, Note_on_c, 0, 60, 77
1, 904125, Note_off_c, 0, 48, 61
1, 904139, Note_off_c, 0, 60, 66
1, 904144, Note_on_c, 0, 52, 75
1, 904145, Note_on_c, 0, 64, 79
1, 904184, Note_off_c, 0, 55, 56
1, 904190, Note_on_c, 0, 48, 70
1, 904198, Note_off_c, 0, 52, 65
1, 904201, Note_off_c, 0, 43, 61
1, 904206, Note_on_c, 0, 60, 82
1, 904227, Note_off_c, 0, 48, 63
1, 904235, Note_off_c, 0, 64, 61
1, 904251, Note_off_c, 0, 60, 65
1, 904334, Note_on_c, 0, 36, 78
1, 904356, Note_on_c, 0, 42, 72
1, 904358, Control_c, 0, 64, 83
1, 904379, Note_on_c, 0, 52, 92
1, 904379, Note_on_c, 0, 64, 85
1, 904380, Control_c, 0, 64, 58
1, 904382, Note_on_c, 0, 54, 85
1, 904395, Control_c, 0, 64, 0
1, 904399, Note_on_c, 0, 62, 63
1, 904400, Note_on_c, 0, 60, 58
1, 904403, Note_on_c, 0, 59, 56
1, 904439, Control_c, 0, 64, 35
1, 904453, Control_c, 0, 64, 64
1, 904468, Control_c, 0, 64, 87
1, 904483, Note_off_c, 0, 59, 56
1, 904483, Control_c, 0, 64, 127
1, 904491, Note_off_c, 0, 36, 58
1, 904501, Note_off_c, 0, 60, 57
1, 904502, Note_off_c, 0, 54, 63
1, 904502, Note_off_c, 0, 62, 23
1, 904524, Note_off_c, 0, 52, 59
1, 904532, Note_off_c, 0, 42, 62
1, 904579, Note_off_c, 0, 64, 60
1, 904589, Note_on_c, 0, 60, 48
1, 904622, Note_off_c, 0, 60, 61
1, 904704, Note_on_c, 0, 60, 54
1, 904707, Note_on_c, 0, 48, 16
1, 904726, Note_on_c, 0, 43, 62
1, 904743, Note_off_c, 0, 48, 42
1, 904745, Note_off_c, 0, 60, 58
1, 904750, Note_on_c, 0, 55, 82
1, 904788, Poly_aftertouch_c, 0, 64, 0
1, 904836, Note_on_c, 0, 48, 61
1, 904841, Note_on_c, 0, 60, 64
1, 904880, Note_off_c, 0, 48, 60
1, 904881, Note_off_c, 0, 55, 58
1, 904884, Note_off_c, 0, 60, 65
1, 904900, Note_on_c, 0, 52, 59
1, 904902, Note_on_c, 0, 64, 72
1, 904963, Note_off_c, 0, 52, 61
1, 904965, Note_on_c, 0, 60, 67
1, 904966, Note_off_c, 0, 64, 61
1, 904967, Note_on_c, 0, 48, 68
1, 905050, Note_on_c, 0, 47, 69
1, 905060, Note_on_c, 0, 59, 84
1, 905062, Note_off_c, 0, 48, 61
1, 905064, Note_off_c, 0, 60, 63
1, 905155, Note_off_c, 0, 43, 36
1, 905159, Note_on_c, 0, 60, 64
1, 905160, Note_on_c, 0, 48, 66
1, 905219, Note_off_c, 0, 60, 65
1, 905222, Note_off_c, 0, 48, 61
1, 905231, Note_on_c, 0, 64, 61
1, 905233, Note_on_c, 0, 52, 63
1, 905294, Note_on_c, 0, 60, 64
1, 905295, Note_off_c, 0, 59, 63
1, 905308, Note_on_c, 0, 48, 61
1, 905329, Note_off_c, 0, 52, 57
1, 905336, Note_off_c, 0, 64, 61
1, 905388, Note_on_c, 0, 57, 91
1, 905393, Note_on_c, 0, 45, 80
1, 905393, Note_off_c, 0, 48, 62
1, 905403, Note_off_c, 0, 60, 61
1, 905424, Note_off_c, 0, 47, 57
1, 905439, Control_c, 0, 64, 104
1, 905454, Control_c, 0, 64, 90
1, 905464, Note_on_c, 0, 48, 65
1, 905468, Control_c, 0, 64, 83
1, 905470, Poly_aftertouch_c, 0, 64, 127
1, 905477, Note_on_c, 0, 60, 65
1, 905483, Control_c, 0, 64, 84
1, 905498, Control_c, 0, 64, 90
1, 905512, Poly_aftertouch_c, 0, 64, 0
1, 905513, Control_c, 0, 64, 102
1, 905515, Note_off_c, 0, 48, 61
1, 905525, Note_on_c, 0, 64, 54
1, 905528, Control_c, 0, 64, 127
1, 905531, Note_on_c, 0, 52, 67
1, 905531, Note_off_c, 0, 60, 61
1, 905577, Note_off_c, 0, 57, 62
1, 905597, Note_on_c, 0, 48, 72
1, 905598, Note_off_c, 0, 52, 61
1, 905610, Note_on_c, 0, 60, 56
1, 905625, Note_off_c, 0, 64, 62
1, 905673, Note_off_c, 0, 48, 64
1, 905676, Note_on_c, 0, 44, 79
1, 905678, Note_on_c, 0, 56, 96
1, 905690, Control_c, 0, 64, 86
1, 905696, Note_off_c, 0, 60, 65
1, 905705, Control_c, 0, 64, 71
1, 905720, Control_c, 0, 64, 66
1, 905735, Control_c, 0, 64, 69
1, 905750, Control_c, 0, 64, 75
1, 905751, Note_on_c, 0, 48, 68
1, 905757, Note_off_c, 0, 45, 37
1, 905765, Control_c, 0, 64, 87
1, 905780, Control_c, 0, 64, 117
1, 905783, Note_on_c, 0, 60, 57
1, 905795, Control_c, 0, 64, 127
1, 905813, Note_off_c, 0, 60, 67
1, 905815, Note_off_c, 0, 48, 62
1, 905818, Note_on_c, 0, 52, 72
1, 905845, Note_on_c, 0, 64, 59
1, 905857, Note_off_c, 0, 44, 59
1, 905859, Note_off_c, 0, 56, 59
1, 905897, Note_off_c, 0, 64, 58
1, 905902, Note_off_c, 0, 52, 63
1, 905908, Note_on_c, 0, 48, 59
1, 905910, Note_on_c, 0, 60, 62
1, 905945, Note_off_c, 0, 60, 66
1, 905951, Control_c, 0, 64, 112
1, 905963, Note_on_c, 0, 43, 74
1, 905966, Control_c, 0, 64, 88
1, 905968, Note_off_c, 0, 48, 63
1, 905973, Note_on_c, 0, 55, 88
1, 905980, Control_c, 0, 64, 81
1, 905995, Control_c, 0, 64, 85
1, 906010, Control_c, 0, 64, 101
1, 906024, Control_c, 0, 64, 127
1, 906030, Note_on_c, 0, 48, 64
1, 906062, Note_on_c, 0, 60, 68
1, 906090, Note_off_c, 0, 48, 62
1, 906097, Note_on_c, 0, 52, 74
1, 906129, Note_on_c, 0, 64, 52
1, 906143, Note_off_c, 0, 55, 58
1, 906159, Note_on_c, 0, 48, 71
1, 906164, Note_off_c, 0, 52, 65
1, 906186, Note_off_c, 0, 60, 59
1, 906188, Note_off_c, 0, 43, 58
1, 906197, Note_off_c, 0, 48, 63
1, 906199, Note_off_c, 0, 64, 58
1, 906272, Note_on_c, 0, 55, 93
1, 906272, Note_on_c, 0, 67, 96
1, 906288, Note_on_c, 0, 60, 76
1, 906290, Note_on_c, 0, 64, 69
1, 906381, Note_off_c, 0, 55, 59
1, 906393, Note_off_c, 0, 60, 58
1, 906398, Note_off_c, 0, 67, 62
1, 906418, Note_off_c, 0, 64, 61
1, 906442, Note_on_c, 0, 36, 74
1, 906445, Note_on_c, 0, 24, 70
1, 906474, Note_on_c, 0, 69, 95
1, 906480, Note_on_c, 0, 57, 85
1, 906484, Control_c, 0, 64, 112
1, 906487, Note_on_c, 0, 60, 74
1, 906492, Note_on_c, 0, 64, 59
1, 906498, Control_c, 0, 64, 70
1, 906513, Control_c, 0, 64, 0
1, 906588, Control_c, 0, 64, 51
1, 906600, Note_off_c, 0, 24, 58
1, 906603, Control_c, 0, 64, 67
1, 906626, Control_c, 0, 64, 82
1, 906641, Control_c, 0, 64, 127
1, 906651, Note_off_c, 0, 60, 50
1, 906680, Note_off_c, 0, 36, 59
1, 906726, Note_off_c, 0, 69, 54
1, 906784, Note_off_c, 0, 64, 61
1, 906810, Note_on_c, 0, 60, 43
1, 906814, Note_off_c, 0, 57, 52
1, 906822, Note_on_c, 0, 48, 46
1, 906856, Note_off_c, 0, 60, 59
1, 906863, Note_off_c, 0, 48, 63
1, 906892, Note_on_c, 0, 52, 54
1, 906901, Note_on_c, 0, 64, 47
1, 906949, Note_off_c, 0, 64, 55
1, 906950, Note_off_c, 0, 52, 55
1, 906966, Note_on_c, 0, 60, 46
1, 906978, Note_on_c, 0, 48, 52
1, 907034, Note_off_c, 0, 48, 60
1, 907050, Note_on_c, 0, 55, 68
1, 907050, Note_off_c, 0, 60, 63
1, 907053, Note_on_c, 0, 43, 56
1, 907149, Note_on_c, 0, 48, 58
1, 907163, Note_on_c, 0, 60, 52
1, 907185, Note_off_c, 0, 55, 61
1, 907218, Note_off_c, 0, 48, 61
1, 907227, Note_off_c, 0, 60, 62
1, 907231, Note_on_c, 0, 52, 58
1, 907238, Note_on_c, 0, 64, 50
1, 907283, Note_off_c, 0, 64, 56
1, 907300, Note_on_c, 0, 48, 55
1, 907301, Note_on_c, 0, 60, 49
1, 907304, Note_off_c, 0, 52, 61
1, 907384, Note_on_c, 0, 47, 69
1, 907388, Note_off_c, 0, 48, 63
1, 907394, Note_off_c, 0, 60, 63
1, 907396, Note_on_c, 0, 59, 87
1, 907462, Note_off_c, 0, 43, 47
1, 907469, Note_on_c, 0, 48, 64
1, 907491, Note_on_c, 0, 60, 68
1, 907542, Note_off_c, 0, 59, 39
1, 907545, Note_off_c, 0, 48, 63
1, 907553, Note_on_c, 0, 52, 67
1, 907556, Note_off_c, 0, 60, 64
1, 907563, Note_on_c, 0, 64, 67
1, 907622, Note_on_c, 0, 60, 64
1, 907626, Note_off_c, 0, 64, 63
1, 907628, Note_off_c, 0, 52, 63
1, 907629, Note_on_c, 0, 48, 65
1, 907692, Note_off_c, 0, 60, 60
1, 907701, Note_on_c, 0, 57, 91
1, 907707, Note_off_c, 0, 48, 62
1, 907710, Note_on_c, 0, 45, 78
1, 907753, Note_off_c, 0, 47, 27
1, 907771, Note_on_c, 0, 48, 68
1, 907786, Note_on_c, 0, 60, 81
1, 907790, Note_off_c, 0, 57, 62
1, 907830, Note_off_c, 0, 48, 63
1, 907837, Note_off_c, 0, 60, 65
1, 907843, Note_on_c, 0, 52, 68
1, 907849, Note_on_c, 0, 64, 76
1, 907876, Note_off_c, 0, 52, 59
1, 907899, Note_on_c, 0, 60, 80
1, 907902, Note_on_c, 0, 48, 72
1, 907910, Note_off_c, 0, 64, 61
1, 907915, Note_off_c, 0, 45, 62
1, 907938, Note_off_c, 0, 60, 65
1, 908016, Note_off_c, 0, 48, 65
1, 908031, Note_on_c, 0, 56, 92
1, 908039, Note_on_c, 0, 44, 78
1, 908042, Control_c, 0, 64, 80
1, 908048, Note_on_c, 0, 72, 102
1, 908053, Note_on_c, 0, 60, 94
1, 908056, Note_on_c, 0, 64, 87
1, 908057, Control_c, 0, 64, 55
1, 908071, Control_c, 0, 64, 0
1, 908101, Control_c, 0, 64, 33
1, 908123, Control_c, 0, 64, 56
1, 908138, Control_c, 0, 64, 69
1, 908139, Note_off_c, 0, 64, 64
1, 908153, Control_c, 0, 64, 97
1, 908159, Note_off_c, 0, 72, 61
1, 908168, Control_c, 0, 64, 127
1, 908185, Note_off_c, 0, 56, 62
1, 908191, Note_off_c, 0, 60, 60
1, 908219, Note_on_c, 0, 48, 61
1, 908228, Note_off_c, 0, 44, 56
1, 908242, Note_on_c, 0, 60, 54
1, 908280, Note_off_c, 0, 60, 62
1, 908282, Note_off_c, 0, 48, 60
1, 908294, Note_on_c, 0, 52, 67
1, 908320, Note_on_c, 0, 64, 48
1, 908358, Note_off_c, 0, 52, 62
1, 908358, Note_off_c, 0, 64, 60
1, 908362, Note_on_c, 0, 48, 51
1, 908362, Note_on_c, 0, 60, 67
1, 908406, Note_on_c, 0, 43, 72
1, 908416, Note_off_c, 0, 48, 61
1, 908417, Note_off_c, 0, 60, 57
1, 908419, Note_on_c, 0, 55, 86
1, 908495, Note_on_c, 0, 60, 70
1, 908496, Note_on_c, 0, 48, 53
1, 908521, Note_off_c, 0, 55, 57
1, 908534, Note_on_c, 0, 52, 64
1, 908562, Note_off_c, 0, 60, 65
1, 908566, Note_off_c, 0, 52, 65
1, 908567, Note_on_c, 0, 64, 71
1, 908582, Note_off_c, 0, 43, 62
1, 908597, Note_off_c, 0, 48, 63
1, 908624, Note_on_c, 0, 60, 68
1, 908627, Note_off_c, 0, 64, 62
1, 908683, Note_off_c, 0, 60, 64
1, 908687, Note_on_c, 0, 36, 88
1, 908701, Note_on_c, 0, 54, 87
1, 908736, Note_off_c, 0, 36, 63
1, 908770, Note_off_c, 0, 54, 65
1, 908779, Note_on_c, 0, 60, 73
1, 908813, Note_on_c, 0, 48, 73
1, 908838, Note_off_c, 0, 60, 63
1, 908852, Note_on_c, 0, 64, 72
1, 908871, Note_off_c, 0, 48, 60
1, 908886, Note_on_c, 0, 52, 64
1, 908916, Note_on_c, 0, 60, 78
1, 908921, Note_off_c, 0, 64, 62
1, 908936, Note_off_c, 0, 52, 60
1, 908952, Note_on_c, 0, 48, 58
1, 908982, Note_on_c, 0, 43, 78
1, 908983, Note_off_c, 0, 60, 65
1, 908987, Note_on_c, 0, 55, 90
1, 908991, Note_off_c, 0, 48, 62
1, 909047, Note_off_c, 0, 55, 62
1, 909059, Note_on_c, 0, 48, 74
1, 909059, Note_on_c, 0, 60, 83
1, 909114, Note_off_c, 0, 48, 63
1, 909115, Note_on_c, 0, 52, 79
1, 909116, Note_off_c, 0, 60, 65
1, 909124, Note_on_c, 0, 64, 79
1, 909167, Note_on_c, 0, 48, 71
1, 909172, Note_off_c, 0, 43, 62
1, 909173, Note_off_c, 0, 52, 66
1, 909178, Note_on_c, 0, 60, 82
1, 909193, Note_off_c, 0, 64, 63
1, 909207, Note_off_c, 0, 48, 61
1, 909216, Note_off_c, 0, 60, 68
1, 909315, Control_c, 0, 64, 98
1, 909318, Note_on_c, 0, 76, 101
1, 909324, Note_on_c, 0, 59, 100
1, 909324, Note_on_c, 0, 64, 99
1, 909328, Note_on_c, 0, 67, 87
1, 909329, Note_on_c, 0, 47, 89
1, 909330, Control_c, 0, 64, 71
1, 909333, Note_on_c, 0, 72, 79
1, 909340, Note_on_c, 0, 68, 66
1, 909345, Control_c, 0, 64, 61
1, 909360, Control_c, 0, 64, 65
1, 909375, Control_c, 0, 64, 75
1, 909381, Note_off_c, 0, 68, 32
1, 909390, Control_c, 0, 64, 127
1, 909408, Note_off_c, 0, 76, 61
1, 909412, Note_off_c, 0, 67, 63
1, 909424, Note_off_c, 0, 72, 64
1, 909483, Note_off_c, 0, 59, 58
1, 909489, Note_on_c, 0, 48, 63
1, 909500, Note_off_c, 0, 47, 51
1, 909512, Note_off_c, 0, 64, 59
1, 909533, Note_on_c, 0, 60, 47
1, 909542, Note_on_c, 0, 52, 69
1, 909545, Note_off_c, 0, 48, 61
1, 909547, Note_on_c, 0, 59, 39
1, 909562, Note_off_c, 0, 60, 58
1, 909575, Note_off_c, 0, 59, 52
1, 909590, Note_on_c, 0, 64, 63
1, 909621, Note_on_c, 0, 48, 62
1, 909626, Note_off_c, 0, 52, 62
1, 909641, Note_on_c, 0, 60, 74
1, 909655, Note_off_c, 0, 64, 60
1, 909693, Note_on_c, 0, 45, 77
1, 909697, Note_off_c, 0, 48, 63
1, 909700, Note_on_c, 0, 57, 85
1, 909700, Note_off_c, 0, 60, 63
1, 909775, Note_on_c, 0, 60, 73
1, 909787, Note_on_c, 0, 48, 68
1, 909810, Note_off_c, 0, 57, 59
1, 909837, Note_on_c, 0, 52, 74
1, 909837, Note_off_c, 0, 60, 64
1, 909838, Note_off_c, 0, 48, 62
1, 909841, Note_on_c, 0, 64, 73
1, 909864, Note_off_c, 0, 45, 61
1, 909896, Note_on_c, 0, 60, 74
1, 909896, Note_on_c, 0, 62, 23
1, 909900, Note_on_c, 0, 48, 65
1, 909911, Note_off_c, 0, 52, 65
1, 909919, Note_off_c, 0, 64, 60
1, 909950, Note_off_c, 0, 62, 41
1, 909971, Note_on_c, 0, 56, 102
1, 909971, Note_off_c, 0, 60, 63
1, 909974, Note_on_c, 0, 44, 91
1, 909979, Note_off_c, 0, 48, 62
1, 910043, Poly_aftertouch_c, 0, 62, 127
1, 910044, Note_on_c, 0, 48, 71
1, 910045, Note_on_c, 0, 60, 72
1, 910069, Note_off_c, 0, 56, 61
1, 910076, Note_off_c, 0, 44, 59
1, 910076, Poly_aftertouch_c, 0, 62, 0
1, 910111, Note_on_c, 0, 52, 79
1, 910112, Note_off_c, 0, 60, 63
1, 910115, Note_off_c, 0, 48, 63
1, 910123, Note_on_c, 0, 64, 72
1, 910180, Note_on_c, 0, 60, 72
1, 910193, Note_on_c, 0, 48, 76
1, 910197, Note_off_c, 0, 52, 59
1, 910213, Note_off_c, 0, 64, 51
1, 910242, Note_on_c, 0, 55, 88
1, 910251, Note_on_c, 0, 43, 89
1, 910265, Note_off_c, 0, 48, 63
1, 910277, Note_off_c, 0, 60, 0
1, 910293, Note_on_c, 0, 60, 39
1, 910305, Note_off_c, 0, 55, 64
1, 910326, Note_on_c, 0, 64, 61
1, 910328, Note_off_c, 0, 60, 68
1, 910329, Note_on_c, 0, 48, 74
1, 910351, Note_off_c, 0, 64, 59
1, 910397, Note_on_c, 0, 52, 91
1, 910401, Note_off_c, 0, 48, 63
1, 910459, Note_on_c, 0, 48, 83
1, 910466, Note_off_c, 0, 52, 66
1, 910479, Note_off_c, 0, 43, 62
1, 910485, Note_on_c, 0, 75, 33
1, 910494, Note_off_c, 0, 48, 67
1, 910515, Note_off_c, 0, 75, 52
1, 910565, Note_on_c, 0, 81, 104
1, 910566, Note_on_c, 0, 69, 113
1, 910569, Note_on_c, 0, 72, 87
1, 910570, Note_on_c, 0, 76, 89
1, 910674, Note_off_c, 0, 81, 61
1, 910677, Note_off_c, 0, 69, 60
1, 910700, Note_off_c, 0, 76, 58
1, 910701, Note_off_c, 0, 72, 48
1, 910735, Note_on_c, 0, 36, 96
1, 910739, Note_on_c, 0, 24, 94
1, 910761, Note_on_c, 0, 79, 96
1, 910762, Note_on_c, 0, 67, 103
1, 910766, Note_on_c, 0, 72, 66
1, 910767, Note_on_c, 0, 76, 84
1, 910784, Control_c, 0, 64, 79
1, 910799, Control_c, 0, 64, 49
1, 910814, Control_c, 0, 64, 0
1, 910873, Control_c, 0, 64, 45
1, 910881, Note_off_c, 0, 24, 61
1, 910887, Control_c, 0, 64, 68
1, 910897, Note_off_c, 0, 79, 61
1, 910902, Control_c, 0, 64, 92
1, 910917, Control_c, 0, 64, 127
1, 910931, Note_off_c, 0, 36, 63
1, 910931, Note_off_c, 0, 72, 59
1, 910934, Note_off_c, 0, 76, 55
1, 911048, Note_off_c, 0, 67, 60
1, 911163, Note_on_c, 0, 60, 7
1, 911179, Note_on_c, 0, 52, 52
1, 911186, Poly_aftertouch_c, 0, 48, 0
1, 911200, Note_off_c, 0, 60, 0
1, 911204, Note_on_c, 0, 64, 51
1, 911223, Poly_aftertouch_c, 0, 48, 127
1, 911229, Note_on_c, 0, 48, 20
1, 911234, Note_on_c, 0, 60, 29
1, 911234, Note_off_c, 0, 52, 60
1, 911246, Note_off_c, 0, 64, 60
1, 911323, Note_on_c, 0, 43, 66
1, 911334, Note_off_c, 0, 48, 54
1, 911345, Note_off_c, 0, 60, 59
1, 911347, Note_on_c, 0, 55, 75
1, 911431, Note_on_c, 0, 48, 62
1, 911446, Note_on_c, 0, 60, 60
1, 911491, Note_off_c, 0, 60, 64
1, 911504, Note_off_c, 0, 48, 62
1, 911507, Note_on_c, 0, 64, 68
1, 911509, Note_on_c, 0, 52, 64
1, 911512, Note_off_c, 0, 55, 60
1, 911581, Note_on_c, 0, 48, 55
1, 911581, Note_on_c, 0, 60, 67
1, 911597, Note_off_c, 0, 52, 54
1, 911599, Note_off_c, 0, 64, 50
1, 911674, Note_on_c, 0, 47, 65
1, 911688, Note_on_c, 0, 59, 80
1, 911689, Note_off_c, 0, 48, 62
1, 911705, Note_off_c, 0, 60, 58
1, 911780, Note_on_c, 0, 48, 64
1, 911800, Note_off_c, 0, 43, 55
1, 911802, Note_on_c, 0, 60, 56
1, 911846, Note_off_c, 0, 48, 61
1, 911849, Note_off_c, 0, 60, 64
1, 911852, Note_on_c, 0, 52, 63
1, 911867, Note_on_c, 0, 64, 61
1, 911941, Note_on_c, 0, 48, 68
1, 911942, Note_on_c, 0, 60, 72
1, 911944, Note_off_c, 0, 59, 64
1, 911953, Note_off_c, 0, 52, 59
1, 911985, Note_off_c, 0, 64, 62
1, 912013, Note_on_c, 0, 45, 79
1, 912020, Note_off_c, 0, 48, 63
1, 912021, Note_on_c, 0, 57, 95
1, 912040, Note_off_c, 0, 60, 64
1, 912043, Note_off_c, 0, 47, 60
1, 912064, Note_on_c, 0, 64, 27
1, 912090, Note_on_c, 0, 48, 66
1, 912097, Note_off_c, 0, 64, 54
1, 912107, Note_on_c, 0, 60, 68
1, 912138, Note_off_c, 0, 48, 61
1, 912146, Note_on_c, 0, 52, 69
1, 912164, Note_off_c, 0, 60, 64
1, 912173, Note_on_c, 0, 64, 77
1, 912187, Note_off_c, 0, 57, 63
1, 912216, Note_on_c, 0, 48, 74
1, 912216, Note_off_c, 0, 52, 64
1, 912231, Note_off_c, 0, 45, 62
1, 912233, Note_off_c, 0, 64, 64
1, 912236, Note_on_c, 0, 60, 69
1, 912292, Note_on_c, 0, 44, 84
1, 912297, Note_off_c, 0, 48, 64
1, 912298, Note_on_c, 0, 56, 98
1, 912313, Note_off_c, 0, 60, 63
1, 912364, Note_on_c, 0, 48, 70
1, 912384, Note_on_c, 0, 60, 69
1, 912421, Note_off_c, 0, 56, 60
1, 912424, Note_on_c, 0, 52, 75
1, 912426, Note_off_c, 0, 48, 63
1, 912433, Note_off_c, 0, 60, 63
1, 912436, Note_off_c, 0, 44, 61
1, 912441, Note_on_c, 0, 64, 72
1, 912496, Note_on_c, 0, 48, 72
1, 912506, Note_on_c, 0, 60, 78
1, 912508, Note_off_c, 0, 64, 61
1, 912511, Note_off_c, 0, 52, 64
1, 912566, Note_on_c, 0, 43, 84
1, 912569, Note_on_c, 0, 55, 96
1, 912576, Note_off_c, 0, 48, 62
1, 912580, Note_off_c, 0, 60, 63
1, 912652, Note_on_c, 0, 48, 63
1, 912660, Note_on_c, 0, 60, 76
1, 912706, Note_on_c, 0, 52, 75
1, 912708, Note_off_c, 0, 48, 58
1, 912713, Note_off_c, 0, 60, 66
1, 912719, Note_on_c, 0, 64, 78
1, 912731, Note_off_c, 0, 55, 58
1, 912746, Note_on_c, 0, 48, 55
1, 912776, Note_off_c, 0, 52, 64
1, 912776, Note_off_c, 0, 43, 61
1, 912781, Note_on_c, 0, 60, 72
1, 912793, Note_off_c, 0, 64, 63
1, 912810, Note_off_c, 0, 60, 59
1, 912832, Note_off_c, 0, 48, 61
1, 912881, Control_c, 0, 64, 104
1, 912891, Note_on_c, 0, 41, 84
1, 912896, Note_on_c, 0, 47, 70
1, 912896, Control_c, 0, 64, 69
1, 912911, Control_c, 0, 64, 28
1, 912926, Control_c, 0, 64, 0
1, 912927, Note_on_c, 0, 59, 85
1, 912971, Control_c, 0, 64, 55
1, 912986, Control_c, 0, 64, 71
1, 913001, Control_c, 0, 64, 100
1, 913016, Control_c, 0, 64, 127
1, 913017, Note_off_c, 0, 47, 61
1, 913018, Note_off_c, 0, 41, 64
1, 913028, Note_on_c, 0, 65, 74
1, 913052, Note_off_c, 0, 59, 57
1, 913079, Note_off_c, 0, 65, 61
1, 913083, Note_on_c, 0, 69, 75
1, 913146, Note_on_c, 0, 65, 74
1, 913157, Note_off_c, 0, 69, 62
1, 913184, Poly_aftertouch_c, 0, 53, 127
1, 913187, Note_on_c, 0, 48, 87
1, 913200, Note_on_c, 0, 60, 93
1, 913203, Note_off_c, 0, 65, 63
1, 913205, Poly_aftertouch_c, 0, 53, 0
1, 913223, Poly_aftertouch_c, 0, 53, 0
1, 913267, Note_on_c, 0, 65, 75
1, 913282, Note_on_c, 0, 53, 69
1, 913297, Note_off_c, 0, 60, 62
1, 913317, Note_off_c, 0, 65, 64
1, 913325, Note_on_c, 0, 69, 79
1, 913328, Note_on_c, 0, 57, 79
1, 913332, Note_off_c, 0, 53, 64
1, 913387, Note_on_c, 0, 65, 87
1, 913390, Note_on_c, 0, 53, 79
1, 913408, Note_off_c, 0, 69, 64
1, 913411, Note_off_c, 0, 57, 65
1, 913417, Note_off_c, 0, 48, 62
1, 913439, Note_off_c, 0, 65, 64
1, 913449, Note_off_c, 0, 53, 65
1, 913551, Note_on_c, 0, 53, 88
1, 913572, Note_on_c, 0, 77, 102
1, 913578, Note_on_c, 0, 65, 97
1, 913583, Note_on_c, 0, 69, 93
1, 913587, Note_on_c, 0, 72, 83
1, 913676, Note_off_c, 0, 69, 58
1, 913777, Note_on_c, 0, 57, 66
1, 913785, Note_off_c, 0, 72, 61
1, 913786, Note_on_c, 0, 69, 79
1, 913792, Note_off_c, 0, 77, 58
1, 913817, Note_off_c, 0, 65, 56
1, 913828, Note_off_c, 0, 57, 64
1, 913836, Note_on_c, 0, 60, 71
1, 913840, Note_off_c, 0, 69, 62
1, 913858, Note_on_c, 0, 72, 72
1, 913898, Note_on_c, 0, 57, 65
1, 913907, Note_off_c, 0, 60, 63
1, 913915, Note_on_c, 0, 69, 79
1, 913934, Note_off_c, 0, 72, 61
1, 913972, Note_off_c, 0, 69, 62
1, 913974, Note_on_c, 0, 52, 85
1, 913980, Note_off_c, 0, 53, 58
1, 913981, Note_on_c, 0, 64, 90
1, 913982, Note_off_c, 0, 57, 63
1, 914056, Note_on_c, 0, 53, 81
1, 914061, Note_on_c, 0, 65, 79
1, 914069, Note_off_c, 0, 64, 59
1, 914119, Note_off_c, 0, 65, 64
1, 914126, Note_on_c, 0, 69, 82
1, 914128, Note_on_c, 0, 57, 73
1, 914129, Note_off_c, 0, 53, 64
1, 914181, Note_on_c, 0, 65, 76
1, 914192, Note_off_c, 0, 69, 61
1, 914192, Note_on_c, 0, 53, 76
1, 914192, Note_off_c, 0, 52, 61
1, 914197, Note_off_c, 0, 57, 61
1, 914241, Note_on_c, 0, 62, 90
1, 914245, Note_on_c, 0, 50, 83
1, 914246, Note_off_c, 0, 65, 64
1, 914256, Note_off_c, 0, 53, 63
1, 914305, Note_off_c, 0, 62, 64
1, 914311, Note_on_c, 0, 65, 83
1, 914314, Note_on_c, 0, 53, 77
1, 914370, Note_off_c, 0, 50, 56
1, 914375, Note_off_c, 0, 65, 64
1, 914380, Note_on_c, 0, 69, 79
1, 914386, Note_on_c, 0, 57, 78
1, 914414, Note_off_c, 0, 53, 57
1, 914433, Note_on_c, 0, 65, 77
1, 914448, Note_off_c, 0, 69, 62
1, 914465, Note_on_c, 0, 53, 42
1, 914481, Note_off_c, 0, 57, 57
1, 914487, Note_on_c, 0, 48, 86
1, 914496, Note_off_c, 0, 53, 65
1, 914497, Note_on_c, 0, 60, 89
1, 914498, Note_off_c, 0, 65, 62
1, 914564, Note_on_c, 0, 53, 81
1, 914578, Note_on_c, 0, 65, 85
1, 914582, Note_off_c, 0, 60, 67
1, 914593, Note_off_c, 0, 48, 64
1, 914628, Note_on_c, 0, 69, 86
1, 914638, Note_on_c, 0, 57, 82
1, 914649, Note_off_c, 0, 65, 64
1, 914674, Note_off_c, 0, 69, 64
1, 914717, Note_on_c, 0, 48, 84
1, 914724, Note_off_c, 0, 57, 64
1, 914729, Note_off_c, 0, 53, 60
1, 914757, Note_off_c, 0, 48, 66
1, 914764, Note_on_c, 0, 76, 107
1, 914765, Note_on_c, 0, 64, 98
1, 914766, Note_on_c, 0, 67, 92
1, 914772, Note_on_c, 0, 72, 83
1, 914922, Note_off_c, 0, 76, 60
1, 914925, Note_off_c, 0, 64, 57
1, 914934, Note_off_c, 0, 67, 55
1, 914951, Note_off_c, 0, 72, 61
1, 914980, Note_on_c, 0, 36, 88
1, 914983, Note_on_c, 0, 24, 86
1, 915006, Note_on_c, 0, 76, 100
1, 915009, Note_on_c, 0, 64, 101
1, 915014, Note_on_c, 0, 72, 72
1, 915018, Note_on_c, 0, 67, 80
1, 915025, Control_c, 0, 64, 90
1, 915039, Control_c, 0, 64, 59
1, 915053, Control_c, 0, 64, 0
1, 915143, Control_c, 0, 64, 46
1, 915146, Note_off_c, 0, 24, 61
1, 915158, Control_c, 0, 64, 68
1, 915173, Control_c, 0, 64, 112
1, 915182, Note_off_c, 0, 76, 58
1, 915188, Control_c, 0, 64, 127
1, 915218, Note_off_c, 0, 72, 61
1, 915223, Note_off_c, 0, 36, 62
1, 915234, Note_off_c, 0, 67, 60
1, 915388, Note_off_c, 0, 64, 38
1, 915407, Note_on_c, 0, 48, 47
1, 915417, Note_on_c, 0, 60, 51
1, 915459, Note_off_c, 0, 48, 58
1, 915464, Note_off_c, 0, 60, 64
1, 915480, Note_on_c, 0, 52, 52
1, 915523, Note_on_c, 0, 64, 37
1, 915549, Note_off_c, 0, 52, 54
1, 915561, Note_off_c, 0, 64, 50
1, 915575, Note_on_c, 0, 48, 48
1, 915577, Note_on_c, 0, 60, 47
1, 915648, Note_off_c, 0, 60, 54
1, 915650, Note_off_c, 0, 48, 58
1, 915656, Note_on_c, 0, 43, 53
1, 915660, Note_on_c, 0, 55, 69
1, 915766, Note_on_c, 0, 48, 51
1, 915772, Note_on_c, 0, 60, 59
1, 915806, Note_off_c, 0, 55, 59
1, 915827, Note_off_c, 0, 60, 61
1, 915841, Note_on_c, 0, 64, 56
1, 915841, Note_off_c, 0, 48, 60
1, 915847, Note_on_c, 0, 52, 52
1, 915913, Note_off_c, 0, 64, 57
1, 915918, Note_on_c, 0, 48, 47
1, 915919, Note_on_c, 0, 60, 58
1, 915926, Note_off_c, 0, 52, 58
1, 916010, Note_on_c, 0, 47, 63
1, 916017, Note_off_c, 0, 48, 58
1, 916031, Note_off_c, 0, 60, 58
1, 916034, Note_on_c, 0, 59, 75
1, 916127, Note_off_c, 0, 43, 36
1, 916130, Note_on_c, 0, 48, 59
1, 916150, Note_on_c, 0, 60, 53
1, 916194, Poly_aftertouch_c, 0, 64, 0
1, 916198, Note_off_c, 0, 48, 61
1, 916202, Note_off_c, 0, 60, 63
1, 916206, Note_on_c, 0, 64, 48
1, 916208, Note_on_c, 0, 52, 52
1, 916277, Note_on_c, 0, 60, 57
1, 916278, Note_off_c, 0, 59, 63
1, 916296, Note_on_c, 0, 48, 61
1, 916303, Note_off_c, 0, 52, 60
1, 916318, Note_off_c, 0, 64, 50
1, 916378, Note_on_c, 0, 45, 71
1, 916378, Note_off_c, 0, 48, 62
1, 916380, Note_on_c, 0, 57, 85
1, 916389, Note_off_c, 0, 60, 63
1, 916411, Note_off_c, 0, 47, 52
1, 916414, Note_on_c, 0, 64, 23
1, 916446, Note_off_c, 0, 64, 56
1, 916458, Note_on_c, 0, 48, 61
1, 916464, Note_on_c, 0, 60, 57
1, 916511, Note_off_c, 0, 48, 63
1, 916526, Note_off_c, 0, 60, 63
1, 916526, Note_on_c, 0, 52, 60
1, 916529, Note_on_c, 0, 64, 74
1, 916562, Note_off_c, 0, 57, 63
1, 916592, Note_on_c, 0, 48, 74
1, 916595, Note_on_c, 0, 60, 63
1, 916596, Note_off_c, 0, 64, 63
1, 916597, Note_off_c, 0, 52, 64
1, 916627, Note_off_c, 0, 45, 62
1, 916661, Note_on_c, 0, 56, 94
1, 916669, Note_off_c, 0, 48, 63
1, 916669, Note_on_c, 0, 44, 80
1, 916675, Note_off_c, 0, 60, 65
1, 916741, Note_on_c, 0, 48, 70
1, 916750, Note_on_c, 0, 60, 69
1, 916800, Note_off_c, 0, 60, 63
1, 916800, Note_off_c, 0, 48, 62
1, 916801, Note_on_c, 0, 64, 73
1, 916804, Note_on_c, 0, 52, 72
1, 916830, Note_off_c, 0, 56, 60
1, 916844, Note_off_c, 0, 44, 61
1, 916866, Note_on_c, 0, 60, 73
1, 916878, Note_on_c, 0, 48, 68
1, 916879, Note_off_c, 0, 64, 61
1, 916880, Note_off_c, 0, 52, 64
1, 916934, Note_on_c, 0, 43, 80
1, 916934, Note_on_c, 0, 55, 98
1, 916945, Note_off_c, 0, 48, 61
1, 916952, Note_off_c, 0, 60, 61
1, 917013, Note_on_c, 0, 48, 71
1, 917015, Note_on_c, 0, 60, 72
1, 917079, Note_on_c, 0, 52, 77
1, 917079, Note_off_c, 0, 48, 60
1, 917083, Note_on_c, 0, 64, 80
1, 917083, Note_off_c, 0, 60, 65
1, 917119, Note_on_c, 0, 48, 52
1, 917124, Note_off_c, 0, 52, 66
1, 917124, Note_off_c, 0, 55, 58
1, 917137, Note_off_c, 0, 43, 62
1, 917152, Note_off_c, 0, 48, 64
1, 917163, Note_on_c, 0, 60, 72
1, 917187, Note_off_c, 0, 64, 62
1, 917241, Control_c, 0, 64, 88
1, 917247, Note_on_c, 0, 36, 90
1, 917256, Control_c, 0, 64, 64
1, 917258, Note_on_c, 0, 54, 92
1, 917265, Note_off_c, 0, 60, 63
1, 917271, Control_c, 0, 64, 31
1, 917286, Control_c, 0, 64, 43
1, 917301, Control_c, 0, 64, 62
1, 917316, Control_c, 0, 64, 75
1, 917328, Note_off_c, 0, 36, 61
1, 917330, Control_c, 0, 64, 127
1, 917355, Note_on_c, 0, 60, 64
1, 917358, Note_off_c, 0, 54, 63
1, 917412, Note_off_c, 0, 60, 64
1, 917414, Note_on_c, 0, 64, 78
1, 917422, Note_on_c, 0, 48, 53
1, 917469, Note_off_c, 0, 48, 63
1, 917473, Note_on_c, 0, 60, 80
1, 917475, Note_on_c, 0, 52, 66
1, 917486, Note_off_c, 0, 64, 62
1, 917528, Note_off_c, 0, 52, 59
1, 917537, Note_on_c, 0, 43, 79
1, 917540, Note_on_c, 0, 55, 93
1, 917542, Note_off_c, 0, 60, 65
1, 917605, Note_on_c, 0, 60, 76
1, 917627, Note_off_c, 0, 55, 61
1, 917628, Note_on_c, 0, 48, 77
1, 917665, Note_on_c, 0, 64, 73
1, 917665, Note_off_c, 0, 60, 64
1, 917684, Note_on_c, 0, 52, 78
1, 917689, Note_off_c, 0, 48, 64
1, 917710, Note_on_c, 0, 60, 78
1, 917727, Note_on_c, 0, 48, 62
1, 917736, Note_off_c, 0, 64, 64
1, 917739, Note_off_c, 0, 43, 62
1, 917739, Note_off_c, 0, 52, 65
1, 917761, Note_off_c, 0, 60, 66
1, 917764, Note_off_c, 0, 48, 64
1, 917882, Note_on_c, 0, 76, 102
1, 917887, Control_c, 0, 64, 96
1, 917888, Note_on_c, 0, 64, 95
1, 917890, Note_on_c, 0, 67, 90
1, 917891, Note_on_c, 0, 59, 99
1, 917895, Note_on_c, 0, 47, 91
1, 917896, Note_on_c, 0, 72, 81
1, 917899, Note_on_c, 0, 68, 76
1, 917902, Control_c, 0, 64, 71
1, 917916, Control_c, 0, 64, 58
1, 917931, Control_c, 0, 64, 59
1, 917946, Control_c, 0, 64, 67
1, 917960, Control_c, 0, 64, 90
1, 917975, Control_c, 0, 64, 127
1, 917981, Note_off_c, 0, 76, 60
1, 917987, Note_off_c, 0, 67, 63
1, 917996, Note_off_c, 0, 72, 64
1, 918001, Note_off_c, 0, 68, 24
1, 918052, Note_off_c, 0, 59, 52
1, 918067, Note_off_c, 0, 64, 59
1, 918076, Note_on_c, 0, 48, 59
1, 918089, Note_off_c, 0, 47, 50
1, 918103, Note_on_c, 0, 60, 62
1, 918120, Note_off_c, 0, 48, 58
1, 918124, Note_on_c, 0, 52, 69
1, 918145, Note_off_c, 0, 60, 65
1, 918170, Note_on_c, 0, 64, 71
1, 918193, Note_on_c, 0, 48, 69
1, 918201, Note_off_c, 0, 52, 61
1, 918220, Note_on_c, 0, 60, 82
1, 918228, Note_off_c, 0, 64, 60
1, 918270, Note_on_c, 0, 45, 80
1, 918273, Note_off_c, 0, 48, 63
1, 918280, Note_on_c, 0, 57, 84
1, 918286, Note_off_c, 0, 60, 64
1, 918349, Note_on_c, 0, 60, 75
1, 918357, Note_on_c, 0, 48, 76
1, 918380, Note_off_c, 0, 57, 62
1, 918404, Note_off_c, 0, 45, 55
1, 918404, Note_on_c, 0, 52, 75
1, 918410, Note_off_c, 0, 48, 63
1, 918416, Note_off_c, 0, 60, 66
1, 918419, Note_on_c, 0, 64, 77
1, 918462, Note_on_c, 0, 48, 67
1, 918475, Note_off_c, 0, 52, 65
1, 918481, Note_on_c, 0, 60, 80
1, 918490, Note_off_c, 0, 64, 63
1, 918514, Poly_aftertouch_c, 0, 62, 127
1, 918534, Poly_aftertouch_c, 0, 62, 0
1, 918539, Note_off_c, 0, 48, 60
1, 918540, Note_on_c, 0, 44, 91
1, 918543, Note_on_c, 0, 56, 101
1, 918556, Poly_aftertouch_c, 0, 62, 0
1, 918560, Note_off_c, 0, 60, 63
1, 918592, Poly_aftertouch_c, 0, 62, 127
1, 918632, Note_on_c, 0, 48, 73
1, 918632, Note_on_c, 0, 60, 72
1, 918645, Poly_aftertouch_c, 0, 62, 0
1, 918649, Note_off_c, 0, 56, 63
1, 918662, Poly_aftertouch_c, 0, 64, 0
1, 918678, Note_off_c, 0, 44, 53
1, 918691, Note_on_c, 0, 52, 78
1, 918696, Note_off_c, 0, 48, 63
1, 918716, Note_off_c, 0, 60, 64
1, 918720, Note_on_c, 0, 64, 76
1, 918777, Note_off_c, 0, 52, 63
1, 918780, Note_on_c, 0, 48, 74
1, 918786, Note_on_c, 0, 60, 76
1, 918801, Note_off_c, 0, 64, 58
1, 918829, Note_on_c, 0, 43, 88
1, 918843, Note_off_c, 0, 48, 63
1, 918846, Note_on_c, 0, 55, 96
1, 918863, Note_off_c, 0, 60, 65
1, 918907, Note_on_c, 0, 64, 3
1, 918908, Note_on_c, 0, 48, 85
1, 918933, Note_off_c, 0, 43, 61
1, 918938, Note_on_c, 0, 60, 89
1, 918940, Note_off_c, 0, 55, 63
1, 918947, Note_off_c, 0, 64, 51
1, 918978, Note_on_c, 0, 52, 85
1, 918985, Note_off_c, 0, 48, 62
1, 919017, Note_on_c, 0, 64, 92
1, 919024, Note_off_c, 0, 60, 65
1, 919045, Note_off_c, 0, 52, 66
1, 919049, Note_on_c, 0, 48, 72
1, 919072, Note_off_c, 0, 48, 66
1, 919092, Note_on_c, 0, 60, 89
1, 919121, Note_off_c, 0, 64, 61
1, 919142, Note_off_c, 0, 60, 68
1, 919274, Note_on_c, 0, 38, 96
1, 919280, Note_on_c, 0, 26, 89
1, 919301, Note_on_c, 0, 65, 103
1, 919303, Note_on_c, 0, 76, 104
1, 919307, Note_on_c, 0, 64, 99
1, 919316, Note_on_c, 0, 72, 79
1, 919316, Control_c, 0, 64, 77
1, 919331, Control_c, 0, 64, 34
1, 919355, Control_c, 0, 64, 0
1, 919414, Control_c, 0, 64, 58
1, 919420, Note_off_c, 0, 26, 63
1, 919429, Control_c, 0, 64, 85
1, 919444, Control_c, 0, 64, 127
1, 919473, Note_off_c, 0, 38, 63
1, 919475, Note_off_c, 0, 76, 60
1, 919483, Note_off_c, 0, 72, 62
1, 919535, Note_off_c, 0, 65, 53
1, 919604, Note_on_c, 0, 48, 71
1, 919634, Note_on_c, 0, 60, 77
1, 919634, Note_off_c, 0, 64, 60
1, 919671, Note_on_c, 0, 53, 74
1, 919672, Note_off_c, 0, 48, 62
1, 919690, Note_off_c, 0, 60, 66
1, 919699, Note_on_c, 0, 65, 82
1, 919747, Note_on_c, 0, 48, 68
1, 919760, Note_off_c, 0, 53, 62
1, 919774, Note_on_c, 0, 60, 83
1, 919790, Note_off_c, 0, 65, 62
1, 919802, Note_on_c, 0, 45, 83
1, 919811, Note_off_c, 0, 48, 63
1, 919822, Note_on_c, 0, 57, 89
1, 919832, Note_off_c, 0, 60, 65
1, 919886, Note_on_c, 0, 48, 80
1, 919897, Note_on_c, 0, 60, 73
1, 919931, Note_on_c, 0, 65, 84
1, 919948, Note_off_c, 0, 48, 63
1, 919951, Note_on_c, 0, 53, 79
1, 919958, Note_off_c, 0, 60, 60
1, 919993, Note_on_c, 0, 48, 76
1, 920014, Note_off_c, 0, 57, 63
1, 920017, Note_off_c, 0, 53, 64
1, 920020, Note_on_c, 0, 64, 53
1, 920023, Note_off_c, 0, 45, 62
1, 920033, Note_off_c, 0, 65, 62
1, 920037, Poly_aftertouch_c, 0, 60, 127
1, 920042, Note_off_c, 0, 64, 62
1, 920047, Note_off_c, 0, 48, 65
1, 920064, Poly_aftertouch_c, 0, 60, 0
1, 920136, Note_on_c, 0, 52, 103
1, 920140, Note_on_c, 0, 65, 100
1, 920141, Note_on_c, 0, 64, 80
1, 920142, Note_on_c, 0, 53, 97
1, 920148, Note_on_c, 0, 57, 89
1, 920163, Control_c, 0, 64, 83
1, 920178, Control_c, 0, 64, 67
1, 920193, Control_c, 0, 64, 62
1, 920207, Control_c, 0, 64, 68
1, 920222, Control_c, 0, 64, 83
1, 920237, Control_c, 0, 64, 127
1, 920243, Note_off_c, 0, 53, 63
1, 920273, Note_off_c, 0, 57, 55
1, 920299, Note_on_c, 0, 53, 59
1, 920306, Note_off_c, 0, 52, 60
1, 920313, Note_off_c, 0, 64, 61
1, 920371, Note_on_c, 0, 52, 57
1, 920371, Note_on_c, 0, 64, 62
1, 920387, Note_off_c, 0, 65, 52
1, 920389, Note_off_c, 0, 53, 57
1, 920437, Note_off_c, 0, 52, 64
1, 920443, Note_on_c, 0, 45, 71
1, 920463, Note_off_c, 0, 64, 62
1, 920467, Note_on_c, 0, 57, 76
1, 920530, Note_on_c, 0, 50, 80
1, 920539, Note_on_c, 0, 62, 80
1, 920556, Note_off_c, 0, 57, 61
1, 920562, Note_off_c, 0, 45, 61
1, 920594, Note_off_c, 0, 62, 63
1, 920596, Note_on_c, 0, 53, 77
1, 920597, Note_off_c, 0, 50, 64
1, 920598, Note_on_c, 0, 65, 75
1, 920660, Note_on_c, 0, 50, 78
1, 920666, Note_on_c, 0, 62, 81
1, 920672, Note_off_c, 0, 53, 64
1, 920694, Note_off_c, 0, 65, 59
1, 920714, Note_on_c, 0, 45, 74
1, 920722, Note_off_c, 0, 62, 63
1, 920725, Note_off_c, 0, 50, 62
1, 920729, Note_on_c, 0, 57, 81
1, 920793, Note_on_c, 0, 49, 88
1, 920799, Note_on_c, 0, 61, 85
1, 920824, Note_off_c, 0, 57, 62
1, 920827, Note_off_c, 0, 45, 62
1, 920848, Note_on_c, 0, 65, 78
1, 920860, Note_off_c, 0, 61, 62
1, 920875, Note_on_c, 0, 53, 78
1, 920878, Note_off_c, 0, 49, 64
1, 920911, Note_on_c, 0, 61, 74
1, 920923, Note_on_c, 0, 49, 71
1, 920941, Note_off_c, 0, 53, 63
1, 920956, Note_off_c, 0, 65, 61
1, 920974, Note_on_c, 0, 57, 78
1, 920980, Note_off_c, 0, 61, 65
1, 920991, Note_on_c, 0, 45, 81
1, 920997, Note_off_c, 0, 57, 72
1, 921010, Note_off_c, 0, 49, 62
1, 921056, Note_on_c, 0, 67, 99
1, 921064, Note_on_c, 0, 60, 87
1, 921066, Note_on_c, 0, 48, 84
1, 921072, Note_on_c, 0, 55, 92
1, 921088, Note_off_c, 0, 45, 62
1, 921114, Note_off_c, 0, 60, 64
1, 921124, Note_on_c, 0, 53, 75
1, 921128, Note_on_c, 0, 65, 69
1, 921140, Note_off_c, 0, 48, 61
1, 921153, Note_off_c, 0, 55, 63
1, 921178, Note_off_c, 0, 67, 59
1, 921185, Note_on_c, 0, 48, 64
1, 921194, Note_on_c, 0, 60, 55
1, 921199, Note_off_c, 0, 53, 64
1, 921206, Note_on_c, 0, 45, 76
1, 921235, Note_off_c, 0, 48, 64
1, 921246, Note_on_c, 0, 57, 93
1, 921246, Note_off_c, 0, 45, 64
1, 921303, Note_off_c, 0, 57, 64
1, 921391, Note_on_c, 0, 43, 97
1, 921394, Note_on_c, 0, 31, 89
1, 921400, Note_off_c, 0, 60, 0
1, 921400, Note_on_c, 0, 60, 7
1, 921413, Note_on_c, 0, 56, 100
1, 921413, Note_on_c, 0, 68, 96
1, 921415, Control_c, 0, 64, 85
1, 921430, Control_c, 0, 64, 50
1, 921444, Control_c, 0, 64, 0
1, 921461, Note_off_c, 0, 65, 61
1, 921495, Note_off_c, 0, 60, 63
1, 921504, Control_c, 0, 64, 55
1, 921512, Note_off_c, 0, 31, 64
1, 921518, Control_c, 0, 64, 78
1, 921522, Note_off_c, 0, 56, 64
1, 921533, Control_c, 0, 64, 127
1, 921544, Note_off_c, 0, 43, 62
1, 921563, Note_off_c, 0, 68, 62
1, 921573, Note_on_c, 0, 65, 67
1, 921623, Note_off_c, 0, 65, 61
1, 921638, Note_on_c, 0, 68, 70
1, 921692, Note_on_c, 0, 65, 77
1, 921708, Note_on_c, 0, 48, 74
1, 921716, Note_off_c, 0, 68, 52
1, 921756, Note_on_c, 0, 60, 79
1, 921766, Note_off_c, 0, 65, 62
1, 921809, Note_on_c, 0, 53, 77
1, 921827, Note_on_c, 0, 65, 75
1, 921859, Note_off_c, 0, 60, 61
1, 921886, Note_on_c, 0, 68, 84
1, 921892, Note_on_c, 0, 56, 80
1, 921892, Note_off_c, 0, 53, 64
1, 921892, Note_off_c, 0, 65, 65
1, 921959, Note_on_c, 0, 53, 77
1, 921960, Note_on_c, 0, 65, 88
1, 921969, Note_off_c, 0, 48, 58
1, 921975, Note_off_c, 0, 56, 65
1, 921990, Note_off_c, 0, 68, 59
1, 922011, Note_off_c, 0, 53, 64
1, 922016, Note_off_c, 0, 65, 61
1, 922130, Note_on_c, 0, 53, 82
1, 922170, Note_on_c, 0, 71, 95
1, 922181, Note_on_c, 0, 59, 90
1, 922187, Note_on_c, 0, 67, 77
1, 922197, Note_on_c, 0, 65, 69
1, 922208, Control_c, 0, 64, 76
1, 922223, Control_c, 0, 64, 51
1, 922238, Control_c, 0, 64, 0
1, 922282, Control_c, 0, 64, 21
1, 922297, Control_c, 0, 64, 53
1, 922312, Control_c, 0, 64, 68
1, 922317, Note_off_c, 0, 67, 60
1, 922327, Control_c, 0, 64, 86
1, 922349, Control_c, 0, 64, 127
1, 922375, Note_off_c, 0, 59, 60
1, 922396, Note_on_c, 0, 55, 65
1, 922414, Note_off_c, 0, 71, 59
1, 922422, Note_on_c, 0, 67, 61
1, 922438, Note_off_c, 0, 65, 55
1, 922462, Note_off_c, 0, 67, 61
1, 922474, Note_off_c, 0, 55, 62
1, 922493, Note_on_c, 0, 59, 62
1, 922500, Note_on_c, 0, 71, 61
1, 922550, Note_on_c, 0, 67, 76
1, 922559, Note_on_c, 0, 55, 66
1, 922565, Note_off_c, 0, 59, 56
1, 922573, Note_off_c, 0, 71, 58
1, 922615, Note_on_c, 0, 64, 86
1, 922623, Note_off_c, 0, 67, 62
1, 922629, Note_on_c, 0, 52, 79
1, 922632, Note_off_c, 0, 55, 63
1, 922649, Note_off_c, 0, 53, 55
1, 922696, Note_on_c, 0, 67, 76
1, 922711, Note_on_c, 0, 55, 72
1, 922747, Note_off_c, 0, 67, 64
1, 922749, Note_on_c, 0, 71, 82
1, 922760, Note_on_c, 0, 59, 75
1, 922762, Note_off_c, 0, 55, 61
1, 922785, Note_off_c, 0, 64, 63
1, 922810, Note_on_c, 0, 67, 78
1, 922821, Note_off_c, 0, 52, 64
1, 922828, Note_on_c, 0, 55, 74
1, 922848, Note_off_c, 0, 71, 58
1, 922851, Note_off_c, 0, 59, 60
1, 922875, Note_on_c, 0, 52, 78
1, 922875, Note_on_c, 0, 64, 93
1, 922887, Note_off_c, 0, 67, 64
1, 922896, Note_off_c, 0, 55, 63
1, 922947, Note_on_c, 0, 65, 80
1, 922959, Note_on_c, 0, 53, 84
1, 923006, Note_on_c, 0, 71, 80
1, 923006, Note_off_c, 0, 65, 63
1, 923023, Note_on_c, 0, 59, 76
1, 923024, Note_off_c, 0, 53, 64
1, 923033, Note_off_c, 0, 64, 62
1, 923073, Note_on_c, 0, 65, 82
1, 923084, Note_on_c, 0, 53, 73
1, 923102, Note_off_c, 0, 59, 57
1, 923113, Note_off_c, 0, 71, 56
1, 923142, Note_on_c, 0, 62, 90
1, 923142, Note_off_c, 0, 65, 63
1, 923143, Control_c, 0, 64, 115
1, 923148, Note_on_c, 0, 50, 77
1, 923155, Note_off_c, 0, 53, 63
1, 923157, Control_c, 0, 64, 88
1, 923172, Control_c, 0, 64, 77
1, 923187, Control_c, 0, 64, 78
1, 923202, Control_c, 0, 64, 87
1, 923203, Note_off_c, 0, 52, 0
1, 923203, Note_on_c, 0, 52, 3
1, 923209, Note_on_c, 0, 65, 81
1, 923212, Note_on_c, 0, 53, 71
1, 923216, Control_c, 0, 64, 106
1, 923231, Control_c, 0, 64, 127
1, 923240, Note_off_c, 0, 52, 52
1, 923245, Note_off_c, 0, 50, 63
1, 923284, Note_on_c, 0, 71, 84
1, 923290, Note_off_c, 0, 53, 63
1, 923291, Note_off_c, 0, 65, 62
1, 923293, Note_on_c, 0, 59, 75
1, 923305, Note_off_c, 0, 62, 57
1, 923332, Note_off_c, 0, 71, 62
1, 923351, Note_off_c, 0, 59, 61
1, 923416, Note_on_c, 0, 43, 84
1, 923427, Note_on_c, 0, 69, 86
1, 923429, Note_on_c, 0, 67, 87
1, 923430, Note_on_c, 0, 55, 85
1, 923433, Note_on_c, 0, 57, 79
1, 923448, Note_off_c, 0, 43, 67
1, 923545, Note_off_c, 0, 69, 61
1, 923584, Note_off_c, 0, 67, 58
1, 923588, Note_off_c, 0, 57, 51
1, 923597, Note_off_c, 0, 55, 57
1, 923671, Note_on_c, 0, 36, 70
1, 923674, Note_on_c, 0, 24, 68
1, 923716, Note_on_c, 0, 67, 87
1, 923722, Note_on_c, 0, 55, 87
1, 923733, Note_on_c, 0, 60, 64
1, 923733, Note_on_c, 0, 64, 69
1, 923736, Control_c, 0, 64, 101
1, 923751, Control_c, 0, 64, 67
1, 923765, Control_c, 0, 64, 0
1, 923864, Note_off_c, 0, 24, 60
1, 923877, Control_c, 0, 64, 58
1, 923892, Control_c, 0, 64, 71
1, 923907, Control_c, 0, 64, 96
1, 923921, Control_c, 0, 64, 127
1, 923932, Note_off_c, 0, 36, 61
1, 923955, Note_off_c, 0, 64, 61
1, 923968, Note_off_c, 0, 60, 61
1, 923980, Note_off_c, 0, 67, 57
1, 924067, Note_off_c, 0, 55, 58
1, 924083, Note_on_c, 0, 60, 50
1, 924094, Note_on_c, 0, 48, 34
1, 924118, Note_off_c, 0, 60, 65
1, 924124, Note_off_c, 0, 48, 50
1, 924137, Note_on_c, 0, 52, 51
1, 924157, Note_on_c, 0, 64, 50
1, 924190, Note_off_c, 0, 52, 55
1, 924203, Note_off_c, 0, 64, 58
1, 924221, Note_on_c, 0, 60, 52
1, 924223, Note_on_c, 0, 48, 42
1, 924267, Note_off_c, 0, 48, 61
1, 924278, Note_on_c, 0, 43, 54
1, 924288, Note_off_c, 0, 60, 62
1, 924295, Note_on_c, 0, 55, 68
1, 924381, Note_on_c, 0, 48, 55
1, 924384, Note_on_c, 0, 60, 50
1, 924422, Note_off_c, 0, 48, 60
1, 924437, Note_off_c, 0, 60, 63
1, 924450, Note_on_c, 0, 64, 62
1, 924451, Note_on_c, 0, 52, 53
1, 924462, Note_off_c, 0, 55, 60
1, 924512, Note_off_c, 0, 52, 52
1, 924521, Note_on_c, 0, 48, 60
1, 924524, Note_on_c, 0, 60, 58
1, 924542, Note_off_c, 0, 64, 56
1, 924607, Note_off_c, 0, 48, 58
1, 924611, Note_on_c, 0, 47, 60
1, 924627, Note_on_c, 0, 59, 75
1, 924629, Note_off_c, 0, 60, 61
1, 924709, Note_on_c, 0, 60, 52
1, 924712, Note_on_c, 0, 48, 57
1, 924717, Note_off_c, 0, 43, 37
1, 924775, Note_off_c, 0, 60, 64
1, 924778, Note_off_c, 0, 48, 60
1, 924782, Note_on_c, 0, 64, 61
1, 924788, Note_on_c, 0, 52, 52
1, 924846, Note_on_c, 0, 60, 63
1, 924852, Note_off_c, 0, 59, 64
1, 924873, Note_off_c, 0, 52, 59
1, 924874, Note_on_c, 0, 48, 56
1, 924894, Note_off_c, 0, 64, 58
1, 924938, Note_on_c, 0, 57, 84
1, 924938, Note_off_c, 0, 48, 62
1, 924939, Note_on_c, 0, 45, 69
1, 924953, Note_off_c, 0, 60, 63
1, 924971, Note_off_c, 0, 47, 53
1, 925016, Note_on_c, 0, 48, 60
1, 925020, Note_on_c, 0, 60, 58
1, 925069, Poly_aftertouch_c, 0, 64, 0
1, 925072, Note_off_c, 0, 48, 61
1, 925080, Note_off_c, 0, 60, 64
1, 925081, Note_on_c, 0, 64, 54
1, 925086, Note_on_c, 0, 52, 60
1, 925111, Note_off_c, 0, 57, 62
1, 925150, Note_off_c, 0, 52, 57
1, 925152, Note_on_c, 0, 48, 64
1, 925156, Note_on_c, 0, 60, 58
1, 925156, Note_off_c, 0, 64, 60
1, 925168, Note_off_c, 0, 45, 58
1, 925204, Control_c, 0, 64, 100
1, 925211, Note_on_c, 0, 56, 91
1, 925213, Note_on_c, 0, 44, 74
1, 925213, Note_off_c, 0, 48, 64
1, 925218, Control_c, 0, 64, 78
1, 925223, Note_off_c, 0, 60, 63
1, 925233, Control_c, 0, 64, 67
1, 925248, Control_c, 0, 64, 63
1, 925263, Control_c, 0, 64, 65
1, 925278, Control_c, 0, 64, 66
1, 925290, Note_on_c, 0, 48, 62
1, 925293, Control_c, 0, 64, 68
1, 925298, Note_on_c, 0, 60, 50
1, 925308, Control_c, 0, 64, 73
1, 925323, Control_c, 0, 64, 83
1, 925344, Note_off_c, 0, 60, 64
1, 925344, Control_c, 0, 64, 108
1, 925352, Note_off_c, 0, 48, 60
1, 925359, Control_c, 0, 64, 127
1, 925363, Note_on_c, 0, 52, 64
1, 925376, Note_on_c, 0, 64, 49
1, 925410, Note_off_c, 0, 56, 61
1, 925428, Note_off_c, 0, 64, 59
1, 925433, Note_on_c, 0, 60, 63
1, 925446, Note_off_c, 0, 44, 34
1, 925448, Note_off_c, 0, 52, 61
1, 925454, Note_on_c, 0, 48, 58
1, 925488, Note_on_c, 0, 55, 85
1, 925488, Note_off_c, 0, 48, 63
1, 925490, Note_on_c, 0, 43, 72
1, 925501, Note_off_c, 0, 60, 63
1, 925507, Control_c, 0, 64, 90
1, 925522, Control_c, 0, 64, 75
1, 925537, Control_c, 0, 64, 67
1, 925552, Control_c, 0, 64, 66
1, 925567, Control_c, 0, 64, 69
1, 925574, Note_on_c, 0, 60, 57
1, 925576, Note_on_c, 0, 48, 56
1, 925582, Control_c, 0, 64, 72
1, 925597, Control_c, 0, 64, 77
1, 925612, Control_c, 0, 64, 87
1, 925620, Note_off_c, 0, 48, 58
1, 925626, Control_c, 0, 64, 115
1, 925627, Note_off_c, 0, 60, 65
1, 925634, Note_on_c, 0, 52, 58
1, 925634, Note_on_c, 0, 64, 44
1, 925641, Control_c, 0, 64, 127
1, 925668, Note_off_c, 0, 52, 66
1, 925669, Note_on_c, 0, 48, 44
1, 925671, Note_off_c, 0, 43, 59
1, 925692, Note_off_c, 0, 55, 59
1, 925701, Note_off_c, 0, 48, 61
1, 925708, Note_off_c, 0, 64, 64
1, 925720, Note_on_c, 0, 60, 41
1, 925744, Note_off_c, 0, 60, 64
1, 925859, Note_on_c, 0, 36, 54
1, 925894, Control_c, 0, 64, 83
1, 925898, Note_on_c, 0, 44, 48
1, 925908, Control_c, 0, 64, 63
1, 925910, Note_on_c, 0, 66, 66
1, 925923, Note_on_c, 0, 56, 55
1, 925923, Control_c, 0, 64, 24
1, 925928, Note_on_c, 0, 62, 42
1, 925930, Note_on_c, 0, 54, 64
1, 925938, Control_c, 0, 64, 0
1, 925967, Control_c, 0, 64, 35
1, 925982, Control_c, 0, 64, 56
1, 925997, Note_off_c, 0, 62, 54
1, 925997, Control_c, 0, 64, 67
1, 926012, Control_c, 0, 64, 79
1, 926020, Note_off_c, 0, 36, 53
1, 926027, Control_c, 0, 64, 119
1, 926031, Note_off_c, 0, 56, 63
1, 926041, Control_c, 0, 64, 127
1, 926056, Note_off_c, 0, 54, 56
1, 926082, Note_off_c, 0, 44, 62
1, 926130, Note_on_c, 0, 50, 44
1, 926139, Note_off_c, 0, 66, 59
1, 926151, Note_on_c, 0, 62, 56
1, 926189, Note_off_c, 0, 62, 62
1, 926215, Note_off_c, 0, 50, 58
1, 926235, Note_on_c, 0, 66, 25
1, 926271, Note_off_c, 0, 66, 50
1, 926277, Note_on_c, 0, 54, 2
1, 926282, Note_on_c, 0, 62, 57
1, 926320, Note_off_c, 0, 54, 50
1, 926337, Note_off_c, 0, 62, 64
1, 926348, Note_on_c, 0, 45, 63
1, 926355, Note_on_c, 0, 57, 68
1, 926427, Note_on_c, 0, 62, 68
1, 926435, Note_off_c, 0, 57, 60
1, 926437, Note_on_c, 0, 50, 63
1, 926441, Note_off_c, 0, 45, 56
1, 926470, Note_off_c, 0, 62, 58
1, 926491, Note_on_c, 0, 66, 69
1, 926493, Note_off_c, 0, 50, 61
1, 926517, Note_on_c, 0, 54, 63
1, 926545, Note_on_c, 0, 50, 51
1, 926547, Note_on_c, 0, 62, 67
1, 926552, Note_off_c, 0, 54, 65
1, 926574, Note_off_c, 0, 66, 56
1, 926578, Note_off_c, 0, 62, 65
1, 926582, Note_off_c, 0, 50, 64
1, 926658, Note_on_c, 0, 50, 74
1, 926673, Note_on_c, 0, 62, 73
1, 926762, Note_off_c, 0, 62, 63
1, 926767, Note_off_c, 0, 50, 62
1, 926780, Note_on_c, 0, 66, 63
1, 926789, Note_on_c, 0, 54, 50
1, 926841, Note_off_c, 0, 54, 61
1, 926851, Note_on_c, 0, 50, 63
1, 926861, Note_on_c, 0, 62, 64
1, 926876, Note_off_c, 0, 66, 52
1, 926902, Note_off_c, 0, 50, 59
1, 926916, Note_off_c, 0, 62, 59
1, 926921, Note_on_c, 0, 57, 70
1, 926934, Note_on_c, 0, 45, 60
1, 926975, Note_on_c, 0, 61, 81
1, 926983, Note_off_c, 0, 57, 63
1, 926990, Note_on_c, 0, 49, 74
1, 927025, Note_off_c, 0, 45, 58
1, 927033, Note_off_c, 0, 61, 63
1, 927039, Note_on_c, 0, 66, 70
1, 927049, Note_off_c, 0, 49, 63
1, 927050, Note_on_c, 0, 54, 71
1, 927102, Note_on_c, 0, 61, 79
1, 927104, Note_on_c, 0, 49, 65
1, 927126, Note_off_c, 0, 54, 63
1, 927138, Note_off_c, 0, 66, 58
1, 927159, Note_off_c, 0, 61, 62
1, 927169, Note_on_c, 0, 57, 66
1, 927177, Note_off_c, 0, 49, 62
1, 927180, Note_on_c, 0, 45, 74
1, 927217, Note_off_c, 0, 57, 0
1, 927227, Control_c, 0, 64, 77
1, 927234, Note_on_c, 0, 61, 82
1, 927242, Control_c, 0, 64, 54
1, 927249, Note_on_c, 0, 49, 80
1, 927251, Poly_aftertouch_c, 0, 57, 0
1, 927257, Control_c, 0, 64, 0
1, 927272, Control_c, 0, 64, 46
1, 927287, Control_c, 0, 64, 61
1, 927287, Note_off_c, 0, 45, 61
1, 927299, Note_on_c, 0, 65, 76
1, 927302, Control_c, 0, 64, 72
1, 927304, Note_off_c, 0, 61, 60
1, 927316, Control_c, 0, 64, 107
1, 927331, Control_c, 0, 64, 127
1, 927332, Note_on_c, 0, 53, 75
1, 927376, Note_on_c, 0, 60, 81
1, 927384, Note_off_c, 0, 65, 63
1, 927395, Note_on_c, 0, 48, 56
1, 927410, Note_off_c, 0, 53, 59
1, 927446, Note_off_c, 0, 60, 65
1, 927451, Note_on_c, 0, 56, 76
1, 927454, Note_off_c, 0, 49, 61
1, 927463, Note_on_c, 0, 44, 74
1, 927466, Note_off_c, 0, 48, 64
1, 927502, Poly_aftertouch_c, 0, 62, 0
1, 927508, Note_off_c, 0, 56, 63
1, 927528, Note_on_c, 0, 59, 78
1, 927540, Note_on_c, 0, 47, 73
1, 927562, Note_off_c, 0, 44, 61
1, 927603, Note_off_c, 0, 59, 64
1, 927606, Note_on_c, 0, 65, 85
1, 927624, Note_on_c, 0, 53, 76
1, 927624, Note_off_c, 0, 47, 61
1, 927684, Note_on_c, 0, 59, 90
1, 927686, Note_off_c, 0, 65, 63
1, 927694, Note_on_c, 0, 47, 74
1, 927698, Note_off_c, 0, 53, 65
1, 927734, Note_off_c, 0, 59, 64
1, 927808, Note_on_c, 0, 43, 92
1, 927815, Note_off_c, 0, 47, 61
1, 927818, Note_on_c, 0, 64, 97
1, 927821, Note_on_c, 0, 52, 105
1, 927848, Note_off_c, 0, 43, 66
1, 927865, Note_off_c, 0, 52, 65
1, 927916, Note_off_c, 0, 64, 65
1, 928106, Note_on_c, 0, 36, 103
1, 928110, Note_on_c, 0, 24, 96
1, 928121, Note_on_c, 0, 76, 103
1, 928123, Note_on_c, 0, 64, 106
1, 928124, Note_on_c, 0, 67, 91
1, 928128, Note_on_c, 0, 72, 82
1, 928170, Control_c, 0, 64, 85
1, 928184, Control_c, 0, 64, 50
1, 928199, Control_c, 0, 64, 0
1, 928257, Note_off_c, 0, 24, 61
1, 928259, Control_c, 0, 64, 30
1, 928274, Control_c, 0, 64, 64
1, 928289, Control_c, 0, 64, 100
1, 928304, Control_c, 0, 64, 127
1, 928338, Note_off_c, 0, 76, 58
1, 928349, Note_off_c, 0, 36, 61
1, 928364, Note_off_c, 0, 72, 60
1, 928376, Note_off_c, 0, 67, 57
1, 928476, Note_off_c, 0, 64, 61
1, 928527, Note_on_c, 0, 48, 32
1, 928536, Note_on_c, 0, 60, 61
1, 928562, Note_on_c, 0, 52, 58
1, 928566, Note_off_c, 0, 48, 43
1, 928566, Note_off_c, 0, 60, 65
1, 928596, Note_on_c, 0, 64, 63
1, 928618, Note_off_c, 0, 52, 59
1, 928631, Note_on_c, 0, 60, 73
1, 928636, Note_off_c, 0, 64, 52
1, 928640, Note_on_c, 0, 48, 41
1, 928667, Note_on_c, 0, 43, 71
1, 928672, Note_off_c, 0, 48, 58
1, 928695, Note_on_c, 0, 55, 86
1, 928701, Note_off_c, 0, 60, 62
1, 928761, Note_on_c, 0, 48, 60
1, 928780, Note_on_c, 0, 60, 75
1, 928793, Note_off_c, 0, 48, 64
1, 928808, Note_on_c, 0, 52, 69
1, 928843, Note_off_c, 0, 60, 64
1, 928843, Note_on_c, 0, 64, 74
1, 928853, Note_off_c, 0, 52, 61
1, 928861, Note_off_c, 0, 43, 60
1, 928876, Note_on_c, 0, 48, 50
1, 928886, Poly_aftertouch_c, 0, 60, 0
1, 928894, Note_on_c, 0, 60, 75
1, 928895, Note_off_c, 0, 48, 63
1, 928921, Note_off_c, 0, 55, 58
1, 928930, Note_off_c, 0, 64, 63
1, 928956, Note_off_c, 0, 60, 64
1, 929043, Note_on_c, 0, 64, 94
1, 929044, Note_on_c, 0, 59, 95
1, 929050, Note_on_c, 0, 52, 95
1, 929054, Note_on_c, 0, 47, 78
1, 929055, Note_on_c, 0, 60, 83
1, 929107, Note_on_c, 0, 53, 9
1, 929168, Note_off_c, 0, 53, 27
1, 929169, Note_off_c, 0, 60, 61
1, 929199, Note_off_c, 0, 59, 51
1, 929246, Note_on_c, 0, 48, 53
1, 929267, Note_off_c, 0, 64, 59
1, 929271, Note_on_c, 0, 60, 62
1, 929273, Note_off_c, 0, 52, 0
1, 929276, Note_off_c, 0, 47, 52
1, 929299, Note_off_c, 0, 48, 58
1, 929311, Poly_aftertouch_c, 0, 52, 127
1, 929315, Note_off_c, 0, 60, 64
1, 929340, Note_on_c, 0, 64, 60
1, 929384, Poly_aftertouch_c, 0, 52, 0
1, 929401, Note_on_c, 0, 60, 72
1, 929409, Note_on_c, 0, 48, 64
1, 929417, Note_off_c, 0, 64, 54
1, 929455, Note_off_c, 0, 48, 60
1, 929457, Note_on_c, 0, 45, 71
1, 929472, Note_on_c, 0, 57, 90
1, 929480, Note_off_c, 0, 60, 62
1, 929561, Note_on_c, 0, 48, 63
1, 929561, Note_on_c, 0, 60, 66
1, 929595, Note_off_c, 0, 48, 63
1, 929611, Note_on_c, 0, 52, 65
1, 929612, Note_off_c, 0, 60, 62
1, 929612, Note_on_c, 0, 64, 60
1, 929651, Note_off_c, 0, 45, 47
1, 929660, Note_off_c, 0, 57, 62
1, 929675, Note_on_c, 0, 48, 69
1, 929677, Note_off_c, 0, 52, 62
1, 929687, Note_off_c, 0, 64, 64
1, 929687, Note_on_c, 0, 60, 58
1, 929737, Note_off_c, 0, 48, 59
1, 929747, Note_on_c, 0, 44, 77
1, 929749, Note_on_c, 0, 56, 98
1, 929767, Note_off_c, 0, 60, 63
1, 929821, Note_on_c, 0, 48, 65
1, 929842, Note_on_c, 0, 60, 54
1, 929878, Note_off_c, 0, 60, 65
1, 929886, Note_off_c, 0, 48, 62
1, 929889, Note_on_c, 0, 52, 69
1, 929890, Note_on_c, 0, 64, 67
1, 929891, Note_off_c, 0, 56, 59
1, 929910, Note_off_c, 0, 44, 55
1, 929953, Note_on_c, 0, 60, 74
1, 929957, Note_off_c, 0, 64, 59
1, 929967, Note_on_c, 0, 48, 60
1, 929971, Note_off_c, 0, 52, 62
1, 929987, Note_off_c, 0, 60, 58
1, 930018, Note_on_c, 0, 55, 91
1, 930024, Note_on_c, 0, 43, 75
1, 930030, Note_off_c, 0, 48, 63
1, 930094, Note_on_c, 0, 60, 76
1, 930100, Note_on_c, 0, 48, 59
1, 930152, Note_on_c, 0, 52, 72
1, 930157, Note_off_c, 0, 48, 62
1, 930170, Note_off_c, 0, 55, 61
1, 930172, Note_on_c, 0, 64, 47
1, 930202, Note_off_c, 0, 60, 58
1, 930203, Note_off_c, 0, 64, 62
1, 930218, Note_on_c, 0, 48, 66
1, 930218, Note_off_c, 0, 43, 61
1, 930219, Note_off_c, 0, 52, 64
1, 930256, Poly_aftertouch_c, 0, 63, 0
1, 930260, Note_on_c, 0, 67, 95
1, 930264, Note_on_c, 0, 55, 96
1, 930269, Note_on_c, 0, 60, 73
1, 930271, Note_on_c, 0, 64, 78
1, 930355, Note_off_c, 0, 55, 61
1, 930369, Note_off_c, 0, 67, 59
1, 930378, Note_off_c, 0, 60, 63
1, 930387, Note_off_c, 0, 64, 57
1, 930396, Note_on_c, 0, 54, 82
1, 930407, Note_on_c, 0, 42, 68
1, 930411, Note_off_c, 0, 48, 60
1, 930449, Note_on_c, 0, 69, 102
1, 930455, Note_on_c, 0, 57, 92
1, 930459, Note_on_c, 0, 60, 76
1, 930468, Note_on_c, 0, 64, 71
1, 930475, Control_c, 0, 64, 74
1, 930489, Control_c, 0, 64, 31
1, 930504, Control_c, 0, 64, 0
1, 930587, Control_c, 0, 64, 53
1, 930602, Control_c, 0, 64, 69
1, 930617, Control_c, 0, 64, 91
1, 930623, Note_off_c, 0, 60, 56
1, 930631, Control_c, 0, 64, 127
1, 930679, Note_off_c, 0, 54, 61
1, 930680, Note_on_c, 0, 48, 48
1, 930682, Note_off_c, 0, 69, 55
1, 930709, Note_off_c, 0, 64, 62
1, 930712, Note_off_c, 0, 42, 60
1, 930735, Note_on_c, 0, 60, 44
1, 930735, Note_off_c, 0, 57, 58
1, 930748, Note_off_c, 0, 48, 58
1, 930774, Note_off_c, 0, 60, 62
1, 930778, Note_on_c, 0, 52, 51
1, 930810, Note_on_c, 0, 64, 45
1, 930852, Note_off_c, 0, 64, 58
1, 930862, Note_on_c, 0, 48, 34
1, 930872, Note_on_c, 0, 60, 51
1, 930897, Note_off_c, 0, 48, 58
1, 930903, Note_on_c, 0, 43, 56
1, 930909, Note_off_c, 0, 52, 32
1, 930923, Note_off_c, 0, 60, 60
1, 930934, Note_on_c, 0, 55, 68
1, 931004, Note_on_c, 0, 48, 54
1, 931025, Note_on_c, 0, 60, 61
1, 931061, Note_off_c, 0, 55, 57
1, 931064, Note_off_c, 0, 48, 60
1, 931075, Note_off_c, 0, 60, 62
1, 931080, Note_on_c, 0, 52, 54
1, 931088, Note_on_c, 0, 64, 61
1, 931141, Note_off_c, 0, 64, 57
1, 931147, Note_on_c, 0, 60, 65
1, 931159, Note_on_c, 0, 48, 61
1, 931166, Note_off_c, 0, 52, 60
1, 931216, Note_off_c, 0, 60, 63
1, 931222, Note_on_c, 0, 47, 73
1, 931224, Note_off_c, 0, 48, 62
1, 931230, Note_on_c, 0, 59, 80
1, 931295, Note_off_c, 0, 43, 46
1, 931310, Note_on_c, 0, 48, 69
1, 931311, Note_on_c, 0, 60, 69
1, 931379, Note_off_c, 0, 48, 62
1, 931379, Note_off_c, 0, 59, 58
1, 931384, Note_on_c, 0, 52, 68
1, 931384, Note_off_c, 0, 60, 64
1, 931392, Note_on_c, 0, 64, 68
1, 931448, Note_on_c, 0, 60, 66
1, 931448, Note_off_c, 0, 64, 61
1, 931460, Note_off_c, 0, 52, 64
1, 931462, Note_on_c, 0, 48, 66
1, 931504, Note_off_c, 0, 60, 63
1, 931520, Note_on_c, 0, 57, 87
1, 931525, Note_on_c, 0, 45, 69
1, 931531, Note_off_c, 0, 48, 64
1, 931555, Note_off_c, 0, 47, 48
1, 931597, Note_on_c, 0, 48, 60
1, 931599, Note_off_c, 0, 57, 61
1, 931602, Note_on_c, 0, 60, 79
1, 931635, Note_off_c, 0, 48, 63
1, 931643, Note_on_c, 0, 52, 75
1, 931651, Note_off_c, 0, 60, 63
1, 931660, Note_on_c, 0, 64, 77
1, 931685, Note_off_c, 0, 52, 64
1, 931707, Note_on_c, 0, 60, 77
1, 931711, Note_on_c, 0, 48, 76
1, 931714, Note_off_c, 0, 45, 63
1, 931726, Note_off_c, 0, 64, 64
1, 931748, Note_off_c, 0, 60, 65
1, 931816, Note_off_c, 0, 48, 61
1, 931823, Note_on_c, 0, 56, 91
1, 931824, Control_c, 0, 64, 122
1, 931828, Note_on_c, 0, 44, 80
1, 931838, Note_on_c, 0, 72, 106
1, 931839, Control_c, 0, 64, 69
1, 931842, Note_on_c, 0, 60, 108
1, 931844, Note_on_c, 0, 64, 91
1, 931854, Control_c, 0, 64, 36
1, 931869, Control_c, 0, 64, 0
1, 931884, Control_c, 0, 64, 45
1, 931899, Control_c, 0, 64, 60
1, 931913, Control_c, 0, 64, 73
1, 931914, Note_off_c, 0, 64, 63
1, 931928, Control_c, 0, 64, 127
1, 931928, Note_off_c, 0, 72, 62
1, 931954, Note_off_c, 0, 56, 62
1, 931985, Note_on_c, 0, 48, 59
1, 931997, Note_off_c, 0, 44, 56
1, 932054, Note_off_c, 0, 60, 63
1, 932062, Note_off_c, 0, 48, 56
1, 932066, Note_on_c, 0, 52, 65
1, 932081, Note_on_c, 0, 64, 65
1, 932125, Note_on_c, 0, 48, 34
1, 932129, Note_on_c, 0, 60, 70
1, 932136, Note_off_c, 0, 52, 60
1, 932143, Note_off_c, 0, 64, 62
1, 932180, Note_on_c, 0, 43, 75
1, 932191, Note_off_c, 0, 60, 60
1, 932195, Note_on_c, 0, 55, 85
1, 932199, Note_off_c, 0, 48, 60
1, 932254, Note_on_c, 0, 48, 49
1, 932264, Note_on_c, 0, 60, 75
1, 932293, Note_off_c, 0, 55, 57
1, 932301, Note_on_c, 0, 52, 66
1, 932328, Note_off_c, 0, 60, 65
1, 932330, Note_on_c, 0, 64, 75
1, 932333, Note_off_c, 0, 52, 65
1, 932342, Note_off_c, 0, 43, 61
1, 932369, Note_off_c, 0, 48, 63
1, 932392, Note_on_c, 0, 60, 78
1, 932393, Note_off_c, 0, 64, 63
1, 932450, Note_on_c, 0, 36, 91
1, 932450, Note_off_c, 0, 60, 65
1, 932454, Poly_aftertouch_c, 0, 62, 0
1, 932466, Note_on_c, 0, 54, 89
1, 932491, Poly_aftertouch_c, 0, 62, 127
1, 932498, Note_off_c, 0, 36, 63
1, 932528, Note_off_c, 0, 54, 63
1, 932534, Poly_aftertouch_c, 0, 62, 0
1, 932535, Note_on_c, 0, 60, 72
1, 932566, Note_on_c, 0, 48, 76
1, 932595, Note_off_c, 0, 60, 62
1, 932607, Note_on_c, 0, 64, 73
1, 932614, Note_off_c, 0, 48, 61
1, 932634, Note_on_c, 0, 52, 68
1, 932663, Note_on_c, 0, 60, 77
1, 932668, Note_off_c, 0, 64, 62
1, 932683, Note_off_c, 0, 52, 60
1, 932685, Note_on_c, 0, 48, 62
1, 932721, Note_on_c, 0, 43, 76
1, 932724, Note_off_c, 0, 48, 62
1, 932731, Note_on_c, 0, 55, 92
1, 932733, Note_off_c, 0, 60, 63
1, 932780, Note_off_c, 0, 55, 62
1, 932792, Note_on_c, 0, 48, 78
1, 932796, Note_on_c, 0, 60, 79
1, 932858, Note_off_c, 0, 48, 64
1, 932861, Note_off_c, 0, 60, 65
1, 932861, Note_on_c, 0, 64, 72
1, 932862, Note_on_c, 0, 52, 79
1, 932906, Note_on_c, 0, 48, 73
1, 932915, Note_on_c, 0, 60, 84
1, 932917, Note_off_c, 0, 52, 66
1, 932921, Note_off_c, 0, 43, 57
1, 932941, Note_off_c, 0, 64, 63
1, 932948, Note_off_c, 0, 48, 64
1, 932959, Note_off_c, 0, 60, 67
1, 933056, Control_c, 0, 64, 94
1, 933059, Note_on_c, 0, 76, 101
1, 933061, Note_on_c, 0, 59, 104
1, 933065, Note_on_c, 0, 47, 92
1, 933065, Note_on_c, 0, 64, 105
1, 933067, Note_on_c, 0, 67, 94
1, 933068, Note_on_c, 0, 72, 92
1, 933071, Control_c, 0, 64, 69
1, 933086, Control_c, 0, 64, 61
1, 933088, Note_on_c, 0, 65, 58
1, 933089, Note_off_c, 0, 65, 127
1, 933101, Control_c, 0, 64, 69
1, 933104, Note_on_c, 0, 68, 26
1, 933105, Note_off_c, 0, 68, 127
1, 933115, Control_c, 0, 64, 92
1, 933130, Control_c, 0, 64, 127
1, 933149, Note_off_c, 0, 67, 64
1, 933153, Note_off_c, 0, 76, 60
1, 933165, Note_off_c, 0, 72, 64
1, 933209, Note_off_c, 0, 59, 52
1, 933215, Note_off_c, 0, 47, 57
1, 933219, Note_on_c, 0, 48, 65
1, 933230, Note_off_c, 0, 64, 55
1, 933261, Note_on_c, 0, 60, 68
1, 933285, Note_on_c, 0, 52, 71
1, 933285, Note_off_c, 0, 48, 61
1, 933300, Note_off_c, 0, 60, 62
1, 933317, Note_on_c, 0, 64, 69
1, 933341, Note_on_c, 0, 48, 61
1, 933355, Note_off_c, 0, 52, 60
1, 933368, Note_on_c, 0, 60, 72
1, 933384, Note_off_c, 0, 64, 64
1, 933419, Note_on_c, 0, 45, 79
1, 933420, Note_off_c, 0, 48, 64
1, 933425, Note_on_c, 0, 57, 84
1, 933425, Note_off_c, 0, 60, 62
1, 933498, Note_on_c, 0, 60, 76
1, 933504, Note_on_c, 0, 48, 79
1, 933527, Note_off_c, 0, 57, 62
1, 933559, Note_off_c, 0, 48, 63
1, 933563, Note_on_c, 0, 52, 79
1, 933565, Note_on_c, 0, 64, 81
1, 933568, Note_off_c, 0, 60, 66
1, 933586, Note_off_c, 0, 45, 48
1, 933621, Note_on_c, 0, 62, 36
1, 933627, Note_on_c, 0, 48, 71
1, 933631, Note_on_c, 0, 60, 77
1, 933639, Note_off_c, 0, 64, 61
1, 933643, Note_off_c, 0, 52, 65
1, 933664, Note_off_c, 0, 62, 50
1, 933688, Note_off_c, 0, 60, 68
1, 933702, Note_on_c, 0, 56, 99
1, 933705, Note_on_c, 0, 44, 96
1, 933713, Note_off_c, 0, 48, 62
1, 933779, Note_on_c, 0, 60, 77
1, 933783, Note_on_c, 0, 48, 72
1, 933811, Note_off_c, 0, 56, 60
1, 933836, Note_on_c, 0, 63, 77
1, 933844, Note_on_c, 0, 52, 80
1, 933846, Note_off_c, 0, 60, 63
1, 933854, Note_off_c, 0, 48, 62
1, 933857, Note_off_c, 0, 44, 36
1, 933872, Note_on_c, 0, 64, 63
1, 933904, Note_off_c, 0, 63, 57
1, 933914, Note_on_c, 0, 60, 68
1, 933925, Note_off_c, 0, 64, 51
1, 933928, Note_on_c, 0, 48, 73
1, 933930, Note_off_c, 0, 52, 63
1, 933971, Note_on_c, 0, 55, 86
1, 933982, Note_on_c, 0, 43, 87
1, 933998, Note_off_c, 0, 48, 62
1, 934013, Note_off_c, 0, 60, 59
1, 934019, Note_off_c, 0, 55, 65
1, 934021, Note_on_c, 0, 64, 65
1, 934046, Note_off_c, 0, 64, 67
1, 934066, Note_on_c, 0, 48, 76
1, 934119, Note_on_c, 0, 52, 90
1, 934129, Note_off_c, 0, 48, 63
1, 934179, Note_on_c, 0, 75, 37
1, 934185, Note_on_c, 0, 48, 81
1, 934194, Note_off_c, 0, 52, 67
1, 934222, Note_off_c, 0, 75, 47
1, 934224, Note_off_c, 0, 43, 63
1, 934231, Note_off_c, 0, 48, 67
1, 934283, Note_on_c, 0, 72, 89
1, 934284, Note_on_c, 0, 81, 100
1, 934285, Note_on_c, 0, 69, 106
1, 934286, Note_on_c, 0, 76, 91
1, 934330, Note_on_c, 0, 73, 36
1, 934363, Note_off_c, 0, 73, 54
1, 934375, Note_off_c, 0, 76, 63
1, 934395, Note_on_c, 0, 79, 42
1, 934397, Note_off_c, 0, 72, 63
1, 934409, Note_off_c, 0, 81, 63
1, 934422, Note_off_c, 0, 79, 60
1, 934426, Note_off_c, 0, 69, 56
1, 934511, Note_on_c, 0, 40, 99
1, 934516, Note_on_c, 0, 28, 93
1, 934547, Note_on_c, 0, 79, 96
1, 934550, Note_on_c, 0, 67, 99
1, 934551, Note_on_c, 0, 76, 88
1, 934554, Note_on_c, 0, 71, 82
1, 934584, Control_c, 0, 64, 78
1, 934599, Control_c, 0, 64, 40
1, 934614, Control_c, 0, 64, 0
1, 934687, Control_c, 0, 64, 49
1, 934692, Note_off_c, 0, 28, 63
1, 934702, Control_c, 0, 64, 76
1, 934705, Note_off_c, 0, 79, 63
1, 934717, Control_c, 0, 64, 127
1, 934733, Note_off_c, 0, 76, 59
1, 934743, Note_off_c, 0, 40, 62
1, 934743, Note_off_c, 0, 71, 57
1, 934820, Note_off_c, 0, 67, 59
1, 934862, Note_on_c, 0, 52, 64
1, 934881, Note_on_c, 0, 64, 65
1, 934907, Note_off_c, 0, 52, 63
1, 934915, Note_off_c, 0, 64, 66
1, 934927, Note_on_c, 0, 55, 63
1, 934942, Note_on_c, 0, 67, 64
1, 934979, Note_on_c, 0, 64, 74
1, 934991, Note_on_c, 0, 52, 61
1, 934993, Note_off_c, 0, 55, 59
1, 935009, Note_off_c, 0, 67, 62
1, 935041, Note_on_c, 0, 47, 77
1, 935056, Note_on_c, 0, 59, 92
1, 935059, Note_off_c, 0, 52, 64
1, 935083, Note_off_c, 0, 64, 61
1, 935138, Note_on_c, 0, 52, 62
1, 935163, Note_on_c, 0, 64, 64
1, 935207, Note_on_c, 0, 55, 66
1, 935210, Note_off_c, 0, 52, 64
1, 935225, Note_on_c, 0, 67, 74
1, 935225, Note_off_c, 0, 64, 64
1, 935228, Note_off_c, 0, 59, 60
1, 935280, Note_on_c, 0, 52, 66
1, 935292, Note_on_c, 0, 64, 80
1, 935297, Note_off_c, 0, 55, 59
1, 935318, Note_off_c, 0, 67, 60
1, 935412, Note_on_c, 0, 50, 75
1, 935440, Note_on_c, 0, 62, 89
1, 935445, Note_off_c, 0, 52, 64
1, 935463, Note_off_c, 0, 64, 60
1, 935554, Note_on_c, 0, 52, 69
1, 935570, Note_on_c, 0, 64, 65
1, 935625, Note_off_c, 0, 52, 64
1, 935627, Note_off_c, 0, 64, 63
1, 935631, Note_on_c, 0, 67, 66
1, 935634, Note_on_c, 0, 55, 63
1, 935697, Note_off_c, 0, 62, 61
1, 935702, Note_on_c, 0, 52, 68
1, 935708, Note_off_c, 0, 47, 34
1, 935720, Note_on_c, 0, 64, 73
1, 935726, Note_off_c, 0, 55, 59
1, 935735, Note_off_c, 0, 67, 60
1, 935791, Note_on_c, 0, 49, 83
1, 935793, Note_off_c, 0, 52, 65
1, 935805, Note_on_c, 0, 61, 97
1, 935807, Note_off_c, 0, 50, 54
1, 935813, Note_off_c, 0, 64, 61
1, 935881, Note_on_c, 0, 52, 77
1, 935894, Note_on_c, 0, 64, 70
1, 935939, Note_off_c, 0, 52, 63
1, 935941, Note_on_c, 0, 55, 76
1, 935945, Note_off_c, 0, 61, 57
1, 935946, Note_on_c, 0, 67, 76
1, 935947, Note_off_c, 0, 64, 64
1, 936007, Note_off_c, 0, 49, 61
1, 936011, Note_on_c, 0, 52, 71
1, 936018, Note_on_c, 0, 64, 77
1, 936028, Note_off_c, 0, 55, 62
1, 936029, Note_off_c, 0, 67, 56
1, 936077, Note_on_c, 0, 60, 96
1, 936078, Note_on_c, 0, 48, 88
1, 936090, Note_off_c, 0, 64, 61
1, 936092, Note_off_c, 0, 52, 65
1, 936155, Note_on_c, 0, 52, 65
1, 936165, Note_on_c, 0, 64, 72
1, 936213, Note_on_c, 0, 55, 77
1, 936216, Note_off_c, 0, 64, 62
1, 936218, Note_off_c, 0, 52, 65
1, 936223, Note_on_c, 0, 67, 76
1, 936224, Note_off_c, 0, 48, 60
1, 936250, Note_off_c, 0, 60, 62
1, 936286, Note_on_c, 0, 64, 74
1, 936288, Note_on_c, 0, 52, 55
1, 936294, Note_off_c, 0, 55, 62
1, 936297, Note_off_c, 0, 67, 57
1, 936328, Note_on_c, 0, 47, 85
1, 936340, Note_off_c, 0, 52, 65
1, 936343, Note_on_c, 0, 59, 93
1, 936350, Note_off_c, 0, 64, 62
1, 936412, Note_on_c, 0, 52, 65
1, 936431, Note_on_c, 0, 64, 65
1, 936459, Note_on_c, 0, 55, 71
1, 936478, Note_off_c, 0, 64, 61
1, 936479, Note_on_c, 0, 67, 70
1, 936483, Note_off_c, 0, 59, 55
1, 936499, Note_off_c, 0, 55, 62
1, 936510, Note_off_c, 0, 47, 62
1, 936513, Note_off_c, 0, 52, 63
1, 936550, Note_off_c, 0, 67, 62
1, 936560, Note_on_c, 0, 64, 51
1, 936592, Note_on_c, 0, 65, 35
1, 936624, Note_off_c, 0, 64, 62
1, 936626, Note_off_c, 0, 65, 31
1, 936637, Note_on_c, 0, 41, 88
1, 936637, Control_c, 0, 64, 97
1, 936651, Control_c, 0, 64, 66
1, 936666, Control_c, 0, 64, 0
1, 936684, Note_on_c, 0, 60, 64
1, 936696, Control_c, 0, 64, 49
1, 936711, Control_c, 0, 64, 66
1, 936725, Control_c, 0, 64, 86
1, 936740, Control_c, 0, 64, 127
1, 936742, Note_off_c, 0, 41, 63
1, 936761, Note_on_c, 0, 65, 58
1, 936779, Note_off_c, 0, 60, 58
1, 936796, Note_off_c, 0, 65, 64
1, 936811, Note_on_c, 0, 69, 75
1, 936871, Note_on_c, 0, 65, 73
1, 936897, Note_off_c, 0, 69, 51
1, 936918, Note_on_c, 0, 48, 90
1, 936921, Poly_aftertouch_c, 0, 53, 127
1, 936924, Note_on_c, 0, 60, 90
1, 936934, Note_off_c, 0, 65, 62
1, 936939, Poly_aftertouch_c, 0, 53, 0
1, 936961, Poly_aftertouch_c, 0, 53, 0
1, 936997, Note_on_c, 0, 53, 64
1, 936997, Note_on_c, 0, 65, 75
1, 937014, Note_off_c, 0, 60, 63
1, 937054, Note_on_c, 0, 57, 76
1, 937055, Note_off_c, 0, 65, 65
1, 937056, Note_off_c, 0, 53, 64
1, 937057, Note_on_c, 0, 69, 82
1, 937110, Note_on_c, 0, 53, 81
1, 937119, Note_on_c, 0, 65, 89
1, 937130, Note_off_c, 0, 57, 64
1, 937130, Note_off_c, 0, 69, 64
1, 937136, Note_off_c, 0, 48, 60
1, 937163, Note_off_c, 0, 65, 66
1, 937169, Note_off_c, 0, 53, 65
1, 937286, Note_on_c, 0, 53, 95
1, 937301, Note_on_c, 0, 77, 106
1, 937307, Note_on_c, 0, 65, 94
1, 937308, Note_on_c, 0, 69, 94
1, 937312, Note_on_c, 0, 72, 83
1, 937405, Note_off_c, 0, 69, 60
1, 937498, Note_off_c, 0, 72, 60
1, 937500, Note_on_c, 0, 57, 64
1, 937508, Note_off_c, 0, 77, 59
1, 937515, Note_on_c, 0, 69, 69
1, 937548, Note_off_c, 0, 57, 62
1, 937557, Note_off_c, 0, 65, 57
1, 937561, Note_on_c, 0, 60, 70
1, 937562, Note_off_c, 0, 69, 58
1, 937580, Note_on_c, 0, 72, 77
1, 937625, Note_off_c, 0, 60, 62
1, 937630, Note_on_c, 0, 57, 61
1, 937638, Note_on_c, 0, 69, 75
1, 937660, Note_off_c, 0, 72, 60
1, 937689, Note_on_c, 0, 52, 82
1, 937697, Note_off_c, 0, 57, 64
1, 937697, Note_off_c, 0, 69, 57
1, 937702, Note_on_c, 0, 64, 92
1, 937749, Note_off_c, 0, 53, 0
1, 937768, Note_off_c, 0, 64, 56
1, 937778, Note_on_c, 0, 65, 81
1, 937786, Poly_aftertouch_c, 0, 53, 127
1, 937836, Note_on_c, 0, 69, 77
1, 937836, Note_off_c, 0, 65, 64
1, 937845, Note_on_c, 0, 57, 73
1, 937851, Poly_aftertouch_c, 0, 53, 0
1, 937896, Note_off_c, 0, 52, 57
1, 937896, Note_on_c, 0, 65, 76
1, 937901, Note_off_c, 0, 69, 62
1, 937910, Note_on_c, 0, 53, 66
1, 937918, Note_off_c, 0, 57, 61
1, 937951, Note_on_c, 0, 50, 85
1, 937952, Note_on_c, 0, 62, 90
1, 937966, Note_off_c, 0, 65, 63
1, 937974, Note_off_c, 0, 53, 63
1, 938027, Note_on_c, 0, 53, 77
1, 938032, Note_on_c, 0, 65, 77
1, 938057, Note_off_c, 0, 62, 59
1, 938080, Note_off_c, 0, 50, 61
1, 938101, Note_off_c, 0, 65, 62
1, 938102, Note_on_c, 0, 69, 86
1, 938117, Note_on_c, 0, 57, 75
1, 938141, Note_off_c, 0, 53, 57
1, 938167, Note_on_c, 0, 65, 83
1, 938182, Note_off_c, 0, 69, 61
1, 938210, Note_on_c, 0, 48, 84
1, 938221, Note_off_c, 0, 57, 61
1, 938229, Note_on_c, 0, 60, 92
1, 938242, Note_off_c, 0, 65, 63
1, 938290, Note_on_c, 0, 53, 80
1, 938304, Note_on_c, 0, 65, 80
1, 938313, Note_off_c, 0, 48, 65
1, 938317, Note_off_c, 0, 60, 64
1, 938356, Note_on_c, 0, 57, 86
1, 938361, Note_on_c, 0, 69, 87
1, 938373, Note_off_c, 0, 65, 64
1, 938406, Note_off_c, 0, 69, 61
1, 938436, Note_on_c, 0, 48, 88
1, 938443, Note_off_c, 0, 57, 64
1, 938454, Note_off_c, 0, 53, 63
1, 938482, Note_off_c, 0, 48, 64
1, 938495, Note_on_c, 0, 76, 108
1, 938497, Note_on_c, 0, 64, 101
1, 938501, Note_on_c, 0, 67, 94
1, 938504, Note_on_c, 0, 72, 89
1, 938657, Note_off_c, 0, 76, 65
1, 938659, Note_off_c, 0, 64, 57
1, 938669, Note_off_c, 0, 67, 56
1, 938696, Note_off_c, 0, 72, 60
1, 938728, Note_on_c, 0, 36, 98
1, 938731, Note_on_c, 0, 24, 94
1, 938744, Note_on_c, 0, 76, 104
1, 938749, Note_on_c, 0, 64, 99
1, 938752, Note_on_c, 0, 67, 89
1, 938752, Note_on_c, 0, 72, 76
1, 938788, Control_c, 0, 64, 79
1, 938802, Control_c, 0, 64, 39
1, 938825, Control_c, 0, 64, 0
1, 938899, Control_c, 0, 64, 57
1, 938901, Note_off_c, 0, 24, 61
1, 938914, Control_c, 0, 64, 87
1, 938928, Control_c, 0, 64, 127
1, 938938, Note_off_c, 0, 76, 62
1, 938962, Note_off_c, 0, 72, 59
1, 938979, Note_off_c, 0, 67, 57
1, 938987, Note_off_c, 0, 36, 61
1, 939090, Note_off_c, 0, 64, 57
1, 939151, Note_on_c, 0, 60, 54
1, 939153, Note_on_c, 0, 48, 53
1, 939186, Note_off_c, 0, 60, 65
1, 939199, Note_off_c, 0, 48, 58
1, 939227, Note_on_c, 0, 52, 52
1, 939236, Note_on_c, 0, 64, 40
1, 939272, Note_off_c, 0, 64, 58
1, 939276, Note_on_c, 0, 60, 53
1, 939287, Note_off_c, 0, 52, 54
1, 939312, Note_on_c, 0, 48, 47
1, 939362, Note_on_c, 0, 55, 71
1, 939369, Note_off_c, 0, 48, 56
1, 939369, Note_off_c, 0, 60, 62
1, 939372, Note_on_c, 0, 43, 56
1, 939472, Note_on_c, 0, 48, 52
1, 939472, Note_on_c, 0, 60, 51
1, 939532, Note_off_c, 0, 60, 63
1, 939534, Note_off_c, 0, 55, 58
1, 939544, Note_off_c, 0, 48, 59
1, 939549, Note_on_c, 0, 64, 61
1, 939553, Note_on_c, 0, 52, 48
1, 939628, Note_on_c, 0, 48, 46
1, 939633, Note_on_c, 0, 60, 54
1, 939637, Note_off_c, 0, 64, 58
1, 939647, Note_off_c, 0, 52, 53
1, 939724, Note_on_c, 0, 47, 63
1, 939730, Note_off_c, 0, 48, 60
1, 939747, Note_on_c, 0, 59, 79
1, 939750, Note_off_c, 0, 60, 58
1, 939834, Note_off_c, 0, 43, 54
1, 939842, Note_on_c, 0, 48, 59
1, 939852, Note_on_c, 0, 60, 48
1, 939899, Note_off_c, 0, 48, 59
1, 939901, Note_off_c, 0, 60, 62
1, 939915, Note_on_c, 0, 52, 51
1, 939917, Note_on_c, 0, 64, 61
1, 939982, Note_on_c, 0, 60, 60
1, 939983, Note_off_c, 0, 59, 61
1, 940002, Note_on_c, 0, 48, 61
1, 940014, Note_off_c, 0, 52, 57
1, 940080, Note_off_c, 0, 48, 63
1, 940081, Note_on_c, 0, 45, 70
1, 940082, Note_on_c, 0, 57, 87
1, 940093, Note_off_c, 0, 64, 0
1, 940101, Note_off_c, 0, 47, 53
1, 940102, Note_off_c, 0, 60, 61
1, 940111, Note_on_c, 0, 64, 25
1, 940151, Note_off_c, 0, 64, 54
1, 940163, Note_on_c, 0, 48, 57
1, 940167, Note_on_c, 0, 60, 53
1, 940210, Note_off_c, 0, 48, 61
1, 940225, Note_off_c, 0, 60, 62
1, 940230, Note_on_c, 0, 52, 62
1, 940235, Note_on_c, 0, 64, 72
1, 940265, Note_off_c, 0, 57, 63
1, 940294, Note_on_c, 0, 60, 64
1, 940294, Note_off_c, 0, 64, 64
1, 940296, Note_on_c, 0, 48, 70
1, 940299, Note_off_c, 0, 52, 61
1, 940328, Note_off_c, 0, 45, 61
1, 940368, Note_on_c, 0, 56, 95
1, 940368, Note_off_c, 0, 48, 64
1, 940370, Note_on_c, 0, 44, 76
1, 940382, Note_off_c, 0, 60, 63
1, 940450, Note_on_c, 0, 48, 65
1, 940451, Note_on_c, 0, 60, 54
1, 940494, Note_off_c, 0, 48, 57
1, 940504, Note_off_c, 0, 60, 65
1, 940504, Note_on_c, 0, 52, 71
1, 940504, Note_on_c, 0, 64, 72
1, 940512, Note_off_c, 0, 56, 62
1, 940554, Note_off_c, 0, 44, 60
1, 940568, Note_on_c, 0, 60, 73
1, 940574, Note_off_c, 0, 64, 60
1, 940579, Note_on_c, 0, 48, 64
1, 940580, Note_off_c, 0, 52, 60
1, 940642, Note_on_c, 0, 55, 95
1, 940644, Note_on_c, 0, 43, 78
1, 940646, Note_off_c, 0, 48, 63
1, 940647, Note_off_c, 0, 60, 58
1, 940718, Note_on_c, 0, 48, 59
1, 940724, Note_on_c, 0, 60, 71
1, 940765, Note_on_c, 0, 52, 74
1, 940786, Note_on_c, 0, 64, 67
1, 940788, Note_off_c, 0, 60, 65
1, 940800, Note_off_c, 0, 52, 67
1, 940806, Note_off_c, 0, 55, 58
1, 940825, Note_off_c, 0, 48, 61
1, 940826, Note_off_c, 0, 43, 62
1, 940867, Note_on_c, 0, 60, 61
1, 940874, Note_off_c, 0, 64, 58
1, 940940, Note_on_c, 0, 36, 84
1, 940957, Note_on_c, 0, 54, 89
1, 940959, Control_c, 0, 64, 79
1, 940961, Note_off_c, 0, 60, 60
1, 940974, Control_c, 0, 64, 66
1, 941003, Control_c, 0, 64, 75
1, 941018, Control_c, 0, 64, 110
1, 941024, Note_off_c, 0, 36, 63
1, 941033, Control_c, 0, 64, 127
1, 941046, Note_off_c, 0, 54, 63
1, 941049, Note_on_c, 0, 60, 62
1, 941109, Note_on_c, 0, 64, 74
1, 941110, Note_off_c, 0, 60, 63
1, 941142, Note_on_c, 0, 48, 53
1, 941168, Note_on_c, 0, 50, 33
1, 941181, Note_on_c, 0, 60, 75
1, 941184, Note_off_c, 0, 64, 62
1, 941206, Note_off_c, 0, 50, 53
1, 941212, Note_off_c, 0, 48, 62
1, 941227, Note_on_c, 0, 43, 74
1, 941241, Note_on_c, 0, 55, 91
1, 941244, Note_off_c, 0, 60, 63
1, 941285, Note_on_c, 0, 48, 62
1, 941309, Note_on_c, 0, 60, 73
1, 941330, Note_off_c, 0, 55, 60
1, 941354, Note_off_c, 0, 48, 62
1, 941355, Note_on_c, 0, 52, 74
1, 941365, Note_off_c, 0, 60, 65
1, 941375, Note_on_c, 0, 64, 63
1, 941383, Poly_aftertouch_c, 0, 45, 0
1, 941406, Poly_aftertouch_c, 0, 60, 0
1, 941410, Note_on_c, 0, 48, 75
1, 941412, Note_on_c, 0, 60, 81
1, 941426, Note_off_c, 0, 43, 62
1, 941428, Note_off_c, 0, 52, 62
1, 941432, Note_off_c, 0, 64, 65
1, 941456, Note_off_c, 0, 60, 67
1, 941466, Note_off_c, 0, 48, 62
1, 941580, Note_on_c, 0, 76, 106
1, 941583, Note_on_c, 0, 67, 97
1, 941586, Note_on_c, 0, 59, 99
1, 941586, Note_on_c, 0, 64, 101
1, 941588, Note_on_c, 0, 72, 90
1, 941589, Control_c, 0, 64, 87
1, 941590, Note_on_c, 0, 47, 86
1, 941604, Control_c, 0, 64, 62
1, 941619, Control_c, 0, 64, 44
1, 941634, Control_c, 0, 64, 60
1, 941648, Control_c, 0, 64, 73
1, 941663, Control_c, 0, 64, 127
1, 941685, Note_off_c, 0, 67, 62
1, 941690, Note_off_c, 0, 76, 62
1, 941708, Note_off_c, 0, 72, 63
1, 941759, Note_off_c, 0, 59, 56
1, 941762, Note_on_c, 0, 48, 58
1, 941795, Note_off_c, 0, 64, 59
1, 941804, Note_on_c, 0, 60, 68
1, 941809, Note_off_c, 0, 47, 60
1, 941821, Note_off_c, 0, 48, 61
1, 941827, Note_on_c, 0, 52, 69
1, 941858, Note_off_c, 0, 60, 63
1, 941876, Note_on_c, 0, 64, 70
1, 941895, Note_on_c, 0, 48, 63
1, 941911, Note_off_c, 0, 52, 58
1, 941926, Note_on_c, 0, 60, 69
1, 941940, Note_off_c, 0, 64, 60
1, 941981, Note_off_c, 0, 48, 63
1, 941983, Note_on_c, 0, 45, 75
1, 941985, Note_on_c, 0, 57, 89
1, 941989, Note_off_c, 0, 60, 64
1, 942057, Note_on_c, 0, 60, 75
1, 942078, Note_on_c, 0, 48, 72
1, 942095, Note_off_c, 0, 57, 57
1, 942105, Note_on_c, 0, 52, 75
1, 942115, Note_off_c, 0, 48, 63
1, 942123, Note_off_c, 0, 60, 65
1, 942125, Note_on_c, 0, 64, 76
1, 942145, Note_off_c, 0, 45, 61
1, 942171, Note_on_c, 0, 62, 35
1, 942178, Note_off_c, 0, 52, 65
1, 942179, Note_on_c, 0, 48, 77
1, 942181, Note_on_c, 0, 60, 74
1, 942192, Note_off_c, 0, 64, 62
1, 942212, Note_off_c, 0, 62, 51
1, 942250, Note_on_c, 0, 56, 101
1, 942251, Note_on_c, 0, 44, 87
1, 942252, Note_off_c, 0, 48, 61
1, 942263, Note_off_c, 0, 60, 62
1, 942321, Note_on_c, 0, 60, 68
1, 942323, Note_on_c, 0, 48, 71
1, 942347, Note_off_c, 0, 56, 61
1, 942361, Note_off_c, 0, 44, 57
1, 942388, Note_on_c, 0, 52, 76
1, 942393, Note_off_c, 0, 48, 62
1, 942396, Note_on_c, 0, 64, 59
1, 942397, Note_off_c, 0, 60, 63
1, 942461, Note_on_c, 0, 60, 71
1, 942466, Note_off_c, 0, 52, 64
1, 942473, Note_on_c, 0, 48, 59
1, 942475, Note_off_c, 0, 64, 62
1, 942519, Note_on_c, 0, 43, 87
1, 942525, Note_on_c, 0, 55, 100
1, 942532, Note_off_c, 0, 48, 63
1, 942555, Note_off_c, 0, 60, 65
1, 942584, Note_on_c, 0, 64, 13
1, 942613, Note_on_c, 0, 48, 73
1, 942616, Note_on_c, 0, 47, 57
1, 942617, Note_on_c, 0, 60, 75
1, 942622, Note_off_c, 0, 64, 46
1, 942626, Note_off_c, 0, 55, 60
1, 942628, Note_off_c, 0, 43, 60
1, 942671, Note_on_c, 0, 52, 84
1, 942672, Note_off_c, 0, 47, 63
1, 942674, Note_off_c, 0, 48, 62
1, 942693, Note_on_c, 0, 64, 88
1, 942701, Note_off_c, 0, 60, 65
1, 942746, Note_off_c, 0, 52, 66
1, 942746, Note_on_c, 0, 48, 67
1, 942771, Note_on_c, 0, 60, 91
1, 942771, Note_off_c, 0, 48, 66
1, 942804, Note_off_c, 0, 64, 62
1, 942835, Note_off_c, 0, 60, 64
1, 942977, Note_on_c, 0, 38, 94
1, 942982, Note_on_c, 0, 26, 90
1, 942998, Note_on_c, 0, 65, 105
1, 942999, Note_on_c, 0, 76, 100
1, 943002, Note_on_c, 0, 64, 97
1, 943013, Note_on_c, 0, 72, 77
1, 943027, Control_c, 0, 64, 95
1, 943041, Control_c, 0, 64, 61
1, 943056, Control_c, 0, 64, 0
1, 943101, Control_c, 0, 64, 9
1, 943116, Control_c, 0, 64, 60
1, 943122, Note_off_c, 0, 26, 62
1, 943131, Control_c, 0, 64, 86
1, 943145, Control_c, 0, 64, 127
1, 943175, Note_off_c, 0, 76, 60
1, 943181, Note_off_c, 0, 38, 63
1, 943184, Note_off_c, 0, 72, 61
1, 943237, Note_off_c, 0, 65, 55
1, 943292, Note_off_c, 0, 64, 55
1, 943339, Note_on_c, 0, 48, 62
1, 943348, Note_on_c, 0, 60, 71
1, 943389, Note_off_c, 0, 60, 64
1, 943414, Note_off_c, 0, 48, 62
1, 943417, Note_on_c, 0, 65, 72
1, 943419, Note_on_c, 0, 53, 66
1, 943470, Note_on_c, 0, 60, 77
1, 943497, Note_on_c, 0, 48, 52
1, 943497, Note_off_c, 0, 65, 58
1, 943501, Note_off_c, 0, 53, 60
1, 943532, Note_on_c, 0, 57, 87
1, 943540, Note_on_c, 0, 45, 76
1, 943540, Note_off_c, 0, 60, 64
1, 943545, Note_off_c, 0, 48, 65
1, 943600, Note_on_c, 0, 60, 63
1, 943627, Note_on_c, 0, 48, 80
1, 943652, Note_on_c, 0, 65, 83
1, 943688, Note_on_c, 0, 53, 76
1, 943709, Note_on_c, 0, 64, 73
1, 943724, Note_off_c, 0, 57, 60
1, 943736, Note_off_c, 0, 53, 64
1, 943737, Note_off_c, 0, 45, 63
1, 943742, Note_off_c, 0, 65, 62
1, 943743, Note_off_c, 0, 60, 57
1, 943751, Note_off_c, 0, 64, 59
1, 943763, Note_off_c, 0, 48, 63
1, 943842, Note_on_c, 0, 65, 101
1, 943846, Note_on_c, 0, 53, 96
1, 943848, Note_on_c, 0, 64, 90
1, 943851, Note_on_c, 0, 52, 86
1, 943852, Note_on_c, 0, 57, 84
1, 943864, Control_c, 0, 64, 115
1, 943879, Control_c, 0, 64, 81
1, 943894, Control_c, 0, 64, 66
1, 943909, Control_c, 0, 64, 62
1, 943923, Control_c, 0, 64, 68
1, 943938, Control_c, 0, 64, 85
1, 943953, Control_c, 0, 64, 127
1, 943967, Note_off_c, 0, 57, 56
1, 943992, Note_off_c, 0, 53, 54
1, 944017, Note_off_c, 0, 64, 56
1, 944027, Note_off_c, 0, 52, 63
1, 944041, Note_on_c, 0, 53, 48
1, 944084, Note_on_c, 0, 64, 57
1, 944117, Note_off_c, 0, 65, 51
1, 944126, Note_on_c, 0, 45, 61
1, 944137, Note_off_c, 0, 53, 61
1, 944180, Note_off_c, 0, 64, 62
1, 944183, Note_on_c, 0, 57, 65
1, 944237, Note_on_c, 0, 50, 75
1, 944251, Note_on_c, 0, 62, 79
1, 944269, Note_off_c, 0, 57, 60
1, 944300, Note_off_c, 0, 50, 63
1, 944303, Note_on_c, 0, 53, 72
1, 944305, Note_off_c, 0, 62, 63
1, 944308, Note_on_c, 0, 65, 76
1, 944353, Note_off_c, 0, 45, 51
1, 944361, Note_on_c, 0, 50, 75
1, 944377, Note_off_c, 0, 53, 64
1, 944379, Note_on_c, 0, 62, 79
1, 944412, Note_off_c, 0, 65, 57
1, 944436, Note_off_c, 0, 62, 63
1, 944442, Note_on_c, 0, 57, 79
1, 944442, Note_on_c, 0, 45, 77
1, 944442, Note_off_c, 0, 50, 64
1, 944508, Note_on_c, 0, 49, 83
1, 944511, Note_on_c, 0, 61, 88
1, 944521, Note_off_c, 0, 57, 62
1, 944541, Note_off_c, 0, 45, 62
1, 944560, Note_on_c, 0, 65, 79
1, 944571, Note_off_c, 0, 61, 62
1, 944579, Note_on_c, 0, 53, 80
1, 944583, Note_off_c, 0, 49, 63
1, 944625, Note_on_c, 0, 49, 66
1, 944625, Note_on_c, 0, 61, 72
1, 944651, Note_off_c, 0, 53, 62
1, 944661, Note_off_c, 0, 65, 63
1, 944682, Note_on_c, 0, 57, 79
1, 944696, Note_off_c, 0, 61, 63
1, 944698, Note_on_c, 0, 45, 83
1, 944704, Note_off_c, 0, 57, 71
1, 944708, Note_off_c, 0, 49, 63
1, 944763, Note_on_c, 0, 67, 100
1, 944765, Note_on_c, 0, 48, 80
1, 944772, Note_on_c, 0, 60, 88
1, 944782, Note_on_c, 0, 55, 83
1, 944794, Note_off_c, 0, 45, 62
1, 944824, Note_off_c, 0, 60, 65
1, 944828, Note_on_c, 0, 53, 78
1, 944833, Note_on_c, 0, 65, 71
1, 944864, Note_off_c, 0, 48, 0
1, 944879, Note_off_c, 0, 55, 62
1, 944891, Note_off_c, 0, 67, 56
1, 944895, Note_on_c, 0, 60, 66
1, 944901, Poly_aftertouch_c, 0, 48, 127
1, 944909, Note_on_c, 0, 45, 79
1, 944912, Note_off_c, 0, 53, 64
1, 944937, Poly_aftertouch_c, 0, 48, 0
1, 944940, Note_off_c, 0, 45, 67
1, 944965, Note_on_c, 0, 57, 88
1, 945012, Note_off_c, 0, 57, 60
1, 945080, Note_off_c, 0, 60, 0
1, 945095, Note_on_c, 0, 60, 45
1, 945096, Note_on_c, 0, 43, 100
1, 945097, Control_c, 0, 64, 73
1, 945099, Note_on_c, 0, 31, 92
1, 945100, Note_on_c, 0, 68, 99
1, 945103, Note_on_c, 0, 56, 103
1, 945111, Control_c, 0, 64, 0
1, 945133, Note_off_c, 0, 60, 61
1, 945146, Note_off_c, 0, 65, 51
1, 945155, Note_on_c, 0, 65, 10
1, 945156, Note_off_c, 0, 65, 127
1, 945170, Control_c, 0, 64, 55
1, 945185, Control_c, 0, 64, 78
1, 945186, Note_off_c, 0, 31, 63
1, 945195, Note_off_c, 0, 56, 62
1, 945200, Control_c, 0, 64, 127
1, 945217, Note_off_c, 0, 43, 65
1, 945232, Note_off_c, 0, 68, 61
1, 945241, Note_on_c, 0, 65, 63
1, 945286, Note_off_c, 0, 65, 61
1, 945315, Note_on_c, 0, 68, 62
1, 945358, Note_on_c, 0, 65, 61
1, 945369, Note_off_c, 0, 68, 53
1, 945379, Note_on_c, 0, 48, 74
1, 945423, Note_on_c, 0, 60, 82
1, 945429, Note_off_c, 0, 65, 64
1, 945479, Note_on_c, 0, 53, 81
1, 945497, Note_on_c, 0, 65, 76
1, 945527, Note_off_c, 0, 60, 61
1, 945569, Note_on_c, 0, 68, 84
1, 945570, Note_on_c, 0, 56, 83
1, 945571, Note_off_c, 0, 53, 63
1, 945572, Note_off_c, 0, 65, 65
1, 945635, Note_on_c, 0, 65, 83
1, 945640, Note_on_c, 0, 53, 82
1, 945655, Note_off_c, 0, 48, 53
1, 945656, Note_off_c, 0, 56, 65
1, 945657, Note_off_c, 0, 68, 59
1, 945688, Note_off_c, 0, 65, 62
1, 945691, Note_off_c, 0, 53, 66
1, 945798, Note_on_c, 0, 53, 88
1, 945828, Note_on_c, 0, 69, 99
1, 945832, Note_on_c, 0, 57, 96
1, 945840, Note_on_c, 0, 60, 87
1, 945840, Note_on_c, 0, 65, 78
1, 945846, Control_c, 0, 64, 82
1, 945860, Control_c, 0, 64, 52
1, 945875, Control_c, 0, 64, 0
1, 945919, Control_c, 0, 64, 41
1, 945934, Control_c, 0, 64, 69
1, 945949, Control_c, 0, 64, 120
1, 945950, Note_off_c, 0, 57, 66
1, 945959, Note_off_c, 0, 60, 64
1, 945964, Control_c, 0, 64, 127
1, 945980, Note_off_c, 0, 65, 60
1, 946015, Note_off_c, 0, 69, 62
1, 946052, Note_on_c, 0, 57, 74
1, 946073, Note_on_c, 0, 69, 80
1, 946134, Note_off_c, 0, 57, 63
1, 946141, Note_off_c, 0, 69, 63
1, 946146, Note_on_c, 0, 72, 75
1, 946150, Note_on_c, 0, 60, 59
1, 946214, Note_on_c, 0, 69, 82
1, 946233, Note_on_c, 0, 57, 73
1, 946234, Note_off_c, 0, 60, 63
1, 946254, Note_off_c, 0, 72, 59
1, 946297, Note_on_c, 0, 64, 87
1, 946302, Note_on_c, 0, 52, 78
1, 946311, Note_off_c, 0, 69, 62
1, 946314, Note_off_c, 0, 53, 60
1, 946314, Note_off_c, 0, 57, 64
1, 946385, Note_on_c, 0, 65, 77
1, 946394, Note_on_c, 0, 53, 77
1, 946409, Note_off_c, 0, 64, 53
1, 946435, Note_on_c, 0, 69, 83
1, 946439, Note_off_c, 0, 65, 64
1, 946454, Note_on_c, 0, 57, 72
1, 946457, Note_off_c, 0, 53, 63
1, 946498, Note_on_c, 0, 65, 78
1, 946513, Note_off_c, 0, 52, 62
1, 946514, Note_on_c, 0, 53, 70
1, 946523, Note_off_c, 0, 69, 61
1, 946529, Note_off_c, 0, 57, 58
1, 946559, Note_on_c, 0, 62, 85
1, 946562, Note_off_c, 0, 65, 60
1, 946564, Note_on_c, 0, 50, 81
1, 946578, Note_off_c, 0, 53, 63
1, 946623, Note_off_c, 0, 62, 64
1, 946627, Note_on_c, 0, 65, 82
1, 946639, Note_on_c, 0, 53, 77
1, 946690, Note_on_c, 0, 69, 88
1, 946693, Note_off_c, 0, 65, 64
1, 946705, Note_on_c, 0, 57, 78
1, 946708, Note_off_c, 0, 50, 59
1, 946714, Note_off_c, 0, 53, 61
1, 946752, Note_on_c, 0, 65, 73
1, 946785, Note_off_c, 0, 69, 53
1, 946791, Note_on_c, 0, 53, 60
1, 946801, Note_off_c, 0, 57, 52
1, 946809, Note_on_c, 0, 60, 86
1, 946810, Note_on_c, 0, 48, 83
1, 946821, Note_off_c, 0, 53, 63
1, 946821, Note_off_c, 0, 65, 63
1, 946888, Note_on_c, 0, 65, 80
1, 946894, Note_on_c, 0, 53, 86
1, 946921, Note_off_c, 0, 60, 58
1, 946922, Note_off_c, 0, 48, 64
1, 946956, Note_on_c, 0, 57, 78
1, 946961, Note_on_c, 0, 69, 99
1, 946977, Note_off_c, 0, 65, 63
1, 947042, Note_on_c, 0, 48, 86
1, 947062, Note_off_c, 0, 57, 65
1, 947072, Note_off_c, 0, 53, 60
1, 947075, Note_on_c, 0, 72, 101
1, 947080, Note_on_c, 0, 67, 84
1, 947082, Note_on_c, 0, 60, 95
1, 947082, Note_on_c, 0, 64, 88
1, 947108, Note_off_c, 0, 69, 58
1, 947109, Note_off_c, 0, 48, 64
1, 947232, Note_off_c, 0, 60, 59
1, 947239, Note_off_c, 0, 72, 59
1, 947270, Note_off_c, 0, 64, 57
1, 947285, Note_off_c, 0, 67, 57
1, 947331, Note_on_c, 0, 36, 86
1, 947337, Note_on_c, 0, 24, 80
1, 947350, Note_on_c, 0, 72, 95
1, 947354, Note_on_c, 0, 60, 93
1, 947362, Note_on_c, 0, 64, 77
1, 947363, Note_on_c, 0, 67, 75
1, 947372, Control_c, 0, 64, 101
1, 947387, Control_c, 0, 64, 61
1, 947402, Control_c, 0, 64, 0
1, 947491, Note_off_c, 0, 24, 58
1, 947491, Control_c, 0, 64, 44
1, 947505, Control_c, 0, 64, 66
1, 947520, Control_c, 0, 64, 86
1, 947535, Control_c, 0, 64, 127
1, 947567, Note_off_c, 0, 72, 59
1, 947579, Note_off_c, 0, 67, 61
1, 947581, Note_off_c, 0, 36, 61
1, 947608, Note_off_c, 0, 64, 60
1, 947694, Note_off_c, 0, 60, 62
1, 947751, Note_on_c, 0, 48, 50
1, 947769, Note_on_c, 0, 60, 45
1, 947802, Note_off_c, 0, 48, 58
1, 947814, Note_off_c, 0, 60, 63
1, 947835, Note_on_c, 0, 52, 51
1, 947855, Note_on_c, 0, 64, 42
1, 947899, Note_off_c, 0, 64, 60
1, 947907, Note_off_c, 0, 52, 55
1, 947909, Note_on_c, 0, 60, 55
1, 947936, Note_on_c, 0, 48, 41
1, 947975, Note_on_c, 0, 43, 49
1, 947978, Note_off_c, 0, 48, 61
1, 947979, Note_off_c, 0, 60, 62
1, 947980, Note_on_c, 0, 55, 70
1, 948079, Note_on_c, 0, 60, 60
1, 948080, Note_on_c, 0, 48, 54
1, 948126, Note_off_c, 0, 55, 60
1, 948135, Note_off_c, 0, 48, 58
1, 948141, Note_off_c, 0, 60, 64
1, 948150, Note_on_c, 0, 64, 65
1, 948157, Note_on_c, 0, 52, 54
1, 948213, Note_on_c, 0, 60, 65
1, 948225, Note_off_c, 0, 52, 55
1, 948236, Note_on_c, 0, 48, 52
1, 948246, Note_off_c, 0, 64, 55
1, 948306, Note_off_c, 0, 48, 60
1, 948308, Note_on_c, 0, 47, 62
1, 948325, Note_on_c, 0, 59, 80
1, 948328, Note_off_c, 0, 60, 62
1, 948402, Note_on_c, 0, 48, 58
1, 948408, Note_off_c, 0, 43, 36
1, 948411, Note_on_c, 0, 60, 55
1, 948461, Note_off_c, 0, 48, 60
1, 948466, Note_off_c, 0, 60, 63
1, 948475, Note_on_c, 0, 64, 53
1, 948478, Note_on_c, 0, 52, 58
1, 948539, Note_on_c, 0, 60, 65
1, 948544, Note_off_c, 0, 59, 63
1, 948561, Note_on_c, 0, 48, 59
1, 948563, Note_off_c, 0, 52, 59
1, 948586, Note_off_c, 0, 64, 53
1, 948612, Note_off_c, 0, 48, 61
1, 948616, Note_on_c, 0, 45, 70
1, 948633, Note_on_c, 0, 57, 89
1, 948642, Note_off_c, 0, 60, 59
1, 948643, Note_off_c, 0, 47, 52
1, 948657, Note_on_c, 0, 64, 39
1, 948695, Note_off_c, 0, 64, 62
1, 948696, Note_on_c, 0, 48, 63
1, 948714, Note_on_c, 0, 60, 58
1, 948749, Note_off_c, 0, 48, 62
1, 948761, Note_on_c, 0, 52, 64
1, 948761, Note_off_c, 0, 60, 60
1, 948780, Note_on_c, 0, 64, 71
1, 948806, Note_off_c, 0, 57, 63
1, 948835, Note_on_c, 0, 60, 64
1, 948835, Note_off_c, 0, 52, 62
1, 948836, Note_off_c, 0, 64, 62
1, 948839, Note_on_c, 0, 48, 65
1, 948908, Note_off_c, 0, 48, 63
1, 948908, Note_on_c, 0, 44, 75
1, 948909, Note_on_c, 0, 56, 92
1, 948919, Note_off_c, 0, 60, 64
1, 948944, Control_c, 0, 64, 110
1, 948959, Control_c, 0, 64, 88
1, 948962, Note_off_c, 0, 45, 22
1, 948974, Control_c, 0, 64, 78
1, 948978, Note_on_c, 0, 48, 57
1, 948989, Control_c, 0, 64, 74
1, 948997, Note_on_c, 0, 60, 62
1, 949003, Control_c, 0, 64, 75
1, 949018, Control_c, 0, 64, 78
1, 949033, Control_c, 0, 64, 82
1, 949043, Note_off_c, 0, 48, 61
1, 949045, Note_off_c, 0, 60, 63
1, 949048, Control_c, 0, 64, 88
1, 949053, Note_on_c, 0, 52, 64
1, 949056, Note_on_c, 0, 64, 63
1, 949063, Control_c, 0, 64, 104
1, 949077, Control_c, 0, 64, 127
1, 949093, Note_off_c, 0, 56, 58
1, 949095, Note_off_c, 0, 44, 60
1, 949128, Note_off_c, 0, 64, 57
1, 949130, Note_on_c, 0, 60, 64
1, 949140, Note_on_c, 0, 48, 51
1, 949140, Note_off_c, 0, 52, 59
1, 949188, Note_off_c, 0, 48, 53
1, 949192, Note_on_c, 0, 43, 67
1, 949203, Note_on_c, 0, 55, 77
1, 949203, Note_off_c, 0, 60, 62
1, 949211, Control_c, 0, 64, 113
1, 949226, Control_c, 0, 64, 86
1, 949241, Control_c, 0, 64, 69
1, 949256, Control_c, 0, 64, 62
1, 949270, Control_c, 0, 64, 63
1, 949278, Note_on_c, 0, 48, 20
1, 949285, Control_c, 0, 64, 65
1, 949297, Note_on_c, 0, 60, 47
1, 949307, Control_c, 0, 64, 68
1, 949322, Control_c, 0, 64, 73
1, 949337, Control_c, 0, 64, 86
1, 949342, Note_off_c, 0, 48, 40
1, 949345, Note_on_c, 0, 52, 58
1, 949346, Note_off_c, 0, 60, 63
1, 949352, Control_c, 0, 64, 127
1, 949376, Note_on_c, 0, 64, 58
1, 949387, Note_off_c, 0, 52, 62
1, 949409, Note_off_c, 0, 43, 61
1, 949412, Note_off_c, 0, 55, 59
1, 949423, Note_off_c, 0, 64, 61
1, 949433, Poly_aftertouch_c, 0, 48, 127
1, 949460, Poly_aftertouch_c, 0, 48, 0
1, 949469, Note_on_c, 0, 60, 49
1, 949584, Note_on_c, 0, 36, 51
1, 949618, Control_c, 0, 64, 103
1, 949626, Note_on_c, 0, 42, 43
1, 949633, Control_c, 0, 64, 77
1, 949648, Control_c, 0, 64, 62
1, 949653, Note_off_c, 0, 60, 47
1, 949655, Note_on_c, 0, 54, 59
1, 949663, Control_c, 0, 64, 38
1, 949678, Control_c, 0, 64, 34
1, 949692, Control_c, 0, 64, 51
1, 949708, Control_c, 0, 64, 61
1, 949723, Control_c, 0, 64, 67
1, 949738, Control_c, 0, 64, 75
1, 949741, Note_off_c, 0, 36, 59
1, 949752, Control_c, 0, 64, 91
1, 949767, Control_c, 0, 64, 127
1, 949792, Note_off_c, 0, 42, 61
1, 949826, Note_on_c, 0, 60, 41
1, 949843, Note_off_c, 0, 54, 50
1, 949865, Note_off_c, 0, 60, 63
1, 949908, Note_on_c, 0, 63, 38
1, 949916, Note_on_c, 0, 48, 23
1, 949945, Note_off_c, 0, 63, 50
1, 949959, Note_on_c, 0, 60, 56
1, 949968, Note_off_c, 0, 48, 46
1, 949995, Note_off_c, 0, 60, 65
1, 950009, Note_on_c, 0, 43, 43
1, 950013, Note_on_c, 0, 55, 65
1, 950090, Note_on_c, 0, 60, 58
1, 950121, Note_on_c, 0, 48, 41
1, 950122, Note_off_c, 0, 43, 59
1, 950126, Note_off_c, 0, 60, 64
1, 950148, Note_off_c, 0, 48, 58
1, 950148, Note_on_c, 0, 63, 62
1, 950175, Note_off_c, 0, 55, 61
1, 950189, Poly_aftertouch_c, 0, 51, 127
1, 950221, Note_off_c, 0, 63, 60
1, 950231, Poly_aftertouch_c, 0, 51, 0
1, 950265, Note_on_c, 0, 47, 65
1, 950267, Note_on_c, 0, 59, 79
1, 950267, Poly_aftertouch_c, 0, 60, 127
1, 950289, Poly_aftertouch_c, 0, 60, 0
1, 950307, Control_c, 0, 64, 103
1, 950322, Control_c, 0, 64, 86
1, 950337, Control_c, 0, 64, 74
1, 950342, Note_on_c, 0, 51, 48
1, 950350, Note_on_c, 0, 63, 59
1, 950351, Control_c, 0, 64, 68
1, 950366, Control_c, 0, 64, 67
1, 950381, Control_c, 0, 64, 69
1, 950382, Note_off_c, 0, 51, 63
1, 950386, Note_off_c, 0, 63, 63
1, 950395, Note_on_c, 0, 55, 50
1, 950396, Control_c, 0, 64, 71
1, 950407, Note_on_c, 0, 67, 64
1, 950411, Control_c, 0, 64, 74
1, 950425, Note_off_c, 0, 59, 62
1, 950426, Control_c, 0, 64, 83
1, 950440, Note_off_c, 0, 47, 36
1, 950440, Control_c, 0, 64, 104
1, 950455, Control_c, 0, 64, 127
1, 950457, Note_off_c, 0, 55, 58
1, 950467, Note_on_c, 0, 63, 62
1, 950480, Note_on_c, 0, 51, 55
1, 950525, Note_off_c, 0, 63, 61
1, 950528, Note_on_c, 0, 60, 87
1, 950530, Note_off_c, 0, 51, 62
1, 950538, Note_on_c, 0, 48, 71
1, 950545, Control_c, 0, 64, 104
1, 950560, Control_c, 0, 64, 81
1, 950574, Control_c, 0, 64, 68
1, 950585, Note_off_c, 0, 67, 25
1, 950589, Control_c, 0, 64, 60
1, 950601, Note_on_c, 0, 63, 61
1, 950619, Control_c, 0, 64, 63
1, 950632, Note_on_c, 0, 51, 58
1, 950634, Control_c, 0, 64, 64
1, 950643, Note_off_c, 0, 48, 60
1, 950648, Control_c, 0, 64, 67
1, 950651, Note_on_c, 0, 55, 56
1, 950653, Note_off_c, 0, 63, 61
1, 950663, Control_c, 0, 64, 73
1, 950676, Note_off_c, 0, 51, 54
1, 950678, Control_c, 0, 64, 88
1, 950690, Note_on_c, 0, 67, 56
1, 950693, Control_c, 0, 64, 127
1, 950709, Note_off_c, 0, 60, 63
1, 950714, Note_off_c, 0, 55, 59
1, 950726, Note_on_c, 0, 63, 47
1, 950732, Note_off_c, 0, 67, 59
1, 950756, Note_off_c, 0, 63, 54
1, 950791, Note_on_c, 0, 50, 56
1, 950808, Note_on_c, 0, 62, 79
1, 950834, Control_c, 0, 64, 90
1, 950849, Control_c, 0, 64, 73
1, 950863, Control_c, 0, 64, 61
1, 950878, Control_c, 0, 64, 46
1, 950884, Note_on_c, 0, 67, 52
1, 950893, Control_c, 0, 64, 44
1, 950896, Note_on_c, 0, 55, 43
1, 950908, Control_c, 0, 64, 50
1, 950923, Control_c, 0, 64, 54
1, 950938, Control_c, 0, 64, 57
1, 950941, Note_off_c, 0, 67, 61
1, 950945, Note_off_c, 0, 55, 57
1, 950948, Note_off_c, 0, 62, 60
1, 950952, Control_c, 0, 64, 62
1, 950967, Control_c, 0, 64, 67
1, 950968, Note_on_c, 0, 60, 47
1, 950972, Note_on_c, 0, 72, 52
1, 950982, Control_c, 0, 64, 75
1, 950997, Control_c, 0, 64, 92
1, 951012, Control_c, 0, 64, 127
1, 951012, Note_off_c, 0, 72, 61
1, 951033, Note_off_c, 0, 60, 51
1, 951036, Note_on_c, 0, 67, 47
1, 951045, Note_on_c, 0, 55, 44
1, 951081, Note_off_c, 0, 67, 60
1, 951096, Note_off_c, 0, 55, 55
1, 951100, Note_on_c, 0, 63, 55
1, 951100, Note_off_c, 0, 50, 34
1, 951110, Note_on_c, 0, 51, 50
1, 951145, Control_c, 0, 64, 95
1, 951160, Control_c, 0, 64, 78
1, 951174, Control_c, 0, 64, 66
1, 951189, Control_c, 0, 64, 54
1, 951204, Control_c, 0, 64, 48
1, 951212, Note_on_c, 0, 67, 42
1, 951219, Control_c, 0, 64, 54
1, 951221, Note_on_c, 0, 55, 29
1, 951234, Control_c, 0, 64, 56
1, 951248, Control_c, 0, 64, 59
1, 951258, Note_off_c, 0, 67, 62
1, 951263, Control_c, 0, 64, 63
1, 951269, Note_off_c, 0, 55, 46
1, 951278, Control_c, 0, 64, 67
1, 951292, Note_on_c, 0, 72, 45
1, 951293, Control_c, 0, 64, 75
1, 951307, Note_on_c, 0, 60, 34
1, 951309, Control_c, 0, 64, 88
1, 951324, Control_c, 0, 64, 117
1, 951339, Control_c, 0, 64, 127
1, 951364, Note_off_c, 0, 72, 55
1, 951368, Control_c, 0, 67, 15
1, 951376, Note_off_c, 0, 60, 40
1, 951383, Control_c, 0, 67, 31
1, 951397, Note_on_c, 0, 67, 26
1, 951397, Control_c, 0, 67, 47
1, 951403, Note_on_c, 0, 55, 41
1, 951412, Control_c, 0, 67, 64
1, 951427, Control_c, 0, 67, 83
1, 951430, Note_off_c, 0, 63, 54
1, 951432, Note_off_c, 0, 67, 48
1, 951438, Note_off_c, 0, 55, 61
1, 951441, Note_off_c, 0, 51, 51
1, 951442, Control_c, 0, 67, 101
1, 951457, Control_c, 0, 67, 122
1, 951471, Control_c, 0, 67, 127
1, 951664, Note_on_c, 0, 51, 43
1, 951674, Note_on_c, 0, 39, 42
1, 951686, Control_c, 0, 64, 110
1, 951700, Note_on_c, 0, 46, 35
1, 951701, Control_c, 0, 64, 78
1, 951714, Note_on_c, 0, 67, 72
1, 951716, Control_c, 0, 64, 59
1, 951730, Control_c, 0, 64, 0
1, 951733, Note_on_c, 0, 63, 46
1, 951744, Note_on_c, 0, 55, 52
1, 951748, Note_on_c, 0, 58, 41
1, 951775, Control_c, 0, 64, 35
1, 951790, Control_c, 0, 64, 58
1, 951804, Control_c, 0, 64, 69
1, 951814, Note_off_c, 0, 39, 51
1, 951819, Control_c, 0, 64, 86
1, 951834, Control_c, 0, 64, 127
1, 951836, Note_off_c, 0, 55, 61
1, 951840, Note_off_c, 0, 46, 54
1, 951845, Note_off_c, 0, 51, 61
1, 951856, Note_off_c, 0, 58, 63
1, 951881, Note_off_c, 0, 63, 63
1, 951915, Note_off_c, 0, 67, 62
1, 952115, Note_on_c, 0, 67, 27
1, 952133, Note_on_c, 0, 79, 48
1, 952146, Note_off_c, 0, 67, 56
1, 952176, Note_off_c, 0, 79, 62
1, 952200, Note_on_c, 0, 63, 34
1, 952241, Note_on_c, 0, 75, 35
1, 952246, Note_off_c, 0, 63, 51
1, 952252, Note_on_c, 0, 67, 43
1, 952273, Note_off_c, 0, 75, 54
1, 952317, Note_on_c, 0, 79, 45
1, 952326, Note_off_c, 0, 67, 55
1, 952372, Note_on_c, 0, 70, 49
1, 952378, Note_off_c, 0, 79, 63
1, 952386, Note_on_c, 0, 82, 72
1, 952440, Note_off_c, 0, 70, 54
1, 952464, Note_on_c, 0, 67, 37
1, 952467, Note_on_c, 0, 79, 50
1, 952491, Note_off_c, 0, 67, 54
1, 952493, Note_off_c, 0, 82, 58
1, 952500, Note_off_c, 0, 79, 66
1, 952506, Note_on_c, 0, 63, 53
1, 952529, Note_on_c, 0, 75, 52
1, 952550, Note_off_c, 0, 63, 62
1, 952569, Note_off_c, 0, 75, 62
1, 952583, Note_on_c, 0, 79, 58
1, 952691, Note_off_c, 0, 79, 53
1, 952693, Note_on_c, 0, 55, 76
1, 952738, Note_on_c, 0, 81, 60
1, 952746, Note_on_c, 0, 69, 50
1, 952783, Note_off_c, 0, 69, 46
1, 952815, Note_off_c, 0, 81, 61
1, 952821, Note_on_c, 0, 79, 59
1, 952836, Note_off_c, 0, 55, 57
1, 952863, Note_off_c, 0, 79, 63
1, 952872, Note_on_c, 0, 67, 39
1, 952904, Note_on_c, 0, 75, 56
1, 952944, Note_off_c, 0, 75, 61
1, 952961, Note_off_c, 0, 67, 45
1, 952971, Note_on_c, 0, 79, 54
1, 952992, Note_on_c, 0, 70, 53
1, 953006, Note_off_c, 0, 79, 66
1, 953023, Note_on_c, 0, 82, 70
1, 953049, Note_off_c, 0, 70, 53
1, 953096, Note_on_c, 0, 79, 69
1, 953120, Note_on_c, 0, 67, 49
1, 953127, Note_off_c, 0, 82, 62
1, 953129, Note_on_c, 0, 63, 37
1, 953149, Note_off_c, 0, 79, 64
1, 953152, Note_off_c, 0, 67, 64
1, 953173, Note_on_c, 0, 75, 39
1, 953173, Note_off_c, 0, 63, 63
1, 953199, Note_off_c, 0, 75, 49
1, 953260, Note_on_c, 0, 63, 34
1, 953274, Note_on_c, 0, 75, 71
1, 953318, Note_off_c, 0, 63, 55
1, 953321, Note_on_c, 0, 70, 61
1, 953334, Note_on_c, 0, 58, 42
1, 953360, Note_off_c, 0, 70, 58
1, 953362, Note_off_c, 0, 75, 54
1, 953382, Note_on_c, 0, 55, 49
1, 953405, Note_on_c, 0, 67, 52
1, 953427, Note_off_c, 0, 58, 43
1, 953431, Note_off_c, 0, 55, 62
1, 953461, Note_off_c, 0, 67, 53
1, 953481, Note_on_c, 0, 63, 38
1, 953494, Note_on_c, 0, 70, 44
1, 953543, Note_off_c, 0, 63, 56
1, 953558, Note_off_c, 0, 70, 57
1, 953567, Note_on_c, 0, 56, 78
1, 953606, Note_on_c, 0, 77, 60
1, 953612, Note_on_c, 0, 65, 51
1, 953628, Control_c, 0, 64, 107
1, 953642, Control_c, 0, 64, 91
1, 953657, Control_c, 0, 64, 85
1, 953671, Note_on_c, 0, 75, 52
1, 953672, Note_off_c, 0, 77, 52
1, 953672, Control_c, 0, 64, 84
1, 953683, Note_off_c, 0, 65, 53
1, 953683, Note_on_c, 0, 63, 42
1, 953687, Control_c, 0, 64, 84
1, 953703, Control_c, 0, 64, 86
1, 953705, Note_off_c, 0, 75, 62
1, 953711, Note_off_c, 0, 63, 56
1, 953718, Control_c, 0, 64, 91
1, 953728, Note_on_c, 0, 58, 59
1, 953730, Note_on_c, 0, 70, 55
1, 953733, Control_c, 0, 64, 99
1, 953746, Note_off_c, 0, 56, 57
1, 953747, Control_c, 0, 64, 115
1, 953762, Control_c, 0, 64, 127
1, 953766, Note_off_c, 0, 58, 64
1, 953766, Note_off_c, 0, 70, 62
1, 953784, Note_on_c, 0, 75, 68
1, 953799, Note_on_c, 0, 63, 61
1, 953828, Note_off_c, 0, 63, 59
1, 953850, Note_off_c, 0, 75, 60
1, 953851, Note_on_c, 0, 57, 85
1, 953856, Note_on_c, 0, 78, 78
1, 953870, Note_on_c, 0, 66, 62
1, 953873, Control_c, 0, 64, 95
1, 953888, Control_c, 0, 64, 79
1, 953903, Control_c, 0, 64, 67
1, 953918, Control_c, 0, 64, 64
1, 953933, Control_c, 0, 64, 66
1, 953938, Note_on_c, 0, 63, 56
1, 953946, Note_off_c, 0, 66, 58
1, 953947, Control_c, 0, 64, 69
1, 953948, Note_off_c, 0, 78, 57
1, 953962, Control_c, 0, 64, 74
1, 953964, Note_on_c, 0, 75, 23
1, 953973, Note_off_c, 0, 63, 65
1, 953977, Note_on_c, 0, 70, 68
1, 953977, Control_c, 0, 64, 85
1, 953986, Note_on_c, 0, 58, 74
1, 953992, Control_c, 0, 64, 127
1, 954004, Note_off_c, 0, 57, 61
1, 954021, Note_off_c, 0, 75, 0
1, 954021, Note_on_c, 0, 75, 43
1, 954034, Note_off_c, 0, 58, 61
1, 954039, Note_off_c, 0, 70, 61
1, 954054, Note_on_c, 0, 63, 64
1, 954100, Note_off_c, 0, 63, 56
1, 954107, Note_on_c, 0, 58, 94
1, 954121, Note_off_c, 0, 75, 62
1, 954139, Note_on_c, 0, 79, 62
1, 954140, Control_c, 0, 64, 109
1, 954141, Note_on_c, 0, 67, 63
1, 954154, Control_c, 0, 64, 80
1, 954169, Control_c, 0, 64, 64
1, 954184, Control_c, 0, 64, 45
1, 954199, Control_c, 0, 64, 49
1, 954214, Note_on_c, 0, 75, 59
1, 954214, Control_c, 0, 64, 58
1, 954217, Note_off_c, 0, 79, 61
1, 954228, Control_c, 0, 64, 62
1, 954243, Control_c, 0, 64, 68
1, 954252, Note_off_c, 0, 75, 62
1, 954256, Note_off_c, 0, 67, 53
1, 954258, Control_c, 0, 64, 81
1, 954270, Note_on_c, 0, 70, 66
1, 954273, Control_c, 0, 64, 127
1, 954291, Note_off_c, 0, 58, 62
1, 954318, Note_off_c, 0, 70, 57
1, 954332, Note_on_c, 0, 75, 70
1, 954455, Note_on_c, 0, 63, 77
1, 954459, Note_off_c, 0, 75, 61
1, 954476, Note_on_c, 0, 78, 69
1, 954494, Note_on_c, 0, 66, 32
1, 954496, Control_c, 0, 64, 106
1, 954511, Control_c, 0, 64, 82
1, 954526, Control_c, 0, 64, 67
1, 954528, Note_off_c, 0, 66, 49
1, 954548, Control_c, 0, 64, 56
1, 954563, Control_c, 0, 64, 53
1, 954577, Control_c, 0, 64, 58
1, 954583, Note_on_c, 0, 73, 62
1, 954592, Control_c, 0, 64, 60
1, 954596, Note_off_c, 0, 78, 58
1, 954601, Note_on_c, 0, 75, 53
1, 954607, Control_c, 0, 64, 63
1, 954622, Control_c, 0, 64, 68
1, 954637, Control_c, 0, 64, 78
1, 954642, Note_off_c, 0, 75, 62
1, 954652, Control_c, 0, 64, 111
1, 954655, Note_off_c, 0, 73, 63
1, 954667, Note_on_c, 0, 66, 52
1, 954667, Control_c, 0, 64, 127
1, 954677, Note_on_c, 0, 70, 45
1, 954709, Note_off_c, 0, 70, 62
1, 954722, Note_off_c, 0, 66, 53
1, 954724, Note_on_c, 0, 75, 65
1, 954729, Note_on_c, 0, 73, 50
1, 954760, Note_off_c, 0, 75, 61
1, 954765, Note_off_c, 0, 73, 61
1, 954777, Note_on_c, 0, 67, 53
1, 954786, Note_on_c, 0, 79, 66
1, 954804, Note_off_c, 0, 67, 63
1, 954834, Note_on_c, 0, 75, 69
1, 954852, Note_off_c, 0, 79, 64
1, 954871, Note_off_c, 0, 75, 61
1, 954881, Note_on_c, 0, 67, 62
1, 954888, Note_on_c, 0, 70, 69
1, 954902, Note_off_c, 0, 63, 62
1, 954917, Note_off_c, 0, 67, 60
1, 954929, Note_on_c, 0, 73, 63
1, 954937, Note_on_c, 0, 75, 70
1, 954937, Note_off_c, 0, 70, 59
1, 954968, Note_off_c, 0, 73, 57
1, 954992, Note_on_c, 0, 62, 82
1, 954993, Note_off_c, 0, 75, 59
1, 955000, Note_on_c, 0, 78, 85
1, 955057, Note_on_c, 0, 73, 53
1, 955072, Note_on_c, 0, 75, 62
1, 955100, Note_off_c, 0, 78, 61
1, 955103, Note_off_c, 0, 75, 64
1, 955111, Note_on_c, 0, 70, 65
1, 955125, Note_off_c, 0, 73, 64
1, 955141, Note_on_c, 0, 66, 27
1, 955170, Note_off_c, 0, 70, 62
1, 955176, Note_off_c, 0, 66, 52
1, 955185, Note_on_c, 0, 75, 56
1, 955191, Note_on_c, 0, 67, 55
1, 955227, Note_off_c, 0, 62, 58
1, 955236, Note_off_c, 0, 67, 56
1, 955238, Note_off_c, 0, 75, 58
1, 955258, Note_on_c, 0, 79, 69
1, 955343, Note_on_c, 0, 75, 68
1, 955395, Note_off_c, 0, 79, 35
1, 955406, Note_on_c, 0, 61, 89
1, 955409, Note_off_c, 0, 75, 59
1, 955422, Note_on_c, 0, 70, 65
1, 955453, Note_off_c, 0, 61, 64
1, 955504, Note_off_c, 0, 70, 59
1, 955523, Note_on_c, 0, 75, 49
1, 955553, Note_off_c, 0, 75, 60
1, 955623, Control_c, 0, 64, 86
1, 955632, Note_on_c, 0, 61, 64
1, 955638, Control_c, 0, 64, 66
1, 955652, Control_c, 0, 64, 42
1, 955654, Note_on_c, 0, 51, 52
1, 955667, Control_c, 0, 64, 36
1, 955682, Control_c, 0, 64, 52
1, 955684, Note_on_c, 0, 81, 60
1, 955697, Control_c, 0, 64, 61
1, 955712, Control_c, 0, 64, 68
1, 955714, Note_on_c, 0, 69, 38
1, 955726, Control_c, 0, 64, 80
1, 955732, Note_off_c, 0, 51, 62
1, 955741, Control_c, 0, 64, 125
1, 955756, Control_c, 0, 64, 127
1, 955764, Note_off_c, 0, 61, 63
1, 955799, Note_off_c, 0, 81, 53
1, 955820, Note_on_c, 0, 78, 39
1, 955868, Note_off_c, 0, 78, 60
1, 955878, Note_off_c, 0, 69, 0
1, 955894, Note_on_c, 0, 69, 39
1, 955904, Note_on_c, 0, 73, 52
1, 955921, Note_on_c, 0, 66, 47
1, 955951, Note_off_c, 0, 73, 57
1, 955962, Note_off_c, 0, 66, 62
1, 955975, Note_off_c, 0, 69, 56
1, 955981, Note_on_c, 0, 75, 43
1, 955999, Note_on_c, 0, 78, 35
1, 956025, Note_off_c, 0, 75, 57
1, 956031, Note_off_c, 0, 78, 56
1, 956058, Note_on_c, 0, 82, 57
1, 956089, Note_on_c, 0, 66, 33
1, 956092, Note_on_c, 0, 70, 33
1, 956121, Note_off_c, 0, 66, 52
1, 956123, Note_off_c, 0, 70, 53
1, 956139, Note_on_c, 0, 78, 50
1, 956142, Note_off_c, 0, 82, 57
1, 956142, Note_on_c, 0, 75, 50
1, 956160, Note_off_c, 0, 78, 61
1, 956169, Note_off_c, 0, 75, 56
1, 956177, Note_on_c, 0, 73, 58
1, 956214, Note_off_c, 0, 73, 61
1, 956232, Note_on_c, 0, 66, 16
1, 956241, Note_on_c, 0, 70, 9
1, 956241, Note_on_c, 0, 78, 57
1, 956258, Note_on_c, 0, 75, 54
1, 956271, Note_off_c, 0, 70, 0
1, 956276, Note_off_c, 0, 78, 65
1, 956291, Note_off_c, 0, 75, 57
1, 956292, Note_off_c, 0, 66, 0
1, 956298, Note_on_c, 0, 81, 62
1, 956300, Poly_aftertouch_c, 0, 70, 0
1, 956303, Note_on_c, 0, 66, 50
1, 956315, Note_on_c, 0, 69, 60
1, 956346, Note_off_c, 0, 69, 65
1, 956347, Note_off_c, 0, 66, 60
1, 956348, Note_off_c, 0, 81, 56
1, 956353, Note_on_c, 0, 78, 64
1, 956383, Note_off_c, 0, 78, 65
1, 956385, Note_on_c, 0, 75, 50
1, 956397, Note_on_c, 0, 73, 67
1, 956419, Note_off_c, 0, 75, 48
1, 956422, Note_on_c, 0, 69, 62
1, 956440, Note_on_c, 0, 66, 52
1, 956443, Note_off_c, 0, 73, 56
1, 956445, Note_on_c, 0, 78, 74
1, 956449, Note_off_c, 0, 69, 67
1, 956464, Note_off_c, 0, 66, 58
1, 956485, Note_on_c, 0, 75, 35
1, 956506, Note_off_c, 0, 78, 62
1, 956518, Note_off_c, 0, 75, 49
1, 956521, Note_on_c, 0, 82, 78
1, 956540, Note_on_c, 0, 66, 67
1, 956562, Note_on_c, 0, 70, 27
1, 956572, Note_off_c, 0, 66, 63
1, 956582, Note_on_c, 0, 78, 64
1, 956604, Note_on_c, 0, 75, 56
1, 956610, Note_off_c, 0, 70, 39
1, 956613, Note_off_c, 0, 82, 63
1, 956617, Note_off_c, 0, 78, 64
1, 956631, Note_on_c, 0, 73, 71
1, 956640, Note_on_c, 0, 66, 46
1, 956658, Note_off_c, 0, 66, 63
1, 956664, Note_on_c, 0, 70, 21
1, 956666, Note_off_c, 0, 75, 40
1, 956674, Note_on_c, 0, 78, 71
1, 956692, Note_off_c, 0, 73, 60
1, 956708, Note_off_c, 0, 70, 61
1, 956732, Note_off_c, 0, 78, 59
1, 956753, Note_on_c, 0, 61, 87
1, 956761, Note_on_c, 0, 81, 76
1, 956764, Note_on_c, 0, 69, 59
1, 956809, Note_off_c, 0, 61, 65
1, 956810, Note_off_c, 0, 69, 46
1, 956846, Note_off_c, 0, 81, 60
1, 956852, Note_on_c, 0, 78, 60
1, 956873, Note_on_c, 0, 75, 55
1, 956875, Note_off_c, 0, 78, 64
1, 956884, Note_on_c, 0, 66, 63
1, 956887, Note_on_c, 0, 73, 71
1, 956924, Note_off_c, 0, 66, 60
1, 956942, Note_off_c, 0, 73, 61
1, 956944, Note_on_c, 0, 78, 74
1, 956971, Note_off_c, 0, 75, 56
1, 956985, Note_on_c, 0, 70, 60
1, 957008, Note_off_c, 0, 78, 61
1, 957016, Note_on_c, 0, 82, 73
1, 957029, Note_on_c, 0, 66, 23
1, 957032, Note_off_c, 0, 70, 52
1, 957065, Note_on_c, 0, 78, 58
1, 957103, Note_off_c, 0, 66, 0
1, 957105, Note_off_c, 0, 78, 61
1, 957105, Note_off_c, 0, 82, 62
1, 957115, Note_on_c, 0, 66, 44
1, 957128, Note_on_c, 0, 73, 67
1, 957165, Poly_aftertouch_c, 0, 70, 127
1, 957186, Note_on_c, 0, 78, 63
1, 957188, Note_off_c, 0, 73, 60
1, 957191, Note_off_c, 0, 66, 59
1, 957200, Poly_aftertouch_c, 0, 70, 0
1, 957224, Note_off_c, 0, 78, 60
1, 957297, Note_on_c, 0, 60, 77
1, 957320, Note_on_c, 0, 69, 60
1, 957328, Control_c, 0, 64, 105
1, 957343, Control_c, 0, 64, 85
1, 957347, Note_on_c, 0, 81, 64
1, 957358, Control_c, 0, 64, 74
1, 957372, Control_c, 0, 64, 66
1, 957387, Control_c, 0, 64, 58
1, 957402, Control_c, 0, 64, 56
1, 957416, Control_c, 0, 64, 60
1, 957424, Note_off_c, 0, 69, 56
1, 957431, Control_c, 0, 64, 64
1, 957446, Control_c, 0, 64, 68
1, 957460, Note_on_c, 0, 78, 45
1, 957461, Control_c, 0, 64, 78
1, 957463, Note_on_c, 0, 66, 46
1, 957468, Note_off_c, 0, 81, 59
1, 957476, Control_c, 0, 64, 105
1, 957490, Control_c, 0, 64, 127
1, 957503, Note_off_c, 0, 78, 64
1, 957507, Note_off_c, 0, 66, 58
1, 957524, Note_on_c, 0, 75, 53
1, 957528, Note_on_c, 0, 63, 49
1, 957573, Note_off_c, 0, 75, 60
1, 957580, Note_on_c, 0, 78, 63
1, 957587, Note_on_c, 0, 66, 52
1, 957606, Note_off_c, 0, 63, 50
1, 957615, Note_off_c, 0, 78, 65
1, 957624, Note_off_c, 0, 66, 62
1, 957639, Note_on_c, 0, 82, 70
1, 957652, Note_on_c, 0, 70, 58
1, 957696, Note_off_c, 0, 70, 57
1, 957699, Note_on_c, 0, 78, 72
1, 957708, Note_on_c, 0, 66, 67
1, 957733, Note_off_c, 0, 78, 60
1, 957742, Note_off_c, 0, 60, 43
1, 957749, Note_on_c, 0, 63, 66
1, 957752, Note_on_c, 0, 75, 66
1, 957755, Note_off_c, 0, 82, 54
1, 957771, Note_on_c, 0, 78, 59
1, 957788, Note_off_c, 0, 75, 59
1, 957793, Note_off_c, 0, 66, 61
1, 957797, Note_off_c, 0, 63, 59
1, 957812, Note_off_c, 0, 78, 64
1, 957860, Note_on_c, 0, 58, 84
1, 957874, Note_on_c, 0, 78, 75
1, 957875, Note_on_c, 0, 66, 67
1, 957936, Note_on_c, 0, 75, 64
1, 957941, Note_off_c, 0, 66, 59
1, 957955, Note_on_c, 0, 63, 63
1, 957970, Note_off_c, 0, 75, 61
1, 957997, Note_off_c, 0, 63, 63
1, 958003, Note_on_c, 0, 72, 64
1, 958007, Note_on_c, 0, 60, 73
1, 958020, Note_off_c, 0, 78, 55
1, 958047, Note_on_c, 0, 75, 64
1, 958084, Note_on_c, 0, 63, 70
1, 958086, Note_off_c, 0, 72, 62
1, 958092, Note_off_c, 0, 60, 61
1, 958104, Note_off_c, 0, 75, 60
1, 958107, Note_on_c, 0, 80, 84
1, 958119, Note_off_c, 0, 63, 55
1, 958142, Note_on_c, 0, 68, 68
1, 958166, Note_on_c, 0, 75, 71
1, 958201, Note_on_c, 0, 63, 60
1, 958212, Note_off_c, 0, 68, 52
1, 958220, Note_off_c, 0, 75, 63
1, 958223, Note_on_c, 0, 60, 74
1, 958234, Note_on_c, 0, 72, 67
1, 958249, Note_off_c, 0, 58, 61
1, 958254, Note_off_c, 0, 63, 48
1, 958268, Note_off_c, 0, 80, 60
1, 958279, Note_on_c, 0, 75, 66
1, 958279, Note_off_c, 0, 60, 63
1, 958312, Note_off_c, 0, 72, 61
1, 958350, Note_off_c, 0, 75, 61
1, 958357, Note_on_c, 0, 81, 79
1, 958361, Note_on_c, 0, 60, 79
1, 958364, Note_on_c, 0, 69, 79
1, 958365, Control_c, 0, 64, 97
1, 958380, Control_c, 0, 64, 75
1, 958395, Control_c, 0, 64, 62
1, 958410, Control_c, 0, 64, 50
1, 958420, Note_on_c, 0, 78, 68
1, 958423, Note_off_c, 0, 69, 61
1, 958425, Control_c, 0, 64, 55
1, 958433, Note_on_c, 0, 66, 69
1, 958439, Control_c, 0, 64, 61
1, 958454, Control_c, 0, 64, 64
1, 958456, Note_off_c, 0, 81, 60
1, 958468, Note_off_c, 0, 78, 62
1, 958469, Control_c, 0, 64, 72
1, 958477, Note_on_c, 0, 75, 72
1, 958485, Control_c, 0, 64, 91
1, 958491, Note_off_c, 0, 66, 61
1, 958500, Control_c, 0, 64, 127
1, 958503, Note_on_c, 0, 63, 66
1, 958537, Note_off_c, 0, 75, 59
1, 958545, Note_on_c, 0, 78, 64
1, 958560, Note_on_c, 0, 66, 56
1, 958579, Note_off_c, 0, 63, 54
1, 958594, Note_off_c, 0, 66, 65
1, 958598, Note_off_c, 0, 78, 61
1, 958601, Note_on_c, 0, 82, 76
1, 958621, Note_on_c, 0, 70, 56
1, 958658, Note_off_c, 0, 70, 65
1, 958667, Note_on_c, 0, 78, 63
1, 958670, Note_on_c, 0, 66, 68
1, 958691, Note_off_c, 0, 60, 50
1, 958704, Note_off_c, 0, 78, 66
1, 958707, Note_off_c, 0, 82, 60
1, 958721, Note_on_c, 0, 75, 72
1, 958722, Note_off_c, 0, 66, 56
1, 958724, Note_on_c, 0, 63, 66
1, 958748, Note_off_c, 0, 63, 68
1, 958778, Note_off_c, 0, 75, 61
1, 958786, Note_on_c, 0, 78, 64
1, 958816, Note_off_c, 0, 78, 65
1, 958951, Note_on_c, 0, 42, 60
1, 958954, Note_on_c, 0, 54, 62
1, 958980, Note_on_c, 0, 49, 46
1, 958988, Control_c, 0, 64, 93
1, 958992, Note_on_c, 0, 70, 86
1, 959003, Control_c, 0, 64, 64
1, 959004, Note_on_c, 0, 58, 70
1, 959010, Note_on_c, 0, 61, 59
1, 959010, Note_on_c, 0, 66, 61
1, 959018, Control_c, 0, 64, 0
1, 959053, Note_on_c, 0, 71, 26
1, 959069, Control_c, 0, 64, 30
1, 959084, Control_c, 0, 64, 65
1, 959088, Note_off_c, 0, 71, 33
1, 959093, Note_off_c, 0, 58, 63
1, 959093, Note_off_c, 0, 42, 62
1, 959099, Control_c, 0, 64, 89
1, 959114, Note_off_c, 0, 61, 62
1, 959114, Control_c, 0, 64, 127
1, 959123, Note_off_c, 0, 49, 61
1, 959125, Note_off_c, 0, 54, 64
1, 959143, Note_off_c, 0, 66, 61
1, 959153, Note_on_c, 0, 71, 37
1, 959171, Note_off_c, 0, 70, 65
1, 959182, Note_off_c, 0, 71, 50
1, 959313, Note_on_c, 0, 70, 50
1, 959314, Note_on_c, 0, 82, 55
1, 959349, Note_off_c, 0, 70, 65
1, 959355, Note_off_c, 0, 82, 64
1, 959377, Note_on_c, 0, 66, 52
1, 959391, Note_on_c, 0, 78, 50
1, 959431, Note_off_c, 0, 78, 63
1, 959431, Note_off_c, 0, 66, 52
1, 959439, Note_on_c, 0, 82, 62
1, 959444, Note_on_c, 0, 70, 59
1, 959470, Note_off_c, 0, 70, 69
1, 959481, Note_off_c, 0, 82, 62
1, 959485, Note_on_c, 0, 85, 80
1, 959517, Note_on_c, 0, 73, 40
1, 959555, Note_off_c, 0, 73, 53
1, 959557, Note_on_c, 0, 70, 59
1, 959561, Note_on_c, 0, 82, 72
1, 959589, Note_off_c, 0, 70, 67
1, 959589, Note_off_c, 0, 82, 65
1, 959597, Note_off_c, 0, 85, 63
1, 959607, Note_on_c, 0, 66, 62
1, 959611, Note_on_c, 0, 78, 71
1, 959644, Note_off_c, 0, 66, 64
1, 959667, Note_off_c, 0, 78, 59
1, 959676, Note_on_c, 0, 82, 65
1, 959757, Note_on_c, 0, 58, 89
1, 959803, Note_off_c, 0, 82, 48
1, 959822, Note_on_c, 0, 84, 65
1, 959833, Note_on_c, 0, 72, 57
1, 959889, Note_off_c, 0, 72, 48
1, 959895, Note_on_c, 0, 70, 41
1, 959915, Note_on_c, 0, 81, 61
1, 959924, Note_off_c, 0, 70, 57
1, 959925, Note_off_c, 0, 84, 56
1, 959947, Note_on_c, 0, 66, 55
1, 959955, Note_off_c, 0, 81, 62
1, 959957, Note_off_c, 0, 58, 62
1, 959979, Note_on_c, 0, 78, 63
1, 959981, Note_off_c, 0, 66, 64
1, 960014, Note_on_c, 0, 70, 54
1, 960025, Note_off_c, 0, 78, 56
1, 960042, Note_on_c, 0, 81, 56
1, 960047, Note_off_c, 0, 70, 54
1, 960074, Note_off_c, 0, 81, 66
1, 960081, Note_on_c, 0, 73, 57
1, 960092, Note_on_c, 0, 85, 75
1, 960120, Note_off_c, 0, 73, 62
1, 960144, Note_on_c, 0, 70, 57
1, 960156, Note_on_c, 0, 82, 67
1, 960176, Note_off_c, 0, 70, 65
1, 960185, Note_off_c, 0, 82, 68
1, 960193, Note_off_c, 0, 85, 63
1, 960208, Note_on_c, 0, 78, 69
1, 960213, Note_on_c, 0, 66, 55
1, 960243, Note_off_c, 0, 78, 64
1, 960256, Note_on_c, 0, 70, 56
1, 960259, Note_on_c, 0, 82, 52
1, 960270, Note_off_c, 0, 66, 60
1, 960276, Note_off_c, 0, 70, 63
1, 960279, Note_off_c, 0, 82, 61
1, 960330, Note_on_c, 0, 66, 52
1, 960345, Note_on_c, 0, 78, 74
1, 960415, Note_on_c, 0, 61, 59
1, 960417, Note_off_c, 0, 66, 51
1, 960424, Note_on_c, 0, 74, 48
1, 960458, Note_off_c, 0, 74, 64
1, 960476, Poly_aftertouch_c, 0, 79, 0
1, 960477, Note_off_c, 0, 61, 46
1, 960498, Note_on_c, 0, 70, 44
1, 960500, Note_off_c, 0, 78, 38
1, 960530, Note_off_c, 0, 70, 59
1, 960547, Note_on_c, 0, 66, 42
1, 960552, Poly_aftertouch_c, 0, 58, 0
1, 960561, Note_on_c, 0, 73, 58
1, 960614, Note_off_c, 0, 66, 43
1, 960620, Note_on_c, 0, 59, 80
1, 960657, Note_off_c, 0, 73, 59
1, 960673, Note_on_c, 0, 80, 61
1, 960687, Control_c, 0, 64, 109
1, 960697, Note_on_c, 0, 68, 45
1, 960702, Control_c, 0, 64, 85
1, 960716, Control_c, 0, 64, 74
1, 960730, Control_c, 0, 64, 69
1, 960734, Note_on_c, 0, 66, 48
1, 960745, Control_c, 0, 64, 71
1, 960752, Note_off_c, 0, 68, 50
1, 960759, Note_on_c, 0, 78, 48
1, 960760, Control_c, 0, 64, 76
1, 960761, Note_off_c, 0, 66, 58
1, 960764, Note_off_c, 0, 80, 53
1, 960775, Control_c, 0, 64, 81
1, 960780, Note_on_c, 0, 61, 61
1, 960782, Note_off_c, 0, 78, 58
1, 960789, Control_c, 0, 64, 96
1, 960792, Note_on_c, 0, 73, 57
1, 960804, Note_off_c, 0, 59, 62
1, 960804, Control_c, 0, 64, 127
1, 960813, Note_off_c, 0, 61, 65
1, 960835, Note_off_c, 0, 73, 59
1, 960837, Note_on_c, 0, 66, 67
1, 960864, Note_on_c, 0, 78, 61
1, 960866, Note_off_c, 0, 66, 66
1, 960898, Note_on_c, 0, 60, 88
1, 960898, Note_off_c, 0, 78, 66
1, 960909, Note_on_c, 0, 81, 73
1, 960916, Note_on_c, 0, 69, 64
1, 960925, Control_c, 0, 64, 110
1, 960939, Control_c, 0, 64, 83
1, 960954, Control_c, 0, 64, 70
1, 960969, Control_c, 0, 64, 63
1, 960984, Control_c, 0, 64, 64
1, 960986, Note_on_c, 0, 66, 64
1, 960987, Note_on_c, 0, 78, 66
1, 960991, Note_off_c, 0, 69, 58
1, 960999, Control_c, 0, 64, 67
1, 961001, Note_off_c, 0, 81, 60
1, 961013, Control_c, 0, 64, 70
1, 961018, Note_off_c, 0, 78, 66
1, 961026, Note_on_c, 0, 73, 74
1, 961027, Note_off_c, 0, 66, 63
1, 961028, Control_c, 0, 64, 78
1, 961042, Note_on_c, 0, 61, 71
1, 961043, Control_c, 0, 64, 104
1, 961058, Control_c, 0, 64, 127
1, 961062, Note_off_c, 0, 60, 62
1, 961079, Note_off_c, 0, 61, 60
1, 961081, Note_on_c, 0, 78, 75
1, 961082, Note_off_c, 0, 73, 63
1, 961099, Note_on_c, 0, 66, 69
1, 961126, Note_off_c, 0, 66, 63
1, 961153, Note_on_c, 0, 61, 100
1, 961176, Note_on_c, 0, 82, 76
1, 961177, Control_c, 0, 64, 98
1, 961178, Note_off_c, 0, 78, 63
1, 961180, Note_on_c, 0, 70, 72
1, 961192, Control_c, 0, 64, 72
1, 961206, Control_c, 0, 64, 57
1, 961221, Control_c, 0, 64, 41
1, 961236, Control_c, 0, 64, 54
1, 961251, Control_c, 0, 64, 62
1, 961256, Note_off_c, 0, 70, 62
1, 961259, Note_on_c, 0, 78, 56
1, 961265, Control_c, 0, 64, 68
1, 961276, Note_off_c, 0, 82, 61
1, 961287, Control_c, 0, 64, 82
1, 961302, Note_off_c, 0, 78, 66
1, 961302, Control_c, 0, 64, 127
1, 961305, Note_on_c, 0, 73, 71
1, 961341, Note_off_c, 0, 61, 62
1, 961365, Note_off_c, 0, 73, 63
1, 961368, Note_on_c, 0, 78, 80
1, 961517, Note_on_c, 0, 66, 87
1, 961529, Note_off_c, 0, 78, 59
1, 961559, Note_on_c, 0, 81, 60
1, 961613, Control_c, 0, 64, 103
1, 961628, Control_c, 0, 64, 79
1, 961643, Control_c, 0, 64, 67
1, 961648, Note_on_c, 0, 75, 65
1, 961654, Note_on_c, 0, 78, 61
1, 961658, Control_c, 0, 64, 62
1, 961659, Note_off_c, 0, 81, 58
1, 961672, Control_c, 0, 64, 63
1, 961688, Control_c, 0, 64, 65
1, 961696, Note_off_c, 0, 78, 64
1, 961703, Note_on_c, 0, 73, 54
1, 961703, Control_c, 0, 64, 67
1, 961718, Control_c, 0, 64, 73
1, 961724, Note_on_c, 0, 69, 61
1, 961733, Control_c, 0, 64, 89
1, 961748, Control_c, 0, 64, 127
1, 961756, Note_off_c, 0, 75, 0
1, 961774, Note_on_c, 0, 78, 73
1, 961776, Note_on_c, 0, 75, 29
1, 961791, Note_off_c, 0, 69, 55
1, 961828, Note_on_c, 0, 82, 80
1, 961828, Note_off_c, 0, 75, 62
1, 961830, Note_off_c, 0, 78, 63
1, 961836, Note_on_c, 0, 70, 53
1, 961859, Note_off_c, 0, 73, 25
1, 961864, Note_off_c, 0, 70, 65
1, 961893, Note_on_c, 0, 78, 67
1, 961932, Note_off_c, 0, 78, 61
1, 961935, Note_off_c, 0, 82, 63
1, 961942, Note_on_c, 0, 73, 79
1, 961943, Note_on_c, 0, 70, 65
1, 961979, Note_off_c, 0, 70, 58
1, 961981, Note_off_c, 0, 66, 60
1, 961994, Note_on_c, 0, 78, 61
1, 962000, Note_on_c, 0, 75, 57
1, 962007, Note_off_c, 0, 73, 60
1, 962035, Note_off_c, 0, 75, 63
1, 962055, Note_off_c, 0, 78, 59
1, 962061, Note_on_c, 0, 65, 86
1, 962061, Note_on_c, 0, 81, 77
1, 962075, Note_on_c, 0, 69, 65
1, 962104, Note_off_c, 0, 69, 63
1, 962134, Note_on_c, 0, 75, 66
1, 962139, Note_on_c, 0, 78, 61
1, 962146, Note_off_c, 0, 81, 60
1, 962167, Note_on_c, 0, 73, 66
1, 962169, Note_off_c, 0, 78, 67
1, 962206, Note_off_c, 0, 75, 58
1, 962242, Note_off_c, 0, 73, 63
1, 962246, Note_on_c, 0, 78, 73
1, 962274, Note_on_c, 0, 70, 63
1, 962298, Note_off_c, 0, 65, 58
1, 962316, Note_off_c, 0, 78, 62
1, 962319, Note_on_c, 0, 82, 77
1, 962400, Note_on_c, 0, 78, 65
1, 962426, Note_on_c, 0, 64, 80
1, 962438, Note_off_c, 0, 82, 60
1, 962447, Note_off_c, 0, 70, 63
1, 962456, Note_off_c, 0, 78, 61
1, 962465, Note_on_c, 0, 73, 71
1, 962477, Note_off_c, 0, 64, 66
1, 962539, Note_on_c, 0, 78, 69
1, 962540, Note_off_c, 0, 73, 62
1, 962592, Note_off_c, 0, 78, 58
1, 962652, Note_on_c, 0, 64, 67
1, 962673, Control_c, 0, 64, 97
1, 962688, Control_c, 0, 64, 71
1, 962699, Note_on_c, 0, 54, 45
1, 962703, Control_c, 0, 64, 51
1, 962718, Control_c, 0, 64, 16
1, 962733, Control_c, 0, 64, 41
1, 962735, Note_on_c, 0, 84, 66
1, 962748, Control_c, 0, 64, 57
1, 962758, Note_on_c, 0, 72, 49
1, 962763, Control_c, 0, 64, 67
1, 962781, Note_off_c, 0, 54, 62
1, 962784, Control_c, 0, 64, 82
1, 962799, Control_c, 0, 64, 127
1, 962806, Note_off_c, 0, 64, 63
1, 962864, Note_off_c, 0, 72, 59
1, 962889, Note_off_c, 0, 84, 53
1, 962905, Note_on_c, 0, 81, 49
1, 962951, Note_off_c, 0, 81, 61
1, 962994, Note_on_c, 0, 76, 50
1, 962995, Note_on_c, 0, 72, 33
1, 963031, Note_on_c, 0, 78, 61
1, 963031, Note_off_c, 0, 72, 50
1, 963033, Note_off_c, 0, 76, 62
1, 963055, Note_on_c, 0, 81, 49
1, 963073, Note_off_c, 0, 78, 62
1, 963094, Note_off_c, 0, 81, 66
1, 963103, Note_on_c, 0, 73, 50
1, 963115, Note_on_c, 0, 85, 58
1, 963138, Note_on_c, 0, 69, 18
1, 963146, Note_off_c, 0, 73, 62
1, 963177, Note_off_c, 0, 69, 43
1, 963177, Note_on_c, 0, 81, 66
1, 963178, Note_on_c, 0, 78, 49
1, 963185, Note_off_c, 0, 85, 61
1, 963204, Note_off_c, 0, 78, 58
1, 963206, Note_off_c, 0, 81, 68
1, 963234, Note_on_c, 0, 73, 58
1, 963235, Note_on_c, 0, 76, 60
1, 963267, Note_off_c, 0, 73, 65
1, 963270, Note_off_c, 0, 76, 65
1, 963283, Note_on_c, 0, 78, 66
1, 963289, Note_on_c, 0, 81, 64
1, 963321, Note_off_c, 0, 78, 62
1, 963323, Note_off_c, 0, 81, 64
1, 963344, Note_on_c, 0, 72, 60
1, 963347, Note_on_c, 0, 84, 71
1, 963349, Note_on_c, 0, 69, 40
1, 963378, Note_off_c, 0, 69, 56
1, 963379, Note_off_c, 0, 72, 64
1, 963406, Note_on_c, 0, 81, 68
1, 963410, Note_on_c, 0, 78, 58
1, 963417, Note_off_c, 0, 84, 58
1, 963434, Note_off_c, 0, 81, 66
1, 963438, Note_off_c, 0, 78, 55
1, 963452, Note_on_c, 0, 76, 74
1, 963454, Note_on_c, 0, 72, 62
1, 963465, Note_on_c, 0, 69, 51
1, 963484, Note_off_c, 0, 69, 61
1, 963484, Note_off_c, 0, 72, 66
1, 963505, Note_on_c, 0, 78, 67
1, 963508, Note_off_c, 0, 76, 62
1, 963511, Note_on_c, 0, 81, 69
1, 963541, Note_off_c, 0, 78, 66
1, 963550, Note_off_c, 0, 81, 59
1, 963565, Note_on_c, 0, 69, 65
1, 963573, Note_on_c, 0, 85, 83
1, 963581, Note_on_c, 0, 73, 53
1, 963602, Note_off_c, 0, 69, 55
1, 963607, Note_off_c, 0, 73, 57
1, 963625, Note_on_c, 0, 78, 55
1, 963636, Note_on_c, 0, 81, 72
1, 963657, Note_off_c, 0, 85, 65
1, 963665, Note_off_c, 0, 81, 63
1, 963676, Note_on_c, 0, 76, 78
1, 963712, Note_off_c, 0, 78, 55
1, 963732, Note_on_c, 0, 81, 61
1, 963737, Note_off_c, 0, 76, 63
1, 963776, Note_on_c, 0, 64, 79
1, 963779, Note_off_c, 0, 81, 51
1, 963791, Note_on_c, 0, 84, 81
1, 963837, Note_off_c, 0, 64, 61
1, 963857, Note_on_c, 0, 81, 75
1, 963869, Note_off_c, 0, 84, 55
1, 963876, Poly_aftertouch_c, 0, 72, 0
1, 963896, Note_on_c, 0, 78, 59
1, 963897, Note_on_c, 0, 69, 13
1, 963905, Note_off_c, 0, 81, 63
1, 963906, Note_on_c, 0, 76, 75
1, 963942, Note_off_c, 0, 69, 60
1, 963955, Note_off_c, 0, 76, 61
1, 963956, Note_on_c, 0, 81, 62
1, 963991, Note_off_c, 0, 78, 63
1, 964002, Note_on_c, 0, 69, 62
1, 964002, Note_on_c, 0, 73, 66
1, 964018, Note_off_c, 0, 81, 64
1, 964021, Note_on_c, 0, 85, 79
1, 964031, Note_off_c, 0, 73, 66
1, 964039, Note_off_c, 0, 69, 64
1, 964071, Note_on_c, 0, 81, 58
1, 964082, Note_on_c, 0, 78, 59
1, 964112, Note_off_c, 0, 85, 63
1, 964118, Note_off_c, 0, 81, 64
1, 964129, Note_on_c, 0, 76, 65
1, 964139, Note_off_c, 0, 78, 61
1, 964146, Note_on_c, 0, 73, 43
1, 964149, Note_on_c, 0, 69, 61
1, 964173, Note_off_c, 0, 73, 55
1, 964178, Note_on_c, 0, 81, 65
1, 964183, Note_off_c, 0, 76, 60
1, 964185, Note_off_c, 0, 69, 65
1, 964218, Note_off_c, 0, 81, 62
1, 964305, Note_on_c, 0, 63, 79
1, 964340, Note_on_c, 0, 72, 59
1, 964355, Note_on_c, 0, 84, 69
1, 964358, Control_c, 0, 64, 122
1, 964372, Control_c, 0, 64, 93
1, 964387, Control_c, 0, 64, 80
1, 964402, Control_c, 0, 64, 70
1, 964417, Control_c, 0, 64, 66
1, 964426, Note_off_c, 0, 72, 60
1, 964432, Control_c, 0, 64, 67
1, 964446, Control_c, 0, 64, 69
1, 964447, Note_on_c, 0, 81, 62
1, 964456, Note_on_c, 0, 69, 59
1, 964461, Control_c, 0, 64, 73
1, 964467, Note_off_c, 0, 84, 60
1, 964476, Control_c, 0, 64, 79
1, 964490, Control_c, 0, 64, 95
1, 964492, Note_off_c, 0, 69, 64
1, 964498, Note_off_c, 0, 81, 63
1, 964505, Control_c, 0, 64, 127
1, 964514, Note_on_c, 0, 78, 74
1, 964516, Note_on_c, 0, 66, 64
1, 964567, Note_off_c, 0, 78, 59
1, 964571, Note_on_c, 0, 81, 67
1, 964578, Note_on_c, 0, 69, 63
1, 964586, Note_off_c, 0, 66, 59
1, 964602, Note_off_c, 0, 81, 67
1, 964613, Note_off_c, 0, 69, 65
1, 964620, Note_on_c, 0, 85, 79
1, 964631, Note_on_c, 0, 73, 64
1, 964680, Note_off_c, 0, 73, 60
1, 964684, Note_on_c, 0, 81, 71
1, 964687, Note_on_c, 0, 69, 67
1, 964711, Note_off_c, 0, 81, 68
1, 964712, Note_on_c, 0, 66, 66
1, 964712, Note_off_c, 0, 85, 64
1, 964718, Note_off_c, 0, 63, 53
1, 964718, Note_off_c, 0, 69, 66
1, 964722, Note_on_c, 0, 78, 70
1, 964744, Note_off_c, 0, 66, 62
1, 964752, Note_off_c, 0, 78, 65
1, 964823, Note_on_c, 0, 81, 78
1, 964833, Note_on_c, 0, 69, 66
1, 964839, Note_on_c, 0, 61, 52
1, 964887, Note_on_c, 0, 60, 16
1, 964891, Note_on_c, 0, 78, 66
1, 964910, Note_on_c, 0, 59, 34
1, 964920, Note_off_c, 0, 69, 54
1, 964925, Note_off_c, 0, 78, 63
1, 964930, Poly_aftertouch_c, 0, 62, 127
1, 964933, Note_off_c, 0, 61, 0
1, 964933, Note_on_c, 0, 61, 2
1, 964939, Note_off_c, 0, 81, 61
1, 964947, Note_on_c, 0, 75, 66
1, 964951, Note_off_c, 0, 59, 48
1, 964956, Note_on_c, 0, 63, 66
1, 964969, Poly_aftertouch_c, 0, 62, 0
1, 964973, Note_off_c, 0, 60, 41
1, 964978, Poly_aftertouch_c, 0, 65, 0
1, 964996, Note_on_c, 0, 78, 74
1, 964998, Note_off_c, 0, 75, 53
1, 965001, Poly_aftertouch_c, 0, 65, 0
1, 965004, Note_on_c, 0, 66, 67
1, 965033, Note_off_c, 0, 61, 35
1, 965058, Note_off_c, 0, 78, 64
1, 965064, Note_on_c, 0, 83, 84
1, 965067, Note_off_c, 0, 66, 61
1, 965077, Note_on_c, 0, 71, 65
1, 965121, Note_on_c, 0, 66, 67
1, 965121, Note_on_c, 0, 78, 70
1, 965131, Note_off_c, 0, 63, 48
1, 965146, Poly_aftertouch_c, 0, 61, 127
1, 965148, Note_off_c, 0, 71, 61
1, 965165, Note_off_c, 0, 83, 62
1, 965168, Note_on_c, 0, 75, 80
1, 965177, Poly_aftertouch_c, 0, 61, 0
1, 965189, Note_off_c, 0, 66, 62
1, 965207, Note_on_c, 0, 63, 48
1, 965220, Note_off_c, 0, 75, 63
1, 965231, Note_off_c, 0, 63, 61
1, 965240, Note_off_c, 0, 78, 64
1, 965286, Note_on_c, 0, 63, 93
1, 965296, Note_on_c, 0, 84, 86
1, 965310, Note_on_c, 0, 72, 71
1, 965313, Control_c, 0, 64, 112
1, 965328, Control_c, 0, 64, 87
1, 965343, Control_c, 0, 64, 75
1, 965352, Note_off_c, 0, 72, 50
1, 965357, Note_on_c, 0, 81, 74
1, 965358, Control_c, 0, 64, 71
1, 965366, Note_on_c, 0, 69, 72
1, 965373, Control_c, 0, 64, 75
1, 965387, Control_c, 0, 64, 82
1, 965401, Note_off_c, 0, 84, 64
1, 965402, Control_c, 0, 64, 94
1, 965412, Note_off_c, 0, 81, 65
1, 965414, Note_on_c, 0, 78, 81
1, 965417, Control_c, 0, 64, 127
1, 965425, Note_off_c, 0, 69, 63
1, 965429, Note_on_c, 0, 66, 74
1, 965471, Note_on_c, 0, 81, 75
1, 965475, Note_off_c, 0, 78, 63
1, 965495, Note_off_c, 0, 63, 59
1, 965502, Note_on_c, 0, 69, 75
1, 965504, Note_off_c, 0, 66, 60
1, 965535, Note_off_c, 0, 81, 64
1, 965537, Note_on_c, 0, 85, 92
1, 965568, Note_off_c, 0, 69, 62
1, 965576, Note_on_c, 0, 73, 70
1, 965609, Note_on_c, 0, 81, 76
1, 965634, Note_on_c, 0, 69, 60
1, 965639, Note_off_c, 0, 73, 65
1, 965642, Note_off_c, 0, 85, 64
1, 965657, Note_off_c, 0, 81, 66
1, 965660, Note_on_c, 0, 78, 83
1, 965673, Note_off_c, 0, 69, 65
1, 965721, Note_off_c, 0, 78, 63
1, 965907, Note_on_c, 0, 45, 58
1, 965908, Note_on_c, 0, 57, 61
1, 965917, Note_on_c, 0, 52, 50
1, 965943, Control_c, 0, 64, 80
1, 965946, Note_on_c, 0, 73, 96
1, 965958, Note_on_c, 0, 69, 63
1, 965958, Control_c, 0, 64, 58
1, 965961, Note_on_c, 0, 61, 76
1, 965971, Note_on_c, 0, 64, 52
1, 965973, Control_c, 0, 64, 0
1, 966018, Control_c, 0, 64, 45
1, 966033, Control_c, 0, 64, 66
1, 966035, Note_off_c, 0, 45, 62
1, 966048, Control_c, 0, 64, 86
1, 966048, Control_c, 0, 67, 117
1, 966054, Note_off_c, 0, 52, 65
1, 966062, Control_c, 0, 64, 127
1, 966062, Control_c, 0, 67, 102
1, 966067, Note_off_c, 0, 61, 62
1, 966072, Note_off_c, 0, 57, 64
1, 966077, Control_c, 0, 67, 86
1, 966092, Control_c, 0, 67, 74
1, 966102, Note_off_c, 0, 64, 62
1, 966107, Control_c, 0, 67, 65
1, 966113, Note_off_c, 0, 69, 59
1, 966122, Control_c, 0, 67, 61
1, 966136, Control_c, 0, 67, 57
1, 966149, Note_off_c, 0, 73, 63
1, 966151, Control_c, 0, 67, 54
1, 966166, Control_c, 0, 67, 50
1, 966181, Control_c, 0, 67, 44
1, 966196, Control_c, 0, 67, 38
1, 966210, Control_c, 0, 67, 33
1, 966225, Control_c, 0, 67, 28
1, 966240, Control_c, 0, 67, 24
1, 966254, Control_c, 0, 67, 20
1, 966269, Control_c, 0, 67, 16
1, 966284, Control_c, 0, 67, 11
1, 966299, Control_c, 0, 67, 0
1, 966311, Note_on_c, 0, 64, 50
1, 966353, Note_on_c, 0, 88, 81
1, 966418, Note_on_c, 0, 73, 47
1, 966448, Note_on_c, 0, 81, 66
1, 966457, Note_off_c, 0, 73, 63
1, 966498, Note_on_c, 0, 69, 54
1, 966512, Note_off_c, 0, 64, 59
1, 966514, Note_on_c, 0, 85, 63
1, 966517, Note_off_c, 0, 81, 64
1, 966546, Note_off_c, 0, 69, 62
1, 966554, Note_off_c, 0, 88, 63
1, 966581, Note_on_c, 0, 76, 64
1, 966588, Note_on_c, 0, 73, 56
1, 966591, Note_off_c, 0, 85, 62
1, 966615, Note_off_c, 0, 76, 62
1, 966674, Note_off_c, 0, 73, 58
1, 966694, Note_on_c, 0, 61, 84
1, 966732, Note_on_c, 0, 69, 64
1, 966759, Note_on_c, 0, 93, 72
1, 966791, Note_off_c, 0, 69, 60
1, 966837, Note_on_c, 0, 73, 32
1, 966855, Note_on_c, 0, 85, 55
1, 966871, Note_on_c, 0, 69, 57
1, 966898, Note_off_c, 0, 69, 66
1, 966898, Note_off_c, 0, 85, 59
1, 966902, Note_off_c, 0, 73, 0
1, 966914, Note_on_c, 0, 73, 47
1, 966917, Note_off_c, 0, 93, 61
1, 966926, Note_on_c, 0, 88, 50
1, 966962, Note_off_c, 0, 73, 63
1, 966969, Note_on_c, 0, 81, 54
1, 967020, Note_off_c, 0, 81, 60
1, 967029, Note_on_c, 0, 68, 47
1, 967043, Note_on_c, 0, 92, 78
1, 967064, Note_off_c, 0, 68, 61
1, 967106, Note_on_c, 0, 69, 43
1, 967115, Note_off_c, 0, 88, 44
1, 967118, Note_on_c, 0, 85, 64
1, 967132, Note_off_c, 0, 69, 56
1, 967163, Note_on_c, 0, 68, 52
1, 967175, Note_off_c, 0, 92, 64
1, 967176, Note_off_c, 0, 85, 64
1, 967178, Note_on_c, 0, 88, 65
1, 967197, Note_off_c, 0, 68, 63
1, 967209, Note_off_c, 0, 88, 67
1, 967227, Note_on_c, 0, 80, 67
1, 967237, Note_on_c, 0, 69, 43
1, 967267, Note_off_c, 0, 69, 53
1, 967270, Note_off_c, 0, 80, 61
1, 967271, Note_on_c, 0, 66, 59
1, 967302, Note_on_c, 0, 90, 80
1, 967315, Note_off_c, 0, 66, 63
1, 967321, Note_off_c, 0, 61, 37
1, 967359, Note_on_c, 0, 81, 71
1, 967368, Note_on_c, 0, 69, 41
1, 967393, Note_on_c, 0, 66, 70
1, 967394, Note_off_c, 0, 69, 55
1, 967419, Note_on_c, 0, 85, 70
1, 967424, Note_off_c, 0, 90, 62
1, 967432, Note_off_c, 0, 66, 59
1, 967449, Note_off_c, 0, 81, 59
1, 967466, Note_on_c, 0, 78, 66
1, 967476, Note_on_c, 0, 69, 57
1, 967487, Note_off_c, 0, 85, 61
1, 967497, Note_off_c, 0, 69, 59
1, 967515, Note_off_c, 0, 78, 60
1, 967523, Note_on_c, 0, 64, 87
1, 967541, Note_on_c, 0, 88, 86
1, 967596, Note_on_c, 0, 81, 63
1, 967604, Note_on_c, 0, 69, 67
1, 967657, Note_on_c, 0, 85, 67
1, 967662, Note_off_c, 0, 81, 64
1, 967666, Note_off_c, 0, 88, 55
1, 967666, Note_on_c, 0, 73, 68
1, 967667, Note_off_c, 0, 64, 60
1, 967678, Note_off_c, 0, 69, 62
1, 967702, Note_off_c, 0, 73, 63
1, 967704, Note_off_c, 0, 85, 61
1, 967705, Note_on_c, 0, 76, 68
1, 967778, Note_off_c, 0, 76, 62
1, 967780, Note_on_c, 0, 66, 87
1, 967801, Note_on_c, 0, 88, 80
1, 967812, Control_c, 0, 64, 94
1, 967826, Control_c, 0, 64, 71
1, 967841, Control_c, 0, 64, 62
1, 967849, Note_on_c, 0, 78, 67
1, 967856, Control_c, 0, 64, 64
1, 967871, Control_c, 0, 64, 70
1, 967886, Control_c, 0, 64, 80
1, 967889, Note_on_c, 0, 69, 61
1, 967900, Control_c, 0, 64, 108
1, 967915, Control_c, 0, 64, 127
1, 967921, Note_on_c, 0, 64, 48
1, 967923, Note_off_c, 0, 88, 58
1, 967923, Note_off_c, 0, 69, 61
1, 967925, Note_on_c, 0, 81, 62
1, 967926, Note_off_c, 0, 78, 60
1, 967969, Note_on_c, 0, 76, 57
1, 968013, Note_on_c, 0, 69, 52
1, 968045, Note_off_c, 0, 69, 59
1, 968045, Note_off_c, 0, 76, 63
1, 968063, Note_on_c, 0, 87, 67
1, 968064, Note_on_c, 0, 63, 55
1, 968070, Note_off_c, 0, 81, 50
1, 968105, Note_off_c, 0, 64, 24
1, 968108, Note_off_c, 0, 63, 59
1, 968111, Note_on_c, 0, 78, 67
1, 968148, Note_on_c, 0, 69, 44
1, 968169, Note_off_c, 0, 69, 59
1, 968170, Note_off_c, 0, 66, 0
1, 968173, Note_on_c, 0, 81, 63
1, 968174, Note_off_c, 0, 78, 59
1, 968184, Note_off_c, 0, 87, 58
1, 968191, Note_on_c, 0, 63, 58
1, 968194, Note_on_c, 0, 66, 5
1, 968212, Note_on_c, 0, 75, 66
1, 968225, Note_off_c, 0, 63, 64
1, 968242, Note_on_c, 0, 69, 65
1, 968263, Note_off_c, 0, 81, 49
1, 968277, Note_off_c, 0, 69, 59
1, 968286, Note_on_c, 0, 86, 83
1, 968298, Note_off_c, 0, 75, 56
1, 968300, Note_on_c, 0, 62, 64
1, 968333, Note_off_c, 0, 62, 65
1, 968337, Note_on_c, 0, 78, 73
1, 968374, Note_on_c, 0, 69, 53
1, 968394, Note_on_c, 0, 81, 71
1, 968399, Note_off_c, 0, 69, 55
1, 968403, Note_off_c, 0, 66, 0
1, 968403, Note_on_c, 0, 66, 10
1, 968412, Note_off_c, 0, 78, 60
1, 968413, Note_off_c, 0, 86, 62
1, 968422, Note_on_c, 0, 62, 57
1, 968443, Note_off_c, 0, 62, 65
1, 968444, Note_on_c, 0, 74, 75
1, 968460, Note_off_c, 0, 81, 61
1, 968464, Note_off_c, 0, 66, 44
1, 968475, Note_on_c, 0, 69, 63
1, 968502, Note_off_c, 0, 74, 61
1, 968515, Note_on_c, 0, 85, 87
1, 968522, Note_on_c, 0, 61, 77
1, 968543, Note_off_c, 0, 69, 0
1, 968581, Note_on_c, 0, 78, 77
1, 968581, Poly_aftertouch_c, 0, 69, 127
1, 968615, Poly_aftertouch_c, 0, 69, 0
1, 968623, Note_on_c, 0, 66, 48
1, 968623, Note_on_c, 0, 81, 74
1, 968631, Note_off_c, 0, 61, 59
1, 968643, Note_off_c, 0, 78, 62
1, 968649, Note_off_c, 0, 66, 61
1, 968650, Note_off_c, 0, 85, 63
1, 968676, Note_off_c, 0, 81, 64
1, 968684, Note_on_c, 0, 73, 76
1, 968761, Note_off_c, 0, 73, 61
1, 968777, Note_on_c, 0, 69, 95
1, 968790, Control_c, 0, 64, 92
1, 968793, Note_on_c, 0, 85, 76
1, 968799, Note_on_c, 0, 61, 67
1, 968805, Control_c, 0, 64, 69
1, 968820, Control_c, 0, 64, 63
1, 968835, Control_c, 0, 64, 67
1, 968844, Note_off_c, 0, 61, 53
1, 968847, Note_on_c, 0, 76, 59
1, 968850, Control_c, 0, 64, 77
1, 968865, Control_c, 0, 64, 127
1, 968905, Note_on_c, 0, 81, 60
1, 968912, Note_off_c, 0, 76, 63
1, 968921, Note_off_c, 0, 85, 62
1, 968938, Note_on_c, 0, 64, 46
1, 968943, Note_on_c, 0, 73, 62
1, 968956, Note_off_c, 0, 81, 62
1, 968990, Note_off_c, 0, 73, 63
1, 969002, Note_off_c, 0, 69, 47
1, 969002, Note_off_c, 0, 64, 62
1, 969011, Note_on_c, 0, 61, 50
1, 969016, Note_on_c, 0, 59, 59
1, 969038, Note_on_c, 0, 83, 74
1, 969043, Note_off_c, 0, 61, 65
1, 969055, Note_off_c, 0, 59, 60
1, 969075, Note_on_c, 0, 64, 46
1, 969075, Note_on_c, 0, 73, 63
1, 969109, Note_on_c, 0, 59, 49
1, 969110, Note_off_c, 0, 64, 64
1, 969121, Note_off_c, 0, 83, 57
1, 969126, Note_on_c, 0, 76, 68
1, 969139, Note_off_c, 0, 73, 58
1, 969144, Note_on_c, 0, 61, 47
1, 969161, Note_off_c, 0, 59, 61
1, 969180, Note_on_c, 0, 71, 68
1, 969192, Note_on_c, 0, 64, 54
1, 969214, Note_off_c, 0, 76, 56
1, 969235, Note_off_c, 0, 64, 59
1, 969251, Note_off_c, 0, 71, 56
1, 969253, Note_on_c, 0, 57, 67
1, 969256, Note_on_c, 0, 81, 80
1, 969270, Note_off_c, 0, 61, 61
1, 969294, Note_off_c, 0, 57, 63
1, 969316, Note_on_c, 0, 73, 77
1, 969356, Note_on_c, 0, 57, 49
1, 969360, Note_off_c, 0, 81, 62
1, 969365, Note_on_c, 0, 61, 66
1, 969372, Note_on_c, 0, 76, 66
1, 969380, Note_off_c, 0, 73, 64
1, 969383, Poly_aftertouch_c, 0, 64, 127
1, 969401, Note_off_c, 0, 57, 65
1, 969422, Note_off_c, 0, 76, 59
1, 969438, Note_on_c, 0, 69, 65
1, 969452, Note_off_c, 0, 61, 61
1, 969455, Poly_aftertouch_c, 0, 64, 0
1, 969493, Note_on_c, 0, 68, 75
1, 969493, Note_on_c, 0, 80, 81
1, 969505, Note_off_c, 0, 69, 56
1, 969568, Note_on_c, 0, 73, 78
1, 969583, Note_on_c, 0, 61, 67
1, 969585, Note_off_c, 0, 68, 60
1, 969605, Note_on_c, 0, 64, 38
1, 969626, Note_off_c, 0, 73, 63
1, 969632, Note_off_c, 0, 80, 60
1, 969643, Note_off_c, 0, 61, 54
1, 969643, Note_on_c, 0, 76, 58
1, 969670, Note_on_c, 0, 69, 67
1, 969676, Note_off_c, 0, 76, 65
1, 969744, Note_off_c, 0, 69, 62
1, 969765, Note_on_c, 0, 73, 100
1, 969768, Note_off_c, 0, 64, 42
1, 969781, Note_on_c, 0, 78, 81
1, 969782, Note_on_c, 0, 66, 62
1, 969850, Note_off_c, 0, 73, 62
1, 969868, Note_on_c, 0, 69, 69
1, 969910, Note_off_c, 0, 66, 60
1, 969916, Note_off_c, 0, 78, 58
1, 969919, Note_on_c, 0, 61, 57
1, 969920, Note_off_c, 0, 69, 60
1, 969940, Note_on_c, 0, 73, 65
1, 969977, Note_off_c, 0, 73, 64
1, 969992, Note_on_c, 0, 69, 67
1, 970001, Note_off_c, 0, 61, 60
1, 970009, Note_on_c, 0, 57, 62
1, 970020, Note_off_c, 0, 69, 63
1, 970055, Note_on_c, 0, 64, 59
1, 970055, Note_on_c, 0, 76, 80
1, 970090, Note_off_c, 0, 57, 61
1, 970108, Note_on_c, 0, 61, 57
1, 970113, Note_on_c, 0, 69, 69
1, 970131, Note_off_c, 0, 64, 59
1, 970144, Note_off_c, 0, 69, 64
1, 970146, Note_off_c, 0, 61, 61
1, 970152, Note_on_c, 0, 73, 66
1, 970161, Note_off_c, 0, 76, 57
1, 970184, Note_off_c, 0, 73, 66
1, 970263, Poly_aftertouch_c, 0, 69, 127
1, 970268, Note_on_c, 0, 74, 84
1, 970290, Note_on_c, 0, 62, 53
1, 970305, Poly_aftertouch_c, 0, 69, 0
1, 970331, Note_on_c, 0, 57, 44
1, 970334, Note_on_c, 0, 64, 76
1, 970346, Note_off_c, 0, 62, 56
1, 970375, Note_off_c, 0, 57, 62
1, 970375, Note_off_c, 0, 74, 61
1, 970388, Note_on_c, 0, 52, 61
1, 970388, Note_on_c, 0, 69, 74
1, 970397, Note_off_c, 0, 64, 61
1, 970439, Note_off_c, 0, 52, 61
1, 970489, Note_on_c, 0, 73, 78
1, 970502, Note_off_c, 0, 69, 62
1, 970520, Note_on_c, 0, 57, 45
1, 970525, Note_on_c, 0, 61, 68
1, 970549, Note_on_c, 0, 64, 72
1, 970557, Note_on_c, 0, 52, 57
1, 970557, Note_off_c, 0, 61, 66
1, 970561, Note_off_c, 0, 57, 63
1, 970575, Note_off_c, 0, 73, 60
1, 970590, Note_off_c, 0, 52, 66
1, 970616, Note_on_c, 0, 69, 77
1, 970636, Note_off_c, 0, 64, 61
1, 970702, Note_on_c, 0, 77, 103
1, 970711, Note_on_c, 0, 73, 82
1, 970734, Note_off_c, 0, 69, 64
1, 970758, Note_on_c, 0, 45, 72
1, 970785, Note_off_c, 0, 73, 62
1, 970790, Note_off_c, 0, 77, 61
1, 970830, Note_off_c, 0, 45, 63
1, 970834, Note_on_c, 0, 52, 72
1, 970835, Note_on_c, 0, 51, 22
1, 970877, Note_on_c, 0, 76, 101
1, 970881, Note_off_c, 0, 51, 40
1, 970882, Note_on_c, 0, 60, 77
1, 970904, Note_on_c, 0, 72, 69
1, 970912, Control_c, 0, 64, 101
1, 970926, Control_c, 0, 64, 72
1, 970941, Control_c, 0, 64, 48
1, 970956, Control_c, 0, 64, 31
1, 970971, Control_c, 0, 64, 47
1, 970986, Control_c, 0, 64, 56
1, 970995, Note_off_c, 0, 52, 61
1, 971000, Control_c, 0, 64, 62
1, 971015, Control_c, 0, 64, 71
1, 971038, Control_c, 0, 64, 119
1, 971053, Control_c, 0, 64, 127
1, 971085, Note_off_c, 0, 72, 59
1, 971114, Note_off_c, 0, 76, 57
1, 971225, Note_off_c, 0, 60, 52
1, 971330, Note_on_c, 0, 59, 34
1, 971343, Note_on_c, 0, 83, 58
1, 971417, Note_on_c, 0, 64, 48
1, 971449, Note_off_c, 0, 83, 57
1, 971493, Note_on_c, 0, 76, 44
1, 971512, Note_off_c, 0, 59, 42
1, 971519, Poly_aftertouch_c, 0, 72, 0
1, 971537, Note_on_c, 0, 71, 49
1, 971550, Note_off_c, 0, 76, 54
1, 971635, Note_on_c, 0, 60, 54
1, 971654, Note_on_c, 0, 81, 54
1, 971662, Note_on_c, 0, 57, 52
1, 971667, Note_off_c, 0, 71, 37
1, 971673, Note_off_c, 0, 64, 57
1, 971728, Note_on_c, 0, 72, 53
1, 971762, Note_off_c, 0, 57, 60
1, 971794, Note_off_c, 0, 81, 62
1, 971813, Note_on_c, 0, 76, 53
1, 971824, Note_off_c, 0, 72, 61
1, 971858, Note_on_c, 0, 69, 61
1, 971922, Note_off_c, 0, 69, 57
1, 971946, Note_on_c, 0, 80, 67
1, 971948, Note_on_c, 0, 62, 74
1, 971974, Note_on_c, 0, 56, 62
1, 971991, Note_off_c, 0, 76, 58
1, 972007, Note_off_c, 0, 60, 60
1, 972021, Note_on_c, 0, 72, 56
1, 972038, Control_c, 0, 64, 98
1, 972053, Control_c, 0, 64, 86
1, 972069, Control_c, 0, 64, 82
1, 972084, Control_c, 0, 64, 83
1, 972087, Note_on_c, 0, 76, 69
1, 972099, Control_c, 0, 64, 87
1, 972111, Note_off_c, 0, 80, 58
1, 972114, Control_c, 0, 64, 96
1, 972115, Note_off_c, 0, 72, 57
1, 972126, Note_off_c, 0, 56, 54
1, 972128, Control_c, 0, 64, 127
1, 972149, Note_on_c, 0, 68, 67
1, 972200, Note_off_c, 0, 76, 54
1, 972203, Note_on_c, 0, 63, 93
1, 972213, Note_on_c, 0, 80, 80
1, 972228, Note_on_c, 0, 56, 58
1, 972232, Note_on_c, 0, 60, 63
1, 972234, Note_off_c, 0, 62, 63
1, 972238, Note_off_c, 0, 68, 58
1, 972246, Control_c, 0, 64, 109
1, 972254, Note_on_c, 0, 72, 58
1, 972261, Control_c, 0, 64, 82
1, 972276, Control_c, 0, 64, 67
1, 972290, Control_c, 0, 64, 59
1, 972305, Control_c, 0, 64, 60
1, 972320, Note_on_c, 0, 75, 73
1, 972320, Control_c, 0, 64, 64
1, 972324, Note_off_c, 0, 56, 57
1, 972335, Control_c, 0, 64, 68
1, 972350, Control_c, 0, 64, 79
1, 972356, Note_off_c, 0, 80, 58
1, 972361, Note_off_c, 0, 72, 58
1, 972364, Control_c, 0, 64, 127
1, 972370, Note_on_c, 0, 68, 68
1, 972451, Note_on_c, 0, 64, 91
1, 972453, Note_off_c, 0, 68, 61
1, 972461, Note_on_c, 0, 55, 77
1, 972469, Control_c, 0, 64, 108
1, 972471, Note_on_c, 0, 79, 78
1, 972481, Note_off_c, 0, 63, 62
1, 972484, Control_c, 0, 64, 76
1, 972498, Note_off_c, 0, 75, 29
1, 972498, Control_c, 0, 64, 60
1, 972520, Control_c, 0, 64, 42
1, 972535, Control_c, 0, 64, 57
1, 972543, Note_on_c, 0, 72, 62
1, 972550, Control_c, 0, 64, 66
1, 972565, Note_off_c, 0, 55, 61
1, 972565, Control_c, 0, 64, 79
1, 972579, Control_c, 0, 64, 127
1, 972618, Note_on_c, 0, 76, 66
1, 972618, Note_off_c, 0, 64, 58
1, 972625, Note_off_c, 0, 60, 55
1, 972634, Note_off_c, 0, 72, 56
1, 972641, Note_off_c, 0, 79, 54
1, 972659, Note_on_c, 0, 67, 66
1, 972665, Note_on_c, 0, 54, 66
1, 972699, Note_on_c, 0, 60, 43
1, 972702, Note_off_c, 0, 76, 53
1, 972714, Note_off_c, 0, 67, 58
1, 972740, Note_off_c, 0, 54, 62
1, 972805, Note_on_c, 0, 64, 59
1, 972843, Note_on_c, 0, 69, 93
1, 972891, Control_c, 0, 64, 99
1, 972905, Note_on_c, 0, 78, 65
1, 972906, Control_c, 0, 64, 82
1, 972920, Control_c, 0, 64, 73
1, 972935, Control_c, 0, 64, 70
1, 972950, Control_c, 0, 64, 72
1, 972965, Control_c, 0, 64, 75
1, 972980, Control_c, 0, 64, 81
1, 972994, Control_c, 0, 64, 96
1, 972997, Note_on_c, 0, 72, 57
1, 973009, Control_c, 0, 64, 127
1, 973044, Note_off_c, 0, 69, 53
1, 973059, Note_off_c, 0, 72, 59
1, 973064, Note_on_c, 0, 76, 56
1, 973071, Note_off_c, 0, 78, 55
1, 973105, Note_off_c, 0, 76, 61
1, 973117, Note_on_c, 0, 66, 55
1, 973146, Note_off_c, 0, 64, 61
1, 973157, Note_off_c, 0, 66, 60
1, 973188, Note_on_c, 0, 56, 55
1, 973201, Note_off_c, 0, 60, 41
1, 973208, Note_on_c, 0, 80, 69
1, 973247, Note_off_c, 0, 56, 56
1, 973272, Note_on_c, 0, 64, 57
1, 973272, Note_on_c, 0, 72, 60
1, 973304, Note_off_c, 0, 64, 64
1, 973316, Note_on_c, 0, 60, 53
1, 973333, Note_on_c, 0, 76, 69
1, 973347, Note_off_c, 0, 72, 59
1, 973352, Note_off_c, 0, 80, 60
1, 973384, Note_on_c, 0, 64, 65
1, 973387, Note_off_c, 0, 60, 59
1, 973387, Note_on_c, 0, 68, 69
1, 973425, Note_off_c, 0, 64, 62
1, 973432, Note_off_c, 0, 68, 60
1, 973438, Note_off_c, 0, 76, 0
1, 973454, Note_on_c, 0, 57, 61
1, 973459, Note_on_c, 0, 81, 85
1, 973470, Poly_aftertouch_c, 0, 76, 0
1, 973494, Note_off_c, 0, 57, 59
1, 973494, Note_on_c, 0, 72, 60
1, 973513, Note_on_c, 0, 64, 60
1, 973551, Note_off_c, 0, 64, 62
1, 973559, Note_on_c, 0, 60, 63
1, 973569, Note_on_c, 0, 76, 78
1, 973569, Note_off_c, 0, 72, 64
1, 973569, Note_off_c, 0, 81, 61
1, 973619, Note_off_c, 0, 60, 55
1, 973622, Note_off_c, 0, 76, 63
1, 973624, Note_on_c, 0, 69, 74
1, 973634, Note_on_c, 0, 64, 61
1, 973653, Note_off_c, 0, 69, 62
1, 973674, Note_on_c, 0, 59, 68
1, 973696, Note_on_c, 0, 83, 90
1, 973753, Note_on_c, 0, 76, 76
1, 973753, Note_off_c, 0, 59, 63
1, 973756, Note_off_c, 0, 64, 62
1, 973806, Note_on_c, 0, 81, 74
1, 973831, Note_off_c, 0, 83, 61
1, 973846, Note_off_c, 0, 76, 54
1, 973853, Note_on_c, 0, 71, 75
1, 973896, Note_off_c, 0, 81, 57
1, 973903, Note_off_c, 0, 71, 59
1, 973928, Note_on_c, 0, 68, 71
1, 973932, Note_on_c, 0, 60, 65
1, 973935, Control_c, 0, 64, 96
1, 973944, Note_on_c, 0, 84, 83
1, 973950, Control_c, 0, 64, 72
1, 973965, Control_c, 0, 64, 62
1, 973967, Note_off_c, 0, 60, 61
1, 973980, Control_c, 0, 64, 63
1, 973986, Note_on_c, 0, 76, 64
1, 973995, Control_c, 0, 64, 70
1, 974000, Note_on_c, 0, 64, 52
1, 974016, Note_off_c, 0, 84, 64
1, 974017, Control_c, 0, 64, 88
1, 974032, Control_c, 0, 64, 127
1, 974069, Note_off_c, 0, 64, 59
1, 974070, Note_on_c, 0, 80, 72
1, 974075, Note_off_c, 0, 76, 65
1, 974115, Note_on_c, 0, 60, 7
1, 974134, Note_off_c, 0, 80, 62
1, 974139, Note_on_c, 0, 64, 49
1, 974141, Note_on_c, 0, 72, 61
1, 974158, Note_off_c, 0, 60, 0
1, 974174, Note_off_c, 0, 72, 65
1, 974176, Poly_aftertouch_c, 0, 60, 0
1, 974195, Note_off_c, 0, 64, 60
1, 974212, Note_on_c, 0, 85, 74
1, 974214, Note_on_c, 0, 61, 60
1, 974277, Note_on_c, 0, 76, 64
1, 974297, Note_off_c, 0, 61, 54
1, 974303, Note_off_c, 0, 68, 50
1, 974303, Note_off_c, 0, 85, 52
1, 974326, Note_on_c, 0, 64, 49
1, 974339, Note_on_c, 0, 80, 66
1, 974344, Note_off_c, 0, 76, 63
1, 974351, Note_off_c, 0, 64, 63
1, 974398, Note_on_c, 0, 73, 69
1, 974405, Note_off_c, 0, 80, 62
1, 974438, Note_off_c, 0, 73, 61
1, 974609, Note_on_c, 0, 44, 42
1, 974639, Note_on_c, 0, 56, 35
1, 974660, Note_on_c, 0, 51, 40
1, 974683, Note_on_c, 0, 72, 77
1, 974685, Control_c, 0, 64, 79
1, 974695, Note_on_c, 0, 68, 57
1, 974700, Control_c, 0, 64, 58
1, 974709, Note_on_c, 0, 63, 46
1, 974715, Control_c, 0, 64, 0
1, 974717, Note_on_c, 0, 60, 48
1, 974759, Control_c, 0, 64, 35
1, 974781, Control_c, 0, 64, 60
1, 974796, Note_off_c, 0, 44, 55
1, 974796, Control_c, 0, 64, 71
1, 974811, Control_c, 0, 64, 92
1, 974826, Control_c, 0, 64, 127
1, 974827, Note_off_c, 0, 60, 61
1, 974835, Note_off_c, 0, 51, 55
1, 974843, Note_off_c, 0, 56, 61
1, 974869, Note_off_c, 0, 63, 62
1, 974891, Note_off_c, 0, 68, 62
1, 974912, Note_off_c, 0, 72, 63
1, 975100, Note_on_c, 0, 63, 39
1, 975137, Note_on_c, 0, 87, 61
1, 975217, Note_on_c, 0, 72, 35
1, 975223, Note_on_c, 0, 80, 52
1, 975255, Note_off_c, 0, 72, 57
1, 975262, Note_off_c, 0, 63, 33
1, 975271, Note_off_c, 0, 80, 60
1, 975289, Note_on_c, 0, 84, 59
1, 975304, Note_on_c, 0, 68, 41
1, 975313, Note_off_c, 0, 87, 53
1, 975337, Note_off_c, 0, 84, 58
1, 975338, Note_off_c, 0, 68, 59
1, 975354, Note_on_c, 0, 75, 54
1, 975379, Note_on_c, 0, 72, 44
1, 975386, Note_off_c, 0, 75, 63
1, 975474, Note_on_c, 0, 60, 77
1, 975482, Note_off_c, 0, 72, 36
1, 975529, Note_on_c, 0, 68, 52
1, 975543, Note_on_c, 0, 92, 70
1, 975571, Note_off_c, 0, 68, 62
1, 975616, Note_on_c, 0, 72, 45
1, 975623, Note_on_c, 0, 84, 46
1, 975640, Note_off_c, 0, 72, 58
1, 975665, Note_on_c, 0, 68, 59
1, 975686, Note_on_c, 0, 87, 56
1, 975700, Note_off_c, 0, 68, 64
1, 975705, Note_off_c, 0, 84, 47
1, 975713, Note_off_c, 0, 92, 57
1, 975720, Note_on_c, 0, 72, 58
1, 975742, Note_on_c, 0, 80, 52
1, 975750, Note_off_c, 0, 72, 64
1, 975801, Note_off_c, 0, 80, 51
1, 975809, Note_on_c, 0, 67, 50
1, 975821, Note_on_c, 0, 91, 78
1, 975826, Note_off_c, 0, 87, 31
1, 975843, Note_off_c, 0, 67, 64
1, 975879, Note_on_c, 0, 68, 54
1, 975886, Note_on_c, 0, 84, 56
1, 975907, Note_off_c, 0, 68, 62
1, 975926, Note_on_c, 0, 67, 56
1, 975935, Note_on_c, 0, 87, 67
1, 975942, Note_off_c, 0, 84, 62
1, 975944, Note_off_c, 0, 91, 60
1, 975960, Note_off_c, 0, 67, 66
1, 975985, Note_off_c, 0, 87, 60
1, 975986, Note_on_c, 0, 68, 63
1, 975996, Note_on_c, 0, 79, 64
1, 976025, Note_off_c, 0, 68, 55
1, 976040, Note_off_c, 0, 79, 62
1, 976049, Note_on_c, 0, 65, 64
1, 976061, Note_on_c, 0, 89, 86
1, 976084, Note_off_c, 0, 65, 63
1, 976132, Note_on_c, 0, 68, 38
1, 976138, Note_on_c, 0, 80, 57
1, 976157, Note_off_c, 0, 68, 56
1, 976174, Note_on_c, 0, 65, 59
1, 976180, Note_off_c, 0, 80, 60
1, 976184, Note_off_c, 0, 89, 61
1, 976186, Note_off_c, 0, 60, 62
1, 976197, Note_on_c, 0, 84, 52
1, 976204, Note_off_c, 0, 65, 65
1, 976225, Note_on_c, 0, 77, 66
1, 976232, Note_on_c, 0, 68, 60
1, 976235, Note_off_c, 0, 84, 64
1, 976255, Note_off_c, 0, 68, 62
1, 976290, Note_off_c, 0, 77, 61
1, 976305, Note_on_c, 0, 63, 84
1, 976309, Note_on_c, 0, 87, 82
1, 976384, Note_on_c, 0, 80, 68
1, 976400, Note_on_c, 0, 68, 65
1, 976429, Note_off_c, 0, 80, 57
1, 976440, Note_on_c, 0, 84, 67
1, 976444, Note_off_c, 0, 87, 58
1, 976454, Note_off_c, 0, 63, 59
1, 976463, Note_off_c, 0, 68, 59
1, 976493, Note_off_c, 0, 84, 62
1, 976508, Note_on_c, 0, 75, 60
1, 976560, Note_off_c, 0, 75, 58
1, 976584, Note_on_c, 0, 65, 86
1, 976597, Note_on_c, 0, 87, 72
1, 976607, Note_on_c, 0, 63, 58
1, 976620, Control_c, 0, 64, 119
1, 976635, Control_c, 0, 64, 84
1, 976644, Note_off_c, 0, 63, 61
1, 976650, Control_c, 0, 64, 68
1, 976657, Note_on_c, 0, 77, 66
1, 976665, Control_c, 0, 64, 60
1, 976680, Control_c, 0, 64, 62
1, 976690, Note_on_c, 0, 68, 62
1, 976694, Control_c, 0, 64, 65
1, 976709, Control_c, 0, 64, 69
1, 976724, Control_c, 0, 64, 78
1, 976734, Note_on_c, 0, 80, 64
1, 976736, Note_off_c, 0, 77, 56
1, 976738, Control_c, 0, 64, 104
1, 976740, Note_off_c, 0, 87, 57
1, 976741, Note_off_c, 0, 68, 56
1, 976747, Note_on_c, 0, 63, 56
1, 976753, Control_c, 0, 64, 127
1, 976782, Note_off_c, 0, 63, 66
1, 976805, Note_on_c, 0, 75, 52
1, 976811, Note_on_c, 0, 68, 46
1, 976822, Note_off_c, 0, 80, 56
1, 976862, Note_off_c, 0, 75, 48
1, 976870, Note_off_c, 0, 68, 60
1, 976879, Note_on_c, 0, 62, 56
1, 976886, Note_on_c, 0, 86, 66
1, 976907, Note_off_c, 0, 65, 54
1, 976917, Note_off_c, 0, 62, 62
1, 976922, Note_on_c, 0, 77, 51
1, 976931, Note_on_c, 0, 68, 44
1, 976971, Note_off_c, 0, 68, 62
1, 976971, Note_off_c, 0, 77, 56
1, 976975, Note_on_c, 0, 80, 59
1, 976988, Note_off_c, 0, 86, 61
1, 977002, Note_on_c, 0, 62, 48
1, 977041, Note_on_c, 0, 74, 66
1, 977041, Note_off_c, 0, 62, 51
1, 977056, Note_on_c, 0, 68, 60
1, 977084, Note_off_c, 0, 68, 62
1, 977099, Note_off_c, 0, 74, 62
1, 977111, Note_on_c, 0, 61, 61
1, 977115, Note_on_c, 0, 85, 82
1, 977132, Note_off_c, 0, 80, 30
1, 977143, Note_off_c, 0, 61, 64
1, 977164, Note_on_c, 0, 68, 63
1, 977171, Note_on_c, 0, 77, 68
1, 977193, Note_off_c, 0, 68, 63
1, 977208, Note_on_c, 0, 61, 64
1, 977226, Note_off_c, 0, 85, 61
1, 977230, Note_on_c, 0, 80, 69
1, 977238, Note_off_c, 0, 61, 64
1, 977243, Note_off_c, 0, 77, 54
1, 977278, Note_on_c, 0, 68, 52
1, 977280, Note_on_c, 0, 73, 71
1, 977297, Note_off_c, 0, 80, 59
1, 977329, Note_off_c, 0, 68, 52
1, 977332, Note_off_c, 0, 73, 64
1, 977333, Note_on_c, 0, 60, 71
1, 977347, Note_on_c, 0, 84, 85
1, 977389, Note_on_c, 0, 77, 64
1, 977429, Note_on_c, 0, 65, 65
1, 977445, Note_on_c, 0, 80, 69
1, 977460, Note_off_c, 0, 77, 62
1, 977463, Note_off_c, 0, 84, 59
1, 977466, Note_off_c, 0, 60, 63
1, 977469, Note_off_c, 0, 65, 59
1, 977498, Note_on_c, 0, 72, 68
1, 977505, Note_off_c, 0, 80, 63
1, 977591, Note_on_c, 0, 68, 96
1, 977607, Control_c, 0, 64, 84
1, 977609, Note_on_c, 0, 84, 74
1, 977611, Note_on_c, 0, 60, 64
1, 977622, Control_c, 0, 64, 68
1, 977626, Note_off_c, 0, 72, 34
1, 977636, Control_c, 0, 64, 59
1, 977651, Control_c, 0, 64, 61
1, 977667, Control_c, 0, 64, 65
1, 977675, Note_on_c, 0, 75, 44
1, 977682, Control_c, 0, 64, 71
1, 977697, Control_c, 0, 64, 84
1, 977706, Note_off_c, 0, 84, 62
1, 977712, Control_c, 0, 64, 127
1, 977712, Note_off_c, 0, 75, 62
1, 977717, Note_on_c, 0, 80, 64
1, 977748, Note_off_c, 0, 80, 64
1, 977761, Note_on_c, 0, 72, 65
1, 977781, Note_off_c, 0, 60, 58
1, 977795, Note_on_c, 0, 63, 53
1, 977812, Note_off_c, 0, 68, 55
1, 977819, Note_off_c, 0, 72, 62
1, 977862, Note_on_c, 0, 82, 72
1, 977867, Note_off_c, 0, 63, 62
1, 977874, Note_on_c, 0, 58, 65
1, 977912, Note_on_c, 0, 72, 55
1, 977955, Note_on_c, 0, 60, 24
1, 977956, Note_off_c, 0, 82, 57
1, 977977, Note_off_c, 0, 72, 62
1, 977977, Note_on_c, 0, 75, 63
1, 977980, Note_on_c, 0, 63, 43
1, 977995, Note_off_c, 0, 58, 48
1, 978012, Note_off_c, 0, 63, 61
1, 978042, Note_on_c, 0, 70, 66
1, 978058, Note_off_c, 0, 75, 55
1, 978102, Note_on_c, 0, 80, 75
1, 978106, Note_off_c, 0, 70, 59
1, 978125, Note_off_c, 0, 60, 35
1, 978126, Note_on_c, 0, 63, 31
1, 978148, Note_on_c, 0, 56, 55
1, 978153, Note_on_c, 0, 72, 62
1, 978183, Note_off_c, 0, 56, 64
1, 978189, Note_off_c, 0, 63, 0
1, 978201, Note_on_c, 0, 75, 67
1, 978216, Note_off_c, 0, 72, 62
1, 978221, Note_off_c, 0, 80, 55
1, 978226, Poly_aftertouch_c, 0, 63, 127
1, 978254, Note_on_c, 0, 60, 44
1, 978258, Note_on_c, 0, 56, 63
1, 978261, Note_on_c, 0, 68, 67
1, 978275, Note_off_c, 0, 75, 56
1, 978310, Note_off_c, 0, 60, 59
1, 978312, Note_off_c, 0, 56, 60
1, 978329, Note_off_c, 0, 68, 58
1, 978342, Note_on_c, 0, 79, 81
1, 978350, Note_on_c, 0, 67, 73
1, 978366, Poly_aftertouch_c, 0, 63, 0
1, 978370, Note_on_c, 0, 72, 58
1, 978435, Note_on_c, 0, 75, 63
1, 978444, Note_off_c, 0, 79, 61
1, 978448, Note_off_c, 0, 67, 59
1, 978469, Note_off_c, 0, 72, 57
1, 978470, Note_on_c, 0, 68, 69
1, 978484, Note_on_c, 0, 63, 47
1, 978484, Note_on_c, 0, 60, 51
1, 978517, Note_off_c, 0, 75, 42
1, 978538, Note_off_c, 0, 60, 58
1, 978539, Note_off_c, 0, 68, 59
1, 978586, Note_off_c, 0, 63, 61
1, 978591, Note_on_c, 0, 77, 76
1, 978595, Note_on_c, 0, 72, 94
1, 978605, Note_on_c, 0, 65, 63
1, 978658, Note_on_c, 0, 68, 63
1, 978669, Note_off_c, 0, 72, 61
1, 978711, Note_off_c, 0, 68, 61
1, 978718, Note_on_c, 0, 72, 57
1, 978727, Note_off_c, 0, 65, 62
1, 978764, Note_on_c, 0, 60, 31
1, 978785, Note_off_c, 0, 72, 64
1, 978792, Note_on_c, 0, 68, 62
1, 978805, Note_off_c, 0, 77, 62
1, 978838, Note_off_c, 0, 68, 60
1, 978841, Note_off_c, 0, 60, 60
1, 978848, Note_on_c, 0, 56, 59
1, 978848, Note_on_c, 0, 75, 79
1, 978881, Note_on_c, 0, 63, 52
1, 978909, Note_on_c, 0, 68, 59
1, 978940, Note_off_c, 0, 63, 55
1, 978945, Note_off_c, 0, 68, 64
1, 978958, Note_on_c, 0, 72, 62
1, 978963, Note_on_c, 0, 60, 57
1, 978988, Note_off_c, 0, 75, 60
1, 979001, Note_off_c, 0, 60, 64
1, 979003, Note_off_c, 0, 72, 65
1, 979015, Note_on_c, 0, 68, 77
1, 979027, Note_off_c, 0, 56, 60
1, 979044, Note_off_c, 0, 68, 64
1, 979096, Note_on_c, 0, 73, 80
1, 979110, Note_on_c, 0, 61, 61
1, 979154, Note_on_c, 0, 63, 71
1, 979174, Note_on_c, 0, 56, 49
1, 979176, Note_off_c, 0, 61, 59
1, 979205, Note_off_c, 0, 63, 60
1, 979212, Note_on_c, 0, 68, 66
1, 979215, Note_off_c, 0, 73, 53
1, 979242, Note_on_c, 0, 51, 58
1, 979263, Note_off_c, 0, 56, 52
1, 979280, Note_on_c, 0, 63, 60
1, 979293, Note_off_c, 0, 68, 57
1, 979333, Note_off_c, 0, 51, 62
1, 979337, Note_off_c, 0, 63, 61
1, 979373, Note_on_c, 0, 72, 66
1, 979388, Note_on_c, 0, 60, 58
1, 979405, Note_on_c, 0, 56, 51
1, 979423, Note_off_c, 0, 60, 64
1, 979435, Note_on_c, 0, 63, 54
1, 979445, Note_off_c, 0, 56, 64
1, 979446, Note_on_c, 0, 51, 57
1, 979456, Note_off_c, 0, 72, 62
1, 979476, Note_off_c, 0, 51, 60
1, 979487, Note_on_c, 0, 68, 69
1, 979497, Note_off_c, 0, 63, 63
1, 979586, Note_off_c, 0, 68, 61
1, 979611, Note_on_c, 0, 76, 102
1, 979620, Note_on_c, 0, 72, 72
1, 979629, Note_on_c, 0, 44, 69
1, 979680, Note_on_c, 0, 51, 70
1, 979685, Note_off_c, 0, 72, 63
1, 979698, Note_off_c, 0, 44, 62
1, 979706, Note_off_c, 0, 76, 62
1, 979746, Note_on_c, 0, 59, 74
1, 979751, Note_on_c, 0, 75, 96
1, 979763, Note_on_c, 0, 71, 81
1, 979779, Control_c, 0, 64, 88
1, 979794, Control_c, 0, 64, 61
1, 979809, Control_c, 0, 64, 0
1, 979853, Control_c, 0, 64, 31
1, 979868, Control_c, 0, 64, 54
1, 979883, Control_c, 0, 64, 68
1, 979897, Note_off_c, 0, 51, 57
1, 979898, Control_c, 0, 64, 83
1, 979912, Control_c, 0, 64, 127
1, 979971, Note_off_c, 0, 71, 52
1, 980069, Note_off_c, 0, 75, 54
1, 980133, Note_off_c, 0, 59, 51
1, 980187, Note_on_c, 0, 58, 41
1, 980253, Note_on_c, 0, 82, 54
1, 980331, Note_on_c, 0, 71, 52
1, 980336, Note_on_c, 0, 63, 37
1, 980354, Note_off_c, 0, 82, 59
1, 980356, Note_off_c, 0, 58, 55
1, 980358, Note_off_c, 0, 71, 64
1, 980369, Note_off_c, 0, 63, 52
1, 980394, Note_on_c, 0, 59, 54
1, 980409, Note_on_c, 0, 75, 50
1, 980430, Note_off_c, 0, 59, 61
1, 980457, Note_off_c, 0, 75, 56
1, 980460, Note_on_c, 0, 63, 53
1, 980490, Note_on_c, 0, 70, 47
1, 980543, Note_off_c, 0, 70, 55
1, 980548, Note_on_c, 0, 59, 60
1, 980564, Note_on_c, 0, 80, 55
1, 980568, Note_on_c, 0, 56, 42
1, 980601, Note_off_c, 0, 63, 37
1, 980661, Note_on_c, 0, 71, 51
1, 980727, Note_off_c, 0, 80, 57
1, 980732, Note_on_c, 0, 75, 56
1, 980748, Note_off_c, 0, 56, 40
1, 980761, Note_off_c, 0, 71, 57
1, 980789, Note_on_c, 0, 68, 58
1, 980846, Note_on_c, 0, 61, 80
1, 980867, Note_on_c, 0, 79, 65
1, 980867, Note_off_c, 0, 68, 55
1, 980886, Note_on_c, 0, 55, 57
1, 980902, Note_off_c, 0, 75, 32
1, 980905, Note_off_c, 0, 59, 53
1, 980907, Control_c, 0, 64, 98
1, 980916, Note_on_c, 0, 71, 53
1, 980922, Control_c, 0, 64, 78
1, 980937, Control_c, 0, 64, 67
1, 980952, Control_c, 0, 64, 62
1, 980966, Control_c, 0, 64, 63
1, 980980, Note_off_c, 0, 55, 58
1, 980981, Control_c, 0, 64, 66
1, 980990, Note_off_c, 0, 79, 58
1, 980996, Note_off_c, 0, 71, 58
1, 980996, Control_c, 0, 64, 71
1, 980997, Note_on_c, 0, 75, 67
1, 981010, Control_c, 0, 64, 83
1, 981025, Control_c, 0, 64, 127
1, 981027, Note_on_c, 0, 67, 65
1, 981072, Note_off_c, 0, 75, 59
1, 981085, Note_on_c, 0, 62, 89
1, 981099, Control_c, 0, 64, 122
1, 981102, Note_on_c, 0, 55, 69
1, 981104, Note_on_c, 0, 59, 65
1, 981105, Note_on_c, 0, 79, 76
1, 981114, Control_c, 0, 64, 81
1, 981121, Note_off_c, 0, 61, 60
1, 981129, Control_c, 0, 64, 65
1, 981131, Note_off_c, 0, 67, 52
1, 981144, Control_c, 0, 64, 49
1, 981158, Control_c, 0, 64, 52
1, 981161, Note_on_c, 0, 71, 60
1, 981173, Control_c, 0, 64, 60
1, 981188, Control_c, 0, 64, 66
1, 981203, Control_c, 0, 64, 74
1, 981211, Note_off_c, 0, 55, 61
1, 981218, Control_c, 0, 64, 99
1, 981226, Note_on_c, 0, 74, 67
1, 981232, Control_c, 0, 64, 127
1, 981235, Note_off_c, 0, 79, 63
1, 981237, Note_off_c, 0, 62, 63
1, 981247, Note_off_c, 0, 71, 60
1, 981259, Note_on_c, 0, 67, 64
1, 981331, Note_off_c, 0, 67, 63
1, 981346, Note_on_c, 0, 63, 90
1, 981349, Note_on_c, 0, 78, 80
1, 981351, Control_c, 0, 64, 106
1, 981364, Note_on_c, 0, 54, 70
1, 981366, Control_c, 0, 64, 75
1, 981378, Note_off_c, 0, 74, 54
1, 981381, Control_c, 0, 64, 62
1, 981396, Control_c, 0, 64, 54
1, 981410, Control_c, 0, 64, 61
1, 981421, Note_on_c, 0, 71, 64
1, 981425, Control_c, 0, 64, 65
1, 981440, Control_c, 0, 64, 71
1, 981455, Control_c, 0, 64, 93
1, 981457, Note_off_c, 0, 54, 58
1, 981470, Control_c, 0, 64, 127
1, 981483, Note_off_c, 0, 63, 61
1, 981488, Note_on_c, 0, 75, 67
1, 981510, Note_off_c, 0, 71, 61
1, 981537, Note_off_c, 0, 59, 49
1, 981537, Note_off_c, 0, 78, 58
1, 981543, Note_on_c, 0, 66, 58
1, 981584, Note_on_c, 0, 53, 51
1, 981599, Note_off_c, 0, 75, 56
1, 981633, Note_off_c, 0, 53, 54
1, 981644, Note_on_c, 0, 59, 64
1, 981657, Note_on_c, 0, 63, 62
1, 981665, Poly_aftertouch_c, 0, 57, 127
1, 981669, Poly_aftertouch_c, 0, 55, 127
1, 981695, Poly_aftertouch_c, 0, 55, 0
1, 981705, Poly_aftertouch_c, 0, 57, 0
1, 981707, Note_off_c, 0, 66, 32
1, 981754, Note_on_c, 0, 68, 86
1, 981788, Control_c, 0, 64, 101
1, 981803, Control_c, 0, 64, 84
1, 981805, Note_on_c, 0, 77, 64
1, 981818, Control_c, 0, 64, 72
1, 981832, Control_c, 0, 64, 65
1, 981847, Control_c, 0, 64, 64
1, 981862, Control_c, 0, 64, 66
1, 981877, Control_c, 0, 64, 68
1, 981882, Note_on_c, 0, 71, 54
1, 981892, Control_c, 0, 64, 71
1, 981906, Control_c, 0, 64, 81
1, 981913, Note_off_c, 0, 63, 0
1, 981921, Control_c, 0, 64, 127
1, 981951, Poly_aftertouch_c, 0, 63, 127
1, 981954, Note_off_c, 0, 71, 57
1, 981957, Note_on_c, 0, 75, 56
1, 981972, Note_off_c, 0, 68, 58
1, 981972, Note_off_c, 0, 77, 61
1, 982016, Note_off_c, 0, 75, 58
1, 982028, Note_on_c, 0, 65, 51
1, 982061, Note_off_c, 0, 65, 63
1, 982082, Poly_aftertouch_c, 0, 63, 0
1, 982093, Note_off_c, 0, 59, 56
1, 982105, Note_on_c, 0, 54, 50
1, 982112, Note_on_c, 0, 78, 73
1, 982171, Note_off_c, 0, 54, 59
1, 982176, Note_on_c, 0, 71, 62
1, 982189, Note_on_c, 0, 63, 49
1, 982215, Note_off_c, 0, 63, 56
1, 982219, Note_on_c, 0, 59, 63
1, 982224, Note_off_c, 0, 78, 48
1, 982245, Note_off_c, 0, 71, 57
1, 982246, Note_on_c, 0, 75, 65
1, 982293, Note_on_c, 0, 66, 65
1, 982293, Note_off_c, 0, 59, 60
1, 982300, Note_on_c, 0, 63, 59
1, 982332, Note_off_c, 0, 75, 55
1, 982338, Note_off_c, 0, 63, 61
1, 982348, Note_off_c, 0, 66, 62
1, 982350, Note_on_c, 0, 56, 73
1, 982359, Note_on_c, 0, 80, 86
1, 982420, Note_off_c, 0, 56, 60
1, 982423, Note_on_c, 0, 71, 63
1, 982429, Note_on_c, 0, 63, 48
1, 982450, Note_off_c, 0, 63, 61
1, 982458, Note_on_c, 0, 59, 62
1, 982465, Note_on_c, 0, 75, 75
1, 982466, Note_off_c, 0, 80, 62
1, 982481, Note_off_c, 0, 71, 64
1, 982517, Note_off_c, 0, 75, 61
1, 982526, Note_off_c, 0, 59, 58
1, 982529, Note_on_c, 0, 63, 52
1, 982532, Note_on_c, 0, 68, 70
1, 982558, Note_off_c, 0, 68, 68
1, 982577, Note_off_c, 0, 63, 59
1, 982583, Note_on_c, 0, 58, 71
1, 982597, Note_on_c, 0, 82, 87
1, 982632, Note_on_c, 0, 83, 54
1, 982654, Note_off_c, 0, 83, 60
1, 982657, Note_on_c, 0, 63, 55
1, 982665, Note_on_c, 0, 76, 66
1, 982676, Note_on_c, 0, 59, 55
1, 982682, Note_off_c, 0, 58, 61
1, 982709, Note_off_c, 0, 59, 64
1, 982717, Note_off_c, 0, 63, 61
1, 982719, Note_off_c, 0, 76, 63
1, 982720, Note_on_c, 0, 80, 72
1, 982732, Note_off_c, 0, 82, 50
1, 982758, Note_on_c, 0, 70, 71
1, 982787, Note_off_c, 0, 70, 66
1, 982791, Note_off_c, 0, 80, 58
1, 982834, Control_c, 0, 64, 99
1, 982849, Control_c, 0, 64, 71
1, 982851, Note_on_c, 0, 83, 80
1, 982854, Note_on_c, 0, 67, 60
1, 982857, Note_on_c, 0, 59, 51
1, 982863, Control_c, 0, 64, 44
1, 982878, Control_c, 0, 64, 22
1, 982893, Control_c, 0, 64, 47
1, 982899, Note_off_c, 0, 59, 62
1, 982904, Note_on_c, 0, 74, 66
1, 982908, Control_c, 0, 64, 58
1, 982918, Note_on_c, 0, 62, 53
1, 982923, Control_c, 0, 64, 66
1, 982927, Note_off_c, 0, 83, 61
1, 982938, Control_c, 0, 64, 76
1, 982952, Control_c, 0, 64, 110
1, 982967, Control_c, 0, 64, 127
1, 982973, Note_off_c, 0, 74, 63
1, 982979, Note_on_c, 0, 79, 63
1, 982988, Note_on_c, 0, 59, 56
1, 983013, Note_off_c, 0, 62, 0
1, 983018, Note_off_c, 0, 79, 67
1, 983036, Note_off_c, 0, 59, 61
1, 983044, Note_on_c, 0, 71, 64
1, 983045, Note_on_c, 0, 62, 18
1, 983060, Note_off_c, 0, 71, 65
1, 983110, Note_off_c, 0, 62, 61
1, 983125, Note_on_c, 0, 85, 72
1, 983128, Note_on_c, 0, 61, 61
1, 983148, Note_off_c, 0, 85, 70
1, 983200, Note_on_c, 0, 74, 60
1, 983208, Note_off_c, 0, 61, 55
1, 983221, Note_off_c, 0, 67, 29
1, 983251, Note_off_c, 0, 74, 54
1, 983270, Note_on_c, 0, 79, 60
1, 983271, Note_on_c, 0, 62, 20
1, 983274, Note_on_c, 0, 61, 35
1, 983321, Note_off_c, 0, 61, 62
1, 983328, Note_off_c, 0, 62, 61
1, 983357, Note_off_c, 0, 79, 63
1, 983358, Note_on_c, 0, 73, 61
1, 983402, Note_off_c, 0, 73, 59
1, 983632, Note_on_c, 0, 55, 38
1, 983633, Note_on_c, 0, 43, 40
1, 983639, Note_on_c, 0, 50, 31
1, 983671, Control_c, 0, 64, 94
1, 983678, Note_on_c, 0, 71, 64
1, 983686, Control_c, 0, 64, 69
1, 983691, Note_on_c, 0, 67, 48
1, 983701, Control_c, 0, 64, 52
1, 983706, Note_on_c, 0, 62, 30
1, 983716, Control_c, 0, 64, 0
1, 983717, Note_on_c, 0, 59, 34
1, 983753, Control_c, 0, 64, 28
1, 983768, Control_c, 0, 64, 46
1, 983777, Note_off_c, 0, 43, 51
1, 983783, Control_c, 0, 64, 61
1, 983798, Control_c, 0, 64, 73
1, 983810, Note_off_c, 0, 50, 54
1, 983812, Control_c, 0, 64, 97
1, 983816, Note_off_c, 0, 55, 58
1, 983827, Control_c, 0, 64, 127
1, 983828, Note_off_c, 0, 59, 61
1, 983881, Note_off_c, 0, 62, 53
1, 983910, Note_off_c, 0, 67, 56
1, 983940, Note_off_c, 0, 71, 61
1, 984104, Note_on_c, 0, 62, 42
1, 984141, Note_on_c, 0, 86, 62
1, 984215, Note_on_c, 0, 71, 42
1, 984247, Note_on_c, 0, 79, 47
1, 984262, Note_off_c, 0, 71, 60
1, 984278, Note_off_c, 0, 86, 55
1, 984290, Note_off_c, 0, 79, 60
1, 984294, Note_on_c, 0, 67, 48
1, 984306, Note_on_c, 0, 83, 49
1, 984348, Note_off_c, 0, 67, 52
1, 984356, Note_off_c, 0, 62, 28
1, 984356, Note_off_c, 0, 83, 61
1, 984376, Note_on_c, 0, 74, 45
1, 984401, Note_off_c, 0, 74, 56
1, 984408, Note_on_c, 0, 71, 31
1, 984485, Note_on_c, 0, 59, 69
1, 984503, Note_off_c, 0, 71, 35
1, 984557, Note_on_c, 0, 91, 63
1, 984562, Note_on_c, 0, 67, 38
1, 984602, Note_off_c, 0, 67, 52
1, 984636, Note_on_c, 0, 71, 45
1, 984667, Note_off_c, 0, 71, 50
1, 984678, Note_on_c, 0, 67, 46
1, 984681, Note_on_c, 0, 83, 46
1, 984702, Note_off_c, 0, 91, 59
1, 984712, Note_off_c, 0, 67, 64
1, 984717, Note_off_c, 0, 83, 63
1, 984741, Note_on_c, 0, 86, 41
1, 984747, Note_on_c, 0, 71, 43
1, 984762, Note_on_c, 0, 79, 59
1, 984773, Note_off_c, 0, 71, 57
1, 984821, Note_on_c, 0, 66, 53
1, 984826, Note_off_c, 0, 79, 57
1, 984837, Note_on_c, 0, 90, 67
1, 984862, Note_off_c, 0, 66, 61
1, 984904, Note_on_c, 0, 67, 53
1, 984905, Note_off_c, 0, 86, 35
1, 984917, Note_on_c, 0, 83, 58
1, 984935, Note_off_c, 0, 67, 59
1, 984961, Note_on_c, 0, 66, 50
1, 984962, Note_off_c, 0, 83, 62
1, 984968, Note_on_c, 0, 86, 54
1, 984970, Note_off_c, 0, 90, 59
1, 985000, Note_off_c, 0, 86, 66
1, 985002, Note_off_c, 0, 66, 61
1, 985011, Note_on_c, 0, 78, 62
1, 985025, Note_on_c, 0, 67, 55
1, 985042, Note_off_c, 0, 78, 66
1, 985059, Note_off_c, 0, 67, 61
1, 985080, Note_on_c, 0, 88, 80
1, 985092, Note_on_c, 0, 64, 55
1, 985129, Note_off_c, 0, 64, 63
1, 985166, Note_on_c, 0, 79, 40
1, 985170, Note_off_c, 0, 88, 57
1, 985170, Note_on_c, 0, 67, 47
1, 985188, Note_off_c, 0, 59, 28
1, 985194, Note_off_c, 0, 67, 60
1, 985197, Note_on_c, 0, 83, 65
1, 985201, Note_off_c, 0, 79, 53
1, 985209, Note_on_c, 0, 64, 61
1, 985238, Note_off_c, 0, 64, 67
1, 985251, Note_off_c, 0, 83, 61
1, 985265, Note_on_c, 0, 76, 58
1, 985301, Note_on_c, 0, 67, 22
1, 985307, Note_off_c, 0, 76, 62
1, 985333, Note_off_c, 0, 67, 47
1, 985335, Note_on_c, 0, 62, 84
1, 985335, Note_on_c, 0, 86, 78
1, 985408, Note_on_c, 0, 79, 64
1, 985414, Note_on_c, 0, 67, 65
1, 985433, Note_off_c, 0, 86, 53
1, 985455, Note_off_c, 0, 79, 61
1, 985461, Note_on_c, 0, 83, 62
1, 985472, Note_on_c, 0, 71, 63
1, 985472, Note_off_c, 0, 62, 52
1, 985490, Note_off_c, 0, 67, 62
1, 985495, Note_off_c, 0, 83, 65
1, 985522, Note_on_c, 0, 74, 55
1, 985522, Note_off_c, 0, 71, 62
1, 985562, Note_off_c, 0, 74, 59
1, 985595, Note_on_c, 0, 64, 86
1, 985608, Note_on_c, 0, 86, 66
1, 985620, Control_c, 0, 64, 98
1, 985635, Control_c, 0, 64, 76
1, 985650, Control_c, 0, 64, 64
1, 985665, Control_c, 0, 64, 65
1, 985678, Note_on_c, 0, 76, 61
1, 985680, Control_c, 0, 64, 70
1, 985689, Note_on_c, 0, 67, 55
1, 985695, Control_c, 0, 64, 79
1, 985710, Control_c, 0, 64, 104
1, 985712, Note_off_c, 0, 86, 59
1, 985725, Control_c, 0, 64, 127
1, 985738, Note_off_c, 0, 76, 59
1, 985740, Note_on_c, 0, 79, 56
1, 985746, Note_off_c, 0, 67, 58
1, 985747, Note_on_c, 0, 62, 53
1, 985794, Note_off_c, 0, 62, 59
1, 985801, Note_on_c, 0, 74, 52
1, 985835, Note_on_c, 0, 67, 46
1, 985866, Note_off_c, 0, 74, 58
1, 985871, Note_off_c, 0, 67, 61
1, 985880, Note_on_c, 0, 85, 63
1, 985885, Note_on_c, 0, 61, 52
1, 985900, Note_off_c, 0, 79, 25
1, 985930, Note_off_c, 0, 61, 58
1, 985936, Note_on_c, 0, 76, 62
1, 985968, Note_on_c, 0, 67, 47
1, 985973, Note_off_c, 0, 64, 0
1, 985991, Note_off_c, 0, 67, 58
1, 985993, Note_off_c, 0, 85, 56
1, 986011, Note_off_c, 0, 76, 57
1, 986012, Note_on_c, 0, 79, 62
1, 986017, Poly_aftertouch_c, 0, 64, 127
1, 986026, Note_on_c, 0, 61, 55
1, 986047, Note_on_c, 0, 73, 63
1, 986062, Note_off_c, 0, 61, 63
1, 986071, Note_on_c, 0, 67, 63
1, 986082, Note_off_c, 0, 73, 63
1, 986099, Note_off_c, 0, 67, 65
1, 986124, Note_on_c, 0, 84, 79
1, 986130, Note_on_c, 0, 60, 67
1, 986162, Note_off_c, 0, 60, 64
1, 986166, Note_off_c, 0, 79, 39
1, 986166, Poly_aftertouch_c, 0, 64, 0
1, 986173, Note_on_c, 0, 76, 60
1, 986187, Note_on_c, 0, 67, 67
1, 986201, Note_off_c, 0, 84, 55
1, 986222, Note_off_c, 0, 67, 55
1, 986229, Note_on_c, 0, 79, 63
1, 986243, Note_off_c, 0, 76, 63
1, 986246, Note_on_c, 0, 60, 58
1, 986271, Note_off_c, 0, 79, 64
1, 986277, Note_off_c, 0, 60, 63
1, 986282, Note_on_c, 0, 72, 67
1, 986321, Note_on_c, 0, 67, 33
1, 986326, Note_off_c, 0, 72, 61
1, 986355, Note_on_c, 0, 83, 82
1, 986371, Note_on_c, 0, 59, 73
1, 986417, Note_on_c, 0, 76, 77
1, 986431, Note_off_c, 0, 67, 40
1, 986440, Note_on_c, 0, 64, 55
1, 986452, Note_off_c, 0, 59, 59
1, 986458, Note_off_c, 0, 83, 60
1, 986465, Note_on_c, 0, 79, 70
1, 986476, Note_off_c, 0, 64, 65
1, 986482, Note_off_c, 0, 76, 63
1, 986512, Note_on_c, 0, 71, 71
1, 986544, Note_off_c, 0, 79, 59
1, 986578, Note_off_c, 0, 71, 60
1, 986600, Note_on_c, 0, 67, 93
1, 986611, Note_on_c, 0, 83, 79
1, 986622, Note_on_c, 0, 59, 69
1, 986622, Control_c, 0, 64, 91
1, 986637, Control_c, 0, 64, 72
1, 986652, Control_c, 0, 64, 65
1, 986667, Control_c, 0, 64, 67
1, 986682, Control_c, 0, 64, 76
1, 986688, Note_on_c, 0, 74, 61
1, 986696, Control_c, 0, 64, 91
1, 986699, Note_off_c, 0, 83, 56
1, 986711, Control_c, 0, 64, 127
1, 986722, Note_off_c, 0, 59, 52
1, 986726, Note_on_c, 0, 79, 64
1, 986731, Note_off_c, 0, 74, 58
1, 986771, Note_on_c, 0, 62, 50
1, 986792, Note_off_c, 0, 79, 63
1, 986793, Note_on_c, 0, 71, 63
1, 986810, Note_off_c, 0, 67, 55
1, 986833, Note_off_c, 0, 71, 62
1, 986851, Note_off_c, 0, 62, 63
1, 986863, Note_on_c, 0, 59, 50
1, 986868, Note_on_c, 0, 57, 53
1, 986875, Note_on_c, 0, 81, 76
1, 986902, Note_off_c, 0, 59, 62
1, 986913, Note_off_c, 0, 57, 61
1, 986933, Note_on_c, 0, 62, 45
1, 986936, Note_on_c, 0, 71, 66
1, 986956, Note_off_c, 0, 81, 58
1, 986968, Note_off_c, 0, 62, 64
1, 986972, Note_on_c, 0, 74, 68
1, 986994, Note_off_c, 0, 71, 55
1, 986999, Note_on_c, 0, 59, 58
1, 987032, Note_off_c, 0, 59, 64
1, 987033, Note_on_c, 0, 69, 69
1, 987042, Note_off_c, 0, 74, 59
1, 987059, Note_on_c, 0, 62, 50
1, 987097, Note_off_c, 0, 62, 65
1, 987105, Note_off_c, 0, 69, 53
1, 987107, Note_on_c, 0, 79, 79
1, 987123, Note_on_c, 0, 55, 64
1, 987150, Note_on_c, 0, 70, 70
1, 987168, Note_off_c, 0, 70, 62
1, 987188, Note_on_c, 0, 71, 57
1, 987203, Note_on_c, 0, 59, 52
1, 987209, Note_on_c, 0, 62, 44
1, 987211, Note_on_c, 0, 74, 65
1, 987213, Note_off_c, 0, 79, 61
1, 987219, Note_off_c, 0, 71, 65
1, 987223, Note_off_c, 0, 55, 58
1, 987270, Note_on_c, 0, 67, 66
1, 987285, Note_off_c, 0, 59, 63
1, 987285, Note_off_c, 0, 62, 62
1, 987320, Note_on_c, 0, 66, 74
1, 987333, Note_on_c, 0, 78, 88
1, 987333, Note_off_c, 0, 67, 51
1, 987378, Note_off_c, 0, 74, 23
1, 987392, Note_off_c, 0, 66, 61
1, 987402, Note_on_c, 0, 71, 68
1, 987406, Note_on_c, 0, 59, 63
1, 987423, Note_on_c, 0, 62, 56
1, 987433, Note_off_c, 0, 78, 62
1, 987456, Note_on_c, 0, 74, 58
1, 987469, Note_off_c, 0, 71, 61
1, 987471, Note_off_c, 0, 59, 59
1, 987498, Note_on_c, 0, 67, 70
1, 987502, Note_off_c, 0, 74, 62
1, 987554, Note_off_c, 0, 62, 58
1, 987570, Note_off_c, 0, 67, 62
1, 987590, Note_on_c, 0, 71, 103
1, 987598, Note_on_c, 0, 76, 83
1, 987618, Note_on_c, 0, 64, 49
1, 987627, Note_on_c, 0, 69, 46
1, 987645, Note_off_c, 0, 64, 62
1, 987650, Note_off_c, 0, 71, 59
1, 987659, Note_off_c, 0, 69, 56
1, 987698, Note_on_c, 0, 59, 66
1, 987724, Note_off_c, 0, 76, 60
1, 987762, Note_on_c, 0, 71, 72
1, 987817, Note_off_c, 0, 71, 61
1, 987823, Note_off_c, 0, 59, 59
1, 987827, Note_on_c, 0, 53, 39
1, 987829, Note_on_c, 0, 67, 70
1, 987859, Note_on_c, 0, 62, 68
1, 987860, Note_on_c, 0, 55, 32
1, 987869, Note_on_c, 0, 74, 87
1, 987869, Note_off_c, 0, 53, 51
1, 987874, Note_off_c, 0, 67, 60
1, 987906, Note_off_c, 0, 62, 59
1, 987920, Note_on_c, 0, 59, 67
1, 987933, Note_off_c, 0, 55, 0
1, 987938, Note_on_c, 0, 67, 69
1, 987944, Note_on_c, 0, 55, 46
1, 987962, Note_off_c, 0, 59, 62
1, 987975, Note_off_c, 0, 74, 60
1, 987987, Note_off_c, 0, 55, 63
1, 988003, Note_off_c, 0, 67, 60
1, 988149, Note_on_c, 0, 75, 92
1, 988153, Note_on_c, 0, 62, 80
1, 988195, Control_c, 0, 64, 86
1, 988210, Control_c, 0, 64, 67
1, 988217, Note_on_c, 0, 55, 56
1, 988224, Note_on_c, 0, 67, 61
1, 988224, Control_c, 0, 64, 55
1, 988247, Control_c, 0, 64, 53
1, 988261, Control_c, 0, 64, 60
1, 988276, Control_c, 0, 64, 63
1, 988291, Control_c, 0, 64, 68
1, 988295, Note_off_c, 0, 62, 59
1, 988306, Control_c, 0, 64, 80
1, 988321, Control_c, 0, 64, 127
1, 988325, Note_on_c, 0, 63, 76
1, 988330, Note_off_c, 0, 67, 63
1, 988338, Note_on_c, 0, 48, 67
1, 988343, Note_off_c, 0, 55, 63
1, 988408, Note_off_c, 0, 63, 61
1, 988412, Note_on_c, 0, 67, 66
1, 988422, Note_on_c, 0, 55, 63
1, 988452, Note_off_c, 0, 48, 60
1, 988470, Note_off_c, 0, 67, 62
1, 988477, Note_on_c, 0, 72, 77
1, 988510, Note_on_c, 0, 60, 72
1, 988518, Note_off_c, 0, 55, 60
1, 988549, Note_on_c, 0, 67, 64
1, 988588, Note_off_c, 0, 60, 62
1, 988592, Note_on_c, 0, 55, 46
1, 988607, Note_off_c, 0, 72, 61
1, 988607, Note_off_c, 0, 67, 63
1, 988625, Note_off_c, 0, 75, 55
1, 988635, Note_on_c, 0, 63, 46
1, 988658, Note_off_c, 0, 55, 62
1, 988661, Note_off_c, 0, 63, 57
1, 988661, Note_on_c, 0, 48, 61
1, 988753, Note_on_c, 0, 55, 53
1, 988783, Note_off_c, 0, 55, 62
1, 988797, Note_off_c, 0, 48, 59
1, 988844, Note_on_c, 0, 81, 89
1, 988860, Note_on_c, 0, 72, 59
1, 988862, Note_on_c, 0, 75, 65
1, 988867, Note_on_c, 0, 69, 73
1, 988996, Note_off_c, 0, 69, 58
1, 989022, Note_off_c, 0, 81, 57
1, 989042, Note_off_c, 0, 75, 49
1, 989054, Note_off_c, 0, 72, 37
1, 989081, Note_on_c, 0, 43, 56
1, 989084, Note_on_c, 0, 31, 54
1, 989141, Note_on_c, 0, 79, 86
1, 989156, Note_on_c, 0, 71, 78
1, 989172, Control_c, 0, 64, 103
1, 989187, Control_c, 0, 64, 73
1, 989202, Control_c, 0, 64, 56
1, 989216, Control_c, 0, 64, 0
1, 989305, Control_c, 0, 64, 34
1, 989320, Control_c, 0, 64, 56
1, 989335, Control_c, 0, 64, 66
1, 989350, Control_c, 0, 64, 75
1, 989356, Note_off_c, 0, 31, 63
1, 989365, Control_c, 0, 64, 96
1, 989379, Control_c, 0, 64, 127
1, 989397, Note_off_c, 0, 43, 61
1, 989495, Note_off_c, 0, 71, 55
1, 989555, Note_off_c, 0, 79, 55
1, 989617, Note_on_c, 0, 50, 47
1, 989769, Note_on_c, 0, 55, 48
1, 989860, Note_off_c, 0, 55, 61
1, 989882, Note_on_c, 0, 59, 49
1, 989958, Note_off_c, 0, 59, 60
1, 989983, Note_on_c, 0, 55, 51
1, 990072, Note_off_c, 0, 55, 59
1, 990086, Note_on_c, 0, 59, 53
1, 990089, Note_on_c, 0, 54, 53
1, 990203, Note_on_c, 0, 55, 56
1, 990229, Note_off_c, 0, 59, 61
1, 990267, Note_off_c, 0, 55, 61
1, 990288, Note_on_c, 0, 59, 51
1, 990360, Note_on_c, 0, 55, 57
1, 990371, Note_off_c, 0, 54, 34
1, 990376, Note_off_c, 0, 59, 57
1, 990379, Note_off_c, 0, 50, 40
1, 990430, Note_off_c, 0, 55, 62
1, 990438, Note_on_c, 0, 62, 62
1, 990439, Note_on_c, 0, 52, 64
1, 990515, Note_on_c, 0, 55, 57
1, 990529, Note_off_c, 0, 52, 60
1, 990585, Note_on_c, 0, 59, 65
1, 990658, Note_off_c, 0, 59, 58
1, 990687, Note_on_c, 0, 66, 75
1, 990687, Note_off_c, 0, 55, 63
1, 990688, Note_on_c, 0, 51, 68
1, 990766, Note_on_c, 0, 55, 64
1, 990833, Note_off_c, 0, 62, 60
1, 990837, Note_off_c, 0, 51, 0
1, 990839, Note_off_c, 0, 66, 62
1, 990861, Note_off_c, 0, 55, 61
1, 990871, Note_on_c, 0, 50, 67
1, 990873, Poly_aftertouch_c, 0, 51, 127
1, 990885, Note_on_c, 0, 67, 85
1, 990890, Note_on_c, 0, 59, 41
1, 990926, Note_off_c, 0, 59, 53
1, 990964, Note_on_c, 0, 55, 73
1, 990968, Poly_aftertouch_c, 0, 51, 0
1, 991032, Note_off_c, 0, 55, 61
1, 991046, Note_on_c, 0, 59, 56
1, 991072, Note_on_c, 0, 69, 89
1, 991075, Note_off_c, 0, 67, 61
1, 991100, Note_off_c, 0, 59, 64
1, 991108, Note_on_c, 0, 55, 62
1, 991129, Note_off_c, 0, 50, 63
1, 991133, Note_off_c, 0, 55, 66
1, 991203, Note_off_c, 0, 69, 60
1, 991316, Note_on_c, 0, 41, 58
1, 991325, Note_on_c, 0, 29, 60
1, 991370, Note_on_c, 0, 70, 80
1, 991375, Control_c, 0, 64, 77
1, 991376, Note_on_c, 0, 67, 53
1, 991388, Note_on_c, 0, 58, 60
1, 991390, Note_on_c, 0, 62, 47
1, 991390, Control_c, 0, 64, 57
1, 991405, Control_c, 0, 64, 0
1, 991435, Control_c, 0, 64, 26
1, 991442, Note_off_c, 0, 29, 59
1, 991449, Control_c, 0, 64, 52
1, 991464, Control_c, 0, 64, 67
1, 991479, Control_c, 0, 64, 84
1, 991493, Control_c, 0, 64, 127
1, 991502, Note_off_c, 0, 41, 62
1, 991519, Note_off_c, 0, 58, 62
1, 991567, Note_off_c, 0, 62, 61
1, 991586, Note_off_c, 0, 67, 58
1, 991633, Note_off_c, 0, 70, 62
1, 991725, Note_on_c, 0, 50, 53
1, 991797, Note_on_c, 0, 79, 66
1, 991842, Note_on_c, 0, 55, 53
1, 991907, Note_off_c, 0, 55, 59
1, 991925, Note_on_c, 0, 58, 56
1, 991946, Note_off_c, 0, 79, 53
1, 991976, Note_on_c, 0, 55, 56
1, 991998, Note_off_c, 0, 58, 53
1, 992071, Note_off_c, 0, 55, 62
1, 992074, Note_on_c, 0, 53, 69
1, 992095, Note_on_c, 0, 67, 68
1, 992155, Note_on_c, 0, 55, 64
1, 992193, Note_off_c, 0, 50, 27
1, 992202, Note_off_c, 0, 55, 61
1, 992217, Note_on_c, 0, 58, 66
1, 992268, Note_on_c, 0, 55, 69
1, 992283, Note_off_c, 0, 58, 59
1, 992312, Note_off_c, 0, 53, 56
1, 992327, Note_on_c, 0, 52, 77
1, 992329, Note_off_c, 0, 55, 62
1, 992339, Note_on_c, 0, 70, 87
1, 992379, Note_off_c, 0, 67, 60
1, 992405, Note_on_c, 0, 55, 64
1, 992439, Note_off_c, 0, 55, 66
1, 992449, Note_on_c, 0, 58, 74
1, 992515, Note_on_c, 0, 55, 75
1, 992518, Note_off_c, 0, 58, 61
1, 992552, Note_on_c, 0, 73, 90
1, 992557, Note_on_c, 0, 51, 85
1, 992573, Note_off_c, 0, 55, 62
1, 992590, Note_off_c, 0, 70, 59
1, 992627, Note_off_c, 0, 52, 59
1, 992632, Note_on_c, 0, 55, 68
1, 992665, Note_off_c, 0, 73, 62
1, 992681, Note_off_c, 0, 51, 63
1, 992710, Note_on_c, 0, 58, 74
1, 992713, Note_off_c, 0, 55, 63
1, 992748, Note_on_c, 0, 74, 92
1, 992791, Note_off_c, 0, 58, 62
1, 992796, Note_on_c, 0, 50, 69
1, 992820, Note_on_c, 0, 55, 46
1, 992855, Note_off_c, 0, 74, 61
1, 992858, Note_off_c, 0, 55, 59
1, 992900, Note_on_c, 0, 58, 78
1, 992921, Note_on_c, 0, 79, 96
1, 992934, Note_off_c, 0, 58, 63
1, 992935, Note_on_c, 0, 55, 76
1, 992960, Note_off_c, 0, 55, 66
1, 992971, Note_off_c, 0, 50, 64
1, 993062, Note_off_c, 0, 79, 58
1, 993128, Note_on_c, 0, 40, 82
1, 993135, Note_on_c, 0, 28, 75
1, 993168, Control_c, 0, 64, 85
1, 993171, Note_on_c, 0, 79, 94
1, 993183, Note_on_c, 0, 69, 76
1, 993183, Control_c, 0, 64, 54
1, 993186, Note_on_c, 0, 67, 81
1, 993191, Note_on_c, 0, 73, 58
1, 993198, Control_c, 0, 64, 0
1, 993241, Note_off_c, 0, 28, 62
1, 993257, Control_c, 0, 64, 44
1, 993272, Control_c, 0, 64, 64
1, 993287, Control_c, 0, 64, 83
1, 993302, Control_c, 0, 64, 127
1, 993314, Note_off_c, 0, 40, 61
1, 993408, Note_off_c, 0, 69, 56
1, 993409, Note_off_c, 0, 67, 61
1, 993496, Note_on_c, 0, 49, 65
1, 993548, Note_on_c, 0, 69, 72
1, 993590, Note_off_c, 0, 79, 59
1, 993593, Note_on_c, 0, 55, 56
1, 993621, Note_off_c, 0, 73, 56
1, 993657, Note_off_c, 0, 69, 60
1, 993661, Note_off_c, 0, 55, 63
1, 993669, Note_on_c, 0, 57, 65
1, 993696, Note_off_c, 0, 49, 61
1, 993722, Note_on_c, 0, 55, 58
1, 993737, Note_off_c, 0, 57, 62
1, 993800, Note_on_c, 0, 52, 76
1, 993802, Note_off_c, 0, 55, 63
1, 993848, Note_on_c, 0, 57, 79
1, 993877, Note_on_c, 0, 55, 70
1, 993925, Note_off_c, 0, 55, 54
1, 993984, Note_on_c, 0, 55, 68
1, 993997, Note_off_c, 0, 52, 62
1, 994000, Note_off_c, 0, 57, 62
1, 994062, Note_off_c, 0, 55, 62
1, 994074, Note_on_c, 0, 52, 73
1, 994083, Note_on_c, 0, 61, 91
1, 994131, Note_on_c, 0, 50, 70
1, 994157, Note_off_c, 0, 52, 65
1, 994179, Note_on_c, 0, 55, 62
1, 994220, Note_off_c, 0, 50, 63
1, 994232, Note_on_c, 0, 57, 53
1, 994281, Note_off_c, 0, 57, 62
1, 994304, Note_on_c, 0, 66, 89
1, 994322, Note_off_c, 0, 61, 62
1, 994325, Note_on_c, 0, 49, 85
1, 994366, Note_on_c, 0, 50, 52
1, 994389, Note_off_c, 0, 49, 60
1, 994409, Note_off_c, 0, 50, 62
1, 994415, Note_off_c, 0, 66, 61
1, 994471, Note_on_c, 0, 67, 97
1, 994509, Note_on_c, 0, 48, 75
1, 994517, Note_off_c, 0, 55, 52
1, 994562, Note_off_c, 0, 67, 62
1, 994575, Note_off_c, 0, 48, 63
1, 994596, Note_on_c, 0, 55, 74
1, 994596, Note_on_c, 0, 57, 72
1, 994623, Note_off_c, 0, 57, 68
1, 994635, Note_on_c, 0, 68, 95
1, 994641, Note_off_c, 0, 55, 63
1, 994752, Note_off_c, 0, 68, 58
1, 994846, Note_on_c, 0, 39, 94
1, 994852, Note_on_c, 0, 27, 84
1, 994852, Note_on_c, 0, 68, 98
1, 994855, Note_on_c, 0, 66, 79
1, 994855, Note_on_c, 0, 56, 97
1, 994858, Note_on_c, 0, 60, 76
1, 994873, Control_c, 0, 64, 95
1, 994888, Control_c, 0, 64, 59
1, 994903, Control_c, 0, 64, 0
1, 994951, Note_off_c, 0, 27, 63
1, 994962, Control_c, 0, 64, 40
1, 994977, Control_c, 0, 64, 68
1, 994996, Note_off_c, 0, 39, 64
1, 994998, Note_off_c, 0, 56, 64
1, 994998, Control_c, 0, 64, 115
1, 995013, Control_c, 0, 64, 127
1, 995016, Note_off_c, 0, 60, 61
1, 995061, Note_off_c, 0, 66, 59
1, 995064, Note_off_c, 0, 68, 60
1, 995211, Note_on_c, 0, 48, 66
1, 995271, Note_on_c, 0, 79, 84
1, 995317, Note_on_c, 0, 54, 69
1, 995385, Note_off_c, 0, 54, 64
1, 995389, Note_on_c, 0, 56, 71
1, 995401, Note_off_c, 0, 79, 59
1, 995443, Note_on_c, 0, 54, 72
1, 995460, Note_off_c, 0, 56, 62
1, 995530, Note_on_c, 0, 51, 85
1, 995538, Note_off_c, 0, 54, 63
1, 995540, Note_off_c, 0, 48, 53
1, 995562, Note_on_c, 0, 67, 84
1, 995615, Note_on_c, 0, 54, 82
1, 995677, Note_on_c, 0, 56, 76
1, 995684, Note_off_c, 0, 54, 64
1, 995736, Note_on_c, 0, 54, 68
1, 995749, Note_off_c, 0, 56, 64
1, 995797, Note_off_c, 0, 51, 53
1, 995802, Note_on_c, 0, 50, 82
1, 995809, Note_off_c, 0, 54, 65
1, 995810, Note_on_c, 0, 68, 97
1, 995839, Note_off_c, 0, 67, 62
1, 995871, Note_on_c, 0, 54, 75
1, 995898, Note_off_c, 0, 68, 64
1, 995914, Note_on_c, 0, 56, 77
1, 995925, Note_off_c, 0, 54, 63
1, 995971, Note_on_c, 0, 54, 70
1, 995987, Note_off_c, 0, 56, 61
1, 996017, Note_on_c, 0, 75, 100
1, 996028, Note_on_c, 0, 49, 88
1, 996047, Note_off_c, 0, 54, 64
1, 996108, Note_on_c, 0, 54, 69
1, 996114, Note_off_c, 0, 75, 61
1, 996144, Note_off_c, 0, 49, 63
1, 996164, Note_off_c, 0, 50, 58
1, 996178, Note_on_c, 0, 56, 77
1, 996203, Note_on_c, 0, 77, 111
1, 996226, Note_on_c, 0, 48, 82
1, 996226, Note_off_c, 0, 54, 65
1, 996252, Note_off_c, 0, 56, 63
1, 996295, Note_off_c, 0, 77, 60
1, 996311, Note_on_c, 0, 54, 77
1, 996313, Poly_aftertouch_c, 0, 50, 127
1, 996365, Note_on_c, 0, 56, 90
1, 996371, Note_off_c, 0, 54, 65
1, 996384, Note_on_c, 0, 79, 107
1, 996408, Poly_aftertouch_c, 0, 50, 0
1, 996423, Note_on_c, 0, 54, 78
1, 996430, Note_off_c, 0, 56, 65
1, 996456, Note_off_c, 0, 54, 67
1, 996458, Note_off_c, 0, 48, 63
1, 996535, Note_off_c, 0, 79, 56
1, 996647, Note_on_c, 0, 38, 91
1, 996651, Note_on_c, 0, 26, 84
1, 996664, Note_on_c, 0, 79, 96
1, 996668, Note_on_c, 0, 67, 93
1, 996668, Note_on_c, 0, 71, 80
1, 996674, Control_c, 0, 64, 100
1, 996688, Control_c, 0, 64, 64
1, 996703, Control_c, 0, 64, 0
1, 996778, Control_c, 0, 64, 18
1, 996787, Note_off_c, 0, 26, 61
1, 996793, Control_c, 0, 64, 60
1, 996808, Control_c, 0, 64, 80
1, 996823, Control_c, 0, 64, 127
1, 996825, Note_off_c, 0, 79, 60
1, 996874, Note_off_c, 0, 38, 60
1, 996883, Note_off_c, 0, 71, 59
1, 996892, Note_off_c, 0, 67, 57
1, 997067, Note_on_c, 0, 47, 58
1, 997090, Note_on_c, 0, 55, 77
1, 997152, Note_on_c, 0, 50, 67
1, 997215, Note_off_c, 0, 50, 63
1, 997288, Note_on_c, 0, 50, 68
1, 997302, Note_off_c, 0, 47, 61
1, 997308, Note_off_c, 0, 55, 61
1, 997366, Note_on_c, 0, 48, 79
1, 997369, Note_on_c, 0, 62, 93
1, 997376, Note_off_c, 0, 50, 62
1, 997434, Note_on_c, 0, 50, 68
1, 997496, Note_on_c, 0, 55, 73
1, 997504, Note_off_c, 0, 50, 64
1, 997535, Note_off_c, 0, 62, 60
1, 997548, Note_on_c, 0, 50, 56
1, 997567, Note_off_c, 0, 55, 62
1, 997572, Note_off_c, 0, 48, 54
1, 997607, Note_on_c, 0, 47, 82
1, 997611, Note_on_c, 0, 65, 97
1, 997619, Note_off_c, 0, 50, 63
1, 997661, Poly_aftertouch_c, 0, 50, 0
1, 997669, Note_on_c, 0, 50, 65
1, 997716, Note_on_c, 0, 55, 71
1, 997743, Note_off_c, 0, 65, 50
1, 997755, Note_off_c, 0, 55, 65
1, 997776, Note_off_c, 0, 47, 64
1, 997778, Note_off_c, 0, 50, 65
1, 997887, Note_on_c, 0, 66, 93
1, 997888, Note_on_c, 0, 54, 96
1, 997895, Note_on_c, 0, 45, 88
1, 997899, Control_c, 0, 64, 97
1, 997901, Note_on_c, 0, 33, 81
1, 997902, Note_on_c, 0, 60, 69
1, 997914, Control_c, 0, 64, 63
1, 997928, Control_c, 0, 64, 0
1, 997973, Control_c, 0, 64, 23
1, 997995, Control_c, 0, 64, 61
1, 998003, Note_off_c, 0, 33, 62
1, 998009, Control_c, 0, 64, 83
1, 998024, Control_c, 0, 64, 127
1, 998036, Note_off_c, 0, 45, 64
1, 998091, Note_off_c, 0, 54, 63
1, 998101, Note_off_c, 0, 66, 58
1, 998179, Note_on_c, 0, 45, 65
1, 998206, Note_on_c, 0, 67, 82
1, 998207, Note_on_c, 0, 55, 80
1, 998212, Note_off_c, 0, 60, 63
1, 998245, Note_on_c, 0, 54, 70
1, 998245, Note_off_c, 0, 45, 62
1, 998254, Note_off_c, 0, 55, 64
1, 998297, Note_off_c, 0, 54, 56
1, 998314, Note_on_c, 0, 60, 73
1, 998318, Note_off_c, 0, 67, 62
1, 998365, Note_off_c, 0, 60, 58
1, 998369, Note_on_c, 0, 54, 70
1, 998438, Note_on_c, 0, 47, 80
1, 998443, Note_off_c, 0, 54, 64
1, 998460, Note_on_c, 0, 72, 102
1, 998465, Note_on_c, 0, 60, 94
1, 998497, Note_on_c, 0, 54, 73
1, 998507, Note_off_c, 0, 60, 64
1, 998514, Note_off_c, 0, 47, 60
1, 998537, Poly_aftertouch_c, 0, 49, 127
1, 998550, Note_off_c, 0, 72, 64
1, 998560, Note_off_c, 0, 54, 64
1, 998564, Note_on_c, 0, 60, 73
1, 998567, Poly_aftertouch_c, 0, 49, 0
1, 998622, Note_off_c, 0, 60, 64
1, 998625, Note_on_c, 0, 54, 73
1, 998689, Note_off_c, 0, 54, 64
1, 998692, Note_on_c, 0, 45, 83
1, 998718, Note_on_c, 0, 66, 96
1, 998718, Note_on_c, 0, 78, 101
1, 998757, Note_on_c, 0, 54, 79
1, 998759, Note_off_c, 0, 45, 64
1, 998813, Note_on_c, 0, 60, 86
1, 998825, Note_off_c, 0, 54, 0
1, 998829, Note_off_c, 0, 66, 58
1, 998842, Note_off_c, 0, 78, 58
1, 998859, Note_off_c, 0, 60, 67
1, 998862, Poly_aftertouch_c, 0, 54, 127
1, 998885, Poly_aftertouch_c, 0, 54, 0
1, 998999, Note_on_c, 0, 79, 101
1, 999000, Note_on_c, 0, 67, 101
1, 999003, Note_on_c, 0, 72, 81
1, 999006, Note_on_c, 0, 45, 97
1, 999010, Note_on_c, 0, 33, 93
1, 999010, Control_c, 0, 64, 65
1, 999025, Control_c, 0, 64, 0
1, 999094, Note_off_c, 0, 33, 63
1, 999098, Control_c, 0, 64, 63
1, 999110, Note_off_c, 0, 79, 64
1, 999113, Control_c, 0, 64, 106
1, 999128, Control_c, 0, 64, 127
1, 999133, Note_off_c, 0, 45, 65
1, 999148, Note_off_c, 0, 72, 62
1, 999150, Note_off_c, 0, 67, 57
1, 999296, Note_on_c, 0, 45, 70
1, 999301, Note_on_c, 0, 57, 91
1, 999344, Note_on_c, 0, 53, 75
1, 999358, Note_off_c, 0, 45, 62
1, 999364, Note_off_c, 0, 57, 63
1, 999414, Note_on_c, 0, 60, 77
1, 999419, Note_off_c, 0, 53, 63
1, 999461, Note_off_c, 0, 60, 62
1, 999484, Note_on_c, 0, 53, 67
1, 999555, Note_on_c, 0, 46, 91
1, 999559, Note_on_c, 0, 60, 104
1, 999568, Note_off_c, 0, 53, 64
1, 999622, Note_on_c, 0, 53, 64
1, 999641, Note_off_c, 0, 46, 61
1, 999649, Note_off_c, 0, 60, 59
1, 999688, Note_on_c, 0, 60, 73
1, 999701, Note_off_c, 0, 53, 62
1, 999750, Note_off_c, 0, 60, 61
1, 999753, Note_on_c, 0, 53, 63
1, 999806, Note_on_c, 0, 45, 90
1, 999814, Note_on_c, 0, 64, 105
1, 999826, Note_off_c, 0, 53, 64
1, 999881, Note_off_c, 0, 45, 62
1, 999884, Note_on_c, 0, 53, 68
1, 999915, Note_off_c, 0, 53, 64
1, 999920, Note_off_c, 0, 64, 60
1, 999928, Note_on_c, 0, 60, 85
1, 999970, Note_off_c, 0, 60, 66
1, 999978, Note_on_c, 0, 53, 79
1, 1000008, Note_off_c, 0, 53, 68
1, 1000130, Note_on_c, 0, 65, 97
1, 1000132, Note_on_c, 0, 53, 101
1, 1000133, Note_on_c, 0, 60, 81
1, 1000140, Note_on_c, 0, 44, 101
1, 1000145, Note_on_c, 0, 32, 91
1, 1000159, Control_c, 0, 64, 88
1, 1000174, Control_c, 0, 64, 0
1, 1000185, Note_on_c, 0, 62, 24
1, 1000228, Note_off_c, 0, 62, 31
1, 1000248, Poly_aftertouch_c, 0, 33, 127
1, 1000271, Control_c, 0, 64, 60
1, 1000285, Control_c, 0, 64, 82
1, 1000286, Note_off_c, 0, 32, 63
1, 1000287, Poly_aftertouch_c, 0, 33, 0
1, 1000300, Control_c, 0, 64, 127
1, 1000328, Note_off_c, 0, 44, 61
1, 1000329, Note_off_c, 0, 53, 62
1, 1000354, Note_off_c, 0, 65, 57
1, 1000373, Note_off_c, 0, 60, 63
1, 1000406, Poly_aftertouch_c, 0, 62, 0
1, 1000475, Note_on_c, 0, 46, 70
1, 1000477, Note_on_c, 0, 67, 100
1, 1000480, Note_on_c, 0, 55, 98
1, 1000484, Note_on_c, 0, 44, 56
1, 1000513, Note_on_c, 0, 57, 47
1, 1000528, Note_off_c, 0, 44, 60
1, 1000543, Note_off_c, 0, 55, 59
1, 1000543, Note_off_c, 0, 57, 54
1, 1000545, Note_on_c, 0, 53, 71
1, 1000563, Note_off_c, 0, 46, 59
1, 1000579, Note_off_c, 0, 67, 60
1, 1000619, Note_off_c, 0, 53, 60
1, 1000623, Note_on_c, 0, 60, 75
1, 1000666, Note_off_c, 0, 60, 62
1, 1000683, Note_on_c, 0, 53, 68
1, 1000759, Note_on_c, 0, 46, 95
1, 1000763, Note_off_c, 0, 53, 56
1, 1000764, Note_on_c, 0, 72, 102
1, 1000765, Note_on_c, 0, 60, 106
1, 1000832, Note_on_c, 0, 53, 76
1, 1000833, Note_off_c, 0, 60, 59
1, 1000852, Note_off_c, 0, 46, 61
1, 1000857, Poly_aftertouch_c, 0, 45, 0
1, 1000858, Note_off_c, 0, 72, 64
1, 1000885, Poly_aftertouch_c, 0, 45, 0
1, 1000912, Note_on_c, 0, 60, 78
1, 1000924, Note_off_c, 0, 53, 62
1, 1000955, Note_off_c, 0, 60, 63
1, 1000987, Note_on_c, 0, 53, 72
1, 1001049, Note_off_c, 0, 53, 63
1, 1001060, Note_on_c, 0, 44, 95
1, 1001072, Note_on_c, 0, 65, 109
1, 1001072, Note_on_c, 0, 77, 109
1, 1001139, Note_off_c, 0, 44, 64
1, 1001145, Note_on_c, 0, 54, 64
1, 1001158, Note_on_c, 0, 53, 81
1, 1001213, Note_off_c, 0, 65, 53
1, 1001228, Note_off_c, 0, 77, 65
1, 1001238, Note_on_c, 0, 60, 86
1, 1001239, Note_off_c, 0, 53, 61
1, 1001248, Note_off_c, 0, 54, 43
1, 1001310, Note_on_c, 0, 53, 90
1, 1001313, Note_off_c, 0, 60, 63
1, 1001348, Note_off_c, 0, 53, 68
1, 1001521, Note_on_c, 0, 43, 96
1, 1001525, Note_on_c, 0, 31, 93
1, 1001525, Note_on_c, 0, 79, 109
1, 1001528, Note_on_c, 0, 67, 104
1, 1001530, Note_on_c, 0, 71, 87
1, 1001531, Note_on_c, 0, 65, 100
1, 1001553, Control_c, 0, 64, 80
1, 1001568, Control_c, 0, 64, 44
1, 1001583, Control_c, 0, 64, 0
1, 1001690, Note_off_c, 0, 31, 56
1, 1001702, Control_c, 0, 64, 53
1, 1001717, Control_c, 0, 64, 69
1, 1001737, Note_off_c, 0, 79, 56
1, 1001739, Control_c, 0, 64, 108
1, 1001753, Note_off_c, 0, 71, 54
1, 1001754, Control_c, 0, 64, 127
1, 1001806, Note_off_c, 0, 43, 62
1, 1001899, Note_off_c, 0, 67, 45
1, 1001926, Note_off_c, 0, 65, 55
1, 1002029, Note_on_c, 0, 67, 74
1, 1002051, Note_on_c, 0, 55, 57
1, 1002151, Note_on_c, 0, 53, 56
1, 1002153, Note_off_c, 0, 55, 53
1, 1002165, Note_on_c, 0, 65, 59
1, 1002228, Note_off_c, 0, 53, 62
1, 1002245, Note_on_c, 0, 50, 56
1, 1002245, Note_off_c, 0, 65, 61
1, 1002258, Note_off_c, 0, 67, 53
1, 1002264, Note_on_c, 0, 62, 68
1, 1002324, Note_on_c, 0, 53, 56
1, 1002331, Note_on_c, 0, 65, 68
1, 1002344, Note_off_c, 0, 50, 56
1, 1002355, Note_off_c, 0, 62, 56
1, 1002429, Note_on_c, 0, 59, 70
1, 1002433, Note_on_c, 0, 71, 86
1, 1002436, Note_off_c, 0, 65, 64
1, 1002439, Note_off_c, 0, 53, 58
1, 1002517, Note_on_c, 0, 65, 67
1, 1002527, Note_on_c, 0, 53, 57
1, 1002548, Note_off_c, 0, 59, 61
1, 1002586, Note_off_c, 0, 65, 63
1, 1002595, Note_on_c, 0, 62, 75
1, 1002596, Note_on_c, 0, 50, 71
1, 1002596, Note_off_c, 0, 53, 63
1, 1002604, Note_off_c, 0, 71, 57
1, 1002650, Note_on_c, 0, 65, 69
1, 1002664, Note_on_c, 0, 53, 63
1, 1002664, Note_off_c, 0, 62, 61
1, 1002692, Note_off_c, 0, 50, 62
1, 1002715, Note_on_c, 0, 69, 95
1, 1002716, Note_off_c, 0, 65, 63
1, 1002730, Note_on_c, 0, 57, 88
1, 1002771, Note_off_c, 0, 53, 0
1, 1002777, Note_on_c, 0, 65, 76
1, 1002783, Note_on_c, 0, 53, 49
1, 1002842, Note_off_c, 0, 65, 64
1, 1002847, Note_on_c, 0, 62, 77
1, 1002852, Note_on_c, 0, 50, 82
1, 1002859, Note_off_c, 0, 53, 64
1, 1002877, Note_off_c, 0, 69, 59
1, 1002901, Note_on_c, 0, 65, 74
1, 1002910, Note_off_c, 0, 57, 52
1, 1002915, Note_off_c, 0, 62, 62
1, 1002922, Note_on_c, 0, 53, 70
1, 1002955, Note_off_c, 0, 50, 63
1, 1002961, Note_on_c, 0, 68, 97
1, 1002966, Note_off_c, 0, 65, 65
1, 1002968, Note_on_c, 0, 56, 92
1, 1003020, Note_off_c, 0, 53, 0
1, 1003029, Note_on_c, 0, 65, 74
1, 1003032, Note_on_c, 0, 53, 52
1, 1003082, Note_off_c, 0, 65, 65
1, 1003083, Note_on_c, 0, 62, 81
1, 1003088, Note_off_c, 0, 56, 58
1, 1003103, Note_on_c, 0, 50, 73
1, 1003105, Note_off_c, 0, 68, 60
1, 1003150, Note_on_c, 0, 65, 74
1, 1003154, Note_off_c, 0, 62, 62
1, 1003176, Note_off_c, 0, 53, 63
1, 1003190, Note_on_c, 0, 67, 86
1, 1003196, Note_on_c, 0, 55, 95
1, 1003198, Note_off_c, 0, 65, 64
1, 1003240, Note_off_c, 0, 50, 59
1, 1003242, Note_off_c, 0, 55, 65
1, 1003258, Note_on_c, 0, 65, 69
1, 1003284, Note_off_c, 0, 67, 60
1, 1003306, Note_on_c, 0, 62, 75
1, 1003314, Note_off_c, 0, 65, 62
1, 1003355, Note_on_c, 0, 65, 61
1, 1003377, Note_off_c, 0, 62, 62
1, 1003389, Note_off_c, 0, 65, 61
1, 1003414, Control_c, 0, 64, 87
1, 1003428, Control_c, 0, 64, 50
1, 1003434, Note_on_c, 0, 29, 75
1, 1003438, Note_on_c, 0, 43, 76
1, 1003441, Note_on_c, 0, 31, 68
1, 1003441, Note_on_c, 0, 41, 78
1, 1003443, Control_c, 0, 64, 0
1, 1003462, Note_off_c, 0, 29, 63
1, 1003473, Control_c, 0, 64, 38
1, 1003475, Note_off_c, 0, 41, 60
1, 1003477, Note_off_c, 0, 31, 66
1, 1003488, Note_off_c, 0, 43, 64
1, 1003488, Control_c, 0, 64, 69
1, 1003503, Control_c, 0, 64, 127
1, 1003511, Note_on_c, 0, 55, 78
1, 1003539, Note_off_c, 0, 55, 67
1, 1003543, Note_on_c, 0, 59, 69
1, 1003562, Note_on_c, 0, 52, 77
1, 1003570, Note_off_c, 0, 59, 67
1, 1003583, Note_on_c, 0, 62, 56
1, 1003604, Note_off_c, 0, 52, 61
1, 1003606, Note_off_c, 0, 62, 61
1, 1003637, Note_on_c, 0, 67, 82
1, 1003681, Note_on_c, 0, 71, 86
1, 1003685, Note_off_c, 0, 67, 66
1, 1003695, Note_on_c, 0, 62, 59
1, 1003709, Note_on_c, 0, 74, 88
1, 1003718, Note_on_c, 0, 67, 55
1, 1003726, Note_off_c, 0, 71, 66
1, 1003738, Note_off_c, 0, 62, 61
1, 1003758, Note_on_c, 0, 79, 105
1, 1003761, Note_on_c, 0, 71, 88
1, 1003772, Note_off_c, 0, 67, 41
1, 1003774, Note_off_c, 0, 74, 64
1, 1003810, Note_off_c, 0, 71, 63
1, 1003818, Note_off_c, 0, 79, 68
1, 1004198, Note_on_c, 0, 55, 67
1, 1004201, Note_on_c, 0, 67, 84
1, 1004297, Note_on_c, 0, 53, 56
1, 1004330, Note_on_c, 0, 65, 68
1, 1004350, Note_off_c, 0, 55, 49
1, 1004370, Note_on_c, 0, 50, 63
1, 1004375, Note_off_c, 0, 53, 62
1, 1004409, Note_off_c, 0, 65, 62
1, 1004418, Note_on_c, 0, 62, 71
1, 1004420, Note_off_c, 0, 67, 55
1, 1004461, Note_on_c, 0, 53, 63
1, 1004479, Note_on_c, 0, 65, 66
1, 1004493, Note_off_c, 0, 50, 56
1, 1004506, Note_off_c, 0, 62, 59
1, 1004560, Note_on_c, 0, 59, 73
1, 1004566, Note_off_c, 0, 53, 62
1, 1004567, Note_on_c, 0, 71, 87
1, 1004573, Note_off_c, 0, 65, 64
1, 1004642, Note_on_c, 0, 53, 61
1, 1004648, Note_on_c, 0, 65, 70
1, 1004659, Note_off_c, 0, 59, 57
1, 1004725, Note_on_c, 0, 50, 70
1, 1004727, Note_off_c, 0, 53, 63
1, 1004728, Note_off_c, 0, 65, 63
1, 1004732, Note_on_c, 0, 62, 77
1, 1004746, Note_off_c, 0, 71, 54
1, 1004791, Note_on_c, 0, 65, 69
1, 1004794, Note_on_c, 0, 53, 70
1, 1004810, Note_off_c, 0, 50, 61
1, 1004811, Note_off_c, 0, 62, 62
1, 1004863, Note_on_c, 0, 69, 96
1, 1004864, Note_on_c, 0, 57, 78
1, 1004867, Note_off_c, 0, 65, 64
1, 1004873, Note_off_c, 0, 53, 62
1, 1004919, Note_on_c, 0, 53, 63
1, 1004923, Note_on_c, 0, 65, 72
1, 1004937, Note_off_c, 0, 57, 63
1, 1004973, Note_on_c, 0, 50, 80
1, 1004982, Poly_aftertouch_c, 0, 52, 127
1, 1004983, Note_off_c, 0, 53, 63
1, 1004991, Note_off_c, 0, 65, 64
1, 1004993, Note_on_c, 0, 62, 79
1, 1005017, Poly_aftertouch_c, 0, 52, 0
1, 1005029, Note_off_c, 0, 69, 59
1, 1005040, Note_on_c, 0, 65, 69
1, 1005056, Note_on_c, 0, 53, 69
1, 1005062, Note_off_c, 0, 62, 62
1, 1005071, Note_off_c, 0, 50, 62
1, 1005105, Note_on_c, 0, 56, 97
1, 1005110, Note_on_c, 0, 68, 99
1, 1005116, Note_off_c, 0, 65, 62
1, 1005183, Note_on_c, 0, 65, 79
1, 1005205, Note_off_c, 0, 56, 61
1, 1005212, Note_on_c, 0, 50, 77
1, 1005251, Note_off_c, 0, 65, 63
1, 1005253, Note_on_c, 0, 62, 77
1, 1005271, Note_off_c, 0, 68, 61
1, 1005313, Note_off_c, 0, 62, 61
1, 1005316, Note_on_c, 0, 65, 68
1, 1005335, Note_on_c, 0, 55, 91
1, 1005357, Note_off_c, 0, 53, 0
1, 1005358, Note_on_c, 0, 67, 90
1, 1005368, Note_off_c, 0, 65, 64
1, 1005372, Note_off_c, 0, 55, 63
1, 1005387, Note_off_c, 0, 50, 65
1, 1005417, Poly_aftertouch_c, 0, 53, 0
1, 1005431, Note_on_c, 0, 65, 82
1, 1005442, Note_off_c, 0, 67, 59
1, 1005491, Note_off_c, 0, 65, 64
1, 1005491, Note_on_c, 0, 62, 74
1, 1005550, Note_on_c, 0, 65, 70
1, 1005563, Note_off_c, 0, 62, 63
1, 1005584, Note_off_c, 0, 65, 65
1, 1005599, Control_c, 0, 64, 108
1, 1005613, Note_on_c, 0, 40, 101
1, 1005613, Note_on_c, 0, 28, 94
1, 1005615, Control_c, 0, 64, 59
1, 1005630, Control_c, 0, 64, 0
1, 1005652, Note_off_c, 0, 28, 65
1, 1005671, Note_off_c, 0, 40, 65
1, 1005675, Control_c, 0, 64, 65
1, 1005690, Control_c, 0, 64, 112
1, 1005704, Control_c, 0, 64, 127
1, 1005761, Note_on_c, 0, 55, 70
1, 1005766, Note_on_c, 0, 47, 74
1, 1005785, Note_on_c, 0, 52, 60
1, 1005788, Note_off_c, 0, 55, 66
1, 1005790, Note_on_c, 0, 59, 71
1, 1005812, Note_off_c, 0, 47, 62
1, 1005816, Note_off_c, 0, 52, 66
1, 1005819, Note_off_c, 0, 59, 68
1, 1005825, Note_on_c, 0, 64, 71
1, 1005853, Note_off_c, 0, 64, 68
1, 1005890, Note_on_c, 0, 67, 82
1, 1005911, Note_on_c, 0, 60, 72
1, 1005936, Note_on_c, 0, 71, 82
1, 1005938, Note_off_c, 0, 67, 66
1, 1005941, Note_off_c, 0, 60, 68
1, 1005973, Note_on_c, 0, 76, 80
1, 1005986, Note_off_c, 0, 71, 60
1, 1006012, Note_on_c, 0, 79, 104
1, 1006015, Note_on_c, 0, 71, 84
1, 1006024, Poly_aftertouch_c, 0, 67, 127
1, 1006031, Note_off_c, 0, 71, 74
1, 1006031, Note_off_c, 0, 76, 65
1, 1006059, Poly_aftertouch_c, 0, 77, 0
1, 1006063, Poly_aftertouch_c, 0, 67, 0
1, 1006073, Note_off_c, 0, 79, 69
1, 1006407, Note_on_c, 0, 67, 98
1, 1006418, Note_on_c, 0, 55, 76
1, 1006503, Note_on_c, 0, 52, 64
1, 1006522, Note_on_c, 0, 64, 72
1, 1006540, Note_off_c, 0, 55, 59
1, 1006576, Note_on_c, 0, 47, 75
1, 1006589, Note_off_c, 0, 52, 62
1, 1006594, Note_off_c, 0, 64, 65
1, 1006601, Note_on_c, 0, 59, 75
1, 1006663, Note_on_c, 0, 52, 68
1, 1006676, Note_on_c, 0, 64, 75
1, 1006680, Note_off_c, 0, 59, 63
1, 1006700, Note_off_c, 0, 47, 59
1, 1006761, Note_off_c, 0, 67, 35
1, 1006762, Note_on_c, 0, 59, 79
1, 1006762, Note_off_c, 0, 52, 62
1, 1006764, Note_on_c, 0, 71, 89
1, 1006769, Note_off_c, 0, 64, 65
1, 1006840, Note_on_c, 0, 52, 65
1, 1006851, Note_off_c, 0, 59, 58
1, 1006853, Note_on_c, 0, 64, 76
1, 1006889, Note_off_c, 0, 71, 57
1, 1006909, Note_off_c, 0, 64, 64
1, 1006912, Note_on_c, 0, 47, 72
1, 1006918, Note_on_c, 0, 59, 77
1, 1006918, Note_off_c, 0, 52, 63
1, 1006988, Note_on_c, 0, 52, 65
1, 1006989, Note_on_c, 0, 64, 78
1, 1006997, Note_off_c, 0, 59, 64
1, 1007020, Note_off_c, 0, 47, 60
1, 1007059, Note_on_c, 0, 69, 99
1, 1007059, Note_off_c, 0, 64, 60
1, 1007068, Note_on_c, 0, 57, 87
1, 1007082, Note_off_c, 0, 52, 60
1, 1007131, Note_on_c, 0, 64, 80
1, 1007139, Note_on_c, 0, 52, 63
1, 1007158, Note_off_c, 0, 57, 61
1, 1007170, Note_off_c, 0, 69, 54
1, 1007189, Note_on_c, 0, 47, 80
1, 1007196, Note_on_c, 0, 59, 85
1, 1007199, Note_off_c, 0, 64, 64
1, 1007201, Note_off_c, 0, 52, 65
1, 1007267, Note_on_c, 0, 52, 70
1, 1007268, Note_on_c, 0, 64, 77
1, 1007269, Note_off_c, 0, 59, 63
1, 1007274, Note_off_c, 0, 47, 63
1, 1007329, Note_on_c, 0, 68, 100
1, 1007338, Note_on_c, 0, 56, 104
1, 1007342, Note_off_c, 0, 64, 65
1, 1007346, Poly_aftertouch_c, 0, 63, 0
1, 1007408, Note_on_c, 0, 64, 78
1, 1007419, Note_off_c, 0, 56, 57
1, 1007469, Note_on_c, 0, 47, 76
1, 1007470, Poly_aftertouch_c, 0, 63, 0
1, 1007473, Note_on_c, 0, 59, 85
1, 1007476, Note_off_c, 0, 64, 64
1, 1007483, Note_off_c, 0, 68, 60
1, 1007488, Note_off_c, 0, 52, 64
1, 1007530, Note_off_c, 0, 59, 63
1, 1007539, Note_on_c, 0, 64, 77
1, 1007554, Note_on_c, 0, 52, 64
1, 1007565, Note_off_c, 0, 47, 59
1, 1007601, Note_on_c, 0, 67, 98
1, 1007613, Note_off_c, 0, 64, 64
1, 1007615, Note_on_c, 0, 55, 90
1, 1007638, Note_off_c, 0, 52, 61
1, 1007675, Note_on_c, 0, 52, 52
1, 1007679, Note_on_c, 0, 64, 84
1, 1007699, Note_off_c, 0, 55, 63
1, 1007700, Note_on_c, 0, 47, 73
1, 1007715, Note_off_c, 0, 67, 59
1, 1007730, Note_off_c, 0, 52, 66
1, 1007741, Note_off_c, 0, 47, 66
1, 1007757, Note_off_c, 0, 64, 64
1, 1007760, Note_on_c, 0, 59, 82
1, 1007783, Poly_aftertouch_c, 0, 48, 0
1, 1007832, Note_on_c, 0, 64, 86
1, 1007852, Note_off_c, 0, 59, 60
1, 1007882, Note_off_c, 0, 64, 62
1, 1007948, Note_on_c, 0, 38, 111
1, 1007950, Control_c, 0, 64, 83
1, 1007951, Note_on_c, 0, 26, 101
1, 1007965, Control_c, 0, 64, 0
1, 1007979, Note_on_c, 0, 32, 47
1, 1007982, Note_on_c, 0, 29, 45
1, 1008009, Control_c, 0, 64, 35
1, 1008010, Note_off_c, 0, 26, 64
1, 1008020, Note_off_c, 0, 32, 53
1, 1008021, Note_off_c, 0, 29, 53
1, 1008025, Control_c, 0, 64, 77
1, 1008034, Note_off_c, 0, 38, 64
1, 1008040, Control_c, 0, 64, 127
1, 1008138, Note_on_c, 0, 55, 77
1, 1008157, Note_on_c, 0, 45, 57
1, 1008162, Note_on_c, 0, 47, 65
1, 1008176, Note_on_c, 0, 53, 79
1, 1008182, Note_on_c, 0, 59, 80
1, 1008185, Note_off_c, 0, 55, 63
1, 1008195, Note_off_c, 0, 45, 64
1, 1008201, Note_off_c, 0, 47, 64
1, 1008213, Note_on_c, 0, 55, 65
1, 1008227, Note_off_c, 0, 59, 66
1, 1008231, Note_on_c, 0, 65, 70
1, 1008239, Note_off_c, 0, 53, 64
1, 1008250, Note_off_c, 0, 55, 63
1, 1008260, Note_off_c, 0, 65, 67
1, 1008264, Note_on_c, 0, 59, 51
1, 1008286, Note_off_c, 0, 59, 61
1, 1008291, Note_on_c, 0, 67, 88
1, 1008336, Note_on_c, 0, 65, 83
1, 1008344, Note_on_c, 0, 71, 90
1, 1008350, Note_off_c, 0, 67, 0
1, 1008371, Note_off_c, 0, 65, 56
1, 1008372, Note_on_c, 0, 77, 86
1, 1008388, Poly_aftertouch_c, 0, 67, 127
1, 1008398, Note_off_c, 0, 71, 63
1, 1008422, Poly_aftertouch_c, 0, 67, 0
1, 1008427, Note_on_c, 0, 76, 28
1, 1008431, Note_on_c, 0, 71, 97
1, 1008437, Note_on_c, 0, 79, 109
1, 1008454, Note_off_c, 0, 77, 63
1, 1008469, Note_off_c, 0, 76, 54
1, 1008475, Note_on_c, 0, 67, 24
1, 1008510, Note_off_c, 0, 71, 61
1, 1008515, Note_off_c, 0, 67, 53
1, 1008549, Note_off_c, 0, 79, 65
1, 1008871, Note_on_c, 0, 55, 89
1, 1008872, Note_on_c, 0, 67, 109
1, 1008995, Note_on_c, 0, 53, 74
1, 1008997, Note_on_c, 0, 65, 77
1, 1009010, Note_off_c, 0, 55, 56
1, 1009082, Note_off_c, 0, 65, 61
1, 1009084, Note_on_c, 0, 47, 79
1, 1009091, Note_off_c, 0, 67, 40
1, 1009094, Note_on_c, 0, 59, 82
1, 1009104, Note_off_c, 0, 53, 62
1, 1009169, Note_on_c, 0, 53, 74
1, 1009171, Note_off_c, 0, 59, 64
1, 1009174, Note_on_c, 0, 65, 90
1, 1009207, Note_off_c, 0, 47, 59
1, 1009277, Note_on_c, 0, 59, 93
1, 1009292, Note_on_c, 0, 71, 96
1, 1009300, Note_on_c, 0, 69, 83
1, 1009302, Note_off_c, 0, 65, 60
1, 1009306, Note_off_c, 0, 53, 62
1, 1009375, Note_on_c, 0, 53, 68
1, 1009396, Note_on_c, 0, 65, 60
1, 1009397, Note_off_c, 0, 59, 62
1, 1009409, Note_off_c, 0, 69, 54
1, 1009410, Note_on_c, 0, 64, 63
1, 1009421, Note_off_c, 0, 71, 59
1, 1009435, Note_off_c, 0, 64, 53
1, 1009456, Note_on_c, 0, 47, 76
1, 1009461, Note_off_c, 0, 65, 61
1, 1009463, Note_off_c, 0, 53, 63
1, 1009465, Note_on_c, 0, 59, 81
1, 1009530, Note_on_c, 0, 53, 71
1, 1009544, Note_on_c, 0, 65, 66
1, 1009544, Note_off_c, 0, 59, 64
1, 1009548, Note_on_c, 0, 64, 67
1, 1009569, Note_off_c, 0, 47, 60
1, 1009607, Note_off_c, 0, 64, 52
1, 1009608, Note_on_c, 0, 69, 106
1, 1009611, Note_on_c, 0, 57, 95
1, 1009626, Note_off_c, 0, 65, 63
1, 1009638, Note_off_c, 0, 53, 62
1, 1009684, Note_on_c, 0, 65, 74
1, 1009685, Note_off_c, 0, 57, 50
1, 1009689, Note_on_c, 0, 53, 71
1, 1009712, Note_off_c, 0, 69, 58
1, 1009751, Note_on_c, 0, 47, 79
1, 1009769, Note_on_c, 0, 59, 83
1, 1009774, Note_off_c, 0, 65, 57
1, 1009779, Note_off_c, 0, 53, 63
1, 1009825, Note_on_c, 0, 53, 74
1, 1009835, Note_on_c, 0, 65, 79
1, 1009837, Note_off_c, 0, 47, 62
1, 1009845, Note_off_c, 0, 59, 63
1, 1009908, Note_on_c, 0, 68, 96
1, 1009912, Note_on_c, 0, 56, 105
1, 1009930, Note_off_c, 0, 65, 63
1, 1009933, Note_off_c, 0, 53, 63
1, 1009964, Note_on_c, 0, 49, 24
1, 1010003, Note_on_c, 0, 65, 78
1, 1010008, Note_off_c, 0, 49, 50
1, 1010010, Note_off_c, 0, 56, 58
1, 1010014, Note_on_c, 0, 53, 67
1, 1010033, Note_off_c, 0, 68, 59
1, 1010082, Poly_aftertouch_c, 0, 52, 127
1, 1010094, Note_on_c, 0, 59, 93
1, 1010096, Note_off_c, 0, 65, 56
1, 1010099, Note_on_c, 0, 47, 88
1, 1010101, Poly_aftertouch_c, 0, 52, 0
1, 1010115, Note_off_c, 0, 53, 65
1, 1010153, Note_off_c, 0, 59, 63
1, 1010180, Note_on_c, 0, 65, 94
1, 1010184, Note_on_c, 0, 53, 92
1, 1010193, Note_off_c, 0, 47, 62
1, 1010229, Note_off_c, 0, 65, 65
1, 1010262, Note_off_c, 0, 53, 0
1, 1010272, Note_on_c, 0, 67, 99
1, 1010280, Note_on_c, 0, 55, 97
1, 1010299, Poly_aftertouch_c, 0, 53, 127
1, 1010317, Poly_aftertouch_c, 0, 53, 0
1, 1010334, Note_off_c, 0, 67, 62
1, 1010335, Note_off_c, 0, 55, 63
1, 1010383, Note_on_c, 0, 65, 94
1, 1010394, Note_on_c, 0, 53, 87
1, 1010442, Note_off_c, 0, 65, 60
1, 1010465, Note_off_c, 0, 53, 57
1, 1010501, Note_on_c, 0, 59, 101
1, 1010506, Note_on_c, 0, 47, 96
1, 1010558, Note_off_c, 0, 59, 62
1, 1010618, Note_off_c, 0, 47, 39
1, 1010639, Note_on_c, 0, 53, 105
1, 1010643, Note_on_c, 0, 65, 101
1, 1010687, Note_off_c, 0, 53, 67
1, 1010711, Note_off_c, 0, 65, 64
1, 1010961, Note_on_c, 0, 64, 104
1, 1010961, Note_on_c, 0, 67, 93
1, 1010962, Note_on_c, 0, 76, 107
1, 1010963, Note_on_c, 0, 36, 111
1, 1010964, Note_on_c, 0, 24, 94
1, 1010968, Note_on_c, 0, 72, 81
1, 1010989, Note_on_c, 0, 31, 38
1, 1011019, Control_c, 0, 64, 101
1, 1011024, Note_off_c, 0, 31, 54
1, 1011034, Control_c, 0, 64, 64
1, 1011049, Control_c, 0, 64, 0
1, 1011093, Poly_aftertouch_c, 0, 26, 0
1, 1011137, Control_c, 0, 64, 40
1, 1011152, Control_c, 0, 64, 65
1, 1011163, Note_off_c, 0, 24, 59
1, 1011167, Control_c, 0, 64, 96
1, 1011182, Control_c, 0, 64, 127
1, 1011253, Note_off_c, 0, 76, 61
1, 1011256, Note_off_c, 0, 36, 59
1, 1011281, Note_off_c, 0, 72, 56
1, 1011303, Note_off_c, 0, 67, 58
1, 1011436, Note_off_c, 0, 64, 54
1, 1011511, Note_on_c, 0, 60, 51
1, 1011527, Note_on_c, 0, 47, 10
1, 1011542, Note_off_c, 0, 60, 67
1, 1011572, Note_on_c, 0, 50, 43
1, 1011575, Note_off_c, 0, 47, 36
1, 1011582, Note_on_c, 0, 64, 45
1, 1011615, Note_on_c, 0, 60, 67
1, 1011625, Note_off_c, 0, 64, 61
1, 1011629, Note_off_c, 0, 50, 54
1, 1011703, Note_on_c, 0, 43, 62
1, 1011707, Note_on_c, 0, 55, 83
1, 1011711, Note_off_c, 0, 60, 63
1, 1011817, Note_on_c, 0, 60, 70
1, 1011817, Note_on_c, 0, 48, 46
1, 1011857, Note_off_c, 0, 48, 61
1, 1011882, Note_off_c, 0, 60, 65
1, 1011886, Note_on_c, 0, 64, 67
1, 1011887, Note_on_c, 0, 52, 52
1, 1011899, Note_off_c, 0, 55, 58
1, 1011948, Note_on_c, 0, 48, 60
1, 1011963, Note_off_c, 0, 52, 52
1, 1011964, Note_on_c, 0, 60, 74
1, 1011999, Note_off_c, 0, 64, 57
1, 1012064, Note_on_c, 0, 47, 61
1, 1012075, Note_off_c, 0, 48, 60
1, 1012087, Note_on_c, 0, 59, 85
1, 1012112, Note_off_c, 0, 60, 62
1, 1012171, Note_on_c, 0, 48, 60
1, 1012191, Note_on_c, 0, 60, 63
1, 1012252, Note_off_c, 0, 48, 61
1, 1012261, Note_on_c, 0, 52, 56
1, 1012273, Note_off_c, 0, 60, 64
1, 1012279, Note_on_c, 0, 64, 67
1, 1012330, Note_off_c, 0, 43, 19
1, 1012337, Note_on_c, 0, 48, 62
1, 1012350, Note_on_c, 0, 60, 70
1, 1012371, Note_off_c, 0, 52, 55
1, 1012371, Note_off_c, 0, 59, 63
1, 1012407, Note_off_c, 0, 64, 59
1, 1012428, Note_on_c, 0, 45, 74
1, 1012431, Note_off_c, 0, 48, 64
1, 1012446, Note_on_c, 0, 57, 100
1, 1012456, Note_off_c, 0, 47, 58
1, 1012457, Note_off_c, 0, 60, 61
1, 1012505, Note_on_c, 0, 48, 67
1, 1012520, Poly_aftertouch_c, 0, 64, 127
1, 1012534, Note_on_c, 0, 60, 73
1, 1012569, Note_off_c, 0, 48, 63
1, 1012578, Poly_aftertouch_c, 0, 64, 0
1, 1012583, Note_on_c, 0, 52, 65
1, 1012587, Note_on_c, 0, 64, 59
1, 1012591, Note_off_c, 0, 60, 65
1, 1012627, Note_off_c, 0, 57, 62
1, 1012641, Note_on_c, 0, 48, 68
1, 1012657, Note_off_c, 0, 52, 61
1, 1012660, Note_on_c, 0, 60, 70
1, 1012667, Note_off_c, 0, 45, 63
1, 1012671, Note_off_c, 0, 64, 61
1, 1012731, Note_on_c, 0, 56, 97
1, 1012732, Note_on_c, 0, 44, 77
1, 1012738, Note_off_c, 0, 48, 63
1, 1012751, Note_off_c, 0, 60, 62
1, 1012795, Note_on_c, 0, 48, 60
1, 1012818, Note_on_c, 0, 60, 65
1, 1012847, Note_off_c, 0, 56, 59
1, 1012869, Note_on_c, 0, 52, 75
1, 1012873, Note_off_c, 0, 60, 63
1, 1012874, Note_off_c, 0, 48, 62
1, 1012875, Note_on_c, 0, 64, 75
1, 1012904, Note_off_c, 0, 44, 58
1, 1012949, Note_on_c, 0, 60, 78
1, 1012961, Note_off_c, 0, 52, 63
1, 1012961, Note_off_c, 0, 64, 62
1, 1012962, Note_on_c, 0, 48, 60
1, 1013004, Note_on_c, 0, 43, 77
1, 1013012, Note_on_c, 0, 55, 98
1, 1013027, Note_off_c, 0, 48, 62
1, 1013031, Note_off_c, 0, 60, 63
1, 1013074, Note_on_c, 0, 48, 48
1, 1013098, Note_on_c, 0, 60, 78
1, 1013143, Note_off_c, 0, 48, 62
1, 1013149, Note_on_c, 0, 52, 73
1, 1013153, Note_off_c, 0, 60, 64
1, 1013157, Note_on_c, 0, 64, 81
1, 1013194, Note_on_c, 0, 48, 44
1, 1013194, Note_off_c, 0, 55, 58
1, 1013198, Note_off_c, 0, 52, 64
1, 1013200, Note_off_c, 0, 43, 60
1, 1013218, Note_off_c, 0, 48, 61
1, 1013232, Note_on_c, 0, 60, 81
1, 1013244, Note_off_c, 0, 64, 65
1, 1013279, Note_off_c, 0, 60, 65
1, 1013357, Note_on_c, 0, 36, 79
1, 1013387, Note_on_c, 0, 42, 66
1, 1013393, Note_on_c, 0, 52, 95
1, 1013393, Note_on_c, 0, 64, 100
1, 1013396, Note_on_c, 0, 54, 95
1, 1013399, Control_c, 0, 64, 88
1, 1013400, Note_on_c, 0, 60, 79
1, 1013414, Control_c, 0, 64, 63
1, 1013417, Note_on_c, 0, 39, 34
1, 1013429, Control_c, 0, 64, 0
1, 1013474, Control_c, 0, 64, 48
1, 1013488, Control_c, 0, 64, 71
1, 1013503, Control_c, 0, 64, 103
1, 1013518, Control_c, 0, 64, 127
1, 1013526, Note_off_c, 0, 60, 61
1, 1013534, Note_off_c, 0, 36, 56
1, 1013545, Note_off_c, 0, 54, 63
1, 1013551, Note_off_c, 0, 52, 60
1, 1013557, Note_off_c, 0, 42, 59
1, 1013581, Note_off_c, 0, 39, 41
1, 1013621, Note_off_c, 0, 64, 61
1, 1013643, Note_on_c, 0, 60, 50
1, 1013671, Note_off_c, 0, 60, 68
1, 1013726, Note_on_c, 0, 64, 33
1, 1013756, Note_off_c, 0, 64, 55
1, 1013761, Note_on_c, 0, 48, 15
1, 1013762, Note_on_c, 0, 60, 64
1, 1013787, Note_on_c, 0, 43, 62
1, 1013803, Note_off_c, 0, 48, 41
1, 1013819, Note_on_c, 0, 55, 81
1, 1013824, Note_off_c, 0, 60, 63
1, 1013889, Note_on_c, 0, 48, 59
1, 1013909, Note_on_c, 0, 60, 60
1, 1013947, Note_off_c, 0, 48, 57
1, 1013957, Note_off_c, 0, 55, 58
1, 1013961, Note_on_c, 0, 52, 58
1, 1013973, Note_off_c, 0, 60, 64
1, 1013975, Note_on_c, 0, 64, 56
1, 1014026, Note_on_c, 0, 48, 56
1, 1014043, Note_on_c, 0, 60, 64
1, 1014049, Note_off_c, 0, 52, 55
1, 1014063, Note_off_c, 0, 64, 57
1, 1014121, Note_on_c, 0, 47, 70
1, 1014136, Note_on_c, 0, 59, 85
1, 1014136, Note_off_c, 0, 48, 61
1, 1014142, Note_off_c, 0, 60, 61
1, 1014219, Note_on_c, 0, 48, 61
1, 1014225, Note_on_c, 0, 60, 64
1, 1014228, Note_off_c, 0, 43, 54
1, 1014288, Note_off_c, 0, 60, 64
1, 1014299, Note_on_c, 0, 64, 66
1, 1014306, Note_on_c, 0, 52, 55
1, 1014306, Note_off_c, 0, 48, 63
1, 1014356, Note_on_c, 0, 60, 76
1, 1014363, Note_off_c, 0, 59, 61
1, 1014377, Note_on_c, 0, 48, 53
1, 1014384, Note_off_c, 0, 64, 57
1, 1014395, Note_off_c, 0, 52, 58
1, 1014443, Note_on_c, 0, 57, 92
1, 1014443, Note_on_c, 0, 45, 70
1, 1014444, Note_off_c, 0, 60, 57
1, 1014458, Note_off_c, 0, 48, 62
1, 1014486, Note_off_c, 0, 47, 58
1, 1014535, Note_on_c, 0, 60, 73
1, 1014536, Note_on_c, 0, 48, 62
1, 1014580, Note_off_c, 0, 48, 62
1, 1014598, Note_off_c, 0, 60, 63
1, 1014598, Note_on_c, 0, 64, 66
1, 1014599, Note_on_c, 0, 52, 64
1, 1014633, Note_off_c, 0, 57, 61
1, 1014659, Note_on_c, 0, 60, 61
1, 1014671, Note_on_c, 0, 48, 71
1, 1014673, Note_off_c, 0, 64, 62
1, 1014678, Note_off_c, 0, 52, 61
1, 1014733, Note_on_c, 0, 56, 96
1, 1014741, Note_on_c, 0, 44, 78
1, 1014741, Note_off_c, 0, 48, 62
1, 1014750, Note_off_c, 0, 60, 62
1, 1014809, Note_on_c, 0, 48, 68
1, 1014815, Note_on_c, 0, 60, 63
1, 1014826, Note_off_c, 0, 45, 44
1, 1014863, Note_off_c, 0, 56, 58
1, 1014872, Note_on_c, 0, 52, 75
1, 1014874, Note_off_c, 0, 60, 64
1, 1014876, Note_off_c, 0, 48, 63
1, 1014881, Note_on_c, 0, 64, 65
1, 1014908, Note_off_c, 0, 44, 57
1, 1014932, Note_on_c, 0, 60, 67
1, 1014939, Note_off_c, 0, 64, 44
1, 1014960, Note_off_c, 0, 52, 62
1, 1014961, Note_on_c, 0, 48, 52
1, 1014982, Note_off_c, 0, 60, 66
1, 1015003, Note_on_c, 0, 43, 75
1, 1015007, Note_on_c, 0, 55, 90
1, 1015024, Note_off_c, 0, 48, 54
1, 1015064, Note_on_c, 0, 48, 43
1, 1015094, Note_on_c, 0, 60, 74
1, 1015130, Note_off_c, 0, 48, 63
1, 1015131, Note_on_c, 0, 52, 77
1, 1015146, Note_on_c, 0, 64, 70
1, 1015180, Note_on_c, 0, 48, 53
1, 1015180, Note_off_c, 0, 55, 61
1, 1015186, Note_off_c, 0, 52, 64
1, 1015230, Note_off_c, 0, 60, 60
1, 1015230, Note_off_c, 0, 43, 61
1, 1015232, Note_off_c, 0, 64, 61
1, 1015234, Note_off_c, 0, 48, 64
1, 1015285, Note_on_c, 0, 55, 100
1, 1015285, Note_on_c, 0, 67, 98
1, 1015292, Note_on_c, 0, 60, 70
1, 1015295, Note_on_c, 0, 64, 71
1, 1015402, Note_off_c, 0, 55, 58
1, 1015408, Note_off_c, 0, 67, 66
1, 1015417, Note_off_c, 0, 60, 58
1, 1015438, Note_off_c, 0, 64, 62
1, 1015456, Note_on_c, 0, 36, 82
1, 1015461, Note_on_c, 0, 24, 77
1, 1015491, Note_on_c, 0, 69, 98
1, 1015495, Note_on_c, 0, 57, 93
1, 1015498, Control_c, 0, 64, 107
1, 1015501, Note_on_c, 0, 60, 79
1, 1015504, Note_on_c, 0, 64, 71
1, 1015513, Control_c, 0, 64, 68
1, 1015528, Control_c, 0, 64, 0
1, 1015587, Control_c, 0, 64, 31
1, 1015601, Control_c, 0, 64, 61
1, 1015612, Note_off_c, 0, 24, 60
1, 1015616, Control_c, 0, 64, 75
1, 1015631, Control_c, 0, 64, 127
1, 1015639, Note_off_c, 0, 60, 52
1, 1015680, Note_off_c, 0, 36, 60
1, 1015728, Note_off_c, 0, 69, 55
1, 1015759, Note_off_c, 0, 64, 60
1, 1015780, Note_on_c, 0, 60, 50
1, 1015784, Note_off_c, 0, 57, 56
1, 1015835, Note_off_c, 0, 60, 61
1, 1015873, Note_on_c, 0, 64, 47
1, 1015911, Note_on_c, 0, 52, 50
1, 1015912, Note_off_c, 0, 64, 61
1, 1015916, Poly_aftertouch_c, 0, 48, 127
1, 1015937, Note_on_c, 0, 60, 52
1, 1015976, Note_off_c, 0, 52, 55
1, 1016021, Note_off_c, 0, 60, 63
1, 1016026, Note_on_c, 0, 55, 69
1, 1016040, Note_on_c, 0, 43, 56
1, 1016043, Poly_aftertouch_c, 0, 48, 0
1, 1016118, Note_on_c, 0, 60, 55
1, 1016120, Note_on_c, 0, 48, 43
1, 1016148, Note_off_c, 0, 55, 56
1, 1016185, Note_off_c, 0, 60, 63
1, 1016195, Note_on_c, 0, 64, 57
1, 1016195, Note_off_c, 0, 48, 61
1, 1016207, Note_on_c, 0, 52, 53
1, 1016241, Note_off_c, 0, 64, 57
1, 1016260, Note_on_c, 0, 60, 51
1, 1016268, Note_on_c, 0, 48, 52
1, 1016284, Note_off_c, 0, 52, 55
1, 1016348, Note_off_c, 0, 60, 63
1, 1016353, Note_on_c, 0, 47, 71
1, 1016353, Note_on_c, 0, 59, 82
1, 1016359, Note_off_c, 0, 48, 61
1, 1016440, Note_on_c, 0, 48, 65
1, 1016441, Note_on_c, 0, 60, 63
1, 1016480, Note_off_c, 0, 59, 52
1, 1016504, Note_off_c, 0, 48, 62
1, 1016505, Note_off_c, 0, 60, 64
1, 1016512, Note_on_c, 0, 52, 65
1, 1016515, Note_on_c, 0, 64, 67
1, 1016567, Note_off_c, 0, 64, 54
1, 1016574, Note_on_c, 0, 60, 68
1, 1016577, Note_off_c, 0, 43, 31
1, 1016586, Note_on_c, 0, 48, 68
1, 1016593, Note_off_c, 0, 52, 63
1, 1016645, Note_off_c, 0, 60, 62
1, 1016648, Note_on_c, 0, 45, 73
1, 1016654, Note_on_c, 0, 57, 90
1, 1016661, Note_off_c, 0, 48, 62
1, 1016714, Note_off_c, 0, 47, 34
1, 1016723, Note_on_c, 0, 48, 64
1, 1016745, Note_on_c, 0, 60, 82
1, 1016745, Note_off_c, 0, 57, 61
1, 1016785, Note_on_c, 0, 52, 73
1, 1016785, Note_off_c, 0, 48, 63
1, 1016795, Note_off_c, 0, 60, 63
1, 1016813, Note_on_c, 0, 64, 74
1, 1016839, Note_off_c, 0, 52, 64
1, 1016851, Note_on_c, 0, 48, 68
1, 1016858, Note_on_c, 0, 60, 79
1, 1016870, Note_off_c, 0, 64, 61
1, 1016876, Note_off_c, 0, 45, 63
1, 1016893, Note_off_c, 0, 60, 67
1, 1016971, Note_on_c, 0, 56, 90
1, 1016976, Note_on_c, 0, 44, 78
1, 1016989, Note_on_c, 0, 72, 104
1, 1016992, Note_off_c, 0, 48, 60
1, 1016993, Note_on_c, 0, 60, 99
1, 1016993, Note_on_c, 0, 64, 93
1, 1016996, Control_c, 0, 64, 78
1, 1017010, Control_c, 0, 64, 58
1, 1017025, Control_c, 0, 64, 42
1, 1017040, Control_c, 0, 64, 60
1, 1017054, Control_c, 0, 64, 68
1, 1017069, Control_c, 0, 64, 85
1, 1017070, Note_off_c, 0, 64, 63
1, 1017084, Control_c, 0, 64, 127
1, 1017088, Note_off_c, 0, 72, 60
1, 1017107, Note_off_c, 0, 56, 61
1, 1017114, Note_off_c, 0, 60, 63
1, 1017131, Note_on_c, 0, 48, 54
1, 1017152, Note_off_c, 0, 44, 57
1, 1017170, Note_on_c, 0, 60, 57
1, 1017207, Note_off_c, 0, 60, 62
1, 1017218, Note_on_c, 0, 52, 64
1, 1017242, Note_on_c, 0, 64, 58
1, 1017254, Note_off_c, 0, 48, 0
1, 1017269, Note_on_c, 0, 48, 26
1, 1017281, Note_off_c, 0, 64, 58
1, 1017284, Note_on_c, 0, 60, 66
1, 1017286, Note_off_c, 0, 52, 60
1, 1017328, Note_on_c, 0, 43, 75
1, 1017341, Note_off_c, 0, 60, 62
1, 1017344, Note_on_c, 0, 55, 85
1, 1017395, Note_off_c, 0, 48, 0
1, 1017411, Note_on_c, 0, 48, 30
1, 1017418, Note_on_c, 0, 60, 74
1, 1017442, Note_off_c, 0, 55, 58
1, 1017456, Note_on_c, 0, 52, 64
1, 1017486, Note_off_c, 0, 52, 66
1, 1017489, Note_on_c, 0, 64, 76
1, 1017493, Note_off_c, 0, 60, 65
1, 1017504, Note_off_c, 0, 43, 63
1, 1017513, Note_off_c, 0, 48, 63
1, 1017555, Note_off_c, 0, 64, 64
1, 1017556, Note_on_c, 0, 60, 71
1, 1017609, Note_on_c, 0, 36, 90
1, 1017613, Note_off_c, 0, 60, 65
1, 1017624, Note_on_c, 0, 54, 90
1, 1017656, Note_off_c, 0, 36, 63
1, 1017680, Note_off_c, 0, 54, 64
1, 1017701, Note_on_c, 0, 60, 78
1, 1017746, Note_on_c, 0, 48, 74
1, 1017760, Note_off_c, 0, 60, 63
1, 1017777, Note_on_c, 0, 64, 71
1, 1017784, Note_off_c, 0, 48, 62
1, 1017809, Note_on_c, 0, 52, 62
1, 1017833, Note_on_c, 0, 60, 75
1, 1017839, Note_off_c, 0, 64, 62
1, 1017859, Note_off_c, 0, 52, 63
1, 1017872, Note_on_c, 0, 48, 69
1, 1017890, Note_on_c, 0, 43, 81
1, 1017892, Note_on_c, 0, 55, 91
1, 1017901, Note_off_c, 0, 48, 65
1, 1017904, Note_off_c, 0, 60, 64
1, 1017947, Note_off_c, 0, 55, 62
1, 1017965, Note_on_c, 0, 60, 77
1, 1017966, Note_on_c, 0, 48, 77
1, 1018021, Note_off_c, 0, 60, 64
1, 1018029, Note_on_c, 0, 52, 81
1, 1018031, Note_off_c, 0, 48, 63
1, 1018035, Note_on_c, 0, 64, 73
1, 1018072, Note_off_c, 0, 43, 57
1, 1018076, Note_on_c, 0, 48, 56
1, 1018084, Note_on_c, 0, 60, 83
1, 1018085, Note_off_c, 0, 52, 65
1, 1018100, Note_off_c, 0, 48, 66
1, 1018103, Note_off_c, 0, 64, 64
1, 1018126, Note_off_c, 0, 60, 61
1, 1018222, Note_on_c, 0, 76, 107
1, 1018227, Note_on_c, 0, 59, 102
1, 1018227, Note_on_c, 0, 64, 102
1, 1018227, Note_on_c, 0, 67, 98
1, 1018231, Note_on_c, 0, 72, 89
1, 1018236, Note_on_c, 0, 47, 81
1, 1018240, Control_c, 0, 64, 90
1, 1018254, Note_on_c, 0, 48, 66
1, 1018255, Control_c, 0, 64, 86
1, 1018270, Control_c, 0, 64, 107
1, 1018284, Note_off_c, 0, 48, 37
1, 1018285, Control_c, 0, 64, 127
1, 1018309, Note_off_c, 0, 67, 63
1, 1018315, Note_off_c, 0, 76, 60
1, 1018323, Note_off_c, 0, 72, 63
1, 1018365, Note_off_c, 0, 59, 55
1, 1018375, Note_on_c, 0, 48, 36
1, 1018380, Note_off_c, 0, 47, 58
1, 1018391, Note_off_c, 0, 64, 54
1, 1018422, Note_on_c, 0, 60, 69
1, 1018447, Note_off_c, 0, 48, 62
1, 1018449, Note_on_c, 0, 52, 68
1, 1018471, Note_off_c, 0, 60, 64
1, 1018493, Note_on_c, 0, 64, 68
1, 1018510, Note_on_c, 0, 48, 67
1, 1018522, Note_off_c, 0, 52, 60
1, 1018530, Note_on_c, 0, 60, 67
1, 1018547, Note_off_c, 0, 64, 57
1, 1018582, Note_off_c, 0, 48, 64
1, 1018586, Note_on_c, 0, 45, 77
1, 1018586, Note_on_c, 0, 57, 85
1, 1018593, Note_off_c, 0, 60, 64
1, 1018657, Note_on_c, 0, 60, 70
1, 1018673, Note_on_c, 0, 48, 72
1, 1018690, Note_off_c, 0, 57, 62
1, 1018714, Note_off_c, 0, 48, 63
1, 1018723, Note_on_c, 0, 52, 74
1, 1018729, Note_off_c, 0, 60, 65
1, 1018732, Note_on_c, 0, 64, 77
1, 1018768, Note_off_c, 0, 45, 61
1, 1018782, Note_on_c, 0, 48, 71
1, 1018786, Note_on_c, 0, 60, 72
1, 1018789, Note_off_c, 0, 52, 63
1, 1018798, Note_off_c, 0, 64, 62
1, 1018806, Note_on_c, 0, 62, 4
1, 1018841, Note_off_c, 0, 62, 0
1, 1018855, Note_off_c, 0, 48, 59
1, 1018857, Note_on_c, 0, 56, 97
1, 1018860, Note_on_c, 0, 44, 97
1, 1018863, Note_off_c, 0, 60, 65
1, 1018878, Poly_aftertouch_c, 0, 62, 127
1, 1018932, Note_on_c, 0, 48, 70
1, 1018933, Note_on_c, 0, 60, 71
1, 1018947, Poly_aftertouch_c, 0, 62, 0
1, 1018962, Note_off_c, 0, 56, 60
1, 1018989, Note_on_c, 0, 52, 80
1, 1019004, Note_off_c, 0, 48, 62
1, 1019009, Note_off_c, 0, 60, 64
1, 1019013, Note_on_c, 0, 64, 70
1, 1019029, Note_off_c, 0, 44, 61
1, 1019067, Note_on_c, 0, 60, 59
1, 1019070, Note_on_c, 0, 48, 62
1, 1019078, Note_off_c, 0, 52, 59
1, 1019096, Note_off_c, 0, 64, 58
1, 1019123, Note_on_c, 0, 55, 83
1, 1019129, Note_on_c, 0, 43, 89
1, 1019151, Note_off_c, 0, 48, 62
1, 1019197, Note_off_c, 0, 55, 65
1, 1019203, Note_on_c, 0, 64, 71
1, 1019203, Note_on_c, 0, 48, 63
1, 1019220, Note_off_c, 0, 60, 65
1, 1019228, Note_off_c, 0, 64, 69
1, 1019263, Note_on_c, 0, 52, 88
1, 1019271, Note_off_c, 0, 48, 62
1, 1019325, Note_on_c, 0, 48, 78
1, 1019334, Note_off_c, 0, 52, 67
1, 1019354, Note_off_c, 0, 43, 63
1, 1019363, Note_on_c, 0, 73, 46
1, 1019376, Note_off_c, 0, 48, 64
1, 1019401, Note_off_c, 0, 73, 62
1, 1019448, Note_on_c, 0, 81, 100
1, 1019451, Note_on_c, 0, 69, 103
1, 1019456, Note_on_c, 0, 76, 89
1, 1019458, Note_on_c, 0, 72, 87
1, 1019561, Note_off_c, 0, 69, 61
1, 1019561, Note_off_c, 0, 81, 64
1, 1019599, Note_off_c, 0, 72, 61
1, 1019616, Note_off_c, 0, 76, 61
1, 1019654, Note_on_c, 0, 32, 58
1, 1019658, Note_on_c, 0, 44, 101
1, 1019676, Note_on_c, 0, 80, 105
1, 1019677, Note_on_c, 0, 68, 109
1, 1019683, Note_on_c, 0, 78, 85
1, 1019683, Note_on_c, 0, 72, 78
1, 1019753, Control_c, 0, 64, 76
1, 1019768, Control_c, 0, 64, 42
1, 1019783, Control_c, 0, 64, 0
1, 1019871, Control_c, 0, 64, 36
1, 1019886, Control_c, 0, 64, 68
1, 1019893, Note_off_c, 0, 32, 61
1, 1019901, Control_c, 0, 64, 117
1, 1019916, Control_c, 0, 64, 127
1, 1019952, Note_off_c, 0, 72, 58
1, 1019954, Note_off_c, 0, 80, 61
1, 1019956, Note_off_c, 0, 44, 64
1, 1019961, Note_off_c, 0, 78, 57
1, 1020062, Note_off_c, 0, 68, 54
1, 1020112, Note_on_c, 0, 68, 75
1, 1020125, Note_on_c, 0, 56, 62
1, 1020212, Note_on_c, 0, 54, 68
1, 1020214, Note_on_c, 0, 66, 82
1, 1020214, Poly_aftertouch_c, 0, 57, 127
1, 1020248, Poly_aftertouch_c, 0, 57, 0
1, 1020271, Note_off_c, 0, 56, 58
1, 1020287, Note_on_c, 0, 51, 76
1, 1020287, Note_off_c, 0, 66, 63
1, 1020290, Note_off_c, 0, 54, 63
1, 1020294, Note_on_c, 0, 63, 78
1, 1020368, Note_on_c, 0, 54, 74
1, 1020371, Note_on_c, 0, 66, 80
1, 1020400, Note_off_c, 0, 63, 60
1, 1020415, Note_off_c, 0, 51, 59
1, 1020471, Note_on_c, 0, 60, 82
1, 1020472, Note_off_c, 0, 68, 59
1, 1020488, Note_on_c, 0, 72, 94
1, 1020507, Note_off_c, 0, 66, 62
1, 1020515, Note_off_c, 0, 54, 62
1, 1020517, Note_on_c, 0, 56, 43
1, 1020586, Note_on_c, 0, 66, 71
1, 1020599, Note_on_c, 0, 54, 70
1, 1020640, Note_off_c, 0, 60, 63
1, 1020655, Note_off_c, 0, 66, 64
1, 1020667, Note_on_c, 0, 63, 71
1, 1020680, Note_on_c, 0, 51, 81
1, 1020682, Note_off_c, 0, 54, 64
1, 1020720, Note_off_c, 0, 56, 36
1, 1020725, Note_on_c, 0, 66, 72
1, 1020726, Note_off_c, 0, 72, 60
1, 1020731, Note_off_c, 0, 63, 58
1, 1020741, Note_on_c, 0, 54, 75
1, 1020763, Note_off_c, 0, 51, 63
1, 1020790, Note_on_c, 0, 70, 95
1, 1020801, Note_off_c, 0, 66, 62
1, 1020810, Note_on_c, 0, 58, 90
1, 1020821, Note_off_c, 0, 54, 63
1, 1020864, Note_on_c, 0, 54, 64
1, 1020867, Note_on_c, 0, 66, 72
1, 1020890, Note_off_c, 0, 58, 61
1, 1020930, Note_off_c, 0, 66, 63
1, 1020932, Note_on_c, 0, 63, 76
1, 1020941, Note_on_c, 0, 51, 84
1, 1020945, Note_off_c, 0, 54, 64
1, 1020990, Note_off_c, 0, 70, 60
1, 1020992, Note_on_c, 0, 66, 70
1, 1021004, Note_on_c, 0, 54, 74
1, 1021004, Note_off_c, 0, 63, 61
1, 1021028, Note_off_c, 0, 51, 62
1, 1021049, Note_on_c, 0, 69, 97
1, 1021057, Note_off_c, 0, 66, 64
1, 1021062, Note_on_c, 0, 57, 86
1, 1021076, Note_off_c, 0, 54, 64
1, 1021120, Note_on_c, 0, 54, 67
1, 1021127, Note_on_c, 0, 66, 74
1, 1021147, Note_off_c, 0, 57, 62
1, 1021186, Note_off_c, 0, 66, 64
1, 1021200, Note_on_c, 0, 63, 74
1, 1021216, Note_on_c, 0, 51, 82
1, 1021221, Note_off_c, 0, 54, 65
1, 1021249, Note_off_c, 0, 69, 62
1, 1021258, Note_on_c, 0, 66, 75
1, 1021287, Note_off_c, 0, 63, 61
1, 1021293, Note_on_c, 0, 54, 78
1, 1021317, Note_on_c, 0, 56, 83
1, 1021323, Note_on_c, 0, 68, 90
1, 1021329, Note_off_c, 0, 66, 63
1, 1021363, Note_off_c, 0, 56, 65
1, 1021367, Note_off_c, 0, 54, 64
1, 1021371, Note_off_c, 0, 51, 64
1, 1021382, Note_on_c, 0, 66, 65
1, 1021429, Note_on_c, 0, 63, 74
1, 1021477, Note_off_c, 0, 68, 58
1, 1021494, Note_off_c, 0, 63, 62
1, 1021511, Note_off_c, 0, 66, 62
1, 1021540, Note_on_c, 0, 37, 75
1, 1021588, Note_on_c, 0, 44, 67
1, 1021604, Note_off_c, 0, 37, 61
1, 1021655, Note_on_c, 0, 42, 57
1, 1021669, Note_on_c, 0, 53, 80
1, 1021688, Note_on_c, 0, 68, 84
1, 1021693, Note_off_c, 0, 42, 55
1, 1021695, Note_on_c, 0, 56, 77
1, 1021695, Note_on_c, 0, 65, 68
1, 1021697, Control_c, 0, 64, 89
1, 1021701, Note_on_c, 0, 46, 34
1, 1021702, Note_on_c, 0, 61, 67
1, 1021712, Control_c, 0, 64, 65
1, 1021726, Control_c, 0, 64, 41
1, 1021741, Control_c, 0, 64, 47
1, 1021749, Note_off_c, 0, 46, 45
1, 1021756, Control_c, 0, 64, 63
1, 1021771, Note_off_c, 0, 56, 64
1, 1021771, Control_c, 0, 64, 81
1, 1021786, Control_c, 0, 64, 127
1, 1021816, Note_off_c, 0, 44, 62
1, 1021830, Note_off_c, 0, 61, 62
1, 1021832, Note_off_c, 0, 65, 62
1, 1021844, Note_off_c, 0, 53, 63
1, 1021856, Note_off_c, 0, 68, 61
1, 1021990, Note_on_c, 0, 70, 90
1, 1021996, Note_on_c, 0, 65, 79
1, 1021998, Note_on_c, 0, 53, 68
1, 1021998, Note_on_c, 0, 58, 77
1, 1022006, Note_on_c, 0, 56, 69
1, 1022006, Note_on_c, 0, 68, 69
1, 1022056, Note_off_c, 0, 53, 60
1, 1022064, Note_off_c, 0, 65, 56
1, 1022073, Note_off_c, 0, 68, 60
1, 1022080, Note_off_c, 0, 70, 60
1, 1022084, Note_off_c, 0, 56, 62
1, 1022085, Note_off_c, 0, 58, 62
1, 1022153, Note_on_c, 0, 72, 93
1, 1022160, Note_on_c, 0, 65, 86
1, 1022163, Note_on_c, 0, 60, 91
1, 1022165, Note_on_c, 0, 53, 80
1, 1022166, Note_on_c, 0, 68, 82
1, 1022169, Note_on_c, 0, 56, 72
1, 1022199, Note_off_c, 0, 60, 68
1, 1022224, Note_off_c, 0, 53, 61
1, 1022232, Note_off_c, 0, 65, 58
1, 1022244, Note_off_c, 0, 56, 53
1, 1022248, Note_off_c, 0, 68, 61
1, 1022257, Note_off_c, 0, 72, 61
1, 1022310, Note_on_c, 0, 73, 96
1, 1022314, Note_on_c, 0, 65, 93
1, 1022316, Note_on_c, 0, 61, 97
1, 1022318, Note_on_c, 0, 68, 72
1, 1022319, Note_on_c, 0, 53, 90
1, 1022330, Note_on_c, 0, 74, 79
1, 1022354, Note_on_c, 0, 62, 42
1, 1022373, Note_off_c, 0, 61, 57
1, 1022379, Note_off_c, 0, 65, 59
1, 1022381, Note_off_c, 0, 73, 63
1, 1022381, Note_off_c, 0, 74, 61
1, 1022382, Note_off_c, 0, 62, 56
1, 1022384, Note_off_c, 0, 53, 59
1, 1022421, Note_off_c, 0, 68, 59
1, 1022463, Note_on_c, 0, 75, 106
1, 1022467, Note_on_c, 0, 65, 101
1, 1022467, Note_on_c, 0, 63, 98
1, 1022479, Note_on_c, 0, 54, 70
1, 1022491, Note_on_c, 0, 53, 64
1, 1022505, Note_off_c, 0, 65, 58
1, 1022507, Note_off_c, 0, 53, 68
1, 1022521, Note_off_c, 0, 54, 60
1, 1022533, Note_off_c, 0, 63, 60
1, 1022533, Note_off_c, 0, 75, 60
1, 1022617, Note_on_c, 0, 68, 110
1, 1022617, Note_on_c, 0, 77, 114
1, 1022622, Note_on_c, 0, 65, 97
1, 1022627, Note_on_c, 0, 56, 92
1, 1022692, Note_off_c, 0, 65, 54
1, 1022702, Note_off_c, 0, 77, 60
1, 1022708, Note_off_c, 0, 68, 56
1, 1022713, Note_off_c, 0, 56, 57
1, 1022755, Poly_aftertouch_c, 0, 75, 0
1, 1022809, Control_c, 0, 64, 80
1, 1022819, Note_on_c, 0, 77, 90
1, 1022820, Note_on_c, 0, 67, 103
1, 1022820, Note_on_c, 0, 71, 92
1, 1022821, Note_on_c, 0, 65, 109
1, 1022821, Note_on_c, 0, 79, 104
1, 1022824, Note_on_c, 0, 55, 96
1, 1022824, Note_on_c, 0, 62, 90
1, 1022824, Control_c, 0, 64, 23
1, 1022825, Note_on_c, 0, 59, 81
1, 1022839, Control_c, 0, 64, 0
1, 1022898, Control_c, 0, 64, 66
1, 1022913, Note_off_c, 0, 65, 59
1, 1022913, Control_c, 0, 64, 127
1, 1022930, Note_off_c, 0, 79, 66
1, 1022949, Note_off_c, 0, 62, 60
1, 1022961, Note_off_c, 0, 67, 59
1, 1022961, Note_off_c, 0, 77, 63
1, 1022970, Note_off_c, 0, 55, 59
1, 1022977, Note_off_c, 0, 59, 63
1, 1022983, Note_off_c, 0, 71, 62
1, 1023200, Note_on_c, 0, 53, 109
1, 1023200, Note_on_c, 0, 55, 107
1, 1023200, Note_on_c, 0, 59, 87
1, 1023201, Note_on_c, 0, 65, 87
1, 1023201, Note_on_c, 0, 67, 96
1, 1023204, Note_on_c, 0, 50, 91
1, 1023206, Note_on_c, 0, 43, 91
1, 1023208, Note_on_c, 0, 47, 84
1, 1023257, Note_on_c, 0, 57, 8
1, 1023311, Note_off_c, 0, 53, 59
1, 1023338, Note_off_c, 0, 55, 58
1, 1023343, Note_off_c, 0, 43, 62
1, 1023355, Note_off_c, 0, 50, 61
1, 1023372, Note_off_c, 0, 59, 60
1, 1023374, Note_off_c, 0, 57, 30
1, 1023378, Note_off_c, 0, 47, 61
1, 1023398, Note_off_c, 0, 67, 52
1, 1023407, Note_off_c, 0, 65, 58
1, 1023795, Note_on_c, 0, 36, 101
1, 1023795, Note_on_c, 0, 64, 105
1, 1023795, Note_on_c, 0, 76, 104
1, 1023797, Note_on_c, 0, 24, 94
1, 1023797, Note_on_c, 0, 67, 89
1, 1023800, Note_on_c, 0, 72, 81
1, 1023869, Control_c, 0, 64, 72
1, 1023884, Control_c, 0, 64, 17
1, 1023898, Control_c, 0, 64, 0
1, 1023913, Poly_aftertouch_c, 0, 26, 0
1, 1023955, Note_off_c, 0, 24, 61
1, 1023958, Control_c, 0, 64, 49
1, 1023973, Control_c, 0, 64, 69
1, 1023988, Control_c, 0, 64, 120
1, 1024003, Control_c, 0, 64, 127
1, 1024008, Note_off_c, 0, 76, 60
1, 1024010, Note_off_c, 0, 36, 61
1, 1024035, Note_off_c, 0, 72, 62
1, 1024043, Note_off_c, 0, 67, 59
1, 1024155, Note_off_c, 0, 64, 54
1, 1024212, Note_on_c, 0, 60, 66
1, 1024258, Note_off_c, 0, 60, 64
1, 1024271, Note_on_c, 0, 52, 53
1, 1024279, Note_on_c, 0, 64, 71
1, 1024329, Note_on_c, 0, 60, 75
1, 1024332, Note_on_c, 0, 43, 71
1, 1024333, Note_off_c, 0, 52, 60
1, 1024347, Note_off_c, 0, 64, 60
1, 1024390, Note_on_c, 0, 55, 93
1, 1024393, Note_off_c, 0, 60, 62
1, 1024414, Note_on_c, 0, 48, 68
1, 1024470, Note_off_c, 0, 48, 60
1, 1024485, Note_on_c, 0, 52, 67
1, 1024490, Note_on_c, 0, 60, 74
1, 1024542, Note_on_c, 0, 48, 68
1, 1024544, Note_on_c, 0, 64, 79
1, 1024546, Note_off_c, 0, 60, 63
1, 1024548, Note_off_c, 0, 52, 65
1, 1024567, Note_off_c, 0, 43, 61
1, 1024581, Note_off_c, 0, 48, 58
1, 1024614, Note_on_c, 0, 60, 80
1, 1024632, Note_off_c, 0, 55, 57
1, 1024634, Note_off_c, 0, 64, 61
1, 1024670, Note_off_c, 0, 60, 65
1, 1024733, Note_on_c, 0, 59, 100
1, 1024737, Note_on_c, 0, 64, 102
1, 1024741, Note_on_c, 0, 47, 87
1, 1024742, Note_on_c, 0, 52, 95
1, 1024748, Note_on_c, 0, 60, 81
1, 1024843, Note_off_c, 0, 60, 64
1, 1024889, Note_off_c, 0, 59, 51
1, 1024919, Note_off_c, 0, 52, 59
1, 1024927, Note_on_c, 0, 48, 58
1, 1024945, Note_on_c, 0, 60, 56
1, 1024951, Note_off_c, 0, 64, 54
1, 1024966, Note_off_c, 0, 47, 56
1, 1024974, Note_off_c, 0, 60, 64
1, 1024995, Note_off_c, 0, 48, 61
1, 1024999, Note_on_c, 0, 52, 56
1, 1025013, Note_on_c, 0, 64, 41
1, 1025060, Note_off_c, 0, 52, 60
1, 1025064, Note_on_c, 0, 48, 61
1, 1025064, Note_off_c, 0, 64, 60
1, 1025067, Note_on_c, 0, 60, 69
1, 1025133, Note_on_c, 0, 57, 88
1, 1025139, Note_on_c, 0, 45, 74
1, 1025141, Note_off_c, 0, 48, 62
1, 1025147, Note_off_c, 0, 60, 64
1, 1025212, Note_on_c, 0, 60, 64
1, 1025223, Note_on_c, 0, 48, 66
1, 1025275, Note_off_c, 0, 60, 63
1, 1025276, Note_off_c, 0, 48, 63
1, 1025279, Note_on_c, 0, 64, 69
1, 1025290, Note_on_c, 0, 52, 70
1, 1025323, Note_off_c, 0, 57, 62
1, 1025336, Note_off_c, 0, 45, 59
1, 1025351, Note_on_c, 0, 48, 67
1, 1025351, Note_on_c, 0, 60, 69
1, 1025351, Note_off_c, 0, 64, 64
1, 1025359, Note_off_c, 0, 52, 64
1, 1025419, Note_on_c, 0, 56, 102
1, 1025425, Note_on_c, 0, 44, 86
1, 1025430, Note_off_c, 0, 48, 62
1, 1025436, Note_off_c, 0, 60, 61
1, 1025497, Note_on_c, 0, 48, 65
1, 1025499, Note_on_c, 0, 60, 67
1, 1025517, Note_off_c, 0, 56, 61
1, 1025557, Note_off_c, 0, 60, 65
1, 1025559, Note_on_c, 0, 52, 72
1, 1025563, Note_off_c, 0, 48, 62
1, 1025582, Note_on_c, 0, 64, 50
1, 1025605, Note_off_c, 0, 44, 60
1, 1025620, Note_on_c, 0, 60, 67
1, 1025629, Note_on_c, 0, 48, 66
1, 1025630, Note_off_c, 0, 64, 61
1, 1025643, Note_off_c, 0, 52, 63
1, 1025680, Note_off_c, 0, 60, 54
1, 1025690, Note_on_c, 0, 55, 93
1, 1025701, Note_on_c, 0, 43, 80
1, 1025714, Note_off_c, 0, 48, 63
1, 1025764, Note_on_c, 0, 48, 63
1, 1025767, Note_on_c, 0, 60, 75
1, 1025822, Note_on_c, 0, 64, 74
1, 1025827, Note_on_c, 0, 52, 78
1, 1025827, Note_off_c, 0, 48, 63
1, 1025851, Note_off_c, 0, 55, 60
1, 1025877, Note_off_c, 0, 60, 62
1, 1025877, Note_off_c, 0, 64, 63
1, 1025891, Note_off_c, 0, 52, 64
1, 1025894, Note_on_c, 0, 48, 70
1, 1025898, Note_off_c, 0, 43, 63
1, 1025929, Note_on_c, 0, 55, 110
1, 1025930, Note_on_c, 0, 67, 96
1, 1025931, Note_on_c, 0, 60, 76
1, 1025934, Note_on_c, 0, 64, 79
1, 1026033, Note_off_c, 0, 55, 58
1, 1026045, Note_off_c, 0, 67, 61
1, 1026061, Note_off_c, 0, 60, 61
1, 1026066, Note_off_c, 0, 64, 61
1, 1026083, Note_on_c, 0, 54, 90
1, 1026095, Note_on_c, 0, 42, 78
1, 1026095, Note_off_c, 0, 48, 59
1, 1026119, Note_on_c, 0, 60, 80
1, 1026119, Note_on_c, 0, 69, 100
1, 1026122, Note_on_c, 0, 57, 95
1, 1026130, Note_on_c, 0, 64, 74
1, 1026146, Control_c, 0, 64, 74
1, 1026161, Control_c, 0, 64, 25
1, 1026176, Control_c, 0, 64, 0
1, 1026220, Control_c, 0, 64, 13
1, 1026235, Control_c, 0, 64, 55
1, 1026247, Note_off_c, 0, 60, 58
1, 1026250, Control_c, 0, 64, 73
1, 1026265, Control_c, 0, 64, 104
1, 1026280, Control_c, 0, 64, 127
1, 1026316, Note_off_c, 0, 69, 57
1, 1026345, Note_off_c, 0, 54, 63
1, 1026351, Note_on_c, 0, 48, 52
1, 1026360, Note_off_c, 0, 64, 62
1, 1026366, Note_off_c, 0, 42, 61
1, 1026370, Note_on_c, 0, 60, 57
1, 1026396, Note_off_c, 0, 57, 57
1, 1026409, Note_off_c, 0, 60, 63
1, 1026422, Note_off_c, 0, 48, 59
1, 1026441, Note_on_c, 0, 64, 54
1, 1026447, Note_on_c, 0, 52, 57
1, 1026502, Note_on_c, 0, 60, 61
1, 1026513, Note_off_c, 0, 64, 57
1, 1026525, Note_on_c, 0, 48, 38
1, 1026565, Note_on_c, 0, 43, 67
1, 1026567, Note_off_c, 0, 48, 61
1, 1026589, Note_on_c, 0, 55, 80
1, 1026593, Note_off_c, 0, 60, 60
1, 1026620, Note_off_c, 0, 52, 34
1, 1026665, Note_on_c, 0, 48, 58
1, 1026685, Note_on_c, 0, 60, 62
1, 1026717, Note_off_c, 0, 55, 59
1, 1026739, Note_on_c, 0, 52, 58
1, 1026739, Note_off_c, 0, 48, 62
1, 1026756, Note_off_c, 0, 60, 64
1, 1026760, Note_on_c, 0, 64, 62
1, 1026802, Note_off_c, 0, 64, 61
1, 1026810, Note_on_c, 0, 60, 60
1, 1026813, Note_on_c, 0, 48, 59
1, 1026824, Note_off_c, 0, 52, 58
1, 1026879, Note_on_c, 0, 47, 72
1, 1026880, Note_off_c, 0, 60, 60
1, 1026888, Note_on_c, 0, 59, 89
1, 1026892, Note_off_c, 0, 48, 62
1, 1026960, Note_on_c, 0, 48, 67
1, 1026968, Note_on_c, 0, 60, 68
1, 1026977, Note_off_c, 0, 43, 56
1, 1026991, Note_off_c, 0, 59, 54
1, 1027025, Note_off_c, 0, 60, 64
1, 1027031, Note_on_c, 0, 64, 68
1, 1027036, Note_off_c, 0, 48, 63
1, 1027037, Note_on_c, 0, 52, 71
1, 1027090, Note_off_c, 0, 64, 60
1, 1027091, Note_on_c, 0, 60, 71
1, 1027094, Poly_aftertouch_c, 0, 45, 127
1, 1027099, Note_on_c, 0, 48, 63
1, 1027108, Note_off_c, 0, 52, 64
1, 1027123, Poly_aftertouch_c, 0, 45, 0
1, 1027159, Note_on_c, 0, 57, 90
1, 1027161, Note_on_c, 0, 45, 66
1, 1027165, Note_off_c, 0, 60, 62
1, 1027174, Note_off_c, 0, 48, 63
1, 1027220, Note_off_c, 0, 47, 34
1, 1027231, Note_off_c, 0, 57, 58
1, 1027237, Note_on_c, 0, 48, 62
1, 1027239, Note_on_c, 0, 60, 76
1, 1027282, Note_off_c, 0, 48, 64
1, 1027284, Note_on_c, 0, 52, 75
1, 1027289, Note_off_c, 0, 60, 65
1, 1027302, Note_on_c, 0, 64, 70
1, 1027316, Note_off_c, 0, 52, 64
1, 1027343, Note_on_c, 0, 60, 80
1, 1027349, Note_on_c, 0, 48, 74
1, 1027364, Note_off_c, 0, 64, 64
1, 1027371, Note_off_c, 0, 45, 63
1, 1027386, Note_off_c, 0, 60, 64
1, 1027466, Note_on_c, 0, 56, 96
1, 1027473, Note_on_c, 0, 44, 86
1, 1027480, Note_on_c, 0, 72, 105
1, 1027480, Control_c, 0, 64, 91
1, 1027482, Note_on_c, 0, 64, 93
1, 1027483, Note_on_c, 0, 60, 102
1, 1027490, Note_off_c, 0, 48, 57
1, 1027494, Control_c, 0, 64, 62
1, 1027509, Control_c, 0, 64, 0
1, 1027524, Control_c, 0, 64, 43
1, 1027538, Control_c, 0, 64, 64
1, 1027553, Control_c, 0, 64, 87
1, 1027558, Note_off_c, 0, 64, 64
1, 1027568, Control_c, 0, 64, 127
1, 1027584, Note_off_c, 0, 72, 62
1, 1027609, Note_off_c, 0, 56, 61
1, 1027625, Note_off_c, 0, 60, 0
1, 1027629, Note_on_c, 0, 48, 59
1, 1027649, Note_on_c, 0, 62, 75
1, 1027650, Note_off_c, 0, 44, 58
1, 1027695, Note_off_c, 0, 62, 58
1, 1027696, Poly_aftertouch_c, 0, 60, 0
1, 1027725, Note_on_c, 0, 52, 60
1, 1027737, Note_on_c, 0, 64, 59
1, 1027776, Note_off_c, 0, 52, 60
1, 1027782, Note_on_c, 0, 60, 73
1, 1027788, Note_off_c, 0, 64, 62
1, 1027815, Note_on_c, 0, 43, 75
1, 1027833, Note_on_c, 0, 55, 85
1, 1027838, Note_off_c, 0, 48, 54
1, 1027838, Note_off_c, 0, 60, 63
1, 1027907, Note_on_c, 0, 60, 62
1, 1027922, Note_off_c, 0, 55, 58
1, 1027927, Note_on_c, 0, 52, 69
1, 1027928, Note_on_c, 0, 48, 62
1, 1027939, Note_on_c, 0, 59, 35
1, 1027967, Note_on_c, 0, 64, 74
1, 1027968, Note_off_c, 0, 52, 65
1, 1027968, Note_off_c, 0, 60, 65
1, 1027973, Note_off_c, 0, 59, 52
1, 1027994, Note_off_c, 0, 43, 62
1, 1028013, Note_off_c, 0, 48, 63
1, 1028033, Note_off_c, 0, 64, 64
1, 1028038, Note_on_c, 0, 60, 71
1, 1028078, Poly_aftertouch_c, 0, 62, 127
1, 1028080, Note_off_c, 0, 60, 65
1, 1028092, Note_on_c, 0, 36, 93
1, 1028092, Note_on_c, 0, 54, 91
1, 1028140, Note_off_c, 0, 36, 64
1, 1028149, Poly_aftertouch_c, 0, 62, 0
1, 1028155, Note_off_c, 0, 54, 63
1, 1028169, Note_on_c, 0, 60, 76
1, 1028229, Note_off_c, 0, 60, 64
1, 1028231, Note_on_c, 0, 48, 74
1, 1028241, Note_on_c, 0, 64, 67
1, 1028295, Note_on_c, 0, 60, 73
1, 1028298, Note_off_c, 0, 64, 59
1, 1028299, Note_off_c, 0, 48, 62
1, 1028326, Note_on_c, 0, 52, 54
1, 1028352, Note_on_c, 0, 43, 87
1, 1028362, Note_on_c, 0, 55, 91
1, 1028368, Note_off_c, 0, 52, 65
1, 1028375, Note_off_c, 0, 60, 64
1, 1028411, Note_off_c, 0, 55, 63
1, 1028423, Note_on_c, 0, 48, 64
1, 1028429, Note_on_c, 0, 60, 71
1, 1028472, Note_off_c, 0, 48, 62
1, 1028475, Note_on_c, 0, 52, 76
1, 1028489, Note_off_c, 0, 60, 65
1, 1028501, Note_on_c, 0, 64, 75
1, 1028519, Note_on_c, 0, 48, 68
1, 1028528, Note_off_c, 0, 43, 62
1, 1028535, Note_off_c, 0, 52, 63
1, 1028539, Note_on_c, 0, 60, 77
1, 1028563, Note_off_c, 0, 64, 64
1, 1028564, Note_off_c, 0, 48, 64
1, 1028585, Note_off_c, 0, 60, 64
1, 1028673, Note_on_c, 0, 76, 99
1, 1028674, Note_on_c, 0, 59, 102
1, 1028674, Control_c, 0, 64, 87
1, 1028677, Note_on_c, 0, 47, 94
1, 1028677, Note_on_c, 0, 67, 98
1, 1028686, Note_on_c, 0, 64, 102
1, 1028690, Note_on_c, 0, 72, 89
1, 1028696, Control_c, 0, 64, 68
1, 1028711, Control_c, 0, 64, 67
1, 1028726, Control_c, 0, 64, 86
1, 1028741, Control_c, 0, 64, 127
1, 1028766, Note_off_c, 0, 67, 63
1, 1028772, Note_off_c, 0, 76, 61
1, 1028781, Note_off_c, 0, 72, 63
1, 1028820, Note_off_c, 0, 59, 52
1, 1028843, Note_off_c, 0, 64, 55
1, 1028849, Note_on_c, 0, 48, 59
1, 1028859, Note_off_c, 0, 47, 57
1, 1028882, Note_on_c, 0, 60, 66
1, 1028910, Note_on_c, 0, 52, 69
1, 1028915, Note_off_c, 0, 48, 61
1, 1028928, Note_off_c, 0, 60, 65
1, 1028941, Note_on_c, 0, 64, 66
1, 1028972, Note_on_c, 0, 48, 62
1, 1028985, Note_off_c, 0, 52, 61
1, 1028991, Note_on_c, 0, 60, 74
1, 1029003, Note_off_c, 0, 64, 60
1, 1029040, Note_on_c, 0, 45, 82
1, 1029041, Note_off_c, 0, 60, 65
1, 1029044, Note_on_c, 0, 57, 87
1, 1029046, Note_off_c, 0, 48, 62
1, 1029118, Note_on_c, 0, 60, 76
1, 1029121, Note_on_c, 0, 48, 74
1, 1029152, Note_off_c, 0, 57, 61
1, 1029177, Note_on_c, 0, 52, 73
1, 1029177, Note_off_c, 0, 48, 63
1, 1029178, Note_on_c, 0, 64, 81
1, 1029180, Note_off_c, 0, 60, 65
1, 1029217, Note_off_c, 0, 45, 55
1, 1029228, Note_on_c, 0, 48, 71
1, 1029228, Note_on_c, 0, 62, 32
1, 1029237, Note_on_c, 0, 60, 74
1, 1029244, Note_off_c, 0, 52, 65
1, 1029250, Note_off_c, 0, 64, 61
1, 1029271, Note_off_c, 0, 62, 48
1, 1029303, Note_on_c, 0, 56, 105
1, 1029303, Note_off_c, 0, 60, 65
1, 1029309, Note_on_c, 0, 44, 97
1, 1029321, Note_off_c, 0, 48, 59
1, 1029340, Note_on_c, 0, 64, 31
1, 1029368, Poly_aftertouch_c, 0, 48, 0
1, 1029368, Note_off_c, 0, 64, 55
1, 1029376, Note_on_c, 0, 48, 62
1, 1029379, Note_on_c, 0, 60, 73
1, 1029401, Note_off_c, 0, 56, 61
1, 1029447, Note_on_c, 0, 64, 68
1, 1029448, Note_on_c, 0, 52, 81
1, 1029452, Note_off_c, 0, 60, 64
1, 1029463, Note_off_c, 0, 48, 62
1, 1029491, Note_off_c, 0, 44, 58
1, 1029509, Note_on_c, 0, 60, 60
1, 1029526, Note_on_c, 0, 48, 60
1, 1029541, Note_off_c, 0, 52, 61
1, 1029568, Note_off_c, 0, 64, 39
1, 1029583, Note_on_c, 0, 55, 88
1, 1029589, Note_on_c, 0, 43, 87
1, 1029612, Note_off_c, 0, 48, 63
1, 1029646, Note_off_c, 0, 55, 64
1, 1029663, Note_on_c, 0, 48, 63
1, 1029669, Note_on_c, 0, 64, 59
1, 1029669, Note_off_c, 0, 60, 65
1, 1029692, Note_off_c, 0, 64, 64
1, 1029725, Note_on_c, 0, 52, 91
1, 1029741, Note_off_c, 0, 48, 63
1, 1029797, Note_on_c, 0, 48, 72
1, 1029801, Note_on_c, 0, 47, 66
1, 1029806, Note_off_c, 0, 52, 66
1, 1029811, Note_on_c, 0, 73, 63
1, 1029836, Note_off_c, 0, 43, 62
1, 1029842, Note_off_c, 0, 47, 62
1, 1029848, Note_off_c, 0, 73, 60
1, 1029851, Note_off_c, 0, 48, 64
1, 1029907, Note_on_c, 0, 70, 110
1, 1029908, Note_on_c, 0, 82, 103
1, 1029914, Note_on_c, 0, 72, 83
1, 1029915, Note_on_c, 0, 79, 75
1, 1029920, Note_on_c, 0, 76, 77
1, 1029934, Note_on_c, 0, 73, 57
1, 1029961, Note_off_c, 0, 73, 37
1, 1030000, Note_off_c, 0, 72, 64
1, 1030027, Note_off_c, 0, 70, 63
1, 1030039, Note_off_c, 0, 82, 62
1, 1030048, Note_off_c, 0, 79, 59
1, 1030051, Note_off_c, 0, 76, 56
1, 1030111, Note_on_c, 0, 45, 103
1, 1030116, Note_on_c, 0, 33, 97
1, 1030122, Note_on_c, 0, 81, 99
1, 1030122, Note_on_c, 0, 69, 107
1, 1030125, Note_on_c, 0, 73, 87
1, 1030128, Note_on_c, 0, 79, 82
1, 1030134, Note_on_c, 0, 76, 82
1, 1030157, Control_c, 0, 64, 98
1, 1030172, Control_c, 0, 64, 61
1, 1030194, Control_c, 0, 64, 0
1, 1030283, Control_c, 0, 64, 54
1, 1030298, Control_c, 0, 64, 90
1, 1030310, Note_off_c, 0, 33, 60
1, 1030313, Control_c, 0, 64, 127
1, 1030343, Note_off_c, 0, 81, 62
1, 1030344, Note_off_c, 0, 76, 61
1, 1030344, Note_off_c, 0, 79, 57
1, 1030358, Note_off_c, 0, 73, 57
1, 1030367, Note_off_c, 0, 45, 65
1, 1030444, Note_off_c, 0, 69, 56
1, 1030538, Note_on_c, 0, 69, 86
1, 1030543, Note_on_c, 0, 57, 69
1, 1030635, Note_on_c, 0, 55, 67
1, 1030636, Note_on_c, 0, 67, 73
1, 1030665, Note_off_c, 0, 69, 59
1, 1030699, Note_off_c, 0, 67, 63
1, 1030704, Note_on_c, 0, 64, 75
1, 1030707, Note_on_c, 0, 52, 76
1, 1030707, Note_off_c, 0, 55, 63
1, 1030718, Note_off_c, 0, 57, 30
1, 1030775, Note_on_c, 0, 55, 70
1, 1030775, Note_on_c, 0, 67, 80
1, 1030807, Note_off_c, 0, 64, 59
1, 1030809, Note_off_c, 0, 52, 62
1, 1030869, Note_on_c, 0, 61, 88
1, 1030901, Note_off_c, 0, 55, 58
1, 1030903, Note_on_c, 0, 73, 97
1, 1030925, Note_off_c, 0, 67, 60
1, 1031020, Note_on_c, 0, 55, 69
1, 1031031, Note_on_c, 0, 67, 66
1, 1031068, Note_off_c, 0, 61, 60
1, 1031094, Note_on_c, 0, 52, 75
1, 1031097, Note_off_c, 0, 55, 63
1, 1031098, Note_off_c, 0, 67, 63
1, 1031102, Note_off_c, 0, 73, 61
1, 1031106, Note_on_c, 0, 64, 72
1, 1031158, Note_on_c, 0, 67, 69
1, 1031162, Note_on_c, 0, 55, 68
1, 1031175, Note_off_c, 0, 64, 61
1, 1031191, Note_off_c, 0, 52, 60
1, 1031236, Note_on_c, 0, 71, 104
1, 1031239, Note_on_c, 0, 59, 92
1, 1031246, Note_off_c, 0, 67, 56
1, 1031246, Note_off_c, 0, 55, 60
1, 1031304, Note_on_c, 0, 55, 66
1, 1031306, Note_on_c, 0, 67, 69
1, 1031372, Note_off_c, 0, 67, 64
1, 1031377, Note_on_c, 0, 64, 76
1, 1031386, Note_on_c, 0, 52, 75
1, 1031387, Note_off_c, 0, 55, 63
1, 1031417, Note_off_c, 0, 71, 41
1, 1031433, Note_on_c, 0, 67, 74
1, 1031445, Note_on_c, 0, 55, 67
1, 1031454, Note_off_c, 0, 64, 61
1, 1031461, Note_off_c, 0, 59, 60
1, 1031471, Note_off_c, 0, 52, 65
1, 1031493, Note_on_c, 0, 70, 102
1, 1031499, Note_on_c, 0, 58, 90
1, 1031510, Note_off_c, 0, 67, 64
1, 1031516, Note_off_c, 0, 55, 63
1, 1031561, Note_on_c, 0, 55, 67
1, 1031565, Note_on_c, 0, 67, 65
1, 1031595, Note_off_c, 0, 58, 62
1, 1031625, Note_off_c, 0, 67, 64
1, 1031629, Note_on_c, 0, 64, 73
1, 1031640, Note_on_c, 0, 52, 82
1, 1031658, Note_off_c, 0, 70, 61
1, 1031711, Note_off_c, 0, 64, 56
1, 1031715, Note_on_c, 0, 67, 57
1, 1031758, Note_off_c, 0, 55, 0
1, 1031758, Note_on_c, 0, 55, 3
1, 1031758, Note_on_c, 0, 57, 85
1, 1031758, Note_on_c, 0, 69, 90
1, 1031759, Note_off_c, 0, 67, 61
1, 1031809, Note_off_c, 0, 57, 64
1, 1031809, Note_off_c, 0, 52, 65
1, 1031820, Note_off_c, 0, 55, 40
1, 1031824, Note_on_c, 0, 67, 57
1, 1031873, Note_on_c, 0, 64, 67
1, 1031892, Note_off_c, 0, 67, 0
1, 1031905, Note_on_c, 0, 67, 47
1, 1031922, Note_off_c, 0, 69, 61
1, 1031946, Note_off_c, 0, 64, 62
1, 1031948, Note_off_c, 0, 67, 63
1, 1031990, Note_on_c, 0, 38, 70
1, 1032036, Note_on_c, 0, 45, 66
1, 1032051, Note_off_c, 0, 38, 62
1, 1032128, Note_on_c, 0, 54, 84
1, 1032141, Note_on_c, 0, 69, 85
1, 1032143, Note_on_c, 0, 66, 68
1, 1032149, Note_on_c, 0, 57, 75
1, 1032156, Note_on_c, 0, 62, 58
1, 1032182, Control_c, 0, 64, 84
1, 1032197, Control_c, 0, 64, 65
1, 1032212, Control_c, 0, 64, 44
1, 1032227, Control_c, 0, 64, 44
1, 1032235, Note_off_c, 0, 45, 61
1, 1032242, Control_c, 0, 64, 57
1, 1032257, Control_c, 0, 64, 63
1, 1032271, Control_c, 0, 64, 72
1, 1032273, Note_off_c, 0, 57, 63
1, 1032286, Control_c, 0, 64, 111
1, 1032298, Note_off_c, 0, 62, 60
1, 1032301, Control_c, 0, 64, 127
1, 1032310, Note_off_c, 0, 54, 65
1, 1032330, Note_off_c, 0, 66, 61
1, 1032330, Note_off_c, 0, 69, 62
1, 1032455, Note_on_c, 0, 54, 69
1, 1032456, Note_on_c, 0, 71, 86
1, 1032468, Note_on_c, 0, 66, 77
1, 1032469, Note_on_c, 0, 59, 63
1, 1032473, Note_on_c, 0, 57, 62
1, 1032473, Note_on_c, 0, 69, 74
1, 1032535, Note_off_c, 0, 54, 59
1, 1032542, Note_off_c, 0, 66, 56
1, 1032553, Note_off_c, 0, 71, 58
1, 1032558, Note_off_c, 0, 59, 58
1, 1032564, Note_off_c, 0, 57, 57
1, 1032590, Note_off_c, 0, 69, 60
1, 1032632, Note_on_c, 0, 73, 95
1, 1032634, Note_on_c, 0, 61, 93
1, 1032638, Note_on_c, 0, 54, 81
1, 1032640, Note_on_c, 0, 66, 82
1, 1032641, Note_on_c, 0, 69, 59
1, 1032645, Note_on_c, 0, 57, 65
1, 1032703, Note_off_c, 0, 66, 60
1, 1032710, Note_off_c, 0, 69, 61
1, 1032712, Note_off_c, 0, 54, 63
1, 1032712, Note_off_c, 0, 61, 59
1, 1032719, Note_off_c, 0, 73, 63
1, 1032734, Note_off_c, 0, 57, 56
1, 1032782, Note_on_c, 0, 68, 93
1, 1032784, Note_on_c, 0, 74, 91
1, 1032787, Note_on_c, 0, 62, 97
1, 1032792, Note_on_c, 0, 54, 88
1, 1032814, Note_off_c, 0, 68, 52
1, 1032816, Note_on_c, 0, 57, 32
1, 1032826, Note_on_c, 0, 69, 49
1, 1032839, Note_off_c, 0, 62, 61
1, 1032840, Note_off_c, 0, 74, 64
1, 1032847, Note_off_c, 0, 57, 52
1, 1032847, Note_off_c, 0, 69, 60
1, 1032848, Note_off_c, 0, 54, 62
1, 1032939, Note_on_c, 0, 76, 99
1, 1032940, Note_on_c, 0, 69, 91
1, 1032945, Note_on_c, 0, 64, 98
1, 1032946, Note_on_c, 0, 57, 78
1, 1032947, Note_on_c, 0, 74, 88
1, 1032953, Note_on_c, 0, 62, 76
1, 1032986, Note_off_c, 0, 69, 59
1, 1032992, Note_off_c, 0, 64, 61
1, 1033003, Note_off_c, 0, 57, 63
1, 1033019, Note_off_c, 0, 74, 56
1, 1033022, Note_off_c, 0, 76, 60
1, 1033023, Note_off_c, 0, 62, 53
1, 1033085, Note_on_c, 0, 77, 113
1, 1033088, Note_on_c, 0, 69, 107
1, 1033088, Note_on_c, 0, 65, 94
1, 1033094, Note_on_c, 0, 57, 87
1, 1033101, Note_on_c, 0, 62, 65
1, 1033144, Note_off_c, 0, 62, 51
1, 1033157, Note_off_c, 0, 65, 58
1, 1033163, Note_off_c, 0, 57, 57
1, 1033168, Note_on_c, 0, 74, 52
1, 1033169, Note_off_c, 0, 69, 57
1, 1033191, Note_off_c, 0, 77, 59
1, 1033220, Note_off_c, 0, 74, 59
1, 1033268, Note_on_c, 0, 65, 99
1, 1033270, Note_on_c, 0, 56, 96
1, 1033271, Note_on_c, 0, 77, 103
1, 1033273, Note_on_c, 0, 68, 105
1, 1033276, Note_on_c, 0, 73, 85
1, 1033277, Note_on_c, 0, 61, 78
1, 1033279, Control_c, 0, 64, 80
1, 1033294, Control_c, 0, 64, 54
1, 1033309, Control_c, 0, 64, 0
1, 1033324, Control_c, 0, 64, 59
1, 1033339, Control_c, 0, 64, 72
1, 1033353, Control_c, 0, 64, 127
1, 1033385, Note_off_c, 0, 77, 61
1, 1033389, Note_off_c, 0, 65, 52
1, 1033400, Note_off_c, 0, 56, 61
1, 1033401, Note_off_c, 0, 68, 58
1, 1033440, Note_off_c, 0, 61, 53
1, 1033441, Note_off_c, 0, 73, 61
1, 1033479, Note_on_c, 0, 67, 106
1, 1033483, Note_on_c, 0, 79, 92
1, 1033489, Note_on_c, 0, 55, 94
1, 1033489, Note_on_c, 0, 65, 100
1, 1033489, Note_on_c, 0, 77, 87
1, 1033496, Note_on_c, 0, 73, 52
1, 1033499, Note_on_c, 0, 61, 49
1, 1033517, Note_off_c, 0, 73, 59
1, 1033548, Note_off_c, 0, 67, 59
1, 1033551, Note_off_c, 0, 65, 57
1, 1033551, Note_on_c, 0, 74, 59
1, 1033555, Note_off_c, 0, 77, 55
1, 1033556, Note_off_c, 0, 79, 64
1, 1033558, Note_off_c, 0, 55, 63
1, 1033575, Note_off_c, 0, 61, 37
1, 1033592, Note_off_c, 0, 74, 63
1, 1033630, Note_on_c, 0, 80, 99
1, 1033632, Note_on_c, 0, 68, 105
1, 1033640, Note_on_c, 0, 65, 107
1, 1033641, Note_on_c, 0, 53, 92
1, 1033676, Note_on_c, 0, 78, 35
1, 1033709, Note_off_c, 0, 53, 61
1, 1033709, Note_off_c, 0, 78, 43
1, 1033717, Note_off_c, 0, 80, 65
1, 1033721, Note_off_c, 0, 65, 55
1, 1033731, Note_off_c, 0, 68, 59
1, 1033741, Poly_aftertouch_c, 0, 57, 127
1, 1033770, Poly_aftertouch_c, 0, 57, 0
1, 1033813, Control_c, 0, 64, 85
1, 1033821, Note_on_c, 0, 67, 107
1, 1033822, Note_on_c, 0, 77, 90
1, 1033822, Note_on_c, 0, 79, 107
1, 1033822, Note_on_c, 0, 71, 96
1, 1033824, Note_on_c, 0, 65, 117
1, 1033825, Note_on_c, 0, 59, 85
1, 1033826, Note_on_c, 0, 62, 91
1, 1033828, Control_c, 0, 64, 49
1, 1033829, Note_on_c, 0, 55, 93
1, 1033843, Control_c, 0, 64, 0
1, 1033887, Control_c, 0, 64, 60
1, 1033902, Control_c, 0, 64, 99
1, 1033914, Note_off_c, 0, 65, 59
1, 1033917, Control_c, 0, 64, 127
1, 1033918, Note_off_c, 0, 79, 65
1, 1033950, Note_off_c, 0, 67, 57
1, 1033950, Note_off_c, 0, 77, 63
1, 1033950, Note_off_c, 0, 55, 58
1, 1033954, Note_off_c, 0, 62, 61
1, 1033971, Note_off_c, 0, 71, 61
1, 1033974, Note_off_c, 0, 59, 61
1, 1034185, Poly_aftertouch_c, 0, 59, 0
1, 1034203, Note_on_c, 0, 55, 108
1, 1034205, Note_on_c, 0, 53, 104
1, 1034206, Note_on_c, 0, 65, 87
1, 1034206, Note_on_c, 0, 67, 102
1, 1034210, Note_on_c, 0, 43, 92
1, 1034210, Note_on_c, 0, 50, 87
1, 1034211, Note_on_c, 0, 47, 84
1, 1034222, Poly_aftertouch_c, 0, 59, 127
1, 1034309, Note_off_c, 0, 53, 58
1, 1034359, Note_off_c, 0, 50, 61
1, 1034361, Note_off_c, 0, 55, 56
1, 1034373, Note_off_c, 0, 43, 57
1, 1034376, Note_off_c, 0, 67, 59
1, 1034385, Note_off_c, 0, 47, 61
1, 1034417, Poly_aftertouch_c, 0, 59, 0
1, 1034420, Note_off_c, 0, 65, 57
1, 1034856, Note_on_c, 0, 79, 67
1, 1034862, Note_on_c, 0, 36, 104
1, 1034862, Note_on_c, 0, 76, 120
1, 1034863, Note_on_c, 0, 88, 109
1, 1034865, Note_on_c, 0, 24, 95
1, 1034871, Note_on_c, 0, 84, 93
1, 1034897, Note_on_c, 0, 27, 33
1, 1034901, Note_on_c, 0, 31, 37
1, 1034927, Note_on_c, 0, 26, 14
1, 1034942, Note_off_c, 0, 31, 49
1, 1034954, Control_c, 0, 64, 99
1, 1034955, Note_off_c, 0, 27, 42
1, 1034969, Control_c, 0, 64, 66
1, 1034972, Note_off_c, 0, 26, 54
1, 1034984, Control_c, 0, 64, 0
1, 1035060, Note_off_c, 0, 24, 61
1, 1035072, Control_c, 0, 64, 54
1, 1035087, Control_c, 0, 64, 58
1, 1035094, Note_off_c, 0, 88, 62
1, 1035102, Control_c, 0, 64, 127
1, 1035124, Note_off_c, 0, 36, 59
1, 1035130, Note_off_c, 0, 84, 58
1, 1035149, Note_off_c, 0, 79, 61
1, 1035177, Note_off_c, 0, 76, 57
1, 1035373, Note_on_c, 0, 55, 64
1, 1035382, Note_on_c, 0, 43, 56
1, 1035392, Note_on_c, 0, 67, 85
1, 1035476, Note_on_c, 0, 64, 78
1, 1035491, Note_on_c, 0, 52, 63
1, 1035501, Note_off_c, 0, 43, 56
1, 1035504, Note_off_c, 0, 55, 56
1, 1035550, Note_off_c, 0, 64, 64
1, 1035551, Note_on_c, 0, 60, 83
1, 1035565, Note_off_c, 0, 52, 65
1, 1035567, Note_on_c, 0, 48, 70
1, 1035627, Note_on_c, 0, 64, 79
1, 1035630, Note_off_c, 0, 67, 38
1, 1035633, Note_off_c, 0, 48, 62
1, 1035635, Note_on_c, 0, 52, 69
1, 1035636, Note_off_c, 0, 60, 65
1, 1035650, Note_off_c, 0, 64, 70
1, 1035747, Note_on_c, 0, 59, 91
1, 1035754, Note_on_c, 0, 47, 78
1, 1035760, Note_on_c, 0, 76, 104
1, 1035765, Note_off_c, 0, 52, 63
1, 1035765, Note_on_c, 0, 64, 95
1, 1035775, Note_on_c, 0, 71, 83
1, 1035776, Note_on_c, 0, 72, 79
1, 1035780, Note_on_c, 0, 74, 65
1, 1035799, Note_off_c, 0, 74, 43
1, 1035855, Note_off_c, 0, 71, 62
1, 1035856, Note_off_c, 0, 76, 61
1, 1035866, Note_off_c, 0, 72, 62
1, 1035881, Note_off_c, 0, 64, 63
1, 1035897, Note_on_c, 0, 52, 63
1, 1035903, Note_off_c, 0, 59, 58
1, 1035932, Note_off_c, 0, 47, 59
1, 1035960, Note_on_c, 0, 64, 65
1, 1035976, Note_off_c, 0, 52, 62
1, 1035990, Note_on_c, 0, 48, 55
1, 1036000, Note_off_c, 0, 64, 62
1, 1036029, Note_on_c, 0, 60, 68
1, 1036060, Note_on_c, 0, 52, 57
1, 1036083, Note_off_c, 0, 48, 54
1, 1036099, Note_on_c, 0, 64, 68
1, 1036112, Note_off_c, 0, 60, 58
1, 1036165, Note_on_c, 0, 57, 65
1, 1036177, Note_on_c, 0, 69, 83
1, 1036179, Note_off_c, 0, 52, 65
1, 1036182, Note_on_c, 0, 45, 59
1, 1036185, Note_off_c, 0, 64, 64
1, 1036243, Note_on_c, 0, 64, 67
1, 1036251, Note_on_c, 0, 52, 63
1, 1036261, Note_off_c, 0, 57, 62
1, 1036271, Note_off_c, 0, 45, 62
1, 1036310, Note_off_c, 0, 64, 64
1, 1036317, Note_on_c, 0, 48, 74
1, 1036318, Note_on_c, 0, 60, 78
1, 1036325, Note_off_c, 0, 52, 65
1, 1036367, Note_off_c, 0, 69, 56
1, 1036380, Note_on_c, 0, 64, 79
1, 1036389, Note_off_c, 0, 60, 62
1, 1036390, Note_on_c, 0, 52, 62
1, 1036422, Note_off_c, 0, 48, 57
1, 1036449, Note_off_c, 0, 64, 63
1, 1036456, Note_on_c, 0, 68, 89
1, 1036469, Note_on_c, 0, 56, 92
1, 1036479, Note_on_c, 0, 44, 74
1, 1036479, Note_off_c, 0, 52, 65
1, 1036527, Note_on_c, 0, 64, 80
1, 1036543, Note_off_c, 0, 56, 63
1, 1036546, Note_on_c, 0, 52, 67
1, 1036575, Note_off_c, 0, 44, 62
1, 1036583, Note_on_c, 0, 48, 69
1, 1036591, Note_off_c, 0, 64, 63
1, 1036593, Note_on_c, 0, 60, 79
1, 1036601, Note_off_c, 0, 68, 57
1, 1036640, Note_off_c, 0, 52, 57
1, 1036661, Note_on_c, 0, 64, 81
1, 1036667, Note_off_c, 0, 60, 63
1, 1036723, Note_off_c, 0, 64, 62
1, 1036731, Note_on_c, 0, 67, 86
1, 1036732, Note_off_c, 0, 48, 62
1, 1036746, Note_on_c, 0, 55, 94
1, 1036752, Note_on_c, 0, 43, 82
1, 1036792, Note_on_c, 0, 48, 63
1, 1036798, Note_on_c, 0, 64, 83
1, 1036825, Poly_aftertouch_c, 0, 52, 127
1, 1036832, Note_on_c, 0, 52, 22
1, 1036838, Note_off_c, 0, 67, 61
1, 1036850, Note_off_c, 0, 43, 63
1, 1036862, Note_on_c, 0, 60, 89
1, 1036862, Note_off_c, 0, 55, 59
1, 1036875, Note_off_c, 0, 48, 63
1, 1036879, Note_off_c, 0, 64, 62
1, 1036888, Note_off_c, 0, 52, 65
1, 1036898, Note_off_c, 0, 60, 68
1, 1037004, Note_on_c, 0, 67, 99
1, 1037004, Note_on_c, 0, 75, 99
1, 1037005, Note_on_c, 0, 79, 102
1, 1037024, Note_on_c, 0, 71, 68
1, 1037026, Note_on_c, 0, 72, 64
1, 1037039, Note_off_c, 0, 67, 67
1, 1037041, Note_off_c, 0, 79, 66
1, 1037056, Note_off_c, 0, 71, 65
1, 1037056, Note_off_c, 0, 72, 66
1, 1037070, Note_off_c, 0, 75, 64
1, 1037109, Note_on_c, 0, 60, 85
1, 1037112, Note_on_c, 0, 64, 100
1, 1037112, Control_c, 0, 64, 119
1, 1037112, Note_on_c, 0, 81, 101
1, 1037113, Note_on_c, 0, 55, 79
1, 1037113, Note_on_c, 0, 69, 105
1, 1037117, Note_on_c, 0, 72, 87
1, 1037118, Note_on_c, 0, 52, 92
1, 1037121, Note_on_c, 0, 76, 78
1, 1037126, Control_c, 0, 64, 62
1, 1037133, Note_on_c, 0, 79, 69
1, 1037134, Note_off_c, 0, 79, 127
1, 1037141, Control_c, 0, 64, 0
1, 1037186, Control_c, 0, 64, 54
1, 1037194, Note_off_c, 0, 64, 61
1, 1037200, Control_c, 0, 64, 92
1, 1037215, Control_c, 0, 64, 127
1, 1037216, Note_off_c, 0, 60, 62
1, 1037239, Note_off_c, 0, 81, 65
1, 1037241, Note_off_c, 0, 55, 63
1, 1037245, Note_off_c, 0, 52, 65
1, 1037263, Note_off_c, 0, 69, 61
1, 1037267, Note_off_c, 0, 76, 63
1, 1037267, Note_off_c, 0, 72, 61
1, 1037469, Note_on_c, 0, 24, 63
1, 1037470, Note_on_c, 0, 67, 83
1, 1037477, Note_on_c, 0, 55, 83
1, 1037483, Note_on_c, 0, 36, 86
1, 1037512, Note_off_c, 0, 24, 61
1, 1037524, Note_off_c, 0, 55, 55
1, 1037539, Note_off_c, 0, 36, 63
1, 1037552, Note_on_c, 0, 64, 77
1, 1037562, Note_off_c, 0, 67, 54
1, 1037619, Note_off_c, 0, 64, 60
1, 1037621, Note_on_c, 0, 60, 87
1, 1037692, Note_on_c, 0, 64, 75
1, 1037700, Note_off_c, 0, 60, 64
1, 1037732, Note_off_c, 0, 64, 60
1, 1037798, Note_on_c, 0, 52, 102
1, 1037803, Note_on_c, 0, 43, 74
1, 1037803, Note_on_c, 0, 48, 86
1, 1037807, Note_on_c, 0, 40, 82
1, 1037827, Note_on_c, 0, 71, 96
1, 1037831, Note_on_c, 0, 59, 96
1, 1037878, Note_off_c, 0, 59, 57
1, 1037905, Note_off_c, 0, 71, 56
1, 1037922, Note_on_c, 0, 64, 69
1, 1037928, Note_off_c, 0, 40, 62
1, 1037947, Note_off_c, 0, 43, 61
1, 1037977, Note_off_c, 0, 48, 61
1, 1037984, Note_off_c, 0, 64, 62
1, 1037986, Poly_aftertouch_c, 0, 65, 127
1, 1037988, Note_on_c, 0, 60, 83
1, 1038019, Poly_aftertouch_c, 0, 65, 0
1, 1038052, Note_on_c, 0, 64, 69
1, 1038054, Note_off_c, 0, 52, 58
1, 1038057, Note_off_c, 0, 60, 65
1, 1038089, Note_on_c, 0, 45, 65
1, 1038117, Note_on_c, 0, 69, 92
1, 1038120, Note_off_c, 0, 64, 59
1, 1038127, Note_on_c, 0, 57, 86
1, 1038139, Note_on_c, 0, 48, 71
1, 1038185, Note_off_c, 0, 57, 60
1, 1038198, Note_on_c, 0, 64, 79
1, 1038213, Note_off_c, 0, 48, 62
1, 1038215, Note_on_c, 0, 52, 78
1, 1038230, Note_off_c, 0, 69, 61
1, 1038246, Note_off_c, 0, 64, 64
1, 1038248, Note_on_c, 0, 60, 85
1, 1038274, Note_off_c, 0, 52, 64
1, 1038283, Note_off_c, 0, 45, 23
1, 1038287, Note_on_c, 0, 48, 73
1, 1038299, Note_on_c, 0, 64, 77
1, 1038305, Note_off_c, 0, 60, 66
1, 1038323, Note_off_c, 0, 64, 68
1, 1038427, Note_on_c, 0, 56, 96
1, 1038441, Note_on_c, 0, 44, 83
1, 1038445, Note_on_c, 0, 84, 113
1, 1038445, Note_on_c, 0, 72, 112
1, 1038449, Note_on_c, 0, 76, 99
1, 1038461, Note_off_c, 0, 48, 60
1, 1038469, Note_on_c, 0, 83, 60
1, 1038470, Note_off_c, 0, 83, 127
1, 1038501, Note_on_c, 0, 43, 11
1, 1038502, Note_off_c, 0, 84, 67
1, 1038512, Note_off_c, 0, 76, 62
1, 1038519, Note_off_c, 0, 72, 67
1, 1038534, Note_off_c, 0, 56, 63
1, 1038539, Note_off_c, 0, 43, 43
1, 1038556, Note_on_c, 0, 48, 64
1, 1038559, Note_off_c, 0, 44, 61
1, 1038565, Poly_aftertouch_c, 0, 54, 0
1, 1038626, Note_on_c, 0, 64, 83
1, 1038680, Note_off_c, 0, 64, 63
1, 1038686, Note_on_c, 0, 60, 85
1, 1038692, Note_on_c, 0, 52, 67
1, 1038709, Note_off_c, 0, 48, 56
1, 1038720, Note_on_c, 0, 43, 81
1, 1038748, Note_off_c, 0, 60, 62
1, 1038756, Note_on_c, 0, 64, 59
1, 1038764, Note_off_c, 0, 52, 61
1, 1038769, Note_on_c, 0, 65, 48
1, 1038787, Note_off_c, 0, 64, 67
1, 1038795, Note_off_c, 0, 65, 56
1, 1038796, Note_on_c, 0, 69, 70
1, 1038807, Note_on_c, 0, 67, 68
1, 1038818, Note_off_c, 0, 43, 63
1, 1038832, Poly_aftertouch_c, 0, 47, 0
1, 1038842, Note_on_c, 0, 64, 77
1, 1038870, Note_off_c, 0, 69, 64
1, 1038873, Note_off_c, 0, 67, 60
1, 1038891, Note_on_c, 0, 60, 82
1, 1038897, Note_off_c, 0, 64, 65
1, 1038943, Note_off_c, 0, 60, 65
1, 1038951, Note_on_c, 0, 55, 109
1, 1038958, Note_on_c, 0, 48, 87
1, 1038959, Note_on_c, 0, 43, 91
1, 1038963, Note_on_c, 0, 52, 70
1, 1038970, Note_on_c, 0, 46, 59
1, 1038971, Note_off_c, 0, 46, 127
1, 1038979, Note_off_c, 0, 55, 69
1, 1038985, Note_off_c, 0, 52, 65
1, 1039014, Note_off_c, 0, 48, 65
1, 1039023, Note_off_c, 0, 43, 66
1, 1039115, Poly_aftertouch_c, 0, 52, 127
1, 1039139, Note_on_c, 0, 57, 99
1, 1039142, Note_on_c, 0, 45, 99
1, 1039144, Note_on_c, 0, 48, 81
1, 1039157, Note_on_c, 0, 36, 93
1, 1039157, Control_c, 0, 64, 105
1, 1039162, Note_on_c, 0, 24, 89
1, 1039179, Note_on_c, 0, 35, 76
1, 1039181, Control_c, 0, 64, 59
1, 1039191, Note_on_c, 0, 28, 3
1, 1039195, Control_c, 0, 64, 0
1, 1039202, Note_off_c, 0, 28, 46
1, 1039252, Note_off_c, 0, 35, 0
1, 1039252, Note_on_c, 0, 35, 3
1, 1039255, Control_c, 0, 64, 55
1, 1039263, Note_off_c, 0, 24, 61
1, 1039269, Control_c, 0, 64, 92
1, 1039278, Note_off_c, 0, 35, 33
1, 1039284, Control_c, 0, 64, 127
1, 1039286, Note_off_c, 0, 45, 58
1, 1039307, Note_off_c, 0, 48, 62
1, 1039312, Note_off_c, 0, 36, 61
1, 1039342, Poly_aftertouch_c, 0, 52, 0
1, 1039349, Note_off_c, 0, 57, 65
1, 1039503, Note_on_c, 0, 43, 65
1, 1039508, Note_on_c, 0, 67, 86
1, 1039516, Note_on_c, 0, 55, 73
1, 1039536, Note_on_c, 0, 57, 51
1, 1039549, Note_off_c, 0, 55, 62
1, 1039558, Note_off_c, 0, 57, 61
1, 1039563, Note_on_c, 0, 48, 67
1, 1039584, Note_on_c, 0, 64, 84
1, 1039614, Note_off_c, 0, 67, 60
1, 1039628, Note_on_c, 0, 52, 78
1, 1039628, Note_off_c, 0, 48, 61
1, 1039649, Note_on_c, 0, 60, 89
1, 1039649, Note_off_c, 0, 64, 65
1, 1039684, Note_on_c, 0, 48, 71
1, 1039697, Note_off_c, 0, 52, 68
1, 1039699, Note_off_c, 0, 43, 60
1, 1039700, Note_on_c, 0, 64, 83
1, 1039716, Note_off_c, 0, 60, 67
1, 1039723, Note_off_c, 0, 48, 63
1, 1039740, Note_off_c, 0, 64, 67
1, 1039856, Note_on_c, 0, 59, 98
1, 1039862, Note_on_c, 0, 47, 91
1, 1039867, Note_on_c, 0, 78, 106
1, 1039870, Note_on_c, 0, 86, 94
1, 1039873, Note_on_c, 0, 88, 100
1, 1039876, Note_on_c, 0, 74, 94
1, 1039877, Note_on_c, 0, 76, 93
1, 1039881, Note_on_c, 0, 83, 81
1, 1039900, Note_off_c, 0, 88, 51
1, 1039923, Note_off_c, 0, 74, 63
1, 1039958, Note_off_c, 0, 86, 67
1, 1039959, Note_off_c, 0, 78, 63
1, 1039977, Note_off_c, 0, 76, 62
1, 1039980, Note_off_c, 0, 83, 61
1, 1040016, Note_off_c, 0, 59, 54
1, 1040049, Note_off_c, 0, 47, 60
1, 1040076, Note_on_c, 0, 51, 67
1, 1040091, Note_on_c, 0, 64, 72
1, 1040119, Note_off_c, 0, 51, 56
1, 1040143, Note_off_c, 0, 64, 62
1, 1040153, Note_on_c, 0, 60, 77
1, 1040186, Note_on_c, 0, 48, 37
1, 1040196, Note_off_c, 0, 60, 62
1, 1040201, Note_on_c, 0, 64, 79
1, 1040228, Note_on_c, 0, 57, 78
1, 1040236, Note_off_c, 0, 48, 62
1, 1040245, Note_on_c, 0, 45, 75
1, 1040268, Note_on_c, 0, 69, 88
1, 1040275, Note_off_c, 0, 64, 64
1, 1040298, Note_on_c, 0, 48, 52
1, 1040338, Note_on_c, 0, 52, 73
1, 1040339, Note_on_c, 0, 64, 82
1, 1040362, Note_off_c, 0, 57, 61
1, 1040385, Note_off_c, 0, 45, 61
1, 1040400, Note_off_c, 0, 64, 63
1, 1040403, Note_on_c, 0, 60, 83
1, 1040403, Note_off_c, 0, 48, 62
1, 1040407, Note_off_c, 0, 52, 65
1, 1040455, Note_off_c, 0, 69, 26
1, 1040470, Note_on_c, 0, 64, 85
1, 1040476, Note_off_c, 0, 60, 61
1, 1040538, Note_on_c, 0, 68, 92
1, 1040544, Note_off_c, 0, 64, 63
1, 1040544, Note_on_c, 0, 60, 104
1, 1040546, Note_on_c, 0, 48, 95
1, 1040577, Note_off_c, 0, 60, 68
1, 1040585, Note_on_c, 0, 52, 33
1, 1040608, Note_off_c, 0, 48, 60
1, 1040612, Note_off_c, 0, 52, 61
1, 1040616, Note_on_c, 0, 64, 83
1, 1040693, Note_on_c, 0, 60, 79
1, 1040693, Note_off_c, 0, 64, 60
1, 1040696, Note_on_c, 0, 52, 69
1, 1040728, Note_off_c, 0, 68, 61
1, 1040740, Note_off_c, 0, 60, 56
1, 1040767, Note_on_c, 0, 64, 81
1, 1040779, Note_off_c, 0, 52, 62
1, 1040817, Note_on_c, 0, 43, 79
1, 1040821, Note_on_c, 0, 55, 86
1, 1040827, Note_on_c, 0, 67, 88
1, 1040832, Note_off_c, 0, 64, 63
1, 1040890, Note_on_c, 0, 52, 83
1, 1040896, Note_on_c, 0, 64, 84
1, 1040913, Note_off_c, 0, 43, 62
1, 1040913, Note_off_c, 0, 55, 60
1, 1040933, Poly_aftertouch_c, 0, 53, 0
1, 1040937, Note_off_c, 0, 67, 58
1, 1040958, Note_on_c, 0, 60, 86
1, 1040967, Note_off_c, 0, 64, 65
1, 1040970, Note_off_c, 0, 52, 63
1, 1040981, Note_on_c, 0, 48, 76
1, 1040988, Note_off_c, 0, 60, 65
1, 1041047, Note_on_c, 0, 52, 104
1, 1041075, Note_off_c, 0, 48, 65
1, 1041092, Note_off_c, 0, 52, 66
1, 1041193, Note_on_c, 0, 84, 91
1, 1041193, Note_on_c, 0, 88, 89
1, 1041195, Note_on_c, 0, 91, 91
1, 1041195, Note_on_c, 0, 93, 102
1, 1041199, Note_on_c, 0, 79, 94
1, 1041199, Note_on_c, 0, 81, 93
1, 1041272, Note_off_c, 0, 79, 66
1, 1041286, Note_off_c, 0, 93, 66
1, 1041289, Note_on_c, 0, 30, 28
1, 1041297, Note_off_c, 0, 81, 65
1, 1041299, Note_off_c, 0, 91, 63
1, 1041325, Note_off_c, 0, 88, 64
1, 1041327, Note_off_c, 0, 84, 54
1, 1041353, Note_off_c, 0, 30, 48
1, 1041369, Note_on_c, 0, 38, 99
1, 1041375, Note_on_c, 0, 91, 107
1, 1041378, Note_on_c, 0, 26, 89
1, 1041379, Note_on_c, 0, 79, 110
1, 1041387, Note_on_c, 0, 88, 85
1, 1041394, Note_on_c, 0, 84, 59
1, 1041404, Control_c, 0, 64, 76
1, 1041422, Note_on_c, 0, 36, 35
1, 1041423, Note_off_c, 0, 36, 127
1, 1041425, Note_on_c, 0, 27, 41
1, 1041426, Control_c, 0, 64, 0
1, 1041462, Note_off_c, 0, 27, 50
1, 1041486, Note_off_c, 0, 26, 63
1, 1041497, Note_off_c, 0, 91, 63
1, 1041500, Control_c, 0, 64, 55
1, 1041515, Control_c, 0, 64, 80
1, 1041519, Note_off_c, 0, 38, 65
1, 1041520, Note_off_c, 0, 88, 63
1, 1041521, Note_off_c, 0, 84, 59
1, 1041530, Control_c, 0, 64, 127
1, 1041548, Note_off_c, 0, 79, 61
1, 1041661, Note_on_c, 0, 76, 74
1, 1041695, Note_off_c, 0, 76, 63
1, 1041706, Note_on_c, 0, 52, 14
1, 1041711, Note_on_c, 0, 72, 71
1, 1041717, Note_on_c, 0, 48, 43
1, 1041747, Note_off_c, 0, 52, 52
1, 1041754, Note_on_c, 0, 76, 72
1, 1041780, Note_off_c, 0, 48, 64
1, 1041781, Note_off_c, 0, 72, 62
1, 1041790, Note_on_c, 0, 43, 67
1, 1041797, Note_on_c, 0, 55, 70
1, 1041813, Note_on_c, 0, 79, 91
1, 1041816, Note_off_c, 0, 76, 64
1, 1041823, Note_on_c, 0, 67, 82
1, 1041850, Note_on_c, 0, 48, 64
1, 1041876, Note_off_c, 0, 43, 63
1, 1041892, Note_off_c, 0, 67, 60
1, 1041894, Note_off_c, 0, 48, 63
1, 1041895, Note_off_c, 0, 55, 62
1, 1041898, Note_on_c, 0, 76, 85
1, 1041936, Poly_aftertouch_c, 0, 69, 0
1, 1041948, Note_off_c, 0, 79, 61
1, 1041956, Note_off_c, 0, 76, 65
1, 1041960, Note_on_c, 0, 72, 81
1, 1042019, Note_on_c, 0, 76, 83
1, 1042034, Note_off_c, 0, 72, 63
1, 1042079, Note_off_c, 0, 76, 64
1, 1042122, Note_on_c, 0, 64, 100
1, 1042124, Note_on_c, 0, 60, 87
1, 1042134, Note_on_c, 0, 52, 87
1, 1042134, Note_on_c, 0, 55, 81
1, 1042170, Note_on_c, 0, 83, 87
1, 1042174, Note_on_c, 0, 71, 88
1, 1042175, Control_c, 0, 64, 102
1, 1042190, Control_c, 0, 64, 82
1, 1042204, Control_c, 0, 64, 82
1, 1042219, Control_c, 0, 64, 99
1, 1042234, Control_c, 0, 64, 127
1, 1042235, Note_off_c, 0, 60, 63
1, 1042258, Note_off_c, 0, 64, 59
1, 1042263, Note_off_c, 0, 55, 62
1, 1042263, Note_off_c, 0, 83, 60
1, 1042291, Note_on_c, 0, 76, 46
1, 1042292, Note_off_c, 0, 52, 65
1, 1042297, Note_off_c, 0, 71, 59
1, 1042335, Note_off_c, 0, 76, 62
1, 1042353, Note_on_c, 0, 72, 67
1, 1042406, Note_on_c, 0, 52, 57
1, 1042412, Note_off_c, 0, 72, 62
1, 1042419, Note_on_c, 0, 76, 71
1, 1042468, Note_off_c, 0, 52, 58
1, 1042483, Note_off_c, 0, 76, 62
1, 1042487, Note_on_c, 0, 81, 86
1, 1042490, Note_on_c, 0, 57, 79
1, 1042494, Note_on_c, 0, 69, 80
1, 1042499, Note_on_c, 0, 45, 69
1, 1042562, Note_on_c, 0, 52, 76
1, 1042567, Note_on_c, 0, 76, 83
1, 1042584, Note_off_c, 0, 45, 57
1, 1042585, Note_off_c, 0, 57, 55
1, 1042605, Note_off_c, 0, 81, 64
1, 1042611, Note_on_c, 0, 48, 72
1, 1042621, Note_off_c, 0, 52, 64
1, 1042629, Note_off_c, 0, 76, 65
1, 1042630, Note_off_c, 0, 69, 58
1, 1042631, Note_on_c, 0, 72, 80
1, 1042684, Note_on_c, 0, 52, 69
1, 1042687, Note_off_c, 0, 48, 63
1, 1042690, Note_on_c, 0, 76, 76
1, 1042711, Note_off_c, 0, 72, 60
1, 1042761, Note_on_c, 0, 80, 94
1, 1042762, Note_on_c, 0, 68, 94
1, 1042768, Note_on_c, 0, 56, 92
1, 1042773, Note_off_c, 0, 76, 64
1, 1042776, Note_on_c, 0, 44, 77
1, 1042776, Note_off_c, 0, 52, 66
1, 1042818, Note_on_c, 0, 78, 4
1, 1042829, Poly_aftertouch_c, 0, 72, 127
1, 1042842, Note_on_c, 0, 76, 72
1, 1042844, Note_on_c, 0, 52, 75
1, 1042846, Note_off_c, 0, 80, 64
1, 1042851, Poly_aftertouch_c, 0, 72, 0
1, 1042854, Note_off_c, 0, 56, 61
1, 1042854, Note_off_c, 0, 68, 60
1, 1042857, Poly_aftertouch_c, 0, 46, 127
1, 1042860, Note_on_c, 0, 79, 52
1, 1042864, Note_off_c, 0, 44, 60
1, 1042871, Note_off_c, 0, 78, 33
1, 1042881, Note_off_c, 0, 79, 62
1, 1042882, Poly_aftertouch_c, 0, 46, 0
1, 1042895, Note_off_c, 0, 76, 64
1, 1042898, Note_on_c, 0, 72, 75
1, 1042923, Note_on_c, 0, 48, 73
1, 1042954, Note_off_c, 0, 52, 55
1, 1042971, Note_on_c, 0, 76, 70
1, 1042997, Note_off_c, 0, 72, 58
1, 1043033, Note_off_c, 0, 48, 57
1, 1043039, Note_on_c, 0, 79, 97
1, 1043043, Note_on_c, 0, 55, 100
1, 1043044, Note_on_c, 0, 67, 88
1, 1043047, Note_off_c, 0, 76, 64
1, 1043050, Note_on_c, 0, 43, 82
1, 1043050, Note_on_c, 0, 72, 33
1, 1043087, Note_off_c, 0, 72, 52
1, 1043089, Note_on_c, 0, 52, 15
1, 1043099, Note_on_c, 0, 76, 68
1, 1043110, Note_on_c, 0, 48, 71
1, 1043123, Note_off_c, 0, 52, 52
1, 1043141, Note_off_c, 0, 55, 55
1, 1043141, Note_off_c, 0, 79, 63
1, 1043146, Note_off_c, 0, 67, 62
1, 1043157, Note_on_c, 0, 72, 78
1, 1043166, Note_off_c, 0, 76, 65
1, 1043167, Note_off_c, 0, 43, 59
1, 1043170, Note_on_c, 0, 52, 88
1, 1043182, Note_off_c, 0, 72, 69
1, 1043213, Note_off_c, 0, 52, 67
1, 1043225, Note_off_c, 0, 48, 61
1, 1043311, Note_on_c, 0, 58, 106
1, 1043313, Note_on_c, 0, 70, 100
1, 1043383, Note_on_c, 0, 68, 2
1, 1043385, Note_off_c, 0, 70, 66
1, 1043389, Note_off_c, 0, 58, 60
1, 1043426, Note_off_c, 0, 68, 48
1, 1043510, Note_on_c, 0, 41, 107
1, 1043515, Note_on_c, 0, 29, 88
1, 1043533, Note_on_c, 0, 69, 96
1, 1043533, Control_c, 0, 64, 87
1, 1043535, Note_on_c, 0, 57, 100
1, 1043541, Note_on_c, 0, 60, 75
1, 1043541, Note_on_c, 0, 65, 74
1, 1043548, Control_c, 0, 64, 46
1, 1043563, Control_c, 0, 64, 0
1, 1043623, Control_c, 0, 64, 22
1, 1043624, Note_off_c, 0, 29, 63
1, 1043637, Control_c, 0, 64, 65
1, 1043652, Control_c, 0, 64, 127
1, 1043678, Note_off_c, 0, 57, 66
1, 1043687, Note_off_c, 0, 41, 65
1, 1043694, Note_off_c, 0, 60, 62
1, 1043722, Note_off_c, 0, 65, 61
1, 1043730, Note_off_c, 0, 69, 62
1, 1043873, Note_on_c, 0, 69, 70
1, 1043879, Note_on_c, 0, 81, 73
1, 1043952, Note_on_c, 0, 77, 84
1, 1043954, Note_off_c, 0, 81, 65
1, 1043957, Note_off_c, 0, 69, 58
1, 1043966, Note_on_c, 0, 65, 57
1, 1044001, Note_on_c, 0, 81, 69
1, 1044008, Note_off_c, 0, 77, 65
1, 1044047, Note_on_c, 0, 60, 80
1, 1044047, Note_off_c, 0, 65, 62
1, 1044080, Note_on_c, 0, 72, 89
1, 1044119, Note_off_c, 0, 81, 65
1, 1044134, Note_on_c, 0, 65, 70
1, 1044150, Note_on_c, 0, 77, 88
1, 1044153, Note_off_c, 0, 72, 62
1, 1044163, Note_off_c, 0, 60, 61
1, 1044180, Note_on_c, 0, 69, 83
1, 1044191, Note_off_c, 0, 65, 62
1, 1044207, Note_off_c, 0, 77, 63
1, 1044210, Note_on_c, 0, 81, 78
1, 1044255, Note_on_c, 0, 65, 83
1, 1044264, Note_on_c, 0, 77, 93
1, 1044274, Note_off_c, 0, 69, 64
1, 1044284, Note_off_c, 0, 81, 64
1, 1044300, Note_off_c, 0, 77, 69
1, 1044307, Note_off_c, 0, 65, 63
1, 1044389, Note_on_c, 0, 65, 89
1, 1044422, Note_on_c, 0, 89, 105
1, 1044427, Note_on_c, 0, 77, 96
1, 1044430, Note_on_c, 0, 84, 93
1, 1044535, Note_off_c, 0, 77, 61
1, 1044536, Note_on_c, 0, 69, 69
1, 1044539, Note_off_c, 0, 84, 61
1, 1044568, Note_off_c, 0, 89, 60
1, 1044576, Note_on_c, 0, 81, 77
1, 1044625, Note_off_c, 0, 81, 63
1, 1044629, Note_off_c, 0, 69, 59
1, 1044630, Note_on_c, 0, 72, 72
1, 1044633, Note_on_c, 0, 84, 81
1, 1044688, Note_on_c, 0, 81, 76
1, 1044696, Note_off_c, 0, 72, 63
1, 1044717, Note_off_c, 0, 84, 61
1, 1044729, Note_on_c, 0, 64, 81
1, 1044735, Note_on_c, 0, 69, 4
1, 1044746, Note_off_c, 0, 81, 65
1, 1044749, Note_on_c, 0, 76, 87
1, 1044778, Note_off_c, 0, 65, 53
1, 1044780, Note_off_c, 0, 69, 52
1, 1044805, Note_off_c, 0, 64, 62
1, 1044813, Note_off_c, 0, 76, 53
1, 1044818, Note_on_c, 0, 77, 90
1, 1044852, Note_on_c, 0, 69, 75
1, 1044867, Note_on_c, 0, 81, 81
1, 1044874, Note_off_c, 0, 77, 65
1, 1044887, Note_off_c, 0, 69, 61
1, 1044919, Note_on_c, 0, 65, 39
1, 1044940, Note_on_c, 0, 77, 81
1, 1044944, Note_off_c, 0, 65, 58
1, 1044944, Note_off_c, 0, 81, 64
1, 1044980, Note_on_c, 0, 56, 85
1, 1044982, Note_on_c, 0, 60, 80
1, 1044985, Note_on_c, 0, 74, 88
1, 1044987, Note_on_c, 0, 68, 97
1, 1044994, Note_off_c, 0, 77, 64
1, 1045028, Note_on_c, 0, 66, 27
1, 1045054, Note_off_c, 0, 56, 63
1, 1045061, Note_on_c, 0, 77, 89
1, 1045063, Note_off_c, 0, 66, 51
1, 1045096, Note_off_c, 0, 60, 61
1, 1045114, Note_on_c, 0, 65, 53
1, 1045120, Note_on_c, 0, 80, 90
1, 1045131, Note_off_c, 0, 77, 65
1, 1045136, Note_off_c, 0, 74, 57
1, 1045159, Note_off_c, 0, 68, 58
1, 1045200, Note_on_c, 0, 77, 81
1, 1045209, Note_on_c, 0, 60, 83
1, 1045219, Note_off_c, 0, 65, 62
1, 1045253, Note_on_c, 0, 72, 84
1, 1045259, Note_off_c, 0, 77, 65
1, 1045286, Note_off_c, 0, 80, 62
1, 1045292, Note_off_c, 0, 60, 65
1, 1045298, Note_on_c, 0, 65, 63
1, 1045322, Note_on_c, 0, 68, 93
1, 1045327, Note_on_c, 0, 77, 80
1, 1045356, Note_off_c, 0, 72, 62
1, 1045367, Note_on_c, 0, 60, 85
1, 1045367, Note_on_c, 0, 80, 90
1, 1045370, Note_off_c, 0, 68, 65
1, 1045373, Note_off_c, 0, 65, 62
1, 1045391, Note_off_c, 0, 77, 65
1, 1045403, Note_off_c, 0, 60, 61
1, 1045408, Note_off_c, 0, 80, 67
1, 1045527, Note_on_c, 0, 76, 108
1, 1045527, Note_on_c, 0, 88, 101
1, 1045528, Note_on_c, 0, 79, 93
1, 1045534, Note_on_c, 0, 84, 85
1, 1045587, Control_c, 0, 64, 90
1, 1045596, Note_on_c, 0, 36, 101
1, 1045599, Note_on_c, 0, 24, 93
1, 1045602, Control_c, 0, 64, 41
1, 1045617, Control_c, 0, 64, 0
1, 1045623, Note_on_c, 0, 38, 36
1, 1045624, Note_off_c, 0, 38, 127
1, 1045661, Note_off_c, 0, 24, 62
1, 1045661, Control_c, 0, 64, 39
1, 1045676, Control_c, 0, 64, 75
1, 1045687, Note_off_c, 0, 36, 65
1, 1045691, Control_c, 0, 64, 127
1, 1045742, Note_off_c, 0, 76, 57
1, 1045743, Note_off_c, 0, 88, 62
1, 1045749, Note_off_c, 0, 84, 56
1, 1045766, Note_off_c, 0, 79, 54
1, 1045882, Note_on_c, 0, 88, 99
1, 1045883, Note_on_c, 0, 79, 87
1, 1045885, Note_on_c, 0, 76, 109
1, 1045890, Note_on_c, 0, 84, 80
1, 1045894, Note_on_c, 0, 60, 80
1, 1045896, Note_on_c, 0, 67, 94
1, 1045897, Note_on_c, 0, 64, 85
1, 1045909, Note_on_c, 0, 55, 81
1, 1046047, Note_off_c, 0, 67, 54
1, 1046049, Note_off_c, 0, 88, 61
1, 1046060, Note_off_c, 0, 64, 59
1, 1046077, Note_off_c, 0, 84, 58
1, 1046081, Poly_aftertouch_c, 0, 82, 127
1, 1046088, Note_off_c, 0, 60, 61
1, 1046094, Note_off_c, 0, 79, 58
1, 1046106, Note_off_c, 0, 76, 59
1, 1046110, Poly_aftertouch_c, 0, 82, 0
1, 1046113, Note_off_c, 0, 55, 63
1, 1046377, Note_on_c, 0, 55, 45
1, 1046385, Note_on_c, 0, 79, 73
1, 1046386, Note_on_c, 0, 43, 46
1, 1046398, Note_on_c, 0, 67, 70
1, 1046503, Note_on_c, 0, 52, 41
1, 1046503, Note_on_c, 0, 76, 64
1, 1046514, Note_off_c, 0, 43, 55
1, 1046515, Note_off_c, 0, 67, 54
1, 1046532, Note_off_c, 0, 79, 44
1, 1046543, Note_off_c, 0, 52, 61
1, 1046550, Note_on_c, 0, 48, 56
1, 1046557, Note_off_c, 0, 55, 37
1, 1046568, Note_off_c, 0, 76, 64
1, 1046582, Note_on_c, 0, 72, 66
1, 1046603, Note_off_c, 0, 48, 59
1, 1046633, Note_on_c, 0, 52, 62
1, 1046646, Note_off_c, 0, 72, 64
1, 1046647, Note_on_c, 0, 76, 65
1, 1046685, Note_off_c, 0, 76, 65
1, 1046754, Note_off_c, 0, 52, 59
1, 1046759, Note_on_c, 0, 59, 57
1, 1046777, Note_on_c, 0, 83, 79
1, 1046784, Note_on_c, 0, 47, 47
1, 1046784, Note_on_c, 0, 71, 79
1, 1046872, Note_off_c, 0, 83, 60
1, 1046881, Note_on_c, 0, 52, 59
1, 1046883, Note_on_c, 0, 76, 67
1, 1046890, Note_off_c, 0, 59, 49
1, 1046905, Note_off_c, 0, 71, 58
1, 1046932, Note_off_c, 0, 47, 54
1, 1046941, Note_off_c, 0, 52, 60
1, 1046950, Note_on_c, 0, 48, 53
1, 1046954, Note_off_c, 0, 76, 63
1, 1046976, Note_on_c, 0, 72, 66
1, 1047029, Note_off_c, 0, 72, 58
1, 1047036, Note_on_c, 0, 52, 58
1, 1047040, Note_on_c, 0, 76, 72
1, 1047040, Note_off_c, 0, 48, 61
1, 1047093, Note_off_c, 0, 76, 64
1, 1047112, Note_on_c, 0, 81, 85
1, 1047118, Note_off_c, 0, 52, 62
1, 1047119, Note_on_c, 0, 69, 84
1, 1047125, Note_on_c, 0, 57, 74
1, 1047131, Note_on_c, 0, 45, 67
1, 1047198, Note_on_c, 0, 52, 65
1, 1047202, Note_off_c, 0, 57, 63
1, 1047203, Note_on_c, 0, 76, 71
1, 1047212, Note_off_c, 0, 45, 60
1, 1047224, Note_on_c, 0, 77, 47
1, 1047240, Note_off_c, 0, 81, 64
1, 1047248, Note_off_c, 0, 77, 36
1, 1047256, Note_on_c, 0, 48, 68
1, 1047259, Note_off_c, 0, 69, 59
1, 1047259, Note_off_c, 0, 76, 67
1, 1047262, Note_on_c, 0, 72, 76
1, 1047267, Note_off_c, 0, 52, 65
1, 1047328, Note_on_c, 0, 76, 74
1, 1047336, Note_off_c, 0, 72, 60
1, 1047340, Note_on_c, 0, 52, 57
1, 1047344, Note_off_c, 0, 48, 62
1, 1047385, Note_on_c, 0, 80, 98
1, 1047387, Note_on_c, 0, 68, 98
1, 1047388, Note_on_c, 0, 56, 86
1, 1047394, Note_on_c, 0, 44, 79
1, 1047395, Note_on_c, 0, 72, 55
1, 1047399, Note_off_c, 0, 52, 67
1, 1047400, Note_off_c, 0, 76, 66
1, 1047427, Note_off_c, 0, 72, 60
1, 1047467, Note_off_c, 0, 68, 63
1, 1047472, Note_off_c, 0, 80, 64
1, 1047478, Note_on_c, 0, 76, 68
1, 1047486, Note_off_c, 0, 56, 64
1, 1047486, Note_on_c, 0, 79, 61
1, 1047492, Note_off_c, 0, 44, 62
1, 1047499, Note_on_c, 0, 48, 67
1, 1047504, Note_on_c, 0, 52, 62
1, 1047516, Note_off_c, 0, 79, 67
1, 1047525, Note_on_c, 0, 72, 67
1, 1047529, Note_off_c, 0, 76, 62
1, 1047590, Note_on_c, 0, 76, 65
1, 1047599, Note_off_c, 0, 72, 62
1, 1047611, Note_off_c, 0, 52, 48
1, 1047658, Note_on_c, 0, 55, 98
1, 1047660, Note_on_c, 0, 52, 42
1, 1047661, Note_on_c, 0, 67, 91
1, 1047662, Note_on_c, 0, 79, 94
1, 1047662, Note_on_c, 0, 43, 80
1, 1047668, Note_off_c, 0, 48, 56
1, 1047674, Note_off_c, 0, 76, 62
1, 1047685, Note_off_c, 0, 52, 60
1, 1047720, Note_on_c, 0, 48, 52
1, 1047728, Note_on_c, 0, 76, 67
1, 1047751, Note_off_c, 0, 55, 64
1, 1047752, Note_off_c, 0, 67, 53
1, 1047769, Note_on_c, 0, 51, 59
1, 1047775, Note_on_c, 0, 72, 73
1, 1047780, Note_off_c, 0, 79, 62
1, 1047781, Poly_aftertouch_c, 0, 45, 0
1, 1047787, Note_off_c, 0, 48, 63
1, 1047794, Note_off_c, 0, 51, 58
1, 1047795, Note_off_c, 0, 76, 0
1, 1047802, Note_off_c, 0, 43, 64
1, 1047832, Poly_aftertouch_c, 0, 76, 127
1, 1047846, Poly_aftertouch_c, 0, 76, 0
1, 1047848, Note_off_c, 0, 72, 65
1, 1047957, Note_on_c, 0, 48, 72
1, 1047973, Note_on_c, 0, 35, 57
1, 1047973, Note_on_c, 0, 60, 87
1, 1047974, Note_on_c, 0, 36, 59
1, 1047975, Note_on_c, 0, 72, 80
1, 1047981, Control_c, 0, 64, 92
1, 1047990, Note_on_c, 0, 47, 53
1, 1047996, Control_c, 0, 64, 74
1, 1048011, Control_c, 0, 64, 72
1, 1048026, Note_off_c, 0, 47, 47
1, 1048026, Control_c, 0, 64, 82
1, 1048036, Note_off_c, 0, 35, 60
1, 1048040, Control_c, 0, 64, 127
1, 1048046, Note_off_c, 0, 60, 63
1, 1048050, Note_on_c, 0, 67, 79
1, 1048065, Note_off_c, 0, 36, 61
1, 1048086, Note_off_c, 0, 48, 63
1, 1048102, Note_on_c, 0, 64, 81
1, 1048102, Note_off_c, 0, 72, 59
1, 1048118, Note_off_c, 0, 67, 0
1, 1048142, Note_on_c, 0, 67, 36
1, 1048158, Note_off_c, 0, 64, 63
1, 1048181, Note_off_c, 0, 67, 67
1, 1048252, Note_on_c, 0, 67, 97
1, 1048253, Note_on_c, 0, 79, 95
1, 1048255, Note_on_c, 0, 55, 87
1, 1048267, Note_on_c, 0, 43, 67
1, 1048273, Note_on_c, 0, 45, 65
1, 1048301, Note_off_c, 0, 67, 62
1, 1048320, Note_on_c, 0, 76, 83
1, 1048321, Note_on_c, 0, 52, 66
1, 1048354, Note_off_c, 0, 43, 57
1, 1048362, Note_off_c, 0, 45, 58
1, 1048362, Note_off_c, 0, 55, 55
1, 1048362, Note_off_c, 0, 79, 61
1, 1048375, Note_off_c, 0, 76, 63
1, 1048377, Note_on_c, 0, 72, 83
1, 1048380, Note_on_c, 0, 48, 70
1, 1048386, Note_off_c, 0, 52, 65
1, 1048423, Note_on_c, 0, 76, 81
1, 1048439, Note_off_c, 0, 72, 64
1, 1048444, Note_off_c, 0, 48, 60
1, 1048446, Note_on_c, 0, 52, 73
1, 1048469, Note_off_c, 0, 76, 66
1, 1048566, Control_c, 0, 64, 99
1, 1048570, Note_on_c, 0, 59, 106
1, 1048571, Note_on_c, 0, 88, 98
1, 1048574, Note_on_c, 0, 76, 112
1, 1048574, Note_on_c, 0, 47, 93
1, 1048578, Note_on_c, 0, 84, 89
1, 1048579, Note_on_c, 0, 79, 92
1, 1048580, Control_c, 0, 64, 71
1, 1048595, Note_off_c, 0, 52, 66
1, 1048595, Control_c, 0, 64, 64
1, 1048610, Control_c, 0, 64, 76
1, 1048625, Note_off_c, 0, 84, 60
1, 1048625, Control_c, 0, 64, 127
1, 1048628, Note_off_c, 0, 88, 64
1, 1048634, Note_off_c, 0, 79, 61
1, 1048652, Note_off_c, 0, 76, 68
1, 1048692, Note_off_c, 0, 47, 62
1, 1048697, Note_on_c, 0, 52, 71
1, 1048698, Note_off_c, 0, 59, 58
1, 1048737, Note_on_c, 0, 76, 86
1, 1048759, Note_on_c, 0, 48, 72
1, 1048778, Note_off_c, 0, 52, 57
1, 1048783, Note_off_c, 0, 76, 59
1, 1048784, Note_on_c, 0, 72, 85
1, 1048832, Note_on_c, 0, 76, 59
1, 1048833, Note_off_c, 0, 72, 64
1, 1048848, Note_off_c, 0, 48, 53
1, 1048863, Note_on_c, 0, 57, 94
1, 1048866, Note_on_c, 0, 45, 88
1, 1048873, Note_on_c, 0, 52, 52
1, 1048880, Note_on_c, 0, 81, 89
1, 1048883, Note_on_c, 0, 69, 94
1, 1048891, Note_on_c, 0, 48, 34
1, 1048896, Note_off_c, 0, 76, 65
1, 1048896, Note_off_c, 0, 57, 64
1, 1048907, Note_off_c, 0, 52, 65
1, 1048932, Note_off_c, 0, 48, 64
1, 1048940, Note_on_c, 0, 71, 13
1, 1048941, Note_off_c, 0, 71, 127
1, 1048946, Note_off_c, 0, 45, 64
1, 1048964, Note_off_c, 0, 69, 61
1, 1048965, Note_on_c, 0, 76, 62
1, 1048978, Note_off_c, 0, 81, 63
1, 1048988, Poly_aftertouch_c, 0, 71, 0
1, 1048997, Note_off_c, 0, 76, 66
1, 1049012, Note_on_c, 0, 72, 80
1, 1049053, Note_on_c, 0, 76, 83
1, 1049078, Note_off_c, 0, 76, 67
1, 1049084, Note_off_c, 0, 72, 65
1, 1049169, Note_on_c, 0, 36, 105
1, 1049173, Note_on_c, 0, 24, 93
1, 1049191, Note_on_c, 0, 27, 31
1, 1049199, Note_on_c, 0, 54, 101
1, 1049201, Note_on_c, 0, 66, 95
1, 1049236, Note_off_c, 0, 54, 69
1, 1049256, Note_off_c, 0, 24, 62
1, 1049271, Note_off_c, 0, 66, 61
1, 1049275, Note_off_c, 0, 27, 39
1, 1049275, Note_off_c, 0, 36, 64
1, 1049310, Poly_aftertouch_c, 0, 26, 0
1, 1049381, Note_on_c, 0, 76, 89
1, 1049402, Note_on_c, 0, 52, 75
1, 1049435, Note_off_c, 0, 76, 59
1, 1049446, Note_on_c, 0, 72, 83
1, 1049459, Note_on_c, 0, 48, 68
1, 1049471, Note_on_c, 0, 76, 63
1, 1049501, Note_off_c, 0, 72, 64
1, 1049528, Note_on_c, 0, 57, 93
1, 1049544, Note_on_c, 0, 69, 106
1, 1049547, Note_on_c, 0, 81, 91
1, 1049567, Note_off_c, 0, 76, 59
1, 1049570, Note_on_c, 0, 79, 64
1, 1049572, Note_off_c, 0, 57, 65
1, 1049582, Note_off_c, 0, 52, 60
1, 1049590, Note_off_c, 0, 79, 41
1, 1049603, Note_off_c, 0, 48, 64
1, 1049621, Note_off_c, 0, 69, 64
1, 1049624, Note_on_c, 0, 76, 86
1, 1049661, Note_off_c, 0, 81, 69
1, 1049694, Note_on_c, 0, 72, 90
1, 1049697, Note_off_c, 0, 76, 65
1, 1049757, Note_on_c, 0, 76, 91
1, 1049777, Note_off_c, 0, 72, 66
1, 1049814, Note_off_c, 0, 76, 64
1, 1049841, Control_c, 0, 64, 87
1, 1049847, Note_on_c, 0, 38, 101
1, 1049847, Note_on_c, 0, 26, 97
1, 1049856, Control_c, 0, 64, 11
1, 1049865, Note_on_c, 0, 32, 64
1, 1049871, Control_c, 0, 64, 0
1, 1049880, Note_on_c, 0, 29, 47
1, 1049892, Note_off_c, 0, 32, 57
1, 1049894, Note_on_c, 0, 36, 24
1, 1049895, Note_off_c, 0, 36, 127
1, 1049901, Control_c, 0, 64, 22
1, 1049910, Note_off_c, 0, 29, 54
1, 1049915, Control_c, 0, 64, 78
1, 1049918, Note_off_c, 0, 26, 64
1, 1049930, Control_c, 0, 64, 127
1, 1049939, Note_off_c, 0, 38, 65
1, 1050131, Note_on_c, 0, 77, 114
1, 1050133, Note_on_c, 0, 76, 106
1, 1050133, Note_on_c, 0, 88, 109
1, 1050133, Note_on_c, 0, 84, 86
1, 1050135, Note_on_c, 0, 60, 89
1, 1050135, Note_on_c, 0, 65, 119
1, 1050138, Note_on_c, 0, 57, 82
1, 1050141, Note_on_c, 0, 53, 88
1, 1050235, Poly_aftertouch_c, 0, 81, 0
1, 1050284, Note_off_c, 0, 88, 62
1, 1050306, Note_off_c, 0, 65, 56
1, 1050325, Note_off_c, 0, 84, 56
1, 1050327, Note_off_c, 0, 60, 62
1, 1050331, Note_off_c, 0, 77, 58
1, 1050339, Note_off_c, 0, 57, 63
1, 1050352, Note_off_c, 0, 76, 59
1, 1050360, Note_off_c, 0, 53, 65
1, 1050593, Note_on_c, 0, 45, 74
1, 1050596, Note_on_c, 0, 57, 74
1, 1050606, Note_on_c, 0, 69, 96
1, 1050699, Note_on_c, 0, 53, 74
1, 1050700, Note_on_c, 0, 65, 81
1, 1050708, Note_off_c, 0, 57, 58
1, 1050722, Note_off_c, 0, 45, 55
1, 1050760, Note_on_c, 0, 60, 82
1, 1050762, Note_off_c, 0, 53, 61
1, 1050766, Note_off_c, 0, 65, 63
1, 1050771, Note_on_c, 0, 48, 68
1, 1050825, Note_on_c, 0, 53, 72
1, 1050839, Note_off_c, 0, 60, 66
1, 1050843, Note_on_c, 0, 65, 71
1, 1050845, Note_off_c, 0, 48, 62
1, 1050846, Note_on_c, 0, 64, 65
1, 1050860, Note_off_c, 0, 69, 59
1, 1050870, Note_off_c, 0, 64, 66
1, 1050873, Note_off_c, 0, 53, 63
1, 1050881, Note_off_c, 0, 65, 65
1, 1050989, Note_on_c, 0, 64, 74
1, 1051003, Note_on_c, 0, 52, 84
1, 1051011, Note_on_c, 0, 77, 102
1, 1051019, Note_on_c, 0, 65, 93
1, 1051021, Note_on_c, 0, 76, 86
1, 1051025, Note_on_c, 0, 69, 82
1, 1051088, Note_off_c, 0, 69, 36
1, 1051170, Note_off_c, 0, 65, 59
1, 1051170, Note_on_c, 0, 57, 66
1, 1051190, Note_off_c, 0, 52, 55
1, 1051197, Note_on_c, 0, 69, 62
1, 1051198, Note_off_c, 0, 64, 55
1, 1051239, Note_off_c, 0, 77, 60
1, 1051242, Note_off_c, 0, 57, 62
1, 1051247, Note_on_c, 0, 53, 66
1, 1051260, Note_off_c, 0, 69, 63
1, 1051267, Note_off_c, 0, 76, 43
1, 1051271, Note_on_c, 0, 65, 69
1, 1051320, Note_on_c, 0, 57, 59
1, 1051325, Note_off_c, 0, 53, 59
1, 1051331, Note_on_c, 0, 69, 64
1, 1051350, Note_off_c, 0, 65, 58
1, 1051408, Note_on_c, 0, 62, 78
1, 1051409, Note_on_c, 0, 74, 89
1, 1051413, Note_off_c, 0, 69, 62
1, 1051415, Note_off_c, 0, 57, 64
1, 1051415, Note_on_c, 0, 50, 73
1, 1051474, Note_on_c, 0, 69, 65
1, 1051482, Note_on_c, 0, 57, 72
1, 1051493, Note_off_c, 0, 62, 60
1, 1051513, Note_off_c, 0, 50, 61
1, 1051542, Note_off_c, 0, 69, 65
1, 1051549, Note_on_c, 0, 53, 77
1, 1051552, Note_on_c, 0, 65, 72
1, 1051557, Note_off_c, 0, 57, 64
1, 1051573, Note_off_c, 0, 74, 59
1, 1051614, Note_on_c, 0, 69, 80
1, 1051618, Note_off_c, 0, 65, 61
1, 1051638, Note_on_c, 0, 57, 57
1, 1051646, Note_off_c, 0, 53, 63
1, 1051678, Note_off_c, 0, 69, 62
1, 1051681, Note_on_c, 0, 73, 95
1, 1051687, Note_on_c, 0, 61, 95
1, 1051697, Note_on_c, 0, 49, 79
1, 1051716, Note_off_c, 0, 57, 64
1, 1051750, Note_on_c, 0, 69, 78
1, 1051772, Note_on_c, 0, 57, 59
1, 1051790, Note_off_c, 0, 73, 61
1, 1051795, Note_off_c, 0, 61, 59
1, 1051799, Note_on_c, 0, 65, 78
1, 1051802, Poly_aftertouch_c, 0, 51, 0
1, 1051802, Note_off_c, 0, 49, 63
1, 1051822, Note_on_c, 0, 53, 65
1, 1051853, Note_off_c, 0, 57, 60
1, 1051853, Note_off_c, 0, 65, 64
1, 1051870, Note_off_c, 0, 69, 65
1, 1051945, Note_on_c, 0, 60, 103
1, 1051945, Note_on_c, 0, 79, 91
1, 1051950, Note_on_c, 0, 48, 90
1, 1051953, Note_on_c, 0, 67, 95
1, 1051953, Note_on_c, 0, 72, 81
1, 1051967, Note_on_c, 0, 77, 71
1, 1051978, Note_on_c, 0, 57, 42
1, 1051979, Note_off_c, 0, 72, 61
1, 1051984, Note_off_c, 0, 53, 55
1, 1051985, Note_off_c, 0, 77, 42
1, 1051993, Note_off_c, 0, 79, 64
1, 1051999, Note_on_c, 0, 52, 7
1, 1052014, Note_off_c, 0, 57, 51
1, 1052019, Note_on_c, 0, 53, 49
1, 1052021, Note_off_c, 0, 67, 54
1, 1052023, Note_on_c, 0, 69, 83
1, 1052034, Note_off_c, 0, 60, 62
1, 1052055, Note_off_c, 0, 52, 48
1, 1052080, Note_off_c, 0, 69, 63
1, 1052093, Note_on_c, 0, 65, 75
1, 1052095, Note_off_c, 0, 48, 61
1, 1052102, Note_off_c, 0, 53, 63
1, 1052145, Note_off_c, 0, 65, 60
1, 1052220, Poly_aftertouch_c, 0, 69, 127
1, 1052241, Poly_aftertouch_c, 0, 69, 0
1, 1052285, Note_on_c, 0, 43, 106
1, 1052290, Note_on_c, 0, 31, 93
1, 1052303, Note_on_c, 0, 68, 101
1, 1052303, Note_on_c, 0, 80, 97
1, 1052306, Note_on_c, 0, 77, 86
1, 1052307, Note_on_c, 0, 72, 79
1, 1052325, Control_c, 0, 64, 85
1, 1052340, Control_c, 0, 64, 47
1, 1052354, Control_c, 0, 64, 0
1, 1052414, Control_c, 0, 64, 39
1, 1052428, Control_c, 0, 64, 67
1, 1052434, Note_off_c, 0, 31, 64
1, 1052443, Control_c, 0, 64, 127
1, 1052494, Note_off_c, 0, 43, 60
1, 1052521, Note_off_c, 0, 77, 57
1, 1052523, Note_off_c, 0, 80, 62
1, 1052524, Note_off_c, 0, 72, 59
1, 1052544, Note_off_c, 0, 68, 54
1, 1052688, Note_on_c, 0, 48, 68
1, 1052688, Note_on_c, 0, 60, 69
1, 1052698, Note_on_c, 0, 72, 82
1, 1052771, Note_on_c, 0, 68, 86
1, 1052775, Note_on_c, 0, 56, 77
1, 1052804, Note_off_c, 0, 60, 57
1, 1052828, Note_off_c, 0, 72, 54
1, 1052839, Note_on_c, 0, 53, 73
1, 1052846, Note_off_c, 0, 48, 62
1, 1052847, Note_off_c, 0, 56, 64
1, 1052851, Note_off_c, 0, 68, 62
1, 1052852, Note_on_c, 0, 65, 80
1, 1052914, Note_on_c, 0, 56, 89
1, 1052923, Note_on_c, 0, 68, 91
1, 1052947, Note_off_c, 0, 65, 62
1, 1052952, Note_off_c, 0, 53, 63
1, 1052975, Note_off_c, 0, 56, 65
1, 1052983, Note_off_c, 0, 68, 63
1, 1053106, Note_on_c, 0, 61, 94
1, 1053108, Note_on_c, 0, 65, 100
1, 1053117, Note_on_c, 0, 57, 80
1, 1053120, Note_on_c, 0, 53, 85
1, 1053127, Note_on_c, 0, 81, 99
1, 1053128, Note_on_c, 0, 69, 105
1, 1053130, Note_on_c, 0, 79, 93
1, 1053135, Note_on_c, 0, 77, 87
1, 1053138, Note_on_c, 0, 72, 77
1, 1053141, Note_on_c, 0, 71, 77
1, 1053148, Control_c, 0, 64, 71
1, 1053163, Control_c, 0, 64, 0
1, 1053184, Note_on_c, 0, 60, 48
1, 1053192, Control_c, 0, 64, 11
1, 1053207, Control_c, 0, 64, 52
1, 1053222, Control_c, 0, 64, 70
1, 1053229, Note_off_c, 0, 61, 60
1, 1053233, Note_off_c, 0, 71, 56
1, 1053235, Note_off_c, 0, 60, 64
1, 1053237, Control_c, 0, 64, 103
1, 1053239, Note_off_c, 0, 81, 65
1, 1053239, Note_off_c, 0, 72, 63
1, 1053251, Control_c, 0, 64, 127
1, 1053268, Note_off_c, 0, 79, 61
1, 1053269, Note_off_c, 0, 65, 54
1, 1053275, Note_off_c, 0, 77, 63
1, 1053279, Note_off_c, 0, 57, 63
1, 1053281, Note_off_c, 0, 69, 61
1, 1053343, Note_off_c, 0, 53, 60
1, 1053345, Note_on_c, 0, 69, 80
1, 1053352, Note_on_c, 0, 57, 73
1, 1053409, Note_off_c, 0, 69, 64
1, 1053425, Note_on_c, 0, 65, 71
1, 1053457, Note_off_c, 0, 57, 64
1, 1053462, Note_on_c, 0, 53, 74
1, 1053483, Note_on_c, 0, 69, 86
1, 1053499, Note_off_c, 0, 65, 59
1, 1053558, Note_off_c, 0, 69, 61
1, 1053567, Note_on_c, 0, 57, 52
1, 1053567, Note_on_c, 0, 76, 97
1, 1053576, Note_on_c, 0, 64, 89
1, 1053582, Note_on_c, 0, 52, 86
1, 1053598, Note_off_c, 0, 57, 65
1, 1053615, Note_off_c, 0, 53, 62
1, 1053634, Note_on_c, 0, 69, 84
1, 1053662, Note_on_c, 0, 57, 80
1, 1053663, Note_off_c, 0, 64, 58
1, 1053689, Note_off_c, 0, 76, 57
1, 1053693, Note_off_c, 0, 52, 66
1, 1053703, Note_on_c, 0, 65, 82
1, 1053704, Note_off_c, 0, 69, 65
1, 1053705, Note_on_c, 0, 53, 74
1, 1053770, Note_on_c, 0, 69, 84
1, 1053770, Note_off_c, 0, 57, 52
1, 1053778, Note_off_c, 0, 65, 61
1, 1053829, Note_on_c, 0, 62, 102
1, 1053831, Note_on_c, 0, 74, 93
1, 1053838, Note_on_c, 0, 50, 86
1, 1053844, Note_off_c, 0, 69, 63
1, 1053862, Note_off_c, 0, 53, 42
1, 1053905, Note_on_c, 0, 69, 82
1, 1053924, Note_on_c, 0, 53, 62
1, 1053924, Note_on_c, 0, 57, 62
1, 1053932, Note_off_c, 0, 62, 58
1, 1053941, Note_off_c, 0, 50, 64
1, 1053965, Note_off_c, 0, 69, 65
1, 1053966, Note_on_c, 0, 65, 79
1, 1053981, Note_off_c, 0, 74, 57
1, 1054029, Note_on_c, 0, 69, 80
1, 1054043, Note_off_c, 0, 65, 61
1, 1054045, Note_off_c, 0, 57, 61
1, 1054091, Note_on_c, 0, 60, 104
1, 1054095, Note_on_c, 0, 72, 93
1, 1054097, Note_on_c, 0, 48, 90
1, 1054110, Note_off_c, 0, 69, 65
1, 1054117, Note_on_c, 0, 56, 44
1, 1054132, Note_on_c, 0, 52, 32
1, 1054151, Note_off_c, 0, 56, 56
1, 1054168, Note_off_c, 0, 52, 56
1, 1054177, Note_on_c, 0, 57, 73
1, 1054179, Note_on_c, 0, 69, 79
1, 1054199, Note_off_c, 0, 60, 59
1, 1054208, Note_off_c, 0, 48, 62
1, 1054227, Note_off_c, 0, 53, 63
1, 1054230, Note_off_c, 0, 57, 65
1, 1054232, Note_off_c, 0, 72, 56
1, 1054242, Note_on_c, 0, 65, 90
1, 1054266, Note_off_c, 0, 69, 64
1, 1054286, Note_off_c, 0, 65, 64
1, 1054398, Note_on_c, 0, 60, 90
1, 1054400, Note_on_c, 0, 64, 99
1, 1054402, Note_on_c, 0, 55, 81
1, 1054402, Note_on_c, 0, 84, 103
1, 1054404, Note_on_c, 0, 72, 101
1, 1054404, Note_on_c, 0, 75, 96
1, 1054404, Note_on_c, 0, 78, 83
1, 1054408, Note_on_c, 0, 52, 86
1, 1054415, Note_on_c, 0, 79, 88
1, 1054419, Note_off_c, 0, 78, 44
1, 1054426, Note_on_c, 0, 83, 56
1, 1054427, Note_off_c, 0, 83, 127
1, 1054432, Note_off_c, 0, 64, 67
1, 1054446, Note_off_c, 0, 60, 69
1, 1054464, Note_on_c, 0, 76, 60
1, 1054464, Note_off_c, 0, 55, 64
1, 1054471, Note_off_c, 0, 52, 68
1, 1054594, Note_off_c, 0, 75, 36
1, 1054629, Note_off_c, 0, 72, 50
1, 1054634, Note_off_c, 0, 76, 58
1, 1054636, Note_off_c, 0, 79, 60
1, 1054676, Control_c, 0, 64, 92
1, 1054678, Note_off_c, 0, 84, 46
1, 1054682, Note_on_c, 0, 36, 103
1, 1054685, Note_on_c, 0, 24, 98
1, 1054691, Control_c, 0, 64, 32
1, 1054706, Control_c, 0, 64, 0
1, 1054711, Note_on_c, 0, 30, 48
1, 1054718, Note_on_c, 0, 26, 45
1, 1054753, Note_off_c, 0, 30, 55
1, 1054755, Note_off_c, 0, 26, 49
1, 1054765, Control_c, 0, 64, 9
1, 1054780, Note_off_c, 0, 24, 61
1, 1054780, Control_c, 0, 64, 69
1, 1054793, Note_off_c, 0, 36, 68
1, 1054795, Control_c, 0, 64, 127
1, 1055016, Note_on_c, 0, 84, 101
1, 1055018, Note_on_c, 0, 55, 74
1, 1055019, Note_on_c, 0, 60, 93
1, 1055019, Note_on_c, 0, 72, 103
1, 1055019, Note_on_c, 0, 76, 87
1, 1055019, Note_on_c, 0, 64, 97
1, 1055020, Note_on_c, 0, 79, 91
1, 1055025, Note_on_c, 0, 52, 78
1, 1055072, Note_on_c, 0, 53, 19
1, 1055119, Note_off_c, 0, 53, 47
1, 1055263, Note_off_c, 0, 84, 57
1, 1055290, Note_off_c, 0, 60, 62
1, 1055290, Note_off_c, 0, 64, 60
1, 1055319, Note_off_c, 0, 55, 62
1, 1055323, Note_off_c, 0, 79, 49
1, 1055334, Note_off_c, 0, 52, 64
1, 1055348, Note_off_c, 0, 76, 60
1, 1055384, Note_off_c, 0, 72, 57
1, 1055603, Note_on_c, 0, 55, 61
1, 1055616, Note_on_c, 0, 43, 53
1, 1055617, Note_on_c, 0, 67, 81
1, 1055725, Note_on_c, 0, 48, 45
1, 1055737, Note_on_c, 0, 64, 72
1, 1055765, Note_off_c, 0, 43, 60
1, 1055778, Note_on_c, 0, 52, 57
1, 1055797, Note_off_c, 0, 55, 57
1, 1055805, Note_off_c, 0, 64, 63
1, 1055814, Note_on_c, 0, 60, 72
1, 1055821, Note_off_c, 0, 52, 65
1, 1055824, Note_off_c, 0, 48, 62
1, 1055880, Note_off_c, 0, 67, 59
1, 1055880, Note_on_c, 0, 64, 70
1, 1055886, Note_off_c, 0, 60, 62
1, 1055917, Note_off_c, 0, 64, 65
1, 1055987, Note_on_c, 0, 48, 52
1, 1055989, Note_on_c, 0, 72, 91
1, 1055990, Note_on_c, 0, 60, 58
1, 1056059, Note_on_c, 0, 67, 80
1, 1056085, Note_on_c, 0, 52, 40
1, 1056103, Note_off_c, 0, 48, 50
1, 1056115, Note_off_c, 0, 60, 63
1, 1056116, Note_off_c, 0, 52, 60
1, 1056123, Note_off_c, 0, 67, 64
1, 1056127, Note_on_c, 0, 64, 80
1, 1056154, Note_off_c, 0, 72, 58
1, 1056188, Note_on_c, 0, 67, 67
1, 1056191, Note_off_c, 0, 64, 64
1, 1056211, Note_off_c, 0, 67, 70
1, 1056268, Note_on_c, 0, 76, 96
1, 1056279, Note_on_c, 0, 52, 47
1, 1056283, Note_on_c, 0, 64, 54
1, 1056340, Note_on_c, 0, 72, 74
1, 1056396, Note_on_c, 0, 60, 49
1, 1056401, Note_off_c, 0, 52, 61
1, 1056407, Note_off_c, 0, 72, 64
1, 1056411, Note_on_c, 0, 67, 73
1, 1056424, Note_off_c, 0, 64, 61
1, 1056429, Note_off_c, 0, 60, 63
1, 1056439, Note_off_c, 0, 76, 60
1, 1056473, Note_off_c, 0, 67, 63
1, 1056482, Note_on_c, 0, 72, 47
1, 1056509, Note_off_c, 0, 72, 56
1, 1056558, Note_on_c, 0, 79, 92
1, 1056602, Note_on_c, 0, 55, 30
1, 1056608, Note_on_c, 0, 67, 9
1, 1056614, Note_on_c, 0, 69, 11
1, 1056637, Note_on_c, 0, 76, 70
1, 1056665, Note_off_c, 0, 69, 44
1, 1056669, Note_on_c, 0, 64, 41
1, 1056670, Poly_aftertouch_c, 0, 57, 127
1, 1056672, Note_off_c, 0, 67, 44
1, 1056686, Note_off_c, 0, 55, 48
1, 1056691, Note_off_c, 0, 76, 64
1, 1056698, Poly_aftertouch_c, 0, 57, 0
1, 1056706, Note_on_c, 0, 72, 67
1, 1056711, Note_off_c, 0, 64, 62
1, 1056754, Poly_aftertouch_c, 0, 60, 0
1, 1056760, Note_off_c, 0, 79, 56
1, 1056779, Poly_aftertouch_c, 0, 60, 0
1, 1056780, Note_off_c, 0, 72, 61
1, 1056792, Note_on_c, 0, 76, 50
1, 1056813, Note_off_c, 0, 76, 58
1, 1056893, Note_on_c, 0, 72, 43
1, 1056899, Note_on_c, 0, 60, 36
1, 1056916, Note_on_c, 0, 84, 79
1, 1056999, Note_on_c, 0, 67, 39
1, 1057034, Note_on_c, 0, 79, 45
1, 1057054, Note_off_c, 0, 72, 39
1, 1057055, Note_off_c, 0, 67, 55
1, 1057093, Note_off_c, 0, 79, 58
1, 1057105, Note_off_c, 0, 60, 34
1, 1057127, Note_on_c, 0, 64, 27
1, 1057168, Note_on_c, 0, 76, 25
1, 1057200, Note_off_c, 0, 84, 46
1, 1057272, Note_on_c, 0, 67, 37
1, 1057282, Note_on_c, 0, 79, 43
1, 1057295, Note_off_c, 0, 64, 30
1, 1057329, Note_off_c, 0, 67, 56
1, 1057365, Note_off_c, 0, 76, 42
1, 1057477, Control_c, 0, 67, 15
1, 1057492, Control_c, 0, 67, 26
1, 1057507, Control_c, 0, 67, 39
1, 1057522, Control_c, 0, 67, 50
1, 1057538, Control_c, 0, 67, 61
1, 1057553, Control_c, 0, 67, 71
1, 1057567, Control_c, 0, 67, 79
1, 1057582, Control_c, 0, 67, 87
1, 1057597, Control_c, 0, 67, 95
1, 1057612, Control_c, 0, 67, 102
1, 1057627, Control_c, 0, 67, 107
1, 1057641, Control_c, 0, 67, 114
1, 1057656, Control_c, 0, 67, 121
1, 1057671, Control_c, 0, 67, 127
1, 1057719, Note_off_c, 0, 79, 38
1, 1057859, Note_on_c, 0, 48, 30
1, 1057915, Control_c, 0, 64, 113
1, 1057930, Control_c, 0, 64, 106
1, 1057945, Control_c, 0, 64, 100
1, 1057960, Control_c, 0, 64, 92
1, 1057974, Control_c, 0, 64, 86
1, 1057979, Note_on_c, 0, 87, 52
1, 1057989, Control_c, 0, 64, 83
1, 1058004, Control_c, 0, 64, 81
1, 1058012, Note_on_c, 0, 75, 39
1, 1058019, Control_c, 0, 64, 79
1, 1058034, Control_c, 0, 64, 75
1, 1058048, Control_c, 0, 64, 71
1, 1058063, Control_c, 0, 64, 67
1, 1058079, Control_c, 0, 64, 65
1, 1058093, Control_c, 0, 64, 63
1, 1058108, Control_c, 0, 64, 61
1, 1058123, Control_c, 0, 64, 57
1, 1058138, Control_c, 0, 64, 48
1, 1058153, Control_c, 0, 64, 43
1, 1058167, Control_c, 0, 64, 47
1, 1058182, Control_c, 0, 64, 52
1, 1058197, Control_c, 0, 64, 56
1, 1058212, Control_c, 0, 64, 61
1, 1058227, Control_c, 0, 64, 66
1, 1058241, Control_c, 0, 64, 71
1, 1058256, Control_c, 0, 64, 80
1, 1058271, Control_c, 0, 64, 93
1, 1058286, Note_off_c, 0, 48, 39
1, 1058286, Control_c, 0, 64, 127
1, 1058315, Note_on_c, 0, 58, 28
1, 1058351, Note_on_c, 0, 84, 37
1, 1058443, Note_off_c, 0, 75, 36
1, 1058450, Note_off_c, 0, 84, 54
1, 1058465, Note_off_c, 0, 87, 30
1, 1058471, Note_off_c, 0, 58, 36
1, 1058497, Note_on_c, 0, 64, 19
1, 1058505, Note_on_c, 0, 82, 41
1, 1058541, Note_off_c, 0, 64, 48
1, 1058584, Note_off_c, 0, 82, 49
1, 1058602, Note_on_c, 0, 66, 44
1, 1058610, Note_on_c, 0, 84, 40
1, 1058670, Note_off_c, 0, 66, 54
1, 1058706, Note_off_c, 0, 84, 62
1, 1058727, Note_on_c, 0, 67, 39
1, 1058733, Note_on_c, 0, 88, 69
1, 1058748, Note_on_c, 0, 76, 53
1, 1058793, Note_off_c, 0, 76, 59
1, 1058796, Note_on_c, 0, 70, 50
1, 1058801, Note_off_c, 0, 67, 51
1, 1058829, Note_off_c, 0, 88, 61
1, 1058831, Note_off_c, 0, 70, 65
1, 1058836, Note_on_c, 0, 84, 47
1, 1058858, Note_off_c, 0, 84, 60
1, 1058887, Note_on_c, 0, 76, 56
1, 1058899, Note_on_c, 0, 82, 60
1, 1058935, Note_off_c, 0, 82, 63
1, 1058944, Note_on_c, 0, 70, 43
1, 1058944, Note_on_c, 0, 84, 69
1, 1058948, Note_off_c, 0, 76, 48
1, 1058971, Note_off_c, 0, 84, 67
1, 1059004, Note_off_c, 0, 70, 61
1, 1059025, Note_on_c, 0, 93, 77
1, 1059028, Note_on_c, 0, 69, 58
1, 1059044, Note_on_c, 0, 81, 58
1, 1059046, Note_off_c, 0, 93, 65
1, 1059048, Note_on_c, 0, 91, 58
1, 1059069, Note_off_c, 0, 91, 64
1, 1059096, Note_off_c, 0, 81, 43
1, 1059100, Note_off_c, 0, 69, 61
1, 1059126, Note_on_c, 0, 84, 59
1, 1059129, Note_on_c, 0, 83, 48
1, 1059132, Note_on_c, 0, 76, 54
1, 1059144, Note_off_c, 0, 84, 65
1, 1059152, Note_off_c, 0, 83, 59
1, 1059167, Note_on_c, 0, 82, 73
1, 1059170, Note_on_c, 0, 70, 40
1, 1059171, Note_off_c, 0, 76, 61
1, 1059208, Note_off_c, 0, 82, 61
1, 1059222, Note_on_c, 0, 84, 66
1, 1059230, Note_on_c, 0, 83, 59
1, 1059249, Note_off_c, 0, 83, 65
1, 1059250, Note_on_c, 0, 68, 59
1, 1059251, Note_off_c, 0, 84, 65
1, 1059265, Note_off_c, 0, 70, 56
1, 1059279, Note_on_c, 0, 92, 95
1, 1059284, Note_off_c, 0, 68, 65
1, 1059291, Note_on_c, 0, 80, 72
1, 1059347, Note_off_c, 0, 80, 60
1, 1059349, Note_on_c, 0, 84, 69
1, 1059370, Note_off_c, 0, 92, 65
1, 1059405, Note_off_c, 0, 84, 62
1, 1059410, Note_on_c, 0, 82, 70
1, 1059467, Note_off_c, 0, 82, 63
1, 1059472, Note_on_c, 0, 84, 64
1, 1059482, Note_on_c, 0, 48, 10
1, 1059499, Note_on_c, 0, 58, 57
1, 1059526, Note_off_c, 0, 48, 39
1, 1059530, Note_off_c, 0, 58, 65
1, 1059530, Note_off_c, 0, 84, 64
1, 1059539, Note_on_c, 0, 82, 70
1, 1059565, Note_on_c, 0, 64, 56
1, 1059580, Note_off_c, 0, 82, 59
1, 1059595, Note_on_c, 0, 84, 65
1, 1059595, Note_off_c, 0, 64, 64
1, 1059643, Note_off_c, 0, 84, 63
1, 1059660, Note_on_c, 0, 70, 62
1, 1059660, Note_on_c, 0, 82, 71
1, 1059699, Note_off_c, 0, 82, 58
1, 1059704, Note_on_c, 0, 84, 70
1, 1059705, Note_off_c, 0, 70, 60
1, 1059745, Note_on_c, 0, 76, 56
1, 1059765, Note_off_c, 0, 84, 63
1, 1059790, Note_on_c, 0, 91, 93
1, 1059791, Note_off_c, 0, 76, 62
1, 1059802, Note_on_c, 0, 79, 80
1, 1059807, Note_on_c, 0, 67, 62
1, 1059827, Control_c, 0, 67, 127
1, 1059857, Control_c, 0, 67, 126
1, 1059875, Note_on_c, 0, 84, 72
1, 1059886, Note_on_c, 0, 70, 52
1, 1059904, Note_off_c, 0, 67, 62
1, 1059913, Note_off_c, 0, 70, 64
1, 1059917, Note_off_c, 0, 91, 58
1, 1059925, Note_off_c, 0, 79, 53
1, 1059927, Note_off_c, 0, 84, 63
1, 1059931, Control_c, 0, 67, 127
1, 1059933, Note_on_c, 0, 82, 68
1, 1059946, Control_c, 0, 67, 127
1, 1060013, Note_on_c, 0, 84, 62
1, 1060013, Note_off_c, 0, 82, 59
1, 1060091, Note_on_c, 0, 36, 65
1, 1060095, Control_c, 0, 64, 97
1, 1060109, Note_off_c, 0, 84, 60
1, 1060109, Control_c, 0, 64, 80
1, 1060124, Control_c, 0, 64, 70
1, 1060125, Note_on_c, 0, 91, 79
1, 1060144, Note_on_c, 0, 79, 64
1, 1060146, Control_c, 0, 64, 69
1, 1060161, Control_c, 0, 64, 77
1, 1060170, Note_off_c, 0, 36, 63
1, 1060176, Control_c, 0, 64, 96
1, 1060191, Control_c, 0, 64, 127
1, 1060226, Note_off_c, 0, 91, 61
1, 1060259, Note_on_c, 0, 86, 53
1, 1060259, Note_off_c, 0, 79, 61
1, 1060289, Note_off_c, 0, 86, 65
1, 1060317, Note_on_c, 0, 59, 51
1, 1060317, Note_on_c, 0, 81, 57
1, 1060349, Note_off_c, 0, 81, 62
1, 1060349, Note_on_c, 0, 64, 62
1, 1060356, Note_off_c, 0, 59, 64
1, 1060359, Note_on_c, 0, 86, 72
1, 1060378, Note_off_c, 0, 64, 66
1, 1060412, Note_off_c, 0, 86, 64
1, 1060413, Note_on_c, 0, 90, 87
1, 1060425, Note_on_c, 0, 78, 76
1, 1060429, Note_on_c, 0, 69, 43
1, 1060455, Note_off_c, 0, 69, 54
1, 1060476, Note_on_c, 0, 86, 64
1, 1060504, Note_off_c, 0, 90, 64
1, 1060511, Note_on_c, 0, 67, 19
1, 1060534, Note_off_c, 0, 86, 64
1, 1060545, Note_off_c, 0, 67, 54
1, 1060555, Note_off_c, 0, 78, 62
1, 1060675, Note_on_c, 0, 81, 66
1, 1060690, Note_on_c, 0, 57, 56
1, 1060691, Note_on_c, 0, 69, 59
1, 1060709, Note_on_c, 0, 79, 43
1, 1060737, Note_off_c, 0, 79, 36
1, 1060766, Note_on_c, 0, 78, 52
1, 1060771, Note_off_c, 0, 81, 54
1, 1060802, Note_off_c, 0, 69, 57
1, 1060803, Note_off_c, 0, 78, 64
1, 1060806, Note_on_c, 0, 62, 45
1, 1060806, Note_off_c, 0, 57, 58
1, 1060818, Note_on_c, 0, 74, 61
1, 1060848, Note_off_c, 0, 62, 56
1, 1060859, Note_on_c, 0, 66, 51
1, 1060869, Note_off_c, 0, 74, 56
1, 1060891, Note_on_c, 0, 78, 64
1, 1060911, Note_off_c, 0, 66, 58
1, 1060921, Note_on_c, 0, 62, 42
1, 1060955, Note_off_c, 0, 78, 63
1, 1060958, Note_on_c, 0, 83, 82
1, 1060965, Note_off_c, 0, 62, 62
1, 1060969, Note_on_c, 0, 59, 73
1, 1060969, Note_on_c, 0, 71, 69
1, 1061031, Note_on_c, 0, 78, 64
1, 1061055, Note_on_c, 0, 62, 66
1, 1061064, Note_off_c, 0, 78, 64
1, 1061071, Note_on_c, 0, 74, 70
1, 1061079, Note_off_c, 0, 59, 62
1, 1061086, Note_off_c, 0, 83, 61
1, 1061090, Note_off_c, 0, 71, 56
1, 1061097, Note_on_c, 0, 66, 63
1, 1061118, Note_on_c, 0, 78, 66
1, 1061125, Note_off_c, 0, 74, 62
1, 1061153, Note_off_c, 0, 78, 62
1, 1061168, Note_off_c, 0, 66, 57
1, 1061177, Note_on_c, 0, 60, 81
1, 1061191, Note_off_c, 0, 62, 53
1, 1061194, Note_on_c, 0, 84, 90
1, 1061202, Note_on_c, 0, 72, 86
1, 1061221, Control_c, 0, 64, 91
1, 1061236, Control_c, 0, 64, 76
1, 1061251, Control_c, 0, 64, 66
1, 1061265, Control_c, 0, 64, 63
1, 1061270, Note_on_c, 0, 81, 75
1, 1061280, Control_c, 0, 64, 65
1, 1061282, Note_on_c, 0, 66, 65
1, 1061295, Control_c, 0, 64, 67
1, 1061309, Note_off_c, 0, 84, 61
1, 1061309, Control_c, 0, 64, 70
1, 1061320, Note_on_c, 0, 78, 82
1, 1061323, Note_off_c, 0, 72, 63
1, 1061324, Control_c, 0, 64, 77
1, 1061325, Note_off_c, 0, 81, 67
1, 1061329, Note_on_c, 0, 69, 64
1, 1061339, Control_c, 0, 64, 91
1, 1061354, Control_c, 0, 64, 127
1, 1061379, Note_off_c, 0, 66, 0
1, 1061384, Note_on_c, 0, 81, 70
1, 1061391, Note_off_c, 0, 78, 64
1, 1061395, Note_on_c, 0, 66, 31
1, 1061414, Note_off_c, 0, 69, 59
1, 1061435, Note_on_c, 0, 61, 76
1, 1061441, Note_off_c, 0, 66, 60
1, 1061442, Note_on_c, 0, 85, 90
1, 1061443, Control_c, 0, 64, 93
1, 1061446, Note_on_c, 0, 73, 90
1, 1061447, Note_off_c, 0, 81, 65
1, 1061458, Control_c, 0, 64, 74
1, 1061467, Note_off_c, 0, 60, 58
1, 1061472, Control_c, 0, 64, 65
1, 1061487, Control_c, 0, 64, 64
1, 1061502, Control_c, 0, 64, 68
1, 1061517, Control_c, 0, 64, 74
1, 1061521, Note_on_c, 0, 66, 66
1, 1061525, Note_on_c, 0, 81, 73
1, 1061533, Control_c, 0, 64, 91
1, 1061544, Note_on_c, 0, 69, 53
1, 1061548, Control_c, 0, 64, 127
1, 1061563, Note_on_c, 0, 78, 75
1, 1061565, Note_off_c, 0, 69, 61
1, 1061571, Note_off_c, 0, 61, 60
1, 1061571, Note_off_c, 0, 81, 62
1, 1061574, Note_off_c, 0, 66, 59
1, 1061583, Note_off_c, 0, 85, 63
1, 1061627, Note_on_c, 0, 81, 64
1, 1061642, Note_off_c, 0, 73, 57
1, 1061653, Note_off_c, 0, 78, 61
1, 1061711, Note_on_c, 0, 48, 62
1, 1061718, Control_c, 0, 64, 110
1, 1061733, Control_c, 0, 64, 79
1, 1061740, Note_off_c, 0, 81, 64
1, 1061745, Note_on_c, 0, 85, 79
1, 1061747, Control_c, 0, 64, 63
1, 1061750, Note_on_c, 0, 73, 73
1, 1061762, Control_c, 0, 64, 52
1, 1061777, Control_c, 0, 64, 60
1, 1061792, Control_c, 0, 64, 66
1, 1061807, Control_c, 0, 64, 77
1, 1061816, Note_on_c, 0, 56, 57
1, 1061821, Control_c, 0, 64, 127
1, 1061824, Note_off_c, 0, 73, 60
1, 1061837, Note_off_c, 0, 48, 62
1, 1061851, Note_on_c, 0, 83, 70
1, 1061856, Note_off_c, 0, 56, 64
1, 1061866, Note_off_c, 0, 85, 64
1, 1061871, Note_on_c, 0, 59, 55
1, 1061895, Note_off_c, 0, 59, 63
1, 1061895, Note_off_c, 0, 83, 61
1, 1061923, Note_on_c, 0, 77, 44
1, 1061945, Note_on_c, 0, 61, 73
1, 1061947, Note_on_c, 0, 83, 71
1, 1061947, Note_off_c, 0, 77, 52
1, 1061992, Note_on_c, 0, 80, 13
1, 1061996, Note_on_c, 0, 74, 75
1, 1061999, Note_on_c, 0, 62, 67
1, 1062002, Note_on_c, 0, 86, 80
1, 1062007, Note_off_c, 0, 83, 65
1, 1062033, Note_off_c, 0, 80, 29
1, 1062049, Note_on_c, 0, 65, 68
1, 1062062, Note_on_c, 0, 83, 62
1, 1062089, Note_off_c, 0, 62, 62
1, 1062094, Note_on_c, 0, 71, 72
1, 1062101, Note_off_c, 0, 83, 60
1, 1062103, Note_on_c, 0, 77, 74
1, 1062104, Note_off_c, 0, 61, 61
1, 1062114, Note_off_c, 0, 74, 53
1, 1062127, Note_off_c, 0, 86, 59
1, 1062137, Note_on_c, 0, 83, 57
1, 1062148, Note_off_c, 0, 71, 63
1, 1062150, Note_off_c, 0, 65, 62
1, 1062153, Note_off_c, 0, 77, 64
1, 1062172, Note_off_c, 0, 83, 67
1, 1062246, Note_on_c, 0, 65, 68
1, 1062249, Note_on_c, 0, 89, 86
1, 1062259, Note_on_c, 0, 77, 80
1, 1062285, Note_on_c, 0, 71, 52
1, 1062331, Note_on_c, 0, 86, 72
1, 1062344, Note_off_c, 0, 89, 58
1, 1062347, Note_off_c, 0, 71, 61
1, 1062355, Note_off_c, 0, 77, 56
1, 1062356, Note_on_c, 0, 74, 68
1, 1062392, Note_off_c, 0, 86, 63
1, 1062397, Note_off_c, 0, 65, 59
1, 1062405, Note_on_c, 0, 83, 73
1, 1062410, Note_off_c, 0, 74, 58
1, 1062429, Note_on_c, 0, 71, 64
1, 1062462, Note_off_c, 0, 83, 58
1, 1062488, Note_off_c, 0, 71, 63
1, 1062494, Note_on_c, 0, 86, 45
1, 1062502, Note_on_c, 0, 84, 51
1, 1062525, Note_off_c, 0, 84, 54
1, 1062530, Note_off_c, 0, 86, 62
1, 1062535, Note_on_c, 0, 64, 42
1, 1062541, Note_on_c, 0, 88, 87
1, 1062554, Note_on_c, 0, 76, 77
1, 1062563, Note_off_c, 0, 64, 55
1, 1062579, Poly_aftertouch_c, 0, 65, 127
1, 1062585, Note_on_c, 0, 77, 42
1, 1062585, Control_c, 0, 67, 127
1, 1062604, Note_off_c, 0, 76, 51
1, 1062607, Note_on_c, 0, 62, 50
1, 1062607, Poly_aftertouch_c, 0, 65, 0
1, 1062609, Note_off_c, 0, 88, 52
1, 1062612, Note_off_c, 0, 77, 37
1, 1062633, Note_off_c, 0, 62, 63
1, 1062635, Note_on_c, 0, 83, 60
1, 1062659, Control_c, 0, 67, 126
1, 1062674, Note_off_c, 0, 83, 63
1, 1062688, Note_on_c, 0, 77, 58
1, 1062689, Control_c, 0, 67, 125
1, 1062694, Note_on_c, 0, 59, 46
1, 1062701, Note_on_c, 0, 48, 57
1, 1062709, Note_off_c, 0, 77, 61
1, 1062713, Note_on_c, 0, 50, 38
1, 1062730, Note_off_c, 0, 48, 62
1, 1062730, Note_on_c, 0, 83, 61
1, 1062745, Note_off_c, 0, 50, 53
1, 1062757, Note_off_c, 0, 59, 63
1, 1062775, Note_off_c, 0, 83, 63
1, 1062782, Note_on_c, 0, 77, 76
1, 1062789, Note_on_c, 0, 62, 62
1, 1062820, Note_off_c, 0, 62, 65
1, 1062826, Note_off_c, 0, 77, 61
1, 1062847, Note_on_c, 0, 83, 68
1, 1062863, Note_on_c, 0, 65, 69
1, 1062882, Control_c, 0, 67, 125
1, 1062886, Note_off_c, 0, 83, 63
1, 1062900, Note_on_c, 0, 77, 70
1, 1062924, Note_off_c, 0, 65, 61
1, 1062941, Control_c, 0, 67, 124
1, 1062945, Note_on_c, 0, 83, 69
1, 1062950, Note_on_c, 0, 71, 57
1, 1062953, Note_off_c, 0, 77, 61
1, 1062971, Control_c, 0, 67, 124
1, 1063001, Control_c, 0, 67, 123
1, 1063016, Control_c, 0, 67, 122
1, 1063023, Note_on_c, 0, 86, 89
1, 1063028, Note_on_c, 0, 62, 68
1, 1063028, Note_off_c, 0, 83, 64
1, 1063030, Control_c, 0, 67, 122
1, 1063033, Note_on_c, 0, 74, 77
1, 1063039, Note_off_c, 0, 71, 61
1, 1063086, Note_off_c, 0, 62, 64
1, 1063116, Note_on_c, 0, 83, 71
1, 1063119, Control_c, 0, 67, 122
1, 1063142, Control_c, 0, 67, 123
1, 1063150, Note_off_c, 0, 74, 54
1, 1063157, Control_c, 0, 67, 124
1, 1063163, Note_off_c, 0, 86, 59
1, 1063183, Note_off_c, 0, 83, 63
1, 1063184, Note_on_c, 0, 77, 63
1, 1063186, Control_c, 0, 67, 124
1, 1063246, Control_c, 0, 67, 125
1, 1063253, Note_off_c, 0, 77, 62
1, 1063267, Note_on_c, 0, 83, 55
1, 1063288, Note_on_c, 0, 36, 60
1, 1063306, Control_c, 0, 64, 82
1, 1063321, Control_c, 0, 64, 67
1, 1063335, Control_c, 0, 64, 60
1, 1063350, Control_c, 0, 64, 64
1, 1063352, Note_on_c, 0, 86, 74
1, 1063358, Note_off_c, 0, 83, 65
1, 1063365, Control_c, 0, 64, 69
1, 1063369, Note_on_c, 0, 74, 58
1, 1063377, Note_off_c, 0, 36, 63
1, 1063380, Control_c, 0, 64, 77
1, 1063394, Control_c, 0, 64, 98
1, 1063409, Control_c, 0, 64, 127
1, 1063452, Note_off_c, 0, 86, 62
1, 1063463, Note_off_c, 0, 74, 60
1, 1063467, Note_on_c, 0, 81, 62
1, 1063498, Control_c, 0, 67, 124
1, 1063504, Note_on_c, 0, 53, 60
1, 1063511, Note_off_c, 0, 81, 63
1, 1063523, Note_on_c, 0, 76, 70
1, 1063534, Note_on_c, 0, 57, 62
1, 1063539, Note_off_c, 0, 53, 65
1, 1063564, Note_off_c, 0, 57, 66
1, 1063569, Note_off_c, 0, 76, 59
1, 1063576, Note_on_c, 0, 81, 50
1, 1063586, Note_on_c, 0, 60, 56
1, 1063610, Note_off_c, 0, 60, 63
1, 1063616, Control_c, 0, 67, 124
1, 1063625, Note_on_c, 0, 84, 83
1, 1063634, Note_off_c, 0, 81, 63
1, 1063635, Note_on_c, 0, 72, 73
1, 1063646, Control_c, 0, 67, 123
1, 1063666, Note_on_c, 0, 60, 50
1, 1063675, Note_on_c, 0, 83, 19
1, 1063689, Note_on_c, 0, 81, 63
1, 1063714, Note_on_c, 0, 64, 44
1, 1063716, Note_off_c, 0, 83, 30
1, 1063719, Note_off_c, 0, 84, 63
1, 1063735, Control_c, 0, 67, 124
1, 1063747, Note_off_c, 0, 64, 51
1, 1063747, Note_off_c, 0, 81, 64
1, 1063750, Note_off_c, 0, 72, 59
1, 1063764, Note_on_c, 0, 76, 37
1, 1063765, Note_on_c, 0, 69, 59
1, 1063789, Note_off_c, 0, 76, 53
1, 1063791, Note_off_c, 0, 69, 64
1, 1063794, Note_off_c, 0, 60, 63
1, 1063824, Control_c, 0, 67, 124
1, 1063914, Note_on_c, 0, 52, 62
1, 1063917, Note_on_c, 0, 76, 61
1, 1063943, Note_on_c, 0, 64, 60
1, 1064003, Note_on_c, 0, 72, 60
1, 1064043, Note_off_c, 0, 72, 64
1, 1064055, Note_off_c, 0, 64, 55
1, 1064060, Note_on_c, 0, 69, 62
1, 1064061, Note_off_c, 0, 76, 61
1, 1064084, Note_on_c, 0, 60, 47
1, 1064086, Poly_aftertouch_c, 0, 57, 127
1, 1064105, Note_off_c, 0, 52, 64
1, 1064106, Note_off_c, 0, 69, 58
1, 1064114, Control_c, 0, 67, 125
1, 1064121, Note_on_c, 0, 57, 14
1, 1064123, Note_off_c, 0, 60, 64
1, 1064130, Note_on_c, 0, 72, 43
1, 1064143, Control_c, 0, 67, 125
1, 1064151, Note_off_c, 0, 72, 61
1, 1064158, Control_c, 0, 67, 126
1, 1064164, Note_off_c, 0, 57, 63
1, 1064188, Control_c, 0, 67, 127
1, 1064222, Note_on_c, 0, 54, 66
1, 1064232, Note_on_c, 0, 78, 78
1, 1064248, Note_on_c, 0, 66, 60
1, 1064276, Control_c, 0, 64, 115
1, 1064291, Control_c, 0, 64, 89
1, 1064306, Control_c, 0, 64, 75
1, 1064311, Note_on_c, 0, 76, 63
1, 1064321, Control_c, 0, 64, 68
1, 1064328, Note_on_c, 0, 60, 37
1, 1064330, Note_off_c, 0, 66, 56
1, 1064335, Control_c, 0, 64, 66
1, 1064346, Note_on_c, 0, 64, 60
1, 1064346, Note_off_c, 0, 76, 64
1, 1064350, Control_c, 0, 64, 68
1, 1064350, Control_c, 0, 67, 126
1, 1064352, Note_off_c, 0, 78, 62
1, 1064356, Note_on_c, 0, 72, 67
1, 1064360, Note_off_c, 0, 60, 43
1, 1064365, Control_c, 0, 64, 70
1, 1064365, Control_c, 0, 67, 125
1, 1064380, Control_c, 0, 64, 75
1, 1064395, Control_c, 0, 64, 88
1, 1064409, Control_c, 0, 64, 127
1, 1064412, Note_on_c, 0, 76, 71
1, 1064417, Note_off_c, 0, 54, 59
1, 1064421, Note_on_c, 0, 60, 58
1, 1064427, Note_off_c, 0, 64, 57
1, 1064442, Note_off_c, 0, 72, 58
1, 1064459, Note_off_c, 0, 60, 64
1, 1064469, Note_on_c, 0, 56, 75
1, 1064483, Note_on_c, 0, 80, 91
1, 1064489, Note_off_c, 0, 76, 64
1, 1064492, Note_on_c, 0, 68, 82
1, 1064498, Control_c, 0, 64, 88
1, 1064513, Control_c, 0, 64, 70
1, 1064513, Control_c, 0, 67, 126
1, 1064528, Control_c, 0, 64, 62
1, 1064543, Control_c, 0, 64, 64
1, 1064543, Control_c, 0, 67, 127
1, 1064545, Note_on_c, 0, 60, 67
1, 1064552, Note_on_c, 0, 75, 76
1, 1064558, Control_c, 0, 64, 69
1, 1064573, Control_c, 0, 64, 80
1, 1064573, Control_c, 0, 67, 127
1, 1064587, Note_off_c, 0, 56, 58
1, 1064587, Control_c, 0, 64, 127
1, 1064594, Note_on_c, 0, 64, 64
1, 1064596, Note_off_c, 0, 60, 59
1, 1064611, Note_off_c, 0, 75, 63
1, 1064623, Note_on_c, 0, 72, 68
1, 1064624, Note_off_c, 0, 80, 63
1, 1064634, Note_off_c, 0, 68, 60
1, 1064670, Note_on_c, 0, 76, 74
1, 1064671, Note_off_c, 0, 64, 59
1, 1064683, Note_off_c, 0, 72, 62
1, 1064713, Control_c, 0, 64, 94
1, 1064714, Note_on_c, 0, 57, 72
1, 1064714, Note_on_c, 0, 60, 42
1, 1064728, Control_c, 0, 64, 74
1, 1064736, Note_on_c, 0, 81, 91
1, 1064739, Note_off_c, 0, 60, 59
1, 1064741, Note_on_c, 0, 69, 84
1, 1064744, Note_off_c, 0, 76, 64
1, 1064744, Control_c, 0, 64, 63
1, 1064759, Control_c, 0, 64, 62
1, 1064774, Note_on_c, 0, 64, 72
1, 1064774, Control_c, 0, 64, 69
1, 1064788, Control_c, 0, 64, 83
1, 1064797, Note_on_c, 0, 76, 66
1, 1064799, Note_off_c, 0, 64, 68
1, 1064803, Control_c, 0, 64, 127
1, 1064814, Note_off_c, 0, 57, 65
1, 1064825, Note_on_c, 0, 60, 10
1, 1064840, Note_on_c, 0, 72, 51
1, 1064856, Note_off_c, 0, 81, 54
1, 1064859, Note_off_c, 0, 76, 63
1, 1064879, Note_off_c, 0, 60, 36
1, 1064900, Note_on_c, 0, 76, 55
1, 1064908, Note_off_c, 0, 69, 50
1, 1064925, Note_on_c, 0, 41, 75
1, 1064926, Note_off_c, 0, 72, 64
1, 1064962, Note_off_c, 0, 76, 64
1, 1064980, Note_off_c, 0, 41, 62
1, 1064985, Note_on_c, 0, 48, 68
1, 1065020, Note_off_c, 0, 48, 63
1, 1065052, Note_on_c, 0, 59, 72
1, 1065055, Control_c, 0, 64, 100
1, 1065070, Control_c, 0, 64, 81
1, 1065070, Note_on_c, 0, 83, 82
1, 1065085, Note_on_c, 0, 71, 70
1, 1065085, Control_c, 0, 64, 75
1, 1065099, Control_c, 0, 64, 76
1, 1065111, Note_off_c, 0, 59, 62
1, 1065114, Control_c, 0, 64, 80
1, 1065129, Control_c, 0, 64, 86
1, 1065144, Control_c, 0, 64, 95
1, 1065158, Control_c, 0, 64, 117
1, 1065173, Control_c, 0, 64, 127
1, 1065194, Note_on_c, 0, 81, 67
1, 1065196, Note_on_c, 0, 65, 63
1, 1065210, Note_off_c, 0, 71, 57
1, 1065235, Note_off_c, 0, 83, 62
1, 1065246, Note_off_c, 0, 81, 63
1, 1065253, Note_on_c, 0, 77, 70
1, 1065253, Note_off_c, 0, 65, 60
1, 1065277, Note_on_c, 0, 69, 60
1, 1065303, Note_on_c, 0, 81, 67
1, 1065313, Note_off_c, 0, 77, 61
1, 1065336, Note_off_c, 0, 69, 58
1, 1065336, Note_on_c, 0, 65, 59
1, 1065362, Note_on_c, 0, 72, 82
1, 1065362, Note_on_c, 0, 84, 87
1, 1065367, Note_on_c, 0, 60, 83
1, 1065369, Note_off_c, 0, 81, 65
1, 1065388, Control_c, 0, 67, 127
1, 1065391, Note_off_c, 0, 65, 62
1, 1065418, Control_c, 0, 67, 126
1, 1065434, Note_on_c, 0, 81, 68
1, 1065447, Control_c, 0, 67, 125
1, 1065451, Note_on_c, 0, 65, 64
1, 1065462, Control_c, 0, 67, 125
1, 1065477, Control_c, 0, 67, 124
1, 1065479, Note_on_c, 0, 77, 75
1, 1065485, Note_off_c, 0, 84, 61
1, 1065488, Note_off_c, 0, 81, 64
1, 1065500, Note_off_c, 0, 72, 60
1, 1065506, Note_off_c, 0, 65, 62
1, 1065506, Note_on_c, 0, 69, 78
1, 1065506, Control_c, 0, 67, 124
1, 1065520, Note_on_c, 0, 81, 61
1, 1065537, Note_off_c, 0, 77, 63
1, 1065537, Control_c, 0, 67, 122
1, 1065552, Control_c, 0, 67, 122
1, 1065555, Note_off_c, 0, 81, 68
1, 1065568, Note_on_c, 0, 65, 70
1, 1065579, Note_off_c, 0, 69, 61
1, 1065609, Note_on_c, 0, 86, 95
1, 1065615, Note_on_c, 0, 62, 80
1, 1065616, Note_on_c, 0, 74, 89
1, 1065622, Note_off_c, 0, 60, 54
1, 1065626, Control_c, 0, 67, 121
1, 1065639, Note_off_c, 0, 65, 63
1, 1065655, Control_c, 0, 64, 93
1, 1065655, Control_c, 0, 67, 120
1, 1065670, Control_c, 0, 64, 77
1, 1065670, Control_c, 0, 67, 120
1, 1065685, Control_c, 0, 64, 69
1, 1065687, Note_on_c, 0, 81, 74
1, 1065700, Control_c, 0, 64, 68
1, 1065705, Note_on_c, 0, 65, 59
1, 1065715, Control_c, 0, 64, 70
1, 1065715, Control_c, 0, 67, 119
1, 1065729, Control_c, 0, 64, 75
1, 1065735, Note_off_c, 0, 86, 61
1, 1065740, Note_on_c, 0, 77, 82
1, 1065742, Note_off_c, 0, 65, 64
1, 1065742, Note_off_c, 0, 81, 66
1, 1065744, Control_c, 0, 64, 84
1, 1065750, Note_on_c, 0, 69, 71
1, 1065759, Control_c, 0, 64, 106
1, 1065774, Control_c, 0, 64, 127
1, 1065784, Note_off_c, 0, 74, 60
1, 1065802, Note_on_c, 0, 81, 69
1, 1065821, Note_off_c, 0, 69, 59
1, 1065829, Note_on_c, 0, 65, 68
1, 1065831, Note_off_c, 0, 77, 61
1, 1065897, Note_on_c, 0, 60, 68
1, 1065899, Note_on_c, 0, 84, 86
1, 1065901, Note_off_c, 0, 81, 63
1, 1065906, Note_off_c, 0, 65, 59
1, 1065910, Note_on_c, 0, 72, 74
1, 1065937, Control_c, 0, 64, 98
1, 1065952, Control_c, 0, 64, 82
1, 1065967, Control_c, 0, 64, 69
1, 1065974, Note_off_c, 0, 62, 33
1, 1065981, Control_c, 0, 64, 59
1, 1065996, Control_c, 0, 64, 51
1, 1066009, Note_on_c, 0, 65, 49
1, 1066011, Control_c, 0, 64, 56
1, 1066015, Note_on_c, 0, 81, 62
1, 1066026, Control_c, 0, 64, 60
1, 1066026, Control_c, 0, 67, 119
1, 1066041, Control_c, 0, 64, 64
1, 1066048, Note_off_c, 0, 84, 58
1, 1066054, Note_off_c, 0, 81, 62
1, 1066055, Control_c, 0, 64, 69
1, 1066059, Note_on_c, 0, 77, 60
1, 1066061, Note_off_c, 0, 65, 56
1, 1066063, Note_on_c, 0, 69, 51
1, 1066070, Control_c, 0, 64, 79
1, 1066085, Control_c, 0, 64, 104
1, 1066100, Control_c, 0, 64, 127
1, 1066108, Note_off_c, 0, 69, 61
1, 1066112, Note_off_c, 0, 77, 59
1, 1066134, Note_on_c, 0, 65, 40
1, 1066135, Note_on_c, 0, 81, 61
1, 1066152, Control_c, 0, 67, 118
1, 1066184, Note_off_c, 0, 81, 61
1, 1066188, Note_off_c, 0, 65, 58
1, 1066202, Note_on_c, 0, 77, 63
1, 1066231, Note_on_c, 0, 69, 42
1, 1066237, Note_off_c, 0, 77, 64
1, 1066254, Note_on_c, 0, 81, 56
1, 1066260, Note_off_c, 0, 69, 53
1, 1066284, Note_off_c, 0, 72, 28
1, 1066296, Note_off_c, 0, 81, 64
1, 1066315, Control_c, 0, 67, 117
1, 1066318, Note_on_c, 0, 65, 41
1, 1066323, Note_on_c, 0, 77, 63
1, 1066336, Note_off_c, 0, 60, 61
1, 1066354, Note_on_c, 0, 69, 52
1, 1066364, Note_off_c, 0, 65, 53
1, 1066366, Note_off_c, 0, 77, 52
1, 1066394, Note_on_c, 0, 81, 55
1, 1066404, Control_c, 0, 67, 117
1, 1066423, Note_off_c, 0, 69, 58
1, 1066510, Note_off_c, 0, 81, 65
1, 1066513, Note_on_c, 0, 83, 74
1, 1066519, Note_on_c, 0, 57, 45
1, 1066536, Note_on_c, 0, 71, 66
1, 1066620, Note_off_c, 0, 83, 59
1, 1066623, Note_off_c, 0, 57, 62
1, 1066632, Note_on_c, 0, 65, 36
1, 1066664, Note_off_c, 0, 65, 51
1, 1066678, Note_on_c, 0, 72, 62
1, 1066692, Note_off_c, 0, 71, 55
1, 1066713, Note_off_c, 0, 72, 65
1, 1066721, Poly_aftertouch_c, 0, 77, 127
1, 1066777, Note_on_c, 0, 57, 36
1, 1066793, Poly_aftertouch_c, 0, 77, 0
1, 1066802, Note_on_c, 0, 81, 75
1, 1066808, Note_on_c, 0, 50, 63
1, 1066817, Note_on_c, 0, 69, 67
1, 1066898, Note_off_c, 0, 50, 63
1, 1066901, Control_c, 0, 67, 117
1, 1066916, Note_on_c, 0, 77, 70
1, 1066950, Note_off_c, 0, 81, 62
1, 1066951, Note_off_c, 0, 69, 58
1, 1066961, Note_off_c, 0, 57, 62
1, 1066971, Note_on_c, 0, 72, 44
1, 1066982, Note_off_c, 0, 77, 63
1, 1066984, Note_on_c, 0, 60, 4
1, 1066999, Note_off_c, 0, 72, 55
1, 1067016, Note_off_c, 0, 60, 0
1, 1067019, Control_c, 0, 67, 118
1, 1067043, Poly_aftertouch_c, 0, 60, 0
1, 1067053, Note_on_c, 0, 59, 78
1, 1067053, Note_on_c, 0, 83, 85
1, 1067064, Control_c, 0, 67, 119
1, 1067070, Note_on_c, 0, 71, 70
1, 1067132, Note_on_c, 0, 81, 71
1, 1067139, Note_on_c, 0, 65, 58
1, 1067169, Control_c, 0, 67, 119
1, 1067170, Note_off_c, 0, 71, 60
1, 1067172, Note_off_c, 0, 83, 61
1, 1067175, Note_off_c, 0, 65, 62
1, 1067185, Note_on_c, 0, 69, 65
1, 1067187, Note_on_c, 0, 77, 69
1, 1067188, Note_off_c, 0, 81, 63
1, 1067238, Note_on_c, 0, 81, 59
1, 1067244, Note_on_c, 0, 65, 63
1, 1067246, Note_off_c, 0, 69, 56
1, 1067253, Note_off_c, 0, 77, 60
1, 1067279, Note_off_c, 0, 59, 49
1, 1067301, Control_c, 0, 67, 120
1, 1067303, Note_on_c, 0, 60, 69
1, 1067309, Note_off_c, 0, 65, 62
1, 1067316, Control_c, 0, 67, 120
1, 1067323, Note_on_c, 0, 84, 80
1, 1067326, Note_off_c, 0, 81, 65
1, 1067331, Control_c, 0, 64, 98
1, 1067342, Note_on_c, 0, 72, 65
1, 1067346, Control_c, 0, 64, 80
1, 1067361, Control_c, 0, 64, 70
1, 1067375, Control_c, 0, 64, 64
1, 1067390, Control_c, 0, 64, 62
1, 1067405, Control_c, 0, 64, 64
1, 1067413, Note_on_c, 0, 81, 63
1, 1067416, Note_on_c, 0, 65, 53
1, 1067420, Control_c, 0, 64, 66
1, 1067434, Control_c, 0, 64, 70
1, 1067449, Control_c, 0, 64, 81
1, 1067450, Note_off_c, 0, 84, 59
1, 1067456, Note_off_c, 0, 65, 59
1, 1067464, Note_off_c, 0, 81, 63
1, 1067464, Control_c, 0, 64, 108
1, 1067470, Note_on_c, 0, 69, 54
1, 1067479, Note_on_c, 0, 77, 60
1, 1067479, Control_c, 0, 64, 127
1, 1067494, Control_c, 0, 67, 121
1, 1067506, Note_off_c, 0, 69, 62
1, 1067520, Note_off_c, 0, 72, 37
1, 1067525, Note_off_c, 0, 77, 55
1, 1067530, Note_on_c, 0, 65, 34
1, 1067542, Note_on_c, 0, 81, 52
1, 1067568, Control_c, 0, 67, 122
1, 1067583, Note_off_c, 0, 65, 55
1, 1067587, Note_off_c, 0, 60, 58
1, 1067599, Note_on_c, 0, 59, 55
1, 1067633, Note_off_c, 0, 81, 65
1, 1067634, Control_c, 0, 64, 96
1, 1067639, Note_on_c, 0, 83, 72
1, 1067649, Control_c, 0, 64, 83
1, 1067664, Control_c, 0, 64, 81
1, 1067671, Note_on_c, 0, 71, 54
1, 1067679, Control_c, 0, 64, 84
1, 1067691, Note_off_c, 0, 83, 58
1, 1067694, Control_c, 0, 64, 90
1, 1067708, Control_c, 0, 64, 101
1, 1067723, Control_c, 0, 64, 127
1, 1067729, Note_off_c, 0, 71, 53
1, 1067747, Note_on_c, 0, 77, 64
1, 1067756, Note_on_c, 0, 65, 55
1, 1067780, Note_off_c, 0, 77, 63
1, 1067797, Note_on_c, 0, 72, 59
1, 1067804, Note_off_c, 0, 65, 59
1, 1067825, Note_on_c, 0, 60, 52
1, 1067837, Note_off_c, 0, 72, 64
1, 1067862, Note_off_c, 0, 60, 63
1, 1067863, Note_on_c, 0, 77, 63
1, 1067894, Note_off_c, 0, 77, 67
1, 1067899, Note_on_c, 0, 65, 51
1, 1067899, Note_off_c, 0, 59, 26
1, 1067916, Note_on_c, 0, 72, 70
1, 1067938, Note_off_c, 0, 65, 62
1, 1067944, Note_off_c, 0, 72, 67
1, 1067966, Note_on_c, 0, 60, 51
1, 1067975, Note_on_c, 0, 77, 70
1, 1068006, Note_off_c, 0, 77, 65
1, 1068022, Note_on_c, 0, 72, 69
1, 1068041, Note_on_c, 0, 65, 48
1, 1068054, Note_off_c, 0, 72, 59
1, 1068076, Note_on_c, 0, 77, 68
1, 1068093, Note_off_c, 0, 65, 56
1, 1068144, Note_off_c, 0, 77, 61
1, 1068147, Note_on_c, 0, 57, 57
1, 1068155, Note_on_c, 0, 81, 78
1, 1068172, Note_on_c, 0, 69, 63
1, 1068199, Note_on_c, 0, 71, 51
1, 1068213, Control_c, 0, 67, 122
1, 1068224, Note_off_c, 0, 60, 55
1, 1068231, Note_off_c, 0, 71, 48
1, 1068237, Note_off_c, 0, 57, 63
1, 1068245, Note_on_c, 0, 77, 61
1, 1068251, Note_off_c, 0, 69, 54
1, 1068270, Note_off_c, 0, 81, 61
1, 1068274, Note_on_c, 0, 73, 46
1, 1068279, Note_off_c, 0, 77, 63
1, 1068299, Note_off_c, 0, 73, 59
1, 1068317, Note_on_c, 0, 72, 45
1, 1068372, Note_on_c, 0, 45, 56
1, 1068373, Note_off_c, 0, 72, 55
1, 1068394, Note_on_c, 0, 77, 47
1, 1068439, Note_on_c, 0, 52, 41
1, 1068443, Control_c, 0, 67, 123
1, 1068460, Note_off_c, 0, 77, 47
1, 1068472, Control_c, 0, 64, 93
1, 1068487, Control_c, 0, 64, 75
1, 1068488, Note_off_c, 0, 45, 57
1, 1068494, Note_on_c, 0, 81, 69
1, 1068502, Control_c, 0, 64, 66
1, 1068508, Note_on_c, 0, 57, 56
1, 1068514, Note_off_c, 0, 52, 62
1, 1068515, Note_on_c, 0, 69, 55
1, 1068517, Control_c, 0, 64, 65
1, 1068531, Control_c, 0, 64, 67
1, 1068546, Control_c, 0, 64, 69
1, 1068561, Control_c, 0, 64, 73
1, 1068573, Note_off_c, 0, 57, 60
1, 1068576, Control_c, 0, 64, 80
1, 1068591, Control_c, 0, 64, 98
1, 1068606, Control_c, 0, 64, 127
1, 1068666, Note_on_c, 0, 77, 48
1, 1068669, Note_off_c, 0, 81, 57
1, 1068671, Note_on_c, 0, 59, 44
1, 1068692, Note_off_c, 0, 69, 58
1, 1068705, Note_off_c, 0, 77, 61
1, 1068718, Note_off_c, 0, 59, 58
1, 1068731, Note_on_c, 0, 71, 49
1, 1068754, Note_on_c, 0, 65, 54
1, 1068776, Note_off_c, 0, 71, 61
1, 1068788, Note_on_c, 0, 77, 62
1, 1068803, Note_off_c, 0, 65, 53
1, 1068828, Note_on_c, 0, 59, 57
1, 1068858, Note_on_c, 0, 80, 80
1, 1068864, Note_off_c, 0, 77, 61
1, 1068866, Note_off_c, 0, 59, 62
1, 1068874, Note_on_c, 0, 68, 69
1, 1068883, Note_on_c, 0, 56, 62
1, 1068918, Control_c, 0, 67, 124
1, 1068954, Note_on_c, 0, 59, 62
1, 1068958, Note_on_c, 0, 77, 60
1, 1068962, Control_c, 0, 67, 124
1, 1068966, Note_off_c, 0, 68, 54
1, 1068986, Note_off_c, 0, 80, 59
1, 1068992, Note_off_c, 0, 77, 64
1, 1068997, Note_on_c, 0, 71, 68
1, 1069006, Control_c, 0, 67, 125
1, 1069007, Note_off_c, 0, 59, 54
1, 1069020, Note_on_c, 0, 65, 57
1, 1069059, Note_off_c, 0, 71, 62
1, 1069062, Note_on_c, 0, 77, 73
1, 1069066, Control_c, 0, 67, 125
1, 1069077, Note_on_c, 0, 59, 54
1, 1069079, Note_off_c, 0, 65, 57
1, 1069089, Note_off_c, 0, 56, 34
1, 1069095, Control_c, 0, 67, 126
1, 1069110, Control_c, 0, 67, 127
1, 1069131, Note_on_c, 0, 80, 83
1, 1069136, Note_on_c, 0, 68, 81
1, 1069136, Note_off_c, 0, 77, 64
1, 1069143, Note_on_c, 0, 56, 69
1, 1069146, Note_off_c, 0, 59, 62
1, 1069148, Control_c, 0, 67, 127
1, 1069211, Note_on_c, 0, 77, 64
1, 1069214, Note_on_c, 0, 59, 55
1, 1069225, Poly_aftertouch_c, 0, 57, 127
1, 1069229, Note_off_c, 0, 80, 64
1, 1069243, Note_off_c, 0, 68, 58
1, 1069249, Note_off_c, 0, 77, 61
1, 1069253, Note_on_c, 0, 71, 70
1, 1069265, Note_on_c, 0, 65, 63
1, 1069266, Note_off_c, 0, 59, 55
1, 1069268, Note_off_c, 0, 56, 56
1, 1069306, Poly_aftertouch_c, 0, 57, 0
1, 1069312, Note_off_c, 0, 71, 61
1, 1069325, Note_on_c, 0, 77, 46
1, 1069326, Note_on_c, 0, 59, 45
1, 1069327, Note_off_c, 0, 65, 60
1, 1069372, Note_on_c, 0, 79, 95
1, 1069376, Note_on_c, 0, 67, 81
1, 1069380, Note_on_c, 0, 55, 74
1, 1069384, Note_off_c, 0, 77, 42
1, 1069388, Note_off_c, 0, 59, 60
1, 1069431, Note_on_c, 0, 74, 80
1, 1069445, Note_off_c, 0, 67, 60
1, 1069446, Note_off_c, 0, 79, 62
1, 1069458, Note_on_c, 0, 65, 66
1, 1069476, Note_off_c, 0, 55, 61
1, 1069485, Note_on_c, 0, 59, 51
1, 1069489, Note_off_c, 0, 74, 63
1, 1069492, Note_on_c, 0, 70, 80
1, 1069512, Note_off_c, 0, 65, 53
1, 1069557, Note_off_c, 0, 59, 62
1, 1069561, Note_off_c, 0, 70, 62
1, 1069571, Note_on_c, 0, 74, 56
1, 1069575, Note_on_c, 0, 60, 25
1, 1069595, Note_on_c, 0, 54, 81
1, 1069604, Note_off_c, 0, 74, 66
1, 1069607, Note_on_c, 0, 78, 89
1, 1069620, Note_on_c, 0, 66, 83
1, 1069636, Control_c, 0, 64, 101
1, 1069638, Note_off_c, 0, 60, 49
1, 1069651, Control_c, 0, 64, 82
1, 1069651, Control_c, 0, 67, 127
1, 1069666, Control_c, 0, 64, 77
1, 1069667, Note_off_c, 0, 66, 65
1, 1069672, Note_off_c, 0, 78, 65
1, 1069677, Note_on_c, 0, 55, 67
1, 1069681, Control_c, 0, 64, 80
1, 1069681, Control_c, 0, 67, 126
1, 1069695, Control_c, 0, 64, 87
1, 1069708, Note_off_c, 0, 54, 57
1, 1069710, Control_c, 0, 64, 99
1, 1069710, Control_c, 0, 67, 125
1, 1069714, Note_on_c, 0, 59, 64
1, 1069715, Note_on_c, 0, 74, 48
1, 1069725, Control_c, 0, 64, 127
1, 1069735, Note_on_c, 0, 71, 67
1, 1069738, Note_off_c, 0, 74, 60
1, 1069769, Control_c, 0, 67, 125
1, 1069799, Control_c, 0, 67, 124
1, 1069828, Control_c, 0, 67, 124
1, 1069832, Note_on_c, 0, 53, 64
1, 1069843, Note_off_c, 0, 55, 62
1, 1069843, Note_off_c, 0, 59, 29
1, 1069843, Control_c, 0, 64, 103
1, 1069858, Note_on_c, 0, 77, 83
1, 1069858, Control_c, 0, 64, 83
1, 1069861, Note_off_c, 0, 71, 62
1, 1069864, Note_off_c, 0, 53, 65
1, 1069881, Control_c, 0, 64, 75
1, 1069887, Note_on_c, 0, 65, 65
1, 1069895, Control_c, 0, 64, 76
1, 1069896, Note_on_c, 0, 76, 47
1, 1069907, Note_on_c, 0, 64, 35
1, 1069910, Control_c, 0, 64, 85
1, 1069925, Control_c, 0, 64, 112
1, 1069926, Note_off_c, 0, 76, 39
1, 1069932, Note_on_c, 0, 71, 65
1, 1069936, Note_off_c, 0, 77, 60
1, 1069939, Note_off_c, 0, 64, 53
1, 1069940, Control_c, 0, 64, 127
1, 1069974, Note_off_c, 0, 65, 60
1, 1069989, Note_off_c, 0, 71, 64
1, 1069991, Note_on_c, 0, 67, 70
1, 1070014, Control_c, 0, 67, 123
1, 1070022, Note_on_c, 0, 36, 65
1, 1070046, Note_on_c, 0, 71, 62
1, 1070048, Note_off_c, 0, 67, 59
1, 1070060, Note_off_c, 0, 36, 62
1, 1070078, Note_on_c, 0, 43, 55
1, 1070110, Note_off_c, 0, 71, 61
1, 1070116, Note_off_c, 0, 43, 61
1, 1070154, Note_on_c, 0, 53, 61
1, 1070195, Note_on_c, 0, 77, 75
1, 1070212, Note_on_c, 0, 65, 62
1, 1070221, Control_c, 0, 64, 99
1, 1070236, Control_c, 0, 64, 83
1, 1070238, Note_off_c, 0, 53, 55
1, 1070251, Control_c, 0, 64, 72
1, 1070266, Control_c, 0, 64, 66
1, 1070281, Control_c, 0, 64, 66
1, 1070281, Control_c, 0, 67, 122
1, 1070285, Note_on_c, 0, 55, 47
1, 1070295, Control_c, 0, 64, 69
1, 1070310, Control_c, 0, 64, 71
1, 1070310, Control_c, 0, 67, 122
1, 1070317, Note_off_c, 0, 77, 58
1, 1070326, Control_c, 0, 64, 76
1, 1070329, Note_on_c, 0, 72, 49
1, 1070336, Note_off_c, 0, 65, 59
1, 1070341, Control_c, 0, 64, 85
1, 1070356, Control_c, 0, 64, 101
1, 1070366, Note_off_c, 0, 55, 59
1, 1070370, Control_c, 0, 64, 127
1, 1070373, Note_off_c, 0, 72, 66
1, 1070379, Note_on_c, 0, 67, 60
1, 1070383, Note_on_c, 0, 60, 58
1, 1070430, Control_c, 0, 67, 121
1, 1070430, Note_off_c, 0, 67, 54
1, 1070451, Note_off_c, 0, 60, 52
1, 1070452, Note_on_c, 0, 72, 62
1, 1070455, Note_on_c, 0, 55, 49
1, 1070489, Control_c, 0, 67, 120
1, 1070504, Control_c, 0, 64, 104
1, 1070505, Note_off_c, 0, 55, 57
1, 1070506, Note_on_c, 0, 52, 65
1, 1070507, Note_on_c, 0, 76, 81
1, 1070511, Note_off_c, 0, 72, 62
1, 1070518, Control_c, 0, 64, 94
1, 1070525, Note_on_c, 0, 64, 70
1, 1070533, Control_c, 0, 64, 90
1, 1070548, Control_c, 0, 64, 88
1, 1070563, Control_c, 0, 64, 89
1, 1070563, Control_c, 0, 67, 120
1, 1070578, Control_c, 0, 64, 90
1, 1070590, Note_on_c, 0, 72, 58
1, 1070592, Control_c, 0, 64, 93
1, 1070607, Control_c, 0, 64, 97
1, 1070628, Note_on_c, 0, 55, 58
1, 1070630, Note_off_c, 0, 72, 63
1, 1070630, Control_c, 0, 64, 103
1, 1070630, Note_on_c, 0, 60, 51
1, 1070630, Note_off_c, 0, 76, 63
1, 1070642, Note_off_c, 0, 52, 62
1, 1070645, Control_c, 0, 64, 108
1, 1070645, Control_c, 0, 67, 120
1, 1070645, Note_off_c, 0, 64, 61
1, 1070646, Note_on_c, 0, 67, 65
1, 1070660, Control_c, 0, 64, 119
1, 1070660, Control_c, 0, 67, 121
1, 1070674, Control_c, 0, 64, 127
1, 1070710, Note_off_c, 0, 67, 62
1, 1070716, Note_off_c, 0, 60, 62
1, 1070719, Note_on_c, 0, 72, 62
1, 1070719, Control_c, 0, 67, 122
1, 1070748, Note_on_c, 0, 51, 77
1, 1070749, Note_off_c, 0, 55, 62
1, 1070762, Note_on_c, 0, 75, 88
1, 1070764, Control_c, 0, 64, 110
1, 1070770, Note_off_c, 0, 72, 61
1, 1070771, Note_on_c, 0, 63, 78
1, 1070779, Control_c, 0, 64, 95
1, 1070779, Control_c, 0, 67, 122
1, 1070794, Control_c, 0, 64, 82
1, 1070808, Control_c, 0, 64, 74
1, 1070823, Control_c, 0, 64, 70
1, 1070833, Note_on_c, 0, 55, 63
1, 1070838, Control_c, 0, 64, 71
1, 1070852, Control_c, 0, 64, 74
1, 1070857, Note_on_c, 0, 72, 49
1, 1070867, Control_c, 0, 64, 78
1, 1070882, Note_on_c, 0, 67, 69
1, 1070882, Control_c, 0, 64, 85
1, 1070883, Note_off_c, 0, 63, 63
1, 1070884, Note_off_c, 0, 72, 64
1, 1070885, Note_on_c, 0, 60, 67
1, 1070897, Control_c, 0, 64, 96
1, 1070898, Note_off_c, 0, 75, 58
1, 1070912, Control_c, 0, 64, 127
1, 1070921, Note_off_c, 0, 51, 62
1, 1070926, Control_c, 0, 67, 122
1, 1070930, Note_off_c, 0, 55, 0
1, 1070943, Note_on_c, 0, 55, 44
1, 1070953, Note_on_c, 0, 72, 70
1, 1070968, Note_off_c, 0, 60, 64
1, 1070970, Note_off_c, 0, 67, 56
1, 1070971, Control_c, 0, 67, 121
1, 1070987, Note_on_c, 0, 70, 27
1, 1071012, Note_on_c, 0, 76, 90
1, 1071015, Control_c, 0, 64, 104
1, 1071017, Note_on_c, 0, 64, 81
1, 1071017, Note_off_c, 0, 72, 64
1, 1071020, Note_on_c, 0, 52, 80
1, 1071024, Note_off_c, 0, 70, 47
1, 1071029, Note_off_c, 0, 55, 63
1, 1071030, Control_c, 0, 64, 84
1, 1071044, Control_c, 0, 64, 72
1, 1071044, Control_c, 0, 67, 120
1, 1071059, Control_c, 0, 64, 65
1, 1071074, Control_c, 0, 64, 63
1, 1071074, Control_c, 0, 67, 120
1, 1071081, Note_on_c, 0, 72, 61
1, 1071089, Control_c, 0, 64, 65
1, 1071095, Note_on_c, 0, 55, 61
1, 1071104, Control_c, 0, 64, 67
1, 1071120, Control_c, 0, 64, 69
1, 1071126, Note_on_c, 0, 67, 69
1, 1071132, Note_off_c, 0, 76, 59
1, 1071132, Note_off_c, 0, 64, 58
1, 1071135, Control_c, 0, 64, 73
1, 1071139, Note_on_c, 0, 60, 61
1, 1071142, Note_off_c, 0, 72, 59
1, 1071145, Note_off_c, 0, 52, 61
1, 1071149, Control_c, 0, 64, 81
1, 1071149, Control_c, 0, 67, 120
1, 1071164, Control_c, 0, 64, 94
1, 1071179, Control_c, 0, 64, 125
1, 1071190, Note_on_c, 0, 72, 59
1, 1071194, Control_c, 0, 64, 127
1, 1071194, Control_c, 0, 67, 121
1, 1071210, Note_off_c, 0, 67, 62
1, 1071223, Control_c, 0, 67, 122
1, 1071229, Note_off_c, 0, 60, 63
1, 1071238, Control_c, 0, 64, 122
1, 1071238, Control_c, 0, 67, 122
1, 1071251, Note_on_c, 0, 75, 85
1, 1071252, Note_on_c, 0, 51, 85
1, 1071253, Control_c, 0, 64, 93
1, 1071253, Control_c, 0, 67, 124
1, 1071257, Note_off_c, 0, 55, 64
1, 1071262, Poly_aftertouch_c, 0, 70, 127
1, 1071265, Note_on_c, 0, 63, 78
1, 1071265, Note_off_c, 0, 72, 62
1, 1071268, Control_c, 0, 64, 79
1, 1071268, Control_c, 0, 67, 124
1, 1071283, Control_c, 0, 64, 68
1, 1071288, Poly_aftertouch_c, 0, 70, 0
1, 1071297, Control_c, 0, 64, 62
1, 1071297, Control_c, 0, 67, 125
1, 1071312, Control_c, 0, 64, 60
1, 1071327, Control_c, 0, 64, 62
1, 1071330, Note_on_c, 0, 55, 59
1, 1071342, Note_on_c, 0, 72, 57
1, 1071342, Control_c, 0, 64, 65
1, 1071357, Control_c, 0, 64, 68
1, 1071379, Control_c, 0, 64, 76
1, 1071383, Note_off_c, 0, 51, 54
1, 1071387, Note_on_c, 0, 67, 65
1, 1071387, Note_off_c, 0, 72, 64
1, 1071389, Note_off_c, 0, 63, 60
1, 1071391, Note_off_c, 0, 75, 59
1, 1071393, Control_c, 0, 64, 93
1, 1071398, Note_on_c, 0, 60, 65
1, 1071408, Control_c, 0, 64, 127
1, 1071450, Note_off_c, 0, 55, 0
1, 1071453, Control_c, 0, 67, 124
1, 1071459, Note_off_c, 0, 67, 60
1, 1071467, Note_on_c, 0, 55, 34
1, 1071467, Note_on_c, 0, 72, 61
1, 1071476, Note_off_c, 0, 60, 60
1, 1071482, Control_c, 0, 67, 124
1, 1071512, Control_c, 0, 64, 100
1, 1071527, Control_c, 0, 64, 77
1, 1071528, Note_on_c, 0, 52, 69
1, 1071532, Note_on_c, 0, 76, 81
1, 1071533, Note_off_c, 0, 72, 64
1, 1071536, Note_off_c, 0, 55, 59
1, 1071542, Control_c, 0, 64, 62
1, 1071544, Note_on_c, 0, 64, 63
1, 1071557, Control_c, 0, 64, 36
1, 1071572, Control_c, 0, 64, 23
1, 1071587, Control_c, 0, 64, 41
1, 1071601, Control_c, 0, 64, 55
1, 1071601, Control_c, 0, 67, 123
1, 1071607, Note_on_c, 0, 55, 50
1, 1071616, Control_c, 0, 64, 64
1, 1071623, Note_on_c, 0, 72, 61
1, 1071631, Control_c, 0, 64, 73
1, 1071637, Note_off_c, 0, 64, 56
1, 1071646, Control_c, 0, 64, 92
1, 1071657, Note_off_c, 0, 55, 62
1, 1071661, Control_c, 0, 64, 127
1, 1071673, Note_off_c, 0, 72, 54
1, 1071676, Note_on_c, 0, 60, 50
1, 1071682, Note_on_c, 0, 67, 59
1, 1071705, Control_c, 0, 67, 122
1, 1071723, Note_on_c, 0, 72, 45
1, 1071723, Note_off_c, 0, 52, 60
1, 1071730, Note_off_c, 0, 60, 57
1, 1071734, Note_off_c, 0, 67, 57
1, 1071742, Note_on_c, 0, 55, 46
1, 1071751, Note_off_c, 0, 76, 54
1, 1071768, Note_off_c, 0, 72, 61
1, 1071778, Note_off_c, 0, 55, 64
1, 1071853, Control_c, 0, 67, 122
1, 1071898, Note_on_c, 0, 57, 47
1, 1071912, Control_c, 0, 64, 107
1, 1071928, Control_c, 0, 64, 82
1, 1071929, Note_on_c, 0, 81, 67
1, 1071943, Control_c, 0, 64, 67
1, 1071958, Control_c, 0, 64, 54
1, 1071959, Note_on_c, 0, 69, 46
1, 1071972, Control_c, 0, 64, 56
1, 1071987, Control_c, 0, 64, 62
1, 1072002, Control_c, 0, 64, 64
1, 1072006, Note_off_c, 0, 81, 59
1, 1072016, Control_c, 0, 64, 70
1, 1072031, Control_c, 0, 64, 83
1, 1072046, Control_c, 0, 64, 127
1, 1072108, Note_off_c, 0, 69, 59
1, 1072127, Note_on_c, 0, 58, 49
1, 1072128, Note_on_c, 0, 72, 56
1, 1072138, Note_off_c, 0, 57, 55
1, 1072175, Note_off_c, 0, 58, 58
1, 1072175, Note_off_c, 0, 72, 61
1, 1072199, Note_on_c, 0, 64, 51
1, 1072212, Note_on_c, 0, 70, 42
1, 1072238, Note_off_c, 0, 70, 60
1, 1072251, Note_on_c, 0, 72, 62
1, 1072257, Note_off_c, 0, 64, 55
1, 1072286, Note_on_c, 0, 58, 45
1, 1072318, Note_off_c, 0, 58, 62
1, 1072320, Note_off_c, 0, 72, 44
1, 1072324, Note_on_c, 0, 56, 62
1, 1072328, Note_on_c, 0, 80, 75
1, 1072333, Note_on_c, 0, 68, 70
1, 1072350, Control_c, 0, 67, 121
1, 1072392, Note_on_c, 0, 72, 57
1, 1072403, Note_off_c, 0, 68, 57
1, 1072403, Note_off_c, 0, 80, 60
1, 1072409, Note_on_c, 0, 58, 60
1, 1072419, Note_off_c, 0, 56, 54
1, 1072437, Note_off_c, 0, 72, 62
1, 1072443, Note_on_c, 0, 70, 73
1, 1072453, Note_off_c, 0, 58, 58
1, 1072458, Note_on_c, 0, 64, 56
1, 1072483, Control_c, 0, 67, 120
1, 1072490, Note_on_c, 0, 72, 63
1, 1072507, Note_off_c, 0, 70, 62
1, 1072517, Note_off_c, 0, 64, 57
1, 1072537, Note_on_c, 0, 58, 48
1, 1072560, Note_on_c, 0, 56, 62
1, 1072562, Note_on_c, 0, 80, 83
1, 1072572, Note_off_c, 0, 72, 64
1, 1072576, Note_on_c, 0, 68, 72
1, 1072586, Control_c, 0, 67, 120
1, 1072588, Note_off_c, 0, 58, 53
1, 1072623, Note_on_c, 0, 72, 63
1, 1072648, Note_off_c, 0, 80, 62
1, 1072657, Note_on_c, 0, 64, 59
1, 1072657, Note_off_c, 0, 68, 59
1, 1072675, Note_off_c, 0, 56, 62
1, 1072683, Note_off_c, 0, 72, 64
1, 1072688, Note_on_c, 0, 70, 74
1, 1072703, Note_on_c, 0, 58, 62
1, 1072722, Note_off_c, 0, 64, 62
1, 1072742, Note_on_c, 0, 72, 61
1, 1072750, Control_c, 0, 67, 119
1, 1072756, Note_off_c, 0, 70, 62
1, 1072771, Note_on_c, 0, 55, 73
1, 1072784, Note_off_c, 0, 72, 60
1, 1072787, Note_off_c, 0, 58, 62
1, 1072806, Note_off_c, 0, 55, 65
1, 1072809, Control_c, 0, 64, 87
1, 1072812, Note_on_c, 0, 79, 87
1, 1072819, Note_on_c, 0, 67, 82
1, 1072824, Control_c, 0, 64, 71
1, 1072839, Control_c, 0, 64, 63
1, 1072854, Control_c, 0, 64, 62
1, 1072876, Control_c, 0, 64, 66
1, 1072890, Note_off_c, 0, 67, 58
1, 1072891, Control_c, 0, 64, 69
1, 1072891, Control_c, 0, 67, 119
1, 1072892, Note_on_c, 0, 52, 31
1, 1072895, Note_on_c, 0, 72, 65
1, 1072906, Control_c, 0, 64, 78
1, 1072907, Note_off_c, 0, 79, 62
1, 1072920, Control_c, 0, 64, 96
1, 1072924, Note_on_c, 0, 38, 66
1, 1072924, Note_off_c, 0, 72, 66
1, 1072926, Note_off_c, 0, 52, 33
1, 1072934, Note_on_c, 0, 70, 74
1, 1072935, Control_c, 0, 64, 127
1, 1072977, Note_off_c, 0, 38, 58
1, 1072991, Note_off_c, 0, 70, 63
1, 1073003, Note_on_c, 0, 72, 72
1, 1073050, Note_on_c, 0, 48, 14
1, 1073055, Note_off_c, 0, 72, 62
1, 1073059, Note_on_c, 0, 70, 67
1, 1073066, Note_on_c, 0, 52, 61
1, 1073096, Note_off_c, 0, 48, 40
1, 1073096, Note_off_c, 0, 70, 63
1, 1073119, Note_off_c, 0, 52, 62
1, 1073121, Note_on_c, 0, 72, 63
1, 1073155, Note_off_c, 0, 72, 66
1, 1073160, Note_on_c, 0, 54, 63
1, 1073179, Note_on_c, 0, 70, 68
1, 1073202, Note_off_c, 0, 54, 63
1, 1073217, Note_off_c, 0, 70, 60
1, 1073228, Note_on_c, 0, 55, 65
1, 1073232, Control_c, 0, 67, 119
1, 1073293, Poly_aftertouch_c, 0, 72, 127
1, 1073311, Poly_aftertouch_c, 0, 72, 0
1, 1073321, Note_off_c, 0, 55, 46
1, 1073322, Note_on_c, 0, 46, 75
1, 1073351, Control_c, 0, 67, 119
1, 1073352, Note_on_c, 0, 58, 85
1, 1073358, Note_on_c, 0, 70, 70
1, 1073425, Control_c, 0, 67, 119
1, 1073435, Note_on_c, 0, 52, 51
1, 1073456, Note_on_c, 0, 66, 3
1, 1073469, Note_off_c, 0, 52, 65
1, 1073469, Control_c, 0, 67, 120
1, 1073475, Note_on_c, 0, 64, 61
1, 1073485, Note_off_c, 0, 46, 61
1, 1073499, Control_c, 0, 67, 120
1, 1073503, Note_off_c, 0, 66, 44
1, 1073505, Note_on_c, 0, 67, 48
1, 1073530, Note_off_c, 0, 70, 39
1, 1073540, Note_off_c, 0, 64, 60
1, 1073608, Note_off_c, 0, 58, 61
1, 1073677, Note_on_c, 0, 45, 56
1, 1073689, Note_on_c, 0, 36, 44
1, 1073698, Note_off_c, 0, 67, 30
1, 1073700, Control_c, 0, 67, 120
1, 1073730, Control_c, 0, 64, 96
1, 1073744, Control_c, 0, 64, 72
1, 1073745, Note_on_c, 0, 69, 70
1, 1073748, Note_on_c, 0, 57, 62
1, 1073759, Control_c, 0, 64, 59
1, 1073774, Control_c, 0, 64, 36
1, 1073774, Control_c, 0, 67, 119
1, 1073789, Control_c, 0, 64, 37
1, 1073804, Control_c, 0, 64, 49
1, 1073818, Control_c, 0, 64, 57
1, 1073833, Control_c, 0, 64, 65
1, 1073834, Note_off_c, 0, 36, 57
1, 1073848, Control_c, 0, 64, 73
1, 1073863, Control_c, 0, 64, 89
1, 1073876, Note_on_c, 0, 66, 53
1, 1073877, Control_c, 0, 64, 127
1, 1073903, Note_off_c, 0, 45, 59
1, 1073912, Note_on_c, 0, 50, 55
1, 1073923, Note_off_c, 0, 66, 58
1, 1073942, Note_on_c, 0, 62, 56
1, 1073945, Note_off_c, 0, 69, 39
1, 1073954, Note_off_c, 0, 50, 62
1, 1073985, Note_off_c, 0, 57, 47
1, 1073989, Note_off_c, 0, 62, 58
1, 1073990, Note_on_c, 0, 66, 56
1, 1074020, Note_off_c, 0, 66, 66
1, 1074036, Note_on_c, 0, 49, 39
1, 1074040, Control_c, 0, 67, 119
1, 1074075, Note_off_c, 0, 49, 63
1, 1074088, Note_on_c, 0, 47, 66
1, 1074101, Note_on_c, 0, 71, 74
1, 1074114, Note_on_c, 0, 59, 65
1, 1074187, Note_on_c, 0, 54, 55
1, 1074192, Note_on_c, 0, 69, 48
1, 1074202, Note_off_c, 0, 47, 58
1, 1074218, Note_on_c, 0, 66, 63
1, 1074222, Note_off_c, 0, 71, 60
1, 1074225, Note_off_c, 0, 59, 59
1, 1074233, Note_on_c, 0, 57, 57
1, 1074292, Control_c, 0, 67, 118
1, 1074300, Note_off_c, 0, 66, 59
1, 1074308, Note_off_c, 0, 57, 62
1, 1074314, Note_off_c, 0, 69, 60
1, 1074326, Note_off_c, 0, 54, 63
1, 1074331, Note_on_c, 0, 48, 73
1, 1074333, Note_on_c, 0, 72, 79
1, 1074335, Note_on_c, 0, 60, 77
1, 1074419, Control_c, 0, 67, 117
1, 1074427, Note_on_c, 0, 69, 70
1, 1074439, Note_on_c, 0, 54, 66
1, 1074472, Note_off_c, 0, 60, 62
1, 1074475, Note_on_c, 0, 57, 61
1, 1074475, Note_on_c, 0, 66, 66
1, 1074478, Note_off_c, 0, 69, 60
1, 1074482, Note_off_c, 0, 72, 55
1, 1074530, Note_on_c, 0, 69, 55
1, 1074533, Note_off_c, 0, 48, 57
1, 1074555, Note_off_c, 0, 66, 59
1, 1074576, Note_off_c, 0, 57, 60
1, 1074581, Note_on_c, 0, 49, 79
1, 1074585, Note_off_c, 0, 54, 63
1, 1074590, Note_on_c, 0, 73, 89
1, 1074593, Note_on_c, 0, 61, 88
1, 1074597, Note_off_c, 0, 69, 63
1, 1074626, Control_c, 0, 64, 98
1, 1074641, Control_c, 0, 64, 87
1, 1074656, Control_c, 0, 64, 83
1, 1074664, Note_on_c, 0, 69, 61
1, 1074671, Control_c, 0, 64, 84
1, 1074678, Note_on_c, 0, 54, 72
1, 1074686, Control_c, 0, 64, 86
1, 1074700, Control_c, 0, 64, 91
1, 1074706, Note_on_c, 0, 66, 75
1, 1074711, Note_on_c, 0, 57, 65
1, 1074713, Note_off_c, 0, 69, 61
1, 1074713, Note_off_c, 0, 73, 58
1, 1074715, Control_c, 0, 64, 101
1, 1074730, Control_c, 0, 64, 127
1, 1074742, Note_off_c, 0, 49, 61
1, 1074751, Note_off_c, 0, 61, 53
1, 1074757, Note_on_c, 0, 69, 58
1, 1074798, Note_off_c, 0, 66, 61
1, 1074806, Note_off_c, 0, 54, 63
1, 1074816, Note_on_c, 0, 49, 74
1, 1074823, Note_on_c, 0, 73, 89
1, 1074827, Note_off_c, 0, 57, 62
1, 1074833, Control_c, 0, 64, 95
1, 1074835, Note_on_c, 0, 61, 89
1, 1074835, Note_off_c, 0, 69, 62
1, 1074848, Control_c, 0, 64, 75
1, 1074863, Control_c, 0, 64, 66
1, 1074878, Control_c, 0, 64, 65
1, 1074892, Control_c, 0, 64, 69
1, 1074897, Note_on_c, 0, 69, 64
1, 1074901, Note_on_c, 0, 54, 69
1, 1074907, Control_c, 0, 64, 75
1, 1074922, Control_c, 0, 64, 92
1, 1074934, Note_off_c, 0, 49, 60
1, 1074937, Control_c, 0, 64, 127
1, 1074944, Note_off_c, 0, 69, 60
1, 1074946, Note_on_c, 0, 66, 75
1, 1074947, Note_on_c, 0, 57, 71
1, 1074970, Note_off_c, 0, 61, 61
1, 1074985, Note_off_c, 0, 73, 61
1, 1074997, Control_c, 0, 67, 118
1, 1074999, Note_off_c, 0, 54, 56
1, 1075011, Note_on_c, 0, 69, 66
1, 1075055, Note_off_c, 0, 66, 60
1, 1075060, Note_off_c, 0, 57, 54
1, 1075062, Note_on_c, 0, 54, 20
1, 1075076, Note_on_c, 0, 50, 74
1, 1075086, Note_off_c, 0, 54, 59
1, 1075093, Note_on_c, 0, 74, 86
1, 1075097, Note_on_c, 0, 62, 87
1, 1075100, Note_off_c, 0, 69, 64
1, 1075123, Control_c, 0, 67, 117
1, 1075138, Control_c, 0, 64, 86
1, 1075153, Control_c, 0, 64, 68
1, 1075166, Note_on_c, 0, 54, 66
1, 1075168, Control_c, 0, 64, 56
1, 1075182, Note_on_c, 0, 69, 67
1, 1075183, Control_c, 0, 64, 49
1, 1075197, Control_c, 0, 64, 57
1, 1075212, Control_c, 0, 64, 61
1, 1075227, Control_c, 0, 64, 65
1, 1075235, Note_off_c, 0, 69, 61
1, 1075236, Note_on_c, 0, 66, 70
1, 1075238, Note_off_c, 0, 54, 64
1, 1075241, Note_on_c, 0, 57, 63
1, 1075241, Control_c, 0, 64, 70
1, 1075241, Control_c, 0, 67, 117
1, 1075256, Control_c, 0, 64, 82
1, 1075271, Control_c, 0, 64, 127
1, 1075308, Note_off_c, 0, 62, 50
1, 1075310, Note_on_c, 0, 69, 65
1, 1075312, Note_on_c, 0, 54, 59
1, 1075316, Note_off_c, 0, 74, 53
1, 1075332, Note_off_c, 0, 57, 55
1, 1075337, Note_off_c, 0, 66, 59
1, 1075363, Note_off_c, 0, 69, 61
1, 1075377, Note_off_c, 0, 50, 50
1, 1075447, Note_on_c, 0, 53, 65
1, 1075474, Note_off_c, 0, 54, 57
1, 1075510, Note_on_c, 0, 77, 74
1, 1075522, Note_on_c, 0, 65, 62
1, 1075523, Control_c, 0, 64, 100
1, 1075538, Control_c, 0, 64, 78
1, 1075553, Control_c, 0, 64, 64
1, 1075568, Control_c, 0, 64, 49
1, 1075583, Control_c, 0, 64, 45
1, 1075597, Control_c, 0, 64, 54
1, 1075612, Control_c, 0, 64, 59
1, 1075627, Control_c, 0, 64, 63
1, 1075641, Control_c, 0, 64, 70
1, 1075644, Note_on_c, 0, 56, 50
1, 1075648, Note_on_c, 0, 74, 58
1, 1075656, Control_c, 0, 64, 83
1, 1075671, Control_c, 0, 64, 127
1, 1075676, Note_off_c, 0, 77, 56
1, 1075687, Note_off_c, 0, 56, 62
1, 1075697, Note_off_c, 0, 74, 57
1, 1075707, Note_off_c, 0, 53, 59
1, 1075711, Note_on_c, 0, 68, 64
1, 1075712, Note_on_c, 0, 62, 56
1, 1075744, Note_off_c, 0, 65, 36
1, 1075767, Note_off_c, 0, 62, 57
1, 1075776, Note_on_c, 0, 74, 52
1, 1075776, Note_off_c, 0, 68, 58
1, 1075784, Note_on_c, 0, 56, 51
1, 1075805, Control_c, 0, 67, 116
1, 1075828, Note_off_c, 0, 56, 62
1, 1075831, Note_on_c, 0, 52, 67
1, 1075831, Note_off_c, 0, 74, 61
1, 1075838, Note_on_c, 0, 76, 85
1, 1075849, Note_on_c, 0, 64, 78
1, 1075916, Note_off_c, 0, 64, 63
1, 1075921, Note_off_c, 0, 76, 62
1, 1075935, Note_on_c, 0, 53, 63
1, 1075936, Note_on_c, 0, 71, 63
1, 1075937, Note_off_c, 0, 52, 61
1, 1075946, Control_c, 0, 67, 115
1, 1075954, Note_on_c, 0, 59, 66
1, 1075965, Note_on_c, 0, 65, 74
1, 1075969, Note_off_c, 0, 71, 65
1, 1075991, Control_c, 0, 67, 115
1, 1076022, Note_off_c, 0, 65, 62
1, 1076023, Note_off_c, 0, 59, 62
1, 1076026, Note_on_c, 0, 71, 56
1, 1076055, Note_on_c, 0, 52, 69
1, 1076073, Note_off_c, 0, 71, 61
1, 1076085, Note_off_c, 0, 53, 58
1, 1076089, Note_on_c, 0, 76, 86
1, 1076094, Control_c, 0, 67, 114
1, 1076100, Note_on_c, 0, 64, 81
1, 1076141, Note_on_c, 0, 59, 73
1, 1076153, Control_c, 0, 67, 114
1, 1076170, Note_on_c, 0, 71, 73
1, 1076174, Note_off_c, 0, 76, 56
1, 1076182, Note_off_c, 0, 64, 62
1, 1076196, Poly_aftertouch_c, 0, 74, 0
1, 1076203, Note_on_c, 0, 55, 52
1, 1076210, Note_off_c, 0, 59, 60
1, 1076213, Note_on_c, 0, 65, 76
1, 1076216, Note_off_c, 0, 71, 57
1, 1076227, Control_c, 0, 67, 113
1, 1076229, Note_on_c, 0, 53, 71
1, 1076255, Note_off_c, 0, 55, 62
1, 1076270, Note_off_c, 0, 52, 64
1, 1076276, Note_off_c, 0, 53, 58
1, 1076278, Note_off_c, 0, 65, 61
1, 1076283, Note_on_c, 0, 71, 44
1, 1076331, Note_off_c, 0, 71, 64
1, 1076338, Note_on_c, 0, 50, 62
1, 1076340, Note_on_c, 0, 74, 78
1, 1076345, Control_c, 0, 64, 98
1, 1076353, Note_on_c, 0, 62, 78
1, 1076360, Control_c, 0, 64, 74
1, 1076375, Control_c, 0, 64, 61
1, 1076390, Control_c, 0, 64, 57
1, 1076394, Note_off_c, 0, 50, 63
1, 1076405, Control_c, 0, 64, 63
1, 1076419, Control_c, 0, 64, 67
1, 1076422, Note_on_c, 0, 47, 49
1, 1076425, Note_on_c, 0, 71, 72
1, 1076431, Note_off_c, 0, 74, 59
1, 1076434, Control_c, 0, 64, 79
1, 1076437, Note_off_c, 0, 62, 62
1, 1076449, Control_c, 0, 64, 127
1, 1076452, Note_on_c, 0, 36, 64
1, 1076467, Note_off_c, 0, 71, 55
1, 1076471, Note_off_c, 0, 47, 56
1, 1076481, Note_on_c, 0, 65, 66
1, 1076496, Note_on_c, 0, 44, 69
1, 1076518, Note_off_c, 0, 36, 58
1, 1076529, Note_off_c, 0, 65, 60
1, 1076547, Note_on_c, 0, 71, 65
1, 1076564, Note_on_c, 0, 47, 75
1, 1076568, Note_off_c, 0, 44, 61
1, 1076584, Note_off_c, 0, 71, 58
1, 1076605, Note_on_c, 0, 65, 63
1, 1076630, Note_off_c, 0, 47, 59
1, 1076642, Note_off_c, 0, 65, 65
1, 1076666, Note_on_c, 0, 71, 58
1, 1076672, Note_on_c, 0, 49, 62
1, 1076706, Note_off_c, 0, 71, 62
1, 1076717, Note_on_c, 0, 65, 66
1, 1076741, Note_off_c, 0, 49, 60
1, 1076750, Note_on_c, 0, 50, 62
1, 1076765, Note_off_c, 0, 65, 58
1, 1076799, Control_c, 0, 67, 114
1, 1076830, Poly_aftertouch_c, 0, 71, 0
1, 1076848, Poly_aftertouch_c, 0, 71, 0
1, 1076872, Note_on_c, 0, 41, 70
1, 1076884, Note_off_c, 0, 50, 38
1, 1076928, Note_on_c, 0, 53, 75
1, 1076928, Note_on_c, 0, 65, 66
1, 1077030, Note_on_c, 0, 47, 37
1, 1077033, Note_on_c, 0, 62, 58
1, 1077054, Note_off_c, 0, 65, 56
1, 1077067, Note_off_c, 0, 47, 63
1, 1077073, Note_on_c, 0, 59, 62
1, 1077074, Note_off_c, 0, 62, 57
1, 1077086, Note_off_c, 0, 41, 62
1, 1077095, Control_c, 0, 67, 114
1, 1077137, Note_off_c, 0, 53, 56
1, 1077150, Note_off_c, 0, 59, 61
1, 1077154, Note_on_c, 0, 62, 36
1, 1077199, Control_c, 0, 67, 114
1, 1077232, Note_on_c, 0, 36, 60
1, 1077239, Note_on_c, 0, 40, 56
1, 1077244, Control_c, 0, 67, 113
1, 1077259, Control_c, 0, 67, 112
1, 1077274, Control_c, 0, 64, 84
1, 1077288, Note_on_c, 0, 52, 71
1, 1077288, Control_c, 0, 64, 66
1, 1077288, Control_c, 0, 67, 112
1, 1077301, Note_on_c, 0, 64, 60
1, 1077303, Control_c, 0, 64, 51
1, 1077303, Control_c, 0, 67, 111
1, 1077313, Note_off_c, 0, 62, 34
1, 1077318, Control_c, 0, 64, 41
1, 1077333, Control_c, 0, 64, 52
1, 1077348, Control_c, 0, 64, 58
1, 1077348, Control_c, 0, 67, 110
1, 1077370, Control_c, 0, 64, 64
1, 1077384, Control_c, 0, 64, 69
1, 1077384, Control_c, 0, 67, 110
1, 1077399, Control_c, 0, 64, 79
1, 1077399, Control_c, 0, 67, 109
1, 1077414, Control_c, 0, 64, 101
1, 1077414, Control_c, 0, 67, 109
1, 1077426, Note_on_c, 0, 60, 59
1, 1077429, Control_c, 0, 64, 127
1, 1077429, Control_c, 0, 67, 108
1, 1077441, Note_off_c, 0, 36, 51
1, 1077444, Control_c, 0, 67, 107
1, 1077455, Note_off_c, 0, 64, 56
1, 1077459, Control_c, 0, 67, 107
1, 1077468, Note_off_c, 0, 52, 63
1, 1077473, Note_on_c, 0, 45, 43
1, 1077474, Control_c, 0, 67, 105
1, 1077478, Note_off_c, 0, 40, 60
1, 1077483, Note_on_c, 0, 57, 56
1, 1077488, Control_c, 0, 67, 100
1, 1077503, Control_c, 0, 67, 87
1, 1077510, Note_off_c, 0, 60, 35
1, 1077515, Note_off_c, 0, 57, 66
1, 1077519, Control_c, 0, 67, 72
1, 1077524, Note_off_c, 0, 45, 62
1, 1077534, Control_c, 0, 67, 62
1, 1077548, Control_c, 0, 67, 55
1, 1077563, Control_c, 0, 67, 51
1, 1077578, Control_c, 0, 67, 48
1, 1077593, Control_c, 0, 67, 46
1, 1077607, Note_on_c, 0, 42, 65
1, 1077608, Control_c, 0, 67, 44
1, 1077623, Control_c, 0, 67, 41
1, 1077624, Note_on_c, 0, 54, 74
1, 1077634, Note_on_c, 0, 66, 57
1, 1077638, Control_c, 0, 67, 39
1, 1077653, Control_c, 0, 67, 36
1, 1077667, Control_c, 0, 67, 34
1, 1077682, Control_c, 0, 67, 31
1, 1077697, Control_c, 0, 67, 29
1, 1077711, Control_c, 0, 67, 26
1, 1077726, Control_c, 0, 67, 23
1, 1077736, Note_off_c, 0, 54, 61
1, 1077738, Note_on_c, 0, 64, 46
1, 1077739, Note_on_c, 0, 48, 45
1, 1077741, Control_c, 0, 67, 19
1, 1077747, Note_on_c, 0, 60, 60
1, 1077750, Note_off_c, 0, 66, 58
1, 1077754, Note_on_c, 0, 52, 52
1, 1077756, Control_c, 0, 67, 13
1, 1077771, Control_c, 0, 67, 0
1, 1077775, Note_off_c, 0, 42, 52
1, 1077797, Note_off_c, 0, 48, 58
1, 1077858, Note_off_c, 0, 52, 56
1, 1077862, Note_on_c, 0, 44, 57
1, 1077870, Note_off_c, 0, 64, 62
1, 1077873, Note_on_c, 0, 68, 78
1, 1077876, Note_on_c, 0, 56, 81
1, 1077879, Note_off_c, 0, 60, 64
1, 1077915, Note_on_c, 0, 48, 52
1, 1077955, Note_on_c, 0, 64, 54
1, 1077979, Note_off_c, 0, 44, 57
1, 1077981, Note_on_c, 0, 52, 59
1, 1077989, Note_off_c, 0, 48, 60
1, 1077994, Note_off_c, 0, 64, 61
1, 1077997, Note_off_c, 0, 56, 62
1, 1078007, Note_on_c, 0, 60, 68
1, 1078010, Note_off_c, 0, 68, 59
1, 1078066, Note_on_c, 0, 64, 63
1, 1078072, Note_off_c, 0, 60, 58
1, 1078103, Note_off_c, 0, 52, 58
1, 1078141, Note_on_c, 0, 45, 74
1, 1078156, Note_off_c, 0, 64, 62
1, 1078158, Note_on_c, 0, 57, 85
1, 1078159, Note_on_c, 0, 69, 81
1, 1078235, Note_on_c, 0, 64, 58
1, 1078240, Note_on_c, 0, 48, 39
1, 1078272, Note_on_c, 0, 60, 71
1, 1078273, Note_off_c, 0, 64, 55
1, 1078275, Note_off_c, 0, 69, 55
1, 1078294, Note_on_c, 0, 52, 56
1, 1078306, Note_off_c, 0, 57, 57
1, 1078325, Note_off_c, 0, 45, 59
1, 1078333, Poly_aftertouch_c, 0, 64, 127
1, 1078334, Note_off_c, 0, 60, 64
1, 1078356, Poly_aftertouch_c, 0, 64, 0
1, 1078374, Note_off_c, 0, 52, 63
1, 1078416, Note_on_c, 0, 59, 87
1, 1078416, Note_on_c, 0, 71, 87
1, 1078416, Note_on_c, 0, 47, 78
1, 1078431, Note_off_c, 0, 48, 55
1, 1078461, Control_c, 0, 64, 90
1, 1078476, Control_c, 0, 64, 75
1, 1078490, Control_c, 0, 64, 66
1, 1078505, Control_c, 0, 64, 65
1, 1078508, Note_on_c, 0, 52, 64
1, 1078508, Note_on_c, 0, 69, 68
1, 1078520, Control_c, 0, 64, 68
1, 1078535, Control_c, 0, 64, 72
1, 1078550, Control_c, 0, 64, 80
1, 1078553, Note_off_c, 0, 59, 60
1, 1078556, Note_off_c, 0, 71, 54
1, 1078560, Note_on_c, 0, 64, 65
1, 1078565, Control_c, 0, 64, 96
1, 1078568, Note_off_c, 0, 69, 62
1, 1078580, Control_c, 0, 64, 127
1, 1078595, Note_on_c, 0, 57, 58
1, 1078630, Note_off_c, 0, 64, 61
1, 1078634, Note_on_c, 0, 69, 64
1, 1078668, Control_c, 0, 64, 99
1, 1078678, Note_on_c, 0, 48, 79
1, 1078680, Note_on_c, 0, 60, 90
1, 1078683, Note_off_c, 0, 57, 58
1, 1078683, Control_c, 0, 64, 86
1, 1078684, Note_on_c, 0, 72, 86
1, 1078698, Control_c, 0, 64, 78
1, 1078699, Note_off_c, 0, 52, 61
1, 1078700, Note_off_c, 0, 69, 61
1, 1078713, Control_c, 0, 64, 77
1, 1078728, Control_c, 0, 64, 82
1, 1078738, Note_off_c, 0, 47, 37
1, 1078742, Control_c, 0, 64, 93
1, 1078757, Control_c, 0, 64, 127
1, 1078765, Note_on_c, 0, 69, 65
1, 1078794, Note_on_c, 0, 52, 55
1, 1078805, Note_on_c, 0, 64, 71
1, 1078818, Note_off_c, 0, 72, 61
1, 1078819, Note_off_c, 0, 69, 57
1, 1078877, Note_off_c, 0, 52, 65
1, 1078878, Note_on_c, 0, 69, 54
1, 1078886, Note_off_c, 0, 48, 60
1, 1078886, Note_off_c, 0, 60, 53
1, 1078911, Note_off_c, 0, 64, 60
1, 1078977, Poly_aftertouch_c, 0, 66, 127
1, 1079012, Note_on_c, 0, 41, 76
1, 1079031, Control_c, 0, 64, 87
1, 1079041, Note_on_c, 0, 47, 59
1, 1079046, Control_c, 0, 64, 67
1, 1079060, Control_c, 0, 64, 54
1, 1079066, Note_on_c, 0, 71, 75
1, 1079075, Poly_aftertouch_c, 0, 66, 0
1, 1079075, Control_c, 0, 64, 43
1, 1079077, Note_on_c, 0, 59, 67
1, 1079090, Note_off_c, 0, 69, 54
1, 1079090, Control_c, 0, 64, 52
1, 1079106, Control_c, 0, 64, 59
1, 1079121, Control_c, 0, 64, 63
1, 1079136, Control_c, 0, 64, 73
1, 1079151, Control_c, 0, 64, 107
1, 1079165, Control_c, 0, 64, 127
1, 1079184, Note_off_c, 0, 41, 62
1, 1079193, Note_off_c, 0, 47, 52
1, 1079196, Poly_aftertouch_c, 0, 45, 127
1, 1079205, Note_on_c, 0, 69, 66
1, 1079232, Poly_aftertouch_c, 0, 45, 0
1, 1079248, Note_off_c, 0, 69, 60
1, 1079249, Note_off_c, 0, 59, 56
1, 1079256, Note_on_c, 0, 65, 62
1, 1079267, Note_off_c, 0, 71, 58
1, 1079310, Note_on_c, 0, 69, 65
1, 1079320, Note_off_c, 0, 65, 62
1, 1079374, Note_on_c, 0, 48, 80
1, 1079377, Poly_aftertouch_c, 0, 53, 127
1, 1079382, Note_off_c, 0, 69, 42
1, 1079390, Note_on_c, 0, 72, 85
1, 1079397, Note_on_c, 0, 60, 74
1, 1079403, Note_on_c, 0, 62, 77
1, 1079438, Poly_aftertouch_c, 0, 53, 0
1, 1079449, Note_on_c, 0, 53, 53
1, 1079471, Note_on_c, 0, 69, 75
1, 1079514, Note_on_c, 0, 65, 75
1, 1079516, Note_off_c, 0, 60, 59
1, 1079519, Note_on_c, 0, 57, 70
1, 1079521, Note_off_c, 0, 53, 63
1, 1079531, Note_off_c, 0, 72, 60
1, 1079544, Note_off_c, 0, 62, 58
1, 1079573, Note_off_c, 0, 65, 62
1, 1079575, Note_on_c, 0, 53, 59
1, 1079596, Note_off_c, 0, 69, 62
1, 1079617, Note_off_c, 0, 57, 61
1, 1079629, Note_on_c, 0, 50, 79
1, 1079641, Note_off_c, 0, 48, 47
1, 1079649, Note_off_c, 0, 53, 63
1, 1079661, Note_on_c, 0, 74, 94
1, 1079664, Note_on_c, 0, 62, 87
1, 1079724, Note_on_c, 0, 53, 71
1, 1079745, Note_on_c, 0, 69, 66
1, 1079783, Note_off_c, 0, 69, 63
1, 1079785, Note_on_c, 0, 65, 76
1, 1079786, Note_on_c, 0, 57, 70
1, 1079786, Note_off_c, 0, 53, 62
1, 1079787, Note_off_c, 0, 74, 60
1, 1079830, Note_off_c, 0, 62, 58
1, 1079851, Note_on_c, 0, 69, 64
1, 1079859, Note_on_c, 0, 53, 61
1, 1079868, Note_off_c, 0, 57, 60
1, 1079877, Note_off_c, 0, 65, 58
1, 1079909, Note_on_c, 0, 48, 82
1, 1079912, Note_off_c, 0, 50, 58
1, 1079921, Note_on_c, 0, 72, 90
1, 1079925, Note_on_c, 0, 60, 92
1, 1079927, Note_off_c, 0, 69, 45
1, 1079930, Note_off_c, 0, 53, 62
1, 1079957, Control_c, 0, 64, 106
1, 1079972, Control_c, 0, 64, 83
1, 1079987, Control_c, 0, 64, 72
1, 1080002, Control_c, 0, 64, 66
1, 1080013, Note_on_c, 0, 53, 55
1, 1080032, Control_c, 0, 64, 69
1, 1080038, Note_on_c, 0, 69, 62
1, 1080046, Control_c, 0, 64, 72
1, 1080061, Note_off_c, 0, 72, 57
1, 1080061, Control_c, 0, 64, 78
1, 1080067, Note_off_c, 0, 53, 63
1, 1080071, Note_on_c, 0, 57, 66
1, 1080071, Note_on_c, 0, 65, 62
1, 1080072, Note_off_c, 0, 69, 63
1, 1080076, Control_c, 0, 64, 86
1, 1080091, Control_c, 0, 64, 101
1, 1080105, Control_c, 0, 64, 127
1, 1080133, Note_off_c, 0, 57, 63
1, 1080133, Note_off_c, 0, 65, 62
1, 1080136, Note_on_c, 0, 53, 61
1, 1080146, Note_on_c, 0, 69, 70
1, 1080150, Control_c, 0, 64, 97
1, 1080165, Control_c, 0, 64, 84
1, 1080179, Control_c, 0, 64, 75
1, 1080181, Note_off_c, 0, 69, 64
1, 1080194, Control_c, 0, 64, 69
1, 1080202, Note_on_c, 0, 65, 60
1, 1080207, Note_off_c, 0, 53, 63
1, 1080223, Note_on_c, 0, 57, 58
1, 1080224, Control_c, 0, 64, 73
1, 1080239, Control_c, 0, 64, 81
1, 1080251, Note_off_c, 0, 65, 62
1, 1080253, Control_c, 0, 64, 102
1, 1080260, Note_off_c, 0, 57, 62
1, 1080267, Note_on_c, 0, 69, 69
1, 1080268, Control_c, 0, 64, 127
1, 1080279, Note_on_c, 0, 53, 51
1, 1080309, Note_off_c, 0, 69, 62
1, 1080334, Note_on_c, 0, 65, 66
1, 1080362, Note_off_c, 0, 48, 61
1, 1080368, Note_on_c, 0, 57, 55
1, 1080379, Note_off_c, 0, 60, 19
1, 1080380, Note_off_c, 0, 65, 54
1, 1080415, Note_on_c, 0, 69, 62
1, 1080419, Note_off_c, 0, 57, 58
1, 1080488, Note_on_c, 0, 47, 69
1, 1080498, Note_off_c, 0, 69, 58
1, 1080498, Control_c, 0, 64, 93
1, 1080502, Note_on_c, 0, 71, 83
1, 1080508, Note_on_c, 0, 59, 81
1, 1080512, Control_c, 0, 64, 79
1, 1080527, Control_c, 0, 64, 73
1, 1080532, Note_off_c, 0, 53, 42
1, 1080543, Control_c, 0, 64, 76
1, 1080558, Control_c, 0, 64, 83
1, 1080573, Control_c, 0, 64, 94
1, 1080587, Control_c, 0, 64, 127
1, 1080603, Note_off_c, 0, 71, 56
1, 1080616, Note_on_c, 0, 53, 43
1, 1080616, Note_off_c, 0, 47, 56
1, 1080644, Note_on_c, 0, 65, 26
1, 1080661, Note_off_c, 0, 59, 57
1, 1080662, Note_on_c, 0, 60, 60
1, 1080662, Note_on_c, 0, 67, 8
1, 1080666, Note_off_c, 0, 53, 54
1, 1080685, Note_on_c, 0, 48, 53
1, 1080698, Note_off_c, 0, 65, 38
1, 1080708, Note_off_c, 0, 67, 37
1, 1080717, Note_off_c, 0, 60, 59
1, 1080731, Note_on_c, 0, 65, 48
1, 1080753, Note_off_c, 0, 48, 59
1, 1080789, Note_on_c, 0, 45, 43
1, 1080814, Note_on_c, 0, 38, 73
1, 1080840, Control_c, 0, 64, 83
1, 1080848, Note_off_c, 0, 65, 59
1, 1080855, Control_c, 0, 64, 64
1, 1080856, Note_on_c, 0, 69, 66
1, 1080863, Note_on_c, 0, 57, 65
1, 1080870, Control_c, 0, 64, 32
1, 1080884, Control_c, 0, 64, 14
1, 1080899, Control_c, 0, 64, 49
1, 1080914, Control_c, 0, 64, 61
1, 1080929, Control_c, 0, 64, 70
1, 1080944, Control_c, 0, 64, 86
1, 1080956, Note_off_c, 0, 38, 61
1, 1080959, Control_c, 0, 64, 127
1, 1080973, Note_on_c, 0, 65, 63
1, 1081006, Note_off_c, 0, 57, 63
1, 1081010, Note_off_c, 0, 69, 61
1, 1081020, Note_off_c, 0, 45, 62
1, 1081024, Note_on_c, 0, 60, 52
1, 1081032, Note_on_c, 0, 48, 33
1, 1081045, Note_off_c, 0, 65, 59
1, 1081050, Note_off_c, 0, 60, 62
1, 1081066, Note_off_c, 0, 48, 47
1, 1081130, Note_on_c, 0, 71, 82
1, 1081140, Note_on_c, 0, 59, 74
1, 1081141, Note_on_c, 0, 47, 69
1, 1081215, Note_on_c, 0, 69, 65
1, 1081242, Note_off_c, 0, 71, 59
1, 1081247, Note_off_c, 0, 59, 57
1, 1081251, Note_off_c, 0, 69, 62
1, 1081264, Note_on_c, 0, 65, 68
1, 1081289, Note_on_c, 0, 57, 54
1, 1081333, Note_off_c, 0, 65, 61
1, 1081334, Note_on_c, 0, 69, 60
1, 1081343, Note_off_c, 0, 47, 53
1, 1081361, Note_off_c, 0, 57, 56
1, 1081382, Note_on_c, 0, 48, 66
1, 1081386, Note_off_c, 0, 69, 55
1, 1081393, Note_on_c, 0, 72, 79
1, 1081396, Control_c, 0, 64, 110
1, 1081402, Note_on_c, 0, 60, 71
1, 1081410, Control_c, 0, 64, 92
1, 1081425, Control_c, 0, 64, 84
1, 1081440, Control_c, 0, 64, 79
1, 1081447, Poly_aftertouch_c, 0, 53, 0
1, 1081454, Control_c, 0, 64, 78
1, 1081465, Note_on_c, 0, 53, 28
1, 1081466, Note_on_c, 0, 69, 60
1, 1081469, Control_c, 0, 64, 81
1, 1081484, Control_c, 0, 64, 84
1, 1081495, Note_off_c, 0, 72, 57
1, 1081499, Control_c, 0, 64, 88
1, 1081514, Note_off_c, 0, 69, 61
1, 1081514, Note_off_c, 0, 48, 54
1, 1081515, Control_c, 0, 64, 94
1, 1081524, Note_on_c, 0, 57, 46
1, 1081528, Note_on_c, 0, 65, 54
1, 1081530, Control_c, 0, 64, 103
1, 1081531, Note_off_c, 0, 60, 52
1, 1081545, Control_c, 0, 64, 127
1, 1081584, Note_off_c, 0, 57, 55
1, 1081585, Note_off_c, 0, 65, 58
1, 1081612, Note_on_c, 0, 69, 52
1, 1081644, Note_on_c, 0, 47, 57
1, 1081653, Note_off_c, 0, 69, 64
1, 1081656, Note_off_c, 0, 53, 41
1, 1081663, Control_c, 0, 64, 117
1, 1081665, Note_on_c, 0, 71, 68
1, 1081677, Control_c, 0, 64, 112
1, 1081690, Note_on_c, 0, 59, 63
1, 1081692, Control_c, 0, 64, 113
1, 1081699, Note_off_c, 0, 71, 58
1, 1081707, Control_c, 0, 64, 117
1, 1081722, Control_c, 0, 64, 127
1, 1081763, Note_off_c, 0, 59, 60
1, 1081779, Note_on_c, 0, 65, 48
1, 1081796, Note_on_c, 0, 53, 45
1, 1081799, Note_on_c, 0, 48, 40
1, 1081823, Note_off_c, 0, 65, 59
1, 1081839, Note_on_c, 0, 60, 45
1, 1081880, Note_off_c, 0, 53, 55
1, 1081886, Note_off_c, 0, 60, 62
1, 1081894, Note_off_c, 0, 48, 0
1, 1081918, Note_on_c, 0, 65, 47
1, 1081931, Poly_aftertouch_c, 0, 48, 127
1, 1081960, Note_off_c, 0, 65, 63
1, 1081973, Note_off_c, 0, 47, 39
1, 1081977, Note_on_c, 0, 60, 57
1, 1081980, Poly_aftertouch_c, 0, 48, 0
1, 1081984, Note_on_c, 0, 53, 44
1, 1082011, Note_off_c, 0, 60, 64
1, 1082045, Note_on_c, 0, 65, 53
1, 1082067, Note_off_c, 0, 53, 55
1, 1082079, Note_off_c, 0, 65, 63
1, 1082084, Note_on_c, 0, 60, 62
1, 1082102, Note_on_c, 0, 48, 39
1, 1082126, Note_off_c, 0, 60, 64
1, 1082166, Note_on_c, 0, 65, 48
1, 1082212, Note_off_c, 0, 65, 60
1, 1082223, Note_on_c, 0, 45, 55
1, 1082234, Note_on_c, 0, 69, 76
1, 1082261, Note_on_c, 0, 57, 52
1, 1082289, Note_off_c, 0, 48, 0
1, 1082303, Note_on_c, 0, 59, 21
1, 1082308, Note_on_c, 0, 48, 20
1, 1082335, Note_on_c, 0, 65, 54
1, 1082342, Note_off_c, 0, 59, 49
1, 1082344, Note_off_c, 0, 57, 58
1, 1082367, Note_off_c, 0, 65, 64
1, 1082370, Note_on_c, 0, 53, 45
1, 1082373, Note_off_c, 0, 45, 49
1, 1082375, Note_on_c, 0, 60, 58
1, 1082386, Note_off_c, 0, 69, 33
1, 1082404, Note_off_c, 0, 53, 62
1, 1082443, Note_off_c, 0, 60, 54
1, 1082455, Note_on_c, 0, 65, 58
1, 1082510, Note_off_c, 0, 48, 38
1, 1082535, Note_off_c, 0, 65, 57
1, 1082635, Note_on_c, 0, 57, 58
1, 1082662, Note_on_c, 0, 50, 32
1, 1082671, Control_c, 0, 64, 120
1, 1082673, Note_on_c, 0, 43, 47
1, 1082686, Control_c, 0, 64, 88
1, 1082699, Note_on_c, 0, 69, 68
1, 1082701, Control_c, 0, 64, 72
1, 1082715, Control_c, 0, 64, 60
1, 1082730, Control_c, 0, 64, 43
1, 1082745, Control_c, 0, 64, 43
1, 1082760, Control_c, 0, 64, 53
1, 1082775, Control_c, 0, 64, 61
1, 1082789, Control_c, 0, 64, 69
1, 1082801, Note_off_c, 0, 50, 55
1, 1082803, Note_off_c, 0, 43, 60
1, 1082804, Control_c, 0, 64, 83
1, 1082819, Control_c, 0, 64, 127
1, 1082863, Note_on_c, 0, 65, 39
1, 1082904, Note_off_c, 0, 57, 60
1, 1082941, Note_off_c, 0, 65, 61
1, 1082946, Note_on_c, 0, 53, 53
1, 1082971, Note_on_c, 0, 59, 47
1, 1082986, Note_off_c, 0, 69, 60
1, 1082990, Note_off_c, 0, 53, 59
1, 1083027, Note_on_c, 0, 50, 46
1, 1083057, Note_off_c, 0, 59, 52
1, 1083072, Note_off_c, 0, 50, 58
1, 1083074, Note_on_c, 0, 65, 44
1, 1083099, Note_on_c, 0, 53, 54
1, 1083151, Note_on_c, 0, 68, 74
1, 1083154, Note_off_c, 0, 53, 60
1, 1083161, Note_off_c, 0, 65, 60
1, 1083169, Note_on_c, 0, 56, 61
1, 1083246, Note_on_c, 0, 53, 61
1, 1083251, Note_on_c, 0, 65, 52
1, 1083262, Note_off_c, 0, 56, 56
1, 1083298, Note_off_c, 0, 65, 61
1, 1083311, Note_off_c, 0, 53, 61
1, 1083318, Note_on_c, 0, 59, 53
1, 1083322, Note_on_c, 0, 50, 58
1, 1083364, Note_off_c, 0, 68, 60
1, 1083388, Note_off_c, 0, 59, 61
1, 1083394, Note_on_c, 0, 53, 53
1, 1083400, Note_on_c, 0, 65, 60
1, 1083401, Note_off_c, 0, 50, 56
1, 1083451, Note_off_c, 0, 65, 55
1, 1083457, Note_on_c, 0, 68, 90
1, 1083460, Note_on_c, 0, 56, 76
1, 1083461, Note_off_c, 0, 53, 63
1, 1083520, Note_on_c, 0, 53, 55
1, 1083527, Note_on_c, 0, 65, 67
1, 1083546, Note_off_c, 0, 56, 62
1, 1083585, Note_off_c, 0, 53, 63
1, 1083586, Note_on_c, 0, 50, 73
1, 1083603, Note_off_c, 0, 65, 61
1, 1083606, Note_on_c, 0, 59, 67
1, 1083635, Note_off_c, 0, 68, 60
1, 1083663, Note_on_c, 0, 53, 61
1, 1083667, Note_on_c, 0, 65, 57
1, 1083670, Note_off_c, 0, 50, 60
1, 1083677, Note_off_c, 0, 59, 63
1, 1083726, Note_on_c, 0, 55, 84
1, 1083728, Note_off_c, 0, 53, 62
1, 1083730, Note_on_c, 0, 67, 90
1, 1083746, Note_off_c, 0, 65, 58
1, 1083802, Note_on_c, 0, 53, 66
1, 1083811, Note_on_c, 0, 65, 66
1, 1083832, Note_off_c, 0, 55, 60
1, 1083850, Note_on_c, 0, 50, 78
1, 1083862, Note_off_c, 0, 53, 63
1, 1083868, Note_off_c, 0, 65, 62
1, 1083874, Note_on_c, 0, 59, 71
1, 1083897, Note_off_c, 0, 67, 60
1, 1083915, Note_on_c, 0, 65, 50
1, 1083928, Note_off_c, 0, 50, 63
1, 1083936, Note_off_c, 0, 59, 63
1, 1083939, Note_on_c, 0, 53, 49
1, 1083951, Note_off_c, 0, 65, 65
1, 1083962, Note_off_c, 0, 53, 60
1, 1083990, Note_on_c, 0, 66, 94
1, 1084005, Note_on_c, 0, 54, 83
1, 1084071, Note_off_c, 0, 66, 59
1, 1084083, Note_on_c, 0, 50, 62
1, 1084089, Note_on_c, 0, 60, 54
1, 1084094, Note_off_c, 0, 54, 63
1, 1084105, Note_on_c, 0, 59, 63
1, 1084141, Note_off_c, 0, 59, 52
1, 1084150, Note_off_c, 0, 60, 65
1, 1084161, Note_on_c, 0, 43, 70
1, 1084164, Note_off_c, 0, 50, 64
1, 1084165, Note_on_c, 0, 55, 78
1, 1084235, Note_on_c, 0, 59, 88
1, 1084240, Poly_aftertouch_c, 0, 57, 127
1, 1084243, Note_on_c, 0, 50, 71
1, 1084246, Note_off_c, 0, 55, 59
1, 1084263, Note_off_c, 0, 43, 56
1, 1084270, Poly_aftertouch_c, 0, 57, 0
1, 1084305, Note_off_c, 0, 59, 65
1, 1084306, Note_on_c, 0, 65, 95
1, 1084320, Note_off_c, 0, 50, 63
1, 1084325, Note_on_c, 0, 53, 84
1, 1084390, Note_on_c, 0, 59, 92
1, 1084414, Note_off_c, 0, 53, 59
1, 1084418, Note_on_c, 0, 50, 74
1, 1084419, Note_off_c, 0, 65, 57
1, 1084460, Note_off_c, 0, 59, 63
1, 1084473, Note_on_c, 0, 55, 89
1, 1084474, Note_on_c, 0, 43, 73
1, 1084475, Note_off_c, 0, 50, 64
1, 1084553, Note_on_c, 0, 59, 83
1, 1084561, Note_on_c, 0, 50, 73
1, 1084562, Note_off_c, 0, 55, 61
1, 1084573, Note_off_c, 0, 43, 60
1, 1084589, Note_off_c, 0, 50, 65
1, 1084592, Note_off_c, 0, 59, 60
1, 1084752, Note_on_c, 0, 36, 81
1, 1084764, Note_on_c, 0, 43, 67
1, 1084772, Note_on_c, 0, 55, 71
1, 1084774, Note_on_c, 0, 52, 97
1, 1084774, Note_on_c, 0, 64, 100
1, 1084786, Note_on_c, 0, 60, 76
1, 1084822, Control_c, 0, 64, 72
1, 1084837, Control_c, 0, 64, 36
1, 1084858, Control_c, 0, 64, 0
1, 1084947, Control_c, 0, 64, 50
1, 1084962, Control_c, 0, 64, 64
1, 1084977, Control_c, 0, 64, 76
1, 1084992, Control_c, 0, 64, 117
1, 1085007, Control_c, 0, 64, 127
1, 1085042, Note_off_c, 0, 36, 54
1, 1085063, Note_off_c, 0, 43, 60
1, 1085082, Note_off_c, 0, 52, 57
1, 1085140, Note_off_c, 0, 55, 61
1, 1085147, Note_off_c, 0, 60, 35
1, 1085305, Note_on_c, 0, 43, 49
1, 1085347, Note_on_c, 0, 55, 59
1, 1085388, Note_off_c, 0, 64, 52
1, 1085429, Note_on_c, 0, 60, 58
1, 1085445, Note_on_c, 0, 48, 52
1, 1085459, Note_off_c, 0, 55, 58
1, 1085504, Note_off_c, 0, 60, 64
1, 1085506, Note_off_c, 0, 48, 61
1, 1085520, Note_on_c, 0, 64, 55
1, 1085526, Note_on_c, 0, 52, 52
1, 1085579, Note_on_c, 0, 60, 60
1, 1085600, Note_off_c, 0, 64, 55
1, 1085607, Note_on_c, 0, 48, 52
1, 1085615, Note_off_c, 0, 52, 56
1, 1085699, Note_on_c, 0, 47, 62
1, 1085700, Note_off_c, 0, 48, 61
1, 1085705, Note_on_c, 0, 59, 81
1, 1085706, Note_off_c, 0, 60, 62
1, 1085811, Note_on_c, 0, 48, 62
1, 1085817, Note_on_c, 0, 60, 59
1, 1085835, Note_off_c, 0, 43, 36
1, 1085867, Note_off_c, 0, 48, 62
1, 1085872, Note_off_c, 0, 60, 64
1, 1085877, Note_on_c, 0, 52, 63
1, 1085886, Note_on_c, 0, 64, 58
1, 1085955, Note_on_c, 0, 60, 71
1, 1085964, Note_on_c, 0, 48, 64
1, 1085967, Note_off_c, 0, 59, 61
1, 1085972, Note_off_c, 0, 52, 60
1, 1085985, Note_off_c, 0, 64, 55
1, 1086035, Note_on_c, 0, 45, 77
1, 1086035, Note_off_c, 0, 48, 63
1, 1086038, Note_off_c, 0, 47, 46
1, 1086046, Note_on_c, 0, 57, 93
1, 1086056, Note_off_c, 0, 60, 61
1, 1086107, Note_on_c, 0, 48, 66
1, 1086129, Note_on_c, 0, 60, 66
1, 1086165, Note_off_c, 0, 48, 61
1, 1086175, Note_on_c, 0, 52, 66
1, 1086185, Note_off_c, 0, 60, 64
1, 1086191, Note_on_c, 0, 64, 66
1, 1086211, Note_off_c, 0, 57, 60
1, 1086241, Note_off_c, 0, 52, 64
1, 1086243, Note_on_c, 0, 48, 69
1, 1086250, Note_on_c, 0, 60, 67
1, 1086253, Note_off_c, 0, 64, 63
1, 1086255, Note_off_c, 0, 45, 61
1, 1086311, Note_on_c, 0, 44, 84
1, 1086312, Note_off_c, 0, 48, 63
1, 1086313, Note_on_c, 0, 56, 97
1, 1086324, Note_off_c, 0, 60, 62
1, 1086384, Note_on_c, 0, 48, 70
1, 1086399, Note_on_c, 0, 60, 68
1, 1086443, Note_off_c, 0, 60, 63
1, 1086446, Note_off_c, 0, 56, 59
1, 1086452, Note_on_c, 0, 52, 73
1, 1086452, Note_off_c, 0, 48, 62
1, 1086456, Note_on_c, 0, 64, 63
1, 1086484, Note_off_c, 0, 44, 61
1, 1086515, Note_on_c, 0, 60, 68
1, 1086523, Note_off_c, 0, 64, 60
1, 1086527, Note_on_c, 0, 48, 62
1, 1086531, Note_off_c, 0, 52, 64
1, 1086575, Note_off_c, 0, 60, 52
1, 1086578, Note_on_c, 0, 55, 91
1, 1086579, Note_on_c, 0, 43, 76
1, 1086587, Note_off_c, 0, 48, 61
1, 1086639, Note_on_c, 0, 48, 61
1, 1086661, Note_on_c, 0, 60, 77
1, 1086693, Note_off_c, 0, 48, 63
1, 1086697, Note_on_c, 0, 52, 81
1, 1086716, Note_on_c, 0, 64, 69
1, 1086738, Note_off_c, 0, 55, 59
1, 1086753, Note_on_c, 0, 48, 66
1, 1086753, Note_off_c, 0, 52, 66
1, 1086771, Note_off_c, 0, 43, 61
1, 1086774, Note_off_c, 0, 64, 59
1, 1086775, Note_off_c, 0, 60, 56
1, 1086782, Note_off_c, 0, 48, 67
1, 1086836, Note_on_c, 0, 55, 99
1, 1086836, Note_on_c, 0, 67, 97
1, 1086838, Note_on_c, 0, 64, 76
1, 1086843, Note_on_c, 0, 60, 75
1, 1086958, Note_off_c, 0, 55, 61
1, 1086965, Note_off_c, 0, 67, 60
1, 1086978, Note_off_c, 0, 64, 58
1, 1086983, Note_off_c, 0, 60, 56
1, 1087018, Note_on_c, 0, 41, 95
1, 1087022, Note_on_c, 0, 29, 83
1, 1087049, Note_on_c, 0, 69, 96
1, 1087055, Note_on_c, 0, 57, 92
1, 1087056, Note_on_c, 0, 60, 80
1, 1087059, Note_on_c, 0, 65, 76
1, 1087081, Control_c, 0, 64, 71
1, 1087105, Control_c, 0, 64, 22
1, 1087120, Control_c, 0, 64, 0
1, 1087179, Note_off_c, 0, 29, 60
1, 1087179, Control_c, 0, 64, 47
1, 1087194, Control_c, 0, 64, 67
1, 1087209, Control_c, 0, 64, 84
1, 1087224, Control_c, 0, 64, 127
1, 1087248, Note_off_c, 0, 41, 62
1, 1087287, Note_off_c, 0, 57, 60
1, 1087315, Note_off_c, 0, 60, 63
1, 1087368, Note_off_c, 0, 65, 54
1, 1087479, Note_on_c, 0, 48, 57
1, 1087486, Note_off_c, 0, 69, 41
1, 1087490, Note_on_c, 0, 60, 61
1, 1087573, Note_on_c, 0, 53, 64
1, 1087579, Note_on_c, 0, 65, 62
1, 1087580, Note_off_c, 0, 60, 61
1, 1087631, Note_off_c, 0, 53, 61
1, 1087639, Note_on_c, 0, 57, 69
1, 1087642, Note_off_c, 0, 65, 62
1, 1087648, Note_on_c, 0, 69, 70
1, 1087709, Note_on_c, 0, 53, 72
1, 1087712, Note_on_c, 0, 65, 69
1, 1087719, Note_off_c, 0, 57, 60
1, 1087723, Note_off_c, 0, 69, 59
1, 1087774, Note_off_c, 0, 65, 59
1, 1087790, Note_on_c, 0, 64, 89
1, 1087791, Note_on_c, 0, 52, 84
1, 1087810, Note_off_c, 0, 53, 62
1, 1087811, Note_off_c, 0, 48, 60
1, 1087876, Note_on_c, 0, 65, 77
1, 1087883, Note_on_c, 0, 53, 76
1, 1087931, Note_off_c, 0, 65, 62
1, 1087937, Note_on_c, 0, 69, 81
1, 1087943, Note_on_c, 0, 57, 68
1, 1087949, Note_off_c, 0, 53, 63
1, 1087968, Note_off_c, 0, 64, 62
1, 1087999, Note_on_c, 0, 65, 78
1, 1088006, Note_off_c, 0, 69, 63
1, 1088011, Note_on_c, 0, 53, 67
1, 1088023, Note_off_c, 0, 52, 61
1, 1088026, Note_off_c, 0, 57, 62
1, 1088053, Note_off_c, 0, 65, 59
1, 1088072, Note_on_c, 0, 50, 84
1, 1088074, Note_on_c, 0, 62, 92
1, 1088082, Note_off_c, 0, 53, 63
1, 1088143, Note_on_c, 0, 65, 69
1, 1088148, Note_on_c, 0, 53, 71
1, 1088196, Note_on_c, 0, 69, 82
1, 1088199, Note_on_c, 0, 57, 73
1, 1088199, Note_off_c, 0, 65, 63
1, 1088204, Note_off_c, 0, 53, 63
1, 1088216, Note_off_c, 0, 62, 58
1, 1088257, Note_off_c, 0, 69, 64
1, 1088258, Note_on_c, 0, 53, 60
1, 1088265, Note_on_c, 0, 65, 57
1, 1088282, Note_off_c, 0, 65, 67
1, 1088283, Note_off_c, 0, 50, 61
1, 1088283, Note_off_c, 0, 57, 63
1, 1088328, Control_c, 0, 64, 83
1, 1088341, Note_on_c, 0, 48, 88
1, 1088343, Control_c, 0, 64, 60
1, 1088348, Note_off_c, 0, 53, 65
1, 1088350, Note_on_c, 0, 60, 87
1, 1088351, Note_on_c, 0, 72, 91
1, 1088354, Note_on_c, 0, 59, 85
1, 1088357, Note_on_c, 0, 71, 85
1, 1088358, Control_c, 0, 64, 58
1, 1088373, Control_c, 0, 64, 69
1, 1088375, Note_off_c, 0, 59, 71
1, 1088376, Note_off_c, 0, 60, 66
1, 1088388, Control_c, 0, 64, 92
1, 1088399, Note_off_c, 0, 72, 59
1, 1088402, Control_c, 0, 64, 127
1, 1088423, Note_off_c, 0, 71, 52
1, 1088427, Note_on_c, 0, 65, 70
1, 1088437, Note_on_c, 0, 53, 79
1, 1088440, Note_off_c, 0, 48, 61
1, 1088475, Note_off_c, 0, 65, 62
1, 1088494, Note_off_c, 0, 53, 63
1, 1088498, Note_on_c, 0, 57, 73
1, 1088506, Note_on_c, 0, 69, 77
1, 1088534, Note_off_c, 0, 57, 67
1, 1088550, Note_on_c, 0, 55, 70
1, 1088560, Note_off_c, 0, 69, 61
1, 1088575, Note_off_c, 0, 55, 63
1, 1088609, Note_on_c, 0, 64, 38
1, 1088644, Note_on_c, 0, 41, 92
1, 1088645, Note_on_c, 0, 53, 80
1, 1088648, Note_off_c, 0, 64, 45
1, 1088650, Note_on_c, 0, 55, 68
1, 1088670, Note_off_c, 0, 53, 65
1, 1088675, Note_off_c, 0, 41, 68
1, 1088695, Note_off_c, 0, 55, 62
1, 1088722, Note_on_c, 0, 65, 78
1, 1088772, Note_on_c, 0, 57, 70
1, 1088780, Note_off_c, 0, 65, 63
1, 1088784, Note_on_c, 0, 53, 3
1, 1088788, Note_on_c, 0, 69, 82
1, 1088807, Note_off_c, 0, 57, 64
1, 1088819, Note_off_c, 0, 53, 50
1, 1088845, Note_on_c, 0, 65, 81
1, 1088868, Note_off_c, 0, 69, 63
1, 1088895, Note_off_c, 0, 65, 63
1, 1088968, Note_on_c, 0, 45, 95
1, 1088973, Note_on_c, 0, 33, 86
1, 1088989, Control_c, 0, 64, 78
1, 1089004, Control_c, 0, 64, 0
1, 1089025, Note_on_c, 0, 57, 74
1, 1089057, Note_off_c, 0, 33, 63
1, 1089063, Control_c, 0, 64, 24
1, 1089065, Note_off_c, 0, 57, 64
1, 1089078, Control_c, 0, 64, 63
1, 1089092, Control_c, 0, 64, 102
1, 1089093, Note_off_c, 0, 45, 64
1, 1089107, Control_c, 0, 64, 127
1, 1089129, Note_on_c, 0, 69, 72
1, 1089156, Note_off_c, 0, 69, 68
1, 1089214, Note_on_c, 0, 57, 63
1, 1089216, Note_on_c, 0, 72, 51
1, 1089221, Note_on_c, 0, 71, 56
1, 1089239, Note_on_c, 0, 69, 78
1, 1089250, Note_off_c, 0, 71, 64
1, 1089255, Note_off_c, 0, 72, 63
1, 1089293, Note_off_c, 0, 69, 62
1, 1089296, Note_on_c, 0, 64, 82
1, 1089299, Note_on_c, 0, 52, 81
1, 1089299, Note_off_c, 0, 57, 64
1, 1089365, Note_on_c, 0, 69, 80
1, 1089373, Note_on_c, 0, 57, 68
1, 1089388, Note_off_c, 0, 64, 60
1, 1089418, Note_off_c, 0, 69, 64
1, 1089428, Note_on_c, 0, 72, 73
1, 1089429, Note_off_c, 0, 57, 65
1, 1089432, Note_on_c, 0, 60, 74
1, 1089480, Note_on_c, 0, 69, 90
1, 1089483, Note_on_c, 0, 57, 81
1, 1089497, Note_off_c, 0, 72, 64
1, 1089500, Note_off_c, 0, 60, 65
1, 1089512, Note_off_c, 0, 52, 61
1, 1089523, Note_off_c, 0, 69, 66
1, 1089540, Note_off_c, 0, 57, 65
1, 1089636, Note_on_c, 0, 57, 91
1, 1089641, Note_on_c, 0, 76, 103
1, 1089645, Note_on_c, 0, 64, 102
1, 1089648, Note_on_c, 0, 69, 91
1, 1089648, Note_on_c, 0, 72, 91
1, 1089728, Note_off_c, 0, 69, 59
1, 1089802, Note_off_c, 0, 64, 57
1, 1089804, Note_on_c, 0, 60, 66
1, 1089812, Note_off_c, 0, 57, 54
1, 1089818, Note_on_c, 0, 69, 70
1, 1089820, Note_off_c, 0, 72, 61
1, 1089840, Note_off_c, 0, 76, 60
1, 1089860, Note_off_c, 0, 69, 51
1, 1089871, Note_off_c, 0, 60, 63
1, 1089876, Note_on_c, 0, 57, 43
1, 1089880, Note_on_c, 0, 72, 65
1, 1089935, Note_on_c, 0, 69, 79
1, 1089938, Note_off_c, 0, 72, 62
1, 1089988, Note_on_c, 0, 60, 47
1, 1089995, Note_off_c, 0, 69, 62
1, 1089997, Note_off_c, 0, 57, 61
1, 1090005, Note_on_c, 0, 67, 91
1, 1090025, Note_on_c, 0, 55, 83
1, 1090027, Note_off_c, 0, 60, 64
1, 1090080, Note_on_c, 0, 69, 84
1, 1090112, Note_off_c, 0, 67, 52
1, 1090113, Note_on_c, 0, 57, 75
1, 1090137, Note_off_c, 0, 69, 64
1, 1090140, Note_on_c, 0, 72, 75
1, 1090156, Note_on_c, 0, 60, 73
1, 1090164, Note_off_c, 0, 57, 64
1, 1090199, Note_on_c, 0, 69, 78
1, 1090203, Note_off_c, 0, 72, 63
1, 1090229, Note_on_c, 0, 57, 67
1, 1090235, Note_off_c, 0, 60, 62
1, 1090239, Note_off_c, 0, 55, 58
1, 1090260, Note_off_c, 0, 69, 62
1, 1090271, Note_on_c, 0, 65, 93
1, 1090274, Note_on_c, 0, 53, 75
1, 1090291, Note_off_c, 0, 57, 64
1, 1090349, Note_on_c, 0, 69, 87
1, 1090358, Note_on_c, 0, 57, 76
1, 1090378, Note_off_c, 0, 65, 56
1, 1090406, Note_off_c, 0, 69, 62
1, 1090414, Note_on_c, 0, 72, 82
1, 1090423, Note_off_c, 0, 57, 64
1, 1090425, Note_on_c, 0, 60, 77
1, 1090471, Note_on_c, 0, 69, 73
1, 1090496, Note_on_c, 0, 57, 74
1, 1090502, Note_off_c, 0, 53, 63
1, 1090502, Note_off_c, 0, 72, 57
1, 1090512, Note_off_c, 0, 60, 61
1, 1090527, Note_off_c, 0, 69, 64
1, 1090531, Note_on_c, 0, 64, 88
1, 1090539, Note_on_c, 0, 52, 86
1, 1090557, Note_off_c, 0, 57, 64
1, 1090599, Note_on_c, 0, 69, 71
1, 1090602, Note_off_c, 0, 64, 64
1, 1090605, Note_on_c, 0, 57, 70
1, 1090620, Note_on_c, 0, 72, 70
1, 1090624, Note_off_c, 0, 69, 68
1, 1090641, Note_off_c, 0, 72, 65
1, 1090676, Note_on_c, 0, 60, 86
1, 1090680, Note_off_c, 0, 57, 60
1, 1090720, Note_on_c, 0, 57, 66
1, 1090743, Note_off_c, 0, 60, 66
1, 1090744, Note_on_c, 0, 72, 13
1, 1090769, Note_off_c, 0, 52, 58
1, 1090778, Note_off_c, 0, 57, 65
1, 1090786, Note_off_c, 0, 72, 54
1, 1090826, Note_on_c, 0, 76, 79
1, 1090827, Note_on_c, 0, 72, 89
1, 1090827, Note_on_c, 0, 81, 100
1, 1090828, Note_on_c, 0, 69, 109
1, 1090918, Note_off_c, 0, 72, 64
1, 1090918, Note_off_c, 0, 76, 65
1, 1090945, Note_off_c, 0, 81, 64
1, 1090968, Note_off_c, 0, 69, 66
1, 1091056, Note_on_c, 0, 37, 95
1, 1091061, Note_on_c, 0, 25, 93
1, 1091083, Note_on_c, 0, 79, 103
1, 1091084, Note_on_c, 0, 67, 102
1, 1091087, Note_on_c, 0, 70, 93
1, 1091091, Note_on_c, 0, 76, 76
1, 1091130, Control_c, 0, 64, 83
1, 1091145, Control_c, 0, 64, 46
1, 1091160, Control_c, 0, 64, 0
1, 1091249, Control_c, 0, 64, 32
1, 1091264, Control_c, 0, 64, 66
1, 1091264, Note_off_c, 0, 25, 62
1, 1091278, Control_c, 0, 64, 106
1, 1091293, Control_c, 0, 64, 127
1, 1091322, Note_off_c, 0, 37, 63
1, 1091342, Note_off_c, 0, 79, 57
1, 1091356, Note_off_c, 0, 76, 62
1, 1091422, Note_off_c, 0, 70, 56
1, 1091424, Note_off_c, 0, 67, 55
1, 1091569, Note_on_c, 0, 55, 74
1, 1091595, Note_on_c, 0, 67, 82
1, 1091705, Note_on_c, 0, 70, 76
1, 1091706, Note_on_c, 0, 58, 68
1, 1091711, Note_off_c, 0, 67, 60
1, 1091772, Note_off_c, 0, 58, 62
1, 1091784, Note_on_c, 0, 64, 75
1, 1091786, Note_off_c, 0, 70, 64
1, 1091791, Note_on_c, 0, 76, 78
1, 1091851, Note_off_c, 0, 55, 61
1, 1091858, Note_on_c, 0, 58, 70
1, 1091861, Note_off_c, 0, 64, 63
1, 1091867, Note_on_c, 0, 70, 82
1, 1091878, Note_off_c, 0, 76, 63
1, 1091884, Note_off_c, 0, 58, 69
1, 1091916, Note_off_c, 0, 70, 62
1, 1091982, Note_on_c, 0, 58, 82
1, 1092015, Note_on_c, 0, 71, 70
1, 1092020, Note_on_c, 0, 72, 66
1, 1092096, Note_off_c, 0, 72, 57
1, 1092097, Note_on_c, 0, 64, 64
1, 1092098, Note_on_c, 0, 76, 68
1, 1092098, Note_off_c, 0, 71, 60
1, 1092155, Note_off_c, 0, 58, 55
1, 1092158, Note_on_c, 0, 67, 72
1, 1092159, Note_off_c, 0, 64, 63
1, 1092166, Note_off_c, 0, 76, 64
1, 1092169, Note_on_c, 0, 79, 76
1, 1092226, Note_on_c, 0, 76, 75
1, 1092232, Note_on_c, 0, 64, 60
1, 1092232, Note_off_c, 0, 67, 60
1, 1092254, Note_off_c, 0, 79, 59
1, 1092287, Note_on_c, 0, 57, 76
1, 1092289, Note_off_c, 0, 76, 67
1, 1092292, Note_off_c, 0, 64, 63
1, 1092307, Note_on_c, 0, 69, 91
1, 1092386, Note_on_c, 0, 70, 83
1, 1092391, Note_off_c, 0, 69, 61
1, 1092396, Note_on_c, 0, 58, 70
1, 1092414, Note_off_c, 0, 57, 61
1, 1092446, Note_off_c, 0, 70, 64
1, 1092447, Note_on_c, 0, 64, 71
1, 1092450, Note_on_c, 0, 76, 79
1, 1092509, Note_on_c, 0, 70, 82
1, 1092510, Note_off_c, 0, 64, 61
1, 1092533, Note_off_c, 0, 76, 56
1, 1092573, Note_on_c, 0, 68, 98
1, 1092575, Note_off_c, 0, 70, 63
1, 1092577, Note_on_c, 0, 56, 90
1, 1092590, Note_off_c, 0, 58, 63
1, 1092641, Note_on_c, 0, 58, 66
1, 1092643, Note_on_c, 0, 70, 80
1, 1092656, Note_off_c, 0, 68, 57
1, 1092677, Note_off_c, 0, 56, 62
1, 1092704, Note_off_c, 0, 70, 64
1, 1092706, Note_on_c, 0, 76, 77
1, 1092709, Note_on_c, 0, 64, 73
1, 1092769, Note_on_c, 0, 70, 81
1, 1092773, Note_off_c, 0, 64, 62
1, 1092791, Note_off_c, 0, 76, 58
1, 1092809, Note_on_c, 0, 55, 81
1, 1092821, Note_off_c, 0, 58, 58
1, 1092838, Note_on_c, 0, 67, 93
1, 1092839, Note_off_c, 0, 70, 60
1, 1092878, Note_on_c, 0, 58, 64
1, 1092888, Note_on_c, 0, 64, 80
1, 1092907, Note_on_c, 0, 70, 84
1, 1092917, Note_off_c, 0, 64, 67
1, 1092934, Note_off_c, 0, 67, 59
1, 1092936, Note_off_c, 0, 55, 63
1, 1092939, Note_off_c, 0, 58, 65
1, 1092972, Note_off_c, 0, 70, 65
1, 1092976, Note_on_c, 0, 76, 83
1, 1093049, Note_on_c, 0, 36, 73
1, 1093049, Note_on_c, 0, 70, 79
1, 1093066, Note_on_c, 0, 38, 70
1, 1093070, Note_on_c, 0, 44, 58
1, 1093092, Note_off_c, 0, 36, 64
1, 1093107, Note_off_c, 0, 38, 64
1, 1093108, Note_off_c, 0, 76, 58
1, 1093138, Note_on_c, 0, 67, 89
1, 1093138, Note_off_c, 0, 44, 62
1, 1093146, Note_on_c, 0, 53, 67
1, 1093146, Note_off_c, 0, 70, 62
1, 1093165, Note_on_c, 0, 55, 53
1, 1093167, Note_off_c, 0, 53, 65
1, 1093186, Note_off_c, 0, 55, 62
1, 1093216, Note_on_c, 0, 69, 82
1, 1093219, Note_off_c, 0, 67, 60
1, 1093234, Note_on_c, 0, 57, 77
1, 1093267, Note_off_c, 0, 69, 64
1, 1093273, Note_on_c, 0, 74, 85
1, 1093282, Note_off_c, 0, 57, 60
1, 1093294, Note_on_c, 0, 62, 70
1, 1093337, Note_on_c, 0, 69, 83
1, 1093351, Note_off_c, 0, 74, 62
1, 1093357, Note_off_c, 0, 62, 62
1, 1093380, Note_on_c, 0, 53, 86
1, 1093383, Note_on_c, 0, 57, 49
1, 1093389, Note_off_c, 0, 69, 64
1, 1093391, Note_on_c, 0, 65, 83
1, 1093403, Note_off_c, 0, 57, 63
1, 1093458, Note_on_c, 0, 69, 83
1, 1093458, Poly_aftertouch_c, 0, 59, 0
1, 1093463, Note_on_c, 0, 57, 85
1, 1093496, Note_off_c, 0, 65, 54
1, 1093526, Note_off_c, 0, 57, 64
1, 1093526, Note_on_c, 0, 76, 81
1, 1093529, Note_on_c, 0, 62, 80
1, 1093537, Note_on_c, 0, 74, 73
1, 1093553, Note_off_c, 0, 74, 59
1, 1093568, Note_on_c, 0, 57, 62
1, 1093573, Note_off_c, 0, 53, 61
1, 1093576, Note_off_c, 0, 69, 61
1, 1093578, Note_off_c, 0, 62, 65
1, 1093578, Note_off_c, 0, 76, 65
1, 1093601, Note_off_c, 0, 57, 66
1, 1093658, Control_c, 0, 64, 95
1, 1093672, Note_on_c, 0, 57, 91
1, 1093673, Control_c, 0, 64, 71
1, 1093675, Note_on_c, 0, 77, 103
1, 1093676, Note_on_c, 0, 65, 107
1, 1093684, Note_on_c, 0, 74, 84
1, 1093687, Note_on_c, 0, 69, 80
1, 1093687, Control_c, 0, 64, 62
1, 1093694, Note_on_c, 0, 59, 47
1, 1093702, Control_c, 0, 64, 67
1, 1093705, Note_off_c, 0, 69, 73
1, 1093717, Control_c, 0, 64, 79
1, 1093721, Note_off_c, 0, 65, 67
1, 1093731, Note_off_c, 0, 59, 37
1, 1093732, Control_c, 0, 64, 127
1, 1093776, Note_off_c, 0, 77, 63
1, 1093805, Note_on_c, 0, 62, 61
1, 1093809, Note_on_c, 0, 77, 76
1, 1093813, Note_off_c, 0, 74, 65
1, 1093825, Note_off_c, 0, 57, 59
1, 1093862, Note_on_c, 0, 65, 74
1, 1093902, Note_on_c, 0, 74, 82
1, 1093906, Note_off_c, 0, 77, 63
1, 1093925, Note_off_c, 0, 65, 57
1, 1093974, Note_off_c, 0, 74, 56
1, 1093976, Note_on_c, 0, 56, 93
1, 1093977, Note_on_c, 0, 68, 92
1, 1094024, Note_off_c, 0, 68, 63
1, 1094031, Note_on_c, 0, 60, 62
1, 1094051, Note_on_c, 0, 72, 88
1, 1094051, Note_off_c, 0, 62, 34
1, 1094095, Note_on_c, 0, 65, 77
1, 1094119, Note_off_c, 0, 56, 61
1, 1094119, Note_off_c, 0, 65, 69
1, 1094119, Note_on_c, 0, 77, 89
1, 1094121, Note_off_c, 0, 72, 66
1, 1094124, Note_off_c, 0, 60, 64
1, 1094187, Note_on_c, 0, 72, 89
1, 1094194, Note_off_c, 0, 77, 62
1, 1094243, Control_c, 0, 64, 79
1, 1094258, Control_c, 0, 64, 46
1, 1094265, Note_on_c, 0, 67, 94
1, 1094267, Note_on_c, 0, 55, 102
1, 1094273, Control_c, 0, 64, 0
1, 1094275, Note_on_c, 0, 43, 87
1, 1094286, Note_off_c, 0, 72, 59
1, 1094289, Note_on_c, 0, 45, 74
1, 1094289, Control_c, 0, 64, 54
1, 1094300, Note_on_c, 0, 46, 47
1, 1094304, Control_c, 0, 64, 70
1, 1094306, Note_off_c, 0, 43, 68
1, 1094310, Note_off_c, 0, 45, 64
1, 1094310, Note_off_c, 0, 55, 64
1, 1094318, Control_c, 0, 64, 127
1, 1094334, Note_off_c, 0, 46, 36
1, 1094356, Note_on_c, 0, 71, 90
1, 1094361, Note_off_c, 0, 67, 60
1, 1094429, Note_off_c, 0, 71, 62
1, 1094438, Note_on_c, 0, 77, 98
1, 1094443, Note_on_c, 0, 65, 91
1, 1094517, Note_on_c, 0, 71, 92
1, 1094520, Note_off_c, 0, 65, 56
1, 1094524, Note_off_c, 0, 77, 60
1, 1094569, Note_off_c, 0, 71, 65
1, 1094597, Note_on_c, 0, 53, 97
1, 1094612, Note_on_c, 0, 65, 95
1, 1094656, Note_off_c, 0, 65, 65
1, 1094692, Note_on_c, 0, 55, 83
1, 1094700, Note_off_c, 0, 53, 62
1, 1094703, Note_on_c, 0, 67, 92
1, 1094763, Note_off_c, 0, 67, 65
1, 1094795, Note_on_c, 0, 59, 97
1, 1094797, Note_on_c, 0, 71, 98
1, 1094854, Note_off_c, 0, 71, 64
1, 1094878, Note_off_c, 0, 55, 60
1, 1094920, Note_on_c, 0, 52, 101
1, 1094934, Note_on_c, 0, 64, 105
1, 1094934, Note_on_c, 0, 76, 103
1, 1094939, Note_off_c, 0, 59, 64
1, 1094966, Note_on_c, 0, 72, 51
1, 1094974, Note_off_c, 0, 52, 71
1, 1094990, Note_off_c, 0, 72, 63
1, 1095132, Note_off_c, 0, 76, 59
1, 1095157, Note_off_c, 0, 64, 58
1, 1095283, Note_on_c, 0, 36, 104
1, 1095285, Note_on_c, 0, 24, 96
1, 1095287, Note_on_c, 0, 67, 92
1, 1095288, Note_on_c, 0, 64, 107
1, 1095288, Note_on_c, 0, 76, 106
1, 1095294, Note_on_c, 0, 72, 83
1, 1095329, Note_on_c, 0, 70, 40
1, 1095341, Control_c, 0, 64, 103
1, 1095356, Control_c, 0, 64, 67
1, 1095371, Control_c, 0, 64, 0
1, 1095425, Note_off_c, 0, 70, 0
1, 1095459, Control_c, 0, 64, 41
1, 1095461, Poly_aftertouch_c, 0, 70, 127
1, 1095474, Control_c, 0, 64, 64
1, 1095489, Control_c, 0, 64, 83
1, 1095492, Note_off_c, 0, 24, 59
1, 1095504, Control_c, 0, 64, 127
1, 1095551, Note_off_c, 0, 76, 59
1, 1095567, Note_off_c, 0, 36, 57
1, 1095573, Note_off_c, 0, 64, 52
1, 1095583, Note_off_c, 0, 72, 55
1, 1095619, Note_off_c, 0, 67, 58
1, 1095627, Poly_aftertouch_c, 0, 70, 0
1, 1095860, Note_on_c, 0, 43, 72
1, 1095873, Note_on_c, 0, 55, 90
1, 1095975, Note_on_c, 0, 48, 65
1, 1096006, Note_on_c, 0, 60, 68
1, 1096009, Note_off_c, 0, 55, 61
1, 1096051, Note_off_c, 0, 48, 62
1, 1096054, Note_on_c, 0, 52, 66
1, 1096087, Note_off_c, 0, 60, 63
1, 1096100, Note_on_c, 0, 64, 67
1, 1096143, Note_on_c, 0, 48, 69
1, 1096155, Note_off_c, 0, 52, 61
1, 1096170, Note_on_c, 0, 60, 73
1, 1096178, Note_off_c, 0, 64, 61
1, 1096204, Note_off_c, 0, 43, 51
1, 1096259, Note_on_c, 0, 47, 81
1, 1096275, Note_off_c, 0, 48, 59
1, 1096286, Note_on_c, 0, 59, 96
1, 1096304, Note_off_c, 0, 60, 59
1, 1096334, Note_on_c, 0, 64, 33
1, 1096361, Note_off_c, 0, 64, 55
1, 1096373, Note_on_c, 0, 48, 74
1, 1096406, Note_on_c, 0, 60, 64
1, 1096440, Note_on_c, 0, 52, 69
1, 1096442, Note_off_c, 0, 48, 62
1, 1096456, Note_on_c, 0, 64, 60
1, 1096462, Note_off_c, 0, 60, 64
1, 1096527, Note_on_c, 0, 48, 67
1, 1096530, Note_off_c, 0, 59, 63
1, 1096534, Note_on_c, 0, 60, 66
1, 1096535, Note_off_c, 0, 52, 61
1, 1096547, Note_off_c, 0, 64, 57
1, 1096570, Note_off_c, 0, 47, 54
1, 1096608, Note_off_c, 0, 48, 63
1, 1096613, Note_on_c, 0, 45, 83
1, 1096626, Note_on_c, 0, 57, 102
1, 1096641, Note_off_c, 0, 60, 57
1, 1096668, Note_on_c, 0, 64, 49
1, 1096693, Note_off_c, 0, 64, 63
1, 1096695, Note_on_c, 0, 48, 74
1, 1096718, Note_on_c, 0, 60, 65
1, 1096754, Note_off_c, 0, 48, 62
1, 1096763, Note_on_c, 0, 52, 71
1, 1096767, Note_on_c, 0, 64, 68
1, 1096777, Note_off_c, 0, 60, 63
1, 1096790, Note_off_c, 0, 57, 58
1, 1096838, Note_off_c, 0, 52, 64
1, 1096840, Note_on_c, 0, 60, 62
1, 1096843, Note_on_c, 0, 48, 70
1, 1096844, Note_off_c, 0, 64, 65
1, 1096856, Note_off_c, 0, 45, 62
1, 1096908, Note_on_c, 0, 44, 95
1, 1096910, Note_on_c, 0, 56, 103
1, 1096924, Note_off_c, 0, 48, 63
1, 1096924, Note_off_c, 0, 60, 62
1, 1096993, Note_on_c, 0, 48, 67
1, 1097002, Note_on_c, 0, 60, 60
1, 1097025, Note_off_c, 0, 56, 59
1, 1097046, Note_off_c, 0, 44, 59
1, 1097055, Note_on_c, 0, 52, 75
1, 1097058, Note_off_c, 0, 48, 63
1, 1097059, Note_off_c, 0, 60, 63
1, 1097063, Note_on_c, 0, 64, 67
1, 1097117, Note_on_c, 0, 60, 63
1, 1097127, Note_on_c, 0, 48, 63
1, 1097131, Note_off_c, 0, 52, 63
1, 1097133, Note_off_c, 0, 64, 60
1, 1097193, Note_on_c, 0, 43, 90
1, 1097196, Note_on_c, 0, 55, 106
1, 1097204, Note_off_c, 0, 48, 62
1, 1097219, Note_off_c, 0, 60, 62
1, 1097240, Note_on_c, 0, 64, 45
1, 1097263, Note_on_c, 0, 48, 53
1, 1097264, Note_off_c, 0, 64, 58
1, 1097286, Note_on_c, 0, 60, 63
1, 1097318, Note_on_c, 0, 52, 83
1, 1097336, Note_off_c, 0, 55, 49
1, 1097338, Note_on_c, 0, 64, 71
1, 1097341, Note_off_c, 0, 60, 64
1, 1097365, Note_off_c, 0, 52, 65
1, 1097377, Note_off_c, 0, 43, 62
1, 1097413, Note_off_c, 0, 64, 65
1, 1097414, Note_off_c, 0, 48, 53
1, 1097421, Note_on_c, 0, 60, 57
1, 1097506, Note_on_c, 0, 36, 94
1, 1097512, Note_on_c, 0, 54, 100
1, 1097521, Control_c, 0, 64, 97
1, 1097535, Note_off_c, 0, 60, 49
1, 1097535, Control_c, 0, 64, 71
1, 1097550, Control_c, 0, 64, 64
1, 1097565, Control_c, 0, 64, 76
1, 1097588, Control_c, 0, 64, 127
1, 1097613, Note_off_c, 0, 36, 63
1, 1097659, Note_on_c, 0, 60, 66
1, 1097660, Note_off_c, 0, 54, 60
1, 1097711, Note_on_c, 0, 48, 59
1, 1097711, Note_off_c, 0, 60, 62
1, 1097726, Note_on_c, 0, 64, 62
1, 1097779, Note_on_c, 0, 60, 70
1, 1097780, Note_off_c, 0, 64, 56
1, 1097817, Note_on_c, 0, 43, 91
1, 1097824, Note_off_c, 0, 48, 55
1, 1097839, Note_on_c, 0, 55, 99
1, 1097859, Note_off_c, 0, 60, 64
1, 1097908, Note_on_c, 0, 48, 66
1, 1097918, Note_on_c, 0, 60, 72
1, 1097956, Note_on_c, 0, 52, 77
1, 1097956, Note_off_c, 0, 55, 60
1, 1097960, Note_off_c, 0, 48, 64
1, 1097977, Note_on_c, 0, 64, 70
1, 1097978, Note_off_c, 0, 43, 61
1, 1097986, Note_off_c, 0, 60, 64
1, 1098025, Note_on_c, 0, 48, 58
1, 1098025, Note_off_c, 0, 52, 63
1, 1098039, Note_on_c, 0, 60, 64
1, 1098045, Note_off_c, 0, 64, 65
1, 1098114, Note_on_c, 0, 42, 102
1, 1098116, Note_on_c, 0, 54, 111
1, 1098136, Note_off_c, 0, 60, 44
1, 1098144, Note_on_c, 0, 44, 53
1, 1098167, Note_off_c, 0, 48, 0
1, 1098200, Note_on_c, 0, 48, 11
1, 1098206, Note_on_c, 0, 60, 73
1, 1098223, Note_off_c, 0, 54, 62
1, 1098233, Poly_aftertouch_c, 0, 62, 127
1, 1098259, Poly_aftertouch_c, 0, 62, 0
1, 1098267, Note_off_c, 0, 44, 37
1, 1098287, Note_on_c, 0, 64, 79
1, 1098287, Note_on_c, 0, 52, 72
1, 1098287, Note_off_c, 0, 42, 60
1, 1098290, Note_off_c, 0, 48, 63
1, 1098291, Note_off_c, 0, 60, 64
1, 1098348, Note_on_c, 0, 48, 55
1, 1098352, Note_on_c, 0, 60, 78
1, 1098364, Note_off_c, 0, 52, 61
1, 1098364, Note_off_c, 0, 64, 63
1, 1098420, Note_on_c, 0, 43, 94
1, 1098427, Note_on_c, 0, 55, 103
1, 1098454, Note_off_c, 0, 60, 63
1, 1098492, Note_off_c, 0, 48, 0
1, 1098507, Note_on_c, 0, 48, 39
1, 1098508, Note_on_c, 0, 60, 76
1, 1098537, Note_off_c, 0, 55, 55
1, 1098568, Note_off_c, 0, 48, 62
1, 1098574, Note_on_c, 0, 52, 81
1, 1098581, Note_on_c, 0, 64, 85
1, 1098585, Note_off_c, 0, 60, 66
1, 1098620, Note_off_c, 0, 43, 60
1, 1098640, Note_off_c, 0, 52, 64
1, 1098643, Note_on_c, 0, 48, 62
1, 1098651, Note_off_c, 0, 64, 64
1, 1098654, Note_on_c, 0, 60, 74
1, 1098703, Note_off_c, 0, 48, 56
1, 1098724, Note_off_c, 0, 60, 67
1, 1098734, Note_on_c, 0, 54, 112
1, 1098738, Note_on_c, 0, 42, 100
1, 1098752, Control_c, 0, 64, 70
1, 1098766, Control_c, 0, 64, 49
1, 1098781, Control_c, 0, 64, 63
1, 1098796, Control_c, 0, 64, 77
1, 1098810, Control_c, 0, 64, 127
1, 1098821, Note_off_c, 0, 54, 65
1, 1098823, Note_on_c, 0, 59, 79
1, 1098846, Note_on_c, 0, 47, 74
1, 1098853, Poly_aftertouch_c, 0, 44, 0
1, 1098876, Note_off_c, 0, 42, 61
1, 1098918, Note_on_c, 0, 64, 91
1, 1098921, Note_off_c, 0, 59, 64
1, 1098925, Note_on_c, 0, 52, 84
1, 1098931, Note_off_c, 0, 47, 60
1, 1098993, Note_off_c, 0, 52, 64
1, 1099005, Note_on_c, 0, 59, 96
1, 1099008, Note_off_c, 0, 64, 61
1, 1099026, Note_on_c, 0, 47, 66
1, 1099035, Note_on_c, 0, 48, 61
1, 1099056, Note_off_c, 0, 59, 66
1, 1099062, Note_off_c, 0, 48, 59
1, 1099066, Note_off_c, 0, 47, 64
1, 1099107, Note_on_c, 0, 55, 105
1, 1099109, Note_on_c, 0, 43, 94
1, 1099115, Control_c, 0, 64, 98
1, 1099130, Control_c, 0, 64, 65
1, 1099145, Control_c, 0, 64, 38
1, 1099160, Control_c, 0, 64, 60
1, 1099174, Note_off_c, 0, 55, 65
1, 1099175, Control_c, 0, 64, 77
1, 1099189, Control_c, 0, 64, 127
1, 1099212, Note_off_c, 0, 43, 0
1, 1099223, Note_on_c, 0, 59, 96
1, 1099229, Note_on_c, 0, 47, 95
1, 1099244, Poly_aftertouch_c, 0, 43, 0
1, 1099293, Note_off_c, 0, 59, 61
1, 1099319, Note_off_c, 0, 47, 63
1, 1099344, Note_on_c, 0, 64, 100
1, 1099348, Note_on_c, 0, 53, 98
1, 1099419, Note_off_c, 0, 53, 59
1, 1099424, Note_off_c, 0, 64, 60
1, 1099480, Note_on_c, 0, 59, 101
1, 1099497, Note_on_c, 0, 47, 102
1, 1099527, Note_off_c, 0, 59, 67
1, 1099550, Note_off_c, 0, 47, 65
1, 1099910, Note_on_c, 0, 64, 105
1, 1099911, Note_on_c, 0, 48, 112
1, 1099911, Note_on_c, 0, 67, 93
1, 1099911, Note_on_c, 0, 76, 105
1, 1099914, Note_on_c, 0, 72, 83
1, 1099914, Note_on_c, 0, 43, 90
1, 1099918, Note_on_c, 0, 40, 84
1, 1099922, Note_on_c, 0, 36, 91
1, 1099950, Note_on_c, 0, 70, 37
1, 1099996, Note_off_c, 0, 70, 46
1, 1100027, Control_c, 0, 64, 102
1, 1100042, Control_c, 0, 64, 68
1, 1100057, Control_c, 0, 64, 19
1, 1100072, Control_c, 0, 64, 0
1, 1100264, Control_c, 0, 64, 36
1, 1100279, Control_c, 0, 64, 53
1, 1100294, Control_c, 0, 64, 63
1, 1100309, Control_c, 0, 64, 70
1, 1100323, Control_c, 0, 64, 88
1, 1100338, Control_c, 0, 64, 127
1, 1100395, Note_off_c, 0, 48, 54
1, 1100454, Note_off_c, 0, 76, 56
1, 1100476, Note_off_c, 0, 43, 56
1, 1100493, Note_off_c, 0, 40, 54
1, 1100505, Note_off_c, 0, 36, 58
1, 1100516, Note_off_c, 0, 72, 49
1, 1100537, Note_off_c, 0, 64, 46
1, 1100602, Note_off_c, 0, 67, 49
1, 1101077, Note_on_c, 0, 52, 102
1, 1101077, Note_on_c, 0, 64, 94
1, 1101078, Note_on_c, 0, 36, 104
1, 1101080, Note_on_c, 0, 31, 82
1, 1101080, Note_on_c, 0, 55, 94
1, 1101083, Note_on_c, 0, 60, 89
1, 1101084, Note_on_c, 0, 24, 99
1, 1101089, Note_on_c, 0, 28, 76
1, 1101109, Note_on_c, 0, 53, 41
1, 1101110, Note_off_c, 0, 53, 127
1, 1104501, Note_off_c, 0, 24, 59
1, 1104508, Note_off_c, 0, 28, 51
1, 1104520, Note_off_c, 0, 31, 59
1, 1104535, Note_off_c, 0, 52, 61
1, 1104538, Note_off_c, 0, 64, 59
1, 1104550, Note_off_c, 0, 55, 61
1, 1104562, Note_off_c, 0, 60, 61
1, 1104567, Note_off_c, 0, 36, 58
1, 1104636, Control_c, 0, 64, 97
1, 1104651, Control_c, 0, 64, 81
1, 1104667, Control_c, 0, 64, 73
1, 1104682, Control_c, 0, 64, 68
1, 1104697, Control_c, 0, 64, 65
1, 1104712, Control_c, 0, 64, 63
1, 1104726, Control_c, 0, 64, 61
1, 1104741, Control_c, 0, 64, 60
1, 1104756, Control_c, 0, 64, 59
1, 1104771, Control_c, 0, 64, 58
1, 1104786, Control_c, 0, 64, 57
1, 1104800, Control_c, 0, 64, 55
1, 1104815, Control_c, 0, 64, 52
1, 1104830, Control_c, 0, 64, 50
1, 1104845, Control_c, 0, 64, 49
1, 1104859, Control_c, 0, 64, 49
1, 1104874, Control_c, 0, 64, 48
1, 1104889, Control_c, 0, 64, 47
1, 1104904, Control_c, 0, 64, 46
1, 1104919, Control_c, 0, 64, 45
1, 1104934, Control_c, 0, 64, 44
1, 1104964, Control_c, 0, 64, 43
1, 1104979, Control_c, 0, 64, 42
1, 1104993, Control_c, 0, 64, 41
1, 1105008, Control_c, 0, 64, 41
1, 1105023, Control_c, 0, 64, 40
1, 1105208, Control_c, 0, 64, 41
1, 1105238, Control_c, 0, 64, 41
1, 1105341, Control_c, 0, 64, 42
1, 1105386, Control_c, 0, 64, 42
1, 1105400, Control_c, 0, 64, 43
1, 1105594, Control_c, 0, 64, 44
1, 1106046, Control_c, 0, 64, 43
1, 1106075, Control_c, 0, 64, 43
1, 1106105, Control_c, 0, 64, 42
1, 1106209, Control_c, 0, 64, 43
1, 1106238, Control_c, 0, 64, 43
1, 1106253, Control_c, 0, 64, 44
1, 1106269, Control_c, 0, 64, 44
1, 1106387, Control_c, 0, 64, 43
1, 1106402, Control_c, 0, 64, 32
1, 1106417, Control_c, 0, 64, 0
1, 1106492, End_track
0, 0, End_of_file
