0, 0, Header, 0, 1, 384
1, 0, Start_track
1, 0, Title_t, "Rain Tree Sketch II--Kim        "
1, 0, Text_t, "2009 International Piano-e-Competition finals"
1, 0, Text_t, "captured June-July 2009"
1, 0, Text_t, "http://www.piano-e-competition.com/"
1, 0, Text_t, "standard-resolution version"
1, 0, Text_t, "File processed for distribution by software from Zenph Studios, Inc., http://www.zenph.com"
1, 0, Instrument_name_t, "Yamaha Disklavier Pro Mark IV concert grand piano, model DCFIIISM4PRO"
1, 0, Sequencer_specific, 39, 67, 113, 0, 1, 0, 1, 0, 82, 97, 105, 110, 84, 114, 101, 101, 83, 107, 101, 116, 99, 104, 73, 73, 71, 114, 97, 99, 101, 32, 69, 117, 110, 72, 97, 101, 32, 75, 105, 109
1, 0, Sequencer_specific, 6, 67, 113, 0, 0, 0, 69
1, 0, System_exclusive, 21, 67, 113, 126, 21, 0, 2, 2, 1, 1, 13, 3, 4, 10, 4, 11, 12, 2, 5, 12, 1, 247
1, 0, Sequencer_specific, 5, 67, 123, 12, 2, 1
1, 0, Tempo, 512820
1, 0, Time_signature, 4, 2, 24, 8
1, 0, System_exclusive, 5, 126, 127, 9, 1, 247
1, 1, System_exclusive, 8, 67, 16, 76, 0, 0, 126, 0, 247
1, 2, System_exclusive, 8, 67, 16, 76, 8, 9, 7, 1, 247
1, 3, Control_c, 0, 0, 0
1, 3, Control_c, 1, 0, 0
1, 3, Control_c, 2, 0, 0
1, 3, Control_c, 3, 0, 0
1, 3, Control_c, 4, 0, 0
1, 3, Control_c, 5, 0, 0
1, 3, Control_c, 6, 0, 0
1, 3, Control_c, 7, 0, 0
1, 3, Control_c, 8, 0, 0
1, 3, Control_c, 9, 0, 127
1, 3, Control_c, 10, 0, 0
1, 3, Control_c, 11, 0, 0
1, 3, Control_c, 12, 0, 0
1, 3, Control_c, 13, 0, 0
1, 3, Control_c, 14, 0, 0
1, 3, Control_c, 15, 0, 0
1, 4, Control_c, 0, 32, 0
1, 4, Control_c, 1, 32, 0
1, 4, Control_c, 2, 32, 0
1, 4, Control_c, 3, 32, 0
1, 4, Control_c, 4, 32, 0
1, 4, Control_c, 5, 32, 0
1, 4, Control_c, 6, 32, 0
1, 4, Control_c, 7, 32, 0
1, 4, Control_c, 8, 32, 0
1, 4, Control_c, 9, 32, 0
1, 4, Control_c, 10, 32, 0
1, 4, Control_c, 11, 32, 0
1, 4, Control_c, 12, 32, 0
1, 4, Control_c, 13, 32, 0
1, 4, Control_c, 14, 32, 0
1, 4, Control_c, 15, 32, 0
1, 5, Program_c, 0, 0
1, 5, Program_c, 1, 0
1, 5, Program_c, 2, 0
1, 5, Program_c, 3, 0
1, 5, Program_c, 4, 0
1, 5, Program_c, 5, 0
1, 5, Program_c, 6, 0
1, 5, Program_c, 7, 0
1, 5, Program_c, 8, 0
1, 5, Program_c, 9, 0
1, 5, Program_c, 10, 0
1, 5, Program_c, 11, 0
1, 5, Program_c, 12, 0
1, 5, Program_c, 13, 0
1, 5, Program_c, 14, 0
1, 5, Program_c, 15, 0
1, 6, Control_c, 0, 7, 100
1, 6, Control_c, 1, 7, 100
1, 6, Control_c, 2, 7, 100
1, 6, Control_c, 3, 7, 100
1, 6, Control_c, 4, 7, 100
1, 6, Control_c, 5, 7, 100
1, 6, Control_c, 6, 7, 100
1, 6, Control_c, 7, 7, 100
1, 6, Control_c, 8, 7, 100
1, 6, Control_c, 9, 7, 100
1, 6, Control_c, 10, 7, 100
1, 6, Control_c, 11, 7, 100
1, 6, Control_c, 12, 7, 100
1, 6, Control_c, 13, 7, 100
1, 6, Control_c, 14, 7, 100
1, 6, Control_c, 15, 7, 100
1, 117, Control_c, 0, 64, 15
1, 117, Control_c, 0, 67, 15
1, 229, Control_c, 0, 64, 31
1, 229, Control_c, 0, 67, 31
1, 341, Control_c, 0, 64, 46
1, 341, Control_c, 0, 67, 46
1, 452, Control_c, 0, 64, 63
1, 452, Control_c, 0, 67, 63
1, 564, Control_c, 0, 64, 77
1, 564, Control_c, 0, 67, 77
1, 676, Control_c, 0, 64, 94
1, 676, Control_c, 0, 67, 94
1, 787, Control_c, 0, 64, 108
1, 787, Control_c, 0, 67, 108
1, 899, Control_c, 0, 64, 127
1, 899, Control_c, 0, 67, 127
1, 1135, Note_on_c, 0, 81, 42
1, 1140, Note_on_c, 0, 73, 28
1, 1143, Note_on_c, 0, 74, 21
1, 1330, Note_off_c, 0, 81, 61
1, 1612, Note_on_c, 0, 86, 37
1, 1621, Note_on_c, 0, 70, 35
1, 1635, Note_on_c, 0, 62, 20
1, 1670, Note_on_c, 0, 78, 22
1, 1675, Note_on_c, 0, 82, 41
1, 1741, Note_off_c, 0, 74, 53
1, 1750, Note_off_c, 0, 86, 46
1, 1814, Note_off_c, 0, 78, 44
1, 1828, Note_off_c, 0, 73, 40
1, 1832, Note_off_c, 0, 82, 40
1, 1935, Note_off_c, 0, 62, 39
1, 1946, Note_on_c, 0, 85, 53
1, 1952, Note_on_c, 0, 74, 26
1, 1959, Note_on_c, 0, 66, 39
1, 1969, Poly_aftertouch_c, 0, 81, 127
1, 2006, Poly_aftertouch_c, 0, 81, 0
1, 2053, Note_off_c, 0, 70, 35
1, 2181, Note_on_c, 0, 82, 55
1, 2197, Note_on_c, 0, 73, 33
1, 2200, Note_on_c, 0, 79, 37
1, 2208, Note_off_c, 0, 74, 42
1, 2252, Note_off_c, 0, 66, 45
1, 2254, Note_off_c, 0, 85, 35
1, 2351, Note_off_c, 0, 79, 39
1, 2361, Note_off_c, 0, 82, 53
1, 2374, Note_on_c, 0, 81, 57
1, 2379, Note_off_c, 0, 73, 43
1, 2384, Note_on_c, 0, 74, 24
1, 2391, Note_on_c, 0, 64, 33
1, 2398, Note_on_c, 0, 70, 36
1, 2555, Note_off_c, 0, 81, 55
1, 2556, Note_off_c, 0, 74, 39
1, 2558, Note_on_c, 0, 82, 64
1, 2564, Note_on_c, 0, 66, 54
1, 2570, Note_on_c, 0, 79, 45
1, 2571, Note_off_c, 0, 64, 41
1, 2621, Note_off_c, 0, 70, 38
1, 2691, Note_off_c, 0, 79, 33
1, 2722, Note_off_c, 0, 66, 59
1, 2746, Note_on_c, 0, 81, 60
1, 2755, Note_on_c, 0, 74, 44
1, 2759, Note_on_c, 0, 62, 43
1, 2761, Note_on_c, 0, 73, 44
1, 2821, Note_off_c, 0, 82, 45
1, 2831, Note_off_c, 0, 81, 58
1, 2934, Note_on_c, 0, 82, 49
1, 2947, Note_off_c, 0, 74, 27
1, 2950, Note_on_c, 0, 86, 57
1, 2962, Note_on_c, 0, 78, 44
1, 2963, Note_off_c, 0, 73, 36
1, 2969, Note_on_c, 0, 70, 40
1, 2984, Note_off_c, 0, 86, 58
1, 3001, Note_off_c, 0, 78, 49
1, 3028, Note_off_c, 0, 62, 38
1, 3046, Note_off_c, 0, 82, 38
1, 3160, Note_on_c, 0, 85, 54
1, 3167, Note_on_c, 0, 81, 30
1, 3176, Note_on_c, 0, 66, 37
1, 3186, Note_on_c, 0, 74, 30
1, 3190, Note_off_c, 0, 70, 35
1, 3214, Note_off_c, 0, 81, 46
1, 3335, Note_off_c, 0, 85, 54
1, 3353, Note_off_c, 0, 74, 43
1, 3365, Note_on_c, 0, 82, 49
1, 3385, Note_off_c, 0, 66, 35
1, 3392, Note_on_c, 0, 79, 38
1, 3399, Note_on_c, 0, 64, 40
1, 3404, Note_on_c, 0, 73, 21
1, 3458, Note_off_c, 0, 79, 53
1, 3476, Note_off_c, 0, 82, 61
1, 3610, Note_off_c, 0, 73, 41
1, 3670, Note_on_c, 0, 90, 51
1, 3685, Note_on_c, 0, 70, 37
1, 3704, Note_on_c, 0, 81, 36
1, 3755, Note_off_c, 0, 90, 58
1, 4001, Note_on_c, 0, 82, 44
1, 4019, Note_off_c, 0, 81, 40
1, 4031, Note_on_c, 0, 66, 36
1, 4038, Note_off_c, 0, 70, 42
1, 4059, Note_on_c, 0, 79, 33
1, 4093, Note_off_c, 0, 64, 42
1, 4144, Note_off_c, 0, 79, 52
1, 4145, Note_off_c, 0, 66, 44
1, 4177, Note_off_c, 0, 82, 37
1, 4478, Note_on_c, 0, 78, 60
1, 4548, Note_on_c, 0, 62, 27
1, 4725, Control_c, 0, 64, 99
1, 4740, Control_c, 0, 64, 89
1, 4784, Control_c, 0, 64, 94
1, 4799, Control_c, 0, 64, 118
1, 4803, Note_on_c, 0, 77, 53
1, 4814, Control_c, 0, 64, 127
1, 4815, Note_on_c, 0, 72, 21
1, 4824, Note_on_c, 0, 66, 42
1, 4878, Note_off_c, 0, 72, 43
1, 4939, Note_off_c, 0, 78, 38
1, 5032, Note_on_c, 0, 80, 53
1, 5033, Note_off_c, 0, 77, 51
1, 5039, Note_off_c, 0, 62, 42
1, 5044, Note_on_c, 0, 74, 31
1, 5050, Note_on_c, 0, 69, 38
1, 5074, Note_off_c, 0, 74, 54
1, 5076, Note_off_c, 0, 80, 61
1, 5103, Note_off_c, 0, 66, 46
1, 5300, Note_on_c, 0, 83, 38
1, 5306, Note_on_c, 0, 90, 56
1, 5328, Note_on_c, 0, 62, 24
1, 5330, Note_on_c, 0, 82, 28
1, 5342, Note_on_c, 0, 60, 30
1, 5365, Note_off_c, 0, 83, 60
1, 5460, Note_off_c, 0, 82, 46
1, 5481, Note_off_c, 0, 69, 36
1, 5605, Note_on_c, 0, 85, 41
1, 5609, Note_on_c, 0, 66, 45
1, 5612, Note_on_c, 0, 89, 37
1, 5622, Note_off_c, 0, 60, 35
1, 5640, Note_on_c, 0, 81, 25
1, 5687, Note_off_c, 0, 62, 41
1, 5692, Note_off_c, 0, 90, 54
1, 5705, Note_off_c, 0, 66, 62
1, 5755, Note_off_c, 0, 81, 40
1, 5983, Note_off_c, 0, 89, 57
1, 6004, Note_on_c, 0, 92, 47
1, 6017, Note_on_c, 0, 83, 33
1, 6023, Note_off_c, 0, 85, 39
1, 6026, Note_on_c, 0, 87, 11
1, 6032, Note_on_c, 0, 77, 34
1, 6095, Note_off_c, 0, 77, 41
1, 6164, Note_off_c, 0, 83, 37
1, 6215, Note_off_c, 0, 87, 41
1, 6534, Note_on_c, 0, 90, 59
1, 6549, Note_on_c, 0, 70, 28
1, 6566, Note_on_c, 0, 83, 40
1, 6567, Note_on_c, 0, 62, 38
1, 6659, Control_c, 0, 64, 119
1, 6673, Control_c, 0, 64, 113
1, 6675, Note_off_c, 0, 92, 62
1, 6718, Control_c, 0, 64, 127
1, 6769, Note_off_c, 0, 70, 54
1, 6797, Note_off_c, 0, 90, 57
1, 6852, Note_off_c, 0, 62, 43
1, 6886, Note_on_c, 0, 94, 67
1, 6895, Note_on_c, 0, 91, 50
1, 6901, Note_on_c, 0, 59, 34
1, 6904, Note_on_c, 0, 85, 36
1, 6907, Note_on_c, 0, 67, 25
1, 6978, Note_off_c, 0, 83, 53
1, 7006, Note_off_c, 0, 91, 52
1, 7014, Note_off_c, 0, 94, 64
1, 7017, Note_off_c, 0, 59, 44
1, 7030, Note_off_c, 0, 85, 45
1, 7129, Note_on_c, 0, 93, 67
1, 7129, Note_off_c, 0, 67, 42
1, 7132, Note_on_c, 0, 90, 46
1, 7135, Note_on_c, 0, 63, 46
1, 7147, Note_on_c, 0, 83, 35
1, 7162, Note_off_c, 0, 90, 59
1, 7329, Note_on_c, 0, 91, 70
1, 7332, Note_on_c, 0, 70, 52
1, 7356, Note_on_c, 0, 85, 55
1, 7401, Note_off_c, 0, 83, 35
1, 7500, Note_off_c, 0, 93, 30
1, 7520, Note_off_c, 0, 85, 35
1, 7527, Note_on_c, 0, 83, 50
1, 7529, Note_on_c, 0, 90, 73
1, 7530, Note_off_c, 0, 63, 52
1, 7535, Note_on_c, 0, 67, 54
1, 7536, Note_on_c, 0, 61, 48
1, 7557, Note_off_c, 0, 70, 38
1, 7581, Note_off_c, 0, 91, 53
1, 7640, Note_off_c, 0, 83, 59
1, 7652, Note_off_c, 0, 61, 37
1, 7694, Note_on_c, 0, 91, 74
1, 7705, Note_on_c, 0, 63, 59
1, 7705, Note_on_c, 0, 85, 64
1, 7732, Note_off_c, 0, 67, 37
1, 7738, Note_off_c, 0, 90, 43
1, 7806, Note_off_c, 0, 85, 55
1, 7834, Note_off_c, 0, 91, 53
1, 7845, Note_off_c, 0, 63, 52
1, 7871, Note_on_c, 0, 90, 71
1, 7872, Note_on_c, 0, 59, 55
1, 7882, Note_on_c, 0, 70, 48
1, 7882, Note_on_c, 0, 83, 63
1, 7959, Note_off_c, 0, 83, 58
1, 8011, Note_off_c, 0, 59, 35
1, 8028, Note_off_c, 0, 90, 34
1, 8030, Note_off_c, 0, 70, 36
1, 8051, Note_on_c, 0, 91, 59
1, 8055, Note_on_c, 0, 94, 77
1, 8057, Note_on_c, 0, 67, 57
1, 8075, Note_on_c, 0, 88, 44
1, 8120, Note_off_c, 0, 88, 47
1, 8141, Note_off_c, 0, 91, 59
1, 8153, Note_off_c, 0, 94, 65
1, 8235, Note_on_c, 0, 90, 58
1, 8239, Note_on_c, 0, 63, 60
1, 8242, Note_on_c, 0, 93, 72
1, 8243, Note_off_c, 0, 67, 56
1, 8252, Note_on_c, 0, 83, 52
1, 8274, Note_off_c, 0, 90, 62
1, 8308, Note_off_c, 0, 83, 53
1, 8346, Note_off_c, 0, 93, 51
1, 8407, Note_on_c, 0, 91, 56
1, 8409, Note_on_c, 0, 88, 69
1, 8421, Note_on_c, 0, 70, 48
1, 8426, Note_on_c, 0, 61, 57
1, 8436, Note_off_c, 0, 88, 65
1, 8453, Note_off_c, 0, 63, 35
1, 8467, Note_off_c, 0, 91, 60
1, 8532, Note_on_c, 0, 83, 52
1, 8564, Note_off_c, 0, 83, 54
1, 8593, Note_on_c, 0, 90, 67
1, 8650, Note_off_c, 0, 90, 64
1, 8672, Note_on_c, 0, 96, 61
1, 8740, Note_off_c, 0, 96, 62
1, 8791, Note_on_c, 0, 99, 79
1, 8806, Note_on_c, 0, 67, 40
1, 8847, Note_off_c, 0, 99, 64
1, 8965, Note_off_c, 0, 70, 58
1, 8999, Note_off_c, 0, 61, 54
1, 9190, Note_on_c, 0, 91, 59
1, 9193, Note_on_c, 0, 63, 35
1, 9197, Note_off_c, 0, 67, 46
1, 9211, Note_on_c, 0, 88, 38
1, 9245, Note_off_c, 0, 63, 44
1, 9256, Note_off_c, 0, 91, 60
1, 9282, Note_off_c, 0, 88, 59
1, 9526, Note_on_c, 0, 70, 60
1, 9560, Note_on_c, 0, 63, 43
1, 9669, Control_c, 0, 64, 95
1, 9684, Control_c, 0, 64, 76
1, 9698, Control_c, 0, 64, 66
1, 9713, Control_c, 0, 64, 64
1, 9728, Control_c, 0, 64, 68
1, 9743, Control_c, 0, 64, 77
1, 9758, Control_c, 0, 64, 119
1, 9772, Control_c, 0, 64, 127
1, 9800, Note_on_c, 0, 67, 53
1, 9802, Note_on_c, 0, 75, 72
1, 9897, Note_off_c, 0, 70, 63
1, 10013, Note_off_c, 0, 67, 58
1, 10015, Note_on_c, 0, 79, 71
1, 10019, Note_on_c, 0, 73, 55
1, 10021, Note_on_c, 0, 71, 53
1, 10042, Note_off_c, 0, 75, 57
1, 10046, Note_off_c, 0, 63, 40
1, 10054, Note_off_c, 0, 71, 65
1, 10056, Note_off_c, 0, 73, 62
1, 10099, Note_off_c, 0, 79, 61
1, 10296, Note_on_c, 0, 94, 73
1, 10312, Note_on_c, 0, 81, 47
1, 10320, Note_on_c, 0, 77, 33
1, 10405, Note_off_c, 0, 77, 39
1, 10571, Note_off_c, 0, 81, 53
1, 10600, Note_on_c, 0, 97, 69
1, 10628, Note_on_c, 0, 79, 39
1, 10630, Note_on_c, 0, 83, 39
1, 10738, Note_off_c, 0, 79, 50
1, 10768, Note_off_c, 0, 94, 44
1, 10930, Note_on_c, 0, 99, 59
1, 10934, Note_off_c, 0, 83, 35
1, 10938, Note_on_c, 0, 81, 40
1, 10940, Note_on_c, 0, 85, 44
1, 10991, Note_off_c, 0, 97, 47
1, 11000, Note_off_c, 0, 81, 49
1, 11020, Note_off_c, 0, 85, 57
1, 11033, Note_off_c, 0, 99, 52
1, 11542, Note_on_c, 0, 69, 46
1, 11551, Note_on_c, 0, 57, 6
1, 11630, Note_off_c, 0, 57, 0
1, 11630, Note_on_c, 0, 57, 3
1, 11775, Control_c, 0, 64, 99
1, 11790, Control_c, 0, 64, 83
1, 11804, Control_c, 0, 64, 73
1, 11819, Control_c, 0, 64, 69
1, 11856, Control_c, 0, 64, 71
1, 11871, Control_c, 0, 64, 76
1, 11885, Control_c, 0, 64, 85
1, 11900, Control_c, 0, 64, 105
1, 11915, Control_c, 0, 64, 127
1, 11939, Note_on_c, 0, 59, 44
1, 11955, Note_on_c, 0, 71, 50
1, 12080, Note_off_c, 0, 69, 63
1, 12235, Note_on_c, 0, 77, 52
1, 12237, Note_on_c, 0, 65, 35
1, 12261, Note_off_c, 0, 71, 37
1, 12299, Note_off_c, 0, 57, 39
1, 12311, Note_off_c, 0, 77, 58
1, 12354, Note_off_c, 0, 59, 30
1, 12433, Note_off_c, 0, 65, 39
1, 12531, Note_on_c, 0, 83, 51
1, 12561, Note_on_c, 0, 71, 30
1, 12620, Note_off_c, 0, 83, 61
1, 12942, Note_off_c, 0, 71, 27
1, 12982, Note_on_c, 0, 97, 58
1, 13002, Note_on_c, 0, 85, 42
1, 13011, Note_on_c, 0, 73, 32
1, 13135, Note_off_c, 0, 97, 56
1, 13152, Note_off_c, 0, 85, 35
1, 13236, Note_off_c, 0, 73, 42
1, 13826, Note_on_c, 0, 99, 39
1, 13836, Note_on_c, 0, 87, 35
1, 13852, Note_on_c, 0, 75, 24
1, 14363, Note_off_c, 0, 87, 41
1, 14502, Note_off_c, 0, 99, 39
1, 15128, Note_off_c, 0, 75, 39
1, 16750, Note_on_c, 0, 69, 45
1, 16766, Note_on_c, 0, 62, 41
1, 16791, Note_on_c, 0, 58, 30
1, 17086, Note_on_c, 0, 70, 44
1, 17093, Note_on_c, 0, 74, 61
1, 17102, Note_on_c, 0, 61, 46
1, 17102, Note_on_c, 0, 66, 44
1, 17111, Note_on_c, 0, 50, 45
1, 17232, Note_off_c, 0, 66, 57
1, 17282, Note_off_c, 0, 70, 62
1, 17293, Note_off_c, 0, 69, 38
1, 17424, Note_off_c, 0, 61, 36
1, 17432, Note_off_c, 0, 62, 35
1, 17598, Note_on_c, 0, 73, 44
1, 17621, Note_on_c, 0, 69, 29
1, 17623, Note_on_c, 0, 60, 31
1, 17623, Note_on_c, 0, 62, 27
1, 17631, Note_on_c, 0, 54, 33
1, 17688, Note_off_c, 0, 62, 0
1, 17688, Note_on_c, 0, 62, 3
1, 17719, Note_off_c, 0, 74, 40
1, 17794, Control_c, 0, 64, 94
1, 17809, Control_c, 0, 64, 75
1, 17831, Control_c, 0, 64, 62
1, 17846, Control_c, 0, 64, 0
1, 17973, Note_off_c, 0, 58, 42
1, 18000, Note_off_c, 0, 50, 30
1, 18128, Control_c, 0, 64, 53
1, 18143, Control_c, 0, 64, 61
1, 18158, Control_c, 0, 64, 64
1, 18172, Control_c, 0, 64, 66
1, 18187, Control_c, 0, 64, 72
1, 18202, Control_c, 0, 64, 80
1, 18217, Control_c, 0, 64, 93
1, 18232, Control_c, 0, 64, 127
1, 18367, Note_off_c, 0, 62, 40
1, 18431, Note_off_c, 0, 54, 40
1, 18480, Note_off_c, 0, 73, 35
1, 18492, Note_off_c, 0, 60, 46
1, 18705, Note_off_c, 0, 69, 44
1, 18857, Note_on_c, 0, 69, 32
1, 19224, Note_on_c, 0, 89, 46
1, 19230, Note_on_c, 0, 85, 36
1, 19242, Note_on_c, 0, 86, 40
1, 19252, Note_on_c, 0, 81, 35
1, 19395, Note_off_c, 0, 85, 44
1, 19458, Note_off_c, 0, 81, 40
1, 19465, Note_off_c, 0, 89, 32
1, 19570, Note_off_c, 0, 86, 41
1, 20026, Note_on_c, 0, 88, 40
1, 20027, Note_on_c, 0, 92, 44
1, 20043, Note_on_c, 0, 84, 32
1, 20330, Note_off_c, 0, 92, 35
1, 20487, Note_off_c, 0, 84, 41
1, 20570, Note_off_c, 0, 88, 34
1, 20839, Note_off_c, 0, 69, 44
1, 21719, Note_on_c, 0, 69, 42
1, 21723, Note_on_c, 0, 62, 38
1, 21731, Note_on_c, 0, 58, 41
1, 21986, Note_on_c, 0, 70, 34
1, 21987, Note_on_c, 0, 74, 60
1, 21989, Note_on_c, 0, 61, 49
1, 21990, Note_off_c, 0, 58, 46
1, 21992, Note_on_c, 0, 50, 46
1, 22005, Note_on_c, 0, 66, 34
1, 22023, Note_off_c, 0, 69, 19
1, 22041, Note_off_c, 0, 66, 52
1, 22064, Note_off_c, 0, 70, 61
1, 22095, Note_off_c, 0, 61, 60
1, 22101, Note_off_c, 0, 50, 54
1, 22191, Note_off_c, 0, 62, 40
1, 22345, Note_off_c, 0, 74, 37
1, 22366, Note_on_c, 0, 73, 47
1, 22369, Note_on_c, 0, 69, 36
1, 22376, Note_on_c, 0, 62, 35
1, 22402, Note_on_c, 0, 48, 32
1, 22419, Note_on_c, 0, 54, 24
1, 22516, Control_c, 0, 64, 97
1, 22531, Control_c, 0, 64, 70
1, 22545, Control_c, 0, 64, 39
1, 22560, Control_c, 0, 64, 0
1, 22694, Control_c, 0, 64, 51
1, 22709, Control_c, 0, 64, 65
1, 22724, Control_c, 0, 64, 76
1, 22738, Control_c, 0, 64, 93
1, 22753, Control_c, 0, 64, 127
1, 22794, Note_off_c, 0, 62, 42
1, 22801, Note_off_c, 0, 73, 57
1, 22916, Note_off_c, 0, 69, 44
1, 23105, Note_on_c, 0, 57, 51
1, 23173, Note_off_c, 0, 48, 44
1, 23200, Note_off_c, 0, 54, 45
1, 23252, Note_off_c, 0, 57, 58
1, 23601, Note_on_c, 0, 80, 78
1, 23675, Note_on_c, 0, 62, 43
1, 23865, Note_off_c, 0, 80, 61
1, 24016, Note_on_c, 0, 65, 57
1, 24097, Note_off_c, 0, 65, 52
1, 24163, Note_off_c, 0, 62, 57
1, 24264, Note_on_c, 0, 93, 77
1, 24849, Note_on_c, 0, 26, 32
1, 25361, Note_on_c, 0, 96, 52
1, 25418, Note_off_c, 0, 26, 38
1, 25669, Note_off_c, 0, 96, 54
1, 25711, Note_off_c, 0, 93, 46
1, 26533, Note_on_c, 0, 73, 75
1, 26554, Note_on_c, 0, 57, 45
1, 26777, Note_on_c, 0, 81, 80
1, 26780, Note_on_c, 0, 62, 53
1, 26796, Note_off_c, 0, 73, 61
1, 27236, Note_on_c, 0, 92, 75
1, 27276, Note_on_c, 0, 65, 35
1, 27380, Control_c, 0, 67, 120
1, 27395, Control_c, 0, 67, 104
1, 27409, Control_c, 0, 67, 86
1, 27424, Control_c, 0, 67, 69
1, 27439, Control_c, 0, 67, 57
1, 27453, Control_c, 0, 67, 50
1, 27468, Control_c, 0, 67, 47
1, 27483, Control_c, 0, 67, 44
1, 27493, Note_off_c, 0, 57, 29
1, 27498, Control_c, 0, 67, 39
1, 27513, Control_c, 0, 67, 34
1, 27527, Control_c, 0, 67, 27
1, 27542, Control_c, 0, 67, 21
1, 27565, Control_c, 0, 67, 14
1, 27580, Control_c, 0, 67, 0
1, 27582, Note_off_c, 0, 65, 40
1, 27599, Note_off_c, 0, 92, 39
1, 27617, Note_off_c, 0, 81, 30
1, 27698, Note_off_c, 0, 62, 34
1, 29493, Control_c, 0, 67, 12
1, 29508, Control_c, 0, 67, 26
1, 29523, Control_c, 0, 67, 37
1, 29537, Control_c, 0, 67, 47
1, 29552, Control_c, 0, 67, 57
1, 29567, Control_c, 0, 67, 66
1, 29582, Control_c, 0, 67, 75
1, 29597, Control_c, 0, 67, 87
1, 29611, Control_c, 0, 67, 97
1, 29626, Control_c, 0, 67, 108
1, 29641, Control_c, 0, 67, 118
1, 29655, Control_c, 0, 67, 127
1, 30424, Note_on_c, 0, 85, 44
1, 30438, Note_on_c, 0, 82, 31
1, 30439, Note_on_c, 0, 26, 34
1, 30446, Note_on_c, 0, 74, 33
1, 30446, Note_on_c, 0, 81, 33
1, 30538, Control_c, 0, 64, 92
1, 30560, Control_c, 0, 64, 67
1, 30575, Control_c, 0, 64, 36
1, 30590, Control_c, 0, 64, 0
1, 30619, Control_c, 0, 64, 28
1, 30634, Control_c, 0, 64, 63
1, 30649, Control_c, 0, 64, 77
1, 30664, Control_c, 0, 64, 106
1, 30666, Note_off_c, 0, 26, 56
1, 30678, Control_c, 0, 64, 127
1, 31238, Note_on_c, 0, 59, 31
1, 31246, Note_on_c, 0, 62, 31
1, 31246, Note_on_c, 0, 51, 32
1, 31450, Note_off_c, 0, 85, 36
1, 31491, Note_off_c, 0, 81, 41
1, 31595, Note_off_c, 0, 51, 36
1, 31610, Note_on_c, 0, 80, 52
1, 31617, Note_on_c, 0, 86, 58
1, 31631, Note_on_c, 0, 84, 51
1, 31637, Note_off_c, 0, 62, 42
1, 32005, Note_on_c, 0, 54, 46
1, 32005, Note_on_c, 0, 57, 49
1, 32006, Note_on_c, 0, 65, 49
1, 32078, Note_off_c, 0, 86, 53
1, 32105, Note_off_c, 0, 74, 45
1, 32126, Note_off_c, 0, 84, 57
1, 32150, Note_off_c, 0, 80, 52
1, 32180, Note_off_c, 0, 82, 44
1, 32191, Control_c, 0, 67, 125
1, 32206, Control_c, 0, 67, 96
1, 32221, Control_c, 0, 67, 59
1, 32236, Control_c, 0, 67, 17
1, 32250, Control_c, 0, 67, 0
1, 32551, Note_off_c, 0, 59, 38
1, 32864, Note_off_c, 0, 65, 34
1, 32921, Note_on_c, 0, 85, 57
1, 32928, Note_on_c, 0, 82, 45
1, 32933, Note_on_c, 0, 74, 33
1, 32934, Note_on_c, 0, 81, 45
1, 32966, Note_off_c, 0, 57, 36
1, 32971, Note_off_c, 0, 54, 56
1, 33176, Note_off_c, 0, 81, 59
1, 33179, Note_off_c, 0, 85, 34
1, 33380, Note_on_c, 0, 86, 62
1, 33386, Note_on_c, 0, 84, 51
1, 33389, Note_on_c, 0, 80, 53
1, 33614, Control_c, 0, 67, 28
1, 33628, Control_c, 0, 67, 63
1, 33643, Control_c, 0, 67, 100
1, 33658, Control_c, 0, 67, 127
1, 33694, Note_on_c, 0, 26, 52
1, 33753, Note_off_c, 0, 26, 63
1, 33790, Note_off_c, 0, 80, 57
1, 33827, Note_off_c, 0, 84, 51
1, 33866, Note_off_c, 0, 74, 38
1, 33872, Note_off_c, 0, 86, 61
1, 33929, Note_off_c, 0, 82, 41
1, 34085, Note_on_c, 0, 85, 68
1, 34093, Note_on_c, 0, 74, 49
1, 34097, Note_on_c, 0, 82, 47
1, 34100, Note_on_c, 0, 81, 52
1, 34102, Note_on_c, 0, 59, 47
1, 34104, Note_on_c, 0, 51, 45
1, 34104, Control_c, 0, 67, 127
1, 34105, Note_on_c, 0, 62, 42
1, 34118, Control_c, 0, 67, 116
1, 34133, Control_c, 0, 67, 101
1, 34148, Control_c, 0, 67, 76
1, 34163, Control_c, 0, 67, 48
1, 34178, Control_c, 0, 67, 17
1, 34193, Control_c, 0, 67, 0
1, 34221, Note_off_c, 0, 51, 59
1, 34237, Note_off_c, 0, 62, 54
1, 34455, Note_off_c, 0, 81, 58
1, 34541, Note_off_c, 0, 85, 57
1, 34877, Note_off_c, 0, 59, 34
1, 35130, Note_on_c, 0, 84, 48
1, 35135, Note_on_c, 0, 86, 55
1, 35143, Note_on_c, 0, 80, 45
1, 35148, Note_on_c, 0, 57, 32
1, 35151, Note_on_c, 0, 65, 33
1, 35156, Note_on_c, 0, 54, 34
1, 35255, Note_off_c, 0, 82, 39
1, 35480, Note_off_c, 0, 74, 58
1, 35546, Note_off_c, 0, 86, 52
1, 35586, Note_off_c, 0, 54, 37
1, 35622, Note_off_c, 0, 65, 41
1, 35676, Note_off_c, 0, 84, 38
1, 35724, Note_off_c, 0, 57, 37
1, 36302, Note_on_c, 0, 73, 72
1, 36335, Note_on_c, 0, 57, 43
1, 36493, Note_off_c, 0, 73, 58
1, 36577, Note_on_c, 0, 81, 71
1, 36611, Note_on_c, 0, 62, 45
1, 36711, Note_off_c, 0, 80, 38
1, 37077, Note_on_c, 0, 92, 65
1, 37142, Note_on_c, 0, 65, 30
1, 37742, Note_off_c, 0, 81, 32
1, 37803, Note_off_c, 0, 92, 33
1, 37839, Note_off_c, 0, 65, 40
1, 37894, Note_off_c, 0, 57, 35
1, 38110, Note_off_c, 0, 62, 34
1, 39499, Note_on_c, 0, 69, 48
1, 39506, Note_on_c, 0, 62, 43
1, 39513, Note_on_c, 0, 61, 42
1, 39653, Note_off_c, 0, 62, 43
1, 39878, Note_on_c, 0, 58, 43
1, 39889, Note_on_c, 0, 74, 50
1, 39894, Note_on_c, 0, 50, 38
1, 39909, Note_on_c, 0, 66, 44
1, 39921, Note_on_c, 0, 73, 41
1, 39983, Note_off_c, 0, 69, 45
1, 40131, Note_off_c, 0, 61, 56
1, 40186, Note_off_c, 0, 50, 37
1, 40241, Note_off_c, 0, 66, 50
1, 40381, Note_off_c, 0, 74, 52
1, 40426, Note_off_c, 0, 73, 31
1, 40451, Note_on_c, 0, 72, 73
1, 40457, Note_on_c, 0, 57, 62
1, 40457, Note_on_c, 0, 62, 58
1, 40460, Note_on_c, 0, 68, 61
1, 40499, Note_off_c, 0, 58, 51
1, 40550, Note_off_c, 0, 72, 62
1, 40701, Note_on_c, 0, 54, 68
1, 40701, Note_on_c, 0, 60, 72
1, 40731, Note_on_c, 0, 71, 63
1, 40739, Note_on_c, 0, 78, 82
1, 40740, Note_on_c, 0, 73, 64
1, 40782, Note_off_c, 0, 57, 50
1, 40812, Control_c, 0, 64, 116
1, 40824, Note_off_c, 0, 62, 58
1, 40827, Control_c, 0, 64, 118
1, 40839, Note_off_c, 0, 68, 59
1, 40842, Control_c, 0, 64, 127
1, 40868, Note_off_c, 0, 71, 61
1, 40893, Note_off_c, 0, 73, 62
1, 40912, Note_off_c, 0, 78, 64
1, 41098, Note_on_c, 0, 62, 81
1, 41116, Note_off_c, 0, 54, 61
1, 41124, Note_off_c, 0, 60, 63
1, 41140, Note_off_c, 0, 62, 65
1, 41174, Note_on_c, 0, 75, 84
1, 41183, Note_on_c, 0, 74, 78
1, 41232, Note_off_c, 0, 74, 63
1, 41235, Note_off_c, 0, 75, 59
1, 41360, Note_on_c, 0, 77, 91
1, 41360, Note_on_c, 0, 84, 83
1, 41366, Note_on_c, 0, 66, 67
1, 41381, Note_off_c, 0, 77, 66
1, 41389, Note_off_c, 0, 66, 71
1, 41397, Note_off_c, 0, 84, 64
1, 41560, Note_on_c, 0, 92, 101
1, 41593, Note_off_c, 0, 92, 69
1, 41966, Note_on_c, 0, 78, 53
1, 41967, Note_on_c, 0, 80, 53
1, 41982, Note_on_c, 0, 69, 41
1, 42279, Note_on_c, 0, 87, 68
1, 42293, Note_on_c, 0, 77, 46
1, 42296, Note_on_c, 0, 81, 53
1, 42325, Note_off_c, 0, 80, 54
1, 42415, Note_off_c, 0, 69, 44
1, 42470, Note_off_c, 0, 77, 52
1, 42522, Note_off_c, 0, 87, 57
1, 42553, Note_off_c, 0, 81, 59
1, 42754, Note_on_c, 0, 69, 74
1, 42811, Note_off_c, 0, 78, 42
1, 43083, Note_on_c, 0, 73, 78
1, 43122, Note_on_c, 0, 74, 47
1, 43359, Note_on_c, 0, 81, 74
1, 43372, Note_on_c, 0, 77, 59
1, 43406, Note_off_c, 0, 73, 58
1, 43512, Note_off_c, 0, 81, 60
1, 43828, Note_on_c, 0, 92, 66
1, 43841, Note_on_c, 0, 85, 53
1, 43954, Note_off_c, 0, 77, 61
1, 43965, Note_off_c, 0, 69, 39
1, 44049, Note_off_c, 0, 74, 44
1, 44679, Note_on_c, 0, 60, 65
1, 45146, Note_on_c, 0, 50, 41
1, 45717, Note_on_c, 0, 58, 61
1, 45803, Note_off_c, 0, 50, 40
1, 45809, Note_off_c, 0, 60, 60
1, 46104, Note_on_c, 0, 66, 44
1, 46692, Note_on_c, 0, 81, 57
1, 46772, Note_off_c, 0, 92, 37
1, 47322, Note_on_c, 0, 92, 50
1, 49197, Control_c, 0, 67, 19
1, 49212, Control_c, 0, 67, 28
1, 49227, Control_c, 0, 67, 37
1, 49242, Control_c, 0, 67, 46
1, 49257, Control_c, 0, 67, 56
1, 49280, Control_c, 0, 67, 65
1, 49295, Control_c, 0, 67, 73
1, 49309, Control_c, 0, 67, 83
1, 49324, Control_c, 0, 67, 91
1, 49339, Control_c, 0, 67, 99
1, 49344, Note_off_c, 0, 92, 40
1, 49354, Control_c, 0, 67, 107
1, 49369, Control_c, 0, 67, 115
1, 49383, Control_c, 0, 67, 122
1, 49398, Control_c, 0, 67, 127
1, 49432, Note_off_c, 0, 85, 35
1, 49538, Note_off_c, 0, 81, 40
1, 49622, Note_off_c, 0, 66, 45
1, 50116, Note_on_c, 0, 62, 41
1, 50117, Note_on_c, 0, 69, 39
1, 50133, Note_off_c, 0, 58, 37
1, 50151, Note_on_c, 0, 61, 41
1, 50225, Note_off_c, 0, 62, 53
1, 50466, Note_on_c, 0, 74, 51
1, 50470, Note_on_c, 0, 58, 39
1, 50472, Note_off_c, 0, 61, 32
1, 50476, Note_on_c, 0, 50, 34
1, 50485, Note_on_c, 0, 66, 47
1, 50486, Note_off_c, 0, 69, 60
1, 50521, Note_on_c, 0, 73, 14
1, 50640, Note_off_c, 0, 50, 39
1, 50643, Note_off_c, 0, 73, 34
1, 50675, Note_off_c, 0, 66, 43
1, 50935, Note_off_c, 0, 58, 35
1, 51094, Note_on_c, 0, 73, 44
1, 51108, Note_on_c, 0, 71, 30
1, 51114, Note_on_c, 0, 65, 24
1, 51118, Note_on_c, 0, 67, 28
1, 51121, Note_on_c, 0, 62, 16
1, 51123, Note_on_c, 0, 56, 23
1, 51125, Note_on_c, 0, 54, 27
1, 51215, Note_off_c, 0, 74, 39
1, 51221, Control_c, 0, 64, 94
1, 51236, Control_c, 0, 64, 72
1, 51251, Control_c, 0, 64, 55
1, 51265, Control_c, 0, 64, 0
1, 52029, Control_c, 0, 64, 19
1, 52044, Control_c, 0, 64, 45
1, 52059, Control_c, 0, 64, 55
1, 52074, Control_c, 0, 64, 61
1, 52089, Control_c, 0, 64, 64
1, 52103, Control_c, 0, 64, 66
1, 52118, Control_c, 0, 64, 69
1, 52133, Control_c, 0, 64, 73
1, 52148, Control_c, 0, 64, 78
1, 52163, Control_c, 0, 64, 83
1, 52177, Control_c, 0, 64, 87
1, 52192, Control_c, 0, 64, 93
1, 52207, Control_c, 0, 64, 103
1, 52221, Control_c, 0, 64, 127
1, 52288, Note_on_c, 0, 60, 38
1, 52379, Note_off_c, 0, 62, 42
1, 52557, Note_off_c, 0, 56, 41
1, 52565, Note_off_c, 0, 54, 39
1, 52851, Note_on_c, 0, 50, 30
1, 52992, Note_off_c, 0, 71, 39
1, 53248, Note_off_c, 0, 60, 56
1, 53462, Note_on_c, 0, 70, 43
1, 53473, Note_on_c, 0, 58, 36
1, 53476, Note_off_c, 0, 50, 36
1, 53630, Note_off_c, 0, 65, 41
1, 53653, Note_off_c, 0, 67, 42
1, 53894, Note_on_c, 0, 78, 43
1, 53934, Note_on_c, 0, 66, 34
1, 53981, Note_off_c, 0, 70, 43
1, 54002, Note_off_c, 0, 58, 42
1, 54022, Note_off_c, 0, 73, 28
1, 54051, Note_off_c, 0, 78, 53
1, 54155, Note_off_c, 0, 66, 40
1, 54630, Note_on_c, 0, 81, 54
1, 54670, Note_on_c, 0, 69, 29
1, 55137, Note_on_c, 0, 92, 49
1, 55851, Note_off_c, 0, 69, 44
1, 56245, Note_off_c, 0, 92, 44
1, 56307, Note_off_c, 0, 81, 33
1, 58235, Note_on_c, 0, 82, 34
1, 58236, Note_on_c, 0, 85, 45
1, 58244, Note_on_c, 0, 26, 28
1, 58247, Note_on_c, 0, 74, 24
1, 58250, Note_on_c, 0, 81, 37
1, 58382, Control_c, 0, 64, 103
1, 58397, Control_c, 0, 64, 76
1, 58411, Control_c, 0, 64, 62
1, 58426, Control_c, 0, 64, 25
1, 58441, Control_c, 0, 64, 8
1, 58456, Control_c, 0, 64, 53
1, 58471, Control_c, 0, 64, 66
1, 58486, Control_c, 0, 64, 83
1, 58501, Control_c, 0, 64, 127
1, 58510, Note_off_c, 0, 26, 56
1, 58985, Note_on_c, 0, 59, 36
1, 58998, Note_on_c, 0, 62, 33
1, 59015, Note_on_c, 0, 51, 35
1, 59177, Note_off_c, 0, 85, 50
1, 59194, Note_off_c, 0, 81, 47
1, 59255, Note_off_c, 0, 51, 51
1, 59282, Note_off_c, 0, 62, 43
1, 59365, Note_on_c, 0, 80, 57
1, 59366, Note_on_c, 0, 86, 63
1, 59377, Note_on_c, 0, 84, 58
1, 59824, Note_on_c, 0, 65, 49
1, 59825, Note_on_c, 0, 57, 47
1, 59836, Note_on_c, 0, 54, 48
1, 59964, Note_off_c, 0, 86, 47
1, 59970, Control_c, 0, 67, 109
1, 59984, Control_c, 0, 67, 82
1, 59999, Control_c, 0, 67, 50
1, 60014, Control_c, 0, 67, 11
1, 60028, Control_c, 0, 67, 0
1, 60030, Note_off_c, 0, 84, 38
1, 60046, Note_off_c, 0, 74, 37
1, 60068, Note_off_c, 0, 80, 52
1, 60097, Note_off_c, 0, 82, 44
1, 60630, Note_off_c, 0, 59, 41
1, 60724, Note_on_c, 0, 74, 47
1, 60724, Note_on_c, 0, 85, 60
1, 60730, Note_on_c, 0, 81, 50
1, 60730, Note_on_c, 0, 82, 52
1, 60771, Note_off_c, 0, 65, 35
1, 60897, Note_off_c, 0, 57, 35
1, 60901, Note_off_c, 0, 54, 54
1, 61010, Note_off_c, 0, 81, 59
1, 61058, Note_off_c, 0, 85, 38
1, 61216, Note_on_c, 0, 86, 63
1, 61219, Note_on_c, 0, 84, 55
1, 61221, Note_on_c, 0, 80, 50
1, 61551, Note_on_c, 0, 26, 55
1, 61656, Note_off_c, 0, 26, 59
1, 61690, Note_off_c, 0, 80, 38
1, 61730, Note_off_c, 0, 84, 36
1, 61754, Note_off_c, 0, 74, 36
1, 61804, Note_off_c, 0, 86, 51
1, 61844, Note_off_c, 0, 82, 28
1, 62087, Note_on_c, 0, 85, 60
1, 62093, Note_on_c, 0, 74, 42
1, 62098, Note_on_c, 0, 82, 51
1, 62102, Note_on_c, 0, 62, 49
1, 62102, Note_on_c, 0, 59, 44
1, 62104, Note_on_c, 0, 81, 50
1, 62117, Note_on_c, 0, 51, 44
1, 62322, Note_off_c, 0, 51, 53
1, 62370, Note_off_c, 0, 62, 36
1, 62523, Note_off_c, 0, 81, 55
1, 62723, Note_off_c, 0, 85, 37
1, 63026, Note_off_c, 0, 59, 37
1, 63104, Note_on_c, 0, 80, 50
1, 63106, Note_on_c, 0, 57, 42
1, 63109, Note_on_c, 0, 84, 53
1, 63109, Note_on_c, 0, 86, 62
1, 63114, Note_on_c, 0, 65, 42
1, 63143, Note_on_c, 0, 54, 34
1, 63203, Note_off_c, 0, 82, 36
1, 63413, Note_off_c, 0, 74, 51
1, 63436, Note_off_c, 0, 65, 35
1, 63440, Note_off_c, 0, 86, 53
1, 63461, Note_off_c, 0, 54, 40
1, 63565, Note_off_c, 0, 57, 31
1, 63593, Note_off_c, 0, 84, 37
1, 64281, Note_on_c, 0, 73, 75
1, 64303, Note_on_c, 0, 57, 45
1, 64471, Note_off_c, 0, 73, 54
1, 64554, Note_on_c, 0, 81, 80
1, 64570, Note_on_c, 0, 62, 48
1, 64707, Note_off_c, 0, 80, 33
1, 65027, Note_on_c, 0, 92, 77
1, 65089, Note_on_c, 0, 65, 32
1, 65261, Poly_aftertouch_c, 0, 87, 127
1, 66859, Note_off_c, 0, 92, 36
1, 66913, Note_off_c, 0, 81, 29
1, 66961, Note_off_c, 0, 65, 37
1, 66987, Poly_aftertouch_c, 0, 87, 0
1, 67010, Note_off_c, 0, 57, 39
1, 67487, Note_off_c, 0, 62, 38
1, 68403, Note_on_c, 0, 80, 68
1, 68409, Note_on_c, 0, 61, 45
1, 68416, Note_on_c, 0, 66, 42
1, 68418, Note_on_c, 0, 59, 40
1, 68430, Note_on_c, 0, 56, 42
1, 68503, Control_c, 0, 64, 107
1, 68518, Control_c, 0, 64, 68
1, 68533, Control_c, 0, 64, 37
1, 68547, Control_c, 0, 64, 0
1, 68562, Control_c, 0, 64, 55
1, 68577, Control_c, 0, 64, 72
1, 68591, Control_c, 0, 64, 118
1, 68606, Control_c, 0, 64, 127
1, 68612, Note_off_c, 0, 56, 60
1, 68625, Note_off_c, 0, 59, 56
1, 68645, Note_on_c, 0, 82, 72
1, 68645, Note_off_c, 0, 61, 60
1, 68649, Note_on_c, 0, 73, 53
1, 68692, Note_off_c, 0, 73, 59
1, 68714, Note_off_c, 0, 66, 62
1, 68850, Note_on_c, 0, 83, 72
1, 68859, Note_on_c, 0, 76, 59
1, 68877, Note_on_c, 0, 68, 47
1, 68889, Note_off_c, 0, 82, 58
1, 68915, Note_off_c, 0, 80, 56
1, 69031, Note_on_c, 0, 70, 66
1, 69198, Note_on_c, 0, 71, 73
1, 69312, Note_off_c, 0, 70, 38
1, 69356, Note_on_c, 0, 82, 82
1, 69362, Note_on_c, 0, 79, 71
1, 69367, Note_off_c, 0, 76, 61
1, 69375, Note_off_c, 0, 83, 57
1, 69540, Note_on_c, 0, 85, 84
1, 69552, Note_on_c, 0, 77, 69
1, 69566, Note_off_c, 0, 82, 60
1, 69578, Note_off_c, 0, 79, 58
1, 69730, Note_on_c, 0, 70, 71
1, 69765, Note_off_c, 0, 77, 56
1, 69860, Note_off_c, 0, 71, 54
1, 69995, Note_on_c, 0, 73, 67
1, 69995, Note_on_c, 0, 79, 63
1, 70007, Note_on_c, 0, 76, 45
1, 70066, Note_off_c, 0, 68, 53
1, 70084, Note_off_c, 0, 85, 35
1, 70546, Note_on_c, 0, 68, 54
1, 70611, Note_off_c, 0, 73, 49
1, 70702, Note_off_c, 0, 70, 33
1, 70749, Note_off_c, 0, 68, 51
1, 70764, Note_off_c, 0, 79, 27
1, 70830, Note_off_c, 0, 76, 35
1, 71636, Note_on_c, 0, 78, 70
1, 71660, Note_on_c, 0, 57, 34
1, 71667, Note_on_c, 0, 64, 35
1, 71673, Note_on_c, 0, 59, 35
1, 71691, Note_on_c, 0, 54, 35
1, 71771, Control_c, 0, 64, 97
1, 71786, Control_c, 0, 64, 76
1, 71801, Control_c, 0, 64, 66
1, 71815, Control_c, 0, 64, 66
1, 71830, Control_c, 0, 64, 73
1, 71845, Control_c, 0, 64, 96
1, 71860, Control_c, 0, 64, 127
1, 71887, Note_off_c, 0, 54, 40
1, 71896, Note_off_c, 0, 57, 41
1, 71900, Note_on_c, 0, 80, 77
1, 71909, Note_off_c, 0, 59, 42
1, 71917, Note_on_c, 0, 71, 55
1, 72006, Note_off_c, 0, 64, 50
1, 72026, Note_off_c, 0, 78, 39
1, 72085, Note_on_c, 0, 81, 76
1, 72094, Note_on_c, 0, 74, 62
1, 72104, Note_on_c, 0, 66, 53
1, 72138, Note_off_c, 0, 80, 57
1, 72188, Note_off_c, 0, 71, 36
1, 72250, Note_on_c, 0, 68, 69
1, 72409, Note_on_c, 0, 69, 73
1, 72473, Note_off_c, 0, 68, 52
1, 72565, Note_on_c, 0, 80, 77
1, 72570, Note_off_c, 0, 81, 55
1, 72571, Note_off_c, 0, 74, 64
1, 72579, Note_on_c, 0, 77, 63
1, 72610, Note_off_c, 0, 66, 37
1, 72743, Note_on_c, 0, 83, 70
1, 72752, Note_on_c, 0, 75, 59
1, 72778, Note_off_c, 0, 80, 55
1, 72782, Note_off_c, 0, 77, 56
1, 72857, Poly_aftertouch_c, 0, 81, 0
1, 72916, Note_on_c, 0, 68, 64
1, 72993, Note_off_c, 0, 75, 60
1, 73103, Note_off_c, 0, 69, 39
1, 73141, Note_on_c, 0, 71, 62
1, 73144, Note_on_c, 0, 77, 59
1, 73149, Note_on_c, 0, 74, 49
1, 73182, Note_off_c, 0, 83, 51
1, 73400, Note_off_c, 0, 74, 38
1, 73423, Note_off_c, 0, 77, 37
1, 73429, Note_off_c, 0, 71, 53
1, 73588, Note_on_c, 0, 66, 62
1, 73667, Note_off_c, 0, 68, 4
1, 73670, Note_off_c, 0, 66, 65
1, 74339, Note_on_c, 0, 65, 55
1, 74354, Note_on_c, 0, 57, 44
1, 74374, Note_on_c, 0, 51, 42
1, 74575, Note_on_c, 0, 62, 64
1, 74579, Note_on_c, 0, 59, 52
1, 74592, Note_on_c, 0, 48, 58
1, 74592, Note_on_c, 0, 54, 56
1, 74621, Note_off_c, 0, 57, 52
1, 74621, Note_off_c, 0, 65, 57
1, 74624, Note_off_c, 0, 51, 58
1, 74779, Note_on_c, 0, 51, 64
1, 74780, Note_on_c, 0, 57, 56
1, 74782, Note_on_c, 0, 65, 71
1, 74792, Note_off_c, 0, 59, 59
1, 74802, Note_off_c, 0, 62, 57
1, 74833, Note_off_c, 0, 54, 60
1, 74927, Note_off_c, 0, 57, 57
1, 75143, Note_on_c, 0, 68, 62
1, 75146, Note_on_c, 0, 57, 40
1, 75152, Note_on_c, 0, 54, 38
1, 75153, Note_on_c, 0, 63, 45
1, 75157, Note_on_c, 0, 59, 39
1, 75286, Note_off_c, 0, 65, 30
1, 75315, Control_c, 0, 64, 85
1, 75330, Control_c, 0, 64, 60
1, 75345, Control_c, 0, 64, 0
1, 75419, Control_c, 0, 64, 60
1, 75433, Control_c, 0, 64, 75
1, 75448, Control_c, 0, 64, 127
1, 75510, Note_off_c, 0, 57, 33
1, 75528, Note_off_c, 0, 54, 53
1, 75554, Note_off_c, 0, 48, 57
1, 75557, Note_off_c, 0, 51, 60
1, 75703, Note_off_c, 0, 59, 44
1, 75705, Note_off_c, 0, 68, 51
1, 75734, Note_off_c, 0, 63, 54
1, 75927, Note_on_c, 0, 26, 54
1, 75997, Note_off_c, 0, 26, 60
1, 76320, Note_on_c, 0, 65, 70
1, 76348, Note_on_c, 0, 57, 48
1, 76389, Note_on_c, 0, 48, 55
1, 76407, Note_on_c, 0, 54, 49
1, 76567, Note_on_c, 0, 62, 65
1, 76575, Note_on_c, 0, 51, 67
1, 76585, Note_on_c, 0, 59, 62
1, 76624, Note_off_c, 0, 57, 52
1, 76628, Note_off_c, 0, 65, 59
1, 76691, Note_off_c, 0, 59, 58
1, 76698, Note_off_c, 0, 62, 60
1, 76758, Note_on_c, 0, 57, 58
1, 76760, Note_on_c, 0, 63, 75
1, 76765, Note_on_c, 0, 50, 61
1, 76778, Note_off_c, 0, 54, 23
1, 76813, Note_off_c, 0, 51, 54
1, 76843, Note_off_c, 0, 48, 52
1, 76852, Poly_aftertouch_c, 0, 60, 127
1, 76880, Note_off_c, 0, 57, 56
1, 76885, Poly_aftertouch_c, 0, 60, 0
1, 77102, Note_on_c, 0, 66, 61
1, 77104, Note_off_c, 0, 63, 38
1, 77107, Note_on_c, 0, 59, 45
1, 77107, Note_on_c, 0, 61, 37
1, 77116, Note_on_c, 0, 57, 36
1, 77127, Note_on_c, 0, 51, 39
1, 77236, Control_c, 0, 64, 77
1, 77250, Control_c, 0, 64, 52
1, 77265, Control_c, 0, 64, 0
1, 77283, Note_off_c, 0, 50, 36
1, 77340, Control_c, 0, 64, 56
1, 77354, Control_c, 0, 64, 70
1, 77369, Control_c, 0, 64, 90
1, 77384, Control_c, 0, 64, 127
1, 77470, Note_off_c, 0, 51, 57
1, 77487, Note_off_c, 0, 59, 35
1, 77524, Note_off_c, 0, 66, 62
1, 77613, Note_off_c, 0, 57, 52
1, 77697, Note_off_c, 0, 61, 53
1, 77994, Note_on_c, 0, 71, 52
1, 78005, Note_on_c, 0, 62, 31
1, 78013, Note_on_c, 0, 68, 47
1, 78015, Note_on_c, 0, 60, 39
1, 78020, Note_on_c, 0, 57, 26
1, 78024, Note_on_c, 0, 54, 30
1, 78245, Note_off_c, 0, 57, 51
1, 78392, Note_off_c, 0, 62, 42
1, 78393, Note_off_c, 0, 60, 56
1, 78470, Note_off_c, 0, 71, 53
1, 78473, Control_c, 0, 67, 16
1, 78477, Note_off_c, 0, 54, 45
1, 78496, Control_c, 0, 67, 35
1, 78501, Note_off_c, 0, 68, 49
1, 78510, Control_c, 0, 67, 56
1, 78525, Control_c, 0, 67, 74
1, 78540, Control_c, 0, 67, 92
1, 78555, Control_c, 0, 67, 108
1, 78570, Control_c, 0, 67, 122
1, 78584, Control_c, 0, 67, 127
1, 78604, Note_on_c, 0, 51, 59
1, 78657, Note_on_c, 0, 57, 52
1, 78691, Note_on_c, 0, 59, 55
1, 78728, Note_off_c, 0, 51, 59
1, 78739, Note_off_c, 0, 59, 61
1, 78740, Note_off_c, 0, 57, 59
1, 78747, Control_c, 0, 67, 112
1, 78758, Note_on_c, 0, 61, 62
1, 78762, Control_c, 0, 67, 85
1, 78777, Control_c, 0, 67, 43
1, 78792, Control_c, 0, 67, 0
1, 78802, Note_off_c, 0, 61, 57
1, 78868, Note_on_c, 0, 66, 64
1, 78911, Note_off_c, 0, 66, 62
1, 78956, Note_on_c, 0, 80, 73
1, 78960, Note_on_c, 0, 78, 71
1, 79185, Note_on_c, 0, 82, 79
1, 79199, Note_on_c, 0, 73, 54
1, 79241, Note_off_c, 0, 73, 62
1, 79242, Note_off_c, 0, 78, 57
1, 79269, Note_off_c, 0, 80, 58
1, 79412, Note_on_c, 0, 83, 73
1, 79437, Note_on_c, 0, 78, 44
1, 79447, Note_on_c, 0, 76, 47
1, 79471, Note_on_c, 0, 68, 59
1, 79508, Note_off_c, 0, 82, 33
1, 79570, Note_off_c, 0, 78, 36
1, 79644, Note_on_c, 0, 70, 60
1, 79815, Note_on_c, 0, 71, 71
1, 79847, Note_off_c, 0, 76, 56
1, 79957, Note_on_c, 0, 82, 79
1, 79959, Note_off_c, 0, 83, 58
1, 79969, Note_on_c, 0, 79, 61
1, 80007, Note_off_c, 0, 70, 28
1, 80037, Note_off_c, 0, 68, 59
1, 80112, Note_off_c, 0, 82, 53
1, 80141, Note_on_c, 0, 85, 81
1, 80148, Note_on_c, 0, 77, 68
1, 80193, Note_off_c, 0, 79, 21
1, 80302, Note_on_c, 0, 70, 68
1, 80330, Note_off_c, 0, 77, 48
1, 80356, Note_off_c, 0, 71, 59
1, 80377, Note_off_c, 0, 85, 60
1, 80540, Note_on_c, 0, 79, 62
1, 80547, Note_on_c, 0, 73, 49
1, 80547, Note_on_c, 0, 76, 56
1, 80626, Note_off_c, 0, 76, 58
1, 80657, Note_off_c, 0, 79, 52
1, 80956, Note_on_c, 0, 68, 49
1, 80980, Note_off_c, 0, 68, 62
1, 80980, Note_off_c, 0, 70, 43
1, 81041, Note_off_c, 0, 73, 53
1, 81142, Note_on_c, 0, 92, 85
1, 81154, Note_on_c, 0, 86, 65
1, 81155, Note_on_c, 0, 82, 64
1, 81158, Note_on_c, 0, 77, 68
1, 81230, Note_off_c, 0, 86, 59
1, 81388, Note_on_c, 0, 91, 80
1, 81391, Note_on_c, 0, 85, 68
1, 81391, Note_on_c, 0, 74, 61
1, 81399, Note_on_c, 0, 80, 63
1, 81439, Note_off_c, 0, 77, 57
1, 81449, Note_off_c, 0, 92, 66
1, 81506, Note_off_c, 0, 85, 64
1, 81626, Note_off_c, 0, 80, 63
1, 81815, Note_on_c, 0, 77, 66
1, 81816, Note_on_c, 0, 94, 76
1, 81817, Note_on_c, 0, 88, 65
1, 81827, Note_on_c, 0, 71, 59
1, 81843, Note_off_c, 0, 77, 66
1, 81855, Note_off_c, 0, 74, 62
1, 81872, Note_off_c, 0, 71, 61
1, 81887, Note_off_c, 0, 94, 65
1, 81889, Note_off_c, 0, 91, 46
1, 81898, Note_off_c, 0, 82, 58
1, 81904, Note_off_c, 0, 88, 61
1, 82087, Note_on_c, 0, 49, 59
1, 82154, Note_on_c, 0, 54, 63
1, 82175, Note_off_c, 0, 49, 54
1, 82236, Note_on_c, 0, 57, 58
1, 82308, Note_on_c, 0, 59, 77
1, 82400, Note_on_c, 0, 64, 77
1, 82423, Note_off_c, 0, 54, 55
1, 82469, Note_on_c, 0, 78, 80
1, 82476, Note_on_c, 0, 75, 69
1, 82479, Note_off_c, 0, 64, 61
1, 82491, Note_off_c, 0, 59, 56
1, 82502, Note_off_c, 0, 57, 36
1, 82713, Note_on_c, 0, 80, 83
1, 82732, Note_on_c, 0, 71, 61
1, 82741, Note_off_c, 0, 75, 62
1, 82788, Note_off_c, 0, 71, 58
1, 82817, Note_off_c, 0, 78, 37
1, 82937, Note_on_c, 0, 76, 63
1, 82938, Note_on_c, 0, 81, 84
1, 82951, Note_on_c, 0, 74, 69
1, 82974, Note_on_c, 0, 66, 69
1, 83045, Note_off_c, 0, 80, 36
1, 83084, Note_off_c, 0, 76, 63
1, 83141, Note_on_c, 0, 68, 84
1, 83317, Note_on_c, 0, 69, 79
1, 83355, Note_off_c, 0, 66, 64
1, 83373, Note_off_c, 0, 68, 59
1, 83466, Note_off_c, 0, 74, 54
1, 83478, Note_on_c, 0, 80, 78
1, 83482, Note_on_c, 0, 77, 73
1, 83505, Note_off_c, 0, 81, 56
1, 83665, Note_on_c, 0, 83, 82
1, 83674, Note_on_c, 0, 75, 64
1, 83707, Note_off_c, 0, 80, 61
1, 83710, Note_off_c, 0, 77, 58
1, 83828, Note_on_c, 0, 68, 82
1, 83858, Note_off_c, 0, 75, 61
1, 84030, Note_on_c, 0, 77, 80
1, 84032, Note_on_c, 0, 74, 68
1, 84040, Note_on_c, 0, 71, 73
1, 84105, Note_off_c, 0, 83, 55
1, 84146, Note_off_c, 0, 69, 12
1, 84157, Note_off_c, 0, 71, 59
1, 84179, Note_off_c, 0, 68, 49
1, 84474, Note_off_c, 0, 74, 61
1, 84485, Note_off_c, 0, 77, 55
1, 84496, Note_on_c, 0, 66, 75
1, 84587, Note_off_c, 0, 66, 65
1, 85131, Note_on_c, 0, 65, 69
1, 85144, Note_on_c, 0, 57, 54
1, 85149, Note_on_c, 0, 54, 54
1, 85153, Note_on_c, 0, 48, 56
1, 85319, Note_off_c, 0, 57, 56
1, 85497, Note_on_c, 0, 66, 70
1, 85510, Note_on_c, 0, 59, 47
1, 85512, Note_on_c, 0, 62, 40
1, 85514, Note_on_c, 0, 51, 55
1, 85514, Note_on_c, 0, 57, 45
1, 85644, Note_off_c, 0, 48, 59
1, 85657, Note_off_c, 0, 57, 58
1, 85658, Note_off_c, 0, 65, 36
1, 85663, Note_off_c, 0, 54, 51
1, 85713, Note_off_c, 0, 66, 64
1, 85723, Note_off_c, 0, 59, 37
1, 85981, Note_on_c, 0, 65, 70
1, 85989, Note_on_c, 0, 57, 66
1, 85992, Note_on_c, 0, 54, 69
1, 85993, Note_on_c, 0, 48, 70
1, 86027, Note_off_c, 0, 51, 60
1, 86110, Note_off_c, 0, 57, 52
1, 86298, Note_on_c, 0, 63, 67
1, 86298, Note_on_c, 0, 68, 85
1, 86300, Note_on_c, 0, 57, 77
1, 86300, Note_on_c, 0, 51, 79
1, 86304, Note_on_c, 0, 59, 73
1, 86339, Note_off_c, 0, 48, 62
1, 86343, Note_off_c, 0, 62, 50
1, 86346, Note_off_c, 0, 54, 59
1, 86360, Note_off_c, 0, 59, 59
1, 86408, Note_off_c, 0, 51, 61
1, 86413, Note_off_c, 0, 57, 62
1, 86426, Note_off_c, 0, 63, 53
1, 86433, Note_off_c, 0, 65, 34
1, 86438, Note_off_c, 0, 68, 59
1, 86744, Note_on_c, 0, 81, 79
1, 86745, Note_on_c, 0, 66, 82
1, 86952, Note_on_c, 0, 88, 68
1, 86956, Note_on_c, 0, 74, 75
1, 86959, Note_on_c, 0, 87, 76
1, 86961, Note_on_c, 0, 92, 80
1, 86971, Note_off_c, 0, 81, 53
1, 86995, Note_off_c, 0, 66, 64
1, 87012, Note_off_c, 0, 88, 63
1, 87034, Note_off_c, 0, 74, 62
1, 87044, Note_off_c, 0, 92, 66
1, 87210, Note_on_c, 0, 95, 90
1, 87210, Note_on_c, 0, 92, 82
1, 87216, Note_on_c, 0, 84, 74
1, 87403, Note_off_c, 0, 84, 63
1, 87415, Note_off_c, 0, 95, 63
1, 87426, Note_on_c, 0, 72, 85
1, 87473, Note_off_c, 0, 87, 54
1, 87480, Note_off_c, 0, 92, 61
1, 87704, Note_on_c, 0, 90, 90
1, 87964, Note_off_c, 0, 90, 64
1, 88003, Note_on_c, 0, 98, 86
1, 88007, Note_on_c, 0, 93, 81
1, 88012, Note_on_c, 0, 80, 82
1, 88051, Note_on_c, 0, 97, 34
1, 88092, Note_off_c, 0, 97, 50
1, 88182, Note_off_c, 0, 93, 56
1, 88228, Note_off_c, 0, 98, 66
1, 88694, Note_on_c, 0, 101, 97
1, 88703, Note_on_c, 0, 96, 84
1, 88714, Note_on_c, 0, 83, 64
1, 88824, Note_off_c, 0, 83, 62
1, 88845, Note_off_c, 0, 80, 64
1, 88881, Note_off_c, 0, 72, 62
1, 88894, Note_off_c, 0, 101, 64
1, 88948, Note_off_c, 0, 96, 61
1, 89568, Note_on_c, 0, 62, 94
1, 89569, Note_on_c, 0, 55, 85
1, 89576, Note_on_c, 0, 61, 78
1, 89580, Note_on_c, 0, 57, 71
1, 89581, Note_on_c, 0, 59, 73
1, 89600, Note_on_c, 0, 51, 81
1, 89610, Note_on_c, 0, 48, 71
1, 89866, Note_off_c, 0, 55, 61
1, 89881, Note_off_c, 0, 61, 58
1, 90018, Note_off_c, 0, 62, 25
1, 90076, Note_off_c, 0, 51, 55
1, 90094, Note_off_c, 0, 57, 37
1, 90155, Note_off_c, 0, 59, 58
1, 90259, Note_on_c, 0, 65, 95
1, 90264, Note_on_c, 0, 60, 81
1, 90265, Note_on_c, 0, 50, 83
1, 90268, Note_on_c, 0, 54, 86
1, 90270, Note_on_c, 0, 45, 81
1, 90315, Note_off_c, 0, 60, 56
1, 90328, Note_off_c, 0, 65, 64
1, 90340, Note_off_c, 0, 48, 52
1, 90347, Poly_aftertouch_c, 0, 62, 127
1, 90378, Poly_aftertouch_c, 0, 62, 0
1, 90390, Note_off_c, 0, 54, 61
1, 90557, Note_off_c, 0, 45, 57
1, 90590, Note_off_c, 0, 50, 59
1, 91031, Note_on_c, 0, 80, 95
1, 91039, Note_on_c, 0, 69, 79
1, 91046, Note_on_c, 0, 26, 91
1, 91160, Note_off_c, 0, 26, 61
1, 91307, Note_off_c, 0, 69, 57
1, 91391, Note_off_c, 0, 80, 59
1, 91532, Note_on_c, 0, 81, 97
1, 91538, Note_on_c, 0, 72, 79
1, 91642, Note_on_c, 0, 54, 93
1, 91708, Note_off_c, 0, 72, 60
1, 91709, Note_off_c, 0, 81, 56
1, 91827, Note_on_c, 0, 83, 91
1, 91831, Note_on_c, 0, 75, 84
1, 91927, Note_off_c, 0, 75, 63
1, 91934, Note_off_c, 0, 83, 60
1, 91989, Note_off_c, 0, 54, 59
1, 92114, Note_on_c, 0, 84, 95
1, 92117, Note_on_c, 0, 78, 90
1, 92198, Note_off_c, 0, 78, 60
1, 92206, Note_on_c, 0, 62, 102
1, 92214, Note_off_c, 0, 84, 62
1, 92292, Note_off_c, 0, 62, 62
1, 92423, Note_on_c, 0, 80, 92
1, 92424, Note_on_c, 0, 86, 89
1, 92462, Note_off_c, 0, 80, 67
1, 92482, Note_off_c, 0, 86, 62
1, 92629, Note_on_c, 0, 68, 103
1, 92680, Note_off_c, 0, 68, 68
1, 92783, Note_on_c, 0, 88, 92
1, 92787, Note_on_c, 0, 82, 90
1, 92857, Note_off_c, 0, 82, 61
1, 92863, Note_off_c, 0, 88, 63
1, 93227, Note_on_c, 0, 92, 93
1, 93237, Note_on_c, 0, 81, 78
1, 93267, Note_on_c, 0, 76, 103
1, 93377, Note_off_c, 0, 81, 56
1, 93436, Note_off_c, 0, 92, 63
1, 93723, Note_off_c, 0, 76, 60
1, 93770, Note_on_c, 0, 93, 97
1, 93780, Note_on_c, 0, 84, 85
1, 93902, Note_on_c, 0, 83, 93
1, 94012, Note_off_c, 0, 93, 56
1, 94015, Note_off_c, 0, 84, 60
1, 94084, Note_on_c, 0, 95, 89
1, 94091, Note_on_c, 0, 87, 77
1, 94265, Note_off_c, 0, 87, 62
1, 94284, Note_off_c, 0, 95, 64
1, 94420, Note_on_c, 0, 96, 86
1, 94428, Note_on_c, 0, 90, 69
1, 94551, Note_on_c, 0, 87, 79
1, 94583, Note_off_c, 0, 83, 56
1, 94640, Note_off_c, 0, 90, 62
1, 94652, Note_off_c, 0, 96, 61
1, 94819, Note_on_c, 0, 98, 80
1, 94826, Note_on_c, 0, 92, 71
1, 94972, Note_off_c, 0, 87, 50
1, 95185, Note_off_c, 0, 98, 65
1, 95306, Note_on_c, 0, 100, 81
1, 95326, Note_on_c, 0, 94, 64
1, 95459, Note_off_c, 0, 100, 62
1, 95483, Note_off_c, 0, 92, 30
1, 95505, Note_off_c, 0, 94, 59
1, 95872, Note_on_c, 0, 51, 51
1, 95981, Note_on_c, 0, 62, 86
1, 95994, Note_on_c, 0, 59, 67
1, 96022, Note_off_c, 0, 51, 54
1, 96382, Note_on_c, 0, 26, 67
1, 96433, Note_off_c, 0, 59, 57
1, 96475, Note_off_c, 0, 62, 51
1, 96878, Note_on_c, 0, 65, 72
1, 96883, Note_on_c, 0, 57, 58
1, 96889, Note_on_c, 0, 54, 58
1, 97118, Note_off_c, 0, 26, 59
1, 97184, Note_off_c, 0, 54, 50
1, 97538, Note_off_c, 0, 57, 62
1, 97626, Note_off_c, 0, 65, 32
1, 97932, Note_on_c, 0, 45, 49
1, 98323, Note_on_c, 0, 73, 62
1, 98577, Note_on_c, 0, 50, 31
1, 98661, Note_off_c, 0, 73, 57
1, 98665, Note_on_c, 0, 78, 28
1, 98720, Note_on_c, 0, 81, 65
1, 98785, Note_off_c, 0, 78, 42
1, 99086, Note_on_c, 0, 53, 29
1, 99336, Note_on_c, 0, 92, 57
1, 99602, Note_off_c, 0, 45, 36
1, 99639, Note_off_c, 0, 81, 34
1, 99651, Note_off_c, 0, 53, 42
1, 99667, Note_off_c, 0, 92, 49
1, 100720, Note_off_c, 0, 50, 0
1, 100758, Poly_aftertouch_c, 0, 50, 127
1, 101255, Control_c, 0, 67, 9
1, 101270, Control_c, 0, 67, 18
1, 101277, Note_on_c, 0, 62, 45
1, 101277, Poly_aftertouch_c, 0, 50, 0
1, 101283, Note_on_c, 0, 51, 34
1, 101285, Control_c, 0, 67, 25
1, 101288, Note_on_c, 0, 59, 38
1, 101300, Control_c, 0, 67, 32
1, 101314, Control_c, 0, 67, 40
1, 101329, Control_c, 0, 67, 48
1, 101344, Control_c, 0, 67, 56
1, 101359, Control_c, 0, 67, 63
1, 101373, Control_c, 0, 67, 71
1, 101388, Control_c, 0, 67, 79
1, 101403, Control_c, 0, 67, 88
1, 101418, Control_c, 0, 67, 98
1, 101433, Control_c, 0, 67, 109
1, 101447, Control_c, 0, 67, 118
1, 101462, Control_c, 0, 67, 126
1, 101477, Control_c, 0, 67, 127
1, 101854, Note_off_c, 0, 59, 40
1, 101864, Note_on_c, 0, 26, 42
1, 101886, Note_off_c, 0, 51, 48
1, 102124, Note_off_c, 0, 62, 35
1, 102272, Note_on_c, 0, 65, 43
1, 102280, Note_on_c, 0, 54, 26
1, 102284, Note_on_c, 0, 57, 33
1, 102293, Note_off_c, 0, 26, 32
1, 102518, Note_off_c, 0, 54, 40
1, 102831, Note_off_c, 0, 65, 39
1, 102890, Note_off_c, 0, 57, 38
1, 103080, Note_on_c, 0, 45, 33
1, 103534, Note_on_c, 0, 73, 48
1, 103677, Note_off_c, 0, 73, 61
1, 103772, Note_on_c, 0, 50, 19
1, 103936, Note_on_c, 0, 81, 43
1, 104035, Note_off_c, 0, 81, 60
1, 104247, Note_on_c, 0, 53, 31
1, 104830, Note_on_c, 0, 92, 44
1, 105113, Note_off_c, 0, 92, 42
1, 105991, Note_off_c, 0, 45, 35
1, 106270, Note_off_c, 0, 50, 35
1, 106321, Note_off_c, 0, 53, 31
1, 107742, Control_c, 0, 67, 119
1, 107757, Control_c, 0, 67, 96
1, 107772, Control_c, 0, 67, 70
1, 107787, Control_c, 0, 67, 44
1, 107802, Control_c, 0, 67, 20
1, 107817, Control_c, 0, 67, 0
1, 108669, Control_c, 0, 67, 11
1, 108684, Control_c, 0, 67, 21
1, 108699, Control_c, 0, 67, 29
1, 108714, Control_c, 0, 67, 35
1, 108729, Control_c, 0, 67, 42
1, 108744, Control_c, 0, 67, 47
1, 108758, Control_c, 0, 67, 51
1, 108773, Control_c, 0, 67, 56
1, 108788, Control_c, 0, 67, 61
1, 108803, Control_c, 0, 67, 64
1, 108817, Control_c, 0, 67, 65
1, 108831, Control_c, 0, 67, 68
1, 108846, Control_c, 0, 67, 72
1, 108861, Control_c, 0, 67, 78
1, 108875, Control_c, 0, 67, 84
1, 108890, Control_c, 0, 67, 90
1, 108905, Control_c, 0, 67, 96
1, 108920, Control_c, 0, 67, 101
1, 108935, Control_c, 0, 67, 106
1, 108949, Control_c, 0, 67, 112
1, 108964, Control_c, 0, 67, 117
1, 108979, Control_c, 0, 67, 122
1, 108994, Control_c, 0, 67, 126
1, 109009, Control_c, 0, 67, 127
1, 109638, Control_c, 0, 64, 125
1, 109653, Control_c, 0, 64, 115
1, 109668, Control_c, 0, 64, 111
1, 109683, Control_c, 0, 64, 108
1, 109698, Control_c, 0, 64, 105
1, 109713, Control_c, 0, 64, 100
1, 109727, Control_c, 0, 64, 95
1, 109742, Control_c, 0, 64, 91
1, 109757, Control_c, 0, 64, 84
1, 109772, Control_c, 0, 64, 77
1, 109787, Control_c, 0, 64, 69
1, 109802, Control_c, 0, 64, 61
1, 109817, Control_c, 0, 64, 0
1, 109884, Note_on_c, 0, 81, 43
1, 109887, Note_on_c, 0, 73, 30
1, 109903, Note_on_c, 0, 74, 27
1, 109973, Control_c, 0, 64, 32
1, 109988, Control_c, 0, 64, 63
1, 110003, Control_c, 0, 64, 71
1, 110017, Control_c, 0, 64, 93
1, 110032, Control_c, 0, 64, 127
1, 110263, Note_on_c, 0, 86, 46
1, 110289, Note_off_c, 0, 81, 33
1, 110292, Note_on_c, 0, 70, 23
1, 110299, Note_on_c, 0, 62, 31
1, 110311, Note_on_c, 0, 82, 21
1, 110356, Poly_aftertouch_c, 0, 78, 127
1, 110375, Note_off_c, 0, 74, 56
1, 110383, Note_off_c, 0, 86, 51
1, 110440, Poly_aftertouch_c, 0, 78, 0
1, 110445, Note_off_c, 0, 73, 40
1, 110476, Note_off_c, 0, 62, 42
1, 110495, Note_off_c, 0, 82, 44
1, 110573, Note_on_c, 0, 85, 45
1, 110574, Note_on_c, 0, 81, 16
1, 110600, Note_on_c, 0, 74, 26
1, 110606, Note_on_c, 0, 66, 36
1, 110619, Note_off_c, 0, 81, 48
1, 110664, Note_off_c, 0, 70, 45
1, 110818, Note_on_c, 0, 73, 30
1, 110824, Note_on_c, 0, 82, 50
1, 110836, Note_on_c, 0, 79, 35
1, 110858, Note_off_c, 0, 74, 36
1, 110866, Note_off_c, 0, 85, 33
1, 110938, Note_off_c, 0, 73, 37
1, 111015, Note_off_c, 0, 82, 51
1, 111024, Note_off_c, 0, 79, 40
1, 111026, Note_on_c, 0, 74, 38
1, 111028, Note_on_c, 0, 81, 55
1, 111029, Note_off_c, 0, 66, 47
1, 111042, Note_on_c, 0, 70, 32
1, 111046, Note_on_c, 0, 64, 36
1, 111201, Note_off_c, 0, 74, 56
1, 111213, Note_on_c, 0, 82, 63
1, 111214, Note_on_c, 0, 66, 49
1, 111218, Note_off_c, 0, 81, 49
1, 111218, Note_off_c, 0, 64, 43
1, 111218, Note_on_c, 0, 79, 47
1, 111246, Note_off_c, 0, 70, 47
1, 111352, Note_off_c, 0, 79, 34
1, 111366, Note_off_c, 0, 82, 0
1, 111370, Note_off_c, 0, 66, 56
1, 111400, Note_on_c, 0, 81, 58
1, 111403, Poly_aftertouch_c, 0, 82, 127
1, 111421, Note_on_c, 0, 74, 48
1, 111424, Note_on_c, 0, 73, 39
1, 111425, Note_on_c, 0, 62, 47
1, 111471, Poly_aftertouch_c, 0, 82, 0
1, 111556, Note_off_c, 0, 81, 51
1, 111572, Note_off_c, 0, 74, 32
1, 111586, Note_on_c, 0, 82, 53
1, 111594, Note_off_c, 0, 73, 47
1, 111602, Note_on_c, 0, 86, 41
1, 111606, Note_on_c, 0, 70, 51
1, 111609, Note_off_c, 0, 62, 44
1, 111613, Note_on_c, 0, 78, 39
1, 111631, Note_off_c, 0, 86, 54
1, 111659, Note_off_c, 0, 78, 45
1, 111674, Note_off_c, 0, 82, 60
1, 111777, Note_on_c, 0, 81, 49
1, 111779, Note_on_c, 0, 85, 55
1, 111782, Note_on_c, 0, 66, 56
1, 111784, Note_off_c, 0, 70, 55
1, 111789, Note_on_c, 0, 74, 35
1, 111813, Note_off_c, 0, 81, 60
1, 111920, Note_off_c, 0, 74, 36
1, 111948, Note_off_c, 0, 85, 59
1, 111963, Note_off_c, 0, 66, 57
1, 111966, Note_on_c, 0, 82, 51
1, 111972, Note_on_c, 0, 79, 46
1, 111982, Note_on_c, 0, 64, 50
1, 111986, Note_on_c, 0, 73, 45
1, 112014, Note_off_c, 0, 79, 58
1, 112097, Note_off_c, 0, 82, 60
1, 112146, Note_off_c, 0, 73, 54
1, 112211, Note_on_c, 0, 90, 57
1, 112222, Note_on_c, 0, 70, 46
1, 112222, Note_on_c, 0, 81, 46
1, 112286, Note_off_c, 0, 90, 61
1, 112392, Note_off_c, 0, 64, 35
1, 112451, Note_off_c, 0, 81, 51
1, 112454, Note_on_c, 0, 66, 47
1, 112464, Note_on_c, 0, 79, 46
1, 112476, Note_on_c, 0, 82, 61
1, 112484, Note_off_c, 0, 70, 36
1, 112512, Note_off_c, 0, 66, 52
1, 112566, Note_off_c, 0, 82, 58
1, 112579, Note_off_c, 0, 79, 34
1, 112766, Note_on_c, 0, 78, 73
1, 112813, Note_on_c, 0, 62, 38
1, 112997, Control_c, 0, 64, 110
1, 113012, Control_c, 0, 64, 83
1, 113027, Control_c, 0, 64, 72
1, 113042, Control_c, 0, 64, 70
1, 113054, Note_on_c, 0, 66, 49
1, 113054, Note_on_c, 0, 77, 57
1, 113056, Control_c, 0, 64, 72
1, 113058, Note_on_c, 0, 72, 32
1, 113071, Control_c, 0, 64, 86
1, 113086, Control_c, 0, 64, 127
1, 113115, Note_off_c, 0, 72, 44
1, 113235, Note_off_c, 0, 78, 29
1, 113248, Note_off_c, 0, 62, 35
1, 113250, Note_on_c, 0, 80, 62
1, 113257, Note_off_c, 0, 77, 58
1, 113261, Note_on_c, 0, 69, 44
1, 113276, Note_on_c, 0, 74, 18
1, 113315, Note_off_c, 0, 80, 63
1, 113318, Note_off_c, 0, 74, 55
1, 113428, Note_off_c, 0, 66, 46
1, 113460, Note_on_c, 0, 82, 40
1, 113480, Note_on_c, 0, 90, 70
1, 113486, Note_on_c, 0, 62, 39
1, 113498, Note_on_c, 0, 60, 41
1, 113500, Note_on_c, 0, 83, 48
1, 113511, Note_off_c, 0, 82, 0
1, 113511, Note_on_c, 0, 82, 6
1, 113552, Note_off_c, 0, 83, 62
1, 113564, Note_off_c, 0, 69, 37
1, 113647, Note_off_c, 0, 82, 45
1, 113725, Note_off_c, 0, 60, 56
1, 113742, Note_on_c, 0, 89, 62
1, 113744, Note_on_c, 0, 66, 52
1, 113751, Note_on_c, 0, 85, 47
1, 113769, Note_on_c, 0, 81, 45
1, 113783, Note_off_c, 0, 90, 56
1, 113804, Note_off_c, 0, 62, 40
1, 113815, Note_off_c, 0, 66, 64
1, 113821, Note_off_c, 0, 81, 52
1, 114002, Note_on_c, 0, 77, 53
1, 114004, Note_on_c, 0, 92, 64
1, 114007, Note_on_c, 0, 83, 47
1, 114023, Note_on_c, 0, 87, 48
1, 114023, Note_off_c, 0, 77, 62
1, 114032, Note_off_c, 0, 83, 54
1, 114071, Note_off_c, 0, 87, 59
1, 114080, Note_off_c, 0, 85, 45
1, 114103, Note_off_c, 0, 89, 37
1, 114333, Note_on_c, 0, 90, 69
1, 114357, Note_on_c, 0, 62, 38
1, 114366, Note_on_c, 0, 70, 38
1, 114366, Note_on_c, 0, 83, 35
1, 114466, Control_c, 0, 64, 111
1, 114481, Control_c, 0, 64, 85
1, 114491, Note_off_c, 0, 92, 56
1, 114495, Control_c, 0, 64, 76
1, 114510, Control_c, 0, 64, 73
1, 114525, Note_off_c, 0, 70, 65
1, 114525, Control_c, 0, 64, 74
1, 114540, Control_c, 0, 64, 79
1, 114555, Control_c, 0, 64, 95
1, 114569, Control_c, 0, 64, 127
1, 114633, Note_off_c, 0, 83, 44
1, 114635, Note_on_c, 0, 94, 73
1, 114637, Note_on_c, 0, 91, 48
1, 114637, Note_off_c, 0, 90, 58
1, 114640, Note_on_c, 0, 85, 51
1, 114641, Note_on_c, 0, 59, 45
1, 114647, Note_on_c, 0, 67, 51
1, 114649, Note_off_c, 0, 62, 41
1, 114729, Note_off_c, 0, 59, 55
1, 114741, Note_off_c, 0, 94, 65
1, 114762, Note_off_c, 0, 91, 46
1, 114810, Note_off_c, 0, 85, 49
1, 114835, Note_off_c, 0, 67, 35
1, 114846, Note_on_c, 0, 90, 55
1, 114853, Note_on_c, 0, 63, 51
1, 114855, Note_on_c, 0, 93, 73
1, 114866, Note_on_c, 0, 83, 50
1, 114887, Note_off_c, 0, 90, 62
1, 115045, Note_on_c, 0, 70, 63
1, 115046, Note_on_c, 0, 91, 74
1, 115063, Note_on_c, 0, 85, 56
1, 115097, Note_off_c, 0, 83, 34
1, 115147, Note_off_c, 0, 93, 48
1, 115229, Note_on_c, 0, 83, 57
1, 115237, Note_on_c, 0, 61, 57
1, 115239, Note_on_c, 0, 90, 80
1, 115241, Note_on_c, 0, 67, 64
1, 115245, Note_off_c, 0, 85, 55
1, 115266, Note_off_c, 0, 70, 46
1, 115267, Note_off_c, 0, 63, 49
1, 115282, Note_off_c, 0, 91, 58
1, 115328, Note_off_c, 0, 61, 59
1, 115356, Note_off_c, 0, 83, 39
1, 115398, Note_on_c, 0, 91, 78
1, 115403, Note_on_c, 0, 85, 72
1, 115406, Note_on_c, 0, 63, 65
1, 115431, Note_off_c, 0, 90, 62
1, 115433, Note_off_c, 0, 67, 58
1, 115492, Note_off_c, 0, 85, 59
1, 115513, Note_off_c, 0, 91, 48
1, 115557, Note_off_c, 0, 63, 56
1, 115570, Note_on_c, 0, 90, 70
1, 115576, Note_on_c, 0, 59, 59
1, 115579, Note_on_c, 0, 83, 63
1, 115579, Note_on_c, 0, 70, 59
1, 115645, Note_off_c, 0, 83, 58
1, 115674, Note_off_c, 0, 90, 58
1, 115701, Note_off_c, 0, 70, 51
1, 115712, Note_off_c, 0, 59, 38
1, 115741, Note_on_c, 0, 91, 68
1, 115746, Note_on_c, 0, 94, 79
1, 115749, Note_on_c, 0, 88, 61
1, 115752, Note_on_c, 0, 67, 55
1, 115782, Note_off_c, 0, 88, 63
1, 115805, Note_off_c, 0, 91, 58
1, 115829, Note_off_c, 0, 94, 59
1, 115921, Note_on_c, 0, 63, 63
1, 115925, Note_on_c, 0, 93, 80
1, 115931, Note_on_c, 0, 90, 70
1, 115939, Note_on_c, 0, 83, 58
1, 115950, Note_off_c, 0, 67, 35
1, 115975, Note_off_c, 0, 90, 58
1, 115987, Note_off_c, 0, 83, 58
1, 116064, Note_off_c, 0, 63, 59
1, 116078, Note_off_c, 0, 93, 32
1, 116081, Note_on_c, 0, 61, 54
1, 116081, Note_on_c, 0, 91, 66
1, 116083, Note_on_c, 0, 88, 60
1, 116092, Note_on_c, 0, 70, 51
1, 116118, Note_off_c, 0, 88, 63
1, 116120, Note_off_c, 0, 91, 57
1, 116163, Note_on_c, 0, 83, 63
1, 116187, Note_off_c, 0, 83, 53
1, 116242, Note_on_c, 0, 90, 65
1, 116290, Note_off_c, 0, 90, 61
1, 116306, Note_on_c, 0, 96, 60
1, 116358, Note_off_c, 0, 96, 58
1, 116439, Note_on_c, 0, 99, 85
1, 116468, Note_on_c, 0, 67, 40
1, 116474, Note_off_c, 0, 99, 62
1, 116650, Note_off_c, 0, 70, 59
1, 116722, Note_off_c, 0, 61, 54
1, 116873, Note_on_c, 0, 63, 34
1, 116896, Note_off_c, 0, 67, 57
1, 116907, Note_on_c, 0, 91, 72
1, 116917, Note_on_c, 0, 88, 58
1, 116959, Note_off_c, 0, 63, 37
1, 116971, Note_off_c, 0, 91, 57
1, 117019, Note_off_c, 0, 88, 60
1, 117198, Note_on_c, 0, 70, 74
1, 117216, Note_on_c, 0, 63, 51
1, 117428, Note_on_c, 0, 67, 63
1, 117429, Note_on_c, 0, 75, 75
1, 117481, Note_off_c, 0, 70, 60
1, 117614, Note_off_c, 0, 67, 60
1, 117617, Note_on_c, 0, 79, 73
1, 117618, Note_on_c, 0, 73, 64
1, 117624, Note_off_c, 0, 63, 36
1, 117629, Note_on_c, 0, 71, 60
1, 117648, Note_off_c, 0, 73, 63
1, 117653, Note_off_c, 0, 75, 59
1, 117655, Note_off_c, 0, 71, 66
1, 117683, Control_c, 0, 67, 117
1, 117689, Note_off_c, 0, 79, 62
1, 117698, Control_c, 0, 67, 86
1, 117713, Control_c, 0, 67, 40
1, 117728, Control_c, 0, 67, 0
1, 117850, Note_on_c, 0, 94, 77
1, 117873, Note_on_c, 0, 77, 18
1, 117885, Note_on_c, 0, 81, 45
1, 117922, Note_off_c, 0, 77, 47
1, 118085, Note_on_c, 0, 97, 76
1, 118101, Note_on_c, 0, 83, 55
1, 118111, Note_on_c, 0, 79, 43
1, 118141, Note_off_c, 0, 81, 36
1, 118178, Note_off_c, 0, 94, 59
1, 118256, Note_off_c, 0, 79, 34
1, 118332, Note_off_c, 0, 83, 58
1, 118333, Note_on_c, 0, 85, 57
1, 118335, Note_on_c, 0, 99, 69
1, 118351, Note_on_c, 0, 81, 53
1, 118369, Note_off_c, 0, 85, 62
1, 118384, Note_off_c, 0, 81, 64
1, 118388, Note_off_c, 0, 97, 54
1, 118398, Note_off_c, 0, 99, 62
1, 118692, Note_on_c, 0, 69, 75
1, 118726, Note_on_c, 0, 57, 40
1, 118915, Control_c, 0, 64, 101
1, 118929, Control_c, 0, 64, 88
1, 118944, Control_c, 0, 64, 83
1, 118959, Control_c, 0, 64, 83
1, 118989, Control_c, 0, 64, 85
1, 119004, Control_c, 0, 64, 98
1, 119019, Control_c, 0, 64, 127
1, 119057, Note_on_c, 0, 71, 61
1, 119067, Note_on_c, 0, 59, 47
1, 119192, Note_off_c, 0, 69, 63
1, 119322, Note_on_c, 0, 77, 60
1, 119339, Note_on_c, 0, 65, 39
1, 119343, Note_off_c, 0, 71, 56
1, 119402, Note_off_c, 0, 57, 36
1, 119402, Note_off_c, 0, 77, 59
1, 119442, Note_off_c, 0, 59, 42
1, 119552, Note_off_c, 0, 65, 40
1, 119602, Note_on_c, 0, 83, 53
1, 119623, Note_on_c, 0, 71, 40
1, 119692, Note_off_c, 0, 83, 62
1, 119976, Note_on_c, 0, 97, 58
1, 119985, Note_on_c, 0, 85, 45
1, 119998, Note_on_c, 0, 73, 38
1, 120071, Note_off_c, 0, 71, 43
1, 120116, Note_off_c, 0, 85, 60
1, 120137, Note_off_c, 0, 97, 53
1, 120651, Note_on_c, 0, 99, 47
1, 120667, Note_on_c, 0, 87, 40
1, 120670, Note_on_c, 0, 75, 27
1, 120771, Note_off_c, 0, 73, 37
1, 121007, Note_off_c, 0, 87, 56
1, 121014, Note_off_c, 0, 75, 40
1, 121214, Note_off_c, 0, 99, 36
1, 122687, Note_on_c, 0, 58, 38
1, 122756, Note_on_c, 0, 69, 54
1, 122762, Note_on_c, 0, 62, 49
1, 123060, Note_on_c, 0, 70, 50
1, 123080, Note_on_c, 0, 74, 64
1, 123092, Note_on_c, 0, 61, 51
1, 123094, Note_on_c, 0, 66, 49
1, 123096, Note_on_c, 0, 50, 50
1, 123205, Note_off_c, 0, 66, 60
1, 123210, Note_off_c, 0, 69, 42
1, 123234, Note_off_c, 0, 70, 61
1, 123299, Note_off_c, 0, 61, 38
1, 123383, Note_off_c, 0, 62, 34
1, 123600, Note_on_c, 0, 73, 44
1, 123609, Note_on_c, 0, 62, 37
1, 123618, Note_on_c, 0, 69, 35
1, 123619, Note_on_c, 0, 54, 33
1, 123624, Note_on_c, 0, 60, 34
1, 123660, Note_off_c, 0, 62, 0
1, 123660, Note_on_c, 0, 62, 5
1, 123710, Note_off_c, 0, 74, 57
1, 123776, Control_c, 0, 64, 106
1, 123792, Control_c, 0, 64, 78
1, 123806, Control_c, 0, 64, 62
1, 123821, Control_c, 0, 64, 0
1, 123835, Note_off_c, 0, 58, 51
1, 123853, Note_off_c, 0, 50, 37
1, 123999, Control_c, 0, 64, 47
1, 124014, Control_c, 0, 64, 62
1, 124029, Control_c, 0, 64, 66
1, 124044, Control_c, 0, 64, 72
1, 124059, Control_c, 0, 64, 86
1, 124073, Control_c, 0, 64, 118
1, 124088, Control_c, 0, 64, 127
1, 124159, Note_off_c, 0, 62, 42
1, 124173, Note_off_c, 0, 54, 48
1, 124197, Note_off_c, 0, 73, 35
1, 124243, Note_off_c, 0, 60, 35
1, 124399, Note_off_c, 0, 69, 37
1, 124672, Note_on_c, 0, 69, 35
1, 125272, Note_on_c, 0, 89, 58
1, 125286, Note_on_c, 0, 86, 42
1, 125291, Note_on_c, 0, 81, 32
1, 125294, Note_on_c, 0, 85, 38
1, 125693, Note_off_c, 0, 85, 46
1, 125701, Note_off_c, 0, 81, 40
1, 125841, Note_off_c, 0, 89, 53
1, 125937, Note_off_c, 0, 86, 36
1, 126602, Note_on_c, 0, 88, 38
1, 126610, Note_on_c, 0, 92, 46
1, 126622, Note_on_c, 0, 84, 30
1, 126674, Note_off_c, 0, 92, 55
1, 126686, Note_off_c, 0, 88, 57
1, 126698, Note_off_c, 0, 84, 51
1, 127727, Note_off_c, 0, 69, 42
1, 128048, Control_c, 0, 67, 10
1, 128062, Control_c, 0, 67, 24
1, 128077, Control_c, 0, 67, 35
1, 128092, Control_c, 0, 67, 45
1, 128106, Control_c, 0, 67, 57
1, 128121, Control_c, 0, 67, 71
1, 128136, Control_c, 0, 67, 84
1, 128151, Control_c, 0, 67, 97
1, 128166, Control_c, 0, 67, 110
1, 128180, Control_c, 0, 67, 123
1, 128195, Control_c, 0, 67, 127
1, 128698, Note_on_c, 0, 69, 36
1, 128710, Note_on_c, 0, 58, 36
1, 128713, Note_on_c, 0, 62, 37
1, 128898, Note_off_c, 0, 69, 35
1, 128981, Note_off_c, 0, 58, 42
1, 128998, Note_on_c, 0, 74, 50
1, 129001, Note_on_c, 0, 61, 46
1, 129003, Note_on_c, 0, 70, 32
1, 129015, Note_on_c, 0, 50, 41
1, 129042, Note_on_c, 0, 66, 24
1, 129081, Note_off_c, 0, 66, 50
1, 129097, Note_off_c, 0, 70, 51
1, 129163, Note_off_c, 0, 61, 35
1, 129178, Note_off_c, 0, 50, 35
1, 129220, Note_off_c, 0, 74, 54
1, 129224, Note_off_c, 0, 62, 26
1, 129396, Note_on_c, 0, 73, 43
1, 129401, Note_on_c, 0, 62, 36
1, 129408, Note_on_c, 0, 69, 38
1, 129417, Note_on_c, 0, 54, 31
1, 129418, Note_on_c, 0, 48, 43
1, 129544, Control_c, 0, 64, 87
1, 129559, Control_c, 0, 64, 69
1, 129574, Control_c, 0, 64, 48
1, 129589, Control_c, 0, 64, 0
1, 129723, Control_c, 0, 64, 53
1, 129738, Control_c, 0, 64, 63
1, 129752, Control_c, 0, 64, 68
1, 129767, Control_c, 0, 64, 75
1, 129781, Control_c, 0, 64, 90
1, 129796, Control_c, 0, 64, 127
1, 129863, Note_off_c, 0, 62, 42
1, 129927, Note_off_c, 0, 73, 53
1, 130062, Note_off_c, 0, 69, 44
1, 130272, Note_on_c, 0, 57, 49
1, 130392, Note_off_c, 0, 48, 52
1, 130394, Note_off_c, 0, 54, 49
1, 130397, Control_c, 0, 67, 120
1, 130412, Control_c, 0, 67, 103
1, 130427, Control_c, 0, 67, 81
1, 130441, Control_c, 0, 67, 48
1, 130456, Control_c, 0, 67, 15
1, 130471, Control_c, 0, 67, 0
1, 130483, Note_off_c, 0, 57, 55
1, 130895, Note_on_c, 0, 80, 70
1, 130971, Note_on_c, 0, 62, 40
1, 131282, Note_off_c, 0, 80, 64
1, 131423, Note_on_c, 0, 65, 38
1, 131594, Note_off_c, 0, 65, 43
1, 131673, Note_off_c, 0, 62, 42
1, 131819, Note_on_c, 0, 93, 67
1, 132448, Note_on_c, 0, 26, 24
1, 132970, Note_on_c, 0, 96, 43
1, 133234, Note_off_c, 0, 26, 31
1, 133526, Note_off_c, 0, 96, 35
1, 133560, Note_off_c, 0, 93, 50
1, 134351, Note_on_c, 0, 73, 85
1, 134368, Note_on_c, 0, 57, 64
1, 134684, Note_on_c, 0, 81, 82
1, 134697, Note_on_c, 0, 62, 67
1, 134729, Note_off_c, 0, 73, 61
1, 135186, Note_on_c, 0, 92, 86
1, 135219, Note_on_c, 0, 65, 45
1, 136120, Note_off_c, 0, 65, 34
1, 136187, Note_off_c, 0, 81, 31
1, 136234, Note_off_c, 0, 92, 42
1, 137270, Control_c, 0, 67, 17
1, 137284, Control_c, 0, 67, 28
1, 137299, Control_c, 0, 67, 38
1, 137314, Control_c, 0, 67, 49
1, 137329, Control_c, 0, 67, 60
1, 137344, Control_c, 0, 67, 70
1, 137358, Control_c, 0, 67, 80
1, 137373, Control_c, 0, 67, 89
1, 137388, Control_c, 0, 67, 99
1, 137403, Control_c, 0, 67, 110
1, 137418, Control_c, 0, 67, 123
1, 137432, Control_c, 0, 67, 127
1, 137813, Note_off_c, 0, 57, 54
1, 137830, Note_off_c, 0, 62, 26
1, 138256, Note_on_c, 0, 62, 38
1, 138261, Note_on_c, 0, 51, 31
1, 138273, Note_on_c, 0, 59, 37
1, 138766, Note_on_c, 0, 26, 39
1, 138871, Control_c, 0, 64, 105
1, 138886, Control_c, 0, 64, 102
1, 138901, Control_c, 0, 64, 101
1, 138916, Control_c, 0, 64, 97
1, 138930, Control_c, 0, 64, 93
1, 138945, Control_c, 0, 64, 91
1, 138960, Control_c, 0, 64, 91
1, 138975, Control_c, 0, 64, 91
1, 138990, Control_c, 0, 64, 93
1, 138997, Note_off_c, 0, 59, 55
1, 139004, Control_c, 0, 64, 98
1, 139019, Control_c, 0, 64, 112
1, 139027, Note_off_c, 0, 51, 56
1, 139034, Control_c, 0, 64, 127
1, 139262, Note_off_c, 0, 62, 38
1, 139458, Note_on_c, 0, 65, 35
1, 139462, Note_on_c, 0, 54, 30
1, 139465, Note_on_c, 0, 57, 35
1, 139502, Note_off_c, 0, 65, 0
1, 139502, Note_on_c, 0, 65, 11
1, 139605, Control_c, 0, 64, 102
1, 139620, Control_c, 0, 64, 91
1, 139635, Control_c, 0, 64, 87
1, 139650, Control_c, 0, 64, 87
1, 139665, Control_c, 0, 64, 87
1, 139679, Control_c, 0, 64, 92
1, 139694, Control_c, 0, 64, 109
1, 139709, Control_c, 0, 64, 127
1, 139796, Note_off_c, 0, 54, 51
1, 139805, Note_off_c, 0, 26, 52
1, 139899, Note_off_c, 0, 65, 34
1, 140050, Note_off_c, 0, 57, 38
1, 140932, Note_on_c, 0, 92, 60
1, 140945, Note_on_c, 0, 81, 35
1, 140954, Note_on_c, 0, 73, 36
1, 141000, Note_off_c, 0, 81, 0
1, 141000, Note_on_c, 0, 81, 3
1, 141099, Note_off_c, 0, 73, 42
1, 142465, Note_on_c, 0, 45, 32
1, 142882, Note_off_c, 0, 92, 38
1, 142923, Note_off_c, 0, 81, 37
1, 142954, Note_on_c, 0, 50, 34
1, 143395, Note_on_c, 0, 73, 33
1, 143406, Note_on_c, 0, 53, 26
1, 143715, Note_off_c, 0, 73, 39
1, 143955, Note_on_c, 0, 81, 37
1, 144116, Note_off_c, 0, 81, 43
1, 144836, Note_on_c, 0, 92, 43
1, 145133, Note_off_c, 0, 45, 41
1, 145198, Note_off_c, 0, 53, 37
1, 145249, Note_off_c, 0, 50, 32
1, 147066, Note_on_c, 0, 26, 19
1, 151093, Note_off_c, 0, 26, 24
1, 151347, Note_off_c, 0, 92, 34
1, 153638, Control_c, 0, 64, 125
1, 153653, Control_c, 0, 64, 118
1, 153668, Control_c, 0, 64, 115
1, 153682, Control_c, 0, 64, 113
1, 153697, Control_c, 0, 64, 110
1, 153712, Control_c, 0, 64, 108
1, 153727, Control_c, 0, 64, 106
1, 153742, Control_c, 0, 64, 105
1, 153756, Control_c, 0, 64, 103
1, 153771, Control_c, 0, 64, 100
1, 153786, Control_c, 0, 64, 98
1, 153801, Control_c, 0, 64, 96
1, 153816, Control_c, 0, 64, 95
1, 153830, Control_c, 0, 64, 93
1, 153845, Control_c, 0, 64, 91
1, 153860, Control_c, 0, 64, 90
1, 153876, Control_c, 0, 64, 89
1, 153891, Control_c, 0, 64, 88
1, 153906, Control_c, 0, 64, 87
1, 153921, Control_c, 0, 64, 86
1, 153935, Control_c, 0, 64, 85
1, 153950, Control_c, 0, 64, 85
1, 153965, Control_c, 0, 64, 84
1, 153979, Control_c, 0, 64, 84
1, 153994, Control_c, 0, 64, 83
1, 154009, Control_c, 0, 64, 83
1, 154024, Control_c, 0, 64, 82
1, 154039, Control_c, 0, 64, 82
1, 154053, Control_c, 0, 64, 81
1, 154083, Control_c, 0, 64, 81
1, 154150, Control_c, 0, 64, 80
1, 154180, Control_c, 0, 64, 80
1, 154209, Control_c, 0, 64, 79
1, 154915, Control_c, 0, 64, 79
1, 155033, Control_c, 0, 64, 78
1, 155048, Control_c, 0, 64, 78
1, 155092, Control_c, 0, 64, 77
1, 155122, Control_c, 0, 64, 77
1, 155151, Control_c, 0, 64, 76
1, 155181, Control_c, 0, 64, 76
1, 155210, Control_c, 0, 64, 75
1, 155225, Control_c, 0, 64, 75
1, 155240, Control_c, 0, 64, 74
1, 155255, Control_c, 0, 64, 74
1, 155270, Control_c, 0, 64, 73
1, 155284, Control_c, 0, 64, 72
1, 155314, Control_c, 0, 64, 72
1, 155328, Control_c, 0, 64, 71
1, 155343, Control_c, 0, 64, 71
1, 155358, Control_c, 0, 64, 70
1, 155388, Control_c, 0, 64, 70
1, 155402, Control_c, 0, 64, 69
1, 155417, Control_c, 0, 64, 69
1, 155447, Control_c, 0, 64, 68
1, 155493, Control_c, 0, 64, 68
1, 155551, Control_c, 0, 64, 67
1, 155581, Control_c, 0, 64, 67
1, 155633, Control_c, 0, 64, 66
1, 155663, Control_c, 0, 64, 66
1, 155693, Control_c, 0, 64, 65
1, 155722, Control_c, 0, 64, 65
1, 155766, Control_c, 0, 64, 64
1, 155781, Control_c, 0, 64, 64
1, 155811, Control_c, 0, 64, 63
1, 155826, Control_c, 0, 64, 63
1, 155870, Control_c, 0, 64, 62
1, 155958, Control_c, 0, 64, 62
1, 156330, Control_c, 0, 64, 61
1, 156411, Control_c, 0, 64, 61
1, 156619, Control_c, 0, 64, 60
1, 156767, Control_c, 0, 64, 60
1, 156811, Control_c, 0, 64, 59
1, 156915, Control_c, 0, 64, 59
1, 157048, Control_c, 0, 64, 58
1, 157130, Control_c, 0, 64, 58
1, 157175, Control_c, 0, 64, 57
1, 157204, Control_c, 0, 64, 57
1, 157219, Control_c, 0, 64, 56
1, 157234, Control_c, 0, 64, 56
1, 157249, Control_c, 0, 64, 55
1, 157264, Control_c, 0, 64, 54
1, 157279, Control_c, 0, 64, 54
1, 157294, Control_c, 0, 64, 53
1, 157309, Control_c, 0, 64, 52
1, 157323, Control_c, 0, 64, 50
1, 157338, Control_c, 0, 64, 48
1, 157353, Control_c, 0, 64, 47
1, 157368, Control_c, 0, 64, 46
1, 157383, Control_c, 0, 64, 45
1, 157397, Control_c, 0, 64, 44
1, 157412, Control_c, 0, 64, 42
1, 157427, Control_c, 0, 64, 40
1, 157442, Control_c, 0, 64, 37
1, 157457, Control_c, 0, 64, 35
1, 157471, Control_c, 0, 64, 32
1, 157486, Control_c, 0, 64, 28
1, 157501, Control_c, 0, 64, 23
1, 157516, Control_c, 0, 64, 10
1, 157530, Control_c, 0, 64, 0
1, 158280, Control_c, 0, 67, 121
1, 158295, Control_c, 0, 67, 110
1, 158310, Control_c, 0, 67, 97
1, 158325, Control_c, 0, 67, 82
1, 158340, Control_c, 0, 67, 70
1, 158354, Control_c, 0, 67, 58
1, 158369, Control_c, 0, 67, 46
1, 158384, Control_c, 0, 67, 34
1, 158399, Control_c, 0, 67, 23
1, 158414, Control_c, 0, 67, 16
1, 158428, Control_c, 0, 67, 12
1, 158443, Control_c, 0, 67, 9
1, 158458, Control_c, 0, 67, 0
1, 158533, End_track
0, 0, End_of_file
