0, 0, Header, 0, 1, 384
1, 0, Start_track
1, 0, Title_t, "Sonata Op. 2/1-Grace Eun Hae Kim"
1, 0, Text_t, "2009 Piano-e-Competition audition round"
1, 0, Text_t, "captured January 2009"
1, 0, Text_t, "http://www.piano-e-competition.com/"
1, 0, Text_t, "File processed for distribution by software from Zenph Studios, Inc., http://www.zenph.com"
1, 0, Instrument_name_t, "Yamaha Disklavier Pro Mark IV concert grand piano, model DCFIIISM4PRO"
1, 0, Sequencer_specific, 39, 67, 113, 0, 1, 0, 1, 0, 83, 111, 110, 97, 116, 97, 32, 79, 112, 46, 32, 50, 47, 49, 32, 32, 71, 114, 97, 99, 101, 32, 69, 117, 110, 72, 97, 101, 32, 75, 105, 109
1, 0, Sequencer_specific, 6, 67, 113, 0, 0, 0, 69
1, 0, System_exclusive, 21, 67, 113, 126, 21, 0, 2, 2, 0, 3, 14, 1, 4, 1, 13, 13, 10, 11, 9, 2, 7, 247
1, 0, Sequencer_specific, 5, 67, 123, 12, 2, 1
1, 0, Tempo, 512820
1, 0, Time_signature, 4, 2, 24, 8
1, 0, System_exclusive, 5, 126, 127, 9, 1, 247
1, 1, System_exclusive, 8, 67, 16, 76, 0, 0, 126, 0, 247
1, 2, System_exclusive, 8, 67, 16, 76, 8, 9, 7, 1, 247
1, 3, Control_c, 0, 0, 0
1, 3, Control_c, 1, 0, 0
1, 3, Control_c, 2, 0, 0
1, 3, Control_c, 3, 0, 0
1, 3, Control_c, 4, 0, 0
1, 3, Control_c, 5, 0, 0
1, 3, Control_c, 6, 0, 0
1, 3, Control_c, 7, 0, 0
1, 3, Control_c, 8, 0, 0
1, 3, Control_c, 9, 0, 127
1, 3, Control_c, 10, 0, 0
1, 3, Control_c, 11, 0, 0
1, 3, Control_c, 12, 0, 0
1, 3, Control_c, 13, 0, 0
1, 3, Control_c, 14, 0, 0
1, 3, Control_c, 15, 0, 0
1, 4, Control_c, 0, 32, 0
1, 4, Control_c, 1, 32, 0
1, 4, Control_c, 2, 32, 0
1, 4, Control_c, 3, 32, 0
1, 4, Control_c, 4, 32, 0
1, 4, Control_c, 5, 32, 0
1, 4, Control_c, 6, 32, 0
1, 4, Control_c, 7, 32, 0
1, 4, Control_c, 8, 32, 0
1, 4, Control_c, 9, 32, 0
1, 4, Control_c, 10, 32, 0
1, 4, Control_c, 11, 32, 0
1, 4, Control_c, 12, 32, 0
1, 4, Control_c, 13, 32, 0
1, 4, Control_c, 14, 32, 0
1, 4, Control_c, 15, 32, 0
1, 5, Program_c, 0, 0
1, 5, Program_c, 1, 0
1, 5, Program_c, 2, 0
1, 5, Program_c, 3, 0
1, 5, Program_c, 4, 0
1, 5, Program_c, 5, 0
1, 5, Program_c, 6, 0
1, 5, Program_c, 7, 0
1, 5, Program_c, 8, 0
1, 5, Program_c, 9, 0
1, 5, Program_c, 10, 0
1, 5, Program_c, 11, 0
1, 5, Program_c, 12, 0
1, 5, Program_c, 13, 0
1, 5, Program_c, 14, 0
1, 5, Program_c, 15, 0
1, 6, Control_c, 0, 7, 100
1, 6, Control_c, 1, 7, 100
1, 6, Control_c, 2, 7, 100
1, 6, Control_c, 3, 7, 100
1, 6, Control_c, 4, 7, 100
1, 6, Control_c, 5, 7, 100
1, 6, Control_c, 6, 7, 100
1, 6, Control_c, 7, 7, 100
1, 6, Control_c, 8, 7, 100
1, 6, Control_c, 9, 7, 100
1, 6, Control_c, 10, 7, 100
1, 6, Control_c, 11, 7, 100
1, 6, Control_c, 12, 7, 100
1, 6, Control_c, 13, 7, 100
1, 6, Control_c, 14, 7, 100
1, 6, Control_c, 15, 7, 100
1, 1132, Note_on_c, 0, 60, 46
1, 1156, Note_off_c, 0, 60, 56
1, 1323, Note_on_c, 0, 65, 51
1, 1347, Note_off_c, 0, 65, 60
1, 1506, Note_on_c, 0, 68, 49
1, 1531, Note_off_c, 0, 68, 54
1, 1712, Note_on_c, 0, 72, 40
1, 1741, Note_off_c, 0, 72, 53
1, 1880, Note_on_c, 0, 77, 58
1, 1901, Note_off_c, 0, 77, 61
1, 1979, Control_c, 0, 67, 10
1, 1994, Control_c, 0, 67, 11
1, 2009, Control_c, 0, 67, 17
1, 2023, Control_c, 0, 67, 29
1, 2038, Control_c, 0, 67, 41
1, 2053, Control_c, 0, 67, 54
1, 2067, Note_on_c, 0, 80, 71
1, 2068, Control_c, 0, 67, 69
1, 2082, Control_c, 0, 67, 86
1, 2097, Control_c, 0, 67, 102
1, 2112, Control_c, 0, 67, 118
1, 2127, Control_c, 0, 67, 127
1, 2251, Note_on_c, 0, 56, 56
1, 2253, Note_on_c, 0, 60, 52
1, 2270, Note_on_c, 0, 53, 27
1, 2273, Note_off_c, 0, 56, 62
1, 2274, Note_off_c, 0, 60, 61
1, 2307, Note_off_c, 0, 53, 31
1, 2319, Note_off_c, 0, 80, 44
1, 2337, Note_on_c, 0, 79, 52
1, 2366, Note_off_c, 0, 79, 58
1, 2376, Note_on_c, 0, 77, 51
1, 2398, Note_off_c, 0, 77, 58
1, 2401, Note_on_c, 0, 76, 60
1, 2444, Note_on_c, 0, 60, 59
1, 2460, Note_on_c, 0, 77, 69
1, 2466, Note_on_c, 0, 53, 47
1, 2466, Note_on_c, 0, 56, 57
1, 2469, Note_off_c, 0, 76, 58
1, 2477, Note_off_c, 0, 77, 66
1, 2478, Note_off_c, 0, 60, 67
1, 2487, Note_off_c, 0, 56, 64
1, 2492, Note_off_c, 0, 53, 59
1, 2648, Note_on_c, 0, 60, 54
1, 2652, Note_on_c, 0, 56, 49
1, 2655, Note_on_c, 0, 53, 44
1, 2678, Note_off_c, 0, 56, 59
1, 2684, Note_off_c, 0, 60, 57
1, 2684, Note_off_c, 0, 53, 58
1, 2823, Note_on_c, 0, 60, 58
1, 2823, Note_on_c, 0, 67, 66
1, 2826, Note_on_c, 0, 58, 59
1, 2828, Note_on_c, 0, 55, 48
1, 2832, Note_on_c, 0, 52, 63
1, 2846, Note_off_c, 0, 60, 65
1, 2849, Note_off_c, 0, 58, 64
1, 2852, Note_off_c, 0, 67, 64
1, 2854, Note_off_c, 0, 55, 59
1, 2855, Note_off_c, 0, 52, 66
1, 3010, Note_on_c, 0, 72, 57
1, 3029, Note_off_c, 0, 72, 63
1, 3177, Note_on_c, 0, 76, 77
1, 3208, Control_c, 0, 67, 125
1, 3222, Control_c, 0, 67, 115
1, 3226, Note_off_c, 0, 76, 65
1, 3237, Control_c, 0, 67, 100
1, 3252, Control_c, 0, 67, 84
1, 3267, Control_c, 0, 67, 64
1, 3282, Control_c, 0, 67, 43
1, 3296, Control_c, 0, 67, 25
1, 3311, Control_c, 0, 67, 11
1, 3326, Control_c, 0, 67, 0
1, 3360, Note_on_c, 0, 79, 71
1, 3398, Note_off_c, 0, 79, 63
1, 3547, Note_on_c, 0, 82, 73
1, 3744, Note_on_c, 0, 60, 54
1, 3750, Note_on_c, 0, 52, 56
1, 3750, Note_on_c, 0, 55, 46
1, 3756, Note_on_c, 0, 58, 33
1, 3766, Note_off_c, 0, 60, 61
1, 3776, Note_off_c, 0, 52, 57
1, 3779, Note_off_c, 0, 55, 57
1, 3790, Note_off_c, 0, 58, 32
1, 3809, Note_on_c, 0, 80, 59
1, 3813, Note_off_c, 0, 82, 58
1, 3840, Note_on_c, 0, 79, 62
1, 3845, Note_off_c, 0, 80, 61
1, 3870, Note_off_c, 0, 79, 64
1, 3884, Note_on_c, 0, 77, 59
1, 3920, Note_on_c, 0, 79, 74
1, 3931, Note_off_c, 0, 77, 64
1, 3932, Note_on_c, 0, 60, 51
1, 3934, Note_on_c, 0, 55, 49
1, 3937, Note_on_c, 0, 58, 42
1, 3950, Note_off_c, 0, 79, 66
1, 3967, Note_off_c, 0, 60, 56
1, 3970, Note_off_c, 0, 55, 59
1, 3973, Note_off_c, 0, 58, 51
1, 4018, Poly_aftertouch_c, 0, 52, 0
1, 4108, Note_on_c, 0, 52, 70
1, 4109, Note_on_c, 0, 58, 50
1, 4111, Note_on_c, 0, 55, 46
1, 4116, Note_on_c, 0, 60, 51
1, 4133, Note_off_c, 0, 58, 63
1, 4137, Note_off_c, 0, 55, 59
1, 4137, Note_off_c, 0, 52, 68
1, 4140, Note_off_c, 0, 60, 57
1, 4258, Note_on_c, 0, 72, 62
1, 4303, Note_on_c, 0, 80, 86
1, 4338, Note_off_c, 0, 72, 60
1, 4479, Note_on_c, 0, 60, 68
1, 4484, Note_on_c, 0, 56, 58
1, 4485, Note_on_c, 0, 53, 64
1, 4506, Note_off_c, 0, 53, 64
1, 4507, Note_off_c, 0, 56, 61
1, 4507, Note_off_c, 0, 60, 68
1, 4527, Note_off_c, 0, 80, 56
1, 4551, Note_on_c, 0, 79, 61
1, 4578, Note_on_c, 0, 77, 70
1, 4588, Note_off_c, 0, 79, 63
1, 4606, Note_off_c, 0, 77, 66
1, 4611, Note_on_c, 0, 76, 72
1, 4663, Note_on_c, 0, 77, 85
1, 4665, Note_on_c, 0, 56, 65
1, 4668, Note_on_c, 0, 53, 60
1, 4669, Note_off_c, 0, 76, 67
1, 4675, Note_on_c, 0, 60, 59
1, 4680, Note_off_c, 0, 77, 73
1, 4700, Note_off_c, 0, 53, 66
1, 4700, Note_off_c, 0, 56, 67
1, 4703, Note_off_c, 0, 60, 65
1, 4846, Note_on_c, 0, 60, 65
1, 4855, Note_on_c, 0, 53, 61
1, 4855, Note_on_c, 0, 56, 70
1, 4869, Note_off_c, 0, 60, 69
1, 4874, Note_off_c, 0, 56, 68
1, 4876, Note_off_c, 0, 53, 62
1, 4980, Note_on_c, 0, 72, 72
1, 5038, Note_on_c, 0, 82, 96
1, 5068, Note_off_c, 0, 72, 61
1, 5211, Note_on_c, 0, 64, 73
1, 5212, Note_on_c, 0, 58, 73
1, 5213, Note_on_c, 0, 55, 71
1, 5236, Note_off_c, 0, 55, 68
1, 5236, Note_off_c, 0, 58, 67
1, 5236, Note_off_c, 0, 64, 68
1, 5268, Note_off_c, 0, 82, 50
1, 5271, Note_on_c, 0, 80, 82
1, 5317, Note_on_c, 0, 79, 74
1, 5326, Note_off_c, 0, 80, 64
1, 5347, Note_on_c, 0, 77, 84
1, 5354, Note_off_c, 0, 79, 64
1, 5392, Note_on_c, 0, 64, 83
1, 5396, Note_on_c, 0, 58, 75
1, 5396, Note_on_c, 0, 79, 84
1, 5398, Note_on_c, 0, 55, 70
1, 5408, Note_off_c, 0, 77, 67
1, 5411, Note_off_c, 0, 64, 71
1, 5418, Note_off_c, 0, 55, 66
1, 5419, Note_off_c, 0, 58, 69
1, 5420, Note_off_c, 0, 79, 68
1, 5573, Note_on_c, 0, 55, 78
1, 5577, Note_on_c, 0, 64, 79
1, 5579, Note_on_c, 0, 58, 75
1, 5595, Note_off_c, 0, 55, 70
1, 5597, Note_off_c, 0, 64, 70
1, 5603, Note_off_c, 0, 58, 67
1, 5688, Note_on_c, 0, 72, 73
1, 5724, Note_on_c, 0, 77, 75
1, 5760, Note_on_c, 0, 80, 72
1, 5818, Note_on_c, 0, 84, 101
1, 5914, Control_c, 0, 64, 20
1, 5928, Control_c, 0, 64, 30
1, 5943, Control_c, 0, 64, 38
1, 5958, Control_c, 0, 64, 44
1, 5973, Control_c, 0, 64, 46
1, 5988, Control_c, 0, 64, 44
1, 6003, Control_c, 0, 64, 42
1, 6018, Control_c, 0, 64, 40
1, 6026, Note_on_c, 0, 65, 85
1, 6027, Note_on_c, 0, 60, 75
1, 6027, Note_on_c, 0, 56, 80
1, 6033, Control_c, 0, 64, 37
1, 6047, Control_c, 0, 64, 37
1, 6051, Note_off_c, 0, 72, 62
1, 6088, Note_off_c, 0, 56, 67
1, 6094, Note_off_c, 0, 65, 68
1, 6100, Note_off_c, 0, 60, 66
1, 6109, Note_off_c, 0, 77, 61
1, 6132, Note_off_c, 0, 80, 63
1, 6136, Control_c, 0, 64, 36
1, 6151, Control_c, 0, 64, 36
1, 6166, Control_c, 0, 64, 34
1, 6181, Control_c, 0, 64, 32
1, 6203, Control_c, 0, 64, 30
1, 6218, Control_c, 0, 64, 26
1, 6233, Control_c, 0, 64, 15
1, 6247, Control_c, 0, 64, 0
1, 6274, Note_on_c, 0, 82, 91
1, 6376, Note_on_c, 0, 80, 95
1, 6382, Note_off_c, 0, 84, 59
1, 6442, Note_off_c, 0, 82, 63
1, 6483, Note_on_c, 0, 79, 90
1, 6486, Note_on_c, 0, 61, 72
1, 6490, Note_on_c, 0, 67, 80
1, 6492, Note_on_c, 0, 58, 81
1, 6525, Note_off_c, 0, 80, 62
1, 6566, Note_off_c, 0, 58, 65
1, 6566, Note_off_c, 0, 67, 65
1, 6567, Note_off_c, 0, 79, 63
1, 6572, Note_on_c, 0, 77, 88
1, 6574, Note_off_c, 0, 61, 67
1, 6623, Note_off_c, 0, 77, 56
1, 6643, Note_on_c, 0, 76, 78
1, 6696, Note_on_c, 0, 77, 79
1, 6698, Note_off_c, 0, 76, 67
1, 6730, Note_on_c, 0, 79, 78
1, 6741, Note_off_c, 0, 77, 62
1, 6801, Note_on_c, 0, 77, 77
1, 6840, Note_off_c, 0, 79, 59
1, 6967, Control_c, 0, 67, 8
1, 6982, Control_c, 0, 67, 15
1, 6996, Control_c, 0, 67, 23
1, 7011, Control_c, 0, 67, 32
1, 7026, Control_c, 0, 67, 41
1, 7041, Control_c, 0, 67, 47
1, 7056, Control_c, 0, 67, 52
1, 7070, Control_c, 0, 67, 58
1, 7085, Control_c, 0, 67, 64
1, 7100, Control_c, 0, 67, 75
1, 7115, Control_c, 0, 67, 89
1, 7130, Control_c, 0, 67, 102
1, 7145, Control_c, 0, 67, 112
1, 7160, Note_off_c, 0, 77, 52
1, 7160, Control_c, 0, 67, 121
1, 7163, Note_on_c, 0, 76, 53
1, 7175, Control_c, 0, 67, 127
1, 7186, Note_on_c, 0, 67, 38
1, 7190, Note_on_c, 0, 60, 31
1, 7252, Note_off_c, 0, 67, 0
1, 7252, Note_on_c, 0, 67, 3
1, 7612, Note_off_c, 0, 67, 44
1, 7623, Note_off_c, 0, 60, 43
1, 7700, Note_off_c, 0, 76, 46
1, 8768, Note_on_c, 0, 43, 46
1, 8799, Note_off_c, 0, 43, 55
1, 8956, Note_on_c, 0, 48, 51
1, 8987, Note_off_c, 0, 48, 62
1, 9139, Note_on_c, 0, 51, 45
1, 9167, Note_off_c, 0, 51, 59
1, 9315, Note_on_c, 0, 55, 51
1, 9339, Note_off_c, 0, 55, 62
1, 9486, Note_on_c, 0, 60, 62
1, 9518, Note_off_c, 0, 60, 65
1, 9688, Note_on_c, 0, 63, 63
1, 9702, Control_c, 0, 64, 16
1, 9717, Control_c, 0, 64, 40
1, 9732, Control_c, 0, 64, 58
1, 9747, Control_c, 0, 64, 68
1, 9762, Control_c, 0, 64, 75
1, 9777, Control_c, 0, 64, 78
1, 9791, Control_c, 0, 64, 81
1, 9807, Control_c, 0, 64, 83
1, 9822, Control_c, 0, 64, 84
1, 9825, Note_off_c, 0, 63, 62
1, 9926, Control_c, 0, 64, 82
1, 9948, Control_c, 0, 64, 79
1, 9957, Note_on_c, 0, 62, 63
1, 9963, Control_c, 0, 64, 77
1, 9977, Control_c, 0, 64, 74
1, 9992, Control_c, 0, 64, 70
1, 10000, Note_off_c, 0, 62, 55
1, 10007, Control_c, 0, 64, 65
1, 10021, Control_c, 0, 64, 56
1, 10022, Note_on_c, 0, 60, 44
1, 10032, Note_on_c, 0, 59, 74
1, 10036, Control_c, 0, 64, 36
1, 10047, Note_off_c, 0, 60, 56
1, 10051, Control_c, 0, 64, 0
1, 10058, Note_off_c, 0, 59, 65
1, 10096, Note_on_c, 0, 60, 74
1, 10117, Note_off_c, 0, 60, 69
1, 10281, Note_on_c, 0, 60, 67
1, 10304, Note_off_c, 0, 60, 68
1, 10500, Note_on_c, 0, 68, 61
1, 10504, Note_on_c, 0, 65, 58
1, 10506, Note_on_c, 0, 60, 39
1, 10540, Control_c, 0, 64, 28
1, 10555, Control_c, 0, 64, 46
1, 10570, Control_c, 0, 64, 60
1, 10585, Control_c, 0, 64, 69
1, 10600, Control_c, 0, 64, 73
1, 10615, Control_c, 0, 64, 77
1, 10629, Control_c, 0, 64, 81
1, 10644, Control_c, 0, 64, 85
1, 10659, Control_c, 0, 64, 87
1, 10674, Control_c, 0, 64, 88
1, 10771, Control_c, 0, 64, 87
1, 10785, Control_c, 0, 64, 83
1, 10789, Note_on_c, 0, 75, 49
1, 10800, Control_c, 0, 64, 80
1, 10815, Control_c, 0, 64, 76
1, 10817, Note_off_c, 0, 75, 60
1, 10818, Note_on_c, 0, 73, 53
1, 10830, Control_c, 0, 64, 71
1, 10838, Note_off_c, 0, 73, 62
1, 10844, Control_c, 0, 64, 65
1, 10847, Note_on_c, 0, 72, 70
1, 10859, Control_c, 0, 64, 58
1, 10874, Control_c, 0, 64, 41
1, 10888, Note_off_c, 0, 72, 65
1, 10889, Control_c, 0, 64, 0
1, 10891, Note_on_c, 0, 73, 81
1, 10909, Note_off_c, 0, 73, 72
1, 11079, Note_on_c, 0, 73, 73
1, 11102, Note_off_c, 0, 73, 70
1, 11143, Note_off_c, 0, 65, 64
1, 11301, Note_on_c, 0, 65, 50
1, 11303, Note_on_c, 0, 73, 65
1, 11308, Note_on_c, 0, 58, 46
1, 11330, Note_off_c, 0, 60, 59
1, 11422, Note_off_c, 0, 68, 58
1, 11574, Note_on_c, 0, 70, 56
1, 11610, Note_off_c, 0, 70, 61
1, 11616, Note_on_c, 0, 68, 59
1, 11639, Note_off_c, 0, 68, 63
1, 11649, Note_on_c, 0, 67, 65
1, 11680, Note_off_c, 0, 67, 65
1, 11695, Note_on_c, 0, 68, 70
1, 11713, Note_off_c, 0, 68, 64
1, 11727, Note_off_c, 0, 73, 0
1, 11727, Note_on_c, 0, 73, 3
1, 11886, Note_on_c, 0, 68, 66
1, 11907, Note_off_c, 0, 58, 62
1, 11914, Note_off_c, 0, 68, 63
1, 11954, Note_off_c, 0, 65, 62
1, 12101, Note_on_c, 0, 63, 50
1, 12102, Note_on_c, 0, 67, 56
1, 12119, Note_on_c, 0, 58, 44
1, 12193, Control_c, 0, 64, 22
1, 12208, Control_c, 0, 64, 37
1, 12224, Control_c, 0, 64, 50
1, 12239, Control_c, 0, 64, 57
1, 12254, Control_c, 0, 64, 59
1, 12269, Control_c, 0, 64, 60
1, 12313, Control_c, 0, 64, 60
1, 12323, Note_off_c, 0, 73, 48
1, 12387, Control_c, 0, 64, 60
1, 12402, Control_c, 0, 64, 59
1, 12403, Note_on_c, 0, 75, 56
1, 12415, Note_on_c, 0, 73, 62
1, 12416, Control_c, 0, 64, 56
1, 12431, Control_c, 0, 64, 51
1, 12432, Note_off_c, 0, 75, 58
1, 12446, Control_c, 0, 64, 40
1, 12451, Note_off_c, 0, 73, 64
1, 12461, Control_c, 0, 64, 15
1, 12465, Note_on_c, 0, 72, 70
1, 12476, Control_c, 0, 64, 0
1, 12501, Note_off_c, 0, 72, 63
1, 12513, Note_on_c, 0, 73, 70
1, 12529, Note_off_c, 0, 73, 69
1, 12702, Note_on_c, 0, 73, 68
1, 12719, Note_off_c, 0, 73, 69
1, 12730, Note_off_c, 0, 63, 62
1, 12912, Note_off_c, 0, 58, 54
1, 12936, Note_on_c, 0, 68, 49
1, 12949, Note_on_c, 0, 63, 38
1, 12960, Note_on_c, 0, 56, 43
1, 13014, Note_off_c, 0, 67, 63
1, 13032, Control_c, 0, 64, 12
1, 13047, Control_c, 0, 64, 26
1, 13062, Control_c, 0, 64, 34
1, 13077, Control_c, 0, 64, 41
1, 13092, Control_c, 0, 64, 47
1, 13107, Control_c, 0, 64, 49
1, 13121, Control_c, 0, 64, 49
1, 13136, Control_c, 0, 64, 49
1, 13151, Control_c, 0, 64, 47
1, 13166, Control_c, 0, 64, 45
1, 13181, Control_c, 0, 64, 40
1, 13195, Control_c, 0, 64, 33
1, 13210, Control_c, 0, 64, 22
1, 13225, Control_c, 0, 64, 0
1, 13233, Note_on_c, 0, 73, 51
1, 13263, Note_off_c, 0, 73, 60
1, 13278, Note_on_c, 0, 72, 59
1, 13301, Note_off_c, 0, 72, 66
1, 13312, Note_on_c, 0, 71, 63
1, 13331, Note_off_c, 0, 71, 70
1, 13355, Note_on_c, 0, 72, 79
1, 13375, Note_off_c, 0, 72, 69
1, 13546, Note_on_c, 0, 72, 81
1, 13577, Note_off_c, 0, 72, 59
1, 13600, Note_off_c, 0, 68, 60
1, 13789, Note_on_c, 0, 72, 57
1, 13809, Note_on_c, 0, 61, 44
1, 13813, Note_on_c, 0, 65, 39
1, 13874, Note_off_c, 0, 56, 40
1, 13901, Note_off_c, 0, 63, 63
1, 13959, Control_c, 0, 67, 120
1, 13974, Control_c, 0, 67, 106
1, 13988, Control_c, 0, 67, 90
1, 14003, Control_c, 0, 67, 71
1, 14018, Control_c, 0, 67, 50
1, 14033, Control_c, 0, 67, 33
1, 14040, Note_on_c, 0, 70, 67
1, 14048, Control_c, 0, 67, 17
1, 14062, Control_c, 0, 67, 0
1, 14138, Note_off_c, 0, 72, 56
1, 14240, Note_on_c, 0, 62, 63
1, 14251, Note_off_c, 0, 65, 64
1, 14372, Note_off_c, 0, 61, 56
1, 14438, Note_on_c, 0, 68, 68
1, 14455, Note_off_c, 0, 70, 62
1, 14628, Note_off_c, 0, 68, 57
1, 14636, Note_off_c, 0, 62, 48
1, 14638, Note_on_c, 0, 67, 60
1, 14641, Note_on_c, 0, 63, 40
1, 14739, Note_off_c, 0, 67, 60
1, 14819, Note_on_c, 0, 75, 66
1, 14876, Note_off_c, 0, 63, 62
1, 15000, Note_on_c, 0, 73, 67
1, 15035, Note_off_c, 0, 75, 62
1, 15137, Note_off_c, 0, 73, 64
1, 15207, Note_on_c, 0, 72, 69
1, 15220, Note_on_c, 0, 60, 45
1, 15220, Note_on_c, 0, 63, 48
1, 15359, Note_off_c, 0, 60, 62
1, 15391, Note_on_c, 0, 61, 57
1, 15397, Note_off_c, 0, 63, 58
1, 15399, Note_on_c, 0, 65, 56
1, 15593, Note_on_c, 0, 70, 75
1, 15616, Note_off_c, 0, 65, 62
1, 15636, Note_off_c, 0, 72, 61
1, 15772, Note_on_c, 0, 65, 54
1, 15785, Note_on_c, 0, 62, 56
1, 15798, Note_off_c, 0, 61, 55
1, 15974, Note_on_c, 0, 68, 70
1, 16003, Note_off_c, 0, 70, 58
1, 16139, Note_off_c, 0, 68, 57
1, 16162, Note_off_c, 0, 62, 61
1, 16172, Note_on_c, 0, 63, 60
1, 16173, Note_on_c, 0, 67, 68
1, 16178, Note_off_c, 0, 65, 54
1, 16220, Control_c, 0, 64, 35
1, 16235, Control_c, 0, 64, 55
1, 16239, Note_off_c, 0, 63, 62
1, 16249, Control_c, 0, 64, 67
1, 16264, Control_c, 0, 64, 79
1, 16274, Note_off_c, 0, 67, 37
1, 16279, Control_c, 0, 64, 84
1, 16294, Control_c, 0, 64, 89
1, 16309, Control_c, 0, 64, 93
1, 16338, Control_c, 0, 64, 87
1, 16353, Control_c, 0, 64, 68
1, 16365, Note_on_c, 0, 63, 94
1, 16367, Note_on_c, 0, 75, 96
1, 16368, Control_c, 0, 64, 50
1, 16383, Control_c, 0, 64, 0
1, 16427, Control_c, 0, 64, 27
1, 16442, Control_c, 0, 64, 52
1, 16457, Control_c, 0, 64, 75
1, 16463, Note_off_c, 0, 75, 62
1, 16472, Control_c, 0, 64, 127
1, 16483, Note_off_c, 0, 63, 62
1, 16530, Control_c, 0, 64, 88
1, 16545, Control_c, 0, 64, 63
1, 16550, Note_on_c, 0, 61, 86
1, 16551, Note_on_c, 0, 73, 91
1, 16560, Control_c, 0, 64, 44
1, 16574, Control_c, 0, 64, 18
1, 16589, Control_c, 0, 64, 37
1, 16604, Control_c, 0, 64, 57
1, 16619, Control_c, 0, 64, 98
1, 16634, Control_c, 0, 64, 127
1, 16664, Note_off_c, 0, 73, 64
1, 16665, Note_off_c, 0, 61, 67
1, 16701, Control_c, 0, 64, 114
1, 16716, Control_c, 0, 64, 66
1, 16730, Control_c, 0, 64, 45
1, 16745, Control_c, 0, 64, 0
1, 16750, Note_on_c, 0, 72, 87
1, 16751, Note_on_c, 0, 48, 75
1, 16751, Note_on_c, 0, 51, 77
1, 16751, Note_on_c, 0, 60, 80
1, 16789, Control_c, 0, 64, 11
1, 16804, Control_c, 0, 64, 45
1, 16819, Control_c, 0, 64, 62
1, 16834, Control_c, 0, 64, 80
1, 16844, Note_off_c, 0, 48, 64
1, 16849, Control_c, 0, 64, 88
1, 16878, Control_c, 0, 64, 82
1, 16893, Control_c, 0, 64, 67
1, 16907, Control_c, 0, 64, 43
1, 16922, Control_c, 0, 64, 0
1, 16950, Note_on_c, 0, 53, 88
1, 16953, Note_on_c, 0, 49, 84
1, 16956, Note_off_c, 0, 51, 64
1, 17040, Note_off_c, 0, 72, 63
1, 17042, Control_c, 0, 64, 28
1, 17056, Note_off_c, 0, 60, 64
1, 17057, Control_c, 0, 64, 40
1, 17071, Control_c, 0, 64, 51
1, 17086, Control_c, 0, 64, 59
1, 17101, Control_c, 0, 64, 61
1, 17116, Control_c, 0, 64, 60
1, 17131, Control_c, 0, 64, 58
1, 17146, Control_c, 0, 64, 53
1, 17161, Control_c, 0, 64, 39
1, 17171, Note_on_c, 0, 58, 90
1, 17175, Control_c, 0, 64, 10
1, 17178, Note_on_c, 0, 69, 89
1, 17190, Control_c, 0, 64, 0
1, 17196, Note_on_c, 0, 68, 64
1, 17245, Note_off_c, 0, 68, 0
1, 17256, Note_off_c, 0, 53, 62
1, 17282, Poly_aftertouch_c, 0, 68, 127
1, 17290, Note_off_c, 0, 69, 60
1, 17355, Note_on_c, 0, 50, 83
1, 17358, Note_on_c, 0, 53, 87
1, 17383, Note_off_c, 0, 49, 61
1, 17412, Control_c, 0, 64, 20
1, 17435, Control_c, 0, 64, 49
1, 17442, Poly_aftertouch_c, 0, 68, 0
1, 17450, Control_c, 0, 64, 67
1, 17464, Note_off_c, 0, 58, 62
1, 17465, Control_c, 0, 64, 101
1, 17479, Control_c, 0, 64, 127
1, 17546, Note_off_c, 0, 53, 65
1, 17560, Note_off_c, 0, 50, 65
1, 17563, Note_on_c, 0, 56, 88
1, 17565, Note_on_c, 0, 68, 83
1, 17583, Control_c, 0, 64, 108
1, 17598, Control_c, 0, 64, 103
1, 17612, Control_c, 0, 64, 101
1, 17624, Note_off_c, 0, 56, 64
1, 17627, Control_c, 0, 64, 100
1, 17632, Note_off_c, 0, 68, 59
1, 17642, Control_c, 0, 64, 98
1, 17657, Control_c, 0, 64, 92
1, 17672, Control_c, 0, 64, 80
1, 17686, Control_c, 0, 64, 66
1, 17701, Control_c, 0, 64, 52
1, 17716, Control_c, 0, 64, 0
1, 17760, Note_on_c, 0, 55, 86
1, 17760, Note_on_c, 0, 67, 84
1, 17765, Note_on_c, 0, 51, 84
1, 17795, Note_off_c, 0, 55, 64
1, 17806, Control_c, 0, 64, 33
1, 17813, Note_off_c, 0, 67, 65
1, 17821, Control_c, 0, 64, 47
1, 17835, Control_c, 0, 64, 58
1, 17850, Control_c, 0, 64, 64
1, 17865, Control_c, 0, 64, 64
1, 17880, Control_c, 0, 64, 64
1, 17892, Note_on_c, 0, 63, 73
1, 17894, Control_c, 0, 64, 63
1, 17900, Note_off_c, 0, 51, 63
1, 17909, Control_c, 0, 64, 62
1, 17924, Control_c, 0, 64, 60
1, 17939, Control_c, 0, 64, 58
1, 17953, Control_c, 0, 64, 55
1, 17968, Control_c, 0, 64, 50
1, 17983, Control_c, 0, 64, 46
1, 17986, Note_off_c, 0, 63, 63
1, 17986, Note_on_c, 0, 51, 72
1, 17998, Control_c, 0, 64, 43
1, 18013, Control_c, 0, 64, 43
1, 18043, Control_c, 0, 64, 41
1, 18058, Control_c, 0, 64, 39
1, 18073, Control_c, 0, 64, 37
1, 18081, Note_on_c, 0, 63, 70
1, 18081, Note_off_c, 0, 51, 64
1, 18088, Control_c, 0, 64, 35
1, 18102, Control_c, 0, 64, 34
1, 18117, Control_c, 0, 64, 34
1, 18132, Control_c, 0, 64, 33
1, 18146, Control_c, 0, 64, 31
1, 18161, Control_c, 0, 64, 28
1, 18180, Note_off_c, 0, 63, 63
1, 18183, Control_c, 0, 64, 25
1, 18194, Note_on_c, 0, 51, 70
1, 18198, Control_c, 0, 64, 23
1, 18213, Control_c, 0, 64, 22
1, 18228, Control_c, 0, 64, 20
1, 18243, Control_c, 0, 64, 14
1, 18258, Control_c, 0, 64, 0
1, 18271, Note_off_c, 0, 51, 60
1, 18297, Note_on_c, 0, 63, 57
1, 18407, Note_on_c, 0, 76, 66
1, 18420, Note_on_c, 0, 51, 45
1, 18439, Note_off_c, 0, 63, 38
1, 18493, Note_off_c, 0, 51, 59
1, 18515, Note_on_c, 0, 63, 41
1, 18597, Note_on_c, 0, 75, 72
1, 18603, Note_off_c, 0, 63, 52
1, 18615, Note_on_c, 0, 51, 49
1, 18672, Note_off_c, 0, 51, 58
1, 18693, Note_on_c, 0, 63, 47
1, 18717, Note_off_c, 0, 76, 52
1, 18778, Note_off_c, 0, 63, 61
1, 18782, Note_on_c, 0, 73, 69
1, 18788, Note_on_c, 0, 51, 54
1, 18842, Note_off_c, 0, 75, 60
1, 18856, Note_off_c, 0, 51, 54
1, 18874, Note_on_c, 0, 63, 45
1, 18964, Note_on_c, 0, 70, 67
1, 18967, Note_off_c, 0, 63, 59
1, 18982, Note_on_c, 0, 51, 56
1, 19002, Note_off_c, 0, 73, 59
1, 19028, Note_off_c, 0, 51, 60
1, 19063, Note_on_c, 0, 63, 58
1, 19129, Note_off_c, 0, 63, 56
1, 19150, Note_on_c, 0, 67, 66
1, 19153, Note_on_c, 0, 51, 57
1, 19160, Note_off_c, 0, 70, 61
1, 19169, Control_c, 0, 64, 9
1, 19184, Control_c, 0, 64, 10
1, 19208, Note_off_c, 0, 51, 60
1, 19227, Note_on_c, 0, 63, 58
1, 19259, Note_off_c, 0, 67, 62
1, 19273, Control_c, 0, 64, 9
1, 19288, Control_c, 0, 64, 8
1, 19302, Control_c, 0, 64, 8
1, 19317, Note_off_c, 0, 63, 63
1, 19317, Control_c, 0, 64, 0
1, 19328, Note_on_c, 0, 61, 66
1, 19331, Note_on_c, 0, 64, 89
1, 19344, Note_on_c, 0, 51, 60
1, 19419, Note_off_c, 0, 51, 58
1, 19589, Note_on_c, 0, 51, 60
1, 19623, Note_off_c, 0, 51, 65
1, 19653, Note_off_c, 0, 64, 60
1, 19658, Note_on_c, 0, 63, 73
1, 19718, Note_off_c, 0, 61, 61
1, 19737, Note_off_c, 0, 63, 63
1, 19739, Note_on_c, 0, 60, 56
1, 19745, Note_on_c, 0, 51, 46
1, 19745, Note_on_c, 0, 68, 69
1, 19771, Note_off_c, 0, 68, 67
1, 19823, Note_off_c, 0, 51, 60
1, 19840, Note_off_c, 0, 60, 64
1, 19855, Note_on_c, 0, 63, 60
1, 19932, Note_off_c, 0, 63, 60
1, 19945, Note_on_c, 0, 76, 67
1, 19952, Note_on_c, 0, 51, 51
1, 20007, Note_off_c, 0, 51, 59
1, 20026, Note_on_c, 0, 63, 47
1, 20121, Note_on_c, 0, 75, 72
1, 20123, Note_off_c, 0, 63, 58
1, 20132, Note_on_c, 0, 51, 52
1, 20184, Note_off_c, 0, 51, 61
1, 20207, Note_off_c, 0, 76, 58
1, 20214, Note_on_c, 0, 63, 44
1, 20296, Note_off_c, 0, 63, 58
1, 20299, Note_on_c, 0, 73, 72
1, 20308, Note_on_c, 0, 51, 47
1, 20356, Note_off_c, 0, 75, 59
1, 20362, Note_off_c, 0, 51, 60
1, 20389, Note_on_c, 0, 63, 53
1, 20491, Note_off_c, 0, 63, 46
1, 20493, Note_on_c, 0, 70, 75
1, 20497, Note_on_c, 0, 51, 50
1, 20531, Note_off_c, 0, 73, 62
1, 20547, Note_off_c, 0, 51, 60
1, 20583, Note_on_c, 0, 63, 59
1, 20673, Note_on_c, 0, 67, 75
1, 20681, Note_on_c, 0, 51, 51
1, 20684, Note_off_c, 0, 70, 60
1, 20687, Note_off_c, 0, 63, 39
1, 20730, Note_off_c, 0, 51, 61
1, 20745, Note_on_c, 0, 63, 64
1, 20795, Note_off_c, 0, 67, 62
1, 20830, Note_off_c, 0, 63, 64
1, 20847, Note_on_c, 0, 61, 64
1, 20849, Note_on_c, 0, 64, 89
1, 20866, Note_on_c, 0, 51, 61
1, 20924, Note_off_c, 0, 51, 60
1, 21088, Note_on_c, 0, 51, 65
1, 21117, Note_off_c, 0, 51, 67
1, 21153, Note_off_c, 0, 64, 61
1, 21172, Note_on_c, 0, 63, 65
1, 21220, Note_off_c, 0, 61, 58
1, 21241, Note_off_c, 0, 63, 65
1, 21243, Note_on_c, 0, 51, 45
1, 21246, Note_on_c, 0, 60, 54
1, 21247, Note_on_c, 0, 68, 59
1, 21268, Note_off_c, 0, 68, 63
1, 21323, Note_off_c, 0, 51, 61
1, 21337, Note_off_c, 0, 60, 64
1, 21355, Note_on_c, 0, 63, 56
1, 21436, Note_off_c, 0, 63, 54
1, 21438, Note_on_c, 0, 76, 67
1, 21454, Note_on_c, 0, 51, 43
1, 21513, Note_off_c, 0, 51, 57
1, 21530, Note_on_c, 0, 63, 54
1, 21617, Note_off_c, 0, 63, 59
1, 21621, Note_on_c, 0, 75, 73
1, 21637, Note_on_c, 0, 51, 56
1, 21689, Note_off_c, 0, 51, 56
1, 21709, Note_off_c, 0, 76, 53
1, 21722, Note_on_c, 0, 63, 53
1, 21803, Note_on_c, 0, 73, 72
1, 21803, Note_off_c, 0, 63, 60
1, 21806, Note_on_c, 0, 51, 58
1, 21863, Note_off_c, 0, 51, 60
1, 21891, Note_on_c, 0, 63, 54
1, 21901, Note_off_c, 0, 75, 54
1, 21979, Note_off_c, 0, 63, 58
1, 21990, Note_on_c, 0, 70, 65
1, 21991, Note_on_c, 0, 61, 58
1, 22020, Note_off_c, 0, 73, 61
1, 22045, Note_off_c, 0, 61, 62
1, 22088, Note_on_c, 0, 63, 53
1, 22159, Note_off_c, 0, 63, 64
1, 22171, Note_on_c, 0, 61, 54
1, 22171, Note_on_c, 0, 67, 56
1, 22174, Note_off_c, 0, 70, 59
1, 22216, Note_off_c, 0, 67, 58
1, 22224, Note_off_c, 0, 61, 59
1, 22269, Note_on_c, 0, 63, 50
1, 22344, Note_off_c, 0, 63, 62
1, 22368, Note_on_c, 0, 60, 49
1, 22422, Note_off_c, 0, 60, 63
1, 22446, Note_on_c, 0, 67, 53
1, 22458, Note_on_c, 0, 63, 47
1, 22513, Note_off_c, 0, 63, 58
1, 22515, Note_off_c, 0, 67, 57
1, 22539, Note_on_c, 0, 70, 57
1, 22547, Note_on_c, 0, 60, 37
1, 22588, Note_off_c, 0, 60, 52
1, 22607, Note_off_c, 0, 70, 61
1, 22622, Note_on_c, 0, 68, 56
1, 22626, Note_on_c, 0, 63, 49
1, 22643, Note_off_c, 0, 68, 59
1, 22700, Note_off_c, 0, 63, 58
1, 22717, Note_on_c, 0, 55, 51
1, 22768, Note_off_c, 0, 55, 61
1, 22812, Note_on_c, 0, 69, 63
1, 22817, Note_on_c, 0, 63, 48
1, 22879, Note_off_c, 0, 63, 53
1, 22879, Note_off_c, 0, 69, 63
1, 22896, Note_on_c, 0, 72, 59
1, 22897, Note_on_c, 0, 55, 44
1, 22955, Note_off_c, 0, 55, 53
1, 22959, Note_off_c, 0, 72, 62
1, 22973, Note_on_c, 0, 70, 60
1, 22993, Note_on_c, 0, 63, 53
1, 22993, Note_off_c, 0, 70, 64
1, 23066, Note_off_c, 0, 63, 59
1, 23073, Note_on_c, 0, 56, 64
1, 23131, Note_off_c, 0, 56, 59
1, 23158, Note_on_c, 0, 71, 65
1, 23171, Note_on_c, 0, 63, 45
1, 23230, Note_off_c, 0, 71, 63
1, 23243, Note_off_c, 0, 63, 61
1, 23244, Note_on_c, 0, 73, 68
1, 23249, Note_on_c, 0, 56, 57
1, 23296, Note_off_c, 0, 56, 62
1, 23316, Note_off_c, 0, 73, 64
1, 23334, Note_on_c, 0, 63, 52
1, 23341, Note_on_c, 0, 72, 35
1, 23373, Note_off_c, 0, 72, 53
1, 23391, Note_off_c, 0, 63, 56
1, 23435, Note_on_c, 0, 53, 69
1, 23476, Note_off_c, 0, 53, 64
1, 23519, Note_on_c, 0, 74, 64
1, 23538, Note_on_c, 0, 62, 52
1, 23558, Note_off_c, 0, 74, 60
1, 23590, Note_off_c, 0, 62, 61
1, 23599, Note_on_c, 0, 56, 62
1, 23614, Note_on_c, 0, 80, 67
1, 23650, Note_off_c, 0, 56, 55
1, 23683, Note_off_c, 0, 80, 60
1, 23686, Note_on_c, 0, 74, 57
1, 23701, Note_on_c, 0, 62, 50
1, 23754, Note_off_c, 0, 62, 55
1, 23761, Note_off_c, 0, 74, 64
1, 23793, Note_on_c, 0, 75, 53
1, 23797, Note_on_c, 0, 51, 49
1, 23859, Note_off_c, 0, 51, 53
1, 23888, Note_on_c, 0, 63, 53
1, 23960, Note_off_c, 0, 63, 62
1, 23972, Note_on_c, 0, 55, 56
1, 24021, Note_off_c, 0, 75, 59
1, 24034, Note_off_c, 0, 55, 61
1, 24055, Note_on_c, 0, 63, 61
1, 24099, Note_off_c, 0, 63, 57
1, 24146, Note_on_c, 0, 53, 80
1, 24221, Note_off_c, 0, 53, 62
1, 24238, Note_on_c, 0, 74, 76
1, 24249, Note_on_c, 0, 62, 67
1, 24307, Note_off_c, 0, 62, 53
1, 24311, Note_off_c, 0, 74, 62
1, 24329, Note_on_c, 0, 56, 68
1, 24329, Note_on_c, 0, 80, 71
1, 24392, Note_off_c, 0, 56, 59
1, 24405, Note_on_c, 0, 74, 62
1, 24413, Note_on_c, 0, 62, 66
1, 24417, Note_off_c, 0, 80, 59
1, 24471, Note_off_c, 0, 62, 61
1, 24491, Note_off_c, 0, 74, 61
1, 24500, Note_on_c, 0, 75, 74
1, 24509, Note_on_c, 0, 51, 66
1, 24586, Note_off_c, 0, 51, 61
1, 24593, Note_on_c, 0, 63, 67
1, 24634, Control_c, 0, 64, 21
1, 24649, Control_c, 0, 64, 30
1, 24663, Control_c, 0, 64, 33
1, 24678, Note_off_c, 0, 63, 63
1, 24678, Control_c, 0, 64, 36
1, 24679, Note_on_c, 0, 55, 70
1, 24685, Note_off_c, 0, 75, 55
1, 24693, Control_c, 0, 64, 37
1, 24707, Control_c, 0, 64, 37
1, 24722, Control_c, 0, 64, 37
1, 24737, Control_c, 0, 64, 34
1, 24752, Control_c, 0, 64, 32
1, 24762, Note_on_c, 0, 63, 70
1, 24766, Note_off_c, 0, 55, 66
1, 24767, Control_c, 0, 64, 30
1, 24781, Control_c, 0, 64, 28
1, 24792, Note_off_c, 0, 63, 68
1, 24796, Control_c, 0, 64, 26
1, 24811, Control_c, 0, 64, 22
1, 24826, Control_c, 0, 64, 15
1, 24841, Control_c, 0, 64, 0
1, 24855, Note_on_c, 0, 49, 90
1, 24959, Note_on_c, 0, 58, 73
1, 24964, Note_on_c, 0, 79, 86
1, 24965, Note_off_c, 0, 49, 64
1, 25038, Note_on_c, 0, 52, 75
1, 25038, Note_off_c, 0, 58, 63
1, 25039, Note_off_c, 0, 79, 59
1, 25048, Note_on_c, 0, 88, 87
1, 25105, Note_off_c, 0, 88, 60
1, 25109, Note_on_c, 0, 58, 71
1, 25111, Note_off_c, 0, 52, 66
1, 25129, Note_on_c, 0, 79, 82
1, 25168, Note_off_c, 0, 58, 62
1, 25216, Note_off_c, 0, 79, 61
1, 25220, Note_on_c, 0, 80, 79
1, 25225, Note_on_c, 0, 48, 63
1, 25279, Control_c, 0, 64, 13
1, 25293, Control_c, 0, 64, 29
1, 25304, Note_off_c, 0, 48, 63
1, 25308, Control_c, 0, 64, 39
1, 25314, Note_on_c, 0, 56, 73
1, 25323, Control_c, 0, 64, 45
1, 25337, Control_c, 0, 64, 48
1, 25364, Note_off_c, 0, 80, 63
1, 25367, Control_c, 0, 64, 47
1, 25382, Control_c, 0, 64, 44
1, 25394, Note_off_c, 0, 56, 57
1, 25397, Control_c, 0, 64, 41
1, 25402, Note_on_c, 0, 51, 75
1, 25412, Control_c, 0, 64, 35
1, 25427, Control_c, 0, 64, 27
1, 25441, Control_c, 0, 64, 11
1, 25456, Control_c, 0, 64, 0
1, 25482, Note_off_c, 0, 51, 63
1, 25489, Note_on_c, 0, 56, 80
1, 25546, Note_off_c, 0, 56, 57
1, 25576, Note_on_c, 0, 49, 82
1, 25654, Note_off_c, 0, 49, 61
1, 25664, Note_on_c, 0, 79, 66
1, 25668, Note_on_c, 0, 58, 65
1, 25737, Note_off_c, 0, 79, 58
1, 25738, Note_off_c, 0, 58, 61
1, 25750, Note_on_c, 0, 52, 70
1, 25751, Note_on_c, 0, 88, 72
1, 25812, Note_off_c, 0, 88, 64
1, 25817, Note_off_c, 0, 52, 57
1, 25837, Note_on_c, 0, 79, 69
1, 25841, Note_on_c, 0, 58, 63
1, 25863, Note_off_c, 0, 79, 68
1, 25903, Note_off_c, 0, 58, 61
1, 25928, Note_on_c, 0, 48, 67
1, 25990, Note_off_c, 0, 48, 61
1, 26020, Note_on_c, 0, 56, 60
1, 26032, Note_on_c, 0, 79, 64
1, 26087, Note_off_c, 0, 56, 53
1, 26093, Note_off_c, 0, 79, 60
1, 26097, Note_on_c, 0, 82, 68
1, 26108, Note_on_c, 0, 51, 60
1, 26157, Note_off_c, 0, 51, 64
1, 26180, Note_off_c, 0, 82, 63
1, 26185, Note_on_c, 0, 80, 69
1, 26193, Note_on_c, 0, 56, 62
1, 26209, Note_off_c, 0, 80, 66
1, 26250, Note_off_c, 0, 56, 63
1, 26274, Note_on_c, 0, 43, 71
1, 26372, Note_on_c, 0, 81, 81
1, 26380, Note_on_c, 0, 55, 70
1, 26396, Note_off_c, 0, 43, 50
1, 26460, Note_on_c, 0, 84, 82
1, 26468, Note_on_c, 0, 51, 72
1, 26482, Note_off_c, 0, 81, 63
1, 26487, Note_off_c, 0, 55, 61
1, 26539, Note_on_c, 0, 82, 81
1, 26544, Note_on_c, 0, 55, 65
1, 26545, Note_off_c, 0, 84, 64
1, 26562, Note_off_c, 0, 82, 67
1, 26583, Note_off_c, 0, 51, 62
1, 26632, Note_on_c, 0, 44, 81
1, 26633, Note_off_c, 0, 55, 61
1, 26714, Note_on_c, 0, 56, 77
1, 26729, Note_on_c, 0, 83, 93
1, 26734, Note_off_c, 0, 44, 62
1, 26804, Note_on_c, 0, 85, 88
1, 26816, Note_on_c, 0, 51, 80
1, 26821, Note_off_c, 0, 56, 65
1, 26827, Note_off_c, 0, 83, 63
1, 26881, Note_on_c, 0, 84, 91
1, 26888, Note_on_c, 0, 56, 77
1, 26904, Note_off_c, 0, 85, 65
1, 26917, Note_off_c, 0, 51, 63
1, 26922, Note_off_c, 0, 84, 67
1, 26974, Note_on_c, 0, 46, 93
1, 26987, Note_off_c, 0, 56, 65
1, 27069, Note_on_c, 0, 58, 82
1, 27072, Note_on_c, 0, 84, 90
1, 27076, Note_off_c, 0, 46, 65
1, 27152, Note_on_c, 0, 51, 79
1, 27161, Note_off_c, 0, 58, 64
1, 27161, Note_on_c, 0, 87, 82
1, 27173, Note_off_c, 0, 84, 62
1, 27236, Note_on_c, 0, 58, 79
1, 27237, Note_on_c, 0, 85, 81
1, 27251, Note_off_c, 0, 51, 64
1, 27254, Note_off_c, 0, 87, 63
1, 27289, Note_off_c, 0, 85, 64
1, 27308, Note_off_c, 0, 58, 63
1, 27343, Note_on_c, 0, 48, 94
1, 27420, Note_off_c, 0, 48, 64
1, 27452, Note_on_c, 0, 86, 77
1, 27549, Note_on_c, 0, 51, 97
1, 27559, Note_on_c, 0, 89, 82
1, 27568, Note_off_c, 0, 86, 43
1, 27652, Note_on_c, 0, 87, 84
1, 27675, Note_off_c, 0, 89, 64
1, 27747, Note_on_c, 0, 85, 86
1, 27776, Note_off_c, 0, 87, 63
1, 27829, Note_on_c, 0, 84, 87
1, 27838, Note_off_c, 0, 85, 64
1, 27878, Note_off_c, 0, 51, 61
1, 27931, Note_on_c, 0, 56, 87
1, 27934, Note_on_c, 0, 82, 86
1, 27942, Note_off_c, 0, 84, 63
1, 28017, Note_on_c, 0, 80, 93
1, 28050, Note_off_c, 0, 56, 55
1, 28071, Note_off_c, 0, 82, 61
1, 28109, Note_on_c, 0, 49, 94
1, 28114, Note_on_c, 0, 79, 91
1, 28145, Note_off_c, 0, 80, 59
1, 28190, Note_off_c, 0, 49, 62
1, 28206, Note_off_c, 0, 79, 63
1, 28209, Note_on_c, 0, 77, 87
1, 28309, Note_on_c, 0, 75, 84
1, 28313, Note_on_c, 0, 53, 93
1, 28323, Note_off_c, 0, 77, 59
1, 28405, Note_on_c, 0, 73, 87
1, 28437, Note_off_c, 0, 75, 62
1, 28497, Note_on_c, 0, 72, 84
1, 28497, Note_off_c, 0, 73, 66
1, 28587, Note_on_c, 0, 70, 88
1, 28590, Note_off_c, 0, 53, 53
1, 28597, Note_off_c, 0, 72, 64
1, 28683, Note_on_c, 0, 58, 80
1, 28685, Note_on_c, 0, 68, 86
1, 28743, Note_off_c, 0, 70, 61
1, 28776, Note_on_c, 0, 67, 89
1, 28802, Note_off_c, 0, 68, 60
1, 28822, Note_off_c, 0, 58, 59
1, 28861, Note_off_c, 0, 67, 63
1, 28879, Note_on_c, 0, 51, 67
1, 28881, Note_on_c, 0, 65, 71
1, 28967, Note_off_c, 0, 65, 62
1, 28987, Note_on_c, 0, 63, 62
1, 29014, Note_off_c, 0, 51, 53
1, 29074, Note_off_c, 0, 63, 64
1, 29090, Note_on_c, 0, 62, 62
1, 29103, Note_on_c, 0, 56, 53
1, 29183, Note_off_c, 0, 62, 61
1, 29202, Note_on_c, 0, 63, 60
1, 29270, Note_off_c, 0, 63, 62
1, 29282, Note_on_c, 0, 62, 52
1, 29367, Note_off_c, 0, 62, 63
1, 29385, Note_on_c, 0, 63, 53
1, 29452, Note_off_c, 0, 63, 60
1, 29468, Note_on_c, 0, 60, 54
1, 29475, Note_on_c, 0, 62, 51
1, 29519, Note_off_c, 0, 56, 54
1, 29553, Note_off_c, 0, 62, 62
1, 29576, Note_on_c, 0, 63, 54
1, 29642, Note_off_c, 0, 63, 64
1, 29662, Note_on_c, 0, 61, 63
1, 29667, Note_on_c, 0, 62, 57
1, 29667, Note_off_c, 0, 60, 65
1, 29746, Note_off_c, 0, 62, 63
1, 29770, Note_on_c, 0, 63, 57
1, 29840, Note_off_c, 0, 63, 63
1, 29857, Note_on_c, 0, 65, 60
1, 29858, Note_on_c, 0, 58, 65
1, 29901, Note_off_c, 0, 61, 59
1, 29936, Note_off_c, 0, 65, 64
1, 29954, Note_on_c, 0, 63, 61
1, 30013, Note_off_c, 0, 63, 63
1, 30038, Note_on_c, 0, 55, 59
1, 30041, Note_on_c, 0, 62, 62
1, 30049, Note_off_c, 0, 58, 61
1, 30116, Note_off_c, 0, 62, 60
1, 30134, Note_on_c, 0, 63, 61
1, 30211, Note_off_c, 0, 63, 63
1, 30235, Note_on_c, 0, 65, 61
1, 30235, Note_on_c, 0, 49, 65
1, 30249, Note_off_c, 0, 55, 62
1, 30291, Note_off_c, 0, 49, 65
1, 30327, Note_on_c, 0, 63, 69
1, 30339, Note_off_c, 0, 65, 59
1, 30400, Note_off_c, 0, 63, 63
1, 30440, Note_on_c, 0, 36, 87
1, 30543, Note_off_c, 0, 36, 54
1, 30557, Note_on_c, 0, 80, 87
1, 30634, Note_off_c, 0, 80, 62
1, 30644, Note_on_c, 0, 39, 96
1, 30652, Note_on_c, 0, 89, 86
1, 30747, Note_on_c, 0, 87, 90
1, 30772, Note_off_c, 0, 89, 65
1, 30838, Note_on_c, 0, 85, 87
1, 30870, Note_off_c, 0, 87, 64
1, 30923, Note_on_c, 0, 84, 84
1, 30930, Note_off_c, 0, 85, 65
1, 30963, Note_off_c, 0, 39, 60
1, 31017, Note_on_c, 0, 44, 87
1, 31022, Note_off_c, 0, 84, 59
1, 31027, Note_on_c, 0, 82, 81
1, 31108, Note_on_c, 0, 80, 88
1, 31150, Note_off_c, 0, 82, 59
1, 31175, Note_off_c, 0, 44, 52
1, 31195, Note_on_c, 0, 37, 84
1, 31206, Note_on_c, 0, 79, 83
1, 31224, Note_off_c, 0, 80, 60
1, 31287, Note_off_c, 0, 79, 63
1, 31295, Note_on_c, 0, 77, 83
1, 31299, Note_off_c, 0, 37, 63
1, 31397, Note_on_c, 0, 41, 91
1, 31397, Note_on_c, 0, 75, 82
1, 31408, Note_off_c, 0, 77, 59
1, 31498, Note_on_c, 0, 73, 84
1, 31520, Note_off_c, 0, 75, 59
1, 31587, Note_off_c, 0, 73, 65
1, 31591, Note_on_c, 0, 72, 80
1, 31689, Note_on_c, 0, 70, 87
1, 31697, Note_off_c, 0, 72, 62
1, 31769, Note_off_c, 0, 41, 62
1, 31786, Note_on_c, 0, 68, 86
1, 31788, Note_on_c, 0, 46, 91
1, 31830, Note_off_c, 0, 70, 61
1, 31876, Note_on_c, 0, 67, 84
1, 31902, Note_off_c, 0, 68, 59
1, 31963, Note_off_c, 0, 67, 63
1, 31970, Note_on_c, 0, 39, 87
1, 31970, Note_off_c, 0, 46, 64
1, 31975, Note_on_c, 0, 65, 75
1, 32071, Note_on_c, 0, 63, 76
1, 32071, Note_off_c, 0, 65, 66
1, 32086, Note_off_c, 0, 39, 65
1, 32175, Note_on_c, 0, 61, 73
1, 32178, Note_on_c, 0, 44, 71
1, 32188, Note_off_c, 0, 63, 56
1, 32254, Note_off_c, 0, 61, 65
1, 32268, Note_on_c, 0, 60, 67
1, 32357, Note_off_c, 0, 60, 63
1, 32372, Note_on_c, 0, 58, 64
1, 32463, Note_on_c, 0, 56, 62
1, 32463, Note_off_c, 0, 58, 62
1, 32554, Note_off_c, 0, 56, 64
1, 32560, Note_on_c, 0, 48, 70
1, 32560, Note_on_c, 0, 55, 68
1, 32604, Note_off_c, 0, 44, 59
1, 32627, Note_off_c, 0, 55, 65
1, 32649, Note_on_c, 0, 53, 64
1, 32722, Note_off_c, 0, 53, 65
1, 32740, Note_on_c, 0, 51, 58
1, 32765, Note_on_c, 0, 49, 72
1, 32782, Note_off_c, 0, 48, 63
1, 32816, Note_off_c, 0, 51, 63
1, 32846, Note_on_c, 0, 53, 69
1, 32937, Note_off_c, 0, 53, 65
1, 32945, Note_on_c, 0, 55, 63
1, 32956, Note_on_c, 0, 46, 71
1, 33005, Note_off_c, 0, 49, 57
1, 33049, Note_on_c, 0, 56, 71
1, 33052, Note_off_c, 0, 55, 63
1, 33063, Control_c, 0, 67, 11
1, 33077, Control_c, 0, 67, 17
1, 33092, Control_c, 0, 67, 23
1, 33107, Control_c, 0, 67, 32
1, 33122, Control_c, 0, 67, 43
1, 33137, Control_c, 0, 67, 53
1, 33141, Note_on_c, 0, 43, 68
1, 33144, Note_on_c, 0, 58, 71
1, 33159, Control_c, 0, 67, 63
1, 33168, Note_off_c, 0, 56, 62
1, 33174, Control_c, 0, 67, 76
1, 33178, Note_off_c, 0, 46, 64
1, 33189, Control_c, 0, 67, 88
1, 33204, Control_c, 0, 67, 104
1, 33219, Control_c, 0, 67, 122
1, 33227, Note_off_c, 0, 58, 61
1, 33233, Control_c, 0, 67, 127
1, 33249, Note_on_c, 0, 60, 70
1, 33307, Note_off_c, 0, 60, 59
1, 33326, Note_off_c, 0, 43, 62
1, 33327, Note_on_c, 0, 39, 68
1, 33344, Note_on_c, 0, 61, 69
1, 33375, Note_off_c, 0, 39, 60
1, 33385, Note_off_c, 0, 61, 63
1, 33418, Note_on_c, 0, 58, 69
1, 33461, Note_off_c, 0, 58, 61
1, 33515, Note_on_c, 0, 44, 67
1, 33520, Note_on_c, 0, 56, 65
1, 33540, Note_off_c, 0, 44, 66
1, 33645, Note_off_c, 0, 56, 65
1, 33737, Note_on_c, 0, 56, 64
1, 33767, Note_off_c, 0, 56, 67
1, 33966, Note_on_c, 0, 62, 49
1, 34041, Note_on_c, 0, 71, 68
1, 34045, Note_off_c, 0, 62, 62
1, 34234, Note_on_c, 0, 50, 58
1, 34236, Note_on_c, 0, 56, 50
1, 34238, Note_on_c, 0, 59, 52
1, 34256, Note_on_c, 0, 53, 22
1, 34257, Note_off_c, 0, 53, 127
1, 34257, Note_off_c, 0, 50, 61
1, 34262, Note_off_c, 0, 59, 58
1, 34262, Note_off_c, 0, 56, 56
1, 34300, Note_off_c, 0, 71, 62
1, 34321, Note_on_c, 0, 70, 70
1, 34370, Note_off_c, 0, 70, 65
1, 34397, Control_c, 0, 67, 113
1, 34412, Control_c, 0, 67, 91
1, 34413, Note_on_c, 0, 68, 65
1, 34426, Control_c, 0, 67, 68
1, 34441, Control_c, 0, 67, 48
1, 34456, Control_c, 0, 67, 34
1, 34471, Control_c, 0, 67, 25
1, 34486, Control_c, 0, 67, 13
1, 34500, Control_c, 0, 67, 0
1, 34611, Note_on_c, 0, 56, 54
1, 34616, Note_on_c, 0, 60, 64
1, 34623, Note_on_c, 0, 51, 56
1, 34647, Note_off_c, 0, 56, 67
1, 34651, Note_off_c, 0, 60, 67
1, 34656, Note_off_c, 0, 51, 65
1, 34822, Note_on_c, 0, 67, 67
1, 34823, Note_off_c, 0, 68, 59
1, 35025, Note_on_c, 0, 58, 61
1, 35029, Note_on_c, 0, 51, 59
1, 35029, Note_on_c, 0, 61, 60
1, 35045, Note_off_c, 0, 58, 63
1, 35049, Note_off_c, 0, 61, 66
1, 35057, Note_off_c, 0, 51, 65
1, 35114, Note_on_c, 0, 75, 79
1, 35129, Note_off_c, 0, 67, 62
1, 35162, Note_off_c, 0, 75, 63
1, 35213, Note_on_c, 0, 75, 77
1, 35449, Note_on_c, 0, 68, 71
1, 35454, Note_on_c, 0, 56, 58
1, 35460, Note_on_c, 0, 60, 53
1, 35463, Note_off_c, 0, 75, 59
1, 35476, Note_off_c, 0, 56, 66
1, 35481, Note_off_c, 0, 60, 62
1, 35515, Note_off_c, 0, 68, 61
1, 35635, Note_on_c, 0, 62, 63
1, 35682, Note_on_c, 0, 71, 68
1, 35696, Note_off_c, 0, 62, 52
1, 35867, Note_on_c, 0, 59, 60
1, 35868, Note_on_c, 0, 56, 55
1, 35873, Note_on_c, 0, 50, 51
1, 35873, Note_on_c, 0, 53, 44
1, 35888, Note_off_c, 0, 59, 63
1, 35892, Note_off_c, 0, 56, 60
1, 35898, Note_off_c, 0, 50, 55
1, 35903, Note_off_c, 0, 53, 56
1, 35946, Note_off_c, 0, 71, 65
1, 35951, Note_on_c, 0, 70, 73
1, 36005, Note_off_c, 0, 70, 60
1, 36039, Note_on_c, 0, 68, 73
1, 36245, Note_on_c, 0, 56, 60
1, 36248, Note_on_c, 0, 60, 63
1, 36254, Note_on_c, 0, 51, 58
1, 36271, Note_off_c, 0, 56, 68
1, 36277, Note_off_c, 0, 60, 66
1, 36280, Note_off_c, 0, 51, 64
1, 36453, Note_on_c, 0, 67, 73
1, 36460, Note_off_c, 0, 68, 61
1, 36656, Note_on_c, 0, 61, 74
1, 36659, Note_on_c, 0, 58, 64
1, 36661, Note_on_c, 0, 51, 66
1, 36679, Note_off_c, 0, 58, 65
1, 36679, Note_off_c, 0, 61, 70
1, 36685, Note_off_c, 0, 51, 66
1, 36747, Note_on_c, 0, 75, 79
1, 36751, Note_off_c, 0, 67, 55
1, 36792, Note_off_c, 0, 75, 63
1, 36831, Note_on_c, 0, 75, 85
1, 37025, Note_on_c, 0, 68, 82
1, 37032, Note_on_c, 0, 56, 76
1, 37034, Note_on_c, 0, 60, 68
1, 37047, Note_off_c, 0, 75, 55
1, 37055, Note_off_c, 0, 56, 68
1, 37059, Note_off_c, 0, 60, 69
1, 37066, Control_c, 0, 64, 12
1, 37081, Control_c, 0, 64, 17
1, 37095, Note_off_c, 0, 68, 62
1, 37096, Control_c, 0, 64, 19
1, 37111, Control_c, 0, 64, 20
1, 37125, Control_c, 0, 64, 20
1, 37170, Control_c, 0, 64, 17
1, 37185, Control_c, 0, 64, 11
1, 37199, Control_c, 0, 64, 0
1, 37207, Note_on_c, 0, 74, 76
1, 37261, Note_on_c, 0, 83, 96
1, 37302, Note_off_c, 0, 74, 65
1, 37464, Note_on_c, 0, 62, 78
1, 37466, Note_on_c, 0, 71, 84
1, 37466, Note_on_c, 0, 68, 79
1, 37472, Note_on_c, 0, 65, 70
1, 37485, Note_off_c, 0, 71, 74
1, 37487, Note_off_c, 0, 68, 69
1, 37488, Note_off_c, 0, 62, 70
1, 37497, Note_off_c, 0, 65, 71
1, 37543, Note_on_c, 0, 82, 96
1, 37563, Note_off_c, 0, 83, 61
1, 37633, Note_on_c, 0, 80, 102
1, 37669, Note_off_c, 0, 82, 65
1, 37827, Note_on_c, 0, 63, 82
1, 37829, Note_on_c, 0, 72, 92
1, 37830, Note_on_c, 0, 68, 86
1, 37856, Note_off_c, 0, 72, 65
1, 37861, Note_off_c, 0, 63, 64
1, 37868, Note_off_c, 0, 68, 62
1, 38018, Note_on_c, 0, 79, 102
1, 38030, Note_off_c, 0, 80, 50
1, 38243, Note_on_c, 0, 73, 92
1, 38247, Note_on_c, 0, 63, 82
1, 38248, Note_on_c, 0, 70, 82
1, 38263, Note_off_c, 0, 73, 70
1, 38267, Note_off_c, 0, 70, 72
1, 38280, Note_off_c, 0, 63, 65
1, 38364, Note_on_c, 0, 87, 100
1, 38427, Note_off_c, 0, 79, 0
1, 38465, Poly_aftertouch_c, 0, 79, 127
1, 38514, Note_off_c, 0, 87, 64
1, 38529, Poly_aftertouch_c, 0, 79, 0
1, 38575, Note_on_c, 0, 87, 99
1, 38577, Note_on_c, 0, 67, 91
1, 38577, Note_on_c, 0, 75, 98
1, 38580, Note_on_c, 0, 56, 83
1, 38581, Note_on_c, 0, 58, 76
1, 38581, Note_on_c, 0, 79, 80
1, 38581, Note_on_c, 0, 63, 80
1, 38586, Note_on_c, 0, 61, 78
1, 39164, Control_c, 0, 64, 24
1, 39178, Control_c, 0, 64, 42
1, 39193, Control_c, 0, 64, 56
1, 39208, Control_c, 0, 64, 64
1, 39222, Control_c, 0, 64, 71
1, 39237, Control_c, 0, 64, 78
1, 39252, Control_c, 0, 64, 89
1, 39267, Control_c, 0, 64, 103
1, 39282, Control_c, 0, 64, 122
1, 39297, Control_c, 0, 64, 127
1, 39353, Note_off_c, 0, 61, 57
1, 39355, Note_off_c, 0, 67, 53
1, 39376, Note_off_c, 0, 79, 58
1, 39389, Note_off_c, 0, 87, 64
1, 39419, Note_off_c, 0, 63, 38
1, 39431, Note_off_c, 0, 56, 53
1, 39451, Note_off_c, 0, 58, 35
1, 39466, Note_off_c, 0, 75, 58
1, 39520, Control_c, 0, 67, 13
1, 39535, Control_c, 0, 67, 25
1, 39550, Control_c, 0, 67, 40
1, 39565, Control_c, 0, 67, 59
1, 39580, Control_c, 0, 67, 81
1, 39594, Control_c, 0, 67, 104
1, 39609, Control_c, 0, 67, 125
1, 39624, Control_c, 0, 67, 127
1, 39865, Note_on_c, 0, 80, 60
1, 39876, Note_on_c, 0, 75, 47
1, 39893, Note_on_c, 0, 72, 42
1, 39893, Note_on_c, 0, 68, 36
1, 39898, Control_c, 0, 64, 105
1, 39901, Note_on_c, 0, 60, 39
1, 39905, Note_on_c, 0, 56, 37
1, 39906, Note_on_c, 0, 63, 39
1, 39913, Control_c, 0, 64, 84
1, 39927, Control_c, 0, 64, 71
1, 39942, Control_c, 0, 64, 61
1, 39957, Control_c, 0, 64, 49
1, 39971, Control_c, 0, 64, 21
1, 39986, Control_c, 0, 64, 0
1, 40447, Note_off_c, 0, 72, 59
1, 40459, Note_off_c, 0, 80, 62
1, 40464, Note_off_c, 0, 75, 57
1, 40474, Note_off_c, 0, 60, 64
1, 40474, Note_off_c, 0, 68, 61
1, 40477, Note_off_c, 0, 56, 60
1, 40480, Note_off_c, 0, 63, 63
1, 41023, Note_on_c, 0, 63, 47
1, 41049, Note_off_c, 0, 63, 58
1, 41211, Note_on_c, 0, 68, 58
1, 41236, Note_off_c, 0, 68, 59
1, 41411, Note_on_c, 0, 72, 62
1, 41437, Note_off_c, 0, 72, 64
1, 41598, Note_on_c, 0, 75, 63
1, 41618, Note_off_c, 0, 75, 62
1, 41782, Note_on_c, 0, 80, 63
1, 41813, Note_off_c, 0, 80, 58
1, 41971, Note_on_c, 0, 84, 69
1, 42167, Note_on_c, 0, 60, 46
1, 42169, Note_on_c, 0, 63, 49
1, 42170, Note_on_c, 0, 56, 50
1, 42193, Note_off_c, 0, 60, 57
1, 42194, Note_off_c, 0, 56, 59
1, 42195, Note_off_c, 0, 63, 59
1, 42206, Note_off_c, 0, 84, 58
1, 42221, Note_on_c, 0, 82, 53
1, 42256, Note_on_c, 0, 80, 66
1, 42261, Note_off_c, 0, 82, 64
1, 42289, Note_off_c, 0, 80, 64
1, 42298, Note_on_c, 0, 79, 57
1, 42333, Note_on_c, 0, 80, 71
1, 42345, Note_off_c, 0, 79, 64
1, 42355, Note_off_c, 0, 80, 70
1, 42358, Note_on_c, 0, 63, 52
1, 42360, Note_on_c, 0, 56, 47
1, 42361, Note_on_c, 0, 60, 45
1, 42385, Note_off_c, 0, 60, 60
1, 42388, Note_off_c, 0, 63, 54
1, 42392, Note_off_c, 0, 56, 60
1, 42545, Note_on_c, 0, 56, 59
1, 42547, Note_on_c, 0, 60, 45
1, 42550, Note_on_c, 0, 63, 63
1, 42570, Note_off_c, 0, 63, 65
1, 42572, Note_off_c, 0, 56, 67
1, 42573, Note_off_c, 0, 60, 53
1, 42691, Note_on_c, 0, 73, 72
1, 42740, Note_on_c, 0, 85, 85
1, 42769, Note_off_c, 0, 73, 63
1, 42933, Note_on_c, 0, 63, 67
1, 42937, Note_on_c, 0, 58, 61
1, 42939, Note_on_c, 0, 61, 54
1, 42940, Note_on_c, 0, 55, 52
1, 42957, Note_off_c, 0, 58, 64
1, 42958, Note_off_c, 0, 63, 69
1, 42960, Note_off_c, 0, 61, 62
1, 42964, Note_off_c, 0, 55, 60
1, 43008, Note_on_c, 0, 84, 68
1, 43023, Note_off_c, 0, 85, 60
1, 43044, Note_on_c, 0, 82, 71
1, 43056, Note_off_c, 0, 84, 58
1, 43077, Note_on_c, 0, 81, 73
1, 43078, Note_off_c, 0, 82, 67
1, 43129, Note_on_c, 0, 82, 84
1, 43134, Note_off_c, 0, 81, 65
1, 43139, Note_on_c, 0, 63, 57
1, 43142, Note_on_c, 0, 55, 46
1, 43143, Note_on_c, 0, 58, 62
1, 43147, Note_off_c, 0, 82, 74
1, 43151, Note_on_c, 0, 61, 47
1, 43163, Note_off_c, 0, 63, 61
1, 43167, Note_off_c, 0, 58, 65
1, 43169, Note_off_c, 0, 55, 59
1, 43176, Note_off_c, 0, 61, 56
1, 43326, Note_on_c, 0, 61, 48
1, 43328, Note_on_c, 0, 58, 54
1, 43330, Note_on_c, 0, 63, 57
1, 43330, Note_on_c, 0, 55, 48
1, 43349, Note_off_c, 0, 61, 60
1, 43351, Note_off_c, 0, 58, 59
1, 43352, Note_off_c, 0, 63, 61
1, 43359, Note_off_c, 0, 55, 55
1, 43511, Note_on_c, 0, 70, 57
1, 43533, Note_off_c, 0, 70, 62
1, 43720, Note_on_c, 0, 73, 57
1, 43758, Note_off_c, 0, 73, 58
1, 43899, Note_on_c, 0, 79, 61
1, 43929, Note_off_c, 0, 79, 60
1, 43982, Control_c, 0, 67, 123
1, 43997, Control_c, 0, 67, 112
1, 44011, Control_c, 0, 67, 99
1, 44026, Control_c, 0, 67, 85
1, 44041, Control_c, 0, 67, 69
1, 44056, Control_c, 0, 67, 52
1, 44071, Control_c, 0, 67, 31
1, 44078, Note_on_c, 0, 82, 49
1, 44085, Control_c, 0, 67, 16
1, 44100, Control_c, 0, 67, 0
1, 44105, Note_off_c, 0, 82, 58
1, 44249, Note_on_c, 0, 73, 56
1, 44265, Control_c, 0, 67, 8
1, 44280, Control_c, 0, 67, 9
1, 44288, Note_off_c, 0, 73, 56
1, 44295, Control_c, 0, 67, 11
1, 44301, Note_on_c, 0, 85, 65
1, 44309, Control_c, 0, 67, 18
1, 44324, Control_c, 0, 67, 33
1, 44339, Control_c, 0, 67, 53
1, 44353, Control_c, 0, 67, 65
1, 44368, Control_c, 0, 67, 68
1, 44406, Control_c, 0, 67, 66
1, 44421, Control_c, 0, 67, 64
1, 44435, Control_c, 0, 67, 63
1, 44450, Control_c, 0, 67, 62
1, 44465, Control_c, 0, 67, 61
1, 44472, Note_on_c, 0, 58, 56
1, 44475, Note_on_c, 0, 64, 53
1, 44479, Note_on_c, 0, 55, 50
1, 44480, Control_c, 0, 67, 60
1, 44484, Note_on_c, 0, 61, 37
1, 44493, Note_off_c, 0, 58, 61
1, 44495, Control_c, 0, 67, 58
1, 44497, Note_off_c, 0, 64, 59
1, 44504, Note_off_c, 0, 55, 59
1, 44509, Control_c, 0, 67, 57
1, 44516, Note_off_c, 0, 61, 55
1, 44524, Control_c, 0, 67, 55
1, 44526, Note_off_c, 0, 85, 51
1, 44539, Control_c, 0, 67, 51
1, 44546, Note_on_c, 0, 84, 56
1, 44554, Control_c, 0, 67, 46
1, 44568, Control_c, 0, 67, 40
1, 44577, Note_on_c, 0, 82, 66
1, 44583, Control_c, 0, 67, 34
1, 44589, Note_off_c, 0, 84, 60
1, 44598, Control_c, 0, 67, 25
1, 44606, Note_off_c, 0, 82, 69
1, 44613, Control_c, 0, 67, 15
1, 44616, Note_on_c, 0, 81, 75
1, 44628, Control_c, 0, 67, 0
1, 44662, Note_on_c, 0, 82, 76
1, 44663, Note_off_c, 0, 81, 65
1, 44667, Note_on_c, 0, 64, 58
1, 44671, Note_on_c, 0, 58, 54
1, 44672, Note_on_c, 0, 61, 46
1, 44683, Note_off_c, 0, 82, 71
1, 44686, Note_on_c, 0, 55, 34
1, 44687, Note_off_c, 0, 64, 64
1, 44693, Note_off_c, 0, 58, 60
1, 44698, Note_off_c, 0, 61, 56
1, 44721, Note_off_c, 0, 55, 50
1, 44850, Note_on_c, 0, 55, 63
1, 44854, Note_on_c, 0, 58, 64
1, 44858, Note_on_c, 0, 64, 64
1, 44859, Note_on_c, 0, 61, 58
1, 44877, Note_off_c, 0, 55, 68
1, 44877, Note_off_c, 0, 64, 65
1, 44880, Note_off_c, 0, 61, 64
1, 44883, Note_off_c, 0, 58, 66
1, 45006, Note_on_c, 0, 73, 79
1, 45064, Note_on_c, 0, 85, 94
1, 45098, Note_off_c, 0, 73, 64
1, 45240, Note_on_c, 0, 64, 78
1, 45241, Note_on_c, 0, 54, 77
1, 45245, Note_on_c, 0, 58, 68
1, 45249, Note_on_c, 0, 61, 63
1, 45261, Note_off_c, 0, 64, 69
1, 45267, Note_off_c, 0, 61, 65
1, 45267, Note_off_c, 0, 54, 67
1, 45273, Note_off_c, 0, 58, 66
1, 45321, Note_on_c, 0, 84, 74
1, 45338, Note_off_c, 0, 85, 62
1, 45355, Note_on_c, 0, 82, 73
1, 45372, Note_off_c, 0, 84, 61
1, 45394, Note_off_c, 0, 82, 67
1, 45401, Note_on_c, 0, 81, 78
1, 45436, Note_on_c, 0, 64, 82
1, 45440, Note_on_c, 0, 54, 79
1, 45440, Note_on_c, 0, 82, 94
1, 45440, Note_on_c, 0, 61, 71
1, 45443, Note_on_c, 0, 58, 74
1, 45455, Note_off_c, 0, 81, 68
1, 45467, Note_off_c, 0, 61, 67
1, 45468, Note_off_c, 0, 82, 71
1, 45472, Note_off_c, 0, 64, 58
1, 45478, Note_off_c, 0, 58, 59
1, 45482, Note_off_c, 0, 54, 62
1, 45624, Note_on_c, 0, 54, 86
1, 45625, Note_on_c, 0, 64, 92
1, 45626, Note_on_c, 0, 61, 69
1, 45628, Note_on_c, 0, 58, 67
1, 45658, Note_off_c, 0, 61, 68
1, 45673, Note_off_c, 0, 64, 62
1, 45684, Note_off_c, 0, 58, 61
1, 45688, Note_off_c, 0, 54, 62
1, 45843, Note_on_c, 0, 53, 87
1, 45860, Note_on_c, 0, 81, 94
1, 45989, Note_on_c, 0, 65, 82
1, 46022, Note_off_c, 0, 53, 66
1, 46075, Note_on_c, 0, 53, 72
1, 46086, Note_off_c, 0, 65, 64
1, 46172, Note_on_c, 0, 65, 75
1, 46177, Note_off_c, 0, 53, 65
1, 46183, Note_off_c, 0, 81, 58
1, 46266, Note_on_c, 0, 53, 69
1, 46266, Note_off_c, 0, 65, 64
1, 46364, Note_off_c, 0, 53, 60
1, 46384, Note_on_c, 0, 65, 59
1, 46485, Note_off_c, 0, 65, 60
1, 46488, Note_on_c, 0, 78, 65
1, 46498, Note_on_c, 0, 53, 50
1, 46581, Note_off_c, 0, 53, 52
1, 46611, Note_on_c, 0, 65, 52
1, 46710, Note_off_c, 0, 65, 53
1, 46719, Note_on_c, 0, 77, 66
1, 46722, Note_on_c, 0, 53, 46
1, 46753, Note_off_c, 0, 78, 65
1, 46814, Note_off_c, 0, 53, 47
1, 46822, Note_on_c, 0, 65, 54
1, 46898, Note_off_c, 0, 65, 55
1, 46909, Note_on_c, 0, 75, 65
1, 46916, Note_on_c, 0, 53, 52
1, 46967, Note_off_c, 0, 53, 56
1, 46999, Note_on_c, 0, 65, 51
1, 47069, Note_off_c, 0, 77, 47
1, 47071, Note_off_c, 0, 65, 55
1, 47084, Note_on_c, 0, 53, 55
1, 47090, Note_on_c, 0, 72, 66
1, 47136, Note_off_c, 0, 75, 59
1, 47149, Note_off_c, 0, 53, 57
1, 47173, Note_on_c, 0, 65, 61
1, 47228, Note_off_c, 0, 65, 57
1, 47265, Note_off_c, 0, 72, 63
1, 47270, Note_on_c, 0, 53, 64
1, 47271, Note_on_c, 0, 69, 67
1, 47341, Note_off_c, 0, 53, 63
1, 47345, Note_on_c, 0, 65, 66
1, 47407, Note_off_c, 0, 69, 62
1, 47437, Note_off_c, 0, 65, 56
1, 47458, Note_on_c, 0, 63, 77
1, 47458, Note_on_c, 0, 66, 91
1, 47465, Note_on_c, 0, 53, 69
1, 47518, Note_off_c, 0, 53, 66
1, 47694, Note_on_c, 0, 53, 63
1, 47727, Note_off_c, 0, 53, 64
1, 47764, Note_off_c, 0, 66, 61
1, 47771, Note_on_c, 0, 65, 72
1, 47839, Note_off_c, 0, 65, 63
1, 47847, Note_on_c, 0, 61, 68
1, 47848, Note_on_c, 0, 70, 71
1, 47851, Note_on_c, 0, 53, 54
1, 47866, Note_off_c, 0, 63, 57
1, 47867, Note_off_c, 0, 70, 67
1, 47922, Note_off_c, 0, 53, 58
1, 47934, Note_off_c, 0, 61, 64
1, 47951, Note_on_c, 0, 65, 63
1, 48029, Note_on_c, 0, 78, 73
1, 48044, Note_off_c, 0, 65, 59
1, 48049, Note_on_c, 0, 53, 53
1, 48105, Note_off_c, 0, 53, 58
1, 48132, Note_on_c, 0, 65, 53
1, 48228, Note_off_c, 0, 65, 60
1, 48230, Note_on_c, 0, 77, 78
1, 48243, Note_on_c, 0, 53, 49
1, 48263, Note_off_c, 0, 78, 66
1, 48302, Note_off_c, 0, 53, 56
1, 48342, Note_on_c, 0, 65, 54
1, 48409, Note_off_c, 0, 65, 57
1, 48421, Note_on_c, 0, 75, 73
1, 48433, Note_on_c, 0, 53, 45
1, 48493, Note_off_c, 0, 53, 56
1, 48522, Note_on_c, 0, 65, 52
1, 48569, Note_off_c, 0, 77, 47
1, 48594, Note_off_c, 0, 65, 55
1, 48606, Note_on_c, 0, 72, 67
1, 48611, Note_on_c, 0, 53, 54
1, 48656, Note_off_c, 0, 75, 58
1, 48665, Note_off_c, 0, 53, 54
1, 48702, Note_on_c, 0, 65, 55
1, 48780, Note_off_c, 0, 72, 63
1, 48786, Note_off_c, 0, 65, 50
1, 48788, Note_on_c, 0, 69, 61
1, 48801, Note_on_c, 0, 53, 54
1, 48861, Note_off_c, 0, 53, 60
1, 48882, Note_on_c, 0, 65, 62
1, 48925, Note_off_c, 0, 69, 62
1, 48973, Note_on_c, 0, 66, 88
1, 48976, Note_on_c, 0, 63, 87
1, 48984, Note_on_c, 0, 53, 70
1, 48985, Note_off_c, 0, 65, 37
1, 49016, Note_off_c, 0, 53, 68
1, 49208, Note_on_c, 0, 53, 74
1, 49247, Note_off_c, 0, 53, 64
1, 49283, Note_off_c, 0, 66, 60
1, 49296, Note_on_c, 0, 65, 70
1, 49361, Note_off_c, 0, 65, 64
1, 49369, Note_on_c, 0, 70, 67
1, 49370, Note_on_c, 0, 61, 66
1, 49375, Note_on_c, 0, 53, 59
1, 49385, Note_off_c, 0, 63, 56
1, 49387, Note_off_c, 0, 70, 67
1, 49433, Note_off_c, 0, 53, 59
1, 49455, Note_off_c, 0, 61, 64
1, 49464, Note_on_c, 0, 65, 66
1, 49547, Note_on_c, 0, 78, 72
1, 49556, Note_off_c, 0, 65, 57
1, 49558, Note_on_c, 0, 53, 58
1, 49641, Note_off_c, 0, 53, 62
1, 49646, Note_on_c, 0, 65, 52
1, 49733, Note_off_c, 0, 65, 61
1, 49740, Note_on_c, 0, 53, 58
1, 49748, Note_on_c, 0, 77, 78
1, 49795, Note_off_c, 0, 78, 65
1, 49837, Note_off_c, 0, 53, 62
1, 49838, Note_on_c, 0, 65, 60
1, 49921, Note_off_c, 0, 65, 63
1, 49928, Note_on_c, 0, 53, 55
1, 49930, Note_on_c, 0, 75, 69
1, 49973, Note_off_c, 0, 53, 61
1, 50005, Note_on_c, 0, 65, 51
1, 50029, Note_off_c, 0, 77, 50
1, 50095, Note_off_c, 0, 65, 61
1, 50103, Note_on_c, 0, 63, 60
1, 50111, Note_on_c, 0, 72, 63
1, 50144, Note_off_c, 0, 75, 55
1, 50167, Note_off_c, 0, 63, 63
1, 50209, Note_on_c, 0, 65, 52
1, 50292, Note_off_c, 0, 65, 48
1, 50294, Note_off_c, 0, 72, 62
1, 50300, Note_on_c, 0, 69, 52
1, 50304, Note_on_c, 0, 63, 51
1, 50345, Note_off_c, 0, 69, 60
1, 50352, Note_off_c, 0, 63, 63
1, 50403, Note_on_c, 0, 65, 40
1, 50492, Note_on_c, 0, 61, 54
1, 50494, Note_off_c, 0, 65, 50
1, 50547, Note_off_c, 0, 61, 57
1, 50584, Note_on_c, 0, 69, 51
1, 50597, Note_on_c, 0, 65, 47
1, 50639, Note_off_c, 0, 69, 61
1, 50670, Note_on_c, 0, 72, 56
1, 50678, Note_on_c, 0, 61, 47
1, 50704, Note_off_c, 0, 65, 44
1, 50738, Note_off_c, 0, 72, 62
1, 50743, Note_off_c, 0, 61, 63
1, 50751, Note_on_c, 0, 70, 50
1, 50773, Note_on_c, 0, 65, 39
1, 50776, Note_off_c, 0, 70, 57
1, 50827, Note_off_c, 0, 65, 0
1, 50827, Note_on_c, 0, 65, 5
1, 50850, Note_on_c, 0, 60, 69
1, 50872, Note_off_c, 0, 65, 59
1, 50929, Note_off_c, 0, 60, 63
1, 50934, Note_on_c, 0, 70, 74
1, 50943, Note_on_c, 0, 65, 59
1, 51020, Note_off_c, 0, 70, 61
1, 51024, Note_on_c, 0, 73, 71
1, 51027, Note_off_c, 0, 65, 63
1, 51037, Note_on_c, 0, 60, 58
1, 51104, Note_on_c, 0, 72, 75
1, 51109, Note_off_c, 0, 60, 63
1, 51109, Note_off_c, 0, 73, 64
1, 51111, Note_on_c, 0, 65, 62
1, 51134, Note_off_c, 0, 72, 69
1, 51199, Note_on_c, 0, 58, 74
1, 51214, Note_off_c, 0, 65, 65
1, 51292, Note_on_c, 0, 65, 60
1, 51295, Note_off_c, 0, 58, 61
1, 51298, Note_on_c, 0, 72, 80
1, 51386, Note_on_c, 0, 58, 64
1, 51386, Note_on_c, 0, 75, 79
1, 51390, Note_off_c, 0, 65, 64
1, 51401, Note_off_c, 0, 72, 61
1, 51459, Note_on_c, 0, 73, 81
1, 51469, Note_on_c, 0, 65, 63
1, 51479, Note_off_c, 0, 75, 63
1, 51492, Note_off_c, 0, 58, 58
1, 51492, Note_off_c, 0, 73, 63
1, 51557, Note_on_c, 0, 56, 80
1, 51557, Note_off_c, 0, 65, 64
1, 51593, Note_on_c, 0, 60, 13
1, 51646, Note_on_c, 0, 66, 82
1, 51647, Note_on_c, 0, 71, 79
1, 51669, Note_off_c, 0, 56, 64
1, 51676, Note_off_c, 0, 60, 36
1, 51726, Note_on_c, 0, 56, 74
1, 51728, Note_on_c, 0, 73, 85
1, 51740, Note_off_c, 0, 66, 63
1, 51747, Note_off_c, 0, 71, 66
1, 51799, Note_on_c, 0, 66, 83
1, 51803, Note_on_c, 0, 72, 89
1, 51827, Note_off_c, 0, 73, 65
1, 51843, Note_off_c, 0, 56, 64
1, 51889, Note_off_c, 0, 72, 61
1, 51912, Note_on_c, 0, 55, 84
1, 51923, Note_on_c, 0, 71, 81
1, 51939, Note_off_c, 0, 66, 59
1, 52028, Note_on_c, 0, 67, 76
1, 52041, Control_c, 0, 64, 31
1, 52049, Note_off_c, 0, 55, 62
1, 52056, Control_c, 0, 64, 46
1, 52070, Control_c, 0, 64, 57
1, 52085, Control_c, 0, 64, 62
1, 52085, Control_c, 0, 67, 9
1, 52087, Note_off_c, 0, 71, 67
1, 52100, Control_c, 0, 64, 63
1, 52100, Control_c, 0, 67, 20
1, 52115, Control_c, 0, 67, 41
1, 52129, Note_off_c, 0, 67, 54
1, 52130, Control_c, 0, 67, 88
1, 52131, Note_on_c, 0, 55, 74
1, 52146, Control_c, 0, 67, 127
1, 52161, Control_c, 0, 64, 63
1, 52175, Control_c, 0, 64, 62
1, 52190, Control_c, 0, 64, 60
1, 52205, Control_c, 0, 64, 57
1, 52214, Note_off_c, 0, 55, 64
1, 52220, Control_c, 0, 64, 52
1, 52222, Note_on_c, 0, 67, 59
1, 52235, Control_c, 0, 64, 44
1, 52249, Control_c, 0, 64, 35
1, 52264, Control_c, 0, 64, 26
1, 52279, Control_c, 0, 64, 18
1, 52294, Control_c, 0, 64, 0
1, 52329, Note_off_c, 0, 67, 53
1, 52334, Note_on_c, 0, 55, 60
1, 52415, Note_off_c, 0, 55, 59
1, 52437, Note_on_c, 0, 67, 55
1, 52545, Note_off_c, 0, 67, 52
1, 52554, Note_on_c, 0, 55, 47
1, 52556, Note_on_c, 0, 80, 54
1, 52641, Note_off_c, 0, 55, 55
1, 52675, Note_on_c, 0, 67, 49
1, 52757, Note_on_c, 0, 79, 65
1, 52768, Note_on_c, 0, 55, 43
1, 52776, Note_off_c, 0, 67, 45
1, 52799, Note_off_c, 0, 80, 61
1, 52843, Note_off_c, 0, 55, 53
1, 52866, Note_on_c, 0, 67, 51
1, 52945, Note_off_c, 0, 67, 52
1, 52957, Note_on_c, 0, 77, 69
1, 52963, Note_on_c, 0, 55, 42
1, 53021, Note_off_c, 0, 55, 46
1, 53055, Note_on_c, 0, 67, 38
1, 53104, Note_off_c, 0, 79, 36
1, 53113, Note_off_c, 0, 67, 49
1, 53134, Note_on_c, 0, 55, 56
1, 53134, Note_on_c, 0, 74, 53
1, 53154, Note_off_c, 0, 77, 56
1, 53197, Note_off_c, 0, 55, 54
1, 53220, Note_on_c, 0, 67, 52
1, 53291, Note_off_c, 0, 67, 46
1, 53295, Note_off_c, 0, 74, 65
1, 53321, Note_on_c, 0, 55, 57
1, 53325, Note_on_c, 0, 71, 48
1, 53404, Note_off_c, 0, 55, 63
1, 53406, Note_on_c, 0, 67, 67
1, 53440, Note_off_c, 0, 67, 64
1, 53444, Note_off_c, 0, 71, 58
1, 53504, Note_on_c, 0, 68, 76
1, 53511, Note_on_c, 0, 65, 78
1, 53515, Note_on_c, 0, 55, 64
1, 53546, Note_off_c, 0, 55, 67
1, 53729, Note_on_c, 0, 55, 67
1, 53758, Note_off_c, 0, 55, 67
1, 53802, Note_off_c, 0, 68, 57
1, 53806, Note_on_c, 0, 67, 71
1, 53879, Note_off_c, 0, 67, 58
1, 53886, Note_on_c, 0, 55, 64
1, 53888, Note_on_c, 0, 72, 69
1, 53891, Note_off_c, 0, 65, 66
1, 53894, Note_on_c, 0, 63, 67
1, 53910, Note_off_c, 0, 72, 69
1, 53968, Note_off_c, 0, 55, 59
1, 53985, Note_off_c, 0, 63, 63
1, 53989, Note_on_c, 0, 67, 71
1, 54013, Control_c, 0, 67, 118
1, 54028, Control_c, 0, 67, 106
1, 54043, Control_c, 0, 67, 88
1, 54058, Control_c, 0, 67, 67
1, 54073, Control_c, 0, 67, 43
1, 54085, Note_off_c, 0, 67, 58
1, 54085, Note_on_c, 0, 80, 74
1, 54088, Control_c, 0, 67, 20
1, 54091, Note_on_c, 0, 55, 50
1, 54103, Control_c, 0, 67, 0
1, 54162, Note_off_c, 0, 55, 61
1, 54183, Note_on_c, 0, 67, 55
1, 54279, Note_on_c, 0, 79, 70
1, 54279, Note_off_c, 0, 67, 57
1, 54282, Note_on_c, 0, 55, 54
1, 54339, Note_off_c, 0, 80, 61
1, 54368, Note_off_c, 0, 55, 63
1, 54380, Note_on_c, 0, 67, 62
1, 54467, Note_on_c, 0, 77, 72
1, 54470, Note_off_c, 0, 67, 58
1, 54481, Note_on_c, 0, 55, 56
1, 54557, Note_off_c, 0, 55, 64
1, 54562, Note_off_c, 0, 79, 56
1, 54564, Note_on_c, 0, 67, 58
1, 54645, Note_off_c, 0, 67, 58
1, 54647, Note_on_c, 0, 74, 62
1, 54660, Note_on_c, 0, 55, 52
1, 54679, Note_off_c, 0, 77, 60
1, 54737, Note_off_c, 0, 55, 62
1, 54745, Note_on_c, 0, 67, 59
1, 54791, Control_c, 0, 64, 14
1, 54806, Control_c, 0, 64, 19
1, 54813, Note_off_c, 0, 74, 65
1, 54821, Control_c, 0, 64, 23
1, 54825, Note_off_c, 0, 67, 55
1, 54826, Note_on_c, 0, 71, 66
1, 54836, Control_c, 0, 64, 25
1, 54844, Note_on_c, 0, 55, 52
1, 54851, Control_c, 0, 64, 27
1, 54923, Note_off_c, 0, 55, 63
1, 54923, Note_on_c, 0, 67, 70
1, 54949, Note_off_c, 0, 67, 67
1, 54970, Note_off_c, 0, 71, 61
1, 55006, Control_c, 0, 64, 26
1, 55016, Note_on_c, 0, 65, 86
1, 55018, Note_on_c, 0, 68, 84
1, 55021, Control_c, 0, 64, 25
1, 55027, Note_on_c, 0, 55, 78
1, 55036, Control_c, 0, 64, 23
1, 55051, Control_c, 0, 64, 22
1, 55066, Control_c, 0, 64, 20
1, 55073, Note_off_c, 0, 55, 63
1, 55081, Control_c, 0, 64, 19
1, 55095, Control_c, 0, 64, 18
1, 55110, Control_c, 0, 64, 15
1, 55125, Control_c, 0, 64, 8
1, 55140, Control_c, 0, 64, 0
1, 55238, Note_on_c, 0, 55, 72
1, 55278, Note_off_c, 0, 55, 67
1, 55325, Note_on_c, 0, 67, 74
1, 55333, Note_off_c, 0, 68, 58
1, 55382, Note_off_c, 0, 67, 59
1, 55409, Note_on_c, 0, 63, 72
1, 55413, Note_on_c, 0, 72, 67
1, 55417, Note_off_c, 0, 65, 64
1, 55420, Note_on_c, 0, 55, 65
1, 55430, Note_off_c, 0, 72, 65
1, 55459, Note_off_c, 0, 63, 60
1, 55619, Note_on_c, 0, 65, 63
1, 55641, Note_off_c, 0, 55, 63
1, 55641, Note_on_c, 0, 56, 62
1, 55709, Note_off_c, 0, 65, 63
1, 55716, Note_on_c, 0, 62, 66
1, 55799, Note_off_c, 0, 62, 61
1, 55800, Note_on_c, 0, 55, 43
1, 55812, Note_on_c, 0, 65, 55
1, 55833, Note_off_c, 0, 56, 64
1, 55888, Note_off_c, 0, 65, 64
1, 55903, Note_on_c, 0, 62, 62
1, 55987, Note_off_c, 0, 62, 60
1, 55998, Note_on_c, 0, 65, 56
1, 56001, Note_on_c, 0, 53, 74
1, 56062, Note_off_c, 0, 55, 60
1, 56076, Note_off_c, 0, 65, 64
1, 56100, Note_on_c, 0, 62, 59
1, 56177, Note_off_c, 0, 62, 59
1, 56187, Note_on_c, 0, 65, 60
1, 56199, Note_on_c, 0, 50, 68
1, 56262, Note_off_c, 0, 65, 64
1, 56273, Note_off_c, 0, 53, 62
1, 56287, Note_on_c, 0, 62, 63
1, 56376, Note_on_c, 0, 47, 78
1, 56377, Note_off_c, 0, 62, 61
1, 56386, Note_off_c, 0, 50, 63
1, 56393, Note_on_c, 0, 65, 58
1, 56459, Note_off_c, 0, 65, 65
1, 56473, Note_on_c, 0, 62, 62
1, 56535, Note_off_c, 0, 47, 57
1, 56560, Note_on_c, 0, 44, 76
1, 56561, Note_off_c, 0, 62, 61
1, 56576, Note_on_c, 0, 65, 68
1, 56658, Note_off_c, 0, 65, 58
1, 56660, Note_on_c, 0, 62, 66
1, 56708, Note_off_c, 0, 62, 49
1, 56747, Note_on_c, 0, 71, 68
1, 56753, Note_on_c, 0, 65, 63
1, 56801, Note_off_c, 0, 65, 62
1, 56811, Note_off_c, 0, 71, 62
1, 56814, Note_off_c, 0, 44, 58
1, 56821, Note_on_c, 0, 43, 73
1, 56835, Note_on_c, 0, 62, 65
1, 56914, Note_on_c, 0, 48, 81
1, 56921, Note_on_c, 0, 63, 69
1, 56921, Note_off_c, 0, 62, 62
1, 56926, Note_on_c, 0, 72, 66
1, 56941, Note_off_c, 0, 43, 61
1, 56947, Note_off_c, 0, 48, 69
1, 56987, Note_off_c, 0, 72, 60
1, 56996, Note_off_c, 0, 63, 57
1, 57018, Note_on_c, 0, 60, 75
1, 57100, Note_off_c, 0, 60, 62
1, 57122, Note_on_c, 0, 63, 63
1, 57127, Note_on_c, 0, 54, 84
1, 57236, Note_off_c, 0, 63, 60
1, 57240, Note_on_c, 0, 60, 62
1, 57331, Note_off_c, 0, 60, 59
1, 57355, Note_on_c, 0, 53, 74
1, 57355, Note_on_c, 0, 63, 62
1, 57393, Note_off_c, 0, 54, 64
1, 57435, Note_off_c, 0, 63, 63
1, 57451, Note_on_c, 0, 60, 60
1, 57543, Note_on_c, 0, 51, 74
1, 57543, Note_off_c, 0, 60, 63
1, 57558, Note_on_c, 0, 63, 61
1, 57591, Note_off_c, 0, 53, 65
1, 57640, Note_off_c, 0, 63, 64
1, 57657, Note_on_c, 0, 60, 57
1, 57734, Note_off_c, 0, 60, 62
1, 57746, Note_on_c, 0, 63, 64
1, 57749, Note_on_c, 0, 48, 75
1, 57780, Note_off_c, 0, 51, 65
1, 57822, Note_off_c, 0, 63, 63
1, 57841, Note_on_c, 0, 60, 65
1, 57932, Note_off_c, 0, 60, 61
1, 57942, Note_on_c, 0, 63, 66
1, 57949, Note_on_c, 0, 45, 74
1, 57987, Note_off_c, 0, 48, 64
1, 58016, Note_off_c, 0, 63, 63
1, 58034, Note_on_c, 0, 60, 70
1, 58112, Note_off_c, 0, 60, 53
1, 58130, Note_on_c, 0, 63, 78
1, 58135, Note_on_c, 0, 42, 93
1, 58155, Note_off_c, 0, 45, 65
1, 58207, Note_off_c, 0, 63, 52
1, 58227, Note_on_c, 0, 60, 73
1, 58325, Note_off_c, 0, 60, 64
1, 58330, Note_on_c, 0, 63, 61
1, 58333, Note_on_c, 0, 69, 65
1, 58383, Note_off_c, 0, 69, 65
1, 58394, Note_off_c, 0, 42, 60
1, 58407, Note_on_c, 0, 41, 65
1, 58426, Note_off_c, 0, 63, 64
1, 58428, Note_on_c, 0, 60, 66
1, 58505, Note_off_c, 0, 60, 63
1, 58506, Note_on_c, 0, 46, 78
1, 58512, Note_on_c, 0, 61, 73
1, 58512, Note_on_c, 0, 70, 73
1, 58542, Note_off_c, 0, 41, 63
1, 58557, Note_off_c, 0, 46, 66
1, 58598, Note_off_c, 0, 61, 63
1, 58599, Note_off_c, 0, 70, 55
1, 58619, Note_on_c, 0, 58, 75
1, 58711, Note_off_c, 0, 58, 62
1, 58725, Note_on_c, 0, 52, 73
1, 58725, Note_on_c, 0, 61, 62
1, 58801, Note_off_c, 0, 61, 62
1, 58816, Note_on_c, 0, 58, 62
1, 58899, Note_off_c, 0, 58, 62
1, 58900, Note_on_c, 0, 51, 73
1, 58920, Note_on_c, 0, 61, 60
1, 58975, Note_off_c, 0, 52, 64
1, 58990, Note_off_c, 0, 61, 65
1, 59006, Note_on_c, 0, 58, 63
1, 59082, Note_off_c, 0, 58, 63
1, 59097, Note_on_c, 0, 49, 76
1, 59099, Note_on_c, 0, 61, 60
1, 59138, Note_off_c, 0, 51, 64
1, 59170, Note_off_c, 0, 61, 65
1, 59188, Note_on_c, 0, 58, 64
1, 59259, Note_off_c, 0, 58, 62
1, 59280, Note_on_c, 0, 61, 61
1, 59282, Note_on_c, 0, 46, 65
1, 59300, Note_off_c, 0, 49, 64
1, 59364, Note_off_c, 0, 61, 64
1, 59386, Note_on_c, 0, 58, 62
1, 59461, Note_off_c, 0, 58, 62
1, 59463, Note_off_c, 0, 46, 65
1, 59479, Note_on_c, 0, 43, 72
1, 59483, Note_on_c, 0, 61, 57
1, 59544, Note_off_c, 0, 61, 61
1, 59576, Note_on_c, 0, 58, 56
1, 59657, Note_off_c, 0, 58, 59
1, 59667, Note_on_c, 0, 61, 55
1, 59668, Note_on_c, 0, 40, 65
1, 59707, Note_off_c, 0, 43, 61
1, 59741, Note_off_c, 0, 61, 63
1, 59766, Note_on_c, 0, 58, 62
1, 59823, Note_off_c, 0, 58, 51
1, 59852, Note_off_c, 0, 40, 62
1, 59854, Note_on_c, 0, 39, 62
1, 59859, Note_on_c, 0, 61, 59
1, 59904, Note_off_c, 0, 61, 61
1, 59935, Note_on_c, 0, 58, 62
1, 60006, Note_off_c, 0, 58, 61
1, 60020, Note_on_c, 0, 61, 50
1, 60023, Note_off_c, 0, 39, 65
1, 60041, Note_on_c, 0, 67, 52
1, 60071, Note_off_c, 0, 61, 55
1, 60136, Note_on_c, 0, 58, 54
1, 60211, Note_off_c, 0, 58, 61
1, 60230, Note_on_c, 0, 61, 58
1, 60235, Note_on_c, 0, 51, 66
1, 60279, Note_off_c, 0, 61, 60
1, 60315, Note_on_c, 0, 58, 52
1, 60387, Note_off_c, 0, 58, 61
1, 60401, Note_on_c, 0, 60, 61
1, 60458, Note_off_c, 0, 67, 40
1, 60473, Note_off_c, 0, 60, 61
1, 60500, Note_on_c, 0, 56, 59
1, 60582, Note_off_c, 0, 56, 62
1, 60588, Control_c, 0, 67, 10
1, 60593, Note_on_c, 0, 48, 55
1, 60600, Note_on_c, 0, 63, 57
1, 60600, Note_off_c, 0, 51, 64
1, 60603, Control_c, 0, 67, 14
1, 60618, Control_c, 0, 67, 16
1, 60632, Control_c, 0, 67, 17
1, 60676, Note_off_c, 0, 63, 55
1, 60677, Control_c, 0, 67, 18
1, 60683, Note_on_c, 0, 56, 65
1, 60707, Control_c, 0, 67, 18
1, 60722, Control_c, 0, 67, 19
1, 60781, Note_on_c, 0, 68, 73
1, 60784, Note_off_c, 0, 56, 37
1, 60785, Note_on_c, 0, 63, 66
1, 60818, Note_off_c, 0, 48, 65
1, 60840, Control_c, 0, 67, 18
1, 60863, Control_c, 0, 67, 18
1, 60870, Note_off_c, 0, 63, 58
1, 60883, Note_on_c, 0, 56, 65
1, 60893, Control_c, 0, 67, 17
1, 60922, Control_c, 0, 67, 17
1, 60962, Note_off_c, 0, 56, 64
1, 60978, Note_on_c, 0, 63, 65
1, 60986, Note_on_c, 0, 36, 59
1, 60998, Control_c, 0, 67, 17
1, 61012, Control_c, 0, 67, 18
1, 61027, Control_c, 0, 67, 19
1, 61042, Control_c, 0, 67, 22
1, 61055, Note_off_c, 0, 63, 61
1, 61057, Control_c, 0, 67, 32
1, 61071, Control_c, 0, 67, 48
1, 61078, Note_on_c, 0, 56, 58
1, 61086, Control_c, 0, 67, 64
1, 61101, Control_c, 0, 67, 79
1, 61116, Control_c, 0, 67, 94
1, 61130, Control_c, 0, 67, 113
1, 61145, Control_c, 0, 67, 127
1, 61158, Note_off_c, 0, 56, 63
1, 61178, Note_on_c, 0, 61, 57
1, 61234, Note_off_c, 0, 61, 59
1, 61277, Note_on_c, 0, 56, 51
1, 61356, Note_off_c, 0, 56, 59
1, 61362, Note_on_c, 0, 37, 61
1, 61369, Note_on_c, 0, 61, 49
1, 61370, Note_off_c, 0, 36, 58
1, 61435, Note_off_c, 0, 61, 58
1, 61457, Note_on_c, 0, 56, 55
1, 61475, Note_off_c, 0, 68, 57
1, 61525, Note_off_c, 0, 37, 64
1, 61532, Note_off_c, 0, 56, 60
1, 61547, Note_on_c, 0, 65, 66
1, 61551, Note_on_c, 0, 61, 57
1, 61630, Note_off_c, 0, 61, 56
1, 61653, Note_on_c, 0, 56, 61
1, 61710, Note_off_c, 0, 56, 62
1, 61721, Note_on_c, 0, 49, 84
1, 61722, Note_off_c, 0, 65, 57
1, 61738, Note_on_c, 0, 61, 61
1, 61814, Note_off_c, 0, 61, 64
1, 61838, Note_on_c, 0, 56, 55
1, 61897, Note_off_c, 0, 56, 57
1, 61925, Note_on_c, 0, 61, 58
1, 61973, Note_off_c, 0, 61, 58
1, 61983, Control_c, 0, 67, 123
1, 61998, Control_c, 0, 67, 108
1, 62011, Note_on_c, 0, 55, 54
1, 62013, Control_c, 0, 67, 88
1, 62027, Control_c, 0, 67, 67
1, 62042, Control_c, 0, 67, 42
1, 62057, Control_c, 0, 67, 16
1, 62059, Note_off_c, 0, 55, 53
1, 62072, Control_c, 0, 67, 0
1, 62092, Note_on_c, 0, 61, 63
1, 62108, Note_on_c, 0, 46, 74
1, 62124, Note_off_c, 0, 49, 63
1, 62136, Note_off_c, 0, 61, 59
1, 62181, Note_on_c, 0, 55, 69
1, 62278, Note_on_c, 0, 61, 76
1, 62279, Control_c, 0, 64, 20
1, 62279, Note_on_c, 0, 67, 84
1, 62294, Control_c, 0, 64, 30
1, 62298, Note_off_c, 0, 55, 59
1, 62309, Control_c, 0, 64, 35
1, 62324, Note_off_c, 0, 61, 58
1, 62324, Control_c, 0, 64, 40
1, 62339, Control_c, 0, 64, 43
1, 62360, Control_c, 0, 64, 44
1, 62365, Poly_aftertouch_c, 0, 55, 0
1, 62378, Note_on_c, 0, 55, 57
1, 62390, Control_c, 0, 64, 43
1, 62405, Control_c, 0, 64, 41
1, 62413, Note_off_c, 0, 46, 60
1, 62420, Control_c, 0, 64, 40
1, 62434, Control_c, 0, 64, 38
1, 62449, Control_c, 0, 64, 35
1, 62464, Control_c, 0, 64, 29
1, 62472, Note_off_c, 0, 55, 64
1, 62479, Control_c, 0, 64, 16
1, 62483, Note_on_c, 0, 61, 57
1, 62491, Note_on_c, 0, 34, 73
1, 62494, Control_c, 0, 64, 0
1, 62541, Note_off_c, 0, 61, 62
1, 62569, Note_on_c, 0, 55, 63
1, 62664, Note_off_c, 0, 55, 64
1, 62668, Note_on_c, 0, 60, 65
1, 62724, Note_off_c, 0, 67, 53
1, 62741, Note_off_c, 0, 60, 64
1, 62750, Note_on_c, 0, 55, 60
1, 62795, Note_off_c, 0, 34, 66
1, 62819, Note_off_c, 0, 55, 54
1, 62842, Note_on_c, 0, 36, 75
1, 62853, Note_on_c, 0, 60, 67
1, 62918, Note_off_c, 0, 60, 59
1, 62937, Note_on_c, 0, 55, 67
1, 63004, Note_off_c, 0, 55, 55
1, 63024, Note_on_c, 0, 60, 64
1, 63025, Note_on_c, 0, 64, 65
1, 63068, Note_off_c, 0, 36, 64
1, 63077, Note_off_c, 0, 60, 54
1, 63124, Note_on_c, 0, 55, 64
1, 63204, Note_off_c, 0, 55, 61
1, 63209, Note_on_c, 0, 60, 64
1, 63210, Note_on_c, 0, 48, 94
1, 63290, Note_off_c, 0, 60, 59
1, 63322, Note_on_c, 0, 55, 63
1, 63403, Note_off_c, 0, 55, 58
1, 63415, Note_on_c, 0, 56, 64
1, 63501, Note_on_c, 0, 53, 73
1, 63505, Note_off_c, 0, 56, 62
1, 63511, Note_off_c, 0, 64, 35
1, 63579, Note_off_c, 0, 53, 56
1, 63592, Note_on_c, 0, 44, 81
1, 63597, Note_on_c, 0, 60, 73
1, 63603, Note_off_c, 0, 48, 66
1, 63686, Note_on_c, 0, 53, 82
1, 63689, Note_off_c, 0, 60, 51
1, 63750, Note_off_c, 0, 53, 62
1, 63777, Note_on_c, 0, 65, 89
1, 63782, Note_on_c, 0, 60, 80
1, 63870, Note_off_c, 0, 60, 61
1, 63871, Note_on_c, 0, 53, 75
1, 63967, Note_off_c, 0, 53, 66
1, 63970, Note_on_c, 0, 60, 71
1, 63971, Note_on_c, 0, 32, 85
1, 63991, Control_c, 0, 64, 18
1, 64005, Note_off_c, 0, 44, 31
1, 64005, Control_c, 0, 64, 26
1, 64020, Control_c, 0, 64, 33
1, 64035, Control_c, 0, 64, 37
1, 64050, Control_c, 0, 64, 41
1, 64061, Note_off_c, 0, 60, 63
1, 64065, Control_c, 0, 64, 44
1, 64069, Note_on_c, 0, 53, 79
1, 64080, Control_c, 0, 64, 45
1, 64095, Control_c, 0, 64, 44
1, 64097, Note_off_c, 0, 32, 63
1, 64110, Control_c, 0, 64, 44
1, 64125, Control_c, 0, 64, 42
1, 64140, Control_c, 0, 64, 42
1, 64154, Control_c, 0, 64, 41
1, 64161, Note_on_c, 0, 61, 81
1, 64169, Control_c, 0, 64, 39
1, 64175, Note_off_c, 0, 53, 66
1, 64184, Control_c, 0, 64, 36
1, 64199, Control_c, 0, 64, 28
1, 64212, Note_off_c, 0, 65, 60
1, 64214, Control_c, 0, 64, 14
1, 64229, Control_c, 0, 64, 0
1, 64249, Note_on_c, 0, 53, 78
1, 64267, Note_off_c, 0, 61, 63
1, 64335, Note_off_c, 0, 53, 63
1, 64345, Note_on_c, 0, 61, 72
1, 64351, Note_on_c, 0, 34, 93
1, 64415, Note_off_c, 0, 61, 59
1, 64438, Note_on_c, 0, 53, 73
1, 64514, Note_off_c, 0, 53, 59
1, 64536, Note_on_c, 0, 61, 72
1, 64603, Note_on_c, 0, 65, 81
1, 64607, Control_c, 0, 64, 27
1, 64610, Note_off_c, 0, 61, 62
1, 64622, Control_c, 0, 64, 44
1, 64637, Control_c, 0, 64, 60
1, 64652, Control_c, 0, 64, 72
1, 64656, Note_on_c, 0, 53, 60
1, 64667, Control_c, 0, 64, 86
1, 64680, Note_off_c, 0, 65, 59
1, 64681, Control_c, 0, 64, 99
1, 64696, Control_c, 0, 64, 127
1, 64748, Note_on_c, 0, 61, 77
1, 64766, Note_off_c, 0, 53, 60
1, 64770, Note_on_c, 0, 46, 81
1, 64777, Note_on_c, 0, 65, 70
1, 64802, Note_off_c, 0, 65, 67
1, 64813, Note_off_c, 0, 34, 65
1, 64827, Note_off_c, 0, 46, 63
1, 64843, Note_on_c, 0, 53, 75
1, 64846, Note_off_c, 0, 61, 53
1, 64926, Note_off_c, 0, 53, 60
1, 64939, Note_on_c, 0, 62, 86
1, 64949, Control_c, 0, 64, 122
1, 64959, Note_on_c, 0, 61, 52
1, 64964, Control_c, 0, 64, 109
1, 64978, Control_c, 0, 64, 97
1, 64980, Note_off_c, 0, 61, 65
1, 64993, Control_c, 0, 64, 85
1, 65008, Control_c, 0, 64, 75
1, 65022, Control_c, 0, 64, 67
1, 65035, Note_on_c, 0, 53, 86
1, 65037, Control_c, 0, 64, 61
1, 65052, Control_c, 0, 64, 50
1, 65056, Note_off_c, 0, 62, 58
1, 65067, Control_c, 0, 64, 27
1, 65082, Control_c, 0, 64, 0
1, 65113, Note_on_c, 0, 35, 87
1, 65125, Note_on_c, 0, 56, 72
1, 65125, Note_off_c, 0, 53, 46
1, 65126, Note_on_c, 0, 62, 66
1, 65127, Note_on_c, 0, 65, 83
1, 65168, Note_off_c, 0, 56, 63
1, 65212, Note_on_c, 0, 53, 85
1, 65214, Note_off_c, 0, 65, 58
1, 65227, Note_off_c, 0, 62, 48
1, 65271, Note_off_c, 0, 53, 65
1, 65305, Note_on_c, 0, 65, 90
1, 65308, Note_on_c, 0, 56, 74
1, 65312, Note_on_c, 0, 62, 81
1, 65334, Control_c, 0, 64, 12
1, 65356, Note_off_c, 0, 56, 66
1, 65356, Control_c, 0, 64, 24
1, 65371, Control_c, 0, 64, 34
1, 65386, Control_c, 0, 64, 43
1, 65397, Note_off_c, 0, 65, 52
1, 65400, Note_on_c, 0, 53, 89
1, 65400, Control_c, 0, 64, 51
1, 65415, Control_c, 0, 64, 56
1, 65418, Note_off_c, 0, 62, 60
1, 65430, Control_c, 0, 64, 58
1, 65445, Control_c, 0, 64, 59
1, 65491, Note_on_c, 0, 47, 89
1, 65496, Note_off_c, 0, 53, 52
1, 65496, Note_on_c, 0, 56, 80
1, 65496, Note_off_c, 0, 35, 63
1, 65499, Note_on_c, 0, 65, 78
1, 65504, Control_c, 0, 64, 58
1, 65505, Note_on_c, 0, 62, 78
1, 65514, Note_off_c, 0, 47, 71
1, 65519, Control_c, 0, 64, 58
1, 65534, Control_c, 0, 64, 57
1, 65549, Control_c, 0, 64, 57
1, 65553, Note_off_c, 0, 56, 53
1, 65564, Control_c, 0, 64, 54
1, 65568, Note_off_c, 0, 65, 60
1, 65570, Note_off_c, 0, 62, 61
1, 65578, Control_c, 0, 64, 50
1, 65581, Note_on_c, 0, 53, 81
1, 65593, Control_c, 0, 64, 39
1, 65608, Control_c, 0, 64, 8
1, 65621, Note_off_c, 0, 53, 65
1, 65622, Control_c, 0, 64, 0
1, 65692, Note_on_c, 0, 64, 78
1, 65696, Note_on_c, 0, 55, 76
1, 65696, Note_on_c, 0, 36, 96
1, 65705, Note_on_c, 0, 60, 64
1, 65717, Note_off_c, 0, 55, 69
1, 65727, Control_c, 0, 64, 28
1, 65731, Note_off_c, 0, 60, 66
1, 65741, Note_off_c, 0, 64, 64
1, 65742, Control_c, 0, 64, 50
1, 65757, Control_c, 0, 64, 62
1, 65772, Control_c, 0, 64, 67
1, 65787, Control_c, 0, 64, 68
1, 65809, Note_off_c, 0, 36, 60
1, 65830, Note_on_c, 0, 48, 59
1, 65854, Note_off_c, 0, 48, 66
1, 65875, Control_c, 0, 64, 67
1, 65890, Control_c, 0, 64, 67
1, 65905, Control_c, 0, 64, 66
1, 65916, Note_on_c, 0, 52, 83
1, 65919, Control_c, 0, 64, 64
1, 65934, Control_c, 0, 64, 63
1, 65949, Control_c, 0, 64, 61
1, 65964, Control_c, 0, 64, 59
1, 65979, Control_c, 0, 64, 56
1, 65994, Control_c, 0, 64, 52
1, 66003, Note_on_c, 0, 48, 80
1, 66003, Note_off_c, 0, 52, 64
1, 66009, Control_c, 0, 64, 49
1, 66024, Control_c, 0, 64, 46
1, 66038, Control_c, 0, 64, 44
1, 66053, Control_c, 0, 64, 42
1, 66068, Control_c, 0, 64, 40
1, 66083, Control_c, 0, 64, 39
1, 66101, Note_on_c, 0, 52, 84
1, 66105, Control_c, 0, 64, 39
1, 66106, Note_off_c, 0, 48, 61
1, 66134, Control_c, 0, 64, 38
1, 66149, Control_c, 0, 64, 38
1, 66164, Control_c, 0, 64, 37
1, 66190, Note_off_c, 0, 52, 66
1, 66193, Control_c, 0, 64, 36
1, 66201, Note_on_c, 0, 48, 71
1, 66223, Control_c, 0, 64, 36
1, 66238, Control_c, 0, 64, 34
1, 66253, Control_c, 0, 64, 32
1, 66268, Control_c, 0, 64, 29
1, 66283, Control_c, 0, 64, 26
1, 66289, Note_off_c, 0, 48, 61
1, 66297, Note_on_c, 0, 72, 87
1, 66298, Control_c, 0, 64, 24
1, 66308, Note_on_c, 0, 52, 67
1, 66313, Control_c, 0, 64, 22
1, 66327, Control_c, 0, 64, 19
1, 66342, Control_c, 0, 64, 12
1, 66357, Control_c, 0, 64, 0
1, 66381, Note_off_c, 0, 52, 65
1, 66396, Note_on_c, 0, 48, 64
1, 66482, Note_off_c, 0, 48, 62
1, 66485, Note_off_c, 0, 72, 63
1, 66489, Note_on_c, 0, 68, 85
1, 66502, Note_on_c, 0, 53, 58
1, 66512, Note_off_c, 0, 68, 67
1, 66583, Note_off_c, 0, 53, 64
1, 66586, Note_on_c, 0, 48, 65
1, 66676, Note_off_c, 0, 48, 62
1, 66682, Note_on_c, 0, 53, 63
1, 66754, Note_off_c, 0, 53, 65
1, 66777, Note_on_c, 0, 48, 51
1, 66854, Control_c, 0, 64, 16
1, 66866, Note_off_c, 0, 48, 64
1, 66869, Control_c, 0, 64, 24
1, 66875, Note_on_c, 0, 53, 60
1, 66883, Control_c, 0, 64, 30
1, 66898, Control_c, 0, 64, 37
1, 66913, Control_c, 0, 64, 44
1, 66928, Control_c, 0, 64, 49
1, 66943, Note_off_c, 0, 53, 62
1, 66943, Control_c, 0, 64, 51
1, 66955, Note_on_c, 0, 48, 64
1, 66972, Control_c, 0, 64, 51
1, 66987, Control_c, 0, 64, 50
1, 67000, Note_off_c, 0, 48, 62
1, 67001, Control_c, 0, 64, 49
1, 67016, Control_c, 0, 64, 48
1, 67031, Control_c, 0, 64, 47
1, 67046, Control_c, 0, 64, 46
1, 67050, Note_on_c, 0, 77, 95
1, 67061, Control_c, 0, 64, 45
1, 67063, Note_on_c, 0, 56, 61
1, 67076, Control_c, 0, 64, 44
1, 67091, Control_c, 0, 64, 43
1, 67106, Control_c, 0, 64, 42
1, 67120, Control_c, 0, 64, 41
1, 67133, Note_off_c, 0, 56, 58
1, 67135, Control_c, 0, 64, 40
1, 67139, Note_on_c, 0, 48, 70
1, 67150, Control_c, 0, 64, 38
1, 67165, Control_c, 0, 64, 36
1, 67180, Control_c, 0, 64, 34
1, 67194, Control_c, 0, 64, 31
1, 67209, Control_c, 0, 64, 24
1, 67224, Control_c, 0, 64, 9
1, 67236, Note_on_c, 0, 55, 72
1, 67236, Note_on_c, 0, 76, 90
1, 67239, Control_c, 0, 64, 0
1, 67247, Note_off_c, 0, 77, 64
1, 67249, Note_off_c, 0, 48, 63
1, 67267, Note_off_c, 0, 76, 69
1, 67323, Note_on_c, 0, 48, 69
1, 67328, Note_off_c, 0, 55, 65
1, 67410, Note_on_c, 0, 55, 64
1, 67428, Note_off_c, 0, 48, 64
1, 67503, Note_off_c, 0, 55, 65
1, 67505, Note_on_c, 0, 48, 61
1, 67612, Note_off_c, 0, 48, 64
1, 67613, Note_on_c, 0, 55, 58
1, 67684, Note_off_c, 0, 55, 62
1, 67696, Note_on_c, 0, 48, 61
1, 67777, Note_off_c, 0, 48, 63
1, 67781, Control_c, 0, 64, 31
1, 67783, Note_on_c, 0, 84, 87
1, 67792, Note_on_c, 0, 58, 59
1, 67796, Control_c, 0, 64, 46
1, 67811, Control_c, 0, 64, 60
1, 67825, Control_c, 0, 64, 67
1, 67840, Control_c, 0, 64, 68
1, 67844, Note_off_c, 0, 58, 50
1, 67855, Control_c, 0, 64, 69
1, 67870, Control_c, 0, 64, 70
1, 67879, Note_on_c, 0, 48, 77
1, 67885, Control_c, 0, 64, 71
1, 67899, Control_c, 0, 64, 72
1, 67944, Control_c, 0, 64, 71
1, 67952, Note_off_c, 0, 84, 63
1, 67959, Control_c, 0, 64, 70
1, 67966, Note_on_c, 0, 56, 76
1, 67972, Note_on_c, 0, 77, 92
1, 67973, Control_c, 0, 64, 66
1, 67985, Note_off_c, 0, 48, 63
1, 67988, Control_c, 0, 64, 60
1, 67994, Note_off_c, 0, 77, 68
1, 68003, Control_c, 0, 64, 44
1, 68018, Control_c, 0, 64, 0
1, 68068, Note_off_c, 0, 56, 64
1, 68070, Note_on_c, 0, 48, 77
1, 68152, Note_off_c, 0, 48, 62
1, 68155, Note_on_c, 0, 60, 70
1, 68217, Note_off_c, 0, 60, 61
1, 68245, Note_on_c, 0, 48, 79
1, 68331, Note_on_c, 0, 89, 95
1, 68333, Note_on_c, 0, 77, 93
1, 68335, Note_on_c, 0, 59, 74
1, 68335, Note_off_c, 0, 48, 63
1, 68414, Note_off_c, 0, 59, 62
1, 68440, Control_c, 0, 64, 16
1, 68447, Note_on_c, 0, 48, 84
1, 68454, Control_c, 0, 64, 15
1, 68469, Control_c, 0, 64, 0
1, 68499, Note_off_c, 0, 48, 66
1, 68545, Note_on_c, 0, 62, 93
1, 68558, Control_c, 0, 64, 17
1, 68572, Control_c, 0, 64, 38
1, 68587, Control_c, 0, 64, 52
1, 68599, Note_off_c, 0, 62, 63
1, 68602, Control_c, 0, 64, 60
1, 68617, Control_c, 0, 64, 61
1, 68647, Control_c, 0, 64, 60
1, 68648, Note_on_c, 0, 48, 85
1, 68653, Note_off_c, 0, 89, 57
1, 68660, Note_off_c, 0, 77, 60
1, 68662, Control_c, 0, 64, 55
1, 68677, Control_c, 0, 64, 39
1, 68691, Control_c, 0, 64, 0
1, 68715, Note_off_c, 0, 48, 57
1, 68731, Note_on_c, 0, 60, 78
1, 68735, Note_on_c, 0, 76, 91
1, 68735, Note_on_c, 0, 88, 88
1, 68736, Control_c, 0, 64, 9
1, 68751, Control_c, 0, 64, 39
1, 68766, Note_off_c, 0, 76, 70
1, 68766, Control_c, 0, 64, 54
1, 68772, Note_off_c, 0, 88, 67
1, 68780, Control_c, 0, 64, 63
1, 68795, Control_c, 0, 64, 65
1, 68811, Note_off_c, 0, 60, 58
1, 68828, Note_on_c, 0, 48, 82
1, 68839, Control_c, 0, 64, 65
1, 68854, Control_c, 0, 64, 63
1, 68869, Control_c, 0, 64, 59
1, 68884, Control_c, 0, 64, 49
1, 68899, Control_c, 0, 64, 27
1, 68915, Control_c, 0, 64, 0
1, 68924, Note_on_c, 0, 52, 81
1, 68925, Note_off_c, 0, 48, 63
1, 69013, Note_off_c, 0, 52, 65
1, 69016, Note_on_c, 0, 48, 75
1, 69100, Note_off_c, 0, 48, 64
1, 69119, Note_on_c, 0, 52, 64
1, 69188, Note_off_c, 0, 52, 63
1, 69207, Note_on_c, 0, 48, 58
1, 69288, Note_off_c, 0, 48, 64
1, 69308, Note_on_c, 0, 55, 47
1, 69308, Note_on_c, 0, 73, 82
1, 69347, Note_off_c, 0, 55, 57
1, 69349, Note_on_c, 0, 72, 75
1, 69357, Note_off_c, 0, 73, 67
1, 69390, Note_on_c, 0, 71, 82
1, 69392, Note_off_c, 0, 72, 64
1, 69392, Note_on_c, 0, 48, 70
1, 69428, Note_on_c, 0, 72, 69
1, 69435, Note_off_c, 0, 71, 67
1, 69475, Note_on_c, 0, 53, 80
1, 69479, Note_off_c, 0, 48, 64
1, 69481, Note_on_c, 0, 68, 89
1, 69488, Note_off_c, 0, 72, 65
1, 69498, Note_off_c, 0, 68, 72
1, 69565, Note_off_c, 0, 53, 63
1, 69577, Note_on_c, 0, 48, 69
1, 69658, Note_on_c, 0, 68, 92
1, 69662, Note_off_c, 0, 48, 61
1, 69667, Note_on_c, 0, 53, 65
1, 69678, Note_off_c, 0, 68, 69
1, 69738, Note_off_c, 0, 53, 61
1, 69750, Note_on_c, 0, 48, 66
1, 69823, Note_off_c, 0, 48, 61
1, 69833, Note_on_c, 0, 53, 65
1, 69902, Note_off_c, 0, 53, 64
1, 69928, Note_on_c, 0, 48, 73
1, 69967, Control_c, 0, 64, 24
1, 69982, Control_c, 0, 64, 37
1, 69997, Control_c, 0, 64, 49
1, 70012, Control_c, 0, 64, 59
1, 70017, Note_on_c, 0, 79, 93
1, 70021, Note_off_c, 0, 48, 63
1, 70023, Note_on_c, 0, 56, 69
1, 70026, Control_c, 0, 64, 62
1, 70041, Control_c, 0, 64, 62
1, 70068, Note_off_c, 0, 79, 62
1, 70071, Note_on_c, 0, 77, 70
1, 70090, Note_off_c, 0, 56, 57
1, 70099, Note_off_c, 0, 77, 65
1, 70103, Note_on_c, 0, 76, 79
1, 70125, Note_on_c, 0, 48, 67
1, 70143, Note_off_c, 0, 76, 65
1, 70145, Control_c, 0, 64, 60
1, 70146, Note_on_c, 0, 77, 78
1, 70160, Control_c, 0, 64, 56
1, 70174, Control_c, 0, 64, 41
1, 70189, Control_c, 0, 64, 0
1, 70192, Note_on_c, 0, 76, 87
1, 70193, Note_on_c, 0, 55, 80
1, 70199, Note_off_c, 0, 48, 64
1, 70203, Note_off_c, 0, 77, 65
1, 70212, Note_off_c, 0, 76, 73
1, 70286, Note_off_c, 0, 55, 65
1, 70292, Note_on_c, 0, 48, 67
1, 70382, Note_off_c, 0, 48, 63
1, 70384, Note_on_c, 0, 76, 87
1, 70386, Note_on_c, 0, 55, 68
1, 70401, Note_off_c, 0, 76, 76
1, 70456, Note_off_c, 0, 55, 62
1, 70468, Note_on_c, 0, 48, 66
1, 70564, Note_on_c, 0, 55, 68
1, 70564, Note_off_c, 0, 48, 64
1, 70641, Note_off_c, 0, 55, 57
1, 70646, Note_on_c, 0, 48, 72
1, 70701, Control_c, 0, 64, 25
1, 70715, Control_c, 0, 64, 52
1, 70728, Note_off_c, 0, 48, 64
1, 70730, Control_c, 0, 64, 71
1, 70733, Note_on_c, 0, 85, 85
1, 70736, Note_on_c, 0, 58, 80
1, 70745, Control_c, 0, 64, 127
1, 70774, Note_on_c, 0, 84, 78
1, 70783, Note_off_c, 0, 85, 64
1, 70784, Note_off_c, 0, 58, 59
1, 70800, Note_on_c, 0, 83, 74
1, 70805, Note_off_c, 0, 84, 62
1, 70833, Note_on_c, 0, 48, 74
1, 70849, Note_off_c, 0, 83, 59
1, 70850, Note_on_c, 0, 84, 79
1, 70906, Note_on_c, 0, 56, 86
1, 70908, Control_c, 0, 64, 122
1, 70914, Note_off_c, 0, 84, 59
1, 70918, Note_on_c, 0, 76, 80
1, 70918, Note_off_c, 0, 48, 65
1, 70922, Control_c, 0, 64, 92
1, 70932, Note_on_c, 0, 77, 63
1, 70935, Note_off_c, 0, 76, 73
1, 70937, Control_c, 0, 64, 77
1, 70952, Control_c, 0, 64, 66
1, 70953, Note_off_c, 0, 77, 62
1, 70966, Control_c, 0, 64, 55
1, 70981, Control_c, 0, 64, 29
1, 70996, Control_c, 0, 64, 0
1, 71000, Note_off_c, 0, 56, 63
1, 71005, Note_on_c, 0, 48, 77
1, 71084, Note_on_c, 0, 60, 78
1, 71087, Note_off_c, 0, 48, 63
1, 71100, Note_on_c, 0, 77, 94
1, 71117, Note_off_c, 0, 77, 71
1, 71142, Note_off_c, 0, 60, 61
1, 71177, Note_on_c, 0, 48, 77
1, 71268, Note_on_c, 0, 59, 81
1, 71276, Note_off_c, 0, 48, 63
1, 71353, Note_off_c, 0, 59, 54
1, 71359, Note_on_c, 0, 48, 76
1, 71413, Note_off_c, 0, 48, 65
1, 71450, Control_c, 0, 64, 25
1, 71453, Note_on_c, 0, 89, 96
1, 71456, Note_on_c, 0, 62, 84
1, 71457, Note_on_c, 0, 77, 97
1, 71465, Control_c, 0, 64, 48
1, 71479, Control_c, 0, 64, 68
1, 71494, Control_c, 0, 64, 95
1, 71500, Note_off_c, 0, 77, 63
1, 71505, Note_off_c, 0, 62, 61
1, 71509, Control_c, 0, 64, 100
1, 71511, Note_off_c, 0, 89, 68
1, 71524, Control_c, 0, 64, 101
1, 71538, Control_c, 0, 64, 107
1, 71553, Control_c, 0, 64, 108
1, 71569, Note_on_c, 0, 48, 82
1, 71583, Control_c, 0, 64, 99
1, 71598, Control_c, 0, 64, 93
1, 71613, Control_c, 0, 64, 91
1, 71628, Control_c, 0, 64, 89
1, 71643, Control_c, 0, 64, 84
1, 71657, Control_c, 0, 64, 76
1, 71667, Note_on_c, 0, 88, 98
1, 71670, Note_on_c, 0, 76, 91
1, 71672, Control_c, 0, 64, 68
1, 71678, Note_on_c, 0, 60, 82
1, 71687, Note_off_c, 0, 48, 62
1, 71687, Note_off_c, 0, 76, 76
1, 71687, Control_c, 0, 64, 62
1, 71690, Note_off_c, 0, 88, 64
1, 71702, Control_c, 0, 64, 55
1, 71717, Control_c, 0, 64, 46
1, 71732, Control_c, 0, 64, 39
1, 71746, Control_c, 0, 64, 36
1, 71761, Control_c, 0, 64, 31
1, 71765, Note_off_c, 0, 60, 56
1, 71776, Control_c, 0, 64, 23
1, 71780, Note_on_c, 0, 48, 83
1, 71790, Control_c, 0, 64, 8
1, 71805, Control_c, 0, 64, 0
1, 71856, Note_on_c, 0, 88, 86
1, 71861, Note_on_c, 0, 76, 79
1, 71870, Note_on_c, 0, 60, 79
1, 71872, Note_off_c, 0, 88, 75
1, 71875, Note_off_c, 0, 76, 72
1, 71881, Note_off_c, 0, 48, 65
1, 71935, Note_off_c, 0, 60, 63
1, 71956, Note_on_c, 0, 48, 81
1, 72042, Note_on_c, 0, 58, 86
1, 72050, Note_off_c, 0, 48, 64
1, 72125, Control_c, 0, 64, 16
1, 72140, Control_c, 0, 64, 26
1, 72141, Note_on_c, 0, 48, 80
1, 72144, Note_off_c, 0, 58, 64
1, 72155, Control_c, 0, 64, 33
1, 72169, Control_c, 0, 64, 38
1, 72184, Control_c, 0, 64, 43
1, 72199, Control_c, 0, 64, 47
1, 72213, Control_c, 0, 64, 49
1, 72223, Note_on_c, 0, 58, 74
1, 72223, Note_on_c, 0, 85, 92
1, 72224, Note_on_c, 0, 73, 88
1, 72227, Note_off_c, 0, 48, 63
1, 72243, Control_c, 0, 64, 49
1, 72248, Note_off_c, 0, 73, 63
1, 72258, Control_c, 0, 64, 47
1, 72261, Note_off_c, 0, 85, 68
1, 72273, Control_c, 0, 64, 46
1, 72287, Control_c, 0, 64, 45
1, 72301, Note_off_c, 0, 58, 51
1, 72302, Control_c, 0, 64, 44
1, 72316, Note_on_c, 0, 48, 76
1, 72317, Control_c, 0, 64, 42
1, 72332, Control_c, 0, 64, 38
1, 72347, Control_c, 0, 64, 34
1, 72362, Control_c, 0, 64, 30
1, 72376, Control_c, 0, 64, 27
1, 72391, Control_c, 0, 64, 24
1, 72406, Control_c, 0, 64, 20
1, 72409, Note_on_c, 0, 84, 91
1, 72410, Note_on_c, 0, 72, 84
1, 72417, Note_on_c, 0, 56, 73
1, 72421, Control_c, 0, 64, 15
1, 72423, Note_off_c, 0, 72, 73
1, 72426, Note_off_c, 0, 84, 73
1, 72435, Note_off_c, 0, 48, 63
1, 72435, Control_c, 0, 64, 0
1, 72510, Note_off_c, 0, 56, 65
1, 72512, Note_on_c, 0, 48, 74
1, 72591, Note_on_c, 0, 84, 92
1, 72596, Note_on_c, 0, 72, 83
1, 72598, Note_on_c, 0, 60, 68
1, 72598, Note_off_c, 0, 48, 62
1, 72609, Note_off_c, 0, 84, 70
1, 72610, Note_off_c, 0, 72, 72
1, 72672, Note_off_c, 0, 60, 63
1, 72698, Note_on_c, 0, 48, 80
1, 72783, Note_on_c, 0, 59, 73
1, 72789, Note_off_c, 0, 48, 65
1, 72874, Note_off_c, 0, 59, 60
1, 72881, Note_on_c, 0, 48, 77
1, 72918, Control_c, 0, 64, 18
1, 72921, Note_off_c, 0, 48, 67
1, 72933, Control_c, 0, 64, 26
1, 72948, Control_c, 0, 64, 31
1, 72962, Control_c, 0, 64, 36
1, 72963, Note_on_c, 0, 89, 96
1, 72966, Note_on_c, 0, 77, 86
1, 72970, Note_on_c, 0, 62, 76
1, 72977, Control_c, 0, 64, 41
1, 72988, Note_off_c, 0, 77, 66
1, 72992, Control_c, 0, 64, 46
1, 73004, Note_off_c, 0, 89, 64
1, 73007, Control_c, 0, 64, 48
1, 73020, Note_off_c, 0, 62, 61
1, 73036, Control_c, 0, 64, 47
1, 73051, Control_c, 0, 64, 45
1, 73066, Control_c, 0, 64, 44
1, 73070, Note_on_c, 0, 48, 77
1, 73081, Control_c, 0, 64, 43
1, 73096, Control_c, 0, 64, 42
1, 73110, Control_c, 0, 64, 41
1, 73125, Control_c, 0, 64, 38
1, 73140, Control_c, 0, 64, 34
1, 73155, Control_c, 0, 64, 26
1, 73160, Note_on_c, 0, 88, 94
1, 73162, Note_on_c, 0, 76, 90
1, 73162, Note_off_c, 0, 48, 62
1, 73167, Note_on_c, 0, 60, 66
1, 73169, Control_c, 0, 64, 14
1, 73176, Note_off_c, 0, 88, 72
1, 73178, Note_off_c, 0, 76, 73
1, 73184, Control_c, 0, 64, 0
1, 73248, Note_off_c, 0, 60, 53
1, 73264, Note_on_c, 0, 48, 68
1, 73351, Note_on_c, 0, 88, 80
1, 73354, Note_on_c, 0, 76, 74
1, 73361, Note_on_c, 0, 60, 69
1, 73364, Note_off_c, 0, 48, 65
1, 73368, Note_off_c, 0, 76, 69
1, 73369, Note_off_c, 0, 88, 74
1, 73418, Note_off_c, 0, 60, 65
1, 73449, Note_on_c, 0, 48, 66
1, 73525, Note_off_c, 0, 48, 65
1, 73536, Note_on_c, 0, 58, 73
1, 73633, Note_off_c, 0, 58, 63
1, 73637, Note_on_c, 0, 48, 65
1, 73710, Note_off_c, 0, 48, 62
1, 73714, Note_on_c, 0, 85, 78
1, 73719, Note_on_c, 0, 73, 68
1, 73731, Note_on_c, 0, 58, 64
1, 73743, Note_off_c, 0, 73, 61
1, 73755, Note_off_c, 0, 85, 54
1, 73756, Control_c, 0, 67, 11
1, 73771, Control_c, 0, 67, 15
1, 73785, Control_c, 0, 67, 21
1, 73800, Control_c, 0, 67, 29
1, 73803, Note_off_c, 0, 58, 57
1, 73814, Note_on_c, 0, 48, 65
1, 73815, Control_c, 0, 67, 35
1, 73830, Control_c, 0, 67, 40
1, 73845, Control_c, 0, 67, 43
1, 73859, Control_c, 0, 67, 43
1, 73874, Control_c, 0, 67, 44
1, 73902, Note_on_c, 0, 72, 65
1, 73902, Note_on_c, 0, 84, 71
1, 73904, Control_c, 0, 67, 45
1, 73906, Note_on_c, 0, 56, 64
1, 73908, Note_off_c, 0, 48, 63
1, 73919, Note_off_c, 0, 84, 66
1, 73919, Control_c, 0, 67, 48
1, 73920, Note_off_c, 0, 72, 67
1, 73933, Control_c, 0, 67, 53
1, 73948, Control_c, 0, 67, 58
1, 73963, Control_c, 0, 67, 63
1, 73978, Control_c, 0, 67, 66
1, 73981, Note_off_c, 0, 56, 63
1, 73992, Control_c, 0, 67, 70
1, 74007, Control_c, 0, 67, 79
1, 74010, Note_on_c, 0, 48, 50
1, 74022, Control_c, 0, 67, 91
1, 74037, Control_c, 0, 67, 103
1, 74052, Control_c, 0, 67, 113
1, 74066, Control_c, 0, 67, 123
1, 74081, Note_off_c, 0, 48, 57
1, 74081, Control_c, 0, 67, 127
1, 74087, Note_on_c, 0, 84, 75
1, 74093, Note_on_c, 0, 72, 63
1, 74102, Note_on_c, 0, 60, 59
1, 74102, Note_off_c, 0, 84, 70
1, 74112, Note_off_c, 0, 72, 65
1, 74156, Note_off_c, 0, 60, 53
1, 74185, Note_on_c, 0, 48, 64
1, 74257, Note_off_c, 0, 48, 58
1, 74275, Note_on_c, 0, 59, 62
1, 74335, Note_off_c, 0, 59, 57
1, 74377, Note_on_c, 0, 48, 64
1, 74415, Note_off_c, 0, 48, 64
1, 74460, Note_on_c, 0, 77, 73
1, 74460, Note_on_c, 0, 89, 74
1, 74462, Note_on_c, 0, 62, 64
1, 74475, Note_off_c, 0, 89, 70
1, 74477, Note_off_c, 0, 77, 67
1, 74494, Note_off_c, 0, 62, 55
1, 74543, Note_on_c, 0, 48, 70
1, 74611, Note_off_c, 0, 48, 63
1, 74652, Note_on_c, 0, 60, 56
1, 74654, Note_on_c, 0, 88, 65
1, 74657, Note_on_c, 0, 76, 59
1, 74689, Note_off_c, 0, 76, 0
1, 74689, Note_on_c, 0, 76, 33
1, 74709, Note_off_c, 0, 60, 61
1, 74742, Control_c, 0, 64, 10
1, 74756, Control_c, 0, 64, 22
1, 74771, Control_c, 0, 64, 27
1, 74786, Control_c, 0, 64, 28
1, 74815, Control_c, 0, 64, 25
1, 74830, Control_c, 0, 64, 20
1, 74845, Control_c, 0, 64, 14
1, 74850, Note_on_c, 0, 60, 52
1, 74860, Control_c, 0, 64, 0
1, 74895, Note_off_c, 0, 60, 59
1, 74920, Note_off_c, 0, 88, 49
1, 74936, Note_off_c, 0, 76, 40
1, 75055, Note_on_c, 0, 60, 48
1, 75118, Note_off_c, 0, 60, 58
1, 75248, Note_on_c, 0, 60, 49
1, 75303, Note_off_c, 0, 60, 57
1, 75439, Note_on_c, 0, 60, 51
1, 75496, Note_off_c, 0, 60, 56
1, 75628, Note_on_c, 0, 60, 50
1, 75676, Note_off_c, 0, 60, 57
1, 75819, Note_on_c, 0, 60, 48
1, 75880, Note_off_c, 0, 60, 59
1, 76018, Note_on_c, 0, 60, 44
1, 76068, Note_off_c, 0, 60, 57
1, 76213, Note_on_c, 0, 60, 37
1, 76217, Note_on_c, 0, 61, 51
1, 76248, Note_off_c, 0, 61, 60
1, 76286, Note_off_c, 0, 60, 42
1, 76408, Note_on_c, 0, 60, 41
1, 76409, Note_on_c, 0, 61, 40
1, 76447, Note_off_c, 0, 61, 53
1, 76450, Note_off_c, 0, 60, 51
1, 76460, Note_on_c, 0, 68, 46
1, 76497, Note_on_c, 0, 66, 58
1, 76498, Note_off_c, 0, 68, 53
1, 76526, Note_off_c, 0, 66, 63
1, 76544, Note_on_c, 0, 65, 60
1, 76576, Note_off_c, 0, 65, 67
1, 76599, Note_on_c, 0, 66, 52
1, 76608, Note_on_c, 0, 61, 49
1, 76609, Note_on_c, 0, 60, 45
1, 76621, Note_off_c, 0, 66, 61
1, 76644, Note_off_c, 0, 61, 59
1, 76649, Note_off_c, 0, 60, 62
1, 76802, Note_on_c, 0, 60, 35
1, 76808, Note_on_c, 0, 61, 46
1, 76831, Note_off_c, 0, 60, 53
1, 76836, Note_off_c, 0, 61, 57
1, 76999, Note_on_c, 0, 61, 33
1, 77005, Note_on_c, 0, 58, 47
1, 77031, Note_off_c, 0, 61, 57
1, 77034, Note_off_c, 0, 58, 56
1, 77190, Note_on_c, 0, 61, 40
1, 77196, Note_on_c, 0, 58, 41
1, 77221, Note_off_c, 0, 61, 56
1, 77226, Note_off_c, 0, 58, 56
1, 77252, Note_on_c, 0, 87, 52
1, 77283, Note_off_c, 0, 87, 62
1, 77287, Note_on_c, 0, 85, 63
1, 77315, Note_off_c, 0, 85, 68
1, 77337, Note_on_c, 0, 84, 62
1, 77380, Note_off_c, 0, 84, 65
1, 77382, Note_on_c, 0, 61, 48
1, 77387, Note_on_c, 0, 58, 46
1, 77391, Note_on_c, 0, 85, 57
1, 77412, Note_off_c, 0, 85, 60
1, 77418, Note_off_c, 0, 61, 64
1, 77419, Note_off_c, 0, 58, 59
1, 77571, Note_on_c, 0, 61, 55
1, 77583, Note_on_c, 0, 58, 40
1, 77601, Note_off_c, 0, 61, 62
1, 77612, Note_off_c, 0, 58, 57
1, 77763, Note_on_c, 0, 58, 50
1, 77771, Note_on_c, 0, 60, 50
1, 77800, Note_off_c, 0, 58, 64
1, 77804, Note_off_c, 0, 60, 63
1, 77956, Note_on_c, 0, 58, 52
1, 77958, Note_on_c, 0, 60, 34
1, 77983, Note_off_c, 0, 58, 59
1, 77986, Note_off_c, 0, 60, 55
1, 78011, Note_on_c, 0, 65, 49
1, 78037, Note_off_c, 0, 65, 63
1, 78048, Note_on_c, 0, 64, 56
1, 78084, Note_off_c, 0, 64, 64
1, 78092, Note_on_c, 0, 62, 61
1, 78137, Note_off_c, 0, 62, 63
1, 78141, Note_on_c, 0, 60, 48
1, 78142, Note_on_c, 0, 64, 63
1, 78145, Note_on_c, 0, 58, 55
1, 78160, Note_off_c, 0, 64, 64
1, 78175, Note_off_c, 0, 58, 65
1, 78177, Note_off_c, 0, 60, 64
1, 78344, Note_on_c, 0, 58, 59
1, 78344, Note_on_c, 0, 60, 52
1, 78367, Note_off_c, 0, 58, 64
1, 78376, Note_off_c, 0, 60, 65
1, 78537, Note_on_c, 0, 56, 62
1, 78538, Note_on_c, 0, 60, 58
1, 78559, Note_off_c, 0, 60, 65
1, 78564, Note_off_c, 0, 56, 68
1, 78725, Note_on_c, 0, 60, 55
1, 78729, Note_on_c, 0, 56, 58
1, 78746, Note_off_c, 0, 60, 64
1, 78750, Note_off_c, 0, 56, 63
1, 78782, Note_on_c, 0, 85, 61
1, 78818, Note_off_c, 0, 85, 62
1, 78829, Note_on_c, 0, 84, 66
1, 78857, Note_off_c, 0, 84, 66
1, 78871, Note_on_c, 0, 83, 61
1, 78916, Note_on_c, 0, 84, 79
1, 78916, Note_on_c, 0, 60, 65
1, 78919, Note_on_c, 0, 56, 61
1, 78922, Note_off_c, 0, 83, 66
1, 78922, Control_c, 0, 67, 126
1, 78937, Note_off_c, 0, 84, 71
1, 78937, Control_c, 0, 67, 116
1, 78943, Note_off_c, 0, 60, 68
1, 78946, Note_off_c, 0, 56, 68
1, 78952, Control_c, 0, 67, 107
1, 78967, Control_c, 0, 67, 97
1, 78981, Control_c, 0, 67, 82
1, 78996, Control_c, 0, 67, 61
1, 79011, Control_c, 0, 67, 36
1, 79026, Control_c, 0, 67, 10
1, 79041, Control_c, 0, 67, 0
1, 79120, Note_on_c, 0, 56, 66
1, 79121, Note_on_c, 0, 60, 70
1, 79148, Note_off_c, 0, 56, 68
1, 79148, Note_off_c, 0, 60, 68
1, 79309, Note_on_c, 0, 58, 71
1, 79311, Note_on_c, 0, 56, 68
1, 79335, Note_off_c, 0, 56, 69
1, 79335, Note_off_c, 0, 58, 67
1, 79488, Note_on_c, 0, 58, 77
1, 79497, Note_on_c, 0, 56, 62
1, 79512, Note_off_c, 0, 58, 68
1, 79519, Note_off_c, 0, 56, 68
1, 79542, Note_on_c, 0, 63, 62
1, 79588, Note_on_c, 0, 62, 76
1, 79592, Note_off_c, 0, 63, 62
1, 79626, Note_off_c, 0, 62, 65
1, 79635, Note_on_c, 0, 60, 75
1, 79669, Note_off_c, 0, 60, 60
1, 79682, Note_on_c, 0, 62, 87
1, 79691, Note_on_c, 0, 58, 82
1, 79696, Note_on_c, 0, 56, 77
1, 79712, Note_off_c, 0, 62, 66
1, 79712, Note_off_c, 0, 58, 69
1, 79718, Note_off_c, 0, 56, 68
1, 79882, Note_on_c, 0, 58, 91
1, 79885, Note_on_c, 0, 56, 76
1, 79913, Note_off_c, 0, 58, 66
1, 79915, Note_off_c, 0, 56, 68
1, 80080, Note_on_c, 0, 64, 95
1, 80082, Note_on_c, 0, 58, 82
1, 80084, Note_on_c, 0, 55, 87
1, 80112, Note_off_c, 0, 55, 68
1, 80114, Note_off_c, 0, 64, 65
1, 80117, Note_off_c, 0, 58, 65
1, 80271, Note_on_c, 0, 64, 88
1, 80273, Note_on_c, 0, 55, 83
1, 80274, Note_on_c, 0, 58, 80
1, 80290, Note_off_c, 0, 64, 70
1, 80295, Note_off_c, 0, 55, 72
1, 80303, Note_off_c, 0, 58, 65
1, 80317, Note_on_c, 0, 84, 80
1, 80370, Note_on_c, 0, 82, 60
1, 80391, Note_off_c, 0, 82, 68
1, 80392, Note_on_c, 0, 81, 84
1, 80397, Note_off_c, 0, 84, 64
1, 80445, Note_on_c, 0, 82, 102
1, 80449, Note_on_c, 0, 64, 96
1, 80454, Note_on_c, 0, 55, 94
1, 80459, Note_off_c, 0, 81, 66
1, 80460, Note_on_c, 0, 58, 78
1, 80477, Note_off_c, 0, 82, 71
1, 80486, Note_off_c, 0, 55, 66
1, 80486, Note_off_c, 0, 64, 53
1, 80491, Note_off_c, 0, 58, 59
1, 80642, Note_on_c, 0, 64, 92
1, 80648, Note_on_c, 0, 55, 81
1, 80649, Note_on_c, 0, 58, 86
1, 80670, Note_off_c, 0, 64, 64
1, 80671, Note_off_c, 0, 55, 73
1, 80682, Note_off_c, 0, 58, 65
1, 80874, Note_on_c, 0, 60, 90
1, 80874, Note_on_c, 0, 65, 98
1, 80876, Note_on_c, 0, 56, 84
1, 80877, Note_on_c, 0, 53, 93
1, 80916, Note_off_c, 0, 65, 65
1, 81083, Note_on_c, 0, 68, 96
1, 81116, Note_off_c, 0, 68, 65
1, 81269, Note_on_c, 0, 72, 95
1, 81303, Note_off_c, 0, 72, 68
1, 81308, Note_off_c, 0, 60, 66
1, 81310, Note_off_c, 0, 56, 67
1, 81313, Note_off_c, 0, 53, 68
1, 81453, Note_on_c, 0, 77, 92
1, 81482, Note_off_c, 0, 77, 61
1, 81637, Note_on_c, 0, 80, 96
1, 81833, Note_on_c, 0, 60, 80
1, 81839, Note_on_c, 0, 56, 69
1, 81841, Note_off_c, 0, 80, 59
1, 81843, Note_on_c, 0, 53, 69
1, 81853, Note_off_c, 0, 60, 71
1, 81858, Note_off_c, 0, 56, 67
1, 81864, Note_off_c, 0, 53, 68
1, 81885, Note_on_c, 0, 79, 70
1, 81927, Note_on_c, 0, 77, 84
1, 81940, Note_off_c, 0, 79, 62
1, 81970, Note_off_c, 0, 77, 64
1, 81977, Note_on_c, 0, 76, 69
1, 82021, Note_on_c, 0, 60, 82
1, 82022, Note_on_c, 0, 77, 94
1, 82022, Note_on_c, 0, 53, 74
1, 82030, Note_on_c, 0, 56, 67
1, 82035, Note_off_c, 0, 76, 70
1, 82040, Note_off_c, 0, 77, 70
1, 82041, Note_off_c, 0, 60, 71
1, 82047, Note_off_c, 0, 53, 68
1, 82049, Note_off_c, 0, 56, 67
1, 82211, Note_on_c, 0, 60, 87
1, 82213, Note_on_c, 0, 56, 80
1, 82218, Note_on_c, 0, 53, 81
1, 82235, Note_off_c, 0, 60, 68
1, 82236, Note_off_c, 0, 56, 70
1, 82243, Note_off_c, 0, 53, 70
1, 82407, Note_on_c, 0, 67, 96
1, 82407, Note_on_c, 0, 60, 80
1, 82409, Note_on_c, 0, 55, 74
1, 82410, Note_on_c, 0, 52, 80
1, 82412, Note_on_c, 0, 58, 74
1, 82443, Note_off_c, 0, 67, 63
1, 82609, Note_on_c, 0, 72, 95
1, 82645, Note_off_c, 0, 72, 63
1, 82670, Note_off_c, 0, 58, 62
1, 82671, Note_off_c, 0, 60, 65
1, 82673, Note_off_c, 0, 52, 67
1, 82675, Note_off_c, 0, 55, 64
1, 82794, Note_on_c, 0, 76, 100
1, 82826, Note_off_c, 0, 76, 69
1, 82970, Note_on_c, 0, 79, 89
1, 82999, Note_off_c, 0, 79, 64
1, 83155, Note_on_c, 0, 82, 99
1, 83350, Note_on_c, 0, 55, 77
1, 83351, Note_on_c, 0, 60, 80
1, 83357, Note_on_c, 0, 58, 66
1, 83366, Note_on_c, 0, 52, 67
1, 83370, Note_off_c, 0, 60, 71
1, 83374, Note_off_c, 0, 55, 70
1, 83375, Note_off_c, 0, 58, 65
1, 83387, Note_off_c, 0, 52, 65
1, 83396, Note_off_c, 0, 82, 59
1, 83397, Note_on_c, 0, 80, 80
1, 83447, Note_on_c, 0, 79, 74
1, 83456, Note_off_c, 0, 80, 63
1, 83480, Note_on_c, 0, 77, 79
1, 83486, Note_off_c, 0, 79, 63
1, 83524, Note_on_c, 0, 58, 76
1, 83524, Note_on_c, 0, 60, 80
1, 83526, Note_on_c, 0, 55, 74
1, 83530, Note_on_c, 0, 52, 65
1, 83532, Note_on_c, 0, 79, 87
1, 83544, Note_off_c, 0, 77, 67
1, 83549, Note_off_c, 0, 58, 68
1, 83552, Note_off_c, 0, 79, 71
1, 83557, Note_off_c, 0, 60, 63
1, 83568, Note_off_c, 0, 55, 65
1, 83587, Note_off_c, 0, 52, 46
1, 83712, Note_on_c, 0, 58, 78
1, 83715, Note_on_c, 0, 60, 78
1, 83717, Note_on_c, 0, 52, 79
1, 83733, Note_off_c, 0, 58, 69
1, 83736, Note_off_c, 0, 60, 70
1, 83741, Note_off_c, 0, 52, 69
1, 83883, Note_on_c, 0, 72, 77
1, 83915, Note_on_c, 0, 60, 85
1, 83917, Note_on_c, 0, 56, 80
1, 83919, Note_on_c, 0, 80, 100
1, 83921, Note_on_c, 0, 53, 81
1, 83956, Note_off_c, 0, 72, 66
1, 84128, Note_off_c, 0, 80, 56
1, 84159, Note_on_c, 0, 79, 55
1, 84201, Note_on_c, 0, 77, 83
1, 84219, Note_off_c, 0, 79, 63
1, 84246, Note_on_c, 0, 76, 80
1, 84246, Note_off_c, 0, 77, 63
1, 84290, Note_on_c, 0, 77, 90
1, 84310, Note_off_c, 0, 76, 69
1, 84333, Note_off_c, 0, 77, 68
1, 84351, Note_off_c, 0, 53, 67
1, 84351, Note_off_c, 0, 60, 67
1, 84359, Note_off_c, 0, 56, 66
1, 84603, Note_on_c, 0, 72, 76
1, 84655, Note_on_c, 0, 82, 99
1, 84660, Note_on_c, 0, 64, 89
1, 84662, Note_on_c, 0, 58, 87
1, 84664, Note_on_c, 0, 55, 87
1, 84685, Note_off_c, 0, 72, 64
1, 84756, Control_c, 0, 64, 22
1, 84771, Control_c, 0, 64, 32
1, 84786, Control_c, 0, 64, 36
1, 84800, Control_c, 0, 64, 38
1, 84838, Control_c, 0, 64, 36
1, 84852, Control_c, 0, 64, 33
1, 84867, Control_c, 0, 64, 27
1, 84882, Control_c, 0, 64, 19
1, 84898, Control_c, 0, 64, 10
1, 84913, Control_c, 0, 64, 0
1, 84919, Note_on_c, 0, 80, 76
1, 84925, Note_off_c, 0, 82, 62
1, 84965, Note_on_c, 0, 79, 79
1, 84973, Note_off_c, 0, 80, 63
1, 84994, Note_on_c, 0, 77, 84
1, 85007, Note_off_c, 0, 79, 62
1, 85037, Note_off_c, 0, 77, 64
1, 85065, Note_on_c, 0, 79, 100
1, 85123, Note_off_c, 0, 79, 68
1, 85136, Note_off_c, 0, 64, 65
1, 85139, Note_off_c, 0, 55, 67
1, 85146, Note_off_c, 0, 58, 65
1, 85474, Note_on_c, 0, 72, 54
1, 85512, Note_on_c, 0, 77, 71
1, 85541, Note_on_c, 0, 80, 75
1, 85568, Note_on_c, 0, 65, 99
1, 85569, Note_on_c, 0, 60, 82
1, 85570, Note_on_c, 0, 56, 93
1, 85574, Note_on_c, 0, 84, 101
1, 85602, Control_c, 0, 64, 49
1, 85610, Note_off_c, 0, 60, 65
1, 85611, Note_off_c, 0, 65, 66
1, 85616, Note_off_c, 0, 56, 68
1, 85617, Control_c, 0, 64, 73
1, 85631, Control_c, 0, 64, 127
1, 85665, Note_off_c, 0, 80, 63
1, 85696, Note_off_c, 0, 72, 63
1, 85720, Note_off_c, 0, 77, 44
1, 85765, Control_c, 0, 64, 100
1, 85780, Control_c, 0, 64, 83
1, 85795, Control_c, 0, 64, 70
1, 85810, Control_c, 0, 64, 60
1, 85825, Control_c, 0, 64, 41
1, 85839, Control_c, 0, 64, 0
1, 86053, Note_on_c, 0, 58, 90
1, 86055, Note_on_c, 0, 67, 98
1, 86056, Note_on_c, 0, 82, 95
1, 86058, Note_on_c, 0, 61, 83
1, 86085, Note_off_c, 0, 67, 68
1, 86085, Note_off_c, 0, 58, 66
1, 86090, Note_off_c, 0, 61, 68
1, 86091, Control_c, 0, 64, 41
1, 86102, Note_off_c, 0, 84, 60
1, 86106, Control_c, 0, 64, 63
1, 86121, Control_c, 0, 64, 95
1, 86136, Control_c, 0, 64, 113
1, 86165, Control_c, 0, 64, 111
1, 86180, Control_c, 0, 64, 110
1, 86186, Note_on_c, 0, 80, 93
1, 86195, Control_c, 0, 64, 103
1, 86210, Control_c, 0, 64, 96
1, 86216, Note_off_c, 0, 82, 64
1, 86225, Control_c, 0, 64, 88
1, 86239, Control_c, 0, 64, 79
1, 86254, Control_c, 0, 64, 70
1, 86269, Control_c, 0, 64, 60
1, 86271, Note_on_c, 0, 79, 90
1, 86284, Control_c, 0, 64, 33
1, 86295, Note_off_c, 0, 80, 63
1, 86298, Control_c, 0, 64, 0
1, 86341, Note_off_c, 0, 79, 65
1, 86347, Note_on_c, 0, 77, 84
1, 86385, Note_off_c, 0, 77, 65
1, 86424, Note_on_c, 0, 76, 81
1, 86470, Note_on_c, 0, 77, 81
1, 86477, Note_off_c, 0, 76, 66
1, 86529, Note_on_c, 0, 79, 91
1, 86529, Note_off_c, 0, 77, 65
1, 86581, Note_on_c, 0, 67, 90
1, 86583, Note_on_c, 0, 60, 84
1, 86583, Note_on_c, 0, 77, 95
1, 86619, Note_off_c, 0, 79, 66
1, 86863, Note_off_c, 0, 77, 59
1, 86899, Note_on_c, 0, 76, 97
1, 86958, Control_c, 0, 64, 34
1, 86973, Control_c, 0, 64, 57
1, 86979, Note_off_c, 0, 76, 72
1, 86988, Control_c, 0, 64, 89
1, 87003, Control_c, 0, 64, 127
1, 87004, Note_off_c, 0, 60, 65
1, 87006, Note_off_c, 0, 67, 61
1, 87173, Control_c, 0, 64, 107
1, 87188, Control_c, 0, 64, 98
1, 87203, Control_c, 0, 64, 93
1, 87218, Control_c, 0, 64, 86
1, 87233, Control_c, 0, 64, 79
1, 87247, Control_c, 0, 64, 73
1, 87262, Control_c, 0, 64, 69
1, 87277, Control_c, 0, 64, 67
1, 87292, Control_c, 0, 64, 64
1, 87307, Control_c, 0, 64, 61
1, 87322, Control_c, 0, 64, 55
1, 87337, Control_c, 0, 64, 47
1, 87352, Control_c, 0, 64, 37
1, 87367, Control_c, 0, 64, 26
1, 87382, Control_c, 0, 64, 0
1, 88382, Control_c, 0, 67, 10
1, 88397, Control_c, 0, 67, 13
1, 88413, Control_c, 0, 67, 18
1, 88428, Control_c, 0, 67, 26
1, 88442, Control_c, 0, 67, 35
1, 88457, Control_c, 0, 67, 45
1, 88472, Control_c, 0, 67, 55
1, 88486, Control_c, 0, 67, 66
1, 88501, Control_c, 0, 67, 78
1, 88516, Control_c, 0, 67, 90
1, 88531, Control_c, 0, 67, 104
1, 88546, Control_c, 0, 67, 115
1, 88568, Control_c, 0, 67, 124
1, 88583, Control_c, 0, 67, 127
1, 88729, Note_on_c, 0, 48, 52
1, 88759, Note_off_c, 0, 48, 62
1, 88923, Note_on_c, 0, 53, 52
1, 88953, Note_off_c, 0, 53, 59
1, 89104, Note_on_c, 0, 56, 59
1, 89146, Note_off_c, 0, 56, 63
1, 89295, Note_on_c, 0, 60, 61
1, 89329, Note_off_c, 0, 60, 68
1, 89481, Note_on_c, 0, 65, 69
1, 89507, Note_off_c, 0, 65, 69
1, 89695, Note_on_c, 0, 68, 68
1, 89702, Control_c, 0, 64, 22
1, 89717, Control_c, 0, 64, 41
1, 89731, Control_c, 0, 64, 58
1, 89746, Control_c, 0, 64, 66
1, 89761, Control_c, 0, 64, 69
1, 89776, Control_c, 0, 64, 71
1, 89791, Control_c, 0, 64, 75
1, 89805, Control_c, 0, 64, 80
1, 89820, Control_c, 0, 64, 82
1, 89835, Control_c, 0, 64, 84
1, 89847, Note_off_c, 0, 68, 57
1, 89850, Control_c, 0, 64, 85
1, 89924, Control_c, 0, 64, 84
1, 89939, Control_c, 0, 64, 82
1, 89954, Control_c, 0, 64, 79
1, 89963, Note_on_c, 0, 67, 62
1, 89969, Control_c, 0, 64, 77
1, 89984, Control_c, 0, 64, 74
1, 89994, Note_off_c, 0, 67, 65
1, 89999, Control_c, 0, 64, 71
1, 90009, Note_on_c, 0, 65, 51
1, 90013, Control_c, 0, 64, 64
1, 90028, Control_c, 0, 64, 56
1, 90037, Note_on_c, 0, 64, 71
1, 90040, Note_off_c, 0, 65, 68
1, 90043, Control_c, 0, 64, 33
1, 90064, Control_c, 0, 64, 0
1, 90073, Note_off_c, 0, 64, 66
1, 90099, Note_on_c, 0, 65, 71
1, 90123, Note_off_c, 0, 65, 70
1, 90290, Note_on_c, 0, 65, 73
1, 90337, Note_off_c, 0, 65, 62
1, 90582, Note_on_c, 0, 82, 74
1, 90602, Note_on_c, 0, 66, 45
1, 90613, Note_on_c, 0, 65, 41
1, 90643, Control_c, 0, 64, 27
1, 90658, Control_c, 0, 64, 45
1, 90673, Control_c, 0, 64, 60
1, 90688, Control_c, 0, 64, 72
1, 90702, Control_c, 0, 64, 76
1, 90717, Control_c, 0, 64, 80
1, 90732, Control_c, 0, 64, 85
1, 90747, Control_c, 0, 64, 91
1, 90762, Control_c, 0, 64, 95
1, 90765, Note_off_c, 0, 82, 62
1, 90777, Control_c, 0, 64, 98
1, 90792, Control_c, 0, 64, 100
1, 90852, Note_on_c, 0, 80, 60
1, 90887, Control_c, 0, 64, 97
1, 90888, Note_off_c, 0, 80, 62
1, 90892, Note_on_c, 0, 78, 70
1, 90902, Control_c, 0, 64, 92
1, 90917, Control_c, 0, 64, 86
1, 90923, Note_off_c, 0, 78, 62
1, 90932, Control_c, 0, 64, 79
1, 90935, Note_on_c, 0, 77, 66
1, 90947, Control_c, 0, 64, 70
1, 90962, Control_c, 0, 64, 62
1, 90973, Note_on_c, 0, 78, 71
1, 90977, Control_c, 0, 64, 45
1, 90986, Note_off_c, 0, 77, 65
1, 90991, Note_off_c, 0, 78, 69
1, 90992, Control_c, 0, 64, 0
1, 91160, Note_on_c, 0, 78, 81
1, 91164, Note_off_c, 0, 66, 55
1, 91185, Note_off_c, 0, 78, 65
1, 91371, Note_on_c, 0, 78, 73
1, 91375, Note_on_c, 0, 66, 53
1, 91382, Note_on_c, 0, 63, 48
1, 91400, Note_off_c, 0, 65, 47
1, 91482, Control_c, 0, 64, 27
1, 91497, Control_c, 0, 64, 42
1, 91511, Control_c, 0, 64, 54
1, 91526, Control_c, 0, 64, 59
1, 91629, Note_on_c, 0, 73, 50
1, 91652, Control_c, 0, 64, 58
1, 91662, Note_off_c, 0, 73, 56
1, 91667, Control_c, 0, 64, 54
1, 91676, Note_on_c, 0, 72, 60
1, 91682, Control_c, 0, 64, 45
1, 91695, Note_off_c, 0, 72, 64
1, 91697, Control_c, 0, 64, 21
1, 91705, Note_on_c, 0, 71, 65
1, 91711, Control_c, 0, 64, 0
1, 91746, Note_off_c, 0, 71, 61
1, 91759, Note_on_c, 0, 72, 76
1, 91784, Note_off_c, 0, 72, 66
1, 91969, Note_on_c, 0, 72, 73
1, 91973, Note_off_c, 0, 63, 64
1, 91988, Note_off_c, 0, 66, 63
1, 91992, Note_off_c, 0, 72, 66
1, 92184, Note_on_c, 0, 69, 50
1, 92189, Note_on_c, 0, 72, 63
1, 92198, Note_on_c, 0, 63, 54
1, 92229, Note_off_c, 0, 78, 59
1, 92246, Control_c, 0, 64, 24
1, 92260, Control_c, 0, 64, 37
1, 92275, Control_c, 0, 64, 48
1, 92290, Control_c, 0, 64, 55
1, 92312, Control_c, 0, 64, 58
1, 92327, Control_c, 0, 64, 59
1, 92342, Control_c, 0, 64, 59
1, 92357, Control_c, 0, 64, 60
1, 92446, Control_c, 0, 64, 60
1, 92460, Control_c, 0, 64, 59
1, 92467, Note_on_c, 0, 78, 62
1, 92475, Control_c, 0, 64, 56
1, 92490, Control_c, 0, 64, 51
1, 92497, Note_on_c, 0, 77, 68
1, 92502, Note_off_c, 0, 78, 68
1, 92505, Control_c, 0, 64, 33
1, 92520, Control_c, 0, 64, 0
1, 92534, Note_off_c, 0, 77, 64
1, 92542, Note_on_c, 0, 76, 67
1, 92581, Note_on_c, 0, 77, 73
1, 92588, Note_off_c, 0, 76, 67
1, 92604, Note_off_c, 0, 77, 69
1, 92782, Note_on_c, 0, 77, 79
1, 92810, Note_off_c, 0, 77, 63
1, 92950, Note_off_c, 0, 63, 61
1, 93013, Note_on_c, 0, 77, 72
1, 93028, Note_on_c, 0, 65, 46
1, 93035, Note_on_c, 0, 61, 49
1, 93093, Note_off_c, 0, 69, 58
1, 93102, Note_off_c, 0, 72, 36
1, 93164, Control_c, 0, 64, 22
1, 93179, Control_c, 0, 64, 40
1, 93194, Control_c, 0, 64, 51
1, 93208, Control_c, 0, 64, 58
1, 93223, Control_c, 0, 64, 59
1, 93238, Control_c, 0, 64, 60
1, 93253, Control_c, 0, 64, 60
1, 93305, Note_on_c, 0, 72, 55
1, 93327, Control_c, 0, 64, 60
1, 93330, Note_off_c, 0, 72, 59
1, 93340, Note_on_c, 0, 70, 63
1, 93342, Control_c, 0, 64, 59
1, 93356, Control_c, 0, 64, 56
1, 93368, Note_off_c, 0, 70, 66
1, 93369, Note_on_c, 0, 69, 59
1, 93371, Control_c, 0, 64, 45
1, 93386, Control_c, 0, 64, 19
1, 93400, Control_c, 0, 64, 0
1, 93419, Note_on_c, 0, 70, 80
1, 93424, Note_off_c, 0, 69, 56
1, 93425, Note_off_c, 0, 77, 0
1, 93425, Note_on_c, 0, 77, 3
1, 93441, Note_off_c, 0, 70, 68
1, 93553, Note_off_c, 0, 65, 60
1, 93636, Note_on_c, 0, 70, 66
1, 93665, Note_off_c, 0, 70, 62
1, 93899, Note_on_c, 0, 71, 54
1, 93903, Note_on_c, 0, 65, 35
1, 93917, Note_on_c, 0, 62, 40
1, 93949, Note_off_c, 0, 77, 57
1, 93988, Note_off_c, 0, 61, 39
1, 94228, Note_on_c, 0, 79, 53
1, 94271, Note_off_c, 0, 79, 62
1, 94271, Note_on_c, 0, 77, 55
1, 94295, Note_off_c, 0, 77, 63
1, 94303, Note_on_c, 0, 76, 67
1, 94353, Note_off_c, 0, 76, 65
1, 94363, Note_on_c, 0, 77, 70
1, 94491, Control_c, 0, 67, 124
1, 94506, Control_c, 0, 67, 108
1, 94521, Control_c, 0, 67, 87
1, 94535, Control_c, 0, 67, 63
1, 94542, Note_on_c, 0, 79, 68
1, 94554, Note_on_c, 0, 64, 48
1, 94557, Control_c, 0, 67, 39
1, 94569, Note_off_c, 0, 77, 58
1, 94572, Control_c, 0, 67, 19
1, 94587, Control_c, 0, 67, 9
1, 94593, Note_off_c, 0, 65, 58
1, 94602, Control_c, 0, 67, 0
1, 94733, Note_on_c, 0, 80, 75
1, 94747, Note_on_c, 0, 65, 47
1, 94771, Note_off_c, 0, 79, 61
1, 94789, Note_off_c, 0, 64, 38
1, 94919, Note_on_c, 0, 76, 65
1, 94937, Note_on_c, 0, 67, 55
1, 94944, Note_off_c, 0, 65, 63
1, 95024, Note_off_c, 0, 80, 62
1, 95119, Note_on_c, 0, 77, 72
1, 95125, Note_on_c, 0, 68, 55
1, 95130, Note_off_c, 0, 71, 52
1, 95164, Note_off_c, 0, 67, 58
1, 95175, Note_off_c, 0, 76, 60
1, 95317, Note_on_c, 0, 71, 63
1, 95328, Note_on_c, 0, 65, 49
1, 95330, Note_off_c, 0, 77, 61
1, 95360, Note_off_c, 0, 68, 56
1, 95433, Note_off_c, 0, 62, 53
1, 95511, Note_on_c, 0, 60, 24
1, 95512, Note_on_c, 0, 72, 55
1, 95528, Note_on_c, 0, 64, 45
1, 95569, Note_off_c, 0, 65, 63
1, 95572, Note_off_c, 0, 71, 56
1, 95720, Note_on_c, 0, 67, 57
1, 95721, Note_on_c, 0, 76, 73
1, 95746, Note_off_c, 0, 64, 56
1, 95893, Note_off_c, 0, 72, 36
1, 95911, Note_on_c, 0, 65, 61
1, 95913, Note_on_c, 0, 77, 76
1, 95957, Note_off_c, 0, 76, 62
1, 95967, Note_off_c, 0, 67, 55
1, 96097, Note_on_c, 0, 79, 75
1, 96113, Note_off_c, 0, 77, 58
1, 96121, Note_on_c, 0, 64, 49
1, 96131, Note_off_c, 0, 65, 64
1, 96297, Note_on_c, 0, 80, 71
1, 96307, Note_on_c, 0, 65, 37
1, 96358, Note_off_c, 0, 79, 54
1, 96411, Control_c, 0, 67, 11
1, 96425, Control_c, 0, 67, 18
1, 96440, Control_c, 0, 67, 29
1, 96441, Note_off_c, 0, 64, 27
1, 96455, Control_c, 0, 67, 44
1, 96470, Control_c, 0, 67, 60
1, 96485, Control_c, 0, 64, 15
1, 96485, Control_c, 0, 67, 76
1, 96491, Note_on_c, 0, 76, 68
1, 96499, Control_c, 0, 64, 33
1, 96499, Control_c, 0, 67, 88
1, 96503, Note_on_c, 0, 70, 52
1, 96509, Note_off_c, 0, 60, 59
1, 96509, Note_off_c, 0, 80, 61
1, 96514, Control_c, 0, 64, 45
1, 96514, Control_c, 0, 67, 97
1, 96529, Control_c, 0, 64, 54
1, 96529, Control_c, 0, 67, 107
1, 96530, Note_off_c, 0, 65, 63
1, 96544, Control_c, 0, 64, 58
1, 96544, Control_c, 0, 67, 118
1, 96559, Control_c, 0, 64, 59
1, 96559, Control_c, 0, 67, 127
1, 96573, Control_c, 0, 64, 59
1, 96588, Control_c, 0, 64, 60
1, 96603, Control_c, 0, 64, 61
1, 96647, Control_c, 0, 64, 60
1, 96662, Control_c, 0, 64, 60
1, 96677, Control_c, 0, 64, 58
1, 96692, Control_c, 0, 64, 55
1, 96702, Note_on_c, 0, 77, 61
1, 96703, Note_on_c, 0, 68, 54
1, 96706, Control_c, 0, 64, 46
1, 96707, Note_on_c, 0, 61, 46
1, 96721, Control_c, 0, 64, 27
1, 96730, Note_off_c, 0, 76, 59
1, 96736, Control_c, 0, 64, 0
1, 96748, Note_off_c, 0, 70, 53
1, 96892, Note_off_c, 0, 77, 61
1, 96908, Control_c, 0, 64, 30
1, 96922, Control_c, 0, 64, 45
1, 96934, Note_on_c, 0, 65, 43
1, 96937, Control_c, 0, 64, 58
1, 96952, Control_c, 0, 64, 66
1, 96953, Note_on_c, 0, 71, 60
1, 96954, Note_off_c, 0, 68, 57
1, 96967, Control_c, 0, 64, 69
1, 96969, Note_off_c, 0, 65, 64
1, 96982, Control_c, 0, 64, 71
1, 96996, Note_off_c, 0, 61, 65
1, 96996, Control_c, 0, 64, 74
1, 97011, Control_c, 0, 64, 76
1, 97020, Note_off_c, 0, 71, 63
1, 97026, Control_c, 0, 64, 78
1, 97100, Control_c, 0, 64, 77
1, 97115, Control_c, 0, 64, 76
1, 97129, Control_c, 0, 64, 74
1, 97144, Control_c, 0, 64, 70
1, 97159, Control_c, 0, 64, 67
1, 97174, Control_c, 0, 64, 63
1, 97183, Note_on_c, 0, 64, 38
1, 97187, Note_on_c, 0, 48, 50
1, 97187, Note_on_c, 0, 72, 41
1, 97189, Control_c, 0, 64, 59
1, 97204, Control_c, 0, 64, 52
1, 97219, Control_c, 0, 64, 40
1, 97234, Control_c, 0, 64, 14
1, 97248, Control_c, 0, 64, 0
1, 97252, Note_off_c, 0, 64, 0
1, 97252, Note_on_c, 0, 64, 14
1, 97302, Note_off_c, 0, 48, 58
1, 97307, Note_on_c, 0, 60, 35
1, 97404, Note_off_c, 0, 60, 52
1, 97419, Note_on_c, 0, 48, 45
1, 97468, Note_off_c, 0, 64, 54
1, 97486, Note_off_c, 0, 48, 59
1, 97523, Note_on_c, 0, 60, 43
1, 97609, Note_off_c, 0, 60, 42
1, 97626, Note_off_c, 0, 72, 27
1, 97636, Note_on_c, 0, 48, 34
1, 97683, Note_off_c, 0, 48, 48
1, 97730, Note_on_c, 0, 60, 31
1, 97828, Note_off_c, 0, 60, 42
1, 97829, Note_on_c, 0, 48, 20
1, 97839, Note_on_c, 0, 73, 49
1, 97917, Note_off_c, 0, 48, 40
1, 97939, Note_on_c, 0, 60, 42
1, 98017, Note_on_c, 0, 72, 56
1, 98031, Note_off_c, 0, 60, 40
1, 98033, Note_on_c, 0, 48, 44
1, 98045, Note_off_c, 0, 73, 63
1, 98099, Note_off_c, 0, 48, 44
1, 98137, Note_on_c, 0, 60, 43
1, 98221, Note_on_c, 0, 70, 56
1, 98222, Note_on_c, 0, 48, 46
1, 98238, Note_off_c, 0, 60, 41
1, 98280, Note_off_c, 0, 48, 45
1, 98313, Note_off_c, 0, 72, 46
1, 98322, Note_on_c, 0, 60, 43
1, 98390, Note_off_c, 0, 60, 59
1, 98406, Note_on_c, 0, 67, 55
1, 98410, Note_on_c, 0, 48, 45
1, 98438, Note_off_c, 0, 70, 57
1, 98471, Note_off_c, 0, 48, 56
1, 98512, Note_on_c, 0, 60, 55
1, 98565, Note_off_c, 0, 60, 53
1, 98571, Note_off_c, 0, 67, 62
1, 98595, Note_on_c, 0, 64, 59
1, 98602, Note_on_c, 0, 48, 49
1, 98650, Note_off_c, 0, 48, 59
1, 98685, Note_on_c, 0, 60, 58
1, 98720, Note_off_c, 0, 64, 61
1, 98746, Note_off_c, 0, 60, 44
1, 98775, Note_on_c, 0, 61, 91
1, 98777, Note_on_c, 0, 58, 68
1, 98783, Note_on_c, 0, 48, 55
1, 98825, Note_off_c, 0, 48, 66
1, 99040, Note_on_c, 0, 48, 59
1, 99091, Note_off_c, 0, 48, 64
1, 99109, Note_off_c, 0, 61, 58
1, 99119, Note_on_c, 0, 60, 69
1, 99171, Note_off_c, 0, 60, 59
1, 99188, Note_off_c, 0, 58, 56
1, 99195, Note_on_c, 0, 65, 70
1, 99197, Note_on_c, 0, 56, 52
1, 99208, Note_on_c, 0, 48, 53
1, 99217, Note_off_c, 0, 65, 70
1, 99255, Note_off_c, 0, 48, 58
1, 99258, Control_c, 0, 67, 114
1, 99265, Note_off_c, 0, 56, 66
1, 99273, Control_c, 0, 67, 94
1, 99288, Control_c, 0, 67, 70
1, 99291, Note_on_c, 0, 60, 56
1, 99303, Control_c, 0, 67, 45
1, 99318, Control_c, 0, 67, 23
1, 99332, Control_c, 0, 67, 15
1, 99347, Control_c, 0, 67, 12
1, 99362, Control_c, 0, 67, 10
1, 99377, Control_c, 0, 67, 0
1, 99389, Note_on_c, 0, 48, 53
1, 99389, Note_off_c, 0, 60, 61
1, 99395, Note_on_c, 0, 85, 70
1, 99469, Note_off_c, 0, 48, 56
1, 99490, Note_on_c, 0, 60, 47
1, 99581, Note_on_c, 0, 84, 73
1, 99584, Note_on_c, 0, 48, 49
1, 99597, Note_off_c, 0, 60, 58
1, 99633, Note_off_c, 0, 85, 61
1, 99670, Note_off_c, 0, 48, 49
1, 99690, Note_on_c, 0, 60, 52
1, 99773, Note_off_c, 0, 60, 61
1, 99776, Note_on_c, 0, 82, 73
1, 99785, Note_on_c, 0, 48, 52
1, 99858, Note_off_c, 0, 48, 60
1, 99876, Note_on_c, 0, 60, 51
1, 99954, Note_off_c, 0, 60, 57
1, 99964, Note_on_c, 0, 79, 72
1, 99968, Note_on_c, 0, 48, 51
1, 99986, Note_off_c, 0, 84, 53
1, 100025, Note_off_c, 0, 48, 58
1, 100052, Note_on_c, 0, 60, 53
1, 100077, Note_off_c, 0, 82, 36
1, 100124, Note_off_c, 0, 60, 51
1, 100134, Note_off_c, 0, 79, 63
1, 100140, Note_on_c, 0, 48, 56
1, 100144, Note_on_c, 0, 76, 67
1, 100194, Note_off_c, 0, 48, 58
1, 100222, Note_on_c, 0, 60, 58
1, 100285, Note_off_c, 0, 76, 56
1, 100322, Note_off_c, 0, 60, 54
1, 100325, Note_on_c, 0, 73, 84
1, 100327, Note_on_c, 0, 58, 73
1, 100340, Note_on_c, 0, 48, 58
1, 100399, Note_off_c, 0, 48, 65
1, 100548, Note_on_c, 0, 48, 66
1, 100587, Note_off_c, 0, 48, 62
1, 100643, Note_on_c, 0, 72, 63
1, 100645, Note_off_c, 0, 73, 63
1, 100691, Note_off_c, 0, 72, 54
1, 100705, Note_on_c, 0, 77, 66
1, 100710, Note_on_c, 0, 56, 59
1, 100716, Note_off_c, 0, 58, 56
1, 100721, Note_on_c, 0, 48, 36
1, 100730, Note_off_c, 0, 77, 67
1, 100772, Note_off_c, 0, 48, 50
1, 100786, Note_off_c, 0, 56, 65
1, 100799, Note_on_c, 0, 60, 60
1, 100888, Note_off_c, 0, 60, 56
1, 100891, Note_on_c, 0, 48, 58
1, 100909, Note_on_c, 0, 85, 69
1, 100982, Note_on_c, 0, 60, 59
1, 100986, Note_off_c, 0, 48, 60
1, 101092, Note_off_c, 0, 60, 64
1, 101097, Note_on_c, 0, 48, 66
1, 101097, Note_on_c, 0, 84, 69
1, 101149, Note_off_c, 0, 85, 64
1, 101188, Note_on_c, 0, 60, 59
1, 101191, Note_off_c, 0, 48, 64
1, 101273, Note_on_c, 0, 48, 60
1, 101279, Note_off_c, 0, 60, 62
1, 101282, Note_on_c, 0, 82, 75
1, 101347, Note_off_c, 0, 48, 61
1, 101370, Note_on_c, 0, 60, 58
1, 101449, Note_off_c, 0, 84, 59
1, 101461, Note_off_c, 0, 60, 63
1, 101464, Note_on_c, 0, 79, 62
1, 101469, Note_on_c, 0, 58, 59
1, 101517, Note_off_c, 0, 82, 61
1, 101528, Note_off_c, 0, 58, 59
1, 101568, Note_on_c, 0, 60, 49
1, 101625, Note_off_c, 0, 60, 60
1, 101645, Note_off_c, 0, 79, 62
1, 101656, Note_on_c, 0, 58, 49
1, 101669, Note_on_c, 0, 76, 53
1, 101706, Note_off_c, 0, 58, 61
1, 101727, Note_off_c, 0, 76, 53
1, 101739, Note_on_c, 0, 60, 50
1, 101818, Note_off_c, 0, 60, 59
1, 101843, Note_on_c, 0, 56, 58
1, 101931, Note_off_c, 0, 56, 63
1, 101939, Note_on_c, 0, 76, 58
1, 101951, Note_on_c, 0, 65, 47
1, 101996, Note_off_c, 0, 76, 58
1, 102010, Note_off_c, 0, 65, 59
1, 102012, Note_on_c, 0, 79, 65
1, 102027, Note_on_c, 0, 60, 53
1, 102093, Note_off_c, 0, 60, 62
1, 102098, Note_off_c, 0, 79, 61
1, 102113, Note_on_c, 0, 77, 62
1, 102121, Note_on_c, 0, 65, 63
1, 102135, Note_off_c, 0, 77, 62
1, 102177, Note_off_c, 0, 65, 60
1, 102205, Note_on_c, 0, 55, 69
1, 102271, Note_off_c, 0, 55, 60
1, 102290, Note_on_c, 0, 64, 57
1, 102304, Note_on_c, 0, 77, 62
1, 102370, Note_off_c, 0, 77, 59
1, 102378, Note_on_c, 0, 80, 67
1, 102378, Note_off_c, 0, 64, 59
1, 102379, Note_on_c, 0, 58, 66
1, 102449, Note_off_c, 0, 58, 62
1, 102455, Note_on_c, 0, 79, 69
1, 102455, Note_off_c, 0, 80, 62
1, 102458, Note_on_c, 0, 64, 64
1, 102487, Note_off_c, 0, 79, 62
1, 102522, Note_off_c, 0, 64, 61
1, 102540, Note_on_c, 0, 53, 79
1, 102619, Note_off_c, 0, 53, 61
1, 102628, Note_on_c, 0, 79, 68
1, 102630, Note_on_c, 0, 60, 65
1, 102713, Note_off_c, 0, 60, 63
1, 102714, Note_on_c, 0, 56, 68
1, 102714, Note_off_c, 0, 79, 60
1, 102715, Note_on_c, 0, 82, 69
1, 102775, Note_off_c, 0, 56, 65
1, 102794, Note_on_c, 0, 80, 79
1, 102799, Note_off_c, 0, 82, 64
1, 102807, Note_on_c, 0, 60, 63
1, 102817, Note_off_c, 0, 80, 66
1, 102893, Note_on_c, 0, 49, 82
1, 102895, Note_off_c, 0, 60, 39
1, 103012, Note_on_c, 0, 59, 67
1, 103014, Note_on_c, 0, 83, 78
1, 103089, Note_off_c, 0, 59, 62
1, 103094, Note_on_c, 0, 53, 65
1, 103094, Note_off_c, 0, 83, 61
1, 103106, Note_on_c, 0, 89, 80
1, 103115, Note_off_c, 0, 49, 64
1, 103169, Note_on_c, 0, 59, 62
1, 103169, Note_off_c, 0, 53, 64
1, 103186, Note_on_c, 0, 83, 69
1, 103195, Note_off_c, 0, 89, 64
1, 103237, Note_off_c, 0, 59, 54
1, 103263, Note_on_c, 0, 48, 61
1, 103280, Note_on_c, 0, 84, 72
1, 103282, Note_off_c, 0, 83, 63
1, 103353, Note_on_c, 0, 60, 64
1, 103438, Note_on_c, 0, 52, 76
1, 103440, Note_off_c, 0, 60, 65
1, 103440, Note_off_c, 0, 48, 50
1, 103498, Note_off_c, 0, 84, 63
1, 103526, Note_on_c, 0, 60, 68
1, 103541, Note_off_c, 0, 52, 65
1, 103605, Note_off_c, 0, 60, 62
1, 103631, Note_on_c, 0, 49, 88
1, 103723, Note_on_c, 0, 83, 86
1, 103735, Note_on_c, 0, 59, 70
1, 103775, Note_off_c, 0, 49, 63
1, 103813, Note_off_c, 0, 59, 62
1, 103815, Note_on_c, 0, 53, 72
1, 103817, Note_on_c, 0, 89, 90
1, 103821, Note_off_c, 0, 83, 67
1, 103890, Note_on_c, 0, 59, 66
1, 103896, Note_on_c, 0, 83, 80
1, 103896, Note_off_c, 0, 53, 65
1, 103914, Note_off_c, 0, 89, 66
1, 103956, Note_off_c, 0, 59, 62
1, 103982, Note_on_c, 0, 48, 68
1, 103987, Note_on_c, 0, 84, 84
1, 103996, Note_off_c, 0, 83, 64
1, 104080, Note_off_c, 0, 48, 63
1, 104087, Note_on_c, 0, 60, 67
1, 104121, Control_c, 0, 64, 17
1, 104128, Note_off_c, 0, 84, 62
1, 104136, Control_c, 0, 64, 30
1, 104151, Control_c, 0, 64, 38
1, 104155, Note_off_c, 0, 60, 65
1, 104165, Control_c, 0, 64, 46
1, 104167, Note_on_c, 0, 52, 75
1, 104180, Control_c, 0, 64, 50
1, 104195, Control_c, 0, 64, 50
1, 104254, Control_c, 0, 64, 50
1, 104255, Note_on_c, 0, 60, 69
1, 104258, Note_off_c, 0, 52, 67
1, 104276, Note_off_c, 0, 60, 71
1, 104307, Control_c, 0, 64, 49
1, 104321, Control_c, 0, 64, 48
1, 104336, Control_c, 0, 64, 47
1, 104351, Control_c, 0, 64, 45
1, 104357, Note_on_c, 0, 46, 90
1, 104365, Control_c, 0, 64, 38
1, 104380, Control_c, 0, 64, 24
1, 104395, Control_c, 0, 64, 0
1, 104429, Note_on_c, 0, 76, 75
1, 104452, Note_on_c, 0, 55, 68
1, 104499, Note_off_c, 0, 46, 62
1, 104513, Note_off_c, 0, 76, 62
1, 104526, Note_on_c, 0, 49, 82
1, 104535, Note_off_c, 0, 55, 65
1, 104539, Note_on_c, 0, 85, 76
1, 104609, Note_on_c, 0, 55, 61
1, 104614, Note_off_c, 0, 49, 64
1, 104614, Note_off_c, 0, 85, 63
1, 104617, Note_on_c, 0, 76, 80
1, 104662, Note_off_c, 0, 55, 56
1, 104694, Note_off_c, 0, 76, 64
1, 104705, Note_on_c, 0, 44, 71
1, 104710, Note_on_c, 0, 77, 78
1, 104797, Note_on_c, 0, 53, 75
1, 104832, Note_off_c, 0, 44, 57
1, 104859, Note_off_c, 0, 77, 62
1, 104884, Note_on_c, 0, 48, 74
1, 104894, Note_off_c, 0, 53, 64
1, 104972, Note_on_c, 0, 53, 72
1, 104972, Note_off_c, 0, 48, 65
1, 105049, Note_off_c, 0, 53, 64
1, 105066, Note_on_c, 0, 46, 84
1, 105154, Note_on_c, 0, 55, 71
1, 105156, Note_on_c, 0, 76, 69
1, 105171, Note_off_c, 0, 46, 63
1, 105234, Note_off_c, 0, 76, 60
1, 105236, Note_off_c, 0, 55, 61
1, 105240, Note_on_c, 0, 49, 69
1, 105255, Note_on_c, 0, 85, 62
1, 105318, Note_off_c, 0, 49, 63
1, 105328, Note_off_c, 0, 85, 62
1, 105336, Note_on_c, 0, 55, 62
1, 105339, Note_on_c, 0, 76, 64
1, 105359, Note_off_c, 0, 76, 69
1, 105397, Note_off_c, 0, 55, 55
1, 105419, Note_on_c, 0, 44, 66
1, 105504, Note_off_c, 0, 44, 58
1, 105523, Note_on_c, 0, 53, 59
1, 105533, Note_on_c, 0, 76, 63
1, 105587, Note_off_c, 0, 76, 60
1, 105598, Note_on_c, 0, 79, 70
1, 105609, Note_off_c, 0, 53, 62
1, 105611, Note_on_c, 0, 48, 58
1, 105658, Note_off_c, 0, 48, 64
1, 105670, Note_off_c, 0, 79, 57
1, 105688, Note_on_c, 0, 77, 72
1, 105699, Note_on_c, 0, 53, 58
1, 105708, Note_off_c, 0, 77, 68
1, 105731, Note_off_c, 0, 53, 64
1, 105773, Note_on_c, 0, 40, 85
1, 105873, Note_on_c, 0, 52, 79
1, 105874, Note_off_c, 0, 40, 62
1, 105881, Note_on_c, 0, 77, 79
1, 105943, Note_off_c, 0, 52, 64
1, 105954, Note_on_c, 0, 48, 70
1, 105961, Note_on_c, 0, 80, 76
1, 105961, Note_off_c, 0, 77, 61
1, 106036, Note_on_c, 0, 52, 77
1, 106036, Note_on_c, 0, 79, 82
1, 106045, Note_off_c, 0, 48, 62
1, 106047, Note_off_c, 0, 80, 62
1, 106066, Note_off_c, 0, 79, 64
1, 106112, Note_off_c, 0, 52, 65
1, 106131, Note_on_c, 0, 41, 86
1, 106218, Note_on_c, 0, 53, 77
1, 106222, Note_off_c, 0, 41, 62
1, 106248, Note_on_c, 0, 79, 78
1, 106307, Note_on_c, 0, 48, 79
1, 106315, Note_off_c, 0, 53, 64
1, 106325, Note_off_c, 0, 79, 60
1, 106332, Note_on_c, 0, 82, 64
1, 106391, Note_off_c, 0, 48, 66
1, 106391, Note_on_c, 0, 53, 80
1, 106403, Note_on_c, 0, 80, 68
1, 106405, Note_off_c, 0, 82, 64
1, 106430, Note_off_c, 0, 80, 67
1, 106459, Note_off_c, 0, 53, 64
1, 106476, Note_on_c, 0, 43, 99
1, 106567, Note_off_c, 0, 43, 59
1, 106578, Note_on_c, 0, 55, 79
1, 106588, Note_on_c, 0, 81, 86
1, 106654, Note_off_c, 0, 55, 64
1, 106658, Note_on_c, 0, 48, 72
1, 106674, Note_on_c, 0, 84, 78
1, 106675, Note_off_c, 0, 81, 63
1, 106741, Note_on_c, 0, 55, 72
1, 106751, Note_on_c, 0, 82, 82
1, 106751, Note_off_c, 0, 84, 63
1, 106759, Note_off_c, 0, 48, 61
1, 106774, Note_off_c, 0, 82, 68
1, 106815, Note_off_c, 0, 55, 63
1, 106838, Note_on_c, 0, 44, 92
1, 106878, Control_c, 0, 64, 13
1, 106893, Control_c, 0, 64, 31
1, 106907, Control_c, 0, 64, 42
1, 106922, Control_c, 0, 64, 51
1, 106937, Control_c, 0, 64, 55
1, 106949, Note_off_c, 0, 44, 60
1, 106966, Note_on_c, 0, 84, 84
1, 107026, Control_c, 0, 64, 54
1, 107041, Control_c, 0, 64, 51
1, 107056, Control_c, 0, 64, 45
1, 107071, Control_c, 0, 64, 31
1, 107072, Note_on_c, 0, 48, 94
1, 107077, Note_on_c, 0, 89, 89
1, 107085, Control_c, 0, 64, 0
1, 107091, Note_off_c, 0, 84, 58
1, 107176, Note_on_c, 0, 87, 84
1, 107205, Note_off_c, 0, 89, 66
1, 107264, Note_on_c, 0, 85, 90
1, 107300, Note_off_c, 0, 87, 65
1, 107354, Note_on_c, 0, 84, 85
1, 107362, Note_off_c, 0, 85, 65
1, 107422, Note_off_c, 0, 48, 64
1, 107443, Note_on_c, 0, 53, 87
1, 107453, Note_on_c, 0, 82, 84
1, 107460, Note_off_c, 0, 84, 59
1, 107536, Note_on_c, 0, 80, 87
1, 107546, Note_off_c, 0, 53, 56
1, 107576, Note_off_c, 0, 82, 57
1, 107613, Note_on_c, 0, 46, 95
1, 107627, Note_on_c, 0, 79, 88
1, 107649, Note_off_c, 0, 80, 62
1, 107708, Note_off_c, 0, 79, 63
1, 107716, Note_on_c, 0, 77, 87
1, 107723, Note_off_c, 0, 46, 59
1, 107811, Note_on_c, 0, 75, 85
1, 107812, Note_on_c, 0, 49, 99
1, 107821, Note_off_c, 0, 77, 59
1, 107900, Note_on_c, 0, 73, 85
1, 107931, Note_off_c, 0, 75, 62
1, 107982, Note_off_c, 0, 73, 66
1, 107986, Note_on_c, 0, 72, 82
1, 108088, Note_on_c, 0, 70, 86
1, 108097, Note_off_c, 0, 72, 64
1, 108173, Note_on_c, 0, 68, 87
1, 108182, Note_on_c, 0, 55, 88
1, 108208, Note_off_c, 0, 49, 62
1, 108224, Note_off_c, 0, 70, 61
1, 108263, Note_on_c, 0, 67, 89
1, 108296, Note_off_c, 0, 68, 57
1, 108333, Note_off_c, 0, 55, 62
1, 108357, Note_on_c, 0, 48, 91
1, 108357, Note_on_c, 0, 65, 91
1, 108363, Note_off_c, 0, 67, 59
1, 108427, Note_off_c, 0, 65, 0
1, 108458, Note_on_c, 0, 64, 84
1, 108475, Poly_aftertouch_c, 0, 65, 0
1, 108514, Note_off_c, 0, 48, 64
1, 108546, Note_on_c, 0, 53, 94
1, 108554, Note_on_c, 0, 61, 89
1, 108562, Note_off_c, 0, 64, 64
1, 108639, Note_on_c, 0, 60, 88
1, 108647, Note_off_c, 0, 61, 65
1, 108692, Note_off_c, 0, 60, 65
1, 108725, Note_on_c, 0, 60, 53
1, 108728, Note_on_c, 0, 59, 90
1, 108743, Note_off_c, 0, 60, 68
1, 108819, Note_on_c, 0, 60, 83
1, 108829, Note_off_c, 0, 59, 63
1, 108915, Note_on_c, 0, 56, 81
1, 108919, Note_on_c, 0, 59, 84
1, 108921, Note_off_c, 0, 60, 66
1, 108949, Note_off_c, 0, 53, 63
1, 109002, Note_off_c, 0, 59, 57
1, 109007, Note_on_c, 0, 60, 78
1, 109083, Note_off_c, 0, 60, 62
1, 109095, Note_off_c, 0, 56, 64
1, 109112, Note_on_c, 0, 59, 67
1, 109115, Note_on_c, 0, 58, 60
1, 109196, Note_off_c, 0, 59, 61
1, 109208, Note_on_c, 0, 60, 68
1, 109214, Control_c, 0, 67, 8
1, 109229, Control_c, 0, 67, 10
1, 109244, Control_c, 0, 67, 11
1, 109259, Control_c, 0, 67, 12
1, 109282, Note_off_c, 0, 60, 61
1, 109288, Control_c, 0, 67, 13
1, 109305, Note_on_c, 0, 55, 51
1, 109308, Note_on_c, 0, 61, 60
1, 109324, Note_off_c, 0, 58, 56
1, 109383, Note_off_c, 0, 61, 62
1, 109394, Note_on_c, 0, 60, 67
1, 109407, Control_c, 0, 67, 12
1, 109422, Control_c, 0, 67, 11
1, 109436, Control_c, 0, 67, 10
1, 109439, Note_off_c, 0, 60, 65
1, 109451, Control_c, 0, 67, 8
1, 109466, Control_c, 0, 67, 0
1, 109473, Note_off_c, 0, 55, 63
1, 109479, Note_on_c, 0, 52, 66
1, 109480, Note_on_c, 0, 59, 61
1, 109546, Note_off_c, 0, 59, 50
1, 109571, Note_on_c, 0, 60, 67
1, 109634, Note_off_c, 0, 60, 52
1, 109662, Note_on_c, 0, 61, 67
1, 109670, Note_on_c, 0, 46, 65
1, 109682, Note_off_c, 0, 52, 63
1, 109732, Note_off_c, 0, 61, 63
1, 109735, Note_off_c, 0, 46, 65
1, 109744, Note_on_c, 0, 60, 76
1, 109777, Note_off_c, 0, 60, 64
1, 109858, Note_on_c, 0, 44, 94
1, 109991, Note_on_c, 0, 84, 76
1, 110033, Note_off_c, 0, 44, 60
1, 110083, Note_on_c, 0, 48, 93
1, 110092, Note_on_c, 0, 89, 89
1, 110106, Note_off_c, 0, 84, 63
1, 110193, Note_on_c, 0, 87, 85
1, 110230, Note_off_c, 0, 89, 64
1, 110293, Note_on_c, 0, 85, 86
1, 110320, Note_off_c, 0, 87, 63
1, 110373, Note_on_c, 0, 84, 88
1, 110379, Note_off_c, 0, 85, 64
1, 110455, Note_off_c, 0, 48, 62
1, 110459, Note_on_c, 0, 53, 90
1, 110475, Note_on_c, 0, 82, 87
1, 110482, Note_off_c, 0, 84, 62
1, 110556, Note_on_c, 0, 80, 88
1, 110561, Note_off_c, 0, 53, 57
1, 110600, Note_off_c, 0, 82, 61
1, 110640, Note_on_c, 0, 46, 97
1, 110647, Note_on_c, 0, 79, 85
1, 110670, Note_off_c, 0, 80, 62
1, 110732, Note_off_c, 0, 79, 62
1, 110734, Note_off_c, 0, 46, 59
1, 110740, Note_on_c, 0, 77, 87
1, 110831, Note_on_c, 0, 49, 99
1, 110839, Note_on_c, 0, 75, 87
1, 110854, Note_off_c, 0, 77, 61
1, 110931, Note_on_c, 0, 73, 84
1, 110958, Note_off_c, 0, 75, 60
1, 111015, Note_on_c, 0, 72, 82
1, 111017, Note_off_c, 0, 73, 65
1, 111114, Note_on_c, 0, 70, 86
1, 111122, Note_off_c, 0, 72, 64
1, 111202, Note_on_c, 0, 68, 82
1, 111212, Note_on_c, 0, 55, 83
1, 111224, Note_off_c, 0, 49, 64
1, 111262, Note_off_c, 0, 70, 61
1, 111291, Note_on_c, 0, 67, 87
1, 111318, Note_off_c, 0, 68, 60
1, 111353, Note_off_c, 0, 55, 65
1, 111373, Note_off_c, 0, 67, 60
1, 111383, Note_on_c, 0, 65, 84
1, 111389, Note_on_c, 0, 48, 91
1, 111432, Note_off_c, 0, 65, 64
1, 111475, Note_on_c, 0, 64, 83
1, 111534, Note_off_c, 0, 48, 65
1, 111575, Note_on_c, 0, 61, 83
1, 111579, Note_off_c, 0, 64, 64
1, 111584, Note_on_c, 0, 53, 96
1, 111593, Note_on_c, 0, 54, 47
1, 111594, Note_off_c, 0, 54, 127
1, 111667, Note_off_c, 0, 61, 64
1, 111679, Note_on_c, 0, 60, 81
1, 111759, Note_on_c, 0, 59, 81
1, 111784, Note_off_c, 0, 60, 64
1, 111856, Note_on_c, 0, 60, 83
1, 111864, Note_off_c, 0, 59, 62
1, 111956, Note_on_c, 0, 56, 84
1, 111957, Note_on_c, 0, 59, 86
1, 111970, Note_off_c, 0, 60, 63
1, 112006, Note_off_c, 0, 53, 64
1, 112052, Note_on_c, 0, 60, 86
1, 112058, Note_off_c, 0, 59, 63
1, 112084, Note_off_c, 0, 56, 66
1, 112144, Note_on_c, 0, 59, 85
1, 112147, Note_off_c, 0, 60, 65
1, 112241, Note_on_c, 0, 60, 84
1, 112247, Note_off_c, 0, 59, 63
1, 112323, Note_on_c, 0, 61, 84
1, 112334, Note_on_c, 0, 36, 80
1, 112341, Note_off_c, 0, 60, 64
1, 112368, Note_off_c, 0, 36, 67
1, 112419, Note_on_c, 0, 60, 81
1, 112423, Note_off_c, 0, 61, 63
1, 112466, Note_off_c, 0, 60, 64
1, 112517, Note_on_c, 0, 60, 72
1, 112529, Note_on_c, 0, 36, 80
1, 112567, Note_off_c, 0, 36, 64
1, 112618, Note_on_c, 0, 58, 78
1, 112620, Note_off_c, 0, 60, 63
1, 112710, Note_on_c, 0, 36, 71
1, 112712, Note_on_c, 0, 56, 80
1, 112717, Note_off_c, 0, 58, 58
1, 112737, Note_off_c, 0, 36, 65
1, 112771, Note_off_c, 0, 56, 65
1, 112792, Note_on_c, 0, 55, 77
1, 112821, Note_off_c, 0, 55, 67
1, 112824, Control_c, 0, 67, 8
1, 112839, Control_c, 0, 67, 12
1, 112855, Control_c, 0, 67, 15
1, 112869, Control_c, 0, 67, 22
1, 112884, Control_c, 0, 67, 40
1, 112899, Control_c, 0, 67, 69
1, 112907, Note_on_c, 0, 41, 63
1, 112907, Note_on_c, 0, 53, 70
1, 112914, Control_c, 0, 67, 113
1, 112928, Control_c, 0, 67, 127
1, 112936, Note_off_c, 0, 41, 66
1, 113024, Note_off_c, 0, 53, 66
1, 113137, Note_on_c, 0, 53, 47
1, 113274, Note_off_c, 0, 53, 65
1, 113408, Note_on_c, 0, 68, 61
1, 113632, Note_on_c, 0, 59, 55
1, 113634, Note_on_c, 0, 56, 41
1, 113635, Note_on_c, 0, 49, 44
1, 113649, Note_on_c, 0, 53, 18
1, 113656, Note_off_c, 0, 59, 63
1, 113664, Note_off_c, 0, 56, 50
1, 113666, Note_off_c, 0, 49, 54
1, 113692, Note_off_c, 0, 53, 47
1, 113705, Note_on_c, 0, 67, 67
1, 113719, Note_off_c, 0, 68, 57
1, 113769, Note_off_c, 0, 67, 61
1, 113807, Note_on_c, 0, 65, 58
1, 114011, Note_on_c, 0, 53, 50
1, 114011, Note_on_c, 0, 60, 64
1, 114012, Note_on_c, 0, 56, 51
1, 114024, Note_on_c, 0, 48, 59
1, 114048, Note_off_c, 0, 60, 68
1, 114052, Note_off_c, 0, 48, 66
1, 114055, Note_off_c, 0, 53, 67
1, 114055, Note_off_c, 0, 56, 66
1, 114099, Control_c, 0, 67, 117
1, 114114, Control_c, 0, 67, 108
1, 114129, Control_c, 0, 67, 97
1, 114144, Control_c, 0, 67, 85
1, 114158, Control_c, 0, 67, 68
1, 114173, Control_c, 0, 67, 46
1, 114188, Control_c, 0, 67, 21
1, 114203, Control_c, 0, 67, 0
1, 114211, Note_off_c, 0, 65, 66
1, 114229, Note_on_c, 0, 64, 51
1, 114431, Note_on_c, 0, 48, 46
1, 114431, Note_on_c, 0, 55, 48
1, 114431, Note_on_c, 0, 58, 53
1, 114457, Note_off_c, 0, 58, 64
1, 114460, Note_off_c, 0, 55, 55
1, 114460, Note_off_c, 0, 48, 53
1, 114518, Note_on_c, 0, 72, 71
1, 114522, Note_off_c, 0, 64, 60
1, 114551, Note_off_c, 0, 72, 62
1, 114617, Note_on_c, 0, 72, 62
1, 114804, Note_off_c, 0, 72, 64
1, 114812, Note_on_c, 0, 53, 64
1, 114819, Note_on_c, 0, 56, 56
1, 114823, Note_on_c, 0, 65, 59
1, 114839, Note_off_c, 0, 53, 67
1, 114845, Note_off_c, 0, 56, 67
1, 114961, Note_off_c, 0, 65, 36
1, 115022, Note_on_c, 0, 68, 60
1, 115238, Note_on_c, 0, 59, 58
1, 115240, Note_on_c, 0, 56, 56
1, 115247, Note_on_c, 0, 49, 48
1, 115253, Note_on_c, 0, 53, 37
1, 115266, Note_off_c, 0, 56, 67
1, 115266, Note_off_c, 0, 59, 65
1, 115274, Note_off_c, 0, 49, 58
1, 115286, Note_off_c, 0, 53, 51
1, 115322, Note_on_c, 0, 67, 70
1, 115363, Note_off_c, 0, 68, 58
1, 115407, Note_off_c, 0, 67, 61
1, 115426, Note_on_c, 0, 65, 60
1, 115629, Note_on_c, 0, 60, 66
1, 115633, Note_on_c, 0, 56, 57
1, 115636, Note_on_c, 0, 53, 54
1, 115642, Note_on_c, 0, 48, 41
1, 115647, Note_off_c, 0, 60, 67
1, 115655, Note_off_c, 0, 56, 63
1, 115660, Note_off_c, 0, 53, 60
1, 115674, Note_off_c, 0, 48, 56
1, 115818, Note_off_c, 0, 65, 66
1, 115823, Note_on_c, 0, 64, 68
1, 116019, Note_on_c, 0, 58, 64
1, 116022, Note_on_c, 0, 48, 55
1, 116037, Note_on_c, 0, 55, 31
1, 116049, Note_off_c, 0, 48, 60
1, 116050, Note_off_c, 0, 58, 65
1, 116076, Note_off_c, 0, 55, 30
1, 116076, Note_off_c, 0, 64, 56
1, 116113, Note_on_c, 0, 72, 75
1, 116144, Note_off_c, 0, 72, 62
1, 116192, Note_on_c, 0, 72, 75
1, 116374, Note_off_c, 0, 72, 63
1, 116390, Note_on_c, 0, 56, 69
1, 116394, Note_on_c, 0, 65, 75
1, 116396, Note_on_c, 0, 53, 61
1, 116416, Note_off_c, 0, 56, 67
1, 116424, Note_off_c, 0, 53, 67
1, 116424, Note_off_c, 0, 65, 65
1, 116562, Note_on_c, 0, 71, 78
1, 116605, Note_on_c, 0, 80, 93
1, 116654, Note_off_c, 0, 71, 65
1, 116845, Note_on_c, 0, 71, 91
1, 116848, Note_on_c, 0, 61, 77
1, 116849, Note_on_c, 0, 68, 80
1, 116850, Note_on_c, 0, 65, 72
1, 116878, Note_off_c, 0, 65, 69
1, 116883, Note_off_c, 0, 61, 67
1, 116885, Note_off_c, 0, 71, 68
1, 116889, Note_off_c, 0, 68, 60
1, 116935, Note_on_c, 0, 79, 89
1, 117020, Note_off_c, 0, 80, 37
1, 117025, Note_on_c, 0, 77, 102
1, 117049, Note_off_c, 0, 79, 62
1, 117210, Note_on_c, 0, 72, 95
1, 117212, Note_on_c, 0, 60, 84
1, 117212, Note_on_c, 0, 68, 86
1, 117216, Note_on_c, 0, 65, 77
1, 117243, Note_off_c, 0, 60, 65
1, 117244, Note_off_c, 0, 72, 66
1, 117246, Note_off_c, 0, 65, 68
1, 117253, Note_off_c, 0, 68, 64
1, 117393, Note_on_c, 0, 76, 104
1, 117402, Note_off_c, 0, 77, 58
1, 117603, Note_on_c, 0, 67, 87
1, 117607, Note_on_c, 0, 58, 79
1, 117619, Note_on_c, 0, 60, 53
1, 117629, Note_off_c, 0, 67, 67
1, 117643, Note_off_c, 0, 60, 60
1, 117650, Note_off_c, 0, 58, 64
1, 117691, Note_on_c, 0, 84, 98
1, 117709, Note_off_c, 0, 76, 65
1, 117793, Note_off_c, 0, 84, 59
1, 117868, Note_on_c, 0, 84, 95
1, 117870, Note_on_c, 0, 72, 88
1, 117871, Note_on_c, 0, 60, 84
1, 117871, Note_on_c, 0, 65, 93
1, 117871, Note_on_c, 0, 75, 86
1, 117874, Note_on_c, 0, 57, 92
1, 118360, Note_off_c, 0, 84, 42
1, 118362, Control_c, 0, 64, 20
1, 118377, Control_c, 0, 64, 37
1, 118392, Control_c, 0, 64, 50
1, 118407, Control_c, 0, 64, 62
1, 118422, Control_c, 0, 64, 66
1, 118437, Control_c, 0, 64, 68
1, 118452, Control_c, 0, 64, 71
1, 118467, Control_c, 0, 64, 74
1, 118481, Control_c, 0, 64, 77
1, 118496, Control_c, 0, 64, 79
1, 118519, Control_c, 0, 64, 80
1, 118520, Note_off_c, 0, 72, 59
1, 118562, Note_off_c, 0, 65, 57
1, 118565, Note_off_c, 0, 57, 55
1, 118666, Control_c, 0, 64, 79
1, 118681, Control_c, 0, 64, 74
1, 118696, Control_c, 0, 64, 62
1, 118710, Note_off_c, 0, 75, 59
1, 118711, Control_c, 0, 64, 43
1, 118726, Control_c, 0, 64, 0
1, 118740, Note_off_c, 0, 60, 60
1, 118744, Note_on_c, 0, 70, 85
1, 118746, Note_on_c, 0, 77, 88
1, 118747, Note_on_c, 0, 65, 87
1, 118749, Note_on_c, 0, 58, 77
1, 118749, Note_on_c, 0, 61, 81
1, 118749, Note_on_c, 0, 73, 63
1, 118785, Control_c, 0, 64, 21
1, 118788, Note_off_c, 0, 61, 66
1, 118798, Note_off_c, 0, 58, 64
1, 118800, Control_c, 0, 64, 53
1, 118801, Note_off_c, 0, 65, 66
1, 118802, Note_off_c, 0, 77, 66
1, 118809, Note_off_c, 0, 70, 64
1, 118811, Note_off_c, 0, 73, 65
1, 118815, Control_c, 0, 64, 75
1, 118830, Control_c, 0, 64, 127
1, 118978, Control_c, 0, 64, 113
1, 118993, Control_c, 0, 64, 90
1, 119008, Control_c, 0, 64, 81
1, 119022, Control_c, 0, 64, 77
1, 119037, Control_c, 0, 64, 73
1, 119052, Control_c, 0, 64, 66
1, 119066, Control_c, 0, 64, 60
1, 119081, Control_c, 0, 64, 52
1, 119096, Control_c, 0, 64, 45
1, 119111, Control_c, 0, 64, 38
1, 119126, Control_c, 0, 64, 25
1, 119140, Control_c, 0, 64, 0
1, 119513, Note_on_c, 0, 65, 74
1, 119513, Note_on_c, 0, 82, 88
1, 119516, Note_on_c, 0, 58, 67
1, 119517, Note_on_c, 0, 70, 82
1, 119519, Note_on_c, 0, 61, 72
1, 119524, Note_on_c, 0, 73, 75
1, 119536, Note_off_c, 0, 65, 70
1, 119544, Note_off_c, 0, 58, 66
1, 119549, Note_off_c, 0, 61, 66
1, 119558, Note_off_c, 0, 82, 66
1, 119560, Note_off_c, 0, 70, 63
1, 119564, Note_off_c, 0, 73, 63
1, 119599, Note_on_c, 0, 82, 92
1, 119601, Note_on_c, 0, 70, 89
1, 119601, Note_on_c, 0, 73, 84
1, 119602, Note_on_c, 0, 63, 97
1, 119602, Note_on_c, 0, 58, 89
1, 119611, Note_on_c, 0, 55, 82
1, 120061, Control_c, 0, 64, 13
1, 120073, Note_off_c, 0, 82, 62
1, 120075, Control_c, 0, 64, 37
1, 120090, Control_c, 0, 64, 53
1, 120105, Control_c, 0, 64, 66
1, 120119, Control_c, 0, 64, 78
1, 120134, Control_c, 0, 64, 87
1, 120149, Control_c, 0, 64, 96
1, 120164, Control_c, 0, 64, 103
1, 120179, Control_c, 0, 64, 104
1, 120217, Note_off_c, 0, 55, 63
1, 120228, Note_off_c, 0, 70, 53
1, 120234, Note_off_c, 0, 63, 52
1, 120312, Control_c, 0, 64, 103
1, 120371, Control_c, 0, 64, 103
1, 120386, Control_c, 0, 64, 100
1, 120401, Control_c, 0, 64, 90
1, 120415, Note_off_c, 0, 73, 63
1, 120416, Control_c, 0, 64, 71
1, 120430, Control_c, 0, 64, 56
1, 120445, Control_c, 0, 64, 0
1, 120448, Note_off_c, 0, 58, 55
1, 120464, Note_on_c, 0, 63, 97
1, 120465, Note_on_c, 0, 68, 87
1, 120466, Note_on_c, 0, 60, 83
1, 120466, Note_on_c, 0, 75, 91
1, 120467, Note_on_c, 0, 72, 87
1, 120467, Note_on_c, 0, 56, 78
1, 120502, Note_off_c, 0, 60, 69
1, 120512, Note_off_c, 0, 63, 65
1, 120514, Note_off_c, 0, 72, 67
1, 120516, Note_off_c, 0, 56, 66
1, 120518, Note_off_c, 0, 68, 60
1, 120525, Note_off_c, 0, 75, 62
1, 120534, Control_c, 0, 64, 42
1, 120549, Control_c, 0, 64, 61
1, 120564, Control_c, 0, 64, 86
1, 120579, Control_c, 0, 64, 100
1, 120637, Control_c, 0, 64, 100
1, 120652, Control_c, 0, 64, 96
1, 120666, Control_c, 0, 64, 88
1, 120681, Control_c, 0, 64, 82
1, 120696, Control_c, 0, 64, 70
1, 120711, Control_c, 0, 64, 59
1, 120726, Control_c, 0, 64, 35
1, 120741, Control_c, 0, 64, 0
1, 121091, Note_on_c, 0, 80, 94
1, 121093, Note_on_c, 0, 61, 100
1, 121093, Note_on_c, 0, 68, 91
1, 121094, Note_on_c, 0, 72, 81
1, 121098, Note_on_c, 0, 53, 82
1, 121113, Note_off_c, 0, 72, 72
1, 121129, Note_off_c, 0, 61, 66
1, 121130, Note_off_c, 0, 80, 67
1, 121134, Note_off_c, 0, 53, 66
1, 121134, Note_off_c, 0, 68, 60
1, 121283, Note_on_c, 0, 61, 90
1, 121287, Note_on_c, 0, 73, 80
1, 121290, Note_on_c, 0, 55, 76
1, 121292, Note_on_c, 0, 67, 77
1, 121292, Note_on_c, 0, 70, 77
1, 121310, Note_off_c, 0, 61, 65
1, 121316, Note_off_c, 0, 70, 69
1, 121316, Note_off_c, 0, 55, 70
1, 121318, Note_off_c, 0, 67, 65
1, 121321, Note_off_c, 0, 73, 63
1, 121474, Control_c, 0, 64, 9
1, 121483, Note_on_c, 0, 52, 104
1, 121483, Note_on_c, 0, 79, 98
1, 121485, Note_on_c, 0, 67, 89
1, 121486, Note_on_c, 0, 70, 97
1, 121486, Note_on_c, 0, 60, 100
1, 121489, Control_c, 0, 64, 15
1, 121509, Note_off_c, 0, 67, 73
1, 121509, Note_off_c, 0, 70, 74
1, 121510, Note_off_c, 0, 79, 60
1, 121511, Note_off_c, 0, 60, 74
1, 121512, Control_c, 0, 64, 13
1, 121515, Note_off_c, 0, 52, 71
1, 121527, Control_c, 0, 64, 11
1, 121541, Control_c, 0, 64, 0
1, 121681, Note_on_c, 0, 60, 96
1, 121682, Note_on_c, 0, 68, 86
1, 121683, Note_on_c, 0, 72, 84
1, 121685, Note_on_c, 0, 53, 86
1, 121686, Note_on_c, 0, 65, 75
1, 121704, Note_off_c, 0, 60, 69
1, 121707, Note_off_c, 0, 65, 73
1, 121710, Note_off_c, 0, 53, 70
1, 121710, Note_off_c, 0, 68, 61
1, 121712, Note_off_c, 0, 72, 60
1, 121865, Note_on_c, 0, 61, 92
1, 121867, Note_on_c, 0, 77, 101
1, 121870, Note_on_c, 0, 49, 86
1, 121870, Note_on_c, 0, 68, 93
1, 121871, Note_on_c, 0, 65, 89
1, 121883, Note_off_c, 0, 61, 71
1, 121893, Note_off_c, 0, 49, 71
1, 121897, Note_off_c, 0, 68, 61
1, 121902, Note_off_c, 0, 65, 65
1, 121927, Note_off_c, 0, 77, 58
1, 122061, Note_on_c, 0, 58, 101
1, 122061, Note_on_c, 0, 77, 100
1, 122062, Note_on_c, 0, 67, 95
1, 122064, Note_on_c, 0, 55, 89
1, 122065, Note_on_c, 0, 65, 97
1, 122066, Note_on_c, 0, 46, 84
1, 122068, Note_on_c, 0, 73, 90
1, 122070, Note_on_c, 0, 49, 77
1, 122085, Note_off_c, 0, 55, 73
1, 122088, Note_off_c, 0, 46, 69
1, 122090, Control_c, 0, 64, 32
1, 122091, Note_off_c, 0, 58, 62
1, 122093, Note_off_c, 0, 77, 66
1, 122095, Note_off_c, 0, 67, 64
1, 122097, Note_off_c, 0, 49, 69
1, 122097, Note_off_c, 0, 65, 70
1, 122104, Note_off_c, 0, 73, 64
1, 122106, Control_c, 0, 64, 60
1, 122121, Control_c, 0, 64, 83
1, 122136, Control_c, 0, 64, 97
1, 122150, Control_c, 0, 64, 91
1, 122165, Control_c, 0, 64, 84
1, 122180, Control_c, 0, 64, 71
1, 122195, Control_c, 0, 64, 59
1, 122209, Control_c, 0, 64, 36
1, 122224, Control_c, 0, 64, 0
1, 122478, Note_on_c, 0, 60, 101
1, 122484, Note_on_c, 0, 76, 92
1, 122485, Note_on_c, 0, 48, 81
1, 122485, Note_on_c, 0, 55, 82
1, 122485, Note_on_c, 0, 67, 86
1, 122485, Note_on_c, 0, 70, 84
1, 122487, Note_on_c, 0, 72, 81
1, 122491, Note_on_c, 0, 52, 77
1, 122500, Note_off_c, 0, 60, 70
1, 122503, Note_off_c, 0, 76, 73
1, 122506, Note_off_c, 0, 48, 70
1, 122506, Note_off_c, 0, 55, 74
1, 122509, Note_off_c, 0, 72, 69
1, 122514, Note_off_c, 0, 52, 70
1, 122514, Control_c, 0, 64, 34
1, 122523, Note_off_c, 0, 67, 64
1, 122525, Note_off_c, 0, 70, 63
1, 122529, Control_c, 0, 64, 65
1, 122544, Control_c, 0, 64, 127
1, 122692, Control_c, 0, 64, 76
1, 122706, Control_c, 0, 64, 54
1, 122721, Control_c, 0, 64, 0
1, 122936, Note_on_c, 0, 77, 99
1, 122937, Note_on_c, 0, 65, 103
1, 122938, Note_on_c, 0, 53, 98
1, 122942, Note_on_c, 0, 68, 90
1, 122943, Note_on_c, 0, 41, 76
1, 122947, Note_on_c, 0, 48, 77
1, 122949, Note_on_c, 0, 72, 79
1, 122950, Note_on_c, 0, 44, 69
1, 122968, Note_off_c, 0, 48, 69
1, 122970, Note_off_c, 0, 72, 70
1, 122970, Note_off_c, 0, 77, 66
1, 122971, Note_off_c, 0, 41, 68
1, 122974, Control_c, 0, 64, 20
1, 122974, Note_off_c, 0, 44, 66
1, 122977, Note_off_c, 0, 65, 67
1, 122979, Note_off_c, 0, 53, 64
1, 122980, Note_off_c, 0, 68, 65
1, 122988, Control_c, 0, 64, 58
1, 123010, Control_c, 0, 64, 127
1, 123218, Control_c, 0, 64, 113
1, 123233, Control_c, 0, 64, 96
1, 123248, Control_c, 0, 64, 86
1, 123263, Control_c, 0, 64, 81
1, 123278, Control_c, 0, 64, 80
1, 123293, Control_c, 0, 64, 80
1, 123308, Control_c, 0, 64, 79
1, 123322, Control_c, 0, 64, 78
1, 123337, Control_c, 0, 64, 77
1, 123352, Control_c, 0, 64, 76
1, 123367, Control_c, 0, 64, 74
1, 123382, Control_c, 0, 64, 69
1, 123397, Control_c, 0, 64, 66
1, 123411, Control_c, 0, 64, 64
1, 123426, Control_c, 0, 64, 63
1, 123441, Control_c, 0, 64, 59
1, 123455, Control_c, 0, 64, 50
1, 123470, Control_c, 0, 64, 32
1, 123485, Control_c, 0, 64, 0
1, 123560, End_track
0, 0, End_of_file
