0, 0, Header, 0, 1, 384
1, 0, Start_track
1, 0, Title_t, "Chasse-neige--David Yoshiaki Ko    "
1, 0, Text_t, "2008 e-Piano Junior Competition virtual audition round"
1, 0, Text_t, "recorded January and February 2008"
1, 0, Text_t, "http://www.piano-e-competition.com/"
1, 0, Text_t, "File processed for distribution by software from Zenph Studios, Inc., http://www.zenph.com"
1, 0, Instrument_name_t, "Yamaha Disklavier Pro Mark IV concert grand piano, model DCFIIISM4PRO"
1, 0, Sequencer_specific, 39, 67, 113, 0, 1, 0, 1, 0, 67, 104, 97, 115, 115, 101, 45, 110, 101, 105, 103, 101, 32, 32, 32, 32, 68, 97, 118, 105, 100, 89, 111, 115, 104, 105, 97, 107, 105, 32, 75, 111
1, 0, Sequencer_specific, 6, 67, 113, 0, 0, 0, 69
1, 0, System_exclusive, 21, 67, 113, 126, 21, 0, 2, 2, 1, 9, 14, 1, 4, 0, 14, 12, 15, 6, 9, 7, 1, 247
1, 0, Sequencer_specific, 5, 67, 123, 12, 2, 1
1, 0, Tempo, 512820
1, 0, Time_signature, 4, 2, 24, 8
1, 0, System_exclusive, 5, 126, 127, 9, 1, 247
1, 1, System_exclusive, 8, 67, 16, 76, 0, 0, 126, 0, 247
1, 2, System_exclusive, 8, 67, 16, 76, 8, 9, 7, 1, 247
1, 3, Control_c, 0, 0, 0
1, 3, Control_c, 1, 0, 0
1, 3, Control_c, 2, 0, 0
1, 3, Control_c, 3, 0, 0
1, 3, Control_c, 4, 0, 0
1, 3, Control_c, 5, 0, 0
1, 3, Control_c, 6, 0, 0
1, 3, Control_c, 7, 0, 0
1, 3, Control_c, 8, 0, 0
1, 3, Control_c, 9, 0, 127
1, 3, Control_c, 10, 0, 0
1, 3, Control_c, 11, 0, 0
1, 3, Control_c, 12, 0, 0
1, 3, Control_c, 13, 0, 0
1, 3, Control_c, 14, 0, 0
1, 3, Control_c, 15, 0, 0
1, 4, Control_c, 0, 32, 0
1, 4, Control_c, 1, 32, 0
1, 4, Control_c, 2, 32, 0
1, 4, Control_c, 3, 32, 0
1, 4, Control_c, 4, 32, 0
1, 4, Control_c, 5, 32, 0
1, 4, Control_c, 6, 32, 0
1, 4, Control_c, 7, 32, 0
1, 4, Control_c, 8, 32, 0
1, 4, Control_c, 9, 32, 0
1, 4, Control_c, 10, 32, 0
1, 4, Control_c, 11, 32, 0
1, 4, Control_c, 12, 32, 0
1, 4, Control_c, 13, 32, 0
1, 4, Control_c, 14, 32, 0
1, 4, Control_c, 15, 32, 0
1, 5, Program_c, 0, 0
1, 5, Program_c, 1, 0
1, 5, Program_c, 2, 0
1, 5, Program_c, 3, 0
1, 5, Program_c, 4, 0
1, 5, Program_c, 5, 0
1, 5, Program_c, 6, 0
1, 5, Program_c, 7, 0
1, 5, Program_c, 8, 0
1, 5, Program_c, 9, 0
1, 5, Program_c, 10, 0
1, 5, Program_c, 11, 0
1, 5, Program_c, 12, 0
1, 5, Program_c, 13, 0
1, 5, Program_c, 14, 0
1, 5, Program_c, 15, 0
1, 6, Control_c, 0, 7, 100
1, 117, Control_c, 0, 64, 15
1, 117, Control_c, 0, 67, 15
1, 229, Control_c, 0, 64, 31
1, 229, Control_c, 0, 67, 31
1, 341, Control_c, 0, 64, 46
1, 341, Control_c, 0, 67, 46
1, 452, Control_c, 0, 64, 63
1, 452, Control_c, 0, 67, 63
1, 564, Control_c, 0, 64, 77
1, 564, Control_c, 0, 67, 77
1, 676, Control_c, 0, 64, 94
1, 676, Control_c, 0, 67, 94
1, 787, Control_c, 0, 64, 108
1, 787, Control_c, 0, 67, 108
1, 899, Control_c, 0, 64, 127
1, 899, Control_c, 0, 67, 127
1, 899, Control_c, 1, 7, 100
1, 899, Control_c, 2, 7, 100
1, 899, Control_c, 3, 7, 100
1, 899, Control_c, 4, 7, 100
1, 899, Control_c, 5, 7, 100
1, 899, Control_c, 6, 7, 100
1, 899, Control_c, 7, 7, 100
1, 899, Control_c, 8, 7, 100
1, 899, Control_c, 9, 7, 100
1, 899, Control_c, 10, 7, 100
1, 899, Control_c, 11, 7, 100
1, 899, Control_c, 12, 7, 100
1, 899, Control_c, 13, 7, 100
1, 899, Control_c, 14, 7, 100
1, 899, Control_c, 15, 7, 100
1, 1140, Note_on_c, 0, 61, 22
1, 1149, Note_on_c, 0, 73, 45
1, 1308, Note_off_c, 0, 61, 43
1, 1344, Note_on_c, 0, 65, 28
1, 1413, Note_off_c, 0, 65, 46
1, 1457, Note_on_c, 0, 61, 31
1, 1522, Note_off_c, 0, 61, 54
1, 1577, Note_on_c, 0, 65, 22
1, 1620, Note_off_c, 0, 65, 47
1, 1672, Note_on_c, 0, 61, 35
1, 1708, Note_off_c, 0, 61, 51
1, 1743, Note_on_c, 0, 65, 32
1, 1787, Note_off_c, 0, 65, 45
1, 1823, Note_on_c, 0, 61, 41
1, 1876, Note_off_c, 0, 61, 57
1, 1883, Note_on_c, 0, 72, 50
1, 1934, Note_on_c, 0, 65, 20
1, 1990, Note_off_c, 0, 65, 42
1, 2053, Note_on_c, 0, 61, 24
1, 2076, Note_off_c, 0, 73, 35
1, 2094, Note_off_c, 0, 61, 49
1, 2127, Note_on_c, 0, 65, 35
1, 2178, Note_off_c, 0, 65, 57
1, 2214, Note_on_c, 0, 61, 37
1, 2261, Note_off_c, 0, 61, 47
1, 2314, Note_on_c, 0, 65, 30
1, 2348, Note_off_c, 0, 65, 50
1, 2349, Note_on_c, 0, 70, 60
1, 2398, Note_on_c, 0, 61, 31
1, 2434, Note_off_c, 0, 61, 50
1, 2463, Note_on_c, 0, 65, 40
1, 2525, Note_off_c, 0, 65, 55
1, 2525, Note_off_c, 0, 72, 54
1, 2553, Note_on_c, 0, 61, 42
1, 2616, Note_off_c, 0, 61, 57
1, 2636, Note_on_c, 0, 65, 43
1, 2688, Note_off_c, 0, 65, 49
1, 2747, Note_on_c, 0, 61, 36
1, 2792, Note_off_c, 0, 61, 47
1, 2816, Note_on_c, 0, 65, 36
1, 2857, Note_on_c, 0, 69, 58
1, 2866, Note_off_c, 0, 65, 45
1, 2955, Note_on_c, 0, 61, 12
1, 2969, Control_c, 0, 64, 101
1, 2984, Control_c, 0, 64, 87
1, 2999, Control_c, 0, 64, 81
1, 3006, Note_off_c, 0, 61, 47
1, 3023, Note_on_c, 0, 65, 41
1, 3029, Control_c, 0, 64, 83
1, 3036, Note_off_c, 0, 70, 36
1, 3043, Control_c, 0, 64, 89
1, 3058, Control_c, 0, 64, 106
1, 3073, Control_c, 0, 64, 127
1, 3090, Note_off_c, 0, 65, 53
1, 3132, Note_on_c, 0, 61, 43
1, 3173, Note_off_c, 0, 61, 60
1, 3218, Note_on_c, 0, 65, 26
1, 3277, Note_off_c, 0, 65, 40
1, 3311, Note_on_c, 0, 61, 23
1, 3421, Note_off_c, 0, 61, 36
1, 3422, Note_on_c, 0, 70, 53
1, 3436, Note_on_c, 0, 65, 40
1, 3466, Control_c, 0, 64, 87
1, 3481, Control_c, 0, 64, 70
1, 3490, Note_off_c, 0, 69, 56
1, 3495, Control_c, 0, 64, 54
1, 3510, Control_c, 0, 64, 41
1, 3524, Note_off_c, 0, 65, 53
1, 3525, Control_c, 0, 64, 45
1, 3540, Control_c, 0, 64, 59
1, 3555, Control_c, 0, 64, 67
1, 3564, Note_on_c, 0, 61, 40
1, 3570, Control_c, 0, 64, 81
1, 3585, Control_c, 0, 64, 127
1, 3629, Note_off_c, 0, 61, 56
1, 3662, Note_on_c, 0, 65, 42
1, 3674, Note_off_c, 0, 70, 59
1, 3707, Note_off_c, 0, 65, 47
1, 3778, Note_on_c, 0, 61, 19
1, 3940, Note_off_c, 0, 61, 44
1, 4074, Note_on_c, 0, 63, 40
1, 4080, Note_on_c, 0, 75, 51
1, 4200, Control_c, 0, 64, 91
1, 4215, Control_c, 0, 64, 70
1, 4230, Control_c, 0, 64, 53
1, 4245, Control_c, 0, 64, 0
1, 4274, Control_c, 0, 64, 29
1, 4289, Control_c, 0, 64, 62
1, 4304, Control_c, 0, 64, 71
1, 4318, Control_c, 0, 64, 84
1, 4331, Note_off_c, 0, 63, 52
1, 4333, Control_c, 0, 64, 110
1, 4348, Control_c, 0, 64, 127
1, 4352, Note_on_c, 0, 66, 36
1, 4446, Note_off_c, 0, 66, 37
1, 4493, Note_on_c, 0, 63, 20
1, 4534, Note_off_c, 0, 63, 53
1, 4555, Note_on_c, 0, 66, 35
1, 4598, Note_off_c, 0, 66, 45
1, 4652, Note_on_c, 0, 63, 21
1, 4690, Note_off_c, 0, 63, 52
1, 4709, Note_on_c, 0, 66, 47
1, 4822, Note_on_c, 0, 59, 45
1, 4842, Note_off_c, 0, 66, 35
1, 4879, Note_on_c, 0, 63, 5
1, 4949, Note_off_c, 0, 63, 43
1, 4983, Note_on_c, 0, 66, 43
1, 5063, Note_off_c, 0, 66, 54
1, 5074, Note_on_c, 0, 63, 42
1, 5146, Note_off_c, 0, 63, 52
1, 5186, Note_off_c, 0, 59, 53
1, 5204, Note_on_c, 0, 66, 35
1, 5238, Note_off_c, 0, 66, 51
1, 5291, Note_on_c, 0, 63, 34
1, 5324, Note_off_c, 0, 63, 52
1, 5355, Note_on_c, 0, 66, 46
1, 5384, Note_on_c, 0, 58, 54
1, 5478, Note_off_c, 0, 66, 36
1, 5504, Note_on_c, 0, 63, 29
1, 5552, Note_off_c, 0, 63, 55
1, 5599, Note_on_c, 0, 66, 43
1, 5648, Note_off_c, 0, 66, 58
1, 5683, Note_on_c, 0, 63, 41
1, 5692, Note_off_c, 0, 58, 36
1, 5727, Note_off_c, 0, 63, 52
1, 5771, Note_on_c, 0, 66, 47
1, 5852, Note_on_c, 0, 57, 55
1, 5904, Note_off_c, 0, 66, 35
1, 5942, Note_on_c, 0, 63, 38
1, 5949, Control_c, 0, 64, 104
1, 5964, Control_c, 0, 64, 90
1, 5978, Control_c, 0, 64, 86
1, 5993, Note_off_c, 0, 63, 44
1, 6008, Control_c, 0, 64, 87
1, 6015, Note_on_c, 0, 66, 44
1, 6023, Control_c, 0, 64, 93
1, 6038, Control_c, 0, 64, 111
1, 6053, Control_c, 0, 64, 127
1, 6067, Note_off_c, 0, 66, 54
1, 6102, Note_on_c, 0, 63, 49
1, 6113, Note_off_c, 0, 57, 60
1, 6139, Note_off_c, 0, 63, 60
1, 6172, Note_on_c, 0, 66, 44
1, 6306, Note_on_c, 0, 58, 60
1, 6405, Note_off_c, 0, 66, 36
1, 6430, Note_on_c, 0, 63, 43
1, 6432, Control_c, 0, 64, 85
1, 6446, Control_c, 0, 64, 67
1, 6461, Control_c, 0, 64, 23
1, 6476, Control_c, 0, 64, 0
1, 6488, Note_off_c, 0, 63, 39
1, 6550, Control_c, 0, 64, 61
1, 6554, Note_on_c, 0, 66, 35
1, 6565, Control_c, 0, 64, 67
1, 6580, Control_c, 0, 64, 72
1, 6594, Control_c, 0, 64, 79
1, 6609, Control_c, 0, 64, 87
1, 6614, Note_off_c, 0, 66, 43
1, 6624, Control_c, 0, 64, 95
1, 6634, Note_on_c, 0, 63, 38
1, 6638, Control_c, 0, 64, 108
1, 6653, Control_c, 0, 64, 127
1, 6730, Note_off_c, 0, 63, 36
1, 6755, Note_on_c, 0, 66, 32
1, 6798, Note_off_c, 0, 58, 34
1, 6870, Note_on_c, 0, 54, 49
1, 6923, Note_off_c, 0, 66, 39
1, 6948, Note_on_c, 0, 63, 31
1, 7001, Note_off_c, 0, 63, 51
1, 7055, Note_on_c, 0, 66, 35
1, 7105, Note_off_c, 0, 66, 45
1, 7132, Note_on_c, 0, 63, 41
1, 7177, Note_off_c, 0, 63, 46
1, 7200, Note_off_c, 0, 54, 37
1, 7231, Note_on_c, 0, 66, 37
1, 7336, Note_on_c, 0, 63, 19
1, 7393, Note_off_c, 0, 66, 29
1, 7474, Note_off_c, 0, 63, 41
1, 7491, Note_on_c, 0, 46, 42
1, 7564, Poly_aftertouch_c, 0, 66, 127
1, 7612, Poly_aftertouch_c, 0, 66, 0
1, 7654, Note_on_c, 0, 63, 30
1, 7690, Note_off_c, 0, 46, 59
1, 7716, Note_off_c, 0, 63, 53
1, 7742, Note_on_c, 0, 66, 42
1, 7791, Note_off_c, 0, 66, 59
1, 7849, Note_on_c, 0, 63, 45
1, 7897, Note_off_c, 0, 63, 57
1, 7901, Note_off_c, 0, 75, 55
1, 7904, Note_on_c, 0, 66, 55
1, 7938, Note_off_c, 0, 66, 62
1, 8017, Note_on_c, 0, 63, 55
1, 8278, Note_on_c, 0, 78, 66
1, 8467, Note_off_c, 0, 63, 37
1, 8504, Note_on_c, 0, 66, 38
1, 8596, Note_off_c, 0, 66, 54
1, 8631, Note_on_c, 0, 63, 38
1, 8681, Note_off_c, 0, 63, 57
1, 8752, Note_on_c, 0, 66, 33
1, 8790, Note_off_c, 0, 78, 51
1, 8801, Note_off_c, 0, 66, 44
1, 8817, Note_on_c, 0, 63, 37
1, 8871, Note_off_c, 0, 63, 53
1, 8922, Note_on_c, 0, 77, 62
1, 8943, Note_on_c, 0, 66, 27
1, 9001, Note_off_c, 0, 66, 43
1, 9043, Note_on_c, 0, 63, 34
1, 9098, Note_off_c, 0, 63, 56
1, 9113, Note_off_c, 0, 77, 59
1, 9127, Note_on_c, 0, 66, 35
1, 9171, Note_off_c, 0, 66, 45
1, 9225, Note_on_c, 0, 63, 45
1, 9263, Note_off_c, 0, 63, 60
1, 9279, Note_on_c, 0, 66, 51
1, 9361, Note_off_c, 0, 66, 53
1, 9375, Note_on_c, 0, 63, 50
1, 9435, Note_on_c, 0, 75, 63
1, 9516, Note_off_c, 0, 63, 0
1, 9544, Poly_aftertouch_c, 0, 63, 0
1, 9558, Note_on_c, 0, 69, 43
1, 9588, Note_off_c, 0, 69, 54
1, 9591, Note_off_c, 0, 75, 59
1, 9609, Note_on_c, 0, 66, 34
1, 9650, Note_off_c, 0, 66, 46
1, 9651, Note_on_c, 0, 63, 53
1, 9689, Note_off_c, 0, 63, 63
1, 9696, Note_on_c, 0, 69, 50
1, 9740, Note_off_c, 0, 69, 57
1, 9758, Note_on_c, 0, 66, 48
1, 9794, Note_on_c, 0, 63, 43
1, 9805, Note_off_c, 0, 66, 56
1, 9839, Note_off_c, 0, 63, 55
1, 9862, Note_on_c, 0, 69, 36
1, 9884, Note_on_c, 0, 73, 63
1, 9916, Note_off_c, 0, 69, 41
1, 10003, Note_on_c, 0, 63, 35
1, 10061, Note_off_c, 0, 63, 56
1, 10086, Note_on_c, 0, 69, 39
1, 10170, Note_off_c, 0, 69, 51
1, 10204, Note_on_c, 0, 63, 41
1, 10238, Note_on_c, 0, 66, 11
1, 10288, Note_off_c, 0, 66, 46
1, 10289, Note_off_c, 0, 63, 50
1, 10290, Note_off_c, 0, 73, 53
1, 10314, Note_on_c, 0, 69, 37
1, 10367, Note_off_c, 0, 69, 44
1, 10419, Note_on_c, 0, 72, 61
1, 10447, Note_on_c, 0, 63, 38
1, 10492, Poly_aftertouch_c, 0, 66, 127
1, 10525, Note_on_c, 0, 69, 42
1, 10550, Note_off_c, 0, 63, 52
1, 10556, Poly_aftertouch_c, 0, 66, 0
1, 10559, Note_off_c, 0, 72, 59
1, 10627, Note_off_c, 0, 69, 52
1, 10683, Note_on_c, 0, 66, 18
1, 10691, Note_on_c, 0, 63, 24
1, 10715, Note_on_c, 0, 69, 28
1, 10730, Note_off_c, 0, 63, 47
1, 10732, Note_off_c, 0, 66, 44
1, 10793, Note_off_c, 0, 69, 49
1, 10802, Note_on_c, 0, 66, 35
1, 10815, Note_on_c, 0, 63, 44
1, 10854, Note_off_c, 0, 66, 59
1, 10915, Note_off_c, 0, 63, 56
1, 11070, Note_on_c, 0, 70, 49
1, 11104, Note_on_c, 0, 61, 37
1, 11191, Control_c, 0, 64, 115
1, 11206, Control_c, 0, 64, 77
1, 11221, Control_c, 0, 64, 61
1, 11235, Control_c, 0, 64, 0
1, 11295, Control_c, 0, 64, 51
1, 11309, Control_c, 0, 64, 66
1, 11324, Control_c, 0, 64, 74
1, 11339, Control_c, 0, 64, 86
1, 11352, Note_on_c, 0, 65, 36
1, 11353, Control_c, 0, 64, 99
1, 11368, Control_c, 0, 64, 116
1, 11382, Note_off_c, 0, 61, 36
1, 11383, Control_c, 0, 64, 127
1, 11447, Note_off_c, 0, 65, 46
1, 11511, Note_on_c, 0, 61, 22
1, 11547, Note_off_c, 0, 61, 51
1, 11644, Poly_aftertouch_c, 0, 65, 127
1, 11657, Note_on_c, 0, 61, 45
1, 11710, Note_off_c, 0, 61, 56
1, 11735, Poly_aftertouch_c, 0, 65, 0
1, 11772, Poly_aftertouch_c, 0, 65, 127
1, 11803, Note_on_c, 0, 54, 47
1, 11868, Poly_aftertouch_c, 0, 65, 0
1, 11928, Note_on_c, 0, 61, 3
1, 11968, Note_off_c, 0, 61, 50
1, 11993, Note_on_c, 0, 65, 29
1, 12045, Note_off_c, 0, 65, 52
1, 12086, Note_off_c, 0, 54, 58
1, 12089, Note_on_c, 0, 61, 36
1, 12139, Note_off_c, 0, 61, 46
1, 12192, Note_on_c, 0, 65, 26
1, 12287, Note_on_c, 0, 53, 54
1, 12291, Note_off_c, 0, 65, 33
1, 12379, Note_on_c, 0, 61, 14
1, 12426, Note_off_c, 0, 61, 50
1, 12447, Note_on_c, 0, 65, 43
1, 12510, Note_off_c, 0, 53, 61
1, 12516, Note_off_c, 0, 65, 53
1, 12538, Note_on_c, 0, 61, 44
1, 12589, Note_off_c, 0, 61, 54
1, 12638, Note_on_c, 0, 65, 40
1, 12686, Note_off_c, 0, 65, 54
1, 12728, Note_on_c, 0, 61, 36
1, 12778, Note_off_c, 0, 61, 46
1, 12780, Note_on_c, 0, 52, 57
1, 12829, Note_on_c, 0, 65, 41
1, 12866, Control_c, 0, 64, 90
1, 12880, Control_c, 0, 64, 71
1, 12895, Control_c, 0, 64, 60
1, 12897, Note_off_c, 0, 65, 50
1, 12910, Control_c, 0, 64, 52
1, 12924, Control_c, 0, 64, 57
1, 12935, Note_on_c, 0, 61, 23
1, 12939, Control_c, 0, 64, 65
1, 12954, Control_c, 0, 64, 76
1, 12969, Control_c, 0, 64, 114
1, 12981, Note_off_c, 0, 61, 48
1, 12984, Control_c, 0, 64, 127
1, 13002, Note_on_c, 0, 65, 44
1, 13025, Note_off_c, 0, 52, 62
1, 13066, Note_off_c, 0, 65, 52
1, 13097, Note_on_c, 0, 61, 45
1, 13142, Note_off_c, 0, 61, 59
1, 13151, Note_on_c, 0, 65, 34
1, 13260, Note_on_c, 0, 53, 56
1, 13352, Note_off_c, 0, 65, 36
1, 13362, Control_c, 0, 64, 91
1, 13377, Control_c, 0, 64, 66
1, 13392, Control_c, 0, 64, 19
1, 13404, Note_on_c, 0, 61, 18
1, 13407, Control_c, 0, 64, 0
1, 13444, Note_off_c, 0, 61, 51
1, 13481, Control_c, 0, 64, 59
1, 13491, Note_on_c, 0, 65, 40
1, 13496, Control_c, 0, 64, 67
1, 13511, Control_c, 0, 64, 75
1, 13526, Control_c, 0, 64, 84
1, 13541, Control_c, 0, 64, 94
1, 13547, Note_off_c, 0, 65, 55
1, 13555, Control_c, 0, 64, 107
1, 13570, Control_c, 0, 64, 127
1, 13579, Note_on_c, 0, 61, 33
1, 13620, Note_off_c, 0, 53, 29
1, 13656, Note_off_c, 0, 61, 40
1, 13697, Note_on_c, 0, 65, 32
1, 13833, Note_on_c, 0, 49, 47
1, 13916, Note_off_c, 0, 65, 37
1, 13961, Note_on_c, 0, 61, 31
1, 14020, Note_off_c, 0, 61, 44
1, 14057, Note_on_c, 0, 65, 38
1, 14087, Note_off_c, 0, 49, 47
1, 14107, Note_off_c, 0, 65, 52
1, 14149, Note_on_c, 0, 61, 34
1, 14247, Note_off_c, 0, 61, 38
1, 14254, Note_on_c, 0, 65, 36
1, 14463, Note_on_c, 0, 46, 41
1, 14531, Note_off_c, 0, 65, 33
1, 14590, Note_on_c, 0, 61, 23
1, 14625, Note_off_c, 0, 46, 59
1, 14644, Note_off_c, 0, 61, 44
1, 14680, Note_on_c, 0, 65, 36
1, 14712, Note_off_c, 0, 65, 52
1, 14757, Note_on_c, 0, 61, 45
1, 14793, Note_off_c, 0, 70, 48
1, 14802, Note_off_c, 0, 61, 62
1, 14816, Note_on_c, 0, 65, 52
1, 14840, Note_off_c, 0, 65, 59
1, 14967, Note_on_c, 0, 65, 46
1, 14973, Note_on_c, 0, 53, 42
1, 15010, Note_off_c, 0, 65, 61
1, 15193, Note_off_c, 0, 53, 35
1, 15255, Note_on_c, 0, 85, 74
1, 15289, Note_on_c, 0, 61, 40
1, 15336, Note_off_c, 0, 85, 62
1, 15432, Note_off_c, 0, 61, 52
1, 15466, Note_on_c, 0, 53, 53
1, 15513, Note_on_c, 0, 65, 51
1, 15523, Note_off_c, 0, 53, 50
1, 15523, Poly_aftertouch_c, 0, 73, 127
1, 15577, Note_on_c, 0, 61, 19
1, 15580, Note_off_c, 0, 65, 53
1, 15595, Poly_aftertouch_c, 0, 53, 127
1, 15604, Poly_aftertouch_c, 0, 53, 0
1, 15671, Poly_aftertouch_c, 0, 73, 0
1, 15683, Control_c, 0, 64, 115
1, 15699, Control_c, 0, 64, 85
1, 15699, Note_on_c, 0, 65, 68
1, 15714, Control_c, 0, 64, 75
1, 15717, Note_on_c, 0, 51, 55
1, 15717, Note_off_c, 0, 61, 40
1, 15729, Control_c, 0, 64, 73
1, 15744, Control_c, 0, 64, 76
1, 15749, Note_off_c, 0, 65, 55
1, 15758, Control_c, 0, 64, 83
1, 15773, Control_c, 0, 64, 100
1, 15788, Control_c, 0, 64, 127
1, 15847, Note_off_c, 0, 51, 53
1, 15853, Note_on_c, 0, 84, 80
1, 15879, Note_on_c, 0, 60, 53
1, 15894, Note_off_c, 0, 84, 57
1, 15970, Note_off_c, 0, 60, 51
1, 16009, Note_on_c, 0, 51, 61
1, 16048, Note_off_c, 0, 51, 61
1, 16064, Note_on_c, 0, 72, 17
1, 16081, Note_on_c, 0, 65, 40
1, 16116, Note_off_c, 0, 65, 54
1, 16119, Note_on_c, 0, 60, 24
1, 16145, Note_on_c, 0, 51, 54
1, 16178, Note_off_c, 0, 51, 53
1, 16179, Note_off_c, 0, 60, 0
1, 16190, Note_on_c, 0, 60, 40
1, 16191, Note_off_c, 0, 72, 59
1, 16213, Note_on_c, 0, 65, 70
1, 16220, Note_off_c, 0, 60, 51
1, 16239, Control_c, 0, 64, 97
1, 16254, Control_c, 0, 64, 68
1, 16268, Control_c, 0, 64, 0
1, 16273, Note_off_c, 0, 65, 62
1, 16283, Note_on_c, 0, 49, 58
1, 16313, Control_c, 0, 64, 36
1, 16328, Control_c, 0, 64, 69
1, 16343, Control_c, 0, 64, 84
1, 16357, Control_c, 0, 64, 127
1, 16368, Note_on_c, 0, 82, 81
1, 16420, Note_off_c, 0, 49, 58
1, 16427, Note_off_c, 0, 82, 59
1, 16449, Note_on_c, 0, 58, 53
1, 16515, Note_off_c, 0, 58, 55
1, 16557, Note_on_c, 0, 70, 9
1, 16567, Note_on_c, 0, 49, 42
1, 16611, Note_off_c, 0, 70, 0
1, 16611, Note_on_c, 0, 70, 5
1, 16617, Note_off_c, 0, 49, 57
1, 16641, Note_on_c, 0, 58, 54
1, 16700, Poly_aftertouch_c, 0, 65, 0
1, 16713, Note_on_c, 0, 65, 34
1, 16766, Note_off_c, 0, 70, 36
1, 16773, Control_c, 0, 64, 104
1, 16788, Control_c, 0, 64, 75
1, 16798, Note_on_c, 0, 48, 56
1, 16803, Control_c, 0, 64, 59
1, 16805, Note_off_c, 0, 58, 36
1, 16811, Note_off_c, 0, 65, 60
1, 16826, Control_c, 0, 64, 45
1, 16841, Control_c, 0, 64, 54
1, 16855, Control_c, 0, 64, 65
1, 16870, Control_c, 0, 64, 78
1, 16871, Note_on_c, 0, 81, 83
1, 16885, Control_c, 0, 64, 127
1, 16922, Note_off_c, 0, 81, 63
1, 16941, Note_off_c, 0, 48, 55
1, 17002, Note_on_c, 0, 57, 45
1, 17043, Note_on_c, 0, 69, 49
1, 17045, Note_off_c, 0, 57, 49
1, 17076, Note_off_c, 0, 69, 45
1, 17088, Note_on_c, 0, 48, 54
1, 17113, Note_on_c, 0, 69, 49
1, 17132, Poly_aftertouch_c, 0, 65, 127
1, 17171, Note_on_c, 0, 57, 45
1, 17172, Poly_aftertouch_c, 0, 65, 0
1, 17181, Note_off_c, 0, 48, 58
1, 17184, Note_off_c, 0, 69, 57
1, 17213, Note_on_c, 0, 65, 47
1, 17279, Note_off_c, 0, 65, 58
1, 17324, Note_off_c, 0, 57, 58
1, 17360, Control_c, 0, 64, 87
1, 17363, Note_on_c, 0, 49, 53
1, 17374, Control_c, 0, 64, 67
1, 17387, Note_on_c, 0, 82, 77
1, 17389, Control_c, 0, 64, 51
1, 17404, Control_c, 0, 64, 52
1, 17419, Control_c, 0, 64, 63
1, 17434, Control_c, 0, 64, 72
1, 17449, Control_c, 0, 64, 94
1, 17464, Control_c, 0, 64, 127
1, 17467, Note_off_c, 0, 82, 60
1, 17498, Note_off_c, 0, 49, 60
1, 17541, Note_on_c, 0, 58, 50
1, 17591, Note_on_c, 0, 65, 48
1, 17596, Note_off_c, 0, 58, 59
1, 17629, Poly_aftertouch_c, 0, 70, 127
1, 17632, Note_on_c, 0, 49, 58
1, 17689, Note_off_c, 0, 65, 58
1, 17738, Note_on_c, 0, 58, 51
1, 17744, Note_off_c, 0, 49, 58
1, 17757, Poly_aftertouch_c, 0, 70, 0
1, 17804, Note_off_c, 0, 58, 59
1, 17848, Note_on_c, 0, 66, 61
1, 17863, Note_on_c, 0, 54, 47
1, 17885, Control_c, 0, 64, 113
1, 17900, Control_c, 0, 64, 75
1, 17915, Control_c, 0, 64, 49
1, 17929, Control_c, 0, 64, 0
1, 17931, Note_off_c, 0, 66, 59
1, 17959, Control_c, 0, 64, 50
1, 17974, Control_c, 0, 64, 67
1, 17989, Control_c, 0, 64, 82
1, 18003, Control_c, 0, 64, 127
1, 18093, Note_on_c, 0, 87, 75
1, 18129, Note_on_c, 0, 63, 48
1, 18151, Note_off_c, 0, 54, 47
1, 18154, Note_off_c, 0, 87, 51
1, 18297, Note_off_c, 0, 63, 53
1, 18346, Note_on_c, 0, 58, 45
1, 18349, Note_on_c, 0, 75, 56
1, 18388, Note_off_c, 0, 75, 58
1, 18390, Note_off_c, 0, 58, 58
1, 18407, Poly_aftertouch_c, 0, 54, 127
1, 18442, Note_on_c, 0, 63, 42
1, 18454, Note_on_c, 0, 66, 27
1, 18471, Poly_aftertouch_c, 0, 54, 0
1, 18484, Note_on_c, 0, 70, 37
1, 18489, Note_off_c, 0, 63, 44
1, 18496, Note_off_c, 0, 66, 47
1, 18509, Poly_aftertouch_c, 0, 54, 127
1, 18511, Note_on_c, 0, 54, 3
1, 18513, Note_on_c, 0, 58, 28
1, 18531, Note_off_c, 0, 70, 51
1, 18540, Note_on_c, 0, 75, 39
1, 18551, Note_off_c, 0, 58, 52
1, 18552, Note_off_c, 0, 54, 38
1, 18604, Note_off_c, 0, 75, 52
1, 18621, Note_on_c, 0, 66, 36
1, 18688, Note_on_c, 0, 47, 59
1, 18705, Note_off_c, 0, 66, 46
1, 18734, Poly_aftertouch_c, 0, 70, 127
1, 18758, Note_on_c, 0, 75, 39
1, 18777, Poly_aftertouch_c, 0, 70, 0
1, 18787, Note_off_c, 0, 47, 62
1, 18837, Note_off_c, 0, 75, 52
1, 18879, Note_on_c, 0, 66, 35
1, 18929, Note_off_c, 0, 66, 45
1, 18943, Note_on_c, 0, 63, 33
1, 18944, Poly_aftertouch_c, 0, 70, 127
1, 18975, Note_on_c, 0, 75, 47
1, 18998, Poly_aftertouch_c, 0, 70, 0
1, 18999, Note_off_c, 0, 63, 43
1, 19008, Note_on_c, 0, 54, 42
1, 19017, Note_off_c, 0, 75, 60
1, 19025, Note_on_c, 0, 58, 39
1, 19050, Note_on_c, 0, 66, 44
1, 19050, Note_off_c, 0, 54, 61
1, 19050, Note_off_c, 0, 58, 56
1, 19070, Note_on_c, 0, 70, 27
1, 19209, Note_on_c, 0, 75, 44
1, 19211, Note_off_c, 0, 66, 34
1, 19220, Note_on_c, 0, 46, 63
1, 19233, Note_off_c, 0, 70, 38
1, 19235, Control_c, 0, 64, 95
1, 19249, Control_c, 0, 64, 76
1, 19264, Control_c, 0, 64, 67
1, 19279, Control_c, 0, 64, 66
1, 19294, Control_c, 0, 64, 70
1, 19309, Control_c, 0, 64, 81
1, 19312, Note_off_c, 0, 75, 50
1, 19324, Control_c, 0, 64, 103
1, 19324, Note_off_c, 0, 46, 61
1, 19339, Control_c, 0, 64, 127
1, 19357, Note_on_c, 0, 66, 35
1, 19367, Note_on_c, 0, 70, 33
1, 19406, Note_off_c, 0, 66, 44
1, 19409, Note_off_c, 0, 70, 47
1, 19449, Note_on_c, 0, 75, 47
1, 19452, Note_on_c, 0, 63, 51
1, 19478, Note_off_c, 0, 75, 55
1, 19480, Note_off_c, 0, 63, 53
1, 19489, Note_on_c, 0, 54, 38
1, 19520, Note_on_c, 0, 58, 51
1, 19521, Note_on_c, 0, 66, 43
1, 19524, Note_on_c, 0, 70, 43
1, 19533, Note_off_c, 0, 54, 44
1, 19547, Note_off_c, 0, 58, 63
1, 19621, Note_on_c, 0, 75, 30
1, 19675, Note_off_c, 0, 75, 42
1, 19707, Note_on_c, 0, 45, 73
1, 19739, Control_c, 0, 64, 87
1, 19754, Control_c, 0, 64, 67
1, 19763, Note_off_c, 0, 66, 18
1, 19769, Control_c, 0, 64, 50
1, 19783, Note_off_c, 0, 70, 42
1, 19783, Control_c, 0, 64, 43
1, 19798, Control_c, 0, 64, 55
1, 19805, Note_on_c, 0, 75, 30
1, 19821, Control_c, 0, 64, 66
1, 19836, Control_c, 0, 64, 79
1, 19837, Note_off_c, 0, 45, 63
1, 19850, Control_c, 0, 64, 127
1, 19856, Note_off_c, 0, 75, 45
1, 19903, Note_on_c, 0, 66, 41
1, 19920, Note_on_c, 0, 70, 32
1, 19947, Note_off_c, 0, 66, 55
1, 19961, Note_off_c, 0, 70, 48
1, 19974, Note_on_c, 0, 75, 53
1, 19986, Note_on_c, 0, 63, 50
1, 20019, Note_off_c, 0, 63, 50
1, 20021, Note_off_c, 0, 75, 54
1, 20027, Note_on_c, 0, 54, 39
1, 20077, Note_on_c, 0, 58, 39
1, 20078, Note_off_c, 0, 54, 60
1, 20085, Note_on_c, 0, 66, 28
1, 20085, Note_on_c, 0, 70, 34
1, 20106, Note_off_c, 0, 58, 53
1, 20171, Note_off_c, 0, 70, 35
1, 20173, Note_on_c, 0, 75, 44
1, 20189, Note_off_c, 0, 66, 35
1, 20221, Control_c, 0, 64, 96
1, 20226, Note_on_c, 0, 46, 60
1, 20236, Control_c, 0, 64, 71
1, 20250, Control_c, 0, 64, 53
1, 20265, Control_c, 0, 64, 42
1, 20280, Control_c, 0, 64, 50
1, 20292, Note_off_c, 0, 75, 53
1, 20295, Control_c, 0, 64, 65
1, 20310, Control_c, 0, 64, 79
1, 20318, Note_off_c, 0, 46, 62
1, 20324, Control_c, 0, 64, 127
1, 20343, Note_on_c, 0, 66, 20
1, 20379, Poly_aftertouch_c, 0, 70, 127
1, 20391, Note_off_c, 0, 66, 45
1, 20421, Note_on_c, 0, 75, 54
1, 20429, Poly_aftertouch_c, 0, 70, 0
1, 20462, Note_off_c, 0, 75, 58
1, 20466, Note_on_c, 0, 63, 41
1, 20484, Note_on_c, 0, 54, 49
1, 20509, Note_on_c, 0, 66, 35
1, 20513, Note_off_c, 0, 63, 60
1, 20525, Note_on_c, 0, 70, 22
1, 20573, Note_off_c, 0, 54, 59
1, 20581, Note_off_c, 0, 66, 42
1, 20582, Note_off_c, 0, 70, 44
1, 20596, Note_on_c, 0, 75, 54
1, 20746, Note_on_c, 0, 42, 56
1, 20747, Note_off_c, 0, 75, 53
1, 20788, Note_on_c, 0, 66, 17
1, 20800, Note_on_c, 0, 70, 24
1, 20814, Note_off_c, 0, 42, 56
1, 20838, Note_off_c, 0, 66, 45
1, 20853, Note_off_c, 0, 70, 43
1, 20889, Note_on_c, 0, 75, 44
1, 20937, Note_off_c, 0, 75, 55
1, 20966, Note_on_c, 0, 66, 34
1, 20981, Note_on_c, 0, 70, 40
1, 20986, Note_on_c, 0, 63, 41
1, 21006, Note_on_c, 0, 54, 36
1, 21031, Note_off_c, 0, 63, 47
1, 21043, Note_off_c, 0, 66, 39
1, 21047, Note_off_c, 0, 70, 43
1, 21059, Note_on_c, 0, 58, 23
1, 21077, Note_on_c, 0, 75, 46
1, 21077, Note_off_c, 0, 54, 58
1, 21097, Note_off_c, 0, 58, 53
1, 21206, Note_on_c, 0, 66, 24
1, 21244, Note_off_c, 0, 75, 0
1, 21244, Note_on_c, 0, 75, 9
1, 21252, Note_on_c, 0, 70, 3
1, 21259, Note_off_c, 0, 66, 43
1, 21294, Note_off_c, 0, 70, 47
1, 21363, Control_c, 0, 64, 85
1, 21364, Note_on_c, 0, 34, 48
1, 21378, Control_c, 0, 64, 64
1, 21393, Control_c, 0, 64, 43
1, 21399, Note_off_c, 0, 75, 41
1, 21408, Note_on_c, 0, 66, 31
1, 21408, Control_c, 0, 64, 44
1, 21422, Control_c, 0, 64, 59
1, 21432, Note_on_c, 0, 70, 25
1, 21437, Control_c, 0, 64, 70
1, 21452, Control_c, 0, 64, 93
1, 21455, Note_off_c, 0, 34, 61
1, 21467, Control_c, 0, 64, 127
1, 21542, Note_off_c, 0, 66, 36
1, 21556, Note_on_c, 0, 75, 45
1, 21568, Note_off_c, 0, 70, 32
1, 21628, Note_off_c, 0, 75, 50
1, 21650, Note_on_c, 0, 58, 40
1, 21670, Note_on_c, 0, 66, 34
1, 21679, Note_on_c, 0, 70, 38
1, 21700, Note_off_c, 0, 58, 59
1, 21724, Note_off_c, 0, 66, 46
1, 21733, Note_off_c, 0, 70, 60
1, 21733, Note_on_c, 0, 54, 43
1, 21756, Note_on_c, 0, 63, 22
1, 21768, Note_on_c, 0, 75, 28
1, 21794, Note_off_c, 0, 63, 52
1, 21801, Note_off_c, 0, 75, 50
1, 21852, Control_c, 0, 67, 127
1, 21855, Note_on_c, 0, 58, 40
1, 21864, Note_on_c, 0, 70, 64
1, 21867, Note_off_c, 0, 54, 54
1, 21867, Control_c, 0, 67, 124
1, 21881, Control_c, 0, 67, 119
1, 21896, Control_c, 0, 67, 114
1, 21906, Note_off_c, 0, 70, 58
1, 21911, Control_c, 0, 67, 110
1, 21926, Control_c, 0, 67, 107
1, 21941, Control_c, 0, 67, 105
1, 21956, Control_c, 0, 67, 105
1, 21970, Control_c, 0, 67, 104
1, 22044, Control_c, 0, 67, 104
1, 22081, Control_c, 0, 67, 104
1, 22094, Note_off_c, 0, 58, 47
1, 22112, Control_c, 0, 67, 105
1, 22114, Note_on_c, 0, 90, 77
1, 22131, Note_on_c, 0, 66, 44
1, 22141, Control_c, 0, 67, 105
1, 22156, Control_c, 0, 67, 106
1, 22171, Control_c, 0, 67, 106
1, 22186, Control_c, 0, 67, 107
1, 22189, Note_off_c, 0, 90, 62
1, 22215, Control_c, 0, 67, 108
1, 22269, Note_off_c, 0, 66, 54
1, 22290, Control_c, 0, 67, 108
1, 22311, Note_on_c, 0, 58, 45
1, 22319, Control_c, 0, 67, 109
1, 22334, Control_c, 0, 67, 110
1, 22348, Note_off_c, 0, 58, 63
1, 22349, Control_c, 0, 67, 111
1, 22361, Note_on_c, 0, 70, 56
1, 22363, Control_c, 0, 67, 111
1, 22411, Note_on_c, 0, 78, 8
1, 22448, Note_on_c, 0, 58, 45
1, 22458, Note_on_c, 0, 66, 34
1, 22466, Note_off_c, 0, 70, 36
1, 22490, Note_off_c, 0, 58, 45
1, 22519, Note_off_c, 0, 78, 56
1, 22526, Control_c, 0, 64, 98
1, 22541, Control_c, 0, 64, 84
1, 22541, Control_c, 0, 67, 111
1, 22546, Note_on_c, 0, 69, 64
1, 22549, Note_off_c, 0, 66, 48
1, 22555, Control_c, 0, 64, 82
1, 22555, Control_c, 0, 67, 110
1, 22570, Control_c, 0, 64, 84
1, 22570, Control_c, 0, 67, 110
1, 22583, Note_off_c, 0, 69, 60
1, 22585, Control_c, 0, 64, 93
1, 22585, Control_c, 0, 67, 109
1, 22587, Note_on_c, 0, 57, 51
1, 22600, Control_c, 0, 64, 127
1, 22615, Control_c, 0, 67, 109
1, 22660, Control_c, 0, 67, 108
1, 22674, Control_c, 0, 67, 107
1, 22689, Control_c, 0, 67, 106
1, 22696, Note_off_c, 0, 57, 55
1, 22700, Note_on_c, 0, 89, 86
1, 22704, Control_c, 0, 67, 106
1, 22723, Note_off_c, 0, 89, 63
1, 22735, Note_on_c, 0, 65, 51
1, 22787, Note_off_c, 0, 65, 56
1, 22841, Note_on_c, 0, 57, 52
1, 22883, Note_on_c, 0, 77, 39
1, 22914, Note_off_c, 0, 57, 0
1, 22934, Control_c, 0, 67, 106
1, 22934, Note_on_c, 0, 65, 26
1, 22934, Note_on_c, 0, 69, 52
1, 22951, Poly_aftertouch_c, 0, 57, 127
1, 22970, Note_off_c, 0, 69, 63
1, 22972, Poly_aftertouch_c, 0, 57, 0
1, 22973, Note_off_c, 0, 77, 61
1, 22987, Note_off_c, 0, 65, 0
1, 22987, Note_on_c, 0, 65, 26
1, 23022, Control_c, 0, 67, 107
1, 23026, Note_off_c, 0, 65, 59
1, 23037, Control_c, 0, 67, 107
1, 23052, Control_c, 0, 67, 108
1, 23081, Control_c, 0, 64, 121
1, 23084, Note_on_c, 0, 66, 71
1, 23096, Control_c, 0, 64, 79
1, 23105, Note_on_c, 0, 54, 64
1, 23111, Control_c, 0, 64, 65
1, 23126, Control_c, 0, 64, 62
1, 23128, Note_off_c, 0, 66, 57
1, 23140, Control_c, 0, 64, 65
1, 23140, Control_c, 0, 67, 108
1, 23155, Control_c, 0, 64, 73
1, 23155, Control_c, 0, 67, 109
1, 23170, Control_c, 0, 64, 93
1, 23170, Control_c, 0, 67, 109
1, 23184, Control_c, 0, 64, 127
1, 23226, Note_off_c, 0, 54, 57
1, 23235, Note_on_c, 0, 87, 86
1, 23241, Note_on_c, 0, 63, 60
1, 23259, Control_c, 0, 67, 109
1, 23274, Note_off_c, 0, 87, 57
1, 23303, Control_c, 0, 67, 109
1, 23333, Note_off_c, 0, 63, 45
1, 23385, Note_on_c, 0, 54, 56
1, 23410, Note_on_c, 0, 75, 38
1, 23425, Note_off_c, 0, 54, 60
1, 23441, Note_off_c, 0, 75, 49
1, 23450, Note_on_c, 0, 66, 53
1, 23455, Note_on_c, 0, 63, 55
1, 23482, Note_off_c, 0, 63, 54
1, 23502, Note_on_c, 0, 75, 53
1, 23514, Note_off_c, 0, 66, 42
1, 23519, Note_on_c, 0, 54, 49
1, 23542, Note_on_c, 0, 63, 65
1, 23563, Control_c, 0, 67, 110
1, 23565, Note_off_c, 0, 54, 61
1, 23602, Note_off_c, 0, 63, 53
1, 23607, Control_c, 0, 64, 112
1, 23619, Note_on_c, 0, 65, 65
1, 23622, Control_c, 0, 64, 75
1, 23626, Note_off_c, 0, 75, 50
1, 23637, Control_c, 0, 64, 57
1, 23642, Note_on_c, 0, 53, 56
1, 23652, Control_c, 0, 64, 29
1, 23666, Control_c, 0, 64, 40
1, 23670, Note_off_c, 0, 65, 60
1, 23682, Control_c, 0, 64, 62
1, 23697, Control_c, 0, 64, 74
1, 23712, Control_c, 0, 64, 114
1, 23727, Control_c, 0, 64, 127
1, 23770, Note_off_c, 0, 53, 60
1, 23792, Note_on_c, 0, 85, 77
1, 23804, Note_on_c, 0, 61, 59
1, 23815, Note_off_c, 0, 85, 67
1, 23898, Note_off_c, 0, 61, 46
1, 23915, Note_on_c, 0, 53, 58
1, 23963, Note_on_c, 0, 73, 42
1, 23989, Note_on_c, 0, 65, 41
1, 23990, Note_off_c, 0, 73, 56
1, 24001, Note_off_c, 0, 53, 57
1, 24037, Note_on_c, 0, 61, 50
1, 24058, Note_on_c, 0, 73, 54
1, 24060, Note_off_c, 0, 65, 47
1, 24159, Note_off_c, 0, 73, 59
1, 24170, Note_on_c, 0, 65, 58
1, 24171, Control_c, 0, 64, 78
1, 24181, Note_on_c, 0, 51, 52
1, 24181, Note_off_c, 0, 61, 31
1, 24186, Control_c, 0, 64, 62
1, 24201, Control_c, 0, 64, 54
1, 24215, Control_c, 0, 64, 58
1, 24231, Control_c, 0, 64, 66
1, 24245, Control_c, 0, 64, 78
1, 24253, Note_off_c, 0, 65, 59
1, 24260, Control_c, 0, 64, 127
1, 24312, Control_c, 0, 67, 110
1, 24327, Control_c, 0, 67, 109
1, 24359, Note_on_c, 0, 84, 75
1, 24368, Note_off_c, 0, 51, 46
1, 24384, Note_on_c, 0, 60, 48
1, 24392, Note_off_c, 0, 84, 55
1, 24484, Note_off_c, 0, 60, 50
1, 24532, Note_on_c, 0, 51, 58
1, 24550, Note_on_c, 0, 72, 48
1, 24573, Note_off_c, 0, 51, 60
1, 24576, Note_off_c, 0, 72, 54
1, 24639, Note_on_c, 0, 72, 47
1, 24656, Note_on_c, 0, 60, 10
1, 24670, Poly_aftertouch_c, 0, 65, 127
1, 24688, Note_on_c, 0, 51, 27
1, 24706, Poly_aftertouch_c, 0, 65, 0
1, 24720, Note_off_c, 0, 51, 46
1, 24751, Note_off_c, 0, 72, 56
1, 24771, Note_off_c, 0, 60, 34
1, 24802, Control_c, 0, 64, 87
1, 24806, Note_on_c, 0, 65, 58
1, 24817, Note_on_c, 0, 49, 52
1, 24817, Control_c, 0, 64, 63
1, 24831, Control_c, 0, 64, 0
1, 24876, Control_c, 0, 64, 52
1, 24876, Control_c, 0, 67, 110
1, 24891, Control_c, 0, 64, 68
1, 24891, Control_c, 0, 67, 110
1, 24893, Note_off_c, 0, 65, 56
1, 24905, Control_c, 0, 64, 81
1, 24920, Control_c, 0, 64, 127
1, 25028, Note_on_c, 0, 82, 72
1, 25073, Note_off_c, 0, 49, 52
1, 25077, Note_on_c, 0, 58, 43
1, 25102, Note_off_c, 0, 82, 58
1, 25135, Control_c, 0, 67, 110
1, 25197, Note_off_c, 0, 58, 54
1, 25224, Control_c, 0, 67, 109
1, 25256, Note_on_c, 0, 49, 31
1, 25256, Note_on_c, 0, 53, 36
1, 25263, Note_on_c, 0, 70, 34
1, 25298, Note_off_c, 0, 49, 49
1, 25301, Note_off_c, 0, 70, 48
1, 25333, Note_on_c, 0, 65, 46
1, 25337, Note_on_c, 0, 58, 43
1, 25345, Note_off_c, 0, 53, 0
1, 25368, Note_off_c, 0, 58, 57
1, 25369, Note_on_c, 0, 53, 17
1, 25382, Note_off_c, 0, 65, 57
1, 25405, Note_off_c, 0, 53, 54
1, 25412, Note_on_c, 0, 49, 36
1, 25448, Note_off_c, 0, 49, 49
1, 25456, Poly_aftertouch_c, 0, 70, 127
1, 25497, Poly_aftertouch_c, 0, 70, 0
1, 25584, Note_on_c, 0, 42, 59
1, 25641, Note_on_c, 0, 70, 29
1, 25667, Note_off_c, 0, 42, 58
1, 25753, Note_off_c, 0, 70, 34
1, 25837, Poly_aftertouch_c, 0, 61, 127
1, 25858, Note_on_c, 0, 58, 21
1, 25881, Note_on_c, 0, 70, 50
1, 25885, Poly_aftertouch_c, 0, 61, 0
1, 25907, Note_on_c, 0, 53, 46
1, 25919, Note_off_c, 0, 58, 44
1, 25930, Note_off_c, 0, 70, 56
1, 25942, Note_on_c, 0, 49, 27
1, 25943, Note_off_c, 0, 53, 64
1, 25980, Note_off_c, 0, 49, 51
1, 25985, Note_on_c, 0, 61, 30
1, 25990, Note_on_c, 0, 65, 30
1, 26122, Note_on_c, 0, 41, 63
1, 26122, Control_c, 0, 64, 87
1, 26136, Control_c, 0, 64, 75
1, 26150, Note_on_c, 0, 70, 49
1, 26151, Control_c, 0, 64, 73
1, 26154, Note_off_c, 0, 61, 42
1, 26157, Note_off_c, 0, 65, 35
1, 26166, Control_c, 0, 64, 75
1, 26181, Control_c, 0, 64, 83
1, 26196, Control_c, 0, 64, 102
1, 26196, Control_c, 0, 67, 110
1, 26210, Control_c, 0, 64, 127
1, 26223, Note_off_c, 0, 41, 62
1, 26258, Note_off_c, 0, 70, 56
1, 26281, Note_on_c, 0, 61, 46
1, 26284, Control_c, 0, 67, 109
1, 26286, Note_on_c, 0, 65, 44
1, 26333, Note_off_c, 0, 61, 61
1, 26356, Note_off_c, 0, 65, 47
1, 26361, Note_on_c, 0, 58, 28
1, 26384, Note_on_c, 0, 70, 56
1, 26398, Note_off_c, 0, 58, 49
1, 26399, Note_on_c, 0, 53, 53
1, 26413, Note_on_c, 0, 49, 58
1, 26426, Note_off_c, 0, 53, 62
1, 26427, Note_off_c, 0, 70, 58
1, 26450, Note_off_c, 0, 49, 62
1, 26456, Note_on_c, 0, 61, 50
1, 26466, Note_on_c, 0, 65, 39
1, 26476, Control_c, 0, 67, 110
1, 26520, Control_c, 0, 67, 110
1, 26617, Control_c, 0, 67, 111
1, 26647, Note_on_c, 0, 40, 66
1, 26662, Control_c, 0, 64, 99
1, 26677, Control_c, 0, 64, 74
1, 26681, Note_off_c, 0, 61, 53
1, 26691, Control_c, 0, 64, 59
1, 26691, Control_c, 0, 67, 111
1, 26700, Note_off_c, 0, 65, 38
1, 26706, Control_c, 0, 64, 22
1, 26710, Note_on_c, 0, 70, 49
1, 26721, Control_c, 0, 64, 28
1, 26735, Control_c, 0, 64, 54
1, 26750, Control_c, 0, 64, 68
1, 26765, Control_c, 0, 64, 88
1, 26780, Control_c, 0, 64, 127
1, 26786, Note_off_c, 0, 40, 62
1, 26824, Control_c, 0, 67, 111
1, 26826, Note_off_c, 0, 70, 51
1, 26842, Note_on_c, 0, 61, 32
1, 26867, Note_on_c, 0, 65, 20
1, 26931, Note_off_c, 0, 65, 40
1, 26933, Note_off_c, 0, 61, 38
1, 26975, Note_on_c, 0, 70, 42
1, 26980, Note_on_c, 0, 53, 44
1, 27004, Note_on_c, 0, 49, 42
1, 27015, Note_off_c, 0, 70, 46
1, 27017, Note_off_c, 0, 53, 64
1, 27042, Note_off_c, 0, 49, 62
1, 27058, Note_on_c, 0, 61, 43
1, 27133, Poly_aftertouch_c, 0, 65, 127
1, 27182, Poly_aftertouch_c, 0, 65, 0
1, 27210, Note_off_c, 0, 61, 34
1, 27214, Note_on_c, 0, 41, 61
1, 27215, Note_on_c, 0, 70, 46
1, 27241, Control_c, 0, 67, 110
1, 27278, Note_off_c, 0, 41, 59
1, 27322, Note_off_c, 0, 70, 49
1, 27360, Note_on_c, 0, 61, 33
1, 27381, Control_c, 0, 67, 110
1, 27386, Note_on_c, 0, 65, 17
1, 27420, Note_off_c, 0, 61, 42
1, 27426, Control_c, 0, 67, 109
1, 27453, Note_on_c, 0, 53, 46
1, 27456, Control_c, 0, 67, 109
1, 27477, Poly_aftertouch_c, 0, 58, 127
1, 27482, Note_on_c, 0, 70, 52
1, 27486, Note_off_c, 0, 53, 63
1, 27515, Poly_aftertouch_c, 0, 58, 0
1, 27548, Note_off_c, 0, 65, 33
1, 27554, Note_off_c, 0, 70, 60
1, 27648, Control_c, 0, 67, 109
1, 27761, Note_on_c, 0, 34, 42
1, 27864, Note_on_c, 0, 82, 71
1, 27878, Note_on_c, 0, 70, 51
1, 27886, Control_c, 0, 64, 81
1, 27900, Control_c, 0, 64, 64
1, 27915, Control_c, 0, 64, 39
1, 27915, Control_c, 0, 67, 110
1, 27929, Note_off_c, 0, 70, 0
1, 27929, Note_on_c, 0, 70, 15
1, 27930, Control_c, 0, 64, 32
1, 27933, Note_off_c, 0, 34, 62
1, 27945, Control_c, 0, 64, 45
1, 27960, Control_c, 0, 64, 61
1, 27975, Control_c, 0, 64, 70
1, 27975, Control_c, 0, 67, 109
1, 27989, Control_c, 0, 64, 91
1, 28004, Control_c, 0, 64, 127
1, 28019, Control_c, 0, 67, 109
1, 28056, Control_c, 0, 67, 108
1, 28065, Note_on_c, 0, 77, 51
1, 28071, Control_c, 0, 67, 107
1, 28073, Note_on_c, 0, 73, 49
1, 28078, Note_off_c, 0, 70, 34
1, 28086, Control_c, 0, 67, 106
1, 28099, Note_off_c, 0, 82, 54
1, 28117, Note_off_c, 0, 73, 57
1, 28124, Note_off_c, 0, 77, 56
1, 28138, Note_on_c, 0, 70, 38
1, 28165, Note_on_c, 0, 65, 24
1, 28177, Note_on_c, 0, 53, 57
1, 28182, Note_off_c, 0, 70, 59
1, 28194, Note_on_c, 0, 73, 37
1, 28201, Note_off_c, 0, 65, 45
1, 28215, Note_on_c, 0, 77, 38
1, 28232, Note_off_c, 0, 53, 61
1, 28238, Note_on_c, 0, 61, 3
1, 28279, Note_off_c, 0, 61, 49
1, 28447, Note_on_c, 0, 36, 51
1, 28456, Control_c, 0, 67, 106
1, 28487, Control_c, 0, 64, 94
1, 28502, Control_c, 0, 64, 71
1, 28516, Note_on_c, 0, 82, 69
1, 28517, Control_c, 0, 64, 52
1, 28531, Control_c, 0, 64, 21
1, 28531, Control_c, 0, 67, 106
1, 28536, Note_on_c, 0, 70, 36
1, 28538, Note_off_c, 0, 77, 56
1, 28546, Control_c, 0, 64, 28
1, 28552, Note_off_c, 0, 73, 59
1, 28561, Control_c, 0, 64, 52
1, 28561, Control_c, 0, 67, 106
1, 28576, Control_c, 0, 64, 65
1, 28577, Note_off_c, 0, 36, 64
1, 28591, Control_c, 0, 64, 84
1, 28605, Control_c, 0, 64, 127
1, 28605, Control_c, 0, 67, 105
1, 28620, Control_c, 0, 67, 105
1, 28635, Control_c, 0, 67, 104
1, 28650, Control_c, 0, 67, 102
1, 28665, Control_c, 0, 67, 100
1, 28679, Control_c, 0, 67, 96
1, 28694, Control_c, 0, 67, 91
1, 28709, Control_c, 0, 67, 85
1, 28711, Note_on_c, 0, 78, 52
1, 28713, Note_off_c, 0, 70, 31
1, 28723, Control_c, 0, 67, 79
1, 28738, Control_c, 0, 67, 72
1, 28752, Note_off_c, 0, 78, 60
1, 28753, Control_c, 0, 67, 67
1, 28768, Control_c, 0, 67, 63
1, 28779, Poly_aftertouch_c, 0, 75, 127
1, 28783, Control_c, 0, 67, 63
1, 28820, Control_c, 0, 67, 62
1, 28835, Note_on_c, 0, 54, 46
1, 28843, Note_on_c, 0, 70, 42
1, 28866, Note_off_c, 0, 82, 48
1, 28868, Note_on_c, 0, 78, 55
1, 28876, Poly_aftertouch_c, 0, 75, 0
1, 28879, Note_off_c, 0, 54, 61
1, 28896, Note_on_c, 0, 75, 14
1, 28910, Note_off_c, 0, 70, 55
1, 29043, Note_on_c, 0, 39, 56
1, 29044, Note_off_c, 0, 78, 58
1, 29054, Note_on_c, 0, 79, 71
1, 29085, Note_off_c, 0, 75, 40
1, 29088, Note_off_c, 0, 39, 61
1, 29094, Note_on_c, 0, 67, 37
1, 29161, Note_on_c, 0, 78, 62
1, 29165, Note_off_c, 0, 79, 60
1, 29176, Control_c, 0, 67, 62
1, 29187, Note_off_c, 0, 67, 36
1, 29191, Control_c, 0, 67, 61
1, 29224, Note_off_c, 0, 78, 59
1, 29234, Note_on_c, 0, 67, 38
1, 29280, Control_c, 0, 67, 61
1, 29289, Note_on_c, 0, 66, 13
1, 29304, Note_on_c, 0, 78, 54
1, 29310, Control_c, 0, 67, 59
1, 29320, Note_on_c, 0, 75, 25
1, 29325, Control_c, 0, 67, 56
1, 29333, Note_off_c, 0, 66, 49
1, 29340, Control_c, 0, 67, 53
1, 29354, Control_c, 0, 67, 51
1, 29357, Note_off_c, 0, 67, 58
1, 29369, Control_c, 0, 67, 50
1, 29403, Note_off_c, 0, 78, 62
1, 29411, Note_off_c, 0, 75, 60
1, 29428, Control_c, 0, 67, 50
1, 29443, Control_c, 0, 67, 49
1, 29448, Note_on_c, 0, 80, 70
1, 29450, Note_on_c, 0, 44, 60
1, 29465, Note_on_c, 0, 68, 56
1, 29472, Control_c, 0, 67, 49
1, 29486, Note_off_c, 0, 44, 63
1, 29502, Control_c, 0, 67, 48
1, 29534, Note_off_c, 0, 68, 58
1, 29557, Note_on_c, 0, 75, 51
1, 29561, Note_on_c, 0, 72, 49
1, 29571, Note_off_c, 0, 80, 61
1, 29593, Note_off_c, 0, 75, 63
1, 29621, Note_on_c, 0, 60, 48
1, 29628, Note_on_c, 0, 56, 51
1, 29644, Note_off_c, 0, 60, 55
1, 29656, Note_off_c, 0, 56, 60
1, 29671, Note_on_c, 0, 75, 52
1, 29695, Note_on_c, 0, 68, 58
1, 29699, Note_off_c, 0, 72, 23
1, 29737, Note_off_c, 0, 75, 54
1, 29747, Control_c, 0, 67, 48
1, 29802, Note_off_c, 0, 68, 55
1, 29810, Note_on_c, 0, 36, 62
1, 29879, Control_c, 0, 64, 81
1, 29894, Control_c, 0, 64, 61
1, 29907, Note_on_c, 0, 81, 77
1, 29909, Control_c, 0, 64, 0
1, 29918, Note_on_c, 0, 69, 57
1, 29952, Note_off_c, 0, 36, 64
1, 29954, Control_c, 0, 64, 57
1, 29969, Control_c, 0, 64, 72
1, 29984, Control_c, 0, 64, 91
1, 29998, Control_c, 0, 64, 127
1, 30040, Note_off_c, 0, 69, 59
1, 30043, Control_c, 0, 67, 47
1, 30049, Note_on_c, 0, 78, 60
1, 30058, Control_c, 0, 67, 45
1, 30073, Control_c, 0, 67, 43
1, 30074, Note_on_c, 0, 75, 42
1, 30088, Control_c, 0, 67, 40
1, 30094, Note_off_c, 0, 78, 56
1, 30103, Control_c, 0, 67, 36
1, 30103, Note_off_c, 0, 75, 55
1, 30118, Control_c, 0, 67, 32
1, 30133, Control_c, 0, 67, 27
1, 30134, Note_on_c, 0, 69, 61
1, 30148, Control_c, 0, 67, 23
1, 30156, Note_on_c, 0, 54, 57
1, 30163, Control_c, 0, 67, 22
1, 30168, Note_on_c, 0, 66, 9
1, 30190, Note_off_c, 0, 54, 62
1, 30197, Note_off_c, 0, 81, 58
1, 30199, Note_on_c, 0, 78, 69
1, 30207, Poly_aftertouch_c, 0, 63, 127
1, 30207, Control_c, 0, 67, 21
1, 30213, Note_on_c, 0, 75, 56
1, 30216, Note_off_c, 0, 66, 50
1, 30245, Poly_aftertouch_c, 0, 63, 0
1, 30252, Note_off_c, 0, 69, 59
1, 30303, Note_off_c, 0, 75, 58
1, 30313, Note_off_c, 0, 78, 58
1, 30326, Note_on_c, 0, 39, 62
1, 30335, Note_on_c, 0, 79, 75
1, 30353, Note_on_c, 0, 67, 62
1, 30360, Note_off_c, 0, 39, 62
1, 30362, Control_c, 0, 67, 22
1, 30407, Control_c, 0, 67, 22
1, 30413, Note_off_c, 0, 67, 56
1, 30430, Note_on_c, 0, 78, 65
1, 30447, Note_off_c, 0, 79, 62
1, 30453, Note_on_c, 0, 75, 47
1, 30487, Note_off_c, 0, 75, 62
1, 30498, Note_off_c, 0, 78, 61
1, 30508, Note_on_c, 0, 67, 57
1, 30523, Note_on_c, 0, 66, 53
1, 30525, Control_c, 0, 67, 23
1, 30540, Control_c, 0, 67, 23
1, 30547, Note_off_c, 0, 66, 60
1, 30556, Note_on_c, 0, 63, 36
1, 30586, Note_on_c, 0, 78, 58
1, 30589, Note_off_c, 0, 63, 52
1, 30597, Note_on_c, 0, 75, 53
1, 30610, Note_off_c, 0, 67, 59
1, 30692, Note_off_c, 0, 75, 60
1, 30692, Note_off_c, 0, 78, 60
1, 30701, Note_on_c, 0, 44, 67
1, 30716, Note_on_c, 0, 80, 81
1, 30740, Note_off_c, 0, 44, 64
1, 30741, Note_on_c, 0, 68, 53
1, 30762, Control_c, 0, 67, 24
1, 30777, Control_c, 0, 67, 24
1, 30791, Note_off_c, 0, 68, 49
1, 30818, Note_on_c, 0, 75, 57
1, 30833, Note_off_c, 0, 80, 60
1, 30835, Note_on_c, 0, 72, 47
1, 30844, Note_on_c, 0, 73, 12
1, 30848, Note_off_c, 0, 75, 65
1, 30850, Note_on_c, 0, 60, 46
1, 30853, Note_on_c, 0, 56, 62
1, 30875, Note_off_c, 0, 60, 54
1, 30883, Note_off_c, 0, 56, 63
1, 30891, Note_off_c, 0, 73, 41
1, 30895, Note_on_c, 0, 68, 51
1, 30911, Control_c, 0, 67, 25
1, 30918, Note_off_c, 0, 72, 54
1, 30926, Note_on_c, 0, 75, 60
1, 30954, Note_off_c, 0, 75, 63
1, 30958, Note_off_c, 0, 68, 62
1, 31000, Control_c, 0, 67, 25
1, 31015, Control_c, 0, 67, 26
1, 31030, Control_c, 0, 67, 27
1, 31051, Note_on_c, 0, 37, 65
1, 31081, Control_c, 0, 67, 27
1, 31170, Control_c, 0, 67, 28
1, 31228, Note_on_c, 0, 88, 82
1, 31237, Note_on_c, 0, 76, 68
1, 31245, Control_c, 0, 64, 91
1, 31259, Control_c, 0, 64, 66
1, 31274, Control_c, 0, 64, 0
1, 31333, Control_c, 0, 64, 48
1, 31348, Control_c, 0, 64, 68
1, 31361, Note_off_c, 0, 37, 60
1, 31363, Control_c, 0, 64, 88
1, 31363, Control_c, 0, 67, 28
1, 31378, Control_c, 0, 64, 127
1, 31378, Control_c, 0, 67, 29
1, 31393, Control_c, 0, 67, 30
1, 31403, Note_off_c, 0, 88, 64
1, 31407, Control_c, 0, 67, 30
1, 31415, Note_off_c, 0, 76, 63
1, 31451, Control_c, 0, 67, 31
1, 31466, Control_c, 0, 67, 32
1, 31481, Control_c, 0, 67, 34
1, 31496, Control_c, 0, 67, 37
1, 31511, Control_c, 0, 67, 39
1, 31525, Control_c, 0, 67, 42
1, 31540, Control_c, 0, 67, 43
1, 31555, Control_c, 0, 67, 44
1, 31570, Control_c, 0, 67, 46
1, 31578, Note_on_c, 0, 56, 28
1, 31585, Control_c, 0, 67, 49
1, 31599, Control_c, 0, 67, 51
1, 31614, Control_c, 0, 67, 53
1, 31615, Note_off_c, 0, 56, 48
1, 31629, Control_c, 0, 67, 55
1, 31635, Note_on_c, 0, 64, 43
1, 31639, Note_on_c, 0, 68, 42
1, 31644, Control_c, 0, 67, 55
1, 31659, Control_c, 0, 67, 56
1, 31662, Note_off_c, 0, 64, 55
1, 31670, Note_off_c, 0, 68, 53
1, 31689, Control_c, 0, 67, 57
1, 31697, Note_on_c, 0, 60, 24
1, 31704, Control_c, 0, 67, 57
1, 31713, Note_on_c, 0, 56, 49
1, 31719, Control_c, 0, 67, 58
1, 31745, Note_off_c, 0, 60, 60
1, 31748, Control_c, 0, 67, 58
1, 31751, Note_off_c, 0, 56, 61
1, 31755, Note_on_c, 0, 64, 48
1, 31757, Note_on_c, 0, 68, 55
1, 31781, Note_off_c, 0, 68, 60
1, 31787, Note_off_c, 0, 64, 63
1, 31830, Control_c, 0, 67, 58
1, 31844, Note_on_c, 0, 60, 48
1, 31856, Note_on_c, 0, 56, 52
1, 31874, Note_off_c, 0, 60, 60
1, 31875, Note_on_c, 0, 68, 58
1, 31887, Note_off_c, 0, 56, 61
1, 31893, Note_on_c, 0, 64, 36
1, 31900, Note_off_c, 0, 68, 59
1, 31924, Note_off_c, 0, 64, 55
1, 31954, Note_on_c, 0, 60, 58
1, 31982, Note_on_c, 0, 64, 44
1, 31985, Note_on_c, 0, 68, 53
1, 31989, Note_on_c, 0, 56, 35
1, 31990, Note_off_c, 0, 60, 62
1, 31993, Control_c, 0, 67, 57
1, 32004, Note_off_c, 0, 68, 65
1, 32007, Note_off_c, 0, 64, 61
1, 32017, Note_off_c, 0, 56, 54
1, 32065, Note_on_c, 0, 60, 59
1, 32067, Note_on_c, 0, 56, 49
1, 32067, Control_c, 0, 67, 57
1, 32076, Note_on_c, 0, 68, 60
1, 32080, Note_on_c, 0, 64, 41
1, 32097, Control_c, 0, 67, 56
1, 32097, Note_off_c, 0, 68, 64
1, 32129, Note_off_c, 0, 56, 0
1, 32139, Note_on_c, 0, 56, 57
1, 32142, Note_off_c, 0, 64, 0
1, 32151, Note_on_c, 0, 64, 53
1, 32156, Note_on_c, 0, 68, 73
1, 32157, Note_off_c, 0, 60, 55
1, 32175, Note_off_c, 0, 56, 63
1, 32181, Note_off_c, 0, 68, 65
1, 32183, Note_off_c, 0, 64, 65
1, 32215, Control_c, 0, 67, 56
1, 32336, Note_on_c, 0, 37, 60
1, 32392, Control_c, 0, 64, 94
1, 32407, Control_c, 0, 64, 69
1, 32422, Control_c, 0, 64, 40
1, 32437, Control_c, 0, 64, 0
1, 32437, Control_c, 0, 67, 55
1, 32455, Note_on_c, 0, 89, 61
1, 32465, Note_on_c, 0, 88, 63
1, 32468, Control_c, 0, 64, 41
1, 32473, Note_on_c, 0, 77, 45
1, 32483, Control_c, 0, 64, 64
1, 32497, Control_c, 0, 64, 76
1, 32506, Note_off_c, 0, 37, 60
1, 32512, Control_c, 0, 64, 104
1, 32518, Note_off_c, 0, 89, 63
1, 32527, Control_c, 0, 64, 127
1, 32538, Note_off_c, 0, 88, 38
1, 32555, Note_off_c, 0, 77, 60
1, 32579, Control_c, 0, 67, 55
1, 32686, Note_on_c, 0, 61, 50
1, 32697, Control_c, 0, 67, 54
1, 32706, Note_on_c, 0, 56, 46
1, 32711, Note_on_c, 0, 65, 50
1, 32712, Note_on_c, 0, 68, 54
1, 32712, Control_c, 0, 67, 54
1, 32720, Note_off_c, 0, 61, 60
1, 32727, Control_c, 0, 67, 53
1, 32738, Note_off_c, 0, 65, 58
1, 32741, Note_off_c, 0, 68, 62
1, 32742, Note_off_c, 0, 56, 61
1, 32814, Note_on_c, 0, 61, 52
1, 32816, Control_c, 0, 67, 53
1, 32829, Note_on_c, 0, 56, 51
1, 32830, Note_on_c, 0, 68, 50
1, 32830, Control_c, 0, 67, 52
1, 32839, Note_on_c, 0, 65, 46
1, 32842, Note_off_c, 0, 61, 59
1, 32845, Control_c, 0, 67, 52
1, 32854, Note_off_c, 0, 68, 59
1, 32858, Note_off_c, 0, 56, 61
1, 32869, Note_off_c, 0, 65, 51
1, 32925, Note_on_c, 0, 61, 53
1, 32930, Note_on_c, 0, 65, 36
1, 32932, Note_on_c, 0, 68, 44
1, 32945, Note_off_c, 0, 61, 64
1, 32947, Note_on_c, 0, 56, 39
1, 32959, Note_off_c, 0, 65, 53
1, 32961, Note_off_c, 0, 68, 54
1, 33005, Note_on_c, 0, 68, 64
1, 33007, Note_off_c, 0, 56, 0
1, 33009, Note_on_c, 0, 65, 49
1, 33015, Note_on_c, 0, 61, 65
1, 33019, Note_on_c, 0, 56, 47
1, 33038, Control_c, 0, 67, 51
1, 33067, Note_off_c, 0, 65, 54
1, 33068, Control_c, 0, 67, 50
1, 33083, Control_c, 0, 67, 49
1, 33090, Note_off_c, 0, 61, 61
1, 33108, Note_off_c, 0, 68, 34
1, 33108, Note_off_c, 0, 56, 58
1, 33229, Note_on_c, 0, 41, 69
1, 33268, Note_off_c, 0, 41, 62
1, 33280, Note_on_c, 0, 85, 85
1, 33296, Note_on_c, 0, 73, 73
1, 33298, Control_c, 0, 67, 50
1, 33335, Note_off_c, 0, 73, 58
1, 33340, Note_off_c, 0, 85, 63
1, 33415, Note_on_c, 0, 61, 65
1, 33460, Note_on_c, 0, 56, 47
1, 33462, Note_on_c, 0, 65, 40
1, 33462, Note_on_c, 0, 68, 32
1, 33497, Note_off_c, 0, 61, 62
1, 33500, Note_off_c, 0, 65, 0
1, 33500, Note_on_c, 0, 65, 26
1, 33507, Note_off_c, 0, 68, 0
1, 33507, Note_on_c, 0, 68, 43
1, 33519, Note_off_c, 0, 56, 60
1, 33535, Control_c, 0, 67, 50
1, 33537, Note_off_c, 0, 65, 61
1, 33543, Note_off_c, 0, 68, 63
1, 33653, Note_on_c, 0, 36, 69
1, 33683, Control_c, 0, 64, 86
1, 33698, Control_c, 0, 64, 66
1, 33713, Control_c, 0, 64, 41
1, 33728, Control_c, 0, 64, 0
1, 33743, Control_c, 0, 64, 31
1, 33753, Note_on_c, 0, 82, 81
1, 33755, Note_off_c, 0, 36, 62
1, 33757, Control_c, 0, 64, 57
1, 33767, Note_on_c, 0, 70, 60
1, 33772, Control_c, 0, 64, 67
1, 33787, Control_c, 0, 64, 83
1, 33802, Control_c, 0, 64, 127
1, 33832, Control_c, 0, 67, 50
1, 33846, Control_c, 0, 67, 49
1, 33861, Control_c, 0, 67, 48
1, 33876, Control_c, 0, 67, 48
1, 33891, Control_c, 0, 67, 47
1, 33902, Note_off_c, 0, 70, 54
1, 33906, Control_c, 0, 67, 46
1, 33920, Control_c, 0, 67, 45
1, 33923, Note_on_c, 0, 78, 49
1, 33935, Control_c, 0, 67, 45
1, 33936, Note_on_c, 0, 75, 40
1, 33960, Note_off_c, 0, 78, 63
1, 33964, Note_off_c, 0, 75, 56
1, 33964, Control_c, 0, 67, 44
1, 33973, Note_off_c, 0, 82, 52
1, 33979, Control_c, 0, 67, 43
1, 33980, Note_on_c, 0, 54, 54
1, 33994, Control_c, 0, 67, 42
1, 34009, Control_c, 0, 67, 40
1, 34015, Note_on_c, 0, 70, 44
1, 34015, Note_off_c, 0, 54, 61
1, 34024, Control_c, 0, 67, 37
1, 34046, Control_c, 0, 67, 34
1, 34051, Poly_aftertouch_c, 0, 63, 127
1, 34061, Control_c, 0, 67, 31
1, 34064, Note_on_c, 0, 78, 58
1, 34076, Control_c, 0, 67, 30
1, 34079, Note_on_c, 0, 75, 50
1, 34081, Poly_aftertouch_c, 0, 63, 0
1, 34091, Control_c, 0, 67, 29
1, 34100, Note_off_c, 0, 70, 58
1, 34106, Control_c, 0, 67, 28
1, 34191, Note_on_c, 0, 39, 39
1, 34194, Note_on_c, 0, 42, 36
1, 34198, Note_off_c, 0, 78, 52
1, 34212, Note_on_c, 0, 79, 74
1, 34225, Control_c, 0, 67, 28
1, 34228, Note_off_c, 0, 39, 51
1, 34231, Note_off_c, 0, 42, 53
1, 34240, Control_c, 0, 67, 27
1, 34242, Note_on_c, 0, 67, 47
1, 34250, Note_off_c, 0, 75, 36
1, 34269, Control_c, 0, 67, 26
1, 34284, Control_c, 0, 67, 25
1, 34299, Control_c, 0, 67, 24
1, 34303, Note_on_c, 0, 78, 64
1, 34314, Control_c, 0, 67, 23
1, 34320, Note_off_c, 0, 79, 62
1, 34343, Control_c, 0, 67, 23
1, 34345, Note_on_c, 0, 75, 11
1, 34351, Note_off_c, 0, 67, 0
1, 34363, Note_on_c, 0, 67, 43
1, 34370, Note_off_c, 0, 78, 61
1, 34370, Note_off_c, 0, 75, 0
1, 34373, Note_on_c, 0, 66, 54
1, 34373, Control_c, 0, 67, 22
1, 34388, Control_c, 0, 67, 22
1, 34392, Poly_aftertouch_c, 0, 75, 0
1, 34392, Note_on_c, 0, 63, 62
1, 34402, Control_c, 0, 67, 20
1, 34404, Note_off_c, 0, 66, 62
1, 34417, Control_c, 0, 67, 18
1, 34422, Note_off_c, 0, 63, 64
1, 34432, Control_c, 0, 67, 15
1, 34438, Note_on_c, 0, 78, 61
1, 34447, Control_c, 0, 67, 13
1, 34460, Note_on_c, 0, 75, 43
1, 34462, Control_c, 0, 67, 10
1, 34476, Control_c, 0, 67, 0
1, 34484, Note_off_c, 0, 67, 56
1, 34521, Note_off_c, 0, 78, 61
1, 34524, Note_off_c, 0, 75, 58
1, 34548, Note_on_c, 0, 44, 57
1, 34559, Note_on_c, 0, 80, 79
1, 34570, Note_on_c, 0, 68, 65
1, 34583, Note_off_c, 0, 44, 64
1, 34640, Note_off_c, 0, 68, 59
1, 34651, Note_on_c, 0, 75, 53
1, 34652, Note_on_c, 0, 72, 54
1, 34667, Note_off_c, 0, 80, 61
1, 34671, Note_off_c, 0, 75, 63
1, 34680, Note_on_c, 0, 60, 57
1, 34694, Note_on_c, 0, 56, 56
1, 34702, Note_off_c, 0, 60, 61
1, 34705, Note_on_c, 0, 68, 45
1, 34719, Note_off_c, 0, 56, 58
1, 34730, Note_off_c, 0, 68, 58
1, 34750, Note_on_c, 0, 75, 64
1, 34751, Note_off_c, 0, 72, 59
1, 34784, Note_on_c, 0, 68, 63
1, 34831, Note_off_c, 0, 75, 58
1, 34863, Note_on_c, 0, 36, 71
1, 34872, Note_off_c, 0, 68, 58
1, 34899, Control_c, 0, 64, 103
1, 34914, Control_c, 0, 64, 69
1, 34929, Control_c, 0, 64, 43
1, 34944, Control_c, 0, 64, 0
1, 34945, Note_on_c, 0, 81, 79
1, 34953, Note_on_c, 0, 69, 65
1, 34958, Note_off_c, 0, 36, 64
1, 34959, Control_c, 0, 64, 35
1, 34974, Control_c, 0, 64, 62
1, 34989, Control_c, 0, 64, 72
1, 35004, Control_c, 0, 64, 100
1, 35018, Control_c, 0, 64, 127
1, 35058, Note_off_c, 0, 69, 56
1, 35076, Note_on_c, 0, 78, 61
1, 35105, Note_on_c, 0, 75, 32
1, 35122, Note_off_c, 0, 78, 56
1, 35138, Note_off_c, 0, 75, 52
1, 35167, Note_on_c, 0, 54, 51
1, 35167, Note_on_c, 0, 66, 24
1, 35176, Note_on_c, 0, 69, 49
1, 35203, Note_off_c, 0, 54, 62
1, 35206, Note_off_c, 0, 66, 48
1, 35229, Note_on_c, 0, 78, 60
1, 35232, Note_off_c, 0, 81, 59
1, 35240, Note_on_c, 0, 75, 50
1, 35273, Note_off_c, 0, 69, 52
1, 35296, Note_off_c, 0, 75, 53
1, 35307, Note_off_c, 0, 78, 59
1, 35319, Note_on_c, 0, 39, 62
1, 35338, Note_on_c, 0, 79, 80
1, 35350, Note_off_c, 0, 39, 62
1, 35376, Note_on_c, 0, 67, 34
1, 35427, Note_on_c, 0, 78, 67
1, 35451, Note_on_c, 0, 75, 45
1, 35469, Note_off_c, 0, 79, 62
1, 35480, Note_off_c, 0, 75, 61
1, 35489, Note_off_c, 0, 67, 0
1, 35496, Note_off_c, 0, 78, 61
1, 35501, Note_on_c, 0, 67, 40
1, 35519, Note_on_c, 0, 66, 43
1, 35553, Note_on_c, 0, 63, 18
1, 35557, Note_off_c, 0, 66, 51
1, 35570, Note_on_c, 0, 78, 57
1, 35589, Note_on_c, 0, 75, 55
1, 35597, Note_off_c, 0, 63, 52
1, 35612, Note_off_c, 0, 67, 59
1, 35692, Note_off_c, 0, 78, 61
1, 35692, Note_off_c, 0, 75, 60
1, 35695, Note_on_c, 0, 44, 70
1, 35717, Note_on_c, 0, 80, 84
1, 35734, Note_on_c, 0, 68, 64
1, 35734, Note_off_c, 0, 44, 63
1, 35803, Note_off_c, 0, 68, 58
1, 35812, Note_on_c, 0, 75, 63
1, 35826, Note_on_c, 0, 60, 64
1, 35835, Note_on_c, 0, 56, 67
1, 35835, Note_off_c, 0, 80, 61
1, 35838, Note_off_c, 0, 75, 67
1, 35856, Note_off_c, 0, 60, 64
1, 35858, Note_on_c, 0, 72, 24
1, 35867, Note_off_c, 0, 56, 62
1, 35879, Note_on_c, 0, 68, 56
1, 35913, Note_on_c, 0, 75, 72
1, 35939, Note_off_c, 0, 75, 64
1, 35945, Note_off_c, 0, 72, 39
1, 35953, Note_off_c, 0, 68, 60
1, 36041, Note_on_c, 0, 37, 71
1, 36181, Control_c, 0, 64, 101
1, 36196, Control_c, 0, 64, 71
1, 36199, Note_on_c, 0, 88, 89
1, 36202, Note_on_c, 0, 76, 78
1, 36211, Control_c, 0, 64, 50
1, 36226, Control_c, 0, 64, 0
1, 36255, Control_c, 0, 64, 22
1, 36270, Control_c, 0, 64, 60
1, 36293, Control_c, 0, 64, 74
1, 36308, Control_c, 0, 64, 106
1, 36310, Note_off_c, 0, 37, 60
1, 36322, Control_c, 0, 64, 127
1, 36338, Note_off_c, 0, 88, 66
1, 36342, Note_off_c, 0, 76, 64
1, 36490, Note_on_c, 0, 60, 52
1, 36494, Note_on_c, 0, 56, 46
1, 36530, Note_off_c, 0, 60, 62
1, 36536, Note_off_c, 0, 56, 60
1, 36552, Note_on_c, 0, 68, 55
1, 36559, Note_on_c, 0, 64, 42
1, 36577, Note_off_c, 0, 68, 61
1, 36587, Note_off_c, 0, 64, 55
1, 36617, Note_on_c, 0, 60, 59
1, 36631, Note_on_c, 0, 56, 58
1, 36661, Note_on_c, 0, 68, 60
1, 36665, Note_off_c, 0, 56, 61
1, 36667, Note_off_c, 0, 60, 58
1, 36686, Note_on_c, 0, 64, 30
1, 36692, Note_off_c, 0, 68, 62
1, 36729, Note_on_c, 0, 60, 45
1, 36744, Note_on_c, 0, 56, 61
1, 36753, Note_off_c, 0, 64, 0
1, 36753, Note_on_c, 0, 64, 21
1, 36755, Note_on_c, 0, 68, 71
1, 36768, Note_off_c, 0, 60, 59
1, 36778, Note_off_c, 0, 56, 62
1, 36779, Note_off_c, 0, 68, 67
1, 36819, Note_off_c, 0, 64, 0
1, 36836, Note_on_c, 0, 60, 64
1, 36837, Note_on_c, 0, 64, 45
1, 36849, Note_on_c, 0, 56, 69
1, 36852, Note_on_c, 0, 68, 75
1, 36881, Note_off_c, 0, 60, 57
1, 36905, Note_off_c, 0, 64, 61
1, 36905, Note_off_c, 0, 68, 60
1, 36911, Note_off_c, 0, 56, 62
1, 37021, Note_on_c, 0, 37, 75
1, 37057, Control_c, 0, 64, 84
1, 37071, Control_c, 0, 64, 70
1, 37086, Control_c, 0, 64, 64
1, 37101, Control_c, 0, 64, 66
1, 37115, Control_c, 0, 64, 74
1, 37126, Note_on_c, 0, 89, 95
1, 37128, Note_on_c, 0, 77, 86
1, 37130, Control_c, 0, 64, 95
1, 37142, Note_off_c, 0, 37, 59
1, 37145, Control_c, 0, 64, 127
1, 37176, Note_off_c, 0, 77, 64
1, 37177, Note_off_c, 0, 89, 66
1, 37282, Note_on_c, 0, 61, 66
1, 37290, Note_on_c, 0, 56, 56
1, 37312, Note_off_c, 0, 61, 65
1, 37319, Note_off_c, 0, 56, 61
1, 37326, Note_on_c, 0, 68, 56
1, 37333, Note_on_c, 0, 65, 50
1, 37350, Note_off_c, 0, 68, 60
1, 37371, Note_off_c, 0, 65, 0
1, 37385, Note_on_c, 0, 61, 55
1, 37386, Note_on_c, 0, 65, 47
1, 37391, Note_on_c, 0, 56, 68
1, 37399, Note_on_c, 0, 68, 63
1, 37409, Note_off_c, 0, 61, 60
1, 37415, Note_off_c, 0, 56, 60
1, 37419, Note_off_c, 0, 65, 63
1, 37420, Note_off_c, 0, 68, 64
1, 37502, Control_c, 0, 64, 88
1, 37505, Note_on_c, 0, 37, 78
1, 37516, Control_c, 0, 64, 73
1, 37531, Control_c, 0, 64, 69
1, 37546, Control_c, 0, 64, 72
1, 37558, Note_off_c, 0, 37, 57
1, 37561, Control_c, 0, 64, 81
1, 37576, Control_c, 0, 64, 127
1, 37581, Note_on_c, 0, 89, 91
1, 37585, Note_on_c, 0, 77, 80
1, 37609, Note_off_c, 0, 89, 61
1, 37610, Note_off_c, 0, 77, 65
1, 37680, Note_on_c, 0, 61, 83
1, 37706, Note_on_c, 0, 56, 53
1, 37730, Note_on_c, 0, 65, 65
1, 37731, Note_off_c, 0, 56, 58
1, 37750, Note_off_c, 0, 61, 0
1, 37759, Note_off_c, 0, 65, 62
1, 37774, Note_on_c, 0, 61, 30
1, 37775, Note_on_c, 0, 56, 79
1, 37805, Note_off_c, 0, 61, 62
1, 37806, Poly_aftertouch_c, 0, 68, 127
1, 37807, Note_on_c, 0, 65, 67
1, 37808, Note_off_c, 0, 56, 64
1, 37836, Note_off_c, 0, 65, 62
1, 37847, Poly_aftertouch_c, 0, 68, 0
1, 37917, Note_on_c, 0, 39, 80
1, 37961, Note_on_c, 0, 43, 30
1, 37997, Control_c, 0, 64, 103
1, 38001, Note_off_c, 0, 43, 47
1, 38011, Control_c, 0, 64, 71
1, 38026, Control_c, 0, 64, 38
1, 38041, Control_c, 0, 64, 0
1, 38059, Note_on_c, 0, 87, 88
1, 38063, Note_on_c, 0, 75, 84
1, 38102, Control_c, 0, 64, 58
1, 38116, Control_c, 0, 64, 71
1, 38131, Control_c, 0, 64, 89
1, 38138, Note_off_c, 0, 39, 61
1, 38146, Control_c, 0, 64, 127
1, 38158, Note_off_c, 0, 87, 63
1, 38190, Note_off_c, 0, 75, 60
1, 38295, Note_on_c, 0, 60, 53
1, 38304, Note_on_c, 0, 56, 53
1, 38323, Note_on_c, 0, 68, 60
1, 38333, Note_off_c, 0, 60, 62
1, 38346, Note_off_c, 0, 56, 59
1, 38358, Note_off_c, 0, 68, 60
1, 38398, Poly_aftertouch_c, 0, 66, 127
1, 38417, Note_on_c, 0, 60, 66
1, 38420, Note_on_c, 0, 68, 62
1, 38426, Note_on_c, 0, 56, 54
1, 38453, Note_off_c, 0, 56, 60
1, 38453, Note_off_c, 0, 60, 60
1, 38455, Note_off_c, 0, 68, 58
1, 38491, Poly_aftertouch_c, 0, 66, 0
1, 38514, Note_on_c, 0, 57, 69
1, 38528, Note_on_c, 0, 60, 57
1, 38530, Note_on_c, 0, 69, 64
1, 38547, Note_on_c, 0, 66, 39
1, 38559, Note_off_c, 0, 57, 60
1, 38562, Note_off_c, 0, 60, 62
1, 38567, Note_off_c, 0, 69, 64
1, 38578, Note_off_c, 0, 66, 52
1, 38616, Note_on_c, 0, 57, 69
1, 38628, Note_on_c, 0, 69, 65
1, 38631, Note_on_c, 0, 66, 58
1, 38632, Note_on_c, 0, 60, 63
1, 38651, Note_off_c, 0, 69, 68
1, 38655, Note_off_c, 0, 57, 61
1, 38660, Note_off_c, 0, 66, 61
1, 38678, Note_off_c, 0, 60, 0
1, 38698, Note_on_c, 0, 57, 76
1, 38715, Poly_aftertouch_c, 0, 60, 127
1, 38717, Note_on_c, 0, 69, 79
1, 38722, Note_on_c, 0, 66, 65
1, 38725, Poly_aftertouch_c, 0, 60, 0
1, 38742, Note_off_c, 0, 66, 64
1, 38745, Note_off_c, 0, 69, 64
1, 38745, Note_off_c, 0, 57, 62
1, 38846, Note_on_c, 0, 39, 83
1, 38900, Note_off_c, 0, 39, 56
1, 38910, Note_on_c, 0, 87, 91
1, 38912, Note_on_c, 0, 75, 86
1, 38950, Note_off_c, 0, 87, 60
1, 38959, Note_off_c, 0, 75, 60
1, 39008, Note_on_c, 0, 60, 78
1, 39026, Note_on_c, 0, 57, 64
1, 39054, Note_on_c, 0, 69, 56
1, 39060, Note_off_c, 0, 57, 60
1, 39081, Note_off_c, 0, 69, 63
1, 39103, Note_on_c, 0, 57, 79
1, 39114, Poly_aftertouch_c, 0, 66, 127
1, 39121, Note_on_c, 0, 66, 3
1, 39121, Note_on_c, 0, 69, 80
1, 39129, Note_off_c, 0, 57, 63
1, 39139, Poly_aftertouch_c, 0, 71, 0
1, 39151, Note_off_c, 0, 69, 61
1, 39152, Note_off_c, 0, 60, 23
1, 39161, Note_off_c, 0, 66, 55
1, 39236, Note_on_c, 0, 40, 86
1, 39317, Control_c, 0, 64, 80
1, 39332, Control_c, 0, 64, 58
1, 39347, Control_c, 0, 64, 0
1, 39381, Note_on_c, 0, 85, 91
1, 39385, Note_on_c, 0, 73, 88
1, 39391, Control_c, 0, 64, 21
1, 39400, Note_off_c, 0, 40, 64
1, 39406, Control_c, 0, 64, 65
1, 39421, Control_c, 0, 64, 77
1, 39436, Control_c, 0, 64, 113
1, 39451, Control_c, 0, 64, 127
1, 39468, Note_off_c, 0, 85, 65
1, 39501, Note_off_c, 0, 73, 60
1, 39590, Note_on_c, 0, 57, 56
1, 39593, Note_on_c, 0, 61, 50
1, 39622, Note_off_c, 0, 61, 58
1, 39623, Note_on_c, 0, 69, 64
1, 39648, Note_off_c, 0, 57, 56
1, 39657, Note_off_c, 0, 69, 59
1, 39707, Note_on_c, 0, 61, 65
1, 39708, Note_on_c, 0, 57, 52
1, 39714, Note_on_c, 0, 67, 9
1, 39725, Note_on_c, 0, 69, 51
1, 39743, Note_off_c, 0, 61, 58
1, 39744, Note_off_c, 0, 69, 62
1, 39759, Note_off_c, 0, 57, 62
1, 39767, Note_off_c, 0, 67, 59
1, 39822, Note_on_c, 0, 61, 63
1, 39824, Note_on_c, 0, 58, 71
1, 39830, Note_on_c, 0, 70, 67
1, 39853, Note_off_c, 0, 61, 64
1, 39855, Note_on_c, 0, 67, 28
1, 39861, Note_off_c, 0, 58, 61
1, 39862, Note_off_c, 0, 70, 62
1, 39912, Note_off_c, 0, 67, 0
1, 39922, Note_on_c, 0, 70, 70
1, 39925, Note_on_c, 0, 67, 44
1, 39932, Note_on_c, 0, 61, 67
1, 39933, Note_on_c, 0, 58, 54
1, 39952, Note_off_c, 0, 70, 61
1, 39958, Note_off_c, 0, 61, 67
1, 39963, Note_off_c, 0, 58, 66
1, 39967, Note_off_c, 0, 67, 59
1, 40017, Note_on_c, 0, 67, 57
1, 40019, Note_on_c, 0, 70, 85
1, 40020, Note_on_c, 0, 58, 74
1, 40021, Note_on_c, 0, 61, 69
1, 40055, Note_off_c, 0, 67, 62
1, 40056, Note_off_c, 0, 61, 64
1, 40057, Note_off_c, 0, 58, 65
1, 40071, Note_off_c, 0, 70, 58
1, 40195, Note_on_c, 0, 40, 75
1, 40199, Control_c, 0, 64, 95
1, 40214, Control_c, 0, 64, 72
1, 40229, Control_c, 0, 64, 64
1, 40243, Note_off_c, 0, 40, 61
1, 40244, Control_c, 0, 64, 67
1, 40256, Note_on_c, 0, 85, 87
1, 40258, Control_c, 0, 64, 76
1, 40269, Note_on_c, 0, 73, 74
1, 40273, Control_c, 0, 64, 96
1, 40288, Control_c, 0, 64, 127
1, 40304, Note_off_c, 0, 73, 58
1, 40310, Note_off_c, 0, 85, 63
1, 40414, Note_on_c, 0, 70, 58
1, 40417, Note_on_c, 0, 58, 35
1, 40430, Note_on_c, 0, 67, 44
1, 40446, Note_off_c, 0, 70, 61
1, 40460, Note_on_c, 0, 61, 28
1, 40468, Note_off_c, 0, 58, 0
1, 40479, Note_off_c, 0, 67, 0
1, 40479, Note_on_c, 0, 67, 36
1, 40479, Note_on_c, 0, 58, 54
1, 40491, Note_on_c, 0, 70, 64
1, 40498, Note_off_c, 0, 61, 62
1, 40509, Note_off_c, 0, 58, 64
1, 40515, Note_off_c, 0, 70, 68
1, 40517, Note_off_c, 0, 67, 62
1, 40640, Note_on_c, 0, 41, 72
1, 40688, Control_c, 0, 64, 84
1, 40703, Control_c, 0, 64, 62
1, 40718, Control_c, 0, 64, 0
1, 40744, Note_on_c, 0, 85, 78
1, 40748, Control_c, 0, 64, 20
1, 40749, Note_on_c, 0, 73, 71
1, 40763, Control_c, 0, 64, 63
1, 40780, Note_off_c, 0, 41, 61
1, 40785, Control_c, 0, 64, 78
1, 40800, Control_c, 0, 64, 127
1, 40845, Note_off_c, 0, 85, 63
1, 40858, Note_off_c, 0, 73, 61
1, 40992, Note_on_c, 0, 61, 44
1, 41013, Note_on_c, 0, 59, 47
1, 41038, Note_on_c, 0, 71, 49
1, 41040, Note_off_c, 0, 61, 60
1, 41055, Note_off_c, 0, 59, 61
1, 41073, Note_off_c, 0, 71, 56
1, 41125, Note_on_c, 0, 71, 56
1, 41131, Note_on_c, 0, 68, 12
1, 41142, Note_on_c, 0, 59, 51
1, 41147, Note_on_c, 0, 61, 44
1, 41162, Note_off_c, 0, 71, 61
1, 41174, Note_off_c, 0, 61, 55
1, 41178, Note_off_c, 0, 59, 62
1, 41183, Note_off_c, 0, 68, 46
1, 41237, Note_on_c, 0, 72, 58
1, 41243, Note_on_c, 0, 61, 45
1, 41245, Note_on_c, 0, 68, 44
1, 41246, Note_on_c, 0, 60, 57
1, 41270, Note_off_c, 0, 61, 57
1, 41272, Note_off_c, 0, 72, 61
1, 41275, Note_off_c, 0, 68, 55
1, 41283, Note_off_c, 0, 60, 62
1, 41331, Note_on_c, 0, 72, 60
1, 41350, Note_on_c, 0, 68, 39
1, 41361, Note_off_c, 0, 72, 64
1, 41362, Note_on_c, 0, 61, 43
1, 41365, Note_on_c, 0, 60, 45
1, 41379, Note_off_c, 0, 68, 53
1, 41384, Note_off_c, 0, 60, 59
1, 41395, Note_off_c, 0, 61, 51
1, 41433, Note_on_c, 0, 72, 69
1, 41448, Note_on_c, 0, 61, 41
1, 41451, Note_on_c, 0, 68, 35
1, 41454, Note_on_c, 0, 60, 42
1, 41460, Note_off_c, 0, 72, 65
1, 41471, Note_off_c, 0, 61, 60
1, 41484, Note_off_c, 0, 60, 51
1, 41487, Note_off_c, 0, 68, 51
1, 41690, Poly_aftertouch_c, 0, 42, 127
1, 41725, Note_on_c, 0, 84, 73
1, 41730, Poly_aftertouch_c, 0, 42, 0
1, 41731, Note_on_c, 0, 72, 66
1, 41748, Note_off_c, 0, 84, 67
1, 41756, Note_off_c, 0, 72, 63
1, 41771, Control_c, 0, 64, 102
1, 41785, Control_c, 0, 64, 74
1, 41800, Control_c, 0, 64, 56
1, 41814, Note_on_c, 0, 84, 73
1, 41815, Control_c, 0, 64, 0
1, 41819, Note_on_c, 0, 72, 66
1, 41829, Note_on_c, 0, 42, 58
1, 41845, Control_c, 0, 64, 51
1, 41860, Control_c, 0, 64, 67
1, 41874, Control_c, 0, 64, 86
1, 41889, Control_c, 0, 64, 127
1, 41896, Note_off_c, 0, 84, 57
1, 41905, Note_off_c, 0, 42, 56
1, 42009, Note_off_c, 0, 72, 53
1, 42109, Note_on_c, 0, 60, 56
1, 42113, Note_on_c, 0, 72, 60
1, 42149, Note_off_c, 0, 60, 61
1, 42149, Poly_aftertouch_c, 0, 69, 127
1, 42173, Note_on_c, 0, 78, 61
1, 42182, Poly_aftertouch_c, 0, 69, 0
1, 42196, Note_off_c, 0, 72, 59
1, 42204, Note_on_c, 0, 73, 31
1, 42314, Note_off_c, 0, 78, 58
1, 42325, Note_on_c, 0, 81, 75
1, 42326, Note_on_c, 0, 49, 61
1, 42342, Note_off_c, 0, 73, 58
1, 42348, Note_on_c, 0, 69, 48
1, 42371, Note_off_c, 0, 49, 60
1, 42417, Note_off_c, 0, 69, 58
1, 42426, Note_off_c, 0, 81, 59
1, 42442, Note_on_c, 0, 78, 54
1, 42474, Note_off_c, 0, 78, 63
1, 42490, Note_on_c, 0, 69, 55
1, 42506, Poly_aftertouch_c, 0, 73, 127
1, 42520, Note_on_c, 0, 66, 40
1, 42527, Note_on_c, 0, 57, 51
1, 42551, Note_off_c, 0, 66, 52
1, 42557, Note_off_c, 0, 57, 64
1, 42558, Note_on_c, 0, 78, 66
1, 42582, Note_off_c, 0, 69, 52
1, 42673, Poly_aftertouch_c, 0, 73, 0
1, 42700, Note_on_c, 0, 42, 68
1, 42700, Note_on_c, 0, 82, 87
1, 42714, Note_on_c, 0, 70, 66
1, 42720, Note_off_c, 0, 78, 62
1, 42734, Note_off_c, 0, 42, 62
1, 42770, Note_off_c, 0, 70, 58
1, 42797, Note_on_c, 0, 73, 59
1, 42804, Note_on_c, 0, 78, 53
1, 42821, Note_off_c, 0, 82, 61
1, 42837, Note_off_c, 0, 78, 65
1, 42843, Note_off_c, 0, 73, 56
1, 42862, Note_on_c, 0, 61, 69
1, 42873, Note_on_c, 0, 70, 54
1, 42890, Note_on_c, 0, 58, 60
1, 42891, Note_off_c, 0, 61, 65
1, 42918, Note_on_c, 0, 78, 65
1, 42921, Note_off_c, 0, 58, 64
1, 42950, Note_on_c, 0, 73, 45
1, 43008, Note_off_c, 0, 70, 58
1, 43034, Note_off_c, 0, 73, 57
1, 43066, Note_on_c, 0, 41, 73
1, 43091, Control_c, 0, 64, 80
1, 43106, Control_c, 0, 64, 60
1, 43109, Note_on_c, 0, 83, 86
1, 43119, Note_off_c, 0, 78, 62
1, 43121, Control_c, 0, 64, 31
1, 43123, Note_on_c, 0, 71, 66
1, 43135, Control_c, 0, 64, 40
1, 43150, Control_c, 0, 64, 60
1, 43165, Control_c, 0, 64, 71
1, 43180, Control_c, 0, 64, 96
1, 43184, Note_off_c, 0, 41, 62
1, 43195, Control_c, 0, 64, 127
1, 43251, Note_on_c, 0, 74, 55
1, 43253, Note_off_c, 0, 71, 56
1, 43281, Note_on_c, 0, 80, 44
1, 43309, Note_off_c, 0, 80, 57
1, 43327, Note_off_c, 0, 74, 59
1, 43356, Note_off_c, 0, 83, 40
1, 43359, Note_on_c, 0, 62, 49
1, 43365, Note_on_c, 0, 71, 54
1, 43370, Note_on_c, 0, 56, 55
1, 43394, Note_on_c, 0, 80, 65
1, 43431, Note_on_c, 0, 74, 52
1, 43453, Note_off_c, 0, 71, 59
1, 43459, Note_off_c, 0, 62, 54
1, 43476, Note_off_c, 0, 80, 61
1, 43517, Note_on_c, 0, 81, 85
1, 43529, Note_on_c, 0, 50, 71
1, 43529, Note_on_c, 0, 69, 73
1, 43541, Note_off_c, 0, 74, 59
1, 43571, Note_off_c, 0, 56, 26
1, 43607, Note_off_c, 0, 69, 59
1, 43610, Note_on_c, 0, 77, 67
1, 43619, Note_off_c, 0, 50, 52
1, 43638, Note_on_c, 0, 74, 49
1, 43650, Note_off_c, 0, 81, 60
1, 43683, Note_off_c, 0, 77, 59
1, 43684, Note_on_c, 0, 62, 59
1, 43687, Note_off_c, 0, 74, 59
1, 43697, Note_on_c, 0, 69, 69
1, 43699, Note_on_c, 0, 56, 60
1, 43716, Note_off_c, 0, 62, 63
1, 43738, Note_off_c, 0, 56, 61
1, 43761, Note_on_c, 0, 77, 63
1, 43764, Note_on_c, 0, 74, 55
1, 43790, Note_off_c, 0, 69, 61
1, 43869, Note_on_c, 0, 41, 79
1, 43887, Note_on_c, 0, 82, 94
1, 43899, Note_on_c, 0, 70, 76
1, 43902, Note_off_c, 0, 77, 50
1, 43903, Note_off_c, 0, 41, 66
1, 43915, Note_off_c, 0, 74, 60
1, 43982, Note_on_c, 0, 77, 67
1, 43982, Note_off_c, 0, 70, 60
1, 43988, Note_on_c, 0, 74, 56
1, 44007, Note_off_c, 0, 82, 59
1, 44024, Note_on_c, 0, 62, 63
1, 44037, Note_off_c, 0, 77, 60
1, 44044, Note_off_c, 0, 74, 56
1, 44045, Note_on_c, 0, 70, 68
1, 44053, Note_off_c, 0, 62, 64
1, 44054, Note_on_c, 0, 56, 67
1, 44084, Note_off_c, 0, 56, 62
1, 44089, Note_on_c, 0, 74, 52
1, 44098, Note_on_c, 0, 77, 57
1, 44100, Note_off_c, 0, 70, 59
1, 44212, Note_on_c, 0, 39, 83
1, 44313, Control_c, 0, 64, 83
1, 44328, Note_on_c, 0, 82, 91
1, 44328, Control_c, 0, 64, 61
1, 44337, Note_on_c, 0, 70, 74
1, 44343, Control_c, 0, 64, 0
1, 44349, Note_off_c, 0, 77, 60
1, 44361, Note_off_c, 0, 74, 60
1, 44387, Control_c, 0, 64, 61
1, 44395, Note_off_c, 0, 39, 62
1, 44402, Control_c, 0, 64, 75
1, 44417, Control_c, 0, 64, 127
1, 44510, Note_off_c, 0, 70, 56
1, 44525, Note_on_c, 0, 78, 64
1, 44547, Note_on_c, 0, 75, 45
1, 44565, Note_off_c, 0, 82, 60
1, 44572, Note_off_c, 0, 75, 59
1, 44575, Note_off_c, 0, 78, 59
1, 44610, Note_on_c, 0, 70, 63
1, 44644, Note_off_c, 0, 70, 62
1, 44656, Note_on_c, 0, 78, 50
1, 44664, Note_on_c, 0, 66, 62
1, 44671, Note_on_c, 0, 75, 38
1, 44672, Note_on_c, 0, 58, 63
1, 44685, Note_off_c, 0, 78, 63
1, 44699, Note_on_c, 0, 70, 71
1, 44711, Note_off_c, 0, 75, 44
1, 44718, Note_on_c, 0, 63, 41
1, 44727, Note_off_c, 0, 70, 65
1, 44748, Note_off_c, 0, 66, 60
1, 44775, Note_off_c, 0, 58, 62
1, 44775, Note_off_c, 0, 63, 61
1, 44779, Note_on_c, 0, 75, 15
1, 44789, Note_on_c, 0, 70, 69
1, 44792, Note_on_c, 0, 78, 34
1, 44861, Note_off_c, 0, 75, 58
1, 44864, Note_off_c, 0, 78, 62
1, 44867, Note_off_c, 0, 70, 60
1, 44934, Note_on_c, 0, 39, 80
1, 44988, Control_c, 0, 64, 91
1, 45003, Control_c, 0, 64, 70
1, 45018, Control_c, 0, 64, 61
1, 45033, Control_c, 0, 64, 63
1, 45047, Control_c, 0, 64, 68
1, 45062, Control_c, 0, 64, 80
1, 45077, Control_c, 0, 64, 127
1, 45081, Note_on_c, 0, 90, 96
1, 45088, Note_on_c, 0, 78, 86
1, 45098, Note_off_c, 0, 39, 60
1, 45151, Note_off_c, 0, 90, 63
1, 45162, Note_off_c, 0, 78, 60
1, 45237, Note_on_c, 0, 63, 71
1, 45261, Note_on_c, 0, 58, 47
1, 45276, Note_on_c, 0, 70, 73
1, 45276, Note_off_c, 0, 63, 61
1, 45284, Note_on_c, 0, 66, 62
1, 45297, Note_off_c, 0, 58, 57
1, 45301, Note_off_c, 0, 70, 66
1, 45306, Note_off_c, 0, 66, 62
1, 45344, Note_on_c, 0, 63, 50
1, 45355, Note_on_c, 0, 58, 66
1, 45362, Note_on_c, 0, 70, 83
1, 45362, Note_off_c, 0, 63, 63
1, 45377, Note_on_c, 0, 66, 23
1, 45386, Note_off_c, 0, 70, 66
1, 45388, Note_off_c, 0, 58, 64
1, 45412, Note_off_c, 0, 66, 50
1, 45464, Note_on_c, 0, 39, 69
1, 45479, Note_on_c, 0, 42, 58
1, 45497, Note_off_c, 0, 39, 62
1, 45507, Poly_aftertouch_c, 0, 70, 127
1, 45511, Note_off_c, 0, 42, 60
1, 45514, Note_on_c, 0, 90, 89
1, 45520, Note_on_c, 0, 78, 91
1, 45538, Note_off_c, 0, 78, 70
1, 45542, Poly_aftertouch_c, 0, 70, 0
1, 45550, Note_off_c, 0, 90, 63
1, 45606, Note_on_c, 0, 63, 82
1, 45645, Note_on_c, 0, 70, 76
1, 45647, Note_on_c, 0, 66, 75
1, 45654, Note_on_c, 0, 58, 40
1, 45669, Note_off_c, 0, 70, 67
1, 45672, Note_off_c, 0, 66, 66
1, 45703, Note_off_c, 0, 63, 60
1, 45717, Note_on_c, 0, 66, 70
1, 45720, Note_on_c, 0, 70, 87
1, 45722, Note_off_c, 0, 58, 63
1, 45739, Note_off_c, 0, 70, 70
1, 45742, Note_off_c, 0, 66, 66
1, 45833, Note_on_c, 0, 41, 87
1, 45900, Control_c, 0, 64, 104
1, 45915, Control_c, 0, 64, 73
1, 45930, Control_c, 0, 64, 51
1, 45944, Control_c, 0, 64, 0
1, 45961, Note_on_c, 0, 89, 95
1, 45967, Note_on_c, 0, 77, 89
1, 45974, Control_c, 0, 64, 40
1, 45989, Control_c, 0, 64, 66
1, 45997, Note_off_c, 0, 41, 62
1, 46003, Control_c, 0, 64, 85
1, 46026, Control_c, 0, 64, 127
1, 46037, Note_off_c, 0, 89, 62
1, 46069, Note_off_c, 0, 77, 60
1, 46197, Note_on_c, 0, 62, 29
1, 46213, Note_on_c, 0, 70, 59
1, 46234, Note_off_c, 0, 62, 49
1, 46244, Note_on_c, 0, 68, 13
1, 46247, Note_off_c, 0, 70, 61
1, 46256, Poly_aftertouch_c, 0, 58, 127
1, 46283, Note_on_c, 0, 58, 27
1, 46300, Note_on_c, 0, 62, 63
1, 46309, Note_on_c, 0, 70, 67
1, 46334, Note_off_c, 0, 62, 59
1, 46336, Note_off_c, 0, 70, 65
1, 46351, Note_off_c, 0, 58, 62
1, 46386, Note_off_c, 0, 68, 0
1, 46397, Note_on_c, 0, 59, 74
1, 46402, Note_on_c, 0, 68, 41
1, 46404, Note_on_c, 0, 62, 64
1, 46404, Note_on_c, 0, 71, 70
1, 46430, Note_off_c, 0, 62, 66
1, 46438, Note_off_c, 0, 59, 60
1, 46441, Note_off_c, 0, 71, 57
1, 46442, Note_off_c, 0, 68, 61
1, 46489, Note_on_c, 0, 59, 68
1, 46494, Note_on_c, 0, 71, 61
1, 46503, Note_on_c, 0, 62, 69
1, 46509, Note_on_c, 0, 68, 54
1, 46522, Note_off_c, 0, 71, 64
1, 46530, Note_off_c, 0, 62, 66
1, 46531, Note_off_c, 0, 59, 58
1, 46533, Note_off_c, 0, 68, 59
1, 46581, Note_on_c, 0, 59, 72
1, 46582, Note_on_c, 0, 68, 72
1, 46583, Note_on_c, 0, 71, 85
1, 46586, Note_on_c, 0, 62, 72
1, 46610, Note_off_c, 0, 68, 64
1, 46612, Note_off_c, 0, 62, 67
1, 46615, Note_off_c, 0, 71, 62
1, 46621, Note_off_c, 0, 59, 63
1, 46715, Note_on_c, 0, 41, 84
1, 46759, Note_off_c, 0, 41, 61
1, 46775, Note_on_c, 0, 89, 99
1, 46775, Note_on_c, 0, 77, 95
1, 46796, Note_off_c, 0, 89, 65
1, 46814, Note_off_c, 0, 77, 61
1, 46872, Note_on_c, 0, 62, 83
1, 46894, Note_on_c, 0, 59, 67
1, 46915, Note_on_c, 0, 71, 68
1, 46927, Note_off_c, 0, 62, 60
1, 46931, Note_on_c, 0, 72, 46
1, 46944, Note_off_c, 0, 71, 65
1, 46955, Note_off_c, 0, 72, 57
1, 46984, Note_off_c, 0, 59, 63
1, 46986, Note_on_c, 0, 71, 87
1, 46987, Note_on_c, 0, 68, 66
1, 47016, Note_off_c, 0, 68, 64
1, 47028, Note_off_c, 0, 71, 59
1, 47095, Note_on_c, 0, 42, 88
1, 47131, Control_c, 0, 64, 77
1, 47146, Control_c, 0, 64, 57
1, 47161, Control_c, 0, 64, 0
1, 47205, Note_on_c, 0, 87, 91
1, 47205, Control_c, 0, 64, 65
1, 47209, Note_on_c, 0, 75, 92
1, 47220, Control_c, 0, 64, 82
1, 47235, Control_c, 0, 64, 127
1, 47260, Note_off_c, 0, 42, 59
1, 47271, Note_off_c, 0, 87, 64
1, 47300, Note_off_c, 0, 75, 61
1, 47389, Note_on_c, 0, 63, 66
1, 47413, Note_on_c, 0, 59, 60
1, 47421, Note_on_c, 0, 71, 69
1, 47445, Note_off_c, 0, 63, 59
1, 47450, Note_off_c, 0, 59, 61
1, 47453, Note_off_c, 0, 71, 60
1, 47493, Poly_aftertouch_c, 0, 68, 127
1, 47502, Note_on_c, 0, 63, 62
1, 47523, Note_on_c, 0, 59, 62
1, 47532, Note_on_c, 0, 71, 68
1, 47547, Note_off_c, 0, 63, 59
1, 47550, Note_off_c, 0, 59, 67
1, 47558, Note_off_c, 0, 71, 65
1, 47589, Poly_aftertouch_c, 0, 68, 0
1, 47623, Note_on_c, 0, 60, 68
1, 47624, Note_on_c, 0, 63, 62
1, 47628, Note_on_c, 0, 72, 81
1, 47656, Note_off_c, 0, 60, 63
1, 47657, Note_off_c, 0, 63, 63
1, 47667, Note_off_c, 0, 72, 57
1, 47703, Poly_aftertouch_c, 0, 68, 127
1, 47716, Note_on_c, 0, 63, 78
1, 47716, Note_on_c, 0, 68, 12
1, 47717, Note_on_c, 0, 60, 85
1, 47721, Note_on_c, 0, 72, 75
1, 47744, Note_off_c, 0, 63, 62
1, 47758, Note_off_c, 0, 72, 57
1, 47760, Note_off_c, 0, 68, 58
1, 47767, Note_off_c, 0, 60, 58
1, 47801, Note_on_c, 0, 63, 74
1, 47804, Note_on_c, 0, 60, 62
1, 47806, Note_on_c, 0, 68, 71
1, 47809, Note_on_c, 0, 72, 79
1, 47829, Note_off_c, 0, 63, 65
1, 47831, Note_off_c, 0, 68, 67
1, 47845, Note_off_c, 0, 72, 65
1, 47846, Note_off_c, 0, 60, 62
1, 47943, Note_on_c, 0, 42, 85
1, 47992, Note_on_c, 0, 44, 28
1, 47998, Note_off_c, 0, 42, 60
1, 48003, Note_on_c, 0, 75, 93
1, 48004, Note_on_c, 0, 87, 88
1, 48030, Note_off_c, 0, 44, 50
1, 48044, Note_off_c, 0, 87, 61
1, 48048, Note_off_c, 0, 75, 63
1, 48106, Note_on_c, 0, 63, 86
1, 48126, Note_on_c, 0, 60, 66
1, 48140, Note_on_c, 0, 72, 64
1, 48149, Note_on_c, 0, 68, 55
1, 48158, Note_off_c, 0, 72, 63
1, 48162, Note_on_c, 0, 71, 45
1, 48162, Note_off_c, 0, 63, 58
1, 48169, Note_off_c, 0, 68, 63
1, 48170, Note_off_c, 0, 60, 0
1, 48187, Note_off_c, 0, 71, 57
1, 48212, Poly_aftertouch_c, 0, 60, 0
1, 48212, Poly_aftertouch_c, 0, 61, 127
1, 48214, Note_on_c, 0, 72, 73
1, 48216, Note_on_c, 0, 68, 78
1, 48232, Note_on_c, 0, 71, 62
1, 48239, Note_off_c, 0, 68, 69
1, 48249, Note_off_c, 0, 71, 65
1, 48251, Poly_aftertouch_c, 0, 61, 0
1, 48279, Note_off_c, 0, 72, 50
1, 48331, Note_on_c, 0, 43, 91
1, 48421, Control_c, 0, 64, 79
1, 48435, Control_c, 0, 64, 55
1, 48451, Control_c, 0, 64, 0
1, 48477, Note_on_c, 0, 87, 92
1, 48481, Note_on_c, 0, 75, 93
1, 48495, Control_c, 0, 64, 62
1, 48510, Control_c, 0, 64, 73
1, 48512, Note_off_c, 0, 43, 63
1, 48525, Control_c, 0, 64, 99
1, 48540, Control_c, 0, 64, 127
1, 48560, Note_off_c, 0, 87, 64
1, 48596, Note_off_c, 0, 75, 60
1, 48668, Note_on_c, 0, 60, 65
1, 48680, Note_on_c, 0, 63, 64
1, 48709, Note_off_c, 0, 63, 64
1, 48710, Note_on_c, 0, 72, 65
1, 48731, Note_off_c, 0, 60, 58
1, 48744, Note_off_c, 0, 72, 59
1, 48754, Note_on_c, 0, 70, 7
1, 48774, Note_on_c, 0, 60, 45
1, 48775, Note_on_c, 0, 63, 79
1, 48800, Note_on_c, 0, 72, 68
1, 48834, Note_off_c, 0, 60, 58
1, 48841, Note_off_c, 0, 72, 59
1, 48876, Note_off_c, 0, 63, 56
1, 48887, Note_on_c, 0, 64, 76
1, 48889, Note_on_c, 0, 61, 75
1, 48897, Note_off_c, 0, 70, 0
1, 48906, Note_on_c, 0, 73, 77
1, 48909, Note_on_c, 0, 70, 51
1, 48942, Note_off_c, 0, 64, 61
1, 48948, Note_off_c, 0, 70, 62
1, 48951, Note_off_c, 0, 73, 56
1, 48952, Note_off_c, 0, 61, 61
1, 48992, Note_on_c, 0, 64, 69
1, 49001, Note_on_c, 0, 61, 62
1, 49002, Note_on_c, 0, 73, 77
1, 49021, Note_on_c, 0, 70, 67
1, 49049, Note_off_c, 0, 70, 64
1, 49056, Note_off_c, 0, 64, 63
1, 49059, Note_off_c, 0, 73, 59
1, 49068, Note_off_c, 0, 61, 61
1, 49093, Note_on_c, 0, 73, 76
1, 49103, Note_on_c, 0, 70, 82
1, 49109, Note_on_c, 0, 61, 66
1, 49114, Note_on_c, 0, 64, 72
1, 49124, Note_off_c, 0, 70, 68
1, 49145, Note_off_c, 0, 73, 63
1, 49177, Note_off_c, 0, 64, 60
1, 49190, Note_off_c, 0, 61, 62
1, 49375, Note_on_c, 0, 85, 92
1, 49376, Note_on_c, 0, 73, 89
1, 49418, Note_off_c, 0, 85, 63
1, 49421, Note_off_c, 0, 73, 59
1, 49462, Note_on_c, 0, 85, 86
1, 49467, Note_on_c, 0, 73, 80
1, 49467, Control_c, 0, 64, 99
1, 49472, Note_on_c, 0, 44, 83
1, 49482, Control_c, 0, 64, 67
1, 49497, Control_c, 0, 64, 0
1, 49541, Control_c, 0, 64, 59
1, 49553, Note_off_c, 0, 44, 62
1, 49556, Control_c, 0, 64, 74
1, 49571, Control_c, 0, 64, 113
1, 49586, Control_c, 0, 64, 127
1, 49672, Note_on_c, 0, 79, 52
1, 49679, Note_off_c, 0, 73, 59
1, 49682, Note_on_c, 0, 76, 56
1, 49717, Note_off_c, 0, 85, 60
1, 49729, Note_off_c, 0, 76, 57
1, 49733, Note_off_c, 0, 79, 64
1, 49770, Note_on_c, 0, 67, 52
1, 49771, Note_on_c, 0, 64, 60
1, 49779, Note_on_c, 0, 73, 55
1, 49783, Note_on_c, 0, 70, 49
1, 49820, Note_off_c, 0, 67, 59
1, 49827, Note_off_c, 0, 64, 62
1, 49830, Note_off_c, 0, 70, 49
1, 49840, Note_on_c, 0, 79, 65
1, 49845, Note_on_c, 0, 76, 58
1, 49863, Note_off_c, 0, 73, 59
1, 49955, Note_on_c, 0, 56, 75
1, 49956, Note_on_c, 0, 84, 89
1, 49959, Note_off_c, 0, 79, 45
1, 49965, Note_on_c, 0, 72, 81
1, 49981, Note_off_c, 0, 76, 63
1, 50081, Note_off_c, 0, 72, 60
1, 50084, Note_on_c, 0, 80, 69
1, 50087, Note_on_c, 0, 75, 63
1, 50117, Note_off_c, 0, 84, 59
1, 50124, Note_on_c, 0, 68, 65
1, 50136, Note_off_c, 0, 56, 46
1, 50140, Note_off_c, 0, 80, 62
1, 50141, Note_off_c, 0, 75, 57
1, 50145, Note_on_c, 0, 63, 63
1, 50155, Note_off_c, 0, 68, 62
1, 50165, Note_on_c, 0, 72, 73
1, 50182, Note_off_c, 0, 63, 61
1, 50214, Note_on_c, 0, 80, 63
1, 50222, Note_off_c, 0, 72, 62
1, 50226, Note_on_c, 0, 75, 51
1, 50279, Note_off_c, 0, 80, 61
1, 50285, Note_off_c, 0, 75, 60
1, 50310, Note_on_c, 0, 52, 85
1, 50316, Note_on_c, 0, 82, 91
1, 50326, Note_on_c, 0, 70, 89
1, 50354, Note_off_c, 0, 52, 62
1, 50418, Note_off_c, 0, 70, 59
1, 50426, Note_on_c, 0, 76, 61
1, 50430, Note_on_c, 0, 73, 61
1, 50454, Note_off_c, 0, 82, 61
1, 50455, Note_on_c, 0, 67, 60
1, 50468, Note_off_c, 0, 73, 59
1, 50474, Note_on_c, 0, 58, 58
1, 50479, Note_off_c, 0, 76, 62
1, 50480, Note_on_c, 0, 70, 65
1, 50482, Note_on_c, 0, 61, 52
1, 50488, Note_off_c, 0, 67, 63
1, 50539, Note_off_c, 0, 61, 60
1, 50549, Note_off_c, 0, 58, 59
1, 50558, Note_off_c, 0, 70, 60
1, 50559, Note_on_c, 0, 73, 60
1, 50571, Note_on_c, 0, 76, 43
1, 50658, Note_off_c, 0, 73, 0
1, 50659, Note_on_c, 0, 51, 88
1, 50668, Note_on_c, 0, 80, 99
1, 50676, Note_on_c, 0, 68, 88
1, 50680, Note_off_c, 0, 76, 55
1, 50695, Poly_aftertouch_c, 0, 73, 127
1, 50750, Poly_aftertouch_c, 0, 73, 0
1, 50760, Note_off_c, 0, 51, 56
1, 50763, Note_on_c, 0, 75, 69
1, 50775, Note_on_c, 0, 72, 67
1, 50775, Note_off_c, 0, 68, 60
1, 50795, Note_on_c, 0, 63, 67
1, 50805, Note_on_c, 0, 60, 62
1, 50820, Note_off_c, 0, 75, 60
1, 50824, Note_off_c, 0, 80, 56
1, 50829, Note_off_c, 0, 72, 58
1, 50835, Note_on_c, 0, 68, 59
1, 50849, Note_off_c, 0, 63, 59
1, 50865, Note_off_c, 0, 60, 60
1, 50895, Note_on_c, 0, 75, 65
1, 50899, Note_on_c, 0, 72, 51
1, 50990, Note_off_c, 0, 68, 34
1, 50995, Note_on_c, 0, 48, 92
1, 51014, Note_on_c, 0, 79, 96
1, 51019, Note_on_c, 0, 67, 81
1, 51024, Control_c, 0, 64, 81
1, 51032, Note_off_c, 0, 75, 62
1, 51034, Note_off_c, 0, 72, 62
1, 51039, Control_c, 0, 64, 70
1, 51050, Note_off_c, 0, 48, 64
1, 51054, Control_c, 0, 64, 69
1, 51069, Control_c, 0, 64, 80
1, 51084, Control_c, 0, 64, 127
1, 51109, Note_off_c, 0, 67, 60
1, 51114, Note_on_c, 0, 75, 66
1, 51127, Note_on_c, 0, 72, 49
1, 51152, Note_off_c, 0, 79, 63
1, 51162, Note_on_c, 0, 60, 59
1, 51166, Note_on_c, 0, 63, 60
1, 51173, Note_on_c, 0, 67, 79
1, 51180, Note_off_c, 0, 75, 60
1, 51193, Note_off_c, 0, 63, 67
1, 51226, Note_off_c, 0, 60, 60
1, 51234, Note_off_c, 0, 72, 0
1, 51234, Note_on_c, 0, 72, 8
1, 51242, Note_on_c, 0, 75, 54
1, 51275, Note_off_c, 0, 67, 56
1, 51330, Note_off_c, 0, 72, 58
1, 51335, Note_off_c, 0, 75, 61
1, 51354, Note_on_c, 0, 44, 81
1, 51355, Note_on_c, 0, 46, 80
1, 51360, Note_on_c, 0, 80, 95
1, 51366, Note_on_c, 0, 68, 83
1, 51384, Note_off_c, 0, 44, 65
1, 51387, Poly_aftertouch_c, 0, 72, 0
1, 51407, Note_off_c, 0, 46, 63
1, 51423, Poly_aftertouch_c, 0, 72, 127
1, 51444, Note_on_c, 0, 72, 26
1, 51447, Note_off_c, 0, 68, 60
1, 51453, Note_on_c, 0, 75, 68
1, 51467, Note_on_c, 0, 63, 71
1, 51470, Note_on_c, 0, 60, 64
1, 51482, Note_off_c, 0, 80, 61
1, 51494, Note_off_c, 0, 63, 64
1, 51496, Note_off_c, 0, 75, 58
1, 51512, Note_on_c, 0, 68, 77
1, 51524, Note_off_c, 0, 60, 59
1, 51541, Note_off_c, 0, 68, 64
1, 51558, Note_on_c, 0, 75, 66
1, 51578, Note_off_c, 0, 72, 0
1, 51599, Note_on_c, 0, 68, 92
1, 51605, Poly_aftertouch_c, 0, 72, 0
1, 51651, Note_off_c, 0, 75, 54
1, 51664, Poly_aftertouch_c, 0, 72, 0
1, 51670, Note_off_c, 0, 68, 64
1, 51687, Note_on_c, 0, 45, 95
1, 51803, Control_c, 0, 64, 78
1, 51818, Control_c, 0, 64, 43
1, 51833, Control_c, 0, 64, 0
1, 51877, Control_c, 0, 64, 44
1, 51885, Note_on_c, 0, 90, 112
1, 51891, Control_c, 0, 64, 75
1, 51905, Note_off_c, 0, 45, 61
1, 51906, Control_c, 0, 64, 127
1, 52004, Note_off_c, 0, 90, 64
1, 52103, Note_on_c, 0, 66, 70
1, 52153, Note_on_c, 0, 61, 63
1, 52159, Note_off_c, 0, 66, 58
1, 52166, Note_on_c, 0, 69, 58
1, 52171, Note_on_c, 0, 63, 55
1, 52200, Note_off_c, 0, 69, 62
1, 52218, Note_off_c, 0, 63, 59
1, 52226, Note_on_c, 0, 66, 67
1, 52229, Note_off_c, 0, 61, 61
1, 52275, Note_on_c, 0, 69, 47
1, 52286, Note_off_c, 0, 66, 59
1, 52296, Note_off_c, 0, 69, 62
1, 52305, Note_on_c, 0, 54, 95
1, 52378, Note_on_c, 0, 69, 61
1, 52432, Note_off_c, 0, 54, 56
1, 52432, Note_off_c, 0, 69, 61
1, 52486, Note_on_c, 0, 66, 56
1, 52489, Poly_aftertouch_c, 0, 75, 127
1, 52515, Poly_aftertouch_c, 0, 78, 0
1, 52516, Note_off_c, 0, 66, 63
1, 52524, Note_on_c, 0, 69, 51
1, 52524, Poly_aftertouch_c, 0, 75, 0
1, 52530, Note_on_c, 0, 61, 64
1, 52550, Note_on_c, 0, 63, 40
1, 52561, Note_off_c, 0, 69, 63
1, 52582, Note_off_c, 0, 63, 53
1, 52583, Note_off_c, 0, 61, 60
1, 52644, Poly_aftertouch_c, 0, 73, 127
1, 52650, Note_on_c, 0, 69, 58
1, 52672, Note_on_c, 0, 52, 94
1, 52684, Note_off_c, 0, 69, 63
1, 52719, Note_off_c, 0, 52, 65
1, 52730, Note_on_c, 0, 78, 38
1, 52740, Poly_aftertouch_c, 0, 73, 0
1, 52773, Note_off_c, 0, 78, 50
1, 52786, Note_on_c, 0, 69, 69
1, 52826, Note_off_c, 0, 69, 60
1, 52850, Note_on_c, 0, 63, 44
1, 52879, Note_on_c, 0, 73, 20
1, 52896, Note_off_c, 0, 63, 47
1, 52904, Note_on_c, 0, 69, 69
1, 52918, Note_off_c, 0, 73, 44
1, 52979, Note_off_c, 0, 69, 58
1, 52997, Note_on_c, 0, 73, 33
1, 53015, Note_on_c, 0, 51, 94
1, 53036, Note_off_c, 0, 73, 52
1, 53066, Poly_aftertouch_c, 0, 78, 127
1, 53074, Note_off_c, 0, 51, 61
1, 53088, Poly_aftertouch_c, 0, 78, 0
1, 53101, Note_on_c, 0, 69, 65
1, 53125, Poly_aftertouch_c, 0, 78, 0
1, 53151, Note_off_c, 0, 69, 60
1, 53160, Note_on_c, 0, 66, 66
1, 53165, Note_on_c, 0, 73, 35
1, 53172, Note_on_c, 0, 78, 21
1, 53199, Note_on_c, 0, 61, 64
1, 53202, Note_off_c, 0, 73, 49
1, 53205, Note_off_c, 0, 66, 58
1, 53210, Note_off_c, 0, 78, 46
1, 53211, Note_on_c, 0, 69, 58
1, 53229, Note_on_c, 0, 63, 4
1, 53232, Note_off_c, 0, 61, 66
1, 53274, Note_off_c, 0, 69, 61
1, 53278, Note_off_c, 0, 63, 50
1, 53287, Note_on_c, 0, 75, 26
1, 53332, Note_on_c, 0, 50, 94
1, 53334, Note_off_c, 0, 75, 52
1, 53357, Poly_aftertouch_c, 0, 73, 127
1, 53381, Note_off_c, 0, 50, 65
1, 53400, Note_on_c, 0, 69, 42
1, 53445, Note_on_c, 0, 78, 66
1, 53464, Note_off_c, 0, 69, 56
1, 53469, Poly_aftertouch_c, 0, 73, 0
1, 53488, Note_on_c, 0, 75, 27
1, 53506, Poly_aftertouch_c, 0, 73, 127
1, 53521, Note_on_c, 0, 69, 55
1, 53522, Note_on_c, 0, 63, 40
1, 53530, Note_on_c, 0, 61, 47
1, 53548, Note_off_c, 0, 63, 59
1, 53551, Note_off_c, 0, 78, 55
1, 53563, Note_off_c, 0, 61, 65
1, 53567, Note_on_c, 0, 66, 65
1, 53597, Poly_aftertouch_c, 0, 73, 0
1, 53606, Note_off_c, 0, 69, 61
1, 53613, Note_off_c, 0, 75, 35
1, 53627, Note_off_c, 0, 66, 60
1, 53682, Note_on_c, 0, 51, 93
1, 53696, Note_on_c, 0, 87, 107
1, 53731, Note_off_c, 0, 51, 61
1, 53744, Note_off_c, 0, 87, 66
1, 53816, Note_on_c, 0, 61, 67
1, 53822, Note_on_c, 0, 66, 46
1, 53830, Note_on_c, 0, 63, 45
1, 53845, Note_off_c, 0, 61, 65
1, 53851, Note_off_c, 0, 66, 53
1, 53855, Note_on_c, 0, 67, 56
1, 53859, Note_off_c, 0, 63, 53
1, 53861, Note_on_c, 0, 78, 65
1, 53867, Note_on_c, 0, 69, 42
1, 53876, Note_off_c, 0, 67, 60
1, 53888, Note_on_c, 0, 74, 55
1, 53891, Note_off_c, 0, 69, 58
1, 53893, Note_on_c, 0, 72, 29
1, 53926, Note_off_c, 0, 74, 62
1, 53927, Note_off_c, 0, 72, 53
1, 53933, Note_on_c, 0, 67, 66
1, 53937, Note_on_c, 0, 69, 78
1, 53952, Note_off_c, 0, 78, 61
1, 53992, Note_off_c, 0, 67, 58
1, 53992, Note_off_c, 0, 69, 60
1, 54029, Poly_aftertouch_c, 0, 44, 0
1, 54043, Note_on_c, 0, 44, 55
1, 54048, Control_c, 0, 64, 96
1, 54063, Control_c, 0, 64, 65
1, 54078, Control_c, 0, 64, 0
1, 54104, Note_on_c, 0, 84, 106
1, 54108, Control_c, 0, 64, 24
1, 54123, Control_c, 0, 64, 68
1, 54138, Control_c, 0, 64, 89
1, 54138, Note_off_c, 0, 44, 61
1, 54153, Control_c, 0, 64, 127
1, 54162, Note_off_c, 0, 84, 64
1, 54277, Note_on_c, 0, 78, 34
1, 54307, Note_off_c, 0, 78, 51
1, 54323, Note_on_c, 0, 69, 59
1, 54335, Note_on_c, 0, 72, 64
1, 54364, Note_off_c, 0, 72, 64
1, 54368, Note_on_c, 0, 60, 66
1, 54373, Note_on_c, 0, 75, 44
1, 54373, Note_off_c, 0, 69, 49
1, 54376, Note_on_c, 0, 78, 67
1, 54404, Note_off_c, 0, 78, 67
1, 54409, Note_on_c, 0, 66, 51
1, 54409, Note_on_c, 0, 72, 75
1, 54409, Note_off_c, 0, 75, 55
1, 54433, Note_on_c, 0, 63, 15
1, 54450, Note_off_c, 0, 66, 60
1, 54451, Note_off_c, 0, 60, 57
1, 54452, Note_off_c, 0, 72, 61
1, 54460, Note_on_c, 0, 69, 70
1, 54477, Note_off_c, 0, 63, 53
1, 54537, Note_off_c, 0, 69, 57
1, 54543, Note_on_c, 0, 93, 107
1, 54549, Note_on_c, 0, 66, 57
1, 54564, Note_on_c, 0, 60, 62
1, 54572, Note_on_c, 0, 63, 60
1, 54579, Note_off_c, 0, 93, 67
1, 54608, Note_off_c, 0, 63, 60
1, 54626, Note_off_c, 0, 66, 54
1, 54633, Note_off_c, 0, 60, 49
1, 54652, Note_on_c, 0, 69, 66
1, 54701, Note_on_c, 0, 81, 74
1, 54702, Note_off_c, 0, 69, 50
1, 54721, Note_on_c, 0, 63, 53
1, 54734, Note_on_c, 0, 60, 57
1, 54737, Note_on_c, 0, 66, 42
1, 54760, Note_on_c, 0, 75, 17
1, 54770, Note_off_c, 0, 63, 52
1, 54773, Note_off_c, 0, 81, 58
1, 54773, Note_on_c, 0, 72, 76
1, 54787, Note_off_c, 0, 60, 50
1, 54796, Note_off_c, 0, 66, 40
1, 54800, Note_on_c, 0, 69, 70
1, 54801, Note_off_c, 0, 75, 50
1, 54814, Note_off_c, 0, 72, 61
1, 54884, Note_off_c, 0, 69, 57
1, 54888, Note_on_c, 0, 63, 64
1, 54889, Note_on_c, 0, 66, 59
1, 54889, Note_on_c, 0, 92, 101
1, 54893, Note_on_c, 0, 60, 66
1, 54924, Note_off_c, 0, 66, 58
1, 54928, Note_off_c, 0, 92, 68
1, 54939, Note_off_c, 0, 63, 52
1, 54973, Note_on_c, 0, 69, 70
1, 54975, Note_off_c, 0, 60, 52
1, 55024, Note_on_c, 0, 72, 77
1, 55047, Note_off_c, 0, 69, 59
1, 55047, Note_off_c, 0, 72, 65
1, 55056, Note_on_c, 0, 80, 63
1, 55058, Note_on_c, 0, 66, 51
1, 55059, Note_on_c, 0, 75, 50
1, 55060, Note_on_c, 0, 63, 66
1, 55065, Note_on_c, 0, 60, 33
1, 55092, Note_off_c, 0, 75, 48
1, 55108, Note_off_c, 0, 60, 53
1, 55109, Note_off_c, 0, 63, 51
1, 55113, Note_on_c, 0, 72, 80
1, 55116, Note_off_c, 0, 66, 49
1, 55123, Note_off_c, 0, 80, 61
1, 55128, Note_on_c, 0, 69, 65
1, 55155, Note_off_c, 0, 72, 59
1, 55217, Note_off_c, 0, 69, 59
1, 55221, Note_on_c, 0, 60, 66
1, 55221, Note_on_c, 0, 63, 64
1, 55223, Note_on_c, 0, 90, 102
1, 55226, Note_on_c, 0, 66, 59
1, 55260, Note_off_c, 0, 66, 59
1, 55261, Note_off_c, 0, 90, 67
1, 55264, Note_off_c, 0, 63, 55
1, 55288, Note_off_c, 0, 60, 53
1, 55300, Note_on_c, 0, 69, 70
1, 55348, Note_on_c, 0, 72, 73
1, 55361, Note_on_c, 0, 60, 53
1, 55364, Note_off_c, 0, 69, 61
1, 55372, Note_on_c, 0, 63, 65
1, 55374, Note_on_c, 0, 66, 52
1, 55374, Note_on_c, 0, 78, 75
1, 55375, Note_off_c, 0, 72, 66
1, 55384, Note_on_c, 0, 75, 55
1, 55401, Note_off_c, 0, 63, 61
1, 55417, Note_off_c, 0, 66, 51
1, 55422, Note_off_c, 0, 60, 57
1, 55424, Note_off_c, 0, 75, 53
1, 55426, Note_on_c, 0, 69, 69
1, 55438, Note_on_c, 0, 72, 85
1, 55438, Note_off_c, 0, 78, 61
1, 55486, Note_off_c, 0, 72, 63
1, 55505, Note_on_c, 0, 63, 62
1, 55505, Note_off_c, 0, 69, 60
1, 55514, Note_on_c, 0, 66, 52
1, 55515, Note_on_c, 0, 60, 58
1, 55550, Note_off_c, 0, 66, 62
1, 55551, Note_on_c, 0, 89, 103
1, 55552, Note_off_c, 0, 63, 57
1, 55556, Note_off_c, 0, 60, 58
1, 55571, Note_on_c, 0, 69, 71
1, 55581, Note_off_c, 0, 89, 67
1, 55638, Note_off_c, 0, 69, 63
1, 55640, Note_on_c, 0, 66, 66
1, 55646, Note_on_c, 0, 60, 72
1, 55657, Note_on_c, 0, 63, 63
1, 55688, Note_on_c, 0, 72, 61
1, 55693, Note_on_c, 0, 76, 67
1, 55697, Note_off_c, 0, 63, 0
1, 55708, Note_on_c, 0, 75, 66
1, 55709, Note_on_c, 0, 69, 60
1, 55717, Note_off_c, 0, 72, 63
1, 55724, Note_off_c, 0, 76, 60
1, 55727, Note_off_c, 0, 69, 66
1, 55731, Note_off_c, 0, 60, 58
1, 55733, Note_off_c, 0, 66, 53
1, 55733, Poly_aftertouch_c, 0, 63, 127
1, 55748, Poly_aftertouch_c, 0, 63, 0
1, 55750, Note_off_c, 0, 75, 61
1, 55777, Note_on_c, 0, 71, 79
1, 55779, Note_on_c, 0, 72, 72
1, 55813, Note_off_c, 0, 71, 62
1, 55828, Note_off_c, 0, 72, 60
1, 55903, Note_on_c, 0, 44, 90
1, 55909, Note_on_c, 0, 90, 99
1, 55915, Note_on_c, 0, 92, 87
1, 55932, Note_off_c, 0, 92, 69
1, 55957, Note_off_c, 0, 44, 63
1, 55966, Note_off_c, 0, 90, 65
1, 56051, Note_on_c, 0, 66, 82
1, 56052, Note_on_c, 0, 72, 69
1, 56077, Note_off_c, 0, 72, 66
1, 56081, Note_on_c, 0, 78, 67
1, 56084, Note_on_c, 0, 63, 74
1, 56099, Note_off_c, 0, 66, 59
1, 56110, Note_on_c, 0, 75, 19
1, 56114, Note_off_c, 0, 63, 63
1, 56129, Note_on_c, 0, 72, 92
1, 56156, Note_off_c, 0, 75, 46
1, 56162, Note_off_c, 0, 78, 59
1, 56194, Note_off_c, 0, 72, 61
1, 56297, Note_on_c, 0, 45, 96
1, 56315, Note_on_c, 0, 90, 105
1, 56324, Control_c, 0, 64, 71
1, 56338, Control_c, 0, 64, 0
1, 56383, Control_c, 0, 64, 63
1, 56386, Note_off_c, 0, 90, 67
1, 56397, Control_c, 0, 64, 81
1, 56399, Note_off_c, 0, 45, 62
1, 56412, Control_c, 0, 64, 127
1, 56552, Note_on_c, 0, 63, 42
1, 56580, Note_off_c, 0, 63, 58
1, 56594, Note_on_c, 0, 66, 64
1, 56603, Note_on_c, 0, 69, 54
1, 56637, Note_off_c, 0, 66, 55
1, 56642, Note_off_c, 0, 69, 61
1, 56650, Note_on_c, 0, 61, 64
1, 56704, Note_on_c, 0, 66, 63
1, 56713, Note_off_c, 0, 61, 62
1, 56727, Note_on_c, 0, 78, 2
1, 56743, Note_on_c, 0, 69, 61
1, 56768, Note_off_c, 0, 78, 50
1, 56769, Note_off_c, 0, 66, 59
1, 56781, Note_off_c, 0, 69, 62
1, 56794, Note_on_c, 0, 54, 96
1, 56887, Note_on_c, 0, 69, 60
1, 56905, Note_off_c, 0, 54, 55
1, 56929, Note_off_c, 0, 69, 60
1, 56959, Note_on_c, 0, 66, 61
1, 57013, Note_off_c, 0, 66, 52
1, 57032, Note_on_c, 0, 61, 61
1, 57037, Note_on_c, 0, 69, 62
1, 57060, Note_off_c, 0, 61, 66
1, 57085, Note_off_c, 0, 69, 58
1, 57133, Note_on_c, 0, 52, 95
1, 57165, Note_on_c, 0, 69, 58
1, 57171, Poly_aftertouch_c, 0, 73, 127
1, 57178, Note_off_c, 0, 52, 65
1, 57201, Note_off_c, 0, 69, 60
1, 57240, Note_on_c, 0, 78, 43
1, 57276, Note_off_c, 0, 78, 54
1, 57281, Poly_aftertouch_c, 0, 73, 0
1, 57292, Note_on_c, 0, 69, 66
1, 57321, Note_on_c, 0, 63, 35
1, 57332, Note_on_c, 0, 66, 35
1, 57351, Note_off_c, 0, 69, 59
1, 57354, Note_off_c, 0, 63, 50
1, 57379, Note_on_c, 0, 78, 32
1, 57390, Note_on_c, 0, 73, 15
1, 57408, Note_on_c, 0, 69, 53
1, 57417, Note_off_c, 0, 78, 53
1, 57429, Note_off_c, 0, 73, 47
1, 57465, Note_off_c, 0, 66, 41
1, 57480, Note_on_c, 0, 51, 94
1, 57483, Note_off_c, 0, 69, 61
1, 57510, Note_on_c, 0, 78, 69
1, 57533, Note_off_c, 0, 51, 62
1, 57566, Note_off_c, 0, 78, 62
1, 57587, Note_on_c, 0, 69, 70
1, 57625, Note_on_c, 0, 66, 63
1, 57625, Note_off_c, 0, 69, 60
1, 57663, Note_on_c, 0, 73, 4
1, 57664, Note_on_c, 0, 78, 44
1, 57673, Note_on_c, 0, 63, 39
1, 57675, Note_on_c, 0, 61, 60
1, 57685, Note_off_c, 0, 66, 59
1, 57694, Note_off_c, 0, 78, 52
1, 57702, Poly_aftertouch_c, 0, 75, 127
1, 57706, Note_off_c, 0, 61, 65
1, 57706, Note_off_c, 0, 63, 52
1, 57707, Note_on_c, 0, 69, 69
1, 57713, Note_off_c, 0, 73, 47
1, 57742, Poly_aftertouch_c, 0, 75, 0
1, 57804, Note_on_c, 0, 50, 96
1, 57822, Note_off_c, 0, 69, 60
1, 57845, Note_off_c, 0, 50, 65
1, 57857, Note_on_c, 0, 78, 48
1, 57882, Note_off_c, 0, 78, 60
1, 57918, Note_on_c, 0, 69, 60
1, 57948, Note_off_c, 0, 69, 63
1, 57962, Note_on_c, 0, 78, 68
1, 57983, Note_on_c, 0, 75, 21
1, 57987, Note_on_c, 0, 73, 28
1, 57995, Note_on_c, 0, 63, 38
1, 58018, Note_on_c, 0, 61, 44
1, 58029, Note_off_c, 0, 73, 48
1, 58036, Note_on_c, 0, 69, 76
1, 58036, Note_off_c, 0, 63, 61
1, 58046, Note_off_c, 0, 78, 62
1, 58047, Note_off_c, 0, 61, 56
1, 58047, Note_off_c, 0, 75, 44
1, 58052, Note_on_c, 0, 66, 64
1, 58081, Note_off_c, 0, 69, 60
1, 58119, Note_off_c, 0, 66, 59
1, 58169, Note_on_c, 0, 51, 98
1, 58177, Note_on_c, 0, 87, 110
1, 58220, Note_off_c, 0, 51, 61
1, 58232, Note_off_c, 0, 87, 63
1, 58281, Poly_aftertouch_c, 0, 88, 0
1, 58302, Note_on_c, 0, 66, 65
1, 58315, Note_on_c, 0, 61, 65
1, 58320, Note_off_c, 0, 66, 66
1, 58326, Note_on_c, 0, 69, 69
1, 58328, Note_on_c, 0, 63, 44
1, 58339, Note_on_c, 0, 78, 58
1, 58341, Note_off_c, 0, 61, 66
1, 58341, Note_off_c, 0, 69, 68
1, 58347, Note_on_c, 0, 73, 53
1, 58351, Note_on_c, 0, 75, 61
1, 58357, Note_off_c, 0, 63, 54
1, 58395, Note_on_c, 0, 69, 94
1, 58406, Note_off_c, 0, 73, 45
1, 58427, Note_off_c, 0, 75, 58
1, 58437, Note_off_c, 0, 78, 60
1, 58474, Note_off_c, 0, 69, 60
1, 58535, Note_on_c, 0, 44, 85
1, 58541, Control_c, 0, 64, 109
1, 58556, Control_c, 0, 64, 70
1, 58571, Control_c, 0, 64, 0
1, 58603, Note_on_c, 0, 84, 101
1, 58615, Control_c, 0, 64, 66
1, 58630, Control_c, 0, 64, 89
1, 58632, Note_on_c, 0, 83, 48
1, 58633, Note_off_c, 0, 83, 127
1, 58636, Note_off_c, 0, 44, 63
1, 58645, Control_c, 0, 64, 127
1, 58666, Note_off_c, 0, 84, 62
1, 58821, Note_on_c, 0, 72, 64
1, 58831, Note_on_c, 0, 69, 62
1, 58841, Note_on_c, 0, 78, 45
1, 58844, Poly_aftertouch_c, 0, 66, 127
1, 58851, Note_off_c, 0, 72, 65
1, 58860, Note_on_c, 0, 75, 43
1, 58866, Note_on_c, 0, 60, 71
1, 58869, Note_off_c, 0, 69, 60
1, 58890, Note_off_c, 0, 75, 50
1, 58894, Note_off_c, 0, 78, 61
1, 58895, Note_on_c, 0, 63, 46
1, 58897, Note_on_c, 0, 72, 86
1, 58923, Note_off_c, 0, 63, 56
1, 58937, Note_off_c, 0, 72, 64
1, 58942, Note_off_c, 0, 60, 58
1, 58948, Note_on_c, 0, 69, 71
1, 58970, Poly_aftertouch_c, 0, 66, 0
1, 59024, Note_off_c, 0, 69, 57
1, 59029, Note_on_c, 0, 93, 109
1, 59039, Note_on_c, 0, 63, 54
1, 59049, Note_on_c, 0, 60, 67
1, 59056, Note_on_c, 0, 66, 52
1, 59066, Note_off_c, 0, 93, 64
1, 59083, Note_off_c, 0, 66, 55
1, 59095, Note_off_c, 0, 63, 57
1, 59111, Note_off_c, 0, 60, 55
1, 59129, Note_on_c, 0, 69, 74
1, 59176, Note_on_c, 0, 81, 87
1, 59194, Note_off_c, 0, 69, 59
1, 59198, Note_on_c, 0, 66, 54
1, 59206, Note_on_c, 0, 60, 62
1, 59206, Note_on_c, 0, 75, 53
1, 59213, Note_on_c, 0, 63, 60
1, 59227, Note_off_c, 0, 75, 59
1, 59239, Note_off_c, 0, 81, 60
1, 59245, Note_off_c, 0, 63, 64
1, 59251, Note_off_c, 0, 66, 44
1, 59256, Note_on_c, 0, 72, 81
1, 59256, Note_off_c, 0, 60, 55
1, 59270, Note_on_c, 0, 69, 75
1, 59291, Note_off_c, 0, 72, 60
1, 59352, Note_off_c, 0, 69, 58
1, 59360, Note_on_c, 0, 60, 80
1, 59360, Note_on_c, 0, 66, 68
1, 59363, Note_on_c, 0, 92, 109
1, 59366, Note_on_c, 0, 63, 63
1, 59389, Note_off_c, 0, 66, 64
1, 59392, Note_off_c, 0, 63, 66
1, 59403, Note_on_c, 0, 90, 29
1, 59405, Note_off_c, 0, 92, 68
1, 59432, Note_on_c, 0, 69, 80
1, 59432, Note_off_c, 0, 90, 59
1, 59467, Note_on_c, 0, 63, 79
1, 59470, Note_on_c, 0, 66, 64
1, 59475, Note_off_c, 0, 69, 62
1, 59483, Note_on_c, 0, 72, 83
1, 59502, Note_off_c, 0, 66, 64
1, 59513, Note_off_c, 0, 60, 61
1, 59513, Note_off_c, 0, 72, 65
1, 59518, Note_on_c, 0, 80, 69
1, 59527, Note_off_c, 0, 63, 61
1, 59529, Note_on_c, 0, 75, 45
1, 59554, Note_on_c, 0, 82, 20
1, 59554, Note_off_c, 0, 75, 55
1, 59572, Note_on_c, 0, 72, 94
1, 59590, Note_off_c, 0, 82, 51
1, 59593, Note_off_c, 0, 80, 59
1, 59622, Note_off_c, 0, 72, 65
1, 59669, Control_c, 0, 64, 84
1, 59684, Control_c, 0, 64, 56
1, 59691, Note_on_c, 0, 45, 106
1, 59699, Note_on_c, 0, 90, 112
1, 59699, Control_c, 0, 64, 0
1, 59713, Control_c, 0, 64, 57
1, 59728, Control_c, 0, 64, 72
1, 59741, Note_off_c, 0, 45, 63
1, 59743, Control_c, 0, 64, 106
1, 59754, Note_off_c, 0, 90, 68
1, 59758, Control_c, 0, 64, 127
1, 59885, Note_on_c, 0, 71, 72
1, 59908, Note_on_c, 0, 66, 72
1, 59911, Note_on_c, 0, 78, 59
1, 59918, Note_off_c, 0, 71, 61
1, 59938, Poly_aftertouch_c, 0, 62, 127
1, 59941, Note_on_c, 0, 75, 25
1, 59953, Note_on_c, 0, 71, 73
1, 59971, Note_off_c, 0, 78, 59
1, 59972, Poly_aftertouch_c, 0, 62, 0
1, 59972, Note_on_c, 0, 57, 83
1, 59980, Note_off_c, 0, 75, 48
1, 59983, Note_off_c, 0, 66, 59
1, 59995, Note_on_c, 0, 63, 55
1, 60005, Note_off_c, 0, 71, 63
1, 60029, Note_off_c, 0, 63, 62
1, 60043, Note_off_c, 0, 57, 61
1, 60043, Note_on_c, 0, 66, 81
1, 60064, Note_on_c, 0, 87, 105
1, 60100, Note_on_c, 0, 57, 82
1, 60100, Note_on_c, 0, 63, 79
1, 60109, Note_off_c, 0, 66, 60
1, 60118, Note_off_c, 0, 87, 67
1, 60158, Note_on_c, 0, 66, 81
1, 60158, Note_off_c, 0, 57, 59
1, 60167, Note_off_c, 0, 63, 60
1, 60195, Note_on_c, 0, 71, 79
1, 60234, Note_on_c, 0, 57, 80
1, 60237, Note_on_c, 0, 78, 73
1, 60237, Note_off_c, 0, 66, 59
1, 60237, Note_on_c, 0, 63, 68
1, 60250, Note_off_c, 0, 71, 62
1, 60255, Note_on_c, 0, 75, 56
1, 60288, Note_off_c, 0, 75, 62
1, 60293, Note_on_c, 0, 66, 75
1, 60295, Note_off_c, 0, 57, 60
1, 60301, Note_off_c, 0, 78, 59
1, 60302, Note_off_c, 0, 63, 60
1, 60314, Note_on_c, 0, 69, 65
1, 60314, Note_on_c, 0, 71, 66
1, 60354, Note_on_c, 0, 63, 63
1, 60357, Note_off_c, 0, 69, 58
1, 60358, Note_on_c, 0, 57, 77
1, 60360, Note_off_c, 0, 66, 59
1, 60371, Note_off_c, 0, 71, 61
1, 60410, Note_on_c, 0, 66, 89
1, 60419, Note_on_c, 0, 83, 100
1, 60456, Note_off_c, 0, 57, 62
1, 60460, Note_off_c, 0, 66, 62
1, 60466, Note_off_c, 0, 63, 62
1, 60482, Note_off_c, 0, 83, 63
1, 60503, Note_on_c, 0, 71, 85
1, 60541, Note_off_c, 0, 71, 66
1, 60583, Note_on_c, 0, 77, 44
1, 60595, Note_on_c, 0, 71, 101
1, 60606, Note_off_c, 0, 77, 59
1, 60636, Note_off_c, 0, 71, 66
1, 60716, Note_on_c, 0, 56, 83
1, 60722, Note_on_c, 0, 44, 99
1, 60750, Note_on_c, 0, 43, 64
1, 60800, Poly_aftertouch_c, 0, 47, 127
1, 60817, Control_c, 0, 64, 69
1, 60825, Note_off_c, 0, 43, 42
1, 60829, Poly_aftertouch_c, 0, 47, 0
1, 60832, Control_c, 0, 64, 0
1, 60853, Note_on_c, 0, 95, 114
1, 60855, Note_on_c, 0, 83, 118
1, 60876, Control_c, 0, 64, 45
1, 60891, Control_c, 0, 64, 82
1, 60906, Control_c, 0, 64, 127
1, 60931, Note_off_c, 0, 44, 63
1, 60960, Note_off_c, 0, 56, 61
1, 60982, Note_off_c, 0, 95, 64
1, 60988, Note_off_c, 0, 83, 62
1, 61110, Note_on_c, 0, 64, 64
1, 61111, Note_on_c, 0, 68, 78
1, 61114, Note_on_c, 0, 59, 70
1, 61143, Note_off_c, 0, 68, 59
1, 61160, Note_on_c, 0, 71, 85
1, 61167, Note_off_c, 0, 64, 61
1, 61172, Note_on_c, 0, 76, 63
1, 61173, Note_off_c, 0, 59, 58
1, 61184, Note_off_c, 0, 71, 64
1, 61189, Note_off_c, 0, 76, 68
1, 61194, Note_on_c, 0, 78, 27
1, 61202, Note_on_c, 0, 59, 63
1, 61212, Note_on_c, 0, 68, 87
1, 61225, Note_on_c, 0, 64, 57
1, 61227, Note_off_c, 0, 78, 57
1, 61252, Note_on_c, 0, 71, 67
1, 61256, Poly_aftertouch_c, 0, 80, 127
1, 61257, Note_on_c, 0, 76, 74
1, 61260, Note_off_c, 0, 64, 62
1, 61265, Note_off_c, 0, 68, 60
1, 61268, Note_off_c, 0, 59, 62
1, 61279, Note_off_c, 0, 76, 70
1, 61298, Note_off_c, 0, 71, 0
1, 61300, Note_on_c, 0, 59, 65
1, 61303, Note_on_c, 0, 68, 74
1, 61312, Note_on_c, 0, 64, 72
1, 61319, Poly_aftertouch_c, 0, 80, 0
1, 61329, Note_on_c, 0, 80, 63
1, 61334, Poly_aftertouch_c, 0, 71, 127
1, 61340, Note_on_c, 0, 76, 60
1, 61353, Note_off_c, 0, 68, 61
1, 61363, Note_off_c, 0, 59, 61
1, 61363, Note_off_c, 0, 64, 62
1, 61372, Poly_aftertouch_c, 0, 71, 0
1, 61373, Note_off_c, 0, 76, 64
1, 61384, Note_off_c, 0, 80, 61
1, 61397, Note_on_c, 0, 68, 81
1, 61398, Note_on_c, 0, 59, 72
1, 61399, Poly_aftertouch_c, 0, 64, 0
1, 61405, Note_on_c, 0, 64, 72
1, 61425, Note_on_c, 0, 80, 54
1, 61444, Note_on_c, 0, 71, 52
1, 61446, Note_on_c, 0, 76, 58
1, 61455, Note_off_c, 0, 80, 65
1, 61464, Note_off_c, 0, 76, 67
1, 61492, Note_off_c, 0, 68, 59
1, 61498, Note_on_c, 0, 80, 89
1, 61501, Note_on_c, 0, 76, 82
1, 61508, Note_off_c, 0, 59, 61
1, 61511, Note_off_c, 0, 64, 62
1, 61522, Note_off_c, 0, 71, 66
1, 61526, Note_on_c, 0, 78, 50
1, 61526, Note_off_c, 0, 76, 66
1, 61543, Note_off_c, 0, 80, 67
1, 61551, Note_off_c, 0, 78, 36
1, 61620, Note_on_c, 0, 53, 97
1, 61625, Control_c, 0, 64, 77
1, 61629, Note_on_c, 0, 41, 93
1, 61640, Control_c, 0, 64, 61
1, 61642, Note_on_c, 0, 42, 62
1, 61655, Control_c, 0, 64, 64
1, 61668, Note_off_c, 0, 42, 37
1, 61669, Note_on_c, 0, 80, 112
1, 61669, Control_c, 0, 64, 86
1, 61670, Note_on_c, 0, 92, 104
1, 61672, Note_off_c, 0, 41, 63
1, 61684, Control_c, 0, 64, 127
1, 61685, Note_off_c, 0, 53, 61
1, 61707, Note_off_c, 0, 92, 68
1, 61711, Note_off_c, 0, 80, 62
1, 61801, Note_on_c, 0, 65, 89
1, 61808, Note_on_c, 0, 60, 82
1, 61812, Note_on_c, 0, 56, 74
1, 61828, Note_on_c, 0, 77, 50
1, 61832, Note_on_c, 0, 68, 59
1, 61833, Note_on_c, 0, 64, 48
1, 61834, Note_off_c, 0, 64, 127
1, 61835, Note_on_c, 0, 78, 28
1, 61836, Note_off_c, 0, 78, 127
1, 61838, Note_on_c, 0, 72, 46
1, 61844, Note_off_c, 0, 65, 61
1, 61848, Note_off_c, 0, 77, 62
1, 61853, Note_off_c, 0, 60, 60
1, 61854, Note_off_c, 0, 68, 61
1, 61861, Note_off_c, 0, 72, 57
1, 61863, Poly_aftertouch_c, 0, 64, 0
1, 61866, Note_off_c, 0, 56, 59
1, 61879, Note_on_c, 0, 76, 73
1, 61882, Note_on_c, 0, 68, 86
1, 61889, Note_on_c, 0, 71, 67
1, 61906, Note_off_c, 0, 68, 66
1, 61915, Note_off_c, 0, 71, 68
1, 61925, Note_on_c, 0, 72, 25
1, 61935, Note_off_c, 0, 76, 66
1, 61964, Note_off_c, 0, 72, 45
1, 62013, Note_on_c, 0, 48, 100
1, 62021, Note_on_c, 0, 36, 93
1, 62037, Note_on_c, 0, 37, 55
1, 62052, Note_on_c, 0, 43, 38
1, 62070, Note_off_c, 0, 37, 54
1, 62088, Note_off_c, 0, 43, 50
1, 62122, Control_c, 0, 64, 67
1, 62136, Note_on_c, 0, 88, 114
1, 62136, Note_on_c, 0, 100, 120
1, 62137, Control_c, 0, 64, 0
1, 62181, Control_c, 0, 64, 41
1, 62196, Control_c, 0, 64, 75
1, 62210, Note_on_c, 0, 94, 18
1, 62211, Note_off_c, 0, 94, 127
1, 62211, Control_c, 0, 64, 127
1, 62217, Note_off_c, 0, 36, 63
1, 62251, Note_off_c, 0, 48, 67
1, 62265, Poly_aftertouch_c, 0, 94, 127
1, 62270, Note_off_c, 0, 100, 66
1, 62288, Note_off_c, 0, 88, 65
1, 62316, Poly_aftertouch_c, 0, 94, 0
1, 62398, Note_on_c, 0, 55, 74
1, 62398, Note_on_c, 0, 64, 71
1, 62414, Note_on_c, 0, 58, 56
1, 62433, Note_off_c, 0, 64, 60
1, 62443, Note_off_c, 0, 55, 55
1, 62446, Note_off_c, 0, 58, 64
1, 62453, Note_on_c, 0, 67, 80
1, 62455, Note_on_c, 0, 76, 77
1, 62466, Note_on_c, 0, 75, 43
1, 62467, Note_off_c, 0, 75, 127
1, 62472, Note_off_c, 0, 67, 66
1, 62477, Note_off_c, 0, 76, 70
1, 62478, Note_on_c, 0, 70, 42
1, 62514, Note_on_c, 0, 55, 75
1, 62514, Note_off_c, 0, 70, 55
1, 62516, Note_on_c, 0, 64, 79
1, 62526, Note_on_c, 0, 58, 72
1, 62541, Note_on_c, 0, 67, 80
1, 62550, Note_on_c, 0, 76, 80
1, 62558, Note_off_c, 0, 58, 61
1, 62562, Note_off_c, 0, 55, 61
1, 62564, Note_off_c, 0, 64, 62
1, 62571, Note_off_c, 0, 76, 68
1, 62593, Note_off_c, 0, 67, 56
1, 62607, Note_on_c, 0, 64, 70
1, 62610, Note_on_c, 0, 55, 74
1, 62616, Note_on_c, 0, 58, 77
1, 62619, Note_on_c, 0, 67, 64
1, 62632, Note_on_c, 0, 70, 49
1, 62636, Note_on_c, 0, 76, 80
1, 62651, Note_off_c, 0, 58, 57
1, 62660, Note_off_c, 0, 64, 63
1, 62668, Note_off_c, 0, 55, 62
1, 62671, Note_off_c, 0, 67, 61
1, 62673, Note_off_c, 0, 70, 62
1, 62673, Note_off_c, 0, 76, 60
1, 62705, Note_on_c, 0, 55, 76
1, 62707, Note_on_c, 0, 64, 76
1, 62713, Note_on_c, 0, 67, 79
1, 62717, Note_on_c, 0, 76, 78
1, 62720, Note_on_c, 0, 70, 80
1, 62722, Note_on_c, 0, 58, 78
1, 62753, Note_off_c, 0, 64, 65
1, 62757, Note_off_c, 0, 67, 65
1, 62771, Note_off_c, 0, 55, 64
1, 62771, Note_off_c, 0, 70, 63
1, 62781, Note_off_c, 0, 58, 62
1, 62781, Note_off_c, 0, 76, 65
1, 62902, Control_c, 0, 64, 81
1, 62905, Note_on_c, 0, 48, 100
1, 62912, Note_on_c, 0, 36, 88
1, 62917, Control_c, 0, 64, 63
1, 62926, Note_on_c, 0, 37, 62
1, 62931, Control_c, 0, 64, 60
1, 62939, Note_on_c, 0, 42, 40
1, 62940, Note_off_c, 0, 42, 127
1, 62946, Control_c, 0, 64, 70
1, 62955, Note_off_c, 0, 37, 57
1, 62961, Control_c, 0, 64, 127
1, 62970, Note_on_c, 0, 94, 107
1, 62971, Note_on_c, 0, 82, 116
1, 62972, Note_off_c, 0, 36, 64
1, 62991, Note_off_c, 0, 48, 64
1, 62995, Note_on_c, 0, 92, 56
1, 62996, Note_off_c, 0, 92, 127
1, 63001, Note_on_c, 0, 95, 53
1, 63020, Note_off_c, 0, 95, 63
1, 63035, Note_off_c, 0, 94, 67
1, 63038, Note_off_c, 0, 82, 61
1, 63113, Note_on_c, 0, 64, 92
1, 63120, Note_on_c, 0, 57, 85
1, 63135, Note_on_c, 0, 76, 76
1, 63141, Note_on_c, 0, 67, 77
1, 63146, Note_on_c, 0, 59, 53
1, 63155, Note_off_c, 0, 64, 65
1, 63160, Note_off_c, 0, 76, 65
1, 63165, Note_on_c, 0, 70, 36
1, 63165, Note_off_c, 0, 67, 68
1, 63170, Note_off_c, 0, 59, 60
1, 63173, Note_off_c, 0, 57, 65
1, 63209, Note_on_c, 0, 76, 91
1, 63209, Note_on_c, 0, 67, 81
1, 63223, Note_on_c, 0, 71, 78
1, 63226, Note_on_c, 0, 69, 65
1, 63230, Note_off_c, 0, 70, 0
1, 63236, Note_on_c, 0, 70, 29
1, 63236, Note_off_c, 0, 67, 66
1, 63251, Note_off_c, 0, 69, 66
1, 63251, Note_off_c, 0, 71, 69
1, 63262, Note_off_c, 0, 76, 68
1, 63282, Note_off_c, 0, 70, 50
1, 63333, Note_on_c, 0, 47, 105
1, 63340, Note_on_c, 0, 35, 93
1, 63397, Control_c, 0, 64, 70
1, 63398, Note_on_c, 0, 36, 3
1, 63412, Control_c, 0, 64, 0
1, 63417, Note_off_c, 0, 36, 46
1, 63456, Note_on_c, 0, 83, 116
1, 63456, Note_on_c, 0, 95, 118
1, 63456, Control_c, 0, 64, 56
1, 63461, Note_off_c, 0, 35, 63
1, 63471, Control_c, 0, 64, 80
1, 63486, Control_c, 0, 64, 127
1, 63490, Note_off_c, 0, 47, 65
1, 63528, Note_on_c, 0, 90, 1
1, 63537, Note_off_c, 0, 95, 62
1, 63544, Note_off_c, 0, 83, 60
1, 63572, Note_off_c, 0, 90, 50
1, 63617, Note_on_c, 0, 64, 82
1, 63622, Note_on_c, 0, 59, 69
1, 63629, Note_on_c, 0, 56, 62
1, 63674, Note_off_c, 0, 56, 0
1, 63676, Note_on_c, 0, 76, 63
1, 63686, Note_on_c, 0, 75, 26
1, 63687, Note_off_c, 0, 75, 127
1, 63689, Note_on_c, 0, 70, 25
1, 63690, Note_off_c, 0, 70, 127
1, 63697, Note_off_c, 0, 76, 66
1, 63706, Note_off_c, 0, 64, 60
1, 63707, Note_on_c, 0, 71, 23
1, 63711, Poly_aftertouch_c, 0, 56, 127
1, 63720, Note_on_c, 0, 68, 70
1, 63726, Note_on_c, 0, 76, 89
1, 63727, Note_off_c, 0, 59, 63
1, 63727, Poly_aftertouch_c, 0, 56, 0
1, 63746, Poly_aftertouch_c, 0, 70, 127
1, 63753, Note_off_c, 0, 68, 63
1, 63764, Note_off_c, 0, 71, 63
1, 63771, Note_off_c, 0, 76, 68
1, 63788, Poly_aftertouch_c, 0, 70, 0
1, 63830, Note_on_c, 0, 56, 93
1, 63835, Note_on_c, 0, 44, 86
1, 63841, Note_on_c, 0, 58, 76
1, 63852, Note_on_c, 0, 46, 61
1, 63866, Note_off_c, 0, 44, 66
1, 63866, Note_off_c, 0, 58, 53
1, 63873, Note_on_c, 0, 80, 107
1, 63873, Note_on_c, 0, 92, 108
1, 63875, Note_off_c, 0, 56, 62
1, 63890, Note_off_c, 0, 46, 63
1, 63909, Note_off_c, 0, 80, 65
1, 63911, Note_off_c, 0, 92, 66
1, 63984, Note_on_c, 0, 56, 77
1, 63997, Note_on_c, 0, 59, 71
1, 63999, Note_on_c, 0, 65, 70
1, 64005, Note_on_c, 0, 64, 67
1, 64011, Note_on_c, 0, 76, 66
1, 64016, Note_on_c, 0, 71, 65
1, 64029, Note_off_c, 0, 76, 65
1, 64035, Note_off_c, 0, 71, 66
1, 64041, Note_off_c, 0, 64, 60
1, 64041, Note_off_c, 0, 65, 60
1, 64068, Note_off_c, 0, 59, 61
1, 64070, Note_off_c, 0, 56, 62
1, 64074, Note_on_c, 0, 68, 84
1, 64074, Note_on_c, 0, 76, 83
1, 64077, Note_on_c, 0, 71, 87
1, 64101, Note_off_c, 0, 68, 64
1, 64111, Note_off_c, 0, 71, 63
1, 64124, Note_off_c, 0, 76, 65
1, 64145, Control_c, 0, 64, 118
1, 64160, Control_c, 0, 64, 81
1, 64174, Note_on_c, 0, 51, 93
1, 64175, Note_on_c, 0, 39, 93
1, 64175, Control_c, 0, 64, 78
1, 64190, Control_c, 0, 64, 84
1, 64193, Note_on_c, 0, 49, 70
1, 64204, Control_c, 0, 64, 121
1, 64211, Note_on_c, 0, 87, 98
1, 64211, Note_off_c, 0, 49, 65
1, 64213, Note_on_c, 0, 75, 110
1, 64219, Control_c, 0, 64, 127
1, 64222, Note_off_c, 0, 39, 61
1, 64222, Note_off_c, 0, 51, 60
1, 64240, Note_on_c, 0, 88, 68
1, 64247, Note_on_c, 0, 89, 45
1, 64252, Note_off_c, 0, 75, 63
1, 64258, Note_off_c, 0, 88, 67
1, 64259, Note_off_c, 0, 87, 61
1, 64265, Poly_aftertouch_c, 0, 38, 127
1, 64270, Note_off_c, 0, 89, 58
1, 64306, Poly_aftertouch_c, 0, 38, 0
1, 64315, Note_on_c, 0, 59, 88
1, 64322, Note_on_c, 0, 52, 80
1, 64325, Note_on_c, 0, 56, 84
1, 64343, Note_on_c, 0, 64, 80
1, 64348, Note_on_c, 0, 71, 63
1, 64358, Note_on_c, 0, 68, 50
1, 64366, Note_off_c, 0, 64, 70
1, 64371, Note_off_c, 0, 71, 63
1, 64372, Note_off_c, 0, 59, 61
1, 64373, Note_off_c, 0, 56, 55
1, 64383, Note_off_c, 0, 68, 60
1, 64404, Note_on_c, 0, 71, 82
1, 64405, Note_on_c, 0, 64, 88
1, 64412, Note_on_c, 0, 68, 68
1, 64437, Note_on_c, 0, 56, 42
1, 64440, Note_off_c, 0, 52, 62
1, 64441, Note_off_c, 0, 64, 63
1, 64449, Note_off_c, 0, 71, 64
1, 64462, Note_off_c, 0, 68, 62
1, 64464, Note_off_c, 0, 56, 56
1, 64502, Control_c, 0, 64, 76
1, 64517, Control_c, 0, 64, 17
1, 64518, Note_on_c, 0, 40, 95
1, 64521, Note_on_c, 0, 52, 97
1, 64532, Control_c, 0, 64, 0
1, 64546, Control_c, 0, 64, 56
1, 64556, Note_on_c, 0, 88, 92
1, 64556, Note_off_c, 0, 40, 65
1, 64558, Note_on_c, 0, 76, 102
1, 64561, Control_c, 0, 64, 78
1, 64563, Note_on_c, 0, 44, 20
1, 64568, Note_off_c, 0, 52, 62
1, 64576, Control_c, 0, 64, 127
1, 64582, Note_off_c, 0, 88, 72
1, 64586, Note_on_c, 0, 86, 62
1, 64591, Note_off_c, 0, 76, 68
1, 64608, Note_off_c, 0, 86, 62
1, 64622, Note_off_c, 0, 44, 45
1, 64652, Note_on_c, 0, 60, 97
1, 64674, Note_on_c, 0, 53, 62
1, 64674, Note_on_c, 0, 58, 53
1, 64682, Note_on_c, 0, 64, 95
1, 64682, Note_on_c, 0, 72, 91
1, 64689, Note_on_c, 0, 57, 54
1, 64690, Note_off_c, 0, 60, 59
1, 64691, Note_on_c, 0, 68, 76
1, 64695, Note_off_c, 0, 53, 67
1, 64697, Note_off_c, 0, 58, 64
1, 64710, Note_off_c, 0, 64, 62
1, 64713, Note_off_c, 0, 57, 58
1, 64715, Note_off_c, 0, 68, 68
1, 64720, Note_off_c, 0, 72, 56
1, 64723, Note_on_c, 0, 71, 17
1, 64739, Note_off_c, 0, 71, 0
1, 64759, Note_on_c, 0, 71, 30
1, 64762, Note_on_c, 0, 64, 89
1, 64765, Note_on_c, 0, 68, 92
1, 64785, Note_off_c, 0, 64, 69
1, 64801, Note_off_c, 0, 71, 64
1, 64808, Note_off_c, 0, 68, 58
1, 64850, Control_c, 0, 64, 109
1, 64851, Note_on_c, 0, 46, 118
1, 64854, Note_on_c, 0, 34, 94
1, 64865, Control_c, 0, 64, 69
1, 64879, Control_c, 0, 64, 60
1, 64887, Note_on_c, 0, 37, 41
1, 64888, Note_off_c, 0, 37, 127
1, 64894, Control_c, 0, 64, 70
1, 64903, Note_off_c, 0, 34, 64
1, 64909, Control_c, 0, 64, 108
1, 64914, Note_on_c, 0, 70, 113
1, 64916, Note_on_c, 0, 82, 98
1, 64922, Note_off_c, 0, 46, 63
1, 64924, Control_c, 0, 64, 127
1, 64925, Note_on_c, 0, 80, 97
1, 64940, Note_off_c, 0, 80, 75
1, 64954, Note_off_c, 0, 70, 64
1, 64955, Note_off_c, 0, 82, 66
1, 65027, Note_on_c, 0, 58, 86
1, 65034, Note_on_c, 0, 52, 69
1, 65035, Note_on_c, 0, 55, 58
1, 65045, Note_on_c, 0, 67, 77
1, 65048, Note_on_c, 0, 64, 75
1, 65051, Note_on_c, 0, 70, 68
1, 65071, Note_off_c, 0, 64, 70
1, 65073, Note_off_c, 0, 67, 63
1, 65078, Note_off_c, 0, 70, 66
1, 65084, Note_off_c, 0, 58, 61
1, 65116, Note_on_c, 0, 67, 88
1, 65120, Note_on_c, 0, 64, 84
1, 65120, Note_on_c, 0, 62, 79
1, 65120, Note_on_c, 0, 68, 45
1, 65120, Note_off_c, 0, 55, 62
1, 65125, Note_off_c, 0, 52, 63
1, 65128, Note_on_c, 0, 69, 83
1, 65141, Note_off_c, 0, 62, 67
1, 65143, Note_off_c, 0, 64, 68
1, 65149, Note_off_c, 0, 68, 56
1, 65154, Note_off_c, 0, 69, 64
1, 65158, Note_off_c, 0, 67, 64
1, 65221, Note_on_c, 0, 47, 112
1, 65227, Note_on_c, 0, 62, 8
1, 65228, Note_on_c, 0, 35, 93
1, 65236, Control_c, 0, 64, 63
1, 65241, Note_on_c, 0, 37, 70
1, 65251, Control_c, 0, 64, 0
1, 65268, Note_off_c, 0, 37, 60
1, 65272, Note_off_c, 0, 62, 40
1, 65275, Note_off_c, 0, 35, 63
1, 65281, Control_c, 0, 64, 64
1, 65295, Control_c, 0, 64, 103
1, 65295, Note_on_c, 0, 71, 109
1, 65298, Note_on_c, 0, 83, 108
1, 65298, Note_off_c, 0, 47, 64
1, 65310, Control_c, 0, 64, 127
1, 65320, Note_on_c, 0, 81, 58
1, 65325, Poly_aftertouch_c, 0, 41, 0
1, 65330, Note_off_c, 0, 71, 69
1, 65332, Note_off_c, 0, 83, 70
1, 65336, Note_off_c, 0, 81, 66
1, 65399, Note_on_c, 0, 59, 98
1, 65407, Note_on_c, 0, 56, 83
1, 65411, Note_on_c, 0, 52, 78
1, 65438, Note_on_c, 0, 64, 86
1, 65439, Note_on_c, 0, 53, 42
1, 65440, Note_off_c, 0, 59, 64
1, 65441, Note_on_c, 0, 54, 30
1, 65444, Note_on_c, 0, 68, 71
1, 65450, Note_on_c, 0, 70, 50
1, 65453, Note_on_c, 0, 71, 60
1, 65454, Note_off_c, 0, 52, 61
1, 65457, Note_off_c, 0, 56, 60
1, 65465, Note_off_c, 0, 64, 64
1, 65469, Note_off_c, 0, 68, 67
1, 65471, Note_off_c, 0, 53, 33
1, 65471, Note_off_c, 0, 70, 62
1, 65478, Note_off_c, 0, 54, 42
1, 65484, Note_off_c, 0, 71, 65
1, 65512, Note_on_c, 0, 64, 86
1, 65530, Note_on_c, 0, 68, 88
1, 65542, Poly_aftertouch_c, 0, 71, 127
1, 65550, Note_off_c, 0, 64, 66
1, 65556, Poly_aftertouch_c, 0, 71, 0
1, 65569, Note_off_c, 0, 68, 54
1, 65623, Note_on_c, 0, 48, 108
1, 65629, Note_on_c, 0, 36, 99
1, 65655, Note_on_c, 0, 44, 47
1, 65666, Note_on_c, 0, 38, 36
1, 65689, Note_off_c, 0, 44, 52
1, 65707, Note_off_c, 0, 38, 47
1, 65732, Control_c, 0, 64, 77
1, 65747, Control_c, 0, 64, 0
1, 65791, Control_c, 0, 64, 35
1, 65794, Note_on_c, 0, 72, 114
1, 65794, Note_on_c, 0, 84, 110
1, 65806, Control_c, 0, 64, 73
1, 65821, Control_c, 0, 64, 127
1, 65853, Note_off_c, 0, 36, 60
1, 65890, Note_off_c, 0, 48, 65
1, 65948, Note_off_c, 0, 84, 63
1, 65960, Note_off_c, 0, 72, 59
1, 66079, Note_on_c, 0, 57, 68
1, 66079, Note_on_c, 0, 60, 80
1, 66079, Note_on_c, 0, 52, 69
1, 66136, Note_off_c, 0, 60, 61
1, 66137, Note_off_c, 0, 57, 62
1, 66150, Note_off_c, 0, 52, 59
1, 66154, Note_on_c, 0, 69, 81
1, 66154, Note_on_c, 0, 64, 81
1, 66176, Note_on_c, 0, 72, 48
1, 66187, Note_off_c, 0, 69, 52
1, 66194, Note_off_c, 0, 72, 63
1, 66203, Note_off_c, 0, 64, 57
1, 66215, Note_on_c, 0, 60, 79
1, 66217, Note_on_c, 0, 52, 64
1, 66225, Note_on_c, 0, 57, 72
1, 66260, Note_on_c, 0, 64, 61
1, 66267, Note_off_c, 0, 57, 62
1, 66268, Note_on_c, 0, 69, 78
1, 66272, Note_off_c, 0, 60, 60
1, 66280, Note_off_c, 0, 52, 60
1, 66285, Note_on_c, 0, 72, 45
1, 66309, Note_off_c, 0, 69, 60
1, 66309, Note_off_c, 0, 72, 57
1, 66316, Note_off_c, 0, 64, 63
1, 66331, Note_on_c, 0, 60, 73
1, 66332, Note_on_c, 0, 52, 64
1, 66335, Note_on_c, 0, 57, 75
1, 66361, Note_on_c, 0, 64, 60
1, 66366, Note_on_c, 0, 69, 75
1, 66380, Note_off_c, 0, 57, 57
1, 66380, Note_off_c, 0, 60, 62
1, 66390, Note_on_c, 0, 72, 44
1, 66390, Note_off_c, 0, 52, 62
1, 66411, Note_off_c, 0, 69, 62
1, 66414, Note_off_c, 0, 64, 62
1, 66415, Note_off_c, 0, 72, 55
1, 66431, Note_on_c, 0, 60, 79
1, 66434, Note_on_c, 0, 52, 68
1, 66439, Note_on_c, 0, 57, 79
1, 66468, Note_on_c, 0, 64, 68
1, 66470, Note_on_c, 0, 69, 78
1, 66486, Note_off_c, 0, 57, 63
1, 66486, Note_off_c, 0, 60, 61
1, 66494, Note_off_c, 0, 52, 62
1, 66515, Note_on_c, 0, 72, 26
1, 66516, Note_off_c, 0, 64, 62
1, 66516, Note_off_c, 0, 69, 57
1, 66530, Note_on_c, 0, 60, 70
1, 66533, Note_on_c, 0, 52, 66
1, 66541, Note_on_c, 0, 57, 78
1, 66547, Note_off_c, 0, 72, 43
1, 66568, Note_on_c, 0, 64, 72
1, 66569, Note_on_c, 0, 69, 82
1, 66586, Note_off_c, 0, 57, 63
1, 66587, Note_off_c, 0, 60, 60
1, 66595, Note_off_c, 0, 52, 60
1, 66612, Note_off_c, 0, 69, 64
1, 66616, Note_off_c, 0, 64, 61
1, 66628, Note_on_c, 0, 52, 69
1, 66628, Note_on_c, 0, 60, 71
1, 66634, Note_on_c, 0, 57, 83
1, 66661, Note_on_c, 0, 64, 73
1, 66663, Note_on_c, 0, 69, 83
1, 66676, Note_off_c, 0, 60, 63
1, 66684, Note_off_c, 0, 57, 63
1, 66697, Note_off_c, 0, 52, 62
1, 66709, Note_off_c, 0, 64, 63
1, 66714, Note_off_c, 0, 69, 63
1, 66724, Note_on_c, 0, 60, 84
1, 66726, Note_on_c, 0, 52, 70
1, 66735, Note_on_c, 0, 57, 85
1, 66757, Note_on_c, 0, 64, 90
1, 66759, Note_on_c, 0, 69, 95
1, 66771, Note_off_c, 0, 60, 62
1, 66780, Note_off_c, 0, 57, 66
1, 66790, Note_off_c, 0, 52, 62
1, 66802, Note_off_c, 0, 64, 66
1, 66825, Note_off_c, 0, 69, 64
1, 66902, Note_on_c, 0, 41, 102
1, 66909, Note_on_c, 0, 29, 91
1, 66927, Control_c, 0, 64, 79
1, 66941, Control_c, 0, 64, 59
1, 66955, Note_off_c, 0, 29, 61
1, 66956, Control_c, 0, 64, 46
1, 66971, Control_c, 0, 64, 64
1, 66974, Note_off_c, 0, 41, 63
1, 66979, Note_on_c, 0, 65, 101
1, 66980, Note_on_c, 0, 64, 97
1, 66980, Note_on_c, 0, 77, 101
1, 66983, Note_on_c, 0, 76, 91
1, 66994, Control_c, 0, 64, 80
1, 67003, Note_on_c, 0, 75, 65
1, 67009, Control_c, 0, 64, 127
1, 67018, Note_off_c, 0, 75, 65
1, 67022, Note_off_c, 0, 64, 65
1, 67023, Note_off_c, 0, 65, 65
1, 67023, Note_off_c, 0, 77, 64
1, 67032, Note_off_c, 0, 76, 64
1, 67097, Note_on_c, 0, 57, 88
1, 67105, Note_on_c, 0, 52, 76
1, 67139, Note_on_c, 0, 64, 77
1, 67145, Note_on_c, 0, 60, 72
1, 67159, Note_off_c, 0, 57, 59
1, 67161, Note_off_c, 0, 64, 69
1, 67176, Note_off_c, 0, 60, 65
1, 67187, Note_off_c, 0, 52, 66
1, 67206, Note_on_c, 0, 64, 94
1, 67210, Note_on_c, 0, 60, 79
1, 67218, Note_on_c, 0, 44, 41
1, 67219, Note_off_c, 0, 44, 127
1, 67232, Note_off_c, 0, 60, 66
1, 67251, Note_off_c, 0, 64, 67
1, 67304, Note_on_c, 0, 42, 96
1, 67308, Note_on_c, 0, 30, 92
1, 67319, Control_c, 0, 64, 70
1, 67334, Control_c, 0, 64, 55
1, 67342, Note_off_c, 0, 30, 64
1, 67349, Control_c, 0, 64, 63
1, 67364, Note_off_c, 0, 42, 62
1, 67364, Control_c, 0, 64, 76
1, 67378, Note_on_c, 0, 66, 114
1, 67379, Control_c, 0, 64, 127
1, 67380, Note_on_c, 0, 78, 109
1, 67420, Note_off_c, 0, 78, 67
1, 67421, Note_off_c, 0, 66, 63
1, 67433, Poly_aftertouch_c, 0, 32, 0
1, 67478, Note_on_c, 0, 57, 87
1, 67488, Note_on_c, 0, 52, 76
1, 67514, Note_on_c, 0, 64, 75
1, 67516, Note_off_c, 0, 52, 64
1, 67517, Note_on_c, 0, 60, 81
1, 67535, Note_off_c, 0, 64, 67
1, 67539, Note_off_c, 0, 60, 65
1, 67561, Note_on_c, 0, 52, 87
1, 67576, Note_off_c, 0, 57, 60
1, 67578, Note_on_c, 0, 60, 96
1, 67579, Note_on_c, 0, 64, 93
1, 67599, Note_off_c, 0, 52, 66
1, 67612, Note_off_c, 0, 60, 57
1, 67620, Note_off_c, 0, 64, 67
1, 67693, Note_on_c, 0, 47, 101
1, 67698, Note_on_c, 0, 35, 92
1, 67704, Control_c, 0, 64, 81
1, 67719, Control_c, 0, 64, 58
1, 67741, Control_c, 0, 64, 36
1, 67756, Control_c, 0, 64, 60
1, 67770, Note_off_c, 0, 35, 62
1, 67770, Control_c, 0, 64, 78
1, 67785, Control_c, 0, 64, 127
1, 67794, Note_on_c, 0, 71, 114
1, 67794, Note_off_c, 0, 47, 64
1, 67796, Note_on_c, 0, 83, 106
1, 67829, Note_off_c, 0, 71, 70
1, 67829, Note_off_c, 0, 83, 70
1, 67908, Note_on_c, 0, 57, 84
1, 67915, Note_on_c, 0, 54, 79
1, 67957, Note_on_c, 0, 59, 13
1, 67963, Note_on_c, 0, 63, 87
1, 67964, Note_on_c, 0, 66, 84
1, 67970, Note_off_c, 0, 57, 60
1, 67971, Note_off_c, 0, 54, 60
1, 67984, Note_off_c, 0, 63, 67
1, 67989, Note_off_c, 0, 66, 62
1, 67990, Note_off_c, 0, 59, 48
1, 67994, Note_on_c, 0, 73, 36
1, 68021, Note_on_c, 0, 54, 80
1, 68024, Note_off_c, 0, 73, 59
1, 68028, Note_on_c, 0, 57, 55
1, 68032, Note_on_c, 0, 59, 56
1, 68047, Note_on_c, 0, 63, 91
1, 68051, Note_on_c, 0, 66, 96
1, 68055, Note_off_c, 0, 59, 60
1, 68061, Note_off_c, 0, 57, 60
1, 68071, Note_off_c, 0, 54, 62
1, 68095, Note_off_c, 0, 63, 63
1, 68112, Note_off_c, 0, 66, 62
1, 68145, Note_on_c, 0, 47, 98
1, 68148, Note_on_c, 0, 40, 92
1, 68185, Control_c, 0, 64, 81
1, 68200, Control_c, 0, 64, 0
1, 68244, Control_c, 0, 64, 64
1, 68259, Control_c, 0, 64, 82
1, 68274, Control_c, 0, 64, 127
1, 68286, Note_off_c, 0, 40, 61
1, 68358, Note_on_c, 0, 56, 99
1, 68361, Note_on_c, 0, 76, 97
1, 68362, Note_on_c, 0, 64, 112
1, 68426, Note_off_c, 0, 64, 67
1, 68428, Note_off_c, 0, 76, 68
1, 68444, Note_off_c, 0, 47, 62
1, 68449, Note_off_c, 0, 56, 61
1, 68453, Poly_aftertouch_c, 0, 74, 127
1, 68478, Poly_aftertouch_c, 0, 74, 0
1, 68917, Note_on_c, 0, 56, 106
1, 68917, Note_on_c, 0, 68, 102
1, 68951, Note_on_c, 0, 66, 45
1, 68977, Note_off_c, 0, 66, 58
1, 69160, Note_on_c, 0, 59, 67
1, 69197, Note_off_c, 0, 68, 55
1, 69215, Note_off_c, 0, 56, 54
1, 69257, Note_off_c, 0, 59, 58
1, 69266, Note_on_c, 0, 64, 60
1, 69317, Note_on_c, 0, 59, 47
1, 69364, Note_off_c, 0, 64, 62
1, 69394, Note_off_c, 0, 59, 61
1, 69427, Note_on_c, 0, 66, 103
1, 69429, Note_on_c, 0, 54, 101
1, 69581, Note_off_c, 0, 66, 57
1, 69585, Note_on_c, 0, 56, 77
1, 69639, Note_off_c, 0, 54, 55
1, 69666, Note_on_c, 0, 59, 59
1, 69693, Note_off_c, 0, 56, 47
1, 69766, Note_off_c, 0, 59, 61
1, 69803, Note_on_c, 0, 52, 104
1, 69804, Note_on_c, 0, 64, 101
1, 69838, Note_on_c, 0, 62, 55
1, 69839, Note_off_c, 0, 62, 127
1, 69927, Note_on_c, 0, 56, 72
1, 69965, Note_off_c, 0, 64, 59
1, 69977, Note_off_c, 0, 52, 52
1, 70019, Note_on_c, 0, 59, 66
1, 70101, Note_off_c, 0, 56, 58
1, 70116, Note_off_c, 0, 59, 61
1, 70136, Note_on_c, 0, 63, 96
1, 70136, Note_on_c, 0, 51, 102
1, 70232, Poly_aftertouch_c, 0, 56, 0
1, 70252, Note_on_c, 0, 56, 49
1, 70295, Note_off_c, 0, 51, 58
1, 70315, Note_off_c, 0, 63, 58
1, 70339, Note_on_c, 0, 59, 74
1, 70364, Note_off_c, 0, 56, 54
1, 70402, Note_on_c, 0, 56, 40
1, 70452, Note_off_c, 0, 59, 60
1, 70462, Control_c, 0, 64, 110
1, 70470, Note_off_c, 0, 56, 59
1, 70477, Control_c, 0, 64, 68
1, 70488, Note_on_c, 0, 44, 101
1, 70489, Note_on_c, 0, 52, 104
1, 70491, Note_on_c, 0, 64, 96
1, 70491, Control_c, 0, 64, 0
1, 70521, Control_c, 0, 64, 33
1, 70526, Note_on_c, 0, 62, 42
1, 70536, Control_c, 0, 64, 68
1, 70551, Control_c, 0, 64, 95
1, 70557, Note_off_c, 0, 62, 49
1, 70559, Note_on_c, 0, 38, 24
1, 70560, Note_off_c, 0, 44, 64
1, 70566, Control_c, 0, 64, 127
1, 70566, Note_on_c, 0, 42, 2
1, 70601, Note_off_c, 0, 38, 50
1, 70610, Note_off_c, 0, 42, 46
1, 70637, Note_on_c, 0, 56, 77
1, 70670, Note_off_c, 0, 64, 61
1, 70698, Note_off_c, 0, 52, 53
1, 70733, Note_off_c, 0, 56, 58
1, 70742, Note_on_c, 0, 59, 71
1, 70798, Note_on_c, 0, 56, 68
1, 70837, Note_off_c, 0, 59, 61
1, 70847, Note_off_c, 0, 56, 62
1, 70936, Note_on_c, 0, 42, 101
1, 70948, Note_on_c, 0, 69, 96
1, 70949, Note_on_c, 0, 57, 97
1, 70988, Control_c, 0, 64, 86
1, 71003, Control_c, 0, 64, 63
1, 71018, Control_c, 0, 64, 0
1, 71062, Control_c, 0, 64, 66
1, 71077, Control_c, 0, 64, 85
1, 71092, Control_c, 0, 64, 127
1, 71137, Note_off_c, 0, 42, 58
1, 71142, Note_on_c, 0, 60, 69
1, 71168, Note_off_c, 0, 57, 57
1, 71194, Note_on_c, 0, 64, 64
1, 71250, Note_off_c, 0, 60, 54
1, 71261, Note_off_c, 0, 69, 49
1, 71342, Note_off_c, 0, 64, 60
1, 71347, Note_on_c, 0, 60, 69
1, 71356, Note_on_c, 0, 40, 97
1, 71454, Note_on_c, 0, 64, 71
1, 71460, Note_off_c, 0, 60, 59
1, 71547, Note_on_c, 0, 60, 76
1, 71553, Note_off_c, 0, 64, 61
1, 71565, Note_off_c, 0, 40, 60
1, 71633, Note_on_c, 0, 64, 68
1, 71675, Note_off_c, 0, 60, 58
1, 71683, Note_on_c, 0, 39, 116
1, 71692, Control_c, 0, 64, 84
1, 71707, Control_c, 0, 64, 73
1, 71722, Control_c, 0, 64, 72
1, 71734, Note_on_c, 0, 60, 61
1, 71737, Control_c, 0, 64, 77
1, 71747, Note_off_c, 0, 64, 62
1, 71752, Control_c, 0, 64, 93
1, 71767, Control_c, 0, 64, 127
1, 71824, Note_on_c, 0, 64, 73
1, 71830, Note_off_c, 0, 60, 60
1, 71880, Note_off_c, 0, 39, 47
1, 71910, Note_on_c, 0, 60, 76
1, 71919, Note_off_c, 0, 64, 60
1, 71977, Note_on_c, 0, 64, 61
1, 71998, Note_off_c, 0, 60, 59
1, 72008, Note_on_c, 0, 40, 97
1, 72011, Note_on_c, 0, 41, 94
1, 72055, Note_off_c, 0, 41, 63
1, 72062, Note_off_c, 0, 40, 65
1, 72072, Note_on_c, 0, 60, 76
1, 72080, Note_off_c, 0, 64, 61
1, 72155, Note_off_c, 0, 60, 61
1, 72158, Note_on_c, 0, 64, 74
1, 72254, Note_on_c, 0, 60, 77
1, 72306, Note_off_c, 0, 60, 59
1, 72438, Note_on_c, 0, 45, 94
1, 72443, Note_on_c, 0, 72, 105
1, 72444, Note_on_c, 0, 60, 99
1, 72456, Control_c, 0, 64, 80
1, 72471, Control_c, 0, 64, 38
1, 72473, Note_off_c, 0, 64, 64
1, 72485, Control_c, 0, 64, 0
1, 72545, Control_c, 0, 64, 70
1, 72560, Control_c, 0, 64, 96
1, 72575, Control_c, 0, 64, 127
1, 72666, Note_off_c, 0, 60, 54
1, 72670, Note_on_c, 0, 64, 61
1, 72686, Note_off_c, 0, 45, 57
1, 72734, Note_off_c, 0, 72, 58
1, 72740, Note_on_c, 0, 69, 76
1, 72741, Note_off_c, 0, 64, 61
1, 72806, Note_on_c, 0, 64, 61
1, 72864, Note_off_c, 0, 69, 59
1, 72889, Note_off_c, 0, 64, 63
1, 72921, Note_on_c, 0, 71, 100
1, 72924, Note_on_c, 0, 59, 98
1, 73072, Note_on_c, 0, 60, 70
1, 73095, Note_off_c, 0, 71, 57
1, 73121, Note_off_c, 0, 59, 56
1, 73146, Note_on_c, 0, 64, 59
1, 73209, Note_off_c, 0, 60, 56
1, 73238, Note_off_c, 0, 64, 62
1, 73254, Note_on_c, 0, 69, 101
1, 73256, Note_on_c, 0, 57, 100
1, 73284, Note_on_c, 0, 65, 48
1, 73305, Note_off_c, 0, 65, 60
1, 73347, Note_on_c, 0, 60, 64
1, 73385, Note_off_c, 0, 69, 62
1, 73400, Note_on_c, 0, 64, 62
1, 73423, Note_off_c, 0, 57, 52
1, 73525, Note_off_c, 0, 60, 58
1, 73532, Note_off_c, 0, 64, 61
1, 73561, Note_on_c, 0, 68, 99
1, 73565, Note_on_c, 0, 56, 97
1, 73572, Poly_aftertouch_c, 0, 60, 0
1, 73581, Note_on_c, 0, 60, 43
1, 73650, Note_on_c, 0, 64, 50
1, 73663, Note_off_c, 0, 56, 59
1, 73712, Note_off_c, 0, 68, 57
1, 73749, Note_on_c, 0, 56, 74
1, 73759, Note_off_c, 0, 60, 50
1, 73759, Note_off_c, 0, 64, 61
1, 73796, Note_on_c, 0, 36, 80
1, 73812, Note_off_c, 0, 56, 59
1, 73830, Note_on_c, 0, 42, 81
1, 73848, Note_on_c, 0, 45, 70
1, 73909, Control_c, 0, 64, 73
1, 73910, Note_on_c, 0, 66, 94
1, 73911, Note_on_c, 0, 54, 101
1, 73916, Note_on_c, 0, 48, 97
1, 73924, Control_c, 0, 64, 9
1, 73939, Control_c, 0, 64, 0
1, 73952, Poly_aftertouch_c, 0, 44, 0
1, 73968, Control_c, 0, 64, 68
1, 73983, Control_c, 0, 64, 102
1, 73985, Note_off_c, 0, 36, 64
1, 73988, Note_off_c, 0, 48, 63
1, 73994, Note_off_c, 0, 45, 62
1, 73997, Note_off_c, 0, 42, 60
1, 73998, Control_c, 0, 64, 127
1, 74011, Note_on_c, 0, 57, 61
1, 74033, Note_off_c, 0, 54, 58
1, 74089, Note_on_c, 0, 63, 63
1, 74125, Note_off_c, 0, 57, 0
1, 74125, Note_off_c, 0, 66, 56
1, 74137, Note_on_c, 0, 57, 42
1, 74306, Note_off_c, 0, 63, 55
1, 74322, Note_off_c, 0, 57, 60
1, 74336, Note_on_c, 0, 47, 105
1, 74342, Note_on_c, 0, 44, 83
1, 74345, Note_on_c, 0, 40, 82
1, 74347, Note_on_c, 0, 64, 90
1, 74349, Note_on_c, 0, 35, 75
1, 74352, Note_on_c, 0, 52, 91
1, 74354, Control_c, 0, 64, 110
1, 74364, Note_on_c, 0, 36, 72
1, 74369, Control_c, 0, 64, 69
1, 74384, Control_c, 0, 64, 0
1, 74405, Note_off_c, 0, 36, 44
1, 74413, Control_c, 0, 64, 42
1, 74428, Control_c, 0, 64, 77
1, 74442, Note_off_c, 0, 35, 62
1, 74443, Note_off_c, 0, 47, 64
1, 74443, Control_c, 0, 64, 127
1, 74448, Note_on_c, 0, 56, 63
1, 74449, Note_off_c, 0, 40, 63
1, 74452, Note_off_c, 0, 44, 63
1, 74469, Note_on_c, 0, 59, 65
1, 74469, Note_off_c, 0, 52, 59
1, 74508, Note_off_c, 0, 64, 60
1, 74563, Note_off_c, 0, 56, 57
1, 74566, Note_on_c, 0, 52, 66
1, 74621, Note_off_c, 0, 52, 60
1, 74689, Note_off_c, 0, 59, 0
1, 74722, Note_on_c, 0, 59, 17
1, 74744, Note_on_c, 0, 45, 105
1, 74751, Note_on_c, 0, 33, 90
1, 74757, Note_on_c, 0, 35, 79
1, 74757, Note_on_c, 0, 40, 88
1, 74784, Note_on_c, 0, 56, 82
1, 74806, Note_off_c, 0, 35, 61
1, 74808, Note_off_c, 0, 45, 64
1, 74810, Note_off_c, 0, 59, 60
1, 74811, Note_off_c, 0, 40, 62
1, 74813, Note_off_c, 0, 33, 62
1, 74867, Note_off_c, 0, 56, 57
1, 74873, Note_on_c, 0, 59, 64
1, 74977, Note_on_c, 0, 56, 71
1, 75025, Note_off_c, 0, 59, 51
1, 75043, Control_c, 0, 64, 115
1, 75055, Note_off_c, 0, 56, 58
1, 75058, Control_c, 0, 64, 71
1, 75073, Control_c, 0, 64, 0
1, 75076, Note_on_c, 0, 44, 108
1, 75082, Note_on_c, 0, 40, 71
1, 75083, Note_on_c, 0, 32, 88
1, 75086, Note_on_c, 0, 59, 41
1, 75088, Note_on_c, 0, 35, 78
1, 75118, Control_c, 0, 64, 74
1, 75132, Control_c, 0, 64, 127
1, 75136, Note_off_c, 0, 44, 65
1, 75137, Note_off_c, 0, 35, 59
1, 75141, Note_off_c, 0, 40, 63
1, 75145, Note_off_c, 0, 32, 60
1, 75160, Note_on_c, 0, 56, 75
1, 75169, Note_off_c, 0, 59, 59
1, 75238, Note_on_c, 0, 59, 68
1, 75251, Note_off_c, 0, 56, 59
1, 75328, Note_on_c, 0, 56, 75
1, 75419, Note_off_c, 0, 56, 60
1, 75428, Note_on_c, 0, 42, 107
1, 75431, Note_off_c, 0, 59, 64
1, 75434, Note_on_c, 0, 30, 97
1, 75517, Note_off_c, 0, 42, 61
1, 75534, Note_off_c, 0, 30, 60
1, 75875, Note_on_c, 0, 40, 95
1, 75883, Note_on_c, 0, 28, 80
1, 75884, Note_on_c, 0, 32, 74
1, 75887, Note_on_c, 0, 35, 76
1, 75888, Note_on_c, 0, 68, 116
1, 75888, Note_on_c, 0, 80, 102
1, 75925, Control_c, 0, 64, 95
1, 75940, Control_c, 0, 64, 65
1, 75944, Note_on_c, 0, 78, 4
1, 75955, Control_c, 0, 64, 0
1, 76002, Note_off_c, 0, 78, 30
1, 76022, Control_c, 0, 64, 56
1, 76036, Control_c, 0, 64, 72
1, 76051, Control_c, 0, 64, 107
1, 76066, Control_c, 0, 64, 127
1, 76124, Note_off_c, 0, 28, 58
1, 76141, Note_off_c, 0, 40, 55
1, 76159, Note_on_c, 0, 71, 53
1, 76184, Note_off_c, 0, 80, 57
1, 76200, Note_off_c, 0, 35, 54
1, 76208, Note_off_c, 0, 68, 55
1, 76214, Note_on_c, 0, 76, 63
1, 76247, Note_off_c, 0, 32, 34
1, 76318, Note_off_c, 0, 76, 63
1, 76346, Note_off_c, 0, 71, 61
1, 76371, Note_on_c, 0, 78, 98
1, 76375, Note_on_c, 0, 66, 95
1, 76448, Poly_aftertouch_c, 0, 71, 0
1, 76525, Note_on_c, 0, 68, 72
1, 76557, Note_off_c, 0, 66, 50
1, 76569, Note_off_c, 0, 78, 58
1, 76608, Note_on_c, 0, 71, 63
1, 76678, Note_off_c, 0, 68, 59
1, 76683, Note_off_c, 0, 71, 61
1, 76713, Note_on_c, 0, 64, 101
1, 76713, Note_on_c, 0, 76, 96
1, 76753, Note_on_c, 0, 74, 50
1, 76790, Note_off_c, 0, 74, 44
1, 76832, Note_on_c, 0, 68, 71
1, 76892, Note_off_c, 0, 76, 62
1, 76901, Note_off_c, 0, 64, 59
1, 76930, Note_on_c, 0, 71, 55
1, 76981, Note_off_c, 0, 68, 59
1, 76990, Note_off_c, 0, 71, 61
1, 77017, Note_on_c, 0, 75, 95
1, 77020, Note_on_c, 0, 63, 100
1, 77118, Note_on_c, 0, 68, 56
1, 77216, Note_on_c, 0, 71, 70
1, 77217, Note_off_c, 0, 63, 55
1, 77236, Note_off_c, 0, 68, 0
1, 77238, Note_off_c, 0, 75, 57
1, 77256, Note_on_c, 0, 68, 43
1, 77321, Note_off_c, 0, 71, 61
1, 77347, Note_on_c, 0, 56, 103
1, 77354, Note_on_c, 0, 44, 86
1, 77356, Note_on_c, 0, 76, 98
1, 77357, Note_on_c, 0, 64, 101
1, 77365, Control_c, 0, 64, 93
1, 77380, Control_c, 0, 64, 66
1, 77389, Note_off_c, 0, 68, 57
1, 77394, Control_c, 0, 64, 0
1, 77395, Note_on_c, 0, 74, 37
1, 77424, Control_c, 0, 64, 57
1, 77432, Note_off_c, 0, 74, 45
1, 77439, Control_c, 0, 64, 73
1, 77454, Control_c, 0, 64, 106
1, 77475, Control_c, 0, 64, 127
1, 77514, Note_on_c, 0, 68, 72
1, 77528, Note_on_c, 0, 47, 63
1, 77529, Note_off_c, 0, 44, 59
1, 77553, Note_off_c, 0, 76, 61
1, 77562, Note_off_c, 0, 64, 59
1, 77600, Note_on_c, 0, 71, 73
1, 77600, Note_off_c, 0, 56, 43
1, 77621, Note_off_c, 0, 47, 62
1, 77622, Note_on_c, 0, 52, 69
1, 77657, Note_off_c, 0, 71, 61
1, 77669, Note_off_c, 0, 68, 52
1, 77686, Note_off_c, 0, 52, 61
1, 77774, Note_on_c, 0, 54, 98
1, 77779, Note_on_c, 0, 42, 91
1, 77783, Note_on_c, 0, 81, 97
1, 77789, Note_on_c, 0, 69, 93
1, 77816, Control_c, 0, 64, 86
1, 77831, Control_c, 0, 64, 64
1, 77846, Control_c, 0, 64, 0
1, 77890, Control_c, 0, 64, 64
1, 77905, Control_c, 0, 64, 84
1, 77920, Control_c, 0, 64, 127
1, 77988, Note_off_c, 0, 69, 55
1, 77989, Note_on_c, 0, 48, 46
1, 78000, Note_on_c, 0, 72, 53
1, 78024, Note_on_c, 0, 45, 45
1, 78056, Note_on_c, 0, 76, 65
1, 78057, Note_off_c, 0, 54, 58
1, 78086, Note_off_c, 0, 72, 59
1, 78116, Note_off_c, 0, 42, 35
1, 78155, Note_off_c, 0, 48, 0
1, 78157, Note_off_c, 0, 76, 59
1, 78161, Note_on_c, 0, 52, 94
1, 78170, Note_on_c, 0, 40, 82
1, 78172, Note_on_c, 0, 72, 69
1, 78192, Poly_aftertouch_c, 0, 48, 127
1, 78199, Note_off_c, 0, 45, 55
1, 78236, Note_off_c, 0, 81, 31
1, 78278, Note_on_c, 0, 76, 68
1, 78280, Note_off_c, 0, 72, 59
1, 78286, Poly_aftertouch_c, 0, 48, 0
1, 78297, Note_on_c, 0, 48, 47
1, 78303, Note_on_c, 0, 45, 53
1, 78330, Note_off_c, 0, 40, 61
1, 78341, Note_off_c, 0, 52, 59
1, 78366, Note_on_c, 0, 72, 67
1, 78429, Note_off_c, 0, 76, 0
1, 78453, Note_on_c, 0, 76, 31
1, 78469, Note_on_c, 0, 51, 106
1, 78477, Note_on_c, 0, 39, 85
1, 78489, Note_off_c, 0, 72, 59
1, 78504, Note_off_c, 0, 45, 57
1, 78504, Note_off_c, 0, 48, 58
1, 78557, Note_on_c, 0, 72, 54
1, 78575, Note_off_c, 0, 76, 53
1, 78629, Note_on_c, 0, 76, 50
1, 78644, Note_on_c, 0, 48, 61
1, 78647, Note_off_c, 0, 39, 53
1, 78650, Note_on_c, 0, 45, 56
1, 78654, Note_off_c, 0, 72, 59
1, 78668, Note_off_c, 0, 51, 56
1, 78767, Note_on_c, 0, 72, 65
1, 78778, Note_on_c, 0, 52, 101
1, 78787, Control_c, 0, 64, 85
1, 78790, Note_on_c, 0, 40, 85
1, 78803, Control_c, 0, 64, 68
1, 78813, Note_off_c, 0, 45, 62
1, 78818, Note_off_c, 0, 48, 61
1, 78818, Control_c, 0, 64, 63
1, 78823, Note_off_c, 0, 76, 0
1, 78823, Note_on_c, 0, 76, 28
1, 78833, Control_c, 0, 64, 67
1, 78847, Control_c, 0, 64, 78
1, 78850, Note_off_c, 0, 72, 58
1, 78862, Control_c, 0, 64, 121
1, 78877, Control_c, 0, 64, 127
1, 78887, Note_on_c, 0, 45, 60
1, 78891, Note_on_c, 0, 48, 63
1, 78894, Note_off_c, 0, 52, 60
1, 78912, Note_off_c, 0, 40, 54
1, 78963, Note_off_c, 0, 45, 60
1, 78973, Note_on_c, 0, 72, 51
1, 78975, Note_on_c, 0, 52, 70
1, 78976, Note_off_c, 0, 48, 60
1, 79006, Note_off_c, 0, 52, 61
1, 79017, Note_off_c, 0, 72, 51
1, 79146, Note_off_c, 0, 76, 56
1, 79166, Poly_aftertouch_c, 0, 49, 127
1, 79166, Note_on_c, 0, 57, 91
1, 79166, Note_on_c, 0, 84, 100
1, 79172, Note_on_c, 0, 72, 101
1, 79175, Note_on_c, 0, 45, 80
1, 79210, Control_c, 0, 64, 87
1, 79213, Poly_aftertouch_c, 0, 49, 0
1, 79225, Control_c, 0, 64, 62
1, 79240, Control_c, 0, 64, 0
1, 79285, Control_c, 0, 64, 37
1, 79299, Control_c, 0, 64, 68
1, 79314, Control_c, 0, 64, 84
1, 79329, Control_c, 0, 64, 127
1, 79359, Note_off_c, 0, 57, 58
1, 79362, Note_on_c, 0, 52, 56
1, 79382, Note_off_c, 0, 72, 57
1, 79414, Note_on_c, 0, 76, 55
1, 79440, Note_off_c, 0, 84, 59
1, 79443, Note_off_c, 0, 52, 57
1, 79476, Note_on_c, 0, 81, 54
1, 79478, Note_off_c, 0, 45, 54
1, 79487, Note_on_c, 0, 48, 56
1, 79523, Note_off_c, 0, 81, 60
1, 79529, Note_off_c, 0, 76, 61
1, 79559, Note_off_c, 0, 48, 59
1, 79575, Note_on_c, 0, 52, 72
1, 79589, Note_on_c, 0, 83, 96
1, 79595, Note_on_c, 0, 71, 98
1, 79669, Note_on_c, 0, 48, 60
1, 79674, Note_off_c, 0, 52, 59
1, 79675, Poly_aftertouch_c, 0, 79, 127
1, 79709, Poly_aftertouch_c, 0, 79, 0
1, 79750, Note_on_c, 0, 72, 71
1, 79760, Note_off_c, 0, 83, 56
1, 79767, Note_on_c, 0, 52, 62
1, 79771, Note_off_c, 0, 48, 59
1, 79789, Note_off_c, 0, 71, 54
1, 79835, Note_on_c, 0, 76, 51
1, 79854, Note_off_c, 0, 72, 59
1, 79859, Note_off_c, 0, 52, 61
1, 79869, Note_on_c, 0, 48, 65
1, 79875, Note_off_c, 0, 76, 61
1, 79908, Note_on_c, 0, 81, 102
1, 79911, Note_on_c, 0, 69, 100
1, 79942, Note_on_c, 0, 77, 42
1, 79944, Note_off_c, 0, 48, 60
1, 79945, Note_on_c, 0, 52, 72
1, 79971, Note_off_c, 0, 77, 54
1, 80019, Note_on_c, 0, 72, 67
1, 80024, Note_on_c, 0, 48, 63
1, 80025, Note_off_c, 0, 52, 59
1, 80045, Note_off_c, 0, 81, 60
1, 80066, Note_off_c, 0, 69, 53
1, 80080, Note_on_c, 0, 76, 50
1, 80086, Note_off_c, 0, 48, 58
1, 80096, Note_on_c, 0, 52, 57
1, 80160, Note_off_c, 0, 72, 60
1, 80164, Note_off_c, 0, 76, 63
1, 80173, Note_on_c, 0, 48, 69
1, 80175, Note_off_c, 0, 52, 61
1, 80195, Note_on_c, 0, 80, 95
1, 80197, Note_on_c, 0, 68, 94
1, 80234, Note_off_c, 0, 48, 58
1, 80253, Note_on_c, 0, 72, 42
1, 80257, Note_on_c, 0, 52, 71
1, 80264, Note_off_c, 0, 68, 60
1, 80274, Note_on_c, 0, 76, 69
1, 80319, Note_on_c, 0, 48, 66
1, 80332, Note_off_c, 0, 52, 60
1, 80343, Note_off_c, 0, 80, 47
1, 80347, Note_off_c, 0, 72, 60
1, 80349, Note_on_c, 0, 68, 79
1, 80351, Note_off_c, 0, 48, 62
1, 80364, Note_off_c, 0, 76, 62
1, 80432, Note_off_c, 0, 68, 59
1, 80516, Note_on_c, 0, 60, 85
1, 80518, Note_on_c, 0, 78, 90
1, 80521, Note_on_c, 0, 66, 91
1, 80525, Note_on_c, 0, 48, 73
1, 80531, Control_c, 0, 64, 84
1, 80546, Control_c, 0, 64, 59
1, 80561, Control_c, 0, 64, 0
1, 80605, Control_c, 0, 64, 64
1, 80620, Control_c, 0, 64, 80
1, 80632, Note_on_c, 0, 69, 62
1, 80635, Control_c, 0, 64, 127
1, 80647, Note_off_c, 0, 66, 55
1, 80664, Note_off_c, 0, 60, 54
1, 80669, Note_on_c, 0, 57, 40
1, 80686, Note_on_c, 0, 54, 48
1, 80701, Note_off_c, 0, 69, 56
1, 80704, Note_on_c, 0, 75, 46
1, 80741, Note_on_c, 0, 60, 63
1, 80748, Note_off_c, 0, 54, 0
1, 80765, Note_on_c, 0, 69, 36
1, 80765, Note_off_c, 0, 57, 0
1, 80778, Note_off_c, 0, 78, 52
1, 80786, Poly_aftertouch_c, 0, 54, 127
1, 80791, Note_off_c, 0, 48, 54
1, 80802, Poly_aftertouch_c, 0, 57, 127
1, 80821, Note_off_c, 0, 60, 59
1, 80847, Poly_aftertouch_c, 0, 54, 0
1, 80866, Poly_aftertouch_c, 0, 57, 0
1, 80866, Note_off_c, 0, 75, 57
1, 80881, Note_off_c, 0, 69, 60
1, 80910, Note_on_c, 0, 77, 85
1, 80917, Note_on_c, 0, 65, 75
1, 80918, Note_on_c, 0, 59, 83
1, 80919, Note_on_c, 0, 47, 77
1, 80945, Control_c, 0, 64, 77
1, 80960, Control_c, 0, 64, 58
1, 80975, Control_c, 0, 64, 0
1, 81005, Control_c, 0, 64, 26
1, 81020, Control_c, 0, 64, 65
1, 81024, Note_off_c, 0, 65, 57
1, 81032, Note_on_c, 0, 71, 59
1, 81035, Control_c, 0, 64, 84
1, 81046, Note_on_c, 0, 68, 56
1, 81050, Control_c, 0, 64, 127
1, 81057, Note_off_c, 0, 77, 54
1, 81089, Note_on_c, 0, 56, 53
1, 81124, Note_on_c, 0, 53, 44
1, 81142, Note_off_c, 0, 47, 60
1, 81142, Note_off_c, 0, 59, 57
1, 81148, Note_off_c, 0, 71, 58
1, 81157, Note_on_c, 0, 65, 29
1, 81167, Note_off_c, 0, 53, 61
1, 81174, Note_off_c, 0, 68, 60
1, 81184, Note_on_c, 0, 74, 66
1, 81188, Note_off_c, 0, 56, 58
1, 81191, Note_off_c, 0, 65, 47
1, 81254, Note_on_c, 0, 57, 89
1, 81260, Note_on_c, 0, 45, 81
1, 81293, Note_on_c, 0, 71, 56
1, 81293, Note_off_c, 0, 74, 61
1, 81296, Note_on_c, 0, 68, 68
1, 81362, Note_on_c, 0, 74, 71
1, 81362, Note_off_c, 0, 71, 61
1, 81370, Note_off_c, 0, 68, 58
1, 81401, Note_on_c, 0, 53, 63
1, 81403, Note_on_c, 0, 50, 60
1, 81423, Note_off_c, 0, 57, 58
1, 81438, Note_off_c, 0, 45, 58
1, 81447, Note_on_c, 0, 68, 56
1, 81449, Note_on_c, 0, 71, 63
1, 81451, Note_off_c, 0, 74, 59
1, 81515, Note_off_c, 0, 68, 58
1, 81518, Note_on_c, 0, 74, 73
1, 81530, Note_off_c, 0, 71, 61
1, 81550, Note_on_c, 0, 56, 97
1, 81555, Note_on_c, 0, 44, 85
1, 81580, Note_off_c, 0, 53, 60
1, 81588, Note_off_c, 0, 50, 60
1, 81592, Note_on_c, 0, 68, 73
1, 81595, Note_on_c, 0, 71, 60
1, 81598, Note_off_c, 0, 74, 62
1, 81651, Note_off_c, 0, 68, 59
1, 81668, Note_on_c, 0, 74, 73
1, 81673, Note_on_c, 0, 53, 63
1, 81686, Note_on_c, 0, 50, 52
1, 81704, Note_off_c, 0, 44, 60
1, 81706, Note_off_c, 0, 56, 56
1, 81716, Note_off_c, 0, 71, 0
1, 81719, Note_on_c, 0, 68, 72
1, 81729, Note_on_c, 0, 71, 41
1, 81757, Note_off_c, 0, 74, 57
1, 81768, Note_off_c, 0, 53, 62
1, 81774, Note_off_c, 0, 50, 60
1, 81788, Note_on_c, 0, 74, 59
1, 81816, Note_off_c, 0, 71, 61
1, 81827, Note_off_c, 0, 68, 61
1, 81828, Note_on_c, 0, 54, 96
1, 81841, Note_on_c, 0, 42, 91
1, 81854, Note_off_c, 0, 74, 62
1, 81900, Note_on_c, 0, 41, 21
1, 81902, Note_off_c, 0, 54, 60
1, 81950, Note_off_c, 0, 41, 51
1, 81956, Note_on_c, 0, 54, 85
1, 82108, Note_off_c, 0, 54, 60
1, 82132, Note_off_c, 0, 42, 56
1, 82142, Note_on_c, 0, 44, 26
1, 82168, Note_on_c, 0, 53, 99
1, 82178, Note_on_c, 0, 74, 103
1, 82178, Note_on_c, 0, 86, 105
1, 82181, Note_on_c, 0, 41, 85
1, 82190, Poly_aftertouch_c, 0, 47, 127
1, 82198, Note_off_c, 0, 44, 44
1, 82221, Control_c, 0, 64, 75
1, 82231, Poly_aftertouch_c, 0, 47, 0
1, 82236, Control_c, 0, 64, 0
1, 82296, Control_c, 0, 64, 58
1, 82310, Control_c, 0, 64, 71
1, 82325, Control_c, 0, 64, 108
1, 82336, Note_on_c, 0, 47, 62
1, 82336, Note_off_c, 0, 53, 58
1, 82340, Note_on_c, 0, 44, 48
1, 82340, Control_c, 0, 64, 127
1, 82353, Note_on_c, 0, 77, 68
1, 82387, Note_off_c, 0, 86, 60
1, 82418, Note_on_c, 0, 80, 68
1, 82424, Note_off_c, 0, 74, 60
1, 82450, Note_on_c, 0, 50, 73
1, 82459, Note_off_c, 0, 44, 59
1, 82459, Note_off_c, 0, 47, 60
1, 82465, Note_off_c, 0, 41, 38
1, 82480, Note_off_c, 0, 77, 59
1, 82501, Note_off_c, 0, 80, 61
1, 82523, Note_on_c, 0, 85, 100
1, 82525, Note_on_c, 0, 73, 96
1, 82534, Note_off_c, 0, 50, 58
1, 82535, Note_on_c, 0, 44, 68
1, 82546, Note_on_c, 0, 47, 46
1, 82594, Note_on_c, 0, 77, 51
1, 82604, Note_on_c, 0, 50, 72
1, 82606, Note_on_c, 0, 80, 53
1, 82612, Note_off_c, 0, 44, 60
1, 82633, Note_off_c, 0, 47, 56
1, 82655, Note_off_c, 0, 85, 61
1, 82665, Note_off_c, 0, 73, 58
1, 82674, Note_on_c, 0, 47, 42
1, 82682, Note_on_c, 0, 44, 67
1, 82692, Note_off_c, 0, 50, 59
1, 82728, Note_off_c, 0, 77, 60
1, 82743, Note_off_c, 0, 80, 61
1, 82763, Note_off_c, 0, 44, 60
1, 82770, Note_on_c, 0, 50, 69
1, 82777, Note_off_c, 0, 47, 61
1, 82800, Note_on_c, 0, 71, 99
1, 82801, Note_on_c, 0, 83, 100
1, 82834, Note_on_c, 0, 47, 50
1, 82836, Note_on_c, 0, 44, 72
1, 82850, Note_off_c, 0, 50, 58
1, 82875, Note_on_c, 0, 77, 57
1, 82884, Note_on_c, 0, 74, 36
1, 82904, Note_on_c, 0, 50, 65
1, 82910, Note_off_c, 0, 44, 61
1, 82910, Note_off_c, 0, 47, 60
1, 82945, Note_off_c, 0, 83, 57
1, 82968, Note_on_c, 0, 44, 68
1, 82968, Note_off_c, 0, 71, 57
1, 82973, Note_on_c, 0, 47, 48
1, 82983, Note_off_c, 0, 50, 62
1, 83033, Note_off_c, 0, 44, 61
1, 83035, Note_off_c, 0, 47, 53
1, 83035, Note_off_c, 0, 74, 60
1, 83036, Note_off_c, 0, 77, 61
1, 83040, Note_on_c, 0, 50, 64
1, 83073, Note_on_c, 0, 69, 99
1, 83074, Note_on_c, 0, 81, 98
1, 83099, Note_on_c, 0, 47, 69
1, 83100, Note_on_c, 0, 44, 74
1, 83108, Note_off_c, 0, 50, 61
1, 83119, Note_on_c, 0, 77, 49
1, 83120, Note_on_c, 0, 74, 39
1, 83140, Note_off_c, 0, 69, 63
1, 83159, Note_on_c, 0, 50, 79
1, 83181, Note_off_c, 0, 81, 61
1, 83194, Note_off_c, 0, 47, 61
1, 83210, Note_off_c, 0, 44, 60
1, 83217, Note_on_c, 0, 69, 85
1, 83220, Note_off_c, 0, 50, 62
1, 83227, Note_off_c, 0, 74, 59
1, 83256, Note_off_c, 0, 77, 62
1, 83294, Note_off_c, 0, 69, 61
1, 83358, Note_on_c, 0, 62, 91
1, 83362, Note_on_c, 0, 80, 97
1, 83365, Note_on_c, 0, 68, 104
1, 83366, Note_on_c, 0, 50, 89
1, 83384, Control_c, 0, 64, 74
1, 83398, Control_c, 0, 64, 40
1, 83404, Note_on_c, 0, 78, 29
1, 83413, Control_c, 0, 64, 0
1, 83434, Note_off_c, 0, 78, 54
1, 83443, Control_c, 0, 64, 61
1, 83450, Note_on_c, 0, 71, 54
1, 83458, Control_c, 0, 64, 77
1, 83472, Note_on_c, 0, 74, 67
1, 83480, Control_c, 0, 64, 127
1, 83482, Note_off_c, 0, 68, 59
1, 83520, Note_on_c, 0, 56, 71
1, 83556, Note_on_c, 0, 68, 80
1, 83604, Note_off_c, 0, 80, 54
1, 83608, Note_off_c, 0, 50, 58
1, 83611, Note_off_c, 0, 62, 56
1, 83636, Note_off_c, 0, 68, 62
1, 83664, Note_off_c, 0, 74, 48
1, 83672, Note_off_c, 0, 71, 48
1, 83682, Note_off_c, 0, 56, 60
1, 83706, Note_on_c, 0, 61, 106
1, 83708, Note_on_c, 0, 67, 99
1, 83708, Note_on_c, 0, 79, 99
1, 83718, Note_on_c, 0, 49, 95
1, 83733, Control_c, 0, 64, 77
1, 83748, Control_c, 0, 64, 57
1, 83762, Control_c, 0, 64, 25
1, 83777, Control_c, 0, 64, 49
1, 83788, Note_on_c, 0, 73, 71
1, 83792, Control_c, 0, 64, 67
1, 83803, Note_off_c, 0, 67, 60
1, 83807, Control_c, 0, 64, 98
1, 83813, Note_on_c, 0, 70, 65
1, 83822, Control_c, 0, 64, 127
1, 83851, Note_off_c, 0, 79, 56
1, 83875, Note_on_c, 0, 55, 56
1, 83879, Note_on_c, 0, 52, 60
1, 83886, Note_on_c, 0, 67, 76
1, 83896, Note_off_c, 0, 49, 56
1, 83920, Note_off_c, 0, 61, 59
1, 83939, Note_off_c, 0, 70, 59
1, 83943, Note_off_c, 0, 73, 57
1, 83953, Note_off_c, 0, 67, 62
1, 83959, Note_on_c, 0, 76, 70
1, 83996, Note_off_c, 0, 55, 59
1, 84016, Note_on_c, 0, 59, 99
1, 84024, Note_on_c, 0, 47, 92
1, 84032, Poly_aftertouch_c, 0, 55, 0
1, 84049, Note_on_c, 0, 73, 75
1, 84050, Note_on_c, 0, 70, 79
1, 84057, Note_off_c, 0, 52, 55
1, 84064, Note_off_c, 0, 76, 62
1, 84073, Poly_aftertouch_c, 0, 55, 0
1, 84107, Note_off_c, 0, 70, 61
1, 84120, Poly_aftertouch_c, 0, 55, 0
1, 84128, Note_on_c, 0, 76, 70
1, 84134, Note_on_c, 0, 55, 44
1, 84137, Note_off_c, 0, 59, 59
1, 84138, Note_off_c, 0, 73, 61
1, 84141, Note_on_c, 0, 52, 55
1, 84156, Note_off_c, 0, 47, 62
1, 84199, Note_on_c, 0, 70, 75
1, 84199, Note_on_c, 0, 73, 59
1, 84203, Note_off_c, 0, 76, 62
1, 84263, Note_off_c, 0, 70, 60
1, 84280, Note_on_c, 0, 76, 74
1, 84288, Note_on_c, 0, 58, 105
1, 84293, Note_off_c, 0, 73, 59
1, 84298, Note_on_c, 0, 46, 81
1, 84334, Note_on_c, 0, 70, 77
1, 84342, Note_on_c, 0, 73, 55
1, 84348, Note_off_c, 0, 55, 0
1, 84354, Note_off_c, 0, 76, 61
1, 84371, Note_off_c, 0, 52, 0
1, 84374, Note_on_c, 0, 55, 21
1, 84388, Note_on_c, 0, 52, 28
1, 84394, Note_off_c, 0, 70, 61
1, 84403, Note_on_c, 0, 76, 72
1, 84405, Note_off_c, 0, 58, 58
1, 84418, Note_off_c, 0, 46, 60
1, 84450, Note_on_c, 0, 70, 76
1, 84479, Note_off_c, 0, 55, 61
1, 84488, Note_off_c, 0, 52, 61
1, 84492, Note_off_c, 0, 73, 39
1, 84514, Note_off_c, 0, 70, 62
1, 84524, Note_off_c, 0, 76, 63
1, 84547, Note_on_c, 0, 56, 103
1, 84559, Note_on_c, 0, 44, 92
1, 84620, Note_off_c, 0, 56, 60
1, 84637, Poly_aftertouch_c, 0, 46, 127
1, 84669, Note_on_c, 0, 56, 86
1, 84669, Poly_aftertouch_c, 0, 46, 0
1, 84766, Note_off_c, 0, 44, 60
1, 84781, Note_off_c, 0, 56, 58
1, 84832, Note_on_c, 0, 49, 15
1, 84832, Note_on_c, 0, 76, 102
1, 84833, Note_on_c, 0, 88, 109
1, 84841, Note_on_c, 0, 55, 93
1, 84841, Poly_aftertouch_c, 0, 46, 127
1, 84852, Note_on_c, 0, 43, 84
1, 84857, Note_on_c, 0, 85, 62
1, 84867, Control_c, 0, 64, 75
1, 84874, Note_off_c, 0, 49, 61
1, 84875, Note_off_c, 0, 85, 42
1, 84880, Note_on_c, 0, 53, 40
1, 84881, Note_off_c, 0, 53, 127
1, 84881, Poly_aftertouch_c, 0, 46, 0
1, 84881, Control_c, 0, 64, 0
1, 84925, Control_c, 0, 64, 28
1, 84940, Control_c, 0, 64, 68
1, 84962, Control_c, 0, 64, 86
1, 84977, Control_c, 0, 64, 127
1, 84980, Note_on_c, 0, 49, 63
1, 84991, Note_on_c, 0, 79, 68
1, 84993, Note_on_c, 0, 46, 63
1, 85002, Note_off_c, 0, 55, 59
1, 85059, Note_off_c, 0, 46, 59
1, 85059, Note_off_c, 0, 88, 64
1, 85068, Note_off_c, 0, 49, 60
1, 85069, Note_on_c, 0, 55, 61
1, 85078, Note_on_c, 0, 82, 69
1, 85080, Note_off_c, 0, 76, 58
1, 85123, Note_off_c, 0, 79, 62
1, 85127, Note_off_c, 0, 55, 61
1, 85135, Note_on_c, 0, 46, 58
1, 85135, Note_on_c, 0, 49, 53
1, 85150, Note_off_c, 0, 82, 60
1, 85175, Note_on_c, 0, 87, 96
1, 85178, Note_on_c, 0, 75, 104
1, 85178, Note_off_c, 0, 46, 60
1, 85197, Note_on_c, 0, 55, 78
1, 85203, Note_off_c, 0, 49, 60
1, 85250, Note_on_c, 0, 79, 65
1, 85253, Note_on_c, 0, 46, 75
1, 85256, Note_on_c, 0, 49, 50
1, 85257, Note_on_c, 0, 82, 81
1, 85262, Note_off_c, 0, 75, 61
1, 85280, Note_off_c, 0, 43, 58
1, 85312, Note_on_c, 0, 75, 74
1, 85312, Note_off_c, 0, 46, 61
1, 85312, Note_off_c, 0, 55, 62
1, 85320, Note_off_c, 0, 49, 61
1, 85321, Note_off_c, 0, 79, 63
1, 85328, Note_off_c, 0, 87, 59
1, 85343, Note_off_c, 0, 82, 61
1, 85370, Note_off_c, 0, 75, 62
1, 85431, Note_on_c, 0, 64, 92
1, 85434, Note_on_c, 0, 85, 94
1, 85437, Note_on_c, 0, 73, 90
1, 85437, Control_c, 0, 64, 87
1, 85439, Note_on_c, 0, 52, 85
1, 85452, Control_c, 0, 64, 69
1, 85467, Control_c, 0, 64, 62
1, 85482, Control_c, 0, 64, 65
1, 85497, Control_c, 0, 64, 76
1, 85512, Control_c, 0, 64, 127
1, 85518, Note_on_c, 0, 79, 43
1, 85527, Note_on_c, 0, 76, 56
1, 85570, Note_on_c, 0, 58, 69
1, 85583, Note_off_c, 0, 64, 60
1, 85590, Note_off_c, 0, 52, 60
1, 85606, Note_off_c, 0, 85, 60
1, 85634, Note_off_c, 0, 76, 58
1, 85644, Note_off_c, 0, 79, 62
1, 85649, Note_off_c, 0, 73, 61
1, 85655, Note_off_c, 0, 58, 62
1, 85711, Control_c, 0, 64, 104
1, 85712, Note_on_c, 0, 63, 91
1, 85715, Note_on_c, 0, 83, 94
1, 85719, Note_on_c, 0, 71, 88
1, 85721, Note_on_c, 0, 51, 80
1, 85726, Control_c, 0, 64, 75
1, 85741, Control_c, 0, 64, 65
1, 85747, Note_on_c, 0, 78, 66
1, 85756, Control_c, 0, 64, 66
1, 85759, Note_on_c, 0, 75, 55
1, 85771, Control_c, 0, 64, 75
1, 85785, Control_c, 0, 64, 127
1, 85798, Note_off_c, 0, 71, 53
1, 85827, Note_off_c, 0, 83, 61
1, 85835, Note_on_c, 0, 71, 55
1, 85837, Note_on_c, 0, 56, 65
1, 85851, Note_off_c, 0, 63, 57
1, 85870, Note_off_c, 0, 51, 56
1, 85888, Note_off_c, 0, 71, 62
1, 85902, Note_off_c, 0, 75, 57
1, 85905, Note_off_c, 0, 78, 62
1, 85936, Note_off_c, 0, 56, 58
1, 85959, Note_on_c, 0, 61, 94
1, 85963, Control_c, 0, 64, 103
1, 85965, Note_on_c, 0, 82, 90
1, 85967, Note_on_c, 0, 70, 97
1, 85970, Note_on_c, 0, 49, 83
1, 85978, Control_c, 0, 64, 96
1, 85994, Control_c, 0, 64, 98
1, 86005, Note_on_c, 0, 76, 49
1, 86009, Control_c, 0, 64, 127
1, 86039, Note_on_c, 0, 73, 59
1, 86051, Poly_aftertouch_c, 0, 80, 127
1, 86082, Note_on_c, 0, 53, 55
1, 86091, Poly_aftertouch_c, 0, 80, 0
1, 86095, Note_off_c, 0, 49, 55
1, 86096, Note_off_c, 0, 70, 58
1, 86099, Note_on_c, 0, 56, 57
1, 86100, Note_off_c, 0, 82, 59
1, 86103, Note_off_c, 0, 61, 60
1, 86144, Note_off_c, 0, 76, 62
1, 86150, Note_off_c, 0, 73, 60
1, 86163, Note_off_c, 0, 53, 59
1, 86177, Note_off_c, 0, 56, 58
1, 86186, Control_c, 0, 64, 72
1, 86198, Note_on_c, 0, 69, 97
1, 86200, Note_on_c, 0, 60, 93
1, 86201, Control_c, 0, 64, 57
1, 86202, Note_on_c, 0, 81, 91
1, 86206, Note_on_c, 0, 48, 83
1, 86215, Control_c, 0, 64, 57
1, 86227, Note_on_c, 0, 79, 60
1, 86228, Note_on_c, 0, 72, 58
1, 86229, Note_on_c, 0, 78, 52
1, 86230, Control_c, 0, 64, 64
1, 86244, Note_on_c, 0, 75, 70
1, 86245, Control_c, 0, 64, 80
1, 86247, Note_off_c, 0, 79, 43
1, 86260, Control_c, 0, 64, 127
1, 86270, Note_off_c, 0, 69, 60
1, 86293, Note_off_c, 0, 72, 62
1, 86300, Note_off_c, 0, 81, 59
1, 86308, Note_off_c, 0, 48, 61
1, 86313, Note_off_c, 0, 60, 60
1, 86313, Note_off_c, 0, 78, 62
1, 86317, Note_on_c, 0, 54, 68
1, 86320, Note_off_c, 0, 75, 63
1, 86320, Note_on_c, 0, 51, 60
1, 86388, Note_off_c, 0, 51, 55
1, 86390, Note_off_c, 0, 54, 59
1, 86427, Note_on_c, 0, 78, 101
1, 86436, Note_on_c, 0, 58, 98
1, 86436, Note_on_c, 0, 90, 91
1, 86448, Note_on_c, 0, 46, 84
1, 86450, Note_on_c, 0, 87, 62
1, 86476, Note_off_c, 0, 87, 62
1, 86499, Note_on_c, 0, 80, 20
1, 86557, Note_off_c, 0, 78, 56
1, 86570, Note_off_c, 0, 58, 60
1, 86578, Note_on_c, 0, 51, 61
1, 86579, Note_off_c, 0, 90, 59
1, 86583, Note_on_c, 0, 54, 63
1, 86590, Note_on_c, 0, 81, 55
1, 86591, Note_off_c, 0, 46, 59
1, 86596, Note_off_c, 0, 80, 60
1, 86597, Note_on_c, 0, 84, 39
1, 86623, Note_off_c, 0, 81, 65
1, 86636, Note_off_c, 0, 84, 63
1, 86662, Note_off_c, 0, 54, 60
1, 86663, Note_off_c, 0, 51, 59
1, 86666, Poly_aftertouch_c, 0, 83, 127
1, 86668, Control_c, 0, 64, 113
1, 86675, Note_on_c, 0, 77, 102
1, 86675, Note_on_c, 0, 89, 97
1, 86680, Note_on_c, 0, 57, 101
1, 86682, Control_c, 0, 64, 74
1, 86685, Poly_aftertouch_c, 0, 83, 0
1, 86688, Note_on_c, 0, 45, 88
1, 86695, Note_on_c, 0, 87, 62
1, 86697, Control_c, 0, 64, 65
1, 86712, Control_c, 0, 64, 67
1, 86714, Note_on_c, 0, 81, 60
1, 86718, Note_on_c, 0, 84, 56
1, 86722, Note_off_c, 0, 87, 66
1, 86727, Control_c, 0, 64, 79
1, 86739, Note_off_c, 0, 77, 65
1, 86741, Control_c, 0, 64, 127
1, 86752, Note_on_c, 0, 83, 41
1, 86760, Note_off_c, 0, 45, 62
1, 86763, Note_off_c, 0, 57, 64
1, 86765, Note_on_c, 0, 51, 71
1, 86774, Note_off_c, 0, 84, 0
1, 86774, Note_on_c, 0, 84, 3
1, 86775, Note_on_c, 0, 54, 66
1, 86785, Note_off_c, 0, 89, 59
1, 86791, Note_on_c, 0, 77, 83
1, 86798, Note_off_c, 0, 83, 42
1, 86806, Note_off_c, 0, 81, 61
1, 86808, Note_off_c, 0, 54, 60
1, 86809, Poly_aftertouch_c, 0, 47, 0
1, 86818, Note_off_c, 0, 51, 59
1, 86821, Note_off_c, 0, 84, 60
1, 86838, Note_off_c, 0, 77, 64
1, 86905, Note_on_c, 0, 66, 108
1, 86907, Note_on_c, 0, 54, 86
1, 86910, Note_on_c, 0, 87, 99
1, 86912, Note_on_c, 0, 75, 108
1, 86942, Note_on_c, 0, 53, 47
1, 86951, Note_on_c, 0, 85, 43
1, 86977, Note_off_c, 0, 53, 47
1, 86991, Note_off_c, 0, 85, 45
1, 86997, Note_on_c, 0, 79, 56
1, 86997, Note_on_c, 0, 82, 45
1, 87022, Note_off_c, 0, 87, 60
1, 87026, Note_off_c, 0, 66, 58
1, 87035, Note_on_c, 0, 61, 63
1, 87047, Note_on_c, 0, 58, 58
1, 87052, Note_off_c, 0, 75, 61
1, 87056, Note_off_c, 0, 79, 63
1, 87065, Note_off_c, 0, 54, 46
1, 87074, Note_off_c, 0, 82, 61
1, 87101, Note_off_c, 0, 58, 58
1, 87104, Note_off_c, 0, 61, 61
1, 87131, Note_on_c, 0, 85, 102
1, 87132, Note_on_c, 0, 73, 105
1, 87133, Note_on_c, 0, 65, 97
1, 87145, Note_on_c, 0, 53, 89
1, 87225, Note_off_c, 0, 53, 65
1, 87227, Note_off_c, 0, 65, 63
1, 87229, Note_on_c, 0, 61, 69
1, 87230, Note_on_c, 0, 58, 71
1, 87230, Note_on_c, 0, 80, 56
1, 87250, Note_off_c, 0, 73, 59
1, 87253, Note_off_c, 0, 85, 61
1, 87290, Note_off_c, 0, 58, 61
1, 87292, Note_off_c, 0, 61, 62
1, 87292, Note_off_c, 0, 80, 61
1, 87328, Control_c, 0, 64, 81
1, 87343, Control_c, 0, 64, 64
1, 87347, Note_on_c, 0, 72, 94
1, 87349, Note_on_c, 0, 63, 93
1, 87351, Note_on_c, 0, 84, 93
1, 87357, Control_c, 0, 64, 61
1, 87359, Note_on_c, 0, 51, 86
1, 87366, Note_on_c, 0, 82, 68
1, 87372, Control_c, 0, 64, 69
1, 87387, Control_c, 0, 64, 94
1, 87390, Note_on_c, 0, 83, 42
1, 87400, Note_off_c, 0, 72, 64
1, 87402, Control_c, 0, 64, 127
1, 87405, Note_on_c, 0, 78, 49
1, 87414, Note_on_c, 0, 75, 67
1, 87415, Note_off_c, 0, 83, 58
1, 87441, Note_off_c, 0, 84, 60
1, 87446, Note_on_c, 0, 56, 60
1, 87450, Note_off_c, 0, 63, 58
1, 87451, Note_off_c, 0, 78, 43
1, 87452, Note_on_c, 0, 72, 72
1, 87453, Note_on_c, 0, 79, 24
1, 87473, Note_off_c, 0, 82, 60
1, 87482, Note_off_c, 0, 75, 56
1, 87485, Note_off_c, 0, 72, 64
1, 87488, Note_off_c, 0, 79, 48
1, 87490, Note_off_c, 0, 51, 58
1, 87510, Note_off_c, 0, 56, 56
1, 87521, Control_c, 0, 64, 95
1, 87536, Control_c, 0, 64, 87
1, 87551, Control_c, 0, 64, 91
1, 87558, Note_on_c, 0, 70, 99
1, 87559, Note_on_c, 0, 82, 101
1, 87560, Note_on_c, 0, 61, 99
1, 87565, Control_c, 0, 64, 127
1, 87571, Note_on_c, 0, 49, 86
1, 87604, Note_on_c, 0, 80, 32
1, 87635, Note_on_c, 0, 73, 72
1, 87658, Note_off_c, 0, 70, 59
1, 87666, Note_off_c, 0, 61, 61
1, 87667, Note_off_c, 0, 49, 60
1, 87670, Note_off_c, 0, 82, 59
1, 87673, Note_on_c, 0, 56, 62
1, 87686, Note_off_c, 0, 73, 62
1, 87694, Note_off_c, 0, 80, 29
1, 87701, Note_on_c, 0, 53, 39
1, 87714, Control_c, 0, 64, 100
1, 87729, Control_c, 0, 64, 75
1, 87730, Note_off_c, 0, 56, 58
1, 87738, Note_off_c, 0, 53, 47
1, 87744, Control_c, 0, 64, 68
1, 87751, Note_on_c, 0, 72, 98
1, 87755, Note_on_c, 0, 84, 95
1, 87759, Control_c, 0, 64, 74
1, 87760, Note_on_c, 0, 60, 100
1, 87768, Note_on_c, 0, 48, 89
1, 87774, Control_c, 0, 64, 98
1, 87777, Note_on_c, 0, 83, 68
1, 87788, Control_c, 0, 64, 127
1, 87793, Note_off_c, 0, 83, 43
1, 87818, Note_on_c, 0, 75, 61
1, 87825, Note_off_c, 0, 72, 62
1, 87849, Note_off_c, 0, 60, 62
1, 87852, Note_off_c, 0, 48, 63
1, 87854, Note_off_c, 0, 84, 61
1, 87867, Note_off_c, 0, 75, 63
1, 87867, Poly_aftertouch_c, 0, 81, 127
1, 87873, Note_on_c, 0, 53, 64
1, 87889, Note_on_c, 0, 51, 33
1, 87901, Poly_aftertouch_c, 0, 81, 0
1, 87920, Note_off_c, 0, 51, 47
1, 87927, Note_off_c, 0, 53, 60
1, 87947, Note_on_c, 0, 73, 107
1, 87947, Note_on_c, 0, 85, 104
1, 87952, Note_on_c, 0, 58, 102
1, 87970, Note_on_c, 0, 46, 93
1, 87971, Poly_aftertouch_c, 0, 54, 0
1, 87994, Note_on_c, 0, 78, 34
1, 88010, Note_on_c, 0, 56, 8
1, 88026, Note_off_c, 0, 78, 54
1, 88031, Note_on_c, 0, 77, 69
1, 88049, Note_off_c, 0, 58, 62
1, 88052, Note_on_c, 0, 53, 47
1, 88058, Note_off_c, 0, 46, 62
1, 88068, Note_off_c, 0, 73, 59
1, 88071, Note_off_c, 0, 85, 62
1, 88087, Note_on_c, 0, 50, 41
1, 88105, Note_off_c, 0, 77, 60
1, 88106, Note_off_c, 0, 56, 34
1, 88151, Control_c, 0, 64, 95
1, 88158, Note_on_c, 0, 74, 117
1, 88159, Note_on_c, 0, 56, 102
1, 88162, Note_on_c, 0, 86, 103
1, 88166, Control_c, 0, 64, 85
1, 88174, Note_on_c, 0, 44, 82
1, 88176, Note_on_c, 0, 54, 76
1, 88176, Note_on_c, 0, 78, 63
1, 88181, Note_on_c, 0, 83, 59
1, 88181, Control_c, 0, 64, 89
1, 88195, Note_off_c, 0, 53, 53
1, 88195, Control_c, 0, 64, 116
1, 88196, Note_off_c, 0, 78, 63
1, 88197, Note_off_c, 0, 54, 57
1, 88210, Control_c, 0, 64, 127
1, 88222, Note_on_c, 0, 46, 20
1, 88225, Note_on_c, 0, 77, 58
1, 88240, Note_on_c, 0, 53, 43
1, 88243, Note_off_c, 0, 74, 59
1, 88246, Note_off_c, 0, 46, 59
1, 88250, Note_off_c, 0, 86, 56
1, 88257, Note_off_c, 0, 44, 61
1, 88269, Note_off_c, 0, 56, 56
1, 88269, Note_off_c, 0, 77, 60
1, 88273, Note_off_c, 0, 83, 61
1, 88290, Note_off_c, 0, 50, 58
1, 88303, Note_off_c, 0, 53, 61
1, 88328, Poly_aftertouch_c, 0, 81, 127
1, 88351, Note_on_c, 0, 55, 106
1, 88352, Note_on_c, 0, 87, 96
1, 88353, Poly_aftertouch_c, 0, 81, 0
1, 88353, Note_on_c, 0, 75, 107
1, 88359, Note_on_c, 0, 43, 94
1, 88400, Note_on_c, 0, 88, 25
1, 88435, Note_off_c, 0, 88, 45
1, 88453, Note_off_c, 0, 55, 60
1, 88466, Note_off_c, 0, 75, 59
1, 88472, Note_off_c, 0, 43, 59
1, 88475, Note_on_c, 0, 46, 47
1, 88478, Note_on_c, 0, 49, 64
1, 88478, Note_off_c, 0, 87, 57
1, 88514, Note_off_c, 0, 49, 63
1, 88515, Note_off_c, 0, 46, 62
1, 88546, Note_on_c, 0, 88, 101
1, 88546, Note_on_c, 0, 76, 104
1, 88551, Note_on_c, 0, 54, 104
1, 88552, Control_c, 0, 64, 84
1, 88561, Note_on_c, 0, 42, 89
1, 88565, Note_on_c, 0, 86, 75
1, 88567, Control_c, 0, 64, 83
1, 88571, Note_on_c, 0, 56, 68
1, 88582, Control_c, 0, 64, 95
1, 88586, Note_off_c, 0, 86, 53
1, 88591, Note_off_c, 0, 56, 63
1, 88597, Control_c, 0, 64, 127
1, 88627, Note_on_c, 0, 85, 67
1, 88641, Note_on_c, 0, 82, 6
1, 88645, Note_off_c, 0, 76, 58
1, 88649, Poly_aftertouch_c, 0, 46, 127
1, 88653, Note_on_c, 0, 49, 13
1, 88653, Note_off_c, 0, 54, 56
1, 88660, Note_off_c, 0, 88, 61
1, 88664, Note_off_c, 0, 42, 59
1, 88686, Note_off_c, 0, 82, 60
1, 88695, Note_off_c, 0, 85, 64
1, 88730, Poly_aftertouch_c, 0, 46, 0
1, 88731, Note_off_c, 0, 49, 60
1, 88755, Note_on_c, 0, 77, 113
1, 88756, Note_on_c, 0, 53, 105
1, 88759, Note_on_c, 0, 89, 110
1, 88764, Note_on_c, 0, 41, 92
1, 88783, Note_on_c, 0, 88, 47
1, 88800, Note_on_c, 0, 82, 23
1, 88801, Note_off_c, 0, 82, 127
1, 88805, Note_on_c, 0, 43, 34
1, 88806, Note_on_c, 0, 87, 34
1, 88833, Note_on_c, 0, 85, 74
1, 88838, Poly_aftertouch_c, 0, 82, 0
1, 88844, Note_off_c, 0, 43, 46
1, 88847, Note_off_c, 0, 77, 55
1, 88848, Note_off_c, 0, 87, 30
1, 88857, Note_on_c, 0, 82, 30
1, 88862, Note_off_c, 0, 41, 64
1, 88863, Note_on_c, 0, 46, 60
1, 88863, Note_off_c, 0, 53, 56
1, 88870, Note_on_c, 0, 49, 74
1, 88870, Note_off_c, 0, 89, 60
1, 88889, Note_off_c, 0, 82, 61
1, 88892, Note_off_c, 0, 88, 22
1, 88901, Note_off_c, 0, 85, 64
1, 88925, Note_off_c, 0, 46, 62
1, 88928, Note_off_c, 0, 49, 60
1, 88959, Control_c, 0, 64, 80
1, 88966, Note_on_c, 0, 79, 126
1, 88967, Note_on_c, 0, 91, 108
1, 88970, Note_on_c, 0, 52, 111
1, 88974, Control_c, 0, 64, 61
1, 88977, Note_on_c, 0, 40, 97
1, 88989, Control_c, 0, 64, 60
1, 88991, Note_on_c, 0, 89, 61
1, 88994, Note_on_c, 0, 88, 51
1, 89004, Control_c, 0, 64, 68
1, 89007, Note_off_c, 0, 89, 42
1, 89012, Note_off_c, 0, 88, 65
1, 89018, Note_on_c, 0, 43, 24
1, 89018, Control_c, 0, 64, 84
1, 89033, Control_c, 0, 64, 127
1, 89045, Note_on_c, 0, 85, 77
1, 89047, Note_off_c, 0, 43, 62
1, 89055, Note_on_c, 0, 41, 25
1, 89058, Note_off_c, 0, 79, 56
1, 89060, Note_on_c, 0, 82, 31
1, 89064, Note_off_c, 0, 40, 64
1, 89067, Note_off_c, 0, 52, 65
1, 89068, Note_on_c, 0, 49, 80
1, 89074, Note_on_c, 0, 46, 77
1, 89083, Note_off_c, 0, 91, 59
1, 89104, Note_off_c, 0, 82, 61
1, 89107, Note_off_c, 0, 41, 39
1, 89117, Note_off_c, 0, 85, 62
1, 89134, Note_off_c, 0, 49, 61
1, 89141, Note_off_c, 0, 46, 61
1, 89187, Note_on_c, 0, 51, 107
1, 89190, Note_on_c, 0, 81, 110
1, 89195, Note_on_c, 0, 93, 110
1, 89196, Note_on_c, 0, 39, 97
1, 89207, Note_on_c, 0, 90, 83
1, 89207, Note_on_c, 0, 91, 89
1, 89212, Control_c, 0, 64, 81
1, 89226, Control_c, 0, 64, 77
1, 89227, Note_off_c, 0, 90, 70
1, 89241, Control_c, 0, 64, 94
1, 89256, Control_c, 0, 64, 127
1, 89274, Note_off_c, 0, 91, 49
1, 89282, Note_on_c, 0, 84, 45
1, 89282, Note_off_c, 0, 51, 59
1, 89285, Note_on_c, 0, 44, 76
1, 89285, Note_on_c, 0, 90, 75
1, 89286, Note_off_c, 0, 81, 59
1, 89292, Note_on_c, 0, 48, 70
1, 89319, Note_off_c, 0, 84, 46
1, 89319, Note_off_c, 0, 39, 56
1, 89345, Note_off_c, 0, 93, 40
1, 89366, Note_off_c, 0, 48, 58
1, 89378, Note_off_c, 0, 90, 66
1, 89399, Note_off_c, 0, 44, 60
1, 89456, Note_on_c, 0, 82, 113
1, 89456, Note_on_c, 0, 94, 109
1, 89459, Note_on_c, 0, 37, 94
1, 89464, Note_on_c, 0, 90, 86
1, 89465, Note_on_c, 0, 49, 97
1, 89483, Note_on_c, 0, 38, 57
1, 89485, Note_off_c, 0, 49, 67
1, 89489, Note_on_c, 0, 92, 41
1, 89494, Note_on_c, 0, 95, 38
1, 89500, Note_off_c, 0, 82, 63
1, 89515, Note_off_c, 0, 92, 35
1, 89527, Note_off_c, 0, 95, 50
1, 89528, Note_off_c, 0, 38, 58
1, 89539, Note_on_c, 0, 49, 94
1, 89555, Poly_aftertouch_c, 0, 41, 127
1, 89558, Note_off_c, 0, 37, 59
1, 89558, Poly_aftertouch_c, 0, 39, 127
1, 89562, Note_on_c, 0, 82, 85
1, 89578, Note_on_c, 0, 44, 43
1, 89579, Note_off_c, 0, 94, 61
1, 89586, Note_off_c, 0, 90, 59
1, 89589, Note_off_c, 0, 82, 62
1, 89593, Poly_aftertouch_c, 0, 39, 0
1, 89595, Note_off_c, 0, 49, 61
1, 89667, Poly_aftertouch_c, 0, 41, 0
1, 89675, Note_off_c, 0, 44, 61
1, 89737, Control_c, 0, 64, 62
1, 89752, Control_c, 0, 64, 0
1, 89760, Note_on_c, 0, 46, 111
1, 89765, Note_on_c, 0, 34, 92
1, 89771, Note_on_c, 0, 85, 115
1, 89772, Note_on_c, 0, 97, 112
1, 89781, Control_c, 0, 64, 57
1, 89793, Note_on_c, 0, 47, 48
1, 89796, Control_c, 0, 64, 87
1, 89797, Note_on_c, 0, 39, 34
1, 89797, Note_on_c, 0, 94, 51
1, 89798, Note_off_c, 0, 94, 127
1, 89805, Note_off_c, 0, 85, 68
1, 89807, Note_on_c, 0, 37, 22
1, 89811, Control_c, 0, 64, 127
1, 89813, Note_off_c, 0, 34, 64
1, 89821, Note_on_c, 0, 98, 12
1, 89822, Note_off_c, 0, 98, 127
1, 89822, Note_off_c, 0, 47, 61
1, 89824, Note_off_c, 0, 97, 61
1, 89828, Note_off_c, 0, 46, 67
1, 89828, Note_off_c, 0, 37, 66
1, 89829, Note_off_c, 0, 39, 55
1, 89837, Note_on_c, 0, 35, 9
1, 89837, Note_on_c, 0, 93, 33
1, 89838, Note_off_c, 0, 93, 127
1, 89890, Note_off_c, 0, 35, 36
1, 89981, Note_on_c, 0, 73, 108
1, 89982, Note_on_c, 0, 85, 106
1, 89987, Note_on_c, 0, 65, 98
1, 89993, Note_on_c, 0, 64, 91
1, 90001, Note_on_c, 0, 72, 74
1, 90007, Note_on_c, 0, 82, 61
1, 90008, Note_off_c, 0, 82, 127
1, 90010, Note_off_c, 0, 73, 68
1, 90014, Note_off_c, 0, 65, 67
1, 90016, Note_off_c, 0, 64, 69
1, 90026, Note_off_c, 0, 72, 64
1, 90028, Note_off_c, 0, 85, 63
1, 90124, Control_c, 0, 64, 84
1, 90139, Control_c, 0, 64, 61
1, 90142, Note_on_c, 0, 48, 103
1, 90146, Note_on_c, 0, 84, 113
1, 90146, Note_on_c, 0, 96, 114
1, 90147, Note_on_c, 0, 36, 94
1, 90154, Control_c, 0, 64, 63
1, 90168, Note_off_c, 0, 36, 73
1, 90169, Control_c, 0, 64, 75
1, 90171, Note_off_c, 0, 96, 71
1, 90172, Note_off_c, 0, 48, 68
1, 90172, Note_off_c, 0, 84, 69
1, 90175, Note_on_c, 0, 94, 63
1, 90176, Note_off_c, 0, 94, 127
1, 90183, Control_c, 0, 64, 127
1, 90211, Note_on_c, 0, 43, 18
1, 90255, Note_on_c, 0, 36, 19
1, 90262, Note_off_c, 0, 43, 43
1, 90271, Poly_aftertouch_c, 0, 39, 0
1, 90285, Note_off_c, 0, 36, 59
1, 90293, Note_on_c, 0, 74, 104
1, 90299, Note_on_c, 0, 86, 96
1, 90306, Note_on_c, 0, 64, 90
1, 90308, Note_on_c, 0, 65, 88
1, 90308, Note_on_c, 0, 85, 82
1, 90316, Note_on_c, 0, 84, 71
1, 90320, Note_off_c, 0, 74, 64
1, 90326, Note_off_c, 0, 64, 71
1, 90326, Note_off_c, 0, 86, 64
1, 90328, Note_off_c, 0, 65, 70
1, 90329, Note_off_c, 0, 85, 70
1, 90332, Note_off_c, 0, 84, 65
1, 90430, Note_on_c, 0, 49, 110
1, 90434, Note_on_c, 0, 37, 97
1, 90437, Note_on_c, 0, 94, 102
1, 90438, Note_on_c, 0, 82, 111
1, 90445, Note_on_c, 0, 96, 88
1, 90448, Note_on_c, 0, 85, 87
1, 90451, Note_on_c, 0, 83, 91
1, 90451, Note_on_c, 0, 90, 83
1, 90452, Note_off_c, 0, 90, 127
1, 90454, Note_on_c, 0, 95, 85
1, 90457, Note_off_c, 0, 82, 68
1, 90461, Note_off_c, 0, 85, 70
1, 90461, Note_off_c, 0, 49, 68
1, 90463, Note_off_c, 0, 96, 72
1, 90466, Note_off_c, 0, 37, 62
1, 90467, Note_on_c, 0, 39, 42
1, 90468, Note_off_c, 0, 39, 127
1, 90469, Note_off_c, 0, 83, 71
1, 90477, Note_off_c, 0, 95, 69
1, 90490, Note_off_c, 0, 94, 55
1, 90503, Poly_aftertouch_c, 0, 39, 0
1, 90556, Note_on_c, 0, 85, 28
1, 90575, Note_on_c, 0, 70, 109
1, 90576, Note_on_c, 0, 82, 102
1, 90582, Note_on_c, 0, 65, 102
1, 90591, Note_on_c, 0, 64, 82
1, 90602, Note_off_c, 0, 70, 69
1, 90603, Note_off_c, 0, 85, 28
1, 90606, Note_off_c, 0, 82, 65
1, 90614, Note_off_c, 0, 64, 70
1, 90615, Note_off_c, 0, 65, 64
1, 90689, Poly_aftertouch_c, 0, 54, 0
1, 90710, Control_c, 0, 64, 74
1, 90719, Poly_aftertouch_c, 0, 54, 0
1, 90725, Control_c, 0, 64, 0
1, 90726, Note_on_c, 0, 48, 111
1, 90732, Note_on_c, 0, 36, 98
1, 90735, Note_on_c, 0, 95, 114
1, 90736, Note_on_c, 0, 83, 92
1, 90743, Note_on_c, 0, 81, 92
1, 90749, Note_on_c, 0, 42, 55
1, 90749, Note_on_c, 0, 93, 78
1, 90753, Note_off_c, 0, 81, 44
1, 90755, Note_off_c, 0, 48, 73
1, 90755, Control_c, 0, 64, 49
1, 90757, Note_off_c, 0, 36, 71
1, 90765, Note_off_c, 0, 83, 68
1, 90768, Note_off_c, 0, 93, 46
1, 90768, Note_off_c, 0, 95, 69
1, 90770, Control_c, 0, 64, 77
1, 90779, Note_off_c, 0, 42, 54
1, 90785, Control_c, 0, 64, 127
1, 90814, Note_on_c, 0, 81, 33
1, 90833, Note_off_c, 0, 81, 65
1, 90886, Note_on_c, 0, 83, 100
1, 90887, Note_on_c, 0, 72, 93
1, 90888, Note_on_c, 0, 65, 103
1, 90889, Note_on_c, 0, 71, 92
1, 90905, Note_off_c, 0, 71, 73
1, 90907, Note_on_c, 0, 64, 66
1, 90913, Note_off_c, 0, 72, 65
1, 90913, Note_off_c, 0, 65, 67
1, 90919, Note_off_c, 0, 83, 68
1, 90925, Note_off_c, 0, 64, 67
1, 91056, Note_on_c, 0, 46, 103
1, 91062, Note_on_c, 0, 34, 93
1, 91062, Note_on_c, 0, 94, 117
1, 91063, Note_on_c, 0, 82, 114
1, 91068, Note_on_c, 0, 37, 86
1, 91070, Note_on_c, 0, 47, 84
1, 91071, Note_on_c, 0, 48, 82
1, 91079, Note_on_c, 0, 92, 79
1, 91080, Note_off_c, 0, 92, 127
1, 91084, Note_on_c, 0, 39, 41
1, 91086, Note_off_c, 0, 34, 64
1, 91086, Note_off_c, 0, 47, 70
1, 91087, Note_off_c, 0, 48, 69
1, 91089, Note_off_c, 0, 46, 65
1, 91092, Note_off_c, 0, 37, 56
1, 91092, Note_off_c, 0, 82, 68
1, 91095, Note_on_c, 0, 95, 54
1, 91114, Note_off_c, 0, 94, 61
1, 91114, Note_off_c, 0, 39, 56
1, 91114, Note_off_c, 0, 95, 62
1, 91208, Poly_aftertouch_c, 0, 34, 127
1, 91235, Note_on_c, 0, 65, 98
1, 91237, Note_on_c, 0, 70, 115
1, 91239, Note_on_c, 0, 82, 118
1, 91241, Note_on_c, 0, 64, 90
1, 91246, Poly_aftertouch_c, 0, 34, 0
1, 91259, Note_off_c, 0, 65, 69
1, 91262, Note_off_c, 0, 70, 70
1, 91266, Note_off_c, 0, 64, 66
1, 91280, Note_on_c, 0, 80, 37
1, 91281, Note_off_c, 0, 80, 127
1, 91283, Note_off_c, 0, 82, 62
1, 91312, Poly_aftertouch_c, 0, 80, 0
1, 91355, Poly_aftertouch_c, 0, 54, 0
1, 91524, Note_on_c, 0, 41, 121
1, 91525, Note_on_c, 0, 101, 112
1, 91527, Note_on_c, 0, 89, 122
1, 91530, Note_on_c, 0, 29, 105
1, 91551, Note_on_c, 0, 30, 45
1, 91552, Note_off_c, 0, 30, 127
1, 91558, Note_on_c, 0, 31, 65
1, 91559, Note_on_c, 0, 97, 48
1, 91560, Note_off_c, 0, 97, 127
1, 91566, Note_on_c, 0, 36, 34
1, 91569, Note_on_c, 0, 99, 31
1, 91570, Note_off_c, 0, 99, 127
1, 91578, Control_c, 0, 64, 114
1, 91582, Note_on_c, 0, 32, 51
1, 91593, Note_off_c, 0, 31, 55
1, 91593, Control_c, 0, 64, 63
1, 91595, Note_off_c, 0, 36, 59
1, 91608, Control_c, 0, 64, 0
1, 91624, Note_off_c, 0, 32, 44
1, 91668, Control_c, 0, 64, 59
1, 91682, Control_c, 0, 64, 117
1, 91697, Control_c, 0, 64, 127
1, 91724, Note_off_c, 0, 29, 63
1, 91746, Note_off_c, 0, 101, 60
1, 91749, Note_off_c, 0, 41, 66
1, 91759, Note_off_c, 0, 89, 57
1, 92079, Note_on_c, 0, 59, 120
1, 92091, Note_on_c, 0, 69, 99
1, 92107, Note_on_c, 0, 65, 58
1, 92127, Note_off_c, 0, 65, 64
1, 92135, Note_on_c, 0, 75, 26
1, 92146, Note_off_c, 0, 69, 60
1, 92156, Note_on_c, 0, 64, 25
1, 92171, Note_off_c, 0, 75, 53
1, 92175, Note_on_c, 0, 72, 70
1, 92205, Note_off_c, 0, 64, 46
1, 92236, Note_off_c, 0, 72, 61
1, 92244, Note_on_c, 0, 69, 72
1, 92291, Poly_aftertouch_c, 0, 65, 127
1, 92293, Note_on_c, 0, 72, 62
1, 92295, Note_off_c, 0, 69, 61
1, 92365, Note_on_c, 0, 69, 67
1, 92367, Note_off_c, 0, 72, 57
1, 92402, Note_on_c, 0, 72, 48
1, 92414, Note_off_c, 0, 69, 61
1, 92419, Note_off_c, 0, 59, 53
1, 92498, Note_on_c, 0, 69, 69
1, 92501, Poly_aftertouch_c, 0, 65, 0
1, 92503, Note_off_c, 0, 72, 61
1, 92525, Note_on_c, 0, 60, 105
1, 92542, Note_on_c, 0, 72, 54
1, 92545, Note_off_c, 0, 69, 61
1, 92553, Note_on_c, 0, 65, 28
1, 92555, Note_off_c, 0, 65, 0
1, 92589, Poly_aftertouch_c, 0, 65, 0
1, 92622, Note_on_c, 0, 69, 78
1, 92625, Note_off_c, 0, 72, 61
1, 92669, Note_off_c, 0, 69, 62
1, 92686, Note_on_c, 0, 72, 58
1, 92714, Note_on_c, 0, 65, 45
1, 92737, Note_on_c, 0, 69, 72
1, 92743, Note_off_c, 0, 72, 62
1, 92778, Note_off_c, 0, 60, 57
1, 92794, Note_off_c, 0, 69, 61
1, 92800, Note_on_c, 0, 72, 63
1, 92864, Note_on_c, 0, 61, 106
1, 92865, Note_on_c, 0, 69, 73
1, 92865, Note_off_c, 0, 72, 60
1, 92898, Note_on_c, 0, 72, 54
1, 92905, Note_off_c, 0, 69, 61
1, 92910, Note_off_c, 0, 65, 59
1, 92976, Note_on_c, 0, 69, 70
1, 92977, Note_off_c, 0, 72, 60
1, 93018, Note_on_c, 0, 72, 43
1, 93021, Note_off_c, 0, 69, 59
1, 93048, Note_on_c, 0, 65, 62
1, 93077, Note_on_c, 0, 69, 64
1, 93086, Note_off_c, 0, 72, 60
1, 93110, Note_off_c, 0, 61, 60
1, 93131, Note_off_c, 0, 69, 61
1, 93138, Note_on_c, 0, 72, 47
1, 93166, Note_off_c, 0, 65, 0
1, 93179, Note_on_c, 0, 60, 99
1, 93201, Note_off_c, 0, 72, 57
1, 93205, Note_on_c, 0, 69, 61
1, 93223, Note_on_c, 0, 59, 51
1, 93229, Note_off_c, 0, 69, 67
1, 93252, Note_on_c, 0, 72, 30
1, 93252, Note_off_c, 0, 59, 53
1, 93260, Poly_aftertouch_c, 0, 65, 0
1, 93298, Note_off_c, 0, 72, 45
1, 93304, Note_on_c, 0, 69, 74
1, 93319, Poly_aftertouch_c, 0, 58, 0
1, 93334, Note_on_c, 0, 65, 72
1, 93349, Note_off_c, 0, 69, 58
1, 93365, Note_on_c, 0, 72, 56
1, 93399, Note_on_c, 0, 69, 57
1, 93438, Note_off_c, 0, 72, 58
1, 93446, Note_off_c, 0, 60, 56
1, 93507, Note_on_c, 0, 57, 87
1, 93513, Note_on_c, 0, 81, 100
1, 93527, Note_off_c, 0, 65, 56
1, 93531, Note_off_c, 0, 69, 57
1, 93625, Note_on_c, 0, 72, 42
1, 93644, Note_off_c, 0, 57, 62
1, 93645, Note_on_c, 0, 65, 68
1, 93662, Note_on_c, 0, 69, 70
1, 93666, Note_off_c, 0, 81, 60
1, 93680, Note_off_c, 0, 72, 0
1, 93692, Note_on_c, 0, 72, 52
1, 93706, Note_on_c, 0, 60, 73
1, 93790, Note_off_c, 0, 65, 58
1, 93808, Note_on_c, 0, 53, 88
1, 93839, Note_off_c, 0, 60, 59
1, 93935, Note_on_c, 0, 81, 103
1, 93961, Note_off_c, 0, 69, 42
1, 93975, Note_off_c, 0, 72, 61
1, 93981, Control_c, 0, 64, 73
1, 93996, Control_c, 0, 64, 0
1, 94070, Control_c, 0, 64, 63
1, 94084, Control_c, 0, 64, 79
1, 94099, Control_c, 0, 64, 127
1, 94139, Note_on_c, 0, 73, 66
1, 94142, Note_off_c, 0, 53, 60
1, 94192, Note_off_c, 0, 81, 47
1, 94222, Note_on_c, 0, 70, 70
1, 94321, Note_off_c, 0, 73, 56
1, 94348, Note_on_c, 0, 78, 102
1, 94358, Note_on_c, 0, 61, 60
1, 94382, Note_off_c, 0, 70, 58
1, 94429, Note_off_c, 0, 61, 60
1, 94438, Note_on_c, 0, 62, 61
1, 94448, Note_on_c, 0, 73, 69
1, 94501, Note_off_c, 0, 62, 54
1, 94505, Note_off_c, 0, 78, 59
1, 94528, Note_on_c, 0, 70, 71
1, 94532, Note_on_c, 0, 63, 65
1, 94554, Note_off_c, 0, 73, 52
1, 94574, Note_off_c, 0, 63, 59
1, 94578, Note_on_c, 0, 64, 73
1, 94634, Note_off_c, 0, 64, 60
1, 94654, Note_on_c, 0, 66, 81
1, 94654, Note_on_c, 0, 79, 95
1, 94681, Note_off_c, 0, 70, 56
1, 94729, Note_on_c, 0, 73, 70
1, 94732, Note_on_c, 0, 67, 77
1, 94759, Note_off_c, 0, 66, 56
1, 94785, Note_off_c, 0, 73, 61
1, 94805, Note_off_c, 0, 79, 64
1, 94814, Note_off_c, 0, 67, 61
1, 94816, Note_on_c, 0, 69, 78
1, 94821, Note_on_c, 0, 70, 81
1, 94875, Note_on_c, 0, 73, 60
1, 94973, Note_off_c, 0, 69, 53
1, 94984, Note_on_c, 0, 58, 68
1, 95004, Note_on_c, 0, 81, 97
1, 95032, Note_off_c, 0, 70, 57
1, 95035, Note_off_c, 0, 73, 62
1, 95040, Control_c, 0, 64, 116
1, 95055, Control_c, 0, 64, 74
1, 95070, Control_c, 0, 64, 0
1, 95114, Control_c, 0, 64, 56
1, 95129, Control_c, 0, 64, 74
1, 95144, Control_c, 0, 64, 103
1, 95158, Note_on_c, 0, 73, 66
1, 95159, Control_c, 0, 64, 127
1, 95224, Note_off_c, 0, 73, 59
1, 95227, Note_off_c, 0, 81, 54
1, 95231, Note_off_c, 0, 58, 56
1, 95238, Note_on_c, 0, 70, 73
1, 95314, Note_on_c, 0, 73, 54
1, 95355, Note_on_c, 0, 79, 92
1, 95366, Note_on_c, 0, 61, 67
1, 95376, Note_off_c, 0, 70, 56
1, 95383, Note_off_c, 0, 73, 61
1, 95400, Poly_aftertouch_c, 0, 62, 0
1, 95434, Note_off_c, 0, 61, 60
1, 95449, Note_on_c, 0, 73, 59
1, 95453, Note_on_c, 0, 62, 59
1, 95513, Note_off_c, 0, 62, 59
1, 95528, Note_on_c, 0, 70, 63
1, 95546, Note_off_c, 0, 79, 57
1, 95552, Note_on_c, 0, 63, 70
1, 95589, Note_off_c, 0, 63, 60
1, 95599, Note_on_c, 0, 64, 70
1, 95630, Note_off_c, 0, 73, 32
1, 95653, Note_off_c, 0, 64, 63
1, 95677, Note_on_c, 0, 77, 88
1, 95686, Note_off_c, 0, 70, 59
1, 95687, Note_on_c, 0, 65, 67
1, 95736, Note_on_c, 0, 67, 65
1, 95743, Note_off_c, 0, 65, 62
1, 95757, Note_on_c, 0, 73, 70
1, 95799, Note_off_c, 0, 77, 61
1, 95829, Note_on_c, 0, 70, 73
1, 95835, Note_on_c, 0, 69, 53
1, 95868, Note_off_c, 0, 73, 58
1, 95885, Note_off_c, 0, 70, 60
1, 95900, Note_off_c, 0, 69, 60
1, 95975, Note_off_c, 0, 67, 18
1, 96012, Note_on_c, 0, 53, 64
1, 96088, Note_on_c, 0, 84, 97
1, 96115, Control_c, 0, 64, 95
1, 96130, Control_c, 0, 64, 69
1, 96145, Control_c, 0, 64, 39
1, 96160, Control_c, 0, 64, 0
1, 96174, Control_c, 0, 64, 40
1, 96196, Control_c, 0, 64, 67
1, 96211, Control_c, 0, 64, 91
1, 96226, Control_c, 0, 64, 127
1, 96246, Note_off_c, 0, 84, 60
1, 96342, Note_off_c, 0, 53, 57
1, 96343, Note_on_c, 0, 65, 54
1, 96357, Note_on_c, 0, 57, 56
1, 96367, Note_on_c, 0, 60, 46
1, 96379, Note_on_c, 0, 69, 45
1, 96410, Note_off_c, 0, 69, 55
1, 96437, Note_on_c, 0, 72, 49
1, 96455, Note_on_c, 0, 52, 79
1, 96459, Note_off_c, 0, 65, 36
1, 96483, Note_off_c, 0, 72, 58
1, 96518, Note_on_c, 0, 69, 50
1, 96519, Note_off_c, 0, 60, 52
1, 96529, Note_off_c, 0, 57, 36
1, 96545, Note_off_c, 0, 69, 57
1, 96573, Note_on_c, 0, 72, 51
1, 96616, Note_on_c, 0, 65, 47
1, 96618, Note_off_c, 0, 72, 53
1, 96649, Note_on_c, 0, 69, 58
1, 96659, Note_on_c, 0, 57, 59
1, 96667, Note_off_c, 0, 52, 58
1, 96670, Note_on_c, 0, 60, 26
1, 96716, Note_off_c, 0, 69, 59
1, 96722, Note_on_c, 0, 72, 60
1, 96761, Note_on_c, 0, 53, 87
1, 96775, Note_off_c, 0, 72, 50
1, 96791, Note_off_c, 0, 65, 0
1, 96813, Note_on_c, 0, 69, 52
1, 96827, Poly_aftertouch_c, 0, 65, 127
1, 96849, Note_off_c, 0, 69, 62
1, 96851, Note_off_c, 0, 57, 20
1, 96874, Note_on_c, 0, 72, 54
1, 96878, Note_off_c, 0, 60, 36
1, 96918, Note_off_c, 0, 72, 55
1, 96947, Note_on_c, 0, 69, 61
1, 96970, Note_on_c, 0, 57, 56
1, 96976, Note_off_c, 0, 53, 61
1, 96983, Note_on_c, 0, 60, 44
1, 97030, Note_off_c, 0, 69, 57
1, 97040, Note_on_c, 0, 72, 57
1, 97075, Note_on_c, 0, 54, 87
1, 97114, Poly_aftertouch_c, 0, 65, 0
1, 97114, Note_off_c, 0, 72, 59
1, 97116, Note_off_c, 0, 60, 52
1, 97137, Control_c, 0, 64, 107
1, 97143, Note_on_c, 0, 69, 45
1, 97152, Control_c, 0, 64, 72
1, 97153, Note_off_c, 0, 57, 55
1, 97168, Control_c, 0, 64, 52
1, 97183, Control_c, 0, 64, 0
1, 97213, Control_c, 0, 64, 57
1, 97218, Note_off_c, 0, 69, 45
1, 97227, Control_c, 0, 64, 72
1, 97236, Note_on_c, 0, 72, 48
1, 97242, Control_c, 0, 64, 104
1, 97257, Control_c, 0, 64, 127
1, 97279, Note_on_c, 0, 65, 47
1, 97286, Note_off_c, 0, 72, 56
1, 97301, Note_on_c, 0, 69, 44
1, 97333, Note_on_c, 0, 57, 46
1, 97348, Note_on_c, 0, 60, 44
1, 97363, Note_off_c, 0, 54, 55
1, 97366, Note_on_c, 0, 72, 49
1, 97367, Note_off_c, 0, 69, 57
1, 97438, Note_on_c, 0, 53, 78
1, 97438, Note_off_c, 0, 65, 32
1, 97451, Note_on_c, 0, 69, 43
1, 97465, Note_off_c, 0, 72, 0
1, 97478, Note_off_c, 0, 69, 58
1, 97482, Note_on_c, 0, 72, 35
1, 97494, Note_off_c, 0, 57, 32
1, 97508, Note_off_c, 0, 60, 32
1, 97551, Note_off_c, 0, 72, 61
1, 97571, Note_on_c, 0, 69, 53
1, 97590, Note_on_c, 0, 65, 49
1, 97590, Note_off_c, 0, 53, 58
1, 97607, Note_on_c, 0, 57, 62
1, 97620, Note_off_c, 0, 65, 61
1, 97622, Note_on_c, 0, 60, 39
1, 97638, Note_off_c, 0, 57, 64
1, 97652, Note_off_c, 0, 60, 47
1, 97656, Note_on_c, 0, 72, 37
1, 97763, Note_on_c, 0, 48, 73
1, 97785, Note_off_c, 0, 69, 58
1, 97790, Note_on_c, 0, 81, 88
1, 97809, Note_off_c, 0, 72, 60
1, 97817, Note_off_c, 0, 48, 62
1, 97907, Note_on_c, 0, 69, 66
1, 97932, Note_on_c, 0, 72, 61
1, 97943, Note_off_c, 0, 69, 50
1, 97954, Note_on_c, 0, 56, 51
1, 97966, Note_off_c, 0, 81, 60
1, 97992, Poly_aftertouch_c, 0, 65, 127
1, 97993, Note_off_c, 0, 56, 52
1, 98008, Poly_aftertouch_c, 0, 69, 127
1, 98026, Poly_aftertouch_c, 0, 65, 0
1, 98108, Note_on_c, 0, 46, 76
1, 98206, Note_on_c, 0, 81, 95
1, 98229, Poly_aftertouch_c, 0, 69, 0
1, 98237, Note_off_c, 0, 72, 60
1, 98243, Control_c, 0, 64, 77
1, 98258, Control_c, 0, 64, 55
1, 98273, Control_c, 0, 64, 0
1, 98317, Control_c, 0, 64, 57
1, 98326, Note_off_c, 0, 46, 63
1, 98332, Control_c, 0, 64, 75
1, 98347, Control_c, 0, 64, 107
1, 98361, Control_c, 0, 64, 127
1, 98390, Note_off_c, 0, 81, 62
1, 98403, Note_on_c, 0, 69, 52
1, 98426, Note_on_c, 0, 73, 54
1, 98482, Note_on_c, 0, 70, 37
1, 98484, Poly_aftertouch_c, 0, 76, 0
1, 98544, Note_off_c, 0, 69, 58
1, 98588, Note_off_c, 0, 70, 56
1, 98589, Note_on_c, 0, 57, 56
1, 98589, Note_on_c, 0, 78, 84
1, 98602, Note_off_c, 0, 73, 60
1, 98666, Note_off_c, 0, 57, 61
1, 98677, Note_on_c, 0, 58, 58
1, 98692, Note_on_c, 0, 73, 54
1, 98699, Note_on_c, 0, 66, 59
1, 98717, Note_on_c, 0, 70, 44
1, 98746, Note_off_c, 0, 66, 55
1, 98755, Note_on_c, 0, 59, 57
1, 98760, Note_off_c, 0, 58, 58
1, 98764, Note_off_c, 0, 78, 59
1, 98790, Note_off_c, 0, 59, 63
1, 98792, Note_on_c, 0, 60, 70
1, 98804, Note_off_c, 0, 73, 0
1, 98828, Note_on_c, 0, 73, 15
1, 98839, Note_off_c, 0, 60, 59
1, 98872, Note_on_c, 0, 61, 68
1, 98902, Note_on_c, 0, 79, 86
1, 98908, Note_off_c, 0, 61, 62
1, 98914, Note_off_c, 0, 70, 57
1, 98914, Note_off_c, 0, 73, 59
1, 98919, Note_on_c, 0, 62, 73
1, 98957, Note_off_c, 0, 62, 60
1, 98977, Note_on_c, 0, 73, 63
1, 98983, Poly_aftertouch_c, 0, 77, 127
1, 98988, Note_on_c, 0, 63, 68
1, 99027, Poly_aftertouch_c, 0, 77, 0
1, 99033, Note_on_c, 0, 64, 70
1, 99047, Note_off_c, 0, 73, 60
1, 99056, Note_off_c, 0, 63, 60
1, 99062, Note_on_c, 0, 67, 70
1, 99076, Note_off_c, 0, 79, 61
1, 99088, Note_off_c, 0, 64, 64
1, 99097, Note_on_c, 0, 65, 73
1, 99114, Note_on_c, 0, 70, 45
1, 99126, Note_on_c, 0, 73, 63
1, 99126, Note_off_c, 0, 65, 63
1, 99176, Note_off_c, 0, 67, 58
1, 99236, Note_on_c, 0, 49, 79
1, 99246, Note_off_c, 0, 70, 60
1, 99260, Note_on_c, 0, 81, 87
1, 99266, Control_c, 0, 64, 93
1, 99280, Control_c, 0, 64, 68
1, 99295, Note_off_c, 0, 73, 62
1, 99295, Control_c, 0, 64, 16
1, 99310, Control_c, 0, 64, 0
1, 99339, Control_c, 0, 64, 58
1, 99354, Control_c, 0, 64, 74
1, 99369, Control_c, 0, 64, 113
1, 99384, Control_c, 0, 64, 127
1, 99391, Note_off_c, 0, 49, 60
1, 99408, Note_on_c, 0, 73, 73
1, 99439, Note_off_c, 0, 81, 52
1, 99463, Note_off_c, 0, 73, 59
1, 99481, Poly_aftertouch_c, 0, 69, 127
1, 99552, Note_on_c, 0, 73, 62
1, 99561, Note_on_c, 0, 70, 39
1, 99597, Note_on_c, 0, 57, 53
1, 99614, Note_on_c, 0, 79, 89
1, 99614, Poly_aftertouch_c, 0, 69, 0
1, 99635, Note_off_c, 0, 70, 58
1, 99641, Note_off_c, 0, 73, 60
1, 99665, Note_off_c, 0, 57, 62
1, 99675, Note_on_c, 0, 58, 54
1, 99725, Note_on_c, 0, 73, 63
1, 99763, Note_on_c, 0, 59, 57
1, 99766, Note_off_c, 0, 58, 60
1, 99785, Note_on_c, 0, 70, 19
1, 99785, Note_off_c, 0, 59, 60
1, 99787, Note_off_c, 0, 79, 48
1, 99792, Note_on_c, 0, 67, 61
1, 99808, Note_on_c, 0, 60, 65
1, 99811, Note_off_c, 0, 73, 59
1, 99844, Note_off_c, 0, 60, 60
1, 99877, Note_off_c, 0, 70, 0
1, 99893, Note_on_c, 0, 61, 61
1, 99896, Note_on_c, 0, 70, 25
1, 99914, Note_off_c, 0, 67, 56
1, 99925, Note_on_c, 0, 73, 38
1, 99929, Note_off_c, 0, 61, 63
1, 99961, Note_on_c, 0, 77, 83
1, 99968, Note_off_c, 0, 73, 55
1, 99987, Note_on_c, 0, 64, 41
1, 99991, Note_on_c, 0, 62, 13
1, 100032, Note_off_c, 0, 64, 42
1, 100038, Note_on_c, 0, 73, 58
1, 100038, Note_off_c, 0, 62, 49
1, 100042, Note_on_c, 0, 63, 55
1, 100065, Note_on_c, 0, 67, 52
1, 100070, Note_on_c, 0, 64, 43
1, 100072, Note_off_c, 0, 77, 59
1, 100081, Note_off_c, 0, 63, 62
1, 100087, Note_off_c, 0, 73, 56
1, 100106, Note_off_c, 0, 67, 59
1, 100109, Note_off_c, 0, 70, 34
1, 100132, Note_on_c, 0, 65, 66
1, 100166, Note_off_c, 0, 64, 58
1, 100172, Note_on_c, 0, 63, 64
1, 100173, Note_off_c, 0, 65, 59
1, 100200, Note_off_c, 0, 63, 63
1, 100363, Note_on_c, 0, 41, 49
1, 100370, Note_on_c, 0, 43, 49
1, 100408, Note_on_c, 0, 72, 78
1, 100430, Note_off_c, 0, 43, 53
1, 100434, Note_on_c, 0, 69, 50
1, 100443, Control_c, 0, 64, 88
1, 100458, Control_c, 0, 64, 65
1, 100473, Control_c, 0, 64, 0
1, 100518, Control_c, 0, 64, 17
1, 100533, Control_c, 0, 64, 66
1, 100548, Control_c, 0, 64, 81
1, 100562, Control_c, 0, 64, 127
1, 100574, Note_off_c, 0, 41, 61
1, 100661, Note_on_c, 0, 60, 40
1, 100667, Note_off_c, 0, 69, 56
1, 100697, Note_on_c, 0, 57, 50
1, 100720, Note_off_c, 0, 60, 54
1, 100769, Note_on_c, 0, 53, 57
1, 100774, Note_on_c, 0, 65, 35
1, 100776, Note_off_c, 0, 57, 50
1, 100816, Note_off_c, 0, 65, 46
1, 100843, Note_on_c, 0, 60, 49
1, 100854, Note_on_c, 0, 47, 72
1, 100899, Note_off_c, 0, 60, 55
1, 100936, Note_on_c, 0, 65, 49
1, 100953, Note_off_c, 0, 53, 31
1, 100992, Note_off_c, 0, 65, 52
1, 101003, Poly_aftertouch_c, 0, 57, 0
1, 101020, Note_on_c, 0, 57, 20
1, 101036, Note_on_c, 0, 60, 50
1, 101085, Note_on_c, 0, 53, 40
1, 101094, Note_off_c, 0, 60, 53
1, 101098, Note_off_c, 0, 47, 60
1, 101149, Note_on_c, 0, 65, 34
1, 101182, Note_on_c, 0, 48, 81
1, 101182, Note_off_c, 0, 57, 32
1, 101190, Note_off_c, 0, 65, 46
1, 101237, Note_on_c, 0, 60, 45
1, 101238, Control_c, 0, 64, 96
1, 101253, Control_c, 0, 64, 79
1, 101267, Control_c, 0, 64, 74
1, 101275, Note_off_c, 0, 60, 49
1, 101282, Control_c, 0, 64, 75
1, 101297, Control_c, 0, 64, 84
1, 101300, Note_on_c, 0, 65, 51
1, 101311, Control_c, 0, 64, 107
1, 101321, Note_off_c, 0, 53, 24
1, 101326, Control_c, 0, 64, 127
1, 101335, Note_on_c, 0, 57, 44
1, 101369, Note_off_c, 0, 65, 50
1, 101385, Note_on_c, 0, 53, 40
1, 101388, Note_on_c, 0, 60, 54
1, 101437, Note_off_c, 0, 48, 60
1, 101474, Note_off_c, 0, 60, 57
1, 101490, Note_on_c, 0, 65, 39
1, 101520, Note_on_c, 0, 49, 76
1, 101549, Note_off_c, 0, 57, 50
1, 101556, Control_c, 0, 64, 97
1, 101565, Note_off_c, 0, 65, 52
1, 101571, Control_c, 0, 64, 70
1, 101585, Control_c, 0, 64, 38
1, 101589, Note_on_c, 0, 60, 36
1, 101600, Control_c, 0, 64, 0
1, 101644, Note_off_c, 0, 60, 46
1, 101645, Control_c, 0, 64, 64
1, 101651, Note_off_c, 0, 53, 31
1, 101659, Control_c, 0, 64, 76
1, 101674, Control_c, 0, 64, 101
1, 101676, Note_on_c, 0, 65, 26
1, 101689, Control_c, 0, 64, 127
1, 101719, Note_on_c, 0, 57, 43
1, 101745, Note_on_c, 0, 60, 45
1, 101774, Note_on_c, 0, 53, 57
1, 101812, Note_off_c, 0, 65, 0
1, 101829, Note_off_c, 0, 60, 58
1, 101830, Note_on_c, 0, 65, 12
1, 101851, Note_off_c, 0, 57, 51
1, 101862, Note_on_c, 0, 48, 73
1, 101882, Control_c, 0, 64, 112
1, 101897, Control_c, 0, 64, 78
1, 101910, Note_off_c, 0, 53, 56
1, 101911, Control_c, 0, 64, 62
1, 101918, Note_off_c, 0, 65, 49
1, 101919, Note_off_c, 0, 49, 22
1, 101926, Control_c, 0, 64, 47
1, 101941, Control_c, 0, 64, 54
1, 101947, Note_on_c, 0, 60, 35
1, 101956, Control_c, 0, 64, 64
1, 101972, Control_c, 0, 64, 78
1, 101987, Control_c, 0, 64, 127
1, 101992, Note_off_c, 0, 60, 46
1, 102002, Note_on_c, 0, 57, 44
1, 102023, Note_on_c, 0, 65, 29
1, 102047, Note_off_c, 0, 48, 59
1, 102049, Note_on_c, 0, 53, 59
1, 102069, Note_off_c, 0, 72, 59
1, 102116, Note_on_c, 0, 60, 55
1, 102139, Note_off_c, 0, 53, 53
1, 102164, Note_off_c, 0, 57, 35
1, 102205, Note_on_c, 0, 45, 59
1, 102218, Note_on_c, 0, 72, 77
1, 102232, Note_on_c, 0, 69, 62
1, 102238, Note_off_c, 0, 60, 60
1, 102284, Note_off_c, 0, 65, 38
1, 102330, Note_off_c, 0, 45, 52
1, 102361, Note_on_c, 0, 57, 49
1, 102393, Note_on_c, 0, 65, 55
1, 102393, Note_off_c, 0, 69, 55
1, 102396, Note_on_c, 0, 53, 54
1, 102400, Note_off_c, 0, 57, 63
1, 102406, Note_off_c, 0, 72, 61
1, 102407, Note_on_c, 0, 60, 51
1, 102417, Note_off_c, 0, 53, 63
1, 102546, Note_on_c, 0, 41, 66
1, 102665, Note_on_c, 0, 72, 82
1, 102682, Note_off_c, 0, 60, 57
1, 102682, Note_on_c, 0, 69, 60
1, 102705, Control_c, 0, 64, 93
1, 102720, Control_c, 0, 64, 71
1, 102734, Control_c, 0, 64, 51
1, 102749, Control_c, 0, 64, 0
1, 102762, Note_off_c, 0, 65, 46
1, 102810, Control_c, 0, 64, 62
1, 102825, Control_c, 0, 64, 72
1, 102839, Control_c, 0, 64, 90
1, 102851, Note_off_c, 0, 41, 50
1, 102854, Control_c, 0, 64, 127
1, 102894, Note_off_c, 0, 69, 53
1, 102922, Note_on_c, 0, 65, 51
1, 102928, Note_off_c, 0, 72, 61
1, 102958, Note_on_c, 0, 61, 45
1, 103073, Note_on_c, 0, 49, 49
1, 103102, Note_on_c, 0, 69, 77
1, 103108, Note_on_c, 0, 66, 54
1, 103140, Note_off_c, 0, 61, 48
1, 103142, Note_off_c, 0, 49, 58
1, 103145, Note_off_c, 0, 65, 57
1, 103174, Note_on_c, 0, 50, 53
1, 103213, Note_off_c, 0, 50, 62
1, 103249, Note_on_c, 0, 65, 41
1, 103265, Note_on_c, 0, 51, 54
1, 103270, Note_off_c, 0, 69, 61
1, 103301, Note_off_c, 0, 51, 61
1, 103311, Note_on_c, 0, 61, 41
1, 103315, Note_off_c, 0, 66, 28
1, 103329, Note_on_c, 0, 52, 55
1, 103359, Note_off_c, 0, 52, 62
1, 103405, Note_on_c, 0, 54, 63
1, 103424, Note_on_c, 0, 70, 81
1, 103429, Note_off_c, 0, 61, 59
1, 103447, Note_on_c, 0, 67, 58
1, 103448, Note_off_c, 0, 65, 56
1, 103470, Note_on_c, 0, 55, 65
1, 103481, Note_off_c, 0, 54, 59
1, 103529, Note_on_c, 0, 65, 53
1, 103566, Note_off_c, 0, 67, 57
1, 103579, Note_on_c, 0, 54, 52
1, 103588, Note_off_c, 0, 55, 58
1, 103590, Note_off_c, 0, 70, 58
1, 103601, Note_on_c, 0, 61, 60
1, 103615, Note_on_c, 0, 57, 64
1, 103615, Note_off_c, 0, 54, 57
1, 103740, Note_off_c, 0, 57, 49
1, 103769, Note_on_c, 0, 46, 55
1, 103785, Note_on_c, 0, 72, 81
1, 103812, Note_on_c, 0, 69, 58
1, 103832, Control_c, 0, 64, 90
1, 103834, Note_off_c, 0, 61, 48
1, 103841, Note_off_c, 0, 65, 52
1, 103846, Control_c, 0, 64, 70
1, 103861, Control_c, 0, 64, 52
1, 103876, Control_c, 0, 64, 19
1, 103891, Control_c, 0, 64, 31
1, 103906, Control_c, 0, 64, 56
1, 103920, Control_c, 0, 64, 67
1, 103935, Control_c, 0, 64, 81
1, 103950, Control_c, 0, 64, 127
1, 103983, Note_on_c, 0, 61, 60
1, 103995, Note_off_c, 0, 46, 54
1, 104009, Note_on_c, 0, 65, 52
1, 104023, Note_off_c, 0, 72, 59
1, 104043, Note_off_c, 0, 69, 57
1, 104136, Note_on_c, 0, 70, 77
1, 104147, Note_off_c, 0, 65, 54
1, 104149, Note_on_c, 0, 49, 47
1, 104155, Note_on_c, 0, 67, 50
1, 104163, Note_off_c, 0, 61, 53
1, 104211, Note_off_c, 0, 49, 59
1, 104234, Note_on_c, 0, 50, 54
1, 104247, Note_off_c, 0, 67, 36
1, 104249, Note_on_c, 0, 65, 44
1, 104278, Note_off_c, 0, 50, 62
1, 104315, Note_on_c, 0, 61, 44
1, 104341, Note_on_c, 0, 51, 53
1, 104376, Note_off_c, 0, 51, 60
1, 104420, Note_on_c, 0, 52, 6
1, 104425, Note_on_c, 0, 53, 32
1, 104442, Note_off_c, 0, 70, 49
1, 104470, Note_off_c, 0, 53, 48
1, 104476, Note_on_c, 0, 69, 70
1, 104485, Note_off_c, 0, 52, 48
1, 104485, Note_off_c, 0, 61, 39
1, 104488, Note_off_c, 0, 65, 52
1, 104491, Note_on_c, 0, 54, 54
1, 104540, Note_off_c, 0, 54, 59
1, 104543, Note_on_c, 0, 55, 61
1, 104563, Note_on_c, 0, 65, 48
1, 104611, Note_off_c, 0, 69, 59
1, 104641, Note_off_c, 0, 55, 61
1, 104646, Note_on_c, 0, 61, 51
1, 104662, Note_on_c, 0, 54, 37
1, 104665, Note_on_c, 0, 57, 57
1, 104689, Note_off_c, 0, 54, 55
1, 104724, Note_off_c, 0, 57, 60
1, 104809, Note_off_c, 0, 61, 38
1, 104848, Note_on_c, 0, 41, 63
1, 104894, Note_on_c, 0, 72, 74
1, 104907, Control_c, 0, 64, 105
1, 104910, Note_on_c, 0, 69, 58
1, 104920, Note_off_c, 0, 65, 48
1, 104922, Control_c, 0, 64, 75
1, 104936, Control_c, 0, 64, 56
1, 104951, Control_c, 0, 64, 0
1, 105010, Control_c, 0, 64, 63
1, 105025, Control_c, 0, 64, 72
1, 105040, Control_c, 0, 64, 89
1, 105055, Control_c, 0, 64, 127
1, 105100, Note_on_c, 0, 60, 46
1, 105143, Note_off_c, 0, 72, 38
1, 105156, Note_off_c, 0, 69, 54
1, 105165, Note_on_c, 0, 53, 31
1, 105171, Note_on_c, 0, 45, 42
1, 105189, Note_off_c, 0, 41, 37
1, 105195, Note_on_c, 0, 65, 40
1, 105216, Note_on_c, 0, 48, 8
1, 105228, Note_off_c, 0, 65, 60
1, 105263, Note_off_c, 0, 53, 46
1, 105294, Note_off_c, 0, 60, 22
1, 105314, Note_on_c, 0, 40, 69
1, 105377, Note_off_c, 0, 45, 24
1, 105422, Note_off_c, 0, 48, 33
1, 105449, Note_on_c, 0, 57, 31
1, 105456, Note_on_c, 0, 60, 30
1, 105511, Note_off_c, 0, 57, 54
1, 105526, Note_off_c, 0, 60, 44
1, 105534, Note_on_c, 0, 65, 50
1, 105538, Note_off_c, 0, 40, 53
1, 105549, Note_on_c, 0, 45, 39
1, 105591, Note_off_c, 0, 65, 49
1, 105591, Poly_aftertouch_c, 0, 48, 127
1, 105624, Note_on_c, 0, 60, 28
1, 105626, Note_on_c, 0, 57, 45
1, 105631, Note_off_c, 0, 45, 0
1, 105655, Note_on_c, 0, 41, 79
1, 105669, Poly_aftertouch_c, 0, 45, 127
1, 105671, Control_c, 0, 64, 113
1, 105685, Control_c, 0, 64, 79
1, 105700, Note_off_c, 0, 57, 49
1, 105700, Control_c, 0, 64, 64
1, 105715, Control_c, 0, 64, 56
1, 105730, Control_c, 0, 64, 60
1, 105740, Poly_aftertouch_c, 0, 45, 0
1, 105740, Poly_aftertouch_c, 0, 48, 0
1, 105745, Control_c, 0, 64, 66
1, 105747, Note_on_c, 0, 65, 39
1, 105759, Control_c, 0, 64, 76
1, 105774, Control_c, 0, 64, 100
1, 105789, Control_c, 0, 64, 127
1, 105790, Note_off_c, 0, 65, 45
1, 105804, Note_off_c, 0, 60, 0
1, 105824, Note_on_c, 0, 60, 10
1, 105824, Note_on_c, 0, 57, 45
1, 105863, Note_on_c, 0, 45, 53
1, 105895, Note_on_c, 0, 48, 40
1, 105971, Poly_aftertouch_c, 0, 53, 127
1, 105987, Note_off_c, 0, 41, 33
1, 106038, Note_off_c, 0, 57, 0
1, 106057, Note_on_c, 0, 42, 74
1, 106075, Poly_aftertouch_c, 0, 57, 127
1, 106079, Poly_aftertouch_c, 0, 53, 0
1, 106101, Note_off_c, 0, 45, 58
1, 106113, Note_off_c, 0, 48, 50
1, 106128, Poly_aftertouch_c, 0, 57, 0
1, 106138, Control_c, 0, 64, 86
1, 106153, Control_c, 0, 64, 67
1, 106168, Control_c, 0, 64, 37
1, 106182, Control_c, 0, 64, 0
1, 106228, Note_off_c, 0, 60, 0
1, 106241, Control_c, 0, 64, 38
1, 106254, Note_on_c, 0, 57, 4
1, 106256, Control_c, 0, 64, 64
1, 106265, Poly_aftertouch_c, 0, 60, 127
1, 106271, Control_c, 0, 64, 71
1, 106286, Control_c, 0, 64, 82
1, 106301, Control_c, 0, 64, 96
1, 106316, Control_c, 0, 64, 121
1, 106331, Control_c, 0, 64, 127
1, 106333, Note_off_c, 0, 57, 39
1, 106343, Note_on_c, 0, 53, 14
1, 106389, Note_on_c, 0, 65, 21
1, 106399, Note_off_c, 0, 42, 58
1, 106411, Note_on_c, 0, 48, 30
1, 106430, Note_off_c, 0, 65, 50
1, 106443, Note_on_c, 0, 57, 37
1, 106468, Poly_aftertouch_c, 0, 45, 127
1, 106493, Note_off_c, 0, 53, 30
1, 106511, Note_on_c, 0, 41, 63
1, 106516, Poly_aftertouch_c, 0, 45, 0
1, 106524, Note_off_c, 0, 57, 53
1, 106539, Note_on_c, 0, 65, 55
1, 106542, Note_off_c, 0, 48, 36
1, 106607, Note_off_c, 0, 65, 51
1, 106626, Poly_aftertouch_c, 0, 60, 0
1, 106664, Note_off_c, 0, 41, 36
1, 106671, Note_on_c, 0, 53, 42
1, 106683, Note_on_c, 0, 45, 42
1, 106712, Note_off_c, 0, 53, 61
1, 106739, Note_off_c, 0, 45, 61
1, 106761, Poly_aftertouch_c, 0, 48, 127
1, 106793, Poly_aftertouch_c, 0, 48, 0
1, 106868, Note_on_c, 0, 36, 60
1, 106879, Note_on_c, 0, 69, 69
1, 106890, Note_on_c, 0, 57, 7
1, 106903, Note_off_c, 0, 36, 63
1, 106968, Poly_aftertouch_c, 0, 65, 127
1, 107004, Poly_aftertouch_c, 0, 65, 0
1, 107004, Note_on_c, 0, 60, 48
1, 107076, Note_on_c, 0, 53, 23
1, 107091, Note_on_c, 0, 65, 44
1, 107109, Note_off_c, 0, 57, 40
1, 107119, Note_off_c, 0, 53, 43
1, 107121, Note_off_c, 0, 60, 0
1, 107144, Note_off_c, 0, 69, 36
1, 107156, Note_on_c, 0, 60, 12
1, 107256, Note_on_c, 0, 34, 38
1, 107333, Poly_aftertouch_c, 0, 32, 127
1, 107346, Control_c, 0, 64, 88
1, 107348, Note_on_c, 0, 69, 73
1, 107361, Control_c, 0, 64, 66
1, 107369, Poly_aftertouch_c, 0, 32, 0
1, 107375, Control_c, 0, 64, 0
1, 107378, Note_off_c, 0, 60, 50
1, 107379, Note_on_c, 0, 57, 43
1, 107388, Note_off_c, 0, 65, 54
1, 107457, Control_c, 0, 64, 61
1, 107472, Control_c, 0, 64, 70
1, 107487, Control_c, 0, 64, 81
1, 107502, Control_c, 0, 64, 102
1, 107515, Note_off_c, 0, 69, 54
1, 107517, Control_c, 0, 64, 127
1, 107572, Note_off_c, 0, 34, 60
1, 107611, Note_off_c, 0, 57, 59
1, 107681, Note_on_c, 0, 61, 13
1, 107684, Note_on_c, 0, 64, 39
1, 107788, Note_on_c, 0, 45, 44
1, 107805, Note_on_c, 0, 66, 70
1, 107829, Note_on_c, 0, 54, 36
1, 107850, Note_off_c, 0, 64, 28
1, 107869, Note_off_c, 0, 45, 61
1, 107873, Note_off_c, 0, 54, 56
1, 107893, Note_on_c, 0, 46, 46
1, 107900, Note_off_c, 0, 61, 0
1, 107930, Note_off_c, 0, 66, 59
1, 107937, Poly_aftertouch_c, 0, 61, 127
1, 107972, Note_off_c, 0, 46, 59
1, 107976, Note_on_c, 0, 47, 50
1, 108003, Note_off_c, 0, 47, 60
1, 108021, Note_on_c, 0, 58, 3
1, 108030, Note_on_c, 0, 48, 56
1, 108074, Note_off_c, 0, 48, 61
1, 108114, Note_on_c, 0, 67, 74
1, 108119, Note_on_c, 0, 49, 56
1, 108157, Note_off_c, 0, 49, 62
1, 108163, Note_off_c, 0, 58, 22
1, 108193, Note_on_c, 0, 55, 36
1, 108200, Note_on_c, 0, 50, 33
1, 108203, Poly_aftertouch_c, 0, 61, 0
1, 108234, Note_off_c, 0, 50, 49
1, 108262, Note_off_c, 0, 55, 61
1, 108270, Note_on_c, 0, 51, 52
1, 108293, Note_on_c, 0, 61, 38
1, 108295, Note_on_c, 0, 52, 48
1, 108308, Note_off_c, 0, 51, 62
1, 108314, Note_off_c, 0, 67, 59
1, 108325, Note_off_c, 0, 52, 53
1, 108402, Note_on_c, 0, 64, 5
1, 108417, Poly_aftertouch_c, 0, 53, 127
1, 108419, Note_off_c, 0, 61, 36
1, 108450, Poly_aftertouch_c, 0, 53, 0
1, 108479, Note_on_c, 0, 37, 63
1, 108512, Note_on_c, 0, 69, 66
1, 108523, Note_on_c, 0, 57, 44
1, 108548, Control_c, 0, 64, 85
1, 108563, Control_c, 0, 64, 65
1, 108572, Note_off_c, 0, 64, 42
1, 108577, Control_c, 0, 64, 0
1, 108651, Control_c, 0, 64, 62
1, 108666, Control_c, 0, 64, 71
1, 108667, Note_off_c, 0, 37, 59
1, 108681, Control_c, 0, 64, 85
1, 108696, Control_c, 0, 64, 114
1, 108707, Note_off_c, 0, 69, 36
1, 108710, Control_c, 0, 64, 127
1, 108744, Note_off_c, 0, 57, 54
1, 108755, Note_on_c, 0, 61, 42
1, 108763, Note_on_c, 0, 58, 31
1, 108824, Note_off_c, 0, 58, 39
1, 108842, Note_on_c, 0, 64, 19
1, 108904, Note_on_c, 0, 45, 43
1, 108939, Note_on_c, 0, 67, 69
1, 108954, Note_on_c, 0, 55, 42
1, 108973, Note_off_c, 0, 45, 61
1, 108992, Note_on_c, 0, 46, 49
1, 109002, Note_off_c, 0, 64, 41
1, 109037, Note_off_c, 0, 61, 0
1, 109067, Note_on_c, 0, 61, 7
1, 109073, Note_off_c, 0, 46, 55
1, 109091, Note_on_c, 0, 47, 43
1, 109116, Note_off_c, 0, 67, 52
1, 109121, Note_off_c, 0, 47, 56
1, 109133, Note_off_c, 0, 55, 35
1, 109142, Note_on_c, 0, 48, 58
1, 109181, Note_off_c, 0, 48, 61
1, 109183, Poly_aftertouch_c, 0, 58, 127
1, 109211, Note_on_c, 0, 64, 23
1, 109231, Note_on_c, 0, 49, 54
1, 109273, Note_off_c, 0, 49, 62
1, 109297, Control_c, 0, 64, 102
1, 109311, Control_c, 0, 64, 75
1, 109326, Control_c, 0, 64, 60
1, 109332, Note_on_c, 0, 52, 18
1, 109337, Note_on_c, 0, 65, 65
1, 109341, Control_c, 0, 64, 36
1, 109356, Control_c, 0, 64, 32
1, 109357, Poly_aftertouch_c, 0, 58, 0
1, 109370, Note_on_c, 0, 55, 16
1, 109371, Control_c, 0, 64, 44
1, 109385, Control_c, 0, 64, 61
1, 109400, Note_on_c, 0, 51, 41
1, 109400, Control_c, 0, 64, 75
1, 109415, Control_c, 0, 64, 127
1, 109428, Note_off_c, 0, 52, 0
1, 109428, Note_on_c, 0, 52, 22
1, 109434, Note_off_c, 0, 51, 56
1, 109472, Note_off_c, 0, 61, 0
1, 109481, Note_on_c, 0, 53, 58
1, 109509, Poly_aftertouch_c, 0, 61, 127
1, 109520, Note_off_c, 0, 53, 62
1, 109550, Note_on_c, 0, 51, 55
1, 109587, Note_off_c, 0, 51, 61
1, 109600, Note_off_c, 0, 52, 31
1, 109606, Poly_aftertouch_c, 0, 58, 127
1, 109641, Note_off_c, 0, 55, 37
1, 109647, Note_off_c, 0, 65, 54
1, 109650, Note_on_c, 0, 50, 52
1, 109681, Note_off_c, 0, 50, 58
1, 109705, Poly_aftertouch_c, 0, 58, 0
1, 109709, Note_off_c, 0, 64, 41
1, 109719, Poly_aftertouch_c, 0, 61, 0
1, 109763, Control_c, 0, 67, 14
1, 109777, Control_c, 0, 67, 30
1, 109792, Control_c, 0, 67, 56
1, 109801, Note_on_c, 0, 48, 3
1, 109807, Control_c, 0, 67, 82
1, 109822, Control_c, 0, 67, 108
1, 109837, Control_c, 0, 67, 127
1, 109842, Note_off_c, 0, 48, 48
1, 109951, Note_on_c, 0, 29, 53
1, 109992, Note_on_c, 0, 69, 65
1, 109999, Note_on_c, 0, 57, 42
1, 110104, Control_c, 0, 64, 81
1, 110119, Control_c, 0, 64, 63
1, 110134, Control_c, 0, 64, 0
1, 110194, Control_c, 0, 64, 53
1, 110208, Control_c, 0, 64, 68
1, 110223, Control_c, 0, 64, 83
1, 110238, Note_off_c, 0, 29, 61
1, 110238, Control_c, 0, 64, 127
1, 110262, Note_on_c, 0, 60, 40
1, 110317, Note_off_c, 0, 57, 33
1, 110317, Note_off_c, 0, 69, 38
1, 110324, Note_off_c, 0, 60, 55
1, 110379, Note_on_c, 0, 65, 45
1, 110437, Note_off_c, 0, 65, 56
1, 110466, Note_on_c, 0, 60, 42
1, 110507, Note_on_c, 0, 40, 47
1, 110557, Note_off_c, 0, 40, 60
1, 110575, Note_on_c, 0, 65, 32
1, 110578, Note_on_c, 0, 41, 44
1, 110635, Note_off_c, 0, 41, 58
1, 110659, Note_on_c, 0, 42, 43
1, 110698, Note_off_c, 0, 42, 61
1, 110713, Note_on_c, 0, 43, 60
1, 110756, Note_off_c, 0, 43, 62
1, 110811, Note_on_c, 0, 44, 49
1, 110844, Note_off_c, 0, 44, 60
1, 110875, Note_on_c, 0, 45, 43
1, 110908, Note_off_c, 0, 45, 49
1, 110927, Note_on_c, 0, 46, 64
1, 110977, Poly_aftertouch_c, 0, 47, 0
1, 110993, Note_off_c, 0, 46, 61
1, 110998, Note_off_c, 0, 60, 1
1, 110999, Note_on_c, 0, 48, 49
1, 111002, Note_off_c, 0, 65, 36
1, 111081, Note_off_c, 0, 48, 60
1, 111104, Note_on_c, 0, 49, 48
1, 111142, Note_off_c, 0, 49, 57
1, 111154, Note_on_c, 0, 51, 28
1, 111188, Note_on_c, 0, 52, 51
1, 111198, Note_off_c, 0, 51, 47
1, 111217, Note_off_c, 0, 52, 53
1, 111265, Note_on_c, 0, 37, 66
1, 111291, Control_c, 0, 64, 99
1, 111306, Control_c, 0, 64, 73
1, 111321, Control_c, 0, 64, 54
1, 111336, Control_c, 0, 64, 0
1, 111365, Control_c, 0, 64, 30
1, 111380, Control_c, 0, 64, 63
1, 111392, Note_off_c, 0, 37, 61
1, 111395, Control_c, 0, 64, 73
1, 111410, Control_c, 0, 64, 90
1, 111424, Control_c, 0, 64, 127
1, 111427, Note_on_c, 0, 69, 72
1, 111440, Note_on_c, 0, 57, 40
1, 111472, Note_on_c, 0, 53, 54
1, 111575, Note_off_c, 0, 53, 60
1, 111604, Note_on_c, 0, 52, 47
1, 111613, Note_off_c, 0, 69, 38
1, 111644, Note_off_c, 0, 52, 63
1, 111670, Note_on_c, 0, 51, 53
1, 111699, Note_on_c, 0, 61, 40
1, 111699, Note_off_c, 0, 57, 52
1, 111711, Note_off_c, 0, 51, 62
1, 111736, Note_on_c, 0, 50, 63
1, 111768, Note_off_c, 0, 61, 50
1, 111774, Note_off_c, 0, 50, 60
1, 111789, Poly_aftertouch_c, 0, 58, 127
1, 111790, Note_on_c, 0, 64, 29
1, 111815, Note_on_c, 0, 49, 52
1, 111827, Poly_aftertouch_c, 0, 58, 0
1, 111854, Note_off_c, 0, 49, 62
1, 111887, Note_on_c, 0, 48, 57
1, 111898, Note_on_c, 0, 67, 74
1, 111924, Note_off_c, 0, 48, 61
1, 111927, Note_on_c, 0, 55, 43
1, 111939, Note_off_c, 0, 64, 26
1, 111941, Note_on_c, 0, 61, 47
1, 111948, Note_on_c, 0, 47, 50
1, 111985, Note_off_c, 0, 47, 64
1, 112009, Note_on_c, 0, 46, 62
1, 112042, Note_off_c, 0, 46, 64
1, 112066, Note_off_c, 0, 67, 55
1, 112078, Note_on_c, 0, 45, 65
1, 112100, Poly_aftertouch_c, 0, 58, 127
1, 112123, Note_on_c, 0, 64, 40
1, 112127, Note_off_c, 0, 45, 57
1, 112132, Note_off_c, 0, 55, 59
1, 112157, Note_on_c, 0, 44, 63
1, 112175, Poly_aftertouch_c, 0, 58, 0
1, 112218, Note_off_c, 0, 44, 61
1, 112249, Note_on_c, 0, 45, 12
1, 112281, Note_off_c, 0, 45, 45
1, 112370, Note_on_c, 0, 37, 57
1, 112378, Note_on_c, 0, 65, 69
1, 112379, Note_on_c, 0, 53, 50
1, 112393, Note_off_c, 0, 61, 16
1, 112395, Control_c, 0, 64, 80
1, 112407, Note_off_c, 0, 37, 61
1, 112410, Control_c, 0, 64, 61
1, 112425, Control_c, 0, 64, 0
1, 112497, Note_off_c, 0, 64, 31
1, 112508, Note_on_c, 0, 36, 52
1, 112528, Control_c, 0, 64, 42
1, 112543, Control_c, 0, 64, 63
1, 112551, Note_off_c, 0, 36, 60
1, 112558, Control_c, 0, 64, 69
1, 112573, Control_c, 0, 64, 76
1, 112587, Control_c, 0, 64, 84
1, 112594, Note_off_c, 0, 53, 54
1, 112602, Control_c, 0, 64, 93
1, 112617, Control_c, 0, 64, 105
1, 112618, Note_off_c, 0, 65, 59
1, 112620, Note_on_c, 0, 35, 58
1, 112632, Control_c, 0, 64, 127
1, 112753, Note_off_c, 0, 35, 34
1, 112756, Note_on_c, 0, 34, 31
1, 112892, Note_off_c, 0, 34, 29
1, 112900, Poly_aftertouch_c, 0, 29, 127
1, 112983, Note_on_c, 0, 69, 62
1, 112992, Note_on_c, 0, 57, 44
1, 113025, Control_c, 0, 64, 124
1, 113040, Control_c, 0, 64, 81
1, 113054, Control_c, 0, 64, 58
1, 113069, Control_c, 0, 64, 0
1, 113159, Control_c, 0, 64, 63
1, 113174, Control_c, 0, 64, 71
1, 113189, Control_c, 0, 64, 83
1, 113204, Control_c, 0, 64, 104
1, 113218, Control_c, 0, 64, 127
1, 113243, Note_on_c, 0, 60, 38
1, 113253, Note_off_c, 0, 69, 50
1, 113270, Poly_aftertouch_c, 0, 29, 0
1, 113304, Note_off_c, 0, 57, 34
1, 113306, Note_off_c, 0, 60, 55
1, 113354, Note_on_c, 0, 65, 42
1, 113404, Note_off_c, 0, 65, 59
1, 113446, Note_on_c, 0, 60, 42
1, 113497, Note_off_c, 0, 60, 52
1, 113501, Note_on_c, 0, 40, 50
1, 113533, Note_on_c, 0, 65, 41
1, 113553, Note_off_c, 0, 40, 59
1, 113591, Note_on_c, 0, 41, 41
1, 113645, Note_off_c, 0, 41, 57
1, 113661, Note_on_c, 0, 42, 45
1, 113696, Note_off_c, 0, 42, 59
1, 113720, Note_on_c, 0, 43, 52
1, 113756, Note_off_c, 0, 43, 62
1, 113805, Note_on_c, 0, 44, 54
1, 113839, Note_off_c, 0, 44, 62
1, 113863, Note_on_c, 0, 45, 60
1, 113899, Note_off_c, 0, 45, 62
1, 113929, Note_on_c, 0, 46, 62
1, 113987, Note_off_c, 0, 65, 34
1, 114003, Note_off_c, 0, 46, 58
1, 114009, Note_on_c, 0, 47, 39
1, 114040, Note_off_c, 0, 47, 55
1, 114047, Note_on_c, 0, 48, 62
1, 114090, Note_off_c, 0, 48, 56
1, 114141, Note_on_c, 0, 49, 32
1, 114155, Note_on_c, 0, 51, 66
1, 114185, Note_off_c, 0, 49, 50
1, 114194, Note_off_c, 0, 51, 63
1, 114217, Note_on_c, 0, 52, 55
1, 114242, Note_off_c, 0, 52, 58
1, 114307, Note_on_c, 0, 37, 65
1, 114328, Control_c, 0, 64, 101
1, 114343, Control_c, 0, 64, 72
1, 114358, Control_c, 0, 64, 58
1, 114373, Control_c, 0, 64, 25
1, 114388, Control_c, 0, 64, 23
1, 114403, Control_c, 0, 64, 46
1, 114415, Note_off_c, 0, 37, 61
1, 114418, Control_c, 0, 64, 64
1, 114433, Control_c, 0, 64, 78
1, 114447, Control_c, 0, 64, 121
1, 114462, Control_c, 0, 64, 127
1, 114482, Note_on_c, 0, 69, 69
1, 114510, Note_on_c, 0, 57, 23
1, 114521, Note_on_c, 0, 53, 48
1, 114617, Note_off_c, 0, 53, 59
1, 114626, Note_off_c, 0, 69, 51
1, 114672, Note_on_c, 0, 52, 36
1, 114705, Note_off_c, 0, 52, 48
1, 114730, Note_off_c, 0, 57, 48
1, 114740, Note_on_c, 0, 51, 53
1, 114782, Note_off_c, 0, 51, 61
1, 114795, Poly_aftertouch_c, 0, 61, 127
1, 114815, Note_on_c, 0, 50, 58
1, 114844, Poly_aftertouch_c, 0, 61, 0
1, 114859, Note_off_c, 0, 50, 60
1, 114874, Note_on_c, 0, 64, 14
1, 114901, Note_on_c, 0, 49, 50
1, 114956, Note_off_c, 0, 49, 61
1, 114964, Note_off_c, 0, 64, 35
1, 114991, Note_on_c, 0, 48, 49
1, 115031, Note_on_c, 0, 67, 63
1, 115032, Note_off_c, 0, 48, 60
1, 115041, Note_on_c, 0, 61, 30
1, 115052, Note_on_c, 0, 55, 34
1, 115069, Note_on_c, 0, 47, 33
1, 115104, Note_off_c, 0, 47, 49
1, 115113, Note_on_c, 0, 46, 57
1, 115142, Note_off_c, 0, 61, 0
1, 115156, Note_off_c, 0, 46, 62
1, 115180, Note_off_c, 0, 67, 54
1, 115180, Poly_aftertouch_c, 0, 61, 127
1, 115193, Note_on_c, 0, 45, 61
1, 115208, Note_on_c, 0, 64, 40
1, 115244, Note_off_c, 0, 45, 59
1, 115270, Note_on_c, 0, 44, 61
1, 115270, Note_off_c, 0, 55, 35
1, 115312, Note_off_c, 0, 44, 63
1, 115366, Note_on_c, 0, 45, 33
1, 115393, Note_off_c, 0, 45, 55
1, 115395, Note_on_c, 0, 43, 18
1, 115442, Note_off_c, 0, 43, 49
1, 115506, Note_on_c, 0, 37, 69
1, 115533, Note_on_c, 0, 65, 67
1, 115539, Note_on_c, 0, 53, 54
1, 115568, Note_off_c, 0, 37, 55
1, 115568, Control_c, 0, 64, 107
1, 115583, Control_c, 0, 64, 78
1, 115598, Control_c, 0, 64, 61
1, 115607, Poly_aftertouch_c, 0, 61, 0
1, 115612, Control_c, 0, 64, 0
1, 115688, Note_on_c, 0, 36, 50
1, 115722, Note_off_c, 0, 36, 62
1, 115723, Control_c, 0, 64, 61
1, 115738, Control_c, 0, 64, 66
1, 115753, Control_c, 0, 64, 70
1, 115768, Control_c, 0, 64, 75
1, 115783, Control_c, 0, 64, 80
1, 115798, Control_c, 0, 64, 88
1, 115809, Note_on_c, 0, 35, 53
1, 115813, Control_c, 0, 64, 97
1, 115827, Control_c, 0, 64, 127
1, 115848, Note_off_c, 0, 53, 55
1, 115858, Note_off_c, 0, 35, 58
1, 115875, Note_off_c, 0, 65, 52
1, 115905, Note_off_c, 0, 64, 39
1, 115924, Note_on_c, 0, 34, 48
1, 115983, Note_off_c, 0, 34, 60
1, 116190, Note_on_c, 0, 29, 48
1, 116254, Note_on_c, 0, 69, 59
1, 116263, Note_on_c, 0, 57, 45
1, 116301, Control_c, 0, 64, 106
1, 116316, Control_c, 0, 64, 78
1, 116331, Control_c, 0, 64, 63
1, 116346, Control_c, 0, 64, 0
1, 116472, Control_c, 0, 64, 60
1, 116487, Control_c, 0, 64, 66
1, 116501, Control_c, 0, 64, 71
1, 116516, Control_c, 0, 64, 80
1, 116531, Control_c, 0, 64, 91
1, 116546, Control_c, 0, 64, 109
1, 116561, Control_c, 0, 64, 127
1, 116562, Note_on_c, 0, 60, 35
1, 116584, Note_off_c, 0, 29, 61
1, 116629, Note_off_c, 0, 69, 45
1, 116639, Note_off_c, 0, 60, 55
1, 116655, Note_off_c, 0, 57, 33
1, 116690, Note_on_c, 0, 65, 27
1, 116744, Note_off_c, 0, 65, 43
1, 116789, Note_on_c, 0, 60, 32
1, 116823, Note_off_c, 0, 60, 45
1, 116859, Note_on_c, 0, 65, 36
1, 116895, Note_on_c, 0, 40, 43
1, 116910, Note_off_c, 0, 65, 41
1, 116940, Note_off_c, 0, 40, 60
1, 116972, Note_on_c, 0, 41, 41
1, 116999, Poly_aftertouch_c, 0, 60, 127
1, 117034, Poly_aftertouch_c, 0, 65, 127
1, 117053, Note_off_c, 0, 41, 54
1, 117062, Note_on_c, 0, 42, 40
1, 117098, Note_off_c, 0, 42, 58
1, 117119, Note_on_c, 0, 43, 56
1, 117170, Note_off_c, 0, 43, 62
1, 117214, Poly_aftertouch_c, 0, 60, 0
1, 117225, Note_on_c, 0, 44, 48
1, 117253, Note_off_c, 0, 44, 58
1, 117273, Note_on_c, 0, 45, 57
1, 117306, Note_off_c, 0, 45, 62
1, 117333, Note_on_c, 0, 46, 59
1, 117405, Note_off_c, 0, 46, 57
1, 117410, Note_on_c, 0, 47, 53
1, 117449, Note_off_c, 0, 47, 64
1, 117475, Note_on_c, 0, 48, 54
1, 117529, Note_on_c, 0, 69, 56
1, 117557, Note_on_c, 0, 57, 33
1, 117562, Control_c, 0, 64, 101
1, 117574, Note_off_c, 0, 48, 59
1, 117577, Control_c, 0, 64, 76
1, 117591, Note_on_c, 0, 49, 50
1, 117591, Control_c, 0, 64, 58
1, 117606, Control_c, 0, 64, 0
1, 117635, Control_c, 0, 64, 16
1, 117650, Note_off_c, 0, 49, 58
1, 117650, Control_c, 0, 64, 54
1, 117662, Poly_aftertouch_c, 0, 65, 0
1, 117665, Control_c, 0, 64, 65
1, 117680, Control_c, 0, 64, 76
1, 117692, Note_off_c, 0, 69, 53
1, 117695, Control_c, 0, 64, 101
1, 117696, Note_on_c, 0, 48, 56
1, 117709, Control_c, 0, 64, 127
1, 117722, Note_on_c, 0, 60, 41
1, 117738, Note_off_c, 0, 57, 37
1, 117775, Note_off_c, 0, 60, 56
1, 117778, Note_off_c, 0, 48, 56
1, 117805, Note_on_c, 0, 47, 38
1, 117819, Note_on_c, 0, 65, 38
1, 117837, Note_off_c, 0, 47, 56
1, 117864, Note_on_c, 0, 46, 55
1, 117870, Note_off_c, 0, 65, 53
1, 117914, Note_on_c, 0, 60, 32
1, 117917, Note_off_c, 0, 46, 63
1, 117947, Note_on_c, 0, 45, 57
1, 117955, Note_off_c, 0, 60, 43
1, 117959, Note_on_c, 0, 65, 30
1, 117985, Note_off_c, 0, 45, 60
1, 118025, Note_on_c, 0, 44, 47
1, 118066, Note_off_c, 0, 44, 63
1, 118066, Poly_aftertouch_c, 0, 60, 127
1, 118068, Note_off_c, 0, 65, 0
1, 118068, Note_on_c, 0, 65, 5
1, 118093, Note_on_c, 0, 43, 60
1, 118137, Note_off_c, 0, 43, 57
1, 118166, Note_on_c, 0, 42, 53
1, 118206, Note_off_c, 0, 42, 61
1, 118245, Note_on_c, 0, 41, 54
1, 118276, Note_off_c, 0, 41, 60
1, 118296, Note_on_c, 0, 40, 50
1, 118335, Note_off_c, 0, 40, 50
1, 118441, Poly_aftertouch_c, 0, 38, 127
1, 118475, Note_on_c, 0, 36, 58
1, 118479, Poly_aftertouch_c, 0, 38, 0
1, 118532, Control_c, 0, 64, 116
1, 118547, Control_c, 0, 64, 85
1, 118548, Note_off_c, 0, 36, 63
1, 118562, Control_c, 0, 64, 72
1, 118568, Note_on_c, 0, 37, 50
1, 118577, Control_c, 0, 64, 68
1, 118591, Control_c, 0, 64, 70
1, 118605, Note_off_c, 0, 37, 61
1, 118606, Control_c, 0, 64, 76
1, 118621, Control_c, 0, 64, 85
1, 118635, Note_on_c, 0, 38, 42
1, 118636, Control_c, 0, 64, 103
1, 118651, Control_c, 0, 64, 127
1, 118681, Note_off_c, 0, 38, 51
1, 118720, Note_on_c, 0, 39, 52
1, 118728, Poly_aftertouch_c, 0, 60, 0
1, 118765, Note_off_c, 0, 39, 60
1, 118800, Note_on_c, 0, 40, 24
1, 118827, Note_on_c, 0, 41, 62
1, 118845, Note_off_c, 0, 40, 51
1, 118867, Note_off_c, 0, 41, 61
1, 118916, Note_on_c, 0, 42, 46
1, 118952, Note_off_c, 0, 42, 54
1, 118959, Note_on_c, 0, 43, 58
1, 118996, Note_off_c, 0, 43, 62
1, 119028, Note_on_c, 0, 44, 54
1, 119036, Note_on_c, 0, 69, 64
1, 119059, Control_c, 0, 64, 97
1, 119068, Note_on_c, 0, 57, 41
1, 119074, Control_c, 0, 64, 72
1, 119077, Note_off_c, 0, 44, 59
1, 119089, Control_c, 0, 64, 41
1, 119104, Control_c, 0, 64, 0
1, 119114, Note_on_c, 0, 45, 50
1, 119123, Note_off_c, 0, 65, 35
1, 119172, Note_off_c, 0, 45, 59
1, 119178, Control_c, 0, 64, 64
1, 119190, Note_on_c, 0, 44, 49
1, 119193, Control_c, 0, 64, 71
1, 119204, Note_off_c, 0, 69, 55
1, 119207, Control_c, 0, 64, 80
1, 119222, Control_c, 0, 64, 93
1, 119232, Note_off_c, 0, 57, 39
1, 119237, Control_c, 0, 64, 109
1, 119239, Note_on_c, 0, 60, 33
1, 119252, Control_c, 0, 64, 127
1, 119256, Note_off_c, 0, 44, 54
1, 119276, Note_off_c, 0, 60, 50
1, 119304, Note_on_c, 0, 43, 50
1, 119330, Note_on_c, 0, 65, 34
1, 119335, Note_off_c, 0, 43, 60
1, 119366, Note_on_c, 0, 42, 43
1, 119366, Note_off_c, 0, 65, 49
1, 119382, Note_on_c, 0, 60, 47
1, 119417, Note_off_c, 0, 60, 57
1, 119429, Note_off_c, 0, 42, 59
1, 119460, Note_on_c, 0, 41, 54
1, 119477, Note_on_c, 0, 65, 32
1, 119497, Note_off_c, 0, 41, 61
1, 119530, Note_on_c, 0, 60, 35
1, 119542, Note_on_c, 0, 40, 34
1, 119569, Note_off_c, 0, 65, 0
1, 119581, Note_off_c, 0, 40, 54
1, 119590, Note_on_c, 0, 65, 7
1, 119600, Note_on_c, 0, 39, 45
1, 119635, Note_off_c, 0, 39, 51
1, 119664, Note_on_c, 0, 38, 56
1, 119704, Note_off_c, 0, 38, 58
1, 119829, Note_on_c, 0, 36, 41
1, 119868, Note_off_c, 0, 36, 50
1, 119891, Note_on_c, 0, 35, 49
1, 119953, Note_off_c, 0, 35, 53
1, 119969, Note_on_c, 0, 34, 25
1, 120009, Note_on_c, 0, 33, 52
1, 120013, Note_off_c, 0, 34, 52
1, 120063, Note_off_c, 0, 33, 61
1, 120092, Note_on_c, 0, 34, 40
1, 120143, Note_off_c, 0, 34, 59
1, 120174, Note_on_c, 0, 35, 38
1, 120216, Note_off_c, 0, 35, 52
1, 120225, Note_on_c, 0, 36, 56
1, 120232, Note_off_c, 0, 60, 1
1, 120261, Note_off_c, 0, 36, 63
1, 120309, Note_on_c, 0, 37, 50
1, 120345, Note_off_c, 0, 37, 54
1, 120369, Note_on_c, 0, 38, 51
1, 120400, Note_off_c, 0, 38, 54
1, 120430, Note_on_c, 0, 39, 54
1, 120482, Note_off_c, 0, 39, 57
1, 120494, Note_on_c, 0, 40, 48
1, 120496, Note_off_c, 0, 65, 22
1, 120527, Note_off_c, 0, 40, 58
1, 120558, Note_on_c, 0, 41, 54
1, 120564, Note_on_c, 0, 69, 53
1, 120572, Control_c, 0, 64, 101
1, 120586, Control_c, 0, 64, 82
1, 120588, Note_on_c, 0, 57, 34
1, 120601, Control_c, 0, 64, 68
1, 120614, Note_off_c, 0, 41, 61
1, 120616, Control_c, 0, 64, 56
1, 120631, Control_c, 0, 64, 37
1, 120640, Note_on_c, 0, 42, 47
1, 120646, Control_c, 0, 64, 34
1, 120660, Control_c, 0, 64, 42
1, 120675, Control_c, 0, 64, 57
1, 120690, Control_c, 0, 64, 65
1, 120699, Note_off_c, 0, 42, 56
1, 120705, Control_c, 0, 64, 75
1, 120720, Control_c, 0, 64, 95
1, 120734, Control_c, 0, 64, 127
1, 120740, Note_on_c, 0, 60, 39
1, 120741, Note_on_c, 0, 41, 51
1, 120755, Note_off_c, 0, 57, 43
1, 120768, Note_off_c, 0, 69, 35
1, 120797, Note_off_c, 0, 41, 59
1, 120800, Note_off_c, 0, 60, 54
1, 120842, Note_on_c, 0, 40, 33
1, 120846, Note_on_c, 0, 65, 25
1, 120880, Note_off_c, 0, 40, 49
1, 120892, Note_off_c, 0, 65, 45
1, 120911, Note_on_c, 0, 39, 50
1, 120952, Note_off_c, 0, 39, 62
1, 120988, Note_on_c, 0, 38, 53
1, 120995, Note_on_c, 0, 65, 24
1, 121020, Poly_aftertouch_c, 0, 60, 127
1, 121036, Note_off_c, 0, 38, 60
1, 121067, Note_on_c, 0, 37, 45
1, 121115, Note_off_c, 0, 37, 60
1, 121124, Note_off_c, 0, 65, 0
1, 121155, Note_on_c, 0, 36, 51
1, 121161, Poly_aftertouch_c, 0, 65, 127
1, 121192, Note_off_c, 0, 36, 61
1, 121240, Note_on_c, 0, 35, 29
1, 121280, Note_off_c, 0, 35, 43
1, 121293, Note_on_c, 0, 34, 40
1, 121330, Note_off_c, 0, 34, 49
1, 121357, Note_on_c, 0, 33, 57
1, 121405, Note_off_c, 0, 33, 60
1, 121434, Note_on_c, 0, 32, 54
1, 121493, Note_on_c, 0, 30, 43
1, 121501, Note_off_c, 0, 32, 47
1, 121546, Note_off_c, 0, 30, 60
1, 121559, Note_on_c, 0, 29, 58
1, 121572, Poly_aftertouch_c, 0, 60, 0
1, 121578, Poly_aftertouch_c, 0, 65, 0
1, 121639, Note_off_c, 0, 29, 57
1, 121660, Note_on_c, 0, 30, 59
1, 121706, Note_off_c, 0, 30, 61
1, 121732, Note_on_c, 0, 31, 52
1, 121781, Note_off_c, 0, 31, 60
1, 121846, Note_on_c, 0, 32, 35
1, 121888, Note_off_c, 0, 32, 50
1, 121891, Note_on_c, 0, 33, 45
1, 121928, Note_off_c, 0, 33, 50
1, 121968, Note_on_c, 0, 34, 44
1, 122002, Note_off_c, 0, 34, 55
1, 122010, Note_on_c, 0, 35, 39
1, 122049, Note_off_c, 0, 35, 45
1, 122055, Note_on_c, 0, 36, 55
1, 122055, Control_c, 0, 64, 92
1, 122070, Control_c, 0, 64, 72
1, 122085, Control_c, 0, 64, 59
1, 122091, Note_off_c, 0, 36, 61
1, 122100, Control_c, 0, 64, 48
1, 122114, Control_c, 0, 64, 49
1, 122129, Control_c, 0, 64, 55
1, 122132, Note_on_c, 0, 37, 43
1, 122144, Control_c, 0, 64, 63
1, 122159, Control_c, 0, 64, 69
1, 122167, Note_off_c, 0, 37, 59
1, 122174, Control_c, 0, 64, 80
1, 122189, Control_c, 0, 64, 98
1, 122192, Note_on_c, 0, 36, 55
1, 122204, Control_c, 0, 64, 127
1, 122228, Note_off_c, 0, 36, 61
1, 122274, Note_on_c, 0, 35, 22
1, 122317, Note_on_c, 0, 34, 42
1, 122320, Note_off_c, 0, 35, 51
1, 122352, Note_off_c, 0, 34, 51
1, 122380, Note_on_c, 0, 33, 56
1, 122427, Note_off_c, 0, 33, 61
1, 122448, Note_on_c, 0, 32, 55
1, 122499, Note_on_c, 0, 30, 44
1, 122505, Note_off_c, 0, 32, 54
1, 122540, Note_off_c, 0, 30, 59
1, 122556, Note_on_c, 0, 29, 61
1, 122614, Note_off_c, 0, 29, 62
1, 122637, Note_on_c, 0, 30, 53
1, 122677, Note_off_c, 0, 30, 62
1, 122696, Note_on_c, 0, 31, 52
1, 122734, Note_off_c, 0, 31, 59
1, 122787, Note_on_c, 0, 32, 47
1, 122826, Note_off_c, 0, 32, 51
1, 122840, Note_on_c, 0, 33, 52
1, 122875, Note_off_c, 0, 33, 53
1, 122913, Note_on_c, 0, 34, 56
1, 122958, Note_off_c, 0, 34, 62
1, 123008, Note_on_c, 0, 36, 46
1, 123049, Note_off_c, 0, 36, 59
1, 123073, Note_on_c, 0, 37, 65
1, 123116, Note_off_c, 0, 37, 61
1, 123143, Note_on_c, 0, 36, 67
1, 123191, Note_off_c, 0, 36, 63
1, 123211, Note_on_c, 0, 35, 57
1, 123254, Note_off_c, 0, 35, 55
1, 123303, Note_on_c, 0, 33, 39
1, 123366, Note_off_c, 0, 33, 0
1, 123387, Note_on_c, 0, 33, 11
1, 123434, Note_off_c, 0, 33, 52
1, 123446, Note_on_c, 0, 29, 55
1, 123477, Control_c, 0, 64, 100
1, 123492, Control_c, 0, 64, 80
1, 123507, Control_c, 0, 64, 70
1, 123512, Note_off_c, 0, 29, 63
1, 123521, Control_c, 0, 64, 67
1, 123530, Note_on_c, 0, 30, 55
1, 123537, Control_c, 0, 64, 69
1, 123552, Control_c, 0, 64, 75
1, 123567, Control_c, 0, 64, 87
1, 123582, Control_c, 0, 64, 127
1, 123603, Note_off_c, 0, 30, 60
1, 123627, Note_on_c, 0, 32, 55
1, 123675, Note_off_c, 0, 32, 62
1, 123701, Note_on_c, 0, 33, 45
1, 123739, Note_off_c, 0, 33, 60
1, 123784, Note_on_c, 0, 34, 61
1, 123861, Note_off_c, 0, 34, 55
1, 123891, Note_on_c, 0, 36, 54
1, 123933, Note_on_c, 0, 49, 60
1, 123948, Note_off_c, 0, 36, 62
1, 123966, Note_on_c, 0, 37, 58
1, 123974, Note_off_c, 0, 49, 63
1, 124001, Note_on_c, 0, 48, 54
1, 124011, Note_off_c, 0, 37, 60
1, 124043, Note_off_c, 0, 48, 57
1, 124044, Note_on_c, 0, 36, 61
1, 124063, Note_on_c, 0, 47, 61
1, 124076, Note_off_c, 0, 36, 61
1, 124113, Note_on_c, 0, 35, 46
1, 124114, Note_off_c, 0, 47, 60
1, 124128, Note_on_c, 0, 46, 47
1, 124147, Note_off_c, 0, 35, 49
1, 124157, Note_off_c, 0, 46, 56
1, 124168, Note_on_c, 0, 45, 71
1, 124187, Note_on_c, 0, 33, 27
1, 124205, Note_off_c, 0, 45, 63
1, 124287, Note_on_c, 0, 43, 61
1, 124290, Poly_aftertouch_c, 0, 35, 127
1, 124328, Note_off_c, 0, 33, 36
1, 124328, Poly_aftertouch_c, 0, 35, 0
1, 124338, Note_off_c, 0, 43, 60
1, 124363, Note_on_c, 0, 42, 60
1, 124383, Note_on_c, 0, 29, 74
1, 124390, Control_c, 0, 64, 83
1, 124405, Control_c, 0, 64, 65
1, 124406, Note_off_c, 0, 42, 62
1, 124420, Control_c, 0, 64, 34
1, 124422, Note_on_c, 0, 41, 66
1, 124434, Control_c, 0, 64, 22
1, 124449, Control_c, 0, 64, 32
1, 124456, Note_off_c, 0, 41, 63
1, 124457, Note_off_c, 0, 29, 63
1, 124464, Control_c, 0, 64, 54
1, 124466, Note_on_c, 0, 30, 58
1, 124479, Control_c, 0, 64, 65
1, 124493, Note_on_c, 0, 42, 48
1, 124494, Control_c, 0, 64, 76
1, 124508, Control_c, 0, 64, 118
1, 124522, Note_off_c, 0, 30, 63
1, 124523, Note_off_c, 0, 42, 53
1, 124523, Control_c, 0, 64, 127
1, 124537, Note_on_c, 0, 31, 63
1, 124544, Note_on_c, 0, 43, 68
1, 124577, Note_off_c, 0, 43, 63
1, 124588, Note_off_c, 0, 31, 60
1, 124605, Note_on_c, 0, 44, 64
1, 124621, Note_on_c, 0, 32, 59
1, 124654, Note_off_c, 0, 44, 63
1, 124667, Note_off_c, 0, 32, 60
1, 124682, Note_on_c, 0, 45, 63
1, 124708, Note_on_c, 0, 33, 43
1, 124720, Note_off_c, 0, 45, 58
1, 124741, Note_on_c, 0, 46, 66
1, 124747, Note_on_c, 0, 34, 62
1, 124749, Note_off_c, 0, 33, 50
1, 124771, Note_off_c, 0, 46, 65
1, 124794, Note_off_c, 0, 34, 60
1, 124797, Note_on_c, 0, 35, 61
1, 124804, Note_on_c, 0, 47, 59
1, 124835, Note_off_c, 0, 35, 61
1, 124840, Note_off_c, 0, 47, 64
1, 124845, Note_on_c, 0, 48, 67
1, 124847, Note_on_c, 0, 36, 62
1, 124890, Note_off_c, 0, 48, 59
1, 124891, Note_off_c, 0, 36, 64
1, 124902, Note_on_c, 0, 49, 69
1, 124930, Note_on_c, 0, 37, 60
1, 124934, Note_off_c, 0, 49, 64
1, 124946, Control_c, 0, 67, 124
1, 124952, Note_on_c, 0, 50, 71
1, 124960, Control_c, 0, 67, 110
1, 124964, Note_off_c, 0, 37, 61
1, 124972, Note_on_c, 0, 38, 78
1, 124975, Control_c, 0, 67, 94
1, 124985, Note_off_c, 0, 50, 60
1, 124990, Control_c, 0, 67, 76
1, 125005, Control_c, 0, 67, 59
1, 125014, Note_on_c, 0, 51, 68
1, 125015, Note_off_c, 0, 38, 61
1, 125020, Control_c, 0, 67, 50
1, 125027, Note_on_c, 0, 39, 72
1, 125034, Control_c, 0, 67, 45
1, 125042, Note_off_c, 0, 51, 64
1, 125049, Control_c, 0, 67, 43
1, 125064, Control_c, 0, 67, 42
1, 125066, Note_on_c, 0, 52, 73
1, 125069, Note_on_c, 0, 40, 76
1, 125078, Control_c, 0, 67, 40
1, 125093, Control_c, 0, 67, 36
1, 125102, Note_off_c, 0, 39, 57
1, 125108, Control_c, 0, 67, 27
1, 125116, Note_off_c, 0, 40, 61
1, 125118, Note_on_c, 0, 53, 73
1, 125122, Note_off_c, 0, 52, 61
1, 125124, Control_c, 0, 67, 17
1, 125125, Note_on_c, 0, 41, 63
1, 125138, Note_on_c, 0, 43, 78
1, 125139, Control_c, 0, 67, 0
1, 125175, Note_on_c, 0, 54, 75
1, 125175, Note_off_c, 0, 53, 62
1, 125195, Note_on_c, 0, 42, 72
1, 125209, Note_off_c, 0, 41, 59
1, 125238, Note_off_c, 0, 43, 60
1, 125240, Note_off_c, 0, 42, 55
1, 125251, Note_on_c, 0, 53, 58
1, 125264, Note_on_c, 0, 41, 49
1, 125268, Note_off_c, 0, 54, 59
1, 125286, Note_off_c, 0, 53, 64
1, 125316, Note_on_c, 0, 52, 73
1, 125331, Poly_aftertouch_c, 0, 43, 127
1, 125331, Note_off_c, 0, 41, 55
1, 125351, Note_off_c, 0, 52, 62
1, 125353, Note_on_c, 0, 40, 64
1, 125366, Poly_aftertouch_c, 0, 43, 0
1, 125385, Note_on_c, 0, 51, 65
1, 125417, Note_off_c, 0, 40, 60
1, 125419, Note_on_c, 0, 39, 57
1, 125424, Note_off_c, 0, 51, 64
1, 125438, Note_on_c, 0, 50, 73
1, 125460, Note_off_c, 0, 39, 62
1, 125480, Note_off_c, 0, 50, 59
1, 125487, Note_on_c, 0, 38, 76
1, 125497, Note_on_c, 0, 49, 68
1, 125551, Note_on_c, 0, 48, 72
1, 125557, Note_off_c, 0, 49, 61
1, 125569, Note_on_c, 0, 37, 66
1, 125589, Note_off_c, 0, 48, 61
1, 125608, Note_off_c, 0, 37, 62
1, 125614, Note_off_c, 0, 38, 33
1, 125628, Note_on_c, 0, 47, 67
1, 125650, Note_on_c, 0, 35, 58
1, 125650, Note_on_c, 0, 36, 62
1, 125661, Note_off_c, 0, 47, 64
1, 125680, Note_on_c, 0, 46, 66
1, 125681, Note_off_c, 0, 36, 62
1, 125685, Note_off_c, 0, 35, 63
1, 125697, Note_on_c, 0, 34, 60
1, 125717, Note_off_c, 0, 46, 64
1, 125725, Note_on_c, 0, 45, 78
1, 125727, Note_off_c, 0, 34, 55
1, 125733, Note_on_c, 0, 33, 59
1, 125772, Note_off_c, 0, 45, 59
1, 125793, Note_on_c, 0, 44, 61
1, 125811, Note_on_c, 0, 46, 35
1, 125818, Note_off_c, 0, 44, 58
1, 125826, Note_on_c, 0, 43, 71
1, 125833, Note_off_c, 0, 46, 60
1, 125846, Note_off_c, 0, 33, 56
1, 125850, Note_on_c, 0, 30, 23
1, 125879, Note_off_c, 0, 43, 63
1, 125891, Note_off_c, 0, 30, 54
1, 125894, Note_on_c, 0, 42, 72
1, 125905, Note_on_c, 0, 44, 47
1, 125921, Poly_aftertouch_c, 0, 32, 127
1, 125933, Control_c, 0, 64, 107
1, 125933, Note_on_c, 0, 29, 102
1, 125940, Note_on_c, 0, 41, 91
1, 125944, Note_off_c, 0, 44, 63
1, 125948, Control_c, 0, 64, 66
1, 125951, Note_off_c, 0, 42, 60
1, 125953, Poly_aftertouch_c, 0, 32, 0
1, 125963, Control_c, 0, 64, 0
1, 125970, Poly_aftertouch_c, 0, 46, 0
1, 126013, Note_off_c, 0, 41, 61
1, 126024, Note_on_c, 0, 42, 61
1, 126037, Control_c, 0, 64, 47
1, 126043, Note_on_c, 0, 30, 53
1, 126052, Control_c, 0, 64, 70
1, 126064, Note_off_c, 0, 29, 58
1, 126067, Control_c, 0, 64, 86
1, 126073, Note_off_c, 0, 42, 58
1, 126081, Control_c, 0, 64, 127
1, 126094, Note_on_c, 0, 43, 76
1, 126119, Note_off_c, 0, 30, 61
1, 126123, Note_on_c, 0, 31, 65
1, 126142, Note_off_c, 0, 43, 60
1, 126165, Note_on_c, 0, 44, 65
1, 126181, Note_off_c, 0, 31, 59
1, 126205, Note_off_c, 0, 44, 64
1, 126212, Note_on_c, 0, 32, 58
1, 126229, Note_on_c, 0, 45, 76
1, 126249, Note_off_c, 0, 32, 60
1, 126267, Note_off_c, 0, 45, 63
1, 126270, Note_on_c, 0, 33, 68
1, 126291, Note_on_c, 0, 46, 68
1, 126306, Note_off_c, 0, 33, 62
1, 126317, Note_off_c, 0, 46, 65
1, 126327, Note_on_c, 0, 34, 66
1, 126344, Note_on_c, 0, 47, 76
1, 126367, Note_on_c, 0, 35, 73
1, 126377, Note_off_c, 0, 34, 58
1, 126400, Note_off_c, 0, 47, 61
1, 126401, Note_on_c, 0, 48, 73
1, 126413, Note_off_c, 0, 35, 62
1, 126421, Note_on_c, 0, 36, 72
1, 126442, Note_on_c, 0, 49, 72
1, 126443, Note_off_c, 0, 48, 60
1, 126467, Note_off_c, 0, 36, 62
1, 126478, Note_off_c, 0, 49, 64
1, 126487, Note_on_c, 0, 50, 82
1, 126493, Note_on_c, 0, 37, 74
1, 126535, Note_off_c, 0, 37, 60
1, 126537, Note_off_c, 0, 50, 62
1, 126542, Note_on_c, 0, 38, 85
1, 126554, Note_on_c, 0, 51, 75
1, 126580, Note_off_c, 0, 51, 64
1, 126583, Note_off_c, 0, 38, 62
1, 126600, Note_on_c, 0, 39, 81
1, 126602, Note_on_c, 0, 52, 87
1, 126647, Note_on_c, 0, 40, 78
1, 126661, Note_off_c, 0, 39, 62
1, 126663, Note_off_c, 0, 52, 61
1, 126664, Note_on_c, 0, 53, 81
1, 126683, Note_on_c, 0, 41, 82
1, 126709, Note_off_c, 0, 40, 41
1, 126712, Note_on_c, 0, 54, 73
1, 126720, Note_off_c, 0, 53, 63
1, 126743, Note_off_c, 0, 54, 65
1, 126759, Note_on_c, 0, 55, 84
1, 126762, Note_on_c, 0, 42, 82
1, 126770, Note_off_c, 0, 41, 61
1, 126820, Note_on_c, 0, 43, 87
1, 126823, Note_off_c, 0, 55, 60
1, 126827, Note_on_c, 0, 56, 79
1, 126829, Note_off_c, 0, 42, 59
1, 126852, Note_on_c, 0, 44, 87
1, 126872, Note_off_c, 0, 43, 63
1, 126901, Note_on_c, 0, 57, 96
1, 126903, Note_off_c, 0, 56, 63
1, 126915, Poly_aftertouch_c, 0, 58, 127
1, 126921, Note_on_c, 0, 45, 108
1, 126926, Control_c, 0, 64, 80
1, 126939, Poly_aftertouch_c, 0, 58, 0
1, 126941, Control_c, 0, 64, 32
1, 126948, Note_off_c, 0, 44, 64
1, 126955, Control_c, 0, 64, 0
1, 127000, Control_c, 0, 64, 63
1, 127013, Note_on_c, 0, 56, 73
1, 127013, Note_off_c, 0, 57, 62
1, 127015, Control_c, 0, 64, 80
1, 127023, Note_off_c, 0, 45, 62
1, 127029, Note_on_c, 0, 44, 78
1, 127029, Control_c, 0, 64, 127
1, 127094, Note_off_c, 0, 56, 58
1, 127101, Note_on_c, 0, 55, 75
1, 127109, Note_on_c, 0, 43, 82
1, 127113, Note_off_c, 0, 44, 50
1, 127159, Note_off_c, 0, 55, 61
1, 127162, Note_off_c, 0, 43, 62
1, 127165, Note_on_c, 0, 54, 70
1, 127181, Note_on_c, 0, 42, 75
1, 127218, Note_on_c, 0, 53, 71
1, 127236, Note_off_c, 0, 42, 59
1, 127239, Note_off_c, 0, 54, 59
1, 127249, Note_on_c, 0, 41, 81
1, 127266, Note_off_c, 0, 53, 60
1, 127285, Note_on_c, 0, 52, 80
1, 127307, Note_off_c, 0, 41, 61
1, 127313, Note_on_c, 0, 40, 75
1, 127336, Note_off_c, 0, 52, 61
1, 127343, Note_on_c, 0, 51, 75
1, 127349, Note_on_c, 0, 39, 80
1, 127349, Note_off_c, 0, 40, 66
1, 127376, Note_off_c, 0, 39, 64
1, 127397, Note_on_c, 0, 50, 82
1, 127398, Note_off_c, 0, 51, 61
1, 127416, Note_on_c, 0, 38, 79
1, 127427, Note_on_c, 0, 36, 65
1, 127447, Note_off_c, 0, 50, 62
1, 127456, Note_on_c, 0, 49, 83
1, 127459, Note_off_c, 0, 36, 54
1, 127465, Note_off_c, 0, 38, 62
1, 127498, Note_on_c, 0, 37, 63
1, 127503, Note_on_c, 0, 36, 61
1, 127525, Note_off_c, 0, 37, 59
1, 127527, Poly_aftertouch_c, 0, 51, 127
1, 127537, Note_off_c, 0, 36, 64
1, 127552, Note_off_c, 0, 49, 61
1, 127555, Note_on_c, 0, 35, 90
1, 127563, Note_on_c, 0, 47, 67
1, 127563, Poly_aftertouch_c, 0, 51, 0
1, 127588, Poly_aftertouch_c, 0, 48, 127
1, 127626, Note_off_c, 0, 35, 56
1, 127627, Poly_aftertouch_c, 0, 48, 0
1, 127632, Note_on_c, 0, 46, 75
1, 127646, Note_off_c, 0, 47, 64
1, 127654, Note_on_c, 0, 33, 63
1, 127658, Note_on_c, 0, 34, 50
1, 127665, Note_on_c, 0, 32, 46
1, 127678, Note_off_c, 0, 46, 62
1, 127680, Note_on_c, 0, 45, 83
1, 127694, Note_off_c, 0, 34, 52
1, 127711, Note_off_c, 0, 32, 45
1, 127727, Note_on_c, 0, 35, 32
1, 127745, Note_off_c, 0, 45, 59
1, 127753, Note_off_c, 0, 35, 56
1, 127755, Note_on_c, 0, 46, 53
1, 127760, Note_on_c, 0, 44, 46
1, 127776, Note_on_c, 0, 43, 76
1, 127782, Note_off_c, 0, 46, 59
1, 127784, Note_on_c, 0, 31, 71
1, 127794, Note_off_c, 0, 44, 52
1, 127814, Note_on_c, 0, 30, 46
1, 127831, Note_on_c, 0, 42, 86
1, 127834, Note_on_c, 0, 32, 18
1, 127835, Note_off_c, 0, 32, 127
1, 127837, Note_off_c, 0, 43, 62
1, 127839, Note_off_c, 0, 33, 29
1, 127854, Note_off_c, 0, 30, 62
1, 127866, Note_off_c, 0, 31, 60
1, 127871, Note_on_c, 0, 44, 29
1, 127898, Note_on_c, 0, 41, 99
1, 127900, Note_off_c, 0, 44, 56
1, 127905, Note_on_c, 0, 29, 105
1, 127927, Note_off_c, 0, 42, 48
1, 127935, Note_on_c, 0, 33, 63
1, 127941, Control_c, 0, 64, 89
1, 127956, Note_off_c, 0, 33, 64
1, 127956, Control_c, 0, 64, 44
1, 127970, Control_c, 0, 64, 0
1, 127999, Note_on_c, 0, 42, 68
1, 128001, Note_off_c, 0, 41, 63
1, 128020, Note_on_c, 0, 30, 61
1, 128026, Note_off_c, 0, 29, 63
1, 128029, Control_c, 0, 64, 68
1, 128044, Control_c, 0, 64, 92
1, 128059, Control_c, 0, 64, 127
1, 128087, Note_off_c, 0, 42, 53
1, 128090, Note_on_c, 0, 43, 82
1, 128102, Note_on_c, 0, 31, 76
1, 128103, Note_off_c, 0, 30, 61
1, 128139, Note_off_c, 0, 43, 63
1, 128152, Note_on_c, 0, 44, 76
1, 128159, Note_off_c, 0, 31, 59
1, 128184, Note_on_c, 0, 32, 73
1, 128188, Note_off_c, 0, 44, 64
1, 128208, Note_on_c, 0, 45, 87
1, 128225, Note_off_c, 0, 32, 58
1, 128234, Note_on_c, 0, 33, 78
1, 128261, Note_off_c, 0, 45, 62
1, 128269, Note_on_c, 0, 46, 71
1, 128282, Note_off_c, 0, 33, 58
1, 128289, Note_on_c, 0, 34, 77
1, 128304, Note_off_c, 0, 46, 65
1, 128325, Note_on_c, 0, 47, 86
1, 128331, Note_on_c, 0, 35, 83
1, 128359, Note_off_c, 0, 34, 60
1, 128385, Note_on_c, 0, 48, 85
1, 128387, Note_on_c, 0, 36, 85
1, 128389, Note_off_c, 0, 47, 63
1, 128404, Note_off_c, 0, 35, 61
1, 128436, Note_on_c, 0, 49, 81
1, 128454, Note_off_c, 0, 36, 63
1, 128455, Note_off_c, 0, 48, 60
1, 128472, Note_off_c, 0, 49, 63
1, 128478, Note_on_c, 0, 37, 79
1, 128483, Note_on_c, 0, 50, 77
1, 128524, Note_on_c, 0, 38, 81
1, 128535, Note_off_c, 0, 37, 59
1, 128544, Note_on_c, 0, 40, 63
1, 128549, Note_off_c, 0, 50, 61
1, 128551, Note_on_c, 0, 51, 87
1, 128577, Note_off_c, 0, 38, 61
1, 128578, Note_off_c, 0, 40, 64
1, 128602, Note_on_c, 0, 38, 53
1, 128604, Note_off_c, 0, 51, 62
1, 128611, Note_on_c, 0, 39, 53
1, 128613, Note_on_c, 0, 52, 89
1, 128643, Note_off_c, 0, 39, 52
1, 128649, Note_on_c, 0, 37, 4
1, 128655, Note_off_c, 0, 38, 62
1, 128655, Note_on_c, 0, 40, 73
1, 128658, Note_on_c, 0, 41, 86
1, 128669, Note_on_c, 0, 53, 88
1, 128681, Note_off_c, 0, 37, 56
1, 128681, Note_off_c, 0, 52, 56
1, 128705, Note_off_c, 0, 40, 59
1, 128715, Note_on_c, 0, 54, 79
1, 128717, Note_off_c, 0, 41, 0
1, 128723, Note_off_c, 0, 53, 65
1, 128729, Note_on_c, 0, 39, 78
1, 128736, Note_on_c, 0, 41, 41
1, 128756, Note_off_c, 0, 54, 61
1, 128766, Note_on_c, 0, 55, 87
1, 128769, Note_on_c, 0, 43, 91
1, 128801, Note_off_c, 0, 39, 57
1, 128816, Note_off_c, 0, 55, 63
1, 128819, Note_off_c, 0, 41, 59
1, 128824, Note_on_c, 0, 56, 86
1, 128830, Note_off_c, 0, 43, 64
1, 128884, Note_off_c, 0, 56, 59
1, 128884, Note_on_c, 0, 57, 93
1, 128940, Note_on_c, 0, 58, 70
1, 128942, Note_off_c, 0, 57, 55
1, 128965, Note_on_c, 0, 59, 72
1, 128971, Note_off_c, 0, 58, 65
1, 128988, Note_on_c, 0, 41, 33
1, 129031, Note_off_c, 0, 41, 63
1, 129039, Note_off_c, 0, 59, 64
1, 129078, Note_on_c, 0, 49, 117
1, 129081, Note_on_c, 0, 37, 94
1, 129096, Note_on_c, 0, 41, 81
1, 129099, Note_on_c, 0, 64, 83
1, 129101, Note_on_c, 0, 40, 61
1, 129101, Note_on_c, 0, 65, 74
1, 129103, Note_on_c, 0, 61, 66
1, 129104, Control_c, 0, 64, 71
1, 129111, Note_on_c, 0, 53, 86
1, 129120, Control_c, 0, 64, 0
1, 129159, Note_on_c, 0, 62, 19
1, 129171, Control_c, 0, 64, 47
1, 129172, Note_off_c, 0, 53, 62
1, 129174, Note_off_c, 0, 40, 59
1, 129186, Note_off_c, 0, 37, 60
1, 129186, Note_off_c, 0, 49, 64
1, 129186, Control_c, 0, 64, 77
1, 129194, Note_off_c, 0, 41, 63
1, 129198, Note_off_c, 0, 61, 64
1, 129199, Note_off_c, 0, 62, 44
1, 129201, Control_c, 0, 64, 127
1, 129215, Note_on_c, 0, 60, 73
1, 129227, Note_off_c, 0, 64, 61
1, 129231, Note_off_c, 0, 65, 52
1, 129298, Note_off_c, 0, 60, 61
1, 129302, Note_on_c, 0, 59, 75
1, 129336, Note_on_c, 0, 57, 47
1, 129337, Note_off_c, 0, 57, 127
1, 129360, Note_off_c, 0, 59, 59
1, 129370, Note_on_c, 0, 58, 81
1, 129433, Note_on_c, 0, 57, 87
1, 129435, Note_off_c, 0, 58, 62
1, 129493, Note_off_c, 0, 57, 61
1, 129507, Note_on_c, 0, 58, 81
1, 129574, Note_on_c, 0, 59, 90
1, 129581, Note_off_c, 0, 58, 62
1, 129647, Note_off_c, 0, 59, 60
1, 129650, Note_on_c, 0, 60, 84
1, 129676, Note_on_c, 0, 48, 110
1, 129680, Note_on_c, 0, 36, 93
1, 129682, Note_on_c, 0, 41, 91
1, 129701, Note_on_c, 0, 61, 87
1, 129721, Note_off_c, 0, 60, 60
1, 129735, Note_on_c, 0, 38, 28
1, 129746, Note_off_c, 0, 48, 66
1, 129754, Note_off_c, 0, 36, 64
1, 129758, Note_off_c, 0, 61, 66
1, 129760, Note_off_c, 0, 41, 64
1, 129762, Note_on_c, 0, 62, 84
1, 129784, Note_off_c, 0, 38, 50
1, 129844, Note_on_c, 0, 63, 82
1, 129847, Note_off_c, 0, 62, 58
1, 129897, Note_off_c, 0, 63, 61
1, 129912, Note_on_c, 0, 64, 90
1, 129971, Note_on_c, 0, 65, 86
1, 130005, Note_off_c, 0, 64, 39
1, 130029, Note_on_c, 0, 66, 77
1, 130034, Note_off_c, 0, 65, 61
1, 130053, Note_off_c, 0, 66, 64
1, 130069, Note_on_c, 0, 67, 84
1, 130147, Note_on_c, 0, 68, 86
1, 130152, Note_off_c, 0, 67, 60
1, 130165, Note_on_c, 0, 46, 112
1, 130172, Note_on_c, 0, 34, 90
1, 130172, Note_on_c, 0, 37, 85
1, 130180, Note_on_c, 0, 41, 81
1, 130181, Note_on_c, 0, 44, 76
1, 130195, Note_off_c, 0, 68, 61
1, 130196, Note_on_c, 0, 40, 57
1, 130209, Note_on_c, 0, 69, 84
1, 130211, Note_off_c, 0, 44, 48
1, 130214, Note_on_c, 0, 70, 11
1, 130220, Note_off_c, 0, 40, 61
1, 130250, Note_off_c, 0, 46, 66
1, 130254, Note_off_c, 0, 34, 61
1, 130257, Note_off_c, 0, 41, 62
1, 130261, Note_off_c, 0, 37, 60
1, 130264, Note_off_c, 0, 70, 0
1, 130271, Poly_aftertouch_c, 0, 33, 127
1, 130279, Note_on_c, 0, 70, 63
1, 130295, Note_off_c, 0, 69, 58
1, 130309, Poly_aftertouch_c, 0, 33, 0
1, 130337, Note_off_c, 0, 70, 61
1, 130347, Note_on_c, 0, 71, 87
1, 130413, Note_on_c, 0, 72, 89
1, 130420, Note_off_c, 0, 71, 54
1, 130459, Note_on_c, 0, 73, 80
1, 130476, Note_off_c, 0, 72, 61
1, 130504, Note_off_c, 0, 73, 63
1, 130513, Note_on_c, 0, 74, 90
1, 130586, Note_on_c, 0, 75, 87
1, 130588, Note_off_c, 0, 74, 64
1, 130615, Note_on_c, 0, 78, 45
1, 130628, Note_off_c, 0, 75, 65
1, 130648, Note_off_c, 0, 78, 57
1, 130661, Note_on_c, 0, 76, 90
1, 130695, Note_on_c, 0, 45, 117
1, 130702, Note_on_c, 0, 33, 95
1, 130703, Note_on_c, 0, 37, 91
1, 130705, Note_on_c, 0, 41, 85
1, 130717, Note_on_c, 0, 77, 91
1, 130727, Note_on_c, 0, 40, 58
1, 130738, Note_on_c, 0, 35, 45
1, 130744, Note_off_c, 0, 76, 62
1, 130748, Note_on_c, 0, 36, 55
1, 130756, Note_off_c, 0, 40, 38
1, 130773, Note_off_c, 0, 36, 60
1, 130776, Note_off_c, 0, 35, 50
1, 130783, Note_off_c, 0, 33, 63
1, 130783, Note_off_c, 0, 45, 63
1, 130789, Note_on_c, 0, 78, 73
1, 130792, Note_off_c, 0, 77, 60
1, 130794, Note_off_c, 0, 37, 60
1, 130800, Note_off_c, 0, 41, 62
1, 130828, Note_off_c, 0, 78, 64
1, 130841, Note_on_c, 0, 79, 83
1, 130911, Note_off_c, 0, 79, 62
1, 130914, Note_on_c, 0, 80, 81
1, 130971, Note_off_c, 0, 80, 63
1, 130974, Note_on_c, 0, 81, 82
1, 131033, Note_on_c, 0, 82, 76
1, 131033, Note_off_c, 0, 81, 61
1, 131075, Note_off_c, 0, 82, 63
1, 131094, Note_on_c, 0, 83, 88
1, 131156, Note_on_c, 0, 84, 84
1, 131165, Note_off_c, 0, 83, 51
1, 131212, Note_on_c, 0, 46, 118
1, 131214, Note_on_c, 0, 85, 77
1, 131218, Note_on_c, 0, 37, 95
1, 131218, Note_on_c, 0, 34, 100
1, 131220, Note_on_c, 0, 41, 89
1, 131224, Note_off_c, 0, 84, 64
1, 131261, Note_off_c, 0, 85, 67
1, 131268, Note_on_c, 0, 86, 90
1, 131269, Note_on_c, 0, 35, 42
1, 131305, Note_off_c, 0, 34, 61
1, 131308, Note_off_c, 0, 35, 44
1, 131311, Note_off_c, 0, 46, 62
1, 131325, Note_off_c, 0, 41, 62
1, 131330, Note_off_c, 0, 37, 60
1, 131344, Note_on_c, 0, 87, 80
1, 131346, Note_off_c, 0, 86, 64
1, 131385, Note_off_c, 0, 87, 63
1, 131415, Note_on_c, 0, 88, 91
1, 131464, Note_on_c, 0, 89, 85
1, 131510, Note_on_c, 0, 90, 83
1, 131517, Note_off_c, 0, 88, 58
1, 131522, Note_off_c, 0, 89, 64
1, 131546, Note_off_c, 0, 90, 60
1, 131562, Note_on_c, 0, 91, 89
1, 131612, Note_on_c, 0, 92, 86
1, 131613, Note_off_c, 0, 91, 66
1, 131668, Note_off_c, 0, 92, 65
1, 131820, Note_on_c, 0, 39, 111
1, 131826, Note_on_c, 0, 87, 106
1, 131826, Note_on_c, 0, 99, 111
1, 131827, Note_on_c, 0, 27, 98
1, 131831, Note_on_c, 0, 97, 106
1, 131850, Note_on_c, 0, 85, 53
1, 131851, Note_off_c, 0, 85, 127
1, 131858, Note_on_c, 0, 28, 57
1, 131875, Note_on_c, 0, 31, 27
1, 131892, Control_c, 0, 64, 86
1, 131896, Note_off_c, 0, 97, 52
1, 131904, Note_off_c, 0, 28, 44
1, 131907, Control_c, 0, 64, 34
1, 131917, Note_off_c, 0, 31, 42
1, 131922, Control_c, 0, 64, 0
1, 131981, Control_c, 0, 64, 45
1, 131995, Control_c, 0, 64, 90
1, 132010, Control_c, 0, 64, 127
1, 132064, Note_off_c, 0, 99, 64
1, 132065, Note_off_c, 0, 27, 58
1, 132089, Note_off_c, 0, 87, 55
1, 132107, Note_off_c, 0, 39, 58
1, 132475, Note_on_c, 0, 59, 116
1, 132479, Note_on_c, 0, 54, 99
1, 132492, Note_on_c, 0, 66, 87
1, 132507, Note_off_c, 0, 66, 70
1, 132580, Poly_aftertouch_c, 0, 63, 0
1, 132617, Poly_aftertouch_c, 0, 63, 127
1, 132620, Note_on_c, 0, 63, 18
1, 132664, Note_off_c, 0, 54, 59
1, 132670, Poly_aftertouch_c, 0, 66, 0
1, 132676, Note_on_c, 0, 51, 62
1, 132731, Note_on_c, 0, 66, 44
1, 132770, Note_off_c, 0, 51, 59
1, 132780, Note_on_c, 0, 54, 72
1, 132845, Note_on_c, 0, 51, 65
1, 132858, Note_off_c, 0, 54, 56
1, 132876, Note_off_c, 0, 59, 53
1, 132951, Note_off_c, 0, 63, 52
1, 132975, Note_on_c, 0, 58, 108
1, 132990, Note_on_c, 0, 54, 86
1, 133011, Note_off_c, 0, 51, 60
1, 133072, Poly_aftertouch_c, 0, 67, 0
1, 133091, Poly_aftertouch_c, 0, 67, 0
1, 133096, Note_off_c, 0, 66, 51
1, 133102, Note_off_c, 0, 54, 55
1, 133108, Note_on_c, 0, 63, 63
1, 133119, Note_on_c, 0, 51, 68
1, 133200, Note_off_c, 0, 51, 59
1, 133209, Note_on_c, 0, 54, 71
1, 133228, Note_on_c, 0, 66, 62
1, 133274, Note_on_c, 0, 51, 68
1, 133291, Note_off_c, 0, 54, 59
1, 133320, Note_off_c, 0, 58, 57
1, 133396, Note_off_c, 0, 63, 60
1, 133407, Note_on_c, 0, 54, 86
1, 133417, Note_on_c, 0, 57, 109
1, 133425, Note_off_c, 0, 51, 58
1, 133462, Note_off_c, 0, 66, 59
1, 133501, Note_on_c, 0, 51, 70
1, 133501, Note_off_c, 0, 54, 62
1, 133525, Note_on_c, 0, 63, 72
1, 133582, Note_on_c, 0, 54, 77
1, 133585, Note_off_c, 0, 51, 61
1, 133628, Note_on_c, 0, 66, 66
1, 133654, Note_on_c, 0, 51, 74
1, 133654, Note_off_c, 0, 63, 58
1, 133666, Note_off_c, 0, 54, 58
1, 133735, Note_off_c, 0, 57, 55
1, 133841, Note_on_c, 0, 54, 93
1, 133847, Note_on_c, 0, 58, 105
1, 133874, Note_off_c, 0, 51, 59
1, 133891, Note_off_c, 0, 66, 59
1, 133942, Note_on_c, 0, 51, 72
1, 133942, Note_on_c, 0, 63, 85
1, 133952, Note_off_c, 0, 54, 54
1, 134013, Note_off_c, 0, 63, 59
1, 134015, Note_on_c, 0, 66, 64
1, 134028, Note_on_c, 0, 54, 77
1, 134029, Note_off_c, 0, 51, 59
1, 134038, Note_on_c, 0, 68, 52
1, 134056, Note_on_c, 0, 63, 65
1, 134062, Note_off_c, 0, 68, 57
1, 134063, Note_on_c, 0, 67, 40
1, 134085, Note_on_c, 0, 51, 69
1, 134094, Note_off_c, 0, 67, 52
1, 134100, Note_off_c, 0, 58, 58
1, 134107, Note_off_c, 0, 54, 57
1, 134254, Note_off_c, 0, 63, 61
1, 134271, Note_off_c, 0, 66, 39
1, 134272, Note_on_c, 0, 54, 113
1, 134302, Note_off_c, 0, 51, 61
1, 134411, Note_on_c, 0, 51, 77
1, 134423, Note_off_c, 0, 54, 58
1, 134481, Note_on_c, 0, 54, 78
1, 134490, Note_off_c, 0, 51, 60
1, 134548, Note_on_c, 0, 51, 84
1, 134555, Note_off_c, 0, 54, 60
1, 134614, Note_on_c, 0, 54, 94
1, 134631, Note_off_c, 0, 51, 59
1, 134806, Note_on_c, 0, 63, 122
1, 134828, Note_on_c, 0, 62, 70
1, 134873, Note_off_c, 0, 63, 63
1, 134878, Note_off_c, 0, 62, 60
1, 134904, Note_off_c, 0, 54, 56
1, 135314, Note_on_c, 0, 54, 114
1, 135317, Note_on_c, 0, 42, 96
1, 135320, Note_on_c, 0, 46, 94
1, 135338, Control_c, 0, 64, 66
1, 135353, Control_c, 0, 64, 0
1, 135394, Note_on_c, 0, 57, 73
1, 135398, Control_c, 0, 64, 56
1, 135412, Control_c, 0, 64, 83
1, 135416, Note_off_c, 0, 54, 63
1, 135418, Note_off_c, 0, 42, 60
1, 135427, Control_c, 0, 64, 127
1, 135430, Note_off_c, 0, 46, 62
1, 135468, Note_on_c, 0, 58, 74
1, 135471, Note_off_c, 0, 57, 59
1, 135521, Note_off_c, 0, 58, 62
1, 135527, Note_on_c, 0, 59, 76
1, 135608, Note_on_c, 0, 60, 69
1, 135608, Note_off_c, 0, 59, 58
1, 135619, Note_on_c, 0, 62, 59
1, 135642, Note_off_c, 0, 62, 55
1, 135667, Note_on_c, 0, 61, 78
1, 135675, Note_off_c, 0, 60, 61
1, 135710, Note_off_c, 0, 61, 64
1, 135713, Note_on_c, 0, 62, 80
1, 135786, Note_on_c, 0, 63, 86
1, 135786, Note_off_c, 0, 62, 58
1, 135831, Note_off_c, 0, 63, 63
1, 135851, Note_on_c, 0, 64, 84
1, 135865, Note_on_c, 0, 53, 116
1, 135870, Note_on_c, 0, 41, 96
1, 135874, Note_on_c, 0, 46, 94
1, 135912, Note_on_c, 0, 65, 85
1, 135919, Note_on_c, 0, 43, 39
1, 135921, Note_on_c, 0, 44, 27
1, 135922, Note_off_c, 0, 44, 127
1, 135931, Note_off_c, 0, 53, 68
1, 135934, Note_off_c, 0, 64, 56
1, 135940, Note_off_c, 0, 41, 63
1, 135953, Note_off_c, 0, 46, 61
1, 135959, Note_off_c, 0, 43, 48
1, 135973, Note_on_c, 0, 66, 76
1, 135975, Note_off_c, 0, 65, 63
1, 135998, Note_off_c, 0, 66, 66
1, 136020, Note_on_c, 0, 67, 83
1, 136074, Note_off_c, 0, 67, 61
1, 136082, Note_on_c, 0, 68, 81
1, 136131, Note_off_c, 0, 68, 59
1, 136144, Note_on_c, 0, 69, 95
1, 136202, Note_on_c, 0, 70, 65
1, 136204, Note_off_c, 0, 69, 63
1, 136256, Note_off_c, 0, 70, 61
1, 136281, Note_on_c, 0, 71, 83
1, 136298, Note_on_c, 0, 51, 113
1, 136307, Note_on_c, 0, 39, 92
1, 136310, Note_on_c, 0, 43, 85
1, 136310, Note_on_c, 0, 45, 85
1, 136330, Note_on_c, 0, 72, 83
1, 136355, Note_on_c, 0, 52, 20
1, 136359, Note_off_c, 0, 71, 58
1, 136362, Note_off_c, 0, 51, 68
1, 136371, Note_off_c, 0, 39, 61
1, 136374, Note_off_c, 0, 43, 63
1, 136374, Note_off_c, 0, 45, 63
1, 136381, Note_on_c, 0, 73, 77
1, 136386, Note_off_c, 0, 72, 64
1, 136396, Note_off_c, 0, 52, 42
1, 136423, Note_off_c, 0, 73, 62
1, 136433, Note_on_c, 0, 74, 81
1, 136501, Note_on_c, 0, 75, 78
1, 136501, Note_off_c, 0, 74, 61
1, 136548, Note_off_c, 0, 75, 63
1, 136569, Note_on_c, 0, 76, 83
1, 136627, Note_on_c, 0, 77, 83
1, 136659, Note_off_c, 0, 76, 58
1, 136697, Note_on_c, 0, 78, 78
1, 136704, Note_off_c, 0, 77, 63
1, 136742, Note_off_c, 0, 78, 63
1, 136750, Note_on_c, 0, 49, 107
1, 136756, Note_on_c, 0, 41, 87
1, 136757, Note_on_c, 0, 37, 91
1, 136759, Note_on_c, 0, 45, 88
1, 136759, Note_on_c, 0, 79, 82
1, 136798, Note_on_c, 0, 39, 39
1, 136817, Note_off_c, 0, 79, 65
1, 136823, Note_on_c, 0, 80, 77
1, 136825, Note_off_c, 0, 39, 60
1, 136827, Note_off_c, 0, 49, 65
1, 136828, Note_off_c, 0, 37, 61
1, 136836, Note_off_c, 0, 41, 62
1, 136836, Note_off_c, 0, 45, 62
1, 136879, Note_off_c, 0, 80, 63
1, 136888, Note_on_c, 0, 81, 85
1, 136956, Note_off_c, 0, 81, 62
1, 136958, Note_on_c, 0, 82, 74
1, 137002, Note_off_c, 0, 82, 63
1, 137027, Note_on_c, 0, 83, 82
1, 137079, Note_on_c, 0, 84, 85
1, 137112, Note_off_c, 0, 83, 59
1, 137134, Note_on_c, 0, 44, 30
1, 137141, Note_on_c, 0, 85, 81
1, 137162, Note_off_c, 0, 84, 61
1, 137181, Note_off_c, 0, 44, 49
1, 137209, Note_off_c, 0, 85, 66
1, 137213, Note_on_c, 0, 86, 87
1, 137224, Note_on_c, 0, 48, 110
1, 137228, Note_on_c, 0, 45, 93
1, 137232, Note_on_c, 0, 36, 97
1, 137237, Note_on_c, 0, 41, 87
1, 137239, Note_on_c, 0, 39, 86
1, 137276, Note_on_c, 0, 47, 32
1, 137277, Note_off_c, 0, 47, 127
1, 137280, Note_on_c, 0, 87, 74
1, 137281, Note_off_c, 0, 86, 64
1, 137297, Note_off_c, 0, 39, 57
1, 137301, Note_off_c, 0, 48, 68
1, 137313, Note_off_c, 0, 45, 64
1, 137314, Note_off_c, 0, 36, 64
1, 137317, Note_off_c, 0, 41, 62
1, 137323, Note_off_c, 0, 87, 63
1, 137347, Note_on_c, 0, 88, 93
1, 137407, Note_on_c, 0, 89, 81
1, 137435, Note_off_c, 0, 88, 61
1, 137451, Note_on_c, 0, 90, 78
1, 137461, Note_off_c, 0, 89, 66
1, 137475, Note_off_c, 0, 90, 66
1, 137502, Note_on_c, 0, 91, 85
1, 137559, Note_off_c, 0, 91, 63
1, 137611, Note_on_c, 0, 91, 41
1, 137636, Poly_aftertouch_c, 0, 34, 127
1, 137637, Note_off_c, 0, 91, 56
1, 137708, Poly_aftertouch_c, 0, 34, 0
1, 137752, Note_on_c, 0, 46, 110
1, 137755, Note_on_c, 0, 34, 94
1, 137755, Note_on_c, 0, 37, 91
1, 137762, Note_on_c, 0, 89, 104
1, 137764, Note_on_c, 0, 101, 106
1, 137765, Note_on_c, 0, 94, 112
1, 137785, Note_on_c, 0, 100, 61
1, 137822, Control_c, 0, 64, 78
1, 137824, Note_on_c, 0, 33, 7
1, 137830, Note_off_c, 0, 100, 42
1, 137837, Control_c, 0, 64, 0
1, 137867, Note_off_c, 0, 33, 35
1, 137900, Note_off_c, 0, 101, 59
1, 137912, Control_c, 0, 64, 71
1, 137927, Control_c, 0, 64, 127
1, 137937, Note_off_c, 0, 89, 58
1, 137967, Note_off_c, 0, 94, 60
1, 137970, Note_off_c, 0, 34, 58
1, 137986, Note_off_c, 0, 37, 57
1, 138003, Note_off_c, 0, 46, 61
1, 138379, Note_on_c, 0, 54, 126
1, 138400, Note_on_c, 0, 58, 96
1, 138404, Note_on_c, 0, 61, 87
1, 138494, Note_off_c, 0, 58, 57
1, 138494, Poly_aftertouch_c, 0, 66, 0
1, 138515, Note_on_c, 0, 66, 36
1, 138533, Note_off_c, 0, 61, 62
1, 138552, Note_on_c, 0, 49, 67
1, 138569, Note_off_c, 0, 54, 51
1, 138608, Note_on_c, 0, 58, 57
1, 138611, Note_off_c, 0, 66, 58
1, 138628, Note_on_c, 0, 61, 60
1, 138639, Note_off_c, 0, 58, 61
1, 138653, Note_on_c, 0, 54, 69
1, 138655, Note_off_c, 0, 49, 59
1, 138664, Note_on_c, 0, 66, 61
1, 138673, Note_off_c, 0, 61, 57
1, 138733, Note_on_c, 0, 58, 74
1, 138745, Note_on_c, 0, 61, 66
1, 138756, Note_on_c, 0, 49, 63
1, 138785, Note_off_c, 0, 54, 55
1, 138828, Note_off_c, 0, 66, 57
1, 138836, Note_off_c, 0, 58, 60
1, 138863, Note_on_c, 0, 65, 71
1, 138865, Note_on_c, 0, 53, 108
1, 138867, Note_off_c, 0, 61, 61
1, 138903, Note_off_c, 0, 49, 62
1, 138912, Note_on_c, 0, 51, 42
1, 138939, Note_on_c, 0, 61, 59
1, 138942, Note_on_c, 0, 58, 73
1, 138949, Note_off_c, 0, 65, 60
1, 138994, Note_off_c, 0, 58, 55
1, 139004, Note_on_c, 0, 49, 72
1, 139004, Poly_aftertouch_c, 0, 50, 127
1, 139015, Note_on_c, 0, 65, 67
1, 139016, Note_off_c, 0, 53, 54
1, 139030, Note_off_c, 0, 61, 61
1, 139069, Poly_aftertouch_c, 0, 50, 0
1, 139078, Note_on_c, 0, 53, 62
1, 139085, Note_on_c, 0, 61, 59
1, 139091, Note_on_c, 0, 58, 71
1, 139103, Note_off_c, 0, 65, 56
1, 139105, Note_off_c, 0, 49, 59
1, 139158, Note_off_c, 0, 58, 58
1, 139166, Note_on_c, 0, 65, 69
1, 139174, Note_on_c, 0, 49, 61
1, 139196, Note_off_c, 0, 53, 60
1, 139214, Note_off_c, 0, 61, 0
1, 139234, Note_on_c, 0, 61, 47
1, 139255, Note_off_c, 0, 51, 25
1, 139258, Note_on_c, 0, 58, 70
1, 139270, Note_off_c, 0, 65, 59
1, 139280, Note_off_c, 0, 49, 59
1, 139281, Note_on_c, 0, 52, 99
1, 139304, Note_off_c, 0, 58, 62
1, 139330, Note_on_c, 0, 50, 15
1, 139331, Note_off_c, 0, 50, 127
1, 139332, Note_on_c, 0, 64, 68
1, 139361, Note_off_c, 0, 61, 0
1, 139373, Note_on_c, 0, 49, 73
1, 139385, Note_off_c, 0, 52, 59
1, 139387, Note_on_c, 0, 58, 63
1, 139392, Note_on_c, 0, 61, 24
1, 139431, Note_off_c, 0, 58, 56
1, 139448, Note_on_c, 0, 52, 74
1, 139459, Note_off_c, 0, 49, 59
1, 139474, Note_off_c, 0, 61, 53
1, 139517, Note_on_c, 0, 61, 34
1, 139532, Note_on_c, 0, 58, 58
1, 139541, Note_on_c, 0, 49, 68
1, 139554, Note_off_c, 0, 64, 57
1, 139574, Note_off_c, 0, 52, 59
1, 139633, Note_off_c, 0, 58, 59
1, 139661, Note_off_c, 0, 49, 60
1, 139667, Note_on_c, 0, 65, 51
1, 139670, Control_c, 0, 64, 87
1, 139671, Note_off_c, 0, 61, 59
1, 139681, Note_on_c, 0, 53, 103
1, 139682, Note_on_c, 0, 64, 35
1, 139684, Control_c, 0, 64, 59
1, 139699, Control_c, 0, 64, 0
1, 139711, Note_off_c, 0, 64, 54
1, 139714, Control_c, 0, 64, 36
1, 139723, Note_on_c, 0, 49, 32
1, 139728, Note_off_c, 0, 65, 56
1, 139729, Control_c, 0, 64, 69
1, 139741, Note_on_c, 0, 58, 67
1, 139741, Note_on_c, 0, 61, 38
1, 139744, Control_c, 0, 64, 102
1, 139758, Control_c, 0, 64, 127
1, 139784, Note_off_c, 0, 53, 60
1, 139791, Note_off_c, 0, 58, 52
1, 139802, Note_on_c, 0, 65, 67
1, 139812, Note_off_c, 0, 61, 56
1, 139844, Note_on_c, 0, 53, 76
1, 139853, Note_off_c, 0, 49, 60
1, 139862, Note_on_c, 0, 58, 52
1, 139904, Note_off_c, 0, 58, 61
1, 139911, Note_on_c, 0, 49, 75
1, 139937, Note_off_c, 0, 53, 55
1, 140069, Poly_aftertouch_c, 0, 46, 0
1, 140074, Note_on_c, 0, 61, 108
1, 140086, Note_on_c, 0, 53, 92
1, 140116, Note_off_c, 0, 49, 59
1, 140121, Note_off_c, 0, 65, 57
1, 140201, Note_on_c, 0, 49, 70
1, 140203, Note_off_c, 0, 61, 64
1, 140214, Note_on_c, 0, 65, 77
1, 140222, Note_off_c, 0, 53, 56
1, 140304, Note_off_c, 0, 49, 60
1, 140310, Note_on_c, 0, 61, 70
1, 140313, Note_on_c, 0, 53, 77
1, 140355, Note_off_c, 0, 65, 0
1, 140367, Note_on_c, 0, 65, 50
1, 140379, Note_off_c, 0, 61, 62
1, 140387, Note_on_c, 0, 49, 75
1, 140412, Note_off_c, 0, 53, 57
1, 140433, Note_on_c, 0, 61, 72
1, 140437, Note_on_c, 0, 53, 61
1, 140533, Note_off_c, 0, 61, 64
1, 140563, Note_on_c, 0, 58, 108
1, 140566, Control_c, 0, 64, 85
1, 140569, Note_on_c, 0, 46, 101
1, 140581, Control_c, 0, 64, 53
1, 140585, Note_off_c, 0, 49, 62
1, 140596, Control_c, 0, 64, 0
1, 140609, Note_off_c, 0, 53, 62
1, 140626, Control_c, 0, 64, 62
1, 140630, Note_off_c, 0, 65, 22
1, 140641, Control_c, 0, 64, 86
1, 140648, Note_off_c, 0, 58, 65
1, 140656, Control_c, 0, 64, 127
1, 140730, Note_off_c, 0, 46, 58
1, 140989, Note_on_c, 0, 37, 85
1, 140990, Note_on_c, 0, 49, 105
1, 140995, Control_c, 0, 64, 99
1, 141010, Control_c, 0, 64, 55
1, 141025, Control_c, 0, 64, 0
1, 141070, Control_c, 0, 64, 34
1, 141084, Control_c, 0, 64, 72
1, 141100, Control_c, 0, 64, 127
1, 141128, Note_off_c, 0, 37, 59
1, 141150, Note_off_c, 0, 49, 59
1, 141159, Note_on_c, 0, 73, 118
1, 141159, Note_on_c, 0, 85, 110
1, 141222, Note_off_c, 0, 85, 70
1, 141223, Note_off_c, 0, 73, 60
1, 141299, Note_on_c, 0, 61, 106
1, 141342, Note_off_c, 0, 61, 68
1, 141390, Note_on_c, 0, 61, 100
1, 141422, Note_off_c, 0, 61, 70
1, 141484, Note_on_c, 0, 48, 96
1, 141491, Note_on_c, 0, 36, 90
1, 141493, Control_c, 0, 64, 71
1, 141507, Control_c, 0, 64, 0
1, 141536, Note_off_c, 0, 36, 64
1, 141537, Control_c, 0, 64, 52
1, 141538, Note_off_c, 0, 48, 61
1, 141552, Control_c, 0, 64, 73
1, 141567, Control_c, 0, 64, 116
1, 141581, Control_c, 0, 64, 127
1, 141586, Note_on_c, 0, 84, 104
1, 141587, Note_on_c, 0, 72, 112
1, 141613, Note_on_c, 0, 83, 53
1, 141616, Note_off_c, 0, 72, 69
1, 141619, Note_off_c, 0, 84, 70
1, 141631, Note_off_c, 0, 83, 63
1, 141681, Note_on_c, 0, 60, 95
1, 141720, Note_off_c, 0, 60, 60
1, 141760, Note_on_c, 0, 60, 108
1, 141794, Note_off_c, 0, 60, 64
1, 141848, Control_c, 0, 64, 75
1, 141854, Note_on_c, 0, 46, 110
1, 141857, Note_on_c, 0, 34, 90
1, 141863, Control_c, 0, 64, 62
1, 141885, Control_c, 0, 64, 64
1, 141896, Note_off_c, 0, 34, 64
1, 141899, Note_off_c, 0, 46, 65
1, 141901, Control_c, 0, 64, 75
1, 141916, Control_c, 0, 64, 124
1, 141930, Control_c, 0, 64, 127
1, 141949, Note_on_c, 0, 70, 111
1, 141949, Note_on_c, 0, 82, 109
1, 141980, Note_off_c, 0, 70, 66
1, 141991, Note_on_c, 0, 80, 33
1, 141992, Note_off_c, 0, 80, 127
1, 141997, Note_off_c, 0, 82, 61
1, 142047, Note_on_c, 0, 58, 97
1, 142081, Note_off_c, 0, 58, 68
1, 142138, Note_on_c, 0, 58, 86
1, 142149, Note_on_c, 0, 57, 73
1, 142154, Note_off_c, 0, 58, 65
1, 142167, Note_off_c, 0, 57, 66
1, 142212, Control_c, 0, 64, 72
1, 142218, Note_on_c, 0, 45, 104
1, 142224, Note_on_c, 0, 33, 93
1, 142227, Control_c, 0, 64, 35
1, 142238, Poly_aftertouch_c, 0, 56, 0
1, 142242, Control_c, 0, 64, 0
1, 142242, Note_on_c, 0, 39, 56
1, 142256, Control_c, 0, 64, 49
1, 142256, Note_on_c, 0, 34, 29
1, 142257, Note_off_c, 0, 34, 127
1, 142264, Note_off_c, 0, 45, 60
1, 142266, Note_off_c, 0, 33, 61
1, 142269, Note_off_c, 0, 39, 56
1, 142271, Control_c, 0, 64, 73
1, 142286, Control_c, 0, 64, 127
1, 142312, Note_on_c, 0, 81, 105
1, 142315, Note_on_c, 0, 69, 104
1, 142322, Note_on_c, 0, 67, 79
1, 142323, Note_off_c, 0, 67, 127
1, 142329, Note_on_c, 0, 78, 64
1, 142341, Note_off_c, 0, 69, 70
1, 142342, Note_off_c, 0, 81, 72
1, 142348, Note_off_c, 0, 78, 40
1, 142380, Poly_aftertouch_c, 0, 79, 0
1, 142406, Note_on_c, 0, 59, 94
1, 142411, Note_on_c, 0, 57, 69
1, 142429, Poly_aftertouch_c, 0, 79, 0
1, 142437, Note_off_c, 0, 59, 62
1, 142440, Note_off_c, 0, 57, 65
1, 142480, Note_on_c, 0, 57, 101
1, 142487, Note_on_c, 0, 59, 92
1, 142491, Poly_aftertouch_c, 0, 67, 0
1, 142509, Note_off_c, 0, 57, 61
1, 142514, Note_off_c, 0, 59, 65
1, 142581, Note_on_c, 0, 46, 110
1, 142584, Note_on_c, 0, 34, 90
1, 142597, Control_c, 0, 64, 84
1, 142612, Note_on_c, 0, 37, 42
1, 142612, Control_c, 0, 64, 59
1, 142626, Note_on_c, 0, 47, 44
1, 142627, Note_off_c, 0, 47, 127
1, 142635, Control_c, 0, 64, 29
1, 142647, Note_off_c, 0, 34, 64
1, 142650, Control_c, 0, 64, 55
1, 142655, Note_off_c, 0, 37, 53
1, 142664, Control_c, 0, 64, 72
1, 142668, Note_off_c, 0, 46, 64
1, 142679, Control_c, 0, 64, 127
1, 142692, Note_on_c, 0, 82, 105
1, 142692, Note_on_c, 0, 70, 105
1, 142704, Note_on_c, 0, 80, 88
1, 142707, Note_on_c, 0, 68, 77
1, 142708, Note_off_c, 0, 68, 127
1, 142716, Note_off_c, 0, 80, 74
1, 142736, Note_off_c, 0, 82, 68
1, 142741, Note_off_c, 0, 70, 56
1, 142805, Note_on_c, 0, 58, 105
1, 142841, Note_off_c, 0, 58, 65
1, 142889, Note_on_c, 0, 58, 95
1, 142897, Note_on_c, 0, 56, 91
1, 142918, Note_off_c, 0, 56, 66
1, 142918, Note_on_c, 0, 57, 51
1, 142932, Note_off_c, 0, 58, 65
1, 142938, Note_off_c, 0, 57, 63
1, 143018, Note_on_c, 0, 51, 100
1, 143019, Note_on_c, 0, 39, 100
1, 143023, Note_on_c, 0, 56, 6
1, 143028, Note_on_c, 0, 49, 95
1, 143064, Note_off_c, 0, 56, 42
1, 143082, Note_off_c, 0, 49, 36
1, 143094, Poly_aftertouch_c, 0, 42, 127
1, 143095, Note_on_c, 0, 42, 3
1, 143139, Note_off_c, 0, 42, 47
1, 143139, Control_c, 0, 64, 64
1, 143154, Control_c, 0, 64, 0
1, 143211, Note_on_c, 0, 75, 110
1, 143211, Note_on_c, 0, 87, 111
1, 143228, Control_c, 0, 64, 40
1, 143241, Note_on_c, 0, 85, 47
1, 143242, Note_off_c, 0, 85, 127
1, 143243, Control_c, 0, 64, 98
1, 143258, Control_c, 0, 64, 127
1, 143383, Note_off_c, 0, 39, 57
1, 143398, Note_off_c, 0, 87, 61
1, 143409, Note_off_c, 0, 75, 59
1, 143414, Note_off_c, 0, 51, 58
1, 143717, Note_on_c, 0, 59, 102
1, 143718, Note_on_c, 0, 71, 102
1, 143726, Note_on_c, 0, 63, 91
1, 143729, Note_on_c, 0, 54, 89
1, 143886, Note_on_c, 0, 66, 73
1, 143890, Note_off_c, 0, 63, 57
1, 143907, Note_off_c, 0, 54, 57
1, 143909, Note_on_c, 0, 51, 61
1, 143963, Note_off_c, 0, 66, 61
1, 143976, Note_on_c, 0, 63, 69
1, 144000, Note_off_c, 0, 51, 59
1, 144010, Note_off_c, 0, 71, 58
1, 144022, Note_on_c, 0, 54, 62
1, 144028, Note_on_c, 0, 66, 63
1, 144068, Note_off_c, 0, 59, 58
1, 144078, Note_on_c, 0, 51, 60
1, 144088, Note_off_c, 0, 54, 57
1, 144167, Note_off_c, 0, 66, 59
1, 144170, Note_off_c, 0, 63, 60
1, 144203, Note_on_c, 0, 70, 103
1, 144204, Note_on_c, 0, 58, 100
1, 144221, Note_on_c, 0, 54, 74
1, 144225, Note_on_c, 0, 63, 46
1, 144239, Note_off_c, 0, 51, 59
1, 144255, Note_off_c, 0, 63, 53
1, 144330, Note_off_c, 0, 54, 59
1, 144331, Note_on_c, 0, 63, 78
1, 144348, Note_on_c, 0, 51, 66
1, 144409, Note_on_c, 0, 66, 68
1, 144416, Note_off_c, 0, 63, 59
1, 144418, Note_on_c, 0, 54, 68
1, 144421, Note_off_c, 0, 51, 59
1, 144474, Note_on_c, 0, 63, 60
1, 144483, Note_on_c, 0, 51, 58
1, 144502, Note_off_c, 0, 58, 58
1, 144503, Note_off_c, 0, 70, 58
1, 144505, Note_off_c, 0, 54, 57
1, 144544, Note_off_c, 0, 66, 59
1, 144582, Note_on_c, 0, 57, 100
1, 144583, Note_on_c, 0, 69, 101
1, 144593, Note_off_c, 0, 63, 0
1, 144593, Note_on_c, 0, 63, 37
1, 144604, Note_off_c, 0, 51, 58
1, 144611, Note_on_c, 0, 54, 68
1, 144620, Note_off_c, 0, 63, 53
1, 144693, Note_on_c, 0, 63, 74
1, 144696, Note_off_c, 0, 54, 60
1, 144708, Note_on_c, 0, 51, 62
1, 144755, Note_off_c, 0, 69, 62
1, 144766, Note_on_c, 0, 66, 74
1, 144775, Note_off_c, 0, 51, 58
1, 144782, Note_on_c, 0, 54, 60
1, 144785, Note_off_c, 0, 63, 61
1, 144841, Note_on_c, 0, 51, 66
1, 144847, Note_off_c, 0, 54, 60
1, 144873, Note_off_c, 0, 57, 54
1, 144881, Note_on_c, 0, 63, 60
1, 144919, Note_off_c, 0, 66, 45
1, 144946, Note_off_c, 0, 63, 63
1, 144982, Note_on_c, 0, 70, 101
1, 144986, Note_on_c, 0, 58, 100
1, 144988, Note_on_c, 0, 54, 87
1, 144999, Note_on_c, 0, 63, 75
1, 145018, Note_off_c, 0, 51, 59
1, 145084, Note_off_c, 0, 54, 61
1, 145085, Note_on_c, 0, 51, 64
1, 145091, Note_on_c, 0, 66, 80
1, 145103, Note_off_c, 0, 63, 58
1, 145160, Note_on_c, 0, 54, 80
1, 145163, Note_off_c, 0, 51, 59
1, 145168, Note_on_c, 0, 63, 70
1, 145199, Note_on_c, 0, 51, 55
1, 145225, Note_off_c, 0, 58, 60
1, 145245, Note_off_c, 0, 54, 58
1, 145300, Note_off_c, 0, 66, 53
1, 145351, Note_off_c, 0, 70, 54
1, 145361, Note_off_c, 0, 63, 63
1, 145373, Note_on_c, 0, 54, 109
1, 145413, Note_off_c, 0, 51, 53
1, 145485, Note_on_c, 0, 51, 63
1, 145515, Note_off_c, 0, 54, 60
1, 145568, Note_on_c, 0, 54, 82
1, 145580, Note_off_c, 0, 51, 59
1, 145633, Note_on_c, 0, 51, 79
1, 145658, Note_off_c, 0, 54, 60
1, 145694, Note_on_c, 0, 50, 45
1, 145697, Note_on_c, 0, 54, 86
1, 145719, Note_off_c, 0, 50, 56
1, 145729, Note_off_c, 0, 51, 58
1, 145746, Note_on_c, 0, 53, 26
1, 145786, Note_off_c, 0, 53, 45
1, 145863, Note_on_c, 0, 63, 121
1, 145932, Note_off_c, 0, 63, 69
1, 145961, Poly_aftertouch_c, 0, 68, 127
1, 145985, Note_off_c, 0, 54, 57
1, 146000, Poly_aftertouch_c, 0, 68, 0
1, 146266, Note_on_c, 0, 54, 109
1, 146266, Control_c, 0, 64, 114
1, 146269, Note_on_c, 0, 42, 98
1, 146282, Control_c, 0, 64, 68
1, 146296, Control_c, 0, 64, 0
1, 146378, Control_c, 0, 64, 65
1, 146393, Control_c, 0, 64, 91
1, 146404, Note_off_c, 0, 42, 59
1, 146408, Control_c, 0, 64, 127
1, 146431, Note_off_c, 0, 54, 60
1, 146451, Note_on_c, 0, 90, 114
1, 146451, Note_on_c, 0, 78, 117
1, 146486, Note_off_c, 0, 78, 66
1, 146498, Note_off_c, 0, 90, 64
1, 146584, Note_on_c, 0, 66, 109
1, 146627, Note_off_c, 0, 66, 66
1, 146686, Note_on_c, 0, 66, 95
1, 146695, Note_on_c, 0, 65, 83
1, 146715, Note_off_c, 0, 65, 68
1, 146724, Note_on_c, 0, 64, 32
1, 146725, Note_off_c, 0, 64, 127
1, 146725, Note_off_c, 0, 66, 62
1, 146758, Poly_aftertouch_c, 0, 64, 0
1, 146772, Note_on_c, 0, 53, 97
1, 146778, Control_c, 0, 64, 95
1, 146779, Note_on_c, 0, 41, 91
1, 146793, Control_c, 0, 64, 66
1, 146800, Note_on_c, 0, 44, 57
1, 146808, Control_c, 0, 64, 49
1, 146819, Note_on_c, 0, 49, 19
1, 146819, Note_off_c, 0, 41, 61
1, 146823, Control_c, 0, 64, 60
1, 146828, Note_off_c, 0, 44, 36
1, 146832, Note_off_c, 0, 53, 59
1, 146838, Control_c, 0, 64, 72
1, 146853, Control_c, 0, 64, 99
1, 146859, Note_off_c, 0, 49, 30
1, 146868, Control_c, 0, 64, 127
1, 146880, Note_on_c, 0, 77, 111
1, 146880, Note_on_c, 0, 89, 101
1, 146910, Note_on_c, 0, 88, 62
1, 146910, Note_off_c, 0, 77, 68
1, 146913, Note_off_c, 0, 89, 69
1, 146935, Note_off_c, 0, 88, 39
1, 146968, Note_on_c, 0, 65, 96
1, 147005, Note_off_c, 0, 65, 63
1, 147041, Note_on_c, 0, 65, 102
1, 147077, Note_off_c, 0, 65, 67
1, 147127, Control_c, 0, 64, 87
1, 147140, Note_on_c, 0, 51, 109
1, 147142, Control_c, 0, 64, 55
1, 147143, Note_on_c, 0, 39, 99
1, 147157, Control_c, 0, 64, 0
1, 147171, Control_c, 0, 64, 43
1, 147179, Note_off_c, 0, 51, 62
1, 147181, Note_off_c, 0, 39, 59
1, 147186, Control_c, 0, 64, 68
1, 147201, Control_c, 0, 64, 95
1, 147216, Control_c, 0, 64, 127
1, 147229, Note_on_c, 0, 75, 104
1, 147229, Note_on_c, 0, 87, 104
1, 147257, Note_off_c, 0, 75, 68
1, 147271, Note_off_c, 0, 87, 63
1, 147324, Note_on_c, 0, 63, 99
1, 147359, Note_off_c, 0, 63, 66
1, 147404, Note_on_c, 0, 61, 100
1, 147438, Note_off_c, 0, 61, 67
1, 147482, Control_c, 0, 64, 80
1, 147491, Note_on_c, 0, 49, 107
1, 147494, Note_on_c, 0, 37, 88
1, 147498, Control_c, 0, 64, 52
1, 147510, Note_on_c, 0, 39, 64
1, 147513, Control_c, 0, 64, 0
1, 147521, Note_off_c, 0, 37, 66
1, 147528, Control_c, 0, 64, 53
1, 147531, Note_off_c, 0, 49, 63
1, 147533, Note_off_c, 0, 39, 61
1, 147542, Control_c, 0, 64, 73
1, 147557, Control_c, 0, 64, 127
1, 147583, Note_on_c, 0, 85, 107
1, 147583, Note_on_c, 0, 73, 111
1, 147614, Note_off_c, 0, 73, 67
1, 147621, Note_off_c, 0, 85, 64
1, 147669, Note_on_c, 0, 61, 104
1, 147713, Note_off_c, 0, 61, 66
1, 147717, Note_on_c, 0, 63, 28
1, 147750, Note_off_c, 0, 63, 56
1, 147750, Note_on_c, 0, 61, 100
1, 147783, Note_off_c, 0, 61, 69
1, 147838, Control_c, 0, 64, 97
1, 147839, Note_on_c, 0, 48, 101
1, 147846, Note_on_c, 0, 36, 93
1, 147853, Control_c, 0, 64, 63
1, 147873, Note_on_c, 0, 42, 59
1, 147875, Control_c, 0, 64, 0
1, 147887, Note_off_c, 0, 48, 61
1, 147896, Note_off_c, 0, 36, 61
1, 147902, Note_off_c, 0, 42, 36
1, 147905, Control_c, 0, 64, 47
1, 147919, Control_c, 0, 64, 74
1, 147934, Control_c, 0, 64, 127
1, 147948, Note_on_c, 0, 84, 103
1, 147953, Note_on_c, 0, 72, 104
1, 147982, Note_off_c, 0, 72, 69
1, 147986, Note_off_c, 0, 84, 68
1, 147996, Note_on_c, 0, 74, 18
1, 148030, Note_off_c, 0, 74, 53
1, 148033, Note_on_c, 0, 62, 98
1, 148043, Poly_aftertouch_c, 0, 83, 127
1, 148061, Poly_aftertouch_c, 0, 83, 0
1, 148066, Note_off_c, 0, 62, 63
1, 148121, Note_on_c, 0, 60, 117
1, 148153, Note_off_c, 0, 60, 68
1, 148235, Note_on_c, 0, 46, 103
1, 148236, Note_on_c, 0, 34, 93
1, 148263, Note_on_c, 0, 37, 43
1, 148302, Note_off_c, 0, 37, 53
1, 148349, Control_c, 0, 64, 78
1, 148364, Control_c, 0, 64, 23
1, 148379, Control_c, 0, 64, 0
1, 148424, Note_on_c, 0, 82, 103
1, 148426, Note_on_c, 0, 70, 109
1, 148439, Control_c, 0, 64, 58
1, 148454, Control_c, 0, 64, 81
1, 148469, Control_c, 0, 64, 127
1, 148491, Note_on_c, 0, 80, 11
1, 148513, Poly_aftertouch_c, 0, 83, 127
1, 148526, Note_off_c, 0, 34, 58
1, 148529, Note_off_c, 0, 80, 50
1, 148542, Poly_aftertouch_c, 0, 83, 0
1, 148554, Note_off_c, 0, 46, 61
1, 148582, Note_off_c, 0, 82, 62
1, 148624, Note_off_c, 0, 70, 57
1, 148889, Note_on_c, 0, 54, 113
1, 148931, Note_on_c, 0, 58, 78
1, 148934, Note_on_c, 0, 61, 61
1, 148987, Note_off_c, 0, 58, 54
1, 148990, Note_off_c, 0, 61, 60
1, 149031, Note_on_c, 0, 66, 63
1, 149053, Note_on_c, 0, 49, 65
1, 149111, Note_on_c, 0, 61, 64
1, 149118, Note_off_c, 0, 66, 59
1, 149122, Note_on_c, 0, 58, 57
1, 149139, Note_off_c, 0, 54, 0
1, 149163, Note_off_c, 0, 58, 58
1, 149167, Note_off_c, 0, 49, 58
1, 149175, Poly_aftertouch_c, 0, 54, 127
1, 149184, Note_on_c, 0, 66, 70
1, 149185, Note_off_c, 0, 61, 60
1, 149248, Note_on_c, 0, 58, 68
1, 149249, Note_on_c, 0, 49, 59
1, 149253, Note_on_c, 0, 61, 67
1, 149268, Poly_aftertouch_c, 0, 54, 0
1, 149291, Note_off_c, 0, 66, 59
1, 149331, Note_off_c, 0, 49, 59
1, 149333, Note_off_c, 0, 58, 58
1, 149343, Note_on_c, 0, 53, 104
1, 149375, Note_on_c, 0, 65, 76
1, 149379, Note_off_c, 0, 61, 62
1, 149455, Note_on_c, 0, 61, 64
1, 149464, Note_off_c, 0, 65, 58
1, 149468, Note_on_c, 0, 58, 60
1, 149482, Note_on_c, 0, 49, 67
1, 149506, Note_off_c, 0, 53, 54
1, 149510, Note_off_c, 0, 58, 59
1, 149518, Note_on_c, 0, 65, 66
1, 149536, Note_off_c, 0, 61, 60
1, 149555, Note_on_c, 0, 53, 60
1, 149582, Note_off_c, 0, 49, 59
1, 149589, Note_on_c, 0, 61, 56
1, 149593, Note_on_c, 0, 58, 68
1, 149624, Note_off_c, 0, 65, 55
1, 149630, Note_on_c, 0, 49, 52
1, 149643, Note_off_c, 0, 53, 63
1, 149680, Note_off_c, 0, 58, 60
1, 149713, Control_c, 0, 64, 110
1, 149715, Note_on_c, 0, 64, 65
1, 149718, Note_off_c, 0, 49, 59
1, 149724, Note_on_c, 0, 52, 103
1, 149728, Control_c, 0, 64, 72
1, 149743, Control_c, 0, 64, 54
1, 149745, Note_off_c, 0, 61, 0
1, 149757, Control_c, 0, 64, 49
1, 149772, Control_c, 0, 64, 58
1, 149779, Note_on_c, 0, 61, 14
1, 149782, Note_off_c, 0, 64, 60
1, 149787, Control_c, 0, 64, 67
1, 149801, Note_on_c, 0, 58, 54
1, 149802, Control_c, 0, 64, 85
1, 149817, Control_c, 0, 64, 127
1, 149829, Note_on_c, 0, 49, 78
1, 149834, Note_off_c, 0, 58, 64
1, 149848, Note_on_c, 0, 64, 62
1, 149856, Note_off_c, 0, 52, 60
1, 149915, Note_on_c, 0, 58, 67
1, 149928, Note_on_c, 0, 52, 74
1, 149936, Note_off_c, 0, 49, 58
1, 149973, Note_off_c, 0, 64, 0
1, 149992, Note_on_c, 0, 49, 57
1, 149995, Note_on_c, 0, 64, 31
1, 150017, Note_off_c, 0, 52, 61
1, 150020, Note_off_c, 0, 58, 60
1, 150065, Note_off_c, 0, 49, 60
1, 150070, Control_c, 0, 64, 91
1, 150081, Note_off_c, 0, 61, 40
1, 150085, Control_c, 0, 64, 67
1, 150086, Note_on_c, 0, 53, 95
1, 150090, Note_off_c, 0, 64, 60
1, 150100, Control_c, 0, 64, 56
1, 150122, Control_c, 0, 64, 63
1, 150131, Note_on_c, 0, 58, 65
1, 150137, Control_c, 0, 64, 73
1, 150152, Control_c, 0, 64, 107
1, 150158, Note_on_c, 0, 49, 69
1, 150167, Control_c, 0, 64, 127
1, 150184, Note_off_c, 0, 53, 61
1, 150189, Note_on_c, 0, 61, 22
1, 150196, Note_off_c, 0, 58, 52
1, 150208, Note_on_c, 0, 65, 58
1, 150246, Note_on_c, 0, 53, 69
1, 150257, Note_off_c, 0, 61, 0
1, 150275, Note_on_c, 0, 58, 61
1, 150281, Note_on_c, 0, 61, 29
1, 150284, Note_off_c, 0, 53, 63
1, 150290, Note_off_c, 0, 49, 60
1, 150291, Note_off_c, 0, 65, 0
1, 150305, Note_on_c, 0, 65, 46
1, 150310, Note_off_c, 0, 58, 65
1, 150325, Note_off_c, 0, 61, 62
1, 150341, Note_off_c, 0, 65, 63
1, 150438, Note_on_c, 0, 46, 79
1, 150439, Note_on_c, 0, 34, 77
1, 150448, Control_c, 0, 64, 82
1, 150463, Control_c, 0, 64, 59
1, 150478, Control_c, 0, 64, 0
1, 150493, Control_c, 0, 64, 39
1, 150507, Control_c, 0, 64, 64
1, 150508, Note_off_c, 0, 34, 62
1, 150516, Note_off_c, 0, 46, 63
1, 150522, Control_c, 0, 64, 80
1, 150537, Control_c, 0, 64, 127
1, 150559, Note_on_c, 0, 82, 80
1, 150571, Note_on_c, 0, 70, 73
1, 150592, Note_off_c, 0, 82, 54
1, 150597, Note_off_c, 0, 70, 66
1, 150654, Note_on_c, 0, 61, 75
1, 150658, Note_on_c, 0, 53, 64
1, 150680, Note_off_c, 0, 61, 67
1, 150692, Note_off_c, 0, 53, 64
1, 150737, Note_on_c, 0, 65, 74
1, 150743, Note_on_c, 0, 61, 74
1, 150766, Note_off_c, 0, 61, 69
1, 150785, Note_off_c, 0, 65, 58
1, 150886, Note_on_c, 0, 50, 32
1, 150886, Control_c, 0, 64, 73
1, 150889, Note_on_c, 0, 36, 39
1, 150893, Note_on_c, 0, 48, 44
1, 150897, Note_on_c, 0, 38, 31
1, 150901, Control_c, 0, 64, 42
1, 150916, Control_c, 0, 64, 0
1, 150920, Note_off_c, 0, 50, 42
1, 150958, Note_off_c, 0, 36, 62
1, 150961, Control_c, 0, 64, 52
1, 150976, Control_c, 0, 64, 72
1, 150976, Note_off_c, 0, 48, 61
1, 150990, Note_on_c, 0, 82, 75
1, 150990, Control_c, 0, 64, 127
1, 150997, Note_on_c, 0, 70, 76
1, 151014, Note_off_c, 0, 38, 35
1, 151017, Note_on_c, 0, 80, 49
1, 151039, Note_off_c, 0, 70, 52
1, 151040, Note_off_c, 0, 80, 60
1, 151056, Note_off_c, 0, 82, 62
1, 151148, Note_on_c, 0, 63, 60
1, 151155, Note_on_c, 0, 54, 54
1, 151180, Note_off_c, 0, 63, 64
1, 151201, Note_off_c, 0, 54, 61
1, 151250, Note_on_c, 0, 66, 56
1, 151264, Note_on_c, 0, 63, 40
1, 151283, Note_off_c, 0, 66, 63
1, 151299, Note_off_c, 0, 63, 50
1, 151345, Note_on_c, 0, 39, 48
1, 151345, Note_on_c, 0, 51, 54
1, 151373, Note_off_c, 0, 51, 54
1, 151377, Note_off_c, 0, 39, 52
1, 151394, Note_on_c, 0, 79, 81
1, 151399, Poly_aftertouch_c, 0, 42, 127
1, 151411, Note_on_c, 0, 67, 63
1, 151420, Note_off_c, 0, 79, 63
1, 151429, Note_off_c, 0, 67, 64
1, 151437, Poly_aftertouch_c, 0, 42, 0
1, 151499, Note_on_c, 0, 63, 71
1, 151510, Note_on_c, 0, 54, 57
1, 151527, Note_off_c, 0, 63, 66
1, 151550, Note_off_c, 0, 54, 61
1, 151556, Note_on_c, 0, 66, 72
1, 151581, Note_on_c, 0, 63, 27
1, 151584, Note_off_c, 0, 66, 64
1, 151618, Note_off_c, 0, 63, 56
1, 151656, Note_on_c, 0, 44, 80
1, 151659, Note_on_c, 0, 56, 81
1, 151691, Note_off_c, 0, 56, 59
1, 151694, Note_off_c, 0, 44, 62
1, 151727, Note_on_c, 0, 80, 89
1, 151734, Note_on_c, 0, 68, 87
1, 151757, Note_off_c, 0, 68, 67
1, 151778, Note_off_c, 0, 80, 62
1, 151804, Note_on_c, 0, 60, 72
1, 151817, Note_on_c, 0, 54, 69
1, 151833, Note_off_c, 0, 60, 64
1, 151842, Note_off_c, 0, 54, 64
1, 151871, Note_on_c, 0, 63, 81
1, 151876, Note_on_c, 0, 66, 78
1, 151892, Note_off_c, 0, 63, 68
1, 151899, Note_off_c, 0, 66, 67
1, 151974, Note_on_c, 0, 48, 82
1, 151976, Note_on_c, 0, 36, 79
1, 151990, Control_c, 0, 64, 103
1, 152005, Control_c, 0, 64, 71
1, 152020, Control_c, 0, 64, 20
1, 152034, Control_c, 0, 64, 0
1, 152061, Note_off_c, 0, 36, 64
1, 152079, Control_c, 0, 64, 66
1, 152087, Note_on_c, 0, 81, 91
1, 152089, Note_off_c, 0, 48, 62
1, 152093, Control_c, 0, 64, 80
1, 152095, Note_on_c, 0, 69, 86
1, 152108, Control_c, 0, 64, 127
1, 152123, Note_off_c, 0, 69, 63
1, 152137, Note_off_c, 0, 81, 62
1, 152240, Note_on_c, 0, 63, 65
1, 152244, Note_on_c, 0, 54, 63
1, 152272, Note_off_c, 0, 63, 64
1, 152280, Note_off_c, 0, 54, 62
1, 152313, Note_on_c, 0, 66, 67
1, 152320, Note_on_c, 0, 63, 62
1, 152346, Note_off_c, 0, 66, 62
1, 152359, Note_off_c, 0, 63, 64
1, 152400, Note_on_c, 0, 39, 77
1, 152403, Note_on_c, 0, 51, 78
1, 152433, Note_off_c, 0, 39, 64
1, 152434, Note_off_c, 0, 51, 62
1, 152472, Note_on_c, 0, 79, 95
1, 152480, Note_on_c, 0, 67, 87
1, 152508, Note_off_c, 0, 67, 62
1, 152511, Note_off_c, 0, 79, 66
1, 152582, Note_on_c, 0, 63, 78
1, 152594, Note_on_c, 0, 54, 62
1, 152608, Note_off_c, 0, 63, 64
1, 152635, Note_on_c, 0, 66, 76
1, 152635, Note_off_c, 0, 54, 61
1, 152638, Note_on_c, 0, 63, 50
1, 152667, Note_off_c, 0, 66, 58
1, 152670, Note_off_c, 0, 63, 64
1, 152734, Note_on_c, 0, 44, 85
1, 152740, Note_on_c, 0, 56, 78
1, 152770, Note_off_c, 0, 56, 62
1, 152779, Note_off_c, 0, 44, 59
1, 152800, Note_on_c, 0, 80, 94
1, 152804, Note_on_c, 0, 68, 96
1, 152845, Note_off_c, 0, 68, 59
1, 152850, Note_off_c, 0, 80, 63
1, 152878, Note_on_c, 0, 60, 83
1, 152891, Note_on_c, 0, 54, 78
1, 152902, Note_off_c, 0, 60, 65
1, 152925, Note_off_c, 0, 54, 64
1, 152941, Note_on_c, 0, 63, 84
1, 152941, Note_on_c, 0, 66, 88
1, 152963, Note_off_c, 0, 63, 67
1, 152967, Note_off_c, 0, 66, 63
1, 153055, Note_on_c, 0, 37, 83
1, 153062, Note_on_c, 0, 49, 87
1, 153089, Note_on_c, 0, 39, 44
1, 153136, Note_off_c, 0, 39, 49
1, 153163, Control_c, 0, 64, 81
1, 153178, Control_c, 0, 64, 58
1, 153193, Control_c, 0, 64, 0
1, 153226, Note_on_c, 0, 88, 97
1, 153231, Note_on_c, 0, 76, 88
1, 153266, Control_c, 0, 64, 66
1, 153281, Control_c, 0, 64, 81
1, 153296, Control_c, 0, 64, 127
1, 153301, Note_off_c, 0, 37, 60
1, 153327, Note_off_c, 0, 88, 67
1, 153328, Note_off_c, 0, 49, 59
1, 153342, Note_off_c, 0, 76, 61
1, 153477, Note_on_c, 0, 60, 64
1, 153490, Note_on_c, 0, 52, 44
1, 153500, Note_on_c, 0, 56, 41
1, 153516, Note_off_c, 0, 60, 59
1, 153521, Note_off_c, 0, 52, 56
1, 153521, Note_on_c, 0, 64, 58
1, 153529, Note_off_c, 0, 56, 58
1, 153531, Note_on_c, 0, 71, 48
1, 153552, Note_off_c, 0, 64, 66
1, 153555, Note_off_c, 0, 71, 57
1, 153608, Note_on_c, 0, 60, 68
1, 153611, Note_on_c, 0, 52, 67
1, 153621, Note_on_c, 0, 64, 65
1, 153626, Note_on_c, 0, 56, 45
1, 153638, Note_off_c, 0, 60, 62
1, 153639, Note_on_c, 0, 72, 49
1, 153644, Note_off_c, 0, 52, 62
1, 153652, Note_off_c, 0, 64, 63
1, 153654, Note_off_c, 0, 56, 57
1, 153661, Note_off_c, 0, 72, 57
1, 153669, Poly_aftertouch_c, 0, 68, 127
1, 153696, Poly_aftertouch_c, 0, 71, 0
1, 153705, Poly_aftertouch_c, 0, 68, 0
1, 153716, Note_on_c, 0, 60, 63
1, 153721, Poly_aftertouch_c, 0, 71, 0
1, 153724, Note_on_c, 0, 52, 59
1, 153725, Poly_aftertouch_c, 0, 68, 0
1, 153727, Note_on_c, 0, 72, 74
1, 153735, Note_on_c, 0, 56, 47
1, 153745, Note_off_c, 0, 60, 62
1, 153748, Note_on_c, 0, 64, 45
1, 153750, Note_off_c, 0, 72, 68
1, 153761, Note_off_c, 0, 56, 59
1, 153762, Poly_aftertouch_c, 0, 68, 127
1, 153764, Note_off_c, 0, 52, 56
1, 153777, Note_off_c, 0, 64, 53
1, 153791, Poly_aftertouch_c, 0, 68, 0
1, 153807, Note_on_c, 0, 60, 64
1, 153809, Note_on_c, 0, 52, 54
1, 153810, Note_on_c, 0, 68, 38
1, 153818, Note_on_c, 0, 64, 55
1, 153818, Note_on_c, 0, 72, 80
1, 153820, Note_on_c, 0, 56, 64
1, 153846, Note_off_c, 0, 72, 63
1, 153847, Note_off_c, 0, 60, 57
1, 153860, Note_off_c, 0, 64, 63
1, 153864, Note_off_c, 0, 56, 60
1, 153869, Note_off_c, 0, 52, 61
1, 153869, Note_off_c, 0, 68, 61
1, 153915, Note_on_c, 0, 52, 59
1, 153917, Note_on_c, 0, 72, 85
1, 153918, Note_on_c, 0, 60, 69
1, 153924, Note_on_c, 0, 68, 54
1, 153936, Note_on_c, 0, 64, 48
1, 153937, Note_on_c, 0, 56, 61
1, 153948, Note_off_c, 0, 72, 58
1, 153952, Note_off_c, 0, 60, 55
1, 153956, Note_off_c, 0, 68, 64
1, 153961, Note_off_c, 0, 56, 62
1, 153966, Note_off_c, 0, 64, 54
1, 153999, Note_on_c, 0, 64, 64
1, 154000, Note_on_c, 0, 72, 80
1, 154004, Poly_aftertouch_c, 0, 60, 0
1, 154008, Note_on_c, 0, 68, 71
1, 154011, Note_on_c, 0, 56, 74
1, 154031, Note_off_c, 0, 64, 65
1, 154034, Note_off_c, 0, 68, 66
1, 154035, Note_off_c, 0, 56, 64
1, 154036, Note_off_c, 0, 72, 64
1, 154040, Note_off_c, 0, 52, 60
1, 154159, Note_on_c, 0, 37, 81
1, 154163, Control_c, 0, 64, 79
1, 154172, Note_on_c, 0, 49, 74
1, 154178, Control_c, 0, 64, 59
1, 154193, Control_c, 0, 64, 0
1, 154223, Control_c, 0, 64, 51
1, 154237, Control_c, 0, 64, 70
1, 154247, Note_on_c, 0, 89, 91
1, 154252, Control_c, 0, 64, 127
1, 154253, Note_on_c, 0, 77, 87
1, 154263, Note_off_c, 0, 37, 59
1, 154273, Note_off_c, 0, 49, 61
1, 154299, Note_off_c, 0, 89, 64
1, 154307, Note_off_c, 0, 77, 62
1, 154413, Note_on_c, 0, 61, 63
1, 154417, Note_on_c, 0, 53, 54
1, 154434, Note_on_c, 0, 56, 46
1, 154449, Note_off_c, 0, 61, 63
1, 154464, Note_on_c, 0, 68, 56
1, 154464, Note_off_c, 0, 53, 61
1, 154464, Note_off_c, 0, 56, 60
1, 154466, Note_on_c, 0, 73, 57
1, 154471, Note_on_c, 0, 65, 43
1, 154486, Note_off_c, 0, 68, 62
1, 154486, Note_off_c, 0, 73, 63
1, 154497, Note_off_c, 0, 65, 54
1, 154526, Note_on_c, 0, 61, 65
1, 154528, Note_on_c, 0, 53, 68
1, 154554, Note_on_c, 0, 73, 74
1, 154558, Note_off_c, 0, 61, 63
1, 154559, Note_on_c, 0, 65, 49
1, 154572, Note_on_c, 0, 68, 51
1, 154577, Note_on_c, 0, 56, 24
1, 154577, Note_off_c, 0, 73, 68
1, 154580, Note_off_c, 0, 53, 60
1, 154591, Note_off_c, 0, 65, 60
1, 154608, Note_off_c, 0, 68, 56
1, 154627, Note_on_c, 0, 53, 58
1, 154632, Note_on_c, 0, 61, 72
1, 154634, Note_off_c, 0, 56, 0
1, 154652, Note_on_c, 0, 56, 32
1, 154655, Note_on_c, 0, 73, 76
1, 154656, Note_on_c, 0, 68, 48
1, 154657, Note_on_c, 0, 65, 39
1, 154670, Note_off_c, 0, 61, 62
1, 154678, Note_off_c, 0, 73, 67
1, 154685, Note_off_c, 0, 68, 57
1, 154687, Note_off_c, 0, 56, 49
1, 154687, Note_off_c, 0, 65, 54
1, 154704, Note_off_c, 0, 53, 0
1, 154722, Note_on_c, 0, 61, 76
1, 154723, Note_on_c, 0, 53, 42
1, 154734, Note_on_c, 0, 65, 56
1, 154737, Note_on_c, 0, 73, 86
1, 154742, Note_off_c, 0, 61, 69
1, 154745, Note_on_c, 0, 68, 57
1, 154751, Note_on_c, 0, 56, 58
1, 154757, Note_off_c, 0, 65, 60
1, 154765, Note_off_c, 0, 53, 64
1, 154766, Note_off_c, 0, 68, 63
1, 154773, Note_off_c, 0, 56, 60
1, 154776, Note_off_c, 0, 73, 65
1, 154869, Note_on_c, 0, 41, 86
1, 154873, Note_on_c, 0, 53, 79
1, 154906, Note_off_c, 0, 53, 61
1, 154912, Note_off_c, 0, 41, 61
1, 154934, Note_on_c, 0, 85, 93
1, 154942, Note_on_c, 0, 73, 87
1, 154970, Note_off_c, 0, 73, 60
1, 154977, Note_off_c, 0, 85, 67
1, 155032, Note_on_c, 0, 61, 83
1, 155052, Note_on_c, 0, 54, 67
1, 155059, Note_off_c, 0, 61, 64
1, 155073, Note_on_c, 0, 65, 78
1, 155076, Note_on_c, 0, 68, 85
1, 155087, Note_off_c, 0, 54, 61
1, 155098, Note_off_c, 0, 65, 66
1, 155118, Note_off_c, 0, 68, 58
1, 155189, Note_on_c, 0, 48, 89
1, 155199, Note_on_c, 0, 36, 84
1, 155208, Control_c, 0, 64, 73
1, 155223, Control_c, 0, 64, 28
1, 155226, Note_on_c, 0, 44, 32
1, 155238, Control_c, 0, 64, 0
1, 155263, Note_off_c, 0, 44, 32
1, 155268, Control_c, 0, 64, 59
1, 155275, Note_off_c, 0, 36, 64
1, 155281, Note_on_c, 0, 82, 98
1, 155283, Control_c, 0, 64, 76
1, 155286, Note_on_c, 0, 70, 93
1, 155288, Note_off_c, 0, 48, 49
1, 155297, Control_c, 0, 64, 127
1, 155362, Note_off_c, 0, 82, 61
1, 155375, Note_off_c, 0, 70, 57
1, 155449, Note_on_c, 0, 63, 65
1, 155456, Note_on_c, 0, 54, 62
1, 155480, Note_off_c, 0, 63, 0
1, 155494, Note_off_c, 0, 54, 62
1, 155508, Note_on_c, 0, 66, 74
1, 155518, Poly_aftertouch_c, 0, 63, 127
1, 155529, Poly_aftertouch_c, 0, 63, 0
1, 155537, Note_off_c, 0, 66, 63
1, 155596, Note_on_c, 0, 39, 84
1, 155596, Note_on_c, 0, 51, 86
1, 155628, Note_off_c, 0, 39, 63
1, 155633, Note_off_c, 0, 51, 60
1, 155645, Note_on_c, 0, 79, 98
1, 155646, Note_on_c, 0, 67, 100
1, 155678, Note_off_c, 0, 79, 68
1, 155680, Note_off_c, 0, 67, 65
1, 155750, Note_on_c, 0, 63, 82
1, 155754, Note_on_c, 0, 54, 71
1, 155775, Note_off_c, 0, 63, 0
1, 155806, Note_on_c, 0, 66, 49
1, 155811, Note_off_c, 0, 54, 58
1, 155811, Poly_aftertouch_c, 0, 63, 127
1, 155825, Poly_aftertouch_c, 0, 63, 0
1, 155831, Note_off_c, 0, 66, 57
1, 155872, Poly_aftertouch_c, 0, 70, 127
1, 155888, Note_on_c, 0, 44, 90
1, 155894, Note_on_c, 0, 56, 92
1, 155903, Poly_aftertouch_c, 0, 70, 0
1, 155936, Note_off_c, 0, 56, 58
1, 155942, Note_off_c, 0, 44, 61
1, 155945, Note_on_c, 0, 80, 101
1, 155946, Note_on_c, 0, 68, 102
1, 155985, Note_off_c, 0, 68, 63
1, 155987, Note_on_c, 0, 78, 30
1, 155990, Note_off_c, 0, 80, 64
1, 156017, Note_off_c, 0, 78, 55
1, 156027, Note_on_c, 0, 60, 87
1, 156031, Note_on_c, 0, 54, 86
1, 156049, Note_off_c, 0, 60, 67
1, 156058, Note_off_c, 0, 54, 60
1, 156076, Note_on_c, 0, 63, 93
1, 156083, Note_on_c, 0, 66, 91
1, 156113, Note_off_c, 0, 66, 67
1, 156116, Note_off_c, 0, 63, 61
1, 156126, Poly_aftertouch_c, 0, 53, 127
1, 156162, Poly_aftertouch_c, 0, 53, 0
1, 156187, Note_on_c, 0, 48, 97
1, 156192, Note_on_c, 0, 36, 91
1, 156216, Control_c, 0, 64, 74
1, 156231, Control_c, 0, 64, 0
1, 156266, Note_off_c, 0, 36, 63
1, 156276, Control_c, 0, 64, 55
1, 156285, Note_on_c, 0, 69, 101
1, 156287, Note_on_c, 0, 81, 103
1, 156291, Control_c, 0, 64, 72
1, 156301, Note_off_c, 0, 48, 61
1, 156305, Control_c, 0, 64, 101
1, 156320, Control_c, 0, 64, 127
1, 156325, Note_off_c, 0, 69, 67
1, 156336, Note_off_c, 0, 81, 64
1, 156432, Note_on_c, 0, 63, 84
1, 156438, Note_on_c, 0, 54, 70
1, 156455, Note_off_c, 0, 63, 68
1, 156481, Note_off_c, 0, 54, 59
1, 156485, Note_on_c, 0, 63, 76
1, 156493, Note_on_c, 0, 66, 80
1, 156514, Note_off_c, 0, 63, 62
1, 156532, Note_off_c, 0, 66, 57
1, 156569, Note_on_c, 0, 51, 92
1, 156571, Note_on_c, 0, 39, 92
1, 156598, Note_off_c, 0, 39, 65
1, 156606, Note_off_c, 0, 51, 58
1, 156627, Note_on_c, 0, 79, 104
1, 156628, Note_on_c, 0, 67, 105
1, 156661, Note_off_c, 0, 79, 71
1, 156663, Poly_aftertouch_c, 0, 42, 127
1, 156664, Note_off_c, 0, 67, 66
1, 156699, Poly_aftertouch_c, 0, 42, 0
1, 156724, Note_on_c, 0, 63, 89
1, 156732, Note_on_c, 0, 54, 77
1, 156778, Note_on_c, 0, 65, 86
1, 156791, Note_off_c, 0, 54, 59
1, 156803, Note_off_c, 0, 65, 62
1, 156803, Note_off_c, 0, 63, 63
1, 156866, Note_on_c, 0, 44, 90
1, 156871, Note_on_c, 0, 56, 91
1, 156911, Note_off_c, 0, 56, 61
1, 156913, Note_off_c, 0, 44, 63
1, 156927, Note_on_c, 0, 68, 108
1, 156929, Note_on_c, 0, 80, 97
1, 156940, Note_on_c, 0, 78, 85
1, 156954, Note_off_c, 0, 78, 72
1, 156964, Note_off_c, 0, 68, 64
1, 156970, Note_off_c, 0, 80, 65
1, 156999, Note_on_c, 0, 60, 96
1, 157006, Note_on_c, 0, 54, 96
1, 157037, Note_off_c, 0, 60, 61
1, 157048, Note_off_c, 0, 54, 63
1, 157052, Note_on_c, 0, 63, 100
1, 157058, Note_on_c, 0, 66, 91
1, 157085, Note_off_c, 0, 63, 65
1, 157095, Note_off_c, 0, 66, 66
1, 157161, Poly_aftertouch_c, 0, 73, 0
1, 157164, Note_on_c, 0, 37, 89
1, 157169, Note_on_c, 0, 49, 98
1, 157205, Note_on_c, 0, 39, 41
1, 157232, Control_c, 0, 64, 83
1, 157235, Note_off_c, 0, 39, 52
1, 157247, Control_c, 0, 64, 53
1, 157262, Control_c, 0, 64, 0
1, 157299, Note_on_c, 0, 88, 112
1, 157301, Note_on_c, 0, 76, 106
1, 157322, Control_c, 0, 64, 66
1, 157337, Control_c, 0, 64, 83
1, 157352, Control_c, 0, 64, 127
1, 157363, Note_off_c, 0, 37, 60
1, 157385, Note_off_c, 0, 49, 60
1, 157405, Note_off_c, 0, 88, 65
1, 157414, Note_off_c, 0, 76, 60
1, 157518, Note_on_c, 0, 60, 76
1, 157528, Note_on_c, 0, 52, 61
1, 157533, Note_on_c, 0, 56, 55
1, 157551, Note_off_c, 0, 60, 60
1, 157563, Note_off_c, 0, 52, 60
1, 157566, Note_on_c, 0, 72, 78
1, 157568, Note_on_c, 0, 64, 73
1, 157569, Note_off_c, 0, 56, 61
1, 157587, Note_on_c, 0, 68, 43
1, 157590, Note_off_c, 0, 72, 68
1, 157602, Note_off_c, 0, 64, 69
1, 157623, Note_off_c, 0, 68, 57
1, 157641, Note_on_c, 0, 52, 75
1, 157641, Note_on_c, 0, 60, 73
1, 157657, Note_on_c, 0, 72, 86
1, 157662, Note_on_c, 0, 64, 73
1, 157669, Note_on_c, 0, 56, 47
1, 157671, Note_off_c, 0, 60, 57
1, 157679, Note_off_c, 0, 52, 57
1, 157680, Note_off_c, 0, 72, 63
1, 157688, Note_off_c, 0, 64, 69
1, 157693, Note_off_c, 0, 56, 59
1, 157725, Poly_aftertouch_c, 0, 68, 127
1, 157730, Note_on_c, 0, 60, 83
1, 157732, Note_on_c, 0, 52, 79
1, 157735, Note_on_c, 0, 72, 93
1, 157737, Note_on_c, 0, 64, 87
1, 157740, Note_on_c, 0, 56, 85
1, 157751, Note_off_c, 0, 60, 65
1, 157759, Note_off_c, 0, 64, 68
1, 157777, Note_off_c, 0, 56, 62
1, 157778, Note_off_c, 0, 52, 64
1, 157788, Note_off_c, 0, 72, 65
1, 157802, Poly_aftertouch_c, 0, 68, 0
1, 157847, Control_c, 0, 64, 75
1, 157862, Control_c, 0, 64, 0
1, 157874, Note_on_c, 0, 49, 99
1, 157875, Note_on_c, 0, 37, 94
1, 157893, Control_c, 0, 64, 43
1, 157908, Control_c, 0, 64, 77
1, 157922, Control_c, 0, 64, 127
1, 157933, Note_off_c, 0, 37, 61
1, 157949, Note_off_c, 0, 49, 60
1, 157951, Note_on_c, 0, 77, 109
1, 157953, Note_on_c, 0, 89, 99
1, 157981, Note_on_c, 0, 88, 67
1, 157985, Note_off_c, 0, 77, 67
1, 157991, Note_off_c, 0, 89, 68
1, 158002, Note_off_c, 0, 88, 61
1, 158011, Poly_aftertouch_c, 0, 39, 0
1, 158062, Note_on_c, 0, 61, 94
1, 158102, Note_off_c, 0, 61, 64
1, 158118, Note_on_c, 0, 65, 94
1, 158122, Note_on_c, 0, 73, 92
1, 158123, Note_on_c, 0, 68, 90
1, 158151, Note_off_c, 0, 65, 61
1, 158164, Note_off_c, 0, 68, 58
1, 158167, Note_off_c, 0, 73, 64
1, 158204, Control_c, 0, 64, 117
1, 158207, Note_on_c, 0, 50, 104
1, 158211, Note_on_c, 0, 38, 94
1, 158219, Control_c, 0, 64, 65
1, 158229, Note_on_c, 0, 39, 66
1, 158230, Note_on_c, 0, 44, 59
1, 158234, Control_c, 0, 64, 0
1, 158255, Note_off_c, 0, 39, 37
1, 158255, Note_off_c, 0, 44, 60
1, 158257, Note_off_c, 0, 50, 60
1, 158261, Note_off_c, 0, 38, 62
1, 158276, Control_c, 0, 64, 66
1, 158291, Control_c, 0, 64, 96
1, 158296, Note_on_c, 0, 69, 102
1, 158299, Note_on_c, 0, 81, 91
1, 158299, Note_on_c, 0, 83, 97
1, 158300, Note_on_c, 0, 71, 96
1, 158306, Control_c, 0, 64, 127
1, 158307, Note_on_c, 0, 80, 84
1, 158326, Note_off_c, 0, 80, 69
1, 158328, Note_off_c, 0, 71, 54
1, 158332, Note_off_c, 0, 69, 65
1, 158336, Note_off_c, 0, 83, 61
1, 158353, Note_off_c, 0, 81, 66
1, 158406, Note_on_c, 0, 61, 97
1, 158444, Note_off_c, 0, 61, 66
1, 158462, Note_on_c, 0, 65, 93
1, 158470, Note_on_c, 0, 68, 97
1, 158501, Note_off_c, 0, 65, 66
1, 158507, Note_off_c, 0, 68, 66
1, 158551, Note_on_c, 0, 53, 98
1, 158553, Note_on_c, 0, 41, 90
1, 158583, Note_off_c, 0, 41, 63
1, 158589, Note_off_c, 0, 53, 65
1, 158610, Note_on_c, 0, 81, 100
1, 158612, Note_on_c, 0, 69, 117
1, 158643, Note_off_c, 0, 81, 68
1, 158645, Note_off_c, 0, 69, 69
1, 158706, Note_on_c, 0, 62, 84
1, 158716, Note_on_c, 0, 58, 83
1, 158727, Poly_aftertouch_c, 0, 73, 0
1, 158733, Note_off_c, 0, 62, 63
1, 158747, Note_off_c, 0, 58, 62
1, 158750, Note_on_c, 0, 65, 96
1, 158756, Note_on_c, 0, 68, 97
1, 158781, Note_off_c, 0, 65, 60
1, 158791, Note_off_c, 0, 68, 66
1, 158842, Note_on_c, 0, 58, 103
1, 158844, Note_on_c, 0, 46, 96
1, 158878, Note_off_c, 0, 58, 65
1, 158891, Note_off_c, 0, 46, 61
1, 158901, Note_on_c, 0, 70, 114
1, 158901, Note_on_c, 0, 82, 108
1, 158932, Note_on_c, 0, 80, 57
1, 158933, Note_off_c, 0, 80, 127
1, 158941, Note_off_c, 0, 70, 64
1, 158949, Note_off_c, 0, 82, 61
1, 158952, Poly_aftertouch_c, 0, 80, 0
1, 158975, Note_on_c, 0, 62, 93
1, 158982, Note_on_c, 0, 56, 104
1, 159007, Note_off_c, 0, 62, 60
1, 159021, Note_on_c, 0, 65, 106
1, 159022, Note_off_c, 0, 56, 64
1, 159028, Note_on_c, 0, 68, 103
1, 159051, Note_off_c, 0, 65, 67
1, 159060, Note_on_c, 0, 70, 41
1, 159061, Note_off_c, 0, 70, 127
1, 159066, Note_off_c, 0, 68, 66
1, 159141, Note_on_c, 0, 39, 99
1, 159141, Note_on_c, 0, 51, 107
1, 159162, Note_on_c, 0, 49, 65
1, 159166, Note_on_c, 0, 42, 52
1, 159176, Note_on_c, 0, 38, 55
1, 159194, Note_off_c, 0, 42, 56
1, 159218, Note_off_c, 0, 49, 0
1, 159236, Note_off_c, 0, 38, 50
1, 159240, Control_c, 0, 64, 73
1, 159255, Control_c, 0, 64, 0
1, 159261, Poly_aftertouch_c, 0, 49, 0
1, 159287, Note_on_c, 0, 80, 106
1, 159287, Note_on_c, 0, 92, 110
1, 159299, Control_c, 0, 64, 48
1, 159305, Note_on_c, 0, 90, 72
1, 159306, Note_off_c, 0, 90, 127
1, 159306, Note_on_c, 0, 93, 78
1, 159314, Control_c, 0, 64, 87
1, 159328, Control_c, 0, 64, 127
1, 159360, Note_off_c, 0, 39, 63
1, 159366, Note_on_c, 0, 91, 33
1, 159384, Note_off_c, 0, 51, 62
1, 159387, Note_off_c, 0, 93, 61
1, 159414, Note_off_c, 0, 91, 29
1, 159423, Note_off_c, 0, 92, 65
1, 159426, Note_off_c, 0, 80, 63
1, 159516, Note_on_c, 0, 63, 85
1, 159521, Note_on_c, 0, 56, 72
1, 159535, Note_on_c, 0, 58, 60
1, 159549, Note_off_c, 0, 63, 57
1, 159555, Note_off_c, 0, 56, 61
1, 159566, Note_off_c, 0, 58, 64
1, 159571, Note_on_c, 0, 75, 77
1, 159572, Note_on_c, 0, 70, 74
1, 159576, Note_on_c, 0, 68, 70
1, 159593, Note_off_c, 0, 75, 69
1, 159599, Note_off_c, 0, 70, 66
1, 159603, Note_off_c, 0, 68, 63
1, 159615, Note_on_c, 0, 56, 81
1, 159629, Note_on_c, 0, 63, 70
1, 159644, Note_on_c, 0, 58, 51
1, 159647, Note_on_c, 0, 75, 82
1, 159649, Note_on_c, 0, 70, 82
1, 159656, Note_off_c, 0, 63, 64
1, 159668, Note_off_c, 0, 56, 59
1, 159668, Note_off_c, 0, 58, 63
1, 159677, Note_off_c, 0, 70, 63
1, 159678, Note_off_c, 0, 75, 58
1, 159680, Poly_aftertouch_c, 0, 73, 0
1, 159681, Note_on_c, 0, 69, 42
1, 159707, Note_off_c, 0, 69, 56
1, 159710, Note_on_c, 0, 63, 86
1, 159713, Note_on_c, 0, 56, 81
1, 159730, Note_on_c, 0, 58, 76
1, 159733, Note_on_c, 0, 75, 95
1, 159736, Note_on_c, 0, 70, 95
1, 159741, Note_on_c, 0, 68, 90
1, 159747, Note_off_c, 0, 63, 56
1, 159757, Note_off_c, 0, 58, 65
1, 159765, Note_off_c, 0, 56, 60
1, 159781, Note_off_c, 0, 68, 61
1, 159784, Note_off_c, 0, 70, 65
1, 159802, Note_off_c, 0, 75, 63
1, 159856, Control_c, 0, 64, 97
1, 159869, Note_on_c, 0, 51, 108
1, 159871, Control_c, 0, 64, 54
1, 159872, Note_on_c, 0, 39, 103
1, 159885, Control_c, 0, 64, 0
1, 159894, Note_on_c, 0, 42, 58
1, 159895, Note_off_c, 0, 42, 127
1, 159915, Control_c, 0, 64, 65
1, 159924, Note_off_c, 0, 39, 63
1, 159930, Control_c, 0, 64, 95
1, 159934, Poly_aftertouch_c, 0, 42, 0
1, 159944, Control_c, 0, 64, 127
1, 159949, Note_on_c, 0, 78, 122
1, 159949, Note_off_c, 0, 51, 60
1, 159951, Note_on_c, 0, 90, 111
1, 159963, Note_on_c, 0, 87, 82
1, 159964, Note_off_c, 0, 87, 127
1, 159994, Note_off_c, 0, 90, 70
1, 159997, Note_off_c, 0, 78, 56
1, 160061, Poly_aftertouch_c, 0, 88, 0
1, 160062, Note_on_c, 0, 63, 98
1, 160098, Note_off_c, 0, 63, 66
1, 160119, Note_on_c, 0, 66, 94
1, 160131, Note_on_c, 0, 77, 71
1, 160136, Note_on_c, 0, 76, 73
1, 160137, Note_on_c, 0, 75, 55
1, 160138, Note_on_c, 0, 68, 69
1, 160144, Note_off_c, 0, 66, 63
1, 160154, Note_off_c, 0, 77, 69
1, 160156, Note_off_c, 0, 68, 68
1, 160156, Note_off_c, 0, 75, 63
1, 160157, Note_off_c, 0, 76, 65
1, 160205, Note_on_c, 0, 53, 106
1, 160210, Note_on_c, 0, 41, 98
1, 160211, Control_c, 0, 64, 71
1, 160225, Control_c, 0, 64, 0
1, 160246, Note_off_c, 0, 53, 68
1, 160255, Note_off_c, 0, 41, 62
1, 160255, Control_c, 0, 64, 35
1, 160271, Control_c, 0, 64, 77
1, 160277, Note_on_c, 0, 74, 119
1, 160278, Note_on_c, 0, 86, 100
1, 160286, Control_c, 0, 64, 127
1, 160307, Note_on_c, 0, 84, 58
1, 160308, Note_off_c, 0, 84, 127
1, 160309, Note_off_c, 0, 74, 70
1, 160311, Note_off_c, 0, 86, 70
1, 160383, Note_on_c, 0, 68, 87
1, 160388, Note_on_c, 0, 66, 72
1, 160393, Note_on_c, 0, 59, 70
1, 160402, Note_off_c, 0, 68, 70
1, 160405, Note_off_c, 0, 66, 68
1, 160407, Note_on_c, 0, 60, 55
1, 160424, Note_off_c, 0, 59, 65
1, 160431, Note_on_c, 0, 68, 93
1, 160431, Note_off_c, 0, 60, 56
1, 160434, Note_on_c, 0, 71, 84
1, 160470, Note_off_c, 0, 68, 59
1, 160476, Note_off_c, 0, 71, 65
1, 160521, Note_on_c, 0, 56, 107
1, 160523, Note_on_c, 0, 44, 94
1, 160556, Note_off_c, 0, 44, 64
1, 160560, Note_off_c, 0, 56, 61
1, 160572, Note_on_c, 0, 72, 114
1, 160572, Note_on_c, 0, 84, 106
1, 160586, Note_on_c, 0, 82, 82
1, 160608, Note_off_c, 0, 82, 70
1, 160614, Note_off_c, 0, 72, 70
1, 160617, Note_off_c, 0, 84, 64
1, 160675, Note_on_c, 0, 66, 102
1, 160683, Note_on_c, 0, 59, 84
1, 160720, Note_off_c, 0, 66, 60
1, 160723, Note_on_c, 0, 68, 90
1, 160723, Note_on_c, 0, 71, 89
1, 160735, Note_off_c, 0, 59, 58
1, 160750, Note_off_c, 0, 68, 63
1, 160763, Note_off_c, 0, 71, 66
1, 160814, Note_on_c, 0, 49, 92
1, 160814, Note_on_c, 0, 61, 104
1, 160852, Note_off_c, 0, 61, 66
1, 160858, Note_off_c, 0, 49, 60
1, 160865, Note_on_c, 0, 73, 109
1, 160866, Note_on_c, 0, 85, 106
1, 160908, Note_off_c, 0, 73, 64
1, 160914, Note_off_c, 0, 85, 63
1, 160934, Note_on_c, 0, 65, 100
1, 160941, Note_on_c, 0, 78, 4
1, 160944, Note_on_c, 0, 59, 89
1, 160966, Note_on_c, 0, 60, 56
1, 160967, Note_off_c, 0, 60, 127
1, 160976, Note_off_c, 0, 65, 66
1, 160979, Note_off_c, 0, 78, 43
1, 160993, Note_on_c, 0, 71, 96
1, 160995, Note_on_c, 0, 66, 90
1, 160995, Note_off_c, 0, 59, 65
1, 161006, Note_on_c, 0, 68, 83
1, 161013, Note_off_c, 0, 66, 70
1, 161022, Note_on_c, 0, 70, 36
1, 161023, Note_off_c, 0, 70, 127
1, 161028, Note_off_c, 0, 68, 69
1, 161037, Note_off_c, 0, 71, 67
1, 161103, Note_on_c, 0, 42, 101
1, 161103, Note_on_c, 0, 54, 102
1, 161106, Note_on_c, 0, 51, 100
1, 161124, Note_off_c, 0, 51, 65
1, 161127, Note_on_c, 0, 40, 65
1, 161129, Note_on_c, 0, 41, 71
1, 161130, Note_on_c, 0, 44, 52
1, 161154, Note_off_c, 0, 44, 59
1, 161185, Note_off_c, 0, 40, 59
1, 161194, Note_off_c, 0, 41, 56
1, 161198, Control_c, 0, 64, 68
1, 161213, Control_c, 0, 64, 0
1, 161246, Note_on_c, 0, 81, 112
1, 161246, Note_on_c, 0, 93, 121
1, 161258, Control_c, 0, 64, 62
1, 161270, Note_on_c, 0, 92, 58
1, 161271, Note_off_c, 0, 92, 127
1, 161272, Control_c, 0, 64, 91
1, 161287, Control_c, 0, 64, 127
1, 161333, Poly_aftertouch_c, 0, 44, 0
1, 161358, Note_off_c, 0, 42, 61
1, 161366, Poly_aftertouch_c, 0, 87, 127
1, 161382, Note_off_c, 0, 54, 60
1, 161389, Note_off_c, 0, 93, 63
1, 161400, Note_off_c, 0, 81, 60
1, 161441, Poly_aftertouch_c, 0, 87, 0
1, 161487, Note_on_c, 0, 65, 87
1, 161489, Note_on_c, 0, 57, 84
1, 161532, Note_off_c, 0, 65, 60
1, 161537, Note_on_c, 0, 69, 97
1, 161537, Note_off_c, 0, 57, 57
1, 161542, Note_on_c, 0, 77, 79
1, 161543, Note_on_c, 0, 61, 13
1, 161557, Note_on_c, 0, 73, 54
1, 161558, Note_off_c, 0, 69, 60
1, 161564, Note_off_c, 0, 77, 67
1, 161574, Poly_aftertouch_c, 0, 58, 0
1, 161577, Note_off_c, 0, 73, 62
1, 161580, Note_off_c, 0, 61, 0
1, 161596, Note_on_c, 0, 61, 57
1, 161599, Note_on_c, 0, 65, 83
1, 161600, Note_on_c, 0, 57, 77
1, 161600, Poly_aftertouch_c, 0, 58, 0
1, 161620, Note_on_c, 0, 77, 86
1, 161627, Note_on_c, 0, 69, 77
1, 161642, Note_off_c, 0, 57, 59
1, 161644, Note_on_c, 0, 73, 59
1, 161645, Note_off_c, 0, 65, 61
1, 161647, Note_off_c, 0, 69, 67
1, 161655, Note_off_c, 0, 61, 62
1, 161662, Note_off_c, 0, 73, 66
1, 161667, Note_off_c, 0, 77, 58
1, 161686, Note_on_c, 0, 57, 79
1, 161686, Note_on_c, 0, 65, 80
1, 161697, Note_on_c, 0, 61, 72
1, 161698, Note_on_c, 0, 77, 81
1, 161704, Note_on_c, 0, 69, 91
1, 161716, Note_on_c, 0, 73, 83
1, 161736, Note_off_c, 0, 65, 62
1, 161747, Note_off_c, 0, 69, 66
1, 161749, Note_off_c, 0, 57, 64
1, 161750, Note_off_c, 0, 61, 65
1, 161766, Note_off_c, 0, 73, 63
1, 161775, Note_off_c, 0, 77, 63
1, 161842, Control_c, 0, 64, 97
1, 161851, Note_on_c, 0, 54, 102
1, 161853, Note_on_c, 0, 44, 92
1, 161856, Note_on_c, 0, 56, 93
1, 161856, Note_on_c, 0, 42, 87
1, 161857, Control_c, 0, 64, 28
1, 161874, Control_c, 0, 64, 0
1, 161877, Note_on_c, 0, 46, 51
1, 161886, Note_off_c, 0, 42, 66
1, 161900, Note_on_c, 0, 43, 56
1, 161903, Control_c, 0, 64, 72
1, 161914, Note_off_c, 0, 46, 51
1, 161918, Control_c, 0, 64, 127
1, 161927, Note_off_c, 0, 43, 61
1, 161938, Note_on_c, 0, 94, 110
1, 161939, Note_on_c, 0, 82, 116
1, 161954, Note_on_c, 0, 92, 79
1, 161955, Note_off_c, 0, 92, 127
1, 161955, Note_off_c, 0, 54, 59
1, 161956, Note_off_c, 0, 44, 59
1, 161957, Note_off_c, 0, 56, 56
1, 161958, Note_on_c, 0, 95, 77
1, 161974, Note_on_c, 0, 89, 55
1, 161975, Note_off_c, 0, 89, 127
1, 161984, Note_off_c, 0, 95, 62
1, 161987, Note_on_c, 0, 91, 18
1, 161988, Note_off_c, 0, 91, 127
1, 162012, Note_off_c, 0, 82, 61
1, 162013, Note_off_c, 0, 94, 65
1, 162056, Note_on_c, 0, 66, 102
1, 162081, Note_on_c, 0, 68, 58
1, 162104, Note_off_c, 0, 66, 65
1, 162112, Note_off_c, 0, 68, 63
1, 162125, Note_on_c, 0, 78, 101
1, 162127, Note_on_c, 0, 70, 106
1, 162134, Note_on_c, 0, 73, 85
1, 162163, Note_on_c, 0, 69, 52
1, 162167, Note_off_c, 0, 70, 63
1, 162181, Note_off_c, 0, 73, 63
1, 162186, Note_off_c, 0, 69, 59
1, 162190, Note_off_c, 0, 78, 60
1, 162230, Poly_aftertouch_c, 0, 68, 0
1, 162236, Note_on_c, 0, 55, 98
1, 162241, Note_on_c, 0, 43, 97
1, 162258, Note_on_c, 0, 49, 60
1, 162269, Note_on_c, 0, 45, 48
1, 162279, Note_off_c, 0, 49, 61
1, 162297, Note_off_c, 0, 45, 56
1, 162354, Control_c, 0, 64, 80
1, 162369, Control_c, 0, 64, 0
1, 162443, Control_c, 0, 64, 79
1, 162453, Note_on_c, 0, 85, 113
1, 162453, Note_on_c, 0, 97, 112
1, 162458, Control_c, 0, 64, 127
1, 162468, Note_on_c, 0, 87, 86
1, 162470, Note_on_c, 0, 98, 83
1, 162480, Note_off_c, 0, 43, 61
1, 162483, Note_off_c, 0, 87, 61
1, 162488, Note_on_c, 0, 92, 52
1, 162516, Note_off_c, 0, 92, 38
1, 162524, Note_off_c, 0, 55, 59
1, 162568, Note_off_c, 0, 98, 56
1, 162639, Note_off_c, 0, 97, 66
1, 162664, Note_off_c, 0, 85, 64
1, 162708, Note_on_c, 0, 64, 93
1, 162714, Note_on_c, 0, 58, 58
1, 162725, Note_on_c, 0, 61, 68
1, 162755, Note_off_c, 0, 61, 64
1, 162760, Note_off_c, 0, 64, 63
1, 162771, Note_off_c, 0, 58, 60
1, 162776, Note_on_c, 0, 76, 85
1, 162783, Note_on_c, 0, 70, 76
1, 162789, Note_on_c, 0, 73, 57
1, 162802, Note_off_c, 0, 76, 64
1, 162807, Note_off_c, 0, 70, 67
1, 162819, Note_off_c, 0, 73, 66
1, 162835, Note_on_c, 0, 61, 78
1, 162845, Note_on_c, 0, 58, 61
1, 162846, Note_on_c, 0, 64, 74
1, 162858, Note_on_c, 0, 62, 65
1, 162865, Note_on_c, 0, 70, 85
1, 162866, Note_on_c, 0, 76, 79
1, 162872, Note_on_c, 0, 57, 48
1, 162878, Note_on_c, 0, 73, 77
1, 162880, Note_off_c, 0, 58, 64
1, 162888, Note_off_c, 0, 64, 60
1, 162889, Note_off_c, 0, 61, 61
1, 162890, Note_off_c, 0, 62, 62
1, 162896, Note_off_c, 0, 57, 57
1, 162902, Note_off_c, 0, 73, 68
1, 162911, Note_off_c, 0, 76, 62
1, 162912, Note_off_c, 0, 70, 57
1, 162935, Note_on_c, 0, 64, 82
1, 162943, Note_on_c, 0, 61, 78
1, 162945, Note_on_c, 0, 75, 73
1, 162947, Note_on_c, 0, 70, 82
1, 162950, Note_on_c, 0, 58, 85
1, 162953, Note_on_c, 0, 73, 96
1, 162962, Note_on_c, 0, 76, 68
1, 162986, Note_off_c, 0, 64, 63
1, 162995, Note_off_c, 0, 70, 63
1, 163001, Note_off_c, 0, 73, 66
1, 163003, Note_off_c, 0, 58, 64
1, 163003, Note_off_c, 0, 61, 62
1, 163010, Note_off_c, 0, 76, 65
1, 163012, Note_off_c, 0, 75, 60
1, 163123, Note_on_c, 0, 54, 111
1, 163127, Note_on_c, 0, 42, 95
1, 163147, Control_c, 0, 64, 54
1, 163150, Note_on_c, 0, 44, 55
1, 163151, Note_off_c, 0, 44, 127
1, 163162, Control_c, 0, 64, 0
1, 163164, Note_on_c, 0, 46, 35
1, 163165, Note_off_c, 0, 46, 127
1, 163206, Control_c, 0, 64, 47
1, 163221, Control_c, 0, 64, 80
1, 163236, Control_c, 0, 64, 127
1, 163246, Note_on_c, 0, 76, 112
1, 163248, Note_on_c, 0, 88, 109
1, 163260, Note_off_c, 0, 42, 61
1, 163267, Note_on_c, 0, 86, 66
1, 163277, Note_off_c, 0, 54, 63
1, 163281, Note_off_c, 0, 88, 72
1, 163281, Note_off_c, 0, 76, 71
1, 163283, Note_off_c, 0, 86, 67
1, 163385, Note_on_c, 0, 64, 94
1, 163391, Note_on_c, 0, 61, 92
1, 163395, Note_on_c, 0, 58, 84
1, 163424, Note_off_c, 0, 64, 67
1, 163436, Note_off_c, 0, 58, 60
1, 163436, Note_off_c, 0, 61, 59
1, 163453, Note_on_c, 0, 76, 103
1, 163455, Note_on_c, 0, 70, 99
1, 163457, Note_on_c, 0, 73, 95
1, 163472, Note_on_c, 0, 56, 9
1, 163498, Note_off_c, 0, 70, 64
1, 163502, Note_off_c, 0, 76, 65
1, 163510, Note_off_c, 0, 73, 65
1, 163512, Note_off_c, 0, 56, 44
1, 163590, Note_on_c, 0, 53, 118
1, 163597, Note_on_c, 0, 41, 96
1, 163600, Control_c, 0, 64, 92
1, 163615, Control_c, 0, 64, 34
1, 163630, Control_c, 0, 64, 0
1, 163635, Note_on_c, 0, 43, 38
1, 163636, Note_off_c, 0, 43, 127
1, 163674, Control_c, 0, 64, 43
1, 163689, Control_c, 0, 64, 84
1, 163704, Control_c, 0, 64, 127
1, 163713, Note_off_c, 0, 41, 61
1, 163739, Note_off_c, 0, 53, 63
1, 163745, Note_on_c, 0, 77, 101
1, 163748, Note_on_c, 0, 89, 103
1, 163757, Note_on_c, 0, 87, 93
1, 163773, Note_off_c, 0, 87, 72
1, 163777, Note_off_c, 0, 89, 68
1, 163782, Note_off_c, 0, 77, 68
1, 163872, Note_on_c, 0, 65, 101
1, 163909, Note_off_c, 0, 65, 65
1, 163954, Note_on_c, 0, 77, 97
1, 163959, Note_on_c, 0, 70, 91
1, 163960, Note_on_c, 0, 73, 89
1, 163966, Poly_aftertouch_c, 0, 61, 127
1, 163979, Note_off_c, 0, 70, 69
1, 163993, Poly_aftertouch_c, 0, 61, 0
1, 163997, Note_off_c, 0, 73, 49
1, 163998, Note_off_c, 0, 77, 63
1, 164038, Note_on_c, 0, 49, 113
1, 164039, Note_on_c, 0, 37, 93
1, 164059, Note_on_c, 0, 39, 55
1, 164075, Note_off_c, 0, 49, 62
1, 164081, Note_off_c, 0, 37, 59
1, 164086, Note_off_c, 0, 39, 57
1, 164121, Note_on_c, 0, 73, 107
1, 164122, Note_on_c, 0, 85, 98
1, 164147, Note_on_c, 0, 82, 61
1, 164148, Note_off_c, 0, 82, 127
1, 164154, Note_off_c, 0, 73, 67
1, 164157, Note_off_c, 0, 85, 68
1, 164199, Note_on_c, 0, 61, 98
1, 164232, Note_off_c, 0, 61, 67
1, 164261, Note_on_c, 0, 65, 102
1, 164264, Note_on_c, 0, 73, 100
1, 164276, Note_on_c, 0, 70, 79
1, 164296, Note_off_c, 0, 65, 65
1, 164300, Note_on_c, 0, 74, 37
1, 164300, Note_off_c, 0, 70, 66
1, 164303, Note_off_c, 0, 73, 64
1, 164329, Note_off_c, 0, 74, 55
1, 164349, Control_c, 0, 64, 91
1, 164351, Note_on_c, 0, 45, 98
1, 164358, Note_on_c, 0, 33, 96
1, 164364, Control_c, 0, 64, 64
1, 164379, Control_c, 0, 64, 35
1, 164384, Note_off_c, 0, 33, 69
1, 164390, Note_off_c, 0, 45, 65
1, 164391, Note_on_c, 0, 39, 37
1, 164394, Control_c, 0, 64, 57
1, 164409, Control_c, 0, 64, 69
1, 164420, Note_on_c, 0, 81, 98
1, 164422, Note_on_c, 0, 69, 108
1, 164423, Control_c, 0, 64, 96
1, 164429, Note_off_c, 0, 39, 50
1, 164435, Note_on_c, 0, 80, 67
1, 164436, Note_off_c, 0, 80, 127
1, 164438, Control_c, 0, 64, 127
1, 164452, Note_off_c, 0, 81, 71
1, 164454, Note_off_c, 0, 69, 69
1, 164494, Note_on_c, 0, 57, 91
1, 164499, Note_on_c, 0, 53, 79
1, 164526, Note_off_c, 0, 57, 62
1, 164540, Poly_aftertouch_c, 0, 79, 0
1, 164545, Note_off_c, 0, 53, 66
1, 164551, Note_on_c, 0, 61, 98
1, 164560, Note_on_c, 0, 65, 83
1, 164562, Note_on_c, 0, 64, 89
1, 164580, Note_off_c, 0, 64, 71
1, 164582, Note_off_c, 0, 61, 62
1, 164592, Note_off_c, 0, 65, 63
1, 164639, Note_on_c, 0, 46, 101
1, 164641, Note_on_c, 0, 34, 86
1, 164646, Control_c, 0, 64, 88
1, 164653, Note_on_c, 0, 37, 75
1, 164655, Note_on_c, 0, 47, 79
1, 164659, Note_on_c, 0, 48, 71
1, 164660, Control_c, 0, 64, 61
1, 164663, Note_off_c, 0, 34, 69
1, 164675, Note_off_c, 0, 47, 42
1, 164675, Control_c, 0, 64, 36
1, 164679, Note_off_c, 0, 37, 57
1, 164679, Note_off_c, 0, 48, 62
1, 164681, Note_off_c, 0, 46, 63
1, 164685, Note_on_c, 0, 39, 16
1, 164690, Control_c, 0, 64, 59
1, 164702, Note_on_c, 0, 82, 101
1, 164703, Note_on_c, 0, 70, 107
1, 164705, Control_c, 0, 64, 73
1, 164714, Note_on_c, 0, 80, 88
1, 164720, Control_c, 0, 64, 127
1, 164727, Note_off_c, 0, 80, 71
1, 164734, Note_off_c, 0, 70, 67
1, 164738, Note_off_c, 0, 39, 30
1, 164740, Note_off_c, 0, 82, 65
1, 164777, Note_on_c, 0, 34, 1
1, 164785, Note_on_c, 0, 58, 98
1, 164787, Note_on_c, 0, 49, 85
1, 164792, Note_on_c, 0, 53, 76
1, 164804, Note_on_c, 0, 56, 58
1, 164809, Note_off_c, 0, 58, 65
1, 164816, Poly_aftertouch_c, 0, 75, 0
1, 164822, Note_off_c, 0, 34, 47
1, 164825, Note_off_c, 0, 53, 65
1, 164828, Note_off_c, 0, 56, 60
1, 164835, Note_off_c, 0, 49, 62
1, 164836, Note_on_c, 0, 70, 100
1, 164839, Note_on_c, 0, 61, 106
1, 164844, Note_on_c, 0, 65, 83
1, 164878, Note_off_c, 0, 61, 63
1, 164888, Note_off_c, 0, 65, 58
1, 164890, Note_on_c, 0, 60, 33
1, 164894, Note_off_c, 0, 70, 61
1, 164924, Note_off_c, 0, 60, 44
1, 164927, Control_c, 0, 64, 79
1, 164928, Note_on_c, 0, 40, 113
1, 164933, Note_on_c, 0, 28, 96
1, 164941, Control_c, 0, 64, 34
1, 164956, Control_c, 0, 64, 0
1, 164959, Note_on_c, 0, 29, 47
1, 164963, Note_off_c, 0, 28, 65
1, 164968, Note_off_c, 0, 40, 65
1, 164986, Control_c, 0, 64, 63
1, 164995, Note_off_c, 0, 29, 38
1, 164998, Note_on_c, 0, 64, 111
1, 164998, Note_on_c, 0, 76, 99
1, 165001, Control_c, 0, 64, 83
1, 165016, Control_c, 0, 64, 127
1, 165026, Note_off_c, 0, 76, 71
1, 165034, Note_off_c, 0, 64, 69
1, 165078, Note_on_c, 0, 53, 101
1, 165092, Poly_aftertouch_c, 0, 68, 0
1, 165093, Note_on_c, 0, 49, 88
1, 165106, Note_on_c, 0, 46, 78
1, 165118, Note_off_c, 0, 53, 61
1, 165135, Poly_aftertouch_c, 0, 68, 0
1, 165141, Note_on_c, 0, 58, 95
1, 165141, Note_off_c, 0, 46, 64
1, 165141, Note_off_c, 0, 49, 58
1, 165144, Note_on_c, 0, 61, 82
1, 165150, Poly_aftertouch_c, 0, 68, 0
1, 165159, Note_on_c, 0, 60, 78
1, 165162, Note_off_c, 0, 61, 61
1, 165163, Note_on_c, 0, 57, 66
1, 165183, Note_off_c, 0, 58, 62
1, 165183, Note_off_c, 0, 60, 65
1, 165185, Note_off_c, 0, 57, 64
1, 165204, Poly_aftertouch_c, 0, 44, 0
1, 165231, Note_on_c, 0, 41, 100
1, 165232, Control_c, 0, 64, 109
1, 165240, Note_on_c, 0, 29, 84
1, 165240, Note_on_c, 0, 40, 78
1, 165241, Note_on_c, 0, 30, 82
1, 165244, Note_on_c, 0, 28, 85
1, 165246, Control_c, 0, 64, 68
1, 165257, Note_off_c, 0, 40, 61
1, 165260, Note_off_c, 0, 28, 59
1, 165261, Control_c, 0, 64, 56
1, 165266, Note_off_c, 0, 29, 68
1, 165269, Note_off_c, 0, 41, 64
1, 165272, Note_off_c, 0, 30, 67
1, 165276, Control_c, 0, 64, 68
1, 165290, Control_c, 0, 64, 87
1, 165299, Note_on_c, 0, 65, 112
1, 165303, Note_on_c, 0, 77, 102
1, 165305, Control_c, 0, 64, 127
1, 165311, Note_on_c, 0, 75, 85
1, 165319, Note_on_c, 0, 76, 78
1, 165326, Note_off_c, 0, 77, 64
1, 165329, Note_off_c, 0, 75, 71
1, 165332, Note_off_c, 0, 65, 68
1, 165334, Note_off_c, 0, 76, 73
1, 165352, Note_on_c, 0, 28, 23
1, 165352, Note_on_c, 0, 70, 22
1, 165367, Note_on_c, 0, 53, 101
1, 165374, Note_on_c, 0, 49, 90
1, 165379, Note_on_c, 0, 46, 85
1, 165395, Note_off_c, 0, 28, 49
1, 165395, Note_off_c, 0, 70, 51
1, 165401, Note_off_c, 0, 53, 66
1, 165403, Note_off_c, 0, 49, 64
1, 165418, Note_on_c, 0, 58, 100
1, 165419, Note_off_c, 0, 46, 62
1, 165427, Poly_aftertouch_c, 0, 40, 0
1, 165428, Note_on_c, 0, 61, 79
1, 165430, Note_on_c, 0, 62, 78
1, 165436, Note_on_c, 0, 44, 23
1, 165439, Note_off_c, 0, 58, 69
1, 165441, Note_on_c, 0, 70, 23
1, 165442, Note_off_c, 0, 70, 0
1, 165448, Note_off_c, 0, 61, 65
1, 165456, Note_off_c, 0, 62, 68
1, 165483, Poly_aftertouch_c, 0, 70, 0
1, 165487, Note_off_c, 0, 44, 39
1, 165543, Note_on_c, 0, 30, 36
1, 165576, Note_off_c, 0, 30, 52
1, 165603, Poly_aftertouch_c, 0, 61, 0
1, 165641, Note_on_c, 0, 42, 103
1, 165643, Note_on_c, 0, 30, 97
1, 165646, Note_on_c, 0, 54, 109
1, 165647, Note_on_c, 0, 66, 117
1, 165661, Control_c, 0, 64, 82
1, 165675, Note_on_c, 0, 32, 64
1, 165676, Control_c, 0, 64, 0
1, 165679, Note_on_c, 0, 63, 55
1, 165680, Note_off_c, 0, 63, 127
1, 165689, Note_on_c, 0, 34, 11
1, 165690, Note_off_c, 0, 34, 127
1, 165722, Note_off_c, 0, 32, 31
1, 165764, Control_c, 0, 64, 26
1, 165773, Note_off_c, 0, 30, 62
1, 165779, Note_off_c, 0, 66, 58
1, 165779, Control_c, 0, 64, 106
1, 165794, Control_c, 0, 64, 127
1, 165800, Note_off_c, 0, 54, 54
1, 165810, Note_off_c, 0, 42, 56
1, 165876, Note_on_c, 0, 55, 56
1, 165889, Note_on_c, 0, 43, 77
1, 165937, Note_on_c, 0, 56, 70
1, 165937, Note_off_c, 0, 55, 59
1, 165946, Note_off_c, 0, 43, 60
1, 165961, Note_on_c, 0, 44, 63
1, 165994, Note_off_c, 0, 44, 64
1, 166003, Note_off_c, 0, 56, 59
1, 166008, Note_on_c, 0, 45, 71
1, 166020, Note_on_c, 0, 57, 73
1, 166061, Note_off_c, 0, 45, 61
1, 166063, Note_on_c, 0, 46, 88
1, 166063, Note_off_c, 0, 57, 59
1, 166076, Note_on_c, 0, 58, 75
1, 166104, Note_off_c, 0, 58, 67
1, 166123, Note_on_c, 0, 47, 80
1, 166136, Note_off_c, 0, 46, 62
1, 166144, Note_on_c, 0, 59, 80
1, 166166, Note_on_c, 0, 48, 81
1, 166171, Note_off_c, 0, 47, 62
1, 166187, Note_on_c, 0, 60, 77
1, 166196, Note_off_c, 0, 59, 58
1, 166220, Note_off_c, 0, 48, 63
1, 166242, Note_on_c, 0, 61, 77
1, 166246, Note_off_c, 0, 60, 61
1, 166275, Note_on_c, 0, 49, 38
1, 166289, Note_on_c, 0, 50, 74
1, 166290, Note_off_c, 0, 61, 63
1, 166297, Note_on_c, 0, 62, 77
1, 166301, Note_off_c, 0, 49, 58
1, 166346, Note_off_c, 0, 62, 60
1, 166348, Note_off_c, 0, 50, 60
1, 166351, Note_on_c, 0, 63, 79
1, 166366, Note_on_c, 0, 51, 73
1, 166395, Note_off_c, 0, 63, 59
1, 166398, Note_on_c, 0, 52, 83
1, 166420, Note_on_c, 0, 64, 78
1, 166423, Note_off_c, 0, 51, 61
1, 166460, Note_on_c, 0, 53, 85
1, 166464, Note_on_c, 0, 65, 78
1, 166464, Note_off_c, 0, 52, 62
1, 166479, Note_off_c, 0, 64, 45
1, 166511, Note_off_c, 0, 53, 64
1, 166518, Note_on_c, 0, 66, 73
1, 166519, Note_off_c, 0, 65, 61
1, 166554, Note_off_c, 0, 66, 61
1, 166556, Note_on_c, 0, 54, 55
1, 166574, Note_off_c, 0, 54, 66
1, 166575, Note_on_c, 0, 67, 76
1, 166593, Note_on_c, 0, 55, 84
1, 166627, Note_off_c, 0, 67, 58
1, 166631, Note_off_c, 0, 55, 62
1, 166640, Note_on_c, 0, 68, 76
1, 166657, Note_on_c, 0, 56, 80
1, 166689, Note_off_c, 0, 68, 58
1, 166699, Note_on_c, 0, 69, 79
1, 166713, Note_off_c, 0, 56, 61
1, 166715, Note_on_c, 0, 57, 86
1, 166742, Note_off_c, 0, 69, 59
1, 166746, Poly_aftertouch_c, 0, 54, 0
1, 166748, Note_on_c, 0, 70, 64
1, 166774, Note_on_c, 0, 58, 84
1, 166777, Note_off_c, 0, 57, 45
1, 166797, Note_off_c, 0, 70, 62
1, 166815, Note_on_c, 0, 71, 81
1, 166819, Note_on_c, 0, 59, 71
1, 166851, Note_off_c, 0, 58, 61
1, 166865, Note_on_c, 0, 72, 79
1, 166870, Note_off_c, 0, 71, 59
1, 166878, Note_on_c, 0, 60, 89
1, 166885, Note_off_c, 0, 59, 63
1, 166928, Note_on_c, 0, 73, 75
1, 166928, Note_off_c, 0, 60, 63
1, 166929, Note_off_c, 0, 72, 61
1, 166957, Note_on_c, 0, 61, 78
1, 166977, Note_off_c, 0, 73, 62
1, 166985, Note_on_c, 0, 74, 76
1, 167000, Note_on_c, 0, 62, 42
1, 167012, Note_off_c, 0, 61, 60
1, 167037, Note_off_c, 0, 74, 60
1, 167041, Note_on_c, 0, 75, 79
1, 167059, Note_off_c, 0, 62, 58
1, 167067, Note_on_c, 0, 63, 86
1, 167068, Note_off_c, 0, 75, 64
1, 167105, Note_on_c, 0, 76, 78
1, 167131, Note_on_c, 0, 64, 64
1, 167131, Note_off_c, 0, 63, 63
1, 167154, Note_on_c, 0, 77, 77
1, 167160, Note_on_c, 0, 65, 89
1, 167161, Note_off_c, 0, 64, 64
1, 167211, Note_on_c, 0, 78, 84
1, 167213, Note_off_c, 0, 76, 59
1, 167216, Note_on_c, 0, 66, 100
1, 167219, Note_off_c, 0, 77, 63
1, 167236, Note_off_c, 0, 65, 63
1, 167260, Note_off_c, 0, 78, 65
1, 167272, Note_on_c, 0, 79, 81
1, 167290, Note_off_c, 0, 66, 62
1, 167299, Note_on_c, 0, 65, 92
1, 167314, Note_off_c, 0, 79, 65
1, 167350, Note_on_c, 0, 80, 75
1, 167374, Note_on_c, 0, 64, 79
1, 167392, Note_off_c, 0, 80, 61
1, 167407, Note_off_c, 0, 65, 58
1, 167418, Note_on_c, 0, 81, 78
1, 167425, Note_on_c, 0, 63, 86
1, 167430, Note_off_c, 0, 64, 64
1, 167446, Note_off_c, 0, 63, 68
1, 167459, Note_off_c, 0, 81, 59
1, 167469, Note_on_c, 0, 82, 82
1, 167496, Note_off_c, 0, 82, 63
1, 167499, Note_on_c, 0, 62, 81
1, 167534, Note_on_c, 0, 83, 82
1, 167565, Note_off_c, 0, 62, 58
1, 167572, Note_on_c, 0, 61, 80
1, 167572, Note_on_c, 0, 84, 81
1, 167593, Note_off_c, 0, 83, 59
1, 167606, Note_off_c, 0, 61, 64
1, 167625, Note_on_c, 0, 85, 76
1, 167629, Note_off_c, 0, 84, 63
1, 167645, Note_on_c, 0, 60, 74
1, 167647, Note_off_c, 0, 85, 70
1, 167649, Note_on_c, 0, 59, 68
1, 167677, Note_on_c, 0, 86, 87
1, 167708, Note_off_c, 0, 60, 52
1, 167729, Note_off_c, 0, 86, 62
1, 167737, Note_on_c, 0, 87, 80
1, 167741, Note_on_c, 0, 58, 81
1, 167753, Note_off_c, 0, 59, 60
1, 167773, Note_off_c, 0, 58, 62
1, 167773, Note_off_c, 0, 87, 61
1, 167797, Note_on_c, 0, 88, 83
1, 167812, Note_on_c, 0, 57, 83
1, 167836, Note_on_c, 0, 89, 85
1, 167875, Note_on_c, 0, 56, 85
1, 167883, Note_off_c, 0, 57, 58
1, 167883, Note_off_c, 0, 88, 59
1, 167893, Note_on_c, 0, 90, 75
1, 167893, Note_off_c, 0, 89, 65
1, 167913, Note_off_c, 0, 90, 71
1, 167922, Note_off_c, 0, 56, 62
1, 167943, Note_on_c, 0, 91, 81
1, 167950, Note_on_c, 0, 55, 89
1, 168000, Note_on_c, 0, 92, 87
1, 168002, Note_off_c, 0, 91, 62
1, 168005, Note_on_c, 0, 54, 88
1, 168017, Note_off_c, 0, 55, 57
1, 168050, Note_off_c, 0, 92, 66
1, 168058, Note_off_c, 0, 54, 61
1, 168062, Note_on_c, 0, 93, 95
1, 168090, Note_on_c, 0, 53, 94
1, 168119, Note_off_c, 0, 93, 62
1, 168122, Note_on_c, 0, 94, 88
1, 168138, Note_on_c, 0, 52, 29
1, 168155, Note_on_c, 0, 51, 89
1, 168157, Note_off_c, 0, 53, 59
1, 168160, Note_off_c, 0, 94, 65
1, 168175, Note_off_c, 0, 52, 62
1, 168193, Note_off_c, 0, 51, 64
1, 168198, Note_on_c, 0, 95, 82
1, 168223, Note_on_c, 0, 50, 98
1, 168227, Note_on_c, 0, 96, 91
1, 168267, Note_off_c, 0, 95, 61
1, 168286, Note_off_c, 0, 50, 0
1, 168295, Note_on_c, 0, 97, 84
1, 168298, Note_on_c, 0, 48, 85
1, 168298, Note_off_c, 0, 96, 65
1, 168310, Poly_aftertouch_c, 0, 50, 0
1, 168312, Note_on_c, 0, 42, 59
1, 168312, Note_on_c, 0, 46, 63
1, 168315, Note_on_c, 0, 49, 35
1, 168321, Note_off_c, 0, 48, 63
1, 168334, Note_off_c, 0, 42, 64
1, 168345, Note_off_c, 0, 46, 48
1, 168348, Note_off_c, 0, 97, 64
1, 168351, Note_on_c, 0, 98, 84
1, 168357, Note_off_c, 0, 49, 44
1, 168396, Note_on_c, 0, 99, 90
1, 168400, Note_off_c, 0, 98, 62
1, 168412, Note_off_c, 0, 99, 74
1, 168445, Note_on_c, 0, 100, 99
1, 168492, Note_on_c, 0, 101, 77
1, 168498, Poly_aftertouch_c, 0, 42, 127
1, 168503, Note_off_c, 0, 100, 66
1, 168517, Note_off_c, 0, 101, 63
1, 168536, Poly_aftertouch_c, 0, 42, 0
1, 168560, Note_on_c, 0, 102, 113
1, 168566, Note_on_c, 0, 42, 99
1, 168582, Control_c, 0, 64, 79
1, 168584, Note_on_c, 0, 104, 78
1, 168597, Control_c, 0, 64, 0
1, 168606, Note_off_c, 0, 104, 70
1, 168620, Note_off_c, 0, 102, 70
1, 168626, Control_c, 0, 64, 65
1, 168641, Control_c, 0, 64, 118
1, 168643, Note_off_c, 0, 42, 63
1, 168656, Control_c, 0, 64, 127
1, 169093, Note_on_c, 0, 42, 123
1, 169096, Note_on_c, 0, 30, 94
1, 169099, Note_on_c, 0, 54, 108
1, 169099, Note_on_c, 0, 66, 104
1, 169108, Note_on_c, 0, 61, 71
1, 169109, Note_off_c, 0, 61, 127
1, 169111, Note_on_c, 0, 58, 74
1, 169112, Note_off_c, 0, 58, 127
1, 169120, Note_on_c, 0, 57, 74
1, 169120, Note_on_c, 0, 60, 82
1, 169120, Note_on_c, 0, 63, 64
1, 169121, Note_on_c, 0, 34, 22
1, 169140, Note_on_c, 0, 41, 18
1, 169142, Note_on_c, 0, 29, 29
1, 169144, Note_off_c, 0, 34, 0
1, 169168, Note_on_c, 0, 65, 7
1, 169177, Note_off_c, 0, 41, 50
1, 169183, Control_c, 0, 64, 73
1, 169185, Note_off_c, 0, 29, 54
1, 169188, Poly_aftertouch_c, 0, 34, 0
1, 169192, Note_off_c, 0, 60, 59
1, 169196, Note_off_c, 0, 57, 60
1, 169198, Control_c, 0, 64, 0
1, 169210, Note_off_c, 0, 63, 48
1, 169225, Note_off_c, 0, 65, 36
1, 169331, Control_c, 0, 64, 64
1, 169346, Control_c, 0, 64, 113
1, 169361, Control_c, 0, 64, 127
1, 169439, Note_off_c, 0, 30, 59
1, 169457, Note_off_c, 0, 42, 54
1, 169461, Note_off_c, 0, 54, 57
1, 169469, Note_off_c, 0, 66, 56
1, 169714, Note_on_c, 0, 47, 101
1, 169717, Note_on_c, 0, 54, 103
1, 169717, Note_on_c, 0, 66, 102
1, 169719, Note_on_c, 0, 35, 94
1, 169722, Note_on_c, 0, 59, 96
1, 169727, Note_on_c, 0, 62, 96
1, 169755, Note_on_c, 0, 36, 51
1, 169758, Note_on_c, 0, 40, 31
1, 169782, Control_c, 0, 64, 67
1, 169789, Note_off_c, 0, 36, 51
1, 169789, Note_off_c, 0, 40, 57
1, 169797, Control_c, 0, 64, 0
1, 169815, Note_on_c, 0, 64, 15
1, 169875, Note_off_c, 0, 64, 37
1, 169882, Poly_aftertouch_c, 0, 65, 0
1, 169902, Control_c, 0, 64, 28
1, 169917, Control_c, 0, 64, 127
1, 169965, Note_off_c, 0, 66, 56
1, 169966, Note_off_c, 0, 35, 58
1, 169971, Note_off_c, 0, 54, 56
1, 169979, Note_off_c, 0, 62, 57
1, 169980, Note_off_c, 0, 47, 55
1, 169985, Note_off_c, 0, 59, 59
1, 170369, Note_on_c, 0, 54, 97
1, 170369, Note_on_c, 0, 66, 101
1, 170371, Note_on_c, 0, 58, 99
1, 170373, Note_on_c, 0, 48, 106
1, 170380, Note_on_c, 0, 36, 98
1, 170383, Note_on_c, 0, 64, 83
1, 170408, Note_on_c, 0, 63, 58
1, 170413, Note_on_c, 0, 43, 36
1, 170418, Note_on_c, 0, 38, 40
1, 170435, Note_off_c, 0, 63, 36
1, 170444, Note_off_c, 0, 43, 54
1, 170458, Control_c, 0, 64, 64
1, 170473, Control_c, 0, 64, 0
1, 170476, Note_off_c, 0, 38, 38
1, 170576, Control_c, 0, 64, 49
1, 170591, Control_c, 0, 64, 86
1, 170605, Control_c, 0, 64, 127
1, 170685, Note_off_c, 0, 48, 54
1, 170685, Note_off_c, 0, 66, 57
1, 170692, Note_off_c, 0, 54, 56
1, 170693, Note_off_c, 0, 64, 57
1, 170703, Note_off_c, 0, 36, 58
1, 170721, Note_off_c, 0, 58, 58
1, 171194, Note_on_c, 0, 54, 105
1, 171194, Note_on_c, 0, 66, 96
1, 171195, Note_on_c, 0, 57, 97
1, 171198, Note_on_c, 0, 41, 115
1, 171204, Note_on_c, 0, 63, 92
1, 171204, Note_on_c, 0, 29, 98
1, 171230, Note_on_c, 0, 31, 52
1, 171255, Note_on_c, 0, 33, 35
1, 171266, Control_c, 0, 64, 95
1, 171281, Control_c, 0, 64, 60
1, 171290, Note_off_c, 0, 31, 39
1, 171296, Control_c, 0, 64, 0
1, 171299, Note_off_c, 0, 33, 38
1, 171331, Poly_aftertouch_c, 0, 62, 0
1, 171770, Control_c, 0, 64, 16
1, 171785, Control_c, 0, 64, 37
1, 171800, Control_c, 0, 64, 44
1, 171815, Control_c, 0, 64, 47
1, 171837, Control_c, 0, 64, 49
1, 171852, Control_c, 0, 64, 51
1, 171866, Control_c, 0, 64, 52
1, 171881, Control_c, 0, 64, 55
1, 171896, Control_c, 0, 64, 58
1, 171911, Control_c, 0, 64, 61
1, 171925, Control_c, 0, 64, 63
1, 171940, Control_c, 0, 64, 65
1, 171955, Control_c, 0, 64, 67
1, 171970, Control_c, 0, 64, 70
1, 171985, Control_c, 0, 64, 74
1, 172000, Control_c, 0, 64, 80
1, 172015, Control_c, 0, 64, 86
1, 172030, Control_c, 0, 64, 96
1, 172045, Control_c, 0, 64, 111
1, 172059, Control_c, 0, 64, 127
1, 172256, Note_off_c, 0, 41, 41
1, 172265, Note_off_c, 0, 29, 29
1, 172358, Note_off_c, 0, 54, 48
1, 172373, Note_off_c, 0, 66, 46
1, 172411, Note_off_c, 0, 57, 50
1, 172436, Note_off_c, 0, 63, 51
1, 173015, Note_on_c, 0, 53, 96
1, 173016, Note_on_c, 0, 65, 100
1, 173059, Note_off_c, 0, 53, 66
1, 173060, Note_off_c, 0, 65, 60
1, 173091, Control_c, 0, 64, 114
1, 173092, Note_on_c, 0, 65, 89
1, 173094, Note_on_c, 0, 53, 102
1, 173097, Note_on_c, 0, 46, 115
1, 173097, Note_on_c, 0, 34, 96
1, 173100, Note_on_c, 0, 61, 91
1, 173105, Control_c, 0, 64, 61
1, 173106, Note_on_c, 0, 58, 93
1, 173120, Control_c, 0, 64, 0
1, 173165, Note_off_c, 0, 53, 63
1, 173167, Note_off_c, 0, 65, 63
1, 173169, Note_on_c, 0, 35, 35
1, 173179, Control_c, 0, 64, 69
1, 173186, Note_off_c, 0, 61, 65
1, 173187, Note_off_c, 0, 58, 64
1, 173190, Note_off_c, 0, 46, 64
1, 173192, Note_off_c, 0, 34, 62
1, 173194, Control_c, 0, 64, 91
1, 173209, Control_c, 0, 64, 127
1, 173213, Note_off_c, 0, 35, 27
1, 173749, Note_on_c, 0, 49, 102
1, 173756, Note_on_c, 0, 73, 97
1, 173756, Note_on_c, 0, 61, 113
1, 173801, Note_on_c, 0, 70, 25
1, 173802, Note_off_c, 0, 70, 127
1, 173812, Note_on_c, 0, 63, 19
1, 173838, Poly_aftertouch_c, 0, 70, 0
1, 173841, Poly_aftertouch_c, 0, 66, 127
1, 173861, Note_off_c, 0, 63, 43
1, 173884, Poly_aftertouch_c, 0, 66, 0
1, 173994, Note_on_c, 0, 65, 54
1, 174007, Note_off_c, 0, 73, 52
1, 174011, Note_on_c, 0, 58, 37
1, 174053, Note_off_c, 0, 61, 54
1, 174058, Note_on_c, 0, 70, 71
1, 174060, Note_off_c, 0, 65, 58
1, 174062, Note_on_c, 0, 53, 56
1, 174090, Note_off_c, 0, 58, 46
1, 174127, Note_on_c, 0, 65, 54
1, 174140, Note_off_c, 0, 49, 55
1, 174174, Note_off_c, 0, 70, 59
1, 174182, Note_off_c, 0, 53, 62
1, 174219, Note_off_c, 0, 65, 61
1, 174240, Note_on_c, 0, 48, 110
1, 174245, Note_on_c, 0, 60, 104
1, 174247, Note_on_c, 0, 72, 106
1, 174283, Note_on_c, 0, 68, 38
1, 174316, Note_off_c, 0, 72, 60
1, 174318, Note_off_c, 0, 68, 51
1, 174391, Note_on_c, 0, 61, 77
1, 174396, Note_off_c, 0, 60, 56
1, 174437, Note_off_c, 0, 48, 40
1, 174439, Note_on_c, 0, 53, 49
1, 174453, Note_off_c, 0, 61, 60
1, 174454, Note_on_c, 0, 49, 44
1, 174468, Note_on_c, 0, 65, 60
1, 174523, Note_on_c, 0, 61, 56
1, 174587, Note_off_c, 0, 65, 34
1, 174598, Note_off_c, 0, 61, 62
1, 174610, Note_off_c, 0, 53, 57
1, 174624, Note_on_c, 0, 46, 66
1, 174625, Note_on_c, 0, 70, 99
1, 174626, Note_on_c, 0, 58, 112
1, 174637, Poly_aftertouch_c, 0, 61, 0
1, 174656, Note_on_c, 0, 61, 36
1, 174657, Note_off_c, 0, 61, 127
1, 174658, Note_on_c, 0, 68, 59
1, 174677, Note_off_c, 0, 49, 56
1, 174686, Note_off_c, 0, 68, 61
1, 174699, Poly_aftertouch_c, 0, 61, 0
1, 174736, Note_on_c, 0, 61, 72
1, 174748, Note_on_c, 0, 53, 85
1, 174773, Note_off_c, 0, 58, 57
1, 174812, Note_on_c, 0, 65, 63
1, 174812, Note_off_c, 0, 61, 62
1, 174812, Note_off_c, 0, 70, 57
1, 174860, Note_off_c, 0, 53, 57
1, 174862, Note_on_c, 0, 49, 79
1, 174870, Note_on_c, 0, 61, 70
1, 174900, Note_off_c, 0, 65, 52
1, 174961, Note_off_c, 0, 46, 60
1, 174990, Note_off_c, 0, 49, 61
1, 174990, Note_off_c, 0, 61, 63
1, 175023, Note_on_c, 0, 45, 103
1, 175023, Note_on_c, 0, 57, 101
1, 175025, Note_on_c, 0, 69, 100
1, 175039, Control_c, 0, 64, 121
1, 175046, Note_on_c, 0, 67, 69
1, 175054, Control_c, 0, 64, 66
1, 175064, Note_off_c, 0, 67, 63
1, 175068, Control_c, 0, 64, 0
1, 175083, Control_c, 0, 64, 25
1, 175098, Control_c, 0, 64, 67
1, 175113, Control_c, 0, 64, 95
1, 175127, Control_c, 0, 64, 127
1, 175180, Note_on_c, 0, 61, 75
1, 175190, Note_off_c, 0, 69, 57
1, 175242, Note_on_c, 0, 49, 66
1, 175252, Note_on_c, 0, 65, 70
1, 175252, Note_off_c, 0, 61, 61
1, 175257, Note_off_c, 0, 57, 59
1, 175300, Poly_aftertouch_c, 0, 46, 0
1, 175315, Note_off_c, 0, 45, 37
1, 175335, Note_on_c, 0, 61, 60
1, 175416, Note_off_c, 0, 61, 62
1, 175418, Note_off_c, 0, 65, 27
1, 175455, Note_on_c, 0, 46, 104
1, 175458, Note_on_c, 0, 58, 109
1, 175458, Note_on_c, 0, 70, 102
1, 175472, Note_on_c, 0, 68, 81
1, 175485, Note_on_c, 0, 66, 56
1, 175493, Note_off_c, 0, 49, 50
1, 175516, Note_on_c, 0, 61, 14
1, 175538, Note_off_c, 0, 68, 50
1, 175547, Note_off_c, 0, 66, 67
1, 175552, Note_on_c, 0, 53, 79
1, 175559, Note_off_c, 0, 58, 61
1, 175574, Note_off_c, 0, 70, 60
1, 175576, Note_on_c, 0, 65, 68
1, 175577, Note_off_c, 0, 46, 58
1, 175604, Note_off_c, 0, 65, 65
1, 175616, Note_off_c, 0, 61, 57
1, 175620, Note_on_c, 0, 49, 81
1, 175622, Note_off_c, 0, 53, 64
1, 175627, Note_on_c, 0, 46, 29
1, 175654, Note_off_c, 0, 46, 58
1, 175690, Note_on_c, 0, 53, 87
1, 175724, Note_off_c, 0, 49, 60
1, 175756, Note_off_c, 0, 53, 64
1, 175932, Note_on_c, 0, 73, 93
1, 175943, Note_on_c, 0, 82, 91
1, 175946, Note_on_c, 0, 85, 82
1, 175950, Note_on_c, 0, 72, 70
1, 175956, Note_on_c, 0, 71, 60
1, 175961, Note_off_c, 0, 82, 69
1, 175967, Note_off_c, 0, 72, 67
1, 175967, Note_off_c, 0, 85, 66
1, 175972, Note_off_c, 0, 73, 63
1, 175974, Note_off_c, 0, 71, 64
1, 176036, Note_on_c, 0, 85, 100
1, 176038, Note_on_c, 0, 51, 118
1, 176039, Note_on_c, 0, 73, 111
1, 176044, Note_on_c, 0, 39, 100
1, 176053, Note_on_c, 0, 78, 88
1, 176058, Note_on_c, 0, 82, 67
1, 176069, Control_c, 0, 64, 69
1, 176072, Note_on_c, 0, 81, 60
1, 176073, Note_on_c, 0, 49, 39
1, 176074, Note_on_c, 0, 79, 56
1, 176076, Note_on_c, 0, 76, 55
1, 176077, Note_off_c, 0, 76, 127
1, 176084, Control_c, 0, 64, 0
1, 176094, Note_off_c, 0, 81, 42
1, 176099, Note_off_c, 0, 79, 37
1, 176100, Note_off_c, 0, 82, 40
1, 176105, Note_off_c, 0, 49, 39
1, 176114, Control_c, 0, 64, 63
1, 176123, Note_on_c, 0, 40, 2
1, 176128, Note_off_c, 0, 39, 64
1, 176128, Control_c, 0, 64, 97
1, 176143, Control_c, 0, 64, 127
1, 176156, Poly_aftertouch_c, 0, 84, 0
1, 176157, Note_off_c, 0, 51, 62
1, 176164, Note_off_c, 0, 40, 51
1, 176233, Note_off_c, 0, 85, 60
1, 176242, Note_off_c, 0, 73, 57
1, 176257, Note_off_c, 0, 78, 61
1, 176472, Note_on_c, 0, 63, 66
1, 176474, Note_on_c, 0, 58, 64
1, 176474, Note_on_c, 0, 54, 50
1, 176527, Note_off_c, 0, 54, 59
1, 176545, Note_off_c, 0, 58, 60
1, 176546, Note_on_c, 0, 66, 76
1, 176555, Note_off_c, 0, 63, 59
1, 176609, Note_off_c, 0, 66, 54
1, 176616, Note_on_c, 0, 54, 76
1, 176623, Note_on_c, 0, 58, 60
1, 176629, Note_on_c, 0, 72, 114
1, 176630, Note_on_c, 0, 84, 104
1, 176642, Note_on_c, 0, 63, 33
1, 176670, Note_on_c, 0, 66, 83
1, 176672, Note_off_c, 0, 63, 56
1, 176688, Note_off_c, 0, 58, 61
1, 176692, Note_off_c, 0, 54, 60
1, 176742, Note_off_c, 0, 66, 60
1, 176748, Note_on_c, 0, 54, 64
1, 176751, Note_on_c, 0, 63, 72
1, 176760, Note_on_c, 0, 58, 51
1, 176765, Note_off_c, 0, 72, 54
1, 176776, Note_off_c, 0, 84, 58
1, 176796, Note_off_c, 0, 58, 58
1, 176809, Note_on_c, 0, 66, 86
1, 176811, Note_off_c, 0, 63, 55
1, 176818, Note_off_c, 0, 54, 54
1, 176873, Note_on_c, 0, 63, 76
1, 176882, Note_on_c, 0, 54, 65
1, 176883, Note_off_c, 0, 66, 59
1, 176886, Note_on_c, 0, 58, 67
1, 176916, Note_off_c, 0, 58, 57
1, 176937, Note_on_c, 0, 66, 82
1, 176951, Note_off_c, 0, 63, 61
1, 176959, Note_off_c, 0, 54, 58
1, 176985, Note_on_c, 0, 63, 66
1, 176989, Note_on_c, 0, 54, 59
1, 177002, Note_off_c, 0, 66, 62
1, 177004, Note_on_c, 0, 58, 66
1, 177009, Note_on_c, 0, 70, 115
1, 177009, Note_on_c, 0, 82, 107
1, 177020, Note_on_c, 0, 80, 92
1, 177032, Note_off_c, 0, 80, 74
1, 177047, Note_on_c, 0, 66, 89
1, 177078, Note_off_c, 0, 70, 64
1, 177085, Note_off_c, 0, 63, 60
1, 177089, Note_off_c, 0, 58, 62
1, 177090, Note_off_c, 0, 82, 59
1, 177104, Note_off_c, 0, 66, 63
1, 177106, Note_off_c, 0, 54, 61
1, 177159, Poly_aftertouch_c, 0, 80, 127
1, 177183, Poly_aftertouch_c, 0, 80, 0
1, 177329, Control_c, 0, 64, 80
1, 177344, Control_c, 0, 64, 0
1, 177345, Note_on_c, 0, 73, 105
1, 177348, Note_on_c, 0, 54, 108
1, 177348, Note_on_c, 0, 85, 101
1, 177350, Note_on_c, 0, 42, 98
1, 177351, Note_on_c, 0, 75, 96
1, 177358, Note_on_c, 0, 82, 84
1, 177368, Note_on_c, 0, 46, 12
1, 177386, Note_on_c, 0, 41, 51
1, 177389, Control_c, 0, 64, 69
1, 177389, Note_off_c, 0, 46, 47
1, 177403, Control_c, 0, 64, 127
1, 177414, Note_off_c, 0, 41, 55
1, 177424, Note_off_c, 0, 42, 63
1, 177428, Note_off_c, 0, 85, 66
1, 177438, Note_off_c, 0, 73, 60
1, 177443, Note_off_c, 0, 54, 56
1, 177447, Note_off_c, 0, 82, 54
1, 177457, Note_off_c, 0, 75, 65
1, 177464, Poly_aftertouch_c, 0, 79, 0
1, 177705, Note_on_c, 0, 54, 65
1, 177711, Note_on_c, 0, 63, 68
1, 177717, Note_on_c, 0, 58, 62
1, 177768, Note_off_c, 0, 58, 56
1, 177774, Note_off_c, 0, 54, 57
1, 177783, Note_on_c, 0, 66, 76
1, 177785, Note_off_c, 0, 63, 60
1, 177819, Note_on_c, 0, 72, 110
1, 177819, Note_on_c, 0, 84, 110
1, 177854, Note_off_c, 0, 66, 59
1, 177856, Note_on_c, 0, 63, 57
1, 177859, Note_on_c, 0, 54, 77
1, 177863, Note_on_c, 0, 58, 68
1, 177923, Note_off_c, 0, 63, 50
1, 177931, Note_on_c, 0, 66, 75
1, 177935, Note_off_c, 0, 58, 58
1, 177941, Note_off_c, 0, 54, 56
1, 177959, Note_off_c, 0, 72, 52
1, 177971, Note_off_c, 0, 84, 57
1, 177993, Note_off_c, 0, 66, 59
1, 177999, Note_on_c, 0, 63, 70
1, 178006, Note_on_c, 0, 54, 58
1, 178012, Note_on_c, 0, 58, 54
1, 178052, Note_off_c, 0, 58, 54
1, 178060, Note_on_c, 0, 66, 78
1, 178064, Note_off_c, 0, 63, 60
1, 178067, Note_off_c, 0, 54, 55
1, 178124, Note_on_c, 0, 63, 72
1, 178129, Note_off_c, 0, 66, 59
1, 178142, Note_on_c, 0, 54, 65
1, 178142, Note_on_c, 0, 58, 60
1, 178175, Note_off_c, 0, 58, 60
1, 178196, Note_on_c, 0, 66, 85
1, 178201, Note_off_c, 0, 63, 60
1, 178215, Note_on_c, 0, 82, 99
1, 178217, Note_on_c, 0, 70, 123
1, 178229, Note_on_c, 0, 63, 69
1, 178234, Note_on_c, 0, 80, 75
1, 178235, Note_off_c, 0, 80, 127
1, 178251, Note_off_c, 0, 66, 62
1, 178252, Note_on_c, 0, 58, 67
1, 178284, Note_off_c, 0, 58, 54
1, 178290, Note_off_c, 0, 70, 64
1, 178307, Note_off_c, 0, 63, 60
1, 178309, Note_off_c, 0, 82, 57
1, 178319, Note_on_c, 0, 66, 72
1, 178333, Note_off_c, 0, 54, 61
1, 178342, Note_off_c, 0, 66, 66
1, 178522, Note_on_c, 0, 46, 83
1, 178546, Note_on_c, 0, 44, 45
1, 178547, Note_off_c, 0, 44, 127
1, 178590, Note_on_c, 0, 53, 78
1, 178620, Poly_aftertouch_c, 0, 50, 127
1, 178656, Poly_aftertouch_c, 0, 50, 0
1, 178686, Note_on_c, 0, 77, 103
1, 178686, Note_on_c, 0, 89, 107
1, 178688, Note_on_c, 0, 61, 98
1, 178689, Note_on_c, 0, 82, 100
1, 178709, Control_c, 0, 64, 70
1, 178716, Note_on_c, 0, 88, 68
1, 178724, Control_c, 0, 64, 0
1, 178736, Note_off_c, 0, 88, 63
1, 178768, Control_c, 0, 64, 46
1, 178783, Control_c, 0, 64, 82
1, 178798, Control_c, 0, 64, 127
1, 178818, Note_off_c, 0, 89, 60
1, 178839, Note_off_c, 0, 77, 57
1, 178860, Note_off_c, 0, 61, 60
1, 178868, Note_off_c, 0, 82, 62
1, 178891, Note_off_c, 0, 53, 60
1, 178912, Note_off_c, 0, 46, 60
1, 179253, Note_on_c, 0, 42, 95
1, 179262, Note_on_c, 0, 54, 101
1, 179264, Note_on_c, 0, 66, 99
1, 179304, Note_on_c, 0, 63, 31
1, 179341, Note_on_c, 0, 41, 3
1, 179346, Note_off_c, 0, 63, 54
1, 179353, Note_on_c, 0, 62, 3
1, 179384, Note_off_c, 0, 41, 48
1, 179393, Note_off_c, 0, 62, 36
1, 179439, Note_on_c, 0, 49, 58
1, 179470, Note_on_c, 0, 58, 62
1, 179553, Note_off_c, 0, 58, 61
1, 179555, Note_on_c, 0, 61, 65
1, 179559, Note_on_c, 0, 46, 59
1, 179600, Note_off_c, 0, 54, 50
1, 179607, Note_off_c, 0, 66, 41
1, 179619, Note_on_c, 0, 58, 60
1, 179640, Note_off_c, 0, 49, 38
1, 179644, Note_off_c, 0, 42, 51
1, 179687, Note_off_c, 0, 46, 61
1, 179687, Note_off_c, 0, 61, 62
1, 179709, Note_on_c, 0, 41, 99
1, 179711, Note_on_c, 0, 53, 95
1, 179711, Note_on_c, 0, 65, 97
1, 179739, Control_c, 0, 64, 80
1, 179743, Note_off_c, 0, 58, 56
1, 179754, Control_c, 0, 64, 61
1, 179769, Control_c, 0, 64, 49
1, 179784, Control_c, 0, 64, 62
1, 179798, Control_c, 0, 64, 74
1, 179813, Control_c, 0, 64, 117
1, 179828, Control_c, 0, 64, 127
1, 179866, Note_on_c, 0, 58, 70
1, 179904, Poly_aftertouch_c, 0, 48, 127
1, 179920, Note_on_c, 0, 46, 63
1, 179930, Note_on_c, 0, 61, 75
1, 179936, Note_off_c, 0, 65, 54
1, 179942, Note_off_c, 0, 58, 59
1, 179944, Note_off_c, 0, 41, 57
1, 179984, Poly_aftertouch_c, 0, 44, 127
1, 179987, Note_on_c, 0, 58, 58
1, 179987, Poly_aftertouch_c, 0, 48, 0
1, 179989, Note_off_c, 0, 53, 55
1, 180034, Poly_aftertouch_c, 0, 44, 0
1, 180034, Note_off_c, 0, 61, 61
1, 180039, Note_off_c, 0, 46, 61
1, 180077, Note_on_c, 0, 40, 103
1, 180081, Note_on_c, 0, 52, 96
1, 180082, Note_on_c, 0, 64, 95
1, 180105, Note_off_c, 0, 58, 51
1, 180210, Note_on_c, 0, 58, 72
1, 180257, Note_on_c, 0, 46, 67
1, 180260, Note_off_c, 0, 52, 55
1, 180278, Note_off_c, 0, 64, 58
1, 180279, Note_on_c, 0, 61, 76
1, 180285, Note_off_c, 0, 58, 62
1, 180293, Poly_aftertouch_c, 0, 44, 127
1, 180328, Note_off_c, 0, 40, 57
1, 180339, Note_on_c, 0, 58, 64
1, 180391, Note_off_c, 0, 46, 61
1, 180392, Note_off_c, 0, 61, 62
1, 180400, Poly_aftertouch_c, 0, 44, 0
1, 180404, Note_off_c, 0, 58, 63
1, 180404, Poly_aftertouch_c, 0, 62, 0
1, 180427, Note_on_c, 0, 41, 102
1, 180429, Control_c, 0, 64, 91
1, 180430, Note_on_c, 0, 65, 98
1, 180431, Note_on_c, 0, 53, 104
1, 180444, Control_c, 0, 64, 60
1, 180458, Control_c, 0, 64, 0
1, 180463, Note_on_c, 0, 62, 40
1, 180478, Note_on_c, 0, 48, 26
1, 180479, Note_off_c, 0, 48, 127
1, 180495, Note_off_c, 0, 62, 51
1, 180503, Control_c, 0, 64, 68
1, 180518, Control_c, 0, 64, 91
1, 180532, Control_c, 0, 64, 127
1, 180547, Note_on_c, 0, 58, 54
1, 180564, Note_on_c, 0, 44, 27
1, 180576, Note_off_c, 0, 53, 59
1, 180580, Note_on_c, 0, 46, 71
1, 180598, Note_off_c, 0, 65, 54
1, 180618, Note_off_c, 0, 58, 63
1, 180619, Note_off_c, 0, 41, 60
1, 180621, Note_on_c, 0, 61, 75
1, 180662, Note_on_c, 0, 49, 76
1, 180662, Note_on_c, 0, 58, 63
1, 180671, Note_off_c, 0, 46, 61
1, 180680, Note_off_c, 0, 61, 63
1, 180687, Note_off_c, 0, 44, 35
1, 180739, Note_off_c, 0, 58, 62
1, 180760, Note_off_c, 0, 49, 60
1, 180800, Note_on_c, 0, 37, 107
1, 180808, Note_on_c, 0, 49, 101
1, 180817, Note_on_c, 0, 61, 100
1, 180860, Note_on_c, 0, 53, 47
1, 180891, Note_on_c, 0, 58, 35
1, 180898, Note_off_c, 0, 49, 63
1, 180919, Note_on_c, 0, 41, 74
1, 180925, Note_off_c, 0, 53, 64
1, 180935, Note_off_c, 0, 61, 59
1, 180945, Note_off_c, 0, 37, 57
1, 180948, Note_off_c, 0, 58, 61
1, 180973, Note_on_c, 0, 46, 90
1, 180981, Note_off_c, 0, 41, 62
1, 181031, Note_on_c, 0, 41, 77
1, 181042, Note_off_c, 0, 46, 62
1, 181088, Note_on_c, 0, 46, 81
1, 181111, Note_off_c, 0, 41, 60
1, 181210, Note_off_c, 0, 46, 58
1, 181241, Note_on_c, 0, 73, 102
1, 181241, Note_on_c, 0, 85, 102
1, 181279, Note_off_c, 0, 85, 67
1, 181281, Note_off_c, 0, 73, 63
1, 181336, Poly_aftertouch_c, 0, 34, 0
1, 181341, Control_c, 0, 64, 101
1, 181342, Note_on_c, 0, 46, 108
1, 181345, Note_on_c, 0, 34, 71
1, 181348, Note_on_c, 0, 85, 116
1, 181349, Note_on_c, 0, 73, 108
1, 181355, Note_on_c, 0, 78, 100
1, 181355, Control_c, 0, 64, 57
1, 181370, Control_c, 0, 64, 0
1, 181371, Note_on_c, 0, 82, 70
1, 181401, Note_off_c, 0, 82, 63
1, 181409, Note_off_c, 0, 34, 60
1, 181414, Control_c, 0, 64, 76
1, 181428, Note_off_c, 0, 46, 65
1, 181429, Control_c, 0, 64, 127
1, 181458, Note_off_c, 0, 73, 59
1, 181467, Note_off_c, 0, 85, 58
1, 181492, Note_off_c, 0, 78, 61
1, 181753, Note_on_c, 0, 63, 70
1, 181774, Note_on_c, 0, 54, 54
1, 181778, Note_on_c, 0, 58, 56
1, 181818, Note_off_c, 0, 54, 61
1, 181828, Note_off_c, 0, 58, 57
1, 181838, Note_on_c, 0, 66, 74
1, 181840, Note_off_c, 0, 63, 60
1, 181888, Note_on_c, 0, 84, 107
1, 181888, Note_on_c, 0, 72, 103
1, 181902, Note_on_c, 0, 74, 72
1, 181903, Note_off_c, 0, 66, 57
1, 181913, Note_on_c, 0, 54, 74
1, 181913, Note_on_c, 0, 63, 56
1, 181914, Note_on_c, 0, 58, 71
1, 181919, Note_off_c, 0, 74, 43
1, 181968, Note_off_c, 0, 63, 55
1, 181970, Note_on_c, 0, 66, 78
1, 181982, Note_off_c, 0, 58, 61
1, 181989, Note_off_c, 0, 54, 60
1, 182041, Note_off_c, 0, 66, 59
1, 182051, Note_on_c, 0, 63, 68
1, 182054, Note_on_c, 0, 54, 62
1, 182059, Note_on_c, 0, 58, 57
1, 182090, Note_off_c, 0, 72, 65
1, 182102, Note_on_c, 0, 66, 81
1, 182102, Note_off_c, 0, 84, 57
1, 182107, Note_off_c, 0, 58, 53
1, 182112, Note_off_c, 0, 63, 60
1, 182123, Note_off_c, 0, 54, 57
1, 182172, Note_on_c, 0, 63, 68
1, 182180, Note_off_c, 0, 66, 58
1, 182187, Note_on_c, 0, 54, 64
1, 182189, Note_on_c, 0, 58, 68
1, 182232, Note_on_c, 0, 66, 82
1, 182234, Note_off_c, 0, 58, 50
1, 182243, Note_on_c, 0, 82, 110
1, 182245, Note_on_c, 0, 70, 105
1, 182249, Note_off_c, 0, 63, 60
1, 182260, Note_on_c, 0, 84, 80
1, 182263, Note_on_c, 0, 83, 75
1, 182268, Note_off_c, 0, 54, 0
1, 182287, Note_on_c, 0, 63, 63
1, 182296, Note_off_c, 0, 70, 67
1, 182300, Note_off_c, 0, 66, 62
1, 182312, Poly_aftertouch_c, 0, 54, 127
1, 182320, Note_on_c, 0, 58, 61
1, 182336, Note_off_c, 0, 82, 58
1, 182336, Note_off_c, 0, 83, 59
1, 182338, Note_off_c, 0, 84, 61
1, 182358, Note_off_c, 0, 58, 54
1, 182359, Poly_aftertouch_c, 0, 71, 127
1, 182360, Note_on_c, 0, 66, 85
1, 182362, Note_off_c, 0, 63, 61
1, 182386, Note_off_c, 0, 66, 64
1, 182396, Poly_aftertouch_c, 0, 54, 0
1, 182397, Poly_aftertouch_c, 0, 71, 0
1, 182614, Note_on_c, 0, 73, 104
1, 182615, Note_on_c, 0, 85, 106
1, 182618, Note_on_c, 0, 51, 107
1, 182621, Note_on_c, 0, 75, 93
1, 182622, Note_on_c, 0, 39, 96
1, 182630, Control_c, 0, 64, 72
1, 182635, Note_on_c, 0, 80, 65
1, 182646, Control_c, 0, 64, 0
1, 182669, Note_off_c, 0, 80, 54
1, 182690, Note_off_c, 0, 39, 63
1, 182690, Control_c, 0, 64, 80
1, 182705, Control_c, 0, 64, 127
1, 182710, Note_off_c, 0, 51, 61
1, 182723, Note_off_c, 0, 85, 62
1, 182729, Note_off_c, 0, 73, 61
1, 182747, Note_off_c, 0, 75, 63
1, 182952, Note_on_c, 0, 54, 68
1, 182958, Note_on_c, 0, 57, 67
1, 183031, Note_on_c, 0, 63, 81
1, 183031, Note_off_c, 0, 54, 59
1, 183043, Note_off_c, 0, 57, 59
1, 183074, Note_on_c, 0, 71, 103
1, 183075, Note_on_c, 0, 83, 101
1, 183110, Note_on_c, 0, 54, 80
1, 183120, Note_on_c, 0, 57, 66
1, 183123, Note_on_c, 0, 81, 29
1, 183123, Note_off_c, 0, 63, 60
1, 183160, Note_off_c, 0, 81, 54
1, 183198, Note_on_c, 0, 63, 77
1, 183213, Note_off_c, 0, 54, 60
1, 183214, Note_off_c, 0, 57, 59
1, 183287, Note_on_c, 0, 54, 64
1, 183294, Note_on_c, 0, 57, 60
1, 183300, Note_off_c, 0, 63, 60
1, 183358, Note_on_c, 0, 63, 72
1, 183370, Note_off_c, 0, 54, 58
1, 183381, Note_off_c, 0, 57, 58
1, 183417, Note_off_c, 0, 71, 59
1, 183447, Note_off_c, 0, 83, 49
1, 183458, Note_on_c, 0, 57, 63
1, 183460, Note_off_c, 0, 63, 59
1, 183467, Note_on_c, 0, 54, 62
1, 183503, Note_off_c, 0, 54, 58
1, 183524, Note_on_c, 0, 63, 78
1, 183526, Note_off_c, 0, 57, 60
1, 183527, Note_on_c, 0, 82, 111
1, 183530, Note_on_c, 0, 70, 99
1, 183578, Note_on_c, 0, 54, 79
1, 183587, Note_on_c, 0, 57, 68
1, 183592, Note_off_c, 0, 63, 60
1, 183641, Note_off_c, 0, 70, 61
1, 183643, Note_off_c, 0, 54, 60
1, 183646, Note_off_c, 0, 82, 60
1, 183657, Note_on_c, 0, 63, 73
1, 183660, Note_off_c, 0, 57, 61
1, 183688, Note_off_c, 0, 63, 65
1, 183813, Note_on_c, 0, 46, 87
1, 183876, Note_on_c, 0, 53, 74
1, 183982, Note_on_c, 0, 77, 99
1, 183983, Note_on_c, 0, 65, 102
1, 183986, Note_on_c, 0, 61, 95
1, 183987, Note_on_c, 0, 70, 94
1, 184024, Control_c, 0, 64, 83
1, 184039, Control_c, 0, 64, 42
1, 184054, Control_c, 0, 64, 0
1, 184127, Control_c, 0, 64, 67
1, 184142, Control_c, 0, 64, 86
1, 184157, Control_c, 0, 64, 127
1, 184166, Note_off_c, 0, 77, 56
1, 184169, Note_off_c, 0, 61, 63
1, 184191, Note_off_c, 0, 65, 56
1, 184198, Note_off_c, 0, 53, 61
1, 184209, Note_off_c, 0, 46, 61
1, 184222, Note_off_c, 0, 70, 60
1, 184517, Note_on_c, 0, 49, 104
1, 184524, Note_on_c, 0, 37, 81
1, 184549, Note_on_c, 0, 61, 65
1, 184573, Note_on_c, 0, 53, 45
1, 184588, Note_on_c, 0, 58, 38
1, 184668, Note_off_c, 0, 58, 54
1, 184678, Note_on_c, 0, 65, 65
1, 184692, Note_off_c, 0, 53, 58
1, 184693, Note_off_c, 0, 37, 58
1, 184699, Note_off_c, 0, 49, 61
1, 184767, Note_off_c, 0, 61, 0
1, 184773, Poly_aftertouch_c, 0, 64, 127
1, 184784, Note_on_c, 0, 61, 37
1, 184792, Note_on_c, 0, 53, 42
1, 184796, Note_on_c, 0, 58, 56
1, 184804, Note_off_c, 0, 65, 55
1, 184813, Poly_aftertouch_c, 0, 64, 0
1, 184880, Note_off_c, 0, 53, 58
1, 184892, Note_off_c, 0, 58, 59
1, 184895, Note_on_c, 0, 48, 102
1, 184901, Note_on_c, 0, 65, 60
1, 184902, Note_on_c, 0, 36, 92
1, 184913, Note_off_c, 0, 61, 50
1, 184917, Note_on_c, 0, 47, 61
1, 184918, Note_off_c, 0, 47, 127
1, 184951, Control_c, 0, 64, 91
1, 184966, Control_c, 0, 64, 69
1, 184981, Control_c, 0, 64, 60
1, 184984, Poly_aftertouch_c, 0, 37, 0
1, 184989, Note_off_c, 0, 65, 57
1, 184996, Control_c, 0, 64, 65
1, 185011, Control_c, 0, 64, 76
1, 185015, Note_on_c, 0, 61, 42
1, 185017, Note_on_c, 0, 53, 52
1, 185025, Note_on_c, 0, 58, 56
1, 185026, Control_c, 0, 64, 127
1, 185107, Note_on_c, 0, 65, 74
1, 185120, Note_off_c, 0, 53, 58
1, 185122, Note_off_c, 0, 36, 62
1, 185124, Note_off_c, 0, 48, 62
1, 185143, Note_on_c, 0, 64, 37
1, 185196, Note_off_c, 0, 64, 43
1, 185200, Note_off_c, 0, 58, 0
1, 185215, Note_off_c, 0, 65, 56
1, 185219, Note_on_c, 0, 58, 24
1, 185224, Note_on_c, 0, 53, 66
1, 185271, Note_on_c, 0, 46, 103
1, 185274, Note_on_c, 0, 34, 91
1, 185322, Note_off_c, 0, 53, 58
1, 185334, Note_on_c, 0, 65, 67
1, 185355, Note_off_c, 0, 58, 49
1, 185399, Note_on_c, 0, 64, 3
1, 185432, Note_on_c, 0, 58, 48
1, 185435, Note_off_c, 0, 65, 52
1, 185437, Note_off_c, 0, 34, 60
1, 185441, Note_off_c, 0, 64, 48
1, 185444, Note_on_c, 0, 53, 65
1, 185444, Note_off_c, 0, 46, 61
1, 185558, Note_on_c, 0, 65, 66
1, 185572, Note_off_c, 0, 53, 60
1, 185590, Note_on_c, 0, 64, 31
1, 185600, Note_off_c, 0, 58, 58
1, 185671, Note_on_c, 0, 45, 104
1, 185678, Note_on_c, 0, 33, 90
1, 185685, Note_off_c, 0, 64, 36
1, 185691, Note_off_c, 0, 65, 52
1, 185706, Note_on_c, 0, 53, 51
1, 185712, Note_on_c, 0, 58, 62
1, 185753, Poly_aftertouch_c, 0, 39, 127
1, 185759, Control_c, 0, 64, 89
1, 185774, Control_c, 0, 64, 64
1, 185788, Control_c, 0, 64, 0
1, 185790, Note_off_c, 0, 53, 57
1, 185793, Poly_aftertouch_c, 0, 39, 0
1, 185802, Note_off_c, 0, 58, 54
1, 185819, Note_on_c, 0, 65, 68
1, 185834, Control_c, 0, 64, 57
1, 185849, Control_c, 0, 64, 76
1, 185849, Note_off_c, 0, 61, 40
1, 185864, Control_c, 0, 64, 127
1, 185897, Poly_aftertouch_c, 0, 64, 127
1, 185909, Note_on_c, 0, 53, 73
1, 185919, Note_off_c, 0, 65, 58
1, 185920, Note_on_c, 0, 61, 49
1, 185927, Note_on_c, 0, 58, 64
1, 185930, Note_off_c, 0, 33, 60
1, 185938, Poly_aftertouch_c, 0, 64, 0
1, 185948, Note_off_c, 0, 45, 58
1, 185994, Note_on_c, 0, 65, 73
1, 186006, Note_off_c, 0, 53, 57
1, 186023, Note_off_c, 0, 58, 57
1, 186063, Note_on_c, 0, 64, 32
1, 186088, Note_off_c, 0, 65, 60
1, 186094, Note_on_c, 0, 46, 105
1, 186096, Note_on_c, 0, 34, 88
1, 186096, Note_off_c, 0, 64, 53
1, 186098, Note_on_c, 0, 53, 71
1, 186104, Note_on_c, 0, 58, 52
1, 186115, Note_on_c, 0, 44, 64
1, 186143, Note_off_c, 0, 44, 37
1, 186166, Note_on_c, 0, 65, 71
1, 186168, Note_off_c, 0, 53, 61
1, 186186, Note_off_c, 0, 34, 60
1, 186186, Note_off_c, 0, 58, 62
1, 186189, Note_off_c, 0, 46, 62
1, 186192, Note_off_c, 0, 65, 66
1, 186204, Note_off_c, 0, 61, 49
1, 186508, Note_on_c, 0, 77, 80
1, 186510, Note_on_c, 0, 76, 78
1, 186511, Note_on_c, 0, 73, 88
1, 186555, Note_off_c, 0, 73, 63
1, 186556, Note_off_c, 0, 77, 58
1, 186559, Note_off_c, 0, 76, 61
1, 186603, Note_on_c, 0, 77, 99
1, 186606, Note_on_c, 0, 73, 103
1, 186606, Note_on_c, 0, 54, 97
1, 186607, Note_on_c, 0, 39, 89
1, 186627, Control_c, 0, 64, 84
1, 186642, Control_c, 0, 64, 55
1, 186657, Control_c, 0, 64, 0
1, 186731, Control_c, 0, 64, 67
1, 186746, Control_c, 0, 64, 91
1, 186760, Control_c, 0, 64, 127
1, 186808, Note_off_c, 0, 39, 59
1, 186840, Note_off_c, 0, 77, 61
1, 186860, Note_off_c, 0, 73, 63
1, 186866, Note_off_c, 0, 54, 59
1, 187009, Note_on_c, 0, 63, 64
1, 187133, Note_on_c, 0, 75, 100
1, 187137, Note_on_c, 0, 71, 80
1, 187138, Note_on_c, 0, 66, 42
1, 187153, Note_off_c, 0, 63, 62
1, 187156, Note_on_c, 0, 57, 61
1, 187168, Note_off_c, 0, 66, 55
1, 187181, Note_on_c, 0, 73, 36
1, 187209, Note_off_c, 0, 73, 55
1, 187235, Note_on_c, 0, 58, 63
1, 187244, Note_off_c, 0, 57, 49
1, 187277, Note_off_c, 0, 71, 46
1, 187285, Note_on_c, 0, 66, 59
1, 187324, Note_on_c, 0, 59, 57
1, 187334, Note_off_c, 0, 58, 62
1, 187357, Note_off_c, 0, 59, 63
1, 187360, Note_on_c, 0, 60, 80
1, 187380, Note_off_c, 0, 75, 58
1, 187426, Note_off_c, 0, 60, 62
1, 187458, Note_on_c, 0, 61, 74
1, 187474, Note_on_c, 0, 74, 99
1, 187487, Note_on_c, 0, 70, 77
1, 187503, Note_off_c, 0, 66, 61
1, 187517, Note_off_c, 0, 61, 62
1, 187517, Note_off_c, 0, 70, 61
1, 187524, Note_on_c, 0, 62, 78
1, 187557, Note_off_c, 0, 74, 63
1, 187587, Note_off_c, 0, 62, 58
1, 187605, Note_on_c, 0, 63, 66
1, 187617, Note_on_c, 0, 61, 73
1, 187644, Note_off_c, 0, 63, 61
1, 187668, Note_off_c, 0, 61, 64
1, 187677, Note_on_c, 0, 62, 80
1, 187695, Note_off_c, 0, 62, 69
1, 187815, Poly_aftertouch_c, 0, 62, 127
1, 187833, Note_on_c, 0, 42, 75
1, 187843, Poly_aftertouch_c, 0, 62, 0
1, 187852, Note_on_c, 0, 77, 96
1, 187859, Note_on_c, 0, 40, 45
1, 187864, Note_on_c, 0, 73, 84
1, 187880, Note_on_c, 0, 41, 35
1, 187894, Note_off_c, 0, 40, 53
1, 187901, Control_c, 0, 64, 88
1, 187915, Note_off_c, 0, 41, 52
1, 187916, Control_c, 0, 64, 57
1, 187931, Control_c, 0, 64, 0
1, 187990, Control_c, 0, 64, 72
1, 188005, Control_c, 0, 64, 109
1, 188019, Control_c, 0, 64, 127
1, 188029, Note_off_c, 0, 77, 60
1, 188046, Note_off_c, 0, 42, 59
1, 188079, Note_off_c, 0, 73, 64
1, 188124, Note_on_c, 0, 63, 79
1, 188198, Note_on_c, 0, 66, 65
1, 188243, Note_off_c, 0, 63, 57
1, 188262, Note_on_c, 0, 75, 94
1, 188264, Note_on_c, 0, 54, 66
1, 188265, Note_on_c, 0, 72, 80
1, 188279, Note_off_c, 0, 66, 61
1, 188323, Note_off_c, 0, 54, 61
1, 188331, Note_on_c, 0, 55, 59
1, 188356, Poly_aftertouch_c, 0, 73, 127
1, 188408, Note_on_c, 0, 66, 63
1, 188415, Note_off_c, 0, 72, 56
1, 188416, Note_off_c, 0, 55, 63
1, 188419, Note_on_c, 0, 56, 69
1, 188462, Note_off_c, 0, 56, 58
1, 188475, Note_on_c, 0, 57, 75
1, 188491, Poly_aftertouch_c, 0, 73, 0
1, 188514, Note_off_c, 0, 75, 60
1, 188518, Note_on_c, 0, 63, 62
1, 188529, Note_off_c, 0, 57, 60
1, 188559, Note_on_c, 0, 58, 74
1, 188606, Note_on_c, 0, 59, 59
1, 188611, Note_off_c, 0, 66, 0
1, 188622, Note_on_c, 0, 73, 96
1, 188636, Note_on_c, 0, 70, 72
1, 188645, Note_off_c, 0, 58, 61
1, 188648, Poly_aftertouch_c, 0, 66, 127
1, 188663, Note_off_c, 0, 63, 60
1, 188679, Note_on_c, 0, 60, 66
1, 188711, Poly_aftertouch_c, 0, 66, 0
1, 188743, Note_off_c, 0, 70, 58
1, 188745, Note_off_c, 0, 60, 49
1, 188761, Note_on_c, 0, 58, 75
1, 188766, Note_off_c, 0, 59, 62
1, 188782, Note_off_c, 0, 73, 61
1, 188809, Note_off_c, 0, 58, 60
1, 188840, Note_on_c, 0, 57, 74
1, 188902, Note_off_c, 0, 57, 57
1, 188943, Note_on_c, 0, 46, 76
1, 188997, Note_on_c, 0, 53, 69
1, 189022, Note_on_c, 0, 49, 8
1, 189075, Note_off_c, 0, 49, 51
1, 189100, Note_on_c, 0, 77, 96
1, 189107, Note_on_c, 0, 61, 79
1, 189108, Note_on_c, 0, 65, 71
1, 189110, Note_on_c, 0, 70, 75
1, 189147, Control_c, 0, 64, 88
1, 189161, Control_c, 0, 64, 64
1, 189176, Control_c, 0, 64, 0
1, 189235, Control_c, 0, 64, 66
1, 189250, Control_c, 0, 64, 86
1, 189265, Control_c, 0, 64, 127
1, 189277, Note_off_c, 0, 61, 62
1, 189298, Note_off_c, 0, 65, 45
1, 189304, Note_off_c, 0, 77, 61
1, 189314, Note_off_c, 0, 53, 62
1, 189328, Note_off_c, 0, 70, 61
1, 189339, Note_off_c, 0, 46, 60
1, 189562, Poly_aftertouch_c, 0, 63, 127
1, 189564, Note_on_c, 0, 42, 86
1, 189611, Poly_aftertouch_c, 0, 63, 0
1, 189613, Note_on_c, 0, 53, 46
1, 189613, Note_on_c, 0, 61, 50
1, 189624, Note_on_c, 0, 58, 37
1, 189649, Poly_aftertouch_c, 0, 39, 0
1, 189675, Note_off_c, 0, 58, 49
1, 189715, Note_off_c, 0, 61, 55
1, 189718, Note_off_c, 0, 53, 56
1, 189725, Note_on_c, 0, 65, 61
1, 189832, Note_off_c, 0, 65, 55
1, 189833, Note_on_c, 0, 53, 51
1, 189835, Note_on_c, 0, 58, 50
1, 189837, Note_on_c, 0, 61, 53
1, 189847, Note_off_c, 0, 42, 54
1, 189923, Note_off_c, 0, 58, 58
1, 189926, Note_off_c, 0, 53, 59
1, 189933, Note_on_c, 0, 65, 63
1, 189954, Note_on_c, 0, 41, 84
1, 189970, Note_off_c, 0, 61, 36
1, 189999, Control_c, 0, 64, 98
1, 190014, Control_c, 0, 64, 66
1, 190028, Note_off_c, 0, 65, 57
1, 190029, Control_c, 0, 64, 0
1, 190031, Note_on_c, 0, 61, 24
1, 190047, Note_on_c, 0, 53, 46
1, 190055, Note_on_c, 0, 58, 41
1, 190058, Control_c, 0, 64, 53
1, 190073, Control_c, 0, 64, 69
1, 190088, Control_c, 0, 64, 89
1, 190103, Control_c, 0, 64, 127
1, 190104, Note_off_c, 0, 53, 55
1, 190107, Note_off_c, 0, 58, 54
1, 190127, Note_on_c, 0, 65, 72
1, 190189, Note_off_c, 0, 41, 61
1, 190208, Note_on_c, 0, 53, 59
1, 190212, Note_on_c, 0, 58, 57
1, 190218, Note_off_c, 0, 65, 57
1, 190285, Note_off_c, 0, 53, 60
1, 190300, Note_on_c, 0, 40, 88
1, 190303, Note_on_c, 0, 65, 66
1, 190308, Note_off_c, 0, 58, 58
1, 190406, Note_off_c, 0, 65, 57
1, 190414, Control_c, 0, 64, 80
1, 190416, Note_on_c, 0, 53, 56
1, 190428, Control_c, 0, 64, 64
1, 190434, Note_on_c, 0, 58, 44
1, 190443, Control_c, 0, 64, 50
1, 190458, Control_c, 0, 64, 53
1, 190473, Control_c, 0, 64, 64
1, 190481, Note_off_c, 0, 53, 57
1, 190487, Note_off_c, 0, 58, 56
1, 190488, Control_c, 0, 64, 77
1, 190499, Note_on_c, 0, 65, 65
1, 190502, Control_c, 0, 64, 127
1, 190568, Note_off_c, 0, 40, 61
1, 190600, Note_on_c, 0, 53, 48
1, 190601, Note_off_c, 0, 65, 56
1, 190610, Note_on_c, 0, 58, 43
1, 190677, Note_off_c, 0, 53, 55
1, 190686, Note_on_c, 0, 65, 50
1, 190693, Note_on_c, 0, 41, 81
1, 190712, Note_off_c, 0, 58, 48
1, 190778, Note_off_c, 0, 65, 50
1, 190778, Control_c, 0, 64, 82
1, 190792, Control_c, 0, 64, 63
1, 190807, Control_c, 0, 64, 0
1, 190818, Poly_aftertouch_c, 0, 58, 127
1, 190821, Note_on_c, 0, 53, 40
1, 190837, Control_c, 0, 64, 27
1, 190851, Control_c, 0, 64, 61
1, 190866, Control_c, 0, 64, 75
1, 190875, Note_off_c, 0, 53, 59
1, 190881, Control_c, 0, 64, 115
1, 190886, Note_on_c, 0, 65, 62
1, 190896, Control_c, 0, 64, 127
1, 190952, Note_off_c, 0, 65, 58
1, 190967, Note_on_c, 0, 53, 54
1, 191039, Note_off_c, 0, 53, 61
1, 191042, Note_on_c, 0, 65, 57
1, 191067, Note_off_c, 0, 41, 34
1, 191074, Note_off_c, 0, 65, 63
1, 191090, Poly_aftertouch_c, 0, 58, 0
1, 191100, Note_off_c, 0, 61, 43
1, 191125, Note_on_c, 0, 37, 82
1, 191480, Note_on_c, 0, 73, 86
1, 191487, Note_on_c, 0, 61, 78
1, 191539, Note_off_c, 0, 61, 59
1, 191549, Note_off_c, 0, 73, 59
1, 191583, Note_on_c, 0, 34, 69
1, 191598, Note_on_c, 0, 73, 81
1, 191612, Note_on_c, 0, 61, 74
1, 191615, Control_c, 0, 64, 74
1, 191629, Note_off_c, 0, 37, 55
1, 191630, Control_c, 0, 64, 44
1, 191645, Control_c, 0, 64, 0
1, 191704, Control_c, 0, 64, 56
1, 191719, Control_c, 0, 64, 71
1, 191734, Control_c, 0, 64, 91
1, 191746, Note_off_c, 0, 34, 61
1, 191748, Control_c, 0, 64, 127
1, 191899, Note_off_c, 0, 73, 60
1, 191901, Note_on_c, 0, 63, 61
1, 191909, Note_off_c, 0, 61, 57
1, 191970, Note_off_c, 0, 63, 59
1, 191987, Note_on_c, 0, 66, 59
1, 192065, Note_on_c, 0, 63, 55
1, 192136, Note_on_c, 0, 50, 46
1, 192141, Note_on_c, 0, 53, 52
1, 192142, Note_on_c, 0, 71, 82
1, 192148, Note_on_c, 0, 59, 60
1, 192185, Note_off_c, 0, 63, 49
1, 192267, Note_on_c, 0, 51, 15
1, 192277, Note_off_c, 0, 66, 28
1, 192294, Note_on_c, 0, 54, 52
1, 192306, Note_off_c, 0, 50, 60
1, 192318, Note_off_c, 0, 51, 45
1, 192344, Note_off_c, 0, 53, 61
1, 192359, Note_on_c, 0, 55, 66
1, 192370, Note_off_c, 0, 59, 58
1, 192373, Note_off_c, 0, 54, 59
1, 192374, Note_off_c, 0, 71, 61
1, 192404, Note_on_c, 0, 66, 22
1, 192423, Poly_aftertouch_c, 0, 63, 127
1, 192449, Note_off_c, 0, 55, 59
1, 192449, Note_off_c, 0, 66, 46
1, 192464, Poly_aftertouch_c, 0, 63, 0
1, 192472, Note_on_c, 0, 53, 52
1, 192486, Note_on_c, 0, 56, 50
1, 192486, Note_on_c, 0, 70, 81
1, 192499, Note_on_c, 0, 58, 69
1, 192509, Note_on_c, 0, 54, 48
1, 192509, Note_off_c, 0, 53, 59
1, 192539, Note_off_c, 0, 56, 57
1, 192544, Note_off_c, 0, 58, 58
1, 192556, Note_off_c, 0, 54, 60
1, 192566, Note_on_c, 0, 57, 66
1, 192600, Note_off_c, 0, 70, 59
1, 192631, Note_off_c, 0, 57, 59
1, 192642, Note_on_c, 0, 56, 67
1, 192683, Note_on_c, 0, 53, 45
1, 192702, Note_off_c, 0, 56, 59
1, 192717, Note_off_c, 0, 53, 51
1, 192849, Note_on_c, 0, 39, 68
1, 192911, Note_on_c, 0, 73, 84
1, 192924, Note_on_c, 0, 61, 63
1, 192935, Control_c, 0, 64, 94
1, 192949, Control_c, 0, 64, 68
1, 192964, Control_c, 0, 64, 0
1, 193039, Control_c, 0, 64, 59
1, 193054, Control_c, 0, 64, 72
1, 193059, Note_off_c, 0, 39, 61
1, 193069, Control_c, 0, 64, 98
1, 193084, Control_c, 0, 64, 127
1, 193143, Note_off_c, 0, 61, 59
1, 193155, Note_on_c, 0, 63, 59
1, 193230, Note_off_c, 0, 63, 56
1, 193245, Note_on_c, 0, 66, 54
1, 193281, Note_off_c, 0, 73, 56
1, 193358, Note_on_c, 0, 72, 79
1, 193361, Note_on_c, 0, 50, 53
1, 193366, Note_on_c, 0, 60, 65
1, 193369, Note_on_c, 0, 63, 42
1, 193394, Note_on_c, 0, 53, 34
1, 193409, Control_c, 0, 64, 101
1, 193424, Control_c, 0, 64, 75
1, 193437, Note_off_c, 0, 66, 36
1, 193439, Control_c, 0, 64, 61
1, 193453, Control_c, 0, 64, 52
1, 193468, Control_c, 0, 64, 59
1, 193483, Control_c, 0, 64, 67
1, 193498, Control_c, 0, 64, 83
1, 193501, Note_on_c, 0, 54, 50
1, 193513, Control_c, 0, 64, 127
1, 193514, Note_off_c, 0, 50, 55
1, 193559, Note_off_c, 0, 63, 0
1, 193566, Note_off_c, 0, 60, 50
1, 193573, Poly_aftertouch_c, 0, 51, 0
1, 193582, Note_off_c, 0, 53, 46
1, 193586, Note_on_c, 0, 55, 58
1, 193586, Note_off_c, 0, 72, 56
1, 193596, Note_off_c, 0, 54, 58
1, 193596, Poly_aftertouch_c, 0, 63, 127
1, 193656, Poly_aftertouch_c, 0, 63, 0
1, 193673, Note_off_c, 0, 55, 61
1, 193693, Note_on_c, 0, 56, 53
1, 193721, Note_on_c, 0, 53, 38
1, 193749, Note_on_c, 0, 54, 40
1, 193776, Note_on_c, 0, 70, 76
1, 193778, Note_off_c, 0, 53, 42
1, 193794, Note_on_c, 0, 58, 61
1, 193794, Note_off_c, 0, 56, 56
1, 193802, Control_c, 0, 64, 84
1, 193817, Control_c, 0, 64, 67
1, 193824, Note_on_c, 0, 57, 49
1, 193832, Control_c, 0, 64, 58
1, 193847, Control_c, 0, 64, 59
1, 193862, Control_c, 0, 64, 69
1, 193877, Control_c, 0, 64, 95
1, 193892, Note_off_c, 0, 57, 50
1, 193892, Control_c, 0, 64, 127
1, 193896, Note_off_c, 0, 54, 51
1, 193906, Note_off_c, 0, 58, 58
1, 193921, Note_on_c, 0, 56, 58
1, 193922, Note_off_c, 0, 70, 59
1, 193966, Note_off_c, 0, 56, 59
1, 194017, Note_on_c, 0, 55, 50
1, 194035, Note_on_c, 0, 52, 46
1, 194081, Note_off_c, 0, 55, 60
1, 194088, Note_on_c, 0, 51, 56
1, 194090, Note_off_c, 0, 52, 61
1, 194124, Note_off_c, 0, 51, 61
1, 194273, Note_on_c, 0, 34, 55
1, 194357, Note_on_c, 0, 65, 71
1, 194378, Note_on_c, 0, 61, 53
1, 194387, Control_c, 0, 64, 93
1, 194402, Control_c, 0, 64, 70
1, 194402, Control_c, 0, 67, 10
1, 194417, Control_c, 0, 64, 47
1, 194417, Control_c, 0, 67, 16
1, 194432, Control_c, 0, 64, 0
1, 194432, Control_c, 0, 67, 24
1, 194447, Control_c, 0, 67, 33
1, 194461, Control_c, 0, 67, 43
1, 194476, Control_c, 0, 64, 61
1, 194476, Control_c, 0, 67, 52
1, 194491, Control_c, 0, 64, 73
1, 194491, Control_c, 0, 67, 61
1, 194506, Control_c, 0, 64, 94
1, 194506, Control_c, 0, 67, 69
1, 194521, Control_c, 0, 64, 127
1, 194521, Control_c, 0, 67, 73
1, 194536, Control_c, 0, 67, 74
1, 194538, Note_off_c, 0, 34, 57
1, 194625, Control_c, 0, 67, 74
1, 194638, Note_on_c, 0, 53, 38
1, 194664, Note_on_c, 0, 49, 39
1, 194670, Control_c, 0, 67, 75
1, 194696, Note_off_c, 0, 53, 45
1, 194699, Control_c, 0, 67, 75
1, 194735, Note_on_c, 0, 58, 43
1, 194770, Note_on_c, 0, 46, 50
1, 194825, Note_off_c, 0, 58, 46
1, 194863, Control_c, 0, 67, 76
1, 194886, Note_off_c, 0, 49, 0
1, 194890, Note_on_c, 0, 40, 70
1, 194892, Control_c, 0, 67, 76
1, 194907, Control_c, 0, 67, 77
1, 194920, Note_off_c, 0, 46, 54
1, 194922, Control_c, 0, 67, 79
1, 194923, Poly_aftertouch_c, 0, 49, 127
1, 194929, Poly_aftertouch_c, 0, 53, 127
1, 194936, Control_c, 0, 67, 80
1, 194952, Control_c, 0, 67, 81
1, 194966, Poly_aftertouch_c, 0, 49, 0
1, 194990, Poly_aftertouch_c, 0, 53, 0
1, 195105, Poly_aftertouch_c, 0, 58, 127
1, 195108, Control_c, 0, 67, 81
1, 195143, Note_on_c, 0, 53, 33
1, 195144, Poly_aftertouch_c, 0, 58, 0
1, 195147, Note_off_c, 0, 61, 42
1, 195152, Control_c, 0, 67, 82
1, 195180, Note_on_c, 0, 46, 45
1, 195182, Control_c, 0, 67, 82
1, 195209, Note_off_c, 0, 40, 55
1, 195212, Control_c, 0, 67, 84
1, 195226, Control_c, 0, 67, 85
1, 195233, Note_off_c, 0, 53, 51
1, 195241, Control_c, 0, 67, 87
1, 195256, Control_c, 0, 67, 89
1, 195271, Control_c, 0, 67, 92
1, 195282, Note_on_c, 0, 58, 38
1, 195286, Control_c, 0, 67, 94
1, 195300, Control_c, 0, 67, 96
1, 195303, Note_on_c, 0, 41, 74
1, 195315, Control_c, 0, 64, 97
1, 195315, Control_c, 0, 67, 97
1, 195330, Control_c, 0, 64, 74
1, 195330, Control_c, 0, 67, 98
1, 195335, Note_off_c, 0, 58, 55
1, 195344, Note_off_c, 0, 46, 48
1, 195344, Control_c, 0, 64, 63
1, 195359, Control_c, 0, 64, 64
1, 195359, Control_c, 0, 67, 99
1, 195374, Control_c, 0, 64, 69
1, 195379, Note_on_c, 0, 53, 37
1, 195389, Control_c, 0, 64, 83
1, 195404, Control_c, 0, 64, 127
1, 195435, Note_off_c, 0, 53, 60
1, 195458, Note_on_c, 0, 49, 45
1, 195466, Note_off_c, 0, 65, 36
1, 195480, Note_on_c, 0, 58, 35
1, 195505, Note_on_c, 0, 46, 54
1, 195509, Note_off_c, 0, 49, 61
1, 195509, Control_c, 0, 67, 98
1, 195510, Note_off_c, 0, 41, 60
1, 195514, Note_off_c, 0, 58, 52
1, 195542, Note_off_c, 0, 46, 63
1, 195567, Control_c, 0, 67, 98
1, 195582, Control_c, 0, 67, 97
1, 195597, Control_c, 0, 67, 97
1, 195612, Control_c, 0, 67, 96
1, 195614, Note_on_c, 0, 53, 36
1, 195615, Poly_aftertouch_c, 0, 54, 127
1, 195645, Poly_aftertouch_c, 0, 54, 0
1, 195686, Control_c, 0, 67, 96
1, 195691, Note_on_c, 0, 30, 60
1, 195795, Note_on_c, 0, 65, 74
1, 195823, Note_on_c, 0, 61, 53
1, 195866, Note_off_c, 0, 53, 36
1, 195871, Control_c, 0, 64, 104
1, 195886, Control_c, 0, 64, 77
1, 195901, Control_c, 0, 64, 61
1, 195915, Control_c, 0, 64, 0
1, 195960, Control_c, 0, 67, 96
1, 195989, Control_c, 0, 64, 35
1, 196004, Control_c, 0, 64, 64
1, 196019, Control_c, 0, 64, 73
1, 196034, Control_c, 0, 64, 88
1, 196048, Control_c, 0, 64, 112
1, 196063, Control_c, 0, 64, 127
1, 196074, Note_off_c, 0, 61, 38
1, 196079, Note_off_c, 0, 30, 61
1, 196089, Note_on_c, 0, 54, 52
1, 196140, Note_off_c, 0, 54, 59
1, 196174, Note_on_c, 0, 57, 52
1, 196229, Note_off_c, 0, 65, 51
1, 196242, Control_c, 0, 67, 96
1, 196262, Note_on_c, 0, 54, 44
1, 196286, Control_c, 0, 67, 95
1, 196316, Control_c, 0, 67, 95
1, 196330, Control_c, 0, 67, 94
1, 196333, Note_off_c, 0, 54, 52
1, 196367, Note_on_c, 0, 63, 67
1, 196369, Note_on_c, 0, 42, 50
1, 196374, Note_on_c, 0, 59, 53
1, 196381, Note_on_c, 0, 39, 48
1, 196435, Note_off_c, 0, 39, 60
1, 196443, Note_off_c, 0, 57, 31
1, 196475, Note_on_c, 0, 40, 45
1, 196512, Note_off_c, 0, 40, 62
1, 196512, Note_off_c, 0, 42, 45
1, 196518, Note_off_c, 0, 59, 49
1, 196524, Note_on_c, 0, 57, 28
1, 196529, Note_on_c, 0, 43, 55
1, 196604, Note_off_c, 0, 43, 55
1, 196607, Note_off_c, 0, 63, 56
1, 196634, Note_on_c, 0, 44, 57
1, 196638, Note_on_c, 0, 41, 49
1, 196703, Note_off_c, 0, 44, 57
1, 196715, Note_on_c, 0, 45, 61
1, 196716, Note_off_c, 0, 41, 52
1, 196783, Control_c, 0, 67, 94
1, 196795, Note_on_c, 0, 61, 63
1, 196797, Control_c, 0, 64, 86
1, 196802, Note_on_c, 0, 58, 47
1, 196809, Note_off_c, 0, 45, 61
1, 196812, Control_c, 0, 64, 65
1, 196827, Control_c, 0, 64, 0
1, 196837, Note_on_c, 0, 43, 49
1, 196843, Note_on_c, 0, 46, 45
1, 196852, Note_off_c, 0, 57, 40
1, 196871, Control_c, 0, 64, 34
1, 196886, Control_c, 0, 64, 64
1, 196901, Control_c, 0, 64, 75
1, 196902, Note_off_c, 0, 43, 56
1, 196904, Note_off_c, 0, 58, 52
1, 196915, Control_c, 0, 64, 96
1, 196917, Note_off_c, 0, 46, 56
1, 196927, Note_on_c, 0, 47, 60
1, 196930, Control_c, 0, 64, 127
1, 196930, Control_c, 0, 67, 93
1, 196945, Control_c, 0, 67, 93
1, 196960, Control_c, 0, 67, 92
1, 196975, Control_c, 0, 67, 91
1, 196982, Note_off_c, 0, 47, 55
1, 196983, Note_off_c, 0, 61, 59
1, 196989, Control_c, 0, 67, 90
1, 197004, Control_c, 0, 67, 89
1, 197026, Note_on_c, 0, 48, 55
1, 197035, Control_c, 0, 67, 88
1, 197050, Control_c, 0, 67, 88
1, 197065, Control_c, 0, 67, 87
1, 197079, Control_c, 0, 67, 84
1, 197089, Note_off_c, 0, 48, 58
1, 197094, Control_c, 0, 67, 81
1, 197109, Control_c, 0, 67, 80
1, 197119, Note_on_c, 0, 49, 60
1, 197124, Control_c, 0, 67, 79
1, 197138, Control_c, 0, 67, 78
1, 197153, Control_c, 0, 67, 76
1, 197183, Control_c, 0, 67, 76
1, 197212, Control_c, 0, 67, 75
1, 197227, Control_c, 0, 67, 74
1, 197302, Note_on_c, 0, 34, 54
1, 197309, Note_on_c, 0, 65, 56
1, 197309, Control_c, 0, 67, 75
1, 197319, Note_on_c, 0, 61, 47
1, 197324, Control_c, 0, 64, 89
1, 197324, Control_c, 0, 67, 75
1, 197338, Control_c, 0, 64, 67
1, 197353, Control_c, 0, 64, 32
1, 197353, Control_c, 0, 67, 76
1, 197362, Note_off_c, 0, 49, 29
1, 197368, Control_c, 0, 64, 0
1, 197412, Control_c, 0, 67, 76
1, 197427, Control_c, 0, 64, 62
1, 197427, Control_c, 0, 67, 77
1, 197442, Control_c, 0, 64, 73
1, 197442, Control_c, 0, 67, 77
1, 197457, Control_c, 0, 64, 97
1, 197457, Control_c, 0, 67, 78
1, 197469, Note_off_c, 0, 34, 60
1, 197472, Control_c, 0, 64, 127
1, 197582, Note_on_c, 0, 53, 34
1, 197602, Note_on_c, 0, 49, 38
1, 197660, Note_off_c, 0, 53, 40
1, 197674, Note_on_c, 0, 46, 44
1, 197687, Note_on_c, 0, 58, 29
1, 197709, Control_c, 0, 67, 78
1, 197798, Control_c, 0, 67, 79
1, 197806, Note_on_c, 0, 40, 64
1, 197876, Note_off_c, 0, 49, 33
1, 197983, Note_off_c, 0, 46, 23
1, 198006, Note_off_c, 0, 58, 38
1, 198021, Control_c, 0, 67, 79
1, 198073, Control_c, 0, 67, 80
1, 198076, Note_off_c, 0, 61, 2
1, 198087, Control_c, 0, 67, 80
1, 198117, Control_c, 0, 67, 81
1, 198124, Poly_aftertouch_c, 0, 53, 127
1, 198157, Note_off_c, 0, 40, 56
1, 198161, Control_c, 0, 67, 81
1, 198166, Poly_aftertouch_c, 0, 53, 0
1, 198175, Note_on_c, 0, 46, 33
1, 198217, Note_on_c, 0, 58, 15
1, 198283, Note_off_c, 0, 58, 41
1, 198300, Note_on_c, 0, 41, 61
1, 198339, Control_c, 0, 64, 118
1, 198354, Control_c, 0, 64, 80
1, 198354, Control_c, 0, 67, 82
1, 198363, Note_on_c, 0, 53, 9
1, 198369, Control_c, 0, 64, 64
1, 198379, Note_off_c, 0, 46, 45
1, 198384, Control_c, 0, 64, 24
1, 198399, Control_c, 0, 64, 0
1, 198429, Note_off_c, 0, 53, 41
1, 198443, Control_c, 0, 64, 56
1, 198443, Control_c, 0, 67, 82
1, 198458, Control_c, 0, 64, 68
1, 198458, Control_c, 0, 67, 83
1, 198472, Note_on_c, 0, 58, 22
1, 198473, Control_c, 0, 64, 84
1, 198473, Control_c, 0, 67, 84
1, 198487, Control_c, 0, 64, 127
1, 198487, Control_c, 0, 67, 85
1, 198499, Poly_aftertouch_c, 0, 49, 127
1, 198502, Control_c, 0, 67, 86
1, 198517, Note_on_c, 0, 46, 34
1, 198517, Control_c, 0, 67, 88
1, 198532, Control_c, 0, 67, 90
1, 198547, Control_c, 0, 67, 93
1, 198561, Control_c, 0, 67, 97
1, 198565, Note_off_c, 0, 41, 57
1, 198570, Note_off_c, 0, 65, 36
1, 198576, Control_c, 0, 67, 106
1, 198591, Control_c, 0, 67, 121
1, 198599, Poly_aftertouch_c, 0, 49, 0
1, 198601, Note_on_c, 0, 53, 39
1, 198601, Note_off_c, 0, 46, 60
1, 198607, Control_c, 0, 67, 127
1, 198673, Note_off_c, 0, 58, 40
1, 198846, Note_on_c, 0, 30, 45
1, 198894, Note_on_c, 0, 65, 55
1, 198901, Note_off_c, 0, 53, 36
1, 198922, Note_on_c, 0, 61, 44
1, 198956, Control_c, 0, 64, 91
1, 198971, Control_c, 0, 64, 71
1, 198985, Control_c, 0, 64, 54
1, 199000, Control_c, 0, 64, 0
1, 199074, Control_c, 0, 64, 60
1, 199089, Control_c, 0, 64, 70
1, 199103, Control_c, 0, 64, 83
1, 199118, Control_c, 0, 64, 103
1, 199129, Note_off_c, 0, 30, 60
1, 199133, Control_c, 0, 64, 127
1, 199141, Note_off_c, 0, 61, 47
1, 199177, Note_on_c, 0, 54, 40
1, 199226, Note_off_c, 0, 54, 61
1, 199257, Note_on_c, 0, 57, 47
1, 199311, Note_off_c, 0, 65, 55
1, 199346, Note_on_c, 0, 54, 37
1, 199428, Note_off_c, 0, 54, 47
1, 199460, Note_on_c, 0, 39, 40
1, 199467, Note_on_c, 0, 63, 59
1, 199469, Note_on_c, 0, 42, 42
1, 199476, Note_on_c, 0, 59, 44
1, 199498, Note_off_c, 0, 57, 37
1, 199543, Note_off_c, 0, 39, 54
1, 199565, Note_on_c, 0, 40, 46
1, 199609, Note_off_c, 0, 40, 61
1, 199637, Note_on_c, 0, 43, 51
1, 199645, Note_on_c, 0, 57, 42
1, 199651, Note_off_c, 0, 42, 42
1, 199653, Note_off_c, 0, 59, 36
1, 199707, Note_off_c, 0, 63, 58
1, 199713, Note_off_c, 0, 43, 55
1, 199738, Note_on_c, 0, 44, 49
1, 199743, Note_on_c, 0, 41, 47
1, 199790, Note_off_c, 0, 44, 61
1, 199803, Note_off_c, 0, 41, 59
1, 199822, Note_on_c, 0, 45, 59
1, 199914, Note_off_c, 0, 45, 59
1, 199925, Control_c, 0, 64, 108
1, 199934, Note_on_c, 0, 58, 40
1, 199937, Note_on_c, 0, 61, 59
1, 199940, Control_c, 0, 64, 76
1, 199949, Note_on_c, 0, 46, 45
1, 199952, Note_on_c, 0, 43, 47
1, 199955, Control_c, 0, 64, 60
1, 199970, Control_c, 0, 64, 25
1, 199985, Control_c, 0, 64, 16
1, 200000, Control_c, 0, 64, 32
1, 200002, Note_off_c, 0, 43, 60
1, 200005, Note_off_c, 0, 57, 31
1, 200011, Note_off_c, 0, 46, 56
1, 200014, Control_c, 0, 64, 54
1, 200029, Control_c, 0, 64, 65
1, 200044, Control_c, 0, 64, 76
1, 200046, Note_on_c, 0, 47, 48
1, 200059, Control_c, 0, 64, 97
1, 200074, Control_c, 0, 64, 127
1, 200110, Note_off_c, 0, 58, 39
1, 200112, Note_off_c, 0, 47, 57
1, 200156, Note_on_c, 0, 48, 54
1, 200167, Note_off_c, 0, 61, 57
1, 200227, Note_off_c, 0, 48, 57
1, 200254, Note_on_c, 0, 49, 56
1, 200533, Note_on_c, 0, 34, 45
1, 200538, Note_on_c, 0, 65, 55
1, 200554, Note_on_c, 0, 61, 40
1, 200601, Control_c, 0, 64, 120
1, 200616, Control_c, 0, 64, 82
1, 200630, Control_c, 0, 64, 65
1, 200637, Note_off_c, 0, 49, 31
1, 200645, Control_c, 0, 64, 22
1, 200660, Control_c, 0, 64, 0
1, 200734, Control_c, 0, 64, 57
1, 200749, Control_c, 0, 64, 67
1, 200763, Control_c, 0, 64, 75
1, 200778, Control_c, 0, 64, 87
1, 200783, Note_off_c, 0, 34, 53
1, 200793, Control_c, 0, 64, 99
1, 200808, Control_c, 0, 64, 120
1, 200823, Control_c, 0, 64, 127
1, 200867, Note_on_c, 0, 53, 13
1, 200921, Note_off_c, 0, 53, 45
1, 200921, Note_on_c, 0, 49, 26
1, 200986, Note_on_c, 0, 58, 27
1, 201094, Note_on_c, 0, 46, 28
1, 201181, Note_on_c, 0, 40, 57
1, 201253, Note_off_c, 0, 49, 34
1, 201254, Note_off_c, 0, 58, 0
1, 201269, Note_off_c, 0, 46, 34
1, 201291, Poly_aftertouch_c, 0, 58, 127
1, 201429, Poly_aftertouch_c, 0, 58, 0
1, 201476, Note_off_c, 0, 61, 30
1, 201482, Note_on_c, 0, 53, 3
1, 201568, Note_off_c, 0, 40, 34
1, 201577, Note_on_c, 0, 46, 30
1, 201584, Note_off_c, 0, 53, 29
1, 201585, Poly_aftertouch_c, 0, 49, 127
1, 201632, Poly_aftertouch_c, 0, 58, 127
1, 201697, Note_on_c, 0, 41, 57
1, 201708, Poly_aftertouch_c, 0, 49, 0
1, 201781, Note_off_c, 0, 46, 40
1, 201858, Note_on_c, 0, 49, 33
1, 201889, Note_off_c, 0, 65, 36
1, 201938, Note_on_c, 0, 46, 32
1, 201950, Note_off_c, 0, 41, 55
1, 202065, Poly_aftertouch_c, 0, 58, 0
1, 202116, Note_on_c, 0, 65, 50
1, 202122, Note_on_c, 0, 42, 52
1, 202128, Note_off_c, 0, 49, 38
1, 202170, Note_on_c, 0, 61, 18
1, 202226, Note_off_c, 0, 46, 27
1, 202232, Control_c, 0, 64, 94
1, 202247, Control_c, 0, 64, 75
1, 202262, Control_c, 0, 64, 60
1, 202277, Control_c, 0, 64, 34
1, 202292, Control_c, 0, 64, 0
1, 202322, Control_c, 0, 64, 26
1, 202336, Control_c, 0, 64, 52
1, 202351, Control_c, 0, 64, 65
1, 202356, Note_on_c, 0, 53, 18
1, 202366, Control_c, 0, 64, 75
1, 202381, Control_c, 0, 64, 91
1, 202387, Note_on_c, 0, 49, 32
1, 202396, Control_c, 0, 64, 127
1, 202430, Note_off_c, 0, 53, 40
1, 202431, Note_on_c, 0, 46, 33
1, 202457, Note_on_c, 0, 58, 30
1, 202560, Note_off_c, 0, 58, 46
1, 202582, Note_on_c, 0, 41, 55
1, 202589, Note_off_c, 0, 49, 39
1, 202599, Note_on_c, 0, 53, 29
1, 202641, Control_c, 0, 64, 96
1, 202655, Control_c, 0, 64, 74
1, 202670, Control_c, 0, 64, 63
1, 202673, Note_off_c, 0, 53, 46
1, 202683, Note_off_c, 0, 46, 37
1, 202685, Control_c, 0, 64, 49
1, 202700, Control_c, 0, 64, 46
1, 202703, Note_off_c, 0, 42, 36
1, 202715, Control_c, 0, 64, 52
1, 202730, Control_c, 0, 64, 62
1, 202734, Note_on_c, 0, 58, 32
1, 202745, Control_c, 0, 64, 69
1, 202751, Note_on_c, 0, 49, 11
1, 202759, Control_c, 0, 64, 86
1, 202774, Control_c, 0, 64, 127
1, 202820, Note_off_c, 0, 41, 52
1, 202831, Note_on_c, 0, 46, 36
1, 202859, Note_on_c, 0, 53, 16
1, 202866, Note_off_c, 0, 58, 33
1, 203006, Note_off_c, 0, 49, 38
1, 203007, Note_off_c, 0, 53, 35
1, 203041, Note_on_c, 0, 37, 50
1, 203041, Note_on_c, 0, 58, 25
1, 203118, Note_off_c, 0, 46, 31
1, 203126, Note_off_c, 0, 58, 35
1, 203186, Note_on_c, 0, 49, 8
1, 203221, Poly_aftertouch_c, 0, 53, 127
1, 203228, Note_off_c, 0, 61, 39
1, 203233, Note_off_c, 0, 49, 50
1, 203261, Note_on_c, 0, 46, 35
1, 203285, Poly_aftertouch_c, 0, 53, 0
1, 203308, Note_off_c, 0, 46, 58
1, 203317, Note_on_c, 0, 58, 29
1, 203317, Note_off_c, 0, 37, 30
1, 203349, Note_off_c, 0, 65, 33
1, 203394, Note_on_c, 0, 49, 29
1, 203447, Note_off_c, 0, 49, 42
1, 203612, Note_on_c, 0, 34, 47
1, 203643, Note_on_c, 0, 65, 50
1, 203654, Control_c, 0, 64, 91
1, 203665, Note_off_c, 0, 58, 28
1, 203669, Control_c, 0, 64, 71
1, 203678, Note_on_c, 0, 61, 25
1, 203684, Control_c, 0, 64, 55
1, 203699, Control_c, 0, 64, 0
1, 203773, Control_c, 0, 64, 40
1, 203788, Control_c, 0, 64, 64
1, 203803, Control_c, 0, 64, 71
1, 203817, Control_c, 0, 64, 80
1, 203832, Control_c, 0, 64, 91
1, 203847, Control_c, 0, 64, 108
1, 203855, Note_off_c, 0, 34, 57
1, 203862, Control_c, 0, 64, 127
1, 203871, Note_on_c, 0, 53, 32
1, 203934, Note_off_c, 0, 53, 49
1, 203951, Note_on_c, 0, 49, 33
1, 203972, Note_on_c, 0, 58, 37
1, 204086, Note_on_c, 0, 46, 27
1, 204227, Note_on_c, 0, 40, 53
1, 204311, Note_off_c, 0, 49, 35
1, 204444, Note_off_c, 0, 58, 39
1, 204465, Note_off_c, 0, 61, 39
1, 204466, Note_off_c, 0, 46, 29
1, 204604, Poly_aftertouch_c, 0, 49, 127
1, 204623, Note_off_c, 0, 40, 51
1, 204639, Note_on_c, 0, 46, 32
1, 204650, Poly_aftertouch_c, 0, 58, 127
1, 204651, Note_on_c, 0, 58, 3
1, 204792, Note_on_c, 0, 41, 56
1, 204799, Poly_aftertouch_c, 0, 49, 0
1, 204840, Control_c, 0, 64, 92
1, 204855, Control_c, 0, 64, 71
1, 204867, Note_off_c, 0, 46, 49
1, 204870, Control_c, 0, 64, 53
1, 204871, Note_off_c, 0, 58, 34
1, 204885, Control_c, 0, 64, 0
1, 204911, Poly_aftertouch_c, 0, 53, 127
1, 204915, Control_c, 0, 64, 26
1, 204929, Control_c, 0, 64, 60
1, 204944, Control_c, 0, 64, 69
1, 204958, Note_on_c, 0, 49, 13
1, 204959, Control_c, 0, 64, 83
1, 204973, Control_c, 0, 64, 127
1, 204986, Poly_aftertouch_c, 0, 53, 0
1, 205028, Note_on_c, 0, 46, 38
1, 205038, Note_off_c, 0, 65, 32
1, 205105, Note_off_c, 0, 41, 35
1, 205260, Note_on_c, 0, 42, 47
1, 205262, Note_off_c, 0, 49, 35
1, 205277, Note_on_c, 0, 65, 42
1, 205280, Note_on_c, 0, 61, 40
1, 205330, Control_c, 0, 64, 91
1, 205344, Control_c, 0, 64, 72
1, 205359, Control_c, 0, 64, 60
1, 205360, Note_off_c, 0, 46, 35
1, 205374, Control_c, 0, 64, 25
1, 205389, Control_c, 0, 64, 0
1, 205449, Control_c, 0, 64, 44
1, 205464, Control_c, 0, 64, 63
1, 205478, Control_c, 0, 64, 71
1, 205493, Control_c, 0, 64, 83
1, 205508, Control_c, 0, 64, 100
1, 205511, Note_on_c, 0, 53, 32
1, 205531, Control_c, 0, 64, 127
1, 205568, Note_on_c, 0, 49, 21
1, 205614, Note_off_c, 0, 53, 36
1, 205627, Note_on_c, 0, 46, 31
1, 205639, Note_on_c, 0, 58, 33
1, 205785, Note_off_c, 0, 42, 30
1, 205818, Note_off_c, 0, 58, 40
1, 205824, Note_on_c, 0, 41, 45
1, 205831, Note_off_c, 0, 49, 40
1, 205856, Note_on_c, 0, 53, 26
1, 205857, Control_c, 0, 64, 109
1, 205872, Control_c, 0, 64, 84
1, 205887, Control_c, 0, 64, 69
1, 205902, Control_c, 0, 64, 57
1, 205911, Note_off_c, 0, 46, 40
1, 205917, Note_off_c, 0, 53, 42
1, 205917, Control_c, 0, 64, 28
1, 205931, Control_c, 0, 64, 25
1, 205946, Control_c, 0, 64, 36
1, 205961, Control_c, 0, 64, 54
1, 205962, Note_off_c, 0, 61, 31
1, 205968, Note_on_c, 0, 58, 27
1, 205976, Control_c, 0, 64, 64
1, 205991, Control_c, 0, 64, 72
1, 206006, Control_c, 0, 64, 89
1, 206020, Poly_aftertouch_c, 0, 49, 127
1, 206020, Control_c, 0, 64, 127
1, 206050, Note_off_c, 0, 58, 35
1, 206084, Note_on_c, 0, 53, 30
1, 206130, Note_off_c, 0, 41, 36
1, 206137, Note_on_c, 0, 46, 24
1, 206205, Note_off_c, 0, 53, 37
1, 206232, Note_on_c, 0, 58, 22
1, 206335, Poly_aftertouch_c, 0, 49, 0
1, 206397, Note_on_c, 0, 37, 41
1, 206468, Note_off_c, 0, 46, 33
1, 206474, Note_off_c, 0, 58, 37
1, 206523, Note_on_c, 0, 53, 3
1, 206563, Note_on_c, 0, 49, 17
1, 206587, Note_off_c, 0, 53, 39
1, 206621, Note_off_c, 0, 49, 52
1, 206642, Note_on_c, 0, 58, 35
1, 206670, Note_on_c, 0, 46, 22
1, 206684, Note_off_c, 0, 37, 40
1, 206702, Note_off_c, 0, 58, 53
1, 206739, Note_off_c, 0, 46, 51
1, 206769, Note_on_c, 0, 49, 24
1, 206792, Note_on_c, 0, 53, 8
1, 206887, Note_off_c, 0, 53, 34
1, 206918, Poly_aftertouch_c, 0, 46, 0
1, 206947, Poly_aftertouch_c, 0, 58, 127
1, 206963, Note_off_c, 0, 65, 31
1, 206988, Poly_aftertouch_c, 0, 58, 0
1, 206990, Note_off_c, 0, 49, 45
1, 207169, Note_on_c, 0, 34, 40
1, 207235, Control_c, 0, 64, 102
1, 207249, Control_c, 0, 64, 83
1, 207264, Control_c, 0, 64, 69
1, 207279, Control_c, 0, 64, 55
1, 207294, Control_c, 0, 64, 0
1, 207353, Control_c, 0, 64, 36
1, 207368, Control_c, 0, 64, 62
1, 207383, Control_c, 0, 64, 72
1, 207398, Control_c, 0, 64, 89
1, 207413, Control_c, 0, 64, 127
1, 207436, Note_off_c, 0, 34, 58
1, 207792, Note_on_c, 0, 49, 32
1, 207803, Note_on_c, 0, 41, 34
1, 207815, Note_on_c, 0, 46, 25
1, 207944, Note_off_c, 0, 46, 53
1, 207949, Note_off_c, 0, 49, 58
1, 207955, Note_off_c, 0, 41, 33
1, 207969, Control_c, 0, 67, 125
1, 207984, Control_c, 0, 67, 121
1, 207998, Control_c, 0, 67, 116
1, 208013, Control_c, 0, 67, 112
1, 208028, Control_c, 0, 67, 108
1, 208043, Control_c, 0, 67, 103
1, 208058, Control_c, 0, 67, 97
1, 208072, Control_c, 0, 67, 91
1, 208084, Note_on_c, 0, 61, 49
1, 208086, Note_on_c, 0, 53, 42
1, 208087, Control_c, 0, 67, 86
1, 208089, Note_on_c, 0, 65, 53
1, 208102, Control_c, 0, 67, 83
1, 208105, Note_on_c, 0, 58, 40
1, 208117, Control_c, 0, 67, 82
1, 208131, Control_c, 0, 67, 81
1, 208146, Control_c, 0, 67, 81
1, 208150, Note_off_c, 0, 53, 60
1, 208161, Control_c, 0, 67, 80
1, 208170, Note_off_c, 0, 58, 60
1, 208176, Control_c, 0, 67, 78
1, 208186, Note_off_c, 0, 61, 61
1, 208192, Control_c, 0, 67, 74
1, 208207, Control_c, 0, 67, 69
1, 208212, Note_off_c, 0, 65, 59
1, 208221, Control_c, 0, 67, 63
1, 208236, Control_c, 0, 67, 52
1, 208251, Control_c, 0, 67, 40
1, 208266, Control_c, 0, 67, 27
1, 208281, Control_c, 0, 67, 13
1, 208284, Note_on_c, 0, 61, 64
1, 208288, Note_on_c, 0, 53, 57
1, 208295, Control_c, 0, 67, 0
1, 208307, Note_on_c, 0, 58, 54
1, 208349, Note_off_c, 0, 53, 59
1, 208354, Note_off_c, 0, 58, 55
1, 208376, Note_off_c, 0, 61, 61
1, 208454, Note_on_c, 0, 73, 68
1, 208455, Note_on_c, 0, 65, 65
1, 208459, Note_on_c, 0, 77, 74
1, 208472, Note_on_c, 0, 70, 61
1, 208510, Note_off_c, 0, 65, 49
1, 208538, Note_off_c, 0, 73, 62
1, 208555, Note_off_c, 0, 77, 63
1, 208573, Note_off_c, 0, 70, 35
1, 208618, Note_on_c, 0, 65, 63
1, 208620, Note_on_c, 0, 73, 89
1, 208625, Note_on_c, 0, 70, 60
1, 208681, Note_off_c, 0, 65, 59
1, 208704, Note_off_c, 0, 70, 61
1, 208704, Note_off_c, 0, 73, 61
1, 208770, Note_on_c, 0, 89, 95
1, 208772, Note_on_c, 0, 85, 83
1, 208774, Note_on_c, 0, 77, 84
1, 208777, Note_on_c, 0, 82, 84
1, 208833, Note_off_c, 0, 77, 54
1, 208857, Note_off_c, 0, 82, 50
1, 208857, Note_off_c, 0, 85, 66
1, 208865, Note_off_c, 0, 89, 67
1, 208935, Note_on_c, 0, 85, 106
1, 208938, Note_on_c, 0, 77, 62
1, 208944, Note_on_c, 0, 82, 91
1, 209217, Note_on_c, 0, 101, 94
1, 209218, Note_on_c, 0, 89, 94
1, 209225, Note_on_c, 0, 94, 85
1, 209225, Note_on_c, 0, 97, 86
1, 209276, Note_off_c, 0, 77, 38
1, 209284, Note_off_c, 0, 85, 60
1, 209318, Note_off_c, 0, 82, 58
1, 209440, Note_off_c, 0, 89, 61
1, 209446, Note_off_c, 0, 101, 63
1, 209495, Note_off_c, 0, 97, 63
1, 209497, Note_off_c, 0, 94, 62
1, 210072, Note_on_c, 0, 65, 95
1, 210074, Note_on_c, 0, 77, 97
1, 210078, Note_on_c, 0, 70, 94
1, 210078, Note_on_c, 0, 61, 86
1, 210079, Note_on_c, 0, 73, 88
1, 210086, Note_on_c, 0, 58, 77
1, 210089, Note_on_c, 0, 53, 69
1, 213654, Note_off_c, 0, 65, 45
1, 213664, Note_off_c, 0, 77, 42
1, 213670, Note_off_c, 0, 70, 46
1, 213680, Note_off_c, 0, 73, 34
1, 213685, Note_off_c, 0, 61, 48
1, 213688, Note_off_c, 0, 53, 27
1, 213697, Note_off_c, 0, 58, 30
1, 214020, Control_c, 0, 64, 101
1, 214034, Control_c, 0, 64, 89
1, 214049, Control_c, 0, 64, 79
1, 214064, Control_c, 0, 64, 70
1, 214079, Control_c, 0, 64, 61
1, 214093, Control_c, 0, 64, 40
1, 214108, Control_c, 0, 64, 0
1, 214108, End_track
0, 0, End_of_file
