0, 0, Header, 0, 1, 384
1, 0, Start_track
1, 0, Title_t, "Ballade No. 3--David Yoshiaki Ko"
1, 0, Text_t, "2008 e-Piano Junior Competition recital round"
1, 0, Text_t, "recorded July 2008"
1, 0, Text_t, "http://www.piano-e-competition.com/"
1, 0, Text_t, "File processed for distribution by software from Zenph Studios, Inc., http://www.zenph.com"
1, 0, Instrument_name_t, "Yamaha Disklavier Pro Mark IV concert grand piano, model DCFIIISM4PRO"
1, 0, Sequencer_specific, 39, 67, 113, 0, 1, 0, 1, 0, 66, 97, 108, 108, 97, 100, 101, 32, 78, 111, 46, 32, 51, 32, 32, 32, 68, 97, 118, 105, 100, 89, 111, 115, 104, 105, 97, 107, 105, 32, 75, 111
1, 0, Sequencer_specific, 6, 67, 113, 0, 0, 0, 69
1, 0, System_exclusive, 21, 67, 113, 126, 21, 0, 2, 2, 0, 3, 14, 1, 4, 1, 13, 13, 10, 11, 9, 2, 7, 247
1, 0, Sequencer_specific, 5, 67, 123, 12, 2, 1
1, 0, Tempo, 512820
1, 0, Time_signature, 4, 2, 24, 8
1, 0, System_exclusive, 5, 126, 127, 9, 1, 247
1, 1, System_exclusive, 8, 67, 16, 76, 0, 0, 126, 0, 247
1, 2, System_exclusive, 8, 67, 16, 76, 8, 9, 7, 1, 247
1, 3, Control_c, 0, 0, 0
1, 3, Control_c, 1, 0, 0
1, 3, Control_c, 2, 0, 0
1, 3, Control_c, 3, 0, 0
1, 3, Control_c, 4, 0, 0
1, 3, Control_c, 5, 0, 0
1, 3, Control_c, 6, 0, 0
1, 3, Control_c, 7, 0, 0
1, 3, Control_c, 8, 0, 0
1, 3, Control_c, 9, 0, 127
1, 3, Control_c, 10, 0, 0
1, 3, Control_c, 11, 0, 0
1, 3, Control_c, 12, 0, 0
1, 3, Control_c, 13, 0, 0
1, 3, Control_c, 14, 0, 0
1, 3, Control_c, 15, 0, 0
1, 4, Control_c, 0, 32, 0
1, 4, Control_c, 1, 32, 0
1, 4, Control_c, 2, 32, 0
1, 4, Control_c, 3, 32, 0
1, 4, Control_c, 4, 32, 0
1, 4, Control_c, 5, 32, 0
1, 4, Control_c, 6, 32, 0
1, 4, Control_c, 7, 32, 0
1, 4, Control_c, 8, 32, 0
1, 4, Control_c, 9, 32, 0
1, 4, Control_c, 10, 32, 0
1, 4, Control_c, 11, 32, 0
1, 4, Control_c, 12, 32, 0
1, 4, Control_c, 13, 32, 0
1, 4, Control_c, 14, 32, 0
1, 4, Control_c, 15, 32, 0
1, 5, Program_c, 0, 0
1, 5, Program_c, 1, 0
1, 5, Program_c, 2, 0
1, 5, Program_c, 3, 0
1, 5, Program_c, 4, 0
1, 5, Program_c, 5, 0
1, 5, Program_c, 6, 0
1, 5, Program_c, 7, 0
1, 5, Program_c, 8, 0
1, 5, Program_c, 9, 0
1, 5, Program_c, 10, 0
1, 5, Program_c, 11, 0
1, 5, Program_c, 12, 0
1, 5, Program_c, 13, 0
1, 5, Program_c, 14, 0
1, 5, Program_c, 15, 0
1, 6, Control_c, 0, 7, 100
1, 6, Control_c, 1, 7, 100
1, 6, Control_c, 2, 7, 100
1, 6, Control_c, 3, 7, 100
1, 6, Control_c, 4, 7, 100
1, 6, Control_c, 5, 7, 100
1, 6, Control_c, 6, 7, 100
1, 6, Control_c, 7, 7, 100
1, 6, Control_c, 8, 7, 100
1, 6, Control_c, 9, 7, 100
1, 6, Control_c, 10, 7, 100
1, 6, Control_c, 11, 7, 100
1, 6, Control_c, 12, 7, 100
1, 6, Control_c, 13, 7, 100
1, 6, Control_c, 14, 7, 100
1, 6, Control_c, 15, 7, 100
1, 117, Control_c, 0, 64, 15
1, 117, Control_c, 0, 67, 15
1, 229, Control_c, 0, 64, 31
1, 229, Control_c, 0, 67, 31
1, 341, Control_c, 0, 64, 46
1, 341, Control_c, 0, 67, 46
1, 452, Control_c, 0, 64, 63
1, 452, Control_c, 0, 67, 63
1, 564, Control_c, 0, 64, 77
1, 564, Control_c, 0, 67, 77
1, 676, Control_c, 0, 64, 94
1, 676, Control_c, 0, 67, 94
1, 787, Control_c, 0, 64, 108
1, 787, Control_c, 0, 67, 108
1, 899, Control_c, 0, 64, 127
1, 899, Control_c, 0, 67, 127
1, 1132, Note_on_c, 0, 63, 49
1, 1926, Note_on_c, 0, 65, 53
1, 1932, Note_on_c, 0, 62, 37
1, 1996, Note_off_c, 0, 63, 38
1, 2153, Note_on_c, 0, 67, 61
1, 2163, Note_on_c, 0, 61, 47
1, 2178, Note_on_c, 0, 63, 39
1, 2201, Note_off_c, 0, 62, 40
1, 2259, Note_off_c, 0, 63, 56
1, 2270, Note_off_c, 0, 65, 31
1, 2272, Control_c, 0, 64, 119
1, 2287, Control_c, 0, 64, 97
1, 2302, Control_c, 0, 64, 73
1, 2317, Control_c, 0, 64, 0
1, 2348, Note_on_c, 0, 68, 71
1, 2354, Note_off_c, 0, 61, 46
1, 2356, Note_on_c, 0, 60, 46
1, 2362, Note_on_c, 0, 63, 56
1, 2383, Control_c, 0, 64, 46
1, 2384, Note_off_c, 0, 67, 60
1, 2398, Control_c, 0, 64, 73
1, 2412, Control_c, 0, 64, 90
1, 2427, Control_c, 0, 64, 127
1, 2454, Note_off_c, 0, 63, 60
1, 2517, Control_c, 0, 64, 120
1, 2531, Control_c, 0, 64, 90
1, 2546, Note_on_c, 0, 70, 72
1, 2546, Control_c, 0, 64, 57
1, 2551, Note_off_c, 0, 60, 56
1, 2561, Control_c, 0, 64, 0
1, 2567, Note_on_c, 0, 55, 46
1, 2574, Note_off_c, 0, 68, 60
1, 2583, Note_on_c, 0, 63, 43
1, 2591, Control_c, 0, 64, 60
1, 2605, Control_c, 0, 64, 75
1, 2620, Control_c, 0, 64, 100
1, 2635, Control_c, 0, 64, 127
1, 2651, Note_off_c, 0, 63, 59
1, 2669, Note_off_c, 0, 70, 63
1, 2852, Note_on_c, 0, 72, 71
1, 2870, Note_on_c, 0, 63, 54
1, 2878, Note_on_c, 0, 56, 43
1, 2923, Note_off_c, 0, 55, 30
1, 2931, Control_c, 0, 64, 125
1, 2946, Control_c, 0, 64, 99
1, 2961, Control_c, 0, 64, 76
1, 2976, Control_c, 0, 64, 0
1, 3050, Control_c, 0, 64, 64
1, 3065, Control_c, 0, 64, 77
1, 3080, Control_c, 0, 64, 93
1, 3088, Note_off_c, 0, 63, 65
1, 3095, Control_c, 0, 64, 113
1, 3110, Control_c, 0, 64, 124
1, 3132, Control_c, 0, 64, 127
1, 3215, Note_off_c, 0, 56, 54
1, 3476, Note_on_c, 0, 77, 73
1, 3482, Note_on_c, 0, 65, 45
1, 3494, Note_on_c, 0, 68, 46
1, 3500, Note_on_c, 0, 59, 44
1, 3503, Note_on_c, 0, 62, 46
1, 3510, Note_on_c, 0, 51, 45
1, 3532, Control_c, 0, 64, 113
1, 3546, Control_c, 0, 64, 96
1, 3561, Control_c, 0, 64, 76
1, 3571, Poly_aftertouch_c, 0, 74, 127
1, 3576, Control_c, 0, 64, 0
1, 3580, Note_off_c, 0, 72, 57
1, 3605, Poly_aftertouch_c, 0, 74, 0
1, 3665, Control_c, 0, 64, 63
1, 3679, Control_c, 0, 64, 75
1, 3689, Note_off_c, 0, 62, 60
1, 3694, Control_c, 0, 64, 90
1, 3701, Note_off_c, 0, 68, 50
1, 3703, Note_off_c, 0, 59, 61
1, 3709, Control_c, 0, 64, 105
1, 3724, Control_c, 0, 64, 114
1, 3739, Control_c, 0, 64, 117
1, 3754, Control_c, 0, 64, 119
1, 3769, Control_c, 0, 64, 122
1, 3783, Control_c, 0, 64, 126
1, 3799, Control_c, 0, 64, 127
1, 3918, Note_on_c, 0, 75, 64
1, 3928, Note_on_c, 0, 68, 50
1, 3937, Note_on_c, 0, 63, 41
1, 3938, Note_on_c, 0, 60, 42
1, 3955, Control_c, 0, 64, 125
1, 3970, Control_c, 0, 64, 118
1, 3984, Control_c, 0, 64, 109
1, 3990, Note_off_c, 0, 65, 60
1, 3999, Control_c, 0, 64, 100
1, 4014, Control_c, 0, 64, 88
1, 4029, Control_c, 0, 64, 75
1, 4044, Control_c, 0, 64, 34
1, 4058, Control_c, 0, 64, 0
1, 4124, Note_off_c, 0, 77, 51
1, 4310, Control_c, 0, 64, 39
1, 4325, Control_c, 0, 64, 61
1, 4340, Control_c, 0, 64, 66
1, 4355, Control_c, 0, 64, 70
1, 4369, Control_c, 0, 64, 74
1, 4384, Control_c, 0, 64, 79
1, 4399, Control_c, 0, 64, 85
1, 4414, Control_c, 0, 64, 91
1, 4429, Control_c, 0, 64, 95
1, 4443, Control_c, 0, 64, 99
1, 4458, Control_c, 0, 64, 103
1, 4473, Control_c, 0, 64, 107
1, 4487, Control_c, 0, 64, 113
1, 4502, Control_c, 0, 64, 118
1, 4517, Control_c, 0, 64, 126
1, 4522, Note_off_c, 0, 60, 54
1, 4532, Control_c, 0, 64, 127
1, 4557, Note_off_c, 0, 63, 40
1, 4597, Note_off_c, 0, 68, 38
1, 5018, Note_on_c, 0, 67, 47
1, 5020, Note_on_c, 0, 61, 50
1, 5020, Note_on_c, 0, 63, 38
1, 5029, Control_c, 0, 64, 121
1, 5043, Control_c, 0, 64, 115
1, 5058, Control_c, 0, 64, 108
1, 5073, Control_c, 0, 64, 100
1, 5088, Control_c, 0, 64, 90
1, 5103, Control_c, 0, 64, 74
1, 5117, Control_c, 0, 64, 0
1, 5208, Note_off_c, 0, 51, 59
1, 5221, Control_c, 0, 64, 34
1, 5236, Control_c, 0, 64, 65
1, 5250, Control_c, 0, 64, 72
1, 5265, Control_c, 0, 64, 79
1, 5280, Control_c, 0, 64, 86
1, 5293, Note_on_c, 0, 60, 58
1, 5295, Control_c, 0, 64, 91
1, 5307, Note_off_c, 0, 61, 61
1, 5310, Control_c, 0, 64, 95
1, 5325, Control_c, 0, 64, 99
1, 5339, Control_c, 0, 64, 103
1, 5354, Control_c, 0, 64, 107
1, 5369, Note_off_c, 0, 75, 62
1, 5377, Control_c, 0, 64, 112
1, 5392, Control_c, 0, 64, 116
1, 5408, Control_c, 0, 64, 119
1, 5422, Control_c, 0, 64, 120
1, 5437, Control_c, 0, 64, 121
1, 5452, Control_c, 0, 64, 122
1, 5459, Note_off_c, 0, 60, 59
1, 5464, Note_on_c, 0, 58, 62
1, 5467, Control_c, 0, 64, 123
1, 5477, Note_off_c, 0, 67, 50
1, 5482, Control_c, 0, 64, 123
1, 5530, Note_off_c, 0, 58, 62
1, 5534, Note_off_c, 0, 63, 42
1, 5619, Note_on_c, 0, 58, 52
1, 5644, Control_c, 0, 64, 123
1, 5659, Control_c, 0, 64, 122
1, 5661, Note_off_c, 0, 58, 60
1, 5673, Control_c, 0, 64, 120
1, 5675, Note_on_c, 0, 60, 59
1, 5678, Note_on_c, 0, 73, 57
1, 5687, Note_on_c, 0, 67, 50
1, 5688, Control_c, 0, 64, 116
1, 5693, Note_on_c, 0, 63, 37
1, 5703, Control_c, 0, 64, 112
1, 5718, Control_c, 0, 64, 108
1, 5733, Control_c, 0, 64, 103
1, 5735, Note_on_c, 0, 58, 66
1, 5748, Control_c, 0, 64, 97
1, 5763, Control_c, 0, 64, 90
1, 5763, Note_off_c, 0, 60, 52
1, 5778, Control_c, 0, 64, 79
1, 5793, Control_c, 0, 64, 66
1, 5807, Control_c, 0, 64, 0
1, 5939, Note_on_c, 0, 57, 67
1, 5962, Note_off_c, 0, 58, 57
1, 6131, Note_off_c, 0, 67, 62
1, 6150, Note_on_c, 0, 58, 67
1, 6198, Note_off_c, 0, 57, 54
1, 6219, Note_off_c, 0, 63, 52
1, 6403, Note_on_c, 0, 72, 51
1, 6404, Note_on_c, 0, 60, 49
1, 6426, Note_on_c, 0, 63, 38
1, 6430, Note_on_c, 0, 68, 36
1, 6445, Note_off_c, 0, 73, 36
1, 6446, Note_off_c, 0, 58, 60
1, 6705, Control_c, 0, 64, 42
1, 6720, Control_c, 0, 64, 53
1, 6731, Note_on_c, 0, 56, 45
1, 6735, Control_c, 0, 64, 57
1, 6749, Control_c, 0, 64, 58
1, 6764, Control_c, 0, 64, 59
1, 6775, Note_off_c, 0, 60, 46
1, 6779, Control_c, 0, 64, 60
1, 6794, Control_c, 0, 64, 62
1, 6809, Control_c, 0, 64, 63
1, 6824, Control_c, 0, 64, 64
1, 6838, Control_c, 0, 64, 65
1, 6853, Control_c, 0, 64, 66
1, 6875, Control_c, 0, 64, 67
1, 6890, Control_c, 0, 64, 69
1, 6904, Control_c, 0, 64, 71
1, 6919, Control_c, 0, 64, 73
1, 6934, Control_c, 0, 64, 78
1, 6949, Control_c, 0, 64, 82
1, 6964, Control_c, 0, 64, 85
1, 6979, Control_c, 0, 64, 87
1, 6994, Control_c, 0, 64, 90
1, 7009, Control_c, 0, 64, 92
1, 7024, Control_c, 0, 64, 96
1, 7039, Control_c, 0, 64, 99
1, 7054, Control_c, 0, 64, 103
1, 7068, Note_off_c, 0, 56, 34
1, 7068, Control_c, 0, 64, 108
1, 7083, Control_c, 0, 64, 112
1, 7098, Control_c, 0, 64, 117
1, 7113, Control_c, 0, 64, 123
1, 7128, Control_c, 0, 64, 127
1, 7321, Note_on_c, 0, 51, 41
1, 7402, Note_off_c, 0, 51, 55
1, 7482, Control_c, 0, 64, 124
1, 7497, Control_c, 0, 64, 119
1, 7511, Control_c, 0, 64, 115
1, 7526, Control_c, 0, 64, 110
1, 7530, Note_on_c, 0, 51, 55
1, 7541, Control_c, 0, 64, 105
1, 7556, Control_c, 0, 64, 99
1, 7571, Control_c, 0, 64, 93
1, 7585, Control_c, 0, 64, 84
1, 7600, Control_c, 0, 64, 75
1, 7623, Control_c, 0, 64, 64
1, 7638, Control_c, 0, 64, 0
1, 7802, Control_c, 0, 64, 18
1, 7816, Control_c, 0, 64, 64
1, 7831, Control_c, 0, 64, 70
1, 7833, Note_off_c, 0, 72, 55
1, 7846, Control_c, 0, 64, 76
1, 7861, Control_c, 0, 64, 81
1, 7875, Control_c, 0, 64, 87
1, 7883, Note_off_c, 0, 68, 42
1, 7890, Control_c, 0, 64, 90
1, 7897, Note_off_c, 0, 63, 43
1, 7905, Control_c, 0, 64, 94
1, 7920, Control_c, 0, 64, 98
1, 7935, Control_c, 0, 64, 101
1, 7949, Control_c, 0, 64, 105
1, 7964, Control_c, 0, 64, 109
1, 7979, Control_c, 0, 64, 114
1, 7994, Control_c, 0, 64, 118
1, 8009, Control_c, 0, 64, 122
1, 8023, Control_c, 0, 64, 127
1, 8288, Note_off_c, 0, 51, 32
1, 8633, Note_on_c, 0, 63, 43
1, 8645, Note_on_c, 0, 39, 44
1, 8648, Note_on_c, 0, 61, 47
1, 8652, Note_on_c, 0, 55, 37
1, 8684, Control_c, 0, 64, 126
1, 8698, Control_c, 0, 64, 119
1, 8713, Control_c, 0, 64, 114
1, 8728, Control_c, 0, 64, 109
1, 8743, Control_c, 0, 64, 103
1, 8758, Control_c, 0, 64, 96
1, 8772, Control_c, 0, 64, 88
1, 8787, Control_c, 0, 64, 79
1, 8802, Control_c, 0, 64, 66
1, 8817, Control_c, 0, 64, 0
1, 8980, Control_c, 0, 64, 60
1, 8995, Control_c, 0, 64, 67
1, 9010, Control_c, 0, 64, 71
1, 9025, Control_c, 0, 64, 76
1, 9039, Control_c, 0, 64, 81
1, 9054, Control_c, 0, 64, 84
1, 9069, Control_c, 0, 64, 88
1, 9083, Control_c, 0, 64, 91
1, 9098, Control_c, 0, 64, 94
1, 9121, Control_c, 0, 64, 97
1, 9136, Control_c, 0, 64, 101
1, 9151, Control_c, 0, 64, 104
1, 9166, Control_c, 0, 64, 107
1, 9180, Control_c, 0, 64, 108
1, 9195, Control_c, 0, 64, 110
1, 9210, Control_c, 0, 64, 111
1, 9224, Control_c, 0, 64, 113
1, 9239, Control_c, 0, 64, 113
1, 9254, Control_c, 0, 64, 114
1, 9269, Control_c, 0, 64, 114
1, 9273, Note_on_c, 0, 41, 50
1, 9274, Note_on_c, 0, 56, 49
1, 9284, Control_c, 0, 64, 115
1, 9354, Note_off_c, 0, 61, 36
1, 9461, Note_off_c, 0, 39, 33
1, 9499, Note_on_c, 0, 58, 59
1, 9505, Note_on_c, 0, 43, 55
1, 9524, Note_off_c, 0, 56, 54
1, 9534, Note_off_c, 0, 41, 41
1, 9535, Note_off_c, 0, 63, 38
1, 9572, Note_off_c, 0, 55, 39
1, 9581, Control_c, 0, 64, 114
1, 9596, Control_c, 0, 64, 114
1, 9611, Control_c, 0, 64, 112
1, 9626, Control_c, 0, 64, 109
1, 9641, Control_c, 0, 64, 106
1, 9656, Control_c, 0, 64, 102
1, 9670, Control_c, 0, 64, 98
1, 9685, Control_c, 0, 64, 93
1, 9688, Note_on_c, 0, 60, 65
1, 9695, Note_on_c, 0, 44, 61
1, 9700, Control_c, 0, 64, 86
1, 9711, Note_off_c, 0, 58, 60
1, 9714, Control_c, 0, 64, 79
1, 9729, Control_c, 0, 64, 70
1, 9739, Note_off_c, 0, 43, 50
1, 9744, Control_c, 0, 64, 50
1, 9759, Control_c, 0, 64, 0
1, 9886, Note_on_c, 0, 55, 58
1, 9894, Note_on_c, 0, 46, 65
1, 9963, Note_off_c, 0, 44, 59
1, 9966, Note_off_c, 0, 60, 56
1, 10157, Note_on_c, 0, 56, 58
1, 10172, Note_on_c, 0, 48, 59
1, 10213, Note_off_c, 0, 55, 58
1, 10218, Note_off_c, 0, 46, 59
1, 10315, Control_c, 0, 64, 54
1, 10330, Control_c, 0, 64, 64
1, 10344, Control_c, 0, 64, 67
1, 10359, Control_c, 0, 64, 70
1, 10374, Control_c, 0, 64, 75
1, 10389, Control_c, 0, 64, 81
1, 10392, Note_off_c, 0, 56, 64
1, 10404, Control_c, 0, 64, 87
1, 10419, Control_c, 0, 64, 93
1, 10434, Control_c, 0, 64, 98
1, 10449, Control_c, 0, 64, 103
1, 10463, Control_c, 0, 64, 109
1, 10478, Control_c, 0, 64, 114
1, 10493, Control_c, 0, 64, 119
1, 10508, Control_c, 0, 64, 123
1, 10523, Control_c, 0, 64, 125
1, 10537, Control_c, 0, 64, 125
1, 10597, Control_c, 0, 64, 125
1, 10663, Control_c, 0, 64, 124
1, 10678, Control_c, 0, 64, 122
1, 10693, Control_c, 0, 64, 120
1, 10696, Note_on_c, 0, 62, 59
1, 10707, Note_on_c, 0, 59, 52
1, 10708, Control_c, 0, 64, 116
1, 10712, Note_on_c, 0, 56, 45
1, 10720, Note_on_c, 0, 53, 50
1, 10723, Control_c, 0, 64, 107
1, 10738, Control_c, 0, 64, 93
1, 10752, Control_c, 0, 64, 73
1, 10756, Note_off_c, 0, 48, 55
1, 10767, Control_c, 0, 64, 0
1, 10826, Control_c, 0, 64, 57
1, 10841, Control_c, 0, 64, 71
1, 10856, Control_c, 0, 64, 86
1, 10870, Control_c, 0, 64, 101
1, 10885, Control_c, 0, 64, 110
1, 10900, Note_off_c, 0, 62, 57
1, 10900, Control_c, 0, 64, 113
1, 10915, Control_c, 0, 64, 113
1, 10921, Note_off_c, 0, 59, 59
1, 10929, Control_c, 0, 64, 115
1, 10944, Control_c, 0, 64, 117
1, 10959, Control_c, 0, 64, 118
1, 10968, Note_off_c, 0, 56, 40
1, 10974, Control_c, 0, 64, 118
1, 11064, Control_c, 0, 64, 118
1, 11093, Control_c, 0, 64, 117
1, 11108, Control_c, 0, 64, 116
1, 11110, Note_on_c, 0, 60, 51
1, 11110, Note_on_c, 0, 56, 41
1, 11112, Note_on_c, 0, 63, 53
1, 11123, Control_c, 0, 64, 112
1, 11127, Note_on_c, 0, 51, 45
1, 11138, Control_c, 0, 64, 107
1, 11153, Control_c, 0, 64, 101
1, 11167, Control_c, 0, 64, 93
1, 11182, Control_c, 0, 64, 84
1, 11197, Control_c, 0, 64, 73
1, 11212, Control_c, 0, 64, 43
1, 11215, Note_off_c, 0, 53, 40
1, 11227, Control_c, 0, 64, 0
1, 11559, Control_c, 0, 64, 46
1, 11574, Control_c, 0, 64, 64
1, 11589, Control_c, 0, 64, 69
1, 11604, Control_c, 0, 64, 75
1, 11618, Control_c, 0, 64, 80
1, 11633, Control_c, 0, 64, 85
1, 11648, Control_c, 0, 64, 90
1, 11663, Control_c, 0, 64, 94
1, 11678, Control_c, 0, 64, 97
1, 11683, Note_off_c, 0, 60, 32
1, 11692, Control_c, 0, 64, 101
1, 11707, Control_c, 0, 64, 106
1, 11710, Note_off_c, 0, 56, 41
1, 11722, Control_c, 0, 64, 110
1, 11737, Control_c, 0, 64, 115
1, 11748, Note_off_c, 0, 63, 61
1, 11752, Control_c, 0, 64, 121
1, 11766, Control_c, 0, 64, 127
1, 12252, Note_on_c, 0, 68, 51
1, 12267, Note_on_c, 0, 60, 38
1, 12282, Note_on_c, 0, 63, 33
1, 12321, Note_off_c, 0, 60, 59
1, 12352, Note_off_c, 0, 63, 42
1, 12482, Note_on_c, 0, 70, 62
1, 12499, Note_on_c, 0, 63, 33
1, 12508, Note_on_c, 0, 61, 48
1, 12511, Note_off_c, 0, 68, 58
1, 12542, Note_off_c, 0, 63, 47
1, 12598, Note_off_c, 0, 61, 61
1, 12739, Control_c, 0, 64, 120
1, 12754, Control_c, 0, 64, 113
1, 12769, Note_on_c, 0, 72, 57
1, 12769, Control_c, 0, 64, 107
1, 12783, Note_on_c, 0, 68, 51
1, 12784, Note_on_c, 0, 63, 47
1, 12784, Control_c, 0, 64, 99
1, 12794, Note_off_c, 0, 70, 46
1, 12799, Control_c, 0, 64, 90
1, 12813, Control_c, 0, 64, 78
1, 12828, Control_c, 0, 64, 60
1, 12843, Control_c, 0, 64, 0
1, 12969, Control_c, 0, 64, 60
1, 12984, Control_c, 0, 64, 70
1, 12995, Note_off_c, 0, 68, 58
1, 12999, Control_c, 0, 64, 77
1, 13013, Control_c, 0, 64, 84
1, 13028, Control_c, 0, 64, 90
1, 13043, Control_c, 0, 64, 94
1, 13051, Note_off_c, 0, 72, 64
1, 13057, Control_c, 0, 64, 98
1, 13062, Note_off_c, 0, 63, 62
1, 13072, Control_c, 0, 64, 102
1, 13087, Control_c, 0, 64, 106
1, 13102, Control_c, 0, 64, 111
1, 13117, Control_c, 0, 64, 114
1, 13132, Control_c, 0, 64, 116
1, 13146, Control_c, 0, 64, 117
1, 13263, Note_on_c, 0, 39, 43
1, 13270, Note_on_c, 0, 70, 64
1, 13280, Control_c, 0, 64, 115
1, 13290, Note_on_c, 0, 63, 47
1, 13293, Note_on_c, 0, 61, 44
1, 13295, Control_c, 0, 64, 102
1, 13310, Control_c, 0, 64, 83
1, 13325, Control_c, 0, 64, 46
1, 13326, Note_off_c, 0, 51, 38
1, 13339, Control_c, 0, 64, 0
1, 13369, Note_off_c, 0, 63, 63
1, 13385, Control_c, 0, 64, 55
1, 13400, Control_c, 0, 64, 70
1, 13412, Note_off_c, 0, 61, 59
1, 13415, Control_c, 0, 64, 80
1, 13429, Control_c, 0, 64, 94
1, 13444, Control_c, 0, 64, 102
1, 13459, Control_c, 0, 64, 104
1, 13474, Control_c, 0, 64, 104
1, 13503, Control_c, 0, 64, 105
1, 13518, Control_c, 0, 64, 105
1, 13588, Note_off_c, 0, 70, 57
1, 13635, Note_on_c, 0, 72, 58
1, 13644, Control_c, 0, 64, 105
1, 13647, Note_on_c, 0, 68, 49
1, 13656, Note_on_c, 0, 44, 42
1, 13659, Control_c, 0, 64, 104
1, 13663, Note_on_c, 0, 63, 42
1, 13674, Control_c, 0, 64, 95
1, 13688, Control_c, 0, 64, 80
1, 13703, Control_c, 0, 64, 51
1, 13718, Control_c, 0, 64, 0
1, 13775, Note_off_c, 0, 39, 31
1, 13836, Control_c, 0, 64, 43
1, 13851, Control_c, 0, 64, 64
1, 13866, Control_c, 0, 64, 70
1, 13881, Control_c, 0, 64, 78
1, 13895, Control_c, 0, 64, 88
1, 13910, Control_c, 0, 64, 98
1, 13920, Note_off_c, 0, 68, 60
1, 13925, Control_c, 0, 64, 106
1, 13940, Control_c, 0, 64, 114
1, 13950, Note_off_c, 0, 63, 53
1, 13953, Note_off_c, 0, 72, 64
1, 13954, Control_c, 0, 64, 124
1, 13969, Control_c, 0, 64, 127
1, 14293, Note_on_c, 0, 51, 35
1, 14301, Note_on_c, 0, 68, 41
1, 14304, Note_on_c, 0, 60, 29
1, 14319, Note_on_c, 0, 63, 23
1, 14432, Note_off_c, 0, 63, 33
1, 14449, Note_off_c, 0, 68, 43
1, 14478, Note_off_c, 0, 60, 33
1, 14788, Note_on_c, 0, 68, 40
1, 14809, Note_on_c, 0, 60, 13
1, 14817, Note_on_c, 0, 63, 23
1, 14832, Note_on_c, 0, 56, 22
1, 15062, Note_off_c, 0, 68, 51
1, 15098, Note_off_c, 0, 63, 41
1, 15099, Note_off_c, 0, 60, 36
1, 15159, Note_off_c, 0, 56, 42
1, 15168, Note_off_c, 0, 51, 35
1, 15274, Control_c, 0, 67, 122
1, 15278, Note_off_c, 0, 44, 40
1, 15289, Control_c, 0, 67, 116
1, 15304, Control_c, 0, 67, 111
1, 15319, Control_c, 0, 67, 105
1, 15333, Control_c, 0, 67, 100
1, 15348, Control_c, 0, 67, 94
1, 15363, Control_c, 0, 67, 89
1, 15378, Control_c, 0, 67, 83
1, 15393, Control_c, 0, 67, 76
1, 15407, Control_c, 0, 67, 69
1, 15422, Control_c, 0, 67, 60
1, 15437, Control_c, 0, 67, 52
1, 15451, Control_c, 0, 67, 45
1, 15466, Control_c, 0, 67, 38
1, 15481, Control_c, 0, 67, 31
1, 15496, Control_c, 0, 67, 24
1, 15511, Control_c, 0, 67, 16
1, 15525, Control_c, 0, 67, 0
1, 15876, Control_c, 0, 64, 105
1, 15890, Control_c, 0, 64, 73
1, 15905, Control_c, 0, 64, 0
1, 15958, Note_on_c, 0, 92, 97
1, 15963, Note_on_c, 0, 80, 88
1, 15965, Note_on_c, 0, 44, 67
1, 15966, Note_on_c, 0, 32, 68
1, 16008, Note_on_c, 0, 90, 32
1, 16034, Note_off_c, 0, 90, 48
1, 16038, Control_c, 0, 64, 61
1, 16053, Control_c, 0, 64, 97
1, 16068, Control_c, 0, 64, 127
1, 16092, Note_off_c, 0, 32, 63
1, 16112, Note_off_c, 0, 44, 64
1, 16427, Note_on_c, 0, 75, 90
1, 16438, Note_on_c, 0, 66, 75
1, 16446, Note_on_c, 0, 68, 72
1, 16500, Note_off_c, 0, 92, 65
1, 16544, Note_off_c, 0, 80, 56
1, 16654, Note_off_c, 0, 75, 62
1, 16682, Note_off_c, 0, 68, 48
1, 16743, Note_off_c, 0, 66, 52
1, 16744, Note_on_c, 0, 68, 57
1, 16748, Note_on_c, 0, 74, 83
1, 16754, Note_on_c, 0, 65, 70
1, 16817, Control_c, 0, 64, 107
1, 16831, Control_c, 0, 64, 82
1, 16846, Control_c, 0, 64, 18
1, 16861, Control_c, 0, 64, 0
1, 16920, Control_c, 0, 64, 70
1, 16935, Control_c, 0, 64, 87
1, 16950, Control_c, 0, 64, 119
1, 16965, Control_c, 0, 64, 127
1, 17019, Note_off_c, 0, 74, 65
1, 17068, Note_off_c, 0, 65, 65
1, 17069, Note_off_c, 0, 68, 65
1, 17442, Note_on_c, 0, 44, 63
1, 17442, Note_on_c, 0, 80, 87
1, 17448, Note_on_c, 0, 68, 76
1, 17452, Note_on_c, 0, 32, 55
1, 17492, Control_c, 0, 64, 101
1, 17507, Control_c, 0, 64, 78
1, 17522, Control_c, 0, 64, 0
1, 17566, Control_c, 0, 64, 45
1, 17581, Control_c, 0, 64, 75
1, 17595, Note_off_c, 0, 32, 63
1, 17596, Control_c, 0, 64, 94
1, 17604, Note_off_c, 0, 44, 64
1, 17610, Control_c, 0, 64, 123
1, 17625, Control_c, 0, 64, 127
1, 17902, Note_on_c, 0, 61, 72
1, 17912, Note_on_c, 0, 56, 64
1, 17919, Note_on_c, 0, 52, 61
1, 17995, Note_off_c, 0, 80, 62
1, 18057, Note_off_c, 0, 68, 62
1, 18181, Note_off_c, 0, 61, 62
1, 18241, Control_c, 0, 64, 106
1, 18247, Note_on_c, 0, 60, 61
1, 18254, Note_on_c, 0, 51, 56
1, 18256, Control_c, 0, 64, 75
1, 18271, Control_c, 0, 64, 0
1, 18309, Note_off_c, 0, 52, 37
1, 18345, Control_c, 0, 64, 66
1, 18359, Control_c, 0, 64, 78
1, 18374, Control_c, 0, 64, 94
1, 18389, Control_c, 0, 64, 113
1, 18404, Control_c, 0, 64, 127
1, 18458, Note_off_c, 0, 60, 54
1, 18483, Note_off_c, 0, 56, 19
1, 18526, Note_off_c, 0, 51, 37
1, 18571, Note_on_c, 0, 72, 57
1, 18575, Note_on_c, 0, 60, 50
1, 18601, Note_off_c, 0, 60, 53
1, 18652, Note_on_c, 0, 77, 66
1, 18660, Note_on_c, 0, 65, 48
1, 18670, Control_c, 0, 64, 123
1, 18685, Control_c, 0, 64, 100
1, 18698, Note_off_c, 0, 72, 57
1, 18700, Control_c, 0, 64, 80
1, 18715, Control_c, 0, 64, 0
1, 18900, Control_c, 0, 64, 62
1, 18915, Control_c, 0, 64, 67
1, 18921, Note_on_c, 0, 39, 47
1, 18926, Note_on_c, 0, 27, 49
1, 18930, Control_c, 0, 64, 72
1, 18945, Control_c, 0, 64, 79
1, 18959, Control_c, 0, 64, 88
1, 18974, Note_off_c, 0, 65, 64
1, 18975, Control_c, 0, 64, 98
1, 18976, Note_off_c, 0, 77, 60
1, 18990, Control_c, 0, 64, 107
1, 18995, Note_off_c, 0, 27, 65
1, 19005, Control_c, 0, 64, 115
1, 19009, Note_off_c, 0, 39, 61
1, 19020, Control_c, 0, 64, 127
1, 19272, Note_on_c, 0, 75, 56
1, 19275, Note_on_c, 0, 63, 46
1, 19293, Note_off_c, 0, 75, 61
1, 19299, Note_off_c, 0, 63, 56
1, 19361, Note_on_c, 0, 75, 73
1, 19363, Note_on_c, 0, 51, 52
1, 19364, Note_on_c, 0, 63, 61
1, 19371, Note_on_c, 0, 60, 54
1, 19519, Note_off_c, 0, 51, 30
1, 19521, Note_off_c, 0, 60, 51
1, 19633, Control_c, 0, 64, 123
1, 19648, Control_c, 0, 64, 103
1, 19663, Control_c, 0, 64, 85
1, 19667, Note_on_c, 0, 59, 59
1, 19676, Note_on_c, 0, 50, 52
1, 19678, Control_c, 0, 64, 64
1, 19686, Note_on_c, 0, 53, 48
1, 19693, Control_c, 0, 64, 0
1, 19737, Control_c, 0, 64, 55
1, 19749, Note_off_c, 0, 75, 60
1, 19752, Control_c, 0, 64, 76
1, 19767, Control_c, 0, 64, 93
1, 19770, Note_off_c, 0, 63, 62
1, 19783, Control_c, 0, 64, 117
1, 19797, Control_c, 0, 64, 127
1, 19837, Note_off_c, 0, 59, 62
1, 19855, Note_off_c, 0, 50, 62
1, 19860, Note_off_c, 0, 53, 65
1, 19991, Note_on_c, 0, 75, 60
1, 19996, Note_on_c, 0, 63, 54
1, 20011, Note_off_c, 0, 75, 65
1, 20015, Note_off_c, 0, 63, 61
1, 20068, Note_on_c, 0, 75, 77
1, 20071, Note_on_c, 0, 63, 69
1, 20256, Control_c, 0, 64, 125
1, 20271, Control_c, 0, 64, 110
1, 20286, Control_c, 0, 64, 92
1, 20301, Control_c, 0, 64, 70
1, 20316, Control_c, 0, 64, 0
1, 20320, Note_on_c, 0, 39, 56
1, 20381, Control_c, 0, 64, 60
1, 20396, Control_c, 0, 64, 74
1, 20411, Control_c, 0, 64, 95
1, 20426, Control_c, 0, 64, 122
1, 20427, Note_off_c, 0, 39, 62
1, 20439, Note_off_c, 0, 75, 61
1, 20441, Note_off_c, 0, 63, 64
1, 20441, Control_c, 0, 64, 127
1, 20683, Note_on_c, 0, 63, 53
1, 20685, Note_on_c, 0, 75, 54
1, 20705, Note_off_c, 0, 63, 60
1, 20707, Note_off_c, 0, 75, 60
1, 20768, Note_on_c, 0, 59, 51
1, 20774, Note_on_c, 0, 50, 46
1, 20780, Note_on_c, 0, 75, 68
1, 20781, Note_on_c, 0, 63, 56
1, 20788, Note_on_c, 0, 53, 45
1, 20846, Note_off_c, 0, 50, 61
1, 20880, Note_off_c, 0, 59, 55
1, 20953, Note_off_c, 0, 53, 53
1, 21049, Control_c, 0, 64, 118
1, 21064, Control_c, 0, 64, 99
1, 21079, Control_c, 0, 64, 74
1, 21100, Note_on_c, 0, 58, 50
1, 21101, Control_c, 0, 64, 0
1, 21106, Note_on_c, 0, 49, 47
1, 21107, Note_on_c, 0, 55, 46
1, 21160, Control_c, 0, 64, 57
1, 21171, Note_off_c, 0, 75, 57
1, 21175, Control_c, 0, 64, 74
1, 21190, Control_c, 0, 64, 90
1, 21195, Note_off_c, 0, 63, 59
1, 21204, Control_c, 0, 64, 113
1, 21219, Control_c, 0, 64, 127
1, 21234, Note_off_c, 0, 58, 63
1, 21237, Note_off_c, 0, 55, 62
1, 21259, Note_off_c, 0, 49, 62
1, 21376, Note_on_c, 0, 75, 80
1, 21380, Note_on_c, 0, 63, 74
1, 21409, Note_off_c, 0, 75, 60
1, 21412, Note_off_c, 0, 63, 66
1, 21473, Note_on_c, 0, 75, 82
1, 21475, Note_on_c, 0, 63, 80
1, 21495, Note_off_c, 0, 63, 70
1, 21523, Note_off_c, 0, 75, 65
1, 21804, Note_on_c, 0, 92, 105
1, 21812, Note_on_c, 0, 80, 97
1, 21812, Note_on_c, 0, 32, 88
1, 21813, Note_on_c, 0, 44, 90
1, 21828, Control_c, 0, 64, 99
1, 21851, Control_c, 0, 64, 55
1, 21860, Note_on_c, 0, 93, 33
1, 21866, Control_c, 0, 64, 0
1, 21889, Note_off_c, 0, 93, 45
1, 21925, Note_off_c, 0, 32, 64
1, 21925, Control_c, 0, 64, 70
1, 21940, Control_c, 0, 64, 94
1, 21943, Note_off_c, 0, 44, 63
1, 21955, Control_c, 0, 64, 127
1, 22232, Note_on_c, 0, 75, 88
1, 22247, Note_on_c, 0, 68, 69
1, 22252, Note_on_c, 0, 66, 63
1, 22275, Note_off_c, 0, 75, 65
1, 22277, Note_off_c, 0, 68, 66
1, 22280, Note_off_c, 0, 66, 68
1, 22324, Note_on_c, 0, 75, 95
1, 22336, Note_on_c, 0, 66, 87
1, 22342, Note_on_c, 0, 68, 72
1, 22438, Note_off_c, 0, 68, 53
1, 22458, Note_off_c, 0, 92, 62
1, 22511, Note_off_c, 0, 80, 58
1, 22534, Note_off_c, 0, 75, 62
1, 22658, Note_on_c, 0, 74, 88
1, 22663, Note_on_c, 0, 65, 74
1, 22665, Note_on_c, 0, 68, 77
1, 22672, Note_off_c, 0, 66, 62
1, 22718, Control_c, 0, 64, 99
1, 22733, Control_c, 0, 64, 72
1, 22748, Control_c, 0, 64, 0
1, 22822, Control_c, 0, 64, 55
1, 22837, Control_c, 0, 64, 76
1, 22851, Control_c, 0, 64, 93
1, 22866, Control_c, 0, 64, 122
1, 22881, Control_c, 0, 64, 127
1, 22942, Note_off_c, 0, 74, 66
1, 22971, Note_off_c, 0, 65, 63
1, 22998, Note_off_c, 0, 68, 67
1, 23363, Control_c, 0, 64, 120
1, 23378, Note_on_c, 0, 44, 59
1, 23378, Control_c, 0, 64, 92
1, 23381, Note_on_c, 0, 80, 80
1, 23386, Note_on_c, 0, 32, 60
1, 23389, Note_on_c, 0, 68, 75
1, 23392, Control_c, 0, 64, 70
1, 23407, Control_c, 0, 64, 0
1, 23437, Control_c, 0, 64, 29
1, 23452, Control_c, 0, 64, 70
1, 23456, Note_off_c, 0, 32, 63
1, 23460, Note_off_c, 0, 44, 64
1, 23466, Control_c, 0, 64, 86
1, 23481, Control_c, 0, 64, 109
1, 23496, Control_c, 0, 64, 127
1, 23738, Note_on_c, 0, 61, 68
1, 23744, Note_on_c, 0, 56, 68
1, 23751, Note_on_c, 0, 52, 64
1, 23772, Note_off_c, 0, 61, 61
1, 23789, Note_off_c, 0, 52, 64
1, 23789, Note_off_c, 0, 56, 60
1, 23859, Note_on_c, 0, 61, 81
1, 23872, Note_on_c, 0, 56, 56
1, 23880, Note_on_c, 0, 52, 63
1, 23881, Note_off_c, 0, 80, 57
1, 23905, Note_off_c, 0, 68, 62
1, 24091, Note_off_c, 0, 61, 55
1, 24137, Note_off_c, 0, 52, 53
1, 24142, Control_c, 0, 64, 119
1, 24157, Control_c, 0, 64, 90
1, 24169, Note_on_c, 0, 51, 48
1, 24171, Control_c, 0, 64, 64
1, 24186, Note_on_c, 0, 60, 61
1, 24186, Control_c, 0, 64, 0
1, 24191, Note_off_c, 0, 56, 53
1, 24201, Control_c, 0, 67, 12
1, 24215, Control_c, 0, 67, 21
1, 24230, Control_c, 0, 67, 34
1, 24245, Control_c, 0, 64, 68
1, 24245, Control_c, 0, 67, 49
1, 24260, Control_c, 0, 64, 79
1, 24260, Control_c, 0, 67, 62
1, 24275, Control_c, 0, 64, 95
1, 24275, Control_c, 0, 67, 74
1, 24281, Note_off_c, 0, 51, 55
1, 24282, Note_off_c, 0, 60, 59
1, 24289, Control_c, 0, 64, 110
1, 24289, Control_c, 0, 67, 84
1, 24304, Control_c, 0, 64, 118
1, 24304, Control_c, 0, 67, 92
1, 24319, Control_c, 0, 64, 118
1, 24319, Control_c, 0, 67, 97
1, 24334, Control_c, 0, 67, 98
1, 24349, Control_c, 0, 64, 119
1, 24352, Note_on_c, 0, 72, 62
1, 24357, Note_on_c, 0, 60, 59
1, 24364, Control_c, 0, 67, 100
1, 24378, Control_c, 0, 64, 119
1, 24378, Control_c, 0, 67, 103
1, 24393, Control_c, 0, 67, 112
1, 24408, Control_c, 0, 67, 121
1, 24414, Note_off_c, 0, 60, 61
1, 24419, Note_off_c, 0, 72, 63
1, 24423, Control_c, 0, 67, 127
1, 24435, Note_on_c, 0, 73, 67
1, 24450, Note_on_c, 0, 61, 63
1, 24488, Note_off_c, 0, 73, 63
1, 24497, Control_c, 0, 64, 119
1, 24504, Note_off_c, 0, 61, 62
1, 24512, Control_c, 0, 64, 113
1, 24516, Note_on_c, 0, 62, 65
1, 24518, Note_on_c, 0, 74, 66
1, 24527, Control_c, 0, 64, 97
1, 24541, Control_c, 0, 64, 72
1, 24546, Note_off_c, 0, 74, 64
1, 24556, Control_c, 0, 64, 0
1, 24568, Note_off_c, 0, 62, 50
1, 24580, Note_on_c, 0, 75, 69
1, 24593, Note_on_c, 0, 63, 57
1, 24623, Note_off_c, 0, 75, 66
1, 24634, Note_off_c, 0, 63, 64
1, 24636, Note_on_c, 0, 76, 77
1, 24642, Note_on_c, 0, 64, 54
1, 24703, Note_off_c, 0, 64, 61
1, 24704, Note_off_c, 0, 76, 57
1, 24706, Control_c, 0, 64, 69
1, 24720, Control_c, 0, 64, 79
1, 24725, Note_on_c, 0, 79, 67
1, 24730, Note_on_c, 0, 67, 59
1, 24735, Control_c, 0, 64, 89
1, 24750, Control_c, 0, 64, 98
1, 24765, Control_c, 0, 64, 105
1, 24780, Control_c, 0, 64, 108
1, 24790, Note_off_c, 0, 79, 62
1, 24794, Control_c, 0, 64, 111
1, 24796, Note_off_c, 0, 67, 62
1, 24809, Control_c, 0, 64, 113
1, 24824, Control_c, 0, 64, 114
1, 24891, Control_c, 0, 64, 108
1, 24906, Control_c, 0, 64, 91
1, 24920, Control_c, 0, 64, 63
1, 24935, Control_c, 0, 64, 0
1, 25127, Control_c, 0, 64, 64
1, 25142, Control_c, 0, 64, 69
1, 25157, Control_c, 0, 64, 75
1, 25171, Control_c, 0, 64, 84
1, 25186, Control_c, 0, 64, 92
1, 25192, Note_on_c, 0, 77, 65
1, 25198, Note_on_c, 0, 65, 53
1, 25201, Control_c, 0, 64, 100
1, 25216, Control_c, 0, 64, 106
1, 25231, Control_c, 0, 64, 112
1, 25246, Control_c, 0, 64, 118
1, 25261, Control_c, 0, 64, 124
1, 25276, Control_c, 0, 64, 127
1, 25282, Note_off_c, 0, 65, 57
1, 25312, Note_off_c, 0, 77, 52
1, 25401, Note_on_c, 0, 39, 38
1, 25407, Note_on_c, 0, 77, 64
1, 25410, Control_c, 0, 64, 121
1, 25413, Note_on_c, 0, 27, 45
1, 25422, Note_on_c, 0, 65, 50
1, 25425, Control_c, 0, 64, 107
1, 25440, Control_c, 0, 64, 89
1, 25455, Control_c, 0, 64, 69
1, 25469, Control_c, 0, 64, 0
1, 25529, Control_c, 0, 64, 69
1, 25532, Note_off_c, 0, 27, 62
1, 25543, Control_c, 0, 64, 80
1, 25558, Control_c, 0, 64, 95
1, 25573, Control_c, 0, 64, 110
1, 25575, Note_off_c, 0, 39, 55
1, 25595, Control_c, 0, 64, 117
1, 25610, Control_c, 0, 64, 120
1, 25623, Note_off_c, 0, 65, 65
1, 25624, Note_off_c, 0, 77, 59
1, 25624, Control_c, 0, 64, 122
1, 25639, Control_c, 0, 64, 126
1, 25654, Control_c, 0, 64, 127
1, 25870, Note_on_c, 0, 63, 48
1, 25871, Note_on_c, 0, 75, 54
1, 25895, Note_off_c, 0, 75, 58
1, 25896, Note_off_c, 0, 63, 56
1, 25964, Note_on_c, 0, 51, 46
1, 25965, Note_on_c, 0, 75, 61
1, 25969, Note_on_c, 0, 60, 50
1, 25978, Note_on_c, 0, 63, 54
1, 26120, Note_off_c, 0, 60, 53
1, 26128, Note_off_c, 0, 51, 31
1, 26248, Control_c, 0, 64, 117
1, 26261, Note_on_c, 0, 59, 57
1, 26262, Control_c, 0, 64, 97
1, 26267, Note_on_c, 0, 50, 47
1, 26271, Note_on_c, 0, 53, 51
1, 26277, Control_c, 0, 64, 81
1, 26292, Control_c, 0, 64, 64
1, 26307, Control_c, 0, 64, 0
1, 26344, Control_c, 0, 64, 61
1, 26359, Control_c, 0, 64, 75
1, 26373, Control_c, 0, 64, 90
1, 26377, Note_off_c, 0, 75, 58
1, 26388, Control_c, 0, 64, 106
1, 26403, Control_c, 0, 64, 119
1, 26408, Note_off_c, 0, 63, 62
1, 26417, Control_c, 0, 64, 127
1, 26441, Note_off_c, 0, 59, 62
1, 26465, Note_off_c, 0, 50, 61
1, 26468, Note_off_c, 0, 53, 65
1, 26590, Note_on_c, 0, 75, 57
1, 26608, Note_on_c, 0, 63, 31
1, 26611, Note_off_c, 0, 75, 65
1, 26651, Note_off_c, 0, 63, 0
1, 26666, Note_on_c, 0, 63, 46
1, 26670, Note_on_c, 0, 75, 79
1, 26804, Control_c, 0, 64, 124
1, 26818, Control_c, 0, 64, 121
1, 26833, Control_c, 0, 64, 118
1, 26848, Control_c, 0, 64, 109
1, 26863, Control_c, 0, 64, 95
1, 26878, Control_c, 0, 64, 78
1, 26892, Control_c, 0, 64, 0
1, 26912, Note_on_c, 0, 39, 56
1, 26968, Control_c, 0, 64, 60
1, 26982, Control_c, 0, 64, 74
1, 26997, Control_c, 0, 64, 91
1, 27012, Control_c, 0, 64, 119
1, 27021, Note_off_c, 0, 39, 62
1, 27027, Control_c, 0, 64, 127
1, 27043, Note_off_c, 0, 75, 61
1, 27051, Note_off_c, 0, 63, 65
1, 27269, Note_on_c, 0, 75, 61
1, 27276, Note_on_c, 0, 63, 52
1, 27290, Note_off_c, 0, 75, 62
1, 27299, Note_off_c, 0, 63, 58
1, 27360, Note_on_c, 0, 50, 46
1, 27367, Note_on_c, 0, 59, 49
1, 27371, Note_on_c, 0, 75, 72
1, 27377, Note_on_c, 0, 53, 45
1, 27382, Note_on_c, 0, 63, 61
1, 27428, Note_off_c, 0, 50, 61
1, 27450, Note_off_c, 0, 59, 57
1, 27613, Note_off_c, 0, 53, 36
1, 27671, Control_c, 0, 64, 122
1, 27686, Control_c, 0, 64, 115
1, 27701, Control_c, 0, 64, 108
1, 27715, Control_c, 0, 64, 97
1, 27730, Control_c, 0, 64, 82
1, 27731, Note_on_c, 0, 58, 50
1, 27738, Note_on_c, 0, 49, 44
1, 27739, Note_on_c, 0, 55, 47
1, 27745, Control_c, 0, 64, 63
1, 27761, Control_c, 0, 64, 0
1, 27842, Control_c, 0, 64, 49
1, 27857, Control_c, 0, 64, 69
1, 27872, Control_c, 0, 64, 80
1, 27887, Control_c, 0, 64, 93
1, 27902, Control_c, 0, 64, 100
1, 27917, Control_c, 0, 64, 104
1, 27923, Note_off_c, 0, 75, 55
1, 27929, Note_off_c, 0, 63, 57
1, 27932, Control_c, 0, 64, 107
1, 27946, Control_c, 0, 64, 111
1, 27955, Note_off_c, 0, 58, 55
1, 27961, Control_c, 0, 64, 118
1, 27967, Note_off_c, 0, 55, 55
1, 27976, Control_c, 0, 64, 127
1, 27981, Note_off_c, 0, 49, 49
1, 28197, Note_on_c, 0, 75, 53
1, 28205, Note_on_c, 0, 63, 49
1, 28239, Note_off_c, 0, 75, 61
1, 28240, Note_off_c, 0, 63, 59
1, 28328, Note_on_c, 0, 75, 66
1, 28355, Note_on_c, 0, 63, 40
1, 28719, Note_on_c, 0, 44, 46
1, 28725, Control_c, 0, 64, 115
1, 28728, Note_on_c, 0, 32, 48
1, 28740, Control_c, 0, 64, 95
1, 28755, Control_c, 0, 64, 75
1, 28769, Control_c, 0, 64, 0
1, 28844, Control_c, 0, 64, 60
1, 28859, Control_c, 0, 64, 75
1, 28866, Note_off_c, 0, 32, 56
1, 28874, Control_c, 0, 64, 92
1, 28888, Control_c, 0, 64, 117
1, 28903, Control_c, 0, 64, 127
1, 28905, Note_off_c, 0, 44, 62
1, 28915, Note_off_c, 0, 63, 54
1, 28958, Note_off_c, 0, 75, 55
1, 29094, Note_on_c, 0, 68, 57
1, 29214, Note_on_c, 0, 48, 46
1, 29223, Note_on_c, 0, 54, 40
1, 29225, Note_on_c, 0, 77, 78
1, 29234, Note_on_c, 0, 56, 42
1, 29246, Note_on_c, 0, 65, 58
1, 29270, Note_off_c, 0, 68, 57
1, 29291, Note_off_c, 0, 48, 62
1, 29321, Note_off_c, 0, 54, 51
1, 29366, Note_off_c, 0, 56, 35
1, 29459, Control_c, 0, 64, 120
1, 29474, Control_c, 0, 64, 106
1, 29489, Control_c, 0, 64, 91
1, 29504, Control_c, 0, 64, 71
1, 29509, Note_on_c, 0, 56, 55
1, 29517, Note_on_c, 0, 47, 57
1, 29518, Control_c, 0, 64, 0
1, 29519, Note_on_c, 0, 53, 52
1, 29563, Control_c, 0, 64, 57
1, 29578, Control_c, 0, 64, 74
1, 29592, Control_c, 0, 64, 88
1, 29607, Control_c, 0, 64, 111
1, 29622, Control_c, 0, 64, 127
1, 29623, Note_off_c, 0, 77, 56
1, 29636, Note_off_c, 0, 65, 64
1, 29717, Note_off_c, 0, 56, 62
1, 29740, Note_off_c, 0, 53, 64
1, 29756, Note_off_c, 0, 47, 61
1, 29825, Note_on_c, 0, 75, 69
1, 29832, Note_on_c, 0, 63, 68
1, 29861, Note_off_c, 0, 63, 67
1, 29879, Note_off_c, 0, 75, 65
1, 29934, Note_on_c, 0, 74, 74
1, 29943, Note_on_c, 0, 62, 63
1, 30117, Control_c, 0, 64, 126
1, 30132, Control_c, 0, 64, 108
1, 30147, Control_c, 0, 64, 88
1, 30163, Control_c, 0, 64, 64
1, 30178, Control_c, 0, 64, 0
1, 30183, Note_on_c, 0, 44, 58
1, 30185, Note_on_c, 0, 32, 58
1, 30252, Control_c, 0, 64, 71
1, 30266, Control_c, 0, 64, 87
1, 30281, Control_c, 0, 64, 106
1, 30290, Note_off_c, 0, 32, 61
1, 30296, Control_c, 0, 64, 123
1, 30304, Note_off_c, 0, 44, 63
1, 30311, Control_c, 0, 64, 127
1, 30322, Note_off_c, 0, 74, 65
1, 30364, Note_off_c, 0, 62, 60
1, 30483, Note_on_c, 0, 73, 76
1, 30536, Note_off_c, 0, 73, 62
1, 30596, Note_on_c, 0, 58, 64
1, 30597, Note_on_c, 0, 73, 81
1, 30606, Note_on_c, 0, 44, 55
1, 30606, Note_on_c, 0, 61, 66
1, 30606, Note_on_c, 0, 67, 66
1, 30611, Note_on_c, 0, 51, 51
1, 30674, Note_off_c, 0, 51, 49
1, 30708, Note_off_c, 0, 58, 59
1, 30726, Note_off_c, 0, 44, 55
1, 30852, Control_c, 0, 64, 112
1, 30866, Control_c, 0, 64, 92
1, 30881, Note_on_c, 0, 44, 61
1, 30881, Note_on_c, 0, 56, 69
1, 30881, Control_c, 0, 64, 69
1, 30892, Note_on_c, 0, 51, 55
1, 30896, Control_c, 0, 64, 0
1, 30940, Control_c, 0, 64, 44
1, 30956, Control_c, 0, 64, 72
1, 30971, Control_c, 0, 64, 88
1, 30986, Control_c, 0, 64, 111
1, 31001, Control_c, 0, 64, 127
1, 31022, Note_off_c, 0, 61, 62
1, 31029, Note_off_c, 0, 73, 61
1, 31058, Note_off_c, 0, 67, 56
1, 31063, Note_off_c, 0, 56, 62
1, 31089, Note_off_c, 0, 44, 61
1, 31094, Note_off_c, 0, 51, 58
1, 31164, Note_on_c, 0, 72, 77
1, 31172, Note_on_c, 0, 60, 72
1, 31172, Note_on_c, 0, 68, 67
1, 31202, Note_off_c, 0, 60, 63
1, 31211, Note_off_c, 0, 72, 65
1, 31223, Note_off_c, 0, 68, 63
1, 31288, Note_on_c, 0, 73, 89
1, 31291, Note_on_c, 0, 61, 86
1, 31447, Note_off_c, 0, 61, 54
1, 31456, Note_off_c, 0, 73, 59
1, 31597, Note_on_c, 0, 72, 85
1, 31601, Control_c, 0, 64, 102
1, 31608, Note_on_c, 0, 68, 73
1, 31609, Note_on_c, 0, 29, 66
1, 31609, Note_on_c, 0, 60, 75
1, 31610, Note_on_c, 0, 41, 64
1, 31615, Control_c, 0, 64, 74
1, 31630, Control_c, 0, 64, 0
1, 31704, Control_c, 0, 64, 68
1, 31719, Control_c, 0, 64, 80
1, 31733, Control_c, 0, 64, 100
1, 31748, Control_c, 0, 64, 127
1, 31763, Note_off_c, 0, 29, 61
1, 31769, Note_off_c, 0, 72, 65
1, 31774, Note_off_c, 0, 68, 66
1, 31777, Note_off_c, 0, 60, 63
1, 31791, Note_off_c, 0, 41, 65
1, 31953, Note_on_c, 0, 70, 85
1, 31974, Note_on_c, 0, 62, 58
1, 31974, Note_on_c, 0, 68, 63
1, 31977, Note_on_c, 0, 58, 54
1, 31998, Note_off_c, 0, 68, 63
1, 32002, Note_off_c, 0, 58, 59
1, 32010, Note_off_c, 0, 62, 60
1, 32030, Note_off_c, 0, 70, 60
1, 32069, Note_on_c, 0, 70, 73
1, 32080, Note_on_c, 0, 68, 72
1, 32081, Note_on_c, 0, 55, 73
1, 32082, Note_on_c, 0, 58, 72
1, 32086, Note_on_c, 0, 43, 70
1, 32092, Note_on_c, 0, 62, 63
1, 32131, Note_off_c, 0, 55, 63
1, 32147, Note_off_c, 0, 43, 60
1, 32408, Control_c, 0, 64, 117
1, 32413, Note_on_c, 0, 53, 73
1, 32420, Note_on_c, 0, 41, 65
1, 32423, Control_c, 0, 64, 99
1, 32437, Control_c, 0, 64, 80
1, 32452, Control_c, 0, 64, 0
1, 32543, Note_off_c, 0, 62, 51
1, 32552, Note_off_c, 0, 58, 58
1, 32557, Control_c, 0, 64, 65
1, 32564, Note_off_c, 0, 68, 57
1, 32572, Control_c, 0, 64, 75
1, 32586, Control_c, 0, 64, 85
1, 32601, Control_c, 0, 64, 94
1, 32611, Note_off_c, 0, 53, 63
1, 32616, Control_c, 0, 64, 98
1, 32631, Control_c, 0, 64, 101
1, 32646, Control_c, 0, 64, 103
1, 32653, Note_off_c, 0, 41, 63
1, 32660, Control_c, 0, 64, 107
1, 32675, Control_c, 0, 64, 111
1, 32690, Control_c, 0, 64, 114
1, 32705, Control_c, 0, 64, 116
1, 32720, Control_c, 0, 64, 118
1, 32734, Control_c, 0, 64, 120
1, 32749, Control_c, 0, 64, 121
1, 32764, Control_c, 0, 64, 121
1, 32770, Note_on_c, 0, 68, 61
1, 32776, Note_on_c, 0, 62, 56
1, 32778, Note_on_c, 0, 58, 51
1, 32779, Control_c, 0, 64, 122
1, 32794, Control_c, 0, 64, 123
1, 32802, Note_off_c, 0, 58, 60
1, 32808, Control_c, 0, 64, 123
1, 32809, Note_off_c, 0, 62, 63
1, 32809, Note_off_c, 0, 68, 63
1, 32886, Note_on_c, 0, 68, 53
1, 32896, Note_on_c, 0, 58, 37
1, 32905, Note_on_c, 0, 62, 51
1, 33016, Control_c, 0, 64, 123
1, 33031, Control_c, 0, 64, 121
1, 33045, Control_c, 0, 64, 119
1, 33060, Control_c, 0, 64, 118
1, 33083, Control_c, 0, 64, 116
1, 33098, Control_c, 0, 64, 113
1, 33113, Control_c, 0, 64, 104
1, 33127, Control_c, 0, 64, 88
1, 33142, Control_c, 0, 64, 64
1, 33157, Control_c, 0, 64, 0
1, 33167, Note_on_c, 0, 39, 46
1, 33168, Note_on_c, 0, 27, 50
1, 33216, Control_c, 0, 64, 50
1, 33231, Control_c, 0, 64, 72
1, 33246, Control_c, 0, 64, 89
1, 33248, Note_off_c, 0, 27, 65
1, 33252, Note_off_c, 0, 39, 62
1, 33255, Note_off_c, 0, 62, 60
1, 33260, Control_c, 0, 64, 107
1, 33269, Note_off_c, 0, 68, 63
1, 33275, Control_c, 0, 64, 122
1, 33277, Note_off_c, 0, 58, 62
1, 33290, Control_c, 0, 64, 127
1, 33501, Note_on_c, 0, 67, 63
1, 33513, Note_on_c, 0, 61, 53
1, 33514, Note_on_c, 0, 58, 43
1, 33539, Note_off_c, 0, 61, 63
1, 33545, Note_off_c, 0, 58, 50
1, 33553, Note_off_c, 0, 67, 58
1, 33604, Note_on_c, 0, 53, 58
1, 33606, Note_on_c, 0, 41, 57
1, 33610, Note_on_c, 0, 67, 46
1, 33634, Note_on_c, 0, 61, 55
1, 33640, Note_on_c, 0, 58, 48
1, 33646, Note_off_c, 0, 53, 62
1, 33671, Note_off_c, 0, 41, 62
1, 33920, Control_c, 0, 64, 125
1, 33929, Note_on_c, 0, 51, 58
1, 33931, Note_on_c, 0, 39, 53
1, 33935, Control_c, 0, 64, 106
1, 33950, Control_c, 0, 64, 86
1, 33965, Control_c, 0, 64, 64
1, 33980, Control_c, 0, 64, 0
1, 33999, Note_off_c, 0, 67, 43
1, 34004, Note_off_c, 0, 70, 54
1, 34024, Control_c, 0, 64, 41
1, 34039, Control_c, 0, 64, 70
1, 34043, Note_off_c, 0, 58, 64
1, 34054, Control_c, 0, 64, 81
1, 34069, Control_c, 0, 64, 96
1, 34083, Control_c, 0, 64, 107
1, 34098, Control_c, 0, 64, 113
1, 34113, Note_off_c, 0, 61, 56
1, 34113, Control_c, 0, 64, 115
1, 34126, Note_off_c, 0, 51, 61
1, 34127, Control_c, 0, 64, 116
1, 34135, Note_off_c, 0, 39, 57
1, 34144, Control_c, 0, 64, 118
1, 34159, Control_c, 0, 64, 121
1, 34173, Control_c, 0, 64, 124
1, 34188, Control_c, 0, 64, 127
1, 34230, Note_on_c, 0, 63, 71
1, 34236, Note_on_c, 0, 61, 60
1, 34242, Note_on_c, 0, 55, 59
1, 34266, Note_off_c, 0, 61, 64
1, 34279, Note_off_c, 0, 55, 62
1, 34280, Note_off_c, 0, 63, 62
1, 34329, Note_on_c, 0, 63, 69
1, 34337, Note_on_c, 0, 61, 71
1, 34339, Note_on_c, 0, 55, 68
1, 34400, Note_off_c, 0, 55, 59
1, 34442, Note_off_c, 0, 61, 52
1, 34469, Control_c, 0, 67, 127
1, 34484, Control_c, 0, 67, 117
1, 34499, Control_c, 0, 67, 107
1, 34514, Control_c, 0, 67, 95
1, 34528, Control_c, 0, 67, 80
1, 34543, Control_c, 0, 67, 59
1, 34558, Control_c, 0, 67, 42
1, 34580, Control_c, 0, 67, 28
1, 34595, Control_c, 0, 64, 120
1, 34595, Control_c, 0, 67, 19
1, 34610, Control_c, 0, 64, 96
1, 34610, Control_c, 0, 67, 13
1, 34624, Control_c, 0, 64, 73
1, 34624, Control_c, 0, 67, 0
1, 34639, Control_c, 0, 64, 0
1, 34645, Note_on_c, 0, 44, 74
1, 34645, Note_on_c, 0, 68, 84
1, 34648, Note_on_c, 0, 32, 75
1, 34649, Note_on_c, 0, 60, 78
1, 34650, Note_on_c, 0, 56, 73
1, 34681, Note_off_c, 0, 63, 64
1, 34695, Note_off_c, 0, 32, 63
1, 34698, Control_c, 0, 64, 76
1, 34702, Note_off_c, 0, 56, 65
1, 34712, Note_off_c, 0, 44, 64
1, 34713, Control_c, 0, 64, 101
1, 34725, Note_off_c, 0, 60, 64
1, 34728, Control_c, 0, 64, 127
1, 34740, Note_off_c, 0, 68, 67
1, 35037, Note_on_c, 0, 75, 91
1, 35037, Note_on_c, 0, 87, 87
1, 35039, Note_on_c, 0, 66, 80
1, 35044, Note_on_c, 0, 54, 61
1, 35048, Note_on_c, 0, 56, 63
1, 35049, Note_on_c, 0, 80, 74
1, 35065, Note_off_c, 0, 66, 65
1, 35077, Note_off_c, 0, 80, 62
1, 35078, Note_off_c, 0, 54, 63
1, 35079, Note_off_c, 0, 75, 58
1, 35081, Note_off_c, 0, 56, 62
1, 35082, Note_off_c, 0, 87, 62
1, 35131, Note_on_c, 0, 87, 92
1, 35137, Note_on_c, 0, 75, 91
1, 35138, Note_on_c, 0, 66, 88
1, 35141, Note_on_c, 0, 80, 89
1, 35145, Note_on_c, 0, 54, 73
1, 35157, Note_on_c, 0, 56, 68
1, 35169, Note_on_c, 0, 85, 45
1, 35199, Note_off_c, 0, 56, 57
1, 35264, Note_off_c, 0, 66, 63
1, 35306, Note_off_c, 0, 54, 25
1, 35455, Note_on_c, 0, 65, 88
1, 35458, Note_on_c, 0, 56, 79
1, 35467, Note_on_c, 0, 53, 72
1, 35478, Control_c, 0, 64, 99
1, 35493, Control_c, 0, 64, 77
1, 35507, Note_off_c, 0, 85, 8
1, 35508, Control_c, 0, 64, 0
1, 35518, Note_off_c, 0, 75, 64
1, 35532, Note_off_c, 0, 87, 59
1, 35537, Control_c, 0, 64, 39
1, 35552, Control_c, 0, 64, 72
1, 35561, Note_off_c, 0, 80, 65
1, 35567, Control_c, 0, 64, 89
1, 35581, Control_c, 0, 64, 114
1, 35596, Control_c, 0, 64, 127
1, 35696, Note_off_c, 0, 65, 62
1, 35701, Note_off_c, 0, 53, 64
1, 35743, Note_on_c, 0, 86, 96
1, 35745, Note_on_c, 0, 74, 91
1, 35757, Note_off_c, 0, 56, 64
1, 35770, Note_off_c, 0, 74, 66
1, 35776, Note_off_c, 0, 86, 67
1, 35880, Note_on_c, 0, 92, 96
1, 35888, Note_on_c, 0, 80, 87
1, 36138, Control_c, 0, 64, 124
1, 36152, Control_c, 0, 64, 93
1, 36167, Control_c, 0, 64, 69
1, 36182, Control_c, 0, 64, 0
1, 36198, Note_off_c, 0, 92, 62
1, 36198, Note_on_c, 0, 44, 83
1, 36199, Note_on_c, 0, 32, 80
1, 36211, Control_c, 0, 64, 67
1, 36226, Control_c, 0, 64, 84
1, 36230, Note_off_c, 0, 80, 62
1, 36241, Control_c, 0, 64, 114
1, 36250, Note_off_c, 0, 32, 64
1, 36256, Control_c, 0, 64, 127
1, 36269, Note_off_c, 0, 44, 64
1, 36562, Note_on_c, 0, 85, 86
1, 36565, Note_on_c, 0, 73, 86
1, 36571, Note_on_c, 0, 64, 71
1, 36574, Note_on_c, 0, 80, 69
1, 36578, Note_on_c, 0, 56, 59
1, 36580, Note_on_c, 0, 52, 57
1, 36599, Note_off_c, 0, 64, 68
1, 36602, Note_off_c, 0, 73, 59
1, 36602, Note_off_c, 0, 80, 64
1, 36607, Note_off_c, 0, 56, 64
1, 36612, Note_off_c, 0, 85, 64
1, 36612, Note_off_c, 0, 52, 58
1, 36657, Note_on_c, 0, 85, 86
1, 36661, Note_on_c, 0, 73, 84
1, 36669, Note_on_c, 0, 64, 77
1, 36669, Note_on_c, 0, 80, 87
1, 36683, Note_on_c, 0, 56, 63
1, 36687, Note_on_c, 0, 52, 74
1, 36719, Note_off_c, 0, 64, 63
1, 36725, Note_off_c, 0, 56, 54
1, 36749, Note_off_c, 0, 52, 62
1, 36901, Control_c, 0, 64, 112
1, 36916, Control_c, 0, 64, 86
1, 36917, Note_on_c, 0, 63, 88
1, 36925, Note_on_c, 0, 51, 75
1, 36931, Control_c, 0, 64, 63
1, 36933, Note_on_c, 0, 56, 73
1, 36945, Control_c, 0, 64, 0
1, 36960, Control_c, 0, 64, 47
1, 36975, Control_c, 0, 64, 70
1, 36990, Control_c, 0, 64, 85
1, 36993, Note_off_c, 0, 73, 61
1, 37005, Control_c, 0, 64, 107
1, 37019, Note_off_c, 0, 85, 65
1, 37019, Control_c, 0, 64, 127
1, 37054, Note_off_c, 0, 80, 62
1, 37071, Note_off_c, 0, 51, 56
1, 37079, Note_off_c, 0, 63, 61
1, 37113, Note_off_c, 0, 56, 57
1, 37114, Note_on_c, 0, 84, 95
1, 37117, Note_on_c, 0, 72, 88
1, 37122, Note_on_c, 0, 80, 77
1, 37158, Note_off_c, 0, 72, 66
1, 37169, Note_off_c, 0, 80, 59
1, 37181, Note_off_c, 0, 84, 65
1, 37310, Note_on_c, 0, 87, 93
1, 37315, Note_on_c, 0, 75, 86
1, 37343, Note_off_c, 0, 75, 66
1, 37354, Note_off_c, 0, 87, 61
1, 37404, Note_on_c, 0, 85, 99
1, 37413, Note_on_c, 0, 73, 91
1, 37533, Note_off_c, 0, 73, 55
1, 37549, Note_off_c, 0, 85, 57
1, 37664, Control_c, 0, 64, 111
1, 37676, Note_on_c, 0, 84, 90
1, 37678, Note_on_c, 0, 41, 85
1, 37679, Note_on_c, 0, 72, 87
1, 37679, Control_c, 0, 64, 82
1, 37681, Note_on_c, 0, 80, 83
1, 37684, Note_on_c, 0, 29, 74
1, 37694, Control_c, 0, 64, 0
1, 37739, Control_c, 0, 64, 66
1, 37754, Control_c, 0, 64, 85
1, 37765, Note_off_c, 0, 29, 62
1, 37768, Control_c, 0, 64, 122
1, 37772, Note_off_c, 0, 84, 66
1, 37774, Note_off_c, 0, 41, 66
1, 37778, Note_off_c, 0, 72, 64
1, 37783, Control_c, 0, 64, 127
1, 37785, Note_off_c, 0, 80, 65
1, 38064, Note_on_c, 0, 67, 86
1, 38070, Note_on_c, 0, 82, 79
1, 38073, Note_on_c, 0, 70, 78
1, 38076, Note_on_c, 0, 55, 61
1, 38076, Note_on_c, 0, 80, 75
1, 38082, Note_on_c, 0, 74, 67
1, 38111, Note_off_c, 0, 74, 62
1, 38112, Note_off_c, 0, 67, 61
1, 38115, Note_off_c, 0, 55, 63
1, 38121, Note_off_c, 0, 82, 62
1, 38122, Note_off_c, 0, 70, 62
1, 38125, Note_off_c, 0, 80, 64
1, 38174, Note_on_c, 0, 82, 80
1, 38183, Note_on_c, 0, 67, 82
1, 38183, Note_on_c, 0, 70, 63
1, 38186, Note_on_c, 0, 80, 69
1, 38189, Note_on_c, 0, 55, 71
1, 38192, Note_on_c, 0, 74, 66
1, 38235, Note_off_c, 0, 67, 62
1, 38240, Note_off_c, 0, 55, 61
1, 38488, Control_c, 0, 64, 105
1, 38503, Note_on_c, 0, 65, 76
1, 38503, Control_c, 0, 64, 74
1, 38514, Note_on_c, 0, 53, 62
1, 38517, Control_c, 0, 64, 0
1, 38577, Control_c, 0, 64, 56
1, 38591, Control_c, 0, 64, 80
1, 38606, Control_c, 0, 64, 109
1, 38621, Control_c, 0, 64, 127
1, 38637, Note_off_c, 0, 70, 48
1, 38642, Note_off_c, 0, 74, 56
1, 38651, Note_off_c, 0, 80, 57
1, 38673, Note_off_c, 0, 65, 64
1, 38705, Note_off_c, 0, 53, 65
1, 38853, Note_on_c, 0, 80, 64
1, 38859, Note_on_c, 0, 74, 53
1, 38863, Note_on_c, 0, 70, 48
1, 38890, Note_off_c, 0, 70, 58
1, 38890, Note_off_c, 0, 74, 67
1, 38901, Note_off_c, 0, 80, 58
1, 38960, Note_on_c, 0, 80, 51
1, 38973, Note_on_c, 0, 74, 50
1, 38976, Note_on_c, 0, 70, 57
1, 39148, Control_c, 0, 64, 120
1, 39163, Control_c, 0, 64, 96
1, 39178, Control_c, 0, 64, 78
1, 39193, Control_c, 0, 64, 46
1, 39208, Control_c, 0, 64, 0
1, 39233, Note_on_c, 0, 39, 45
1, 39236, Note_on_c, 0, 27, 51
1, 39252, Control_c, 0, 64, 66
1, 39267, Control_c, 0, 64, 82
1, 39282, Control_c, 0, 64, 100
1, 39296, Control_c, 0, 64, 116
1, 39297, Note_off_c, 0, 27, 65
1, 39302, Note_off_c, 0, 39, 62
1, 39311, Control_c, 0, 64, 127
1, 39328, Note_off_c, 0, 74, 63
1, 39340, Note_off_c, 0, 70, 60
1, 39343, Note_off_c, 0, 80, 64
1, 39628, Note_on_c, 0, 73, 57
1, 39630, Note_on_c, 0, 79, 57
1, 39633, Note_on_c, 0, 53, 50
1, 39634, Note_on_c, 0, 65, 54
1, 39644, Note_on_c, 0, 70, 26
1, 39660, Note_off_c, 0, 73, 65
1, 39666, Note_off_c, 0, 53, 55
1, 39666, Note_off_c, 0, 65, 62
1, 39668, Note_off_c, 0, 79, 60
1, 39681, Note_off_c, 0, 70, 43
1, 39740, Note_on_c, 0, 79, 56
1, 39754, Note_on_c, 0, 73, 51
1, 39759, Note_on_c, 0, 65, 55
1, 39761, Note_on_c, 0, 53, 61
1, 39766, Note_on_c, 0, 70, 41
1, 39788, Note_off_c, 0, 65, 62
1, 39803, Note_off_c, 0, 53, 61
1, 40060, Control_c, 0, 64, 110
1, 40070, Note_on_c, 0, 51, 55
1, 40072, Note_on_c, 0, 63, 54
1, 40075, Control_c, 0, 64, 95
1, 40090, Control_c, 0, 64, 81
1, 40105, Control_c, 0, 64, 67
1, 40112, Note_off_c, 0, 82, 57
1, 40116, Note_off_c, 0, 79, 52
1, 40119, Control_c, 0, 64, 0
1, 40134, Control_c, 0, 64, 52
1, 40149, Control_c, 0, 64, 68
1, 40163, Control_c, 0, 64, 79
1, 40178, Control_c, 0, 64, 92
1, 40193, Control_c, 0, 64, 102
1, 40208, Control_c, 0, 64, 112
1, 40210, Note_off_c, 0, 70, 62
1, 40223, Control_c, 0, 64, 124
1, 40237, Control_c, 0, 64, 127
1, 40276, Note_off_c, 0, 73, 55
1, 40276, Note_off_c, 0, 63, 64
1, 40287, Note_off_c, 0, 51, 60
1, 40401, Note_on_c, 0, 73, 61
1, 40402, Note_on_c, 0, 75, 57
1, 40411, Note_on_c, 0, 67, 52
1, 40434, Note_off_c, 0, 73, 63
1, 40435, Note_off_c, 0, 75, 66
1, 40446, Note_off_c, 0, 67, 57
1, 40490, Note_on_c, 0, 67, 63
1, 40490, Note_on_c, 0, 75, 81
1, 40508, Note_on_c, 0, 73, 65
1, 40570, Note_off_c, 0, 73, 49
1, 40653, Note_off_c, 0, 67, 45
1, 40735, Control_c, 0, 64, 121
1, 40749, Control_c, 0, 64, 99
1, 40764, Control_c, 0, 64, 79
1, 40779, Control_c, 0, 64, 0
1, 40792, Note_on_c, 0, 32, 71
1, 40797, Note_on_c, 0, 44, 60
1, 40800, Note_on_c, 0, 80, 85
1, 40804, Note_on_c, 0, 68, 74
1, 40804, Note_on_c, 0, 72, 76
1, 40823, Control_c, 0, 64, 62
1, 40835, Note_off_c, 0, 75, 62
1, 40838, Control_c, 0, 64, 80
1, 40841, Note_off_c, 0, 32, 64
1, 40853, Control_c, 0, 64, 103
1, 40860, Note_off_c, 0, 44, 63
1, 40867, Control_c, 0, 64, 127
1, 40872, Note_off_c, 0, 68, 64
1, 40884, Note_off_c, 0, 72, 65
1, 40905, Note_off_c, 0, 80, 67
1, 41191, Note_on_c, 0, 54, 70
1, 41193, Note_on_c, 0, 66, 68
1, 41197, Note_on_c, 0, 90, 94
1, 41197, Note_on_c, 0, 78, 93
1, 41222, Note_off_c, 0, 66, 69
1, 41222, Note_off_c, 0, 78, 62
1, 41226, Note_off_c, 0, 54, 62
1, 41234, Note_off_c, 0, 90, 59
1, 41271, Note_on_c, 0, 90, 85
1, 41276, Note_on_c, 0, 78, 87
1, 41282, Note_on_c, 0, 54, 81
1, 41282, Note_on_c, 0, 66, 90
1, 41303, Note_off_c, 0, 78, 63
1, 41321, Note_off_c, 0, 90, 63
1, 41334, Note_off_c, 0, 66, 64
1, 41343, Note_off_c, 0, 54, 60
1, 41581, Note_on_c, 0, 90, 102
1, 41584, Note_on_c, 0, 78, 96
1, 41593, Note_on_c, 0, 54, 74
1, 41593, Note_on_c, 0, 66, 79
1, 41661, Control_c, 0, 64, 113
1, 41676, Control_c, 0, 64, 89
1, 41690, Control_c, 0, 64, 65
1, 41705, Control_c, 0, 64, 0
1, 41764, Control_c, 0, 64, 69
1, 41779, Control_c, 0, 64, 83
1, 41793, Note_off_c, 0, 90, 64
1, 41794, Control_c, 0, 64, 105
1, 41809, Control_c, 0, 64, 127
1, 41838, Note_off_c, 0, 78, 60
1, 41905, Note_off_c, 0, 66, 63
1, 41938, Note_off_c, 0, 54, 51
1, 42250, Note_on_c, 0, 63, 71
1, 42255, Note_on_c, 0, 65, 83
1, 42256, Note_on_c, 0, 58, 59
1, 42258, Note_on_c, 0, 60, 61
1, 42336, Control_c, 0, 64, 101
1, 42351, Control_c, 0, 64, 73
1, 42361, Note_off_c, 0, 65, 64
1, 42365, Note_on_c, 0, 66, 70
1, 42365, Control_c, 0, 64, 0
1, 42425, Control_c, 0, 64, 70
1, 42432, Note_off_c, 0, 66, 65
1, 42440, Control_c, 0, 64, 86
1, 42455, Control_c, 0, 64, 115
1, 42459, Note_on_c, 0, 68, 65
1, 42470, Control_c, 0, 64, 127
1, 42522, Note_off_c, 0, 68, 63
1, 42532, Note_on_c, 0, 66, 70
1, 42568, Note_off_c, 0, 66, 59
1, 42585, Note_on_c, 0, 68, 66
1, 42589, Note_off_c, 0, 63, 40
1, 42630, Note_off_c, 0, 68, 61
1, 42634, Note_on_c, 0, 66, 66
1, 42671, Note_on_c, 0, 68, 72
1, 42671, Note_off_c, 0, 66, 64
1, 42719, Note_on_c, 0, 70, 18
1, 42735, Note_on_c, 0, 66, 85
1, 42738, Note_off_c, 0, 68, 65
1, 42763, Note_off_c, 0, 70, 50
1, 42794, Note_off_c, 0, 66, 66
1, 42801, Note_off_c, 0, 60, 14
1, 42817, Note_on_c, 0, 65, 82
1, 42819, Note_on_c, 0, 63, 76
1, 42828, Note_off_c, 0, 58, 58
1, 42833, Control_c, 0, 64, 100
1, 42847, Control_c, 0, 64, 78
1, 42862, Control_c, 0, 64, 61
1, 42877, Control_c, 0, 64, 60
1, 42888, Note_off_c, 0, 63, 65
1, 42891, Control_c, 0, 64, 70
1, 42899, Note_on_c, 0, 69, 84
1, 42903, Note_off_c, 0, 65, 64
1, 42906, Control_c, 0, 64, 86
1, 42921, Control_c, 0, 64, 109
1, 42930, Note_on_c, 0, 60, 58
1, 42937, Control_c, 0, 64, 127
1, 42961, Note_off_c, 0, 69, 67
1, 42971, Note_off_c, 0, 60, 62
1, 42985, Note_on_c, 0, 72, 80
1, 42988, Note_on_c, 0, 57, 65
1, 43004, Note_off_c, 0, 72, 72
1, 43017, Note_off_c, 0, 57, 64
1, 43072, Note_on_c, 0, 77, 88
1, 43079, Note_on_c, 0, 53, 66
1, 43133, Note_off_c, 0, 53, 52
1, 43143, Note_off_c, 0, 77, 62
1, 43157, Note_on_c, 0, 89, 104
1, 43159, Note_on_c, 0, 41, 73
1, 43185, Note_off_c, 0, 89, 65
1, 43190, Note_off_c, 0, 41, 67
1, 43396, Control_c, 0, 64, 107
1, 43411, Control_c, 0, 64, 77
1, 43426, Control_c, 0, 64, 0
1, 43434, Note_on_c, 0, 94, 99
1, 43436, Note_on_c, 0, 34, 81
1, 43436, Note_on_c, 0, 46, 86
1, 43442, Note_on_c, 0, 82, 89
1, 43470, Control_c, 0, 64, 64
1, 43476, Note_off_c, 0, 34, 64
1, 43485, Control_c, 0, 64, 82
1, 43492, Note_off_c, 0, 46, 63
1, 43500, Control_c, 0, 64, 110
1, 43504, Note_off_c, 0, 82, 64
1, 43512, Note_off_c, 0, 94, 67
1, 43514, Control_c, 0, 64, 127
1, 43782, Note_on_c, 0, 65, 74
1, 43784, Note_on_c, 0, 62, 75
1, 43787, Note_on_c, 0, 80, 96
1, 43788, Note_on_c, 0, 56, 68
1, 43791, Note_on_c, 0, 68, 88
1, 43808, Note_off_c, 0, 65, 69
1, 43811, Note_off_c, 0, 68, 71
1, 43813, Note_off_c, 0, 62, 63
1, 43814, Note_off_c, 0, 56, 65
1, 43820, Note_off_c, 0, 80, 58
1, 43856, Note_on_c, 0, 80, 82
1, 43863, Note_on_c, 0, 68, 85
1, 43869, Note_on_c, 0, 65, 84
1, 43872, Note_on_c, 0, 56, 78
1, 43879, Note_on_c, 0, 62, 70
1, 43900, Note_off_c, 0, 68, 62
1, 43903, Note_off_c, 0, 80, 65
1, 43905, Note_off_c, 0, 62, 64
1, 43916, Note_off_c, 0, 65, 61
1, 43924, Note_off_c, 0, 56, 63
1, 44085, Control_c, 0, 64, 103
1, 44100, Control_c, 0, 64, 78
1, 44112, Note_on_c, 0, 80, 100
1, 44115, Note_on_c, 0, 68, 97
1, 44115, Control_c, 0, 64, 0
1, 44116, Note_on_c, 0, 62, 74
1, 44116, Note_on_c, 0, 65, 89
1, 44121, Note_on_c, 0, 56, 84
1, 44160, Note_off_c, 0, 65, 67
1, 44160, Control_c, 0, 64, 69
1, 44170, Note_off_c, 0, 62, 63
1, 44172, Note_off_c, 0, 56, 68
1, 44174, Control_c, 0, 64, 88
1, 44189, Control_c, 0, 64, 122
1, 44203, Control_c, 0, 64, 127
1, 44410, Note_off_c, 0, 80, 59
1, 44427, Note_on_c, 0, 47, 92
1, 44435, Note_on_c, 0, 35, 81
1, 44451, Note_off_c, 0, 68, 62
1, 44452, Note_off_c, 0, 47, 68
1, 44464, Note_off_c, 0, 35, 63
1, 44508, Note_on_c, 0, 47, 92
1, 44514, Note_on_c, 0, 35, 85
1, 44575, Note_off_c, 0, 47, 55
1, 44580, Note_off_c, 0, 35, 62
1, 44745, Control_c, 0, 64, 123
1, 44754, Note_on_c, 0, 47, 94
1, 44756, Note_on_c, 0, 67, 90
1, 44759, Control_c, 0, 64, 91
1, 44763, Note_on_c, 0, 35, 74
1, 44774, Control_c, 0, 64, 64
1, 44789, Control_c, 0, 64, 0
1, 44833, Control_c, 0, 64, 74
1, 44843, Note_off_c, 0, 67, 51
1, 44848, Control_c, 0, 64, 95
1, 44854, Note_off_c, 0, 35, 63
1, 44863, Control_c, 0, 64, 127
1, 44867, Note_on_c, 0, 68, 73
1, 44878, Note_off_c, 0, 47, 60
1, 44945, Note_off_c, 0, 68, 63
1, 44959, Note_on_c, 0, 70, 67
1, 45032, Note_off_c, 0, 70, 63
1, 45042, Note_on_c, 0, 68, 68
1, 45093, Note_off_c, 0, 68, 62
1, 45102, Note_on_c, 0, 70, 62
1, 45140, Note_off_c, 0, 70, 61
1, 45141, Note_on_c, 0, 68, 66
1, 45192, Note_on_c, 0, 70, 76
1, 45200, Note_off_c, 0, 68, 64
1, 45254, Note_on_c, 0, 68, 70
1, 45296, Note_off_c, 0, 70, 59
1, 45314, Poly_aftertouch_c, 0, 72, 0
1, 45352, Note_off_c, 0, 68, 63
1, 45355, Note_on_c, 0, 67, 93
1, 45361, Control_c, 0, 64, 101
1, 45362, Note_on_c, 0, 65, 83
1, 45376, Control_c, 0, 64, 81
1, 45390, Control_c, 0, 64, 57
1, 45405, Control_c, 0, 64, 30
1, 45420, Control_c, 0, 64, 67
1, 45435, Control_c, 0, 64, 82
1, 45447, Note_on_c, 0, 71, 81
1, 45450, Control_c, 0, 64, 108
1, 45450, Note_off_c, 0, 65, 63
1, 45450, Note_off_c, 0, 67, 60
1, 45456, Note_on_c, 0, 62, 67
1, 45464, Control_c, 0, 64, 127
1, 45510, Note_off_c, 0, 71, 60
1, 45513, Note_off_c, 0, 62, 60
1, 45524, Note_on_c, 0, 74, 77
1, 45528, Note_on_c, 0, 59, 68
1, 45545, Note_off_c, 0, 74, 70
1, 45552, Note_off_c, 0, 59, 66
1, 45614, Note_on_c, 0, 55, 73
1, 45615, Note_on_c, 0, 79, 85
1, 45683, Note_off_c, 0, 55, 62
1, 45688, Note_off_c, 0, 79, 60
1, 45700, Note_on_c, 0, 91, 98
1, 45712, Note_on_c, 0, 43, 74
1, 45731, Note_off_c, 0, 91, 62
1, 45739, Note_off_c, 0, 43, 64
1, 45945, Control_c, 0, 64, 113
1, 45960, Control_c, 0, 64, 80
1, 45975, Note_on_c, 0, 96, 94
1, 45975, Control_c, 0, 64, 0
1, 45982, Note_on_c, 0, 48, 75
1, 45984, Note_on_c, 0, 84, 81
1, 45988, Note_on_c, 0, 36, 74
1, 46035, Control_c, 0, 64, 70
1, 46050, Control_c, 0, 64, 88
1, 46064, Control_c, 0, 64, 127
1, 46066, Note_off_c, 0, 96, 64
1, 46067, Note_off_c, 0, 36, 62
1, 46068, Note_off_c, 0, 84, 63
1, 46082, Note_off_c, 0, 48, 62
1, 46374, Note_on_c, 0, 68, 77
1, 46380, Note_on_c, 0, 64, 76
1, 46384, Note_on_c, 0, 55, 67
1, 46429, Note_off_c, 0, 68, 63
1, 46431, Note_on_c, 0, 70, 78
1, 46431, Note_off_c, 0, 64, 63
1, 46488, Note_on_c, 0, 68, 71
1, 46530, Note_off_c, 0, 70, 62
1, 46573, Note_off_c, 0, 68, 63
1, 46575, Control_c, 0, 64, 113
1, 46585, Note_off_c, 0, 55, 57
1, 46590, Control_c, 0, 64, 88
1, 46592, Note_on_c, 0, 67, 83
1, 46595, Note_on_c, 0, 65, 78
1, 46605, Control_c, 0, 64, 64
1, 46619, Control_c, 0, 64, 0
1, 46649, Control_c, 0, 64, 66
1, 46664, Note_off_c, 0, 65, 65
1, 46664, Control_c, 0, 64, 82
1, 46667, Note_off_c, 0, 67, 64
1, 46676, Note_on_c, 0, 71, 80
1, 46679, Note_on_c, 0, 62, 66
1, 46679, Control_c, 0, 64, 104
1, 46694, Control_c, 0, 64, 127
1, 46734, Note_off_c, 0, 71, 61
1, 46735, Note_off_c, 0, 62, 60
1, 46755, Note_on_c, 0, 74, 69
1, 46756, Note_on_c, 0, 59, 66
1, 46776, Note_off_c, 0, 74, 72
1, 46782, Note_off_c, 0, 59, 64
1, 46846, Note_on_c, 0, 79, 79
1, 46849, Note_on_c, 0, 55, 70
1, 46903, Note_off_c, 0, 55, 62
1, 46918, Note_off_c, 0, 79, 63
1, 46935, Note_on_c, 0, 91, 92
1, 46937, Note_on_c, 0, 43, 70
1, 46959, Note_off_c, 0, 91, 61
1, 46964, Note_off_c, 0, 43, 63
1, 47198, Control_c, 0, 64, 91
1, 47203, Note_on_c, 0, 96, 82
1, 47212, Note_on_c, 0, 48, 71
1, 47213, Control_c, 0, 64, 64
1, 47215, Note_on_c, 0, 36, 64
1, 47215, Note_on_c, 0, 84, 75
1, 47227, Control_c, 0, 64, 0
1, 47272, Control_c, 0, 64, 52
1, 47287, Control_c, 0, 64, 77
1, 47290, Note_off_c, 0, 96, 65
1, 47293, Note_off_c, 0, 36, 64
1, 47308, Note_off_c, 0, 84, 64
1, 47309, Control_c, 0, 64, 107
1, 47324, Control_c, 0, 64, 127
1, 47329, Note_off_c, 0, 48, 63
1, 47602, Note_on_c, 0, 68, 68
1, 47621, Note_on_c, 0, 64, 60
1, 47628, Note_on_c, 0, 55, 53
1, 47646, Note_off_c, 0, 68, 60
1, 47656, Note_on_c, 0, 70, 70
1, 47673, Note_off_c, 0, 64, 52
1, 47726, Note_on_c, 0, 68, 71
1, 47764, Note_off_c, 0, 70, 60
1, 47799, Control_c, 0, 67, 8
1, 47805, Note_off_c, 0, 68, 62
1, 47814, Control_c, 0, 64, 102
1, 47814, Control_c, 0, 67, 12
1, 47829, Control_c, 0, 64, 79
1, 47829, Control_c, 0, 67, 21
1, 47832, Note_on_c, 0, 65, 68
1, 47833, Note_on_c, 0, 67, 77
1, 47838, Note_off_c, 0, 55, 38
1, 47844, Control_c, 0, 64, 36
1, 47844, Control_c, 0, 67, 35
1, 47858, Control_c, 0, 64, 0
1, 47858, Control_c, 0, 67, 52
1, 47873, Control_c, 0, 64, 49
1, 47873, Control_c, 0, 67, 70
1, 47888, Control_c, 0, 64, 72
1, 47888, Control_c, 0, 67, 86
1, 47901, Note_off_c, 0, 65, 64
1, 47902, Control_c, 0, 64, 88
1, 47902, Control_c, 0, 67, 101
1, 47907, Note_off_c, 0, 67, 62
1, 47917, Control_c, 0, 64, 109
1, 47917, Control_c, 0, 67, 113
1, 47920, Note_on_c, 0, 71, 71
1, 47925, Note_on_c, 0, 62, 57
1, 47932, Control_c, 0, 64, 127
1, 47932, Control_c, 0, 67, 123
1, 47947, Control_c, 0, 67, 127
1, 47966, Note_off_c, 0, 62, 60
1, 47980, Note_off_c, 0, 71, 61
1, 47998, Note_on_c, 0, 59, 54
1, 48002, Note_on_c, 0, 74, 67
1, 48019, Note_off_c, 0, 59, 60
1, 48025, Note_off_c, 0, 74, 71
1, 48093, Note_on_c, 0, 55, 61
1, 48107, Note_on_c, 0, 79, 66
1, 48131, Note_off_c, 0, 55, 60
1, 48185, Note_off_c, 0, 79, 62
1, 48205, Note_on_c, 0, 91, 84
1, 48230, Note_off_c, 0, 91, 62
1, 48253, Note_on_c, 0, 41, 11
1, 48301, Note_off_c, 0, 41, 52
1, 48517, Control_c, 0, 64, 107
1, 48527, Note_on_c, 0, 100, 71
1, 48533, Control_c, 0, 64, 82
1, 48533, Note_on_c, 0, 48, 47
1, 48538, Note_on_c, 0, 96, 61
1, 48539, Note_on_c, 0, 88, 60
1, 48548, Control_c, 0, 64, 48
1, 48549, Note_on_c, 0, 36, 47
1, 48563, Control_c, 0, 64, 0
1, 48607, Control_c, 0, 64, 70
1, 48619, Note_off_c, 0, 100, 65
1, 48622, Control_c, 0, 64, 87
1, 48632, Note_off_c, 0, 36, 62
1, 48637, Control_c, 0, 64, 123
1, 48640, Note_off_c, 0, 96, 62
1, 48644, Note_off_c, 0, 88, 59
1, 48652, Control_c, 0, 64, 127
1, 48667, Note_off_c, 0, 48, 57
1, 48927, Note_on_c, 0, 69, 68
1, 48941, Note_on_c, 0, 64, 56
1, 48947, Note_on_c, 0, 55, 51
1, 48962, Note_off_c, 0, 69, 62
1, 48980, Note_off_c, 0, 64, 61
1, 48989, Note_on_c, 0, 71, 62
1, 49060, Note_off_c, 0, 71, 58
1, 49062, Note_on_c, 0, 69, 68
1, 49119, Note_off_c, 0, 69, 65
1, 49133, Control_c, 0, 64, 125
1, 49141, Note_on_c, 0, 65, 60
1, 49141, Note_off_c, 0, 55, 37
1, 49148, Control_c, 0, 64, 97
1, 49150, Note_on_c, 0, 67, 75
1, 49163, Control_c, 0, 64, 77
1, 49178, Control_c, 0, 64, 0
1, 49210, Note_off_c, 0, 65, 63
1, 49215, Note_off_c, 0, 67, 61
1, 49222, Control_c, 0, 64, 68
1, 49230, Note_on_c, 0, 71, 68
1, 49232, Note_on_c, 0, 62, 54
1, 49237, Control_c, 0, 64, 83
1, 49251, Control_c, 0, 64, 101
1, 49266, Control_c, 0, 64, 119
1, 49278, Note_off_c, 0, 62, 59
1, 49281, Control_c, 0, 64, 127
1, 49287, Note_off_c, 0, 71, 62
1, 49311, Note_on_c, 0, 59, 59
1, 49312, Note_on_c, 0, 74, 69
1, 49332, Note_off_c, 0, 59, 62
1, 49336, Note_off_c, 0, 74, 70
1, 49397, Note_on_c, 0, 55, 63
1, 49406, Note_on_c, 0, 79, 70
1, 49447, Note_off_c, 0, 55, 55
1, 49481, Note_off_c, 0, 79, 62
1, 49501, Note_on_c, 0, 91, 84
1, 49522, Note_off_c, 0, 91, 65
1, 49534, Note_on_c, 0, 43, 27
1, 49586, Note_off_c, 0, 43, 44
1, 49794, Control_c, 0, 64, 95
1, 49800, Note_on_c, 0, 100, 74
1, 49804, Note_on_c, 0, 48, 53
1, 49806, Note_on_c, 0, 36, 53
1, 49809, Control_c, 0, 64, 72
1, 49811, Note_on_c, 0, 88, 63
1, 49814, Note_on_c, 0, 96, 65
1, 49823, Control_c, 0, 64, 0
1, 49868, Control_c, 0, 64, 63
1, 49882, Note_off_c, 0, 100, 64
1, 49882, Control_c, 0, 64, 80
1, 49885, Note_off_c, 0, 36, 64
1, 49897, Note_off_c, 0, 96, 62
1, 49897, Control_c, 0, 64, 100
1, 49900, Note_off_c, 0, 88, 52
1, 49912, Control_c, 0, 64, 127
1, 49913, Note_off_c, 0, 48, 65
1, 50212, Note_on_c, 0, 69, 69
1, 50233, Note_on_c, 0, 64, 50
1, 50241, Note_on_c, 0, 55, 44
1, 50243, Note_off_c, 0, 69, 64
1, 50270, Note_on_c, 0, 71, 59
1, 50277, Note_off_c, 0, 64, 58
1, 50358, Note_on_c, 0, 69, 67
1, 50366, Note_off_c, 0, 71, 56
1, 50419, Note_off_c, 0, 69, 64
1, 50452, Note_on_c, 0, 65, 61
1, 50454, Note_on_c, 0, 67, 70
1, 50468, Control_c, 0, 64, 95
1, 50483, Control_c, 0, 64, 71
1, 50488, Note_off_c, 0, 55, 39
1, 50497, Control_c, 0, 64, 0
1, 50532, Note_off_c, 0, 67, 61
1, 50542, Note_off_c, 0, 65, 61
1, 50547, Note_on_c, 0, 71, 63
1, 50560, Note_on_c, 0, 62, 58
1, 50572, Control_c, 0, 64, 72
1, 50587, Control_c, 0, 64, 88
1, 50601, Control_c, 0, 64, 116
1, 50616, Control_c, 0, 64, 127
1, 50623, Note_off_c, 0, 71, 60
1, 50624, Note_off_c, 0, 62, 57
1, 50640, Note_on_c, 0, 74, 67
1, 50652, Note_on_c, 0, 59, 55
1, 50662, Note_off_c, 0, 74, 71
1, 50673, Note_off_c, 0, 59, 61
1, 50744, Note_on_c, 0, 79, 67
1, 50751, Note_on_c, 0, 53, 50
1, 50827, Note_off_c, 0, 53, 45
1, 50837, Note_off_c, 0, 79, 61
1, 50854, Note_on_c, 0, 41, 57
1, 50861, Note_on_c, 0, 91, 74
1, 50886, Note_off_c, 0, 91, 64
1, 50919, Note_off_c, 0, 41, 64
1, 51231, Note_on_c, 0, 100, 65
1, 51231, Control_c, 0, 64, 101
1, 51236, Note_on_c, 0, 88, 57
1, 51239, Note_on_c, 0, 36, 43
1, 51242, Note_on_c, 0, 96, 56
1, 51246, Control_c, 0, 64, 80
1, 51248, Note_on_c, 0, 48, 46
1, 51260, Control_c, 0, 64, 53
1, 51275, Control_c, 0, 64, 0
1, 51320, Control_c, 0, 64, 71
1, 51330, Note_off_c, 0, 100, 64
1, 51335, Control_c, 0, 64, 88
1, 51350, Control_c, 0, 64, 115
1, 51353, Note_off_c, 0, 96, 62
1, 51365, Control_c, 0, 64, 127
1, 51373, Note_off_c, 0, 88, 61
1, 51453, Note_off_c, 0, 36, 39
1, 51478, Note_off_c, 0, 48, 60
1, 51634, Note_on_c, 0, 64, 49
1, 51687, Note_off_c, 0, 64, 58
1, 51744, Note_on_c, 0, 67, 49
1, 51746, Note_on_c, 0, 74, 47
1, 51805, Note_off_c, 0, 67, 55
1, 51849, Note_on_c, 0, 72, 65
1, 51896, Note_off_c, 0, 74, 60
1, 51898, Note_on_c, 0, 48, 63
1, 51914, Note_off_c, 0, 72, 64
1, 51950, Note_on_c, 0, 67, 71
1, 51964, Note_on_c, 0, 55, 61
1, 52011, Note_off_c, 0, 48, 39
1, 52109, Note_off_c, 0, 67, 58
1, 52120, Note_on_c, 0, 77, 63
1, 52122, Note_on_c, 0, 64, 79
1, 52141, Note_on_c, 0, 72, 50
1, 52207, Note_off_c, 0, 72, 59
1, 52239, Note_on_c, 0, 76, 63
1, 52265, Note_off_c, 0, 77, 53
1, 52295, Note_off_c, 0, 76, 64
1, 52327, Note_on_c, 0, 72, 73
1, 52403, Note_off_c, 0, 72, 61
1, 52422, Note_on_c, 0, 81, 70
1, 52438, Note_on_c, 0, 76, 53
1, 52494, Note_off_c, 0, 76, 63
1, 52511, Note_on_c, 0, 79, 73
1, 52526, Note_off_c, 0, 81, 54
1, 52572, Note_off_c, 0, 79, 62
1, 52608, Note_on_c, 0, 76, 76
1, 52670, Note_off_c, 0, 76, 63
1, 52689, Note_on_c, 0, 86, 81
1, 52701, Note_on_c, 0, 79, 59
1, 52752, Note_off_c, 0, 79, 44
1, 52778, Note_on_c, 0, 84, 79
1, 52779, Note_off_c, 0, 55, 35
1, 52807, Note_off_c, 0, 86, 61
1, 52846, Note_off_c, 0, 64, 63
1, 52847, Note_off_c, 0, 84, 65
1, 52868, Note_on_c, 0, 79, 80
1, 52948, Note_off_c, 0, 79, 60
1, 52950, Note_on_c, 0, 89, 84
1, 52958, Note_on_c, 0, 84, 70
1, 53028, Note_off_c, 0, 84, 62
1, 53037, Note_on_c, 0, 88, 80
1, 53085, Note_off_c, 0, 89, 63
1, 53108, Note_off_c, 0, 88, 64
1, 53129, Note_on_c, 0, 84, 90
1, 53224, Note_on_c, 0, 65, 82
1, 53236, Note_on_c, 0, 55, 58
1, 53237, Note_on_c, 0, 60, 59
1, 53240, Note_on_c, 0, 93, 85
1, 53246, Note_off_c, 0, 84, 63
1, 53263, Note_on_c, 0, 88, 59
1, 53263, Control_c, 0, 64, 120
1, 53278, Control_c, 0, 64, 98
1, 53299, Control_c, 0, 64, 80
1, 53314, Control_c, 0, 64, 55
1, 53330, Control_c, 0, 64, 0
1, 53350, Note_off_c, 0, 88, 56
1, 53360, Control_c, 0, 64, 61
1, 53365, Note_on_c, 0, 91, 79
1, 53375, Control_c, 0, 64, 77
1, 53390, Control_c, 0, 64, 94
1, 53392, Note_off_c, 0, 93, 61
1, 53404, Control_c, 0, 64, 117
1, 53419, Control_c, 0, 64, 127
1, 53436, Note_off_c, 0, 91, 61
1, 53460, Note_on_c, 0, 88, 86
1, 53553, Note_off_c, 0, 65, 57
1, 53566, Note_on_c, 0, 98, 80
1, 53566, Note_off_c, 0, 88, 62
1, 53576, Note_on_c, 0, 91, 67
1, 53664, Note_off_c, 0, 91, 56
1, 53684, Note_off_c, 0, 55, 63
1, 53690, Note_on_c, 0, 96, 79
1, 53700, Note_on_c, 0, 64, 75
1, 53719, Note_off_c, 0, 60, 60
1, 53750, Note_off_c, 0, 98, 54
1, 53758, Note_off_c, 0, 64, 61
1, 53782, Note_off_c, 0, 96, 64
1, 53809, Note_on_c, 0, 91, 84
1, 54006, Note_on_c, 0, 101, 74
1, 54015, Note_on_c, 0, 48, 52
1, 54018, Note_on_c, 0, 60, 57
1, 54021, Note_on_c, 0, 96, 51
1, 54026, Note_on_c, 0, 52, 54
1, 54078, Control_c, 0, 64, 122
1, 54086, Note_off_c, 0, 91, 51
1, 54093, Control_c, 0, 64, 108
1, 54108, Control_c, 0, 64, 94
1, 54124, Control_c, 0, 64, 77
1, 54139, Control_c, 0, 64, 23
1, 54152, Note_off_c, 0, 96, 52
1, 54153, Control_c, 0, 64, 0
1, 54189, Note_on_c, 0, 100, 67
1, 54213, Control_c, 0, 64, 65
1, 54227, Control_c, 0, 64, 75
1, 54242, Control_c, 0, 64, 88
1, 54246, Note_off_c, 0, 101, 53
1, 54257, Control_c, 0, 64, 100
1, 54271, Control_c, 0, 64, 107
1, 54286, Control_c, 0, 64, 111
1, 54301, Control_c, 0, 64, 115
1, 54304, Note_off_c, 0, 100, 61
1, 54305, Note_on_c, 0, 96, 63
1, 54316, Control_c, 0, 64, 122
1, 54331, Control_c, 0, 64, 127
1, 54357, Note_off_c, 0, 96, 64
1, 54397, Note_on_c, 0, 91, 62
1, 54423, Note_off_c, 0, 91, 65
1, 54447, Note_off_c, 0, 60, 38
1, 54481, Note_on_c, 0, 88, 72
1, 54558, Note_off_c, 0, 52, 55
1, 54559, Note_off_c, 0, 48, 34
1, 54567, Note_off_c, 0, 88, 61
1, 54574, Note_on_c, 0, 84, 70
1, 54624, Note_off_c, 0, 84, 65
1, 54663, Note_on_c, 0, 79, 62
1, 54694, Note_off_c, 0, 79, 65
1, 54746, Note_on_c, 0, 76, 68
1, 54833, Note_off_c, 0, 76, 64
1, 54844, Note_on_c, 0, 72, 68
1, 54903, Note_off_c, 0, 72, 63
1, 54953, Note_on_c, 0, 67, 60
1, 54988, Note_off_c, 0, 67, 64
1, 55064, Note_on_c, 0, 60, 52
1, 55196, Note_on_c, 0, 55, 59
1, 55309, Note_off_c, 0, 55, 56
1, 55323, Note_off_c, 0, 60, 35
1, 55400, Note_on_c, 0, 24, 51
1, 55400, Note_on_c, 0, 36, 47
1, 55524, Control_c, 0, 64, 125
1, 55547, Control_c, 0, 64, 112
1, 55562, Control_c, 0, 64, 100
1, 55576, Control_c, 0, 64, 86
1, 55591, Control_c, 0, 64, 69
1, 55606, Control_c, 0, 64, 0
1, 55814, Control_c, 0, 64, 51
1, 55829, Control_c, 0, 64, 65
1, 55844, Control_c, 0, 64, 69
1, 55859, Control_c, 0, 64, 72
1, 55873, Control_c, 0, 64, 76
1, 55888, Control_c, 0, 64, 81
1, 55903, Control_c, 0, 64, 85
1, 55917, Control_c, 0, 64, 89
1, 55932, Control_c, 0, 64, 91
1, 55947, Control_c, 0, 64, 94
1, 55962, Control_c, 0, 64, 96
1, 55977, Control_c, 0, 64, 99
1, 55991, Control_c, 0, 64, 101
1, 56006, Control_c, 0, 64, 104
1, 56021, Note_off_c, 0, 24, 39
1, 56021, Control_c, 0, 64, 107
1, 56036, Control_c, 0, 64, 110
1, 56050, Note_off_c, 0, 36, 40
1, 56051, Control_c, 0, 64, 113
1, 56065, Control_c, 0, 64, 116
1, 56080, Control_c, 0, 64, 119
1, 56095, Control_c, 0, 64, 122
1, 56110, Control_c, 0, 64, 124
1, 56125, Control_c, 0, 64, 125
1, 56140, Control_c, 0, 64, 126
1, 56155, Control_c, 0, 64, 127
1, 56563, Control_c, 0, 64, 126
1, 56578, Control_c, 0, 64, 122
1, 56593, Control_c, 0, 64, 120
1, 56606, Note_on_c, 0, 25, 46
1, 56608, Control_c, 0, 64, 118
1, 56611, Note_on_c, 0, 37, 40
1, 56622, Control_c, 0, 64, 114
1, 56637, Control_c, 0, 64, 106
1, 56652, Control_c, 0, 64, 92
1, 56666, Control_c, 0, 64, 75
1, 56681, Control_c, 0, 64, 0
1, 56755, Control_c, 0, 64, 63
1, 56770, Control_c, 0, 64, 74
1, 56785, Control_c, 0, 64, 86
1, 56797, Note_off_c, 0, 25, 52
1, 56800, Control_c, 0, 64, 97
1, 56814, Control_c, 0, 64, 103
1, 56829, Control_c, 0, 64, 104
1, 56833, Note_off_c, 0, 37, 46
1, 56897, Note_on_c, 0, 26, 54
1, 56897, Note_on_c, 0, 38, 53
1, 56902, Control_c, 0, 64, 99
1, 56917, Control_c, 0, 64, 85
1, 56931, Control_c, 0, 64, 65
1, 56946, Control_c, 0, 64, 0
1, 56991, Control_c, 0, 64, 59
1, 57006, Control_c, 0, 64, 78
1, 57020, Control_c, 0, 64, 98
1, 57043, Control_c, 0, 64, 127
1, 57058, Note_off_c, 0, 38, 62
1, 57067, Note_off_c, 0, 26, 57
1, 57336, Note_on_c, 0, 63, 55
1, 57345, Note_on_c, 0, 39, 39
1, 57362, Note_on_c, 0, 27, 40
1, 57369, Control_c, 0, 64, 125
1, 57384, Control_c, 0, 64, 119
1, 57399, Control_c, 0, 64, 113
1, 57414, Control_c, 0, 64, 106
1, 57429, Control_c, 0, 64, 98
1, 57443, Control_c, 0, 64, 85
1, 57458, Control_c, 0, 64, 71
1, 57473, Control_c, 0, 64, 0
1, 57622, Control_c, 0, 64, 67
1, 57636, Control_c, 0, 64, 72
1, 57651, Control_c, 0, 64, 77
1, 57666, Control_c, 0, 64, 82
1, 57681, Control_c, 0, 64, 86
1, 57695, Control_c, 0, 64, 89
1, 57701, Note_off_c, 0, 27, 40
1, 57710, Control_c, 0, 64, 92
1, 57725, Control_c, 0, 64, 98
1, 57740, Control_c, 0, 64, 105
1, 57755, Control_c, 0, 64, 113
1, 57769, Control_c, 0, 64, 121
1, 57791, Control_c, 0, 64, 127
1, 57795, Note_off_c, 0, 39, 39
1, 58166, Note_on_c, 0, 65, 54
1, 58179, Note_on_c, 0, 62, 43
1, 58250, Note_off_c, 0, 63, 40
1, 58400, Note_on_c, 0, 67, 60
1, 58411, Note_on_c, 0, 61, 47
1, 58424, Note_on_c, 0, 63, 42
1, 58452, Note_off_c, 0, 62, 50
1, 58453, Note_off_c, 0, 65, 37
1, 58494, Note_off_c, 0, 63, 58
1, 58599, Note_on_c, 0, 68, 69
1, 58600, Control_c, 0, 64, 121
1, 58615, Control_c, 0, 64, 97
1, 58616, Note_on_c, 0, 60, 54
1, 58617, Note_off_c, 0, 67, 60
1, 58620, Note_on_c, 0, 63, 60
1, 58630, Control_c, 0, 64, 73
1, 58639, Note_off_c, 0, 61, 53
1, 58644, Control_c, 0, 64, 0
1, 58704, Control_c, 0, 64, 68
1, 58718, Control_c, 0, 64, 79
1, 58733, Control_c, 0, 64, 93
1, 58738, Note_off_c, 0, 63, 37
1, 58748, Control_c, 0, 64, 106
1, 58763, Control_c, 0, 64, 110
1, 58793, Control_c, 0, 64, 109
1, 58799, Note_on_c, 0, 70, 72
1, 58808, Control_c, 0, 64, 106
1, 58814, Note_on_c, 0, 55, 56
1, 58822, Note_on_c, 0, 63, 55
1, 58823, Control_c, 0, 64, 91
1, 58837, Note_off_c, 0, 68, 62
1, 58837, Control_c, 0, 64, 69
1, 58845, Note_off_c, 0, 60, 47
1, 58852, Control_c, 0, 64, 0
1, 58882, Control_c, 0, 64, 40
1, 58897, Control_c, 0, 64, 71
1, 58900, Note_off_c, 0, 63, 56
1, 58912, Control_c, 0, 64, 84
1, 58917, Note_off_c, 0, 70, 64
1, 58927, Control_c, 0, 64, 103
1, 58942, Control_c, 0, 64, 127
1, 59087, Note_on_c, 0, 72, 72
1, 59114, Note_on_c, 0, 56, 44
1, 59123, Note_on_c, 0, 63, 52
1, 59134, Control_c, 0, 64, 117
1, 59149, Control_c, 0, 64, 97
1, 59164, Control_c, 0, 64, 71
1, 59174, Note_off_c, 0, 55, 37
1, 59179, Control_c, 0, 64, 0
1, 59267, Control_c, 0, 64, 61
1, 59290, Control_c, 0, 64, 76
1, 59305, Control_c, 0, 64, 92
1, 59311, Note_off_c, 0, 63, 65
1, 59320, Control_c, 0, 64, 110
1, 59334, Control_c, 0, 64, 122
1, 59349, Control_c, 0, 64, 126
1, 59364, Control_c, 0, 64, 127
1, 59418, Note_off_c, 0, 56, 51
1, 59678, Note_on_c, 0, 77, 78
1, 59693, Note_on_c, 0, 51, 42
1, 59694, Note_on_c, 0, 59, 39
1, 59699, Note_on_c, 0, 68, 52
1, 59703, Note_on_c, 0, 62, 42
1, 59705, Note_on_c, 0, 65, 47
1, 59720, Control_c, 0, 64, 117
1, 59735, Control_c, 0, 64, 96
1, 59750, Control_c, 0, 64, 77
1, 59765, Control_c, 0, 64, 0
1, 59771, Poly_aftertouch_c, 0, 74, 127
1, 59774, Note_off_c, 0, 72, 56
1, 59808, Poly_aftertouch_c, 0, 74, 0
1, 59839, Control_c, 0, 64, 69
1, 59848, Note_off_c, 0, 62, 61
1, 59854, Control_c, 0, 64, 80
1, 59869, Control_c, 0, 64, 93
1, 59883, Control_c, 0, 64, 101
1, 59884, Note_off_c, 0, 59, 45
1, 59893, Note_off_c, 0, 68, 33
1, 59898, Control_c, 0, 64, 103
1, 59913, Control_c, 0, 64, 104
1, 59928, Control_c, 0, 64, 104
1, 59957, Control_c, 0, 64, 105
1, 59987, Control_c, 0, 64, 105
1, 60084, Note_on_c, 0, 75, 70
1, 60093, Note_on_c, 0, 68, 52
1, 60104, Note_on_c, 0, 63, 47
1, 60114, Note_on_c, 0, 60, 36
1, 60128, Control_c, 0, 64, 105
1, 60143, Control_c, 0, 64, 103
1, 60156, Note_off_c, 0, 65, 61
1, 60158, Control_c, 0, 64, 99
1, 60173, Control_c, 0, 64, 94
1, 60188, Control_c, 0, 64, 86
1, 60203, Control_c, 0, 64, 77
1, 60217, Control_c, 0, 64, 59
1, 60232, Control_c, 0, 64, 0
1, 60251, Note_off_c, 0, 77, 56
1, 60454, Control_c, 0, 64, 45
1, 60469, Control_c, 0, 64, 64
1, 60483, Control_c, 0, 64, 68
1, 60498, Control_c, 0, 64, 72
1, 60514, Control_c, 0, 64, 75
1, 60529, Control_c, 0, 64, 80
1, 60544, Control_c, 0, 64, 85
1, 60559, Control_c, 0, 64, 89
1, 60574, Control_c, 0, 64, 93
1, 60588, Control_c, 0, 64, 96
1, 60603, Control_c, 0, 64, 101
1, 60618, Control_c, 0, 64, 105
1, 60633, Control_c, 0, 64, 109
1, 60644, Note_off_c, 0, 60, 40
1, 60648, Control_c, 0, 64, 112
1, 60662, Control_c, 0, 64, 116
1, 60671, Note_off_c, 0, 68, 39
1, 60677, Control_c, 0, 64, 120
1, 60692, Control_c, 0, 64, 126
1, 60707, Control_c, 0, 64, 127
1, 60730, Note_off_c, 0, 63, 41
1, 61058, Note_on_c, 0, 61, 60
1, 61068, Note_on_c, 0, 67, 50
1, 61071, Note_on_c, 0, 63, 44
1, 61100, Control_c, 0, 64, 123
1, 61114, Control_c, 0, 64, 121
1, 61129, Control_c, 0, 64, 115
1, 61144, Control_c, 0, 64, 105
1, 61159, Control_c, 0, 64, 92
1, 61174, Control_c, 0, 64, 73
1, 61188, Control_c, 0, 64, 0
1, 61247, Control_c, 0, 64, 67
1, 61262, Control_c, 0, 64, 76
1, 61271, Note_off_c, 0, 51, 60
1, 61277, Control_c, 0, 64, 89
1, 61292, Control_c, 0, 64, 98
1, 61308, Control_c, 0, 64, 103
1, 61312, Note_on_c, 0, 60, 64
1, 61321, Note_off_c, 0, 61, 61
1, 61323, Control_c, 0, 64, 105
1, 61337, Control_c, 0, 64, 105
1, 61352, Control_c, 0, 64, 106
1, 61367, Control_c, 0, 64, 108
1, 61371, Note_off_c, 0, 75, 60
1, 61382, Control_c, 0, 64, 110
1, 61397, Control_c, 0, 64, 112
1, 61411, Control_c, 0, 64, 113
1, 61426, Control_c, 0, 64, 114
1, 61441, Control_c, 0, 64, 114
1, 61455, Control_c, 0, 64, 115
1, 61458, Note_off_c, 0, 60, 59
1, 61458, Note_on_c, 0, 58, 66
1, 61488, Note_off_c, 0, 67, 52
1, 61503, Note_off_c, 0, 63, 57
1, 61515, Note_off_c, 0, 58, 62
1, 61601, Note_on_c, 0, 58, 59
1, 61635, Note_off_c, 0, 58, 62
1, 61641, Control_c, 0, 64, 114
1, 61659, Note_on_c, 0, 60, 65
1, 61660, Note_on_c, 0, 63, 48
1, 61662, Note_on_c, 0, 67, 50
1, 61662, Note_on_c, 0, 73, 63
1, 61670, Control_c, 0, 64, 113
1, 61685, Control_c, 0, 64, 110
1, 61700, Control_c, 0, 64, 105
1, 61711, Note_on_c, 0, 58, 68
1, 61715, Control_c, 0, 64, 99
1, 61729, Control_c, 0, 64, 91
1, 61743, Note_off_c, 0, 60, 55
1, 61744, Control_c, 0, 64, 78
1, 61759, Control_c, 0, 64, 64
1, 61774, Control_c, 0, 64, 0
1, 61908, Note_on_c, 0, 57, 70
1, 61929, Note_off_c, 0, 58, 60
1, 62083, Note_off_c, 0, 67, 58
1, 62109, Note_on_c, 0, 58, 66
1, 62152, Note_off_c, 0, 57, 60
1, 62188, Note_off_c, 0, 63, 52
1, 62380, Note_on_c, 0, 60, 54
1, 62391, Note_on_c, 0, 72, 51
1, 62409, Note_off_c, 0, 58, 60
1, 62412, Note_on_c, 0, 63, 29
1, 62412, Note_on_c, 0, 68, 40
1, 62425, Note_off_c, 0, 73, 36
1, 62686, Control_c, 0, 64, 18
1, 62701, Control_c, 0, 64, 41
1, 62701, Note_on_c, 0, 56, 50
1, 62716, Control_c, 0, 64, 43
1, 62728, Note_off_c, 0, 60, 51
1, 62731, Control_c, 0, 64, 41
1, 62746, Control_c, 0, 64, 41
1, 62775, Control_c, 0, 64, 40
1, 62790, Control_c, 0, 64, 39
1, 62804, Control_c, 0, 64, 39
1, 62834, Control_c, 0, 64, 39
1, 62849, Control_c, 0, 64, 41
1, 62864, Control_c, 0, 64, 43
1, 62878, Control_c, 0, 64, 48
1, 62893, Control_c, 0, 64, 56
1, 62909, Control_c, 0, 64, 61
1, 62924, Control_c, 0, 64, 64
1, 62939, Control_c, 0, 64, 67
1, 62954, Control_c, 0, 64, 70
1, 62969, Control_c, 0, 64, 75
1, 62983, Control_c, 0, 64, 82
1, 62998, Control_c, 0, 64, 87
1, 63013, Control_c, 0, 64, 91
1, 63017, Note_off_c, 0, 56, 33
1, 63035, Control_c, 0, 64, 95
1, 63050, Control_c, 0, 64, 98
1, 63065, Control_c, 0, 64, 102
1, 63080, Control_c, 0, 64, 105
1, 63094, Control_c, 0, 64, 110
1, 63109, Control_c, 0, 64, 113
1, 63124, Control_c, 0, 64, 117
1, 63139, Control_c, 0, 64, 120
1, 63154, Control_c, 0, 64, 122
1, 63169, Control_c, 0, 64, 124
1, 63183, Control_c, 0, 64, 125
1, 63198, Control_c, 0, 64, 125
1, 63287, Control_c, 0, 64, 125
1, 63297, Note_on_c, 0, 51, 45
1, 63346, Control_c, 0, 64, 124
1, 63353, Note_off_c, 0, 51, 62
1, 63361, Control_c, 0, 64, 123
1, 63376, Control_c, 0, 64, 120
1, 63390, Control_c, 0, 64, 118
1, 63405, Control_c, 0, 64, 115
1, 63420, Control_c, 0, 64, 112
1, 63434, Control_c, 0, 64, 109
1, 63449, Control_c, 0, 64, 107
1, 63464, Control_c, 0, 64, 103
1, 63479, Control_c, 0, 64, 100
1, 63491, Note_on_c, 0, 51, 51
1, 63494, Control_c, 0, 64, 97
1, 63509, Control_c, 0, 64, 92
1, 63524, Control_c, 0, 64, 87
1, 63539, Control_c, 0, 64, 81
1, 63554, Control_c, 0, 64, 73
1, 63568, Control_c, 0, 64, 46
1, 63583, Control_c, 0, 64, 0
1, 63717, Control_c, 0, 64, 60
1, 63732, Control_c, 0, 64, 66
1, 63747, Control_c, 0, 64, 69
1, 63762, Control_c, 0, 64, 73
1, 63783, Note_off_c, 0, 72, 55
1, 63784, Control_c, 0, 64, 78
1, 63799, Control_c, 0, 64, 84
1, 63813, Control_c, 0, 64, 89
1, 63828, Control_c, 0, 64, 94
1, 63829, Note_off_c, 0, 68, 43
1, 63843, Note_off_c, 0, 63, 43
1, 63843, Control_c, 0, 64, 98
1, 63858, Control_c, 0, 64, 102
1, 63872, Control_c, 0, 64, 106
1, 63887, Control_c, 0, 64, 111
1, 63902, Control_c, 0, 64, 115
1, 63917, Control_c, 0, 64, 119
1, 63932, Control_c, 0, 64, 125
1, 63947, Control_c, 0, 64, 127
1, 64122, Note_off_c, 0, 51, 52
1, 64521, Note_on_c, 0, 63, 46
1, 64532, Note_on_c, 0, 55, 42
1, 64543, Note_on_c, 0, 39, 41
1, 64543, Note_on_c, 0, 61, 47
1, 64549, Control_c, 0, 64, 125
1, 64563, Control_c, 0, 64, 120
1, 64578, Control_c, 0, 64, 115
1, 64593, Control_c, 0, 64, 110
1, 64608, Control_c, 0, 64, 104
1, 64623, Control_c, 0, 64, 97
1, 64637, Control_c, 0, 64, 90
1, 64652, Control_c, 0, 64, 82
1, 64667, Control_c, 0, 64, 73
1, 64681, Control_c, 0, 64, 62
1, 64696, Control_c, 0, 64, 0
1, 64889, Control_c, 0, 64, 39
1, 64904, Control_c, 0, 64, 64
1, 64919, Control_c, 0, 64, 69
1, 64934, Control_c, 0, 64, 72
1, 64949, Control_c, 0, 64, 75
1, 64963, Control_c, 0, 64, 78
1, 64978, Control_c, 0, 64, 80
1, 64993, Control_c, 0, 64, 81
1, 65007, Control_c, 0, 64, 82
1, 65022, Control_c, 0, 64, 83
1, 65037, Control_c, 0, 64, 83
1, 65052, Control_c, 0, 64, 84
1, 65060, Note_on_c, 0, 56, 53
1, 65067, Control_c, 0, 64, 84
1, 65075, Note_on_c, 0, 41, 49
1, 65136, Note_off_c, 0, 61, 51
1, 65242, Note_off_c, 0, 39, 27
1, 65321, Note_on_c, 0, 58, 57
1, 65326, Control_c, 0, 64, 84
1, 65328, Note_on_c, 0, 43, 51
1, 65341, Control_c, 0, 64, 83
1, 65343, Note_off_c, 0, 41, 53
1, 65356, Control_c, 0, 64, 82
1, 65371, Control_c, 0, 64, 81
1, 65385, Control_c, 0, 64, 77
1, 65389, Note_off_c, 0, 56, 33
1, 65400, Control_c, 0, 64, 73
1, 65414, Note_off_c, 0, 63, 39
1, 65415, Control_c, 0, 64, 68
1, 65429, Control_c, 0, 64, 60
1, 65434, Note_off_c, 0, 55, 36
1, 65444, Control_c, 0, 64, 0
1, 65533, Note_on_c, 0, 60, 65
1, 65540, Note_on_c, 0, 44, 55
1, 65579, Note_off_c, 0, 43, 48
1, 65584, Note_off_c, 0, 58, 60
1, 65709, Note_on_c, 0, 55, 63
1, 65727, Note_off_c, 0, 60, 58
1, 65731, Note_on_c, 0, 46, 62
1, 65749, Note_off_c, 0, 44, 57
1, 65770, Control_c, 0, 64, 44
1, 65785, Control_c, 0, 64, 66
1, 65800, Control_c, 0, 64, 70
1, 65815, Control_c, 0, 64, 72
1, 65829, Control_c, 0, 64, 75
1, 65844, Control_c, 0, 64, 78
1, 65859, Control_c, 0, 64, 82
1, 65874, Control_c, 0, 64, 86
1, 65889, Control_c, 0, 64, 90
1, 65897, Note_off_c, 0, 46, 55
1, 65903, Control_c, 0, 64, 94
1, 65905, Note_on_c, 0, 56, 72
1, 65908, Note_on_c, 0, 48, 67
1, 65918, Control_c, 0, 64, 98
1, 65933, Control_c, 0, 64, 102
1, 65940, Note_off_c, 0, 55, 64
1, 65948, Control_c, 0, 64, 106
1, 65963, Control_c, 0, 64, 109
1, 65977, Control_c, 0, 64, 113
1, 65979, Note_off_c, 0, 56, 62
1, 65992, Control_c, 0, 64, 115
1, 66007, Control_c, 0, 64, 115
1, 66029, Control_c, 0, 64, 116
1, 66149, Note_on_c, 0, 65, 75
1, 66154, Note_on_c, 0, 63, 67
1, 66164, Note_on_c, 0, 41, 59
1, 66165, Note_on_c, 0, 57, 58
1, 66179, Control_c, 0, 64, 115
1, 66194, Control_c, 0, 64, 115
1, 66208, Control_c, 0, 64, 113
1, 66223, Control_c, 0, 64, 111
1, 66238, Control_c, 0, 64, 108
1, 66252, Note_off_c, 0, 48, 31
1, 66252, Control_c, 0, 64, 105
1, 66267, Control_c, 0, 64, 101
1, 66282, Control_c, 0, 64, 94
1, 66297, Control_c, 0, 64, 85
1, 66312, Control_c, 0, 64, 72
1, 66326, Control_c, 0, 64, 0
1, 66396, Note_on_c, 0, 58, 67
1, 66409, Note_on_c, 0, 43, 63
1, 66422, Note_off_c, 0, 57, 62
1, 66447, Note_off_c, 0, 41, 55
1, 66590, Note_on_c, 0, 60, 67
1, 66594, Note_on_c, 0, 45, 64
1, 66603, Note_off_c, 0, 58, 61
1, 66618, Note_off_c, 0, 43, 60
1, 66668, Control_c, 0, 67, 127
1, 66683, Control_c, 0, 67, 125
1, 66698, Control_c, 0, 67, 124
1, 66713, Control_c, 0, 67, 122
1, 66727, Control_c, 0, 67, 121
1, 66742, Control_c, 0, 67, 119
1, 66748, Note_on_c, 0, 61, 71
1, 66757, Control_c, 0, 67, 118
1, 66773, Note_on_c, 0, 46, 69
1, 66779, Control_c, 0, 67, 115
1, 66783, Note_off_c, 0, 60, 61
1, 66794, Control_c, 0, 67, 113
1, 66795, Note_off_c, 0, 45, 60
1, 66809, Control_c, 0, 64, 48
1, 66809, Control_c, 0, 67, 111
1, 66824, Control_c, 0, 64, 62
1, 66824, Control_c, 0, 67, 109
1, 66838, Control_c, 0, 64, 65
1, 66838, Control_c, 0, 67, 107
1, 66853, Control_c, 0, 64, 68
1, 66853, Control_c, 0, 67, 104
1, 66868, Control_c, 0, 64, 72
1, 66868, Control_c, 0, 67, 101
1, 66883, Control_c, 0, 64, 77
1, 66883, Control_c, 0, 67, 97
1, 66892, Note_off_c, 0, 63, 61
1, 66898, Control_c, 0, 64, 84
1, 66898, Control_c, 0, 67, 92
1, 66913, Control_c, 0, 64, 91
1, 66913, Control_c, 0, 67, 87
1, 66924, Note_off_c, 0, 46, 61
1, 66928, Control_c, 0, 64, 96
1, 66928, Control_c, 0, 67, 82
1, 66930, Note_off_c, 0, 65, 60
1, 66931, Note_on_c, 0, 48, 65
1, 66941, Note_on_c, 0, 57, 73
1, 66943, Control_c, 0, 64, 101
1, 66943, Control_c, 0, 67, 76
1, 66958, Control_c, 0, 64, 107
1, 66958, Control_c, 0, 67, 72
1, 66973, Control_c, 0, 64, 114
1, 66973, Control_c, 0, 67, 69
1, 66988, Control_c, 0, 64, 121
1, 66988, Control_c, 0, 67, 66
1, 67002, Control_c, 0, 64, 127
1, 67002, Control_c, 0, 67, 64
1, 67014, Note_off_c, 0, 61, 61
1, 67017, Control_c, 0, 67, 62
1, 67032, Control_c, 0, 67, 60
1, 67047, Control_c, 0, 67, 59
1, 67062, Control_c, 0, 67, 59
1, 67076, Control_c, 0, 67, 58
1, 67101, Note_on_c, 0, 58, 77
1, 67103, Note_on_c, 0, 49, 71
1, 67104, Note_off_c, 0, 57, 62
1, 67115, Note_off_c, 0, 48, 61
1, 67144, Note_off_c, 0, 58, 63
1, 67150, Control_c, 0, 67, 58
1, 67224, Control_c, 0, 67, 58
1, 67316, Note_on_c, 0, 70, 80
1, 67339, Note_on_c, 0, 66, 69
1, 67342, Note_on_c, 0, 44, 67
1, 67343, Control_c, 0, 64, 125
1, 67347, Note_on_c, 0, 60, 63
1, 67358, Control_c, 0, 64, 115
1, 67365, Note_off_c, 0, 49, 58
1, 67373, Control_c, 0, 64, 107
1, 67388, Control_c, 0, 64, 95
1, 67402, Control_c, 0, 64, 83
1, 67402, Control_c, 0, 67, 58
1, 67417, Control_c, 0, 64, 66
1, 67432, Control_c, 0, 64, 0
1, 67432, Control_c, 0, 67, 57
1, 67447, Control_c, 0, 67, 56
1, 67462, Control_c, 0, 67, 56
1, 67476, Control_c, 0, 67, 55
1, 67529, Control_c, 0, 64, 61
1, 67529, Control_c, 0, 67, 54
1, 67544, Control_c, 0, 64, 73
1, 67549, Note_on_c, 0, 61, 74
1, 67558, Control_c, 0, 64, 86
1, 67566, Note_on_c, 0, 46, 76
1, 67566, Note_off_c, 0, 60, 60
1, 67573, Control_c, 0, 64, 99
1, 67573, Control_c, 0, 67, 54
1, 67588, Control_c, 0, 64, 106
1, 67588, Control_c, 0, 67, 53
1, 67602, Control_c, 0, 64, 109
1, 67617, Control_c, 0, 64, 112
1, 67617, Control_c, 0, 67, 53
1, 67619, Note_off_c, 0, 70, 60
1, 67620, Note_off_c, 0, 44, 56
1, 67632, Control_c, 0, 64, 116
1, 67640, Note_off_c, 0, 66, 60
1, 67647, Control_c, 0, 64, 120
1, 67647, Control_c, 0, 67, 52
1, 67662, Control_c, 0, 64, 123
1, 67676, Control_c, 0, 64, 124
1, 67724, Note_off_c, 0, 46, 62
1, 67724, Note_on_c, 0, 68, 81
1, 67735, Note_on_c, 0, 48, 71
1, 67738, Note_on_c, 0, 63, 75
1, 67752, Control_c, 0, 64, 123
1, 67757, Note_off_c, 0, 61, 61
1, 67767, Control_c, 0, 67, 52
1, 67781, Control_c, 0, 64, 122
1, 67781, Control_c, 0, 67, 51
1, 67796, Control_c, 0, 64, 119
1, 67796, Control_c, 0, 67, 51
1, 67811, Control_c, 0, 64, 112
1, 67811, Control_c, 0, 67, 50
1, 67825, Control_c, 0, 64, 99
1, 67825, Control_c, 0, 67, 49
1, 67840, Control_c, 0, 64, 83
1, 67840, Control_c, 0, 67, 48
1, 67855, Control_c, 0, 64, 61
1, 67855, Control_c, 0, 67, 46
1, 67870, Control_c, 0, 64, 0
1, 67870, Control_c, 0, 67, 45
1, 67885, Control_c, 0, 67, 44
1, 67887, Note_on_c, 0, 65, 74
1, 67900, Control_c, 0, 67, 43
1, 67900, Note_on_c, 0, 49, 69
1, 67912, Note_off_c, 0, 63, 63
1, 67915, Control_c, 0, 67, 42
1, 67921, Note_off_c, 0, 48, 60
1, 67929, Control_c, 0, 67, 40
1, 67944, Control_c, 0, 67, 38
1, 67959, Control_c, 0, 67, 35
1, 67974, Control_c, 0, 67, 30
1, 67989, Control_c, 0, 67, 22
1, 68004, Control_c, 0, 67, 12
1, 68019, Control_c, 0, 67, 0
1, 68033, Control_c, 0, 64, 67
1, 68047, Note_off_c, 0, 68, 61
1, 68048, Control_c, 0, 64, 75
1, 68063, Control_c, 0, 64, 90
1, 68064, Note_on_c, 0, 60, 78
1, 68069, Note_on_c, 0, 51, 75
1, 68078, Control_c, 0, 64, 102
1, 68090, Note_off_c, 0, 65, 62
1, 68093, Control_c, 0, 64, 112
1, 68103, Note_off_c, 0, 49, 55
1, 68107, Control_c, 0, 64, 120
1, 68122, Control_c, 0, 64, 127
1, 68206, Note_on_c, 0, 61, 79
1, 68216, Note_on_c, 0, 53, 75
1, 68219, Note_off_c, 0, 60, 56
1, 68252, Note_off_c, 0, 51, 57
1, 68254, Note_off_c, 0, 61, 63
1, 68412, Note_on_c, 0, 72, 85
1, 68420, Note_on_c, 0, 68, 76
1, 68421, Note_on_c, 0, 46, 74
1, 68429, Note_on_c, 0, 62, 74
1, 68449, Note_off_c, 0, 53, 53
1, 68486, Control_c, 0, 64, 105
1, 68502, Control_c, 0, 64, 87
1, 68517, Control_c, 0, 64, 66
1, 68531, Control_c, 0, 64, 0
1, 68591, Control_c, 0, 64, 55
1, 68605, Control_c, 0, 64, 69
1, 68620, Control_c, 0, 64, 79
1, 68633, Note_on_c, 0, 63, 79
1, 68634, Note_on_c, 0, 48, 74
1, 68635, Control_c, 0, 64, 95
1, 68649, Control_c, 0, 64, 105
1, 68664, Control_c, 0, 64, 112
1, 68666, Note_off_c, 0, 62, 60
1, 68678, Note_off_c, 0, 46, 60
1, 68679, Control_c, 0, 64, 116
1, 68694, Control_c, 0, 64, 120
1, 68703, Note_off_c, 0, 72, 58
1, 68709, Control_c, 0, 64, 127
1, 68719, Note_off_c, 0, 68, 60
1, 68810, Note_on_c, 0, 70, 84
1, 68818, Note_on_c, 0, 65, 82
1, 68818, Note_on_c, 0, 50, 77
1, 68827, Note_off_c, 0, 48, 64
1, 68835, Note_off_c, 0, 63, 62
1, 68857, Control_c, 0, 64, 120
1, 68871, Control_c, 0, 64, 100
1, 68886, Control_c, 0, 64, 81
1, 68901, Control_c, 0, 64, 54
1, 68916, Control_c, 0, 64, 0
1, 68961, Control_c, 0, 64, 67
1, 68976, Control_c, 0, 64, 78
1, 68986, Note_on_c, 0, 67, 85
1, 68990, Note_off_c, 0, 65, 63
1, 68991, Note_on_c, 0, 51, 83
1, 68991, Control_c, 0, 64, 91
1, 69005, Control_c, 0, 64, 105
1, 69006, Note_off_c, 0, 50, 62
1, 69027, Control_c, 0, 64, 117
1, 69042, Control_c, 0, 64, 118
1, 69086, Control_c, 0, 64, 113
1, 69101, Control_c, 0, 64, 97
1, 69116, Control_c, 0, 64, 71
1, 69131, Control_c, 0, 64, 0
1, 69175, Control_c, 0, 64, 44
1, 69177, Note_on_c, 0, 53, 80
1, 69179, Note_on_c, 0, 62, 86
1, 69190, Control_c, 0, 64, 77
1, 69196, Note_off_c, 0, 51, 61
1, 69200, Note_off_c, 0, 67, 55
1, 69205, Control_c, 0, 64, 100
1, 69213, Note_off_c, 0, 70, 56
1, 69220, Control_c, 0, 64, 127
1, 69247, Note_off_c, 0, 62, 64
1, 69445, Note_on_c, 0, 75, 94
1, 69451, Note_on_c, 0, 67, 75
1, 69453, Note_on_c, 0, 63, 82
1, 69455, Note_on_c, 0, 51, 71
1, 69472, Control_c, 0, 64, 118
1, 69477, Note_off_c, 0, 53, 52
1, 69487, Control_c, 0, 64, 92
1, 69502, Control_c, 0, 64, 64
1, 69517, Control_c, 0, 64, 0
1, 69576, Control_c, 0, 64, 70
1, 69591, Control_c, 0, 64, 89
1, 69605, Control_c, 0, 64, 118
1, 69620, Control_c, 0, 64, 127
1, 69644, Note_off_c, 0, 67, 64
1, 69647, Note_off_c, 0, 63, 64
1, 69666, Note_off_c, 0, 75, 65
1, 69868, Note_on_c, 0, 77, 87
1, 69876, Note_on_c, 0, 70, 75
1, 69879, Note_on_c, 0, 65, 78
1, 69881, Note_on_c, 0, 62, 75
1, 69953, Note_off_c, 0, 51, 62
1, 69974, Note_off_c, 0, 70, 59
1, 69990, Note_off_c, 0, 62, 60
1, 70008, Note_off_c, 0, 65, 63
1, 70038, Note_off_c, 0, 77, 58
1, 70116, Control_c, 0, 64, 112
1, 70117, Note_on_c, 0, 75, 75
1, 70121, Note_on_c, 0, 79, 90
1, 70122, Note_on_c, 0, 63, 67
1, 70123, Note_on_c, 0, 61, 70
1, 70126, Note_on_c, 0, 67, 81
1, 70131, Control_c, 0, 64, 88
1, 70146, Control_c, 0, 64, 69
1, 70161, Control_c, 0, 64, 61
1, 70175, Control_c, 0, 64, 70
1, 70190, Control_c, 0, 64, 82
1, 70205, Control_c, 0, 64, 102
1, 70219, Control_c, 0, 64, 127
1, 70224, Note_off_c, 0, 63, 59
1, 70232, Note_off_c, 0, 67, 62
1, 70245, Note_off_c, 0, 79, 62
1, 70255, Note_off_c, 0, 75, 63
1, 70316, Note_on_c, 0, 80, 94
1, 70319, Note_on_c, 0, 63, 77
1, 70319, Note_on_c, 0, 68, 82
1, 70319, Note_on_c, 0, 75, 73
1, 70323, Note_on_c, 0, 60, 66
1, 70323, Control_c, 0, 64, 116
1, 70338, Control_c, 0, 64, 91
1, 70353, Control_c, 0, 64, 68
1, 70356, Note_off_c, 0, 61, 33
1, 70368, Control_c, 0, 64, 63
1, 70383, Control_c, 0, 64, 72
1, 70398, Control_c, 0, 64, 85
1, 70412, Control_c, 0, 64, 111
1, 70427, Control_c, 0, 64, 127
1, 70436, Note_off_c, 0, 68, 63
1, 70441, Note_off_c, 0, 80, 63
1, 70446, Note_off_c, 0, 63, 60
1, 70468, Note_off_c, 0, 75, 63
1, 70500, Note_off_c, 0, 60, 48
1, 70509, Poly_aftertouch_c, 0, 75, 0
1, 70523, Note_on_c, 0, 75, 68
1, 70523, Control_c, 0, 64, 104
1, 70525, Note_on_c, 0, 82, 96
1, 70529, Note_on_c, 0, 70, 85
1, 70532, Note_on_c, 0, 55, 68
1, 70532, Note_on_c, 0, 63, 78
1, 70538, Control_c, 0, 64, 81
1, 70553, Control_c, 0, 64, 71
1, 70568, Control_c, 0, 64, 80
1, 70582, Control_c, 0, 64, 98
1, 70597, Control_c, 0, 64, 127
1, 70615, Note_off_c, 0, 75, 62
1, 70619, Note_off_c, 0, 70, 61
1, 70623, Note_off_c, 0, 82, 62
1, 70627, Note_off_c, 0, 63, 56
1, 70821, Note_on_c, 0, 84, 92
1, 70822, Note_on_c, 0, 63, 69
1, 70828, Note_on_c, 0, 72, 79
1, 70830, Note_on_c, 0, 75, 74
1, 70836, Note_on_c, 0, 56, 67
1, 70878, Note_off_c, 0, 55, 58
1, 70895, Control_c, 0, 64, 102
1, 70910, Control_c, 0, 64, 78
1, 70924, Control_c, 0, 64, 0
1, 70998, Control_c, 0, 64, 71
1, 71013, Control_c, 0, 64, 90
1, 71018, Note_off_c, 0, 56, 65
1, 71028, Control_c, 0, 64, 127
1, 71036, Note_off_c, 0, 63, 65
1, 71039, Note_off_c, 0, 72, 65
1, 71056, Note_off_c, 0, 75, 65
1, 71065, Note_off_c, 0, 84, 68
1, 71312, Note_on_c, 0, 89, 86
1, 71319, Note_on_c, 0, 63, 57
1, 71325, Note_on_c, 0, 77, 75
1, 71325, Note_on_c, 0, 80, 69
1, 71327, Note_on_c, 0, 74, 61
1, 71331, Note_on_c, 0, 71, 54
1, 71362, Control_c, 0, 64, 100
1, 71376, Control_c, 0, 64, 76
1, 71391, Control_c, 0, 64, 0
1, 71421, Control_c, 0, 64, 51
1, 71436, Control_c, 0, 64, 72
1, 71450, Control_c, 0, 64, 90
1, 71465, Control_c, 0, 64, 116
1, 71471, Note_off_c, 0, 74, 63
1, 71480, Control_c, 0, 64, 127
1, 71497, Note_off_c, 0, 71, 58
1, 71574, Note_off_c, 0, 80, 38
1, 71579, Poly_aftertouch_c, 0, 88, 127
1, 71661, Note_on_c, 0, 87, 76
1, 71662, Poly_aftertouch_c, 0, 88, 0
1, 71663, Note_on_c, 0, 80, 76
1, 71668, Note_on_c, 0, 75, 60
1, 71673, Control_c, 0, 64, 98
1, 71676, Note_on_c, 0, 72, 59
1, 71688, Control_c, 0, 64, 73
1, 71700, Note_off_c, 0, 77, 56
1, 71703, Control_c, 0, 64, 0
1, 71763, Control_c, 0, 64, 65
1, 71766, Note_off_c, 0, 89, 54
1, 71778, Control_c, 0, 64, 83
1, 71783, Note_off_c, 0, 63, 64
1, 71793, Control_c, 0, 64, 127
1, 71822, Note_off_c, 0, 72, 64
1, 71834, Note_off_c, 0, 80, 64
1, 71856, Note_off_c, 0, 75, 65
1, 71871, Note_off_c, 0, 87, 62
1, 72080, Control_c, 0, 67, 8
1, 72095, Control_c, 0, 67, 8
1, 72110, Control_c, 0, 67, 11
1, 72125, Control_c, 0, 67, 14
1, 72139, Control_c, 0, 67, 16
1, 72148, Note_on_c, 0, 75, 39
1, 72154, Control_c, 0, 67, 19
1, 72169, Control_c, 0, 67, 21
1, 72184, Note_on_c, 0, 83, 38
1, 72184, Control_c, 0, 67, 22
1, 72198, Control_c, 0, 67, 24
1, 72213, Control_c, 0, 67, 25
1, 72228, Note_on_c, 0, 86, 49
1, 72228, Control_c, 0, 67, 28
1, 72243, Control_c, 0, 67, 31
1, 72247, Note_on_c, 0, 89, 44
1, 72258, Control_c, 0, 67, 37
1, 72273, Control_c, 0, 64, 114
1, 72273, Control_c, 0, 67, 46
1, 72274, Note_on_c, 0, 92, 45
1, 72288, Control_c, 0, 64, 91
1, 72288, Control_c, 0, 67, 55
1, 72302, Note_on_c, 0, 101, 69
1, 72302, Control_c, 0, 64, 69
1, 72302, Control_c, 0, 67, 67
1, 72317, Control_c, 0, 64, 0
1, 72317, Control_c, 0, 67, 76
1, 72332, Control_c, 0, 67, 85
1, 72347, Control_c, 0, 67, 91
1, 72362, Control_c, 0, 64, 57
1, 72362, Control_c, 0, 67, 97
1, 72377, Control_c, 0, 64, 75
1, 72377, Control_c, 0, 67, 103
1, 72391, Control_c, 0, 64, 89
1, 72391, Control_c, 0, 67, 108
1, 72406, Control_c, 0, 64, 104
1, 72406, Control_c, 0, 67, 111
1, 72421, Control_c, 0, 64, 116
1, 72421, Control_c, 0, 67, 113
1, 72425, Note_off_c, 0, 86, 56
1, 72436, Control_c, 0, 64, 122
1, 72436, Control_c, 0, 67, 114
1, 72445, Note_off_c, 0, 83, 59
1, 72451, Control_c, 0, 64, 126
1, 72451, Control_c, 0, 67, 115
1, 72456, Note_off_c, 0, 92, 41
1, 72465, Control_c, 0, 64, 127
1, 72465, Control_c, 0, 67, 117
1, 72480, Control_c, 0, 67, 121
1, 72496, Control_c, 0, 67, 126
1, 72511, Control_c, 0, 67, 127
1, 72733, Control_c, 0, 64, 121
1, 72736, Note_on_c, 0, 92, 47
1, 72741, Note_on_c, 0, 99, 56
1, 72744, Note_on_c, 0, 87, 46
1, 72747, Note_on_c, 0, 84, 44
1, 72748, Control_c, 0, 64, 117
1, 72770, Control_c, 0, 64, 114
1, 72785, Control_c, 0, 64, 108
1, 72800, Control_c, 0, 64, 100
1, 72815, Control_c, 0, 64, 87
1, 72820, Note_off_c, 0, 89, 42
1, 72829, Control_c, 0, 64, 70
1, 72844, Control_c, 0, 64, 0
1, 72918, Note_off_c, 0, 101, 38
1, 72948, Control_c, 0, 64, 59
1, 72962, Control_c, 0, 64, 70
1, 72977, Control_c, 0, 64, 79
1, 72992, Control_c, 0, 64, 89
1, 73007, Control_c, 0, 64, 96
1, 73021, Control_c, 0, 64, 101
1, 73036, Control_c, 0, 64, 107
1, 73051, Control_c, 0, 64, 113
1, 73057, Note_off_c, 0, 87, 63
1, 73066, Control_c, 0, 64, 121
1, 73068, Note_off_c, 0, 99, 65
1, 73077, Note_off_c, 0, 84, 59
1, 73081, Control_c, 0, 64, 127
1, 73128, Note_off_c, 0, 92, 38
1, 73187, Note_off_c, 0, 75, 56
1, 73938, Note_on_c, 0, 27, 33
1, 73947, Note_on_c, 0, 39, 30
1, 74171, Control_c, 0, 64, 124
1, 74186, Control_c, 0, 64, 117
1, 74201, Control_c, 0, 64, 112
1, 74216, Control_c, 0, 64, 107
1, 74231, Control_c, 0, 64, 103
1, 74246, Control_c, 0, 64, 99
1, 74267, Control_c, 0, 64, 95
1, 74282, Control_c, 0, 64, 90
1, 74297, Control_c, 0, 64, 87
1, 74312, Control_c, 0, 64, 84
1, 74327, Control_c, 0, 64, 80
1, 74341, Control_c, 0, 64, 73
1, 74356, Control_c, 0, 64, 65
1, 74371, Control_c, 0, 64, 0
1, 74564, Control_c, 0, 64, 35
1, 74579, Control_c, 0, 64, 64
1, 74593, Control_c, 0, 64, 70
1, 74608, Control_c, 0, 64, 75
1, 74623, Control_c, 0, 64, 81
1, 74638, Control_c, 0, 64, 85
1, 74653, Control_c, 0, 64, 89
1, 74667, Control_c, 0, 64, 93
1, 74682, Control_c, 0, 64, 97
1, 74697, Control_c, 0, 64, 100
1, 74712, Control_c, 0, 64, 103
1, 74727, Control_c, 0, 64, 107
1, 74741, Control_c, 0, 64, 110
1, 74756, Control_c, 0, 64, 115
1, 74771, Control_c, 0, 64, 119
1, 74786, Control_c, 0, 64, 122
1, 74800, Control_c, 0, 64, 125
1, 74815, Control_c, 0, 64, 127
1, 75066, Note_on_c, 0, 44, 44
1, 75077, Note_off_c, 0, 39, 26
1, 75099, Note_on_c, 0, 32, 26
1, 75180, Control_c, 0, 64, 126
1, 75195, Control_c, 0, 64, 124
1, 75210, Control_c, 0, 64, 122
1, 75224, Control_c, 0, 64, 121
1, 75239, Control_c, 0, 64, 119
1, 75254, Control_c, 0, 64, 117
1, 75269, Control_c, 0, 64, 115
1, 75284, Control_c, 0, 64, 112
1, 75289, Note_on_c, 0, 46, 55
1, 75298, Control_c, 0, 64, 109
1, 75304, Note_on_c, 0, 34, 42
1, 75313, Control_c, 0, 64, 107
1, 75328, Control_c, 0, 64, 104
1, 75343, Control_c, 0, 64, 100
1, 75355, Note_off_c, 0, 44, 39
1, 75358, Control_c, 0, 64, 96
1, 75373, Control_c, 0, 64, 92
1, 75382, Note_off_c, 0, 27, 25
1, 75388, Control_c, 0, 64, 88
1, 75403, Control_c, 0, 64, 83
1, 75417, Control_c, 0, 64, 78
1, 75432, Control_c, 0, 64, 71
1, 75447, Control_c, 0, 64, 63
1, 75462, Control_c, 0, 64, 0
1, 75463, Note_off_c, 0, 32, 37
1, 75549, Note_on_c, 0, 48, 51
1, 75565, Note_on_c, 0, 36, 34
1, 75575, Note_off_c, 0, 34, 35
1, 75597, Note_off_c, 0, 46, 36
1, 76041, Note_on_c, 0, 46, 48
1, 76058, Note_on_c, 0, 34, 32
1, 76088, Note_off_c, 0, 48, 55
1, 76127, Note_off_c, 0, 36, 40
1, 76371, Note_on_c, 0, 48, 50
1, 76375, Note_on_c, 0, 36, 27
1, 76398, Note_off_c, 0, 46, 45
1, 76407, Note_off_c, 0, 34, 34
1, 76722, Control_c, 0, 64, 33
1, 76736, Control_c, 0, 64, 58
1, 76751, Control_c, 0, 64, 63
1, 76766, Control_c, 0, 64, 64
1, 76780, Control_c, 0, 64, 65
1, 76795, Control_c, 0, 64, 66
1, 76810, Control_c, 0, 64, 68
1, 76825, Control_c, 0, 64, 71
1, 76840, Control_c, 0, 64, 73
1, 76854, Control_c, 0, 64, 76
1, 76869, Control_c, 0, 64, 80
1, 76884, Control_c, 0, 64, 82
1, 76899, Control_c, 0, 64, 84
1, 76914, Control_c, 0, 64, 86
1, 76929, Control_c, 0, 64, 88
1, 76944, Control_c, 0, 64, 91
1, 76959, Control_c, 0, 64, 94
1, 76974, Control_c, 0, 64, 97
1, 76988, Control_c, 0, 64, 100
1, 77003, Control_c, 0, 64, 103
1, 77018, Control_c, 0, 64, 105
1, 77033, Control_c, 0, 64, 108
1, 77048, Control_c, 0, 64, 111
1, 77055, Note_on_c, 0, 44, 39
1, 77062, Control_c, 0, 64, 113
1, 77063, Note_on_c, 0, 32, 32
1, 77077, Control_c, 0, 64, 116
1, 77084, Note_off_c, 0, 36, 41
1, 77092, Control_c, 0, 64, 119
1, 77107, Control_c, 0, 64, 123
1, 77122, Control_c, 0, 64, 126
1, 77136, Control_c, 0, 64, 127
1, 77176, Note_off_c, 0, 48, 38
1, 77201, Note_off_c, 0, 44, 34
1, 77207, Note_off_c, 0, 32, 37
1, 77515, Control_c, 0, 64, 124
1, 77519, Note_on_c, 0, 44, 39
1, 77525, Note_on_c, 0, 32, 39
1, 77530, Control_c, 0, 64, 119
1, 77545, Control_c, 0, 64, 115
1, 77559, Control_c, 0, 64, 110
1, 77574, Control_c, 0, 64, 105
1, 77589, Control_c, 0, 64, 98
1, 77603, Control_c, 0, 64, 90
1, 77618, Control_c, 0, 64, 81
1, 77633, Control_c, 0, 64, 66
1, 77648, Control_c, 0, 64, 0
1, 77796, Control_c, 0, 64, 62
1, 77811, Control_c, 0, 64, 70
1, 77826, Control_c, 0, 64, 79
1, 77841, Control_c, 0, 64, 87
1, 77856, Control_c, 0, 64, 94
1, 77871, Control_c, 0, 64, 99
1, 77886, Control_c, 0, 64, 104
1, 77901, Control_c, 0, 64, 109
1, 77915, Note_off_c, 0, 32, 40
1, 77916, Control_c, 0, 64, 117
1, 77930, Control_c, 0, 64, 126
1, 77945, Control_c, 0, 64, 127
1, 77953, Note_off_c, 0, 44, 41
1, 78804, Note_on_c, 0, 92, 60
1, 78810, Note_on_c, 0, 80, 54
1, 78815, Note_on_c, 0, 72, 34
1, 78831, Note_on_c, 0, 68, 33
1, 78849, Note_on_c, 0, 63, 30
1, 78851, Note_on_c, 0, 60, 32
1, 80297, Note_off_c, 0, 92, 37
1, 80302, Note_off_c, 0, 80, 36
1, 80403, Note_off_c, 0, 60, 28
1, 80437, Note_off_c, 0, 72, 24
1, 80467, Note_off_c, 0, 68, 30
1, 80476, Note_off_c, 0, 63, 27
1, 81526, Control_c, 0, 64, 125
1, 81541, Control_c, 0, 64, 124
1, 81556, Control_c, 0, 64, 123
1, 81570, Control_c, 0, 64, 123
1, 81585, Control_c, 0, 64, 122
1, 81600, Control_c, 0, 64, 121
1, 81615, Control_c, 0, 64, 119
1, 81630, Control_c, 0, 64, 116
1, 81645, Control_c, 0, 64, 111
1, 81659, Control_c, 0, 64, 108
1, 81674, Control_c, 0, 64, 105
1, 81689, Control_c, 0, 64, 102
1, 81704, Control_c, 0, 64, 99
1, 81719, Control_c, 0, 64, 97
1, 81733, Control_c, 0, 64, 95
1, 81755, Control_c, 0, 64, 94
1, 81770, Control_c, 0, 64, 93
1, 81815, Control_c, 0, 64, 93
1, 81829, Control_c, 0, 64, 92
1, 81844, Control_c, 0, 64, 89
1, 81859, Control_c, 0, 64, 86
1, 81874, Control_c, 0, 64, 82
1, 81889, Control_c, 0, 64, 77
1, 81904, Control_c, 0, 64, 70
1, 81919, Control_c, 0, 64, 64
1, 81933, Control_c, 0, 64, 38
1, 81948, Control_c, 0, 64, 0
1, 82184, Note_on_c, 0, 84, 50
1, 82260, Control_c, 0, 64, 58
1, 82274, Control_c, 0, 64, 65
1, 82289, Control_c, 0, 64, 67
1, 82304, Control_c, 0, 64, 69
1, 82319, Control_c, 0, 64, 72
1, 82334, Control_c, 0, 64, 75
1, 82348, Control_c, 0, 64, 79
1, 82363, Control_c, 0, 64, 83
1, 82378, Control_c, 0, 64, 86
1, 82392, Control_c, 0, 64, 89
1, 82407, Control_c, 0, 64, 94
1, 82422, Control_c, 0, 64, 97
1, 82437, Control_c, 0, 64, 102
1, 82438, Note_on_c, 0, 72, 44
1, 82452, Control_c, 0, 64, 106
1, 82466, Control_c, 0, 64, 112
1, 82481, Control_c, 0, 64, 117
1, 82503, Control_c, 0, 64, 123
1, 82518, Note_off_c, 0, 72, 61
1, 82518, Control_c, 0, 64, 127
1, 82525, Note_off_c, 0, 84, 35
1, 82810, Note_on_c, 0, 84, 66
1, 83043, Note_on_c, 0, 72, 56
1, 83063, Note_off_c, 0, 84, 50
1, 83120, Note_off_c, 0, 72, 62
1, 83448, Note_on_c, 0, 84, 76
1, 83723, Note_on_c, 0, 72, 51
1, 83803, Note_off_c, 0, 84, 38
1, 83817, Note_off_c, 0, 72, 60
1, 84270, Note_on_c, 0, 84, 58
1, 84670, Note_on_c, 0, 72, 38
1, 84677, Note_on_c, 0, 36, 34
1, 84700, Note_off_c, 0, 84, 35
1, 84777, Note_off_c, 0, 72, 56
1, 84833, Note_off_c, 0, 36, 37
1, 85164, Note_on_c, 0, 81, 69
1, 85182, Note_on_c, 0, 65, 44
1, 85184, Note_on_c, 0, 55, 47
1, 85188, Note_on_c, 0, 70, 26
1, 85207, Note_on_c, 0, 60, 25
1, 85229, Note_off_c, 0, 70, 48
1, 85238, Note_off_c, 0, 55, 61
1, 85238, Note_off_c, 0, 65, 63
1, 85243, Note_off_c, 0, 60, 57
1, 85427, Note_on_c, 0, 72, 49
1, 85439, Note_off_c, 0, 81, 57
1, 85442, Note_on_c, 0, 48, 49
1, 85516, Note_off_c, 0, 72, 61
1, 85520, Note_off_c, 0, 48, 64
1, 85810, Note_on_c, 0, 79, 73
1, 85833, Note_on_c, 0, 64, 49
1, 85836, Note_on_c, 0, 55, 43
1, 85839, Note_on_c, 0, 70, 41
1, 85847, Note_on_c, 0, 60, 36
1, 85866, Note_off_c, 0, 55, 57
1, 85894, Note_off_c, 0, 64, 54
1, 85906, Note_off_c, 0, 60, 56
1, 85958, Note_off_c, 0, 70, 40
1, 86056, Note_on_c, 0, 72, 57
1, 86063, Control_c, 0, 64, 119
1, 86073, Note_on_c, 0, 53, 54
1, 86078, Control_c, 0, 64, 95
1, 86093, Control_c, 0, 64, 70
1, 86108, Control_c, 0, 64, 0
1, 86152, Control_c, 0, 64, 59
1, 86166, Control_c, 0, 64, 71
1, 86176, Note_off_c, 0, 79, 59
1, 86181, Control_c, 0, 64, 84
1, 86196, Control_c, 0, 64, 102
1, 86202, Note_off_c, 0, 72, 65
1, 86211, Control_c, 0, 64, 122
1, 86226, Control_c, 0, 64, 127
1, 86262, Note_off_c, 0, 53, 59
1, 86431, Note_on_c, 0, 65, 45
1, 86434, Note_on_c, 0, 77, 75
1, 86446, Note_on_c, 0, 60, 48
1, 86451, Note_on_c, 0, 69, 52
1, 86470, Note_off_c, 0, 65, 65
1, 86480, Note_off_c, 0, 60, 64
1, 86578, Note_off_c, 0, 77, 60
1, 86591, Note_on_c, 0, 79, 66
1, 86618, Control_c, 0, 64, 108
1, 86633, Control_c, 0, 64, 87
1, 86647, Control_c, 0, 64, 64
1, 86650, Note_on_c, 0, 50, 58
1, 86652, Note_on_c, 0, 77, 67
1, 86662, Control_c, 0, 64, 0
1, 86679, Note_off_c, 0, 79, 60
1, 86706, Control_c, 0, 64, 66
1, 86720, Note_off_c, 0, 69, 63
1, 86721, Control_c, 0, 64, 80
1, 86729, Note_off_c, 0, 77, 61
1, 86736, Control_c, 0, 64, 95
1, 86751, Control_c, 0, 64, 108
1, 86766, Control_c, 0, 64, 117
1, 86781, Control_c, 0, 64, 118
1, 86793, Note_off_c, 0, 50, 50
1, 86817, Note_on_c, 0, 76, 73
1, 86831, Note_on_c, 0, 67, 62
1, 86855, Control_c, 0, 64, 119
1, 86870, Control_c, 0, 64, 120
1, 86878, Note_off_c, 0, 67, 54
1, 86885, Control_c, 0, 64, 122
1, 86900, Control_c, 0, 64, 125
1, 86915, Control_c, 0, 64, 127
1, 86983, Note_on_c, 0, 74, 75
1, 86986, Note_on_c, 0, 60, 57
1, 86999, Note_on_c, 0, 57, 57
1, 87012, Note_on_c, 0, 65, 54
1, 87024, Note_off_c, 0, 76, 63
1, 87026, Note_off_c, 0, 60, 64
1, 87028, Note_off_c, 0, 57, 64
1, 87061, Note_off_c, 0, 65, 63
1, 87144, Control_c, 0, 64, 124
1, 87159, Control_c, 0, 64, 105
1, 87174, Control_c, 0, 64, 84
1, 87189, Control_c, 0, 64, 0
1, 87198, Note_on_c, 0, 43, 48
1, 87204, Note_on_c, 0, 67, 59
1, 87278, Control_c, 0, 64, 68
1, 87284, Note_off_c, 0, 74, 55
1, 87293, Control_c, 0, 64, 86
1, 87296, Note_off_c, 0, 67, 63
1, 87308, Control_c, 0, 64, 111
1, 87315, Note_off_c, 0, 43, 59
1, 87322, Control_c, 0, 64, 127
1, 87574, Note_on_c, 0, 76, 73
1, 87582, Note_on_c, 0, 60, 58
1, 87594, Note_on_c, 0, 55, 55
1, 87597, Note_on_c, 0, 65, 47
1, 87599, Note_on_c, 0, 50, 36
1, 87618, Note_off_c, 0, 60, 63
1, 87631, Note_off_c, 0, 50, 53
1, 87631, Note_off_c, 0, 55, 64
1, 87654, Note_off_c, 0, 65, 63
1, 87791, Control_c, 0, 64, 111
1, 87806, Control_c, 0, 64, 86
1, 87816, Note_on_c, 0, 43, 54
1, 87819, Note_on_c, 0, 67, 56
1, 87821, Control_c, 0, 64, 55
1, 87836, Control_c, 0, 64, 0
1, 87881, Note_off_c, 0, 76, 62
1, 87925, Control_c, 0, 64, 36
1, 87939, Control_c, 0, 64, 72
1, 87940, Note_off_c, 0, 67, 61
1, 87944, Note_off_c, 0, 43, 62
1, 87954, Control_c, 0, 64, 81
1, 87969, Control_c, 0, 64, 94
1, 87984, Control_c, 0, 64, 101
1, 87999, Control_c, 0, 64, 107
1, 88013, Control_c, 0, 64, 114
1, 88028, Control_c, 0, 64, 121
1, 88043, Control_c, 0, 64, 127
1, 88205, Note_on_c, 0, 74, 65
1, 88209, Note_on_c, 0, 59, 52
1, 88222, Note_on_c, 0, 55, 56
1, 88230, Note_on_c, 0, 65, 45
1, 88251, Note_off_c, 0, 59, 60
1, 88256, Note_off_c, 0, 55, 66
1, 88470, Note_off_c, 0, 65, 37
1, 88474, Control_c, 0, 64, 112
1, 88476, Note_on_c, 0, 36, 48
1, 88483, Note_on_c, 0, 67, 49
1, 88496, Control_c, 0, 64, 94
1, 88511, Control_c, 0, 64, 77
1, 88525, Control_c, 0, 64, 42
1, 88540, Control_c, 0, 64, 0
1, 88584, Control_c, 0, 64, 69
1, 88599, Control_c, 0, 64, 82
1, 88604, Note_off_c, 0, 74, 58
1, 88614, Note_off_c, 0, 36, 55
1, 88614, Control_c, 0, 64, 96
1, 88629, Control_c, 0, 64, 107
1, 88632, Note_off_c, 0, 67, 62
1, 88644, Control_c, 0, 64, 114
1, 88659, Control_c, 0, 64, 115
1, 88674, Control_c, 0, 64, 116
1, 88688, Control_c, 0, 64, 116
1, 88703, Control_c, 0, 64, 117
1, 88718, Control_c, 0, 64, 119
1, 88733, Control_c, 0, 64, 121
1, 88748, Control_c, 0, 64, 125
1, 88763, Control_c, 0, 64, 127
1, 88895, Note_on_c, 0, 72, 58
1, 88911, Note_on_c, 0, 64, 46
1, 88915, Note_on_c, 0, 55, 41
1, 88925, Note_on_c, 0, 60, 46
1, 89034, Note_off_c, 0, 72, 61
1, 89064, Note_on_c, 0, 74, 50
1, 89124, Note_off_c, 0, 55, 56
1, 89125, Note_on_c, 0, 72, 66
1, 89125, Note_off_c, 0, 64, 61
1, 89129, Note_on_c, 0, 48, 59
1, 89165, Note_off_c, 0, 74, 57
1, 89292, Note_off_c, 0, 48, 37
1, 89309, Note_on_c, 0, 65, 64
1, 89309, Note_on_c, 0, 71, 69
1, 89320, Note_on_c, 0, 56, 57
1, 89334, Note_off_c, 0, 72, 50
1, 89376, Note_off_c, 0, 65, 61
1, 89422, Control_c, 0, 64, 122
1, 89437, Control_c, 0, 64, 119
1, 89452, Control_c, 0, 64, 115
1, 89467, Control_c, 0, 64, 110
1, 89481, Control_c, 0, 64, 107
1, 89496, Control_c, 0, 64, 101
1, 89504, Note_off_c, 0, 60, 32
1, 89511, Control_c, 0, 64, 95
1, 89512, Note_on_c, 0, 72, 68
1, 89519, Note_off_c, 0, 56, 61
1, 89522, Note_on_c, 0, 55, 57
1, 89523, Note_off_c, 0, 71, 57
1, 89524, Note_on_c, 0, 64, 53
1, 89526, Control_c, 0, 64, 87
1, 89541, Control_c, 0, 64, 75
1, 89556, Control_c, 0, 64, 48
1, 89571, Control_c, 0, 64, 0
1, 89660, Note_off_c, 0, 64, 55
1, 89674, Control_c, 0, 64, 25
1, 89689, Control_c, 0, 64, 67
1, 89704, Control_c, 0, 64, 75
1, 89718, Control_c, 0, 64, 84
1, 89730, Note_off_c, 0, 72, 62
1, 89733, Control_c, 0, 64, 92
1, 89748, Control_c, 0, 64, 99
1, 89763, Control_c, 0, 64, 106
1, 89768, Note_on_c, 0, 48, 49
1, 89778, Control_c, 0, 64, 114
1, 89792, Control_c, 0, 64, 125
1, 89793, Note_off_c, 0, 55, 29
1, 89807, Control_c, 0, 64, 127
1, 89888, Note_off_c, 0, 48, 63
1, 90164, Note_on_c, 0, 81, 74
1, 90186, Note_on_c, 0, 65, 55
1, 90197, Note_on_c, 0, 70, 38
1, 90200, Note_on_c, 0, 55, 42
1, 90206, Note_on_c, 0, 60, 42
1, 90227, Note_off_c, 0, 70, 52
1, 90240, Note_off_c, 0, 55, 63
1, 90249, Note_off_c, 0, 65, 64
1, 90252, Note_off_c, 0, 60, 62
1, 90414, Note_on_c, 0, 72, 60
1, 90426, Note_on_c, 0, 48, 58
1, 90426, Note_off_c, 0, 81, 57
1, 90486, Note_off_c, 0, 72, 64
1, 90491, Note_off_c, 0, 48, 64
1, 90784, Note_on_c, 0, 79, 77
1, 90802, Note_on_c, 0, 64, 56
1, 90808, Note_on_c, 0, 55, 42
1, 90808, Note_on_c, 0, 70, 44
1, 90810, Note_on_c, 0, 60, 54
1, 90837, Note_off_c, 0, 55, 57
1, 90859, Note_off_c, 0, 64, 52
1, 90868, Note_off_c, 0, 60, 49
1, 90941, Note_off_c, 0, 70, 47
1, 90994, Control_c, 0, 64, 108
1, 91009, Control_c, 0, 64, 85
1, 91017, Note_on_c, 0, 72, 56
1, 91021, Note_on_c, 0, 53, 55
1, 91024, Control_c, 0, 64, 0
1, 91083, Control_c, 0, 64, 55
1, 91098, Control_c, 0, 64, 73
1, 91108, Note_off_c, 0, 79, 56
1, 91112, Control_c, 0, 64, 87
1, 91127, Control_c, 0, 64, 110
1, 91142, Note_off_c, 0, 72, 65
1, 91142, Control_c, 0, 64, 127
1, 91195, Note_off_c, 0, 53, 60
1, 91369, Note_on_c, 0, 77, 71
1, 91379, Note_on_c, 0, 60, 58
1, 91379, Note_on_c, 0, 69, 58
1, 91382, Note_on_c, 0, 65, 51
1, 91414, Note_off_c, 0, 65, 63
1, 91416, Note_off_c, 0, 60, 62
1, 91524, Note_off_c, 0, 77, 61
1, 91540, Note_on_c, 0, 79, 62
1, 91579, Control_c, 0, 64, 107
1, 91594, Control_c, 0, 64, 86
1, 91595, Note_on_c, 0, 50, 65
1, 91603, Note_on_c, 0, 77, 74
1, 91609, Control_c, 0, 64, 61
1, 91624, Control_c, 0, 64, 0
1, 91627, Note_off_c, 0, 79, 61
1, 91653, Control_c, 0, 64, 64
1, 91669, Control_c, 0, 64, 79
1, 91684, Control_c, 0, 64, 98
1, 91691, Note_off_c, 0, 69, 64
1, 91699, Control_c, 0, 64, 127
1, 91701, Note_off_c, 0, 77, 60
1, 91775, Note_on_c, 0, 76, 74
1, 91782, Note_off_c, 0, 50, 45
1, 91787, Note_on_c, 0, 67, 64
1, 91845, Note_off_c, 0, 67, 61
1, 91942, Note_on_c, 0, 74, 73
1, 91945, Note_on_c, 0, 60, 53
1, 91952, Note_on_c, 0, 57, 56
1, 91959, Note_on_c, 0, 65, 61
1, 91967, Note_off_c, 0, 76, 56
1, 91978, Note_off_c, 0, 60, 65
1, 91981, Note_off_c, 0, 57, 64
1, 92039, Note_off_c, 0, 65, 62
1, 92113, Control_c, 0, 64, 109
1, 92128, Control_c, 0, 64, 85
1, 92143, Control_c, 0, 64, 48
1, 92152, Note_on_c, 0, 43, 51
1, 92158, Control_c, 0, 64, 0
1, 92168, Note_on_c, 0, 67, 64
1, 92239, Control_c, 0, 64, 65
1, 92249, Note_off_c, 0, 74, 56
1, 92254, Control_c, 0, 64, 81
1, 92269, Control_c, 0, 64, 109
1, 92269, Note_off_c, 0, 67, 64
1, 92277, Note_off_c, 0, 43, 59
1, 92283, Control_c, 0, 64, 127
1, 92542, Note_on_c, 0, 76, 73
1, 92548, Note_on_c, 0, 60, 51
1, 92553, Note_on_c, 0, 55, 52
1, 92555, Note_on_c, 0, 50, 44
1, 92561, Note_on_c, 0, 65, 48
1, 92584, Note_off_c, 0, 60, 64
1, 92595, Note_off_c, 0, 50, 64
1, 92596, Note_off_c, 0, 55, 63
1, 92658, Note_off_c, 0, 65, 48
1, 92728, Control_c, 0, 64, 122
1, 92743, Control_c, 0, 64, 93
1, 92758, Control_c, 0, 64, 68
1, 92773, Control_c, 0, 64, 0
1, 92775, Note_on_c, 0, 43, 53
1, 92778, Note_on_c, 0, 67, 52
1, 92820, Note_off_c, 0, 76, 60
1, 92832, Control_c, 0, 64, 65
1, 92847, Control_c, 0, 64, 83
1, 92862, Control_c, 0, 64, 105
1, 92877, Control_c, 0, 64, 127
1, 92880, Note_off_c, 0, 67, 63
1, 92883, Note_off_c, 0, 43, 60
1, 93168, Note_on_c, 0, 59, 54
1, 93172, Note_on_c, 0, 74, 64
1, 93184, Note_on_c, 0, 55, 53
1, 93187, Note_on_c, 0, 65, 48
1, 93210, Note_off_c, 0, 59, 63
1, 93214, Note_off_c, 0, 55, 66
1, 93364, Note_off_c, 0, 65, 48
1, 93404, Control_c, 0, 64, 117
1, 93419, Control_c, 0, 64, 93
1, 93433, Control_c, 0, 64, 73
1, 93437, Note_on_c, 0, 36, 45
1, 93442, Note_on_c, 0, 67, 44
1, 93448, Control_c, 0, 64, 0
1, 93507, Control_c, 0, 64, 73
1, 93522, Control_c, 0, 64, 91
1, 93537, Control_c, 0, 64, 120
1, 93551, Control_c, 0, 64, 127
1, 93559, Note_off_c, 0, 74, 56
1, 93572, Note_off_c, 0, 36, 49
1, 93586, Note_off_c, 0, 67, 62
1, 93859, Note_on_c, 0, 72, 59
1, 93881, Note_on_c, 0, 64, 48
1, 93881, Note_on_c, 0, 55, 43
1, 93884, Note_on_c, 0, 60, 43
1, 94011, Note_off_c, 0, 72, 63
1, 94040, Note_on_c, 0, 74, 52
1, 94099, Note_on_c, 0, 72, 65
1, 94105, Note_off_c, 0, 55, 57
1, 94106, Note_on_c, 0, 48, 63
1, 94128, Note_off_c, 0, 64, 60
1, 94134, Note_off_c, 0, 74, 54
1, 94275, Note_off_c, 0, 48, 37
1, 94281, Note_on_c, 0, 56, 59
1, 94283, Note_on_c, 0, 71, 63
1, 94284, Note_on_c, 0, 65, 61
1, 94304, Note_off_c, 0, 72, 51
1, 94355, Note_off_c, 0, 65, 64
1, 94485, Note_on_c, 0, 55, 53
1, 94485, Control_c, 0, 64, 121
1, 94490, Note_on_c, 0, 72, 66
1, 94494, Note_on_c, 0, 64, 55
1, 94496, Note_off_c, 0, 71, 57
1, 94500, Control_c, 0, 64, 105
1, 94506, Note_off_c, 0, 60, 35
1, 94509, Note_off_c, 0, 56, 54
1, 94514, Control_c, 0, 64, 88
1, 94529, Control_c, 0, 64, 69
1, 94544, Control_c, 0, 64, 0
1, 94662, Control_c, 0, 64, 64
1, 94677, Control_c, 0, 64, 70
1, 94692, Control_c, 0, 64, 77
1, 94695, Note_on_c, 0, 48, 48
1, 94707, Control_c, 0, 64, 84
1, 94719, Note_off_c, 0, 64, 58
1, 94722, Control_c, 0, 64, 91
1, 94726, Note_off_c, 0, 55, 38
1, 94731, Note_off_c, 0, 72, 56
1, 94737, Control_c, 0, 64, 97
1, 94752, Control_c, 0, 64, 102
1, 94767, Control_c, 0, 64, 109
1, 94781, Control_c, 0, 64, 118
1, 94796, Control_c, 0, 64, 127
1, 94913, Note_off_c, 0, 48, 31
1, 95077, Note_on_c, 0, 72, 66
1, 95093, Note_on_c, 0, 60, 56
1, 95094, Note_on_c, 0, 64, 55
1, 95102, Note_on_c, 0, 55, 50
1, 95237, Note_off_c, 0, 72, 63
1, 95251, Note_on_c, 0, 74, 58
1, 95303, Note_on_c, 0, 48, 66
1, 95308, Note_on_c, 0, 72, 69
1, 95308, Control_c, 0, 64, 105
1, 95313, Note_off_c, 0, 55, 62
1, 95323, Control_c, 0, 64, 83
1, 95328, Note_off_c, 0, 64, 61
1, 95337, Control_c, 0, 64, 27
1, 95352, Control_c, 0, 64, 0
1, 95358, Note_off_c, 0, 74, 58
1, 95382, Control_c, 0, 64, 47
1, 95397, Control_c, 0, 64, 71
1, 95411, Control_c, 0, 64, 84
1, 95426, Control_c, 0, 64, 101
1, 95441, Control_c, 0, 64, 109
1, 95455, Control_c, 0, 64, 110
1, 95511, Note_on_c, 0, 65, 64
1, 95521, Note_on_c, 0, 71, 66
1, 95521, Note_on_c, 0, 56, 56
1, 95527, Note_off_c, 0, 48, 38
1, 95565, Note_off_c, 0, 72, 53
1, 95589, Control_c, 0, 64, 109
1, 95634, Control_c, 0, 64, 109
1, 95649, Control_c, 0, 64, 108
1, 95661, Note_off_c, 0, 65, 64
1, 95664, Control_c, 0, 64, 107
1, 95679, Control_c, 0, 64, 107
1, 95694, Control_c, 0, 64, 106
1, 95709, Control_c, 0, 64, 105
1, 95723, Control_c, 0, 64, 103
1, 95738, Control_c, 0, 64, 101
1, 95753, Control_c, 0, 64, 98
1, 95768, Control_c, 0, 64, 94
1, 95783, Control_c, 0, 64, 88
1, 95790, Note_on_c, 0, 55, 54
1, 95798, Control_c, 0, 64, 81
1, 95801, Note_on_c, 0, 64, 54
1, 95801, Note_on_c, 0, 72, 59
1, 95813, Control_c, 0, 64, 70
1, 95827, Note_off_c, 0, 56, 40
1, 95827, Control_c, 0, 64, 40
1, 95839, Note_off_c, 0, 60, 38
1, 95842, Note_off_c, 0, 71, 57
1, 95842, Control_c, 0, 64, 0
1, 96048, Note_on_c, 0, 48, 44
1, 96057, Control_c, 0, 64, 63
1, 96072, Control_c, 0, 64, 66
1, 96086, Control_c, 0, 64, 70
1, 96101, Control_c, 0, 64, 75
1, 96116, Control_c, 0, 64, 82
1, 96117, Note_off_c, 0, 72, 51
1, 96131, Control_c, 0, 64, 89
1, 96140, Note_off_c, 0, 55, 40
1, 96146, Control_c, 0, 64, 95
1, 96156, Note_off_c, 0, 64, 57
1, 96160, Control_c, 0, 64, 101
1, 96175, Control_c, 0, 64, 108
1, 96190, Control_c, 0, 64, 115
1, 96205, Control_c, 0, 64, 119
1, 96220, Control_c, 0, 64, 121
1, 96234, Control_c, 0, 64, 122
1, 96249, Control_c, 0, 64, 123
1, 96264, Control_c, 0, 64, 123
1, 96388, Note_off_c, 0, 48, 37
1, 96419, Note_on_c, 0, 64, 70
1, 96429, Note_on_c, 0, 72, 50
1, 96432, Note_on_c, 0, 55, 44
1, 96433, Note_on_c, 0, 60, 43
1, 96531, Control_c, 0, 64, 123
1, 96561, Control_c, 0, 64, 122
1, 96576, Control_c, 0, 64, 121
1, 96591, Control_c, 0, 64, 120
1, 96605, Control_c, 0, 64, 118
1, 96620, Control_c, 0, 64, 116
1, 96635, Control_c, 0, 64, 114
1, 96649, Control_c, 0, 64, 112
1, 96664, Control_c, 0, 64, 106
1, 96679, Control_c, 0, 64, 96
1, 96694, Control_c, 0, 64, 83
1, 96695, Note_on_c, 0, 65, 75
1, 96708, Control_c, 0, 64, 67
1, 96709, Note_on_c, 0, 48, 57
1, 96731, Control_c, 0, 64, 0
1, 96761, Note_off_c, 0, 64, 63
1, 96762, Note_off_c, 0, 55, 33
1, 96790, Control_c, 0, 64, 64
1, 96800, Note_off_c, 0, 60, 36
1, 96805, Control_c, 0, 64, 74
1, 96820, Control_c, 0, 64, 85
1, 96835, Control_c, 0, 64, 96
1, 96841, Note_off_c, 0, 72, 55
1, 96850, Control_c, 0, 64, 104
1, 96864, Control_c, 0, 64, 110
1, 96879, Control_c, 0, 64, 115
1, 96894, Control_c, 0, 64, 119
1, 96908, Control_c, 0, 64, 126
1, 96917, Note_off_c, 0, 65, 65
1, 96923, Control_c, 0, 64, 127
1, 97058, Note_off_c, 0, 48, 31
1, 97090, Note_on_c, 0, 62, 81
1, 97104, Note_on_c, 0, 60, 52
1, 97111, Note_on_c, 0, 56, 49
1, 97111, Note_on_c, 0, 72, 50
1, 97279, Control_c, 0, 64, 121
1, 97294, Control_c, 0, 64, 113
1, 97309, Control_c, 0, 64, 99
1, 97324, Control_c, 0, 64, 82
1, 97333, Note_on_c, 0, 68, 84
1, 97339, Control_c, 0, 64, 52
1, 97345, Note_on_c, 0, 48, 60
1, 97354, Control_c, 0, 64, 0
1, 97402, Note_off_c, 0, 60, 43
1, 97414, Control_c, 0, 64, 68
1, 97424, Note_off_c, 0, 56, 35
1, 97429, Control_c, 0, 64, 82
1, 97443, Control_c, 0, 64, 97
1, 97447, Note_off_c, 0, 62, 53
1, 97456, Note_off_c, 0, 72, 51
1, 97458, Control_c, 0, 64, 109
1, 97480, Control_c, 0, 64, 117
1, 97492, Note_off_c, 0, 48, 63
1, 97495, Control_c, 0, 64, 123
1, 97510, Control_c, 0, 64, 127
1, 97554, Note_off_c, 0, 68, 66
1, 97759, Note_on_c, 0, 65, 86
1, 97769, Note_on_c, 0, 72, 74
1, 97774, Note_on_c, 0, 56, 57
1, 97778, Note_on_c, 0, 62, 48
1, 97779, Note_on_c, 0, 60, 46
1, 97817, Note_off_c, 0, 60, 52
1, 97824, Note_off_c, 0, 62, 56
1, 97832, Note_off_c, 0, 56, 61
1, 97998, Control_c, 0, 64, 123
1, 98013, Control_c, 0, 64, 118
1, 98028, Control_c, 0, 64, 113
1, 98043, Control_c, 0, 64, 106
1, 98056, Note_on_c, 0, 67, 81
1, 98059, Control_c, 0, 64, 93
1, 98074, Control_c, 0, 64, 77
1, 98075, Note_on_c, 0, 48, 68
1, 98089, Control_c, 0, 64, 23
1, 98103, Control_c, 0, 64, 0
1, 98129, Note_off_c, 0, 65, 62
1, 98207, Control_c, 0, 64, 49
1, 98229, Control_c, 0, 64, 72
1, 98244, Control_c, 0, 64, 81
1, 98248, Note_off_c, 0, 72, 63
1, 98259, Control_c, 0, 64, 94
1, 98273, Control_c, 0, 64, 103
1, 98288, Control_c, 0, 64, 110
1, 98303, Control_c, 0, 64, 117
1, 98318, Control_c, 0, 64, 127
1, 98344, Note_off_c, 0, 67, 61
1, 98356, Note_off_c, 0, 48, 56
1, 98549, Note_on_c, 0, 64, 78
1, 98550, Note_on_c, 0, 58, 63
1, 98553, Note_on_c, 0, 72, 69
1, 98557, Note_on_c, 0, 60, 53
1, 98589, Note_off_c, 0, 58, 64
1, 98594, Note_off_c, 0, 60, 61
1, 98926, Control_c, 0, 64, 121
1, 98941, Control_c, 0, 64, 111
1, 98943, Note_on_c, 0, 41, 57
1, 98956, Note_on_c, 0, 68, 81
1, 98956, Control_c, 0, 64, 95
1, 98978, Control_c, 0, 64, 76
1, 98993, Control_c, 0, 64, 0
1, 99067, Control_c, 0, 64, 16
1, 99082, Control_c, 0, 64, 67
1, 99086, Note_off_c, 0, 64, 62
1, 99096, Control_c, 0, 64, 78
1, 99111, Control_c, 0, 64, 93
1, 99126, Control_c, 0, 64, 107
1, 99141, Control_c, 0, 64, 115
1, 99153, Note_off_c, 0, 72, 64
1, 99156, Control_c, 0, 64, 120
1, 99170, Control_c, 0, 64, 127
1, 99186, Note_off_c, 0, 41, 66
1, 99447, Note_on_c, 0, 72, 85
1, 99449, Note_on_c, 0, 48, 57
1, 99449, Note_on_c, 0, 60, 41
1, 99454, Note_on_c, 0, 56, 53
1, 99458, Note_on_c, 0, 65, 67
1, 99473, Note_off_c, 0, 60, 58
1, 99482, Note_off_c, 0, 56, 65
1, 99488, Note_off_c, 0, 48, 64
1, 99581, Note_off_c, 0, 68, 33
1, 99646, Control_c, 0, 64, 106
1, 99661, Control_c, 0, 64, 84
1, 99669, Note_on_c, 0, 41, 60
1, 99675, Control_c, 0, 64, 63
1, 99690, Control_c, 0, 64, 0
1, 99705, Control_c, 0, 64, 26
1, 99712, Note_off_c, 0, 65, 64
1, 99727, Control_c, 0, 64, 65
1, 99742, Control_c, 0, 64, 78
1, 99756, Note_off_c, 0, 72, 64
1, 99757, Control_c, 0, 64, 94
1, 99771, Control_c, 0, 64, 111
1, 99783, Note_off_c, 0, 41, 65
1, 99786, Control_c, 0, 64, 127
1, 100016, Note_on_c, 0, 77, 85
1, 100022, Note_on_c, 0, 53, 61
1, 100025, Note_on_c, 0, 65, 51
1, 100027, Note_on_c, 0, 60, 56
1, 100041, Note_on_c, 0, 68, 61
1, 100048, Note_off_c, 0, 60, 64
1, 100048, Note_off_c, 0, 65, 61
1, 100057, Note_off_c, 0, 53, 65
1, 100225, Note_off_c, 0, 77, 62
1, 100229, Note_on_c, 0, 79, 70
1, 100260, Control_c, 0, 64, 121
1, 100275, Control_c, 0, 64, 104
1, 100290, Control_c, 0, 64, 85
1, 100297, Note_on_c, 0, 41, 62
1, 100299, Note_on_c, 0, 77, 86
1, 100305, Control_c, 0, 64, 42
1, 100319, Control_c, 0, 64, 0
1, 100364, Note_off_c, 0, 68, 51
1, 100364, Control_c, 0, 64, 57
1, 100379, Control_c, 0, 64, 73
1, 100393, Control_c, 0, 64, 89
1, 100408, Control_c, 0, 64, 105
1, 100415, Note_off_c, 0, 41, 66
1, 100423, Control_c, 0, 64, 117
1, 100438, Control_c, 0, 64, 123
1, 100454, Control_c, 0, 64, 127
1, 100476, Control_c, 0, 64, 127
1, 100542, Note_on_c, 0, 75, 83
1, 100557, Note_off_c, 0, 79, 36
1, 100579, Note_off_c, 0, 77, 61
1, 100656, Note_off_c, 0, 75, 65
1, 100706, Note_on_c, 0, 65, 62
1, 100713, Note_on_c, 0, 53, 63
1, 100713, Note_on_c, 0, 61, 66
1, 100714, Note_on_c, 0, 73, 82
1, 100727, Note_off_c, 0, 65, 67
1, 100735, Note_on_c, 0, 70, 69
1, 100737, Note_off_c, 0, 61, 66
1, 100749, Note_off_c, 0, 53, 66
1, 100767, Note_off_c, 0, 73, 64
1, 100796, Note_off_c, 0, 70, 62
1, 100889, Note_on_c, 0, 72, 79
1, 100894, Note_on_c, 0, 41, 71
1, 100898, Note_on_c, 0, 68, 71
1, 100905, Control_c, 0, 64, 94
1, 100920, Control_c, 0, 64, 68
1, 100935, Control_c, 0, 64, 0
1, 100955, Note_off_c, 0, 72, 63
1, 100963, Note_off_c, 0, 41, 62
1, 100963, Note_off_c, 0, 68, 61
1, 100964, Control_c, 0, 64, 62
1, 100979, Control_c, 0, 64, 75
1, 100994, Control_c, 0, 64, 89
1, 101009, Control_c, 0, 64, 108
1, 101023, Control_c, 0, 64, 127
1, 101056, Note_on_c, 0, 68, 84
1, 101063, Note_on_c, 0, 65, 66
1, 101140, Note_off_c, 0, 68, 59
1, 101146, Note_off_c, 0, 65, 55
1, 101227, Note_on_c, 0, 53, 70
1, 101227, Note_on_c, 0, 67, 75
1, 101228, Note_on_c, 0, 70, 85
1, 101234, Note_on_c, 0, 60, 56
1, 101253, Note_off_c, 0, 53, 69
1, 101255, Note_off_c, 0, 60, 60
1, 101301, Note_off_c, 0, 67, 60
1, 101336, Note_off_c, 0, 70, 63
1, 101417, Control_c, 0, 64, 113
1, 101427, Note_on_c, 0, 72, 84
1, 101432, Control_c, 0, 64, 86
1, 101436, Note_on_c, 0, 68, 72
1, 101444, Note_on_c, 0, 65, 68
1, 101447, Control_c, 0, 64, 23
1, 101449, Note_on_c, 0, 41, 58
1, 101450, Note_on_c, 0, 53, 57
1, 101462, Control_c, 0, 64, 0
1, 101536, Control_c, 0, 64, 68
1, 101537, Note_off_c, 0, 65, 65
1, 101551, Control_c, 0, 64, 91
1, 101552, Note_off_c, 0, 53, 65
1, 101554, Note_off_c, 0, 68, 65
1, 101555, Note_off_c, 0, 72, 64
1, 101566, Control_c, 0, 64, 127
1, 101575, Note_off_c, 0, 41, 65
1, 101728, Control_c, 0, 64, 105
1, 101743, Control_c, 0, 64, 63
1, 101758, Control_c, 0, 64, 0
1, 101799, Note_on_c, 0, 72, 78
1, 101812, Note_on_c, 0, 40, 61
1, 101812, Note_on_c, 0, 64, 65
1, 101818, Note_on_c, 0, 68, 58
1, 101831, Note_on_c, 0, 52, 46
1, 101876, Control_c, 0, 64, 49
1, 101891, Control_c, 0, 64, 65
1, 101900, Note_off_c, 0, 52, 59
1, 101906, Control_c, 0, 64, 72
1, 101921, Note_off_c, 0, 40, 63
1, 101921, Control_c, 0, 64, 81
1, 101936, Control_c, 0, 64, 91
1, 101951, Control_c, 0, 64, 98
1, 101972, Control_c, 0, 64, 106
1, 101987, Control_c, 0, 64, 113
1, 102002, Control_c, 0, 64, 120
1, 102016, Control_c, 0, 64, 126
1, 102031, Control_c, 0, 64, 127
1, 102108, Note_on_c, 0, 39, 60
1, 102121, Control_c, 0, 64, 116
1, 102136, Control_c, 0, 64, 94
1, 102151, Control_c, 0, 64, 69
1, 102166, Control_c, 0, 64, 0
1, 102225, Control_c, 0, 64, 69
1, 102240, Control_c, 0, 64, 84
1, 102246, Note_off_c, 0, 64, 64
1, 102255, Note_off_c, 0, 72, 63
1, 102255, Control_c, 0, 64, 109
1, 102264, Note_off_c, 0, 68, 63
1, 102269, Control_c, 0, 64, 127
1, 102278, Note_off_c, 0, 39, 62
1, 102487, Note_on_c, 0, 72, 80
1, 102507, Note_on_c, 0, 68, 59
1, 102508, Note_on_c, 0, 60, 45
1, 102511, Note_on_c, 0, 51, 58
1, 102511, Note_on_c, 0, 63, 55
1, 102532, Note_off_c, 0, 60, 55
1, 102555, Note_off_c, 0, 51, 63
1, 102699, Control_c, 0, 64, 91
1, 102709, Note_on_c, 0, 39, 69
1, 102721, Control_c, 0, 64, 64
1, 102736, Control_c, 0, 64, 0
1, 102747, Note_off_c, 0, 72, 64
1, 102766, Control_c, 0, 64, 60
1, 102781, Control_c, 0, 64, 74
1, 102791, Note_off_c, 0, 39, 62
1, 102791, Note_off_c, 0, 68, 59
1, 102795, Control_c, 0, 64, 92
1, 102809, Note_off_c, 0, 63, 57
1, 102810, Control_c, 0, 64, 115
1, 102825, Control_c, 0, 64, 127
1, 102968, Note_on_c, 0, 72, 76
1, 103051, Note_on_c, 0, 73, 82
1, 103061, Note_on_c, 0, 63, 58
1, 103065, Note_on_c, 0, 51, 63
1, 103065, Note_on_c, 0, 60, 56
1, 103086, Note_off_c, 0, 60, 60
1, 103096, Note_on_c, 0, 68, 52
1, 103107, Note_off_c, 0, 51, 64
1, 103126, Note_off_c, 0, 72, 62
1, 103270, Control_c, 0, 64, 103
1, 103285, Control_c, 0, 64, 78
1, 103297, Note_off_c, 0, 63, 61
1, 103300, Control_c, 0, 64, 0
1, 103321, Note_on_c, 0, 75, 74
1, 103326, Note_on_c, 0, 39, 52
1, 103348, Note_off_c, 0, 68, 63
1, 103349, Note_off_c, 0, 73, 62
1, 103374, Control_c, 0, 64, 68
1, 103389, Control_c, 0, 64, 83
1, 103393, Note_off_c, 0, 39, 61
1, 103402, Note_off_c, 0, 75, 63
1, 103404, Control_c, 0, 64, 107
1, 103418, Control_c, 0, 64, 127
1, 103604, Control_c, 0, 64, 126
1, 103618, Control_c, 0, 64, 96
1, 103619, Note_on_c, 0, 60, 60
1, 103620, Note_on_c, 0, 63, 70
1, 103620, Note_on_c, 0, 68, 72
1, 103633, Control_c, 0, 64, 69
1, 103638, Note_on_c, 0, 51, 50
1, 103638, Note_off_c, 0, 60, 63
1, 103649, Control_c, 0, 64, 0
1, 103651, Note_off_c, 0, 63, 65
1, 103665, Note_off_c, 0, 51, 55
1, 103701, Note_off_c, 0, 68, 40
1, 103727, Note_on_c, 0, 51, 55
1, 103728, Note_on_c, 0, 70, 67
1, 103733, Note_on_c, 0, 61, 70
1, 103739, Note_on_c, 0, 67, 57
1, 103752, Note_on_c, 0, 58, 55
1, 103782, Control_c, 0, 64, 67
1, 103797, Control_c, 0, 64, 77
1, 103812, Control_c, 0, 64, 88
1, 103827, Control_c, 0, 64, 97
1, 103841, Control_c, 0, 64, 105
1, 103843, Note_off_c, 0, 58, 55
1, 103849, Note_off_c, 0, 61, 46
1, 103856, Control_c, 0, 64, 111
1, 103871, Control_c, 0, 64, 116
1, 103885, Control_c, 0, 64, 122
1, 103900, Control_c, 0, 64, 127
1, 103921, Note_off_c, 0, 70, 59
1, 104000, Note_off_c, 0, 67, 50
1, 104022, Note_on_c, 0, 72, 72
1, 104028, Note_off_c, 0, 51, 39
1, 104034, Note_on_c, 0, 60, 53
1, 104035, Note_on_c, 0, 44, 53
1, 104038, Note_on_c, 0, 56, 49
1, 104040, Note_on_c, 0, 68, 57
1, 104064, Control_c, 0, 64, 120
1, 104079, Control_c, 0, 64, 105
1, 104094, Control_c, 0, 64, 87
1, 104109, Control_c, 0, 64, 64
1, 104124, Control_c, 0, 64, 0
1, 104198, Control_c, 0, 64, 72
1, 104201, Note_off_c, 0, 60, 62
1, 104219, Control_c, 0, 64, 91
1, 104225, Note_off_c, 0, 72, 64
1, 104234, Note_off_c, 0, 68, 63
1, 104234, Control_c, 0, 64, 127
1, 104308, Note_off_c, 0, 56, 53
1, 104318, Note_off_c, 0, 44, 57
1, 104338, Control_c, 0, 67, 127
1, 104353, Control_c, 0, 67, 119
1, 104368, Control_c, 0, 67, 111
1, 104383, Control_c, 0, 67, 104
1, 104398, Control_c, 0, 67, 97
1, 104413, Control_c, 0, 67, 94
1, 104427, Control_c, 0, 67, 91
1, 104443, Control_c, 0, 67, 88
1, 104446, Note_on_c, 0, 72, 82
1, 104458, Control_c, 0, 67, 85
1, 104461, Note_on_c, 0, 55, 60
1, 104463, Note_on_c, 0, 64, 62
1, 104464, Note_on_c, 0, 43, 60
1, 104467, Note_on_c, 0, 70, 61
1, 104472, Control_c, 0, 67, 83
1, 104487, Control_c, 0, 67, 80
1, 104502, Control_c, 0, 67, 79
1, 104517, Control_c, 0, 67, 79
1, 104532, Control_c, 0, 67, 78
1, 104537, Note_off_c, 0, 43, 58
1, 104547, Control_c, 0, 67, 77
1, 104562, Control_c, 0, 67, 75
1, 104574, Note_off_c, 0, 55, 34
1, 104577, Control_c, 0, 67, 74
1, 104591, Control_c, 0, 67, 72
1, 104606, Control_c, 0, 67, 70
1, 104621, Control_c, 0, 67, 66
1, 104636, Control_c, 0, 67, 63
1, 104651, Control_c, 0, 67, 60
1, 104665, Control_c, 0, 67, 57
1, 104680, Control_c, 0, 64, 117
1, 104680, Control_c, 0, 67, 55
1, 104695, Control_c, 0, 64, 95
1, 104695, Control_c, 0, 67, 53
1, 104709, Control_c, 0, 64, 71
1, 104709, Control_c, 0, 67, 51
1, 104716, Note_on_c, 0, 41, 71
1, 104724, Control_c, 0, 64, 0
1, 104724, Control_c, 0, 67, 51
1, 104739, Control_c, 0, 67, 50
1, 104754, Control_c, 0, 67, 48
1, 104769, Control_c, 0, 64, 58
1, 104769, Control_c, 0, 67, 48
1, 104783, Control_c, 0, 64, 77
1, 104783, Control_c, 0, 67, 47
1, 104798, Control_c, 0, 64, 100
1, 104813, Control_c, 0, 64, 127
1, 104816, Note_off_c, 0, 64, 64
1, 104829, Note_off_c, 0, 41, 66
1, 104851, Note_off_c, 0, 70, 61
1, 104854, Note_off_c, 0, 72, 64
1, 105082, Note_on_c, 0, 72, 82
1, 105085, Note_on_c, 0, 60, 61
1, 105086, Note_on_c, 0, 48, 68
1, 105088, Note_on_c, 0, 56, 65
1, 105098, Note_on_c, 0, 65, 74
1, 105099, Note_on_c, 0, 68, 63
1, 105106, Note_off_c, 0, 60, 65
1, 105110, Note_off_c, 0, 56, 67
1, 105116, Control_c, 0, 67, 48
1, 105123, Note_off_c, 0, 48, 65
1, 105161, Control_c, 0, 67, 49
1, 105180, Note_off_c, 0, 68, 62
1, 105190, Control_c, 0, 67, 49
1, 105205, Control_c, 0, 67, 50
1, 105235, Control_c, 0, 67, 50
1, 105280, Control_c, 0, 64, 114
1, 105280, Control_c, 0, 67, 51
1, 105295, Control_c, 0, 64, 91
1, 105295, Note_on_c, 0, 41, 73
1, 105310, Control_c, 0, 64, 70
1, 105325, Control_c, 0, 64, 0
1, 105369, Control_c, 0, 64, 72
1, 105384, Control_c, 0, 64, 92
1, 105390, Note_off_c, 0, 65, 65
1, 105399, Control_c, 0, 64, 127
1, 105403, Note_off_c, 0, 41, 66
1, 105428, Control_c, 0, 67, 50
1, 105443, Control_c, 0, 67, 49
1, 105458, Control_c, 0, 67, 49
1, 105472, Control_c, 0, 67, 48
1, 105487, Control_c, 0, 67, 48
1, 105534, Note_off_c, 0, 72, 54
1, 105606, Control_c, 0, 67, 47
1, 105630, Note_on_c, 0, 77, 88
1, 105641, Note_on_c, 0, 65, 69
1, 105649, Note_on_c, 0, 53, 68
1, 105649, Note_on_c, 0, 60, 67
1, 105659, Note_on_c, 0, 68, 65
1, 105665, Control_c, 0, 67, 48
1, 105665, Note_off_c, 0, 65, 69
1, 105673, Note_off_c, 0, 60, 67
1, 105689, Note_off_c, 0, 53, 66
1, 105746, Control_c, 0, 67, 48
1, 105806, Control_c, 0, 67, 49
1, 105837, Note_off_c, 0, 77, 63
1, 105850, Note_on_c, 0, 79, 69
1, 105909, Control_c, 0, 64, 102
1, 105915, Note_on_c, 0, 77, 91
1, 105924, Control_c, 0, 64, 80
1, 105924, Control_c, 0, 67, 48
1, 105933, Note_on_c, 0, 41, 67
1, 105936, Note_off_c, 0, 68, 62
1, 105939, Control_c, 0, 64, 0
1, 105939, Control_c, 0, 67, 48
1, 105954, Control_c, 0, 67, 47
1, 105999, Control_c, 0, 64, 71
1, 106013, Control_c, 0, 64, 89
1, 106028, Control_c, 0, 64, 121
1, 106043, Note_off_c, 0, 41, 66
1, 106043, Control_c, 0, 64, 127
1, 106073, Control_c, 0, 67, 47
1, 106088, Control_c, 0, 67, 46
1, 106093, Note_off_c, 0, 79, 31
1, 106148, Note_on_c, 0, 75, 83
1, 106191, Note_off_c, 0, 77, 58
1, 106281, Control_c, 0, 67, 47
1, 106288, Note_off_c, 0, 75, 52
1, 106295, Control_c, 0, 67, 47
1, 106305, Note_on_c, 0, 73, 82
1, 106312, Note_on_c, 0, 61, 72
1, 106312, Note_on_c, 0, 53, 69
1, 106315, Note_on_c, 0, 70, 70
1, 106316, Note_on_c, 0, 65, 62
1, 106350, Note_off_c, 0, 65, 62
1, 106353, Note_off_c, 0, 73, 65
1, 106360, Note_off_c, 0, 70, 62
1, 106371, Note_off_c, 0, 53, 62
1, 106379, Note_off_c, 0, 61, 60
1, 106384, Control_c, 0, 67, 48
1, 106414, Control_c, 0, 67, 48
1, 106481, Note_on_c, 0, 68, 76
1, 106481, Control_c, 0, 64, 117
1, 106484, Note_on_c, 0, 60, 73
1, 106484, Note_on_c, 0, 72, 79
1, 106487, Note_on_c, 0, 53, 76
1, 106495, Control_c, 0, 64, 91
1, 106510, Control_c, 0, 64, 73
1, 106525, Control_c, 0, 64, 68
1, 106540, Control_c, 0, 64, 75
1, 106542, Note_off_c, 0, 53, 64
1, 106548, Note_off_c, 0, 60, 60
1, 106555, Control_c, 0, 64, 86
1, 106569, Control_c, 0, 64, 101
1, 106574, Note_off_c, 0, 72, 58
1, 106574, Note_off_c, 0, 68, 46
1, 106584, Control_c, 0, 64, 122
1, 106599, Control_c, 0, 64, 127
1, 106651, Note_on_c, 0, 51, 86
1, 106658, Control_c, 0, 64, 117
1, 106660, Note_on_c, 0, 72, 82
1, 106670, Note_on_c, 0, 67, 76
1, 106673, Control_c, 0, 64, 92
1, 106673, Control_c, 0, 67, 48
1, 106687, Control_c, 0, 64, 70
1, 106702, Control_c, 0, 64, 0
1, 106717, Control_c, 0, 64, 46
1, 106732, Control_c, 0, 64, 69
1, 106747, Note_off_c, 0, 72, 60
1, 106747, Control_c, 0, 64, 85
1, 106761, Note_off_c, 0, 67, 57
1, 106762, Control_c, 0, 64, 109
1, 106777, Control_c, 0, 64, 127
1, 106796, Note_off_c, 0, 51, 52
1, 106806, Control_c, 0, 67, 47
1, 106821, Control_c, 0, 64, 120
1, 106821, Control_c, 0, 67, 46
1, 106830, Note_on_c, 0, 74, 80
1, 106834, Note_on_c, 0, 53, 78
1, 106837, Control_c, 0, 64, 90
1, 106837, Control_c, 0, 67, 45
1, 106839, Note_on_c, 0, 68, 75
1, 106847, Note_on_c, 0, 65, 75
1, 106852, Control_c, 0, 64, 64
1, 106852, Control_c, 0, 67, 44
1, 106866, Control_c, 0, 64, 0
1, 106866, Control_c, 0, 67, 42
1, 106881, Control_c, 0, 64, 25
1, 106881, Control_c, 0, 67, 40
1, 106896, Control_c, 0, 64, 69
1, 106896, Control_c, 0, 67, 38
1, 106902, Note_off_c, 0, 74, 62
1, 106903, Note_off_c, 0, 65, 65
1, 106911, Control_c, 0, 64, 91
1, 106911, Control_c, 0, 67, 37
1, 106914, Note_off_c, 0, 68, 63
1, 106926, Control_c, 0, 64, 127
1, 106926, Control_c, 0, 67, 34
1, 106941, Control_c, 0, 67, 31
1, 106955, Control_c, 0, 67, 26
1, 106970, Control_c, 0, 67, 20
1, 106985, Control_c, 0, 67, 13
1, 106991, Note_off_c, 0, 53, 60
1, 107000, Control_c, 0, 67, 0
1, 107018, Note_on_c, 0, 55, 81
1, 107024, Note_on_c, 0, 67, 77
1, 107034, Note_on_c, 0, 63, 74
1, 107059, Control_c, 0, 64, 102
1, 107074, Control_c, 0, 64, 74
1, 107088, Control_c, 0, 64, 0
1, 107116, Note_off_c, 0, 67, 61
1, 107132, Control_c, 0, 64, 66
1, 107140, Note_off_c, 0, 63, 64
1, 107147, Control_c, 0, 64, 82
1, 107162, Note_off_c, 0, 55, 63
1, 107162, Control_c, 0, 64, 109
1, 107177, Control_c, 0, 64, 127
1, 107195, Note_on_c, 0, 56, 82
1, 107265, Note_off_c, 0, 56, 64
1, 107370, Note_on_c, 0, 55, 83
1, 107385, Note_on_c, 0, 67, 69
1, 107388, Note_on_c, 0, 63, 63
1, 107388, Note_on_c, 0, 60, 63
1, 107421, Control_c, 0, 64, 104
1, 107435, Control_c, 0, 64, 82
1, 107450, Control_c, 0, 64, 52
1, 107465, Control_c, 0, 64, 0
1, 107571, Note_on_c, 0, 51, 73
1, 107620, Note_off_c, 0, 55, 57
1, 107704, Control_c, 0, 67, 8
1, 107719, Control_c, 0, 67, 10
1, 107733, Control_c, 0, 67, 10
1, 107748, Note_on_c, 0, 50, 74
1, 107748, Control_c, 0, 67, 11
1, 107759, Note_off_c, 0, 67, 36
1, 107763, Control_c, 0, 67, 11
1, 107778, Note_off_c, 0, 51, 62
1, 107781, Note_off_c, 0, 63, 41
1, 107793, Control_c, 0, 67, 12
1, 107807, Control_c, 0, 67, 13
1, 107819, Note_off_c, 0, 60, 53
1, 107822, Control_c, 0, 67, 14
1, 107837, Control_c, 0, 67, 15
1, 107881, Control_c, 0, 67, 15
1, 107962, Note_off_c, 0, 50, 62
1, 107963, Note_on_c, 0, 48, 69
1, 107974, Note_on_c, 0, 60, 49
1, 107974, Note_on_c, 0, 63, 57
1, 107982, Note_on_c, 0, 67, 54
1, 108008, Control_c, 0, 67, 14
1, 108155, Control_c, 0, 67, 14
1, 108205, Note_off_c, 0, 63, 56
1, 108228, Note_on_c, 0, 43, 60
1, 108244, Note_on_c, 0, 62, 51
1, 108261, Note_off_c, 0, 48, 56
1, 108295, Note_off_c, 0, 60, 55
1, 108318, Control_c, 0, 67, 14
1, 108422, Control_c, 0, 64, 56
1, 108437, Control_c, 0, 64, 68
1, 108452, Control_c, 0, 64, 73
1, 108452, Control_c, 0, 67, 15
1, 108467, Control_c, 0, 64, 80
1, 108482, Control_c, 0, 64, 87
1, 108497, Control_c, 0, 64, 92
1, 108511, Control_c, 0, 64, 97
1, 108511, Control_c, 0, 67, 14
1, 108526, Control_c, 0, 64, 102
1, 108526, Control_c, 0, 67, 14
1, 108541, Note_off_c, 0, 67, 31
1, 108541, Control_c, 0, 64, 106
1, 108556, Control_c, 0, 64, 111
1, 108565, Note_off_c, 0, 62, 50
1, 108571, Control_c, 0, 64, 116
1, 108586, Control_c, 0, 64, 121
1, 108601, Control_c, 0, 64, 127
1, 108616, Control_c, 0, 67, 13
1, 108630, Control_c, 0, 67, 13
1, 108660, Control_c, 0, 67, 12
1, 108690, Note_off_c, 0, 43, 34
1, 108746, Note_on_c, 0, 67, 50
1, 108750, Note_on_c, 0, 62, 44
1, 108763, Note_on_c, 0, 59, 47
1, 108771, Control_c, 0, 67, 12
1, 108849, Note_off_c, 0, 59, 53
1, 108904, Control_c, 0, 67, 11
1, 108978, Control_c, 0, 67, 11
1, 108993, Control_c, 0, 67, 10
1, 109021, Note_off_c, 0, 62, 48
1, 109037, Control_c, 0, 67, 10
1, 109052, Control_c, 0, 64, 121
1, 109052, Control_c, 0, 67, 9
1, 109067, Control_c, 0, 64, 105
1, 109075, Note_on_c, 0, 64, 47
1, 109081, Control_c, 0, 64, 87
1, 109081, Control_c, 0, 67, 9
1, 109089, Note_on_c, 0, 60, 41
1, 109095, Note_on_c, 0, 36, 39
1, 109096, Control_c, 0, 64, 66
1, 109096, Control_c, 0, 67, 8
1, 109102, Note_off_c, 0, 67, 54
1, 109111, Control_c, 0, 64, 0
1, 109126, Control_c, 0, 67, 8
1, 109141, Control_c, 0, 67, 0
1, 109155, Control_c, 0, 64, 62
1, 109170, Control_c, 0, 64, 77
1, 109173, Note_off_c, 0, 60, 0
1, 109173, Note_on_c, 0, 60, 2
1, 109185, Control_c, 0, 64, 97
1, 109200, Control_c, 0, 64, 127
1, 109206, Note_off_c, 0, 60, 47
1, 109224, Note_off_c, 0, 36, 51
1, 109226, Note_off_c, 0, 64, 63
1, 109602, Note_on_c, 0, 79, 64
1, 109623, Note_on_c, 0, 67, 40
1, 109626, Note_on_c, 0, 58, 39
1, 109635, Note_on_c, 0, 60, 31
1, 109635, Note_on_c, 0, 72, 44
1, 109642, Note_on_c, 0, 70, 39
1, 109685, Note_off_c, 0, 58, 52
1, 109689, Note_off_c, 0, 60, 49
1, 109690, Note_off_c, 0, 67, 62
1, 109868, Note_off_c, 0, 70, 58
1, 109880, Note_off_c, 0, 72, 61
1, 109882, Note_off_c, 0, 79, 61
1, 109908, Note_on_c, 0, 48, 54
1, 109985, Note_off_c, 0, 48, 64
1, 110298, Note_on_c, 0, 77, 64
1, 110300, Note_on_c, 0, 65, 48
1, 110312, Note_on_c, 0, 72, 45
1, 110315, Note_on_c, 0, 60, 40
1, 110320, Note_on_c, 0, 56, 40
1, 110321, Note_on_c, 0, 68, 41
1, 110344, Note_off_c, 0, 65, 64
1, 110349, Note_off_c, 0, 60, 62
1, 110357, Note_off_c, 0, 56, 59
1, 110476, Control_c, 0, 64, 116
1, 110491, Control_c, 0, 64, 93
1, 110506, Control_c, 0, 64, 71
1, 110521, Control_c, 0, 64, 0
1, 110527, Note_on_c, 0, 48, 58
1, 110565, Control_c, 0, 64, 69
1, 110580, Control_c, 0, 64, 85
1, 110595, Control_c, 0, 64, 111
1, 110607, Note_off_c, 0, 48, 64
1, 110609, Control_c, 0, 64, 127
1, 110619, Note_off_c, 0, 72, 62
1, 110628, Note_off_c, 0, 68, 63
1, 110634, Note_off_c, 0, 77, 62
1, 110891, Note_on_c, 0, 55, 49
1, 110893, Note_on_c, 0, 75, 62
1, 110899, Note_on_c, 0, 63, 40
1, 110904, Note_on_c, 0, 70, 48
1, 110910, Note_on_c, 0, 67, 49
1, 110911, Note_on_c, 0, 58, 41
1, 110918, Note_off_c, 0, 55, 60
1, 110926, Note_off_c, 0, 63, 56
1, 110939, Note_off_c, 0, 58, 53
1, 111028, Note_off_c, 0, 75, 64
1, 111051, Note_off_c, 0, 70, 36
1, 111051, Note_on_c, 0, 77, 64
1, 111078, Control_c, 0, 64, 124
1, 111092, Control_c, 0, 64, 96
1, 111104, Note_on_c, 0, 48, 64
1, 111107, Control_c, 0, 64, 73
1, 111109, Note_on_c, 0, 75, 67
1, 111122, Control_c, 0, 64, 0
1, 111164, Note_off_c, 0, 67, 47
1, 111166, Control_c, 0, 64, 68
1, 111176, Note_off_c, 0, 77, 57
1, 111181, Control_c, 0, 64, 83
1, 111194, Note_off_c, 0, 48, 63
1, 111196, Control_c, 0, 64, 105
1, 111210, Control_c, 0, 64, 127
1, 111275, Note_on_c, 0, 68, 73
1, 111278, Note_off_c, 0, 75, 64
1, 111435, Note_on_c, 0, 53, 50
1, 111439, Note_on_c, 0, 73, 75
1, 111446, Note_on_c, 0, 65, 66
1, 111451, Note_on_c, 0, 61, 35
1, 111454, Note_on_c, 0, 56, 53
1, 111462, Note_off_c, 0, 53, 64
1, 111480, Note_off_c, 0, 61, 48
1, 111486, Note_off_c, 0, 56, 63
1, 111491, Note_off_c, 0, 68, 55
1, 111524, Note_off_c, 0, 65, 63
1, 111609, Control_c, 0, 64, 117
1, 111626, Control_c, 0, 64, 94
1, 111634, Note_off_c, 0, 73, 61
1, 111641, Control_c, 0, 64, 71
1, 111655, Control_c, 0, 64, 0
1, 111657, Note_on_c, 0, 72, 68
1, 111659, Note_on_c, 0, 48, 57
1, 111671, Note_on_c, 0, 64, 56
1, 111707, Control_c, 0, 64, 68
1, 111722, Control_c, 0, 64, 83
1, 111737, Control_c, 0, 64, 108
1, 111747, Note_off_c, 0, 64, 64
1, 111752, Control_c, 0, 64, 127
1, 111775, Note_off_c, 0, 72, 66
1, 111779, Note_off_c, 0, 48, 64
1, 112038, Note_on_c, 0, 79, 78
1, 112048, Note_on_c, 0, 67, 62
1, 112048, Note_on_c, 0, 72, 53
1, 112060, Note_on_c, 0, 70, 62
1, 112061, Note_on_c, 0, 60, 54
1, 112065, Note_on_c, 0, 58, 57
1, 112100, Note_off_c, 0, 67, 59
1, 112103, Note_off_c, 0, 60, 61
1, 112119, Note_off_c, 0, 58, 62
1, 112270, Note_on_c, 0, 48, 70
1, 112303, Note_off_c, 0, 79, 63
1, 112334, Note_off_c, 0, 70, 62
1, 112340, Note_off_c, 0, 72, 65
1, 112348, Note_off_c, 0, 48, 65
1, 112613, Note_on_c, 0, 72, 42
1, 112628, Note_on_c, 0, 77, 87
1, 112638, Note_on_c, 0, 65, 64
1, 112643, Note_on_c, 0, 68, 71
1, 112643, Note_on_c, 0, 60, 62
1, 112651, Note_on_c, 0, 56, 61
1, 112673, Note_off_c, 0, 65, 63
1, 112681, Note_off_c, 0, 60, 61
1, 112704, Note_off_c, 0, 56, 63
1, 112847, Note_on_c, 0, 48, 77
1, 112870, Control_c, 0, 64, 122
1, 112885, Control_c, 0, 64, 88
1, 112900, Control_c, 0, 64, 56
1, 112915, Control_c, 0, 64, 0
1, 112959, Control_c, 0, 64, 72
1, 112972, Note_off_c, 0, 48, 63
1, 112974, Control_c, 0, 64, 96
1, 112987, Note_off_c, 0, 72, 64
1, 112989, Control_c, 0, 64, 127
1, 113001, Note_off_c, 0, 68, 63
1, 113010, Note_off_c, 0, 77, 61
1, 113189, Note_on_c, 0, 75, 80
1, 113203, Note_on_c, 0, 63, 64
1, 113204, Note_on_c, 0, 55, 65
1, 113206, Note_on_c, 0, 70, 64
1, 113207, Note_on_c, 0, 67, 70
1, 113208, Note_on_c, 0, 58, 62
1, 113236, Note_off_c, 0, 63, 65
1, 113236, Note_off_c, 0, 55, 66
1, 113241, Note_off_c, 0, 58, 64
1, 113333, Note_off_c, 0, 70, 59
1, 113339, Note_off_c, 0, 75, 63
1, 113361, Note_on_c, 0, 77, 65
1, 113409, Note_on_c, 0, 75, 77
1, 113412, Control_c, 0, 64, 125
1, 113427, Control_c, 0, 64, 92
1, 113428, Note_on_c, 0, 48, 76
1, 113442, Control_c, 0, 64, 68
1, 113457, Control_c, 0, 64, 0
1, 113472, Control_c, 0, 64, 60
1, 113479, Note_off_c, 0, 67, 54
1, 113486, Control_c, 0, 64, 73
1, 113501, Control_c, 0, 64, 91
1, 113515, Note_off_c, 0, 48, 63
1, 113516, Control_c, 0, 64, 127
1, 113520, Note_off_c, 0, 77, 44
1, 113586, Note_on_c, 0, 68, 89
1, 113609, Note_off_c, 0, 75, 63
1, 113752, Note_on_c, 0, 73, 85
1, 113752, Note_on_c, 0, 53, 59
1, 113756, Note_on_c, 0, 61, 59
1, 113761, Note_on_c, 0, 65, 76
1, 113762, Note_on_c, 0, 56, 58
1, 113781, Note_off_c, 0, 53, 68
1, 113795, Note_off_c, 0, 61, 58
1, 113796, Note_off_c, 0, 68, 61
1, 113800, Note_off_c, 0, 56, 61
1, 113865, Note_off_c, 0, 65, 63
1, 114002, Note_on_c, 0, 48, 62
1, 114007, Note_on_c, 0, 72, 78
1, 114012, Note_on_c, 0, 64, 69
1, 114012, Control_c, 0, 64, 99
1, 114022, Note_off_c, 0, 73, 34
1, 114028, Control_c, 0, 64, 75
1, 114043, Control_c, 0, 64, 0
1, 114102, Control_c, 0, 64, 72
1, 114113, Note_off_c, 0, 64, 64
1, 114117, Control_c, 0, 64, 93
1, 114132, Control_c, 0, 64, 127
1, 114137, Note_off_c, 0, 72, 65
1, 114411, Note_off_c, 0, 48, 30
1, 114423, Note_on_c, 0, 72, 67
1, 114423, Note_on_c, 0, 84, 71
1, 114429, Note_on_c, 0, 52, 48
1, 114435, Note_on_c, 0, 60, 47
1, 114646, Note_on_c, 0, 48, 58
1, 114726, Note_off_c, 0, 52, 61
1, 114733, Note_off_c, 0, 60, 54
1, 114751, Note_off_c, 0, 48, 65
1, 114756, Note_off_c, 0, 72, 63
1, 114762, Note_off_c, 0, 84, 63
1, 114998, Note_on_c, 0, 84, 85
1, 115005, Note_on_c, 0, 74, 71
1, 115007, Note_on_c, 0, 72, 79
1, 115011, Note_on_c, 0, 53, 67
1, 115011, Note_on_c, 0, 60, 61
1, 115011, Note_on_c, 0, 62, 57
1, 115040, Note_off_c, 0, 60, 64
1, 115048, Note_off_c, 0, 62, 61
1, 115057, Note_off_c, 0, 53, 64
1, 115177, Control_c, 0, 64, 103
1, 115192, Control_c, 0, 64, 82
1, 115204, Note_on_c, 0, 48, 76
1, 115207, Control_c, 0, 64, 66
1, 115222, Control_c, 0, 64, 63
1, 115236, Control_c, 0, 64, 72
1, 115251, Control_c, 0, 64, 85
1, 115266, Control_c, 0, 64, 107
1, 115281, Control_c, 0, 64, 127
1, 115308, Note_off_c, 0, 48, 64
1, 115315, Note_off_c, 0, 72, 64
1, 115319, Note_off_c, 0, 84, 64
1, 115320, Note_off_c, 0, 74, 60
1, 115552, Note_on_c, 0, 84, 92
1, 115555, Note_on_c, 0, 77, 84
1, 115558, Note_on_c, 0, 72, 86
1, 115559, Note_on_c, 0, 65, 72
1, 115561, Note_on_c, 0, 60, 74
1, 115569, Note_on_c, 0, 56, 77
1, 115592, Note_off_c, 0, 65, 63
1, 115595, Note_off_c, 0, 60, 60
1, 115612, Note_off_c, 0, 56, 66
1, 115718, Control_c, 0, 64, 124
1, 115733, Control_c, 0, 64, 96
1, 115747, Control_c, 0, 64, 75
1, 115762, Control_c, 0, 64, 0
1, 115766, Note_on_c, 0, 48, 84
1, 115792, Control_c, 0, 64, 61
1, 115807, Control_c, 0, 64, 81
1, 115821, Control_c, 0, 64, 110
1, 115836, Control_c, 0, 64, 127
1, 115851, Note_off_c, 0, 48, 66
1, 115880, Note_off_c, 0, 72, 63
1, 115880, Note_off_c, 0, 84, 65
1, 115895, Note_off_c, 0, 77, 58
1, 116129, Note_on_c, 0, 84, 95
1, 116133, Note_on_c, 0, 72, 91
1, 116134, Note_on_c, 0, 60, 73
1, 116134, Note_on_c, 0, 76, 80
1, 116137, Note_on_c, 0, 64, 54
1, 116141, Note_on_c, 0, 55, 54
1, 116146, Note_on_c, 0, 53, 67
1, 116158, Note_off_c, 0, 64, 60
1, 116159, Note_off_c, 0, 60, 67
1, 116176, Note_off_c, 0, 55, 65
1, 116179, Note_off_c, 0, 53, 68
1, 116345, Note_on_c, 0, 48, 89
1, 116347, Control_c, 0, 64, 96
1, 116362, Control_c, 0, 64, 72
1, 116375, Note_on_c, 0, 47, 35
1, 116376, Note_off_c, 0, 47, 127
1, 116377, Control_c, 0, 64, 0
1, 116392, Control_c, 0, 64, 59
1, 116406, Control_c, 0, 64, 72
1, 116408, Note_off_c, 0, 48, 66
1, 116422, Control_c, 0, 64, 92
1, 116437, Control_c, 0, 64, 127
1, 116479, Note_off_c, 0, 72, 62
1, 116496, Note_off_c, 0, 76, 64
1, 116501, Note_off_c, 0, 84, 62
1, 116695, Note_on_c, 0, 62, 89
1, 116697, Note_on_c, 0, 53, 82
1, 116697, Note_on_c, 0, 60, 79
1, 116697, Note_on_c, 0, 84, 102
1, 116702, Note_on_c, 0, 74, 96
1, 116703, Note_on_c, 0, 72, 98
1, 116724, Note_off_c, 0, 60, 67
1, 116745, Note_off_c, 0, 62, 61
1, 116756, Note_off_c, 0, 53, 65
1, 116805, Poly_aftertouch_c, 0, 81, 127
1, 116897, Control_c, 0, 64, 92
1, 116912, Control_c, 0, 64, 67
1, 116913, Note_on_c, 0, 48, 99
1, 116927, Control_c, 0, 64, 0
1, 116949, Control_c, 0, 64, 29
1, 116964, Control_c, 0, 64, 77
1, 116971, Note_off_c, 0, 48, 68
1, 116978, Control_c, 0, 64, 109
1, 116993, Control_c, 0, 64, 127
1, 117022, Note_off_c, 0, 74, 54
1, 117028, Note_off_c, 0, 72, 62
1, 117043, Note_off_c, 0, 84, 62
1, 117062, Poly_aftertouch_c, 0, 81, 0
1, 117262, Note_on_c, 0, 60, 88
1, 117265, Note_on_c, 0, 55, 89
1, 117265, Note_on_c, 0, 64, 85
1, 117269, Note_on_c, 0, 84, 99
1, 117272, Note_on_c, 0, 76, 96
1, 117273, Note_on_c, 0, 72, 98
1, 117287, Note_off_c, 0, 64, 72
1, 117300, Note_off_c, 0, 60, 65
1, 117317, Note_off_c, 0, 55, 65
1, 117326, Note_on_c, 0, 81, 31
1, 117385, Note_off_c, 0, 81, 0
1, 117421, Poly_aftertouch_c, 0, 81, 127
1, 117453, Control_c, 0, 64, 123
1, 117468, Poly_aftertouch_c, 0, 81, 0
1, 117468, Control_c, 0, 64, 88
1, 117480, Note_on_c, 0, 48, 105
1, 117483, Control_c, 0, 64, 51
1, 117498, Control_c, 0, 64, 0
1, 117502, Note_off_c, 0, 76, 57
1, 117505, Poly_aftertouch_c, 0, 81, 127
1, 117513, Control_c, 0, 64, 28
1, 117517, Note_off_c, 0, 48, 73
1, 117527, Control_c, 0, 64, 75
1, 117542, Control_c, 0, 64, 103
1, 117557, Control_c, 0, 64, 127
1, 117595, Note_off_c, 0, 72, 62
1, 117606, Note_off_c, 0, 84, 61
1, 117618, Poly_aftertouch_c, 0, 81, 0
1, 117779, Poly_aftertouch_c, 0, 68, 0
1, 117826, Note_on_c, 0, 68, 101
1, 117830, Note_on_c, 0, 58, 93
1, 117833, Note_on_c, 0, 60, 85
1, 117836, Note_on_c, 0, 72, 98
1, 117838, Note_on_c, 0, 84, 99
1, 117840, Note_on_c, 0, 80, 94
1, 117856, Note_off_c, 0, 68, 70
1, 117869, Note_on_c, 0, 81, 67
1, 117872, Note_off_c, 0, 60, 65
1, 117877, Note_off_c, 0, 58, 67
1, 118106, Note_on_c, 0, 48, 104
1, 118110, Note_on_c, 0, 36, 97
1, 118151, Note_off_c, 0, 81, 10
1, 118158, Control_c, 0, 64, 93
1, 118173, Control_c, 0, 64, 65
1, 118188, Control_c, 0, 64, 0
1, 118217, Control_c, 0, 64, 66
1, 118219, Note_off_c, 0, 36, 65
1, 118232, Control_c, 0, 64, 94
1, 118234, Note_off_c, 0, 48, 69
1, 118247, Control_c, 0, 64, 127
1, 118293, Note_off_c, 0, 84, 58
1, 118311, Note_off_c, 0, 72, 57
1, 118313, Note_off_c, 0, 80, 58
1, 118488, Note_on_c, 0, 67, 94
1, 118492, Note_on_c, 0, 55, 90
1, 118493, Note_on_c, 0, 58, 92
1, 118495, Note_on_c, 0, 60, 82
1, 118495, Note_on_c, 0, 72, 100
1, 118495, Note_on_c, 0, 79, 97
1, 118495, Note_on_c, 0, 84, 102
1, 118516, Note_off_c, 0, 67, 64
1, 118517, Note_off_c, 0, 60, 69
1, 118528, Note_off_c, 0, 58, 69
1, 118533, Note_off_c, 0, 55, 65
1, 118602, Note_off_c, 0, 84, 60
1, 118620, Note_off_c, 0, 72, 57
1, 118632, Note_off_c, 0, 79, 59
1, 118689, Note_on_c, 0, 80, 89
1, 118695, Note_on_c, 0, 72, 95
1, 118697, Note_on_c, 0, 84, 100
1, 118795, Note_off_c, 0, 80, 53
1, 118805, Note_off_c, 0, 84, 63
1, 118820, Note_off_c, 0, 72, 63
1, 118862, Control_c, 0, 64, 113
1, 118866, Note_on_c, 0, 41, 102
1, 118867, Note_on_c, 0, 29, 91
1, 118869, Note_on_c, 0, 84, 101
1, 118871, Note_on_c, 0, 79, 104
1, 118872, Note_on_c, 0, 72, 102
1, 118877, Control_c, 0, 64, 79
1, 118891, Control_c, 0, 64, 0
1, 118936, Control_c, 0, 64, 57
1, 118951, Control_c, 0, 64, 84
1, 118966, Control_c, 0, 64, 127
1, 118975, Note_off_c, 0, 29, 62
1, 118989, Note_off_c, 0, 41, 67
1, 119015, Note_off_c, 0, 79, 66
1, 119025, Note_off_c, 0, 84, 58
1, 119038, Note_off_c, 0, 72, 60
1, 119266, Note_on_c, 0, 65, 86
1, 119269, Note_on_c, 0, 60, 78
1, 119270, Note_on_c, 0, 56, 84
1, 119270, Note_on_c, 0, 84, 105
1, 119271, Note_on_c, 0, 53, 81
1, 119272, Note_on_c, 0, 77, 97
1, 119273, Note_on_c, 0, 72, 101
1, 119284, Note_off_c, 0, 65, 74
1, 119291, Note_off_c, 0, 60, 67
1, 119302, Note_off_c, 0, 56, 65
1, 119311, Note_off_c, 0, 53, 67
1, 119445, Control_c, 0, 64, 125
1, 119460, Control_c, 0, 64, 90
1, 119475, Control_c, 0, 64, 61
1, 119478, Note_on_c, 0, 53, 103
1, 119482, Note_on_c, 0, 41, 95
1, 119490, Control_c, 0, 64, 0
1, 119499, Note_off_c, 0, 72, 62
1, 119520, Control_c, 0, 64, 62
1, 119530, Note_off_c, 0, 77, 62
1, 119531, Note_off_c, 0, 84, 64
1, 119535, Control_c, 0, 64, 84
1, 119549, Control_c, 0, 64, 124
1, 119564, Control_c, 0, 64, 127
1, 119568, Note_off_c, 0, 41, 66
1, 119597, Note_off_c, 0, 53, 66
1, 119809, Note_on_c, 0, 77, 106
1, 119811, Note_on_c, 0, 89, 104
1, 119812, Note_on_c, 0, 65, 86
1, 119817, Note_on_c, 0, 56, 74
1, 119821, Note_on_c, 0, 53, 71
1, 119826, Note_on_c, 0, 60, 69
1, 119852, Note_off_c, 0, 60, 65
1, 119854, Note_off_c, 0, 65, 65
1, 119873, Note_off_c, 0, 56, 65
1, 119879, Note_off_c, 0, 53, 66
1, 119915, Note_off_c, 0, 77, 62
1, 119934, Note_off_c, 0, 89, 64
1, 120024, Note_on_c, 0, 91, 96
1, 120026, Note_on_c, 0, 79, 96
1, 120060, Note_off_c, 0, 79, 65
1, 120060, Note_off_c, 0, 91, 60
1, 120110, Note_on_c, 0, 89, 107
1, 120112, Note_on_c, 0, 77, 105
1, 120115, Note_on_c, 0, 53, 100
1, 120116, Note_on_c, 0, 41, 85
1, 120120, Control_c, 0, 64, 115
1, 120135, Control_c, 0, 64, 85
1, 120150, Control_c, 0, 64, 45
1, 120164, Control_c, 0, 64, 0
1, 120194, Control_c, 0, 64, 66
1, 120209, Control_c, 0, 64, 87
1, 120224, Control_c, 0, 64, 127
1, 120236, Note_off_c, 0, 41, 64
1, 120265, Note_off_c, 0, 53, 66
1, 120282, Note_off_c, 0, 89, 62
1, 120310, Note_off_c, 0, 77, 62
1, 120389, Note_on_c, 0, 87, 108
1, 120396, Note_on_c, 0, 75, 106
1, 120452, Note_on_c, 0, 88, 4
1, 120480, Note_off_c, 0, 88, 39
1, 120492, Note_off_c, 0, 87, 61
1, 120502, Note_off_c, 0, 75, 61
1, 120566, Note_on_c, 0, 65, 78
1, 120573, Note_on_c, 0, 61, 74
1, 120575, Note_on_c, 0, 53, 69
1, 120577, Note_on_c, 0, 85, 102
1, 120578, Note_on_c, 0, 58, 68
1, 120578, Note_on_c, 0, 73, 105
1, 120579, Note_on_c, 0, 82, 93
1, 120587, Note_off_c, 0, 65, 70
1, 120597, Note_off_c, 0, 61, 66
1, 120601, Note_off_c, 0, 58, 68
1, 120608, Note_off_c, 0, 53, 65
1, 120609, Note_on_c, 0, 84, 55
1, 120629, Note_off_c, 0, 84, 63
1, 120671, Note_off_c, 0, 85, 65
1, 120671, Note_off_c, 0, 73, 63
1, 120674, Note_off_c, 0, 82, 62
1, 120751, Note_on_c, 0, 84, 91
1, 120751, Control_c, 0, 64, 98
1, 120753, Note_on_c, 0, 80, 92
1, 120756, Note_on_c, 0, 72, 99
1, 120764, Note_on_c, 0, 41, 84
1, 120766, Note_on_c, 0, 53, 90
1, 120766, Control_c, 0, 64, 72
1, 120781, Control_c, 0, 64, 0
1, 120796, Control_c, 0, 64, 40
1, 120808, Note_off_c, 0, 84, 65
1, 120811, Control_c, 0, 64, 69
1, 120826, Control_c, 0, 64, 86
1, 120828, Note_off_c, 0, 41, 65
1, 120828, Note_off_c, 0, 72, 67
1, 120830, Note_off_c, 0, 53, 64
1, 120835, Note_off_c, 0, 80, 66
1, 120841, Control_c, 0, 64, 127
1, 120911, Note_on_c, 0, 80, 100
1, 120912, Note_on_c, 0, 68, 100
1, 120918, Note_on_c, 0, 77, 84
1, 120993, Note_off_c, 0, 68, 61
1, 120994, Note_off_c, 0, 77, 60
1, 121001, Note_off_c, 0, 80, 64
1, 121066, Note_on_c, 0, 82, 99
1, 121067, Note_on_c, 0, 70, 100
1, 121073, Note_on_c, 0, 48, 83
1, 121073, Note_on_c, 0, 60, 84
1, 121076, Note_on_c, 0, 79, 78
1, 121094, Note_off_c, 0, 60, 69
1, 121119, Note_off_c, 0, 48, 66
1, 121122, Note_on_c, 0, 80, 18
1, 121139, Note_off_c, 0, 79, 62
1, 121159, Note_off_c, 0, 80, 54
1, 121165, Note_off_c, 0, 70, 61
1, 121165, Note_off_c, 0, 82, 66
1, 121256, Control_c, 0, 64, 103
1, 121258, Note_on_c, 0, 84, 104
1, 121259, Note_on_c, 0, 72, 99
1, 121259, Note_on_c, 0, 80, 86
1, 121270, Note_on_c, 0, 41, 85
1, 121270, Note_on_c, 0, 53, 93
1, 121271, Control_c, 0, 64, 64
1, 121285, Control_c, 0, 64, 0
1, 121345, Control_c, 0, 64, 73
1, 121359, Control_c, 0, 64, 122
1, 121374, Control_c, 0, 64, 127
1, 121386, Note_off_c, 0, 84, 64
1, 121386, Note_off_c, 0, 72, 67
1, 121388, Note_off_c, 0, 53, 64
1, 121395, Note_off_c, 0, 80, 64
1, 121409, Note_off_c, 0, 41, 65
1, 121619, Control_c, 0, 64, 117
1, 121632, Note_on_c, 0, 84, 96
1, 121633, Control_c, 0, 64, 78
1, 121636, Note_on_c, 0, 72, 97
1, 121639, Note_on_c, 0, 52, 90
1, 121642, Note_on_c, 0, 80, 85
1, 121642, Note_on_c, 0, 40, 81
1, 121648, Control_c, 0, 64, 0
1, 121738, Control_c, 0, 64, 88
1, 121753, Control_c, 0, 64, 127
1, 121756, Note_off_c, 0, 52, 65
1, 121777, Note_off_c, 0, 40, 62
1, 121881, Note_on_c, 0, 44, 33
1, 121921, Note_on_c, 0, 51, 94
1, 121924, Note_on_c, 0, 39, 88
1, 121944, Control_c, 0, 64, 107
1, 121959, Control_c, 0, 64, 73
1, 121974, Control_c, 0, 64, 0
1, 121989, Note_off_c, 0, 44, 40
1, 122004, Control_c, 0, 64, 68
1, 122019, Note_off_c, 0, 72, 63
1, 122020, Control_c, 0, 64, 96
1, 122024, Note_off_c, 0, 84, 62
1, 122027, Note_off_c, 0, 39, 63
1, 122031, Note_off_c, 0, 51, 64
1, 122034, Control_c, 0, 64, 127
1, 122039, Note_off_c, 0, 80, 63
1, 122281, Note_on_c, 0, 63, 89
1, 122281, Note_on_c, 0, 84, 100
1, 122286, Note_on_c, 0, 72, 91
1, 122290, Note_on_c, 0, 80, 92
1, 122293, Note_on_c, 0, 56, 75
1, 122297, Note_on_c, 0, 51, 76
1, 122313, Note_on_c, 0, 60, 37
1, 122315, Note_off_c, 0, 63, 63
1, 122322, Note_off_c, 0, 56, 66
1, 122340, Note_off_c, 0, 51, 60
1, 122341, Note_off_c, 0, 60, 52
1, 122441, Control_c, 0, 64, 102
1, 122456, Control_c, 0, 64, 71
1, 122471, Control_c, 0, 64, 0
1, 122483, Note_on_c, 0, 51, 93
1, 122487, Note_on_c, 0, 39, 82
1, 122512, Note_off_c, 0, 39, 65
1, 122513, Note_off_c, 0, 51, 60
1, 122515, Control_c, 0, 64, 67
1, 122516, Note_on_c, 0, 52, 52
1, 122517, Note_off_c, 0, 52, 127
1, 122522, Note_on_c, 0, 42, 23
1, 122530, Control_c, 0, 64, 93
1, 122545, Control_c, 0, 64, 127
1, 122546, Note_off_c, 0, 84, 61
1, 122551, Note_off_c, 0, 72, 61
1, 122560, Note_off_c, 0, 42, 53
1, 122569, Poly_aftertouch_c, 0, 53, 127
1, 122572, Note_off_c, 0, 80, 61
1, 122596, Poly_aftertouch_c, 0, 53, 0
1, 122718, Note_on_c, 0, 84, 92
1, 122718, Note_on_c, 0, 65, 80
1, 122721, Note_on_c, 0, 60, 59
1, 122722, Note_on_c, 0, 72, 87
1, 122731, Note_on_c, 0, 56, 69
1, 122736, Note_on_c, 0, 80, 78
1, 122754, Note_off_c, 0, 84, 68
1, 122757, Note_off_c, 0, 72, 65
1, 122758, Note_off_c, 0, 80, 69
1, 122759, Note_off_c, 0, 60, 62
1, 122759, Note_off_c, 0, 65, 63
1, 122764, Note_off_c, 0, 56, 65
1, 122814, Note_on_c, 0, 85, 100
1, 122816, Note_on_c, 0, 73, 101
1, 122820, Note_on_c, 0, 51, 97
1, 122823, Note_on_c, 0, 80, 88
1, 122840, Note_on_c, 0, 63, 52
1, 122856, Note_off_c, 0, 51, 66
1, 122862, Note_off_c, 0, 63, 62
1, 122865, Note_off_c, 0, 73, 65
1, 122876, Note_off_c, 0, 80, 61
1, 122880, Note_off_c, 0, 85, 64
1, 123071, Control_c, 0, 64, 116
1, 123086, Control_c, 0, 64, 76
1, 123093, Note_on_c, 0, 87, 101
1, 123094, Note_on_c, 0, 51, 95
1, 123096, Note_on_c, 0, 39, 83
1, 123097, Note_on_c, 0, 75, 96
1, 123101, Control_c, 0, 64, 0
1, 123103, Note_on_c, 0, 80, 89
1, 123142, Note_off_c, 0, 39, 62
1, 123145, Note_off_c, 0, 51, 63
1, 123145, Control_c, 0, 64, 73
1, 123160, Control_c, 0, 64, 99
1, 123165, Note_off_c, 0, 75, 66
1, 123165, Note_off_c, 0, 87, 63
1, 123168, Note_off_c, 0, 80, 61
1, 123175, Control_c, 0, 64, 127
1, 123353, Note_on_c, 0, 68, 92
1, 123355, Note_on_c, 0, 80, 94
1, 123361, Note_on_c, 0, 63, 72
1, 123368, Note_on_c, 0, 51, 57
1, 123368, Note_on_c, 0, 55, 65
1, 123376, Note_on_c, 0, 61, 53
1, 123391, Note_off_c, 0, 63, 65
1, 123391, Note_off_c, 0, 68, 64
1, 123393, Note_off_c, 0, 80, 64
1, 123396, Note_off_c, 0, 51, 56
1, 123397, Note_off_c, 0, 55, 67
1, 123398, Note_off_c, 0, 61, 63
1, 123447, Note_on_c, 0, 63, 85
1, 123449, Note_on_c, 0, 70, 99
1, 123449, Note_on_c, 0, 61, 86
1, 123454, Note_on_c, 0, 82, 90
1, 123459, Note_on_c, 0, 51, 77
1, 123473, Note_on_c, 0, 80, 65
1, 123475, Note_off_c, 0, 63, 67
1, 123478, Note_off_c, 0, 61, 63
1, 123486, Note_on_c, 0, 55, 26
1, 123490, Note_off_c, 0, 80, 67
1, 123504, Note_off_c, 0, 51, 62
1, 123514, Note_off_c, 0, 55, 57
1, 123520, Note_off_c, 0, 70, 57
1, 123532, Note_off_c, 0, 82, 61
1, 123708, Note_on_c, 0, 84, 96
1, 123710, Note_on_c, 0, 80, 75
1, 123711, Note_on_c, 0, 72, 97
1, 123714, Note_on_c, 0, 44, 93
1, 123715, Note_on_c, 0, 56, 91
1, 123716, Note_on_c, 0, 75, 86
1, 123732, Control_c, 0, 64, 96
1, 123747, Control_c, 0, 64, 63
1, 123762, Control_c, 0, 64, 0
1, 123821, Control_c, 0, 64, 69
1, 123836, Control_c, 0, 64, 92
1, 123839, Note_off_c, 0, 56, 63
1, 123847, Note_off_c, 0, 44, 61
1, 123849, Note_off_c, 0, 72, 63
1, 123851, Control_c, 0, 64, 127
1, 123858, Note_off_c, 0, 84, 64
1, 123869, Note_off_c, 0, 75, 64
1, 123875, Note_off_c, 0, 80, 64
1, 124093, Note_on_c, 0, 84, 94
1, 124093, Note_on_c, 0, 72, 93
1, 124099, Note_on_c, 0, 55, 94
1, 124099, Note_on_c, 0, 82, 86
1, 124099, Note_on_c, 0, 76, 85
1, 124102, Note_on_c, 0, 43, 85
1, 124173, Note_off_c, 0, 55, 55
1, 124175, Note_off_c, 0, 43, 59
1, 124184, Poly_aftertouch_c, 0, 45, 127
1, 124221, Poly_aftertouch_c, 0, 45, 0
1, 124369, Control_c, 0, 64, 87
1, 124376, Note_on_c, 0, 53, 99
1, 124380, Note_on_c, 0, 41, 91
1, 124384, Control_c, 0, 64, 0
1, 124436, Control_c, 0, 64, 56
1, 124449, Note_off_c, 0, 84, 63
1, 124451, Control_c, 0, 64, 83
1, 124466, Control_c, 0, 64, 119
1, 124468, Note_off_c, 0, 72, 64
1, 124472, Note_off_c, 0, 53, 66
1, 124472, Note_off_c, 0, 41, 66
1, 124477, Note_off_c, 0, 76, 63
1, 124481, Note_off_c, 0, 82, 63
1, 124481, Control_c, 0, 64, 127
1, 124729, Note_on_c, 0, 60, 91
1, 124733, Note_on_c, 0, 53, 87
1, 124734, Note_on_c, 0, 48, 89
1, 124737, Note_on_c, 0, 56, 81
1, 124738, Note_on_c, 0, 84, 101
1, 124745, Note_on_c, 0, 80, 92
1, 124746, Note_on_c, 0, 72, 97
1, 124748, Note_off_c, 0, 60, 71
1, 124751, Note_on_c, 0, 77, 91
1, 124756, Note_off_c, 0, 53, 71
1, 124756, Note_off_c, 0, 56, 68
1, 124772, Note_off_c, 0, 48, 66
1, 125002, Note_on_c, 0, 41, 101
1, 125005, Note_on_c, 0, 29, 93
1, 125014, Control_c, 0, 64, 90
1, 125029, Control_c, 0, 64, 63
1, 125044, Control_c, 0, 64, 0
1, 125060, Note_off_c, 0, 29, 64
1, 125061, Note_off_c, 0, 72, 65
1, 125065, Note_off_c, 0, 41, 66
1, 125073, Control_c, 0, 64, 44
1, 125076, Note_off_c, 0, 84, 65
1, 125082, Note_off_c, 0, 77, 64
1, 125088, Control_c, 0, 64, 83
1, 125092, Note_off_c, 0, 80, 65
1, 125103, Control_c, 0, 64, 127
1, 125370, Note_on_c, 0, 89, 97
1, 125374, Note_on_c, 0, 65, 100
1, 125374, Note_on_c, 0, 77, 106
1, 125380, Note_on_c, 0, 53, 86
1, 125380, Note_on_c, 0, 80, 95
1, 125381, Note_on_c, 0, 56, 82
1, 125408, Note_on_c, 0, 86, 46
1, 125433, Note_off_c, 0, 53, 65
1, 125434, Note_off_c, 0, 86, 57
1, 125439, Note_off_c, 0, 65, 64
1, 125445, Note_off_c, 0, 77, 62
1, 125451, Note_off_c, 0, 56, 64
1, 125455, Note_off_c, 0, 89, 66
1, 125464, Note_off_c, 0, 80, 64
1, 125591, Note_on_c, 0, 67, 94
1, 125595, Note_on_c, 0, 55, 86
1, 125597, Note_on_c, 0, 91, 93
1, 125598, Note_on_c, 0, 79, 95
1, 125616, Note_off_c, 0, 91, 65
1, 125617, Note_off_c, 0, 67, 60
1, 125619, Note_off_c, 0, 55, 69
1, 125627, Note_on_c, 0, 58, 31
1, 125629, Note_off_c, 0, 79, 61
1, 125659, Note_off_c, 0, 58, 52
1, 125665, Note_on_c, 0, 89, 79
1, 125673, Note_on_c, 0, 77, 106
1, 125680, Note_on_c, 0, 65, 104
1, 125685, Note_on_c, 0, 53, 89
1, 125689, Note_on_c, 0, 80, 82
1, 125693, Note_on_c, 0, 56, 77
1, 125719, Control_c, 0, 64, 99
1, 125733, Control_c, 0, 64, 75
1, 125748, Control_c, 0, 64, 58
1, 125763, Control_c, 0, 64, 68
1, 125777, Control_c, 0, 64, 80
1, 125792, Control_c, 0, 64, 102
1, 125807, Control_c, 0, 64, 127
1, 125836, Note_off_c, 0, 65, 62
1, 125840, Note_off_c, 0, 53, 64
1, 125851, Note_off_c, 0, 89, 64
1, 125864, Note_off_c, 0, 77, 53
1, 125866, Note_off_c, 0, 56, 65
1, 125890, Note_off_c, 0, 80, 63
1, 125936, Note_on_c, 0, 88, 105
1, 125938, Note_on_c, 0, 76, 106
1, 125941, Note_on_c, 0, 64, 101
1, 125942, Poly_aftertouch_c, 0, 80, 0
1, 125944, Note_on_c, 0, 52, 94
1, 125946, Note_on_c, 0, 80, 75
1, 125967, Note_on_c, 0, 56, 56
1, 126015, Note_off_c, 0, 56, 0
1, 126015, Note_on_c, 0, 56, 41
1, 126018, Poly_aftertouch_c, 0, 86, 127
1, 126021, Note_off_c, 0, 52, 64
1, 126025, Note_off_c, 0, 88, 63
1, 126028, Note_off_c, 0, 64, 61
1, 126033, Note_off_c, 0, 76, 65
1, 126054, Poly_aftertouch_c, 0, 86, 0
1, 126072, Note_off_c, 0, 56, 65
1, 126080, Note_off_c, 0, 80, 61
1, 126115, Note_on_c, 0, 87, 104
1, 126118, Note_on_c, 0, 75, 104
1, 126120, Note_on_c, 0, 80, 82
1, 126124, Note_on_c, 0, 63, 98
1, 126134, Note_on_c, 0, 51, 86
1, 126137, Note_on_c, 0, 56, 73
1, 126149, Note_on_c, 0, 88, 52
1, 126173, Note_off_c, 0, 88, 52
1, 126204, Note_off_c, 0, 51, 60
1, 126223, Note_off_c, 0, 63, 63
1, 126224, Note_off_c, 0, 75, 69
1, 126224, Note_off_c, 0, 87, 61
1, 126248, Note_off_c, 0, 56, 62
1, 126266, Note_off_c, 0, 80, 63
1, 126299, Note_on_c, 0, 86, 105
1, 126299, Note_on_c, 0, 74, 103
1, 126300, Note_on_c, 0, 80, 89
1, 126301, Note_on_c, 0, 62, 106
1, 126304, Note_on_c, 0, 56, 88
1, 126304, Control_c, 0, 64, 88
1, 126305, Note_on_c, 0, 50, 94
1, 126319, Control_c, 0, 64, 34
1, 126334, Control_c, 0, 64, 0
1, 126363, Control_c, 0, 64, 56
1, 126374, Note_off_c, 0, 50, 60
1, 126378, Control_c, 0, 64, 78
1, 126393, Control_c, 0, 64, 103
1, 126400, Note_off_c, 0, 62, 58
1, 126407, Control_c, 0, 64, 127
1, 126416, Note_off_c, 0, 86, 60
1, 126426, Note_off_c, 0, 74, 57
1, 126473, Note_off_c, 0, 56, 53
1, 126484, Note_off_c, 0, 80, 61
1, 126540, Note_on_c, 0, 61, 95
1, 126546, Note_on_c, 0, 73, 91
1, 126547, Note_on_c, 0, 85, 87
1, 126552, Note_on_c, 0, 49, 80
1, 126555, Note_on_c, 0, 56, 70
1, 126561, Note_on_c, 0, 80, 67
1, 126582, Note_off_c, 0, 49, 66
1, 126584, Note_off_c, 0, 61, 65
1, 126586, Note_off_c, 0, 80, 70
1, 126588, Note_off_c, 0, 56, 59
1, 126588, Note_off_c, 0, 85, 65
1, 126589, Note_off_c, 0, 73, 63
1, 126629, Note_on_c, 0, 84, 92
1, 126630, Note_on_c, 0, 60, 101
1, 126634, Note_on_c, 0, 48, 87
1, 126634, Note_on_c, 0, 72, 90
1, 126637, Note_on_c, 0, 56, 74
1, 126638, Note_on_c, 0, 80, 87
1, 126660, Control_c, 0, 64, 107
1, 126662, Note_on_c, 0, 49, 50
1, 126682, Control_c, 0, 64, 77
1, 126687, Note_off_c, 0, 49, 63
1, 126697, Control_c, 0, 64, 58
1, 126712, Control_c, 0, 64, 69
1, 126722, Note_off_c, 0, 48, 58
1, 126727, Control_c, 0, 64, 81
1, 126734, Note_off_c, 0, 84, 62
1, 126735, Note_off_c, 0, 60, 55
1, 126741, Control_c, 0, 64, 104
1, 126755, Note_off_c, 0, 56, 54
1, 126756, Control_c, 0, 64, 127
1, 126768, Note_off_c, 0, 72, 61
1, 126769, Note_off_c, 0, 80, 62
1, 126820, Note_on_c, 0, 56, 83
1, 126823, Note_on_c, 0, 72, 91
1, 126825, Note_on_c, 0, 60, 92
1, 126825, Note_on_c, 0, 84, 102
1, 126827, Note_on_c, 0, 48, 90
1, 126832, Note_on_c, 0, 80, 75
1, 126853, Note_off_c, 0, 80, 67
1, 126862, Note_off_c, 0, 60, 64
1, 126863, Note_off_c, 0, 84, 67
1, 126865, Note_off_c, 0, 72, 68
1, 126866, Note_off_c, 0, 56, 65
1, 126872, Note_off_c, 0, 48, 66
1, 126994, Control_c, 0, 64, 106
1, 126998, Note_on_c, 0, 55, 97
1, 127005, Note_on_c, 0, 48, 84
1, 127005, Note_on_c, 0, 79, 105
1, 127006, Note_on_c, 0, 67, 100
1, 127006, Note_on_c, 0, 72, 92
1, 127008, Note_on_c, 0, 43, 84
1, 127009, Control_c, 0, 64, 78
1, 127024, Control_c, 0, 64, 0
1, 127043, Note_on_c, 0, 46, 33
1, 127053, Control_c, 0, 64, 66
1, 127068, Control_c, 0, 64, 84
1, 127071, Note_off_c, 0, 55, 63
1, 127080, Note_off_c, 0, 46, 32
1, 127083, Control_c, 0, 64, 119
1, 127085, Note_off_c, 0, 67, 60
1, 127091, Note_off_c, 0, 79, 62
1, 127094, Note_off_c, 0, 43, 59
1, 127098, Control_c, 0, 64, 127
1, 127120, Note_off_c, 0, 72, 65
1, 127132, Note_off_c, 0, 48, 58
1, 127196, Note_on_c, 0, 72, 86
1, 127199, Note_on_c, 0, 48, 62
1, 127199, Note_on_c, 0, 70, 102
1, 127199, Note_on_c, 0, 58, 103
1, 127202, Note_on_c, 0, 82, 99
1, 127208, Note_on_c, 0, 46, 87
1, 127217, Control_c, 0, 64, 97
1, 127220, Note_on_c, 0, 80, 68
1, 127231, Control_c, 0, 64, 71
1, 127246, Control_c, 0, 64, 56
1, 127258, Note_off_c, 0, 82, 68
1, 127261, Control_c, 0, 64, 71
1, 127267, Note_off_c, 0, 80, 0
1, 127276, Control_c, 0, 64, 89
1, 127291, Control_c, 0, 64, 127
1, 127297, Note_off_c, 0, 48, 60
1, 127304, Poly_aftertouch_c, 0, 80, 127
1, 127306, Note_off_c, 0, 58, 62
1, 127309, Note_off_c, 0, 72, 61
1, 127309, Note_off_c, 0, 46, 62
1, 127313, Note_off_c, 0, 70, 53
1, 127336, Poly_aftertouch_c, 0, 80, 0
1, 127396, Poly_aftertouch_c, 0, 72, 127
1, 127434, Poly_aftertouch_c, 0, 72, 0
1, 127449, Note_on_c, 0, 80, 93
1, 127452, Note_on_c, 0, 56, 103
1, 127452, Note_on_c, 0, 68, 102
1, 127454, Note_on_c, 0, 72, 71
1, 127458, Note_on_c, 0, 48, 79
1, 127459, Note_on_c, 0, 44, 88
1, 127461, Control_c, 0, 64, 99
1, 127476, Control_c, 0, 64, 55
1, 127491, Control_c, 0, 64, 0
1, 127505, Control_c, 0, 64, 49
1, 127520, Control_c, 0, 64, 76
1, 127535, Note_off_c, 0, 80, 66
1, 127535, Control_c, 0, 64, 110
1, 127542, Note_off_c, 0, 56, 65
1, 127550, Control_c, 0, 64, 127
1, 127557, Note_off_c, 0, 68, 65
1, 127559, Note_off_c, 0, 72, 66
1, 127562, Note_off_c, 0, 48, 66
1, 127568, Note_off_c, 0, 44, 63
1, 127872, Note_on_c, 0, 68, 104
1, 127875, Note_on_c, 0, 54, 99
1, 127878, Note_on_c, 0, 44, 92
1, 127880, Note_on_c, 0, 60, 85
1, 127882, Note_on_c, 0, 32, 85
1, 127986, Poly_aftertouch_c, 0, 69, 0
1, 127995, Control_c, 0, 64, 100
1, 128010, Control_c, 0, 64, 72
1, 128024, Control_c, 0, 64, 0
1, 128194, Control_c, 0, 64, 69
1, 128209, Control_c, 0, 64, 84
1, 128224, Control_c, 0, 64, 101
1, 128239, Control_c, 0, 64, 120
1, 128254, Control_c, 0, 64, 127
1, 128363, Note_off_c, 0, 68, 62
1, 128400, Note_off_c, 0, 32, 55
1, 128453, Note_off_c, 0, 44, 51
1, 128497, Note_on_c, 0, 67, 80
1, 128704, Note_on_c, 0, 66, 84
1, 128706, Note_off_c, 0, 54, 33
1, 128770, Note_off_c, 0, 67, 55
1, 128814, Note_off_c, 0, 66, 64
1, 128868, Note_off_c, 0, 60, 44
1, 128954, Note_on_c, 0, 65, 73
1, 128958, Control_c, 0, 67, 9
1, 128959, Note_on_c, 0, 61, 70
1, 128973, Note_on_c, 0, 49, 54
1, 128973, Control_c, 0, 67, 11
1, 128974, Note_on_c, 0, 53, 55
1, 128978, Note_on_c, 0, 37, 50
1, 128988, Control_c, 0, 67, 14
1, 129002, Control_c, 0, 64, 107
1, 129002, Control_c, 0, 67, 16
1, 129017, Control_c, 0, 64, 79
1, 129017, Control_c, 0, 67, 18
1, 129032, Control_c, 0, 64, 0
1, 129032, Control_c, 0, 67, 22
1, 129047, Control_c, 0, 67, 28
1, 129062, Control_c, 0, 67, 35
1, 129077, Control_c, 0, 67, 41
1, 129092, Control_c, 0, 67, 47
1, 129107, Control_c, 0, 67, 51
1, 129121, Control_c, 0, 64, 61
1, 129121, Control_c, 0, 67, 56
1, 129136, Control_c, 0, 64, 78
1, 129136, Control_c, 0, 67, 62
1, 129143, Note_off_c, 0, 61, 59
1, 129151, Control_c, 0, 64, 96
1, 129151, Control_c, 0, 67, 67
1, 129166, Control_c, 0, 64, 127
1, 129166, Control_c, 0, 67, 71
1, 129181, Control_c, 0, 67, 74
1, 129193, Note_on_c, 0, 60, 69
1, 129196, Control_c, 0, 67, 76
1, 129211, Control_c, 0, 67, 79
1, 129226, Control_c, 0, 67, 84
1, 129241, Control_c, 0, 67, 90
1, 129256, Control_c, 0, 67, 95
1, 129271, Control_c, 0, 67, 101
1, 129279, Note_off_c, 0, 53, 63
1, 129285, Control_c, 0, 67, 105
1, 129300, Control_c, 0, 67, 109
1, 129315, Control_c, 0, 67, 112
1, 129330, Control_c, 0, 67, 115
1, 129345, Control_c, 0, 67, 121
1, 129354, Note_off_c, 0, 65, 64
1, 129359, Control_c, 0, 67, 126
1, 129374, Control_c, 0, 67, 127
1, 129377, Note_on_c, 0, 58, 73
1, 129381, Note_off_c, 0, 60, 61
1, 129389, Control_c, 0, 64, 117
1, 129404, Control_c, 0, 64, 90
1, 129419, Control_c, 0, 64, 69
1, 129433, Control_c, 0, 64, 0
1, 129448, Control_c, 0, 64, 59
1, 129463, Control_c, 0, 64, 70
1, 129478, Control_c, 0, 64, 85
1, 129493, Control_c, 0, 64, 113
1, 129507, Control_c, 0, 64, 127
1, 129530, Note_off_c, 0, 58, 64
1, 129542, Note_on_c, 0, 56, 71
1, 129596, Control_c, 0, 64, 98
1, 129611, Control_c, 0, 64, 77
1, 129625, Control_c, 0, 64, 64
1, 129640, Control_c, 0, 64, 68
1, 129655, Control_c, 0, 64, 78
1, 129657, Note_off_c, 0, 56, 61
1, 129678, Control_c, 0, 64, 103
1, 129693, Control_c, 0, 64, 127
1, 129720, Note_on_c, 0, 67, 79
1, 129735, Note_on_c, 0, 55, 66
1, 129773, Poly_aftertouch_c, 0, 42, 127
1, 129780, Note_off_c, 0, 55, 63
1, 129803, Note_off_c, 0, 67, 63
1, 129865, Poly_aftertouch_c, 0, 42, 0
1, 129894, Note_on_c, 0, 70, 83
1, 129905, Note_on_c, 0, 58, 70
1, 130019, Control_c, 0, 64, 114
1, 130032, Note_off_c, 0, 70, 60
1, 130034, Control_c, 0, 64, 88
1, 130040, Note_off_c, 0, 58, 63
1, 130049, Control_c, 0, 64, 63
1, 130063, Control_c, 0, 64, 0
1, 130093, Control_c, 0, 64, 63
1, 130108, Control_c, 0, 64, 80
1, 130110, Note_on_c, 0, 68, 79
1, 130123, Control_c, 0, 64, 104
1, 130124, Note_on_c, 0, 56, 68
1, 130138, Control_c, 0, 64, 127
1, 130190, Note_off_c, 0, 49, 61
1, 130207, Note_off_c, 0, 37, 63
1, 130223, Note_off_c, 0, 56, 63
1, 130226, Note_off_c, 0, 68, 62
1, 130534, Note_on_c, 0, 68, 82
1, 130543, Note_on_c, 0, 54, 61
1, 130546, Note_on_c, 0, 60, 58
1, 130551, Note_on_c, 0, 44, 53
1, 130552, Note_on_c, 0, 32, 55
1, 130619, Control_c, 0, 64, 121
1, 130634, Control_c, 0, 64, 96
1, 130648, Control_c, 0, 64, 79
1, 130663, Control_c, 0, 64, 61
1, 130678, Control_c, 0, 64, 0
1, 130693, Control_c, 0, 64, 16
1, 130707, Control_c, 0, 64, 67
1, 130722, Control_c, 0, 64, 80
1, 130737, Control_c, 0, 64, 98
1, 130752, Control_c, 0, 64, 113
1, 130767, Control_c, 0, 64, 127
1, 130841, Note_off_c, 0, 32, 40
1, 130842, Note_off_c, 0, 44, 60
1, 130851, Note_off_c, 0, 68, 61
1, 130936, Note_on_c, 0, 67, 73
1, 130963, Note_off_c, 0, 54, 50
1, 131088, Note_off_c, 0, 60, 61
1, 131092, Poly_aftertouch_c, 0, 65, 127
1, 131104, Note_on_c, 0, 66, 77
1, 131120, Poly_aftertouch_c, 0, 65, 0
1, 131146, Note_off_c, 0, 67, 57
1, 131239, Note_off_c, 0, 66, 56
1, 131294, Control_c, 0, 64, 104
1, 131303, Note_on_c, 0, 65, 68
1, 131305, Note_on_c, 0, 49, 58
1, 131309, Control_c, 0, 64, 78
1, 131315, Note_on_c, 0, 37, 47
1, 131323, Note_on_c, 0, 53, 50
1, 131323, Control_c, 0, 64, 0
1, 131339, Note_on_c, 0, 61, 41
1, 131383, Control_c, 0, 64, 70
1, 131393, Note_off_c, 0, 49, 62
1, 131397, Control_c, 0, 64, 91
1, 131412, Control_c, 0, 64, 127
1, 131420, Note_off_c, 0, 37, 63
1, 131428, Note_off_c, 0, 53, 64
1, 131439, Note_off_c, 0, 61, 61
1, 131446, Note_off_c, 0, 65, 64
1, 131721, Note_on_c, 0, 65, 68
1, 131724, Note_on_c, 0, 43, 66
1, 131740, Note_on_c, 0, 61, 54
1, 131741, Note_on_c, 0, 53, 50
1, 131748, Note_on_c, 0, 31, 50
1, 131842, Control_c, 0, 64, 126
1, 131857, Control_c, 0, 64, 111
1, 131872, Control_c, 0, 64, 95
1, 131887, Control_c, 0, 64, 78
1, 131901, Control_c, 0, 64, 48
1, 131924, Control_c, 0, 64, 0
1, 132087, Note_off_c, 0, 61, 51
1, 132108, Note_on_c, 0, 64, 64
1, 132146, Note_off_c, 0, 65, 60
1, 132277, Note_off_c, 0, 64, 63
1, 132282, Note_on_c, 0, 67, 66
1, 132428, Control_c, 0, 64, 33
1, 132442, Control_c, 0, 64, 63
1, 132457, Control_c, 0, 64, 69
1, 132472, Control_c, 0, 64, 74
1, 132478, Note_on_c, 0, 65, 60
1, 132487, Control_c, 0, 64, 80
1, 132488, Note_off_c, 0, 67, 56
1, 132502, Control_c, 0, 64, 87
1, 132515, Note_off_c, 0, 43, 60
1, 132517, Control_c, 0, 64, 93
1, 132532, Control_c, 0, 64, 99
1, 132546, Control_c, 0, 64, 107
1, 132561, Control_c, 0, 64, 116
1, 132575, Control_c, 0, 64, 127
1, 132606, Note_off_c, 0, 65, 65
1, 132608, Poly_aftertouch_c, 0, 33, 127
1, 132613, Note_off_c, 0, 53, 63
1, 132648, Note_off_c, 0, 31, 38
1, 132701, Poly_aftertouch_c, 0, 33, 0
1, 132902, Note_on_c, 0, 65, 65
1, 132916, Note_on_c, 0, 43, 60
1, 132916, Note_on_c, 0, 61, 55
1, 132922, Note_on_c, 0, 53, 39
1, 132923, Control_c, 0, 64, 117
1, 132934, Note_on_c, 0, 31, 50
1, 132938, Control_c, 0, 64, 98
1, 132953, Control_c, 0, 64, 80
1, 132968, Control_c, 0, 64, 61
1, 132982, Control_c, 0, 64, 0
1, 133012, Control_c, 0, 64, 37
1, 133027, Control_c, 0, 64, 72
1, 133041, Control_c, 0, 64, 84
1, 133056, Control_c, 0, 64, 100
1, 133071, Control_c, 0, 64, 112
1, 133086, Control_c, 0, 64, 123
1, 133101, Control_c, 0, 64, 127
1, 133108, Note_off_c, 0, 31, 52
1, 133111, Note_off_c, 0, 43, 59
1, 133125, Note_off_c, 0, 53, 52
1, 133137, Note_off_c, 0, 65, 54
1, 133259, Note_off_c, 0, 61, 57
1, 133265, Control_c, 0, 64, 119
1, 133279, Note_on_c, 0, 63, 60
1, 133280, Control_c, 0, 64, 98
1, 133281, Note_on_c, 0, 32, 59
1, 133283, Note_on_c, 0, 44, 66
1, 133294, Note_on_c, 0, 60, 55
1, 133295, Control_c, 0, 64, 78
1, 133310, Control_c, 0, 64, 11
1, 133325, Control_c, 0, 64, 0
1, 133339, Control_c, 0, 64, 61
1, 133354, Control_c, 0, 64, 72
1, 133369, Control_c, 0, 64, 85
1, 133371, Note_off_c, 0, 32, 61
1, 133372, Note_off_c, 0, 44, 63
1, 133384, Control_c, 0, 64, 102
1, 133399, Control_c, 0, 64, 125
1, 133421, Control_c, 0, 64, 127
1, 133435, Note_off_c, 0, 60, 59
1, 133451, Control_c, 0, 64, 115
1, 133466, Control_c, 0, 64, 94
1, 133471, Note_off_c, 0, 63, 30
1, 133475, Note_on_c, 0, 61, 65
1, 133480, Note_on_c, 0, 34, 59
1, 133480, Control_c, 0, 64, 77
1, 133482, Note_on_c, 0, 46, 61
1, 133483, Note_on_c, 0, 58, 50
1, 133495, Control_c, 0, 64, 70
1, 133510, Control_c, 0, 64, 77
1, 133523, Note_off_c, 0, 58, 49
1, 133524, Control_c, 0, 64, 89
1, 133532, Note_off_c, 0, 34, 63
1, 133539, Control_c, 0, 64, 106
1, 133542, Note_off_c, 0, 61, 62
1, 133551, Note_off_c, 0, 46, 57
1, 133554, Control_c, 0, 64, 127
1, 133703, Control_c, 0, 64, 108
1, 133716, Note_on_c, 0, 60, 63
1, 133718, Control_c, 0, 64, 80
1, 133725, Note_on_c, 0, 48, 56
1, 133730, Note_on_c, 0, 52, 54
1, 133732, Control_c, 0, 64, 0
1, 133740, Note_on_c, 0, 36, 39
1, 133836, Control_c, 0, 64, 70
1, 133851, Control_c, 0, 64, 83
1, 133853, Note_off_c, 0, 52, 59
1, 133853, Note_off_c, 0, 48, 65
1, 133864, Note_off_c, 0, 60, 61
1, 133866, Control_c, 0, 64, 102
1, 133880, Control_c, 0, 64, 118
1, 133895, Control_c, 0, 64, 125
1, 133899, Note_off_c, 0, 36, 49
1, 133910, Control_c, 0, 64, 127
1, 134178, Note_on_c, 0, 65, 68
1, 134189, Note_on_c, 0, 59, 61
1, 134197, Note_on_c, 0, 53, 43
1, 134198, Note_on_c, 0, 43, 47
1, 134210, Note_on_c, 0, 31, 45
1, 134289, Control_c, 0, 64, 122
1, 134303, Control_c, 0, 64, 113
1, 134318, Control_c, 0, 64, 103
1, 134333, Control_c, 0, 64, 91
1, 134347, Control_c, 0, 64, 76
1, 134362, Control_c, 0, 64, 40
1, 134377, Control_c, 0, 64, 0
1, 134540, Control_c, 0, 64, 61
1, 134555, Control_c, 0, 64, 67
1, 134570, Control_c, 0, 64, 72
1, 134585, Control_c, 0, 64, 79
1, 134600, Control_c, 0, 64, 85
1, 134600, Note_on_c, 0, 63, 63
1, 134614, Control_c, 0, 64, 90
1, 134629, Control_c, 0, 64, 94
1, 134644, Control_c, 0, 64, 98
1, 134645, Note_off_c, 0, 65, 57
1, 134659, Control_c, 0, 64, 103
1, 134674, Control_c, 0, 64, 107
1, 134688, Control_c, 0, 64, 112
1, 134703, Control_c, 0, 64, 116
1, 134718, Control_c, 0, 64, 120
1, 134733, Control_c, 0, 64, 122
1, 134747, Control_c, 0, 64, 123
1, 134762, Control_c, 0, 64, 124
1, 134777, Control_c, 0, 64, 125
1, 134799, Note_on_c, 0, 61, 62
1, 134808, Control_c, 0, 64, 125
1, 134823, Control_c, 0, 64, 126
1, 134829, Note_off_c, 0, 63, 57
1, 134839, Note_off_c, 0, 53, 55
1, 134875, Note_off_c, 0, 59, 36
1, 134894, Note_off_c, 0, 61, 59
1, 134949, Control_c, 0, 64, 125
1, 134964, Control_c, 0, 64, 125
1, 134978, Control_c, 0, 64, 123
1, 134993, Control_c, 0, 64, 119
1, 135008, Control_c, 0, 64, 110
1, 135023, Control_c, 0, 64, 95
1, 135038, Control_c, 0, 64, 72
1, 135045, Note_on_c, 0, 60, 53
1, 135049, Note_on_c, 0, 36, 41
1, 135052, Control_c, 0, 64, 0
1, 135059, Note_on_c, 0, 52, 46
1, 135082, Note_off_c, 0, 31, 39
1, 135126, Control_c, 0, 64, 11
1, 135141, Control_c, 0, 64, 69
1, 135146, Note_off_c, 0, 43, 41
1, 135156, Control_c, 0, 64, 81
1, 135170, Control_c, 0, 64, 96
1, 135185, Control_c, 0, 64, 108
1, 135188, Note_off_c, 0, 60, 62
1, 135200, Note_off_c, 0, 52, 65
1, 135200, Control_c, 0, 64, 111
1, 135215, Control_c, 0, 64, 113
1, 135230, Control_c, 0, 64, 118
1, 135244, Control_c, 0, 64, 125
1, 135259, Control_c, 0, 64, 127
1, 135265, Note_off_c, 0, 36, 41
1, 135528, Note_on_c, 0, 65, 56
1, 135530, Note_on_c, 0, 61, 65
1, 135536, Note_on_c, 0, 53, 45
1, 135537, Note_on_c, 0, 31, 47
1, 135554, Note_on_c, 0, 43, 27
1, 135570, Control_c, 0, 64, 125
1, 135586, Control_c, 0, 64, 121
1, 135601, Control_c, 0, 64, 116
1, 135616, Control_c, 0, 64, 111
1, 135631, Control_c, 0, 64, 101
1, 135646, Control_c, 0, 64, 87
1, 135661, Control_c, 0, 64, 70
1, 135682, Control_c, 0, 64, 0
1, 135772, Control_c, 0, 64, 62
1, 135787, Control_c, 0, 64, 73
1, 135788, Note_off_c, 0, 65, 58
1, 135796, Note_off_c, 0, 43, 41
1, 135801, Control_c, 0, 64, 88
1, 135816, Control_c, 0, 64, 102
1, 135831, Control_c, 0, 64, 109
1, 135843, Note_off_c, 0, 53, 60
1, 135846, Control_c, 0, 64, 113
1, 135861, Control_c, 0, 64, 116
1, 135875, Control_c, 0, 64, 120
1, 135890, Control_c, 0, 64, 126
1, 135905, Control_c, 0, 64, 127
1, 135950, Note_off_c, 0, 61, 54
1, 136008, Control_c, 0, 64, 119
1, 136016, Note_on_c, 0, 63, 53
1, 136021, Note_on_c, 0, 32, 50
1, 136023, Control_c, 0, 64, 102
1, 136025, Note_on_c, 0, 60, 51
1, 136038, Control_c, 0, 64, 83
1, 136053, Control_c, 0, 64, 57
1, 136067, Control_c, 0, 64, 0
1, 136073, Note_off_c, 0, 31, 41
1, 136112, Control_c, 0, 64, 57
1, 136127, Control_c, 0, 64, 73
1, 136141, Control_c, 0, 64, 87
1, 136156, Control_c, 0, 64, 106
1, 136165, Note_off_c, 0, 63, 51
1, 136171, Control_c, 0, 64, 120
1, 136186, Control_c, 0, 64, 122
1, 136250, Note_off_c, 0, 60, 59
1, 136260, Control_c, 0, 64, 118
1, 136275, Control_c, 0, 64, 98
1, 136290, Control_c, 0, 64, 76
1, 136294, Note_on_c, 0, 61, 58
1, 136304, Note_on_c, 0, 58, 47
1, 136305, Control_c, 0, 64, 0
1, 136318, Note_on_c, 0, 34, 45
1, 136349, Control_c, 0, 64, 14
1, 136350, Note_off_c, 0, 32, 40
1, 136364, Control_c, 0, 64, 71
1, 136379, Control_c, 0, 64, 87
1, 136395, Control_c, 0, 64, 107
1, 136398, Note_off_c, 0, 58, 63
1, 136401, Note_off_c, 0, 61, 62
1, 136416, Control_c, 0, 64, 127
1, 136428, Note_off_c, 0, 34, 58
1, 136696, Note_on_c, 0, 60, 55
1, 136705, Note_on_c, 0, 52, 47
1, 136724, Note_on_c, 0, 36, 40
1, 136742, Control_c, 0, 64, 121
1, 136757, Control_c, 0, 64, 112
1, 136772, Control_c, 0, 64, 100
1, 136787, Control_c, 0, 64, 84
1, 136802, Control_c, 0, 64, 64
1, 136816, Control_c, 0, 64, 0
1, 136890, Control_c, 0, 64, 42
1, 136905, Control_c, 0, 64, 71
1, 136920, Control_c, 0, 64, 88
1, 136934, Control_c, 0, 64, 115
1, 136949, Control_c, 0, 64, 127
1, 137027, Note_off_c, 0, 52, 62
1, 137039, Note_off_c, 0, 60, 54
1, 137154, Note_on_c, 0, 62, 63
1, 137182, Note_on_c, 0, 53, 48
1, 137224, Note_off_c, 0, 53, 65
1, 137231, Note_off_c, 0, 62, 59
1, 137418, Note_on_c, 0, 65, 65
1, 137420, Note_on_c, 0, 60, 40
1, 137427, Note_on_c, 0, 48, 50
1, 137440, Note_on_c, 0, 56, 36
1, 137447, Control_c, 0, 64, 118
1, 137462, Control_c, 0, 64, 100
1, 137477, Control_c, 0, 64, 84
1, 137492, Control_c, 0, 64, 66
1, 137507, Control_c, 0, 64, 0
1, 137530, Note_off_c, 0, 36, 47
1, 137551, Control_c, 0, 64, 40
1, 137565, Control_c, 0, 64, 69
1, 137580, Control_c, 0, 64, 79
1, 137595, Control_c, 0, 64, 91
1, 137610, Control_c, 0, 64, 103
1, 137625, Control_c, 0, 64, 110
1, 137639, Control_c, 0, 64, 114
1, 137654, Control_c, 0, 64, 118
1, 137665, Note_off_c, 0, 56, 54
1, 137669, Control_c, 0, 64, 121
1, 137679, Note_off_c, 0, 60, 36
1, 137683, Control_c, 0, 64, 126
1, 137698, Control_c, 0, 64, 127
1, 137798, Note_off_c, 0, 65, 56
1, 137820, Note_on_c, 0, 64, 64
1, 137828, Note_on_c, 0, 60, 47
1, 137829, Note_on_c, 0, 55, 57
1, 137927, Note_off_c, 0, 55, 59
1, 137970, Note_off_c, 0, 60, 53
1, 138004, Note_off_c, 0, 64, 60
1, 138070, Note_on_c, 0, 62, 67
1, 138076, Note_on_c, 0, 53, 55
1, 138077, Control_c, 0, 64, 125
1, 138083, Note_on_c, 0, 60, 55
1, 138092, Control_c, 0, 64, 122
1, 138107, Control_c, 0, 64, 119
1, 138121, Control_c, 0, 64, 114
1, 138136, Control_c, 0, 64, 104
1, 138151, Control_c, 0, 64, 89
1, 138166, Control_c, 0, 64, 71
1, 138181, Control_c, 0, 64, 0
1, 138240, Control_c, 0, 64, 61
1, 138255, Control_c, 0, 64, 73
1, 138270, Control_c, 0, 64, 88
1, 138285, Control_c, 0, 64, 110
1, 138300, Control_c, 0, 64, 127
1, 138353, Note_off_c, 0, 62, 58
1, 138375, Note_off_c, 0, 60, 54
1, 138476, Note_on_c, 0, 64, 74
1, 138479, Note_on_c, 0, 55, 59
1, 138523, Note_off_c, 0, 64, 64
1, 138526, Note_on_c, 0, 60, 12
1, 138566, Note_off_c, 0, 60, 39
1, 138587, Note_off_c, 0, 53, 49
1, 138724, Note_off_c, 0, 55, 57
1, 138738, Note_on_c, 0, 68, 73
1, 138752, Note_on_c, 0, 64, 60
1, 138753, Note_on_c, 0, 60, 58
1, 138766, Control_c, 0, 64, 125
1, 138781, Control_c, 0, 64, 109
1, 138797, Control_c, 0, 64, 94
1, 138811, Control_c, 0, 64, 77
1, 138826, Control_c, 0, 64, 51
1, 138841, Control_c, 0, 64, 0
1, 138885, Control_c, 0, 64, 67
1, 138900, Control_c, 0, 64, 80
1, 138915, Control_c, 0, 64, 99
1, 138930, Control_c, 0, 64, 127
1, 138959, Control_c, 0, 67, 123
1, 138974, Control_c, 0, 67, 115
1, 138989, Control_c, 0, 67, 106
1, 139004, Control_c, 0, 67, 95
1, 139018, Control_c, 0, 67, 85
1, 139030, Note_off_c, 0, 68, 60
1, 139033, Control_c, 0, 67, 76
1, 139048, Control_c, 0, 67, 66
1, 139054, Note_off_c, 0, 60, 48
1, 139063, Note_off_c, 0, 64, 56
1, 139063, Control_c, 0, 67, 56
1, 139078, Control_c, 0, 67, 48
1, 139093, Control_c, 0, 67, 41
1, 139107, Control_c, 0, 67, 35
1, 139122, Control_c, 0, 67, 31
1, 139137, Control_c, 0, 67, 28
1, 139152, Control_c, 0, 67, 26
1, 139167, Control_c, 0, 67, 24
1, 139182, Control_c, 0, 67, 22
1, 139186, Note_on_c, 0, 67, 74
1, 139197, Control_c, 0, 67, 19
1, 139200, Note_on_c, 0, 58, 60
1, 139206, Note_on_c, 0, 64, 52
1, 139211, Control_c, 0, 67, 16
1, 139226, Control_c, 0, 67, 13
1, 139229, Note_off_c, 0, 64, 61
1, 139234, Note_off_c, 0, 67, 64
1, 139241, Control_c, 0, 67, 10
1, 139256, Control_c, 0, 67, 8
1, 139271, Control_c, 0, 67, 0
1, 139283, Note_off_c, 0, 58, 56
1, 139284, Note_off_c, 0, 48, 42
1, 139459, Note_on_c, 0, 72, 76
1, 139470, Note_on_c, 0, 64, 59
1, 139475, Note_on_c, 0, 48, 57
1, 139480, Note_on_c, 0, 55, 52
1, 139489, Note_on_c, 0, 60, 55
1, 139492, Note_on_c, 0, 58, 50
1, 139500, Control_c, 0, 64, 108
1, 139515, Control_c, 0, 64, 91
1, 139530, Control_c, 0, 64, 70
1, 139544, Control_c, 0, 64, 0
1, 139590, Control_c, 0, 64, 67
1, 139605, Control_c, 0, 64, 81
1, 139620, Control_c, 0, 64, 99
1, 139634, Control_c, 0, 64, 122
1, 139649, Control_c, 0, 64, 127
1, 139725, Note_off_c, 0, 55, 59
1, 139738, Note_off_c, 0, 48, 33
1, 139744, Note_off_c, 0, 60, 56
1, 139760, Note_off_c, 0, 64, 59
1, 139763, Note_off_c, 0, 58, 55
1, 139769, Note_off_c, 0, 72, 57
1, 139865, Note_on_c, 0, 55, 59
1, 139865, Note_on_c, 0, 74, 76
1, 139873, Note_on_c, 0, 62, 62
1, 139880, Note_on_c, 0, 58, 56
1, 139880, Note_on_c, 0, 72, 64
1, 139883, Note_on_c, 0, 65, 62
1, 139911, Note_off_c, 0, 58, 65
1, 139915, Note_off_c, 0, 62, 59
1, 139924, Note_off_c, 0, 55, 64
1, 139931, Note_off_c, 0, 72, 63
1, 139933, Note_off_c, 0, 65, 61
1, 139951, Note_off_c, 0, 74, 61
1, 140125, Note_on_c, 0, 72, 68
1, 140125, Note_on_c, 0, 77, 83
1, 140127, Note_on_c, 0, 55, 52
1, 140137, Note_on_c, 0, 48, 55
1, 140139, Note_on_c, 0, 58, 56
1, 140139, Note_on_c, 0, 68, 67
1, 140150, Note_on_c, 0, 65, 63
1, 140175, Control_c, 0, 64, 126
1, 140190, Control_c, 0, 64, 104
1, 140205, Control_c, 0, 64, 83
1, 140220, Control_c, 0, 64, 64
1, 140234, Control_c, 0, 64, 0
1, 140279, Control_c, 0, 64, 53
1, 140294, Control_c, 0, 64, 75
1, 140309, Control_c, 0, 64, 90
1, 140324, Control_c, 0, 64, 112
1, 140339, Control_c, 0, 64, 127
1, 140347, Note_off_c, 0, 72, 63
1, 140356, Note_off_c, 0, 77, 63
1, 140394, Note_off_c, 0, 68, 64
1, 140429, Note_off_c, 0, 55, 53
1, 140432, Note_off_c, 0, 65, 60
1, 140437, Note_off_c, 0, 58, 56
1, 140456, Note_off_c, 0, 48, 36
1, 140544, Note_on_c, 0, 67, 65
1, 140545, Note_on_c, 0, 76, 88
1, 140560, Note_on_c, 0, 55, 67
1, 140562, Note_on_c, 0, 64, 70
1, 140565, Note_on_c, 0, 58, 63
1, 140569, Note_on_c, 0, 72, 49
1, 140575, Note_on_c, 0, 48, 58
1, 140612, Note_off_c, 0, 67, 63
1, 140633, Note_off_c, 0, 76, 64
1, 140636, Note_off_c, 0, 72, 57
1, 140639, Note_off_c, 0, 55, 59
1, 140653, Note_off_c, 0, 64, 64
1, 140655, Note_off_c, 0, 58, 55
1, 140658, Note_off_c, 0, 48, 57
1, 140821, Note_on_c, 0, 72, 72
1, 140821, Note_on_c, 0, 74, 88
1, 140822, Note_on_c, 0, 65, 73
1, 140827, Note_on_c, 0, 62, 81
1, 140835, Note_on_c, 0, 58, 68
1, 140838, Note_on_c, 0, 53, 65
1, 140839, Note_on_c, 0, 48, 59
1, 140857, Control_c, 0, 64, 109
1, 140872, Control_c, 0, 64, 85
1, 140887, Control_c, 0, 64, 65
1, 140908, Control_c, 0, 64, 0
1, 140953, Control_c, 0, 64, 65
1, 140968, Control_c, 0, 64, 86
1, 140982, Control_c, 0, 64, 113
1, 140988, Note_off_c, 0, 65, 66
1, 140997, Control_c, 0, 64, 127
1, 141019, Note_off_c, 0, 62, 57
1, 141023, Note_off_c, 0, 48, 55
1, 141036, Note_off_c, 0, 58, 56
1, 141038, Note_off_c, 0, 74, 57
1, 141052, Note_off_c, 0, 72, 50
1, 141060, Note_off_c, 0, 53, 56
1, 141189, Note_on_c, 0, 76, 86
1, 141191, Note_on_c, 0, 67, 77
1, 141192, Note_on_c, 0, 64, 75
1, 141206, Note_on_c, 0, 58, 67
1, 141207, Note_on_c, 0, 55, 59
1, 141222, Note_off_c, 0, 64, 63
1, 141223, Note_on_c, 0, 48, 55
1, 141236, Note_off_c, 0, 67, 62
1, 141236, Note_off_c, 0, 55, 67
1, 141251, Note_off_c, 0, 76, 67
1, 141256, Note_off_c, 0, 48, 64
1, 141265, Note_off_c, 0, 58, 63
1, 141344, Note_on_c, 0, 76, 77
1, 141346, Note_on_c, 0, 72, 78
1, 141348, Note_on_c, 0, 67, 79
1, 141418, Note_off_c, 0, 67, 55
1, 141434, Note_on_c, 0, 48, 58
1, 141486, Note_on_c, 0, 58, 69
1, 141609, Note_on_c, 0, 80, 91
1, 141623, Note_on_c, 0, 68, 75
1, 141626, Note_on_c, 0, 60, 60
1, 141688, Control_c, 0, 64, 107
1, 141703, Control_c, 0, 64, 87
1, 141718, Control_c, 0, 64, 65
1, 141732, Control_c, 0, 64, 0
1, 141821, Control_c, 0, 64, 55
1, 141836, Control_c, 0, 64, 74
1, 141851, Control_c, 0, 64, 88
1, 141865, Control_c, 0, 64, 106
1, 141868, Note_off_c, 0, 48, 34
1, 141880, Control_c, 0, 64, 125
1, 141895, Control_c, 0, 64, 127
1, 141907, Note_off_c, 0, 80, 61
1, 141926, Note_off_c, 0, 76, 53
1, 141956, Note_off_c, 0, 58, 63
1, 141962, Note_off_c, 0, 72, 60
1, 141966, Note_off_c, 0, 60, 60
1, 141972, Note_off_c, 0, 68, 62
1, 142246, Note_on_c, 0, 79, 73
1, 142253, Note_on_c, 0, 67, 56
1, 142254, Note_on_c, 0, 70, 58
1, 142260, Note_on_c, 0, 60, 41
1, 142266, Note_on_c, 0, 72, 50
1, 142271, Note_on_c, 0, 58, 46
1, 142381, Note_off_c, 0, 60, 49
1, 142389, Note_off_c, 0, 72, 36
1, 142415, Note_off_c, 0, 67, 38
1, 142425, Note_off_c, 0, 70, 60
1, 142608, Note_on_c, 0, 77, 66
1, 142611, Note_on_c, 0, 72, 53
1, 142612, Note_on_c, 0, 68, 51
1, 142620, Note_on_c, 0, 65, 43
1, 142625, Note_on_c, 0, 53, 44
1, 142628, Note_on_c, 0, 60, 42
1, 142639, Note_off_c, 0, 58, 38
1, 142644, Control_c, 0, 64, 115
1, 142658, Note_off_c, 0, 79, 55
1, 142659, Control_c, 0, 64, 93
1, 142674, Control_c, 0, 64, 69
1, 142688, Control_c, 0, 64, 0
1, 142748, Control_c, 0, 64, 31
1, 142756, Note_off_c, 0, 77, 57
1, 142762, Control_c, 0, 64, 70
1, 142778, Control_c, 0, 64, 83
1, 142790, Note_off_c, 0, 68, 64
1, 142790, Note_off_c, 0, 72, 63
1, 142793, Control_c, 0, 64, 108
1, 142808, Control_c, 0, 64, 127
1, 142837, Note_off_c, 0, 65, 66
1, 142876, Note_off_c, 0, 53, 34
1, 142894, Note_off_c, 0, 60, 53
1, 143120, Note_on_c, 0, 68, 84
1, 143135, Note_on_c, 0, 56, 66
1, 143216, Control_c, 0, 64, 107
1, 143231, Control_c, 0, 64, 82
1, 143246, Control_c, 0, 64, 0
1, 143453, Control_c, 0, 67, 8
1, 143468, Control_c, 0, 67, 10
1, 143483, Control_c, 0, 64, 53
1, 143483, Control_c, 0, 67, 13
1, 143498, Control_c, 0, 64, 67
1, 143498, Control_c, 0, 67, 15
1, 143512, Control_c, 0, 64, 71
1, 143512, Control_c, 0, 67, 19
1, 143527, Control_c, 0, 64, 75
1, 143527, Control_c, 0, 67, 24
1, 143542, Control_c, 0, 64, 80
1, 143542, Control_c, 0, 67, 30
1, 143557, Control_c, 0, 64, 89
1, 143557, Control_c, 0, 67, 38
1, 143572, Control_c, 0, 64, 96
1, 143572, Control_c, 0, 67, 46
1, 143588, Control_c, 0, 64, 103
1, 143588, Control_c, 0, 67, 56
1, 143602, Control_c, 0, 64, 112
1, 143602, Control_c, 0, 67, 66
1, 143617, Control_c, 0, 64, 125
1, 143617, Control_c, 0, 67, 74
1, 143632, Control_c, 0, 64, 127
1, 143632, Control_c, 0, 67, 81
1, 143647, Control_c, 0, 67, 86
1, 143662, Control_c, 0, 67, 91
1, 143676, Control_c, 0, 67, 96
1, 143691, Control_c, 0, 67, 103
1, 143706, Control_c, 0, 67, 110
1, 143721, Control_c, 0, 67, 117
1, 143735, Control_c, 0, 67, 123
1, 143750, Control_c, 0, 67, 127
1, 143776, Note_off_c, 0, 56, 59
1, 143781, Note_on_c, 0, 59, 49
1, 143792, Note_on_c, 0, 62, 59
1, 143800, Note_on_c, 0, 40, 43
1, 143807, Note_on_c, 0, 52, 35
1, 143835, Note_off_c, 0, 40, 61
1, 143864, Note_off_c, 0, 52, 57
1, 143869, Note_off_c, 0, 59, 59
1, 143896, Note_off_c, 0, 62, 58
1, 143963, Note_on_c, 0, 39, 58
1, 144128, Control_c, 0, 64, 121
1, 144137, Note_on_c, 0, 63, 62
1, 144142, Control_c, 0, 64, 98
1, 144157, Control_c, 0, 64, 79
1, 144159, Note_on_c, 0, 60, 50
1, 144172, Control_c, 0, 64, 59
1, 144187, Poly_aftertouch_c, 0, 40, 127
1, 144187, Control_c, 0, 64, 0
1, 144190, Note_on_c, 0, 51, 46
1, 144195, Note_off_c, 0, 39, 34
1, 144202, Control_c, 0, 64, 61
1, 144212, Note_off_c, 0, 60, 0
1, 144212, Note_on_c, 0, 60, 16
1, 144217, Control_c, 0, 64, 72
1, 144223, Poly_aftertouch_c, 0, 40, 0
1, 144232, Control_c, 0, 64, 85
1, 144247, Control_c, 0, 64, 102
1, 144261, Control_c, 0, 64, 119
1, 144276, Control_c, 0, 64, 127
1, 144316, Note_off_c, 0, 68, 61
1, 144474, Note_on_c, 0, 67, 68
1, 144485, Note_on_c, 0, 61, 53
1, 144497, Note_on_c, 0, 58, 37
1, 144514, Note_off_c, 0, 63, 61
1, 144589, Note_off_c, 0, 61, 56
1, 144669, Note_off_c, 0, 60, 19
1, 144677, Note_on_c, 0, 65, 74
1, 144684, Note_on_c, 0, 56, 64
1, 144697, Note_off_c, 0, 58, 61
1, 144697, Control_c, 0, 64, 110
1, 144712, Control_c, 0, 64, 91
1, 144727, Control_c, 0, 64, 73
1, 144731, Note_off_c, 0, 67, 59
1, 144742, Control_c, 0, 64, 59
1, 144756, Control_c, 0, 64, 64
1, 144771, Control_c, 0, 64, 70
1, 144786, Control_c, 0, 64, 79
1, 144801, Control_c, 0, 64, 93
1, 144816, Control_c, 0, 64, 103
1, 144831, Control_c, 0, 64, 111
1, 144846, Control_c, 0, 64, 113
1, 144864, Note_off_c, 0, 56, 61
1, 144864, Note_off_c, 0, 65, 65
1, 144882, Note_on_c, 0, 63, 71
1, 144885, Note_on_c, 0, 55, 65
1, 144890, Control_c, 0, 64, 111
1, 144905, Control_c, 0, 64, 97
1, 144920, Control_c, 0, 64, 77
1, 144935, Control_c, 0, 64, 0
1, 144994, Control_c, 0, 64, 65
1, 145009, Control_c, 0, 64, 77
1, 145024, Control_c, 0, 64, 91
1, 145038, Control_c, 0, 64, 104
1, 145053, Control_c, 0, 64, 110
1, 145068, Control_c, 0, 64, 111
1, 145071, Note_on_c, 0, 72, 76
1, 145082, Control_c, 0, 64, 112
1, 145084, Note_off_c, 0, 55, 60
1, 145090, Note_on_c, 0, 53, 58
1, 145097, Control_c, 0, 64, 114
1, 145106, Note_off_c, 0, 63, 63
1, 145112, Control_c, 0, 64, 118
1, 145127, Control_c, 0, 64, 125
1, 145142, Control_c, 0, 64, 127
1, 145160, Note_off_c, 0, 72, 63
1, 145163, Note_off_c, 0, 51, 48
1, 145210, Note_off_c, 0, 53, 64
1, 145264, Note_on_c, 0, 70, 75
1, 145273, Note_on_c, 0, 55, 45
1, 145293, Note_on_c, 0, 61, 49
1, 145295, Note_on_c, 0, 63, 45
1, 145350, Note_off_c, 0, 63, 56
1, 145364, Note_off_c, 0, 55, 62
1, 145400, Note_on_c, 0, 44, 61
1, 145469, Note_off_c, 0, 61, 55
1, 145550, Control_c, 0, 64, 126
1, 145557, Note_on_c, 0, 68, 65
1, 145565, Control_c, 0, 64, 119
1, 145570, Note_on_c, 0, 60, 48
1, 145575, Note_on_c, 0, 63, 52
1, 145579, Note_on_c, 0, 56, 52
1, 145579, Control_c, 0, 64, 111
1, 145594, Control_c, 0, 64, 99
1, 145609, Control_c, 0, 64, 83
1, 145622, Note_off_c, 0, 70, 54
1, 145624, Control_c, 0, 64, 61
1, 145639, Control_c, 0, 64, 0
1, 145728, Control_c, 0, 64, 22
1, 145743, Control_c, 0, 64, 67
1, 145758, Control_c, 0, 64, 80
1, 145772, Control_c, 0, 64, 93
1, 145787, Control_c, 0, 64, 104
1, 145802, Control_c, 0, 64, 111
1, 145803, Note_off_c, 0, 60, 56
1, 145817, Control_c, 0, 64, 118
1, 145826, Note_off_c, 0, 44, 61
1, 145832, Control_c, 0, 64, 125
1, 145846, Control_c, 0, 64, 127
1, 145848, Note_off_c, 0, 63, 63
1, 145850, Note_off_c, 0, 68, 63
1, 146280, Note_on_c, 0, 72, 71
1, 146291, Note_on_c, 0, 65, 76
1, 146303, Note_on_c, 0, 62, 60
1, 146358, Control_c, 0, 64, 121
1, 146373, Control_c, 0, 64, 109
1, 146388, Control_c, 0, 64, 95
1, 146402, Control_c, 0, 64, 81
1, 146417, Control_c, 0, 64, 63
1, 146432, Control_c, 0, 64, 0
1, 146462, Control_c, 0, 64, 59
1, 146476, Control_c, 0, 64, 72
1, 146491, Control_c, 0, 64, 84
1, 146506, Control_c, 0, 64, 96
1, 146521, Control_c, 0, 64, 105
1, 146536, Control_c, 0, 64, 110
1, 146551, Control_c, 0, 64, 112
1, 146566, Control_c, 0, 64, 112
1, 146581, Control_c, 0, 64, 113
1, 146595, Control_c, 0, 64, 114
1, 146610, Control_c, 0, 64, 115
1, 146625, Control_c, 0, 64, 115
1, 146640, Control_c, 0, 64, 117
1, 146654, Control_c, 0, 64, 119
1, 146669, Control_c, 0, 64, 120
1, 146684, Control_c, 0, 64, 122
1, 146699, Control_c, 0, 64, 123
1, 146714, Control_c, 0, 64, 125
1, 146728, Control_c, 0, 64, 125
1, 146743, Control_c, 0, 64, 126
1, 146758, Control_c, 0, 64, 126
1, 146789, Control_c, 0, 64, 127
1, 146845, Note_on_c, 0, 66, 70
1, 146848, Note_on_c, 0, 63, 55
1, 146852, Note_off_c, 0, 65, 64
1, 146926, Note_off_c, 0, 56, 47
1, 147021, Note_off_c, 0, 62, 29
1, 147033, Control_c, 0, 64, 126
1, 147092, Control_c, 0, 64, 125
1, 147107, Control_c, 0, 64, 124
1, 147122, Control_c, 0, 64, 121
1, 147137, Control_c, 0, 64, 119
1, 147151, Control_c, 0, 64, 116
1, 147166, Control_c, 0, 64, 114
1, 147181, Control_c, 0, 64, 111
1, 147189, Note_on_c, 0, 55, 47
1, 147196, Control_c, 0, 64, 104
1, 147201, Note_on_c, 0, 67, 62
1, 147211, Control_c, 0, 64, 93
1, 147224, Note_off_c, 0, 66, 58
1, 147225, Control_c, 0, 64, 77
1, 147228, Note_off_c, 0, 63, 56
1, 147240, Control_c, 0, 64, 0
1, 147344, Control_c, 0, 64, 54
1, 147359, Control_c, 0, 64, 70
1, 147374, Control_c, 0, 64, 81
1, 147388, Control_c, 0, 64, 90
1, 147403, Control_c, 0, 64, 94
1, 147418, Control_c, 0, 64, 95
1, 147433, Control_c, 0, 64, 96
1, 147448, Control_c, 0, 64, 97
1, 147463, Control_c, 0, 64, 98
1, 147477, Control_c, 0, 64, 101
1, 147484, Note_on_c, 0, 65, 50
1, 147484, Note_on_c, 0, 71, 61
1, 147489, Note_on_c, 0, 62, 46
1, 147492, Control_c, 0, 64, 102
1, 147507, Control_c, 0, 64, 103
1, 147522, Control_c, 0, 64, 104
1, 147537, Control_c, 0, 64, 105
1, 147551, Note_off_c, 0, 72, 53
1, 147551, Control_c, 0, 64, 105
1, 147567, Control_c, 0, 64, 106
1, 147574, Note_off_c, 0, 67, 36
1, 147582, Control_c, 0, 64, 107
1, 147612, Control_c, 0, 64, 108
1, 147719, Note_on_c, 0, 69, 70
1, 147725, Note_on_c, 0, 60, 48
1, 147725, Note_off_c, 0, 65, 38
1, 147732, Note_off_c, 0, 62, 48
1, 147763, Note_off_c, 0, 71, 60
1, 147871, Control_c, 0, 64, 107
1, 147886, Control_c, 0, 64, 107
1, 147900, Control_c, 0, 64, 106
1, 147915, Control_c, 0, 64, 103
1, 147930, Control_c, 0, 64, 96
1, 147945, Control_c, 0, 64, 83
1, 147956, Note_off_c, 0, 69, 63
1, 147958, Note_on_c, 0, 67, 62
1, 147960, Control_c, 0, 64, 55
1, 147966, Note_off_c, 0, 60, 55
1, 147967, Note_on_c, 0, 59, 45
1, 147974, Control_c, 0, 64, 0
1, 148078, Control_c, 0, 64, 68
1, 148092, Control_c, 0, 64, 78
1, 148107, Control_c, 0, 64, 88
1, 148122, Control_c, 0, 64, 94
1, 148137, Control_c, 0, 64, 95
1, 148226, Control_c, 0, 64, 90
1, 148241, Control_c, 0, 64, 76
1, 148243, Note_on_c, 0, 76, 67
1, 148248, Note_on_c, 0, 57, 48
1, 148256, Control_c, 0, 64, 29
1, 148271, Control_c, 0, 64, 0
1, 148277, Note_off_c, 0, 59, 37
1, 148300, Control_c, 0, 64, 57
1, 148315, Control_c, 0, 64, 72
1, 148330, Control_c, 0, 64, 88
1, 148333, Note_off_c, 0, 67, 62
1, 148345, Control_c, 0, 64, 103
1, 148357, Note_off_c, 0, 76, 65
1, 148360, Control_c, 0, 64, 117
1, 148375, Control_c, 0, 64, 127
1, 148545, Control_c, 0, 64, 120
1, 148560, Control_c, 0, 64, 102
1, 148570, Note_on_c, 0, 74, 60
1, 148575, Control_c, 0, 64, 83
1, 148590, Control_c, 0, 64, 63
1, 148593, Note_on_c, 0, 59, 40
1, 148593, Note_on_c, 0, 67, 41
1, 148601, Note_on_c, 0, 65, 32
1, 148605, Control_c, 0, 64, 0
1, 148622, Note_off_c, 0, 57, 29
1, 148634, Control_c, 0, 64, 42
1, 148647, Note_off_c, 0, 55, 36
1, 148649, Control_c, 0, 64, 71
1, 148664, Note_off_c, 0, 67, 62
1, 148664, Control_c, 0, 64, 83
1, 148666, Note_off_c, 0, 59, 55
1, 148679, Control_c, 0, 64, 98
1, 148686, Note_off_c, 0, 65, 61
1, 148694, Control_c, 0, 64, 112
1, 148709, Control_c, 0, 64, 123
1, 148723, Control_c, 0, 64, 127
1, 148975, Control_c, 0, 64, 123
1, 148989, Control_c, 0, 64, 119
1, 149004, Control_c, 0, 64, 115
1, 149019, Control_c, 0, 64, 109
1, 149023, Note_on_c, 0, 48, 43
1, 149034, Control_c, 0, 64, 98
1, 149038, Note_on_c, 0, 72, 54
1, 149049, Control_c, 0, 64, 82
1, 149051, Note_on_c, 0, 60, 19
1, 149055, Note_on_c, 0, 64, 23
1, 149061, Note_on_c, 0, 67, 36
1, 149064, Control_c, 0, 64, 63
1, 149079, Control_c, 0, 64, 0
1, 149091, Note_off_c, 0, 74, 40
1, 149160, Control_c, 0, 64, 57
1, 149176, Control_c, 0, 64, 71
1, 149191, Control_c, 0, 64, 83
1, 149206, Control_c, 0, 64, 99
1, 149220, Control_c, 0, 64, 108
1, 149224, Note_off_c, 0, 64, 41
1, 149235, Control_c, 0, 64, 114
1, 149250, Control_c, 0, 64, 123
1, 149259, Note_off_c, 0, 67, 49
1, 149265, Control_c, 0, 64, 127
1, 149266, Note_off_c, 0, 72, 60
1, 149369, Note_off_c, 0, 48, 45
1, 149395, Note_off_c, 0, 60, 34
1, 149693, Note_on_c, 0, 84, 50
1, 149959, Note_on_c, 0, 72, 40
1, 149997, Note_off_c, 0, 84, 33
1, 150041, Note_off_c, 0, 72, 52
1, 150361, Note_on_c, 0, 84, 62
1, 150587, Note_on_c, 0, 72, 50
1, 150628, Note_off_c, 0, 84, 35
1, 150679, Note_off_c, 0, 72, 59
1, 150994, Note_on_c, 0, 84, 70
1, 151256, Note_on_c, 0, 72, 51
1, 151335, Note_off_c, 0, 84, 35
1, 151368, Note_off_c, 0, 72, 55
1, 151790, Note_on_c, 0, 84, 60
1, 152206, Note_on_c, 0, 72, 43
1, 152211, Note_on_c, 0, 36, 35
1, 152215, Control_c, 0, 64, 115
1, 152230, Control_c, 0, 64, 96
1, 152245, Control_c, 0, 64, 77
1, 152260, Note_off_c, 0, 84, 39
1, 152260, Control_c, 0, 64, 0
1, 152304, Control_c, 0, 64, 57
1, 152319, Control_c, 0, 64, 73
1, 152334, Control_c, 0, 64, 87
1, 152337, Note_off_c, 0, 72, 52
1, 152349, Control_c, 0, 64, 109
1, 152364, Control_c, 0, 64, 127
1, 152403, Note_off_c, 0, 36, 46
1, 152709, Note_on_c, 0, 81, 65
1, 152725, Note_on_c, 0, 55, 45
1, 152735, Note_on_c, 0, 65, 42
1, 152742, Note_on_c, 0, 70, 38
1, 152756, Note_on_c, 0, 60, 33
1, 152773, Note_off_c, 0, 55, 60
1, 152783, Note_off_c, 0, 70, 48
1, 152787, Note_off_c, 0, 65, 63
1, 152798, Note_off_c, 0, 60, 63
1, 152970, Note_off_c, 0, 81, 53
1, 152972, Note_on_c, 0, 72, 50
1, 152985, Note_on_c, 0, 48, 49
1, 153051, Note_off_c, 0, 72, 64
1, 153058, Note_off_c, 0, 48, 63
1, 153354, Note_on_c, 0, 79, 74
1, 153365, Note_on_c, 0, 55, 43
1, 153371, Note_on_c, 0, 64, 44
1, 153374, Note_on_c, 0, 60, 43
1, 153383, Note_on_c, 0, 70, 37
1, 153415, Note_off_c, 0, 55, 59
1, 153443, Note_off_c, 0, 64, 52
1, 153466, Note_off_c, 0, 60, 52
1, 153497, Note_off_c, 0, 70, 37
1, 153603, Note_on_c, 0, 72, 55
1, 153603, Control_c, 0, 64, 104
1, 153610, Note_on_c, 0, 53, 52
1, 153618, Control_c, 0, 64, 82
1, 153639, Control_c, 0, 64, 62
1, 153654, Control_c, 0, 64, 0
1, 153669, Control_c, 0, 64, 49
1, 153684, Control_c, 0, 64, 67
1, 153699, Control_c, 0, 64, 82
1, 153714, Control_c, 0, 64, 100
1, 153729, Control_c, 0, 64, 123
1, 153738, Note_off_c, 0, 79, 56
1, 153744, Control_c, 0, 64, 127
1, 153765, Note_off_c, 0, 72, 65
1, 153832, Note_off_c, 0, 53, 58
1, 153986, Note_on_c, 0, 77, 70
1, 153996, Note_on_c, 0, 65, 49
1, 153997, Note_on_c, 0, 60, 47
1, 153999, Note_on_c, 0, 69, 54
1, 154041, Note_off_c, 0, 60, 61
1, 154045, Note_off_c, 0, 65, 63
1, 154119, Note_off_c, 0, 77, 60
1, 154143, Note_on_c, 0, 79, 58
1, 154202, Note_off_c, 0, 79, 0
1, 154202, Note_on_c, 0, 79, 11
1, 154204, Control_c, 0, 64, 118
1, 154211, Note_on_c, 0, 77, 75
1, 154218, Control_c, 0, 64, 96
1, 154221, Note_on_c, 0, 50, 59
1, 154233, Control_c, 0, 64, 75
1, 154238, Note_off_c, 0, 79, 50
1, 154248, Control_c, 0, 64, 0
1, 154277, Control_c, 0, 64, 35
1, 154279, Note_off_c, 0, 69, 62
1, 154292, Note_off_c, 0, 77, 59
1, 154292, Control_c, 0, 64, 71
1, 154307, Control_c, 0, 64, 88
1, 154322, Control_c, 0, 64, 111
1, 154337, Control_c, 0, 64, 127
1, 154378, Note_on_c, 0, 76, 71
1, 154383, Note_off_c, 0, 50, 37
1, 154405, Note_on_c, 0, 67, 60
1, 154460, Note_off_c, 0, 67, 60
1, 154560, Note_on_c, 0, 60, 52
1, 154564, Note_on_c, 0, 74, 72
1, 154572, Note_on_c, 0, 57, 50
1, 154579, Note_on_c, 0, 65, 60
1, 154594, Note_off_c, 0, 60, 64
1, 154602, Note_off_c, 0, 57, 63
1, 154605, Note_off_c, 0, 76, 59
1, 154660, Note_off_c, 0, 65, 61
1, 154744, Control_c, 0, 64, 105
1, 154760, Control_c, 0, 64, 82
1, 154769, Note_on_c, 0, 43, 51
1, 154775, Control_c, 0, 64, 0
1, 154775, Note_on_c, 0, 67, 60
1, 154849, Control_c, 0, 64, 65
1, 154864, Control_c, 0, 64, 80
1, 154879, Control_c, 0, 64, 103
1, 154879, Note_off_c, 0, 67, 64
1, 154889, Note_off_c, 0, 74, 58
1, 154893, Control_c, 0, 64, 127
1, 154910, Note_off_c, 0, 43, 59
1, 155160, Note_on_c, 0, 76, 73
1, 155173, Note_on_c, 0, 60, 52
1, 155179, Note_on_c, 0, 55, 51
1, 155182, Note_on_c, 0, 65, 48
1, 155184, Note_on_c, 0, 50, 47
1, 155208, Note_off_c, 0, 60, 64
1, 155219, Note_off_c, 0, 55, 63
1, 155222, Note_off_c, 0, 50, 62
1, 155292, Note_off_c, 0, 65, 62
1, 155374, Control_c, 0, 64, 108
1, 155389, Control_c, 0, 64, 81
1, 155399, Note_on_c, 0, 43, 57
1, 155404, Note_on_c, 0, 67, 51
1, 155404, Control_c, 0, 64, 0
1, 155450, Note_off_c, 0, 76, 60
1, 155463, Control_c, 0, 64, 51
1, 155478, Control_c, 0, 64, 70
1, 155492, Control_c, 0, 64, 83
1, 155507, Control_c, 0, 64, 102
1, 155510, Note_off_c, 0, 67, 63
1, 155522, Control_c, 0, 64, 127
1, 155531, Note_off_c, 0, 43, 60
1, 155798, Note_on_c, 0, 74, 64
1, 155801, Note_on_c, 0, 59, 54
1, 155816, Note_on_c, 0, 55, 50
1, 155818, Note_on_c, 0, 65, 47
1, 155832, Note_off_c, 0, 59, 63
1, 155844, Note_off_c, 0, 55, 66
1, 156063, Control_c, 0, 64, 114
1, 156078, Control_c, 0, 64, 94
1, 156084, Note_on_c, 0, 36, 45
1, 156090, Note_on_c, 0, 67, 46
1, 156093, Control_c, 0, 64, 75
1, 156102, Note_off_c, 0, 65, 40
1, 156108, Control_c, 0, 64, 0
1, 156227, Control_c, 0, 64, 62
1, 156240, Note_off_c, 0, 36, 58
1, 156241, Control_c, 0, 64, 72
1, 156255, Note_off_c, 0, 74, 52
1, 156256, Control_c, 0, 64, 85
1, 156271, Control_c, 0, 64, 107
1, 156286, Control_c, 0, 64, 127
1, 156309, Note_off_c, 0, 67, 62
1, 156522, Note_on_c, 0, 72, 56
1, 156531, Note_on_c, 0, 60, 42
1, 156531, Note_on_c, 0, 55, 46
1, 156532, Note_on_c, 0, 64, 47
1, 156663, Note_off_c, 0, 72, 61
1, 156701, Note_on_c, 0, 74, 49
1, 156734, Note_off_c, 0, 64, 60
1, 156750, Note_off_c, 0, 55, 57
1, 156757, Note_on_c, 0, 72, 64
1, 156763, Note_on_c, 0, 48, 59
1, 156829, Note_off_c, 0, 74, 35
1, 156927, Note_off_c, 0, 48, 51
1, 156939, Note_on_c, 0, 65, 60
1, 156948, Note_on_c, 0, 56, 60
1, 156951, Note_on_c, 0, 71, 63
1, 156988, Note_off_c, 0, 72, 57
1, 157017, Note_off_c, 0, 65, 63
1, 157094, Control_c, 0, 64, 126
1, 157109, Control_c, 0, 64, 121
1, 157124, Control_c, 0, 64, 116
1, 157138, Control_c, 0, 64, 110
1, 157153, Control_c, 0, 64, 103
1, 157169, Control_c, 0, 64, 96
1, 157177, Note_on_c, 0, 55, 53
1, 157183, Note_on_c, 0, 72, 61
1, 157184, Control_c, 0, 64, 88
1, 157187, Note_on_c, 0, 64, 52
1, 157199, Control_c, 0, 64, 78
1, 157205, Note_off_c, 0, 56, 52
1, 157214, Control_c, 0, 64, 66
1, 157226, Note_off_c, 0, 60, 40
1, 157228, Control_c, 0, 64, 0
1, 157231, Note_off_c, 0, 71, 53
1, 157420, Note_off_c, 0, 64, 57
1, 157472, Control_c, 0, 64, 66
1, 157473, Note_on_c, 0, 48, 44
1, 157486, Control_c, 0, 64, 76
1, 157488, Note_off_c, 0, 72, 61
1, 157501, Control_c, 0, 64, 88
1, 157516, Control_c, 0, 64, 98
1, 157531, Control_c, 0, 64, 105
1, 157546, Control_c, 0, 64, 115
1, 157559, Note_off_c, 0, 55, 35
1, 157560, Control_c, 0, 64, 127
1, 157658, Note_off_c, 0, 48, 42
1, 157890, Note_on_c, 0, 81, 64
1, 157899, Note_on_c, 0, 62, 57
1, 157919, Note_on_c, 0, 55, 47
1, 157938, Note_on_c, 0, 70, 29
1, 157999, Note_off_c, 0, 70, 46
1, 158068, Note_off_c, 0, 62, 59
1, 158150, Note_off_c, 0, 81, 56
1, 158152, Note_on_c, 0, 72, 55
1, 158155, Note_on_c, 0, 48, 56
1, 158198, Note_off_c, 0, 55, 50
1, 158209, Note_off_c, 0, 72, 62
1, 158236, Note_off_c, 0, 48, 59
1, 158511, Note_on_c, 0, 79, 65
1, 158514, Note_on_c, 0, 64, 79
1, 158526, Note_on_c, 0, 55, 55
1, 158531, Note_on_c, 0, 70, 50
1, 158620, Control_c, 0, 64, 123
1, 158635, Control_c, 0, 64, 102
1, 158650, Control_c, 0, 64, 82
1, 158665, Control_c, 0, 64, 0
1, 158669, Note_off_c, 0, 55, 61
1, 158733, Note_off_c, 0, 70, 60
1, 158737, Note_on_c, 0, 53, 62
1, 158743, Note_on_c, 0, 72, 54
1, 158755, Control_c, 0, 64, 65
1, 158770, Control_c, 0, 64, 79
1, 158784, Control_c, 0, 64, 99
1, 158799, Control_c, 0, 64, 127
1, 158811, Note_off_c, 0, 64, 61
1, 158826, Note_off_c, 0, 79, 60
1, 158832, Note_off_c, 0, 72, 65
1, 159035, Note_off_c, 0, 53, 32
1, 159106, Note_on_c, 0, 65, 80
1, 159106, Note_on_c, 0, 77, 65
1, 159120, Note_on_c, 0, 60, 63
1, 159122, Note_on_c, 0, 69, 54
1, 159162, Control_c, 0, 64, 102
1, 159177, Control_c, 0, 64, 81
1, 159192, Control_c, 0, 64, 51
1, 159206, Control_c, 0, 64, 0
1, 159236, Control_c, 0, 64, 29
1, 159250, Control_c, 0, 64, 74
1, 159255, Note_off_c, 0, 77, 60
1, 159265, Control_c, 0, 64, 90
1, 159267, Note_on_c, 0, 79, 61
1, 159280, Control_c, 0, 64, 114
1, 159291, Note_off_c, 0, 65, 63
1, 159295, Control_c, 0, 64, 127
1, 159331, Note_on_c, 0, 50, 60
1, 159339, Note_on_c, 0, 77, 70
1, 159358, Note_off_c, 0, 60, 56
1, 159368, Note_off_c, 0, 79, 60
1, 159407, Note_off_c, 0, 50, 59
1, 159410, Note_off_c, 0, 69, 63
1, 159418, Note_off_c, 0, 77, 60
1, 159522, Note_on_c, 0, 76, 74
1, 159524, Note_on_c, 0, 67, 77
1, 159646, Note_off_c, 0, 67, 60
1, 159749, Control_c, 0, 64, 108
1, 159763, Control_c, 0, 64, 87
1, 159778, Control_c, 0, 64, 65
1, 159782, Note_on_c, 0, 69, 71
1, 159793, Note_on_c, 0, 74, 59
1, 159793, Control_c, 0, 64, 0
1, 159804, Note_on_c, 0, 60, 56
1, 159811, Note_on_c, 0, 65, 53
1, 159829, Note_off_c, 0, 76, 59
1, 159837, Control_c, 0, 64, 65
1, 159852, Control_c, 0, 64, 79
1, 159863, Note_off_c, 0, 69, 66
1, 159867, Control_c, 0, 64, 95
1, 159877, Note_off_c, 0, 60, 62
1, 159881, Control_c, 0, 64, 113
1, 159896, Control_c, 0, 64, 127
1, 159952, Note_off_c, 0, 65, 41
1, 160152, Note_on_c, 0, 43, 50
1, 160168, Note_on_c, 0, 67, 50
1, 160193, Control_c, 0, 64, 111
1, 160207, Control_c, 0, 64, 94
1, 160222, Control_c, 0, 64, 74
1, 160237, Control_c, 0, 64, 0
1, 160264, Note_off_c, 0, 74, 60
1, 160296, Control_c, 0, 64, 45
1, 160311, Control_c, 0, 64, 69
1, 160326, Control_c, 0, 64, 82
1, 160341, Control_c, 0, 64, 97
1, 160355, Note_off_c, 0, 67, 56
1, 160357, Control_c, 0, 64, 112
1, 160369, Note_off_c, 0, 43, 37
1, 160379, Control_c, 0, 64, 120
1, 160394, Control_c, 0, 64, 123
1, 160409, Control_c, 0, 64, 126
1, 160424, Control_c, 0, 64, 127
1, 160635, Note_on_c, 0, 76, 61
1, 160647, Note_on_c, 0, 57, 57
1, 160656, Note_on_c, 0, 65, 46
1, 160668, Note_on_c, 0, 50, 45
1, 160764, Note_off_c, 0, 65, 64
1, 160788, Note_off_c, 0, 57, 59
1, 160853, Control_c, 0, 64, 118
1, 160868, Control_c, 0, 64, 97
1, 160883, Control_c, 0, 64, 80
1, 160884, Note_on_c, 0, 43, 56
1, 160889, Note_on_c, 0, 67, 48
1, 160898, Control_c, 0, 64, 63
1, 160912, Control_c, 0, 64, 0
1, 160927, Control_c, 0, 64, 58
1, 160942, Control_c, 0, 64, 70
1, 160957, Control_c, 0, 64, 82
1, 160958, Note_off_c, 0, 76, 58
1, 160971, Control_c, 0, 64, 104
1, 160986, Control_c, 0, 64, 127
1, 160987, Note_off_c, 0, 50, 39
1, 161019, Note_off_c, 0, 67, 63
1, 161039, Note_off_c, 0, 43, 56
1, 161285, Note_on_c, 0, 74, 67
1, 161288, Note_on_c, 0, 59, 62
1, 161299, Note_on_c, 0, 65, 52
1, 161320, Note_on_c, 0, 50, 50
1, 161345, Note_off_c, 0, 59, 62
1, 161351, Note_off_c, 0, 50, 65
1, 161520, Note_off_c, 0, 65, 39
1, 161527, Control_c, 0, 64, 108
1, 161542, Control_c, 0, 64, 87
1, 161555, Note_on_c, 0, 36, 52
1, 161557, Control_c, 0, 64, 67
1, 161560, Note_on_c, 0, 67, 42
1, 161572, Control_c, 0, 64, 0
1, 161616, Control_c, 0, 64, 58
1, 161631, Control_c, 0, 64, 78
1, 161646, Control_c, 0, 64, 96
1, 161661, Control_c, 0, 64, 121
1, 161676, Control_c, 0, 64, 127
1, 161682, Note_off_c, 0, 36, 62
1, 161682, Note_off_c, 0, 74, 60
1, 161701, Note_off_c, 0, 67, 62
1, 161973, Note_on_c, 0, 72, 64
1, 161986, Note_on_c, 0, 55, 55
1, 161991, Note_on_c, 0, 60, 56
1, 161994, Note_on_c, 0, 64, 47
1, 162120, Note_off_c, 0, 72, 63
1, 162148, Note_on_c, 0, 74, 50
1, 162199, Note_on_c, 0, 48, 63
1, 162207, Note_on_c, 0, 72, 67
1, 162210, Note_off_c, 0, 55, 61
1, 162236, Note_off_c, 0, 64, 61
1, 162282, Note_off_c, 0, 74, 39
1, 162359, Note_off_c, 0, 48, 56
1, 162383, Note_on_c, 0, 56, 62
1, 162385, Note_on_c, 0, 71, 69
1, 162386, Note_on_c, 0, 65, 64
1, 162408, Note_off_c, 0, 72, 57
1, 162470, Note_off_c, 0, 65, 62
1, 162573, Control_c, 0, 64, 122
1, 162586, Note_on_c, 0, 55, 54
1, 162588, Control_c, 0, 64, 103
1, 162592, Note_off_c, 0, 60, 37
1, 162596, Note_on_c, 0, 64, 53
1, 162598, Note_on_c, 0, 72, 62
1, 162602, Control_c, 0, 64, 85
1, 162604, Note_off_c, 0, 71, 57
1, 162615, Note_off_c, 0, 56, 52
1, 162617, Control_c, 0, 64, 64
1, 162639, Control_c, 0, 64, 0
1, 162788, Control_c, 0, 64, 65
1, 162803, Control_c, 0, 64, 70
1, 162818, Control_c, 0, 64, 75
1, 162821, Note_on_c, 0, 48, 48
1, 162826, Note_off_c, 0, 64, 56
1, 162828, Note_off_c, 0, 72, 50
1, 162833, Control_c, 0, 64, 83
1, 162847, Control_c, 0, 64, 90
1, 162858, Note_off_c, 0, 55, 38
1, 162862, Control_c, 0, 64, 95
1, 162877, Control_c, 0, 64, 100
1, 162892, Control_c, 0, 64, 105
1, 162907, Control_c, 0, 64, 111
1, 162922, Control_c, 0, 64, 118
1, 162937, Control_c, 0, 64, 125
1, 162952, Control_c, 0, 64, 127
1, 163065, Note_off_c, 0, 48, 39
1, 163181, Note_on_c, 0, 72, 66
1, 163192, Note_on_c, 0, 55, 47
1, 163193, Note_on_c, 0, 64, 58
1, 163196, Note_on_c, 0, 60, 46
1, 163340, Note_off_c, 0, 72, 64
1, 163356, Note_on_c, 0, 74, 57
1, 163411, Note_on_c, 0, 48, 62
1, 163418, Note_on_c, 0, 72, 68
1, 163420, Note_off_c, 0, 55, 58
1, 163432, Control_c, 0, 64, 121
1, 163447, Control_c, 0, 64, 108
1, 163461, Note_off_c, 0, 74, 58
1, 163462, Control_c, 0, 64, 92
1, 163464, Note_off_c, 0, 64, 55
1, 163477, Control_c, 0, 64, 71
1, 163492, Control_c, 0, 64, 0
1, 163567, Control_c, 0, 64, 66
1, 163582, Control_c, 0, 64, 75
1, 163597, Control_c, 0, 64, 87
1, 163611, Control_c, 0, 64, 97
1, 163621, Note_on_c, 0, 65, 68
1, 163626, Control_c, 0, 64, 100
1, 163631, Note_on_c, 0, 71, 61
1, 163639, Note_on_c, 0, 56, 51
1, 163641, Control_c, 0, 64, 101
1, 163667, Note_off_c, 0, 72, 53
1, 163673, Note_off_c, 0, 48, 33
1, 163685, Control_c, 0, 64, 101
1, 163715, Control_c, 0, 64, 102
1, 163752, Note_off_c, 0, 65, 54
1, 163922, Control_c, 0, 64, 101
1, 163928, Note_on_c, 0, 55, 49
1, 163930, Note_on_c, 0, 72, 59
1, 163937, Control_c, 0, 64, 100
1, 163944, Note_on_c, 0, 64, 46
1, 163952, Control_c, 0, 64, 99
1, 163966, Note_off_c, 0, 56, 49
1, 163967, Control_c, 0, 64, 96
1, 163973, Note_off_c, 0, 71, 56
1, 163982, Control_c, 0, 64, 92
1, 163996, Control_c, 0, 64, 85
1, 164009, Note_off_c, 0, 60, 26
1, 164011, Control_c, 0, 64, 76
1, 164026, Control_c, 0, 64, 61
1, 164040, Control_c, 0, 64, 0
1, 164201, Note_on_c, 0, 48, 43
1, 164241, Control_c, 0, 64, 60
1, 164255, Control_c, 0, 64, 67
1, 164270, Control_c, 0, 64, 73
1, 164285, Control_c, 0, 64, 79
1, 164287, Note_off_c, 0, 64, 57
1, 164287, Note_off_c, 0, 72, 50
1, 164293, Note_off_c, 0, 55, 40
1, 164300, Control_c, 0, 64, 85
1, 164315, Control_c, 0, 64, 90
1, 164329, Control_c, 0, 64, 94
1, 164345, Control_c, 0, 64, 98
1, 164360, Control_c, 0, 64, 103
1, 164375, Control_c, 0, 64, 108
1, 164390, Control_c, 0, 64, 114
1, 164405, Control_c, 0, 64, 120
1, 164420, Control_c, 0, 64, 127
1, 164534, Note_off_c, 0, 48, 33
1, 164600, Note_on_c, 0, 72, 55
1, 164612, Note_on_c, 0, 64, 45
1, 164620, Note_on_c, 0, 55, 33
1, 164633, Note_on_c, 0, 60, 36
1, 164847, Note_on_c, 0, 48, 44
1, 164922, Note_off_c, 0, 64, 58
1, 164934, Note_off_c, 0, 60, 31
1, 164946, Note_off_c, 0, 72, 58
1, 165001, Note_off_c, 0, 55, 42
1, 165262, Note_on_c, 0, 72, 59
1, 165271, Note_on_c, 0, 64, 46
1, 165278, Note_on_c, 0, 60, 35
1, 165283, Note_on_c, 0, 55, 29
1, 165333, Note_off_c, 0, 48, 35
1, 165526, Note_on_c, 0, 48, 41
1, 165562, Note_off_c, 0, 64, 57
1, 165605, Note_off_c, 0, 60, 34
1, 165611, Note_off_c, 0, 72, 57
1, 165675, Note_off_c, 0, 55, 44
1, 165980, Note_on_c, 0, 72, 51
1, 165986, Note_off_c, 0, 48, 29
1, 165990, Note_on_c, 0, 55, 32
1, 165990, Note_on_c, 0, 64, 41
1, 165993, Note_on_c, 0, 60, 32
1, 166296, Note_on_c, 0, 48, 44
1, 166432, Note_off_c, 0, 60, 29
1, 166439, Note_off_c, 0, 64, 49
1, 166472, Note_off_c, 0, 72, 53
1, 166493, Note_off_c, 0, 55, 42
1, 166702, Note_off_c, 0, 48, 39
1, 166850, Note_on_c, 0, 72, 47
1, 166865, Note_on_c, 0, 55, 30
1, 166873, Note_on_c, 0, 60, 36
1, 166874, Note_on_c, 0, 64, 40
1, 166938, Note_off_c, 0, 60, 56
1, 166956, Note_off_c, 0, 55, 57
1, 166993, Note_off_c, 0, 72, 63
1, 167384, Control_c, 0, 64, 122
1, 167399, Control_c, 0, 64, 114
1, 167414, Control_c, 0, 64, 103
1, 167426, Note_on_c, 0, 44, 38
1, 167429, Control_c, 0, 64, 91
1, 167438, Note_on_c, 0, 63, 46
1, 167444, Control_c, 0, 64, 74
1, 167459, Control_c, 0, 64, 0
1, 167462, Note_off_c, 0, 64, 42
1, 167548, Control_c, 0, 64, 64
1, 167563, Control_c, 0, 64, 78
1, 167573, Note_off_c, 0, 63, 58
1, 167578, Control_c, 0, 64, 95
1, 167593, Control_c, 0, 64, 112
1, 167608, Control_c, 0, 64, 122
1, 167619, Note_on_c, 0, 72, 48
1, 167622, Control_c, 0, 64, 127
1, 167665, Note_off_c, 0, 72, 65
1, 167765, Note_on_c, 0, 72, 54
1, 167769, Note_off_c, 0, 44, 48
1, 167903, Note_on_c, 0, 84, 64
1, 167960, Note_off_c, 0, 72, 60
1, 168159, Note_on_c, 0, 63, 57
1, 168174, Note_on_c, 0, 51, 46
1, 168177, Note_on_c, 0, 56, 46
1, 168325, Note_off_c, 0, 63, 60
1, 168380, Note_off_c, 0, 51, 35
1, 168407, Note_off_c, 0, 56, 24
1, 168559, Note_on_c, 0, 64, 55
1, 168561, Note_on_c, 0, 56, 45
1, 168567, Note_on_c, 0, 52, 51
1, 168579, Control_c, 0, 64, 107
1, 168593, Control_c, 0, 64, 92
1, 168615, Control_c, 0, 64, 76
1, 168630, Control_c, 0, 64, 44
1, 168645, Control_c, 0, 64, 0
1, 168675, Control_c, 0, 64, 57
1, 168690, Control_c, 0, 64, 71
1, 168705, Control_c, 0, 64, 82
1, 168719, Control_c, 0, 64, 99
1, 168734, Control_c, 0, 64, 114
1, 168735, Note_on_c, 0, 82, 61
1, 168749, Control_c, 0, 64, 127
1, 168759, Note_off_c, 0, 64, 64
1, 168804, Note_off_c, 0, 52, 65
1, 168806, Note_off_c, 0, 56, 63
1, 168857, Note_on_c, 0, 80, 55
1, 168905, Note_off_c, 0, 84, 33
1, 168926, Note_off_c, 0, 82, 56
1, 168938, Note_off_c, 0, 80, 60
1, 168950, Note_on_c, 0, 79, 55
1, 169006, Note_off_c, 0, 79, 61
1, 169025, Note_on_c, 0, 80, 71
1, 169070, Note_off_c, 0, 80, 61
1, 169101, Note_on_c, 0, 76, 70
1, 169119, Control_c, 0, 64, 120
1, 169134, Control_c, 0, 64, 101
1, 169149, Control_c, 0, 64, 84
1, 169160, Note_on_c, 0, 32, 63
1, 169164, Control_c, 0, 64, 66
1, 169174, Note_on_c, 0, 74, 61
1, 169179, Note_off_c, 0, 76, 62
1, 169179, Control_c, 0, 64, 0
1, 169194, Control_c, 0, 64, 53
1, 169209, Control_c, 0, 64, 69
1, 169224, Control_c, 0, 64, 80
1, 169233, Note_off_c, 0, 32, 63
1, 169238, Control_c, 0, 64, 95
1, 169243, Note_off_c, 0, 74, 64
1, 169253, Control_c, 0, 64, 110
1, 169264, Note_on_c, 0, 77, 69
1, 169267, Control_c, 0, 64, 123
1, 169282, Control_c, 0, 64, 127
1, 169339, Note_on_c, 0, 75, 69
1, 169399, Note_off_c, 0, 77, 61
1, 169408, Note_on_c, 0, 72, 67
1, 169476, Note_off_c, 0, 75, 58
1, 169481, Note_on_c, 0, 68, 76
1, 169484, Note_on_c, 0, 51, 62
1, 169492, Note_off_c, 0, 72, 63
1, 169530, Note_off_c, 0, 68, 64
1, 169556, Note_on_c, 0, 65, 76
1, 169630, Control_c, 0, 64, 125
1, 169644, Note_on_c, 0, 63, 82
1, 169645, Control_c, 0, 64, 118
1, 169647, Note_on_c, 0, 60, 73
1, 169659, Control_c, 0, 64, 106
1, 169668, Note_off_c, 0, 65, 61
1, 169674, Control_c, 0, 64, 86
1, 169689, Control_c, 0, 64, 65
1, 169704, Control_c, 0, 64, 0
1, 169748, Control_c, 0, 64, 60
1, 169763, Control_c, 0, 64, 80
1, 169778, Control_c, 0, 64, 100
1, 169793, Control_c, 0, 64, 127
1, 169811, Note_off_c, 0, 60, 57
1, 169858, Note_off_c, 0, 51, 59
1, 169952, Note_off_c, 0, 63, 63
1, 169957, Note_on_c, 0, 67, 82
1, 169963, Note_on_c, 0, 61, 72
1, 169965, Note_on_c, 0, 58, 72
1, 169998, Note_off_c, 0, 58, 59
1, 170039, Note_off_c, 0, 61, 56
1, 170130, Note_off_c, 0, 67, 60
1, 170142, Control_c, 0, 64, 116
1, 170156, Note_on_c, 0, 44, 72
1, 170157, Note_on_c, 0, 60, 82
1, 170157, Control_c, 0, 64, 89
1, 170171, Control_c, 0, 64, 66
1, 170186, Control_c, 0, 64, 0
1, 170216, Control_c, 0, 64, 55
1, 170231, Control_c, 0, 64, 75
1, 170246, Note_off_c, 0, 60, 57
1, 170246, Control_c, 0, 64, 97
1, 170256, Note_on_c, 0, 63, 76
1, 170261, Control_c, 0, 64, 127
1, 170273, Note_off_c, 0, 44, 63
1, 170318, Note_off_c, 0, 63, 64
1, 170323, Note_on_c, 0, 68, 74
1, 170345, Note_off_c, 0, 68, 69
1, 170401, Note_on_c, 0, 72, 79
1, 170455, Note_off_c, 0, 72, 62
1, 170462, Note_on_c, 0, 75, 74
1, 170482, Note_on_c, 0, 51, 67
1, 170491, Note_off_c, 0, 75, 66
1, 170497, Note_on_c, 0, 80, 76
1, 170517, Note_on_c, 0, 60, 65
1, 170518, Note_off_c, 0, 51, 64
1, 170538, Note_off_c, 0, 80, 65
1, 170581, Note_on_c, 0, 84, 88
1, 170604, Note_on_c, 0, 68, 63
1, 170607, Note_off_c, 0, 60, 60
1, 170634, Note_off_c, 0, 68, 64
1, 170663, Note_on_c, 0, 96, 94
1, 170717, Note_off_c, 0, 84, 29
1, 170740, Note_on_c, 0, 52, 74
1, 170809, Control_c, 0, 64, 121
1, 170821, Note_on_c, 0, 60, 74
1, 170824, Control_c, 0, 64, 93
1, 170825, Note_off_c, 0, 52, 63
1, 170839, Control_c, 0, 64, 72
1, 170861, Control_c, 0, 64, 0
1, 170894, Note_on_c, 0, 68, 79
1, 170906, Control_c, 0, 64, 70
1, 170920, Control_c, 0, 64, 90
1, 170935, Control_c, 0, 64, 124
1, 170950, Control_c, 0, 64, 127
1, 170977, Note_off_c, 0, 68, 65
1, 170990, Note_off_c, 0, 60, 60
1, 171008, Note_on_c, 0, 94, 74
1, 171046, Note_off_c, 0, 96, 61
1, 171087, Note_on_c, 0, 92, 73
1, 171126, Note_off_c, 0, 94, 63
1, 171163, Note_on_c, 0, 91, 81
1, 171206, Note_off_c, 0, 92, 0
1, 171220, Note_on_c, 0, 92, 32
1, 171238, Note_off_c, 0, 91, 59
1, 171289, Note_off_c, 0, 92, 65
1, 171294, Note_on_c, 0, 88, 79
1, 171320, Control_c, 0, 64, 97
1, 171329, Note_on_c, 0, 44, 81
1, 171335, Control_c, 0, 64, 76
1, 171350, Control_c, 0, 64, 61
1, 171364, Control_c, 0, 64, 65
1, 171372, Note_on_c, 0, 86, 81
1, 171379, Control_c, 0, 64, 73
1, 171380, Note_off_c, 0, 88, 61
1, 171391, Note_off_c, 0, 44, 63
1, 171394, Control_c, 0, 64, 89
1, 171409, Control_c, 0, 64, 108
1, 171424, Control_c, 0, 64, 127
1, 171435, Note_off_c, 0, 86, 64
1, 171439, Note_on_c, 0, 89, 82
1, 171521, Note_on_c, 0, 87, 78
1, 171583, Note_off_c, 0, 89, 65
1, 171587, Note_on_c, 0, 84, 74
1, 171636, Note_off_c, 0, 87, 64
1, 171649, Note_on_c, 0, 53, 73
1, 171662, Note_on_c, 0, 80, 81
1, 171674, Note_off_c, 0, 84, 64
1, 171704, Note_off_c, 0, 80, 65
1, 171728, Note_on_c, 0, 77, 84
1, 171781, Note_off_c, 0, 77, 63
1, 171802, Control_c, 0, 64, 127
1, 171808, Note_on_c, 0, 60, 75
1, 171817, Control_c, 0, 64, 99
1, 171832, Note_on_c, 0, 75, 60
1, 171832, Control_c, 0, 64, 78
1, 171844, Note_on_c, 0, 74, 69
1, 171847, Control_c, 0, 64, 41
1, 171862, Control_c, 0, 64, 0
1, 171877, Control_c, 0, 64, 54
1, 171891, Control_c, 0, 64, 72
1, 171897, Note_off_c, 0, 60, 61
1, 171906, Note_off_c, 0, 75, 32
1, 171906, Control_c, 0, 64, 89
1, 171910, Note_off_c, 0, 53, 66
1, 171915, Note_on_c, 0, 72, 73
1, 171921, Control_c, 0, 64, 111
1, 171927, Note_off_c, 0, 74, 63
1, 171936, Control_c, 0, 64, 127
1, 171987, Note_on_c, 0, 68, 73
1, 172001, Note_off_c, 0, 72, 63
1, 172043, Note_off_c, 0, 68, 63
1, 172071, Note_on_c, 0, 65, 78
1, 172132, Note_off_c, 0, 65, 63
1, 172158, Control_c, 0, 64, 118
1, 172161, Note_on_c, 0, 56, 68
1, 172166, Note_on_c, 0, 46, 66
1, 172169, Note_on_c, 0, 60, 75
1, 172173, Control_c, 0, 64, 87
1, 172187, Control_c, 0, 64, 47
1, 172202, Control_c, 0, 64, 0
1, 172221, Note_off_c, 0, 56, 63
1, 172231, Note_off_c, 0, 46, 63
1, 172246, Control_c, 0, 64, 67
1, 172261, Control_c, 0, 64, 82
1, 172274, Note_on_c, 0, 62, 65
1, 172276, Control_c, 0, 64, 104
1, 172276, Note_off_c, 0, 60, 57
1, 172291, Control_c, 0, 64, 127
1, 172407, Note_on_c, 0, 63, 68
1, 172411, Note_off_c, 0, 62, 59
1, 172425, Note_on_c, 0, 39, 65
1, 172432, Control_c, 0, 64, 104
1, 172447, Control_c, 0, 64, 74
1, 172462, Control_c, 0, 64, 0
1, 172485, Note_off_c, 0, 63, 65
1, 172521, Control_c, 0, 64, 76
1, 172536, Control_c, 0, 64, 108
1, 172546, Note_on_c, 0, 67, 75
1, 172551, Control_c, 0, 64, 127
1, 172559, Note_off_c, 0, 39, 61
1, 172664, Note_on_c, 0, 79, 72
1, 172714, Note_off_c, 0, 67, 55
1, 172754, Note_on_c, 0, 46, 72
1, 172797, Note_on_c, 0, 55, 68
1, 172806, Note_off_c, 0, 46, 63
1, 172857, Note_on_c, 0, 63, 73
1, 172901, Note_off_c, 0, 63, 60
1, 172920, Note_off_c, 0, 55, 53
1, 173026, Note_on_c, 0, 47, 69
1, 173070, Control_c, 0, 64, 100
1, 173084, Control_c, 0, 64, 77
1, 173091, Note_off_c, 0, 47, 63
1, 173099, Control_c, 0, 64, 0
1, 173100, Note_on_c, 0, 55, 58
1, 173137, Control_c, 0, 64, 55
1, 173152, Control_c, 0, 64, 73
1, 173163, Note_on_c, 0, 63, 76
1, 173167, Control_c, 0, 64, 90
1, 173182, Control_c, 0, 64, 113
1, 173197, Control_c, 0, 64, 127
1, 173224, Note_off_c, 0, 63, 63
1, 173242, Note_off_c, 0, 55, 63
1, 173248, Note_on_c, 0, 77, 64
1, 173257, Note_off_c, 0, 79, 54
1, 173334, Note_on_c, 0, 75, 72
1, 173376, Note_off_c, 0, 77, 59
1, 173415, Note_off_c, 0, 75, 63
1, 173417, Note_on_c, 0, 74, 74
1, 173493, Note_off_c, 0, 74, 64
1, 173494, Note_on_c, 0, 75, 75
1, 173550, Note_off_c, 0, 75, 66
1, 173552, Control_c, 0, 64, 108
1, 173567, Control_c, 0, 64, 87
1, 173573, Note_on_c, 0, 71, 67
1, 173582, Control_c, 0, 64, 67
1, 173597, Control_c, 0, 64, 0
1, 173608, Note_on_c, 0, 27, 75
1, 173611, Control_c, 0, 64, 50
1, 173626, Control_c, 0, 64, 70
1, 173638, Note_on_c, 0, 69, 83
1, 173641, Control_c, 0, 64, 84
1, 173656, Control_c, 0, 64, 105
1, 173658, Note_off_c, 0, 71, 59
1, 173668, Note_off_c, 0, 27, 64
1, 173671, Control_c, 0, 64, 127
1, 173707, Note_off_c, 0, 69, 66
1, 173716, Note_on_c, 0, 72, 83
1, 173795, Note_on_c, 0, 70, 78
1, 173849, Note_on_c, 0, 67, 75
1, 173873, Note_off_c, 0, 72, 62
1, 173924, Note_on_c, 0, 63, 82
1, 173929, Note_off_c, 0, 70, 62
1, 173936, Note_on_c, 0, 46, 77
1, 173953, Note_off_c, 0, 67, 62
1, 173987, Note_off_c, 0, 63, 63
1, 173997, Note_on_c, 0, 60, 80
1, 174079, Control_c, 0, 64, 105
1, 174092, Note_on_c, 0, 58, 85
1, 174094, Control_c, 0, 64, 83
1, 174097, Note_on_c, 0, 55, 80
1, 174109, Control_c, 0, 64, 0
1, 174118, Note_off_c, 0, 60, 62
1, 174212, Control_c, 0, 64, 60
1, 174227, Control_c, 0, 64, 78
1, 174242, Control_c, 0, 64, 96
1, 174256, Control_c, 0, 64, 123
1, 174271, Control_c, 0, 64, 127
1, 174297, Note_off_c, 0, 55, 59
1, 174369, Note_off_c, 0, 46, 56
1, 174426, Note_off_c, 0, 58, 61
1, 174428, Note_on_c, 0, 62, 86
1, 174436, Note_on_c, 0, 53, 65
1, 174436, Note_on_c, 0, 56, 78
1, 174456, Note_off_c, 0, 53, 62
1, 174556, Note_off_c, 0, 56, 31
1, 174609, Note_off_c, 0, 62, 61
1, 174619, Control_c, 0, 64, 123
1, 174634, Control_c, 0, 64, 95
1, 174636, Note_on_c, 0, 39, 76
1, 174638, Note_on_c, 0, 55, 88
1, 174649, Control_c, 0, 64, 68
1, 174664, Control_c, 0, 64, 0
1, 174708, Control_c, 0, 64, 63
1, 174723, Control_c, 0, 64, 81
1, 174739, Note_off_c, 0, 39, 62
1, 174739, Control_c, 0, 64, 103
1, 174746, Note_on_c, 0, 58, 75
1, 174753, Note_off_c, 0, 55, 60
1, 174754, Control_c, 0, 64, 127
1, 174823, Note_off_c, 0, 58, 64
1, 174832, Note_on_c, 0, 63, 79
1, 174854, Note_off_c, 0, 63, 69
1, 174913, Note_on_c, 0, 67, 85
1, 174971, Note_off_c, 0, 67, 63
1, 174973, Note_on_c, 0, 70, 79
1, 174980, Note_on_c, 0, 51, 79
1, 175022, Note_on_c, 0, 75, 79
1, 175027, Note_off_c, 0, 70, 65
1, 175031, Note_on_c, 0, 58, 63
1, 175037, Note_off_c, 0, 51, 63
1, 175053, Note_off_c, 0, 75, 66
1, 175064, Note_off_c, 0, 58, 66
1, 175102, Note_on_c, 0, 79, 88
1, 175120, Note_on_c, 0, 70, 85
1, 175161, Note_off_c, 0, 70, 62
1, 175190, Note_on_c, 0, 91, 99
1, 175213, Note_off_c, 0, 79, 58
1, 175292, Note_on_c, 0, 51, 79
1, 175363, Note_on_c, 0, 59, 77
1, 175382, Note_off_c, 0, 51, 62
1, 175398, Control_c, 0, 64, 102
1, 175412, Control_c, 0, 64, 76
1, 175427, Control_c, 0, 64, 0
1, 175436, Note_off_c, 0, 59, 62
1, 175472, Control_c, 0, 64, 65
1, 175486, Control_c, 0, 64, 82
1, 175501, Control_c, 0, 64, 109
1, 175505, Note_on_c, 0, 71, 90
1, 175516, Control_c, 0, 64, 127
1, 175618, Note_off_c, 0, 71, 58
1, 175653, Note_on_c, 0, 89, 76
1, 175680, Note_off_c, 0, 91, 56
1, 175747, Note_on_c, 0, 87, 76
1, 175806, Note_off_c, 0, 89, 63
1, 175824, Note_on_c, 0, 86, 78
1, 175829, Note_off_c, 0, 87, 59
1, 175916, Note_on_c, 0, 87, 80
1, 175928, Note_off_c, 0, 86, 61
1, 175982, Note_off_c, 0, 87, 63
1, 175996, Note_on_c, 0, 83, 78
1, 176021, Control_c, 0, 64, 99
1, 176035, Control_c, 0, 64, 78
1, 176044, Note_on_c, 0, 39, 76
1, 176050, Control_c, 0, 64, 54
1, 176065, Control_c, 0, 64, 0
1, 176080, Control_c, 0, 64, 63
1, 176094, Note_on_c, 0, 81, 80
1, 176095, Control_c, 0, 64, 74
1, 176117, Control_c, 0, 64, 89
1, 176121, Note_off_c, 0, 39, 63
1, 176126, Note_off_c, 0, 83, 59
1, 176132, Control_c, 0, 64, 110
1, 176147, Control_c, 0, 64, 127
1, 176190, Note_off_c, 0, 81, 62
1, 176193, Note_on_c, 0, 84, 87
1, 176280, Note_on_c, 0, 82, 80
1, 176359, Note_off_c, 0, 84, 62
1, 176361, Note_on_c, 0, 79, 72
1, 176411, Note_on_c, 0, 51, 71
1, 176428, Note_off_c, 0, 79, 62
1, 176439, Note_off_c, 0, 82, 61
1, 176449, Note_off_c, 0, 51, 63
1, 176452, Note_on_c, 0, 74, 76
1, 176542, Note_off_c, 0, 74, 62
1, 176545, Note_on_c, 0, 75, 76
1, 176593, Note_on_c, 0, 58, 67
1, 176640, Note_on_c, 0, 67, 62
1, 176652, Note_on_c, 0, 63, 56
1, 176676, Note_off_c, 0, 58, 57
1, 176696, Control_c, 0, 64, 112
1, 176711, Control_c, 0, 64, 94
1, 176714, Note_off_c, 0, 75, 63
1, 176725, Control_c, 0, 64, 76
1, 176732, Note_on_c, 0, 73, 68
1, 176738, Note_on_c, 0, 76, 66
1, 176740, Control_c, 0, 64, 39
1, 176755, Control_c, 0, 64, 0
1, 176784, Control_c, 0, 64, 61
1, 176799, Control_c, 0, 64, 77
1, 176814, Control_c, 0, 64, 95
1, 176829, Control_c, 0, 64, 118
1, 176844, Control_c, 0, 64, 127
1, 176846, Note_off_c, 0, 67, 47
1, 176861, Note_off_c, 0, 73, 62
1, 176866, Note_off_c, 0, 63, 60
1, 176884, Note_off_c, 0, 76, 40
1, 176900, Note_on_c, 0, 79, 66
1, 177004, Note_on_c, 0, 77, 64
1, 177044, Note_off_c, 0, 79, 57
1, 177108, Note_on_c, 0, 73, 72
1, 177138, Note_off_c, 0, 77, 56
1, 177209, Note_on_c, 0, 70, 70
1, 177212, Note_off_c, 0, 73, 62
1, 177261, Note_off_c, 0, 70, 62
1, 177315, Note_on_c, 0, 65, 68
1, 177326, Control_c, 0, 64, 108
1, 177341, Control_c, 0, 64, 88
1, 177355, Control_c, 0, 64, 64
1, 177370, Control_c, 0, 64, 0
1, 177400, Note_on_c, 0, 44, 64
1, 177414, Note_off_c, 0, 65, 56
1, 177434, Note_on_c, 0, 63, 62
1, 177438, Note_off_c, 0, 44, 65
1, 177513, Note_off_c, 0, 63, 62
1, 177549, Note_on_c, 0, 68, 60
1, 177590, Note_off_c, 0, 68, 65
1, 177674, Control_c, 0, 64, 66
1, 177681, Note_on_c, 0, 63, 60
1, 177689, Control_c, 0, 64, 75
1, 177693, Note_on_c, 0, 72, 64
1, 177695, Note_on_c, 0, 51, 53
1, 177698, Note_on_c, 0, 60, 54
1, 177704, Control_c, 0, 64, 83
1, 177719, Control_c, 0, 64, 87
1, 177722, Note_off_c, 0, 63, 62
1, 177730, Note_off_c, 0, 60, 64
1, 177734, Control_c, 0, 64, 92
1, 177740, Note_off_c, 0, 51, 63
1, 177749, Control_c, 0, 64, 95
1, 177758, Note_off_c, 0, 72, 58
1, 177764, Control_c, 0, 64, 99
1, 177779, Control_c, 0, 64, 105
1, 177794, Control_c, 0, 64, 114
1, 177808, Control_c, 0, 64, 127
1, 177819, Note_on_c, 0, 74, 40
1, 177847, Note_off_c, 0, 74, 56
1, 177898, Note_on_c, 0, 79, 43
1, 177944, Note_off_c, 0, 79, 0
1, 177944, Note_on_c, 0, 79, 18
1, 177977, Poly_aftertouch_c, 0, 77, 127
1, 177981, Note_off_c, 0, 79, 62
1, 178012, Note_on_c, 0, 46, 73
1, 178017, Note_on_c, 0, 75, 63
1, 178024, Poly_aftertouch_c, 0, 77, 0
1, 178031, Control_c, 0, 64, 110
1, 178046, Control_c, 0, 64, 84
1, 178047, Note_off_c, 0, 46, 63
1, 178061, Control_c, 0, 64, 0
1, 178068, Note_off_c, 0, 75, 64
1, 178125, Note_on_c, 0, 72, 57
1, 178142, Note_off_c, 0, 72, 64
1, 178199, Note_on_c, 0, 73, 74
1, 178206, Note_on_c, 0, 55, 62
1, 178211, Note_on_c, 0, 63, 60
1, 178220, Note_on_c, 0, 51, 51
1, 178231, Note_off_c, 0, 63, 64
1, 178234, Note_off_c, 0, 55, 67
1, 178242, Note_off_c, 0, 73, 63
1, 178253, Note_off_c, 0, 51, 64
1, 178253, Control_c, 0, 64, 74
1, 178268, Control_c, 0, 64, 94
1, 178283, Control_c, 0, 64, 117
1, 178288, Note_on_c, 0, 67, 71
1, 178297, Control_c, 0, 64, 122
1, 178312, Control_c, 0, 64, 127
1, 178314, Note_off_c, 0, 67, 68
1, 178319, Note_on_c, 0, 69, 23
1, 178362, Note_off_c, 0, 69, 44
1, 178368, Note_on_c, 0, 70, 52
1, 178393, Note_off_c, 0, 70, 65
1, 178421, Note_on_c, 0, 65, 78
1, 178461, Note_off_c, 0, 65, 64
1, 178506, Note_on_c, 0, 63, 76
1, 178506, Note_on_c, 0, 48, 85
1, 178551, Note_off_c, 0, 48, 65
1, 178560, Note_off_c, 0, 63, 64
1, 178570, Note_on_c, 0, 68, 67
1, 178572, Control_c, 0, 64, 126
1, 178587, Control_c, 0, 64, 92
1, 178597, Note_off_c, 0, 68, 67
1, 178601, Control_c, 0, 64, 58
1, 178616, Control_c, 0, 64, 0
1, 178656, Note_on_c, 0, 72, 77
1, 178685, Note_on_c, 0, 63, 74
1, 178692, Note_on_c, 0, 51, 64
1, 178704, Note_on_c, 0, 56, 48
1, 178710, Note_off_c, 0, 63, 68
1, 178727, Note_off_c, 0, 51, 63
1, 178727, Note_off_c, 0, 56, 62
1, 178730, Note_off_c, 0, 72, 57
1, 178748, Note_on_c, 0, 75, 74
1, 178810, Control_c, 0, 64, 74
1, 178819, Note_off_c, 0, 75, 64
1, 178825, Control_c, 0, 64, 91
1, 178827, Note_on_c, 0, 79, 87
1, 178840, Control_c, 0, 64, 114
1, 178854, Control_c, 0, 64, 127
1, 178901, Note_on_c, 0, 77, 80
1, 178927, Note_off_c, 0, 79, 64
1, 178974, Note_on_c, 0, 75, 78
1, 178977, Note_off_c, 0, 77, 62
1, 178994, Note_on_c, 0, 43, 69
1, 179019, Note_off_c, 0, 75, 64
1, 179020, Note_off_c, 0, 43, 64
1, 179047, Control_c, 0, 64, 119
1, 179050, Note_on_c, 0, 72, 87
1, 179062, Control_c, 0, 64, 88
1, 179077, Control_c, 0, 64, 35
1, 179099, Control_c, 0, 64, 0
1, 179105, Note_off_c, 0, 72, 66
1, 179139, Note_on_c, 0, 73, 82
1, 179164, Note_on_c, 0, 63, 75
1, 179167, Note_on_c, 0, 51, 71
1, 179189, Note_off_c, 0, 63, 69
1, 179201, Note_on_c, 0, 58, 12
1, 179204, Note_off_c, 0, 73, 62
1, 179207, Note_off_c, 0, 51, 64
1, 179211, Note_on_c, 0, 69, 80
1, 179228, Note_off_c, 0, 58, 42
1, 179233, Control_c, 0, 64, 82
1, 179247, Control_c, 0, 64, 99
1, 179260, Note_off_c, 0, 69, 66
1, 179262, Control_c, 0, 64, 126
1, 179277, Control_c, 0, 64, 127
1, 179291, Note_on_c, 0, 70, 82
1, 179388, Note_on_c, 0, 61, 84
1, 179439, Note_off_c, 0, 70, 50
1, 179460, Note_off_c, 0, 61, 43
1, 179487, Note_on_c, 0, 60, 79
1, 179492, Note_on_c, 0, 44, 71
1, 179530, Control_c, 0, 64, 103
1, 179545, Control_c, 0, 64, 77
1, 179559, Control_c, 0, 64, 0
1, 179586, Note_on_c, 0, 61, 73
1, 179591, Note_off_c, 0, 60, 61
1, 179603, Control_c, 0, 64, 61
1, 179618, Control_c, 0, 64, 77
1, 179633, Control_c, 0, 64, 95
1, 179635, Note_off_c, 0, 44, 62
1, 179648, Control_c, 0, 64, 124
1, 179663, Control_c, 0, 64, 127
1, 179673, Note_on_c, 0, 63, 81
1, 179675, Note_off_c, 0, 61, 62
1, 179716, Note_off_c, 0, 63, 66
1, 179747, Note_on_c, 0, 65, 85
1, 179819, Note_on_c, 0, 66, 85
1, 179824, Note_off_c, 0, 65, 66
1, 179904, Note_on_c, 0, 68, 86
1, 179923, Note_off_c, 0, 66, 63
1, 179982, Control_c, 0, 64, 107
1, 179996, Note_on_c, 0, 70, 83
1, 179996, Control_c, 0, 64, 84
1, 180007, Note_on_c, 0, 66, 97
1, 180011, Control_c, 0, 64, 34
1, 180012, Note_off_c, 0, 68, 64
1, 180018, Note_on_c, 0, 60, 61
1, 180021, Note_on_c, 0, 56, 60
1, 180026, Control_c, 0, 64, 0
1, 180035, Note_on_c, 0, 54, 53
1, 180038, Note_off_c, 0, 70, 67
1, 180056, Control_c, 0, 64, 58
1, 180070, Control_c, 0, 64, 75
1, 180085, Control_c, 0, 64, 91
1, 180092, Note_on_c, 0, 72, 81
1, 180100, Control_c, 0, 64, 120
1, 180115, Control_c, 0, 64, 127
1, 180174, Note_on_c, 0, 73, 85
1, 180178, Note_off_c, 0, 72, 64
1, 180223, Note_off_c, 0, 66, 64
1, 180253, Note_on_c, 0, 75, 85
1, 180271, Note_off_c, 0, 73, 59
1, 180315, Note_off_c, 0, 75, 66
1, 180348, Note_on_c, 0, 77, 94
1, 180350, Note_on_c, 0, 62, 87
1, 180427, Note_off_c, 0, 62, 61
1, 180442, Note_on_c, 0, 78, 86
1, 180477, Note_off_c, 0, 77, 57
1, 180566, Note_on_c, 0, 84, 82
1, 180581, Note_on_c, 0, 63, 78
1, 180583, Note_off_c, 0, 78, 60
1, 180626, Control_c, 0, 64, 120
1, 180640, Control_c, 0, 64, 109
1, 180655, Control_c, 0, 64, 95
1, 180670, Control_c, 0, 64, 76
1, 180681, Note_on_c, 0, 82, 70
1, 180685, Control_c, 0, 64, 0
1, 180751, Note_off_c, 0, 84, 62
1, 180774, Note_on_c, 0, 80, 66
1, 180789, Control_c, 0, 64, 60
1, 180804, Control_c, 0, 64, 72
1, 180807, Note_off_c, 0, 82, 64
1, 180818, Control_c, 0, 64, 81
1, 180833, Control_c, 0, 64, 89
1, 180848, Control_c, 0, 64, 94
1, 180859, Note_off_c, 0, 80, 64
1, 180863, Control_c, 0, 64, 97
1, 180876, Note_on_c, 0, 82, 71
1, 180878, Control_c, 0, 64, 99
1, 180892, Control_c, 0, 64, 103
1, 180907, Control_c, 0, 64, 107
1, 180922, Control_c, 0, 64, 112
1, 180937, Control_c, 0, 64, 115
1, 180941, Note_off_c, 0, 60, 33
1, 180951, Control_c, 0, 64, 118
1, 180954, Note_on_c, 0, 80, 71
1, 180966, Control_c, 0, 64, 120
1, 180981, Control_c, 0, 64, 122
1, 180987, Note_off_c, 0, 82, 63
1, 180996, Control_c, 0, 64, 123
1, 181032, Note_on_c, 0, 78, 75
1, 181032, Note_off_c, 0, 80, 63
1, 181038, Note_off_c, 0, 63, 59
1, 181108, Note_off_c, 0, 78, 61
1, 181123, Note_on_c, 0, 64, 69
1, 181124, Note_on_c, 0, 80, 73
1, 181130, Control_c, 0, 64, 123
1, 181145, Control_c, 0, 64, 122
1, 181160, Control_c, 0, 64, 120
1, 181174, Control_c, 0, 64, 117
1, 181189, Control_c, 0, 64, 110
1, 181204, Control_c, 0, 64, 96
1, 181212, Note_on_c, 0, 78, 75
1, 181219, Control_c, 0, 64, 75
1, 181232, Note_off_c, 0, 80, 55
1, 181234, Control_c, 0, 64, 0
1, 181281, Note_off_c, 0, 78, 61
1, 181299, Note_on_c, 0, 77, 75
1, 181308, Control_c, 0, 64, 31
1, 181322, Control_c, 0, 64, 71
1, 181333, Note_off_c, 0, 64, 62
1, 181337, Control_c, 0, 64, 90
1, 181358, Note_off_c, 0, 54, 62
1, 181359, Control_c, 0, 64, 112
1, 181368, Note_off_c, 0, 56, 63
1, 181374, Control_c, 0, 64, 127
1, 181389, Note_off_c, 0, 77, 51
1, 181401, Note_on_c, 0, 78, 74
1, 181481, Note_off_c, 0, 78, 46
1, 181489, Note_on_c, 0, 77, 69
1, 181544, Note_off_c, 0, 77, 59
1, 181572, Note_on_c, 0, 76, 69
1, 181626, Control_c, 0, 64, 100
1, 181641, Note_on_c, 0, 49, 72
1, 181641, Control_c, 0, 64, 72
1, 181644, Note_off_c, 0, 76, 60
1, 181655, Control_c, 0, 64, 0
1, 181669, Note_on_c, 0, 77, 74
1, 181675, Note_off_c, 0, 49, 65
1, 181736, Note_off_c, 0, 77, 61
1, 181754, Note_on_c, 0, 78, 76
1, 181834, Note_off_c, 0, 78, 63
1, 181876, Note_on_c, 0, 79, 71
1, 181880, Note_on_c, 0, 68, 64
1, 181888, Note_on_c, 0, 56, 56
1, 181890, Note_on_c, 0, 65, 50
1, 181907, Control_c, 0, 64, 76
1, 181910, Note_off_c, 0, 68, 66
1, 181922, Note_off_c, 0, 65, 67
1, 181923, Control_c, 0, 64, 92
1, 181928, Note_off_c, 0, 56, 65
1, 181937, Control_c, 0, 64, 108
1, 181949, Note_off_c, 0, 79, 54
1, 181952, Control_c, 0, 64, 112
1, 181966, Note_on_c, 0, 80, 71
1, 181967, Control_c, 0, 64, 114
1, 181982, Control_c, 0, 64, 115
1, 181997, Control_c, 0, 64, 118
1, 182012, Control_c, 0, 64, 123
1, 182021, Note_off_c, 0, 80, 64
1, 182027, Control_c, 0, 64, 127
1, 182039, Note_on_c, 0, 84, 77
1, 182123, Note_on_c, 0, 82, 78
1, 182146, Note_off_c, 0, 84, 62
1, 182182, Control_c, 0, 64, 104
1, 182189, Note_on_c, 0, 80, 71
1, 182192, Note_on_c, 0, 51, 72
1, 182196, Control_c, 0, 64, 79
1, 182209, Note_off_c, 0, 82, 62
1, 182211, Control_c, 0, 64, 0
1, 182220, Note_off_c, 0, 51, 66
1, 182235, Note_off_c, 0, 80, 62
1, 182266, Note_on_c, 0, 77, 78
1, 182311, Note_off_c, 0, 77, 63
1, 182344, Note_on_c, 0, 78, 81
1, 182347, Note_on_c, 0, 68, 75
1, 182348, Note_on_c, 0, 60, 63
1, 182360, Control_c, 0, 64, 66
1, 182365, Note_on_c, 0, 56, 49
1, 182372, Note_off_c, 0, 68, 68
1, 182375, Control_c, 0, 64, 83
1, 182379, Note_off_c, 0, 60, 66
1, 182390, Control_c, 0, 64, 96
1, 182392, Note_off_c, 0, 56, 63
1, 182402, Note_off_c, 0, 78, 64
1, 182404, Control_c, 0, 64, 106
1, 182419, Control_c, 0, 64, 109
1, 182420, Note_on_c, 0, 74, 78
1, 182434, Control_c, 0, 64, 111
1, 182449, Control_c, 0, 64, 113
1, 182464, Control_c, 0, 64, 117
1, 182465, Note_off_c, 0, 74, 65
1, 182478, Control_c, 0, 64, 125
1, 182493, Control_c, 0, 64, 127
1, 182496, Note_on_c, 0, 75, 77
1, 182535, Note_off_c, 0, 75, 57
1, 182563, Note_on_c, 0, 70, 83
1, 182596, Control_c, 0, 64, 119
1, 182611, Control_c, 0, 64, 96
1, 182622, Note_off_c, 0, 70, 60
1, 182626, Control_c, 0, 64, 70
1, 182634, Note_on_c, 0, 53, 75
1, 182641, Control_c, 0, 64, 0
1, 182642, Note_on_c, 0, 68, 76
1, 182670, Note_off_c, 0, 53, 65
1, 182698, Note_off_c, 0, 68, 64
1, 182714, Note_on_c, 0, 73, 77
1, 182745, Note_off_c, 0, 73, 64
1, 182745, Control_c, 0, 64, 56
1, 182745, Control_c, 0, 67, 122
1, 182760, Control_c, 0, 64, 80
1, 182760, Control_c, 0, 67, 116
1, 182775, Control_c, 0, 64, 101
1, 182775, Control_c, 0, 67, 109
1, 182790, Control_c, 0, 64, 127
1, 182790, Control_c, 0, 67, 100
1, 182803, Note_on_c, 0, 77, 94
1, 182805, Control_c, 0, 67, 91
1, 182807, Note_on_c, 0, 68, 84
1, 182814, Note_on_c, 0, 56, 74
1, 182818, Note_on_c, 0, 61, 65
1, 182819, Control_c, 0, 67, 80
1, 182829, Note_off_c, 0, 68, 67
1, 182834, Control_c, 0, 67, 69
1, 182845, Note_off_c, 0, 61, 65
1, 182848, Note_off_c, 0, 56, 65
1, 182857, Control_c, 0, 67, 60
1, 182872, Control_c, 0, 67, 53
1, 182887, Control_c, 0, 67, 48
1, 182889, Note_on_c, 0, 80, 86
1, 182890, Note_off_c, 0, 77, 56
1, 182901, Control_c, 0, 67, 44
1, 182916, Control_c, 0, 67, 40
1, 182931, Control_c, 0, 67, 37
1, 182945, Control_c, 0, 67, 36
1, 182957, Note_off_c, 0, 80, 65
1, 182960, Control_c, 0, 67, 35
1, 182966, Note_on_c, 0, 84, 83
1, 182975, Control_c, 0, 67, 34
1, 182990, Control_c, 0, 67, 33
1, 183005, Control_c, 0, 67, 32
1, 183019, Control_c, 0, 67, 31
1, 183036, Note_on_c, 0, 82, 84
1, 183064, Control_c, 0, 67, 31
1, 183076, Note_off_c, 0, 84, 64
1, 183079, Control_c, 0, 64, 97
1, 183094, Control_c, 0, 64, 68
1, 183094, Control_c, 0, 67, 30
1, 183100, Note_on_c, 0, 48, 85
1, 183103, Note_on_c, 0, 80, 80
1, 183109, Control_c, 0, 64, 0
1, 183109, Control_c, 0, 67, 30
1, 183124, Control_c, 0, 67, 27
1, 183135, Note_off_c, 0, 82, 64
1, 183138, Control_c, 0, 67, 26
1, 183142, Note_off_c, 0, 48, 65
1, 183163, Note_off_c, 0, 80, 64
1, 183168, Control_c, 0, 64, 66
1, 183174, Note_on_c, 0, 77, 87
1, 183183, Control_c, 0, 64, 78
1, 183198, Control_c, 0, 64, 97
1, 183213, Control_c, 0, 64, 127
1, 183228, Note_off_c, 0, 77, 63
1, 183257, Note_on_c, 0, 56, 86
1, 183257, Control_c, 0, 67, 25
1, 183258, Note_on_c, 0, 78, 85
1, 183260, Note_on_c, 0, 68, 79
1, 183276, Note_off_c, 0, 68, 70
1, 183290, Note_off_c, 0, 56, 55
1, 183295, Note_on_c, 0, 63, 14
1, 183320, Note_on_c, 0, 74, 83
1, 183320, Note_off_c, 0, 78, 63
1, 183341, Note_off_c, 0, 63, 38
1, 183356, Poly_aftertouch_c, 0, 80, 0
1, 183360, Note_off_c, 0, 74, 67
1, 183398, Note_on_c, 0, 75, 89
1, 183434, Control_c, 0, 67, 26
1, 183449, Control_c, 0, 67, 26
1, 183463, Control_c, 0, 67, 27
1, 183486, Note_on_c, 0, 66, 86
1, 183517, Note_off_c, 0, 75, 60
1, 183559, Note_off_c, 0, 66, 65
1, 183566, Note_on_c, 0, 65, 83
1, 183568, Note_on_c, 0, 37, 90
1, 183568, Control_c, 0, 64, 125
1, 183591, Control_c, 0, 64, 87
1, 183606, Control_c, 0, 64, 41
1, 183606, Control_c, 0, 67, 26
1, 183621, Control_c, 0, 64, 0
1, 183621, Control_c, 0, 67, 25
1, 183636, Control_c, 0, 67, 25
1, 183650, Control_c, 0, 67, 24
1, 183657, Note_on_c, 0, 67, 83
1, 183665, Control_c, 0, 64, 66
1, 183676, Note_off_c, 0, 65, 63
1, 183680, Control_c, 0, 64, 87
1, 183680, Control_c, 0, 67, 23
1, 183690, Note_off_c, 0, 37, 65
1, 183694, Control_c, 0, 64, 127
1, 183694, Control_c, 0, 67, 22
1, 183709, Control_c, 0, 67, 21
1, 183724, Control_c, 0, 67, 17
1, 183739, Note_on_c, 0, 68, 82
1, 183739, Control_c, 0, 67, 11
1, 183754, Control_c, 0, 67, 0
1, 183760, Note_off_c, 0, 67, 60
1, 183810, Note_on_c, 0, 70, 82
1, 183824, Note_off_c, 0, 68, 65
1, 183835, Note_off_c, 0, 70, 68
1, 183883, Note_on_c, 0, 72, 91
1, 183951, Note_on_c, 0, 73, 85
1, 183953, Note_off_c, 0, 72, 67
1, 184033, Note_on_c, 0, 75, 87
1, 184034, Note_on_c, 0, 68, 89
1, 184042, Note_on_c, 0, 65, 79
1, 184054, Note_on_c, 0, 61, 75
1, 184057, Note_off_c, 0, 73, 61
1, 184107, Note_on_c, 0, 76, 84
1, 184110, Note_off_c, 0, 75, 63
1, 184125, Note_on_c, 0, 74, 38
1, 184140, Note_off_c, 0, 76, 63
1, 184151, Note_off_c, 0, 74, 57
1, 184184, Note_off_c, 0, 65, 57
1, 184188, Note_on_c, 0, 76, 79
1, 184213, Note_off_c, 0, 68, 60
1, 184223, Note_on_c, 0, 77, 28
1, 184257, Note_on_c, 0, 79, 81
1, 184260, Note_off_c, 0, 76, 67
1, 184266, Note_off_c, 0, 77, 0
1, 184266, Note_on_c, 0, 77, 57
1, 184327, Note_off_c, 0, 77, 58
1, 184345, Note_on_c, 0, 81, 87
1, 184351, Note_off_c, 0, 61, 59
1, 184360, Note_on_c, 0, 57, 89
1, 184369, Note_off_c, 0, 79, 59
1, 184408, Note_on_c, 0, 82, 82
1, 184423, Note_off_c, 0, 81, 61
1, 184447, Note_off_c, 0, 82, 67
1, 184459, Note_on_c, 0, 83, 40
1, 184486, Note_off_c, 0, 83, 34
1, 184497, Note_on_c, 0, 84, 87
1, 184502, Note_on_c, 0, 58, 94
1, 184522, Note_off_c, 0, 57, 61
1, 184562, Control_c, 0, 64, 97
1, 184577, Note_on_c, 0, 85, 58
1, 184577, Control_c, 0, 64, 71
1, 184585, Note_on_c, 0, 86, 80
1, 184591, Control_c, 0, 64, 0
1, 184611, Note_off_c, 0, 84, 43
1, 184621, Control_c, 0, 64, 58
1, 184636, Control_c, 0, 64, 76
1, 184641, Note_on_c, 0, 87, 83
1, 184651, Control_c, 0, 64, 96
1, 184654, Note_off_c, 0, 85, 49
1, 184654, Note_off_c, 0, 86, 63
1, 184665, Control_c, 0, 64, 127
1, 184694, Note_off_c, 0, 87, 67
1, 184709, Note_on_c, 0, 88, 82
1, 184727, Note_off_c, 0, 88, 70
1, 184773, Note_on_c, 0, 88, 86
1, 184787, Note_on_c, 0, 89, 61
1, 184812, Note_off_c, 0, 89, 38
1, 184837, Note_on_c, 0, 91, 90
1, 184841, Note_off_c, 0, 88, 61
1, 184911, Note_on_c, 0, 93, 91
1, 184918, Note_on_c, 0, 60, 94
1, 184943, Note_off_c, 0, 58, 63
1, 184967, Note_on_c, 0, 94, 91
1, 184979, Note_off_c, 0, 91, 58
1, 184984, Note_off_c, 0, 94, 70
1, 185000, Note_off_c, 0, 93, 60
1, 185040, Note_off_c, 0, 60, 65
1, 185046, Note_on_c, 0, 96, 99
1, 185123, Note_on_c, 0, 97, 97
1, 185145, Note_off_c, 0, 96, 63
1, 185195, Note_on_c, 0, 99, 89
1, 185258, Note_off_c, 0, 99, 70
1, 185261, Note_on_c, 0, 100, 97
1, 185261, Note_off_c, 0, 97, 63
1, 185375, Note_on_c, 0, 49, 94
1, 185375, Note_on_c, 0, 101, 101
1, 185385, Control_c, 0, 64, 91
1, 185393, Note_off_c, 0, 100, 66
1, 185400, Control_c, 0, 64, 39
1, 185414, Control_c, 0, 64, 0
1, 185429, Control_c, 0, 64, 53
1, 185444, Control_c, 0, 64, 74
1, 185459, Control_c, 0, 64, 100
1, 185470, Note_on_c, 0, 100, 91
1, 185472, Note_off_c, 0, 49, 63
1, 185474, Control_c, 0, 64, 127
1, 185551, Note_on_c, 0, 99, 95
1, 185554, Note_off_c, 0, 101, 60
1, 185621, Note_off_c, 0, 100, 62
1, 185627, Note_on_c, 0, 97, 91
1, 185671, Note_off_c, 0, 99, 66
1, 185720, Note_on_c, 0, 70, 97
1, 185721, Note_on_c, 0, 96, 83
1, 185726, Note_off_c, 0, 97, 65
1, 185727, Note_on_c, 0, 68, 86
1, 185731, Note_on_c, 0, 65, 79
1, 185814, Note_on_c, 0, 94, 93
1, 185818, Note_off_c, 0, 68, 52
1, 185841, Note_off_c, 0, 70, 57
1, 185845, Note_off_c, 0, 96, 64
1, 185851, Note_off_c, 0, 65, 55
1, 185934, Note_on_c, 0, 92, 92
1, 185938, Note_on_c, 0, 70, 96
1, 185946, Note_on_c, 0, 65, 85
1, 185953, Note_on_c, 0, 68, 77
1, 185970, Note_off_c, 0, 94, 62
1, 186021, Note_on_c, 0, 91, 89
1, 186049, Note_off_c, 0, 92, 66
1, 186084, Note_off_c, 0, 70, 56
1, 186102, Note_off_c, 0, 91, 61
1, 186108, Note_on_c, 0, 89, 89
1, 186113, Note_off_c, 0, 68, 55
1, 186116, Note_off_c, 0, 65, 53
1, 186159, Note_off_c, 0, 89, 66
1, 186192, Note_on_c, 0, 72, 87
1, 186199, Note_on_c, 0, 88, 90
1, 186223, Note_on_c, 0, 89, 48
1, 186229, Note_off_c, 0, 72, 68
1, 186245, Note_off_c, 0, 89, 58
1, 186280, Note_on_c, 0, 87, 90
1, 186289, Note_on_c, 0, 73, 97
1, 186292, Note_on_c, 0, 68, 82
1, 186293, Note_on_c, 0, 70, 82
1, 186337, Note_off_c, 0, 88, 52
1, 186364, Note_on_c, 0, 85, 81
1, 186395, Note_off_c, 0, 73, 58
1, 186397, Note_off_c, 0, 68, 54
1, 186399, Note_off_c, 0, 87, 61
1, 186403, Note_off_c, 0, 70, 57
1, 186476, Note_off_c, 0, 85, 66
1, 186504, Note_on_c, 0, 73, 101
1, 186504, Note_on_c, 0, 84, 86
1, 186512, Note_on_c, 0, 68, 83
1, 186513, Note_on_c, 0, 70, 81
1, 186592, Note_off_c, 0, 73, 61
1, 186617, Note_on_c, 0, 82, 85
1, 186618, Note_off_c, 0, 68, 61
1, 186619, Note_off_c, 0, 70, 62
1, 186620, Note_off_c, 0, 84, 38
1, 186724, Note_on_c, 0, 80, 76
1, 186804, Note_off_c, 0, 82, 58
1, 186807, Note_on_c, 0, 79, 69
1, 186857, Note_off_c, 0, 80, 62
1, 186895, Note_off_c, 0, 79, 64
1, 186897, Note_on_c, 0, 65, 81
1, 186902, Note_on_c, 0, 61, 69
1, 186908, Note_on_c, 0, 56, 62
1, 186911, Note_on_c, 0, 58, 64
1, 186921, Note_on_c, 0, 77, 78
1, 186927, Control_c, 0, 64, 106
1, 186942, Control_c, 0, 64, 81
1, 186957, Control_c, 0, 64, 54
1, 186972, Control_c, 0, 64, 0
1, 186986, Control_c, 0, 64, 42
1, 187001, Control_c, 0, 64, 68
1, 187016, Control_c, 0, 64, 81
1, 187031, Note_on_c, 0, 76, 80
1, 187031, Control_c, 0, 64, 101
1, 187039, Note_off_c, 0, 77, 0
1, 187046, Control_c, 0, 64, 127
1, 187047, Note_off_c, 0, 56, 56
1, 187065, Note_off_c, 0, 58, 57
1, 187072, Note_off_c, 0, 65, 63
1, 187073, Note_off_c, 0, 61, 55
1, 187108, Poly_aftertouch_c, 0, 77, 0
1, 187163, Note_on_c, 0, 75, 77
1, 187165, Note_on_c, 0, 65, 78
1, 187175, Note_on_c, 0, 56, 56
1, 187184, Note_on_c, 0, 61, 62
1, 187186, Note_on_c, 0, 58, 58
1, 187199, Note_off_c, 0, 76, 60
1, 187231, Note_off_c, 0, 65, 63
1, 187255, Note_on_c, 0, 73, 75
1, 187258, Note_off_c, 0, 56, 63
1, 187261, Note_off_c, 0, 61, 61
1, 187272, Note_off_c, 0, 58, 62
1, 187288, Note_off_c, 0, 75, 60
1, 187339, Note_off_c, 0, 73, 62
1, 187369, Note_on_c, 0, 72, 74
1, 187437, Note_off_c, 0, 72, 61
1, 187456, Note_on_c, 0, 75, 69
1, 187544, Note_on_c, 0, 73, 70
1, 187584, Note_off_c, 0, 75, 54
1, 187612, Note_off_c, 0, 73, 60
1, 187627, Note_on_c, 0, 65, 71
1, 187721, Control_c, 0, 64, 98
1, 187734, Note_on_c, 0, 37, 63
1, 187734, Note_on_c, 0, 49, 63
1, 187735, Control_c, 0, 64, 78
1, 187744, Note_off_c, 0, 65, 64
1, 187750, Control_c, 0, 64, 40
1, 187762, Note_on_c, 0, 70, 62
1, 187765, Control_c, 0, 64, 0
1, 187780, Control_c, 0, 64, 65
1, 187795, Control_c, 0, 64, 77
1, 187806, Note_off_c, 0, 37, 65
1, 187809, Control_c, 0, 64, 97
1, 187818, Note_off_c, 0, 49, 62
1, 187824, Control_c, 0, 64, 127
1, 187839, Note_off_c, 0, 70, 60
1, 187881, Note_on_c, 0, 72, 54
1, 187950, Note_off_c, 0, 72, 64
1, 187960, Note_on_c, 0, 70, 67
1, 187996, Note_on_c, 0, 65, 63
1, 188004, Note_on_c, 0, 58, 49
1, 188009, Note_off_c, 0, 70, 59
1, 188014, Note_on_c, 0, 72, 63
1, 188087, Note_on_c, 0, 70, 75
1, 188102, Note_off_c, 0, 65, 38
1, 188111, Note_off_c, 0, 72, 63
1, 188112, Poly_aftertouch_c, 0, 74, 127
1, 188126, Note_on_c, 0, 53, 72
1, 188131, Poly_aftertouch_c, 0, 74, 0
1, 188136, Note_off_c, 0, 58, 61
1, 188147, Note_off_c, 0, 70, 63
1, 188150, Note_on_c, 0, 69, 85
1, 188179, Note_off_c, 0, 53, 64
1, 188219, Note_off_c, 0, 69, 64
1, 188222, Note_on_c, 0, 70, 85
1, 188261, Control_c, 0, 64, 101
1, 188262, Note_off_c, 0, 70, 64
1, 188276, Control_c, 0, 64, 79
1, 188285, Note_on_c, 0, 48, 91
1, 188291, Control_c, 0, 64, 60
1, 188306, Note_on_c, 0, 72, 89
1, 188307, Control_c, 0, 64, 58
1, 188322, Control_c, 0, 64, 71
1, 188337, Control_c, 0, 64, 85
1, 188338, Note_off_c, 0, 48, 65
1, 188352, Control_c, 0, 64, 105
1, 188366, Control_c, 0, 64, 127
1, 188371, Note_off_c, 0, 72, 62
1, 188406, Note_on_c, 0, 73, 75
1, 188459, Note_off_c, 0, 73, 64
1, 188466, Note_on_c, 0, 72, 83
1, 188495, Note_on_c, 0, 63, 73
1, 188506, Note_on_c, 0, 57, 65
1, 188528, Note_off_c, 0, 72, 61
1, 188532, Note_on_c, 0, 73, 80
1, 188563, Note_on_c, 0, 75, 45
1, 188567, Note_off_c, 0, 63, 61
1, 188588, Note_on_c, 0, 72, 79
1, 188588, Note_off_c, 0, 75, 57
1, 188601, Note_off_c, 0, 73, 62
1, 188609, Note_off_c, 0, 57, 57
1, 188629, Note_on_c, 0, 53, 82
1, 188648, Note_off_c, 0, 72, 64
1, 188653, Note_on_c, 0, 71, 84
1, 188674, Note_off_c, 0, 53, 65
1, 188725, Note_on_c, 0, 72, 90
1, 188749, Note_off_c, 0, 71, 57
1, 188781, Control_c, 0, 64, 100
1, 188789, Note_on_c, 0, 46, 96
1, 188796, Control_c, 0, 64, 71
1, 188811, Control_c, 0, 64, 0
1, 188813, Note_on_c, 0, 73, 85
1, 188826, Note_off_c, 0, 72, 64
1, 188847, Control_c, 0, 64, 62
1, 188862, Control_c, 0, 64, 78
1, 188868, Note_off_c, 0, 46, 62
1, 188877, Control_c, 0, 64, 103
1, 188892, Control_c, 0, 64, 127
1, 188901, Note_off_c, 0, 73, 62
1, 188908, Note_on_c, 0, 75, 80
1, 188983, Note_off_c, 0, 75, 65
1, 188999, Note_on_c, 0, 73, 87
1, 189019, Note_on_c, 0, 61, 78
1, 189035, Note_on_c, 0, 58, 69
1, 189061, Note_off_c, 0, 73, 61
1, 189067, Note_on_c, 0, 75, 80
1, 189099, Note_off_c, 0, 61, 55
1, 189121, Note_on_c, 0, 73, 78
1, 189143, Note_off_c, 0, 75, 64
1, 189155, Note_on_c, 0, 53, 83
1, 189159, Note_off_c, 0, 58, 64
1, 189183, Note_on_c, 0, 72, 91
1, 189183, Note_off_c, 0, 73, 65
1, 189199, Note_off_c, 0, 53, 67
1, 189255, Note_on_c, 0, 73, 93
1, 189281, Note_off_c, 0, 72, 66
1, 189367, Control_c, 0, 64, 106
1, 189369, Note_on_c, 0, 76, 98
1, 189370, Note_on_c, 0, 49, 96
1, 189381, Control_c, 0, 64, 76
1, 189386, Note_off_c, 0, 73, 64
1, 189396, Control_c, 0, 64, 0
1, 189441, Control_c, 0, 64, 69
1, 189456, Control_c, 0, 64, 91
1, 189471, Control_c, 0, 64, 127
1, 189485, Note_off_c, 0, 49, 59
1, 189494, Note_on_c, 0, 77, 93
1, 189499, Note_off_c, 0, 76, 62
1, 189590, Note_on_c, 0, 76, 85
1, 189595, Note_off_c, 0, 77, 62
1, 189625, Note_on_c, 0, 65, 85
1, 189636, Note_on_c, 0, 58, 76
1, 189648, Note_on_c, 0, 77, 87
1, 189655, Note_off_c, 0, 76, 66
1, 189723, Note_on_c, 0, 76, 88
1, 189793, Note_on_c, 0, 75, 88
1, 189803, Note_off_c, 0, 77, 59
1, 189807, Note_off_c, 0, 76, 67
1, 189810, Note_on_c, 0, 56, 84
1, 189822, Note_off_c, 0, 65, 63
1, 189841, Note_off_c, 0, 58, 62
1, 189887, Note_off_c, 0, 56, 66
1, 189891, Note_on_c, 0, 76, 90
1, 189910, Note_off_c, 0, 75, 63
1, 189997, Note_on_c, 0, 79, 97
1, 190001, Note_off_c, 0, 76, 66
1, 190087, Note_on_c, 0, 77, 96
1, 190117, Note_off_c, 0, 79, 66
1, 190176, Note_on_c, 0, 75, 95
1, 190242, Note_on_c, 0, 39, 80
1, 190255, Note_off_c, 0, 77, 48
1, 190370, Note_on_c, 0, 63, 99
1, 190420, Control_c, 0, 64, 120
1, 190435, Control_c, 0, 64, 81
1, 190450, Control_c, 0, 64, 0
1, 190524, Control_c, 0, 64, 74
1, 190528, Note_off_c, 0, 39, 63
1, 190538, Control_c, 0, 64, 102
1, 190543, Note_on_c, 0, 46, 60
1, 190553, Control_c, 0, 64, 127
1, 190594, Note_off_c, 0, 63, 64
1, 190613, Note_off_c, 0, 75, 60
1, 190629, Note_on_c, 0, 51, 63
1, 190650, Note_off_c, 0, 46, 55
1, 190679, Note_off_c, 0, 51, 61
1, 190699, Note_on_c, 0, 55, 63
1, 190759, Note_off_c, 0, 55, 60
1, 190774, Note_on_c, 0, 51, 68
1, 190834, Note_off_c, 0, 51, 61
1, 190844, Note_on_c, 0, 46, 64
1, 190929, Note_off_c, 0, 46, 61
1, 190949, Note_on_c, 0, 41, 67
1, 190953, Control_c, 0, 64, 107
1, 190955, Note_on_c, 0, 80, 84
1, 190961, Note_on_c, 0, 68, 77
1, 190966, Note_on_c, 0, 73, 77
1, 190968, Control_c, 0, 64, 85
1, 190983, Control_c, 0, 64, 65
1, 190998, Control_c, 0, 64, 0
1, 191013, Control_c, 0, 64, 64
1, 191027, Control_c, 0, 64, 77
1, 191042, Control_c, 0, 64, 98
1, 191057, Control_c, 0, 64, 127
1, 191106, Note_on_c, 0, 44, 71
1, 191135, Note_off_c, 0, 68, 65
1, 191146, Note_off_c, 0, 41, 51
1, 191151, Note_off_c, 0, 80, 64
1, 191212, Note_on_c, 0, 79, 86
1, 191214, Note_on_c, 0, 67, 81
1, 191225, Note_on_c, 0, 49, 71
1, 191243, Note_off_c, 0, 73, 61
1, 191291, Note_off_c, 0, 49, 62
1, 191301, Note_on_c, 0, 56, 66
1, 191305, Note_off_c, 0, 79, 61
1, 191315, Note_off_c, 0, 67, 60
1, 191317, Note_off_c, 0, 44, 30
1, 191370, Note_on_c, 0, 49, 71
1, 191371, Note_off_c, 0, 56, 60
1, 191377, Note_on_c, 0, 77, 96
1, 191383, Note_on_c, 0, 65, 90
1, 191434, Note_on_c, 0, 44, 67
1, 191440, Note_off_c, 0, 49, 62
1, 191465, Note_off_c, 0, 77, 57
1, 191468, Note_off_c, 0, 65, 60
1, 191558, Note_on_c, 0, 43, 82
1, 191558, Note_on_c, 0, 75, 98
1, 191559, Note_off_c, 0, 44, 63
1, 191561, Note_on_c, 0, 63, 94
1, 191598, Control_c, 0, 64, 111
1, 191613, Control_c, 0, 64, 87
1, 191628, Control_c, 0, 64, 63
1, 191643, Control_c, 0, 64, 0
1, 191673, Control_c, 0, 64, 29
1, 191688, Control_c, 0, 64, 75
1, 191700, Note_on_c, 0, 49, 80
1, 191702, Note_off_c, 0, 43, 57
1, 191702, Control_c, 0, 64, 99
1, 191717, Control_c, 0, 64, 127
1, 191749, Note_off_c, 0, 63, 66
1, 191760, Note_off_c, 0, 75, 62
1, 191780, Note_on_c, 0, 51, 76
1, 191861, Note_off_c, 0, 51, 63
1, 191863, Note_off_c, 0, 49, 57
1, 191864, Note_on_c, 0, 58, 81
1, 191927, Note_on_c, 0, 51, 74
1, 191929, Note_off_c, 0, 58, 63
1, 191988, Note_on_c, 0, 49, 78
1, 191995, Note_off_c, 0, 51, 63
1, 192077, Note_off_c, 0, 49, 62
1, 192093, Note_on_c, 0, 80, 103
1, 192096, Note_on_c, 0, 68, 99
1, 192099, Note_on_c, 0, 73, 90
1, 192108, Note_on_c, 0, 41, 78
1, 192109, Control_c, 0, 64, 120
1, 192124, Control_c, 0, 64, 90
1, 192138, Poly_aftertouch_c, 0, 48, 0
1, 192139, Control_c, 0, 64, 65
1, 192154, Control_c, 0, 64, 0
1, 192198, Control_c, 0, 64, 70
1, 192213, Control_c, 0, 64, 97
1, 192227, Control_c, 0, 64, 127
1, 192281, Note_on_c, 0, 44, 75
1, 192339, Note_off_c, 0, 68, 61
1, 192355, Note_off_c, 0, 80, 61
1, 192369, Note_off_c, 0, 41, 38
1, 192396, Note_off_c, 0, 73, 62
1, 192430, Note_on_c, 0, 79, 99
1, 192433, Note_on_c, 0, 67, 98
1, 192456, Note_on_c, 0, 49, 72
1, 192475, Note_off_c, 0, 44, 59
1, 192547, Note_on_c, 0, 56, 75
1, 192550, Note_off_c, 0, 49, 61
1, 192601, Note_off_c, 0, 79, 56
1, 192609, Note_off_c, 0, 67, 56
1, 192663, Note_off_c, 0, 56, 60
1, 192676, Note_on_c, 0, 49, 75
1, 192678, Note_on_c, 0, 77, 98
1, 192683, Note_on_c, 0, 65, 100
1, 192785, Note_on_c, 0, 44, 74
1, 192786, Note_off_c, 0, 49, 62
1, 192788, Note_off_c, 0, 77, 56
1, 192793, Note_off_c, 0, 65, 61
1, 192904, Note_on_c, 0, 75, 100
1, 192905, Note_on_c, 0, 63, 97
1, 192921, Note_on_c, 0, 43, 79
1, 192923, Note_off_c, 0, 44, 60
1, 192933, Control_c, 0, 64, 123
1, 192948, Control_c, 0, 64, 92
1, 192963, Control_c, 0, 64, 68
1, 192978, Control_c, 0, 64, 0
1, 193022, Control_c, 0, 64, 69
1, 193037, Control_c, 0, 64, 92
1, 193051, Control_c, 0, 64, 127
1, 193071, Note_on_c, 0, 49, 78
1, 193101, Note_off_c, 0, 43, 39
1, 193112, Note_off_c, 0, 63, 65
1, 193129, Note_off_c, 0, 75, 58
1, 193151, Note_on_c, 0, 51, 73
1, 193210, Note_on_c, 0, 58, 72
1, 193213, Note_off_c, 0, 49, 58
1, 193219, Note_off_c, 0, 51, 62
1, 193287, Note_off_c, 0, 58, 63
1, 193288, Note_on_c, 0, 77, 102
1, 193291, Note_on_c, 0, 65, 95
1, 193291, Note_on_c, 0, 73, 86
1, 193300, Note_on_c, 0, 51, 69
1, 193371, Note_on_c, 0, 49, 71
1, 193378, Note_off_c, 0, 51, 55
1, 193507, Note_on_c, 0, 45, 95
1, 193517, Note_off_c, 0, 49, 60
1, 193563, Control_c, 0, 64, 97
1, 193578, Control_c, 0, 64, 71
1, 193593, Control_c, 0, 64, 0
1, 193652, Control_c, 0, 64, 60
1, 193667, Control_c, 0, 64, 82
1, 193682, Control_c, 0, 64, 115
1, 193693, Note_off_c, 0, 73, 56
1, 193697, Control_c, 0, 64, 127
1, 193715, Note_on_c, 0, 51, 77
1, 193768, Note_off_c, 0, 45, 54
1, 193790, Note_off_c, 0, 77, 55
1, 193798, Note_on_c, 0, 53, 60
1, 193849, Note_on_c, 0, 60, 79
1, 193850, Note_off_c, 0, 51, 61
1, 193862, Note_on_c, 0, 75, 98
1, 193867, Note_off_c, 0, 53, 66
1, 193870, Note_on_c, 0, 72, 80
1, 193898, Note_off_c, 0, 65, 60
1, 193927, Note_off_c, 0, 72, 65
1, 193935, Note_on_c, 0, 53, 63
1, 193938, Note_off_c, 0, 60, 57
1, 193950, Note_off_c, 0, 75, 64
1, 193974, Note_on_c, 0, 51, 66
1, 194015, Note_on_c, 0, 75, 90
1, 194063, Note_off_c, 0, 53, 60
1, 194066, Note_off_c, 0, 51, 57
1, 194093, Note_on_c, 0, 73, 91
1, 194103, Note_on_c, 0, 46, 84
1, 194105, Note_on_c, 0, 68, 85
1, 194107, Note_on_c, 0, 65, 81
1, 194118, Control_c, 0, 64, 113
1, 194133, Control_c, 0, 64, 86
1, 194146, Note_off_c, 0, 75, 62
1, 194148, Control_c, 0, 64, 53
1, 194163, Control_c, 0, 64, 0
1, 194192, Control_c, 0, 64, 58
1, 194207, Control_c, 0, 64, 79
1, 194211, Note_on_c, 0, 53, 71
1, 194222, Control_c, 0, 64, 103
1, 194237, Control_c, 0, 64, 127
1, 194240, Note_off_c, 0, 46, 58
1, 194261, Note_off_c, 0, 73, 59
1, 194308, Note_on_c, 0, 72, 96
1, 194310, Note_on_c, 0, 56, 73
1, 194339, Note_off_c, 0, 65, 63
1, 194341, Note_off_c, 0, 68, 62
1, 194359, Note_off_c, 0, 53, 60
1, 194374, Note_on_c, 0, 61, 76
1, 194400, Note_off_c, 0, 56, 56
1, 194436, Note_on_c, 0, 56, 45
1, 194446, Note_off_c, 0, 61, 62
1, 194465, Note_on_c, 0, 70, 96
1, 194495, Note_on_c, 0, 53, 85
1, 194511, Note_off_c, 0, 72, 63
1, 194514, Note_off_c, 0, 56, 63
1, 194539, Note_off_c, 0, 53, 67
1, 194667, Note_on_c, 0, 72, 92
1, 194671, Note_on_c, 0, 39, 77
1, 194674, Note_on_c, 0, 61, 90
1, 194675, Note_on_c, 0, 67, 76
1, 194705, Note_off_c, 0, 70, 59
1, 194712, Control_c, 0, 64, 119
1, 194726, Control_c, 0, 64, 92
1, 194741, Control_c, 0, 64, 63
1, 194756, Control_c, 0, 64, 0
1, 194800, Control_c, 0, 64, 63
1, 194823, Control_c, 0, 64, 82
1, 194838, Control_c, 0, 64, 118
1, 194839, Note_off_c, 0, 39, 64
1, 194841, Note_on_c, 0, 46, 74
1, 194853, Control_c, 0, 64, 127
1, 194920, Note_off_c, 0, 72, 61
1, 194923, Note_on_c, 0, 51, 81
1, 195005, Note_on_c, 0, 55, 76
1, 195008, Note_off_c, 0, 51, 61
1, 195023, Note_off_c, 0, 46, 36
1, 195056, Note_on_c, 0, 73, 101
1, 195074, Note_off_c, 0, 67, 34
1, 195095, Note_on_c, 0, 51, 83
1, 195105, Note_off_c, 0, 55, 60
1, 195119, Note_off_c, 0, 61, 56
1, 195164, Note_on_c, 0, 46, 78
1, 195169, Note_off_c, 0, 51, 63
1, 195217, Note_off_c, 0, 73, 51
1, 195279, Note_off_c, 0, 46, 57
1, 195300, Note_on_c, 0, 41, 85
1, 195303, Note_on_c, 0, 73, 107
1, 195304, Note_on_c, 0, 61, 102
1, 195306, Note_on_c, 0, 68, 96
1, 195326, Control_c, 0, 64, 94
1, 195341, Control_c, 0, 64, 58
1, 195356, Control_c, 0, 64, 0
1, 195386, Control_c, 0, 64, 67
1, 195400, Note_off_c, 0, 61, 66
1, 195400, Control_c, 0, 64, 95
1, 195415, Control_c, 0, 64, 127
1, 195426, Note_off_c, 0, 73, 60
1, 195435, Note_off_c, 0, 68, 62
1, 195450, Note_on_c, 0, 44, 80
1, 195492, Note_off_c, 0, 41, 59
1, 195555, Note_on_c, 0, 49, 85
1, 195585, Note_off_c, 0, 44, 63
1, 195640, Note_off_c, 0, 49, 63
1, 195646, Note_on_c, 0, 53, 79
1, 195758, Note_on_c, 0, 92, 103
1, 195759, Note_on_c, 0, 80, 103
1, 195770, Note_on_c, 0, 56, 79
1, 195783, Note_off_c, 0, 53, 62
1, 195804, Note_on_c, 0, 93, 30
1, 195834, Note_off_c, 0, 93, 41
1, 195910, Note_on_c, 0, 61, 82
1, 195936, Note_off_c, 0, 56, 65
1, 196042, Note_on_c, 0, 85, 96
1, 196048, Note_on_c, 0, 68, 97
1, 196070, Note_off_c, 0, 61, 56
1, 196109, Note_off_c, 0, 92, 62
1, 196126, Note_off_c, 0, 80, 64
1, 196134, Note_off_c, 0, 85, 67
1, 196161, Note_on_c, 0, 61, 87
1, 196162, Note_off_c, 0, 68, 60
1, 196301, Note_on_c, 0, 56, 79
1, 196301, Note_on_c, 0, 91, 103
1, 196302, Note_on_c, 0, 79, 108
1, 196327, Note_off_c, 0, 61, 59
1, 196375, Note_off_c, 0, 56, 64
1, 196458, Note_on_c, 0, 53, 87
1, 196475, Note_off_c, 0, 91, 61
1, 196480, Note_off_c, 0, 79, 62
1, 196591, Note_on_c, 0, 89, 109
1, 196594, Note_on_c, 0, 77, 107
1, 196596, Note_on_c, 0, 49, 84
1, 196616, Note_off_c, 0, 53, 59
1, 196707, Note_on_c, 0, 44, 90
1, 196713, Note_off_c, 0, 49, 60
1, 196724, Note_off_c, 0, 89, 65
1, 196739, Note_off_c, 0, 77, 61
1, 196831, Note_on_c, 0, 87, 105
1, 196833, Note_off_c, 0, 44, 59
1, 196833, Note_on_c, 0, 43, 88
1, 196836, Note_on_c, 0, 75, 100
1, 196840, Control_c, 0, 64, 124
1, 196854, Control_c, 0, 64, 88
1, 196869, Control_c, 0, 64, 68
1, 196884, Control_c, 0, 64, 66
1, 196898, Control_c, 0, 64, 78
1, 196913, Control_c, 0, 64, 99
1, 196928, Control_c, 0, 64, 127
1, 196953, Note_off_c, 0, 43, 59
1, 196955, Note_off_c, 0, 87, 62
1, 196960, Note_on_c, 0, 49, 83
1, 196962, Note_off_c, 0, 75, 60
1, 197040, Note_on_c, 0, 84, 100
1, 197041, Note_on_c, 0, 72, 99
1, 197070, Note_on_c, 0, 51, 73
1, 197074, Note_off_c, 0, 49, 64
1, 197118, Note_off_c, 0, 84, 60
1, 197119, Note_on_c, 0, 61, 77
1, 197123, Note_off_c, 0, 72, 60
1, 197131, Note_off_c, 0, 51, 61
1, 197181, Note_off_c, 0, 61, 63
1, 197211, Note_on_c, 0, 51, 70
1, 197214, Note_on_c, 0, 82, 101
1, 197218, Note_on_c, 0, 70, 99
1, 197253, Note_on_c, 0, 49, 84
1, 197253, Note_off_c, 0, 51, 53
1, 197317, Note_off_c, 0, 49, 57
1, 197317, Note_off_c, 0, 70, 58
1, 197320, Note_off_c, 0, 82, 61
1, 197363, Note_on_c, 0, 41, 80
1, 197366, Control_c, 0, 64, 122
1, 197381, Control_c, 0, 64, 92
1, 197381, Note_on_c, 0, 80, 103
1, 197385, Note_on_c, 0, 68, 98
1, 197389, Note_on_c, 0, 73, 89
1, 197395, Control_c, 0, 64, 68
1, 197410, Control_c, 0, 64, 0
1, 197425, Control_c, 0, 64, 52
1, 197440, Control_c, 0, 64, 71
1, 197452, Note_on_c, 0, 49, 75
1, 197454, Control_c, 0, 64, 87
1, 197459, Note_off_c, 0, 41, 64
1, 197469, Control_c, 0, 64, 117
1, 197484, Control_c, 0, 64, 127
1, 197486, Note_off_c, 0, 80, 63
1, 197491, Note_off_c, 0, 68, 62
1, 197511, Note_off_c, 0, 73, 61
1, 197512, Note_off_c, 0, 49, 60
1, 197536, Note_on_c, 0, 56, 71
1, 197551, Note_on_c, 0, 79, 99
1, 197553, Note_on_c, 0, 67, 100
1, 197617, Note_off_c, 0, 56, 64
1, 197624, Note_on_c, 0, 61, 68
1, 197626, Note_off_c, 0, 79, 61
1, 197629, Note_off_c, 0, 67, 60
1, 197649, Note_off_c, 0, 61, 66
1, 197681, Note_on_c, 0, 56, 76
1, 197698, Note_on_c, 0, 77, 105
1, 197701, Note_on_c, 0, 65, 102
1, 197749, Note_off_c, 0, 56, 59
1, 197770, Note_off_c, 0, 65, 65
1, 197773, Note_on_c, 0, 49, 76
1, 197776, Note_off_c, 0, 77, 58
1, 197884, Note_on_c, 0, 63, 107
1, 197886, Note_on_c, 0, 43, 86
1, 197886, Note_on_c, 0, 75, 105
1, 197891, Control_c, 0, 64, 89
1, 197894, Note_off_c, 0, 49, 60
1, 197907, Control_c, 0, 64, 63
1, 197922, Control_c, 0, 64, 0
1, 197951, Control_c, 0, 64, 71
1, 197966, Control_c, 0, 64, 94
1, 197981, Control_c, 0, 64, 127
1, 198006, Note_off_c, 0, 63, 62
1, 198010, Note_off_c, 0, 75, 64
1, 198013, Note_on_c, 0, 51, 73
1, 198017, Note_off_c, 0, 43, 61
1, 198093, Note_off_c, 0, 51, 59
1, 198133, Note_on_c, 0, 65, 97
1, 198133, Note_on_c, 0, 77, 99
1, 198135, Poly_aftertouch_c, 0, 50, 0
1, 198135, Note_on_c, 0, 58, 73
1, 198140, Note_on_c, 0, 73, 90
1, 198225, Note_off_c, 0, 58, 64
1, 198233, Note_on_c, 0, 61, 74
1, 198255, Note_off_c, 0, 61, 67
1, 198312, Note_on_c, 0, 58, 77
1, 198358, Note_off_c, 0, 58, 63
1, 198389, Note_on_c, 0, 51, 80
1, 198482, Note_on_c, 0, 45, 97
1, 198484, Control_c, 0, 64, 124
1, 198493, Note_off_c, 0, 51, 54
1, 198499, Control_c, 0, 64, 85
1, 198514, Control_c, 0, 64, 0
1, 198551, Note_off_c, 0, 73, 54
1, 198581, Control_c, 0, 64, 48
1, 198596, Control_c, 0, 64, 83
1, 198611, Control_c, 0, 64, 125
1, 198625, Control_c, 0, 64, 127
1, 198699, Note_on_c, 0, 51, 81
1, 198756, Note_off_c, 0, 45, 49
1, 198786, Note_on_c, 0, 53, 73
1, 198815, Note_off_c, 0, 77, 44
1, 198836, Note_on_c, 0, 60, 76
1, 198841, Note_off_c, 0, 51, 62
1, 198841, Note_off_c, 0, 53, 66
1, 198880, Note_on_c, 0, 75, 96
1, 198883, Note_on_c, 0, 72, 79
1, 198913, Note_off_c, 0, 65, 63
1, 198916, Note_on_c, 0, 53, 72
1, 198916, Note_off_c, 0, 60, 61
1, 198942, Note_off_c, 0, 72, 62
1, 198967, Note_on_c, 0, 51, 66
1, 198969, Note_off_c, 0, 75, 62
1, 199031, Note_on_c, 0, 75, 81
1, 199054, Note_off_c, 0, 53, 58
1, 199086, Note_off_c, 0, 51, 60
1, 199106, Note_on_c, 0, 46, 91
1, 199108, Note_on_c, 0, 73, 91
1, 199113, Note_on_c, 0, 65, 87
1, 199123, Note_on_c, 0, 68, 84
1, 199130, Control_c, 0, 64, 120
1, 199145, Control_c, 0, 64, 87
1, 199160, Control_c, 0, 64, 56
1, 199163, Note_off_c, 0, 75, 60
1, 199174, Control_c, 0, 64, 0
1, 199205, Control_c, 0, 64, 63
1, 199220, Control_c, 0, 64, 82
1, 199235, Control_c, 0, 64, 127
1, 199241, Note_on_c, 0, 53, 71
1, 199268, Note_off_c, 0, 46, 62
1, 199283, Note_off_c, 0, 73, 56
1, 199357, Note_on_c, 0, 72, 91
1, 199360, Note_on_c, 0, 56, 70
1, 199389, Note_off_c, 0, 65, 62
1, 199396, Note_off_c, 0, 68, 57
1, 199429, Note_on_c, 0, 61, 73
1, 199441, Note_off_c, 0, 56, 60
1, 199450, Note_off_c, 0, 53, 56
1, 199493, Note_on_c, 0, 56, 51
1, 199508, Note_off_c, 0, 61, 61
1, 199523, Note_on_c, 0, 70, 92
1, 199568, Note_on_c, 0, 53, 81
1, 199575, Note_off_c, 0, 72, 63
1, 199584, Note_off_c, 0, 56, 63
1, 199610, Note_off_c, 0, 53, 67
1, 199763, Note_on_c, 0, 72, 90
1, 199772, Note_on_c, 0, 61, 80
1, 199773, Note_on_c, 0, 67, 69
1, 199779, Note_on_c, 0, 39, 50
1, 199790, Control_c, 0, 64, 117
1, 199799, Note_off_c, 0, 70, 58
1, 199805, Note_on_c, 0, 37, 53
1, 199805, Control_c, 0, 64, 88
1, 199820, Control_c, 0, 64, 64
1, 199835, Control_c, 0, 64, 0
1, 199888, Note_off_c, 0, 37, 50
1, 199894, Control_c, 0, 64, 67
1, 199909, Control_c, 0, 64, 84
1, 199924, Control_c, 0, 64, 108
1, 199939, Control_c, 0, 64, 127
1, 199947, Note_on_c, 0, 46, 67
1, 199969, Note_off_c, 0, 72, 62
1, 199973, Note_off_c, 0, 67, 61
1, 199976, Note_off_c, 0, 61, 63
1, 199980, Note_off_c, 0, 39, 61
1, 200072, Note_on_c, 0, 51, 62
1, 200137, Note_on_c, 0, 55, 60
1, 200141, Note_off_c, 0, 46, 30
1, 200142, Note_off_c, 0, 51, 60
1, 200268, Note_off_c, 0, 55, 40
1, 200274, Note_on_c, 0, 51, 60
1, 200279, Note_on_c, 0, 63, 77
1, 200289, Note_on_c, 0, 61, 66
1, 200347, Control_c, 0, 64, 98
1, 200362, Control_c, 0, 64, 70
1, 200377, Control_c, 0, 64, 0
1, 200406, Note_on_c, 0, 46, 59
1, 200407, Control_c, 0, 64, 53
1, 200407, Note_off_c, 0, 51, 50
1, 200421, Control_c, 0, 64, 72
1, 200436, Control_c, 0, 64, 91
1, 200451, Control_c, 0, 64, 127
1, 200628, Control_c, 0, 64, 111
1, 200636, Note_on_c, 0, 68, 60
1, 200640, Note_off_c, 0, 61, 56
1, 200643, Note_on_c, 0, 44, 46
1, 200643, Control_c, 0, 64, 81
1, 200645, Note_on_c, 0, 60, 51
1, 200655, Note_on_c, 0, 51, 44
1, 200656, Note_off_c, 0, 63, 64
1, 200657, Note_off_c, 0, 46, 38
1, 200658, Control_c, 0, 64, 0
1, 200762, Control_c, 0, 64, 58
1, 200776, Control_c, 0, 64, 82
1, 200791, Control_c, 0, 64, 104
1, 200806, Control_c, 0, 64, 127
1, 200821, Note_off_c, 0, 60, 60
1, 200866, Note_off_c, 0, 68, 64
1, 200919, Note_off_c, 0, 51, 55
1, 200940, Note_off_c, 0, 44, 60
1, 201170, Note_on_c, 0, 80, 61
1, 201423, Note_on_c, 0, 68, 40
1, 201471, Note_off_c, 0, 80, 53
1, 201513, Note_off_c, 0, 68, 59
1, 201811, Note_on_c, 0, 80, 66
1, 202036, Note_on_c, 0, 68, 53
1, 202097, Note_off_c, 0, 80, 53
1, 202142, Note_off_c, 0, 68, 60
1, 202443, Note_on_c, 0, 80, 68
1, 202681, Control_c, 0, 67, 8
1, 202697, Control_c, 0, 67, 11
1, 202712, Control_c, 0, 67, 16
1, 202727, Note_on_c, 0, 68, 46
1, 202727, Control_c, 0, 67, 22
1, 202741, Control_c, 0, 67, 30
1, 202756, Control_c, 0, 67, 37
1, 202771, Control_c, 0, 67, 46
1, 202781, Note_off_c, 0, 80, 40
1, 202786, Control_c, 0, 67, 53
1, 202801, Control_c, 0, 67, 60
1, 202815, Control_c, 0, 67, 67
1, 202830, Control_c, 0, 67, 75
1, 202845, Control_c, 0, 67, 82
1, 202847, Note_off_c, 0, 68, 48
1, 202860, Control_c, 0, 67, 89
1, 202875, Control_c, 0, 67, 97
1, 202890, Control_c, 0, 67, 104
1, 202905, Control_c, 0, 67, 110
1, 202920, Control_c, 0, 67, 115
1, 202934, Control_c, 0, 67, 120
1, 202949, Control_c, 0, 67, 125
1, 202964, Control_c, 0, 67, 127
1, 203245, Note_on_c, 0, 80, 56
1, 203641, Note_on_c, 0, 68, 39
1, 203653, Control_c, 0, 64, 116
1, 203657, Note_on_c, 0, 32, 35
1, 203668, Control_c, 0, 64, 96
1, 203683, Control_c, 0, 64, 77
1, 203698, Control_c, 0, 64, 0
1, 203740, Note_off_c, 0, 80, 54
1, 203757, Control_c, 0, 64, 65
1, 203772, Control_c, 0, 64, 78
1, 203787, Control_c, 0, 64, 95
1, 203802, Control_c, 0, 64, 120
1, 203824, Control_c, 0, 64, 127
1, 203849, Note_off_c, 0, 68, 61
1, 203874, Note_off_c, 0, 32, 39
1, 204187, Note_on_c, 0, 77, 65
1, 204198, Note_on_c, 0, 61, 46
1, 204207, Note_on_c, 0, 51, 37
1, 204212, Note_on_c, 0, 56, 36
1, 204247, Note_on_c, 0, 66, 21
1, 204273, Note_off_c, 0, 61, 58
1, 204277, Note_off_c, 0, 51, 57
1, 204288, Note_off_c, 0, 56, 58
1, 204336, Note_off_c, 0, 66, 40
1, 204461, Note_on_c, 0, 68, 49
1, 204479, Note_on_c, 0, 44, 42
1, 204520, Note_off_c, 0, 77, 56
1, 204564, Note_off_c, 0, 68, 63
1, 204574, Note_off_c, 0, 44, 59
1, 204839, Note_on_c, 0, 75, 75
1, 204846, Note_on_c, 0, 60, 49
1, 204863, Note_on_c, 0, 51, 41
1, 204863, Note_on_c, 0, 66, 48
1, 204870, Note_on_c, 0, 56, 38
1, 204915, Note_off_c, 0, 51, 56
1, 205032, Note_off_c, 0, 60, 33
1, 205067, Note_off_c, 0, 66, 61
1, 205077, Control_c, 0, 64, 102
1, 205079, Note_on_c, 0, 68, 61
1, 205092, Control_c, 0, 64, 82
1, 205093, Note_on_c, 0, 49, 52
1, 205107, Control_c, 0, 64, 59
1, 205122, Control_c, 0, 64, 0
1, 205127, Note_off_c, 0, 56, 27
1, 205151, Control_c, 0, 64, 65
1, 205166, Control_c, 0, 64, 83
1, 205181, Control_c, 0, 64, 106
1, 205191, Note_off_c, 0, 75, 60
1, 205196, Control_c, 0, 64, 127
1, 205210, Note_off_c, 0, 68, 63
1, 205389, Note_off_c, 0, 49, 35
1, 205462, Note_on_c, 0, 73, 68
1, 205469, Note_on_c, 0, 61, 51
1, 205474, Note_on_c, 0, 56, 49
1, 205482, Note_on_c, 0, 65, 55
1, 205510, Note_off_c, 0, 61, 60
1, 205515, Note_off_c, 0, 56, 61
1, 205604, Note_off_c, 0, 73, 62
1, 205628, Note_on_c, 0, 75, 56
1, 205662, Control_c, 0, 64, 115
1, 205674, Note_on_c, 0, 46, 61
1, 205677, Control_c, 0, 64, 93
1, 205685, Note_off_c, 0, 65, 56
1, 205687, Note_on_c, 0, 73, 67
1, 205692, Control_c, 0, 64, 72
1, 205707, Control_c, 0, 64, 41
1, 205709, Note_off_c, 0, 75, 63
1, 205722, Control_c, 0, 64, 59
1, 205736, Control_c, 0, 64, 72
1, 205751, Note_off_c, 0, 73, 64
1, 205751, Control_c, 0, 64, 85
1, 205766, Control_c, 0, 64, 103
1, 205780, Control_c, 0, 64, 127
1, 205839, Note_on_c, 0, 73, 68
1, 205861, Note_off_c, 0, 73, 67
1, 205873, Note_on_c, 0, 63, 61
1, 205881, Note_on_c, 0, 72, 69
1, 205904, Note_off_c, 0, 46, 33
1, 205937, Note_off_c, 0, 63, 63
1, 206031, Note_on_c, 0, 56, 51
1, 206038, Note_on_c, 0, 53, 59
1, 206039, Note_on_c, 0, 70, 71
1, 206044, Note_on_c, 0, 61, 63
1, 206068, Note_off_c, 0, 56, 65
1, 206073, Note_off_c, 0, 53, 67
1, 206189, Control_c, 0, 64, 120
1, 206190, Note_off_c, 0, 72, 24
1, 206204, Control_c, 0, 64, 98
1, 206211, Note_off_c, 0, 61, 55
1, 206219, Control_c, 0, 64, 77
1, 206233, Control_c, 0, 64, 0
1, 206242, Note_on_c, 0, 63, 58
1, 206244, Note_on_c, 0, 39, 52
1, 206292, Control_c, 0, 64, 67
1, 206307, Control_c, 0, 64, 83
1, 206310, Note_off_c, 0, 70, 60
1, 206322, Control_c, 0, 64, 110
1, 206337, Control_c, 0, 64, 127
1, 206351, Note_off_c, 0, 63, 64
1, 206366, Note_off_c, 0, 39, 61
1, 206612, Note_on_c, 0, 56, 51
1, 206627, Note_on_c, 0, 72, 71
1, 206628, Note_on_c, 0, 61, 40
1, 206633, Note_on_c, 0, 51, 51
1, 206646, Note_off_c, 0, 56, 61
1, 206677, Note_off_c, 0, 51, 62
1, 206787, Note_off_c, 0, 61, 37
1, 206819, Control_c, 0, 64, 113
1, 206833, Control_c, 0, 64, 90
1, 206848, Control_c, 0, 64, 68
1, 206849, Note_on_c, 0, 39, 54
1, 206858, Note_on_c, 0, 63, 49
1, 206863, Control_c, 0, 64, 0
1, 206907, Control_c, 0, 64, 63
1, 206917, Note_off_c, 0, 72, 59
1, 206922, Control_c, 0, 64, 79
1, 206937, Control_c, 0, 64, 101
1, 206952, Control_c, 0, 64, 127
1, 206975, Note_off_c, 0, 63, 64
1, 206998, Note_off_c, 0, 39, 61
1, 207265, Note_on_c, 0, 70, 68
1, 207277, Note_on_c, 0, 55, 46
1, 207283, Note_on_c, 0, 51, 50
1, 207286, Note_on_c, 0, 61, 46
1, 207305, Note_off_c, 0, 55, 62
1, 207314, Note_off_c, 0, 51, 64
1, 207500, Control_c, 0, 64, 110
1, 207502, Note_off_c, 0, 61, 56
1, 207515, Control_c, 0, 64, 91
1, 207528, Note_on_c, 0, 63, 52
1, 207529, Control_c, 0, 64, 71
1, 207532, Note_on_c, 0, 32, 50
1, 207544, Control_c, 0, 64, 0
1, 207597, Control_c, 0, 64, 66
1, 207611, Control_c, 0, 64, 80
1, 207626, Control_c, 0, 64, 96
1, 207630, Note_off_c, 0, 70, 58
1, 207641, Control_c, 0, 64, 114
1, 207653, Note_off_c, 0, 32, 57
1, 207655, Control_c, 0, 64, 127
1, 207692, Note_off_c, 0, 63, 64
1, 207958, Note_on_c, 0, 68, 60
1, 207966, Note_on_c, 0, 60, 49
1, 207978, Note_on_c, 0, 51, 44
1, 207995, Note_on_c, 0, 56, 40
1, 208097, Note_off_c, 0, 68, 62
1, 208121, Note_on_c, 0, 70, 55
1, 208160, Note_off_c, 0, 51, 54
1, 208185, Note_off_c, 0, 60, 61
1, 208187, Note_on_c, 0, 68, 66
1, 208187, Note_on_c, 0, 44, 55
1, 208207, Note_off_c, 0, 56, 40
1, 208222, Note_off_c, 0, 70, 57
1, 208373, Note_on_c, 0, 67, 68
1, 208383, Note_on_c, 0, 52, 61
1, 208386, Note_off_c, 0, 68, 56
1, 208390, Note_on_c, 0, 61, 49
1, 208449, Control_c, 0, 64, 124
1, 208459, Note_off_c, 0, 44, 37
1, 208464, Control_c, 0, 64, 120
1, 208478, Control_c, 0, 64, 117
1, 208482, Note_off_c, 0, 61, 52
1, 208493, Control_c, 0, 64, 115
1, 208508, Control_c, 0, 64, 112
1, 208523, Control_c, 0, 64, 110
1, 208538, Control_c, 0, 64, 108
1, 208552, Control_c, 0, 64, 105
1, 208567, Control_c, 0, 64, 102
1, 208582, Control_c, 0, 64, 98
1, 208597, Control_c, 0, 64, 92
1, 208598, Note_on_c, 0, 68, 62
1, 208604, Note_on_c, 0, 51, 54
1, 208609, Note_on_c, 0, 60, 49
1, 208611, Control_c, 0, 64, 82
1, 208614, Note_off_c, 0, 52, 53
1, 208626, Control_c, 0, 64, 70
1, 208631, Note_off_c, 0, 67, 46
1, 208641, Control_c, 0, 64, 0
1, 208786, Note_off_c, 0, 60, 57
1, 208789, Control_c, 0, 64, 49
1, 208804, Control_c, 0, 64, 65
1, 208819, Control_c, 0, 64, 69
1, 208834, Control_c, 0, 64, 74
1, 208849, Control_c, 0, 64, 81
1, 208862, Note_on_c, 0, 44, 45
1, 208864, Control_c, 0, 64, 88
1, 208877, Note_off_c, 0, 68, 59
1, 208878, Control_c, 0, 64, 95
1, 208893, Control_c, 0, 64, 103
1, 208908, Control_c, 0, 64, 112
1, 208923, Control_c, 0, 64, 124
1, 208938, Control_c, 0, 64, 127
1, 208972, Note_off_c, 0, 51, 35
1, 209020, Note_off_c, 0, 44, 59
1, 209301, Note_on_c, 0, 58, 67
1, 209320, Note_on_c, 0, 51, 45
1, 209320, Note_on_c, 0, 77, 62
1, 209335, Note_on_c, 0, 66, 35
1, 209447, Note_off_c, 0, 66, 45
1, 209478, Note_off_c, 0, 58, 61
1, 209547, Note_on_c, 0, 44, 51
1, 209574, Note_on_c, 0, 68, 45
1, 209576, Note_off_c, 0, 51, 28
1, 209595, Note_off_c, 0, 77, 54
1, 209645, Note_off_c, 0, 68, 62
1, 209651, Note_off_c, 0, 44, 61
1, 209934, Note_on_c, 0, 60, 72
1, 209936, Note_on_c, 0, 75, 69
1, 209942, Note_on_c, 0, 66, 44
1, 209947, Note_on_c, 0, 51, 53
1, 210105, Note_off_c, 0, 51, 60
1, 210132, Note_off_c, 0, 66, 58
1, 210154, Control_c, 0, 64, 119
1, 210169, Control_c, 0, 64, 96
1, 210173, Note_on_c, 0, 68, 53
1, 210175, Note_on_c, 0, 49, 63
1, 210184, Control_c, 0, 64, 72
1, 210199, Control_c, 0, 64, 0
1, 210244, Control_c, 0, 64, 37
1, 210257, Note_off_c, 0, 75, 61
1, 210258, Control_c, 0, 64, 71
1, 210263, Note_off_c, 0, 60, 57
1, 210273, Control_c, 0, 64, 88
1, 210288, Control_c, 0, 64, 118
1, 210301, Note_off_c, 0, 68, 63
1, 210303, Control_c, 0, 64, 127
1, 210540, Note_on_c, 0, 61, 73
1, 210552, Note_on_c, 0, 73, 68
1, 210554, Note_off_c, 0, 49, 33
1, 210560, Note_on_c, 0, 56, 59
1, 210576, Note_on_c, 0, 65, 54
1, 210636, Control_c, 0, 64, 119
1, 210650, Control_c, 0, 64, 93
1, 210665, Control_c, 0, 64, 70
1, 210681, Control_c, 0, 64, 0
1, 210697, Note_off_c, 0, 73, 62
1, 210711, Control_c, 0, 64, 22
1, 210717, Note_on_c, 0, 75, 58
1, 210717, Note_off_c, 0, 61, 61
1, 210726, Control_c, 0, 64, 71
1, 210741, Control_c, 0, 64, 86
1, 210755, Control_c, 0, 64, 107
1, 210770, Control_c, 0, 64, 127
1, 210771, Note_on_c, 0, 46, 70
1, 210788, Note_off_c, 0, 65, 65
1, 210789, Note_on_c, 0, 73, 65
1, 210812, Note_off_c, 0, 75, 64
1, 210841, Note_off_c, 0, 73, 63
1, 210847, Note_off_c, 0, 56, 34
1, 210857, Note_off_c, 0, 46, 63
1, 210982, Note_on_c, 0, 63, 76
1, 210995, Note_on_c, 0, 72, 67
1, 211105, Note_off_c, 0, 63, 57
1, 211229, Control_c, 0, 64, 103
1, 211235, Note_on_c, 0, 70, 71
1, 211244, Control_c, 0, 64, 82
1, 211250, Note_on_c, 0, 65, 65
1, 211258, Note_on_c, 0, 61, 58
1, 211259, Control_c, 0, 64, 57
1, 211260, Note_on_c, 0, 56, 50
1, 211262, Note_off_c, 0, 72, 52
1, 211273, Control_c, 0, 64, 0
1, 211311, Control_c, 0, 64, 61
1, 211325, Note_off_c, 0, 65, 66
1, 211326, Control_c, 0, 64, 77
1, 211341, Control_c, 0, 64, 94
1, 211355, Control_c, 0, 64, 118
1, 211362, Note_off_c, 0, 56, 63
1, 211370, Control_c, 0, 64, 127
1, 211440, Note_off_c, 0, 61, 50
1, 211588, Note_on_c, 0, 39, 56
1, 211594, Note_on_c, 0, 63, 53
1, 211608, Control_c, 0, 64, 124
1, 211622, Control_c, 0, 64, 105
1, 211637, Control_c, 0, 64, 87
1, 211652, Control_c, 0, 64, 67
1, 211662, Note_off_c, 0, 70, 54
1, 211667, Control_c, 0, 64, 0
1, 211726, Control_c, 0, 64, 64
1, 211741, Control_c, 0, 64, 75
1, 211756, Control_c, 0, 64, 90
1, 211770, Control_c, 0, 64, 109
1, 211781, Note_off_c, 0, 63, 60
1, 211785, Control_c, 0, 64, 121
1, 211800, Control_c, 0, 64, 125
1, 211815, Control_c, 0, 64, 127
1, 211830, Control_c, 0, 64, 127
1, 211832, Note_off_c, 0, 39, 49
1, 212050, Note_on_c, 0, 53, 54
1, 212056, Note_on_c, 0, 72, 63
1, 212067, Note_on_c, 0, 46, 44
1, 212080, Note_on_c, 0, 61, 30
1, 212138, Note_off_c, 0, 53, 51
1, 212199, Note_off_c, 0, 61, 37
1, 212267, Control_c, 0, 64, 125
1, 212283, Control_c, 0, 64, 106
1, 212293, Note_on_c, 0, 63, 52
1, 212296, Note_on_c, 0, 39, 55
1, 212298, Control_c, 0, 64, 90
1, 212313, Control_c, 0, 64, 75
1, 212327, Control_c, 0, 64, 61
1, 212342, Note_off_c, 0, 46, 40
1, 212357, Control_c, 0, 64, 69
1, 212372, Control_c, 0, 64, 78
1, 212373, Note_off_c, 0, 72, 59
1, 212387, Control_c, 0, 64, 91
1, 212401, Control_c, 0, 64, 104
1, 212416, Control_c, 0, 64, 116
1, 212431, Control_c, 0, 64, 127
1, 212436, Note_off_c, 0, 63, 63
1, 212463, Note_off_c, 0, 39, 59
1, 212694, Note_on_c, 0, 55, 56
1, 212694, Note_on_c, 0, 70, 68
1, 212711, Note_on_c, 0, 61, 35
1, 212718, Note_on_c, 0, 46, 53
1, 212736, Note_off_c, 0, 55, 63
1, 212761, Note_off_c, 0, 46, 59
1, 212927, Control_c, 0, 64, 120
1, 212941, Control_c, 0, 64, 104
1, 212956, Control_c, 0, 64, 88
1, 212961, Note_off_c, 0, 61, 36
1, 212971, Control_c, 0, 64, 70
1, 212983, Note_on_c, 0, 32, 48
1, 212986, Control_c, 0, 64, 0
1, 212992, Note_on_c, 0, 63, 43
1, 213031, Control_c, 0, 64, 60
1, 213045, Control_c, 0, 64, 75
1, 213060, Control_c, 0, 64, 91
1, 213076, Control_c, 0, 64, 110
1, 213084, Note_off_c, 0, 70, 55
1, 213091, Control_c, 0, 64, 127
1, 213144, Note_off_c, 0, 32, 47
1, 213147, Note_off_c, 0, 63, 64
1, 213427, Note_on_c, 0, 68, 53
1, 213436, Note_on_c, 0, 60, 45
1, 213437, Note_on_c, 0, 56, 43
1, 213440, Note_on_c, 0, 51, 43
1, 213563, Note_off_c, 0, 68, 63
1, 213597, Note_on_c, 0, 70, 46
1, 213645, Note_off_c, 0, 60, 61
1, 213651, Note_on_c, 0, 44, 57
1, 213660, Note_on_c, 0, 68, 63
1, 213684, Note_off_c, 0, 51, 35
1, 213704, Note_off_c, 0, 70, 56
1, 213816, Note_off_c, 0, 56, 43
1, 213839, Note_on_c, 0, 61, 53
1, 213840, Note_on_c, 0, 67, 67
1, 213845, Note_on_c, 0, 52, 62
1, 213872, Note_off_c, 0, 68, 58
1, 213938, Note_off_c, 0, 61, 58
1, 213946, Note_off_c, 0, 44, 37
1, 213988, Control_c, 0, 64, 123
1, 214003, Control_c, 0, 64, 119
1, 214017, Control_c, 0, 64, 115
1, 214032, Control_c, 0, 64, 108
1, 214043, Note_on_c, 0, 68, 61
1, 214047, Note_off_c, 0, 52, 58
1, 214047, Control_c, 0, 64, 98
1, 214050, Note_on_c, 0, 51, 53
1, 214051, Note_on_c, 0, 60, 51
1, 214053, Note_off_c, 0, 67, 56
1, 214062, Control_c, 0, 64, 83
1, 214077, Control_c, 0, 64, 66
1, 214091, Control_c, 0, 64, 0
1, 214224, Control_c, 0, 64, 41
1, 214239, Control_c, 0, 64, 62
1, 214254, Control_c, 0, 64, 69
1, 214269, Control_c, 0, 64, 75
1, 214270, Note_on_c, 0, 44, 47
1, 214275, Note_off_c, 0, 60, 55
1, 214284, Control_c, 0, 64, 83
1, 214306, Control_c, 0, 64, 91
1, 214307, Note_off_c, 0, 51, 48
1, 214321, Control_c, 0, 64, 98
1, 214336, Control_c, 0, 64, 106
1, 214341, Note_off_c, 0, 68, 57
1, 214351, Control_c, 0, 64, 117
1, 214366, Control_c, 0, 64, 127
1, 214516, Note_off_c, 0, 44, 32
1, 214664, Note_on_c, 0, 68, 62
1, 214672, Note_on_c, 0, 60, 53
1, 214679, Note_on_c, 0, 56, 48
1, 214679, Note_on_c, 0, 51, 49
1, 214816, Note_off_c, 0, 68, 63
1, 214831, Note_on_c, 0, 70, 55
1, 214888, Note_on_c, 0, 44, 63
1, 214891, Note_on_c, 0, 68, 70
1, 214900, Control_c, 0, 64, 121
1, 214907, Note_off_c, 0, 51, 55
1, 214914, Control_c, 0, 64, 104
1, 214916, Note_off_c, 0, 60, 58
1, 214929, Control_c, 0, 64, 83
1, 214935, Note_off_c, 0, 70, 61
1, 214944, Control_c, 0, 64, 60
1, 214959, Control_c, 0, 64, 0
1, 215018, Control_c, 0, 64, 50
1, 215033, Control_c, 0, 64, 70
1, 215055, Control_c, 0, 64, 82
1, 215070, Control_c, 0, 64, 98
1, 215085, Control_c, 0, 64, 109
1, 215100, Control_c, 0, 64, 113
1, 215119, Note_on_c, 0, 52, 57
1, 215119, Note_on_c, 0, 67, 65
1, 215129, Note_on_c, 0, 61, 52
1, 215134, Note_off_c, 0, 56, 42
1, 215154, Note_off_c, 0, 68, 50
1, 215188, Control_c, 0, 64, 109
1, 215203, Control_c, 0, 64, 93
1, 215209, Note_off_c, 0, 44, 38
1, 215218, Control_c, 0, 64, 64
1, 215233, Control_c, 0, 64, 0
1, 215336, Control_c, 0, 64, 35
1, 215351, Control_c, 0, 64, 69
1, 215353, Note_off_c, 0, 61, 58
1, 215365, Control_c, 0, 64, 74
1, 215380, Control_c, 0, 64, 80
1, 215395, Note_on_c, 0, 51, 47
1, 215395, Control_c, 0, 64, 84
1, 215410, Control_c, 0, 64, 88
1, 215413, Note_on_c, 0, 68, 53
1, 215418, Note_on_c, 0, 60, 43
1, 215425, Control_c, 0, 64, 89
1, 215427, Note_off_c, 0, 52, 38
1, 215439, Control_c, 0, 64, 90
1, 215471, Note_off_c, 0, 67, 37
1, 215485, Control_c, 0, 64, 89
1, 215500, Control_c, 0, 64, 80
1, 215515, Control_c, 0, 64, 65
1, 215530, Control_c, 0, 64, 0
1, 215633, Control_c, 0, 64, 60
1, 215648, Control_c, 0, 64, 68
1, 215663, Control_c, 0, 64, 74
1, 215671, Note_on_c, 0, 44, 36
1, 215678, Control_c, 0, 64, 81
1, 215693, Control_c, 0, 64, 88
1, 215708, Control_c, 0, 64, 92
1, 215723, Control_c, 0, 64, 95
1, 215732, Note_off_c, 0, 51, 57
1, 215735, Note_off_c, 0, 60, 54
1, 215737, Control_c, 0, 64, 99
1, 215752, Control_c, 0, 64, 103
1, 215763, Note_off_c, 0, 68, 54
1, 215767, Control_c, 0, 64, 109
1, 215782, Control_c, 0, 64, 118
1, 215803, Control_c, 0, 64, 127
1, 216043, Note_off_c, 0, 44, 39
1, 216068, Note_on_c, 0, 68, 34
1, 216087, Note_on_c, 0, 60, 65
1, 216091, Note_on_c, 0, 51, 39
1, 216101, Note_on_c, 0, 56, 39
1, 216293, Control_c, 0, 64, 123
1, 216308, Control_c, 0, 64, 120
1, 216323, Control_c, 0, 64, 117
1, 216338, Control_c, 0, 64, 112
1, 216353, Control_c, 0, 64, 102
1, 216358, Note_on_c, 0, 61, 73
1, 216367, Control_c, 0, 64, 85
1, 216370, Note_on_c, 0, 44, 52
1, 216382, Control_c, 0, 64, 67
1, 216397, Control_c, 0, 64, 0
1, 216414, Note_off_c, 0, 51, 41
1, 216441, Note_off_c, 0, 56, 41
1, 216456, Control_c, 0, 64, 28
1, 216465, Note_off_c, 0, 60, 59
1, 216471, Control_c, 0, 64, 67
1, 216486, Control_c, 0, 64, 79
1, 216501, Control_c, 0, 64, 96
1, 216516, Control_c, 0, 64, 113
1, 216524, Note_off_c, 0, 68, 52
1, 216531, Control_c, 0, 64, 127
1, 216585, Note_off_c, 0, 61, 64
1, 216754, Note_off_c, 0, 44, 34
1, 216784, Note_on_c, 0, 58, 79
1, 216808, Note_on_c, 0, 52, 43
1, 216811, Note_on_c, 0, 56, 44
1, 216811, Note_on_c, 0, 68, 51
1, 216982, Control_c, 0, 64, 123
1, 216997, Control_c, 0, 64, 118
1, 217011, Control_c, 0, 64, 113
1, 217026, Control_c, 0, 64, 106
1, 217041, Control_c, 0, 64, 99
1, 217056, Control_c, 0, 64, 89
1, 217072, Control_c, 0, 64, 75
1, 217073, Note_on_c, 0, 64, 73
1, 217083, Note_on_c, 0, 44, 53
1, 217087, Control_c, 0, 64, 29
1, 217102, Control_c, 0, 64, 0
1, 217133, Note_off_c, 0, 52, 32
1, 217139, Note_off_c, 0, 56, 33
1, 217150, Note_off_c, 0, 68, 40
1, 217170, Note_off_c, 0, 58, 59
1, 217205, Control_c, 0, 64, 65
1, 217220, Control_c, 0, 64, 76
1, 217234, Control_c, 0, 64, 85
1, 217249, Control_c, 0, 64, 94
1, 217264, Control_c, 0, 64, 100
1, 217287, Control_c, 0, 64, 106
1, 217302, Control_c, 0, 64, 112
1, 217316, Control_c, 0, 64, 123
1, 217320, Note_off_c, 0, 64, 63
1, 217331, Control_c, 0, 64, 127
1, 217416, Note_off_c, 0, 44, 52
1, 217543, Note_on_c, 0, 61, 71
1, 217556, Note_on_c, 0, 58, 46
1, 217559, Note_on_c, 0, 52, 44
1, 217590, Note_on_c, 0, 68, 44
1, 217757, Note_off_c, 0, 58, 37
1, 217790, Control_c, 0, 64, 125
1, 217805, Control_c, 0, 64, 121
1, 217820, Control_c, 0, 64, 117
1, 217834, Control_c, 0, 64, 112
1, 217849, Control_c, 0, 64, 107
1, 217865, Control_c, 0, 64, 102
1, 217878, Note_on_c, 0, 63, 64
1, 217880, Control_c, 0, 64, 94
1, 217888, Note_on_c, 0, 44, 48
1, 217895, Control_c, 0, 64, 86
1, 217910, Control_c, 0, 64, 75
1, 217925, Control_c, 0, 64, 53
1, 217928, Note_off_c, 0, 61, 60
1, 217939, Control_c, 0, 64, 0
1, 217949, Note_off_c, 0, 52, 34
1, 218095, Control_c, 0, 64, 33
1, 218110, Control_c, 0, 64, 63
1, 218125, Control_c, 0, 64, 69
1, 218139, Note_off_c, 0, 68, 36
1, 218139, Control_c, 0, 64, 75
1, 218154, Control_c, 0, 64, 83
1, 218169, Control_c, 0, 64, 91
1, 218183, Control_c, 0, 64, 97
1, 218184, Note_off_c, 0, 63, 59
1, 218198, Control_c, 0, 64, 102
1, 218213, Control_c, 0, 64, 107
1, 218228, Control_c, 0, 64, 113
1, 218243, Control_c, 0, 64, 120
1, 218257, Control_c, 0, 64, 127
1, 218504, Note_on_c, 0, 54, 42
1, 218504, Note_on_c, 0, 60, 52
1, 218526, Note_on_c, 0, 68, 45
1, 218572, Note_off_c, 0, 54, 59
1, 218581, Note_off_c, 0, 44, 60
1, 218887, Control_c, 0, 64, 126
1, 218902, Control_c, 0, 64, 124
1, 218917, Control_c, 0, 64, 121
1, 218932, Control_c, 0, 64, 119
1, 218947, Control_c, 0, 64, 115
1, 218962, Control_c, 0, 64, 110
1, 218976, Control_c, 0, 64, 105
1, 218991, Control_c, 0, 64, 100
1, 218999, Note_on_c, 0, 37, 47
1, 219002, Note_on_c, 0, 64, 54
1, 219005, Control_c, 0, 64, 93
1, 219020, Control_c, 0, 64, 84
1, 219035, Control_c, 0, 64, 67
1, 219050, Control_c, 0, 64, 0
1, 219117, Note_off_c, 0, 60, 54
1, 219153, Note_off_c, 0, 68, 51
1, 219154, Control_c, 0, 64, 65
1, 219169, Control_c, 0, 64, 74
1, 219184, Control_c, 0, 64, 84
1, 219198, Control_c, 0, 64, 92
1, 219213, Control_c, 0, 64, 97
1, 219228, Control_c, 0, 64, 101
1, 219243, Control_c, 0, 64, 105
1, 219257, Note_off_c, 0, 64, 63
1, 219258, Control_c, 0, 64, 109
1, 219273, Control_c, 0, 64, 113
1, 219287, Control_c, 0, 64, 118
1, 219294, Note_on_c, 0, 36, 47
1, 219302, Control_c, 0, 64, 123
1, 219316, Note_off_c, 0, 37, 41
1, 219317, Control_c, 0, 64, 127
1, 219420, Note_off_c, 0, 36, 48
1, 219425, Note_on_c, 0, 37, 56
1, 219535, Note_off_c, 0, 37, 57
1, 219558, Note_on_c, 0, 64, 55
1, 219561, Note_on_c, 0, 68, 62
1, 219574, Note_on_c, 0, 42, 47
1, 219577, Control_c, 0, 64, 125
1, 219579, Note_on_c, 0, 56, 49
1, 219582, Note_on_c, 0, 61, 43
1, 219592, Control_c, 0, 64, 120
1, 219607, Control_c, 0, 64, 117
1, 219622, Control_c, 0, 64, 114
1, 219636, Control_c, 0, 64, 111
1, 219651, Control_c, 0, 64, 107
1, 219666, Control_c, 0, 64, 101
1, 219681, Control_c, 0, 64, 92
1, 219683, Note_off_c, 0, 42, 56
1, 219696, Control_c, 0, 64, 79
1, 219706, Note_on_c, 0, 40, 54
1, 219710, Control_c, 0, 64, 57
1, 219725, Control_c, 0, 64, 0
1, 219784, Control_c, 0, 64, 59
1, 219789, Note_off_c, 0, 40, 58
1, 219799, Control_c, 0, 64, 71
1, 219806, Note_on_c, 0, 39, 56
1, 219814, Control_c, 0, 64, 84
1, 219829, Control_c, 0, 64, 98
1, 219843, Control_c, 0, 64, 108
1, 219858, Control_c, 0, 64, 113
1, 219873, Control_c, 0, 64, 116
1, 219883, Note_off_c, 0, 56, 64
1, 219888, Control_c, 0, 64, 119
1, 219892, Note_off_c, 0, 39, 61
1, 219898, Note_off_c, 0, 64, 64
1, 219903, Note_on_c, 0, 40, 56
1, 219903, Control_c, 0, 64, 123
1, 219908, Note_off_c, 0, 61, 62
1, 219917, Control_c, 0, 64, 127
1, 219927, Note_off_c, 0, 68, 64
1, 219949, Note_off_c, 0, 40, 61
1, 219970, Note_on_c, 0, 45, 58
1, 220042, Note_off_c, 0, 45, 59
1, 220057, Note_on_c, 0, 44, 60
1, 220151, Note_on_c, 0, 64, 54
1, 220152, Note_on_c, 0, 73, 79
1, 220152, Note_off_c, 0, 44, 61
1, 220162, Note_on_c, 0, 43, 61
1, 220169, Control_c, 0, 64, 124
1, 220172, Note_on_c, 0, 61, 48
1, 220184, Control_c, 0, 64, 107
1, 220199, Control_c, 0, 64, 90
1, 220214, Control_c, 0, 64, 71
1, 220228, Control_c, 0, 64, 0
1, 220258, Note_off_c, 0, 43, 60
1, 220271, Note_on_c, 0, 44, 60
1, 220326, Control_c, 0, 64, 63
1, 220340, Control_c, 0, 64, 74
1, 220355, Control_c, 0, 64, 87
1, 220361, Note_off_c, 0, 44, 63
1, 220370, Control_c, 0, 64, 101
1, 220385, Control_c, 0, 64, 113
1, 220390, Note_on_c, 0, 51, 61
1, 220400, Control_c, 0, 64, 122
1, 220415, Control_c, 0, 64, 127
1, 220434, Note_off_c, 0, 73, 62
1, 220437, Note_off_c, 0, 61, 57
1, 220468, Note_off_c, 0, 64, 60
1, 220473, Note_off_c, 0, 51, 60
1, 220477, Note_on_c, 0, 49, 64
1, 220549, Note_off_c, 0, 49, 52
1, 220556, Note_on_c, 0, 71, 75
1, 220565, Note_on_c, 0, 61, 58
1, 220567, Note_on_c, 0, 64, 48
1, 220572, Note_on_c, 0, 48, 65
1, 220609, Note_off_c, 0, 61, 60
1, 220641, Note_off_c, 0, 71, 56
1, 220647, Note_off_c, 0, 48, 64
1, 220659, Note_on_c, 0, 49, 73
1, 220665, Note_off_c, 0, 64, 57
1, 220723, Note_off_c, 0, 49, 61
1, 220726, Control_c, 0, 64, 99
1, 220730, Note_on_c, 0, 69, 78
1, 220735, Note_on_c, 0, 66, 67
1, 220740, Note_on_c, 0, 50, 66
1, 220740, Control_c, 0, 64, 76
1, 220751, Note_on_c, 0, 60, 52
1, 220755, Control_c, 0, 64, 46
1, 220770, Control_c, 0, 64, 62
1, 220784, Control_c, 0, 64, 70
1, 220799, Control_c, 0, 64, 84
1, 220808, Note_off_c, 0, 69, 65
1, 220810, Note_off_c, 0, 66, 65
1, 220814, Control_c, 0, 64, 110
1, 220820, Note_off_c, 0, 50, 63
1, 220823, Note_on_c, 0, 51, 69
1, 220829, Control_c, 0, 64, 127
1, 220859, Note_off_c, 0, 60, 60
1, 220889, Control_c, 0, 64, 88
1, 220899, Note_on_c, 0, 68, 77
1, 220903, Control_c, 0, 64, 52
1, 220909, Note_on_c, 0, 52, 72
1, 220910, Note_on_c, 0, 61, 64
1, 220918, Note_off_c, 0, 51, 51
1, 220918, Control_c, 0, 64, 0
1, 220933, Control_c, 0, 64, 48
1, 220948, Control_c, 0, 64, 88
1, 220958, Note_off_c, 0, 52, 67
1, 220963, Control_c, 0, 64, 127
1, 220988, Note_on_c, 0, 53, 74
1, 221008, Note_off_c, 0, 61, 61
1, 221016, Note_off_c, 0, 68, 63
1, 221044, Control_c, 0, 64, 87
1, 221060, Control_c, 0, 64, 0
1, 221074, Note_off_c, 0, 53, 63
1, 221079, Note_on_c, 0, 64, 76
1, 221087, Note_on_c, 0, 54, 65
1, 221089, Note_on_c, 0, 61, 53
1, 221104, Control_c, 0, 64, 75
1, 221119, Control_c, 0, 64, 127
1, 221149, Note_off_c, 0, 54, 62
1, 221157, Note_on_c, 0, 55, 71
1, 221161, Note_off_c, 0, 61, 55
1, 221169, Note_off_c, 0, 64, 63
1, 221222, Control_c, 0, 64, 88
1, 221225, Note_off_c, 0, 55, 61
1, 221234, Note_on_c, 0, 56, 70
1, 221237, Control_c, 0, 64, 0
1, 221245, Note_on_c, 0, 66, 79
1, 221252, Note_on_c, 0, 61, 63
1, 221282, Control_c, 0, 64, 72
1, 221296, Note_off_c, 0, 56, 63
1, 221297, Control_c, 0, 64, 103
1, 221312, Control_c, 0, 64, 127
1, 221316, Note_on_c, 0, 57, 73
1, 221334, Note_off_c, 0, 61, 58
1, 221343, Note_off_c, 0, 66, 63
1, 221415, Control_c, 0, 64, 100
1, 221425, Note_off_c, 0, 57, 55
1, 221430, Control_c, 0, 64, 0
1, 221434, Note_on_c, 0, 56, 60
1, 221443, Note_on_c, 0, 68, 75
1, 221449, Note_on_c, 0, 49, 48
1, 221449, Note_on_c, 0, 64, 58
1, 221519, Control_c, 0, 64, 85
1, 221533, Control_c, 0, 64, 127
1, 221540, Note_off_c, 0, 64, 64
1, 221558, Note_off_c, 0, 68, 63
1, 221606, Note_off_c, 0, 49, 59
1, 221606, Note_off_c, 0, 56, 63
1, 221637, Note_on_c, 0, 60, 72
1, 221724, Note_off_c, 0, 60, 61
1, 221727, Note_on_c, 0, 61, 72
1, 221846, Note_on_c, 0, 68, 84
1, 221854, Note_on_c, 0, 64, 67
1, 221880, Note_off_c, 0, 61, 61
1, 221887, Note_on_c, 0, 63, 68
1, 221928, Control_c, 0, 64, 115
1, 221943, Control_c, 0, 64, 92
1, 221957, Control_c, 0, 64, 70
1, 221972, Control_c, 0, 64, 0
1, 221992, Note_off_c, 0, 63, 62
1, 221999, Note_on_c, 0, 61, 61
1, 222031, Control_c, 0, 64, 53
1, 222046, Control_c, 0, 64, 68
1, 222061, Control_c, 0, 64, 77
1, 222074, Note_off_c, 0, 61, 62
1, 222076, Control_c, 0, 64, 86
1, 222091, Note_on_c, 0, 59, 67
1, 222091, Control_c, 0, 64, 92
1, 222105, Control_c, 0, 64, 95
1, 222120, Control_c, 0, 64, 97
1, 222135, Control_c, 0, 64, 101
1, 222150, Control_c, 0, 64, 107
1, 222164, Control_c, 0, 64, 115
1, 222179, Control_c, 0, 64, 126
1, 222180, Note_off_c, 0, 59, 59
1, 222192, Note_on_c, 0, 60, 67
1, 222194, Control_c, 0, 64, 127
1, 222252, Note_off_c, 0, 64, 63
1, 222257, Note_off_c, 0, 60, 61
1, 222262, Note_off_c, 0, 68, 61
1, 222281, Note_on_c, 0, 62, 71
1, 222363, Note_off_c, 0, 62, 58
1, 222382, Note_on_c, 0, 60, 57
1, 222421, Note_on_c, 0, 68, 75
1, 222424, Note_off_c, 0, 60, 53
1, 222427, Note_on_c, 0, 64, 60
1, 222474, Note_on_c, 0, 62, 60
1, 222490, Control_c, 0, 64, 122
1, 222504, Control_c, 0, 64, 102
1, 222519, Control_c, 0, 64, 84
1, 222523, Note_off_c, 0, 62, 57
1, 222542, Control_c, 0, 64, 70
1, 222545, Note_on_c, 0, 60, 62
1, 222556, Control_c, 0, 64, 66
1, 222571, Control_c, 0, 64, 71
1, 222586, Control_c, 0, 64, 79
1, 222601, Control_c, 0, 64, 88
1, 222614, Note_off_c, 0, 60, 62
1, 222616, Control_c, 0, 64, 97
1, 222626, Note_on_c, 0, 58, 74
1, 222630, Control_c, 0, 64, 101
1, 222661, Control_c, 0, 64, 93
1, 222676, Control_c, 0, 64, 69
1, 222691, Control_c, 0, 64, 0
1, 222714, Note_off_c, 0, 58, 62
1, 222715, Note_off_c, 0, 68, 58
1, 222716, Note_off_c, 0, 64, 59
1, 222724, Note_on_c, 0, 59, 69
1, 222750, Control_c, 0, 64, 64
1, 222765, Control_c, 0, 64, 83
1, 222779, Control_c, 0, 64, 121
1, 222794, Control_c, 0, 64, 127
1, 222796, Note_on_c, 0, 68, 70
1, 222806, Note_on_c, 0, 64, 63
1, 222808, Note_off_c, 0, 59, 59
1, 222819, Note_on_c, 0, 61, 67
1, 222883, Control_c, 0, 64, 108
1, 222898, Control_c, 0, 64, 81
1, 222900, Note_off_c, 0, 61, 61
1, 222906, Note_off_c, 0, 64, 57
1, 222910, Note_off_c, 0, 68, 59
1, 222913, Control_c, 0, 64, 16
1, 222928, Control_c, 0, 64, 0
1, 222930, Note_on_c, 0, 59, 55
1, 222957, Control_c, 0, 64, 72
1, 222972, Control_c, 0, 64, 89
1, 222987, Control_c, 0, 64, 123
1, 222990, Note_on_c, 0, 69, 69
1, 222993, Note_off_c, 0, 59, 56
1, 223002, Control_c, 0, 64, 127
1, 223002, Note_on_c, 0, 64, 62
1, 223011, Note_on_c, 0, 66, 47
1, 223023, Note_on_c, 0, 61, 56
1, 223057, Note_off_c, 0, 64, 63
1, 223058, Note_off_c, 0, 61, 63
1, 223062, Note_off_c, 0, 66, 45
1, 223085, Note_on_c, 0, 59, 53
1, 223103, Note_off_c, 0, 59, 65
1, 223127, Note_off_c, 0, 69, 52
1, 223224, Control_c, 0, 64, 125
1, 223239, Control_c, 0, 64, 93
1, 223249, Note_on_c, 0, 71, 64
1, 223253, Control_c, 0, 64, 71
1, 223254, Note_on_c, 0, 47, 55
1, 223265, Note_on_c, 0, 69, 58
1, 223267, Note_on_c, 0, 63, 51
1, 223268, Control_c, 0, 64, 0
1, 223321, Control_c, 0, 64, 69
1, 223335, Control_c, 0, 64, 83
1, 223341, Note_off_c, 0, 71, 60
1, 223350, Control_c, 0, 64, 110
1, 223359, Note_off_c, 0, 63, 60
1, 223359, Note_off_c, 0, 69, 65
1, 223365, Control_c, 0, 64, 127
1, 223384, Note_off_c, 0, 47, 42
1, 223484, Control_c, 0, 64, 112
1, 223499, Control_c, 0, 64, 89
1, 223502, Note_on_c, 0, 64, 64
1, 223513, Note_on_c, 0, 49, 52
1, 223514, Control_c, 0, 64, 68
1, 223529, Control_c, 0, 64, 0
1, 223530, Note_on_c, 0, 57, 58
1, 223544, Control_c, 0, 64, 54
1, 223558, Control_c, 0, 64, 70
1, 223573, Control_c, 0, 64, 85
1, 223583, Note_off_c, 0, 64, 63
1, 223584, Note_off_c, 0, 49, 58
1, 223588, Control_c, 0, 64, 108
1, 223602, Note_on_c, 0, 47, 57
1, 223602, Control_c, 0, 64, 127
1, 223604, Note_off_c, 0, 57, 57
1, 223682, Note_off_c, 0, 47, 61
1, 223691, Control_c, 0, 64, 103
1, 223699, Note_on_c, 0, 63, 53
1, 223701, Note_on_c, 0, 49, 64
1, 223706, Control_c, 0, 64, 78
1, 223711, Note_on_c, 0, 66, 67
1, 223721, Control_c, 0, 64, 0
1, 223726, Note_on_c, 0, 59, 45
1, 223727, Note_on_c, 0, 57, 48
1, 223765, Control_c, 0, 64, 66
1, 223770, Note_off_c, 0, 57, 59
1, 223780, Note_off_c, 0, 49, 56
1, 223780, Control_c, 0, 64, 81
1, 223786, Note_off_c, 0, 63, 63
1, 223795, Control_c, 0, 64, 102
1, 223797, Note_off_c, 0, 66, 62
1, 223806, Note_on_c, 0, 47, 61
1, 223810, Control_c, 0, 64, 127
1, 223913, Note_off_c, 0, 59, 0
1, 223950, Poly_aftertouch_c, 0, 59, 127
1, 223952, Note_off_c, 0, 47, 57
1, 223979, Note_on_c, 0, 68, 65
1, 223993, Note_on_c, 0, 40, 52
1, 223996, Note_on_c, 0, 64, 43
1, 223996, Note_on_c, 0, 56, 42
1, 224054, Control_c, 0, 64, 99
1, 224069, Control_c, 0, 64, 76
1, 224084, Control_c, 0, 64, 0
1, 224143, Control_c, 0, 64, 61
1, 224158, Control_c, 0, 64, 74
1, 224173, Control_c, 0, 64, 90
1, 224188, Control_c, 0, 64, 111
1, 224202, Control_c, 0, 64, 127
1, 224230, Note_off_c, 0, 56, 63
1, 224230, Note_off_c, 0, 64, 37
1, 224235, Note_off_c, 0, 68, 63
1, 224236, Note_on_c, 0, 45, 53
1, 224239, Note_off_c, 0, 40, 39
1, 224252, Poly_aftertouch_c, 0, 59, 0
1, 224299, Note_off_c, 0, 45, 62
1, 224314, Note_on_c, 0, 44, 64
1, 224455, Note_on_c, 0, 68, 67
1, 224457, Note_off_c, 0, 44, 58
1, 224460, Note_on_c, 0, 39, 58
1, 224468, Note_on_c, 0, 66, 63
1, 224469, Note_on_c, 0, 60, 54
1, 224483, Note_on_c, 0, 56, 46
1, 224544, Control_c, 0, 64, 109
1, 224558, Control_c, 0, 64, 91
1, 224573, Control_c, 0, 64, 70
1, 224575, Note_off_c, 0, 39, 59
1, 224580, Note_on_c, 0, 44, 57
1, 224588, Control_c, 0, 64, 0
1, 224648, Control_c, 0, 64, 65
1, 224662, Control_c, 0, 64, 75
1, 224677, Control_c, 0, 64, 90
1, 224692, Control_c, 0, 64, 101
1, 224701, Note_on_c, 0, 37, 59
1, 224705, Note_off_c, 0, 44, 60
1, 224707, Control_c, 0, 64, 106
1, 224722, Control_c, 0, 64, 107
1, 224737, Control_c, 0, 64, 108
1, 224751, Control_c, 0, 64, 110
1, 224773, Control_c, 0, 64, 113
1, 224788, Control_c, 0, 64, 117
1, 224803, Control_c, 0, 64, 119
1, 224815, Note_off_c, 0, 60, 61
1, 224818, Control_c, 0, 64, 121
1, 224826, Note_on_c, 0, 44, 64
1, 224832, Control_c, 0, 64, 126
1, 224841, Note_off_c, 0, 37, 63
1, 224844, Note_off_c, 0, 66, 57
1, 224847, Control_c, 0, 64, 127
1, 224862, Note_off_c, 0, 56, 61
1, 224868, Note_off_c, 0, 68, 61
1, 224892, Note_on_c, 0, 43, 70
1, 224893, Note_off_c, 0, 44, 63
1, 224969, Note_on_c, 0, 44, 61
1, 224983, Note_off_c, 0, 43, 61
1, 225066, Note_off_c, 0, 44, 63
1, 225069, Note_on_c, 0, 68, 80
1, 225071, Control_c, 0, 64, 126
1, 225080, Note_on_c, 0, 64, 66
1, 225082, Note_on_c, 0, 56, 61
1, 225085, Note_on_c, 0, 51, 65
1, 225086, Control_c, 0, 64, 104
1, 225090, Note_on_c, 0, 61, 61
1, 225101, Control_c, 0, 64, 85
1, 225116, Control_c, 0, 64, 64
1, 225130, Control_c, 0, 64, 0
1, 225160, Control_c, 0, 64, 61
1, 225174, Control_c, 0, 64, 73
1, 225175, Note_off_c, 0, 51, 57
1, 225178, Note_off_c, 0, 56, 62
1, 225183, Note_on_c, 0, 49, 56
1, 225189, Control_c, 0, 64, 85
1, 225204, Control_c, 0, 64, 100
1, 225219, Control_c, 0, 64, 117
1, 225234, Control_c, 0, 64, 127
1, 225247, Note_on_c, 0, 48, 73
1, 225249, Note_off_c, 0, 64, 64
1, 225251, Note_off_c, 0, 61, 63
1, 225265, Note_off_c, 0, 49, 60
1, 225273, Note_off_c, 0, 68, 64
1, 225346, Note_on_c, 0, 49, 74
1, 225352, Note_off_c, 0, 48, 65
1, 225381, Control_c, 0, 67, 125
1, 225397, Control_c, 0, 67, 123
1, 225412, Note_off_c, 0, 49, 62
1, 225412, Control_c, 0, 67, 121
1, 225421, Note_on_c, 0, 54, 74
1, 225427, Control_c, 0, 67, 120
1, 225442, Control_c, 0, 67, 118
1, 225456, Control_c, 0, 67, 116
1, 225471, Control_c, 0, 67, 114
1, 225486, Control_c, 0, 67, 110
1, 225495, Note_off_c, 0, 54, 60
1, 225501, Control_c, 0, 67, 107
1, 225512, Note_on_c, 0, 52, 68
1, 225516, Control_c, 0, 67, 104
1, 225538, Control_c, 0, 67, 102
1, 225553, Control_c, 0, 67, 100
1, 225568, Control_c, 0, 67, 99
1, 225575, Note_on_c, 0, 73, 85
1, 225582, Control_c, 0, 67, 98
1, 225588, Note_on_c, 0, 64, 66
1, 225593, Note_on_c, 0, 61, 70
1, 225597, Control_c, 0, 64, 118
1, 225597, Control_c, 0, 67, 97
1, 225605, Note_off_c, 0, 52, 63
1, 225607, Note_on_c, 0, 51, 72
1, 225612, Control_c, 0, 64, 96
1, 225612, Control_c, 0, 67, 95
1, 225627, Control_c, 0, 64, 75
1, 225627, Control_c, 0, 67, 93
1, 225642, Control_c, 0, 64, 0
1, 225642, Control_c, 0, 67, 91
1, 225656, Control_c, 0, 67, 89
1, 225671, Control_c, 0, 64, 31
1, 225671, Control_c, 0, 67, 88
1, 225686, Control_c, 0, 64, 67
1, 225686, Control_c, 0, 67, 88
1, 225700, Control_c, 0, 64, 79
1, 225700, Control_c, 0, 67, 88
1, 225708, Note_off_c, 0, 51, 61
1, 225712, Note_on_c, 0, 52, 74
1, 225715, Control_c, 0, 64, 93
1, 225715, Control_c, 0, 67, 89
1, 225730, Control_c, 0, 64, 108
1, 225730, Control_c, 0, 67, 89
1, 225745, Control_c, 0, 64, 121
1, 225745, Control_c, 0, 67, 90
1, 225760, Control_c, 0, 64, 125
1, 225768, Note_off_c, 0, 52, 62
1, 225773, Note_on_c, 0, 57, 75
1, 225775, Note_off_c, 0, 73, 61
1, 225775, Control_c, 0, 64, 125
1, 225775, Control_c, 0, 67, 89
1, 225776, Note_off_c, 0, 61, 58
1, 225790, Control_c, 0, 64, 126
1, 225790, Control_c, 0, 67, 89
1, 225820, Control_c, 0, 64, 126
1, 225835, Control_c, 0, 67, 89
1, 225851, Control_c, 0, 67, 90
1, 225862, Note_on_c, 0, 56, 75
1, 225864, Note_off_c, 0, 57, 61
1, 225866, Note_off_c, 0, 64, 54
1, 225895, Control_c, 0, 67, 89
1, 225910, Control_c, 0, 64, 127
1, 225940, Control_c, 0, 67, 90
1, 225951, Note_off_c, 0, 56, 63
1, 225954, Control_c, 0, 67, 91
1, 225959, Note_on_c, 0, 61, 58
1, 225964, Note_on_c, 0, 71, 78
1, 225968, Note_on_c, 0, 55, 69
1, 225969, Control_c, 0, 64, 122
1, 225969, Control_c, 0, 67, 92
1, 225976, Note_on_c, 0, 64, 58
1, 225984, Control_c, 0, 64, 98
1, 225984, Control_c, 0, 67, 92
1, 225998, Control_c, 0, 64, 74
1, 226012, Note_off_c, 0, 61, 62
1, 226013, Control_c, 0, 64, 0
1, 226013, Control_c, 0, 67, 92
1, 226040, Note_off_c, 0, 64, 63
1, 226056, Note_on_c, 0, 56, 76
1, 226058, Control_c, 0, 64, 34
1, 226063, Note_off_c, 0, 55, 64
1, 226072, Control_c, 0, 64, 75
1, 226072, Control_c, 0, 67, 92
1, 226087, Control_c, 0, 64, 96
1, 226087, Control_c, 0, 67, 93
1, 226102, Control_c, 0, 64, 127
1, 226102, Control_c, 0, 67, 92
1, 226117, Control_c, 0, 67, 92
1, 226132, Note_off_c, 0, 56, 64
1, 226132, Control_c, 0, 67, 90
1, 226136, Note_on_c, 0, 69, 77
1, 226144, Note_on_c, 0, 63, 77
1, 226146, Control_c, 0, 67, 89
1, 226159, Note_on_c, 0, 64, 70
1, 226161, Control_c, 0, 67, 87
1, 226166, Note_off_c, 0, 71, 57
1, 226221, Note_off_c, 0, 64, 61
1, 226227, Note_on_c, 0, 61, 79
1, 226235, Control_c, 0, 67, 88
1, 226238, Note_off_c, 0, 63, 64
1, 226241, Note_off_c, 0, 69, 61
1, 226250, Control_c, 0, 67, 88
1, 226287, Control_c, 0, 67, 88
1, 226302, Control_c, 0, 67, 87
1, 226332, Note_on_c, 0, 68, 89
1, 226334, Note_on_c, 0, 60, 80
1, 226356, Note_off_c, 0, 61, 57
1, 226361, Control_c, 0, 64, 114
1, 226376, Control_c, 0, 64, 86
1, 226391, Control_c, 0, 64, 64
1, 226405, Control_c, 0, 64, 0
1, 226407, Note_on_c, 0, 61, 56
1, 226411, Note_off_c, 0, 60, 63
1, 226420, Control_c, 0, 64, 61
1, 226430, Note_off_c, 0, 68, 62
1, 226435, Control_c, 0, 64, 72
1, 226435, Control_c, 0, 67, 88
1, 226450, Control_c, 0, 64, 86
1, 226450, Control_c, 0, 67, 88
1, 226465, Control_c, 0, 64, 109
1, 226465, Control_c, 0, 67, 89
1, 226479, Control_c, 0, 64, 127
1, 226479, Control_c, 0, 67, 90
1, 226509, Control_c, 0, 67, 89
1, 226516, Note_on_c, 0, 68, 85
1, 226520, Note_off_c, 0, 61, 63
1, 226520, Note_on_c, 0, 62, 81
1, 226523, Control_c, 0, 67, 88
1, 226538, Control_c, 0, 67, 88
1, 226553, Control_c, 0, 67, 87
1, 226568, Control_c, 0, 67, 88
1, 226583, Control_c, 0, 67, 88
1, 226597, Control_c, 0, 67, 89
1, 226605, Note_off_c, 0, 68, 62
1, 226606, Note_on_c, 0, 63, 84
1, 226609, Note_off_c, 0, 62, 61
1, 226627, Control_c, 0, 67, 90
1, 226658, Control_c, 0, 67, 89
1, 226673, Control_c, 0, 67, 89
1, 226702, Control_c, 0, 67, 89
1, 226732, Control_c, 0, 67, 90
1, 226737, Note_off_c, 0, 63, 60
1, 226739, Note_on_c, 0, 66, 80
1, 226739, Note_on_c, 0, 70, 82
1, 226749, Note_on_c, 0, 68, 73
1, 226761, Control_c, 0, 64, 108
1, 226776, Control_c, 0, 64, 85
1, 226776, Control_c, 0, 67, 89
1, 226791, Control_c, 0, 64, 26
1, 226791, Control_c, 0, 67, 89
1, 226806, Control_c, 0, 64, 0
1, 226806, Control_c, 0, 67, 88
1, 226850, Control_c, 0, 64, 66
1, 226850, Control_c, 0, 67, 89
1, 226859, Note_on_c, 0, 64, 75
1, 226862, Note_off_c, 0, 66, 60
1, 226865, Control_c, 0, 64, 78
1, 226880, Control_c, 0, 64, 97
1, 226880, Control_c, 0, 67, 90
1, 226895, Control_c, 0, 64, 114
1, 226895, Control_c, 0, 67, 89
1, 226910, Control_c, 0, 64, 122
1, 226925, Control_c, 0, 64, 123
1, 226925, Control_c, 0, 67, 88
1, 226956, Note_off_c, 0, 70, 60
1, 226957, Note_off_c, 0, 68, 55
1, 226969, Control_c, 0, 67, 89
1, 226999, Control_c, 0, 67, 90
1, 227009, Note_off_c, 0, 64, 61
1, 227014, Control_c, 0, 64, 122
1, 227015, Note_on_c, 0, 71, 80
1, 227027, Note_on_c, 0, 62, 75
1, 227042, Note_on_c, 0, 68, 62
1, 227050, Control_c, 0, 64, 119
1, 227065, Control_c, 0, 64, 104
1, 227065, Control_c, 0, 67, 90
1, 227080, Control_c, 0, 64, 82
1, 227080, Control_c, 0, 67, 89
1, 227095, Control_c, 0, 64, 58
1, 227095, Control_c, 0, 67, 90
1, 227110, Control_c, 0, 64, 0
1, 227125, Control_c, 0, 67, 90
1, 227140, Control_c, 0, 64, 60
1, 227154, Control_c, 0, 64, 75
1, 227154, Control_c, 0, 67, 91
1, 227155, Note_off_c, 0, 62, 60
1, 227158, Note_on_c, 0, 63, 69
1, 227160, Note_off_c, 0, 71, 62
1, 227169, Control_c, 0, 64, 89
1, 227184, Control_c, 0, 64, 109
1, 227184, Control_c, 0, 67, 90
1, 227199, Control_c, 0, 64, 125
1, 227212, Note_off_c, 0, 68, 57
1, 227214, Control_c, 0, 64, 127
1, 227214, Control_c, 0, 67, 90
1, 227228, Control_c, 0, 67, 89
1, 227236, Note_off_c, 0, 63, 63
1, 227249, Note_on_c, 0, 64, 69
1, 227258, Control_c, 0, 67, 90
1, 227288, Control_c, 0, 67, 90
1, 227324, Note_off_c, 0, 64, 64
1, 227332, Control_c, 0, 67, 90
1, 227338, Note_on_c, 0, 63, 72
1, 227376, Control_c, 0, 67, 90
1, 227420, Control_c, 0, 67, 91
1, 227429, Note_on_c, 0, 76, 84
1, 227434, Note_off_c, 0, 63, 60
1, 227440, Note_on_c, 0, 64, 76
1, 227445, Note_on_c, 0, 68, 72
1, 227451, Control_c, 0, 64, 119
1, 227451, Control_c, 0, 67, 90
1, 227456, Note_on_c, 0, 61, 68
1, 227466, Control_c, 0, 64, 97
1, 227481, Control_c, 0, 64, 78
1, 227496, Control_c, 0, 64, 45
1, 227511, Control_c, 0, 64, 0
1, 227525, Note_off_c, 0, 64, 61
1, 227540, Control_c, 0, 64, 56
1, 227555, Control_c, 0, 64, 76
1, 227555, Control_c, 0, 67, 91
1, 227562, Note_off_c, 0, 61, 61
1, 227562, Note_off_c, 0, 76, 62
1, 227566, Note_on_c, 0, 56, 65
1, 227570, Control_c, 0, 64, 93
1, 227585, Control_c, 0, 64, 114
1, 227600, Control_c, 0, 64, 127
1, 227630, Control_c, 0, 67, 90
1, 227685, Note_on_c, 0, 75, 86
1, 227691, Note_on_c, 0, 63, 67
1, 227704, Control_c, 0, 64, 115
1, 227704, Control_c, 0, 67, 91
1, 227715, Note_on_c, 0, 58, 60
1, 227718, Control_c, 0, 64, 93
1, 227733, Control_c, 0, 64, 69
1, 227733, Control_c, 0, 67, 90
1, 227742, Note_off_c, 0, 56, 54
1, 227748, Control_c, 0, 64, 0
1, 227800, Control_c, 0, 67, 91
1, 227812, Note_off_c, 0, 58, 60
1, 227815, Control_c, 0, 64, 52
1, 227828, Note_on_c, 0, 59, 56
1, 227830, Control_c, 0, 64, 71
1, 227830, Control_c, 0, 67, 91
1, 227845, Control_c, 0, 64, 88
1, 227845, Control_c, 0, 67, 92
1, 227859, Control_c, 0, 64, 107
1, 227874, Control_c, 0, 64, 122
1, 227889, Control_c, 0, 64, 124
1, 227904, Control_c, 0, 64, 125
1, 227912, Note_off_c, 0, 59, 62
1, 227919, Note_off_c, 0, 68, 51
1, 227928, Note_on_c, 0, 61, 63
1, 227928, Note_off_c, 0, 75, 59
1, 227933, Control_c, 0, 64, 125
1, 227933, Control_c, 0, 67, 93
1, 227941, Note_off_c, 0, 63, 56
1, 227948, Control_c, 0, 64, 126
1, 227948, Control_c, 0, 67, 94
1, 227963, Control_c, 0, 64, 127
1, 227963, Control_c, 0, 67, 95
1, 227977, Control_c, 0, 67, 97
1, 227983, Note_off_c, 0, 61, 62
1, 227992, Control_c, 0, 64, 127
1, 227992, Control_c, 0, 67, 98
1, 228007, Control_c, 0, 67, 99
1, 228022, Control_c, 0, 67, 100
1, 228024, Note_on_c, 0, 59, 58
1, 228037, Control_c, 0, 67, 101
1, 228052, Control_c, 0, 67, 104
1, 228067, Control_c, 0, 67, 109
1, 228082, Control_c, 0, 67, 115
1, 228096, Control_c, 0, 67, 119
1, 228111, Control_c, 0, 67, 124
1, 228118, Note_on_c, 0, 75, 74
1, 228126, Control_c, 0, 67, 127
1, 228129, Note_on_c, 0, 71, 52
1, 228141, Note_on_c, 0, 63, 51
1, 228141, Note_off_c, 0, 59, 52
1, 228144, Note_on_c, 0, 68, 48
1, 228215, Note_off_c, 0, 71, 60
1, 228225, Poly_aftertouch_c, 0, 55, 127
1, 228247, Note_on_c, 0, 47, 63
1, 228263, Poly_aftertouch_c, 0, 55, 0
1, 228335, Control_c, 0, 64, 127
1, 228349, Control_c, 0, 64, 125
1, 228364, Control_c, 0, 64, 121
1, 228379, Control_c, 0, 64, 114
1, 228394, Control_c, 0, 64, 99
1, 228404, Note_on_c, 0, 70, 64
1, 228409, Control_c, 0, 64, 76
1, 228414, Note_on_c, 0, 51, 56
1, 228424, Control_c, 0, 64, 0
1, 228428, Note_off_c, 0, 47, 59
1, 228491, Note_off_c, 0, 68, 37
1, 228498, Control_c, 0, 64, 57
1, 228513, Control_c, 0, 64, 71
1, 228535, Control_c, 0, 64, 82
1, 228535, Note_off_c, 0, 75, 61
1, 228550, Control_c, 0, 64, 92
1, 228564, Control_c, 0, 64, 98
1, 228568, Note_off_c, 0, 63, 43
1, 228579, Control_c, 0, 64, 99
1, 228594, Control_c, 0, 64, 100
1, 228598, Note_off_c, 0, 70, 63
1, 228609, Control_c, 0, 64, 102
1, 228624, Control_c, 0, 64, 105
1, 228626, Note_off_c, 0, 51, 60
1, 228639, Control_c, 0, 64, 108
1, 228654, Control_c, 0, 64, 110
1, 228654, Note_on_c, 0, 52, 57
1, 228669, Control_c, 0, 64, 112
1, 228683, Control_c, 0, 64, 113
1, 228698, Control_c, 0, 64, 114
1, 228713, Control_c, 0, 64, 115
1, 228731, Note_off_c, 0, 52, 65
1, 228742, Control_c, 0, 64, 115
1, 228749, Note_on_c, 0, 51, 58
1, 228787, Control_c, 0, 64, 116
1, 228816, Control_c, 0, 64, 116
1, 228831, Control_c, 0, 64, 117
1, 228839, Note_off_c, 0, 51, 58
1, 228875, Note_on_c, 0, 61, 54
1, 228875, Control_c, 0, 64, 117
1, 228877, Note_on_c, 0, 52, 56
1, 228877, Note_on_c, 0, 75, 67
1, 228895, Note_on_c, 0, 70, 18
1, 228901, Note_on_c, 0, 63, 43
1, 228919, Control_c, 0, 64, 118
1, 228928, Note_off_c, 0, 63, 54
1, 228932, Note_off_c, 0, 61, 61
1, 228932, Note_off_c, 0, 70, 41
1, 228952, Note_off_c, 0, 75, 65
1, 228988, Note_off_c, 0, 52, 62
1, 229000, Note_on_c, 0, 51, 56
1, 229084, Control_c, 0, 64, 117
1, 229128, Control_c, 0, 64, 116
1, 229143, Control_c, 0, 64, 115
1, 229158, Control_c, 0, 64, 111
1, 229161, Note_off_c, 0, 51, 52
1, 229173, Control_c, 0, 64, 102
1, 229187, Control_c, 0, 64, 82
1, 229194, Note_on_c, 0, 80, 63
1, 229195, Note_on_c, 0, 44, 48
1, 229202, Control_c, 0, 64, 58
1, 229217, Control_c, 0, 64, 0
1, 229284, Control_c, 0, 64, 68
1, 229296, Note_off_c, 0, 80, 60
1, 229298, Control_c, 0, 64, 80
1, 229313, Control_c, 0, 64, 97
1, 229316, Note_on_c, 0, 68, 55
1, 229327, Note_off_c, 0, 44, 62
1, 229328, Control_c, 0, 64, 117
1, 229343, Control_c, 0, 64, 127
1, 229366, Note_off_c, 0, 68, 62
1, 229419, Note_on_c, 0, 80, 60
1, 229447, Note_off_c, 0, 80, 68
1, 229515, Note_on_c, 0, 80, 66
1, 229594, Note_off_c, 0, 80, 52
1, 229644, Note_on_c, 0, 92, 63
1, 229656, Note_on_c, 0, 63, 63
1, 229676, Note_on_c, 0, 54, 48
1, 229679, Note_on_c, 0, 56, 51
1, 229726, Note_off_c, 0, 92, 62
1, 229787, Note_on_c, 0, 80, 51
1, 229807, Note_off_c, 0, 80, 61
1, 229882, Note_on_c, 0, 80, 69
1, 229949, Note_off_c, 0, 80, 61
1, 229965, Note_off_c, 0, 63, 62
1, 229975, Note_off_c, 0, 56, 55
1, 229980, Note_on_c, 0, 68, 57
1, 230001, Note_off_c, 0, 54, 57
1, 230027, Note_off_c, 0, 68, 66
1, 230069, Note_on_c, 0, 80, 65
1, 230085, Note_off_c, 0, 80, 69
1, 230155, Note_on_c, 0, 80, 70
1, 230202, Note_off_c, 0, 80, 55
1, 230235, Note_on_c, 0, 92, 79
1, 230243, Note_on_c, 0, 61, 74
1, 230257, Note_on_c, 0, 56, 57
1, 230265, Note_on_c, 0, 52, 61
1, 230284, Control_c, 0, 64, 108
1, 230299, Control_c, 0, 64, 89
1, 230305, Note_off_c, 0, 92, 64
1, 230314, Control_c, 0, 64, 72
1, 230329, Control_c, 0, 64, 56
1, 230344, Control_c, 0, 64, 63
1, 230344, Note_on_c, 0, 80, 62
1, 230359, Control_c, 0, 64, 69
1, 230365, Note_off_c, 0, 80, 64
1, 230373, Control_c, 0, 64, 77
1, 230388, Control_c, 0, 64, 88
1, 230403, Control_c, 0, 64, 99
1, 230418, Control_c, 0, 64, 109
1, 230433, Control_c, 0, 64, 117
1, 230436, Note_on_c, 0, 80, 82
1, 230447, Control_c, 0, 64, 121
1, 230462, Control_c, 0, 64, 125
1, 230477, Control_c, 0, 64, 127
1, 230493, Note_off_c, 0, 56, 58
1, 230501, Note_off_c, 0, 80, 58
1, 230514, Note_off_c, 0, 52, 65
1, 230517, Note_on_c, 0, 68, 69
1, 230533, Note_off_c, 0, 61, 58
1, 230569, Note_off_c, 0, 68, 63
1, 230601, Note_on_c, 0, 80, 69
1, 230625, Note_off_c, 0, 80, 68
1, 230677, Note_on_c, 0, 80, 82
1, 230750, Note_off_c, 0, 80, 60
1, 230778, Note_on_c, 0, 92, 85
1, 230784, Note_on_c, 0, 59, 72
1, 230795, Control_c, 0, 64, 113
1, 230796, Note_on_c, 0, 54, 65
1, 230798, Note_on_c, 0, 51, 63
1, 230810, Control_c, 0, 64, 89
1, 230825, Control_c, 0, 64, 72
1, 230840, Control_c, 0, 64, 66
1, 230855, Control_c, 0, 64, 72
1, 230860, Note_off_c, 0, 92, 64
1, 230869, Control_c, 0, 64, 81
1, 230884, Control_c, 0, 64, 94
1, 230893, Note_on_c, 0, 80, 73
1, 230899, Control_c, 0, 64, 111
1, 230902, Note_off_c, 0, 59, 54
1, 230914, Control_c, 0, 64, 127
1, 230919, Note_off_c, 0, 80, 66
1, 230970, Note_off_c, 0, 51, 62
1, 230996, Note_on_c, 0, 57, 78
1, 231008, Note_on_c, 0, 49, 68
1, 231016, Note_on_c, 0, 80, 76
1, 231035, Note_off_c, 0, 54, 57
1, 231062, Control_c, 0, 64, 109
1, 231077, Control_c, 0, 64, 81
1, 231086, Note_off_c, 0, 80, 62
1, 231092, Control_c, 0, 64, 0
1, 231109, Note_on_c, 0, 68, 55
1, 231136, Control_c, 0, 64, 56
1, 231148, Note_off_c, 0, 68, 63
1, 231151, Control_c, 0, 64, 78
1, 231166, Control_c, 0, 64, 98
1, 231181, Control_c, 0, 64, 127
1, 231188, Note_on_c, 0, 80, 72
1, 231194, Note_on_c, 0, 52, 83
1, 231194, Note_off_c, 0, 49, 60
1, 231200, Note_off_c, 0, 57, 63
1, 231205, Note_off_c, 0, 80, 68
1, 231272, Note_on_c, 0, 80, 77
1, 231287, Note_off_c, 0, 52, 62
1, 231334, Note_off_c, 0, 80, 61
1, 231358, Note_on_c, 0, 54, 81
1, 231359, Note_on_c, 0, 92, 83
1, 231409, Note_off_c, 0, 54, 63
1, 231427, Note_off_c, 0, 92, 65
1, 231453, Note_on_c, 0, 80, 72
1, 231480, Note_off_c, 0, 80, 67
1, 231492, Control_c, 0, 67, 127
1, 231507, Control_c, 0, 67, 124
1, 231530, Control_c, 0, 67, 121
1, 231544, Control_c, 0, 67, 117
1, 231559, Control_c, 0, 64, 107
1, 231559, Control_c, 0, 67, 112
1, 231569, Note_on_c, 0, 80, 79
1, 231574, Control_c, 0, 64, 79
1, 231574, Control_c, 0, 67, 108
1, 231575, Note_on_c, 0, 56, 79
1, 231578, Note_on_c, 0, 48, 70
1, 231587, Note_on_c, 0, 44, 66
1, 231589, Control_c, 0, 64, 0
1, 231589, Control_c, 0, 67, 103
1, 231604, Control_c, 0, 67, 99
1, 231618, Control_c, 0, 67, 94
1, 231633, Control_c, 0, 64, 66
1, 231633, Control_c, 0, 67, 88
1, 231648, Control_c, 0, 64, 85
1, 231648, Control_c, 0, 67, 82
1, 231650, Note_off_c, 0, 80, 60
1, 231659, Note_off_c, 0, 44, 63
1, 231662, Note_off_c, 0, 56, 66
1, 231663, Control_c, 0, 64, 123
1, 231663, Control_c, 0, 67, 75
1, 231665, Note_off_c, 0, 48, 65
1, 231668, Note_on_c, 0, 68, 70
1, 231678, Control_c, 0, 64, 127
1, 231678, Control_c, 0, 67, 68
1, 231692, Control_c, 0, 67, 61
1, 231707, Control_c, 0, 67, 54
1, 231722, Control_c, 0, 67, 48
1, 231724, Note_off_c, 0, 68, 63
1, 231737, Control_c, 0, 67, 45
1, 231751, Control_c, 0, 67, 44
1, 231753, Note_on_c, 0, 80, 78
1, 231766, Control_c, 0, 67, 44
1, 231776, Note_off_c, 0, 80, 66
1, 231855, Note_on_c, 0, 80, 71
1, 231855, Control_c, 0, 67, 43
1, 231870, Control_c, 0, 67, 43
1, 231885, Control_c, 0, 67, 42
1, 231924, Note_off_c, 0, 80, 59
1, 231950, Note_on_c, 0, 63, 88
1, 231950, Note_on_c, 0, 92, 83
1, 231959, Control_c, 0, 67, 42
1, 231963, Note_on_c, 0, 54, 71
1, 231974, Control_c, 0, 67, 41
1, 231976, Note_on_c, 0, 56, 64
1, 231989, Control_c, 0, 67, 39
1, 232004, Control_c, 0, 67, 37
1, 232018, Control_c, 0, 67, 35
1, 232029, Note_off_c, 0, 92, 64
1, 232033, Control_c, 0, 67, 33
1, 232048, Control_c, 0, 67, 30
1, 232062, Control_c, 0, 67, 25
1, 232065, Note_on_c, 0, 80, 68
1, 232077, Control_c, 0, 67, 18
1, 232092, Control_c, 0, 67, 10
1, 232095, Note_off_c, 0, 80, 67
1, 232107, Control_c, 0, 67, 0
1, 232165, Note_on_c, 0, 80, 72
1, 232218, Note_off_c, 0, 63, 64
1, 232230, Note_off_c, 0, 80, 58
1, 232235, Note_off_c, 0, 56, 60
1, 232241, Note_on_c, 0, 68, 68
1, 232277, Note_off_c, 0, 54, 52
1, 232288, Note_off_c, 0, 68, 64
1, 232336, Note_on_c, 0, 80, 70
1, 232354, Note_off_c, 0, 80, 68
1, 232413, Note_on_c, 0, 80, 82
1, 232474, Note_off_c, 0, 80, 61
1, 232495, Note_on_c, 0, 92, 85
1, 232496, Note_on_c, 0, 61, 94
1, 232507, Note_on_c, 0, 56, 66
1, 232509, Note_on_c, 0, 52, 76
1, 232545, Control_c, 0, 64, 121
1, 232560, Control_c, 0, 64, 95
1, 232574, Note_off_c, 0, 92, 64
1, 232574, Control_c, 0, 64, 78
1, 232589, Control_c, 0, 64, 70
1, 232599, Note_on_c, 0, 80, 80
1, 232604, Control_c, 0, 64, 73
1, 232619, Control_c, 0, 64, 81
1, 232628, Note_off_c, 0, 80, 60
1, 232634, Control_c, 0, 64, 99
1, 232648, Control_c, 0, 64, 127
1, 232704, Note_on_c, 0, 80, 87
1, 232770, Note_off_c, 0, 56, 61
1, 232772, Note_off_c, 0, 61, 62
1, 232772, Note_off_c, 0, 80, 59
1, 232782, Note_on_c, 0, 68, 75
1, 232782, Note_off_c, 0, 52, 63
1, 232830, Note_off_c, 0, 68, 64
1, 232856, Note_on_c, 0, 80, 89
1, 232877, Note_off_c, 0, 80, 67
1, 232940, Note_on_c, 0, 80, 86
1, 233020, Note_off_c, 0, 80, 62
1, 233021, Note_on_c, 0, 59, 83
1, 233032, Note_on_c, 0, 54, 79
1, 233034, Note_on_c, 0, 51, 73
1, 233039, Note_on_c, 0, 92, 91
1, 233042, Control_c, 0, 64, 117
1, 233057, Control_c, 0, 64, 89
1, 233071, Control_c, 0, 64, 67
1, 233086, Control_c, 0, 64, 0
1, 233101, Control_c, 0, 64, 62
1, 233116, Control_c, 0, 64, 76
1, 233123, Note_off_c, 0, 92, 65
1, 233131, Control_c, 0, 64, 97
1, 233144, Note_on_c, 0, 80, 82
1, 233145, Control_c, 0, 64, 127
1, 233155, Note_off_c, 0, 59, 59
1, 233188, Note_off_c, 0, 51, 62
1, 233190, Note_off_c, 0, 80, 65
1, 233246, Note_on_c, 0, 57, 86
1, 233256, Note_on_c, 0, 49, 75
1, 233261, Note_on_c, 0, 80, 83
1, 233278, Note_off_c, 0, 54, 60
1, 233294, Control_c, 0, 64, 118
1, 233309, Control_c, 0, 64, 93
1, 233323, Control_c, 0, 64, 71
1, 233338, Control_c, 0, 64, 0
1, 233344, Note_off_c, 0, 80, 61
1, 233347, Note_on_c, 0, 68, 71
1, 233368, Control_c, 0, 64, 63
1, 233383, Control_c, 0, 64, 80
1, 233395, Note_off_c, 0, 68, 64
1, 233397, Control_c, 0, 64, 106
1, 233412, Control_c, 0, 64, 127
1, 233426, Note_off_c, 0, 49, 56
1, 233429, Note_on_c, 0, 80, 80
1, 233446, Note_on_c, 0, 52, 87
1, 233450, Note_off_c, 0, 57, 60
1, 233451, Note_off_c, 0, 80, 72
1, 233508, Note_on_c, 0, 80, 76
1, 233558, Note_off_c, 0, 52, 63
1, 233578, Note_off_c, 0, 80, 61
1, 233595, Note_on_c, 0, 92, 88
1, 233596, Note_on_c, 0, 54, 88
1, 233626, Note_off_c, 0, 54, 66
1, 233679, Note_off_c, 0, 92, 64
1, 233686, Note_on_c, 0, 80, 86
1, 233728, Note_off_c, 0, 80, 66
1, 233811, Note_on_c, 0, 44, 84
1, 233811, Note_on_c, 0, 32, 85
1, 233819, Note_on_c, 0, 80, 80
1, 233820, Control_c, 0, 64, 109
1, 233835, Control_c, 0, 64, 82
1, 233850, Control_c, 0, 64, 32
1, 233865, Control_c, 0, 64, 0
1, 233894, Control_c, 0, 64, 57
1, 233900, Note_off_c, 0, 32, 64
1, 233909, Note_off_c, 0, 80, 62
1, 233909, Control_c, 0, 64, 81
1, 233911, Note_off_c, 0, 44, 65
1, 233924, Note_on_c, 0, 68, 75
1, 233924, Control_c, 0, 64, 106
1, 233939, Control_c, 0, 64, 127
1, 233978, Note_off_c, 0, 68, 64
1, 234009, Note_on_c, 0, 80, 81
1, 234034, Note_off_c, 0, 80, 63
1, 234099, Note_on_c, 0, 80, 76
1, 234157, Note_off_c, 0, 80, 61
1, 234186, Note_on_c, 0, 92, 89
1, 234188, Note_on_c, 0, 56, 89
1, 234200, Note_on_c, 0, 51, 76
1, 234201, Note_on_c, 0, 48, 77
1, 234267, Note_off_c, 0, 92, 66
1, 234296, Note_on_c, 0, 80, 77
1, 234318, Note_off_c, 0, 80, 70
1, 234395, Note_on_c, 0, 80, 83
1, 234404, Note_off_c, 0, 48, 64
1, 234407, Note_off_c, 0, 56, 64
1, 234412, Note_off_c, 0, 51, 62
1, 234452, Note_off_c, 0, 80, 61
1, 234474, Note_on_c, 0, 68, 74
1, 234513, Note_off_c, 0, 68, 64
1, 234550, Note_on_c, 0, 80, 85
1, 234570, Note_off_c, 0, 80, 69
1, 234633, Note_on_c, 0, 80, 91
1, 234691, Note_off_c, 0, 80, 63
1, 234714, Note_on_c, 0, 92, 101
1, 234721, Note_on_c, 0, 58, 98
1, 234726, Note_on_c, 0, 49, 86
1, 234733, Note_on_c, 0, 52, 79
1, 234762, Control_c, 0, 64, 103
1, 234777, Control_c, 0, 64, 81
1, 234791, Note_off_c, 0, 92, 63
1, 234792, Control_c, 0, 64, 66
1, 234806, Control_c, 0, 64, 65
1, 234809, Note_on_c, 0, 80, 79
1, 234821, Control_c, 0, 64, 74
1, 234836, Control_c, 0, 64, 91
1, 234837, Note_off_c, 0, 80, 65
1, 234851, Control_c, 0, 64, 119
1, 234866, Control_c, 0, 64, 127
1, 234900, Note_on_c, 0, 80, 91
1, 234920, Note_off_c, 0, 49, 59
1, 234923, Note_off_c, 0, 52, 64
1, 234926, Note_off_c, 0, 58, 61
1, 234961, Note_off_c, 0, 80, 63
1, 234972, Note_on_c, 0, 68, 83
1, 235011, Note_off_c, 0, 68, 68
1, 235049, Note_on_c, 0, 80, 88
1, 235080, Note_off_c, 0, 80, 62
1, 235135, Note_on_c, 0, 80, 90
1, 235172, Note_on_c, 0, 79, 45
1, 235195, Note_off_c, 0, 79, 57
1, 235196, Note_off_c, 0, 80, 64
1, 235218, Note_on_c, 0, 92, 100
1, 235230, Note_on_c, 0, 61, 101
1, 235240, Note_on_c, 0, 52, 86
1, 235242, Note_on_c, 0, 56, 84
1, 235274, Control_c, 0, 64, 96
1, 235288, Control_c, 0, 64, 74
1, 235303, Control_c, 0, 64, 61
1, 235308, Note_off_c, 0, 92, 65
1, 235312, Note_on_c, 0, 80, 89
1, 235318, Control_c, 0, 64, 70
1, 235333, Control_c, 0, 64, 84
1, 235348, Note_off_c, 0, 80, 66
1, 235348, Control_c, 0, 64, 110
1, 235362, Control_c, 0, 64, 127
1, 235409, Note_on_c, 0, 80, 95
1, 235447, Note_on_c, 0, 78, 33
1, 235448, Note_off_c, 0, 78, 127
1, 235448, Note_off_c, 0, 52, 65
1, 235456, Note_off_c, 0, 61, 57
1, 235481, Note_off_c, 0, 56, 55
1, 235483, Note_off_c, 0, 80, 59
1, 235492, Note_on_c, 0, 68, 91
1, 235551, Note_off_c, 0, 68, 65
1, 235570, Note_on_c, 0, 80, 95
1, 235608, Note_off_c, 0, 80, 67
1, 235609, Note_on_c, 0, 78, 19
1, 235650, Note_off_c, 0, 78, 29
1, 235660, Note_on_c, 0, 80, 90
1, 235724, Note_on_c, 0, 60, 92
1, 235724, Note_off_c, 0, 80, 63
1, 235731, Note_on_c, 0, 56, 84
1, 235736, Note_on_c, 0, 51, 87
1, 235739, Note_on_c, 0, 92, 108
1, 235757, Note_off_c, 0, 60, 67
1, 235770, Note_off_c, 0, 56, 65
1, 235787, Note_off_c, 0, 51, 64
1, 235821, Note_on_c, 0, 80, 95
1, 235837, Note_off_c, 0, 92, 63
1, 235866, Note_off_c, 0, 80, 64
1, 235911, Control_c, 0, 64, 90
1, 235919, Note_on_c, 0, 44, 108
1, 235926, Control_c, 0, 64, 59
1, 235930, Note_on_c, 0, 80, 99
1, 235941, Control_c, 0, 64, 0
1, 235971, Control_c, 0, 64, 70
1, 235975, Note_off_c, 0, 44, 65
1, 235985, Control_c, 0, 64, 89
1, 236000, Control_c, 0, 64, 127
1, 236023, Note_off_c, 0, 80, 62
1, 236033, Note_on_c, 0, 68, 88
1, 236083, Note_off_c, 0, 68, 66
1, 236120, Note_on_c, 0, 80, 84
1, 236142, Note_off_c, 0, 80, 66
1, 236203, Note_on_c, 0, 80, 93
1, 236259, Note_off_c, 0, 80, 63
1, 236268, Note_on_c, 0, 58, 95
1, 236276, Note_on_c, 0, 49, 92
1, 236278, Note_on_c, 0, 56, 87
1, 236279, Note_on_c, 0, 92, 100
1, 236299, Note_off_c, 0, 56, 71
1, 236305, Note_off_c, 0, 58, 68
1, 236309, Note_on_c, 0, 90, 50
1, 236322, Note_off_c, 0, 49, 61
1, 236338, Note_off_c, 0, 90, 50
1, 236359, Note_off_c, 0, 92, 64
1, 236364, Note_on_c, 0, 80, 92
1, 236369, Poly_aftertouch_c, 0, 48, 127
1, 236404, Note_off_c, 0, 80, 61
1, 236405, Poly_aftertouch_c, 0, 48, 0
1, 236418, Note_on_c, 0, 79, 33
1, 236419, Note_off_c, 0, 79, 127
1, 236438, Control_c, 0, 64, 91
1, 236453, Control_c, 0, 64, 48
1, 236462, Note_on_c, 0, 44, 110
1, 236468, Note_on_c, 0, 80, 103
1, 236468, Control_c, 0, 64, 0
1, 236497, Control_c, 0, 64, 57
1, 236512, Control_c, 0, 64, 80
1, 236515, Note_off_c, 0, 44, 63
1, 236517, Note_on_c, 0, 78, 20
1, 236518, Note_off_c, 0, 78, 127
1, 236527, Control_c, 0, 64, 110
1, 236541, Control_c, 0, 64, 127
1, 236555, Note_off_c, 0, 80, 55
1, 236556, Note_on_c, 0, 68, 88
1, 236608, Note_off_c, 0, 68, 67
1, 236639, Note_on_c, 0, 80, 100
1, 236676, Note_off_c, 0, 80, 64
1, 236728, Note_on_c, 0, 80, 99
1, 236779, Note_on_c, 0, 79, 37
1, 236798, Note_off_c, 0, 80, 63
1, 236807, Note_off_c, 0, 79, 48
1, 236815, Note_on_c, 0, 60, 98
1, 236818, Note_on_c, 0, 51, 99
1, 236820, Note_on_c, 0, 92, 105
1, 236821, Note_on_c, 0, 56, 89
1, 236848, Note_off_c, 0, 60, 66
1, 236850, Note_on_c, 0, 90, 51
1, 236863, Note_off_c, 0, 56, 66
1, 236869, Note_off_c, 0, 51, 64
1, 236874, Note_off_c, 0, 90, 56
1, 236908, Note_on_c, 0, 80, 91
1, 236908, Note_off_c, 0, 92, 64
1, 236951, Note_off_c, 0, 80, 66
1, 237007, Control_c, 0, 64, 112
1, 237013, Note_on_c, 0, 44, 103
1, 237021, Note_on_c, 0, 80, 107
1, 237022, Control_c, 0, 64, 72
1, 237038, Control_c, 0, 64, 0
1, 237040, Note_on_c, 0, 42, 56
1, 237041, Note_off_c, 0, 42, 127
1, 237041, Note_on_c, 0, 43, 65
1, 237066, Note_off_c, 0, 43, 58
1, 237068, Note_off_c, 0, 44, 65
1, 237068, Control_c, 0, 64, 54
1, 237083, Control_c, 0, 64, 78
1, 237098, Control_c, 0, 64, 108
1, 237108, Note_off_c, 0, 80, 62
1, 237112, Control_c, 0, 64, 127
1, 237124, Note_on_c, 0, 68, 87
1, 237171, Note_off_c, 0, 68, 67
1, 237204, Note_on_c, 0, 80, 111
1, 237240, Note_off_c, 0, 80, 59
1, 237263, Note_on_c, 0, 81, 7
1, 237299, Note_on_c, 0, 80, 98
1, 237306, Note_off_c, 0, 81, 29
1, 237365, Note_off_c, 0, 80, 62
1, 237385, Note_on_c, 0, 64, 100
1, 237386, Note_on_c, 0, 54, 92
1, 237390, Note_on_c, 0, 60, 86
1, 237393, Note_on_c, 0, 92, 110
1, 237394, Note_on_c, 0, 56, 86
1, 237415, Note_off_c, 0, 64, 64
1, 237425, Note_off_c, 0, 60, 65
1, 237430, Note_on_c, 0, 90, 52
1, 237433, Note_off_c, 0, 54, 62
1, 237436, Note_off_c, 0, 56, 66
1, 237458, Note_off_c, 0, 90, 56
1, 237484, Note_on_c, 0, 80, 99
1, 237498, Note_off_c, 0, 92, 69
1, 237546, Note_off_c, 0, 80, 66
1, 237629, Note_on_c, 0, 44, 109
1, 237630, Note_on_c, 0, 32, 102
1, 237633, Note_on_c, 0, 80, 120
1, 237653, Control_c, 0, 64, 100
1, 237659, Note_on_c, 0, 34, 45
1, 237668, Control_c, 0, 64, 64
1, 237672, Note_off_c, 0, 32, 67
1, 237682, Control_c, 0, 64, 0
1, 237705, Note_on_c, 0, 45, 30
1, 237705, Note_off_c, 0, 34, 48
1, 237712, Note_off_c, 0, 44, 66
1, 237727, Control_c, 0, 64, 80
1, 237742, Control_c, 0, 64, 127
1, 237743, Note_off_c, 0, 45, 31
1, 237754, Note_off_c, 0, 80, 61
1, 237765, Note_on_c, 0, 68, 95
1, 237852, Note_off_c, 0, 68, 62
1, 237867, Note_on_c, 0, 80, 112
1, 237906, Note_off_c, 0, 80, 64
1, 237971, Note_on_c, 0, 80, 97
1, 237996, Note_on_c, 0, 78, 54
1, 237997, Note_off_c, 0, 78, 127
1, 238077, Note_off_c, 0, 80, 62
1, 238085, Note_on_c, 0, 63, 109
1, 238091, Note_on_c, 0, 60, 87
1, 238091, Note_on_c, 0, 92, 105
1, 238094, Note_on_c, 0, 54, 87
1, 238096, Note_on_c, 0, 56, 83
1, 238121, Note_off_c, 0, 63, 72
1, 238124, Note_on_c, 0, 93, 58
1, 238128, Note_off_c, 0, 60, 64
1, 238142, Note_off_c, 0, 54, 64
1, 238142, Note_off_c, 0, 56, 68
1, 238145, Note_off_c, 0, 93, 56
1, 238184, Note_on_c, 0, 80, 94
1, 238195, Note_off_c, 0, 92, 64
1, 238214, Note_off_c, 0, 80, 64
1, 238391, Note_on_c, 0, 80, 99
1, 238398, Note_on_c, 0, 49, 112
1, 238398, Note_on_c, 0, 73, 99
1, 238399, Note_on_c, 0, 37, 97
1, 238399, Note_on_c, 0, 76, 89
1, 238417, Control_c, 0, 64, 82
1, 238419, Note_on_c, 0, 78, 69
1, 238420, Poly_aftertouch_c, 0, 75, 127
1, 238432, Control_c, 0, 64, 0
1, 238460, Note_off_c, 0, 37, 65
1, 238464, Note_off_c, 0, 49, 64
1, 238488, Note_off_c, 0, 78, 40
1, 238491, Control_c, 0, 64, 70
1, 238492, Poly_aftertouch_c, 0, 75, 0
1, 238506, Control_c, 0, 64, 104
1, 238509, Note_off_c, 0, 80, 64
1, 238512, Note_off_c, 0, 76, 62
1, 238515, Note_off_c, 0, 73, 63
1, 238521, Control_c, 0, 64, 127
1, 238540, Note_on_c, 0, 68, 91
1, 238618, Note_off_c, 0, 68, 66
1, 238622, Note_on_c, 0, 80, 89
1, 238628, Note_on_c, 0, 73, 82
1, 238631, Note_on_c, 0, 76, 72
1, 238645, Note_off_c, 0, 73, 67
1, 238652, Note_off_c, 0, 76, 72
1, 238655, Note_on_c, 0, 81, 72
1, 238670, Note_off_c, 0, 80, 66
1, 238679, Note_off_c, 0, 81, 68
1, 238723, Note_on_c, 0, 80, 101
1, 238783, Note_off_c, 0, 80, 66
1, 238784, Note_on_c, 0, 61, 98
1, 238793, Note_on_c, 0, 52, 85
1, 238796, Note_on_c, 0, 92, 103
1, 238798, Note_on_c, 0, 56, 83
1, 238800, Note_on_c, 0, 88, 87
1, 238806, Note_on_c, 0, 85, 81
1, 238822, Note_off_c, 0, 61, 66
1, 238834, Note_off_c, 0, 52, 69
1, 238840, Note_off_c, 0, 56, 63
1, 238871, Note_off_c, 0, 92, 66
1, 238874, Note_on_c, 0, 80, 96
1, 238884, Note_off_c, 0, 85, 65
1, 238885, Note_off_c, 0, 88, 61
1, 238911, Note_off_c, 0, 80, 61
1, 238929, Note_on_c, 0, 79, 15
1, 238951, Control_c, 0, 64, 101
1, 238963, Note_on_c, 0, 80, 102
1, 238966, Control_c, 0, 64, 65
1, 238968, Note_on_c, 0, 49, 109
1, 238969, Note_off_c, 0, 79, 38
1, 238971, Note_on_c, 0, 76, 85
1, 238973, Note_on_c, 0, 37, 91
1, 238981, Control_c, 0, 64, 0
1, 238982, Note_on_c, 0, 73, 91
1, 238995, Note_off_c, 0, 37, 71
1, 238999, Note_off_c, 0, 49, 62
1, 239012, Note_on_c, 0, 39, 40
1, 239013, Note_off_c, 0, 39, 127
1, 239018, Control_c, 0, 64, 55
1, 239033, Control_c, 0, 64, 83
1, 239047, Note_off_c, 0, 76, 65
1, 239048, Control_c, 0, 64, 112
1, 239063, Control_c, 0, 64, 127
1, 239066, Note_on_c, 0, 68, 95
1, 239071, Note_off_c, 0, 73, 60
1, 239080, Note_off_c, 0, 80, 65
1, 239119, Note_off_c, 0, 68, 68
1, 239145, Note_on_c, 0, 80, 101
1, 239153, Note_on_c, 0, 73, 73
1, 239167, Note_off_c, 0, 73, 42
1, 239173, Note_on_c, 0, 76, 42
1, 239176, Note_off_c, 0, 80, 69
1, 239200, Note_off_c, 0, 76, 59
1, 239245, Note_on_c, 0, 85, 99
1, 239301, Note_off_c, 0, 85, 65
1, 239334, Note_on_c, 0, 73, 98
1, 239337, Note_on_c, 0, 97, 115
1, 239340, Note_on_c, 0, 68, 81
1, 239341, Note_on_c, 0, 64, 77
1, 239345, Note_on_c, 0, 88, 102
1, 239346, Note_on_c, 0, 61, 84
1, 239359, Note_off_c, 0, 73, 65
1, 239367, Note_off_c, 0, 68, 69
1, 239369, Note_off_c, 0, 64, 69
1, 239387, Note_off_c, 0, 61, 64
1, 239439, Note_off_c, 0, 88, 33
1, 239460, Note_on_c, 0, 85, 87
1, 239470, Note_off_c, 0, 97, 61
1, 239568, Note_off_c, 0, 85, 64
1, 239597, Control_c, 0, 64, 97
1, 239599, Note_on_c, 0, 97, 116
1, 239602, Note_on_c, 0, 93, 102
1, 239609, Note_on_c, 0, 61, 105
1, 239611, Note_on_c, 0, 49, 94
1, 239612, Control_c, 0, 64, 64
1, 239626, Control_c, 0, 64, 0
1, 239641, Control_c, 0, 64, 51
1, 239654, Note_off_c, 0, 49, 66
1, 239656, Control_c, 0, 64, 84
1, 239668, Note_off_c, 0, 61, 62
1, 239671, Control_c, 0, 64, 127
1, 239711, Note_on_c, 0, 85, 92
1, 239715, Note_off_c, 0, 93, 62
1, 239732, Note_off_c, 0, 97, 62
1, 239779, Note_off_c, 0, 85, 65
1, 239827, Note_on_c, 0, 95, 110
1, 239831, Note_on_c, 0, 92, 103
1, 239904, Note_off_c, 0, 92, 56
1, 239916, Note_on_c, 0, 83, 96
1, 239934, Note_off_c, 0, 95, 63
1, 239971, Note_off_c, 0, 83, 63
1, 239989, Note_on_c, 0, 73, 87
1, 239995, Note_on_c, 0, 66, 82
1, 239998, Note_on_c, 0, 61, 81
1, 239998, Note_on_c, 0, 93, 111
1, 239999, Note_on_c, 0, 90, 98
1, 240008, Note_off_c, 0, 73, 72
1, 240016, Note_on_c, 0, 69, 37
1, 240026, Note_off_c, 0, 66, 67
1, 240029, Note_on_c, 0, 91, 46
1, 240041, Note_off_c, 0, 61, 64
1, 240047, Note_off_c, 0, 69, 54
1, 240054, Note_off_c, 0, 91, 39
1, 240067, Note_off_c, 0, 90, 59
1, 240075, Note_off_c, 0, 93, 65
1, 240086, Note_on_c, 0, 81, 94
1, 240122, Control_c, 0, 64, 94
1, 240133, Note_off_c, 0, 81, 61
1, 240137, Control_c, 0, 64, 68
1, 240151, Control_c, 0, 64, 0
1, 240157, Note_on_c, 0, 87, 85
1, 240160, Note_on_c, 0, 92, 106
1, 240162, Note_on_c, 0, 61, 100
1, 240163, Note_on_c, 0, 49, 97
1, 240166, Note_on_c, 0, 88, 90
1, 240166, Control_c, 0, 64, 64
1, 240170, Note_off_c, 0, 87, 44
1, 240181, Control_c, 0, 64, 85
1, 240196, Control_c, 0, 64, 127
1, 240200, Note_off_c, 0, 61, 65
1, 240201, Note_off_c, 0, 49, 61
1, 240242, Note_on_c, 0, 80, 96
1, 240243, Note_off_c, 0, 88, 65
1, 240255, Note_off_c, 0, 92, 64
1, 240282, Note_off_c, 0, 80, 65
1, 240327, Note_on_c, 0, 88, 103
1, 240327, Note_on_c, 0, 85, 90
1, 240333, Note_on_c, 0, 86, 86
1, 240351, Note_on_c, 0, 84, 78
1, 240381, Note_off_c, 0, 84, 64
1, 240381, Note_off_c, 0, 85, 54
1, 240398, Note_off_c, 0, 86, 58
1, 240406, Note_off_c, 0, 88, 64
1, 240410, Note_on_c, 0, 76, 96
1, 240461, Note_off_c, 0, 76, 69
1, 240473, Note_on_c, 0, 68, 92
1, 240480, Note_on_c, 0, 61, 85
1, 240482, Note_on_c, 0, 56, 84
1, 240491, Note_on_c, 0, 87, 98
1, 240491, Note_off_c, 0, 68, 73
1, 240494, Note_on_c, 0, 64, 53
1, 240501, Note_on_c, 0, 90, 101
1, 240518, Note_off_c, 0, 61, 63
1, 240518, Note_on_c, 0, 85, 58
1, 240522, Note_off_c, 0, 64, 59
1, 240528, Note_off_c, 0, 56, 66
1, 240538, Note_off_c, 0, 85, 61
1, 240573, Note_on_c, 0, 78, 98
1, 240586, Note_off_c, 0, 87, 42
1, 240589, Note_off_c, 0, 90, 67
1, 240640, Note_off_c, 0, 78, 63
1, 240649, Control_c, 0, 64, 103
1, 240664, Control_c, 0, 64, 67
1, 240673, Note_on_c, 0, 92, 107
1, 240675, Note_on_c, 0, 49, 107
1, 240676, Note_on_c, 0, 88, 86
1, 240678, Note_on_c, 0, 37, 92
1, 240678, Note_on_c, 0, 85, 84
1, 240679, Control_c, 0, 64, 0
1, 240702, Note_off_c, 0, 37, 72
1, 240708, Control_c, 0, 64, 68
1, 240712, Note_on_c, 0, 90, 41
1, 240713, Note_off_c, 0, 90, 127
1, 240723, Control_c, 0, 64, 89
1, 240727, Note_off_c, 0, 49, 61
1, 240738, Control_c, 0, 64, 127
1, 240744, Note_off_c, 0, 88, 59
1, 240759, Note_off_c, 0, 92, 66
1, 240760, Note_on_c, 0, 80, 89
1, 240765, Note_off_c, 0, 85, 66
1, 240777, Note_off_c, 0, 80, 74
1, 240782, Poly_aftertouch_c, 0, 39, 0
1, 240813, Note_on_c, 0, 79, 20
1, 240850, Note_on_c, 0, 80, 91
1, 240851, Note_off_c, 0, 79, 53
1, 240859, Note_on_c, 0, 76, 76
1, 240870, Note_on_c, 0, 73, 76
1, 240917, Note_off_c, 0, 76, 57
1, 240934, Note_on_c, 0, 68, 92
1, 240937, Note_off_c, 0, 73, 39
1, 240953, Note_off_c, 0, 80, 64
1, 240992, Note_off_c, 0, 68, 67
1, 241006, Note_on_c, 0, 64, 80
1, 241008, Note_on_c, 0, 52, 84
1, 241008, Note_on_c, 0, 61, 79
1, 241013, Note_on_c, 0, 58, 76
1, 241018, Note_on_c, 0, 80, 77
1, 241022, Note_off_c, 0, 64, 70
1, 241022, Note_on_c, 0, 73, 58
1, 241029, Note_off_c, 0, 61, 68
1, 241035, Note_off_c, 0, 58, 69
1, 241036, Note_off_c, 0, 80, 69
1, 241043, Note_off_c, 0, 73, 60
1, 241051, Note_off_c, 0, 52, 66
1, 241093, Note_on_c, 0, 80, 98
1, 241159, Note_off_c, 0, 80, 63
1, 241168, Control_c, 0, 64, 109
1, 241183, Note_on_c, 0, 92, 107
1, 241183, Control_c, 0, 64, 79
1, 241192, Note_on_c, 0, 48, 116
1, 241192, Note_on_c, 0, 88, 82
1, 241197, Note_on_c, 0, 36, 92
1, 241197, Note_on_c, 0, 85, 78
1, 241197, Control_c, 0, 64, 0
1, 241215, Note_on_c, 0, 38, 64
1, 241216, Note_on_c, 0, 93, 57
1, 241222, Note_on_c, 0, 39, 48
1, 241224, Note_off_c, 0, 36, 70
1, 241227, Control_c, 0, 64, 45
1, 241233, Note_off_c, 0, 48, 65
1, 241237, Note_off_c, 0, 93, 57
1, 241239, Note_off_c, 0, 38, 65
1, 241242, Control_c, 0, 64, 78
1, 241265, Note_off_c, 0, 39, 38
1, 241265, Control_c, 0, 64, 110
1, 241279, Control_c, 0, 64, 127
1, 241282, Note_off_c, 0, 92, 64
1, 241290, Note_off_c, 0, 88, 61
1, 241291, Note_on_c, 0, 81, 82
1, 241291, Note_off_c, 0, 85, 65
1, 241312, Note_off_c, 0, 81, 69
1, 241322, Note_on_c, 0, 82, 11
1, 241323, Note_off_c, 0, 82, 127
1, 241364, Note_on_c, 0, 80, 80
1, 241372, Note_on_c, 0, 76, 85
1, 241385, Note_on_c, 0, 73, 82
1, 241431, Note_off_c, 0, 76, 63
1, 241455, Note_on_c, 0, 68, 93
1, 241474, Note_off_c, 0, 80, 65
1, 241475, Note_off_c, 0, 73, 61
1, 241518, Note_on_c, 0, 64, 96
1, 241521, Note_on_c, 0, 61, 99
1, 241523, Note_off_c, 0, 68, 63
1, 241526, Note_on_c, 0, 58, 87
1, 241531, Note_on_c, 0, 73, 82
1, 241534, Note_on_c, 0, 76, 87
1, 241537, Note_on_c, 0, 80, 86
1, 241537, Note_off_c, 0, 64, 71
1, 241542, Note_off_c, 0, 61, 69
1, 241545, Note_off_c, 0, 58, 72
1, 241547, Note_off_c, 0, 73, 74
1, 241551, Note_off_c, 0, 76, 76
1, 241573, Note_off_c, 0, 80, 66
1, 241630, Note_on_c, 0, 78, 63
1, 241630, Note_on_c, 0, 80, 87
1, 241717, Note_off_c, 0, 78, 60
1, 241728, Note_off_c, 0, 80, 61
1, 241738, Control_c, 0, 64, 99
1, 241753, Control_c, 0, 64, 64
1, 241758, Note_on_c, 0, 92, 107
1, 241763, Note_on_c, 0, 88, 85
1, 241765, Note_on_c, 0, 47, 107
1, 241768, Control_c, 0, 64, 0
1, 241770, Note_on_c, 0, 35, 97
1, 241812, Control_c, 0, 64, 72
1, 241817, Note_off_c, 0, 35, 65
1, 241827, Note_off_c, 0, 47, 55
1, 241828, Control_c, 0, 64, 102
1, 241843, Control_c, 0, 64, 127
1, 241855, Note_on_c, 0, 80, 95
1, 241865, Note_off_c, 0, 92, 65
1, 241868, Note_off_c, 0, 88, 62
1, 241889, Poly_aftertouch_c, 0, 36, 0
1, 241892, Note_on_c, 0, 79, 49
1, 241893, Note_off_c, 0, 80, 59
1, 241915, Note_off_c, 0, 79, 57
1, 241967, Note_on_c, 0, 80, 97
1, 241976, Note_on_c, 0, 76, 85
1, 242036, Poly_aftertouch_c, 0, 75, 0
1, 242049, Note_off_c, 0, 76, 65
1, 242056, Note_on_c, 0, 61, 90
1, 242061, Note_on_c, 0, 52, 74
1, 242071, Note_on_c, 0, 68, 98
1, 242096, Note_off_c, 0, 80, 63
1, 242105, Note_off_c, 0, 61, 64
1, 242122, Note_off_c, 0, 52, 66
1, 242127, Note_off_c, 0, 68, 67
1, 242156, Note_on_c, 0, 59, 96
1, 242157, Note_on_c, 0, 81, 96
1, 242158, Note_on_c, 0, 56, 84
1, 242160, Note_on_c, 0, 78, 86
1, 242187, Note_on_c, 0, 80, 32
1, 242188, Note_off_c, 0, 59, 68
1, 242202, Note_off_c, 0, 56, 65
1, 242217, Note_off_c, 0, 80, 36
1, 242220, Note_off_c, 0, 78, 63
1, 242243, Note_on_c, 0, 69, 91
1, 242253, Note_off_c, 0, 81, 61
1, 242303, Note_off_c, 0, 69, 64
1, 242309, Control_c, 0, 64, 99
1, 242324, Control_c, 0, 64, 65
1, 242339, Control_c, 0, 64, 0
1, 242341, Note_on_c, 0, 83, 107
1, 242344, Note_on_c, 0, 47, 109
1, 242344, Note_on_c, 0, 80, 90
1, 242348, Note_on_c, 0, 35, 93
1, 242375, Note_off_c, 0, 35, 70
1, 242378, Note_on_c, 0, 81, 32
1, 242382, Note_off_c, 0, 47, 68
1, 242384, Control_c, 0, 64, 75
1, 242399, Control_c, 0, 64, 104
1, 242405, Note_off_c, 0, 80, 64
1, 242414, Note_off_c, 0, 81, 42
1, 242414, Control_c, 0, 64, 127
1, 242418, Note_off_c, 0, 83, 61
1, 242433, Note_on_c, 0, 71, 90
1, 242473, Note_off_c, 0, 71, 63
1, 242543, Note_on_c, 0, 76, 92
1, 242545, Note_on_c, 0, 68, 96
1, 242559, Note_on_c, 0, 56, 84
1, 242560, Note_on_c, 0, 59, 80
1, 242565, Note_on_c, 0, 77, 51
1, 242566, Note_off_c, 0, 77, 127
1, 242578, Note_on_c, 0, 60, 47
1, 242579, Note_off_c, 0, 60, 127
1, 242599, Note_off_c, 0, 59, 62
1, 242601, Note_off_c, 0, 56, 59
1, 242604, Poly_aftertouch_c, 0, 60, 0
1, 242604, Note_off_c, 0, 68, 62
1, 242616, Note_off_c, 0, 76, 67
1, 242631, Note_on_c, 0, 64, 93
1, 242689, Note_off_c, 0, 64, 63
1, 242737, Note_on_c, 0, 69, 93
1, 242751, Note_on_c, 0, 57, 82
1, 242751, Note_on_c, 0, 78, 103
1, 242760, Note_on_c, 0, 55, 73
1, 242763, Note_on_c, 0, 60, 68
1, 242768, Note_on_c, 0, 47, 68
1, 242777, Note_on_c, 0, 48, 58
1, 242778, Note_off_c, 0, 60, 65
1, 242780, Note_on_c, 0, 59, 41
1, 242786, Note_on_c, 0, 73, 37
1, 242787, Note_off_c, 0, 55, 68
1, 242789, Note_off_c, 0, 57, 63
1, 242793, Note_off_c, 0, 47, 67
1, 242801, Note_off_c, 0, 48, 61
1, 242816, Note_off_c, 0, 59, 48
1, 242816, Note_off_c, 0, 73, 53
1, 242832, Note_on_c, 0, 66, 95
1, 242832, Note_off_c, 0, 69, 68
1, 242866, Note_off_c, 0, 78, 59
1, 242907, Note_off_c, 0, 66, 62
1, 242940, Control_c, 0, 64, 115
1, 242955, Control_c, 0, 64, 78
1, 242962, Note_on_c, 0, 80, 98
1, 242966, Note_on_c, 0, 71, 91
1, 242968, Note_on_c, 0, 52, 108
1, 242970, Control_c, 0, 64, 0
1, 242971, Note_on_c, 0, 40, 97
1, 242975, Note_on_c, 0, 76, 76
1, 243009, Note_off_c, 0, 40, 64
1, 243014, Control_c, 0, 64, 48
1, 243022, Note_off_c, 0, 52, 63
1, 243022, Note_off_c, 0, 76, 64
1, 243029, Control_c, 0, 64, 84
1, 243044, Control_c, 0, 64, 126
1, 243046, Note_on_c, 0, 68, 91
1, 243052, Note_off_c, 0, 71, 60
1, 243058, Control_c, 0, 64, 127
1, 243077, Note_off_c, 0, 80, 61
1, 243078, Poly_aftertouch_c, 0, 42, 0
1, 243090, Note_off_c, 0, 68, 64
1, 243129, Note_on_c, 0, 80, 77
1, 243142, Note_on_c, 0, 71, 47
1, 243163, Note_off_c, 0, 71, 61
1, 243168, Note_off_c, 0, 80, 67
1, 243218, Note_on_c, 0, 80, 93
1, 243271, Note_off_c, 0, 80, 65
1, 243281, Note_on_c, 0, 64, 81
1, 243287, Note_on_c, 0, 52, 76
1, 243293, Note_on_c, 0, 56, 74
1, 243293, Note_on_c, 0, 59, 66
1, 243296, Note_on_c, 0, 92, 102
1, 243302, Note_off_c, 0, 64, 70
1, 243308, Note_on_c, 0, 83, 72
1, 243310, Note_off_c, 0, 59, 65
1, 243318, Note_off_c, 0, 56, 66
1, 243330, Note_off_c, 0, 52, 67
1, 243350, Note_on_c, 0, 88, 12
1, 243362, Note_on_c, 0, 80, 100
1, 243364, Note_off_c, 0, 92, 68
1, 243367, Note_off_c, 0, 83, 60
1, 243396, Note_off_c, 0, 80, 65
1, 243398, Note_off_c, 0, 88, 28
1, 243458, Control_c, 0, 64, 109
1, 243466, Note_on_c, 0, 51, 104
1, 243469, Note_on_c, 0, 39, 98
1, 243471, Note_on_c, 0, 76, 87
1, 243472, Note_on_c, 0, 72, 93
1, 243472, Note_on_c, 0, 80, 89
1, 243472, Control_c, 0, 64, 76
1, 243487, Control_c, 0, 64, 0
1, 243511, Note_on_c, 0, 73, 11
1, 243512, Note_off_c, 0, 73, 127
1, 243518, Note_off_c, 0, 51, 67
1, 243523, Note_off_c, 0, 39, 64
1, 243539, Control_c, 0, 64, 75
1, 243554, Control_c, 0, 64, 101
1, 243558, Note_on_c, 0, 68, 96
1, 243567, Note_off_c, 0, 72, 59
1, 243569, Control_c, 0, 64, 127
1, 243577, Note_off_c, 0, 80, 62
1, 243581, Note_off_c, 0, 76, 63
1, 243621, Note_off_c, 0, 68, 65
1, 243642, Note_on_c, 0, 80, 91
1, 243649, Note_on_c, 0, 72, 59
1, 243667, Note_off_c, 0, 72, 63
1, 243681, Note_off_c, 0, 80, 67
1, 243728, Note_on_c, 0, 80, 102
1, 243793, Note_off_c, 0, 80, 65
1, 243797, Note_on_c, 0, 64, 91
1, 243805, Note_on_c, 0, 52, 81
1, 243806, Note_on_c, 0, 56, 82
1, 243808, Note_on_c, 0, 60, 73
1, 243809, Note_on_c, 0, 92, 107
1, 243810, Note_on_c, 0, 84, 85
1, 243815, Note_off_c, 0, 64, 73
1, 243825, Note_off_c, 0, 60, 65
1, 243830, Note_off_c, 0, 56, 69
1, 243839, Note_off_c, 0, 52, 68
1, 243884, Note_on_c, 0, 80, 96
1, 243895, Note_off_c, 0, 92, 63
1, 243897, Note_off_c, 0, 84, 66
1, 243917, Note_off_c, 0, 80, 67
1, 243998, Note_on_c, 0, 49, 105
1, 243998, Note_on_c, 0, 80, 104
1, 243998, Control_c, 0, 64, 89
1, 244002, Note_on_c, 0, 37, 99
1, 244011, Note_on_c, 0, 77, 70
1, 244013, Control_c, 0, 64, 0
1, 244014, Note_on_c, 0, 76, 78
1, 244029, Note_on_c, 0, 74, 62
1, 244035, Note_off_c, 0, 77, 68
1, 244038, Note_on_c, 0, 73, 28
1, 244039, Note_off_c, 0, 73, 127
1, 244046, Note_off_c, 0, 37, 65
1, 244047, Note_off_c, 0, 49, 63
1, 244050, Note_on_c, 0, 81, 26
1, 244057, Control_c, 0, 64, 70
1, 244060, Note_off_c, 0, 76, 63
1, 244072, Control_c, 0, 64, 96
1, 244086, Note_off_c, 0, 81, 31
1, 244087, Control_c, 0, 64, 127
1, 244095, Note_off_c, 0, 74, 59
1, 244101, Note_on_c, 0, 68, 94
1, 244117, Note_off_c, 0, 80, 64
1, 244164, Note_off_c, 0, 68, 66
1, 244190, Note_on_c, 0, 80, 89
1, 244196, Note_on_c, 0, 75, 72
1, 244207, Note_off_c, 0, 80, 74
1, 244211, Note_off_c, 0, 75, 67
1, 244274, Note_on_c, 0, 56, 85
1, 244295, Note_on_c, 0, 85, 106
1, 244296, Note_on_c, 0, 64, 77
1, 244307, Note_on_c, 0, 61, 75
1, 244327, Note_off_c, 0, 56, 64
1, 244356, Note_off_c, 0, 85, 65
1, 244393, Note_off_c, 0, 61, 63
1, 244396, Note_on_c, 0, 73, 102
1, 244397, Note_on_c, 0, 97, 112
1, 244408, Note_on_c, 0, 88, 92
1, 244421, Note_on_c, 0, 98, 69
1, 244423, Note_on_c, 0, 94, 60
1, 244432, Note_off_c, 0, 73, 68
1, 244432, Note_off_c, 0, 64, 65
1, 244439, Note_off_c, 0, 98, 59
1, 244442, Note_off_c, 0, 94, 55
1, 244462, Note_off_c, 0, 88, 59
1, 244509, Note_on_c, 0, 85, 92
1, 244530, Note_off_c, 0, 97, 59
1, 244617, Note_off_c, 0, 85, 63
1, 244629, Control_c, 0, 64, 109
1, 244644, Control_c, 0, 64, 77
1, 244645, Note_on_c, 0, 97, 116
1, 244648, Note_on_c, 0, 93, 100
1, 244649, Note_on_c, 0, 61, 101
1, 244651, Note_on_c, 0, 49, 86
1, 244659, Control_c, 0, 64, 0
1, 244688, Control_c, 0, 64, 69
1, 244689, Note_on_c, 0, 98, 32
1, 244690, Note_off_c, 0, 98, 127
1, 244701, Note_off_c, 0, 49, 63
1, 244703, Control_c, 0, 64, 93
1, 244706, Note_off_c, 0, 61, 59
1, 244718, Control_c, 0, 64, 127
1, 244748, Note_on_c, 0, 85, 86
1, 244749, Note_off_c, 0, 93, 60
1, 244759, Note_off_c, 0, 97, 68
1, 244796, Note_off_c, 0, 85, 66
1, 244847, Note_on_c, 0, 95, 110
1, 244853, Note_on_c, 0, 92, 95
1, 244885, Note_on_c, 0, 57, 78
1, 244908, Note_on_c, 0, 61, 66
1, 244935, Note_off_c, 0, 92, 58
1, 244939, Note_on_c, 0, 66, 79
1, 244943, Note_off_c, 0, 57, 64
1, 244946, Note_on_c, 0, 83, 85
1, 244957, Note_off_c, 0, 95, 64
1, 244974, Note_off_c, 0, 61, 62
1, 244976, Note_on_c, 0, 63, 34
1, 245014, Note_off_c, 0, 83, 60
1, 245016, Note_off_c, 0, 63, 46
1, 245022, Note_on_c, 0, 73, 90
1, 245031, Note_on_c, 0, 93, 111
1, 245036, Note_on_c, 0, 90, 90
1, 245040, Note_off_c, 0, 66, 64
1, 245058, Note_on_c, 0, 91, 63
1, 245060, Note_off_c, 0, 73, 65
1, 245075, Note_off_c, 0, 91, 61
1, 245093, Note_off_c, 0, 90, 61
1, 245123, Note_on_c, 0, 81, 91
1, 245129, Note_off_c, 0, 93, 62
1, 245171, Control_c, 0, 64, 90
1, 245176, Note_off_c, 0, 81, 62
1, 245186, Control_c, 0, 64, 45
1, 245201, Control_c, 0, 64, 0
1, 245206, Note_on_c, 0, 92, 108
1, 245210, Note_on_c, 0, 88, 93
1, 245214, Note_on_c, 0, 61, 97
1, 245218, Note_on_c, 0, 49, 82
1, 245231, Control_c, 0, 64, 67
1, 245240, Note_off_c, 0, 49, 67
1, 245246, Control_c, 0, 64, 88
1, 245247, Note_on_c, 0, 63, 37
1, 245248, Note_off_c, 0, 63, 127
1, 245252, Note_on_c, 0, 93, 37
1, 245254, Note_off_c, 0, 61, 61
1, 245260, Control_c, 0, 64, 127
1, 245282, Note_off_c, 0, 93, 37
1, 245303, Note_on_c, 0, 80, 89
1, 245317, Note_off_c, 0, 92, 65
1, 245320, Note_off_c, 0, 88, 62
1, 245383, Note_off_c, 0, 80, 60
1, 245400, Note_on_c, 0, 92, 104
1, 245401, Note_on_c, 0, 88, 91
1, 245407, Note_on_c, 0, 64, 75
1, 245407, Note_on_c, 0, 73, 93
1, 245439, Note_off_c, 0, 73, 62
1, 245448, Note_off_c, 0, 64, 65
1, 245462, Note_off_c, 0, 88, 62
1, 245489, Note_on_c, 0, 80, 89
1, 245502, Note_off_c, 0, 92, 64
1, 245563, Note_off_c, 0, 80, 63
1, 245586, Note_on_c, 0, 94, 106
1, 245589, Note_on_c, 0, 66, 100
1, 245591, Note_on_c, 0, 88, 90
1, 245591, Note_on_c, 0, 54, 94
1, 245612, Note_off_c, 0, 54, 70
1, 245615, Note_off_c, 0, 66, 64
1, 245678, Note_on_c, 0, 82, 88
1, 245700, Note_off_c, 0, 94, 61
1, 245702, Note_off_c, 0, 88, 59
1, 245720, Note_off_c, 0, 82, 65
1, 245752, Note_on_c, 0, 83, 42
1, 245771, Control_c, 0, 64, 113
1, 245777, Note_off_c, 0, 83, 50
1, 245786, Control_c, 0, 64, 83
1, 245795, Note_on_c, 0, 59, 95
1, 245798, Note_on_c, 0, 47, 101
1, 245798, Note_on_c, 0, 95, 108
1, 245800, Note_on_c, 0, 88, 95
1, 245801, Control_c, 0, 64, 0
1, 245829, Note_off_c, 0, 59, 65
1, 245830, Note_off_c, 0, 47, 67
1, 245832, Control_c, 0, 64, 61
1, 245847, Control_c, 0, 64, 78
1, 245862, Control_c, 0, 64, 101
1, 245876, Control_c, 0, 64, 127
1, 245877, Note_off_c, 0, 95, 65
1, 245883, Note_on_c, 0, 83, 82
1, 245889, Note_off_c, 0, 88, 38
1, 245915, Poly_aftertouch_c, 0, 57, 0
1, 245928, Note_off_c, 0, 83, 62
1, 245972, Note_on_c, 0, 90, 107
1, 245985, Note_on_c, 0, 71, 91
1, 245988, Note_on_c, 0, 87, 79
1, 245991, Note_on_c, 0, 63, 77
1, 246010, Note_off_c, 0, 71, 60
1, 246018, Note_off_c, 0, 63, 68
1, 246032, Note_on_c, 0, 61, 24
1, 246047, Note_off_c, 0, 87, 57
1, 246062, Note_on_c, 0, 78, 89
1, 246068, Note_off_c, 0, 61, 51
1, 246070, Note_off_c, 0, 90, 49
1, 246137, Note_off_c, 0, 78, 63
1, 246143, Note_on_c, 0, 92, 102
1, 246145, Note_on_c, 0, 64, 93
1, 246145, Note_on_c, 0, 86, 87
1, 246147, Note_on_c, 0, 52, 90
1, 246164, Note_off_c, 0, 64, 70
1, 246175, Note_off_c, 0, 52, 68
1, 246217, Note_on_c, 0, 80, 90
1, 246235, Note_off_c, 0, 86, 61
1, 246247, Note_off_c, 0, 92, 64
1, 246265, Note_off_c, 0, 80, 67
1, 246276, Control_c, 0, 64, 94
1, 246291, Control_c, 0, 64, 65
1, 246304, Note_on_c, 0, 57, 95
1, 246304, Note_on_c, 0, 93, 99
1, 246306, Control_c, 0, 64, 0
1, 246308, Note_on_c, 0, 45, 87
1, 246313, Note_on_c, 0, 86, 73
1, 246331, Note_off_c, 0, 45, 70
1, 246335, Control_c, 0, 64, 67
1, 246337, Note_on_c, 0, 91, 47
1, 246339, Note_off_c, 0, 57, 65
1, 246343, Note_on_c, 0, 87, 32
1, 246344, Note_off_c, 0, 87, 127
1, 246350, Control_c, 0, 64, 84
1, 246352, Note_off_c, 0, 86, 62
1, 246365, Control_c, 0, 64, 111
1, 246372, Note_off_c, 0, 93, 63
1, 246380, Control_c, 0, 64, 127
1, 246387, Note_on_c, 0, 81, 84
1, 246387, Note_off_c, 0, 91, 29
1, 246427, Note_off_c, 0, 81, 61
1, 246453, Note_on_c, 0, 88, 102
1, 246467, Note_on_c, 0, 69, 93
1, 246474, Note_on_c, 0, 61, 83
1, 246483, Note_on_c, 0, 85, 51
1, 246501, Note_off_c, 0, 69, 65
1, 246506, Note_off_c, 0, 61, 66
1, 246514, Note_off_c, 0, 85, 59
1, 246542, Note_on_c, 0, 76, 83
1, 246558, Note_off_c, 0, 88, 60
1, 246591, Note_off_c, 0, 76, 66
1, 246626, Note_on_c, 0, 90, 102
1, 246626, Note_on_c, 0, 85, 84
1, 246630, Note_on_c, 0, 63, 95
1, 246633, Note_on_c, 0, 51, 89
1, 246642, Note_on_c, 0, 87, 65
1, 246650, Note_off_c, 0, 63, 69
1, 246656, Note_off_c, 0, 51, 69
1, 246660, Note_off_c, 0, 87, 64
1, 246662, Note_on_c, 0, 54, 33
1, 246663, Note_off_c, 0, 54, 127
1, 246676, Note_off_c, 0, 85, 58
1, 246686, Note_off_c, 0, 90, 64
1, 246708, Note_on_c, 0, 78, 92
1, 246758, Control_c, 0, 64, 97
1, 246761, Note_off_c, 0, 78, 65
1, 246772, Note_on_c, 0, 92, 101
1, 246773, Control_c, 0, 64, 68
1, 246776, Note_on_c, 0, 85, 84
1, 246785, Note_on_c, 0, 56, 102
1, 246786, Note_on_c, 0, 44, 91
1, 246788, Control_c, 0, 64, 0
1, 246800, Note_on_c, 0, 54, 60
1, 246803, Control_c, 0, 64, 56
1, 246812, Note_off_c, 0, 44, 68
1, 246814, Note_off_c, 0, 56, 67
1, 246817, Control_c, 0, 64, 73
1, 246825, Note_off_c, 0, 54, 37
1, 246827, Note_on_c, 0, 93, 16
1, 246832, Control_c, 0, 64, 91
1, 246847, Control_c, 0, 64, 127
1, 246848, Note_off_c, 0, 92, 68
1, 246857, Note_on_c, 0, 78, 91
1, 246868, Note_off_c, 0, 93, 31
1, 246875, Note_off_c, 0, 85, 26
1, 246895, Note_off_c, 0, 78, 63
1, 246925, Note_on_c, 0, 60, 87
1, 246927, Note_on_c, 0, 87, 98
1, 246932, Note_on_c, 0, 68, 90
1, 246935, Note_on_c, 0, 83, 80
1, 246955, Note_off_c, 0, 68, 65
1, 246973, Note_off_c, 0, 60, 62
1, 246987, Note_on_c, 0, 56, 10
1, 246992, Note_off_c, 0, 83, 53
1, 247004, Note_on_c, 0, 75, 85
1, 247004, Note_off_c, 0, 87, 65
1, 247021, Note_off_c, 0, 56, 39
1, 247022, Note_off_c, 0, 75, 74
1, 247071, Note_on_c, 0, 89, 98
1, 247079, Note_on_c, 0, 83, 82
1, 247082, Note_on_c, 0, 61, 96
1, 247083, Note_on_c, 0, 49, 95
1, 247102, Note_off_c, 0, 49, 71
1, 247102, Note_off_c, 0, 61, 66
1, 247136, Note_on_c, 0, 77, 79
1, 247144, Note_off_c, 0, 89, 67
1, 247151, Note_off_c, 0, 83, 60
1, 247160, Note_on_c, 0, 79, 54
1, 247185, Note_off_c, 0, 79, 37
1, 247199, Note_off_c, 0, 77, 63
1, 247203, Control_c, 0, 64, 96
1, 247217, Control_c, 0, 64, 59
1, 247218, Note_on_c, 0, 83, 85
1, 247221, Note_on_c, 0, 90, 95
1, 247228, Note_on_c, 0, 54, 100
1, 247230, Note_on_c, 0, 42, 88
1, 247232, Control_c, 0, 64, 0
1, 247266, Note_off_c, 0, 42, 69
1, 247270, Control_c, 0, 64, 75
1, 247271, Note_off_c, 0, 54, 60
1, 247284, Control_c, 0, 64, 107
1, 247299, Control_c, 0, 64, 127
1, 247304, Note_off_c, 0, 90, 66
1, 247312, Note_on_c, 0, 78, 88
1, 247319, Note_off_c, 0, 83, 63
1, 247333, Note_off_c, 0, 78, 66
1, 247383, Note_on_c, 0, 85, 98
1, 247386, Note_on_c, 0, 66, 97
1, 247393, Note_on_c, 0, 58, 93
1, 247401, Note_on_c, 0, 80, 60
1, 247415, Note_on_c, 0, 82, 38
1, 247419, Note_off_c, 0, 66, 70
1, 247422, Note_off_c, 0, 80, 62
1, 247425, Note_on_c, 0, 81, 51
1, 247439, Note_off_c, 0, 58, 64
1, 247445, Note_off_c, 0, 82, 57
1, 247446, Note_off_c, 0, 81, 59
1, 247460, Note_on_c, 0, 73, 91
1, 247474, Note_off_c, 0, 85, 64
1, 247523, Note_off_c, 0, 73, 63
1, 247529, Note_on_c, 0, 81, 77
1, 247529, Note_on_c, 0, 59, 101
1, 247531, Note_on_c, 0, 47, 102
1, 247535, Note_on_c, 0, 87, 99
1, 247549, Note_off_c, 0, 59, 67
1, 247555, Note_on_c, 0, 57, 52
1, 247556, Note_off_c, 0, 57, 127
1, 247564, Note_off_c, 0, 47, 64
1, 247598, Note_on_c, 0, 75, 94
1, 247615, Note_off_c, 0, 81, 61
1, 247622, Note_off_c, 0, 87, 62
1, 247639, Note_off_c, 0, 75, 70
1, 247680, Note_on_c, 0, 52, 108
1, 247683, Note_on_c, 0, 81, 87
1, 247684, Note_on_c, 0, 40, 96
1, 247685, Control_c, 0, 64, 92
1, 247688, Note_on_c, 0, 88, 104
1, 247699, Control_c, 0, 64, 53
1, 247710, Note_off_c, 0, 40, 69
1, 247714, Note_off_c, 0, 52, 70
1, 247714, Control_c, 0, 64, 0
1, 247720, Note_on_c, 0, 86, 40
1, 247729, Control_c, 0, 64, 46
1, 247744, Control_c, 0, 64, 75
1, 247752, Note_on_c, 0, 76, 92
1, 247752, Note_off_c, 0, 88, 63
1, 247758, Note_off_c, 0, 81, 63
1, 247759, Control_c, 0, 64, 98
1, 247764, Note_off_c, 0, 86, 45
1, 247773, Control_c, 0, 64, 127
1, 247794, Note_off_c, 0, 76, 67
1, 247830, Note_on_c, 0, 83, 104
1, 247844, Note_on_c, 0, 56, 92
1, 247845, Note_on_c, 0, 64, 94
1, 247845, Note_on_c, 0, 80, 81
1, 247866, Note_on_c, 0, 82, 39
1, 247873, Note_off_c, 0, 64, 65
1, 247883, Note_off_c, 0, 56, 64
1, 247903, Note_on_c, 0, 71, 86
1, 247906, Note_off_c, 0, 80, 57
1, 247914, Note_off_c, 0, 83, 59
1, 247950, Note_off_c, 0, 71, 62
1, 247963, Note_off_c, 0, 82, 36
1, 247985, Note_on_c, 0, 85, 107
1, 247986, Note_on_c, 0, 58, 115
1, 248000, Note_on_c, 0, 46, 107
1, 248000, Note_on_c, 0, 80, 91
1, 248009, Note_on_c, 0, 82, 58
1, 248013, Note_on_c, 0, 49, 67
1, 248014, Note_off_c, 0, 49, 127
1, 248021, Note_off_c, 0, 46, 68
1, 248022, Note_off_c, 0, 58, 62
1, 248029, Note_off_c, 0, 82, 66
1, 248045, Note_off_c, 0, 80, 60
1, 248074, Note_on_c, 0, 73, 94
1, 248087, Note_off_c, 0, 85, 60
1, 248134, Note_off_c, 0, 73, 63
1, 248137, Control_c, 0, 64, 110
1, 248139, Note_on_c, 0, 80, 95
1, 248144, Note_on_c, 0, 51, 113
1, 248146, Note_on_c, 0, 39, 103
1, 248146, Note_on_c, 0, 87, 103
1, 248152, Control_c, 0, 64, 75
1, 248166, Note_on_c, 0, 42, 58
1, 248167, Note_off_c, 0, 42, 127
1, 248167, Control_c, 0, 64, 0
1, 248175, Note_off_c, 0, 39, 68
1, 248179, Note_off_c, 0, 51, 70
1, 248197, Control_c, 0, 64, 63
1, 248212, Control_c, 0, 64, 103
1, 248215, Note_off_c, 0, 87, 67
1, 248227, Control_c, 0, 64, 127
1, 248229, Note_on_c, 0, 73, 94
1, 248258, Note_off_c, 0, 80, 66
1, 248281, Note_off_c, 0, 73, 54
1, 248298, Note_on_c, 0, 55, 92
1, 248299, Note_on_c, 0, 63, 110
1, 248304, Note_on_c, 0, 82, 97
1, 248311, Note_on_c, 0, 79, 83
1, 248337, Note_off_c, 0, 79, 61
1, 248343, Note_on_c, 0, 83, 44
1, 248343, Note_off_c, 0, 63, 68
1, 248352, Note_off_c, 0, 55, 66
1, 248365, Note_off_c, 0, 82, 60
1, 248384, Note_off_c, 0, 83, 43
1, 248393, Note_on_c, 0, 71, 84
1, 248448, Note_off_c, 0, 71, 50
1, 248449, Note_on_c, 0, 78, 92
1, 248449, Note_on_c, 0, 84, 86
1, 248454, Note_on_c, 0, 56, 99
1, 248461, Note_on_c, 0, 44, 96
1, 248474, Note_on_c, 0, 83, 56
1, 248483, Note_off_c, 0, 44, 69
1, 248484, Note_off_c, 0, 56, 66
1, 248486, Note_on_c, 0, 58, 42
1, 248487, Note_off_c, 0, 58, 127
1, 248495, Note_off_c, 0, 83, 43
1, 248495, Note_on_c, 0, 80, 14
1, 248511, Note_on_c, 0, 46, 12
1, 248517, Note_on_c, 0, 72, 95
1, 248520, Note_off_c, 0, 78, 58
1, 248531, Note_off_c, 0, 84, 60
1, 248534, Note_off_c, 0, 46, 0
1, 248536, Note_off_c, 0, 80, 52
1, 248561, Poly_aftertouch_c, 0, 46, 0
1, 248578, Note_off_c, 0, 72, 63
1, 248583, Control_c, 0, 64, 119
1, 248597, Control_c, 0, 64, 82
1, 248601, Note_on_c, 0, 85, 102
1, 248603, Note_on_c, 0, 78, 98
1, 248610, Note_on_c, 0, 49, 110
1, 248612, Control_c, 0, 64, 0
1, 248613, Note_on_c, 0, 37, 99
1, 248623, Note_on_c, 0, 82, 54
1, 248637, Note_off_c, 0, 37, 72
1, 248641, Control_c, 0, 64, 63
1, 248642, Note_off_c, 0, 49, 66
1, 248645, Note_off_c, 0, 82, 61
1, 248650, Note_on_c, 0, 39, 28
1, 248651, Note_off_c, 0, 39, 127
1, 248656, Control_c, 0, 64, 84
1, 248671, Control_c, 0, 64, 127
1, 248680, Note_off_c, 0, 85, 68
1, 248682, Note_on_c, 0, 73, 90
1, 248694, Poly_aftertouch_c, 0, 48, 127
1, 248712, Note_off_c, 0, 78, 60
1, 248728, Note_off_c, 0, 73, 61
1, 248745, Poly_aftertouch_c, 0, 48, 0
1, 248771, Note_on_c, 0, 80, 100
1, 248778, Note_on_c, 0, 53, 89
1, 248780, Note_on_c, 0, 61, 109
1, 248781, Note_on_c, 0, 77, 86
1, 248826, Note_off_c, 0, 61, 65
1, 248834, Note_off_c, 0, 53, 67
1, 248868, Note_on_c, 0, 68, 94
1, 248876, Note_off_c, 0, 77, 60
1, 248900, Note_off_c, 0, 80, 60
1, 248930, Note_off_c, 0, 68, 63
1, 248953, Note_on_c, 0, 76, 95
1, 248959, Note_on_c, 0, 82, 96
1, 248960, Note_on_c, 0, 54, 112
1, 248967, Note_on_c, 0, 42, 100
1, 248977, Note_on_c, 0, 78, 58
1, 248990, Note_off_c, 0, 42, 70
1, 248993, Note_off_c, 0, 54, 66
1, 248994, Note_off_c, 0, 78, 63
1, 249008, Note_on_c, 0, 83, 35
1, 249033, Note_off_c, 0, 76, 69
1, 249036, Note_on_c, 0, 70, 92
1, 249040, Note_off_c, 0, 83, 34
1, 249070, Poly_aftertouch_c, 0, 44, 0
1, 249081, Note_off_c, 0, 82, 60
1, 249088, Note_off_c, 0, 70, 63
1, 249202, Note_on_c, 0, 71, 99
1, 249202, Note_on_c, 0, 83, 100
1, 249205, Note_on_c, 0, 47, 104
1, 249206, Note_on_c, 0, 75, 103
1, 249209, Note_on_c, 0, 35, 94
1, 249243, Note_on_c, 0, 81, 41
1, 249258, Control_c, 0, 64, 104
1, 249272, Control_c, 0, 64, 65
1, 249287, Control_c, 0, 64, 0
1, 249288, Poly_aftertouch_c, 0, 36, 0
1, 249323, Note_off_c, 0, 81, 29
1, 249346, Control_c, 0, 64, 63
1, 249361, Control_c, 0, 64, 95
1, 249362, Note_off_c, 0, 83, 62
1, 249376, Control_c, 0, 64, 127
1, 249395, Note_off_c, 0, 71, 61
1, 249401, Note_off_c, 0, 75, 66
1, 249441, Note_off_c, 0, 47, 62
1, 249465, Note_off_c, 0, 35, 63
1, 249651, Note_on_c, 0, 59, 109
1, 249852, Note_on_c, 0, 34, 95
1, 249902, Poly_aftertouch_c, 0, 44, 0
1, 249915, Note_off_c, 0, 59, 67
1, 249958, Note_off_c, 0, 34, 65
1, 250006, Note_on_c, 0, 35, 58
1, 250071, Note_off_c, 0, 35, 63
1, 250086, Note_on_c, 0, 47, 75
1, 250130, Note_off_c, 0, 47, 63
1, 250152, Note_on_c, 0, 35, 75
1, 250188, Note_on_c, 0, 59, 113
1, 250229, Note_off_c, 0, 35, 63
1, 250355, Control_c, 0, 64, 113
1, 250369, Control_c, 0, 64, 82
1, 250376, Note_on_c, 0, 34, 99
1, 250384, Control_c, 0, 64, 0
1, 250428, Control_c, 0, 64, 29
1, 250441, Note_off_c, 0, 59, 68
1, 250443, Control_c, 0, 64, 83
1, 250458, Control_c, 0, 64, 127
1, 250535, Note_off_c, 0, 34, 62
1, 250543, Note_on_c, 0, 35, 72
1, 250611, Note_off_c, 0, 35, 62
1, 250625, Note_on_c, 0, 47, 75
1, 250676, Note_off_c, 0, 47, 63
1, 250701, Note_on_c, 0, 35, 77
1, 250726, Note_on_c, 0, 59, 120
1, 250761, Note_off_c, 0, 35, 63
1, 250913, Note_on_c, 0, 34, 102
1, 250933, Control_c, 0, 64, 106
1, 250948, Control_c, 0, 64, 72
1, 250957, Note_off_c, 0, 59, 68
1, 250963, Control_c, 0, 64, 0
1, 250978, Control_c, 0, 64, 34
1, 250999, Control_c, 0, 64, 73
1, 251014, Control_c, 0, 64, 91
1, 251029, Control_c, 0, 64, 127
1, 251073, Note_off_c, 0, 34, 63
1, 251117, Note_on_c, 0, 35, 52
1, 251198, Note_off_c, 0, 35, 57
1, 251211, Note_on_c, 0, 47, 69
1, 251228, Poly_aftertouch_c, 0, 36, 0
1, 251267, Note_on_c, 0, 59, 106
1, 251270, Note_off_c, 0, 47, 58
1, 251324, Note_on_c, 0, 35, 52
1, 251399, Control_c, 0, 67, 8
1, 251415, Control_c, 0, 67, 10
1, 251430, Control_c, 0, 67, 12
1, 251445, Control_c, 0, 67, 14
1, 251459, Control_c, 0, 67, 19
1, 251474, Control_c, 0, 64, 117
1, 251474, Control_c, 0, 67, 26
1, 251489, Control_c, 0, 64, 89
1, 251489, Control_c, 0, 67, 35
1, 251493, Note_off_c, 0, 35, 40
1, 251504, Control_c, 0, 64, 61
1, 251504, Control_c, 0, 67, 47
1, 251519, Control_c, 0, 64, 0
1, 251519, Control_c, 0, 67, 62
1, 251526, Note_on_c, 0, 34, 67
1, 251533, Control_c, 0, 67, 79
1, 251548, Control_c, 0, 67, 97
1, 251563, Control_c, 0, 67, 118
1, 251578, Control_c, 0, 67, 127
1, 251591, Note_off_c, 0, 59, 59
1, 251593, Control_c, 0, 64, 58
1, 251607, Control_c, 0, 64, 82
1, 251622, Control_c, 0, 64, 103
1, 251637, Control_c, 0, 64, 127
1, 251663, Note_off_c, 0, 34, 64
1, 251699, Note_on_c, 0, 35, 58
1, 251785, Note_off_c, 0, 35, 58
1, 251815, Note_on_c, 0, 47, 58
1, 251875, Note_off_c, 0, 47, 56
1, 251929, Note_on_c, 0, 35, 48
1, 251946, Note_on_c, 0, 68, 79
1, 251963, Note_on_c, 0, 57, 53
1, 251966, Note_on_c, 0, 63, 62
1, 252142, Note_off_c, 0, 35, 40
1, 252178, Control_c, 0, 64, 126
1, 252192, Control_c, 0, 64, 103
1, 252209, Control_c, 0, 64, 83
1, 252215, Note_on_c, 0, 34, 35
1, 252224, Control_c, 0, 64, 46
1, 252232, Note_on_c, 0, 59, 45
1, 252238, Control_c, 0, 64, 0
1, 252352, Note_off_c, 0, 57, 33
1, 252373, Note_off_c, 0, 34, 63
1, 252383, Note_on_c, 0, 35, 49
1, 252401, Control_c, 0, 64, 63
1, 252416, Control_c, 0, 64, 78
1, 252430, Control_c, 0, 64, 90
1, 252441, Note_off_c, 0, 68, 62
1, 252444, Note_off_c, 0, 63, 32
1, 252445, Control_c, 0, 64, 97
1, 252457, Note_off_c, 0, 59, 57
1, 252460, Control_c, 0, 64, 100
1, 252475, Control_c, 0, 64, 102
1, 252497, Control_c, 0, 64, 104
1, 252508, Note_on_c, 0, 47, 50
1, 252510, Note_off_c, 0, 35, 37
1, 252512, Control_c, 0, 64, 107
1, 252527, Control_c, 0, 64, 111
1, 252542, Control_c, 0, 64, 115
1, 252557, Control_c, 0, 64, 118
1, 252563, Note_off_c, 0, 47, 61
1, 252571, Control_c, 0, 64, 120
1, 252586, Control_c, 0, 64, 121
1, 252596, Note_on_c, 0, 66, 79
1, 252601, Control_c, 0, 64, 121
1, 252604, Note_on_c, 0, 63, 59
1, 252616, Note_on_c, 0, 57, 54
1, 252629, Note_on_c, 0, 35, 51
1, 252734, Control_c, 0, 64, 120
1, 252749, Control_c, 0, 64, 105
1, 252763, Control_c, 0, 64, 85
1, 252778, Control_c, 0, 64, 52
1, 252780, Note_off_c, 0, 35, 39
1, 252789, Note_on_c, 0, 34, 51
1, 252793, Control_c, 0, 64, 0
1, 252800, Note_on_c, 0, 59, 52
1, 252871, Note_off_c, 0, 63, 54
1, 252874, Note_off_c, 0, 57, 50
1, 252902, Note_off_c, 0, 34, 62
1, 252914, Note_on_c, 0, 35, 49
1, 252927, Control_c, 0, 64, 64
1, 252942, Control_c, 0, 64, 72
1, 252957, Control_c, 0, 64, 79
1, 252971, Control_c, 0, 64, 86
1, 252986, Control_c, 0, 64, 92
1, 253001, Control_c, 0, 64, 96
1, 253006, Note_off_c, 0, 59, 60
1, 253008, Note_off_c, 0, 35, 52
1, 253017, Control_c, 0, 64, 99
1, 253024, Note_on_c, 0, 47, 58
1, 253032, Control_c, 0, 64, 103
1, 253047, Control_c, 0, 64, 109
1, 253061, Control_c, 0, 64, 117
1, 253076, Control_c, 0, 64, 125
1, 253079, Note_off_c, 0, 47, 56
1, 253091, Control_c, 0, 64, 127
1, 253115, Note_off_c, 0, 66, 29
1, 253156, Note_on_c, 0, 35, 51
1, 253163, Note_on_c, 0, 64, 66
1, 253187, Note_on_c, 0, 56, 57
1, 253210, Note_on_c, 0, 47, 34
1, 253277, Note_off_c, 0, 47, 41
1, 253330, Note_off_c, 0, 35, 57
1, 253333, Note_off_c, 0, 64, 63
1, 253336, Note_on_c, 0, 66, 67
1, 253350, Control_c, 0, 64, 121
1, 253365, Control_c, 0, 64, 101
1, 253380, Control_c, 0, 64, 80
1, 253387, Note_on_c, 0, 34, 52
1, 253394, Control_c, 0, 64, 0
1, 253396, Note_on_c, 0, 64, 68
1, 253446, Note_off_c, 0, 66, 58
1, 253453, Control_c, 0, 64, 41
1, 253468, Control_c, 0, 64, 70
1, 253483, Control_c, 0, 64, 84
1, 253498, Control_c, 0, 64, 102
1, 253512, Control_c, 0, 64, 119
1, 253515, Note_on_c, 0, 35, 49
1, 253526, Note_off_c, 0, 34, 53
1, 253527, Control_c, 0, 64, 127
1, 253587, Note_on_c, 0, 63, 79
1, 253625, Note_off_c, 0, 35, 52
1, 253628, Note_on_c, 0, 47, 56
1, 253691, Note_off_c, 0, 56, 35
1, 253693, Note_off_c, 0, 47, 57
1, 253736, Note_on_c, 0, 35, 55
1, 253748, Note_on_c, 0, 61, 81
1, 253914, Control_c, 0, 64, 127
1, 253928, Control_c, 0, 64, 120
1, 253943, Control_c, 0, 64, 108
1, 253950, Note_off_c, 0, 35, 39
1, 253958, Note_on_c, 0, 34, 58
1, 253958, Note_on_c, 0, 55, 76
1, 253958, Control_c, 0, 64, 88
1, 253973, Control_c, 0, 64, 65
1, 253995, Control_c, 0, 64, 0
1, 254071, Note_off_c, 0, 61, 45
1, 254075, Note_off_c, 0, 64, 42
1, 254084, Control_c, 0, 64, 66
1, 254088, Note_off_c, 0, 63, 41
1, 254099, Control_c, 0, 64, 78
1, 254113, Note_off_c, 0, 34, 56
1, 254114, Note_off_c, 0, 55, 65
1, 254114, Control_c, 0, 64, 93
1, 254120, Note_on_c, 0, 35, 54
1, 254129, Control_c, 0, 64, 107
1, 254143, Control_c, 0, 64, 113
1, 254158, Control_c, 0, 64, 115
1, 254173, Control_c, 0, 64, 116
1, 254188, Control_c, 0, 64, 117
1, 254195, Note_off_c, 0, 35, 58
1, 254203, Control_c, 0, 64, 118
1, 254217, Control_c, 0, 64, 119
1, 254232, Control_c, 0, 64, 120
1, 254236, Note_on_c, 0, 47, 53
1, 254247, Control_c, 0, 64, 120
1, 254261, Control_c, 0, 64, 121
1, 254292, Note_off_c, 0, 47, 56
1, 254333, Note_on_c, 0, 35, 54
1, 254335, Note_on_c, 0, 63, 82
1, 254356, Note_on_c, 0, 52, 60
1, 254439, Control_c, 0, 64, 120
1, 254454, Control_c, 0, 64, 119
1, 254468, Control_c, 0, 64, 118
1, 254483, Control_c, 0, 64, 115
1, 254498, Control_c, 0, 64, 113
1, 254513, Note_off_c, 0, 35, 48
1, 254513, Control_c, 0, 64, 109
1, 254528, Control_c, 0, 64, 98
1, 254543, Control_c, 0, 64, 83
1, 254558, Control_c, 0, 64, 64
1, 254563, Note_on_c, 0, 55, 59
1, 254564, Note_on_c, 0, 34, 49
1, 254573, Control_c, 0, 64, 0
1, 254677, Control_c, 0, 64, 61
1, 254687, Note_off_c, 0, 34, 61
1, 254692, Control_c, 0, 64, 74
1, 254698, Note_on_c, 0, 35, 47
1, 254707, Control_c, 0, 64, 84
1, 254722, Control_c, 0, 64, 94
1, 254742, Note_off_c, 0, 52, 58
1, 254745, Control_c, 0, 64, 96
1, 254751, Note_off_c, 0, 63, 65
1, 254760, Control_c, 0, 64, 97
1, 254764, Note_off_c, 0, 55, 61
1, 254774, Control_c, 0, 64, 97
1, 254789, Control_c, 0, 64, 98
1, 254795, Note_off_c, 0, 35, 53
1, 254804, Control_c, 0, 64, 99
1, 254819, Control_c, 0, 64, 101
1, 254820, Note_on_c, 0, 47, 50
1, 254833, Control_c, 0, 64, 104
1, 254848, Control_c, 0, 64, 108
1, 254862, Note_off_c, 0, 47, 48
1, 254863, Control_c, 0, 64, 112
1, 254878, Control_c, 0, 64, 115
1, 254892, Control_c, 0, 64, 117
1, 254907, Control_c, 0, 64, 117
1, 254922, Note_on_c, 0, 35, 35
1, 254922, Control_c, 0, 64, 118
1, 254933, Note_on_c, 0, 61, 75
1, 254957, Note_on_c, 0, 52, 50
1, 255017, Poly_aftertouch_c, 0, 47, 127
1, 255045, Poly_aftertouch_c, 0, 47, 0
1, 255056, Control_c, 0, 64, 117
1, 255071, Control_c, 0, 64, 117
1, 255083, Note_off_c, 0, 35, 49
1, 255085, Control_c, 0, 64, 115
1, 255100, Control_c, 0, 64, 109
1, 255115, Control_c, 0, 64, 93
1, 255130, Control_c, 0, 64, 74
1, 255142, Note_on_c, 0, 34, 43
1, 255145, Control_c, 0, 64, 0
1, 255152, Note_on_c, 0, 55, 57
1, 255223, Note_on_c, 0, 35, 45
1, 255227, Note_off_c, 0, 34, 63
1, 255233, Control_c, 0, 64, 65
1, 255248, Control_c, 0, 64, 74
1, 255263, Control_c, 0, 64, 84
1, 255277, Control_c, 0, 64, 93
1, 255286, Note_off_c, 0, 61, 60
1, 255292, Control_c, 0, 64, 96
1, 255307, Control_c, 0, 64, 96
1, 255312, Note_off_c, 0, 35, 51
1, 255337, Control_c, 0, 64, 97
1, 255351, Control_c, 0, 64, 99
1, 255366, Control_c, 0, 64, 100
1, 255366, Note_on_c, 0, 47, 50
1, 255381, Control_c, 0, 64, 102
1, 255396, Control_c, 0, 64, 104
1, 255411, Control_c, 0, 64, 106
1, 255425, Note_off_c, 0, 47, 57
1, 255425, Control_c, 0, 64, 107
1, 255440, Control_c, 0, 64, 108
1, 255455, Control_c, 0, 64, 108
1, 255465, Note_on_c, 0, 35, 30
1, 255509, Note_off_c, 0, 35, 52
1, 255530, Note_on_c, 0, 59, 68
1, 255554, Note_off_c, 0, 55, 60
1, 255559, Poly_aftertouch_c, 0, 47, 127
1, 255605, Note_on_c, 0, 35, 41
1, 255610, Poly_aftertouch_c, 0, 47, 0
1, 255646, Note_off_c, 0, 35, 61
1, 255656, Note_off_c, 0, 52, 40
1, 255670, Control_c, 0, 64, 107
1, 255685, Control_c, 0, 64, 93
1, 255700, Control_c, 0, 64, 73
1, 255714, Control_c, 0, 64, 0
1, 255744, Note_on_c, 0, 34, 41
1, 255783, Note_on_c, 0, 35, 47
1, 255793, Note_off_c, 0, 34, 64
1, 255804, Control_c, 0, 64, 70
1, 255819, Control_c, 0, 64, 84
1, 255833, Control_c, 0, 64, 104
1, 255848, Control_c, 0, 64, 121
1, 255863, Control_c, 0, 64, 125
1, 255869, Note_off_c, 0, 35, 50
1, 255878, Control_c, 0, 64, 121
1, 255893, Control_c, 0, 64, 103
1, 255907, Control_c, 0, 64, 84
1, 255922, Control_c, 0, 64, 64
1, 255929, Note_on_c, 0, 57, 56
1, 255936, Note_on_c, 0, 47, 44
1, 255937, Control_c, 0, 64, 0
1, 255938, Note_on_c, 0, 54, 48
1, 255952, Control_c, 0, 64, 43
1, 255967, Control_c, 0, 64, 71
1, 255975, Note_off_c, 0, 47, 52
1, 255981, Control_c, 0, 64, 91
1, 255996, Control_c, 0, 64, 127
1, 255998, Note_on_c, 0, 35, 49
1, 256024, Note_off_c, 0, 59, 33
1, 256099, Note_off_c, 0, 54, 34
1, 256110, Note_on_c, 0, 47, 49
1, 256114, Control_c, 0, 64, 96
1, 256129, Control_c, 0, 64, 74
1, 256144, Control_c, 0, 64, 63
1, 256147, Note_on_c, 0, 55, 69
1, 256159, Control_c, 0, 64, 71
1, 256159, Note_on_c, 0, 52, 50
1, 256173, Control_c, 0, 64, 83
1, 256174, Note_off_c, 0, 35, 0
1, 256174, Note_on_c, 0, 35, 5
1, 256181, Note_off_c, 0, 47, 48
1, 256188, Control_c, 0, 64, 107
1, 256203, Control_c, 0, 64, 127
1, 256231, Note_off_c, 0, 52, 64
1, 256280, Note_off_c, 0, 35, 37
1, 256431, Note_on_c, 0, 54, 65
1, 256433, Control_c, 0, 64, 99
1, 256442, Note_on_c, 0, 35, 54
1, 256445, Note_on_c, 0, 47, 56
1, 256448, Control_c, 0, 64, 69
1, 256456, Note_off_c, 0, 57, 39
1, 256457, Note_off_c, 0, 55, 60
1, 256463, Control_c, 0, 64, 0
1, 256507, Note_off_c, 0, 47, 64
1, 256507, Control_c, 0, 64, 60
1, 256522, Control_c, 0, 64, 79
1, 256526, Note_off_c, 0, 35, 61
1, 256537, Control_c, 0, 64, 109
1, 256549, Note_off_c, 0, 54, 63
1, 256552, Control_c, 0, 64, 127
1, 256595, Note_on_c, 0, 42, 56
1, 256648, Note_off_c, 0, 42, 62
1, 256668, Note_on_c, 0, 54, 59
1, 256699, Note_off_c, 0, 54, 62
1, 256729, Control_c, 0, 64, 95
1, 256744, Control_c, 0, 64, 87
1, 256746, Note_on_c, 0, 42, 42
1, 256759, Control_c, 0, 64, 93
1, 256773, Control_c, 0, 64, 112
1, 256779, Note_on_c, 0, 54, 64
1, 256785, Note_off_c, 0, 42, 49
1, 256788, Control_c, 0, 64, 127
1, 256823, Note_on_c, 0, 61, 78
1, 256847, Note_off_c, 0, 54, 62
1, 256878, Note_on_c, 0, 42, 51
1, 256988, Control_c, 0, 64, 115
1, 256999, Note_off_c, 0, 42, 62
1, 257003, Note_on_c, 0, 35, 70
1, 257005, Control_c, 0, 64, 84
1, 257005, Note_on_c, 0, 63, 81
1, 257019, Note_on_c, 0, 57, 60
1, 257020, Control_c, 0, 64, 14
1, 257034, Control_c, 0, 64, 0
1, 257049, Control_c, 0, 64, 45
1, 257060, Note_off_c, 0, 61, 58
1, 257062, Note_off_c, 0, 35, 62
1, 257064, Control_c, 0, 64, 74
1, 257078, Control_c, 0, 64, 100
1, 257093, Control_c, 0, 64, 127
1, 257109, Note_off_c, 0, 57, 59
1, 257110, Note_on_c, 0, 45, 59
1, 257178, Note_on_c, 0, 64, 86
1, 257190, Note_off_c, 0, 45, 63
1, 257214, Note_off_c, 0, 63, 62
1, 257216, Note_on_c, 0, 57, 65
1, 257250, Note_on_c, 0, 45, 55
1, 257253, Note_off_c, 0, 57, 55
1, 257270, Note_off_c, 0, 64, 62
1, 257306, Note_off_c, 0, 45, 62
1, 257323, Note_on_c, 0, 57, 69
1, 257351, Note_on_c, 0, 66, 89
1, 257369, Note_off_c, 0, 57, 62
1, 257401, Note_on_c, 0, 45, 60
1, 257430, Note_off_c, 0, 45, 66
1, 257448, Note_off_c, 0, 66, 65
1, 257538, Control_c, 0, 64, 106
1, 257551, Note_on_c, 0, 68, 91
1, 257552, Control_c, 0, 64, 73
1, 257560, Note_on_c, 0, 35, 68
1, 257563, Note_on_c, 0, 56, 60
1, 257565, Note_on_c, 0, 64, 63
1, 257567, Control_c, 0, 64, 0
1, 257611, Control_c, 0, 64, 40
1, 257626, Note_off_c, 0, 35, 64
1, 257626, Control_c, 0, 64, 78
1, 257641, Control_c, 0, 64, 102
1, 257656, Control_c, 0, 64, 127
1, 257664, Note_off_c, 0, 56, 61
1, 257705, Note_on_c, 0, 44, 58
1, 257765, Note_off_c, 0, 68, 60
1, 257775, Note_off_c, 0, 44, 63
1, 257799, Note_on_c, 0, 56, 61
1, 257822, Note_off_c, 0, 56, 61
1, 257846, Note_on_c, 0, 44, 50
1, 257877, Note_off_c, 0, 44, 63
1, 257898, Note_on_c, 0, 56, 73
1, 257952, Note_on_c, 0, 73, 89
1, 257959, Note_off_c, 0, 56, 63
1, 257971, Note_off_c, 0, 64, 62
1, 257995, Note_on_c, 0, 44, 50
1, 258069, Note_off_c, 0, 73, 59
1, 258091, Note_on_c, 0, 58, 78
1, 258108, Note_off_c, 0, 44, 62
1, 258177, Note_off_c, 0, 58, 63
1, 258182, Note_on_c, 0, 64, 68
1, 258194, Note_on_c, 0, 65, 64
1, 258213, Note_off_c, 0, 65, 62
1, 258314, Note_on_c, 0, 35, 55
1, 258328, Note_on_c, 0, 73, 90
1, 258331, Control_c, 0, 64, 125
1, 258346, Control_c, 0, 64, 102
1, 258361, Control_c, 0, 64, 78
1, 258375, Control_c, 0, 64, 0
1, 258428, Note_off_c, 0, 35, 55
1, 258464, Control_c, 0, 64, 70
1, 258487, Control_c, 0, 64, 81
1, 258501, Control_c, 0, 64, 97
1, 258514, Note_on_c, 0, 43, 55
1, 258516, Control_c, 0, 64, 110
1, 258531, Control_c, 0, 64, 118
1, 258546, Control_c, 0, 64, 122
1, 258560, Control_c, 0, 64, 126
1, 258570, Note_off_c, 0, 43, 58
1, 258575, Control_c, 0, 64, 127
1, 258621, Note_on_c, 0, 55, 46
1, 258650, Note_off_c, 0, 55, 55
1, 258677, Note_on_c, 0, 43, 55
1, 258713, Note_off_c, 0, 43, 59
1, 258728, Note_on_c, 0, 55, 66
1, 258775, Note_off_c, 0, 55, 60
1, 258811, Note_on_c, 0, 43, 52
1, 258872, Control_c, 0, 64, 106
1, 258887, Control_c, 0, 64, 87
1, 258893, Note_off_c, 0, 43, 60
1, 258902, Note_on_c, 0, 35, 65
1, 258902, Control_c, 0, 64, 68
1, 258917, Control_c, 0, 64, 42
1, 258931, Control_c, 0, 64, 63
1, 258940, Note_off_c, 0, 35, 64
1, 258946, Control_c, 0, 64, 74
1, 258961, Control_c, 0, 64, 89
1, 258976, Control_c, 0, 64, 110
1, 258990, Control_c, 0, 64, 127
1, 259002, Note_on_c, 0, 43, 61
1, 259040, Note_off_c, 0, 73, 61
1, 259042, Note_off_c, 0, 64, 55
1, 259047, Note_off_c, 0, 43, 56
1, 259083, Note_on_c, 0, 55, 61
1, 259125, Note_off_c, 0, 55, 56
1, 259152, Note_on_c, 0, 43, 47
1, 259178, Note_off_c, 0, 43, 57
1, 259205, Note_on_c, 0, 55, 65
1, 259252, Note_off_c, 0, 55, 60
1, 259253, Note_on_c, 0, 71, 80
1, 259265, Note_on_c, 0, 64, 56
1, 259275, Note_on_c, 0, 59, 54
1, 259290, Note_on_c, 0, 43, 44
1, 259354, Control_c, 0, 64, 111
1, 259369, Control_c, 0, 64, 90
1, 259383, Control_c, 0, 64, 70
1, 259393, Note_off_c, 0, 43, 59
1, 259398, Control_c, 0, 64, 0
1, 259422, Note_on_c, 0, 35, 62
1, 259429, Control_c, 0, 64, 49
1, 259444, Control_c, 0, 64, 74
1, 259458, Control_c, 0, 64, 92
1, 259468, Note_off_c, 0, 35, 63
1, 259473, Control_c, 0, 64, 125
1, 259488, Control_c, 0, 64, 127
1, 259502, Note_off_c, 0, 59, 58
1, 259511, Note_on_c, 0, 43, 61
1, 259530, Note_off_c, 0, 71, 61
1, 259572, Note_off_c, 0, 43, 58
1, 259602, Note_on_c, 0, 55, 57
1, 259626, Note_off_c, 0, 55, 57
1, 259655, Note_on_c, 0, 43, 61
1, 259703, Note_off_c, 0, 43, 58
1, 259712, Note_on_c, 0, 55, 61
1, 259716, Note_off_c, 0, 64, 0
1, 259732, Note_on_c, 0, 64, 43
1, 259740, Note_on_c, 0, 70, 79
1, 259771, Note_off_c, 0, 55, 62
1, 259771, Note_on_c, 0, 61, 58
1, 259819, Note_on_c, 0, 43, 48
1, 259845, Note_off_c, 0, 64, 63
1, 259861, Note_off_c, 0, 70, 61
1, 259865, Note_off_c, 0, 43, 52
1, 259885, Note_off_c, 0, 61, 58
1, 259962, Note_on_c, 0, 35, 57
1, 259984, Control_c, 0, 64, 114
1, 259994, Note_on_c, 0, 73, 76
1, 259998, Control_c, 0, 64, 88
1, 260006, Note_on_c, 0, 61, 66
1, 260006, Note_on_c, 0, 63, 66
1, 260013, Control_c, 0, 64, 66
1, 260028, Control_c, 0, 64, 0
1, 260058, Control_c, 0, 64, 23
1, 260059, Poly_aftertouch_c, 0, 67, 0
1, 260072, Note_off_c, 0, 35, 52
1, 260073, Control_c, 0, 64, 71
1, 260087, Control_c, 0, 64, 89
1, 260102, Control_c, 0, 64, 114
1, 260112, Note_on_c, 0, 42, 64
1, 260117, Control_c, 0, 64, 127
1, 260141, Note_off_c, 0, 61, 60
1, 260153, Note_off_c, 0, 73, 62
1, 260156, Note_off_c, 0, 42, 65
1, 260225, Note_on_c, 0, 54, 57
1, 260269, Note_off_c, 0, 54, 63
1, 260312, Note_on_c, 0, 53, 55
1, 260342, Note_off_c, 0, 63, 59
1, 260345, Note_on_c, 0, 71, 71
1, 260365, Note_on_c, 0, 59, 47
1, 260387, Note_on_c, 0, 52, 50
1, 260397, Note_off_c, 0, 53, 63
1, 260448, Note_off_c, 0, 71, 60
1, 260458, Note_off_c, 0, 59, 61
1, 260463, Note_off_c, 0, 52, 66
1, 260469, Note_on_c, 0, 51, 73
1, 260518, Control_c, 0, 64, 93
1, 260521, Note_off_c, 0, 51, 63
1, 260533, Control_c, 0, 64, 0
1, 260535, Note_on_c, 0, 50, 79
1, 260597, Note_off_c, 0, 50, 62
1, 260604, Note_on_c, 0, 49, 79
1, 260663, Note_off_c, 0, 49, 63
1, 260682, Note_on_c, 0, 48, 77
1, 260752, Note_off_c, 0, 48, 62
1, 260770, Note_on_c, 0, 47, 65
1, 260825, Note_off_c, 0, 47, 63
1, 260851, Note_on_c, 0, 60, 65
1, 260861, Note_on_c, 0, 46, 68
1, 260922, Note_off_c, 0, 46, 61
1, 260955, Note_on_c, 0, 45, 57
1, 261000, Note_off_c, 0, 45, 60
1, 261028, Note_on_c, 0, 44, 59
1, 261074, Control_c, 0, 64, 45
1, 261088, Note_off_c, 0, 44, 62
1, 261089, Control_c, 0, 64, 61
1, 261104, Control_c, 0, 64, 65
1, 261119, Control_c, 0, 64, 67
1, 261126, Note_on_c, 0, 43, 50
1, 261134, Control_c, 0, 64, 71
1, 261148, Note_off_c, 0, 60, 63
1, 261149, Control_c, 0, 64, 77
1, 261164, Control_c, 0, 64, 84
1, 261167, Note_off_c, 0, 43, 60
1, 261178, Control_c, 0, 64, 91
1, 261193, Control_c, 0, 64, 95
1, 261197, Note_on_c, 0, 42, 47
1, 261208, Control_c, 0, 64, 99
1, 261223, Control_c, 0, 64, 102
1, 261238, Control_c, 0, 64, 105
1, 261245, Note_off_c, 0, 42, 63
1, 261252, Control_c, 0, 64, 107
1, 261267, Control_c, 0, 64, 108
1, 261282, Control_c, 0, 64, 109
1, 261287, Note_on_c, 0, 41, 51
1, 261297, Control_c, 0, 64, 110
1, 261312, Control_c, 0, 64, 111
1, 261326, Control_c, 0, 64, 111
1, 261367, Note_off_c, 0, 41, 60
1, 261383, Note_on_c, 0, 69, 75
1, 261402, Note_on_c, 0, 58, 52
1, 261414, Note_on_c, 0, 40, 43
1, 261431, Control_c, 0, 64, 111
1, 261483, Control_c, 0, 64, 109
1, 261490, Note_off_c, 0, 40, 62
1, 261497, Control_c, 0, 64, 108
1, 261503, Note_on_c, 0, 39, 58
1, 261512, Control_c, 0, 64, 104
1, 261527, Control_c, 0, 64, 95
1, 261542, Control_c, 0, 64, 82
1, 261557, Control_c, 0, 64, 65
1, 261566, Note_off_c, 0, 39, 61
1, 261571, Control_c, 0, 64, 0
1, 261605, Note_on_c, 0, 60, 64
1, 261608, Note_on_c, 0, 38, 52
1, 261624, Note_off_c, 0, 58, 52
1, 261631, Control_c, 0, 64, 64
1, 261645, Control_c, 0, 64, 72
1, 261660, Control_c, 0, 64, 82
1, 261668, Note_off_c, 0, 38, 58
1, 261675, Control_c, 0, 64, 92
1, 261682, Note_off_c, 0, 69, 64
1, 261690, Control_c, 0, 64, 99
1, 261702, Note_on_c, 0, 37, 51
1, 261705, Control_c, 0, 64, 103
1, 261719, Control_c, 0, 64, 106
1, 261729, Poly_aftertouch_c, 0, 67, 0
1, 261734, Control_c, 0, 64, 108
1, 261749, Control_c, 0, 64, 111
1, 261764, Control_c, 0, 64, 113
1, 261775, Note_off_c, 0, 37, 61
1, 261778, Note_off_c, 0, 60, 61
1, 261778, Control_c, 0, 64, 117
1, 261795, Control_c, 0, 64, 120
1, 261804, Note_on_c, 0, 36, 48
1, 261810, Control_c, 0, 64, 127
1, 261824, Control_c, 0, 64, 127
1, 261842, Note_off_c, 0, 36, 62
1, 261872, Note_on_c, 0, 35, 52
1, 261971, Note_on_c, 0, 67, 78
1, 261991, Note_on_c, 0, 58, 51
1, 262013, Note_on_c, 0, 38, 38
1, 262034, Note_off_c, 0, 35, 36
1, 262046, Control_c, 0, 64, 126
1, 262061, Control_c, 0, 64, 122
1, 262070, Note_off_c, 0, 38, 47
1, 262076, Control_c, 0, 64, 119
1, 262090, Control_c, 0, 64, 115
1, 262105, Control_c, 0, 64, 114
1, 262114, Note_on_c, 0, 36, 45
1, 262120, Control_c, 0, 64, 112
1, 262135, Control_c, 0, 64, 108
1, 262149, Control_c, 0, 64, 100
1, 262164, Control_c, 0, 64, 88
1, 262179, Control_c, 0, 64, 71
1, 262189, Note_off_c, 0, 36, 58
1, 262193, Control_c, 0, 64, 0
1, 262198, Note_on_c, 0, 60, 61
1, 262231, Note_on_c, 0, 35, 54
1, 262290, Control_c, 0, 64, 66
1, 262296, Note_off_c, 0, 58, 38
1, 262305, Control_c, 0, 64, 74
1, 262314, Note_off_c, 0, 35, 60
1, 262320, Control_c, 0, 64, 85
1, 262335, Note_on_c, 0, 36, 52
1, 262335, Control_c, 0, 64, 94
1, 262349, Control_c, 0, 64, 100
1, 262353, Note_off_c, 0, 60, 61
1, 262356, Note_off_c, 0, 67, 60
1, 262364, Control_c, 0, 64, 104
1, 262379, Control_c, 0, 64, 110
1, 262393, Control_c, 0, 64, 122
1, 262402, Note_off_c, 0, 36, 61
1, 262408, Control_c, 0, 64, 127
1, 262438, Note_on_c, 0, 48, 56
1, 262489, Note_off_c, 0, 48, 55
1, 262532, Note_on_c, 0, 36, 49
1, 262571, Note_off_c, 0, 36, 60
1, 262582, Note_on_c, 0, 65, 69
1, 262592, Note_on_c, 0, 48, 62
1, 262606, Note_on_c, 0, 57, 52
1, 262716, Note_on_c, 0, 36, 20
1, 262720, Note_off_c, 0, 65, 64
1, 262729, Note_on_c, 0, 67, 68
1, 262750, Control_c, 0, 64, 106
1, 262764, Note_off_c, 0, 36, 46
1, 262764, Control_c, 0, 64, 88
1, 262770, Note_off_c, 0, 48, 42
1, 262779, Control_c, 0, 64, 72
1, 262792, Note_on_c, 0, 35, 59
1, 262793, Note_on_c, 0, 65, 71
1, 262794, Control_c, 0, 64, 58
1, 262809, Control_c, 0, 64, 59
1, 262824, Control_c, 0, 64, 67
1, 262839, Control_c, 0, 64, 76
1, 262848, Note_off_c, 0, 67, 50
1, 262854, Control_c, 0, 64, 88
1, 262869, Control_c, 0, 64, 102
1, 262884, Control_c, 0, 64, 110
1, 262895, Note_on_c, 0, 36, 53
1, 262898, Control_c, 0, 64, 114
1, 262913, Control_c, 0, 64, 114
1, 262958, Control_c, 0, 64, 115
1, 262964, Note_off_c, 0, 35, 42
1, 262972, Note_on_c, 0, 64, 80
1, 262979, Note_off_c, 0, 36, 60
1, 262990, Note_off_c, 0, 57, 60
1, 262994, Control_c, 0, 64, 115
1, 263000, Note_on_c, 0, 48, 62
1, 263078, Note_off_c, 0, 48, 52
1, 263106, Note_on_c, 0, 36, 59
1, 263141, Note_on_c, 0, 62, 84
1, 263179, Note_on_c, 0, 48, 41
1, 263198, Note_off_c, 0, 64, 52
1, 263236, Note_off_c, 0, 65, 34
1, 263276, Control_c, 0, 64, 115
1, 263288, Note_off_c, 0, 48, 35
1, 263304, Note_off_c, 0, 36, 40
1, 263305, Control_c, 0, 64, 114
1, 263320, Control_c, 0, 64, 110
1, 263322, Note_on_c, 0, 56, 71
1, 263334, Note_on_c, 0, 35, 60
1, 263335, Control_c, 0, 64, 98
1, 263349, Control_c, 0, 64, 81
1, 263364, Control_c, 0, 64, 37
1, 263379, Control_c, 0, 64, 0
1, 263399, Note_off_c, 0, 62, 61
1, 263439, Control_c, 0, 64, 48
1, 263450, Note_on_c, 0, 36, 51
1, 263454, Control_c, 0, 64, 73
1, 263462, Note_off_c, 0, 56, 65
1, 263464, Note_off_c, 0, 35, 52
1, 263469, Control_c, 0, 64, 89
1, 263484, Control_c, 0, 64, 117
1, 263499, Control_c, 0, 64, 127
1, 263527, Note_off_c, 0, 36, 62
1, 263560, Note_on_c, 0, 48, 60
1, 263602, Note_off_c, 0, 48, 62
1, 263657, Note_on_c, 0, 36, 56
1, 263689, Note_on_c, 0, 64, 74
1, 263694, Note_on_c, 0, 60, 74
1, 263703, Note_on_c, 0, 53, 60
1, 263745, Note_on_c, 0, 48, 28
1, 263772, Note_off_c, 0, 36, 49
1, 263811, Note_off_c, 0, 48, 36
1, 263874, Note_on_c, 0, 35, 50
1, 263906, Note_on_c, 0, 56, 66
1, 263936, Control_c, 0, 64, 102
1, 263951, Control_c, 0, 64, 80
1, 263965, Control_c, 0, 64, 0
1, 263992, Note_on_c, 0, 36, 53
1, 264025, Control_c, 0, 64, 53
1, 264032, Note_off_c, 0, 64, 66
1, 264040, Control_c, 0, 64, 73
1, 264041, Note_off_c, 0, 35, 38
1, 264055, Control_c, 0, 64, 89
1, 264062, Note_off_c, 0, 60, 59
1, 264070, Control_c, 0, 64, 116
1, 264071, Note_off_c, 0, 36, 58
1, 264073, Note_off_c, 0, 53, 62
1, 264085, Control_c, 0, 64, 127
1, 264094, Note_off_c, 0, 56, 64
1, 264101, Note_on_c, 0, 48, 66
1, 264170, Note_off_c, 0, 48, 49
1, 264196, Note_on_c, 0, 36, 63
1, 264247, Note_on_c, 0, 62, 79
1, 264256, Note_on_c, 0, 59, 69
1, 264261, Note_on_c, 0, 53, 64
1, 264269, Note_off_c, 0, 36, 61
1, 264272, Note_on_c, 0, 48, 49
1, 264378, Note_off_c, 0, 48, 36
1, 264396, Note_on_c, 0, 36, 5
1, 264432, Note_off_c, 0, 36, 53
1, 264469, Note_on_c, 0, 56, 70
1, 264471, Note_on_c, 0, 35, 63
1, 264493, Control_c, 0, 64, 100
1, 264508, Control_c, 0, 64, 77
1, 264523, Control_c, 0, 64, 0
1, 264580, Note_on_c, 0, 36, 48
1, 264591, Note_off_c, 0, 35, 57
1, 264612, Note_off_c, 0, 62, 61
1, 264612, Control_c, 0, 64, 64
1, 264621, Note_off_c, 0, 59, 60
1, 264627, Control_c, 0, 64, 77
1, 264642, Control_c, 0, 64, 93
1, 264654, Note_off_c, 0, 36, 60
1, 264657, Control_c, 0, 64, 109
1, 264671, Control_c, 0, 64, 117
1, 264686, Control_c, 0, 64, 119
1, 264687, Note_on_c, 0, 48, 60
1, 264716, Control_c, 0, 64, 120
1, 264740, Note_off_c, 0, 48, 61
1, 264745, Control_c, 0, 64, 120
1, 264775, Control_c, 0, 64, 121
1, 264785, Note_on_c, 0, 36, 51
1, 264790, Control_c, 0, 64, 121
1, 264804, Control_c, 0, 64, 122
1, 264827, Note_off_c, 0, 36, 61
1, 264847, Note_on_c, 0, 60, 74
1, 264857, Note_on_c, 0, 48, 59
1, 264889, Note_off_c, 0, 56, 57
1, 264907, Note_off_c, 0, 48, 57
1, 264920, Note_off_c, 0, 53, 56
1, 264939, Note_on_c, 0, 36, 43
1, 264981, Note_off_c, 0, 36, 60
1, 264998, Control_c, 0, 64, 122
1, 265013, Control_c, 0, 64, 113
1, 265027, Control_c, 0, 64, 96
1, 265042, Control_c, 0, 64, 74
1, 265046, Note_on_c, 0, 35, 60
1, 265057, Control_c, 0, 64, 0
1, 265149, Note_on_c, 0, 36, 45
1, 265183, Note_off_c, 0, 35, 37
1, 265206, Control_c, 0, 64, 63
1, 265227, Control_c, 0, 64, 72
1, 265242, Control_c, 0, 64, 76
1, 265257, Control_c, 0, 64, 81
1, 265268, Note_on_c, 0, 58, 68
1, 265271, Note_on_c, 0, 48, 56
1, 265272, Control_c, 0, 64, 84
1, 265283, Note_off_c, 0, 36, 47
1, 265286, Note_on_c, 0, 55, 52
1, 265287, Control_c, 0, 64, 88
1, 265301, Control_c, 0, 64, 91
1, 265316, Control_c, 0, 64, 95
1, 265331, Control_c, 0, 64, 100
1, 265346, Control_c, 0, 64, 106
1, 265361, Control_c, 0, 64, 113
1, 265369, Note_off_c, 0, 48, 54
1, 265376, Control_c, 0, 64, 120
1, 265390, Control_c, 0, 64, 125
1, 265394, Note_off_c, 0, 60, 37
1, 265405, Control_c, 0, 64, 127
1, 265408, Note_on_c, 0, 36, 53
1, 265468, Note_off_c, 0, 55, 64
1, 265487, Note_off_c, 0, 36, 61
1, 265502, Note_on_c, 0, 48, 26
1, 265504, Note_on_c, 0, 56, 67
1, 265508, Note_on_c, 0, 53, 64
1, 265539, Note_off_c, 0, 48, 55
1, 265572, Note_off_c, 0, 53, 64
1, 265716, Control_c, 0, 64, 119
1, 265731, Control_c, 0, 64, 104
1, 265745, Control_c, 0, 64, 88
1, 265760, Control_c, 0, 64, 70
1, 265767, Note_on_c, 0, 55, 65
1, 265768, Note_on_c, 0, 36, 47
1, 265775, Control_c, 0, 64, 0
1, 265784, Note_on_c, 0, 48, 55
1, 265787, Note_off_c, 0, 58, 40
1, 265788, Note_off_c, 0, 56, 54
1, 265835, Control_c, 0, 64, 68
1, 265850, Control_c, 0, 64, 80
1, 265863, Note_off_c, 0, 48, 65
1, 265864, Control_c, 0, 64, 97
1, 265879, Control_c, 0, 64, 115
1, 265885, Note_off_c, 0, 36, 54
1, 265894, Control_c, 0, 64, 127
1, 265918, Note_off_c, 0, 55, 65
1, 265943, Note_on_c, 0, 43, 58
1, 266003, Note_off_c, 0, 43, 57
1, 266043, Note_on_c, 0, 55, 66
1, 266085, Note_off_c, 0, 55, 59
1, 266117, Note_on_c, 0, 43, 53
1, 266163, Note_off_c, 0, 43, 58
1, 266174, Note_on_c, 0, 55, 53
1, 266189, Note_on_c, 0, 62, 75
1, 266207, Note_off_c, 0, 55, 51
1, 266222, Note_on_c, 0, 53, 17
1, 266264, Note_on_c, 0, 43, 46
1, 266264, Note_off_c, 0, 53, 41
1, 266302, Control_c, 0, 64, 105
1, 266307, Note_off_c, 0, 43, 57
1, 266316, Control_c, 0, 64, 88
1, 266331, Control_c, 0, 64, 69
1, 266346, Control_c, 0, 64, 0
1, 266356, Note_on_c, 0, 36, 66
1, 266362, Note_on_c, 0, 64, 81
1, 266375, Control_c, 0, 64, 66
1, 266382, Note_on_c, 0, 61, 56
1, 266389, Note_off_c, 0, 62, 60
1, 266390, Control_c, 0, 64, 82
1, 266394, Note_off_c, 0, 36, 67
1, 266405, Control_c, 0, 64, 110
1, 266420, Control_c, 0, 64, 127
1, 266453, Note_off_c, 0, 61, 61
1, 266493, Note_on_c, 0, 46, 67
1, 266529, Note_on_c, 0, 65, 90
1, 266535, Note_off_c, 0, 64, 62
1, 266561, Note_on_c, 0, 58, 77
1, 266562, Note_off_c, 0, 46, 61
1, 266615, Note_off_c, 0, 58, 63
1, 266642, Note_on_c, 0, 46, 51
1, 266675, Note_off_c, 0, 46, 62
1, 266684, Note_on_c, 0, 67, 88
1, 266687, Note_on_c, 0, 58, 69
1, 266706, Note_off_c, 0, 65, 64
1, 266738, Note_off_c, 0, 67, 64
1, 266741, Note_off_c, 0, 58, 65
1, 266765, Note_on_c, 0, 46, 77
1, 266879, Note_off_c, 0, 46, 60
1, 266920, Note_on_c, 0, 69, 90
1, 266935, Note_on_c, 0, 60, 66
1, 266935, Note_on_c, 0, 66, 71
1, 266938, Note_on_c, 0, 36, 67
1, 266961, Control_c, 0, 64, 113
1, 266976, Control_c, 0, 64, 90
1, 266991, Control_c, 0, 64, 70
1, 267006, Control_c, 0, 64, 0
1, 267033, Note_off_c, 0, 36, 61
1, 267051, Control_c, 0, 64, 67
1, 267065, Control_c, 0, 64, 82
1, 267075, Note_off_c, 0, 60, 57
1, 267077, Note_on_c, 0, 45, 66
1, 267080, Control_c, 0, 64, 105
1, 267095, Control_c, 0, 64, 127
1, 267128, Note_off_c, 0, 66, 63
1, 267158, Note_off_c, 0, 45, 62
1, 267168, Note_on_c, 0, 57, 75
1, 267213, Note_off_c, 0, 57, 60
1, 267218, Note_on_c, 0, 45, 61
1, 267250, Note_off_c, 0, 69, 63
1, 267272, Note_off_c, 0, 45, 62
1, 267289, Note_on_c, 0, 57, 65
1, 267296, Note_on_c, 0, 74, 94
1, 267328, Note_off_c, 0, 57, 61
1, 267364, Note_off_c, 0, 74, 59
1, 267455, Note_on_c, 0, 59, 72
1, 267528, Note_on_c, 0, 65, 81
1, 267563, Note_off_c, 0, 59, 63
1, 267643, Note_on_c, 0, 36, 59
1, 267653, Note_on_c, 0, 74, 87
1, 267696, Control_c, 0, 64, 118
1, 267711, Control_c, 0, 64, 98
1, 267726, Control_c, 0, 64, 77
1, 267741, Control_c, 0, 64, 0
1, 267760, Note_off_c, 0, 36, 52
1, 267800, Control_c, 0, 64, 69
1, 267814, Control_c, 0, 64, 83
1, 267816, Note_on_c, 0, 44, 53
1, 267829, Control_c, 0, 64, 102
1, 267844, Control_c, 0, 64, 127
1, 267898, Note_off_c, 0, 44, 62
1, 267927, Note_on_c, 0, 56, 55
1, 267962, Note_off_c, 0, 56, 63
1, 268008, Note_on_c, 0, 44, 33
1, 268043, Note_off_c, 0, 44, 49
1, 268046, Note_on_c, 0, 56, 63
1, 268079, Note_off_c, 0, 56, 63
1, 268126, Note_on_c, 0, 44, 56
1, 268225, Note_on_c, 0, 36, 68
1, 268226, Note_off_c, 0, 44, 62
1, 268270, Note_off_c, 0, 36, 61
1, 268295, Note_off_c, 0, 74, 56
1, 268311, Note_off_c, 0, 65, 59
1, 268327, Note_on_c, 0, 44, 53
1, 268395, Note_off_c, 0, 44, 61
1, 268414, Note_on_c, 0, 56, 53
1, 268441, Note_off_c, 0, 56, 58
1, 268455, Note_on_c, 0, 44, 61
1, 268513, Note_off_c, 0, 44, 59
1, 268529, Note_on_c, 0, 56, 65
1, 268559, Note_on_c, 0, 72, 83
1, 268573, Note_off_c, 0, 56, 63
1, 268574, Note_on_c, 0, 65, 62
1, 268578, Note_on_c, 0, 60, 62
1, 268638, Note_on_c, 0, 44, 53
1, 268742, Note_on_c, 0, 36, 65
1, 268753, Note_off_c, 0, 44, 60
1, 268801, Note_off_c, 0, 36, 61
1, 268833, Note_off_c, 0, 60, 60
1, 268847, Note_on_c, 0, 44, 56
1, 268860, Note_off_c, 0, 72, 60
1, 268903, Note_off_c, 0, 44, 61
1, 268907, Note_off_c, 0, 65, 59
1, 268920, Note_on_c, 0, 56, 71
1, 268979, Note_on_c, 0, 44, 65
1, 268984, Note_off_c, 0, 56, 61
1, 269033, Note_on_c, 0, 71, 74
1, 269037, Note_on_c, 0, 65, 65
1, 269040, Note_on_c, 0, 61, 68
1, 269043, Note_off_c, 0, 44, 62
1, 269056, Note_on_c, 0, 56, 62
1, 269082, Note_off_c, 0, 56, 66
1, 269148, Note_off_c, 0, 61, 59
1, 269155, Note_off_c, 0, 71, 55
1, 269165, Note_on_c, 0, 44, 58
1, 269235, Note_off_c, 0, 65, 38
1, 269263, Note_off_c, 0, 44, 54
1, 269266, Control_c, 0, 64, 114
1, 269281, Control_c, 0, 64, 90
1, 269286, Note_on_c, 0, 65, 47
1, 269288, Note_on_c, 0, 71, 69
1, 269291, Note_on_c, 0, 36, 59
1, 269296, Control_c, 0, 64, 66
1, 269297, Note_on_c, 0, 60, 66
1, 269311, Control_c, 0, 64, 0
1, 269355, Control_c, 0, 64, 65
1, 269370, Control_c, 0, 64, 82
1, 269377, Note_off_c, 0, 60, 57
1, 269385, Control_c, 0, 64, 104
1, 269385, Control_c, 0, 67, 121
1, 269400, Control_c, 0, 64, 127
1, 269400, Control_c, 0, 67, 107
1, 269412, Note_off_c, 0, 36, 62
1, 269415, Control_c, 0, 67, 90
1, 269430, Control_c, 0, 67, 71
1, 269431, Note_on_c, 0, 43, 67
1, 269445, Control_c, 0, 67, 53
1, 269459, Control_c, 0, 67, 37
1, 269462, Note_off_c, 0, 43, 62
1, 269474, Control_c, 0, 67, 23
1, 269489, Control_c, 0, 67, 15
1, 269504, Control_c, 0, 67, 10
1, 269519, Control_c, 0, 67, 8
1, 269533, Control_c, 0, 67, 0
1, 269552, Note_on_c, 0, 55, 71
1, 269554, Note_on_c, 0, 72, 74
1, 269570, Note_on_c, 0, 64, 65
1, 269600, Note_off_c, 0, 65, 56
1, 269629, Note_off_c, 0, 55, 61
1, 269632, Note_on_c, 0, 54, 73
1, 269706, Note_off_c, 0, 54, 62
1, 269707, Note_off_c, 0, 72, 63
1, 269719, Note_on_c, 0, 53, 82
1, 269723, Note_off_c, 0, 64, 63
1, 269733, Note_off_c, 0, 71, 42
1, 269785, Note_on_c, 0, 52, 83
1, 269785, Note_off_c, 0, 53, 67
1, 269851, Note_off_c, 0, 52, 65
1, 269853, Note_on_c, 0, 51, 80
1, 269853, Control_c, 0, 64, 93
1, 269853, Control_c, 0, 67, 15
1, 269868, Control_c, 0, 64, 0
1, 269868, Control_c, 0, 67, 27
1, 269882, Control_c, 0, 67, 51
1, 269897, Control_c, 0, 67, 81
1, 269912, Control_c, 0, 67, 117
1, 269913, Note_off_c, 0, 51, 63
1, 269917, Note_on_c, 0, 50, 82
1, 269927, Control_c, 0, 67, 127
1, 269981, Note_off_c, 0, 50, 59
1, 269996, Note_on_c, 0, 49, 71
1, 270045, Note_off_c, 0, 49, 64
1, 270073, Note_on_c, 0, 48, 62
1, 270126, Note_off_c, 0, 48, 60
1, 270160, Note_on_c, 0, 47, 57
1, 270184, Note_on_c, 0, 62, 63
1, 270221, Note_off_c, 0, 47, 64
1, 270246, Note_on_c, 0, 46, 64
1, 270313, Note_off_c, 0, 46, 62
1, 270334, Note_on_c, 0, 45, 62
1, 270356, Control_c, 0, 64, 48
1, 270371, Control_c, 0, 64, 59
1, 270386, Control_c, 0, 64, 62
1, 270395, Note_off_c, 0, 45, 60
1, 270401, Control_c, 0, 64, 63
1, 270415, Control_c, 0, 64, 65
1, 270422, Note_on_c, 0, 44, 53
1, 270430, Control_c, 0, 64, 67
1, 270445, Control_c, 0, 64, 70
1, 270467, Control_c, 0, 64, 74
1, 270482, Control_c, 0, 64, 80
1, 270485, Note_off_c, 0, 44, 60
1, 270497, Control_c, 0, 64, 85
1, 270512, Control_c, 0, 64, 90
1, 270524, Note_on_c, 0, 43, 56
1, 270527, Control_c, 0, 64, 94
1, 270541, Control_c, 0, 64, 98
1, 270556, Control_c, 0, 64, 101
1, 270564, Note_off_c, 0, 62, 56
1, 270565, Note_off_c, 0, 43, 59
1, 270571, Control_c, 0, 64, 105
1, 270586, Control_c, 0, 64, 107
1, 270592, Note_on_c, 0, 42, 57
1, 270601, Control_c, 0, 64, 109
1, 270616, Control_c, 0, 64, 111
1, 270631, Control_c, 0, 64, 113
1, 270646, Control_c, 0, 64, 114
1, 270652, Note_off_c, 0, 42, 61
1, 270661, Control_c, 0, 64, 115
1, 270691, Note_on_c, 0, 70, 66
1, 270697, Note_on_c, 0, 41, 50
1, 270697, Note_on_c, 0, 66, 59
1, 270708, Note_on_c, 0, 60, 48
1, 270759, Note_off_c, 0, 41, 63
1, 270792, Note_on_c, 0, 40, 56
1, 270838, Control_c, 0, 64, 115
1, 270853, Control_c, 0, 64, 113
1, 270854, Note_off_c, 0, 40, 62
1, 270868, Control_c, 0, 64, 109
1, 270883, Control_c, 0, 64, 101
1, 270890, Note_on_c, 0, 39, 57
1, 270898, Control_c, 0, 64, 84
1, 270899, Note_on_c, 0, 62, 63
1, 270912, Control_c, 0, 64, 66
1, 270927, Control_c, 0, 64, 0
1, 270944, Note_off_c, 0, 39, 63
1, 270986, Note_on_c, 0, 38, 55
1, 270986, Control_c, 0, 64, 60
1, 271001, Control_c, 0, 64, 69
1, 271016, Control_c, 0, 64, 77
1, 271030, Control_c, 0, 64, 87
1, 271045, Control_c, 0, 64, 94
1, 271049, Note_off_c, 0, 38, 61
1, 271060, Control_c, 0, 64, 97
1, 271076, Note_off_c, 0, 66, 22
1, 271076, Control_c, 0, 64, 98
1, 271078, Note_on_c, 0, 37, 54
1, 271079, Note_off_c, 0, 60, 49
1, 271091, Control_c, 0, 64, 99
1, 271099, Note_off_c, 0, 70, 62
1, 271105, Control_c, 0, 64, 100
1, 271120, Control_c, 0, 64, 102
1, 271122, Note_off_c, 0, 62, 57
1, 271135, Control_c, 0, 64, 104
1, 271138, Note_off_c, 0, 37, 61
1, 271150, Control_c, 0, 64, 105
1, 271165, Control_c, 0, 64, 106
1, 271175, Note_on_c, 0, 38, 52
1, 271179, Control_c, 0, 64, 108
1, 271194, Control_c, 0, 64, 111
1, 271217, Control_c, 0, 64, 112
1, 271231, Control_c, 0, 64, 113
1, 271246, Control_c, 0, 64, 114
1, 271248, Note_off_c, 0, 38, 61
1, 271254, Note_on_c, 0, 69, 71
1, 271266, Note_on_c, 0, 66, 55
1, 271269, Note_on_c, 0, 60, 49
1, 271275, Note_on_c, 0, 39, 51
1, 271291, Control_c, 0, 64, 114
1, 271343, Note_off_c, 0, 39, 61
1, 271371, Note_on_c, 0, 38, 46
1, 271425, Control_c, 0, 64, 114
1, 271432, Note_off_c, 0, 38, 58
1, 271484, Control_c, 0, 64, 111
1, 271489, Note_on_c, 0, 37, 52
1, 271499, Control_c, 0, 64, 101
1, 271501, Note_on_c, 0, 62, 63
1, 271514, Control_c, 0, 64, 86
1, 271529, Control_c, 0, 64, 68
1, 271543, Control_c, 0, 64, 0
1, 271588, Control_c, 0, 64, 52
1, 271600, Note_off_c, 0, 37, 64
1, 271603, Control_c, 0, 64, 71
1, 271618, Control_c, 0, 64, 84
1, 271623, Note_on_c, 0, 38, 58
1, 271630, Note_off_c, 0, 66, 38
1, 271633, Control_c, 0, 64, 99
1, 271643, Note_off_c, 0, 60, 59
1, 271647, Control_c, 0, 64, 110
1, 271662, Control_c, 0, 64, 117
1, 271677, Control_c, 0, 64, 120
1, 271685, Note_off_c, 0, 69, 59
1, 271692, Control_c, 0, 64, 126
1, 271697, Note_off_c, 0, 38, 59
1, 271707, Note_off_c, 0, 62, 59
1, 271707, Control_c, 0, 64, 127
1, 271723, Note_on_c, 0, 50, 55
1, 271760, Note_off_c, 0, 50, 62
1, 271808, Note_on_c, 0, 38, 56
1, 271842, Note_on_c, 0, 67, 71
1, 271860, Note_on_c, 0, 58, 56
1, 271863, Note_on_c, 0, 62, 45
1, 271864, Note_off_c, 0, 38, 57
1, 271879, Note_on_c, 0, 50, 56
1, 271919, Note_off_c, 0, 62, 45
1, 271931, Note_off_c, 0, 50, 60
1, 271966, Note_off_c, 0, 58, 62
1, 271968, Note_off_c, 0, 67, 61
1, 271998, Note_on_c, 0, 69, 66
1, 272023, Note_on_c, 0, 38, 16
1, 272057, Note_off_c, 0, 38, 48
1, 272058, Note_on_c, 0, 37, 68
1, 272071, Note_on_c, 0, 67, 80
1, 272093, Note_off_c, 0, 69, 65
1, 272127, Note_off_c, 0, 67, 60
1, 272171, Note_off_c, 0, 37, 65
1, 272214, Note_on_c, 0, 38, 56
1, 272245, Note_on_c, 0, 57, 63
1, 272247, Note_on_c, 0, 64, 55
1, 272258, Note_on_c, 0, 60, 40
1, 272263, Note_on_c, 0, 65, 60
1, 272282, Note_off_c, 0, 57, 58
1, 272287, Note_off_c, 0, 60, 47
1, 272297, Note_off_c, 0, 38, 57
1, 272311, Note_off_c, 0, 65, 58
1, 272323, Note_on_c, 0, 50, 56
1, 272325, Note_off_c, 0, 64, 53
1, 272383, Note_off_c, 0, 50, 56
1, 272403, Note_on_c, 0, 63, 76
1, 272411, Note_on_c, 0, 55, 60
1, 272414, Note_on_c, 0, 38, 72
1, 272446, Note_on_c, 0, 58, 25
1, 272454, Note_off_c, 0, 55, 64
1, 272483, Note_off_c, 0, 58, 49
1, 272492, Note_off_c, 0, 63, 62
1, 272497, Note_on_c, 0, 50, 47
1, 272521, Note_off_c, 0, 50, 56
1, 272569, Note_off_c, 0, 38, 26
1, 272592, Note_on_c, 0, 62, 72
1, 272602, Note_on_c, 0, 54, 63
1, 272609, Note_on_c, 0, 37, 66
1, 272613, Note_on_c, 0, 60, 64
1, 272647, Control_c, 0, 64, 118
1, 272662, Control_c, 0, 64, 93
1, 272676, Control_c, 0, 64, 69
1, 272691, Control_c, 0, 64, 0
1, 272744, Note_off_c, 0, 37, 65
1, 272758, Control_c, 0, 64, 67
1, 272766, Note_on_c, 0, 38, 61
1, 272773, Control_c, 0, 64, 84
1, 272788, Control_c, 0, 64, 112
1, 272802, Control_c, 0, 64, 127
1, 272843, Note_off_c, 0, 62, 57
1, 272845, Note_off_c, 0, 38, 61
1, 272849, Note_off_c, 0, 54, 61
1, 272866, Note_on_c, 0, 50, 59
1, 272905, Note_off_c, 0, 50, 58
1, 272905, Note_off_c, 0, 60, 37
1, 272943, Note_on_c, 0, 38, 61
1, 272947, Note_on_c, 0, 64, 80
1, 272953, Note_on_c, 0, 55, 72
1, 272959, Note_on_c, 0, 60, 48
1, 273011, Note_on_c, 0, 50, 65
1, 273015, Note_off_c, 0, 55, 60
1, 273031, Note_off_c, 0, 64, 63
1, 273070, Note_off_c, 0, 50, 56
1, 273100, Note_off_c, 0, 38, 56
1, 273105, Note_off_c, 0, 60, 0
1, 273108, Note_on_c, 0, 43, 6
1, 273114, Control_c, 0, 67, 127
1, 273118, Note_on_c, 0, 60, 42
1, 273124, Note_on_c, 0, 66, 89
1, 273129, Control_c, 0, 64, 123
1, 273129, Control_c, 0, 67, 124
1, 273135, Note_on_c, 0, 57, 73
1, 273141, Note_on_c, 0, 37, 75
1, 273144, Control_c, 0, 64, 121
1, 273144, Control_c, 0, 67, 121
1, 273159, Control_c, 0, 67, 117
1, 273174, Control_c, 0, 67, 112
1, 273175, Note_off_c, 0, 60, 63
1, 273176, Note_off_c, 0, 43, 42
1, 273187, Note_off_c, 0, 57, 64
1, 273189, Control_c, 0, 64, 127
1, 273189, Control_c, 0, 67, 108
1, 273203, Control_c, 0, 67, 102
1, 273206, Note_off_c, 0, 66, 64
1, 273218, Note_off_c, 0, 37, 65
1, 273218, Control_c, 0, 67, 96
1, 273233, Control_c, 0, 67, 90
1, 273248, Control_c, 0, 67, 85
1, 273263, Control_c, 0, 67, 80
1, 273272, Note_on_c, 0, 38, 61
1, 273278, Control_c, 0, 67, 73
1, 273281, Note_on_c, 0, 67, 82
1, 273293, Control_c, 0, 67, 66
1, 273293, Note_on_c, 0, 62, 77
1, 273296, Note_on_c, 0, 58, 77
1, 273307, Control_c, 0, 67, 59
1, 273322, Control_c, 0, 67, 52
1, 273335, Note_off_c, 0, 38, 57
1, 273336, Note_on_c, 0, 50, 67
1, 273337, Control_c, 0, 67, 47
1, 273347, Note_off_c, 0, 58, 64
1, 273350, Note_off_c, 0, 62, 61
1, 273351, Control_c, 0, 67, 42
1, 273366, Control_c, 0, 67, 37
1, 273378, Note_off_c, 0, 67, 60
1, 273381, Control_c, 0, 67, 30
1, 273396, Control_c, 0, 67, 22
1, 273402, Note_off_c, 0, 50, 60
1, 273411, Control_c, 0, 67, 15
1, 273425, Control_c, 0, 67, 0
1, 273442, Note_on_c, 0, 38, 71
1, 273443, Note_on_c, 0, 69, 91
1, 273456, Note_on_c, 0, 60, 83
1, 273460, Note_on_c, 0, 66, 78
1, 273507, Note_off_c, 0, 60, 62
1, 273522, Note_on_c, 0, 50, 20
1, 273525, Note_off_c, 0, 69, 63
1, 273550, Note_off_c, 0, 66, 55
1, 273564, Note_off_c, 0, 50, 39
1, 273631, Note_off_c, 0, 38, 37
1, 273640, Poly_aftertouch_c, 0, 43, 127
1, 273646, Note_on_c, 0, 37, 61
1, 273654, Note_on_c, 0, 58, 83
1, 273655, Control_c, 0, 64, 127
1, 273656, Note_on_c, 0, 70, 91
1, 273657, Note_on_c, 0, 67, 73
1, 273670, Control_c, 0, 64, 100
1, 273685, Control_c, 0, 64, 82
1, 273700, Control_c, 0, 64, 65
1, 273714, Control_c, 0, 64, 0
1, 273720, Poly_aftertouch_c, 0, 43, 0
1, 273744, Control_c, 0, 64, 67
1, 273758, Note_off_c, 0, 37, 65
1, 273758, Control_c, 0, 64, 81
1, 273763, Note_off_c, 0, 58, 66
1, 273774, Control_c, 0, 64, 103
1, 273776, Note_off_c, 0, 67, 63
1, 273785, Note_on_c, 0, 38, 63
1, 273789, Control_c, 0, 64, 127
1, 273791, Note_off_c, 0, 70, 63
1, 273859, Note_off_c, 0, 38, 62
1, 273880, Note_on_c, 0, 50, 68
1, 273921, Note_off_c, 0, 50, 56
1, 273945, Note_on_c, 0, 38, 63
1, 274018, Note_on_c, 0, 75, 91
1, 274020, Note_on_c, 0, 50, 67
1, 274026, Note_on_c, 0, 63, 89
1, 274026, Note_on_c, 0, 72, 75
1, 274034, Note_off_c, 0, 38, 0
1, 274053, Note_off_c, 0, 50, 59
1, 274062, Note_on_c, 0, 38, 38
1, 274112, Note_off_c, 0, 72, 62
1, 274138, Poly_aftertouch_c, 0, 43, 127
1, 274141, Note_off_c, 0, 63, 65
1, 274156, Note_off_c, 0, 75, 62
1, 274165, Note_off_c, 0, 38, 62
1, 274238, Note_on_c, 0, 37, 63
1, 274256, Note_on_c, 0, 74, 93
1, 274261, Note_on_c, 0, 70, 78
1, 274264, Note_on_c, 0, 62, 83
1, 274286, Control_c, 0, 64, 102
1, 274301, Control_c, 0, 64, 83
1, 274316, Control_c, 0, 64, 66
1, 274330, Control_c, 0, 64, 36
1, 274338, Poly_aftertouch_c, 0, 43, 0
1, 274345, Control_c, 0, 64, 65
1, 274353, Note_off_c, 0, 37, 65
1, 274360, Control_c, 0, 64, 75
1, 274373, Note_on_c, 0, 38, 66
1, 274375, Control_c, 0, 64, 91
1, 274390, Control_c, 0, 64, 114
1, 274405, Control_c, 0, 64, 127
1, 274432, Note_off_c, 0, 74, 63
1, 274450, Note_off_c, 0, 62, 60
1, 274469, Note_off_c, 0, 70, 61
1, 274476, Note_off_c, 0, 38, 57
1, 274479, Note_on_c, 0, 50, 71
1, 274524, Note_off_c, 0, 50, 62
1, 274542, Note_on_c, 0, 38, 73
1, 274604, Poly_aftertouch_c, 0, 43, 127
1, 274658, Note_on_c, 0, 73, 88
1, 274664, Note_on_c, 0, 67, 80
1, 274673, Note_on_c, 0, 61, 80
1, 274682, Note_on_c, 0, 51, 74
1, 274693, Note_off_c, 0, 38, 60
1, 274702, Control_c, 0, 64, 107
1, 274717, Control_c, 0, 64, 85
1, 274732, Control_c, 0, 64, 62
1, 274746, Control_c, 0, 64, 0
1, 274761, Control_c, 0, 64, 52
1, 274767, Note_off_c, 0, 67, 63
1, 274776, Control_c, 0, 64, 71
1, 274791, Control_c, 0, 64, 87
1, 274799, Note_on_c, 0, 39, 75
1, 274804, Note_off_c, 0, 51, 58
1, 274805, Control_c, 0, 64, 114
1, 274820, Control_c, 0, 64, 127
1, 274864, Poly_aftertouch_c, 0, 43, 0
1, 274919, Note_on_c, 0, 63, 84
1, 274934, Note_off_c, 0, 39, 39
1, 274954, Note_on_c, 0, 38, 74
1, 274961, Control_c, 0, 64, 103
1, 274976, Control_c, 0, 64, 82
1, 274991, Control_c, 0, 64, 61
1, 275005, Note_off_c, 0, 73, 64
1, 275005, Control_c, 0, 64, 0
1, 275020, Control_c, 0, 64, 62
1, 275035, Control_c, 0, 64, 78
1, 275047, Note_off_c, 0, 61, 64
1, 275050, Control_c, 0, 64, 103
1, 275061, Note_off_c, 0, 63, 64
1, 275065, Note_on_c, 0, 39, 72
1, 275065, Control_c, 0, 64, 127
1, 275094, Note_off_c, 0, 38, 59
1, 275134, Note_on_c, 0, 51, 67
1, 275138, Note_off_c, 0, 39, 61
1, 275197, Note_on_c, 0, 39, 67
1, 275206, Note_off_c, 0, 51, 61
1, 275273, Note_on_c, 0, 51, 55
1, 275281, Note_on_c, 0, 72, 93
1, 275283, Note_on_c, 0, 67, 83
1, 275287, Note_on_c, 0, 61, 89
1, 275289, Note_off_c, 0, 39, 60
1, 275341, Note_on_c, 0, 70, 4
1, 275345, Note_off_c, 0, 51, 55
1, 275391, Note_off_c, 0, 70, 37
1, 275395, Note_on_c, 0, 39, 52
1, 275448, Note_off_c, 0, 39, 52
1, 275490, Note_on_c, 0, 38, 86
1, 275490, Note_on_c, 0, 63, 83
1, 275510, Control_c, 0, 64, 119
1, 275525, Control_c, 0, 64, 93
1, 275540, Control_c, 0, 64, 78
1, 275554, Control_c, 0, 64, 75
1, 275555, Note_off_c, 0, 72, 59
1, 275569, Control_c, 0, 64, 80
1, 275584, Control_c, 0, 64, 94
1, 275587, Note_on_c, 0, 39, 73
1, 275591, Note_off_c, 0, 61, 60
1, 275592, Note_off_c, 0, 67, 56
1, 275599, Control_c, 0, 64, 117
1, 275614, Control_c, 0, 64, 127
1, 275618, Note_off_c, 0, 63, 64
1, 275626, Note_off_c, 0, 38, 60
1, 275666, Note_on_c, 0, 51, 70
1, 275669, Poly_aftertouch_c, 0, 43, 127
1, 275674, Note_off_c, 0, 39, 62
1, 275737, Note_off_c, 0, 51, 58
1, 275743, Note_on_c, 0, 39, 67
1, 275820, Note_on_c, 0, 67, 74
1, 275820, Note_on_c, 0, 70, 91
1, 275821, Note_off_c, 0, 39, 60
1, 275833, Note_on_c, 0, 61, 85
1, 275834, Note_on_c, 0, 51, 72
1, 275892, Note_off_c, 0, 51, 57
1, 275914, Note_on_c, 0, 39, 61
1, 275921, Poly_aftertouch_c, 0, 43, 0
1, 275994, Note_off_c, 0, 39, 62
1, 276020, Control_c, 0, 64, 101
1, 276032, Note_on_c, 0, 63, 88
1, 276032, Note_on_c, 0, 38, 81
1, 276035, Control_c, 0, 64, 78
1, 276050, Control_c, 0, 64, 0
1, 276092, Note_off_c, 0, 67, 58
1, 276095, Control_c, 0, 64, 66
1, 276110, Control_c, 0, 64, 87
1, 276125, Control_c, 0, 64, 118
1, 276129, Note_off_c, 0, 70, 57
1, 276135, Note_on_c, 0, 39, 75
1, 276140, Control_c, 0, 64, 127
1, 276157, Note_off_c, 0, 61, 59
1, 276171, Note_off_c, 0, 38, 61
1, 276175, Note_off_c, 0, 63, 64
1, 276216, Note_on_c, 0, 51, 72
1, 276223, Note_off_c, 0, 39, 61
1, 276281, Note_on_c, 0, 39, 65
1, 276288, Note_off_c, 0, 51, 62
1, 276342, Note_on_c, 0, 68, 94
1, 276348, Note_on_c, 0, 60, 82
1, 276351, Note_on_c, 0, 63, 77
1, 276366, Note_off_c, 0, 39, 60
1, 276375, Note_on_c, 0, 51, 67
1, 276464, Note_on_c, 0, 39, 50
1, 276470, Note_off_c, 0, 51, 50
1, 276479, Note_off_c, 0, 68, 61
1, 276488, Note_on_c, 0, 70, 77
1, 276493, Note_off_c, 0, 63, 65
1, 276504, Note_off_c, 0, 39, 62
1, 276536, Note_off_c, 0, 60, 0
1, 276547, Control_c, 0, 64, 98
1, 276554, Note_on_c, 0, 68, 93
1, 276555, Note_on_c, 0, 38, 84
1, 276562, Control_c, 0, 64, 75
1, 276573, Poly_aftertouch_c, 0, 60, 127
1, 276576, Control_c, 0, 64, 35
1, 276590, Poly_aftertouch_c, 0, 60, 0
1, 276591, Control_c, 0, 64, 45
1, 276602, Note_off_c, 0, 70, 63
1, 276606, Control_c, 0, 64, 68
1, 276621, Control_c, 0, 64, 81
1, 276636, Control_c, 0, 64, 108
1, 276644, Note_off_c, 0, 68, 60
1, 276650, Note_on_c, 0, 39, 75
1, 276650, Control_c, 0, 64, 127
1, 276685, Note_off_c, 0, 38, 61
1, 276728, Note_on_c, 0, 67, 93
1, 276734, Note_off_c, 0, 39, 62
1, 276737, Note_on_c, 0, 51, 79
1, 276739, Note_on_c, 0, 61, 79
1, 276740, Note_on_c, 0, 58, 84
1, 276780, Poly_aftertouch_c, 0, 43, 127
1, 276809, Note_off_c, 0, 51, 59
1, 276815, Note_off_c, 0, 67, 62
1, 276821, Note_on_c, 0, 39, 74
1, 276848, Note_off_c, 0, 58, 62
1, 276901, Note_off_c, 0, 39, 60
1, 276902, Note_on_c, 0, 51, 75
1, 276903, Note_off_c, 0, 61, 59
1, 276962, Note_off_c, 0, 51, 59
1, 276965, Note_on_c, 0, 65, 86
1, 276971, Note_on_c, 0, 56, 79
1, 276987, Note_on_c, 0, 39, 67
1, 277010, Poly_aftertouch_c, 0, 43, 0
1, 277016, Note_off_c, 0, 56, 64
1, 277026, Note_off_c, 0, 65, 65
1, 277037, Note_off_c, 0, 39, 59
1, 277067, Note_on_c, 0, 63, 95
1, 277070, Note_on_c, 0, 55, 91
1, 277073, Note_on_c, 0, 61, 93
1, 277083, Note_on_c, 0, 38, 82
1, 277126, Control_c, 0, 64, 108
1, 277141, Control_c, 0, 64, 79
1, 277156, Control_c, 0, 64, 0
1, 277203, Note_on_c, 0, 39, 72
1, 277207, Control_c, 0, 64, 68
1, 277222, Control_c, 0, 64, 99
1, 277227, Note_off_c, 0, 38, 63
1, 277237, Control_c, 0, 64, 127
1, 277268, Note_on_c, 0, 51, 71
1, 277277, Note_off_c, 0, 39, 62
1, 277310, Note_off_c, 0, 55, 60
1, 277332, Note_off_c, 0, 51, 60
1, 277344, Note_off_c, 0, 63, 61
1, 277347, Note_off_c, 0, 61, 57
1, 277348, Note_on_c, 0, 39, 64
1, 277411, Note_on_c, 0, 65, 90
1, 277419, Note_on_c, 0, 56, 87
1, 277424, Note_off_c, 0, 39, 61
1, 277428, Note_on_c, 0, 51, 73
1, 277480, Note_off_c, 0, 51, 56
1, 277482, Note_on_c, 0, 39, 63
1, 277520, Note_off_c, 0, 56, 61
1, 277544, Note_off_c, 0, 65, 61
1, 277560, Note_off_c, 0, 39, 61
1, 277592, Control_c, 0, 64, 90
1, 277595, Note_on_c, 0, 58, 97
1, 277595, Note_on_c, 0, 63, 58
1, 277595, Note_on_c, 0, 67, 97
1, 277605, Note_on_c, 0, 38, 82
1, 277607, Control_c, 0, 64, 66
1, 277610, Note_on_c, 0, 61, 82
1, 277622, Control_c, 0, 64, 0
1, 277637, Control_c, 0, 64, 11
1, 277646, Note_off_c, 0, 63, 62
1, 277652, Control_c, 0, 64, 69
1, 277666, Control_c, 0, 64, 86
1, 277681, Control_c, 0, 64, 117
1, 277690, Note_off_c, 0, 58, 63
1, 277690, Note_off_c, 0, 67, 65
1, 277696, Control_c, 0, 64, 127
1, 277711, Note_on_c, 0, 39, 75
1, 277717, Note_off_c, 0, 61, 62
1, 277720, Note_off_c, 0, 38, 61
1, 277772, Note_on_c, 0, 68, 103
1, 277774, Note_on_c, 0, 60, 97
1, 277784, Note_on_c, 0, 51, 75
1, 277785, Note_on_c, 0, 66, 74
1, 277787, Note_off_c, 0, 39, 60
1, 277839, Note_off_c, 0, 66, 57
1, 277843, Note_off_c, 0, 60, 63
1, 277855, Note_on_c, 0, 39, 70
1, 277858, Note_off_c, 0, 51, 59
1, 277860, Note_off_c, 0, 68, 62
1, 277928, Note_on_c, 0, 68, 52
1, 277935, Note_on_c, 0, 51, 73
1, 277946, Note_off_c, 0, 39, 60
1, 277967, Note_off_c, 0, 68, 67
1, 278017, Note_on_c, 0, 70, 96
1, 278018, Note_on_c, 0, 61, 90
1, 278035, Note_off_c, 0, 51, 47
1, 278038, Note_on_c, 0, 67, 48
1, 278056, Note_off_c, 0, 70, 66
1, 278062, Note_off_c, 0, 67, 56
1, 278063, Note_off_c, 0, 61, 64
1, 278095, Note_on_c, 0, 38, 85
1, 278110, Note_on_c, 0, 60, 106
1, 278110, Note_on_c, 0, 72, 100
1, 278119, Control_c, 0, 64, 105
1, 278122, Note_on_c, 0, 68, 85
1, 278134, Control_c, 0, 64, 82
1, 278149, Control_c, 0, 64, 69
1, 278164, Control_c, 0, 64, 68
1, 278169, Note_off_c, 0, 60, 64
1, 278179, Control_c, 0, 64, 79
1, 278188, Note_off_c, 0, 68, 67
1, 278190, Note_off_c, 0, 72, 70
1, 278193, Control_c, 0, 64, 104
1, 278208, Control_c, 0, 64, 127
1, 278220, Note_on_c, 0, 39, 77
1, 278242, Note_off_c, 0, 38, 59
1, 278298, Note_on_c, 0, 51, 71
1, 278302, Note_off_c, 0, 39, 61
1, 278358, Note_off_c, 0, 51, 57
1, 278362, Note_on_c, 0, 39, 69
1, 278443, Note_on_c, 0, 77, 99
1, 278448, Note_on_c, 0, 65, 102
1, 278452, Note_on_c, 0, 73, 91
1, 278458, Note_on_c, 0, 51, 78
1, 278458, Note_off_c, 0, 39, 58
1, 278498, Note_off_c, 0, 65, 68
1, 278509, Note_off_c, 0, 73, 64
1, 278515, Note_off_c, 0, 77, 62
1, 278532, Note_on_c, 0, 39, 61
1, 278536, Note_off_c, 0, 51, 60
1, 278640, Note_off_c, 0, 39, 61
1, 278679, Note_on_c, 0, 75, 106
1, 278679, Note_on_c, 0, 63, 104
1, 278687, Note_on_c, 0, 38, 88
1, 278687, Note_on_c, 0, 72, 86
1, 278706, Control_c, 0, 64, 94
1, 278720, Control_c, 0, 64, 66
1, 278735, Control_c, 0, 64, 0
1, 278765, Control_c, 0, 64, 67
1, 278779, Control_c, 0, 64, 89
1, 278794, Note_off_c, 0, 75, 60
1, 278794, Control_c, 0, 64, 127
1, 278804, Note_on_c, 0, 39, 80
1, 278806, Note_off_c, 0, 63, 64
1, 278808, Note_off_c, 0, 72, 63
1, 278834, Note_off_c, 0, 38, 62
1, 278867, Note_on_c, 0, 51, 82
1, 278880, Note_off_c, 0, 39, 63
1, 278942, Note_off_c, 0, 51, 60
1, 278948, Note_on_c, 0, 39, 69
1, 279001, Poly_aftertouch_c, 0, 43, 127
1, 279007, Note_off_c, 0, 39, 59
1, 279011, Note_on_c, 0, 51, 74
1, 279033, Note_on_c, 0, 74, 103
1, 279034, Note_on_c, 0, 62, 103
1, 279038, Note_on_c, 0, 71, 85
1, 279062, Note_on_c, 0, 72, 58
1, 279064, Note_off_c, 0, 51, 63
1, 279076, Note_on_c, 0, 39, 82
1, 279098, Note_off_c, 0, 72, 44
1, 279103, Poly_aftertouch_c, 0, 43, 0
1, 279135, Note_off_c, 0, 39, 63
1, 279224, Control_c, 0, 64, 102
1, 279239, Control_c, 0, 64, 72
1, 279241, Note_on_c, 0, 27, 105
1, 279253, Control_c, 0, 64, 0
1, 279264, Note_off_c, 0, 27, 73
1, 279283, Control_c, 0, 64, 57
1, 279288, Note_on_c, 0, 28, 29
1, 279297, Control_c, 0, 64, 79
1, 279312, Control_c, 0, 64, 127
1, 279323, Note_off_c, 0, 74, 63
1, 279326, Note_off_c, 0, 62, 60
1, 279326, Note_on_c, 0, 27, 28
1, 279338, Note_off_c, 0, 28, 37
1, 279339, Note_off_c, 0, 71, 49
1, 279360, Note_off_c, 0, 27, 47
1, 279457, Note_on_c, 0, 56, 76
1, 279533, Note_on_c, 0, 58, 68
1, 279538, Note_off_c, 0, 56, 53
1, 279578, Note_on_c, 0, 63, 76
1, 279580, Note_on_c, 0, 75, 79
1, 279592, Note_off_c, 0, 58, 63
1, 279592, Note_on_c, 0, 72, 65
1, 279598, Note_on_c, 0, 59, 69
1, 279656, Note_off_c, 0, 72, 63
1, 279657, Note_off_c, 0, 63, 64
1, 279663, Note_on_c, 0, 58, 65
1, 279663, Note_off_c, 0, 59, 58
1, 279675, Note_off_c, 0, 75, 64
1, 279720, Note_on_c, 0, 56, 60
1, 279751, Note_off_c, 0, 58, 58
1, 279755, Note_on_c, 0, 64, 77
1, 279756, Note_on_c, 0, 76, 83
1, 279757, Note_on_c, 0, 73, 76
1, 279779, Note_off_c, 0, 56, 58
1, 279787, Note_on_c, 0, 51, 75
1, 279839, Note_off_c, 0, 76, 67
1, 279845, Note_off_c, 0, 64, 58
1, 279849, Note_off_c, 0, 73, 61
1, 279871, Note_on_c, 0, 56, 71
1, 279896, Note_off_c, 0, 51, 57
1, 279905, Note_on_c, 0, 77, 96
1, 279908, Note_on_c, 0, 74, 80
1, 279909, Note_on_c, 0, 65, 84
1, 279936, Note_on_c, 0, 58, 75
1, 279963, Note_off_c, 0, 56, 61
1, 279976, Note_off_c, 0, 65, 66
1, 279985, Note_off_c, 0, 77, 61
1, 279989, Note_off_c, 0, 74, 62
1, 279994, Note_on_c, 0, 59, 74
1, 279997, Note_off_c, 0, 58, 64
1, 280040, Note_on_c, 0, 58, 60
1, 280054, Note_on_c, 0, 66, 100
1, 280057, Note_on_c, 0, 78, 98
1, 280064, Note_off_c, 0, 59, 62
1, 280065, Note_on_c, 0, 75, 78
1, 280074, Note_on_c, 0, 56, 81
1, 280090, Note_off_c, 0, 58, 64
1, 280115, Note_off_c, 0, 56, 66
1, 280166, Note_off_c, 0, 66, 64
1, 280170, Note_off_c, 0, 78, 64
1, 280195, Note_off_c, 0, 75, 58
1, 280218, Control_c, 0, 64, 113
1, 280229, Note_on_c, 0, 79, 101
1, 280231, Note_on_c, 0, 39, 95
1, 280231, Note_on_c, 0, 67, 99
1, 280232, Control_c, 0, 64, 81
1, 280234, Note_on_c, 0, 76, 84
1, 280247, Control_c, 0, 64, 0
1, 280268, Note_on_c, 0, 77, 47
1, 280277, Control_c, 0, 64, 64
1, 280292, Note_off_c, 0, 39, 63
1, 280292, Control_c, 0, 64, 80
1, 280293, Note_off_c, 0, 77, 53
1, 280307, Control_c, 0, 64, 108
1, 280322, Control_c, 0, 64, 127
1, 280368, Note_off_c, 0, 79, 60
1, 280396, Note_on_c, 0, 56, 83
1, 280405, Note_off_c, 0, 67, 59
1, 280417, Note_off_c, 0, 76, 60
1, 280476, Note_on_c, 0, 58, 79
1, 280489, Note_off_c, 0, 56, 56
1, 280517, Note_on_c, 0, 68, 99
1, 280522, Note_on_c, 0, 80, 93
1, 280522, Note_on_c, 0, 77, 84
1, 280533, Note_off_c, 0, 58, 64
1, 280533, Note_on_c, 0, 78, 79
1, 280535, Note_on_c, 0, 59, 81
1, 280561, Note_off_c, 0, 78, 51
1, 280593, Note_off_c, 0, 77, 59
1, 280602, Note_off_c, 0, 68, 65
1, 280608, Note_on_c, 0, 58, 84
1, 280612, Note_off_c, 0, 59, 59
1, 280615, Note_off_c, 0, 80, 64
1, 280671, Note_on_c, 0, 56, 69
1, 280675, Note_on_c, 0, 81, 104
1, 280677, Note_on_c, 0, 69, 103
1, 280683, Note_on_c, 0, 78, 87
1, 280694, Note_off_c, 0, 58, 64
1, 280708, Note_on_c, 0, 51, 79
1, 280720, Note_off_c, 0, 56, 64
1, 280757, Note_off_c, 0, 81, 62
1, 280760, Note_off_c, 0, 69, 62
1, 280781, Note_on_c, 0, 56, 77
1, 280807, Note_off_c, 0, 51, 61
1, 280811, Note_off_c, 0, 78, 55
1, 280831, Note_on_c, 0, 70, 102
1, 280832, Note_on_c, 0, 82, 101
1, 280833, Note_on_c, 0, 79, 74
1, 280858, Note_on_c, 0, 59, 77
1, 280859, Note_on_c, 0, 58, 67
1, 280862, Note_off_c, 0, 56, 64
1, 280906, Note_off_c, 0, 79, 62
1, 280918, Note_off_c, 0, 70, 63
1, 280922, Note_off_c, 0, 59, 64
1, 280924, Note_off_c, 0, 82, 63
1, 280960, Note_on_c, 0, 56, 53
1, 280966, Note_off_c, 0, 58, 69
1, 280998, Note_off_c, 0, 56, 63
1, 281046, Note_on_c, 0, 71, 94
1, 281046, Note_on_c, 0, 83, 91
1, 281049, Note_on_c, 0, 80, 89
1, 281082, Note_off_c, 0, 83, 64
1, 281085, Note_off_c, 0, 71, 65
1, 281097, Note_off_c, 0, 80, 65
1, 281114, Control_c, 0, 64, 93
1, 281129, Control_c, 0, 64, 65
1, 281135, Note_on_c, 0, 83, 104
1, 281137, Note_on_c, 0, 71, 100
1, 281137, Note_on_c, 0, 80, 84
1, 281139, Note_on_c, 0, 51, 97
1, 281141, Note_on_c, 0, 39, 91
1, 281144, Control_c, 0, 64, 0
1, 281173, Control_c, 0, 64, 72
1, 281188, Control_c, 0, 64, 95
1, 281192, Note_off_c, 0, 51, 58
1, 281195, Note_off_c, 0, 39, 63
1, 281203, Control_c, 0, 64, 127
1, 281217, Note_off_c, 0, 83, 63
1, 281227, Note_off_c, 0, 71, 61
1, 281233, Note_off_c, 0, 80, 67
1, 281314, Note_on_c, 0, 56, 76
1, 281355, Note_on_c, 0, 65, 99
1, 281356, Note_on_c, 0, 77, 95
1, 281362, Note_on_c, 0, 74, 80
1, 281395, Note_on_c, 0, 58, 76
1, 281407, Note_off_c, 0, 77, 62
1, 281408, Note_off_c, 0, 65, 66
1, 281426, Note_off_c, 0, 56, 58
1, 281433, Note_off_c, 0, 74, 63
1, 281467, Note_off_c, 0, 58, 64
1, 281477, Note_on_c, 0, 59, 79
1, 281508, Note_on_c, 0, 66, 104
1, 281510, Note_on_c, 0, 78, 99
1, 281514, Note_on_c, 0, 75, 86
1, 281540, Note_on_c, 0, 58, 80
1, 281553, Note_off_c, 0, 59, 54
1, 281590, Note_off_c, 0, 66, 65
1, 281601, Note_off_c, 0, 78, 64
1, 281606, Note_on_c, 0, 56, 72
1, 281620, Note_off_c, 0, 75, 58
1, 281627, Note_off_c, 0, 58, 55
1, 281663, Note_on_c, 0, 51, 79
1, 281666, Note_on_c, 0, 67, 98
1, 281666, Note_on_c, 0, 79, 98
1, 281671, Note_on_c, 0, 76, 83
1, 281673, Note_off_c, 0, 56, 62
1, 281736, Note_on_c, 0, 56, 66
1, 281742, Note_off_c, 0, 79, 64
1, 281743, Note_off_c, 0, 67, 62
1, 281771, Note_off_c, 0, 76, 63
1, 281780, Note_off_c, 0, 51, 56
1, 281806, Note_on_c, 0, 58, 76
1, 281819, Note_on_c, 0, 68, 106
1, 281821, Note_on_c, 0, 80, 101
1, 281822, Note_on_c, 0, 77, 75
1, 281826, Note_off_c, 0, 56, 64
1, 281839, Note_on_c, 0, 59, 74
1, 281857, Note_off_c, 0, 58, 64
1, 281895, Note_off_c, 0, 77, 61
1, 281899, Note_off_c, 0, 68, 66
1, 281905, Note_on_c, 0, 58, 72
1, 281906, Note_off_c, 0, 80, 65
1, 281926, Note_off_c, 0, 59, 62
1, 281933, Note_on_c, 0, 56, 83
1, 281967, Note_off_c, 0, 58, 64
1, 281968, Note_on_c, 0, 81, 102
1, 281971, Note_on_c, 0, 69, 100
1, 281976, Note_on_c, 0, 78, 89
1, 281983, Note_off_c, 0, 56, 66
1, 282048, Note_off_c, 0, 81, 64
1, 282049, Note_off_c, 0, 69, 65
1, 282085, Control_c, 0, 64, 110
1, 282090, Note_off_c, 0, 78, 61
1, 282100, Control_c, 0, 64, 77
1, 282106, Note_on_c, 0, 39, 96
1, 282107, Note_on_c, 0, 51, 98
1, 282115, Control_c, 0, 64, 0
1, 282120, Note_on_c, 0, 70, 104
1, 282122, Note_on_c, 0, 79, 80
1, 282122, Note_on_c, 0, 82, 104
1, 282144, Control_c, 0, 64, 67
1, 282153, Note_off_c, 0, 39, 62
1, 282158, Note_off_c, 0, 51, 60
1, 282159, Control_c, 0, 64, 87
1, 282174, Control_c, 0, 64, 127
1, 282210, Note_off_c, 0, 79, 61
1, 282213, Note_off_c, 0, 70, 65
1, 282217, Note_off_c, 0, 82, 64
1, 282252, Note_on_c, 0, 56, 88
1, 282287, Note_on_c, 0, 83, 99
1, 282289, Note_on_c, 0, 71, 104
1, 282297, Note_on_c, 0, 80, 84
1, 282337, Note_on_c, 0, 58, 82
1, 282358, Note_off_c, 0, 71, 57
1, 282362, Note_off_c, 0, 83, 60
1, 282373, Note_off_c, 0, 56, 53
1, 282373, Note_off_c, 0, 80, 63
1, 282405, Note_off_c, 0, 58, 64
1, 282423, Note_on_c, 0, 59, 84
1, 282455, Note_on_c, 0, 72, 108
1, 282455, Note_on_c, 0, 84, 108
1, 282493, Note_on_c, 0, 58, 85
1, 282512, Note_off_c, 0, 59, 60
1, 282531, Note_off_c, 0, 84, 64
1, 282536, Note_off_c, 0, 72, 65
1, 282558, Note_on_c, 0, 56, 70
1, 282602, Note_off_c, 0, 58, 64
1, 282612, Control_c, 0, 64, 111
1, 282625, Note_on_c, 0, 73, 108
1, 282625, Note_on_c, 0, 80, 85
1, 282626, Note_on_c, 0, 85, 108
1, 282626, Control_c, 0, 64, 83
1, 282636, Note_on_c, 0, 62, 98
1, 282638, Note_on_c, 0, 51, 84
1, 282641, Control_c, 0, 64, 60
1, 282654, Note_off_c, 0, 56, 61
1, 282656, Control_c, 0, 64, 0
1, 282671, Control_c, 0, 64, 70
1, 282686, Control_c, 0, 64, 87
1, 282701, Control_c, 0, 64, 127
1, 282733, Note_off_c, 0, 62, 55
1, 282734, Note_off_c, 0, 85, 61
1, 282739, Note_off_c, 0, 73, 59
1, 282748, Note_on_c, 0, 56, 80
1, 282750, Note_off_c, 0, 80, 62
1, 282794, Note_off_c, 0, 51, 50
1, 282823, Note_on_c, 0, 74, 103
1, 282826, Note_on_c, 0, 86, 105
1, 282829, Note_on_c, 0, 80, 94
1, 282834, Note_on_c, 0, 58, 95
1, 282876, Note_off_c, 0, 74, 69
1, 282882, Note_off_c, 0, 56, 54
1, 282887, Note_off_c, 0, 80, 64
1, 282888, Note_off_c, 0, 86, 67
1, 282940, Note_on_c, 0, 59, 88
1, 282963, Note_off_c, 0, 58, 60
1, 283033, Note_on_c, 0, 77, 115
1, 283033, Note_on_c, 0, 89, 117
1, 283055, Note_on_c, 0, 58, 95
1, 283078, Note_off_c, 0, 77, 59
1, 283082, Note_off_c, 0, 59, 64
1, 283096, Note_off_c, 0, 89, 53
1, 283132, Note_on_c, 0, 56, 93
1, 283153, Note_off_c, 0, 58, 65
1, 283159, Note_off_c, 0, 56, 69
1, 283315, Control_c, 0, 64, 111
1, 283327, Poly_aftertouch_c, 0, 80, 0
1, 283330, Note_on_c, 0, 87, 99
1, 283330, Control_c, 0, 64, 77
1, 283333, Note_on_c, 0, 51, 103
1, 283333, Note_on_c, 0, 75, 117
1, 283335, Note_on_c, 0, 39, 94
1, 283344, Control_c, 0, 64, 0
1, 283355, Poly_aftertouch_c, 0, 80, 0
1, 283374, Note_off_c, 0, 39, 66
1, 283375, Control_c, 0, 64, 69
1, 283387, Note_off_c, 0, 51, 65
1, 283390, Control_c, 0, 64, 92
1, 283405, Control_c, 0, 64, 127
1, 283494, Note_off_c, 0, 75, 56
1, 283507, Note_off_c, 0, 87, 57
1, 283610, Note_on_c, 0, 79, 88
1, 283613, Note_on_c, 0, 85, 93
1, 283614, Note_on_c, 0, 63, 91
1, 283616, Note_on_c, 0, 82, 90
1, 283618, Note_on_c, 0, 55, 74
1, 283625, Note_on_c, 0, 61, 78
1, 283640, Note_on_c, 0, 58, 63
1, 283654, Note_off_c, 0, 79, 65
1, 283658, Note_off_c, 0, 82, 65
1, 283666, Note_off_c, 0, 85, 66
1, 283672, Poly_aftertouch_c, 0, 56, 0
1, 283682, Note_off_c, 0, 55, 61
1, 283691, Note_off_c, 0, 63, 62
1, 283708, Note_off_c, 0, 58, 63
1, 283708, Note_off_c, 0, 61, 59
1, 283792, Note_on_c, 0, 77, 106
1, 283794, Note_on_c, 0, 89, 107
1, 283801, Note_on_c, 0, 87, 84
1, 283802, Note_on_c, 0, 67, 91
1, 283805, Note_on_c, 0, 85, 82
1, 283815, Note_on_c, 0, 88, 58
1, 283839, Note_off_c, 0, 88, 66
1, 283846, Note_on_c, 0, 61, 40
1, 283860, Note_off_c, 0, 67, 59
1, 283869, Note_off_c, 0, 61, 60
1, 283893, Note_off_c, 0, 77, 56
1, 283899, Note_off_c, 0, 89, 65
1, 283913, Note_off_c, 0, 87, 62
1, 283915, Note_off_c, 0, 85, 61
1, 283966, Note_on_c, 0, 67, 51
1, 283969, Note_on_c, 0, 70, 98
1, 283978, Note_on_c, 0, 61, 69
1, 283978, Note_on_c, 0, 91, 108
1, 283979, Note_on_c, 0, 79, 104
1, 283979, Note_on_c, 0, 63, 77
1, 283981, Note_on_c, 0, 87, 87
1, 283986, Note_on_c, 0, 85, 80
1, 284003, Note_on_c, 0, 68, 48
1, 284026, Note_off_c, 0, 67, 59
1, 284033, Note_off_c, 0, 68, 39
1, 284036, Note_off_c, 0, 70, 62
1, 284039, Note_off_c, 0, 61, 60
1, 284045, Note_off_c, 0, 79, 65
1, 284052, Note_off_c, 0, 91, 62
1, 284062, Note_off_c, 0, 87, 59
1, 284069, Note_off_c, 0, 63, 62
1, 284072, Note_off_c, 0, 85, 63
1, 284147, Note_on_c, 0, 67, 79
1, 284148, Note_on_c, 0, 80, 117
1, 284149, Note_on_c, 0, 92, 110
1, 284150, Note_on_c, 0, 65, 89
1, 284172, Note_on_c, 0, 90, 67
1, 284173, Note_off_c, 0, 90, 127
1, 284194, Note_off_c, 0, 67, 63
1, 284198, Note_off_c, 0, 65, 64
1, 284227, Note_off_c, 0, 80, 58
1, 284245, Note_off_c, 0, 92, 64
1, 284310, Note_on_c, 0, 63, 93
1, 284317, Note_on_c, 0, 55, 87
1, 284319, Note_on_c, 0, 61, 80
1, 284326, Note_on_c, 0, 58, 69
1, 284334, Note_on_c, 0, 82, 99
1, 284335, Note_off_c, 0, 63, 69
1, 284340, Note_off_c, 0, 61, 71
1, 284341, Note_on_c, 0, 94, 101
1, 284352, Note_off_c, 0, 58, 67
1, 284356, Note_off_c, 0, 55, 66
1, 284371, Note_on_c, 0, 95, 57
1, 284391, Note_off_c, 0, 95, 58
1, 284415, Note_off_c, 0, 82, 62
1, 284423, Note_off_c, 0, 94, 65
1, 284555, Control_c, 0, 64, 105
1, 284567, Note_on_c, 0, 44, 107
1, 284570, Control_c, 0, 64, 64
1, 284571, Note_on_c, 0, 32, 99
1, 284571, Note_on_c, 0, 96, 105
1, 284574, Note_on_c, 0, 84, 104
1, 284584, Control_c, 0, 64, 0
1, 284599, Control_c, 0, 64, 54
1, 284603, Note_off_c, 0, 32, 66
1, 284614, Control_c, 0, 64, 76
1, 284619, Note_off_c, 0, 44, 68
1, 284629, Control_c, 0, 64, 108
1, 284644, Control_c, 0, 64, 127
1, 284735, Note_off_c, 0, 84, 59
1, 284797, Note_on_c, 0, 87, 99
1, 284797, Note_on_c, 0, 92, 103
1, 284811, Note_off_c, 0, 96, 65
1, 284813, Note_on_c, 0, 63, 92
1, 284817, Note_on_c, 0, 56, 68
1, 284833, Note_off_c, 0, 87, 69
1, 284838, Note_off_c, 0, 92, 67
1, 284850, Note_off_c, 0, 56, 66
1, 284863, Note_off_c, 0, 63, 65
1, 285011, Note_on_c, 0, 68, 90
1, 285011, Note_on_c, 0, 60, 79
1, 285017, Note_on_c, 0, 101, 111
1, 285019, Note_on_c, 0, 89, 112
1, 285071, Note_off_c, 0, 60, 62
1, 285082, Note_off_c, 0, 68, 53
1, 285136, Note_off_c, 0, 101, 60
1, 285146, Note_off_c, 0, 89, 60
1, 285247, Note_on_c, 0, 99, 110
1, 285249, Note_on_c, 0, 87, 110
1, 285255, Note_on_c, 0, 72, 91
1, 285257, Note_on_c, 0, 63, 86
1, 285271, Note_on_c, 0, 92, 61
1, 285291, Note_off_c, 0, 92, 40
1, 285312, Note_off_c, 0, 72, 63
1, 285369, Note_off_c, 0, 87, 63
1, 285375, Note_off_c, 0, 63, 61
1, 285390, Note_off_c, 0, 99, 65
1, 285427, Note_on_c, 0, 75, 92
1, 285438, Note_on_c, 0, 96, 89
1, 285442, Note_on_c, 0, 92, 99
1, 285473, Note_on_c, 0, 68, 22
1, 285485, Note_off_c, 0, 75, 65
1, 285507, Note_off_c, 0, 68, 54
1, 285529, Note_off_c, 0, 96, 60
1, 285565, Note_off_c, 0, 92, 65
1, 285593, Note_on_c, 0, 80, 94
1, 285596, Note_on_c, 0, 98, 106
1, 285597, Note_on_c, 0, 86, 107
1, 285602, Note_on_c, 0, 72, 89
1, 285610, Note_off_c, 0, 80, 71
1, 285627, Note_off_c, 0, 72, 67
1, 285628, Note_on_c, 0, 96, 52
1, 285651, Note_off_c, 0, 96, 53
1, 285689, Note_off_c, 0, 98, 62
1, 285696, Note_off_c, 0, 86, 59
1, 285701, Note_on_c, 0, 91, 29
1, 285743, Note_off_c, 0, 91, 60
1, 285756, Control_c, 0, 64, 100
1, 285771, Control_c, 0, 64, 71
1, 285774, Note_on_c, 0, 51, 96
1, 285782, Note_on_c, 0, 39, 74
1, 285782, Note_on_c, 0, 42, 82
1, 285783, Note_on_c, 0, 97, 101
1, 285785, Note_on_c, 0, 85, 102
1, 285786, Control_c, 0, 64, 0
1, 285792, Note_on_c, 0, 91, 78
1, 285795, Note_on_c, 0, 52, 68
1, 285804, Note_off_c, 0, 39, 67
1, 285813, Note_off_c, 0, 51, 52
1, 285816, Control_c, 0, 64, 70
1, 285818, Note_on_c, 0, 53, 33
1, 285819, Note_off_c, 0, 52, 42
1, 285830, Control_c, 0, 64, 99
1, 285839, Note_off_c, 0, 42, 61
1, 285845, Control_c, 0, 64, 127
1, 285854, Note_off_c, 0, 53, 59
1, 285878, Note_off_c, 0, 85, 64
1, 285887, Note_off_c, 0, 97, 65
1, 285903, Note_off_c, 0, 91, 59
1, 285949, Note_on_c, 0, 84, 100
1, 285949, Note_on_c, 0, 96, 102
1, 285951, Note_on_c, 0, 61, 99
1, 285955, Note_on_c, 0, 51, 80
1, 285956, Note_on_c, 0, 91, 67
1, 285978, Note_off_c, 0, 51, 69
1, 285983, Note_off_c, 0, 91, 63
1, 286001, Note_off_c, 0, 84, 68
1, 286013, Note_off_c, 0, 61, 55
1, 286071, Note_on_c, 0, 94, 79
1, 286087, Note_off_c, 0, 96, 61
1, 286090, Note_on_c, 0, 91, 70
1, 286093, Note_on_c, 0, 61, 75
1, 286095, Note_on_c, 0, 82, 96
1, 286097, Note_on_c, 0, 55, 70
1, 286105, Note_on_c, 0, 63, 71
1, 286108, Note_off_c, 0, 61, 70
1, 286123, Note_off_c, 0, 63, 68
1, 286148, Note_off_c, 0, 55, 62
1, 286148, Note_off_c, 0, 82, 63
1, 286170, Note_on_c, 0, 96, 94
1, 286209, Note_off_c, 0, 91, 59
1, 286210, Note_off_c, 0, 94, 64
1, 286235, Note_on_c, 0, 91, 69
1, 286241, Note_on_c, 0, 67, 93
1, 286242, Note_on_c, 0, 82, 104
1, 286248, Note_on_c, 0, 61, 71
1, 286268, Note_off_c, 0, 96, 42
1, 286283, Note_off_c, 0, 67, 63
1, 286287, Note_off_c, 0, 82, 68
1, 286287, Note_off_c, 0, 91, 59
1, 286309, Note_on_c, 0, 83, 50
1, 286330, Note_off_c, 0, 83, 57
1, 286336, Note_off_c, 0, 61, 62
1, 286386, Note_on_c, 0, 93, 91
1, 286392, Note_on_c, 0, 63, 98
1, 286396, Note_on_c, 0, 55, 93
1, 286396, Note_on_c, 0, 81, 91
1, 286403, Note_on_c, 0, 91, 75
1, 286418, Note_on_c, 0, 83, 52
1, 286433, Note_off_c, 0, 63, 66
1, 286439, Note_off_c, 0, 93, 64
1, 286439, Note_off_c, 0, 55, 65
1, 286439, Note_off_c, 0, 83, 41
1, 286453, Note_off_c, 0, 81, 63
1, 286472, Note_off_c, 0, 91, 60
1, 286539, Note_on_c, 0, 82, 100
1, 286542, Note_on_c, 0, 94, 104
1, 286549, Note_on_c, 0, 61, 97
1, 286549, Note_on_c, 0, 91, 78
1, 286551, Note_on_c, 0, 51, 92
1, 286584, Note_off_c, 0, 61, 58
1, 286589, Note_off_c, 0, 51, 49
1, 286594, Note_off_c, 0, 82, 63
1, 286608, Note_off_c, 0, 91, 56
1, 286613, Note_off_c, 0, 94, 66
1, 286661, Poly_aftertouch_c, 0, 60, 0
1, 286698, Control_c, 0, 64, 99
1, 286710, Note_on_c, 0, 96, 99
1, 286713, Control_c, 0, 64, 65
1, 286713, Note_on_c, 0, 84, 95
1, 286717, Note_on_c, 0, 92, 92
1, 286719, Note_on_c, 0, 56, 96
1, 286725, Note_on_c, 0, 44, 88
1, 286728, Control_c, 0, 64, 0
1, 286758, Control_c, 0, 64, 63
1, 286773, Control_c, 0, 64, 83
1, 286787, Control_c, 0, 64, 116
1, 286793, Note_off_c, 0, 44, 63
1, 286793, Note_off_c, 0, 96, 64
1, 286799, Note_off_c, 0, 84, 65
1, 286801, Control_c, 0, 64, 127
1, 286805, Note_off_c, 0, 92, 65
1, 286808, Note_off_c, 0, 56, 64
1, 286902, Note_on_c, 0, 80, 105
1, 286903, Note_on_c, 0, 92, 106
1, 286907, Note_on_c, 0, 60, 85
1, 286919, Note_on_c, 0, 51, 73
1, 286956, Note_off_c, 0, 80, 65
1, 286966, Note_off_c, 0, 92, 62
1, 287029, Note_off_c, 0, 51, 56
1, 287056, Note_on_c, 0, 89, 101
1, 287057, Note_on_c, 0, 77, 103
1, 287068, Note_on_c, 0, 63, 91
1, 287074, Note_on_c, 0, 56, 74
1, 287083, Note_off_c, 0, 60, 38
1, 287102, Note_off_c, 0, 77, 66
1, 287112, Note_off_c, 0, 89, 63
1, 287147, Note_off_c, 0, 63, 56
1, 287178, Note_off_c, 0, 56, 60
1, 287217, Note_on_c, 0, 75, 109
1, 287217, Note_on_c, 0, 87, 100
1, 287226, Note_on_c, 0, 60, 88
1, 287233, Note_on_c, 0, 51, 77
1, 287248, Note_on_c, 0, 85, 50
1, 287269, Note_off_c, 0, 75, 59
1, 287273, Note_off_c, 0, 85, 42
1, 287291, Note_off_c, 0, 87, 62
1, 287327, Note_off_c, 0, 51, 56
1, 287360, Note_off_c, 0, 60, 60
1, 287399, Note_on_c, 0, 63, 91
1, 287401, Note_on_c, 0, 72, 101
1, 287404, Note_on_c, 0, 84, 102
1, 287407, Note_on_c, 0, 56, 70
1, 287433, Note_off_c, 0, 56, 60
1, 287436, Note_off_c, 0, 72, 70
1, 287437, Note_off_c, 0, 63, 64
1, 287440, Note_off_c, 0, 84, 67
1, 287518, Poly_aftertouch_c, 0, 55, 0
1, 287625, Control_c, 0, 64, 118
1, 287640, Control_c, 0, 64, 74
1, 287650, Note_on_c, 0, 77, 93
1, 287654, Note_on_c, 0, 65, 79
1, 287655, Control_c, 0, 64, 0
1, 287665, Note_on_c, 0, 60, 79
1, 287667, Note_on_c, 0, 48, 82
1, 287682, Note_off_c, 0, 77, 64
1, 287683, Note_off_c, 0, 65, 70
1, 287692, Note_off_c, 0, 60, 70
1, 287697, Note_off_c, 0, 48, 68
1, 287736, Control_c, 0, 64, 64
1, 287738, Note_on_c, 0, 60, 92
1, 287739, Note_on_c, 0, 75, 91
1, 287741, Note_on_c, 0, 48, 84
1, 287742, Note_on_c, 0, 63, 98
1, 287751, Control_c, 0, 64, 91
1, 287766, Control_c, 0, 64, 127
1, 287787, Note_off_c, 0, 60, 61
1, 287791, Note_off_c, 0, 48, 64
1, 287850, Note_off_c, 0, 63, 61
1, 287875, Note_off_c, 0, 75, 61
1, 287944, Note_on_c, 0, 58, 87
1, 287947, Note_on_c, 0, 46, 90
1, 287948, Note_on_c, 0, 67, 72
1, 287950, Note_on_c, 0, 73, 82
1, 287975, Note_off_c, 0, 67, 65
1, 287995, Note_off_c, 0, 46, 59
1, 287999, Note_off_c, 0, 58, 62
1, 288014, Note_off_c, 0, 73, 64
1, 288104, Note_on_c, 0, 77, 88
1, 288105, Note_on_c, 0, 65, 90
1, 288109, Note_on_c, 0, 75, 76
1, 288121, Note_on_c, 0, 56, 96
1, 288123, Note_on_c, 0, 73, 72
1, 288128, Note_on_c, 0, 44, 84
1, 288171, Note_off_c, 0, 44, 59
1, 288173, Note_off_c, 0, 56, 63
1, 288186, Note_off_c, 0, 65, 63
1, 288201, Note_off_c, 0, 75, 62
1, 288203, Note_off_c, 0, 77, 62
1, 288206, Note_off_c, 0, 73, 61
1, 288256, Control_c, 0, 64, 97
1, 288267, Note_on_c, 0, 79, 94
1, 288268, Note_on_c, 0, 67, 98
1, 288271, Control_c, 0, 64, 66
1, 288274, Note_on_c, 0, 55, 95
1, 288276, Note_on_c, 0, 75, 73
1, 288280, Note_on_c, 0, 43, 88
1, 288285, Note_on_c, 0, 73, 65
1, 288286, Control_c, 0, 64, 0
1, 288301, Control_c, 0, 64, 43
1, 288315, Control_c, 0, 64, 76
1, 288322, Note_off_c, 0, 55, 65
1, 288330, Control_c, 0, 64, 99
1, 288334, Note_off_c, 0, 43, 59
1, 288345, Note_off_c, 0, 67, 60
1, 288345, Control_c, 0, 64, 127
1, 288346, Note_off_c, 0, 79, 63
1, 288372, Note_off_c, 0, 75, 64
1, 288376, Note_off_c, 0, 73, 62
1, 288441, Control_c, 0, 64, 119
1, 288447, Note_on_c, 0, 53, 102
1, 288448, Note_on_c, 0, 68, 104
1, 288448, Note_on_c, 0, 80, 103
1, 288451, Note_on_c, 0, 41, 94
1, 288456, Control_c, 0, 64, 84
1, 288471, Control_c, 0, 64, 61
1, 288481, Note_off_c, 0, 53, 68
1, 288485, Control_c, 0, 64, 63
1, 288487, Note_off_c, 0, 41, 65
1, 288500, Control_c, 0, 64, 85
1, 288515, Control_c, 0, 64, 127
1, 288528, Note_off_c, 0, 68, 60
1, 288532, Note_off_c, 0, 80, 62
1, 288616, Note_on_c, 0, 51, 105
1, 288618, Note_on_c, 0, 82, 102
1, 288619, Note_on_c, 0, 70, 109
1, 288620, Note_on_c, 0, 39, 99
1, 288646, Note_off_c, 0, 39, 67
1, 288648, Note_on_c, 0, 83, 49
1, 288650, Note_off_c, 0, 51, 67
1, 288653, Note_on_c, 0, 42, 36
1, 288654, Note_off_c, 0, 42, 127
1, 288677, Note_off_c, 0, 70, 57
1, 288683, Note_off_c, 0, 83, 45
1, 288687, Note_off_c, 0, 82, 62
1, 288689, Poly_aftertouch_c, 0, 42, 0
1, 288844, Note_on_c, 0, 44, 109
1, 288844, Note_on_c, 0, 84, 104
1, 288850, Note_on_c, 0, 32, 99
1, 288850, Note_on_c, 0, 72, 101
1, 288856, Control_c, 0, 64, 105
1, 288871, Control_c, 0, 64, 68
1, 288885, Control_c, 0, 64, 0
1, 288918, Note_off_c, 0, 32, 65
1, 288930, Control_c, 0, 64, 73
1, 288937, Note_off_c, 0, 44, 65
1, 288945, Control_c, 0, 64, 127
1, 289017, Note_off_c, 0, 72, 59
1, 289074, Note_on_c, 0, 80, 94
1, 289078, Note_on_c, 0, 75, 92
1, 289088, Note_off_c, 0, 84, 34
1, 289089, Note_on_c, 0, 51, 80
1, 289091, Note_on_c, 0, 60, 78
1, 289113, Note_off_c, 0, 75, 65
1, 289117, Note_off_c, 0, 80, 66
1, 289233, Note_off_c, 0, 51, 51
1, 289253, Note_on_c, 0, 63, 92
1, 289253, Note_on_c, 0, 56, 75
1, 289256, Note_on_c, 0, 89, 104
1, 289258, Note_on_c, 0, 77, 106
1, 289272, Note_off_c, 0, 60, 35
1, 289282, Note_on_c, 0, 64, 58
1, 289284, Note_off_c, 0, 56, 66
1, 289303, Note_on_c, 0, 65, 43
1, 289303, Note_off_c, 0, 64, 63
1, 289307, Note_off_c, 0, 63, 63
1, 289327, Note_off_c, 0, 77, 53
1, 289330, Note_off_c, 0, 65, 56
1, 289346, Note_off_c, 0, 89, 62
1, 289431, Note_on_c, 0, 87, 104
1, 289432, Note_on_c, 0, 68, 104
1, 289434, Note_on_c, 0, 75, 107
1, 289444, Note_on_c, 0, 60, 85
1, 289472, Note_off_c, 0, 68, 67
1, 289474, Note_off_c, 0, 60, 63
1, 289557, Note_off_c, 0, 75, 57
1, 289591, Note_on_c, 0, 84, 77
1, 289593, Note_on_c, 0, 80, 86
1, 289598, Note_off_c, 0, 87, 62
1, 289675, Note_off_c, 0, 84, 60
1, 289709, Note_off_c, 0, 80, 64
1, 289735, Note_on_c, 0, 86, 105
1, 289739, Note_on_c, 0, 74, 95
1, 289824, Note_off_c, 0, 74, 59
1, 289835, Note_off_c, 0, 86, 65
1, 289887, Control_c, 0, 64, 100
1, 289896, Note_on_c, 0, 51, 102
1, 289898, Note_on_c, 0, 39, 93
1, 289902, Control_c, 0, 64, 74
1, 289912, Note_on_c, 0, 79, 69
1, 289915, Note_on_c, 0, 73, 96
1, 289916, Note_on_c, 0, 85, 94
1, 289917, Control_c, 0, 64, 0
1, 289938, Control_c, 0, 64, 29
1, 289949, Note_off_c, 0, 39, 65
1, 289953, Control_c, 0, 64, 73
1, 289956, Note_off_c, 0, 51, 62
1, 289968, Control_c, 0, 64, 93
1, 289983, Control_c, 0, 64, 127
1, 290023, Note_off_c, 0, 73, 60
1, 290032, Note_off_c, 0, 85, 64
1, 290060, Note_off_c, 0, 79, 59
1, 290090, Note_on_c, 0, 63, 91
1, 290093, Note_on_c, 0, 72, 95
1, 290096, Note_on_c, 0, 51, 80
1, 290096, Note_on_c, 0, 79, 53
1, 290096, Note_on_c, 0, 84, 89
1, 290135, Note_off_c, 0, 51, 44
1, 290143, Note_off_c, 0, 79, 60
1, 290144, Note_off_c, 0, 72, 66
1, 290156, Note_off_c, 0, 63, 56
1, 290216, Note_off_c, 0, 84, 65
1, 290221, Note_on_c, 0, 82, 80
1, 290232, Note_on_c, 0, 79, 69
1, 290236, Note_on_c, 0, 70, 90
1, 290241, Note_on_c, 0, 64, 91
1, 290246, Note_on_c, 0, 55, 86
1, 290281, Note_off_c, 0, 70, 63
1, 290295, Note_off_c, 0, 64, 63
1, 290311, Note_on_c, 0, 84, 90
1, 290329, Note_off_c, 0, 55, 55
1, 290329, Note_off_c, 0, 79, 61
1, 290347, Note_off_c, 0, 82, 55
1, 290361, Note_on_c, 0, 79, 65
1, 290367, Note_on_c, 0, 70, 100
1, 290375, Note_on_c, 0, 65, 96
1, 290381, Note_on_c, 0, 61, 85
1, 290409, Note_on_c, 0, 78, 47
1, 290409, Note_off_c, 0, 84, 40
1, 290424, Note_off_c, 0, 79, 62
1, 290437, Note_off_c, 0, 65, 65
1, 290437, Note_off_c, 0, 78, 54
1, 290448, Note_off_c, 0, 70, 61
1, 290496, Note_off_c, 0, 61, 61
1, 290528, Note_on_c, 0, 69, 101
1, 290531, Note_on_c, 0, 81, 93
1, 290534, Note_on_c, 0, 63, 93
1, 290537, Note_on_c, 0, 55, 82
1, 290540, Note_on_c, 0, 79, 78
1, 290592, Note_off_c, 0, 63, 65
1, 290593, Note_off_c, 0, 81, 63
1, 290594, Note_off_c, 0, 55, 64
1, 290595, Note_off_c, 0, 69, 68
1, 290612, Note_off_c, 0, 79, 62
1, 290687, Note_on_c, 0, 70, 103
1, 290691, Note_on_c, 0, 82, 101
1, 290694, Note_on_c, 0, 61, 96
1, 290701, Note_on_c, 0, 51, 90
1, 290702, Note_on_c, 0, 79, 77
1, 290734, Note_off_c, 0, 61, 64
1, 290752, Note_off_c, 0, 51, 60
1, 290757, Note_off_c, 0, 79, 60
1, 290766, Note_off_c, 0, 70, 62
1, 290783, Note_off_c, 0, 82, 66
1, 290822, Control_c, 0, 64, 110
1, 290836, Control_c, 0, 64, 80
1, 290851, Control_c, 0, 64, 0
1, 290862, Note_on_c, 0, 71, 97
1, 290864, Note_on_c, 0, 83, 98
1, 290866, Note_on_c, 0, 56, 99
1, 290867, Note_on_c, 0, 80, 84
1, 290872, Note_on_c, 0, 44, 90
1, 290880, Control_c, 0, 64, 64
1, 290895, Control_c, 0, 64, 83
1, 290910, Control_c, 0, 64, 116
1, 290925, Control_c, 0, 64, 127
1, 290929, Note_off_c, 0, 71, 62
1, 290930, Note_off_c, 0, 44, 62
1, 290931, Note_off_c, 0, 56, 59
1, 290938, Note_off_c, 0, 80, 63
1, 290948, Note_off_c, 0, 83, 62
1, 291038, Note_on_c, 0, 72, 97
1, 291038, Note_on_c, 0, 84, 102
1, 291050, Note_on_c, 0, 60, 79
1, 291052, Note_on_c, 0, 51, 78
1, 291072, Note_off_c, 0, 72, 68
1, 291082, Note_off_c, 0, 84, 66
1, 291200, Note_off_c, 0, 51, 56
1, 291202, Note_off_c, 0, 60, 46
1, 291208, Note_on_c, 0, 89, 109
1, 291211, Note_on_c, 0, 63, 92
1, 291211, Note_on_c, 0, 77, 106
1, 291216, Note_on_c, 0, 56, 71
1, 291238, Note_off_c, 0, 56, 70
1, 291259, Note_off_c, 0, 77, 55
1, 291271, Note_off_c, 0, 63, 66
1, 291310, Note_off_c, 0, 89, 59
1, 291410, Note_on_c, 0, 68, 103
1, 291414, Note_on_c, 0, 75, 108
1, 291414, Note_on_c, 0, 87, 107
1, 291438, Note_on_c, 0, 60, 69
1, 291442, Note_on_c, 0, 59, 64
1, 291447, Note_on_c, 0, 88, 66
1, 291461, Note_off_c, 0, 60, 67
1, 291461, Note_off_c, 0, 68, 68
1, 291464, Note_off_c, 0, 88, 60
1, 291467, Note_off_c, 0, 59, 64
1, 291545, Note_off_c, 0, 75, 60
1, 291557, Note_off_c, 0, 87, 60
1, 291605, Note_on_c, 0, 84, 78
1, 291611, Note_on_c, 0, 80, 85
1, 291694, Note_off_c, 0, 84, 61
1, 291722, Note_off_c, 0, 80, 64
1, 291750, Note_on_c, 0, 86, 100
1, 291751, Note_on_c, 0, 74, 96
1, 291840, Note_off_c, 0, 74, 64
1, 291844, Note_off_c, 0, 86, 63
1, 291868, Note_on_c, 0, 79, 42
1, 291881, Control_c, 0, 64, 124
1, 291894, Note_off_c, 0, 79, 48
1, 291896, Control_c, 0, 64, 83
1, 291904, Note_on_c, 0, 51, 100
1, 291906, Note_on_c, 0, 39, 97
1, 291910, Control_c, 0, 64, 0
1, 291923, Note_on_c, 0, 85, 96
1, 291925, Note_on_c, 0, 73, 100
1, 291932, Note_on_c, 0, 79, 76
1, 291940, Control_c, 0, 64, 69
1, 291955, Control_c, 0, 64, 100
1, 291960, Note_off_c, 0, 39, 64
1, 291965, Note_off_c, 0, 51, 61
1, 291970, Control_c, 0, 64, 127
1, 292028, Note_off_c, 0, 73, 62
1, 292029, Note_off_c, 0, 85, 63
1, 292057, Note_off_c, 0, 79, 61
1, 292106, Note_on_c, 0, 72, 105
1, 292108, Note_on_c, 0, 63, 94
1, 292108, Note_on_c, 0, 84, 95
1, 292111, Note_on_c, 0, 51, 89
1, 292112, Note_on_c, 0, 79, 69
1, 292140, Note_on_c, 0, 82, 42
1, 292158, Note_off_c, 0, 51, 56
1, 292162, Note_off_c, 0, 79, 58
1, 292163, Note_off_c, 0, 63, 62
1, 292165, Note_off_c, 0, 72, 67
1, 292177, Note_off_c, 0, 82, 57
1, 292251, Note_on_c, 0, 82, 81
1, 292258, Note_off_c, 0, 84, 64
1, 292268, Note_on_c, 0, 79, 84
1, 292270, Note_on_c, 0, 70, 97
1, 292272, Note_on_c, 0, 64, 93
1, 292278, Note_on_c, 0, 55, 85
1, 292320, Note_off_c, 0, 70, 63
1, 292326, Note_off_c, 0, 64, 62
1, 292357, Note_on_c, 0, 84, 90
1, 292357, Note_off_c, 0, 55, 59
1, 292362, Note_off_c, 0, 79, 62
1, 292408, Note_on_c, 0, 79, 76
1, 292411, Note_on_c, 0, 70, 104
1, 292415, Note_on_c, 0, 65, 96
1, 292418, Note_on_c, 0, 61, 91
1, 292433, Note_on_c, 0, 78, 72
1, 292445, Note_off_c, 0, 84, 39
1, 292463, Note_off_c, 0, 79, 62
1, 292471, Note_off_c, 0, 65, 66
1, 292490, Note_off_c, 0, 70, 60
1, 292499, Note_off_c, 0, 82, 38
1, 292536, Note_off_c, 0, 78, 25
1, 292547, Note_off_c, 0, 61, 59
1, 292591, Note_on_c, 0, 69, 102
1, 292593, Note_on_c, 0, 81, 97
1, 292597, Note_on_c, 0, 63, 99
1, 292600, Note_on_c, 0, 55, 89
1, 292606, Note_on_c, 0, 79, 82
1, 292654, Note_off_c, 0, 55, 62
1, 292660, Note_off_c, 0, 63, 61
1, 292663, Note_off_c, 0, 81, 59
1, 292678, Note_off_c, 0, 69, 59
1, 292730, Note_off_c, 0, 79, 60
1, 292782, Note_on_c, 0, 61, 103
1, 292785, Note_on_c, 0, 51, 100
1, 292786, Note_on_c, 0, 70, 104
1, 292787, Note_on_c, 0, 82, 103
1, 292792, Note_on_c, 0, 79, 79
1, 292807, Note_off_c, 0, 51, 64
1, 292812, Note_off_c, 0, 61, 64
1, 292873, Note_off_c, 0, 79, 59
1, 292889, Note_off_c, 0, 82, 58
1, 292904, Note_off_c, 0, 70, 55
1, 293023, Control_c, 0, 64, 91
1, 293038, Control_c, 0, 64, 60
1, 293053, Control_c, 0, 64, 0
1, 293053, Note_on_c, 0, 50, 109
1, 293053, Note_on_c, 0, 70, 106
1, 293055, Note_on_c, 0, 82, 103
1, 293057, Note_on_c, 0, 38, 95
1, 293062, Note_on_c, 0, 79, 88
1, 293082, Control_c, 0, 64, 64
1, 293097, Control_c, 0, 64, 94
1, 293104, Note_off_c, 0, 50, 58
1, 293110, Note_off_c, 0, 38, 63
1, 293112, Control_c, 0, 64, 127
1, 293139, Note_off_c, 0, 79, 62
1, 293154, Note_off_c, 0, 82, 59
1, 293210, Note_off_c, 0, 70, 58
1, 293335, Note_on_c, 0, 71, 100
1, 293337, Note_on_c, 0, 83, 96
1, 293338, Note_on_c, 0, 80, 95
1, 293342, Note_on_c, 0, 59, 91
1, 293346, Note_on_c, 0, 50, 80
1, 293358, Note_on_c, 0, 81, 65
1, 293366, Note_off_c, 0, 71, 68
1, 293375, Note_off_c, 0, 81, 66
1, 293378, Note_off_c, 0, 83, 65
1, 293380, Note_off_c, 0, 59, 65
1, 293384, Note_off_c, 0, 80, 69
1, 293391, Note_off_c, 0, 50, 61
1, 293521, Note_on_c, 0, 65, 84
1, 293541, Note_on_c, 0, 56, 52
1, 293570, Note_off_c, 0, 65, 65
1, 293582, Note_on_c, 0, 80, 103
1, 293584, Note_on_c, 0, 83, 90
1, 293584, Note_on_c, 0, 92, 100
1, 293595, Note_off_c, 0, 56, 52
1, 293614, Note_off_c, 0, 92, 62
1, 293617, Note_off_c, 0, 80, 62
1, 293617, Note_off_c, 0, 83, 56
1, 293652, Note_on_c, 0, 92, 100
1, 293652, Note_on_c, 0, 80, 94
1, 293654, Note_on_c, 0, 83, 93
1, 293661, Note_on_c, 0, 68, 101
1, 293674, Note_on_c, 0, 59, 76
1, 293689, Note_on_c, 0, 93, 61
1, 293709, Note_off_c, 0, 93, 59
1, 293727, Note_off_c, 0, 68, 65
1, 293747, Note_off_c, 0, 59, 58
1, 293748, Note_off_c, 0, 92, 65
1, 293755, Note_on_c, 0, 56, 5
1, 293766, Note_off_c, 0, 83, 57
1, 293772, Note_off_c, 0, 80, 62
1, 293787, Note_off_c, 0, 56, 34
1, 293839, Note_on_c, 0, 65, 92
1, 293840, Note_on_c, 0, 92, 122
1, 293840, Note_on_c, 0, 80, 114
1, 293841, Note_on_c, 0, 83, 101
1, 293852, Note_on_c, 0, 57, 69
1, 293861, Note_off_c, 0, 65, 63
1, 293879, Note_off_c, 0, 57, 65
1, 293891, Note_on_c, 0, 93, 25
1, 293894, Note_on_c, 0, 56, 19
1, 293927, Note_off_c, 0, 93, 35
1, 293932, Note_off_c, 0, 56, 55
1, 293937, Note_off_c, 0, 92, 60
1, 293943, Note_off_c, 0, 80, 57
1, 293970, Note_off_c, 0, 83, 51
1, 294018, Note_on_c, 0, 59, 103
1, 294018, Note_on_c, 0, 92, 114
1, 294019, Note_on_c, 0, 80, 114
1, 294019, Note_on_c, 0, 83, 93
1, 294022, Note_on_c, 0, 50, 99
1, 294047, Note_off_c, 0, 59, 67
1, 294049, Note_off_c, 0, 50, 68
1, 294098, Note_off_c, 0, 92, 61
1, 294110, Note_off_c, 0, 80, 59
1, 294212, Note_off_c, 0, 83, 50
1, 294216, Control_c, 0, 64, 124
1, 294231, Control_c, 0, 64, 81
1, 294245, Control_c, 0, 64, 0
1, 294259, Note_on_c, 0, 83, 94
1, 294259, Note_on_c, 0, 92, 109
1, 294261, Note_on_c, 0, 49, 104
1, 294261, Note_on_c, 0, 80, 107
1, 294265, Note_on_c, 0, 37, 99
1, 294289, Control_c, 0, 64, 71
1, 294304, Control_c, 0, 64, 112
1, 294316, Note_off_c, 0, 37, 64
1, 294319, Control_c, 0, 64, 127
1, 294334, Note_off_c, 0, 49, 65
1, 294367, Note_off_c, 0, 92, 61
1, 294372, Note_off_c, 0, 83, 59
1, 294404, Note_off_c, 0, 80, 52
1, 294535, Note_on_c, 0, 79, 101
1, 294537, Note_on_c, 0, 91, 104
1, 294538, Note_on_c, 0, 82, 100
1, 294540, Note_on_c, 0, 58, 94
1, 294553, Note_on_c, 0, 49, 78
1, 294579, Note_off_c, 0, 79, 68
1, 294580, Note_off_c, 0, 91, 63
1, 294583, Note_off_c, 0, 49, 56
1, 294583, Note_off_c, 0, 82, 66
1, 294585, Note_off_c, 0, 58, 65
1, 294693, Note_on_c, 0, 55, 71
1, 294693, Note_on_c, 0, 64, 88
1, 294714, Note_on_c, 0, 79, 37
1, 294741, Note_off_c, 0, 64, 66
1, 294752, Note_off_c, 0, 79, 0
1, 294752, Note_on_c, 0, 79, 35
1, 294752, Note_on_c, 0, 70, 91
1, 294755, Note_on_c, 0, 82, 83
1, 294786, Note_off_c, 0, 55, 64
1, 294796, Note_off_c, 0, 70, 65
1, 294799, Note_off_c, 0, 82, 66
1, 294808, Note_off_c, 0, 79, 62
1, 294831, Control_c, 0, 64, 85
1, 294841, Note_on_c, 0, 58, 102
1, 294841, Note_on_c, 0, 69, 113
1, 294842, Note_on_c, 0, 81, 108
1, 294845, Control_c, 0, 64, 0
1, 294847, Note_on_c, 0, 78, 91
1, 294849, Note_on_c, 0, 49, 91
1, 294882, Note_on_c, 0, 79, 21
1, 294890, Control_c, 0, 64, 63
1, 294900, Note_off_c, 0, 79, 43
1, 294905, Control_c, 0, 64, 92
1, 294919, Control_c, 0, 64, 127
1, 294926, Note_off_c, 0, 81, 61
1, 294934, Note_off_c, 0, 58, 59
1, 294940, Note_off_c, 0, 49, 56
1, 294946, Note_off_c, 0, 69, 59
1, 295050, Note_on_c, 0, 70, 103
1, 295054, Note_on_c, 0, 82, 106
1, 295054, Note_off_c, 0, 78, 68
1, 295056, Note_on_c, 0, 64, 100
1, 295059, Note_on_c, 0, 55, 86
1, 295059, Note_on_c, 0, 79, 92
1, 295086, Note_off_c, 0, 64, 70
1, 295092, Note_off_c, 0, 70, 69
1, 295099, Note_off_c, 0, 55, 67
1, 295105, Note_off_c, 0, 79, 65
1, 295113, Note_off_c, 0, 82, 64
1, 295268, Control_c, 0, 64, 96
1, 295283, Control_c, 0, 64, 42
1, 295298, Control_c, 0, 64, 0
1, 295360, Note_on_c, 0, 79, 102
1, 295360, Note_on_c, 0, 91, 104
1, 295371, Note_on_c, 0, 82, 81
1, 295416, Note_off_c, 0, 79, 64
1, 295420, Note_off_c, 0, 91, 62
1, 295423, Note_off_c, 0, 82, 64
1, 295464, Note_on_c, 0, 48, 102
1, 295465, Note_on_c, 0, 36, 95
1, 295466, Note_on_c, 0, 91, 104
1, 295467, Note_on_c, 0, 79, 105
1, 295469, Note_on_c, 0, 82, 91
1, 295491, Control_c, 0, 64, 127
1, 295516, Note_on_c, 0, 38, 18
1, 295517, Note_off_c, 0, 36, 65
1, 295517, Note_off_c, 0, 48, 68
1, 295536, Note_off_c, 0, 91, 61
1, 295549, Note_off_c, 0, 79, 63
1, 295563, Note_off_c, 0, 38, 50
1, 295614, Note_off_c, 0, 82, 59
1, 295709, Note_on_c, 0, 81, 95
1, 295711, Note_on_c, 0, 90, 103
1, 295712, Note_on_c, 0, 78, 101
1, 295718, Note_on_c, 0, 57, 91
1, 295727, Note_on_c, 0, 48, 87
1, 295759, Note_off_c, 0, 57, 64
1, 295766, Note_off_c, 0, 90, 66
1, 295767, Note_off_c, 0, 81, 64
1, 295775, Note_off_c, 0, 78, 65
1, 295785, Note_off_c, 0, 48, 58
1, 295869, Note_on_c, 0, 63, 98
1, 295874, Note_on_c, 0, 54, 82
1, 295930, Note_on_c, 0, 81, 95
1, 295931, Note_on_c, 0, 78, 91
1, 295933, Note_on_c, 0, 69, 96
1, 295934, Note_off_c, 0, 63, 63
1, 295969, Note_off_c, 0, 81, 61
1, 295969, Note_off_c, 0, 69, 69
1, 295971, Note_off_c, 0, 54, 54
1, 295989, Note_off_c, 0, 78, 66
1, 296027, Note_on_c, 0, 68, 109
1, 296027, Note_on_c, 0, 80, 99
1, 296031, Control_c, 0, 64, 90
1, 296034, Note_on_c, 0, 76, 79
1, 296036, Note_on_c, 0, 48, 96
1, 296037, Note_on_c, 0, 59, 87
1, 296039, Note_on_c, 0, 57, 86
1, 296046, Control_c, 0, 64, 0
1, 296051, Note_on_c, 0, 78, 66
1, 296069, Note_off_c, 0, 78, 40
1, 296076, Control_c, 0, 64, 33
1, 296076, Note_off_c, 0, 59, 62
1, 296088, Note_off_c, 0, 57, 62
1, 296091, Control_c, 0, 64, 73
1, 296106, Control_c, 0, 64, 104
1, 296112, Note_off_c, 0, 48, 63
1, 296115, Note_off_c, 0, 76, 65
1, 296121, Control_c, 0, 64, 127
1, 296171, Note_off_c, 0, 68, 57
1, 296192, Note_off_c, 0, 80, 59
1, 296260, Note_on_c, 0, 63, 106
1, 296260, Note_on_c, 0, 69, 106
1, 296261, Note_on_c, 0, 81, 106
1, 296264, Note_on_c, 0, 78, 99
1, 296265, Note_on_c, 0, 54, 94
1, 296286, Note_on_c, 0, 79, 64
1, 296301, Note_off_c, 0, 69, 72
1, 296302, Note_off_c, 0, 63, 70
1, 296304, Note_off_c, 0, 79, 64
1, 296314, Note_off_c, 0, 54, 60
1, 296317, Note_off_c, 0, 81, 67
1, 296324, Note_off_c, 0, 78, 67
1, 296495, Note_on_c, 0, 81, 24
1, 296533, Note_off_c, 0, 81, 40
1, 296536, Control_c, 0, 64, 75
1, 296551, Control_c, 0, 64, 0
1, 296575, Note_on_c, 0, 78, 100
1, 296577, Note_on_c, 0, 90, 96
1, 296583, Note_on_c, 0, 81, 95
1, 296688, Note_off_c, 0, 78, 60
1, 296693, Note_off_c, 0, 90, 63
1, 296707, Note_off_c, 0, 81, 55
1, 296752, Note_on_c, 0, 90, 102
1, 296753, Note_on_c, 0, 47, 109
1, 296753, Note_on_c, 0, 78, 110
1, 296754, Note_on_c, 0, 81, 93
1, 296756, Note_on_c, 0, 35, 96
1, 296766, Control_c, 0, 64, 93
1, 296780, Control_c, 0, 64, 127
1, 296813, Note_off_c, 0, 35, 66
1, 296819, Note_off_c, 0, 90, 69
1, 296823, Note_off_c, 0, 47, 67
1, 296845, Note_off_c, 0, 81, 67
1, 296846, Note_off_c, 0, 78, 64
1, 297170, Note_on_c, 0, 66, 81
1, 297173, Note_on_c, 0, 54, 72
1, 297173, Note_on_c, 0, 81, 94
1, 297173, Note_on_c, 0, 59, 68
1, 297179, Note_on_c, 0, 75, 76
1, 297182, Note_on_c, 0, 69, 74
1, 297183, Note_on_c, 0, 71, 73
1, 297202, Note_off_c, 0, 66, 64
1, 297202, Note_off_c, 0, 75, 69
1, 297206, Note_off_c, 0, 69, 72
1, 297207, Note_off_c, 0, 71, 69
1, 297209, Note_off_c, 0, 59, 62
1, 297209, Note_off_c, 0, 54, 63
1, 297215, Note_off_c, 0, 81, 58
1, 297245, Note_on_c, 0, 81, 87
1, 297253, Note_on_c, 0, 66, 86
1, 297253, Note_on_c, 0, 71, 75
1, 297257, Note_on_c, 0, 69, 87
1, 297258, Note_on_c, 0, 54, 76
1, 297262, Note_on_c, 0, 75, 80
1, 297265, Note_on_c, 0, 59, 67
1, 297320, Note_off_c, 0, 66, 63
1, 297324, Note_off_c, 0, 54, 57
1, 297334, Note_off_c, 0, 59, 56
1, 297337, Note_off_c, 0, 69, 58
1, 297338, Note_off_c, 0, 71, 56
1, 297352, Note_off_c, 0, 81, 60
1, 297355, Note_off_c, 0, 75, 57
1, 297450, Note_on_c, 0, 81, 108
1, 297453, Note_on_c, 0, 69, 92
1, 297454, Note_on_c, 0, 66, 96
1, 297455, Note_on_c, 0, 71, 94
1, 297460, Note_on_c, 0, 54, 81
1, 297460, Note_on_c, 0, 59, 76
1, 297464, Note_on_c, 0, 75, 86
1, 297533, Note_off_c, 0, 81, 60
1, 297536, Note_off_c, 0, 66, 59
1, 297551, Note_off_c, 0, 71, 53
1, 297552, Note_off_c, 0, 54, 56
1, 297559, Note_off_c, 0, 69, 61
1, 297564, Note_off_c, 0, 75, 56
1, 297588, Note_off_c, 0, 59, 54
1, 297625, Note_on_c, 0, 83, 95
1, 297635, Note_on_c, 0, 66, 97
1, 297637, Note_on_c, 0, 69, 97
1, 297637, Note_on_c, 0, 71, 94
1, 297639, Note_on_c, 0, 59, 67
1, 297647, Note_on_c, 0, 54, 77
1, 297697, Note_off_c, 0, 83, 56
1, 297710, Note_off_c, 0, 66, 66
1, 297713, Note_off_c, 0, 54, 61
1, 297728, Note_off_c, 0, 59, 51
1, 297735, Note_off_c, 0, 71, 49
1, 297749, Note_off_c, 0, 69, 60
1, 297804, Note_on_c, 0, 54, 91
1, 297810, Note_on_c, 0, 78, 110
1, 297814, Note_on_c, 0, 69, 90
1, 297817, Note_on_c, 0, 71, 90
1, 297820, Note_on_c, 0, 75, 81
1, 297846, Note_off_c, 0, 54, 66
1, 297934, Note_off_c, 0, 75, 61
1, 297943, Note_off_c, 0, 78, 58
1, 297950, Note_off_c, 0, 71, 47
1, 297960, Note_off_c, 0, 69, 59
1, 298005, Control_c, 0, 64, 103
1, 298019, Control_c, 0, 64, 75
1, 298019, Note_on_c, 0, 40, 102
1, 298020, Note_on_c, 0, 78, 108
1, 298026, Note_on_c, 0, 69, 90
1, 298028, Note_on_c, 0, 75, 95
1, 298028, Note_on_c, 0, 71, 92
1, 298034, Control_c, 0, 64, 0
1, 298043, Note_on_c, 0, 41, 47
1, 298044, Note_off_c, 0, 41, 127
1, 298063, Control_c, 0, 64, 25
1, 298078, Control_c, 0, 64, 76
1, 298084, Note_off_c, 0, 40, 64
1, 298093, Control_c, 0, 64, 105
1, 298108, Control_c, 0, 64, 127
1, 298112, Note_off_c, 0, 71, 56
1, 298128, Poly_aftertouch_c, 0, 47, 0
1, 298130, Note_off_c, 0, 69, 65
1, 298154, Note_off_c, 0, 78, 57
1, 298169, Note_off_c, 0, 75, 53
1, 298279, Note_on_c, 0, 80, 102
1, 298281, Note_on_c, 0, 68, 107
1, 298282, Note_on_c, 0, 76, 83
1, 298288, Note_on_c, 0, 59, 69
1, 298290, Note_on_c, 0, 64, 79
1, 298292, Note_on_c, 0, 52, 68
1, 298366, Note_off_c, 0, 52, 63
1, 298368, Note_off_c, 0, 64, 56
1, 298390, Note_off_c, 0, 76, 60
1, 298404, Note_off_c, 0, 59, 56
1, 298408, Note_off_c, 0, 80, 58
1, 298414, Note_off_c, 0, 68, 56
1, 298481, Note_on_c, 0, 80, 98
1, 298482, Note_on_c, 0, 64, 88
1, 298482, Note_on_c, 0, 75, 91
1, 298483, Note_on_c, 0, 59, 82
1, 298484, Note_on_c, 0, 68, 97
1, 298490, Note_on_c, 0, 52, 77
1, 298564, Note_off_c, 0, 75, 68
1, 298565, Note_off_c, 0, 64, 57
1, 298568, Note_off_c, 0, 52, 58
1, 298577, Note_off_c, 0, 59, 58
1, 298604, Note_off_c, 0, 68, 59
1, 298604, Note_off_c, 0, 80, 60
1, 298657, Note_on_c, 0, 80, 94
1, 298657, Note_on_c, 0, 68, 96
1, 298659, Note_on_c, 0, 74, 94
1, 298664, Note_on_c, 0, 64, 91
1, 298671, Note_on_c, 0, 59, 85
1, 298674, Note_on_c, 0, 52, 83
1, 298739, Note_off_c, 0, 64, 59
1, 298741, Note_off_c, 0, 52, 60
1, 298741, Note_off_c, 0, 80, 64
1, 298768, Note_off_c, 0, 68, 62
1, 298771, Note_off_c, 0, 59, 56
1, 298804, Note_off_c, 0, 74, 61
1, 298850, Note_on_c, 0, 70, 104
1, 298851, Note_on_c, 0, 82, 103
1, 298852, Note_on_c, 0, 74, 82
1, 298859, Note_on_c, 0, 64, 93
1, 298861, Note_on_c, 0, 52, 81
1, 298866, Note_on_c, 0, 58, 84
1, 298945, Note_off_c, 0, 52, 56
1, 298948, Note_off_c, 0, 64, 57
1, 298949, Note_off_c, 0, 70, 60
1, 298967, Note_off_c, 0, 82, 59
1, 298994, Note_off_c, 0, 58, 54
1, 299040, Note_off_c, 0, 74, 56
1, 299082, Note_on_c, 0, 74, 80
1, 299084, Note_on_c, 0, 71, 102
1, 299084, Note_on_c, 0, 83, 104
1, 299084, Note_on_c, 0, 64, 95
1, 299086, Note_on_c, 0, 52, 80
1, 299087, Note_on_c, 0, 56, 88
1, 299125, Note_off_c, 0, 64, 66
1, 299145, Note_off_c, 0, 56, 67
1, 299146, Note_off_c, 0, 52, 66
1, 299166, Note_off_c, 0, 74, 67
1, 299170, Note_off_c, 0, 71, 55
1, 299185, Note_off_c, 0, 83, 61
1, 299415, Note_on_c, 0, 84, 102
1, 299415, Note_on_c, 0, 72, 101
1, 299418, Note_on_c, 0, 80, 100
1, 299419, Note_on_c, 0, 75, 98
1, 299420, Note_on_c, 0, 51, 107
1, 299423, Note_on_c, 0, 39, 96
1, 299428, Control_c, 0, 64, 96
1, 299443, Control_c, 0, 64, 53
1, 299458, Control_c, 0, 64, 0
1, 299531, Control_c, 0, 64, 64
1, 299546, Control_c, 0, 64, 96
1, 299553, Note_off_c, 0, 84, 65
1, 299561, Control_c, 0, 64, 127
1, 299564, Note_off_c, 0, 39, 61
1, 299567, Note_off_c, 0, 72, 59
1, 299584, Note_off_c, 0, 80, 60
1, 299589, Note_off_c, 0, 51, 59
1, 299605, Note_off_c, 0, 75, 61
1, 299932, Note_on_c, 0, 75, 70
1, 299936, Note_on_c, 0, 63, 67
1, 299949, Note_on_c, 0, 60, 57
1, 299950, Note_on_c, 0, 51, 54
1, 299984, Note_on_c, 0, 72, 33
1, 300014, Note_off_c, 0, 51, 50
1, 300020, Note_off_c, 0, 63, 60
1, 300026, Poly_aftertouch_c, 0, 68, 127
1, 300035, Note_off_c, 0, 75, 59
1, 300035, Note_off_c, 0, 60, 54
1, 300049, Note_off_c, 0, 72, 41
1, 300058, Poly_aftertouch_c, 0, 68, 0
1, 300142, Note_on_c, 0, 63, 68
1, 300151, Note_on_c, 0, 51, 55
1, 300152, Note_on_c, 0, 75, 66
1, 300159, Note_on_c, 0, 60, 59
1, 300168, Note_on_c, 0, 68, 53
1, 300179, Note_on_c, 0, 72, 44
1, 300206, Note_off_c, 0, 51, 53
1, 300207, Note_off_c, 0, 60, 51
1, 300209, Note_off_c, 0, 68, 47
1, 300212, Note_off_c, 0, 63, 61
1, 300220, Note_off_c, 0, 72, 47
1, 300224, Note_off_c, 0, 75, 58
1, 300296, Control_c, 0, 64, 100
1, 300311, Control_c, 0, 64, 87
1, 300315, Note_on_c, 0, 63, 75
1, 300315, Note_on_c, 0, 75, 65
1, 300317, Note_on_c, 0, 51, 63
1, 300323, Note_on_c, 0, 68, 57
1, 300326, Control_c, 0, 64, 85
1, 300327, Note_on_c, 0, 72, 58
1, 300328, Note_on_c, 0, 60, 63
1, 300340, Control_c, 0, 64, 90
1, 300355, Control_c, 0, 64, 102
1, 300370, Control_c, 0, 64, 127
1, 300375, Note_off_c, 0, 60, 48
1, 300390, Note_off_c, 0, 72, 43
1, 300395, Note_off_c, 0, 51, 57
1, 300398, Note_off_c, 0, 68, 56
1, 300410, Note_off_c, 0, 63, 58
1, 300419, Note_off_c, 0, 75, 59
1, 300479, Note_on_c, 0, 76, 75
1, 300484, Note_on_c, 0, 64, 72
1, 300488, Note_on_c, 0, 72, 49
1, 300492, Note_on_c, 0, 60, 70
1, 300493, Note_on_c, 0, 51, 64
1, 300507, Note_on_c, 0, 68, 45
1, 300531, Note_off_c, 0, 60, 51
1, 300532, Note_off_c, 0, 72, 57
1, 300535, Note_off_c, 0, 68, 55
1, 300550, Note_off_c, 0, 51, 55
1, 300554, Note_off_c, 0, 64, 60
1, 300559, Note_off_c, 0, 76, 59
1, 300607, Note_on_c, 0, 76, 54
1, 300614, Note_on_c, 0, 64, 62
1, 300616, Note_on_c, 0, 68, 70
1, 300625, Note_on_c, 0, 60, 68
1, 300628, Note_on_c, 0, 51, 56
1, 300631, Note_on_c, 0, 72, 65
1, 300654, Note_off_c, 0, 60, 63
1, 300668, Note_off_c, 0, 64, 63
1, 300672, Note_off_c, 0, 76, 64
1, 300672, Note_off_c, 0, 72, 57
1, 300673, Note_off_c, 0, 51, 52
1, 300684, Note_off_c, 0, 68, 61
1, 300718, Control_c, 0, 64, 99
1, 300733, Control_c, 0, 64, 73
1, 300740, Note_on_c, 0, 60, 83
1, 300741, Note_on_c, 0, 64, 80
1, 300746, Note_on_c, 0, 51, 74
1, 300747, Note_on_c, 0, 76, 72
1, 300747, Control_c, 0, 64, 45
1, 300752, Note_on_c, 0, 68, 60
1, 300762, Note_on_c, 0, 72, 65
1, 300762, Control_c, 0, 64, 68
1, 300777, Control_c, 0, 64, 80
1, 300786, Note_off_c, 0, 60, 60
1, 300792, Control_c, 0, 64, 103
1, 300807, Control_c, 0, 64, 127
1, 300808, Note_off_c, 0, 51, 51
1, 300808, Note_off_c, 0, 76, 63
1, 300810, Note_off_c, 0, 64, 64
1, 300827, Note_off_c, 0, 68, 61
1, 300829, Note_off_c, 0, 72, 63
1, 300882, Note_on_c, 0, 65, 86
1, 300882, Note_on_c, 0, 77, 90
1, 300884, Note_on_c, 0, 72, 61
1, 300885, Note_on_c, 0, 60, 76
1, 300887, Note_on_c, 0, 69, 76
1, 300890, Note_on_c, 0, 51, 60
1, 300897, Note_on_c, 0, 63, 67
1, 300926, Note_off_c, 0, 63, 66
1, 300933, Note_off_c, 0, 51, 57
1, 300937, Note_off_c, 0, 60, 58
1, 300938, Note_off_c, 0, 65, 65
1, 300944, Note_off_c, 0, 72, 64
1, 300946, Note_off_c, 0, 69, 65
1, 300950, Note_off_c, 0, 77, 58
1, 301002, Note_on_c, 0, 63, 86
1, 301007, Note_on_c, 0, 69, 76
1, 301008, Note_on_c, 0, 65, 85
1, 301009, Note_on_c, 0, 77, 77
1, 301011, Note_on_c, 0, 60, 73
1, 301011, Note_on_c, 0, 72, 75
1, 301029, Note_on_c, 0, 51, 60
1, 301051, Note_off_c, 0, 63, 65
1, 301054, Note_off_c, 0, 65, 66
1, 301054, Note_off_c, 0, 77, 61
1, 301058, Note_off_c, 0, 60, 61
1, 301060, Note_off_c, 0, 51, 65
1, 301060, Note_off_c, 0, 72, 64
1, 301061, Note_off_c, 0, 69, 65
1, 301119, Control_c, 0, 64, 106
1, 301120, Note_on_c, 0, 69, 94
1, 301123, Note_on_c, 0, 77, 88
1, 301123, Note_on_c, 0, 63, 95
1, 301125, Note_on_c, 0, 65, 89
1, 301126, Note_on_c, 0, 72, 87
1, 301132, Note_on_c, 0, 51, 77
1, 301134, Note_on_c, 0, 60, 83
1, 301134, Control_c, 0, 64, 74
1, 301149, Control_c, 0, 64, 0
1, 301164, Note_off_c, 0, 65, 63
1, 301176, Note_off_c, 0, 77, 60
1, 301182, Note_off_c, 0, 51, 63
1, 301185, Note_off_c, 0, 72, 66
1, 301185, Control_c, 0, 64, 67
1, 301186, Note_off_c, 0, 63, 64
1, 301190, Note_off_c, 0, 60, 63
1, 301192, Note_off_c, 0, 69, 66
1, 301200, Control_c, 0, 64, 88
1, 301215, Control_c, 0, 64, 127
1, 301253, Note_on_c, 0, 63, 91
1, 301260, Note_on_c, 0, 60, 87
1, 301262, Note_on_c, 0, 66, 100
1, 301262, Note_on_c, 0, 78, 99
1, 301277, Note_on_c, 0, 51, 62
1, 301290, Note_on_c, 0, 75, 51
1, 301301, Note_off_c, 0, 63, 63
1, 301306, Note_off_c, 0, 66, 67
1, 301307, Note_off_c, 0, 51, 62
1, 301314, Note_off_c, 0, 75, 54
1, 301316, Note_off_c, 0, 78, 61
1, 301358, Note_on_c, 0, 51, 87
1, 301361, Note_off_c, 0, 60, 67
1, 301373, Note_on_c, 0, 78, 88
1, 301373, Note_on_c, 0, 66, 101
1, 301380, Note_on_c, 0, 75, 83
1, 301396, Note_on_c, 0, 72, 65
1, 301396, Note_off_c, 0, 51, 66
1, 301437, Note_off_c, 0, 66, 65
1, 301444, Note_off_c, 0, 78, 62
1, 301452, Note_off_c, 0, 75, 63
1, 301455, Note_off_c, 0, 72, 64
1, 301482, Control_c, 0, 64, 103
1, 301490, Note_on_c, 0, 39, 109
1, 301495, Note_on_c, 0, 27, 97
1, 301496, Control_c, 0, 64, 72
1, 301504, Note_on_c, 0, 66, 100
1, 301505, Note_on_c, 0, 40, 87
1, 301505, Note_on_c, 0, 78, 95
1, 301508, Note_on_c, 0, 72, 76
1, 301511, Note_on_c, 0, 75, 70
1, 301511, Control_c, 0, 64, 0
1, 301515, Note_off_c, 0, 39, 66
1, 301516, Note_on_c, 0, 30, 54
1, 301517, Note_off_c, 0, 30, 127
1, 301518, Note_off_c, 0, 27, 71
1, 301526, Note_off_c, 0, 40, 39
1, 301529, Note_on_c, 0, 41, 50
1, 301541, Control_c, 0, 64, 58
1, 301556, Control_c, 0, 64, 84
1, 301563, Note_off_c, 0, 41, 56
1, 301566, Note_on_c, 0, 28, 3
1, 301569, Note_off_c, 0, 72, 64
1, 301570, Control_c, 0, 64, 127
1, 301573, Note_off_c, 0, 66, 62
1, 301576, Note_off_c, 0, 75, 64
1, 301588, Note_off_c, 0, 78, 63
1, 301607, Note_off_c, 0, 28, 50
1, 301647, Note_on_c, 0, 67, 97
1, 301653, Note_on_c, 0, 75, 78
1, 301653, Note_on_c, 0, 79, 86
1, 301656, Note_on_c, 0, 73, 77
1, 301658, Poly_aftertouch_c, 0, 27, 0
1, 301668, Note_on_c, 0, 51, 91
1, 301685, Note_on_c, 0, 77, 41
1, 301708, Note_off_c, 0, 67, 63
1, 301710, Note_off_c, 0, 79, 64
1, 301716, Note_off_c, 0, 77, 37
1, 301717, Note_off_c, 0, 73, 61
1, 301719, Note_off_c, 0, 75, 65
1, 301736, Note_off_c, 0, 51, 60
1, 301774, Note_on_c, 0, 67, 102
1, 301778, Note_on_c, 0, 75, 80
1, 301779, Note_on_c, 0, 79, 83
1, 301781, Note_on_c, 0, 63, 90
1, 301783, Note_on_c, 0, 81, 78
1, 301789, Note_on_c, 0, 51, 69
1, 301791, Note_on_c, 0, 73, 69
1, 301798, Note_on_c, 0, 61, 69
1, 301803, Note_off_c, 0, 81, 59
1, 301804, Note_on_c, 0, 77, 54
1, 301816, Note_on_c, 0, 58, 53
1, 301823, Note_off_c, 0, 73, 57
1, 301826, Note_off_c, 0, 67, 63
1, 301828, Note_off_c, 0, 77, 37
1, 301828, Note_off_c, 0, 61, 63
1, 301829, Note_off_c, 0, 63, 65
1, 301829, Note_off_c, 0, 79, 65
1, 301837, Note_off_c, 0, 58, 63
1, 301840, Note_off_c, 0, 75, 65
1, 301850, Note_off_c, 0, 51, 62
1, 301893, Note_on_c, 0, 79, 100
1, 301894, Note_on_c, 0, 67, 100
1, 301895, Note_on_c, 0, 75, 82
1, 301900, Note_on_c, 0, 63, 88
1, 301916, Note_on_c, 0, 58, 78
1, 301918, Note_on_c, 0, 61, 76
1, 301921, Note_on_c, 0, 73, 73
1, 301951, Note_off_c, 0, 67, 66
1, 301952, Note_off_c, 0, 79, 66
1, 301966, Note_off_c, 0, 75, 66
1, 301969, Note_off_c, 0, 63, 62
1, 301972, Note_off_c, 0, 73, 64
1, 301973, Note_off_c, 0, 61, 62
1, 301979, Note_off_c, 0, 58, 63
1, 302031, Note_on_c, 0, 80, 107
1, 302032, Note_on_c, 0, 68, 106
1, 302035, Note_on_c, 0, 65, 96
1, 302036, Note_on_c, 0, 61, 85
1, 302037, Note_on_c, 0, 58, 74
1, 302038, Note_on_c, 0, 73, 92
1, 302084, Note_off_c, 0, 65, 65
1, 302090, Note_off_c, 0, 68, 65
1, 302090, Note_off_c, 0, 80, 64
1, 302094, Note_off_c, 0, 58, 63
1, 302098, Note_off_c, 0, 73, 63
1, 302113, Note_off_c, 0, 61, 60
1, 302161, Note_on_c, 0, 68, 110
1, 302161, Note_on_c, 0, 80, 104
1, 302165, Note_on_c, 0, 73, 92
1, 302167, Note_on_c, 0, 61, 81
1, 302167, Note_on_c, 0, 65, 93
1, 302176, Note_on_c, 0, 58, 74
1, 302217, Note_off_c, 0, 80, 64
1, 302219, Note_off_c, 0, 68, 65
1, 302220, Note_off_c, 0, 65, 62
1, 302225, Note_off_c, 0, 58, 63
1, 302228, Note_off_c, 0, 73, 61
1, 302237, Note_off_c, 0, 61, 62
1, 302282, Note_on_c, 0, 68, 104
1, 302282, Note_on_c, 0, 80, 104
1, 302284, Note_on_c, 0, 65, 93
1, 302284, Note_on_c, 0, 73, 88
1, 302291, Note_on_c, 0, 58, 89
1, 302330, Note_off_c, 0, 65, 66
1, 302336, Note_off_c, 0, 68, 63
1, 302343, Note_off_c, 0, 80, 63
1, 302349, Note_off_c, 0, 73, 63
1, 302380, Note_off_c, 0, 58, 58
1, 302431, Note_on_c, 0, 84, 108
1, 302434, Note_on_c, 0, 73, 110
1, 302438, Note_on_c, 0, 76, 90
1, 302440, Note_on_c, 0, 68, 96
1, 302440, Note_on_c, 0, 77, 87
1, 302444, Note_on_c, 0, 58, 63
1, 302446, Note_on_c, 0, 65, 76
1, 302448, Note_on_c, 0, 61, 74
1, 302461, Note_on_c, 0, 82, 48
1, 302497, Note_off_c, 0, 82, 48
1, 302522, Note_off_c, 0, 68, 59
1, 302532, Note_off_c, 0, 76, 65
1, 302533, Note_off_c, 0, 58, 59
1, 302538, Note_off_c, 0, 77, 59
1, 302544, Note_off_c, 0, 73, 56
1, 302556, Note_off_c, 0, 65, 59
1, 302556, Note_off_c, 0, 84, 59
1, 302568, Note_off_c, 0, 61, 59
1, 302613, Note_on_c, 0, 73, 103
1, 302613, Note_on_c, 0, 84, 95
1, 302616, Note_on_c, 0, 77, 94
1, 302619, Note_on_c, 0, 68, 105
1, 302628, Note_on_c, 0, 65, 79
1, 302634, Note_on_c, 0, 61, 69
1, 302641, Note_on_c, 0, 58, 68
1, 302698, Note_off_c, 0, 58, 44
1, 302698, Note_off_c, 0, 84, 63
1, 302702, Note_off_c, 0, 68, 59
1, 302714, Note_off_c, 0, 73, 58
1, 302717, Note_off_c, 0, 61, 60
1, 302723, Note_off_c, 0, 65, 61
1, 302730, Note_off_c, 0, 77, 55
1, 302786, Note_on_c, 0, 84, 103
1, 302788, Note_on_c, 0, 77, 95
1, 302791, Note_on_c, 0, 73, 110
1, 302794, Note_on_c, 0, 68, 102
1, 302804, Note_on_c, 0, 65, 79
1, 302809, Note_on_c, 0, 61, 72
1, 302810, Note_on_c, 0, 58, 74
1, 302816, Note_on_c, 0, 83, 52
1, 302841, Note_off_c, 0, 83, 52
1, 302878, Note_off_c, 0, 84, 62
1, 302880, Note_off_c, 0, 77, 57
1, 302887, Note_off_c, 0, 65, 62
1, 302910, Note_off_c, 0, 73, 56
1, 302919, Note_off_c, 0, 68, 61
1, 302927, Note_off_c, 0, 58, 58
1, 302940, Note_off_c, 0, 61, 59
1, 302980, Control_c, 0, 64, 119
1, 302985, Note_on_c, 0, 82, 103
1, 302988, Note_on_c, 0, 73, 104
1, 302989, Note_on_c, 0, 67, 104
1, 302990, Note_on_c, 0, 75, 99
1, 302994, Note_on_c, 0, 63, 98
1, 302995, Control_c, 0, 64, 80
1, 302995, Note_on_c, 0, 58, 85
1, 303009, Control_c, 0, 64, 0
1, 303039, Control_c, 0, 64, 46
1, 303054, Control_c, 0, 64, 78
1, 303068, Control_c, 0, 64, 108
1, 303075, Note_off_c, 0, 67, 54
1, 303077, Note_off_c, 0, 58, 57
1, 303083, Control_c, 0, 64, 127
1, 303085, Note_off_c, 0, 82, 58
1, 303105, Note_off_c, 0, 75, 59
1, 303109, Note_off_c, 0, 63, 56
1, 303117, Note_off_c, 0, 73, 50
1, 303192, Note_on_c, 0, 63, 91
1, 303194, Note_on_c, 0, 67, 83
1, 303197, Note_on_c, 0, 58, 85
1, 303210, Note_off_c, 0, 67, 75
1, 303212, Note_on_c, 0, 73, 100
1, 303212, Note_on_c, 0, 82, 102
1, 303215, Note_on_c, 0, 75, 100
1, 303231, Note_off_c, 0, 63, 67
1, 303242, Note_off_c, 0, 58, 63
1, 303251, Note_off_c, 0, 73, 68
1, 303257, Note_off_c, 0, 82, 67
1, 303264, Note_off_c, 0, 75, 69
1, 303486, Note_on_c, 0, 44, 104
1, 303489, Note_on_c, 0, 32, 97
1, 303492, Note_on_c, 0, 60, 110
1, 303506, Control_c, 0, 64, 126
1, 303521, Control_c, 0, 64, 85
1, 303536, Control_c, 0, 64, 0
1, 303544, Note_off_c, 0, 32, 65
1, 303550, Note_off_c, 0, 44, 65
1, 303565, Control_c, 0, 64, 52
1, 303578, Note_on_c, 0, 63, 88
1, 303580, Control_c, 0, 64, 73
1, 303595, Note_off_c, 0, 60, 57
1, 303595, Control_c, 0, 64, 100
1, 303610, Control_c, 0, 64, 127
1, 303658, Note_off_c, 0, 63, 64
1, 303660, Note_on_c, 0, 68, 78
1, 303681, Note_off_c, 0, 68, 69
1, 303739, Note_on_c, 0, 72, 96
1, 303811, Note_off_c, 0, 72, 65
1, 303823, Note_on_c, 0, 63, 103
1, 303824, Note_on_c, 0, 84, 105
1, 303832, Note_on_c, 0, 51, 86
1, 303836, Note_on_c, 0, 56, 82
1, 303863, Note_on_c, 0, 83, 39
1, 303864, Note_off_c, 0, 83, 127
1, 303902, Note_off_c, 0, 63, 60
1, 303910, Note_off_c, 0, 56, 60
1, 303925, Note_off_c, 0, 51, 56
1, 304005, Note_on_c, 0, 64, 104
1, 304011, Note_on_c, 0, 52, 88
1, 304013, Note_on_c, 0, 56, 91
1, 304038, Note_off_c, 0, 64, 69
1, 304052, Note_off_c, 0, 56, 69
1, 304053, Note_off_c, 0, 52, 68
1, 304074, Note_on_c, 0, 82, 86
1, 304106, Note_off_c, 0, 84, 60
1, 304144, Note_on_c, 0, 80, 82
1, 304193, Note_off_c, 0, 82, 64
1, 304214, Note_on_c, 0, 79, 88
1, 304225, Note_off_c, 0, 80, 62
1, 304285, Note_off_c, 0, 79, 63
1, 304291, Note_on_c, 0, 80, 86
1, 304343, Note_on_c, 0, 76, 79
1, 304345, Note_off_c, 0, 80, 65
1, 304375, Control_c, 0, 64, 107
1, 304389, Note_on_c, 0, 44, 99
1, 304389, Control_c, 0, 64, 80
1, 304404, Control_c, 0, 64, 67
1, 304413, Note_on_c, 0, 74, 93
1, 304419, Control_c, 0, 64, 71
1, 304430, Note_off_c, 0, 76, 65
1, 304433, Note_off_c, 0, 44, 66
1, 304433, Control_c, 0, 64, 80
1, 304442, Note_on_c, 0, 43, 22
1, 304448, Control_c, 0, 64, 98
1, 304463, Control_c, 0, 64, 127
1, 304482, Note_off_c, 0, 74, 65
1, 304485, Note_on_c, 0, 77, 96
1, 304493, Note_off_c, 0, 43, 48
1, 304554, Note_on_c, 0, 75, 86
1, 304599, Note_on_c, 0, 72, 84
1, 304616, Note_off_c, 0, 77, 60
1, 304654, Note_off_c, 0, 75, 67
1, 304670, Note_on_c, 0, 68, 90
1, 304684, Note_on_c, 0, 51, 92
1, 304691, Note_off_c, 0, 72, 65
1, 304732, Note_off_c, 0, 68, 66
1, 304737, Note_on_c, 0, 65, 88
1, 304789, Control_c, 0, 64, 87
1, 304804, Control_c, 0, 64, 0
1, 304822, Note_on_c, 0, 63, 106
1, 304828, Note_on_c, 0, 60, 102
1, 304846, Note_off_c, 0, 65, 68
1, 304929, Control_c, 0, 64, 92
1, 304945, Control_c, 0, 64, 127
1, 304997, Note_off_c, 0, 60, 56
1, 305025, Note_off_c, 0, 51, 52
1, 305099, Note_on_c, 0, 67, 91
1, 305102, Note_on_c, 0, 58, 106
1, 305104, Note_on_c, 0, 61, 89
1, 305105, Note_off_c, 0, 63, 63
1, 305136, Note_off_c, 0, 58, 66
1, 305174, Note_off_c, 0, 61, 59
1, 305269, Note_off_c, 0, 67, 60
1, 305286, Control_c, 0, 64, 99
1, 305292, Note_on_c, 0, 44, 111
1, 305297, Note_on_c, 0, 32, 98
1, 305299, Note_on_c, 0, 60, 92
1, 305301, Control_c, 0, 64, 69
1, 305316, Control_c, 0, 64, 0
1, 305324, Note_off_c, 0, 32, 69
1, 305334, Note_off_c, 0, 44, 65
1, 305345, Control_c, 0, 64, 64
1, 305360, Control_c, 0, 64, 87
1, 305375, Control_c, 0, 64, 127
1, 305377, Note_on_c, 0, 63, 81
1, 305391, Note_off_c, 0, 60, 55
1, 305427, Note_off_c, 0, 63, 65
1, 305428, Note_on_c, 0, 68, 81
1, 305470, Note_off_c, 0, 68, 61
1, 305471, Note_on_c, 0, 69, 41
1, 305498, Note_off_c, 0, 69, 53
1, 305514, Note_on_c, 0, 51, 81
1, 305516, Note_on_c, 0, 72, 90
1, 305529, Note_on_c, 0, 60, 67
1, 305569, Note_off_c, 0, 51, 65
1, 305582, Note_off_c, 0, 72, 66
1, 305592, Note_on_c, 0, 84, 101
1, 305608, Note_on_c, 0, 68, 96
1, 305666, Note_off_c, 0, 68, 66
1, 305725, Note_off_c, 0, 60, 28
1, 305763, Note_on_c, 0, 52, 96
1, 305801, Note_on_c, 0, 60, 83
1, 305809, Note_off_c, 0, 52, 68
1, 305815, Note_on_c, 0, 53, 38
1, 305841, Note_on_c, 0, 68, 104
1, 305845, Note_off_c, 0, 53, 46
1, 305856, Note_off_c, 0, 60, 64
1, 305864, Note_on_c, 0, 82, 81
1, 305877, Note_off_c, 0, 68, 69
1, 305904, Note_off_c, 0, 84, 59
1, 305931, Note_on_c, 0, 80, 83
1, 305976, Note_off_c, 0, 82, 64
1, 305993, Note_on_c, 0, 79, 84
1, 306005, Note_off_c, 0, 80, 65
1, 306068, Note_off_c, 0, 79, 62
1, 306070, Note_on_c, 0, 80, 83
1, 306119, Note_on_c, 0, 76, 79
1, 306120, Note_off_c, 0, 80, 66
1, 306151, Control_c, 0, 64, 113
1, 306166, Control_c, 0, 64, 83
1, 306181, Control_c, 0, 64, 0
1, 306184, Note_on_c, 0, 44, 101
1, 306193, Note_on_c, 0, 74, 94
1, 306206, Note_off_c, 0, 76, 66
1, 306211, Control_c, 0, 64, 57
1, 306222, Note_off_c, 0, 44, 66
1, 306226, Control_c, 0, 64, 75
1, 306241, Control_c, 0, 64, 96
1, 306256, Control_c, 0, 64, 127
1, 306262, Note_on_c, 0, 77, 92
1, 306262, Note_off_c, 0, 74, 64
1, 306333, Note_on_c, 0, 75, 84
1, 306378, Note_on_c, 0, 72, 86
1, 306385, Note_off_c, 0, 77, 62
1, 306453, Note_on_c, 0, 68, 87
1, 306456, Note_off_c, 0, 75, 63
1, 306475, Note_off_c, 0, 72, 65
1, 306495, Note_on_c, 0, 51, 89
1, 306513, Note_on_c, 0, 65, 86
1, 306514, Note_off_c, 0, 68, 65
1, 306560, Control_c, 0, 64, 108
1, 306575, Control_c, 0, 64, 83
1, 306583, Note_on_c, 0, 63, 99
1, 306590, Control_c, 0, 64, 0
1, 306607, Note_off_c, 0, 65, 68
1, 306626, Note_on_c, 0, 60, 98
1, 306634, Control_c, 0, 64, 70
1, 306649, Control_c, 0, 64, 97
1, 306664, Control_c, 0, 64, 127
1, 306722, Note_off_c, 0, 60, 57
1, 306769, Note_off_c, 0, 51, 36
1, 306876, Note_off_c, 0, 63, 61
1, 306877, Note_on_c, 0, 58, 106
1, 306880, Note_on_c, 0, 61, 91
1, 306881, Note_on_c, 0, 67, 90
1, 306906, Note_off_c, 0, 58, 71
1, 306952, Note_off_c, 0, 61, 61
1, 307019, Note_off_c, 0, 67, 61
1, 307046, Note_on_c, 0, 60, 93
1, 307049, Control_c, 0, 64, 103
1, 307051, Note_on_c, 0, 32, 104
1, 307064, Control_c, 0, 64, 68
1, 307079, Control_c, 0, 64, 0
1, 307080, Note_off_c, 0, 32, 66
1, 307108, Control_c, 0, 64, 62
1, 307123, Control_c, 0, 64, 85
1, 307132, Note_off_c, 0, 60, 60
1, 307135, Note_on_c, 0, 64, 67
1, 307138, Control_c, 0, 64, 127
1, 307171, Note_off_c, 0, 64, 67
1, 307174, Note_on_c, 0, 68, 75
1, 307201, Note_off_c, 0, 68, 56
1, 307218, Note_on_c, 0, 69, 28
1, 307254, Note_off_c, 0, 69, 44
1, 307255, Note_on_c, 0, 72, 97
1, 307308, Note_off_c, 0, 72, 66
1, 307325, Note_on_c, 0, 84, 108
1, 307338, Note_on_c, 0, 51, 95
1, 307347, Note_on_c, 0, 82, 53
1, 307358, Note_off_c, 0, 84, 72
1, 307368, Note_off_c, 0, 82, 62
1, 307376, Note_off_c, 0, 51, 66
1, 307508, Note_on_c, 0, 68, 106
1, 307512, Note_on_c, 0, 74, 104
1, 307514, Note_on_c, 0, 60, 90
1, 307542, Note_off_c, 0, 68, 71
1, 307549, Note_off_c, 0, 60, 66
1, 307583, Note_on_c, 0, 75, 83
1, 307607, Note_off_c, 0, 74, 59
1, 307624, Note_on_c, 0, 77, 86
1, 307627, Note_off_c, 0, 75, 65
1, 307654, Note_on_c, 0, 79, 49
1, 307678, Note_off_c, 0, 79, 50
1, 307689, Note_on_c, 0, 75, 81
1, 307691, Note_off_c, 0, 77, 63
1, 307731, Note_on_c, 0, 77, 69
1, 307747, Note_off_c, 0, 75, 65
1, 307783, Note_on_c, 0, 74, 83
1, 307788, Note_off_c, 0, 77, 63
1, 307827, Control_c, 0, 64, 125
1, 307839, Note_off_c, 0, 74, 63
1, 307841, Note_on_c, 0, 75, 93
1, 307842, Control_c, 0, 64, 89
1, 307852, Note_on_c, 0, 44, 102
1, 307856, Control_c, 0, 64, 64
1, 307871, Control_c, 0, 64, 0
1, 307886, Control_c, 0, 64, 63
1, 307892, Note_off_c, 0, 44, 66
1, 307909, Control_c, 0, 64, 80
1, 307912, Note_on_c, 0, 72, 94
1, 307924, Note_off_c, 0, 75, 63
1, 307924, Control_c, 0, 64, 126
1, 307938, Control_c, 0, 64, 127
1, 307965, Poly_aftertouch_c, 0, 75, 0
1, 307970, Note_on_c, 0, 75, 76
1, 307985, Note_off_c, 0, 72, 63
1, 308024, Note_on_c, 0, 80, 87
1, 308032, Note_off_c, 0, 75, 67
1, 308045, Note_off_c, 0, 80, 70
1, 308059, Note_on_c, 0, 78, 27
1, 308095, Note_off_c, 0, 78, 36
1, 308111, Note_on_c, 0, 84, 96
1, 308122, Poly_aftertouch_c, 0, 63, 0
1, 308152, Note_on_c, 0, 63, 82
1, 308164, Note_off_c, 0, 84, 66
1, 308175, Note_on_c, 0, 96, 109
1, 308204, Note_off_c, 0, 63, 65
1, 308210, Note_off_c, 0, 96, 69
1, 308351, Note_on_c, 0, 80, 101
1, 308357, Note_on_c, 0, 72, 87
1, 308365, Note_on_c, 0, 86, 106
1, 308386, Note_off_c, 0, 80, 70
1, 308392, Note_off_c, 0, 72, 69
1, 308438, Note_on_c, 0, 87, 81
1, 308442, Note_off_c, 0, 86, 53
1, 308474, Note_on_c, 0, 89, 85
1, 308484, Note_off_c, 0, 87, 64
1, 308500, Note_on_c, 0, 91, 60
1, 308518, Note_off_c, 0, 91, 58
1, 308538, Note_on_c, 0, 87, 81
1, 308545, Note_off_c, 0, 89, 66
1, 308586, Note_on_c, 0, 89, 66
1, 308599, Note_off_c, 0, 87, 64
1, 308636, Note_on_c, 0, 86, 89
1, 308638, Note_off_c, 0, 89, 65
1, 308660, Note_on_c, 0, 56, 84
1, 308700, Note_off_c, 0, 86, 66
1, 308702, Control_c, 0, 64, 101
1, 308703, Note_on_c, 0, 87, 96
1, 308717, Control_c, 0, 64, 72
1, 308718, Note_on_c, 0, 63, 86
1, 308731, Note_off_c, 0, 87, 66
1, 308732, Control_c, 0, 64, 0
1, 308742, Note_off_c, 0, 56, 65
1, 308747, Control_c, 0, 64, 64
1, 308761, Note_on_c, 0, 86, 29
1, 308761, Control_c, 0, 64, 78
1, 308769, Note_on_c, 0, 84, 97
1, 308776, Control_c, 0, 64, 104
1, 308784, Note_on_c, 0, 72, 96
1, 308791, Control_c, 0, 64, 127
1, 308795, Note_off_c, 0, 86, 49
1, 308795, Note_off_c, 0, 63, 65
1, 308810, Note_off_c, 0, 84, 69
1, 308830, Note_off_c, 0, 72, 68
1, 309021, Note_on_c, 0, 101, 109
1, 309120, Note_on_c, 0, 99, 94
1, 309180, Note_off_c, 0, 101, 61
1, 309204, Note_on_c, 0, 96, 83
1, 309222, Note_off_c, 0, 99, 69
1, 309264, Note_on_c, 0, 92, 87
1, 309281, Note_off_c, 0, 96, 64
1, 309308, Note_off_c, 0, 92, 65
1, 309324, Note_on_c, 0, 89, 80
1, 309356, Note_off_c, 0, 89, 65
1, 309389, Note_on_c, 0, 87, 91
1, 309458, Note_on_c, 0, 84, 75
1, 309477, Note_off_c, 0, 87, 63
1, 309497, Note_on_c, 0, 80, 87
1, 309519, Note_off_c, 0, 84, 64
1, 309543, Note_off_c, 0, 80, 66
1, 309564, Note_on_c, 0, 77, 76
1, 309585, Note_off_c, 0, 77, 67
1, 309621, Note_on_c, 0, 75, 89
1, 309674, Note_on_c, 0, 72, 81
1, 309683, Poly_aftertouch_c, 0, 74, 0
1, 309688, Note_off_c, 0, 75, 66
1, 309720, Note_on_c, 0, 68, 86
1, 309722, Poly_aftertouch_c, 0, 74, 0
1, 309748, Note_off_c, 0, 72, 66
1, 309773, Note_off_c, 0, 68, 65
1, 309778, Note_on_c, 0, 65, 83
1, 309807, Note_off_c, 0, 65, 66
1, 309836, Note_on_c, 0, 63, 95
1, 309871, Note_on_c, 0, 64, 7
1, 309881, Note_on_c, 0, 61, 47
1, 309890, Note_on_c, 0, 60, 83
1, 309916, Note_off_c, 0, 64, 37
1, 309930, Note_off_c, 0, 61, 64
1, 309946, Note_off_c, 0, 63, 66
1, 309947, Note_on_c, 0, 56, 69
1, 309961, Note_on_c, 0, 55, 79
1, 309978, Note_off_c, 0, 60, 62
1, 309982, Note_off_c, 0, 56, 0
1, 309982, Note_on_c, 0, 56, 20
1, 310003, Note_on_c, 0, 53, 90
1, 310006, Note_off_c, 0, 55, 65
1, 310014, Note_off_c, 0, 56, 45
1, 310041, Note_off_c, 0, 53, 68
1, 310075, Note_on_c, 0, 50, 91
1, 310104, Note_on_c, 0, 52, 43
1, 310112, Note_on_c, 0, 48, 67
1, 310125, Note_on_c, 0, 47, 50
1, 310133, Note_off_c, 0, 52, 56
1, 310158, Note_on_c, 0, 44, 89
1, 310172, Note_off_c, 0, 50, 60
1, 310181, Note_off_c, 0, 48, 65
1, 310207, Note_off_c, 0, 44, 64
1, 310208, Note_off_c, 0, 47, 0
1, 310215, Note_on_c, 0, 41, 91
1, 310241, Poly_aftertouch_c, 0, 47, 0
1, 310267, Note_on_c, 0, 39, 98
1, 310279, Note_off_c, 0, 41, 69
1, 310305, Note_on_c, 0, 37, 35
1, 310328, Note_off_c, 0, 39, 64
1, 310334, Note_on_c, 0, 32, 111
1, 310337, Note_off_c, 0, 37, 54
1, 310348, Control_c, 0, 64, 84
1, 310363, Control_c, 0, 64, 0
1, 310423, Control_c, 0, 64, 90
1, 310438, Control_c, 0, 64, 127
1, 310450, Poly_aftertouch_c, 0, 24, 0
1, 310459, Note_off_c, 0, 32, 63
1, 310774, Note_on_c, 0, 72, 99
1, 310775, Note_on_c, 0, 60, 99
1, 310775, Note_on_c, 0, 70, 93
1, 310778, Note_on_c, 0, 64, 96
1, 310779, Note_on_c, 0, 48, 106
1, 310787, Note_on_c, 0, 36, 94
1, 310823, Control_c, 0, 64, 110
1, 310828, Note_on_c, 0, 44, 21
1, 310838, Control_c, 0, 64, 76
1, 310852, Note_off_c, 0, 44, 53
1, 310853, Control_c, 0, 64, 0
1, 310920, Control_c, 0, 64, 80
1, 310935, Control_c, 0, 64, 121
1, 310949, Control_c, 0, 64, 127
1, 310988, Note_off_c, 0, 36, 63
1, 310992, Note_off_c, 0, 48, 65
1, 311008, Note_off_c, 0, 72, 66
1, 311014, Note_off_c, 0, 60, 61
1, 311017, Note_off_c, 0, 64, 62
1, 311019, Note_off_c, 0, 70, 60
1, 311227, Note_on_c, 0, 72, 106
1, 311228, Note_on_c, 0, 60, 103
1, 311233, Note_on_c, 0, 68, 90
1, 311234, Note_on_c, 0, 65, 88
1, 311235, Note_on_c, 0, 53, 106
1, 311241, Note_on_c, 0, 41, 97
1, 311265, Note_on_c, 0, 70, 32
1, 311290, Control_c, 0, 64, 88
1, 311293, Note_on_c, 0, 69, 30
1, 311302, Note_off_c, 0, 70, 50
1, 311305, Control_c, 0, 64, 0
1, 311315, Note_off_c, 0, 69, 52
1, 311324, Poly_aftertouch_c, 0, 43, 0
1, 311365, Control_c, 0, 64, 38
1, 311380, Control_c, 0, 64, 84
1, 311395, Control_c, 0, 64, 127
1, 311440, Note_off_c, 0, 60, 58
1, 311443, Note_off_c, 0, 72, 65
1, 311445, Note_off_c, 0, 53, 61
1, 311451, Note_off_c, 0, 41, 63
1, 311458, Note_off_c, 0, 65, 63
1, 311463, Note_off_c, 0, 68, 63
1, 311733, Note_on_c, 0, 75, 100
1, 311734, Note_on_c, 0, 61, 107
1, 311743, Note_on_c, 0, 70, 89
1, 311744, Note_on_c, 0, 51, 116
1, 311745, Note_on_c, 0, 67, 88
1, 311745, Note_on_c, 0, 73, 88
1, 311748, Note_on_c, 0, 63, 85
1, 311749, Note_on_c, 0, 39, 95
1, 311802, Control_c, 0, 64, 95
1, 311817, Control_c, 0, 64, 61
1, 311824, Poly_aftertouch_c, 0, 62, 0
1, 311831, Control_c, 0, 64, 0
1, 311891, Control_c, 0, 64, 69
1, 311905, Control_c, 0, 64, 104
1, 311920, Control_c, 0, 64, 127
1, 311931, Note_off_c, 0, 63, 55
1, 311960, Note_off_c, 0, 67, 57
1, 311961, Note_off_c, 0, 75, 60
1, 311964, Note_off_c, 0, 61, 61
1, 311970, Note_off_c, 0, 51, 58
1, 311976, Note_off_c, 0, 73, 58
1, 311978, Note_off_c, 0, 39, 60
1, 311990, Note_off_c, 0, 70, 62
1, 312402, Note_on_c, 0, 80, 102
1, 312404, Note_on_c, 0, 68, 99
1, 312405, Note_on_c, 0, 72, 94
1, 312408, Note_on_c, 0, 44, 103
1, 312411, Note_on_c, 0, 32, 96
1, 312520, Control_c, 0, 64, 91
1, 312535, Control_c, 0, 64, 64
1, 312550, Control_c, 0, 64, 0
1, 312787, Control_c, 0, 64, 56
1, 312802, Control_c, 0, 64, 66
1, 312817, Control_c, 0, 64, 69
1, 312832, Control_c, 0, 64, 73
1, 312846, Control_c, 0, 64, 78
1, 312861, Control_c, 0, 64, 85
1, 312876, Control_c, 0, 64, 91
1, 312891, Control_c, 0, 64, 96
1, 312906, Control_c, 0, 64, 100
1, 312921, Control_c, 0, 64, 105
1, 312936, Control_c, 0, 64, 113
1, 312951, Control_c, 0, 64, 127
1, 314425, Note_off_c, 0, 72, 50
1, 314438, Note_off_c, 0, 80, 56
1, 314444, Note_off_c, 0, 68, 55
1, 314452, Note_off_c, 0, 32, 52
1, 314468, Note_off_c, 0, 44, 48
1, 314568, Control_c, 0, 64, 115
1, 314583, Control_c, 0, 64, 97
1, 314597, Control_c, 0, 64, 79
1, 314612, Control_c, 0, 64, 38
1, 314627, Control_c, 0, 64, 0
1, 314627, End_track
0, 0, End_of_file
