0, 0, Header, 0, 1, 384
1, 0, Start_track
1, 0, Title_t, "Variations Serieuses-J. Kociuban"
1, 0, Text_t, "2008 e-Piano Junior Competition recital round"
1, 0, Text_t, "recorded July 2008"
1, 0, Text_t, "http://www.piano-e-competition.com/"
1, 0, Text_t, "File processed for distribution by software from Zenph Studios, Inc., http://www.zenph.com"
1, 0, Instrument_name_t, "Yamaha Disklavier Pro Mark IV concert grand piano, model DCFIIISM4PRO"
1, 0, Sequencer_specific, 39, 67, 113, 0, 1, 0, 1, 0, 86, 97, 114, 46, 32, 83, 101, 114, 105, 101, 117, 115, 101, 115, 32, 32, 74, 117, 108, 105, 97, 32, 75, 111, 99, 105, 117, 98, 97, 110, 32, 32
1, 0, Sequencer_specific, 6, 67, 113, 0, 0, 0, 69
1, 0, System_exclusive, 21, 67, 113, 126, 21, 0, 2, 2, 0, 3, 14, 1, 4, 1, 13, 13, 10, 11, 9, 2, 7, 247
1, 0, Sequencer_specific, 5, 67, 123, 12, 2, 1
1, 0, Tempo, 512820
1, 0, Time_signature, 4, 2, 24, 8
1, 0, System_exclusive, 5, 126, 127, 9, 1, 247
1, 1, System_exclusive, 8, 67, 16, 76, 0, 0, 126, 0, 247
1, 2, System_exclusive, 8, 67, 16, 76, 8, 9, 7, 1, 247
1, 3, Control_c, 0, 0, 0
1, 3, Control_c, 1, 0, 0
1, 3, Control_c, 2, 0, 0
1, 3, Control_c, 3, 0, 0
1, 3, Control_c, 4, 0, 0
1, 3, Control_c, 5, 0, 0
1, 3, Control_c, 6, 0, 0
1, 3, Control_c, 7, 0, 0
1, 3, Control_c, 8, 0, 0
1, 3, Control_c, 9, 0, 127
1, 3, Control_c, 10, 0, 0
1, 3, Control_c, 11, 0, 0
1, 3, Control_c, 12, 0, 0
1, 3, Control_c, 13, 0, 0
1, 3, Control_c, 14, 0, 0
1, 3, Control_c, 15, 0, 0
1, 4, Control_c, 0, 32, 0
1, 4, Control_c, 1, 32, 0
1, 4, Control_c, 2, 32, 0
1, 4, Control_c, 3, 32, 0
1, 4, Control_c, 4, 32, 0
1, 4, Control_c, 5, 32, 0
1, 4, Control_c, 6, 32, 0
1, 4, Control_c, 7, 32, 0
1, 4, Control_c, 8, 32, 0
1, 4, Control_c, 9, 32, 0
1, 4, Control_c, 10, 32, 0
1, 4, Control_c, 11, 32, 0
1, 4, Control_c, 12, 32, 0
1, 4, Control_c, 13, 32, 0
1, 4, Control_c, 14, 32, 0
1, 4, Control_c, 15, 32, 0
1, 5, Program_c, 0, 0
1, 5, Program_c, 1, 0
1, 5, Program_c, 2, 0
1, 5, Program_c, 3, 0
1, 5, Program_c, 4, 0
1, 5, Program_c, 5, 0
1, 5, Program_c, 6, 0
1, 5, Program_c, 7, 0
1, 5, Program_c, 8, 0
1, 5, Program_c, 9, 0
1, 5, Program_c, 10, 0
1, 5, Program_c, 11, 0
1, 5, Program_c, 12, 0
1, 5, Program_c, 13, 0
1, 5, Program_c, 14, 0
1, 5, Program_c, 15, 0
1, 6, Control_c, 0, 7, 100
1, 6, Control_c, 1, 7, 100
1, 6, Control_c, 2, 7, 100
1, 6, Control_c, 3, 7, 100
1, 6, Control_c, 4, 7, 100
1, 6, Control_c, 5, 7, 100
1, 6, Control_c, 6, 7, 100
1, 6, Control_c, 7, 7, 100
1, 6, Control_c, 8, 7, 100
1, 6, Control_c, 9, 7, 100
1, 6, Control_c, 10, 7, 100
1, 6, Control_c, 11, 7, 100
1, 6, Control_c, 12, 7, 100
1, 6, Control_c, 13, 7, 100
1, 6, Control_c, 14, 7, 100
1, 6, Control_c, 15, 7, 100
1, 117, Control_c, 0, 67, 6
1, 229, Control_c, 0, 67, 12
1, 341, Control_c, 0, 67, 18
1, 452, Control_c, 0, 67, 24
1, 564, Control_c, 0, 67, 30
1, 676, Control_c, 0, 67, 36
1, 787, Control_c, 0, 67, 42
1, 899, Control_c, 0, 67, 49
1, 1131, Note_on_c, 0, 69, 65
1, 1150, Note_on_c, 0, 65, 46
1, 1157, Note_on_c, 0, 50, 29
1, 1160, Note_on_c, 0, 62, 32
1, 1255, Control_c, 0, 67, 48
1, 1582, Control_c, 0, 67, 48
1, 1694, Note_on_c, 0, 60, 34
1, 1697, Note_on_c, 0, 64, 38
1, 1700, Control_c, 0, 67, 47
1, 1715, Note_off_c, 0, 65, 37
1, 1736, Note_off_c, 0, 62, 33
1, 1782, Control_c, 0, 64, 50
1, 1797, Control_c, 0, 64, 61
1, 1811, Control_c, 0, 64, 64
1, 1826, Control_c, 0, 64, 65
1, 1841, Control_c, 0, 64, 67
1, 1856, Control_c, 0, 64, 69
1, 1871, Control_c, 0, 64, 72
1, 1885, Control_c, 0, 64, 74
1, 1885, Control_c, 0, 67, 47
1, 1900, Control_c, 0, 64, 76
1, 1915, Control_c, 0, 64, 77
1, 1930, Control_c, 0, 64, 78
1, 1931, Note_off_c, 0, 50, 39
1, 1945, Control_c, 0, 64, 79
1, 1960, Control_c, 0, 67, 46
1, 1974, Control_c, 0, 64, 80
1, 2138, Control_c, 0, 64, 79
1, 2183, Control_c, 0, 64, 79
1, 2213, Control_c, 0, 64, 78
1, 2227, Control_c, 0, 64, 78
1, 2242, Control_c, 0, 64, 77
1, 2257, Control_c, 0, 64, 76
1, 2272, Control_c, 0, 64, 75
1, 2276, Note_off_c, 0, 64, 35
1, 2276, Note_off_c, 0, 60, 26
1, 2287, Control_c, 0, 64, 74
1, 2295, Note_on_c, 0, 62, 39
1, 2301, Control_c, 0, 64, 72
1, 2303, Note_on_c, 0, 59, 26
1, 2309, Note_on_c, 0, 52, 33
1, 2316, Control_c, 0, 64, 70
1, 2331, Control_c, 0, 64, 66
1, 2346, Control_c, 0, 64, 62
1, 2360, Control_c, 0, 64, 50
1, 2375, Control_c, 0, 64, 20
1, 2390, Control_c, 0, 64, 0
1, 2839, Note_off_c, 0, 69, 57
1, 2895, Note_on_c, 0, 68, 44
1, 2946, Control_c, 0, 64, 13
1, 2961, Control_c, 0, 64, 57
1, 2961, Control_c, 0, 67, 46
1, 2976, Control_c, 0, 64, 64
1, 2991, Control_c, 0, 64, 66
1, 3006, Control_c, 0, 64, 69
1, 3021, Control_c, 0, 64, 72
1, 3036, Control_c, 0, 64, 76
1, 3036, Control_c, 0, 67, 45
1, 3050, Control_c, 0, 64, 79
1, 3050, Control_c, 0, 67, 45
1, 3054, Note_off_c, 0, 62, 40
1, 3065, Control_c, 0, 64, 82
1, 3080, Control_c, 0, 64, 83
1, 3084, Note_off_c, 0, 52, 42
1, 3094, Control_c, 0, 64, 84
1, 3094, Control_c, 0, 67, 44
1, 3105, Note_off_c, 0, 68, 62
1, 3109, Control_c, 0, 64, 86
1, 3109, Control_c, 0, 67, 40
1, 3124, Control_c, 0, 64, 86
1, 3124, Control_c, 0, 67, 35
1, 3129, Note_off_c, 0, 59, 41
1, 3139, Control_c, 0, 67, 28
1, 3154, Control_c, 0, 67, 21
1, 3168, Control_c, 0, 67, 17
1, 3183, Control_c, 0, 67, 15
1, 3206, Control_c, 0, 67, 14
1, 3221, Control_c, 0, 67, 13
1, 3236, Control_c, 0, 67, 12
1, 3340, Control_c, 0, 64, 86
1, 3384, Control_c, 0, 64, 85
1, 3384, Control_c, 0, 67, 12
1, 3414, Control_c, 0, 67, 13
1, 3429, Control_c, 0, 64, 85
1, 3458, Control_c, 0, 64, 84
1, 3473, Control_c, 0, 64, 84
1, 3502, Control_c, 0, 64, 83
1, 3517, Control_c, 0, 64, 83
1, 3532, Control_c, 0, 64, 82
1, 3547, Control_c, 0, 64, 82
1, 3562, Control_c, 0, 64, 81
1, 3576, Control_c, 0, 64, 80
1, 3591, Control_c, 0, 64, 80
1, 3606, Control_c, 0, 64, 79
1, 3621, Control_c, 0, 64, 78
1, 3634, Note_on_c, 0, 74, 62
1, 3636, Control_c, 0, 64, 76
1, 3643, Note_on_c, 0, 70, 45
1, 3646, Note_on_c, 0, 55, 41
1, 3648, Note_on_c, 0, 67, 42
1, 3650, Control_c, 0, 64, 74
1, 3665, Control_c, 0, 64, 72
1, 3680, Control_c, 0, 64, 68
1, 3694, Control_c, 0, 64, 64
1, 3709, Control_c, 0, 64, 58
1, 3725, Control_c, 0, 64, 44
1, 3740, Control_c, 0, 64, 32
1, 3755, Control_c, 0, 64, 27
1, 3770, Control_c, 0, 64, 25
1, 3785, Control_c, 0, 64, 18
1, 3799, Control_c, 0, 64, 0
1, 4207, Control_c, 0, 67, 12
1, 4229, Note_on_c, 0, 69, 45
1, 4236, Note_on_c, 0, 65, 35
1, 4247, Note_off_c, 0, 70, 50
1, 4251, Control_c, 0, 67, 12
1, 4277, Note_off_c, 0, 67, 27
1, 4340, Control_c, 0, 67, 11
1, 4385, Control_c, 0, 64, 57
1, 4399, Control_c, 0, 64, 64
1, 4414, Control_c, 0, 64, 67
1, 4429, Control_c, 0, 64, 70
1, 4443, Control_c, 0, 64, 74
1, 4458, Control_c, 0, 64, 78
1, 4473, Control_c, 0, 64, 80
1, 4473, Control_c, 0, 67, 11
1, 4481, Note_off_c, 0, 55, 41
1, 4488, Control_c, 0, 64, 82
1, 4503, Control_c, 0, 64, 82
1, 4519, Control_c, 0, 64, 83
1, 4719, Control_c, 0, 64, 83
1, 4748, Control_c, 0, 64, 82
1, 4763, Control_c, 0, 64, 82
1, 4778, Control_c, 0, 64, 81
1, 4793, Control_c, 0, 64, 81
1, 4808, Control_c, 0, 64, 80
1, 4819, Note_off_c, 0, 69, 37
1, 4822, Control_c, 0, 64, 79
1, 4832, Note_on_c, 0, 64, 39
1, 4833, Note_on_c, 0, 67, 44
1, 4837, Control_c, 0, 64, 79
1, 4843, Note_on_c, 0, 57, 36
1, 4852, Control_c, 0, 64, 78
1, 4867, Control_c, 0, 64, 76
1, 4881, Control_c, 0, 64, 74
1, 4896, Control_c, 0, 64, 72
1, 4911, Control_c, 0, 64, 68
1, 4922, Note_off_c, 0, 65, 30
1, 4926, Control_c, 0, 64, 64
1, 4941, Control_c, 0, 64, 55
1, 4955, Control_c, 0, 64, 38
1, 4970, Control_c, 0, 64, 16
1, 4985, Control_c, 0, 64, 0
1, 5237, Control_c, 0, 67, 11
1, 5252, Control_c, 0, 67, 12
1, 5267, Control_c, 0, 67, 12
1, 5281, Control_c, 0, 67, 13
1, 5327, Control_c, 0, 67, 13
1, 5357, Control_c, 0, 67, 14
1, 5371, Control_c, 0, 67, 14
1, 5386, Control_c, 0, 67, 15
1, 5401, Control_c, 0, 67, 16
1, 5416, Control_c, 0, 67, 17
1, 5431, Control_c, 0, 67, 17
1, 5436, Note_off_c, 0, 74, 53
1, 5453, Control_c, 0, 67, 18
1, 5467, Control_c, 0, 67, 19
1, 5470, Note_on_c, 0, 73, 46
1, 5482, Control_c, 0, 67, 20
1, 5496, Control_c, 0, 67, 21
1, 5511, Control_c, 0, 67, 23
1, 5526, Control_c, 0, 67, 26
1, 5541, Control_c, 0, 67, 30
1, 5556, Control_c, 0, 67, 34
1, 5570, Control_c, 0, 64, 59
1, 5570, Control_c, 0, 67, 37
1, 5585, Control_c, 0, 64, 67
1, 5585, Control_c, 0, 67, 41
1, 5600, Control_c, 0, 64, 71
1, 5600, Control_c, 0, 67, 45
1, 5615, Control_c, 0, 64, 75
1, 5615, Control_c, 0, 67, 48
1, 5630, Control_c, 0, 64, 79
1, 5630, Control_c, 0, 67, 50
1, 5644, Control_c, 0, 64, 81
1, 5644, Control_c, 0, 67, 50
1, 5659, Control_c, 0, 64, 83
1, 5659, Control_c, 0, 67, 50
1, 5674, Control_c, 0, 64, 84
1, 5674, Control_c, 0, 67, 49
1, 5675, Note_off_c, 0, 67, 42
1, 5689, Control_c, 0, 64, 84
1, 5689, Control_c, 0, 67, 49
1, 5710, Note_off_c, 0, 64, 62
1, 5733, Control_c, 0, 67, 48
1, 5739, Note_off_c, 0, 57, 37
1, 5764, Note_off_c, 0, 73, 34
1, 5778, Control_c, 0, 67, 48
1, 5823, Control_c, 0, 64, 84
1, 5852, Control_c, 0, 67, 47
1, 5867, Control_c, 0, 64, 83
1, 5867, Control_c, 0, 67, 47
1, 5896, Control_c, 0, 64, 83
1, 5911, Control_c, 0, 67, 46
1, 5926, Control_c, 0, 64, 82
1, 5941, Control_c, 0, 64, 82
1, 5970, Control_c, 0, 64, 81
1, 6000, Control_c, 0, 64, 81
1, 6000, Control_c, 0, 67, 46
1, 6014, Control_c, 0, 64, 80
1, 6029, Control_c, 0, 64, 80
1, 6044, Control_c, 0, 64, 79
1, 6059, Control_c, 0, 64, 79
1, 6074, Control_c, 0, 64, 78
1, 6089, Control_c, 0, 64, 76
1, 6103, Control_c, 0, 64, 74
1, 6110, Note_on_c, 0, 77, 52
1, 6119, Control_c, 0, 64, 71
1, 6124, Note_on_c, 0, 65, 45
1, 6130, Note_on_c, 0, 62, 36
1, 6134, Control_c, 0, 64, 66
1, 6149, Control_c, 0, 64, 60
1, 6164, Control_c, 0, 64, 29
1, 6179, Control_c, 0, 64, 0
1, 6201, Control_c, 0, 67, 45
1, 6231, Control_c, 0, 67, 45
1, 6276, Control_c, 0, 67, 44
1, 6320, Control_c, 0, 64, 48
1, 6320, Control_c, 0, 67, 44
1, 6335, Control_c, 0, 64, 61
1, 6350, Control_c, 0, 64, 66
1, 6365, Control_c, 0, 64, 68
1, 6365, Control_c, 0, 67, 43
1, 6380, Control_c, 0, 64, 71
1, 6380, Control_c, 0, 67, 43
1, 6394, Control_c, 0, 64, 75
1, 6409, Control_c, 0, 64, 77
1, 6422, Note_off_c, 0, 65, 61
1, 6424, Control_c, 0, 64, 79
1, 6439, Control_c, 0, 64, 79
1, 6439, Control_c, 0, 67, 42
1, 6587, Control_c, 0, 64, 79
1, 6601, Control_c, 0, 64, 78
1, 6616, Control_c, 0, 64, 78
1, 6631, Control_c, 0, 64, 77
1, 6631, Control_c, 0, 67, 42
1, 6646, Control_c, 0, 64, 75
1, 6660, Control_c, 0, 64, 73
1, 6675, Control_c, 0, 64, 71
1, 6676, Note_on_c, 0, 76, 64
1, 6686, Note_on_c, 0, 67, 52
1, 6690, Control_c, 0, 64, 69
1, 6699, Note_on_c, 0, 61, 41
1, 6705, Control_c, 0, 64, 68
1, 6711, Note_off_c, 0, 77, 58
1, 6712, Note_on_c, 0, 57, 30
1, 6720, Control_c, 0, 64, 67
1, 6739, Note_off_c, 0, 62, 38
1, 6765, Control_c, 0, 64, 68
1, 6780, Control_c, 0, 64, 68
1, 6794, Control_c, 0, 64, 69
1, 6794, Control_c, 0, 67, 41
1, 6809, Control_c, 0, 64, 70
1, 6824, Control_c, 0, 64, 71
1, 6838, Control_c, 0, 64, 71
1, 6838, Control_c, 0, 67, 41
1, 6853, Control_c, 0, 64, 72
1, 6868, Control_c, 0, 64, 72
1, 6868, Control_c, 0, 67, 40
1, 6898, Control_c, 0, 67, 40
1, 6914, Control_c, 0, 67, 39
1, 6921, Note_off_c, 0, 67, 62
1, 6929, Control_c, 0, 67, 39
1, 6950, Control_c, 0, 67, 38
1, 6965, Control_c, 0, 67, 38
1, 7024, Control_c, 0, 64, 72
1, 7069, Control_c, 0, 67, 38
1, 7084, Control_c, 0, 64, 71
1, 7114, Control_c, 0, 64, 71
1, 7143, Control_c, 0, 64, 70
1, 7158, Control_c, 0, 64, 70
1, 7173, Control_c, 0, 64, 69
1, 7188, Control_c, 0, 64, 67
1, 7203, Control_c, 0, 64, 66
1, 7206, Note_on_c, 0, 74, 68
1, 7212, Note_off_c, 0, 61, 38
1, 7213, Note_on_c, 0, 62, 40
1, 7217, Control_c, 0, 64, 63
1, 7227, Note_on_c, 0, 65, 50
1, 7232, Control_c, 0, 64, 59
1, 7234, Note_on_c, 0, 58, 39
1, 7247, Control_c, 0, 64, 48
1, 7257, Note_off_c, 0, 76, 55
1, 7262, Control_c, 0, 64, 0
1, 7279, Note_off_c, 0, 57, 34
1, 7350, Control_c, 0, 67, 38
1, 7395, Control_c, 0, 64, 43
1, 7410, Control_c, 0, 64, 58
1, 7410, Control_c, 0, 67, 38
1, 7424, Control_c, 0, 64, 63
1, 7439, Control_c, 0, 64, 65
1, 7454, Control_c, 0, 64, 67
1, 7468, Control_c, 0, 64, 68
1, 7482, Note_off_c, 0, 65, 62
1, 7483, Control_c, 0, 64, 69
1, 7498, Control_c, 0, 64, 70
1, 7513, Control_c, 0, 64, 71
1, 7528, Control_c, 0, 64, 72
1, 7528, Control_c, 0, 67, 39
1, 7543, Control_c, 0, 64, 73
1, 7553, Note_off_c, 0, 58, 61
1, 7558, Control_c, 0, 64, 73
1, 7573, Control_c, 0, 67, 39
1, 7676, Control_c, 0, 64, 73
1, 7698, Control_c, 0, 64, 72
1, 7713, Control_c, 0, 64, 71
1, 7719, Note_off_c, 0, 62, 52
1, 7729, Control_c, 0, 64, 70
1, 7744, Control_c, 0, 64, 69
1, 7759, Control_c, 0, 64, 67
1, 7773, Control_c, 0, 64, 66
1, 7776, Note_on_c, 0, 72, 65
1, 7788, Control_c, 0, 64, 64
1, 7790, Note_off_c, 0, 74, 38
1, 7796, Note_on_c, 0, 69, 49
1, 7803, Control_c, 0, 64, 63
1, 7806, Note_on_c, 0, 53, 41
1, 7809, Note_on_c, 0, 65, 37
1, 7818, Control_c, 0, 64, 59
1, 7833, Control_c, 0, 64, 47
1, 7847, Control_c, 0, 64, 24
1, 7862, Control_c, 0, 64, 0
1, 7892, Control_c, 0, 67, 39
1, 7921, Control_c, 0, 64, 34
1, 7921, Control_c, 0, 67, 38
1, 7936, Control_c, 0, 64, 56
1, 7951, Control_c, 0, 64, 63
1, 7966, Control_c, 0, 64, 66
1, 7981, Control_c, 0, 64, 68
1, 7996, Control_c, 0, 64, 71
1, 7996, Control_c, 0, 67, 38
1, 8011, Control_c, 0, 64, 73
1, 8013, Note_off_c, 0, 69, 56
1, 8014, Note_off_c, 0, 72, 58
1, 8026, Control_c, 0, 64, 76
1, 8041, Control_c, 0, 64, 76
1, 8041, Control_c, 0, 67, 37
1, 8080, Note_off_c, 0, 53, 36
1, 8085, Control_c, 0, 64, 77
1, 8085, Control_c, 0, 67, 37
1, 8173, Control_c, 0, 64, 76
1, 8218, Control_c, 0, 64, 76
1, 8247, Control_c, 0, 64, 75
1, 8262, Control_c, 0, 64, 75
1, 8291, Control_c, 0, 64, 74
1, 8306, Control_c, 0, 64, 74
1, 8321, Control_c, 0, 64, 73
1, 8336, Control_c, 0, 64, 73
1, 8351, Control_c, 0, 64, 72
1, 8366, Control_c, 0, 64, 71
1, 8380, Control_c, 0, 64, 70
1, 8395, Control_c, 0, 64, 70
1, 8410, Control_c, 0, 64, 69
1, 8425, Control_c, 0, 64, 67
1, 8446, Note_on_c, 0, 72, 62
1, 8447, Control_c, 0, 64, 66
1, 8453, Note_on_c, 0, 67, 43
1, 8462, Note_on_c, 0, 64, 35
1, 8462, Control_c, 0, 64, 65
1, 8463, Note_off_c, 0, 65, 30
1, 8475, Note_on_c, 0, 55, 36
1, 8477, Control_c, 0, 64, 63
1, 8491, Control_c, 0, 64, 60
1, 8506, Control_c, 0, 64, 56
1, 8522, Control_c, 0, 64, 51
1, 8537, Control_c, 0, 64, 47
1, 8552, Control_c, 0, 64, 43
1, 8567, Control_c, 0, 64, 39
1, 8582, Control_c, 0, 64, 30
1, 8596, Control_c, 0, 64, 10
1, 8596, Control_c, 0, 67, 36
1, 8611, Control_c, 0, 64, 0
1, 8922, Control_c, 0, 67, 36
1, 9071, Note_off_c, 0, 67, 51
1, 9102, Note_on_c, 0, 65, 38
1, 9108, Note_on_c, 0, 62, 28
1, 9129, Note_off_c, 0, 64, 41
1, 9225, Control_c, 0, 67, 35
1, 9344, Control_c, 0, 67, 35
1, 9345, Note_off_c, 0, 72, 56
1, 9359, Control_c, 0, 64, 16
1, 9359, Control_c, 0, 67, 34
1, 9371, Note_on_c, 0, 70, 51
1, 9374, Control_c, 0, 64, 61
1, 9374, Control_c, 0, 67, 31
1, 9389, Control_c, 0, 64, 64
1, 9389, Control_c, 0, 67, 29
1, 9404, Control_c, 0, 64, 66
1, 9404, Control_c, 0, 67, 29
1, 9415, Note_off_c, 0, 65, 43
1, 9418, Control_c, 0, 64, 67
1, 9433, Control_c, 0, 64, 69
1, 9433, Control_c, 0, 67, 28
1, 9448, Control_c, 0, 64, 71
1, 9462, Control_c, 0, 64, 73
1, 9477, Control_c, 0, 64, 74
1, 9492, Control_c, 0, 64, 75
1, 9507, Control_c, 0, 64, 76
1, 9650, Note_off_c, 0, 55, 36
1, 9670, Control_c, 0, 64, 75
1, 9700, Control_c, 0, 64, 75
1, 9730, Control_c, 0, 64, 74
1, 9744, Control_c, 0, 64, 73
1, 9759, Control_c, 0, 64, 72
1, 9774, Control_c, 0, 64, 71
1, 9789, Note_on_c, 0, 69, 44
1, 9789, Control_c, 0, 64, 69
1, 9791, Note_on_c, 0, 61, 35
1, 9792, Note_off_c, 0, 62, 35
1, 9796, Note_on_c, 0, 64, 30
1, 9800, Note_on_c, 0, 57, 29
1, 9804, Control_c, 0, 64, 68
1, 9818, Control_c, 0, 64, 66
1, 9833, Control_c, 0, 64, 64
1, 9848, Control_c, 0, 64, 58
1, 9862, Control_c, 0, 64, 47
1, 9877, Control_c, 0, 64, 32
1, 9889, Note_off_c, 0, 70, 12
1, 9892, Control_c, 0, 64, 13
1, 9907, Control_c, 0, 64, 0
1, 10049, Control_c, 0, 67, 29
1, 10093, Control_c, 0, 67, 29
1, 10124, Control_c, 0, 67, 30
1, 10154, Control_c, 0, 67, 30
1, 10242, Control_c, 0, 67, 31
1, 10316, Control_c, 0, 67, 31
1, 10346, Control_c, 0, 64, 41
1, 10346, Control_c, 0, 67, 32
1, 10360, Control_c, 0, 64, 58
1, 10360, Control_c, 0, 67, 32
1, 10375, Control_c, 0, 64, 61
1, 10390, Control_c, 0, 64, 63
1, 10390, Control_c, 0, 67, 33
1, 10405, Control_c, 0, 64, 65
1, 10420, Control_c, 0, 64, 68
1, 10420, Control_c, 0, 67, 35
1, 10434, Control_c, 0, 64, 70
1, 10434, Control_c, 0, 67, 35
1, 10449, Control_c, 0, 64, 73
1, 10449, Control_c, 0, 67, 36
1, 10464, Control_c, 0, 64, 75
1, 10464, Control_c, 0, 67, 37
1, 10479, Control_c, 0, 64, 77
1, 10494, Control_c, 0, 64, 78
1, 10494, Control_c, 0, 67, 38
1, 10509, Control_c, 0, 64, 80
1, 10509, Control_c, 0, 67, 38
1, 10524, Control_c, 0, 64, 81
1, 10524, Control_c, 0, 67, 39
1, 10536, Note_off_c, 0, 64, 35
1, 10539, Control_c, 0, 64, 82
1, 10539, Control_c, 0, 67, 40
1, 10553, Control_c, 0, 64, 83
1, 10553, Control_c, 0, 67, 42
1, 10568, Control_c, 0, 64, 83
1, 10568, Control_c, 0, 67, 45
1, 10583, Control_c, 0, 67, 48
1, 10598, Control_c, 0, 67, 52
1, 10612, Control_c, 0, 67, 56
1, 10623, Note_off_c, 0, 69, 40
1, 10627, Control_c, 0, 67, 61
1, 10642, Control_c, 0, 67, 66
1, 10657, Control_c, 0, 67, 71
1, 10672, Control_c, 0, 67, 76
1, 10694, Control_c, 0, 67, 81
1, 10702, Note_off_c, 0, 57, 40
1, 10708, Control_c, 0, 67, 86
1, 10723, Control_c, 0, 67, 91
1, 10738, Control_c, 0, 67, 94
1, 10753, Control_c, 0, 67, 96
1, 10767, Control_c, 0, 67, 97
1, 10782, Control_c, 0, 67, 97
1, 10791, Note_off_c, 0, 61, 41
1, 10797, Control_c, 0, 67, 98
1, 10812, Control_c, 0, 67, 100
1, 10826, Control_c, 0, 67, 103
1, 10841, Control_c, 0, 67, 106
1, 10856, Control_c, 0, 67, 109
1, 10871, Control_c, 0, 67, 111
1, 10886, Control_c, 0, 67, 112
1, 10976, Control_c, 0, 67, 111
1, 10990, Control_c, 0, 64, 83
1, 11005, Control_c, 0, 67, 111
1, 11035, Control_c, 0, 64, 82
1, 11050, Control_c, 0, 67, 110
1, 11079, Control_c, 0, 64, 82
1, 11123, Control_c, 0, 64, 81
1, 11168, Control_c, 0, 64, 81
1, 11197, Control_c, 0, 64, 80
1, 11227, Control_c, 0, 64, 80
1, 11227, Control_c, 0, 67, 110
1, 11242, Control_c, 0, 64, 79
1, 11257, Control_c, 0, 64, 78
1, 11272, Control_c, 0, 64, 77
1, 11287, Control_c, 0, 64, 75
1, 11287, Control_c, 0, 67, 109
1, 11296, Note_on_c, 0, 69, 76
1, 11302, Control_c, 0, 64, 74
1, 11316, Control_c, 0, 64, 71
1, 11316, Control_c, 0, 67, 109
1, 11317, Note_on_c, 0, 65, 52
1, 11328, Note_on_c, 0, 62, 38
1, 11329, Note_on_c, 0, 50, 41
1, 11331, Control_c, 0, 64, 68
1, 11346, Control_c, 0, 64, 64
1, 11361, Control_c, 0, 64, 57
1, 11376, Control_c, 0, 64, 39
1, 11376, Control_c, 0, 67, 108
1, 11390, Control_c, 0, 64, 32
1, 11405, Control_c, 0, 64, 34
1, 11420, Control_c, 0, 64, 32
1, 11442, Control_c, 0, 64, 23
1, 11456, Control_c, 0, 64, 0
1, 11753, Control_c, 0, 67, 108
1, 11783, Control_c, 0, 67, 107
1, 11812, Control_c, 0, 67, 107
1, 11857, Control_c, 0, 67, 106
1, 11889, Note_on_c, 0, 64, 47
1, 11890, Note_on_c, 0, 60, 36
1, 11898, Note_off_c, 0, 65, 50
1, 11901, Control_c, 0, 64, 47
1, 11916, Control_c, 0, 64, 59
1, 11916, Control_c, 0, 67, 106
1, 11931, Control_c, 0, 64, 62
1, 11946, Control_c, 0, 64, 64
1, 11947, Note_off_c, 0, 62, 33
1, 11960, Control_c, 0, 64, 66
1, 11975, Control_c, 0, 64, 68
1, 11990, Control_c, 0, 64, 71
1, 11990, Control_c, 0, 67, 105
1, 12005, Control_c, 0, 64, 73
1, 12020, Control_c, 0, 64, 76
1, 12035, Control_c, 0, 64, 78
1, 12050, Control_c, 0, 64, 80
1, 12064, Control_c, 0, 64, 81
1, 12079, Control_c, 0, 64, 83
1, 12092, Note_off_c, 0, 50, 37
1, 12094, Control_c, 0, 64, 84
1, 12109, Control_c, 0, 64, 85
1, 12124, Control_c, 0, 64, 86
1, 12138, Control_c, 0, 64, 86
1, 12220, Control_c, 0, 67, 106
1, 12294, Control_c, 0, 67, 106
1, 12368, Control_c, 0, 64, 86
1, 12412, Control_c, 0, 64, 85
1, 12420, Note_off_c, 0, 64, 48
1, 12427, Control_c, 0, 64, 84
1, 12439, Note_on_c, 0, 62, 43
1, 12442, Control_c, 0, 64, 83
1, 12446, Note_off_c, 0, 60, 28
1, 12452, Note_on_c, 0, 59, 34
1, 12457, Control_c, 0, 64, 81
1, 12469, Note_on_c, 0, 52, 33
1, 12471, Control_c, 0, 64, 79
1, 12486, Control_c, 0, 64, 77
1, 12501, Control_c, 0, 64, 74
1, 12517, Control_c, 0, 64, 71
1, 12532, Control_c, 0, 64, 65
1, 12547, Control_c, 0, 64, 52
1, 12561, Control_c, 0, 64, 0
1, 12873, Control_c, 0, 67, 106
1, 12960, Note_off_c, 0, 69, 60
1, 12987, Note_on_c, 0, 68, 52
1, 13073, Control_c, 0, 64, 56
1, 13087, Control_c, 0, 64, 65
1, 13102, Control_c, 0, 64, 69
1, 13117, Control_c, 0, 64, 73
1, 13132, Control_c, 0, 64, 77
1, 13132, Control_c, 0, 67, 105
1, 13147, Control_c, 0, 64, 80
1, 13162, Control_c, 0, 64, 82
1, 13166, Note_off_c, 0, 62, 50
1, 13177, Control_c, 0, 64, 84
1, 13192, Control_c, 0, 64, 85
1, 13197, Note_off_c, 0, 68, 56
1, 13206, Control_c, 0, 64, 85
1, 13207, Note_off_c, 0, 52, 54
1, 13272, Note_off_c, 0, 59, 39
1, 13370, Control_c, 0, 67, 105
1, 13400, Control_c, 0, 64, 85
1, 13430, Control_c, 0, 64, 84
1, 13430, Control_c, 0, 67, 104
1, 13459, Control_c, 0, 64, 84
1, 13489, Control_c, 0, 64, 83
1, 13518, Control_c, 0, 64, 83
1, 13548, Control_c, 0, 64, 82
1, 13578, Control_c, 0, 64, 82
1, 13592, Control_c, 0, 64, 81
1, 13607, Control_c, 0, 64, 81
1, 13622, Control_c, 0, 64, 80
1, 13636, Control_c, 0, 64, 80
1, 13651, Control_c, 0, 64, 79
1, 13666, Control_c, 0, 64, 78
1, 13689, Control_c, 0, 64, 78
1, 13700, Note_on_c, 0, 67, 60
1, 13704, Control_c, 0, 64, 77
1, 13711, Note_on_c, 0, 63, 45
1, 13718, Control_c, 0, 64, 76
1, 13724, Note_on_c, 0, 60, 31
1, 13727, Note_on_c, 0, 48, 38
1, 13733, Control_c, 0, 64, 74
1, 13748, Control_c, 0, 64, 72
1, 13763, Control_c, 0, 64, 68
1, 13778, Control_c, 0, 64, 63
1, 13792, Control_c, 0, 64, 52
1, 13807, Control_c, 0, 64, 37
1, 13822, Control_c, 0, 64, 32
1, 13851, Control_c, 0, 64, 30
1, 13866, Control_c, 0, 64, 23
1, 13881, Control_c, 0, 64, 0
1, 14208, Control_c, 0, 67, 105
1, 14238, Control_c, 0, 67, 105
1, 14282, Control_c, 0, 67, 106
1, 14288, Note_off_c, 0, 63, 52
1, 14294, Note_on_c, 0, 62, 41
1, 14301, Note_on_c, 0, 58, 37
1, 14303, Note_off_c, 0, 60, 42
1, 14356, Control_c, 0, 67, 106
1, 14415, Control_c, 0, 64, 56
1, 14438, Control_c, 0, 64, 65
1, 14453, Control_c, 0, 64, 68
1, 14467, Control_c, 0, 64, 71
1, 14482, Control_c, 0, 64, 74
1, 14497, Control_c, 0, 64, 77
1, 14512, Control_c, 0, 64, 79
1, 14512, Control_c, 0, 67, 106
1, 14527, Control_c, 0, 64, 81
1, 14541, Control_c, 0, 64, 82
1, 14556, Control_c, 0, 64, 82
1, 14577, Note_off_c, 0, 58, 58
1, 14793, Control_c, 0, 64, 82
1, 14801, Note_off_c, 0, 48, 39
1, 14807, Control_c, 0, 64, 81
1, 14837, Control_c, 0, 64, 81
1, 14849, Note_off_c, 0, 62, 36
1, 14852, Control_c, 0, 64, 80
1, 14855, Note_on_c, 0, 60, 42
1, 14863, Note_on_c, 0, 50, 27
1, 14867, Control_c, 0, 64, 79
1, 14870, Note_on_c, 0, 57, 29
1, 14882, Control_c, 0, 64, 78
1, 14897, Control_c, 0, 64, 76
1, 14912, Control_c, 0, 64, 73
1, 14927, Control_c, 0, 64, 70
1, 14942, Control_c, 0, 64, 67
1, 14956, Control_c, 0, 64, 62
1, 14971, Control_c, 0, 64, 48
1, 14986, Control_c, 0, 64, 20
1, 15001, Control_c, 0, 64, 0
1, 15408, Control_c, 0, 67, 105
1, 15419, Note_off_c, 0, 67, 54
1, 15438, Control_c, 0, 64, 35
1, 15443, Note_on_c, 0, 66, 44
1, 15453, Control_c, 0, 64, 53
1, 15468, Control_c, 0, 64, 61
1, 15482, Control_c, 0, 64, 64
1, 15497, Control_c, 0, 64, 66
1, 15512, Control_c, 0, 64, 69
1, 15527, Control_c, 0, 64, 71
1, 15527, Control_c, 0, 67, 105
1, 15542, Control_c, 0, 64, 75
1, 15556, Control_c, 0, 64, 77
1, 15571, Control_c, 0, 64, 79
1, 15586, Control_c, 0, 64, 81
1, 15601, Control_c, 0, 64, 82
1, 15605, Note_off_c, 0, 60, 52
1, 15615, Control_c, 0, 64, 83
1, 15630, Control_c, 0, 64, 83
1, 15633, Note_off_c, 0, 57, 41
1, 15645, Control_c, 0, 64, 84
1, 15688, Note_off_c, 0, 50, 47
1, 15743, Note_off_c, 0, 66, 31
1, 15839, Control_c, 0, 64, 83
1, 15883, Control_c, 0, 64, 83
1, 15935, Control_c, 0, 64, 82
1, 15965, Control_c, 0, 64, 82
1, 15994, Control_c, 0, 64, 81
1, 16009, Control_c, 0, 64, 81
1, 16024, Control_c, 0, 64, 80
1, 16038, Control_c, 0, 64, 79
1, 16053, Control_c, 0, 64, 78
1, 16064, Note_on_c, 0, 70, 54
1, 16068, Control_c, 0, 64, 77
1, 16077, Note_on_c, 0, 58, 45
1, 16083, Control_c, 0, 64, 75
1, 16098, Control_c, 0, 64, 73
1, 16101, Note_on_c, 0, 43, 26
1, 16113, Control_c, 0, 64, 71
1, 16128, Control_c, 0, 64, 68
1, 16143, Control_c, 0, 64, 64
1, 16158, Control_c, 0, 64, 54
1, 16172, Control_c, 0, 64, 26
1, 16187, Control_c, 0, 64, 0
1, 16202, Control_c, 0, 64, 23
1, 16217, Control_c, 0, 64, 36
1, 16231, Control_c, 0, 64, 45
1, 16246, Control_c, 0, 64, 53
1, 16261, Control_c, 0, 64, 60
1, 16276, Control_c, 0, 64, 64
1, 16291, Control_c, 0, 64, 67
1, 16305, Control_c, 0, 64, 71
1, 16320, Control_c, 0, 64, 75
1, 16335, Control_c, 0, 64, 78
1, 16350, Control_c, 0, 64, 80
1, 16365, Note_off_c, 0, 58, 58
1, 16365, Control_c, 0, 64, 81
1, 16379, Control_c, 0, 64, 82
1, 16436, Note_off_c, 0, 70, 36
1, 16558, Control_c, 0, 64, 81
1, 16573, Control_c, 0, 64, 81
1, 16588, Control_c, 0, 64, 79
1, 16602, Control_c, 0, 64, 78
1, 16607, Note_on_c, 0, 69, 64
1, 16611, Note_on_c, 0, 66, 58
1, 16617, Control_c, 0, 64, 76
1, 16618, Note_on_c, 0, 60, 54
1, 16630, Note_on_c, 0, 45, 46
1, 16632, Control_c, 0, 64, 73
1, 16646, Control_c, 0, 64, 70
1, 16661, Control_c, 0, 64, 66
1, 16670, Note_off_c, 0, 43, 33
1, 16684, Control_c, 0, 64, 60
1, 16699, Control_c, 0, 64, 38
1, 16714, Control_c, 0, 64, 0
1, 16743, Control_c, 0, 67, 104
1, 16788, Control_c, 0, 64, 36
1, 16802, Control_c, 0, 64, 55
1, 16817, Control_c, 0, 64, 63
1, 16832, Control_c, 0, 64, 67
1, 16841, Note_off_c, 0, 60, 60
1, 16847, Control_c, 0, 64, 71
1, 16861, Control_c, 0, 64, 73
1, 16876, Control_c, 0, 64, 76
1, 16891, Control_c, 0, 64, 77
1, 16906, Control_c, 0, 64, 78
1, 16921, Control_c, 0, 64, 78
1, 16980, Control_c, 0, 67, 105
1, 16995, Control_c, 0, 67, 105
1, 17040, Control_c, 0, 67, 106
1, 17049, Note_off_c, 0, 66, 61
1, 17099, Control_c, 0, 64, 77
1, 17114, Control_c, 0, 64, 76
1, 17128, Control_c, 0, 64, 74
1, 17129, Note_off_c, 0, 69, 61
1, 17133, Note_on_c, 0, 67, 71
1, 17140, Note_on_c, 0, 62, 57
1, 17143, Control_c, 0, 64, 71
1, 17144, Note_on_c, 0, 58, 58
1, 17152, Note_on_c, 0, 46, 52
1, 17158, Control_c, 0, 64, 68
1, 17159, Note_off_c, 0, 45, 41
1, 17173, Control_c, 0, 64, 64
1, 17188, Control_c, 0, 64, 55
1, 17202, Control_c, 0, 64, 0
1, 17202, Control_c, 0, 67, 105
1, 17307, Control_c, 0, 64, 46
1, 17307, Control_c, 0, 67, 105
1, 17322, Control_c, 0, 64, 56
1, 17337, Control_c, 0, 64, 62
1, 17337, Control_c, 0, 67, 104
1, 17351, Control_c, 0, 64, 66
1, 17366, Control_c, 0, 64, 69
1, 17381, Control_c, 0, 64, 73
1, 17396, Control_c, 0, 64, 76
1, 17396, Control_c, 0, 67, 105
1, 17411, Control_c, 0, 64, 78
1, 17411, Control_c, 0, 67, 105
1, 17416, Note_off_c, 0, 58, 64
1, 17433, Control_c, 0, 64, 79
1, 17448, Control_c, 0, 64, 79
1, 17448, Control_c, 0, 67, 106
1, 17467, Note_off_c, 0, 62, 60
1, 17477, Control_c, 0, 64, 80
1, 17477, Control_c, 0, 67, 106
1, 17610, Control_c, 0, 67, 107
1, 17625, Control_c, 0, 64, 79
1, 17625, Control_c, 0, 67, 107
1, 17640, Control_c, 0, 64, 79
1, 17640, Control_c, 0, 67, 108
1, 17655, Control_c, 0, 64, 78
1, 17670, Control_c, 0, 64, 77
1, 17678, Note_off_c, 0, 46, 41
1, 17684, Control_c, 0, 64, 76
1, 17699, Control_c, 0, 64, 73
1, 17702, Note_off_c, 0, 67, 42
1, 17714, Control_c, 0, 64, 71
1, 17723, Note_on_c, 0, 65, 63
1, 17729, Control_c, 0, 64, 67
1, 17737, Note_on_c, 0, 62, 55
1, 17738, Note_on_c, 0, 56, 53
1, 17740, Note_on_c, 0, 47, 48
1, 17744, Control_c, 0, 64, 62
1, 17758, Control_c, 0, 64, 38
1, 17773, Control_c, 0, 64, 0
1, 17863, Control_c, 0, 67, 107
1, 17892, Control_c, 0, 64, 48
1, 17907, Control_c, 0, 64, 63
1, 17922, Control_c, 0, 64, 67
1, 17937, Control_c, 0, 64, 70
1, 17951, Control_c, 0, 64, 73
1, 17966, Control_c, 0, 64, 75
1, 17981, Control_c, 0, 64, 77
1, 17995, Control_c, 0, 64, 78
1, 18003, Note_off_c, 0, 65, 58
1, 18010, Control_c, 0, 64, 78
1, 18026, Note_off_c, 0, 62, 58
1, 18069, Control_c, 0, 67, 107
1, 18115, Note_off_c, 0, 47, 40
1, 18271, Control_c, 0, 64, 78
1, 18301, Control_c, 0, 64, 77
1, 18315, Control_c, 0, 64, 77
1, 18330, Control_c, 0, 64, 76
1, 18345, Control_c, 0, 64, 76
1, 18354, Note_off_c, 0, 56, 12
1, 18360, Control_c, 0, 64, 75
1, 18374, Control_c, 0, 64, 74
1, 18389, Control_c, 0, 64, 73
1, 18404, Control_c, 0, 64, 72
1, 18404, Control_c, 0, 67, 106
1, 18419, Control_c, 0, 64, 71
1, 18442, Note_on_c, 0, 64, 55
1, 18448, Note_on_c, 0, 60, 51
1, 18456, Note_on_c, 0, 55, 39
1, 18462, Note_on_c, 0, 48, 39
1, 18463, Control_c, 0, 64, 70
1, 18478, Control_c, 0, 64, 69
1, 18478, Control_c, 0, 67, 106
1, 18493, Control_c, 0, 64, 67
1, 18507, Control_c, 0, 64, 63
1, 18522, Control_c, 0, 64, 49
1, 18537, Control_c, 0, 64, 0
1, 18537, Control_c, 0, 67, 105
1, 18641, Control_c, 0, 67, 105
1, 18730, Control_c, 0, 67, 104
1, 18833, Control_c, 0, 67, 104
1, 18863, Control_c, 0, 67, 103
1, 18894, Control_c, 0, 67, 103
1, 18945, Control_c, 0, 67, 102
1, 19034, Control_c, 0, 67, 102
1, 19078, Note_off_c, 0, 60, 50
1, 19079, Control_c, 0, 67, 101
1, 19087, Note_on_c, 0, 58, 47
1, 19168, Control_c, 0, 67, 101
1, 19212, Control_c, 0, 67, 100
1, 19242, Control_c, 0, 67, 100
1, 19407, Note_off_c, 0, 64, 36
1, 19413, Note_on_c, 0, 65, 49
1, 19478, Control_c, 0, 64, 45
1, 19493, Control_c, 0, 64, 63
1, 19508, Control_c, 0, 64, 67
1, 19523, Control_c, 0, 64, 69
1, 19538, Control_c, 0, 64, 71
1, 19553, Control_c, 0, 64, 73
1, 19567, Control_c, 0, 64, 75
1, 19582, Control_c, 0, 64, 76
1, 19587, Note_off_c, 0, 65, 57
1, 19593, Note_off_c, 0, 58, 50
1, 19798, Control_c, 0, 64, 75
1, 19813, Control_c, 0, 64, 75
1, 19827, Control_c, 0, 64, 74
1, 19842, Control_c, 0, 64, 74
1, 19857, Control_c, 0, 64, 73
1, 19872, Control_c, 0, 64, 72
1, 19887, Control_c, 0, 64, 72
1, 19902, Control_c, 0, 64, 70
1, 19917, Control_c, 0, 64, 69
1, 19926, Note_on_c, 0, 65, 37
1, 19931, Control_c, 0, 64, 67
1, 19943, Note_on_c, 0, 60, 29
1, 19945, Note_on_c, 0, 57, 25
1, 19946, Note_on_c, 0, 41, 34
1, 19946, Control_c, 0, 64, 65
1, 19961, Control_c, 0, 64, 63
1, 19963, Note_off_c, 0, 55, 30
1, 19976, Control_c, 0, 64, 57
1, 19991, Control_c, 0, 64, 48
1, 20006, Control_c, 0, 64, 43
1, 20021, Control_c, 0, 64, 39
1, 20036, Control_c, 0, 64, 34
1, 20044, Note_off_c, 0, 48, 16
1, 20051, Control_c, 0, 64, 20
1, 20066, Control_c, 0, 64, 0
1, 20740, Control_c, 0, 64, 25
1, 20755, Control_c, 0, 64, 55
1, 20769, Control_c, 0, 64, 62
1, 20775, Note_off_c, 0, 57, 34
1, 20784, Control_c, 0, 64, 64
1, 20799, Control_c, 0, 64, 65
1, 20814, Control_c, 0, 64, 67
1, 20814, Control_c, 0, 67, 100
1, 20816, Note_off_c, 0, 65, 46
1, 20829, Control_c, 0, 64, 70
1, 20844, Control_c, 0, 64, 72
1, 20844, Control_c, 0, 67, 101
1, 20858, Control_c, 0, 64, 75
1, 20866, Note_off_c, 0, 60, 29
1, 20873, Control_c, 0, 64, 77
1, 20873, Control_c, 0, 67, 101
1, 20875, Note_off_c, 0, 41, 40
1, 20888, Control_c, 0, 64, 79
1, 20903, Control_c, 0, 64, 80
1, 20903, Control_c, 0, 67, 102
1, 20918, Control_c, 0, 64, 81
1, 20933, Control_c, 0, 64, 81
1, 20933, Control_c, 0, 67, 102
1, 20948, Control_c, 0, 64, 82
1, 20963, Control_c, 0, 67, 103
1, 20977, Control_c, 0, 67, 103
1, 21007, Control_c, 0, 67, 104
1, 21110, Control_c, 0, 67, 104
1, 21222, Control_c, 0, 64, 81
1, 21266, Control_c, 0, 64, 81
1, 21281, Control_c, 0, 67, 105
1, 21312, Control_c, 0, 67, 105
1, 21326, Control_c, 0, 64, 80
1, 21341, Control_c, 0, 67, 106
1, 21356, Control_c, 0, 64, 80
1, 21356, Control_c, 0, 67, 106
1, 21386, Control_c, 0, 64, 79
1, 21386, Control_c, 0, 67, 107
1, 21400, Control_c, 0, 64, 79
1, 21415, Control_c, 0, 64, 78
1, 21430, Control_c, 0, 64, 76
1, 21444, Control_c, 0, 64, 74
1, 21459, Control_c, 0, 64, 73
1, 21474, Control_c, 0, 64, 71
1, 21479, Note_on_c, 0, 72, 73
1, 21481, Note_on_c, 0, 65, 64
1, 21487, Note_on_c, 0, 69, 72
1, 21489, Control_c, 0, 64, 69
1, 21494, Note_on_c, 0, 53, 58
1, 21504, Control_c, 0, 64, 66
1, 21518, Control_c, 0, 64, 63
1, 21533, Control_c, 0, 64, 53
1, 21548, Control_c, 0, 64, 25
1, 21563, Control_c, 0, 64, 0
1, 21563, Control_c, 0, 67, 106
1, 21607, Control_c, 0, 67, 106
1, 21622, Control_c, 0, 67, 105
1, 21651, Control_c, 0, 67, 105
1, 21666, Control_c, 0, 67, 104
1, 21696, Control_c, 0, 67, 104
1, 21785, Control_c, 0, 67, 104
1, 22083, Note_on_c, 0, 63, 59
1, 22134, Note_off_c, 0, 65, 63
1, 22134, Control_c, 0, 67, 104
1, 22253, Control_c, 0, 67, 104
1, 22267, Control_c, 0, 67, 105
1, 22282, Control_c, 0, 67, 105
1, 22297, Control_c, 0, 67, 106
1, 22312, Control_c, 0, 67, 106
1, 22327, Control_c, 0, 67, 107
1, 22341, Control_c, 0, 67, 107
1, 22356, Control_c, 0, 67, 108
1, 22371, Control_c, 0, 67, 108
1, 22386, Control_c, 0, 67, 109
1, 22401, Control_c, 0, 67, 109
1, 22415, Control_c, 0, 67, 110
1, 22430, Control_c, 0, 67, 110
1, 22445, Control_c, 0, 67, 111
1, 22534, Control_c, 0, 67, 111
1, 22564, Control_c, 0, 67, 113
1, 22578, Control_c, 0, 67, 117
1, 22593, Control_c, 0, 67, 121
1, 22608, Control_c, 0, 67, 124
1, 22623, Control_c, 0, 67, 127
1, 22635, Note_on_c, 0, 62, 63
1, 22694, Note_off_c, 0, 63, 60
1, 23155, Note_off_c, 0, 72, 57
1, 23180, Note_off_c, 0, 69, 52
1, 23183, Note_on_c, 0, 71, 61
1, 23195, Note_on_c, 0, 68, 46
1, 23387, Control_c, 0, 64, 49
1, 23402, Control_c, 0, 64, 59
1, 23424, Control_c, 0, 64, 61
1, 23437, Control_c, 0, 64, 62
1, 23443, Note_off_c, 0, 71, 57
1, 23452, Control_c, 0, 64, 63
1, 23456, Note_off_c, 0, 68, 59
1, 23467, Control_c, 0, 64, 64
1, 23482, Control_c, 0, 64, 64
1, 23526, Control_c, 0, 64, 64
1, 23586, Control_c, 0, 64, 63
1, 23615, Control_c, 0, 64, 62
1, 23630, Control_c, 0, 64, 61
1, 23645, Control_c, 0, 64, 59
1, 23660, Control_c, 0, 64, 55
1, 23675, Control_c, 0, 64, 46
1, 23690, Control_c, 0, 64, 13
1, 23699, Note_on_c, 0, 71, 58
1, 23705, Control_c, 0, 64, 0
1, 23711, Note_on_c, 0, 68, 47
1, 23780, Control_c, 0, 64, 34
1, 23794, Control_c, 0, 64, 56
1, 23809, Control_c, 0, 64, 63
1, 23824, Control_c, 0, 64, 66
1, 23839, Control_c, 0, 64, 68
1, 23853, Control_c, 0, 64, 69
1, 23868, Control_c, 0, 64, 70
1, 23884, Note_off_c, 0, 62, 43
1, 23911, Note_off_c, 0, 71, 59
1, 23920, Note_off_c, 0, 68, 61
1, 23932, Note_off_c, 0, 53, 61
1, 23942, Control_c, 0, 64, 70
1, 23957, Control_c, 0, 64, 69
1, 23972, Control_c, 0, 64, 69
1, 23986, Control_c, 0, 64, 67
1, 24001, Control_c, 0, 64, 66
1, 24016, Control_c, 0, 64, 64
1, 24031, Control_c, 0, 64, 63
1, 24045, Control_c, 0, 64, 63
1, 24060, Control_c, 0, 64, 62
1, 24075, Control_c, 0, 64, 60
1, 24090, Control_c, 0, 64, 56
1, 24105, Control_c, 0, 64, 35
1, 24120, Control_c, 0, 64, 0
1, 24253, Note_on_c, 0, 71, 54
1, 24266, Note_on_c, 0, 62, 42
1, 24268, Note_on_c, 0, 55, 37
1, 24271, Note_on_c, 0, 67, 42
1, 24334, Control_c, 0, 64, 54
1, 24349, Control_c, 0, 64, 64
1, 24364, Control_c, 0, 64, 67
1, 24379, Control_c, 0, 64, 70
1, 24394, Note_off_c, 0, 62, 57
1, 24394, Control_c, 0, 64, 73
1, 24409, Control_c, 0, 64, 76
1, 24424, Control_c, 0, 64, 77
1, 24435, Note_off_c, 0, 71, 56
1, 24438, Control_c, 0, 64, 78
1, 24439, Note_off_c, 0, 67, 52
1, 24453, Control_c, 0, 64, 79
1, 24588, Control_c, 0, 64, 78
1, 24632, Control_c, 0, 64, 78
1, 24661, Control_c, 0, 64, 77
1, 24676, Control_c, 0, 64, 76
1, 24691, Control_c, 0, 64, 76
1, 24706, Control_c, 0, 64, 74
1, 24721, Control_c, 0, 64, 73
1, 24736, Control_c, 0, 64, 71
1, 24750, Control_c, 0, 64, 70
1, 24765, Control_c, 0, 64, 70
1, 24794, Control_c, 0, 64, 69
1, 24809, Control_c, 0, 64, 68
1, 24824, Control_c, 0, 64, 66
1, 24839, Control_c, 0, 64, 64
1, 24847, Note_on_c, 0, 67, 44
1, 24849, Note_on_c, 0, 71, 48
1, 24854, Control_c, 0, 64, 58
1, 24856, Note_on_c, 0, 48, 38
1, 24861, Note_on_c, 0, 65, 37
1, 24868, Control_c, 0, 64, 43
1, 24883, Control_c, 0, 64, 18
1, 24898, Control_c, 0, 64, 0
1, 24965, Control_c, 0, 64, 24
1, 24980, Control_c, 0, 64, 42
1, 24987, Note_off_c, 0, 55, 40
1, 24994, Control_c, 0, 64, 51
1, 25009, Control_c, 0, 64, 56
1, 25024, Control_c, 0, 64, 60
1, 25039, Control_c, 0, 64, 62
1, 25054, Control_c, 0, 64, 64
1, 25068, Control_c, 0, 64, 65
1, 25083, Control_c, 0, 64, 66
1, 25142, Control_c, 0, 64, 66
1, 25157, Control_c, 0, 64, 65
1, 25163, Note_off_c, 0, 65, 59
1, 25172, Control_c, 0, 64, 65
1, 25187, Control_c, 0, 64, 64
1, 25202, Control_c, 0, 64, 63
1, 25217, Control_c, 0, 64, 62
1, 25231, Control_c, 0, 64, 60
1, 25246, Control_c, 0, 64, 58
1, 25261, Control_c, 0, 64, 56
1, 25276, Control_c, 0, 64, 56
1, 25291, Control_c, 0, 64, 54
1, 25306, Control_c, 0, 64, 51
1, 25321, Control_c, 0, 64, 46
1, 25336, Control_c, 0, 64, 39
1, 25351, Control_c, 0, 64, 29
1, 25352, Note_off_c, 0, 67, 37
1, 25366, Control_c, 0, 64, 20
1, 25381, Control_c, 0, 64, 0
1, 25402, Note_off_c, 0, 71, 46
1, 25440, Note_on_c, 0, 72, 41
1, 25442, Note_on_c, 0, 64, 31
1, 25559, Control_c, 0, 64, 39
1, 25573, Control_c, 0, 64, 60
1, 25588, Control_c, 0, 64, 65
1, 25603, Control_c, 0, 64, 68
1, 25617, Control_c, 0, 64, 70
1, 25632, Control_c, 0, 64, 73
1, 25644, Note_off_c, 0, 72, 58
1, 25647, Control_c, 0, 64, 76
1, 25670, Control_c, 0, 64, 79
1, 25681, Note_off_c, 0, 64, 49
1, 25685, Control_c, 0, 64, 80
1, 25699, Control_c, 0, 64, 81
1, 25700, Note_off_c, 0, 48, 42
1, 25714, Control_c, 0, 64, 82
1, 25980, Control_c, 0, 64, 81
1, 26010, Control_c, 0, 64, 81
1, 26024, Control_c, 0, 64, 80
1, 26039, Control_c, 0, 64, 80
1, 26054, Control_c, 0, 64, 79
1, 26069, Control_c, 0, 64, 78
1, 26085, Control_c, 0, 64, 77
1, 26100, Control_c, 0, 64, 75
1, 26112, Note_on_c, 0, 74, 76
1, 26114, Control_c, 0, 64, 72
1, 26117, Note_on_c, 0, 71, 72
1, 26118, Note_on_c, 0, 67, 70
1, 26129, Control_c, 0, 64, 69
1, 26133, Note_on_c, 0, 55, 53
1, 26144, Control_c, 0, 64, 66
1, 26159, Control_c, 0, 64, 63
1, 26174, Control_c, 0, 64, 58
1, 26188, Control_c, 0, 64, 46
1, 26203, Control_c, 0, 64, 18
1, 26218, Control_c, 0, 64, 0
1, 26492, Control_c, 0, 67, 125
1, 26507, Control_c, 0, 67, 122
1, 26522, Control_c, 0, 67, 121
1, 26537, Control_c, 0, 67, 121
1, 26566, Control_c, 0, 67, 120
1, 26581, Control_c, 0, 67, 119
1, 26596, Control_c, 0, 67, 116
1, 26611, Control_c, 0, 67, 112
1, 26626, Control_c, 0, 67, 108
1, 26640, Control_c, 0, 67, 105
1, 26655, Control_c, 0, 67, 104
1, 26670, Control_c, 0, 67, 103
1, 26680, Note_on_c, 0, 65, 75
1, 26685, Control_c, 0, 67, 103
1, 26711, Note_off_c, 0, 67, 58
1, 26714, Control_c, 0, 67, 102
1, 26818, Control_c, 0, 67, 102
1, 26893, Control_c, 0, 67, 101
1, 26923, Control_c, 0, 67, 102
1, 26937, Control_c, 0, 67, 102
1, 26952, Control_c, 0, 67, 103
1, 26967, Control_c, 0, 67, 104
1, 26981, Control_c, 0, 67, 104
1, 26996, Control_c, 0, 67, 105
1, 27011, Control_c, 0, 67, 106
1, 27026, Control_c, 0, 67, 106
1, 27041, Control_c, 0, 67, 107
1, 27056, Control_c, 0, 67, 108
1, 27071, Control_c, 0, 67, 109
1, 27086, Control_c, 0, 67, 110
1, 27100, Control_c, 0, 67, 111
1, 27115, Control_c, 0, 67, 113
1, 27130, Control_c, 0, 67, 113
1, 27145, Control_c, 0, 67, 115
1, 27167, Control_c, 0, 67, 118
1, 27182, Control_c, 0, 67, 121
1, 27196, Control_c, 0, 67, 123
1, 27211, Control_c, 0, 67, 125
1, 27226, Control_c, 0, 67, 126
1, 27237, Note_on_c, 0, 64, 71
1, 27241, Control_c, 0, 67, 127
1, 27273, Note_off_c, 0, 65, 64
1, 27755, Note_on_c, 0, 73, 71
1, 27765, Note_on_c, 0, 70, 57
1, 27780, Note_off_c, 0, 74, 39
1, 27822, Note_off_c, 0, 71, 44
1, 27946, Control_c, 0, 64, 39
1, 27960, Control_c, 0, 64, 63
1, 27975, Control_c, 0, 64, 66
1, 27990, Control_c, 0, 64, 67
1, 28005, Control_c, 0, 64, 68
1, 28017, Note_off_c, 0, 73, 56
1, 28019, Control_c, 0, 64, 70
1, 28034, Control_c, 0, 64, 71
1, 28045, Note_off_c, 0, 70, 60
1, 28168, Control_c, 0, 64, 70
1, 28183, Control_c, 0, 64, 70
1, 28212, Control_c, 0, 64, 69
1, 28227, Control_c, 0, 64, 69
1, 28242, Control_c, 0, 64, 68
1, 28257, Control_c, 0, 64, 67
1, 28272, Control_c, 0, 64, 65
1, 28286, Control_c, 0, 64, 63
1, 28288, Note_on_c, 0, 73, 70
1, 28293, Note_on_c, 0, 70, 54
1, 28301, Control_c, 0, 64, 53
1, 28316, Control_c, 0, 64, 0
1, 28346, Control_c, 0, 67, 127
1, 28390, Control_c, 0, 67, 126
1, 28404, Control_c, 0, 64, 36
1, 28404, Control_c, 0, 67, 126
1, 28419, Control_c, 0, 64, 63
1, 28419, Control_c, 0, 67, 124
1, 28434, Control_c, 0, 64, 67
1, 28434, Control_c, 0, 67, 122
1, 28449, Control_c, 0, 64, 71
1, 28449, Control_c, 0, 67, 121
1, 28464, Control_c, 0, 64, 74
1, 28464, Control_c, 0, 67, 121
1, 28479, Control_c, 0, 64, 76
1, 28495, Control_c, 0, 64, 78
1, 28502, Note_off_c, 0, 64, 59
1, 28509, Control_c, 0, 64, 78
1, 28524, Control_c, 0, 67, 121
1, 28539, Control_c, 0, 67, 122
1, 28552, Note_off_c, 0, 73, 58
1, 28554, Control_c, 0, 67, 122
1, 28562, Note_off_c, 0, 70, 54
1, 28569, Control_c, 0, 67, 123
1, 28583, Control_c, 0, 67, 123
1, 28613, Control_c, 0, 64, 78
1, 28613, Control_c, 0, 67, 124
1, 28627, Control_c, 0, 64, 77
1, 28642, Control_c, 0, 64, 76
1, 28665, Control_c, 0, 64, 75
1, 28680, Control_c, 0, 64, 74
1, 28695, Control_c, 0, 64, 73
1, 28709, Control_c, 0, 64, 71
1, 28724, Control_c, 0, 64, 70
1, 28739, Control_c, 0, 64, 68
1, 28754, Control_c, 0, 64, 66
1, 28769, Control_c, 0, 64, 65
1, 28783, Control_c, 0, 64, 63
1, 28794, Note_off_c, 0, 55, 34
1, 28798, Control_c, 0, 64, 58
1, 28813, Control_c, 0, 64, 46
1, 28828, Control_c, 0, 64, 0
1, 28849, Note_on_c, 0, 73, 60
1, 28857, Note_on_c, 0, 69, 52
1, 28859, Note_on_c, 0, 64, 47
1, 28874, Note_on_c, 0, 57, 31
1, 28961, Control_c, 0, 64, 51
1, 28975, Control_c, 0, 64, 63
1, 28990, Control_c, 0, 64, 67
1, 29005, Control_c, 0, 64, 70
1, 29019, Note_off_c, 0, 64, 60
1, 29020, Control_c, 0, 64, 74
1, 29035, Control_c, 0, 64, 76
1, 29050, Control_c, 0, 64, 78
1, 29052, Note_off_c, 0, 69, 60
1, 29060, Note_off_c, 0, 73, 57
1, 29065, Control_c, 0, 64, 78
1, 29080, Control_c, 0, 64, 79
1, 29139, Control_c, 0, 67, 123
1, 29183, Control_c, 0, 67, 123
1, 29227, Control_c, 0, 67, 122
1, 29305, Note_off_c, 0, 57, 35
1, 29318, Control_c, 0, 64, 78
1, 29347, Control_c, 0, 64, 78
1, 29347, Control_c, 0, 67, 122
1, 29362, Control_c, 0, 64, 77
1, 29377, Control_c, 0, 64, 77
1, 29391, Control_c, 0, 64, 76
1, 29414, Control_c, 0, 64, 76
1, 29429, Control_c, 0, 64, 75
1, 29444, Control_c, 0, 64, 73
1, 29455, Note_on_c, 0, 73, 59
1, 29459, Note_on_c, 0, 58, 37
1, 29459, Control_c, 0, 64, 71
1, 29464, Note_on_c, 0, 64, 43
1, 29465, Note_on_c, 0, 67, 43
1, 29473, Control_c, 0, 64, 69
1, 29488, Control_c, 0, 64, 67
1, 29503, Control_c, 0, 64, 65
1, 29518, Control_c, 0, 64, 64
1, 29533, Control_c, 0, 64, 61
1, 29548, Control_c, 0, 64, 55
1, 29563, Control_c, 0, 64, 33
1, 29578, Control_c, 0, 64, 0
1, 29681, Control_c, 0, 64, 30
1, 29681, Control_c, 0, 67, 121
1, 29696, Control_c, 0, 64, 53
1, 29702, Note_off_c, 0, 67, 62
1, 29711, Control_c, 0, 64, 60
1, 29726, Control_c, 0, 64, 64
1, 29740, Control_c, 0, 64, 66
1, 29740, Control_c, 0, 67, 121
1, 29746, Note_off_c, 0, 64, 63
1, 29755, Control_c, 0, 64, 67
1, 29770, Control_c, 0, 64, 68
1, 29784, Control_c, 0, 64, 69
1, 29784, Control_c, 0, 67, 120
1, 29814, Control_c, 0, 67, 120
1, 29844, Control_c, 0, 67, 119
1, 29858, Control_c, 0, 64, 68
1, 29858, Control_c, 0, 67, 119
1, 29873, Control_c, 0, 67, 117
1, 29888, Control_c, 0, 64, 68
1, 29888, Control_c, 0, 67, 115
1, 29903, Control_c, 0, 64, 67
1, 29903, Control_c, 0, 67, 115
1, 29918, Control_c, 0, 64, 66
1, 29932, Control_c, 0, 64, 64
1, 29947, Control_c, 0, 64, 63
1, 29962, Control_c, 0, 64, 62
1, 29977, Control_c, 0, 64, 60
1, 29992, Control_c, 0, 64, 58
1, 29995, Note_off_c, 0, 73, 56
1, 30007, Control_c, 0, 64, 53
1, 30022, Control_c, 0, 64, 43
1, 30037, Control_c, 0, 64, 0
1, 30049, Note_on_c, 0, 74, 40
1, 30067, Note_on_c, 0, 62, 30
1, 30069, Note_on_c, 0, 65, 22
1, 30111, Control_c, 0, 67, 114
1, 30163, Control_c, 0, 67, 114
1, 30177, Control_c, 0, 67, 113
1, 30192, Control_c, 0, 67, 111
1, 30207, Control_c, 0, 64, 52
1, 30207, Control_c, 0, 67, 107
1, 30221, Control_c, 0, 64, 63
1, 30221, Control_c, 0, 67, 106
1, 30236, Control_c, 0, 64, 68
1, 30236, Control_c, 0, 67, 104
1, 30251, Control_c, 0, 64, 72
1, 30251, Control_c, 0, 67, 103
1, 30260, Note_off_c, 0, 62, 56
1, 30266, Control_c, 0, 64, 75
1, 30266, Control_c, 0, 67, 101
1, 30275, Note_off_c, 0, 74, 63
1, 30281, Control_c, 0, 64, 78
1, 30281, Control_c, 0, 67, 99
1, 30296, Control_c, 0, 64, 79
1, 30296, Control_c, 0, 67, 97
1, 30302, Note_off_c, 0, 65, 58
1, 30311, Control_c, 0, 64, 80
1, 30311, Control_c, 0, 67, 97
1, 30326, Control_c, 0, 64, 80
1, 30340, Note_off_c, 0, 58, 62
1, 30429, Control_c, 0, 67, 97
1, 30518, Control_c, 0, 64, 80
1, 30518, Control_c, 0, 67, 98
1, 30548, Control_c, 0, 64, 79
1, 30577, Control_c, 0, 64, 79
1, 30592, Control_c, 0, 64, 78
1, 30592, Control_c, 0, 67, 97
1, 30606, Control_c, 0, 64, 78
1, 30621, Control_c, 0, 64, 77
1, 30636, Control_c, 0, 64, 76
1, 30651, Control_c, 0, 64, 74
1, 30666, Control_c, 0, 64, 72
1, 30681, Note_on_c, 0, 77, 84
1, 30681, Control_c, 0, 64, 69
1, 30691, Note_on_c, 0, 74, 76
1, 30694, Note_on_c, 0, 70, 64
1, 30695, Control_c, 0, 64, 65
1, 30695, Control_c, 0, 67, 97
1, 30710, Control_c, 0, 64, 52
1, 30725, Control_c, 0, 64, 0
1, 30785, Control_c, 0, 67, 96
1, 30799, Control_c, 0, 67, 95
1, 30814, Control_c, 0, 67, 93
1, 30829, Control_c, 0, 67, 88
1, 30844, Control_c, 0, 67, 80
1, 30859, Control_c, 0, 67, 70
1, 30874, Control_c, 0, 64, 18
1, 30874, Control_c, 0, 67, 61
1, 30889, Control_c, 0, 64, 56
1, 30889, Control_c, 0, 67, 53
1, 30911, Control_c, 0, 64, 64
1, 30911, Control_c, 0, 67, 49
1, 30926, Control_c, 0, 64, 67
1, 30926, Control_c, 0, 67, 46
1, 30941, Control_c, 0, 64, 69
1, 30941, Control_c, 0, 67, 44
1, 30956, Control_c, 0, 64, 72
1, 30956, Control_c, 0, 67, 42
1, 30971, Control_c, 0, 64, 75
1, 30971, Control_c, 0, 67, 38
1, 30985, Control_c, 0, 64, 79
1, 30985, Control_c, 0, 67, 33
1, 31000, Control_c, 0, 64, 81
1, 31000, Control_c, 0, 67, 26
1, 31015, Control_c, 0, 64, 83
1, 31015, Control_c, 0, 67, 21
1, 31029, Control_c, 0, 64, 84
1, 31029, Control_c, 0, 67, 16
1, 31044, Control_c, 0, 64, 85
1, 31044, Control_c, 0, 67, 12
1, 31059, Control_c, 0, 64, 86
1, 31059, Control_c, 0, 67, 8
1, 31074, Control_c, 0, 64, 87
1, 31074, Control_c, 0, 67, 0
1, 31089, Control_c, 0, 64, 87
1, 31104, Control_c, 0, 64, 88
1, 31190, Note_off_c, 0, 70, 56
1, 31197, Note_off_c, 0, 74, 56
1, 31226, Note_on_c, 0, 72, 76
1, 31235, Note_on_c, 0, 69, 66
1, 31465, Note_off_c, 0, 69, 56
1, 31474, Control_c, 0, 64, 87
1, 31518, Control_c, 0, 64, 87
1, 31548, Control_c, 0, 64, 86
1, 31563, Control_c, 0, 64, 86
1, 31593, Control_c, 0, 64, 85
1, 31623, Control_c, 0, 64, 85
1, 31659, Control_c, 0, 64, 84
1, 31690, Control_c, 0, 64, 83
1, 31705, Control_c, 0, 64, 83
1, 31720, Control_c, 0, 64, 82
1, 31734, Control_c, 0, 64, 80
1, 31749, Control_c, 0, 64, 79
1, 31764, Control_c, 0, 64, 78
1, 31778, Control_c, 0, 64, 77
1, 31793, Control_c, 0, 64, 76
1, 31808, Control_c, 0, 64, 75
1, 31820, Note_on_c, 0, 70, 73
1, 31823, Control_c, 0, 64, 74
1, 31827, Note_on_c, 0, 67, 68
1, 31837, Note_on_c, 0, 46, 56
1, 31838, Control_c, 0, 64, 73
1, 31852, Control_c, 0, 64, 71
1, 31867, Control_c, 0, 64, 68
1, 31875, Note_off_c, 0, 72, 61
1, 31882, Control_c, 0, 64, 63
1, 31897, Control_c, 0, 64, 49
1, 31912, Control_c, 0, 64, 0
1, 32060, Control_c, 0, 64, 21
1, 32075, Control_c, 0, 64, 51
1, 32090, Control_c, 0, 64, 61
1, 32105, Control_c, 0, 64, 64
1, 32120, Control_c, 0, 64, 67
1, 32134, Control_c, 0, 64, 70
1, 32149, Control_c, 0, 64, 74
1, 32164, Control_c, 0, 64, 77
1, 32178, Control_c, 0, 64, 80
1, 32193, Control_c, 0, 64, 82
1, 32208, Control_c, 0, 64, 84
1, 32223, Control_c, 0, 64, 86
1, 32238, Control_c, 0, 64, 88
1, 32252, Control_c, 0, 64, 90
1, 32267, Control_c, 0, 64, 91
1, 32282, Control_c, 0, 64, 92
1, 32297, Control_c, 0, 64, 93
1, 32312, Control_c, 0, 64, 93
1, 32330, Note_on_c, 0, 75, 75
1, 32341, Control_c, 0, 64, 94
1, 32356, Control_c, 0, 64, 94
1, 32408, Control_c, 0, 64, 95
1, 32424, Control_c, 0, 64, 95
1, 32439, Control_c, 0, 64, 96
1, 32454, Control_c, 0, 64, 96
1, 32468, Control_c, 0, 64, 97
1, 32484, Control_c, 0, 64, 98
1, 32499, Control_c, 0, 64, 98
1, 32505, Note_off_c, 0, 77, 46
1, 32514, Control_c, 0, 64, 99
1, 32544, Control_c, 0, 64, 99
1, 32658, Note_off_c, 0, 67, 60
1, 32721, Control_c, 0, 64, 99
1, 32765, Control_c, 0, 64, 98
1, 32780, Control_c, 0, 64, 98
1, 32795, Control_c, 0, 64, 97
1, 32809, Control_c, 0, 64, 97
1, 32824, Control_c, 0, 64, 96
1, 32854, Control_c, 0, 64, 96
1, 32872, Note_on_c, 0, 74, 76
1, 32883, Control_c, 0, 64, 95
1, 32885, Note_on_c, 0, 65, 68
1, 32898, Control_c, 0, 64, 94
1, 32912, Note_off_c, 0, 75, 56
1, 32913, Note_off_c, 0, 70, 59
1, 32913, Control_c, 0, 64, 94
1, 32928, Control_c, 0, 64, 93
1, 32943, Control_c, 0, 64, 92
1, 32958, Control_c, 0, 64, 91
1, 32973, Control_c, 0, 64, 90
1, 33129, Note_off_c, 0, 65, 60
1, 33134, Note_off_c, 0, 74, 63
1, 33307, Control_c, 0, 64, 90
1, 33366, Control_c, 0, 64, 89
1, 33396, Control_c, 0, 64, 89
1, 33440, Control_c, 0, 64, 88
1, 33455, Control_c, 0, 64, 88
1, 33470, Control_c, 0, 64, 87
1, 33485, Control_c, 0, 64, 87
1, 33499, Control_c, 0, 64, 86
1, 33514, Control_c, 0, 64, 85
1, 33529, Control_c, 0, 64, 84
1, 33544, Control_c, 0, 64, 83
1, 33550, Note_on_c, 0, 73, 79
1, 33558, Control_c, 0, 64, 83
1, 33562, Note_on_c, 0, 63, 62
1, 33563, Note_on_c, 0, 69, 57
1, 33573, Control_c, 0, 64, 82
1, 33588, Control_c, 0, 64, 80
1, 33603, Control_c, 0, 64, 77
1, 33618, Control_c, 0, 64, 73
1, 33632, Control_c, 0, 64, 67
1, 33647, Control_c, 0, 64, 56
1, 33662, Control_c, 0, 64, 0
1, 34010, Control_c, 0, 64, 52
1, 34025, Control_c, 0, 64, 63
1, 34040, Control_c, 0, 64, 66
1, 34055, Control_c, 0, 64, 68
1, 34070, Control_c, 0, 64, 70
1, 34085, Control_c, 0, 64, 73
1, 34100, Control_c, 0, 64, 76
1, 34115, Control_c, 0, 64, 78
1, 34129, Control_c, 0, 64, 79
1, 34144, Control_c, 0, 64, 79
1, 34159, Control_c, 0, 64, 80
1, 34174, Control_c, 0, 64, 80
1, 34204, Control_c, 0, 67, 11
1, 34219, Control_c, 0, 67, 17
1, 34234, Control_c, 0, 67, 25
1, 34248, Control_c, 0, 67, 33
1, 34263, Control_c, 0, 67, 40
1, 34278, Control_c, 0, 67, 46
1, 34284, Note_off_c, 0, 69, 61
1, 34292, Note_off_c, 0, 46, 62
1, 34293, Control_c, 0, 67, 53
1, 34308, Control_c, 0, 67, 59
1, 34323, Control_c, 0, 67, 64
1, 34337, Control_c, 0, 67, 69
1, 34352, Control_c, 0, 67, 72
1, 34367, Control_c, 0, 67, 75
1, 34381, Control_c, 0, 67, 77
1, 34396, Control_c, 0, 64, 80
1, 34396, Control_c, 0, 67, 78
1, 34441, Control_c, 0, 64, 79
1, 34485, Control_c, 0, 64, 79
1, 34500, Control_c, 0, 64, 78
1, 34514, Note_off_c, 0, 63, 39
1, 34515, Control_c, 0, 64, 78
1, 34529, Control_c, 0, 64, 77
1, 34529, Control_c, 0, 67, 77
1, 34544, Control_c, 0, 64, 75
1, 34559, Control_c, 0, 64, 73
1, 34574, Control_c, 0, 64, 71
1, 34589, Control_c, 0, 64, 67
1, 34591, Note_on_c, 0, 74, 63
1, 34603, Control_c, 0, 64, 62
1, 34607, Note_on_c, 0, 67, 55
1, 34618, Control_c, 0, 64, 47
1, 34621, Note_on_c, 0, 62, 40
1, 34622, Note_on_c, 0, 58, 33
1, 34633, Control_c, 0, 64, 0
1, 34675, Note_off_c, 0, 73, 19
1, 34744, Control_c, 0, 67, 78
1, 34773, Control_c, 0, 64, 38
1, 34788, Control_c, 0, 64, 54
1, 34803, Control_c, 0, 64, 62
1, 34803, Control_c, 0, 67, 78
1, 34818, Control_c, 0, 64, 65
1, 34818, Control_c, 0, 67, 79
1, 34833, Control_c, 0, 64, 68
1, 34847, Control_c, 0, 64, 71
1, 34847, Control_c, 0, 67, 79
1, 34862, Control_c, 0, 64, 73
1, 34878, Control_c, 0, 64, 75
1, 34893, Note_off_c, 0, 62, 37
1, 34893, Control_c, 0, 64, 77
1, 34893, Control_c, 0, 67, 80
1, 34907, Control_c, 0, 64, 77
1, 34937, Control_c, 0, 67, 80
1, 34952, Control_c, 0, 67, 81
1, 35085, Control_c, 0, 64, 77
1, 35100, Control_c, 0, 64, 76
1, 35115, Control_c, 0, 64, 74
1, 35125, Note_on_c, 0, 65, 56
1, 35130, Control_c, 0, 64, 72
1, 35132, Note_on_c, 0, 60, 41
1, 35140, Note_on_c, 0, 57, 39
1, 35145, Control_c, 0, 64, 69
1, 35159, Control_c, 0, 64, 64
1, 35162, Note_off_c, 0, 58, 36
1, 35170, Note_off_c, 0, 67, 55
1, 35174, Control_c, 0, 64, 56
1, 35189, Control_c, 0, 64, 37
1, 35203, Control_c, 0, 64, 21
1, 35218, Control_c, 0, 64, 25
1, 35218, Control_c, 0, 67, 80
1, 35233, Control_c, 0, 64, 32
1, 35248, Control_c, 0, 64, 39
1, 35263, Control_c, 0, 64, 49
1, 35263, Control_c, 0, 67, 80
1, 35277, Control_c, 0, 64, 58
1, 35292, Control_c, 0, 64, 63
1, 35307, Control_c, 0, 64, 66
1, 35322, Control_c, 0, 64, 69
1, 35337, Control_c, 0, 64, 73
1, 35352, Control_c, 0, 64, 75
1, 35367, Control_c, 0, 64, 76
1, 35367, Control_c, 0, 67, 80
1, 35381, Control_c, 0, 64, 77
1, 35403, Control_c, 0, 67, 81
1, 35417, Control_c, 0, 67, 81
1, 35432, Control_c, 0, 67, 82
1, 35448, Note_off_c, 0, 74, 58
1, 35460, Note_off_c, 0, 65, 58
1, 35462, Control_c, 0, 67, 83
1, 35477, Control_c, 0, 67, 86
1, 35492, Control_c, 0, 67, 88
1, 35507, Control_c, 0, 67, 90
1, 35521, Control_c, 0, 67, 90
1, 35536, Control_c, 0, 64, 76
1, 35536, Control_c, 0, 67, 91
1, 35551, Control_c, 0, 67, 92
1, 35566, Control_c, 0, 67, 93
1, 35581, Control_c, 0, 64, 76
1, 35595, Control_c, 0, 64, 74
1, 35610, Control_c, 0, 64, 73
1, 35625, Control_c, 0, 64, 70
1, 35640, Control_c, 0, 64, 68
1, 35655, Control_c, 0, 64, 66
1, 35670, Control_c, 0, 64, 63
1, 35672, Note_on_c, 0, 74, 62
1, 35679, Note_off_c, 0, 57, 44
1, 35683, Note_on_c, 0, 58, 38
1, 35685, Control_c, 0, 64, 52
1, 35687, Note_on_c, 0, 64, 52
1, 35691, Note_on_c, 0, 55, 35
1, 35694, Note_off_c, 0, 60, 34
1, 35700, Control_c, 0, 64, 0
1, 35819, Control_c, 0, 64, 53
1, 35833, Control_c, 0, 64, 64
1, 35848, Control_c, 0, 64, 68
1, 35848, Control_c, 0, 67, 93
1, 35863, Control_c, 0, 64, 71
1, 35878, Control_c, 0, 64, 73
1, 35893, Control_c, 0, 64, 75
1, 35906, Note_off_c, 0, 64, 59
1, 35907, Control_c, 0, 64, 75
1, 35922, Control_c, 0, 64, 76
1, 35951, Control_c, 0, 67, 94
1, 36070, Control_c, 0, 64, 75
1, 36100, Control_c, 0, 64, 75
1, 36115, Control_c, 0, 64, 74
1, 36130, Control_c, 0, 64, 73
1, 36151, Control_c, 0, 64, 71
1, 36167, Control_c, 0, 64, 69
1, 36182, Control_c, 0, 64, 68
1, 36182, Control_c, 0, 67, 93
1, 36197, Control_c, 0, 64, 66
1, 36212, Control_c, 0, 64, 65
1, 36223, Note_off_c, 0, 74, 55
1, 36225, Note_on_c, 0, 73, 63
1, 36226, Control_c, 0, 64, 63
1, 36234, Note_on_c, 0, 64, 52
1, 36241, Control_c, 0, 64, 58
1, 36241, Control_c, 0, 67, 93
1, 36247, Note_on_c, 0, 57, 33
1, 36256, Control_c, 0, 64, 39
1, 36271, Control_c, 0, 64, 0
1, 36314, Note_off_c, 0, 58, 50
1, 36359, Control_c, 0, 64, 35
1, 36374, Control_c, 0, 64, 59
1, 36389, Control_c, 0, 64, 65
1, 36404, Control_c, 0, 64, 68
1, 36413, Note_off_c, 0, 55, 57
1, 36419, Control_c, 0, 64, 71
1, 36419, Control_c, 0, 67, 93
1, 36434, Control_c, 0, 64, 73
1, 36449, Control_c, 0, 64, 74
1, 36460, Note_off_c, 0, 64, 62
1, 36464, Control_c, 0, 64, 74
1, 36583, Control_c, 0, 67, 93
1, 36598, Control_c, 0, 64, 74
1, 36613, Control_c, 0, 64, 73
1, 36627, Control_c, 0, 64, 72
1, 36627, Control_c, 0, 67, 92
1, 36642, Control_c, 0, 64, 70
1, 36657, Control_c, 0, 64, 68
1, 36672, Control_c, 0, 64, 66
1, 36672, Control_c, 0, 67, 92
1, 36687, Control_c, 0, 64, 64
1, 36687, Control_c, 0, 67, 91
1, 36702, Control_c, 0, 64, 56
1, 36716, Control_c, 0, 64, 0
1, 36717, Note_off_c, 0, 57, 35
1, 36732, Note_on_c, 0, 74, 54
1, 36746, Control_c, 0, 67, 91
1, 36748, Note_on_c, 0, 53, 35
1, 36758, Note_on_c, 0, 65, 37
1, 36759, Note_off_c, 0, 73, 34
1, 36805, Control_c, 0, 64, 53
1, 36820, Control_c, 0, 64, 64
1, 36825, Note_off_c, 0, 53, 64
1, 36835, Control_c, 0, 64, 67
1, 36839, Note_off_c, 0, 65, 61
1, 36848, Note_off_c, 0, 74, 64
1, 36849, Control_c, 0, 64, 68
1, 36879, Control_c, 0, 64, 68
1, 36879, Control_c, 0, 67, 91
1, 36902, Control_c, 0, 64, 65
1, 36916, Control_c, 0, 64, 61
1, 36930, Control_c, 0, 64, 46
1, 36945, Control_c, 0, 64, 0
1, 36945, Control_c, 0, 67, 92
1, 36960, Control_c, 0, 67, 92
1, 36989, Control_c, 0, 67, 93
1, 37108, Control_c, 0, 67, 92
1, 37182, Control_c, 0, 67, 92
1, 37197, Control_c, 0, 67, 91
1, 37242, Control_c, 0, 67, 91
1, 37242, Note_on_c, 0, 76, 51
1, 37258, Note_on_c, 0, 64, 43
1, 37263, Note_on_c, 0, 55, 32
1, 37271, Note_on_c, 0, 70, 39
1, 37286, Control_c, 0, 64, 57
1, 37301, Control_c, 0, 64, 64
1, 37316, Note_off_c, 0, 55, 63
1, 37316, Control_c, 0, 64, 65
1, 37318, Note_off_c, 0, 64, 62
1, 37328, Note_off_c, 0, 76, 65
1, 37334, Note_off_c, 0, 70, 53
1, 37346, Control_c, 0, 64, 64
1, 37361, Control_c, 0, 64, 62
1, 37376, Control_c, 0, 64, 57
1, 37390, Control_c, 0, 64, 47
1, 37405, Control_c, 0, 64, 30
1, 37405, Control_c, 0, 67, 91
1, 37420, Control_c, 0, 64, 0
1, 37435, Control_c, 0, 67, 92
1, 37450, Control_c, 0, 67, 92
1, 37479, Control_c, 0, 67, 93
1, 37538, Control_c, 0, 67, 92
1, 37568, Control_c, 0, 67, 92
1, 37583, Control_c, 0, 67, 91
1, 37650, Control_c, 0, 67, 91
1, 37774, Note_on_c, 0, 73, 47
1, 37785, Note_on_c, 0, 69, 45
1, 37791, Note_on_c, 0, 67, 44
1, 37794, Note_on_c, 0, 57, 35
1, 37797, Control_c, 0, 64, 51
1, 37812, Control_c, 0, 64, 62
1, 37827, Control_c, 0, 64, 64
1, 37838, Note_off_c, 0, 69, 61
1, 37842, Control_c, 0, 64, 65
1, 37843, Note_off_c, 0, 67, 61
1, 37865, Note_off_c, 0, 73, 62
1, 37867, Note_off_c, 0, 57, 61
1, 37871, Control_c, 0, 64, 64
1, 37886, Control_c, 0, 64, 63
1, 37901, Control_c, 0, 64, 58
1, 37916, Control_c, 0, 64, 52
1, 37930, Control_c, 0, 64, 45
1, 37945, Control_c, 0, 64, 41
1, 37960, Control_c, 0, 64, 38
1, 37975, Control_c, 0, 64, 34
1, 37990, Control_c, 0, 64, 23
1, 38005, Control_c, 0, 64, 0
1, 38080, Control_c, 0, 67, 90
1, 38213, Control_c, 0, 67, 90
1, 38317, Control_c, 0, 67, 89
1, 38341, Note_on_c, 0, 74, 36
1, 38347, Note_on_c, 0, 65, 35
1, 38359, Note_on_c, 0, 69, 29
1, 38369, Note_on_c, 0, 50, 15
1, 38376, Control_c, 0, 67, 89
1, 38428, Control_c, 0, 64, 41
1, 38443, Control_c, 0, 64, 55
1, 38443, Control_c, 0, 67, 88
1, 38458, Control_c, 0, 64, 62
1, 38473, Control_c, 0, 64, 65
1, 38473, Control_c, 0, 67, 88
1, 38488, Control_c, 0, 64, 68
1, 38488, Control_c, 0, 67, 87
1, 38493, Note_off_c, 0, 74, 63
1, 38495, Note_off_c, 0, 65, 60
1, 38497, Note_off_c, 0, 69, 55
1, 38498, Note_off_c, 0, 50, 50
1, 38502, Control_c, 0, 64, 71
1, 38502, Control_c, 0, 67, 87
1, 38517, Control_c, 0, 64, 74
1, 38532, Control_c, 0, 64, 75
1, 38532, Control_c, 0, 67, 86
1, 38546, Control_c, 0, 64, 76
1, 38546, Control_c, 0, 67, 86
1, 38561, Control_c, 0, 64, 77
1, 38561, Control_c, 0, 67, 85
1, 38591, Control_c, 0, 67, 84
1, 38635, Control_c, 0, 67, 84
1, 38680, Control_c, 0, 67, 83
1, 38709, Control_c, 0, 64, 76
1, 38724, Control_c, 0, 67, 82
1, 38739, Control_c, 0, 64, 76
1, 38739, Control_c, 0, 67, 82
1, 38753, Control_c, 0, 64, 75
1, 38753, Control_c, 0, 67, 79
1, 38768, Control_c, 0, 64, 75
1, 38768, Control_c, 0, 67, 77
1, 38783, Control_c, 0, 67, 76
1, 38798, Control_c, 0, 64, 74
1, 38798, Control_c, 0, 67, 75
1, 38827, Control_c, 0, 64, 74
1, 38842, Control_c, 0, 64, 73
1, 38857, Control_c, 0, 64, 73
1, 38873, Control_c, 0, 64, 72
1, 38903, Control_c, 0, 64, 72
1, 38947, Control_c, 0, 64, 71
1, 38962, Control_c, 0, 64, 71
1, 38976, Control_c, 0, 64, 70
1, 39036, Control_c, 0, 64, 70
1, 39066, Control_c, 0, 64, 69
1, 39081, Control_c, 0, 64, 69
1, 39110, Control_c, 0, 64, 68
1, 39110, Control_c, 0, 67, 75
1, 39125, Control_c, 0, 64, 68
1, 39147, Control_c, 0, 64, 67
1, 39163, Control_c, 0, 64, 66
1, 39177, Control_c, 0, 64, 65
1, 39192, Control_c, 0, 64, 63
1, 39207, Control_c, 0, 64, 61
1, 39222, Control_c, 0, 64, 57
1, 39237, Control_c, 0, 64, 52
1, 39251, Control_c, 0, 64, 48
1, 39266, Control_c, 0, 64, 44
1, 39281, Control_c, 0, 64, 40
1, 39281, Control_c, 0, 67, 74
1, 39296, Control_c, 0, 64, 34
1, 39311, Control_c, 0, 64, 24
1, 39325, Control_c, 0, 64, 0
1, 39370, Control_c, 0, 67, 75
1, 39415, Control_c, 0, 67, 75
1, 39444, Control_c, 0, 67, 76
1, 39518, Control_c, 0, 67, 76
1, 39800, Control_c, 0, 67, 76
1, 39881, Note_on_c, 0, 69, 59
1, 39905, Note_on_c, 0, 65, 47
1, 40060, Control_c, 0, 67, 75
1, 40082, Note_off_c, 0, 65, 62
1, 40089, Control_c, 0, 67, 75
1, 40098, Note_on_c, 0, 64, 42
1, 40133, Control_c, 0, 67, 74
1, 40178, Control_c, 0, 67, 74
1, 40208, Control_c, 0, 67, 73
1, 40252, Control_c, 0, 67, 72
1, 40267, Control_c, 0, 67, 69
1, 40271, Note_off_c, 0, 64, 59
1, 40282, Control_c, 0, 67, 68
1, 40309, Note_on_c, 0, 50, 47
1, 40312, Control_c, 0, 67, 69
1, 40315, Note_on_c, 0, 62, 45
1, 40318, Note_on_c, 0, 38, 31
1, 40326, Control_c, 0, 67, 69
1, 40333, Note_off_c, 0, 50, 54
1, 40358, Note_off_c, 0, 38, 40
1, 40430, Control_c, 0, 67, 70
1, 40461, Note_off_c, 0, 62, 59
1, 40461, Control_c, 0, 67, 70
1, 40502, Note_on_c, 0, 60, 44
1, 40609, Control_c, 0, 67, 70
1, 40662, Note_off_c, 0, 60, 31
1, 40675, Control_c, 0, 67, 69
1, 40722, Note_on_c, 0, 52, 46
1, 40726, Note_on_c, 0, 40, 46
1, 40728, Note_on_c, 0, 59, 45
1, 40747, Note_off_c, 0, 52, 53
1, 40748, Control_c, 0, 67, 70
1, 40756, Note_off_c, 0, 40, 47
1, 40763, Control_c, 0, 67, 70
1, 40867, Note_off_c, 0, 59, 50
1, 40922, Note_on_c, 0, 60, 43
1, 41028, Note_off_c, 0, 60, 34
1, 41093, Note_off_c, 0, 69, 38
1, 41094, Note_on_c, 0, 68, 58
1, 41104, Control_c, 0, 67, 71
1, 41114, Note_on_c, 0, 62, 41
1, 41163, Control_c, 0, 64, 51
1, 41178, Control_c, 0, 64, 65
1, 41193, Control_c, 0, 64, 70
1, 41207, Control_c, 0, 64, 74
1, 41222, Control_c, 0, 64, 77
1, 41222, Control_c, 0, 67, 71
1, 41237, Control_c, 0, 64, 79
1, 41252, Control_c, 0, 64, 80
1, 41258, Note_off_c, 0, 62, 59
1, 41284, Note_off_c, 0, 68, 62
1, 41318, Note_on_c, 0, 64, 45
1, 41327, Control_c, 0, 67, 71
1, 41394, Control_c, 0, 64, 80
1, 41409, Control_c, 0, 64, 79
1, 41409, Control_c, 0, 67, 70
1, 41424, Control_c, 0, 64, 78
1, 41439, Control_c, 0, 64, 77
1, 41453, Control_c, 0, 64, 76
1, 41468, Control_c, 0, 64, 74
1, 41483, Control_c, 0, 64, 72
1, 41498, Control_c, 0, 64, 69
1, 41507, Note_off_c, 0, 64, 33
1, 41513, Control_c, 0, 64, 67
1, 41513, Control_c, 0, 67, 70
1, 41519, Note_on_c, 0, 74, 67
1, 41527, Control_c, 0, 64, 64
1, 41529, Note_on_c, 0, 65, 46
1, 41532, Note_on_c, 0, 70, 60
1, 41542, Control_c, 0, 64, 60
1, 41557, Control_c, 0, 64, 52
1, 41557, Control_c, 0, 67, 69
1, 41571, Control_c, 0, 64, 33
1, 41586, Control_c, 0, 64, 0
1, 41660, Control_c, 0, 67, 69
1, 41719, Control_c, 0, 67, 68
1, 41735, Note_off_c, 0, 65, 64
1, 41736, Note_on_c, 0, 64, 51
1, 41749, Control_c, 0, 67, 68
1, 41793, Control_c, 0, 67, 67
1, 41808, Control_c, 0, 67, 67
1, 41823, Control_c, 0, 67, 65
1, 41838, Control_c, 0, 67, 62
1, 41853, Control_c, 0, 67, 60
1, 41868, Control_c, 0, 67, 59
1, 41904, Note_off_c, 0, 64, 43
1, 41927, Control_c, 0, 67, 60
1, 41928, Note_on_c, 0, 55, 54
1, 41930, Note_on_c, 0, 43, 46
1, 41931, Note_on_c, 0, 67, 49
1, 41942, Control_c, 0, 67, 60
1, 41951, Note_off_c, 0, 55, 61
1, 41963, Note_off_c, 0, 43, 50
1, 41971, Control_c, 0, 67, 61
1, 41986, Control_c, 0, 67, 61
1, 42030, Control_c, 0, 67, 62
1, 42091, Control_c, 0, 67, 62
1, 42117, Note_off_c, 0, 67, 58
1, 42159, Note_on_c, 0, 65, 43
1, 42202, Control_c, 0, 67, 62
1, 42276, Control_c, 0, 67, 61
1, 42306, Note_off_c, 0, 65, 62
1, 42343, Note_on_c, 0, 64, 47
1, 42345, Note_on_c, 0, 57, 50
1, 42364, Note_on_c, 0, 45, 29
1, 42369, Note_off_c, 0, 57, 60
1, 42381, Control_c, 0, 67, 62
1, 42399, Note_off_c, 0, 45, 49
1, 42457, Note_off_c, 0, 64, 54
1, 42484, Control_c, 0, 67, 62
1, 42500, Note_off_c, 0, 70, 49
1, 42544, Note_on_c, 0, 65, 45
1, 42647, Control_c, 0, 67, 63
1, 42676, Control_c, 0, 67, 63
1, 42708, Note_off_c, 0, 65, 52
1, 42729, Note_on_c, 0, 73, 59
1, 42758, Note_on_c, 0, 67, 30
1, 42785, Note_off_c, 0, 74, 42
1, 42825, Control_c, 0, 64, 31
1, 42840, Control_c, 0, 64, 61
1, 42855, Control_c, 0, 64, 65
1, 42870, Control_c, 0, 64, 66
1, 42870, Control_c, 0, 67, 63
1, 42892, Control_c, 0, 64, 67
1, 42892, Control_c, 0, 67, 62
1, 42904, Note_off_c, 0, 67, 38
1, 42907, Control_c, 0, 64, 67
1, 42922, Control_c, 0, 64, 68
1, 42922, Control_c, 0, 67, 62
1, 42934, Note_off_c, 0, 73, 61
1, 42936, Control_c, 0, 64, 69
1, 42950, Note_on_c, 0, 70, 50
1, 42966, Control_c, 0, 64, 69
1, 43040, Control_c, 0, 67, 61
1, 43055, Control_c, 0, 64, 69
1, 43070, Control_c, 0, 64, 68
1, 43070, Control_c, 0, 67, 61
1, 43084, Control_c, 0, 64, 67
1, 43099, Control_c, 0, 64, 64
1, 43099, Control_c, 0, 67, 60
1, 43114, Control_c, 0, 64, 57
1, 43129, Control_c, 0, 64, 39
1, 43144, Control_c, 0, 64, 38
1, 43145, Note_on_c, 0, 77, 66
1, 43149, Note_off_c, 0, 70, 55
1, 43159, Control_c, 0, 64, 51
1, 43159, Control_c, 0, 67, 60
1, 43164, Note_on_c, 0, 73, 56
1, 43171, Note_on_c, 0, 69, 53
1, 43174, Control_c, 0, 64, 58
1, 43188, Control_c, 0, 64, 63
1, 43203, Control_c, 0, 64, 66
1, 43218, Control_c, 0, 64, 69
1, 43233, Control_c, 0, 64, 73
1, 43248, Control_c, 0, 64, 77
1, 43263, Control_c, 0, 64, 78
1, 43278, Control_c, 0, 67, 59
1, 43299, Note_off_c, 0, 77, 57
1, 43341, Note_off_c, 0, 73, 60
1, 43351, Control_c, 0, 67, 60
1, 43358, Note_on_c, 0, 68, 53
1, 43366, Control_c, 0, 67, 60
1, 43396, Control_c, 0, 67, 61
1, 43405, Note_off_c, 0, 69, 37
1, 43410, Control_c, 0, 67, 61
1, 43415, Note_off_c, 0, 68, 46
1, 43470, Control_c, 0, 64, 78
1, 43484, Control_c, 0, 64, 77
1, 43484, Control_c, 0, 67, 61
1, 43499, Control_c, 0, 64, 75
1, 43514, Control_c, 0, 64, 71
1, 43529, Control_c, 0, 64, 64
1, 43529, Control_c, 0, 67, 60
1, 43543, Control_c, 0, 64, 16
1, 43549, Note_on_c, 0, 76, 68
1, 43558, Note_on_c, 0, 69, 51
1, 43558, Control_c, 0, 64, 0
1, 43570, Note_on_c, 0, 73, 59
1, 43580, Note_on_c, 0, 57, 45
1, 43585, Note_on_c, 0, 45, 50
1, 43603, Control_c, 0, 64, 54
1, 43618, Control_c, 0, 64, 63
1, 43640, Control_c, 0, 64, 68
1, 43640, Control_c, 0, 67, 61
1, 43655, Control_c, 0, 64, 71
1, 43655, Control_c, 0, 67, 61
1, 43664, Note_off_c, 0, 45, 62
1, 43671, Note_off_c, 0, 57, 61
1, 43671, Control_c, 0, 64, 74
1, 43686, Control_c, 0, 64, 76
1, 43704, Note_off_c, 0, 76, 60
1, 43730, Control_c, 0, 67, 62
1, 43731, Note_off_c, 0, 69, 64
1, 43745, Control_c, 0, 67, 62
1, 43759, Control_c, 0, 67, 63
1, 43762, Note_on_c, 0, 67, 66
1, 43789, Control_c, 0, 67, 64
1, 43819, Control_c, 0, 64, 75
1, 43833, Control_c, 0, 64, 75
1, 43848, Control_c, 0, 64, 74
1, 43848, Control_c, 0, 67, 64
1, 43863, Control_c, 0, 64, 74
1, 43878, Control_c, 0, 64, 73
1, 43893, Control_c, 0, 64, 71
1, 43893, Control_c, 0, 67, 64
1, 43906, Note_off_c, 0, 67, 57
1, 43907, Control_c, 0, 64, 68
1, 43922, Control_c, 0, 64, 62
1, 43925, Note_off_c, 0, 73, 56
1, 43937, Control_c, 0, 64, 25
1, 43952, Control_c, 0, 64, 0
1, 43966, Note_on_c, 0, 74, 76
1, 43981, Note_on_c, 0, 58, 58
1, 43981, Control_c, 0, 67, 63
1, 43983, Note_on_c, 0, 65, 65
1, 43990, Note_on_c, 0, 46, 51
1, 44011, Control_c, 0, 64, 44
1, 44011, Control_c, 0, 67, 64
1, 44026, Control_c, 0, 64, 62
1, 44041, Control_c, 0, 64, 67
1, 44041, Control_c, 0, 67, 65
1, 44047, Note_off_c, 0, 58, 63
1, 44056, Control_c, 0, 64, 70
1, 44056, Control_c, 0, 67, 66
1, 44059, Note_off_c, 0, 46, 58
1, 44071, Control_c, 0, 64, 72
1, 44071, Control_c, 0, 67, 66
1, 44086, Control_c, 0, 64, 73
1, 44130, Control_c, 0, 67, 67
1, 44136, Note_off_c, 0, 65, 59
1, 44159, Control_c, 0, 67, 67
1, 44165, Note_off_c, 0, 74, 52
1, 44174, Control_c, 0, 67, 68
1, 44176, Note_on_c, 0, 64, 67
1, 44204, Control_c, 0, 64, 72
1, 44219, Control_c, 0, 67, 68
1, 44263, Control_c, 0, 64, 72
1, 44278, Control_c, 0, 64, 71
1, 44292, Control_c, 0, 64, 70
1, 44292, Control_c, 0, 67, 68
1, 44305, Note_off_c, 0, 64, 62
1, 44307, Control_c, 0, 64, 68
1, 44322, Control_c, 0, 64, 64
1, 44337, Control_c, 0, 64, 52
1, 44337, Control_c, 0, 67, 68
1, 44352, Control_c, 0, 64, 0
1, 44359, Note_on_c, 0, 72, 75
1, 44372, Note_on_c, 0, 65, 54
1, 44385, Note_on_c, 0, 69, 65
1, 44389, Control_c, 0, 67, 69
1, 44398, Note_on_c, 0, 41, 46
1, 44399, Note_on_c, 0, 53, 46
1, 44434, Control_c, 0, 64, 56
1, 44434, Control_c, 0, 67, 69
1, 44448, Control_c, 0, 64, 65
1, 44448, Control_c, 0, 67, 70
1, 44464, Control_c, 0, 64, 68
1, 44464, Control_c, 0, 67, 70
1, 44479, Control_c, 0, 64, 72
1, 44479, Control_c, 0, 67, 72
1, 44494, Control_c, 0, 64, 75
1, 44494, Control_c, 0, 67, 73
1, 44506, Note_off_c, 0, 53, 57
1, 44509, Control_c, 0, 64, 76
1, 44509, Control_c, 0, 67, 73
1, 44515, Note_off_c, 0, 72, 63
1, 44524, Control_c, 0, 67, 74
1, 44538, Control_c, 0, 67, 74
1, 44546, Note_off_c, 0, 41, 35
1, 44553, Note_off_c, 0, 69, 56
1, 44553, Control_c, 0, 67, 75
1, 44558, Note_off_c, 0, 65, 57
1, 44568, Control_c, 0, 67, 76
1, 44570, Note_on_c, 0, 63, 67
1, 44582, Control_c, 0, 67, 78
1, 44597, Control_c, 0, 67, 79
1, 44612, Control_c, 0, 67, 79
1, 44642, Control_c, 0, 67, 80
1, 44686, Control_c, 0, 67, 79
1, 44699, Note_off_c, 0, 63, 58
1, 44701, Control_c, 0, 64, 75
1, 44715, Control_c, 0, 64, 74
1, 44715, Control_c, 0, 67, 79
1, 44730, Control_c, 0, 64, 73
1, 44745, Control_c, 0, 64, 70
1, 44745, Control_c, 0, 67, 78
1, 44760, Control_c, 0, 64, 65
1, 44760, Control_c, 0, 67, 78
1, 44774, Note_on_c, 0, 72, 73
1, 44775, Control_c, 0, 64, 43
1, 44789, Note_on_c, 0, 65, 53
1, 44789, Control_c, 0, 64, 0
1, 44795, Note_on_c, 0, 55, 46
1, 44795, Note_on_c, 0, 69, 56
1, 44804, Note_on_c, 0, 43, 40
1, 44804, Control_c, 0, 67, 77
1, 44819, Control_c, 0, 67, 77
1, 44834, Control_c, 0, 67, 76
1, 44849, Control_c, 0, 67, 76
1, 44856, Note_off_c, 0, 55, 64
1, 44879, Control_c, 0, 64, 47
1, 44893, Control_c, 0, 64, 60
1, 44904, Note_off_c, 0, 43, 55
1, 44908, Control_c, 0, 64, 62
1, 44923, Control_c, 0, 64, 63
1, 44938, Control_c, 0, 64, 62
1, 44938, Control_c, 0, 67, 75
1, 44947, Note_off_c, 0, 69, 64
1, 44953, Control_c, 0, 64, 61
1, 44965, Note_off_c, 0, 65, 65
1, 44968, Control_c, 0, 64, 57
1, 44982, Control_c, 0, 64, 52
1, 44982, Control_c, 0, 67, 75
1, 44990, Note_on_c, 0, 62, 56
1, 44997, Control_c, 0, 64, 44
1, 45012, Control_c, 0, 64, 29
1, 45027, Control_c, 0, 64, 0
1, 45027, Control_c, 0, 67, 74
1, 45056, Control_c, 0, 67, 74
1, 45115, Control_c, 0, 67, 73
1, 45138, Note_off_c, 0, 62, 49
1, 45206, Note_on_c, 0, 67, 40
1, 45212, Note_on_c, 0, 43, 41
1, 45215, Note_on_c, 0, 31, 40
1, 45219, Note_on_c, 0, 64, 32
1, 45226, Control_c, 0, 67, 74
1, 45246, Note_off_c, 0, 43, 47
1, 45254, Note_off_c, 0, 31, 43
1, 45256, Control_c, 0, 67, 75
1, 45286, Control_c, 0, 67, 75
1, 45301, Control_c, 0, 67, 76
1, 45316, Control_c, 0, 67, 77
1, 45331, Control_c, 0, 67, 78
1, 45345, Control_c, 0, 67, 78
1, 45360, Control_c, 0, 67, 79
1, 45363, Note_off_c, 0, 72, 60
1, 45375, Control_c, 0, 67, 80
1, 45382, Note_off_c, 0, 64, 54
1, 45386, Note_off_c, 0, 67, 35
1, 45388, Note_on_c, 0, 70, 60
1, 45390, Control_c, 0, 67, 80
1, 45422, Note_on_c, 0, 62, 44
1, 45434, Control_c, 0, 67, 81
1, 45449, Control_c, 0, 67, 82
1, 45464, Control_c, 0, 67, 85
1, 45478, Control_c, 0, 67, 88
1, 45493, Control_c, 0, 67, 91
1, 45508, Control_c, 0, 67, 93
1, 45523, Control_c, 0, 67, 93
1, 45539, Note_off_c, 0, 70, 61
1, 45567, Control_c, 0, 67, 93
1, 45582, Control_c, 0, 67, 92
1, 45593, Note_off_c, 0, 62, 33
1, 45597, Control_c, 0, 67, 91
1, 45603, Note_on_c, 0, 69, 58
1, 45612, Control_c, 0, 67, 91
1, 45627, Control_c, 0, 67, 90
1, 45632, Note_on_c, 0, 45, 40
1, 45642, Note_on_c, 0, 61, 42
1, 45645, Note_on_c, 0, 33, 37
1, 45669, Note_off_c, 0, 45, 64
1, 45676, Note_off_c, 0, 33, 55
1, 45686, Control_c, 0, 67, 90
1, 45775, Note_off_c, 0, 61, 61
1, 45804, Control_c, 0, 67, 90
1, 45806, Note_on_c, 0, 64, 44
1, 45994, Note_off_c, 0, 64, 56
1, 46018, Note_on_c, 0, 65, 52
1, 46044, Note_off_c, 0, 69, 54
1, 46080, Control_c, 0, 64, 62
1, 46080, Control_c, 0, 67, 91
1, 46095, Control_c, 0, 64, 68
1, 46110, Control_c, 0, 64, 72
1, 46125, Control_c, 0, 64, 75
1, 46140, Control_c, 0, 64, 77
1, 46154, Control_c, 0, 64, 78
1, 46213, Note_off_c, 0, 65, 60
1, 46219, Note_on_c, 0, 67, 70
1, 46288, Control_c, 0, 64, 78
1, 46303, Control_c, 0, 64, 77
1, 46303, Control_c, 0, 67, 90
1, 46317, Control_c, 0, 64, 76
1, 46332, Control_c, 0, 64, 74
1, 46347, Control_c, 0, 64, 73
1, 46361, Control_c, 0, 64, 72
1, 46376, Control_c, 0, 64, 71
1, 46376, Control_c, 0, 67, 90
1, 46391, Control_c, 0, 64, 69
1, 46391, Control_c, 0, 67, 89
1, 46406, Control_c, 0, 64, 67
1, 46406, Control_c, 0, 67, 89
1, 46421, Control_c, 0, 64, 65
1, 46426, Note_on_c, 0, 69, 79
1, 46435, Note_on_c, 0, 65, 59
1, 46435, Control_c, 0, 64, 63
1, 46435, Control_c, 0, 67, 88
1, 46447, Note_off_c, 0, 67, 57
1, 46450, Control_c, 0, 64, 58
1, 46465, Control_c, 0, 64, 49
1, 46480, Control_c, 0, 64, 35
1, 46480, Control_c, 0, 67, 88
1, 46495, Control_c, 0, 64, 0
1, 46554, Control_c, 0, 67, 87
1, 46584, Control_c, 0, 67, 87
1, 46653, Note_on_c, 0, 64, 58
1, 46670, Note_off_c, 0, 65, 64
1, 46739, Control_c, 0, 67, 86
1, 46816, Note_off_c, 0, 64, 64
1, 46841, Note_on_c, 0, 62, 54
1, 46852, Note_on_c, 0, 50, 51
1, 46861, Note_on_c, 0, 38, 35
1, 46877, Note_off_c, 0, 50, 53
1, 46888, Control_c, 0, 67, 87
1, 46900, Note_off_c, 0, 38, 31
1, 46918, Control_c, 0, 67, 87
1, 46932, Control_c, 0, 67, 88
1, 46947, Control_c, 0, 67, 88
1, 46962, Control_c, 0, 67, 89
1, 46992, Control_c, 0, 67, 89
1, 47001, Note_off_c, 0, 62, 57
1, 47033, Note_on_c, 0, 61, 56
1, 47052, Control_c, 0, 67, 90
1, 47155, Control_c, 0, 67, 89
1, 47170, Control_c, 0, 67, 89
1, 47198, Note_off_c, 0, 61, 61
1, 47214, Control_c, 0, 67, 88
1, 47230, Note_on_c, 0, 62, 52
1, 47235, Note_on_c, 0, 47, 55
1, 47260, Note_off_c, 0, 47, 61
1, 47266, Note_on_c, 0, 35, 7
1, 47314, Note_off_c, 0, 35, 27
1, 47332, Control_c, 0, 67, 89
1, 47384, Control_c, 0, 67, 89
1, 47407, Note_off_c, 0, 62, 54
1, 47436, Note_on_c, 0, 65, 43
1, 47503, Control_c, 0, 67, 89
1, 47609, Note_off_c, 0, 69, 54
1, 47636, Note_on_c, 0, 68, 63
1, 47639, Note_off_c, 0, 65, 57
1, 47667, Control_c, 0, 67, 89
1, 47696, Control_c, 0, 67, 90
1, 47711, Control_c, 0, 64, 60
1, 47725, Control_c, 0, 64, 66
1, 47740, Control_c, 0, 64, 69
1, 47755, Control_c, 0, 64, 72
1, 47770, Control_c, 0, 64, 74
1, 47785, Control_c, 0, 64, 75
1, 47800, Control_c, 0, 64, 76
1, 47821, Note_off_c, 0, 68, 59
1, 47830, Control_c, 0, 67, 89
1, 47844, Note_on_c, 0, 62, 47
1, 47859, Control_c, 0, 67, 89
1, 47919, Control_c, 0, 64, 76
1, 47933, Control_c, 0, 64, 75
1, 47939, Note_off_c, 0, 62, 0
1, 47939, Note_on_c, 0, 62, 5
1, 47948, Control_c, 0, 64, 75
1, 47948, Control_c, 0, 67, 88
1, 47963, Control_c, 0, 64, 74
1, 47978, Control_c, 0, 64, 73
1, 47993, Control_c, 0, 64, 72
1, 48007, Control_c, 0, 64, 71
1, 48022, Control_c, 0, 64, 70
1, 48022, Control_c, 0, 67, 88
1, 48037, Control_c, 0, 64, 68
1, 48052, Control_c, 0, 64, 66
1, 48067, Control_c, 0, 64, 65
1, 48074, Note_on_c, 0, 67, 62
1, 48081, Control_c, 0, 64, 63
1, 48083, Note_on_c, 0, 63, 49
1, 48096, Control_c, 0, 64, 60
1, 48096, Control_c, 0, 67, 87
1, 48111, Control_c, 0, 64, 56
1, 48131, Note_off_c, 0, 62, 44
1, 48133, Control_c, 0, 64, 45
1, 48146, Control_c, 0, 64, 27
1, 48146, Control_c, 0, 67, 87
1, 48161, Control_c, 0, 64, 0
1, 48205, Control_c, 0, 67, 86
1, 48280, Note_on_c, 0, 62, 37
1, 48291, Note_off_c, 0, 63, 57
1, 48295, Control_c, 0, 67, 86
1, 48354, Control_c, 0, 67, 85
1, 48369, Control_c, 0, 67, 85
1, 48413, Control_c, 0, 67, 84
1, 48463, Note_off_c, 0, 62, 54
1, 48481, Note_on_c, 0, 48, 52
1, 48482, Note_on_c, 0, 60, 48
1, 48488, Control_c, 0, 67, 85
1, 48503, Control_c, 0, 67, 85
1, 48504, Note_on_c, 0, 36, 17
1, 48504, Note_off_c, 0, 48, 60
1, 48518, Control_c, 0, 67, 86
1, 48546, Note_off_c, 0, 36, 28
1, 48562, Control_c, 0, 67, 86
1, 48592, Control_c, 0, 67, 87
1, 48621, Control_c, 0, 67, 87
1, 48651, Note_off_c, 0, 60, 56
1, 48666, Control_c, 0, 67, 88
1, 48688, Note_on_c, 0, 59, 49
1, 48740, Control_c, 0, 67, 87
1, 48769, Control_c, 0, 67, 87
1, 48828, Control_c, 0, 67, 86
1, 48853, Note_off_c, 0, 59, 61
1, 48891, Note_on_c, 0, 45, 53
1, 48898, Note_on_c, 0, 60, 48
1, 48918, Note_off_c, 0, 45, 63
1, 48952, Poly_aftertouch_c, 0, 33, 127
1, 48970, Control_c, 0, 67, 87
1, 48983, Poly_aftertouch_c, 0, 33, 0
1, 49044, Control_c, 0, 67, 87
1, 49074, Control_c, 0, 67, 88
1, 49082, Note_off_c, 0, 60, 37
1, 49095, Note_on_c, 0, 63, 43
1, 49272, Note_off_c, 0, 67, 46
1, 49301, Note_on_c, 0, 66, 54
1, 49315, Note_off_c, 0, 63, 49
1, 49326, Control_c, 0, 67, 87
1, 49371, Control_c, 0, 67, 87
1, 49386, Control_c, 0, 67, 86
1, 49401, Control_c, 0, 64, 60
1, 49416, Control_c, 0, 64, 65
1, 49416, Control_c, 0, 67, 86
1, 49430, Control_c, 0, 64, 66
1, 49430, Control_c, 0, 67, 85
1, 49445, Control_c, 0, 64, 66
1, 49460, Control_c, 0, 64, 67
1, 49475, Control_c, 0, 64, 68
1, 49490, Control_c, 0, 67, 84
1, 49496, Note_on_c, 0, 60, 50
1, 49504, Control_c, 0, 64, 69
1, 49593, Control_c, 0, 64, 68
1, 49593, Control_c, 0, 67, 84
1, 49608, Control_c, 0, 64, 68
1, 49630, Control_c, 0, 64, 67
1, 49630, Control_c, 0, 67, 83
1, 49645, Control_c, 0, 64, 64
1, 49645, Control_c, 0, 67, 83
1, 49660, Control_c, 0, 64, 56
1, 49675, Control_c, 0, 64, 0
1, 49698, Note_on_c, 0, 70, 68
1, 49705, Note_off_c, 0, 60, 26
1, 49706, Note_off_c, 0, 66, 43
1, 49719, Control_c, 0, 67, 82
1, 49749, Control_c, 0, 64, 44
1, 49764, Control_c, 0, 64, 61
1, 49778, Control_c, 0, 64, 64
1, 49793, Control_c, 0, 64, 64
1, 49793, Control_c, 0, 67, 83
1, 49808, Control_c, 0, 67, 83
1, 49838, Control_c, 0, 67, 84
1, 49852, Control_c, 0, 64, 65
1, 49867, Control_c, 0, 64, 65
1, 49867, Control_c, 0, 67, 84
1, 49882, Control_c, 0, 64, 66
1, 49895, Note_on_c, 0, 62, 58
1, 49897, Control_c, 0, 64, 67
1, 49911, Control_c, 0, 64, 68
1, 49911, Control_c, 0, 67, 85
1, 49947, Note_off_c, 0, 70, 53
1, 50000, Control_c, 0, 67, 84
1, 50015, Control_c, 0, 64, 67
1, 50030, Control_c, 0, 64, 66
1, 50045, Control_c, 0, 64, 62
1, 50045, Control_c, 0, 67, 84
1, 50061, Control_c, 0, 64, 46
1, 50075, Control_c, 0, 64, 0
1, 50084, Note_on_c, 0, 69, 74
1, 50090, Control_c, 0, 67, 83
1, 50096, Note_on_c, 0, 66, 66
1, 50101, Note_off_c, 0, 62, 56
1, 50113, Note_on_c, 0, 45, 41
1, 50117, Note_on_c, 0, 33, 43
1, 50149, Control_c, 0, 64, 16
1, 50164, Control_c, 0, 64, 57
1, 50179, Note_off_c, 0, 45, 61
1, 50179, Note_off_c, 0, 33, 63
1, 50179, Control_c, 0, 64, 64
1, 50194, Control_c, 0, 64, 67
1, 50208, Control_c, 0, 64, 69
1, 50208, Control_c, 0, 67, 84
1, 50223, Control_c, 0, 64, 70
1, 50238, Control_c, 0, 64, 71
1, 50238, Control_c, 0, 67, 84
1, 50253, Control_c, 0, 67, 85
1, 50283, Control_c, 0, 67, 86
1, 50287, Note_on_c, 0, 60, 69
1, 50287, Note_off_c, 0, 66, 64
1, 50298, Control_c, 0, 64, 70
1, 50313, Control_c, 0, 67, 86
1, 50327, Control_c, 0, 67, 87
1, 50357, Control_c, 0, 64, 70
1, 50379, Control_c, 0, 64, 69
1, 50394, Control_c, 0, 64, 69
1, 50408, Control_c, 0, 64, 68
1, 50423, Control_c, 0, 64, 67
1, 50435, Note_off_c, 0, 60, 58
1, 50438, Control_c, 0, 64, 64
1, 50453, Control_c, 0, 64, 53
1, 50468, Control_c, 0, 64, 0
1, 50495, Note_on_c, 0, 67, 81
1, 50513, Control_c, 0, 67, 86
1, 50513, Note_on_c, 0, 62, 59
1, 50514, Note_on_c, 0, 46, 57
1, 50524, Note_on_c, 0, 34, 44
1, 50530, Note_off_c, 0, 69, 63
1, 50572, Control_c, 0, 64, 62
1, 50587, Control_c, 0, 64, 67
1, 50587, Control_c, 0, 67, 87
1, 50601, Control_c, 0, 64, 69
1, 50606, Note_off_c, 0, 34, 57
1, 50616, Control_c, 0, 67, 87
1, 50617, Note_off_c, 0, 46, 61
1, 50631, Control_c, 0, 67, 88
1, 50645, Control_c, 0, 67, 88
1, 50692, Note_off_c, 0, 62, 56
1, 50703, Note_on_c, 0, 58, 66
1, 50705, Control_c, 0, 64, 69
1, 50734, Control_c, 0, 64, 68
1, 50749, Control_c, 0, 64, 68
1, 50779, Control_c, 0, 64, 67
1, 50794, Control_c, 0, 64, 66
1, 50794, Control_c, 0, 67, 88
1, 50808, Control_c, 0, 64, 65
1, 50823, Control_c, 0, 64, 63
1, 50835, Note_off_c, 0, 58, 59
1, 50838, Control_c, 0, 64, 60
1, 50854, Control_c, 0, 64, 55
1, 50869, Control_c, 0, 64, 43
1, 50869, Control_c, 0, 67, 87
1, 50884, Control_c, 0, 64, 0
1, 50900, Note_on_c, 0, 65, 77
1, 50917, Note_on_c, 0, 47, 48
1, 50919, Note_on_c, 0, 62, 55
1, 50921, Note_off_c, 0, 67, 59
1, 50928, Control_c, 0, 67, 88
1, 50932, Note_on_c, 0, 35, 42
1, 50987, Control_c, 0, 64, 52
1, 51002, Control_c, 0, 64, 66
1, 51002, Control_c, 0, 67, 88
1, 51017, Control_c, 0, 64, 70
1, 51017, Control_c, 0, 67, 89
1, 51031, Control_c, 0, 64, 71
1, 51031, Control_c, 0, 67, 90
1, 51046, Control_c, 0, 64, 72
1, 51046, Control_c, 0, 67, 90
1, 51080, Note_off_c, 0, 65, 62
1, 51086, Note_off_c, 0, 35, 39
1, 51101, Note_off_c, 0, 62, 60
1, 51102, Note_on_c, 0, 56, 67
1, 51106, Note_off_c, 0, 47, 39
1, 51128, Control_c, 0, 67, 91
1, 51142, Control_c, 0, 67, 91
1, 51156, Control_c, 0, 67, 92
1, 51171, Control_c, 0, 67, 92
1, 51193, Note_off_c, 0, 56, 62
1, 51216, Control_c, 0, 64, 71
1, 51231, Control_c, 0, 64, 71
1, 51231, Control_c, 0, 67, 93
1, 51246, Control_c, 0, 64, 70
1, 51246, Control_c, 0, 67, 93
1, 51261, Control_c, 0, 64, 69
1, 51275, Control_c, 0, 64, 66
1, 51290, Control_c, 0, 64, 63
1, 51305, Control_c, 0, 64, 55
1, 51306, Note_on_c, 0, 65, 71
1, 51320, Control_c, 0, 64, 34
1, 51324, Note_on_c, 0, 55, 49
1, 51329, Note_on_c, 0, 48, 50
1, 51335, Control_c, 0, 64, 0
1, 51353, Note_on_c, 0, 36, 35
1, 51421, Note_off_c, 0, 36, 57
1, 51430, Note_off_c, 0, 48, 62
1, 51467, Control_c, 0, 67, 93
1, 51512, Note_off_c, 0, 55, 45
1, 51512, Control_c, 0, 67, 92
1, 51517, Note_on_c, 0, 62, 55
1, 51645, Note_off_c, 0, 65, 51
1, 51705, Control_c, 0, 67, 93
1, 51715, Note_on_c, 0, 64, 60
1, 51740, Note_on_c, 0, 60, 41
1, 51744, Note_on_c, 0, 36, 36
1, 51750, Control_c, 0, 67, 93
1, 51753, Note_off_c, 0, 62, 32
1, 51775, Note_off_c, 0, 36, 59
1, 51880, Note_off_c, 0, 60, 51
1, 51905, Control_c, 0, 67, 94
1, 51934, Note_on_c, 0, 58, 45
1, 52020, Note_off_c, 0, 58, 46
1, 52083, Control_c, 0, 67, 93
1, 52098, Control_c, 0, 67, 93
1, 52113, Control_c, 0, 67, 92
1, 52133, Note_on_c, 0, 65, 50
1, 52138, Note_on_c, 0, 57, 43
1, 52143, Note_on_c, 0, 41, 39
1, 52143, Control_c, 0, 67, 91
1, 52153, Note_on_c, 0, 29, 38
1, 52164, Note_off_c, 0, 64, 33
1, 52172, Control_c, 0, 67, 91
1, 52182, Note_off_c, 0, 41, 65
1, 52187, Control_c, 0, 67, 90
1, 52188, Note_off_c, 0, 29, 52
1, 52202, Control_c, 0, 67, 90
1, 52325, Note_off_c, 0, 57, 41
1, 52329, Note_on_c, 0, 60, 51
1, 52335, Control_c, 0, 67, 90
1, 52499, Control_c, 0, 67, 91
1, 52530, Note_off_c, 0, 60, 57
1, 52547, Note_on_c, 0, 62, 51
1, 52558, Control_c, 0, 67, 91
1, 52588, Control_c, 0, 64, 29
1, 52602, Control_c, 0, 64, 61
1, 52602, Control_c, 0, 67, 92
1, 52625, Control_c, 0, 64, 65
1, 52625, Control_c, 0, 67, 92
1, 52641, Control_c, 0, 64, 69
1, 52656, Control_c, 0, 64, 72
1, 52656, Control_c, 0, 67, 93
1, 52671, Control_c, 0, 64, 75
1, 52685, Control_c, 0, 64, 78
1, 52685, Control_c, 0, 67, 93
1, 52688, Note_off_c, 0, 65, 33
1, 52700, Control_c, 0, 64, 79
1, 52700, Control_c, 0, 67, 94
1, 52715, Control_c, 0, 64, 80
1, 52715, Control_c, 0, 67, 94
1, 52739, Note_on_c, 0, 63, 58
1, 52751, Note_off_c, 0, 62, 51
1, 52761, Note_off_c, 0, 63, 65
1, 52877, Control_c, 0, 64, 80
1, 52892, Control_c, 0, 64, 79
1, 52907, Control_c, 0, 64, 78
1, 52907, Control_c, 0, 67, 94
1, 52921, Control_c, 0, 64, 77
1, 52921, Control_c, 0, 67, 93
1, 52936, Control_c, 0, 64, 74
1, 52936, Control_c, 0, 67, 93
1, 52951, Control_c, 0, 64, 72
1, 52951, Control_c, 0, 67, 92
1, 52961, Note_on_c, 0, 72, 81
1, 52966, Control_c, 0, 64, 68
1, 52966, Control_c, 0, 67, 92
1, 52970, Note_on_c, 0, 65, 76
1, 52975, Note_on_c, 0, 69, 74
1, 52981, Control_c, 0, 64, 63
1, 52981, Control_c, 0, 67, 91
1, 52996, Control_c, 0, 64, 50
1, 52996, Control_c, 0, 67, 91
1, 53010, Control_c, 0, 64, 0
1, 53040, Control_c, 0, 67, 90
1, 53055, Control_c, 0, 67, 90
1, 53085, Control_c, 0, 67, 89
1, 53115, Control_c, 0, 67, 88
1, 53169, Note_on_c, 0, 63, 68
1, 53180, Note_off_c, 0, 65, 61
1, 53293, Control_c, 0, 67, 88
1, 53378, Note_on_c, 0, 53, 77
1, 53378, Note_on_c, 0, 65, 73
1, 53384, Note_off_c, 0, 63, 37
1, 53391, Note_on_c, 0, 41, 61
1, 53404, Control_c, 0, 67, 88
1, 53409, Note_off_c, 0, 53, 68
1, 53418, Note_off_c, 0, 41, 64
1, 53419, Control_c, 0, 67, 89
1, 53434, Control_c, 0, 67, 89
1, 53464, Control_c, 0, 67, 90
1, 53478, Control_c, 0, 67, 90
1, 53493, Control_c, 0, 67, 91
1, 53508, Control_c, 0, 67, 91
1, 53520, Note_off_c, 0, 69, 55
1, 53523, Control_c, 0, 67, 92
1, 53567, Control_c, 0, 67, 93
1, 53577, Note_on_c, 0, 67, 81
1, 53582, Control_c, 0, 67, 93
1, 53585, Note_off_c, 0, 65, 64
1, 53597, Control_c, 0, 67, 94
1, 53612, Control_c, 0, 67, 94
1, 53641, Control_c, 0, 67, 95
1, 53656, Control_c, 0, 67, 95
1, 53715, Control_c, 0, 67, 95
1, 53730, Control_c, 0, 67, 94
1, 53744, Control_c, 0, 67, 93
1, 53789, Note_on_c, 0, 68, 81
1, 53789, Control_c, 0, 67, 93
1, 53793, Note_on_c, 0, 50, 80
1, 53795, Note_on_c, 0, 38, 78
1, 53841, Note_off_c, 0, 50, 63
1, 53851, Note_off_c, 0, 38, 62
1, 53878, Control_c, 0, 67, 93
1, 53908, Control_c, 0, 67, 94
1, 53923, Control_c, 0, 67, 94
1, 53938, Control_c, 0, 67, 95
1, 53952, Control_c, 0, 67, 96
1, 53967, Control_c, 0, 67, 97
1, 53982, Control_c, 0, 67, 101
1, 53996, Note_on_c, 0, 63, 71
1, 53997, Note_off_c, 0, 68, 61
1, 53997, Control_c, 0, 67, 103
1, 53999, Note_off_c, 0, 72, 61
1, 54011, Control_c, 0, 67, 104
1, 54050, Note_off_c, 0, 67, 39
1, 54072, Control_c, 0, 67, 104
1, 54201, Note_off_c, 0, 63, 59
1, 54206, Note_on_c, 0, 71, 68
1, 54207, Note_on_c, 0, 65, 62
1, 54218, Note_on_c, 0, 68, 53
1, 54286, Control_c, 0, 67, 105
1, 54301, Control_c, 0, 67, 105
1, 54375, Note_off_c, 0, 65, 38
1, 54390, Control_c, 0, 67, 106
1, 54394, Note_off_c, 0, 68, 59
1, 54405, Control_c, 0, 67, 106
1, 54407, Note_off_c, 0, 71, 59
1, 54420, Control_c, 0, 67, 109
1, 54427, Note_on_c, 0, 67, 54
1, 54435, Control_c, 0, 67, 112
1, 54449, Control_c, 0, 67, 114
1, 54464, Control_c, 0, 67, 115
1, 54479, Control_c, 0, 67, 115
1, 54553, Control_c, 0, 67, 115
1, 54588, Note_off_c, 0, 67, 54
1, 54597, Control_c, 0, 67, 115
1, 54612, Control_c, 0, 67, 114
1, 54620, Note_on_c, 0, 71, 60
1, 54622, Note_on_c, 0, 68, 59
1, 54627, Control_c, 0, 67, 113
1, 54636, Note_on_c, 0, 65, 40
1, 54641, Control_c, 0, 67, 113
1, 54739, Note_off_c, 0, 71, 49
1, 54745, Control_c, 0, 67, 113
1, 54760, Control_c, 0, 67, 114
1, 54784, Note_off_c, 0, 68, 57
1, 54793, Note_off_c, 0, 65, 58
1, 54824, Note_on_c, 0, 63, 56
1, 54872, Control_c, 0, 67, 113
1, 54902, Control_c, 0, 67, 113
1, 54931, Control_c, 0, 67, 112
1, 54989, Note_off_c, 0, 63, 51
1, 54990, Control_c, 0, 67, 112
1, 55038, Note_on_c, 0, 71, 60
1, 55041, Note_on_c, 0, 67, 56
1, 55043, Note_on_c, 0, 55, 50
1, 55055, Note_on_c, 0, 43, 43
1, 55061, Note_on_c, 0, 65, 44
1, 55064, Control_c, 0, 67, 111
1, 55076, Note_off_c, 0, 55, 65
1, 55088, Note_off_c, 0, 43, 59
1, 55094, Control_c, 0, 67, 112
1, 55124, Control_c, 0, 67, 113
1, 55175, Note_off_c, 0, 67, 58
1, 55181, Note_off_c, 0, 71, 45
1, 55184, Control_c, 0, 67, 113
1, 55222, Note_off_c, 0, 65, 36
1, 55259, Note_on_c, 0, 62, 43
1, 55331, Control_c, 0, 67, 113
1, 55390, Control_c, 0, 67, 112
1, 55435, Control_c, 0, 67, 112
1, 55449, Control_c, 0, 67, 111
1, 55458, Note_on_c, 0, 71, 53
1, 55466, Note_off_c, 0, 62, 35
1, 55467, Note_on_c, 0, 65, 47
1, 55476, Note_on_c, 0, 48, 39
1, 55479, Control_c, 0, 67, 111
1, 55488, Note_on_c, 0, 36, 31
1, 55523, Control_c, 0, 67, 110
1, 55568, Control_c, 0, 64, 46
1, 55568, Control_c, 0, 67, 110
1, 55583, Control_c, 0, 64, 62
1, 55598, Control_c, 0, 64, 63
1, 55601, Note_off_c, 0, 36, 58
1, 55622, Note_off_c, 0, 48, 47
1, 55635, Control_c, 0, 67, 109
1, 55651, Control_c, 0, 64, 63
1, 55666, Control_c, 0, 64, 62
1, 55666, Control_c, 0, 67, 108
1, 55674, Note_off_c, 0, 65, 65
1, 55681, Control_c, 0, 64, 62
1, 55681, Control_c, 0, 67, 108
1, 55695, Control_c, 0, 64, 61
1, 55703, Note_on_c, 0, 62, 48
1, 55710, Control_c, 0, 64, 60
1, 55710, Control_c, 0, 67, 107
1, 55725, Control_c, 0, 64, 59
1, 55740, Control_c, 0, 64, 59
1, 55754, Control_c, 0, 64, 58
1, 55769, Control_c, 0, 64, 56
1, 55784, Control_c, 0, 64, 53
1, 55799, Control_c, 0, 64, 49
1, 55814, Control_c, 0, 64, 45
1, 55828, Control_c, 0, 64, 41
1, 55834, Note_off_c, 0, 62, 55
1, 55843, Control_c, 0, 64, 34
1, 55858, Control_c, 0, 64, 24
1, 55858, Control_c, 0, 67, 107
1, 55872, Control_c, 0, 64, 0
1, 55872, Control_c, 0, 67, 108
1, 55884, Note_off_c, 0, 71, 46
1, 55899, Note_on_c, 0, 72, 63
1, 55911, Note_on_c, 0, 64, 43
1, 55976, Control_c, 0, 67, 107
1, 55991, Control_c, 0, 64, 37
1, 56006, Control_c, 0, 64, 61
1, 56006, Control_c, 0, 67, 106
1, 56009, Note_off_c, 0, 72, 58
1, 56021, Control_c, 0, 64, 65
1, 56021, Control_c, 0, 67, 106
1, 56036, Control_c, 0, 64, 68
1, 56036, Control_c, 0, 67, 105
1, 56051, Control_c, 0, 64, 71
1, 56051, Control_c, 0, 67, 104
1, 56058, Note_off_c, 0, 64, 60
1, 56065, Control_c, 0, 64, 73
1, 56065, Control_c, 0, 67, 101
1, 56080, Control_c, 0, 64, 74
1, 56080, Control_c, 0, 67, 95
1, 56093, Note_on_c, 0, 60, 68
1, 56095, Control_c, 0, 67, 88
1, 56110, Control_c, 0, 67, 83
1, 56125, Control_c, 0, 67, 82
1, 56129, Note_off_c, 0, 60, 57
1, 56228, Control_c, 0, 64, 73
1, 56243, Control_c, 0, 64, 72
1, 56257, Control_c, 0, 64, 70
1, 56272, Control_c, 0, 64, 66
1, 56287, Control_c, 0, 64, 62
1, 56300, Note_on_c, 0, 74, 84
1, 56302, Control_c, 0, 64, 38
1, 56303, Note_on_c, 0, 71, 84
1, 56310, Note_on_c, 0, 67, 76
1, 56317, Control_c, 0, 64, 0
1, 56331, Note_on_c, 0, 69, 46
1, 56363, Note_off_c, 0, 69, 52
1, 56489, Control_c, 0, 67, 83
1, 56516, Note_on_c, 0, 66, 75
1, 56519, Note_off_c, 0, 67, 61
1, 56548, Control_c, 0, 67, 83
1, 56592, Control_c, 0, 67, 84
1, 56681, Control_c, 0, 67, 84
1, 56710, Control_c, 0, 67, 85
1, 56719, Note_on_c, 0, 67, 84
1, 56725, Control_c, 0, 67, 85
1, 56726, Note_on_c, 0, 55, 74
1, 56740, Control_c, 0, 67, 86
1, 56749, Note_off_c, 0, 66, 65
1, 56755, Control_c, 0, 67, 86
1, 56769, Control_c, 0, 67, 87
1, 56799, Control_c, 0, 67, 87
1, 56812, Note_off_c, 0, 55, 63
1, 56814, Control_c, 0, 67, 88
1, 56817, Note_off_c, 0, 71, 57
1, 56874, Control_c, 0, 67, 88
1, 56903, Control_c, 0, 67, 89
1, 56912, Note_on_c, 0, 69, 87
1, 56924, Note_off_c, 0, 67, 62
1, 56948, Control_c, 0, 67, 89
1, 56962, Control_c, 0, 67, 90
1, 57051, Control_c, 0, 67, 89
1, 57066, Control_c, 0, 67, 88
1, 57080, Control_c, 0, 67, 87
1, 57095, Control_c, 0, 67, 87
1, 57117, Note_on_c, 0, 70, 81
1, 57118, Control_c, 0, 67, 86
1, 57127, Note_on_c, 0, 52, 83
1, 57133, Control_c, 0, 67, 84
1, 57136, Note_on_c, 0, 40, 73
1, 57148, Control_c, 0, 67, 83
1, 57163, Control_c, 0, 67, 82
1, 57166, Note_off_c, 0, 52, 69
1, 57172, Note_off_c, 0, 40, 66
1, 57177, Control_c, 0, 67, 82
1, 57221, Control_c, 0, 67, 82
1, 57233, Note_off_c, 0, 74, 42
1, 57252, Control_c, 0, 67, 82
1, 57331, Note_off_c, 0, 70, 57
1, 57333, Note_on_c, 0, 66, 73
1, 57356, Control_c, 0, 67, 82
1, 57357, Note_off_c, 0, 69, 54
1, 57386, Control_c, 0, 67, 83
1, 57415, Control_c, 0, 67, 83
1, 57445, Control_c, 0, 67, 84
1, 57460, Control_c, 0, 67, 84
1, 57489, Control_c, 0, 67, 85
1, 57527, Note_on_c, 0, 73, 73
1, 57530, Note_off_c, 0, 66, 62
1, 57536, Note_on_c, 0, 67, 64
1, 57545, Note_on_c, 0, 70, 66
1, 57548, Control_c, 0, 67, 84
1, 57693, Note_off_c, 0, 67, 53
1, 57708, Note_off_c, 0, 70, 56
1, 57720, Note_off_c, 0, 73, 61
1, 57732, Note_on_c, 0, 69, 73
1, 57815, Control_c, 0, 67, 84
1, 57881, Control_c, 0, 67, 83
1, 57911, Control_c, 0, 67, 83
1, 57926, Control_c, 0, 67, 82
1, 57938, Note_on_c, 0, 70, 74
1, 57941, Note_on_c, 0, 73, 75
1, 57941, Control_c, 0, 67, 82
1, 57955, Note_on_c, 0, 67, 55
1, 57956, Control_c, 0, 67, 81
1, 57957, Note_off_c, 0, 69, 60
1, 57971, Control_c, 0, 67, 80
1, 57985, Control_c, 0, 67, 79
1, 58000, Control_c, 0, 67, 75
1, 58015, Control_c, 0, 67, 71
1, 58030, Control_c, 0, 67, 66
1, 58045, Control_c, 0, 67, 59
1, 58060, Control_c, 0, 67, 53
1, 58075, Control_c, 0, 67, 50
1, 58090, Control_c, 0, 67, 49
1, 58105, Control_c, 0, 67, 48
1, 58114, Note_off_c, 0, 70, 62
1, 58120, Note_off_c, 0, 73, 59
1, 58123, Note_off_c, 0, 67, 57
1, 58144, Note_on_c, 0, 65, 73
1, 58149, Control_c, 0, 67, 49
1, 58194, Control_c, 0, 67, 48
1, 58209, Control_c, 0, 67, 48
1, 58223, Control_c, 0, 67, 47
1, 58238, Control_c, 0, 67, 45
1, 58253, Control_c, 0, 67, 40
1, 58267, Control_c, 0, 67, 33
1, 58282, Control_c, 0, 67, 27
1, 58297, Control_c, 0, 67, 22
1, 58298, Note_off_c, 0, 65, 60
1, 58312, Control_c, 0, 67, 17
1, 58327, Control_c, 0, 67, 13
1, 58334, Note_on_c, 0, 73, 88
1, 58341, Control_c, 0, 67, 9
1, 58344, Note_on_c, 0, 57, 73
1, 58346, Note_on_c, 0, 67, 77
1, 58349, Note_on_c, 0, 45, 66
1, 58356, Control_c, 0, 67, 0
1, 58430, Control_c, 0, 64, 58
1, 58445, Control_c, 0, 64, 67
1, 58447, Note_off_c, 0, 57, 62
1, 58460, Control_c, 0, 64, 72
1, 58474, Control_c, 0, 64, 77
1, 58489, Note_off_c, 0, 45, 62
1, 58489, Control_c, 0, 64, 81
1, 58504, Control_c, 0, 64, 83
1, 58519, Control_c, 0, 64, 85
1, 58534, Control_c, 0, 64, 86
1, 58543, Note_on_c, 0, 64, 88
1, 58549, Control_c, 0, 64, 87
1, 58568, Note_off_c, 0, 67, 33
1, 58571, Note_off_c, 0, 73, 58
1, 58764, Control_c, 0, 64, 87
1, 58779, Control_c, 0, 64, 86
1, 58794, Control_c, 0, 64, 84
1, 58808, Control_c, 0, 64, 83
1, 58818, Note_on_c, 0, 73, 85
1, 58821, Note_on_c, 0, 67, 84
1, 58823, Control_c, 0, 64, 81
1, 58824, Note_on_c, 0, 46, 90
1, 58830, Note_on_c, 0, 34, 79
1, 58831, Note_on_c, 0, 72, 95
1, 58834, Note_off_c, 0, 73, 63
1, 58839, Control_c, 0, 64, 78
1, 58854, Control_c, 0, 64, 74
1, 58856, Note_off_c, 0, 64, 62
1, 58866, Note_on_c, 0, 71, 38
1, 58869, Control_c, 0, 64, 70
1, 58883, Control_c, 0, 64, 65
1, 58892, Note_off_c, 0, 71, 50
1, 58898, Control_c, 0, 64, 54
1, 58913, Control_c, 0, 64, 0
1, 58984, Note_off_c, 0, 72, 52
1, 59083, Note_off_c, 0, 67, 60
1, 59092, Note_on_c, 0, 64, 84
1, 59267, Note_off_c, 0, 64, 54
1, 59281, Note_on_c, 0, 74, 88
1, 59287, Note_on_c, 0, 65, 87
1, 59449, Note_off_c, 0, 74, 41
1, 59453, Control_c, 0, 64, 45
1, 59455, Note_off_c, 0, 65, 63
1, 59468, Control_c, 0, 64, 66
1, 59483, Control_c, 0, 64, 70
1, 59485, Note_on_c, 0, 62, 92
1, 59497, Control_c, 0, 64, 74
1, 59512, Control_c, 0, 64, 77
1, 59527, Control_c, 0, 64, 80
1, 59528, Note_off_c, 0, 62, 61
1, 59542, Control_c, 0, 64, 81
1, 59557, Control_c, 0, 64, 82
1, 59647, Control_c, 0, 64, 81
1, 59676, Control_c, 0, 64, 80
1, 59683, Note_on_c, 0, 77, 89
1, 59688, Note_on_c, 0, 70, 80
1, 59688, Note_on_c, 0, 74, 86
1, 59691, Control_c, 0, 64, 78
1, 59706, Control_c, 0, 64, 75
1, 59721, Control_c, 0, 64, 68
1, 59735, Control_c, 0, 64, 55
1, 59750, Control_c, 0, 64, 0
1, 59884, Control_c, 0, 64, 54
1, 59889, Note_off_c, 0, 74, 61
1, 59890, Note_on_c, 0, 73, 77
1, 59898, Note_on_c, 0, 69, 75
1, 59899, Control_c, 0, 64, 63
1, 59910, Note_off_c, 0, 70, 61
1, 59913, Control_c, 0, 64, 65
1, 59928, Control_c, 0, 64, 67
1, 59943, Control_c, 0, 64, 69
1, 59958, Control_c, 0, 64, 73
1, 59973, Control_c, 0, 64, 76
1, 59987, Control_c, 0, 64, 79
1, 60002, Control_c, 0, 64, 81
1, 60004, Note_off_c, 0, 69, 60
1, 60017, Control_c, 0, 64, 82
1, 60032, Control_c, 0, 64, 83
1, 60047, Control_c, 0, 64, 84
1, 60056, Note_off_c, 0, 73, 60
1, 60061, Control_c, 0, 64, 84
1, 60084, Note_on_c, 0, 74, 77
1, 60089, Note_on_c, 0, 70, 73
1, 60116, Note_off_c, 0, 34, 62
1, 60159, Note_off_c, 0, 46, 55
1, 60268, Note_off_c, 0, 70, 55
1, 60290, Note_on_c, 0, 72, 80
1, 60290, Control_c, 0, 64, 84
1, 60292, Note_on_c, 0, 68, 77
1, 60292, Note_off_c, 0, 74, 51
1, 60305, Control_c, 0, 64, 83
1, 60320, Control_c, 0, 64, 83
1, 60335, Control_c, 0, 64, 82
1, 60349, Control_c, 0, 64, 82
1, 60379, Note_off_c, 0, 77, 31
1, 60379, Control_c, 0, 64, 81
1, 60394, Control_c, 0, 64, 81
1, 60397, Note_off_c, 0, 68, 62
1, 60409, Control_c, 0, 64, 80
1, 60424, Control_c, 0, 64, 80
1, 60439, Control_c, 0, 64, 79
1, 60454, Control_c, 0, 64, 78
1, 60469, Control_c, 0, 64, 78
1, 60484, Control_c, 0, 64, 76
1, 60499, Control_c, 0, 64, 75
1, 60513, Control_c, 0, 64, 73
1, 60528, Control_c, 0, 64, 70
1, 60536, Note_off_c, 0, 72, 63
1, 60537, Note_on_c, 0, 70, 80
1, 60543, Control_c, 0, 64, 67
1, 60543, Note_on_c, 0, 58, 56
1, 60548, Note_on_c, 0, 67, 67
1, 60551, Note_on_c, 0, 46, 53
1, 60558, Control_c, 0, 64, 59
1, 60573, Control_c, 0, 64, 0
1, 60706, Control_c, 0, 64, 37
1, 60721, Control_c, 0, 64, 61
1, 60735, Control_c, 0, 64, 64
1, 60750, Control_c, 0, 64, 66
1, 60765, Control_c, 0, 64, 67
1, 60771, Note_on_c, 0, 66, 75
1, 60773, Note_off_c, 0, 67, 60
1, 60780, Control_c, 0, 64, 68
1, 60795, Control_c, 0, 64, 70
1, 60809, Control_c, 0, 64, 72
1, 60824, Control_c, 0, 64, 72
1, 60935, Control_c, 0, 64, 72
1, 60950, Control_c, 0, 64, 71
1, 60965, Note_on_c, 0, 75, 79
1, 60965, Control_c, 0, 64, 70
1, 60977, Note_off_c, 0, 66, 62
1, 60978, Note_on_c, 0, 67, 67
1, 61157, Control_c, 0, 64, 70
1, 61165, Note_on_c, 0, 66, 73
1, 61174, Note_off_c, 0, 67, 58
1, 61220, Note_off_c, 0, 75, 54
1, 61291, Control_c, 0, 64, 70
1, 61306, Control_c, 0, 64, 69
1, 61321, Control_c, 0, 64, 68
1, 61336, Control_c, 0, 64, 66
1, 61351, Control_c, 0, 64, 64
1, 61358, Note_off_c, 0, 70, 5
1, 61363, Note_on_c, 0, 74, 73
1, 61366, Control_c, 0, 64, 61
1, 61374, Note_off_c, 0, 66, 62
1, 61375, Note_on_c, 0, 65, 68
1, 61381, Control_c, 0, 64, 52
1, 61396, Control_c, 0, 64, 0
1, 61453, Note_off_c, 0, 65, 64
1, 61572, Note_on_c, 0, 64, 72
1, 61573, Control_c, 0, 64, 30
1, 61588, Control_c, 0, 64, 63
1, 61610, Control_c, 0, 64, 66
1, 61625, Control_c, 0, 64, 67
1, 61683, Control_c, 0, 64, 66
1, 61713, Control_c, 0, 64, 65
1, 61714, Note_off_c, 0, 74, 61
1, 61714, Note_off_c, 0, 64, 60
1, 61728, Control_c, 0, 64, 64
1, 61743, Control_c, 0, 64, 62
1, 61757, Control_c, 0, 64, 56
1, 61772, Control_c, 0, 64, 32
1, 61775, Note_on_c, 0, 73, 78
1, 61787, Control_c, 0, 64, 0
1, 61788, Note_on_c, 0, 65, 61
1, 61800, Note_on_c, 0, 69, 53
1, 61906, Control_c, 0, 64, 46
1, 61920, Control_c, 0, 64, 61
1, 61935, Control_c, 0, 64, 64
1, 61950, Control_c, 0, 64, 66
1, 61965, Control_c, 0, 64, 67
1, 61966, Note_off_c, 0, 69, 57
1, 61968, Note_off_c, 0, 65, 63
1, 61976, Note_on_c, 0, 63, 70
1, 61980, Control_c, 0, 64, 68
1, 61986, Note_off_c, 0, 73, 61
1, 61995, Control_c, 0, 64, 68
1, 62009, Control_c, 0, 64, 69
1, 62099, Control_c, 0, 64, 68
1, 62114, Control_c, 0, 64, 68
1, 62129, Control_c, 0, 64, 67
1, 62142, Note_off_c, 0, 63, 55
1, 62144, Control_c, 0, 64, 66
1, 62159, Control_c, 0, 64, 65
1, 62174, Control_c, 0, 64, 63
1, 62183, Note_on_c, 0, 73, 80
1, 62188, Control_c, 0, 64, 59
1, 62194, Note_on_c, 0, 65, 63
1, 62203, Control_c, 0, 64, 47
1, 62216, Note_on_c, 0, 69, 50
1, 62218, Control_c, 0, 64, 0
1, 62320, Note_off_c, 0, 69, 58
1, 62395, Note_off_c, 0, 65, 65
1, 62403, Note_on_c, 0, 63, 71
1, 62403, Control_c, 0, 64, 25
1, 62418, Control_c, 0, 64, 55
1, 62433, Control_c, 0, 64, 61
1, 62448, Control_c, 0, 64, 62
1, 62501, Note_off_c, 0, 46, 60
1, 62505, Note_off_c, 0, 63, 60
1, 62537, Control_c, 0, 64, 61
1, 62552, Control_c, 0, 64, 60
1, 62567, Control_c, 0, 64, 56
1, 62579, Note_off_c, 0, 73, 36
1, 62581, Control_c, 0, 64, 46
1, 62591, Note_on_c, 0, 74, 63
1, 62593, Note_on_c, 0, 62, 63
1, 62596, Control_c, 0, 64, 16
1, 62600, Note_on_c, 0, 70, 53
1, 62611, Control_c, 0, 64, 0
1, 62694, Note_off_c, 0, 62, 54
1, 62779, Note_off_c, 0, 58, 57
1, 62792, Note_on_c, 0, 66, 68
1, 62798, Note_off_c, 0, 70, 57
1, 62803, Note_on_c, 0, 57, 46
1, 62815, Note_on_c, 0, 60, 47
1, 62944, Note_off_c, 0, 60, 52
1, 62991, Note_off_c, 0, 57, 57
1, 62992, Note_off_c, 0, 66, 64
1, 63004, Note_on_c, 0, 67, 69
1, 63013, Note_on_c, 0, 58, 48
1, 63020, Note_on_c, 0, 55, 44
1, 63025, Note_off_c, 0, 74, 33
1, 63177, Note_off_c, 0, 58, 59
1, 63206, Note_on_c, 0, 57, 49
1, 63393, Note_off_c, 0, 57, 37
1, 63396, Note_off_c, 0, 55, 57
1, 63409, Note_on_c, 0, 58, 44
1, 63411, Note_on_c, 0, 74, 69
1, 63417, Note_off_c, 0, 67, 41
1, 63432, Note_on_c, 0, 53, 45
1, 63578, Note_off_c, 0, 58, 61
1, 63628, Note_on_c, 0, 69, 55
1, 63629, Note_on_c, 0, 57, 32
1, 63748, Note_off_c, 0, 53, 66
1, 63822, Note_off_c, 0, 57, 39
1, 63825, Note_on_c, 0, 52, 34
1, 63829, Note_on_c, 0, 73, 66
1, 63834, Note_off_c, 0, 74, 57
1, 63853, Note_on_c, 0, 55, 36
1, 63858, Note_on_c, 0, 70, 52
1, 63863, Note_off_c, 0, 69, 43
1, 63998, Note_off_c, 0, 55, 54
1, 64033, Note_on_c, 0, 53, 44
1, 64093, Control_c, 0, 67, 11
1, 64108, Control_c, 0, 67, 18
1, 64123, Control_c, 0, 67, 24
1, 64138, Control_c, 0, 67, 31
1, 64153, Control_c, 0, 67, 37
1, 64168, Control_c, 0, 67, 42
1, 64183, Control_c, 0, 67, 46
1, 64198, Control_c, 0, 67, 48
1, 64201, Note_off_c, 0, 53, 61
1, 64210, Note_off_c, 0, 52, 43
1, 64213, Control_c, 0, 67, 50
1, 64227, Control_c, 0, 67, 52
1, 64234, Note_on_c, 0, 74, 63
1, 64236, Note_on_c, 0, 55, 42
1, 64242, Control_c, 0, 67, 53
1, 64246, Note_off_c, 0, 73, 47
1, 64250, Note_on_c, 0, 50, 39
1, 64259, Note_off_c, 0, 70, 55
1, 64321, Note_off_c, 0, 50, 55
1, 64331, Control_c, 0, 67, 52
1, 64360, Control_c, 0, 67, 52
1, 64390, Control_c, 0, 67, 51
1, 64408, Note_off_c, 0, 55, 44
1, 64428, Note_on_c, 0, 53, 50
1, 64438, Note_on_c, 0, 69, 50
1, 64509, Control_c, 0, 67, 52
1, 64524, Note_off_c, 0, 53, 57
1, 64585, Note_off_c, 0, 69, 42
1, 64621, Control_c, 0, 67, 51
1, 64635, Control_c, 0, 67, 51
1, 64651, Note_on_c, 0, 76, 64
1, 64661, Note_on_c, 0, 52, 45
1, 64662, Note_on_c, 0, 70, 54
1, 64665, Control_c, 0, 67, 50
1, 64678, Note_on_c, 0, 43, 39
1, 64694, Note_off_c, 0, 74, 28
1, 64695, Control_c, 0, 67, 50
1, 64704, Note_off_c, 0, 70, 61
1, 64705, Note_off_c, 0, 76, 65
1, 64705, Note_off_c, 0, 52, 65
1, 64709, Control_c, 0, 67, 49
1, 64713, Note_off_c, 0, 43, 59
1, 64724, Control_c, 0, 67, 49
1, 64754, Control_c, 0, 67, 49
1, 64783, Control_c, 0, 67, 50
1, 64798, Control_c, 0, 67, 50
1, 64813, Control_c, 0, 67, 51
1, 64842, Control_c, 0, 67, 51
1, 64901, Control_c, 0, 67, 51
1, 64931, Control_c, 0, 67, 50
1, 65021, Control_c, 0, 67, 50
1, 65035, Control_c, 0, 67, 49
1, 65050, Control_c, 0, 67, 49
1, 65071, Note_on_c, 0, 73, 57
1, 65074, Note_on_c, 0, 57, 48
1, 65077, Note_on_c, 0, 67, 49
1, 65080, Note_on_c, 0, 64, 51
1, 65080, Control_c, 0, 67, 48
1, 65096, Note_on_c, 0, 45, 36
1, 65098, Note_on_c, 0, 69, 37
1, 65109, Control_c, 0, 67, 48
1, 65116, Note_off_c, 0, 57, 63
1, 65121, Note_off_c, 0, 64, 63
1, 65124, Note_off_c, 0, 67, 61
1, 65124, Control_c, 0, 67, 47
1, 65125, Note_off_c, 0, 69, 59
1, 65128, Note_off_c, 0, 45, 58
1, 65146, Note_off_c, 0, 73, 63
1, 65154, Control_c, 0, 67, 47
1, 65183, Control_c, 0, 67, 47
1, 65198, Control_c, 0, 67, 48
1, 65213, Control_c, 0, 67, 48
1, 65243, Control_c, 0, 67, 49
1, 65317, Control_c, 0, 67, 48
1, 65354, Control_c, 0, 67, 48
1, 65429, Control_c, 0, 67, 48
1, 65489, Control_c, 0, 67, 49
1, 65503, Note_on_c, 0, 74, 45
1, 65504, Note_on_c, 0, 69, 43
1, 65506, Note_on_c, 0, 50, 28
1, 65512, Note_on_c, 0, 65, 38
1, 65518, Control_c, 0, 64, 25
1, 65518, Control_c, 0, 67, 50
1, 65522, Note_on_c, 0, 38, 26
1, 65533, Control_c, 0, 64, 65
1, 65533, Control_c, 0, 67, 50
1, 65539, Note_off_c, 0, 74, 66
1, 65544, Note_off_c, 0, 65, 57
1, 65544, Note_off_c, 0, 69, 65
1, 65548, Control_c, 0, 64, 71
1, 65548, Control_c, 0, 67, 51
1, 65563, Control_c, 0, 64, 74
1, 65563, Control_c, 0, 67, 51
1, 65578, Control_c, 0, 64, 77
1, 65593, Control_c, 0, 64, 79
1, 65593, Control_c, 0, 67, 52
1, 65607, Control_c, 0, 64, 80
1, 65622, Control_c, 0, 64, 81
1, 65637, Control_c, 0, 64, 81
1, 65637, Control_c, 0, 67, 52
1, 65645, Note_off_c, 0, 38, 36
1, 65645, Note_off_c, 0, 50, 42
1, 65711, Control_c, 0, 67, 52
1, 65725, Control_c, 0, 67, 51
1, 65735, Note_on_c, 0, 57, 52
1, 65740, Control_c, 0, 67, 51
1, 65770, Control_c, 0, 67, 50
1, 65785, Control_c, 0, 67, 50
1, 65799, Control_c, 0, 67, 49
1, 65814, Control_c, 0, 67, 49
1, 65829, Control_c, 0, 67, 48
1, 65854, Note_off_c, 0, 57, 50
1, 65873, Control_c, 0, 67, 48
1, 65948, Control_c, 0, 67, 48
1, 65948, Note_on_c, 0, 62, 61
1, 65992, Control_c, 0, 67, 49
1, 66133, Control_c, 0, 67, 48
1, 66147, Control_c, 0, 67, 48
1, 66171, Note_on_c, 0, 64, 73
1, 66177, Control_c, 0, 67, 47
1, 66189, Note_off_c, 0, 62, 57
1, 66200, Note_off_c, 0, 64, 64
1, 66207, Control_c, 0, 67, 46
1, 66237, Control_c, 0, 64, 81
1, 66252, Control_c, 0, 64, 80
1, 66267, Control_c, 0, 64, 80
1, 66267, Control_c, 0, 67, 46
1, 66281, Control_c, 0, 64, 79
1, 66296, Control_c, 0, 64, 79
1, 66311, Control_c, 0, 64, 78
1, 66326, Control_c, 0, 64, 77
1, 66326, Control_c, 0, 67, 45
1, 66341, Control_c, 0, 64, 76
1, 66355, Control_c, 0, 64, 75
1, 66355, Control_c, 0, 67, 45
1, 66370, Control_c, 0, 64, 74
1, 66385, Control_c, 0, 64, 73
1, 66400, Control_c, 0, 64, 72
1, 66415, Control_c, 0, 64, 70
1, 66416, Note_on_c, 0, 69, 71
1, 66429, Control_c, 0, 64, 68
1, 66435, Note_on_c, 0, 65, 53
1, 66444, Control_c, 0, 64, 65
1, 66448, Note_on_c, 0, 62, 42
1, 66459, Control_c, 0, 64, 60
1, 66473, Control_c, 0, 64, 49
1, 66488, Control_c, 0, 64, 25
1, 66503, Control_c, 0, 64, 0
1, 66520, Note_off_c, 0, 65, 55
1, 66555, Note_off_c, 0, 62, 60
1, 66561, Note_on_c, 0, 67, 67
1, 66562, Control_c, 0, 67, 44
1, 66585, Note_on_c, 0, 64, 41
1, 66653, Note_off_c, 0, 64, 57
1, 66661, Note_off_c, 0, 67, 52
1, 66666, Note_on_c, 0, 65, 65
1, 66690, Note_on_c, 0, 62, 47
1, 66726, Control_c, 0, 67, 45
1, 66743, Note_off_c, 0, 62, 58
1, 66745, Note_off_c, 0, 65, 59
1, 66773, Note_on_c, 0, 64, 62
1, 66780, Note_on_c, 0, 60, 41
1, 66799, Control_c, 0, 67, 44
1, 66836, Note_off_c, 0, 60, 61
1, 66852, Control_c, 0, 67, 44
1, 66865, Note_off_c, 0, 64, 62
1, 66874, Note_on_c, 0, 65, 64
1, 66885, Note_on_c, 0, 62, 46
1, 66911, Control_c, 0, 67, 43
1, 66931, Note_off_c, 0, 65, 56
1, 66941, Control_c, 0, 67, 43
1, 66947, Note_off_c, 0, 62, 54
1, 66976, Note_on_c, 0, 64, 54
1, 66982, Note_on_c, 0, 60, 48
1, 67030, Note_off_c, 0, 64, 55
1, 67039, Note_off_c, 0, 60, 55
1, 67059, Note_off_c, 0, 69, 0
1, 67059, Note_on_c, 0, 69, 7
1, 67083, Note_on_c, 0, 62, 58
1, 67084, Note_on_c, 0, 59, 39
1, 67110, Note_on_c, 0, 52, 37
1, 67149, Control_c, 0, 67, 43
1, 67170, Note_off_c, 0, 62, 52
1, 67172, Note_on_c, 0, 68, 65
1, 67178, Control_c, 0, 67, 44
1, 67204, Note_off_c, 0, 69, 41
1, 67208, Control_c, 0, 67, 44
1, 67237, Control_c, 0, 64, 54
1, 67237, Control_c, 0, 67, 45
1, 67252, Control_c, 0, 64, 65
1, 67267, Control_c, 0, 64, 69
1, 67267, Control_c, 0, 67, 45
1, 67273, Note_on_c, 0, 66, 78
1, 67280, Note_off_c, 0, 68, 59
1, 67282, Control_c, 0, 64, 73
1, 67282, Control_c, 0, 67, 46
1, 67296, Control_c, 0, 64, 78
1, 67296, Control_c, 0, 67, 46
1, 67311, Control_c, 0, 64, 82
1, 67326, Control_c, 0, 64, 84
1, 67326, Control_c, 0, 67, 47
1, 67341, Control_c, 0, 64, 86
1, 67352, Note_off_c, 0, 52, 43
1, 67356, Control_c, 0, 64, 87
1, 67361, Note_off_c, 0, 66, 65
1, 67370, Note_on_c, 0, 64, 83
1, 67370, Control_c, 0, 64, 88
1, 67385, Control_c, 0, 67, 47
1, 67413, Note_off_c, 0, 59, 41
1, 67470, Note_on_c, 0, 68, 84
1, 67474, Control_c, 0, 67, 47
1, 67507, Note_off_c, 0, 64, 61
1, 67519, Control_c, 0, 64, 88
1, 67519, Control_c, 0, 67, 46
1, 67533, Control_c, 0, 67, 46
1, 67548, Control_c, 0, 64, 87
1, 67563, Note_on_c, 0, 71, 86
1, 67563, Control_c, 0, 64, 87
1, 67563, Control_c, 0, 67, 45
1, 67578, Control_c, 0, 64, 86
1, 67599, Note_off_c, 0, 68, 60
1, 67600, Control_c, 0, 64, 86
1, 67600, Control_c, 0, 67, 44
1, 67615, Control_c, 0, 64, 85
1, 67631, Control_c, 0, 64, 84
1, 67646, Control_c, 0, 64, 83
1, 67646, Control_c, 0, 67, 44
1, 67660, Control_c, 0, 64, 82
1, 67675, Control_c, 0, 64, 81
1, 67690, Control_c, 0, 64, 80
1, 67690, Control_c, 0, 67, 43
1, 67697, Note_on_c, 0, 74, 85
1, 67705, Control_c, 0, 64, 78
1, 67709, Note_on_c, 0, 67, 64
1, 67711, Note_off_c, 0, 71, 53
1, 67712, Note_on_c, 0, 70, 70
1, 67720, Control_c, 0, 64, 76
1, 67720, Control_c, 0, 67, 43
1, 67734, Control_c, 0, 64, 73
1, 67749, Control_c, 0, 64, 69
1, 67764, Control_c, 0, 64, 64
1, 67764, Control_c, 0, 67, 42
1, 67779, Control_c, 0, 64, 47
1, 67779, Control_c, 0, 67, 42
1, 67794, Control_c, 0, 64, 0
1, 67808, Control_c, 0, 67, 41
1, 67809, Note_off_c, 0, 67, 61
1, 67819, Note_off_c, 0, 70, 36
1, 67823, Control_c, 0, 67, 39
1, 67826, Note_on_c, 0, 72, 71
1, 67838, Note_on_c, 0, 69, 62
1, 67838, Control_c, 0, 67, 38
1, 67852, Control_c, 0, 67, 37
1, 67867, Control_c, 0, 67, 36
1, 67882, Control_c, 0, 67, 35
1, 67912, Control_c, 0, 67, 34
1, 67923, Note_off_c, 0, 69, 64
1, 67925, Note_on_c, 0, 70, 73
1, 67927, Control_c, 0, 67, 33
1, 67932, Note_on_c, 0, 67, 65
1, 67935, Note_off_c, 0, 72, 60
1, 67942, Control_c, 0, 67, 31
1, 67957, Control_c, 0, 67, 29
1, 67972, Control_c, 0, 64, 48
1, 67972, Control_c, 0, 67, 26
1, 67987, Control_c, 0, 64, 61
1, 67987, Control_c, 0, 67, 22
1, 68001, Control_c, 0, 64, 63
1, 68001, Control_c, 0, 67, 19
1, 68012, Note_off_c, 0, 67, 61
1, 68016, Control_c, 0, 64, 63
1, 68016, Control_c, 0, 67, 17
1, 68022, Note_on_c, 0, 65, 63
1, 68025, Note_off_c, 0, 70, 60
1, 68027, Note_on_c, 0, 69, 80
1, 68031, Control_c, 0, 64, 62
1, 68031, Control_c, 0, 67, 15
1, 68045, Control_c, 0, 64, 61
1, 68045, Control_c, 0, 67, 13
1, 68060, Control_c, 0, 64, 60
1, 68060, Control_c, 0, 67, 11
1, 68075, Control_c, 0, 64, 58
1, 68075, Control_c, 0, 67, 8
1, 68090, Control_c, 0, 64, 57
1, 68090, Control_c, 0, 67, 0
1, 68094, Note_off_c, 0, 65, 63
1, 68105, Control_c, 0, 64, 56
1, 68119, Control_c, 0, 64, 54
1, 68120, Note_off_c, 0, 69, 61
1, 68123, Note_on_c, 0, 70, 81
1, 68126, Note_on_c, 0, 67, 66
1, 68134, Control_c, 0, 64, 51
1, 68149, Control_c, 0, 64, 48
1, 68164, Control_c, 0, 64, 46
1, 68179, Control_c, 0, 64, 45
1, 68193, Control_c, 0, 64, 43
1, 68195, Note_off_c, 0, 67, 52
1, 68208, Control_c, 0, 64, 38
1, 68217, Note_on_c, 0, 65, 60
1, 68221, Note_on_c, 0, 69, 81
1, 68223, Control_c, 0, 64, 0
1, 68233, Note_off_c, 0, 70, 58
1, 68290, Note_off_c, 0, 65, 61
1, 68293, Note_off_c, 0, 69, 64
1, 68321, Note_on_c, 0, 64, 57
1, 68322, Note_on_c, 0, 67, 73
1, 68326, Note_on_c, 0, 57, 56
1, 68428, Note_on_c, 0, 73, 76
1, 68435, Note_off_c, 0, 67, 60
1, 68467, Note_off_c, 0, 74, 57
1, 68484, Control_c, 0, 64, 52
1, 68499, Control_c, 0, 64, 62
1, 68514, Control_c, 0, 64, 65
1, 68523, Note_on_c, 0, 71, 80
1, 68529, Control_c, 0, 64, 67
1, 68544, Control_c, 0, 64, 70
1, 68558, Control_c, 0, 64, 73
1, 68573, Control_c, 0, 64, 76
1, 68574, Note_off_c, 0, 73, 56
1, 68588, Control_c, 0, 64, 79
1, 68592, Note_off_c, 0, 71, 61
1, 68603, Control_c, 0, 64, 81
1, 68616, Note_on_c, 0, 69, 86
1, 68618, Control_c, 0, 64, 83
1, 68632, Control_c, 0, 64, 85
1, 68647, Control_c, 0, 64, 87
1, 68662, Control_c, 0, 64, 88
1, 68676, Control_c, 0, 64, 89
1, 68711, Note_on_c, 0, 73, 81
1, 68735, Note_off_c, 0, 69, 52
1, 68737, Note_off_c, 0, 57, 59
1, 68749, Note_on_c, 0, 74, 55
1, 68794, Note_off_c, 0, 64, 56
1, 68809, Note_on_c, 0, 76, 85
1, 68818, Note_off_c, 0, 73, 63
1, 68820, Note_off_c, 0, 74, 60
1, 68869, Control_c, 0, 67, 8
1, 68884, Control_c, 0, 67, 8
1, 68908, Note_on_c, 0, 81, 99
1, 68914, Note_off_c, 0, 76, 62
1, 68914, Control_c, 0, 67, 9
1, 68929, Control_c, 0, 67, 9
1, 68943, Control_c, 0, 64, 89
1, 68958, Control_c, 0, 67, 10
1, 68973, Control_c, 0, 64, 88
1, 68988, Control_c, 0, 67, 10
1, 69002, Control_c, 0, 64, 88
1, 69005, Note_on_c, 0, 69, 75
1, 69017, Control_c, 0, 67, 11
1, 69032, Control_c, 0, 67, 12
1, 69047, Control_c, 0, 64, 87
1, 69047, Control_c, 0, 67, 14
1, 69061, Control_c, 0, 64, 87
1, 69061, Control_c, 0, 67, 15
1, 69076, Control_c, 0, 64, 86
1, 69076, Control_c, 0, 67, 16
1, 69098, Control_c, 0, 64, 86
1, 69098, Control_c, 0, 67, 17
1, 69113, Control_c, 0, 64, 85
1, 69113, Control_c, 0, 67, 19
1, 69125, Note_on_c, 0, 68, 80
1, 69127, Note_off_c, 0, 69, 64
1, 69128, Control_c, 0, 64, 85
1, 69128, Control_c, 0, 67, 21
1, 69143, Control_c, 0, 64, 84
1, 69143, Control_c, 0, 67, 22
1, 69158, Control_c, 0, 64, 82
1, 69158, Control_c, 0, 67, 23
1, 69173, Control_c, 0, 64, 78
1, 69173, Control_c, 0, 67, 24
1, 69188, Control_c, 0, 64, 72
1, 69188, Control_c, 0, 67, 26
1, 69202, Control_c, 0, 64, 67
1, 69202, Control_c, 0, 67, 28
1, 69217, Control_c, 0, 64, 67
1, 69217, Control_c, 0, 67, 30
1, 69225, Note_on_c, 0, 79, 91
1, 69227, Note_off_c, 0, 68, 50
1, 69233, Control_c, 0, 64, 69
1, 69233, Control_c, 0, 67, 31
1, 69234, Note_on_c, 0, 69, 75
1, 69247, Control_c, 0, 64, 72
1, 69247, Control_c, 0, 67, 32
1, 69252, Note_off_c, 0, 81, 57
1, 69262, Control_c, 0, 64, 74
1, 69262, Control_c, 0, 67, 33
1, 69277, Control_c, 0, 64, 76
1, 69292, Control_c, 0, 64, 77
1, 69318, Note_off_c, 0, 69, 0
1, 69322, Control_c, 0, 67, 33
1, 69325, Note_on_c, 0, 71, 73
1, 69334, Note_off_c, 0, 79, 43
1, 69337, Control_c, 0, 67, 34
1, 69355, Poly_aftertouch_c, 0, 69, 127
1, 69367, Control_c, 0, 67, 34
1, 69381, Control_c, 0, 67, 35
1, 69438, Note_on_c, 0, 72, 64
1, 69455, Control_c, 0, 64, 77
1, 69455, Control_c, 0, 67, 34
1, 69456, Note_off_c, 0, 71, 54
1, 69470, Control_c, 0, 64, 76
1, 69470, Control_c, 0, 67, 34
1, 69473, Poly_aftertouch_c, 0, 69, 0
1, 69485, Control_c, 0, 64, 75
1, 69485, Control_c, 0, 67, 33
1, 69499, Control_c, 0, 64, 73
1, 69499, Control_c, 0, 67, 33
1, 69501, Note_off_c, 0, 72, 57
1, 69514, Control_c, 0, 64, 69
1, 69514, Control_c, 0, 67, 32
1, 69529, Control_c, 0, 64, 63
1, 69529, Control_c, 0, 67, 32
1, 69533, Note_on_c, 0, 77, 88
1, 69544, Control_c, 0, 64, 33
1, 69544, Control_c, 0, 67, 31
1, 69555, Note_on_c, 0, 62, 56
1, 69559, Control_c, 0, 64, 0
1, 69564, Note_on_c, 0, 69, 39
1, 69573, Control_c, 0, 67, 31
1, 69588, Control_c, 0, 67, 30
1, 69603, Control_c, 0, 67, 29
1, 69617, Control_c, 0, 64, 42
1, 69617, Control_c, 0, 67, 29
1, 69632, Control_c, 0, 64, 60
1, 69632, Control_c, 0, 67, 28
1, 69647, Control_c, 0, 64, 66
1, 69649, Note_on_c, 0, 76, 73
1, 69662, Control_c, 0, 64, 69
1, 69677, Control_c, 0, 64, 72
1, 69677, Control_c, 0, 67, 28
1, 69687, Note_off_c, 0, 77, 56
1, 69692, Control_c, 0, 64, 73
1, 69692, Control_c, 0, 67, 27
1, 69697, Note_off_c, 0, 69, 54
1, 69707, Control_c, 0, 64, 74
1, 69707, Control_c, 0, 67, 27
1, 69721, Control_c, 0, 67, 26
1, 69736, Control_c, 0, 67, 25
1, 69738, Note_off_c, 0, 76, 48
1, 69739, Note_on_c, 0, 74, 74
1, 69751, Control_c, 0, 67, 25
1, 69766, Control_c, 0, 67, 24
1, 69768, Note_off_c, 0, 74, 63
1, 69781, Control_c, 0, 67, 24
1, 69811, Control_c, 0, 67, 23
1, 69825, Control_c, 0, 64, 73
1, 69825, Control_c, 0, 67, 23
1, 69847, Control_c, 0, 64, 71
1, 69859, Note_on_c, 0, 76, 79
1, 69862, Control_c, 0, 64, 65
1, 69873, Note_on_c, 0, 73, 69
1, 69875, Note_on_c, 0, 67, 57
1, 69876, Control_c, 0, 64, 50
1, 69876, Control_c, 0, 67, 22
1, 69880, Note_off_c, 0, 62, 56
1, 69891, Control_c, 0, 64, 0
1, 69891, Control_c, 0, 67, 22
1, 69895, Note_on_c, 0, 57, 43
1, 69906, Control_c, 0, 67, 21
1, 69921, Control_c, 0, 67, 20
1, 69936, Control_c, 0, 67, 19
1, 69951, Control_c, 0, 64, 38
1, 69951, Control_c, 0, 67, 18
1, 69966, Control_c, 0, 64, 56
1, 69976, Note_off_c, 0, 73, 62
1, 69980, Control_c, 0, 64, 62
1, 69980, Control_c, 0, 67, 18
1, 69981, Note_on_c, 0, 71, 62
1, 69995, Control_c, 0, 64, 65
1, 70010, Control_c, 0, 64, 67
1, 70010, Control_c, 0, 67, 17
1, 70025, Control_c, 0, 64, 70
1, 70040, Control_c, 0, 64, 72
1, 70040, Control_c, 0, 67, 16
1, 70055, Control_c, 0, 64, 73
1, 70055, Control_c, 0, 67, 16
1, 70067, Note_off_c, 0, 71, 39
1, 70070, Control_c, 0, 64, 74
1, 70070, Control_c, 0, 67, 15
1, 70079, Note_on_c, 0, 73, 72
1, 70085, Note_off_c, 0, 76, 61
1, 70159, Control_c, 0, 64, 73
1, 70168, Note_off_c, 0, 73, 59
1, 70174, Control_c, 0, 64, 71
1, 70174, Control_c, 0, 67, 15
1, 70189, Control_c, 0, 64, 66
1, 70196, Note_on_c, 0, 74, 71
1, 70198, Note_off_c, 0, 67, 57
1, 70203, Control_c, 0, 64, 44
1, 70217, Note_off_c, 0, 57, 51
1, 70218, Control_c, 0, 64, 0
1, 70221, Note_on_c, 0, 65, 45
1, 70222, Note_on_c, 0, 58, 42
1, 70233, Control_c, 0, 67, 15
1, 70262, Control_c, 0, 67, 14
1, 70292, Control_c, 0, 64, 55
1, 70292, Control_c, 0, 67, 13
1, 70307, Control_c, 0, 64, 64
1, 70307, Control_c, 0, 67, 12
1, 70309, Note_on_c, 0, 70, 69
1, 70321, Control_c, 0, 64, 67
1, 70321, Control_c, 0, 67, 11
1, 70323, Note_off_c, 0, 74, 56
1, 70336, Control_c, 0, 64, 69
1, 70336, Control_c, 0, 67, 11
1, 70351, Control_c, 0, 64, 70
1, 70351, Control_c, 0, 67, 10
1, 70366, Control_c, 0, 64, 71
1, 70381, Control_c, 0, 64, 71
1, 70381, Control_c, 0, 67, 10
1, 70389, Note_off_c, 0, 70, 58
1, 70395, Control_c, 0, 64, 72
1, 70406, Note_on_c, 0, 69, 69
1, 70410, Control_c, 0, 64, 72
1, 70455, Control_c, 0, 64, 72
1, 70470, Control_c, 0, 64, 71
1, 70470, Control_c, 0, 67, 10
1, 70482, Note_off_c, 0, 65, 34
1, 70485, Control_c, 0, 64, 68
1, 70486, Note_off_c, 0, 69, 56
1, 70499, Control_c, 0, 64, 62
1, 70499, Control_c, 0, 67, 11
1, 70514, Control_c, 0, 64, 0
1, 70519, Note_on_c, 0, 70, 59
1, 70519, Note_on_c, 0, 76, 63
1, 70520, Note_off_c, 0, 58, 37
1, 70529, Control_c, 0, 67, 11
1, 70541, Note_on_c, 0, 64, 45
1, 70543, Note_on_c, 0, 55, 44
1, 70559, Control_c, 0, 64, 27
1, 70559, Control_c, 0, 67, 12
1, 70573, Control_c, 0, 64, 51
1, 70594, Note_off_c, 0, 70, 61
1, 70595, Control_c, 0, 64, 59
1, 70595, Control_c, 0, 67, 13
1, 70600, Note_off_c, 0, 76, 64
1, 70610, Control_c, 0, 64, 64
1, 70625, Control_c, 0, 64, 66
1, 70625, Control_c, 0, 67, 13
1, 70627, Note_on_c, 0, 67, 65
1, 70640, Control_c, 0, 64, 66
1, 70654, Control_c, 0, 67, 14
1, 70669, Control_c, 0, 67, 15
1, 70676, Note_off_c, 0, 67, 57
1, 70684, Control_c, 0, 67, 15
1, 70699, Control_c, 0, 67, 16
1, 70714, Control_c, 0, 67, 16
1, 70720, Note_off_c, 0, 64, 39
1, 70729, Control_c, 0, 67, 17
1, 70730, Note_on_c, 0, 65, 68
1, 70738, Note_on_c, 0, 62, 59
1, 70744, Control_c, 0, 67, 18
1, 70759, Control_c, 0, 64, 66
1, 70759, Control_c, 0, 67, 19
1, 70761, Note_off_c, 0, 62, 61
1, 70771, Note_off_c, 0, 55, 38
1, 70773, Control_c, 0, 64, 65
1, 70773, Control_c, 0, 67, 21
1, 70788, Control_c, 0, 64, 62
1, 70788, Control_c, 0, 67, 24
1, 70790, Note_off_c, 0, 65, 55
1, 70803, Control_c, 0, 64, 58
1, 70803, Control_c, 0, 67, 28
1, 70818, Control_c, 0, 64, 50
1, 70818, Control_c, 0, 67, 31
1, 70833, Control_c, 0, 64, 35
1, 70833, Control_c, 0, 67, 32
1, 70848, Control_c, 0, 64, 0
1, 70848, Control_c, 0, 67, 33
1, 70853, Note_on_c, 0, 69, 62
1, 70855, Note_on_c, 0, 64, 53
1, 70863, Control_c, 0, 67, 36
1, 70876, Note_on_c, 0, 57, 35
1, 70878, Control_c, 0, 67, 40
1, 70879, Note_on_c, 0, 61, 47
1, 70893, Control_c, 0, 67, 45
1, 70908, Control_c, 0, 67, 48
1, 70923, Control_c, 0, 67, 48
1, 70929, Note_off_c, 0, 64, 55
1, 70937, Control_c, 0, 67, 49
1, 70952, Control_c, 0, 67, 49
1, 70967, Control_c, 0, 67, 50
1, 70970, Note_on_c, 0, 67, 58
1, 70982, Control_c, 0, 67, 51
1, 70997, Control_c, 0, 67, 52
1, 71011, Control_c, 0, 67, 52
1, 71026, Control_c, 0, 67, 53
1, 71032, Note_off_c, 0, 67, 48
1, 71041, Control_c, 0, 67, 53
1, 71054, Note_off_c, 0, 69, 37
1, 71056, Control_c, 0, 67, 55
1, 71070, Control_c, 0, 67, 55
1, 71084, Note_on_c, 0, 65, 57
1, 71085, Control_c, 0, 67, 56
1, 71130, Control_c, 0, 64, 52
1, 71130, Control_c, 0, 67, 56
1, 71144, Control_c, 0, 64, 66
1, 71144, Control_c, 0, 67, 57
1, 71159, Control_c, 0, 64, 71
1, 71159, Control_c, 0, 67, 59
1, 71166, Note_off_c, 0, 65, 52
1, 71174, Control_c, 0, 64, 75
1, 71174, Control_c, 0, 67, 61
1, 71188, Control_c, 0, 64, 76
1, 71188, Control_c, 0, 67, 62
1, 71194, Note_on_c, 0, 64, 60
1, 71203, Control_c, 0, 64, 77
1, 71203, Control_c, 0, 67, 63
1, 71218, Control_c, 0, 67, 63
1, 71248, Control_c, 0, 67, 64
1, 71263, Control_c, 0, 67, 65
1, 71277, Control_c, 0, 67, 66
1, 71289, Note_off_c, 0, 64, 61
1, 71292, Control_c, 0, 67, 66
1, 71293, Note_off_c, 0, 61, 27
1, 71299, Note_on_c, 0, 59, 51
1, 71299, Note_on_c, 0, 62, 72
1, 71301, Note_off_c, 0, 57, 38
1, 71322, Control_c, 0, 67, 67
1, 71344, Control_c, 0, 64, 77
1, 71359, Control_c, 0, 64, 76
1, 71374, Control_c, 0, 64, 76
1, 71389, Control_c, 0, 64, 75
1, 71403, Control_c, 0, 64, 74
1, 71412, Note_on_c, 0, 64, 75
1, 71418, Note_on_c, 0, 61, 59
1, 71418, Control_c, 0, 64, 73
1, 71427, Note_off_c, 0, 59, 56
1, 71430, Note_off_c, 0, 62, 47
1, 71433, Control_c, 0, 64, 72
1, 71448, Control_c, 0, 64, 70
1, 71463, Control_c, 0, 64, 69
1, 71463, Control_c, 0, 67, 66
1, 71477, Control_c, 0, 64, 67
1, 71492, Control_c, 0, 64, 66
1, 71492, Control_c, 0, 67, 66
1, 71507, Control_c, 0, 64, 66
1, 71522, Control_c, 0, 64, 65
1, 71522, Control_c, 0, 67, 65
1, 71533, Note_off_c, 0, 61, 59
1, 71534, Note_on_c, 0, 69, 82
1, 71537, Control_c, 0, 64, 64
1, 71537, Control_c, 0, 67, 65
1, 71552, Control_c, 0, 64, 62
1, 71554, Note_on_c, 0, 65, 60
1, 71558, Note_on_c, 0, 62, 56
1, 71567, Control_c, 0, 64, 58
1, 71577, Note_off_c, 0, 64, 60
1, 71582, Control_c, 0, 64, 47
1, 71596, Control_c, 0, 64, 20
1, 71611, Control_c, 0, 64, 0
1, 71611, Control_c, 0, 67, 64
1, 71653, Note_off_c, 0, 62, 60
1, 71656, Control_c, 0, 67, 64
1, 71664, Note_off_c, 0, 65, 60
1, 71671, Note_on_c, 0, 67, 66
1, 71685, Note_on_c, 0, 64, 41
1, 71701, Control_c, 0, 67, 63
1, 71731, Control_c, 0, 67, 63
1, 71745, Control_c, 0, 67, 62
1, 71760, Note_off_c, 0, 64, 63
1, 71765, Note_off_c, 0, 67, 59
1, 71778, Note_on_c, 0, 65, 62
1, 71787, Note_on_c, 0, 62, 51
1, 71790, Control_c, 0, 67, 62
1, 71805, Control_c, 0, 67, 61
1, 71828, Note_off_c, 0, 62, 53
1, 71834, Control_c, 0, 67, 61
1, 71843, Note_off_c, 0, 65, 53
1, 71849, Control_c, 0, 67, 60
1, 71874, Note_on_c, 0, 64, 62
1, 71887, Note_on_c, 0, 60, 48
1, 71936, Note_off_c, 0, 60, 59
1, 71953, Control_c, 0, 67, 61
1, 71954, Note_off_c, 0, 64, 49
1, 71967, Control_c, 0, 67, 61
1, 71973, Note_on_c, 0, 65, 56
1, 71991, Note_on_c, 0, 62, 43
1, 71997, Control_c, 0, 67, 62
1, 72019, Note_off_c, 0, 65, 58
1, 72026, Control_c, 0, 67, 62
1, 72039, Note_off_c, 0, 62, 46
1, 72041, Control_c, 0, 67, 63
1, 72056, Control_c, 0, 67, 63
1, 72063, Note_on_c, 0, 60, 48
1, 72071, Control_c, 0, 67, 64
1, 72072, Note_on_c, 0, 64, 59
1, 72109, Control_c, 0, 67, 65
1, 72126, Note_off_c, 0, 64, 58
1, 72127, Note_off_c, 0, 60, 54
1, 72139, Control_c, 0, 67, 65
1, 72154, Control_c, 0, 67, 66
1, 72165, Note_off_c, 0, 69, 0
1, 72168, Control_c, 0, 67, 67
1, 72194, Note_on_c, 0, 69, 7
1, 72198, Control_c, 0, 67, 67
1, 72199, Note_on_c, 0, 62, 52
1, 72206, Note_on_c, 0, 52, 41
1, 72210, Note_on_c, 0, 59, 29
1, 72213, Control_c, 0, 67, 68
1, 72242, Control_c, 0, 67, 68
1, 72272, Control_c, 0, 67, 70
1, 72287, Control_c, 0, 67, 71
1, 72301, Note_on_c, 0, 68, 61
1, 72309, Note_off_c, 0, 62, 39
1, 72309, Note_off_c, 0, 69, 43
1, 72316, Control_c, 0, 67, 72
1, 72331, Control_c, 0, 67, 72
1, 72361, Control_c, 0, 64, 43
1, 72361, Control_c, 0, 67, 73
1, 72375, Control_c, 0, 64, 58
1, 72375, Control_c, 0, 67, 74
1, 72389, Note_off_c, 0, 68, 60
1, 72390, Control_c, 0, 64, 63
1, 72390, Control_c, 0, 67, 75
1, 72405, Control_c, 0, 64, 66
1, 72405, Control_c, 0, 67, 77
1, 72407, Note_on_c, 0, 66, 69
1, 72421, Control_c, 0, 64, 68
1, 72421, Control_c, 0, 67, 77
1, 72436, Control_c, 0, 64, 72
1, 72436, Control_c, 0, 67, 78
1, 72450, Control_c, 0, 64, 77
1, 72450, Control_c, 0, 67, 79
1, 72465, Control_c, 0, 64, 81
1, 72465, Control_c, 0, 67, 80
1, 72480, Control_c, 0, 64, 84
1, 72480, Control_c, 0, 67, 81
1, 72495, Control_c, 0, 64, 86
1, 72495, Control_c, 0, 67, 82
1, 72507, Note_on_c, 0, 68, 79
1, 72510, Control_c, 0, 64, 87
1, 72510, Control_c, 0, 67, 84
1, 72524, Control_c, 0, 64, 87
1, 72524, Control_c, 0, 67, 84
1, 72532, Note_off_c, 0, 66, 59
1, 72539, Control_c, 0, 64, 88
1, 72554, Control_c, 0, 67, 85
1, 72562, Note_off_c, 0, 52, 59
1, 72624, Note_on_c, 0, 76, 78
1, 72628, Note_off_c, 0, 68, 62
1, 72673, Control_c, 0, 64, 87
1, 72681, Note_off_c, 0, 76, 66
1, 72689, Note_off_c, 0, 59, 36
1, 72702, Control_c, 0, 64, 87
1, 72717, Control_c, 0, 64, 86
1, 72724, Note_on_c, 0, 64, 67
1, 72732, Control_c, 0, 64, 86
1, 72747, Control_c, 0, 64, 85
1, 72762, Control_c, 0, 64, 85
1, 72777, Control_c, 0, 64, 84
1, 72777, Control_c, 0, 67, 84
1, 72791, Control_c, 0, 64, 83
1, 72791, Control_c, 0, 67, 84
1, 72806, Control_c, 0, 64, 82
1, 72821, Control_c, 0, 64, 80
1, 72821, Control_c, 0, 67, 83
1, 72842, Control_c, 0, 64, 79
1, 72842, Control_c, 0, 67, 83
1, 72856, Control_c, 0, 64, 77
1, 72856, Control_c, 0, 67, 82
1, 72871, Control_c, 0, 64, 76
1, 72884, Note_on_c, 0, 67, 72
1, 72886, Control_c, 0, 64, 74
1, 72886, Control_c, 0, 67, 82
1, 72896, Note_on_c, 0, 63, 58
1, 72901, Control_c, 0, 64, 72
1, 72912, Note_on_c, 0, 60, 41
1, 72915, Control_c, 0, 64, 70
1, 72917, Note_off_c, 0, 64, 60
1, 72930, Control_c, 0, 64, 67
1, 72945, Control_c, 0, 64, 63
1, 72945, Control_c, 0, 67, 81
1, 72960, Control_c, 0, 64, 53
1, 72975, Control_c, 0, 64, 29
1, 72989, Control_c, 0, 64, 0
1, 73009, Note_off_c, 0, 60, 61
1, 73019, Control_c, 0, 67, 81
1, 73024, Note_off_c, 0, 63, 57
1, 73025, Note_on_c, 0, 65, 61
1, 73048, Note_on_c, 0, 62, 41
1, 73048, Control_c, 0, 67, 80
1, 73096, Note_off_c, 0, 62, 47
1, 73117, Note_off_c, 0, 65, 61
1, 73133, Note_on_c, 0, 63, 65
1, 73140, Note_on_c, 0, 60, 51
1, 73167, Control_c, 0, 67, 80
1, 73194, Note_off_c, 0, 60, 53
1, 73197, Control_c, 0, 67, 79
1, 73207, Note_off_c, 0, 63, 51
1, 73227, Note_on_c, 0, 58, 55
1, 73227, Control_c, 0, 67, 79
1, 73230, Note_on_c, 0, 62, 56
1, 73257, Control_c, 0, 67, 78
1, 73272, Control_c, 0, 67, 77
1, 73286, Note_off_c, 0, 58, 58
1, 73298, Note_off_c, 0, 62, 45
1, 73302, Control_c, 0, 67, 77
1, 73326, Note_on_c, 0, 60, 56
1, 73331, Note_on_c, 0, 63, 62
1, 73331, Control_c, 0, 67, 76
1, 73346, Control_c, 0, 67, 76
1, 73373, Note_off_c, 0, 60, 57
1, 73421, Note_off_c, 0, 63, 52
1, 73424, Note_on_c, 0, 58, 44
1, 73428, Note_on_c, 0, 62, 57
1, 73492, Note_off_c, 0, 62, 49
1, 73516, Note_off_c, 0, 58, 48
1, 73545, Note_on_c, 0, 57, 44
1, 73553, Note_on_c, 0, 60, 47
1, 73578, Note_on_c, 0, 50, 29
1, 73605, Control_c, 0, 67, 76
1, 73657, Note_on_c, 0, 66, 59
1, 73682, Note_off_c, 0, 67, 39
1, 73695, Note_off_c, 0, 60, 34
1, 73751, Note_off_c, 0, 66, 60
1, 73778, Note_on_c, 0, 64, 59
1, 73864, Note_on_c, 0, 66, 72
1, 73892, Note_off_c, 0, 64, 61
1, 73901, Control_c, 0, 67, 76
1, 73960, Control_c, 0, 64, 50
1, 73964, Note_off_c, 0, 66, 65
1, 73969, Note_on_c, 0, 69, 75
1, 73975, Control_c, 0, 64, 64
1, 73975, Control_c, 0, 67, 75
1, 73990, Control_c, 0, 64, 67
1, 74005, Control_c, 0, 64, 69
1, 74020, Control_c, 0, 64, 72
1, 74035, Control_c, 0, 64, 74
1, 74035, Control_c, 0, 67, 75
1, 74047, Note_off_c, 0, 69, 60
1, 74050, Control_c, 0, 64, 77
1, 74065, Control_c, 0, 64, 78
1, 74074, Note_on_c, 0, 72, 71
1, 74080, Control_c, 0, 64, 79
1, 74094, Control_c, 0, 64, 80
1, 74109, Control_c, 0, 67, 75
1, 74124, Control_c, 0, 64, 80
1, 74154, Control_c, 0, 67, 76
1, 74157, Note_off_c, 0, 57, 59
1, 74169, Note_on_c, 0, 70, 82
1, 74184, Control_c, 0, 67, 76
1, 74198, Note_off_c, 0, 50, 53
1, 74199, Control_c, 0, 67, 77
1, 74212, Note_off_c, 0, 72, 55
1, 74228, Control_c, 0, 67, 77
1, 74258, Control_c, 0, 67, 78
1, 74272, Note_on_c, 0, 69, 79
1, 74299, Note_off_c, 0, 70, 59
1, 74302, Control_c, 0, 67, 78
1, 74338, Note_off_c, 0, 69, 63
1, 74354, Control_c, 0, 64, 80
1, 74354, Control_c, 0, 67, 79
1, 74373, Note_on_c, 0, 67, 78
1, 74398, Control_c, 0, 64, 79
1, 74409, Note_off_c, 0, 67, 59
1, 74413, Control_c, 0, 64, 79
1, 74428, Control_c, 0, 64, 78
1, 74443, Control_c, 0, 64, 76
1, 74458, Control_c, 0, 64, 71
1, 74458, Control_c, 0, 67, 78
1, 74473, Control_c, 0, 64, 65
1, 74486, Note_on_c, 0, 69, 81
1, 74487, Control_c, 0, 64, 45
1, 74496, Note_on_c, 0, 60, 70
1, 74498, Note_on_c, 0, 66, 69
1, 74502, Control_c, 0, 64, 0
1, 74512, Note_on_c, 0, 45, 50
1, 74517, Control_c, 0, 67, 78
1, 74531, Note_off_c, 0, 60, 55
1, 74547, Control_c, 0, 64, 18
1, 74561, Control_c, 0, 64, 54
1, 74576, Control_c, 0, 64, 63
1, 74576, Control_c, 0, 67, 78
1, 74591, Control_c, 0, 64, 66
1, 74591, Control_c, 0, 67, 79
1, 74601, Note_on_c, 0, 64, 74
1, 74606, Control_c, 0, 64, 70
1, 74609, Note_off_c, 0, 66, 60
1, 74620, Control_c, 0, 64, 74
1, 74635, Control_c, 0, 64, 76
1, 74636, Note_off_c, 0, 69, 63
1, 74650, Control_c, 0, 64, 77
1, 74665, Control_c, 0, 67, 79
1, 74670, Note_off_c, 0, 64, 55
1, 74694, Control_c, 0, 67, 80
1, 74704, Note_on_c, 0, 66, 82
1, 74709, Control_c, 0, 67, 80
1, 74720, Note_off_c, 0, 45, 57
1, 74757, Note_off_c, 0, 66, 64
1, 74768, Control_c, 0, 64, 76
1, 74783, Control_c, 0, 64, 74
1, 74798, Control_c, 0, 64, 69
1, 74798, Control_c, 0, 67, 80
1, 74813, Note_on_c, 0, 67, 88
1, 74814, Control_c, 0, 64, 59
1, 74827, Note_on_c, 0, 46, 61
1, 74829, Control_c, 0, 64, 0
1, 74888, Control_c, 0, 64, 16
1, 74903, Control_c, 0, 64, 54
1, 74917, Control_c, 0, 64, 63
1, 74926, Note_on_c, 0, 60, 60
1, 74932, Control_c, 0, 64, 66
1, 74932, Control_c, 0, 67, 79
1, 74947, Control_c, 0, 64, 67
1, 74962, Control_c, 0, 64, 69
1, 74962, Control_c, 0, 67, 79
1, 74977, Control_c, 0, 64, 69
1, 74987, Note_off_c, 0, 67, 60
1, 74992, Control_c, 0, 64, 70
1, 75011, Note_on_c, 0, 61, 61
1, 75020, Note_off_c, 0, 46, 58
1, 75021, Control_c, 0, 67, 79
1, 75050, Note_off_c, 0, 60, 60
1, 75051, Control_c, 0, 67, 80
1, 75066, Control_c, 0, 67, 80
1, 75088, Control_c, 0, 64, 69
1, 75104, Control_c, 0, 64, 69
1, 75104, Control_c, 0, 67, 81
1, 75118, Control_c, 0, 64, 66
1, 75129, Note_on_c, 0, 65, 82
1, 75132, Note_off_c, 0, 61, 54
1, 75133, Control_c, 0, 64, 59
1, 75133, Control_c, 0, 67, 81
1, 75144, Note_on_c, 0, 62, 65
1, 75148, Control_c, 0, 64, 21
1, 75150, Note_on_c, 0, 47, 47
1, 75163, Control_c, 0, 64, 0
1, 75192, Control_c, 0, 67, 81
1, 75229, Note_off_c, 0, 62, 59
1, 75236, Control_c, 0, 64, 29
1, 75244, Note_on_c, 0, 59, 68
1, 75251, Control_c, 0, 64, 57
1, 75251, Control_c, 0, 67, 80
1, 75266, Control_c, 0, 64, 64
1, 75281, Control_c, 0, 64, 67
1, 75281, Control_c, 0, 67, 80
1, 75296, Note_off_c, 0, 59, 46
1, 75296, Control_c, 0, 64, 69
1, 75311, Control_c, 0, 64, 71
1, 75311, Control_c, 0, 67, 79
1, 75326, Control_c, 0, 64, 71
1, 75340, Control_c, 0, 67, 79
1, 75354, Note_on_c, 0, 56, 63
1, 75415, Control_c, 0, 64, 71
1, 75430, Control_c, 0, 64, 69
1, 75440, Note_off_c, 0, 56, 58
1, 75444, Control_c, 0, 64, 66
1, 75457, Note_on_c, 0, 55, 66
1, 75459, Control_c, 0, 64, 59
1, 75459, Control_c, 0, 67, 78
1, 75472, Note_off_c, 0, 47, 59
1, 75474, Control_c, 0, 64, 13
1, 75478, Note_on_c, 0, 48, 51
1, 75489, Control_c, 0, 64, 0
1, 75489, Control_c, 0, 67, 77
1, 75504, Control_c, 0, 67, 77
1, 75518, Control_c, 0, 64, 10
1, 75533, Control_c, 0, 64, 49
1, 75533, Control_c, 0, 67, 76
1, 75548, Control_c, 0, 64, 59
1, 75548, Control_c, 0, 67, 76
1, 75558, Note_on_c, 0, 57, 63
1, 75561, Note_off_c, 0, 55, 60
1, 75562, Control_c, 0, 64, 63
1, 75567, Note_off_c, 0, 65, 38
1, 75577, Control_c, 0, 64, 64
1, 75577, Control_c, 0, 67, 75
1, 75592, Control_c, 0, 64, 66
1, 75608, Control_c, 0, 64, 68
1, 75608, Control_c, 0, 67, 75
1, 75623, Control_c, 0, 64, 69
1, 75638, Control_c, 0, 64, 69
1, 75652, Control_c, 0, 64, 70
1, 75653, Note_on_c, 0, 58, 66
1, 75655, Note_off_c, 0, 57, 56
1, 75667, Control_c, 0, 64, 70
1, 75712, Control_c, 0, 64, 70
1, 75716, Note_off_c, 0, 58, 63
1, 75726, Control_c, 0, 64, 69
1, 75726, Control_c, 0, 67, 75
1, 75741, Control_c, 0, 64, 67
1, 75756, Control_c, 0, 64, 63
1, 75771, Control_c, 0, 64, 38
1, 75775, Note_on_c, 0, 64, 67
1, 75780, Note_on_c, 0, 62, 62
1, 75785, Control_c, 0, 64, 0
1, 75793, Note_on_c, 0, 55, 41
1, 75867, Control_c, 0, 64, 36
1, 75877, Note_off_c, 0, 64, 61
1, 75882, Control_c, 0, 64, 56
1, 75882, Control_c, 0, 67, 75
1, 75886, Note_off_c, 0, 55, 58
1, 75889, Note_on_c, 0, 60, 64
1, 75897, Control_c, 0, 64, 63
1, 75909, Note_off_c, 0, 62, 50
1, 75912, Control_c, 0, 64, 65
1, 75927, Control_c, 0, 64, 66
1, 75941, Control_c, 0, 64, 66
1, 75956, Control_c, 0, 64, 67
1, 75978, Note_off_c, 0, 60, 56
1, 75993, Note_on_c, 0, 58, 55
1, 76015, Control_c, 0, 67, 75
1, 76030, Control_c, 0, 67, 76
1, 76059, Control_c, 0, 67, 76
1, 76074, Control_c, 0, 64, 66
1, 76074, Control_c, 0, 67, 77
1, 76089, Control_c, 0, 64, 64
1, 76093, Note_off_c, 0, 48, 55
1, 76104, Control_c, 0, 64, 61
1, 76106, Note_off_c, 0, 58, 62
1, 76119, Control_c, 0, 64, 46
1, 76125, Note_on_c, 0, 65, 56
1, 76130, Note_on_c, 0, 57, 53
1, 76134, Note_on_c, 0, 53, 41
1, 76134, Control_c, 0, 64, 0
1, 76148, Note_on_c, 0, 41, 36
1, 76179, Note_off_c, 0, 57, 55
1, 76238, Note_on_c, 0, 58, 55
1, 76267, Control_c, 0, 67, 77
1, 76303, Note_off_c, 0, 58, 54
1, 76312, Control_c, 0, 67, 78
1, 76341, Note_on_c, 0, 59, 50
1, 76371, Control_c, 0, 67, 78
1, 76385, Control_c, 0, 67, 79
1, 76416, Control_c, 0, 67, 79
1, 76430, Note_off_c, 0, 59, 45
1, 76431, Control_c, 0, 67, 80
1, 76444, Note_on_c, 0, 60, 59
1, 76446, Control_c, 0, 67, 80
1, 76475, Control_c, 0, 64, 62
1, 76475, Control_c, 0, 67, 81
1, 76486, Note_off_c, 0, 41, 58
1, 76490, Control_c, 0, 64, 69
1, 76490, Control_c, 0, 67, 82
1, 76505, Control_c, 0, 64, 73
1, 76505, Control_c, 0, 67, 82
1, 76520, Control_c, 0, 64, 77
1, 76523, Note_off_c, 0, 65, 37
1, 76535, Note_off_c, 0, 60, 57
1, 76535, Control_c, 0, 64, 79
1, 76540, Note_off_c, 0, 53, 62
1, 76549, Note_on_c, 0, 62, 62
1, 76550, Control_c, 0, 64, 79
1, 76564, Control_c, 0, 64, 80
1, 76600, Note_off_c, 0, 62, 55
1, 76615, Control_c, 0, 67, 82
1, 76630, Control_c, 0, 67, 81
1, 76645, Control_c, 0, 67, 81
1, 76653, Note_on_c, 0, 64, 67
1, 76660, Control_c, 0, 67, 80
1, 76675, Control_c, 0, 64, 79
1, 76675, Control_c, 0, 67, 80
1, 76676, Note_off_c, 0, 64, 66
1, 76689, Control_c, 0, 67, 79
1, 76704, Control_c, 0, 64, 78
1, 76719, Control_c, 0, 64, 78
1, 76719, Control_c, 0, 67, 79
1, 76734, Control_c, 0, 64, 77
1, 76749, Control_c, 0, 64, 76
1, 76749, Control_c, 0, 67, 78
1, 76763, Control_c, 0, 64, 75
1, 76763, Control_c, 0, 67, 78
1, 76778, Control_c, 0, 64, 74
1, 76793, Control_c, 0, 64, 72
1, 76807, Control_c, 0, 64, 70
1, 76822, Control_c, 0, 64, 68
1, 76822, Control_c, 0, 67, 77
1, 76830, Note_on_c, 0, 72, 80
1, 76837, Control_c, 0, 64, 66
1, 76849, Note_on_c, 0, 65, 50
1, 76849, Note_on_c, 0, 69, 59
1, 76852, Control_c, 0, 64, 64
1, 76867, Control_c, 0, 64, 63
1, 76882, Control_c, 0, 64, 61
1, 76896, Control_c, 0, 64, 58
1, 76911, Control_c, 0, 64, 53
1, 76926, Control_c, 0, 64, 48
1, 76940, Note_off_c, 0, 65, 65
1, 76941, Control_c, 0, 64, 42
1, 76956, Control_c, 0, 64, 34
1, 76963, Note_on_c, 0, 67, 61
1, 76971, Control_c, 0, 64, 10
1, 76971, Control_c, 0, 67, 77
1, 76986, Control_c, 0, 64, 0
1, 77001, Control_c, 0, 67, 76
1, 77015, Note_off_c, 0, 67, 53
1, 77030, Control_c, 0, 67, 76
1, 77060, Note_on_c, 0, 65, 68
1, 77075, Control_c, 0, 67, 75
1, 77119, Control_c, 0, 67, 75
1, 77134, Control_c, 0, 67, 74
1, 77139, Note_off_c, 0, 65, 53
1, 77159, Note_on_c, 0, 63, 67
1, 77163, Control_c, 0, 67, 74
1, 77209, Control_c, 0, 67, 73
1, 77244, Note_off_c, 0, 63, 63
1, 77253, Control_c, 0, 67, 73
1, 77257, Note_on_c, 0, 65, 73
1, 77268, Control_c, 0, 67, 72
1, 77283, Control_c, 0, 67, 71
1, 77298, Control_c, 0, 67, 70
1, 77312, Control_c, 0, 67, 70
1, 77335, Control_c, 0, 67, 69
1, 77353, Note_off_c, 0, 65, 54
1, 77362, Note_on_c, 0, 63, 77
1, 77394, Control_c, 0, 67, 69
1, 77462, Note_off_c, 0, 63, 62
1, 77470, Note_on_c, 0, 62, 78
1, 77477, Note_on_c, 0, 53, 70
1, 77490, Note_off_c, 0, 69, 59
1, 77545, Note_off_c, 0, 72, 59
1, 77579, Note_on_c, 0, 71, 80
1, 77601, Control_c, 0, 67, 68
1, 77631, Control_c, 0, 67, 69
1, 77652, Note_off_c, 0, 71, 51
1, 77660, Control_c, 0, 67, 69
1, 77675, Control_c, 0, 67, 70
1, 77677, Note_on_c, 0, 70, 88
1, 77749, Control_c, 0, 64, 54
1, 77764, Control_c, 0, 64, 64
1, 77764, Control_c, 0, 67, 71
1, 77779, Control_c, 0, 64, 67
1, 77782, Note_on_c, 0, 71, 84
1, 77785, Note_off_c, 0, 70, 61
1, 77789, Note_on_c, 0, 68, 79
1, 77794, Control_c, 0, 64, 69
1, 77809, Control_c, 0, 64, 73
1, 77809, Control_c, 0, 67, 71
1, 77821, Note_off_c, 0, 68, 65
1, 77824, Control_c, 0, 64, 76
1, 77838, Control_c, 0, 64, 78
1, 77838, Control_c, 0, 67, 71
1, 77853, Control_c, 0, 64, 79
1, 77868, Note_off_c, 0, 53, 60
1, 77896, Note_on_c, 0, 77, 86
1, 77899, Note_off_c, 0, 71, 62
1, 77942, Control_c, 0, 67, 71
1, 77986, Control_c, 0, 64, 78
1, 77986, Control_c, 0, 67, 72
1, 77995, Note_on_c, 0, 74, 87
1, 78002, Control_c, 0, 64, 78
1, 78002, Control_c, 0, 67, 72
1, 78017, Control_c, 0, 64, 77
1, 78023, Note_off_c, 0, 77, 53
1, 78032, Control_c, 0, 64, 76
1, 78047, Control_c, 0, 64, 76
1, 78047, Control_c, 0, 67, 73
1, 78061, Control_c, 0, 64, 75
1, 78083, Control_c, 0, 64, 74
1, 78098, Control_c, 0, 64, 73
1, 78098, Control_c, 0, 67, 73
1, 78113, Control_c, 0, 64, 70
1, 78118, Note_on_c, 0, 71, 81
1, 78118, Note_off_c, 0, 62, 56
1, 78128, Control_c, 0, 64, 67
1, 78130, Note_on_c, 0, 55, 67
1, 78142, Control_c, 0, 64, 62
1, 78149, Note_off_c, 0, 74, 64
1, 78157, Control_c, 0, 64, 51
1, 78172, Control_c, 0, 64, 10
1, 78187, Control_c, 0, 64, 0
1, 78202, Control_c, 0, 67, 74
1, 78205, Note_off_c, 0, 71, 62
1, 78217, Control_c, 0, 67, 74
1, 78226, Note_on_c, 0, 65, 80
1, 78235, Note_on_c, 0, 62, 68
1, 78315, Note_off_c, 0, 65, 63
1, 78315, Note_on_c, 0, 67, 83
1, 78339, Note_off_c, 0, 62, 61
1, 78348, Note_on_c, 0, 64, 57
1, 78432, Note_on_c, 0, 71, 88
1, 78438, Note_off_c, 0, 64, 64
1, 78439, Control_c, 0, 67, 75
1, 78441, Note_on_c, 0, 68, 75
1, 78446, Note_on_c, 0, 65, 70
1, 78448, Note_off_c, 0, 67, 52
1, 78453, Control_c, 0, 67, 75
1, 78483, Control_c, 0, 67, 76
1, 78498, Control_c, 0, 64, 56
1, 78498, Control_c, 0, 67, 76
1, 78513, Control_c, 0, 64, 65
1, 78513, Control_c, 0, 67, 77
1, 78527, Control_c, 0, 64, 67
1, 78527, Control_c, 0, 67, 77
1, 78538, Note_off_c, 0, 65, 61
1, 78542, Control_c, 0, 64, 68
1, 78542, Control_c, 0, 67, 78
1, 78549, Note_off_c, 0, 68, 63
1, 78549, Note_off_c, 0, 71, 56
1, 78550, Note_on_c, 0, 67, 77
1, 78555, Note_on_c, 0, 64, 62
1, 78557, Control_c, 0, 64, 69
1, 78572, Control_c, 0, 64, 69
1, 78587, Control_c, 0, 67, 77
1, 78602, Control_c, 0, 67, 77
1, 78616, Control_c, 0, 67, 76
1, 78627, Note_off_c, 0, 67, 56
1, 78631, Control_c, 0, 64, 69
1, 78631, Control_c, 0, 67, 76
1, 78644, Note_off_c, 0, 55, 36
1, 78645, Note_on_c, 0, 62, 57
1, 78646, Note_off_c, 0, 64, 57
1, 78652, Note_on_c, 0, 65, 73
1, 78661, Control_c, 0, 64, 68
1, 78661, Control_c, 0, 67, 75
1, 78676, Control_c, 0, 64, 67
1, 78676, Control_c, 0, 67, 75
1, 78691, Control_c, 0, 64, 66
1, 78691, Control_c, 0, 67, 74
1, 78706, Control_c, 0, 64, 65
1, 78706, Control_c, 0, 67, 74
1, 78721, Control_c, 0, 64, 64
1, 78721, Control_c, 0, 67, 73
1, 78735, Control_c, 0, 64, 63
1, 78735, Control_c, 0, 67, 73
1, 78750, Control_c, 0, 64, 61
1, 78765, Control_c, 0, 64, 60
1, 78765, Control_c, 0, 67, 72
1, 78775, Note_off_c, 0, 62, 0
1, 78779, Control_c, 0, 64, 58
1, 78786, Note_on_c, 0, 71, 67
1, 78794, Control_c, 0, 64, 55
1, 78795, Note_on_c, 0, 48, 61
1, 78810, Control_c, 0, 64, 49
1, 78810, Control_c, 0, 67, 72
1, 78813, Poly_aftertouch_c, 0, 62, 127
1, 78832, Control_c, 0, 64, 37
1, 78832, Control_c, 0, 67, 71
1, 78848, Control_c, 0, 64, 0
1, 78863, Control_c, 0, 67, 71
1, 78880, Note_off_c, 0, 65, 50
1, 78907, Control_c, 0, 67, 70
1, 78912, Note_on_c, 0, 67, 60
1, 78912, Note_off_c, 0, 71, 56
1, 78952, Control_c, 0, 67, 70
1, 78966, Control_c, 0, 67, 69
1, 78976, Poly_aftertouch_c, 0, 62, 0
1, 78996, Control_c, 0, 67, 69
1, 79003, Note_off_c, 0, 67, 56
1, 79005, Note_on_c, 0, 65, 60
1, 79070, Control_c, 0, 67, 69
1, 79085, Note_off_c, 0, 65, 35
1, 79125, Note_on_c, 0, 60, 51
1, 79126, Note_on_c, 0, 72, 60
1, 79144, Control_c, 0, 67, 69
1, 79148, Note_on_c, 0, 64, 40
1, 79174, Control_c, 0, 64, 64
1, 79181, Note_off_c, 0, 48, 60
1, 79185, Note_off_c, 0, 64, 50
1, 79189, Control_c, 0, 64, 71
1, 79203, Control_c, 0, 64, 75
1, 79218, Control_c, 0, 64, 78
1, 79225, Note_off_c, 0, 60, 59
1, 79225, Note_off_c, 0, 72, 60
1, 79233, Control_c, 0, 64, 79
1, 79242, Note_on_c, 0, 65, 57
1, 79263, Control_c, 0, 67, 68
1, 79292, Control_c, 0, 67, 68
1, 79300, Note_off_c, 0, 65, 60
1, 79357, Note_on_c, 0, 64, 59
1, 79366, Control_c, 0, 64, 79
1, 79381, Control_c, 0, 64, 78
1, 79381, Control_c, 0, 67, 67
1, 79395, Control_c, 0, 64, 78
1, 79395, Control_c, 0, 67, 67
1, 79406, Note_off_c, 0, 64, 54
1, 79410, Control_c, 0, 64, 77
1, 79410, Control_c, 0, 67, 66
1, 79425, Control_c, 0, 64, 75
1, 79425, Control_c, 0, 67, 65
1, 79440, Control_c, 0, 64, 74
1, 79440, Control_c, 0, 67, 64
1, 79455, Control_c, 0, 64, 73
1, 79469, Control_c, 0, 64, 72
1, 79484, Control_c, 0, 64, 70
1, 79498, Note_on_c, 0, 74, 74
1, 79499, Control_c, 0, 64, 69
1, 79514, Control_c, 0, 64, 66
1, 79517, Note_on_c, 0, 67, 49
1, 79528, Note_on_c, 0, 71, 53
1, 79529, Control_c, 0, 64, 63
1, 79544, Control_c, 0, 64, 57
1, 79558, Control_c, 0, 64, 47
1, 79581, Control_c, 0, 64, 36
1, 79596, Control_c, 0, 64, 27
1, 79612, Control_c, 0, 64, 0
1, 79612, Note_off_c, 0, 67, 63
1, 79627, Note_on_c, 0, 69, 59
1, 79701, Control_c, 0, 67, 64
1, 79712, Note_off_c, 0, 69, 55
1, 79731, Note_on_c, 0, 67, 69
1, 79832, Note_off_c, 0, 67, 58
1, 79841, Note_on_c, 0, 65, 75
1, 79893, Control_c, 0, 67, 64
1, 79939, Note_off_c, 0, 65, 64
1, 79949, Note_on_c, 0, 67, 76
1, 80050, Note_on_c, 0, 65, 84
1, 80056, Control_c, 0, 67, 65
1, 80062, Note_off_c, 0, 67, 60
1, 80145, Note_off_c, 0, 65, 64
1, 80159, Note_on_c, 0, 64, 82
1, 80177, Note_on_c, 0, 55, 72
1, 80226, Note_off_c, 0, 71, 59
1, 80233, Control_c, 0, 67, 64
1, 80269, Note_off_c, 0, 74, 59
1, 80277, Note_on_c, 0, 73, 85
1, 80344, Control_c, 0, 67, 65
1, 80372, Note_off_c, 0, 73, 60
1, 80373, Control_c, 0, 67, 65
1, 80375, Note_on_c, 0, 72, 91
1, 80404, Control_c, 0, 67, 65
1, 80449, Control_c, 0, 67, 64
1, 80463, Control_c, 0, 67, 64
1, 80478, Control_c, 0, 67, 63
1, 80487, Note_on_c, 0, 73, 89
1, 80490, Note_off_c, 0, 72, 63
1, 80493, Control_c, 0, 67, 63
1, 80497, Note_on_c, 0, 70, 79
1, 80508, Control_c, 0, 67, 62
1, 80523, Control_c, 0, 64, 61
1, 80523, Control_c, 0, 67, 60
1, 80537, Control_c, 0, 64, 65
1, 80537, Control_c, 0, 67, 58
1, 80538, Note_off_c, 0, 70, 61
1, 80552, Control_c, 0, 64, 67
1, 80552, Control_c, 0, 67, 56
1, 80567, Control_c, 0, 64, 69
1, 80567, Control_c, 0, 67, 52
1, 80581, Control_c, 0, 64, 71
1, 80581, Control_c, 0, 67, 48
1, 80593, Note_on_c, 0, 79, 86
1, 80596, Control_c, 0, 64, 73
1, 80596, Control_c, 0, 67, 44
1, 80599, Note_off_c, 0, 55, 59
1, 80602, Note_off_c, 0, 73, 60
1, 80611, Control_c, 0, 64, 74
1, 80611, Control_c, 0, 67, 42
1, 80626, Control_c, 0, 64, 74
1, 80670, Control_c, 0, 67, 42
1, 80694, Note_on_c, 0, 76, 89
1, 80715, Control_c, 0, 67, 41
1, 80728, Note_off_c, 0, 79, 61
1, 80730, Control_c, 0, 67, 40
1, 80745, Control_c, 0, 67, 39
1, 80760, Control_c, 0, 64, 74
1, 80760, Control_c, 0, 67, 37
1, 80774, Control_c, 0, 67, 35
1, 80789, Control_c, 0, 64, 73
1, 80789, Control_c, 0, 67, 33
1, 80801, Note_on_c, 0, 73, 90
1, 80804, Control_c, 0, 64, 72
1, 80804, Control_c, 0, 67, 33
1, 80810, Note_off_c, 0, 64, 57
1, 80813, Note_off_c, 0, 76, 63
1, 80814, Note_on_c, 0, 57, 78
1, 80819, Control_c, 0, 64, 71
1, 80819, Control_c, 0, 67, 31
1, 80834, Control_c, 0, 64, 68
1, 80834, Control_c, 0, 67, 29
1, 80848, Control_c, 0, 64, 64
1, 80848, Control_c, 0, 67, 26
1, 80863, Control_c, 0, 64, 36
1, 80863, Control_c, 0, 67, 23
1, 80878, Control_c, 0, 64, 0
1, 80878, Control_c, 0, 67, 20
1, 80881, Note_off_c, 0, 73, 64
1, 80893, Control_c, 0, 67, 18
1, 80908, Control_c, 0, 67, 16
1, 80912, Note_on_c, 0, 67, 90
1, 80922, Control_c, 0, 67, 15
1, 80923, Note_on_c, 0, 64, 75
1, 80937, Control_c, 0, 67, 13
1, 80952, Control_c, 0, 67, 11
1, 80967, Control_c, 0, 67, 10
1, 80981, Control_c, 0, 67, 8
1, 80996, Control_c, 0, 67, 0
1, 81001, Note_on_c, 0, 69, 87
1, 81009, Note_off_c, 0, 67, 62
1, 81025, Note_on_c, 0, 65, 70
1, 81032, Note_off_c, 0, 64, 60
1, 81118, Note_on_c, 0, 73, 90
1, 81122, Note_off_c, 0, 65, 65
1, 81125, Note_on_c, 0, 67, 77
1, 81136, Note_on_c, 0, 70, 71
1, 81149, Note_off_c, 0, 69, 59
1, 81152, Control_c, 0, 64, 51
1, 81167, Control_c, 0, 64, 63
1, 81181, Control_c, 0, 64, 68
1, 81197, Control_c, 0, 64, 71
1, 81212, Control_c, 0, 64, 75
1, 81227, Control_c, 0, 64, 77
1, 81235, Note_on_c, 0, 69, 89
1, 81236, Note_off_c, 0, 67, 59
1, 81237, Note_on_c, 0, 65, 77
1, 81240, Note_off_c, 0, 70, 61
1, 81242, Control_c, 0, 64, 77
1, 81271, Note_off_c, 0, 73, 58
1, 81302, Note_off_c, 0, 57, 55
1, 81305, Note_off_c, 0, 65, 59
1, 81311, Note_off_c, 0, 69, 60
1, 81326, Note_on_c, 0, 64, 47
1, 81329, Note_on_c, 0, 67, 95
1, 81419, Control_c, 0, 64, 76
1, 81434, Control_c, 0, 64, 74
1, 81449, Control_c, 0, 64, 70
1, 81457, Note_on_c, 0, 73, 86
1, 81461, Note_on_c, 0, 58, 78
1, 81464, Control_c, 0, 64, 64
1, 81478, Control_c, 0, 64, 26
1, 81493, Control_c, 0, 64, 0
1, 81495, Note_off_c, 0, 67, 61
1, 81573, Note_on_c, 0, 69, 79
1, 81673, Note_on_c, 0, 67, 87
1, 81699, Note_off_c, 0, 73, 58
1, 81702, Note_off_c, 0, 69, 62
1, 81773, Note_off_c, 0, 67, 56
1, 81799, Note_on_c, 0, 74, 90
1, 81809, Note_on_c, 0, 65, 84
1, 81809, Note_on_c, 0, 62, 75
1, 81813, Note_off_c, 0, 64, 58
1, 81901, Control_c, 0, 64, 51
1, 81916, Control_c, 0, 64, 66
1, 81922, Note_on_c, 0, 69, 85
1, 81931, Control_c, 0, 64, 70
1, 81946, Control_c, 0, 64, 72
1, 81946, Note_off_c, 0, 65, 63
1, 81961, Control_c, 0, 64, 74
1, 81965, Note_off_c, 0, 62, 60
1, 81976, Control_c, 0, 64, 75
1, 81991, Control_c, 0, 64, 76
1, 81991, Note_off_c, 0, 58, 64
1, 82039, Note_on_c, 0, 70, 94
1, 82049, Note_off_c, 0, 74, 61
1, 82053, Note_off_c, 0, 69, 65
1, 82100, Note_off_c, 0, 70, 62
1, 82184, Control_c, 0, 64, 75
1, 82199, Control_c, 0, 64, 75
1, 82214, Control_c, 0, 64, 74
1, 82228, Control_c, 0, 64, 72
1, 82234, Note_on_c, 0, 46, 79
1, 82243, Control_c, 0, 64, 70
1, 82258, Control_c, 0, 64, 68
1, 82273, Control_c, 0, 64, 65
1, 82288, Control_c, 0, 64, 59
1, 82289, Note_on_c, 0, 77, 92
1, 82298, Note_on_c, 0, 70, 78
1, 82298, Note_on_c, 0, 74, 83
1, 82302, Control_c, 0, 64, 0
1, 82501, Note_on_c, 0, 72, 73
1, 82539, Note_off_c, 0, 70, 60
1, 82551, Note_off_c, 0, 74, 57
1, 82623, Note_on_c, 0, 70, 74
1, 82635, Control_c, 0, 64, 55
1, 82643, Note_off_c, 0, 72, 62
1, 82650, Control_c, 0, 64, 64
1, 82665, Control_c, 0, 64, 67
1, 82680, Control_c, 0, 64, 70
1, 82695, Control_c, 0, 64, 72
1, 82709, Control_c, 0, 64, 74
1, 82719, Note_on_c, 0, 68, 78
1, 82724, Note_off_c, 0, 70, 62
1, 82724, Control_c, 0, 64, 75
1, 82739, Control_c, 0, 64, 76
1, 82818, Note_off_c, 0, 68, 61
1, 82829, Note_on_c, 0, 70, 78
1, 82873, Control_c, 0, 64, 75
1, 82888, Control_c, 0, 64, 75
1, 82903, Control_c, 0, 64, 74
1, 82918, Note_off_c, 0, 70, 62
1, 82918, Control_c, 0, 64, 74
1, 82921, Note_on_c, 0, 68, 81
1, 82933, Control_c, 0, 64, 73
1, 82948, Control_c, 0, 64, 72
1, 82963, Control_c, 0, 64, 72
1, 82977, Control_c, 0, 64, 70
1, 82992, Control_c, 0, 64, 68
1, 82994, Note_off_c, 0, 46, 57
1, 83007, Control_c, 0, 64, 64
1, 83007, Note_off_c, 0, 68, 61
1, 83022, Control_c, 0, 64, 55
1, 83033, Note_on_c, 0, 67, 81
1, 83037, Control_c, 0, 64, 0
1, 83048, Note_on_c, 0, 48, 68
1, 83117, Note_off_c, 0, 67, 53
1, 83151, Note_on_c, 0, 75, 86
1, 83169, Control_c, 0, 64, 34
1, 83184, Control_c, 0, 64, 60
1, 83199, Control_c, 0, 64, 65
1, 83204, Note_off_c, 0, 77, 57
1, 83214, Control_c, 0, 64, 68
1, 83229, Control_c, 0, 64, 71
1, 83240, Note_on_c, 0, 74, 84
1, 83243, Control_c, 0, 64, 75
1, 83245, Note_off_c, 0, 75, 64
1, 83258, Control_c, 0, 64, 78
1, 83273, Control_c, 0, 64, 81
1, 83288, Control_c, 0, 64, 82
1, 83303, Control_c, 0, 64, 83
1, 83325, Control_c, 0, 64, 83
1, 83333, Note_off_c, 0, 48, 62
1, 83357, Note_on_c, 0, 75, 90
1, 83364, Note_on_c, 0, 72, 78
1, 83368, Note_off_c, 0, 74, 60
1, 83468, Note_on_c, 0, 79, 81
1, 83475, Note_off_c, 0, 75, 58
1, 83503, Control_c, 0, 64, 83
1, 83523, Note_off_c, 0, 72, 57
1, 83547, Control_c, 0, 64, 82
1, 83562, Control_c, 0, 64, 82
1, 83568, Note_on_c, 0, 75, 83
1, 83574, Note_off_c, 0, 79, 61
1, 83577, Control_c, 0, 64, 81
1, 83592, Control_c, 0, 64, 81
1, 83607, Control_c, 0, 64, 80
1, 83619, Note_off_c, 0, 75, 63
1, 83622, Control_c, 0, 64, 79
1, 83637, Control_c, 0, 64, 77
1, 83652, Control_c, 0, 64, 75
1, 83667, Control_c, 0, 64, 71
1, 83681, Control_c, 0, 64, 66
1, 83696, Control_c, 0, 64, 57
1, 83697, Note_on_c, 0, 74, 85
1, 83702, Note_on_c, 0, 65, 61
1, 83708, Note_on_c, 0, 69, 65
1, 83711, Control_c, 0, 64, 0
1, 83719, Note_on_c, 0, 53, 47
1, 83805, Note_on_c, 0, 73, 85
1, 83830, Note_off_c, 0, 74, 64
1, 83830, Control_c, 0, 64, 45
1, 83845, Control_c, 0, 64, 61
1, 83860, Control_c, 0, 64, 65
1, 83874, Control_c, 0, 64, 66
1, 83889, Control_c, 0, 64, 68
1, 83904, Control_c, 0, 64, 70
1, 83909, Note_on_c, 0, 72, 86
1, 83919, Control_c, 0, 64, 73
1, 83925, Note_off_c, 0, 73, 62
1, 83934, Control_c, 0, 64, 77
1, 83948, Control_c, 0, 64, 79
1, 83963, Control_c, 0, 64, 80
1, 83978, Control_c, 0, 64, 81
1, 83992, Control_c, 0, 64, 81
1, 84021, Note_on_c, 0, 73, 91
1, 84034, Note_on_c, 0, 63, 70
1, 84036, Note_off_c, 0, 72, 63
1, 84075, Note_off_c, 0, 65, 52
1, 84133, Note_on_c, 0, 77, 90
1, 84143, Note_off_c, 0, 73, 62
1, 84172, Note_off_c, 0, 53, 36
1, 84232, Note_on_c, 0, 73, 93
1, 84241, Note_off_c, 0, 77, 60
1, 84292, Note_off_c, 0, 73, 63
1, 84296, Control_c, 0, 64, 81
1, 84311, Control_c, 0, 64, 80
1, 84325, Control_c, 0, 64, 79
1, 84340, Control_c, 0, 64, 78
1, 84355, Control_c, 0, 64, 77
1, 84370, Control_c, 0, 64, 74
1, 84385, Control_c, 0, 64, 71
1, 84397, Note_on_c, 0, 58, 53
1, 84397, Note_on_c, 0, 73, 84
1, 84400, Control_c, 0, 64, 65
1, 84416, Control_c, 0, 64, 55
1, 84430, Control_c, 0, 64, 0
1, 84519, Control_c, 0, 64, 23
1, 84528, Note_on_c, 0, 70, 70
1, 84528, Note_off_c, 0, 69, 63
1, 84534, Control_c, 0, 64, 55
1, 84549, Control_c, 0, 64, 64
1, 84564, Control_c, 0, 64, 66
1, 84578, Control_c, 0, 64, 67
1, 84593, Control_c, 0, 64, 68
1, 84608, Control_c, 0, 64, 69
1, 84626, Note_on_c, 0, 69, 66
1, 84628, Note_off_c, 0, 70, 56
1, 84633, Note_off_c, 0, 73, 57
1, 84668, Control_c, 0, 64, 68
1, 84683, Control_c, 0, 64, 67
1, 84697, Control_c, 0, 64, 63
1, 84712, Control_c, 0, 64, 49
1, 84715, Note_off_c, 0, 69, 57
1, 84719, Note_on_c, 0, 74, 74
1, 84727, Control_c, 0, 64, 0
1, 84739, Note_on_c, 0, 67, 55
1, 84741, Note_on_c, 0, 62, 51
1, 84756, Note_off_c, 0, 63, 50
1, 84823, Control_c, 0, 64, 46
1, 84837, Control_c, 0, 64, 61
1, 84852, Control_c, 0, 64, 64
1, 84853, Note_on_c, 0, 70, 58
1, 84862, Note_off_c, 0, 67, 51
1, 84867, Control_c, 0, 64, 66
1, 84882, Control_c, 0, 64, 66
1, 84885, Note_off_c, 0, 62, 59
1, 84896, Control_c, 0, 64, 67
1, 84911, Control_c, 0, 64, 68
1, 84926, Control_c, 0, 64, 69
1, 84940, Note_on_c, 0, 69, 67
1, 84941, Note_off_c, 0, 70, 61
1, 84985, Control_c, 0, 64, 68
1, 85000, Control_c, 0, 64, 67
1, 85014, Control_c, 0, 64, 64
1, 85029, Control_c, 0, 64, 55
1, 85034, Note_off_c, 0, 69, 60
1, 85044, Control_c, 0, 64, 0
1, 85050, Note_off_c, 0, 74, 0
1, 85056, Note_off_c, 0, 58, 55
1, 85061, Note_on_c, 0, 57, 48
1, 85065, Note_on_c, 0, 65, 61
1, 85068, Note_on_c, 0, 60, 50
1, 85088, Poly_aftertouch_c, 0, 74, 127
1, 85103, Control_c, 0, 64, 46
1, 85118, Control_c, 0, 64, 57
1, 85133, Control_c, 0, 64, 61
1, 85142, Poly_aftertouch_c, 0, 74, 0
1, 85148, Control_c, 0, 64, 63
1, 85157, Note_off_c, 0, 65, 58
1, 85163, Note_on_c, 0, 69, 61
1, 85163, Control_c, 0, 64, 65
1, 85177, Control_c, 0, 64, 65
1, 85208, Control_c, 0, 64, 66
1, 85223, Control_c, 0, 64, 66
1, 85238, Control_c, 0, 64, 67
1, 85249, Note_off_c, 0, 69, 54
1, 85275, Note_on_c, 0, 67, 54
1, 85282, Control_c, 0, 64, 66
1, 85297, Control_c, 0, 64, 65
1, 85312, Control_c, 0, 64, 64
1, 85325, Note_off_c, 0, 67, 53
1, 85326, Control_c, 0, 64, 59
1, 85335, Note_off_c, 0, 60, 37
1, 85341, Control_c, 0, 64, 39
1, 85356, Note_off_c, 0, 57, 53
1, 85356, Control_c, 0, 64, 0
1, 85383, Note_on_c, 0, 74, 64
1, 85390, Note_on_c, 0, 64, 60
1, 85399, Note_on_c, 0, 55, 38
1, 85401, Note_on_c, 0, 58, 40
1, 85439, Note_off_c, 0, 64, 52
1, 85475, Control_c, 0, 64, 10
1, 85487, Note_on_c, 0, 67, 62
1, 85490, Control_c, 0, 64, 13
1, 85505, Control_c, 0, 64, 18
1, 85519, Control_c, 0, 64, 24
1, 85521, Note_off_c, 0, 67, 61
1, 85534, Control_c, 0, 64, 31
1, 85549, Control_c, 0, 64, 35
1, 85595, Note_on_c, 0, 65, 59
1, 85601, Control_c, 0, 64, 34
1, 85616, Control_c, 0, 64, 33
1, 85619, Note_off_c, 0, 65, 66
1, 85631, Control_c, 0, 64, 30
1, 85645, Control_c, 0, 64, 28
1, 85660, Control_c, 0, 64, 21
1, 85675, Control_c, 0, 64, 0
1, 85713, Note_on_c, 0, 73, 67
1, 85721, Note_off_c, 0, 74, 55
1, 85725, Note_on_c, 0, 64, 56
1, 85768, Note_off_c, 0, 64, 60
1, 85810, Note_off_c, 0, 58, 63
1, 85827, Note_on_c, 0, 57, 50
1, 85873, Note_off_c, 0, 57, 57
1, 85915, Note_off_c, 0, 55, 43
1, 85924, Note_on_c, 0, 56, 59
1, 86010, Note_off_c, 0, 56, 59
1, 86019, Note_off_c, 0, 73, 58
1, 86029, Note_on_c, 0, 74, 61
1, 86035, Note_on_c, 0, 65, 55
1, 86042, Note_on_c, 0, 57, 56
1, 86063, Note_on_c, 0, 53, 22
1, 86076, Note_off_c, 0, 65, 62
1, 86099, Note_off_c, 0, 57, 60
1, 86150, Note_on_c, 0, 62, 57
1, 86191, Note_off_c, 0, 62, 59
1, 86247, Note_on_c, 0, 57, 53
1, 86251, Note_off_c, 0, 53, 44
1, 86286, Note_off_c, 0, 57, 61
1, 86323, Note_off_c, 0, 74, 54
1, 86365, Note_on_c, 0, 76, 66
1, 86375, Note_on_c, 0, 64, 59
1, 86379, Note_on_c, 0, 55, 51
1, 86383, Note_on_c, 0, 70, 52
1, 86406, Note_off_c, 0, 64, 65
1, 86408, Note_off_c, 0, 55, 65
1, 86415, Note_off_c, 0, 76, 65
1, 86417, Note_off_c, 0, 70, 58
1, 86717, Note_on_c, 0, 73, 64
1, 86728, Note_on_c, 0, 67, 51
1, 86730, Note_on_c, 0, 57, 40
1, 86731, Note_on_c, 0, 69, 50
1, 86754, Note_off_c, 0, 67, 61
1, 86757, Note_off_c, 0, 69, 65
1, 86760, Note_off_c, 0, 57, 61
1, 86762, Note_off_c, 0, 73, 60
1, 87041, Note_on_c, 0, 50, 41
1, 87046, Note_on_c, 0, 74, 46
1, 87055, Note_on_c, 0, 69, 38
1, 87071, Note_on_c, 0, 65, 34
1, 87145, Note_on_c, 0, 57, 50
1, 87187, Note_off_c, 0, 57, 61
1, 87213, Note_off_c, 0, 74, 54
1, 87240, Note_off_c, 0, 69, 63
1, 87250, Note_on_c, 0, 59, 48
1, 87274, Note_off_c, 0, 65, 58
1, 87306, Note_off_c, 0, 59, 44
1, 87331, Note_on_c, 0, 61, 58
1, 87351, Note_off_c, 0, 61, 63
1, 87442, Note_on_c, 0, 62, 55
1, 87482, Note_off_c, 0, 62, 59
1, 87511, Note_on_c, 0, 64, 59
1, 87548, Note_off_c, 0, 64, 62
1, 87574, Note_off_c, 0, 50, 57
1, 87621, Note_on_c, 0, 69, 59
1, 87628, Note_on_c, 0, 57, 52
1, 87634, Note_on_c, 0, 62, 36
1, 87639, Note_on_c, 0, 65, 39
1, 87702, Note_off_c, 0, 62, 0
1, 87738, Poly_aftertouch_c, 0, 62, 127
1, 87747, Note_on_c, 0, 50, 55
1, 87748, Note_on_c, 0, 38, 56
1, 87770, Note_off_c, 0, 50, 59
1, 87774, Note_off_c, 0, 38, 56
1, 87791, Note_off_c, 0, 57, 36
1, 87834, Note_off_c, 0, 65, 43
1, 87841, Poly_aftertouch_c, 0, 62, 0
1, 87873, Note_on_c, 0, 52, 66
1, 87881, Note_on_c, 0, 40, 53
1, 87902, Note_off_c, 0, 52, 68
1, 87908, Note_off_c, 0, 40, 57
1, 87994, Note_on_c, 0, 53, 71
1, 88000, Note_on_c, 0, 41, 65
1, 88021, Note_off_c, 0, 53, 67
1, 88029, Note_off_c, 0, 69, 27
1, 88030, Note_off_c, 0, 41, 67
1, 88133, Note_on_c, 0, 47, 64
1, 88142, Note_on_c, 0, 35, 55
1, 88242, Note_on_c, 0, 68, 70
1, 88254, Note_on_c, 0, 65, 57
1, 88256, Note_on_c, 0, 62, 49
1, 88262, Note_off_c, 0, 35, 64
1, 88272, Note_off_c, 0, 68, 65
1, 88275, Note_off_c, 0, 65, 63
1, 88280, Note_off_c, 0, 47, 62
1, 88281, Note_off_c, 0, 62, 53
1, 88364, Note_on_c, 0, 69, 70
1, 88365, Note_on_c, 0, 62, 58
1, 88365, Note_on_c, 0, 65, 58
1, 88392, Note_off_c, 0, 69, 68
1, 88394, Note_off_c, 0, 62, 62
1, 88397, Note_off_c, 0, 65, 67
1, 88473, Note_on_c, 0, 71, 74
1, 88478, Note_on_c, 0, 65, 64
1, 88483, Note_on_c, 0, 62, 56
1, 88500, Note_off_c, 0, 71, 62
1, 88505, Note_off_c, 0, 62, 59
1, 88507, Note_off_c, 0, 65, 67
1, 88605, Note_on_c, 0, 64, 76
1, 88621, Note_on_c, 0, 61, 64
1, 88622, Note_on_c, 0, 58, 60
1, 88732, Note_on_c, 0, 55, 64
1, 88737, Note_on_c, 0, 43, 54
1, 88752, Note_off_c, 0, 55, 66
1, 88766, Note_off_c, 0, 43, 54
1, 88787, Note_off_c, 0, 58, 62
1, 88799, Note_off_c, 0, 61, 58
1, 88817, Note_off_c, 0, 64, 62
1, 88844, Note_on_c, 0, 57, 73
1, 88845, Note_on_c, 0, 45, 71
1, 88868, Note_off_c, 0, 45, 68
1, 88868, Note_off_c, 0, 57, 66
1, 88962, Note_on_c, 0, 58, 68
1, 88963, Note_on_c, 0, 46, 70
1, 88985, Note_off_c, 0, 58, 65
1, 88993, Note_off_c, 0, 46, 64
1, 89076, Note_on_c, 0, 52, 74
1, 89080, Note_on_c, 0, 40, 70
1, 89187, Note_on_c, 0, 70, 72
1, 89194, Note_on_c, 0, 73, 56
1, 89196, Note_on_c, 0, 67, 54
1, 89211, Note_off_c, 0, 70, 69
1, 89214, Note_off_c, 0, 73, 58
1, 89217, Note_off_c, 0, 67, 59
1, 89296, Note_on_c, 0, 67, 70
1, 89299, Note_on_c, 0, 74, 77
1, 89300, Note_on_c, 0, 70, 74
1, 89315, Note_off_c, 0, 40, 53
1, 89331, Note_off_c, 0, 67, 65
1, 89336, Note_off_c, 0, 70, 66
1, 89339, Note_off_c, 0, 74, 61
1, 89387, Note_off_c, 0, 52, 58
1, 89416, Note_on_c, 0, 76, 81
1, 89419, Note_on_c, 0, 67, 77
1, 89420, Note_on_c, 0, 70, 74
1, 89440, Note_off_c, 0, 67, 70
1, 89445, Note_off_c, 0, 70, 69
1, 89449, Note_off_c, 0, 76, 63
1, 89530, Note_on_c, 0, 67, 79
1, 89530, Note_on_c, 0, 69, 88
1, 89534, Note_on_c, 0, 64, 81
1, 89638, Note_on_c, 0, 61, 86
1, 89645, Note_on_c, 0, 49, 73
1, 89667, Note_off_c, 0, 61, 62
1, 89676, Note_off_c, 0, 49, 66
1, 89707, Note_off_c, 0, 64, 60
1, 89732, Note_off_c, 0, 67, 55
1, 89753, Note_off_c, 0, 69, 59
1, 89768, Note_on_c, 0, 50, 78
1, 89772, Note_on_c, 0, 62, 72
1, 89774, Note_on_c, 0, 60, 64
1, 89789, Note_off_c, 0, 50, 67
1, 89789, Note_off_c, 0, 62, 65
1, 89794, Note_off_c, 0, 60, 64
1, 89866, Note_on_c, 0, 64, 93
1, 89872, Note_on_c, 0, 52, 84
1, 89884, Note_off_c, 0, 64, 71
1, 89902, Note_off_c, 0, 52, 67
1, 89987, Note_on_c, 0, 53, 96
1, 89992, Note_on_c, 0, 41, 94
1, 90108, Note_on_c, 0, 69, 82
1, 90108, Note_on_c, 0, 74, 86
1, 90112, Note_on_c, 0, 65, 76
1, 90131, Note_off_c, 0, 69, 69
1, 90134, Note_off_c, 0, 65, 70
1, 90150, Note_off_c, 0, 74, 62
1, 90197, Control_c, 0, 67, 10
1, 90212, Control_c, 0, 67, 16
1, 90215, Note_on_c, 0, 65, 83
1, 90220, Note_on_c, 0, 69, 81
1, 90221, Note_on_c, 0, 74, 72
1, 90227, Control_c, 0, 67, 20
1, 90236, Note_off_c, 0, 65, 70
1, 90239, Note_on_c, 0, 77, 45
1, 90242, Control_c, 0, 67, 20
1, 90242, Note_off_c, 0, 69, 66
1, 90257, Control_c, 0, 67, 21
1, 90261, Note_off_c, 0, 74, 61
1, 90263, Note_off_c, 0, 77, 49
1, 90272, Control_c, 0, 67, 22
1, 90287, Control_c, 0, 67, 24
1, 90302, Control_c, 0, 67, 27
1, 90316, Control_c, 0, 67, 31
1, 90326, Note_on_c, 0, 69, 96
1, 90326, Note_on_c, 0, 77, 97
1, 90331, Control_c, 0, 67, 34
1, 90339, Note_on_c, 0, 65, 76
1, 90346, Control_c, 0, 67, 34
1, 90360, Control_c, 0, 67, 36
1, 90364, Note_off_c, 0, 65, 69
1, 90371, Note_off_c, 0, 69, 60
1, 90374, Note_off_c, 0, 77, 62
1, 90375, Control_c, 0, 67, 37
1, 90390, Control_c, 0, 67, 41
1, 90405, Control_c, 0, 67, 48
1, 90420, Control_c, 0, 67, 53
1, 90434, Control_c, 0, 67, 57
1, 90445, Note_on_c, 0, 67, 98
1, 90447, Note_on_c, 0, 76, 96
1, 90449, Note_on_c, 0, 70, 89
1, 90449, Control_c, 0, 67, 59
1, 90464, Control_c, 0, 67, 60
1, 90480, Note_off_c, 0, 67, 63
1, 90482, Note_off_c, 0, 70, 63
1, 90483, Note_off_c, 0, 53, 64
1, 90488, Note_off_c, 0, 76, 67
1, 90492, Note_off_c, 0, 41, 62
1, 90494, Control_c, 0, 67, 59
1, 90508, Control_c, 0, 67, 59
1, 90538, Control_c, 0, 67, 58
1, 90553, Control_c, 0, 67, 57
1, 90554, Note_on_c, 0, 74, 87
1, 90558, Note_on_c, 0, 65, 83
1, 90561, Note_on_c, 0, 69, 82
1, 90567, Control_c, 0, 67, 57
1, 90579, Note_off_c, 0, 65, 72
1, 90582, Note_off_c, 0, 69, 73
1, 90582, Control_c, 0, 67, 56
1, 90585, Note_off_c, 0, 74, 58
1, 90597, Control_c, 0, 67, 55
1, 90641, Control_c, 0, 67, 56
1, 90656, Control_c, 0, 67, 56
1, 90671, Control_c, 0, 67, 57
1, 90675, Note_on_c, 0, 67, 71
1, 90677, Note_on_c, 0, 64, 76
1, 90679, Note_on_c, 0, 72, 74
1, 90681, Note_on_c, 0, 55, 65
1, 90686, Control_c, 0, 67, 59
1, 90689, Note_on_c, 0, 43, 49
1, 90701, Control_c, 0, 67, 59
1, 90702, Note_off_c, 0, 64, 68
1, 90702, Note_off_c, 0, 72, 70
1, 90707, Note_off_c, 0, 67, 58
1, 90710, Note_off_c, 0, 55, 66
1, 90720, Note_off_c, 0, 43, 52
1, 90731, Control_c, 0, 67, 59
1, 90746, Control_c, 0, 67, 58
1, 90760, Control_c, 0, 67, 59
1, 90775, Control_c, 0, 67, 60
1, 90776, Note_on_c, 0, 62, 79
1, 90778, Note_on_c, 0, 70, 78
1, 90790, Control_c, 0, 67, 61
1, 90811, Note_off_c, 0, 70, 65
1, 90812, Note_off_c, 0, 62, 64
1, 90813, Control_c, 0, 67, 62
1, 90821, Note_on_c, 0, 65, 14
1, 90829, Note_off_c, 0, 65, 39
1, 90842, Control_c, 0, 67, 63
1, 90857, Control_c, 0, 67, 63
1, 90901, Control_c, 0, 67, 61
1, 90908, Note_on_c, 0, 57, 69
1, 90916, Control_c, 0, 67, 62
1, 90917, Note_on_c, 0, 67, 73
1, 90926, Note_on_c, 0, 45, 52
1, 90929, Note_on_c, 0, 61, 48
1, 90931, Control_c, 0, 67, 63
1, 90944, Note_off_c, 0, 67, 67
1, 90945, Control_c, 0, 67, 64
1, 90954, Note_off_c, 0, 61, 48
1, 90960, Control_c, 0, 67, 67
1, 90975, Control_c, 0, 67, 70
1, 90990, Control_c, 0, 67, 71
1, 91005, Control_c, 0, 67, 71
1, 91020, Control_c, 0, 67, 72
1, 91022, Note_on_c, 0, 67, 83
1, 91033, Note_on_c, 0, 58, 64
1, 91035, Control_c, 0, 67, 74
1, 91050, Control_c, 0, 67, 77
1, 91053, Note_off_c, 0, 57, 60
1, 91055, Note_off_c, 0, 58, 64
1, 91064, Control_c, 0, 67, 79
1, 91065, Note_off_c, 0, 67, 59
1, 91079, Control_c, 0, 67, 80
1, 91094, Control_c, 0, 67, 80
1, 91109, Control_c, 0, 67, 81
1, 91124, Control_c, 0, 67, 86
1, 91138, Control_c, 0, 67, 92
1, 91146, Note_on_c, 0, 65, 74
1, 91153, Control_c, 0, 67, 99
1, 91158, Note_on_c, 0, 57, 60
1, 91168, Control_c, 0, 67, 103
1, 91179, Note_off_c, 0, 57, 62
1, 91182, Control_c, 0, 67, 107
1, 91184, Note_off_c, 0, 65, 63
1, 91185, Note_off_c, 0, 45, 59
1, 91197, Control_c, 0, 67, 112
1, 91212, Control_c, 0, 67, 116
1, 91227, Control_c, 0, 67, 119
1, 91242, Control_c, 0, 67, 121
1, 91249, Note_on_c, 0, 57, 67
1, 91253, Note_on_c, 0, 64, 64
1, 91255, Note_on_c, 0, 61, 59
1, 91256, Control_c, 0, 67, 125
1, 91271, Control_c, 0, 67, 127
1, 91274, Note_off_c, 0, 57, 64
1, 91277, Note_off_c, 0, 61, 64
1, 91281, Note_off_c, 0, 64, 67
1, 91373, Note_on_c, 0, 57, 58
1, 91377, Note_on_c, 0, 69, 66
1, 91390, Note_on_c, 0, 65, 50
1, 91390, Control_c, 0, 67, 127
1, 91396, Note_on_c, 0, 62, 38
1, 91434, Control_c, 0, 67, 127
1, 91482, Note_on_c, 0, 50, 63
1, 91484, Note_off_c, 0, 62, 0
1, 91484, Note_on_c, 0, 62, 3
1, 91490, Note_on_c, 0, 38, 52
1, 91512, Note_off_c, 0, 50, 65
1, 91518, Note_off_c, 0, 38, 51
1, 91565, Note_off_c, 0, 57, 51
1, 91604, Note_on_c, 0, 52, 69
1, 91607, Note_off_c, 0, 65, 54
1, 91613, Note_off_c, 0, 62, 40
1, 91634, Note_off_c, 0, 52, 68
1, 91712, Note_on_c, 0, 53, 73
1, 91728, Note_on_c, 0, 41, 54
1, 91740, Note_off_c, 0, 53, 67
1, 91759, Note_off_c, 0, 41, 55
1, 91790, Note_off_c, 0, 69, 34
1, 91842, Note_on_c, 0, 47, 53
1, 91849, Note_on_c, 0, 35, 52
1, 91891, Note_off_c, 0, 47, 0
1, 91891, Note_on_c, 0, 47, 24
1, 91948, Note_on_c, 0, 68, 71
1, 91961, Note_on_c, 0, 65, 55
1, 91964, Note_on_c, 0, 62, 46
1, 91965, Note_off_c, 0, 35, 56
1, 91969, Note_off_c, 0, 47, 44
1, 91978, Note_off_c, 0, 68, 64
1, 91981, Note_off_c, 0, 65, 64
1, 91992, Note_off_c, 0, 62, 51
1, 92068, Note_on_c, 0, 69, 76
1, 92069, Note_on_c, 0, 65, 63
1, 92069, Note_on_c, 0, 62, 64
1, 92093, Note_off_c, 0, 69, 67
1, 92098, Note_off_c, 0, 65, 68
1, 92100, Note_off_c, 0, 62, 64
1, 92164, Note_on_c, 0, 71, 80
1, 92169, Note_on_c, 0, 62, 70
1, 92186, Note_on_c, 0, 65, 43
1, 92199, Note_off_c, 0, 62, 65
1, 92202, Note_off_c, 0, 71, 60
1, 92211, Note_off_c, 0, 65, 54
1, 92298, Note_on_c, 0, 67, 60
1, 92322, Note_on_c, 0, 65, 53
1, 92328, Note_on_c, 0, 63, 45
1, 92354, Control_c, 0, 67, 127
1, 92369, Control_c, 0, 67, 126
1, 92385, Poly_aftertouch_c, 0, 60, 127
1, 92385, Control_c, 0, 67, 126
1, 92395, Note_off_c, 0, 65, 33
1, 92399, Note_off_c, 0, 63, 0
1, 92399, Note_on_c, 0, 63, 3
1, 92400, Control_c, 0, 67, 125
1, 92407, Note_on_c, 0, 48, 67
1, 92415, Note_on_c, 0, 36, 55
1, 92415, Control_c, 0, 67, 124
1, 92430, Control_c, 0, 67, 123
1, 92435, Note_off_c, 0, 48, 66
1, 92441, Note_off_c, 0, 36, 57
1, 92444, Control_c, 0, 67, 122
1, 92459, Control_c, 0, 67, 121
1, 92518, Control_c, 0, 67, 122
1, 92524, Note_on_c, 0, 38, 67
1, 92533, Control_c, 0, 67, 123
1, 92543, Note_on_c, 0, 50, 37
1, 92548, Control_c, 0, 67, 123
1, 92552, Note_off_c, 0, 38, 65
1, 92562, Control_c, 0, 67, 124
1, 92577, Note_off_c, 0, 50, 33
1, 92577, Control_c, 0, 67, 124
1, 92583, Note_off_c, 0, 63, 39
1, 92592, Control_c, 0, 67, 125
1, 92607, Control_c, 0, 67, 126
1, 92622, Control_c, 0, 67, 126
1, 92643, Note_on_c, 0, 39, 51
1, 92643, Note_on_c, 0, 51, 49
1, 92650, Poly_aftertouch_c, 0, 60, 0
1, 92671, Note_off_c, 0, 39, 56
1, 92671, Note_off_c, 0, 51, 36
1, 92725, Control_c, 0, 67, 125
1, 92728, Note_off_c, 0, 67, 43
1, 92755, Control_c, 0, 67, 126
1, 92770, Control_c, 0, 67, 126
1, 92778, Note_on_c, 0, 45, 41
1, 92782, Note_on_c, 0, 33, 46
1, 92785, Control_c, 0, 67, 127
1, 92826, Note_off_c, 0, 45, 0
1, 92826, Note_on_c, 0, 45, 19
1, 92869, Note_on_c, 0, 66, 72
1, 92878, Note_on_c, 0, 60, 52
1, 92879, Note_on_c, 0, 63, 57
1, 92899, Note_off_c, 0, 66, 66
1, 92900, Note_off_c, 0, 60, 58
1, 92901, Note_off_c, 0, 63, 65
1, 92932, Note_off_c, 0, 33, 55
1, 92940, Note_off_c, 0, 45, 40
1, 92980, Note_on_c, 0, 60, 67
1, 92984, Note_on_c, 0, 63, 67
1, 92986, Note_on_c, 0, 67, 73
1, 93011, Note_off_c, 0, 60, 64
1, 93014, Note_off_c, 0, 67, 63
1, 93015, Note_off_c, 0, 63, 66
1, 93098, Note_on_c, 0, 69, 79
1, 93109, Note_on_c, 0, 60, 59
1, 93123, Note_off_c, 0, 69, 69
1, 93128, Note_off_c, 0, 60, 61
1, 93221, Note_on_c, 0, 62, 74
1, 93223, Note_on_c, 0, 58, 73
1, 93318, Note_on_c, 0, 46, 78
1, 93326, Note_on_c, 0, 34, 62
1, 93353, Note_off_c, 0, 46, 63
1, 93357, Note_off_c, 0, 34, 65
1, 93402, Note_off_c, 0, 58, 63
1, 93411, Note_off_c, 0, 62, 61
1, 93445, Note_on_c, 0, 48, 85
1, 93448, Note_on_c, 0, 36, 76
1, 93470, Note_off_c, 0, 48, 69
1, 93474, Note_off_c, 0, 36, 66
1, 93548, Note_on_c, 0, 50, 90
1, 93556, Note_on_c, 0, 38, 76
1, 93567, Note_off_c, 0, 50, 70
1, 93581, Note_off_c, 0, 38, 66
1, 93581, Note_on_c, 0, 39, 42
1, 93590, Note_on_c, 0, 48, 33
1, 93591, Note_off_c, 0, 48, 127
1, 93613, Note_off_c, 0, 39, 34
1, 93667, Note_on_c, 0, 42, 98
1, 93668, Note_on_c, 0, 30, 91
1, 93706, Note_off_c, 0, 30, 63
1, 93716, Note_off_c, 0, 42, 62
1, 93782, Note_on_c, 0, 43, 89
1, 93783, Note_on_c, 0, 62, 91
1, 93783, Note_on_c, 0, 70, 88
1, 93786, Note_on_c, 0, 31, 83
1, 93791, Note_on_c, 0, 67, 81
1, 93819, Note_off_c, 0, 67, 70
1, 93822, Note_off_c, 0, 43, 62
1, 93823, Note_off_c, 0, 31, 63
1, 93823, Note_off_c, 0, 62, 62
1, 93826, Note_off_c, 0, 70, 64
1, 93904, Note_on_c, 0, 45, 84
1, 93906, Note_on_c, 0, 69, 82
1, 93909, Note_on_c, 0, 33, 71
1, 93911, Note_on_c, 0, 60, 77
1, 93929, Note_off_c, 0, 45, 69
1, 93932, Note_on_c, 0, 31, 29
1, 93934, Note_off_c, 0, 60, 69
1, 93938, Note_off_c, 0, 69, 63
1, 93945, Note_off_c, 0, 33, 68
1, 93977, Note_off_c, 0, 31, 29
1, 94019, Note_on_c, 0, 46, 90
1, 94025, Note_on_c, 0, 58, 80
1, 94030, Note_on_c, 0, 34, 64
1, 94033, Note_on_c, 0, 67, 67
1, 94047, Note_off_c, 0, 46, 66
1, 94052, Note_off_c, 0, 58, 65
1, 94052, Note_off_c, 0, 67, 64
1, 94065, Note_off_c, 0, 34, 64
1, 94145, Note_on_c, 0, 47, 80
1, 94148, Note_on_c, 0, 65, 78
1, 94150, Note_on_c, 0, 35, 68
1, 94165, Note_on_c, 0, 57, 48
1, 94171, Note_off_c, 0, 47, 66
1, 94180, Note_off_c, 0, 35, 65
1, 94182, Note_off_c, 0, 65, 62
1, 94192, Note_off_c, 0, 57, 36
1, 94238, Control_c, 0, 67, 127
1, 94253, Control_c, 0, 67, 126
1, 94254, Note_on_c, 0, 48, 81
1, 94257, Note_on_c, 0, 64, 82
1, 94260, Note_on_c, 0, 36, 71
1, 94268, Control_c, 0, 67, 127
1, 94280, Note_on_c, 0, 55, 43
1, 94281, Note_off_c, 0, 48, 67
1, 94282, Control_c, 0, 67, 127
1, 94285, Note_off_c, 0, 64, 62
1, 94288, Note_off_c, 0, 36, 64
1, 94311, Note_off_c, 0, 55, 34
1, 94369, Note_on_c, 0, 50, 86
1, 94371, Note_on_c, 0, 62, 87
1, 94374, Note_on_c, 0, 38, 79
1, 94376, Note_on_c, 0, 53, 81
1, 94399, Note_off_c, 0, 50, 63
1, 94400, Note_off_c, 0, 53, 71
1, 94403, Note_off_c, 0, 38, 62
1, 94422, Note_off_c, 0, 62, 61
1, 94445, Control_c, 0, 67, 126
1, 94460, Control_c, 0, 67, 124
1, 94475, Control_c, 0, 67, 120
1, 94481, Note_on_c, 0, 52, 89
1, 94486, Note_on_c, 0, 40, 83
1, 94489, Note_on_c, 0, 55, 81
1, 94490, Note_on_c, 0, 60, 83
1, 94490, Control_c, 0, 67, 118
1, 94505, Control_c, 0, 67, 117
1, 94513, Note_off_c, 0, 55, 68
1, 94516, Note_off_c, 0, 52, 65
1, 94518, Note_off_c, 0, 40, 65
1, 94520, Note_off_c, 0, 60, 63
1, 94520, Control_c, 0, 67, 117
1, 94534, Control_c, 0, 67, 116
1, 94556, Control_c, 0, 67, 114
1, 94572, Control_c, 0, 67, 111
1, 94587, Control_c, 0, 67, 108
1, 94602, Control_c, 0, 67, 106
1, 94606, Note_on_c, 0, 53, 92
1, 94607, Note_on_c, 0, 57, 81
1, 94614, Note_on_c, 0, 41, 81
1, 94616, Control_c, 0, 67, 106
1, 94617, Note_on_c, 0, 62, 82
1, 94634, Note_off_c, 0, 57, 63
1, 94644, Note_off_c, 0, 53, 64
1, 94647, Note_off_c, 0, 41, 67
1, 94657, Note_off_c, 0, 62, 64
1, 94661, Control_c, 0, 67, 105
1, 94676, Control_c, 0, 67, 104
1, 94690, Control_c, 0, 67, 104
1, 94705, Control_c, 0, 67, 103
1, 94717, Note_on_c, 0, 58, 91
1, 94719, Note_on_c, 0, 64, 81
1, 94725, Note_on_c, 0, 55, 92
1, 94731, Note_on_c, 0, 43, 84
1, 94749, Note_off_c, 0, 58, 68
1, 94758, Note_off_c, 0, 55, 61
1, 94761, Note_off_c, 0, 43, 65
1, 94764, Control_c, 0, 67, 102
1, 94770, Note_off_c, 0, 64, 64
1, 94780, Control_c, 0, 67, 101
1, 94795, Control_c, 0, 67, 101
1, 94810, Control_c, 0, 67, 100
1, 94825, Control_c, 0, 67, 99
1, 94834, Note_on_c, 0, 65, 82
1, 94836, Note_on_c, 0, 60, 85
1, 94836, Note_on_c, 0, 57, 85
1, 94839, Control_c, 0, 67, 97
1, 94847, Note_on_c, 0, 45, 62
1, 94854, Control_c, 0, 67, 94
1, 94858, Note_off_c, 0, 57, 69
1, 94868, Note_off_c, 0, 60, 63
1, 94869, Control_c, 0, 67, 90
1, 94872, Note_off_c, 0, 45, 64
1, 94884, Control_c, 0, 67, 89
1, 94889, Note_off_c, 0, 65, 65
1, 94913, Control_c, 0, 67, 89
1, 94949, Note_on_c, 0, 67, 90
1, 94949, Note_on_c, 0, 64, 85
1, 94954, Note_on_c, 0, 58, 87
1, 94957, Note_on_c, 0, 46, 87
1, 94958, Control_c, 0, 67, 89
1, 94973, Control_c, 0, 67, 88
1, 94979, Note_off_c, 0, 64, 67
1, 94986, Note_off_c, 0, 67, 65
1, 94988, Control_c, 0, 67, 88
1, 94992, Note_off_c, 0, 46, 66
1, 94994, Note_off_c, 0, 58, 59
1, 95002, Control_c, 0, 67, 84
1, 95017, Control_c, 0, 67, 76
1, 95032, Control_c, 0, 67, 58
1, 95047, Control_c, 0, 67, 29
1, 95062, Control_c, 0, 67, 0
1, 95075, Note_on_c, 0, 72, 103
1, 95077, Note_on_c, 0, 65, 104
1, 95080, Note_on_c, 0, 69, 96
1, 95190, Note_on_c, 0, 60, 95
1, 95199, Note_on_c, 0, 48, 78
1, 95218, Note_off_c, 0, 60, 63
1, 95223, Note_off_c, 0, 48, 68
1, 95310, Note_on_c, 0, 62, 93
1, 95314, Note_on_c, 0, 50, 84
1, 95338, Note_off_c, 0, 62, 64
1, 95339, Note_off_c, 0, 50, 66
1, 95428, Note_on_c, 0, 63, 90
1, 95429, Note_on_c, 0, 51, 89
1, 95441, Note_on_c, 0, 61, 70
1, 95445, Note_off_c, 0, 63, 73
1, 95454, Note_off_c, 0, 65, 52
1, 95459, Note_off_c, 0, 61, 43
1, 95462, Note_off_c, 0, 51, 58
1, 95547, Note_off_c, 0, 72, 58
1, 95552, Note_on_c, 0, 53, 99
1, 95557, Note_on_c, 0, 41, 97
1, 95566, Note_off_c, 0, 69, 62
1, 95587, Control_c, 0, 67, 8
1, 95602, Control_c, 0, 67, 14
1, 95617, Control_c, 0, 67, 23
1, 95632, Control_c, 0, 67, 32
1, 95647, Control_c, 0, 67, 42
1, 95661, Control_c, 0, 67, 53
1, 95676, Note_on_c, 0, 65, 66
1, 95676, Note_on_c, 0, 71, 68
1, 95676, Control_c, 0, 67, 65
1, 95679, Note_on_c, 0, 62, 65
1, 95680, Note_off_c, 0, 53, 63
1, 95684, Note_off_c, 0, 41, 63
1, 95691, Control_c, 0, 67, 78
1, 95699, Note_off_c, 0, 62, 63
1, 95703, Note_off_c, 0, 71, 64
1, 95704, Note_off_c, 0, 65, 68
1, 95706, Control_c, 0, 67, 90
1, 95721, Control_c, 0, 67, 97
1, 95736, Control_c, 0, 67, 102
1, 95751, Control_c, 0, 67, 103
1, 95795, Control_c, 0, 67, 104
1, 95798, Note_on_c, 0, 64, 59
1, 95798, Note_on_c, 0, 71, 60
1, 95819, Note_on_c, 0, 67, 28
1, 95820, Note_off_c, 0, 64, 65
1, 95829, Note_off_c, 0, 71, 54
1, 95854, Note_off_c, 0, 67, 31
1, 95869, Control_c, 0, 67, 104
1, 95884, Control_c, 0, 67, 105
1, 95898, Control_c, 0, 67, 108
1, 95913, Control_c, 0, 67, 112
1, 95921, Note_on_c, 0, 65, 41
1, 95928, Control_c, 0, 67, 117
1, 95930, Note_on_c, 0, 71, 33
1, 95943, Control_c, 0, 67, 122
1, 95947, Note_off_c, 0, 65, 54
1, 95958, Control_c, 0, 67, 126
1, 95962, Note_off_c, 0, 71, 33
1, 95972, Control_c, 0, 67, 127
1, 96027, Note_on_c, 0, 64, 65
1, 96038, Note_on_c, 0, 67, 51
1, 96043, Note_on_c, 0, 71, 51
1, 96063, Note_off_c, 0, 64, 66
1, 96068, Note_off_c, 0, 67, 57
1, 96071, Note_off_c, 0, 71, 58
1, 96150, Note_on_c, 0, 68, 55
1, 96150, Note_on_c, 0, 71, 45
1, 96159, Note_on_c, 0, 64, 23
1, 96162, Note_off_c, 0, 64, 47
1, 96170, Note_on_c, 0, 65, 33
1, 96172, Note_off_c, 0, 71, 57
1, 96173, Note_off_c, 0, 68, 61
1, 96198, Note_off_c, 0, 65, 48
1, 96257, Note_on_c, 0, 71, 64
1, 96269, Note_on_c, 0, 55, 56
1, 96269, Note_on_c, 0, 67, 62
1, 96289, Note_off_c, 0, 67, 65
1, 96290, Note_off_c, 0, 71, 61
1, 96291, Note_off_c, 0, 55, 61
1, 96384, Note_on_c, 0, 62, 39
1, 96384, Note_on_c, 0, 71, 59
1, 96404, Note_off_c, 0, 71, 64
1, 96412, Note_off_c, 0, 62, 46
1, 96499, Note_on_c, 0, 71, 62
1, 96511, Note_on_c, 0, 48, 41
1, 96513, Note_on_c, 0, 65, 53
1, 96523, Note_on_c, 0, 36, 42
1, 96524, Note_on_c, 0, 67, 47
1, 96535, Note_off_c, 0, 65, 63
1, 96544, Note_off_c, 0, 71, 58
1, 96548, Note_off_c, 0, 67, 55
1, 96735, Note_on_c, 0, 72, 77
1, 96741, Note_on_c, 0, 67, 60
1, 96743, Note_on_c, 0, 64, 65
1, 96767, Note_off_c, 0, 36, 56
1, 96772, Note_off_c, 0, 64, 67
1, 96776, Note_off_c, 0, 67, 64
1, 96785, Note_off_c, 0, 72, 60
1, 96805, Note_off_c, 0, 48, 55
1, 96854, Note_on_c, 0, 60, 79
1, 96877, Control_c, 0, 67, 124
1, 96878, Note_off_c, 0, 60, 65
1, 96892, Control_c, 0, 67, 115
1, 96907, Control_c, 0, 67, 101
1, 96922, Control_c, 0, 67, 75
1, 96936, Control_c, 0, 67, 41
1, 96951, Control_c, 0, 67, 0
1, 96966, Note_on_c, 0, 74, 92
1, 96968, Note_on_c, 0, 67, 96
1, 96969, Note_on_c, 0, 71, 90
1, 97081, Note_on_c, 0, 62, 96
1, 97089, Note_on_c, 0, 50, 85
1, 97113, Note_off_c, 0, 50, 68
1, 97113, Note_off_c, 0, 62, 60
1, 97204, Note_on_c, 0, 64, 98
1, 97210, Note_on_c, 0, 52, 91
1, 97235, Note_off_c, 0, 52, 68
1, 97238, Note_off_c, 0, 64, 65
1, 97256, Note_off_c, 0, 74, 58
1, 97267, Note_off_c, 0, 67, 54
1, 97271, Note_off_c, 0, 71, 50
1, 97316, Note_on_c, 0, 65, 103
1, 97322, Note_on_c, 0, 53, 93
1, 97345, Note_off_c, 0, 65, 67
1, 97356, Note_off_c, 0, 53, 68
1, 97442, Note_on_c, 0, 55, 97
1, 97449, Note_on_c, 0, 43, 96
1, 97551, Control_c, 0, 67, 13
1, 97565, Control_c, 0, 67, 21
1, 97572, Note_on_c, 0, 73, 74
1, 97572, Note_on_c, 0, 67, 69
1, 97575, Note_on_c, 0, 64, 70
1, 97580, Control_c, 0, 67, 29
1, 97595, Control_c, 0, 67, 37
1, 97599, Note_off_c, 0, 67, 66
1, 97602, Note_off_c, 0, 64, 68
1, 97606, Note_off_c, 0, 73, 59
1, 97610, Control_c, 0, 67, 46
1, 97624, Control_c, 0, 67, 58
1, 97632, Note_off_c, 0, 55, 57
1, 97639, Note_off_c, 0, 43, 60
1, 97639, Control_c, 0, 67, 67
1, 97654, Control_c, 0, 67, 71
1, 97669, Control_c, 0, 67, 73
1, 97686, Note_on_c, 0, 69, 80
1, 97694, Note_on_c, 0, 65, 65
1, 97712, Note_off_c, 0, 65, 68
1, 97718, Note_off_c, 0, 69, 58
1, 97772, Control_c, 0, 67, 72
1, 97810, Note_on_c, 0, 70, 69
1, 97810, Note_on_c, 0, 73, 69
1, 97817, Note_on_c, 0, 67, 65
1, 97831, Control_c, 0, 67, 73
1, 97839, Note_off_c, 0, 70, 65
1, 97840, Note_off_c, 0, 73, 64
1, 97844, Note_off_c, 0, 67, 67
1, 97861, Control_c, 0, 67, 74
1, 97876, Control_c, 0, 67, 75
1, 97891, Control_c, 0, 67, 79
1, 97906, Control_c, 0, 67, 85
1, 97921, Control_c, 0, 67, 93
1, 97922, Note_on_c, 0, 69, 77
1, 97924, Note_on_c, 0, 65, 72
1, 97936, Control_c, 0, 67, 102
1, 97938, Note_on_c, 0, 73, 53
1, 97948, Note_off_c, 0, 69, 64
1, 97949, Note_off_c, 0, 65, 70
1, 97950, Control_c, 0, 67, 107
1, 97957, Note_off_c, 0, 73, 59
1, 97966, Control_c, 0, 67, 110
1, 98030, Note_on_c, 0, 73, 70
1, 98034, Note_on_c, 0, 67, 77
1, 98046, Note_on_c, 0, 70, 64
1, 98064, Note_off_c, 0, 70, 67
1, 98067, Note_off_c, 0, 67, 58
1, 98070, Note_off_c, 0, 73, 62
1, 98153, Note_on_c, 0, 69, 80
1, 98159, Note_on_c, 0, 64, 71
1, 98164, Note_on_c, 0, 57, 69
1, 98165, Note_on_c, 0, 73, 57
1, 98170, Note_on_c, 0, 45, 58
1, 98173, Control_c, 0, 67, 110
1, 98180, Note_off_c, 0, 69, 63
1, 98183, Note_off_c, 0, 64, 65
1, 98187, Note_off_c, 0, 73, 64
1, 98194, Note_off_c, 0, 57, 64
1, 98199, Note_off_c, 0, 45, 65
1, 98218, Control_c, 0, 67, 109
1, 98247, Control_c, 0, 67, 109
1, 98264, Note_on_c, 0, 67, 78
1, 98267, Note_on_c, 0, 73, 71
1, 98300, Note_off_c, 0, 67, 61
1, 98308, Note_off_c, 0, 73, 59
1, 98374, Control_c, 0, 67, 108
1, 98389, Control_c, 0, 67, 106
1, 98401, Note_on_c, 0, 64, 83
1, 98404, Control_c, 0, 67, 105
1, 98406, Note_on_c, 0, 73, 78
1, 98407, Note_on_c, 0, 58, 73
1, 98414, Note_on_c, 0, 46, 65
1, 98419, Control_c, 0, 67, 104
1, 98428, Note_off_c, 0, 64, 63
1, 98434, Control_c, 0, 67, 104
1, 98441, Note_off_c, 0, 73, 54
1, 98546, Note_on_c, 0, 65, 48
1, 98548, Note_on_c, 0, 73, 36
1, 98568, Note_off_c, 0, 65, 58
1, 98579, Note_off_c, 0, 73, 33
1, 98634, Note_on_c, 0, 74, 80
1, 98637, Note_on_c, 0, 70, 78
1, 98639, Note_on_c, 0, 65, 74
1, 98655, Control_c, 0, 67, 103
1, 98660, Note_off_c, 0, 70, 68
1, 98669, Note_off_c, 0, 65, 61
1, 98710, Note_off_c, 0, 74, 61
1, 98719, Note_off_c, 0, 58, 57
1, 98738, Note_off_c, 0, 46, 49
1, 98745, Note_on_c, 0, 62, 74
1, 98772, Note_off_c, 0, 62, 66
1, 98775, Control_c, 0, 67, 103
1, 98790, Control_c, 0, 67, 102
1, 98819, Control_c, 0, 67, 102
1, 98862, Note_on_c, 0, 77, 87
1, 98870, Note_on_c, 0, 74, 77
1, 98896, Note_on_c, 0, 69, 58
1, 98915, Note_off_c, 0, 69, 63
1, 98967, Control_c, 0, 67, 102
1, 98986, Note_on_c, 0, 58, 85
1, 98992, Note_on_c, 0, 46, 73
1, 99012, Note_off_c, 0, 58, 66
1, 99018, Note_off_c, 0, 46, 65
1, 99051, Note_on_c, 0, 70, 56
1, 99078, Control_c, 0, 67, 102
1, 99093, Control_c, 0, 67, 101
1, 99108, Control_c, 0, 67, 101
1, 99109, Note_on_c, 0, 60, 89
1, 99118, Note_on_c, 0, 48, 69
1, 99118, Note_off_c, 0, 74, 56
1, 99122, Control_c, 0, 67, 99
1, 99131, Note_off_c, 0, 60, 66
1, 99137, Note_off_c, 0, 48, 65
1, 99137, Control_c, 0, 67, 98
1, 99152, Control_c, 0, 67, 97
1, 99189, Note_off_c, 0, 77, 56
1, 99197, Control_c, 0, 67, 96
1, 99220, Note_on_c, 0, 62, 92
1, 99224, Note_on_c, 0, 50, 69
1, 99226, Control_c, 0, 67, 96
1, 99241, Control_c, 0, 67, 95
1, 99249, Note_off_c, 0, 62, 63
1, 99261, Note_off_c, 0, 50, 65
1, 99271, Control_c, 0, 67, 94
1, 99286, Control_c, 0, 67, 93
1, 99296, Note_off_c, 0, 70, 34
1, 99301, Control_c, 0, 67, 88
1, 99316, Control_c, 0, 67, 82
1, 99330, Control_c, 0, 67, 74
1, 99341, Note_on_c, 0, 55, 94
1, 99345, Control_c, 0, 67, 64
1, 99346, Note_on_c, 0, 43, 88
1, 99360, Control_c, 0, 67, 61
1, 99375, Control_c, 0, 67, 60
1, 99404, Control_c, 0, 67, 60
1, 99464, Control_c, 0, 67, 60
1, 99468, Note_on_c, 0, 75, 85
1, 99468, Note_on_c, 0, 67, 82
1, 99468, Note_on_c, 0, 70, 65
1, 99468, Note_off_c, 0, 43, 61
1, 99478, Note_off_c, 0, 55, 58
1, 99491, Note_off_c, 0, 67, 68
1, 99498, Note_off_c, 0, 70, 67
1, 99507, Note_off_c, 0, 75, 64
1, 99522, Control_c, 0, 67, 60
1, 99589, Note_on_c, 0, 57, 85
1, 99592, Note_on_c, 0, 74, 86
1, 99593, Note_on_c, 0, 65, 87
1, 99595, Note_on_c, 0, 45, 79
1, 99598, Control_c, 0, 67, 59
1, 99613, Control_c, 0, 67, 59
1, 99614, Note_off_c, 0, 65, 72
1, 99626, Note_off_c, 0, 74, 64
1, 99642, Control_c, 0, 67, 58
1, 99672, Control_c, 0, 67, 59
1, 99701, Control_c, 0, 67, 60
1, 99710, Note_on_c, 0, 65, 89
1, 99712, Note_on_c, 0, 72, 88
1, 99716, Control_c, 0, 67, 61
1, 99731, Control_c, 0, 67, 62
1, 99738, Note_off_c, 0, 65, 65
1, 99745, Control_c, 0, 67, 63
1, 99746, Note_off_c, 0, 72, 67
1, 99760, Control_c, 0, 67, 64
1, 99798, Control_c, 0, 67, 63
1, 99810, Note_off_c, 0, 45, 61
1, 99813, Control_c, 0, 67, 62
1, 99827, Control_c, 0, 67, 62
1, 99837, Note_on_c, 0, 65, 105
1, 99837, Note_on_c, 0, 77, 100
1, 99837, Note_off_c, 0, 57, 59
1, 99838, Note_on_c, 0, 70, 93
1, 99841, Note_on_c, 0, 74, 91
1, 99842, Control_c, 0, 67, 61
1, 99857, Control_c, 0, 67, 60
1, 99953, Note_on_c, 0, 58, 87
1, 99959, Note_on_c, 0, 46, 77
1, 99960, Control_c, 0, 67, 61
1, 99987, Note_off_c, 0, 58, 63
1, 99993, Note_off_c, 0, 46, 67
1, 100034, Control_c, 0, 67, 60
1, 100049, Control_c, 0, 67, 60
1, 100064, Control_c, 0, 67, 59
1, 100079, Control_c, 0, 67, 58
1, 100088, Note_on_c, 0, 60, 77
1, 100089, Note_on_c, 0, 59, 68
1, 100093, Note_on_c, 0, 48, 60
1, 100094, Control_c, 0, 67, 57
1, 100094, Note_on_c, 0, 47, 63
1, 100109, Control_c, 0, 67, 56
1, 100114, Note_off_c, 0, 60, 68
1, 100115, Note_off_c, 0, 48, 64
1, 100116, Note_off_c, 0, 59, 64
1, 100118, Note_off_c, 0, 47, 59
1, 100124, Control_c, 0, 67, 55
1, 100139, Control_c, 0, 67, 55
1, 100141, Note_off_c, 0, 65, 57
1, 100153, Control_c, 0, 67, 56
1, 100168, Control_c, 0, 67, 58
1, 100174, Note_off_c, 0, 77, 54
1, 100183, Control_c, 0, 67, 59
1, 100198, Control_c, 0, 67, 61
1, 100201, Note_on_c, 0, 62, 96
1, 100210, Note_on_c, 0, 50, 81
1, 100213, Control_c, 0, 67, 63
1, 100229, Note_off_c, 0, 70, 49
1, 100231, Note_off_c, 0, 74, 38
1, 100231, Note_off_c, 0, 62, 63
1, 100240, Note_off_c, 0, 50, 64
1, 100242, Control_c, 0, 67, 63
1, 100257, Control_c, 0, 67, 62
1, 100271, Control_c, 0, 67, 60
1, 100286, Control_c, 0, 67, 58
1, 100301, Control_c, 0, 67, 58
1, 100316, Control_c, 0, 67, 58
1, 100322, Note_on_c, 0, 55, 97
1, 100327, Note_on_c, 0, 43, 93
1, 100331, Control_c, 0, 67, 57
1, 100345, Control_c, 0, 67, 56
1, 100360, Control_c, 0, 67, 57
1, 100391, Control_c, 0, 67, 58
1, 100449, Note_on_c, 0, 75, 89
1, 100450, Control_c, 0, 67, 57
1, 100452, Note_on_c, 0, 67, 89
1, 100454, Note_on_c, 0, 70, 74
1, 100464, Note_off_c, 0, 43, 61
1, 100465, Control_c, 0, 67, 57
1, 100473, Note_off_c, 0, 55, 59
1, 100478, Note_off_c, 0, 67, 64
1, 100480, Control_c, 0, 67, 56
1, 100484, Note_off_c, 0, 70, 64
1, 100492, Note_off_c, 0, 75, 64
1, 100494, Control_c, 0, 67, 55
1, 100509, Control_c, 0, 67, 54
1, 100524, Control_c, 0, 67, 52
1, 100547, Control_c, 0, 67, 46
1, 100562, Control_c, 0, 67, 33
1, 100576, Control_c, 0, 67, 21
1, 100582, Note_on_c, 0, 57, 96
1, 100587, Note_on_c, 0, 45, 89
1, 100588, Note_on_c, 0, 74, 89
1, 100590, Note_on_c, 0, 65, 94
1, 100591, Control_c, 0, 67, 14
1, 100606, Control_c, 0, 67, 12
1, 100621, Control_c, 0, 67, 11
1, 100624, Note_off_c, 0, 65, 66
1, 100636, Note_off_c, 0, 74, 66
1, 100636, Control_c, 0, 67, 10
1, 100650, Control_c, 0, 67, 9
1, 100665, Control_c, 0, 67, 0
1, 100704, Note_on_c, 0, 65, 92
1, 100704, Note_on_c, 0, 72, 92
1, 100737, Note_off_c, 0, 65, 66
1, 100746, Note_off_c, 0, 72, 65
1, 100818, Note_off_c, 0, 45, 63
1, 100830, Note_on_c, 0, 77, 99
1, 100831, Note_on_c, 0, 65, 103
1, 100832, Note_on_c, 0, 74, 92
1, 100839, Note_off_c, 0, 57, 60
1, 100848, Note_on_c, 0, 69, 74
1, 100866, Note_on_c, 0, 70, 25
1, 100893, Note_off_c, 0, 70, 33
1, 100899, Note_off_c, 0, 69, 54
1, 100946, Note_on_c, 0, 58, 84
1, 100949, Note_on_c, 0, 46, 85
1, 100972, Note_on_c, 0, 56, 42
1, 100981, Note_off_c, 0, 58, 62
1, 100985, Note_off_c, 0, 46, 64
1, 100989, Note_off_c, 0, 56, 46
1, 101070, Note_on_c, 0, 59, 88
1, 101073, Note_on_c, 0, 47, 89
1, 101090, Note_off_c, 0, 59, 67
1, 101096, Note_off_c, 0, 47, 68
1, 101138, Note_off_c, 0, 65, 58
1, 101165, Note_off_c, 0, 74, 60
1, 101184, Note_on_c, 0, 62, 100
1, 101191, Note_on_c, 0, 50, 91
1, 101207, Note_off_c, 0, 77, 56
1, 101215, Note_off_c, 0, 62, 64
1, 101219, Note_off_c, 0, 50, 63
1, 101316, Note_on_c, 0, 55, 101
1, 101326, Note_on_c, 0, 43, 88
1, 101340, Note_on_c, 0, 45, 62
1, 101372, Note_off_c, 0, 45, 52
1, 101439, Note_on_c, 0, 67, 89
1, 101444, Note_on_c, 0, 75, 71
1, 101460, Note_on_c, 0, 76, 71
1, 101462, Note_off_c, 0, 67, 64
1, 101473, Note_off_c, 0, 75, 52
1, 101474, Note_on_c, 0, 71, 37
1, 101477, Note_off_c, 0, 76, 70
1, 101505, Note_off_c, 0, 71, 35
1, 101558, Note_on_c, 0, 77, 88
1, 101559, Note_on_c, 0, 67, 92
1, 101580, Note_on_c, 0, 71, 58
1, 101590, Note_off_c, 0, 67, 59
1, 101599, Note_off_c, 0, 71, 59
1, 101611, Note_on_c, 0, 69, 14
1, 101612, Note_off_c, 0, 69, 127
1, 101613, Note_off_c, 0, 77, 62
1, 101671, Note_on_c, 0, 79, 100
1, 101673, Note_on_c, 0, 67, 96
1, 101682, Note_on_c, 0, 71, 64
1, 101700, Note_off_c, 0, 71, 64
1, 101702, Note_off_c, 0, 67, 57
1, 101708, Note_off_c, 0, 79, 64
1, 101794, Note_on_c, 0, 74, 97
1, 101797, Note_on_c, 0, 65, 101
1, 101802, Note_on_c, 0, 69, 89
1, 101827, Note_off_c, 0, 43, 60
1, 101829, Note_off_c, 0, 55, 60
1, 101916, Note_on_c, 0, 53, 87
1, 101924, Note_on_c, 0, 41, 79
1, 101945, Note_off_c, 0, 74, 63
1, 101948, Note_off_c, 0, 65, 61
1, 101950, Note_off_c, 0, 53, 63
1, 101954, Note_off_c, 0, 41, 67
1, 101967, Note_off_c, 0, 69, 60
1, 102043, Note_on_c, 0, 55, 87
1, 102050, Note_on_c, 0, 43, 78
1, 102050, Note_on_c, 0, 73, 84
1, 102052, Note_on_c, 0, 67, 82
1, 102055, Note_on_c, 0, 64, 84
1, 102075, Note_off_c, 0, 55, 62
1, 102079, Note_on_c, 0, 74, 58
1, 102083, Note_off_c, 0, 43, 65
1, 102085, Note_on_c, 0, 69, 29
1, 102116, Note_off_c, 0, 74, 44
1, 102122, Note_off_c, 0, 69, 31
1, 102127, Note_off_c, 0, 64, 49
1, 102163, Note_on_c, 0, 57, 89
1, 102171, Note_on_c, 0, 45, 82
1, 102189, Note_off_c, 0, 57, 64
1, 102200, Note_off_c, 0, 45, 67
1, 102257, Note_off_c, 0, 73, 57
1, 102291, Note_on_c, 0, 74, 89
1, 102292, Note_on_c, 0, 65, 87
1, 102295, Note_on_c, 0, 50, 88
1, 102299, Note_on_c, 0, 69, 80
1, 102300, Note_on_c, 0, 38, 81
1, 102305, Note_off_c, 0, 67, 56
1, 102316, Note_off_c, 0, 50, 70
1, 102328, Note_off_c, 0, 38, 63
1, 102392, Note_off_c, 0, 69, 64
1, 102417, Note_off_c, 0, 74, 63
1, 102424, Note_on_c, 0, 41, 90
1, 102425, Note_on_c, 0, 29, 86
1, 102454, Note_off_c, 0, 41, 69
1, 102458, Note_off_c, 0, 29, 67
1, 102482, Note_off_c, 0, 65, 57
1, 102547, Note_on_c, 0, 43, 97
1, 102552, Note_on_c, 0, 31, 90
1, 102580, Note_off_c, 0, 43, 65
1, 102582, Note_off_c, 0, 31, 69
1, 102662, Note_on_c, 0, 45, 96
1, 102669, Note_on_c, 0, 33, 83
1, 102684, Note_off_c, 0, 45, 70
1, 102702, Note_off_c, 0, 33, 69
1, 102783, Note_on_c, 0, 69, 101
1, 102786, Note_on_c, 0, 38, 97
1, 102795, Note_on_c, 0, 26, 93
1, 102808, Control_c, 0, 64, 56
1, 102819, Note_off_c, 0, 26, 70
1, 102823, Control_c, 0, 64, 68
1, 102836, Note_off_c, 0, 38, 61
1, 102836, Note_off_c, 0, 69, 67
1, 102838, Control_c, 0, 64, 73
1, 102852, Control_c, 0, 64, 75
1, 102867, Control_c, 0, 64, 76
1, 102867, Control_c, 0, 67, 8
1, 102882, Control_c, 0, 67, 12
1, 102896, Control_c, 0, 64, 75
1, 102896, Control_c, 0, 67, 17
1, 102902, Note_on_c, 0, 65, 74
1, 102911, Control_c, 0, 64, 73
1, 102911, Control_c, 0, 67, 24
1, 102926, Control_c, 0, 64, 68
1, 102926, Control_c, 0, 67, 32
1, 102928, Note_off_c, 0, 65, 69
1, 102941, Control_c, 0, 64, 63
1, 102941, Control_c, 0, 67, 40
1, 102956, Control_c, 0, 64, 0
1, 102956, Control_c, 0, 67, 46
1, 102970, Control_c, 0, 67, 50
1, 102985, Control_c, 0, 67, 51
1, 102991, Note_on_c, 0, 65, 77
1, 102997, Note_on_c, 0, 64, 65
1, 103015, Control_c, 0, 67, 52
1, 103019, Note_off_c, 0, 65, 66
1, 103029, Note_off_c, 0, 64, 63
1, 103030, Control_c, 0, 67, 55
1, 103045, Control_c, 0, 67, 59
1, 103060, Control_c, 0, 67, 64
1, 103075, Control_c, 0, 67, 69
1, 103089, Control_c, 0, 67, 74
1, 103093, Note_on_c, 0, 62, 64
1, 103104, Control_c, 0, 67, 77
1, 103122, Note_off_c, 0, 62, 63
1, 103149, Control_c, 0, 67, 75
1, 103163, Control_c, 0, 67, 75
1, 103186, Note_on_c, 0, 59, 58
1, 103192, Note_on_c, 0, 68, 72
1, 103193, Control_c, 0, 67, 74
1, 103208, Note_off_c, 0, 59, 64
1, 103233, Note_off_c, 0, 68, 63
1, 103237, Control_c, 0, 67, 75
1, 103252, Control_c, 0, 67, 75
1, 103272, Note_on_c, 0, 56, 63
1, 103283, Note_on_c, 0, 69, 72
1, 103298, Note_off_c, 0, 56, 66
1, 103306, Note_off_c, 0, 69, 72
1, 103311, Control_c, 0, 67, 75
1, 103378, Note_on_c, 0, 56, 62
1, 103382, Note_on_c, 0, 54, 56
1, 103400, Note_on_c, 0, 71, 48
1, 103407, Note_on_c, 0, 64, 48
1, 103418, Note_off_c, 0, 56, 61
1, 103424, Note_off_c, 0, 71, 52
1, 103430, Note_off_c, 0, 64, 56
1, 103430, Control_c, 0, 67, 75
1, 103442, Note_off_c, 0, 54, 50
1, 103477, Note_on_c, 0, 52, 57
1, 103507, Note_on_c, 0, 74, 71
1, 103507, Note_off_c, 0, 52, 67
1, 103531, Note_off_c, 0, 74, 67
1, 103541, Control_c, 0, 67, 75
1, 103556, Control_c, 0, 67, 74
1, 103572, Control_c, 0, 67, 74
1, 103586, Note_on_c, 0, 58, 67
1, 103586, Control_c, 0, 67, 73
1, 103601, Control_c, 0, 67, 73
1, 103618, Note_off_c, 0, 58, 63
1, 103638, Note_on_c, 0, 70, 54
1, 103659, Note_off_c, 0, 70, 60
1, 103675, Control_c, 0, 67, 72
1, 103688, Note_on_c, 0, 60, 63
1, 103722, Note_off_c, 0, 60, 61
1, 103733, Note_on_c, 0, 70, 67
1, 103749, Control_c, 0, 67, 72
1, 103760, Note_on_c, 0, 69, 62
1, 103764, Control_c, 0, 67, 71
1, 103767, Note_on_c, 0, 62, 69
1, 103769, Note_off_c, 0, 70, 61
1, 103782, Note_off_c, 0, 69, 67
1, 103798, Note_off_c, 0, 62, 64
1, 103846, Note_on_c, 0, 67, 71
1, 103857, Note_on_c, 0, 55, 64
1, 103874, Note_off_c, 0, 67, 66
1, 103898, Control_c, 0, 67, 71
1, 103905, Note_off_c, 0, 55, 61
1, 103912, Control_c, 0, 67, 70
1, 103927, Control_c, 0, 67, 68
1, 103942, Control_c, 0, 67, 67
1, 103956, Note_on_c, 0, 64, 69
1, 103961, Note_on_c, 0, 73, 67
1, 103978, Note_off_c, 0, 73, 65
1, 103984, Note_off_c, 0, 64, 66
1, 103986, Control_c, 0, 67, 67
1, 104016, Control_c, 0, 67, 68
1, 104031, Control_c, 0, 67, 67
1, 104035, Note_on_c, 0, 61, 72
1, 104044, Note_on_c, 0, 74, 70
1, 104060, Control_c, 0, 67, 67
1, 104071, Note_off_c, 0, 74, 63
1, 104076, Note_off_c, 0, 61, 60
1, 104090, Control_c, 0, 67, 66
1, 104136, Note_on_c, 0, 59, 57
1, 104139, Note_on_c, 0, 76, 76
1, 104150, Note_on_c, 0, 61, 43
1, 104168, Note_off_c, 0, 76, 62
1, 104179, Control_c, 0, 67, 67
1, 104201, Note_off_c, 0, 61, 61
1, 104221, Note_off_c, 0, 59, 60
1, 104234, Note_on_c, 0, 69, 73
1, 104236, Note_on_c, 0, 57, 55
1, 104259, Note_off_c, 0, 57, 62
1, 104261, Note_off_c, 0, 69, 68
1, 104267, Control_c, 0, 67, 66
1, 104290, Control_c, 0, 67, 66
1, 104305, Control_c, 0, 67, 65
1, 104319, Control_c, 0, 67, 64
1, 104334, Control_c, 0, 67, 63
1, 104336, Note_on_c, 0, 81, 75
1, 104342, Note_on_c, 0, 65, 74
1, 104349, Control_c, 0, 67, 62
1, 104365, Control_c, 0, 67, 63
1, 104372, Note_off_c, 0, 81, 59
1, 104374, Note_off_c, 0, 65, 62
1, 104380, Control_c, 0, 67, 63
1, 104440, Note_on_c, 0, 67, 67
1, 104443, Note_on_c, 0, 74, 66
1, 104470, Note_off_c, 0, 67, 65
1, 104470, Note_off_c, 0, 74, 67
1, 104513, Control_c, 0, 67, 63
1, 104517, Note_on_c, 0, 69, 68
1, 104532, Note_on_c, 0, 73, 70
1, 104557, Note_off_c, 0, 73, 67
1, 104557, Control_c, 0, 67, 62
1, 104562, Note_off_c, 0, 69, 52
1, 104604, Note_on_c, 0, 61, 62
1, 104634, Note_on_c, 0, 79, 60
1, 104642, Note_off_c, 0, 61, 61
1, 104655, Note_off_c, 0, 79, 62
1, 104661, Control_c, 0, 67, 62
1, 104676, Control_c, 0, 67, 61
1, 104690, Control_c, 0, 67, 60
1, 104705, Control_c, 0, 67, 57
1, 104710, Note_on_c, 0, 64, 64
1, 104720, Note_on_c, 0, 73, 70
1, 104720, Control_c, 0, 67, 53
1, 104738, Note_off_c, 0, 64, 67
1, 104745, Note_off_c, 0, 73, 67
1, 104750, Control_c, 0, 67, 54
1, 104765, Control_c, 0, 67, 54
1, 104780, Control_c, 0, 67, 55
1, 104806, Note_on_c, 0, 57, 65
1, 104810, Control_c, 0, 67, 55
1, 104821, Note_on_c, 0, 79, 64
1, 104838, Note_off_c, 0, 79, 65
1, 104840, Note_off_c, 0, 57, 59
1, 104898, Control_c, 0, 67, 56
1, 104912, Note_on_c, 0, 78, 70
1, 104913, Note_on_c, 0, 62, 66
1, 104913, Control_c, 0, 67, 56
1, 104941, Note_off_c, 0, 62, 64
1, 104941, Note_off_c, 0, 78, 64
1, 104972, Control_c, 0, 67, 57
1, 104987, Control_c, 0, 67, 56
1, 104998, Note_on_c, 0, 60, 61
1, 104998, Note_on_c, 0, 74, 66
1, 105016, Control_c, 0, 67, 56
1, 105023, Note_off_c, 0, 74, 72
1, 105027, Note_off_c, 0, 60, 65
1, 105039, Control_c, 0, 67, 55
1, 105069, Control_c, 0, 67, 55
1, 105084, Control_c, 0, 67, 54
1, 105099, Control_c, 0, 67, 53
1, 105108, Note_on_c, 0, 59, 65
1, 105112, Note_on_c, 0, 77, 76
1, 105114, Control_c, 0, 67, 53
1, 105138, Note_off_c, 0, 59, 66
1, 105142, Note_off_c, 0, 77, 60
1, 105158, Control_c, 0, 67, 52
1, 105211, Note_on_c, 0, 62, 57
1, 105218, Note_on_c, 0, 69, 62
1, 105242, Note_off_c, 0, 62, 64
1, 105242, Note_off_c, 0, 69, 63
1, 105292, Control_c, 0, 67, 52
1, 105304, Note_on_c, 0, 64, 62
1, 105306, Note_on_c, 0, 68, 70
1, 105335, Note_off_c, 0, 64, 65
1, 105337, Note_off_c, 0, 68, 64
1, 105337, Control_c, 0, 67, 52
1, 105392, Note_on_c, 0, 62, 63
1, 105403, Note_on_c, 0, 76, 66
1, 105411, Control_c, 0, 67, 52
1, 105414, Note_off_c, 0, 62, 64
1, 105426, Control_c, 0, 67, 51
1, 105427, Note_off_c, 0, 76, 65
1, 105455, Control_c, 0, 67, 51
1, 105470, Control_c, 0, 67, 50
1, 105484, Control_c, 0, 67, 48
1, 105492, Note_on_c, 0, 67, 73
1, 105495, Note_on_c, 0, 61, 70
1, 105499, Control_c, 0, 67, 47
1, 105514, Control_c, 0, 67, 48
1, 105521, Note_off_c, 0, 67, 63
1, 105529, Note_off_c, 0, 61, 59
1, 105544, Control_c, 0, 67, 48
1, 105558, Control_c, 0, 67, 49
1, 105579, Note_on_c, 0, 58, 62
1, 105585, Note_on_c, 0, 74, 69
1, 105613, Note_off_c, 0, 74, 64
1, 105615, Note_off_c, 0, 58, 62
1, 105632, Control_c, 0, 67, 48
1, 105680, Note_on_c, 0, 57, 50
1, 105680, Note_on_c, 0, 73, 76
1, 105707, Control_c, 0, 67, 49
1, 105710, Note_off_c, 0, 73, 60
1, 105722, Note_off_c, 0, 57, 58
1, 105722, Control_c, 0, 67, 49
1, 105737, Control_c, 0, 67, 50
1, 105752, Control_c, 0, 67, 51
1, 105765, Note_on_c, 0, 69, 75
1, 105781, Control_c, 0, 67, 51
1, 105801, Note_off_c, 0, 69, 65
1, 105803, Control_c, 0, 67, 52
1, 105817, Control_c, 0, 67, 51
1, 105832, Control_c, 0, 67, 51
1, 105847, Control_c, 0, 67, 50
1, 105862, Control_c, 0, 67, 49
1, 105872, Note_on_c, 0, 57, 86
1, 105907, Note_off_c, 0, 57, 61
1, 105961, Note_on_c, 0, 53, 76
1, 105982, Control_c, 0, 67, 49
1, 105997, Note_off_c, 0, 53, 65
1, 106011, Control_c, 0, 67, 48
1, 106026, Control_c, 0, 67, 46
1, 106041, Control_c, 0, 67, 43
1, 106049, Note_on_c, 0, 53, 75
1, 106056, Note_on_c, 0, 52, 78
1, 106056, Control_c, 0, 67, 38
1, 106071, Control_c, 0, 67, 32
1, 106099, Note_off_c, 0, 53, 65
1, 106100, Control_c, 0, 67, 33
1, 106115, Control_c, 0, 64, 51
1, 106115, Control_c, 0, 67, 34
1, 106130, Control_c, 0, 64, 63
1, 106130, Control_c, 0, 67, 35
1, 106145, Note_off_c, 0, 52, 63
1, 106145, Control_c, 0, 64, 64
1, 106145, Control_c, 0, 67, 35
1, 106148, Note_on_c, 0, 50, 78
1, 106172, Note_off_c, 0, 50, 67
1, 106175, Control_c, 0, 64, 63
1, 106175, Control_c, 0, 67, 35
1, 106189, Control_c, 0, 64, 62
1, 106204, Control_c, 0, 64, 54
1, 106204, Control_c, 0, 67, 34
1, 106219, Control_c, 0, 64, 0
1, 106246, Note_on_c, 0, 56, 84
1, 106249, Control_c, 0, 67, 35
1, 106255, Note_on_c, 0, 77, 83
1, 106263, Control_c, 0, 67, 35
1, 106278, Control_c, 0, 67, 36
1, 106299, Note_off_c, 0, 56, 60
1, 106300, Note_off_c, 0, 77, 61
1, 106337, Control_c, 0, 67, 35
1, 106351, Note_on_c, 0, 59, 70
1, 106351, Note_on_c, 0, 74, 76
1, 106352, Control_c, 0, 67, 34
1, 106367, Control_c, 0, 67, 34
1, 106372, Note_off_c, 0, 74, 72
1, 106381, Control_c, 0, 67, 33
1, 106396, Control_c, 0, 67, 33
1, 106398, Note_off_c, 0, 59, 59
1, 106411, Control_c, 0, 67, 32
1, 106426, Control_c, 0, 67, 31
1, 106434, Note_on_c, 0, 62, 77
1, 106438, Note_on_c, 0, 74, 71
1, 106440, Control_c, 0, 67, 27
1, 106443, Note_on_c, 0, 72, 83
1, 106455, Control_c, 0, 67, 22
1, 106459, Note_off_c, 0, 74, 72
1, 106470, Control_c, 0, 67, 18
1, 106473, Note_off_c, 0, 62, 64
1, 106485, Control_c, 0, 67, 16
1, 106488, Note_off_c, 0, 72, 63
1, 106500, Control_c, 0, 67, 15
1, 106530, Control_c, 0, 67, 14
1, 106548, Note_on_c, 0, 71, 71
1, 106552, Control_c, 0, 67, 13
1, 106567, Control_c, 0, 67, 13
1, 106572, Note_off_c, 0, 71, 67
1, 106601, Note_on_c, 0, 65, 2
1, 106638, Note_on_c, 0, 67, 63
1, 106638, Note_on_c, 0, 75, 85
1, 106640, Note_off_c, 0, 65, 26
1, 106682, Note_off_c, 0, 75, 64
1, 106685, Note_off_c, 0, 67, 62
1, 106726, Note_on_c, 0, 77, 89
1, 106729, Note_on_c, 0, 63, 79
1, 106765, Note_off_c, 0, 77, 62
1, 106775, Control_c, 0, 67, 12
1, 106779, Note_off_c, 0, 63, 63
1, 106790, Control_c, 0, 67, 11
1, 106805, Control_c, 0, 67, 10
1, 106813, Note_on_c, 0, 63, 67
1, 106819, Control_c, 0, 67, 0
1, 106823, Note_on_c, 0, 79, 84
1, 106834, Note_on_c, 0, 62, 69
1, 106864, Control_c, 0, 64, 54
1, 106869, Note_off_c, 0, 79, 62
1, 106879, Control_c, 0, 64, 60
1, 106884, Note_off_c, 0, 63, 65
1, 106893, Control_c, 0, 64, 60
1, 106908, Control_c, 0, 64, 59
1, 106909, Note_off_c, 0, 62, 36
1, 106912, Note_on_c, 0, 60, 77
1, 106913, Note_on_c, 0, 72, 84
1, 106923, Control_c, 0, 64, 58
1, 106938, Control_c, 0, 64, 57
1, 106942, Note_off_c, 0, 60, 65
1, 106950, Note_off_c, 0, 72, 64
1, 106953, Control_c, 0, 64, 53
1, 106968, Control_c, 0, 64, 40
1, 106983, Control_c, 0, 64, 0
1, 107004, Note_on_c, 0, 84, 92
1, 107010, Note_on_c, 0, 66, 89
1, 107052, Note_off_c, 0, 84, 66
1, 107077, Note_off_c, 0, 66, 54
1, 107099, Note_on_c, 0, 81, 90
1, 107112, Note_on_c, 0, 69, 80
1, 107137, Note_off_c, 0, 81, 62
1, 107165, Note_off_c, 0, 69, 62
1, 107184, Note_on_c, 0, 81, 71
1, 107190, Note_on_c, 0, 79, 83
1, 107199, Note_on_c, 0, 72, 81
1, 107206, Note_off_c, 0, 81, 67
1, 107235, Control_c, 0, 64, 46
1, 107237, Note_off_c, 0, 79, 65
1, 107250, Control_c, 0, 64, 59
1, 107254, Note_off_c, 0, 72, 64
1, 107264, Control_c, 0, 64, 60
1, 107295, Note_on_c, 0, 75, 86
1, 107296, Note_on_c, 0, 78, 94
1, 107302, Control_c, 0, 64, 60
1, 107317, Control_c, 0, 64, 59
1, 107332, Control_c, 0, 64, 55
1, 107337, Note_off_c, 0, 75, 63
1, 107340, Note_off_c, 0, 78, 65
1, 107346, Control_c, 0, 64, 34
1, 107361, Control_c, 0, 64, 0
1, 107385, Note_on_c, 0, 82, 98
1, 107424, Note_off_c, 0, 82, 68
1, 107478, Note_on_c, 0, 86, 91
1, 107492, Note_on_c, 0, 74, 90
1, 107522, Note_off_c, 0, 86, 66
1, 107531, Note_off_c, 0, 74, 65
1, 107574, Note_on_c, 0, 78, 99
1, 107576, Note_on_c, 0, 73, 86
1, 107619, Note_off_c, 0, 78, 63
1, 107630, Note_off_c, 0, 73, 64
1, 107643, Control_c, 0, 67, 8
1, 107658, Control_c, 0, 67, 12
1, 107661, Note_on_c, 0, 81, 99
1, 107673, Control_c, 0, 67, 18
1, 107677, Note_on_c, 0, 72, 77
1, 107687, Control_c, 0, 67, 22
1, 107702, Note_off_c, 0, 81, 62
1, 107702, Control_c, 0, 67, 26
1, 107717, Control_c, 0, 67, 27
1, 107721, Note_off_c, 0, 72, 62
1, 107747, Control_c, 0, 67, 26
1, 107757, Note_on_c, 0, 71, 80
1, 107757, Note_on_c, 0, 79, 100
1, 107761, Control_c, 0, 67, 26
1, 107776, Control_c, 0, 67, 25
1, 107791, Control_c, 0, 67, 24
1, 107797, Note_off_c, 0, 79, 64
1, 107806, Note_off_c, 0, 71, 59
1, 107806, Control_c, 0, 67, 24
1, 107821, Control_c, 0, 67, 23
1, 107835, Control_c, 0, 67, 22
1, 107850, Control_c, 0, 67, 22
1, 107855, Note_on_c, 0, 70, 80
1, 107858, Note_on_c, 0, 82, 87
1, 107865, Control_c, 0, 67, 21
1, 107880, Control_c, 0, 67, 20
1, 107895, Control_c, 0, 67, 18
1, 107901, Note_off_c, 0, 70, 60
1, 107910, Control_c, 0, 67, 17
1, 107920, Note_off_c, 0, 82, 61
1, 107925, Control_c, 0, 67, 13
1, 107940, Control_c, 0, 67, 9
1, 107952, Note_on_c, 0, 76, 81
1, 107954, Note_on_c, 0, 69, 66
1, 107954, Control_c, 0, 67, 0
1, 107988, Note_off_c, 0, 76, 67
1, 107991, Note_off_c, 0, 69, 62
1, 108056, Note_on_c, 0, 77, 78
1, 108057, Note_on_c, 0, 68, 66
1, 108092, Note_off_c, 0, 77, 56
1, 108108, Note_off_c, 0, 68, 58
1, 108151, Note_on_c, 0, 67, 66
1, 108154, Note_on_c, 0, 76, 77
1, 108193, Note_off_c, 0, 76, 65
1, 108196, Note_off_c, 0, 67, 61
1, 108245, Note_on_c, 0, 79, 73
1, 108253, Note_on_c, 0, 66, 55
1, 108272, Note_off_c, 0, 79, 64
1, 108297, Note_off_c, 0, 66, 61
1, 108350, Note_on_c, 0, 71, 70
1, 108351, Note_on_c, 0, 65, 55
1, 108377, Note_off_c, 0, 71, 66
1, 108378, Control_c, 0, 67, 9
1, 108381, Note_off_c, 0, 65, 57
1, 108393, Control_c, 0, 67, 13
1, 108408, Control_c, 0, 67, 22
1, 108423, Control_c, 0, 67, 32
1, 108433, Note_on_c, 0, 64, 59
1, 108437, Control_c, 0, 67, 42
1, 108443, Note_on_c, 0, 72, 65
1, 108452, Control_c, 0, 67, 48
1, 108467, Control_c, 0, 67, 51
1, 108473, Note_off_c, 0, 64, 61
1, 108473, Note_off_c, 0, 72, 65
1, 108497, Control_c, 0, 67, 50
1, 108511, Control_c, 0, 67, 49
1, 108536, Note_on_c, 0, 71, 65
1, 108536, Note_on_c, 0, 63, 53
1, 108563, Note_off_c, 0, 71, 67
1, 108601, Note_off_c, 0, 63, 54
1, 108628, Note_on_c, 0, 62, 63
1, 108629, Note_on_c, 0, 77, 64
1, 108630, Control_c, 0, 67, 50
1, 108659, Note_off_c, 0, 77, 63
1, 108659, Control_c, 0, 67, 50
1, 108664, Note_off_c, 0, 62, 60
1, 108703, Control_c, 0, 67, 51
1, 108725, Note_on_c, 0, 71, 64
1, 108729, Note_on_c, 0, 61, 56
1, 108745, Note_off_c, 0, 71, 63
1, 108748, Control_c, 0, 67, 51
1, 108755, Note_off_c, 0, 61, 64
1, 108785, Control_c, 0, 67, 53
1, 108800, Control_c, 0, 67, 54
1, 108813, Note_on_c, 0, 60, 53
1, 108815, Control_c, 0, 67, 61
1, 108823, Note_on_c, 0, 72, 64
1, 108830, Control_c, 0, 67, 70
1, 108834, Note_off_c, 0, 60, 59
1, 108844, Control_c, 0, 67, 77
1, 108846, Note_off_c, 0, 72, 66
1, 108859, Control_c, 0, 67, 80
1, 108889, Control_c, 0, 67, 79
1, 108904, Control_c, 0, 67, 77
1, 108916, Note_on_c, 0, 70, 71
1, 108918, Control_c, 0, 67, 76
1, 108940, Note_off_c, 0, 70, 69
1, 108948, Control_c, 0, 67, 77
1, 108963, Control_c, 0, 67, 77
1, 108992, Control_c, 0, 67, 78
1, 109008, Note_on_c, 0, 67, 67
1, 109034, Note_off_c, 0, 67, 68
1, 109090, Note_on_c, 0, 58, 62
1, 109092, Note_on_c, 0, 65, 75
1, 109093, Note_on_c, 0, 67, 66
1, 109096, Control_c, 0, 67, 79
1, 109111, Control_c, 0, 67, 79
1, 109115, Note_off_c, 0, 67, 66
1, 109122, Note_off_c, 0, 58, 66
1, 109126, Control_c, 0, 67, 80
1, 109126, Note_off_c, 0, 65, 59
1, 109141, Control_c, 0, 67, 80
1, 109171, Control_c, 0, 67, 82
1, 109181, Note_on_c, 0, 55, 59
1, 109186, Control_c, 0, 67, 85
1, 109188, Note_on_c, 0, 64, 64
1, 109201, Control_c, 0, 67, 88
1, 109215, Control_c, 0, 67, 88
1, 109218, Note_off_c, 0, 64, 65
1, 109225, Note_off_c, 0, 55, 59
1, 109245, Control_c, 0, 67, 88
1, 109260, Control_c, 0, 67, 87
1, 109282, Note_on_c, 0, 53, 55
1, 109285, Note_on_c, 0, 72, 67
1, 109314, Note_off_c, 0, 72, 67
1, 109327, Note_off_c, 0, 53, 64
1, 109359, Note_on_c, 0, 52, 52
1, 109364, Control_c, 0, 67, 87
1, 109381, Note_on_c, 0, 69, 60
1, 109400, Note_off_c, 0, 69, 64
1, 109406, Note_off_c, 0, 52, 57
1, 109456, Note_on_c, 0, 69, 84
1, 109465, Note_on_c, 0, 60, 62
1, 109467, Control_c, 0, 67, 88
1, 109471, Note_on_c, 0, 67, 68
1, 109478, Note_off_c, 0, 69, 70
1, 109482, Control_c, 0, 67, 88
1, 109497, Control_c, 0, 67, 89
1, 109499, Note_off_c, 0, 60, 62
1, 109503, Note_off_c, 0, 67, 60
1, 109512, Control_c, 0, 67, 90
1, 109534, Control_c, 0, 67, 94
1, 109548, Control_c, 0, 67, 98
1, 109562, Note_on_c, 0, 65, 68
1, 109563, Control_c, 0, 67, 100
1, 109564, Note_on_c, 0, 57, 60
1, 109592, Note_off_c, 0, 65, 66
1, 109593, Control_c, 0, 67, 99
1, 109595, Note_off_c, 0, 57, 64
1, 109607, Control_c, 0, 67, 98
1, 109622, Control_c, 0, 67, 98
1, 109637, Control_c, 0, 67, 97
1, 109652, Control_c, 0, 67, 96
1, 109660, Note_on_c, 0, 55, 60
1, 109663, Note_on_c, 0, 72, 66
1, 109692, Note_off_c, 0, 72, 63
1, 109708, Note_off_c, 0, 55, 61
1, 109726, Control_c, 0, 67, 97
1, 109740, Control_c, 0, 67, 97
1, 109743, Note_on_c, 0, 53, 54
1, 109755, Note_on_c, 0, 69, 54
1, 109773, Note_off_c, 0, 53, 66
1, 109777, Note_off_c, 0, 69, 59
1, 109830, Note_on_c, 0, 69, 88
1, 109841, Note_on_c, 0, 60, 69
1, 109844, Note_on_c, 0, 67, 75
1, 109850, Note_off_c, 0, 69, 73
1, 109874, Note_off_c, 0, 60, 59
1, 109874, Note_off_c, 0, 67, 60
1, 109889, Control_c, 0, 67, 98
1, 109904, Control_c, 0, 67, 99
1, 109919, Control_c, 0, 67, 99
1, 109933, Control_c, 0, 67, 100
1, 109935, Note_on_c, 0, 57, 66
1, 109939, Note_on_c, 0, 66, 67
1, 109949, Control_c, 0, 67, 100
1, 109964, Control_c, 0, 67, 101
1, 109969, Note_off_c, 0, 66, 68
1, 109973, Note_off_c, 0, 57, 58
1, 109993, Control_c, 0, 67, 100
1, 110008, Control_c, 0, 67, 100
1, 110023, Control_c, 0, 67, 99
1, 110037, Note_on_c, 0, 74, 62
1, 110038, Note_on_c, 0, 55, 58
1, 110038, Control_c, 0, 67, 98
1, 110069, Note_off_c, 0, 55, 66
1, 110074, Note_off_c, 0, 74, 54
1, 110091, Note_on_c, 0, 54, 50
1, 110119, Note_off_c, 0, 54, 61
1, 110133, Note_on_c, 0, 70, 46
1, 110157, Note_off_c, 0, 70, 53
1, 110208, Note_on_c, 0, 62, 63
1, 110209, Note_on_c, 0, 70, 84
1, 110226, Note_on_c, 0, 69, 62
1, 110234, Note_off_c, 0, 70, 63
1, 110241, Note_off_c, 0, 62, 62
1, 110302, Note_on_c, 0, 58, 67
1, 110311, Note_on_c, 0, 67, 65
1, 110312, Note_off_c, 0, 69, 65
1, 110338, Note_off_c, 0, 58, 65
1, 110339, Note_off_c, 0, 67, 66
1, 110356, Control_c, 0, 67, 97
1, 110370, Control_c, 0, 67, 97
1, 110385, Control_c, 0, 67, 96
1, 110400, Control_c, 0, 67, 95
1, 110402, Note_on_c, 0, 74, 78
1, 110406, Note_on_c, 0, 57, 64
1, 110415, Control_c, 0, 67, 94
1, 110429, Control_c, 0, 67, 94
1, 110447, Note_off_c, 0, 57, 58
1, 110450, Note_off_c, 0, 74, 62
1, 110476, Note_on_c, 0, 55, 64
1, 110493, Note_on_c, 0, 71, 78
1, 110503, Control_c, 0, 67, 94
1, 110515, Note_off_c, 0, 71, 67
1, 110518, Note_off_c, 0, 55, 62
1, 110580, Note_on_c, 0, 71, 88
1, 110590, Note_on_c, 0, 69, 88
1, 110591, Note_on_c, 0, 62, 78
1, 110599, Note_off_c, 0, 71, 68
1, 110607, Control_c, 0, 67, 95
1, 110632, Note_off_c, 0, 69, 65
1, 110638, Note_off_c, 0, 62, 55
1, 110679, Note_on_c, 0, 68, 83
1, 110685, Note_on_c, 0, 59, 69
1, 110711, Control_c, 0, 67, 94
1, 110724, Note_off_c, 0, 68, 62
1, 110727, Note_off_c, 0, 59, 59
1, 110741, Control_c, 0, 67, 94
1, 110757, Control_c, 0, 67, 93
1, 110771, Control_c, 0, 67, 93
1, 110778, Note_on_c, 0, 76, 85
1, 110789, Note_on_c, 0, 57, 65
1, 110819, Note_off_c, 0, 57, 64
1, 110837, Note_on_c, 0, 56, 56
1, 110839, Note_off_c, 0, 76, 58
1, 110863, Note_on_c, 0, 73, 81
1, 110882, Note_off_c, 0, 56, 62
1, 110888, Note_off_c, 0, 73, 65
1, 110953, Note_on_c, 0, 73, 93
1, 110956, Note_on_c, 0, 64, 71
1, 110964, Note_on_c, 0, 70, 87
1, 110986, Note_off_c, 0, 73, 66
1, 110993, Control_c, 0, 67, 93
1, 111007, Note_off_c, 0, 64, 62
1, 111038, Note_off_c, 0, 70, 56
1, 111058, Note_on_c, 0, 61, 77
1, 111058, Note_on_c, 0, 69, 83
1, 111076, Control_c, 0, 67, 93
1, 111090, Control_c, 0, 67, 92
1, 111102, Note_off_c, 0, 69, 65
1, 111105, Control_c, 0, 67, 91
1, 111115, Note_off_c, 0, 61, 63
1, 111120, Control_c, 0, 67, 90
1, 111135, Control_c, 0, 67, 88
1, 111150, Control_c, 0, 67, 87
1, 111153, Note_on_c, 0, 79, 100
1, 111160, Note_on_c, 0, 58, 72
1, 111165, Control_c, 0, 67, 86
1, 111194, Control_c, 0, 67, 87
1, 111200, Note_off_c, 0, 79, 64
1, 111231, Note_off_c, 0, 58, 64
1, 111245, Note_on_c, 0, 57, 66
1, 111245, Note_on_c, 0, 76, 88
1, 111266, Note_on_c, 0, 74, 53
1, 111267, Note_off_c, 0, 74, 127
1, 111268, Control_c, 0, 67, 86
1, 111273, Note_off_c, 0, 57, 67
1, 111278, Note_off_c, 0, 76, 65
1, 111312, Control_c, 0, 67, 86
1, 111327, Control_c, 0, 67, 85
1, 111333, Note_on_c, 0, 76, 87
1, 111338, Note_on_c, 0, 74, 93
1, 111342, Control_c, 0, 67, 85
1, 111343, Note_on_c, 0, 67, 84
1, 111356, Note_off_c, 0, 76, 68
1, 111357, Control_c, 0, 67, 84
1, 111372, Control_c, 0, 67, 82
1, 111386, Note_off_c, 0, 74, 67
1, 111386, Control_c, 0, 67, 79
1, 111401, Control_c, 0, 67, 77
1, 111416, Note_off_c, 0, 67, 55
1, 111416, Control_c, 0, 67, 75
1, 111425, Note_on_c, 0, 64, 73
1, 111430, Note_on_c, 0, 73, 87
1, 111430, Control_c, 0, 67, 73
1, 111437, Poly_aftertouch_c, 0, 61, 0
1, 111445, Control_c, 0, 67, 71
1, 111460, Control_c, 0, 67, 67
1, 111475, Control_c, 0, 67, 61
1, 111484, Note_off_c, 0, 73, 61
1, 111490, Control_c, 0, 67, 51
1, 111491, Note_off_c, 0, 64, 63
1, 111505, Control_c, 0, 67, 35
1, 111520, Control_c, 0, 67, 23
1, 111523, Note_on_c, 0, 82, 98
1, 111524, Note_on_c, 0, 62, 74
1, 111535, Control_c, 0, 67, 17
1, 111550, Control_c, 0, 67, 16
1, 111556, Note_off_c, 0, 82, 63
1, 111583, Note_off_c, 0, 62, 60
1, 111601, Note_on_c, 0, 61, 65
1, 111609, Control_c, 0, 67, 16
1, 111617, Note_on_c, 0, 79, 88
1, 111639, Control_c, 0, 67, 15
1, 111640, Note_off_c, 0, 79, 63
1, 111645, Note_off_c, 0, 61, 62
1, 111654, Control_c, 0, 67, 14
1, 111669, Control_c, 0, 67, 11
1, 111684, Control_c, 0, 67, 0
1, 111699, Note_on_c, 0, 79, 100
1, 111702, Note_on_c, 0, 70, 89
1, 111715, Note_on_c, 0, 77, 93
1, 111724, Note_off_c, 0, 79, 68
1, 111752, Note_off_c, 0, 70, 62
1, 111794, Note_on_c, 0, 67, 74
1, 111800, Note_on_c, 0, 76, 89
1, 111812, Note_off_c, 0, 77, 60
1, 111837, Note_off_c, 0, 76, 67
1, 111862, Note_off_c, 0, 67, 61
1, 111901, Note_on_c, 0, 89, 115
1, 111901, Note_on_c, 0, 65, 83
1, 111944, Note_off_c, 0, 89, 68
1, 111992, Note_on_c, 0, 86, 94
1, 112029, Note_off_c, 0, 86, 65
1, 112047, Note_off_c, 0, 65, 65
1, 112077, Note_on_c, 0, 86, 90
1, 112085, Note_on_c, 0, 84, 95
1, 112106, Note_off_c, 0, 86, 66
1, 112133, Note_off_c, 0, 84, 66
1, 112175, Note_on_c, 0, 82, 87
1, 112211, Note_off_c, 0, 82, 66
1, 112260, Note_on_c, 0, 77, 89
1, 112270, Note_on_c, 0, 81, 96
1, 112298, Note_off_c, 0, 77, 63
1, 112304, Note_off_c, 0, 81, 65
1, 112351, Note_on_c, 0, 74, 82
1, 112358, Note_on_c, 0, 82, 85
1, 112386, Note_off_c, 0, 74, 68
1, 112399, Note_off_c, 0, 82, 65
1, 112450, Note_on_c, 0, 74, 76
1, 112451, Note_on_c, 0, 84, 97
1, 112458, Note_on_c, 0, 72, 83
1, 112472, Note_off_c, 0, 74, 70
1, 112493, Note_off_c, 0, 72, 60
1, 112495, Note_off_c, 0, 84, 65
1, 112506, Control_c, 0, 67, 14
1, 112528, Control_c, 0, 67, 20
1, 112543, Control_c, 0, 67, 21
1, 112544, Note_on_c, 0, 70, 79
1, 112546, Note_on_c, 0, 76, 87
1, 112557, Control_c, 0, 67, 21
1, 112572, Control_c, 0, 67, 20
1, 112582, Note_off_c, 0, 76, 70
1, 112587, Control_c, 0, 67, 19
1, 112591, Note_off_c, 0, 70, 60
1, 112602, Control_c, 0, 67, 18
1, 112617, Control_c, 0, 67, 17
1, 112632, Control_c, 0, 67, 16
1, 112640, Note_on_c, 0, 69, 80
1, 112646, Note_on_c, 0, 77, 88
1, 112661, Control_c, 0, 67, 13
1, 112676, Control_c, 0, 67, 9
1, 112682, Note_off_c, 0, 69, 64
1, 112689, Note_off_c, 0, 77, 61
1, 112691, Control_c, 0, 67, 12
1, 112706, Control_c, 0, 67, 15
1, 112721, Control_c, 0, 67, 16
1, 112724, Note_on_c, 0, 70, 71
1, 112733, Note_on_c, 0, 74, 87
1, 112736, Control_c, 0, 67, 18
1, 112750, Control_c, 0, 67, 18
1, 112765, Control_c, 0, 67, 19
1, 112768, Note_off_c, 0, 74, 67
1, 112775, Note_off_c, 0, 70, 60
1, 112795, Control_c, 0, 67, 19
1, 112810, Control_c, 0, 67, 20
1, 112820, Note_on_c, 0, 72, 93
1, 112824, Control_c, 0, 67, 21
1, 112828, Note_on_c, 0, 74, 67
1, 112839, Control_c, 0, 67, 27
1, 112852, Note_off_c, 0, 74, 70
1, 112854, Control_c, 0, 67, 38
1, 112869, Control_c, 0, 67, 49
1, 112870, Note_off_c, 0, 72, 65
1, 112883, Control_c, 0, 67, 60
1, 112898, Control_c, 0, 67, 69
1, 112913, Control_c, 0, 67, 74
1, 112918, Note_on_c, 0, 70, 77
1, 112926, Note_on_c, 0, 64, 64
1, 112928, Control_c, 0, 67, 74
1, 112943, Control_c, 0, 67, 74
1, 112944, Note_off_c, 0, 70, 67
1, 112945, Note_off_c, 0, 64, 65
1, 112957, Control_c, 0, 67, 73
1, 112972, Control_c, 0, 67, 71
1, 112987, Control_c, 0, 67, 69
1, 113001, Control_c, 0, 67, 68
1, 113012, Note_on_c, 0, 65, 83
1, 113025, Note_on_c, 0, 69, 77
1, 113031, Control_c, 0, 67, 68
1, 113049, Note_off_c, 0, 65, 64
1, 113053, Note_off_c, 0, 69, 64
1, 113106, Note_on_c, 0, 62, 78
1, 113120, Control_c, 0, 67, 69
1, 113123, Note_on_c, 0, 70, 61
1, 113129, Note_off_c, 0, 62, 67
1, 113153, Note_off_c, 0, 70, 66
1, 113180, Control_c, 0, 67, 69
1, 113195, Note_on_c, 0, 62, 76
1, 113195, Control_c, 0, 67, 70
1, 113210, Control_c, 0, 67, 72
1, 113213, Note_on_c, 0, 60, 71
1, 113213, Note_on_c, 0, 72, 74
1, 113225, Control_c, 0, 67, 73
1, 113231, Note_off_c, 0, 62, 60
1, 113238, Note_off_c, 0, 60, 65
1, 113240, Note_off_c, 0, 72, 65
1, 113240, Control_c, 0, 67, 74
1, 113255, Control_c, 0, 67, 76
1, 113277, Control_c, 0, 67, 81
1, 113292, Control_c, 0, 67, 85
1, 113293, Note_on_c, 0, 58, 73
1, 113302, Note_on_c, 0, 64, 71
1, 113306, Control_c, 0, 67, 86
1, 113321, Note_off_c, 0, 58, 66
1, 113321, Control_c, 0, 67, 87
1, 113329, Note_off_c, 0, 64, 66
1, 113336, Control_c, 0, 67, 85
1, 113351, Control_c, 0, 67, 84
1, 113366, Control_c, 0, 67, 82
1, 113380, Control_c, 0, 67, 81
1, 113389, Note_on_c, 0, 57, 73
1, 113395, Control_c, 0, 67, 79
1, 113400, Note_on_c, 0, 65, 72
1, 113410, Control_c, 0, 67, 79
1, 113424, Note_off_c, 0, 57, 62
1, 113424, Control_c, 0, 67, 79
1, 113427, Note_off_c, 0, 65, 67
1, 113439, Control_c, 0, 67, 80
1, 113454, Control_c, 0, 67, 81
1, 113469, Control_c, 0, 67, 82
1, 113484, Control_c, 0, 67, 82
1, 113485, Note_on_c, 0, 58, 71
1, 113492, Note_on_c, 0, 62, 76
1, 113519, Note_off_c, 0, 58, 64
1, 113520, Note_off_c, 0, 62, 63
1, 113573, Control_c, 0, 67, 83
1, 113578, Note_on_c, 0, 60, 81
1, 113588, Note_on_c, 0, 62, 50
1, 113588, Control_c, 0, 67, 83
1, 113603, Control_c, 0, 67, 84
1, 113614, Note_off_c, 0, 62, 53
1, 113618, Control_c, 0, 67, 86
1, 113630, Note_off_c, 0, 60, 62
1, 113632, Control_c, 0, 67, 87
1, 113647, Control_c, 0, 67, 89
1, 113662, Control_c, 0, 67, 91
1, 113677, Control_c, 0, 67, 93
1, 113678, Note_on_c, 0, 58, 78
1, 113685, Note_on_c, 0, 52, 59
1, 113703, Note_off_c, 0, 58, 68
1, 113706, Note_off_c, 0, 52, 63
1, 113721, Control_c, 0, 67, 92
1, 113736, Control_c, 0, 67, 91
1, 113751, Control_c, 0, 67, 91
1, 113766, Control_c, 0, 67, 89
1, 113774, Note_on_c, 0, 53, 67
1, 113780, Control_c, 0, 67, 88
1, 113783, Note_on_c, 0, 57, 71
1, 113805, Note_off_c, 0, 53, 66
1, 113812, Note_off_c, 0, 57, 64
1, 113824, Control_c, 0, 67, 89
1, 113839, Control_c, 0, 67, 90
1, 113854, Control_c, 0, 67, 90
1, 113857, Note_on_c, 0, 50, 73
1, 113869, Control_c, 0, 67, 91
1, 113877, Note_on_c, 0, 58, 55
1, 113884, Note_off_c, 0, 50, 66
1, 113884, Control_c, 0, 67, 91
1, 113905, Note_off_c, 0, 58, 63
1, 113928, Control_c, 0, 67, 92
1, 113944, Control_c, 0, 67, 93
1, 113946, Note_on_c, 0, 50, 68
1, 113959, Control_c, 0, 67, 94
1, 113961, Note_on_c, 0, 60, 71
1, 113974, Control_c, 0, 67, 97
1, 113979, Note_on_c, 0, 48, 58
1, 113988, Note_off_c, 0, 50, 62
1, 113989, Control_c, 0, 67, 102
1, 113998, Note_off_c, 0, 60, 63
1, 114003, Control_c, 0, 67, 106
1, 114026, Control_c, 0, 67, 110
1, 114032, Note_off_c, 0, 48, 57
1, 114041, Control_c, 0, 67, 113
1, 114055, Control_c, 0, 67, 114
1, 114060, Note_on_c, 0, 52, 72
1, 114062, Note_on_c, 0, 46, 71
1, 114070, Control_c, 0, 67, 115
1, 114087, Note_off_c, 0, 52, 68
1, 114090, Note_off_c, 0, 46, 64
1, 114129, Control_c, 0, 67, 114
1, 114144, Control_c, 0, 67, 113
1, 114159, Control_c, 0, 67, 112
1, 114161, Note_on_c, 0, 53, 73
1, 114166, Note_on_c, 0, 45, 57
1, 114196, Note_off_c, 0, 53, 64
1, 114197, Note_off_c, 0, 45, 65
1, 114262, Note_on_c, 0, 57, 58
1, 114262, Control_c, 0, 67, 113
1, 114264, Note_on_c, 0, 41, 52
1, 114277, Note_on_c, 0, 62, 45
1, 114277, Control_c, 0, 67, 113
1, 114292, Note_off_c, 0, 57, 64
1, 114292, Control_c, 0, 67, 114
1, 114304, Note_off_c, 0, 41, 63
1, 114310, Note_off_c, 0, 62, 53
1, 114322, Control_c, 0, 67, 115
1, 114337, Control_c, 0, 67, 115
1, 114375, Note_on_c, 0, 43, 49
1, 114387, Note_on_c, 0, 52, 54
1, 114405, Note_off_c, 0, 43, 58
1, 114414, Note_off_c, 0, 52, 66
1, 114468, Note_on_c, 0, 45, 42
1, 114483, Note_on_c, 0, 61, 56
1, 114498, Note_on_c, 0, 55, 42
1, 114500, Control_c, 0, 67, 115
1, 114501, Note_off_c, 0, 45, 55
1, 114523, Note_off_c, 0, 61, 59
1, 114526, Note_off_c, 0, 55, 56
1, 114529, Control_c, 0, 67, 114
1, 114559, Control_c, 0, 67, 114
1, 114574, Control_c, 0, 67, 113
1, 114618, Control_c, 0, 67, 113
1, 114668, Note_on_c, 0, 62, 39
1, 114670, Note_on_c, 0, 53, 39
1, 114677, Control_c, 0, 67, 112
1, 114703, Note_on_c, 0, 38, 29
1, 114716, Poly_aftertouch_c, 0, 57, 127
1, 114775, Control_c, 0, 67, 113
1, 114790, Control_c, 0, 67, 113
1, 114820, Control_c, 0, 67, 114
1, 114834, Control_c, 0, 67, 115
1, 114849, Control_c, 0, 67, 116
1, 114864, Control_c, 0, 67, 117
1, 114879, Control_c, 0, 67, 121
1, 114894, Control_c, 0, 67, 127
1, 114953, Control_c, 0, 64, 58
1, 114968, Control_c, 0, 64, 64
1, 114983, Control_c, 0, 64, 66
1, 114998, Control_c, 0, 64, 68
1, 115013, Control_c, 0, 64, 71
1, 115027, Control_c, 0, 64, 74
1, 115030, Note_off_c, 0, 53, 52
1, 115042, Control_c, 0, 64, 77
1, 115057, Note_off_c, 0, 62, 49
1, 115057, Control_c, 0, 64, 78
1, 115070, Poly_aftertouch_c, 0, 57, 0
1, 115071, Control_c, 0, 64, 79
1, 115082, Note_off_c, 0, 38, 47
1, 115086, Control_c, 0, 64, 80
1, 115101, Control_c, 0, 64, 80
1, 115116, Control_c, 0, 64, 81
1, 115308, Control_c, 0, 64, 80
1, 115338, Control_c, 0, 64, 80
1, 115397, Control_c, 0, 64, 79
1, 115412, Control_c, 0, 64, 79
1, 115442, Control_c, 0, 64, 78
1, 115457, Control_c, 0, 64, 78
1, 115486, Control_c, 0, 64, 77
1, 115501, Control_c, 0, 64, 76
1, 115523, Control_c, 0, 64, 73
1, 115538, Control_c, 0, 64, 70
1, 115554, Control_c, 0, 64, 66
1, 115569, Control_c, 0, 64, 62
1, 115583, Control_c, 0, 64, 58
1, 115588, Note_on_c, 0, 69, 50
1, 115606, Note_on_c, 0, 65, 33
1, 115613, Control_c, 0, 64, 59
1, 115624, Note_on_c, 0, 62, 30
1, 115628, Control_c, 0, 64, 60
1, 115643, Control_c, 0, 64, 62
1, 115657, Control_c, 0, 64, 64
1, 115672, Control_c, 0, 64, 65
1, 115687, Control_c, 0, 64, 68
1, 115702, Control_c, 0, 64, 73
1, 115717, Control_c, 0, 64, 76
1, 115721, Note_on_c, 0, 57, 28
1, 115732, Control_c, 0, 64, 79
1, 115740, Note_off_c, 0, 69, 62
1, 115747, Control_c, 0, 64, 81
1, 115759, Note_on_c, 0, 50, 20
1, 115762, Control_c, 0, 64, 81
1, 115765, Note_on_c, 0, 53, 18
1, 115769, Note_off_c, 0, 62, 35
1, 115773, Note_off_c, 0, 65, 43
1, 115776, Control_c, 0, 64, 82
1, 115836, Note_off_c, 0, 57, 52
1, 115856, Note_off_c, 0, 50, 35
1, 115864, Note_off_c, 0, 53, 37
1, 115870, Note_on_c, 0, 69, 61
1, 115884, Note_on_c, 0, 65, 55
1, 115889, Note_on_c, 0, 62, 46
1, 115936, Note_off_c, 0, 62, 43
1, 115942, Note_off_c, 0, 65, 56
1, 115954, Control_c, 0, 64, 81
1, 115955, Note_off_c, 0, 69, 60
1, 115968, Control_c, 0, 64, 81
1, 115981, Note_on_c, 0, 57, 41
1, 115998, Control_c, 0, 64, 80
1, 116012, Note_on_c, 0, 53, 18
1, 116013, Control_c, 0, 64, 79
1, 116027, Control_c, 0, 64, 78
1, 116030, Note_on_c, 0, 50, 8
1, 116039, Note_off_c, 0, 57, 57
1, 116042, Control_c, 0, 64, 77
1, 116057, Control_c, 0, 64, 75
1, 116072, Note_off_c, 0, 53, 42
1, 116072, Control_c, 0, 64, 73
1, 116082, Note_off_c, 0, 50, 48
1, 116087, Control_c, 0, 64, 70
1, 116089, Note_on_c, 0, 69, 58
1, 116101, Control_c, 0, 64, 69
1, 116110, Note_on_c, 0, 65, 44
1, 116130, Note_on_c, 0, 62, 36
1, 116161, Control_c, 0, 64, 70
1, 116176, Control_c, 0, 64, 71
1, 116191, Control_c, 0, 64, 72
1, 116206, Control_c, 0, 64, 73
1, 116215, Note_on_c, 0, 53, 42
1, 116215, Note_off_c, 0, 65, 59
1, 116217, Note_off_c, 0, 62, 38
1, 116220, Control_c, 0, 64, 74
1, 116222, Note_on_c, 0, 50, 34
1, 116230, Note_on_c, 0, 59, 40
1, 116235, Control_c, 0, 64, 75
1, 116250, Control_c, 0, 64, 75
1, 116277, Note_off_c, 0, 53, 59
1, 116286, Note_off_c, 0, 59, 57
1, 116316, Note_on_c, 0, 68, 66
1, 116323, Note_off_c, 0, 50, 33
1, 116330, Note_on_c, 0, 65, 41
1, 116330, Note_off_c, 0, 69, 57
1, 116349, Note_on_c, 0, 62, 35
1, 116387, Note_off_c, 0, 62, 48
1, 116441, Note_on_c, 0, 59, 45
1, 116450, Control_c, 0, 64, 74
1, 116465, Control_c, 0, 64, 71
1, 116480, Control_c, 0, 64, 65
1, 116495, Control_c, 0, 64, 59
1, 116510, Control_c, 0, 64, 61
1, 116515, Poly_aftertouch_c, 0, 50, 0
1, 116519, Poly_aftertouch_c, 0, 53, 0
1, 116521, Note_off_c, 0, 65, 56
1, 116524, Control_c, 0, 64, 63
1, 116525, Note_off_c, 0, 68, 60
1, 116539, Control_c, 0, 64, 64
1, 116542, Note_on_c, 0, 67, 69
1, 116554, Control_c, 0, 64, 66
1, 116565, Note_on_c, 0, 64, 44
1, 116569, Control_c, 0, 64, 68
1, 116584, Control_c, 0, 64, 70
1, 116598, Control_c, 0, 64, 72
1, 116602, Note_off_c, 0, 59, 39
1, 116613, Control_c, 0, 64, 74
1, 116628, Control_c, 0, 64, 76
1, 116638, Note_off_c, 0, 64, 54
1, 116642, Control_c, 0, 64, 78
1, 116644, Note_on_c, 0, 50, 38
1, 116644, Note_on_c, 0, 55, 45
1, 116644, Note_on_c, 0, 58, 43
1, 116657, Control_c, 0, 64, 79
1, 116667, Note_off_c, 0, 67, 60
1, 116672, Control_c, 0, 64, 80
1, 116687, Control_c, 0, 64, 81
1, 116709, Note_off_c, 0, 50, 51
1, 116724, Note_off_c, 0, 58, 60
1, 116727, Note_off_c, 0, 55, 61
1, 116766, Note_on_c, 0, 67, 78
1, 116774, Note_on_c, 0, 64, 55
1, 116801, Note_off_c, 0, 64, 55
1, 116844, Note_off_c, 0, 67, 63
1, 116864, Note_on_c, 0, 55, 55
1, 116868, Note_on_c, 0, 58, 47
1, 116890, Note_on_c, 0, 50, 33
1, 116894, Control_c, 0, 64, 80
1, 116897, Note_off_c, 0, 58, 58
1, 116907, Note_off_c, 0, 55, 61
1, 116909, Control_c, 0, 64, 79
1, 116924, Control_c, 0, 64, 78
1, 116939, Control_c, 0, 64, 77
1, 116942, Note_off_c, 0, 50, 41
1, 116954, Control_c, 0, 64, 75
1, 116969, Control_c, 0, 64, 72
1, 116978, Note_on_c, 0, 74, 76
1, 116984, Control_c, 0, 64, 69
1, 116994, Note_on_c, 0, 64, 59
1, 116998, Control_c, 0, 64, 65
1, 117005, Note_on_c, 0, 67, 45
1, 117020, Control_c, 0, 64, 58
1, 117035, Control_c, 0, 64, 35
1, 117049, Control_c, 0, 64, 0
1, 117064, Control_c, 0, 64, 13
1, 117079, Control_c, 0, 64, 41
1, 117094, Control_c, 0, 64, 54
1, 117103, Note_on_c, 0, 57, 46
1, 117106, Note_off_c, 0, 67, 61
1, 117109, Control_c, 0, 64, 61
1, 117115, Note_on_c, 0, 52, 47
1, 117120, Note_off_c, 0, 64, 58
1, 117122, Note_on_c, 0, 55, 31
1, 117124, Control_c, 0, 64, 65
1, 117139, Control_c, 0, 64, 69
1, 117154, Control_c, 0, 64, 73
1, 117156, Note_on_c, 0, 50, 6
1, 117169, Control_c, 0, 64, 77
1, 117184, Control_c, 0, 64, 79
1, 117195, Note_off_c, 0, 57, 60
1, 117199, Control_c, 0, 64, 80
1, 117201, Note_off_c, 0, 55, 39
1, 117207, Note_on_c, 0, 73, 76
1, 117213, Note_off_c, 0, 50, 44
1, 117214, Control_c, 0, 64, 80
1, 117219, Note_off_c, 0, 52, 57
1, 117222, Note_on_c, 0, 67, 67
1, 117228, Control_c, 0, 64, 81
1, 117243, Control_c, 0, 64, 82
1, 117246, Note_off_c, 0, 74, 61
1, 117258, Note_on_c, 0, 64, 6
1, 117258, Control_c, 0, 64, 83
1, 117264, Note_off_c, 0, 67, 59
1, 117273, Control_c, 0, 64, 84
1, 117306, Note_off_c, 0, 64, 34
1, 117312, Note_on_c, 0, 57, 54
1, 117329, Note_on_c, 0, 55, 41
1, 117341, Poly_aftertouch_c, 0, 52, 127
1, 117342, Note_off_c, 0, 57, 55
1, 117362, Note_off_c, 0, 55, 54
1, 117372, Poly_aftertouch_c, 0, 50, 127
1, 117383, Poly_aftertouch_c, 0, 52, 0
1, 117425, Note_on_c, 0, 77, 83
1, 117446, Note_on_c, 0, 69, 62
1, 117451, Control_c, 0, 64, 84
1, 117452, Note_off_c, 0, 73, 59
1, 117484, Poly_aftertouch_c, 0, 50, 0
1, 117522, Poly_aftertouch_c, 0, 50, 127
1, 117535, Note_on_c, 0, 61, 60
1, 117545, Note_off_c, 0, 77, 59
1, 117575, Note_off_c, 0, 61, 60
1, 117613, Control_c, 0, 64, 84
1, 117637, Note_off_c, 0, 69, 55
1, 117651, Note_on_c, 0, 76, 75
1, 117655, Note_on_c, 0, 67, 66
1, 117687, Control_c, 0, 64, 83
1, 117702, Note_off_c, 0, 67, 53
1, 117702, Control_c, 0, 64, 83
1, 117705, Poly_aftertouch_c, 0, 50, 0
1, 117714, Note_off_c, 0, 76, 63
1, 117717, Control_c, 0, 64, 82
1, 117723, Note_on_c, 0, 50, 27
1, 117726, Note_on_c, 0, 61, 59
1, 117747, Control_c, 0, 64, 82
1, 117762, Control_c, 0, 64, 81
1, 117785, Control_c, 0, 64, 81
1, 117799, Control_c, 0, 64, 80
1, 117806, Note_off_c, 0, 61, 58
1, 117814, Control_c, 0, 64, 79
1, 117823, Note_off_c, 0, 50, 35
1, 117829, Note_on_c, 0, 76, 76
1, 117829, Control_c, 0, 64, 78
1, 117844, Control_c, 0, 64, 77
1, 117859, Control_c, 0, 64, 75
1, 117873, Control_c, 0, 64, 74
1, 117875, Note_on_c, 0, 74, 72
1, 117885, Note_on_c, 0, 65, 67
1, 117888, Control_c, 0, 64, 71
1, 117903, Control_c, 0, 64, 66
1, 117914, Note_off_c, 0, 76, 56
1, 117918, Control_c, 0, 64, 56
1, 117933, Control_c, 0, 64, 0
1, 117978, Control_c, 0, 64, 43
1, 117993, Control_c, 0, 64, 57
1, 118008, Control_c, 0, 64, 63
1, 118014, Note_off_c, 0, 65, 64
1, 118015, Note_on_c, 0, 62, 44
1, 118023, Control_c, 0, 64, 66
1, 118024, Note_on_c, 0, 57, 36
1, 118030, Note_on_c, 0, 53, 36
1, 118035, Note_on_c, 0, 50, 31
1, 118038, Control_c, 0, 64, 70
1, 118052, Control_c, 0, 64, 74
1, 118067, Control_c, 0, 64, 77
1, 118082, Control_c, 0, 64, 79
1, 118096, Control_c, 0, 64, 80
1, 118111, Control_c, 0, 64, 81
1, 118121, Note_off_c, 0, 53, 60
1, 118123, Note_off_c, 0, 62, 57
1, 118125, Note_on_c, 0, 73, 72
1, 118126, Control_c, 0, 64, 82
1, 118131, Note_off_c, 0, 57, 47
1, 118137, Note_on_c, 0, 64, 63
1, 118140, Note_off_c, 0, 50, 36
1, 118141, Control_c, 0, 64, 83
1, 118152, Note_off_c, 0, 74, 62
1, 118156, Control_c, 0, 64, 84
1, 118170, Control_c, 0, 64, 85
1, 118185, Control_c, 0, 64, 86
1, 118189, Note_off_c, 0, 64, 58
1, 118200, Control_c, 0, 64, 86
1, 118230, Control_c, 0, 64, 87
1, 118259, Note_on_c, 0, 62, 46
1, 118267, Note_on_c, 0, 57, 46
1, 118275, Note_on_c, 0, 50, 7
1, 118277, Note_on_c, 0, 53, 40
1, 118289, Control_c, 0, 64, 87
1, 118332, Note_off_c, 0, 53, 55
1, 118334, Note_off_c, 0, 62, 51
1, 118340, Note_off_c, 0, 50, 39
1, 118344, Note_off_c, 0, 57, 43
1, 118358, Note_on_c, 0, 74, 74
1, 118375, Note_on_c, 0, 65, 52
1, 118391, Note_off_c, 0, 73, 61
1, 118492, Note_on_c, 0, 62, 38
1, 118498, Note_on_c, 0, 57, 42
1, 118498, Note_on_c, 0, 53, 34
1, 118526, Note_on_c, 0, 50, 16
1, 118542, Note_off_c, 0, 65, 49
1, 118558, Note_off_c, 0, 53, 50
1, 118558, Note_off_c, 0, 62, 45
1, 118561, Note_off_c, 0, 57, 52
1, 118571, Note_off_c, 0, 50, 47
1, 118606, Note_on_c, 0, 76, 71
1, 118609, Note_off_c, 0, 74, 56
1, 118627, Note_on_c, 0, 67, 50
1, 118685, Note_off_c, 0, 67, 0
1, 118685, Note_on_c, 0, 67, 18
1, 118726, Control_c, 0, 64, 87
1, 118727, Note_on_c, 0, 57, 37
1, 118728, Note_on_c, 0, 62, 30
1, 118730, Note_on_c, 0, 53, 27
1, 118758, Note_on_c, 0, 50, 12
1, 118766, Note_off_c, 0, 62, 51
1, 118770, Note_off_c, 0, 53, 51
1, 118772, Control_c, 0, 64, 86
1, 118775, Note_off_c, 0, 57, 59
1, 118801, Control_c, 0, 64, 86
1, 118826, Note_off_c, 0, 50, 40
1, 118831, Control_c, 0, 64, 85
1, 118860, Control_c, 0, 64, 84
1, 118875, Control_c, 0, 64, 84
1, 118890, Control_c, 0, 64, 83
1, 118903, Note_off_c, 0, 76, 38
1, 118905, Control_c, 0, 64, 82
1, 118919, Control_c, 0, 64, 80
1, 118924, Note_on_c, 0, 73, 57
1, 118934, Control_c, 0, 64, 77
1, 118940, Note_on_c, 0, 64, 43
1, 118942, Note_off_c, 0, 67, 42
1, 118948, Note_on_c, 0, 69, 51
1, 118949, Control_c, 0, 64, 73
1, 118964, Control_c, 0, 64, 67
1, 118979, Control_c, 0, 64, 58
1, 118993, Control_c, 0, 64, 0
1, 119091, Note_on_c, 0, 57, 32
1, 119109, Note_on_c, 0, 55, 25
1, 119112, Control_c, 0, 64, 47
1, 119116, Note_on_c, 0, 52, 31
1, 119127, Control_c, 0, 64, 64
1, 119142, Control_c, 0, 64, 70
1, 119142, Note_off_c, 0, 73, 62
1, 119148, Note_off_c, 0, 64, 55
1, 119149, Note_off_c, 0, 69, 65
1, 119157, Poly_aftertouch_c, 0, 50, 127
1, 119157, Control_c, 0, 64, 75
1, 119172, Control_c, 0, 64, 78
1, 119186, Control_c, 0, 64, 79
1, 119190, Note_off_c, 0, 57, 56
1, 119194, Note_off_c, 0, 52, 58
1, 119220, Note_off_c, 0, 55, 39
1, 119317, Poly_aftertouch_c, 0, 50, 0
1, 119346, Note_on_c, 0, 57, 41
1, 119353, Poly_aftertouch_c, 0, 50, 127
1, 119369, Note_on_c, 0, 55, 32
1, 119374, Note_on_c, 0, 52, 8
1, 119399, Note_off_c, 0, 57, 43
1, 119419, Note_on_c, 0, 69, 67
1, 119421, Note_off_c, 0, 52, 36
1, 119426, Note_off_c, 0, 55, 41
1, 119433, Poly_aftertouch_c, 0, 50, 0
1, 119437, Note_on_c, 0, 65, 51
1, 119447, Note_on_c, 0, 62, 47
1, 119500, Note_off_c, 0, 62, 42
1, 119523, Note_off_c, 0, 65, 56
1, 119534, Control_c, 0, 64, 80
1, 119538, Note_off_c, 0, 69, 58
1, 119547, Note_on_c, 0, 59, 48
1, 119559, Note_on_c, 0, 50, 39
1, 119560, Note_on_c, 0, 53, 41
1, 119609, Note_off_c, 0, 53, 44
1, 119612, Note_off_c, 0, 59, 52
1, 119652, Note_on_c, 0, 69, 75
1, 119664, Note_on_c, 0, 65, 59
1, 119667, Note_on_c, 0, 62, 55
1, 119703, Note_off_c, 0, 50, 0
1, 119709, Note_off_c, 0, 62, 59
1, 119711, Note_off_c, 0, 65, 53
1, 119740, Poly_aftertouch_c, 0, 50, 127
1, 119743, Note_off_c, 0, 69, 57
1, 119764, Note_on_c, 0, 53, 47
1, 119772, Control_c, 0, 64, 79
1, 119802, Control_c, 0, 64, 78
1, 119816, Control_c, 0, 64, 78
1, 119831, Control_c, 0, 64, 77
1, 119846, Control_c, 0, 64, 76
1, 119860, Control_c, 0, 64, 76
1, 119869, Note_off_c, 0, 53, 37
1, 119875, Control_c, 0, 64, 75
1, 119890, Control_c, 0, 64, 73
1, 119901, Poly_aftertouch_c, 0, 50, 0
1, 119905, Control_c, 0, 64, 70
1, 119910, Note_on_c, 0, 69, 64
1, 119920, Control_c, 0, 64, 66
1, 119923, Note_on_c, 0, 62, 53
1, 119925, Note_on_c, 0, 65, 44
1, 119935, Control_c, 0, 64, 59
1, 119950, Control_c, 0, 64, 35
1, 119965, Control_c, 0, 64, 0
1, 120016, Control_c, 0, 64, 38
1, 120030, Control_c, 0, 64, 55
1, 120045, Control_c, 0, 64, 62
1, 120060, Control_c, 0, 64, 65
1, 120070, Note_on_c, 0, 50, 22
1, 120075, Control_c, 0, 64, 68
1, 120090, Control_c, 0, 64, 71
1, 120092, Note_on_c, 0, 59, 16
1, 120093, Note_off_c, 0, 65, 60
1, 120096, Note_on_c, 0, 53, 23
1, 120105, Note_off_c, 0, 62, 55
1, 120105, Control_c, 0, 64, 74
1, 120120, Control_c, 0, 64, 75
1, 120134, Control_c, 0, 64, 76
1, 120155, Note_off_c, 0, 59, 39
1, 120161, Note_off_c, 0, 53, 41
1, 120165, Note_on_c, 0, 68, 69
1, 120185, Note_on_c, 0, 62, 32
1, 120195, Note_off_c, 0, 69, 61
1, 120199, Note_on_c, 0, 65, 22
1, 120228, Note_off_c, 0, 62, 47
1, 120233, Note_off_c, 0, 50, 0
1, 120239, Note_off_c, 0, 65, 43
1, 120247, Note_off_c, 0, 68, 58
1, 120270, Poly_aftertouch_c, 0, 50, 127
1, 120275, Note_on_c, 0, 59, 51
1, 120282, Control_c, 0, 64, 76
1, 120297, Control_c, 0, 64, 75
1, 120297, Control_c, 0, 67, 126
1, 120312, Control_c, 0, 64, 75
1, 120312, Control_c, 0, 67, 124
1, 120313, Note_off_c, 0, 59, 61
1, 120327, Control_c, 0, 64, 73
1, 120327, Control_c, 0, 67, 124
1, 120343, Control_c, 0, 64, 71
1, 120352, Poly_aftertouch_c, 0, 50, 0
1, 120358, Control_c, 0, 64, 65
1, 120358, Control_c, 0, 67, 124
1, 120372, Control_c, 0, 64, 41
1, 120375, Note_on_c, 0, 67, 69
1, 120387, Control_c, 0, 64, 0
1, 120402, Control_c, 0, 67, 125
1, 120403, Note_on_c, 0, 63, 41
1, 120416, Control_c, 0, 64, 47
1, 120416, Control_c, 0, 67, 126
1, 120431, Control_c, 0, 64, 58
1, 120431, Control_c, 0, 67, 127
1, 120446, Control_c, 0, 64, 63
1, 120446, Control_c, 0, 67, 127
1, 120461, Control_c, 0, 64, 65
1, 120476, Control_c, 0, 64, 68
1, 120480, Note_on_c, 0, 60, 56
1, 120483, Note_off_c, 0, 63, 60
1, 120490, Control_c, 0, 64, 71
1, 120493, Note_off_c, 0, 67, 57
1, 120496, Note_on_c, 0, 50, 32
1, 120505, Control_c, 0, 64, 73
1, 120520, Control_c, 0, 64, 76
1, 120535, Control_c, 0, 64, 76
1, 120562, Note_off_c, 0, 60, 59
1, 120579, Control_c, 0, 64, 77
1, 120584, Note_off_c, 0, 50, 32
1, 120594, Note_on_c, 0, 67, 78
1, 120603, Note_on_c, 0, 63, 64
1, 120684, Note_off_c, 0, 67, 58
1, 120686, Note_on_c, 0, 60, 58
1, 120699, Note_on_c, 0, 50, 41
1, 120699, Note_off_c, 0, 63, 55
1, 120728, Control_c, 0, 64, 76
1, 120736, Poly_aftertouch_c, 0, 69, 127
1, 120743, Control_c, 0, 64, 75
1, 120764, Control_c, 0, 64, 74
1, 120780, Control_c, 0, 64, 71
1, 120795, Control_c, 0, 64, 68
1, 120805, Poly_aftertouch_c, 0, 69, 0
1, 120810, Control_c, 0, 64, 65
1, 120816, Note_off_c, 0, 50, 56
1, 120818, Note_on_c, 0, 67, 76
1, 120821, Note_off_c, 0, 60, 53
1, 120824, Control_c, 0, 64, 63
1, 120833, Note_on_c, 0, 62, 61
1, 120854, Control_c, 0, 64, 64
1, 120869, Control_c, 0, 64, 65
1, 120884, Control_c, 0, 64, 66
1, 120898, Control_c, 0, 64, 68
1, 120913, Control_c, 0, 64, 70
1, 120928, Control_c, 0, 64, 73
1, 120943, Control_c, 0, 64, 75
1, 120945, Note_on_c, 0, 60, 41
1, 120950, Note_on_c, 0, 57, 44
1, 120958, Control_c, 0, 64, 78
1, 120972, Control_c, 0, 64, 81
1, 120987, Note_on_c, 0, 50, 39
1, 120987, Control_c, 0, 64, 83
1, 120992, Note_off_c, 0, 62, 54
1, 121002, Control_c, 0, 64, 83
1, 121017, Control_c, 0, 64, 84
1, 121055, Note_on_c, 0, 66, 77
1, 121059, Note_off_c, 0, 50, 53
1, 121059, Note_off_c, 0, 60, 57
1, 121063, Note_off_c, 0, 67, 58
1, 121065, Note_on_c, 0, 62, 51
1, 121151, Control_c, 0, 64, 83
1, 121157, Note_off_c, 0, 62, 56
1, 121162, Note_off_c, 0, 57, 0
1, 121162, Note_on_c, 0, 57, 4
1, 121191, Note_on_c, 0, 60, 50
1, 121196, Control_c, 0, 64, 83
1, 121210, Note_on_c, 0, 50, 27
1, 121232, Note_off_c, 0, 60, 49
1, 121240, Control_c, 0, 64, 82
1, 121251, Note_off_c, 0, 50, 39
1, 121255, Control_c, 0, 64, 81
1, 121270, Control_c, 0, 64, 79
1, 121285, Control_c, 0, 64, 75
1, 121300, Control_c, 0, 64, 69
1, 121303, Note_on_c, 0, 70, 73
1, 121312, Note_off_c, 0, 66, 61
1, 121314, Control_c, 0, 64, 58
1, 121324, Note_on_c, 0, 62, 49
1, 121329, Control_c, 0, 64, 0
1, 121344, Control_c, 0, 64, 27
1, 121357, Note_off_c, 0, 57, 0
1, 121359, Control_c, 0, 64, 52
1, 121373, Note_on_c, 0, 60, 28
1, 121374, Control_c, 0, 64, 60
1, 121388, Control_c, 0, 64, 64
1, 121403, Control_c, 0, 64, 67
1, 121418, Control_c, 0, 64, 72
1, 121422, Note_on_c, 0, 54, 51
1, 121428, Note_on_c, 0, 50, 16
1, 121430, Poly_aftertouch_c, 0, 57, 0
1, 121433, Control_c, 0, 64, 76
1, 121447, Control_c, 0, 64, 80
1, 121458, Note_off_c, 0, 62, 51
1, 121462, Control_c, 0, 64, 82
1, 121463, Note_off_c, 0, 70, 56
1, 121476, Note_off_c, 0, 50, 47
1, 121477, Control_c, 0, 64, 82
1, 121481, Note_off_c, 0, 54, 55
1, 121481, Note_off_c, 0, 60, 55
1, 121557, Note_on_c, 0, 69, 70
1, 121562, Note_on_c, 0, 62, 57
1, 121615, Note_off_c, 0, 62, 54
1, 121622, Note_off_c, 0, 69, 64
1, 121634, Note_on_c, 0, 50, 38
1, 121636, Note_on_c, 0, 60, 48
1, 121636, Note_on_c, 0, 54, 46
1, 121674, Note_off_c, 0, 54, 48
1, 121677, Control_c, 0, 64, 82
1, 121692, Control_c, 0, 64, 81
1, 121696, Note_off_c, 0, 50, 38
1, 121707, Control_c, 0, 64, 81
1, 121721, Control_c, 0, 64, 80
1, 121733, Note_on_c, 0, 69, 71
1, 121736, Control_c, 0, 64, 79
1, 121751, Control_c, 0, 64, 78
1, 121765, Control_c, 0, 64, 75
1, 121775, Note_off_c, 0, 60, 46
1, 121780, Control_c, 0, 64, 72
1, 121795, Control_c, 0, 64, 66
1, 121805, Note_on_c, 0, 67, 69
1, 121805, Note_off_c, 0, 69, 58
1, 121810, Control_c, 0, 64, 50
1, 121822, Note_on_c, 0, 62, 50
1, 121825, Control_c, 0, 64, 0
1, 121929, Control_c, 0, 64, 45
1, 121929, Note_on_c, 0, 58, 42
1, 121930, Note_on_c, 0, 55, 34
1, 121944, Control_c, 0, 64, 64
1, 121948, Note_on_c, 0, 50, 28
1, 121959, Note_off_c, 0, 62, 58
1, 121959, Control_c, 0, 64, 68
1, 121974, Control_c, 0, 64, 72
1, 121989, Control_c, 0, 64, 75
1, 122004, Control_c, 0, 64, 77
1, 122009, Note_off_c, 0, 58, 57
1, 122010, Note_off_c, 0, 50, 40
1, 122018, Control_c, 0, 64, 77
1, 122042, Note_off_c, 0, 55, 36
1, 122045, Note_on_c, 0, 66, 66
1, 122048, Note_off_c, 0, 67, 58
1, 122054, Note_on_c, 0, 62, 60
1, 122170, Note_on_c, 0, 55, 51
1, 122176, Note_on_c, 0, 58, 40
1, 122193, Note_off_c, 0, 55, 62
1, 122200, Note_off_c, 0, 58, 51
1, 122211, Control_c, 0, 64, 77
1, 122241, Control_c, 0, 64, 76
1, 122243, Note_off_c, 0, 62, 51
1, 122263, Control_c, 0, 64, 76
1, 122276, Control_c, 0, 64, 75
1, 122291, Control_c, 0, 64, 74
1, 122306, Control_c, 0, 64, 73
1, 122317, Note_on_c, 0, 67, 61
1, 122321, Control_c, 0, 64, 70
1, 122328, Note_off_c, 0, 66, 62
1, 122330, Note_on_c, 0, 61, 48
1, 122336, Control_c, 0, 64, 66
1, 122350, Control_c, 0, 64, 61
1, 122365, Control_c, 0, 64, 41
1, 122380, Control_c, 0, 64, 0
1, 122424, Control_c, 0, 64, 28
1, 122439, Control_c, 0, 64, 52
1, 122444, Note_on_c, 0, 57, 38
1, 122454, Control_c, 0, 64, 60
1, 122456, Note_on_c, 0, 52, 37
1, 122457, Note_on_c, 0, 49, 32
1, 122469, Control_c, 0, 64, 64
1, 122473, Poly_aftertouch_c, 0, 55, 127
1, 122483, Control_c, 0, 64, 67
1, 122498, Control_c, 0, 64, 71
1, 122513, Control_c, 0, 64, 75
1, 122522, Note_off_c, 0, 52, 62
1, 122523, Note_off_c, 0, 49, 54
1, 122528, Control_c, 0, 64, 78
1, 122532, Note_off_c, 0, 57, 59
1, 122543, Control_c, 0, 64, 79
1, 122558, Control_c, 0, 64, 79
1, 122563, Poly_aftertouch_c, 0, 55, 0
1, 122580, Note_on_c, 0, 69, 60
1, 122594, Note_on_c, 0, 62, 54
1, 122603, Note_off_c, 0, 67, 33
1, 122612, Note_off_c, 0, 61, 18
1, 122641, Note_off_c, 0, 62, 46
1, 122716, Note_on_c, 0, 57, 41
1, 122732, Note_on_c, 0, 55, 30
1, 122736, Note_on_c, 0, 49, 21
1, 122737, Control_c, 0, 64, 79
1, 122766, Control_c, 0, 64, 78
1, 122767, Poly_aftertouch_c, 0, 52, 127
1, 122781, Control_c, 0, 64, 77
1, 122782, Note_off_c, 0, 57, 51
1, 122788, Note_off_c, 0, 49, 42
1, 122796, Control_c, 0, 64, 76
1, 122806, Poly_aftertouch_c, 0, 52, 0
1, 122810, Control_c, 0, 64, 75
1, 122825, Control_c, 0, 64, 74
1, 122840, Control_c, 0, 64, 73
1, 122855, Control_c, 0, 64, 72
1, 122862, Note_off_c, 0, 69, 27
1, 122870, Control_c, 0, 64, 71
1, 122884, Control_c, 0, 64, 69
1, 122899, Control_c, 0, 64, 68
1, 122910, Note_on_c, 0, 62, 51
1, 122914, Control_c, 0, 64, 66
1, 122929, Control_c, 0, 64, 65
1, 122944, Control_c, 0, 64, 63
1, 122958, Control_c, 0, 64, 60
1, 122973, Control_c, 0, 64, 53
1, 122988, Control_c, 0, 64, 41
1, 123009, Note_off_c, 0, 55, 41
1, 123010, Control_c, 0, 64, 0
1, 123103, Note_on_c, 0, 57, 34
1, 123114, Note_on_c, 0, 54, 26
1, 123147, Note_on_c, 0, 50, 19
1, 123217, Control_c, 0, 64, 54
1, 123232, Control_c, 0, 64, 66
1, 123236, Note_off_c, 0, 50, 49
1, 123240, Note_off_c, 0, 57, 59
1, 123247, Control_c, 0, 64, 71
1, 123253, Note_off_c, 0, 54, 52
1, 123262, Control_c, 0, 64, 75
1, 123277, Control_c, 0, 64, 77
1, 123291, Control_c, 0, 64, 79
1, 123303, Note_off_c, 0, 62, 57
1, 123306, Control_c, 0, 64, 80
1, 123321, Control_c, 0, 64, 81
1, 123336, Control_c, 0, 64, 82
1, 123351, Control_c, 0, 64, 83
1, 123375, Note_on_c, 0, 57, 46
1, 123381, Control_c, 0, 64, 83
1, 123410, Control_c, 0, 64, 84
1, 123414, Note_on_c, 0, 54, 24
1, 123455, Control_c, 0, 64, 84
1, 123458, Note_off_c, 0, 57, 49
1, 123461, Note_off_c, 0, 54, 46
1, 123499, Control_c, 0, 64, 85
1, 123509, Note_on_c, 0, 72, 64
1, 123520, Note_on_c, 0, 66, 59
1, 123530, Control_c, 0, 64, 85
1, 123574, Control_c, 0, 64, 86
1, 123611, Note_off_c, 0, 66, 56
1, 123613, Note_off_c, 0, 72, 58
1, 123658, Note_on_c, 0, 57, 27
1, 123661, Note_on_c, 0, 54, 34
1, 123666, Note_on_c, 0, 50, 26
1, 123717, Note_off_c, 0, 57, 43
1, 123747, Note_off_c, 0, 54, 36
1, 123784, Note_on_c, 0, 72, 73
1, 123795, Note_off_c, 0, 50, 26
1, 123801, Note_on_c, 0, 66, 58
1, 123910, Note_off_c, 0, 72, 59
1, 123922, Control_c, 0, 64, 85
1, 123937, Note_on_c, 0, 50, 14
1, 123940, Note_on_c, 0, 57, 41
1, 123947, Note_on_c, 0, 54, 23
1, 123952, Control_c, 0, 64, 85
1, 123981, Control_c, 0, 64, 84
1, 124026, Control_c, 0, 64, 84
1, 124040, Control_c, 0, 64, 83
1, 124055, Control_c, 0, 64, 82
1, 124070, Control_c, 0, 64, 82
1, 124085, Control_c, 0, 64, 81
1, 124100, Control_c, 0, 64, 81
1, 124114, Control_c, 0, 64, 80
1, 124129, Control_c, 0, 64, 79
1, 124139, Note_on_c, 0, 72, 63
1, 124143, Note_off_c, 0, 57, 36
1, 124144, Control_c, 0, 64, 78
1, 124152, Note_on_c, 0, 65, 54
1, 124159, Control_c, 0, 64, 76
1, 124174, Control_c, 0, 64, 74
1, 124175, Note_off_c, 0, 66, 41
1, 124189, Control_c, 0, 64, 72
1, 124203, Control_c, 0, 64, 70
1, 124209, Note_off_c, 0, 50, 28
1, 124218, Control_c, 0, 64, 68
1, 124233, Control_c, 0, 64, 66
1, 124248, Control_c, 0, 64, 64
1, 124263, Control_c, 0, 64, 63
1, 124278, Control_c, 0, 64, 60
1, 124293, Control_c, 0, 64, 57
1, 124307, Control_c, 0, 64, 55
1, 124322, Control_c, 0, 64, 52
1, 124338, Control_c, 0, 64, 47
1, 124340, Note_off_c, 0, 54, 33
1, 124351, Note_on_c, 0, 60, 39
1, 124352, Control_c, 0, 64, 33
1, 124367, Control_c, 0, 64, 0
1, 124370, Note_on_c, 0, 56, 29
1, 124383, Note_on_c, 0, 53, 27
1, 124385, Poly_aftertouch_c, 0, 50, 127
1, 124456, Control_c, 0, 64, 51
1, 124471, Control_c, 0, 64, 64
1, 124486, Control_c, 0, 64, 69
1, 124507, Note_off_c, 0, 60, 61
1, 124508, Control_c, 0, 64, 75
1, 124516, Note_on_c, 0, 71, 61
1, 124521, Note_on_c, 0, 68, 52
1, 124521, Poly_aftertouch_c, 0, 50, 0
1, 124523, Note_off_c, 0, 53, 53
1, 124524, Control_c, 0, 64, 79
1, 124531, Note_off_c, 0, 56, 43
1, 124534, Note_off_c, 0, 65, 56
1, 124538, Control_c, 0, 64, 80
1, 124545, Note_off_c, 0, 72, 53
1, 124627, Note_off_c, 0, 71, 57
1, 124654, Note_off_c, 0, 68, 38
1, 124655, Note_on_c, 0, 59, 49
1, 124658, Note_on_c, 0, 53, 36
1, 124658, Note_on_c, 0, 56, 39
1, 124664, Note_on_c, 0, 50, 40
1, 124686, Control_c, 0, 64, 79
1, 124701, Control_c, 0, 64, 78
1, 124708, Note_off_c, 0, 53, 47
1, 124716, Control_c, 0, 64, 78
1, 124718, Note_off_c, 0, 59, 49
1, 124734, Note_off_c, 0, 50, 50
1, 124767, Note_on_c, 0, 71, 71
1, 124791, Note_on_c, 0, 67, 52
1, 124805, Control_c, 0, 64, 78
1, 124817, Note_off_c, 0, 56, 20
1, 124820, Control_c, 0, 64, 79
1, 124835, Control_c, 0, 64, 80
1, 124850, Control_c, 0, 64, 80
1, 124864, Control_c, 0, 64, 81
1, 124882, Note_off_c, 0, 71, 57
1, 124894, Control_c, 0, 64, 81
1, 124898, Note_off_c, 0, 67, 51
1, 124907, Note_on_c, 0, 59, 50
1, 124909, Control_c, 0, 64, 82
1, 124913, Note_on_c, 0, 49, 49
1, 124924, Control_c, 0, 64, 82
1, 124928, Note_on_c, 0, 53, 30
1, 124938, Control_c, 0, 64, 83
1, 124953, Control_c, 0, 64, 83
1, 124963, Note_off_c, 0, 49, 58
1, 124981, Note_off_c, 0, 59, 52
1, 125012, Note_on_c, 0, 71, 75
1, 125021, Note_on_c, 0, 65, 66
1, 125027, Note_on_c, 0, 67, 15
1, 125055, Note_off_c, 0, 53, 25
1, 125057, Note_off_c, 0, 65, 60
1, 125065, Note_off_c, 0, 67, 41
1, 125135, Note_on_c, 0, 59, 53
1, 125136, Note_on_c, 0, 53, 15
1, 125137, Note_off_c, 0, 71, 55
1, 125141, Note_on_c, 0, 49, 51
1, 125161, Control_c, 0, 64, 83
1, 125176, Control_c, 0, 64, 82
1, 125191, Control_c, 0, 64, 82
1, 125199, Note_off_c, 0, 49, 58
1, 125205, Control_c, 0, 64, 81
1, 125220, Control_c, 0, 64, 80
1, 125226, Note_off_c, 0, 59, 57
1, 125235, Control_c, 0, 64, 79
1, 125258, Control_c, 0, 64, 78
1, 125273, Control_c, 0, 64, 77
1, 125274, Note_on_c, 0, 71, 74
1, 125287, Control_c, 0, 64, 74
1, 125292, Note_on_c, 0, 65, 60
1, 125295, Note_on_c, 0, 67, 59
1, 125302, Control_c, 0, 64, 73
1, 125317, Control_c, 0, 64, 70
1, 125332, Control_c, 0, 64, 68
1, 125347, Control_c, 0, 64, 64
1, 125361, Control_c, 0, 64, 57
1, 125366, Note_off_c, 0, 53, 44
1, 125376, Control_c, 0, 64, 0
1, 125428, Note_on_c, 0, 60, 45
1, 125432, Note_off_c, 0, 65, 61
1, 125443, Note_on_c, 0, 55, 26
1, 125449, Note_on_c, 0, 48, 37
1, 125554, Note_off_c, 0, 67, 59
1, 125555, Note_off_c, 0, 48, 57
1, 125563, Note_off_c, 0, 55, 49
1, 125569, Note_off_c, 0, 60, 57
1, 125569, Note_off_c, 0, 71, 56
1, 125569, Note_on_c, 0, 72, 65
1, 125587, Note_on_c, 0, 64, 49
1, 125598, Control_c, 0, 64, 63
1, 125613, Control_c, 0, 64, 69
1, 125628, Control_c, 0, 64, 73
1, 125643, Control_c, 0, 64, 76
1, 125658, Control_c, 0, 64, 78
1, 125659, Note_off_c, 0, 64, 54
1, 125673, Control_c, 0, 64, 80
1, 125677, Note_off_c, 0, 72, 58
1, 125687, Control_c, 0, 64, 81
1, 125689, Note_on_c, 0, 55, 42
1, 125692, Note_on_c, 0, 60, 60
1, 125700, Note_on_c, 0, 48, 46
1, 125702, Control_c, 0, 64, 83
1, 125717, Control_c, 0, 64, 84
1, 125732, Control_c, 0, 64, 85
1, 125747, Control_c, 0, 64, 86
1, 125759, Note_off_c, 0, 48, 43
1, 125761, Control_c, 0, 64, 87
1, 125776, Control_c, 0, 64, 87
1, 125783, Note_off_c, 0, 60, 50
1, 125791, Control_c, 0, 64, 88
1, 125802, Note_on_c, 0, 74, 84
1, 125805, Control_c, 0, 64, 89
1, 125813, Note_on_c, 0, 64, 67
1, 125813, Note_on_c, 0, 67, 68
1, 125820, Control_c, 0, 64, 89
1, 125831, Note_off_c, 0, 55, 37
1, 125850, Control_c, 0, 64, 90
1, 125879, Control_c, 0, 64, 90
1, 125906, Note_off_c, 0, 64, 60
1, 125922, Note_on_c, 0, 48, 51
1, 125926, Note_on_c, 0, 60, 49
1, 125934, Note_off_c, 0, 74, 63
1, 125937, Note_off_c, 0, 67, 56
1, 125944, Note_on_c, 0, 55, 53
1, 125989, Note_off_c, 0, 55, 61
1, 126028, Note_off_c, 0, 60, 54
1, 126036, Note_off_c, 0, 48, 55
1, 126038, Note_on_c, 0, 74, 89
1, 126051, Note_on_c, 0, 67, 76
1, 126053, Note_on_c, 0, 64, 70
1, 126103, Note_off_c, 0, 64, 47
1, 126110, Control_c, 0, 64, 90
1, 126141, Note_off_c, 0, 67, 56
1, 126146, Note_on_c, 0, 48, 59
1, 126155, Control_c, 0, 64, 89
1, 126156, Note_off_c, 0, 74, 62
1, 126159, Note_on_c, 0, 60, 64
1, 126184, Control_c, 0, 64, 89
1, 126199, Control_c, 0, 64, 88
1, 126214, Control_c, 0, 64, 87
1, 126228, Control_c, 0, 64, 86
1, 126229, Note_off_c, 0, 60, 47
1, 126243, Control_c, 0, 64, 85
1, 126258, Control_c, 0, 64, 84
1, 126273, Control_c, 0, 64, 82
1, 126288, Control_c, 0, 64, 80
1, 126293, Note_off_c, 0, 48, 33
1, 126294, Note_on_c, 0, 74, 75
1, 126302, Control_c, 0, 64, 77
1, 126312, Note_on_c, 0, 64, 59
1, 126317, Note_on_c, 0, 67, 57
1, 126317, Control_c, 0, 64, 72
1, 126332, Control_c, 0, 64, 64
1, 126347, Control_c, 0, 64, 28
1, 126362, Control_c, 0, 64, 0
1, 126421, Control_c, 0, 64, 52
1, 126436, Control_c, 0, 64, 62
1, 126451, Control_c, 0, 64, 66
1, 126457, Note_on_c, 0, 48, 38
1, 126466, Control_c, 0, 64, 70
1, 126468, Note_off_c, 0, 64, 60
1, 126469, Note_on_c, 0, 60, 37
1, 126469, Note_off_c, 0, 67, 61
1, 126469, Note_on_c, 0, 58, 35
1, 126481, Control_c, 0, 64, 74
1, 126496, Control_c, 0, 64, 77
1, 126510, Control_c, 0, 64, 79
1, 126525, Control_c, 0, 64, 80
1, 126538, Note_off_c, 0, 58, 59
1, 126540, Control_c, 0, 64, 81
1, 126549, Note_off_c, 0, 48, 57
1, 126554, Control_c, 0, 64, 81
1, 126560, Note_off_c, 0, 60, 58
1, 126567, Note_on_c, 0, 72, 72
1, 126591, Note_on_c, 0, 64, 56
1, 126594, Note_on_c, 0, 67, 52
1, 126608, Note_off_c, 0, 74, 59
1, 126639, Note_off_c, 0, 64, 44
1, 126664, Note_off_c, 0, 72, 61
1, 126666, Note_off_c, 0, 67, 53
1, 126689, Note_on_c, 0, 48, 55
1, 126693, Note_on_c, 0, 60, 58
1, 126702, Control_c, 0, 64, 81
1, 126713, Note_on_c, 0, 58, 43
1, 126733, Control_c, 0, 64, 80
1, 126760, Note_off_c, 0, 48, 63
1, 126770, Control_c, 0, 64, 79
1, 126771, Note_off_c, 0, 58, 56
1, 126785, Control_c, 0, 64, 78
1, 126800, Control_c, 0, 64, 77
1, 126814, Control_c, 0, 64, 74
1, 126815, Note_off_c, 0, 60, 54
1, 126821, Note_on_c, 0, 72, 65
1, 126829, Control_c, 0, 64, 69
1, 126832, Note_on_c, 0, 65, 54
1, 126844, Control_c, 0, 64, 62
1, 126858, Control_c, 0, 64, 45
1, 126873, Control_c, 0, 64, 47
1, 126888, Control_c, 0, 64, 57
1, 126903, Control_c, 0, 64, 63
1, 126918, Control_c, 0, 64, 65
1, 126932, Control_c, 0, 64, 68
1, 126940, Note_off_c, 0, 65, 55
1, 126947, Control_c, 0, 64, 72
1, 126949, Note_on_c, 0, 50, 45
1, 126952, Note_on_c, 0, 60, 54
1, 126956, Note_off_c, 0, 72, 59
1, 126958, Note_on_c, 0, 58, 35
1, 126962, Control_c, 0, 64, 75
1, 126977, Control_c, 0, 64, 77
1, 127006, Control_c, 0, 67, 126
1, 127021, Note_off_c, 0, 50, 55
1, 127021, Control_c, 0, 64, 76
1, 127021, Control_c, 0, 67, 125
1, 127036, Control_c, 0, 64, 73
1, 127036, Control_c, 0, 67, 124
1, 127051, Control_c, 0, 64, 69
1, 127051, Control_c, 0, 67, 123
1, 127053, Note_off_c, 0, 60, 56
1, 127060, Note_on_c, 0, 70, 65
1, 127064, Note_off_c, 0, 58, 36
1, 127065, Control_c, 0, 64, 67
1, 127065, Control_c, 0, 67, 122
1, 127068, Note_on_c, 0, 67, 61
1, 127080, Control_c, 0, 67, 119
1, 127095, Control_c, 0, 64, 68
1, 127095, Control_c, 0, 67, 116
1, 127110, Control_c, 0, 64, 69
1, 127110, Control_c, 0, 67, 113
1, 127125, Control_c, 0, 64, 70
1, 127125, Control_c, 0, 67, 112
1, 127140, Control_c, 0, 64, 71
1, 127140, Control_c, 0, 67, 111
1, 127155, Control_c, 0, 64, 72
1, 127157, Note_off_c, 0, 67, 52
1, 127162, Note_off_c, 0, 70, 56
1, 127169, Control_c, 0, 67, 110
1, 127184, Control_c, 0, 67, 110
1, 127187, Note_on_c, 0, 52, 47
1, 127193, Note_on_c, 0, 60, 45
1, 127199, Control_c, 0, 67, 109
1, 127222, Note_on_c, 0, 55, 22
1, 127223, Note_on_c, 0, 58, 24
1, 127235, Note_off_c, 0, 52, 62
1, 127259, Note_off_c, 0, 58, 53
1, 127264, Note_off_c, 0, 55, 46
1, 127273, Control_c, 0, 64, 71
1, 127288, Control_c, 0, 64, 71
1, 127318, Control_c, 0, 64, 70
1, 127321, Note_on_c, 0, 70, 61
1, 127332, Control_c, 0, 64, 70
1, 127337, Note_on_c, 0, 67, 43
1, 127347, Control_c, 0, 64, 69
1, 127347, Control_c, 0, 67, 109
1, 127362, Control_c, 0, 64, 67
1, 127376, Control_c, 0, 64, 65
1, 127376, Control_c, 0, 67, 110
1, 127391, Control_c, 0, 64, 62
1, 127391, Control_c, 0, 67, 110
1, 127406, Control_c, 0, 64, 56
1, 127421, Control_c, 0, 64, 43
1, 127421, Control_c, 0, 67, 111
1, 127427, Note_off_c, 0, 60, 52
1, 127436, Control_c, 0, 64, 0
1, 127450, Control_c, 0, 67, 111
1, 127465, Control_c, 0, 67, 112
1, 127480, Control_c, 0, 67, 112
1, 127485, Note_on_c, 0, 61, 41
1, 127503, Control_c, 0, 67, 113
1, 127513, Note_on_c, 0, 53, 24
1, 127518, Control_c, 0, 67, 114
1, 127534, Control_c, 0, 67, 115
1, 127549, Control_c, 0, 67, 116
1, 127561, Note_off_c, 0, 67, 53
1, 127563, Control_c, 0, 67, 117
1, 127574, Note_off_c, 0, 70, 46
1, 127578, Control_c, 0, 67, 118
1, 127593, Control_c, 0, 67, 119
1, 127604, Note_on_c, 0, 69, 52
1, 127605, Note_off_c, 0, 53, 43
1, 127608, Control_c, 0, 67, 121
1, 127620, Note_on_c, 0, 65, 46
1, 127620, Note_off_c, 0, 61, 60
1, 127623, Control_c, 0, 64, 50
1, 127623, Control_c, 0, 67, 125
1, 127637, Control_c, 0, 64, 65
1, 127637, Control_c, 0, 67, 127
1, 127652, Control_c, 0, 64, 68
1, 127667, Control_c, 0, 64, 71
1, 127670, Note_off_c, 0, 65, 62
1, 127680, Note_off_c, 0, 69, 66
1, 127682, Control_c, 0, 64, 73
1, 127697, Control_c, 0, 64, 74
1, 127712, Control_c, 0, 64, 74
1, 127727, Note_on_c, 0, 53, 50
1, 127737, Note_on_c, 0, 62, 51
1, 127795, Note_on_c, 0, 57, 11
1, 127807, Note_off_c, 0, 62, 53
1, 127810, Note_off_c, 0, 53, 63
1, 127841, Note_on_c, 0, 77, 87
1, 127841, Note_off_c, 0, 57, 43
1, 127856, Note_on_c, 0, 69, 70
1, 127857, Note_on_c, 0, 65, 68
1, 127874, Control_c, 0, 64, 75
1, 127889, Control_c, 0, 64, 75
1, 127904, Control_c, 0, 64, 76
1, 127919, Control_c, 0, 64, 77
1, 127944, Note_off_c, 0, 65, 60
1, 127962, Note_off_c, 0, 69, 61
1, 127966, Note_on_c, 0, 62, 51
1, 127971, Note_on_c, 0, 57, 40
1, 127974, Note_off_c, 0, 77, 59
1, 127977, Note_on_c, 0, 53, 50
1, 127995, Note_on_c, 0, 50, 46
1, 128064, Note_off_c, 0, 53, 62
1, 128067, Note_off_c, 0, 57, 47
1, 128070, Note_off_c, 0, 62, 52
1, 128076, Note_off_c, 0, 50, 43
1, 128080, Note_on_c, 0, 77, 94
1, 128087, Note_on_c, 0, 69, 78
1, 128089, Note_on_c, 0, 65, 79
1, 128165, Note_off_c, 0, 65, 58
1, 128171, Note_off_c, 0, 69, 61
1, 128205, Note_off_c, 0, 77, 61
1, 128208, Note_on_c, 0, 57, 57
1, 128210, Note_on_c, 0, 62, 59
1, 128213, Note_on_c, 0, 50, 49
1, 128215, Control_c, 0, 64, 77
1, 128218, Note_on_c, 0, 53, 47
1, 128245, Control_c, 0, 64, 76
1, 128267, Control_c, 0, 64, 75
1, 128281, Control_c, 0, 64, 74
1, 128296, Control_c, 0, 64, 72
1, 128311, Control_c, 0, 64, 71
1, 128327, Control_c, 0, 64, 69
1, 128332, Note_off_c, 0, 62, 54
1, 128340, Note_off_c, 0, 53, 60
1, 128341, Note_off_c, 0, 57, 59
1, 128342, Control_c, 0, 64, 66
1, 128351, Note_off_c, 0, 50, 49
1, 128357, Control_c, 0, 64, 63
1, 128365, Note_on_c, 0, 77, 83
1, 128372, Control_c, 0, 64, 53
1, 128375, Note_on_c, 0, 70, 70
1, 128377, Note_on_c, 0, 67, 71
1, 128386, Control_c, 0, 64, 0
1, 128475, Control_c, 0, 64, 40
1, 128490, Control_c, 0, 64, 58
1, 128505, Control_c, 0, 64, 64
1, 128520, Control_c, 0, 64, 68
1, 128535, Control_c, 0, 64, 71
1, 128544, Note_on_c, 0, 62, 40
1, 128547, Note_on_c, 0, 58, 42
1, 128550, Control_c, 0, 64, 74
1, 128556, Note_on_c, 0, 55, 36
1, 128558, Note_on_c, 0, 50, 27
1, 128564, Control_c, 0, 64, 76
1, 128570, Note_off_c, 0, 67, 61
1, 128579, Control_c, 0, 64, 76
1, 128592, Note_off_c, 0, 70, 62
1, 128648, Note_off_c, 0, 50, 50
1, 128655, Note_off_c, 0, 58, 61
1, 128659, Note_on_c, 0, 75, 76
1, 128664, Note_off_c, 0, 62, 57
1, 128672, Note_on_c, 0, 70, 61
1, 128681, Note_on_c, 0, 67, 63
1, 128693, Note_off_c, 0, 55, 40
1, 128693, Note_off_c, 0, 77, 59
1, 128761, Note_off_c, 0, 67, 56
1, 128775, Note_off_c, 0, 70, 58
1, 128792, Note_on_c, 0, 62, 52
1, 128800, Note_on_c, 0, 50, 41
1, 128800, Note_on_c, 0, 58, 44
1, 128814, Note_on_c, 0, 55, 38
1, 128875, Control_c, 0, 64, 75
1, 128882, Note_off_c, 0, 75, 30
1, 128890, Control_c, 0, 64, 72
1, 128896, Note_on_c, 0, 74, 69
1, 128901, Note_off_c, 0, 50, 53
1, 128904, Control_c, 0, 64, 66
1, 128910, Note_on_c, 0, 67, 57
1, 128912, Note_on_c, 0, 70, 52
1, 128914, Note_off_c, 0, 62, 57
1, 128918, Note_off_c, 0, 58, 61
1, 128919, Control_c, 0, 64, 63
1, 128932, Note_off_c, 0, 55, 48
1, 128934, Control_c, 0, 64, 64
1, 128949, Control_c, 0, 64, 65
1, 128964, Control_c, 0, 64, 67
1, 128979, Control_c, 0, 64, 68
1, 128994, Control_c, 0, 64, 70
1, 129014, Note_off_c, 0, 67, 54
1, 129016, Control_c, 0, 64, 73
1, 129030, Control_c, 0, 64, 75
1, 129038, Note_off_c, 0, 70, 56
1, 129045, Control_c, 0, 64, 76
1, 129047, Note_on_c, 0, 62, 51
1, 129063, Note_on_c, 0, 58, 45
1, 129066, Note_on_c, 0, 50, 41
1, 129074, Note_on_c, 0, 55, 35
1, 129090, Control_c, 0, 64, 75
1, 129104, Control_c, 0, 64, 72
1, 129119, Control_c, 0, 64, 68
1, 129128, Note_off_c, 0, 50, 57
1, 129135, Control_c, 0, 64, 66
1, 129150, Control_c, 0, 64, 66
1, 129152, Note_off_c, 0, 62, 54
1, 129156, Note_off_c, 0, 58, 60
1, 129158, Note_on_c, 0, 73, 68
1, 129161, Note_off_c, 0, 74, 60
1, 129164, Note_on_c, 0, 70, 56
1, 129165, Control_c, 0, 64, 68
1, 129166, Note_on_c, 0, 67, 49
1, 129179, Note_off_c, 0, 55, 39
1, 129179, Control_c, 0, 64, 69
1, 129194, Control_c, 0, 64, 70
1, 129209, Control_c, 0, 64, 72
1, 129211, Note_off_c, 0, 67, 59
1, 129224, Control_c, 0, 64, 73
1, 129247, Note_off_c, 0, 70, 53
1, 129284, Note_on_c, 0, 50, 37
1, 129287, Note_on_c, 0, 62, 48
1, 129292, Note_off_c, 0, 73, 58
1, 129301, Note_on_c, 0, 58, 45
1, 129316, Note_on_c, 0, 55, 34
1, 129342, Control_c, 0, 64, 72
1, 129357, Control_c, 0, 64, 70
1, 129370, Note_off_c, 0, 58, 55
1, 129372, Control_c, 0, 64, 68
1, 129387, Control_c, 0, 64, 66
1, 129390, Note_off_c, 0, 62, 47
1, 129394, Note_off_c, 0, 50, 36
1, 129402, Control_c, 0, 64, 64
1, 129415, Note_on_c, 0, 73, 64
1, 129417, Control_c, 0, 64, 60
1, 129427, Note_on_c, 0, 69, 52
1, 129432, Note_on_c, 0, 65, 44
1, 129432, Control_c, 0, 64, 52
1, 129446, Control_c, 0, 64, 31
1, 129461, Control_c, 0, 64, 0
1, 129513, Note_off_c, 0, 69, 61
1, 129521, Note_off_c, 0, 65, 56
1, 129524, Note_off_c, 0, 55, 43
1, 129543, Note_on_c, 0, 62, 35
1, 129569, Note_on_c, 0, 57, 29
1, 129575, Note_on_c, 0, 53, 38
1, 129602, Poly_aftertouch_c, 0, 50, 127
1, 129668, Note_off_c, 0, 73, 54
1, 129669, Poly_aftertouch_c, 0, 50, 0
1, 129675, Note_off_c, 0, 53, 55
1, 129682, Note_on_c, 0, 74, 51
1, 129693, Note_on_c, 0, 65, 43
1, 129695, Note_on_c, 0, 69, 37
1, 129695, Note_off_c, 0, 62, 46
1, 129698, Control_c, 0, 64, 47
1, 129700, Note_off_c, 0, 57, 52
1, 129713, Control_c, 0, 64, 65
1, 129727, Control_c, 0, 64, 68
1, 129750, Control_c, 0, 64, 71
1, 129765, Control_c, 0, 64, 73
1, 129769, Note_off_c, 0, 65, 59
1, 129779, Note_off_c, 0, 74, 63
1, 129779, Control_c, 0, 64, 74
1, 129791, Note_off_c, 0, 69, 59
1, 129794, Control_c, 0, 64, 75
1, 129813, Note_on_c, 0, 62, 45
1, 129825, Note_on_c, 0, 57, 44
1, 129836, Note_on_c, 0, 53, 38
1, 129850, Note_on_c, 0, 50, 16
1, 129898, Control_c, 0, 64, 74
1, 129913, Control_c, 0, 64, 71
1, 129929, Control_c, 0, 64, 67
1, 129935, Note_off_c, 0, 57, 45
1, 129942, Note_off_c, 0, 62, 55
1, 129944, Control_c, 0, 64, 65
1, 129954, Note_off_c, 0, 50, 35
1, 129958, Note_on_c, 0, 77, 62
1, 129958, Control_c, 0, 64, 65
1, 129959, Note_off_c, 0, 53, 39
1, 129973, Note_on_c, 0, 65, 48
1, 129973, Control_c, 0, 64, 67
1, 129983, Note_on_c, 0, 69, 41
1, 129988, Control_c, 0, 64, 68
1, 130002, Control_c, 0, 64, 71
1, 130017, Control_c, 0, 64, 73
1, 130032, Control_c, 0, 64, 74
1, 130047, Control_c, 0, 64, 75
1, 130058, Note_off_c, 0, 65, 57
1, 130062, Control_c, 0, 64, 76
1, 130081, Note_off_c, 0, 77, 57
1, 130082, Note_off_c, 0, 69, 63
1, 130116, Note_on_c, 0, 62, 34
1, 130121, Note_on_c, 0, 57, 29
1, 130121, Control_c, 0, 64, 77
1, 130126, Note_on_c, 0, 53, 28
1, 130136, Note_on_c, 0, 50, 25
1, 130231, Note_off_c, 0, 57, 38
1, 130246, Note_on_c, 0, 77, 59
1, 130247, Note_off_c, 0, 53, 41
1, 130248, Note_off_c, 0, 50, 34
1, 130258, Note_on_c, 0, 65, 53
1, 130258, Note_on_c, 0, 69, 48
1, 130264, Note_off_c, 0, 62, 35
1, 130284, Control_c, 0, 64, 76
1, 130308, Note_off_c, 0, 65, 57
1, 130319, Note_off_c, 0, 69, 60
1, 130329, Control_c, 0, 64, 76
1, 130349, Note_off_c, 0, 77, 53
1, 130388, Control_c, 0, 64, 75
1, 130389, Note_on_c, 0, 57, 41
1, 130392, Note_on_c, 0, 62, 34
1, 130401, Note_on_c, 0, 53, 28
1, 130420, Note_on_c, 0, 50, 8
1, 130432, Note_off_c, 0, 57, 57
1, 130432, Control_c, 0, 64, 74
1, 130447, Control_c, 0, 64, 73
1, 130451, Note_off_c, 0, 53, 47
1, 130462, Control_c, 0, 64, 72
1, 130472, Note_off_c, 0, 50, 47
1, 130476, Control_c, 0, 64, 68
1, 130499, Control_c, 0, 64, 63
1, 130514, Control_c, 0, 64, 46
1, 130515, Note_off_c, 0, 62, 27
1, 130528, Control_c, 0, 64, 0
1, 130537, Note_on_c, 0, 77, 53
1, 130548, Note_on_c, 0, 67, 45
1, 130553, Note_on_c, 0, 70, 47
1, 130573, Control_c, 0, 64, 36
1, 130588, Control_c, 0, 64, 52
1, 130602, Control_c, 0, 64, 59
1, 130617, Control_c, 0, 64, 63
1, 130632, Control_c, 0, 64, 65
1, 130647, Control_c, 0, 64, 67
1, 130662, Control_c, 0, 64, 69
1, 130664, Note_off_c, 0, 67, 55
1, 130676, Control_c, 0, 64, 69
1, 130685, Note_off_c, 0, 70, 58
1, 130696, Note_on_c, 0, 62, 32
1, 130701, Note_on_c, 0, 58, 34
1, 130706, Control_c, 0, 64, 68
1, 130720, Note_off_c, 0, 77, 48
1, 130721, Control_c, 0, 64, 66
1, 130723, Note_on_c, 0, 55, 21
1, 130732, Note_on_c, 0, 50, 26
1, 130737, Control_c, 0, 64, 65
1, 130752, Control_c, 0, 64, 66
1, 130767, Control_c, 0, 64, 66
1, 130781, Control_c, 0, 64, 67
1, 130796, Control_c, 0, 64, 68
1, 130811, Control_c, 0, 64, 69
1, 130818, Note_off_c, 0, 58, 52
1, 130820, Note_off_c, 0, 50, 34
1, 130839, Note_off_c, 0, 55, 36
1, 130841, Note_on_c, 0, 75, 56
1, 130842, Note_on_c, 0, 70, 41
1, 130850, Note_on_c, 0, 67, 48
1, 130851, Note_off_c, 0, 62, 37
1, 130899, Control_c, 0, 64, 70
1, 130914, Control_c, 0, 64, 71
1, 130929, Control_c, 0, 64, 71
1, 130948, Note_off_c, 0, 67, 51
1, 130971, Note_off_c, 0, 70, 54
1, 130991, Note_off_c, 0, 75, 55
1, 131010, Note_on_c, 0, 62, 30
1, 131015, Note_on_c, 0, 58, 22
1, 131041, Note_on_c, 0, 50, 31
1, 131041, Note_on_c, 0, 55, 20
1, 131062, Control_c, 0, 64, 72
1, 131151, Control_c, 0, 64, 70
1, 131166, Control_c, 0, 64, 67
1, 131181, Control_c, 0, 64, 64
1, 131188, Note_off_c, 0, 50, 35
1, 131191, Note_on_c, 0, 74, 51
1, 131195, Note_on_c, 0, 70, 43
1, 131196, Control_c, 0, 64, 64
1, 131197, Note_on_c, 0, 67, 41
1, 131203, Note_off_c, 0, 58, 42
1, 131211, Control_c, 0, 64, 66
1, 131220, Note_off_c, 0, 55, 42
1, 131223, Note_off_c, 0, 62, 38
1, 131225, Control_c, 0, 64, 67
1, 131247, Control_c, 0, 64, 69
1, 131262, Control_c, 0, 64, 71
1, 131277, Control_c, 0, 64, 72
1, 131292, Control_c, 0, 64, 73
1, 131307, Control_c, 0, 64, 73
1, 131375, Note_off_c, 0, 67, 37
1, 131381, Note_off_c, 0, 70, 56
1, 131395, Note_on_c, 0, 62, 38
1, 131408, Note_on_c, 0, 58, 28
1, 131414, Note_on_c, 0, 55, 31
1, 131420, Note_on_c, 0, 50, 32
1, 131575, Control_c, 0, 64, 73
1, 131590, Control_c, 0, 64, 72
1, 131604, Control_c, 0, 64, 70
1, 131612, Note_off_c, 0, 74, 41
1, 131617, Note_off_c, 0, 58, 57
1, 131619, Control_c, 0, 64, 67
1, 131623, Note_off_c, 0, 50, 40
1, 131629, Note_on_c, 0, 73, 53
1, 131634, Control_c, 0, 64, 65
1, 131636, Note_off_c, 0, 55, 41
1, 131641, Note_on_c, 0, 70, 47
1, 131643, Note_off_c, 0, 62, 40
1, 131648, Control_c, 0, 64, 63
1, 131650, Note_on_c, 0, 67, 39
1, 131663, Control_c, 0, 64, 62
1, 131678, Control_c, 0, 64, 62
1, 131693, Control_c, 0, 64, 60
1, 131708, Control_c, 0, 64, 59
1, 131722, Control_c, 0, 64, 59
1, 131737, Control_c, 0, 64, 60
1, 131752, Control_c, 0, 64, 61
1, 131767, Control_c, 0, 64, 61
1, 131781, Control_c, 0, 64, 63
1, 131796, Control_c, 0, 64, 64
1, 131811, Control_c, 0, 64, 65
1, 131826, Control_c, 0, 64, 66
1, 131840, Control_c, 0, 64, 68
1, 131852, Note_off_c, 0, 67, 37
1, 131855, Control_c, 0, 64, 69
1, 131870, Control_c, 0, 64, 71
1, 131873, Note_on_c, 0, 58, 14
1, 131878, Note_on_c, 0, 62, 32
1, 131882, Note_on_c, 0, 50, 18
1, 131885, Control_c, 0, 64, 73
1, 131891, Note_on_c, 0, 55, 39
1, 131900, Control_c, 0, 64, 74
1, 131915, Control_c, 0, 64, 76
1, 131930, Control_c, 0, 64, 78
1, 131945, Control_c, 0, 64, 79
1, 131952, Note_off_c, 0, 58, 52
1, 131960, Control_c, 0, 64, 79
1, 132148, Note_off_c, 0, 55, 41
1, 132183, Note_off_c, 0, 70, 22
1, 132213, Note_off_c, 0, 73, 29
1, 132219, Control_c, 0, 64, 79
1, 132234, Control_c, 0, 64, 78
1, 132263, Control_c, 0, 64, 78
1, 132278, Control_c, 0, 64, 76
1, 132293, Control_c, 0, 64, 75
1, 132308, Control_c, 0, 64, 72
1, 132323, Control_c, 0, 64, 70
1, 132328, Note_on_c, 0, 65, 33
1, 132338, Control_c, 0, 64, 67
1, 132341, Note_on_c, 0, 69, 31
1, 132342, Note_on_c, 0, 74, 33
1, 132347, Note_on_c, 0, 53, 29
1, 132347, Note_on_c, 0, 57, 22
1, 132353, Control_c, 0, 64, 64
1, 132368, Control_c, 0, 64, 58
1, 132383, Control_c, 0, 64, 52
1, 132397, Control_c, 0, 64, 45
1, 132412, Control_c, 0, 64, 24
1, 132427, Control_c, 0, 64, 0
1, 132604, Control_c, 0, 67, 127
1, 132619, Control_c, 0, 67, 122
1, 132634, Control_c, 0, 67, 115
1, 132649, Control_c, 0, 67, 106
1, 132664, Control_c, 0, 67, 93
1, 132678, Control_c, 0, 67, 80
1, 132693, Control_c, 0, 67, 67
1, 132708, Control_c, 0, 67, 53
1, 132723, Control_c, 0, 67, 42
1, 132745, Control_c, 0, 67, 33
1, 132760, Control_c, 0, 67, 24
1, 132775, Control_c, 0, 67, 17
1, 132790, Control_c, 0, 64, 37
1, 132790, Control_c, 0, 67, 10
1, 132804, Control_c, 0, 64, 58
1, 132804, Control_c, 0, 67, 0
1, 132819, Control_c, 0, 64, 63
1, 132834, Control_c, 0, 64, 64
1, 132849, Control_c, 0, 64, 66
1, 132864, Control_c, 0, 64, 68
1, 132878, Control_c, 0, 64, 71
1, 132893, Control_c, 0, 64, 74
1, 132908, Control_c, 0, 64, 76
1, 132923, Control_c, 0, 64, 78
1, 132937, Control_c, 0, 64, 80
1, 132952, Control_c, 0, 64, 81
1, 132967, Control_c, 0, 64, 83
1, 132982, Control_c, 0, 64, 85
1, 132997, Control_c, 0, 64, 87
1, 133012, Control_c, 0, 64, 89
1, 133027, Control_c, 0, 64, 91
1, 133042, Control_c, 0, 64, 92
1, 133057, Control_c, 0, 64, 93
1, 133071, Control_c, 0, 64, 94
1, 133083, Note_off_c, 0, 65, 52
1, 133101, Control_c, 0, 64, 95
1, 133146, Control_c, 0, 64, 95
1, 133153, Note_off_c, 0, 50, 48
1, 133176, Note_off_c, 0, 53, 54
1, 133176, Control_c, 0, 64, 96
1, 133179, Note_off_c, 0, 69, 58
1, 133182, Note_off_c, 0, 57, 53
1, 133200, Note_off_c, 0, 74, 65
1, 133231, Note_off_c, 0, 62, 53
1, 133235, Control_c, 0, 64, 96
1, 133383, Control_c, 0, 64, 95
1, 133398, Control_c, 0, 64, 90
1, 133403, Note_on_c, 0, 81, 83
1, 133405, Note_on_c, 0, 69, 69
1, 133411, Note_on_c, 0, 74, 68
1, 133413, Control_c, 0, 64, 78
1, 133414, Note_on_c, 0, 65, 62
1, 133415, Note_on_c, 0, 62, 55
1, 133417, Note_on_c, 0, 77, 58
1, 133422, Note_off_c, 0, 81, 69
1, 133424, Note_off_c, 0, 69, 67
1, 133427, Note_off_c, 0, 74, 67
1, 133428, Control_c, 0, 64, 66
1, 133433, Note_off_c, 0, 65, 63
1, 133437, Note_off_c, 0, 77, 51
1, 133438, Note_off_c, 0, 62, 60
1, 133443, Control_c, 0, 64, 0
1, 133688, Note_on_c, 0, 65, 52
1, 133690, Note_on_c, 0, 57, 49
1, 133691, Note_on_c, 0, 62, 49
1, 133692, Note_on_c, 0, 69, 54
1, 133700, Note_on_c, 0, 38, 42
1, 133702, Control_c, 0, 64, 62
1, 133715, Note_off_c, 0, 57, 52
1, 133716, Note_off_c, 0, 62, 60
1, 133717, Control_c, 0, 64, 68
1, 133720, Note_off_c, 0, 65, 67
1, 133732, Note_off_c, 0, 38, 56
1, 133732, Control_c, 0, 64, 70
1, 133735, Note_off_c, 0, 69, 65
1, 133746, Control_c, 0, 64, 73
1, 133761, Control_c, 0, 64, 74
1, 133776, Control_c, 0, 64, 76
1, 133791, Control_c, 0, 64, 77
1, 133850, Control_c, 0, 64, 76
1, 133865, Control_c, 0, 64, 70
1, 133880, Control_c, 0, 64, 61
1, 133894, Control_c, 0, 64, 0
1, 133909, Control_c, 0, 64, 44
1, 133925, Control_c, 0, 64, 64
1, 133930, Note_on_c, 0, 68, 72
1, 133933, Note_on_c, 0, 62, 52
1, 133934, Note_on_c, 0, 47, 62
1, 133936, Note_on_c, 0, 65, 48
1, 133940, Control_c, 0, 64, 70
1, 133941, Note_on_c, 0, 35, 47
1, 133955, Control_c, 0, 64, 77
1, 133957, Note_off_c, 0, 68, 69
1, 133958, Note_off_c, 0, 62, 55
1, 133960, Note_off_c, 0, 47, 66
1, 133960, Note_off_c, 0, 65, 58
1, 133969, Control_c, 0, 64, 84
1, 133973, Note_off_c, 0, 35, 51
1, 133984, Control_c, 0, 64, 89
1, 133999, Control_c, 0, 64, 91
1, 134148, Control_c, 0, 64, 88
1, 134162, Control_c, 0, 64, 80
1, 134177, Control_c, 0, 64, 65
1, 134184, Note_on_c, 0, 74, 74
1, 134187, Note_on_c, 0, 77, 73
1, 134187, Note_on_c, 0, 79, 71
1, 134190, Note_on_c, 0, 71, 74
1, 134192, Control_c, 0, 64, 0
1, 134207, Note_off_c, 0, 74, 71
1, 134211, Note_off_c, 0, 77, 67
1, 134211, Note_off_c, 0, 79, 68
1, 134213, Note_off_c, 0, 71, 68
1, 134428, Note_on_c, 0, 86, 82
1, 134431, Note_on_c, 0, 76, 78
1, 134431, Note_on_c, 0, 79, 76
1, 134433, Note_on_c, 0, 70, 77
1, 134446, Note_off_c, 0, 86, 71
1, 134450, Note_off_c, 0, 76, 73
1, 134451, Note_off_c, 0, 79, 70
1, 134453, Note_off_c, 0, 70, 71
1, 134684, Note_on_c, 0, 43, 65
1, 134684, Note_on_c, 0, 67, 73
1, 134687, Note_on_c, 0, 55, 73
1, 134688, Note_on_c, 0, 64, 66
1, 134689, Control_c, 0, 64, 58
1, 134693, Note_on_c, 0, 74, 64
1, 134703, Control_c, 0, 64, 67
1, 134720, Control_c, 0, 64, 70
1, 134735, Control_c, 0, 64, 72
1, 134738, Note_off_c, 0, 43, 59
1, 134743, Note_off_c, 0, 74, 61
1, 134749, Control_c, 0, 64, 74
1, 134750, Note_off_c, 0, 67, 60
1, 134760, Note_off_c, 0, 64, 51
1, 134764, Control_c, 0, 64, 75
1, 134765, Note_off_c, 0, 55, 48
1, 134779, Control_c, 0, 64, 75
1, 134838, Control_c, 0, 64, 73
1, 134853, Control_c, 0, 64, 63
1, 134867, Control_c, 0, 64, 0
1, 134912, Control_c, 0, 64, 41
1, 134920, Note_on_c, 0, 57, 92
1, 134923, Note_on_c, 0, 69, 79
1, 134927, Note_on_c, 0, 45, 70
1, 134927, Note_on_c, 0, 67, 68
1, 134927, Note_on_c, 0, 73, 80
1, 134927, Control_c, 0, 64, 66
1, 134928, Note_on_c, 0, 64, 65
1, 134941, Control_c, 0, 64, 75
1, 134944, Note_off_c, 0, 64, 66
1, 134944, Note_off_c, 0, 69, 73
1, 134947, Note_off_c, 0, 45, 64
1, 134953, Note_off_c, 0, 67, 68
1, 134956, Control_c, 0, 64, 83
1, 134959, Note_off_c, 0, 57, 65
1, 134970, Note_off_c, 0, 73, 65
1, 134971, Control_c, 0, 64, 87
1, 134993, Control_c, 0, 64, 89
1, 135125, Control_c, 0, 64, 87
1, 135140, Control_c, 0, 64, 79
1, 135155, Control_c, 0, 64, 69
1, 135161, Note_on_c, 0, 71, 81
1, 135165, Note_on_c, 0, 80, 91
1, 135166, Note_on_c, 0, 65, 87
1, 135168, Note_on_c, 0, 77, 78
1, 135170, Control_c, 0, 64, 46
1, 135174, Note_on_c, 0, 62, 78
1, 135181, Note_off_c, 0, 71, 69
1, 135185, Control_c, 0, 64, 0
1, 135192, Note_off_c, 0, 77, 64
1, 135197, Note_off_c, 0, 65, 67
1, 135202, Note_off_c, 0, 80, 67
1, 135211, Note_off_c, 0, 62, 63
1, 135385, Note_on_c, 0, 76, 90
1, 135386, Note_on_c, 0, 88, 87
1, 135388, Note_on_c, 0, 69, 87
1, 135389, Note_on_c, 0, 61, 75
1, 135389, Note_on_c, 0, 80, 52
1, 135396, Note_on_c, 0, 64, 76
1, 135408, Note_on_c, 0, 79, 51
1, 135409, Note_off_c, 0, 88, 63
1, 135410, Note_off_c, 0, 76, 66
1, 135411, Note_on_c, 0, 89, 35
1, 135412, Note_off_c, 0, 89, 127
1, 135413, Note_off_c, 0, 69, 67
1, 135419, Note_off_c, 0, 64, 70
1, 135420, Note_off_c, 0, 80, 66
1, 135430, Note_off_c, 0, 79, 38
1, 135437, Note_off_c, 0, 61, 66
1, 135626, Note_on_c, 0, 67, 91
1, 135628, Note_on_c, 0, 69, 90
1, 135631, Note_on_c, 0, 33, 83
1, 135632, Note_on_c, 0, 45, 89
1, 135644, Control_c, 0, 64, 36
1, 135659, Control_c, 0, 64, 66
1, 135673, Note_off_c, 0, 67, 62
1, 135674, Control_c, 0, 64, 72
1, 135681, Note_off_c, 0, 33, 64
1, 135686, Note_off_c, 0, 45, 64
1, 135689, Control_c, 0, 64, 76
1, 135690, Note_off_c, 0, 69, 66
1, 135704, Control_c, 0, 64, 78
1, 135719, Control_c, 0, 64, 79
1, 135770, Control_c, 0, 64, 79
1, 135785, Control_c, 0, 64, 74
1, 135800, Control_c, 0, 64, 64
1, 135814, Control_c, 0, 64, 0
1, 135859, Control_c, 0, 64, 47
1, 135862, Note_on_c, 0, 69, 92
1, 135862, Note_on_c, 0, 65, 91
1, 135865, Note_on_c, 0, 50, 101
1, 135866, Note_on_c, 0, 74, 81
1, 135868, Note_on_c, 0, 38, 89
1, 135868, Note_on_c, 0, 77, 85
1, 135874, Control_c, 0, 64, 68
1, 135889, Note_off_c, 0, 65, 65
1, 135889, Control_c, 0, 64, 78
1, 135895, Note_off_c, 0, 38, 65
1, 135899, Note_off_c, 0, 69, 67
1, 135903, Control_c, 0, 64, 90
1, 135904, Note_off_c, 0, 50, 66
1, 135912, Note_off_c, 0, 74, 68
1, 135917, Note_off_c, 0, 77, 64
1, 135918, Control_c, 0, 64, 96
1, 135933, Control_c, 0, 64, 96
1, 136082, Control_c, 0, 64, 92
1, 136094, Note_on_c, 0, 69, 96
1, 136094, Note_on_c, 0, 74, 96
1, 136096, Control_c, 0, 64, 82
1, 136100, Note_on_c, 0, 62, 97
1, 136107, Note_on_c, 0, 57, 78
1, 136109, Note_on_c, 0, 53, 76
1, 136111, Control_c, 0, 64, 70
1, 136124, Note_off_c, 0, 69, 66
1, 136126, Control_c, 0, 64, 41
1, 136133, Note_off_c, 0, 62, 62
1, 136134, Note_off_c, 0, 74, 70
1, 136134, Note_off_c, 0, 57, 67
1, 136140, Control_c, 0, 64, 0
1, 136152, Note_off_c, 0, 53, 67
1, 136308, Note_on_c, 0, 70, 104
1, 136308, Note_on_c, 0, 82, 97
1, 136312, Note_on_c, 0, 75, 84
1, 136313, Note_on_c, 0, 67, 96
1, 136317, Note_on_c, 0, 58, 70
1, 136318, Note_on_c, 0, 63, 91
1, 136319, Note_on_c, 0, 79, 76
1, 136325, Note_on_c, 0, 55, 71
1, 136342, Note_off_c, 0, 79, 66
1, 136342, Note_off_c, 0, 70, 63
1, 136344, Note_off_c, 0, 67, 67
1, 136349, Note_off_c, 0, 82, 64
1, 136355, Note_off_c, 0, 75, 64
1, 136357, Note_off_c, 0, 63, 64
1, 136359, Note_off_c, 0, 55, 65
1, 136366, Note_off_c, 0, 58, 66
1, 136550, Note_on_c, 0, 46, 101
1, 136553, Note_on_c, 0, 67, 91
1, 136553, Poly_aftertouch_c, 0, 66, 0
1, 136555, Note_on_c, 0, 62, 95
1, 136560, Note_on_c, 0, 34, 85
1, 136593, Control_c, 0, 64, 64
1, 136602, Note_off_c, 0, 62, 63
1, 136608, Control_c, 0, 64, 70
1, 136623, Control_c, 0, 64, 74
1, 136637, Control_c, 0, 64, 77
1, 136651, Note_off_c, 0, 67, 58
1, 136652, Control_c, 0, 64, 79
1, 136664, Note_off_c, 0, 46, 61
1, 136667, Control_c, 0, 64, 79
1, 136669, Note_off_c, 0, 34, 65
1, 136711, Control_c, 0, 64, 76
1, 136726, Control_c, 0, 64, 66
1, 136741, Control_c, 0, 64, 0
1, 136767, Note_on_c, 0, 61, 89
1, 136770, Note_on_c, 0, 64, 83
1, 136771, Note_on_c, 0, 73, 87
1, 136774, Note_on_c, 0, 33, 80
1, 136775, Note_on_c, 0, 69, 78
1, 136776, Note_on_c, 0, 45, 83
1, 136777, Note_on_c, 0, 47, 91
1, 136786, Control_c, 0, 64, 64
1, 136790, Note_off_c, 0, 61, 67
1, 136798, Note_on_c, 0, 35, 52
1, 136801, Note_off_c, 0, 47, 71
1, 136801, Control_c, 0, 64, 73
1, 136803, Note_off_c, 0, 45, 69
1, 136803, Note_off_c, 0, 33, 66
1, 136803, Note_off_c, 0, 64, 65
1, 136816, Note_off_c, 0, 69, 67
1, 136816, Control_c, 0, 64, 82
1, 136829, Note_off_c, 0, 35, 55
1, 136831, Control_c, 0, 64, 87
1, 136834, Note_off_c, 0, 73, 63
1, 136845, Control_c, 0, 64, 87
1, 136875, Control_c, 0, 64, 86
1, 136890, Control_c, 0, 64, 84
1, 136905, Control_c, 0, 64, 81
1, 136919, Control_c, 0, 64, 79
1, 136934, Control_c, 0, 64, 77
1, 136949, Control_c, 0, 64, 72
1, 136963, Control_c, 0, 64, 64
1, 136978, Control_c, 0, 64, 0
1, 137000, Note_on_c, 0, 61, 53
1, 137001, Note_on_c, 0, 67, 73
1, 137005, Note_on_c, 0, 69, 75
1, 137019, Note_on_c, 0, 64, 40
1, 137026, Note_off_c, 0, 67, 68
1, 137027, Note_off_c, 0, 69, 71
1, 137038, Note_off_c, 0, 61, 61
1, 137045, Note_off_c, 0, 64, 49
1, 137222, Note_on_c, 0, 69, 66
1, 137224, Note_on_c, 0, 81, 62
1, 137224, Note_on_c, 0, 62, 66
1, 137224, Note_on_c, 0, 77, 63
1, 137226, Note_on_c, 0, 65, 61
1, 137227, Note_on_c, 0, 74, 58
1, 137248, Note_off_c, 0, 81, 62
1, 137248, Note_off_c, 0, 69, 68
1, 137250, Note_off_c, 0, 77, 64
1, 137253, Note_off_c, 0, 65, 63
1, 137253, Note_off_c, 0, 74, 65
1, 137262, Note_off_c, 0, 62, 64
1, 137442, Note_on_c, 0, 38, 59
1, 137449, Note_on_c, 0, 50, 58
1, 137453, Note_on_c, 0, 69, 58
1, 137457, Note_on_c, 0, 62, 58
1, 137463, Note_on_c, 0, 60, 55
1, 137471, Note_on_c, 0, 65, 49
1, 137475, Control_c, 0, 64, 63
1, 137485, Note_off_c, 0, 38, 61
1, 137490, Control_c, 0, 64, 69
1, 137501, Note_off_c, 0, 62, 60
1, 137501, Note_off_c, 0, 50, 59
1, 137501, Note_off_c, 0, 60, 62
1, 137505, Control_c, 0, 64, 73
1, 137508, Note_off_c, 0, 65, 64
1, 137514, Note_off_c, 0, 69, 53
1, 137520, Control_c, 0, 64, 75
1, 137535, Control_c, 0, 64, 77
1, 137549, Control_c, 0, 64, 77
1, 137594, Control_c, 0, 64, 75
1, 137609, Control_c, 0, 64, 69
1, 137623, Control_c, 0, 64, 32
1, 137638, Control_c, 0, 64, 0
1, 137668, Note_on_c, 0, 67, 78
1, 137668, Control_c, 0, 64, 42
1, 137674, Note_on_c, 0, 55, 70
1, 137675, Note_on_c, 0, 43, 68
1, 137680, Note_on_c, 0, 62, 57
1, 137683, Control_c, 0, 64, 65
1, 137689, Note_on_c, 0, 59, 42
1, 137698, Control_c, 0, 64, 71
1, 137703, Note_off_c, 0, 43, 62
1, 137703, Note_off_c, 0, 62, 58
1, 137704, Note_off_c, 0, 67, 65
1, 137709, Note_off_c, 0, 55, 65
1, 137712, Control_c, 0, 64, 77
1, 137716, Note_off_c, 0, 59, 53
1, 137727, Control_c, 0, 64, 81
1, 137742, Control_c, 0, 64, 83
1, 137757, Control_c, 0, 64, 83
1, 137846, Control_c, 0, 64, 83
1, 137860, Control_c, 0, 64, 80
1, 137875, Control_c, 0, 64, 73
1, 137890, Control_c, 0, 64, 61
1, 137898, Note_on_c, 0, 59, 47
1, 137899, Note_on_c, 0, 62, 58
1, 137901, Note_on_c, 0, 71, 63
1, 137902, Note_on_c, 0, 74, 61
1, 137903, Note_on_c, 0, 67, 72
1, 137903, Note_on_c, 0, 77, 69
1, 137904, Note_on_c, 0, 79, 64
1, 137906, Control_c, 0, 64, 0
1, 137919, Note_off_c, 0, 71, 62
1, 137927, Note_off_c, 0, 74, 67
1, 137927, Note_off_c, 0, 67, 67
1, 137929, Note_off_c, 0, 77, 66
1, 137933, Note_off_c, 0, 59, 64
1, 137935, Note_off_c, 0, 79, 64
1, 137936, Note_off_c, 0, 62, 62
1, 138122, Note_on_c, 0, 72, 80
1, 138124, Note_on_c, 0, 67, 75
1, 138124, Note_on_c, 0, 79, 80
1, 138126, Note_on_c, 0, 75, 76
1, 138133, Note_on_c, 0, 60, 64
1, 138133, Note_on_c, 0, 63, 66
1, 138142, Note_off_c, 0, 72, 71
1, 138146, Note_off_c, 0, 67, 69
1, 138146, Note_off_c, 0, 79, 67
1, 138146, Note_off_c, 0, 75, 70
1, 138161, Note_off_c, 0, 63, 66
1, 138163, Note_off_c, 0, 60, 65
1, 138354, Note_on_c, 0, 67, 68
1, 138358, Note_on_c, 0, 48, 70
1, 138360, Note_on_c, 0, 36, 72
1, 138360, Note_on_c, 0, 58, 65
1, 138372, Note_on_c, 0, 60, 60
1, 138387, Control_c, 0, 64, 64
1, 138393, Note_off_c, 0, 58, 65
1, 138397, Note_off_c, 0, 36, 63
1, 138402, Control_c, 0, 64, 70
1, 138405, Note_off_c, 0, 48, 64
1, 138413, Note_off_c, 0, 60, 56
1, 138416, Control_c, 0, 64, 73
1, 138424, Note_off_c, 0, 67, 58
1, 138431, Control_c, 0, 64, 76
1, 138446, Control_c, 0, 64, 76
1, 138491, Control_c, 0, 64, 76
1, 138506, Control_c, 0, 64, 72
1, 138521, Control_c, 0, 64, 64
1, 138536, Control_c, 0, 64, 0
1, 138578, Note_on_c, 0, 53, 81
1, 138578, Note_on_c, 0, 65, 76
1, 138579, Note_on_c, 0, 41, 72
1, 138579, Note_on_c, 0, 57, 71
1, 138580, Control_c, 0, 64, 61
1, 138586, Note_on_c, 0, 63, 66
1, 138591, Note_on_c, 0, 60, 53
1, 138595, Control_c, 0, 64, 69
1, 138599, Note_on_c, 0, 64, 56
1, 138605, Note_off_c, 0, 57, 66
1, 138607, Note_off_c, 0, 41, 66
1, 138609, Control_c, 0, 64, 78
1, 138610, Note_off_c, 0, 65, 68
1, 138611, Note_off_c, 0, 53, 66
1, 138611, Note_off_c, 0, 63, 67
1, 138612, Note_off_c, 0, 60, 58
1, 138621, Note_off_c, 0, 64, 39
1, 138624, Control_c, 0, 64, 86
1, 138639, Control_c, 0, 64, 92
1, 138654, Control_c, 0, 64, 94
1, 138669, Control_c, 0, 64, 94
1, 138780, Control_c, 0, 64, 93
1, 138795, Control_c, 0, 64, 88
1, 138810, Control_c, 0, 64, 76
1, 138817, Note_on_c, 0, 69, 80
1, 138817, Note_on_c, 0, 75, 80
1, 138822, Note_on_c, 0, 65, 80
1, 138823, Note_on_c, 0, 57, 69
1, 138825, Control_c, 0, 64, 61
1, 138828, Note_on_c, 0, 77, 63
1, 138829, Note_on_c, 0, 60, 60
1, 138837, Note_off_c, 0, 69, 73
1, 138838, Note_on_c, 0, 72, 42
1, 138840, Control_c, 0, 64, 0
1, 138851, Note_off_c, 0, 65, 65
1, 138854, Note_off_c, 0, 77, 67
1, 138856, Note_off_c, 0, 60, 66
1, 138859, Note_off_c, 0, 57, 64
1, 138862, Note_off_c, 0, 75, 63
1, 138864, Note_off_c, 0, 72, 36
1, 139039, Note_on_c, 0, 70, 82
1, 139039, Note_on_c, 0, 77, 76
1, 139040, Note_on_c, 0, 65, 77
1, 139041, Note_on_c, 0, 58, 75
1, 139045, Note_on_c, 0, 74, 69
1, 139045, Note_on_c, 0, 62, 68
1, 139061, Note_off_c, 0, 70, 70
1, 139063, Note_off_c, 0, 65, 70
1, 139063, Note_off_c, 0, 77, 65
1, 139066, Note_off_c, 0, 74, 72
1, 139072, Note_off_c, 0, 62, 65
1, 139075, Note_off_c, 0, 58, 66
1, 139261, Note_on_c, 0, 66, 76
1, 139263, Note_on_c, 0, 60, 73
1, 139266, Note_on_c, 0, 45, 70
1, 139269, Note_on_c, 0, 33, 67
1, 139291, Note_off_c, 0, 60, 63
1, 139303, Note_off_c, 0, 45, 64
1, 139309, Note_off_c, 0, 33, 66
1, 139314, Note_off_c, 0, 66, 55
1, 139475, Note_on_c, 0, 46, 90
1, 139475, Note_on_c, 0, 67, 77
1, 139481, Note_on_c, 0, 58, 69
1, 139492, Note_on_c, 0, 62, 66
1, 139494, Note_on_c, 0, 34, 59
1, 139498, Control_c, 0, 64, 64
1, 139505, Note_off_c, 0, 58, 67
1, 139515, Note_off_c, 0, 46, 66
1, 139515, Control_c, 0, 64, 74
1, 139522, Note_off_c, 0, 34, 55
1, 139522, Note_off_c, 0, 62, 63
1, 139523, Note_off_c, 0, 67, 64
1, 139530, Control_c, 0, 64, 83
1, 139544, Control_c, 0, 64, 89
1, 139559, Control_c, 0, 64, 89
1, 139707, Control_c, 0, 64, 87
1, 139711, Note_on_c, 0, 77, 86
1, 139712, Note_on_c, 0, 68, 85
1, 139716, Note_on_c, 0, 74, 77
1, 139719, Note_on_c, 0, 59, 88
1, 139722, Control_c, 0, 64, 79
1, 139735, Note_off_c, 0, 68, 66
1, 139737, Control_c, 0, 64, 64
1, 139744, Note_off_c, 0, 74, 63
1, 139752, Control_c, 0, 64, 0
1, 139760, Note_off_c, 0, 59, 66
1, 139766, Note_off_c, 0, 77, 61
1, 139925, Note_on_c, 0, 77, 90
1, 139928, Note_on_c, 0, 67, 87
1, 139928, Note_on_c, 0, 60, 88
1, 139930, Note_on_c, 0, 72, 82
1, 139949, Note_off_c, 0, 67, 68
1, 139952, Note_off_c, 0, 72, 68
1, 139953, Note_off_c, 0, 60, 66
1, 139959, Note_off_c, 0, 77, 63
1, 140158, Note_on_c, 0, 48, 75
1, 140160, Note_on_c, 0, 64, 76
1, 140163, Note_on_c, 0, 36, 68
1, 140164, Note_on_c, 0, 55, 79
1, 140164, Note_on_c, 0, 58, 73
1, 140181, Control_c, 0, 64, 60
1, 140196, Control_c, 0, 64, 71
1, 140202, Note_off_c, 0, 36, 68
1, 140206, Note_on_c, 0, 60, 25
1, 140208, Note_off_c, 0, 55, 64
1, 140211, Note_off_c, 0, 48, 64
1, 140211, Control_c, 0, 64, 78
1, 140226, Control_c, 0, 64, 84
1, 140228, Note_off_c, 0, 58, 63
1, 140248, Control_c, 0, 64, 87
1, 140251, Note_off_c, 0, 60, 40
1, 140252, Note_off_c, 0, 64, 62
1, 140262, Control_c, 0, 64, 89
1, 140277, Control_c, 0, 64, 89
1, 140308, Control_c, 0, 64, 89
1, 140323, Control_c, 0, 64, 84
1, 140337, Control_c, 0, 64, 73
1, 140352, Control_c, 0, 64, 43
1, 140367, Control_c, 0, 64, 0
1, 140382, Note_on_c, 0, 60, 90
1, 140383, Note_on_c, 0, 65, 93
1, 140384, Note_on_c, 0, 57, 90
1, 140386, Note_on_c, 0, 53, 95
1, 140387, Note_on_c, 0, 41, 88
1, 140397, Control_c, 0, 64, 64
1, 140402, Note_off_c, 0, 57, 72
1, 140411, Control_c, 0, 64, 76
1, 140415, Note_off_c, 0, 41, 70
1, 140416, Note_off_c, 0, 60, 65
1, 140426, Control_c, 0, 64, 86
1, 140431, Note_off_c, 0, 53, 67
1, 140431, Note_off_c, 0, 65, 68
1, 140441, Control_c, 0, 64, 93
1, 140456, Control_c, 0, 64, 94
1, 140545, Control_c, 0, 64, 95
1, 140589, Control_c, 0, 64, 89
1, 140602, Note_on_c, 0, 60, 89
1, 140603, Note_on_c, 0, 57, 79
1, 140604, Note_on_c, 0, 53, 75
1, 140604, Note_on_c, 0, 72, 103
1, 140604, Control_c, 0, 64, 77
1, 140619, Control_c, 0, 64, 58
1, 140634, Control_c, 0, 64, 0
1, 140636, Note_off_c, 0, 57, 60
1, 140636, Note_off_c, 0, 60, 59
1, 140651, Note_off_c, 0, 72, 65
1, 140663, Note_off_c, 0, 53, 63
1, 140807, Note_on_c, 0, 72, 99
1, 140810, Note_on_c, 0, 82, 86
1, 140810, Note_on_c, 0, 60, 92
1, 140811, Note_on_c, 0, 79, 86
1, 140813, Note_on_c, 0, 55, 82
1, 140813, Note_on_c, 0, 84, 91
1, 140814, Note_on_c, 0, 58, 92
1, 140815, Note_on_c, 0, 52, 81
1, 140831, Note_off_c, 0, 60, 67
1, 140832, Note_off_c, 0, 84, 71
1, 140836, Note_off_c, 0, 72, 68
1, 140841, Note_off_c, 0, 58, 69
1, 140841, Control_c, 0, 64, 65
1, 140844, Note_off_c, 0, 79, 65
1, 140848, Note_off_c, 0, 55, 66
1, 140851, Note_off_c, 0, 52, 69
1, 140852, Note_off_c, 0, 82, 66
1, 140856, Control_c, 0, 64, 75
1, 140871, Control_c, 0, 64, 83
1, 140885, Control_c, 0, 64, 87
1, 140900, Control_c, 0, 64, 88
1, 140997, Control_c, 0, 64, 86
1, 141011, Control_c, 0, 64, 79
1, 141026, Control_c, 0, 64, 68
1, 141041, Control_c, 0, 64, 0
1, 141043, Note_on_c, 0, 48, 79
1, 141043, Note_on_c, 0, 58, 78
1, 141045, Note_on_c, 0, 36, 72
1, 141047, Note_on_c, 0, 55, 75
1, 141066, Note_on_c, 0, 60, 49
1, 141070, Note_off_c, 0, 36, 65
1, 141072, Note_off_c, 0, 48, 68
1, 141075, Note_off_c, 0, 55, 67
1, 141075, Note_off_c, 0, 58, 68
1, 141085, Note_off_c, 0, 60, 57
1, 141256, Note_on_c, 0, 60, 76
1, 141260, Note_on_c, 0, 53, 82
1, 141260, Note_on_c, 0, 41, 70
1, 141264, Note_on_c, 0, 57, 73
1, 141279, Control_c, 0, 64, 61
1, 141288, Note_off_c, 0, 41, 67
1, 141290, Note_off_c, 0, 60, 64
1, 141290, Note_off_c, 0, 57, 67
1, 141294, Control_c, 0, 64, 71
1, 141296, Note_off_c, 0, 53, 67
1, 141308, Control_c, 0, 64, 80
1, 141323, Control_c, 0, 64, 91
1, 141338, Control_c, 0, 64, 97
1, 141353, Control_c, 0, 64, 99
1, 141382, Control_c, 0, 64, 98
1, 141412, Control_c, 0, 64, 97
1, 141427, Control_c, 0, 64, 92
1, 141442, Control_c, 0, 64, 84
1, 141457, Control_c, 0, 64, 71
1, 141472, Control_c, 0, 64, 34
1, 141473, Note_on_c, 0, 71, 87
1, 141481, Note_on_c, 0, 59, 76
1, 141484, Note_on_c, 0, 56, 78
1, 141484, Note_on_c, 0, 53, 68
1, 141487, Control_c, 0, 64, 0
1, 141502, Note_off_c, 0, 59, 69
1, 141512, Note_off_c, 0, 56, 67
1, 141517, Note_off_c, 0, 53, 65
1, 141519, Note_off_c, 0, 71, 60
1, 141678, Note_on_c, 0, 77, 84
1, 141680, Note_on_c, 0, 80, 82
1, 141680, Note_on_c, 0, 59, 81
1, 141680, Note_on_c, 0, 71, 78
1, 141680, Note_on_c, 0, 83, 80
1, 141685, Note_on_c, 0, 56, 79
1, 141689, Note_on_c, 0, 53, 67
1, 141689, Note_on_c, 0, 50, 67
1, 141699, Note_off_c, 0, 83, 69
1, 141701, Note_off_c, 0, 59, 69
1, 141701, Note_off_c, 0, 77, 65
1, 141702, Note_off_c, 0, 71, 69
1, 141703, Note_off_c, 0, 80, 65
1, 141707, Note_off_c, 0, 56, 67
1, 141708, Control_c, 0, 64, 66
1, 141716, Note_off_c, 0, 53, 68
1, 141719, Note_off_c, 0, 50, 64
1, 141723, Control_c, 0, 64, 75
1, 141746, Control_c, 0, 64, 82
1, 141760, Control_c, 0, 64, 85
1, 141864, Control_c, 0, 64, 84
1, 141878, Control_c, 0, 64, 82
1, 141893, Control_c, 0, 64, 75
1, 141910, Control_c, 0, 64, 63
1, 141917, Note_on_c, 0, 55, 76
1, 141919, Note_on_c, 0, 59, 73
1, 141925, Control_c, 0, 64, 0
1, 141926, Note_on_c, 0, 43, 71
1, 141936, Note_on_c, 0, 31, 55
1, 141944, Note_off_c, 0, 55, 68
1, 141947, Note_off_c, 0, 59, 65
1, 141957, Note_off_c, 0, 43, 61
1, 141968, Note_off_c, 0, 31, 50
1, 142124, Note_on_c, 0, 59, 85
1, 142127, Note_on_c, 0, 55, 76
1, 142128, Note_on_c, 0, 48, 85
1, 142128, Note_on_c, 0, 36, 68
1, 142130, Note_on_c, 0, 53, 75
1, 142151, Note_off_c, 0, 55, 68
1, 142154, Note_off_c, 0, 59, 66
1, 142154, Note_off_c, 0, 53, 69
1, 142157, Note_off_c, 0, 36, 65
1, 142161, Control_c, 0, 64, 66
1, 142162, Note_off_c, 0, 48, 68
1, 142175, Control_c, 0, 64, 74
1, 142190, Control_c, 0, 64, 81
1, 142205, Control_c, 0, 64, 90
1, 142220, Control_c, 0, 64, 100
1, 142235, Poly_aftertouch_c, 0, 38, 0
1, 142235, Control_c, 0, 64, 109
1, 142250, Control_c, 0, 64, 119
1, 142265, Control_c, 0, 64, 125
1, 142280, Control_c, 0, 64, 127
1, 142324, Control_c, 0, 64, 120
1, 142339, Control_c, 0, 64, 103
1, 142346, Note_on_c, 0, 60, 94
1, 142350, Note_on_c, 0, 72, 98
1, 142351, Note_on_c, 0, 55, 77
1, 142354, Control_c, 0, 64, 84
1, 142357, Note_on_c, 0, 52, 80
1, 142358, Note_on_c, 0, 71, 79
1, 142369, Control_c, 0, 64, 66
1, 142375, Note_off_c, 0, 71, 41
1, 142383, Control_c, 0, 64, 0
1, 142387, Note_off_c, 0, 60, 63
1, 142396, Note_off_c, 0, 72, 65
1, 142400, Note_off_c, 0, 55, 63
1, 142402, Note_on_c, 0, 81, 15
1, 142445, Note_off_c, 0, 81, 30
1, 142495, Note_off_c, 0, 52, 60
1, 142560, Note_on_c, 0, 79, 100
1, 142560, Note_on_c, 0, 86, 92
1, 142562, Note_on_c, 0, 82, 96
1, 142563, Note_on_c, 0, 62, 97
1, 142566, Note_on_c, 0, 55, 89
1, 142577, Note_on_c, 0, 58, 60
1, 142578, Note_off_c, 0, 58, 127
1, 142578, Note_on_c, 0, 59, 83
1, 142596, Note_off_c, 0, 79, 67
1, 142597, Note_off_c, 0, 86, 70
1, 142598, Control_c, 0, 64, 73
1, 142600, Note_off_c, 0, 59, 69
1, 142602, Note_off_c, 0, 62, 62
1, 142602, Note_off_c, 0, 82, 66
1, 142607, Note_off_c, 0, 55, 66
1, 142613, Control_c, 0, 64, 90
1, 142628, Control_c, 0, 64, 103
1, 142643, Control_c, 0, 64, 109
1, 142657, Control_c, 0, 64, 109
1, 142687, Control_c, 0, 64, 110
1, 142762, Control_c, 0, 64, 107
1, 142777, Control_c, 0, 64, 96
1, 142787, Note_on_c, 0, 55, 81
1, 142790, Note_on_c, 0, 62, 91
1, 142792, Control_c, 0, 64, 77
1, 142792, Note_on_c, 0, 58, 85
1, 142799, Note_on_c, 0, 43, 69
1, 142806, Control_c, 0, 64, 0
1, 142813, Note_off_c, 0, 58, 70
1, 142819, Note_off_c, 0, 55, 65
1, 142825, Note_off_c, 0, 62, 62
1, 142828, Note_off_c, 0, 43, 64
1, 142994, Note_on_c, 0, 55, 88
1, 142995, Note_on_c, 0, 62, 90
1, 142996, Note_on_c, 0, 52, 90
1, 142999, Note_on_c, 0, 58, 80
1, 143000, Note_on_c, 0, 40, 82
1, 143014, Note_off_c, 0, 55, 71
1, 143019, Note_off_c, 0, 58, 71
1, 143022, Note_off_c, 0, 40, 67
1, 143028, Note_off_c, 0, 62, 66
1, 143028, Control_c, 0, 64, 68
1, 143031, Note_off_c, 0, 52, 68
1, 143043, Control_c, 0, 64, 79
1, 143058, Control_c, 0, 64, 96
1, 143073, Control_c, 0, 64, 127
1, 143206, Control_c, 0, 64, 126
1, 143210, Note_on_c, 0, 73, 96
1, 143215, Note_on_c, 0, 61, 90
1, 143217, Note_on_c, 0, 58, 71
1, 143227, Note_on_c, 0, 55, 67
1, 143228, Control_c, 0, 64, 101
1, 143243, Control_c, 0, 64, 84
1, 143254, Note_on_c, 0, 52, 54
1, 143258, Control_c, 0, 64, 66
1, 143263, Note_off_c, 0, 61, 64
1, 143263, Note_off_c, 0, 73, 64
1, 143271, Note_off_c, 0, 58, 64
1, 143273, Control_c, 0, 64, 0
1, 143275, Note_off_c, 0, 52, 63
1, 143278, Note_off_c, 0, 55, 62
1, 143418, Note_on_c, 0, 73, 98
1, 143418, Note_on_c, 0, 85, 96
1, 143424, Note_on_c, 0, 61, 96
1, 143424, Note_on_c, 0, 79, 89
1, 143429, Note_on_c, 0, 58, 87
1, 143430, Note_on_c, 0, 82, 77
1, 143431, Note_on_c, 0, 52, 72
1, 143438, Note_on_c, 0, 55, 68
1, 143449, Note_off_c, 0, 82, 70
1, 143451, Control_c, 0, 64, 60
1, 143454, Note_off_c, 0, 73, 68
1, 143454, Note_off_c, 0, 61, 68
1, 143454, Note_off_c, 0, 79, 63
1, 143455, Note_off_c, 0, 85, 70
1, 143463, Note_off_c, 0, 55, 67
1, 143463, Note_off_c, 0, 58, 65
1, 143466, Control_c, 0, 64, 74
1, 143470, Note_off_c, 0, 52, 66
1, 143480, Control_c, 0, 64, 81
1, 143495, Control_c, 0, 64, 86
1, 143511, Control_c, 0, 64, 88
1, 143526, Control_c, 0, 64, 89
1, 143600, Control_c, 0, 64, 87
1, 143615, Control_c, 0, 64, 81
1, 143629, Control_c, 0, 64, 70
1, 143642, Note_on_c, 0, 64, 79
1, 143643, Note_on_c, 0, 45, 74
1, 143644, Control_c, 0, 64, 0
1, 143645, Note_on_c, 0, 55, 85
1, 143648, Note_on_c, 0, 33, 74
1, 143651, Note_on_c, 0, 61, 68
1, 143668, Note_off_c, 0, 55, 69
1, 143673, Note_off_c, 0, 45, 65
1, 143675, Note_off_c, 0, 33, 66
1, 143678, Note_off_c, 0, 61, 65
1, 143678, Note_off_c, 0, 64, 63
1, 143839, Note_on_c, 0, 46, 88
1, 143843, Note_on_c, 0, 52, 77
1, 143845, Note_on_c, 0, 61, 86
1, 143847, Note_on_c, 0, 55, 72
1, 143850, Note_on_c, 0, 34, 61
1, 143866, Control_c, 0, 64, 64
1, 143868, Note_off_c, 0, 52, 71
1, 143869, Note_off_c, 0, 46, 63
1, 143871, Note_off_c, 0, 55, 67
1, 143877, Note_off_c, 0, 34, 36
1, 143881, Control_c, 0, 64, 71
1, 143884, Note_on_c, 0, 47, 38
1, 143888, Note_off_c, 0, 61, 64
1, 143896, Control_c, 0, 64, 79
1, 143910, Control_c, 0, 64, 90
1, 143920, Note_off_c, 0, 47, 57
1, 143925, Control_c, 0, 64, 100
1, 143940, Control_c, 0, 64, 111
1, 143955, Control_c, 0, 64, 116
1, 143977, Control_c, 0, 64, 116
1, 144037, Control_c, 0, 64, 114
1, 144052, Control_c, 0, 64, 102
1, 144067, Control_c, 0, 64, 86
1, 144070, Note_on_c, 0, 74, 90
1, 144072, Note_on_c, 0, 62, 91
1, 144077, Note_on_c, 0, 70, 78
1, 144078, Note_on_c, 0, 58, 82
1, 144082, Control_c, 0, 64, 67
1, 144083, Note_on_c, 0, 65, 65
1, 144088, Note_on_c, 0, 53, 65
1, 144093, Note_on_c, 0, 64, 58
1, 144097, Control_c, 0, 64, 0
1, 144098, Note_off_c, 0, 62, 65
1, 144101, Note_off_c, 0, 65, 67
1, 144101, Note_off_c, 0, 70, 68
1, 144108, Note_off_c, 0, 58, 67
1, 144113, Note_off_c, 0, 64, 40
1, 144115, Note_off_c, 0, 74, 67
1, 144119, Note_off_c, 0, 53, 66
1, 144279, Note_on_c, 0, 75, 93
1, 144282, Note_on_c, 0, 65, 96
1, 144283, Note_on_c, 0, 77, 94
1, 144283, Note_on_c, 0, 60, 92
1, 144286, Note_on_c, 0, 57, 83
1, 144301, Note_on_c, 0, 72, 57
1, 144302, Note_on_c, 0, 53, 68
1, 144311, Note_off_c, 0, 65, 66
1, 144314, Note_off_c, 0, 77, 63
1, 144316, Note_off_c, 0, 60, 66
1, 144318, Note_off_c, 0, 72, 64
1, 144320, Control_c, 0, 64, 68
1, 144321, Note_off_c, 0, 57, 65
1, 144325, Note_off_c, 0, 75, 69
1, 144327, Note_off_c, 0, 53, 67
1, 144334, Control_c, 0, 64, 79
1, 144349, Control_c, 0, 64, 87
1, 144364, Control_c, 0, 64, 91
1, 144378, Control_c, 0, 64, 92
1, 144393, Control_c, 0, 64, 93
1, 144453, Control_c, 0, 64, 93
1, 144468, Control_c, 0, 64, 87
1, 144483, Control_c, 0, 64, 75
1, 144497, Control_c, 0, 64, 24
1, 144499, Note_on_c, 0, 57, 87
1, 144499, Note_on_c, 0, 65, 87
1, 144503, Note_on_c, 0, 63, 75
1, 144504, Note_on_c, 0, 45, 84
1, 144508, Note_on_c, 0, 33, 84
1, 144512, Note_on_c, 0, 60, 65
1, 144512, Control_c, 0, 64, 0
1, 144526, Note_off_c, 0, 57, 67
1, 144527, Note_off_c, 0, 60, 67
1, 144539, Note_off_c, 0, 33, 71
1, 144539, Note_off_c, 0, 45, 67
1, 144544, Note_off_c, 0, 63, 60
1, 144557, Note_off_c, 0, 65, 64
1, 144557, Control_c, 0, 64, 38
1, 144571, Control_c, 0, 64, 64
1, 144586, Control_c, 0, 64, 68
1, 144616, Control_c, 0, 64, 59
1, 144631, Control_c, 0, 64, 0
1, 144698, Note_on_c, 0, 46, 97
1, 144704, Note_on_c, 0, 62, 87
1, 144704, Note_on_c, 0, 65, 87
1, 144705, Note_on_c, 0, 34, 75
1, 144705, Note_on_c, 0, 58, 86
1, 144705, Control_c, 0, 64, 60
1, 144720, Control_c, 0, 64, 69
1, 144732, Note_off_c, 0, 58, 72
1, 144739, Note_off_c, 0, 34, 66
1, 144740, Note_off_c, 0, 62, 66
1, 144741, Note_off_c, 0, 46, 61
1, 144742, Control_c, 0, 64, 72
1, 144752, Note_off_c, 0, 65, 67
1, 144757, Control_c, 0, 64, 73
1, 144801, Control_c, 0, 64, 74
1, 144816, Control_c, 0, 64, 75
1, 144831, Control_c, 0, 64, 77
1, 144846, Control_c, 0, 64, 78
1, 144861, Control_c, 0, 64, 78
1, 144891, Control_c, 0, 64, 79
1, 144920, Control_c, 0, 64, 77
1, 144933, Note_on_c, 0, 62, 97
1, 144933, Note_on_c, 0, 74, 92
1, 144935, Note_on_c, 0, 65, 97
1, 144935, Control_c, 0, 64, 70
1, 144941, Note_on_c, 0, 58, 86
1, 144944, Note_on_c, 0, 70, 79
1, 144948, Note_on_c, 0, 53, 71
1, 144950, Control_c, 0, 64, 36
1, 144960, Note_off_c, 0, 65, 68
1, 144965, Control_c, 0, 64, 0
1, 144968, Note_off_c, 0, 70, 61
1, 144971, Note_off_c, 0, 62, 64
1, 144977, Note_off_c, 0, 53, 66
1, 144983, Note_off_c, 0, 74, 66
1, 144989, Note_off_c, 0, 58, 65
1, 145145, Note_on_c, 0, 65, 99
1, 145147, Note_on_c, 0, 77, 96
1, 145147, Note_on_c, 0, 60, 100
1, 145148, Note_on_c, 0, 75, 95
1, 145149, Note_on_c, 0, 57, 89
1, 145155, Note_on_c, 0, 72, 80
1, 145157, Note_on_c, 0, 53, 76
1, 145173, Control_c, 0, 64, 65
1, 145174, Note_off_c, 0, 72, 73
1, 145177, Note_off_c, 0, 65, 68
1, 145177, Note_off_c, 0, 77, 67
1, 145177, Note_off_c, 0, 60, 67
1, 145186, Note_off_c, 0, 57, 66
1, 145188, Control_c, 0, 64, 73
1, 145192, Note_off_c, 0, 53, 66
1, 145192, Note_off_c, 0, 75, 69
1, 145202, Control_c, 0, 64, 77
1, 145217, Control_c, 0, 64, 79
1, 145232, Control_c, 0, 64, 80
1, 145306, Control_c, 0, 64, 76
1, 145320, Control_c, 0, 64, 68
1, 145335, Control_c, 0, 64, 0
1, 145362, Note_on_c, 0, 57, 88
1, 145363, Note_on_c, 0, 65, 82
1, 145365, Note_on_c, 0, 63, 80
1, 145367, Note_on_c, 0, 33, 87
1, 145367, Note_on_c, 0, 45, 88
1, 145371, Note_on_c, 0, 60, 72
1, 145391, Note_off_c, 0, 57, 61
1, 145395, Control_c, 0, 64, 10
1, 145396, Note_off_c, 0, 60, 68
1, 145398, Note_off_c, 0, 45, 68
1, 145401, Note_off_c, 0, 33, 67
1, 145410, Note_off_c, 0, 63, 61
1, 145410, Control_c, 0, 64, 50
1, 145420, Note_off_c, 0, 65, 65
1, 145424, Control_c, 0, 64, 41
1, 145439, Control_c, 0, 64, 0
1, 145565, Note_on_c, 0, 46, 100
1, 145565, Control_c, 0, 64, 16
1, 145568, Note_on_c, 0, 34, 84
1, 145569, Note_on_c, 0, 58, 86
1, 145572, Note_on_c, 0, 62, 81
1, 145574, Note_on_c, 0, 65, 85
1, 145579, Control_c, 0, 64, 66
1, 145591, Note_off_c, 0, 58, 71
1, 145594, Control_c, 0, 64, 78
1, 145597, Note_off_c, 0, 34, 67
1, 145600, Note_off_c, 0, 62, 65
1, 145605, Note_off_c, 0, 46, 62
1, 145609, Control_c, 0, 64, 93
1, 145612, Note_off_c, 0, 65, 67
1, 145613, Note_on_c, 0, 63, 22
1, 145624, Control_c, 0, 64, 109
1, 145639, Control_c, 0, 64, 119
1, 145652, Note_off_c, 0, 63, 43
1, 145654, Control_c, 0, 64, 120
1, 145727, Control_c, 0, 64, 119
1, 145742, Control_c, 0, 64, 112
1, 145757, Control_c, 0, 64, 95
1, 145772, Control_c, 0, 64, 79
1, 145787, Control_c, 0, 64, 66
1, 145794, Note_on_c, 0, 69, 96
1, 145794, Note_on_c, 0, 65, 95
1, 145794, Note_on_c, 0, 72, 92
1, 145794, Note_on_c, 0, 77, 94
1, 145800, Note_on_c, 0, 57, 78
1, 145801, Control_c, 0, 64, 59
1, 145806, Note_on_c, 0, 60, 77
1, 145816, Control_c, 0, 64, 65
1, 145831, Control_c, 0, 64, 70
1, 145836, Note_off_c, 0, 69, 66
1, 145837, Note_off_c, 0, 65, 66
1, 145839, Note_off_c, 0, 72, 64
1, 145846, Control_c, 0, 64, 73
1, 145848, Note_off_c, 0, 60, 59
1, 145856, Note_off_c, 0, 57, 59
1, 145860, Control_c, 0, 64, 76
1, 145862, Note_off_c, 0, 77, 59
1, 145875, Control_c, 0, 64, 78
1, 145890, Control_c, 0, 64, 79
1, 145936, Control_c, 0, 64, 77
1, 145950, Control_c, 0, 64, 68
1, 145965, Control_c, 0, 64, 0
1, 146002, Note_on_c, 0, 58, 83
1, 146002, Note_on_c, 0, 70, 96
1, 146003, Note_on_c, 0, 67, 100
1, 146003, Note_on_c, 0, 75, 95
1, 146005, Note_on_c, 0, 63, 100
1, 146009, Note_on_c, 0, 55, 74
1, 146024, Control_c, 0, 64, 18
1, 146031, Note_off_c, 0, 67, 65
1, 146036, Note_off_c, 0, 63, 67
1, 146038, Note_off_c, 0, 75, 69
1, 146039, Control_c, 0, 64, 67
1, 146044, Note_off_c, 0, 70, 62
1, 146047, Note_off_c, 0, 58, 66
1, 146049, Note_off_c, 0, 55, 67
1, 146053, Note_on_c, 0, 60, 11
1, 146054, Control_c, 0, 64, 77
1, 146069, Control_c, 0, 64, 84
1, 146084, Control_c, 0, 64, 88
1, 146093, Note_off_c, 0, 60, 49
1, 146098, Control_c, 0, 64, 89
1, 146158, Control_c, 0, 64, 88
1, 146173, Control_c, 0, 64, 83
1, 146188, Control_c, 0, 64, 73
1, 146202, Control_c, 0, 64, 39
1, 146224, Control_c, 0, 64, 0
1, 146232, Note_on_c, 0, 57, 95
1, 146235, Note_on_c, 0, 41, 96
1, 146239, Note_on_c, 0, 29, 92
1, 146241, Note_on_c, 0, 55, 80
1, 146241, Note_on_c, 0, 62, 82
1, 146254, Control_c, 0, 64, 55
1, 146268, Note_off_c, 0, 55, 66
1, 146269, Note_on_c, 0, 53, 39
1, 146270, Note_off_c, 0, 53, 127
1, 146270, Control_c, 0, 64, 68
1, 146271, Note_off_c, 0, 57, 65
1, 146277, Note_off_c, 0, 29, 63
1, 146278, Note_off_c, 0, 41, 64
1, 146284, Control_c, 0, 64, 75
1, 146298, Note_off_c, 0, 62, 61
1, 146298, Control_c, 0, 64, 81
1, 146313, Control_c, 0, 64, 82
1, 146343, Control_c, 0, 64, 81
1, 146357, Control_c, 0, 64, 75
1, 146372, Control_c, 0, 64, 62
1, 146387, Control_c, 0, 64, 0
1, 146452, Note_on_c, 0, 61, 99
1, 146453, Note_on_c, 0, 40, 101
1, 146453, Note_on_c, 0, 55, 87
1, 146454, Note_on_c, 0, 52, 97
1, 146455, Note_on_c, 0, 28, 89
1, 146462, Control_c, 0, 64, 63
1, 146473, Note_off_c, 0, 52, 74
1, 146476, Control_c, 0, 64, 76
1, 146477, Note_off_c, 0, 28, 66
1, 146488, Note_off_c, 0, 55, 67
1, 146491, Note_off_c, 0, 40, 67
1, 146491, Control_c, 0, 64, 89
1, 146504, Note_off_c, 0, 61, 68
1, 146506, Control_c, 0, 64, 98
1, 146521, Control_c, 0, 64, 99
1, 146565, Control_c, 0, 64, 99
1, 146624, Control_c, 0, 64, 96
1, 146638, Poly_aftertouch_c, 0, 28, 0
1, 146639, Control_c, 0, 64, 87
1, 146654, Control_c, 0, 64, 74
1, 146669, Control_c, 0, 64, 58
1, 146683, Control_c, 0, 64, 0
1, 146697, Note_on_c, 0, 65, 94
1, 146700, Note_on_c, 0, 53, 83
1, 146700, Control_c, 0, 64, 60
1, 146700, Note_on_c, 0, 74, 90
1, 146704, Note_on_c, 0, 69, 90
1, 146707, Note_on_c, 0, 62, 87
1, 146711, Note_on_c, 0, 57, 81
1, 146715, Control_c, 0, 64, 69
1, 146720, Note_on_c, 0, 60, 61
1, 146729, Control_c, 0, 64, 74
1, 146738, Note_off_c, 0, 65, 65
1, 146739, Note_off_c, 0, 60, 60
1, 146742, Note_off_c, 0, 69, 63
1, 146743, Note_off_c, 0, 62, 61
1, 146744, Control_c, 0, 64, 79
1, 146749, Note_off_c, 0, 57, 61
1, 146756, Note_off_c, 0, 53, 65
1, 146759, Control_c, 0, 64, 82
1, 146770, Note_off_c, 0, 74, 64
1, 146773, Control_c, 0, 64, 82
1, 146803, Control_c, 0, 64, 82
1, 146818, Control_c, 0, 64, 80
1, 146833, Control_c, 0, 64, 76
1, 146847, Control_c, 0, 64, 71
1, 146862, Control_c, 0, 64, 59
1, 146877, Control_c, 0, 64, 0
1, 146927, Note_on_c, 0, 64, 96
1, 146927, Note_on_c, 0, 70, 84
1, 146929, Note_on_c, 0, 67, 93
1, 146930, Note_on_c, 0, 76, 97
1, 146930, Note_on_c, 0, 55, 82
1, 146930, Note_on_c, 0, 58, 80
1, 146951, Control_c, 0, 64, 60
1, 146955, Note_off_c, 0, 64, 67
1, 146962, Note_on_c, 0, 73, 48
1, 146963, Note_off_c, 0, 67, 64
1, 146964, Note_on_c, 0, 69, 38
1, 146973, Control_c, 0, 64, 71
1, 146975, Note_off_c, 0, 76, 66
1, 146979, Note_off_c, 0, 70, 65
1, 146981, Note_off_c, 0, 55, 64
1, 146984, Note_off_c, 0, 58, 66
1, 146988, Control_c, 0, 64, 79
1, 146994, Note_off_c, 0, 73, 36
1, 146998, Note_off_c, 0, 69, 61
1, 147003, Control_c, 0, 64, 83
1, 147018, Control_c, 0, 64, 83
1, 147121, Control_c, 0, 64, 82
1, 147136, Control_c, 0, 64, 77
1, 147151, Control_c, 0, 64, 66
1, 147166, Control_c, 0, 64, 0
1, 147207, Note_on_c, 0, 61, 95
1, 147211, Note_on_c, 0, 55, 93
1, 147212, Note_on_c, 0, 52, 98
1, 147213, Note_on_c, 0, 45, 100
1, 147215, Note_on_c, 0, 33, 91
1, 147223, Note_on_c, 0, 57, 74
1, 147225, Control_c, 0, 64, 63
1, 147240, Control_c, 0, 64, 74
1, 147242, Note_off_c, 0, 33, 71
1, 147246, Note_off_c, 0, 45, 67
1, 147246, Note_off_c, 0, 52, 68
1, 147255, Control_c, 0, 64, 83
1, 147266, Note_off_c, 0, 57, 57
1, 147270, Control_c, 0, 64, 87
1, 147270, Note_off_c, 0, 55, 63
1, 147276, Note_off_c, 0, 61, 62
1, 147299, Control_c, 0, 64, 86
1, 147314, Control_c, 0, 64, 81
1, 147329, Control_c, 0, 64, 74
1, 147344, Control_c, 0, 64, 63
1, 147359, Control_c, 0, 64, 0
1, 147486, Note_on_c, 0, 62, 94
1, 147487, Note_on_c, 0, 50, 99
1, 147487, Note_on_c, 0, 57, 101
1, 147489, Note_on_c, 0, 53, 94
1, 147495, Note_on_c, 0, 38, 91
1, 147522, Control_c, 0, 64, 67
1, 147530, Note_off_c, 0, 50, 66
1, 147535, Note_off_c, 0, 53, 66
1, 147537, Control_c, 0, 64, 87
1, 147544, Note_off_c, 0, 38, 61
1, 147552, Control_c, 0, 64, 112
1, 147556, Note_off_c, 0, 57, 61
1, 147562, Note_off_c, 0, 62, 62
1, 147567, Control_c, 0, 64, 127
1, 147577, Note_on_c, 0, 59, 5
1, 147607, Note_off_c, 0, 59, 40
1, 147703, Poly_aftertouch_c, 0, 45, 127
1, 147723, Note_on_c, 0, 38, 75
1, 147735, Poly_aftertouch_c, 0, 45, 0
1, 147744, Note_on_c, 0, 41, 72
1, 147766, Note_off_c, 0, 38, 63
1, 147767, Note_on_c, 0, 45, 72
1, 147780, Note_off_c, 0, 41, 69
1, 147800, Note_on_c, 0, 50, 77
1, 147809, Note_off_c, 0, 45, 67
1, 147831, Note_off_c, 0, 50, 68
1, 147839, Note_on_c, 0, 53, 87
1, 147878, Note_on_c, 0, 57, 81
1, 147905, Note_off_c, 0, 53, 65
1, 147951, Note_on_c, 0, 62, 92
1, 147954, Note_off_c, 0, 57, 64
1, 147989, Note_off_c, 0, 62, 65
1, 148151, Control_c, 0, 64, 118
1, 148166, Control_c, 0, 64, 94
1, 148181, Control_c, 0, 64, 69
1, 148186, Note_on_c, 0, 62, 85
1, 148187, Note_on_c, 0, 53, 95
1, 148188, Note_on_c, 0, 57, 90
1, 148188, Note_on_c, 0, 69, 94
1, 148195, Note_on_c, 0, 41, 82
1, 148195, Control_c, 0, 64, 0
1, 148212, Note_off_c, 0, 53, 67
1, 148215, Note_off_c, 0, 57, 67
1, 148215, Note_off_c, 0, 62, 64
1, 148219, Note_off_c, 0, 69, 66
1, 148222, Note_off_c, 0, 41, 68
1, 148313, Note_on_c, 0, 57, 95
1, 148316, Note_on_c, 0, 62, 86
1, 148317, Note_on_c, 0, 41, 73
1, 148317, Note_on_c, 0, 53, 92
1, 148318, Note_on_c, 0, 69, 90
1, 148340, Note_off_c, 0, 57, 63
1, 148346, Note_off_c, 0, 53, 64
1, 148346, Note_off_c, 0, 62, 58
1, 148348, Note_off_c, 0, 69, 60
1, 148358, Note_off_c, 0, 41, 65
1, 148454, Note_on_c, 0, 62, 90
1, 148455, Note_on_c, 0, 40, 97
1, 148455, Note_on_c, 0, 68, 93
1, 148456, Note_on_c, 0, 52, 98
1, 148459, Note_on_c, 0, 64, 75
1, 148461, Note_on_c, 0, 57, 76
1, 148474, Note_on_c, 0, 50, 72
1, 148478, Note_on_c, 0, 59, 69
1, 148486, Control_c, 0, 64, 68
1, 148486, Note_off_c, 0, 52, 69
1, 148489, Note_off_c, 0, 40, 69
1, 148492, Note_off_c, 0, 50, 64
1, 148492, Note_off_c, 0, 57, 68
1, 148495, Note_off_c, 0, 59, 64
1, 148500, Control_c, 0, 64, 84
1, 148503, Note_off_c, 0, 64, 64
1, 148509, Note_off_c, 0, 62, 60
1, 148515, Control_c, 0, 64, 101
1, 148523, Note_off_c, 0, 68, 66
1, 148530, Control_c, 0, 64, 113
1, 148545, Control_c, 0, 64, 117
1, 148559, Control_c, 0, 64, 119
1, 148574, Control_c, 0, 64, 120
1, 148589, Control_c, 0, 64, 121
1, 148604, Control_c, 0, 64, 122
1, 148619, Control_c, 0, 64, 125
1, 148633, Control_c, 0, 64, 126
1, 148701, Note_on_c, 0, 52, 77
1, 148721, Note_on_c, 0, 56, 84
1, 148722, Control_c, 0, 64, 125
1, 148737, Control_c, 0, 64, 125
1, 148751, Control_c, 0, 64, 124
1, 148754, Note_off_c, 0, 52, 65
1, 148766, Control_c, 0, 64, 123
1, 148781, Note_on_c, 0, 59, 86
1, 148781, Control_c, 0, 64, 122
1, 148793, Note_off_c, 0, 56, 65
1, 148813, Note_on_c, 0, 64, 81
1, 148820, Note_off_c, 0, 59, 63
1, 148862, Note_on_c, 0, 68, 80
1, 148897, Note_off_c, 0, 64, 62
1, 148901, Note_on_c, 0, 71, 80
1, 148915, Control_c, 0, 64, 116
1, 148921, Note_off_c, 0, 68, 68
1, 148930, Control_c, 0, 64, 94
1, 148944, Control_c, 0, 64, 63
1, 148948, Note_on_c, 0, 76, 102
1, 148959, Control_c, 0, 64, 0
1, 148976, Note_off_c, 0, 71, 63
1, 149109, Note_off_c, 0, 76, 63
1, 149202, Note_on_c, 0, 74, 90
1, 149203, Note_on_c, 0, 64, 89
1, 149205, Note_on_c, 0, 55, 92
1, 149205, Note_on_c, 0, 67, 87
1, 149207, Note_on_c, 0, 70, 71
1, 149212, Note_on_c, 0, 43, 78
1, 149234, Note_off_c, 0, 64, 68
1, 149236, Note_off_c, 0, 67, 64
1, 149239, Note_off_c, 0, 55, 65
1, 149250, Note_off_c, 0, 43, 65
1, 149252, Note_off_c, 0, 74, 66
1, 149254, Note_off_c, 0, 70, 63
1, 149341, Note_on_c, 0, 64, 92
1, 149344, Note_on_c, 0, 70, 81
1, 149344, Note_on_c, 0, 74, 83
1, 149344, Note_on_c, 0, 67, 81
1, 149347, Note_on_c, 0, 43, 82
1, 149348, Note_on_c, 0, 55, 81
1, 149363, Note_off_c, 0, 64, 64
1, 149368, Note_off_c, 0, 67, 65
1, 149374, Note_off_c, 0, 70, 56
1, 149383, Note_off_c, 0, 55, 61
1, 149383, Note_off_c, 0, 74, 63
1, 149387, Note_off_c, 0, 43, 63
1, 149479, Note_on_c, 0, 64, 94
1, 149479, Note_on_c, 0, 73, 94
1, 149480, Note_on_c, 0, 57, 96
1, 149482, Note_on_c, 0, 67, 75
1, 149483, Note_on_c, 0, 45, 87
1, 149486, Control_c, 0, 64, 68
1, 149488, Note_on_c, 0, 69, 76
1, 149498, Note_off_c, 0, 64, 71
1, 149500, Control_c, 0, 64, 94
1, 149505, Note_off_c, 0, 45, 71
1, 149510, Note_off_c, 0, 67, 65
1, 149510, Note_off_c, 0, 69, 73
1, 149515, Control_c, 0, 64, 127
1, 149516, Note_off_c, 0, 57, 64
1, 149535, Note_off_c, 0, 73, 64
1, 149726, Note_on_c, 0, 57, 79
1, 149747, Note_on_c, 0, 61, 88
1, 149771, Note_off_c, 0, 57, 64
1, 149806, Note_on_c, 0, 64, 88
1, 149808, Note_off_c, 0, 61, 66
1, 149822, Note_on_c, 0, 69, 86
1, 149845, Note_off_c, 0, 64, 67
1, 149876, Note_on_c, 0, 73, 86
1, 149909, Note_on_c, 0, 76, 85
1, 149911, Note_off_c, 0, 69, 62
1, 149931, Note_off_c, 0, 73, 65
1, 149968, Control_c, 0, 64, 117
1, 149979, Note_on_c, 0, 81, 106
1, 149982, Note_on_c, 0, 79, 91
1, 149983, Control_c, 0, 64, 78
1, 149997, Control_c, 0, 64, 0
1, 150000, Note_on_c, 0, 77, 51
1, 150002, Note_off_c, 0, 76, 69
1, 150024, Note_off_c, 0, 77, 37
1, 150096, Note_off_c, 0, 81, 58
1, 150126, Note_off_c, 0, 79, 60
1, 150234, Note_on_c, 0, 67, 89
1, 150236, Note_on_c, 0, 76, 92
1, 150236, Note_on_c, 0, 49, 95
1, 150242, Note_on_c, 0, 69, 84
1, 150246, Note_on_c, 0, 37, 77
1, 150255, Note_off_c, 0, 67, 67
1, 150261, Note_off_c, 0, 69, 74
1, 150268, Note_off_c, 0, 49, 58
1, 150272, Note_off_c, 0, 76, 67
1, 150283, Note_off_c, 0, 37, 66
1, 150368, Note_on_c, 0, 69, 89
1, 150370, Note_on_c, 0, 67, 89
1, 150370, Note_on_c, 0, 77, 90
1, 150372, Note_on_c, 0, 49, 91
1, 150377, Note_on_c, 0, 37, 76
1, 150387, Note_off_c, 0, 69, 73
1, 150388, Note_off_c, 0, 67, 71
1, 150398, Note_on_c, 0, 76, 46
1, 150399, Note_off_c, 0, 76, 127
1, 150409, Note_off_c, 0, 77, 63
1, 150417, Note_off_c, 0, 49, 59
1, 150426, Note_off_c, 0, 37, 63
1, 150504, Note_on_c, 0, 50, 101
1, 150507, Note_on_c, 0, 38, 95
1, 150510, Note_on_c, 0, 77, 105
1, 150511, Note_on_c, 0, 65, 98
1, 150514, Note_on_c, 0, 69, 90
1, 150528, Note_off_c, 0, 65, 74
1, 150530, Note_off_c, 0, 69, 76
1, 150531, Control_c, 0, 64, 74
1, 150534, Note_off_c, 0, 38, 68
1, 150540, Note_off_c, 0, 50, 65
1, 150546, Control_c, 0, 64, 96
1, 150558, Note_off_c, 0, 77, 65
1, 150561, Control_c, 0, 64, 127
1, 150757, Note_on_c, 0, 62, 79
1, 150788, Note_on_c, 0, 65, 80
1, 150821, Note_off_c, 0, 65, 67
1, 150822, Note_on_c, 0, 69, 86
1, 150827, Note_off_c, 0, 62, 65
1, 150851, Note_off_c, 0, 69, 70
1, 150867, Note_on_c, 0, 74, 85
1, 150907, Note_off_c, 0, 74, 69
1, 150909, Note_on_c, 0, 77, 88
1, 150935, Note_on_c, 0, 81, 90
1, 150963, Note_off_c, 0, 77, 64
1, 150984, Control_c, 0, 64, 124
1, 150999, Control_c, 0, 64, 90
1, 151001, Note_on_c, 0, 86, 107
1, 151014, Control_c, 0, 64, 28
1, 151026, Note_off_c, 0, 81, 63
1, 151029, Control_c, 0, 64, 0
1, 151136, Note_off_c, 0, 86, 64
1, 151255, Note_on_c, 0, 67, 93
1, 151258, Note_on_c, 0, 70, 86
1, 151258, Note_on_c, 0, 74, 82
1, 151261, Note_on_c, 0, 43, 77
1, 151270, Note_on_c, 0, 29, 65
1, 151270, Note_on_c, 0, 31, 62
1, 151271, Note_off_c, 0, 67, 73
1, 151277, Note_off_c, 0, 70, 72
1, 151283, Note_on_c, 0, 41, 54
1, 151293, Note_off_c, 0, 43, 65
1, 151294, Note_off_c, 0, 74, 67
1, 151302, Note_off_c, 0, 29, 62
1, 151303, Note_off_c, 0, 31, 63
1, 151319, Note_off_c, 0, 41, 33
1, 151389, Note_on_c, 0, 67, 93
1, 151391, Note_on_c, 0, 70, 85
1, 151392, Note_on_c, 0, 31, 81
1, 151392, Note_on_c, 0, 74, 87
1, 151402, Note_on_c, 0, 43, 77
1, 151412, Note_off_c, 0, 70, 68
1, 151413, Note_off_c, 0, 67, 64
1, 151415, Note_off_c, 0, 74, 62
1, 151434, Note_off_c, 0, 43, 63
1, 151443, Note_off_c, 0, 31, 62
1, 151538, Note_on_c, 0, 45, 100
1, 151539, Note_on_c, 0, 67, 93
1, 151540, Note_on_c, 0, 69, 93
1, 151540, Note_on_c, 0, 73, 93
1, 151541, Note_on_c, 0, 33, 90
1, 151556, Note_off_c, 0, 67, 73
1, 151558, Note_off_c, 0, 69, 74
1, 151564, Note_off_c, 0, 33, 67
1, 151567, Note_on_c, 0, 74, 60
1, 151569, Control_c, 0, 64, 75
1, 151579, Note_off_c, 0, 45, 66
1, 151584, Control_c, 0, 64, 96
1, 151585, Note_off_c, 0, 73, 66
1, 151586, Note_off_c, 0, 74, 67
1, 151599, Control_c, 0, 64, 127
1, 151797, Note_on_c, 0, 69, 78
1, 151830, Note_on_c, 0, 73, 75
1, 151865, Note_on_c, 0, 76, 85
1, 151871, Note_off_c, 0, 69, 64
1, 151881, Note_off_c, 0, 73, 64
1, 151886, Note_on_c, 0, 81, 86
1, 151912, Note_off_c, 0, 76, 68
1, 151935, Note_on_c, 0, 85, 80
1, 151964, Note_off_c, 0, 81, 59
1, 151965, Note_on_c, 0, 88, 82
1, 151988, Note_off_c, 0, 85, 66
1, 152020, Note_on_c, 0, 93, 107
1, 152036, Note_off_c, 0, 88, 65
1, 152054, Note_on_c, 0, 89, 32
1, 152058, Note_off_c, 0, 93, 65
1, 152086, Note_off_c, 0, 89, 51
1, 152206, Control_c, 0, 64, 111
1, 152229, Control_c, 0, 64, 88
1, 152243, Control_c, 0, 64, 65
1, 152258, Control_c, 0, 64, 0
1, 152289, Note_on_c, 0, 65, 72
1, 152289, Note_on_c, 0, 69, 76
1, 152289, Note_on_c, 0, 50, 74
1, 152294, Note_on_c, 0, 38, 68
1, 152299, Note_on_c, 0, 62, 58
1, 152313, Note_off_c, 0, 65, 67
1, 152320, Note_off_c, 0, 50, 64
1, 152321, Note_off_c, 0, 62, 57
1, 152325, Note_off_c, 0, 69, 63
1, 152330, Note_on_c, 0, 64, 13
1, 152331, Note_off_c, 0, 64, 127
1, 152333, Note_off_c, 0, 38, 61
1, 152424, Note_on_c, 0, 65, 67
1, 152424, Note_on_c, 0, 62, 60
1, 152430, Note_on_c, 0, 69, 74
1, 152432, Note_on_c, 0, 38, 67
1, 152439, Note_on_c, 0, 50, 58
1, 152450, Note_off_c, 0, 65, 69
1, 152455, Note_off_c, 0, 62, 64
1, 152458, Note_off_c, 0, 69, 66
1, 152467, Note_off_c, 0, 38, 61
1, 152469, Note_off_c, 0, 50, 64
1, 152561, Note_on_c, 0, 68, 88
1, 152566, Note_on_c, 0, 62, 72
1, 152569, Note_on_c, 0, 52, 80
1, 152570, Control_c, 0, 64, 61
1, 152574, Note_on_c, 0, 40, 71
1, 152581, Note_on_c, 0, 64, 53
1, 152584, Note_off_c, 0, 62, 65
1, 152585, Control_c, 0, 64, 76
1, 152593, Note_off_c, 0, 52, 71
1, 152596, Note_off_c, 0, 40, 60
1, 152600, Control_c, 0, 64, 87
1, 152600, Note_off_c, 0, 68, 64
1, 152602, Note_off_c, 0, 64, 39
1, 152614, Control_c, 0, 64, 95
1, 152629, Control_c, 0, 64, 99
1, 152644, Control_c, 0, 64, 104
1, 152659, Control_c, 0, 64, 107
1, 152674, Control_c, 0, 64, 109
1, 152689, Control_c, 0, 64, 110
1, 152704, Control_c, 0, 64, 111
1, 152763, Note_on_c, 0, 66, 16
1, 152805, Note_off_c, 0, 66, 40
1, 152826, Note_on_c, 0, 64, 68
1, 152853, Note_on_c, 0, 68, 78
1, 152885, Note_on_c, 0, 71, 75
1, 152887, Note_off_c, 0, 64, 61
1, 152898, Note_off_c, 0, 68, 64
1, 152915, Note_on_c, 0, 76, 72
1, 152924, Note_off_c, 0, 71, 61
1, 152972, Note_on_c, 0, 80, 82
1, 152980, Note_off_c, 0, 76, 65
1, 153006, Note_on_c, 0, 83, 79
1, 153027, Note_off_c, 0, 80, 64
1, 153036, Control_c, 0, 64, 99
1, 153051, Control_c, 0, 64, 74
1, 153062, Note_on_c, 0, 88, 98
1, 153066, Control_c, 0, 64, 0
1, 153076, Note_off_c, 0, 83, 61
1, 153131, Note_off_c, 0, 88, 62
1, 153308, Note_on_c, 0, 63, 85
1, 153309, Note_on_c, 0, 67, 80
1, 153310, Note_on_c, 0, 60, 78
1, 153313, Note_on_c, 0, 48, 76
1, 153317, Note_on_c, 0, 36, 71
1, 153330, Note_off_c, 0, 60, 70
1, 153333, Note_off_c, 0, 63, 66
1, 153341, Note_off_c, 0, 48, 66
1, 153341, Note_off_c, 0, 67, 62
1, 153350, Note_off_c, 0, 36, 63
1, 153442, Note_on_c, 0, 63, 79
1, 153446, Note_on_c, 0, 60, 73
1, 153448, Note_on_c, 0, 67, 79
1, 153454, Note_on_c, 0, 36, 65
1, 153464, Note_off_c, 0, 63, 67
1, 153468, Note_off_c, 0, 60, 67
1, 153470, Note_on_c, 0, 48, 49
1, 153471, Note_off_c, 0, 67, 67
1, 153493, Note_off_c, 0, 36, 64
1, 153496, Note_off_c, 0, 48, 59
1, 153589, Note_on_c, 0, 66, 89
1, 153596, Note_on_c, 0, 38, 75
1, 153596, Note_on_c, 0, 50, 78
1, 153598, Note_on_c, 0, 60, 61
1, 153598, Note_on_c, 0, 62, 66
1, 153601, Control_c, 0, 64, 67
1, 153614, Note_off_c, 0, 60, 63
1, 153615, Control_c, 0, 64, 79
1, 153616, Note_off_c, 0, 62, 64
1, 153620, Note_off_c, 0, 38, 65
1, 153626, Note_off_c, 0, 66, 66
1, 153630, Control_c, 0, 64, 87
1, 153631, Note_off_c, 0, 50, 64
1, 153645, Control_c, 0, 64, 92
1, 153659, Control_c, 0, 64, 95
1, 153674, Control_c, 0, 64, 98
1, 153689, Control_c, 0, 64, 100
1, 153711, Control_c, 0, 64, 101
1, 153727, Control_c, 0, 64, 101
1, 153771, Control_c, 0, 64, 102
1, 153855, Note_on_c, 0, 62, 68
1, 153885, Note_on_c, 0, 66, 73
1, 153920, Note_on_c, 0, 69, 73
1, 153921, Note_off_c, 0, 62, 61
1, 153931, Note_off_c, 0, 66, 65
1, 153950, Control_c, 0, 64, 101
1, 153953, Note_off_c, 0, 69, 65
1, 153959, Note_on_c, 0, 74, 74
1, 154008, Note_on_c, 0, 78, 78
1, 154020, Note_off_c, 0, 74, 62
1, 154039, Note_on_c, 0, 81, 84
1, 154058, Note_off_c, 0, 78, 64
1, 154069, Control_c, 0, 64, 101
1, 154084, Control_c, 0, 64, 91
1, 154098, Control_c, 0, 64, 64
1, 154103, Note_on_c, 0, 86, 98
1, 154113, Control_c, 0, 64, 0
1, 154115, Note_off_c, 0, 81, 63
1, 154207, Note_off_c, 0, 86, 62
1, 154360, Note_on_c, 0, 42, 71
1, 154362, Note_on_c, 0, 62, 76
1, 154364, Note_on_c, 0, 60, 70
1, 154367, Note_on_c, 0, 30, 60
1, 154390, Note_off_c, 0, 60, 66
1, 154390, Note_off_c, 0, 62, 65
1, 154393, Note_off_c, 0, 42, 63
1, 154402, Note_off_c, 0, 30, 62
1, 154501, Note_on_c, 0, 60, 61
1, 154501, Note_on_c, 0, 62, 77
1, 154504, Note_on_c, 0, 30, 59
1, 154517, Note_on_c, 0, 42, 52
1, 154531, Note_off_c, 0, 60, 65
1, 154533, Note_off_c, 0, 62, 61
1, 154553, Note_off_c, 0, 30, 62
1, 154555, Note_off_c, 0, 42, 64
1, 154637, Note_on_c, 0, 70, 88
1, 154638, Note_on_c, 0, 62, 82
1, 154641, Note_on_c, 0, 58, 76
1, 154641, Note_on_c, 0, 43, 74
1, 154644, Note_on_c, 0, 31, 73
1, 154653, Control_c, 0, 64, 74
1, 154661, Note_off_c, 0, 62, 68
1, 154664, Note_off_c, 0, 58, 69
1, 154667, Note_off_c, 0, 43, 63
1, 154668, Note_off_c, 0, 31, 65
1, 154668, Control_c, 0, 64, 86
1, 154684, Control_c, 0, 64, 94
1, 154695, Note_off_c, 0, 70, 59
1, 154699, Control_c, 0, 64, 97
1, 154713, Control_c, 0, 64, 97
1, 154862, Control_c, 0, 64, 95
1, 154877, Control_c, 0, 64, 86
1, 154892, Control_c, 0, 64, 69
1, 154907, Note_on_c, 0, 45, 69
1, 154907, Control_c, 0, 64, 0
1, 154909, Note_on_c, 0, 69, 74
1, 154911, Note_on_c, 0, 60, 72
1, 154913, Note_on_c, 0, 66, 69
1, 154916, Note_on_c, 0, 33, 60
1, 154937, Note_off_c, 0, 60, 68
1, 154937, Note_off_c, 0, 45, 64
1, 154940, Note_off_c, 0, 66, 68
1, 154942, Note_off_c, 0, 69, 60
1, 154944, Note_off_c, 0, 33, 62
1, 155034, Note_on_c, 0, 60, 77
1, 155037, Note_on_c, 0, 33, 68
1, 155037, Note_on_c, 0, 45, 70
1, 155037, Note_on_c, 0, 66, 73
1, 155040, Note_on_c, 0, 69, 77
1, 155061, Note_off_c, 0, 60, 63
1, 155062, Note_off_c, 0, 69, 72
1, 155071, Note_off_c, 0, 66, 65
1, 155074, Note_off_c, 0, 45, 65
1, 155076, Note_off_c, 0, 33, 67
1, 155169, Note_on_c, 0, 62, 88
1, 155169, Note_on_c, 0, 46, 100
1, 155169, Note_on_c, 0, 58, 87
1, 155172, Note_on_c, 0, 67, 84
1, 155174, Control_c, 0, 64, 58
1, 155180, Note_on_c, 0, 34, 76
1, 155188, Control_c, 0, 64, 81
1, 155196, Note_off_c, 0, 58, 62
1, 155202, Note_off_c, 0, 34, 68
1, 155203, Control_c, 0, 64, 103
1, 155205, Note_off_c, 0, 46, 61
1, 155224, Note_off_c, 0, 62, 59
1, 155224, Note_off_c, 0, 67, 56
1, 155226, Control_c, 0, 64, 127
1, 155403, Control_c, 0, 64, 119
1, 155418, Control_c, 0, 64, 98
1, 155431, Note_on_c, 0, 56, 89
1, 155433, Control_c, 0, 64, 73
1, 155435, Note_on_c, 0, 47, 92
1, 155437, Note_on_c, 0, 62, 84
1, 155440, Note_on_c, 0, 65, 72
1, 155443, Note_on_c, 0, 35, 74
1, 155448, Control_c, 0, 64, 0
1, 155450, Note_on_c, 0, 66, 57
1, 155467, Note_off_c, 0, 56, 57
1, 155471, Note_off_c, 0, 66, 38
1, 155473, Note_off_c, 0, 65, 63
1, 155475, Note_off_c, 0, 47, 61
1, 155477, Note_off_c, 0, 35, 66
1, 155478, Note_off_c, 0, 62, 58
1, 155564, Note_on_c, 0, 56, 90
1, 155567, Note_on_c, 0, 47, 93
1, 155567, Note_on_c, 0, 62, 83
1, 155567, Note_on_c, 0, 65, 82
1, 155568, Note_on_c, 0, 35, 78
1, 155602, Note_off_c, 0, 47, 65
1, 155604, Note_off_c, 0, 35, 68
1, 155605, Note_off_c, 0, 65, 63
1, 155613, Note_off_c, 0, 56, 63
1, 155616, Note_off_c, 0, 62, 59
1, 155701, Control_c, 0, 64, 43
1, 155703, Note_on_c, 0, 64, 94
1, 155705, Note_on_c, 0, 55, 100
1, 155708, Note_on_c, 0, 48, 100
1, 155711, Note_on_c, 0, 60, 81
1, 155712, Note_on_c, 0, 36, 90
1, 155716, Control_c, 0, 64, 75
1, 155730, Control_c, 0, 64, 90
1, 155737, Note_off_c, 0, 48, 65
1, 155739, Note_off_c, 0, 36, 67
1, 155743, Note_off_c, 0, 60, 58
1, 155745, Note_off_c, 0, 55, 63
1, 155745, Control_c, 0, 64, 124
1, 155750, Note_off_c, 0, 64, 66
1, 155760, Control_c, 0, 64, 127
1, 155953, Control_c, 0, 64, 109
1, 155974, Control_c, 0, 64, 85
1, 155989, Control_c, 0, 64, 57
1, 155995, Note_on_c, 0, 53, 92
1, 155997, Note_on_c, 0, 62, 88
1, 155998, Note_on_c, 0, 55, 89
1, 155998, Note_on_c, 0, 59, 85
1, 156004, Note_on_c, 0, 41, 82
1, 156004, Control_c, 0, 64, 0
1, 156025, Note_off_c, 0, 53, 68
1, 156028, Note_off_c, 0, 55, 61
1, 156031, Note_off_c, 0, 41, 68
1, 156031, Note_off_c, 0, 59, 64
1, 156048, Note_off_c, 0, 62, 61
1, 156135, Note_on_c, 0, 53, 94
1, 156135, Note_on_c, 0, 62, 95
1, 156137, Note_on_c, 0, 41, 73
1, 156138, Note_on_c, 0, 55, 91
1, 156143, Note_on_c, 0, 59, 81
1, 156169, Note_off_c, 0, 53, 67
1, 156171, Note_off_c, 0, 55, 60
1, 156174, Note_off_c, 0, 41, 66
1, 156175, Note_off_c, 0, 59, 55
1, 156191, Note_off_c, 0, 62, 60
1, 156292, Note_on_c, 0, 52, 102
1, 156293, Note_on_c, 0, 60, 99
1, 156293, Note_on_c, 0, 55, 95
1, 156297, Note_on_c, 0, 40, 97
1, 156301, Control_c, 0, 64, 68
1, 156316, Control_c, 0, 64, 81
1, 156320, Note_off_c, 0, 52, 65
1, 156323, Note_off_c, 0, 40, 70
1, 156325, Note_off_c, 0, 55, 65
1, 156331, Control_c, 0, 64, 94
1, 156334, Note_off_c, 0, 60, 65
1, 156346, Control_c, 0, 64, 104
1, 156360, Control_c, 0, 64, 109
1, 156375, Control_c, 0, 64, 110
1, 156405, Poly_aftertouch_c, 0, 50, 0
1, 156493, Control_c, 0, 64, 109
1, 156508, Control_c, 0, 64, 109
1, 156523, Control_c, 0, 64, 106
1, 156538, Control_c, 0, 64, 97
1, 156552, Control_c, 0, 64, 82
1, 156567, Control_c, 0, 64, 56
1, 156577, Note_on_c, 0, 70, 96
1, 156581, Note_on_c, 0, 60, 99
1, 156581, Note_on_c, 0, 64, 88
1, 156582, Control_c, 0, 64, 0
1, 156585, Note_on_c, 0, 48, 95
1, 156588, Note_on_c, 0, 36, 86
1, 156590, Note_on_c, 0, 67, 76
1, 156609, Note_off_c, 0, 60, 65
1, 156623, Note_off_c, 0, 48, 61
1, 156625, Note_off_c, 0, 36, 65
1, 156628, Note_off_c, 0, 64, 61
1, 156631, Note_off_c, 0, 67, 54
1, 156645, Note_off_c, 0, 70, 60
1, 156743, Note_on_c, 0, 70, 103
1, 156744, Note_on_c, 0, 64, 95
1, 156748, Note_on_c, 0, 48, 93
1, 156749, Note_on_c, 0, 60, 88
1, 156751, Note_on_c, 0, 36, 88
1, 156762, Note_on_c, 0, 67, 64
1, 156775, Note_off_c, 0, 60, 60
1, 156776, Note_off_c, 0, 48, 65
1, 156780, Note_off_c, 0, 36, 65
1, 156782, Note_off_c, 0, 67, 62
1, 156802, Note_off_c, 0, 64, 58
1, 156821, Note_off_c, 0, 70, 57
1, 156916, Note_on_c, 0, 65, 100
1, 156917, Note_on_c, 0, 60, 105
1, 156919, Note_on_c, 0, 53, 100
1, 156919, Note_on_c, 0, 69, 101
1, 156926, Note_on_c, 0, 41, 92
1, 156944, Note_off_c, 0, 60, 66
1, 156946, Control_c, 0, 64, 71
1, 156947, Note_off_c, 0, 65, 70
1, 156951, Note_off_c, 0, 53, 69
1, 156954, Note_off_c, 0, 69, 66
1, 156955, Note_off_c, 0, 41, 70
1, 156961, Control_c, 0, 64, 91
1, 156975, Control_c, 0, 64, 127
1, 156990, Control_c, 0, 64, 127
1, 157159, Note_on_c, 0, 29, 65
1, 157181, Note_on_c, 0, 33, 73
1, 157192, Note_off_c, 0, 29, 61
1, 157199, Note_on_c, 0, 36, 86
1, 157210, Note_off_c, 0, 33, 66
1, 157250, Note_off_c, 0, 36, 64
1, 157257, Note_on_c, 0, 41, 78
1, 157291, Note_off_c, 0, 41, 68
1, 157308, Note_on_c, 0, 45, 84
1, 157344, Note_on_c, 0, 48, 89
1, 157360, Note_off_c, 0, 45, 66
1, 157363, Note_off_c, 0, 48, 75
1, 157391, Control_c, 0, 64, 126
1, 157406, Control_c, 0, 64, 97
1, 157421, Control_c, 0, 64, 70
1, 157423, Note_on_c, 0, 53, 102
1, 157436, Control_c, 0, 64, 0
1, 157620, Note_off_c, 0, 53, 58
1, 157691, Note_on_c, 0, 62, 90
1, 157694, Note_on_c, 0, 53, 97
1, 157696, Note_on_c, 0, 41, 84
1, 157699, Note_on_c, 0, 68, 76
1, 157701, Note_on_c, 0, 71, 71
1, 157704, Note_on_c, 0, 72, 72
1, 157712, Note_off_c, 0, 62, 68
1, 157713, Note_off_c, 0, 68, 70
1, 157727, Note_off_c, 0, 72, 71
1, 157727, Note_off_c, 0, 71, 66
1, 157728, Note_off_c, 0, 53, 66
1, 157729, Note_off_c, 0, 41, 67
1, 157830, Note_on_c, 0, 71, 89
1, 157831, Note_on_c, 0, 68, 76
1, 157831, Note_on_c, 0, 62, 89
1, 157837, Note_on_c, 0, 53, 90
1, 157842, Note_on_c, 0, 41, 81
1, 157854, Note_off_c, 0, 62, 68
1, 157875, Note_off_c, 0, 53, 66
1, 157876, Note_off_c, 0, 71, 60
1, 157881, Note_off_c, 0, 41, 65
1, 157882, Note_off_c, 0, 68, 62
1, 157979, Note_on_c, 0, 52, 102
1, 157980, Note_on_c, 0, 64, 102
1, 157983, Note_on_c, 0, 40, 100
1, 157983, Note_on_c, 0, 72, 102
1, 157985, Note_on_c, 0, 67, 88
1, 157992, Control_c, 0, 64, 48
1, 158004, Note_off_c, 0, 64, 69
1, 158007, Control_c, 0, 64, 84
1, 158008, Note_off_c, 0, 40, 69
1, 158011, Note_off_c, 0, 52, 67
1, 158013, Note_off_c, 0, 67, 65
1, 158022, Control_c, 0, 64, 115
1, 158037, Control_c, 0, 64, 127
1, 158040, Note_off_c, 0, 72, 63
1, 158251, Note_on_c, 0, 60, 71
1, 158259, Note_on_c, 0, 64, 78
1, 158307, Note_off_c, 0, 64, 68
1, 158309, Note_on_c, 0, 67, 87
1, 158328, Note_off_c, 0, 60, 64
1, 158345, Note_off_c, 0, 67, 67
1, 158350, Note_on_c, 0, 72, 84
1, 158400, Note_on_c, 0, 76, 83
1, 158409, Note_off_c, 0, 72, 66
1, 158438, Note_on_c, 0, 79, 84
1, 158457, Note_off_c, 0, 76, 67
1, 158488, Control_c, 0, 64, 93
1, 158493, Note_on_c, 0, 84, 106
1, 158503, Control_c, 0, 64, 64
1, 158518, Control_c, 0, 64, 0
1, 158523, Note_on_c, 0, 81, 46
1, 158524, Note_off_c, 0, 81, 127
1, 158524, Note_off_c, 0, 79, 61
1, 158613, Note_off_c, 0, 84, 65
1, 158760, Note_on_c, 0, 48, 92
1, 158761, Note_on_c, 0, 72, 84
1, 158762, Note_on_c, 0, 63, 78
1, 158762, Note_on_c, 0, 66, 85
1, 158768, Note_on_c, 0, 36, 74
1, 158775, Note_on_c, 0, 69, 62
1, 158783, Note_off_c, 0, 66, 71
1, 158784, Note_off_c, 0, 63, 70
1, 158790, Note_off_c, 0, 48, 65
1, 158793, Note_off_c, 0, 36, 66
1, 158794, Note_off_c, 0, 69, 65
1, 158795, Note_off_c, 0, 72, 64
1, 158892, Note_on_c, 0, 63, 90
1, 158896, Note_on_c, 0, 48, 94
1, 158896, Note_on_c, 0, 69, 66
1, 158899, Note_on_c, 0, 66, 80
1, 158899, Note_on_c, 0, 72, 86
1, 158902, Note_on_c, 0, 36, 71
1, 158920, Note_off_c, 0, 63, 63
1, 158921, Note_off_c, 0, 66, 70
1, 158927, Note_off_c, 0, 48, 63
1, 158930, Note_off_c, 0, 69, 65
1, 158938, Note_off_c, 0, 72, 65
1, 158939, Note_off_c, 0, 36, 65
1, 159047, Note_on_c, 0, 62, 99
1, 159047, Note_on_c, 0, 71, 99
1, 159051, Note_on_c, 0, 43, 103
1, 159054, Note_on_c, 0, 67, 74
1, 159057, Note_on_c, 0, 31, 87
1, 159069, Note_off_c, 0, 62, 68
1, 159074, Note_off_c, 0, 67, 68
1, 159075, Control_c, 0, 64, 69
1, 159076, Note_off_c, 0, 71, 63
1, 159085, Note_off_c, 0, 31, 68
1, 159090, Control_c, 0, 64, 92
1, 159091, Note_off_c, 0, 43, 62
1, 159105, Control_c, 0, 64, 127
1, 159149, Poly_aftertouch_c, 0, 70, 0
1, 159286, Note_on_c, 0, 31, 64
1, 159308, Note_on_c, 0, 35, 73
1, 159328, Note_on_c, 0, 38, 89
1, 159344, Note_off_c, 0, 31, 63
1, 159346, Note_off_c, 0, 35, 65
1, 159374, Note_on_c, 0, 43, 78
1, 159376, Note_off_c, 0, 38, 61
1, 159412, Note_off_c, 0, 43, 64
1, 159423, Note_on_c, 0, 47, 87
1, 159463, Note_on_c, 0, 50, 81
1, 159476, Note_off_c, 0, 47, 69
1, 159504, Note_off_c, 0, 50, 68
1, 159535, Control_c, 0, 64, 125
1, 159550, Control_c, 0, 64, 85
1, 159552, Note_on_c, 0, 55, 105
1, 159565, Control_c, 0, 64, 0
1, 159761, Note_off_c, 0, 55, 53
1, 159823, Note_on_c, 0, 64, 92
1, 159824, Note_on_c, 0, 73, 92
1, 159825, Note_on_c, 0, 70, 90
1, 159828, Note_on_c, 0, 55, 95
1, 159837, Note_on_c, 0, 43, 75
1, 159845, Note_off_c, 0, 64, 68
1, 159856, Note_off_c, 0, 55, 65
1, 159861, Note_off_c, 0, 70, 60
1, 159861, Note_off_c, 0, 73, 62
1, 159867, Note_off_c, 0, 43, 63
1, 159967, Note_on_c, 0, 64, 86
1, 159975, Note_on_c, 0, 73, 64
1, 159976, Note_off_c, 0, 73, 127
1, 159976, Note_on_c, 0, 55, 92
1, 159981, Note_on_c, 0, 43, 74
1, 159986, Note_on_c, 0, 74, 56
1, 159987, Note_off_c, 0, 64, 71
1, 159988, Note_on_c, 0, 71, 55
1, 160005, Note_off_c, 0, 74, 65
1, 160008, Note_off_c, 0, 71, 59
1, 160010, Note_off_c, 0, 55, 62
1, 160022, Note_off_c, 0, 43, 62
1, 160117, Note_on_c, 0, 53, 99
1, 160120, Note_on_c, 0, 41, 98
1, 160120, Note_on_c, 0, 74, 92
1, 160122, Note_on_c, 0, 65, 89
1, 160124, Note_on_c, 0, 69, 82
1, 160133, Control_c, 0, 64, 18
1, 160140, Note_off_c, 0, 65, 74
1, 160143, Note_off_c, 0, 41, 71
1, 160145, Note_off_c, 0, 69, 72
1, 160148, Control_c, 0, 64, 76
1, 160150, Note_off_c, 0, 53, 68
1, 160163, Control_c, 0, 64, 93
1, 160168, Note_off_c, 0, 74, 66
1, 160178, Control_c, 0, 64, 119
1, 160193, Control_c, 0, 64, 127
1, 160217, Poly_aftertouch_c, 0, 76, 0
1, 160387, Note_on_c, 0, 65, 83
1, 160407, Note_on_c, 0, 69, 83
1, 160459, Note_on_c, 0, 74, 83
1, 160491, Note_off_c, 0, 69, 66
1, 160497, Note_on_c, 0, 77, 86
1, 160500, Note_off_c, 0, 65, 63
1, 160513, Note_off_c, 0, 74, 71
1, 160541, Note_on_c, 0, 81, 87
1, 160576, Note_off_c, 0, 77, 60
1, 160579, Note_on_c, 0, 86, 82
1, 160602, Note_off_c, 0, 81, 63
1, 160638, Note_on_c, 0, 89, 104
1, 160660, Note_off_c, 0, 86, 61
1, 160666, Note_on_c, 0, 88, 43
1, 160667, Note_off_c, 0, 88, 127
1, 160677, Note_off_c, 0, 89, 68
1, 160679, Poly_aftertouch_c, 0, 84, 0
1, 160883, Note_on_c, 0, 29, 77
1, 160886, Note_on_c, 0, 65, 93
1, 160887, Note_on_c, 0, 77, 97
1, 160889, Note_on_c, 0, 74, 82
1, 160898, Control_c, 0, 64, 108
1, 160907, Note_off_c, 0, 65, 67
1, 160913, Control_c, 0, 64, 86
1, 160918, Note_off_c, 0, 74, 63
1, 160926, Note_off_c, 0, 77, 63
1, 160927, Control_c, 0, 64, 65
1, 160938, Note_on_c, 0, 34, 67
1, 160942, Control_c, 0, 64, 0
1, 160953, Note_off_c, 0, 29, 61
1, 160982, Note_on_c, 0, 38, 66
1, 160994, Note_off_c, 0, 34, 64
1, 161007, Note_off_c, 0, 38, 65
1, 161025, Note_on_c, 0, 65, 95
1, 161026, Note_on_c, 0, 77, 94
1, 161027, Note_on_c, 0, 74, 85
1, 161029, Note_on_c, 0, 41, 79
1, 161048, Note_off_c, 0, 65, 65
1, 161060, Note_off_c, 0, 74, 60
1, 161063, Note_off_c, 0, 77, 61
1, 161075, Note_off_c, 0, 41, 65
1, 161132, Note_on_c, 0, 50, 70
1, 161167, Note_on_c, 0, 76, 91
1, 161169, Note_on_c, 0, 65, 96
1, 161174, Note_on_c, 0, 73, 84
1, 161175, Note_off_c, 0, 50, 65
1, 161176, Note_on_c, 0, 53, 86
1, 161180, Control_c, 0, 64, 64
1, 161190, Note_off_c, 0, 65, 69
1, 161195, Control_c, 0, 64, 80
1, 161212, Note_off_c, 0, 73, 60
1, 161218, Control_c, 0, 64, 94
1, 161221, Note_off_c, 0, 76, 68
1, 161226, Note_off_c, 0, 53, 66
1, 161232, Control_c, 0, 64, 103
1, 161247, Control_c, 0, 64, 108
1, 161262, Control_c, 0, 64, 110
1, 161276, Control_c, 0, 64, 111
1, 161321, Control_c, 0, 64, 111
1, 161350, Control_c, 0, 64, 112
1, 161380, Control_c, 0, 64, 113
1, 161410, Control_c, 0, 64, 112
1, 161421, Note_on_c, 0, 65, 72
1, 161425, Control_c, 0, 64, 105
1, 161429, Note_on_c, 0, 64, 95
1, 161433, Note_on_c, 0, 61, 85
1, 161439, Control_c, 0, 64, 91
1, 161449, Note_on_c, 0, 70, 81
1, 161454, Control_c, 0, 64, 73
1, 161460, Note_off_c, 0, 65, 62
1, 161465, Note_off_c, 0, 64, 66
1, 161469, Control_c, 0, 64, 0
1, 161483, Note_off_c, 0, 61, 62
1, 161510, Note_on_c, 0, 73, 77
1, 161512, Note_off_c, 0, 70, 66
1, 161531, Note_off_c, 0, 73, 69
1, 161571, Note_on_c, 0, 64, 90
1, 161588, Note_on_c, 0, 77, 83
1, 161617, Note_off_c, 0, 64, 64
1, 161630, Note_on_c, 0, 82, 84
1, 161642, Note_off_c, 0, 77, 58
1, 161663, Note_on_c, 0, 85, 75
1, 161698, Note_off_c, 0, 82, 64
1, 161710, Note_on_c, 0, 89, 100
1, 161712, Note_on_c, 0, 63, 100
1, 161714, Note_on_c, 0, 60, 80
1, 161716, Note_on_c, 0, 53, 66
1, 161735, Note_off_c, 0, 85, 64
1, 161736, Control_c, 0, 64, 75
1, 161740, Note_off_c, 0, 89, 67
1, 161743, Note_off_c, 0, 60, 67
1, 161745, Note_off_c, 0, 63, 66
1, 161750, Control_c, 0, 64, 107
1, 161761, Note_off_c, 0, 53, 67
1, 161765, Control_c, 0, 64, 127
1, 161961, Poly_aftertouch_c, 0, 37, 127
1, 161985, Note_on_c, 0, 29, 79
1, 161990, Note_on_c, 0, 75, 89
1, 161993, Note_on_c, 0, 65, 83
1, 161993, Note_on_c, 0, 72, 81
1, 161995, Control_c, 0, 64, 97
1, 162003, Poly_aftertouch_c, 0, 37, 0
1, 162010, Control_c, 0, 64, 75
1, 162013, Note_off_c, 0, 65, 72
1, 162017, Note_off_c, 0, 72, 65
1, 162025, Control_c, 0, 64, 0
1, 162034, Note_off_c, 0, 75, 65
1, 162041, Note_on_c, 0, 33, 56
1, 162061, Note_off_c, 0, 29, 62
1, 162065, Note_on_c, 0, 36, 74
1, 162078, Note_off_c, 0, 33, 64
1, 162105, Note_off_c, 0, 36, 67
1, 162110, Note_on_c, 0, 41, 80
1, 162130, Note_on_c, 0, 65, 84
1, 162131, Note_on_c, 0, 75, 87
1, 162140, Note_on_c, 0, 72, 66
1, 162150, Note_off_c, 0, 41, 64
1, 162154, Note_off_c, 0, 65, 68
1, 162167, Note_off_c, 0, 72, 68
1, 162181, Note_off_c, 0, 75, 63
1, 162208, Note_on_c, 0, 45, 59
1, 162218, Note_on_c, 0, 48, 77
1, 162235, Note_off_c, 0, 45, 58
1, 162268, Note_on_c, 0, 53, 90
1, 162277, Control_c, 0, 64, 57
1, 162284, Note_on_c, 0, 65, 78
1, 162285, Note_on_c, 0, 71, 78
1, 162285, Note_on_c, 0, 74, 76
1, 162285, Note_off_c, 0, 48, 62
1, 162291, Control_c, 0, 64, 70
1, 162293, Note_on_c, 0, 64, 74
1, 162298, Note_on_c, 0, 72, 71
1, 162305, Note_off_c, 0, 65, 72
1, 162306, Control_c, 0, 64, 80
1, 162309, Note_off_c, 0, 64, 68
1, 162309, Note_off_c, 0, 53, 66
1, 162316, Note_off_c, 0, 72, 58
1, 162321, Control_c, 0, 64, 96
1, 162321, Note_off_c, 0, 71, 56
1, 162336, Control_c, 0, 64, 111
1, 162345, Note_off_c, 0, 74, 62
1, 162351, Control_c, 0, 64, 127
1, 162469, Note_on_c, 0, 75, 12
1, 162494, Note_off_c, 0, 75, 44
1, 162527, Note_on_c, 0, 62, 88
1, 162528, Note_on_c, 0, 65, 79
1, 162528, Control_c, 0, 64, 117
1, 162534, Note_on_c, 0, 59, 77
1, 162543, Control_c, 0, 64, 96
1, 162550, Note_off_c, 0, 65, 72
1, 162554, Note_on_c, 0, 53, 48
1, 162558, Control_c, 0, 64, 76
1, 162560, Note_on_c, 0, 71, 83
1, 162566, Note_off_c, 0, 62, 61
1, 162572, Note_off_c, 0, 53, 60
1, 162572, Control_c, 0, 64, 0
1, 162579, Note_off_c, 0, 59, 60
1, 162607, Note_off_c, 0, 71, 65
1, 162616, Note_on_c, 0, 74, 76
1, 162634, Note_off_c, 0, 74, 74
1, 162666, Note_on_c, 0, 62, 89
1, 162669, Note_on_c, 0, 53, 54
1, 162690, Note_on_c, 0, 77, 84
1, 162723, Note_off_c, 0, 62, 61
1, 162730, Note_off_c, 0, 53, 59
1, 162738, Note_on_c, 0, 83, 85
1, 162753, Note_off_c, 0, 77, 62
1, 162783, Note_on_c, 0, 86, 86
1, 162816, Note_off_c, 0, 83, 57
1, 162817, Note_on_c, 0, 89, 99
1, 162818, Note_on_c, 0, 61, 94
1, 162821, Note_on_c, 0, 53, 71
1, 162825, Note_on_c, 0, 58, 81
1, 162831, Note_off_c, 0, 86, 67
1, 162833, Control_c, 0, 64, 64
1, 162847, Note_off_c, 0, 58, 70
1, 162847, Note_off_c, 0, 61, 65
1, 162847, Note_off_c, 0, 89, 67
1, 162847, Control_c, 0, 64, 84
1, 162860, Note_off_c, 0, 53, 69
1, 162862, Control_c, 0, 64, 109
1, 162877, Control_c, 0, 64, 127
1, 162998, Note_on_c, 0, 34, 40
1, 163033, Note_off_c, 0, 34, 47
1, 163078, Note_on_c, 0, 29, 74
1, 163084, Control_c, 0, 64, 107
1, 163085, Note_on_c, 0, 73, 93
1, 163087, Note_on_c, 0, 65, 84
1, 163091, Note_on_c, 0, 70, 79
1, 163099, Control_c, 0, 64, 87
1, 163109, Note_off_c, 0, 65, 71
1, 163114, Control_c, 0, 64, 68
1, 163123, Note_on_c, 0, 35, 60
1, 163123, Note_off_c, 0, 70, 55
1, 163127, Note_off_c, 0, 73, 62
1, 163129, Control_c, 0, 64, 0
1, 163156, Note_off_c, 0, 29, 61
1, 163168, Note_off_c, 0, 35, 64
1, 163168, Note_on_c, 0, 37, 53
1, 163193, Note_on_c, 0, 38, 54
1, 163196, Note_off_c, 0, 37, 37
1, 163205, Note_on_c, 0, 41, 76
1, 163222, Note_off_c, 0, 38, 51
1, 163225, Note_on_c, 0, 65, 86
1, 163225, Note_on_c, 0, 73, 87
1, 163236, Note_off_c, 0, 41, 65
1, 163256, Note_on_c, 0, 69, 41
1, 163257, Note_off_c, 0, 65, 65
1, 163282, Note_off_c, 0, 69, 50
1, 163307, Note_off_c, 0, 73, 61
1, 163308, Note_on_c, 0, 49, 79
1, 163316, Note_on_c, 0, 46, 35
1, 163317, Note_off_c, 0, 46, 127
1, 163358, Note_on_c, 0, 69, 84
1, 163361, Note_on_c, 0, 53, 84
1, 163362, Note_off_c, 0, 49, 56
1, 163364, Note_on_c, 0, 65, 83
1, 163365, Note_on_c, 0, 72, 82
1, 163381, Control_c, 0, 64, 70
1, 163385, Note_off_c, 0, 65, 72
1, 163393, Note_off_c, 0, 69, 67
1, 163395, Control_c, 0, 64, 84
1, 163405, Note_off_c, 0, 72, 66
1, 163409, Note_off_c, 0, 53, 65
1, 163410, Control_c, 0, 64, 97
1, 163425, Control_c, 0, 64, 102
1, 163440, Control_c, 0, 64, 102
1, 163546, Note_on_c, 0, 73, 29
1, 163582, Note_off_c, 0, 73, 44
1, 163612, Control_c, 0, 64, 102
1, 163616, Note_on_c, 0, 69, 81
1, 163618, Note_on_c, 0, 57, 87
1, 163624, Note_on_c, 0, 45, 77
1, 163627, Control_c, 0, 64, 96
1, 163636, Note_off_c, 0, 69, 72
1, 163642, Control_c, 0, 64, 83
1, 163642, Note_on_c, 0, 74, 81
1, 163657, Note_off_c, 0, 57, 60
1, 163657, Control_c, 0, 64, 66
1, 163660, Note_off_c, 0, 45, 65
1, 163671, Control_c, 0, 64, 0
1, 163695, Note_on_c, 0, 77, 81
1, 163703, Note_off_c, 0, 74, 68
1, 163726, Note_off_c, 0, 77, 63
1, 163749, Note_on_c, 0, 57, 87
1, 163757, Note_on_c, 0, 45, 74
1, 163774, Note_on_c, 0, 81, 85
1, 163799, Note_off_c, 0, 57, 60
1, 163811, Note_off_c, 0, 45, 61
1, 163812, Note_on_c, 0, 86, 84
1, 163829, Note_off_c, 0, 81, 63
1, 163850, Note_on_c, 0, 89, 86
1, 163871, Note_off_c, 0, 86, 63
1, 163892, Note_on_c, 0, 57, 91
1, 163892, Note_on_c, 0, 93, 107
1, 163902, Note_on_c, 0, 45, 80
1, 163907, Note_off_c, 0, 89, 69
1, 163908, Control_c, 0, 64, 69
1, 163920, Note_off_c, 0, 93, 68
1, 163923, Note_off_c, 0, 57, 63
1, 163923, Control_c, 0, 64, 83
1, 163928, Note_off_c, 0, 45, 67
1, 163938, Control_c, 0, 64, 99
1, 163952, Control_c, 0, 64, 112
1, 163967, Control_c, 0, 64, 114
1, 164012, Control_c, 0, 64, 114
1, 164026, Control_c, 0, 64, 113
1, 164116, Control_c, 0, 64, 112
1, 164131, Control_c, 0, 64, 112
1, 164145, Control_c, 0, 64, 107
1, 164160, Control_c, 0, 64, 95
1, 164175, Note_on_c, 0, 73, 97
1, 164175, Control_c, 0, 64, 77
1, 164175, Note_on_c, 0, 64, 103
1, 164176, Note_on_c, 0, 67, 91
1, 164181, Note_on_c, 0, 57, 94
1, 164184, Note_on_c, 0, 69, 85
1, 164190, Control_c, 0, 64, 24
1, 164190, Note_on_c, 0, 45, 75
1, 164211, Control_c, 0, 64, 0
1, 164214, Note_off_c, 0, 64, 64
1, 164216, Note_off_c, 0, 69, 65
1, 164222, Note_off_c, 0, 45, 68
1, 164225, Note_off_c, 0, 57, 61
1, 164229, Note_off_c, 0, 67, 59
1, 164249, Note_off_c, 0, 73, 63
1, 164357, Note_on_c, 0, 57, 89
1, 164357, Note_on_c, 0, 67, 86
1, 164357, Note_on_c, 0, 73, 88
1, 164358, Note_on_c, 0, 64, 87
1, 164366, Note_on_c, 0, 45, 79
1, 164373, Note_on_c, 0, 69, 65
1, 164378, Note_off_c, 0, 57, 68
1, 164384, Note_off_c, 0, 64, 66
1, 164390, Note_off_c, 0, 69, 66
1, 164395, Note_off_c, 0, 45, 67
1, 164398, Note_off_c, 0, 67, 59
1, 164423, Note_off_c, 0, 73, 61
1, 164554, Note_on_c, 0, 74, 89
1, 164555, Note_on_c, 0, 69, 94
1, 164556, Note_on_c, 0, 65, 90
1, 164560, Note_on_c, 0, 50, 98
1, 164563, Note_on_c, 0, 38, 93
1, 164568, Control_c, 0, 64, 47
1, 164577, Note_off_c, 0, 65, 70
1, 164583, Note_off_c, 0, 69, 70
1, 164583, Control_c, 0, 64, 74
1, 164590, Note_off_c, 0, 74, 66
1, 164592, Note_off_c, 0, 38, 66
1, 164598, Note_off_c, 0, 50, 65
1, 164598, Control_c, 0, 64, 88
1, 164613, Control_c, 0, 64, 101
1, 164627, Control_c, 0, 64, 106
1, 164642, Control_c, 0, 64, 108
1, 164746, Control_c, 0, 64, 108
1, 164761, Control_c, 0, 64, 106
1, 164775, Control_c, 0, 64, 103
1, 164780, Note_on_c, 0, 62, 68
1, 164790, Control_c, 0, 64, 100
1, 164805, Control_c, 0, 64, 96
1, 164810, Note_off_c, 0, 62, 64
1, 164814, Note_on_c, 0, 64, 68
1, 164819, Control_c, 0, 64, 93
1, 164834, Control_c, 0, 64, 90
1, 164849, Control_c, 0, 64, 87
1, 164857, Note_off_c, 0, 64, 62
1, 164864, Control_c, 0, 64, 83
1, 164879, Control_c, 0, 64, 78
1, 164882, Note_on_c, 0, 65, 72
1, 164894, Control_c, 0, 64, 71
1, 164903, Note_off_c, 0, 65, 67
1, 164909, Control_c, 0, 64, 44
1, 164924, Control_c, 0, 64, 0
1, 164966, Note_on_c, 0, 65, 70
1, 164998, Note_off_c, 0, 65, 64
1, 165056, Note_on_c, 0, 64, 21
1, 165064, Control_c, 0, 67, 17
1, 165080, Control_c, 0, 67, 30
1, 165082, Note_on_c, 0, 62, 55
1, 165095, Control_c, 0, 67, 43
1, 165096, Note_off_c, 0, 64, 31
1, 165110, Control_c, 0, 67, 53
1, 165114, Note_off_c, 0, 62, 52
1, 165124, Control_c, 0, 67, 60
1, 165139, Control_c, 0, 64, 62
1, 165139, Control_c, 0, 67, 66
1, 165145, Note_on_c, 0, 69, 64
1, 165153, Note_on_c, 0, 65, 52
1, 165154, Control_c, 0, 64, 68
1, 165154, Control_c, 0, 67, 69
1, 165169, Control_c, 0, 64, 74
1, 165169, Control_c, 0, 67, 73
1, 165171, Note_on_c, 0, 35, 39
1, 165184, Control_c, 0, 64, 80
1, 165184, Control_c, 0, 67, 77
1, 165192, Note_on_c, 0, 47, 18
1, 165198, Control_c, 0, 64, 85
1, 165198, Control_c, 0, 67, 80
1, 165201, Note_on_c, 0, 64, 59
1, 165201, Note_off_c, 0, 65, 60
1, 165207, Note_off_c, 0, 35, 55
1, 165213, Control_c, 0, 64, 88
1, 165228, Note_off_c, 0, 69, 62
1, 165228, Control_c, 0, 64, 91
1, 165237, Note_off_c, 0, 47, 50
1, 165243, Control_c, 0, 64, 92
1, 165243, Control_c, 0, 67, 79
1, 165252, Note_off_c, 0, 64, 60
1, 165257, Control_c, 0, 67, 79
1, 165261, Note_on_c, 0, 62, 68
1, 165272, Control_c, 0, 64, 92
1, 165272, Control_c, 0, 67, 78
1, 165287, Control_c, 0, 64, 86
1, 165290, Note_off_c, 0, 62, 64
1, 165302, Control_c, 0, 64, 77
1, 165317, Control_c, 0, 64, 67
1, 165332, Control_c, 0, 64, 62
1, 165334, Note_on_c, 0, 68, 69
1, 165347, Control_c, 0, 64, 65
1, 165353, Note_on_c, 0, 52, 63
1, 165358, Note_on_c, 0, 65, 41
1, 165362, Control_c, 0, 64, 69
1, 165362, Control_c, 0, 67, 78
1, 165368, Note_on_c, 0, 64, 65
1, 165377, Control_c, 0, 64, 74
1, 165384, Note_off_c, 0, 65, 55
1, 165390, Note_off_c, 0, 52, 65
1, 165392, Control_c, 0, 64, 78
1, 165406, Control_c, 0, 64, 81
1, 165406, Control_c, 0, 67, 79
1, 165407, Note_off_c, 0, 68, 62
1, 165418, Poly_aftertouch_c, 0, 40, 127
1, 165421, Control_c, 0, 64, 82
1, 165421, Control_c, 0, 67, 79
1, 165427, Note_on_c, 0, 62, 70
1, 165430, Note_off_c, 0, 64, 62
1, 165436, Control_c, 0, 67, 80
1, 165445, Poly_aftertouch_c, 0, 40, 0
1, 165454, Note_off_c, 0, 62, 66
1, 165480, Control_c, 0, 64, 77
1, 165495, Control_c, 0, 64, 67
1, 165495, Control_c, 0, 67, 79
1, 165510, Control_c, 0, 64, 0
1, 165510, Control_c, 0, 67, 78
1, 165514, Note_on_c, 0, 62, 79
1, 165524, Control_c, 0, 67, 77
1, 165529, Note_on_c, 0, 56, 62
1, 165539, Note_on_c, 0, 59, 50
1, 165539, Control_c, 0, 67, 75
1, 165554, Control_c, 0, 67, 73
1, 165556, Note_off_c, 0, 62, 59
1, 165558, Note_off_c, 0, 56, 65
1, 165562, Note_off_c, 0, 59, 57
1, 165569, Control_c, 0, 67, 70
1, 165584, Control_c, 0, 67, 65
1, 165585, Note_on_c, 0, 64, 72
1, 165598, Control_c, 0, 67, 57
1, 165613, Control_c, 0, 67, 47
1, 165619, Note_off_c, 0, 64, 61
1, 165628, Control_c, 0, 67, 35
1, 165642, Control_c, 0, 67, 24
1, 165654, Note_on_c, 0, 65, 49
1, 165657, Control_c, 0, 67, 12
1, 165672, Control_c, 0, 67, 0
1, 165699, Note_off_c, 0, 65, 0
1, 165709, Note_on_c, 0, 65, 67
1, 165753, Note_off_c, 0, 65, 65
1, 165787, Note_on_c, 0, 64, 53
1, 165807, Note_off_c, 0, 64, 61
1, 165855, Note_on_c, 0, 62, 23
1, 165894, Note_on_c, 0, 69, 71
1, 165896, Note_off_c, 0, 62, 30
1, 165903, Control_c, 0, 64, 62
1, 165906, Note_on_c, 0, 65, 55
1, 165918, Note_on_c, 0, 47, 40
1, 165918, Control_c, 0, 64, 71
1, 165922, Note_on_c, 0, 35, 35
1, 165933, Control_c, 0, 64, 77
1, 165947, Control_c, 0, 64, 81
1, 165956, Note_off_c, 0, 47, 61
1, 165959, Note_off_c, 0, 35, 48
1, 165960, Note_off_c, 0, 65, 60
1, 165962, Control_c, 0, 64, 83
1, 165973, Note_on_c, 0, 64, 58
1, 165977, Control_c, 0, 64, 84
1, 165989, Note_off_c, 0, 69, 62
1, 165992, Control_c, 0, 64, 85
1, 165992, Control_c, 0, 67, 11
1, 166007, Control_c, 0, 64, 85
1, 166007, Control_c, 0, 67, 20
1, 166015, Note_off_c, 0, 64, 63
1, 166021, Control_c, 0, 67, 34
1, 166024, Note_on_c, 0, 62, 60
1, 166036, Control_c, 0, 67, 49
1, 166051, Note_off_c, 0, 62, 57
1, 166051, Control_c, 0, 64, 82
1, 166051, Control_c, 0, 67, 64
1, 166066, Control_c, 0, 64, 75
1, 166066, Control_c, 0, 67, 81
1, 166080, Control_c, 0, 64, 66
1, 166080, Control_c, 0, 67, 93
1, 166091, Note_on_c, 0, 68, 71
1, 166095, Control_c, 0, 64, 55
1, 166095, Control_c, 0, 67, 102
1, 166098, Note_on_c, 0, 65, 60
1, 166107, Note_on_c, 0, 52, 53
1, 166110, Control_c, 0, 64, 59
1, 166110, Control_c, 0, 67, 108
1, 166113, Note_on_c, 0, 40, 37
1, 166125, Control_c, 0, 64, 66
1, 166125, Control_c, 0, 67, 111
1, 166137, Note_on_c, 0, 64, 67
1, 166140, Note_off_c, 0, 65, 65
1, 166140, Control_c, 0, 64, 72
1, 166140, Control_c, 0, 67, 112
1, 166149, Note_off_c, 0, 40, 43
1, 166150, Note_off_c, 0, 52, 64
1, 166155, Control_c, 0, 64, 79
1, 166167, Note_off_c, 0, 68, 63
1, 166170, Control_c, 0, 64, 84
1, 166170, Control_c, 0, 67, 113
1, 166184, Control_c, 0, 64, 86
1, 166184, Control_c, 0, 67, 113
1, 166193, Note_off_c, 0, 64, 64
1, 166199, Control_c, 0, 67, 114
1, 166200, Note_on_c, 0, 62, 60
1, 166214, Control_c, 0, 67, 115
1, 166221, Note_off_c, 0, 62, 60
1, 166229, Control_c, 0, 64, 84
1, 166229, Control_c, 0, 67, 116
1, 166244, Control_c, 0, 64, 79
1, 166244, Control_c, 0, 67, 116
1, 166259, Control_c, 0, 64, 70
1, 166259, Control_c, 0, 67, 117
1, 166273, Control_c, 0, 64, 51
1, 166273, Control_c, 0, 67, 117
1, 166280, Note_on_c, 0, 62, 79
1, 166284, Note_on_c, 0, 56, 57
1, 166286, Note_on_c, 0, 59, 53
1, 166288, Control_c, 0, 64, 0
1, 166288, Control_c, 0, 67, 118
1, 166303, Control_c, 0, 67, 119
1, 166307, Note_off_c, 0, 59, 60
1, 166313, Note_off_c, 0, 56, 65
1, 166314, Note_off_c, 0, 62, 59
1, 166318, Control_c, 0, 67, 121
1, 166340, Note_on_c, 0, 64, 71
1, 166347, Control_c, 0, 67, 121
1, 166381, Note_off_c, 0, 64, 63
1, 166391, Control_c, 0, 67, 120
1, 166406, Note_on_c, 0, 65, 50
1, 166406, Control_c, 0, 67, 120
1, 166421, Control_c, 0, 67, 119
1, 166431, Note_off_c, 0, 65, 53
1, 166444, Control_c, 0, 67, 119
1, 166459, Control_c, 0, 67, 118
1, 166473, Control_c, 0, 67, 118
1, 166477, Note_on_c, 0, 65, 72
1, 166518, Note_off_c, 0, 65, 66
1, 166535, Note_on_c, 0, 64, 62
1, 166572, Note_off_c, 0, 64, 61
1, 166597, Note_on_c, 0, 62, 52
1, 166606, Control_c, 0, 67, 118
1, 166621, Control_c, 0, 67, 119
1, 166623, Note_off_c, 0, 62, 55
1, 166636, Control_c, 0, 67, 119
1, 166651, Control_c, 0, 67, 120
1, 166659, Note_on_c, 0, 69, 66
1, 166667, Control_c, 0, 67, 121
1, 166667, Note_on_c, 0, 65, 60
1, 166676, Note_on_c, 0, 47, 42
1, 166678, Note_on_c, 0, 35, 33
1, 166682, Control_c, 0, 64, 43
1, 166682, Control_c, 0, 67, 121
1, 166696, Control_c, 0, 64, 67
1, 166711, Control_c, 0, 64, 74
1, 166711, Control_c, 0, 67, 122
1, 166712, Note_off_c, 0, 47, 59
1, 166715, Note_off_c, 0, 35, 48
1, 166726, Control_c, 0, 64, 81
1, 166727, Note_off_c, 0, 65, 61
1, 166739, Note_off_c, 0, 69, 64
1, 166741, Control_c, 0, 64, 83
1, 166751, Note_on_c, 0, 64, 59
1, 166756, Control_c, 0, 64, 83
1, 166770, Control_c, 0, 64, 84
1, 166784, Note_off_c, 0, 64, 53
1, 166785, Control_c, 0, 64, 84
1, 166800, Control_c, 0, 64, 85
1, 166800, Control_c, 0, 67, 122
1, 166805, Note_on_c, 0, 62, 23
1, 166815, Control_c, 0, 67, 124
1, 166830, Control_c, 0, 67, 127
1, 166843, Note_on_c, 0, 68, 84
1, 166844, Control_c, 0, 67, 127
1, 166846, Note_off_c, 0, 62, 40
1, 166859, Control_c, 0, 64, 85
1, 166874, Control_c, 0, 64, 86
1, 166876, Note_on_c, 0, 52, 54
1, 166888, Control_c, 0, 64, 87
1, 166903, Control_c, 0, 64, 88
1, 166905, Note_on_c, 0, 65, 3
1, 166913, Note_off_c, 0, 52, 66
1, 166918, Control_c, 0, 64, 90
1, 166927, Note_on_c, 0, 64, 66
1, 166933, Control_c, 0, 64, 91
1, 166938, Note_off_c, 0, 65, 46
1, 166942, Note_off_c, 0, 68, 62
1, 166948, Control_c, 0, 64, 92
1, 166964, Note_off_c, 0, 64, 64
1, 166966, Note_on_c, 0, 62, 65
1, 166977, Control_c, 0, 64, 93
1, 166992, Control_c, 0, 64, 93
1, 167005, Note_off_c, 0, 62, 56
1, 167007, Control_c, 0, 64, 94
1, 167022, Control_c, 0, 64, 95
1, 167035, Note_on_c, 0, 71, 86
1, 167037, Control_c, 0, 64, 95
1, 167043, Note_on_c, 0, 56, 52
1, 167055, Note_on_c, 0, 68, 68
1, 167058, Note_on_c, 0, 59, 40
1, 167085, Note_off_c, 0, 68, 65
1, 167088, Note_off_c, 0, 56, 58
1, 167097, Note_off_c, 0, 59, 46
1, 167135, Note_on_c, 0, 65, 58
1, 167138, Note_off_c, 0, 71, 58
1, 167150, Note_on_c, 0, 62, 66
1, 167155, Note_off_c, 0, 65, 64
1, 167179, Note_off_c, 0, 62, 62
1, 167237, Note_on_c, 0, 74, 85
1, 167249, Note_on_c, 0, 56, 65
1, 167261, Note_on_c, 0, 59, 42
1, 167264, Note_on_c, 0, 71, 61
1, 167267, Control_c, 0, 64, 95
1, 167277, Note_off_c, 0, 56, 65
1, 167288, Note_off_c, 0, 59, 51
1, 167299, Note_off_c, 0, 71, 48
1, 167314, Note_off_c, 0, 74, 64
1, 167316, Note_on_c, 0, 68, 70
1, 167341, Note_off_c, 0, 68, 69
1, 167356, Control_c, 0, 64, 94
1, 167366, Note_on_c, 0, 65, 72
1, 167370, Control_c, 0, 64, 93
1, 167385, Note_off_c, 0, 65, 68
1, 167385, Control_c, 0, 64, 92
1, 167400, Control_c, 0, 64, 90
1, 167415, Control_c, 0, 64, 87
1, 167429, Control_c, 0, 64, 82
1, 167438, Note_on_c, 0, 68, 78
1, 167444, Control_c, 0, 64, 75
1, 167445, Note_on_c, 0, 40, 63
1, 167459, Control_c, 0, 64, 65
1, 167465, Note_on_c, 0, 52, 55
1, 167466, Note_on_c, 0, 65, 56
1, 167475, Control_c, 0, 64, 0
1, 167481, Note_off_c, 0, 40, 63
1, 167486, Note_off_c, 0, 65, 63
1, 167499, Note_off_c, 0, 52, 68
1, 167509, Note_on_c, 0, 64, 57
1, 167513, Note_off_c, 0, 68, 64
1, 167534, Note_off_c, 0, 64, 64
1, 167559, Note_on_c, 0, 62, 53
1, 167583, Note_off_c, 0, 62, 56
1, 167633, Note_on_c, 0, 69, 74
1, 167646, Note_on_c, 0, 57, 49
1, 167647, Note_on_c, 0, 61, 55
1, 167652, Control_c, 0, 64, 63
1, 167657, Note_on_c, 0, 45, 44
1, 167667, Control_c, 0, 64, 73
1, 167669, Note_off_c, 0, 61, 58
1, 167671, Note_off_c, 0, 69, 68
1, 167682, Control_c, 0, 64, 85
1, 167683, Note_off_c, 0, 57, 63
1, 167690, Note_off_c, 0, 45, 58
1, 167697, Control_c, 0, 64, 94
1, 167711, Control_c, 0, 64, 102
1, 167726, Control_c, 0, 64, 105
1, 167741, Control_c, 0, 64, 106
1, 167785, Control_c, 0, 64, 105
1, 167800, Control_c, 0, 64, 105
1, 167815, Control_c, 0, 64, 103
1, 167830, Control_c, 0, 64, 101
1, 167845, Control_c, 0, 64, 98
1, 167854, Note_on_c, 0, 67, 40
1, 167860, Control_c, 0, 64, 95
1, 167874, Note_on_c, 0, 69, 67
1, 167875, Control_c, 0, 64, 91
1, 167883, Note_off_c, 0, 67, 51
1, 167890, Control_c, 0, 64, 89
1, 167904, Control_c, 0, 64, 87
1, 167919, Control_c, 0, 64, 86
1, 167928, Note_off_c, 0, 69, 63
1, 167933, Note_on_c, 0, 70, 77
1, 167934, Control_c, 0, 64, 86
1, 167963, Note_off_c, 0, 70, 72
1, 167971, Control_c, 0, 64, 84
1, 167986, Control_c, 0, 64, 78
1, 168000, Control_c, 0, 64, 65
1, 168015, Control_c, 0, 64, 0
1, 168017, Note_on_c, 0, 70, 87
1, 168068, Note_off_c, 0, 70, 65
1, 168083, Note_on_c, 0, 69, 70
1, 168124, Note_off_c, 0, 69, 59
1, 168146, Note_on_c, 0, 67, 60
1, 168177, Note_off_c, 0, 67, 52
1, 168202, Note_on_c, 0, 74, 68
1, 168207, Note_on_c, 0, 70, 66
1, 168219, Note_on_c, 0, 40, 54
1, 168221, Note_on_c, 0, 52, 50
1, 168238, Control_c, 0, 64, 64
1, 168252, Control_c, 0, 64, 71
1, 168255, Note_off_c, 0, 40, 64
1, 168260, Note_off_c, 0, 52, 65
1, 168268, Control_c, 0, 64, 74
1, 168274, Note_off_c, 0, 70, 64
1, 168276, Note_off_c, 0, 74, 67
1, 168283, Control_c, 0, 64, 77
1, 168285, Note_on_c, 0, 69, 60
1, 168298, Control_c, 0, 64, 78
1, 168313, Control_c, 0, 64, 79
1, 168322, Note_off_c, 0, 69, 64
1, 168328, Control_c, 0, 64, 79
1, 168334, Note_on_c, 0, 67, 61
1, 168357, Control_c, 0, 64, 78
1, 168361, Note_off_c, 0, 67, 59
1, 168372, Control_c, 0, 64, 74
1, 168387, Control_c, 0, 64, 67
1, 168397, Note_on_c, 0, 70, 73
1, 168402, Control_c, 0, 64, 47
1, 168405, Note_on_c, 0, 73, 68
1, 168416, Control_c, 0, 64, 13
1, 168417, Note_on_c, 0, 57, 52
1, 168425, Note_on_c, 0, 45, 49
1, 168431, Control_c, 0, 64, 57
1, 168440, Note_on_c, 0, 69, 66
1, 168446, Control_c, 0, 64, 68
1, 168451, Note_off_c, 0, 45, 58
1, 168460, Control_c, 0, 64, 74
1, 168467, Note_off_c, 0, 70, 62
1, 168475, Control_c, 0, 64, 79
1, 168479, Note_off_c, 0, 73, 61
1, 168486, Note_off_c, 0, 57, 62
1, 168490, Control_c, 0, 64, 83
1, 168502, Note_on_c, 0, 67, 75
1, 168505, Control_c, 0, 64, 86
1, 168507, Note_off_c, 0, 69, 65
1, 168520, Control_c, 0, 64, 86
1, 168525, Note_off_c, 0, 67, 68
1, 168596, Note_on_c, 0, 67, 77
1, 168600, Note_on_c, 0, 57, 63
1, 168601, Note_on_c, 0, 61, 58
1, 168608, Control_c, 0, 64, 86
1, 168622, Note_off_c, 0, 61, 63
1, 168629, Note_off_c, 0, 57, 64
1, 168659, Note_off_c, 0, 67, 57
1, 168660, Note_on_c, 0, 69, 80
1, 168718, Note_off_c, 0, 69, 64
1, 168735, Control_c, 0, 64, 84
1, 168737, Note_on_c, 0, 70, 70
1, 168749, Control_c, 0, 64, 80
1, 168754, Note_off_c, 0, 70, 67
1, 168764, Control_c, 0, 64, 70
1, 168779, Control_c, 0, 64, 0
1, 168800, Note_on_c, 0, 70, 86
1, 168837, Note_off_c, 0, 70, 67
1, 168861, Note_on_c, 0, 69, 79
1, 168909, Note_off_c, 0, 69, 63
1, 168936, Note_on_c, 0, 67, 56
1, 168956, Note_off_c, 0, 67, 60
1, 168980, Note_on_c, 0, 74, 71
1, 168993, Note_on_c, 0, 70, 66
1, 168995, Note_on_c, 0, 52, 51
1, 168997, Note_on_c, 0, 40, 49
1, 169001, Control_c, 0, 64, 56
1, 169016, Control_c, 0, 64, 67
1, 169025, Note_off_c, 0, 40, 59
1, 169031, Note_off_c, 0, 52, 67
1, 169031, Control_c, 0, 64, 71
1, 169042, Note_off_c, 0, 70, 58
1, 169046, Control_c, 0, 64, 73
1, 169053, Note_off_c, 0, 74, 64
1, 169057, Note_on_c, 0, 69, 62
1, 169061, Control_c, 0, 64, 74
1, 169076, Control_c, 0, 64, 75
1, 169091, Control_c, 0, 64, 75
1, 169094, Note_off_c, 0, 69, 66
1, 169101, Note_on_c, 0, 67, 64
1, 169121, Control_c, 0, 64, 75
1, 169132, Note_off_c, 0, 67, 63
1, 169136, Control_c, 0, 64, 72
1, 169150, Control_c, 0, 64, 66
1, 169165, Control_c, 0, 64, 52
1, 169168, Note_on_c, 0, 73, 73
1, 169172, Note_on_c, 0, 70, 79
1, 169174, Note_on_c, 0, 57, 56
1, 169180, Control_c, 0, 64, 35
1, 169189, Note_on_c, 0, 45, 55
1, 169195, Control_c, 0, 64, 57
1, 169196, Note_off_c, 0, 57, 60
1, 169209, Control_c, 0, 64, 65
1, 169219, Note_off_c, 0, 45, 65
1, 169224, Control_c, 0, 64, 70
1, 169227, Note_off_c, 0, 70, 60
1, 169228, Note_on_c, 0, 68, 75
1, 169239, Control_c, 0, 64, 73
1, 169254, Control_c, 0, 64, 75
1, 169261, Note_off_c, 0, 73, 62
1, 169269, Control_c, 0, 64, 75
1, 169302, Note_off_c, 0, 68, 63
1, 169313, Control_c, 0, 64, 73
1, 169328, Control_c, 0, 64, 68
1, 169343, Control_c, 0, 64, 64
1, 169357, Control_c, 0, 64, 65
1, 169371, Note_on_c, 0, 72, 80
1, 169372, Control_c, 0, 64, 67
1, 169378, Note_on_c, 0, 50, 55
1, 169379, Note_on_c, 0, 38, 58
1, 169387, Control_c, 0, 64, 69
1, 169402, Control_c, 0, 64, 72
1, 169407, Note_off_c, 0, 38, 60
1, 169416, Control_c, 0, 64, 73
1, 169419, Note_off_c, 0, 50, 60
1, 169439, Control_c, 0, 64, 74
1, 169454, Control_c, 0, 64, 74
1, 169463, Note_on_c, 0, 67, 64
1, 169466, Note_off_c, 0, 72, 65
1, 169469, Control_c, 0, 64, 75
1, 169497, Note_off_c, 0, 67, 61
1, 169509, Note_on_c, 0, 65, 62
1, 169513, Control_c, 0, 64, 74
1, 169527, Note_off_c, 0, 65, 66
1, 169528, Control_c, 0, 64, 69
1, 169543, Control_c, 0, 64, 56
1, 169558, Control_c, 0, 64, 0
1, 169568, Note_on_c, 0, 70, 91
1, 169574, Note_on_c, 0, 55, 56
1, 169584, Note_on_c, 0, 43, 61
1, 169595, Note_off_c, 0, 55, 65
1, 169602, Control_c, 0, 64, 59
1, 169616, Control_c, 0, 64, 67
1, 169623, Note_off_c, 0, 43, 61
1, 169631, Control_c, 0, 64, 71
1, 169646, Control_c, 0, 64, 74
1, 169661, Control_c, 0, 64, 76
1, 169664, Note_on_c, 0, 65, 63
1, 169676, Control_c, 0, 64, 77
1, 169678, Poly_aftertouch_c, 0, 67, 127
1, 169683, Note_off_c, 0, 70, 60
1, 169690, Control_c, 0, 64, 78
1, 169701, Note_on_c, 0, 64, 67
1, 169701, Note_off_c, 0, 65, 65
1, 169705, Control_c, 0, 64, 77
1, 169717, Poly_aftertouch_c, 0, 67, 0
1, 169720, Control_c, 0, 64, 74
1, 169733, Note_off_c, 0, 64, 62
1, 169735, Control_c, 0, 64, 67
1, 169750, Control_c, 0, 64, 46
1, 169765, Control_c, 0, 64, 23
1, 169776, Note_on_c, 0, 48, 61
1, 169778, Note_on_c, 0, 36, 59
1, 169779, Note_on_c, 0, 69, 82
1, 169779, Control_c, 0, 64, 60
1, 169794, Control_c, 0, 64, 66
1, 169801, Note_on_c, 0, 68, 31
1, 169809, Control_c, 0, 64, 70
1, 169811, Note_off_c, 0, 36, 64
1, 169818, Note_off_c, 0, 48, 64
1, 169818, Note_on_c, 0, 67, 50
1, 169824, Control_c, 0, 64, 72
1, 169837, Note_off_c, 0, 68, 32
1, 169839, Control_c, 0, 64, 74
1, 169854, Control_c, 0, 64, 76
1, 169869, Control_c, 0, 64, 77
1, 169872, Note_on_c, 0, 70, 15
1, 169884, Control_c, 0, 64, 78
1, 169889, Note_off_c, 0, 69, 63
1, 169892, Note_off_c, 0, 67, 58
1, 169914, Note_off_c, 0, 70, 42
1, 169914, Control_c, 0, 64, 74
1, 169928, Control_c, 0, 64, 64
1, 169929, Note_on_c, 0, 64, 35
1, 169943, Control_c, 0, 64, 0
1, 169964, Note_off_c, 0, 64, 33
1, 169965, Note_on_c, 0, 53, 68
1, 169970, Note_on_c, 0, 69, 81
1, 169974, Note_on_c, 0, 65, 52
1, 169977, Note_on_c, 0, 41, 61
1, 169988, Control_c, 0, 64, 48
1, 169989, Note_on_c, 0, 67, 65
1, 169994, Note_off_c, 0, 53, 68
1, 170003, Control_c, 0, 64, 66
1, 170015, Note_off_c, 0, 41, 66
1, 170018, Control_c, 0, 64, 70
1, 170033, Control_c, 0, 64, 72
1, 170047, Control_c, 0, 64, 73
1, 170052, Note_off_c, 0, 69, 62
1, 170063, Note_on_c, 0, 64, 78
1, 170063, Note_off_c, 0, 67, 61
1, 170075, Note_off_c, 0, 65, 61
1, 170092, Control_c, 0, 64, 70
1, 170095, Note_off_c, 0, 64, 66
1, 170107, Control_c, 0, 64, 63
1, 170121, Control_c, 0, 64, 0
1, 170151, Control_c, 0, 64, 34
1, 170153, Note_on_c, 0, 71, 76
1, 170155, Note_on_c, 0, 69, 76
1, 170163, Note_on_c, 0, 35, 59
1, 170166, Note_on_c, 0, 65, 72
1, 170166, Control_c, 0, 64, 66
1, 170178, Note_on_c, 0, 47, 35
1, 170181, Control_c, 0, 64, 70
1, 170197, Note_off_c, 0, 35, 60
1, 170203, Control_c, 0, 64, 72
1, 170218, Control_c, 0, 64, 73
1, 170222, Note_off_c, 0, 47, 45
1, 170233, Control_c, 0, 64, 73
1, 170234, Note_off_c, 0, 65, 62
1, 170239, Note_on_c, 0, 64, 71
1, 170244, Note_off_c, 0, 69, 61
1, 170248, Note_off_c, 0, 71, 59
1, 170265, Note_on_c, 0, 62, 71
1, 170265, Note_off_c, 0, 64, 67
1, 170277, Control_c, 0, 64, 73
1, 170292, Control_c, 0, 64, 69
1, 170302, Note_off_c, 0, 62, 60
1, 170307, Control_c, 0, 64, 59
1, 170321, Control_c, 0, 64, 0
1, 170352, Note_on_c, 0, 64, 82
1, 170364, Note_on_c, 0, 52, 66
1, 170369, Note_on_c, 0, 40, 67
1, 170381, Control_c, 0, 64, 49
1, 170395, Control_c, 0, 64, 66
1, 170403, Note_off_c, 0, 52, 60
1, 170407, Note_off_c, 0, 40, 62
1, 170410, Note_on_c, 0, 62, 74
1, 170410, Control_c, 0, 64, 71
1, 170411, Note_off_c, 0, 64, 64
1, 170425, Control_c, 0, 64, 73
1, 170454, Control_c, 0, 64, 72
1, 170469, Control_c, 0, 64, 68
1, 170470, Note_off_c, 0, 62, 60
1, 170484, Control_c, 0, 64, 45
1, 170485, Note_on_c, 0, 60, 60
1, 170499, Control_c, 0, 64, 0
1, 170504, Note_off_c, 0, 60, 63
1, 170553, Note_on_c, 0, 68, 72
1, 170560, Note_on_c, 0, 52, 62
1, 170565, Note_on_c, 0, 62, 64
1, 170571, Note_on_c, 0, 40, 51
1, 170581, Note_off_c, 0, 52, 64
1, 170599, Note_off_c, 0, 40, 59
1, 170610, Note_off_c, 0, 62, 61
1, 170618, Note_on_c, 0, 60, 56
1, 170633, Note_off_c, 0, 68, 62
1, 170660, Note_off_c, 0, 60, 63
1, 170695, Note_on_c, 0, 59, 31
1, 170727, Note_off_c, 0, 59, 46
1, 170745, Note_on_c, 0, 69, 68
1, 170751, Control_c, 0, 64, 29
1, 170754, Note_on_c, 0, 33, 45
1, 170766, Note_on_c, 0, 45, 39
1, 170766, Note_on_c, 0, 60, 45
1, 170766, Control_c, 0, 64, 65
1, 170770, Note_off_c, 0, 69, 70
1, 170781, Control_c, 0, 64, 73
1, 170787, Note_off_c, 0, 33, 55
1, 170792, Note_off_c, 0, 60, 36
1, 170796, Control_c, 0, 64, 79
1, 170797, Note_off_c, 0, 45, 56
1, 170811, Control_c, 0, 64, 82
1, 170826, Control_c, 0, 64, 83
1, 170951, Control_c, 0, 64, 83
1, 170955, Note_on_c, 0, 57, 63
1, 170966, Control_c, 0, 64, 82
1, 170968, Note_on_c, 0, 48, 50
1, 170975, Note_on_c, 0, 45, 37
1, 170981, Control_c, 0, 64, 81
1, 170988, Note_off_c, 0, 57, 64
1, 170993, Note_on_c, 0, 59, 64
1, 170996, Control_c, 0, 64, 81
1, 171010, Note_off_c, 0, 48, 55
1, 171011, Control_c, 0, 64, 80
1, 171025, Control_c, 0, 64, 79
1, 171037, Note_off_c, 0, 45, 43
1, 171040, Control_c, 0, 64, 78
1, 171046, Note_off_c, 0, 59, 62
1, 171048, Note_on_c, 0, 60, 73
1, 171055, Control_c, 0, 64, 77
1, 171070, Control_c, 0, 64, 74
1, 171070, Note_off_c, 0, 60, 69
1, 171085, Control_c, 0, 64, 68
1, 171100, Control_c, 0, 64, 0
1, 171125, Note_on_c, 0, 60, 83
1, 171178, Note_off_c, 0, 60, 62
1, 171185, Note_on_c, 0, 59, 63
1, 171225, Note_off_c, 0, 59, 64
1, 171244, Note_on_c, 0, 57, 59
1, 171276, Note_off_c, 0, 57, 63
1, 171314, Note_on_c, 0, 67, 73
1, 171321, Note_on_c, 0, 45, 45
1, 171333, Note_on_c, 0, 63, 51
1, 171335, Note_on_c, 0, 33, 33
1, 171336, Control_c, 0, 64, 39
1, 171351, Control_c, 0, 64, 64
1, 171365, Note_off_c, 0, 45, 62
1, 171366, Control_c, 0, 64, 68
1, 171372, Note_off_c, 0, 63, 65
1, 171375, Note_off_c, 0, 33, 47
1, 171380, Control_c, 0, 64, 71
1, 171386, Note_off_c, 0, 67, 60
1, 171394, Note_on_c, 0, 60, 61
1, 171395, Control_c, 0, 64, 73
1, 171410, Control_c, 0, 64, 74
1, 171433, Note_off_c, 0, 60, 57
1, 171471, Control_c, 0, 64, 72
1, 171474, Note_on_c, 0, 57, 9
1, 171485, Control_c, 0, 64, 68
1, 171500, Control_c, 0, 64, 63
1, 171511, Note_on_c, 0, 66, 80
1, 171515, Control_c, 0, 64, 63
1, 171519, Note_off_c, 0, 57, 37
1, 171528, Note_on_c, 0, 62, 59
1, 171529, Note_on_c, 0, 38, 51
1, 171530, Control_c, 0, 64, 65
1, 171531, Note_on_c, 0, 50, 48
1, 171545, Control_c, 0, 64, 67
1, 171559, Control_c, 0, 64, 69
1, 171562, Note_off_c, 0, 38, 64
1, 171574, Control_c, 0, 64, 71
1, 171580, Note_off_c, 0, 62, 54
1, 171589, Control_c, 0, 64, 73
1, 171599, Note_off_c, 0, 50, 62
1, 171604, Control_c, 0, 64, 74
1, 171610, Note_on_c, 0, 60, 58
1, 171612, Note_off_c, 0, 66, 63
1, 171620, Note_on_c, 0, 57, 65
1, 171629, Note_off_c, 0, 60, 60
1, 171654, Note_off_c, 0, 57, 62
1, 171713, Note_on_c, 0, 69, 85
1, 171720, Note_on_c, 0, 66, 83
1, 171732, Note_on_c, 0, 50, 63
1, 171740, Note_on_c, 0, 54, 58
1, 171776, Note_off_c, 0, 54, 61
1, 171798, Note_on_c, 0, 62, 72
1, 171803, Control_c, 0, 64, 74
1, 171811, Note_off_c, 0, 66, 65
1, 171812, Note_off_c, 0, 69, 63
1, 171827, Note_off_c, 0, 62, 64
1, 171839, Note_on_c, 0, 60, 73
1, 171863, Control_c, 0, 64, 74
1, 171866, Note_off_c, 0, 60, 65
1, 171878, Control_c, 0, 64, 73
1, 171892, Control_c, 0, 64, 71
1, 171907, Control_c, 0, 64, 70
1, 171917, Note_on_c, 0, 69, 92
1, 171922, Note_on_c, 0, 72, 82
1, 171922, Control_c, 0, 64, 71
1, 171929, Note_on_c, 0, 54, 76
1, 171937, Control_c, 0, 64, 72
1, 171952, Control_c, 0, 64, 73
1, 171966, Control_c, 0, 64, 74
1, 171979, Note_on_c, 0, 66, 69
1, 171981, Control_c, 0, 64, 75
1, 171996, Control_c, 0, 64, 75
1, 172000, Note_off_c, 0, 69, 48
1, 172007, Note_off_c, 0, 72, 63
1, 172012, Note_off_c, 0, 50, 23
1, 172021, Note_on_c, 0, 62, 84
1, 172034, Note_off_c, 0, 54, 48
1, 172039, Note_off_c, 0, 66, 66
1, 172063, Note_off_c, 0, 62, 61
1, 172070, Control_c, 0, 64, 75
1, 172084, Control_c, 0, 64, 74
1, 172099, Control_c, 0, 64, 74
1, 172111, Note_on_c, 0, 75, 88
1, 172119, Note_on_c, 0, 72, 68
1, 172124, Note_on_c, 0, 57, 71
1, 172127, Note_on_c, 0, 60, 79
1, 172128, Note_on_c, 0, 71, 72
1, 172144, Control_c, 0, 67, 125
1, 172158, Control_c, 0, 67, 121
1, 172167, Note_off_c, 0, 57, 60
1, 172173, Control_c, 0, 67, 115
1, 172183, Note_off_c, 0, 60, 58
1, 172188, Control_c, 0, 64, 72
1, 172188, Control_c, 0, 67, 108
1, 172191, Note_on_c, 0, 69, 75
1, 172203, Control_c, 0, 64, 69
1, 172203, Control_c, 0, 67, 100
1, 172208, Note_off_c, 0, 72, 62
1, 172218, Control_c, 0, 64, 59
1, 172218, Control_c, 0, 67, 88
1, 172219, Note_off_c, 0, 75, 65
1, 172225, Note_on_c, 0, 66, 86
1, 172233, Control_c, 0, 64, 0
1, 172233, Control_c, 0, 67, 75
1, 172241, Note_off_c, 0, 71, 31
1, 172248, Note_off_c, 0, 69, 66
1, 172248, Control_c, 0, 67, 61
1, 172263, Control_c, 0, 67, 52
1, 172270, Note_off_c, 0, 66, 65
1, 172278, Control_c, 0, 67, 47
1, 172293, Control_c, 0, 67, 46
1, 172313, Note_on_c, 0, 74, 95
1, 172318, Note_on_c, 0, 70, 84
1, 172322, Control_c, 0, 64, 52
1, 172322, Control_c, 0, 67, 46
1, 172328, Note_on_c, 0, 62, 80
1, 172330, Note_on_c, 0, 58, 76
1, 172337, Control_c, 0, 64, 69
1, 172337, Control_c, 0, 67, 48
1, 172340, Note_off_c, 0, 70, 68
1, 172352, Note_off_c, 0, 74, 70
1, 172352, Control_c, 0, 64, 78
1, 172352, Control_c, 0, 67, 50
1, 172365, Note_off_c, 0, 62, 59
1, 172367, Control_c, 0, 64, 87
1, 172367, Control_c, 0, 67, 52
1, 172375, Note_off_c, 0, 58, 64
1, 172382, Control_c, 0, 64, 90
1, 172382, Control_c, 0, 67, 53
1, 172397, Control_c, 0, 64, 91
1, 172397, Control_c, 0, 67, 54
1, 172412, Control_c, 0, 67, 55
1, 172433, Control_c, 0, 67, 57
1, 172447, Control_c, 0, 67, 63
1, 172462, Control_c, 0, 67, 71
1, 172477, Control_c, 0, 64, 91
1, 172477, Control_c, 0, 67, 79
1, 172492, Control_c, 0, 64, 90
1, 172492, Control_c, 0, 67, 83
1, 172507, Control_c, 0, 64, 88
1, 172507, Control_c, 0, 67, 84
1, 172522, Control_c, 0, 64, 86
1, 172522, Control_c, 0, 67, 84
1, 172525, Note_on_c, 0, 67, 69
1, 172537, Control_c, 0, 64, 84
1, 172537, Control_c, 0, 67, 83
1, 172552, Control_c, 0, 64, 82
1, 172567, Control_c, 0, 64, 80
1, 172568, Note_off_c, 0, 67, 61
1, 172573, Note_on_c, 0, 69, 77
1, 172582, Control_c, 0, 64, 79
1, 172582, Control_c, 0, 67, 83
1, 172596, Control_c, 0, 64, 77
1, 172596, Control_c, 0, 67, 82
1, 172611, Control_c, 0, 64, 76
1, 172626, Control_c, 0, 64, 76
1, 172626, Control_c, 0, 67, 82
1, 172629, Note_off_c, 0, 69, 64
1, 172634, Note_on_c, 0, 70, 75
1, 172653, Note_off_c, 0, 70, 71
1, 172655, Control_c, 0, 67, 82
1, 172670, Control_c, 0, 67, 82
1, 172685, Control_c, 0, 64, 73
1, 172700, Control_c, 0, 64, 65
1, 172700, Control_c, 0, 67, 81
1, 172709, Note_on_c, 0, 70, 99
1, 172714, Control_c, 0, 64, 0
1, 172729, Control_c, 0, 67, 81
1, 172744, Control_c, 0, 67, 80
1, 172772, Note_off_c, 0, 70, 66
1, 172774, Control_c, 0, 67, 80
1, 172775, Note_on_c, 0, 69, 78
1, 172788, Control_c, 0, 67, 79
1, 172828, Note_off_c, 0, 69, 67
1, 172837, Note_on_c, 0, 67, 70
1, 172862, Control_c, 0, 67, 80
1, 172868, Note_off_c, 0, 67, 61
1, 172877, Control_c, 0, 67, 81
1, 172892, Control_c, 0, 67, 82
1, 172897, Note_on_c, 0, 77, 90
1, 172906, Note_on_c, 0, 73, 80
1, 172906, Control_c, 0, 67, 83
1, 172911, Note_on_c, 0, 55, 65
1, 172921, Control_c, 0, 64, 64
1, 172921, Control_c, 0, 67, 83
1, 172923, Note_on_c, 0, 43, 52
1, 172936, Control_c, 0, 64, 74
1, 172951, Control_c, 0, 64, 83
1, 172951, Control_c, 0, 67, 82
1, 172955, Note_off_c, 0, 43, 52
1, 172959, Note_off_c, 0, 55, 61
1, 172963, Note_off_c, 0, 73, 61
1, 172966, Control_c, 0, 64, 87
1, 172975, Note_on_c, 0, 70, 71
1, 172981, Control_c, 0, 64, 87
1, 172981, Control_c, 0, 67, 82
1, 173001, Note_off_c, 0, 77, 62
1, 173019, Note_on_c, 0, 67, 77
1, 173029, Note_off_c, 0, 70, 63
1, 173041, Control_c, 0, 64, 86
1, 173041, Control_c, 0, 67, 81
1, 173056, Control_c, 0, 64, 80
1, 173056, Control_c, 0, 67, 81
1, 173060, Note_off_c, 0, 67, 57
1, 173071, Control_c, 0, 64, 71
1, 173071, Control_c, 0, 67, 80
1, 173086, Control_c, 0, 64, 40
1, 173086, Control_c, 0, 67, 80
1, 173098, Note_on_c, 0, 76, 88
1, 173101, Control_c, 0, 64, 0
1, 173101, Control_c, 0, 67, 79
1, 173103, Note_on_c, 0, 72, 85
1, 173110, Note_on_c, 0, 60, 67
1, 173116, Control_c, 0, 67, 79
1, 173117, Note_on_c, 0, 48, 61
1, 173130, Control_c, 0, 67, 78
1, 173140, Note_off_c, 0, 60, 64
1, 173145, Control_c, 0, 64, 62
1, 173154, Note_off_c, 0, 48, 65
1, 173160, Control_c, 0, 64, 67
1, 173160, Control_c, 0, 67, 77
1, 173168, Note_off_c, 0, 72, 62
1, 173173, Note_on_c, 0, 70, 76
1, 173183, Control_c, 0, 64, 70
1, 173199, Note_off_c, 0, 76, 66
1, 173199, Control_c, 0, 64, 71
1, 173213, Control_c, 0, 67, 77
1, 173230, Note_on_c, 0, 67, 72
1, 173235, Note_off_c, 0, 70, 64
1, 173243, Control_c, 0, 64, 70
1, 173257, Control_c, 0, 64, 68
1, 173258, Note_off_c, 0, 67, 64
1, 173272, Control_c, 0, 64, 62
1, 173272, Control_c, 0, 67, 76
1, 173287, Control_c, 0, 64, 0
1, 173306, Note_on_c, 0, 72, 78
1, 173317, Control_c, 0, 67, 76
1, 173318, Note_on_c, 0, 70, 76
1, 173324, Note_on_c, 0, 55, 60
1, 173325, Note_on_c, 0, 43, 60
1, 173331, Control_c, 0, 67, 76
1, 173346, Control_c, 0, 64, 59
1, 173354, Note_off_c, 0, 55, 66
1, 173361, Control_c, 0, 64, 66
1, 173368, Note_off_c, 0, 43, 63
1, 173373, Note_off_c, 0, 72, 62
1, 173376, Control_c, 0, 64, 68
1, 173386, Note_on_c, 0, 67, 60
1, 173387, Note_off_c, 0, 70, 64
1, 173390, Control_c, 0, 64, 69
1, 173420, Note_off_c, 0, 67, 64
1, 173420, Control_c, 0, 67, 76
1, 173431, Note_on_c, 0, 64, 70
1, 173435, Control_c, 0, 64, 68
1, 173450, Control_c, 0, 64, 67
1, 173463, Note_off_c, 0, 64, 61
1, 173464, Control_c, 0, 64, 62
1, 173464, Control_c, 0, 67, 75
1, 173479, Control_c, 0, 64, 0
1, 173494, Control_c, 0, 67, 75
1, 173509, Control_c, 0, 67, 74
1, 173511, Note_on_c, 0, 70, 67
1, 173520, Note_on_c, 0, 67, 66
1, 173524, Control_c, 0, 67, 73
1, 173530, Note_on_c, 0, 52, 62
1, 173538, Note_on_c, 0, 40, 54
1, 173538, Control_c, 0, 64, 13
1, 173538, Control_c, 0, 67, 72
1, 173553, Control_c, 0, 64, 63
1, 173553, Control_c, 0, 67, 71
1, 173559, Note_off_c, 0, 52, 67
1, 173568, Control_c, 0, 64, 69
1, 173568, Control_c, 0, 67, 70
1, 173571, Note_off_c, 0, 40, 64
1, 173583, Control_c, 0, 64, 72
1, 173590, Note_on_c, 0, 64, 69
1, 173592, Note_off_c, 0, 70, 61
1, 173598, Note_off_c, 0, 67, 59
1, 173598, Control_c, 0, 64, 73
1, 173598, Control_c, 0, 67, 71
1, 173613, Control_c, 0, 67, 71
1, 173632, Note_off_c, 0, 64, 59
1, 173643, Control_c, 0, 64, 70
1, 173643, Control_c, 0, 67, 72
1, 173657, Control_c, 0, 64, 63
1, 173657, Control_c, 0, 67, 72
1, 173664, Note_on_c, 0, 60, 53
1, 173672, Control_c, 0, 64, 0
1, 173685, Note_off_c, 0, 60, 57
1, 173687, Control_c, 0, 67, 73
1, 173702, Control_c, 0, 67, 73
1, 173717, Control_c, 0, 64, 43
1, 173717, Control_c, 0, 67, 74
1, 173731, Control_c, 0, 64, 57
1, 173731, Control_c, 0, 67, 75
1, 173739, Note_on_c, 0, 48, 55
1, 173746, Control_c, 0, 64, 60
1, 173746, Control_c, 0, 67, 75
1, 173748, Note_on_c, 0, 67, 52
1, 173750, Note_on_c, 0, 36, 45
1, 173759, Note_on_c, 0, 64, 35
1, 173761, Control_c, 0, 64, 59
1, 173761, Control_c, 0, 67, 76
1, 173765, Note_off_c, 0, 48, 59
1, 173776, Control_c, 0, 64, 57
1, 173776, Control_c, 0, 67, 77
1, 173779, Note_off_c, 0, 36, 60
1, 173783, Note_off_c, 0, 64, 52
1, 173790, Control_c, 0, 64, 56
1, 173798, Note_on_c, 0, 60, 50
1, 173799, Note_off_c, 0, 67, 61
1, 173805, Control_c, 0, 64, 55
1, 173820, Control_c, 0, 64, 52
1, 173820, Control_c, 0, 67, 78
1, 173835, Control_c, 0, 64, 28
1, 173835, Control_c, 0, 67, 79
1, 173845, Note_off_c, 0, 60, 57
1, 173850, Control_c, 0, 64, 0
1, 173850, Control_c, 0, 67, 80
1, 173866, Control_c, 0, 67, 81
1, 173878, Note_on_c, 0, 58, 48
1, 173881, Control_c, 0, 67, 82
1, 173895, Control_c, 0, 67, 85
1, 173905, Note_off_c, 0, 58, 58
1, 173910, Control_c, 0, 67, 87
1, 173925, Control_c, 0, 67, 89
1, 173947, Control_c, 0, 67, 90
1, 173950, Note_on_c, 0, 65, 66
1, 173956, Note_on_c, 0, 29, 44
1, 173959, Note_on_c, 0, 41, 47
1, 173962, Control_c, 0, 64, 63
1, 173962, Control_c, 0, 67, 91
1, 173977, Control_c, 0, 64, 70
1, 173977, Control_c, 0, 67, 92
1, 173983, Note_off_c, 0, 65, 65
1, 173991, Control_c, 0, 64, 75
1, 173991, Control_c, 0, 67, 93
1, 173993, Note_off_c, 0, 41, 53
1, 173994, Note_off_c, 0, 29, 44
1, 174006, Control_c, 0, 64, 77
1, 174051, Control_c, 0, 67, 93
1, 174066, Control_c, 0, 67, 95
1, 174080, Control_c, 0, 67, 98
1, 174095, Control_c, 0, 67, 100
1, 174110, Control_c, 0, 67, 101
1, 174140, Control_c, 0, 64, 76
1, 174140, Control_c, 0, 67, 101
1, 174146, Note_on_c, 0, 58, 66
1, 174154, Control_c, 0, 64, 76
1, 174169, Control_c, 0, 64, 75
1, 174188, Note_off_c, 0, 58, 53
1, 174199, Control_c, 0, 64, 75
1, 174203, Note_on_c, 0, 60, 67
1, 174228, Control_c, 0, 67, 100
1, 174239, Note_off_c, 0, 60, 58
1, 174243, Control_c, 0, 67, 100
1, 174258, Control_c, 0, 67, 99
1, 174273, Control_c, 0, 67, 99
1, 174279, Note_on_c, 0, 62, 53
1, 174287, Control_c, 0, 64, 74
1, 174287, Control_c, 0, 67, 98
1, 174302, Control_c, 0, 64, 70
1, 174302, Control_c, 0, 67, 97
1, 174303, Note_off_c, 0, 62, 54
1, 174317, Control_c, 0, 64, 53
1, 174317, Control_c, 0, 67, 96
1, 174332, Control_c, 0, 64, 0
1, 174332, Control_c, 0, 67, 96
1, 174339, Note_on_c, 0, 62, 76
1, 174406, Control_c, 0, 67, 96
1, 174407, Note_off_c, 0, 62, 61
1, 174416, Note_on_c, 0, 60, 72
1, 174421, Control_c, 0, 67, 97
1, 174452, Note_off_c, 0, 60, 56
1, 174486, Note_on_c, 0, 58, 59
1, 174517, Note_off_c, 0, 58, 60
1, 174535, Note_on_c, 0, 65, 77
1, 174537, Note_on_c, 0, 29, 36
1, 174540, Control_c, 0, 67, 97
1, 174549, Note_on_c, 0, 41, 40
1, 174579, Note_off_c, 0, 29, 45
1, 174581, Note_off_c, 0, 41, 60
1, 174588, Note_on_c, 0, 62, 62
1, 174650, Note_off_c, 0, 62, 59
1, 174659, Control_c, 0, 67, 97
1, 174670, Note_off_c, 0, 65, 61
1, 174696, Control_c, 0, 67, 96
1, 174740, Note_on_c, 0, 64, 76
1, 174740, Control_c, 0, 67, 97
1, 174758, Note_on_c, 0, 61, 47
1, 174762, Note_on_c, 0, 53, 49
1, 174766, Note_on_c, 0, 41, 37
1, 174770, Control_c, 0, 64, 65
1, 174770, Control_c, 0, 67, 97
1, 174781, Note_off_c, 0, 61, 56
1, 174781, Note_off_c, 0, 64, 64
1, 174784, Control_c, 0, 64, 72
1, 174784, Control_c, 0, 67, 98
1, 174796, Note_off_c, 0, 53, 66
1, 174799, Control_c, 0, 64, 79
1, 174799, Control_c, 0, 67, 99
1, 174814, Control_c, 0, 64, 84
1, 174829, Note_off_c, 0, 41, 42
1, 174829, Control_c, 0, 64, 87
1, 174844, Control_c, 0, 64, 88
1, 174844, Control_c, 0, 67, 99
1, 174859, Control_c, 0, 64, 89
1, 174859, Control_c, 0, 67, 100
1, 174874, Control_c, 0, 67, 101
1, 174904, Control_c, 0, 64, 88
1, 174918, Control_c, 0, 64, 88
1, 174933, Control_c, 0, 64, 86
1, 174948, Control_c, 0, 64, 85
1, 174956, Note_on_c, 0, 57, 58
1, 174963, Control_c, 0, 64, 83
1, 174963, Control_c, 0, 67, 100
1, 174977, Control_c, 0, 64, 82
1, 174977, Control_c, 0, 67, 99
1, 174992, Control_c, 0, 64, 80
1, 175002, Note_off_c, 0, 57, 58
1, 175005, Note_on_c, 0, 58, 66
1, 175007, Control_c, 0, 64, 78
1, 175007, Control_c, 0, 67, 99
1, 175009, Poly_aftertouch_c, 0, 41, 127
1, 175022, Control_c, 0, 64, 77
1, 175036, Control_c, 0, 64, 76
1, 175047, Note_off_c, 0, 58, 59
1, 175051, Control_c, 0, 64, 76
1, 175051, Control_c, 0, 67, 98
1, 175064, Poly_aftertouch_c, 0, 41, 0
1, 175066, Control_c, 0, 64, 75
1, 175066, Control_c, 0, 67, 98
1, 175071, Note_on_c, 0, 60, 61
1, 175091, Note_off_c, 0, 60, 59
1, 175096, Control_c, 0, 64, 75
1, 175096, Control_c, 0, 67, 97
1, 175110, Control_c, 0, 64, 72
1, 175110, Control_c, 0, 67, 97
1, 175125, Control_c, 0, 64, 62
1, 175125, Control_c, 0, 67, 96
1, 175140, Control_c, 0, 64, 0
1, 175140, Control_c, 0, 67, 95
1, 175142, Note_on_c, 0, 60, 76
1, 175154, Control_c, 0, 67, 95
1, 175184, Control_c, 0, 67, 95
1, 175197, Note_off_c, 0, 60, 60
1, 175215, Note_on_c, 0, 58, 66
1, 175229, Control_c, 0, 67, 96
1, 175254, Note_off_c, 0, 58, 60
1, 175275, Note_on_c, 0, 57, 60
1, 175288, Control_c, 0, 67, 95
1, 175314, Note_off_c, 0, 57, 59
1, 175325, Note_on_c, 0, 63, 69
1, 175342, Note_on_c, 0, 29, 46
1, 175358, Note_on_c, 0, 41, 38
1, 175376, Note_off_c, 0, 29, 56
1, 175394, Note_off_c, 0, 41, 47
1, 175410, Note_on_c, 0, 60, 57
1, 175458, Note_off_c, 0, 63, 57
1, 175459, Control_c, 0, 67, 95
1, 175463, Note_off_c, 0, 60, 58
1, 175485, Note_on_c, 0, 57, 38
1, 175518, Note_off_c, 0, 57, 47
1, 175546, Note_on_c, 0, 62, 69
1, 175548, Control_c, 0, 67, 95
1, 175561, Note_on_c, 0, 41, 35
1, 175561, Note_on_c, 0, 53, 50
1, 175572, Note_on_c, 0, 59, 37
1, 175578, Control_c, 0, 64, 59
1, 175578, Control_c, 0, 67, 96
1, 175592, Note_off_c, 0, 62, 63
1, 175593, Control_c, 0, 64, 70
1, 175593, Control_c, 0, 67, 96
1, 175601, Note_off_c, 0, 59, 48
1, 175604, Note_off_c, 0, 41, 61
1, 175604, Note_off_c, 0, 53, 64
1, 175607, Control_c, 0, 64, 78
1, 175607, Control_c, 0, 67, 97
1, 175622, Control_c, 0, 64, 83
1, 175622, Control_c, 0, 67, 97
1, 175637, Control_c, 0, 64, 86
1, 175637, Control_c, 0, 67, 98
1, 175652, Control_c, 0, 64, 87
1, 175652, Control_c, 0, 67, 98
1, 175667, Control_c, 0, 67, 99
1, 175682, Control_c, 0, 67, 100
1, 175726, Control_c, 0, 64, 87
1, 175741, Control_c, 0, 64, 86
1, 175754, Note_on_c, 0, 56, 67
1, 175756, Control_c, 0, 64, 86
1, 175756, Control_c, 0, 67, 99
1, 175771, Control_c, 0, 64, 85
1, 175771, Control_c, 0, 67, 99
1, 175785, Control_c, 0, 64, 84
1, 175785, Control_c, 0, 67, 97
1, 175795, Note_off_c, 0, 56, 56
1, 175800, Control_c, 0, 64, 82
1, 175800, Control_c, 0, 67, 96
1, 175811, Note_on_c, 0, 57, 63
1, 175815, Control_c, 0, 64, 81
1, 175815, Control_c, 0, 67, 95
1, 175830, Control_c, 0, 64, 80
1, 175830, Control_c, 0, 67, 94
1, 175845, Control_c, 0, 64, 80
1, 175845, Control_c, 0, 67, 93
1, 175859, Control_c, 0, 64, 79
1, 175863, Note_on_c, 0, 59, 45
1, 175871, Note_off_c, 0, 57, 61
1, 175889, Control_c, 0, 64, 79
1, 175889, Control_c, 0, 67, 93
1, 175902, Note_off_c, 0, 59, 64
1, 175904, Control_c, 0, 64, 76
1, 175904, Control_c, 0, 67, 92
1, 175919, Control_c, 0, 64, 67
1, 175919, Control_c, 0, 67, 91
1, 175933, Control_c, 0, 64, 0
1, 175933, Control_c, 0, 67, 90
1, 175944, Note_on_c, 0, 59, 76
1, 175948, Control_c, 0, 67, 88
1, 175963, Control_c, 0, 67, 86
1, 175977, Control_c, 0, 67, 85
1, 175992, Control_c, 0, 67, 86
1, 176007, Control_c, 0, 67, 86
1, 176022, Control_c, 0, 67, 87
1, 176024, Note_off_c, 0, 59, 63
1, 176030, Note_on_c, 0, 57, 65
1, 176037, Control_c, 0, 67, 87
1, 176051, Control_c, 0, 67, 88
1, 176066, Note_off_c, 0, 57, 62
1, 176087, Note_on_c, 0, 56, 44
1, 176096, Control_c, 0, 67, 88
1, 176121, Note_off_c, 0, 56, 50
1, 176140, Note_on_c, 0, 62, 69
1, 176164, Note_on_c, 0, 52, 54
1, 176182, Note_on_c, 0, 40, 41
1, 176195, Note_off_c, 0, 52, 57
1, 176212, Note_off_c, 0, 40, 57
1, 176215, Note_on_c, 0, 59, 65
1, 176235, Note_off_c, 0, 62, 60
1, 176247, Note_on_c, 0, 56, 37
1, 176257, Note_off_c, 0, 59, 59
1, 176285, Note_off_c, 0, 56, 53
1, 176297, Control_c, 0, 67, 88
1, 176350, Note_on_c, 0, 62, 70
1, 176352, Note_on_c, 0, 55, 56
1, 176356, Control_c, 0, 67, 88
1, 176363, Note_on_c, 0, 58, 57
1, 176371, Note_on_c, 0, 45, 44
1, 176373, Note_on_c, 0, 33, 42
1, 176379, Note_off_c, 0, 55, 66
1, 176383, Note_off_c, 0, 62, 63
1, 176385, Note_off_c, 0, 58, 64
1, 176386, Control_c, 0, 64, 63
1, 176386, Control_c, 0, 67, 89
1, 176400, Note_off_c, 0, 45, 52
1, 176401, Control_c, 0, 64, 72
1, 176401, Control_c, 0, 67, 90
1, 176412, Note_off_c, 0, 33, 45
1, 176415, Control_c, 0, 64, 77
1, 176415, Control_c, 0, 67, 90
1, 176430, Control_c, 0, 64, 80
1, 176430, Control_c, 0, 67, 91
1, 176445, Control_c, 0, 64, 81
1, 176460, Control_c, 0, 64, 81
1, 176475, Control_c, 0, 67, 90
1, 176504, Control_c, 0, 64, 81
1, 176504, Control_c, 0, 67, 91
1, 176519, Control_c, 0, 64, 80
1, 176534, Control_c, 0, 64, 79
1, 176549, Control_c, 0, 64, 77
1, 176564, Control_c, 0, 64, 74
1, 176565, Note_on_c, 0, 55, 65
1, 176579, Control_c, 0, 64, 68
1, 176594, Control_c, 0, 64, 62
1, 176605, Note_off_c, 0, 55, 63
1, 176608, Control_c, 0, 64, 33
1, 176608, Control_c, 0, 67, 90
1, 176618, Note_on_c, 0, 57, 64
1, 176623, Control_c, 0, 64, 0
1, 176623, Control_c, 0, 67, 90
1, 176653, Control_c, 0, 67, 89
1, 176668, Control_c, 0, 67, 89
1, 176673, Note_off_c, 0, 57, 59
1, 176679, Note_on_c, 0, 58, 64
1, 176697, Control_c, 0, 67, 88
1, 176700, Note_off_c, 0, 58, 66
1, 176727, Control_c, 0, 67, 88
1, 176742, Control_c, 0, 67, 87
1, 176756, Control_c, 0, 67, 87
1, 176758, Note_on_c, 0, 58, 68
1, 176771, Control_c, 0, 67, 86
1, 176800, Note_off_c, 0, 58, 65
1, 176814, Note_on_c, 0, 57, 69
1, 176815, Control_c, 0, 67, 87
1, 176853, Note_off_c, 0, 57, 60
1, 176889, Note_on_c, 0, 55, 34
1, 176933, Note_off_c, 0, 55, 31
1, 176946, Note_on_c, 0, 61, 67
1, 176956, Control_c, 0, 67, 87
1, 176963, Note_on_c, 0, 33, 52
1, 176967, Note_on_c, 0, 45, 48
1, 176971, Control_c, 0, 67, 88
1, 176993, Note_off_c, 0, 45, 60
1, 176995, Note_off_c, 0, 33, 63
1, 177017, Note_off_c, 0, 61, 60
1, 177018, Note_on_c, 0, 57, 61
1, 177063, Note_off_c, 0, 57, 57
1, 177077, Note_on_c, 0, 55, 52
1, 177091, Control_c, 0, 67, 87
1, 177122, Note_off_c, 0, 55, 59
1, 177163, Note_on_c, 0, 62, 63
1, 177165, Note_on_c, 0, 57, 58
1, 177168, Note_on_c, 0, 53, 56
1, 177172, Note_on_c, 0, 38, 44
1, 177178, Note_on_c, 0, 50, 44
1, 177185, Note_off_c, 0, 57, 60
1, 177190, Note_off_c, 0, 53, 60
1, 177193, Note_off_c, 0, 62, 64
1, 177194, Control_c, 0, 64, 64
1, 177194, Control_c, 0, 67, 88
1, 177205, Note_off_c, 0, 50, 51
1, 177207, Note_off_c, 0, 38, 44
1, 177209, Control_c, 0, 64, 71
1, 177209, Control_c, 0, 67, 88
1, 177224, Control_c, 0, 64, 77
1, 177238, Control_c, 0, 64, 80
1, 177238, Control_c, 0, 67, 89
1, 177253, Control_c, 0, 64, 82
1, 177253, Control_c, 0, 67, 89
1, 177268, Control_c, 0, 67, 90
1, 177283, Control_c, 0, 67, 90
1, 177312, Control_c, 0, 67, 91
1, 177327, Control_c, 0, 64, 81
1, 177342, Control_c, 0, 64, 79
1, 177356, Note_on_c, 0, 53, 52
1, 177357, Control_c, 0, 64, 77
1, 177366, Note_on_c, 0, 62, 64
1, 177372, Control_c, 0, 64, 74
1, 177372, Control_c, 0, 67, 90
1, 177387, Control_c, 0, 64, 70
1, 177393, Note_off_c, 0, 53, 60
1, 177398, Note_off_c, 0, 62, 54
1, 177402, Control_c, 0, 64, 65
1, 177402, Control_c, 0, 67, 90
1, 177417, Note_on_c, 0, 55, 59
1, 177417, Note_on_c, 0, 64, 68
1, 177417, Control_c, 0, 64, 51
1, 177417, Control_c, 0, 67, 89
1, 177431, Control_c, 0, 64, 0
1, 177446, Control_c, 0, 67, 88
1, 177448, Note_off_c, 0, 55, 65
1, 177462, Note_off_c, 0, 64, 61
1, 177467, Note_on_c, 0, 57, 49
1, 177476, Control_c, 0, 67, 88
1, 177476, Note_on_c, 0, 65, 68
1, 177491, Note_off_c, 0, 57, 56
1, 177504, Note_off_c, 0, 65, 68
1, 177505, Control_c, 0, 67, 87
1, 177520, Control_c, 0, 67, 86
1, 177535, Control_c, 0, 67, 84
1, 177538, Note_on_c, 0, 57, 73
1, 177549, Control_c, 0, 67, 81
1, 177554, Note_on_c, 0, 65, 82
1, 177564, Control_c, 0, 67, 71
1, 177565, Note_off_c, 0, 57, 64
1, 177579, Control_c, 0, 67, 56
1, 177594, Control_c, 0, 67, 38
1, 177601, Note_off_c, 0, 65, 63
1, 177608, Note_on_c, 0, 55, 68
1, 177609, Control_c, 0, 67, 17
1, 177620, Note_on_c, 0, 64, 62
1, 177623, Control_c, 0, 67, 0
1, 177654, Note_off_c, 0, 64, 65
1, 177655, Note_off_c, 0, 55, 65
1, 177690, Note_on_c, 0, 53, 64
1, 177694, Note_on_c, 0, 62, 41
1, 177726, Note_off_c, 0, 62, 46
1, 177730, Note_off_c, 0, 53, 66
1, 177750, Note_on_c, 0, 69, 70
1, 177756, Note_on_c, 0, 57, 62
1, 177769, Note_on_c, 0, 65, 46
1, 177803, Note_off_c, 0, 57, 54
1, 177816, Note_off_c, 0, 65, 62
1, 177824, Control_c, 0, 64, 53
1, 177827, Note_off_c, 0, 69, 65
1, 177838, Control_c, 0, 64, 64
1, 177840, Note_on_c, 0, 64, 44
1, 177846, Note_on_c, 0, 53, 41
1, 177854, Control_c, 0, 64, 65
1, 177867, Note_off_c, 0, 64, 59
1, 177869, Control_c, 0, 64, 65
1, 177875, Note_off_c, 0, 53, 60
1, 177885, Note_on_c, 0, 62, 49
1, 177895, Note_on_c, 0, 50, 52
1, 177914, Control_c, 0, 64, 66
1, 177915, Note_off_c, 0, 62, 52
1, 177928, Control_c, 0, 64, 69
1, 177932, Note_on_c, 0, 68, 89
1, 177932, Note_off_c, 0, 50, 64
1, 177943, Control_c, 0, 64, 73
1, 177947, Note_on_c, 0, 59, 70
1, 177958, Control_c, 0, 64, 77
1, 177973, Control_c, 0, 64, 81
1, 177981, Note_on_c, 0, 65, 17
1, 177988, Control_c, 0, 64, 83
1, 178002, Control_c, 0, 64, 85
1, 178007, Note_on_c, 0, 53, 62
1, 178014, Note_off_c, 0, 59, 56
1, 178017, Control_c, 0, 64, 86
1, 178022, Note_on_c, 0, 64, 67
1, 178032, Control_c, 0, 64, 87
1, 178033, Note_off_c, 0, 65, 46
1, 178037, Note_off_c, 0, 68, 62
1, 178047, Control_c, 0, 64, 88
1, 178057, Note_off_c, 0, 53, 63
1, 178061, Note_off_c, 0, 64, 63
1, 178061, Control_c, 0, 64, 90
1, 178068, Note_on_c, 0, 62, 68
1, 178076, Control_c, 0, 64, 92
1, 178077, Note_on_c, 0, 50, 66
1, 178091, Control_c, 0, 64, 94
1, 178105, Note_off_c, 0, 62, 57
1, 178106, Control_c, 0, 64, 95
1, 178123, Note_off_c, 0, 50, 62
1, 178135, Note_on_c, 0, 59, 71
1, 178138, Note_on_c, 0, 71, 89
1, 178151, Note_on_c, 0, 68, 72
1, 178195, Control_c, 0, 64, 96
1, 178195, Note_off_c, 0, 68, 60
1, 178205, Note_on_c, 0, 53, 67
1, 178209, Note_off_c, 0, 59, 60
1, 178227, Note_on_c, 0, 65, 65
1, 178248, Note_off_c, 0, 71, 57
1, 178256, Note_off_c, 0, 65, 68
1, 178258, Note_on_c, 0, 62, 66
1, 178262, Note_off_c, 0, 53, 64
1, 178289, Note_on_c, 0, 50, 66
1, 178293, Note_off_c, 0, 62, 59
1, 178338, Note_off_c, 0, 50, 62
1, 178342, Note_on_c, 0, 74, 82
1, 178350, Note_on_c, 0, 71, 78
1, 178359, Note_on_c, 0, 59, 65
1, 178373, Note_on_c, 0, 72, 49
1, 178397, Note_off_c, 0, 72, 38
1, 178409, Note_off_c, 0, 71, 60
1, 178411, Note_on_c, 0, 68, 69
1, 178419, Note_off_c, 0, 59, 57
1, 178430, Note_off_c, 0, 74, 64
1, 178436, Note_on_c, 0, 53, 55
1, 178469, Control_c, 0, 64, 95
1, 178476, Note_off_c, 0, 68, 62
1, 178478, Note_off_c, 0, 53, 59
1, 178481, Note_on_c, 0, 65, 67
1, 178498, Note_off_c, 0, 65, 69
1, 178499, Control_c, 0, 64, 95
1, 178506, Note_on_c, 0, 50, 62
1, 178514, Control_c, 0, 64, 94
1, 178528, Control_c, 0, 64, 93
1, 178543, Control_c, 0, 64, 91
1, 178547, Note_on_c, 0, 68, 80
1, 178558, Control_c, 0, 64, 88
1, 178563, Note_on_c, 0, 65, 73
1, 178573, Control_c, 0, 64, 84
1, 178587, Control_c, 0, 64, 78
1, 178602, Note_off_c, 0, 65, 64
1, 178602, Control_c, 0, 64, 67
1, 178612, Note_on_c, 0, 64, 68
1, 178617, Control_c, 0, 64, 0
1, 178628, Note_off_c, 0, 68, 63
1, 178631, Note_off_c, 0, 50, 61
1, 178651, Note_off_c, 0, 64, 64
1, 178663, Note_on_c, 0, 62, 69
1, 178693, Note_off_c, 0, 62, 64
1, 178749, Note_on_c, 0, 69, 76
1, 178756, Note_on_c, 0, 61, 70
1, 178763, Note_on_c, 0, 49, 51
1, 178767, Note_on_c, 0, 57, 57
1, 178775, Note_on_c, 0, 52, 47
1, 178781, Control_c, 0, 64, 66
1, 178781, Control_c, 0, 67, 9
1, 178782, Note_off_c, 0, 69, 66
1, 178784, Note_off_c, 0, 61, 65
1, 178788, Note_off_c, 0, 49, 58
1, 178795, Control_c, 0, 64, 74
1, 178795, Control_c, 0, 67, 19
1, 178797, Note_off_c, 0, 57, 64
1, 178805, Note_off_c, 0, 52, 34
1, 178810, Control_c, 0, 64, 82
1, 178810, Control_c, 0, 67, 32
1, 178825, Control_c, 0, 64, 88
1, 178825, Control_c, 0, 67, 49
1, 178840, Control_c, 0, 64, 91
1, 178840, Control_c, 0, 67, 61
1, 178855, Control_c, 0, 64, 92
1, 178855, Control_c, 0, 67, 71
1, 178869, Control_c, 0, 67, 77
1, 178884, Control_c, 0, 67, 81
1, 178899, Control_c, 0, 67, 84
1, 178914, Control_c, 0, 67, 87
1, 178929, Control_c, 0, 64, 92
1, 178929, Control_c, 0, 67, 90
1, 178944, Control_c, 0, 64, 90
1, 178944, Control_c, 0, 67, 91
1, 178947, Note_on_c, 0, 58, 60
1, 178958, Control_c, 0, 64, 87
1, 178962, Note_on_c, 0, 67, 68
1, 178973, Control_c, 0, 64, 82
1, 178988, Control_c, 0, 64, 76
1, 178988, Control_c, 0, 67, 91
1, 178993, Note_off_c, 0, 58, 58
1, 178999, Note_off_c, 0, 67, 61
1, 179002, Control_c, 0, 64, 68
1, 179011, Note_on_c, 0, 69, 73
1, 179013, Note_on_c, 0, 60, 57
1, 179017, Control_c, 0, 64, 53
1, 179032, Control_c, 0, 64, 0
1, 179044, Note_off_c, 0, 60, 65
1, 179054, Note_off_c, 0, 69, 65
1, 179063, Note_on_c, 0, 62, 60
1, 179072, Note_on_c, 0, 70, 59
1, 179083, Note_off_c, 0, 62, 61
1, 179090, Note_off_c, 0, 70, 62
1, 179107, Control_c, 0, 67, 91
1, 179133, Note_on_c, 0, 62, 87
1, 179138, Note_on_c, 0, 70, 91
1, 179151, Control_c, 0, 67, 90
1, 179164, Note_off_c, 0, 62, 64
1, 179166, Control_c, 0, 67, 89
1, 179188, Control_c, 0, 67, 88
1, 179214, Note_on_c, 0, 60, 78
1, 179218, Note_on_c, 0, 69, 76
1, 179219, Note_off_c, 0, 70, 61
1, 179263, Note_off_c, 0, 69, 63
1, 179268, Note_off_c, 0, 60, 61
1, 179291, Note_on_c, 0, 67, 42
1, 179295, Note_on_c, 0, 58, 52
1, 179317, Note_off_c, 0, 58, 60
1, 179323, Note_off_c, 0, 67, 51
1, 179336, Control_c, 0, 67, 88
1, 179337, Note_on_c, 0, 62, 68
1, 179342, Note_on_c, 0, 74, 68
1, 179344, Note_on_c, 0, 70, 69
1, 179392, Note_on_c, 0, 58, 64
1, 179396, Control_c, 0, 67, 88
1, 179401, Note_off_c, 0, 62, 58
1, 179408, Note_off_c, 0, 74, 64
1, 179410, Control_c, 0, 67, 89
1, 179420, Note_on_c, 0, 69, 68
1, 179425, Note_off_c, 0, 70, 62
1, 179425, Control_c, 0, 67, 90
1, 179440, Control_c, 0, 64, 53
1, 179440, Control_c, 0, 67, 91
1, 179444, Note_off_c, 0, 58, 60
1, 179452, Note_off_c, 0, 69, 64
1, 179455, Control_c, 0, 64, 59
1, 179455, Control_c, 0, 67, 92
1, 179461, Note_on_c, 0, 67, 55
1, 179470, Note_on_c, 0, 55, 60
1, 179470, Control_c, 0, 64, 56
1, 179470, Control_c, 0, 67, 93
1, 179485, Control_c, 0, 64, 43
1, 179485, Control_c, 0, 67, 94
1, 179500, Control_c, 0, 64, 0
1, 179500, Control_c, 0, 67, 96
1, 179500, Note_off_c, 0, 67, 58
1, 179512, Note_off_c, 0, 55, 65
1, 179515, Control_c, 0, 67, 99
1, 179530, Note_on_c, 0, 73, 80
1, 179530, Control_c, 0, 67, 103
1, 179533, Note_on_c, 0, 64, 70
1, 179540, Note_on_c, 0, 70, 67
1, 179545, Control_c, 0, 64, 62
1, 179545, Control_c, 0, 67, 106
1, 179560, Control_c, 0, 64, 67
1, 179560, Control_c, 0, 67, 107
1, 179574, Control_c, 0, 64, 72
1, 179589, Control_c, 0, 64, 76
1, 179591, Note_on_c, 0, 58, 70
1, 179601, Note_off_c, 0, 64, 61
1, 179604, Control_c, 0, 64, 79
1, 179615, Note_on_c, 0, 69, 69
1, 179618, Note_off_c, 0, 73, 61
1, 179618, Control_c, 0, 64, 81
1, 179623, Note_off_c, 0, 70, 63
1, 179633, Control_c, 0, 64, 82
1, 179647, Note_off_c, 0, 58, 64
1, 179648, Control_c, 0, 67, 106
1, 179655, Note_on_c, 0, 67, 67
1, 179658, Note_off_c, 0, 69, 67
1, 179659, Note_on_c, 0, 55, 68
1, 179682, Note_off_c, 0, 67, 65
1, 179692, Control_c, 0, 67, 107
1, 179707, Control_c, 0, 67, 108
1, 179719, Note_on_c, 0, 76, 95
1, 179721, Note_on_c, 0, 64, 76
1, 179722, Note_off_c, 0, 55, 61
1, 179722, Control_c, 0, 64, 82
1, 179722, Control_c, 0, 67, 110
1, 179724, Note_on_c, 0, 73, 87
1, 179737, Control_c, 0, 64, 83
1, 179737, Control_c, 0, 67, 111
1, 179752, Control_c, 0, 64, 84
1, 179752, Control_c, 0, 67, 111
1, 179766, Control_c, 0, 64, 84
1, 179766, Control_c, 0, 67, 111
1, 179781, Control_c, 0, 64, 85
1, 179786, Note_on_c, 0, 58, 69
1, 179796, Control_c, 0, 64, 86
1, 179796, Control_c, 0, 67, 110
1, 179800, Note_off_c, 0, 64, 56
1, 179805, Note_off_c, 0, 73, 66
1, 179806, Note_on_c, 0, 70, 79
1, 179811, Control_c, 0, 64, 87
1, 179823, Note_off_c, 0, 76, 65
1, 179825, Control_c, 0, 64, 87
1, 179843, Note_off_c, 0, 58, 63
1, 179850, Note_off_c, 0, 70, 61
1, 179852, Note_on_c, 0, 67, 58
1, 179863, Note_on_c, 0, 65, 51
1, 179870, Note_on_c, 0, 55, 62
1, 179884, Note_off_c, 0, 67, 65
1, 179885, Note_off_c, 0, 65, 60
1, 179885, Control_c, 0, 67, 110
1, 179900, Control_c, 0, 67, 109
1, 179922, Control_c, 0, 67, 108
1, 179927, Note_on_c, 0, 79, 94
1, 179936, Note_on_c, 0, 76, 93
1, 179937, Note_on_c, 0, 64, 71
1, 179938, Control_c, 0, 67, 107
1, 179950, Note_off_c, 0, 55, 58
1, 179952, Control_c, 0, 67, 106
1, 179967, Control_c, 0, 67, 106
1, 179997, Control_c, 0, 67, 105
1, 179998, Note_off_c, 0, 76, 62
1, 179998, Note_off_c, 0, 79, 65
1, 180004, Note_on_c, 0, 58, 66
1, 180010, Note_off_c, 0, 64, 57
1, 180013, Note_on_c, 0, 72, 62
1, 180026, Control_c, 0, 67, 105
1, 180041, Control_c, 0, 67, 104
1, 180045, Note_off_c, 0, 72, 66
1, 180056, Control_c, 0, 64, 87
1, 180056, Control_c, 0, 67, 102
1, 180058, Note_on_c, 0, 70, 84
1, 180071, Control_c, 0, 64, 86
1, 180071, Control_c, 0, 67, 101
1, 180081, Note_off_c, 0, 70, 65
1, 180086, Control_c, 0, 64, 86
1, 180086, Control_c, 0, 67, 97
1, 180087, Note_off_c, 0, 58, 64
1, 180099, Note_on_c, 0, 55, 50
1, 180100, Control_c, 0, 64, 85
1, 180100, Control_c, 0, 67, 92
1, 180115, Control_c, 0, 64, 84
1, 180115, Control_c, 0, 67, 88
1, 180130, Control_c, 0, 64, 83
1, 180130, Control_c, 0, 67, 87
1, 180134, Note_on_c, 0, 73, 80
1, 180144, Note_on_c, 0, 70, 74
1, 180145, Control_c, 0, 64, 83
1, 180159, Control_c, 0, 64, 82
1, 180173, Note_on_c, 0, 62, 56
1, 180174, Control_c, 0, 64, 81
1, 180174, Control_c, 0, 67, 86
1, 180189, Control_c, 0, 64, 80
1, 180189, Control_c, 0, 67, 86
1, 180201, Note_on_c, 0, 69, 81
1, 180201, Note_off_c, 0, 70, 66
1, 180204, Control_c, 0, 64, 77
1, 180207, Note_off_c, 0, 55, 59
1, 180207, Note_off_c, 0, 73, 63
1, 180208, Note_on_c, 0, 58, 61
1, 180219, Control_c, 0, 64, 73
1, 180220, Note_off_c, 0, 62, 42
1, 180233, Control_c, 0, 64, 68
1, 180248, Note_off_c, 0, 58, 54
1, 180249, Control_c, 0, 64, 56
1, 180249, Control_c, 0, 67, 86
1, 180250, Note_off_c, 0, 69, 65
1, 180264, Control_c, 0, 64, 0
1, 180264, Control_c, 0, 67, 87
1, 180266, Note_on_c, 0, 67, 67
1, 180295, Note_off_c, 0, 67, 65
1, 180323, Control_c, 0, 67, 87
1, 180338, Note_on_c, 0, 65, 82
1, 180338, Control_c, 0, 67, 88
1, 180340, Note_on_c, 0, 74, 72
1, 180342, Note_on_c, 0, 57, 66
1, 180344, Note_on_c, 0, 53, 61
1, 180353, Control_c, 0, 64, 58
1, 180353, Control_c, 0, 67, 88
1, 180359, Note_off_c, 0, 65, 72
1, 180360, Note_off_c, 0, 74, 72
1, 180367, Note_off_c, 0, 57, 63
1, 180368, Control_c, 0, 64, 68
1, 180368, Control_c, 0, 67, 90
1, 180373, Note_off_c, 0, 53, 67
1, 180383, Control_c, 0, 64, 74
1, 180383, Control_c, 0, 67, 91
1, 180397, Control_c, 0, 64, 78
1, 180397, Control_c, 0, 67, 92
1, 180412, Control_c, 0, 64, 81
1, 180412, Control_c, 0, 67, 92
1, 180427, Control_c, 0, 64, 82
1, 180427, Control_c, 0, 67, 93
1, 180442, Control_c, 0, 64, 83
1, 180457, Control_c, 0, 67, 93
1, 180472, Control_c, 0, 67, 94
1, 180487, Control_c, 0, 67, 94
1, 180502, Control_c, 0, 64, 82
1, 180502, Control_c, 0, 67, 95
1, 180517, Control_c, 0, 64, 81
1, 180517, Control_c, 0, 67, 96
1, 180523, Note_on_c, 0, 53, 62
1, 180531, Note_on_c, 0, 62, 71
1, 180531, Control_c, 0, 64, 78
1, 180531, Control_c, 0, 67, 96
1, 180546, Control_c, 0, 64, 74
1, 180556, Note_off_c, 0, 53, 67
1, 180561, Control_c, 0, 64, 68
1, 180564, Note_off_c, 0, 62, 60
1, 180575, Control_c, 0, 64, 56
1, 180579, Note_on_c, 0, 55, 57
1, 180587, Note_on_c, 0, 64, 67
1, 180590, Control_c, 0, 64, 0
1, 180590, Control_c, 0, 67, 96
1, 180605, Control_c, 0, 67, 95
1, 180624, Note_off_c, 0, 55, 64
1, 180635, Control_c, 0, 67, 95
1, 180636, Note_on_c, 0, 57, 60
1, 180643, Note_on_c, 0, 65, 76
1, 180644, Note_off_c, 0, 64, 63
1, 180649, Control_c, 0, 67, 94
1, 180656, Note_off_c, 0, 57, 61
1, 180672, Control_c, 0, 67, 93
1, 180674, Note_off_c, 0, 65, 69
1, 180686, Control_c, 0, 67, 93
1, 180716, Control_c, 0, 67, 92
1, 180716, Note_on_c, 0, 57, 91
1, 180725, Note_on_c, 0, 65, 87
1, 180764, Note_off_c, 0, 57, 58
1, 180779, Note_off_c, 0, 65, 66
1, 180787, Note_on_c, 0, 64, 73
1, 180796, Note_on_c, 0, 55, 74
1, 180804, Control_c, 0, 67, 93
1, 180834, Control_c, 0, 67, 93
1, 180848, Note_off_c, 0, 64, 63
1, 180848, Control_c, 0, 67, 94
1, 180858, Note_on_c, 0, 62, 62
1, 180866, Note_off_c, 0, 55, 64
1, 180876, Note_on_c, 0, 53, 60
1, 180891, Note_off_c, 0, 62, 60
1, 180908, Control_c, 0, 67, 94
1, 180916, Note_off_c, 0, 53, 67
1, 180929, Note_on_c, 0, 69, 72
1, 180931, Note_on_c, 0, 65, 70
1, 180938, Note_on_c, 0, 57, 66
1, 180967, Control_c, 0, 67, 94
1, 180996, Note_off_c, 0, 57, 50
1, 180997, Control_c, 0, 67, 95
1, 180997, Note_off_c, 0, 65, 62
1, 181002, Note_off_c, 0, 69, 66
1, 181006, Note_on_c, 0, 64, 69
1, 181026, Control_c, 0, 67, 95
1, 181031, Note_on_c, 0, 53, 46
1, 181041, Note_on_c, 0, 50, 43
1, 181045, Note_off_c, 0, 64, 64
1, 181063, Note_on_c, 0, 62, 62
1, 181068, Note_off_c, 0, 53, 56
1, 181086, Note_off_c, 0, 62, 63
1, 181101, Control_c, 0, 67, 96
1, 181116, Control_c, 0, 67, 97
1, 181122, Note_off_c, 0, 50, 62
1, 181125, Note_on_c, 0, 70, 78
1, 181131, Control_c, 0, 67, 98
1, 181132, Note_on_c, 0, 58, 65
1, 181136, Note_on_c, 0, 65, 68
1, 181146, Control_c, 0, 64, 62
1, 181146, Control_c, 0, 67, 101
1, 181161, Note_off_c, 0, 58, 66
1, 181161, Control_c, 0, 64, 72
1, 181161, Control_c, 0, 67, 105
1, 181162, Note_off_c, 0, 65, 68
1, 181167, Note_off_c, 0, 70, 63
1, 181175, Control_c, 0, 64, 82
1, 181175, Control_c, 0, 67, 108
1, 181190, Control_c, 0, 64, 88
1, 181190, Control_c, 0, 67, 110
1, 181205, Control_c, 0, 64, 91
1, 181205, Control_c, 0, 67, 111
1, 181219, Poly_aftertouch_c, 0, 53, 0
1, 181220, Control_c, 0, 64, 92
1, 181220, Control_c, 0, 67, 112
1, 181235, Control_c, 0, 67, 113
1, 181250, Control_c, 0, 67, 115
1, 181265, Control_c, 0, 67, 117
1, 181279, Control_c, 0, 67, 119
1, 181294, Control_c, 0, 64, 91
1, 181308, Note_on_c, 0, 53, 75
1, 181309, Control_c, 0, 64, 89
1, 181324, Control_c, 0, 64, 87
1, 181325, Note_on_c, 0, 62, 76
1, 181339, Control_c, 0, 64, 83
1, 181350, Note_off_c, 0, 53, 58
1, 181353, Control_c, 0, 64, 79
1, 181363, Note_off_c, 0, 62, 57
1, 181368, Control_c, 0, 64, 73
1, 181372, Note_on_c, 0, 55, 69
1, 181381, Note_on_c, 0, 64, 65
1, 181383, Control_c, 0, 64, 66
1, 181383, Control_c, 0, 67, 119
1, 181397, Control_c, 0, 64, 50
1, 181412, Control_c, 0, 64, 0
1, 181412, Control_c, 0, 67, 118
1, 181429, Note_off_c, 0, 55, 64
1, 181436, Note_on_c, 0, 57, 70
1, 181438, Note_on_c, 0, 65, 74
1, 181438, Note_off_c, 0, 64, 62
1, 181450, Control_c, 0, 67, 117
1, 181462, Note_off_c, 0, 65, 70
1, 181465, Note_off_c, 0, 57, 65
1, 181465, Control_c, 0, 67, 116
1, 181479, Control_c, 0, 67, 115
1, 181494, Control_c, 0, 67, 114
1, 181509, Control_c, 0, 67, 112
1, 181512, Note_on_c, 0, 65, 94
1, 181516, Note_on_c, 0, 57, 87
1, 181523, Control_c, 0, 67, 111
1, 181538, Control_c, 0, 67, 110
1, 181571, Note_off_c, 0, 57, 57
1, 181581, Note_off_c, 0, 65, 62
1, 181593, Note_on_c, 0, 64, 71
1, 181594, Note_on_c, 0, 55, 72
1, 181612, Control_c, 0, 67, 111
1, 181641, Note_off_c, 0, 64, 62
1, 181647, Note_off_c, 0, 55, 64
1, 181663, Note_on_c, 0, 53, 62
1, 181664, Note_on_c, 0, 62, 52
1, 181686, Control_c, 0, 67, 110
1, 181691, Note_off_c, 0, 62, 51
1, 181706, Note_off_c, 0, 53, 66
1, 181716, Note_on_c, 0, 71, 73
1, 181721, Note_on_c, 0, 65, 66
1, 181739, Note_on_c, 0, 59, 61
1, 181745, Control_c, 0, 64, 52
1, 181760, Control_c, 0, 64, 65
1, 181775, Control_c, 0, 64, 66
1, 181787, Note_on_c, 0, 50, 24
1, 181787, Note_off_c, 0, 59, 53
1, 181790, Control_c, 0, 64, 67
1, 181793, Note_off_c, 0, 65, 64
1, 181796, Note_on_c, 0, 64, 58
1, 181798, Note_off_c, 0, 71, 60
1, 181812, Note_on_c, 0, 53, 66
1, 181813, Note_off_c, 0, 50, 54
1, 181836, Note_off_c, 0, 64, 65
1, 181846, Note_on_c, 0, 62, 66
1, 181850, Control_c, 0, 64, 65
1, 181865, Control_c, 0, 64, 61
1, 181865, Control_c, 0, 67, 110
1, 181875, Note_off_c, 0, 62, 63
1, 181876, Note_off_c, 0, 53, 63
1, 181880, Control_c, 0, 64, 0
1, 181880, Control_c, 0, 67, 109
1, 181894, Control_c, 0, 67, 109
1, 181909, Control_c, 0, 67, 108
1, 181915, Note_on_c, 0, 60, 74
1, 181923, Note_on_c, 0, 72, 69
1, 181927, Note_on_c, 0, 69, 66
1, 181935, Note_on_c, 0, 71, 65
1, 181949, Note_off_c, 0, 60, 55
1, 181954, Control_c, 0, 64, 57
1, 181968, Control_c, 0, 64, 65
1, 181983, Control_c, 0, 64, 68
1, 181983, Control_c, 0, 67, 108
1, 181990, Note_off_c, 0, 69, 65
1, 181991, Note_on_c, 0, 57, 67
1, 181993, Note_on_c, 0, 67, 71
1, 181997, Note_off_c, 0, 72, 65
1, 181998, Control_c, 0, 64, 70
1, 181998, Control_c, 0, 67, 107
1, 182008, Note_off_c, 0, 71, 41
1, 182013, Control_c, 0, 64, 70
1, 182013, Control_c, 0, 67, 106
1, 182028, Control_c, 0, 67, 102
1, 182029, Note_off_c, 0, 67, 63
1, 182043, Control_c, 0, 64, 69
1, 182043, Control_c, 0, 67, 96
1, 182052, Note_off_c, 0, 57, 61
1, 182053, Note_on_c, 0, 65, 58
1, 182058, Control_c, 0, 64, 66
1, 182058, Control_c, 0, 67, 86
1, 182073, Control_c, 0, 64, 48
1, 182073, Control_c, 0, 67, 67
1, 182079, Note_off_c, 0, 65, 62
1, 182088, Control_c, 0, 64, 0
1, 182088, Control_c, 0, 67, 44
1, 182088, Note_on_c, 0, 48, 64
1, 182102, Control_c, 0, 67, 15
1, 182117, Note_on_c, 0, 59, 59
1, 182117, Control_c, 0, 67, 0
1, 182124, Note_on_c, 0, 71, 68
1, 182128, Note_on_c, 0, 72, 75
1, 182129, Note_off_c, 0, 48, 60
1, 182135, Note_on_c, 0, 68, 38
1, 182137, Note_on_c, 0, 69, 66
1, 182147, Control_c, 0, 64, 53
1, 182162, Control_c, 0, 64, 62
1, 182173, Note_off_c, 0, 69, 68
1, 182181, Note_off_c, 0, 68, 47
1, 182183, Control_c, 0, 64, 65
1, 182198, Control_c, 0, 64, 66
1, 182200, Note_on_c, 0, 56, 69
1, 182210, Note_off_c, 0, 72, 61
1, 182213, Note_off_c, 0, 71, 61
1, 182213, Control_c, 0, 64, 66
1, 182215, Note_off_c, 0, 59, 56
1, 182217, Note_on_c, 0, 67, 61
1, 182228, Control_c, 0, 64, 65
1, 182243, Control_c, 0, 64, 60
1, 182249, Note_off_c, 0, 67, 65
1, 182258, Control_c, 0, 64, 0
1, 182264, Note_on_c, 0, 65, 49
1, 182276, Note_off_c, 0, 56, 61
1, 182302, Note_off_c, 0, 65, 46
1, 182302, Note_on_c, 0, 48, 69
1, 182307, Note_on_c, 0, 60, 73
1, 182312, Note_on_c, 0, 72, 85
1, 182317, Note_on_c, 0, 69, 83
1, 182346, Control_c, 0, 64, 41
1, 182361, Control_c, 0, 64, 65
1, 182369, Note_off_c, 0, 60, 55
1, 182372, Note_off_c, 0, 48, 63
1, 182376, Control_c, 0, 64, 69
1, 182383, Note_on_c, 0, 57, 72
1, 182389, Note_off_c, 0, 72, 62
1, 182391, Control_c, 0, 64, 70
1, 182392, Note_on_c, 0, 67, 79
1, 182394, Note_off_c, 0, 69, 63
1, 182406, Control_c, 0, 64, 70
1, 182420, Control_c, 0, 64, 64
1, 182435, Control_c, 0, 64, 0
1, 182442, Note_off_c, 0, 67, 63
1, 182449, Note_on_c, 0, 65, 52
1, 182462, Note_off_c, 0, 57, 60
1, 182471, Note_off_c, 0, 65, 60
1, 182480, Control_c, 0, 64, 58
1, 182494, Control_c, 0, 64, 67
1, 182495, Note_on_c, 0, 61, 84
1, 182498, Note_on_c, 0, 73, 89
1, 182503, Note_on_c, 0, 69, 85
1, 182509, Control_c, 0, 64, 71
1, 182524, Control_c, 0, 64, 74
1, 182535, Note_on_c, 0, 70, 41
1, 182538, Control_c, 0, 64, 76
1, 182541, Note_off_c, 0, 61, 64
1, 182553, Control_c, 0, 64, 77
1, 182556, Poly_aftertouch_c, 0, 48, 127
1, 182563, Note_off_c, 0, 70, 50
1, 182567, Note_on_c, 0, 57, 76
1, 182568, Control_c, 0, 64, 78
1, 182579, Note_on_c, 0, 67, 81
1, 182579, Poly_aftertouch_c, 0, 48, 0
1, 182581, Note_off_c, 0, 69, 64
1, 182598, Control_c, 0, 64, 77
1, 182603, Note_off_c, 0, 73, 62
1, 182612, Control_c, 0, 64, 73
1, 182618, Note_on_c, 0, 65, 77
1, 182627, Note_off_c, 0, 67, 64
1, 182627, Control_c, 0, 64, 62
1, 182643, Control_c, 0, 64, 0
1, 182646, Note_off_c, 0, 65, 67
1, 182656, Note_off_c, 0, 57, 50
1, 182667, Note_on_c, 0, 48, 32
1, 182701, Note_on_c, 0, 74, 91
1, 182705, Note_off_c, 0, 48, 31
1, 182705, Note_on_c, 0, 62, 86
1, 182706, Note_on_c, 0, 67, 91
1, 182717, Control_c, 0, 64, 44
1, 182732, Control_c, 0, 64, 65
1, 182744, Note_off_c, 0, 62, 62
1, 182747, Control_c, 0, 64, 70
1, 182762, Control_c, 0, 64, 74
1, 182774, Note_on_c, 0, 65, 73
1, 182776, Control_c, 0, 64, 75
1, 182786, Note_on_c, 0, 58, 63
1, 182791, Note_off_c, 0, 67, 56
1, 182806, Note_off_c, 0, 74, 58
1, 182821, Control_c, 0, 64, 73
1, 182832, Note_on_c, 0, 64, 64
1, 182836, Note_off_c, 0, 65, 66
1, 182836, Control_c, 0, 64, 65
1, 182842, Note_off_c, 0, 58, 61
1, 182850, Note_on_c, 0, 48, 63
1, 182851, Control_c, 0, 64, 0
1, 182870, Note_off_c, 0, 64, 59
1, 182888, Note_off_c, 0, 48, 65
1, 182901, Note_on_c, 0, 73, 79
1, 182904, Note_on_c, 0, 67, 70
1, 182909, Note_on_c, 0, 61, 78
1, 182910, Control_c, 0, 64, 36
1, 182933, Control_c, 0, 64, 64
1, 182946, Note_on_c, 0, 74, 40
1, 182948, Note_off_c, 0, 61, 63
1, 182948, Control_c, 0, 64, 68
1, 182963, Control_c, 0, 64, 70
1, 182971, Note_off_c, 0, 74, 57
1, 182977, Control_c, 0, 64, 71
1, 182982, Note_on_c, 0, 57, 64
1, 182997, Note_on_c, 0, 65, 71
1, 183006, Note_off_c, 0, 73, 61
1, 183009, Note_off_c, 0, 67, 62
1, 183022, Control_c, 0, 64, 69
1, 183037, Control_c, 0, 64, 63
1, 183039, Note_off_c, 0, 65, 63
1, 183045, Note_on_c, 0, 64, 61
1, 183051, Control_c, 0, 64, 0
1, 183062, Note_off_c, 0, 57, 58
1, 183064, Note_on_c, 0, 48, 58
1, 183081, Note_off_c, 0, 64, 62
1, 183087, Note_off_c, 0, 48, 60
1, 183113, Note_on_c, 0, 74, 73
1, 183122, Note_on_c, 0, 62, 77
1, 183127, Note_on_c, 0, 67, 73
1, 183140, Control_c, 0, 64, 58
1, 183147, Note_off_c, 0, 62, 64
1, 183155, Control_c, 0, 64, 64
1, 183170, Control_c, 0, 64, 65
1, 183182, Note_off_c, 0, 74, 58
1, 183199, Note_on_c, 0, 65, 71
1, 183199, Control_c, 0, 64, 64
1, 183204, Note_off_c, 0, 67, 60
1, 183207, Note_on_c, 0, 58, 55
1, 183214, Control_c, 0, 64, 56
1, 183229, Control_c, 0, 64, 0
1, 183239, Note_off_c, 0, 58, 65
1, 183242, Note_off_c, 0, 65, 62
1, 183266, Note_on_c, 0, 64, 65
1, 183270, Note_on_c, 0, 48, 65
1, 183289, Control_c, 0, 67, 15
1, 183298, Note_off_c, 0, 64, 61
1, 183304, Control_c, 0, 67, 26
1, 183318, Control_c, 0, 67, 39
1, 183326, Note_on_c, 0, 70, 72
1, 183330, Note_on_c, 0, 58, 62
1, 183333, Control_c, 0, 64, 57
1, 183333, Control_c, 0, 67, 55
1, 183337, Note_on_c, 0, 67, 60
1, 183348, Control_c, 0, 64, 63
1, 183348, Control_c, 0, 67, 66
1, 183363, Control_c, 0, 64, 63
1, 183363, Control_c, 0, 67, 71
1, 183372, Note_off_c, 0, 58, 63
1, 183377, Control_c, 0, 64, 59
1, 183377, Control_c, 0, 67, 75
1, 183392, Control_c, 0, 64, 30
1, 183392, Control_c, 0, 67, 78
1, 183393, Note_off_c, 0, 67, 62
1, 183404, Note_on_c, 0, 55, 54
1, 183404, Note_on_c, 0, 65, 56
1, 183407, Note_off_c, 0, 70, 61
1, 183407, Control_c, 0, 64, 0
1, 183407, Control_c, 0, 67, 79
1, 183422, Control_c, 0, 67, 80
1, 183435, Note_off_c, 0, 65, 67
1, 183437, Note_on_c, 0, 64, 65
1, 183453, Control_c, 0, 67, 79
1, 183462, Note_off_c, 0, 55, 57
1, 183466, Note_off_c, 0, 64, 66
1, 183467, Control_c, 0, 67, 78
1, 183482, Control_c, 0, 67, 77
1, 183497, Control_c, 0, 67, 75
1, 183501, Note_off_c, 0, 48, 40
1, 183511, Note_on_c, 0, 69, 75
1, 183512, Control_c, 0, 67, 72
1, 183514, Note_on_c, 0, 53, 75
1, 183514, Note_on_c, 0, 65, 69
1, 183518, Note_on_c, 0, 57, 62
1, 183527, Control_c, 0, 64, 51
1, 183531, Note_off_c, 0, 65, 68
1, 183533, Note_off_c, 0, 69, 72
1, 183536, Note_off_c, 0, 53, 69
1, 183536, Note_off_c, 0, 57, 64
1, 183541, Control_c, 0, 64, 66
1, 183556, Control_c, 0, 64, 70
1, 183571, Control_c, 0, 64, 74
1, 183571, Control_c, 0, 67, 73
1, 183585, Control_c, 0, 64, 77
1, 183585, Control_c, 0, 67, 74
1, 183600, Control_c, 0, 64, 80
1, 183600, Control_c, 0, 67, 75
1, 183615, Control_c, 0, 64, 82
1, 183630, Control_c, 0, 64, 84
1, 183630, Control_c, 0, 67, 75
1, 183660, Control_c, 0, 64, 83
1, 183682, Control_c, 0, 64, 79
1, 183682, Control_c, 0, 67, 75
1, 183697, Control_c, 0, 64, 70
1, 183697, Control_c, 0, 67, 74
1, 183701, Note_on_c, 0, 48, 73
1, 183712, Control_c, 0, 64, 0
1, 183712, Control_c, 0, 67, 73
1, 183724, Note_on_c, 0, 60, 64
1, 183727, Control_c, 0, 67, 73
1, 183742, Control_c, 0, 67, 71
1, 183754, Note_off_c, 0, 48, 65
1, 183756, Control_c, 0, 67, 70
1, 183764, Note_off_c, 0, 60, 63
1, 183766, Note_on_c, 0, 62, 77
1, 183769, Note_on_c, 0, 50, 67
1, 183771, Control_c, 0, 67, 68
1, 183786, Control_c, 0, 67, 63
1, 183800, Control_c, 0, 67, 50
1, 183815, Control_c, 0, 67, 35
1, 183820, Note_on_c, 0, 63, 81
1, 183825, Note_on_c, 0, 51, 76
1, 183825, Note_off_c, 0, 62, 61
1, 183830, Control_c, 0, 67, 22
1, 183832, Note_off_c, 0, 50, 62
1, 183845, Control_c, 0, 67, 9
1, 183849, Note_off_c, 0, 63, 68
1, 183859, Note_off_c, 0, 51, 66
1, 183860, Control_c, 0, 67, 0
1, 183897, Note_on_c, 0, 51, 83
1, 183902, Note_on_c, 0, 63, 93
1, 183945, Note_off_c, 0, 63, 66
1, 183969, Note_on_c, 0, 62, 82
1, 183977, Note_off_c, 0, 51, 61
1, 183984, Note_on_c, 0, 50, 75
1, 183998, Poly_aftertouch_c, 0, 44, 0
1, 184033, Note_off_c, 0, 62, 61
1, 184034, Note_on_c, 0, 60, 69
1, 184060, Note_off_c, 0, 50, 62
1, 184076, Note_on_c, 0, 45, 61
1, 184094, Note_on_c, 0, 66, 95
1, 184106, Note_off_c, 0, 60, 59
1, 184111, Note_on_c, 0, 48, 37
1, 184162, Note_on_c, 0, 63, 76
1, 184164, Note_off_c, 0, 48, 63
1, 184173, Note_on_c, 0, 54, 70
1, 184195, Note_off_c, 0, 45, 62
1, 184215, Note_off_c, 0, 66, 64
1, 184232, Note_on_c, 0, 60, 77
1, 184234, Note_off_c, 0, 54, 61
1, 184234, Note_off_c, 0, 63, 64
1, 184288, Note_on_c, 0, 65, 94
1, 184290, Note_on_c, 0, 53, 89
1, 184293, Note_on_c, 0, 48, 73
1, 184293, Note_on_c, 0, 63, 70
1, 184293, Note_off_c, 0, 60, 38
1, 184296, Note_on_c, 0, 45, 77
1, 184305, Control_c, 0, 64, 68
1, 184319, Note_off_c, 0, 53, 67
1, 184319, Note_off_c, 0, 63, 71
1, 184320, Control_c, 0, 64, 77
1, 184328, Note_off_c, 0, 45, 68
1, 184329, Note_off_c, 0, 48, 67
1, 184330, Note_off_c, 0, 65, 66
1, 184335, Control_c, 0, 64, 86
1, 184350, Control_c, 0, 64, 93
1, 184364, Control_c, 0, 64, 99
1, 184379, Control_c, 0, 64, 103
1, 184394, Control_c, 0, 64, 104
1, 184444, Control_c, 0, 64, 100
1, 184459, Control_c, 0, 64, 93
1, 184474, Control_c, 0, 64, 82
1, 184488, Control_c, 0, 64, 68
1, 184503, Control_c, 0, 64, 0
1, 184510, Note_on_c, 0, 48, 59
1, 184517, Note_on_c, 0, 60, 58
1, 184545, Note_off_c, 0, 60, 56
1, 184550, Note_off_c, 0, 48, 66
1, 184565, Note_on_c, 0, 62, 64
1, 184581, Note_on_c, 0, 50, 48
1, 184608, Note_off_c, 0, 50, 60
1, 184616, Note_off_c, 0, 62, 55
1, 184632, Note_on_c, 0, 63, 65
1, 184638, Note_on_c, 0, 51, 38
1, 184651, Note_off_c, 0, 63, 66
1, 184702, Note_off_c, 0, 51, 0
1, 184702, Note_on_c, 0, 51, 55
1, 184720, Note_on_c, 0, 63, 67
1, 184750, Note_off_c, 0, 63, 66
1, 184776, Note_on_c, 0, 62, 65
1, 184821, Note_off_c, 0, 62, 58
1, 184856, Note_on_c, 0, 45, 36
1, 184874, Note_off_c, 0, 51, 20
1, 184888, Note_on_c, 0, 66, 68
1, 184898, Note_on_c, 0, 48, 51
1, 184910, Note_off_c, 0, 45, 55
1, 184937, Note_on_c, 0, 63, 66
1, 184962, Note_off_c, 0, 66, 61
1, 184997, Note_on_c, 0, 54, 51
1, 185005, Note_off_c, 0, 63, 61
1, 185011, Note_off_c, 0, 48, 42
1, 185013, Note_on_c, 0, 60, 63
1, 185025, Note_off_c, 0, 54, 57
1, 185042, Note_off_c, 0, 60, 63
1, 185090, Note_on_c, 0, 67, 77
1, 185095, Note_on_c, 0, 58, 60
1, 185103, Note_on_c, 0, 46, 62
1, 185105, Note_on_c, 0, 62, 48
1, 185110, Note_on_c, 0, 55, 64
1, 185111, Control_c, 0, 64, 47
1, 185117, Note_off_c, 0, 58, 65
1, 185126, Control_c, 0, 64, 66
1, 185128, Note_off_c, 0, 67, 64
1, 185130, Note_off_c, 0, 62, 54
1, 185134, Note_off_c, 0, 46, 63
1, 185137, Note_off_c, 0, 55, 66
1, 185141, Control_c, 0, 64, 73
1, 185156, Control_c, 0, 64, 77
1, 185178, Control_c, 0, 64, 80
1, 185193, Control_c, 0, 64, 82
1, 185208, Control_c, 0, 64, 83
1, 185223, Control_c, 0, 64, 84
1, 185267, Control_c, 0, 64, 82
1, 185282, Control_c, 0, 64, 78
1, 185289, Note_on_c, 0, 50, 78
1, 185297, Control_c, 0, 64, 68
1, 185303, Note_on_c, 0, 62, 73
1, 185311, Control_c, 0, 64, 13
1, 185326, Control_c, 0, 64, 0
1, 185334, Note_off_c, 0, 50, 57
1, 185335, Note_off_c, 0, 62, 58
1, 185352, Note_on_c, 0, 52, 77
1, 185355, Note_on_c, 0, 64, 78
1, 185411, Note_on_c, 0, 53, 81
1, 185413, Note_on_c, 0, 65, 78
1, 185413, Note_off_c, 0, 52, 66
1, 185415, Note_off_c, 0, 64, 64
1, 185436, Note_off_c, 0, 65, 70
1, 185445, Note_off_c, 0, 53, 66
1, 185486, Note_on_c, 0, 65, 97
1, 185489, Note_on_c, 0, 53, 86
1, 185550, Note_off_c, 0, 53, 55
1, 185553, Note_off_c, 0, 65, 62
1, 185557, Note_on_c, 0, 64, 82
1, 185567, Note_on_c, 0, 52, 78
1, 185619, Note_on_c, 0, 62, 76
1, 185620, Note_off_c, 0, 64, 63
1, 185645, Note_off_c, 0, 52, 65
1, 185666, Note_on_c, 0, 47, 72
1, 185671, Note_on_c, 0, 50, 40
1, 185686, Note_on_c, 0, 68, 91
1, 185688, Note_off_c, 0, 62, 47
1, 185705, Note_off_c, 0, 50, 33
1, 185745, Note_on_c, 0, 65, 77
1, 185750, Note_on_c, 0, 50, 72
1, 185787, Note_off_c, 0, 47, 61
1, 185800, Note_off_c, 0, 68, 61
1, 185814, Note_on_c, 0, 56, 72
1, 185815, Note_off_c, 0, 50, 62
1, 185817, Note_on_c, 0, 62, 78
1, 185823, Note_off_c, 0, 65, 65
1, 185847, Note_off_c, 0, 56, 67
1, 185855, Note_off_c, 0, 62, 64
1, 185893, Note_on_c, 0, 67, 93
1, 185900, Note_on_c, 0, 65, 80
1, 185906, Note_on_c, 0, 47, 79
1, 185917, Note_on_c, 0, 50, 71
1, 185918, Note_on_c, 0, 55, 75
1, 185927, Control_c, 0, 64, 63
1, 185930, Note_off_c, 0, 65, 71
1, 185942, Control_c, 0, 64, 70
1, 185942, Note_off_c, 0, 67, 62
1, 185944, Note_off_c, 0, 47, 68
1, 185945, Note_off_c, 0, 50, 65
1, 185945, Note_off_c, 0, 55, 67
1, 185957, Control_c, 0, 64, 74
1, 185972, Control_c, 0, 64, 78
1, 185987, Control_c, 0, 64, 79
1, 186001, Control_c, 0, 64, 80
1, 186016, Control_c, 0, 64, 81
1, 186075, Control_c, 0, 64, 80
1, 186090, Control_c, 0, 64, 77
1, 186105, Control_c, 0, 64, 71
1, 186109, Note_on_c, 0, 62, 67
1, 186115, Note_on_c, 0, 50, 58
1, 186120, Control_c, 0, 64, 63
1, 186135, Control_c, 0, 64, 0
1, 186168, Note_off_c, 0, 62, 46
1, 186170, Note_on_c, 0, 64, 77
1, 186179, Note_off_c, 0, 50, 62
1, 186179, Control_c, 0, 67, 8
1, 186183, Note_on_c, 0, 52, 65
1, 186193, Control_c, 0, 67, 9
1, 186208, Control_c, 0, 67, 11
1, 186210, Note_off_c, 0, 64, 63
1, 186212, Note_off_c, 0, 52, 67
1, 186223, Control_c, 0, 67, 16
1, 186238, Control_c, 0, 67, 21
1, 186253, Control_c, 0, 67, 24
1, 186255, Note_on_c, 0, 53, 30
1, 186267, Control_c, 0, 67, 27
1, 186280, Note_off_c, 0, 53, 0
1, 186280, Note_on_c, 0, 53, 11
1, 186282, Control_c, 0, 67, 30
1, 186287, Note_on_c, 0, 65, 81
1, 186297, Control_c, 0, 67, 30
1, 186341, Control_c, 0, 67, 31
1, 186345, Note_off_c, 0, 53, 64
1, 186363, Note_on_c, 0, 52, 61
1, 186371, Control_c, 0, 67, 30
1, 186380, Note_off_c, 0, 65, 65
1, 186386, Control_c, 0, 67, 29
1, 186388, Note_on_c, 0, 64, 61
1, 186401, Control_c, 0, 67, 28
1, 186416, Note_off_c, 0, 52, 63
1, 186416, Control_c, 0, 67, 28
1, 186428, Note_off_c, 0, 64, 61
1, 186431, Control_c, 0, 67, 27
1, 186446, Control_c, 0, 67, 27
1, 186456, Note_on_c, 0, 47, 58
1, 186466, Note_on_c, 0, 62, 62
1, 186475, Control_c, 0, 67, 26
1, 186504, Note_off_c, 0, 62, 60
1, 186505, Control_c, 0, 67, 26
1, 186508, Note_on_c, 0, 68, 70
1, 186514, Note_on_c, 0, 50, 52
1, 186549, Note_off_c, 0, 47, 38
1, 186564, Note_off_c, 0, 50, 64
1, 186574, Note_on_c, 0, 56, 52
1, 186579, Note_on_c, 0, 65, 37
1, 186598, Note_off_c, 0, 68, 61
1, 186610, Note_off_c, 0, 56, 64
1, 186623, Control_c, 0, 67, 26
1, 186634, Note_off_c, 0, 65, 62
1, 186636, Note_on_c, 0, 64, 34
1, 186654, Control_c, 0, 67, 25
1, 186672, Note_off_c, 0, 64, 48
1, 186677, Control_c, 0, 67, 24
1, 186691, Control_c, 0, 67, 23
1, 186706, Control_c, 0, 67, 22
1, 186711, Note_on_c, 0, 69, 79
1, 186715, Note_on_c, 0, 57, 66
1, 186721, Control_c, 0, 67, 23
1, 186724, Note_on_c, 0, 52, 54
1, 186736, Control_c, 0, 64, 62
1, 186736, Control_c, 0, 67, 23
1, 186742, Note_off_c, 0, 57, 64
1, 186743, Note_off_c, 0, 69, 68
1, 186750, Note_off_c, 0, 52, 65
1, 186750, Control_c, 0, 64, 69
1, 186765, Control_c, 0, 64, 74
1, 186780, Control_c, 0, 64, 78
1, 186795, Control_c, 0, 64, 80
1, 186810, Control_c, 0, 64, 81
1, 186839, Control_c, 0, 67, 24
1, 186869, Control_c, 0, 67, 24
1, 186884, Control_c, 0, 64, 80
1, 186899, Control_c, 0, 64, 78
1, 186911, Note_on_c, 0, 55, 60
1, 186914, Control_c, 0, 64, 74
1, 186917, Note_on_c, 0, 64, 60
1, 186929, Control_c, 0, 64, 67
1, 186934, Note_off_c, 0, 55, 57
1, 186943, Control_c, 0, 64, 52
1, 186943, Control_c, 0, 67, 24
1, 186952, Note_off_c, 0, 64, 62
1, 186958, Control_c, 0, 64, 0
1, 186958, Control_c, 0, 67, 23
1, 186965, Note_on_c, 0, 65, 70
1, 186970, Note_on_c, 0, 53, 58
1, 186973, Control_c, 0, 67, 21
1, 186988, Control_c, 0, 67, 19
1, 187003, Control_c, 0, 67, 15
1, 187013, Note_off_c, 0, 53, 65
1, 187017, Control_c, 0, 67, 8
1, 187021, Note_off_c, 0, 65, 64
1, 187027, Note_on_c, 0, 52, 67
1, 187027, Note_on_c, 0, 67, 71
1, 187032, Control_c, 0, 67, 0
1, 187051, Note_off_c, 0, 67, 65
1, 187057, Note_off_c, 0, 52, 67
1, 187103, Note_on_c, 0, 67, 86
1, 187113, Note_on_c, 0, 52, 83
1, 187154, Note_off_c, 0, 67, 59
1, 187172, Note_on_c, 0, 65, 68
1, 187182, Note_off_c, 0, 52, 62
1, 187187, Note_on_c, 0, 53, 66
1, 187208, Note_off_c, 0, 65, 60
1, 187224, Note_off_c, 0, 53, 65
1, 187238, Note_on_c, 0, 64, 51
1, 187248, Note_on_c, 0, 55, 51
1, 187263, Note_off_c, 0, 64, 57
1, 187300, Note_on_c, 0, 70, 73
1, 187300, Note_off_c, 0, 55, 40
1, 187319, Note_on_c, 0, 67, 63
1, 187320, Note_on_c, 0, 50, 53
1, 187325, Note_on_c, 0, 52, 54
1, 187328, Control_c, 0, 64, 41
1, 187343, Control_c, 0, 64, 64
1, 187358, Control_c, 0, 64, 68
1, 187364, Note_off_c, 0, 50, 65
1, 187373, Control_c, 0, 64, 69
1, 187388, Control_c, 0, 64, 70
1, 187391, Note_off_c, 0, 67, 62
1, 187393, Note_off_c, 0, 52, 63
1, 187398, Note_off_c, 0, 70, 60
1, 187403, Control_c, 0, 64, 70
1, 187405, Note_on_c, 0, 65, 46
1, 187409, Note_on_c, 0, 53, 42
1, 187437, Note_off_c, 0, 65, 60
1, 187438, Note_on_c, 0, 55, 47
1, 187445, Note_off_c, 0, 53, 47
1, 187454, Control_c, 0, 64, 69
1, 187456, Note_on_c, 0, 64, 54
1, 187469, Control_c, 0, 64, 66
1, 187483, Note_off_c, 0, 64, 55
1, 187484, Control_c, 0, 64, 52
1, 187499, Control_c, 0, 64, 0
1, 187510, Note_on_c, 0, 49, 69
1, 187511, Note_on_c, 0, 69, 85
1, 187522, Note_on_c, 0, 67, 66
1, 187528, Note_on_c, 0, 52, 64
1, 187531, Note_off_c, 0, 55, 40
1, 187543, Control_c, 0, 64, 38
1, 187558, Control_c, 0, 64, 64
1, 187572, Control_c, 0, 64, 68
1, 187587, Control_c, 0, 64, 72
1, 187593, Note_on_c, 0, 53, 66
1, 187595, Note_on_c, 0, 65, 73
1, 187602, Control_c, 0, 64, 74
1, 187607, Note_off_c, 0, 69, 61
1, 187610, Note_off_c, 0, 49, 61
1, 187611, Note_off_c, 0, 67, 51
1, 187616, Note_off_c, 0, 52, 65
1, 187617, Control_c, 0, 64, 75
1, 187632, Note_on_c, 0, 55, 69
1, 187632, Control_c, 0, 64, 75
1, 187639, Note_off_c, 0, 53, 65
1, 187641, Note_on_c, 0, 64, 67
1, 187653, Note_off_c, 0, 65, 64
1, 187662, Control_c, 0, 64, 74
1, 187673, Note_off_c, 0, 64, 63
1, 187677, Control_c, 0, 64, 70
1, 187678, Note_off_c, 0, 55, 60
1, 187692, Control_c, 0, 64, 56
1, 187707, Control_c, 0, 64, 0
1, 187717, Note_on_c, 0, 70, 91
1, 187719, Note_on_c, 0, 48, 80
1, 187725, Note_on_c, 0, 52, 76
1, 187727, Note_on_c, 0, 67, 80
1, 187736, Control_c, 0, 64, 44
1, 187751, Control_c, 0, 64, 64
1, 187765, Control_c, 0, 64, 68
1, 187780, Control_c, 0, 64, 71
1, 187795, Note_on_c, 0, 65, 71
1, 187795, Control_c, 0, 64, 73
1, 187797, Note_on_c, 0, 53, 70
1, 187808, Note_off_c, 0, 48, 63
1, 187810, Control_c, 0, 64, 74
1, 187811, Note_off_c, 0, 52, 65
1, 187815, Note_off_c, 0, 67, 61
1, 187825, Control_c, 0, 64, 74
1, 187837, Note_on_c, 0, 55, 72
1, 187838, Note_off_c, 0, 70, 61
1, 187847, Note_on_c, 0, 64, 75
1, 187847, Note_off_c, 0, 53, 64
1, 187854, Control_c, 0, 64, 74
1, 187857, Note_off_c, 0, 65, 65
1, 187869, Control_c, 0, 64, 70
1, 187884, Control_c, 0, 64, 61
1, 187885, Note_off_c, 0, 64, 61
1, 187891, Note_off_c, 0, 55, 59
1, 187899, Control_c, 0, 64, 0
1, 187920, Note_on_c, 0, 71, 97
1, 187924, Note_on_c, 0, 47, 80
1, 187927, Note_on_c, 0, 52, 78
1, 187930, Note_on_c, 0, 67, 84
1, 187943, Control_c, 0, 64, 54
1, 187957, Control_c, 0, 64, 65
1, 187972, Control_c, 0, 64, 68
1, 187987, Control_c, 0, 64, 69
1, 187995, Note_on_c, 0, 65, 78
1, 188002, Note_on_c, 0, 53, 76
1, 188002, Control_c, 0, 64, 70
1, 188006, Note_off_c, 0, 67, 57
1, 188007, Note_off_c, 0, 52, 64
1, 188013, Note_off_c, 0, 47, 61
1, 188032, Control_c, 0, 64, 69
1, 188037, Note_on_c, 0, 55, 70
1, 188038, Note_off_c, 0, 71, 57
1, 188040, Note_on_c, 0, 64, 75
1, 188046, Control_c, 0, 64, 65
1, 188057, Note_off_c, 0, 53, 63
1, 188061, Control_c, 0, 64, 23
1, 188067, Note_off_c, 0, 65, 65
1, 188076, Control_c, 0, 64, 0
1, 188089, Note_off_c, 0, 64, 62
1, 188091, Control_c, 0, 64, 45
1, 188106, Control_c, 0, 64, 65
1, 188121, Note_on_c, 0, 72, 105
1, 188121, Control_c, 0, 64, 69
1, 188131, Note_on_c, 0, 67, 86
1, 188135, Note_on_c, 0, 47, 71
1, 188136, Control_c, 0, 64, 73
1, 188141, Note_off_c, 0, 55, 60
1, 188142, Note_on_c, 0, 52, 64
1, 188147, Note_on_c, 0, 53, 63
1, 188151, Control_c, 0, 64, 75
1, 188172, Control_c, 0, 64, 77
1, 188187, Control_c, 0, 64, 78
1, 188188, Note_off_c, 0, 53, 0
1, 188199, Note_on_c, 0, 65, 86
1, 188202, Control_c, 0, 64, 79
1, 188217, Note_off_c, 0, 47, 57
1, 188225, Poly_aftertouch_c, 0, 53, 127
1, 188226, Note_off_c, 0, 67, 61
1, 188236, Note_off_c, 0, 72, 50
1, 188237, Note_off_c, 0, 52, 63
1, 188262, Control_c, 0, 64, 78
1, 188263, Note_on_c, 0, 64, 69
1, 188267, Poly_aftertouch_c, 0, 53, 0
1, 188272, Note_off_c, 0, 65, 64
1, 188277, Control_c, 0, 64, 76
1, 188290, Note_on_c, 0, 55, 55
1, 188292, Control_c, 0, 64, 69
1, 188307, Control_c, 0, 64, 18
1, 188310, Note_off_c, 0, 64, 56
1, 188311, Note_off_c, 0, 55, 62
1, 188322, Control_c, 0, 64, 0
1, 188334, Note_on_c, 0, 73, 98
1, 188338, Note_on_c, 0, 45, 90
1, 188381, Control_c, 0, 64, 58
1, 188395, Control_c, 0, 64, 67
1, 188410, Control_c, 0, 64, 73
1, 188420, Note_on_c, 0, 52, 81
1, 188422, Note_on_c, 0, 67, 79
1, 188425, Control_c, 0, 64, 78
1, 188431, Note_off_c, 0, 45, 62
1, 188440, Control_c, 0, 64, 81
1, 188455, Note_off_c, 0, 73, 62
1, 188455, Control_c, 0, 64, 83
1, 188479, Note_off_c, 0, 67, 62
1, 188485, Note_off_c, 0, 52, 65
1, 188488, Note_on_c, 0, 64, 71
1, 188497, Note_on_c, 0, 55, 64
1, 188500, Control_c, 0, 64, 80
1, 188514, Control_c, 0, 64, 73
1, 188520, Note_off_c, 0, 64, 61
1, 188529, Control_c, 0, 64, 54
1, 188544, Control_c, 0, 64, 0
1, 188562, Note_off_c, 0, 55, 62
1, 188565, Note_on_c, 0, 67, 69
1, 188568, Note_on_c, 0, 52, 65
1, 188611, Note_off_c, 0, 67, 65
1, 188619, Note_on_c, 0, 65, 78
1, 188624, Note_on_c, 0, 53, 71
1, 188645, Note_off_c, 0, 52, 63
1, 188679, Note_off_c, 0, 65, 65
1, 188684, Note_off_c, 0, 53, 64
1, 188689, Note_on_c, 0, 64, 72
1, 188694, Note_on_c, 0, 55, 67
1, 188715, Note_off_c, 0, 64, 67
1, 188747, Note_on_c, 0, 74, 91
1, 188757, Note_off_c, 0, 55, 38
1, 188759, Note_on_c, 0, 50, 79
1, 188766, Control_c, 0, 64, 56
1, 188780, Control_c, 0, 64, 72
1, 188795, Control_c, 0, 64, 81
1, 188810, Control_c, 0, 64, 86
1, 188821, Note_on_c, 0, 65, 75
1, 188825, Control_c, 0, 64, 90
1, 188839, Note_on_c, 0, 53, 70
1, 188840, Control_c, 0, 64, 93
1, 188842, Note_off_c, 0, 74, 63
1, 188847, Note_off_c, 0, 50, 57
1, 188854, Control_c, 0, 64, 95
1, 188869, Control_c, 0, 64, 95
1, 188884, Note_off_c, 0, 65, 66
1, 188899, Control_c, 0, 64, 94
1, 188905, Note_on_c, 0, 62, 54
1, 188920, Note_off_c, 0, 53, 64
1, 188921, Control_c, 0, 64, 90
1, 188926, Note_on_c, 0, 57, 60
1, 188936, Note_off_c, 0, 62, 56
1, 188936, Control_c, 0, 64, 80
1, 188951, Control_c, 0, 64, 68
1, 188965, Note_off_c, 0, 57, 59
1, 188966, Control_c, 0, 64, 0
1, 188973, Note_on_c, 0, 65, 81
1, 189009, Note_on_c, 0, 55, 62
1, 189019, Note_on_c, 0, 53, 5
1, 189036, Note_off_c, 0, 65, 62
1, 189051, Note_on_c, 0, 64, 66
1, 189075, Note_off_c, 0, 53, 32
1, 189082, Note_off_c, 0, 55, 64
1, 189095, Note_on_c, 0, 57, 67
1, 189098, Note_off_c, 0, 64, 64
1, 189106, Note_on_c, 0, 62, 72
1, 189131, Note_off_c, 0, 62, 65
1, 189135, Note_off_c, 0, 57, 60
1, 189169, Note_on_c, 0, 74, 92
1, 189174, Note_on_c, 0, 45, 75
1, 189204, Control_c, 0, 64, 39
1, 189218, Control_c, 0, 64, 71
1, 189233, Control_c, 0, 64, 77
1, 189247, Note_off_c, 0, 74, 64
1, 189248, Note_on_c, 0, 67, 77
1, 189248, Control_c, 0, 64, 80
1, 189250, Note_off_c, 0, 45, 64
1, 189251, Note_on_c, 0, 52, 75
1, 189263, Control_c, 0, 64, 81
1, 189278, Control_c, 0, 64, 82
1, 189284, Note_off_c, 0, 67, 63
1, 189311, Note_off_c, 0, 52, 65
1, 189322, Note_on_c, 0, 64, 69
1, 189322, Control_c, 0, 64, 81
1, 189325, Note_on_c, 0, 55, 67
1, 189337, Control_c, 0, 64, 77
1, 189352, Control_c, 0, 64, 69
1, 189355, Note_off_c, 0, 64, 61
1, 189367, Control_c, 0, 64, 36
1, 189382, Control_c, 0, 64, 0
1, 189384, Note_off_c, 0, 55, 57
1, 189392, Note_on_c, 0, 67, 74
1, 189396, Note_on_c, 0, 52, 60
1, 189439, Note_off_c, 0, 67, 63
1, 189447, Note_off_c, 0, 52, 62
1, 189451, Note_on_c, 0, 53, 64
1, 189461, Note_on_c, 0, 65, 71
1, 189505, Note_off_c, 0, 53, 65
1, 189510, Note_off_c, 0, 65, 60
1, 189520, Note_on_c, 0, 55, 60
1, 189525, Note_on_c, 0, 64, 63
1, 189553, Note_off_c, 0, 64, 66
1, 189559, Note_off_c, 0, 55, 62
1, 189577, Note_on_c, 0, 73, 85
1, 189586, Note_on_c, 0, 45, 71
1, 189603, Control_c, 0, 64, 65
1, 189618, Control_c, 0, 64, 73
1, 189633, Control_c, 0, 64, 78
1, 189648, Control_c, 0, 64, 81
1, 189652, Note_on_c, 0, 67, 73
1, 189662, Note_off_c, 0, 45, 61
1, 189662, Note_on_c, 0, 52, 70
1, 189671, Control_c, 0, 64, 82
1, 189686, Control_c, 0, 64, 83
1, 189691, Note_off_c, 0, 73, 59
1, 189701, Control_c, 0, 64, 83
1, 189714, Note_off_c, 0, 67, 60
1, 189726, Note_off_c, 0, 52, 66
1, 189731, Control_c, 0, 64, 82
1, 189734, Note_on_c, 0, 64, 71
1, 189737, Note_on_c, 0, 55, 69
1, 189745, Control_c, 0, 64, 79
1, 189760, Control_c, 0, 64, 72
1, 189761, Note_off_c, 0, 64, 62
1, 189775, Control_c, 0, 64, 61
1, 189790, Control_c, 0, 64, 0
1, 189796, Note_off_c, 0, 55, 59
1, 189808, Note_on_c, 0, 67, 65
1, 189810, Note_on_c, 0, 52, 55
1, 189854, Note_on_c, 0, 53, 66
1, 189855, Note_off_c, 0, 67, 63
1, 189868, Note_off_c, 0, 52, 61
1, 189871, Note_on_c, 0, 65, 65
1, 189906, Note_off_c, 0, 65, 64
1, 189909, Note_off_c, 0, 53, 65
1, 189926, Note_on_c, 0, 55, 59
1, 189940, Note_on_c, 0, 64, 43
1, 189963, Note_off_c, 0, 64, 50
1, 189982, Note_off_c, 0, 55, 52
1, 189990, Note_on_c, 0, 65, 75
1, 189991, Note_on_c, 0, 53, 70
1, 189992, Note_on_c, 0, 74, 78
1, 189996, Note_on_c, 0, 50, 63
1, 190013, Control_c, 0, 64, 64
1, 190014, Note_off_c, 0, 74, 69
1, 190016, Note_off_c, 0, 53, 69
1, 190016, Note_off_c, 0, 65, 70
1, 190023, Note_off_c, 0, 50, 64
1, 190028, Control_c, 0, 64, 74
1, 190042, Control_c, 0, 64, 83
1, 190057, Control_c, 0, 64, 91
1, 190072, Control_c, 0, 64, 99
1, 190087, Control_c, 0, 64, 111
1, 190102, Control_c, 0, 64, 118
1, 190131, Control_c, 0, 64, 117
1, 190146, Control_c, 0, 64, 110
1, 190160, Control_c, 0, 64, 98
1, 190175, Control_c, 0, 64, 81
1, 190190, Control_c, 0, 64, 64
1, 190195, Note_on_c, 0, 67, 66
1, 190199, Note_on_c, 0, 76, 75
1, 190205, Control_c, 0, 64, 0
1, 190229, Note_off_c, 0, 67, 58
1, 190230, Note_off_c, 0, 76, 63
1, 190245, Note_on_c, 0, 77, 82
1, 190257, Note_on_c, 0, 65, 74
1, 190306, Note_on_c, 0, 79, 83
1, 190306, Note_off_c, 0, 77, 63
1, 190312, Note_off_c, 0, 65, 64
1, 190333, Note_off_c, 0, 79, 64
1, 190342, Note_on_c, 0, 64, 58
1, 190372, Note_off_c, 0, 64, 0
1, 190383, Note_on_c, 0, 64, 76
1, 190386, Note_on_c, 0, 79, 93
1, 190454, Note_off_c, 0, 79, 58
1, 190466, Note_off_c, 0, 64, 63
1, 190467, Note_on_c, 0, 77, 80
1, 190481, Note_on_c, 0, 65, 71
1, 190514, Note_on_c, 0, 76, 70
1, 190514, Note_off_c, 0, 77, 61
1, 190530, Note_off_c, 0, 65, 65
1, 190542, Note_on_c, 0, 67, 61
1, 190566, Note_off_c, 0, 76, 56
1, 190580, Note_on_c, 0, 82, 91
1, 190600, Note_on_c, 0, 79, 70
1, 190601, Note_on_c, 0, 62, 78
1, 190605, Note_on_c, 0, 64, 72
1, 190605, Note_off_c, 0, 67, 60
1, 190628, Control_c, 0, 64, 64
1, 190643, Control_c, 0, 64, 70
1, 190658, Control_c, 0, 64, 75
1, 190661, Note_off_c, 0, 62, 61
1, 190670, Note_on_c, 0, 77, 76
1, 190673, Control_c, 0, 64, 79
1, 190679, Note_off_c, 0, 79, 62
1, 190680, Note_off_c, 0, 64, 62
1, 190685, Note_on_c, 0, 65, 70
1, 190688, Note_off_c, 0, 82, 62
1, 190688, Control_c, 0, 64, 82
1, 190702, Control_c, 0, 64, 83
1, 190711, Note_off_c, 0, 65, 69
1, 190717, Note_on_c, 0, 67, 72
1, 190720, Note_on_c, 0, 76, 75
1, 190723, Note_off_c, 0, 77, 63
1, 190747, Control_c, 0, 64, 79
1, 190749, Note_off_c, 0, 76, 60
1, 190762, Control_c, 0, 64, 67
1, 190777, Control_c, 0, 64, 0
1, 190784, Note_on_c, 0, 61, 80
1, 190789, Note_on_c, 0, 81, 98
1, 190790, Note_on_c, 0, 64, 81
1, 190792, Note_off_c, 0, 67, 57
1, 190793, Note_on_c, 0, 79, 86
1, 190850, Control_c, 0, 64, 54
1, 190864, Note_on_c, 0, 77, 83
1, 190865, Control_c, 0, 64, 67
1, 190869, Note_on_c, 0, 65, 75
1, 190879, Note_off_c, 0, 79, 57
1, 190879, Note_off_c, 0, 81, 59
1, 190880, Control_c, 0, 64, 73
1, 190894, Note_off_c, 0, 64, 64
1, 190895, Note_off_c, 0, 61, 63
1, 190895, Control_c, 0, 64, 79
1, 190910, Control_c, 0, 64, 83
1, 190915, Note_on_c, 0, 67, 70
1, 190917, Note_on_c, 0, 76, 80
1, 190924, Control_c, 0, 64, 84
1, 190926, Note_off_c, 0, 65, 64
1, 190930, Note_off_c, 0, 77, 63
1, 190939, Control_c, 0, 64, 83
1, 190949, Note_off_c, 0, 67, 60
1, 190954, Control_c, 0, 64, 78
1, 190956, Note_off_c, 0, 76, 66
1, 190969, Control_c, 0, 64, 64
1, 190983, Control_c, 0, 64, 0
1, 190992, Note_on_c, 0, 82, 92
1, 190995, Note_on_c, 0, 60, 82
1, 190996, Note_on_c, 0, 64, 87
1, 191002, Note_on_c, 0, 79, 80
1, 191018, Note_on_c, 0, 80, 58
1, 191028, Control_c, 0, 64, 24
1, 191038, Note_on_c, 0, 81, 71
1, 191043, Control_c, 0, 64, 67
1, 191050, Note_off_c, 0, 80, 48
1, 191057, Control_c, 0, 64, 74
1, 191067, Note_on_c, 0, 77, 85
1, 191072, Control_c, 0, 64, 80
1, 191075, Note_on_c, 0, 65, 78
1, 191075, Note_off_c, 0, 82, 50
1, 191085, Note_off_c, 0, 64, 61
1, 191085, Note_off_c, 0, 81, 58
1, 191087, Control_c, 0, 64, 84
1, 191092, Note_off_c, 0, 79, 62
1, 191096, Note_off_c, 0, 60, 59
1, 191102, Control_c, 0, 64, 85
1, 191125, Note_on_c, 0, 67, 77
1, 191129, Note_off_c, 0, 65, 66
1, 191132, Note_off_c, 0, 77, 63
1, 191132, Control_c, 0, 64, 83
1, 191132, Note_on_c, 0, 76, 68
1, 191147, Control_c, 0, 64, 75
1, 191168, Control_c, 0, 64, 55
1, 191171, Note_off_c, 0, 76, 64
1, 191173, Note_off_c, 0, 67, 55
1, 191182, Control_c, 0, 64, 0
1, 191198, Note_on_c, 0, 83, 104
1, 191207, Note_on_c, 0, 79, 91
1, 191208, Note_on_c, 0, 59, 82
1, 191210, Note_on_c, 0, 64, 85
1, 191227, Control_c, 0, 64, 64
1, 191242, Control_c, 0, 64, 69
1, 191257, Control_c, 0, 64, 73
1, 191272, Control_c, 0, 64, 73
1, 191278, Note_on_c, 0, 77, 88
1, 191286, Note_on_c, 0, 65, 78
1, 191287, Control_c, 0, 64, 71
1, 191293, Note_off_c, 0, 64, 63
1, 191298, Note_off_c, 0, 79, 60
1, 191302, Control_c, 0, 64, 62
1, 191310, Note_off_c, 0, 83, 57
1, 191316, Control_c, 0, 64, 0
1, 191328, Note_on_c, 0, 67, 72
1, 191336, Note_on_c, 0, 76, 73
1, 191341, Note_off_c, 0, 65, 65
1, 191343, Note_off_c, 0, 59, 54
1, 191346, Note_off_c, 0, 77, 63
1, 191346, Control_c, 0, 64, 34
1, 191361, Control_c, 0, 64, 66
1, 191371, Note_off_c, 0, 76, 65
1, 191376, Control_c, 0, 64, 71
1, 191390, Control_c, 0, 64, 74
1, 191402, Note_on_c, 0, 84, 107
1, 191405, Control_c, 0, 64, 76
1, 191414, Note_on_c, 0, 58, 87
1, 191415, Note_on_c, 0, 79, 90
1, 191418, Note_on_c, 0, 64, 77
1, 191420, Control_c, 0, 64, 78
1, 191427, Note_off_c, 0, 67, 61
1, 191436, Control_c, 0, 64, 79
1, 191474, Note_off_c, 0, 58, 54
1, 191483, Note_on_c, 0, 77, 87
1, 191489, Note_off_c, 0, 84, 61
1, 191493, Note_on_c, 0, 65, 31
1, 191510, Control_c, 0, 64, 76
1, 191513, Note_off_c, 0, 79, 61
1, 191525, Note_off_c, 0, 64, 64
1, 191525, Control_c, 0, 64, 68
1, 191540, Control_c, 0, 64, 0
1, 191545, Note_on_c, 0, 76, 77
1, 191550, Note_off_c, 0, 77, 62
1, 191564, Note_off_c, 0, 65, 65
1, 191571, Note_on_c, 0, 67, 57
1, 191579, Poly_aftertouch_c, 0, 59, 0
1, 191591, Note_off_c, 0, 76, 63
1, 191601, Note_off_c, 0, 67, 57
1, 191606, Note_on_c, 0, 85, 99
1, 191613, Note_on_c, 0, 57, 95
1, 191629, Control_c, 0, 64, 68
1, 191644, Control_c, 0, 64, 79
1, 191659, Control_c, 0, 64, 89
1, 191674, Control_c, 0, 64, 95
1, 191688, Control_c, 0, 64, 97
1, 191691, Note_on_c, 0, 64, 69
1, 191693, Note_on_c, 0, 79, 81
1, 191703, Control_c, 0, 64, 97
1, 191715, Note_off_c, 0, 57, 63
1, 191731, Note_off_c, 0, 85, 62
1, 191758, Note_on_c, 0, 76, 84
1, 191759, Note_off_c, 0, 79, 63
1, 191762, Note_off_c, 0, 64, 66
1, 191773, Note_on_c, 0, 67, 72
1, 191777, Control_c, 0, 64, 95
1, 191792, Control_c, 0, 64, 86
1, 191797, Note_off_c, 0, 76, 66
1, 191806, Control_c, 0, 64, 68
1, 191821, Control_c, 0, 64, 0
1, 191831, Note_on_c, 0, 64, 71
1, 191839, Note_on_c, 0, 79, 90
1, 191839, Note_off_c, 0, 67, 57
1, 191889, Note_on_c, 0, 65, 72
1, 191893, Note_on_c, 0, 77, 85
1, 191904, Note_off_c, 0, 79, 61
1, 191910, Note_off_c, 0, 64, 63
1, 191946, Note_off_c, 0, 65, 64
1, 191957, Note_on_c, 0, 67, 74
1, 191962, Note_off_c, 0, 77, 62
1, 191974, Note_on_c, 0, 76, 81
1, 191980, Note_off_c, 0, 67, 69
1, 192001, Note_off_c, 0, 76, 65
1, 192038, Note_on_c, 0, 86, 101
1, 192038, Note_on_c, 0, 50, 87
1, 192051, Control_c, 0, 64, 58
1, 192066, Control_c, 0, 64, 72
1, 192079, Note_off_c, 0, 50, 64
1, 192080, Control_c, 0, 64, 80
1, 192095, Control_c, 0, 64, 88
1, 192110, Control_c, 0, 64, 92
1, 192115, Note_on_c, 0, 77, 74
1, 192122, Note_on_c, 0, 62, 69
1, 192125, Control_c, 0, 64, 97
1, 192127, Note_off_c, 0, 86, 61
1, 192139, Control_c, 0, 64, 100
1, 192154, Control_c, 0, 64, 101
1, 192172, Note_off_c, 0, 77, 61
1, 192175, Note_on_c, 0, 74, 79
1, 192189, Note_off_c, 0, 62, 36
1, 192196, Note_on_c, 0, 65, 76
1, 192229, Control_c, 0, 64, 100
1, 192244, Control_c, 0, 64, 96
1, 192251, Note_on_c, 0, 77, 84
1, 192251, Note_off_c, 0, 74, 37
1, 192252, Note_off_c, 0, 65, 64
1, 192259, Control_c, 0, 64, 90
1, 192265, Note_on_c, 0, 62, 71
1, 192274, Control_c, 0, 64, 79
1, 192289, Control_c, 0, 64, 69
1, 192303, Control_c, 0, 64, 0
1, 192316, Note_off_c, 0, 77, 62
1, 192321, Note_on_c, 0, 76, 79
1, 192336, Note_on_c, 0, 64, 70
1, 192350, Note_off_c, 0, 62, 58
1, 192383, Note_on_c, 0, 74, 80
1, 192383, Note_off_c, 0, 76, 67
1, 192394, Note_off_c, 0, 64, 63
1, 192395, Note_on_c, 0, 65, 64
1, 192425, Note_off_c, 0, 74, 66
1, 192460, Note_on_c, 0, 86, 99
1, 192461, Note_on_c, 0, 57, 91
1, 192473, Note_off_c, 0, 65, 35
1, 192497, Control_c, 0, 64, 70
1, 192511, Control_c, 0, 64, 81
1, 192526, Control_c, 0, 64, 90
1, 192541, Control_c, 0, 64, 94
1, 192543, Note_on_c, 0, 79, 89
1, 192548, Note_on_c, 0, 64, 88
1, 192551, Note_off_c, 0, 86, 60
1, 192555, Control_c, 0, 64, 95
1, 192570, Control_c, 0, 64, 95
1, 192577, Note_off_c, 0, 57, 58
1, 192614, Note_on_c, 0, 76, 84
1, 192619, Note_off_c, 0, 79, 60
1, 192623, Note_off_c, 0, 64, 64
1, 192629, Control_c, 0, 64, 95
1, 192631, Note_on_c, 0, 67, 80
1, 192644, Control_c, 0, 64, 93
1, 192667, Control_c, 0, 64, 89
1, 192673, Note_off_c, 0, 76, 66
1, 192682, Control_c, 0, 64, 82
1, 192697, Control_c, 0, 64, 73
1, 192707, Note_on_c, 0, 79, 88
1, 192709, Note_off_c, 0, 67, 58
1, 192711, Control_c, 0, 64, 62
1, 192714, Note_on_c, 0, 64, 81
1, 192726, Control_c, 0, 64, 0
1, 192771, Note_off_c, 0, 79, 60
1, 192776, Note_on_c, 0, 77, 85
1, 192792, Note_on_c, 0, 65, 80
1, 192793, Note_off_c, 0, 64, 62
1, 192854, Note_off_c, 0, 65, 65
1, 192859, Note_on_c, 0, 76, 79
1, 192862, Note_on_c, 0, 67, 75
1, 192864, Note_off_c, 0, 77, 62
1, 192908, Note_off_c, 0, 76, 63
1, 192925, Note_on_c, 0, 85, 92
1, 192926, Note_on_c, 0, 57, 86
1, 192939, Note_off_c, 0, 67, 38
1, 192962, Control_c, 0, 64, 70
1, 192977, Control_c, 0, 64, 79
1, 192992, Control_c, 0, 64, 88
1, 193007, Control_c, 0, 64, 96
1, 193015, Note_on_c, 0, 79, 89
1, 193017, Note_on_c, 0, 64, 85
1, 193022, Control_c, 0, 64, 102
1, 193038, Control_c, 0, 64, 106
1, 193042, Note_off_c, 0, 85, 63
1, 193052, Note_off_c, 0, 57, 60
1, 193052, Control_c, 0, 64, 107
1, 193107, Note_off_c, 0, 79, 57
1, 193108, Note_on_c, 0, 76, 83
1, 193109, Note_off_c, 0, 64, 62
1, 193110, Note_on_c, 0, 67, 85
1, 193171, Control_c, 0, 64, 107
1, 193186, Control_c, 0, 64, 106
1, 193188, Note_on_c, 0, 79, 93
1, 193199, Note_on_c, 0, 64, 78
1, 193200, Control_c, 0, 64, 105
1, 193210, Note_off_c, 0, 76, 56
1, 193214, Note_off_c, 0, 67, 44
1, 193215, Control_c, 0, 64, 105
1, 193230, Control_c, 0, 64, 104
1, 193245, Control_c, 0, 64, 103
1, 193260, Control_c, 0, 64, 102
1, 193271, Note_on_c, 0, 77, 86
1, 193275, Note_on_c, 0, 65, 77
1, 193275, Note_off_c, 0, 79, 63
1, 193275, Control_c, 0, 64, 100
1, 193290, Control_c, 0, 64, 97
1, 193291, Note_off_c, 0, 64, 59
1, 193305, Control_c, 0, 64, 95
1, 193320, Control_c, 0, 64, 93
1, 193334, Control_c, 0, 64, 90
1, 193349, Control_c, 0, 64, 87
1, 193358, Note_off_c, 0, 77, 57
1, 193361, Note_on_c, 0, 76, 89
1, 193364, Control_c, 0, 64, 83
1, 193367, Note_on_c, 0, 67, 78
1, 193367, Note_off_c, 0, 65, 66
1, 193378, Control_c, 0, 64, 76
1, 193393, Control_c, 0, 64, 66
1, 193416, Control_c, 0, 64, 0
1, 193424, Note_off_c, 0, 67, 62
1, 193430, Note_off_c, 0, 76, 67
1, 193468, Note_on_c, 0, 86, 104
1, 193476, Note_on_c, 0, 62, 86
1, 193478, Note_on_c, 0, 65, 88
1, 193575, Note_on_c, 0, 81, 94
1, 193593, Note_off_c, 0, 86, 60
1, 193624, Control_c, 0, 64, 61
1, 193639, Control_c, 0, 64, 70
1, 193653, Note_off_c, 0, 81, 63
1, 193653, Control_c, 0, 64, 79
1, 193661, Note_on_c, 0, 77, 88
1, 193668, Control_c, 0, 64, 89
1, 193683, Control_c, 0, 64, 100
1, 193698, Control_c, 0, 64, 111
1, 193712, Control_c, 0, 64, 125
1, 193723, Note_off_c, 0, 77, 55
1, 193727, Note_on_c, 0, 74, 86
1, 193727, Control_c, 0, 64, 127
1, 193744, Note_off_c, 0, 65, 62
1, 193761, Note_off_c, 0, 62, 61
1, 193773, Note_off_c, 0, 74, 66
1, 193809, Note_on_c, 0, 69, 96
1, 193867, Note_off_c, 0, 69, 58
1, 193882, Note_on_c, 0, 65, 92
1, 193950, Note_off_c, 0, 65, 51
1, 193957, Note_on_c, 0, 62, 94
1, 194009, Control_c, 0, 64, 122
1, 194024, Control_c, 0, 64, 113
1, 194026, Note_off_c, 0, 62, 62
1, 194039, Control_c, 0, 64, 103
1, 194054, Control_c, 0, 64, 91
1, 194056, Note_on_c, 0, 57, 91
1, 194069, Control_c, 0, 64, 77
1, 194083, Control_c, 0, 64, 60
1, 194098, Control_c, 0, 64, 0
1, 195329, Control_c, 0, 67, 15
1, 195344, Control_c, 0, 67, 23
1, 195358, Control_c, 0, 67, 30
1, 195373, Control_c, 0, 67, 37
1, 195388, Control_c, 0, 67, 42
1, 195403, Control_c, 0, 67, 46
1, 195418, Control_c, 0, 67, 51
1, 195433, Control_c, 0, 67, 57
1, 195448, Control_c, 0, 67, 61
1, 195463, Control_c, 0, 67, 64
1, 195478, Control_c, 0, 67, 66
1, 195493, Control_c, 0, 67, 68
1, 195508, Control_c, 0, 67, 68
1, 195522, Control_c, 0, 67, 69
1, 195534, Note_on_c, 0, 56, 54
1, 195537, Control_c, 0, 67, 70
1, 195552, Control_c, 0, 67, 71
1, 195566, Control_c, 0, 67, 73
1, 195615, Note_off_c, 0, 57, 52
1, 195766, Control_c, 0, 67, 72
1, 195825, Control_c, 0, 67, 72
1, 195840, Control_c, 0, 67, 71
1, 195854, Control_c, 0, 67, 71
1, 195869, Control_c, 0, 67, 70
1, 195928, Control_c, 0, 67, 70
1, 195943, Control_c, 0, 67, 69
1, 196014, Note_on_c, 0, 59, 62
1, 196017, Control_c, 0, 67, 69
1, 196029, Note_off_c, 0, 56, 62
1, 196136, Control_c, 0, 67, 68
1, 196220, Note_on_c, 0, 60, 67
1, 196226, Control_c, 0, 67, 68
1, 196247, Note_off_c, 0, 59, 62
1, 196256, Control_c, 0, 67, 67
1, 196344, Control_c, 0, 67, 67
1, 196374, Control_c, 0, 67, 66
1, 196411, Control_c, 0, 67, 66
1, 196494, Note_on_c, 0, 62, 62
1, 196529, Control_c, 0, 67, 65
1, 196547, Note_off_c, 0, 60, 59
1, 196692, Control_c, 0, 67, 66
1, 196810, Control_c, 0, 67, 66
1, 196953, Note_on_c, 0, 60, 55
1, 196965, Note_off_c, 0, 62, 54
1, 197034, Control_c, 0, 67, 66
1, 197179, Note_on_c, 0, 59, 55
1, 197191, Note_off_c, 0, 60, 56
1, 197457, Note_on_c, 0, 60, 50
1, 197475, Note_off_c, 0, 59, 61
1, 197485, Control_c, 0, 67, 66
1, 197633, Control_c, 0, 67, 67
1, 197767, Control_c, 0, 67, 66
1, 197857, Control_c, 0, 67, 66
1, 197949, Note_on_c, 0, 57, 48
1, 197967, Control_c, 0, 67, 65
1, 197982, Control_c, 0, 67, 65
1, 197988, Note_off_c, 0, 60, 54
1, 198101, Control_c, 0, 67, 64
1, 198160, Control_c, 0, 67, 64
1, 198234, Control_c, 0, 67, 63
1, 198278, Control_c, 0, 67, 62
1, 198307, Control_c, 0, 67, 62
1, 198322, Control_c, 0, 67, 61
1, 198337, Control_c, 0, 67, 59
1, 198352, Control_c, 0, 67, 59
1, 198366, Control_c, 0, 67, 58
1, 198381, Control_c, 0, 67, 57
1, 198411, Control_c, 0, 67, 57
1, 198441, Control_c, 0, 67, 56
1, 198456, Control_c, 0, 67, 56
1, 198489, Note_on_c, 0, 62, 72
1, 198494, Note_on_c, 0, 58, 39
1, 198515, Control_c, 0, 67, 55
1, 198550, Note_off_c, 0, 57, 50
1, 198701, Control_c, 0, 67, 56
1, 198987, Note_on_c, 0, 56, 40
1, 199010, Note_off_c, 0, 58, 52
1, 199278, Control_c, 0, 67, 55
1, 199457, Note_on_c, 0, 61, 54
1, 199485, Note_on_c, 0, 57, 17
1, 199524, Note_off_c, 0, 62, 55
1, 199544, Note_off_c, 0, 56, 40
1, 199702, Control_c, 0, 64, 34
1, 199702, Control_c, 0, 67, 55
1, 199717, Control_c, 0, 64, 59
1, 199732, Control_c, 0, 64, 64
1, 199746, Control_c, 0, 64, 66
1, 199761, Control_c, 0, 64, 67
1, 199776, Control_c, 0, 64, 68
1, 199791, Control_c, 0, 64, 70
1, 199791, Control_c, 0, 67, 54
1, 199806, Control_c, 0, 64, 72
1, 199821, Control_c, 0, 64, 73
1, 199836, Control_c, 0, 64, 73
1, 199851, Control_c, 0, 64, 74
1, 199866, Control_c, 0, 64, 74
1, 199881, Control_c, 0, 64, 75
1, 199895, Control_c, 0, 64, 75
1, 199923, Note_on_c, 0, 64, 60
1, 199955, Note_off_c, 0, 61, 60
1, 199959, Note_on_c, 0, 55, 37
1, 199984, Control_c, 0, 67, 55
1, 200058, Control_c, 0, 67, 55
1, 200129, Note_on_c, 0, 65, 72
1, 200154, Control_c, 0, 64, 75
1, 200185, Note_off_c, 0, 64, 56
1, 200259, Control_c, 0, 64, 74
1, 200318, Control_c, 0, 64, 74
1, 200333, Control_c, 0, 64, 73
1, 200348, Control_c, 0, 64, 72
1, 200355, Note_off_c, 0, 57, 12
1, 200362, Control_c, 0, 64, 71
1, 200377, Control_c, 0, 64, 68
1, 200378, Note_on_c, 0, 67, 65
1, 200392, Control_c, 0, 64, 65
1, 200406, Note_on_c, 0, 52, 41
1, 200407, Control_c, 0, 64, 61
1, 200418, Note_off_c, 0, 65, 56
1, 200422, Control_c, 0, 64, 39
1, 200437, Control_c, 0, 64, 0
1, 200546, Note_off_c, 0, 55, 36
1, 200718, Control_c, 0, 67, 56
1, 200826, Note_on_c, 0, 49, 43
1, 200881, Control_c, 0, 67, 56
1, 200892, Note_off_c, 0, 52, 37
1, 200906, Note_on_c, 0, 64, 38
1, 200947, Note_off_c, 0, 64, 50
1, 200983, Note_on_c, 0, 65, 68
1, 200992, Control_c, 0, 67, 57
1, 201124, Note_off_c, 0, 67, 36
1, 201186, Note_off_c, 0, 65, 62
1, 201190, Note_on_c, 0, 64, 64
1, 201230, Control_c, 0, 67, 57
1, 201257, Note_on_c, 0, 50, 31
1, 201295, Note_off_c, 0, 49, 36
1, 201347, Note_off_c, 0, 64, 61
1, 201348, Control_c, 0, 67, 57
1, 201350, Note_on_c, 0, 65, 62
1, 201725, Control_c, 0, 67, 56
1, 201750, Note_on_c, 0, 62, 50
1, 201875, Control_c, 0, 67, 57
1, 201904, Control_c, 0, 67, 57
1, 201919, Control_c, 0, 67, 58
1, 201934, Control_c, 0, 67, 58
1, 201948, Control_c, 0, 67, 59
1, 201963, Control_c, 0, 67, 59
1, 201978, Control_c, 0, 67, 60
1, 201993, Control_c, 0, 67, 60
1, 202008, Control_c, 0, 67, 61
1, 202022, Control_c, 0, 67, 61
1, 202096, Control_c, 0, 67, 62
1, 202113, Note_off_c, 0, 62, 0
1, 202139, Note_on_c, 0, 67, 66
1, 202143, Note_off_c, 0, 65, 50
1, 202161, Note_on_c, 0, 63, 54
1, 202170, Control_c, 0, 67, 62
1, 202185, Poly_aftertouch_c, 0, 62, 0
1, 202215, Control_c, 0, 67, 63
1, 202230, Control_c, 0, 67, 63
1, 202265, Note_off_c, 0, 50, 51
1, 202319, Control_c, 0, 67, 64
1, 202378, Control_c, 0, 67, 64
1, 202519, Control_c, 0, 67, 64
1, 202594, Note_off_c, 0, 63, 57
1, 202597, Note_on_c, 0, 51, 35
1, 202605, Note_on_c, 0, 61, 47
1, 202653, Control_c, 0, 67, 63
1, 202697, Control_c, 0, 64, 46
1, 202712, Control_c, 0, 64, 62
1, 202727, Control_c, 0, 64, 65
1, 202742, Control_c, 0, 64, 68
1, 202757, Control_c, 0, 64, 70
1, 202771, Control_c, 0, 64, 72
1, 202786, Control_c, 0, 64, 74
1, 202801, Control_c, 0, 64, 75
1, 202816, Control_c, 0, 64, 76
1, 202889, Control_c, 0, 67, 63
1, 202919, Control_c, 0, 67, 62
1, 202963, Control_c, 0, 67, 62
1, 203008, Control_c, 0, 64, 75
1, 203023, Control_c, 0, 64, 74
1, 203023, Control_c, 0, 67, 61
1, 203037, Control_c, 0, 64, 73
1, 203043, Note_off_c, 0, 61, 59
1, 203052, Note_on_c, 0, 66, 62
1, 203052, Control_c, 0, 64, 70
1, 203064, Note_off_c, 0, 67, 35
1, 203067, Control_c, 0, 64, 67
1, 203076, Note_on_c, 0, 62, 42
1, 203082, Note_on_c, 0, 50, 40
1, 203082, Control_c, 0, 64, 65
1, 203097, Control_c, 0, 64, 62
1, 203134, Control_c, 0, 64, 63
1, 203134, Control_c, 0, 67, 61
1, 203150, Control_c, 0, 64, 64
1, 203150, Control_c, 0, 67, 60
1, 203164, Control_c, 0, 64, 65
1, 203169, Note_off_c, 0, 51, 27
1, 203179, Control_c, 0, 64, 66
1, 203194, Control_c, 0, 64, 69
1, 203194, Control_c, 0, 67, 60
1, 203209, Control_c, 0, 64, 71
1, 203224, Control_c, 0, 64, 73
1, 203224, Control_c, 0, 67, 59
1, 203238, Control_c, 0, 64, 74
1, 203253, Control_c, 0, 64, 75
1, 203253, Control_c, 0, 67, 59
1, 203268, Control_c, 0, 64, 75
1, 203268, Control_c, 0, 67, 59
1, 203283, Control_c, 0, 64, 76
1, 203297, Control_c, 0, 67, 59
1, 203432, Control_c, 0, 64, 75
1, 203447, Control_c, 0, 64, 74
1, 203461, Control_c, 0, 64, 72
1, 203476, Control_c, 0, 64, 69
1, 203476, Control_c, 0, 67, 58
1, 203487, Note_on_c, 0, 69, 69
1, 203490, Note_on_c, 0, 63, 49
1, 203491, Control_c, 0, 64, 67
1, 203506, Control_c, 0, 64, 66
1, 203506, Control_c, 0, 67, 58
1, 203517, Note_on_c, 0, 55, 43
1, 203520, Control_c, 0, 64, 66
1, 203535, Control_c, 0, 64, 66
1, 203535, Control_c, 0, 67, 57
1, 203550, Control_c, 0, 64, 67
1, 203550, Control_c, 0, 67, 56
1, 203565, Control_c, 0, 64, 68
1, 203565, Control_c, 0, 67, 56
1, 203580, Control_c, 0, 64, 71
1, 203580, Control_c, 0, 67, 55
1, 203595, Control_c, 0, 64, 72
1, 203610, Control_c, 0, 64, 73
1, 203610, Control_c, 0, 67, 56
1, 203625, Control_c, 0, 64, 74
1, 203654, Control_c, 0, 67, 56
1, 203669, Control_c, 0, 67, 57
1, 203690, Note_on_c, 0, 70, 82
1, 203712, Note_off_c, 0, 66, 37
1, 203713, Control_c, 0, 67, 57
1, 203723, Note_off_c, 0, 69, 57
1, 203754, Note_off_c, 0, 63, 57
1, 203792, Note_off_c, 0, 70, 62
1, 203861, Control_c, 0, 67, 57
1, 203876, Control_c, 0, 64, 73
1, 203899, Control_c, 0, 64, 72
1, 203913, Control_c, 0, 64, 71
1, 203913, Control_c, 0, 67, 56
1, 203928, Control_c, 0, 64, 68
1, 203934, Note_off_c, 0, 62, 34
1, 203943, Control_c, 0, 64, 65
1, 203944, Note_on_c, 0, 72, 76
1, 203958, Control_c, 0, 64, 51
1, 203973, Control_c, 0, 64, 0
1, 203973, Control_c, 0, 67, 56
1, 203973, Note_off_c, 0, 55, 56
1, 203974, Note_on_c, 0, 54, 50
1, 203982, Note_off_c, 0, 50, 47
1, 204091, Control_c, 0, 64, 48
1, 204105, Control_c, 0, 64, 64
1, 204105, Control_c, 0, 67, 56
1, 204120, Control_c, 0, 64, 68
1, 204120, Control_c, 0, 67, 57
1, 204135, Control_c, 0, 64, 71
1, 204150, Control_c, 0, 64, 73
1, 204165, Control_c, 0, 64, 75
1, 204180, Control_c, 0, 64, 76
1, 204180, Control_c, 0, 67, 57
1, 204188, Note_off_c, 0, 72, 62
1, 204194, Control_c, 0, 64, 77
1, 204210, Control_c, 0, 64, 77
1, 204255, Control_c, 0, 67, 58
1, 204343, Control_c, 0, 67, 57
1, 204358, Control_c, 0, 64, 76
1, 204364, Note_on_c, 0, 70, 74
1, 204373, Control_c, 0, 64, 75
1, 204388, Control_c, 0, 64, 73
1, 204391, Note_on_c, 0, 62, 54
1, 204397, Note_on_c, 0, 66, 48
1, 204403, Control_c, 0, 64, 68
1, 204418, Control_c, 0, 64, 62
1, 204432, Control_c, 0, 64, 0
1, 204492, Control_c, 0, 64, 36
1, 204492, Control_c, 0, 67, 57
1, 204507, Control_c, 0, 64, 55
1, 204522, Control_c, 0, 64, 60
1, 204536, Control_c, 0, 64, 62
1, 204551, Control_c, 0, 64, 62
1, 204561, Note_on_c, 0, 69, 75
1, 204579, Note_off_c, 0, 66, 65
1, 204581, Control_c, 0, 64, 62
1, 204590, Note_off_c, 0, 70, 60
1, 204596, Control_c, 0, 64, 61
1, 204610, Control_c, 0, 64, 60
1, 204625, Control_c, 0, 64, 60
1, 204647, Control_c, 0, 64, 61
1, 204647, Control_c, 0, 67, 57
1, 204661, Note_off_c, 0, 54, 48
1, 204662, Control_c, 0, 64, 62
1, 204677, Control_c, 0, 67, 58
1, 204722, Control_c, 0, 64, 61
1, 204736, Control_c, 0, 64, 59
1, 204751, Control_c, 0, 64, 53
1, 204765, Note_off_c, 0, 62, 54
1, 204766, Control_c, 0, 64, 21
1, 204781, Control_c, 0, 64, 0
1, 204808, Note_on_c, 0, 70, 73
1, 204817, Note_off_c, 0, 69, 61
1, 204823, Note_on_c, 0, 67, 66
1, 204914, Control_c, 0, 64, 63
1, 204914, Control_c, 0, 67, 58
1, 204929, Control_c, 0, 64, 67
1, 204929, Control_c, 0, 67, 59
1, 204943, Control_c, 0, 64, 70
1, 204943, Control_c, 0, 67, 59
1, 204958, Control_c, 0, 64, 72
1, 204958, Control_c, 0, 67, 60
1, 204973, Control_c, 0, 64, 74
1, 204988, Control_c, 0, 64, 76
1, 204988, Control_c, 0, 67, 60
1, 205004, Control_c, 0, 64, 78
1, 205004, Control_c, 0, 67, 61
1, 205006, Note_off_c, 0, 67, 62
1, 205019, Control_c, 0, 64, 79
1, 205019, Control_c, 0, 67, 61
1, 205063, Control_c, 0, 67, 62
1, 205093, Control_c, 0, 67, 62
1, 205211, Control_c, 0, 67, 63
1, 205264, Note_on_c, 0, 67, 76
1, 205285, Control_c, 0, 67, 63
1, 205288, Note_off_c, 0, 70, 45
1, 205293, Note_on_c, 0, 58, 55
1, 205294, Note_on_c, 0, 62, 56
1, 205330, Control_c, 0, 67, 64
1, 205440, Control_c, 0, 67, 64
1, 205453, Note_off_c, 0, 58, 60
1, 205470, Control_c, 0, 67, 65
1, 205529, Control_c, 0, 67, 65
1, 205559, Control_c, 0, 67, 66
1, 205573, Note_off_c, 0, 62, 0
1, 205610, Poly_aftertouch_c, 0, 62, 127
1, 205633, Control_c, 0, 67, 65
1, 205648, Control_c, 0, 67, 65
1, 205663, Control_c, 0, 64, 78
1, 205678, Control_c, 0, 67, 64
1, 205692, Control_c, 0, 64, 78
1, 205716, Note_off_c, 0, 67, 35
1, 205722, Control_c, 0, 67, 64
1, 205737, Control_c, 0, 64, 77
1, 205752, Control_c, 0, 64, 77
1, 205766, Control_c, 0, 64, 76
1, 205781, Control_c, 0, 64, 74
1, 205783, Note_on_c, 0, 68, 62
1, 205796, Control_c, 0, 64, 71
1, 205800, Note_on_c, 0, 50, 48
1, 205805, Note_on_c, 0, 59, 50
1, 205806, Note_on_c, 0, 38, 42
1, 205812, Control_c, 0, 64, 67
1, 205815, Note_on_c, 0, 65, 50
1, 205827, Control_c, 0, 64, 62
1, 205842, Control_c, 0, 64, 38
1, 205856, Control_c, 0, 64, 0
1, 205871, Control_c, 0, 64, 10
1, 205886, Control_c, 0, 64, 48
1, 205900, Control_c, 0, 64, 59
1, 205915, Control_c, 0, 64, 63
1, 205930, Control_c, 0, 64, 64
1, 205945, Control_c, 0, 64, 66
1, 205945, Control_c, 0, 67, 64
1, 205951, Poly_aftertouch_c, 0, 62, 0
1, 205960, Control_c, 0, 64, 69
1, 205975, Control_c, 0, 64, 73
1, 205975, Control_c, 0, 67, 65
1, 205989, Control_c, 0, 64, 78
1, 205996, Note_off_c, 0, 65, 65
1, 206004, Control_c, 0, 64, 81
1, 206019, Control_c, 0, 64, 83
1, 206034, Control_c, 0, 64, 85
1, 206049, Control_c, 0, 64, 86
1, 206063, Control_c, 0, 64, 87
1, 206064, Note_off_c, 0, 59, 54
1, 206072, Note_off_c, 0, 38, 54
1, 206093, Control_c, 0, 64, 88
1, 206204, Control_c, 0, 67, 65
1, 206219, Control_c, 0, 67, 66
1, 206278, Note_on_c, 0, 65, 61
1, 206290, Note_on_c, 0, 59, 49
1, 206292, Note_off_c, 0, 50, 36
1, 206303, Note_on_c, 0, 53, 47
1, 206315, Note_off_c, 0, 68, 40
1, 206367, Control_c, 0, 64, 87
1, 206397, Control_c, 0, 67, 65
1, 206412, Control_c, 0, 67, 65
1, 206420, Note_off_c, 0, 53, 64
1, 206471, Control_c, 0, 64, 87
1, 206471, Note_off_c, 0, 59, 41
1, 206515, Control_c, 0, 64, 86
1, 206589, Control_c, 0, 64, 86
1, 206650, Control_c, 0, 64, 85
1, 206694, Control_c, 0, 64, 85
1, 206709, Control_c, 0, 64, 84
1, 206738, Control_c, 0, 64, 84
1, 206753, Control_c, 0, 64, 83
1, 206768, Control_c, 0, 64, 82
1, 206780, Note_off_c, 0, 65, 38
1, 206783, Control_c, 0, 64, 81
1, 206797, Control_c, 0, 64, 79
1, 206812, Control_c, 0, 64, 78
1, 206812, Control_c, 0, 67, 64
1, 206827, Control_c, 0, 64, 76
1, 206831, Note_on_c, 0, 64, 57
1, 206842, Control_c, 0, 64, 75
1, 206853, Note_on_c, 0, 48, 46
1, 206857, Control_c, 0, 64, 73
1, 206861, Note_on_c, 0, 60, 41
1, 206872, Control_c, 0, 64, 71
1, 206873, Note_on_c, 0, 36, 37
1, 206894, Control_c, 0, 64, 67
1, 206909, Control_c, 0, 64, 62
1, 206924, Control_c, 0, 64, 40
1, 206924, Control_c, 0, 67, 64
1, 206938, Control_c, 0, 64, 0
1, 207056, Control_c, 0, 67, 63
1, 207071, Control_c, 0, 64, 40
1, 207086, Control_c, 0, 64, 63
1, 207101, Control_c, 0, 64, 68
1, 207101, Control_c, 0, 67, 63
1, 207116, Control_c, 0, 64, 72
1, 207130, Control_c, 0, 64, 74
1, 207145, Control_c, 0, 64, 76
1, 207145, Control_c, 0, 67, 62
1, 207160, Control_c, 0, 64, 78
1, 207175, Control_c, 0, 64, 79
1, 207190, Control_c, 0, 64, 79
1, 207205, Control_c, 0, 64, 80
1, 207205, Control_c, 0, 67, 63
1, 207220, Control_c, 0, 64, 80
1, 207235, Control_c, 0, 64, 81
1, 207235, Control_c, 0, 67, 63
1, 207294, Control_c, 0, 67, 64
1, 207327, Note_on_c, 0, 67, 57
1, 207334, Note_on_c, 0, 40, 70
1, 207349, Note_on_c, 0, 55, 60
1, 207360, Note_off_c, 0, 64, 61
1, 207369, Note_off_c, 0, 60, 57
1, 207398, Control_c, 0, 67, 64
1, 207398, Note_off_c, 0, 67, 59
1, 207555, Note_on_c, 0, 57, 76
1, 207564, Note_on_c, 0, 41, 72
1, 207580, Note_off_c, 0, 40, 63
1, 207587, Note_off_c, 0, 55, 61
1, 207589, Note_off_c, 0, 36, 38
1, 207591, Control_c, 0, 64, 80
1, 207673, Control_c, 0, 64, 80
1, 207717, Control_c, 0, 64, 79
1, 207761, Control_c, 0, 64, 79
1, 207806, Control_c, 0, 64, 78
1, 207835, Control_c, 0, 64, 77
1, 207850, Control_c, 0, 64, 77
1, 207865, Control_c, 0, 64, 76
1, 207878, Note_on_c, 0, 60, 69
1, 207880, Control_c, 0, 64, 74
1, 207886, Note_on_c, 0, 58, 64
1, 207894, Control_c, 0, 64, 72
1, 207902, Note_on_c, 0, 43, 58
1, 207909, Control_c, 0, 64, 70
1, 207924, Note_off_c, 0, 41, 64
1, 207924, Control_c, 0, 64, 66
1, 207939, Control_c, 0, 64, 62
1, 207944, Note_off_c, 0, 57, 57
1, 207953, Control_c, 0, 64, 52
1, 207968, Control_c, 0, 64, 27
1, 207983, Control_c, 0, 64, 0
1, 208072, Control_c, 0, 67, 65
1, 208296, Control_c, 0, 67, 64
1, 208386, Note_on_c, 0, 57, 54
1, 208391, Note_off_c, 0, 43, 58
1, 208395, Note_off_c, 0, 58, 54
1, 208409, Note_on_c, 0, 41, 46
1, 208600, Note_off_c, 0, 57, 57
1, 208614, Control_c, 0, 67, 65
1, 208615, Note_on_c, 0, 55, 50
1, 208618, Note_off_c, 0, 41, 54
1, 208628, Note_on_c, 0, 40, 49
1, 208643, Control_c, 0, 67, 65
1, 208658, Control_c, 0, 67, 66
1, 208673, Control_c, 0, 67, 66
1, 208702, Control_c, 0, 67, 67
1, 208747, Control_c, 0, 67, 66
1, 208820, Note_off_c, 0, 55, 37
1, 208890, Note_on_c, 0, 57, 39
1, 208900, Note_off_c, 0, 40, 41
1, 208905, Note_on_c, 0, 41, 43
1, 208925, Control_c, 0, 67, 66
1, 208940, Control_c, 0, 67, 65
1, 208969, Control_c, 0, 64, 43
1, 208984, Control_c, 0, 64, 64
1, 208984, Control_c, 0, 67, 64
1, 208999, Control_c, 0, 64, 68
1, 209014, Control_c, 0, 64, 71
1, 209029, Control_c, 0, 64, 74
1, 209044, Control_c, 0, 64, 76
1, 209059, Control_c, 0, 64, 77
1, 209074, Control_c, 0, 64, 78
1, 209085, Note_off_c, 0, 57, 57
1, 209089, Control_c, 0, 64, 79
1, 209100, Note_off_c, 0, 60, 55
1, 209214, Control_c, 0, 64, 79
1, 209259, Control_c, 0, 64, 78
1, 209318, Control_c, 0, 64, 78
1, 209332, Control_c, 0, 64, 77
1, 209347, Control_c, 0, 64, 76
1, 209362, Control_c, 0, 64, 75
1, 209377, Control_c, 0, 64, 73
1, 209377, Control_c, 0, 67, 64
1, 209392, Control_c, 0, 64, 71
1, 209403, Note_on_c, 0, 65, 61
1, 209406, Control_c, 0, 64, 68
1, 209411, Note_on_c, 0, 60, 49
1, 209417, Note_on_c, 0, 45, 40
1, 209421, Control_c, 0, 64, 65
1, 209436, Control_c, 0, 64, 61
1, 209441, Note_off_c, 0, 41, 42
1, 209450, Control_c, 0, 64, 53
1, 209465, Control_c, 0, 64, 49
1, 209480, Control_c, 0, 64, 50
1, 209480, Control_c, 0, 67, 63
1, 209495, Control_c, 0, 64, 51
1, 209510, Control_c, 0, 64, 52
1, 209524, Control_c, 0, 64, 54
1, 209539, Control_c, 0, 64, 58
1, 209539, Control_c, 0, 67, 62
1, 209554, Control_c, 0, 64, 63
1, 209569, Control_c, 0, 64, 65
1, 209584, Control_c, 0, 64, 67
1, 209598, Control_c, 0, 64, 70
1, 209613, Control_c, 0, 64, 71
1, 209628, Control_c, 0, 64, 72
1, 209643, Control_c, 0, 64, 73
1, 209852, Control_c, 0, 64, 72
1, 209867, Control_c, 0, 64, 72
1, 209867, Control_c, 0, 67, 62
1, 209887, Note_on_c, 0, 64, 72
1, 209888, Note_on_c, 0, 58, 63
1, 209888, Control_c, 0, 64, 70
1, 209903, Control_c, 0, 64, 67
1, 209906, Note_off_c, 0, 65, 58
1, 209907, Note_on_c, 0, 43, 59
1, 209918, Control_c, 0, 64, 63
1, 209918, Control_c, 0, 67, 61
1, 209920, Note_off_c, 0, 60, 52
1, 209933, Control_c, 0, 64, 55
1, 209948, Control_c, 0, 64, 45
1, 209962, Control_c, 0, 64, 43
1, 209971, Note_off_c, 0, 45, 50
1, 209977, Control_c, 0, 64, 47
1, 209977, Control_c, 0, 67, 61
1, 209992, Control_c, 0, 64, 52
1, 210007, Control_c, 0, 64, 57
1, 210022, Control_c, 0, 64, 62
1, 210037, Control_c, 0, 64, 65
1, 210037, Control_c, 0, 67, 60
1, 210051, Control_c, 0, 64, 67
1, 210066, Control_c, 0, 64, 69
1, 210081, Control_c, 0, 64, 71
1, 210096, Control_c, 0, 64, 72
1, 210126, Control_c, 0, 64, 72
1, 210141, Control_c, 0, 67, 61
1, 210155, Control_c, 0, 67, 61
1, 210200, Control_c, 0, 67, 62
1, 210215, Control_c, 0, 67, 62
1, 210229, Control_c, 0, 67, 63
1, 210244, Control_c, 0, 67, 63
1, 210303, Control_c, 0, 64, 72
1, 210333, Control_c, 0, 64, 71
1, 210347, Control_c, 0, 64, 70
1, 210362, Control_c, 0, 64, 68
1, 210377, Control_c, 0, 64, 65
1, 210377, Control_c, 0, 67, 63
1, 210378, Note_on_c, 0, 67, 82
1, 210385, Note_on_c, 0, 41, 63
1, 210392, Control_c, 0, 64, 62
1, 210393, Note_off_c, 0, 58, 64
1, 210399, Note_on_c, 0, 57, 59
1, 210402, Note_off_c, 0, 43, 57
1, 210406, Control_c, 0, 64, 51
1, 210406, Control_c, 0, 67, 62
1, 210407, Note_off_c, 0, 64, 64
1, 210421, Control_c, 0, 64, 21
1, 210428, Note_on_c, 0, 55, 13
1, 210436, Control_c, 0, 64, 0
1, 210436, Control_c, 0, 67, 62
1, 210466, Control_c, 0, 64, 33
1, 210476, Note_off_c, 0, 55, 28
1, 210481, Control_c, 0, 64, 47
1, 210496, Control_c, 0, 64, 57
1, 210511, Control_c, 0, 64, 62
1, 210525, Control_c, 0, 64, 64
1, 210540, Control_c, 0, 64, 65
1, 210555, Control_c, 0, 64, 66
1, 210570, Control_c, 0, 64, 66
1, 210600, Control_c, 0, 64, 67
1, 210604, Note_off_c, 0, 57, 57
1, 210615, Control_c, 0, 67, 62
1, 210638, Control_c, 0, 67, 63
1, 210652, Control_c, 0, 67, 63
1, 210698, Note_off_c, 0, 67, 47
1, 210785, Control_c, 0, 64, 66
1, 210800, Control_c, 0, 64, 66
1, 210815, Control_c, 0, 64, 65
1, 210830, Control_c, 0, 64, 63
1, 210845, Control_c, 0, 64, 57
1, 210859, Control_c, 0, 64, 39
1, 210871, Note_off_c, 0, 41, 62
1, 210874, Control_c, 0, 64, 0
1, 210880, Note_on_c, 0, 40, 53
1, 210881, Note_on_c, 0, 67, 63
1, 210934, Control_c, 0, 67, 63
1, 210950, Poly_aftertouch_c, 0, 55, 127
1, 210993, Control_c, 0, 67, 62
1, 211038, Control_c, 0, 64, 42
1, 211052, Poly_aftertouch_c, 0, 55, 0
1, 211052, Control_c, 0, 64, 59
1, 211067, Control_c, 0, 64, 63
1, 211082, Control_c, 0, 64, 65
1, 211096, Control_c, 0, 64, 66
1, 211111, Control_c, 0, 64, 68
1, 211126, Control_c, 0, 64, 71
1, 211141, Control_c, 0, 64, 73
1, 211156, Control_c, 0, 64, 74
1, 211156, Control_c, 0, 67, 63
1, 211170, Control_c, 0, 64, 75
1, 211170, Control_c, 0, 67, 63
1, 211185, Control_c, 0, 64, 76
1, 211200, Control_c, 0, 64, 76
1, 211215, Control_c, 0, 64, 77
1, 211229, Control_c, 0, 64, 77
1, 211259, Control_c, 0, 64, 78
1, 211274, Control_c, 0, 64, 78
1, 211274, Control_c, 0, 67, 64
1, 211279, Note_off_c, 0, 67, 50
1, 211289, Control_c, 0, 64, 79
1, 211317, Note_on_c, 0, 55, 68
1, 211333, Control_c, 0, 67, 64
1, 211385, Control_c, 0, 67, 65
1, 211416, Control_c, 0, 67, 65
1, 211431, Control_c, 0, 67, 66
1, 211461, Control_c, 0, 67, 66
1, 211490, Control_c, 0, 67, 67
1, 211530, Note_on_c, 0, 57, 76
1, 211549, Control_c, 0, 64, 79
1, 211575, Poly_aftertouch_c, 0, 41, 127
1, 211579, Control_c, 0, 64, 78
1, 211579, Control_c, 0, 67, 68
1, 211594, Control_c, 0, 67, 68
1, 211614, Note_off_c, 0, 55, 46
1, 211623, Control_c, 0, 64, 78
1, 211638, Control_c, 0, 64, 77
1, 211638, Control_c, 0, 67, 69
1, 211667, Control_c, 0, 64, 76
1, 211682, Control_c, 0, 64, 76
1, 211697, Control_c, 0, 64, 75
1, 211712, Control_c, 0, 64, 74
1, 211727, Control_c, 0, 64, 73
1, 211742, Control_c, 0, 64, 71
1, 211757, Control_c, 0, 64, 69
1, 211757, Control_c, 0, 67, 68
1, 211770, Poly_aftertouch_c, 0, 41, 0
1, 211771, Control_c, 0, 64, 65
1, 211773, Note_off_c, 0, 40, 33
1, 211786, Control_c, 0, 64, 61
1, 211786, Control_c, 0, 67, 68
1, 211800, Note_on_c, 0, 55, 46
1, 211801, Control_c, 0, 64, 49
1, 211801, Note_on_c, 0, 61, 72
1, 211812, Note_on_c, 0, 58, 65
1, 211816, Control_c, 0, 64, 32
1, 211829, Note_on_c, 0, 39, 43
1, 211831, Control_c, 0, 64, 0
1, 211831, Control_c, 0, 67, 67
1, 211845, Control_c, 0, 67, 67
1, 211852, Note_off_c, 0, 57, 55
1, 211905, Control_c, 0, 67, 66
1, 212053, Note_off_c, 0, 48, 42
1, 212067, Control_c, 0, 67, 67
1, 212112, Control_c, 0, 67, 67
1, 212133, Control_c, 0, 67, 68
1, 212163, Control_c, 0, 67, 68
1, 212209, Control_c, 0, 67, 69
1, 212266, Note_off_c, 0, 55, 55
1, 212285, Note_on_c, 0, 57, 53
1, 212356, Control_c, 0, 67, 68
1, 212415, Control_c, 0, 67, 68
1, 212475, Control_c, 0, 67, 67
1, 212487, Note_off_c, 0, 57, 59
1, 212499, Note_on_c, 0, 55, 51
1, 212537, Note_off_c, 0, 58, 33
1, 212564, Control_c, 0, 67, 67
1, 212672, Note_off_c, 0, 55, 31
1, 212705, Note_off_c, 0, 61, 36
1, 212761, Note_on_c, 0, 62, 48
1, 212771, Note_on_c, 0, 57, 35
1, 212771, Note_off_c, 0, 39, 32
1, 212791, Note_on_c, 0, 38, 36
1, 212800, Control_c, 0, 67, 66
1, 212860, Control_c, 0, 67, 66
1, 212898, Control_c, 0, 67, 65
1, 212913, Control_c, 0, 64, 62
1, 212913, Control_c, 0, 67, 65
1, 212928, Control_c, 0, 64, 69
1, 212943, Control_c, 0, 64, 73
1, 212943, Control_c, 0, 67, 64
1, 212957, Control_c, 0, 64, 76
1, 212957, Control_c, 0, 67, 64
1, 212972, Control_c, 0, 64, 79
1, 212979, Note_off_c, 0, 57, 54
1, 212982, Note_off_c, 0, 62, 59
1, 212987, Control_c, 0, 64, 80
1, 213003, Control_c, 0, 64, 81
1, 213003, Control_c, 0, 67, 63
1, 213032, Control_c, 0, 64, 81
1, 213032, Control_c, 0, 67, 63
1, 213056, Note_off_c, 0, 38, 37
1, 213121, Control_c, 0, 67, 62
1, 213210, Control_c, 0, 64, 81
1, 213254, Control_c, 0, 64, 80
1, 213269, Control_c, 0, 64, 79
1, 213284, Control_c, 0, 64, 78
1, 213291, Note_on_c, 0, 67, 62
1, 213298, Control_c, 0, 64, 76
1, 213301, Note_on_c, 0, 46, 45
1, 213302, Note_on_c, 0, 62, 48
1, 213306, Note_on_c, 0, 50, 38
1, 213313, Control_c, 0, 64, 73
1, 213328, Control_c, 0, 64, 70
1, 213343, Control_c, 0, 64, 65
1, 213358, Control_c, 0, 64, 55
1, 213372, Control_c, 0, 64, 16
1, 213387, Control_c, 0, 64, 0
1, 213432, Control_c, 0, 67, 62
1, 213447, Control_c, 0, 64, 26
1, 213462, Control_c, 0, 64, 46
1, 213477, Control_c, 0, 64, 59
1, 213491, Control_c, 0, 64, 64
1, 213506, Control_c, 0, 64, 67
1, 213521, Control_c, 0, 64, 70
1, 213536, Control_c, 0, 64, 73
1, 213551, Control_c, 0, 64, 75
1, 213565, Control_c, 0, 64, 76
1, 213565, Control_c, 0, 67, 61
1, 213691, Control_c, 0, 67, 61
1, 213721, Control_c, 0, 64, 75
1, 213736, Control_c, 0, 64, 74
1, 213751, Control_c, 0, 64, 72
1, 213751, Control_c, 0, 67, 60
1, 213760, Note_on_c, 0, 66, 73
1, 213766, Control_c, 0, 64, 70
1, 213773, Note_on_c, 0, 60, 54
1, 213780, Control_c, 0, 64, 66
1, 213782, Note_off_c, 0, 62, 60
1, 213783, Note_off_c, 0, 67, 49
1, 213787, Note_on_c, 0, 45, 55
1, 213795, Control_c, 0, 64, 62
1, 213810, Control_c, 0, 64, 48
1, 213825, Control_c, 0, 64, 27
1, 213840, Control_c, 0, 64, 41
1, 213855, Control_c, 0, 64, 52
1, 213855, Control_c, 0, 67, 60
1, 213861, Note_off_c, 0, 46, 38
1, 213870, Control_c, 0, 64, 58
1, 213885, Control_c, 0, 64, 62
1, 213900, Control_c, 0, 64, 64
1, 213915, Control_c, 0, 64, 66
1, 213929, Control_c, 0, 64, 68
1, 213929, Control_c, 0, 67, 60
1, 213934, Note_off_c, 0, 60, 61
1, 213944, Control_c, 0, 64, 70
1, 213959, Control_c, 0, 64, 71
1, 213974, Control_c, 0, 64, 72
1, 213974, Control_c, 0, 67, 61
1, 213989, Control_c, 0, 64, 72
1, 213989, Control_c, 0, 67, 61
1, 214018, Control_c, 0, 67, 62
1, 214033, Control_c, 0, 67, 62
1, 214047, Control_c, 0, 67, 63
1, 214062, Control_c, 0, 67, 63
1, 214077, Control_c, 0, 67, 64
1, 214092, Control_c, 0, 67, 64
1, 214121, Control_c, 0, 67, 65
1, 214151, Control_c, 0, 64, 72
1, 214166, Control_c, 0, 64, 71
1, 214181, Control_c, 0, 64, 69
1, 214195, Control_c, 0, 64, 66
1, 214207, Note_on_c, 0, 67, 77
1, 214210, Control_c, 0, 64, 63
1, 214212, Note_on_c, 0, 43, 62
1, 214225, Control_c, 0, 64, 56
1, 214225, Control_c, 0, 67, 64
1, 214226, Note_on_c, 0, 58, 59
1, 214228, Note_off_c, 0, 45, 62
1, 214236, Note_off_c, 0, 66, 60
1, 214240, Control_c, 0, 64, 41
1, 214255, Control_c, 0, 64, 29
1, 214269, Control_c, 0, 64, 36
1, 214269, Control_c, 0, 67, 64
1, 214284, Control_c, 0, 64, 45
1, 214299, Control_c, 0, 64, 54
1, 214299, Control_c, 0, 67, 63
1, 214314, Control_c, 0, 64, 60
1, 214329, Control_c, 0, 64, 64
1, 214344, Control_c, 0, 64, 67
1, 214359, Control_c, 0, 64, 71
1, 214381, Control_c, 0, 64, 73
1, 214396, Control_c, 0, 64, 76
1, 214396, Control_c, 0, 67, 64
1, 214410, Control_c, 0, 64, 77
1, 214425, Control_c, 0, 64, 78
1, 214425, Control_c, 0, 67, 64
1, 214440, Control_c, 0, 64, 78
1, 214454, Control_c, 0, 67, 65
1, 214469, Control_c, 0, 67, 65
1, 214484, Control_c, 0, 67, 66
1, 214499, Control_c, 0, 67, 66
1, 214529, Control_c, 0, 67, 67
1, 214561, Note_off_c, 0, 58, 60
1, 214588, Control_c, 0, 64, 78
1, 214618, Control_c, 0, 64, 77
1, 214633, Control_c, 0, 64, 76
1, 214648, Control_c, 0, 64, 76
1, 214663, Control_c, 0, 64, 74
1, 214678, Control_c, 0, 64, 72
1, 214693, Control_c, 0, 64, 69
1, 214708, Note_off_c, 0, 43, 34
1, 214708, Note_off_c, 0, 67, 33
1, 214708, Control_c, 0, 64, 65
1, 214711, Note_on_c, 0, 69, 77
1, 214722, Note_on_c, 0, 42, 52
1, 214723, Control_c, 0, 64, 56
1, 214726, Note_on_c, 0, 57, 74
1, 214737, Control_c, 0, 64, 0
1, 214798, Note_off_c, 0, 50, 39
1, 214826, Control_c, 0, 67, 66
1, 214885, Control_c, 0, 64, 43
1, 214900, Control_c, 0, 64, 63
1, 214915, Control_c, 0, 64, 67
1, 214930, Control_c, 0, 64, 70
1, 214941, Note_off_c, 0, 57, 60
1, 214944, Control_c, 0, 64, 72
1, 214959, Control_c, 0, 64, 74
1, 214974, Control_c, 0, 64, 75
1, 214974, Control_c, 0, 67, 67
1, 214989, Control_c, 0, 64, 76
1, 215018, Control_c, 0, 64, 76
1, 215018, Control_c, 0, 67, 67
1, 215033, Control_c, 0, 67, 68
1, 215048, Control_c, 0, 67, 68
1, 215081, Note_off_c, 0, 69, 40
1, 215092, Control_c, 0, 67, 69
1, 215144, Control_c, 0, 67, 69
1, 215159, Control_c, 0, 67, 70
1, 215161, Note_on_c, 0, 57, 76
1, 215174, Control_c, 0, 67, 71
1, 215189, Control_c, 0, 67, 76
1, 215204, Control_c, 0, 67, 80
1, 215218, Control_c, 0, 67, 82
1, 215233, Control_c, 0, 67, 83
1, 215248, Control_c, 0, 64, 76
1, 215248, Control_c, 0, 67, 84
1, 215263, Control_c, 0, 67, 84
1, 215277, Control_c, 0, 67, 85
1, 215292, Control_c, 0, 64, 75
1, 215292, Control_c, 0, 67, 86
1, 215337, Control_c, 0, 67, 86
1, 215366, Control_c, 0, 64, 75
1, 215378, Note_on_c, 0, 59, 83
1, 215397, Control_c, 0, 64, 74
1, 215397, Control_c, 0, 67, 87
1, 215412, Control_c, 0, 67, 88
1, 215427, Control_c, 0, 64, 74
1, 215427, Control_c, 0, 67, 93
1, 215441, Control_c, 0, 64, 73
1, 215441, Control_c, 0, 67, 98
1, 215456, Control_c, 0, 64, 72
1, 215456, Control_c, 0, 67, 102
1, 215471, Control_c, 0, 64, 72
1, 215471, Control_c, 0, 67, 102
1, 215474, Note_off_c, 0, 57, 39
1, 215486, Control_c, 0, 64, 70
1, 215486, Control_c, 0, 67, 103
1, 215501, Control_c, 0, 64, 69
1, 215515, Control_c, 0, 64, 68
1, 215530, Control_c, 0, 64, 67
1, 215545, Control_c, 0, 64, 66
1, 215560, Control_c, 0, 64, 66
1, 215575, Control_c, 0, 64, 65
1, 215590, Control_c, 0, 64, 64
1, 215590, Control_c, 0, 67, 102
1, 215605, Control_c, 0, 64, 62
1, 215620, Control_c, 0, 64, 58
1, 215628, Note_on_c, 0, 63, 78
1, 215635, Control_c, 0, 64, 52
1, 215635, Control_c, 0, 67, 102
1, 215638, Note_on_c, 0, 57, 59
1, 215639, Note_on_c, 0, 60, 68
1, 215649, Control_c, 0, 64, 42
1, 215652, Note_on_c, 0, 41, 56
1, 215663, Note_off_c, 0, 59, 61
1, 215664, Control_c, 0, 64, 20
1, 215664, Control_c, 0, 67, 101
1, 215679, Control_c, 0, 64, 0
1, 215708, Control_c, 0, 67, 101
1, 215748, Note_off_c, 0, 42, 35
1, 215797, Control_c, 0, 67, 100
1, 215894, Control_c, 0, 67, 101
1, 215939, Control_c, 0, 67, 101
1, 215983, Control_c, 0, 67, 102
1, 216037, Note_off_c, 0, 57, 58
1, 216057, Control_c, 0, 67, 102
1, 216096, Note_on_c, 0, 59, 60
1, 216240, Note_off_c, 0, 60, 34
1, 216293, Note_off_c, 0, 59, 62
1, 216295, Control_c, 0, 67, 102
1, 216307, Note_on_c, 0, 57, 58
1, 216493, Note_off_c, 0, 57, 36
1, 216495, Note_off_c, 0, 63, 52
1, 216535, Note_on_c, 0, 64, 56
1, 216541, Note_on_c, 0, 60, 50
1, 216542, Note_off_c, 0, 41, 55
1, 216547, Control_c, 0, 67, 101
1, 216559, Note_on_c, 0, 40, 47
1, 216606, Control_c, 0, 67, 101
1, 216687, Control_c, 0, 64, 62
1, 216702, Control_c, 0, 64, 69
1, 216716, Control_c, 0, 64, 74
1, 216731, Control_c, 0, 64, 79
1, 216746, Control_c, 0, 64, 82
1, 216747, Note_off_c, 0, 64, 61
1, 216761, Control_c, 0, 64, 85
1, 216766, Note_off_c, 0, 60, 60
1, 216776, Control_c, 0, 64, 88
1, 216790, Control_c, 0, 64, 91
1, 216805, Control_c, 0, 64, 92
1, 216820, Control_c, 0, 64, 93
1, 216820, Control_c, 0, 67, 101
1, 216923, Control_c, 0, 67, 102
1, 216979, Note_on_c, 0, 60, 69
1, 216983, Control_c, 0, 67, 102
1, 217013, Control_c, 0, 67, 103
1, 217072, Control_c, 0, 67, 103
1, 217102, Control_c, 0, 67, 104
1, 217117, Control_c, 0, 67, 104
1, 217132, Control_c, 0, 64, 92
1, 217132, Control_c, 0, 67, 105
1, 217146, Control_c, 0, 67, 106
1, 217161, Control_c, 0, 64, 92
1, 217161, Control_c, 0, 67, 108
1, 217176, Control_c, 0, 64, 91
1, 217176, Control_c, 0, 67, 108
1, 217191, Note_on_c, 0, 62, 76
1, 217191, Control_c, 0, 64, 91
1, 217191, Control_c, 0, 67, 109
1, 217221, Control_c, 0, 64, 90
1, 217221, Control_c, 0, 67, 109
1, 217235, Control_c, 0, 64, 90
1, 217235, Control_c, 0, 67, 110
1, 217250, Control_c, 0, 64, 89
1, 217265, Control_c, 0, 64, 88
1, 217280, Control_c, 0, 64, 87
1, 217295, Control_c, 0, 64, 87
1, 217310, Control_c, 0, 64, 86
1, 217325, Control_c, 0, 64, 85
1, 217339, Control_c, 0, 64, 84
1, 217349, Note_off_c, 0, 60, 26
1, 217354, Control_c, 0, 64, 83
1, 217376, Control_c, 0, 64, 82
1, 217391, Control_c, 0, 64, 80
1, 217406, Control_c, 0, 64, 78
1, 217406, Control_c, 0, 67, 109
1, 217420, Control_c, 0, 64, 76
1, 217420, Control_c, 0, 67, 109
1, 217435, Control_c, 0, 64, 74
1, 217450, Control_c, 0, 64, 71
1, 217465, Control_c, 0, 64, 68
1, 217465, Control_c, 0, 67, 108
1, 217480, Control_c, 0, 64, 64
1, 217489, Note_on_c, 0, 69, 72
1, 217489, Note_off_c, 0, 40, 41
1, 217494, Note_on_c, 0, 65, 68
1, 217495, Control_c, 0, 64, 57
1, 217510, Control_c, 0, 64, 43
1, 217510, Control_c, 0, 67, 108
1, 217512, Note_on_c, 0, 41, 46
1, 217519, Note_on_c, 0, 63, 52
1, 217525, Control_c, 0, 64, 10
1, 217539, Control_c, 0, 64, 0
1, 217554, Control_c, 0, 67, 107
1, 217566, Note_off_c, 0, 62, 53
1, 217584, Control_c, 0, 67, 107
1, 217851, Control_c, 0, 67, 107
1, 217881, Control_c, 0, 67, 108
1, 217978, Note_on_c, 0, 62, 52
1, 218004, Note_off_c, 0, 65, 60
1, 218009, Note_off_c, 0, 63, 61
1, 218058, Control_c, 0, 64, 56
1, 218058, Control_c, 0, 67, 107
1, 218073, Control_c, 0, 64, 66
1, 218088, Control_c, 0, 64, 71
1, 218103, Control_c, 0, 64, 76
1, 218103, Control_c, 0, 67, 106
1, 218125, Control_c, 0, 64, 81
1, 218125, Control_c, 0, 67, 106
1, 218140, Control_c, 0, 64, 84
1, 218155, Control_c, 0, 64, 87
1, 218169, Control_c, 0, 64, 89
1, 218184, Control_c, 0, 64, 90
1, 218187, Note_off_c, 0, 41, 52
1, 218194, Note_off_c, 0, 62, 61
1, 218199, Control_c, 0, 64, 90
1, 218214, Note_on_c, 0, 60, 61
1, 218270, Note_off_c, 0, 60, 50
1, 218332, Control_c, 0, 67, 106
1, 218392, Control_c, 0, 64, 90
1, 218421, Control_c, 0, 64, 89
1, 218451, Note_off_c, 0, 69, 40
1, 218451, Control_c, 0, 64, 89
1, 218451, Control_c, 0, 67, 107
1, 218466, Control_c, 0, 64, 88
1, 218481, Control_c, 0, 64, 87
1, 218495, Control_c, 0, 64, 85
1, 218499, Note_on_c, 0, 70, 64
1, 218510, Control_c, 0, 64, 83
1, 218512, Note_on_c, 0, 53, 47
1, 218518, Note_on_c, 0, 62, 48
1, 218525, Control_c, 0, 64, 80
1, 218526, Note_on_c, 0, 65, 46
1, 218540, Control_c, 0, 64, 77
1, 218555, Control_c, 0, 64, 73
1, 218569, Control_c, 0, 64, 69
1, 218578, Note_off_c, 0, 62, 0
1, 218578, Note_on_c, 0, 62, 8
1, 218585, Control_c, 0, 64, 63
1, 218600, Control_c, 0, 64, 16
1, 218615, Control_c, 0, 64, 0
1, 218674, Control_c, 0, 67, 106
1, 218733, Control_c, 0, 67, 106
1, 218792, Control_c, 0, 67, 106
1, 218807, Control_c, 0, 67, 107
1, 218836, Control_c, 0, 67, 108
1, 218875, Control_c, 0, 67, 108
1, 218890, Control_c, 0, 67, 109
1, 218934, Control_c, 0, 67, 109
1, 218986, Note_on_c, 0, 72, 71
1, 219004, Note_on_c, 0, 57, 47
1, 219043, Note_off_c, 0, 65, 57
1, 219052, Control_c, 0, 64, 21
1, 219065, Note_off_c, 0, 70, 57
1, 219067, Control_c, 0, 64, 58
1, 219082, Control_c, 0, 64, 64
1, 219097, Control_c, 0, 64, 66
1, 219111, Note_off_c, 0, 62, 43
1, 219112, Control_c, 0, 64, 68
1, 219126, Control_c, 0, 64, 70
1, 219141, Control_c, 0, 64, 72
1, 219156, Control_c, 0, 64, 74
1, 219171, Control_c, 0, 64, 76
1, 219185, Control_c, 0, 64, 77
1, 219215, Control_c, 0, 67, 109
1, 219217, Note_on_c, 0, 74, 78
1, 219232, Note_on_c, 0, 58, 49
1, 219237, Note_off_c, 0, 72, 63
1, 219263, Note_off_c, 0, 57, 37
1, 219274, Control_c, 0, 67, 108
1, 219304, Control_c, 0, 67, 108
1, 219334, Control_c, 0, 67, 107
1, 219349, Control_c, 0, 67, 107
1, 219394, Control_c, 0, 64, 76
1, 219423, Control_c, 0, 64, 76
1, 219438, Control_c, 0, 67, 106
1, 219453, Control_c, 0, 64, 75
1, 219468, Control_c, 0, 64, 74
1, 219483, Control_c, 0, 64, 74
1, 219498, Control_c, 0, 64, 72
1, 219506, Note_on_c, 0, 75, 74
1, 219513, Control_c, 0, 64, 70
1, 219516, Note_off_c, 0, 74, 53
1, 219528, Control_c, 0, 64, 67
1, 219531, Note_on_c, 0, 60, 48
1, 219542, Control_c, 0, 64, 64
1, 219542, Control_c, 0, 67, 106
1, 219552, Note_off_c, 0, 58, 52
1, 219557, Control_c, 0, 64, 52
1, 219572, Control_c, 0, 64, 27
1, 219587, Control_c, 0, 64, 0
1, 219757, Control_c, 0, 67, 106
1, 219802, Control_c, 0, 67, 107
1, 219831, Control_c, 0, 64, 10
1, 219846, Control_c, 0, 64, 36
1, 219860, Control_c, 0, 64, 42
1, 219875, Control_c, 0, 64, 42
1, 219905, Control_c, 0, 64, 41
1, 219920, Control_c, 0, 64, 40
1, 219934, Control_c, 0, 64, 38
1, 219949, Control_c, 0, 64, 36
1, 219964, Control_c, 0, 64, 32
1, 219979, Control_c, 0, 64, 29
1, 219990, Note_on_c, 0, 74, 63
1, 219993, Control_c, 0, 64, 28
1, 220002, Note_on_c, 0, 58, 39
1, 220008, Control_c, 0, 67, 106
1, 220022, Note_off_c, 0, 75, 56
1, 220023, Control_c, 0, 64, 27
1, 220038, Control_c, 0, 67, 106
1, 220067, Control_c, 0, 64, 26
1, 220067, Control_c, 0, 67, 105
1, 220082, Control_c, 0, 64, 24
1, 220082, Control_c, 0, 67, 104
1, 220097, Control_c, 0, 64, 23
1, 220112, Control_c, 0, 64, 18
1, 220127, Control_c, 0, 64, 0
1, 220127, Control_c, 0, 67, 104
1, 220142, Control_c, 0, 67, 103
1, 220164, Note_off_c, 0, 60, 22
1, 220202, Note_on_c, 0, 72, 66
1, 220204, Note_off_c, 0, 58, 59
1, 220210, Note_off_c, 0, 74, 57
1, 220214, Note_on_c, 0, 57, 40
1, 220480, Note_on_c, 0, 77, 63
1, 220490, Note_off_c, 0, 72, 63
1, 220508, Note_on_c, 0, 65, 39
1, 220510, Note_on_c, 0, 62, 39
1, 220536, Note_off_c, 0, 57, 58
1, 220682, Control_c, 0, 64, 33
1, 220697, Control_c, 0, 64, 62
1, 220712, Control_c, 0, 64, 67
1, 220727, Control_c, 0, 64, 70
1, 220742, Control_c, 0, 64, 74
1, 220742, Control_c, 0, 67, 104
1, 220756, Control_c, 0, 64, 78
1, 220771, Control_c, 0, 64, 81
1, 220786, Control_c, 0, 64, 83
1, 220786, Control_c, 0, 67, 105
1, 220801, Control_c, 0, 64, 85
1, 220801, Control_c, 0, 67, 105
1, 220816, Control_c, 0, 64, 86
1, 220816, Control_c, 0, 67, 106
1, 220830, Control_c, 0, 64, 88
1, 220830, Control_c, 0, 67, 106
1, 220845, Control_c, 0, 64, 88
1, 220845, Control_c, 0, 67, 107
1, 220860, Control_c, 0, 64, 89
1, 220860, Control_c, 0, 67, 108
1, 220875, Control_c, 0, 67, 108
1, 220914, Note_on_c, 0, 74, 60
1, 220927, Note_on_c, 0, 58, 43
1, 220932, Note_off_c, 0, 77, 52
1, 220934, Note_on_c, 0, 70, 49
1, 220964, Control_c, 0, 67, 109
1, 220972, Note_off_c, 0, 65, 39
1, 220994, Control_c, 0, 67, 110
1, 221003, Note_off_c, 0, 53, 62
1, 221009, Control_c, 0, 67, 110
1, 221024, Control_c, 0, 67, 111
1, 221039, Control_c, 0, 67, 111
1, 221054, Control_c, 0, 67, 114
1, 221069, Control_c, 0, 67, 115
1, 221084, Control_c, 0, 64, 88
1, 221084, Control_c, 0, 67, 117
1, 221099, Control_c, 0, 67, 118
1, 221120, Control_c, 0, 67, 120
1, 221135, Control_c, 0, 67, 122
1, 221150, Control_c, 0, 67, 125
1, 221165, Control_c, 0, 67, 127
1, 221180, Control_c, 0, 67, 127
1, 221194, Control_c, 0, 64, 88
1, 221254, Control_c, 0, 64, 87
1, 221298, Control_c, 0, 64, 87
1, 221328, Control_c, 0, 64, 86
1, 221343, Control_c, 0, 64, 86
1, 221358, Control_c, 0, 64, 85
1, 221373, Control_c, 0, 64, 84
1, 221387, Control_c, 0, 64, 83
1, 221391, Note_off_c, 0, 70, 37
1, 221397, Note_on_c, 0, 75, 61
1, 221402, Control_c, 0, 64, 81
1, 221413, Note_off_c, 0, 74, 39
1, 221417, Control_c, 0, 64, 80
1, 221419, Note_on_c, 0, 69, 51
1, 221424, Note_off_c, 0, 58, 35
1, 221431, Control_c, 0, 64, 77
1, 221435, Note_on_c, 0, 53, 39
1, 221439, Note_on_c, 0, 60, 34
1, 221446, Control_c, 0, 64, 74
1, 221461, Control_c, 0, 64, 70
1, 221476, Control_c, 0, 64, 64
1, 221491, Control_c, 0, 64, 49
1, 221504, Note_off_c, 0, 62, 32
1, 221505, Control_c, 0, 64, 0
1, 221579, Control_c, 0, 64, 44
1, 221594, Control_c, 0, 64, 58
1, 221609, Control_c, 0, 64, 64
1, 221624, Control_c, 0, 64, 66
1, 221638, Control_c, 0, 64, 69
1, 221653, Control_c, 0, 64, 72
1, 221668, Control_c, 0, 64, 75
1, 221683, Control_c, 0, 64, 77
1, 221698, Control_c, 0, 64, 79
1, 221713, Control_c, 0, 64, 80
1, 221728, Control_c, 0, 64, 80
1, 221877, Note_on_c, 0, 73, 68
1, 221906, Note_on_c, 0, 63, 42
1, 221935, Note_off_c, 0, 75, 57
1, 222061, Note_off_c, 0, 63, 51
1, 222165, Control_c, 0, 64, 80
1, 222168, Note_off_c, 0, 53, 38
1, 222224, Control_c, 0, 64, 79
1, 222268, Control_c, 0, 64, 79
1, 222298, Control_c, 0, 64, 78
1, 222313, Control_c, 0, 64, 78
1, 222327, Control_c, 0, 64, 77
1, 222342, Control_c, 0, 64, 76
1, 222357, Control_c, 0, 64, 74
1, 222372, Control_c, 0, 64, 72
1, 222377, Note_on_c, 0, 74, 63
1, 222386, Note_on_c, 0, 62, 30
1, 222386, Control_c, 0, 64, 70
1, 222392, Note_on_c, 0, 58, 33
1, 222401, Control_c, 0, 64, 67
1, 222404, Note_off_c, 0, 73, 50
1, 222408, Note_off_c, 0, 69, 34
1, 222416, Control_c, 0, 64, 65
1, 222421, Note_off_c, 0, 60, 26
1, 222431, Control_c, 0, 64, 61
1, 222446, Control_c, 0, 64, 55
1, 222461, Control_c, 0, 64, 39
1, 222476, Control_c, 0, 64, 0
1, 222565, Control_c, 0, 64, 48
1, 222580, Control_c, 0, 64, 62
1, 222603, Control_c, 0, 64, 66
1, 222618, Control_c, 0, 64, 68
1, 222632, Control_c, 0, 64, 71
1, 222647, Control_c, 0, 64, 73
1, 222662, Control_c, 0, 64, 75
1, 222677, Control_c, 0, 64, 77
1, 222691, Control_c, 0, 64, 78
1, 222706, Control_c, 0, 64, 78
1, 222736, Control_c, 0, 64, 79
1, 222854, Note_off_c, 0, 74, 0
1, 222872, Note_on_c, 0, 67, 60
1, 222884, Note_on_c, 0, 57, 42
1, 222891, Poly_aftertouch_c, 0, 74, 127
1, 222946, Note_off_c, 0, 62, 40
1, 222987, Note_off_c, 0, 58, 35
1, 223062, Control_c, 0, 64, 78
1, 223067, Note_off_c, 0, 67, 54
1, 223076, Control_c, 0, 67, 125
1, 223091, Control_c, 0, 67, 124
1, 223104, Note_on_c, 0, 69, 76
1, 223106, Control_c, 0, 67, 123
1, 223136, Control_c, 0, 67, 123
1, 223150, Control_c, 0, 67, 122
1, 223180, Control_c, 0, 67, 122
1, 223299, Control_c, 0, 64, 78
1, 223314, Control_c, 0, 64, 77
1, 223328, Control_c, 0, 64, 77
1, 223343, Control_c, 0, 64, 76
1, 223365, Control_c, 0, 64, 75
1, 223381, Control_c, 0, 64, 74
1, 223387, Note_on_c, 0, 70, 78
1, 223396, Control_c, 0, 64, 74
1, 223407, Note_on_c, 0, 55, 48
1, 223413, Note_on_c, 0, 67, 48
1, 223422, Note_off_c, 0, 69, 64
1, 223500, Control_c, 0, 64, 74
1, 223514, Control_c, 0, 64, 75
1, 223514, Control_c, 0, 67, 122
1, 223529, Control_c, 0, 64, 75
1, 223544, Control_c, 0, 64, 76
1, 223546, Poly_aftertouch_c, 0, 74, 0
1, 223559, Control_c, 0, 67, 123
1, 223561, Note_off_c, 0, 57, 14
1, 223574, Control_c, 0, 67, 123
1, 223580, Note_off_c, 0, 55, 58
1, 223632, Control_c, 0, 67, 124
1, 223781, Control_c, 0, 67, 124
1, 223811, Control_c, 0, 64, 75
1, 223825, Control_c, 0, 64, 75
1, 223840, Control_c, 0, 64, 74
1, 223855, Control_c, 0, 64, 72
1, 223858, Note_off_c, 0, 67, 53
1, 223870, Control_c, 0, 64, 68
1, 223877, Note_on_c, 0, 73, 75
1, 223881, Note_on_c, 0, 69, 64
1, 223885, Control_c, 0, 64, 63
1, 223892, Note_off_c, 0, 70, 62
1, 223896, Note_on_c, 0, 65, 52
1, 223899, Control_c, 0, 64, 44
1, 223912, Note_on_c, 0, 57, 49
1, 223914, Control_c, 0, 64, 10
1, 223929, Control_c, 0, 64, 33
1, 223944, Control_c, 0, 64, 48
1, 223959, Control_c, 0, 64, 57
1, 223973, Control_c, 0, 64, 62
1, 223988, Control_c, 0, 64, 64
1, 224003, Control_c, 0, 64, 67
1, 224018, Control_c, 0, 64, 69
1, 224032, Control_c, 0, 64, 71
1, 224047, Control_c, 0, 64, 72
1, 224062, Control_c, 0, 64, 73
1, 224077, Control_c, 0, 64, 73
1, 224092, Control_c, 0, 64, 74
1, 224110, Note_off_c, 0, 65, 64
1, 224114, Control_c, 0, 64, 74
1, 224122, Note_off_c, 0, 69, 66
1, 224130, Note_on_c, 0, 67, 79
1, 224132, Note_on_c, 0, 64, 66
1, 224144, Control_c, 0, 64, 75
1, 224221, Note_off_c, 0, 64, 51
1, 224367, Control_c, 0, 64, 74
1, 224378, Note_off_c, 0, 73, 62
1, 224382, Control_c, 0, 64, 73
1, 224397, Control_c, 0, 64, 72
1, 224411, Control_c, 0, 64, 69
1, 224416, Note_on_c, 0, 74, 79
1, 224419, Note_off_c, 0, 67, 38
1, 224426, Control_c, 0, 64, 65
1, 224431, Note_on_c, 0, 65, 67
1, 224440, Note_on_c, 0, 58, 54
1, 224441, Control_c, 0, 64, 56
1, 224445, Note_on_c, 0, 62, 55
1, 224449, Note_off_c, 0, 57, 38
1, 224455, Control_c, 0, 64, 0
1, 224560, Control_c, 0, 64, 30
1, 224574, Control_c, 0, 64, 56
1, 224589, Control_c, 0, 64, 64
1, 224604, Control_c, 0, 64, 68
1, 224604, Control_c, 0, 67, 125
1, 224619, Control_c, 0, 64, 71
1, 224619, Control_c, 0, 67, 125
1, 224634, Control_c, 0, 64, 74
1, 224634, Control_c, 0, 67, 126
1, 224648, Control_c, 0, 64, 77
1, 224663, Control_c, 0, 64, 78
1, 224678, Control_c, 0, 64, 79
1, 224767, Control_c, 0, 67, 125
1, 224781, Control_c, 0, 67, 124
1, 224878, Control_c, 0, 67, 125
1, 224952, Control_c, 0, 67, 124
1, 224953, Note_on_c, 0, 70, 82
1, 224971, Note_on_c, 0, 55, 64
1, 224978, Note_off_c, 0, 62, 35
1, 224998, Note_off_c, 0, 74, 58
1, 224999, Note_off_c, 0, 58, 58
1, 225085, Note_off_c, 0, 65, 56
1, 225116, Control_c, 0, 67, 125
1, 225175, Control_c, 0, 67, 125
1, 225204, Control_c, 0, 64, 78
1, 225213, Note_on_c, 0, 53, 76
1, 225233, Note_off_c, 0, 55, 62
1, 225278, Control_c, 0, 67, 126
1, 225308, Control_c, 0, 67, 126
1, 225338, Control_c, 0, 64, 78
1, 225352, Control_c, 0, 67, 127
1, 225382, Control_c, 0, 64, 77
1, 225412, Control_c, 0, 64, 76
1, 225427, Control_c, 0, 64, 76
1, 225442, Control_c, 0, 64, 74
1, 225457, Control_c, 0, 64, 72
1, 225459, Note_off_c, 0, 70, 35
1, 225471, Control_c, 0, 64, 70
1, 225486, Control_c, 0, 64, 66
1, 225501, Control_c, 0, 64, 60
1, 225501, Control_c, 0, 67, 126
1, 225509, Note_on_c, 0, 67, 76
1, 225516, Control_c, 0, 64, 38
1, 225516, Note_on_c, 0, 61, 66
1, 225517, Note_on_c, 0, 52, 66
1, 225531, Control_c, 0, 64, 0
1, 225534, Note_off_c, 0, 53, 62
1, 225560, Control_c, 0, 67, 126
1, 225672, Control_c, 0, 67, 125
1, 225716, Control_c, 0, 64, 59
1, 225731, Control_c, 0, 64, 65
1, 225731, Control_c, 0, 67, 126
1, 225746, Control_c, 0, 64, 68
1, 225761, Control_c, 0, 64, 70
1, 225761, Control_c, 0, 67, 126
1, 225776, Control_c, 0, 64, 72
1, 225776, Control_c, 0, 67, 127
1, 225791, Control_c, 0, 64, 74
1, 225791, Control_c, 0, 67, 127
1, 225806, Control_c, 0, 64, 76
1, 225821, Control_c, 0, 64, 76
1, 225984, Control_c, 0, 64, 75
1, 225999, Control_c, 0, 64, 74
1, 226014, Control_c, 0, 64, 73
1, 226028, Control_c, 0, 64, 71
1, 226043, Control_c, 0, 64, 69
1, 226057, Note_on_c, 0, 70, 73
1, 226058, Control_c, 0, 64, 66
1, 226072, Note_on_c, 0, 53, 58
1, 226073, Control_c, 0, 64, 61
1, 226088, Control_c, 0, 64, 40
1, 226102, Control_c, 0, 64, 0
1, 226121, Note_off_c, 0, 52, 39
1, 226176, Control_c, 0, 64, 47
1, 226191, Control_c, 0, 64, 61
1, 226206, Control_c, 0, 64, 65
1, 226220, Control_c, 0, 64, 68
1, 226235, Control_c, 0, 64, 70
1, 226250, Control_c, 0, 64, 72
1, 226265, Control_c, 0, 64, 74
1, 226280, Control_c, 0, 64, 75
1, 226328, Note_off_c, 0, 53, 65
1, 226351, Note_on_c, 0, 55, 64
1, 226450, Control_c, 0, 64, 74
1, 226469, Note_off_c, 0, 70, 27
1, 226509, Control_c, 0, 64, 74
1, 226539, Control_c, 0, 64, 73
1, 226554, Control_c, 0, 64, 72
1, 226569, Control_c, 0, 64, 71
1, 226585, Control_c, 0, 64, 70
1, 226599, Control_c, 0, 64, 69
1, 226614, Control_c, 0, 64, 66
1, 226622, Note_off_c, 0, 55, 57
1, 226629, Control_c, 0, 64, 62
1, 226644, Control_c, 0, 64, 45
1, 226645, Note_on_c, 0, 53, 50
1, 226648, Note_on_c, 0, 69, 59
1, 226658, Control_c, 0, 64, 0
1, 226659, Note_off_c, 0, 61, 24
1, 226667, Note_off_c, 0, 67, 25
1, 226792, Control_c, 0, 64, 31
1, 226807, Control_c, 0, 64, 58
1, 226822, Control_c, 0, 64, 64
1, 226837, Control_c, 0, 64, 67
1, 226851, Control_c, 0, 64, 70
1, 226866, Control_c, 0, 64, 72
1, 226881, Control_c, 0, 64, 74
1, 226896, Control_c, 0, 64, 76
1, 226911, Control_c, 0, 64, 77
1, 227154, Control_c, 0, 64, 77
1, 227169, Control_c, 0, 64, 76
1, 227198, Control_c, 0, 64, 76
1, 227213, Control_c, 0, 64, 75
1, 227228, Control_c, 0, 64, 74
1, 227243, Control_c, 0, 64, 73
1, 227257, Control_c, 0, 64, 70
1, 227265, Note_on_c, 0, 67, 64
1, 227272, Control_c, 0, 64, 67
1, 227283, Note_on_c, 0, 52, 48
1, 227283, Note_on_c, 0, 58, 52
1, 227287, Control_c, 0, 64, 63
1, 227293, Note_on_c, 0, 43, 43
1, 227296, Note_off_c, 0, 69, 34
1, 227298, Note_off_c, 0, 53, 35
1, 227302, Control_c, 0, 64, 51
1, 227317, Control_c, 0, 64, 0
1, 227511, Control_c, 0, 64, 48
1, 227526, Control_c, 0, 64, 62
1, 227540, Control_c, 0, 64, 66
1, 227555, Control_c, 0, 64, 69
1, 227570, Control_c, 0, 64, 71
1, 227585, Control_c, 0, 64, 74
1, 227599, Control_c, 0, 64, 78
1, 227611, Note_on_c, 0, 53, 75
1, 227614, Control_c, 0, 64, 80
1, 227629, Control_c, 0, 64, 81
1, 227636, Note_off_c, 0, 67, 61
1, 227644, Control_c, 0, 64, 82
1, 227651, Note_off_c, 0, 52, 65
1, 227659, Control_c, 0, 64, 83
1, 227673, Control_c, 0, 64, 83
1, 227683, Note_off_c, 0, 58, 54
1, 227992, Control_c, 0, 64, 83
1, 228006, Control_c, 0, 64, 82
1, 228021, Control_c, 0, 64, 82
1, 228036, Control_c, 0, 64, 81
1, 228051, Control_c, 0, 64, 79
1, 228059, Note_on_c, 0, 61, 71
1, 228066, Control_c, 0, 64, 76
1, 228069, Note_on_c, 0, 57, 59
1, 228071, Note_on_c, 0, 55, 58
1, 228078, Note_on_c, 0, 45, 52
1, 228080, Control_c, 0, 64, 71
1, 228095, Control_c, 0, 64, 64
1, 228110, Control_c, 0, 64, 31
1, 228116, Note_off_c, 0, 53, 37
1, 228125, Control_c, 0, 64, 0
1, 228177, Note_off_c, 0, 43, 27
1, 228779, Note_on_c, 0, 53, 52
1, 228780, Note_off_c, 0, 55, 61
1, 229154, Note_off_c, 0, 53, 57
1, 229165, Note_on_c, 0, 52, 46
1, 229170, Note_off_c, 0, 57, 36
1, 229201, Control_c, 0, 64, 18
1, 229216, Control_c, 0, 64, 45
1, 229231, Control_c, 0, 64, 60
1, 229245, Control_c, 0, 64, 64
1, 229260, Control_c, 0, 64, 67
1, 229275, Control_c, 0, 64, 69
1, 229290, Control_c, 0, 64, 71
1, 229305, Control_c, 0, 64, 73
1, 229319, Control_c, 0, 64, 76
1, 229334, Control_c, 0, 64, 78
1, 229357, Control_c, 0, 64, 80
1, 229372, Control_c, 0, 64, 81
1, 229377, Note_off_c, 0, 61, 48
1, 229386, Control_c, 0, 64, 82
1, 229401, Control_c, 0, 64, 83
1, 229416, Control_c, 0, 64, 83
1, 229471, Note_off_c, 0, 52, 37
1, 229698, Control_c, 0, 64, 83
1, 229742, Control_c, 0, 64, 82
1, 229757, Control_c, 0, 64, 82
1, 229773, Control_c, 0, 64, 81
1, 229788, Control_c, 0, 64, 80
1, 229800, Note_on_c, 0, 62, 42
1, 229802, Control_c, 0, 64, 78
1, 229817, Control_c, 0, 64, 77
1, 229825, Note_on_c, 0, 53, 33
1, 229829, Note_on_c, 0, 57, 33
1, 229832, Control_c, 0, 64, 74
1, 229840, Note_on_c, 0, 38, 29
1, 229847, Control_c, 0, 64, 71
1, 229862, Control_c, 0, 64, 68
1, 229876, Control_c, 0, 64, 64
1, 229891, Control_c, 0, 64, 49
1, 229906, Control_c, 0, 64, 0
1, 229918, Note_off_c, 0, 45, 40
1, 230328, Control_c, 0, 64, 34
1, 230343, Control_c, 0, 64, 48
1, 230357, Control_c, 0, 64, 53
1, 230372, Control_c, 0, 64, 55
1, 230387, Control_c, 0, 64, 56
1, 230402, Control_c, 0, 64, 57
1, 230417, Control_c, 0, 64, 59
1, 230432, Control_c, 0, 64, 60
1, 230447, Control_c, 0, 64, 62
1, 230462, Control_c, 0, 64, 63
1, 230476, Control_c, 0, 64, 64
1, 230491, Control_c, 0, 64, 64
1, 230506, Control_c, 0, 64, 65
1, 230520, Control_c, 0, 64, 66
1, 230535, Control_c, 0, 64, 67
1, 230550, Control_c, 0, 64, 68
1, 230566, Control_c, 0, 64, 69
1, 230581, Control_c, 0, 64, 71
1, 230596, Control_c, 0, 64, 72
1, 230611, Control_c, 0, 64, 73
1, 230625, Control_c, 0, 64, 74
1, 230640, Control_c, 0, 64, 75
1, 230655, Control_c, 0, 64, 77
1, 230670, Control_c, 0, 64, 78
1, 230685, Control_c, 0, 64, 79
1, 230699, Control_c, 0, 64, 80
1, 230714, Control_c, 0, 64, 81
1, 230729, Control_c, 0, 64, 82
1, 230744, Control_c, 0, 64, 83
1, 230759, Control_c, 0, 64, 85
1, 230773, Control_c, 0, 64, 86
1, 230788, Control_c, 0, 64, 87
1, 230803, Control_c, 0, 64, 88
1, 230817, Control_c, 0, 64, 90
1, 230832, Control_c, 0, 64, 91
1, 230855, Control_c, 0, 64, 92
1, 230869, Control_c, 0, 64, 92
1, 230884, Control_c, 0, 64, 93
1, 230980, Note_off_c, 0, 53, 38
1, 231076, Note_off_c, 0, 62, 35
1, 231088, Note_off_c, 0, 57, 28
1, 231224, Control_c, 0, 64, 92
1, 231328, Control_c, 0, 64, 92
1, 231373, Note_off_c, 0, 38, 38
1, 231403, Control_c, 0, 64, 91
1, 231492, Control_c, 0, 64, 91
1, 231551, Control_c, 0, 64, 90
1, 231603, Control_c, 0, 64, 90
1, 231647, Control_c, 0, 64, 89
1, 231692, Control_c, 0, 64, 89
1, 231736, Control_c, 0, 64, 88
1, 231765, Control_c, 0, 64, 88
1, 231795, Control_c, 0, 64, 87
1, 231839, Control_c, 0, 64, 87
1, 231854, Control_c, 0, 64, 86
1, 231884, Control_c, 0, 64, 86
1, 231899, Control_c, 0, 64, 85
1, 231913, Control_c, 0, 64, 85
1, 231928, Control_c, 0, 64, 84
1, 231958, Control_c, 0, 64, 84
1, 231964, Note_on_c, 0, 69, 45
1, 231973, Control_c, 0, 64, 83
1, 231988, Control_c, 0, 64, 83
1, 232003, Control_c, 0, 64, 82
1, 232007, Note_on_c, 0, 38, 28
1, 232018, Control_c, 0, 64, 81
1, 232033, Control_c, 0, 64, 79
1, 232047, Control_c, 0, 64, 77
1, 232062, Control_c, 0, 64, 73
1, 232077, Control_c, 0, 64, 68
1, 232092, Control_c, 0, 64, 62
1, 232107, Control_c, 0, 64, 41
1, 232121, Control_c, 0, 64, 13
1, 232136, Control_c, 0, 64, 23
1, 232151, Control_c, 0, 64, 36
1, 232167, Control_c, 0, 64, 47
1, 232182, Control_c, 0, 64, 56
1, 232196, Control_c, 0, 64, 63
1, 232211, Control_c, 0, 64, 67
1, 232226, Control_c, 0, 64, 71
1, 232241, Control_c, 0, 64, 75
1, 232256, Control_c, 0, 64, 79
1, 232270, Control_c, 0, 64, 82
1, 232285, Control_c, 0, 64, 85
1, 232300, Control_c, 0, 64, 87
1, 232315, Control_c, 0, 64, 90
1, 232330, Control_c, 0, 64, 93
1, 232349, Note_off_c, 0, 38, 40
1, 232352, Control_c, 0, 64, 95
1, 232367, Control_c, 0, 64, 97
1, 232382, Control_c, 0, 64, 99
1, 232396, Control_c, 0, 64, 101
1, 232411, Control_c, 0, 64, 102
1, 232426, Control_c, 0, 64, 103
1, 232441, Control_c, 0, 64, 104
1, 232456, Control_c, 0, 64, 104
1, 232462, Note_on_c, 0, 60, 28
1, 232474, Note_on_c, 0, 62, 25
1, 232651, Note_off_c, 0, 60, 40
1, 232668, Note_off_c, 0, 62, 39
1, 232736, Note_on_c, 0, 54, 32
1, 232796, Control_c, 0, 64, 104
1, 232811, Control_c, 0, 64, 103
1, 232826, Control_c, 0, 64, 103
1, 232856, Control_c, 0, 64, 102
1, 232870, Control_c, 0, 64, 101
1, 232879, Note_off_c, 0, 54, 35
1, 232885, Control_c, 0, 64, 101
1, 232900, Control_c, 0, 64, 100
1, 232915, Control_c, 0, 64, 99
1, 232930, Control_c, 0, 64, 99
1, 232945, Control_c, 0, 64, 98
1, 232960, Control_c, 0, 64, 96
1, 232974, Note_on_c, 0, 62, 29
1, 232975, Control_c, 0, 64, 95
1, 232978, Note_on_c, 0, 60, 19
1, 232990, Control_c, 0, 64, 94
1, 233005, Control_c, 0, 64, 93
1, 233019, Control_c, 0, 64, 92
1, 233049, Control_c, 0, 64, 92
1, 233064, Control_c, 0, 64, 91
1, 233101, Control_c, 0, 64, 91
1, 233116, Control_c, 0, 64, 90
1, 233131, Control_c, 0, 64, 90
1, 233146, Control_c, 0, 64, 89
1, 233161, Control_c, 0, 64, 88
1, 233174, Note_off_c, 0, 60, 31
1, 233175, Control_c, 0, 64, 86
1, 233178, Note_off_c, 0, 69, 38
1, 233190, Note_on_c, 0, 67, 57
1, 233190, Control_c, 0, 64, 83
1, 233205, Control_c, 0, 64, 79
1, 233215, Note_on_c, 0, 38, 35
1, 233219, Control_c, 0, 64, 74
1, 233234, Control_c, 0, 64, 68
1, 233246, Note_off_c, 0, 62, 37
1, 233249, Control_c, 0, 64, 56
1, 233264, Control_c, 0, 64, 0
1, 233338, Control_c, 0, 64, 26
1, 233353, Control_c, 0, 64, 55
1, 233368, Control_c, 0, 64, 64
1, 233383, Control_c, 0, 64, 69
1, 233398, Control_c, 0, 64, 74
1, 233412, Control_c, 0, 64, 79
1, 233427, Control_c, 0, 64, 83
1, 233442, Control_c, 0, 64, 87
1, 233454, Note_off_c, 0, 38, 40
1, 233457, Control_c, 0, 64, 90
1, 233465, Note_on_c, 0, 62, 40
1, 233472, Control_c, 0, 64, 92
1, 233478, Note_on_c, 0, 58, 39
1, 233486, Control_c, 0, 64, 95
1, 233501, Control_c, 0, 64, 98
1, 233516, Control_c, 0, 64, 99
1, 233531, Control_c, 0, 64, 100
1, 233538, Note_off_c, 0, 58, 47
1, 233590, Control_c, 0, 67, 124
1, 233605, Control_c, 0, 67, 115
1, 233619, Control_c, 0, 67, 110
1, 233623, Note_off_c, 0, 62, 35
1, 233634, Control_c, 0, 67, 108
1, 233649, Control_c, 0, 67, 106
1, 233664, Control_c, 0, 67, 103
1, 233666, Note_on_c, 0, 55, 39
1, 233679, Control_c, 0, 67, 100
1, 233693, Control_c, 0, 67, 98
1, 233699, Note_off_c, 0, 55, 63
1, 233708, Control_c, 0, 67, 97
1, 233723, Control_c, 0, 67, 98
1, 233769, Control_c, 0, 67, 98
1, 233783, Control_c, 0, 67, 99
1, 233789, Note_off_c, 0, 67, 25
1, 233798, Control_c, 0, 67, 99
1, 233828, Control_c, 0, 67, 100
1, 233842, Note_on_c, 0, 58, 49
1, 233875, Note_off_c, 0, 58, 64
1, 233878, Control_c, 0, 64, 99
1, 233923, Control_c, 0, 64, 99
1, 233967, Control_c, 0, 67, 100
1, 233982, Control_c, 0, 64, 98
1, 234041, Control_c, 0, 64, 98
1, 234066, Note_on_c, 0, 74, 59
1, 234086, Note_on_c, 0, 38, 37
1, 234086, Control_c, 0, 67, 101
1, 234130, Control_c, 0, 67, 101
1, 234160, Control_c, 0, 67, 102
1, 234189, Control_c, 0, 67, 102
1, 234204, Control_c, 0, 67, 103
1, 234219, Control_c, 0, 67, 104
1, 234233, Control_c, 0, 67, 104
1, 234241, Note_off_c, 0, 38, 41
1, 234248, Control_c, 0, 67, 105
1, 234263, Control_c, 0, 67, 105
1, 234278, Control_c, 0, 67, 106
1, 234293, Control_c, 0, 67, 107
1, 234307, Control_c, 0, 67, 108
1, 234320, Note_on_c, 0, 67, 28
1, 234322, Control_c, 0, 67, 109
1, 234324, Note_on_c, 0, 62, 34
1, 234337, Control_c, 0, 67, 111
1, 234352, Control_c, 0, 67, 113
1, 234367, Control_c, 0, 67, 117
1, 234382, Control_c, 0, 67, 120
1, 234397, Control_c, 0, 67, 124
1, 234411, Control_c, 0, 67, 127
1, 234426, Control_c, 0, 67, 127
1, 234450, Note_off_c, 0, 62, 36
1, 234477, Note_off_c, 0, 67, 39
1, 234515, Note_on_c, 0, 58, 43
1, 234560, Control_c, 0, 64, 97
1, 234612, Control_c, 0, 64, 97
1, 234625, Note_off_c, 0, 58, 59
1, 234642, Control_c, 0, 64, 96
1, 234671, Control_c, 0, 64, 96
1, 234701, Control_c, 0, 64, 95
1, 234728, Note_on_c, 0, 62, 42
1, 234730, Note_on_c, 0, 67, 39
1, 234731, Control_c, 0, 64, 95
1, 234805, Control_c, 0, 64, 94
1, 234850, Control_c, 0, 64, 94
1, 234863, Note_off_c, 0, 62, 36
1, 234864, Control_c, 0, 64, 93
1, 234879, Control_c, 0, 64, 92
1, 234894, Control_c, 0, 64, 91
1, 234909, Control_c, 0, 64, 90
1, 234924, Control_c, 0, 64, 89
1, 234934, Note_on_c, 0, 73, 64
1, 234938, Control_c, 0, 64, 86
1, 234953, Control_c, 0, 64, 83
1, 234961, Note_on_c, 0, 38, 34
1, 234968, Control_c, 0, 64, 77
1, 234975, Note_off_c, 0, 67, 41
1, 234983, Control_c, 0, 64, 71
1, 234997, Control_c, 0, 64, 63
1, 235012, Control_c, 0, 64, 20
1, 235013, Note_off_c, 0, 74, 22
1, 235027, Control_c, 0, 64, 0
1, 235071, Control_c, 0, 64, 41
1, 235086, Control_c, 0, 64, 57
1, 235101, Control_c, 0, 64, 64
1, 235116, Control_c, 0, 64, 68
1, 235130, Control_c, 0, 64, 73
1, 235141, Note_off_c, 0, 38, 56
1, 235145, Control_c, 0, 64, 78
1, 235160, Control_c, 0, 64, 83
1, 235175, Control_c, 0, 64, 86
1, 235188, Note_on_c, 0, 67, 36
1, 235189, Control_c, 0, 64, 90
1, 235203, Note_on_c, 0, 64, 23
1, 235204, Control_c, 0, 64, 93
1, 235219, Control_c, 0, 64, 96
1, 235234, Control_c, 0, 64, 99
1, 235249, Control_c, 0, 64, 102
1, 235264, Control_c, 0, 64, 104
1, 235279, Control_c, 0, 64, 106
1, 235294, Control_c, 0, 64, 107
1, 235308, Control_c, 0, 64, 108
1, 235349, Note_off_c, 0, 64, 40
1, 235353, Note_off_c, 0, 67, 41
1, 235410, Note_on_c, 0, 57, 39
1, 235600, Note_on_c, 0, 67, 47
1, 235606, Note_on_c, 0, 64, 36
1, 235634, Note_off_c, 0, 64, 56
1, 235635, Note_off_c, 0, 67, 62
1, 235675, Note_off_c, 0, 73, 37
1, 235827, Note_on_c, 0, 81, 71
1, 235836, Control_c, 0, 64, 107
1, 235866, Control_c, 0, 64, 106
1, 235881, Control_c, 0, 64, 105
1, 235895, Control_c, 0, 64, 103
1, 235897, Note_on_c, 0, 50, 22
1, 235910, Control_c, 0, 64, 101
1, 235925, Control_c, 0, 64, 98
1, 235939, Control_c, 0, 64, 94
1, 235954, Control_c, 0, 64, 89
1, 235969, Control_c, 0, 64, 84
1, 235981, Note_off_c, 0, 57, 18
1, 235984, Control_c, 0, 64, 79
1, 235999, Control_c, 0, 64, 78
1, 236028, Control_c, 0, 64, 78
1, 236043, Control_c, 0, 64, 80
1, 236058, Control_c, 0, 64, 82
1, 236073, Control_c, 0, 64, 85
1, 236095, Control_c, 0, 64, 88
1, 236109, Note_on_c, 0, 69, 34
1, 236110, Control_c, 0, 64, 90
1, 236113, Note_on_c, 0, 67, 39
1, 236125, Control_c, 0, 64, 93
1, 236139, Control_c, 0, 64, 95
1, 236154, Control_c, 0, 64, 97
1, 236170, Control_c, 0, 64, 98
1, 236185, Control_c, 0, 64, 99
1, 236200, Control_c, 0, 64, 99
1, 236297, Note_off_c, 0, 67, 49
1, 236311, Note_off_c, 0, 69, 42
1, 236379, Note_on_c, 0, 57, 29
1, 236386, Note_on_c, 0, 61, 28
1, 236468, Note_off_c, 0, 81, 34
1, 236496, Control_c, 0, 64, 99
1, 236525, Control_c, 0, 67, 126
1, 236540, Control_c, 0, 67, 124
1, 236555, Control_c, 0, 64, 98
1, 236572, Note_off_c, 0, 50, 33
1, 236599, Control_c, 0, 64, 98
1, 236604, Note_on_c, 0, 69, 36
1, 236611, Note_on_c, 0, 67, 43
1, 236612, Note_off_c, 0, 61, 41
1, 236629, Control_c, 0, 64, 97
1, 236644, Control_c, 0, 64, 97
1, 236674, Control_c, 0, 64, 96
1, 236718, Control_c, 0, 64, 96
1, 236733, Control_c, 0, 64, 95
1, 236748, Control_c, 0, 64, 95
1, 236777, Control_c, 0, 64, 94
1, 236792, Control_c, 0, 64, 94
1, 236807, Control_c, 0, 64, 93
1, 236839, Note_off_c, 0, 67, 27
1, 236844, Control_c, 0, 64, 93
1, 236874, Control_c, 0, 64, 92
1, 236879, Note_off_c, 0, 69, 31
1, 236889, Control_c, 0, 64, 91
1, 236903, Control_c, 0, 64, 91
1, 236918, Control_c, 0, 64, 90
1, 236918, Note_on_c, 0, 77, 64
1, 236933, Control_c, 0, 64, 89
1, 236948, Control_c, 0, 64, 88
1, 236963, Control_c, 0, 64, 87
1, 236978, Note_on_c, 0, 50, 27
1, 236978, Control_c, 0, 64, 85
1, 236993, Control_c, 0, 64, 83
1, 237008, Control_c, 0, 64, 80
1, 237023, Control_c, 0, 64, 77
1, 237038, Control_c, 0, 64, 72
1, 237052, Control_c, 0, 64, 65
1, 237056, Note_off_c, 0, 57, 22
1, 237067, Control_c, 0, 64, 36
1, 237082, Control_c, 0, 64, 0
1, 237185, Control_c, 0, 64, 56
1, 237200, Control_c, 0, 64, 65
1, 237212, Note_on_c, 0, 69, 37
1, 237215, Control_c, 0, 64, 70
1, 237221, Note_on_c, 0, 65, 27
1, 237230, Control_c, 0, 64, 74
1, 237245, Control_c, 0, 64, 77
1, 237259, Control_c, 0, 64, 80
1, 237274, Control_c, 0, 64, 84
1, 237289, Control_c, 0, 64, 86
1, 237304, Control_c, 0, 64, 89
1, 237319, Control_c, 0, 64, 91
1, 237333, Control_c, 0, 64, 92
1, 237348, Control_c, 0, 64, 94
1, 237363, Control_c, 0, 64, 95
1, 237377, Control_c, 0, 64, 96
1, 237392, Control_c, 0, 64, 96
1, 237407, Control_c, 0, 64, 97
1, 237409, Note_on_c, 0, 73, 64
1, 237422, Control_c, 0, 64, 97
1, 237434, Note_off_c, 0, 65, 41
1, 237452, Control_c, 0, 67, 125
1, 237458, Note_on_c, 0, 57, 23
1, 237470, Note_on_c, 0, 62, 23
1, 237473, Note_off_c, 0, 69, 38
1, 237497, Control_c, 0, 67, 125
1, 237592, Control_c, 0, 67, 126
1, 237616, Note_on_c, 0, 69, 44
1, 237616, Note_off_c, 0, 77, 29
1, 237651, Note_on_c, 0, 65, 31
1, 237651, Note_off_c, 0, 50, 34
1, 237666, Control_c, 0, 67, 126
1, 237825, Note_on_c, 0, 74, 68
1, 237862, Note_off_c, 0, 65, 41
1, 237875, Note_off_c, 0, 62, 34
1, 237877, Note_off_c, 0, 69, 56
1, 237885, Note_on_c, 0, 50, 25
1, 237952, Note_off_c, 0, 57, 32
1, 237978, Control_c, 0, 67, 127
1, 238036, Note_on_c, 0, 69, 41
1, 238037, Control_c, 0, 67, 127
1, 238066, Note_on_c, 0, 65, 32
1, 238234, Note_on_c, 0, 76, 72
1, 238265, Note_off_c, 0, 65, 41
1, 238281, Note_on_c, 0, 57, 29
1, 238299, Note_off_c, 0, 69, 48
1, 238300, Note_off_c, 0, 74, 38
1, 238355, Control_c, 0, 64, 97
1, 238400, Control_c, 0, 64, 96
1, 238418, Note_off_c, 0, 50, 34
1, 238423, Note_off_c, 0, 73, 31
1, 238445, Control_c, 0, 64, 96
1, 238459, Control_c, 0, 64, 95
1, 238466, Note_on_c, 0, 69, 38
1, 238477, Note_on_c, 0, 65, 40
1, 238504, Control_c, 0, 64, 95
1, 238519, Control_c, 0, 64, 94
1, 238533, Control_c, 0, 64, 94
1, 238548, Control_c, 0, 64, 93
1, 238564, Control_c, 0, 64, 93
1, 238594, Control_c, 0, 64, 92
1, 238623, Control_c, 0, 64, 92
1, 238638, Control_c, 0, 64, 91
1, 238653, Control_c, 0, 64, 91
1, 238668, Control_c, 0, 64, 90
1, 238698, Control_c, 0, 64, 89
1, 238705, Note_off_c, 0, 76, 54
1, 238712, Control_c, 0, 64, 89
1, 238725, Note_on_c, 0, 73, 63
1, 238742, Control_c, 0, 64, 88
1, 238756, Control_c, 0, 64, 87
1, 238771, Control_c, 0, 64, 85
1, 238773, Note_off_c, 0, 65, 40
1, 238775, Note_on_c, 0, 50, 24
1, 238781, Note_off_c, 0, 69, 50
1, 238786, Control_c, 0, 64, 82
1, 238801, Control_c, 0, 64, 78
1, 238816, Control_c, 0, 64, 73
1, 238830, Control_c, 0, 64, 67
1, 238845, Control_c, 0, 64, 59
1, 238860, Control_c, 0, 64, 24
1, 238866, Note_off_c, 0, 57, 36
1, 238875, Control_c, 0, 64, 0
1, 238993, Control_c, 0, 64, 40
1, 239008, Control_c, 0, 64, 56
1, 239023, Control_c, 0, 64, 63
1, 239038, Control_c, 0, 64, 67
1, 239048, Note_on_c, 0, 67, 30
1, 239053, Control_c, 0, 64, 70
1, 239054, Note_on_c, 0, 64, 23
1, 239068, Control_c, 0, 64, 74
1, 239090, Control_c, 0, 64, 77
1, 239105, Control_c, 0, 64, 80
1, 239120, Control_c, 0, 64, 82
1, 239135, Control_c, 0, 64, 84
1, 239150, Control_c, 0, 64, 85
1, 239164, Control_c, 0, 64, 86
1, 239179, Control_c, 0, 64, 86
1, 239246, Note_off_c, 0, 64, 42
1, 239270, Note_off_c, 0, 67, 41
1, 239284, Note_on_c, 0, 57, 29
1, 239408, Note_off_c, 0, 50, 33
1, 239485, Note_on_c, 0, 67, 34
1, 239491, Note_on_c, 0, 64, 27
1, 239500, Note_off_c, 0, 73, 34
1, 239506, Control_c, 0, 64, 86
1, 239550, Control_c, 0, 64, 85
1, 239565, Control_c, 0, 64, 85
1, 239580, Control_c, 0, 64, 84
1, 239595, Control_c, 0, 64, 84
1, 239610, Control_c, 0, 64, 83
1, 239625, Control_c, 0, 64, 83
1, 239640, Control_c, 0, 64, 82
1, 239654, Control_c, 0, 64, 80
1, 239669, Control_c, 0, 64, 79
1, 239684, Control_c, 0, 64, 77
1, 239688, Note_on_c, 0, 69, 59
1, 239694, Note_off_c, 0, 64, 37
1, 239698, Control_c, 0, 64, 75
1, 239712, Note_off_c, 0, 67, 36
1, 239713, Control_c, 0, 64, 73
1, 239728, Control_c, 0, 64, 72
1, 239741, Note_on_c, 0, 50, 21
1, 239743, Control_c, 0, 64, 69
1, 239754, Note_off_c, 0, 57, 31
1, 239758, Control_c, 0, 64, 66
1, 239773, Control_c, 0, 64, 64
1, 239787, Control_c, 0, 64, 62
1, 239802, Control_c, 0, 64, 61
1, 239854, Control_c, 0, 64, 62
1, 239869, Control_c, 0, 64, 62
1, 239884, Control_c, 0, 64, 63
1, 239899, Control_c, 0, 64, 65
1, 239913, Control_c, 0, 64, 66
1, 239928, Control_c, 0, 64, 68
1, 239943, Control_c, 0, 64, 70
1, 239950, Note_on_c, 0, 65, 35
1, 239956, Note_on_c, 0, 62, 29
1, 239958, Control_c, 0, 64, 73
1, 239973, Control_c, 0, 64, 76
1, 239987, Control_c, 0, 64, 78
1, 240002, Control_c, 0, 64, 79
1, 240017, Control_c, 0, 64, 80
1, 240032, Control_c, 0, 64, 82
1, 240047, Control_c, 0, 64, 83
1, 240061, Control_c, 0, 64, 84
1, 240076, Control_c, 0, 64, 85
1, 240091, Control_c, 0, 64, 85
1, 240186, Note_off_c, 0, 62, 39
1, 240194, Note_on_c, 0, 57, 32
1, 240194, Note_off_c, 0, 65, 41
1, 240346, Note_off_c, 0, 50, 31
1, 240428, Note_off_c, 0, 69, 42
1, 240438, Note_on_c, 0, 65, 30
1, 240448, Control_c, 0, 64, 85
1, 240458, Note_on_c, 0, 62, 27
1, 240536, Control_c, 0, 64, 84
1, 240606, Note_off_c, 0, 62, 38
1, 240618, Control_c, 0, 64, 84
1, 240662, Control_c, 0, 64, 83
1, 240692, Control_c, 0, 64, 83
1, 240707, Control_c, 0, 64, 82
1, 240722, Control_c, 0, 64, 81
1, 240728, Note_on_c, 0, 70, 55
1, 240736, Control_c, 0, 64, 79
1, 240751, Control_c, 0, 64, 77
1, 240756, Note_off_c, 0, 65, 40
1, 240766, Control_c, 0, 64, 74
1, 240781, Control_c, 0, 64, 70
1, 240796, Control_c, 0, 64, 65
1, 240809, Note_on_c, 0, 50, 9
1, 240810, Control_c, 0, 64, 56
1, 240825, Control_c, 0, 64, 36
1, 240840, Control_c, 0, 64, 18
1, 240884, Control_c, 0, 64, 16
1, 240886, Note_off_c, 0, 57, 36
1, 240928, Control_c, 0, 64, 18
1, 240943, Control_c, 0, 64, 28
1, 240959, Control_c, 0, 64, 39
1, 240974, Control_c, 0, 64, 51
1, 240989, Control_c, 0, 64, 59
1, 241004, Control_c, 0, 64, 64
1, 241019, Control_c, 0, 64, 66
1, 241033, Control_c, 0, 64, 68
1, 241048, Control_c, 0, 64, 70
1, 241063, Control_c, 0, 64, 72
1, 241077, Note_on_c, 0, 68, 39
1, 241078, Control_c, 0, 64, 74
1, 241086, Note_on_c, 0, 65, 28
1, 241093, Control_c, 0, 64, 77
1, 241107, Control_c, 0, 64, 78
1, 241122, Control_c, 0, 64, 79
1, 241137, Control_c, 0, 64, 80
1, 241151, Control_c, 0, 64, 81
1, 241181, Control_c, 0, 64, 81
1, 241232, Note_off_c, 0, 65, 44
1, 241253, Note_off_c, 0, 68, 34
1, 241299, Note_on_c, 0, 58, 39
1, 241400, Note_off_c, 0, 50, 34
1, 241504, Note_on_c, 0, 68, 40
1, 241521, Note_on_c, 0, 65, 33
1, 241647, Control_c, 0, 64, 81
1, 241676, Control_c, 0, 64, 80
1, 241691, Control_c, 0, 64, 80
1, 241706, Control_c, 0, 64, 79
1, 241708, Note_off_c, 0, 70, 33
1, 241709, Note_on_c, 0, 71, 68
1, 241721, Control_c, 0, 64, 78
1, 241736, Control_c, 0, 64, 76
1, 241750, Note_on_c, 0, 50, 32
1, 241752, Note_off_c, 0, 65, 39
1, 241752, Control_c, 0, 64, 73
1, 241764, Note_off_c, 0, 68, 39
1, 241767, Control_c, 0, 64, 69
1, 241781, Control_c, 0, 64, 65
1, 241790, Note_off_c, 0, 58, 21
1, 241796, Control_c, 0, 64, 58
1, 241811, Control_c, 0, 64, 49
1, 241826, Control_c, 0, 64, 51
1, 241841, Control_c, 0, 64, 55
1, 241855, Control_c, 0, 64, 58
1, 241870, Control_c, 0, 64, 60
1, 241885, Control_c, 0, 64, 63
1, 241900, Control_c, 0, 64, 65
1, 241915, Control_c, 0, 64, 67
1, 241929, Control_c, 0, 64, 70
1, 241930, Note_on_c, 0, 68, 39
1, 241935, Note_on_c, 0, 65, 39
1, 241944, Control_c, 0, 64, 73
1, 241959, Control_c, 0, 64, 76
1, 241974, Control_c, 0, 64, 79
1, 241989, Control_c, 0, 64, 81
1, 242004, Control_c, 0, 64, 83
1, 242019, Control_c, 0, 64, 85
1, 242034, Control_c, 0, 64, 88
1, 242048, Control_c, 0, 64, 90
1, 242063, Control_c, 0, 64, 91
1, 242085, Control_c, 0, 64, 92
1, 242101, Control_c, 0, 64, 92
1, 242150, Note_off_c, 0, 65, 37
1, 242153, Note_off_c, 0, 68, 49
1, 242158, Note_on_c, 0, 59, 43
1, 242306, Note_off_c, 0, 50, 39
1, 242329, Note_on_c, 0, 68, 43
1, 242345, Note_on_c, 0, 65, 47
1, 242412, Control_c, 0, 64, 92
1, 242456, Control_c, 0, 64, 91
1, 242486, Control_c, 0, 64, 90
1, 242500, Control_c, 0, 64, 90
1, 242515, Control_c, 0, 64, 88
1, 242530, Control_c, 0, 64, 86
1, 242537, Note_on_c, 0, 72, 75
1, 242546, Control_c, 0, 64, 84
1, 242561, Control_c, 0, 64, 81
1, 242569, Note_off_c, 0, 71, 48
1, 242573, Note_off_c, 0, 68, 56
1, 242576, Note_on_c, 0, 48, 38
1, 242576, Note_off_c, 0, 65, 42
1, 242576, Control_c, 0, 64, 78
1, 242591, Control_c, 0, 64, 73
1, 242605, Control_c, 0, 64, 66
1, 242620, Control_c, 0, 64, 46
1, 242632, Note_off_c, 0, 59, 36
1, 242635, Control_c, 0, 64, 0
1, 242709, Control_c, 0, 64, 34
1, 242724, Control_c, 0, 64, 57
1, 242739, Control_c, 0, 64, 64
1, 242753, Control_c, 0, 64, 67
1, 242768, Control_c, 0, 64, 71
1, 242772, Note_on_c, 0, 69, 50
1, 242783, Control_c, 0, 64, 74
1, 242784, Note_on_c, 0, 65, 39
1, 242797, Control_c, 0, 64, 78
1, 242812, Control_c, 0, 64, 82
1, 242835, Control_c, 0, 64, 85
1, 242850, Control_c, 0, 64, 87
1, 242865, Control_c, 0, 64, 89
1, 242879, Control_c, 0, 64, 91
1, 242894, Control_c, 0, 64, 91
1, 242909, Control_c, 0, 64, 92
1, 242999, Note_on_c, 0, 60, 46
1, 243007, Note_off_c, 0, 69, 61
1, 243038, Note_off_c, 0, 65, 36
1, 243162, Note_off_c, 0, 48, 42
1, 243184, Note_on_c, 0, 65, 52
1, 243187, Note_off_c, 0, 72, 60
1, 243187, Note_on_c, 0, 69, 61
1, 243205, Control_c, 0, 64, 91
1, 243279, Control_c, 0, 64, 91
1, 243309, Control_c, 0, 64, 90
1, 243338, Control_c, 0, 64, 90
1, 243354, Control_c, 0, 64, 89
1, 243369, Control_c, 0, 64, 88
1, 243384, Control_c, 0, 64, 87
1, 243399, Control_c, 0, 64, 85
1, 243411, Note_on_c, 0, 73, 81
1, 243414, Control_c, 0, 64, 83
1, 243428, Control_c, 0, 64, 80
1, 243436, Note_on_c, 0, 48, 43
1, 243443, Control_c, 0, 64, 76
1, 243458, Control_c, 0, 64, 72
1, 243470, Note_off_c, 0, 69, 53
1, 243473, Control_c, 0, 64, 67
1, 243488, Control_c, 0, 64, 55
1, 243502, Control_c, 0, 64, 27
1, 243509, Note_off_c, 0, 65, 37
1, 243517, Control_c, 0, 64, 18
1, 243523, Note_off_c, 0, 60, 50
1, 243532, Control_c, 0, 64, 38
1, 243546, Control_c, 0, 64, 53
1, 243561, Control_c, 0, 64, 61
1, 243584, Control_c, 0, 64, 65
1, 243599, Control_c, 0, 64, 68
1, 243613, Control_c, 0, 64, 71
1, 243628, Control_c, 0, 64, 75
1, 243643, Control_c, 0, 64, 78
1, 243658, Control_c, 0, 64, 81
1, 243660, Note_on_c, 0, 65, 46
1, 243670, Note_on_c, 0, 69, 41
1, 243673, Control_c, 0, 64, 82
1, 243688, Control_c, 0, 64, 84
1, 243702, Control_c, 0, 64, 86
1, 243717, Control_c, 0, 64, 88
1, 243732, Control_c, 0, 64, 89
1, 243746, Control_c, 0, 64, 91
1, 243761, Control_c, 0, 64, 91
1, 243776, Control_c, 0, 64, 92
1, 243820, Control_c, 0, 64, 93
1, 243835, Control_c, 0, 67, 124
1, 243850, Control_c, 0, 67, 116
1, 243857, Note_off_c, 0, 65, 58
1, 243865, Control_c, 0, 67, 111
1, 243880, Control_c, 0, 67, 109
1, 243909, Note_on_c, 0, 61, 46
1, 243939, Control_c, 0, 67, 110
1, 243944, Note_off_c, 0, 69, 37
1, 243953, Control_c, 0, 67, 111
1, 243968, Control_c, 0, 67, 111
1, 243983, Control_c, 0, 67, 112
1, 243998, Control_c, 0, 67, 113
1, 244013, Control_c, 0, 67, 115
1, 244028, Control_c, 0, 67, 117
1, 244031, Note_off_c, 0, 48, 36
1, 244043, Control_c, 0, 67, 119
1, 244058, Control_c, 0, 67, 121
1, 244072, Control_c, 0, 67, 124
1, 244087, Control_c, 0, 67, 127
1, 244128, Note_on_c, 0, 69, 45
1, 244132, Control_c, 0, 64, 92
1, 244136, Note_on_c, 0, 65, 45
1, 244144, Note_off_c, 0, 61, 38
1, 244177, Control_c, 0, 64, 92
1, 244222, Control_c, 0, 64, 91
1, 244251, Control_c, 0, 64, 91
1, 244281, Control_c, 0, 64, 90
1, 244311, Control_c, 0, 64, 90
1, 244332, Control_c, 0, 64, 89
1, 244347, Control_c, 0, 64, 89
1, 244362, Control_c, 0, 64, 88
1, 244377, Control_c, 0, 64, 87
1, 244391, Control_c, 0, 64, 86
1, 244406, Control_c, 0, 64, 85
1, 244421, Control_c, 0, 64, 84
1, 244436, Control_c, 0, 64, 83
1, 244444, Note_on_c, 0, 74, 73
1, 244451, Control_c, 0, 64, 80
1, 244466, Control_c, 0, 64, 78
1, 244475, Note_on_c, 0, 48, 36
1, 244481, Control_c, 0, 64, 75
1, 244495, Control_c, 0, 64, 71
1, 244510, Control_c, 0, 64, 66
1, 244511, Note_off_c, 0, 65, 42
1, 244517, Note_off_c, 0, 69, 38
1, 244522, Note_off_c, 0, 73, 31
1, 244525, Control_c, 0, 64, 61
1, 244540, Control_c, 0, 64, 43
1, 244555, Control_c, 0, 64, 13
1, 244569, Control_c, 0, 64, 0
1, 244658, Control_c, 0, 64, 24
1, 244673, Control_c, 0, 64, 41
1, 244688, Control_c, 0, 64, 54
1, 244702, Control_c, 0, 64, 62
1, 244717, Control_c, 0, 64, 65
1, 244732, Control_c, 0, 64, 69
1, 244747, Control_c, 0, 64, 72
1, 244762, Control_c, 0, 64, 75
1, 244776, Control_c, 0, 64, 78
1, 244791, Control_c, 0, 64, 81
1, 244806, Control_c, 0, 64, 82
1, 244821, Control_c, 0, 64, 84
1, 244836, Control_c, 0, 64, 84
1, 244851, Control_c, 0, 64, 85
1, 244859, Note_on_c, 0, 65, 33
1, 244859, Note_on_c, 0, 70, 27
1, 244865, Control_c, 0, 64, 85
1, 244870, Note_off_c, 0, 48, 42
1, 244895, Control_c, 0, 64, 86
1, 244970, Control_c, 0, 64, 86
1, 245000, Control_c, 0, 64, 87
1, 245014, Control_c, 0, 64, 87
1, 245044, Control_c, 0, 64, 88
1, 245053, Note_off_c, 0, 65, 42
1, 245104, Note_off_c, 0, 70, 39
1, 245109, Note_on_c, 0, 62, 40
1, 245304, Control_c, 0, 64, 87
1, 245315, Note_on_c, 0, 70, 40
1, 245316, Note_off_c, 0, 62, 37
1, 245323, Note_on_c, 0, 65, 39
1, 245378, Control_c, 0, 64, 87
1, 245408, Control_c, 0, 64, 86
1, 245438, Control_c, 0, 64, 86
1, 245460, Note_off_c, 0, 70, 41
1, 245467, Control_c, 0, 64, 85
1, 245478, Note_off_c, 0, 65, 40
1, 245482, Control_c, 0, 64, 83
1, 245497, Control_c, 0, 64, 81
1, 245512, Control_c, 0, 64, 79
1, 245526, Control_c, 0, 64, 77
1, 245541, Control_c, 0, 64, 76
1, 245556, Control_c, 0, 64, 74
1, 245559, Note_on_c, 0, 48, 40
1, 245571, Control_c, 0, 64, 74
1, 245660, Control_c, 0, 64, 74
1, 245674, Control_c, 0, 64, 75
1, 245689, Control_c, 0, 64, 75
1, 245704, Control_c, 0, 64, 76
1, 245718, Control_c, 0, 64, 76
1, 245733, Control_c, 0, 64, 77
1, 245749, Control_c, 0, 64, 78
1, 245760, Note_on_c, 0, 67, 43
1, 245764, Control_c, 0, 64, 79
1, 245766, Note_on_c, 0, 64, 30
1, 245779, Control_c, 0, 64, 79
1, 245794, Control_c, 0, 64, 80
1, 245870, Note_off_c, 0, 74, 28
1, 245968, Note_on_c, 0, 70, 63
1, 245986, Note_off_c, 0, 64, 38
1, 245993, Note_on_c, 0, 58, 31
1, 246011, Note_off_c, 0, 67, 29
1, 246167, Note_off_c, 0, 58, 38
1, 246199, Note_off_c, 0, 70, 38
1, 246201, Control_c, 0, 64, 79
1, 246220, Note_on_c, 0, 67, 37
1, 246245, Control_c, 0, 64, 79
1, 246248, Note_on_c, 0, 64, 24
1, 246304, Control_c, 0, 64, 78
1, 246311, Note_off_c, 0, 64, 0
1, 246334, Control_c, 0, 64, 78
1, 246348, Poly_aftertouch_c, 0, 64, 127
1, 246363, Control_c, 0, 64, 77
1, 246366, Note_off_c, 0, 67, 36
1, 246393, Control_c, 0, 64, 77
1, 246422, Control_c, 0, 64, 76
1, 246425, Note_off_c, 0, 48, 32
1, 246437, Control_c, 0, 64, 75
1, 246452, Control_c, 0, 64, 73
1, 246463, Poly_aftertouch_c, 0, 64, 0
1, 246466, Control_c, 0, 64, 71
1, 246477, Note_on_c, 0, 69, 56
1, 246481, Control_c, 0, 64, 68
1, 246496, Control_c, 0, 64, 64
1, 246500, Note_on_c, 0, 53, 39
1, 246511, Control_c, 0, 64, 56
1, 246526, Control_c, 0, 64, 24
1, 246542, Control_c, 0, 64, 0
1, 246751, Note_on_c, 0, 65, 41
1, 246800, Control_c, 0, 64, 40
1, 246815, Control_c, 0, 64, 58
1, 246830, Control_c, 0, 64, 64
1, 246845, Control_c, 0, 64, 67
1, 246860, Control_c, 0, 64, 70
1, 246875, Control_c, 0, 64, 73
1, 246889, Control_c, 0, 64, 76
1, 246904, Control_c, 0, 64, 79
1, 246919, Control_c, 0, 64, 81
1, 246934, Control_c, 0, 64, 82
1, 246949, Control_c, 0, 64, 83
1, 246953, Note_on_c, 0, 57, 39
1, 246964, Control_c, 0, 64, 84
1, 246978, Control_c, 0, 64, 84
1, 246993, Control_c, 0, 64, 85
1, 247049, Note_off_c, 0, 57, 38
1, 247056, Note_off_c, 0, 53, 42
1, 247106, Note_off_c, 0, 65, 40
1, 247155, Note_on_c, 0, 60, 38
1, 247215, Control_c, 0, 64, 84
1, 247236, Note_off_c, 0, 60, 35
1, 247259, Control_c, 0, 64, 84
1, 247289, Control_c, 0, 64, 83
1, 247304, Control_c, 0, 64, 83
1, 247326, Control_c, 0, 64, 82
1, 247342, Control_c, 0, 64, 82
1, 247357, Control_c, 0, 64, 81
1, 247372, Control_c, 0, 64, 81
1, 247374, Note_off_c, 0, 69, 41
1, 247387, Control_c, 0, 64, 79
1, 247389, Note_on_c, 0, 65, 56
1, 247401, Control_c, 0, 64, 78
1, 247416, Control_c, 0, 64, 76
1, 247431, Control_c, 0, 64, 74
1, 247440, Note_on_c, 0, 41, 32
1, 247446, Control_c, 0, 64, 73
1, 247461, Control_c, 0, 64, 71
1, 247475, Control_c, 0, 64, 68
1, 247490, Control_c, 0, 64, 66
1, 247505, Control_c, 0, 64, 61
1, 247519, Control_c, 0, 64, 54
1, 247534, Control_c, 0, 64, 49
1, 247549, Control_c, 0, 64, 49
1, 247564, Control_c, 0, 64, 50
1, 247579, Control_c, 0, 64, 51
1, 247593, Control_c, 0, 64, 52
1, 247608, Control_c, 0, 64, 54
1, 247623, Control_c, 0, 64, 58
1, 247638, Control_c, 0, 64, 62
1, 247653, Control_c, 0, 64, 64
1, 247667, Control_c, 0, 64, 66
1, 247676, Note_on_c, 0, 60, 26
1, 247682, Control_c, 0, 64, 69
1, 247687, Note_on_c, 0, 57, 28
1, 247697, Control_c, 0, 64, 72
1, 247712, Control_c, 0, 64, 74
1, 247727, Control_c, 0, 64, 77
1, 247742, Control_c, 0, 64, 79
1, 247757, Control_c, 0, 64, 81
1, 247772, Control_c, 0, 64, 83
1, 247786, Control_c, 0, 64, 84
1, 247801, Control_c, 0, 64, 86
1, 247816, Control_c, 0, 64, 87
1, 247831, Control_c, 0, 64, 87
1, 247846, Control_c, 0, 64, 88
1, 247881, Note_off_c, 0, 57, 37
1, 247913, Note_off_c, 0, 60, 38
1, 247936, Note_on_c, 0, 53, 27
1, 247942, Note_off_c, 0, 41, 40
1, 248089, Control_c, 0, 64, 87
1, 248149, Control_c, 0, 64, 87
1, 248179, Control_c, 0, 64, 86
1, 248203, Note_on_c, 0, 57, 28
1, 248206, Note_on_c, 0, 60, 19
1, 248238, Control_c, 0, 64, 86
1, 248287, Note_off_c, 0, 53, 32
1, 248297, Control_c, 0, 64, 85
1, 248332, Note_off_c, 0, 60, 40
1, 248341, Control_c, 0, 64, 85
1, 248383, Note_off_c, 0, 57, 36
1, 248401, Control_c, 0, 64, 84
1, 248445, Control_c, 0, 64, 84
1, 248475, Control_c, 0, 64, 83
1, 248490, Control_c, 0, 64, 83
1, 248505, Control_c, 0, 64, 82
1, 248520, Control_c, 0, 64, 81
1, 248534, Control_c, 0, 64, 80
1, 248539, Note_on_c, 0, 67, 55
1, 248549, Control_c, 0, 64, 79
1, 248557, Note_on_c, 0, 45, 35
1, 248564, Control_c, 0, 64, 77
1, 248579, Control_c, 0, 64, 75
1, 248594, Control_c, 0, 64, 73
1, 248608, Control_c, 0, 64, 71
1, 248615, Note_off_c, 0, 65, 35
1, 248623, Control_c, 0, 64, 68
1, 248638, Control_c, 0, 64, 65
1, 248653, Control_c, 0, 64, 60
1, 248668, Control_c, 0, 64, 51
1, 248682, Control_c, 0, 64, 36
1, 248697, Control_c, 0, 64, 16
1, 248712, Control_c, 0, 64, 0
1, 248868, Control_c, 0, 64, 10
1, 248883, Control_c, 0, 64, 41
1, 248898, Control_c, 0, 64, 54
1, 248913, Control_c, 0, 64, 61
1, 248928, Control_c, 0, 64, 63
1, 248943, Control_c, 0, 64, 65
1, 248958, Control_c, 0, 64, 66
1, 248970, Note_on_c, 0, 60, 20
1, 248973, Control_c, 0, 64, 68
1, 248983, Note_on_c, 0, 63, 5
1, 248988, Control_c, 0, 64, 69
1, 249003, Control_c, 0, 64, 71
1, 249018, Control_c, 0, 64, 74
1, 249033, Control_c, 0, 64, 76
1, 249047, Control_c, 0, 64, 77
1, 249062, Control_c, 0, 64, 78
1, 249077, Control_c, 0, 64, 80
1, 249091, Control_c, 0, 64, 81
1, 249106, Control_c, 0, 64, 82
1, 249121, Control_c, 0, 64, 83
1, 249136, Control_c, 0, 64, 84
1, 249151, Control_c, 0, 64, 85
1, 249165, Control_c, 0, 64, 85
1, 249180, Control_c, 0, 64, 86
1, 249245, Note_on_c, 0, 55, 33
1, 249265, Note_off_c, 0, 60, 39
1, 249304, Note_off_c, 0, 63, 41
1, 249355, Note_off_c, 0, 45, 33
1, 249477, Note_on_c, 0, 63, 37
1, 249489, Note_on_c, 0, 60, 22
1, 249587, Control_c, 0, 64, 85
1, 249632, Control_c, 0, 64, 85
1, 249677, Control_c, 0, 64, 84
1, 249691, Control_c, 0, 64, 84
1, 249704, Note_off_c, 0, 67, 35
1, 249706, Control_c, 0, 64, 83
1, 249712, Note_on_c, 0, 65, 54
1, 249721, Control_c, 0, 64, 82
1, 249736, Control_c, 0, 64, 81
1, 249740, Note_on_c, 0, 45, 36
1, 249748, Note_off_c, 0, 60, 35
1, 249751, Control_c, 0, 64, 79
1, 249766, Control_c, 0, 64, 77
1, 249774, Note_off_c, 0, 63, 36
1, 249781, Control_c, 0, 64, 74
1, 249796, Control_c, 0, 64, 70
1, 249811, Control_c, 0, 64, 64
1, 249826, Control_c, 0, 64, 49
1, 249841, Control_c, 0, 64, 0
1, 249844, Note_off_c, 0, 55, 37
1, 249885, Control_c, 0, 64, 20
1, 249900, Control_c, 0, 64, 41
1, 249914, Control_c, 0, 64, 52
1, 249929, Control_c, 0, 64, 59
1, 249944, Control_c, 0, 64, 64
1, 249959, Control_c, 0, 64, 66
1, 249966, Note_on_c, 0, 63, 25
1, 249974, Control_c, 0, 64, 69
1, 249978, Note_on_c, 0, 60, 29
1, 249988, Control_c, 0, 64, 72
1, 250003, Control_c, 0, 64, 76
1, 250018, Control_c, 0, 64, 78
1, 250033, Control_c, 0, 64, 81
1, 250048, Control_c, 0, 64, 82
1, 250062, Control_c, 0, 64, 84
1, 250077, Control_c, 0, 64, 85
1, 250092, Control_c, 0, 64, 87
1, 250106, Control_c, 0, 64, 89
1, 250121, Control_c, 0, 64, 90
1, 250136, Control_c, 0, 64, 91
1, 250151, Control_c, 0, 64, 92
1, 250158, Note_on_c, 0, 53, 43
1, 250201, Note_off_c, 0, 63, 41
1, 250208, Note_off_c, 0, 60, 36
1, 250271, Note_off_c, 0, 45, 43
1, 250381, Control_c, 0, 64, 91
1, 250389, Note_on_c, 0, 63, 45
1, 250390, Note_on_c, 0, 60, 31
1, 250421, Note_off_c, 0, 65, 37
1, 250440, Control_c, 0, 64, 91
1, 250484, Control_c, 0, 64, 90
1, 250529, Control_c, 0, 64, 90
1, 250544, Control_c, 0, 64, 89
1, 250559, Control_c, 0, 64, 88
1, 250574, Control_c, 0, 64, 87
1, 250589, Control_c, 0, 64, 85
1, 250604, Control_c, 0, 64, 84
1, 250619, Control_c, 0, 64, 81
1, 250622, Note_on_c, 0, 66, 65
1, 250633, Control_c, 0, 64, 79
1, 250648, Control_c, 0, 64, 75
1, 250649, Note_on_c, 0, 46, 41
1, 250663, Control_c, 0, 64, 71
1, 250678, Control_c, 0, 64, 66
1, 250693, Control_c, 0, 64, 58
1, 250696, Note_off_c, 0, 60, 39
1, 250708, Control_c, 0, 64, 20
1, 250717, Note_off_c, 0, 63, 38
1, 250723, Control_c, 0, 64, 0
1, 250748, Note_off_c, 0, 53, 52
1, 250856, Control_c, 0, 64, 36
1, 250871, Control_c, 0, 64, 55
1, 250885, Control_c, 0, 64, 63
1, 250900, Control_c, 0, 64, 66
1, 250915, Control_c, 0, 64, 68
1, 250925, Note_on_c, 0, 63, 40
1, 250930, Control_c, 0, 64, 71
1, 250932, Note_on_c, 0, 60, 33
1, 250944, Control_c, 0, 64, 74
1, 250959, Control_c, 0, 64, 78
1, 250974, Control_c, 0, 64, 80
1, 250989, Control_c, 0, 64, 82
1, 251004, Control_c, 0, 64, 84
1, 251018, Control_c, 0, 64, 85
1, 251033, Control_c, 0, 64, 86
1, 251048, Control_c, 0, 64, 87
1, 251150, Note_on_c, 0, 54, 48
1, 251159, Note_off_c, 0, 60, 33
1, 251179, Note_off_c, 0, 63, 39
1, 251268, Note_off_c, 0, 46, 38
1, 251356, Note_on_c, 0, 63, 48
1, 251363, Note_on_c, 0, 60, 47
1, 251412, Control_c, 0, 64, 87
1, 251501, Control_c, 0, 64, 86
1, 251531, Control_c, 0, 64, 86
1, 251541, Note_off_c, 0, 60, 33
1, 251546, Control_c, 0, 64, 85
1, 251560, Control_c, 0, 64, 84
1, 251575, Control_c, 0, 64, 83
1, 251577, Note_on_c, 0, 67, 76
1, 251582, Note_off_c, 0, 63, 26
1, 251590, Control_c, 0, 64, 82
1, 251605, Control_c, 0, 64, 81
1, 251608, Note_on_c, 0, 46, 49
1, 251620, Control_c, 0, 64, 80
1, 251630, Note_off_c, 0, 54, 36
1, 251634, Control_c, 0, 64, 79
1, 251649, Control_c, 0, 64, 78
1, 251664, Control_c, 0, 64, 75
1, 251679, Control_c, 0, 64, 72
1, 251693, Control_c, 0, 64, 67
1, 251708, Control_c, 0, 64, 60
1, 251716, Note_off_c, 0, 66, 24
1, 251723, Control_c, 0, 64, 42
1, 251738, Control_c, 0, 64, 0
1, 251839, Note_on_c, 0, 62, 47
1, 251850, Note_on_c, 0, 58, 44
1, 251879, Control_c, 0, 64, 26
1, 251893, Control_c, 0, 64, 41
1, 251908, Control_c, 0, 64, 54
1, 251923, Control_c, 0, 64, 62
1, 251938, Control_c, 0, 64, 65
1, 251953, Control_c, 0, 64, 68
1, 251967, Control_c, 0, 64, 72
1, 251982, Control_c, 0, 64, 76
1, 251997, Control_c, 0, 64, 79
1, 252012, Control_c, 0, 64, 83
1, 252027, Control_c, 0, 64, 85
1, 252032, Note_off_c, 0, 58, 36
1, 252041, Control_c, 0, 64, 86
1, 252046, Note_on_c, 0, 55, 56
1, 252056, Control_c, 0, 64, 88
1, 252067, Note_off_c, 0, 62, 36
1, 252071, Control_c, 0, 64, 89
1, 252085, Control_c, 0, 64, 90
1, 252100, Control_c, 0, 64, 90
1, 252172, Note_off_c, 0, 46, 38
1, 252207, Note_off_c, 0, 67, 47
1, 252236, Note_on_c, 0, 62, 56
1, 252241, Note_on_c, 0, 58, 57
1, 252274, Note_off_c, 0, 62, 63
1, 252282, Note_off_c, 0, 58, 54
1, 252309, Control_c, 0, 64, 90
1, 252353, Control_c, 0, 64, 89
1, 252398, Control_c, 0, 64, 89
1, 252413, Control_c, 0, 64, 88
1, 252443, Control_c, 0, 64, 88
1, 252457, Control_c, 0, 64, 87
1, 252472, Control_c, 0, 64, 86
1, 252485, Note_on_c, 0, 69, 82
1, 252487, Control_c, 0, 64, 84
1, 252501, Control_c, 0, 64, 82
1, 252504, Note_on_c, 0, 47, 50
1, 252516, Control_c, 0, 64, 80
1, 252531, Control_c, 0, 64, 76
1, 252546, Control_c, 0, 64, 72
1, 252568, Control_c, 0, 64, 68
1, 252583, Control_c, 0, 64, 60
1, 252598, Control_c, 0, 64, 31
1, 252613, Control_c, 0, 64, 0
1, 252649, Note_off_c, 0, 55, 38
1, 252820, Control_c, 0, 64, 47
1, 252824, Note_on_c, 0, 62, 39
1, 252827, Note_on_c, 0, 65, 47
1, 252835, Control_c, 0, 64, 59
1, 252850, Control_c, 0, 64, 63
1, 252864, Control_c, 0, 64, 66
1, 252879, Control_c, 0, 64, 68
1, 252893, Note_off_c, 0, 62, 0
1, 252893, Note_on_c, 0, 62, 3
1, 252894, Control_c, 0, 64, 70
1, 252908, Control_c, 0, 64, 72
1, 252923, Control_c, 0, 64, 75
1, 252939, Control_c, 0, 64, 77
1, 252954, Control_c, 0, 64, 79
1, 252969, Control_c, 0, 64, 81
1, 252984, Control_c, 0, 64, 83
1, 252999, Control_c, 0, 64, 84
1, 253013, Control_c, 0, 64, 85
1, 253028, Control_c, 0, 64, 86
1, 253043, Control_c, 0, 64, 87
1, 253046, Note_on_c, 0, 57, 59
1, 253058, Control_c, 0, 64, 87
1, 253073, Control_c, 0, 64, 88
1, 253112, Note_off_c, 0, 65, 60
1, 253128, Note_off_c, 0, 62, 41
1, 253263, Note_on_c, 0, 62, 57
1, 253266, Note_on_c, 0, 65, 63
1, 253321, Note_off_c, 0, 47, 34
1, 253421, Control_c, 0, 64, 87
1, 253450, Control_c, 0, 64, 87
1, 253465, Control_c, 0, 64, 86
1, 253480, Control_c, 0, 64, 86
1, 253489, Note_on_c, 0, 67, 79
1, 253495, Control_c, 0, 64, 85
1, 253510, Control_c, 0, 64, 83
1, 253513, Note_on_c, 0, 47, 60
1, 253525, Control_c, 0, 64, 81
1, 253527, Note_off_c, 0, 69, 61
1, 253536, Note_off_c, 0, 65, 62
1, 253539, Control_c, 0, 64, 77
1, 253554, Control_c, 0, 64, 72
1, 253569, Control_c, 0, 64, 66
1, 253571, Note_off_c, 0, 62, 55
1, 253584, Note_off_c, 0, 57, 55
1, 253584, Control_c, 0, 64, 50
1, 253599, Control_c, 0, 64, 0
1, 253702, Control_c, 0, 64, 44
1, 253717, Control_c, 0, 64, 60
1, 253733, Control_c, 0, 64, 65
1, 253736, Note_on_c, 0, 65, 62
1, 253748, Control_c, 0, 64, 68
1, 253750, Note_on_c, 0, 62, 47
1, 253762, Control_c, 0, 64, 72
1, 253777, Control_c, 0, 64, 75
1, 253792, Control_c, 0, 64, 78
1, 253807, Control_c, 0, 64, 80
1, 253822, Control_c, 0, 64, 82
1, 253836, Control_c, 0, 64, 83
1, 253851, Control_c, 0, 64, 84
1, 253866, Control_c, 0, 64, 85
1, 253941, Note_on_c, 0, 55, 70
1, 254003, Note_off_c, 0, 62, 54
1, 254010, Note_off_c, 0, 65, 55
1, 254118, Note_off_c, 0, 47, 52
1, 254163, Note_on_c, 0, 65, 69
1, 254171, Note_on_c, 0, 62, 63
1, 254184, Control_c, 0, 64, 85
1, 254234, Note_off_c, 0, 67, 49
1, 254258, Control_c, 0, 64, 84
1, 254333, Control_c, 0, 64, 84
1, 254362, Control_c, 0, 64, 83
1, 254377, Control_c, 0, 64, 81
1, 254392, Control_c, 0, 64, 78
1, 254393, Note_on_c, 0, 68, 91
1, 254407, Control_c, 0, 64, 75
1, 254407, Note_on_c, 0, 48, 61
1, 254422, Control_c, 0, 64, 71
1, 254436, Control_c, 0, 64, 65
1, 254451, Note_off_c, 0, 65, 58
1, 254451, Control_c, 0, 64, 47
1, 254466, Control_c, 0, 64, 0
1, 254485, Note_off_c, 0, 62, 46
1, 254491, Note_off_c, 0, 55, 51
1, 254571, Control_c, 0, 64, 36
1, 254585, Control_c, 0, 64, 60
1, 254600, Control_c, 0, 64, 65
1, 254615, Control_c, 0, 64, 67
1, 254630, Control_c, 0, 64, 70
1, 254640, Note_on_c, 0, 62, 53
1, 254645, Control_c, 0, 64, 73
1, 254646, Note_on_c, 0, 65, 69
1, 254659, Control_c, 0, 64, 76
1, 254674, Control_c, 0, 64, 80
1, 254689, Control_c, 0, 64, 82
1, 254703, Control_c, 0, 64, 84
1, 254718, Control_c, 0, 64, 85
1, 254733, Control_c, 0, 64, 86
1, 254748, Control_c, 0, 64, 87
1, 254763, Control_c, 0, 64, 88
1, 254854, Note_on_c, 0, 56, 71
1, 254910, Note_off_c, 0, 62, 58
1, 254945, Note_off_c, 0, 65, 56
1, 255075, Note_on_c, 0, 65, 67
1, 255081, Control_c, 0, 64, 87
1, 255083, Note_on_c, 0, 62, 65
1, 255084, Note_off_c, 0, 48, 57
1, 255126, Control_c, 0, 64, 87
1, 255156, Control_c, 0, 64, 86
1, 255185, Control_c, 0, 64, 86
1, 255215, Control_c, 0, 64, 85
1, 255229, Control_c, 0, 64, 84
1, 255244, Control_c, 0, 64, 83
1, 255257, Note_off_c, 0, 62, 54
1, 255259, Control_c, 0, 64, 81
1, 255274, Control_c, 0, 64, 80
1, 255288, Note_on_c, 0, 69, 85
1, 255289, Control_c, 0, 64, 78
1, 255303, Control_c, 0, 64, 75
1, 255306, Note_off_c, 0, 65, 36
1, 255313, Note_on_c, 0, 48, 61
1, 255318, Control_c, 0, 64, 70
1, 255325, Note_off_c, 0, 56, 63
1, 255334, Control_c, 0, 64, 65
1, 255343, Note_off_c, 0, 68, 58
1, 255349, Control_c, 0, 64, 42
1, 255364, Control_c, 0, 64, 0
1, 255482, Control_c, 0, 64, 46
1, 255497, Control_c, 0, 64, 62
1, 255512, Control_c, 0, 64, 66
1, 255516, Note_on_c, 0, 60, 57
1, 255516, Note_on_c, 0, 64, 52
1, 255526, Control_c, 0, 64, 68
1, 255541, Control_c, 0, 64, 71
1, 255564, Control_c, 0, 64, 74
1, 255579, Control_c, 0, 64, 77
1, 255594, Control_c, 0, 64, 79
1, 255609, Control_c, 0, 64, 81
1, 255624, Control_c, 0, 64, 82
1, 255638, Control_c, 0, 64, 83
1, 255653, Control_c, 0, 64, 84
1, 255668, Control_c, 0, 64, 85
1, 255683, Control_c, 0, 64, 85
1, 255726, Note_off_c, 0, 60, 49
1, 255732, Note_on_c, 0, 57, 67
1, 255815, Note_off_c, 0, 48, 35
1, 255826, Note_off_c, 0, 64, 36
1, 255897, Note_off_c, 0, 69, 60
1, 255929, Note_on_c, 0, 64, 60
1, 255931, Note_on_c, 0, 60, 65
1, 255934, Control_c, 0, 64, 85
1, 255949, Control_c, 0, 64, 84
1, 255994, Control_c, 0, 64, 84
1, 256038, Control_c, 0, 64, 83
1, 256083, Control_c, 0, 64, 83
1, 256112, Control_c, 0, 64, 82
1, 256128, Control_c, 0, 64, 82
1, 256143, Control_c, 0, 64, 81
1, 256157, Control_c, 0, 64, 79
1, 256172, Control_c, 0, 64, 78
1, 256187, Note_on_c, 0, 70, 85
1, 256187, Control_c, 0, 64, 76
1, 256201, Note_off_c, 0, 64, 58
1, 256202, Control_c, 0, 64, 73
1, 256208, Note_on_c, 0, 49, 59
1, 256217, Control_c, 0, 64, 68
1, 256222, Note_off_c, 0, 60, 52
1, 256232, Control_c, 0, 64, 63
1, 256247, Control_c, 0, 64, 42
1, 256261, Control_c, 0, 64, 0
1, 256281, Note_off_c, 0, 57, 57
1, 256402, Control_c, 0, 64, 43
1, 256416, Control_c, 0, 64, 61
1, 256431, Control_c, 0, 64, 64
1, 256446, Control_c, 0, 64, 66
1, 256461, Control_c, 0, 64, 68
1, 256476, Control_c, 0, 64, 70
1, 256490, Control_c, 0, 64, 73
1, 256505, Control_c, 0, 64, 76
1, 256512, Note_on_c, 0, 67, 56
1, 256520, Control_c, 0, 64, 79
1, 256529, Note_on_c, 0, 64, 53
1, 256535, Control_c, 0, 64, 80
1, 256550, Control_c, 0, 64, 81
1, 256564, Control_c, 0, 64, 82
1, 256579, Control_c, 0, 64, 83
1, 256609, Control_c, 0, 64, 83
1, 256624, Control_c, 0, 64, 84
1, 256668, Control_c, 0, 64, 84
1, 256729, Note_on_c, 0, 58, 70
1, 256783, Note_off_c, 0, 64, 58
1, 256802, Note_off_c, 0, 67, 57
1, 256820, Note_off_c, 0, 49, 59
1, 256845, Note_on_c, 0, 50, 57
1, 256884, Note_off_c, 0, 50, 62
1, 256949, Note_on_c, 0, 67, 62
1, 256950, Note_on_c, 0, 64, 63
1, 257039, Control_c, 0, 64, 84
1, 257105, Control_c, 0, 64, 83
1, 257111, Note_off_c, 0, 70, 56
1, 257120, Control_c, 0, 64, 83
1, 257135, Control_c, 0, 64, 82
1, 257150, Control_c, 0, 64, 81
1, 257165, Control_c, 0, 64, 80
1, 257177, Note_on_c, 0, 69, 83
1, 257180, Control_c, 0, 64, 78
1, 257187, Note_off_c, 0, 64, 59
1, 257194, Note_on_c, 0, 49, 59
1, 257194, Control_c, 0, 64, 75
1, 257209, Note_off_c, 0, 67, 60
1, 257209, Control_c, 0, 64, 71
1, 257224, Control_c, 0, 64, 65
1, 257233, Note_off_c, 0, 58, 59
1, 257239, Control_c, 0, 64, 48
1, 257254, Control_c, 0, 64, 0
1, 257391, Note_on_c, 0, 67, 60
1, 257406, Note_on_c, 0, 64, 51
1, 257432, Control_c, 0, 64, 58
1, 257447, Control_c, 0, 64, 64
1, 257461, Control_c, 0, 64, 66
1, 257476, Control_c, 0, 64, 67
1, 257491, Control_c, 0, 64, 68
1, 257505, Control_c, 0, 64, 69
1, 257520, Control_c, 0, 64, 71
1, 257535, Control_c, 0, 64, 73
1, 257550, Control_c, 0, 64, 75
1, 257565, Control_c, 0, 64, 76
1, 257579, Control_c, 0, 64, 76
1, 257594, Control_c, 0, 64, 77
1, 257609, Control_c, 0, 64, 77
1, 257624, Control_c, 0, 64, 78
1, 257625, Note_off_c, 0, 64, 56
1, 257627, Note_on_c, 0, 57, 64
1, 257654, Control_c, 0, 64, 79
1, 257658, Note_off_c, 0, 67, 57
1, 257734, Note_off_c, 0, 49, 57
1, 257870, Control_c, 0, 64, 78
1, 257876, Note_on_c, 0, 64, 48
1, 257879, Note_on_c, 0, 67, 56
1, 257928, Control_c, 0, 64, 78
1, 257988, Control_c, 0, 64, 77
1, 258017, Control_c, 0, 64, 77
1, 258032, Control_c, 0, 64, 76
1, 258047, Control_c, 0, 64, 76
1, 258062, Control_c, 0, 64, 75
1, 258077, Control_c, 0, 64, 74
1, 258092, Control_c, 0, 64, 73
1, 258107, Control_c, 0, 64, 71
1, 258121, Control_c, 0, 64, 69
1, 258136, Control_c, 0, 64, 66
1, 258151, Control_c, 0, 64, 63
1, 258160, Note_on_c, 0, 74, 74
1, 258166, Control_c, 0, 64, 57
1, 258175, Note_on_c, 0, 46, 52
1, 258175, Note_off_c, 0, 69, 58
1, 258178, Note_off_c, 0, 57, 26
1, 258181, Control_c, 0, 64, 42
1, 258196, Control_c, 0, 64, 0
1, 258258, Note_off_c, 0, 64, 39
1, 258285, Note_off_c, 0, 67, 33
1, 258358, Control_c, 0, 64, 51
1, 258373, Control_c, 0, 64, 64
1, 258388, Control_c, 0, 64, 68
1, 258402, Control_c, 0, 64, 72
1, 258417, Control_c, 0, 64, 77
1, 258432, Control_c, 0, 64, 80
1, 258446, Control_c, 0, 64, 82
1, 258461, Control_c, 0, 64, 84
1, 258476, Control_c, 0, 64, 86
1, 258491, Control_c, 0, 64, 87
1, 258492, Note_on_c, 0, 67, 52
1, 258500, Note_on_c, 0, 64, 48
1, 258506, Control_c, 0, 64, 88
1, 258520, Note_off_c, 0, 46, 62
1, 258522, Control_c, 0, 64, 89
1, 258559, Control_c, 0, 64, 90
1, 258729, Note_on_c, 0, 62, 61
1, 258750, Note_off_c, 0, 64, 40
1, 258801, Note_off_c, 0, 67, 38
1, 258810, Control_c, 0, 64, 89
1, 258855, Note_off_c, 0, 62, 50
1, 258855, Control_c, 0, 64, 89
1, 258899, Control_c, 0, 64, 88
1, 258914, Control_c, 0, 64, 88
1, 258953, Note_on_c, 0, 67, 48
1, 258958, Control_c, 0, 64, 87
1, 258968, Note_on_c, 0, 64, 41
1, 259003, Control_c, 0, 64, 87
1, 259032, Control_c, 0, 64, 86
1, 259062, Control_c, 0, 64, 86
1, 259091, Control_c, 0, 64, 85
1, 259121, Control_c, 0, 64, 84
1, 259136, Control_c, 0, 64, 84
1, 259150, Control_c, 0, 64, 82
1, 259165, Control_c, 0, 64, 81
1, 259180, Control_c, 0, 64, 77
1, 259187, Note_off_c, 0, 74, 53
1, 259190, Note_on_c, 0, 73, 65
1, 259195, Control_c, 0, 64, 74
1, 259210, Control_c, 0, 64, 69
1, 259214, Note_on_c, 0, 46, 35
1, 259218, Note_off_c, 0, 64, 36
1, 259223, Note_off_c, 0, 67, 56
1, 259224, Control_c, 0, 64, 63
1, 259239, Control_c, 0, 64, 34
1, 259254, Control_c, 0, 64, 0
1, 259367, Control_c, 0, 64, 47
1, 259381, Control_c, 0, 64, 64
1, 259396, Control_c, 0, 64, 69
1, 259411, Control_c, 0, 64, 73
1, 259426, Control_c, 0, 64, 76
1, 259441, Control_c, 0, 64, 79
1, 259455, Control_c, 0, 64, 81
1, 259470, Control_c, 0, 64, 83
1, 259474, Note_on_c, 0, 67, 42
1, 259485, Control_c, 0, 64, 84
1, 259490, Note_on_c, 0, 64, 39
1, 259499, Control_c, 0, 64, 86
1, 259514, Control_c, 0, 64, 87
1, 259529, Control_c, 0, 64, 88
1, 259534, Note_off_c, 0, 46, 41
1, 259544, Control_c, 0, 64, 89
1, 259559, Control_c, 0, 64, 90
1, 259574, Control_c, 0, 64, 91
1, 259603, Control_c, 0, 64, 91
1, 259702, Note_off_c, 0, 64, 38
1, 259715, Note_off_c, 0, 67, 41
1, 259747, Note_on_c, 0, 61, 44
1, 259875, Note_off_c, 0, 61, 56
1, 259959, Control_c, 0, 64, 91
1, 259986, Note_on_c, 0, 67, 50
1, 260003, Control_c, 0, 64, 90
1, 260007, Note_on_c, 0, 64, 36
1, 260032, Note_off_c, 0, 67, 61
1, 260035, Note_off_c, 0, 64, 56
1, 260055, Control_c, 0, 64, 90
1, 260065, Note_off_c, 0, 73, 40
1, 260114, Control_c, 0, 64, 89
1, 260145, Control_c, 0, 64, 89
1, 260175, Control_c, 0, 64, 88
1, 260219, Control_c, 0, 64, 88
1, 260234, Control_c, 0, 64, 87
1, 260264, Control_c, 0, 64, 87
1, 260278, Control_c, 0, 64, 86
1, 260323, Control_c, 0, 64, 86
1, 260352, Control_c, 0, 64, 85
1, 260367, Control_c, 0, 64, 84
1, 260382, Control_c, 0, 64, 83
1, 260396, Control_c, 0, 64, 82
1, 260411, Control_c, 0, 64, 80
1, 260426, Control_c, 0, 64, 78
1, 260437, Note_on_c, 0, 77, 62
1, 260441, Control_c, 0, 64, 75
1, 260456, Control_c, 0, 64, 71
1, 260470, Control_c, 0, 64, 67
1, 260485, Control_c, 0, 64, 62
1, 260500, Control_c, 0, 64, 48
1, 260515, Control_c, 0, 64, 33
1, 260530, Control_c, 0, 64, 28
1, 260575, Control_c, 0, 64, 27
1, 260604, Control_c, 0, 64, 26
1, 260619, Control_c, 0, 64, 24
1, 260634, Control_c, 0, 64, 16
1, 260648, Control_c, 0, 64, 0
1, 260674, Note_on_c, 0, 45, 45
1, 260878, Control_c, 0, 64, 48
1, 260893, Control_c, 0, 64, 64
1, 260908, Control_c, 0, 64, 68
1, 260924, Control_c, 0, 64, 71
1, 260938, Control_c, 0, 64, 74
1, 260953, Control_c, 0, 64, 78
1, 260968, Control_c, 0, 64, 81
1, 260983, Control_c, 0, 64, 84
1, 260998, Control_c, 0, 64, 86
1, 261007, Note_off_c, 0, 45, 42
1, 261013, Control_c, 0, 64, 88
1, 261027, Control_c, 0, 64, 89
1, 261042, Control_c, 0, 64, 91
1, 261057, Control_c, 0, 64, 92
1, 261071, Control_c, 0, 64, 93
1, 261086, Control_c, 0, 64, 94
1, 261101, Control_c, 0, 64, 94
1, 261116, Control_c, 0, 64, 95
1, 261131, Control_c, 0, 64, 95
1, 261135, Note_on_c, 0, 67, 34
1, 261138, Note_on_c, 0, 69, 31
1, 261145, Control_c, 0, 64, 96
1, 261190, Control_c, 0, 64, 96
1, 261386, Note_off_c, 0, 67, 38
1, 261390, Note_off_c, 0, 69, 43
1, 261423, Note_on_c, 0, 65, 40
1, 261435, Note_on_c, 0, 61, 37
1, 261704, Note_on_c, 0, 67, 33
1, 261706, Note_on_c, 0, 69, 38
1, 261964, Note_on_c, 0, 57, 38
1, 261995, Note_off_c, 0, 67, 41
1, 262014, Note_off_c, 0, 69, 36
1, 262028, Note_off_c, 0, 61, 27
1, 262058, Control_c, 0, 64, 96
1, 262176, Control_c, 0, 64, 95
1, 262179, Note_off_c, 0, 77, 49
1, 262193, Note_off_c, 0, 65, 38
1, 262206, Control_c, 0, 64, 95
1, 262231, Note_on_c, 0, 69, 40
1, 262235, Control_c, 0, 64, 94
1, 262251, Note_on_c, 0, 67, 30
1, 262280, Control_c, 0, 64, 94
1, 262302, Control_c, 0, 64, 93
1, 262316, Control_c, 0, 64, 93
1, 262331, Control_c, 0, 64, 92
1, 262361, Control_c, 0, 64, 92
1, 262375, Control_c, 0, 64, 91
1, 262405, Control_c, 0, 64, 91
1, 262420, Control_c, 0, 64, 90
1, 262450, Control_c, 0, 64, 90
1, 262465, Control_c, 0, 64, 89
1, 262494, Control_c, 0, 64, 89
1, 262502, Note_on_c, 0, 76, 68
1, 262524, Note_on_c, 0, 64, 38
1, 262524, Note_off_c, 0, 67, 27
1, 262539, Note_on_c, 0, 61, 31
1, 262541, Note_off_c, 0, 69, 28
1, 262651, Note_off_c, 0, 57, 21
1, 262723, Note_off_c, 0, 76, 48
1, 262748, Note_off_c, 0, 61, 49
1, 262827, Note_on_c, 0, 69, 42
1, 262840, Note_on_c, 0, 67, 46
1, 262897, Note_off_c, 0, 69, 56
1, 262936, Note_off_c, 0, 64, 39
1, 262969, Control_c, 0, 64, 88
1, 263013, Control_c, 0, 64, 88
1, 263028, Control_c, 0, 64, 87
1, 263080, Control_c, 0, 64, 87
1, 263091, Note_off_c, 0, 67, 38
1, 263110, Control_c, 0, 64, 86
1, 263124, Control_c, 0, 64, 86
1, 263139, Control_c, 0, 64, 85
1, 263154, Control_c, 0, 64, 85
1, 263169, Control_c, 0, 64, 84
1, 263184, Control_c, 0, 64, 83
1, 263195, Note_on_c, 0, 74, 56
1, 263198, Control_c, 0, 64, 81
1, 263213, Control_c, 0, 64, 79
1, 263228, Control_c, 0, 64, 78
1, 263237, Note_on_c, 0, 50, 33
1, 263243, Control_c, 0, 64, 76
1, 263258, Control_c, 0, 64, 75
1, 263273, Control_c, 0, 64, 74
1, 263287, Control_c, 0, 64, 72
1, 263302, Control_c, 0, 64, 69
1, 263318, Control_c, 0, 64, 65
1, 263333, Control_c, 0, 64, 58
1, 263347, Control_c, 0, 64, 32
1, 263362, Control_c, 0, 64, 0
1, 263392, Control_c, 0, 64, 27
1, 263407, Control_c, 0, 64, 43
1, 263422, Control_c, 0, 64, 54
1, 263436, Control_c, 0, 64, 60
1, 263451, Control_c, 0, 64, 64
1, 263466, Control_c, 0, 64, 66
1, 263481, Control_c, 0, 64, 68
1, 263496, Control_c, 0, 64, 70
1, 263511, Control_c, 0, 64, 73
1, 263526, Control_c, 0, 64, 75
1, 263540, Control_c, 0, 64, 77
1, 263544, Note_on_c, 0, 69, 46
1, 263553, Note_on_c, 0, 65, 32
1, 263555, Control_c, 0, 64, 79
1, 263570, Control_c, 0, 64, 80
1, 263585, Control_c, 0, 64, 82
1, 263600, Control_c, 0, 64, 83
1, 263614, Control_c, 0, 64, 85
1, 263629, Control_c, 0, 64, 86
1, 263644, Control_c, 0, 64, 87
1, 263657, Note_off_c, 0, 65, 37
1, 263659, Control_c, 0, 64, 89
1, 263673, Control_c, 0, 64, 90
1, 263688, Control_c, 0, 64, 91
1, 263703, Control_c, 0, 64, 92
1, 263718, Control_c, 0, 64, 92
1, 263733, Control_c, 0, 64, 93
1, 263762, Control_c, 0, 64, 93
1, 263800, Control_c, 0, 64, 94
1, 263825, Note_off_c, 0, 74, 35
1, 263829, Control_c, 0, 64, 94
1, 263903, Control_c, 0, 64, 95
1, 263933, Note_on_c, 0, 65, 41
1, 263948, Note_on_c, 0, 62, 36
1, 263972, Note_off_c, 0, 69, 28
1, 263977, Control_c, 0, 64, 95
1, 264018, Note_off_c, 0, 65, 61
1, 264036, Control_c, 0, 64, 96
1, 264054, Note_off_c, 0, 62, 50
1, 264080, Control_c, 0, 64, 96
1, 264259, Control_c, 0, 64, 97
1, 264402, Note_on_c, 0, 62, 50
1, 264441, Note_off_c, 0, 50, 40
1, 264444, Note_on_c, 0, 57, 34
1, 264587, Note_off_c, 0, 62, 54
1, 264627, Note_off_c, 0, 57, 39
1, 264711, Control_c, 0, 64, 96
1, 264726, Control_c, 0, 64, 92
1, 264734, Note_on_c, 0, 50, 77
1, 264741, Control_c, 0, 64, 78
1, 264745, Note_on_c, 0, 38, 67
1, 264756, Control_c, 0, 64, 59
1, 264760, Note_off_c, 0, 50, 67
1, 264768, Note_off_c, 0, 38, 59
1, 264770, Control_c, 0, 64, 0
1, 264770, Control_c, 0, 67, 126
1, 264785, Control_c, 0, 67, 125
1, 264815, Note_on_c, 0, 50, 74
1, 264821, Note_on_c, 0, 38, 53
1, 264843, Note_off_c, 0, 50, 66
1, 264849, Note_off_c, 0, 38, 50
1, 264874, Control_c, 0, 67, 125
1, 264898, Note_on_c, 0, 53, 62
1, 264899, Note_on_c, 0, 57, 64
1, 264927, Note_off_c, 0, 57, 65
1, 264930, Note_off_c, 0, 53, 67
1, 264964, Control_c, 0, 67, 124
1, 264986, Note_on_c, 0, 57, 62
1, 264993, Control_c, 0, 67, 123
1, 265005, Note_off_c, 0, 57, 60
1, 265008, Control_c, 0, 67, 121
1, 265023, Control_c, 0, 67, 113
1, 265037, Control_c, 0, 67, 102
1, 265052, Note_on_c, 0, 53, 64
1, 265052, Control_c, 0, 67, 90
1, 265067, Control_c, 0, 67, 82
1, 265072, Note_off_c, 0, 53, 62
1, 265073, Note_on_c, 0, 57, 33
1, 265074, Note_off_c, 0, 57, 127
1, 265082, Control_c, 0, 67, 80
1, 265097, Control_c, 0, 67, 79
1, 265105, Note_on_c, 0, 57, 44
1, 265112, Control_c, 0, 67, 78
1, 265113, Note_on_c, 0, 53, 79
1, 265127, Control_c, 0, 67, 75
1, 265134, Note_off_c, 0, 57, 63
1, 265137, Note_off_c, 0, 53, 69
1, 265142, Control_c, 0, 67, 71
1, 265156, Control_c, 0, 67, 67
1, 265171, Control_c, 0, 67, 64
1, 265186, Control_c, 0, 67, 62
1, 265201, Control_c, 0, 67, 61
1, 265208, Note_on_c, 0, 65, 65
1, 265210, Note_on_c, 0, 62, 61
1, 265216, Control_c, 0, 67, 61
1, 265230, Control_c, 0, 67, 60
1, 265241, Note_off_c, 0, 62, 62
1, 265245, Note_off_c, 0, 65, 61
1, 265245, Control_c, 0, 67, 58
1, 265260, Control_c, 0, 67, 54
1, 265273, Note_on_c, 0, 57, 63
1, 265275, Control_c, 0, 67, 48
1, 265279, Note_on_c, 0, 53, 58
1, 265297, Control_c, 0, 67, 37
1, 265308, Note_off_c, 0, 57, 65
1, 265309, Note_off_c, 0, 53, 65
1, 265312, Control_c, 0, 67, 23
1, 265327, Control_c, 0, 67, 8
1, 265342, Control_c, 0, 67, 0
1, 265365, Note_on_c, 0, 50, 82
1, 265388, Note_off_c, 0, 50, 67
1, 265397, Note_on_c, 0, 38, 20
1, 265398, Note_off_c, 0, 38, 127
1, 265439, Note_on_c, 0, 50, 74
1, 265447, Poly_aftertouch_c, 0, 38, 127
1, 265458, Poly_aftertouch_c, 0, 38, 0
1, 265465, Note_off_c, 0, 50, 67
1, 265508, Note_on_c, 0, 52, 70
1, 265514, Note_on_c, 0, 57, 55
1, 265541, Note_off_c, 0, 52, 59
1, 265568, Note_off_c, 0, 57, 0
1, 265578, Note_on_c, 0, 57, 60
1, 265605, Note_off_c, 0, 57, 64
1, 265664, Note_on_c, 0, 53, 68
1, 265684, Note_off_c, 0, 53, 65
1, 265693, Note_on_c, 0, 54, 15
1, 265694, Note_off_c, 0, 54, 127
1, 265747, Note_on_c, 0, 52, 55
1, 265757, Note_on_c, 0, 53, 35
1, 265758, Note_off_c, 0, 53, 127
1, 265771, Note_off_c, 0, 52, 59
1, 265791, Note_on_c, 0, 56, 4
1, 265792, Note_off_c, 0, 56, 127
1, 265806, Note_on_c, 0, 62, 65
1, 265815, Note_on_c, 0, 64, 51
1, 265841, Note_off_c, 0, 64, 59
1, 265844, Note_off_c, 0, 62, 61
1, 265866, Note_on_c, 0, 56, 67
1, 265872, Note_on_c, 0, 52, 62
1, 265899, Note_off_c, 0, 52, 67
1, 265899, Note_off_c, 0, 56, 67
1, 265964, Note_on_c, 0, 50, 83
1, 265965, Control_c, 0, 64, 50
1, 265973, Note_on_c, 0, 38, 71
1, 265980, Control_c, 0, 64, 64
1, 265988, Note_off_c, 0, 50, 68
1, 265995, Control_c, 0, 64, 66
1, 266000, Note_off_c, 0, 38, 63
1, 266009, Control_c, 0, 64, 67
1, 266024, Control_c, 0, 64, 67
1, 266051, Note_on_c, 0, 50, 90
1, 266063, Note_on_c, 0, 38, 61
1, 266088, Note_off_c, 0, 50, 64
1, 266090, Note_off_c, 0, 38, 55
1, 266091, Control_c, 0, 64, 67
1, 266127, Note_on_c, 0, 58, 77
1, 266135, Note_on_c, 0, 62, 79
1, 266149, Note_off_c, 0, 58, 70
1, 266159, Note_off_c, 0, 62, 68
1, 266180, Control_c, 0, 64, 66
1, 266195, Control_c, 0, 64, 66
1, 266206, Note_on_c, 0, 62, 94
1, 266209, Control_c, 0, 64, 65
1, 266224, Control_c, 0, 64, 61
1, 266229, Note_off_c, 0, 62, 68
1, 266239, Control_c, 0, 64, 31
1, 266254, Control_c, 0, 64, 0
1, 266276, Note_on_c, 0, 58, 57
1, 266286, Note_on_c, 0, 62, 91
1, 266318, Note_off_c, 0, 62, 63
1, 266328, Note_off_c, 0, 58, 65
1, 266361, Note_on_c, 0, 62, 78
1, 266370, Note_on_c, 0, 58, 75
1, 266398, Note_off_c, 0, 58, 66
1, 266408, Note_off_c, 0, 62, 58
1, 266455, Note_on_c, 0, 70, 72
1, 266459, Note_on_c, 0, 67, 66
1, 266503, Note_off_c, 0, 67, 55
1, 266520, Note_on_c, 0, 62, 78
1, 266522, Note_off_c, 0, 70, 60
1, 266525, Note_on_c, 0, 58, 69
1, 266551, Note_off_c, 0, 58, 65
1, 266554, Note_off_c, 0, 62, 56
1, 266602, Note_on_c, 0, 50, 82
1, 266613, Note_on_c, 0, 38, 62
1, 266626, Note_off_c, 0, 50, 69
1, 266637, Note_off_c, 0, 38, 60
1, 266679, Note_on_c, 0, 50, 86
1, 266683, Note_on_c, 0, 38, 59
1, 266709, Note_off_c, 0, 50, 63
1, 266713, Note_off_c, 0, 38, 48
1, 266747, Note_on_c, 0, 57, 78
1, 266752, Note_on_c, 0, 62, 73
1, 266770, Note_off_c, 0, 57, 68
1, 266784, Note_off_c, 0, 62, 66
1, 266834, Note_on_c, 0, 62, 79
1, 266856, Note_off_c, 0, 62, 68
1, 266902, Note_on_c, 0, 61, 86
1, 266909, Note_on_c, 0, 57, 65
1, 266933, Note_off_c, 0, 61, 63
1, 266936, Note_off_c, 0, 57, 64
1, 266967, Note_on_c, 0, 61, 75
1, 266977, Note_on_c, 0, 57, 83
1, 267001, Note_off_c, 0, 61, 64
1, 267005, Note_off_c, 0, 57, 66
1, 267053, Note_on_c, 0, 67, 65
1, 267054, Note_on_c, 0, 69, 68
1, 267084, Note_off_c, 0, 67, 63
1, 267092, Note_off_c, 0, 69, 56
1, 267121, Note_on_c, 0, 61, 82
1, 267128, Note_on_c, 0, 57, 72
1, 267151, Note_off_c, 0, 61, 63
1, 267156, Note_off_c, 0, 57, 64
1, 267209, Control_c, 0, 64, 43
1, 267210, Note_on_c, 0, 50, 76
1, 267224, Control_c, 0, 64, 57
1, 267226, Note_on_c, 0, 36, 54
1, 267234, Note_on_c, 0, 38, 36
1, 267235, Note_off_c, 0, 50, 68
1, 267239, Control_c, 0, 64, 50
1, 267242, Note_on_c, 0, 48, 35
1, 267243, Note_off_c, 0, 48, 127
1, 267254, Control_c, 0, 64, 0
1, 267257, Note_off_c, 0, 36, 57
1, 267274, Note_off_c, 0, 38, 0
1, 267274, Note_on_c, 0, 38, 34
1, 267289, Note_on_c, 0, 50, 77
1, 267315, Note_off_c, 0, 38, 60
1, 267323, Note_off_c, 0, 50, 64
1, 267353, Note_on_c, 0, 65, 74
1, 267356, Note_on_c, 0, 62, 76
1, 267377, Note_off_c, 0, 65, 70
1, 267381, Note_off_c, 0, 62, 66
1, 267419, Note_on_c, 0, 65, 82
1, 267438, Note_off_c, 0, 65, 72
1, 267501, Note_on_c, 0, 64, 85
1, 267505, Note_on_c, 0, 60, 74
1, 267521, Note_off_c, 0, 64, 70
1, 267535, Note_off_c, 0, 60, 69
1, 267578, Note_on_c, 0, 64, 76
1, 267583, Note_on_c, 0, 60, 81
1, 267604, Note_off_c, 0, 64, 67
1, 267613, Note_off_c, 0, 60, 66
1, 267663, Note_on_c, 0, 69, 59
1, 267718, Note_on_c, 0, 64, 77
1, 267720, Note_on_c, 0, 60, 70
1, 267723, Note_off_c, 0, 69, 64
1, 267741, Note_off_c, 0, 64, 70
1, 267746, Note_off_c, 0, 60, 67
1, 267804, Note_on_c, 0, 50, 84
1, 267812, Note_on_c, 0, 38, 72
1, 267828, Note_off_c, 0, 50, 68
1, 267844, Note_off_c, 0, 38, 59
1, 267878, Note_on_c, 0, 50, 83
1, 267892, Poly_aftertouch_c, 0, 38, 0
1, 267909, Note_off_c, 0, 50, 63
1, 267937, Note_on_c, 0, 58, 76
1, 267938, Note_on_c, 0, 62, 79
1, 267961, Note_off_c, 0, 58, 70
1, 267963, Note_off_c, 0, 62, 68
1, 268021, Note_on_c, 0, 58, 65
1, 268024, Note_on_c, 0, 62, 69
1, 268038, Note_off_c, 0, 58, 66
1, 268041, Note_off_c, 0, 62, 64
1, 268088, Note_on_c, 0, 60, 89
1, 268096, Note_on_c, 0, 57, 77
1, 268114, Note_off_c, 0, 60, 63
1, 268119, Note_off_c, 0, 57, 67
1, 268164, Note_on_c, 0, 57, 86
1, 268167, Note_on_c, 0, 60, 82
1, 268191, Note_off_c, 0, 60, 64
1, 268201, Note_off_c, 0, 57, 66
1, 268240, Note_on_c, 0, 65, 70
1, 268308, Note_off_c, 0, 65, 59
1, 268316, Note_on_c, 0, 60, 71
1, 268319, Note_on_c, 0, 57, 68
1, 268343, Note_off_c, 0, 60, 66
1, 268344, Note_off_c, 0, 57, 65
1, 268397, Note_on_c, 0, 43, 86
1, 268402, Note_on_c, 0, 31, 81
1, 268426, Note_off_c, 0, 43, 64
1, 268429, Note_off_c, 0, 31, 60
1, 268480, Note_on_c, 0, 43, 69
1, 268480, Poly_aftertouch_c, 0, 31, 0
1, 268510, Note_off_c, 0, 43, 62
1, 268545, Note_on_c, 0, 57, 70
1, 268575, Note_on_c, 0, 60, 9
1, 268579, Note_off_c, 0, 57, 56
1, 268645, Note_off_c, 0, 60, 63
1, 268694, Note_on_c, 0, 58, 82
1, 268706, Note_on_c, 0, 55, 62
1, 268716, Note_off_c, 0, 58, 70
1, 268727, Note_off_c, 0, 55, 63
1, 268763, Note_on_c, 0, 58, 81
1, 268769, Note_on_c, 0, 55, 78
1, 268787, Note_off_c, 0, 58, 69
1, 268793, Note_off_c, 0, 55, 69
1, 268848, Note_on_c, 0, 64, 68
1, 268901, Note_off_c, 0, 64, 61
1, 268905, Note_on_c, 0, 58, 81
1, 268923, Note_on_c, 0, 55, 55
1, 268937, Note_off_c, 0, 58, 66
1, 268947, Note_off_c, 0, 55, 59
1, 268996, Note_on_c, 0, 45, 81
1, 269003, Note_on_c, 0, 33, 72
1, 269026, Note_off_c, 0, 45, 65
1, 269045, Note_off_c, 0, 33, 0
1, 269069, Note_on_c, 0, 45, 72
1, 269082, Poly_aftertouch_c, 0, 33, 127
1, 269094, Poly_aftertouch_c, 0, 33, 0
1, 269110, Note_off_c, 0, 45, 66
1, 269148, Note_on_c, 0, 57, 72
1, 269163, Note_on_c, 0, 55, 57
1, 269172, Note_off_c, 0, 57, 66
1, 269188, Note_off_c, 0, 55, 58
1, 269214, Note_on_c, 0, 57, 85
1, 269222, Note_on_c, 0, 55, 65
1, 269240, Note_off_c, 0, 57, 66
1, 269250, Note_off_c, 0, 55, 66
1, 269303, Note_on_c, 0, 57, 87
1, 269304, Note_on_c, 0, 55, 84
1, 269324, Note_off_c, 0, 57, 71
1, 269325, Note_off_c, 0, 55, 71
1, 269376, Note_on_c, 0, 57, 91
1, 269378, Note_on_c, 0, 55, 83
1, 269413, Note_off_c, 0, 57, 62
1, 269417, Note_off_c, 0, 55, 67
1, 269443, Note_on_c, 0, 61, 77
1, 269491, Note_off_c, 0, 61, 51
1, 269510, Note_on_c, 0, 57, 86
1, 269515, Note_on_c, 0, 55, 82
1, 269538, Note_off_c, 0, 55, 69
1, 269538, Note_off_c, 0, 57, 65
1, 269591, Note_on_c, 0, 50, 101
1, 269596, Note_on_c, 0, 38, 86
1, 269604, Control_c, 0, 64, 43
1, 269619, Control_c, 0, 64, 79
1, 269620, Note_off_c, 0, 50, 66
1, 269625, Note_off_c, 0, 38, 67
1, 269634, Control_c, 0, 64, 94
1, 269649, Control_c, 0, 64, 102
1, 269664, Control_c, 0, 64, 103
1, 269670, Note_on_c, 0, 50, 94
1, 269678, Note_on_c, 0, 38, 73
1, 269678, Control_c, 0, 64, 103
1, 269693, Control_c, 0, 64, 104
1, 269702, Note_off_c, 0, 38, 65
1, 269707, Note_on_c, 0, 40, 43
1, 269709, Note_off_c, 0, 50, 65
1, 269709, Control_c, 0, 64, 105
1, 269724, Control_c, 0, 64, 106
1, 269739, Control_c, 0, 64, 107
1, 269740, Note_off_c, 0, 40, 52
1, 269747, Note_on_c, 0, 65, 87
1, 269751, Note_on_c, 0, 69, 86
1, 269754, Control_c, 0, 64, 110
1, 269769, Control_c, 0, 64, 113
1, 269770, Note_off_c, 0, 69, 75
1, 269774, Note_off_c, 0, 65, 65
1, 269791, Control_c, 0, 64, 118
1, 269806, Control_c, 0, 64, 125
1, 269821, Control_c, 0, 64, 127
1, 269825, Note_on_c, 0, 69, 99
1, 269831, Note_on_c, 0, 65, 63
1, 269845, Note_off_c, 0, 65, 71
1, 269851, Note_off_c, 0, 69, 66
1, 269880, Control_c, 0, 64, 105
1, 269895, Control_c, 0, 64, 79
1, 269909, Control_c, 0, 64, 0
1, 269910, Note_on_c, 0, 65, 79
1, 269914, Note_on_c, 0, 69, 89
1, 269935, Note_off_c, 0, 69, 67
1, 269942, Note_off_c, 0, 65, 67
1, 269944, Note_on_c, 0, 67, 40
1, 269945, Note_off_c, 0, 67, 127
1, 269972, Note_on_c, 0, 65, 74
1, 269975, Note_on_c, 0, 69, 82
1, 270014, Note_off_c, 0, 69, 67
1, 270021, Note_off_c, 0, 65, 67
1, 270063, Note_on_c, 0, 77, 73
1, 270063, Note_on_c, 0, 74, 76
1, 270096, Note_off_c, 0, 74, 60
1, 270131, Note_on_c, 0, 69, 90
1, 270135, Note_on_c, 0, 65, 88
1, 270141, Note_off_c, 0, 77, 51
1, 270160, Note_off_c, 0, 65, 66
1, 270167, Note_off_c, 0, 69, 68
1, 270203, Note_on_c, 0, 64, 95
1, 270207, Note_on_c, 0, 52, 86
1, 270221, Control_c, 0, 64, 58
1, 270225, Note_off_c, 0, 64, 67
1, 270235, Control_c, 0, 64, 69
1, 270238, Note_off_c, 0, 52, 60
1, 270250, Control_c, 0, 64, 72
1, 270265, Control_c, 0, 64, 72
1, 270273, Note_on_c, 0, 52, 76
1, 270277, Note_on_c, 0, 64, 86
1, 270280, Control_c, 0, 64, 73
1, 270295, Control_c, 0, 64, 73
1, 270308, Note_off_c, 0, 52, 69
1, 270309, Control_c, 0, 64, 74
1, 270319, Note_off_c, 0, 64, 64
1, 270324, Control_c, 0, 64, 74
1, 270339, Control_c, 0, 64, 75
1, 270349, Note_on_c, 0, 64, 80
1, 270354, Control_c, 0, 64, 75
1, 270362, Note_on_c, 0, 69, 82
1, 270382, Note_off_c, 0, 64, 63
1, 270382, Note_off_c, 0, 69, 72
1, 270383, Control_c, 0, 64, 77
1, 270398, Control_c, 0, 64, 78
1, 270413, Control_c, 0, 64, 79
1, 270427, Control_c, 0, 64, 80
1, 270437, Note_on_c, 0, 69, 92
1, 270473, Note_off_c, 0, 69, 64
1, 270487, Control_c, 0, 64, 76
1, 270503, Control_c, 0, 64, 62
1, 270507, Note_on_c, 0, 68, 101
1, 270513, Note_on_c, 0, 64, 80
1, 270518, Control_c, 0, 64, 0
1, 270548, Note_off_c, 0, 64, 64
1, 270549, Note_off_c, 0, 68, 66
1, 270583, Note_on_c, 0, 68, 83
1, 270584, Note_on_c, 0, 64, 81
1, 270617, Note_off_c, 0, 68, 66
1, 270624, Note_off_c, 0, 64, 65
1, 270655, Note_on_c, 0, 74, 78
1, 270655, Note_on_c, 0, 76, 79
1, 270692, Note_off_c, 0, 74, 61
1, 270719, Note_off_c, 0, 76, 53
1, 270728, Note_on_c, 0, 68, 87
1, 270731, Note_on_c, 0, 64, 81
1, 270754, Note_off_c, 0, 64, 70
1, 270757, Note_off_c, 0, 68, 63
1, 270797, Note_on_c, 0, 60, 96
1, 270799, Note_on_c, 0, 48, 88
1, 270821, Note_off_c, 0, 60, 63
1, 270821, Control_c, 0, 64, 52
1, 270826, Note_off_c, 0, 48, 67
1, 270836, Control_c, 0, 64, 72
1, 270850, Control_c, 0, 64, 79
1, 270865, Control_c, 0, 64, 81
1, 270871, Note_on_c, 0, 60, 92
1, 270874, Note_on_c, 0, 48, 80
1, 270880, Control_c, 0, 64, 81
1, 270895, Control_c, 0, 64, 82
1, 270898, Note_off_c, 0, 48, 70
1, 270910, Control_c, 0, 64, 83
1, 270923, Note_off_c, 0, 60, 62
1, 270924, Control_c, 0, 64, 84
1, 270939, Control_c, 0, 64, 85
1, 270940, Note_on_c, 0, 63, 89
1, 270949, Note_on_c, 0, 67, 85
1, 270954, Control_c, 0, 64, 86
1, 270961, Note_off_c, 0, 63, 69
1, 270969, Note_off_c, 0, 67, 71
1, 270969, Control_c, 0, 64, 87
1, 270984, Control_c, 0, 64, 89
1, 270999, Control_c, 0, 64, 91
1, 271014, Control_c, 0, 64, 93
1, 271020, Note_on_c, 0, 67, 92
1, 271029, Control_c, 0, 64, 96
1, 271038, Note_off_c, 0, 67, 69
1, 271044, Control_c, 0, 64, 96
1, 271058, Control_c, 0, 64, 97
1, 271073, Control_c, 0, 64, 94
1, 271082, Note_on_c, 0, 63, 18
1, 271088, Control_c, 0, 64, 82
1, 271095, Note_on_c, 0, 67, 92
1, 271103, Control_c, 0, 64, 58
1, 271118, Control_c, 0, 64, 0
1, 271120, Note_off_c, 0, 67, 63
1, 271134, Note_off_c, 0, 63, 66
1, 271166, Note_on_c, 0, 63, 80
1, 271168, Note_on_c, 0, 67, 87
1, 271208, Note_off_c, 0, 63, 66
1, 271214, Note_off_c, 0, 67, 60
1, 271242, Note_on_c, 0, 73, 75
1, 271258, Note_on_c, 0, 75, 71
1, 271258, Note_off_c, 0, 73, 66
1, 271282, Note_on_c, 0, 72, 62
1, 271322, Note_off_c, 0, 72, 62
1, 271324, Note_off_c, 0, 75, 58
1, 271328, Note_on_c, 0, 63, 84
1, 271330, Note_on_c, 0, 67, 81
1, 271356, Note_off_c, 0, 67, 63
1, 271359, Note_off_c, 0, 63, 63
1, 271404, Note_on_c, 0, 62, 93
1, 271411, Note_on_c, 0, 50, 81
1, 271422, Control_c, 0, 64, 65
1, 271425, Note_off_c, 0, 62, 69
1, 271436, Note_off_c, 0, 50, 67
1, 271437, Control_c, 0, 64, 74
1, 271452, Control_c, 0, 64, 77
1, 271479, Note_on_c, 0, 62, 94
1, 271481, Control_c, 0, 64, 78
1, 271485, Note_on_c, 0, 50, 84
1, 271496, Control_c, 0, 64, 78
1, 271506, Note_off_c, 0, 50, 70
1, 271511, Control_c, 0, 64, 79
1, 271525, Note_off_c, 0, 62, 60
1, 271526, Control_c, 0, 64, 79
1, 271549, Note_on_c, 0, 62, 73
1, 271554, Note_on_c, 0, 67, 81
1, 271555, Control_c, 0, 64, 80
1, 271570, Control_c, 0, 64, 80
1, 271576, Note_off_c, 0, 67, 69
1, 271580, Note_off_c, 0, 62, 57
1, 271585, Control_c, 0, 64, 81
1, 271600, Control_c, 0, 64, 82
1, 271614, Control_c, 0, 64, 82
1, 271628, Note_on_c, 0, 67, 80
1, 271629, Control_c, 0, 64, 83
1, 271658, Note_off_c, 0, 67, 60
1, 271673, Control_c, 0, 64, 81
1, 271688, Control_c, 0, 64, 70
1, 271697, Note_on_c, 0, 66, 88
1, 271703, Control_c, 0, 64, 0
1, 271708, Note_on_c, 0, 62, 65
1, 271717, Note_off_c, 0, 66, 71
1, 271736, Note_off_c, 0, 62, 66
1, 271768, Note_on_c, 0, 66, 96
1, 271774, Note_on_c, 0, 62, 85
1, 271801, Note_off_c, 0, 66, 67
1, 271804, Note_off_c, 0, 62, 65
1, 271852, Note_on_c, 0, 72, 81
1, 271860, Note_on_c, 0, 74, 69
1, 271888, Note_off_c, 0, 74, 58
1, 271923, Note_on_c, 0, 66, 84
1, 271926, Note_on_c, 0, 62, 74
1, 271926, Note_off_c, 0, 72, 61
1, 271953, Note_off_c, 0, 62, 65
1, 271958, Note_off_c, 0, 66, 68
1, 271996, Note_on_c, 0, 55, 77
1, 271998, Note_on_c, 0, 43, 75
1, 271999, Control_c, 0, 64, 50
1, 272014, Control_c, 0, 64, 74
1, 272029, Note_off_c, 0, 55, 67
1, 272036, Control_c, 0, 64, 84
1, 272048, Note_off_c, 0, 43, 0
1, 272051, Control_c, 0, 64, 89
1, 272066, Control_c, 0, 64, 91
1, 272071, Note_on_c, 0, 55, 93
1, 272081, Control_c, 0, 64, 92
1, 272085, Poly_aftertouch_c, 0, 43, 127
1, 272095, Poly_aftertouch_c, 0, 43, 0
1, 272096, Control_c, 0, 64, 93
1, 272111, Note_off_c, 0, 55, 63
1, 272160, Note_on_c, 0, 67, 91
1, 272165, Note_on_c, 0, 70, 90
1, 272186, Note_off_c, 0, 67, 62
1, 272194, Note_off_c, 0, 70, 62
1, 272259, Note_on_c, 0, 73, 79
1, 272275, Control_c, 0, 64, 90
1, 272279, Note_off_c, 0, 73, 71
1, 272290, Control_c, 0, 64, 86
1, 272303, Note_on_c, 0, 69, 104
1, 272304, Control_c, 0, 64, 83
1, 272310, Note_on_c, 0, 60, 83
1, 272314, Note_on_c, 0, 66, 64
1, 272321, Note_on_c, 0, 57, 66
1, 272328, Note_on_c, 0, 65, 69
1, 272334, Note_off_c, 0, 66, 66
1, 272338, Note_off_c, 0, 69, 66
1, 272341, Note_off_c, 0, 60, 60
1, 272345, Note_off_c, 0, 65, 66
1, 272349, Control_c, 0, 64, 83
1, 272349, Note_off_c, 0, 57, 66
1, 272364, Control_c, 0, 64, 84
1, 272378, Control_c, 0, 64, 85
1, 272394, Note_on_c, 0, 69, 97
1, 272405, Note_on_c, 0, 57, 80
1, 272405, Note_on_c, 0, 66, 80
1, 272409, Note_on_c, 0, 60, 70
1, 272430, Note_off_c, 0, 66, 68
1, 272432, Note_off_c, 0, 69, 63
1, 272439, Note_off_c, 0, 60, 64
1, 272449, Note_off_c, 0, 57, 63
1, 272466, Note_on_c, 0, 81, 87
1, 272497, Control_c, 0, 64, 84
1, 272511, Control_c, 0, 64, 81
1, 272522, Note_on_c, 0, 69, 88
1, 272522, Note_on_c, 0, 72, 85
1, 272526, Control_c, 0, 64, 72
1, 272529, Note_off_c, 0, 81, 58
1, 272541, Control_c, 0, 64, 0
1, 272552, Note_off_c, 0, 69, 68
1, 272557, Note_off_c, 0, 72, 65
1, 272603, Note_on_c, 0, 58, 98
1, 272608, Note_on_c, 0, 46, 97
1, 272632, Note_off_c, 0, 58, 62
1, 272637, Note_off_c, 0, 46, 62
1, 272644, Control_c, 0, 64, 69
1, 272645, Note_on_c, 0, 56, 21
1, 272646, Note_off_c, 0, 56, 127
1, 272659, Control_c, 0, 64, 79
1, 272674, Control_c, 0, 64, 89
1, 272680, Note_on_c, 0, 46, 83
1, 272682, Note_on_c, 0, 58, 89
1, 272682, Poly_aftertouch_c, 0, 56, 0
1, 272689, Control_c, 0, 64, 96
1, 272704, Control_c, 0, 64, 100
1, 272719, Control_c, 0, 64, 101
1, 272722, Note_off_c, 0, 46, 62
1, 272725, Note_off_c, 0, 58, 65
1, 272759, Note_on_c, 0, 67, 79
1, 272760, Note_on_c, 0, 62, 80
1, 272790, Note_off_c, 0, 62, 67
1, 272791, Note_off_c, 0, 67, 66
1, 272832, Note_on_c, 0, 67, 82
1, 272862, Note_off_c, 0, 67, 64
1, 272901, Note_on_c, 0, 65, 101
1, 272905, Note_on_c, 0, 62, 80
1, 272907, Note_on_c, 0, 59, 83
1, 272927, Note_off_c, 0, 62, 67
1, 272933, Note_off_c, 0, 65, 69
1, 272938, Note_off_c, 0, 59, 63
1, 272949, Control_c, 0, 64, 101
1, 272996, Note_on_c, 0, 65, 89
1, 272999, Note_on_c, 0, 62, 81
1, 273000, Note_on_c, 0, 59, 73
1, 273025, Note_off_c, 0, 62, 65
1, 273036, Note_off_c, 0, 59, 60
1, 273041, Note_off_c, 0, 65, 59
1, 273082, Note_on_c, 0, 76, 63
1, 273087, Note_on_c, 0, 74, 62
1, 273105, Note_off_c, 0, 76, 68
1, 273142, Note_on_c, 0, 65, 81
1, 273142, Note_off_c, 0, 74, 61
1, 273145, Note_on_c, 0, 62, 76
1, 273165, Note_off_c, 0, 65, 71
1, 273170, Note_off_c, 0, 62, 60
1, 273171, Control_c, 0, 64, 96
1, 273186, Control_c, 0, 64, 81
1, 273200, Control_c, 0, 64, 62
1, 273215, Note_on_c, 0, 60, 95
1, 273215, Control_c, 0, 64, 0
1, 273223, Note_on_c, 0, 48, 80
1, 273243, Note_off_c, 0, 60, 62
1, 273245, Control_c, 0, 64, 55
1, 273253, Note_off_c, 0, 48, 65
1, 273259, Control_c, 0, 64, 61
1, 273274, Control_c, 0, 64, 65
1, 273289, Control_c, 0, 64, 71
1, 273296, Note_on_c, 0, 48, 76
1, 273301, Note_on_c, 0, 60, 83
1, 273304, Control_c, 0, 64, 79
1, 273319, Control_c, 0, 64, 85
1, 273330, Note_off_c, 0, 48, 68
1, 273332, Note_off_c, 0, 60, 57
1, 273333, Control_c, 0, 64, 87
1, 273348, Control_c, 0, 64, 88
1, 273384, Note_on_c, 0, 62, 72
1, 273396, Note_on_c, 0, 65, 57
1, 273408, Control_c, 0, 64, 89
1, 273416, Note_off_c, 0, 65, 62
1, 273422, Control_c, 0, 64, 89
1, 273430, Note_off_c, 0, 62, 0
1, 273437, Control_c, 0, 64, 91
1, 273446, Note_on_c, 0, 65, 68
1, 273452, Control_c, 0, 64, 92
1, 273455, Poly_aftertouch_c, 0, 62, 0
1, 273467, Control_c, 0, 64, 92
1, 273475, Note_off_c, 0, 65, 68
1, 273482, Control_c, 0, 64, 92
1, 273497, Control_c, 0, 64, 87
1, 273512, Control_c, 0, 64, 74
1, 273533, Control_c, 0, 64, 0
1, 273539, Note_on_c, 0, 64, 88
1, 273555, Note_on_c, 0, 60, 66
1, 273559, Note_off_c, 0, 64, 71
1, 273571, Note_off_c, 0, 60, 65
1, 273612, Note_on_c, 0, 64, 85
1, 273624, Note_on_c, 0, 60, 77
1, 273632, Note_off_c, 0, 64, 71
1, 273649, Note_off_c, 0, 60, 68
1, 273694, Note_on_c, 0, 72, 59
1, 273722, Note_off_c, 0, 72, 61
1, 273748, Note_on_c, 0, 64, 66
1, 273756, Note_on_c, 0, 60, 67
1, 273776, Note_off_c, 0, 64, 67
1, 273783, Note_off_c, 0, 60, 67
1, 273830, Note_on_c, 0, 53, 87
1, 273840, Note_on_c, 0, 41, 70
1, 273854, Note_off_c, 0, 53, 69
1, 273865, Note_off_c, 0, 41, 65
1, 273910, Note_on_c, 0, 53, 76
1, 273929, Note_on_c, 0, 41, 58
1, 273941, Note_off_c, 0, 53, 67
1, 273956, Note_off_c, 0, 41, 59
1, 273980, Note_on_c, 0, 65, 65
1, 273980, Note_on_c, 0, 69, 67
1, 273993, Note_on_c, 0, 60, 51
1, 273997, Note_off_c, 0, 65, 65
1, 274007, Note_off_c, 0, 69, 68
1, 274045, Note_off_c, 0, 60, 0
1, 274045, Note_on_c, 0, 69, 69
1, 274053, Note_on_c, 0, 60, 56
1, 274069, Note_on_c, 0, 65, 59
1, 274073, Note_off_c, 0, 60, 63
1, 274074, Note_off_c, 0, 69, 66
1, 274090, Note_off_c, 0, 65, 39
1, 274132, Note_on_c, 0, 53, 83
1, 274151, Note_on_c, 0, 41, 54
1, 274155, Note_off_c, 0, 53, 70
1, 274182, Note_off_c, 0, 41, 58
1, 274215, Note_on_c, 0, 53, 85
1, 274242, Note_on_c, 0, 41, 48
1, 274248, Note_off_c, 0, 53, 63
1, 274275, Note_on_c, 0, 60, 59
1, 274278, Note_on_c, 0, 57, 55
1, 274280, Note_on_c, 0, 65, 48
1, 274280, Note_off_c, 0, 41, 54
1, 274293, Note_off_c, 0, 60, 61
1, 274317, Note_off_c, 0, 65, 0
1, 274323, Note_off_c, 0, 57, 0
1, 274328, Note_on_c, 0, 65, 65
1, 274333, Note_on_c, 0, 57, 62
1, 274346, Note_on_c, 0, 60, 61
1, 274361, Note_off_c, 0, 57, 63
1, 274364, Note_off_c, 0, 60, 63
1, 274382, Note_off_c, 0, 65, 64
1, 274415, Control_c, 0, 64, 48
1, 274418, Note_on_c, 0, 52, 86
1, 274425, Note_on_c, 0, 40, 74
1, 274430, Control_c, 0, 64, 73
1, 274445, Note_off_c, 0, 52, 67
1, 274445, Control_c, 0, 64, 84
1, 274457, Note_off_c, 0, 40, 65
1, 274460, Control_c, 0, 64, 91
1, 274475, Control_c, 0, 64, 94
1, 274490, Control_c, 0, 64, 94
1, 274497, Note_on_c, 0, 52, 82
1, 274505, Note_on_c, 0, 40, 69
1, 274505, Control_c, 0, 64, 95
1, 274528, Note_off_c, 0, 40, 66
1, 274546, Note_off_c, 0, 52, 59
1, 274554, Note_on_c, 0, 55, 76
1, 274562, Note_on_c, 0, 58, 68
1, 274563, Note_on_c, 0, 60, 74
1, 274580, Note_off_c, 0, 55, 67
1, 274588, Note_off_c, 0, 60, 65
1, 274591, Note_off_c, 0, 58, 67
1, 274635, Note_on_c, 0, 60, 88
1, 274648, Note_on_c, 0, 58, 55
1, 274653, Note_off_c, 0, 60, 68
1, 274666, Note_off_c, 0, 58, 64
1, 274683, Control_c, 0, 64, 92
1, 274698, Control_c, 0, 64, 78
1, 274713, Control_c, 0, 64, 41
1, 274719, Note_on_c, 0, 58, 76
1, 274719, Note_on_c, 0, 60, 87
1, 274725, Note_on_c, 0, 55, 64
1, 274728, Control_c, 0, 64, 0
1, 274740, Note_off_c, 0, 58, 70
1, 274740, Note_off_c, 0, 60, 68
1, 274752, Note_off_c, 0, 55, 67
1, 274792, Note_on_c, 0, 58, 81
1, 274803, Note_on_c, 0, 60, 70
1, 274811, Note_on_c, 0, 55, 69
1, 274818, Note_off_c, 0, 58, 66
1, 274826, Note_off_c, 0, 60, 67
1, 274830, Note_off_c, 0, 55, 63
1, 274859, Note_on_c, 0, 70, 79
1, 274892, Note_on_c, 0, 64, 40
1, 274925, Note_off_c, 0, 64, 0
1, 274925, Note_on_c, 0, 64, 19
1, 274929, Note_off_c, 0, 70, 61
1, 274934, Note_on_c, 0, 58, 75
1, 274939, Note_on_c, 0, 60, 67
1, 274964, Note_off_c, 0, 58, 63
1, 274966, Note_off_c, 0, 60, 67
1, 274978, Note_off_c, 0, 64, 64
1, 275004, Note_on_c, 0, 53, 88
1, 275009, Control_c, 0, 64, 48
1, 275011, Note_on_c, 0, 41, 74
1, 275031, Control_c, 0, 64, 67
1, 275039, Note_off_c, 0, 53, 65
1, 275047, Control_c, 0, 64, 71
1, 275048, Note_off_c, 0, 41, 63
1, 275062, Control_c, 0, 64, 72
1, 275077, Control_c, 0, 64, 73
1, 275087, Note_on_c, 0, 53, 75
1, 275092, Control_c, 0, 64, 74
1, 275095, Note_on_c, 0, 41, 68
1, 275106, Control_c, 0, 64, 75
1, 275125, Note_off_c, 0, 41, 67
1, 275132, Note_off_c, 0, 53, 63
1, 275136, Control_c, 0, 64, 75
1, 275162, Note_on_c, 0, 60, 80
1, 275168, Note_on_c, 0, 57, 68
1, 275184, Note_off_c, 0, 60, 68
1, 275194, Note_off_c, 0, 57, 66
1, 275210, Control_c, 0, 64, 76
1, 275224, Control_c, 0, 64, 77
1, 275232, Note_on_c, 0, 60, 85
1, 275253, Note_off_c, 0, 60, 70
1, 275284, Control_c, 0, 64, 74
1, 275300, Control_c, 0, 64, 63
1, 275311, Note_on_c, 0, 56, 91
1, 275315, Control_c, 0, 64, 0
1, 275317, Note_on_c, 0, 59, 85
1, 275337, Note_off_c, 0, 59, 68
1, 275341, Note_off_c, 0, 56, 63
1, 275401, Note_on_c, 0, 56, 77
1, 275404, Note_on_c, 0, 59, 79
1, 275428, Note_off_c, 0, 56, 65
1, 275428, Note_off_c, 0, 59, 65
1, 275460, Note_on_c, 0, 68, 78
1, 275531, Note_on_c, 0, 56, 75
1, 275531, Note_on_c, 0, 59, 67
1, 275539, Note_off_c, 0, 68, 63
1, 275561, Note_off_c, 0, 59, 66
1, 275564, Note_off_c, 0, 56, 61
1, 275610, Note_on_c, 0, 55, 87
1, 275619, Note_on_c, 0, 43, 72
1, 275636, Note_off_c, 0, 55, 66
1, 275644, Note_off_c, 0, 43, 63
1, 275697, Note_on_c, 0, 55, 77
1, 275705, Note_on_c, 0, 43, 71
1, 275730, Note_off_c, 0, 43, 62
1, 275730, Note_off_c, 0, 55, 60
1, 275765, Note_on_c, 0, 55, 67
1, 275777, Note_on_c, 0, 59, 75
1, 275801, Note_off_c, 0, 59, 69
1, 275803, Note_off_c, 0, 55, 67
1, 275853, Note_on_c, 0, 59, 70
1, 275877, Note_off_c, 0, 59, 66
1, 275886, Note_on_c, 0, 55, 11
1, 275924, Note_off_c, 0, 55, 0
1, 275924, Note_on_c, 0, 55, 38
1, 275933, Note_on_c, 0, 53, 77
1, 275954, Note_off_c, 0, 55, 65
1, 275959, Note_off_c, 0, 53, 71
1, 276000, Note_on_c, 0, 55, 80
1, 276006, Note_on_c, 0, 53, 79
1, 276032, Note_off_c, 0, 53, 69
1, 276033, Note_off_c, 0, 55, 64
1, 276070, Note_on_c, 0, 65, 75
1, 276128, Note_off_c, 0, 65, 59
1, 276142, Note_on_c, 0, 59, 68
1, 276145, Note_on_c, 0, 55, 73
1, 276160, Note_on_c, 0, 53, 55
1, 276171, Note_off_c, 0, 59, 65
1, 276173, Note_off_c, 0, 55, 64
1, 276183, Note_off_c, 0, 53, 62
1, 276220, Note_on_c, 0, 48, 88
1, 276227, Note_on_c, 0, 36, 76
1, 276245, Note_off_c, 0, 48, 68
1, 276255, Note_off_c, 0, 36, 64
1, 276299, Note_on_c, 0, 48, 83
1, 276313, Note_on_c, 0, 36, 71
1, 276343, Note_off_c, 0, 36, 61
1, 276349, Note_off_c, 0, 48, 61
1, 276383, Note_on_c, 0, 53, 30
1, 276386, Note_on_c, 0, 59, 19
1, 276387, Note_off_c, 0, 59, 127
1, 276410, Note_on_c, 0, 55, 57
1, 276433, Poly_aftertouch_c, 0, 59, 127
1, 276452, Note_off_c, 0, 53, 60
1, 276452, Note_off_c, 0, 55, 65
1, 276461, Poly_aftertouch_c, 0, 59, 0
1, 276502, Note_on_c, 0, 48, 93
1, 276525, Note_on_c, 0, 36, 62
1, 276535, Note_off_c, 0, 48, 68
1, 276552, Note_off_c, 0, 36, 63
1, 276591, Note_on_c, 0, 48, 93
1, 276600, Note_on_c, 0, 36, 79
1, 276638, Note_off_c, 0, 36, 66
1, 276651, Note_off_c, 0, 48, 64
1, 276661, Note_on_c, 0, 55, 66
1, 276663, Note_on_c, 0, 60, 75
1, 276664, Note_on_c, 0, 52, 75
1, 276681, Note_off_c, 0, 55, 65
1, 276687, Note_off_c, 0, 60, 68
1, 276690, Note_off_c, 0, 52, 70
1, 276731, Note_on_c, 0, 60, 85
1, 276739, Note_on_c, 0, 55, 70
1, 276743, Note_on_c, 0, 52, 54
1, 276756, Note_off_c, 0, 55, 67
1, 276766, Note_off_c, 0, 52, 39
1, 276772, Note_off_c, 0, 60, 62
1, 276812, Note_on_c, 0, 55, 96
1, 276818, Note_on_c, 0, 43, 91
1, 276842, Control_c, 0, 64, 61
1, 276845, Note_off_c, 0, 55, 63
1, 276846, Note_off_c, 0, 43, 65
1, 276856, Control_c, 0, 64, 75
1, 276871, Control_c, 0, 64, 85
1, 276886, Note_on_c, 0, 55, 89
1, 276886, Control_c, 0, 64, 96
1, 276888, Note_on_c, 0, 43, 84
1, 276901, Control_c, 0, 64, 101
1, 276916, Note_off_c, 0, 43, 67
1, 276916, Control_c, 0, 64, 105
1, 276931, Note_off_c, 0, 55, 66
1, 276931, Control_c, 0, 64, 107
1, 276946, Control_c, 0, 64, 110
1, 276961, Control_c, 0, 64, 111
1, 276964, Note_on_c, 0, 67, 78
1, 276964, Note_on_c, 0, 74, 77
1, 276967, Note_on_c, 0, 70, 75
1, 276976, Control_c, 0, 64, 111
1, 276985, Note_off_c, 0, 74, 72
1, 276986, Note_off_c, 0, 67, 68
1, 276991, Note_off_c, 0, 70, 69
1, 276991, Control_c, 0, 64, 112
1, 277006, Control_c, 0, 64, 113
1, 277020, Control_c, 0, 64, 116
1, 277031, Note_on_c, 0, 74, 81
1, 277032, Note_on_c, 0, 70, 83
1, 277035, Control_c, 0, 64, 121
1, 277036, Note_on_c, 0, 67, 73
1, 277050, Control_c, 0, 64, 127
1, 277053, Note_off_c, 0, 67, 70
1, 277059, Note_off_c, 0, 70, 69
1, 277077, Note_off_c, 0, 74, 65
1, 277109, Control_c, 0, 64, 108
1, 277122, Note_on_c, 0, 67, 84
1, 277122, Poly_aftertouch_c, 0, 74, 0
1, 277124, Control_c, 0, 64, 82
1, 277127, Note_on_c, 0, 74, 84
1, 277134, Note_on_c, 0, 70, 77
1, 277139, Control_c, 0, 64, 0
1, 277149, Note_off_c, 0, 70, 70
1, 277153, Note_off_c, 0, 74, 69
1, 277159, Note_off_c, 0, 67, 65
1, 277190, Note_on_c, 0, 70, 91
1, 277192, Note_on_c, 0, 67, 75
1, 277192, Note_on_c, 0, 74, 77
1, 277217, Note_off_c, 0, 74, 66
1, 277234, Note_off_c, 0, 67, 63
1, 277237, Note_off_c, 0, 70, 62
1, 277283, Note_on_c, 0, 79, 84
1, 277354, Note_on_c, 0, 70, 90
1, 277357, Note_off_c, 0, 79, 62
1, 277358, Note_on_c, 0, 74, 72
1, 277365, Note_on_c, 0, 67, 75
1, 277384, Note_off_c, 0, 74, 67
1, 277392, Note_off_c, 0, 67, 64
1, 277394, Note_off_c, 0, 70, 61
1, 277436, Note_on_c, 0, 64, 97
1, 277438, Note_on_c, 0, 52, 91
1, 277441, Control_c, 0, 64, 71
1, 277456, Control_c, 0, 64, 83
1, 277471, Control_c, 0, 64, 93
1, 277477, Note_off_c, 0, 64, 61
1, 277482, Note_off_c, 0, 52, 62
1, 277486, Control_c, 0, 64, 98
1, 277500, Control_c, 0, 64, 100
1, 277512, Note_on_c, 0, 64, 79
1, 277515, Control_c, 0, 64, 101
1, 277518, Note_on_c, 0, 52, 73
1, 277530, Control_c, 0, 64, 102
1, 277545, Control_c, 0, 64, 103
1, 277547, Note_off_c, 0, 52, 62
1, 277560, Control_c, 0, 64, 104
1, 277567, Note_off_c, 0, 64, 64
1, 277575, Control_c, 0, 64, 105
1, 277580, Note_on_c, 0, 67, 79
1, 277583, Note_on_c, 0, 69, 72
1, 277587, Note_on_c, 0, 73, 67
1, 277590, Control_c, 0, 64, 105
1, 277605, Note_off_c, 0, 67, 66
1, 277605, Control_c, 0, 64, 107
1, 277608, Note_off_c, 0, 73, 66
1, 277608, Note_off_c, 0, 69, 70
1, 277619, Control_c, 0, 64, 109
1, 277634, Control_c, 0, 64, 111
1, 277649, Control_c, 0, 64, 114
1, 277664, Note_on_c, 0, 73, 81
1, 277664, Control_c, 0, 64, 116
1, 277664, Note_on_c, 0, 67, 57
1, 277667, Note_on_c, 0, 69, 76
1, 277688, Note_off_c, 0, 69, 73
1, 277689, Note_off_c, 0, 73, 67
1, 277690, Note_off_c, 0, 67, 57
1, 277709, Control_c, 0, 64, 110
1, 277724, Control_c, 0, 64, 92
1, 277739, Control_c, 0, 64, 67
1, 277745, Note_on_c, 0, 73, 84
1, 277748, Note_on_c, 0, 67, 79
1, 277754, Control_c, 0, 64, 0
1, 277764, Note_on_c, 0, 69, 64
1, 277772, Note_on_c, 0, 70, 36
1, 277774, Note_off_c, 0, 67, 61
1, 277781, Note_off_c, 0, 69, 66
1, 277795, Note_off_c, 0, 73, 0
1, 277803, Note_off_c, 0, 70, 54
1, 277807, Note_on_c, 0, 73, 70
1, 277828, Note_on_c, 0, 69, 70
1, 277832, Poly_aftertouch_c, 0, 67, 127
1, 277839, Note_off_c, 0, 73, 68
1, 277841, Poly_aftertouch_c, 0, 67, 0
1, 277849, Note_off_c, 0, 69, 68
1, 277894, Note_on_c, 0, 79, 80
1, 277915, Note_on_c, 0, 77, 58
1, 277937, Note_off_c, 0, 77, 41
1, 277962, Note_off_c, 0, 79, 61
1, 277964, Note_on_c, 0, 69, 77
1, 277967, Note_on_c, 0, 73, 75
1, 277969, Note_on_c, 0, 67, 80
1, 277997, Note_off_c, 0, 67, 60
1, 278006, Note_off_c, 0, 69, 66
1, 278043, Note_off_c, 0, 73, 58
1, 278043, Control_c, 0, 64, 45
1, 278047, Note_on_c, 0, 57, 85
1, 278053, Note_on_c, 0, 45, 85
1, 278058, Control_c, 0, 64, 73
1, 278073, Note_off_c, 0, 57, 63
1, 278073, Control_c, 0, 64, 83
1, 278088, Control_c, 0, 64, 90
1, 278094, Note_off_c, 0, 45, 0
1, 278103, Control_c, 0, 64, 94
1, 278116, Note_on_c, 0, 57, 83
1, 278117, Control_c, 0, 64, 96
1, 278131, Poly_aftertouch_c, 0, 45, 127
1, 278132, Control_c, 0, 64, 98
1, 278141, Poly_aftertouch_c, 0, 45, 0
1, 278147, Control_c, 0, 64, 98
1, 278159, Note_off_c, 0, 57, 66
1, 278162, Control_c, 0, 64, 99
1, 278176, Control_c, 0, 64, 99
1, 278191, Control_c, 0, 64, 100
1, 278198, Note_on_c, 0, 67, 80
1, 278201, Note_on_c, 0, 69, 74
1, 278206, Control_c, 0, 64, 100
1, 278212, Note_on_c, 0, 73, 66
1, 278221, Note_off_c, 0, 67, 68
1, 278221, Control_c, 0, 64, 101
1, 278225, Note_off_c, 0, 69, 71
1, 278228, Note_off_c, 0, 73, 67
1, 278236, Control_c, 0, 64, 104
1, 278250, Control_c, 0, 64, 107
1, 278265, Control_c, 0, 64, 110
1, 278278, Note_on_c, 0, 69, 76
1, 278280, Control_c, 0, 64, 113
1, 278284, Note_on_c, 0, 73, 78
1, 278287, Note_on_c, 0, 67, 58
1, 278295, Control_c, 0, 64, 114
1, 278301, Note_off_c, 0, 69, 72
1, 278303, Note_off_c, 0, 67, 68
1, 278308, Note_off_c, 0, 73, 66
1, 278324, Control_c, 0, 64, 107
1, 278339, Control_c, 0, 64, 89
1, 278353, Note_on_c, 0, 67, 88
1, 278354, Control_c, 0, 64, 66
1, 278361, Note_on_c, 0, 73, 85
1, 278368, Control_c, 0, 64, 0
1, 278369, Note_on_c, 0, 69, 72
1, 278383, Note_off_c, 0, 73, 59
1, 278390, Note_off_c, 0, 69, 73
1, 278401, Note_off_c, 0, 67, 0
1, 278425, Note_on_c, 0, 73, 79
1, 278433, Note_on_c, 0, 69, 73
1, 278438, Poly_aftertouch_c, 0, 67, 127
1, 278448, Note_off_c, 0, 73, 69
1, 278457, Note_off_c, 0, 69, 70
1, 278463, Poly_aftertouch_c, 0, 67, 0
1, 278497, Note_on_c, 0, 79, 86
1, 278566, Note_on_c, 0, 73, 81
1, 278567, Note_on_c, 0, 69, 86
1, 278570, Note_on_c, 0, 67, 83
1, 278570, Note_off_c, 0, 79, 60
1, 278603, Note_off_c, 0, 67, 53
1, 278605, Note_off_c, 0, 69, 66
1, 278621, Note_off_c, 0, 73, 64
1, 278636, Control_c, 0, 64, 71
1, 278645, Note_on_c, 0, 58, 95
1, 278650, Note_on_c, 0, 46, 92
1, 278651, Control_c, 0, 64, 79
1, 278666, Control_c, 0, 64, 83
1, 278680, Note_off_c, 0, 46, 63
1, 278681, Control_c, 0, 64, 84
1, 278687, Note_off_c, 0, 58, 63
1, 278696, Control_c, 0, 64, 84
1, 278731, Note_on_c, 0, 58, 83
1, 278735, Note_on_c, 0, 46, 81
1, 278740, Control_c, 0, 64, 84
1, 278755, Control_c, 0, 64, 82
1, 278770, Note_off_c, 0, 46, 64
1, 278777, Control_c, 0, 64, 79
1, 278785, Note_off_c, 0, 58, 63
1, 278791, Note_on_c, 0, 67, 79
1, 278792, Control_c, 0, 64, 74
1, 278794, Note_on_c, 0, 73, 81
1, 278794, Note_on_c, 0, 64, 78
1, 278806, Control_c, 0, 64, 65
1, 278814, Note_off_c, 0, 67, 69
1, 278815, Note_off_c, 0, 73, 69
1, 278817, Note_off_c, 0, 64, 70
1, 278821, Control_c, 0, 64, 0
1, 278867, Note_on_c, 0, 73, 85
1, 278869, Note_on_c, 0, 64, 78
1, 278869, Note_on_c, 0, 67, 76
1, 278891, Note_off_c, 0, 64, 70
1, 278894, Note_off_c, 0, 67, 66
1, 278923, Note_off_c, 0, 73, 61
1, 278925, Control_c, 0, 64, 65
1, 278940, Control_c, 0, 64, 74
1, 278950, Note_on_c, 0, 58, 94
1, 278955, Control_c, 0, 64, 82
1, 278965, Note_on_c, 0, 46, 67
1, 278970, Control_c, 0, 64, 89
1, 278973, Note_off_c, 0, 58, 68
1, 278985, Control_c, 0, 64, 92
1, 278988, Note_off_c, 0, 46, 62
1, 278999, Control_c, 0, 64, 93
1, 279029, Control_c, 0, 64, 90
1, 279030, Note_on_c, 0, 58, 96
1, 279043, Note_on_c, 0, 46, 81
1, 279044, Control_c, 0, 64, 82
1, 279044, Poly_aftertouch_c, 0, 54, 0
1, 279059, Control_c, 0, 64, 69
1, 279073, Control_c, 0, 64, 0
1, 279074, Note_off_c, 0, 46, 64
1, 279077, Note_off_c, 0, 58, 65
1, 279084, Poly_aftertouch_c, 0, 54, 0
1, 279111, Note_on_c, 0, 74, 81
1, 279112, Note_on_c, 0, 62, 75
1, 279115, Note_on_c, 0, 65, 60
1, 279135, Note_off_c, 0, 65, 66
1, 279139, Note_off_c, 0, 62, 66
1, 279168, Note_off_c, 0, 74, 0
1, 279179, Note_on_c, 0, 74, 66
1, 279184, Note_on_c, 0, 62, 93
1, 279188, Note_on_c, 0, 65, 91
1, 279217, Note_off_c, 0, 62, 62
1, 279218, Note_off_c, 0, 65, 61
1, 279245, Note_off_c, 0, 74, 65
1, 279251, Control_c, 0, 64, 67
1, 279263, Note_on_c, 0, 53, 99
1, 279265, Control_c, 0, 64, 85
1, 279267, Note_on_c, 0, 41, 94
1, 279280, Control_c, 0, 64, 103
1, 279296, Control_c, 0, 64, 108
1, 279301, Note_off_c, 0, 41, 62
1, 279301, Note_on_c, 0, 65, 43
1, 279303, Note_off_c, 0, 53, 61
1, 279311, Control_c, 0, 64, 109
1, 279329, Note_off_c, 0, 65, 55
1, 279333, Note_on_c, 0, 41, 69
1, 279334, Note_on_c, 0, 53, 74
1, 279335, Note_on_c, 0, 68, 11
1, 279364, Note_off_c, 0, 41, 69
1, 279373, Note_off_c, 0, 53, 67
1, 279377, Note_off_c, 0, 68, 41
1, 279412, Note_on_c, 0, 65, 80
1, 279414, Note_on_c, 0, 62, 80
1, 279437, Note_off_c, 0, 65, 70
1, 279439, Note_off_c, 0, 62, 64
1, 279486, Note_on_c, 0, 65, 95
1, 279490, Note_on_c, 0, 62, 65
1, 279509, Note_off_c, 0, 62, 67
1, 279530, Note_off_c, 0, 65, 64
1, 279556, Control_c, 0, 64, 108
1, 279583, Note_on_c, 0, 65, 100
1, 279585, Note_on_c, 0, 62, 85
1, 279585, Control_c, 0, 64, 108
1, 279616, Note_off_c, 0, 65, 68
1, 279620, Note_off_c, 0, 62, 63
1, 279629, Control_c, 0, 64, 106
1, 279644, Control_c, 0, 64, 103
1, 279659, Control_c, 0, 64, 95
1, 279661, Note_on_c, 0, 62, 85
1, 279665, Note_on_c, 0, 65, 84
1, 279674, Control_c, 0, 64, 80
1, 279684, Note_off_c, 0, 65, 74
1, 279689, Control_c, 0, 64, 65
1, 279703, Note_off_c, 0, 62, 64
1, 279703, Control_c, 0, 64, 0
1, 279723, Note_on_c, 0, 74, 82
1, 279796, Note_on_c, 0, 65, 91
1, 279802, Note_off_c, 0, 74, 64
1, 279805, Note_on_c, 0, 62, 85
1, 279832, Note_off_c, 0, 65, 65
1, 279834, Note_off_c, 0, 62, 59
1, 279867, Control_c, 0, 64, 67
1, 279876, Note_on_c, 0, 53, 93
1, 279877, Note_on_c, 0, 41, 88
1, 279882, Control_c, 0, 64, 83
1, 279896, Control_c, 0, 64, 98
1, 279906, Note_off_c, 0, 53, 61
1, 279911, Control_c, 0, 64, 106
1, 279926, Note_off_c, 0, 41, 0
1, 279926, Control_c, 0, 64, 107
1, 279940, Control_c, 0, 64, 107
1, 279941, Note_on_c, 0, 41, 71
1, 279942, Note_on_c, 0, 53, 81
1, 279969, Note_off_c, 0, 41, 69
1, 279990, Note_off_c, 0, 53, 66
1, 280025, Note_on_c, 0, 62, 89
1, 280030, Note_on_c, 0, 65, 83
1, 280049, Note_off_c, 0, 62, 65
1, 280052, Note_off_c, 0, 65, 71
1, 280099, Note_on_c, 0, 65, 96
1, 280130, Note_off_c, 0, 65, 67
1, 280134, Control_c, 0, 64, 107
1, 280164, Control_c, 0, 64, 106
1, 280185, Note_on_c, 0, 61, 86
1, 280193, Note_on_c, 0, 64, 70
1, 280195, Note_on_c, 0, 65, 82
1, 280215, Note_off_c, 0, 65, 67
1, 280216, Note_off_c, 0, 64, 68
1, 280221, Note_off_c, 0, 61, 56
1, 280252, Control_c, 0, 64, 106
1, 280254, Note_on_c, 0, 64, 87
1, 280256, Note_on_c, 0, 61, 70
1, 280275, Control_c, 0, 64, 105
1, 280290, Control_c, 0, 64, 105
1, 280292, Note_off_c, 0, 64, 63
1, 280305, Control_c, 0, 64, 104
1, 280311, Note_off_c, 0, 61, 64
1, 280319, Control_c, 0, 64, 101
1, 280334, Control_c, 0, 64, 94
1, 280340, Note_on_c, 0, 73, 85
1, 280349, Control_c, 0, 64, 84
1, 280363, Control_c, 0, 64, 71
1, 280378, Control_c, 0, 64, 0
1, 280402, Note_on_c, 0, 64, 84
1, 280405, Note_on_c, 0, 61, 90
1, 280423, Note_off_c, 0, 73, 63
1, 280450, Note_off_c, 0, 61, 60
1, 280450, Note_off_c, 0, 64, 63
1, 280491, Note_on_c, 0, 53, 97
1, 280492, Note_on_c, 0, 41, 94
1, 280497, Control_c, 0, 64, 63
1, 280512, Control_c, 0, 64, 74
1, 280523, Note_off_c, 0, 53, 66
1, 280526, Control_c, 0, 64, 87
1, 280531, Note_off_c, 0, 41, 61
1, 280541, Control_c, 0, 64, 96
1, 280556, Control_c, 0, 64, 101
1, 280565, Note_on_c, 0, 41, 68
1, 280565, Note_on_c, 0, 53, 84
1, 280571, Control_c, 0, 64, 104
1, 280586, Control_c, 0, 64, 105
1, 280592, Note_off_c, 0, 41, 68
1, 280610, Note_off_c, 0, 53, 66
1, 280635, Note_on_c, 0, 60, 87
1, 280638, Note_on_c, 0, 63, 85
1, 280658, Note_off_c, 0, 60, 65
1, 280660, Note_off_c, 0, 63, 69
1, 280708, Note_on_c, 0, 63, 89
1, 280713, Note_on_c, 0, 60, 71
1, 280732, Note_off_c, 0, 60, 71
1, 280749, Note_off_c, 0, 63, 66
1, 280800, Note_on_c, 0, 62, 97
1, 280808, Note_on_c, 0, 59, 81
1, 280823, Control_c, 0, 64, 104
1, 280830, Note_off_c, 0, 59, 70
1, 280834, Note_off_c, 0, 62, 63
1, 280852, Control_c, 0, 64, 104
1, 280867, Control_c, 0, 64, 103
1, 280877, Note_on_c, 0, 62, 79
1, 280883, Note_on_c, 0, 59, 83
1, 280883, Poly_aftertouch_c, 0, 60, 0
1, 280883, Control_c, 0, 64, 101
1, 280898, Control_c, 0, 64, 96
1, 280907, Note_on_c, 0, 60, 13
1, 280913, Control_c, 0, 64, 85
1, 280918, Note_off_c, 0, 59, 62
1, 280918, Note_off_c, 0, 62, 63
1, 280928, Control_c, 0, 64, 72
1, 280942, Control_c, 0, 64, 0
1, 280944, Note_on_c, 0, 71, 86
1, 280955, Note_off_c, 0, 60, 33
1, 280973, Note_on_c, 0, 66, 46
1, 281000, Note_off_c, 0, 66, 35
1, 281024, Note_on_c, 0, 62, 94
1, 281027, Note_on_c, 0, 59, 87
1, 281036, Note_off_c, 0, 71, 63
1, 281066, Note_off_c, 0, 59, 62
1, 281066, Note_off_c, 0, 62, 62
1, 281111, Note_on_c, 0, 53, 100
1, 281113, Control_c, 0, 64, 67
1, 281119, Note_on_c, 0, 41, 78
1, 281125, Note_on_c, 0, 40, 73
1, 281128, Control_c, 0, 64, 80
1, 281139, Note_off_c, 0, 53, 63
1, 281142, Control_c, 0, 64, 94
1, 281146, Note_off_c, 0, 40, 61
1, 281157, Control_c, 0, 64, 104
1, 281170, Note_off_c, 0, 41, 0
1, 281172, Control_c, 0, 64, 110
1, 281185, Note_on_c, 0, 53, 85
1, 281186, Control_c, 0, 64, 113
1, 281201, Control_c, 0, 64, 114
1, 281212, Poly_aftertouch_c, 0, 41, 0
1, 281235, Note_off_c, 0, 53, 65
1, 281259, Note_on_c, 0, 58, 81
1, 281261, Note_on_c, 0, 61, 86
1, 281280, Note_off_c, 0, 58, 71
1, 281280, Note_off_c, 0, 61, 70
1, 281331, Note_on_c, 0, 61, 90
1, 281334, Note_on_c, 0, 58, 92
1, 281351, Note_off_c, 0, 58, 71
1, 281373, Note_off_c, 0, 61, 63
1, 281417, Note_on_c, 0, 60, 103
1, 281426, Note_on_c, 0, 57, 84
1, 281447, Note_off_c, 0, 57, 70
1, 281452, Note_off_c, 0, 60, 66
1, 281480, Note_on_c, 0, 60, 83
1, 281483, Control_c, 0, 64, 113
1, 281489, Note_on_c, 0, 57, 85
1, 281498, Control_c, 0, 64, 113
1, 281513, Control_c, 0, 64, 112
1, 281528, Note_off_c, 0, 60, 60
1, 281528, Control_c, 0, 64, 112
1, 281537, Note_off_c, 0, 57, 63
1, 281542, Control_c, 0, 64, 111
1, 281557, Control_c, 0, 64, 110
1, 281564, Note_on_c, 0, 69, 91
1, 281572, Control_c, 0, 64, 109
1, 281586, Control_c, 0, 64, 106
1, 281601, Control_c, 0, 64, 100
1, 281616, Control_c, 0, 64, 90
1, 281631, Note_on_c, 0, 60, 89
1, 281631, Control_c, 0, 64, 75
1, 281636, Note_on_c, 0, 57, 87
1, 281643, Note_off_c, 0, 69, 63
1, 281646, Control_c, 0, 64, 0
1, 281658, Note_off_c, 0, 57, 64
1, 281668, Note_off_c, 0, 60, 56
1, 281717, Note_on_c, 0, 53, 101
1, 281720, Note_on_c, 0, 41, 95
1, 281736, Control_c, 0, 64, 64
1, 281751, Control_c, 0, 64, 73
1, 281770, Note_off_c, 0, 53, 64
1, 281772, Control_c, 0, 64, 83
1, 281787, Note_off_c, 0, 41, 0
1, 281787, Control_c, 0, 64, 94
1, 281802, Control_c, 0, 64, 100
1, 281806, Note_on_c, 0, 41, 55
1, 281810, Note_on_c, 0, 53, 85
1, 281817, Control_c, 0, 64, 103
1, 281832, Control_c, 0, 64, 105
1, 281847, Control_c, 0, 64, 107
1, 281847, Note_off_c, 0, 41, 66
1, 281859, Note_off_c, 0, 53, 67
1, 281861, Control_c, 0, 64, 107
1, 281872, Note_on_c, 0, 59, 87
1, 281873, Note_on_c, 0, 56, 85
1, 281876, Control_c, 0, 64, 108
1, 281891, Control_c, 0, 64, 108
1, 281894, Note_off_c, 0, 56, 68
1, 281895, Note_off_c, 0, 59, 67
1, 281945, Note_on_c, 0, 56, 78
1, 281948, Note_on_c, 0, 59, 80
1, 281966, Note_off_c, 0, 56, 67
1, 281973, Note_off_c, 0, 59, 63
1, 282026, Note_on_c, 0, 55, 94
1, 282028, Note_on_c, 0, 58, 83
1, 282037, Note_on_c, 0, 56, 29
1, 282042, Note_off_c, 0, 56, 42
1, 282053, Note_off_c, 0, 58, 66
1, 282069, Note_off_c, 0, 55, 63
1, 282097, Note_on_c, 0, 55, 76
1, 282106, Note_on_c, 0, 58, 91
1, 282143, Note_off_c, 0, 58, 67
1, 282147, Note_off_c, 0, 55, 65
1, 282147, Poly_aftertouch_c, 0, 59, 0
1, 282184, Note_on_c, 0, 67, 82
1, 282190, Poly_aftertouch_c, 0, 61, 0
1, 282231, Control_c, 0, 64, 108
1, 282246, Control_c, 0, 64, 106
1, 282248, Note_on_c, 0, 58, 94
1, 282255, Note_on_c, 0, 55, 89
1, 282261, Control_c, 0, 64, 95
1, 282272, Note_off_c, 0, 67, 60
1, 282276, Control_c, 0, 64, 79
1, 282284, Poly_aftertouch_c, 0, 63, 0
1, 282291, Control_c, 0, 64, 38
1, 282297, Note_off_c, 0, 55, 63
1, 282306, Control_c, 0, 64, 0
1, 282325, Note_on_c, 0, 53, 99
1, 282329, Note_on_c, 0, 41, 90
1, 282347, Note_off_c, 0, 58, 59
1, 282350, Control_c, 0, 64, 66
1, 282356, Note_off_c, 0, 53, 66
1, 282360, Note_off_c, 0, 41, 67
1, 282365, Control_c, 0, 64, 76
1, 282380, Control_c, 0, 64, 85
1, 282395, Control_c, 0, 64, 91
1, 282403, Note_on_c, 0, 53, 96
1, 282404, Note_on_c, 0, 41, 82
1, 282409, Control_c, 0, 64, 92
1, 282449, Note_off_c, 0, 41, 65
1, 282454, Note_off_c, 0, 53, 65
1, 282475, Note_on_c, 0, 57, 84
1, 282490, Note_on_c, 0, 60, 68
1, 282499, Control_c, 0, 64, 91
1, 282513, Note_off_c, 0, 60, 65
1, 282514, Note_off_c, 0, 57, 61
1, 282521, Control_c, 0, 64, 87
1, 282536, Control_c, 0, 64, 76
1, 282548, Note_on_c, 0, 60, 93
1, 282551, Control_c, 0, 64, 0
1, 282579, Note_off_c, 0, 60, 65
1, 282636, Note_on_c, 0, 55, 99
1, 282638, Note_on_c, 0, 51, 82
1, 282639, Control_c, 0, 64, 57
1, 282647, Note_on_c, 0, 46, 77
1, 282650, Note_on_c, 0, 43, 68
1, 282654, Control_c, 0, 64, 71
1, 282669, Note_off_c, 0, 51, 67
1, 282669, Control_c, 0, 64, 82
1, 282672, Note_off_c, 0, 46, 64
1, 282675, Note_off_c, 0, 55, 64
1, 282684, Control_c, 0, 64, 93
1, 282686, Note_off_c, 0, 43, 59
1, 282699, Control_c, 0, 64, 100
1, 282708, Note_on_c, 0, 55, 81
1, 282714, Control_c, 0, 64, 102
1, 282724, Note_on_c, 0, 51, 46
1, 282726, Note_on_c, 0, 46, 84
1, 282732, Note_on_c, 0, 50, 77
1, 282739, Poly_aftertouch_c, 0, 43, 127
1, 282757, Note_off_c, 0, 50, 66
1, 282757, Note_off_c, 0, 51, 67
1, 282759, Poly_aftertouch_c, 0, 43, 0
1, 282765, Note_on_c, 0, 58, 96
1, 282770, Note_off_c, 0, 46, 58
1, 282771, Note_on_c, 0, 63, 78
1, 282772, Note_on_c, 0, 67, 77
1, 282772, Note_off_c, 0, 55, 62
1, 282774, Note_on_c, 0, 70, 75
1, 282795, Note_off_c, 0, 63, 70
1, 282805, Note_off_c, 0, 58, 61
1, 282811, Note_off_c, 0, 67, 60
1, 282811, Note_off_c, 0, 70, 50
1, 282832, Control_c, 0, 64, 102
1, 282842, Note_on_c, 0, 58, 85
1, 282844, Note_on_c, 0, 70, 74
1, 282847, Control_c, 0, 64, 99
1, 282851, Note_on_c, 0, 63, 82
1, 282854, Note_on_c, 0, 67, 66
1, 282862, Control_c, 0, 64, 90
1, 282877, Control_c, 0, 64, 73
1, 282882, Note_off_c, 0, 58, 63
1, 282890, Note_off_c, 0, 63, 60
1, 282891, Note_off_c, 0, 67, 58
1, 282892, Control_c, 0, 64, 0
1, 282924, Note_off_c, 0, 70, 57
1, 282933, Note_on_c, 0, 57, 99
1, 282938, Note_on_c, 0, 53, 88
1, 282942, Note_on_c, 0, 45, 86
1, 282942, Note_on_c, 0, 50, 82
1, 282958, Note_off_c, 0, 53, 73
1, 282964, Note_off_c, 0, 50, 67
1, 282965, Control_c, 0, 64, 64
1, 282970, Note_off_c, 0, 57, 64
1, 282980, Control_c, 0, 64, 73
1, 282981, Note_off_c, 0, 45, 57
1, 282995, Control_c, 0, 64, 80
1, 283010, Control_c, 0, 64, 86
1, 283015, Note_on_c, 0, 45, 64
1, 283017, Note_on_c, 0, 57, 89
1, 283022, Note_on_c, 0, 50, 76
1, 283025, Note_on_c, 0, 53, 92
1, 283025, Control_c, 0, 64, 88
1, 283037, Note_off_c, 0, 57, 69
1, 283066, Note_off_c, 0, 53, 66
1, 283083, Note_off_c, 0, 50, 65
1, 283084, Note_on_c, 0, 69, 84
1, 283084, Control_c, 0, 64, 89
1, 283086, Note_on_c, 0, 62, 86
1, 283096, Note_on_c, 0, 65, 63
1, 283101, Note_off_c, 0, 45, 65
1, 283107, Note_off_c, 0, 62, 69
1, 283115, Note_off_c, 0, 65, 68
1, 283116, Note_off_c, 0, 69, 62
1, 283143, Control_c, 0, 64, 88
1, 283149, Note_on_c, 0, 69, 84
1, 283154, Note_on_c, 0, 62, 83
1, 283158, Control_c, 0, 64, 85
1, 283164, Note_on_c, 0, 65, 72
1, 283173, Control_c, 0, 64, 75
1, 283179, Note_off_c, 0, 62, 64
1, 283188, Note_off_c, 0, 65, 72
1, 283188, Control_c, 0, 64, 41
1, 283203, Control_c, 0, 64, 0
1, 283203, Note_off_c, 0, 69, 65
1, 283242, Note_on_c, 0, 45, 99
1, 283246, Note_on_c, 0, 33, 99
1, 283269, Control_c, 0, 64, 63
1, 283277, Note_off_c, 0, 33, 71
1, 283280, Note_off_c, 0, 45, 66
1, 283283, Control_c, 0, 64, 73
1, 283286, Note_on_c, 0, 37, 34
1, 283298, Control_c, 0, 64, 83
1, 283313, Control_c, 0, 64, 94
1, 283323, Note_off_c, 0, 37, 56
1, 283328, Note_on_c, 0, 45, 97
1, 283328, Control_c, 0, 64, 99
1, 283331, Note_on_c, 0, 33, 91
1, 283343, Control_c, 0, 64, 101
1, 283358, Control_c, 0, 64, 101
1, 283375, Note_off_c, 0, 33, 64
1, 283381, Note_off_c, 0, 45, 62
1, 283387, Control_c, 0, 64, 101
1, 283402, Control_c, 0, 64, 95
1, 283413, Note_on_c, 0, 64, 96
1, 283416, Note_on_c, 0, 67, 85
1, 283417, Control_c, 0, 64, 79
1, 283417, Note_on_c, 0, 73, 86
1, 283420, Note_on_c, 0, 69, 80
1, 283432, Control_c, 0, 64, 0
1, 283434, Note_off_c, 0, 64, 69
1, 283442, Note_off_c, 0, 69, 72
1, 283448, Note_off_c, 0, 67, 60
1, 283448, Note_off_c, 0, 73, 64
1, 283492, Note_on_c, 0, 73, 90
1, 283498, Note_on_c, 0, 64, 93
1, 283500, Note_on_c, 0, 67, 74
1, 283515, Note_on_c, 0, 69, 71
1, 283523, Note_off_c, 0, 64, 62
1, 283540, Note_off_c, 0, 67, 61
1, 283540, Note_off_c, 0, 69, 70
1, 283566, Note_off_c, 0, 73, 63
1, 283605, Note_on_c, 0, 50, 107
1, 283610, Note_on_c, 0, 38, 101
1, 283658, Note_on_c, 0, 44, 6
1, 283659, Note_off_c, 0, 44, 127
1, 283683, Control_c, 0, 64, 50
1, 283698, Control_c, 0, 64, 79
1, 283700, Note_off_c, 0, 38, 65
1, 283713, Control_c, 0, 64, 95
1, 283728, Control_c, 0, 64, 114
1, 283730, Note_off_c, 0, 50, 62
1, 283742, Control_c, 0, 64, 127
1, 283974, Note_on_c, 0, 86, 96
1, 283976, Note_on_c, 0, 74, 98
1, 283976, Note_on_c, 0, 77, 100
1, 283978, Note_on_c, 0, 62, 99
1, 283981, Note_on_c, 0, 50, 87
1, 283981, Note_on_c, 0, 57, 84
1, 283982, Note_on_c, 0, 81, 89
1, 283984, Note_on_c, 0, 53, 80
1, 284014, Note_off_c, 0, 74, 71
1, 284025, Note_off_c, 0, 62, 66
1, 284029, Note_off_c, 0, 86, 69
1, 284030, Note_off_c, 0, 77, 65
1, 284035, Note_off_c, 0, 57, 63
1, 284036, Note_off_c, 0, 81, 62
1, 284046, Note_off_c, 0, 53, 63
1, 284050, Note_off_c, 0, 50, 65
1, 284477, Control_c, 0, 67, 15
1, 284491, Control_c, 0, 67, 25
1, 284506, Control_c, 0, 67, 34
1, 284521, Control_c, 0, 67, 42
1, 284535, Control_c, 0, 67, 51
1, 284550, Control_c, 0, 67, 55
1, 284565, Control_c, 0, 67, 56
1, 284580, Control_c, 0, 64, 124
1, 284580, Control_c, 0, 67, 57
1, 284595, Control_c, 0, 64, 115
1, 284595, Control_c, 0, 67, 58
1, 284610, Control_c, 0, 64, 107
1, 284610, Control_c, 0, 67, 60
1, 284625, Control_c, 0, 64, 100
1, 284625, Control_c, 0, 67, 63
1, 284640, Control_c, 0, 64, 93
1, 284640, Control_c, 0, 67, 64
1, 284655, Control_c, 0, 64, 89
1, 284669, Control_c, 0, 64, 85
1, 284684, Control_c, 0, 64, 81
1, 284699, Control_c, 0, 64, 76
1, 284714, Control_c, 0, 64, 67
1, 284728, Control_c, 0, 64, 0
1, 284780, Note_on_c, 0, 57, 75
1, 284796, Control_c, 0, 67, 64
1, 284797, Note_on_c, 0, 53, 57
1, 284824, Note_off_c, 0, 53, 66
1, 284825, Control_c, 0, 67, 63
1, 284840, Note_on_c, 0, 61, 64
1, 284878, Note_off_c, 0, 61, 60
1, 284923, Note_on_c, 0, 62, 61
1, 284930, Control_c, 0, 67, 65
1, 284945, Control_c, 0, 67, 67
1, 284960, Control_c, 0, 67, 73
1, 284962, Note_off_c, 0, 62, 57
1, 284975, Control_c, 0, 67, 79
1, 284988, Note_on_c, 0, 64, 66
1, 284989, Control_c, 0, 67, 84
1, 285004, Control_c, 0, 67, 88
1, 285019, Control_c, 0, 67, 92
1, 285021, Note_off_c, 0, 64, 62
1, 285033, Control_c, 0, 67, 96
1, 285048, Control_c, 0, 67, 98
1, 285063, Control_c, 0, 67, 99
1, 285071, Note_on_c, 0, 65, 59
1, 285093, Control_c, 0, 67, 98
1, 285114, Note_on_c, 0, 47, 40
1, 285123, Control_c, 0, 67, 97
1, 285124, Note_off_c, 0, 65, 58
1, 285143, Note_on_c, 0, 69, 61
1, 285146, Note_off_c, 0, 47, 56
1, 285179, Note_off_c, 0, 69, 61
1, 285197, Control_c, 0, 67, 97
1, 285222, Note_on_c, 0, 67, 55
1, 285227, Control_c, 0, 67, 96
1, 285256, Note_off_c, 0, 67, 56
1, 285304, Note_on_c, 0, 65, 55
1, 285343, Note_off_c, 0, 65, 66
1, 285359, Control_c, 0, 67, 97
1, 285374, Control_c, 0, 67, 97
1, 285389, Control_c, 0, 67, 98
1, 285397, Note_on_c, 0, 64, 52
1, 285404, Control_c, 0, 67, 99
1, 285405, Note_on_c, 0, 52, 45
1, 285417, Note_off_c, 0, 64, 60
1, 285419, Control_c, 0, 67, 100
1, 285433, Control_c, 0, 67, 102
1, 285436, Note_off_c, 0, 52, 66
1, 285448, Control_c, 0, 67, 107
1, 285463, Control_c, 0, 67, 110
1, 285468, Note_on_c, 0, 71, 65
1, 285478, Control_c, 0, 67, 111
1, 285493, Control_c, 0, 67, 111
1, 285507, Note_off_c, 0, 71, 62
1, 285545, Control_c, 0, 67, 112
1, 285559, Note_on_c, 0, 74, 61
1, 285559, Control_c, 0, 67, 113
1, 285574, Control_c, 0, 67, 114
1, 285589, Control_c, 0, 67, 115
1, 285604, Control_c, 0, 67, 116
1, 285619, Control_c, 0, 67, 117
1, 285625, Note_off_c, 0, 74, 64
1, 285626, Note_on_c, 0, 77, 65
1, 285633, Control_c, 0, 67, 119
1, 285648, Note_off_c, 0, 77, 64
1, 285648, Control_c, 0, 67, 120
1, 285663, Control_c, 0, 67, 122
1, 285677, Note_off_c, 0, 57, 53
1, 285679, Control_c, 0, 67, 124
1, 285694, Control_c, 0, 67, 125
1, 285709, Control_c, 0, 67, 125
1, 285724, Note_on_c, 0, 56, 57
1, 285724, Control_c, 0, 67, 126
1, 285737, Note_on_c, 0, 76, 59
1, 285738, Control_c, 0, 64, 63
1, 285738, Control_c, 0, 67, 127
1, 285753, Control_c, 0, 64, 70
1, 285768, Control_c, 0, 64, 75
1, 285775, Note_off_c, 0, 76, 61
1, 285782, Control_c, 0, 64, 79
1, 285797, Note_off_c, 0, 56, 61
1, 285797, Control_c, 0, 64, 80
1, 285802, Note_on_c, 0, 74, 60
1, 285812, Control_c, 0, 64, 80
1, 285827, Control_c, 0, 64, 81
1, 285851, Note_off_c, 0, 74, 58
1, 285886, Note_on_c, 0, 71, 60
1, 285910, Note_off_c, 0, 71, 59
1, 285957, Note_on_c, 0, 64, 64
1, 285989, Note_off_c, 0, 64, 66
1, 285990, Control_c, 0, 64, 80
1, 286020, Control_c, 0, 64, 80
1, 286035, Control_c, 0, 64, 79
1, 286050, Control_c, 0, 64, 78
1, 286059, Note_on_c, 0, 62, 77
1, 286064, Control_c, 0, 64, 74
1, 286071, Note_on_c, 0, 58, 59
1, 286079, Control_c, 0, 64, 66
1, 286094, Control_c, 0, 64, 0
1, 286116, Note_off_c, 0, 58, 58
1, 286142, Note_on_c, 0, 66, 70
1, 286184, Note_off_c, 0, 66, 64
1, 286232, Note_on_c, 0, 67, 62
1, 286279, Note_off_c, 0, 67, 55
1, 286306, Note_on_c, 0, 69, 70
1, 286338, Note_off_c, 0, 69, 64
1, 286392, Note_on_c, 0, 70, 63
1, 286397, Control_c, 0, 67, 126
1, 286418, Note_on_c, 0, 52, 60
1, 286442, Control_c, 0, 67, 127
1, 286456, Note_off_c, 0, 52, 65
1, 286456, Note_off_c, 0, 70, 62
1, 286456, Control_c, 0, 67, 127
1, 286482, Note_on_c, 0, 74, 54
1, 286509, Note_off_c, 0, 74, 60
1, 286565, Note_on_c, 0, 72, 54
1, 286591, Note_off_c, 0, 72, 58
1, 286653, Note_on_c, 0, 70, 52
1, 286685, Note_off_c, 0, 70, 60
1, 286737, Note_on_c, 0, 69, 59
1, 286748, Note_on_c, 0, 57, 49
1, 286758, Note_off_c, 0, 69, 64
1, 286786, Note_off_c, 0, 57, 62
1, 286804, Note_on_c, 0, 76, 72
1, 286838, Note_off_c, 0, 76, 62
1, 286901, Note_on_c, 0, 79, 57
1, 286947, Note_off_c, 0, 79, 46
1, 286963, Note_on_c, 0, 82, 69
1, 286979, Note_off_c, 0, 82, 66
1, 287072, Note_on_c, 0, 81, 57
1, 287085, Note_on_c, 0, 61, 51
1, 287102, Control_c, 0, 64, 54
1, 287117, Control_c, 0, 64, 68
1, 287131, Note_off_c, 0, 81, 46
1, 287131, Control_c, 0, 64, 75
1, 287145, Note_on_c, 0, 79, 69
1, 287146, Control_c, 0, 64, 78
1, 287161, Control_c, 0, 64, 79
1, 287169, Note_off_c, 0, 62, 55
1, 287176, Control_c, 0, 64, 80
1, 287185, Note_off_c, 0, 61, 61
1, 287200, Note_off_c, 0, 79, 51
1, 287237, Note_on_c, 0, 76, 59
1, 287257, Note_off_c, 0, 76, 64
1, 287296, Control_c, 0, 64, 79
1, 287310, Note_on_c, 0, 69, 66
1, 287325, Control_c, 0, 64, 79
1, 287338, Note_off_c, 0, 69, 68
1, 287340, Control_c, 0, 64, 78
1, 287354, Control_c, 0, 64, 76
1, 287369, Control_c, 0, 64, 75
1, 287384, Control_c, 0, 64, 72
1, 287399, Control_c, 0, 64, 68
1, 287414, Control_c, 0, 64, 60
1, 287415, Note_on_c, 0, 65, 76
1, 287428, Control_c, 0, 64, 0
1, 287433, Note_on_c, 0, 62, 49
1, 287492, Note_on_c, 0, 68, 60
1, 287510, Note_off_c, 0, 62, 60
1, 287531, Note_off_c, 0, 68, 61
1, 287578, Note_on_c, 0, 69, 64
1, 287625, Note_off_c, 0, 69, 61
1, 287669, Note_on_c, 0, 71, 62
1, 287689, Note_off_c, 0, 71, 64
1, 287767, Note_on_c, 0, 64, 72
1, 287769, Note_off_c, 0, 65, 62
1, 287776, Note_on_c, 0, 57, 57
1, 287778, Note_on_c, 0, 73, 62
1, 287838, Note_off_c, 0, 57, 55
1, 287839, Note_off_c, 0, 73, 58
1, 287863, Note_on_c, 0, 76, 65
1, 287926, Note_off_c, 0, 76, 62
1, 287931, Note_on_c, 0, 79, 67
1, 288005, Note_off_c, 0, 79, 60
1, 288014, Note_on_c, 0, 85, 64
1, 288029, Note_off_c, 0, 85, 67
1, 288109, Note_off_c, 0, 64, 63
1, 288117, Note_on_c, 0, 62, 71
1, 288121, Note_on_c, 0, 58, 47
1, 288151, Note_off_c, 0, 58, 63
1, 288200, Note_on_c, 0, 64, 57
1, 288244, Note_off_c, 0, 64, 58
1, 288277, Note_on_c, 0, 65, 66
1, 288322, Note_off_c, 0, 65, 62
1, 288363, Note_on_c, 0, 67, 67
1, 288390, Note_off_c, 0, 67, 67
1, 288411, Note_off_c, 0, 62, 54
1, 288450, Note_on_c, 0, 60, 62
1, 288452, Note_on_c, 0, 69, 66
1, 288468, Note_on_c, 0, 53, 55
1, 288488, Control_c, 0, 64, 63
1, 288510, Control_c, 0, 64, 71
1, 288517, Note_off_c, 0, 69, 55
1, 288525, Control_c, 0, 64, 76
1, 288536, Note_on_c, 0, 72, 70
1, 288540, Control_c, 0, 64, 80
1, 288555, Control_c, 0, 64, 81
1, 288569, Note_off_c, 0, 53, 60
1, 288570, Control_c, 0, 64, 82
1, 288594, Note_off_c, 0, 72, 51
1, 288598, Note_off_c, 0, 60, 60
1, 288614, Note_on_c, 0, 75, 65
1, 288658, Control_c, 0, 64, 81
1, 288673, Control_c, 0, 64, 81
1, 288681, Note_off_c, 0, 75, 61
1, 288687, Note_on_c, 0, 81, 71
1, 288688, Control_c, 0, 64, 80
1, 288703, Note_off_c, 0, 81, 66
1, 288703, Control_c, 0, 64, 79
1, 288718, Control_c, 0, 64, 78
1, 288732, Control_c, 0, 64, 76
1, 288747, Control_c, 0, 64, 73
1, 288762, Control_c, 0, 64, 69
1, 288777, Control_c, 0, 64, 64
1, 288792, Control_c, 0, 64, 50
1, 288795, Note_on_c, 0, 60, 76
1, 288807, Control_c, 0, 64, 0
1, 288869, Note_on_c, 0, 62, 60
1, 288913, Note_off_c, 0, 62, 56
1, 288949, Note_on_c, 0, 64, 60
1, 288988, Note_off_c, 0, 64, 61
1, 289031, Note_on_c, 0, 66, 63
1, 289065, Note_off_c, 0, 66, 66
1, 289122, Note_off_c, 0, 60, 59
1, 289128, Note_on_c, 0, 58, 63
1, 289133, Note_on_c, 0, 52, 59
1, 289134, Note_on_c, 0, 67, 47
1, 289159, Note_off_c, 0, 67, 54
1, 289191, Note_on_c, 0, 70, 64
1, 289206, Note_off_c, 0, 52, 59
1, 289263, Note_off_c, 0, 70, 61
1, 289287, Note_on_c, 0, 76, 66
1, 289345, Note_off_c, 0, 76, 55
1, 289376, Note_on_c, 0, 74, 56
1, 289399, Note_off_c, 0, 74, 63
1, 289458, Note_off_c, 0, 58, 62
1, 289469, Note_on_c, 0, 73, 57
1, 289471, Note_on_c, 0, 57, 50
1, 289501, Note_off_c, 0, 73, 67
1, 289547, Note_on_c, 0, 76, 60
1, 289588, Note_off_c, 0, 76, 60
1, 289630, Note_on_c, 0, 79, 52
1, 289661, Note_off_c, 0, 79, 51
1, 289701, Note_on_c, 0, 76, 60
1, 289735, Note_off_c, 0, 76, 55
1, 289749, Control_c, 0, 64, 58
1, 289764, Control_c, 0, 64, 68
1, 289779, Control_c, 0, 64, 74
1, 289784, Note_on_c, 0, 73, 61
1, 289794, Control_c, 0, 64, 78
1, 289809, Control_c, 0, 64, 79
1, 289809, Note_off_c, 0, 57, 58
1, 289823, Control_c, 0, 64, 80
1, 289828, Note_off_c, 0, 73, 61
1, 289838, Control_c, 0, 64, 81
1, 289854, Note_on_c, 0, 69, 74
1, 289890, Note_off_c, 0, 69, 60
1, 289937, Note_on_c, 0, 67, 70
1, 289942, Control_c, 0, 64, 80
1, 289956, Control_c, 0, 64, 80
1, 289971, Control_c, 0, 64, 79
1, 290005, Note_off_c, 0, 67, 57
1, 290008, Control_c, 0, 64, 78
1, 290021, Note_on_c, 0, 64, 69
1, 290038, Control_c, 0, 64, 78
1, 290049, Note_off_c, 0, 64, 66
1, 290068, Control_c, 0, 64, 77
1, 290083, Control_c, 0, 64, 76
1, 290098, Control_c, 0, 64, 75
1, 290112, Control_c, 0, 64, 71
1, 290115, Note_on_c, 0, 57, 81
1, 290127, Control_c, 0, 64, 66
1, 290141, Note_on_c, 0, 53, 51
1, 290142, Control_c, 0, 64, 45
1, 290156, Control_c, 0, 64, 0
1, 290184, Note_off_c, 0, 53, 62
1, 290195, Note_on_c, 0, 61, 65
1, 290247, Note_off_c, 0, 61, 59
1, 290278, Note_on_c, 0, 62, 62
1, 290319, Note_off_c, 0, 62, 55
1, 290351, Note_on_c, 0, 64, 67
1, 290402, Note_off_c, 0, 64, 59
1, 290437, Note_on_c, 0, 65, 66
1, 290448, Note_on_c, 0, 47, 52
1, 290497, Note_off_c, 0, 47, 58
1, 290500, Note_off_c, 0, 65, 58
1, 290521, Note_on_c, 0, 69, 63
1, 290557, Note_off_c, 0, 69, 60
1, 290589, Note_on_c, 0, 67, 64
1, 290628, Note_off_c, 0, 67, 56
1, 290680, Note_on_c, 0, 65, 59
1, 290709, Note_off_c, 0, 65, 64
1, 290765, Note_on_c, 0, 64, 61
1, 290773, Note_on_c, 0, 52, 54
1, 290800, Note_off_c, 0, 64, 64
1, 290814, Note_off_c, 0, 52, 66
1, 290837, Note_on_c, 0, 71, 67
1, 290870, Note_off_c, 0, 71, 59
1, 290924, Note_on_c, 0, 74, 62
1, 290989, Note_off_c, 0, 74, 62
1, 290993, Note_on_c, 0, 77, 65
1, 291014, Note_off_c, 0, 77, 64
1, 291090, Note_off_c, 0, 57, 52
1, 291103, Note_on_c, 0, 56, 54
1, 291105, Note_on_c, 0, 76, 51
1, 291135, Note_off_c, 0, 76, 53
1, 291142, Control_c, 0, 64, 63
1, 291157, Control_c, 0, 64, 71
1, 291170, Note_on_c, 0, 74, 60
1, 291171, Control_c, 0, 64, 75
1, 291186, Control_c, 0, 64, 78
1, 291201, Control_c, 0, 64, 80
1, 291216, Control_c, 0, 64, 81
1, 291231, Control_c, 0, 64, 82
1, 291238, Note_off_c, 0, 74, 62
1, 291250, Note_on_c, 0, 71, 66
1, 291284, Note_off_c, 0, 71, 60
1, 291296, Note_off_c, 0, 56, 62
1, 291306, Control_c, 0, 64, 81
1, 291331, Note_on_c, 0, 64, 63
1, 291336, Control_c, 0, 64, 81
1, 291350, Control_c, 0, 64, 80
1, 291359, Note_off_c, 0, 64, 65
1, 291365, Control_c, 0, 64, 78
1, 291380, Control_c, 0, 64, 77
1, 291394, Control_c, 0, 64, 75
1, 291409, Control_c, 0, 64, 72
1, 291424, Control_c, 0, 64, 69
1, 291439, Control_c, 0, 64, 64
1, 291454, Control_c, 0, 64, 56
1, 291455, Note_on_c, 0, 55, 73
1, 291469, Control_c, 0, 64, 23
1, 291475, Note_on_c, 0, 51, 50
1, 291484, Control_c, 0, 64, 0
1, 291548, Note_on_c, 0, 59, 53
1, 291575, Note_off_c, 0, 51, 57
1, 291596, Note_off_c, 0, 59, 55
1, 291612, Note_on_c, 0, 60, 65
1, 291661, Note_off_c, 0, 60, 55
1, 291692, Note_on_c, 0, 62, 68
1, 291748, Note_off_c, 0, 62, 48
1, 291785, Note_on_c, 0, 63, 63
1, 291805, Note_on_c, 0, 45, 54
1, 291816, Note_off_c, 0, 63, 63
1, 291851, Note_on_c, 0, 67, 67
1, 291861, Note_off_c, 0, 45, 61
1, 291919, Note_off_c, 0, 67, 42
1, 291938, Note_on_c, 0, 65, 63
1, 291978, Note_off_c, 0, 65, 58
1, 292020, Note_on_c, 0, 63, 58
1, 292059, Note_off_c, 0, 63, 64
1, 292116, Note_on_c, 0, 62, 61
1, 292122, Note_on_c, 0, 50, 51
1, 292146, Note_off_c, 0, 62, 62
1, 292163, Note_off_c, 0, 50, 64
1, 292191, Note_on_c, 0, 69, 65
1, 292222, Note_off_c, 0, 69, 66
1, 292285, Note_on_c, 0, 72, 66
1, 292342, Note_off_c, 0, 72, 59
1, 292354, Note_on_c, 0, 75, 69
1, 292378, Note_off_c, 0, 75, 70
1, 292446, Note_on_c, 0, 74, 57
1, 292459, Note_on_c, 0, 54, 47
1, 292477, Control_c, 0, 64, 43
1, 292488, Note_off_c, 0, 74, 52
1, 292492, Control_c, 0, 64, 67
1, 292506, Control_c, 0, 64, 73
1, 292521, Note_on_c, 0, 72, 66
1, 292521, Control_c, 0, 64, 76
1, 292536, Control_c, 0, 64, 77
1, 292575, Note_off_c, 0, 72, 56
1, 292578, Note_off_c, 0, 55, 44
1, 292585, Note_off_c, 0, 54, 61
1, 292605, Note_on_c, 0, 69, 69
1, 292637, Note_off_c, 0, 69, 65
1, 292640, Control_c, 0, 64, 76
1, 292669, Control_c, 0, 64, 76
1, 292684, Control_c, 0, 64, 75
1, 292685, Note_on_c, 0, 62, 62
1, 292699, Control_c, 0, 64, 74
1, 292714, Control_c, 0, 64, 72
1, 292718, Note_off_c, 0, 62, 64
1, 292729, Control_c, 0, 64, 70
1, 292743, Control_c, 0, 64, 66
1, 292758, Control_c, 0, 64, 62
1, 292773, Control_c, 0, 64, 45
1, 292787, Note_on_c, 0, 58, 70
1, 292788, Control_c, 0, 64, 0
1, 292800, Note_on_c, 0, 55, 56
1, 292869, Note_on_c, 0, 61, 62
1, 292893, Note_off_c, 0, 55, 63
1, 292924, Note_off_c, 0, 61, 48
1, 292948, Note_on_c, 0, 62, 66
1, 293023, Note_off_c, 0, 62, 58
1, 293040, Note_on_c, 0, 64, 70
1, 293058, Note_off_c, 0, 58, 62
1, 293064, Note_off_c, 0, 64, 67
1, 293113, Note_on_c, 0, 57, 76
1, 293141, Note_on_c, 0, 66, 66
1, 293208, Note_on_c, 0, 69, 76
1, 293209, Note_off_c, 0, 66, 64
1, 293275, Note_off_c, 0, 69, 64
1, 293291, Note_on_c, 0, 72, 68
1, 293357, Note_on_c, 0, 78, 76
1, 293358, Note_off_c, 0, 72, 64
1, 293377, Note_off_c, 0, 78, 70
1, 293432, Note_off_c, 0, 57, 52
1, 293442, Note_on_c, 0, 55, 78
1, 293457, Note_on_c, 0, 46, 53
1, 293535, Note_on_c, 0, 57, 73
1, 293550, Note_off_c, 0, 46, 62
1, 293602, Note_off_c, 0, 57, 58
1, 293606, Note_on_c, 0, 58, 68
1, 293663, Note_off_c, 0, 58, 65
1, 293678, Note_on_c, 0, 60, 73
1, 293709, Note_off_c, 0, 60, 60
1, 293761, Note_off_c, 0, 55, 58
1, 293785, Note_on_c, 0, 53, 79
1, 293786, Note_on_c, 0, 62, 70
1, 293799, Note_on_c, 0, 47, 62
1, 293850, Note_off_c, 0, 62, 51
1, 293864, Note_on_c, 0, 65, 70
1, 293886, Control_c, 0, 64, 61
1, 293901, Control_c, 0, 64, 68
1, 293916, Control_c, 0, 64, 71
1, 293922, Note_off_c, 0, 47, 61
1, 293930, Control_c, 0, 64, 73
1, 293939, Note_off_c, 0, 65, 61
1, 293945, Control_c, 0, 64, 73
1, 293948, Note_on_c, 0, 68, 64
1, 293957, Note_off_c, 0, 53, 64
1, 294012, Note_off_c, 0, 68, 62
1, 294015, Note_on_c, 0, 74, 65
1, 294019, Control_c, 0, 64, 73
1, 294032, Note_off_c, 0, 74, 69
1, 294049, Control_c, 0, 64, 72
1, 294063, Control_c, 0, 64, 71
1, 294078, Control_c, 0, 64, 70
1, 294093, Control_c, 0, 64, 69
1, 294108, Control_c, 0, 64, 66
1, 294116, Note_on_c, 0, 53, 81
1, 294122, Control_c, 0, 64, 62
1, 294124, Note_on_c, 0, 48, 59
1, 294137, Control_c, 0, 64, 48
1, 294152, Control_c, 0, 64, 0
1, 294172, Note_off_c, 0, 48, 63
1, 294194, Note_on_c, 0, 54, 62
1, 294253, Note_off_c, 0, 54, 58
1, 294286, Note_on_c, 0, 55, 60
1, 294333, Note_off_c, 0, 55, 56
1, 294360, Note_on_c, 0, 57, 67
1, 294411, Note_off_c, 0, 57, 49
1, 294455, Note_on_c, 0, 52, 74
1, 294465, Note_off_c, 0, 53, 63
1, 294473, Note_on_c, 0, 58, 59
1, 294529, Note_off_c, 0, 58, 63
1, 294553, Note_on_c, 0, 62, 56
1, 294614, Note_off_c, 0, 62, 45
1, 294635, Note_on_c, 0, 60, 62
1, 294673, Note_off_c, 0, 60, 57
1, 294718, Note_on_c, 0, 58, 56
1, 294758, Note_off_c, 0, 58, 66
1, 294763, Note_off_c, 0, 52, 58
1, 294791, Note_on_c, 0, 53, 55
1, 294800, Note_on_c, 0, 57, 66
1, 294826, Note_on_c, 0, 41, 39
1, 294837, Note_off_c, 0, 57, 59
1, 294870, Note_on_c, 0, 60, 71
1, 294889, Note_off_c, 0, 41, 58
1, 294918, Note_off_c, 0, 60, 54
1, 294956, Note_on_c, 0, 65, 56
1, 295011, Note_off_c, 0, 65, 62
1, 295027, Note_on_c, 0, 68, 66
1, 295061, Note_off_c, 0, 68, 65
1, 295124, Note_on_c, 0, 69, 57
1, 295124, Control_c, 0, 64, 49
1, 295130, Note_off_c, 0, 53, 65
1, 295138, Control_c, 0, 64, 66
1, 295149, Note_off_c, 0, 69, 61
1, 295153, Control_c, 0, 64, 71
1, 295168, Control_c, 0, 64, 74
1, 295183, Control_c, 0, 64, 75
1, 295202, Note_on_c, 0, 72, 44
1, 295206, Note_on_c, 0, 74, 45
1, 295223, Note_off_c, 0, 72, 58
1, 295228, Note_off_c, 0, 74, 58
1, 295264, Note_on_c, 0, 77, 69
1, 295311, Control_c, 0, 64, 76
1, 295352, Note_off_c, 0, 77, 61
1, 295360, Note_on_c, 0, 81, 51
1, 295381, Note_off_c, 0, 81, 38
1, 295399, Control_c, 0, 64, 75
1, 295414, Control_c, 0, 64, 72
1, 295429, Note_on_c, 0, 60, 81
1, 295429, Control_c, 0, 64, 65
1, 295434, Note_on_c, 0, 79, 80
1, 295443, Control_c, 0, 64, 0
1, 295450, Note_on_c, 0, 51, 56
1, 295500, Note_off_c, 0, 51, 57
1, 295502, Note_off_c, 0, 79, 60
1, 295506, Note_on_c, 0, 75, 72
1, 295562, Note_off_c, 0, 75, 65
1, 295596, Note_on_c, 0, 72, 53
1, 295617, Note_off_c, 0, 72, 62
1, 295636, Control_c, 0, 67, 125
1, 295651, Control_c, 0, 67, 122
1, 295654, Note_on_c, 0, 69, 65
1, 295666, Control_c, 0, 67, 118
1, 295681, Control_c, 0, 67, 113
1, 295687, Note_off_c, 0, 69, 66
1, 295695, Control_c, 0, 67, 108
1, 295710, Control_c, 0, 67, 101
1, 295725, Control_c, 0, 67, 95
1, 295740, Control_c, 0, 67, 91
1, 295753, Note_on_c, 0, 48, 60
1, 295755, Control_c, 0, 67, 90
1, 295758, Note_on_c, 0, 67, 67
1, 295769, Control_c, 0, 67, 90
1, 295813, Note_off_c, 0, 48, 60
1, 295817, Note_off_c, 0, 67, 54
1, 295829, Control_c, 0, 67, 90
1, 295842, Note_on_c, 0, 63, 62
1, 295843, Control_c, 0, 67, 91
1, 295873, Control_c, 0, 67, 91
1, 295879, Note_off_c, 0, 63, 58
1, 295924, Note_on_c, 0, 67, 52
1, 295961, Control_c, 0, 67, 92
1, 295968, Note_off_c, 0, 67, 59
1, 295991, Note_on_c, 0, 70, 68
1, 296012, Control_c, 0, 67, 91
1, 296017, Note_off_c, 0, 70, 67
1, 296072, Control_c, 0, 64, 61
1, 296077, Note_on_c, 0, 53, 60
1, 296087, Control_c, 0, 64, 68
1, 296102, Note_off_c, 0, 60, 61
1, 296102, Control_c, 0, 64, 72
1, 296102, Control_c, 0, 67, 92
1, 296113, Note_off_c, 0, 53, 67
1, 296116, Control_c, 0, 64, 74
1, 296131, Control_c, 0, 64, 75
1, 296131, Control_c, 0, 67, 92
1, 296161, Control_c, 0, 67, 93
1, 296175, Note_on_c, 0, 69, 60
1, 296206, Control_c, 0, 67, 93
1, 296235, Control_c, 0, 67, 94
1, 296241, Note_off_c, 0, 69, 40
1, 296255, Note_on_c, 0, 67, 67
1, 296265, Control_c, 0, 64, 74
1, 296265, Control_c, 0, 67, 93
1, 296295, Control_c, 0, 64, 74
1, 296295, Control_c, 0, 67, 93
1, 296300, Note_off_c, 0, 67, 50
1, 296310, Control_c, 0, 64, 73
1, 296324, Control_c, 0, 64, 73
1, 296332, Note_on_c, 0, 65, 64
1, 296339, Control_c, 0, 64, 72
1, 296339, Control_c, 0, 67, 92
1, 296354, Control_c, 0, 64, 69
1, 296369, Note_off_c, 0, 65, 65
1, 296369, Control_c, 0, 64, 64
1, 296384, Control_c, 0, 64, 0
1, 296416, Note_on_c, 0, 59, 73
1, 296432, Note_on_c, 0, 43, 52
1, 296445, Note_on_c, 0, 31, 48
1, 296458, Control_c, 0, 64, 50
1, 296472, Control_c, 0, 64, 65
1, 296487, Control_c, 0, 64, 70
1, 296495, Note_off_c, 0, 31, 61
1, 296499, Note_off_c, 0, 43, 60
1, 296502, Control_c, 0, 64, 73
1, 296515, Note_on_c, 0, 62, 57
1, 296516, Control_c, 0, 64, 74
1, 296531, Control_c, 0, 64, 74
1, 296586, Note_on_c, 0, 68, 62
1, 296589, Note_off_c, 0, 62, 60
1, 296605, Control_c, 0, 67, 93
1, 296635, Control_c, 0, 64, 75
1, 296650, Control_c, 0, 67, 93
1, 296668, Note_on_c, 0, 65, 64
1, 296670, Note_off_c, 0, 68, 58
1, 296680, Control_c, 0, 64, 74
1, 296683, Note_off_c, 0, 59, 24
1, 296694, Control_c, 0, 64, 73
1, 296709, Control_c, 0, 64, 70
1, 296724, Control_c, 0, 64, 65
1, 296724, Control_c, 0, 67, 93
1, 296746, Control_c, 0, 64, 32
1, 296761, Control_c, 0, 64, 0
1, 296776, Note_on_c, 0, 59, 88
1, 296787, Note_on_c, 0, 43, 54
1, 296794, Note_on_c, 0, 31, 54
1, 296820, Control_c, 0, 64, 63
1, 296835, Control_c, 0, 64, 68
1, 296850, Control_c, 0, 64, 71
1, 296855, Note_off_c, 0, 65, 23
1, 296860, Note_on_c, 0, 62, 72
1, 296866, Note_off_c, 0, 43, 60
1, 296866, Control_c, 0, 64, 73
1, 296870, Note_off_c, 0, 31, 60
1, 296881, Control_c, 0, 64, 74
1, 296881, Control_c, 0, 67, 93
1, 296895, Control_c, 0, 64, 74
1, 296910, Control_c, 0, 67, 94
1, 296925, Control_c, 0, 67, 95
1, 296939, Control_c, 0, 64, 75
1, 296941, Note_on_c, 0, 68, 74
1, 296945, Note_off_c, 0, 62, 60
1, 296969, Control_c, 0, 64, 75
1, 296969, Control_c, 0, 67, 95
1, 297027, Note_on_c, 0, 65, 70
1, 297028, Note_off_c, 0, 59, 48
1, 297028, Control_c, 0, 64, 75
1, 297029, Note_off_c, 0, 68, 62
1, 297043, Control_c, 0, 64, 72
1, 297058, Control_c, 0, 64, 68
1, 297073, Control_c, 0, 64, 56
1, 297073, Control_c, 0, 67, 95
1, 297088, Control_c, 0, 64, 0
1, 297118, Control_c, 0, 67, 95
1, 297121, Note_on_c, 0, 59, 96
1, 297126, Note_on_c, 0, 43, 63
1, 297132, Note_on_c, 0, 31, 55
1, 297132, Control_c, 0, 64, 29
1, 297136, Note_off_c, 0, 65, 38
1, 297147, Control_c, 0, 64, 64
1, 297162, Control_c, 0, 64, 69
1, 297174, Note_off_c, 0, 31, 60
1, 297177, Control_c, 0, 64, 73
1, 297192, Control_c, 0, 64, 75
1, 297192, Control_c, 0, 67, 96
1, 297204, Note_on_c, 0, 62, 78
1, 297204, Note_off_c, 0, 43, 59
1, 297207, Control_c, 0, 64, 75
1, 297207, Control_c, 0, 67, 96
1, 297221, Control_c, 0, 64, 76
1, 297221, Control_c, 0, 67, 97
1, 297236, Control_c, 0, 67, 97
1, 297266, Control_c, 0, 67, 98
1, 297286, Note_on_c, 0, 68, 77
1, 297288, Note_off_c, 0, 62, 61
1, 297310, Control_c, 0, 67, 97
1, 297354, Control_c, 0, 67, 97
1, 297380, Note_on_c, 0, 65, 68
1, 297381, Note_off_c, 0, 68, 59
1, 297388, Note_off_c, 0, 59, 50
1, 297399, Control_c, 0, 67, 96
1, 297413, Control_c, 0, 64, 75
1, 297428, Control_c, 0, 64, 74
1, 297428, Control_c, 0, 67, 96
1, 297443, Control_c, 0, 64, 73
1, 297445, Note_off_c, 0, 65, 64
1, 297458, Control_c, 0, 64, 69
1, 297458, Control_c, 0, 67, 95
1, 297472, Control_c, 0, 64, 61
1, 297475, Note_on_c, 0, 59, 85
1, 297481, Note_on_c, 0, 48, 71
1, 297495, Control_c, 0, 64, 0
1, 297503, Note_on_c, 0, 36, 60
1, 297511, Control_c, 0, 67, 95
1, 297555, Control_c, 0, 67, 94
1, 297568, Note_on_c, 0, 62, 65
1, 297652, Note_off_c, 0, 59, 48
1, 297657, Note_on_c, 0, 68, 67
1, 297657, Note_off_c, 0, 62, 61
1, 297726, Note_on_c, 0, 65, 68
1, 297731, Note_off_c, 0, 68, 61
1, 297763, Control_c, 0, 67, 95
1, 297771, Note_off_c, 0, 65, 63
1, 297793, Control_c, 0, 67, 95
1, 297809, Note_off_c, 0, 36, 64
1, 297820, Note_on_c, 0, 60, 77
1, 297823, Control_c, 0, 64, 55
1, 297837, Control_c, 0, 64, 69
1, 297841, Note_off_c, 0, 48, 65
1, 297852, Control_c, 0, 64, 77
1, 297867, Control_c, 0, 64, 81
1, 297881, Control_c, 0, 64, 82
1, 297881, Control_c, 0, 67, 96
1, 297893, Note_on_c, 0, 64, 78
1, 297896, Control_c, 0, 64, 82
1, 297900, Note_off_c, 0, 60, 58
1, 297911, Control_c, 0, 67, 97
1, 297926, Control_c, 0, 67, 97
1, 297955, Control_c, 0, 67, 98
1, 297970, Control_c, 0, 67, 98
1, 297975, Note_on_c, 0, 67, 70
1, 297980, Note_off_c, 0, 64, 60
1, 297985, Control_c, 0, 67, 99
1, 298000, Control_c, 0, 67, 100
1, 298015, Control_c, 0, 67, 102
1, 298030, Control_c, 0, 64, 83
1, 298030, Control_c, 0, 67, 104
1, 298045, Control_c, 0, 67, 106
1, 298047, Note_on_c, 0, 72, 75
1, 298054, Note_off_c, 0, 67, 62
1, 298060, Control_c, 0, 67, 108
1, 298070, Note_off_c, 0, 72, 69
1, 298075, Control_c, 0, 67, 108
1, 298119, Control_c, 0, 64, 81
1, 298134, Control_c, 0, 64, 73
1, 298134, Control_c, 0, 67, 108
1, 298137, Note_on_c, 0, 62, 91
1, 298149, Control_c, 0, 64, 58
1, 298149, Control_c, 0, 67, 107
1, 298150, Note_on_c, 0, 58, 67
1, 298163, Control_c, 0, 64, 0
1, 298163, Control_c, 0, 67, 108
1, 298182, Note_off_c, 0, 58, 67
1, 298222, Note_on_c, 0, 86, 68
1, 298223, Control_c, 0, 67, 108
1, 298260, Note_off_c, 0, 86, 60
1, 298302, Note_on_c, 0, 82, 70
1, 298333, Control_c, 0, 67, 109
1, 298349, Note_off_c, 0, 82, 60
1, 298379, Note_on_c, 0, 79, 74
1, 298411, Note_off_c, 0, 79, 59
1, 298422, Control_c, 0, 67, 108
1, 298451, Control_c, 0, 67, 108
1, 298480, Note_on_c, 0, 74, 59
1, 298482, Control_c, 0, 67, 107
1, 298483, Note_on_c, 0, 52, 59
1, 298497, Control_c, 0, 67, 107
1, 298501, Note_off_c, 0, 74, 68
1, 298531, Note_off_c, 0, 52, 64
1, 298541, Control_c, 0, 67, 106
1, 298563, Note_on_c, 0, 70, 66
1, 298623, Note_off_c, 0, 70, 59
1, 298634, Note_on_c, 0, 67, 63
1, 298660, Note_off_c, 0, 67, 65
1, 298689, Control_c, 0, 67, 106
1, 298704, Control_c, 0, 67, 105
1, 298714, Note_on_c, 0, 64, 60
1, 298718, Control_c, 0, 67, 105
1, 298733, Control_c, 0, 67, 104
1, 298747, Note_off_c, 0, 64, 64
1, 298748, Control_c, 0, 67, 104
1, 298763, Control_c, 0, 67, 103
1, 298793, Control_c, 0, 67, 103
1, 298800, Note_on_c, 0, 57, 62
1, 298808, Control_c, 0, 64, 55
1, 298808, Control_c, 0, 67, 102
1, 298823, Control_c, 0, 64, 69
1, 298828, Note_off_c, 0, 62, 61
1, 298832, Note_off_c, 0, 57, 65
1, 298838, Control_c, 0, 64, 75
1, 298838, Control_c, 0, 67, 102
1, 298852, Control_c, 0, 64, 80
1, 298867, Control_c, 0, 64, 81
1, 298867, Control_c, 0, 67, 101
1, 298868, Note_on_c, 0, 70, 67
1, 298897, Control_c, 0, 64, 82
1, 298911, Control_c, 0, 67, 102
1, 298951, Note_on_c, 0, 69, 68
1, 298967, Note_off_c, 0, 70, 54
1, 299022, Control_c, 0, 67, 101
1, 299028, Note_off_c, 0, 69, 63
1, 299032, Note_on_c, 0, 67, 72
1, 299037, Control_c, 0, 64, 81
1, 299052, Control_c, 0, 64, 81
1, 299067, Control_c, 0, 64, 79
1, 299082, Control_c, 0, 64, 77
1, 299092, Note_off_c, 0, 67, 62
1, 299097, Control_c, 0, 64, 70
1, 299111, Control_c, 0, 64, 60
1, 299112, Note_on_c, 0, 61, 79
1, 299126, Control_c, 0, 64, 0
1, 299130, Note_on_c, 0, 45, 55
1, 299140, Note_on_c, 0, 33, 47
1, 299185, Control_c, 0, 64, 61
1, 299185, Control_c, 0, 67, 102
1, 299200, Control_c, 0, 64, 69
1, 299207, Note_on_c, 0, 64, 64
1, 299215, Control_c, 0, 64, 73
1, 299230, Control_c, 0, 64, 76
1, 299245, Control_c, 0, 64, 78
1, 299261, Control_c, 0, 64, 79
1, 299276, Control_c, 0, 64, 80
1, 299281, Note_on_c, 0, 70, 77
1, 299287, Note_off_c, 0, 45, 62
1, 299287, Note_off_c, 0, 64, 63
1, 299297, Note_off_c, 0, 61, 59
1, 299305, Control_c, 0, 67, 102
1, 299320, Note_off_c, 0, 33, 37
1, 299320, Control_c, 0, 64, 80
1, 299362, Note_on_c, 0, 67, 76
1, 299364, Control_c, 0, 67, 102
1, 299375, Note_off_c, 0, 70, 59
1, 299379, Control_c, 0, 67, 102
1, 299408, Control_c, 0, 64, 80
1, 299423, Control_c, 0, 64, 79
1, 299428, Note_off_c, 0, 67, 54
1, 299438, Note_on_c, 0, 61, 96
1, 299438, Control_c, 0, 64, 75
1, 299453, Control_c, 0, 64, 68
1, 299455, Note_on_c, 0, 45, 67
1, 299463, Note_on_c, 0, 33, 60
1, 299468, Control_c, 0, 64, 34
1, 299482, Control_c, 0, 64, 0
1, 299482, Control_c, 0, 67, 102
1, 299527, Control_c, 0, 64, 62
1, 299529, Note_on_c, 0, 64, 76
1, 299541, Control_c, 0, 64, 68
1, 299556, Control_c, 0, 64, 71
1, 299571, Control_c, 0, 64, 74
1, 299586, Control_c, 0, 64, 75
1, 299601, Control_c, 0, 64, 76
1, 299607, Note_on_c, 0, 70, 82
1, 299616, Control_c, 0, 64, 77
1, 299618, Note_off_c, 0, 64, 63
1, 299631, Control_c, 0, 64, 78
1, 299631, Control_c, 0, 67, 102
1, 299645, Note_off_c, 0, 61, 60
1, 299660, Control_c, 0, 64, 78
1, 299663, Note_off_c, 0, 33, 46
1, 299684, Note_off_c, 0, 45, 53
1, 299687, Note_on_c, 0, 67, 81
1, 299702, Note_off_c, 0, 70, 61
1, 299720, Control_c, 0, 64, 78
1, 299720, Control_c, 0, 67, 103
1, 299741, Control_c, 0, 64, 74
1, 299756, Control_c, 0, 64, 66
1, 299756, Control_c, 0, 67, 103
1, 299771, Control_c, 0, 64, 0
1, 299779, Note_on_c, 0, 61, 98
1, 299795, Note_on_c, 0, 45, 83
1, 299798, Note_on_c, 0, 33, 76
1, 299812, Note_off_c, 0, 67, 63
1, 299815, Control_c, 0, 64, 35
1, 299830, Control_c, 0, 64, 64
1, 299845, Control_c, 0, 64, 69
1, 299845, Control_c, 0, 67, 103
1, 299860, Note_on_c, 0, 64, 82
1, 299860, Control_c, 0, 64, 73
1, 299875, Control_c, 0, 64, 75
1, 299890, Control_c, 0, 64, 76
1, 299890, Control_c, 0, 67, 103
1, 299905, Control_c, 0, 64, 77
1, 299920, Control_c, 0, 64, 78
1, 299926, Note_off_c, 0, 33, 58
1, 299934, Control_c, 0, 67, 104
1, 299939, Note_off_c, 0, 45, 54
1, 299944, Note_on_c, 0, 70, 84
1, 299949, Control_c, 0, 64, 78
1, 299950, Note_off_c, 0, 64, 64
1, 299964, Control_c, 0, 64, 79
1, 299964, Control_c, 0, 67, 104
1, 299979, Control_c, 0, 64, 80
1, 299979, Control_c, 0, 67, 105
1, 299987, Note_off_c, 0, 61, 59
1, 299994, Control_c, 0, 64, 81
1, 299994, Control_c, 0, 67, 105
1, 300008, Control_c, 0, 64, 82
1, 300008, Control_c, 0, 67, 106
1, 300023, Control_c, 0, 64, 83
1, 300023, Control_c, 0, 67, 106
1, 300025, Note_on_c, 0, 67, 84
1, 300036, Note_off_c, 0, 70, 58
1, 300038, Control_c, 0, 64, 84
1, 300099, Control_c, 0, 64, 83
1, 300113, Control_c, 0, 64, 78
1, 300113, Control_c, 0, 67, 105
1, 300116, Note_on_c, 0, 61, 93
1, 300121, Note_on_c, 0, 46, 90
1, 300128, Control_c, 0, 64, 69
1, 300128, Control_c, 0, 67, 104
1, 300129, Note_on_c, 0, 34, 78
1, 300140, Note_off_c, 0, 67, 36
1, 300143, Control_c, 0, 64, 0
1, 300143, Control_c, 0, 67, 102
1, 300157, Control_c, 0, 67, 101
1, 300172, Control_c, 0, 67, 100
1, 300187, Control_c, 0, 67, 98
1, 300202, Control_c, 0, 67, 97
1, 300206, Note_on_c, 0, 64, 77
1, 300217, Control_c, 0, 67, 96
1, 300231, Control_c, 0, 67, 93
1, 300246, Control_c, 0, 67, 91
1, 300261, Control_c, 0, 67, 90
1, 300276, Control_c, 0, 67, 90
1, 300289, Note_on_c, 0, 70, 75
1, 300293, Note_off_c, 0, 64, 62
1, 300343, Note_off_c, 0, 61, 61
1, 300350, Control_c, 0, 67, 90
1, 300363, Note_on_c, 0, 67, 76
1, 300374, Note_off_c, 0, 70, 58
1, 300379, Control_c, 0, 67, 91
1, 300423, Note_off_c, 0, 67, 62
1, 300424, Control_c, 0, 67, 92
1, 300438, Control_c, 0, 67, 92
1, 300453, Control_c, 0, 64, 58
1, 300453, Control_c, 0, 67, 93
1, 300456, Note_on_c, 0, 62, 91
1, 300460, Note_off_c, 0, 34, 64
1, 300468, Control_c, 0, 64, 70
1, 300468, Control_c, 0, 67, 93
1, 300488, Note_off_c, 0, 46, 62
1, 300490, Control_c, 0, 64, 78
1, 300505, Control_c, 0, 64, 82
1, 300520, Control_c, 0, 64, 84
1, 300535, Control_c, 0, 64, 84
1, 300543, Note_on_c, 0, 65, 80
1, 300550, Control_c, 0, 64, 85
1, 300556, Note_off_c, 0, 62, 58
1, 300564, Control_c, 0, 67, 94
1, 300579, Control_c, 0, 67, 94
1, 300594, Control_c, 0, 67, 95
1, 300609, Control_c, 0, 67, 96
1, 300618, Note_on_c, 0, 70, 81
1, 300624, Note_off_c, 0, 65, 65
1, 300624, Control_c, 0, 64, 85
1, 300624, Control_c, 0, 67, 97
1, 300638, Control_c, 0, 67, 98
1, 300653, Control_c, 0, 67, 98
1, 300668, Control_c, 0, 64, 86
1, 300668, Control_c, 0, 67, 99
1, 300683, Control_c, 0, 67, 99
1, 300693, Note_off_c, 0, 70, 63
1, 300701, Note_on_c, 0, 74, 66
1, 300713, Control_c, 0, 67, 100
1, 300733, Note_off_c, 0, 74, 63
1, 300742, Control_c, 0, 64, 84
1, 300742, Control_c, 0, 67, 99
1, 300757, Control_c, 0, 64, 77
1, 300757, Control_c, 0, 67, 99
1, 300771, Note_on_c, 0, 65, 98
1, 300772, Control_c, 0, 64, 65
1, 300772, Control_c, 0, 67, 98
1, 300787, Control_c, 0, 64, 0
1, 300787, Control_c, 0, 67, 97
1, 300790, Note_on_c, 0, 53, 59
1, 300815, Note_off_c, 0, 53, 65
1, 300846, Control_c, 0, 67, 97
1, 300870, Note_on_c, 0, 66, 76
1, 300919, Note_off_c, 0, 66, 64
1, 300921, Control_c, 0, 67, 97
1, 300951, Control_c, 0, 67, 98
1, 300952, Note_on_c, 0, 67, 74
1, 301010, Control_c, 0, 67, 98
1, 301019, Note_off_c, 0, 67, 55
1, 301028, Note_on_c, 0, 69, 72
1, 301040, Control_c, 0, 67, 99
1, 301084, Control_c, 0, 67, 99
1, 301088, Note_off_c, 0, 69, 55
1, 301099, Control_c, 0, 67, 100
1, 301100, Note_on_c, 0, 70, 75
1, 301113, Control_c, 0, 64, 65
1, 301113, Control_c, 0, 67, 101
1, 301128, Control_c, 0, 64, 73
1, 301128, Control_c, 0, 67, 102
1, 301143, Control_c, 0, 64, 79
1, 301143, Control_c, 0, 67, 104
1, 301158, Control_c, 0, 64, 82
1, 301158, Control_c, 0, 67, 105
1, 301160, Note_off_c, 0, 65, 62
1, 301173, Control_c, 0, 64, 82
1, 301179, Note_on_c, 0, 74, 71
1, 301181, Note_off_c, 0, 70, 61
1, 301217, Control_c, 0, 67, 106
1, 301240, Control_c, 0, 67, 107
1, 301255, Control_c, 0, 67, 110
1, 301263, Note_off_c, 0, 74, 54
1, 301267, Note_on_c, 0, 72, 72
1, 301270, Control_c, 0, 67, 113
1, 301285, Control_c, 0, 67, 116
1, 301300, Control_c, 0, 67, 119
1, 301314, Control_c, 0, 67, 122
1, 301323, Note_off_c, 0, 72, 54
1, 301329, Control_c, 0, 67, 124
1, 301335, Note_on_c, 0, 70, 75
1, 301344, Control_c, 0, 67, 126
1, 301359, Control_c, 0, 67, 127
1, 301368, Note_off_c, 0, 70, 60
1, 301388, Control_c, 0, 64, 81
1, 301388, Control_c, 0, 67, 126
1, 301403, Control_c, 0, 64, 78
1, 301403, Control_c, 0, 67, 126
1, 301418, Control_c, 0, 64, 72
1, 301418, Control_c, 0, 67, 124
1, 301430, Note_on_c, 0, 64, 86
1, 301433, Control_c, 0, 64, 62
1, 301433, Control_c, 0, 67, 124
1, 301448, Control_c, 0, 64, 0
1, 301462, Control_c, 0, 67, 123
1, 301473, Note_on_c, 0, 53, 39
1, 301517, Note_on_c, 0, 67, 69
1, 301521, Note_off_c, 0, 53, 45
1, 301521, Control_c, 0, 67, 123
1, 301582, Note_off_c, 0, 67, 56
1, 301593, Note_on_c, 0, 72, 68
1, 301610, Control_c, 0, 67, 122
1, 301640, Control_c, 0, 67, 122
1, 301649, Note_off_c, 0, 72, 58
1, 301671, Control_c, 0, 67, 121
1, 301678, Note_on_c, 0, 70, 74
1, 301738, Note_off_c, 0, 70, 62
1, 301744, Control_c, 0, 67, 121
1, 301765, Note_on_c, 0, 63, 84
1, 301777, Note_on_c, 0, 69, 70
1, 301819, Control_c, 0, 64, 48
1, 301819, Control_c, 0, 67, 121
1, 301825, Note_off_c, 0, 64, 63
1, 301833, Control_c, 0, 64, 57
1, 301848, Control_c, 0, 64, 58
1, 301851, Note_on_c, 0, 72, 74
1, 301852, Note_off_c, 0, 69, 64
1, 301863, Control_c, 0, 64, 57
1, 301878, Control_c, 0, 64, 54
1, 301893, Control_c, 0, 64, 50
1, 301908, Control_c, 0, 64, 43
1, 301908, Control_c, 0, 67, 122
1, 301923, Control_c, 0, 64, 24
1, 301934, Note_on_c, 0, 75, 74
1, 301937, Note_off_c, 0, 72, 61
1, 301937, Control_c, 0, 64, 0
1, 301952, Control_c, 0, 67, 122
1, 302013, Note_on_c, 0, 79, 80
1, 302018, Control_c, 0, 67, 123
1, 302025, Note_off_c, 0, 75, 61
1, 302051, Note_off_c, 0, 79, 64
1, 302092, Control_c, 0, 67, 122
1, 302096, Note_on_c, 0, 62, 88
1, 302107, Control_c, 0, 67, 122
1, 302118, Note_on_c, 0, 53, 69
1, 302122, Control_c, 0, 67, 121
1, 302128, Note_off_c, 0, 63, 63
1, 302136, Control_c, 0, 67, 120
1, 302151, Control_c, 0, 67, 120
1, 302166, Control_c, 0, 67, 119
1, 302181, Control_c, 0, 67, 118
1, 302182, Note_on_c, 0, 77, 75
1, 302196, Control_c, 0, 67, 116
1, 302210, Control_c, 0, 67, 114
1, 302225, Control_c, 0, 67, 108
1, 302240, Control_c, 0, 67, 101
1, 302253, Note_off_c, 0, 77, 50
1, 302254, Control_c, 0, 67, 90
1, 302260, Note_on_c, 0, 74, 74
1, 302269, Control_c, 0, 67, 78
1, 302284, Control_c, 0, 67, 62
1, 302299, Control_c, 0, 67, 41
1, 302307, Note_off_c, 0, 74, 58
1, 302314, Control_c, 0, 67, 16
1, 302328, Control_c, 0, 67, 0
1, 302337, Note_on_c, 0, 70, 72
1, 302393, Note_off_c, 0, 70, 54
1, 302430, Note_on_c, 0, 75, 74
1, 302437, Note_on_c, 0, 60, 83
1, 302448, Note_off_c, 0, 62, 62
1, 302476, Note_off_c, 0, 53, 64
1, 302478, Control_c, 0, 64, 59
1, 302493, Control_c, 0, 64, 68
1, 302500, Note_on_c, 0, 72, 72
1, 302507, Control_c, 0, 64, 73
1, 302522, Control_c, 0, 64, 75
1, 302528, Note_off_c, 0, 75, 62
1, 302537, Control_c, 0, 64, 76
1, 302552, Control_c, 0, 64, 77
1, 302582, Note_off_c, 0, 72, 63
1, 302590, Note_on_c, 0, 69, 76
1, 302597, Control_c, 0, 64, 76
1, 302626, Control_c, 0, 64, 75
1, 302641, Control_c, 0, 64, 73
1, 302653, Note_on_c, 0, 63, 78
1, 302656, Control_c, 0, 64, 71
1, 302659, Note_off_c, 0, 69, 61
1, 302670, Control_c, 0, 64, 67
1, 302685, Control_c, 0, 64, 60
1, 302700, Control_c, 0, 64, 34
1, 302708, Note_off_c, 0, 63, 64
1, 302715, Control_c, 0, 64, 0
1, 302778, Note_on_c, 0, 61, 87
1, 302786, Note_on_c, 0, 54, 70
1, 302799, Note_off_c, 0, 60, 46
1, 302862, Note_on_c, 0, 69, 68
1, 302923, Note_off_c, 0, 69, 64
1, 302932, Note_on_c, 0, 66, 73
1, 303011, Note_off_c, 0, 66, 63
1, 303021, Note_on_c, 0, 69, 75
1, 303081, Note_off_c, 0, 69, 57
1, 303109, Note_on_c, 0, 72, 66
1, 303117, Note_on_c, 0, 62, 86
1, 303125, Note_off_c, 0, 61, 62
1, 303172, Note_off_c, 0, 72, 64
1, 303179, Note_on_c, 0, 75, 75
1, 303262, Note_off_c, 0, 75, 61
1, 303266, Note_on_c, 0, 74, 64
1, 303310, Note_off_c, 0, 54, 58
1, 303339, Note_off_c, 0, 74, 60
1, 303353, Note_on_c, 0, 72, 63
1, 303395, Note_off_c, 0, 72, 55
1, 303429, Note_off_c, 0, 62, 53
1, 303440, Note_on_c, 0, 55, 65
1, 303441, Note_on_c, 0, 70, 62
1, 303479, Note_off_c, 0, 70, 67
1, 303528, Note_on_c, 0, 74, 67
1, 303562, Note_off_c, 0, 74, 60
1, 303609, Note_on_c, 0, 86, 62
1, 303619, Control_c, 0, 67, 9
1, 303634, Control_c, 0, 67, 14
1, 303649, Control_c, 0, 67, 19
1, 303653, Note_off_c, 0, 86, 51
1, 303664, Control_c, 0, 67, 25
1, 303673, Note_on_c, 0, 82, 69
1, 303679, Control_c, 0, 67, 31
1, 303694, Control_c, 0, 67, 36
1, 303708, Control_c, 0, 67, 42
1, 303720, Note_off_c, 0, 82, 63
1, 303723, Control_c, 0, 67, 51
1, 303738, Control_c, 0, 67, 66
1, 303753, Control_c, 0, 67, 82
1, 303759, Note_on_c, 0, 79, 65
1, 303768, Note_on_c, 0, 62, 69
1, 303768, Control_c, 0, 67, 93
1, 303782, Control_c, 0, 64, 57
1, 303782, Control_c, 0, 67, 101
1, 303786, Note_off_c, 0, 79, 66
1, 303797, Control_c, 0, 64, 68
1, 303797, Control_c, 0, 67, 107
1, 303812, Control_c, 0, 64, 71
1, 303812, Control_c, 0, 67, 110
1, 303827, Control_c, 0, 64, 73
1, 303827, Control_c, 0, 67, 112
1, 303831, Note_on_c, 0, 74, 66
1, 303842, Control_c, 0, 64, 74
1, 303842, Control_c, 0, 67, 113
1, 303855, Note_off_c, 0, 55, 59
1, 303856, Control_c, 0, 67, 115
1, 303863, Note_off_c, 0, 74, 59
1, 303919, Note_on_c, 0, 70, 71
1, 303945, Control_c, 0, 67, 115
1, 303960, Control_c, 0, 67, 116
1, 303974, Control_c, 0, 67, 117
1, 303983, Note_off_c, 0, 70, 61
1, 303989, Control_c, 0, 64, 73
1, 303989, Control_c, 0, 67, 118
1, 303993, Note_on_c, 0, 67, 75
1, 304004, Control_c, 0, 64, 73
1, 304004, Control_c, 0, 67, 120
1, 304019, Control_c, 0, 64, 71
1, 304019, Control_c, 0, 67, 121
1, 304020, Note_off_c, 0, 67, 65
1, 304030, Note_off_c, 0, 62, 52
1, 304033, Control_c, 0, 64, 69
1, 304050, Control_c, 0, 64, 65
1, 304065, Control_c, 0, 64, 57
1, 304065, Control_c, 0, 67, 119
1, 304079, Control_c, 0, 64, 0
1, 304079, Control_c, 0, 67, 118
1, 304086, Note_on_c, 0, 61, 71
1, 304094, Control_c, 0, 67, 118
1, 304102, Note_on_c, 0, 57, 60
1, 304109, Control_c, 0, 67, 117
1, 304123, Control_c, 0, 67, 117
1, 304138, Control_c, 0, 67, 116
1, 304162, Note_on_c, 0, 69, 71
1, 304203, Note_off_c, 0, 69, 61
1, 304251, Control_c, 0, 67, 116
1, 304255, Note_on_c, 0, 65, 65
1, 304296, Note_off_c, 0, 65, 56
1, 304310, Control_c, 0, 67, 116
1, 304328, Note_on_c, 0, 69, 74
1, 304384, Control_c, 0, 67, 117
1, 304396, Note_off_c, 0, 69, 59
1, 304414, Note_on_c, 0, 62, 83
1, 304417, Note_on_c, 0, 77, 76
1, 304418, Note_off_c, 0, 61, 61
1, 304443, Control_c, 0, 67, 117
1, 304457, Control_c, 0, 64, 63
1, 304457, Control_c, 0, 67, 118
1, 304472, Control_c, 0, 64, 69
1, 304472, Control_c, 0, 67, 119
1, 304487, Control_c, 0, 64, 72
1, 304487, Control_c, 0, 67, 119
1, 304489, Note_on_c, 0, 74, 77
1, 304489, Note_off_c, 0, 77, 61
1, 304502, Control_c, 0, 64, 74
1, 304517, Control_c, 0, 64, 75
1, 304517, Control_c, 0, 67, 120
1, 304546, Control_c, 0, 64, 75
1, 304560, Note_off_c, 0, 57, 62
1, 304561, Control_c, 0, 67, 121
1, 304563, Note_off_c, 0, 74, 63
1, 304572, Note_on_c, 0, 69, 80
1, 304628, Note_off_c, 0, 69, 58
1, 304650, Note_on_c, 0, 65, 77
1, 304650, Control_c, 0, 64, 75
1, 304665, Control_c, 0, 64, 74
1, 304680, Control_c, 0, 64, 74
1, 304686, Note_off_c, 0, 65, 63
1, 304695, Control_c, 0, 64, 72
1, 304710, Control_c, 0, 64, 71
1, 304710, Control_c, 0, 67, 120
1, 304724, Control_c, 0, 64, 68
1, 304724, Control_c, 0, 67, 120
1, 304739, Control_c, 0, 64, 64
1, 304739, Control_c, 0, 67, 119
1, 304754, Control_c, 0, 64, 51
1, 304755, Note_on_c, 0, 64, 82
1, 304759, Note_on_c, 0, 57, 65
1, 304761, Note_off_c, 0, 62, 59
1, 304769, Control_c, 0, 64, 0
1, 304769, Control_c, 0, 67, 119
1, 304784, Control_c, 0, 67, 118
1, 304798, Control_c, 0, 67, 118
1, 304813, Control_c, 0, 67, 117
1, 304828, Control_c, 0, 67, 117
1, 304835, Note_on_c, 0, 69, 68
1, 304843, Control_c, 0, 67, 116
1, 304874, Control_c, 0, 67, 116
1, 304898, Note_off_c, 0, 69, 64
1, 304903, Control_c, 0, 67, 115
1, 304925, Note_on_c, 0, 67, 71
1, 304999, Control_c, 0, 67, 115
1, 305022, Note_on_c, 0, 69, 74
1, 305027, Note_off_c, 0, 67, 59
1, 305044, Control_c, 0, 67, 114
1, 305088, Control_c, 0, 67, 113
1, 305101, Note_off_c, 0, 69, 59
1, 305116, Note_on_c, 0, 79, 73
1, 305118, Note_on_c, 0, 61, 76
1, 305118, Control_c, 0, 67, 113
1, 305133, Control_c, 0, 67, 112
1, 305144, Note_off_c, 0, 64, 62
1, 305148, Control_c, 0, 67, 111
1, 305162, Control_c, 0, 64, 23
1, 305162, Control_c, 0, 67, 110
1, 305172, Note_off_c, 0, 57, 62
1, 305177, Control_c, 0, 64, 63
1, 305177, Control_c, 0, 67, 109
1, 305190, Note_on_c, 0, 76, 72
1, 305190, Note_off_c, 0, 79, 60
1, 305192, Control_c, 0, 64, 68
1, 305192, Control_c, 0, 67, 107
1, 305207, Control_c, 0, 64, 70
1, 305207, Control_c, 0, 67, 105
1, 305222, Control_c, 0, 64, 70
1, 305222, Control_c, 0, 67, 104
1, 305266, Control_c, 0, 64, 71
1, 305270, Note_on_c, 0, 69, 76
1, 305270, Note_off_c, 0, 76, 64
1, 305295, Control_c, 0, 67, 103
1, 305321, Note_off_c, 0, 69, 60
1, 305340, Control_c, 0, 67, 103
1, 305343, Note_on_c, 0, 67, 82
1, 305384, Note_off_c, 0, 67, 61
1, 305392, Note_off_c, 0, 61, 63
1, 305399, Control_c, 0, 64, 70
1, 305414, Control_c, 0, 64, 66
1, 305414, Control_c, 0, 67, 102
1, 305424, Note_on_c, 0, 62, 92
1, 305428, Control_c, 0, 64, 46
1, 305431, Note_on_c, 0, 50, 80
1, 305443, Control_c, 0, 64, 0
1, 305443, Control_c, 0, 67, 102
1, 305473, Control_c, 0, 67, 101
1, 305488, Control_c, 0, 67, 100
1, 305500, Note_on_c, 0, 69, 85
1, 305503, Control_c, 0, 67, 99
1, 305518, Control_c, 0, 67, 97
1, 305533, Control_c, 0, 67, 94
1, 305547, Control_c, 0, 67, 89
1, 305562, Control_c, 0, 67, 81
1, 305577, Control_c, 0, 64, 54
1, 305577, Control_c, 0, 67, 70
1, 305580, Note_on_c, 0, 65, 88
1, 305589, Note_off_c, 0, 69, 63
1, 305592, Control_c, 0, 64, 67
1, 305592, Control_c, 0, 67, 52
1, 305607, Control_c, 0, 64, 73
1, 305607, Control_c, 0, 67, 33
1, 305621, Control_c, 0, 64, 77
1, 305621, Control_c, 0, 67, 14
1, 305634, Note_off_c, 0, 65, 65
1, 305636, Control_c, 0, 64, 81
1, 305636, Control_c, 0, 67, 0
1, 305652, Control_c, 0, 64, 85
1, 305655, Note_on_c, 0, 77, 89
1, 305667, Control_c, 0, 64, 90
1, 305682, Control_c, 0, 64, 95
1, 305690, Note_off_c, 0, 62, 60
1, 305696, Control_c, 0, 64, 101
1, 305711, Control_c, 0, 64, 107
1, 305733, Control_c, 0, 64, 113
1, 305739, Note_on_c, 0, 74, 84
1, 305748, Control_c, 0, 64, 121
1, 305763, Control_c, 0, 64, 127
1, 305765, Note_off_c, 0, 77, 62
1, 305768, Note_off_c, 0, 50, 57
1, 305813, Note_on_c, 0, 70, 91
1, 305834, Note_off_c, 0, 74, 66
1, 305885, Note_off_c, 0, 70, 68
1, 305899, Note_on_c, 0, 69, 77
1, 305905, Note_on_c, 0, 71, 73
1, 305958, Note_off_c, 0, 71, 51
1, 305961, Note_on_c, 0, 67, 92
1, 305994, Note_off_c, 0, 69, 53
1, 306001, Note_off_c, 0, 67, 66
1, 306074, Control_c, 0, 64, 117
1, 306087, Note_on_c, 0, 65, 103
1, 306089, Control_c, 0, 64, 98
1, 306090, Note_on_c, 0, 53, 96
1, 306095, Note_on_c, 0, 41, 84
1, 306103, Control_c, 0, 64, 81
1, 306118, Control_c, 0, 64, 64
1, 306133, Control_c, 0, 64, 0
1, 306190, Note_on_c, 0, 66, 80
1, 306268, Note_off_c, 0, 66, 66
1, 306270, Note_on_c, 0, 67, 80
1, 306344, Note_off_c, 0, 67, 63
1, 306346, Note_on_c, 0, 69, 78
1, 306424, Note_on_c, 0, 70, 85
1, 306429, Note_off_c, 0, 69, 66
1, 306429, Control_c, 0, 64, 63
1, 306445, Control_c, 0, 64, 72
1, 306460, Control_c, 0, 64, 79
1, 306468, Note_off_c, 0, 65, 60
1, 306482, Control_c, 0, 64, 82
1, 306496, Control_c, 0, 64, 83
1, 306502, Note_off_c, 0, 70, 66
1, 306520, Note_on_c, 0, 74, 80
1, 306591, Note_off_c, 0, 53, 60
1, 306594, Note_on_c, 0, 72, 82
1, 306595, Note_off_c, 0, 41, 59
1, 306623, Note_off_c, 0, 74, 63
1, 306660, Control_c, 0, 64, 80
1, 306674, Control_c, 0, 64, 73
1, 306681, Note_on_c, 0, 70, 83
1, 306689, Control_c, 0, 64, 55
1, 306696, Note_off_c, 0, 72, 57
1, 306704, Control_c, 0, 64, 0
1, 306751, Note_off_c, 0, 70, 62
1, 306753, Note_on_c, 0, 64, 95
1, 306756, Note_on_c, 0, 52, 90
1, 306767, Note_on_c, 0, 41, 74
1, 306837, Control_c, 0, 64, 51
1, 306840, Note_on_c, 0, 70, 83
1, 306851, Control_c, 0, 64, 66
1, 306866, Control_c, 0, 64, 71
1, 306881, Control_c, 0, 64, 75
1, 306896, Control_c, 0, 64, 80
1, 306911, Control_c, 0, 64, 83
1, 306916, Note_on_c, 0, 67, 84
1, 306921, Note_off_c, 0, 70, 61
1, 306925, Control_c, 0, 64, 86
1, 306940, Control_c, 0, 64, 89
1, 306955, Control_c, 0, 64, 93
1, 306970, Control_c, 0, 64, 94
1, 306977, Note_off_c, 0, 64, 59
1, 306985, Control_c, 0, 64, 96
1, 306992, Note_off_c, 0, 41, 63
1, 307001, Note_off_c, 0, 67, 53
1, 307011, Note_on_c, 0, 76, 63
1, 307015, Note_on_c, 0, 75, 68
1, 307035, Note_off_c, 0, 52, 62
1, 307044, Note_off_c, 0, 75, 62
1, 307045, Note_off_c, 0, 76, 64
1, 307059, Control_c, 0, 64, 95
1, 307074, Control_c, 0, 64, 91
1, 307089, Control_c, 0, 64, 82
1, 307094, Note_on_c, 0, 63, 95
1, 307104, Control_c, 0, 64, 67
1, 307108, Note_on_c, 0, 51, 86
1, 307113, Note_on_c, 0, 41, 76
1, 307118, Control_c, 0, 64, 0
1, 307178, Control_c, 0, 64, 21
1, 307189, Note_on_c, 0, 69, 77
1, 307192, Control_c, 0, 64, 63
1, 307207, Control_c, 0, 64, 70
1, 307229, Control_c, 0, 64, 76
1, 307246, Control_c, 0, 64, 83
1, 307261, Control_c, 0, 64, 86
1, 307275, Control_c, 0, 64, 88
1, 307277, Note_on_c, 0, 65, 78
1, 307286, Note_off_c, 0, 69, 63
1, 307290, Control_c, 0, 64, 89
1, 307305, Control_c, 0, 64, 89
1, 307316, Note_off_c, 0, 41, 59
1, 307317, Note_off_c, 0, 63, 47
1, 307320, Control_c, 0, 64, 90
1, 307335, Control_c, 0, 64, 90
1, 307349, Control_c, 0, 64, 91
1, 307362, Note_on_c, 0, 75, 77
1, 307370, Note_off_c, 0, 65, 64
1, 307414, Note_off_c, 0, 75, 70
1, 307423, Control_c, 0, 64, 88
1, 307438, Note_off_c, 0, 51, 44
1, 307438, Control_c, 0, 64, 80
1, 307453, Control_c, 0, 64, 66
1, 307455, Note_on_c, 0, 62, 95
1, 307464, Note_on_c, 0, 50, 85
1, 307468, Control_c, 0, 64, 0
1, 307476, Note_on_c, 0, 41, 71
1, 307527, Control_c, 0, 64, 65
1, 307538, Note_on_c, 0, 69, 81
1, 307542, Control_c, 0, 64, 71
1, 307557, Control_c, 0, 64, 76
1, 307572, Control_c, 0, 64, 79
1, 307587, Control_c, 0, 64, 81
1, 307602, Control_c, 0, 64, 82
1, 307602, Control_c, 0, 67, 9
1, 307616, Control_c, 0, 64, 84
1, 307616, Control_c, 0, 67, 17
1, 307621, Note_on_c, 0, 65, 82
1, 307631, Control_c, 0, 64, 86
1, 307631, Control_c, 0, 67, 26
1, 307634, Note_off_c, 0, 69, 63
1, 307646, Control_c, 0, 64, 87
1, 307646, Control_c, 0, 67, 34
1, 307658, Note_off_c, 0, 41, 59
1, 307661, Control_c, 0, 64, 88
1, 307661, Control_c, 0, 67, 40
1, 307662, Note_off_c, 0, 62, 57
1, 307675, Control_c, 0, 67, 45
1, 307690, Control_c, 0, 67, 49
1, 307705, Control_c, 0, 67, 50
1, 307707, Note_off_c, 0, 50, 60
1, 307709, Note_off_c, 0, 65, 62
1, 307711, Note_on_c, 0, 74, 69
1, 307720, Control_c, 0, 64, 87
1, 307720, Control_c, 0, 67, 50
1, 307735, Control_c, 0, 64, 82
1, 307735, Control_c, 0, 67, 52
1, 307749, Control_c, 0, 64, 72
1, 307749, Control_c, 0, 67, 56
1, 307763, Note_off_c, 0, 74, 61
1, 307764, Control_c, 0, 64, 47
1, 307764, Control_c, 0, 67, 62
1, 307779, Control_c, 0, 64, 0
1, 307779, Control_c, 0, 67, 68
1, 307780, Note_on_c, 0, 48, 85
1, 307783, Note_on_c, 0, 60, 96
1, 307789, Note_on_c, 0, 41, 68
1, 307794, Control_c, 0, 67, 69
1, 307809, Control_c, 0, 67, 72
1, 307823, Control_c, 0, 64, 62
1, 307823, Control_c, 0, 67, 73
1, 307838, Control_c, 0, 64, 70
1, 307838, Control_c, 0, 67, 75
1, 307853, Control_c, 0, 64, 76
1, 307853, Control_c, 0, 67, 76
1, 307864, Note_off_c, 0, 41, 63
1, 307866, Note_on_c, 0, 69, 83
1, 307867, Control_c, 0, 64, 80
1, 307867, Control_c, 0, 67, 78
1, 307882, Control_c, 0, 64, 82
1, 307882, Control_c, 0, 67, 80
1, 307897, Control_c, 0, 64, 83
1, 307897, Control_c, 0, 67, 81
1, 307901, Note_off_c, 0, 60, 58
1, 307912, Control_c, 0, 64, 84
1, 307927, Control_c, 0, 64, 86
1, 307941, Control_c, 0, 64, 88
1, 307952, Note_on_c, 0, 65, 87
1, 307956, Control_c, 0, 64, 89
1, 307957, Note_off_c, 0, 69, 65
1, 307979, Control_c, 0, 64, 91
1, 307979, Control_c, 0, 67, 81
1, 307993, Control_c, 0, 64, 93
1, 307993, Control_c, 0, 67, 82
1, 308007, Control_c, 0, 64, 94
1, 308014, Note_off_c, 0, 65, 54
1, 308022, Control_c, 0, 64, 95
1, 308034, Note_on_c, 0, 72, 82
1, 308068, Control_c, 0, 67, 82
1, 308081, Note_off_c, 0, 48, 62
1, 308083, Control_c, 0, 67, 83
1, 308097, Control_c, 0, 64, 91
1, 308097, Control_c, 0, 67, 83
1, 308112, Control_c, 0, 64, 81
1, 308112, Control_c, 0, 67, 84
1, 308117, Note_on_c, 0, 49, 92
1, 308118, Note_on_c, 0, 61, 93
1, 308124, Note_on_c, 0, 42, 78
1, 308127, Control_c, 0, 64, 65
1, 308132, Note_off_c, 0, 72, 53
1, 308142, Control_c, 0, 64, 0
1, 308176, Note_on_c, 0, 60, 15
1, 308186, Control_c, 0, 67, 82
1, 308201, Control_c, 0, 64, 21
1, 308201, Control_c, 0, 67, 82
1, 308207, Note_on_c, 0, 69, 76
1, 308216, Control_c, 0, 64, 59
1, 308216, Control_c, 0, 67, 81
1, 308218, Note_off_c, 0, 60, 30
1, 308228, Note_off_c, 0, 61, 59
1, 308231, Control_c, 0, 64, 65
1, 308231, Control_c, 0, 67, 81
1, 308245, Control_c, 0, 64, 68
1, 308245, Control_c, 0, 67, 80
1, 308260, Control_c, 0, 64, 71
1, 308275, Control_c, 0, 64, 74
1, 308286, Note_on_c, 0, 66, 83
1, 308286, Note_off_c, 0, 69, 65
1, 308290, Control_c, 0, 64, 76
1, 308305, Control_c, 0, 64, 77
1, 308320, Control_c, 0, 64, 78
1, 308320, Control_c, 0, 67, 81
1, 308335, Control_c, 0, 64, 79
1, 308335, Control_c, 0, 67, 82
1, 308344, Note_on_c, 0, 70, 80
1, 308350, Control_c, 0, 64, 81
1, 308350, Control_c, 0, 67, 83
1, 308365, Control_c, 0, 64, 82
1, 308365, Control_c, 0, 67, 84
1, 308374, Note_off_c, 0, 66, 59
1, 308379, Control_c, 0, 64, 84
1, 308379, Control_c, 0, 67, 84
1, 308396, Note_off_c, 0, 70, 64
1, 308405, Note_on_c, 0, 69, 56
1, 308424, Control_c, 0, 67, 84
1, 308428, Note_off_c, 0, 69, 56
1, 308439, Control_c, 0, 64, 82
1, 308439, Control_c, 0, 67, 83
1, 308453, Note_on_c, 0, 62, 93
1, 308453, Note_on_c, 0, 72, 87
1, 308453, Control_c, 0, 64, 73
1, 308453, Control_c, 0, 67, 83
1, 308459, Note_on_c, 0, 50, 91
1, 308468, Control_c, 0, 64, 53
1, 308468, Control_c, 0, 67, 82
1, 308481, Note_off_c, 0, 42, 62
1, 308483, Control_c, 0, 64, 0
1, 308485, Note_off_c, 0, 49, 49
1, 308492, Note_off_c, 0, 62, 63
1, 308512, Control_c, 0, 67, 80
1, 308517, Note_off_c, 0, 72, 56
1, 308527, Control_c, 0, 67, 80
1, 308542, Note_on_c, 0, 75, 81
1, 308579, Note_off_c, 0, 75, 64
1, 308612, Note_on_c, 0, 74, 85
1, 308616, Control_c, 0, 67, 80
1, 308694, Note_on_c, 0, 72, 85
1, 308698, Note_off_c, 0, 74, 62
1, 308705, Control_c, 0, 67, 80
1, 308728, Control_c, 0, 67, 79
1, 308742, Control_c, 0, 67, 78
1, 308758, Note_off_c, 0, 50, 55
1, 308776, Note_off_c, 0, 72, 64
1, 308780, Note_on_c, 0, 70, 87
1, 308785, Note_on_c, 0, 43, 82
1, 308786, Control_c, 0, 67, 79
1, 308801, Control_c, 0, 64, 16
1, 308801, Control_c, 0, 67, 79
1, 308814, Note_on_c, 0, 45, 42
1, 308816, Control_c, 0, 64, 73
1, 308816, Control_c, 0, 67, 80
1, 308830, Control_c, 0, 64, 86
1, 308830, Control_c, 0, 67, 81
1, 308831, Note_off_c, 0, 70, 67
1, 308835, Note_off_c, 0, 43, 61
1, 308847, Control_c, 0, 64, 99
1, 308848, Note_off_c, 0, 45, 59
1, 308862, Control_c, 0, 64, 111
1, 308862, Control_c, 0, 67, 82
1, 308868, Note_on_c, 0, 74, 87
1, 308876, Control_c, 0, 64, 120
1, 308891, Control_c, 0, 64, 127
1, 308891, Control_c, 0, 67, 83
1, 308919, Note_off_c, 0, 74, 63
1, 308920, Control_c, 0, 67, 84
1, 308935, Control_c, 0, 67, 86
1, 308943, Note_on_c, 0, 86, 88
1, 308950, Control_c, 0, 67, 88
1, 308965, Control_c, 0, 67, 93
1, 308980, Control_c, 0, 67, 98
1, 308994, Control_c, 0, 67, 100
1, 309009, Control_c, 0, 67, 101
1, 309020, Note_on_c, 0, 82, 88
1, 309029, Note_off_c, 0, 86, 62
1, 309039, Control_c, 0, 67, 100
1, 309054, Control_c, 0, 67, 99
1, 309068, Control_c, 0, 67, 98
1, 309081, Note_off_c, 0, 82, 66
1, 309083, Control_c, 0, 67, 97
1, 309096, Note_on_c, 0, 79, 89
1, 309101, Note_on_c, 0, 62, 92
1, 309111, Note_on_c, 0, 50, 76
1, 309113, Control_c, 0, 67, 96
1, 309128, Control_c, 0, 67, 94
1, 309141, Note_off_c, 0, 62, 63
1, 309143, Note_off_c, 0, 79, 66
1, 309160, Note_off_c, 0, 50, 63
1, 309178, Note_on_c, 0, 74, 85
1, 309217, Control_c, 0, 67, 95
1, 309220, Note_off_c, 0, 74, 67
1, 309232, Control_c, 0, 67, 95
1, 309266, Note_on_c, 0, 70, 86
1, 309307, Note_on_c, 0, 69, 59
1, 309320, Control_c, 0, 67, 95
1, 309330, Note_off_c, 0, 70, 43
1, 309335, Control_c, 0, 67, 94
1, 309342, Note_on_c, 0, 66, 89
1, 309346, Note_off_c, 0, 69, 63
1, 309350, Control_c, 0, 67, 93
1, 309365, Control_c, 0, 64, 124
1, 309365, Control_c, 0, 67, 92
1, 309380, Control_c, 0, 64, 118
1, 309380, Control_c, 0, 67, 91
1, 309394, Control_c, 0, 64, 109
1, 309394, Control_c, 0, 67, 90
1, 309409, Control_c, 0, 64, 96
1, 309409, Control_c, 0, 67, 88
1, 309421, Note_off_c, 0, 66, 63
1, 309424, Control_c, 0, 64, 79
1, 309424, Control_c, 0, 67, 87
1, 309438, Control_c, 0, 64, 52
1, 309438, Control_c, 0, 67, 86
1, 309439, Note_on_c, 0, 49, 93
1, 309442, Note_on_c, 0, 61, 96
1, 309451, Note_on_c, 0, 45, 73
1, 309453, Control_c, 0, 64, 0
1, 309453, Control_c, 0, 67, 86
1, 309476, Control_c, 0, 67, 85
1, 309506, Control_c, 0, 67, 84
1, 309520, Control_c, 0, 67, 84
1, 309535, Control_c, 0, 64, 53
1, 309535, Control_c, 0, 67, 84
1, 309542, Note_on_c, 0, 69, 75
1, 309550, Control_c, 0, 64, 65
1, 309565, Control_c, 0, 64, 71
1, 309565, Control_c, 0, 67, 84
1, 309580, Control_c, 0, 64, 76
1, 309580, Control_c, 0, 67, 83
1, 309590, Note_off_c, 0, 45, 59
1, 309594, Control_c, 0, 64, 81
1, 309594, Control_c, 0, 67, 81
1, 309609, Control_c, 0, 64, 83
1, 309609, Control_c, 0, 67, 79
1, 309624, Control_c, 0, 64, 84
1, 309624, Control_c, 0, 67, 77
1, 309639, Control_c, 0, 64, 85
1, 309639, Control_c, 0, 67, 74
1, 309647, Note_on_c, 0, 65, 69
1, 309654, Note_on_c, 0, 73, 75
1, 309655, Control_c, 0, 64, 86
1, 309655, Control_c, 0, 67, 73
1, 309662, Note_off_c, 0, 61, 60
1, 309667, Note_off_c, 0, 69, 53
1, 309669, Control_c, 0, 64, 87
1, 309669, Control_c, 0, 67, 71
1, 309684, Control_c, 0, 64, 88
1, 309699, Control_c, 0, 64, 89
1, 309714, Control_c, 0, 64, 90
1, 309727, Note_off_c, 0, 65, 57
1, 309729, Control_c, 0, 64, 90
1, 309729, Control_c, 0, 67, 72
1, 309773, Control_c, 0, 64, 89
1, 309788, Control_c, 0, 64, 84
1, 309788, Control_c, 0, 67, 71
1, 309791, Note_off_c, 0, 73, 63
1, 309803, Note_on_c, 0, 50, 89
1, 309803, Control_c, 0, 64, 70
1, 309803, Control_c, 0, 67, 70
1, 309805, Note_on_c, 0, 45, 89
1, 309807, Note_on_c, 0, 62, 99
1, 309817, Control_c, 0, 64, 0
1, 309817, Control_c, 0, 67, 68
1, 309832, Control_c, 0, 67, 65
1, 309836, Note_off_c, 0, 49, 59
1, 309847, Control_c, 0, 67, 62
1, 309862, Control_c, 0, 67, 59
1, 309876, Control_c, 0, 64, 46
1, 309876, Control_c, 0, 67, 57
1, 309891, Control_c, 0, 64, 65
1, 309898, Note_on_c, 0, 69, 80
1, 309906, Control_c, 0, 64, 69
1, 309921, Control_c, 0, 64, 72
1, 309936, Control_c, 0, 64, 74
1, 309942, Note_off_c, 0, 62, 48
1, 309950, Control_c, 0, 64, 75
1, 309965, Control_c, 0, 64, 76
1, 309980, Note_on_c, 0, 65, 85
1, 309980, Control_c, 0, 64, 77
1, 309995, Control_c, 0, 64, 78
1, 309998, Note_off_c, 0, 69, 60
1, 310010, Control_c, 0, 64, 79
1, 310025, Control_c, 0, 64, 81
1, 310040, Control_c, 0, 64, 82
1, 310043, Note_off_c, 0, 45, 48
1, 310055, Control_c, 0, 64, 83
1, 310069, Control_c, 0, 64, 83
1, 310071, Note_on_c, 0, 74, 78
1, 310085, Note_off_c, 0, 65, 62
1, 310129, Control_c, 0, 64, 82
1, 310143, Control_c, 0, 64, 75
1, 310157, Note_off_c, 0, 74, 62
1, 310158, Control_c, 0, 64, 52
1, 310173, Note_on_c, 0, 64, 100
1, 310173, Control_c, 0, 64, 0
1, 310173, Control_c, 0, 67, 57
1, 310183, Note_on_c, 0, 52, 87
1, 310184, Note_on_c, 0, 45, 72
1, 310187, Control_c, 0, 67, 54
1, 310188, Note_off_c, 0, 50, 45
1, 310202, Control_c, 0, 67, 50
1, 310225, Control_c, 0, 67, 42
1, 310240, Control_c, 0, 67, 29
1, 310255, Control_c, 0, 67, 0
1, 310272, Note_on_c, 0, 69, 81
1, 310284, Control_c, 0, 64, 42
1, 310299, Control_c, 0, 64, 66
1, 310314, Control_c, 0, 64, 72
1, 310329, Control_c, 0, 64, 79
1, 310343, Control_c, 0, 64, 84
1, 310358, Control_c, 0, 64, 87
1, 310371, Note_off_c, 0, 64, 0
1, 310373, Control_c, 0, 64, 89
1, 310376, Note_on_c, 0, 67, 87
1, 310388, Control_c, 0, 64, 91
1, 310390, Note_off_c, 0, 69, 61
1, 310402, Control_c, 0, 64, 92
1, 310407, Poly_aftertouch_c, 0, 64, 127
1, 310417, Control_c, 0, 64, 93
1, 310463, Control_c, 0, 64, 94
1, 310463, Poly_aftertouch_c, 0, 64, 0
1, 310476, Note_on_c, 0, 76, 83
1, 310489, Note_off_c, 0, 67, 61
1, 310514, Note_off_c, 0, 76, 66
1, 310566, Control_c, 0, 64, 91
1, 310581, Control_c, 0, 64, 82
1, 310596, Control_c, 0, 64, 69
1, 310597, Note_on_c, 0, 61, 95
1, 310603, Note_on_c, 0, 49, 88
1, 310611, Control_c, 0, 64, 0
1, 310626, Note_off_c, 0, 52, 63
1, 310699, Control_c, 0, 64, 26
1, 310714, Note_on_c, 0, 69, 86
1, 310714, Control_c, 0, 64, 58
1, 310729, Control_c, 0, 64, 65
1, 310744, Control_c, 0, 64, 69
1, 310759, Control_c, 0, 64, 72
1, 310773, Control_c, 0, 64, 76
1, 310788, Control_c, 0, 64, 79
1, 310788, Control_c, 0, 67, 9
1, 310803, Control_c, 0, 64, 83
1, 310803, Control_c, 0, 67, 14
1, 310818, Note_off_c, 0, 61, 0
1, 310818, Control_c, 0, 64, 85
1, 310818, Control_c, 0, 67, 18
1, 310832, Note_on_c, 0, 67, 87
1, 310833, Control_c, 0, 64, 87
1, 310833, Control_c, 0, 67, 23
1, 310845, Note_off_c, 0, 69, 63
1, 310848, Control_c, 0, 64, 89
1, 310848, Control_c, 0, 67, 27
1, 310854, Poly_aftertouch_c, 0, 61, 127
1, 310863, Control_c, 0, 64, 89
1, 310863, Control_c, 0, 67, 29
1, 310878, Control_c, 0, 67, 32
1, 310892, Control_c, 0, 67, 36
1, 310899, Note_off_c, 0, 45, 59
1, 310907, Control_c, 0, 67, 42
1, 310910, Poly_aftertouch_c, 0, 61, 0
1, 310922, Control_c, 0, 67, 48
1, 310937, Control_c, 0, 67, 52
1, 310947, Note_off_c, 0, 49, 52
1, 310951, Note_on_c, 0, 73, 91
1, 310952, Control_c, 0, 67, 56
1, 310971, Note_off_c, 0, 67, 58
1, 310973, Control_c, 0, 67, 58
1, 310989, Control_c, 0, 67, 58
1, 311068, Note_off_c, 0, 73, 62
1, 311107, Control_c, 0, 67, 58
1, 311137, Control_c, 0, 67, 57
1, 311152, Control_c, 0, 64, 88
1, 311152, Control_c, 0, 67, 57
1, 311167, Control_c, 0, 64, 87
1, 311182, Control_c, 0, 64, 84
1, 311197, Control_c, 0, 64, 81
1, 311211, Control_c, 0, 64, 76
1, 311211, Control_c, 0, 67, 56
1, 311214, Note_on_c, 0, 74, 88
1, 311220, Note_on_c, 0, 62, 86
1, 311222, Note_on_c, 0, 50, 77
1, 311225, Note_on_c, 0, 65, 75
1, 311226, Note_on_c, 0, 69, 75
1, 311226, Control_c, 0, 64, 69
1, 311227, Note_on_c, 0, 38, 73
1, 311242, Control_c, 0, 64, 51
1, 311242, Control_c, 0, 67, 56
1, 311257, Control_c, 0, 64, 0
1, 311301, Control_c, 0, 67, 55
1, 311360, Control_c, 0, 67, 55
1, 311479, Control_c, 0, 67, 55
1, 311494, Control_c, 0, 67, 56
1, 311509, Control_c, 0, 67, 56
1, 311523, Control_c, 0, 67, 57
1, 311538, Control_c, 0, 67, 57
1, 311553, Control_c, 0, 67, 58
1, 311568, Control_c, 0, 67, 58
1, 311583, Control_c, 0, 67, 59
1, 311597, Control_c, 0, 67, 60
1, 311612, Control_c, 0, 64, 52
1, 311612, Control_c, 0, 67, 60
1, 311627, Control_c, 0, 64, 63
1, 311627, Control_c, 0, 67, 62
1, 311641, Control_c, 0, 64, 67
1, 311641, Control_c, 0, 67, 65
1, 311656, Control_c, 0, 64, 69
1, 311656, Control_c, 0, 67, 67
1, 311671, Control_c, 0, 64, 71
1, 311671, Control_c, 0, 67, 68
1, 311686, Control_c, 0, 64, 73
1, 311701, Control_c, 0, 64, 76
1, 311701, Control_c, 0, 67, 68
1, 311723, Control_c, 0, 64, 78
1, 311723, Control_c, 0, 67, 69
1, 311738, Control_c, 0, 64, 80
1, 311738, Control_c, 0, 67, 71
1, 311753, Control_c, 0, 64, 81
1, 311753, Control_c, 0, 67, 73
1, 311768, Control_c, 0, 64, 82
1, 311768, Control_c, 0, 67, 74
1, 311783, Control_c, 0, 64, 83
1, 311783, Control_c, 0, 67, 75
1, 311797, Control_c, 0, 64, 84
1, 311797, Control_c, 0, 67, 76
1, 311809, Note_off_c, 0, 62, 51
1, 311812, Control_c, 0, 64, 84
1, 311827, Control_c, 0, 64, 85
1, 311827, Control_c, 0, 67, 76
1, 311841, Control_c, 0, 67, 77
1, 311856, Control_c, 0, 67, 79
1, 311862, Note_off_c, 0, 74, 58
1, 311866, Note_off_c, 0, 38, 58
1, 311871, Control_c, 0, 67, 82
1, 311879, Note_off_c, 0, 50, 55
1, 311886, Control_c, 0, 67, 85
1, 311890, Note_off_c, 0, 65, 38
1, 311901, Control_c, 0, 67, 88
1, 311915, Control_c, 0, 67, 90
1, 311922, Note_off_c, 0, 69, 56
1, 311930, Control_c, 0, 67, 91
1, 311945, Control_c, 0, 67, 92
1, 311975, Control_c, 0, 67, 93
1, 311989, Control_c, 0, 67, 93
1, 312019, Control_c, 0, 67, 94
1, 312034, Control_c, 0, 67, 95
1, 312050, Control_c, 0, 67, 96
1, 312094, Control_c, 0, 67, 96
1, 312109, Control_c, 0, 64, 84
1, 312109, Control_c, 0, 67, 97
1, 312124, Control_c, 0, 64, 84
1, 312153, Control_c, 0, 64, 83
1, 312168, Control_c, 0, 64, 83
1, 312183, Control_c, 0, 64, 82
1, 312198, Control_c, 0, 64, 81
1, 312198, Control_c, 0, 67, 97
1, 312213, Control_c, 0, 64, 78
1, 312228, Control_c, 0, 64, 74
1, 312243, Control_c, 0, 64, 69
1, 312258, Control_c, 0, 64, 64
1, 312272, Control_c, 0, 64, 54
1, 312287, Control_c, 0, 64, 0
1, 312472, Control_c, 0, 67, 97
1, 312501, Control_c, 0, 67, 96
1, 312516, Control_c, 0, 67, 96
1, 312545, Control_c, 0, 67, 95
1, 312575, Control_c, 0, 67, 95
1, 312634, Control_c, 0, 67, 94
1, 312678, Control_c, 0, 67, 94
1, 312693, Control_c, 0, 67, 93
1, 312797, Control_c, 0, 67, 93
1, 313006, Control_c, 0, 67, 93
1, 313109, Control_c, 0, 67, 93
1, 313139, Control_c, 0, 67, 92
1, 313168, Control_c, 0, 67, 91
1, 313183, Control_c, 0, 67, 91
1, 313198, Control_c, 0, 67, 90
1, 313235, Control_c, 0, 67, 90
1, 313250, Control_c, 0, 67, 89
1, 313265, Control_c, 0, 67, 89
1, 313280, Control_c, 0, 67, 88
1, 313309, Control_c, 0, 67, 88
1, 313324, Control_c, 0, 67, 87
1, 313339, Control_c, 0, 67, 87
1, 313368, Control_c, 0, 67, 86
1, 313383, Control_c, 0, 67, 86
1, 313412, Control_c, 0, 67, 85
1, 313427, Control_c, 0, 67, 83
1, 313442, Control_c, 0, 67, 81
1, 313457, Control_c, 0, 67, 81
1, 313472, Control_c, 0, 67, 80
1, 313516, Control_c, 0, 67, 80
1, 313696, Note_on_c, 0, 66, 69
1, 313704, Note_on_c, 0, 57, 56
1, 313713, Note_on_c, 0, 62, 55
1, 313726, Note_on_c, 0, 50, 36
1, 313739, Control_c, 0, 67, 79
1, 313741, Note_on_c, 0, 38, 26
1, 314251, Control_c, 0, 64, 55
1, 314266, Control_c, 0, 64, 61
1, 314281, Control_c, 0, 64, 63
1, 314296, Control_c, 0, 64, 65
1, 314310, Control_c, 0, 64, 67
1, 314325, Control_c, 0, 64, 71
1, 314340, Control_c, 0, 64, 73
1, 314355, Control_c, 0, 64, 76
1, 314370, Control_c, 0, 64, 78
1, 314384, Control_c, 0, 64, 80
1, 314399, Control_c, 0, 64, 83
1, 314414, Control_c, 0, 64, 85
1, 314429, Control_c, 0, 64, 87
1, 314445, Control_c, 0, 64, 88
1, 314459, Control_c, 0, 64, 89
1, 314474, Control_c, 0, 64, 90
1, 314489, Control_c, 0, 64, 91
1, 314548, Control_c, 0, 67, 80
1, 314619, Note_off_c, 0, 50, 37
1, 314622, Control_c, 0, 67, 80
1, 314647, Note_off_c, 0, 38, 37
1, 314748, Control_c, 0, 67, 81
1, 314793, Control_c, 0, 67, 81
1, 314881, Control_c, 0, 64, 90
1, 314911, Control_c, 0, 64, 90
1, 314934, Note_off_c, 0, 57, 32
1, 314941, Control_c, 0, 64, 89
1, 314955, Control_c, 0, 64, 89
1, 314970, Control_c, 0, 64, 88
1, 314970, Control_c, 0, 67, 82
1, 314976, Note_on_c, 0, 52, 44
1, 314985, Control_c, 0, 64, 87
1, 314994, Note_on_c, 0, 40, 37
1, 315000, Control_c, 0, 64, 86
1, 315015, Control_c, 0, 64, 85
1, 315030, Control_c, 0, 64, 84
1, 315045, Control_c, 0, 64, 83
1, 315059, Control_c, 0, 64, 81
1, 315074, Control_c, 0, 64, 79
1, 315089, Control_c, 0, 64, 76
1, 315104, Control_c, 0, 64, 72
1, 315104, Control_c, 0, 67, 82
1, 315119, Control_c, 0, 64, 69
1, 315133, Control_c, 0, 64, 66
1, 315148, Control_c, 0, 64, 64
1, 315163, Control_c, 0, 64, 62
1, 315178, Control_c, 0, 64, 58
1, 315178, Control_c, 0, 67, 83
1, 315192, Control_c, 0, 64, 49
1, 315207, Control_c, 0, 64, 33
1, 315207, Control_c, 0, 67, 83
1, 315222, Control_c, 0, 64, 0
1, 315268, Control_c, 0, 67, 84
1, 315297, Control_c, 0, 67, 84
1, 315327, Control_c, 0, 67, 85
1, 315342, Control_c, 0, 67, 85
1, 315356, Control_c, 0, 67, 86
1, 315371, Control_c, 0, 67, 86
1, 315401, Control_c, 0, 67, 87
1, 315430, Control_c, 0, 67, 87
1, 315445, Control_c, 0, 67, 88
1, 315482, Control_c, 0, 67, 88
1, 315497, Control_c, 0, 67, 89
1, 315512, Control_c, 0, 67, 89
1, 315527, Control_c, 0, 67, 90
1, 315531, Note_on_c, 0, 64, 53
1, 315542, Control_c, 0, 67, 90
1, 315551, Note_on_c, 0, 56, 43
1, 315556, Control_c, 0, 67, 91
1, 315571, Control_c, 0, 67, 93
1, 315586, Control_c, 0, 67, 96
1, 315601, Control_c, 0, 67, 98
1, 315615, Control_c, 0, 64, 23
1, 315615, Control_c, 0, 67, 101
1, 315617, Note_off_c, 0, 66, 61
1, 315630, Control_c, 0, 64, 59
1, 315630, Control_c, 0, 67, 103
1, 315641, Note_off_c, 0, 52, 56
1, 315645, Control_c, 0, 64, 66
1, 315645, Control_c, 0, 67, 104
1, 315660, Control_c, 0, 64, 71
1, 315660, Control_c, 0, 67, 104
1, 315675, Control_c, 0, 64, 75
1, 315675, Control_c, 0, 67, 105
1, 315689, Control_c, 0, 64, 78
1, 315704, Control_c, 0, 64, 80
1, 315704, Control_c, 0, 67, 105
1, 315719, Control_c, 0, 64, 83
1, 315734, Control_c, 0, 64, 85
1, 315749, Control_c, 0, 64, 87
1, 315757, Note_off_c, 0, 56, 58
1, 315763, Control_c, 0, 64, 88
1, 315763, Control_c, 0, 67, 106
1, 315778, Control_c, 0, 64, 89
1, 315793, Control_c, 0, 64, 89
1, 315808, Control_c, 0, 67, 106
1, 315809, Note_off_c, 0, 64, 56
1, 315815, Note_off_c, 0, 62, 37
1, 315838, Control_c, 0, 67, 107
1, 315838, Note_off_c, 0, 40, 32
1, 315853, Control_c, 0, 67, 107
1, 316076, Control_c, 0, 64, 89
1, 316120, Control_c, 0, 64, 88
1, 316150, Control_c, 0, 64, 88
1, 316150, Control_c, 0, 67, 107
1, 316179, Control_c, 0, 64, 87
1, 316231, Control_c, 0, 64, 87
1, 316261, Control_c, 0, 64, 86
1, 316276, Control_c, 0, 64, 86
1, 316291, Control_c, 0, 64, 85
1, 316306, Control_c, 0, 64, 85
1, 316320, Control_c, 0, 64, 84
1, 316335, Control_c, 0, 64, 83
1, 316350, Control_c, 0, 64, 82
1, 316350, Control_c, 0, 67, 106
1, 316365, Control_c, 0, 64, 80
1, 316380, Control_c, 0, 64, 79
1, 316386, Note_on_c, 0, 71, 67
1, 316394, Control_c, 0, 64, 77
1, 316399, Note_on_c, 0, 62, 54
1, 316401, Note_on_c, 0, 64, 49
1, 316407, Note_on_c, 0, 67, 51
1, 316409, Control_c, 0, 64, 75
1, 316409, Control_c, 0, 67, 106
1, 316421, Note_on_c, 0, 31, 36
1, 316422, Note_on_c, 0, 43, 36
1, 316424, Control_c, 0, 64, 73
1, 316438, Control_c, 0, 64, 70
1, 316453, Control_c, 0, 64, 66
1, 316453, Control_c, 0, 67, 105
1, 316468, Control_c, 0, 64, 62
1, 316483, Control_c, 0, 64, 52
1, 316498, Control_c, 0, 64, 31
1, 316498, Control_c, 0, 67, 105
1, 316512, Control_c, 0, 64, 0
1, 316527, Control_c, 0, 67, 104
1, 316586, Control_c, 0, 67, 104
1, 316646, Control_c, 0, 67, 103
1, 316690, Control_c, 0, 67, 103
1, 316705, Control_c, 0, 67, 102
1, 316735, Control_c, 0, 67, 102
1, 316750, Control_c, 0, 67, 101
1, 316765, Control_c, 0, 67, 101
1, 316794, Control_c, 0, 64, 16
1, 316794, Control_c, 0, 67, 100
1, 316809, Control_c, 0, 64, 45
1, 316824, Control_c, 0, 64, 53
1, 316824, Control_c, 0, 67, 100
1, 316839, Control_c, 0, 64, 58
1, 316854, Control_c, 0, 64, 61
1, 316869, Control_c, 0, 64, 63
1, 316884, Control_c, 0, 64, 64
1, 316899, Control_c, 0, 64, 66
1, 316914, Control_c, 0, 64, 67
1, 316914, Control_c, 0, 67, 99
1, 316928, Control_c, 0, 64, 68
1, 316943, Control_c, 0, 64, 69
1, 316965, Control_c, 0, 64, 70
1, 316980, Control_c, 0, 64, 72
1, 316995, Control_c, 0, 64, 73
1, 316995, Control_c, 0, 67, 99
1, 317009, Control_c, 0, 64, 75
1, 317024, Control_c, 0, 64, 77
1, 317039, Control_c, 0, 64, 79
1, 317054, Control_c, 0, 64, 80
1, 317069, Control_c, 0, 64, 82
1, 317084, Control_c, 0, 64, 84
1, 317099, Control_c, 0, 64, 86
1, 317099, Control_c, 0, 67, 98
1, 317114, Control_c, 0, 64, 88
1, 317128, Control_c, 0, 64, 90
1, 317128, Control_c, 0, 67, 98
1, 317143, Control_c, 0, 64, 91
1, 317143, Control_c, 0, 67, 97
1, 317158, Control_c, 0, 64, 93
1, 317173, Control_c, 0, 64, 94
1, 317173, Control_c, 0, 67, 97
1, 317188, Control_c, 0, 64, 96
1, 317203, Control_c, 0, 64, 97
1, 317217, Control_c, 0, 64, 98
1, 317217, Control_c, 0, 67, 96
1, 317232, Control_c, 0, 64, 98
1, 317232, Control_c, 0, 67, 96
1, 317247, Control_c, 0, 64, 99
1, 317247, Control_c, 0, 67, 95
1, 317261, Control_c, 0, 64, 100
1, 317261, Control_c, 0, 67, 93
1, 317276, Control_c, 0, 67, 90
1, 317291, Control_c, 0, 64, 100
1, 317291, Control_c, 0, 67, 88
1, 317306, Control_c, 0, 67, 86
1, 317321, Control_c, 0, 67, 84
1, 317335, Control_c, 0, 67, 83
1, 317350, Control_c, 0, 67, 82
1, 317365, Control_c, 0, 67, 82
1, 317439, Control_c, 0, 67, 82
1, 317442, Note_off_c, 0, 43, 40
1, 317459, Note_off_c, 0, 31, 39
1, 317468, Control_c, 0, 67, 83
1, 317483, Control_c, 0, 67, 83
1, 317498, Control_c, 0, 67, 84
1, 317513, Control_c, 0, 67, 84
1, 317528, Control_c, 0, 67, 85
1, 317543, Control_c, 0, 67, 86
1, 317558, Control_c, 0, 67, 87
1, 317572, Control_c, 0, 67, 88
1, 317587, Control_c, 0, 67, 89
1, 317602, Control_c, 0, 67, 90
1, 317617, Control_c, 0, 67, 91
1, 317632, Control_c, 0, 64, 100
1, 317632, Control_c, 0, 67, 92
1, 317647, Control_c, 0, 67, 93
1, 317662, Control_c, 0, 67, 94
1, 317677, Control_c, 0, 64, 99
1, 317677, Control_c, 0, 67, 97
1, 317692, Control_c, 0, 67, 100
1, 317714, Control_c, 0, 67, 103
1, 317729, Control_c, 0, 64, 99
1, 317729, Control_c, 0, 67, 105
1, 317744, Control_c, 0, 67, 106
1, 317758, Control_c, 0, 67, 107
1, 317773, Control_c, 0, 64, 98
1, 317818, Control_c, 0, 64, 98
1, 317832, Control_c, 0, 64, 97
1, 317862, Control_c, 0, 64, 97
1, 317877, Control_c, 0, 64, 96
1, 317951, Control_c, 0, 64, 96
1, 317953, Note_on_c, 0, 45, 39
1, 317961, Note_on_c, 0, 33, 40
1, 317966, Control_c, 0, 64, 95
1, 317981, Control_c, 0, 64, 94
1, 317996, Control_c, 0, 64, 93
1, 318010, Control_c, 0, 64, 93
1, 318025, Control_c, 0, 64, 92
1, 318040, Control_c, 0, 64, 90
1, 318055, Control_c, 0, 64, 87
1, 318070, Control_c, 0, 64, 84
1, 318084, Control_c, 0, 64, 80
1, 318099, Control_c, 0, 64, 77
1, 318114, Control_c, 0, 64, 74
1, 318129, Control_c, 0, 64, 71
1, 318129, Control_c, 0, 67, 106
1, 318144, Control_c, 0, 64, 68
1, 318158, Control_c, 0, 64, 65
1, 318173, Control_c, 0, 64, 62
1, 318179, Note_off_c, 0, 62, 56
1, 318188, Control_c, 0, 64, 54
1, 318202, Control_c, 0, 64, 44
1, 318204, Note_off_c, 0, 67, 27
1, 318217, Control_c, 0, 64, 42
1, 318262, Control_c, 0, 64, 39
1, 318276, Control_c, 0, 64, 29
1, 318291, Control_c, 0, 64, 0
1, 318366, Control_c, 0, 67, 106
1, 318490, Note_off_c, 0, 64, 60
1, 318493, Note_on_c, 0, 69, 58
1, 318493, Control_c, 0, 67, 105
1, 318507, Control_c, 0, 64, 36
1, 318522, Control_c, 0, 64, 51
1, 318529, Note_on_c, 0, 61, 42
1, 318537, Control_c, 0, 64, 59
1, 318552, Control_c, 0, 64, 63
1, 318567, Control_c, 0, 64, 65
1, 318581, Control_c, 0, 64, 66
1, 318596, Control_c, 0, 64, 69
1, 318611, Control_c, 0, 64, 72
1, 318614, Note_off_c, 0, 71, 30
1, 318626, Control_c, 0, 64, 75
1, 318640, Control_c, 0, 64, 78
1, 318655, Control_c, 0, 64, 81
1, 318670, Control_c, 0, 64, 83
1, 318685, Control_c, 0, 64, 86
1, 318690, Note_off_c, 0, 69, 65
1, 318700, Control_c, 0, 64, 88
1, 318714, Control_c, 0, 64, 90
1, 318729, Control_c, 0, 64, 93
1, 318744, Control_c, 0, 64, 95
1, 318759, Control_c, 0, 64, 96
1, 318774, Control_c, 0, 64, 98
1, 318789, Control_c, 0, 64, 100
1, 318804, Control_c, 0, 64, 101
1, 318819, Control_c, 0, 64, 103
1, 318833, Control_c, 0, 64, 104
1, 318848, Control_c, 0, 64, 104
1, 319021, Note_on_c, 0, 71, 72
1, 319033, Note_on_c, 0, 66, 59
1, 319047, Note_on_c, 0, 69, 54
1, 319070, Control_c, 0, 67, 106
1, 319129, Control_c, 0, 67, 106
1, 319211, Control_c, 0, 67, 107
1, 319242, Control_c, 0, 67, 107
1, 319250, Note_off_c, 0, 61, 62
1, 319256, Control_c, 0, 64, 104
1, 319256, Control_c, 0, 67, 108
1, 319295, Note_off_c, 0, 66, 59
1, 319316, Control_c, 0, 67, 108
1, 319330, Control_c, 0, 64, 103
1, 319345, Control_c, 0, 67, 109
1, 319360, Control_c, 0, 64, 103
1, 319360, Control_c, 0, 67, 113
1, 319370, Note_off_c, 0, 45, 42
1, 319375, Control_c, 0, 67, 117
1, 319390, Control_c, 0, 64, 102
1, 319390, Control_c, 0, 67, 119
1, 319404, Control_c, 0, 64, 102
1, 319404, Control_c, 0, 67, 121
1, 319419, Control_c, 0, 64, 101
1, 319419, Control_c, 0, 67, 124
1, 319434, Control_c, 0, 64, 100
1, 319434, Control_c, 0, 67, 127
1, 319449, Control_c, 0, 64, 100
1, 319463, Control_c, 0, 64, 99
1, 319478, Note_off_c, 0, 69, 35
1, 319478, Control_c, 0, 64, 98
1, 319483, Note_off_c, 0, 33, 42
1, 319493, Control_c, 0, 64, 97
1, 319508, Control_c, 0, 64, 96
1, 319537, Control_c, 0, 64, 95
1, 319552, Control_c, 0, 64, 95
1, 319567, Control_c, 0, 64, 94
1, 319582, Control_c, 0, 64, 93
1, 319597, Note_on_c, 0, 73, 79
1, 319597, Control_c, 0, 64, 91
1, 319612, Control_c, 0, 64, 86
1, 319614, Note_on_c, 0, 64, 59
1, 319622, Note_on_c, 0, 67, 53
1, 319626, Control_c, 0, 64, 81
1, 319629, Note_on_c, 0, 33, 45
1, 319630, Note_on_c, 0, 45, 47
1, 319641, Control_c, 0, 64, 74
1, 319656, Control_c, 0, 64, 69
1, 319671, Control_c, 0, 64, 66
1, 319686, Control_c, 0, 64, 63
1, 319701, Control_c, 0, 64, 59
1, 319707, Note_off_c, 0, 71, 51
1, 319716, Control_c, 0, 64, 42
1, 319730, Control_c, 0, 64, 0
1, 319745, Control_c, 0, 64, 16
1, 319760, Control_c, 0, 64, 45
1, 319774, Control_c, 0, 64, 60
1, 319789, Control_c, 0, 64, 65
1, 319804, Control_c, 0, 64, 69
1, 319819, Control_c, 0, 64, 73
1, 319834, Control_c, 0, 64, 77
1, 319848, Control_c, 0, 64, 80
1, 319863, Control_c, 0, 64, 83
1, 319878, Control_c, 0, 64, 86
1, 319893, Control_c, 0, 64, 88
1, 319908, Control_c, 0, 64, 89
1, 319917, Note_off_c, 0, 67, 58
1, 319919, Note_off_c, 0, 64, 53
1, 319922, Control_c, 0, 64, 91
1, 319934, Note_off_c, 0, 45, 41
1, 319937, Control_c, 0, 64, 92
1, 319938, Note_off_c, 0, 33, 41
1, 320153, Control_c, 0, 64, 92
1, 320166, Note_off_c, 0, 73, 53
1, 320183, Control_c, 0, 64, 91
1, 320198, Control_c, 0, 64, 90
1, 320213, Control_c, 0, 64, 89
1, 320214, Note_on_c, 0, 74, 77
1, 320227, Control_c, 0, 64, 86
1, 320229, Note_on_c, 0, 62, 67
1, 320231, Note_on_c, 0, 66, 60
1, 320235, Note_on_c, 0, 47, 52
1, 320242, Control_c, 0, 64, 81
1, 320255, Note_on_c, 0, 35, 45
1, 320257, Control_c, 0, 64, 75
1, 320271, Control_c, 0, 64, 69
1, 320286, Control_c, 0, 64, 63
1, 320301, Control_c, 0, 64, 46
1, 320316, Control_c, 0, 64, 0
1, 320405, Control_c, 0, 64, 50
1, 320419, Control_c, 0, 64, 64
1, 320434, Control_c, 0, 64, 69
1, 320449, Control_c, 0, 64, 74
1, 320464, Control_c, 0, 64, 78
1, 320479, Control_c, 0, 64, 81
1, 320482, Note_off_c, 0, 47, 58
1, 320493, Note_off_c, 0, 74, 65
1, 320494, Control_c, 0, 64, 83
1, 320509, Control_c, 0, 64, 84
1, 320515, Note_off_c, 0, 35, 41
1, 320524, Control_c, 0, 64, 86
1, 320535, Note_off_c, 0, 66, 63
1, 320539, Control_c, 0, 64, 87
1, 320553, Control_c, 0, 64, 88
1, 320555, Note_off_c, 0, 62, 61
1, 320842, Control_c, 0, 64, 88
1, 320857, Control_c, 0, 64, 87
1, 320870, Note_on_c, 0, 69, 78
1, 320872, Control_c, 0, 64, 86
1, 320881, Note_on_c, 0, 61, 65
1, 320887, Control_c, 0, 64, 85
1, 320887, Note_on_c, 0, 62, 66
1, 320896, Note_on_c, 0, 42, 51
1, 320901, Control_c, 0, 64, 83
1, 320905, Note_on_c, 0, 30, 45
1, 320916, Control_c, 0, 64, 79
1, 320931, Control_c, 0, 64, 74
1, 320946, Control_c, 0, 64, 69
1, 320961, Control_c, 0, 64, 64
1, 320975, Control_c, 0, 64, 50
1, 320990, Control_c, 0, 64, 0
1, 321094, Control_c, 0, 64, 55
1, 321108, Control_c, 0, 64, 66
1, 321123, Control_c, 0, 64, 71
1, 321138, Control_c, 0, 64, 76
1, 321153, Control_c, 0, 64, 79
1, 321168, Control_c, 0, 64, 82
1, 321183, Control_c, 0, 64, 84
1, 321197, Control_c, 0, 64, 85
1, 321212, Control_c, 0, 64, 87
1, 321227, Control_c, 0, 64, 88
1, 321242, Control_c, 0, 64, 88
1, 321245, Note_off_c, 0, 69, 60
1, 321265, Note_off_c, 0, 61, 48
1, 321275, Note_off_c, 0, 30, 38
1, 321276, Note_off_c, 0, 62, 48
1, 321295, Note_off_c, 0, 42, 38
1, 321546, Control_c, 0, 64, 88
1, 321605, Control_c, 0, 64, 87
1, 321636, Control_c, 0, 64, 87
1, 321650, Control_c, 0, 64, 86
1, 321665, Control_c, 0, 64, 86
1, 321669, Note_on_c, 0, 69, 71
1, 321680, Control_c, 0, 64, 85
1, 321682, Note_on_c, 0, 61, 59
1, 321685, Note_on_c, 0, 62, 63
1, 321690, Note_on_c, 0, 43, 49
1, 321695, Control_c, 0, 64, 84
1, 321701, Note_on_c, 0, 31, 49
1, 321710, Control_c, 0, 64, 82
1, 321724, Control_c, 0, 64, 80
1, 321739, Control_c, 0, 64, 76
1, 321754, Control_c, 0, 64, 72
1, 321769, Control_c, 0, 64, 67
1, 321784, Control_c, 0, 64, 55
1, 321798, Control_c, 0, 64, 0
1, 321917, Control_c, 0, 67, 127
1, 321931, Control_c, 0, 67, 124
1, 321946, Control_c, 0, 67, 121
1, 321961, Control_c, 0, 67, 117
1, 321976, Control_c, 0, 67, 113
1, 321991, Control_c, 0, 67, 107
1, 322005, Control_c, 0, 67, 101
1, 322020, Control_c, 0, 67, 96
1, 322035, Control_c, 0, 67, 91
1, 322050, Control_c, 0, 67, 90
1, 322065, Control_c, 0, 67, 89
1, 322154, Control_c, 0, 64, 29
1, 322154, Control_c, 0, 67, 89
1, 322168, Control_c, 0, 64, 44
1, 322183, Control_c, 0, 64, 49
1, 322205, Control_c, 0, 64, 51
1, 322205, Control_c, 0, 67, 88
1, 322220, Control_c, 0, 64, 51
1, 322235, Control_c, 0, 67, 87
1, 322250, Control_c, 0, 67, 82
1, 322265, Control_c, 0, 64, 52
1, 322265, Control_c, 0, 67, 77
1, 322280, Control_c, 0, 67, 72
1, 322294, Control_c, 0, 67, 71
1, 322324, Control_c, 0, 64, 51
1, 322324, Control_c, 0, 67, 71
1, 322339, Control_c, 0, 64, 51
1, 322383, Control_c, 0, 64, 50
1, 322386, Note_on_c, 0, 59, 52
1, 322390, Note_off_c, 0, 62, 59
1, 322398, Control_c, 0, 64, 50
1, 322413, Note_off_c, 0, 61, 56
1, 322413, Control_c, 0, 64, 49
1, 322429, Control_c, 0, 64, 48
1, 322443, Control_c, 0, 64, 48
1, 322458, Control_c, 0, 64, 47
1, 322473, Control_c, 0, 64, 47
1, 322518, Control_c, 0, 64, 47
1, 322577, Control_c, 0, 64, 47
1, 322592, Control_c, 0, 64, 46
1, 322606, Control_c, 0, 64, 46
1, 322606, Control_c, 0, 67, 72
1, 322636, Control_c, 0, 64, 45
1, 322680, Control_c, 0, 67, 72
1, 322695, Control_c, 0, 64, 46
1, 322710, Control_c, 0, 64, 47
1, 322724, Note_off_c, 0, 69, 54
1, 322725, Control_c, 0, 64, 50
1, 322726, Note_on_c, 0, 67, 60
1, 322740, Control_c, 0, 64, 53
1, 322754, Control_c, 0, 64, 58
1, 322769, Control_c, 0, 64, 61
1, 322784, Control_c, 0, 64, 63
1, 322798, Control_c, 0, 64, 65
1, 322813, Control_c, 0, 64, 67
1, 322828, Control_c, 0, 64, 69
1, 322841, Note_off_c, 0, 59, 36
1, 322843, Control_c, 0, 64, 72
1, 322858, Control_c, 0, 64, 75
1, 322873, Control_c, 0, 64, 78
1, 322888, Control_c, 0, 64, 80
1, 322903, Control_c, 0, 64, 82
1, 322903, Control_c, 0, 67, 73
1, 322917, Control_c, 0, 64, 83
1, 322932, Control_c, 0, 64, 84
1, 322954, Control_c, 0, 64, 85
1, 323130, Note_off_c, 0, 67, 34
1, 323213, Note_on_c, 0, 66, 48
1, 323220, Control_c, 0, 64, 84
1, 323224, Note_on_c, 0, 57, 43
1, 323232, Note_on_c, 0, 62, 43
1, 323234, Note_on_c, 0, 38, 35
1, 323236, Control_c, 0, 64, 84
1, 323251, Control_c, 0, 64, 83
1, 323266, Control_c, 0, 64, 82
1, 323281, Control_c, 0, 64, 81
1, 323295, Control_c, 0, 64, 79
1, 323310, Control_c, 0, 64, 76
1, 323325, Control_c, 0, 64, 72
1, 323340, Control_c, 0, 64, 68
1, 323355, Control_c, 0, 64, 63
1, 323358, Note_off_c, 0, 43, 36
1, 323369, Control_c, 0, 64, 48
1, 323376, Note_off_c, 0, 31, 28
1, 323384, Control_c, 0, 64, 0
1, 323666, Control_c, 0, 67, 72
1, 323807, Control_c, 0, 64, 18
1, 323807, Control_c, 0, 67, 72
1, 323821, Control_c, 0, 64, 43
1, 323836, Control_c, 0, 64, 52
1, 323851, Control_c, 0, 64, 56
1, 323866, Control_c, 0, 64, 58
1, 323881, Control_c, 0, 64, 60
1, 323895, Control_c, 0, 64, 62
1, 323895, Control_c, 0, 67, 71
1, 323910, Control_c, 0, 64, 63
1, 323925, Control_c, 0, 64, 64
1, 323940, Control_c, 0, 64, 65
1, 323955, Control_c, 0, 64, 67
1, 323970, Control_c, 0, 64, 68
1, 323985, Control_c, 0, 64, 70
1, 323999, Control_c, 0, 64, 72
1, 324015, Control_c, 0, 64, 75
1, 324030, Control_c, 0, 64, 77
1, 324044, Control_c, 0, 64, 78
1, 324059, Control_c, 0, 64, 80
1, 324074, Control_c, 0, 64, 82
1, 324089, Control_c, 0, 64, 84
1, 324104, Control_c, 0, 64, 86
1, 324104, Control_c, 0, 67, 71
1, 324119, Control_c, 0, 64, 87
1, 324134, Control_c, 0, 64, 89
1, 324149, Control_c, 0, 64, 90
1, 324149, Control_c, 0, 67, 70
1, 324163, Control_c, 0, 64, 92
1, 324178, Control_c, 0, 64, 93
1, 324178, Control_c, 0, 67, 70
1, 324193, Control_c, 0, 64, 93
1, 324193, Control_c, 0, 67, 69
1, 324208, Control_c, 0, 64, 94
1, 324208, Control_c, 0, 67, 67
1, 324218, Note_off_c, 0, 57, 37
1, 324223, Control_c, 0, 67, 58
1, 324238, Control_c, 0, 64, 94
1, 324238, Control_c, 0, 67, 48
1, 324252, Control_c, 0, 67, 38
1, 324253, Note_off_c, 0, 62, 29
1, 324267, Control_c, 0, 67, 29
1, 324282, Control_c, 0, 67, 24
1, 324294, Note_off_c, 0, 38, 39
1, 324297, Control_c, 0, 64, 95
1, 324297, Control_c, 0, 67, 20
1, 324312, Control_c, 0, 67, 18
1, 324326, Control_c, 0, 67, 15
1, 324332, Note_off_c, 0, 66, 42
1, 324341, Control_c, 0, 67, 12
1, 324356, Control_c, 0, 67, 9
1, 324370, Control_c, 0, 67, 0
1, 324556, Control_c, 0, 64, 94
1, 324792, Control_c, 0, 64, 94
1, 324807, Control_c, 0, 64, 93
1, 324823, Control_c, 0, 64, 92
1, 324838, Control_c, 0, 64, 90
1, 324853, Control_c, 0, 64, 87
1, 324867, Control_c, 0, 64, 85
1, 324870, Note_on_c, 0, 66, 75
1, 324879, Note_on_c, 0, 57, 61
1, 324879, Note_on_c, 0, 62, 65
1, 324882, Control_c, 0, 64, 82
1, 324885, Note_on_c, 0, 50, 51
1, 324892, Note_on_c, 0, 38, 48
1, 324897, Control_c, 0, 64, 80
1, 324912, Control_c, 0, 64, 77
1, 324927, Control_c, 0, 64, 74
1, 324941, Control_c, 0, 64, 68
1, 324956, Control_c, 0, 64, 61
1, 324971, Control_c, 0, 64, 0
1, 325320, Control_c, 0, 64, 13
1, 325335, Control_c, 0, 64, 52
1, 325349, Control_c, 0, 64, 60
1, 325364, Control_c, 0, 64, 63
1, 325364, Control_c, 0, 67, 12
1, 325379, Control_c, 0, 64, 64
1, 325379, Control_c, 0, 67, 18
1, 325393, Control_c, 0, 64, 66
1, 325393, Control_c, 0, 67, 26
1, 325408, Control_c, 0, 64, 68
1, 325408, Control_c, 0, 67, 34
1, 325423, Control_c, 0, 64, 72
1, 325423, Control_c, 0, 67, 41
1, 325438, Control_c, 0, 64, 74
1, 325438, Control_c, 0, 67, 48
1, 325453, Control_c, 0, 64, 76
1, 325453, Control_c, 0, 67, 52
1, 325467, Control_c, 0, 64, 78
1, 325467, Control_c, 0, 67, 56
1, 325482, Control_c, 0, 64, 80
1, 325482, Control_c, 0, 67, 60
1, 325497, Control_c, 0, 64, 81
1, 325497, Control_c, 0, 67, 66
1, 325512, Control_c, 0, 64, 83
1, 325512, Control_c, 0, 67, 71
1, 325527, Control_c, 0, 64, 85
1, 325527, Control_c, 0, 67, 76
1, 325541, Control_c, 0, 64, 86
1, 325541, Control_c, 0, 67, 81
1, 325556, Control_c, 0, 64, 87
1, 325556, Control_c, 0, 67, 86
1, 325571, Control_c, 0, 64, 87
1, 325571, Control_c, 0, 67, 91
1, 325586, Control_c, 0, 67, 95
1, 325600, Control_c, 0, 64, 88
1, 325600, Control_c, 0, 67, 97
1, 325616, Control_c, 0, 67, 97
1, 325681, Note_off_c, 0, 38, 40
1, 325714, Note_off_c, 0, 50, 35
1, 325854, Control_c, 0, 64, 87
1, 325898, Control_c, 0, 64, 86
1, 325913, Control_c, 0, 64, 86
1, 325950, Control_c, 0, 64, 85
1, 325962, Note_on_c, 0, 52, 54
1, 325965, Control_c, 0, 64, 84
1, 325979, Control_c, 0, 64, 83
1, 325983, Note_on_c, 0, 40, 45
1, 325994, Control_c, 0, 64, 81
1, 326009, Control_c, 0, 64, 78
1, 326024, Control_c, 0, 64, 75
1, 326038, Control_c, 0, 64, 71
1, 326049, Note_off_c, 0, 57, 63
1, 326053, Control_c, 0, 64, 66
1, 326068, Control_c, 0, 64, 57
1, 326083, Control_c, 0, 64, 0
1, 326216, Control_c, 0, 67, 98
1, 326246, Control_c, 0, 67, 98
1, 326276, Control_c, 0, 67, 99
1, 326305, Control_c, 0, 67, 99
1, 326320, Control_c, 0, 67, 101
1, 326335, Control_c, 0, 67, 104
1, 326349, Control_c, 0, 67, 105
1, 326394, Control_c, 0, 67, 105
1, 326533, Note_off_c, 0, 66, 52
1, 326545, Note_on_c, 0, 64, 54
1, 326561, Note_on_c, 0, 56, 38
1, 326602, Control_c, 0, 64, 10
1, 326617, Control_c, 0, 64, 38
1, 326632, Control_c, 0, 64, 52
1, 326647, Control_c, 0, 64, 60
1, 326661, Control_c, 0, 64, 64
1, 326676, Control_c, 0, 64, 66
1, 326699, Control_c, 0, 64, 69
1, 326714, Control_c, 0, 64, 72
1, 326728, Control_c, 0, 64, 76
1, 326743, Control_c, 0, 64, 80
1, 326748, Note_off_c, 0, 52, 57
1, 326758, Control_c, 0, 64, 83
1, 326772, Control_c, 0, 64, 86
1, 326787, Control_c, 0, 64, 88
1, 326802, Control_c, 0, 64, 91
1, 326817, Control_c, 0, 64, 93
1, 326817, Control_c, 0, 67, 106
1, 326822, Note_off_c, 0, 40, 37
1, 326832, Control_c, 0, 64, 95
1, 326846, Control_c, 0, 64, 96
1, 326846, Control_c, 0, 67, 106
1, 326861, Control_c, 0, 64, 96
1, 326861, Control_c, 0, 67, 108
1, 326862, Note_off_c, 0, 64, 51
1, 326876, Control_c, 0, 67, 110
1, 326882, Note_off_c, 0, 62, 39
1, 326891, Control_c, 0, 67, 112
1, 326951, Control_c, 0, 67, 113
1, 327043, Note_off_c, 0, 56, 28
1, 327248, Control_c, 0, 67, 112
1, 327322, Control_c, 0, 67, 112
1, 327351, Control_c, 0, 64, 96
1, 327351, Control_c, 0, 67, 111
1, 327381, Control_c, 0, 64, 95
1, 327395, Control_c, 0, 67, 111
1, 327410, Control_c, 0, 64, 95
1, 327425, Control_c, 0, 64, 94
1, 327448, Control_c, 0, 64, 94
1, 327463, Control_c, 0, 64, 93
1, 327477, Control_c, 0, 64, 92
1, 327492, Control_c, 0, 64, 91
1, 327493, Note_on_c, 0, 64, 39
1, 327504, Note_on_c, 0, 48, 34
1, 327507, Control_c, 0, 64, 89
1, 327510, Note_on_c, 0, 60, 37
1, 327515, Note_on_c, 0, 55, 37
1, 327516, Note_on_c, 0, 36, 33
1, 327522, Control_c, 0, 64, 87
1, 327522, Control_c, 0, 67, 110
1, 327537, Control_c, 0, 64, 83
1, 327551, Control_c, 0, 64, 80
1, 327566, Control_c, 0, 64, 76
1, 327566, Control_c, 0, 67, 110
1, 327581, Control_c, 0, 64, 73
1, 327595, Control_c, 0, 64, 68
1, 327610, Control_c, 0, 64, 64
1, 327625, Control_c, 0, 64, 44
1, 327640, Control_c, 0, 64, 0
1, 327655, Control_c, 0, 67, 109
1, 327669, Control_c, 0, 67, 109
1, 327714, Control_c, 0, 67, 108
1, 327862, Control_c, 0, 67, 108
1, 327922, Control_c, 0, 67, 107
1, 327951, Control_c, 0, 64, 25
1, 327966, Control_c, 0, 64, 36
1, 327966, Control_c, 0, 67, 107
1, 327981, Control_c, 0, 64, 43
1, 327995, Control_c, 0, 64, 49
1, 328011, Control_c, 0, 64, 52
1, 328026, Control_c, 0, 64, 55
1, 328041, Control_c, 0, 64, 57
1, 328056, Control_c, 0, 64, 58
1, 328056, Control_c, 0, 67, 106
1, 328071, Control_c, 0, 64, 60
1, 328085, Control_c, 0, 64, 61
1, 328100, Control_c, 0, 64, 62
1, 328115, Control_c, 0, 64, 63
1, 328130, Control_c, 0, 64, 64
1, 328145, Control_c, 0, 64, 65
1, 328159, Control_c, 0, 64, 66
1, 328174, Control_c, 0, 64, 66
1, 328197, Control_c, 0, 64, 67
1, 328211, Control_c, 0, 64, 68
1, 328226, Control_c, 0, 64, 69
1, 328241, Control_c, 0, 64, 69
1, 328256, Control_c, 0, 64, 70
1, 328271, Control_c, 0, 64, 71
1, 328286, Control_c, 0, 64, 72
1, 328300, Control_c, 0, 64, 73
1, 328315, Control_c, 0, 64, 74
1, 328330, Control_c, 0, 64, 75
1, 328345, Control_c, 0, 64, 77
1, 328360, Control_c, 0, 64, 78
1, 328374, Control_c, 0, 64, 79
1, 328389, Control_c, 0, 64, 80
1, 328404, Control_c, 0, 64, 81
1, 328418, Control_c, 0, 64, 83
1, 328433, Control_c, 0, 64, 84
1, 328448, Control_c, 0, 64, 85
1, 328463, Control_c, 0, 64, 86
1, 328478, Control_c, 0, 64, 87
1, 328492, Control_c, 0, 64, 89
1, 328492, Control_c, 0, 67, 106
1, 328507, Control_c, 0, 64, 90
1, 328522, Control_c, 0, 64, 91
1, 328537, Control_c, 0, 64, 92
1, 328552, Control_c, 0, 64, 94
1, 328566, Control_c, 0, 64, 95
1, 328581, Control_c, 0, 64, 97
1, 328596, Control_c, 0, 64, 99
1, 328611, Control_c, 0, 64, 100
1, 328626, Control_c, 0, 64, 102
1, 328641, Control_c, 0, 64, 104
1, 328656, Control_c, 0, 64, 105
1, 328671, Control_c, 0, 64, 105
1, 328685, Control_c, 0, 64, 106
1, 328715, Control_c, 0, 64, 106
1, 328715, Control_c, 0, 67, 105
1, 328808, Note_off_c, 0, 48, 42
1, 328809, Note_off_c, 0, 64, 41
1, 328813, Note_off_c, 0, 55, 40
1, 328835, Control_c, 0, 67, 105
1, 328841, Note_off_c, 0, 60, 34
1, 329049, Control_c, 0, 64, 106
1, 329064, Control_c, 0, 64, 105
1, 329094, Control_c, 0, 64, 105
1, 329109, Control_c, 0, 64, 104
1, 329123, Control_c, 0, 64, 104
1, 329138, Control_c, 0, 64, 103
1, 329153, Control_c, 0, 64, 102
1, 329167, Control_c, 0, 64, 101
1, 329177, Note_on_c, 0, 62, 45
1, 329182, Control_c, 0, 64, 99
1, 329187, Note_on_c, 0, 55, 37
1, 329189, Note_on_c, 0, 47, 42
1, 329197, Control_c, 0, 64, 96
1, 329200, Note_on_c, 0, 35, 39
1, 329212, Control_c, 0, 64, 93
1, 329227, Control_c, 0, 64, 90
1, 329241, Control_c, 0, 64, 86
1, 329256, Control_c, 0, 64, 82
1, 329271, Control_c, 0, 64, 77
1, 329286, Control_c, 0, 64, 72
1, 329293, Note_off_c, 0, 36, 22
1, 329301, Control_c, 0, 64, 66
1, 329315, Control_c, 0, 64, 58
1, 329330, Control_c, 0, 64, 39
1, 329345, Control_c, 0, 64, 36
1, 329359, Control_c, 0, 64, 43
1, 329374, Control_c, 0, 64, 48
1, 329389, Control_c, 0, 64, 54
1, 329404, Control_c, 0, 64, 60
1, 329404, Control_c, 0, 67, 104
1, 329419, Control_c, 0, 64, 64
1, 329434, Control_c, 0, 64, 66
1, 329434, Control_c, 0, 67, 104
1, 329449, Control_c, 0, 64, 70
1, 329463, Control_c, 0, 64, 74
1, 329478, Control_c, 0, 64, 77
1, 329478, Control_c, 0, 67, 103
1, 329493, Control_c, 0, 64, 80
1, 329497, Note_off_c, 0, 62, 52
1, 329508, Control_c, 0, 64, 83
1, 329516, Note_off_c, 0, 55, 40
1, 329523, Control_c, 0, 64, 86
1, 329523, Control_c, 0, 67, 103
1, 329538, Control_c, 0, 64, 88
1, 329538, Control_c, 0, 67, 102
1, 329553, Control_c, 0, 64, 90
1, 329553, Control_c, 0, 67, 102
1, 329567, Control_c, 0, 64, 92
1, 329567, Control_c, 0, 67, 101
1, 329582, Control_c, 0, 64, 93
1, 329582, Control_c, 0, 67, 99
1, 329597, Control_c, 0, 64, 94
1, 329597, Control_c, 0, 67, 97
1, 329613, Control_c, 0, 64, 95
1, 329613, Control_c, 0, 67, 94
1, 329627, Control_c, 0, 64, 95
1, 329627, Control_c, 0, 67, 91
1, 329642, Control_c, 0, 64, 96
1, 329642, Control_c, 0, 67, 89
1, 329657, Control_c, 0, 64, 96
1, 329657, Control_c, 0, 67, 86
1, 329672, Control_c, 0, 64, 97
1, 329672, Control_c, 0, 67, 84
1, 329694, Control_c, 0, 64, 97
1, 329694, Control_c, 0, 67, 81
1, 329702, Note_on_c, 0, 64, 69
1, 329709, Control_c, 0, 67, 79
1, 329717, Note_on_c, 0, 62, 47
1, 329720, Note_on_c, 0, 55, 55
1, 329724, Control_c, 0, 67, 77
1, 329738, Control_c, 0, 67, 75
1, 329753, Control_c, 0, 67, 73
1, 329768, Control_c, 0, 67, 72
1, 329783, Control_c, 0, 67, 71
1, 329797, Control_c, 0, 67, 71
1, 329812, Control_c, 0, 67, 70
1, 329827, Control_c, 0, 67, 69
1, 329842, Control_c, 0, 67, 68
1, 329847, Note_off_c, 0, 62, 57
1, 329857, Control_c, 0, 67, 67
1, 329860, Note_off_c, 0, 55, 63
1, 329872, Control_c, 0, 67, 66
1, 329887, Control_c, 0, 67, 66
1, 329902, Control_c, 0, 67, 65
1, 329912, Note_off_c, 0, 64, 63
1, 329917, Control_c, 0, 67, 64
1, 330065, Note_off_c, 0, 47, 42
1, 330109, Control_c, 0, 64, 97
1, 330138, Control_c, 0, 64, 96
1, 330138, Control_c, 0, 67, 64
1, 330153, Control_c, 0, 64, 96
1, 330168, Control_c, 0, 64, 95
1, 330182, Control_c, 0, 64, 94
1, 330197, Control_c, 0, 64, 92
1, 330212, Control_c, 0, 64, 90
1, 330218, Note_on_c, 0, 66, 75
1, 330227, Control_c, 0, 64, 87
1, 330230, Note_on_c, 0, 62, 60
1, 330238, Note_on_c, 0, 60, 54
1, 330242, Control_c, 0, 64, 83
1, 330247, Note_on_c, 0, 45, 53
1, 330256, Control_c, 0, 64, 79
1, 330271, Control_c, 0, 64, 75
1, 330272, Note_on_c, 0, 33, 46
1, 330282, Note_off_c, 0, 35, 42
1, 330286, Control_c, 0, 64, 70
1, 330301, Control_c, 0, 64, 66
1, 330316, Control_c, 0, 64, 65
1, 330331, Control_c, 0, 64, 66
1, 330346, Control_c, 0, 64, 67
1, 330361, Control_c, 0, 64, 69
1, 330376, Control_c, 0, 64, 71
1, 330390, Control_c, 0, 64, 73
1, 330405, Control_c, 0, 64, 77
1, 330420, Control_c, 0, 64, 80
1, 330424, Note_off_c, 0, 60, 57
1, 330443, Control_c, 0, 64, 82
1, 330459, Control_c, 0, 64, 84
1, 330465, Note_off_c, 0, 62, 59
1, 330474, Control_c, 0, 64, 85
1, 330474, Control_c, 0, 67, 64
1, 330551, Note_off_c, 0, 33, 38
1, 330553, Note_off_c, 0, 45, 54
1, 330636, Control_c, 0, 64, 84
1, 330651, Control_c, 0, 64, 83
1, 330666, Control_c, 0, 64, 82
1, 330681, Control_c, 0, 64, 80
1, 330695, Control_c, 0, 64, 78
1, 330710, Control_c, 0, 64, 74
1, 330725, Control_c, 0, 64, 69
1, 330729, Note_on_c, 0, 67, 77
1, 330739, Note_on_c, 0, 62, 60
1, 330740, Note_on_c, 0, 59, 66
1, 330740, Control_c, 0, 64, 62
1, 330745, Note_off_c, 0, 66, 36
1, 330747, Note_on_c, 0, 43, 56
1, 330755, Control_c, 0, 64, 32
1, 330757, Note_on_c, 0, 31, 51
1, 330769, Control_c, 0, 64, 0
1, 330844, Control_c, 0, 64, 42
1, 330859, Control_c, 0, 64, 59
1, 330873, Control_c, 0, 64, 66
1, 330888, Control_c, 0, 64, 69
1, 330903, Control_c, 0, 64, 73
1, 330918, Control_c, 0, 64, 77
1, 330918, Control_c, 0, 67, 65
1, 330932, Control_c, 0, 64, 80
1, 330947, Control_c, 0, 64, 82
1, 330962, Control_c, 0, 64, 83
1, 330962, Control_c, 0, 67, 65
1, 330977, Control_c, 0, 64, 84
1, 330992, Control_c, 0, 64, 85
1, 330992, Control_c, 0, 67, 66
1, 331006, Control_c, 0, 64, 86
1, 331006, Control_c, 0, 67, 66
1, 331021, Control_c, 0, 67, 68
1, 331036, Control_c, 0, 64, 86
1, 331036, Control_c, 0, 67, 69
1, 331049, Note_off_c, 0, 43, 57
1, 331051, Control_c, 0, 67, 70
1, 331066, Control_c, 0, 67, 70
1, 331067, Note_off_c, 0, 59, 60
1, 331068, Note_off_c, 0, 62, 60
1, 331110, Control_c, 0, 67, 69
1, 331125, Control_c, 0, 67, 69
1, 331139, Control_c, 0, 67, 68
1, 331192, Control_c, 0, 64, 86
1, 331222, Control_c, 0, 64, 85
1, 331236, Control_c, 0, 64, 84
1, 331251, Control_c, 0, 64, 83
1, 331266, Control_c, 0, 64, 82
1, 331266, Control_c, 0, 67, 68
1, 331281, Control_c, 0, 64, 80
1, 331296, Control_c, 0, 64, 77
1, 331300, Note_on_c, 0, 69, 85
1, 331303, Note_off_c, 0, 31, 40
1, 331310, Note_on_c, 0, 57, 73
1, 331311, Control_c, 0, 64, 73
1, 331313, Note_on_c, 0, 30, 54
1, 331315, Note_on_c, 0, 62, 69
1, 331315, Note_on_c, 0, 42, 52
1, 331326, Control_c, 0, 64, 68
1, 331328, Note_off_c, 0, 67, 39
1, 331341, Control_c, 0, 64, 63
1, 331356, Control_c, 0, 64, 33
1, 331356, Control_c, 0, 67, 68
1, 331371, Control_c, 0, 64, 0
1, 331415, Control_c, 0, 67, 69
1, 331429, Control_c, 0, 67, 69
1, 331444, Control_c, 0, 64, 51
1, 331444, Control_c, 0, 67, 70
1, 331459, Control_c, 0, 64, 64
1, 331459, Control_c, 0, 67, 71
1, 331474, Control_c, 0, 64, 69
1, 331474, Control_c, 0, 67, 72
1, 331489, Control_c, 0, 64, 73
1, 331489, Control_c, 0, 67, 73
1, 331504, Control_c, 0, 64, 77
1, 331518, Control_c, 0, 64, 79
1, 331518, Control_c, 0, 67, 73
1, 331533, Control_c, 0, 64, 81
1, 331533, Control_c, 0, 67, 74
1, 331535, Note_off_c, 0, 30, 39
1, 331548, Control_c, 0, 64, 83
1, 331548, Control_c, 0, 67, 75
1, 331562, Control_c, 0, 64, 84
1, 331562, Control_c, 0, 67, 77
1, 331577, Control_c, 0, 67, 79
1, 331590, Note_off_c, 0, 57, 59
1, 331592, Control_c, 0, 67, 80
1, 331595, Note_off_c, 0, 42, 58
1, 331607, Control_c, 0, 67, 81
1, 331622, Control_c, 0, 67, 82
1, 331623, Note_off_c, 0, 69, 60
1, 331631, Note_off_c, 0, 62, 53
1, 331637, Control_c, 0, 67, 83
1, 331651, Control_c, 0, 67, 84
1, 331666, Control_c, 0, 67, 87
1, 331681, Control_c, 0, 67, 89
1, 331696, Control_c, 0, 67, 91
1, 331711, Control_c, 0, 67, 94
1, 331726, Control_c, 0, 67, 95
1, 331741, Control_c, 0, 67, 96
1, 331770, Control_c, 0, 64, 83
1, 331800, Control_c, 0, 64, 83
1, 331800, Control_c, 0, 67, 96
1, 331829, Control_c, 0, 64, 82
1, 331844, Control_c, 0, 64, 81
1, 331859, Control_c, 0, 64, 79
1, 331874, Control_c, 0, 64, 77
1, 331889, Control_c, 0, 64, 75
1, 331903, Control_c, 0, 64, 72
1, 331918, Control_c, 0, 64, 68
1, 331941, Control_c, 0, 64, 62
1, 331941, Control_c, 0, 67, 96
1, 331953, Note_on_c, 0, 71, 71
1, 331956, Control_c, 0, 64, 57
1, 331964, Note_on_c, 0, 59, 59
1, 331970, Control_c, 0, 64, 56
1, 331970, Control_c, 0, 67, 95
1, 331982, Note_on_c, 0, 64, 52
1, 331983, Note_on_c, 0, 31, 45
1, 331984, Note_on_c, 0, 43, 42
1, 331985, Note_on_c, 0, 62, 51
1, 332000, Control_c, 0, 64, 54
1, 332000, Control_c, 0, 67, 95
1, 332015, Control_c, 0, 64, 50
1, 332015, Control_c, 0, 67, 94
1, 332030, Control_c, 0, 64, 43
1, 332045, Control_c, 0, 64, 37
1, 332060, Control_c, 0, 64, 27
1, 332060, Control_c, 0, 67, 94
1, 332075, Control_c, 0, 64, 0
1, 332193, Control_c, 0, 67, 94
1, 332223, Control_c, 0, 64, 58
1, 332223, Control_c, 0, 67, 95
1, 332238, Control_c, 0, 64, 65
1, 332238, Control_c, 0, 67, 96
1, 332253, Control_c, 0, 64, 68
1, 332267, Control_c, 0, 64, 71
1, 332267, Control_c, 0, 67, 96
1, 332281, Note_off_c, 0, 43, 52
1, 332282, Control_c, 0, 64, 74
1, 332282, Control_c, 0, 67, 97
1, 332297, Control_c, 0, 64, 76
1, 332312, Control_c, 0, 64, 79
1, 332312, Control_c, 0, 67, 97
1, 332327, Control_c, 0, 64, 80
1, 332341, Control_c, 0, 64, 80
1, 332344, Note_off_c, 0, 31, 36
1, 332474, Control_c, 0, 64, 80
1, 332489, Control_c, 0, 64, 78
1, 332504, Control_c, 0, 64, 75
1, 332519, Control_c, 0, 64, 72
1, 332534, Control_c, 0, 64, 68
1, 332549, Control_c, 0, 64, 65
1, 332564, Control_c, 0, 64, 62
1, 332577, Note_on_c, 0, 32, 42
1, 332579, Control_c, 0, 64, 62
1, 332585, Note_on_c, 0, 44, 46
1, 332593, Control_c, 0, 64, 63
1, 332608, Control_c, 0, 64, 63
1, 332608, Control_c, 0, 67, 97
1, 332623, Control_c, 0, 64, 64
1, 332632, Note_off_c, 0, 59, 54
1, 332633, Note_off_c, 0, 64, 57
1, 332638, Control_c, 0, 64, 65
1, 332647, Note_off_c, 0, 62, 57
1, 332652, Control_c, 0, 64, 66
1, 332667, Control_c, 0, 64, 67
1, 332689, Control_c, 0, 64, 69
1, 332704, Control_c, 0, 64, 70
1, 332719, Control_c, 0, 64, 71
1, 332734, Control_c, 0, 64, 72
1, 332793, Control_c, 0, 67, 97
1, 332838, Note_off_c, 0, 71, 30
1, 332838, Control_c, 0, 67, 98
1, 332897, Control_c, 0, 64, 73
1, 332909, Note_on_c, 0, 64, 55
1, 332912, Control_c, 0, 64, 74
1, 332927, Note_on_c, 0, 59, 48
1, 332927, Control_c, 0, 64, 75
1, 332932, Note_on_c, 0, 62, 40
1, 332942, Control_c, 0, 64, 76
1, 332961, Note_off_c, 0, 32, 41
1, 332972, Control_c, 0, 64, 77
1, 332976, Note_off_c, 0, 44, 53
1, 333025, Note_off_c, 0, 62, 59
1, 333041, Note_off_c, 0, 64, 57
1, 333088, Note_off_c, 0, 59, 27
1, 333150, Control_c, 0, 64, 76
1, 333208, Control_c, 0, 64, 76
1, 333208, Control_c, 0, 67, 97
1, 333253, Control_c, 0, 64, 75
1, 333282, Control_c, 0, 67, 97
1, 333297, Control_c, 0, 64, 75
1, 333342, Control_c, 0, 64, 74
1, 333357, Control_c, 0, 64, 73
1, 333371, Control_c, 0, 64, 71
1, 333386, Control_c, 0, 64, 69
1, 333386, Control_c, 0, 67, 96
1, 333401, Control_c, 0, 64, 66
1, 333416, Control_c, 0, 64, 65
1, 333419, Note_on_c, 0, 61, 43
1, 333420, Note_on_c, 0, 64, 42
1, 333438, Control_c, 0, 64, 64
1, 333443, Note_on_c, 0, 45, 28
1, 333449, Note_on_c, 0, 33, 29
1, 333452, Control_c, 0, 64, 63
1, 333467, Control_c, 0, 64, 61
1, 333482, Control_c, 0, 64, 57
1, 333482, Control_c, 0, 67, 96
1, 333497, Control_c, 0, 64, 50
1, 333512, Control_c, 0, 64, 34
1, 333526, Control_c, 0, 64, 0
1, 333838, Control_c, 0, 67, 95
1, 333883, Control_c, 0, 64, 38
1, 333898, Control_c, 0, 64, 49
1, 333912, Control_c, 0, 64, 54
1, 333927, Control_c, 0, 64, 57
1, 333942, Control_c, 0, 64, 59
1, 333956, Control_c, 0, 64, 61
1, 333971, Control_c, 0, 64, 62
1, 333986, Control_c, 0, 64, 63
1, 334001, Control_c, 0, 64, 64
1, 334016, Control_c, 0, 64, 65
1, 334016, Control_c, 0, 67, 95
1, 334030, Control_c, 0, 64, 66
1, 334045, Control_c, 0, 64, 67
1, 334060, Control_c, 0, 64, 68
1, 334075, Control_c, 0, 64, 69
1, 334090, Control_c, 0, 64, 71
1, 334105, Control_c, 0, 64, 72
1, 334120, Control_c, 0, 64, 74
1, 334135, Control_c, 0, 64, 75
1, 334135, Control_c, 0, 67, 94
1, 334149, Control_c, 0, 64, 77
1, 334164, Control_c, 0, 64, 78
1, 334186, Control_c, 0, 64, 79
1, 334201, Control_c, 0, 64, 80
1, 334216, Control_c, 0, 64, 81
1, 334230, Control_c, 0, 64, 82
1, 334230, Control_c, 0, 67, 94
1, 334245, Control_c, 0, 64, 83
1, 334275, Control_c, 0, 67, 93
1, 334328, Note_off_c, 0, 33, 40
1, 334349, Control_c, 0, 67, 93
1, 334367, Note_off_c, 0, 64, 32
1, 334432, Note_off_c, 0, 61, 34
1, 334558, Control_c, 0, 64, 82
1, 334588, Note_off_c, 0, 45, 36
1, 334632, Control_c, 0, 64, 82
1, 334661, Control_c, 0, 67, 92
1, 334676, Control_c, 0, 64, 81
1, 334706, Control_c, 0, 64, 81
1, 334750, Control_c, 0, 64, 80
1, 334765, Control_c, 0, 64, 79
1, 334779, Control_c, 0, 64, 78
1, 334794, Control_c, 0, 64, 77
1, 334809, Control_c, 0, 64, 76
1, 334824, Control_c, 0, 64, 74
1, 334839, Control_c, 0, 64, 72
1, 334853, Control_c, 0, 64, 69
1, 334868, Control_c, 0, 64, 66
1, 334883, Control_c, 0, 64, 62
1, 334889, Note_on_c, 0, 64, 47
1, 334898, Control_c, 0, 64, 54
1, 334911, Note_on_c, 0, 60, 37
1, 334913, Control_c, 0, 64, 51
1, 334927, Note_on_c, 0, 45, 16
1, 334935, Control_c, 0, 64, 53
1, 334965, Control_c, 0, 64, 52
1, 334979, Control_c, 0, 67, 92
1, 335009, Control_c, 0, 64, 54
1, 335024, Control_c, 0, 64, 58
1, 335024, Control_c, 0, 67, 91
1, 335039, Control_c, 0, 64, 61
1, 335053, Control_c, 0, 64, 64
1, 335068, Control_c, 0, 64, 67
1, 335083, Control_c, 0, 64, 71
1, 335098, Control_c, 0, 64, 74
1, 335098, Control_c, 0, 67, 91
1, 335113, Control_c, 0, 64, 77
1, 335127, Control_c, 0, 64, 79
1, 335142, Control_c, 0, 64, 81
1, 335157, Control_c, 0, 64, 81
1, 335172, Control_c, 0, 64, 82
1, 335172, Control_c, 0, 67, 91
1, 335176, Note_off_c, 0, 60, 57
1, 335199, Note_off_c, 0, 64, 58
1, 335202, Control_c, 0, 67, 92
1, 335217, Control_c, 0, 67, 92
1, 335265, Note_off_c, 0, 45, 42
1, 335276, Control_c, 0, 67, 93
1, 335366, Control_c, 0, 67, 92
1, 335410, Control_c, 0, 67, 92
1, 335425, Control_c, 0, 67, 91
1, 335484, Note_on_c, 0, 66, 70
1, 335506, Note_on_c, 0, 64, 55
1, 335507, Note_on_c, 0, 60, 50
1, 335514, Control_c, 0, 67, 91
1, 335524, Note_on_c, 0, 45, 36
1, 335543, Control_c, 0, 64, 81
1, 335573, Control_c, 0, 67, 90
1, 335684, Control_c, 0, 67, 90
1, 335726, Note_off_c, 0, 45, 49
1, 335767, Note_off_c, 0, 60, 58
1, 335800, Note_off_c, 0, 64, 54
1, 335862, Control_c, 0, 67, 90
1, 335876, Note_off_c, 0, 66, 57
1, 335921, Control_c, 0, 67, 91
1, 335965, Control_c, 0, 64, 81
1, 336011, Control_c, 0, 64, 80
1, 336040, Control_c, 0, 64, 79
1, 336055, Control_c, 0, 64, 79
1, 336070, Control_c, 0, 64, 78
1, 336085, Control_c, 0, 64, 77
1, 336099, Control_c, 0, 64, 76
1, 336114, Control_c, 0, 64, 74
1, 336122, Note_on_c, 0, 67, 72
1, 336129, Control_c, 0, 64, 72
1, 336142, Note_on_c, 0, 64, 56
1, 336144, Control_c, 0, 64, 69
1, 336144, Control_c, 0, 67, 90
1, 336145, Note_on_c, 0, 59, 38
1, 336156, Note_on_c, 0, 47, 35
1, 336159, Control_c, 0, 64, 66
1, 336173, Control_c, 0, 64, 62
1, 336188, Control_c, 0, 64, 55
1, 336203, Control_c, 0, 64, 43
1, 336203, Control_c, 0, 67, 90
1, 336218, Control_c, 0, 64, 34
1, 336233, Control_c, 0, 64, 33
1, 336263, Control_c, 0, 67, 89
1, 336293, Control_c, 0, 67, 89
1, 336307, Control_c, 0, 64, 37
1, 336322, Control_c, 0, 64, 43
1, 336337, Control_c, 0, 64, 50
1, 336351, Control_c, 0, 64, 55
1, 336351, Control_c, 0, 67, 89
1, 336366, Control_c, 0, 64, 58
1, 336366, Control_c, 0, 67, 90
1, 336381, Control_c, 0, 64, 61
1, 336396, Control_c, 0, 64, 62
1, 336396, Control_c, 0, 67, 90
1, 336411, Control_c, 0, 64, 63
1, 336411, Control_c, 0, 67, 91
1, 336433, Control_c, 0, 64, 64
1, 336433, Control_c, 0, 67, 91
1, 336448, Control_c, 0, 64, 65
1, 336448, Control_c, 0, 67, 93
1, 336463, Control_c, 0, 64, 65
1, 336463, Control_c, 0, 67, 94
1, 336478, Control_c, 0, 67, 95
1, 336492, Control_c, 0, 67, 95
1, 336507, Control_c, 0, 67, 96
1, 336522, Control_c, 0, 67, 97
1, 336537, Control_c, 0, 64, 65
1, 336537, Control_c, 0, 67, 97
1, 336566, Control_c, 0, 64, 64
1, 336596, Control_c, 0, 64, 64
1, 336596, Control_c, 0, 67, 98
1, 336625, Control_c, 0, 64, 63
1, 336640, Control_c, 0, 64, 62
1, 336655, Control_c, 0, 64, 61
1, 336655, Control_c, 0, 67, 98
1, 336670, Control_c, 0, 64, 60
1, 336678, Note_on_c, 0, 57, 42
1, 336680, Note_off_c, 0, 67, 56
1, 336684, Note_on_c, 0, 66, 66
1, 336685, Control_c, 0, 64, 61
1, 336699, Control_c, 0, 64, 62
1, 336711, Note_on_c, 0, 63, 40
1, 336711, Note_off_c, 0, 64, 63
1, 336714, Control_c, 0, 64, 63
1, 336725, Note_off_c, 0, 59, 36
1, 336729, Control_c, 0, 64, 64
1, 336744, Control_c, 0, 64, 66
1, 336758, Control_c, 0, 64, 68
1, 336773, Control_c, 0, 64, 70
1, 336788, Control_c, 0, 64, 73
1, 336788, Control_c, 0, 67, 98
1, 336804, Control_c, 0, 64, 76
1, 336804, Control_c, 0, 67, 97
1, 336819, Control_c, 0, 64, 78
1, 336834, Control_c, 0, 64, 79
1, 336834, Control_c, 0, 67, 97
1, 336848, Control_c, 0, 64, 80
1, 336863, Control_c, 0, 67, 96
1, 336878, Control_c, 0, 67, 95
1, 336908, Control_c, 0, 67, 95
1, 336937, Control_c, 0, 67, 94
1, 336947, Note_on_c, 0, 64, 74
1, 336966, Control_c, 0, 67, 94
1, 336967, Note_off_c, 0, 66, 56
1, 336968, Note_on_c, 0, 55, 51
1, 336978, Note_off_c, 0, 57, 59
1, 336981, Control_c, 0, 67, 93
1, 337007, Note_off_c, 0, 63, 41
1, 337026, Control_c, 0, 67, 93
1, 337056, Control_c, 0, 67, 92
1, 337071, Control_c, 0, 67, 92
1, 337086, Control_c, 0, 67, 91
1, 337093, Note_off_c, 0, 64, 56
1, 337197, Control_c, 0, 67, 91
1, 337242, Control_c, 0, 64, 79
1, 337242, Control_c, 0, 67, 90
1, 337256, Control_c, 0, 67, 90
1, 337286, Control_c, 0, 64, 79
1, 337316, Control_c, 0, 64, 78
1, 337316, Control_c, 0, 67, 89
1, 337330, Control_c, 0, 67, 89
1, 337345, Control_c, 0, 64, 78
1, 337345, Control_c, 0, 67, 88
1, 337360, Control_c, 0, 64, 77
1, 337361, Note_on_c, 0, 71, 70
1, 337375, Note_on_c, 0, 64, 51
1, 337375, Control_c, 0, 64, 77
1, 337387, Note_on_c, 0, 54, 42
1, 337390, Control_c, 0, 64, 75
1, 337405, Control_c, 0, 64, 73
1, 337405, Control_c, 0, 67, 88
1, 337420, Control_c, 0, 64, 71
1, 337434, Control_c, 0, 64, 67
1, 337449, Control_c, 0, 64, 64
1, 337464, Control_c, 0, 64, 56
1, 337479, Control_c, 0, 64, 41
1, 337482, Note_off_c, 0, 55, 30
1, 337494, Control_c, 0, 64, 30
1, 337508, Control_c, 0, 64, 29
1, 337553, Control_c, 0, 64, 27
1, 337568, Control_c, 0, 64, 26
1, 337582, Control_c, 0, 64, 21
1, 337598, Control_c, 0, 64, 13
1, 337613, Control_c, 0, 64, 0
1, 337613, Control_c, 0, 67, 88
1, 337986, Note_on_c, 0, 63, 43
1, 337986, Note_off_c, 0, 64, 58
1, 337990, Control_c, 0, 67, 89
1, 337995, Note_on_c, 0, 59, 39
1, 338056, Note_off_c, 0, 54, 33
1, 338093, Control_c, 0, 67, 88
1, 338183, Control_c, 0, 67, 88
1, 338242, Control_c, 0, 67, 87
1, 338259, Note_on_c, 0, 69, 58
1, 338271, Control_c, 0, 67, 87
1, 338330, Control_c, 0, 64, 29
1, 338345, Control_c, 0, 64, 60
1, 338345, Control_c, 0, 67, 86
1, 338360, Control_c, 0, 64, 65
1, 338375, Control_c, 0, 64, 67
1, 338390, Control_c, 0, 64, 70
1, 338406, Control_c, 0, 64, 72
1, 338420, Control_c, 0, 64, 74
1, 338428, Note_off_c, 0, 69, 62
1, 338435, Control_c, 0, 64, 75
1, 338450, Control_c, 0, 64, 76
1, 338465, Control_c, 0, 64, 76
1, 338494, Control_c, 0, 67, 86
1, 338553, Control_c, 0, 64, 76
1, 338568, Control_c, 0, 64, 75
1, 338583, Control_c, 0, 64, 75
1, 338598, Control_c, 0, 64, 74
1, 338613, Control_c, 0, 64, 73
1, 338620, Note_on_c, 0, 69, 61
1, 338627, Control_c, 0, 64, 71
1, 338642, Control_c, 0, 64, 68
1, 338657, Control_c, 0, 64, 65
1, 338674, Note_off_c, 0, 71, 29
1, 338680, Control_c, 0, 64, 58
1, 338695, Control_c, 0, 64, 38
1, 338709, Control_c, 0, 64, 0
1, 338724, Control_c, 0, 67, 85
1, 338768, Control_c, 0, 67, 85
1, 338783, Control_c, 0, 64, 42
1, 338798, Control_c, 0, 64, 59
1, 338813, Control_c, 0, 64, 65
1, 338813, Control_c, 0, 67, 83
1, 338827, Control_c, 0, 64, 68
1, 338827, Control_c, 0, 67, 81
1, 338842, Control_c, 0, 64, 71
1, 338842, Control_c, 0, 67, 80
1, 338857, Control_c, 0, 64, 72
1, 338857, Control_c, 0, 67, 80
1, 338872, Control_c, 0, 64, 74
1, 338887, Control_c, 0, 64, 74
1, 338900, Note_off_c, 0, 63, 56
1, 338946, Control_c, 0, 67, 80
1, 338976, Control_c, 0, 67, 81
1, 338990, Control_c, 0, 67, 81
1, 339035, Control_c, 0, 67, 82
1, 339065, Control_c, 0, 67, 82
1, 339124, Control_c, 0, 64, 74
1, 339139, Control_c, 0, 64, 73
1, 339153, Control_c, 0, 64, 72
1, 339168, Control_c, 0, 64, 72
1, 339183, Control_c, 0, 64, 71
1, 339199, Control_c, 0, 64, 70
1, 339212, Note_off_c, 0, 69, 50
1, 339214, Control_c, 0, 64, 69
1, 339229, Control_c, 0, 64, 67
1, 339243, Control_c, 0, 64, 65
1, 339257, Note_on_c, 0, 67, 39
1, 339258, Control_c, 0, 64, 61
1, 339265, Note_on_c, 0, 64, 30
1, 339271, Note_on_c, 0, 52, 21
1, 339273, Control_c, 0, 64, 53
1, 339288, Control_c, 0, 64, 47
1, 339303, Control_c, 0, 64, 43
1, 339317, Control_c, 0, 64, 41
1, 339332, Control_c, 0, 64, 36
1, 339347, Control_c, 0, 64, 28
1, 339362, Control_c, 0, 64, 0
1, 339406, Control_c, 0, 64, 16
1, 339429, Control_c, 0, 64, 41
1, 339444, Control_c, 0, 64, 56
1, 339458, Control_c, 0, 64, 64
1, 339473, Control_c, 0, 64, 67
1, 339488, Control_c, 0, 64, 71
1, 339488, Control_c, 0, 67, 82
1, 339503, Control_c, 0, 64, 76
1, 339508, Note_off_c, 0, 64, 53
1, 339518, Control_c, 0, 64, 79
1, 339532, Control_c, 0, 64, 81
1, 339545, Note_off_c, 0, 47, 44
1, 339547, Control_c, 0, 64, 82
1, 339562, Control_c, 0, 64, 83
1, 339576, Control_c, 0, 64, 83
1, 339589, Note_off_c, 0, 59, 39
1, 339593, Note_off_c, 0, 67, 37
1, 339783, Control_c, 0, 64, 83
1, 339813, Control_c, 0, 64, 82
1, 339828, Control_c, 0, 64, 82
1, 339843, Control_c, 0, 64, 81
1, 339858, Control_c, 0, 64, 81
1, 339873, Control_c, 0, 64, 79
1, 339888, Control_c, 0, 64, 78
1, 339900, Note_on_c, 0, 67, 59
1, 339902, Control_c, 0, 64, 76
1, 339915, Note_on_c, 0, 63, 48
1, 339917, Control_c, 0, 64, 73
1, 339919, Note_on_c, 0, 60, 37
1, 339921, Note_on_c, 0, 48, 38
1, 339932, Control_c, 0, 64, 69
1, 339947, Control_c, 0, 64, 64
1, 339962, Control_c, 0, 64, 51
1, 339970, Note_off_c, 0, 52, 33
1, 339976, Control_c, 0, 64, 0
1, 340052, Control_c, 0, 64, 35
1, 340052, Control_c, 0, 67, 81
1, 340066, Control_c, 0, 64, 57
1, 340081, Control_c, 0, 64, 65
1, 340096, Control_c, 0, 64, 69
1, 340111, Control_c, 0, 64, 75
1, 340126, Control_c, 0, 64, 80
1, 340140, Control_c, 0, 64, 83
1, 340155, Control_c, 0, 64, 86
1, 340177, Control_c, 0, 64, 87
1, 340193, Control_c, 0, 64, 88
1, 340193, Control_c, 0, 67, 82
1, 340207, Note_off_c, 0, 63, 60
1, 340207, Control_c, 0, 64, 89
1, 340207, Control_c, 0, 67, 82
1, 340234, Note_off_c, 0, 60, 56
1, 340237, Control_c, 0, 67, 83
1, 340252, Control_c, 0, 67, 83
1, 340264, Note_off_c, 0, 67, 52
1, 340267, Control_c, 0, 67, 84
1, 340275, Note_off_c, 0, 48, 41
1, 340326, Control_c, 0, 67, 84
1, 340386, Control_c, 0, 67, 84
1, 340430, Control_c, 0, 67, 83
1, 340460, Control_c, 0, 67, 83
1, 340479, Note_on_c, 0, 69, 73
1, 340498, Note_on_c, 0, 48, 44
1, 340503, Note_on_c, 0, 63, 63
1, 340504, Control_c, 0, 64, 88
1, 340511, Note_on_c, 0, 60, 44
1, 340518, Control_c, 0, 67, 82
1, 340578, Control_c, 0, 64, 88
1, 340607, Control_c, 0, 67, 82
1, 340637, Control_c, 0, 64, 87
1, 340696, Control_c, 0, 67, 82
1, 340798, Note_off_c, 0, 63, 58
1, 340801, Control_c, 0, 67, 83
1, 340802, Note_off_c, 0, 60, 55
1, 340816, Note_off_c, 0, 69, 60
1, 340827, Note_off_c, 0, 48, 41
1, 340830, Control_c, 0, 64, 87
1, 340830, Control_c, 0, 67, 83
1, 340942, Control_c, 0, 64, 86
1, 340956, Control_c, 0, 64, 86
1, 340986, Control_c, 0, 64, 85
1, 341045, Control_c, 0, 64, 85
1, 341060, Control_c, 0, 64, 84
1, 341075, Control_c, 0, 64, 84
1, 341090, Control_c, 0, 64, 83
1, 341092, Note_on_c, 0, 71, 77
1, 341104, Control_c, 0, 64, 82
1, 341113, Note_on_c, 0, 62, 64
1, 341113, Note_on_c, 0, 50, 47
1, 341119, Control_c, 0, 64, 80
1, 341119, Control_c, 0, 67, 83
1, 341122, Note_on_c, 0, 55, 54
1, 341134, Control_c, 0, 64, 78
1, 341149, Control_c, 0, 64, 76
1, 341164, Control_c, 0, 64, 72
1, 341178, Control_c, 0, 64, 68
1, 341193, Control_c, 0, 64, 63
1, 341208, Control_c, 0, 64, 46
1, 341208, Control_c, 0, 67, 82
1, 341223, Control_c, 0, 64, 0
1, 341297, Control_c, 0, 67, 82
1, 341341, Control_c, 0, 64, 38
1, 341356, Control_c, 0, 64, 59
1, 341371, Control_c, 0, 64, 64
1, 341386, Control_c, 0, 64, 65
1, 341401, Control_c, 0, 64, 67
1, 341401, Control_c, 0, 67, 82
1, 341415, Control_c, 0, 64, 68
1, 341430, Control_c, 0, 64, 69
1, 341430, Control_c, 0, 67, 83
1, 341445, Control_c, 0, 64, 70
1, 341445, Control_c, 0, 67, 83
1, 341460, Control_c, 0, 64, 71
1, 341519, Control_c, 0, 67, 84
1, 341534, Control_c, 0, 64, 70
1, 341534, Control_c, 0, 67, 84
1, 341563, Control_c, 0, 64, 70
1, 341563, Control_c, 0, 67, 85
1, 341594, Control_c, 0, 64, 69
1, 341609, Control_c, 0, 64, 68
1, 341624, Control_c, 0, 64, 67
1, 341638, Control_c, 0, 64, 64
1, 341653, Control_c, 0, 64, 60
1, 341676, Control_c, 0, 64, 47
1, 341682, Note_on_c, 0, 69, 78
1, 341686, Note_on_c, 0, 57, 59
1, 341690, Control_c, 0, 64, 27
1, 341705, Control_c, 0, 64, 29
1, 341719, Control_c, 0, 64, 42
1, 341722, Note_off_c, 0, 55, 61
1, 341722, Note_off_c, 0, 71, 58
1, 341734, Control_c, 0, 64, 53
1, 341749, Control_c, 0, 64, 61
1, 341764, Control_c, 0, 64, 64
1, 341778, Control_c, 0, 64, 67
1, 341793, Control_c, 0, 64, 70
1, 341793, Control_c, 0, 67, 84
1, 341808, Control_c, 0, 64, 73
1, 341808, Control_c, 0, 67, 84
1, 341823, Control_c, 0, 64, 75
1, 341838, Control_c, 0, 64, 77
1, 341838, Control_c, 0, 67, 83
1, 341852, Control_c, 0, 64, 78
1, 341867, Control_c, 0, 64, 78
1, 341867, Control_c, 0, 67, 83
1, 341882, Control_c, 0, 67, 82
1, 341912, Control_c, 0, 67, 82
1, 341954, Note_on_c, 0, 67, 82
1, 341971, Control_c, 0, 67, 81
1, 341971, Note_on_c, 0, 59, 55
1, 341981, Note_off_c, 0, 69, 64
1, 341987, Note_off_c, 0, 57, 60
1, 342075, Control_c, 0, 64, 78
1, 342075, Control_c, 0, 67, 81
1, 342105, Control_c, 0, 64, 77
1, 342105, Control_c, 0, 67, 80
1, 342134, Control_c, 0, 67, 80
1, 342149, Note_off_c, 0, 62, 52
1, 342149, Control_c, 0, 67, 79
1, 342163, Control_c, 0, 64, 77
1, 342178, Control_c, 0, 64, 76
1, 342178, Control_c, 0, 67, 79
1, 342193, Note_off_c, 0, 59, 55
1, 342193, Control_c, 0, 64, 76
1, 342208, Control_c, 0, 64, 75
1, 342208, Control_c, 0, 67, 78
1, 342223, Control_c, 0, 64, 74
1, 342223, Control_c, 0, 67, 76
1, 342237, Control_c, 0, 64, 73
1, 342237, Control_c, 0, 67, 73
1, 342252, Control_c, 0, 64, 72
1, 342252, Control_c, 0, 67, 71
1, 342267, Control_c, 0, 64, 69
1, 342267, Control_c, 0, 67, 70
1, 342282, Control_c, 0, 64, 67
1, 342282, Control_c, 0, 67, 69
1, 342296, Control_c, 0, 64, 63
1, 342299, Note_on_c, 0, 74, 76
1, 342311, Control_c, 0, 64, 56
1, 342315, Note_on_c, 0, 66, 65
1, 342316, Note_on_c, 0, 60, 60
1, 342323, Note_off_c, 0, 67, 55
1, 342326, Control_c, 0, 64, 40
1, 342326, Control_c, 0, 67, 69
1, 342341, Control_c, 0, 64, 0
1, 342356, Control_c, 0, 67, 68
1, 342371, Control_c, 0, 67, 68
1, 342401, Control_c, 0, 67, 67
1, 342424, Control_c, 0, 67, 66
1, 342439, Control_c, 0, 67, 66
1, 342454, Control_c, 0, 67, 65
1, 342468, Control_c, 0, 67, 65
1, 342483, Control_c, 0, 67, 64
1, 342498, Control_c, 0, 64, 44
1, 342498, Control_c, 0, 67, 62
1, 342513, Control_c, 0, 64, 62
1, 342513, Control_c, 0, 67, 61
1, 342527, Control_c, 0, 64, 66
1, 342527, Control_c, 0, 67, 60
1, 342542, Control_c, 0, 64, 69
1, 342542, Control_c, 0, 67, 58
1, 342557, Control_c, 0, 64, 73
1, 342557, Control_c, 0, 67, 57
1, 342572, Control_c, 0, 64, 76
1, 342572, Control_c, 0, 67, 56
1, 342587, Control_c, 0, 64, 80
1, 342587, Control_c, 0, 67, 55
1, 342601, Control_c, 0, 64, 83
1, 342601, Control_c, 0, 67, 54
1, 342616, Control_c, 0, 64, 85
1, 342616, Control_c, 0, 67, 53
1, 342631, Control_c, 0, 64, 86
1, 342631, Control_c, 0, 67, 51
1, 342646, Control_c, 0, 64, 87
1, 342646, Control_c, 0, 67, 49
1, 342661, Control_c, 0, 64, 88
1, 342661, Control_c, 0, 67, 48
1, 342675, Control_c, 0, 64, 89
1, 342675, Control_c, 0, 67, 46
1, 342690, Control_c, 0, 64, 89
1, 342690, Control_c, 0, 67, 45
1, 342693, Note_off_c, 0, 50, 28
1, 342705, Control_c, 0, 67, 44
1, 342720, Control_c, 0, 67, 43
1, 342734, Control_c, 0, 67, 42
1, 342749, Control_c, 0, 67, 41
1, 342764, Control_c, 0, 67, 40
1, 342779, Control_c, 0, 67, 39
1, 342794, Control_c, 0, 67, 38
1, 342839, Control_c, 0, 67, 38
1, 342872, Note_off_c, 0, 60, 53
1, 342883, Control_c, 0, 67, 37
1, 342898, Control_c, 0, 64, 89
1, 342904, Note_on_c, 0, 57, 70
1, 342911, Note_on_c, 0, 50, 67
1, 342912, Control_c, 0, 64, 88
1, 342912, Control_c, 0, 67, 37
1, 342927, Control_c, 0, 64, 87
1, 342927, Control_c, 0, 67, 35
1, 342942, Control_c, 0, 64, 85
1, 342942, Control_c, 0, 67, 34
1, 342957, Control_c, 0, 64, 83
1, 342957, Control_c, 0, 67, 33
1, 342972, Control_c, 0, 64, 80
1, 342972, Control_c, 0, 67, 32
1, 342986, Control_c, 0, 64, 77
1, 342986, Control_c, 0, 67, 30
1, 343001, Control_c, 0, 64, 73
1, 343001, Control_c, 0, 67, 29
1, 343016, Control_c, 0, 64, 67
1, 343016, Control_c, 0, 67, 26
1, 343031, Control_c, 0, 64, 56
1, 343031, Control_c, 0, 67, 24
1, 343046, Control_c, 0, 64, 36
1, 343046, Control_c, 0, 67, 19
1, 343060, Control_c, 0, 64, 45
1, 343060, Control_c, 0, 67, 15
1, 343075, Control_c, 0, 64, 56
1, 343075, Control_c, 0, 67, 10
1, 343090, Control_c, 0, 64, 62
1, 343090, Control_c, 0, 67, 0
1, 343105, Control_c, 0, 64, 65
1, 343119, Control_c, 0, 64, 67
1, 343134, Control_c, 0, 64, 71
1, 343149, Control_c, 0, 64, 75
1, 343172, Control_c, 0, 64, 79
1, 343182, Note_off_c, 0, 74, 58
1, 343187, Control_c, 0, 64, 83
1, 343202, Control_c, 0, 64, 87
1, 343217, Control_c, 0, 64, 90
1, 343217, Note_on_c, 0, 72, 83
1, 343232, Control_c, 0, 64, 93
1, 343247, Control_c, 0, 64, 95
1, 343262, Control_c, 0, 64, 96
1, 343277, Control_c, 0, 64, 97
1, 343291, Control_c, 0, 64, 97
1, 343321, Control_c, 0, 64, 98
1, 343405, Note_off_c, 0, 66, 52
1, 343413, Note_off_c, 0, 72, 59
1, 343602, Control_c, 0, 64, 97
1, 343632, Control_c, 0, 64, 97
1, 343647, Control_c, 0, 64, 96
1, 343662, Control_c, 0, 64, 96
1, 343676, Control_c, 0, 64, 95
1, 343691, Control_c, 0, 64, 94
1, 343706, Control_c, 0, 64, 93
1, 343715, Note_on_c, 0, 72, 81
1, 343721, Control_c, 0, 64, 92
1, 343725, Note_on_c, 0, 69, 76
1, 343727, Note_on_c, 0, 66, 73
1, 343733, Note_on_c, 0, 51, 62
1, 343736, Control_c, 0, 64, 90
1, 343750, Control_c, 0, 64, 87
1, 343765, Control_c, 0, 64, 82
1, 343775, Note_off_c, 0, 57, 57
1, 343780, Control_c, 0, 64, 78
1, 343795, Control_c, 0, 64, 70
1, 343803, Note_off_c, 0, 50, 35
1, 343809, Control_c, 0, 64, 62
1, 343824, Control_c, 0, 64, 0
1, 344415, Note_on_c, 0, 71, 68
1, 344415, Note_off_c, 0, 72, 50
1, 344499, Control_c, 0, 64, 46
1, 344514, Control_c, 0, 64, 63
1, 344529, Control_c, 0, 64, 67
1, 344544, Control_c, 0, 64, 70
1, 344559, Control_c, 0, 64, 75
1, 344574, Control_c, 0, 64, 78
1, 344589, Control_c, 0, 64, 81
1, 344603, Control_c, 0, 64, 84
1, 344618, Control_c, 0, 64, 86
1, 344633, Control_c, 0, 64, 87
1, 344648, Control_c, 0, 64, 88
1, 344670, Control_c, 0, 64, 89
1, 344696, Note_off_c, 0, 69, 59
1, 344696, Note_off_c, 0, 71, 59
1, 344740, Note_off_c, 0, 66, 57
1, 344863, Note_off_c, 0, 51, 54
1, 344997, Control_c, 0, 64, 88
1, 345012, Control_c, 0, 64, 88
1, 345027, Control_c, 0, 64, 87
1, 345042, Control_c, 0, 64, 86
1, 345057, Control_c, 0, 64, 85
1, 345071, Control_c, 0, 64, 83
1, 345073, Note_on_c, 0, 71, 73
1, 345075, Note_on_c, 0, 67, 72
1, 345076, Note_on_c, 0, 64, 69
1, 345083, Note_on_c, 0, 52, 60
1, 345086, Control_c, 0, 64, 81
1, 345092, Note_on_c, 0, 40, 59
1, 345101, Control_c, 0, 64, 79
1, 345109, Note_on_c, 0, 72, 8
1, 345110, Note_off_c, 0, 72, 127
1, 345115, Control_c, 0, 64, 76
1, 345130, Control_c, 0, 64, 71
1, 345145, Control_c, 0, 64, 65
1, 345160, Control_c, 0, 64, 47
1, 345161, Poly_aftertouch_c, 0, 72, 0
1, 345175, Control_c, 0, 64, 0
1, 345396, Control_c, 0, 64, 53
1, 345419, Control_c, 0, 64, 64
1, 345432, Control_c, 0, 64, 68
1, 345447, Control_c, 0, 64, 70
1, 345462, Control_c, 0, 64, 72
1, 345477, Control_c, 0, 64, 74
1, 345492, Control_c, 0, 64, 77
1, 345507, Control_c, 0, 64, 81
1, 345521, Control_c, 0, 64, 84
1, 345536, Control_c, 0, 64, 86
1, 345551, Control_c, 0, 64, 87
1, 345566, Control_c, 0, 64, 89
1, 345581, Control_c, 0, 64, 91
1, 345596, Control_c, 0, 64, 93
1, 345611, Control_c, 0, 64, 94
1, 345626, Control_c, 0, 64, 95
1, 345647, Note_on_c, 0, 62, 81
1, 345676, Note_off_c, 0, 52, 56
1, 345700, Control_c, 0, 64, 96
1, 345881, Note_off_c, 0, 40, 40
1, 345927, Poly_aftertouch_c, 0, 45, 127
1, 345978, Note_off_c, 0, 62, 56
1, 346037, Poly_aftertouch_c, 0, 45, 0
1, 346166, Control_c, 0, 64, 95
1, 346196, Control_c, 0, 64, 95
1, 346210, Control_c, 0, 64, 94
1, 346225, Control_c, 0, 64, 94
1, 346240, Control_c, 0, 64, 93
1, 346255, Control_c, 0, 64, 93
1, 346270, Control_c, 0, 64, 92
1, 346285, Control_c, 0, 64, 92
1, 346300, Control_c, 0, 64, 91
1, 346315, Control_c, 0, 64, 90
1, 346329, Control_c, 0, 64, 89
1, 346333, Note_on_c, 0, 61, 70
1, 346344, Control_c, 0, 64, 88
1, 346353, Note_on_c, 0, 45, 64
1, 346356, Note_off_c, 0, 64, 60
1, 346359, Control_c, 0, 64, 87
1, 346364, Note_on_c, 0, 33, 58
1, 346374, Control_c, 0, 64, 85
1, 346389, Control_c, 0, 64, 82
1, 346404, Control_c, 0, 64, 79
1, 346419, Control_c, 0, 64, 75
1, 346434, Control_c, 0, 64, 69
1, 346449, Control_c, 0, 64, 63
1, 346464, Control_c, 0, 64, 30
1, 346478, Control_c, 0, 64, 0
1, 346915, Note_off_c, 0, 71, 54
1, 346917, Note_on_c, 0, 69, 75
1, 346931, Control_c, 0, 64, 36
1, 346946, Control_c, 0, 64, 52
1, 346960, Control_c, 0, 64, 59
1, 346975, Control_c, 0, 64, 62
1, 346990, Control_c, 0, 64, 64
1, 346991, Note_off_c, 0, 67, 45
1, 347005, Control_c, 0, 64, 65
1, 347020, Control_c, 0, 64, 67
1, 347034, Control_c, 0, 64, 68
1, 347049, Control_c, 0, 64, 71
1, 347064, Control_c, 0, 64, 72
1, 347079, Control_c, 0, 64, 74
1, 347093, Control_c, 0, 64, 76
1, 347108, Control_c, 0, 64, 77
1, 347123, Control_c, 0, 64, 79
1, 347138, Control_c, 0, 64, 80
1, 347153, Control_c, 0, 64, 81
1, 347167, Control_c, 0, 64, 81
1, 347183, Control_c, 0, 64, 82
1, 347198, Control_c, 0, 64, 82
1, 347213, Control_c, 0, 64, 83
1, 347228, Control_c, 0, 64, 84
1, 347243, Control_c, 0, 64, 85
1, 347257, Control_c, 0, 64, 86
1, 347272, Control_c, 0, 64, 87
1, 347287, Control_c, 0, 64, 87
1, 347302, Control_c, 0, 64, 88
1, 347316, Control_c, 0, 64, 88
1, 347331, Control_c, 0, 64, 89
1, 347346, Control_c, 0, 64, 89
1, 347361, Control_c, 0, 64, 90
1, 347376, Control_c, 0, 64, 90
1, 347406, Control_c, 0, 64, 91
1, 347450, Control_c, 0, 64, 91
1, 347487, Note_on_c, 0, 67, 79
1, 347529, Note_off_c, 0, 69, 62
1, 347539, Control_c, 0, 64, 92
1, 347831, Note_off_c, 0, 61, 48
1, 348036, Control_c, 0, 64, 91
1, 348066, Control_c, 0, 64, 91
1, 348080, Control_c, 0, 64, 90
1, 348110, Control_c, 0, 64, 90
1, 348125, Control_c, 0, 64, 89
1, 348139, Control_c, 0, 64, 88
1, 348154, Control_c, 0, 64, 88
1, 348169, Control_c, 0, 64, 86
1, 348184, Control_c, 0, 64, 85
1, 348199, Control_c, 0, 64, 84
1, 348213, Control_c, 0, 64, 84
1, 348228, Control_c, 0, 64, 83
1, 348258, Control_c, 0, 64, 83
1, 348267, Note_on_c, 0, 66, 76
1, 348270, Note_on_c, 0, 62, 66
1, 348273, Control_c, 0, 64, 82
1, 348288, Control_c, 0, 64, 80
1, 348289, Note_off_c, 0, 67, 38
1, 348303, Control_c, 0, 64, 76
1, 348318, Control_c, 0, 64, 72
1, 348332, Control_c, 0, 64, 66
1, 348347, Control_c, 0, 64, 53
1, 348362, Control_c, 0, 64, 0
1, 348709, Control_c, 0, 64, 50
1, 348724, Control_c, 0, 64, 60
1, 348738, Control_c, 0, 64, 63
1, 348753, Control_c, 0, 64, 64
1, 348768, Control_c, 0, 64, 65
1, 348784, Control_c, 0, 64, 66
1, 348799, Control_c, 0, 64, 68
1, 348814, Control_c, 0, 64, 70
1, 348828, Control_c, 0, 64, 72
1, 348843, Control_c, 0, 64, 74
1, 348858, Control_c, 0, 64, 76
1, 348873, Control_c, 0, 64, 78
1, 348888, Control_c, 0, 64, 80
1, 348902, Control_c, 0, 64, 81
1, 348917, Control_c, 0, 64, 83
1, 348932, Control_c, 0, 64, 84
1, 348947, Control_c, 0, 64, 85
1, 348962, Control_c, 0, 64, 86
1, 348976, Control_c, 0, 64, 87
1, 348991, Control_c, 0, 64, 87
1, 349145, Note_off_c, 0, 45, 59
1, 349189, Note_off_c, 0, 33, 38
1, 349280, Control_c, 0, 64, 87
1, 349325, Control_c, 0, 64, 86
1, 349340, Control_c, 0, 64, 86
1, 349369, Control_c, 0, 64, 85
1, 349384, Control_c, 0, 64, 85
1, 349394, Note_off_c, 0, 62, 33
1, 349399, Control_c, 0, 64, 84
1, 349414, Control_c, 0, 64, 83
1, 349429, Control_c, 0, 64, 82
1, 349441, Note_on_c, 0, 67, 58
1, 349443, Control_c, 0, 64, 80
1, 349455, Note_on_c, 0, 61, 47
1, 349456, Note_on_c, 0, 46, 49
1, 349458, Control_c, 0, 64, 78
1, 349459, Note_on_c, 0, 64, 50
1, 349469, Note_on_c, 0, 34, 33
1, 349473, Control_c, 0, 64, 76
1, 349487, Control_c, 0, 64, 74
1, 349502, Control_c, 0, 64, 71
1, 349517, Control_c, 0, 64, 67
1, 349526, Note_off_c, 0, 66, 24
1, 349532, Control_c, 0, 64, 64
1, 349547, Control_c, 0, 64, 59
1, 349561, Control_c, 0, 64, 52
1, 349577, Control_c, 0, 64, 43
1, 349592, Control_c, 0, 64, 32
1, 349607, Control_c, 0, 64, 25
1, 349637, Control_c, 0, 64, 34
1, 349651, Control_c, 0, 64, 43
1, 349666, Control_c, 0, 64, 54
1, 349681, Control_c, 0, 64, 62
1, 349696, Control_c, 0, 64, 65
1, 349710, Control_c, 0, 64, 69
1, 349725, Control_c, 0, 64, 72
1, 349740, Control_c, 0, 64, 75
1, 349755, Control_c, 0, 64, 77
1, 349770, Control_c, 0, 64, 77
1, 349784, Control_c, 0, 64, 78
1, 349793, Note_off_c, 0, 34, 55
1, 349821, Note_off_c, 0, 46, 35
1, 349985, Control_c, 0, 64, 77
1, 350000, Control_c, 0, 64, 77
1, 350015, Control_c, 0, 64, 76
1, 350030, Control_c, 0, 64, 75
1, 350045, Control_c, 0, 64, 74
1, 350059, Control_c, 0, 64, 72
1, 350074, Control_c, 0, 64, 70
1, 350087, Note_on_c, 0, 59, 47
1, 350089, Control_c, 0, 64, 66
1, 350091, Note_on_c, 0, 47, 45
1, 350103, Control_c, 0, 64, 60
1, 350113, Note_on_c, 0, 35, 31
1, 350115, Note_off_c, 0, 61, 35
1, 350118, Control_c, 0, 64, 0
1, 350120, Note_off_c, 0, 64, 51
1, 350252, Control_c, 0, 64, 34
1, 350267, Control_c, 0, 64, 62
1, 350282, Control_c, 0, 64, 67
1, 350297, Control_c, 0, 64, 71
1, 350311, Control_c, 0, 64, 74
1, 350326, Control_c, 0, 64, 76
1, 350341, Control_c, 0, 64, 78
1, 350356, Control_c, 0, 64, 79
1, 350371, Control_c, 0, 64, 79
1, 350371, Control_c, 0, 67, 8
1, 350372, Note_off_c, 0, 47, 41
1, 350386, Control_c, 0, 64, 80
1, 350386, Control_c, 0, 67, 11
1, 350401, Control_c, 0, 67, 15
1, 350404, Note_off_c, 0, 67, 47
1, 350416, Control_c, 0, 67, 18
1, 350427, Note_off_c, 0, 59, 56
1, 350431, Control_c, 0, 67, 23
1, 350446, Control_c, 0, 67, 31
1, 350447, Note_off_c, 0, 35, 41
1, 350461, Control_c, 0, 67, 41
1, 350475, Control_c, 0, 67, 53
1, 350490, Control_c, 0, 67, 66
1, 350505, Control_c, 0, 67, 77
1, 350520, Control_c, 0, 67, 86
1, 350534, Control_c, 0, 67, 93
1, 350549, Control_c, 0, 67, 100
1, 350564, Control_c, 0, 67, 107
1, 350579, Control_c, 0, 67, 113
1, 350594, Control_c, 0, 67, 115
1, 350608, Control_c, 0, 64, 79
1, 350608, Control_c, 0, 67, 116
1, 350638, Control_c, 0, 64, 79
1, 350690, Control_c, 0, 64, 78
1, 350720, Control_c, 0, 64, 78
1, 350734, Control_c, 0, 64, 77
1, 350749, Control_c, 0, 64, 77
1, 350764, Control_c, 0, 64, 76
1, 350779, Control_c, 0, 64, 74
1, 350794, Control_c, 0, 64, 72
1, 350808, Control_c, 0, 64, 70
1, 350808, Control_c, 0, 67, 116
1, 350823, Control_c, 0, 64, 67
1, 350823, Control_c, 0, 67, 115
1, 350832, Note_on_c, 0, 62, 51
1, 350838, Control_c, 0, 64, 63
1, 350845, Note_on_c, 0, 55, 41
1, 350852, Note_on_c, 0, 40, 40
1, 350852, Control_c, 0, 64, 56
1, 350854, Note_on_c, 0, 58, 38
1, 350860, Note_on_c, 0, 28, 39
1, 350867, Control_c, 0, 64, 39
1, 350882, Control_c, 0, 64, 0
1, 350897, Control_c, 0, 67, 115
1, 350926, Control_c, 0, 67, 114
1, 350986, Control_c, 0, 67, 114
1, 351015, Control_c, 0, 67, 113
1, 351060, Control_c, 0, 67, 113
1, 351090, Control_c, 0, 67, 112
1, 351120, Control_c, 0, 67, 111
1, 351164, Control_c, 0, 64, 46
1, 351164, Control_c, 0, 67, 111
1, 351179, Control_c, 0, 64, 62
1, 351194, Control_c, 0, 64, 66
1, 351209, Control_c, 0, 64, 68
1, 351209, Control_c, 0, 67, 110
1, 351224, Control_c, 0, 64, 70
1, 351227, Note_off_c, 0, 58, 61
1, 351239, Control_c, 0, 64, 73
1, 351245, Note_off_c, 0, 55, 52
1, 351254, Control_c, 0, 64, 75
1, 351269, Control_c, 0, 64, 78
1, 351284, Control_c, 0, 64, 79
1, 351298, Control_c, 0, 64, 79
1, 351454, Control_c, 0, 64, 79
1, 351469, Control_c, 0, 64, 78
1, 351483, Control_c, 0, 64, 77
1, 351498, Control_c, 0, 64, 76
1, 351508, Note_on_c, 0, 61, 62
1, 351513, Control_c, 0, 64, 75
1, 351526, Note_on_c, 0, 55, 47
1, 351528, Control_c, 0, 64, 74
1, 351531, Note_on_c, 0, 58, 44
1, 351534, Note_off_c, 0, 62, 32
1, 351543, Control_c, 0, 64, 71
1, 351557, Control_c, 0, 64, 67
1, 351572, Control_c, 0, 64, 61
1, 351587, Control_c, 0, 64, 23
1, 351602, Control_c, 0, 64, 0
1, 351690, Control_c, 0, 64, 36
1, 351705, Control_c, 0, 64, 61
1, 351720, Control_c, 0, 64, 66
1, 351735, Control_c, 0, 64, 70
1, 351749, Control_c, 0, 64, 72
1, 351764, Control_c, 0, 64, 75
1, 351779, Control_c, 0, 64, 77
1, 351794, Control_c, 0, 64, 79
1, 351794, Control_c, 0, 67, 111
1, 351809, Control_c, 0, 64, 80
1, 351823, Control_c, 0, 64, 81
1, 351823, Control_c, 0, 67, 111
1, 351832, Note_off_c, 0, 55, 58
1, 351838, Control_c, 0, 67, 112
1, 351853, Control_c, 0, 67, 112
1, 351957, Control_c, 0, 67, 113
1, 352032, Control_c, 0, 64, 81
1, 352032, Control_c, 0, 67, 113
1, 352077, Control_c, 0, 64, 80
1, 352092, Control_c, 0, 64, 80
1, 352106, Control_c, 0, 64, 79
1, 352107, Note_off_c, 0, 58, 27
1, 352121, Control_c, 0, 64, 78
1, 352136, Control_c, 0, 64, 77
1, 352158, Control_c, 0, 64, 76
1, 352172, Control_c, 0, 64, 75
1, 352187, Control_c, 0, 64, 73
1, 352197, Note_off_c, 0, 61, 54
1, 352202, Control_c, 0, 64, 72
1, 352217, Control_c, 0, 64, 70
1, 352232, Control_c, 0, 64, 68
1, 352232, Control_c, 0, 67, 114
1, 352247, Control_c, 0, 64, 65
1, 352248, Note_on_c, 0, 62, 57
1, 352261, Control_c, 0, 64, 60
1, 352267, Note_on_c, 0, 59, 43
1, 352270, Note_on_c, 0, 56, 38
1, 352276, Control_c, 0, 64, 34
1, 352291, Control_c, 0, 64, 0
1, 352439, Control_c, 0, 67, 114
1, 352453, Control_c, 0, 64, 60
1, 352468, Control_c, 0, 64, 66
1, 352483, Control_c, 0, 64, 69
1, 352483, Control_c, 0, 67, 115
1, 352497, Control_c, 0, 64, 72
1, 352512, Control_c, 0, 64, 76
1, 352512, Control_c, 0, 67, 115
1, 352527, Control_c, 0, 64, 79
1, 352527, Control_c, 0, 67, 116
1, 352542, Control_c, 0, 64, 82
1, 352542, Control_c, 0, 67, 116
1, 352557, Control_c, 0, 64, 85
1, 352557, Control_c, 0, 67, 117
1, 352571, Control_c, 0, 64, 86
1, 352586, Control_c, 0, 64, 87
1, 352587, Note_off_c, 0, 28, 39
1, 352598, Note_off_c, 0, 62, 60
1, 352601, Control_c, 0, 64, 89
1, 352631, Control_c, 0, 64, 89
1, 352634, Note_off_c, 0, 56, 39
1, 352646, Control_c, 0, 67, 117
1, 352659, Note_off_c, 0, 40, 42
1, 352705, Control_c, 0, 67, 118
1, 352735, Control_c, 0, 67, 120
1, 352750, Control_c, 0, 67, 124
1, 352765, Control_c, 0, 67, 127
1, 352780, Control_c, 0, 67, 127
1, 352965, Control_c, 0, 64, 89
1, 353025, Control_c, 0, 64, 88
1, 353054, Control_c, 0, 64, 88
1, 353084, Control_c, 0, 64, 87
1, 353099, Control_c, 0, 64, 87
1, 353114, Control_c, 0, 64, 86
1, 353128, Control_c, 0, 64, 86
1, 353143, Control_c, 0, 64, 85
1, 353158, Control_c, 0, 64, 84
1, 353171, Note_on_c, 0, 66, 57
1, 353173, Control_c, 0, 64, 82
1, 353178, Note_on_c, 0, 57, 48
1, 353186, Note_on_c, 0, 45, 45
1, 353188, Control_c, 0, 64, 80
1, 353194, Note_on_c, 0, 62, 47
1, 353194, Note_on_c, 0, 33, 40
1, 353202, Control_c, 0, 64, 78
1, 353217, Control_c, 0, 64, 76
1, 353232, Control_c, 0, 64, 73
1, 353237, Note_off_c, 0, 59, 38
1, 353246, Control_c, 0, 64, 69
1, 353261, Control_c, 0, 64, 64
1, 353276, Control_c, 0, 64, 46
1, 353291, Control_c, 0, 64, 0
1, 353603, Control_c, 0, 64, 34
1, 353618, Control_c, 0, 64, 50
1, 353633, Control_c, 0, 64, 56
1, 353655, Control_c, 0, 64, 59
1, 353671, Control_c, 0, 64, 60
1, 353685, Control_c, 0, 64, 62
1, 353700, Control_c, 0, 64, 63
1, 353715, Control_c, 0, 64, 64
1, 353730, Control_c, 0, 64, 65
1, 353745, Control_c, 0, 64, 66
1, 353759, Control_c, 0, 64, 67
1, 353774, Control_c, 0, 64, 68
1, 353789, Control_c, 0, 64, 69
1, 353804, Control_c, 0, 64, 71
1, 353819, Control_c, 0, 64, 72
1, 353833, Control_c, 0, 64, 74
1, 353848, Control_c, 0, 64, 75
1, 353863, Control_c, 0, 64, 77
1, 353877, Control_c, 0, 64, 78
1, 353892, Control_c, 0, 64, 79
1, 353907, Control_c, 0, 64, 81
1, 353922, Control_c, 0, 64, 82
1, 353937, Control_c, 0, 64, 83
1, 353952, Control_c, 0, 64, 85
1, 353967, Control_c, 0, 64, 86
1, 353981, Control_c, 0, 64, 87
1, 353996, Control_c, 0, 64, 88
1, 354011, Control_c, 0, 64, 89
1, 354026, Control_c, 0, 64, 90
1, 354041, Control_c, 0, 64, 91
1, 354056, Control_c, 0, 64, 92
1, 354071, Control_c, 0, 64, 93
1, 354085, Control_c, 0, 64, 93
1, 354100, Control_c, 0, 64, 94
1, 354115, Control_c, 0, 64, 94
1, 354132, Note_off_c, 0, 57, 49
1, 354376, Note_off_c, 0, 66, 39
1, 354464, Control_c, 0, 64, 94
1, 354508, Control_c, 0, 64, 93
1, 354553, Control_c, 0, 64, 93
1, 354582, Control_c, 0, 64, 92
1, 354612, Control_c, 0, 64, 92
1, 354627, Control_c, 0, 64, 91
1, 354642, Control_c, 0, 64, 91
1, 354656, Control_c, 0, 64, 90
1, 354671, Control_c, 0, 64, 90
1, 354686, Control_c, 0, 64, 89
1, 354700, Control_c, 0, 64, 89
1, 354715, Control_c, 0, 64, 87
1, 354717, Note_on_c, 0, 61, 42
1, 354730, Note_on_c, 0, 55, 38
1, 354730, Control_c, 0, 64, 86
1, 354731, Note_on_c, 0, 57, 34
1, 354745, Control_c, 0, 64, 84
1, 354760, Control_c, 0, 64, 83
1, 354774, Control_c, 0, 64, 81
1, 354789, Control_c, 0, 64, 79
1, 354804, Control_c, 0, 64, 76
1, 354819, Control_c, 0, 64, 72
1, 354834, Control_c, 0, 64, 68
1, 354843, Note_off_c, 0, 62, 14
1, 354849, Control_c, 0, 64, 61
1, 354864, Control_c, 0, 64, 33
1, 354879, Control_c, 0, 64, 0
1, 354997, Control_c, 0, 64, 29
1, 355012, Control_c, 0, 64, 51
1, 355026, Control_c, 0, 64, 59
1, 355041, Control_c, 0, 64, 63
1, 355056, Control_c, 0, 64, 64
1, 355071, Control_c, 0, 64, 65
1, 355086, Control_c, 0, 64, 67
1, 355100, Control_c, 0, 64, 68
1, 355115, Control_c, 0, 64, 69
1, 355130, Control_c, 0, 64, 71
1, 355153, Control_c, 0, 64, 72
1, 355168, Control_c, 0, 64, 74
1, 355183, Control_c, 0, 64, 75
1, 355198, Control_c, 0, 64, 76
1, 355207, Note_on_c, 0, 64, 44
1, 355213, Control_c, 0, 64, 77
1, 355227, Control_c, 0, 64, 78
1, 355242, Control_c, 0, 64, 80
1, 355257, Control_c, 0, 64, 81
1, 355272, Control_c, 0, 64, 82
1, 355287, Control_c, 0, 64, 83
1, 355302, Control_c, 0, 64, 84
1, 355317, Control_c, 0, 64, 86
1, 355331, Control_c, 0, 64, 87
1, 355346, Control_c, 0, 64, 88
1, 355361, Control_c, 0, 64, 89
1, 355362, Note_off_c, 0, 61, 55
1, 355376, Control_c, 0, 64, 90
1, 355391, Control_c, 0, 64, 90
1, 355435, Control_c, 0, 64, 91
1, 355545, Note_off_c, 0, 57, 34
1, 355608, Note_off_c, 0, 55, 36
1, 355624, Note_off_c, 0, 64, 52
1, 355657, Note_on_c, 0, 62, 51
1, 355658, Note_off_c, 0, 45, 42
1, 355843, Note_off_c, 0, 62, 53
1, 355866, Note_off_c, 0, 33, 32
1, 356169, Control_c, 0, 64, 90
1, 356287, Control_c, 0, 64, 90
1, 356361, Control_c, 0, 64, 89
1, 356406, Control_c, 0, 64, 89
1, 356435, Control_c, 0, 64, 88
1, 356450, Control_c, 0, 64, 88
1, 356457, Note_on_c, 0, 62, 37
1, 356458, Note_on_c, 0, 54, 33
1, 356465, Control_c, 0, 64, 87
1, 356465, Note_on_c, 0, 57, 36
1, 356479, Control_c, 0, 64, 87
1, 356485, Note_on_c, 0, 26, 34
1, 356490, Note_on_c, 0, 38, 22
1, 356494, Control_c, 0, 64, 86
1, 356509, Control_c, 0, 64, 85
1, 356524, Control_c, 0, 64, 83
1, 356539, Control_c, 0, 64, 81
1, 356554, Control_c, 0, 64, 79
1, 356569, Control_c, 0, 64, 76
1, 356584, Control_c, 0, 64, 72
1, 356599, Control_c, 0, 64, 68
1, 356613, Control_c, 0, 64, 62
1, 356628, Control_c, 0, 64, 34
1, 356650, Control_c, 0, 64, 0
1, 356918, Control_c, 0, 64, 21
1, 356933, Control_c, 0, 64, 40
1, 356947, Control_c, 0, 64, 47
1, 356962, Control_c, 0, 64, 52
1, 356977, Control_c, 0, 64, 55
1, 356992, Control_c, 0, 64, 58
1, 357007, Control_c, 0, 64, 60
1, 357022, Control_c, 0, 64, 62
1, 357037, Control_c, 0, 64, 62
1, 357051, Control_c, 0, 64, 63
1, 357066, Control_c, 0, 64, 63
1, 357081, Control_c, 0, 64, 64
1, 357095, Control_c, 0, 64, 65
1, 357110, Control_c, 0, 64, 65
1, 357125, Control_c, 0, 64, 66
1, 357140, Control_c, 0, 64, 66
1, 357155, Control_c, 0, 64, 67
1, 357169, Control_c, 0, 64, 68
1, 357184, Control_c, 0, 64, 69
1, 357199, Control_c, 0, 64, 70
1, 357214, Control_c, 0, 64, 71
1, 357229, Control_c, 0, 64, 72
1, 357243, Control_c, 0, 64, 73
1, 357258, Control_c, 0, 64, 74
1, 357273, Control_c, 0, 64, 75
1, 357287, Control_c, 0, 64, 75
1, 357302, Control_c, 0, 64, 76
1, 357317, Control_c, 0, 64, 77
1, 357332, Control_c, 0, 64, 77
1, 357362, Control_c, 0, 64, 78
1, 357377, Control_c, 0, 64, 78
1, 357399, Control_c, 0, 64, 79
1, 357428, Control_c, 0, 64, 80
1, 357443, Control_c, 0, 64, 80
1, 357458, Control_c, 0, 64, 81
1, 357473, Control_c, 0, 64, 81
1, 357488, Control_c, 0, 64, 82
1, 357502, Control_c, 0, 64, 82
1, 357517, Control_c, 0, 64, 83
1, 357532, Control_c, 0, 64, 83
1, 357547, Control_c, 0, 64, 84
1, 357562, Control_c, 0, 64, 85
1, 357578, Control_c, 0, 64, 85
1, 357592, Control_c, 0, 64, 86
1, 357607, Control_c, 0, 64, 86
1, 357622, Control_c, 0, 64, 87
1, 357637, Control_c, 0, 64, 87
1, 357652, Control_c, 0, 64, 88
1, 357667, Control_c, 0, 64, 88
1, 357681, Control_c, 0, 64, 89
1, 357696, Control_c, 0, 64, 90
1, 357711, Control_c, 0, 64, 91
1, 357725, Control_c, 0, 64, 92
1, 357740, Control_c, 0, 64, 93
1, 357755, Control_c, 0, 64, 93
1, 357770, Control_c, 0, 64, 94
1, 357785, Control_c, 0, 64, 95
1, 357800, Control_c, 0, 64, 95
1, 357815, Control_c, 0, 64, 96
1, 357830, Control_c, 0, 64, 96
1, 358494, Note_off_c, 0, 26, 41
1, 358617, Note_off_c, 0, 38, 33
1, 358982, Note_off_c, 0, 57, 16
1, 359233, Note_off_c, 0, 62, 30
1, 359317, Note_off_c, 0, 54, 16
1, 359585, Note_on_c, 0, 50, 26
1, 359719, Control_c, 0, 64, 96
1, 360080, Note_on_c, 0, 57, 29
1, 360086, Note_on_c, 0, 53, 32
1, 360253, Control_c, 0, 64, 95
1, 360307, Note_off_c, 0, 57, 46
1, 360320, Note_off_c, 0, 53, 42
1, 360405, Note_on_c, 0, 44, 34
1, 360483, Note_off_c, 0, 50, 31
1, 360513, Control_c, 0, 64, 95
1, 360631, Control_c, 0, 64, 94
1, 360668, Note_on_c, 0, 65, 46
1, 360700, Note_on_c, 0, 62, 30
1, 360719, Control_c, 0, 64, 94
1, 360739, Poly_aftertouch_c, 0, 59, 127
1, 360749, Control_c, 0, 64, 93
1, 360774, Note_off_c, 0, 62, 52
1, 360778, Poly_aftertouch_c, 0, 59, 0
1, 360793, Note_off_c, 0, 65, 52
1, 360824, Control_c, 0, 64, 93
1, 360854, Control_c, 0, 64, 92
1, 360868, Control_c, 0, 64, 92
1, 360883, Control_c, 0, 64, 91
1, 360909, Note_off_c, 0, 44, 39
1, 360913, Note_on_c, 0, 55, 40
1, 360913, Control_c, 0, 64, 91
1, 361002, Control_c, 0, 64, 90
1, 361121, Control_c, 0, 64, 90
1, 361144, Note_on_c, 0, 64, 46
1, 361145, Note_on_c, 0, 58, 40
1, 361159, Note_on_c, 0, 62, 45
1, 361216, Control_c, 0, 64, 89
1, 361253, Note_off_c, 0, 64, 60
1, 361258, Note_off_c, 0, 62, 58
1, 361320, Control_c, 0, 64, 89
1, 361335, Control_c, 0, 64, 88
1, 361350, Control_c, 0, 64, 86
1, 361356, Note_on_c, 0, 49, 49
1, 361356, Note_off_c, 0, 58, 40
1, 361365, Control_c, 0, 64, 84
1, 361380, Control_c, 0, 64, 83
1, 361393, Note_off_c, 0, 55, 30
1, 361395, Control_c, 0, 64, 83
1, 361535, Note_on_c, 0, 70, 60
1, 361567, Note_on_c, 0, 67, 50
1, 361575, Note_on_c, 0, 64, 40
1, 361632, Note_off_c, 0, 70, 53
1, 361657, Note_off_c, 0, 67, 50
1, 361663, Note_off_c, 0, 64, 51
1, 361717, Note_on_c, 0, 57, 61
1, 361721, Control_c, 0, 64, 82
1, 361722, Note_off_c, 0, 49, 29
1, 361736, Control_c, 0, 64, 81
1, 361751, Control_c, 0, 64, 79
1, 361765, Control_c, 0, 64, 75
1, 361780, Control_c, 0, 64, 69
1, 361795, Control_c, 0, 64, 59
1, 361810, Control_c, 0, 64, 13
1, 361825, Control_c, 0, 64, 0
1, 361839, Control_c, 0, 64, 33
1, 361854, Control_c, 0, 64, 55
1, 361869, Control_c, 0, 64, 63
1, 361891, Control_c, 0, 64, 67
1, 361905, Note_on_c, 0, 69, 54
1, 361906, Control_c, 0, 64, 70
1, 361908, Note_on_c, 0, 61, 58
1, 361920, Note_on_c, 0, 67, 46
1, 361921, Control_c, 0, 64, 73
1, 361928, Note_on_c, 0, 64, 48
1, 361936, Control_c, 0, 64, 77
1, 361951, Control_c, 0, 64, 79
1, 361965, Note_off_c, 0, 61, 54
1, 361965, Control_c, 0, 64, 80
1, 361969, Note_off_c, 0, 64, 62
1, 361976, Note_off_c, 0, 67, 55
1, 361980, Control_c, 0, 64, 80
1, 361991, Note_off_c, 0, 69, 59
1, 362088, Note_off_c, 0, 57, 54
1, 362098, Control_c, 0, 64, 80
1, 362105, Note_on_c, 0, 50, 50
1, 362113, Control_c, 0, 64, 78
1, 362128, Control_c, 0, 64, 76
1, 362143, Control_c, 0, 64, 73
1, 362158, Control_c, 0, 64, 69
1, 362173, Control_c, 0, 64, 64
1, 362188, Control_c, 0, 64, 61
1, 362203, Control_c, 0, 64, 62
1, 362217, Control_c, 0, 64, 64
1, 362232, Control_c, 0, 64, 66
1, 362247, Control_c, 0, 64, 69
1, 362262, Control_c, 0, 64, 72
1, 362274, Note_on_c, 0, 77, 55
1, 362277, Control_c, 0, 64, 74
1, 362281, Note_on_c, 0, 65, 54
1, 362289, Note_on_c, 0, 69, 41
1, 362291, Control_c, 0, 64, 75
1, 362295, Note_on_c, 0, 74, 44
1, 362306, Control_c, 0, 64, 75
1, 362381, Note_off_c, 0, 77, 54
1, 362400, Note_off_c, 0, 69, 64
1, 362405, Note_off_c, 0, 74, 60
1, 362417, Note_off_c, 0, 65, 35
1, 362440, Control_c, 0, 64, 75
1, 362455, Control_c, 0, 64, 74
1, 362470, Control_c, 0, 64, 71
1, 362480, Note_on_c, 0, 64, 59
1, 362485, Control_c, 0, 64, 66
1, 362500, Control_c, 0, 64, 59
1, 362514, Control_c, 0, 64, 54
1, 362529, Control_c, 0, 64, 58
1, 362544, Control_c, 0, 64, 61
1, 362559, Control_c, 0, 64, 64
1, 362566, Note_off_c, 0, 50, 36
1, 362574, Control_c, 0, 64, 65
1, 362588, Control_c, 0, 64, 67
1, 362603, Control_c, 0, 64, 69
1, 362618, Control_c, 0, 64, 71
1, 362640, Control_c, 0, 64, 73
1, 362654, Control_c, 0, 64, 75
1, 362669, Control_c, 0, 64, 76
1, 362677, Note_on_c, 0, 74, 49
1, 362684, Note_on_c, 0, 68, 48
1, 362684, Control_c, 0, 64, 77
1, 362708, Note_on_c, 0, 71, 28
1, 362713, Control_c, 0, 64, 77
1, 362751, Note_off_c, 0, 71, 44
1, 362760, Note_off_c, 0, 68, 55
1, 362772, Note_off_c, 0, 64, 62
1, 362802, Control_c, 0, 64, 77
1, 362832, Control_c, 0, 64, 76
1, 362847, Control_c, 0, 64, 75
1, 362862, Note_on_c, 0, 57, 46
1, 362862, Control_c, 0, 64, 73
1, 362876, Control_c, 0, 64, 70
1, 362888, Note_off_c, 0, 74, 37
1, 362891, Control_c, 0, 64, 66
1, 362906, Control_c, 0, 64, 62
1, 362921, Control_c, 0, 64, 58
1, 362936, Control_c, 0, 64, 59
1, 362951, Control_c, 0, 64, 62
1, 362966, Control_c, 0, 64, 64
1, 362980, Control_c, 0, 64, 65
1, 362995, Control_c, 0, 64, 67
1, 363010, Control_c, 0, 64, 69
1, 363025, Control_c, 0, 64, 71
1, 363039, Control_c, 0, 64, 73
1, 363042, Note_on_c, 0, 73, 51
1, 363053, Note_on_c, 0, 69, 44
1, 363054, Control_c, 0, 64, 74
1, 363058, Note_on_c, 0, 64, 39
1, 363069, Control_c, 0, 64, 75
1, 363083, Note_off_c, 0, 73, 61
1, 363090, Note_off_c, 0, 69, 52
1, 363114, Note_off_c, 0, 64, 47
1, 363248, Note_off_c, 0, 57, 50
1, 363248, Control_c, 0, 64, 74
1, 363250, Note_on_c, 0, 50, 48
1, 363262, Control_c, 0, 64, 71
1, 363277, Control_c, 0, 64, 63
1, 363292, Control_c, 0, 64, 0
1, 363392, Note_on_c, 0, 69, 55
1, 363404, Control_c, 0, 64, 60
1, 363413, Note_on_c, 0, 60, 37
1, 363419, Note_on_c, 0, 62, 37
1, 363419, Control_c, 0, 64, 66
1, 363420, Note_on_c, 0, 66, 37
1, 363434, Control_c, 0, 64, 69
1, 363449, Control_c, 0, 64, 70
1, 363463, Control_c, 0, 64, 70
1, 363470, Note_off_c, 0, 69, 64
1, 363478, Control_c, 0, 64, 71
1, 363479, Note_off_c, 0, 60, 59
1, 363493, Control_c, 0, 64, 72
1, 363502, Note_off_c, 0, 62, 57
1, 363508, Control_c, 0, 64, 73
1, 363523, Control_c, 0, 64, 74
1, 363526, Note_off_c, 0, 66, 56
1, 363563, Note_on_c, 0, 43, 52
1, 363566, Note_off_c, 0, 50, 59
1, 363567, Control_c, 0, 64, 73
1, 363582, Control_c, 0, 64, 70
1, 363597, Control_c, 0, 64, 63
1, 363611, Control_c, 0, 64, 0
1, 363670, Control_c, 0, 64, 56
1, 363685, Control_c, 0, 64, 64
1, 363700, Control_c, 0, 64, 68
1, 363715, Note_on_c, 0, 62, 43
1, 363715, Control_c, 0, 64, 71
1, 363716, Note_on_c, 0, 70, 57
1, 363721, Note_on_c, 0, 58, 52
1, 363729, Control_c, 0, 64, 74
1, 363744, Control_c, 0, 64, 76
1, 363759, Control_c, 0, 64, 78
1, 363762, Note_off_c, 0, 62, 61
1, 363764, Note_off_c, 0, 58, 62
1, 363774, Control_c, 0, 64, 79
1, 363789, Control_c, 0, 64, 80
1, 363803, Control_c, 0, 64, 81
1, 363812, Note_off_c, 0, 70, 59
1, 363827, Note_off_c, 0, 43, 36
1, 363875, Note_on_c, 0, 55, 60
1, 363908, Control_c, 0, 64, 79
1, 363923, Control_c, 0, 64, 76
1, 363937, Control_c, 0, 64, 73
1, 363953, Control_c, 0, 64, 71
1, 363982, Control_c, 0, 64, 72
1, 363997, Control_c, 0, 64, 73
1, 364012, Control_c, 0, 64, 74
1, 364026, Note_on_c, 0, 71, 66
1, 364027, Control_c, 0, 64, 76
1, 364042, Control_c, 0, 64, 77
1, 364045, Note_on_c, 0, 62, 50
1, 364049, Note_on_c, 0, 65, 51
1, 364057, Control_c, 0, 64, 78
1, 364066, Note_on_c, 0, 67, 35
1, 364072, Control_c, 0, 64, 78
1, 364104, Note_off_c, 0, 62, 52
1, 364114, Note_off_c, 0, 55, 49
1, 364114, Note_off_c, 0, 71, 56
1, 364123, Note_off_c, 0, 65, 54
1, 364153, Control_c, 0, 64, 77
1, 364159, Note_off_c, 0, 67, 35
1, 364167, Control_c, 0, 64, 74
1, 364170, Note_on_c, 0, 48, 68
1, 364182, Control_c, 0, 64, 69
1, 364197, Control_c, 0, 64, 63
1, 364212, Control_c, 0, 64, 61
1, 364227, Control_c, 0, 64, 63
1, 364242, Control_c, 0, 64, 66
1, 364257, Control_c, 0, 64, 68
1, 364271, Control_c, 0, 64, 71
1, 364286, Control_c, 0, 64, 75
1, 364301, Control_c, 0, 64, 77
1, 364316, Control_c, 0, 64, 78
1, 364325, Note_on_c, 0, 72, 72
1, 364331, Control_c, 0, 64, 78
1, 364346, Note_on_c, 0, 65, 58
1, 364346, Control_c, 0, 64, 79
1, 364350, Note_on_c, 0, 60, 52
1, 364404, Note_on_c, 0, 67, 10
1, 364418, Note_off_c, 0, 72, 61
1, 364421, Note_off_c, 0, 65, 60
1, 364421, Note_off_c, 0, 60, 42
1, 364434, Note_off_c, 0, 48, 29
1, 364455, Note_off_c, 0, 67, 49
1, 364475, Note_on_c, 0, 58, 73
1, 364478, Control_c, 0, 64, 78
1, 364493, Control_c, 0, 64, 78
1, 364508, Control_c, 0, 64, 76
1, 364523, Control_c, 0, 64, 72
1, 364538, Control_c, 0, 64, 66
1, 364552, Control_c, 0, 64, 55
1, 364567, Control_c, 0, 64, 44
1, 364582, Control_c, 0, 64, 52
1, 364597, Control_c, 0, 64, 57
1, 364611, Control_c, 0, 64, 62
1, 364626, Control_c, 0, 64, 65
1, 364640, Note_on_c, 0, 74, 66
1, 364641, Control_c, 0, 64, 67
1, 364650, Note_on_c, 0, 60, 58
1, 364653, Note_on_c, 0, 64, 51
1, 364656, Control_c, 0, 64, 71
1, 364671, Control_c, 0, 64, 74
1, 364686, Control_c, 0, 64, 76
1, 364690, Note_on_c, 0, 67, 44
1, 364701, Control_c, 0, 64, 77
1, 364716, Control_c, 0, 64, 78
1, 364731, Control_c, 0, 64, 78
1, 364745, Control_c, 0, 64, 79
1, 364763, Note_off_c, 0, 74, 58
1, 364772, Note_off_c, 0, 67, 47
1, 364777, Note_off_c, 0, 60, 50
1, 364805, Note_off_c, 0, 58, 62
1, 364805, Note_off_c, 0, 64, 56
1, 364811, Note_on_c, 0, 57, 66
1, 364820, Control_c, 0, 64, 78
1, 364835, Control_c, 0, 64, 76
1, 364850, Control_c, 0, 64, 70
1, 364865, Control_c, 0, 64, 64
1, 364887, Control_c, 0, 64, 57
1, 364902, Control_c, 0, 64, 58
1, 364916, Control_c, 0, 64, 62
1, 364931, Control_c, 0, 64, 64
1, 364946, Control_c, 0, 64, 67
1, 364961, Control_c, 0, 64, 70
1, 364968, Note_on_c, 0, 72, 64
1, 364976, Control_c, 0, 64, 73
1, 364978, Note_on_c, 0, 64, 28
1, 364981, Note_on_c, 0, 60, 52
1, 364990, Control_c, 0, 64, 76
1, 365005, Note_on_c, 0, 67, 38
1, 365005, Control_c, 0, 64, 78
1, 365020, Control_c, 0, 64, 79
1, 365025, Note_off_c, 0, 60, 59
1, 365035, Control_c, 0, 64, 80
1, 365045, Note_off_c, 0, 57, 56
1, 365047, Note_off_c, 0, 72, 60
1, 365059, Note_off_c, 0, 64, 59
1, 365100, Note_on_c, 0, 52, 71
1, 365109, Control_c, 0, 64, 79
1, 365124, Control_c, 0, 64, 76
1, 365139, Control_c, 0, 64, 69
1, 365154, Control_c, 0, 64, 61
1, 365169, Control_c, 0, 64, 50
1, 365183, Control_c, 0, 64, 54
1, 365198, Note_off_c, 0, 67, 24
1, 365198, Control_c, 0, 64, 60
1, 365213, Control_c, 0, 64, 63
1, 365228, Control_c, 0, 64, 65
1, 365240, Note_on_c, 0, 70, 62
1, 365242, Control_c, 0, 64, 67
1, 365257, Control_c, 0, 64, 68
1, 365258, Note_on_c, 0, 61, 52
1, 365272, Control_c, 0, 64, 69
1, 365276, Note_on_c, 0, 65, 38
1, 365287, Control_c, 0, 64, 70
1, 365302, Control_c, 0, 64, 70
1, 365316, Control_c, 0, 64, 69
1, 365325, Note_off_c, 0, 65, 46
1, 365328, Note_off_c, 0, 70, 57
1, 365331, Control_c, 0, 64, 65
1, 365346, Control_c, 0, 64, 37
1, 365348, Note_off_c, 0, 52, 63
1, 365357, Note_off_c, 0, 61, 53
1, 365361, Control_c, 0, 64, 0
1, 365377, Note_on_c, 0, 53, 68
1, 365449, Control_c, 0, 64, 36
1, 365464, Control_c, 0, 64, 63
1, 365479, Control_c, 0, 64, 67
1, 365494, Control_c, 0, 64, 68
1, 365500, Note_on_c, 0, 69, 59
1, 365506, Note_on_c, 0, 60, 53
1, 365509, Control_c, 0, 64, 69
1, 365523, Control_c, 0, 64, 70
1, 365538, Control_c, 0, 64, 70
1, 365585, Note_off_c, 0, 60, 44
1, 365613, Control_c, 0, 64, 70
1, 365636, Note_on_c, 0, 46, 66
1, 365636, Control_c, 0, 64, 68
1, 365651, Control_c, 0, 64, 64
1, 365661, Note_off_c, 0, 53, 58
1, 365665, Control_c, 0, 64, 0
1, 365712, Note_off_c, 0, 69, 47
1, 365766, Note_on_c, 0, 66, 62
1, 365769, Control_c, 0, 64, 59
1, 365775, Note_on_c, 0, 60, 48
1, 365779, Note_on_c, 0, 63, 54
1, 365784, Control_c, 0, 64, 67
1, 365799, Control_c, 0, 64, 72
1, 365813, Control_c, 0, 64, 75
1, 365828, Control_c, 0, 64, 76
1, 365843, Control_c, 0, 64, 77
1, 365870, Note_off_c, 0, 60, 51
1, 365884, Note_on_c, 0, 45, 71
1, 365887, Note_off_c, 0, 46, 61
1, 365887, Control_c, 0, 64, 76
1, 365902, Control_c, 0, 64, 72
1, 365917, Control_c, 0, 64, 63
1, 365932, Control_c, 0, 64, 49
1, 365947, Control_c, 0, 64, 58
1, 365960, Note_off_c, 0, 66, 61
1, 365962, Note_off_c, 0, 63, 34
1, 365962, Control_c, 0, 64, 65
1, 365977, Control_c, 0, 64, 68
1, 365991, Control_c, 0, 64, 72
1, 366006, Control_c, 0, 64, 76
1, 366008, Note_on_c, 0, 65, 72
1, 366014, Note_on_c, 0, 60, 64
1, 366019, Note_on_c, 0, 63, 34
1, 366021, Control_c, 0, 64, 78
1, 366036, Control_c, 0, 64, 80
1, 366080, Control_c, 0, 64, 77
1, 366086, Note_off_c, 0, 45, 58
1, 366095, Control_c, 0, 64, 70
1, 366096, Note_off_c, 0, 63, 58
1, 366110, Control_c, 0, 64, 61
1, 366111, Note_off_c, 0, 60, 38
1, 366118, Note_on_c, 0, 42, 79
1, 366125, Control_c, 0, 64, 58
1, 366139, Control_c, 0, 64, 64
1, 366154, Control_c, 0, 64, 67
1, 366169, Control_c, 0, 64, 70
1, 366183, Control_c, 0, 64, 74
1, 366198, Control_c, 0, 64, 77
1, 366213, Control_c, 0, 64, 79
1, 366228, Control_c, 0, 64, 80
1, 366235, Note_on_c, 0, 70, 80
1, 366243, Note_on_c, 0, 60, 69
1, 366244, Note_on_c, 0, 63, 71
1, 366268, Note_off_c, 0, 65, 28
1, 366272, Control_c, 0, 64, 79
1, 366287, Control_c, 0, 64, 75
1, 366302, Control_c, 0, 64, 66
1, 366317, Control_c, 0, 64, 0
1, 366331, Note_off_c, 0, 63, 60
1, 366333, Note_off_c, 0, 42, 63
1, 366338, Note_off_c, 0, 60, 49
1, 366340, Note_on_c, 0, 41, 85
1, 366353, Note_off_c, 0, 70, 55
1, 366362, Control_c, 0, 64, 56
1, 366385, Control_c, 0, 64, 67
1, 366400, Control_c, 0, 64, 74
1, 366415, Control_c, 0, 64, 79
1, 366430, Control_c, 0, 64, 82
1, 366445, Control_c, 0, 64, 84
1, 366459, Control_c, 0, 64, 86
1, 366474, Note_on_c, 0, 60, 69
1, 366474, Note_on_c, 0, 63, 70
1, 366474, Control_c, 0, 64, 88
1, 366475, Note_on_c, 0, 69, 75
1, 366489, Control_c, 0, 64, 88
1, 366509, Note_off_c, 0, 60, 59
1, 366519, Control_c, 0, 64, 88
1, 366526, Note_off_c, 0, 63, 61
1, 366534, Control_c, 0, 64, 83
1, 366534, Note_off_c, 0, 69, 64
1, 366549, Control_c, 0, 64, 73
1, 366563, Control_c, 0, 64, 30
1, 366578, Control_c, 0, 64, 0
1, 366584, Note_on_c, 0, 51, 85
1, 366652, Control_c, 0, 67, 126
1, 366667, Control_c, 0, 64, 54
1, 366667, Control_c, 0, 67, 121
1, 366681, Control_c, 0, 64, 71
1, 366681, Control_c, 0, 67, 116
1, 366696, Control_c, 0, 64, 80
1, 366696, Control_c, 0, 67, 110
1, 366707, Note_on_c, 0, 71, 81
1, 366711, Control_c, 0, 64, 89
1, 366711, Control_c, 0, 67, 104
1, 366713, Note_on_c, 0, 65, 74
1, 366715, Note_on_c, 0, 59, 72
1, 366726, Control_c, 0, 64, 95
1, 366726, Control_c, 0, 67, 98
1, 366741, Control_c, 0, 64, 98
1, 366741, Control_c, 0, 67, 91
1, 366755, Control_c, 0, 64, 99
1, 366755, Control_c, 0, 67, 84
1, 366770, Control_c, 0, 67, 78
1, 366781, Note_off_c, 0, 59, 61
1, 366785, Control_c, 0, 67, 71
1, 366786, Note_off_c, 0, 41, 58
1, 366787, Note_off_c, 0, 51, 61
1, 366799, Control_c, 0, 64, 94
1, 366799, Control_c, 0, 67, 62
1, 366814, Control_c, 0, 64, 80
1, 366814, Control_c, 0, 67, 53
1, 366823, Note_on_c, 0, 50, 92
1, 366829, Control_c, 0, 64, 50
1, 366829, Control_c, 0, 67, 45
1, 366838, Note_off_c, 0, 65, 55
1, 366844, Control_c, 0, 64, 0
1, 366844, Control_c, 0, 67, 38
1, 366859, Control_c, 0, 67, 31
1, 366870, Note_off_c, 0, 71, 57
1, 366874, Control_c, 0, 67, 24
1, 366889, Control_c, 0, 67, 15
1, 366904, Control_c, 0, 64, 63
1, 366904, Control_c, 0, 67, 0
1, 366919, Control_c, 0, 64, 71
1, 366931, Note_on_c, 0, 70, 79
1, 366933, Note_on_c, 0, 58, 79
1, 366933, Control_c, 0, 64, 77
1, 366936, Note_on_c, 0, 65, 55
1, 366945, Note_on_c, 0, 68, 66
1, 366948, Control_c, 0, 64, 81
1, 366963, Control_c, 0, 64, 82
1, 366978, Control_c, 0, 64, 81
1, 366986, Note_off_c, 0, 58, 62
1, 366993, Control_c, 0, 64, 71
1, 367000, Note_off_c, 0, 65, 62
1, 367007, Control_c, 0, 64, 0
1, 367008, Note_off_c, 0, 68, 61
1, 367038, Note_on_c, 0, 47, 89
1, 367046, Note_off_c, 0, 70, 53
1, 367062, Note_off_c, 0, 50, 62
1, 367148, Control_c, 0, 64, 58
1, 367163, Control_c, 0, 64, 71
1, 367170, Note_on_c, 0, 75, 84
1, 367176, Note_on_c, 0, 63, 78
1, 367178, Control_c, 0, 64, 75
1, 367180, Note_on_c, 0, 68, 66
1, 367184, Note_on_c, 0, 65, 69
1, 367208, Control_c, 0, 64, 67
1, 367223, Control_c, 0, 64, 0
1, 367253, Note_off_c, 0, 68, 57
1, 367261, Note_off_c, 0, 65, 56
1, 367268, Note_off_c, 0, 63, 62
1, 367276, Note_off_c, 0, 75, 63
1, 367283, Note_on_c, 0, 46, 90
1, 367300, Note_off_c, 0, 47, 43
1, 367327, Note_on_c, 0, 45, 58
1, 367341, Control_c, 0, 64, 74
1, 367356, Control_c, 0, 64, 85
1, 367366, Note_off_c, 0, 45, 65
1, 367371, Control_c, 0, 64, 92
1, 367372, Note_off_c, 0, 46, 63
1, 367385, Control_c, 0, 64, 93
1, 367400, Note_on_c, 0, 68, 58
1, 367400, Note_on_c, 0, 74, 82
1, 367401, Note_on_c, 0, 62, 88
1, 367409, Note_on_c, 0, 65, 74
1, 367431, Note_off_c, 0, 65, 70
1, 367432, Note_off_c, 0, 62, 61
1, 367455, Note_off_c, 0, 68, 64
1, 367469, Note_off_c, 0, 74, 65
1, 367518, Control_c, 0, 64, 92
1, 367525, Note_on_c, 0, 46, 98
1, 367533, Control_c, 0, 64, 87
1, 367548, Control_c, 0, 64, 77
1, 367563, Control_c, 0, 64, 63
1, 367577, Control_c, 0, 64, 0
1, 367622, Control_c, 0, 64, 43
1, 367637, Control_c, 0, 64, 67
1, 367645, Note_on_c, 0, 79, 82
1, 367652, Control_c, 0, 64, 76
1, 367652, Note_on_c, 0, 67, 75
1, 367653, Note_on_c, 0, 75, 78
1, 367657, Note_on_c, 0, 70, 79
1, 367667, Control_c, 0, 64, 85
1, 367682, Control_c, 0, 64, 93
1, 367696, Control_c, 0, 64, 97
1, 367711, Control_c, 0, 64, 100
1, 367726, Control_c, 0, 64, 101
1, 367741, Control_c, 0, 64, 102
1, 367746, Note_off_c, 0, 67, 60
1, 367753, Note_off_c, 0, 70, 63
1, 367756, Control_c, 0, 64, 103
1, 367770, Control_c, 0, 64, 104
1, 367770, Control_c, 0, 67, 9
1, 367785, Control_c, 0, 64, 104
1, 367785, Control_c, 0, 67, 11
1, 367787, Note_off_c, 0, 79, 58
1, 367800, Control_c, 0, 67, 14
1, 367807, Note_off_c, 0, 75, 57
1, 367810, Note_on_c, 0, 58, 89
1, 367815, Control_c, 0, 64, 104
1, 367815, Control_c, 0, 67, 17
1, 367829, Control_c, 0, 64, 101
1, 367829, Control_c, 0, 67, 21
1, 367844, Control_c, 0, 64, 95
1, 367844, Control_c, 0, 67, 26
1, 367859, Control_c, 0, 64, 87
1, 367859, Control_c, 0, 67, 31
1, 367881, Control_c, 0, 64, 82
1, 367881, Control_c, 0, 67, 36
1, 367896, Control_c, 0, 64, 81
1, 367896, Control_c, 0, 67, 41
1, 367911, Control_c, 0, 67, 45
1, 367926, Control_c, 0, 64, 82
1, 367926, Control_c, 0, 67, 49
1, 367941, Control_c, 0, 64, 83
1, 367941, Control_c, 0, 67, 53
1, 367956, Control_c, 0, 64, 85
1, 367956, Control_c, 0, 67, 55
1, 367962, Note_on_c, 0, 79, 81
1, 367966, Note_on_c, 0, 75, 74
1, 367971, Control_c, 0, 64, 88
1, 367971, Control_c, 0, 67, 57
1, 367973, Note_on_c, 0, 69, 76
1, 367974, Note_on_c, 0, 72, 71
1, 367986, Control_c, 0, 64, 90
1, 367986, Control_c, 0, 67, 58
1, 367989, Note_off_c, 0, 46, 55
1, 368001, Control_c, 0, 64, 91
1, 368016, Control_c, 0, 64, 92
1, 368027, Note_off_c, 0, 69, 63
1, 368060, Control_c, 0, 64, 91
1, 368062, Note_off_c, 0, 79, 59
1, 368075, Control_c, 0, 64, 90
1, 368083, Note_on_c, 0, 46, 88
1, 368090, Control_c, 0, 64, 86
1, 368105, Control_c, 0, 64, 79
1, 368107, Note_off_c, 0, 58, 57
1, 368110, Note_off_c, 0, 75, 52
1, 368120, Control_c, 0, 64, 69
1, 368120, Control_c, 0, 67, 57
1, 368134, Control_c, 0, 64, 63
1, 368134, Control_c, 0, 67, 57
1, 368149, Control_c, 0, 67, 56
1, 368154, Note_off_c, 0, 72, 57
1, 368164, Control_c, 0, 64, 66
1, 368164, Control_c, 0, 67, 55
1, 368179, Control_c, 0, 64, 72
1, 368179, Control_c, 0, 67, 54
1, 368182, Note_on_c, 0, 68, 80
1, 368187, Note_on_c, 0, 77, 76
1, 368190, Note_on_c, 0, 74, 63
1, 368194, Control_c, 0, 64, 78
1, 368194, Control_c, 0, 67, 54
1, 368208, Control_c, 0, 64, 83
1, 368208, Control_c, 0, 67, 53
1, 368223, Control_c, 0, 64, 84
1, 368223, Control_c, 0, 67, 51
1, 368238, Control_c, 0, 67, 51
1, 368243, Note_off_c, 0, 74, 53
1, 368252, Control_c, 0, 67, 50
1, 368256, Note_off_c, 0, 68, 49
1, 368282, Control_c, 0, 64, 80
1, 368282, Control_c, 0, 67, 49
1, 368297, Control_c, 0, 64, 68
1, 368299, Note_on_c, 0, 58, 81
1, 368305, Note_off_c, 0, 77, 55
1, 368312, Control_c, 0, 64, 0
1, 368312, Control_c, 0, 67, 48
1, 368326, Control_c, 0, 67, 47
1, 368327, Note_off_c, 0, 46, 52
1, 368341, Control_c, 0, 67, 44
1, 368356, Control_c, 0, 67, 42
1, 368370, Control_c, 0, 64, 45
1, 368370, Control_c, 0, 67, 41
1, 368385, Control_c, 0, 64, 65
1, 368395, Note_on_c, 0, 67, 71
1, 368395, Note_on_c, 0, 75, 77
1, 368400, Control_c, 0, 64, 70
1, 368400, Control_c, 0, 67, 41
1, 368404, Note_on_c, 0, 70, 70
1, 368415, Control_c, 0, 64, 73
1, 368415, Control_c, 0, 67, 41
1, 368430, Control_c, 0, 64, 74
1, 368431, Note_off_c, 0, 67, 57
1, 368431, Note_off_c, 0, 70, 66
1, 368446, Note_off_c, 0, 75, 62
1, 368475, Control_c, 0, 64, 72
1, 368476, Note_off_c, 0, 58, 59
1, 368489, Control_c, 0, 64, 56
1, 368496, Note_on_c, 0, 46, 76
1, 368504, Control_c, 0, 64, 0
1, 368519, Control_c, 0, 67, 40
1, 368534, Control_c, 0, 67, 40
1, 368578, Control_c, 0, 64, 62
1, 368593, Control_c, 0, 64, 69
1, 368593, Control_c, 0, 67, 40
1, 368595, Note_on_c, 0, 74, 69
1, 368606, Note_on_c, 0, 65, 63
1, 368607, Note_on_c, 0, 68, 65
1, 368608, Control_c, 0, 64, 74
1, 368630, Control_c, 0, 64, 76
1, 368645, Note_off_c, 0, 65, 66
1, 368645, Control_c, 0, 64, 76
1, 368646, Note_off_c, 0, 68, 65
1, 368659, Control_c, 0, 64, 74
1, 368665, Note_off_c, 0, 74, 63
1, 368674, Control_c, 0, 64, 65
1, 368689, Control_c, 0, 64, 0
1, 368713, Note_on_c, 0, 58, 74
1, 368734, Control_c, 0, 64, 30
1, 368734, Control_c, 0, 67, 41
1, 368749, Control_c, 0, 64, 64
1, 368749, Control_c, 0, 67, 41
1, 368764, Control_c, 0, 64, 69
1, 368779, Control_c, 0, 64, 72
1, 368794, Control_c, 0, 64, 70
1, 368809, Control_c, 0, 64, 62
1, 368817, Note_on_c, 0, 76, 75
1, 368823, Note_on_c, 0, 64, 64
1, 368824, Control_c, 0, 64, 0
1, 368824, Control_c, 0, 67, 42
1, 368825, Note_off_c, 0, 46, 52
1, 368829, Note_off_c, 0, 58, 63
1, 368834, Note_on_c, 0, 67, 53
1, 368856, Note_off_c, 0, 64, 65
1, 368868, Control_c, 0, 67, 42
1, 368870, Note_off_c, 0, 67, 60
1, 368872, Note_off_c, 0, 76, 62
1, 368883, Control_c, 0, 64, 62
1, 368883, Control_c, 0, 67, 42
1, 368898, Control_c, 0, 64, 67
1, 368911, Note_on_c, 0, 57, 72
1, 368928, Control_c, 0, 64, 64
1, 368928, Control_c, 0, 67, 42
1, 368943, Control_c, 0, 64, 61
1, 368957, Control_c, 0, 64, 62
1, 368972, Control_c, 0, 64, 66
1, 368972, Control_c, 0, 67, 43
1, 368987, Control_c, 0, 64, 68
1, 369002, Control_c, 0, 64, 67
1, 369002, Control_c, 0, 67, 44
1, 369007, Note_off_c, 0, 57, 60
1, 369011, Note_on_c, 0, 73, 71
1, 369015, Note_on_c, 0, 67, 59
1, 369017, Control_c, 0, 64, 64
1, 369026, Note_on_c, 0, 64, 42
1, 369031, Control_c, 0, 64, 27
1, 369046, Control_c, 0, 64, 0
1, 369046, Control_c, 0, 67, 45
1, 369047, Note_off_c, 0, 67, 63
1, 369052, Note_off_c, 0, 64, 36
1, 369061, Control_c, 0, 67, 46
1, 369077, Note_off_c, 0, 73, 56
1, 369090, Control_c, 0, 67, 46
1, 369120, Control_c, 0, 67, 47
1, 369124, Note_on_c, 0, 50, 59
1, 369149, Control_c, 0, 64, 61
1, 369164, Control_c, 0, 64, 73
1, 369164, Control_c, 0, 67, 48
1, 369179, Control_c, 0, 64, 84
1, 369179, Control_c, 0, 67, 49
1, 369193, Control_c, 0, 64, 98
1, 369193, Control_c, 0, 67, 49
1, 369208, Control_c, 0, 64, 110
1, 369208, Control_c, 0, 67, 49
1, 369215, Note_on_c, 0, 74, 61
1, 369217, Note_on_c, 0, 65, 68
1, 369219, Note_on_c, 0, 69, 63
1, 369223, Control_c, 0, 64, 119
1, 369223, Control_c, 0, 67, 48
1, 369238, Control_c, 0, 64, 123
1, 369238, Control_c, 0, 67, 48
1, 369239, Note_off_c, 0, 69, 66
1, 369241, Note_off_c, 0, 74, 69
1, 369244, Note_off_c, 0, 65, 67
1, 369253, Control_c, 0, 64, 124
1, 369253, Control_c, 0, 67, 46
1, 369267, Control_c, 0, 67, 45
1, 369297, Control_c, 0, 67, 45
1, 369312, Control_c, 0, 67, 46
1, 369318, Note_off_c, 0, 50, 23
1, 369327, Control_c, 0, 64, 124
1, 369357, Control_c, 0, 64, 125
1, 369379, Control_c, 0, 67, 46
1, 369395, Control_c, 0, 64, 121
1, 369409, Control_c, 0, 64, 100
1, 369409, Control_c, 0, 67, 45
1, 369411, Note_on_c, 0, 50, 86
1, 369416, Note_on_c, 0, 38, 73
1, 369424, Control_c, 0, 64, 72
1, 369424, Control_c, 0, 67, 44
1, 369435, Note_off_c, 0, 50, 70
1, 369439, Control_c, 0, 64, 0
1, 369444, Note_off_c, 0, 38, 63
1, 369458, Note_on_c, 0, 53, 70
1, 369469, Control_c, 0, 67, 44
1, 369483, Control_c, 0, 67, 44
1, 369490, Note_off_c, 0, 53, 67
1, 369498, Control_c, 0, 67, 45
1, 369505, Note_on_c, 0, 57, 65
1, 369523, Note_on_c, 0, 62, 59
1, 369526, Note_on_c, 0, 65, 61
1, 369528, Control_c, 0, 67, 45
1, 369534, Note_off_c, 0, 57, 65
1, 369543, Control_c, 0, 67, 46
1, 369556, Note_off_c, 0, 62, 64
1, 369558, Note_off_c, 0, 65, 67
1, 369589, Note_on_c, 0, 53, 90
1, 369603, Control_c, 0, 67, 46
1, 369624, Note_off_c, 0, 53, 68
1, 369632, Control_c, 0, 67, 46
1, 369647, Control_c, 0, 67, 45
1, 369649, Note_on_c, 0, 57, 65
1, 369662, Control_c, 0, 67, 45
1, 369676, Note_off_c, 0, 57, 65
1, 369677, Control_c, 0, 67, 44
1, 369704, Note_on_c, 0, 65, 72
1, 369706, Note_on_c, 0, 69, 69
1, 369707, Control_c, 0, 67, 43
1, 369709, Note_on_c, 0, 62, 65
1, 369722, Control_c, 0, 67, 43
1, 369733, Note_off_c, 0, 69, 69
1, 369734, Note_off_c, 0, 65, 66
1, 369739, Note_off_c, 0, 62, 65
1, 369752, Control_c, 0, 67, 42
1, 369779, Note_on_c, 0, 52, 91
1, 369781, Note_on_c, 0, 40, 79
1, 369796, Control_c, 0, 67, 42
1, 369815, Note_off_c, 0, 40, 65
1, 369821, Note_off_c, 0, 52, 66
1, 369852, Note_on_c, 0, 56, 68
1, 369885, Control_c, 0, 67, 42
1, 369891, Note_off_c, 0, 56, 63
1, 369918, Note_on_c, 0, 68, 69
1, 369921, Note_on_c, 0, 62, 52
1, 369927, Note_on_c, 0, 64, 48
1, 369929, Control_c, 0, 67, 42
1, 369952, Note_off_c, 0, 64, 60
1, 369955, Note_off_c, 0, 62, 62
1, 369959, Control_c, 0, 67, 41
1, 369961, Note_off_c, 0, 68, 60
1, 369974, Control_c, 0, 67, 41
1, 369981, Note_on_c, 0, 56, 88
1, 369989, Control_c, 0, 67, 40
1, 370004, Control_c, 0, 67, 40
1, 370010, Note_off_c, 0, 56, 66
1, 370045, Note_on_c, 0, 59, 73
1, 370048, Control_c, 0, 67, 39
1, 370078, Control_c, 0, 67, 38
1, 370093, Control_c, 0, 67, 37
1, 370101, Note_off_c, 0, 59, 61
1, 370102, Note_on_c, 0, 71, 70
1, 370107, Control_c, 0, 67, 34
1, 370114, Note_on_c, 0, 62, 60
1, 370129, Control_c, 0, 67, 31
1, 370143, Control_c, 0, 67, 28
1, 370152, Note_off_c, 0, 71, 59
1, 370158, Control_c, 0, 67, 26
1, 370159, Note_off_c, 0, 62, 59
1, 370171, Note_on_c, 0, 67, 10
1, 370175, Note_on_c, 0, 55, 90
1, 370180, Note_on_c, 0, 43, 79
1, 370187, Control_c, 0, 67, 26
1, 370202, Note_off_c, 0, 67, 42
1, 370202, Control_c, 0, 67, 27
1, 370205, Note_off_c, 0, 43, 65
1, 370211, Note_off_c, 0, 55, 67
1, 370217, Control_c, 0, 67, 27
1, 370231, Control_c, 0, 67, 28
1, 370236, Note_on_c, 0, 58, 75
1, 370276, Control_c, 0, 67, 29
1, 370282, Note_off_c, 0, 58, 63
1, 370290, Note_on_c, 0, 62, 69
1, 370291, Control_c, 0, 67, 29
1, 370299, Note_on_c, 0, 70, 77
1, 370320, Note_off_c, 0, 62, 64
1, 370323, Note_on_c, 0, 67, 33
1, 370335, Control_c, 0, 67, 29
1, 370351, Control_c, 0, 67, 28
1, 370352, Note_off_c, 0, 67, 46
1, 370358, Note_off_c, 0, 70, 63
1, 370366, Control_c, 0, 67, 27
1, 370369, Note_on_c, 0, 58, 87
1, 370381, Control_c, 0, 67, 27
1, 370395, Control_c, 0, 67, 26
1, 370407, Note_off_c, 0, 58, 62
1, 370410, Control_c, 0, 67, 25
1, 370425, Control_c, 0, 67, 24
1, 370440, Control_c, 0, 67, 21
1, 370442, Note_on_c, 0, 62, 61
1, 370454, Control_c, 0, 67, 17
1, 370469, Control_c, 0, 67, 11
1, 370480, Note_off_c, 0, 62, 64
1, 370484, Control_c, 0, 67, 0
1, 370490, Note_on_c, 0, 70, 44
1, 370502, Note_on_c, 0, 67, 20
1, 370503, Note_off_c, 0, 70, 41
1, 370540, Note_off_c, 0, 67, 29
1, 370544, Note_on_c, 0, 71, 3
1, 370547, Note_on_c, 0, 57, 88
1, 370552, Note_on_c, 0, 45, 77
1, 370558, Control_c, 0, 64, 64
1, 370573, Control_c, 0, 64, 69
1, 370576, Note_off_c, 0, 45, 66
1, 370581, Note_off_c, 0, 71, 30
1, 370584, Note_off_c, 0, 57, 62
1, 370588, Control_c, 0, 64, 71
1, 370603, Control_c, 0, 64, 73
1, 370618, Control_c, 0, 64, 74
1, 370624, Note_on_c, 0, 61, 80
1, 370633, Control_c, 0, 64, 75
1, 370647, Control_c, 0, 64, 76
1, 370670, Note_on_c, 0, 64, 67
1, 370672, Note_off_c, 0, 61, 63
1, 370678, Note_on_c, 0, 67, 31
1, 370683, Note_on_c, 0, 73, 71
1, 370692, Control_c, 0, 67, 11
1, 370699, Note_off_c, 0, 64, 66
1, 370707, Control_c, 0, 64, 75
1, 370707, Control_c, 0, 67, 22
1, 370708, Note_off_c, 0, 67, 57
1, 370721, Control_c, 0, 64, 74
1, 370721, Control_c, 0, 67, 39
1, 370724, Note_off_c, 0, 73, 59
1, 370736, Control_c, 0, 64, 71
1, 370736, Control_c, 0, 67, 54
1, 370741, Note_on_c, 0, 61, 91
1, 370751, Control_c, 0, 64, 67
1, 370751, Control_c, 0, 67, 64
1, 370766, Control_c, 0, 64, 62
1, 370766, Control_c, 0, 67, 67
1, 370780, Control_c, 0, 64, 42
1, 370780, Control_c, 0, 67, 68
1, 370786, Note_off_c, 0, 61, 65
1, 370795, Control_c, 0, 64, 0
1, 370805, Note_on_c, 0, 64, 73
1, 370810, Control_c, 0, 67, 69
1, 370825, Control_c, 0, 67, 70
1, 370840, Control_c, 0, 67, 70
1, 370851, Note_off_c, 0, 64, 60
1, 370857, Note_on_c, 0, 70, 65
1, 370858, Note_on_c, 0, 67, 56
1, 370873, Note_on_c, 0, 76, 62
1, 370886, Note_off_c, 0, 67, 63
1, 370892, Control_c, 0, 67, 70
1, 370893, Note_off_c, 0, 70, 67
1, 370904, Note_off_c, 0, 76, 67
1, 370931, Note_on_c, 0, 64, 103
1, 370936, Control_c, 0, 67, 69
1, 370963, Note_off_c, 0, 64, 68
1, 370994, Note_on_c, 0, 67, 75
1, 370995, Control_c, 0, 67, 70
1, 371025, Control_c, 0, 67, 70
1, 371045, Note_off_c, 0, 67, 62
1, 371048, Note_on_c, 0, 79, 68
1, 371055, Note_on_c, 0, 70, 67
1, 371080, Note_off_c, 0, 79, 63
1, 371081, Note_off_c, 0, 70, 68
1, 371084, Control_c, 0, 67, 70
1, 371119, Note_on_c, 0, 67, 95
1, 371128, Control_c, 0, 67, 70
1, 371152, Note_off_c, 0, 67, 65
1, 371187, Note_on_c, 0, 70, 84
1, 371233, Control_c, 0, 67, 70
1, 371234, Note_on_c, 0, 73, 57
1, 371236, Note_off_c, 0, 70, 63
1, 371248, Control_c, 0, 67, 69
1, 371251, Note_on_c, 0, 82, 64
1, 371263, Control_c, 0, 67, 68
1, 371267, Note_off_c, 0, 73, 63
1, 371277, Control_c, 0, 67, 67
1, 371283, Note_off_c, 0, 82, 63
1, 371292, Note_on_c, 0, 66, 98
1, 371292, Control_c, 0, 67, 65
1, 371307, Control_c, 0, 67, 62
1, 371322, Control_c, 0, 67, 61
1, 371337, Control_c, 0, 67, 61
1, 371351, Control_c, 0, 67, 59
1, 371361, Note_on_c, 0, 69, 87
1, 371366, Control_c, 0, 67, 57
1, 371379, Note_off_c, 0, 66, 53
1, 371381, Control_c, 0, 67, 53
1, 371393, Note_off_c, 0, 69, 71
1, 371396, Control_c, 0, 67, 46
1, 371405, Note_on_c, 0, 81, 76
1, 371407, Note_on_c, 0, 74, 55
1, 371411, Control_c, 0, 67, 40
1, 371412, Note_on_c, 0, 78, 71
1, 371426, Control_c, 0, 67, 34
1, 371437, Note_off_c, 0, 74, 69
1, 371441, Control_c, 0, 67, 29
1, 371447, Note_off_c, 0, 78, 66
1, 371455, Note_off_c, 0, 81, 60
1, 371455, Control_c, 0, 67, 24
1, 371466, Note_on_c, 0, 65, 92
1, 371470, Control_c, 0, 67, 19
1, 371470, Note_on_c, 0, 69, 99
1, 371485, Control_c, 0, 67, 14
1, 371500, Control_c, 0, 67, 10
1, 371515, Control_c, 0, 67, 9
1, 371520, Note_off_c, 0, 69, 68
1, 371524, Note_off_c, 0, 65, 65
1, 371533, Note_on_c, 0, 74, 92
1, 371574, Control_c, 0, 67, 9
1, 371581, Note_off_c, 0, 74, 68
1, 371589, Control_c, 0, 67, 10
1, 371590, Note_on_c, 0, 77, 85
1, 371591, Note_on_c, 0, 86, 78
1, 371603, Control_c, 0, 67, 11
1, 371607, Note_on_c, 0, 84, 56
1, 371611, Note_off_c, 0, 77, 68
1, 371625, Control_c, 0, 67, 11
1, 371637, Note_off_c, 0, 84, 37
1, 371646, Note_off_c, 0, 86, 65
1, 371668, Note_on_c, 0, 73, 86
1, 371680, Note_on_c, 0, 72, 79
1, 371694, Note_off_c, 0, 72, 71
1, 371721, Note_on_c, 0, 76, 95
1, 371733, Note_off_c, 0, 73, 63
1, 371759, Control_c, 0, 67, 12
1, 371785, Note_on_c, 0, 85, 87
1, 371787, Note_off_c, 0, 76, 66
1, 371795, Note_on_c, 0, 79, 62
1, 371799, Note_on_c, 0, 81, 67
1, 371801, Note_on_c, 0, 80, 42
1, 371813, Note_off_c, 0, 79, 64
1, 371816, Note_off_c, 0, 81, 65
1, 371826, Note_off_c, 0, 85, 66
1, 371828, Note_off_c, 0, 80, 48
1, 371833, Control_c, 0, 67, 11
1, 371843, Note_on_c, 0, 74, 102
1, 371847, Note_on_c, 0, 62, 93
1, 371848, Control_c, 0, 67, 11
1, 371870, Note_on_c, 0, 72, 61
1, 371877, Control_c, 0, 67, 11
1, 371880, Note_off_c, 0, 74, 65
1, 371891, Note_off_c, 0, 62, 61
1, 371892, Control_c, 0, 67, 12
1, 371898, Note_off_c, 0, 72, 65
1, 371907, Control_c, 0, 67, 13
1, 371922, Control_c, 0, 67, 13
1, 371935, Note_on_c, 0, 77, 70
1, 371950, Note_on_c, 0, 81, 71
1, 371965, Note_on_c, 0, 61, 52
1, 371973, Note_on_c, 0, 88, 87
1, 371979, Note_off_c, 0, 81, 62
1, 371981, Note_off_c, 0, 77, 61
1, 371992, Note_off_c, 0, 61, 57
1, 371997, Control_c, 0, 67, 12
1, 372012, Control_c, 0, 67, 11
1, 372026, Control_c, 0, 67, 11
1, 372028, Note_on_c, 0, 85, 86
1, 372037, Note_on_c, 0, 69, 104
1, 372041, Note_on_c, 0, 61, 97
1, 372041, Control_c, 0, 67, 9
1, 372043, Note_on_c, 0, 64, 81
1, 372056, Control_c, 0, 64, 69
1, 372056, Control_c, 0, 67, 0
1, 372071, Control_c, 0, 64, 96
1, 372074, Note_off_c, 0, 88, 61
1, 372076, Note_on_c, 0, 86, 71
1, 372079, Note_off_c, 0, 69, 69
1, 372081, Note_on_c, 0, 60, 49
1, 372086, Control_c, 0, 64, 127
1, 372093, Note_off_c, 0, 64, 64
1, 372094, Note_on_c, 0, 81, 92
1, 372096, Note_off_c, 0, 61, 64
1, 372105, Note_off_c, 0, 60, 55
1, 372118, Note_off_c, 0, 86, 61
1, 372122, Note_off_c, 0, 85, 62
1, 372150, Note_off_c, 0, 81, 63
1, 372168, Note_on_c, 0, 76, 82
1, 372201, Note_off_c, 0, 76, 61
1, 372278, Control_c, 0, 67, 11
1, 372293, Control_c, 0, 67, 19
1, 372296, Note_on_c, 0, 71, 20
1, 372305, Note_on_c, 0, 67, 79
1, 372308, Control_c, 0, 67, 32
1, 372323, Control_c, 0, 67, 42
1, 372328, Note_off_c, 0, 67, 69
1, 372335, Note_off_c, 0, 71, 38
1, 372338, Control_c, 0, 67, 49
1, 372347, Poly_aftertouch_c, 0, 72, 0
1, 372353, Control_c, 0, 67, 53
1, 372374, Control_c, 0, 67, 54
1, 372389, Control_c, 0, 64, 105
1, 372389, Control_c, 0, 67, 55
1, 372390, Poly_aftertouch_c, 0, 42, 0
1, 372403, Note_on_c, 0, 50, 92
1, 372404, Control_c, 0, 64, 81
1, 372404, Control_c, 0, 67, 56
1, 372418, Control_c, 0, 64, 42
1, 372418, Control_c, 0, 67, 62
1, 372426, Note_on_c, 0, 38, 49
1, 372431, Note_on_c, 0, 36, 46
1, 372432, Note_off_c, 0, 36, 127
1, 372433, Note_off_c, 0, 50, 65
1, 372433, Control_c, 0, 64, 0
1, 372433, Control_c, 0, 67, 70
1, 372448, Control_c, 0, 67, 79
1, 372460, Note_off_c, 0, 38, 34
1, 372463, Control_c, 0, 67, 86
1, 372472, Note_on_c, 0, 53, 69
1, 372478, Control_c, 0, 67, 90
1, 372493, Control_c, 0, 67, 91
1, 372504, Note_off_c, 0, 53, 68
1, 372523, Control_c, 0, 67, 91
1, 372528, Note_on_c, 0, 57, 70
1, 372538, Control_c, 0, 67, 90
1, 372549, Note_on_c, 0, 62, 51
1, 372549, Note_on_c, 0, 65, 59
1, 372552, Control_c, 0, 67, 90
1, 372557, Note_off_c, 0, 57, 64
1, 372567, Control_c, 0, 67, 89
1, 372577, Note_off_c, 0, 62, 62
1, 372582, Note_off_c, 0, 65, 65
1, 372582, Control_c, 0, 67, 89
1, 372597, Control_c, 0, 67, 88
1, 372600, Note_on_c, 0, 53, 87
1, 372638, Note_off_c, 0, 53, 68
1, 372677, Note_on_c, 0, 57, 64
1, 372722, Note_off_c, 0, 57, 61
1, 372730, Control_c, 0, 67, 88
1, 372731, Note_on_c, 0, 62, 61
1, 372741, Note_on_c, 0, 69, 66
1, 372746, Control_c, 0, 67, 87
1, 372761, Control_c, 0, 67, 86
1, 372764, Note_off_c, 0, 62, 63
1, 372773, Note_off_c, 0, 69, 66
1, 372776, Control_c, 0, 67, 86
1, 372791, Control_c, 0, 67, 85
1, 372803, Note_on_c, 0, 44, 74
1, 372803, Note_on_c, 0, 56, 80
1, 372818, Note_on_c, 0, 54, 62
1, 372835, Note_off_c, 0, 56, 67
1, 372838, Note_off_c, 0, 54, 59
1, 372839, Note_off_c, 0, 44, 68
1, 372849, Control_c, 0, 67, 84
1, 372877, Note_on_c, 0, 57, 57
1, 372877, Note_on_c, 0, 59, 45
1, 372894, Control_c, 0, 67, 84
1, 372900, Note_off_c, 0, 57, 57
1, 372904, Note_off_c, 0, 59, 53
1, 372909, Control_c, 0, 67, 83
1, 372923, Control_c, 0, 67, 82
1, 372931, Note_on_c, 0, 72, 58
1, 372938, Control_c, 0, 67, 82
1, 372953, Control_c, 0, 67, 81
1, 372968, Note_off_c, 0, 72, 61
1, 372968, Control_c, 0, 67, 80
1, 372983, Control_c, 0, 67, 79
1, 372985, Note_on_c, 0, 59, 85
1, 372997, Control_c, 0, 67, 78
1, 373012, Control_c, 0, 67, 76
1, 373026, Note_off_c, 0, 59, 67
1, 373027, Control_c, 0, 67, 74
1, 373041, Control_c, 0, 67, 71
1, 373043, Note_on_c, 0, 62, 76
1, 373056, Control_c, 0, 67, 67
1, 373071, Control_c, 0, 67, 64
1, 373086, Control_c, 0, 67, 62
1, 373097, Note_off_c, 0, 62, 62
1, 373101, Control_c, 0, 67, 60
1, 373104, Note_on_c, 0, 65, 64
1, 373120, Note_on_c, 0, 74, 60
1, 373123, Control_c, 0, 67, 58
1, 373134, Note_on_c, 0, 68, 42
1, 373138, Control_c, 0, 67, 56
1, 373140, Note_off_c, 0, 65, 68
1, 373146, Note_off_c, 0, 74, 61
1, 373153, Control_c, 0, 67, 55
1, 373161, Note_off_c, 0, 68, 51
1, 373168, Control_c, 0, 67, 53
1, 373183, Note_on_c, 0, 60, 100
1, 373183, Control_c, 0, 67, 53
1, 373189, Note_on_c, 0, 48, 81
1, 373197, Control_c, 0, 67, 52
1, 373212, Control_c, 0, 67, 52
1, 373214, Note_off_c, 0, 48, 69
1, 373225, Note_off_c, 0, 60, 64
1, 373227, Control_c, 0, 67, 50
1, 373239, Note_on_c, 0, 63, 77
1, 373242, Control_c, 0, 67, 49
1, 373256, Control_c, 0, 67, 48
1, 373271, Control_c, 0, 67, 46
1, 373280, Note_off_c, 0, 63, 63
1, 373286, Control_c, 0, 67, 44
1, 373289, Note_on_c, 0, 67, 70
1, 373289, Note_on_c, 0, 75, 74
1, 373301, Control_c, 0, 67, 42
1, 373308, Note_on_c, 0, 72, 51
1, 373316, Note_off_c, 0, 67, 66
1, 373316, Control_c, 0, 67, 42
1, 373328, Note_off_c, 0, 72, 63
1, 373330, Control_c, 0, 67, 41
1, 373345, Control_c, 0, 67, 40
1, 373348, Note_off_c, 0, 75, 64
1, 373360, Control_c, 0, 67, 39
1, 373366, Note_on_c, 0, 63, 96
1, 373375, Control_c, 0, 67, 37
1, 373390, Control_c, 0, 67, 34
1, 373405, Control_c, 0, 67, 32
1, 373411, Note_off_c, 0, 63, 66
1, 373420, Note_on_c, 0, 67, 89
1, 373420, Control_c, 0, 67, 31
1, 373435, Control_c, 0, 67, 29
1, 373449, Control_c, 0, 67, 28
1, 373464, Control_c, 0, 67, 27
1, 373479, Control_c, 0, 67, 26
1, 373483, Note_on_c, 0, 72, 65
1, 373484, Note_off_c, 0, 67, 62
1, 373485, Note_on_c, 0, 75, 76
1, 373485, Note_on_c, 0, 79, 78
1, 373494, Control_c, 0, 67, 25
1, 373509, Control_c, 0, 67, 24
1, 373510, Note_off_c, 0, 72, 69
1, 373514, Note_off_c, 0, 75, 67
1, 373530, Note_off_c, 0, 79, 62
1, 373555, Note_on_c, 0, 66, 99
1, 373559, Note_on_c, 0, 54, 87
1, 373569, Control_c, 0, 67, 24
1, 373600, Note_off_c, 0, 66, 68
1, 373603, Note_off_c, 0, 54, 64
1, 373613, Control_c, 0, 67, 24
1, 373617, Note_on_c, 0, 69, 81
1, 373628, Control_c, 0, 67, 25
1, 373658, Control_c, 0, 67, 25
1, 373667, Note_off_c, 0, 69, 68
1, 373672, Note_on_c, 0, 72, 80
1, 373677, Note_on_c, 0, 75, 79
1, 373678, Note_on_c, 0, 81, 84
1, 373701, Note_off_c, 0, 72, 64
1, 373707, Note_off_c, 0, 75, 67
1, 373732, Control_c, 0, 67, 25
1, 373735, Note_off_c, 0, 81, 62
1, 373748, Note_on_c, 0, 69, 111
1, 373761, Control_c, 0, 64, 44
1, 373776, Control_c, 0, 64, 56
1, 373776, Control_c, 0, 67, 26
1, 373780, Note_off_c, 0, 69, 70
1, 373790, Control_c, 0, 64, 58
1, 373790, Control_c, 0, 67, 26
1, 373804, Note_on_c, 0, 71, 90
1, 373805, Control_c, 0, 67, 27
1, 373820, Control_c, 0, 64, 58
1, 373820, Control_c, 0, 67, 27
1, 373835, Control_c, 0, 64, 57
1, 373849, Note_on_c, 0, 83, 48
1, 373850, Control_c, 0, 64, 56
1, 373869, Note_off_c, 0, 71, 61
1, 373872, Control_c, 0, 64, 56
1, 373878, Note_on_c, 0, 79, 72
1, 373879, Note_on_c, 0, 74, 68
1, 373887, Control_c, 0, 64, 51
1, 373901, Note_off_c, 0, 74, 75
1, 373902, Control_c, 0, 64, 0
1, 373923, Note_off_c, 0, 79, 62
1, 373932, Control_c, 0, 67, 27
1, 373933, Note_off_c, 0, 83, 61
1, 373946, Control_c, 0, 67, 26
1, 373948, Note_on_c, 0, 58, 90
1, 373948, Note_on_c, 0, 70, 102
1, 373961, Control_c, 0, 67, 24
1, 373976, Control_c, 0, 64, 50
1, 373976, Control_c, 0, 67, 22
1, 373990, Control_c, 0, 64, 65
1, 373990, Control_c, 0, 67, 18
1, 373998, Note_on_c, 0, 67, 12
1, 373998, Note_on_c, 0, 74, 83
1, 373999, Note_off_c, 0, 70, 64
1, 374005, Control_c, 0, 64, 70
1, 374005, Control_c, 0, 67, 13
1, 374020, Control_c, 0, 64, 74
1, 374020, Control_c, 0, 67, 9
1, 374035, Control_c, 0, 64, 76
1, 374035, Control_c, 0, 67, 0
1, 374043, Note_off_c, 0, 67, 31
1, 374050, Control_c, 0, 64, 77
1, 374051, Note_on_c, 0, 86, 68
1, 374054, Note_off_c, 0, 58, 52
1, 374058, Note_on_c, 0, 82, 78
1, 374061, Note_off_c, 0, 74, 66
1, 374066, Note_on_c, 0, 79, 69
1, 374068, Note_off_c, 0, 86, 63
1, 374091, Note_off_c, 0, 82, 65
1, 374092, Poly_aftertouch_c, 0, 78, 0
1, 374092, Note_off_c, 0, 79, 64
1, 374124, Control_c, 0, 64, 76
1, 374126, Note_on_c, 0, 67, 98
1, 374153, Control_c, 0, 64, 76
1, 374168, Control_c, 0, 64, 75
1, 374183, Control_c, 0, 64, 75
1, 374184, Note_off_c, 0, 67, 61
1, 374198, Control_c, 0, 64, 74
1, 374201, Note_on_c, 0, 70, 68
1, 374216, Note_off_c, 0, 70, 69
1, 374243, Note_on_c, 0, 73, 72
1, 374260, Note_on_c, 0, 82, 75
1, 374281, Note_off_c, 0, 82, 70
1, 374281, Note_on_c, 0, 76, 35
1, 374292, Note_off_c, 0, 73, 62
1, 374302, Control_c, 0, 64, 74
1, 374309, Note_off_c, 0, 76, 43
1, 374317, Control_c, 0, 64, 69
1, 374324, Note_on_c, 0, 62, 91
1, 374332, Control_c, 0, 64, 0
1, 374368, Note_off_c, 0, 62, 65
1, 374386, Note_on_c, 0, 67, 76
1, 374436, Note_on_c, 0, 70, 74
1, 374440, Note_off_c, 0, 67, 61
1, 374452, Note_on_c, 0, 77, 51
1, 374466, Note_on_c, 0, 73, 36
1, 374466, Note_on_c, 0, 76, 49
1, 374466, Note_off_c, 0, 70, 65
1, 374475, Note_off_c, 0, 77, 52
1, 374487, Note_off_c, 0, 76, 54
1, 374498, Note_off_c, 0, 73, 33
1, 374506, Note_on_c, 0, 58, 89
1, 374550, Note_off_c, 0, 58, 66
1, 374568, Note_on_c, 0, 62, 77
1, 374624, Note_on_c, 0, 70, 69
1, 374636, Note_off_c, 0, 62, 62
1, 374665, Note_off_c, 0, 70, 63
1, 374694, Note_on_c, 0, 55, 84
1, 374745, Note_off_c, 0, 55, 62
1, 374749, Note_on_c, 0, 58, 84
1, 374766, Note_on_c, 0, 70, 71
1, 374806, Note_off_c, 0, 58, 60
1, 374833, Note_off_c, 0, 70, 64
1, 374869, Note_on_c, 0, 50, 88
1, 374907, Note_off_c, 0, 50, 64
1, 374952, Note_on_c, 0, 65, 68
1, 374966, Note_on_c, 0, 56, 55
1, 374981, Note_off_c, 0, 65, 55
1, 375020, Note_off_c, 0, 56, 58
1, 375045, Note_on_c, 0, 46, 90
1, 375080, Control_c, 0, 64, 50
1, 375094, Note_off_c, 0, 46, 64
1, 375095, Control_c, 0, 64, 65
1, 375110, Control_c, 0, 64, 67
1, 375125, Control_c, 0, 64, 69
1, 375133, Note_on_c, 0, 50, 66
1, 375155, Control_c, 0, 64, 69
1, 375161, Note_on_c, 0, 54, 61
1, 375163, Note_off_c, 0, 50, 64
1, 375166, Note_on_c, 0, 62, 59
1, 375192, Note_on_c, 0, 56, 28
1, 375199, Control_c, 0, 64, 69
1, 375203, Note_off_c, 0, 54, 64
1, 375214, Control_c, 0, 64, 68
1, 375220, Note_off_c, 0, 62, 61
1, 375221, Note_off_c, 0, 56, 45
1, 375225, Note_on_c, 0, 47, 98
1, 375229, Control_c, 0, 64, 67
1, 375244, Control_c, 0, 64, 66
1, 375259, Control_c, 0, 64, 66
1, 375274, Note_off_c, 0, 47, 65
1, 375348, Control_c, 0, 64, 65
1, 375370, Control_c, 0, 64, 59
1, 375385, Control_c, 0, 64, 0
1, 375416, Note_on_c, 0, 48, 92
1, 375419, Note_on_c, 0, 36, 79
1, 375453, Note_off_c, 0, 36, 69
1, 375459, Control_c, 0, 64, 57
1, 375459, Note_off_c, 0, 48, 65
1, 375474, Control_c, 0, 64, 65
1, 375479, Note_on_c, 0, 55, 75
1, 375489, Control_c, 0, 64, 69
1, 375504, Control_c, 0, 64, 70
1, 375518, Control_c, 0, 64, 71
1, 375528, Note_off_c, 0, 55, 61
1, 375551, Note_on_c, 0, 64, 67
1, 375554, Note_on_c, 0, 60, 61
1, 375563, Control_c, 0, 64, 70
1, 375571, Note_off_c, 0, 64, 63
1, 375572, Note_off_c, 0, 60, 61
1, 375577, Control_c, 0, 64, 66
1, 375592, Control_c, 0, 64, 13
1, 375599, Note_on_c, 0, 52, 87
1, 375607, Control_c, 0, 64, 0
1, 375637, Note_off_c, 0, 52, 70
1, 375659, Note_on_c, 0, 55, 77
1, 375705, Note_off_c, 0, 55, 65
1, 375729, Note_on_c, 0, 58, 54
1, 375733, Note_on_c, 0, 67, 70
1, 375734, Note_on_c, 0, 60, 37
1, 375749, Note_off_c, 0, 58, 62
1, 375759, Note_off_c, 0, 60, 49
1, 375766, Note_off_c, 0, 67, 61
1, 375792, Note_on_c, 0, 53, 92
1, 375796, Note_on_c, 0, 41, 78
1, 375821, Note_off_c, 0, 41, 68
1, 375825, Note_off_c, 0, 53, 65
1, 375852, Note_on_c, 0, 57, 71
1, 375885, Note_off_c, 0, 57, 66
1, 375901, Note_on_c, 0, 60, 65
1, 375904, Note_on_c, 0, 69, 77
1, 375929, Note_off_c, 0, 60, 67
1, 375943, Note_off_c, 0, 69, 66
1, 375968, Note_on_c, 0, 56, 97
1, 376007, Control_c, 0, 64, 68
1, 376022, Control_c, 0, 64, 77
1, 376024, Note_off_c, 0, 56, 63
1, 376032, Note_on_c, 0, 60, 79
1, 376037, Control_c, 0, 64, 82
1, 376052, Control_c, 0, 64, 86
1, 376067, Control_c, 0, 64, 87
1, 376082, Control_c, 0, 64, 88
1, 376090, Note_on_c, 0, 72, 72
1, 376091, Note_off_c, 0, 60, 63
1, 376112, Note_on_c, 0, 66, 59
1, 376119, Control_c, 0, 64, 87
1, 376133, Note_off_c, 0, 66, 65
1, 376135, Control_c, 0, 64, 81
1, 376135, Note_off_c, 0, 72, 61
1, 376149, Control_c, 0, 64, 64
1, 376164, Control_c, 0, 64, 0
1, 376170, Note_on_c, 0, 55, 91
1, 376172, Note_on_c, 0, 43, 84
1, 376207, Note_off_c, 0, 43, 62
1, 376223, Control_c, 0, 64, 52
1, 376227, Note_off_c, 0, 55, 64
1, 376238, Note_on_c, 0, 62, 59
1, 376238, Control_c, 0, 64, 64
1, 376253, Control_c, 0, 64, 68
1, 376258, Note_on_c, 0, 60, 43
1, 376267, Control_c, 0, 64, 69
1, 376285, Note_off_c, 0, 60, 35
1, 376288, Note_off_c, 0, 62, 61
1, 376289, Note_on_c, 0, 67, 73
1, 376297, Note_on_c, 0, 71, 66
1, 376314, Note_off_c, 0, 67, 68
1, 376324, Note_off_c, 0, 71, 66
1, 376351, Note_on_c, 0, 59, 88
1, 376371, Control_c, 0, 64, 70
1, 376389, Note_off_c, 0, 59, 64
1, 376404, Note_on_c, 0, 62, 83
1, 376416, Control_c, 0, 64, 71
1, 376431, Control_c, 0, 64, 71
1, 376445, Control_c, 0, 64, 72
1, 376460, Control_c, 0, 64, 73
1, 376461, Note_off_c, 0, 62, 62
1, 376478, Note_on_c, 0, 65, 57
1, 376490, Control_c, 0, 64, 72
1, 376498, Note_on_c, 0, 67, 24
1, 376498, Note_off_c, 0, 65, 63
1, 376505, Control_c, 0, 64, 66
1, 376520, Control_c, 0, 64, 0
1, 376532, Note_on_c, 0, 60, 92
1, 376534, Note_off_c, 0, 67, 43
1, 376538, Note_on_c, 0, 48, 87
1, 376556, Note_off_c, 0, 60, 64
1, 376565, Note_off_c, 0, 48, 69
1, 376600, Note_on_c, 0, 63, 70
1, 376630, Note_on_c, 0, 75, 74
1, 376636, Note_on_c, 0, 67, 60
1, 376642, Note_off_c, 0, 63, 63
1, 376661, Note_off_c, 0, 75, 66
1, 376669, Note_off_c, 0, 67, 65
1, 376713, Note_on_c, 0, 51, 95
1, 376727, Control_c, 0, 64, 57
1, 376743, Control_c, 0, 64, 73
1, 376757, Control_c, 0, 64, 80
1, 376772, Control_c, 0, 64, 84
1, 376776, Note_off_c, 0, 51, 62
1, 376785, Note_on_c, 0, 49, 2
1, 376787, Control_c, 0, 64, 86
1, 376794, Note_on_c, 0, 55, 72
1, 376802, Control_c, 0, 64, 87
1, 376816, Control_c, 0, 64, 88
1, 376827, Note_off_c, 0, 49, 36
1, 376848, Note_off_c, 0, 55, 63
1, 376848, Note_on_c, 0, 61, 71
1, 376869, Control_c, 0, 64, 85
1, 376877, Note_on_c, 0, 67, 67
1, 376884, Control_c, 0, 64, 77
1, 376890, Note_off_c, 0, 61, 63
1, 376898, Control_c, 0, 64, 62
1, 376907, Note_off_c, 0, 67, 62
1, 376913, Control_c, 0, 64, 0
1, 376925, Note_on_c, 0, 50, 99
1, 376930, Note_on_c, 0, 38, 81
1, 376958, Control_c, 0, 64, 46
1, 376964, Note_off_c, 0, 38, 68
1, 376972, Control_c, 0, 64, 67
1, 376977, Note_off_c, 0, 50, 63
1, 376987, Control_c, 0, 64, 73
1, 376989, Note_on_c, 0, 57, 74
1, 377002, Control_c, 0, 64, 77
1, 377016, Control_c, 0, 64, 79
1, 377039, Note_on_c, 0, 62, 75
1, 377044, Note_off_c, 0, 57, 61
1, 377045, Note_on_c, 0, 66, 75
1, 377066, Note_off_c, 0, 62, 66
1, 377082, Note_off_c, 0, 66, 65
1, 377113, Note_on_c, 0, 54, 96
1, 377131, Note_on_c, 0, 55, 91
1, 377157, Note_off_c, 0, 54, 60
1, 377167, Note_off_c, 0, 55, 63
1, 377170, Note_on_c, 0, 57, 81
1, 377198, Note_off_c, 0, 57, 66
1, 377226, Note_on_c, 0, 60, 75
1, 377226, Note_on_c, 0, 62, 76
1, 377241, Note_on_c, 0, 69, 74
1, 377251, Note_off_c, 0, 60, 67
1, 377257, Note_off_c, 0, 62, 65
1, 377268, Control_c, 0, 64, 76
1, 377278, Note_off_c, 0, 69, 66
1, 377283, Control_c, 0, 64, 66
1, 377298, Control_c, 0, 64, 0
1, 377301, Note_on_c, 0, 55, 95
1, 377306, Note_on_c, 0, 43, 89
1, 377333, Note_off_c, 0, 43, 66
1, 377336, Note_off_c, 0, 55, 64
1, 377367, Note_on_c, 0, 59, 78
1, 377411, Note_on_c, 0, 62, 84
1, 377413, Note_off_c, 0, 59, 65
1, 377424, Note_on_c, 0, 71, 69
1, 377444, Note_off_c, 0, 62, 63
1, 377462, Note_off_c, 0, 71, 63
1, 377480, Note_on_c, 0, 58, 101
1, 377530, Note_off_c, 0, 58, 66
1, 377536, Control_c, 0, 64, 61
1, 377545, Note_on_c, 0, 62, 93
1, 377551, Control_c, 0, 64, 69
1, 377566, Control_c, 0, 64, 76
1, 377580, Control_c, 0, 64, 83
1, 377595, Control_c, 0, 64, 86
1, 377604, Note_on_c, 0, 68, 80
1, 377605, Note_off_c, 0, 62, 63
1, 377605, Note_on_c, 0, 74, 73
1, 377617, Control_c, 0, 64, 87
1, 377646, Control_c, 0, 64, 85
1, 377653, Note_off_c, 0, 68, 62
1, 377661, Control_c, 0, 64, 74
1, 377663, Note_off_c, 0, 74, 64
1, 377676, Control_c, 0, 64, 0
1, 377683, Note_on_c, 0, 57, 106
1, 377688, Note_on_c, 0, 45, 96
1, 377726, Note_off_c, 0, 45, 67
1, 377738, Note_on_c, 0, 64, 87
1, 377747, Note_off_c, 0, 57, 61
1, 377750, Control_c, 0, 64, 63
1, 377764, Control_c, 0, 64, 71
1, 377779, Control_c, 0, 64, 79
1, 377794, Note_on_c, 0, 69, 81
1, 377794, Note_off_c, 0, 64, 62
1, 377794, Control_c, 0, 64, 84
1, 377803, Note_on_c, 0, 73, 78
1, 377809, Control_c, 0, 64, 86
1, 377824, Control_c, 0, 64, 87
1, 377830, Note_off_c, 0, 69, 61
1, 377833, Note_off_c, 0, 73, 65
1, 377871, Note_on_c, 0, 61, 99
1, 377909, Note_on_c, 0, 64, 91
1, 377928, Note_off_c, 0, 61, 62
1, 377961, Note_off_c, 0, 64, 67
1, 377975, Note_on_c, 0, 67, 87
1, 377983, Note_on_c, 0, 69, 79
1, 377990, Note_on_c, 0, 76, 81
1, 378002, Control_c, 0, 64, 86
1, 378009, Note_off_c, 0, 69, 70
1, 378012, Note_off_c, 0, 67, 61
1, 378016, Control_c, 0, 64, 83
1, 378031, Control_c, 0, 64, 74
1, 378034, Note_off_c, 0, 76, 64
1, 378046, Control_c, 0, 64, 63
1, 378056, Note_on_c, 0, 62, 103
1, 378061, Note_on_c, 0, 50, 89
1, 378061, Control_c, 0, 64, 54
1, 378076, Control_c, 0, 64, 66
1, 378087, Note_off_c, 0, 50, 65
1, 378091, Control_c, 0, 64, 74
1, 378101, Note_off_c, 0, 62, 63
1, 378106, Control_c, 0, 64, 85
1, 378119, Note_on_c, 0, 65, 85
1, 378120, Control_c, 0, 64, 99
1, 378135, Control_c, 0, 64, 114
1, 378141, Note_off_c, 0, 65, 73
1, 378150, Control_c, 0, 64, 127
1, 378164, Note_on_c, 0, 69, 93
1, 378177, Note_on_c, 0, 77, 85
1, 378204, Note_on_c, 0, 74, 57
1, 378204, Note_off_c, 0, 69, 67
1, 378224, Note_off_c, 0, 74, 66
1, 378225, Note_off_c, 0, 77, 62
1, 378233, Note_on_c, 0, 65, 104
1, 378257, Note_off_c, 0, 65, 76
1, 378313, Control_c, 0, 64, 120
1, 378315, Note_on_c, 0, 69, 94
1, 378329, Control_c, 0, 64, 98
1, 378344, Control_c, 0, 64, 74
1, 378362, Note_off_c, 0, 69, 66
1, 378366, Control_c, 0, 64, 0
1, 378387, Note_on_c, 0, 74, 85
1, 378424, Note_on_c, 0, 53, 96
1, 378428, Note_on_c, 0, 41, 96
1, 378433, Note_off_c, 0, 74, 64
1, 378440, Control_c, 0, 64, 23
1, 378453, Note_off_c, 0, 41, 71
1, 378455, Control_c, 0, 64, 70
1, 378458, Note_off_c, 0, 53, 68
1, 378459, Note_on_c, 0, 52, 34
1, 378460, Note_off_c, 0, 52, 127
1, 378470, Control_c, 0, 64, 80
1, 378484, Control_c, 0, 64, 94
1, 378485, Note_on_c, 0, 65, 94
1, 378493, Poly_aftertouch_c, 0, 52, 0
1, 378499, Control_c, 0, 64, 110
1, 378514, Control_c, 0, 64, 127
1, 378527, Note_off_c, 0, 65, 70
1, 378552, Note_on_c, 0, 77, 89
1, 378577, Note_on_c, 0, 79, 60
1, 378586, Note_off_c, 0, 77, 66
1, 378598, Note_off_c, 0, 79, 44
1, 378599, Note_on_c, 0, 62, 100
1, 378601, Note_on_c, 0, 65, 97
1, 378620, Note_on_c, 0, 53, 63
1, 378648, Note_off_c, 0, 53, 60
1, 378661, Note_on_c, 0, 77, 99
1, 378673, Note_off_c, 0, 62, 58
1, 378689, Poly_aftertouch_c, 0, 60, 127
1, 378702, Note_off_c, 0, 65, 58
1, 378715, Note_on_c, 0, 89, 99
1, 378722, Note_off_c, 0, 77, 62
1, 378751, Control_c, 0, 64, 114
1, 378756, Note_off_c, 0, 89, 67
1, 378761, Poly_aftertouch_c, 0, 60, 0
1, 378766, Control_c, 0, 64, 81
1, 378780, Control_c, 0, 64, 0
1, 378788, Note_on_c, 0, 64, 101
1, 378794, Note_on_c, 0, 53, 84
1, 378805, Note_on_c, 0, 61, 72
1, 378825, Control_c, 0, 64, 68
1, 378827, Note_on_c, 0, 60, 46
1, 378828, Note_off_c, 0, 64, 66
1, 378830, Note_on_c, 0, 88, 100
1, 378830, Note_off_c, 0, 61, 64
1, 378840, Control_c, 0, 64, 80
1, 378842, Note_off_c, 0, 53, 65
1, 378853, Note_off_c, 0, 60, 34
1, 378855, Control_c, 0, 64, 96
1, 378869, Control_c, 0, 64, 112
1, 378883, Note_off_c, 0, 88, 65
1, 378884, Control_c, 0, 64, 121
1, 378898, Note_on_c, 0, 76, 98
1, 378932, Note_off_c, 0, 76, 71
1, 378969, Note_on_c, 0, 53, 94
1, 378974, Note_on_c, 0, 41, 86
1, 379010, Note_off_c, 0, 53, 64
1, 379013, Note_off_c, 0, 41, 63
1, 379020, Note_on_c, 0, 76, 92
1, 379048, Control_c, 0, 64, 121
1, 379062, Control_c, 0, 64, 113
1, 379077, Control_c, 0, 64, 99
1, 379079, Note_off_c, 0, 76, 68
1, 379092, Control_c, 0, 64, 78
1, 379097, Note_on_c, 0, 64, 94
1, 379113, Control_c, 0, 64, 0
1, 379144, Note_off_c, 0, 64, 64
1, 379155, Note_on_c, 0, 53, 103
1, 379156, Note_on_c, 0, 41, 90
1, 379160, Control_c, 0, 64, 42
1, 379174, Control_c, 0, 64, 68
1, 379179, Note_off_c, 0, 41, 69
1, 379189, Control_c, 0, 64, 83
1, 379196, Note_off_c, 0, 53, 67
1, 379204, Control_c, 0, 64, 112
1, 379207, Note_on_c, 0, 43, 18
1, 379218, Control_c, 0, 64, 127
1, 379224, Note_on_c, 0, 75, 50
1, 379242, Note_on_c, 0, 63, 99
1, 379248, Note_off_c, 0, 75, 59
1, 379256, Note_off_c, 0, 43, 47
1, 379274, Note_off_c, 0, 63, 63
1, 379275, Poly_aftertouch_c, 0, 73, 127
1, 379321, Poly_aftertouch_c, 0, 73, 0
1, 379351, Note_on_c, 0, 63, 72
1, 379352, Note_on_c, 0, 62, 101
1, 379359, Note_on_c, 0, 53, 77
1, 379373, Note_on_c, 0, 60, 30
1, 379390, Note_off_c, 0, 63, 0
1, 379390, Note_on_c, 0, 63, 45
1, 379409, Note_off_c, 0, 60, 42
1, 379420, Note_on_c, 0, 75, 86
1, 379420, Note_off_c, 0, 63, 30
1, 379426, Note_on_c, 0, 87, 86
1, 379431, Note_off_c, 0, 53, 62
1, 379440, Note_off_c, 0, 75, 69
1, 379445, Note_on_c, 0, 85, 53
1, 379448, Note_off_c, 0, 62, 55
1, 379465, Note_off_c, 0, 85, 64
1, 379478, Note_off_c, 0, 87, 64
1, 379500, Control_c, 0, 64, 108
1, 379515, Control_c, 0, 64, 77
1, 379528, Note_on_c, 0, 62, 101
1, 379530, Control_c, 0, 64, 0
1, 379533, Note_on_c, 0, 59, 88
1, 379534, Note_on_c, 0, 53, 86
1, 379559, Control_c, 0, 64, 43
1, 379574, Control_c, 0, 64, 70
1, 379580, Note_off_c, 0, 59, 64
1, 379580, Note_off_c, 0, 62, 63
1, 379586, Note_on_c, 0, 86, 91
1, 379589, Control_c, 0, 64, 83
1, 379593, Note_off_c, 0, 53, 63
1, 379603, Control_c, 0, 64, 93
1, 379618, Control_c, 0, 64, 101
1, 379633, Control_c, 0, 64, 104
1, 379635, Note_off_c, 0, 86, 66
1, 379635, Note_on_c, 0, 74, 82
1, 379641, Poly_aftertouch_c, 0, 57, 0
1, 379648, Control_c, 0, 64, 104
1, 379671, Note_off_c, 0, 74, 67
1, 379706, Note_on_c, 0, 53, 97
1, 379710, Note_on_c, 0, 41, 87
1, 379741, Note_off_c, 0, 41, 67
1, 379748, Note_off_c, 0, 53, 65
1, 379767, Note_on_c, 0, 74, 88
1, 379824, Note_off_c, 0, 74, 61
1, 379826, Control_c, 0, 64, 102
1, 379839, Note_on_c, 0, 62, 87
1, 379841, Control_c, 0, 64, 92
1, 379863, Control_c, 0, 64, 74
1, 379879, Control_c, 0, 64, 0
1, 379888, Note_off_c, 0, 62, 63
1, 379902, Note_on_c, 0, 53, 98
1, 379906, Note_on_c, 0, 41, 85
1, 379930, Note_off_c, 0, 41, 68
1, 379939, Control_c, 0, 64, 63
1, 379942, Note_off_c, 0, 53, 66
1, 379954, Control_c, 0, 64, 75
1, 379969, Control_c, 0, 64, 90
1, 379984, Note_on_c, 0, 61, 94
1, 379984, Control_c, 0, 64, 109
1, 379998, Control_c, 0, 64, 127
1, 380018, Note_off_c, 0, 61, 63
1, 380032, Note_on_c, 0, 73, 82
1, 380069, Note_off_c, 0, 73, 64
1, 380096, Note_on_c, 0, 58, 91
1, 380101, Note_on_c, 0, 61, 99
1, 380118, Note_on_c, 0, 53, 50
1, 380144, Note_off_c, 0, 53, 64
1, 380169, Note_on_c, 0, 73, 93
1, 380193, Note_off_c, 0, 58, 59
1, 380212, Note_off_c, 0, 73, 63
1, 380216, Note_on_c, 0, 85, 75
1, 380233, Note_off_c, 0, 61, 63
1, 380260, Note_off_c, 0, 85, 65
1, 380264, Control_c, 0, 64, 85
1, 380279, Control_c, 0, 64, 64
1, 380286, Note_on_c, 0, 53, 93
1, 380287, Note_on_c, 0, 60, 97
1, 380294, Control_c, 0, 64, 0
1, 380309, Control_c, 0, 64, 62
1, 380324, Control_c, 0, 64, 71
1, 380339, Control_c, 0, 64, 78
1, 380342, Note_off_c, 0, 60, 61
1, 380345, Note_on_c, 0, 84, 83
1, 380353, Control_c, 0, 64, 85
1, 380368, Control_c, 0, 64, 90
1, 380378, Note_off_c, 0, 84, 67
1, 380380, Note_off_c, 0, 53, 59
1, 380383, Control_c, 0, 64, 93
1, 380398, Control_c, 0, 64, 94
1, 380405, Note_on_c, 0, 72, 72
1, 380413, Control_c, 0, 64, 94
1, 380430, Note_off_c, 0, 72, 69
1, 380457, Control_c, 0, 64, 88
1, 380465, Note_on_c, 0, 65, 90
1, 380472, Control_c, 0, 64, 74
1, 380478, Note_on_c, 0, 53, 74
1, 380487, Control_c, 0, 64, 0
1, 380499, Note_off_c, 0, 53, 71
1, 380506, Note_off_c, 0, 65, 64
1, 380517, Note_on_c, 0, 77, 78
1, 380528, Note_on_c, 0, 69, 72
1, 380569, Note_off_c, 0, 77, 61
1, 380587, Note_off_c, 0, 69, 62
1, 380602, Note_on_c, 0, 65, 60
1, 380629, Note_off_c, 0, 65, 66
1, 380660, Note_on_c, 0, 64, 78
1, 380667, Note_on_c, 0, 58, 58
1, 380668, Note_on_c, 0, 55, 61
1, 380696, Note_off_c, 0, 64, 63
1, 380699, Note_off_c, 0, 55, 66
1, 380706, Note_off_c, 0, 58, 64
1, 380714, Note_on_c, 0, 70, 75
1, 380722, Note_on_c, 0, 76, 59
1, 380765, Note_off_c, 0, 70, 62
1, 380774, Note_off_c, 0, 76, 63
1, 380788, Note_on_c, 0, 67, 69
1, 380814, Note_off_c, 0, 67, 68
1, 380850, Note_on_c, 0, 64, 69
1, 380854, Note_on_c, 0, 61, 68
1, 380858, Note_on_c, 0, 57, 57
1, 380876, Note_off_c, 0, 64, 68
1, 380878, Note_off_c, 0, 61, 66
1, 380881, Note_off_c, 0, 57, 58
1, 380907, Note_on_c, 0, 69, 74
1, 380922, Note_on_c, 0, 73, 51
1, 380945, Note_off_c, 0, 73, 63
1, 380946, Note_off_c, 0, 69, 64
1, 380980, Note_on_c, 0, 67, 69
1, 381008, Note_off_c, 0, 67, 67
1, 381026, Note_on_c, 0, 62, 78
1, 381032, Note_on_c, 0, 50, 71
1, 381043, Control_c, 0, 64, 54
1, 381051, Note_off_c, 0, 62, 67
1, 381057, Control_c, 0, 64, 70
1, 381058, Note_off_c, 0, 50, 65
1, 381071, Note_on_c, 0, 65, 75
1, 381072, Control_c, 0, 64, 81
1, 381081, Note_on_c, 0, 74, 66
1, 381087, Control_c, 0, 64, 94
1, 381102, Control_c, 0, 64, 106
1, 381117, Control_c, 0, 64, 112
1, 381125, Note_off_c, 0, 65, 63
1, 381131, Control_c, 0, 64, 114
1, 381140, Note_on_c, 0, 69, 75
1, 381144, Note_off_c, 0, 74, 63
1, 381146, Control_c, 0, 64, 115
1, 381191, Control_c, 0, 64, 114
1, 381193, Note_off_c, 0, 69, 65
1, 381197, Note_on_c, 0, 65, 78
1, 381206, Control_c, 0, 64, 112
1, 381221, Control_c, 0, 64, 105
1, 381232, Note_off_c, 0, 65, 61
1, 381236, Control_c, 0, 64, 98
1, 381251, Control_c, 0, 64, 89
1, 381252, Note_on_c, 0, 62, 75
1, 381265, Control_c, 0, 64, 79
1, 381280, Control_c, 0, 64, 66
1, 381284, Note_off_c, 0, 62, 64
1, 381295, Control_c, 0, 64, 0
1, 381319, Note_on_c, 0, 57, 79
1, 381349, Note_off_c, 0, 57, 65
1, 381403, Note_on_c, 0, 65, 86
1, 381406, Note_on_c, 0, 53, 85
1, 381430, Note_off_c, 0, 53, 71
1, 381435, Control_c, 0, 64, 63
1, 381439, Note_off_c, 0, 65, 65
1, 381450, Control_c, 0, 64, 70
1, 381454, Note_on_c, 0, 38, 54
1, 381464, Control_c, 0, 64, 75
1, 381479, Control_c, 0, 64, 79
1, 381492, Note_off_c, 0, 38, 64
1, 381494, Control_c, 0, 64, 81
1, 381508, Control_c, 0, 64, 82
1, 381532, Note_on_c, 0, 53, 67
1, 381553, Note_off_c, 0, 53, 65
1, 381554, Control_c, 0, 64, 79
1, 381558, Note_on_c, 0, 52, 36
1, 381569, Control_c, 0, 64, 73
1, 381584, Control_c, 0, 64, 62
1, 381590, Note_off_c, 0, 52, 49
1, 381599, Control_c, 0, 64, 0
1, 381602, Note_on_c, 0, 69, 88
1, 381607, Note_on_c, 0, 57, 75
1, 381628, Note_on_c, 0, 62, 49
1, 381632, Note_off_c, 0, 57, 67
1, 381638, Note_off_c, 0, 69, 64
1, 381643, Control_c, 0, 64, 47
1, 381654, Note_on_c, 0, 41, 59
1, 381655, Note_off_c, 0, 62, 55
1, 381658, Control_c, 0, 64, 69
1, 381673, Control_c, 0, 64, 76
1, 381685, Note_off_c, 0, 41, 66
1, 381687, Control_c, 0, 64, 80
1, 381702, Control_c, 0, 64, 81
1, 381713, Note_on_c, 0, 50, 14
1, 381725, Note_on_c, 0, 57, 72
1, 381747, Control_c, 0, 64, 76
1, 381754, Note_off_c, 0, 57, 65
1, 381760, Note_off_c, 0, 50, 37
1, 381761, Control_c, 0, 64, 67
1, 381776, Control_c, 0, 64, 0
1, 381806, Note_on_c, 0, 56, 78
1, 381812, Note_on_c, 0, 68, 55
1, 381820, Control_c, 0, 64, 59
1, 381829, Note_on_c, 0, 67, 65
1, 381833, Note_off_c, 0, 56, 66
1, 381835, Control_c, 0, 64, 69
1, 381836, Note_off_c, 0, 68, 42
1, 381844, Note_on_c, 0, 66, 20
1, 381850, Control_c, 0, 64, 74
1, 381851, Note_off_c, 0, 67, 65
1, 381861, Note_on_c, 0, 40, 42
1, 381865, Control_c, 0, 64, 77
1, 381880, Control_c, 0, 64, 77
1, 381882, Note_off_c, 0, 66, 55
1, 381895, Note_off_c, 0, 40, 48
1, 381909, Control_c, 0, 64, 74
1, 381918, Note_on_c, 0, 56, 78
1, 381924, Control_c, 0, 64, 65
1, 381939, Control_c, 0, 64, 0
1, 381969, Control_c, 0, 64, 53
1, 381970, Note_off_c, 0, 56, 63
1, 381984, Control_c, 0, 64, 71
1, 381998, Note_on_c, 0, 71, 85
1, 381999, Control_c, 0, 64, 79
1, 382001, Note_on_c, 0, 59, 76
1, 382008, Note_on_c, 0, 62, 66
1, 382013, Control_c, 0, 64, 85
1, 382020, Note_off_c, 0, 59, 66
1, 382028, Note_off_c, 0, 62, 62
1, 382028, Control_c, 0, 64, 87
1, 382033, Note_off_c, 0, 71, 57
1, 382043, Control_c, 0, 64, 88
1, 382051, Note_on_c, 0, 44, 59
1, 382087, Control_c, 0, 64, 88
1, 382092, Note_off_c, 0, 44, 65
1, 382109, Control_c, 0, 64, 84
1, 382122, Note_on_c, 0, 59, 58
1, 382124, Control_c, 0, 64, 76
1, 382139, Control_c, 0, 64, 63
1, 382154, Control_c, 0, 64, 0
1, 382158, Note_off_c, 0, 59, 65
1, 382194, Note_on_c, 0, 70, 87
1, 382195, Note_on_c, 0, 58, 78
1, 382199, Control_c, 0, 64, 63
1, 382211, Note_on_c, 0, 62, 41
1, 382213, Control_c, 0, 64, 74
1, 382216, Note_off_c, 0, 58, 69
1, 382228, Control_c, 0, 64, 82
1, 382240, Note_on_c, 0, 43, 69
1, 382243, Note_off_c, 0, 62, 46
1, 382243, Control_c, 0, 64, 87
1, 382249, Note_off_c, 0, 70, 63
1, 382258, Control_c, 0, 64, 88
1, 382270, Note_off_c, 0, 43, 63
1, 382273, Control_c, 0, 64, 89
1, 382287, Control_c, 0, 64, 88
1, 382302, Control_c, 0, 64, 85
1, 382310, Note_on_c, 0, 58, 65
1, 382317, Control_c, 0, 64, 76
1, 382333, Control_c, 0, 64, 62
1, 382348, Control_c, 0, 64, 0
1, 382365, Note_off_c, 0, 58, 65
1, 382377, Control_c, 0, 64, 53
1, 382389, Note_on_c, 0, 74, 87
1, 382392, Control_c, 0, 64, 68
1, 382396, Note_on_c, 0, 62, 80
1, 382407, Control_c, 0, 64, 76
1, 382413, Note_on_c, 0, 67, 60
1, 382419, Note_off_c, 0, 62, 68
1, 382422, Control_c, 0, 64, 81
1, 382431, Note_off_c, 0, 67, 63
1, 382436, Control_c, 0, 64, 82
1, 382439, Note_on_c, 0, 46, 74
1, 382444, Note_off_c, 0, 74, 66
1, 382476, Note_off_c, 0, 46, 65
1, 382496, Control_c, 0, 64, 80
1, 382510, Control_c, 0, 64, 73
1, 382513, Note_on_c, 0, 62, 65
1, 382525, Control_c, 0, 64, 58
1, 382539, Note_off_c, 0, 62, 67
1, 382540, Control_c, 0, 64, 0
1, 382584, Control_c, 0, 64, 61
1, 382590, Note_on_c, 0, 73, 92
1, 382597, Note_on_c, 0, 61, 82
1, 382599, Control_c, 0, 64, 71
1, 382610, Note_on_c, 0, 67, 48
1, 382614, Control_c, 0, 64, 79
1, 382619, Note_off_c, 0, 61, 70
1, 382627, Note_on_c, 0, 63, 32
1, 382628, Control_c, 0, 64, 85
1, 382633, Note_off_c, 0, 67, 59
1, 382635, Note_on_c, 0, 47, 69
1, 382643, Control_c, 0, 64, 87
1, 382649, Note_on_c, 0, 74, 15
1, 382658, Control_c, 0, 64, 88
1, 382659, Note_off_c, 0, 63, 53
1, 382673, Note_off_c, 0, 47, 66
1, 382679, Note_off_c, 0, 73, 47
1, 382687, Note_off_c, 0, 74, 41
1, 382688, Control_c, 0, 64, 86
1, 382702, Control_c, 0, 64, 79
1, 382715, Note_on_c, 0, 61, 80
1, 382717, Control_c, 0, 64, 67
1, 382726, Note_on_c, 0, 67, 33
1, 382732, Control_c, 0, 64, 0
1, 382762, Control_c, 0, 64, 25
1, 382765, Note_off_c, 0, 67, 41
1, 382765, Note_off_c, 0, 61, 61
1, 382777, Control_c, 0, 64, 67
1, 382789, Note_on_c, 0, 76, 92
1, 382791, Note_on_c, 0, 64, 91
1, 382792, Control_c, 0, 64, 77
1, 382795, Note_on_c, 0, 67, 74
1, 382807, Control_c, 0, 64, 86
1, 382810, Note_off_c, 0, 64, 71
1, 382818, Note_off_c, 0, 67, 69
1, 382822, Control_c, 0, 64, 91
1, 382833, Note_on_c, 0, 49, 81
1, 382836, Control_c, 0, 64, 93
1, 382843, Note_off_c, 0, 76, 65
1, 382858, Control_c, 0, 64, 93
1, 382881, Note_off_c, 0, 49, 64
1, 382903, Control_c, 0, 64, 90
1, 382917, Control_c, 0, 64, 81
1, 382926, Note_on_c, 0, 64, 74
1, 382932, Control_c, 0, 64, 67
1, 382947, Control_c, 0, 64, 0
1, 382961, Note_off_c, 0, 64, 63
1, 382962, Control_c, 0, 64, 43
1, 382977, Control_c, 0, 64, 66
1, 382982, Note_on_c, 0, 79, 95
1, 382983, Note_on_c, 0, 67, 93
1, 382984, Note_on_c, 0, 70, 86
1, 382992, Control_c, 0, 64, 75
1, 383002, Note_off_c, 0, 67, 70
1, 383005, Note_off_c, 0, 70, 67
1, 383006, Control_c, 0, 64, 83
1, 383021, Control_c, 0, 64, 88
1, 383025, Note_off_c, 0, 79, 65
1, 383036, Control_c, 0, 64, 89
1, 383051, Control_c, 0, 64, 88
1, 383054, Note_on_c, 0, 52, 68
1, 383066, Control_c, 0, 64, 84
1, 383069, Note_on_c, 0, 53, 64
1, 383079, Note_off_c, 0, 52, 67
1, 383081, Control_c, 0, 64, 81
1, 383099, Note_off_c, 0, 53, 66
1, 383110, Control_c, 0, 64, 82
1, 383126, Control_c, 0, 64, 86
1, 383135, Note_on_c, 0, 69, 83
1, 383141, Control_c, 0, 64, 91
1, 383156, Control_c, 0, 64, 94
1, 383170, Note_off_c, 0, 69, 60
1, 383170, Control_c, 0, 64, 95
1, 383182, Note_on_c, 0, 82, 98
1, 383182, Note_on_c, 0, 70, 94
1, 383188, Note_on_c, 0, 73, 83
1, 383211, Note_off_c, 0, 73, 68
1, 383220, Note_off_c, 0, 70, 63
1, 383262, Note_off_c, 0, 82, 63
1, 383278, Note_on_c, 0, 55, 55
1, 383289, Control_c, 0, 64, 94
1, 383304, Note_off_c, 0, 55, 58
1, 383304, Control_c, 0, 64, 93
1, 383319, Control_c, 0, 64, 89
1, 383333, Control_c, 0, 64, 76
1, 383348, Control_c, 0, 64, 58
1, 383356, Note_on_c, 0, 70, 65
1, 383363, Control_c, 0, 64, 0
1, 383370, Note_off_c, 0, 70, 71
1, 383377, Note_on_c, 0, 69, 99
1, 383377, Note_on_c, 0, 81, 93
1, 383379, Note_on_c, 0, 74, 84
1, 383392, Control_c, 0, 64, 68
1, 383403, Note_off_c, 0, 74, 67
1, 383407, Control_c, 0, 64, 80
1, 383408, Note_off_c, 0, 69, 68
1, 383418, Note_off_c, 0, 81, 62
1, 383422, Control_c, 0, 64, 93
1, 383437, Control_c, 0, 64, 98
1, 383451, Control_c, 0, 64, 99
1, 383458, Note_on_c, 0, 54, 77
1, 383492, Note_off_c, 0, 54, 64
1, 383525, Control_c, 0, 64, 96
1, 383534, Note_on_c, 0, 69, 72
1, 383540, Control_c, 0, 64, 87
1, 383555, Note_off_c, 0, 69, 68
1, 383555, Control_c, 0, 64, 73
1, 383570, Control_c, 0, 64, 43
1, 383576, Note_on_c, 0, 68, 92
1, 383576, Note_on_c, 0, 74, 85
1, 383579, Note_on_c, 0, 71, 77
1, 383585, Control_c, 0, 64, 0
1, 383607, Control_c, 0, 64, 57
1, 383611, Note_off_c, 0, 68, 66
1, 383613, Note_off_c, 0, 71, 64
1, 383621, Control_c, 0, 64, 70
1, 383629, Note_off_c, 0, 74, 66
1, 383636, Control_c, 0, 64, 76
1, 383637, Note_on_c, 0, 53, 75
1, 383651, Control_c, 0, 64, 82
1, 383665, Control_c, 0, 64, 84
1, 383678, Note_off_c, 0, 53, 66
1, 383710, Control_c, 0, 64, 84
1, 383725, Note_on_c, 0, 68, 82
1, 383725, Control_c, 0, 64, 79
1, 383740, Control_c, 0, 64, 69
1, 383751, Note_off_c, 0, 68, 68
1, 383755, Control_c, 0, 64, 21
1, 383770, Control_c, 0, 64, 0
1, 383784, Control_c, 0, 64, 51
1, 383785, Note_on_c, 0, 73, 86
1, 383787, Note_on_c, 0, 67, 82
1, 383793, Note_on_c, 0, 69, 82
1, 383799, Control_c, 0, 64, 67
1, 383810, Note_off_c, 0, 67, 68
1, 383814, Control_c, 0, 64, 76
1, 383817, Note_off_c, 0, 69, 68
1, 383829, Control_c, 0, 64, 82
1, 383836, Note_off_c, 0, 73, 63
1, 383844, Control_c, 0, 64, 85
1, 383853, Note_on_c, 0, 50, 60
1, 383858, Control_c, 0, 64, 86
1, 383876, Note_off_c, 0, 50, 59
1, 383880, Note_on_c, 0, 52, 50
1, 383888, Control_c, 0, 64, 85
1, 383902, Control_c, 0, 64, 76
1, 383907, Note_off_c, 0, 52, 56
1, 383917, Control_c, 0, 64, 60
1, 383925, Note_on_c, 0, 67, 76
1, 383934, Control_c, 0, 64, 0
1, 383945, Note_off_c, 0, 67, 65
1, 383963, Control_c, 0, 64, 60
1, 383978, Control_c, 0, 64, 70
1, 383981, Note_on_c, 0, 65, 79
1, 383982, Note_on_c, 0, 74, 80
1, 383990, Note_on_c, 0, 69, 70
1, 383993, Control_c, 0, 64, 78
1, 384007, Control_c, 0, 64, 85
1, 384011, Note_off_c, 0, 65, 63
1, 384022, Control_c, 0, 64, 88
1, 384023, Note_off_c, 0, 69, 61
1, 384037, Control_c, 0, 64, 91
1, 384040, Note_off_c, 0, 74, 64
1, 384052, Control_c, 0, 64, 93
1, 384053, Note_on_c, 0, 50, 78
1, 384095, Note_off_c, 0, 50, 58
1, 384096, Control_c, 0, 64, 89
1, 384106, Note_on_c, 0, 57, 72
1, 384111, Control_c, 0, 64, 78
1, 384126, Control_c, 0, 64, 51
1, 384141, Control_c, 0, 64, 0
1, 384164, Note_on_c, 0, 61, 62
1, 384164, Note_on_c, 0, 76, 86
1, 384168, Note_on_c, 0, 64, 86
1, 384185, Control_c, 0, 64, 66
1, 384190, Note_off_c, 0, 61, 56
1, 384192, Note_off_c, 0, 64, 69
1, 384199, Control_c, 0, 64, 76
1, 384202, Note_off_c, 0, 57, 62
1, 384214, Control_c, 0, 64, 86
1, 384225, Note_on_c, 0, 73, 85
1, 384228, Note_on_c, 0, 60, 3
1, 384229, Control_c, 0, 64, 95
1, 384243, Note_off_c, 0, 76, 57
1, 384244, Control_c, 0, 64, 101
1, 384259, Control_c, 0, 64, 105
1, 384260, Note_on_c, 0, 72, 65
1, 384260, Note_off_c, 0, 60, 38
1, 384273, Note_on_c, 0, 69, 84
1, 384273, Control_c, 0, 64, 106
1, 384281, Note_off_c, 0, 73, 61
1, 384287, Note_off_c, 0, 72, 69
1, 384303, Control_c, 0, 64, 105
1, 384318, Note_off_c, 0, 69, 68
1, 384318, Control_c, 0, 64, 97
1, 384333, Control_c, 0, 64, 81
1, 384336, Note_on_c, 0, 64, 76
1, 384355, Control_c, 0, 64, 59
1, 384370, Control_c, 0, 64, 0
1, 384378, Note_off_c, 0, 64, 65
1, 384416, Note_on_c, 0, 61, 73
1, 384462, Note_off_c, 0, 61, 62
1, 384472, Note_on_c, 0, 57, 74
1, 384513, Note_off_c, 0, 57, 60
1, 384555, Note_on_c, 0, 65, 75
1, 384557, Note_on_c, 0, 53, 69
1, 384577, Note_off_c, 0, 53, 66
1, 384583, Note_off_c, 0, 65, 64
1, 384592, Control_c, 0, 64, 51
1, 384606, Note_on_c, 0, 38, 44
1, 384607, Control_c, 0, 64, 66
1, 384622, Control_c, 0, 64, 72
1, 384637, Control_c, 0, 64, 77
1, 384643, Note_off_c, 0, 38, 60
1, 384652, Control_c, 0, 64, 80
1, 384687, Note_on_c, 0, 53, 63
1, 384696, Control_c, 0, 64, 77
1, 384711, Control_c, 0, 64, 69
1, 384726, Control_c, 0, 64, 45
1, 384727, Note_off_c, 0, 53, 61
1, 384741, Control_c, 0, 64, 0
1, 384756, Control_c, 0, 64, 52
1, 384764, Note_on_c, 0, 57, 64
1, 384764, Note_on_c, 0, 69, 69
1, 384765, Note_on_c, 0, 62, 64
1, 384771, Control_c, 0, 64, 65
1, 384786, Note_off_c, 0, 57, 63
1, 384786, Control_c, 0, 64, 69
1, 384795, Note_off_c, 0, 69, 63
1, 384797, Note_off_c, 0, 62, 63
1, 384801, Control_c, 0, 64, 72
1, 384816, Control_c, 0, 64, 75
1, 384819, Note_on_c, 0, 41, 67
1, 384830, Control_c, 0, 64, 76
1, 384846, Note_off_c, 0, 41, 67
1, 384875, Control_c, 0, 64, 74
1, 384890, Control_c, 0, 64, 67
1, 384904, Control_c, 0, 64, 25
1, 384907, Note_on_c, 0, 57, 59
1, 384919, Control_c, 0, 64, 0
1, 384940, Note_off_c, 0, 57, 64
1, 384948, Control_c, 0, 64, 64
1, 384959, Note_on_c, 0, 59, 75
1, 384961, Note_on_c, 0, 62, 67
1, 384962, Note_on_c, 0, 71, 74
1, 384963, Control_c, 0, 64, 70
1, 384964, Note_on_c, 0, 65, 71
1, 384978, Control_c, 0, 64, 76
1, 384983, Note_off_c, 0, 59, 68
1, 384987, Note_off_c, 0, 65, 69
1, 384989, Note_off_c, 0, 62, 64
1, 384993, Control_c, 0, 64, 80
1, 385008, Control_c, 0, 64, 83
1, 385012, Note_off_c, 0, 71, 58
1, 385020, Note_on_c, 0, 44, 71
1, 385022, Control_c, 0, 64, 86
1, 385037, Control_c, 0, 64, 87
1, 385054, Note_off_c, 0, 44, 65
1, 385067, Control_c, 0, 64, 86
1, 385082, Control_c, 0, 64, 82
1, 385093, Note_on_c, 0, 59, 68
1, 385104, Control_c, 0, 64, 72
1, 385119, Control_c, 0, 64, 54
1, 385125, Note_off_c, 0, 59, 62
1, 385134, Control_c, 0, 64, 0
1, 385148, Control_c, 0, 64, 56
1, 385162, Note_on_c, 0, 74, 85
1, 385163, Note_on_c, 0, 68, 84
1, 385163, Control_c, 0, 64, 68
1, 385165, Note_on_c, 0, 62, 85
1, 385177, Note_on_c, 0, 65, 63
1, 385178, Control_c, 0, 64, 76
1, 385186, Note_off_c, 0, 62, 69
1, 385193, Control_c, 0, 64, 82
1, 385194, Note_off_c, 0, 65, 65
1, 385203, Note_off_c, 0, 68, 63
1, 385208, Control_c, 0, 64, 86
1, 385218, Note_off_c, 0, 74, 63
1, 385221, Note_on_c, 0, 47, 70
1, 385222, Control_c, 0, 64, 88
1, 385237, Control_c, 0, 64, 88
1, 385252, Note_off_c, 0, 47, 64
1, 385252, Control_c, 0, 64, 89
1, 385265, Note_on_c, 0, 53, 43
1, 385282, Control_c, 0, 64, 88
1, 385296, Control_c, 0, 64, 85
1, 385297, Note_off_c, 0, 53, 48
1, 385301, Note_on_c, 0, 62, 78
1, 385311, Control_c, 0, 64, 77
1, 385326, Control_c, 0, 64, 66
1, 385338, Note_off_c, 0, 62, 57
1, 385341, Control_c, 0, 64, 52
1, 385355, Control_c, 0, 64, 64
1, 385364, Note_on_c, 0, 63, 90
1, 385367, Note_on_c, 0, 75, 95
1, 385369, Note_on_c, 0, 67, 80
1, 385370, Control_c, 0, 64, 72
1, 385385, Poly_aftertouch_c, 0, 70, 0
1, 385385, Control_c, 0, 64, 80
1, 385388, Note_off_c, 0, 63, 68
1, 385396, Note_off_c, 0, 67, 65
1, 385400, Control_c, 0, 64, 87
1, 385404, Note_on_c, 0, 66, 28
1, 385405, Note_off_c, 0, 66, 127
1, 385415, Control_c, 0, 64, 92
1, 385430, Control_c, 0, 64, 94
1, 385437, Note_on_c, 0, 50, 38
1, 385437, Poly_aftertouch_c, 0, 66, 0
1, 385440, Note_off_c, 0, 75, 61
1, 385472, Note_off_c, 0, 50, 44
1, 385483, Poly_aftertouch_c, 0, 48, 127
1, 385490, Control_c, 0, 64, 94
1, 385493, Note_on_c, 0, 63, 82
1, 385504, Control_c, 0, 64, 90
1, 385519, Control_c, 0, 64, 81
1, 385520, Poly_aftertouch_c, 0, 48, 0
1, 385534, Control_c, 0, 64, 67
1, 385549, Control_c, 0, 64, 57
1, 385551, Note_off_c, 0, 63, 63
1, 385564, Control_c, 0, 64, 64
1, 385567, Note_on_c, 0, 67, 94
1, 385567, Note_on_c, 0, 79, 95
1, 385570, Note_on_c, 0, 72, 90
1, 385579, Control_c, 0, 64, 71
1, 385594, Control_c, 0, 64, 79
1, 385596, Note_off_c, 0, 67, 64
1, 385597, Note_on_c, 0, 51, 77
1, 385597, Note_off_c, 0, 72, 64
1, 385609, Control_c, 0, 64, 86
1, 385624, Control_c, 0, 64, 90
1, 385630, Note_off_c, 0, 79, 62
1, 385639, Control_c, 0, 64, 91
1, 385642, Note_off_c, 0, 51, 64
1, 385662, Note_on_c, 0, 58, 15
1, 385662, Note_on_c, 0, 61, 9
1, 385683, Control_c, 0, 64, 91
1, 385688, Note_on_c, 0, 67, 82
1, 385698, Control_c, 0, 64, 85
1, 385702, Note_off_c, 0, 58, 53
1, 385708, Note_off_c, 0, 61, 45
1, 385709, Note_off_c, 0, 67, 68
1, 385713, Control_c, 0, 64, 73
1, 385727, Control_c, 0, 64, 46
1, 385742, Control_c, 0, 64, 37
1, 385757, Control_c, 0, 64, 66
1, 385764, Note_on_c, 0, 69, 97
1, 385764, Note_on_c, 0, 81, 95
1, 385767, Note_on_c, 0, 72, 89
1, 385768, Note_on_c, 0, 75, 87
1, 385771, Control_c, 0, 64, 75
1, 385785, Note_off_c, 0, 69, 67
1, 385786, Control_c, 0, 64, 85
1, 385791, Note_on_c, 0, 54, 71
1, 385795, Note_off_c, 0, 72, 63
1, 385801, Control_c, 0, 64, 95
1, 385809, Note_off_c, 0, 75, 62
1, 385816, Control_c, 0, 64, 102
1, 385821, Note_off_c, 0, 81, 64
1, 385831, Control_c, 0, 64, 103
1, 385850, Note_off_c, 0, 54, 63
1, 385853, Control_c, 0, 64, 103
1, 385868, Control_c, 0, 64, 98
1, 385875, Note_on_c, 0, 69, 87
1, 385883, Control_c, 0, 64, 92
1, 385898, Control_c, 0, 64, 88
1, 385923, Note_off_c, 0, 69, 63
1, 385928, Control_c, 0, 64, 89
1, 385943, Control_c, 0, 64, 91
1, 385958, Control_c, 0, 64, 93
1, 385967, Note_on_c, 0, 72, 93
1, 385967, Note_on_c, 0, 84, 107
1, 385972, Control_c, 0, 64, 94
1, 385972, Note_on_c, 0, 76, 86
1, 385984, Note_off_c, 0, 72, 71
1, 385989, Note_on_c, 0, 74, 57
1, 385990, Note_off_c, 0, 74, 127
1, 385990, Note_on_c, 0, 57, 73
1, 385991, Note_off_c, 0, 76, 73
1, 386012, Note_off_c, 0, 84, 66
1, 386037, Note_off_c, 0, 57, 61
1, 386085, Note_on_c, 0, 72, 84
1, 386106, Control_c, 0, 64, 92
1, 386116, Note_on_c, 0, 80, 17
1, 386118, Note_off_c, 0, 72, 61
1, 386120, Control_c, 0, 64, 84
1, 386135, Control_c, 0, 64, 70
1, 386147, Note_off_c, 0, 80, 49
1, 386150, Control_c, 0, 64, 0
1, 386174, Note_on_c, 0, 74, 106
1, 386176, Note_on_c, 0, 86, 99
1, 386180, Control_c, 0, 64, 45
1, 386181, Note_on_c, 0, 79, 91
1, 386195, Control_c, 0, 64, 76
1, 386203, Note_on_c, 0, 58, 73
1, 386207, Note_off_c, 0, 74, 68
1, 386209, Note_off_c, 0, 79, 56
1, 386210, Control_c, 0, 64, 89
1, 386225, Control_c, 0, 64, 101
1, 386232, Note_off_c, 0, 86, 62
1, 386240, Control_c, 0, 64, 106
1, 386253, Note_off_c, 0, 58, 66
1, 386254, Control_c, 0, 64, 107
1, 386283, Note_on_c, 0, 80, 63
1, 386288, Note_on_c, 0, 74, 75
1, 386291, Poly_aftertouch_c, 0, 82, 127
1, 386307, Note_off_c, 0, 74, 70
1, 386313, Control_c, 0, 64, 107
1, 386315, Note_off_c, 0, 80, 61
1, 386330, Control_c, 0, 64, 102
1, 386332, Poly_aftertouch_c, 0, 82, 0
1, 386344, Control_c, 0, 64, 92
1, 386359, Control_c, 0, 64, 80
1, 386369, Note_on_c, 0, 72, 93
1, 386370, Note_on_c, 0, 78, 93
1, 386372, Note_on_c, 0, 84, 88
1, 386374, Control_c, 0, 64, 69
1, 386389, Control_c, 0, 64, 65
1, 386396, Note_off_c, 0, 72, 65
1, 386403, Control_c, 0, 64, 68
1, 386408, Note_off_c, 0, 84, 65
1, 386414, Note_off_c, 0, 78, 63
1, 386417, Note_on_c, 0, 57, 64
1, 386418, Control_c, 0, 64, 72
1, 386433, Control_c, 0, 64, 77
1, 386448, Note_off_c, 0, 57, 65
1, 386448, Control_c, 0, 64, 80
1, 386463, Control_c, 0, 64, 82
1, 386477, Control_c, 0, 64, 83
1, 386497, Note_on_c, 0, 72, 87
1, 386522, Note_off_c, 0, 72, 67
1, 386522, Control_c, 0, 64, 82
1, 386533, Poly_aftertouch_c, 0, 65, 0
1, 386537, Control_c, 0, 64, 76
1, 386551, Control_c, 0, 64, 65
1, 386566, Control_c, 0, 64, 0
1, 386572, Note_on_c, 0, 70, 95
1, 386575, Note_on_c, 0, 74, 81
1, 386576, Note_on_c, 0, 82, 85
1, 386603, Control_c, 0, 64, 53
1, 386616, Note_off_c, 0, 74, 62
1, 386618, Control_c, 0, 64, 67
1, 386619, Note_off_c, 0, 70, 62
1, 386633, Control_c, 0, 64, 74
1, 386637, Note_off_c, 0, 82, 63
1, 386648, Control_c, 0, 64, 79
1, 386655, Note_on_c, 0, 55, 37
1, 386663, Control_c, 0, 64, 82
1, 386677, Control_c, 0, 64, 84
1, 386688, Note_off_c, 0, 55, 53
1, 386692, Control_c, 0, 64, 84
1, 386710, Note_on_c, 0, 70, 78
1, 386721, Control_c, 0, 64, 84
1, 386723, Poly_aftertouch_c, 0, 53, 0
1, 386730, Note_off_c, 0, 70, 70
1, 386736, Control_c, 0, 64, 80
1, 386751, Control_c, 0, 64, 71
1, 386766, Control_c, 0, 64, 53
1, 386781, Control_c, 0, 64, 0
1, 386788, Note_on_c, 0, 81, 94
1, 386789, Note_on_c, 0, 69, 94
1, 386792, Note_on_c, 0, 71, 82
1, 386796, Control_c, 0, 64, 57
1, 386801, Note_on_c, 0, 74, 70
1, 386810, Control_c, 0, 64, 68
1, 386811, Note_off_c, 0, 69, 68
1, 386813, Note_off_c, 0, 71, 67
1, 386824, Note_off_c, 0, 74, 71
1, 386825, Control_c, 0, 64, 74
1, 386828, Note_on_c, 0, 53, 71
1, 386838, Note_off_c, 0, 81, 60
1, 386840, Control_c, 0, 64, 80
1, 386855, Control_c, 0, 64, 83
1, 386858, Note_off_c, 0, 53, 67
1, 386870, Control_c, 0, 64, 84
1, 386907, Note_on_c, 0, 69, 77
1, 386929, Control_c, 0, 64, 80
1, 386937, Note_off_c, 0, 69, 68
1, 386944, Control_c, 0, 64, 72
1, 386959, Control_c, 0, 64, 56
1, 386974, Control_c, 0, 64, 0
1, 386989, Control_c, 0, 64, 49
1, 387003, Control_c, 0, 64, 67
1, 387004, Note_on_c, 0, 67, 81
1, 387004, Note_on_c, 0, 79, 83
1, 387004, Note_on_c, 0, 72, 75
1, 387018, Control_c, 0, 64, 74
1, 387025, Note_off_c, 0, 67, 68
1, 387027, Note_off_c, 0, 72, 71
1, 387033, Control_c, 0, 64, 79
1, 387038, Note_off_c, 0, 79, 62
1, 387041, Note_on_c, 0, 52, 62
1, 387048, Control_c, 0, 64, 82
1, 387063, Control_c, 0, 64, 83
1, 387063, Note_off_c, 0, 52, 61
1, 387092, Control_c, 0, 64, 82
1, 387107, Control_c, 0, 64, 77
1, 387117, Note_on_c, 0, 67, 70
1, 387123, Control_c, 0, 64, 68
1, 387138, Control_c, 0, 64, 47
1, 387142, Note_off_c, 0, 67, 68
1, 387152, Control_c, 0, 64, 50
1, 387167, Control_c, 0, 64, 65
1, 387182, Control_c, 0, 64, 72
1, 387194, Note_on_c, 0, 71, 79
1, 387197, Control_c, 0, 64, 78
1, 387198, Note_on_c, 0, 77, 79
1, 387203, Note_on_c, 0, 65, 76
1, 387212, Control_c, 0, 64, 82
1, 387220, Note_off_c, 0, 65, 69
1, 387226, Control_c, 0, 64, 84
1, 387227, Note_off_c, 0, 71, 62
1, 387230, Note_off_c, 0, 77, 55
1, 387241, Control_c, 0, 64, 84
1, 387243, Note_on_c, 0, 50, 65
1, 387266, Note_off_c, 0, 50, 61
1, 387286, Control_c, 0, 64, 84
1, 387300, Control_c, 0, 64, 80
1, 387315, Control_c, 0, 64, 71
1, 387328, Note_on_c, 0, 65, 67
1, 387330, Control_c, 0, 64, 34
1, 387352, Control_c, 0, 64, 0
1, 387368, Note_off_c, 0, 65, 65
1, 387382, Control_c, 0, 64, 60
1, 387397, Control_c, 0, 64, 71
1, 387401, Note_on_c, 0, 64, 85
1, 387401, Note_on_c, 0, 76, 84
1, 387402, Note_on_c, 0, 72, 76
1, 387412, Control_c, 0, 64, 79
1, 387421, Note_off_c, 0, 64, 71
1, 387426, Control_c, 0, 64, 82
1, 387428, Note_off_c, 0, 72, 65
1, 387433, Note_off_c, 0, 76, 65
1, 387441, Control_c, 0, 64, 82
1, 387453, Note_on_c, 0, 50, 58
1, 387456, Control_c, 0, 64, 75
1, 387471, Control_c, 0, 64, 62
1, 387477, Note_off_c, 0, 50, 62
1, 387486, Control_c, 0, 64, 0
1, 387514, Note_on_c, 0, 64, 72
1, 387549, Note_off_c, 0, 64, 63
1, 387597, Note_on_c, 0, 73, 102
1, 387603, Note_on_c, 0, 61, 92
1, 387604, Control_c, 0, 64, 33
1, 387619, Control_c, 0, 64, 68
1, 387626, Note_off_c, 0, 61, 66
1, 387627, Note_on_c, 0, 63, 51
1, 387628, Note_off_c, 0, 63, 127
1, 387628, Note_on_c, 0, 74, 56
1, 387633, Control_c, 0, 64, 80
1, 387648, Note_off_c, 0, 74, 65
1, 387648, Control_c, 0, 64, 88
1, 387657, Note_on_c, 0, 52, 69
1, 387663, Control_c, 0, 64, 94
1, 387674, Note_off_c, 0, 73, 60
1, 387678, Control_c, 0, 64, 95
1, 387693, Control_c, 0, 64, 96
1, 387713, Note_off_c, 0, 52, 63
1, 387725, Note_on_c, 0, 61, 76
1, 387746, Note_off_c, 0, 61, 62
1, 387752, Control_c, 0, 64, 94
1, 387767, Control_c, 0, 64, 89
1, 387782, Control_c, 0, 64, 80
1, 387797, Control_c, 0, 64, 68
1, 387806, Note_on_c, 0, 72, 88
1, 387810, Note_on_c, 0, 60, 82
1, 387812, Control_c, 0, 64, 38
1, 387826, Control_c, 0, 64, 0
1, 387832, Note_off_c, 0, 60, 67
1, 387841, Control_c, 0, 64, 61
1, 387846, Note_off_c, 0, 72, 63
1, 387856, Control_c, 0, 64, 68
1, 387868, Note_on_c, 0, 52, 61
1, 387871, Control_c, 0, 64, 73
1, 387886, Control_c, 0, 64, 76
1, 387900, Control_c, 0, 64, 77
1, 387914, Note_off_c, 0, 52, 62
1, 387916, Control_c, 0, 64, 75
1, 387924, Note_on_c, 0, 60, 74
1, 387931, Control_c, 0, 64, 67
1, 387946, Control_c, 0, 64, 0
1, 387961, Note_off_c, 0, 60, 64
1, 387990, Control_c, 0, 64, 64
1, 388005, Control_c, 0, 64, 71
1, 388011, Note_on_c, 0, 70, 86
1, 388011, Note_on_c, 0, 58, 84
1, 388020, Control_c, 0, 64, 77
1, 388035, Control_c, 0, 64, 79
1, 388052, Note_on_c, 0, 52, 59
1, 388059, Note_off_c, 0, 58, 61
1, 388064, Control_c, 0, 64, 77
1, 388065, Note_off_c, 0, 70, 59
1, 388079, Control_c, 0, 64, 71
1, 388101, Control_c, 0, 64, 61
1, 388116, Control_c, 0, 64, 32
1, 388117, Note_off_c, 0, 52, 63
1, 388130, Control_c, 0, 64, 55
1, 388139, Note_on_c, 0, 58, 58
1, 388145, Control_c, 0, 64, 64
1, 388160, Control_c, 0, 64, 67
1, 388167, Note_off_c, 0, 58, 66
1, 388174, Control_c, 0, 64, 68
1, 388189, Control_c, 0, 64, 64
1, 388204, Control_c, 0, 64, 0
1, 388219, Note_on_c, 0, 69, 85
1, 388220, Note_on_c, 0, 57, 80
1, 388239, Note_off_c, 0, 69, 72
1, 388242, Note_off_c, 0, 57, 69
1, 388267, Note_on_c, 0, 53, 60
1, 388303, Note_off_c, 0, 53, 66
1, 388337, Note_on_c, 0, 57, 66
1, 388373, Note_off_c, 0, 57, 63
1, 388412, Note_on_c, 0, 68, 90
1, 388415, Note_on_c, 0, 56, 85
1, 388421, Note_on_c, 0, 59, 75
1, 388426, Control_c, 0, 64, 59
1, 388441, Control_c, 0, 64, 70
1, 388456, Control_c, 0, 64, 78
1, 388462, Note_on_c, 0, 43, 56
1, 388470, Control_c, 0, 64, 83
1, 388479, Note_off_c, 0, 56, 59
1, 388483, Note_off_c, 0, 59, 59
1, 388485, Control_c, 0, 64, 86
1, 388500, Control_c, 0, 64, 87
1, 388514, Note_off_c, 0, 43, 61
1, 388515, Control_c, 0, 64, 87
1, 388516, Note_off_c, 0, 68, 63
1, 388538, Note_on_c, 0, 56, 70
1, 388560, Control_c, 0, 64, 85
1, 388568, Note_off_c, 0, 56, 64
1, 388574, Control_c, 0, 64, 79
1, 388589, Control_c, 0, 64, 66
1, 388604, Control_c, 0, 64, 33
1, 388619, Control_c, 0, 64, 35
1, 388620, Note_on_c, 0, 67, 86
1, 388626, Note_on_c, 0, 55, 82
1, 388629, Note_on_c, 0, 59, 73
1, 388634, Control_c, 0, 64, 62
1, 388648, Control_c, 0, 64, 68
1, 388652, Note_off_c, 0, 55, 67
1, 388663, Control_c, 0, 64, 73
1, 388666, Note_off_c, 0, 59, 59
1, 388678, Note_on_c, 0, 43, 68
1, 388678, Control_c, 0, 64, 76
1, 388679, Note_off_c, 0, 67, 61
1, 388692, Control_c, 0, 64, 77
1, 388707, Control_c, 0, 64, 77
1, 388724, Control_c, 0, 64, 73
1, 388727, Note_off_c, 0, 43, 59
1, 388738, Control_c, 0, 64, 64
1, 388748, Note_on_c, 0, 55, 78
1, 388753, Control_c, 0, 64, 0
1, 388783, Control_c, 0, 64, 52
1, 388784, Note_off_c, 0, 55, 64
1, 388797, Control_c, 0, 64, 66
1, 388812, Control_c, 0, 64, 70
1, 388824, Note_on_c, 0, 65, 83
1, 388827, Control_c, 0, 64, 74
1, 388828, Note_on_c, 0, 53, 84
1, 388849, Control_c, 0, 64, 77
1, 388864, Control_c, 0, 64, 77
1, 388868, Note_off_c, 0, 53, 64
1, 388869, Note_on_c, 0, 59, 27
1, 388873, Note_on_c, 0, 43, 66
1, 388893, Note_off_c, 0, 65, 61
1, 388894, Control_c, 0, 64, 76
1, 388903, Note_off_c, 0, 59, 43
1, 388909, Control_c, 0, 64, 70
1, 388923, Control_c, 0, 64, 48
1, 388938, Control_c, 0, 64, 0
1, 388950, Note_on_c, 0, 53, 70
1, 388950, Note_off_c, 0, 43, 60
1, 388985, Note_off_c, 0, 53, 66
1, 389012, Control_c, 0, 64, 35
1, 389017, Note_on_c, 0, 64, 85
1, 389020, Note_on_c, 0, 55, 79
1, 389027, Control_c, 0, 64, 65
1, 389030, Note_on_c, 0, 60, 63
1, 389040, Note_off_c, 0, 55, 68
1, 389042, Control_c, 0, 64, 70
1, 389052, Note_on_c, 0, 48, 59
1, 389055, Note_off_c, 0, 64, 67
1, 389057, Control_c, 0, 64, 72
1, 389058, Note_off_c, 0, 60, 64
1, 389086, Control_c, 0, 64, 70
1, 389101, Control_c, 0, 64, 63
1, 389108, Note_off_c, 0, 48, 63
1, 389116, Control_c, 0, 64, 0
1, 389117, Note_on_c, 0, 52, 71
1, 389142, Note_off_c, 0, 52, 69
1, 389208, Note_on_c, 0, 75, 96
1, 389210, Note_on_c, 0, 63, 97
1, 389219, Control_c, 0, 64, 64
1, 389234, Control_c, 0, 64, 73
1, 389249, Control_c, 0, 64, 81
1, 389251, Note_off_c, 0, 63, 64
1, 389264, Control_c, 0, 64, 86
1, 389266, Note_off_c, 0, 75, 61
1, 389269, Note_on_c, 0, 54, 68
1, 389336, Note_off_c, 0, 54, 60
1, 389338, Control_c, 0, 64, 85
1, 389350, Note_on_c, 0, 63, 80
1, 389353, Control_c, 0, 64, 79
1, 389368, Control_c, 0, 64, 69
1, 389374, Note_off_c, 0, 63, 69
1, 389383, Control_c, 0, 64, 41
1, 389397, Control_c, 0, 64, 0
1, 389408, Note_on_c, 0, 74, 88
1, 389410, Note_on_c, 0, 62, 86
1, 389412, Control_c, 0, 64, 52
1, 389427, Control_c, 0, 64, 67
1, 389439, Note_off_c, 0, 62, 64
1, 389442, Control_c, 0, 64, 74
1, 389457, Control_c, 0, 64, 82
1, 389464, Note_off_c, 0, 74, 67
1, 389466, Note_on_c, 0, 54, 69
1, 389471, Control_c, 0, 64, 85
1, 389486, Control_c, 0, 64, 85
1, 389517, Control_c, 0, 64, 84
1, 389532, Control_c, 0, 64, 79
1, 389545, Note_on_c, 0, 62, 78
1, 389546, Control_c, 0, 64, 66
1, 389561, Control_c, 0, 64, 0
1, 389574, Note_off_c, 0, 54, 55
1, 389581, Note_off_c, 0, 62, 51
1, 389598, Control_c, 0, 64, 51
1, 389614, Control_c, 0, 64, 66
1, 389622, Note_on_c, 0, 72, 84
1, 389623, Note_on_c, 0, 60, 85
1, 389628, Control_c, 0, 64, 71
1, 389643, Control_c, 0, 64, 76
1, 389651, Note_off_c, 0, 60, 62
1, 389658, Control_c, 0, 64, 78
1, 389669, Note_on_c, 0, 54, 44
1, 389672, Note_off_c, 0, 72, 65
1, 389673, Control_c, 0, 64, 79
1, 389733, Note_off_c, 0, 54, 61
1, 389741, Note_on_c, 0, 60, 74
1, 389746, Control_c, 0, 64, 75
1, 389760, Note_off_c, 0, 60, 71
1, 389761, Control_c, 0, 64, 65
1, 389776, Control_c, 0, 64, 0
1, 389814, Note_on_c, 0, 71, 89
1, 389817, Note_on_c, 0, 59, 81
1, 389821, Control_c, 0, 64, 43
1, 389836, Note_off_c, 0, 71, 64
1, 389836, Note_off_c, 0, 59, 69
1, 389836, Control_c, 0, 64, 69
1, 389851, Control_c, 0, 64, 76
1, 389856, Note_on_c, 0, 55, 70
1, 389866, Control_c, 0, 64, 80
1, 389880, Control_c, 0, 64, 81
1, 389895, Control_c, 0, 64, 80
1, 389908, Note_off_c, 0, 55, 61
1, 389910, Control_c, 0, 64, 76
1, 389910, Note_on_c, 0, 59, 67
1, 389925, Control_c, 0, 64, 68
1, 389939, Note_off_c, 0, 59, 66
1, 389939, Control_c, 0, 64, 0
1, 389984, Control_c, 0, 64, 50
1, 389999, Control_c, 0, 64, 68
1, 390000, Note_on_c, 0, 70, 96
1, 390003, Note_on_c, 0, 58, 91
1, 390005, Note_on_c, 0, 61, 84
1, 390013, Control_c, 0, 64, 75
1, 390028, Control_c, 0, 64, 83
1, 390043, Control_c, 0, 64, 86
1, 390058, Note_off_c, 0, 58, 60
1, 390058, Control_c, 0, 64, 87
1, 390070, Note_on_c, 0, 45, 53
1, 390073, Control_c, 0, 64, 88
1, 390087, Note_off_c, 0, 70, 61
1, 390091, Note_off_c, 0, 61, 60
1, 390104, Note_off_c, 0, 45, 48
1, 390117, Control_c, 0, 64, 86
1, 390132, Control_c, 0, 64, 79
1, 390137, Note_on_c, 0, 58, 71
1, 390146, Control_c, 0, 64, 67
1, 390160, Note_off_c, 0, 58, 69
1, 390161, Control_c, 0, 64, 0
1, 390206, Note_on_c, 0, 69, 84
1, 390206, Control_c, 0, 64, 65
1, 390211, Note_on_c, 0, 57, 81
1, 390215, Note_on_c, 0, 61, 71
1, 390220, Control_c, 0, 64, 75
1, 390235, Control_c, 0, 64, 81
1, 390238, Note_off_c, 0, 57, 64
1, 390250, Control_c, 0, 64, 82
1, 390262, Note_off_c, 0, 69, 63
1, 390262, Note_off_c, 0, 61, 49
1, 390282, Note_on_c, 0, 45, 65
1, 390295, Control_c, 0, 64, 82
1, 390310, Control_c, 0, 64, 77
1, 390323, Note_off_c, 0, 45, 62
1, 390325, Control_c, 0, 64, 66
1, 390348, Control_c, 0, 64, 0
1, 390354, Note_on_c, 0, 57, 57
1, 390359, Note_on_c, 0, 55, 58
1, 390373, Note_off_c, 0, 57, 64
1, 390388, Note_off_c, 0, 55, 66
1, 390392, Control_c, 0, 64, 64
1, 390407, Control_c, 0, 64, 73
1, 390410, Note_on_c, 0, 67, 86
1, 390415, Note_on_c, 0, 55, 72
1, 390422, Control_c, 0, 64, 81
1, 390437, Control_c, 0, 64, 84
1, 390444, Note_off_c, 0, 55, 65
1, 390451, Note_off_c, 0, 67, 63
1, 390466, Control_c, 0, 64, 82
1, 390471, Note_on_c, 0, 45, 72
1, 390481, Control_c, 0, 64, 73
1, 390496, Control_c, 0, 64, 54
1, 390511, Control_c, 0, 64, 0
1, 390525, Control_c, 0, 64, 48
1, 390540, Control_c, 0, 64, 66
1, 390546, Note_off_c, 0, 45, 64
1, 390555, Control_c, 0, 64, 73
1, 390566, Note_on_c, 0, 54, 67
1, 390569, Control_c, 0, 64, 77
1, 390584, Control_c, 0, 64, 78
1, 390591, Note_on_c, 0, 66, 85
1, 390599, Note_on_c, 0, 62, 63
1, 390599, Control_c, 0, 64, 74
1, 390614, Control_c, 0, 64, 69
1, 390617, Note_off_c, 0, 54, 63
1, 390629, Control_c, 0, 64, 70
1, 390640, Note_off_c, 0, 62, 58
1, 390644, Control_c, 0, 64, 76
1, 390658, Control_c, 0, 64, 84
1, 390673, Control_c, 0, 64, 91
1, 390688, Control_c, 0, 64, 93
1, 390698, Note_off_c, 0, 66, 43
1, 390702, Note_on_c, 0, 54, 57
1, 390703, Control_c, 0, 64, 92
1, 390718, Control_c, 0, 64, 90
1, 390721, Note_off_c, 0, 54, 58
1, 390733, Control_c, 0, 64, 90
1, 390737, Note_on_c, 0, 55, 19
1, 390748, Control_c, 0, 64, 90
1, 390762, Control_c, 0, 64, 92
1, 390769, Note_on_c, 0, 57, 79
1, 390772, Poly_aftertouch_c, 0, 62, 0
1, 390777, Control_c, 0, 64, 95
1, 390783, Note_off_c, 0, 55, 54
1, 390787, Note_on_c, 0, 66, 87
1, 390789, Note_on_c, 0, 69, 88
1, 390792, Control_c, 0, 64, 96
1, 390810, Note_off_c, 0, 57, 65
1, 390834, Note_off_c, 0, 69, 66
1, 390834, Note_off_c, 0, 66, 66
1, 390855, Poly_aftertouch_c, 0, 62, 0
1, 390895, Note_on_c, 0, 57, 77
1, 390974, Note_on_c, 0, 74, 90
1, 390975, Note_on_c, 0, 62, 92
1, 390979, Note_on_c, 0, 66, 87
1, 390988, Note_off_c, 0, 57, 58
1, 390997, Note_off_c, 0, 66, 74
1, 391000, Note_on_c, 0, 69, 43
1, 391014, Note_off_c, 0, 74, 70
1, 391020, Note_off_c, 0, 69, 64
1, 391022, Note_off_c, 0, 62, 60
1, 391029, Control_c, 0, 64, 96
1, 391043, Control_c, 0, 64, 97
1, 391058, Control_c, 0, 64, 98
1, 391073, Control_c, 0, 64, 99
1, 391095, Control_c, 0, 64, 101
1, 391110, Note_on_c, 0, 57, 65
1, 391110, Control_c, 0, 64, 103
1, 391126, Control_c, 0, 64, 104
1, 391141, Control_c, 0, 64, 106
1, 391156, Control_c, 0, 64, 107
1, 391171, Control_c, 0, 64, 108
1, 391182, Note_on_c, 0, 81, 101
1, 391186, Note_off_c, 0, 57, 60
1, 391186, Control_c, 0, 64, 109
1, 391186, Note_on_c, 0, 69, 89
1, 391186, Note_on_c, 0, 75, 88
1, 391200, Control_c, 0, 64, 110
1, 391209, Note_off_c, 0, 69, 62
1, 391210, Note_off_c, 0, 75, 62
1, 391215, Control_c, 0, 64, 111
1, 391223, Note_off_c, 0, 81, 60
1, 391230, Control_c, 0, 64, 112
1, 391245, Control_c, 0, 64, 113
1, 391260, Control_c, 0, 64, 113
1, 391289, Control_c, 0, 64, 113
1, 391304, Control_c, 0, 64, 103
1, 391318, Control_c, 0, 64, 87
1, 391322, Note_on_c, 0, 57, 71
1, 391333, Control_c, 0, 64, 69
1, 391348, Control_c, 0, 64, 20
1, 391363, Control_c, 0, 64, 44
1, 391378, Control_c, 0, 64, 70
1, 391379, Note_on_c, 0, 80, 96
1, 391380, Note_on_c, 0, 68, 104
1, 391389, Note_on_c, 0, 74, 82
1, 391392, Control_c, 0, 64, 81
1, 391407, Note_off_c, 0, 74, 72
1, 391407, Control_c, 0, 64, 96
1, 391412, Note_off_c, 0, 68, 61
1, 391417, Note_off_c, 0, 80, 69
1, 391422, Control_c, 0, 64, 109
1, 391437, Control_c, 0, 64, 118
1, 391445, Note_on_c, 0, 68, 64
1, 391452, Control_c, 0, 64, 119
1, 391472, Note_off_c, 0, 57, 64
1, 391473, Note_off_c, 0, 68, 66
1, 391511, Control_c, 0, 64, 119
1, 391526, Control_c, 0, 64, 118
1, 391541, Control_c, 0, 64, 117
1, 391556, Control_c, 0, 64, 117
1, 391583, Note_on_c, 0, 60, 76
1, 391584, Note_on_c, 0, 72, 69
1, 391586, Note_on_c, 0, 74, 71
1, 391601, Note_on_c, 0, 62, 50
1, 391603, Note_off_c, 0, 74, 70
1, 391606, Note_off_c, 0, 60, 63
1, 391609, Note_on_c, 0, 67, 28
1, 391616, Note_on_c, 0, 45, 67
1, 391616, Note_off_c, 0, 72, 62
1, 391628, Note_off_c, 0, 62, 54
1, 391646, Note_off_c, 0, 67, 43
1, 391674, Control_c, 0, 64, 116
1, 391675, Note_off_c, 0, 45, 62
1, 391689, Control_c, 0, 64, 112
1, 391696, Note_on_c, 0, 57, 74
1, 391704, Control_c, 0, 64, 102
1, 391718, Control_c, 0, 64, 86
1, 391733, Control_c, 0, 64, 68
1, 391744, Note_off_c, 0, 57, 58
1, 391748, Control_c, 0, 64, 0
1, 391778, Note_on_c, 0, 61, 90
1, 391779, Note_on_c, 0, 67, 82
1, 391782, Note_on_c, 0, 73, 86
1, 391790, Note_on_c, 0, 45, 68
1, 391792, Control_c, 0, 64, 64
1, 391799, Note_off_c, 0, 61, 67
1, 391807, Control_c, 0, 64, 74
1, 391812, Note_off_c, 0, 67, 66
1, 391822, Control_c, 0, 64, 87
1, 391827, Note_off_c, 0, 73, 63
1, 391845, Control_c, 0, 64, 104
1, 391859, Control_c, 0, 64, 124
1, 391866, Note_off_c, 0, 45, 63
1, 391873, Control_c, 0, 64, 127
1, 391881, Note_on_c, 0, 57, 81
1, 391928, Note_off_c, 0, 57, 59
1, 391985, Note_on_c, 0, 67, 98
1, 391987, Note_on_c, 0, 79, 96
1, 391988, Note_on_c, 0, 73, 84
1, 392008, Note_off_c, 0, 73, 69
1, 392014, Note_off_c, 0, 67, 63
1, 392032, Note_off_c, 0, 79, 59
1, 392039, Note_on_c, 0, 57, 72
1, 392111, Note_on_c, 0, 67, 84
1, 392116, Note_off_c, 0, 57, 58
1, 392126, Control_c, 0, 64, 119
1, 392140, Control_c, 0, 64, 86
1, 392152, Note_off_c, 0, 67, 61
1, 392155, Control_c, 0, 64, 66
1, 392170, Control_c, 0, 64, 42
1, 392183, Note_on_c, 0, 66, 100
1, 392185, Note_on_c, 0, 78, 94
1, 392185, Control_c, 0, 64, 65
1, 392186, Note_on_c, 0, 72, 86
1, 392200, Control_c, 0, 64, 75
1, 392214, Control_c, 0, 64, 87
1, 392219, Note_off_c, 0, 72, 65
1, 392220, Note_off_c, 0, 66, 64
1, 392223, Note_off_c, 0, 78, 66
1, 392229, Control_c, 0, 64, 101
1, 392235, Note_on_c, 0, 57, 69
1, 392244, Control_c, 0, 64, 113
1, 392259, Control_c, 0, 64, 120
1, 392274, Control_c, 0, 64, 121
1, 392301, Note_on_c, 0, 66, 79
1, 392304, Control_c, 0, 64, 120
1, 392322, Note_off_c, 0, 66, 70
1, 392326, Note_off_c, 0, 57, 64
1, 392334, Control_c, 0, 64, 120
1, 392348, Control_c, 0, 64, 119
1, 392363, Control_c, 0, 64, 118
1, 392378, Control_c, 0, 64, 118
1, 392381, Note_on_c, 0, 66, 86
1, 392391, Note_on_c, 0, 72, 84
1, 392393, Note_on_c, 0, 60, 80
1, 392408, Control_c, 0, 64, 117
1, 392416, Note_off_c, 0, 60, 67
1, 392417, Note_off_c, 0, 72, 61
1, 392429, Note_off_c, 0, 66, 61
1, 392479, Note_on_c, 0, 45, 70
1, 392496, Control_c, 0, 64, 115
1, 392499, Poly_aftertouch_c, 0, 62, 0
1, 392511, Control_c, 0, 64, 104
1, 392526, Control_c, 0, 64, 88
1, 392538, Note_off_c, 0, 45, 63
1, 392540, Control_c, 0, 64, 71
1, 392555, Note_on_c, 0, 57, 71
1, 392555, Control_c, 0, 64, 27
1, 392570, Control_c, 0, 64, 0
1, 392576, Note_on_c, 0, 65, 87
1, 392577, Note_on_c, 0, 59, 87
1, 392581, Note_on_c, 0, 71, 82
1, 392593, Control_c, 0, 64, 64
1, 392599, Note_off_c, 0, 57, 57
1, 392605, Note_off_c, 0, 59, 72
1, 392608, Control_c, 0, 64, 72
1, 392618, Note_off_c, 0, 65, 69
1, 392623, Control_c, 0, 64, 85
1, 392624, Note_off_c, 0, 71, 63
1, 392638, Control_c, 0, 64, 98
1, 392653, Control_c, 0, 64, 112
1, 392656, Note_on_c, 0, 45, 74
1, 392667, Control_c, 0, 64, 127
1, 392703, Note_off_c, 0, 45, 63
1, 392728, Note_on_c, 0, 57, 73
1, 392753, Note_off_c, 0, 57, 65
1, 392782, Note_on_c, 0, 65, 87
1, 392782, Note_on_c, 0, 71, 81
1, 392784, Note_on_c, 0, 77, 90
1, 392807, Note_off_c, 0, 71, 61
1, 392808, Note_off_c, 0, 65, 67
1, 392835, Note_off_c, 0, 77, 58
1, 392849, Note_on_c, 0, 57, 78
1, 392891, Control_c, 0, 64, 127
1, 392906, Control_c, 0, 64, 122
1, 392920, Control_c, 0, 64, 115
1, 392921, Note_on_c, 0, 64, 68
1, 392924, Note_off_c, 0, 57, 63
1, 392927, Note_on_c, 0, 65, 71
1, 392935, Control_c, 0, 64, 104
1, 392943, Note_off_c, 0, 65, 71
1, 392947, Note_off_c, 0, 64, 67
1, 392950, Control_c, 0, 64, 88
1, 392964, Control_c, 0, 64, 71
1, 392979, Control_c, 0, 64, 47
1, 392983, Note_on_c, 0, 76, 91
1, 392986, Note_on_c, 0, 64, 95
1, 392987, Note_on_c, 0, 72, 84
1, 392994, Control_c, 0, 64, 49
1, 393009, Control_c, 0, 64, 67
1, 393011, Note_off_c, 0, 64, 64
1, 393020, Note_off_c, 0, 72, 64
1, 393024, Control_c, 0, 64, 75
1, 393033, Note_off_c, 0, 76, 65
1, 393038, Control_c, 0, 64, 83
1, 393053, Control_c, 0, 64, 88
1, 393068, Control_c, 0, 64, 89
1, 393071, Note_on_c, 0, 57, 74
1, 393098, Control_c, 0, 64, 89
1, 393112, Control_c, 0, 64, 83
1, 393127, Note_off_c, 0, 57, 63
1, 393127, Control_c, 0, 64, 72
1, 393140, Note_on_c, 0, 62, 81
1, 393142, Control_c, 0, 64, 50
1, 393157, Control_c, 0, 64, 0
1, 393171, Control_c, 0, 64, 51
1, 393179, Note_on_c, 0, 74, 80
1, 393184, Note_on_c, 0, 71, 72
1, 393186, Control_c, 0, 64, 68
1, 393201, Control_c, 0, 64, 75
1, 393204, Note_off_c, 0, 62, 63
1, 393211, Note_off_c, 0, 71, 65
1, 393216, Control_c, 0, 64, 80
1, 393231, Control_c, 0, 64, 83
1, 393234, Note_off_c, 0, 74, 61
1, 393240, Note_on_c, 0, 57, 72
1, 393246, Control_c, 0, 64, 84
1, 393261, Control_c, 0, 64, 85
1, 393290, Control_c, 0, 64, 84
1, 393305, Control_c, 0, 64, 79
1, 393313, Note_off_c, 0, 57, 62
1, 393320, Control_c, 0, 64, 68
1, 393342, Control_c, 0, 64, 0
1, 393351, Note_on_c, 0, 64, 56
1, 393371, Control_c, 0, 64, 60
1, 393379, Note_on_c, 0, 76, 86
1, 393383, Note_on_c, 0, 71, 77
1, 393386, Control_c, 0, 64, 74
1, 393401, Control_c, 0, 64, 85
1, 393413, Note_off_c, 0, 71, 62
1, 393416, Control_c, 0, 64, 94
1, 393420, Note_off_c, 0, 64, 61
1, 393431, Control_c, 0, 64, 96
1, 393435, Note_off_c, 0, 76, 67
1, 393446, Control_c, 0, 64, 94
1, 393460, Control_c, 0, 64, 87
1, 393472, Note_on_c, 0, 57, 71
1, 393475, Control_c, 0, 64, 74
1, 393490, Control_c, 0, 64, 66
1, 393505, Control_c, 0, 64, 66
1, 393521, Control_c, 0, 64, 70
1, 393535, Control_c, 0, 64, 73
1, 393550, Control_c, 0, 64, 76
1, 393565, Control_c, 0, 64, 78
1, 393573, Note_on_c, 0, 61, 81
1, 393573, Note_on_c, 0, 76, 71
1, 393580, Control_c, 0, 64, 81
1, 393581, Note_on_c, 0, 69, 84
1, 393582, Note_on_c, 0, 74, 70
1, 393583, Note_off_c, 0, 57, 61
1, 393595, Control_c, 0, 64, 87
1, 393610, Control_c, 0, 64, 95
1, 393624, Control_c, 0, 64, 101
1, 393627, Note_off_c, 0, 74, 43
1, 393632, Note_off_c, 0, 76, 63
1, 393639, Control_c, 0, 64, 102
1, 393651, Note_on_c, 0, 67, 87
1, 393654, Note_off_c, 0, 69, 66
1, 393684, Control_c, 0, 64, 101
1, 393693, Note_off_c, 0, 67, 65
1, 393699, Control_c, 0, 64, 97
1, 393713, Control_c, 0, 64, 88
1, 393715, Note_off_c, 0, 61, 62
1, 393728, Control_c, 0, 64, 73
1, 393743, Control_c, 0, 64, 0
1, 393771, Note_on_c, 0, 62, 90
1, 393776, Note_on_c, 0, 76, 87
1, 393776, Note_on_c, 0, 50, 87
1, 393802, Control_c, 0, 64, 63
1, 393805, Note_off_c, 0, 62, 63
1, 393813, Note_off_c, 0, 50, 64
1, 393817, Control_c, 0, 64, 71
1, 393832, Control_c, 0, 64, 80
1, 393836, Note_on_c, 0, 69, 79
1, 393847, Control_c, 0, 64, 89
1, 393854, Note_off_c, 0, 76, 64
1, 393861, Control_c, 0, 64, 98
1, 393876, Control_c, 0, 64, 103
1, 393891, Control_c, 0, 64, 105
1, 393899, Note_off_c, 0, 69, 67
1, 393901, Note_on_c, 0, 65, 81
1, 393905, Control_c, 0, 64, 106
1, 393920, Control_c, 0, 64, 107
1, 393956, Note_on_c, 0, 69, 85
1, 393958, Note_off_c, 0, 65, 60
1, 393980, Control_c, 0, 64, 105
1, 393994, Control_c, 0, 64, 99
1, 394009, Control_c, 0, 64, 88
1, 394024, Control_c, 0, 64, 73
1, 394027, Note_on_c, 0, 65, 79
1, 394033, Note_off_c, 0, 69, 67
1, 394039, Control_c, 0, 64, 0
1, 394074, Note_on_c, 0, 62, 93
1, 394089, Note_off_c, 0, 65, 64
1, 394116, Note_off_c, 0, 62, 63
1, 394157, Note_on_c, 0, 53, 99
1, 394164, Note_on_c, 0, 41, 91
1, 394180, Control_c, 0, 64, 43
1, 394194, Note_off_c, 0, 41, 69
1, 394194, Control_c, 0, 64, 71
1, 394198, Note_off_c, 0, 53, 66
1, 394209, Control_c, 0, 64, 82
1, 394224, Control_c, 0, 64, 93
1, 394235, Note_on_c, 0, 65, 98
1, 394239, Control_c, 0, 64, 106
1, 394254, Control_c, 0, 64, 127
1, 394277, Note_off_c, 0, 65, 69
1, 394303, Note_on_c, 0, 77, 88
1, 394307, Note_on_c, 0, 76, 74
1, 394333, Note_off_c, 0, 76, 68
1, 394337, Note_off_c, 0, 77, 61
1, 394349, Note_on_c, 0, 65, 105
1, 394350, Note_on_c, 0, 62, 94
1, 394352, Note_on_c, 0, 53, 90
1, 394395, Note_off_c, 0, 62, 61
1, 394408, Note_off_c, 0, 65, 57
1, 394415, Note_on_c, 0, 77, 92
1, 394431, Note_off_c, 0, 53, 65
1, 394475, Note_on_c, 0, 89, 92
1, 394477, Note_off_c, 0, 77, 62
1, 394477, Control_c, 0, 64, 123
1, 394492, Control_c, 0, 64, 89
1, 394507, Control_c, 0, 64, 66
1, 394509, Note_off_c, 0, 89, 67
1, 394522, Control_c, 0, 64, 0
1, 394536, Control_c, 0, 64, 57
1, 394540, Note_on_c, 0, 64, 97
1, 394543, Note_on_c, 0, 61, 91
1, 394546, Note_on_c, 0, 53, 89
1, 394551, Control_c, 0, 64, 73
1, 394566, Control_c, 0, 64, 86
1, 394577, Note_off_c, 0, 64, 67
1, 394581, Note_off_c, 0, 61, 63
1, 394581, Control_c, 0, 64, 101
1, 394585, Note_on_c, 0, 88, 94
1, 394586, Note_off_c, 0, 53, 67
1, 394596, Control_c, 0, 64, 116
1, 394610, Control_c, 0, 64, 127
1, 394635, Note_off_c, 0, 88, 66
1, 394650, Note_on_c, 0, 76, 91
1, 394685, Note_off_c, 0, 76, 69
1, 394727, Note_on_c, 0, 53, 95
1, 394733, Note_on_c, 0, 41, 84
1, 394766, Note_off_c, 0, 53, 63
1, 394766, Note_off_c, 0, 41, 66
1, 394783, Note_on_c, 0, 76, 89
1, 394835, Note_off_c, 0, 76, 64
1, 394840, Control_c, 0, 64, 122
1, 394853, Note_on_c, 0, 64, 78
1, 394853, Control_c, 0, 64, 104
1, 394867, Control_c, 0, 64, 82
1, 394882, Control_c, 0, 64, 39
1, 394884, Note_off_c, 0, 64, 66
1, 394897, Control_c, 0, 64, 0
1, 394922, Note_on_c, 0, 53, 101
1, 394927, Note_on_c, 0, 41, 86
1, 394949, Note_off_c, 0, 41, 68
1, 394957, Control_c, 0, 64, 60
1, 394960, Note_off_c, 0, 53, 67
1, 394972, Control_c, 0, 64, 72
1, 394982, Note_on_c, 0, 63, 89
1, 394987, Control_c, 0, 64, 84
1, 395002, Control_c, 0, 64, 100
1, 395016, Control_c, 0, 64, 127
1, 395022, Note_off_c, 0, 63, 64
1, 395031, Control_c, 0, 64, 127
1, 395037, Note_on_c, 0, 75, 85
1, 395068, Poly_aftertouch_c, 0, 70, 0
1, 395078, Note_off_c, 0, 75, 67
1, 395118, Note_on_c, 0, 63, 102
1, 395130, Note_on_c, 0, 53, 78
1, 395169, Note_on_c, 0, 75, 90
1, 395209, Note_off_c, 0, 53, 61
1, 395213, Note_off_c, 0, 75, 64
1, 395225, Note_on_c, 0, 76, 10
1, 395249, Note_on_c, 0, 87, 67
1, 395254, Note_off_c, 0, 76, 45
1, 395265, Note_off_c, 0, 87, 42
1, 395269, Control_c, 0, 64, 101
1, 395275, Note_off_c, 0, 63, 61
1, 395284, Control_c, 0, 64, 74
1, 395299, Control_c, 0, 64, 0
1, 395311, Note_on_c, 0, 62, 94
1, 395313, Note_on_c, 0, 86, 95
1, 395317, Note_on_c, 0, 53, 82
1, 395321, Note_on_c, 0, 58, 82
1, 395328, Control_c, 0, 64, 49
1, 395343, Control_c, 0, 64, 68
1, 395357, Note_off_c, 0, 62, 63
1, 395357, Control_c, 0, 64, 76
1, 395371, Note_off_c, 0, 53, 64
1, 395372, Note_off_c, 0, 58, 65
1, 395372, Control_c, 0, 64, 85
1, 395373, Note_on_c, 0, 82, 88
1, 395387, Control_c, 0, 64, 92
1, 395390, Note_off_c, 0, 86, 56
1, 395402, Control_c, 0, 64, 96
1, 395417, Control_c, 0, 64, 97
1, 395425, Note_on_c, 0, 77, 78
1, 395431, Control_c, 0, 64, 98
1, 395431, Control_c, 0, 67, 18
1, 395433, Note_off_c, 0, 82, 64
1, 395446, Control_c, 0, 67, 35
1, 395461, Control_c, 0, 67, 46
1, 395474, Note_off_c, 0, 77, 60
1, 395476, Control_c, 0, 64, 95
1, 395476, Control_c, 0, 67, 46
1, 395479, Note_on_c, 0, 74, 83
1, 395490, Control_c, 0, 64, 84
1, 395490, Control_c, 0, 67, 45
1, 395502, Note_off_c, 0, 74, 66
1, 395505, Control_c, 0, 64, 66
1, 395505, Control_c, 0, 67, 44
1, 395520, Control_c, 0, 64, 0
1, 395520, Control_c, 0, 67, 43
1, 395535, Control_c, 0, 67, 42
1, 395548, Note_on_c, 0, 70, 81
1, 395601, Note_off_c, 0, 70, 61
1, 395603, Control_c, 0, 67, 41
1, 395608, Note_on_c, 0, 65, 72
1, 395632, Control_c, 0, 67, 41
1, 395633, Note_off_c, 0, 65, 68
1, 395669, Note_on_c, 0, 53, 70
1, 395672, Note_on_c, 0, 41, 63
1, 395677, Control_c, 0, 67, 41
1, 395691, Control_c, 0, 67, 42
1, 395696, Note_off_c, 0, 53, 67
1, 395700, Note_off_c, 0, 41, 67
1, 395706, Control_c, 0, 67, 42
1, 395734, Note_on_c, 0, 65, 66
1, 395751, Control_c, 0, 67, 42
1, 395773, Note_off_c, 0, 65, 62
1, 395780, Control_c, 0, 67, 41
1, 395795, Control_c, 0, 67, 41
1, 395810, Control_c, 0, 67, 40
1, 395819, Note_on_c, 0, 77, 47
1, 395839, Control_c, 0, 67, 40
1, 395844, Note_off_c, 0, 77, 36
1, 395860, Note_on_c, 0, 62, 67
1, 395872, Note_on_c, 0, 53, 54
1, 395872, Note_on_c, 0, 65, 52
1, 395890, Note_off_c, 0, 62, 64
1, 395893, Note_off_c, 0, 65, 60
1, 395899, Control_c, 0, 67, 40
1, 395906, Note_off_c, 0, 53, 67
1, 395915, Control_c, 0, 67, 41
1, 395916, Note_on_c, 0, 77, 74
1, 395930, Control_c, 0, 67, 42
1, 395961, Note_off_c, 0, 77, 61
1, 395978, Note_on_c, 0, 89, 74
1, 395988, Control_c, 0, 67, 42
1, 396001, Note_off_c, 0, 89, 70
1, 396003, Control_c, 0, 67, 41
1, 396018, Control_c, 0, 67, 40
1, 396033, Control_c, 0, 67, 40
1, 396051, Note_on_c, 0, 64, 64
1, 396058, Note_on_c, 0, 53, 66
1, 396077, Note_off_c, 0, 64, 65
1, 396078, Control_c, 0, 67, 41
1, 396085, Note_off_c, 0, 53, 68
1, 396093, Control_c, 0, 67, 42
1, 396100, Note_on_c, 0, 88, 76
1, 396107, Control_c, 0, 67, 43
1, 396122, Control_c, 0, 67, 44
1, 396137, Note_off_c, 0, 88, 63
1, 396137, Control_c, 0, 67, 45
1, 396149, Note_on_c, 0, 76, 73
1, 396152, Control_c, 0, 67, 45
1, 396167, Control_c, 0, 67, 46
1, 396177, Note_off_c, 0, 76, 67
1, 396211, Control_c, 0, 67, 45
1, 396226, Control_c, 0, 67, 44
1, 396232, Note_on_c, 0, 53, 66
1, 396241, Control_c, 0, 67, 44
1, 396247, Note_on_c, 0, 41, 49
1, 396255, Control_c, 0, 67, 43
1, 396263, Note_off_c, 0, 53, 66
1, 396270, Control_c, 0, 67, 43
1, 396280, Note_off_c, 0, 41, 57
1, 396285, Control_c, 0, 67, 42
1, 396286, Note_on_c, 0, 76, 73
1, 396299, Control_c, 0, 67, 42
1, 396314, Control_c, 0, 67, 41
1, 396338, Note_off_c, 0, 76, 65
1, 396343, Note_on_c, 0, 64, 64
1, 396352, Control_c, 0, 67, 41
1, 396367, Control_c, 0, 67, 40
1, 396370, Note_off_c, 0, 64, 66
1, 396396, Control_c, 0, 67, 40
1, 396411, Control_c, 0, 67, 39
1, 396427, Note_on_c, 0, 41, 62
1, 396431, Note_on_c, 0, 53, 65
1, 396451, Note_on_c, 0, 52, 44
1, 396454, Note_off_c, 0, 41, 60
1, 396456, Control_c, 0, 67, 40
1, 396456, Note_off_c, 0, 53, 67
1, 396470, Control_c, 0, 67, 41
1, 396471, Note_on_c, 0, 63, 79
1, 396482, Note_off_c, 0, 52, 34
1, 396485, Control_c, 0, 67, 42
1, 396506, Note_off_c, 0, 63, 65
1, 396529, Control_c, 0, 67, 41
1, 396530, Note_on_c, 0, 75, 74
1, 396544, Control_c, 0, 67, 41
1, 396555, Note_off_c, 0, 75, 67
1, 396559, Control_c, 0, 67, 40
1, 396588, Control_c, 0, 67, 40
1, 396607, Note_on_c, 0, 63, 83
1, 396608, Note_on_c, 0, 53, 56
1, 396618, Control_c, 0, 67, 39
1, 396633, Control_c, 0, 67, 39
1, 396648, Control_c, 0, 67, 38
1, 396649, Note_on_c, 0, 75, 84
1, 396659, Note_off_c, 0, 53, 61
1, 396659, Note_off_c, 0, 63, 63
1, 396662, Control_c, 0, 67, 38
1, 396677, Control_c, 0, 67, 37
1, 396689, Note_off_c, 0, 75, 66
1, 396692, Control_c, 0, 67, 37
1, 396708, Control_c, 0, 67, 35
1, 396723, Control_c, 0, 67, 31
1, 396732, Note_on_c, 0, 85, 45
1, 396737, Control_c, 0, 67, 27
1, 396752, Control_c, 0, 67, 23
1, 396758, Note_off_c, 0, 85, 55
1, 396767, Control_c, 0, 67, 18
1, 396782, Control_c, 0, 67, 13
1, 396797, Note_on_c, 0, 86, 84
1, 396797, Control_c, 0, 64, 55
1, 396797, Control_c, 0, 67, 11
1, 396799, Note_on_c, 0, 62, 77
1, 396808, Note_on_c, 0, 53, 53
1, 396811, Control_c, 0, 64, 71
1, 396811, Control_c, 0, 67, 8
1, 396812, Note_on_c, 0, 58, 61
1, 396825, Note_off_c, 0, 62, 65
1, 396826, Control_c, 0, 64, 85
1, 396826, Control_c, 0, 67, 0
1, 396841, Control_c, 0, 64, 102
1, 396841, Control_c, 0, 67, 8
1, 396844, Note_off_c, 0, 53, 66
1, 396844, Note_off_c, 0, 58, 66
1, 396856, Note_on_c, 0, 82, 86
1, 396856, Control_c, 0, 64, 127
1, 396856, Control_c, 0, 67, 8
1, 396862, Note_off_c, 0, 86, 62
1, 396871, Control_c, 0, 67, 9
1, 396915, Control_c, 0, 67, 9
1, 396918, Note_on_c, 0, 77, 81
1, 396921, Note_off_c, 0, 82, 63
1, 396930, Control_c, 0, 67, 10
1, 396945, Control_c, 0, 67, 10
1, 396963, Note_off_c, 0, 77, 62
1, 396973, Note_on_c, 0, 74, 81
1, 396975, Control_c, 0, 67, 9
1, 396990, Control_c, 0, 67, 8
1, 396994, Note_off_c, 0, 74, 70
1, 397004, Control_c, 0, 67, 0
1, 397058, Note_on_c, 0, 70, 53
1, 397085, Control_c, 0, 64, 107
1, 397087, Note_off_c, 0, 70, 62
1, 397100, Control_c, 0, 64, 88
1, 397105, Note_on_c, 0, 65, 64
1, 397115, Note_on_c, 0, 64, 52
1, 397115, Control_c, 0, 64, 62
1, 397126, Note_off_c, 0, 65, 65
1, 397130, Control_c, 0, 64, 0
1, 397136, Note_off_c, 0, 64, 39
1, 397167, Note_on_c, 0, 50, 96
1, 397171, Note_on_c, 0, 38, 85
1, 397202, Note_off_c, 0, 38, 68
1, 397205, Control_c, 0, 64, 69
1, 397208, Note_off_c, 0, 50, 62
1, 397217, Note_on_c, 0, 62, 84
1, 397219, Control_c, 0, 64, 78
1, 397234, Control_c, 0, 64, 88
1, 397249, Control_c, 0, 64, 95
1, 397264, Control_c, 0, 64, 102
1, 397264, Note_off_c, 0, 62, 62
1, 397278, Control_c, 0, 64, 105
1, 397287, Note_on_c, 0, 74, 87
1, 397293, Control_c, 0, 64, 106
1, 397326, Note_off_c, 0, 74, 70
1, 397355, Note_on_c, 0, 50, 80
1, 397355, Note_on_c, 0, 62, 89
1, 397392, Note_on_c, 0, 52, 42
1, 397404, Note_off_c, 0, 62, 61
1, 397413, Note_on_c, 0, 74, 77
1, 397414, Note_off_c, 0, 50, 62
1, 397419, Note_on_c, 0, 72, 71
1, 397420, Note_off_c, 0, 52, 58
1, 397449, Note_off_c, 0, 72, 62
1, 397458, Note_off_c, 0, 74, 66
1, 397478, Note_on_c, 0, 86, 87
1, 397485, Control_c, 0, 64, 103
1, 397500, Control_c, 0, 64, 89
1, 397510, Note_off_c, 0, 86, 62
1, 397516, Control_c, 0, 64, 71
1, 397531, Control_c, 0, 64, 0
1, 397550, Note_on_c, 0, 61, 105
1, 397555, Note_on_c, 0, 49, 90
1, 397575, Control_c, 0, 64, 30
1, 397583, Note_off_c, 0, 61, 63
1, 397590, Control_c, 0, 64, 71
1, 397599, Note_on_c, 0, 85, 97
1, 397603, Note_off_c, 0, 49, 61
1, 397605, Control_c, 0, 64, 84
1, 397620, Control_c, 0, 64, 101
1, 397634, Control_c, 0, 64, 127
1, 397668, Note_on_c, 0, 73, 91
1, 397673, Note_off_c, 0, 85, 58
1, 397708, Note_off_c, 0, 73, 64
1, 397755, Note_on_c, 0, 49, 93
1, 397756, Note_on_c, 0, 37, 77
1, 397762, Note_on_c, 0, 46, 76
1, 397777, Note_off_c, 0, 49, 69
1, 397782, Note_off_c, 0, 37, 60
1, 397783, Note_off_c, 0, 46, 62
1, 397802, Note_on_c, 0, 36, 40
1, 397807, Note_on_c, 0, 73, 89
1, 397845, Note_off_c, 0, 36, 59
1, 397888, Note_on_c, 0, 61, 89
1, 397902, Note_off_c, 0, 73, 58
1, 397908, Control_c, 0, 64, 99
1, 397923, Control_c, 0, 64, 74
1, 397926, Poly_aftertouch_c, 0, 74, 0
1, 397928, Note_off_c, 0, 61, 65
1, 397938, Control_c, 0, 64, 0
1, 397956, Note_on_c, 0, 48, 105
1, 397959, Note_on_c, 0, 36, 88
1, 397994, Note_off_c, 0, 36, 64
1, 397997, Control_c, 0, 64, 65
1, 398012, Control_c, 0, 64, 75
1, 398015, Note_off_c, 0, 48, 62
1, 398027, Control_c, 0, 64, 87
1, 398033, Note_on_c, 0, 60, 88
1, 398042, Control_c, 0, 64, 100
1, 398057, Control_c, 0, 64, 111
1, 398072, Control_c, 0, 64, 116
1, 398083, Note_off_c, 0, 60, 63
1, 398086, Control_c, 0, 64, 116
1, 398101, Control_c, 0, 64, 117
1, 398102, Note_on_c, 0, 71, 73
1, 398119, Note_on_c, 0, 72, 47
1, 398141, Note_off_c, 0, 72, 60
1, 398143, Note_off_c, 0, 71, 62
1, 398154, Note_on_c, 0, 60, 96
1, 398157, Note_on_c, 0, 48, 88
1, 398160, Control_c, 0, 64, 117
1, 398221, Note_on_c, 0, 72, 87
1, 398228, Note_off_c, 0, 60, 51
1, 398230, Note_off_c, 0, 48, 62
1, 398278, Note_off_c, 0, 72, 64
1, 398283, Note_on_c, 0, 84, 75
1, 398289, Note_on_c, 0, 83, 70
1, 398293, Control_c, 0, 64, 117
1, 398309, Control_c, 0, 64, 105
1, 398313, Note_off_c, 0, 83, 65
1, 398315, Note_off_c, 0, 84, 65
1, 398324, Control_c, 0, 64, 87
1, 398339, Control_c, 0, 64, 67
1, 398349, Note_on_c, 0, 59, 96
1, 398354, Note_on_c, 0, 47, 90
1, 398354, Control_c, 0, 64, 0
1, 398373, Note_on_c, 0, 50, 48
1, 398383, Control_c, 0, 64, 65
1, 398398, Note_off_c, 0, 59, 64
1, 398398, Control_c, 0, 64, 78
1, 398405, Note_on_c, 0, 83, 88
1, 398409, Note_off_c, 0, 50, 55
1, 398413, Control_c, 0, 64, 95
1, 398421, Note_off_c, 0, 47, 63
1, 398428, Control_c, 0, 64, 127
1, 398459, Note_off_c, 0, 83, 60
1, 398462, Note_on_c, 0, 71, 88
1, 398503, Note_off_c, 0, 71, 62
1, 398534, Note_on_c, 0, 47, 97
1, 398543, Note_on_c, 0, 35, 83
1, 398584, Note_off_c, 0, 47, 64
1, 398585, Note_off_c, 0, 35, 64
1, 398600, Note_on_c, 0, 71, 72
1, 398601, Note_on_c, 0, 72, 75
1, 398644, Note_off_c, 0, 72, 62
1, 398656, Note_off_c, 0, 71, 61
1, 398659, Poly_aftertouch_c, 0, 45, 0
1, 398666, Note_on_c, 0, 59, 83
1, 398671, Control_c, 0, 64, 101
1, 398686, Control_c, 0, 64, 76
1, 398701, Control_c, 0, 64, 0
1, 398710, Note_off_c, 0, 59, 64
1, 398727, Note_on_c, 0, 46, 99
1, 398734, Note_on_c, 0, 34, 82
1, 398761, Control_c, 0, 64, 18
1, 398769, Note_off_c, 0, 34, 66
1, 398771, Note_off_c, 0, 46, 64
1, 398775, Control_c, 0, 64, 70
1, 398790, Control_c, 0, 64, 85
1, 398796, Note_on_c, 0, 58, 93
1, 398805, Control_c, 0, 64, 106
1, 398820, Control_c, 0, 64, 127
1, 398835, Note_off_c, 0, 58, 66
1, 398859, Note_on_c, 0, 70, 88
1, 398898, Note_on_c, 0, 71, 41
1, 398899, Note_off_c, 0, 70, 56
1, 398922, Note_off_c, 0, 71, 57
1, 398931, Note_on_c, 0, 58, 98
1, 398945, Note_on_c, 0, 46, 79
1, 398945, Note_on_c, 0, 50, 75
1, 398946, Note_on_c, 0, 56, 73
1, 398964, Note_off_c, 0, 56, 65
1, 399004, Note_on_c, 0, 70, 91
1, 399023, Note_off_c, 0, 46, 59
1, 399047, Note_off_c, 0, 58, 60
1, 399060, Note_off_c, 0, 70, 64
1, 399074, Note_off_c, 0, 50, 63
1, 399085, Note_on_c, 0, 80, 54
1, 399106, Note_off_c, 0, 80, 61
1, 399117, Control_c, 0, 64, 117
1, 399131, Note_on_c, 0, 57, 107
1, 399131, Control_c, 0, 64, 85
1, 399136, Note_on_c, 0, 45, 95
1, 399146, Control_c, 0, 64, 52
1, 399151, Note_on_c, 0, 50, 54
1, 399159, Poly_aftertouch_c, 0, 82, 0
1, 399161, Control_c, 0, 64, 0
1, 399184, Note_on_c, 0, 81, 86
1, 399205, Control_c, 0, 64, 56
1, 399220, Control_c, 0, 64, 71
1, 399223, Note_off_c, 0, 45, 63
1, 399231, Note_off_c, 0, 57, 60
1, 399235, Control_c, 0, 64, 82
1, 399249, Note_off_c, 0, 81, 59
1, 399250, Control_c, 0, 64, 92
1, 399261, Note_on_c, 0, 69, 82
1, 399265, Control_c, 0, 64, 96
1, 399294, Control_c, 0, 64, 95
1, 399296, Note_off_c, 0, 50, 54
1, 399309, Control_c, 0, 64, 82
1, 399327, Note_off_c, 0, 69, 66
1, 399331, Control_c, 0, 64, 67
1, 399333, Note_on_c, 0, 54, 98
1, 399339, Note_on_c, 0, 42, 88
1, 399347, Control_c, 0, 64, 45
1, 399362, Control_c, 0, 64, 63
1, 399363, Note_on_c, 0, 50, 5
1, 399370, Note_on_c, 0, 44, 41
1, 399377, Control_c, 0, 64, 72
1, 399386, Note_on_c, 0, 78, 80
1, 399392, Control_c, 0, 64, 82
1, 399404, Note_off_c, 0, 44, 37
1, 399406, Control_c, 0, 64, 92
1, 399420, Note_off_c, 0, 42, 64
1, 399421, Control_c, 0, 64, 101
1, 399433, Note_off_c, 0, 54, 58
1, 399436, Control_c, 0, 64, 104
1, 399447, Note_on_c, 0, 66, 91
1, 399464, Note_off_c, 0, 78, 63
1, 399466, Control_c, 0, 64, 98
1, 399480, Control_c, 0, 64, 84
1, 399491, Note_off_c, 0, 66, 67
1, 399495, Control_c, 0, 64, 68
1, 399500, Note_off_c, 0, 50, 24
1, 399510, Control_c, 0, 64, 62
1, 399518, Note_on_c, 0, 55, 97
1, 399524, Note_on_c, 0, 43, 93
1, 399525, Control_c, 0, 64, 69
1, 399539, Control_c, 0, 64, 78
1, 399550, Note_off_c, 0, 55, 66
1, 399554, Control_c, 0, 64, 89
1, 399555, Note_on_c, 0, 79, 81
1, 399560, Note_off_c, 0, 43, 61
1, 399569, Control_c, 0, 64, 98
1, 399584, Control_c, 0, 64, 104
1, 399599, Control_c, 0, 64, 107
1, 399613, Control_c, 0, 64, 108
1, 399622, Note_on_c, 0, 67, 81
1, 399627, Note_off_c, 0, 79, 58
1, 399628, Control_c, 0, 64, 112
1, 399643, Control_c, 0, 64, 116
1, 399658, Control_c, 0, 64, 117
1, 399670, Note_off_c, 0, 67, 61
1, 399688, Control_c, 0, 64, 106
1, 399695, Note_on_c, 0, 50, 100
1, 399702, Note_on_c, 0, 38, 94
1, 399703, Control_c, 0, 64, 78
1, 399717, Control_c, 0, 64, 0
1, 399733, Note_off_c, 0, 50, 66
1, 399735, Note_off_c, 0, 38, 66
1, 399747, Control_c, 0, 67, 9
1, 399750, Note_on_c, 0, 74, 83
1, 399762, Control_c, 0, 67, 15
1, 399777, Control_c, 0, 67, 18
1, 399792, Control_c, 0, 67, 19
1, 399806, Control_c, 0, 67, 19
1, 399816, Note_off_c, 0, 74, 58
1, 399822, Note_on_c, 0, 62, 83
1, 399836, Control_c, 0, 67, 19
1, 399850, Control_c, 0, 67, 17
1, 399865, Note_off_c, 0, 62, 61
1, 399865, Control_c, 0, 67, 16
1, 399880, Control_c, 0, 67, 14
1, 399884, Note_on_c, 0, 48, 97
1, 399891, Note_on_c, 0, 36, 85
1, 399896, Control_c, 0, 67, 12
1, 399911, Control_c, 0, 67, 11
1, 399921, Note_off_c, 0, 48, 65
1, 399924, Note_off_c, 0, 36, 67
1, 399926, Control_c, 0, 67, 10
1, 399941, Control_c, 0, 67, 8
1, 399941, Note_on_c, 0, 72, 80
1, 399955, Control_c, 0, 67, 0
1, 400003, Note_off_c, 0, 72, 59
1, 400015, Note_on_c, 0, 60, 80
1, 400023, Note_on_c, 0, 62, 60
1, 400048, Note_off_c, 0, 62, 59
1, 400052, Note_off_c, 0, 60, 60
1, 400066, Note_on_c, 0, 45, 94
1, 400070, Note_on_c, 0, 33, 88
1, 400108, Note_off_c, 0, 33, 70
1, 400111, Note_off_c, 0, 45, 65
1, 400138, Note_on_c, 0, 69, 86
1, 400203, Note_on_c, 0, 57, 82
1, 400212, Note_off_c, 0, 69, 61
1, 400250, Note_off_c, 0, 57, 65
1, 400268, Note_on_c, 0, 46, 102
1, 400272, Note_on_c, 0, 34, 86
1, 400306, Note_off_c, 0, 46, 61
1, 400318, Note_on_c, 0, 70, 88
1, 400325, Note_off_c, 0, 34, 52
1, 400378, Note_off_c, 0, 70, 62
1, 400386, Note_on_c, 0, 58, 91
1, 400431, Note_off_c, 0, 58, 65
1, 400456, Note_on_c, 0, 42, 97
1, 400460, Note_on_c, 0, 30, 86
1, 400479, Note_on_c, 0, 32, 64
1, 400504, Note_on_c, 0, 66, 60
1, 400507, Note_off_c, 0, 32, 57
1, 400525, Note_off_c, 0, 66, 66
1, 400539, Note_off_c, 0, 42, 62
1, 400554, Note_off_c, 0, 30, 63
1, 400555, Note_on_c, 0, 54, 87
1, 400609, Note_off_c, 0, 54, 62
1, 400649, Note_on_c, 0, 43, 109
1, 400653, Note_on_c, 0, 31, 98
1, 400691, Note_on_c, 0, 55, 84
1, 400763, Note_on_c, 0, 58, 75
1, 400770, Note_off_c, 0, 31, 63
1, 400778, Control_c, 0, 64, 64
1, 400785, Note_off_c, 0, 55, 61
1, 400793, Control_c, 0, 64, 73
1, 400808, Control_c, 0, 64, 84
1, 400811, Note_off_c, 0, 43, 62
1, 400830, Control_c, 0, 64, 93
1, 400841, Note_on_c, 0, 62, 80
1, 400844, Note_off_c, 0, 58, 64
1, 400845, Control_c, 0, 64, 97
1, 400850, Note_on_c, 0, 67, 72
1, 400859, Control_c, 0, 64, 99
1, 400874, Control_c, 0, 64, 100
1, 400889, Control_c, 0, 64, 100
1, 400900, Note_off_c, 0, 67, 53
1, 400904, Control_c, 0, 64, 101
1, 400908, Note_on_c, 0, 58, 84
1, 400915, Note_off_c, 0, 62, 60
1, 400978, Control_c, 0, 64, 100
1, 400981, Note_on_c, 0, 62, 73
1, 400982, Note_off_c, 0, 58, 62
1, 400993, Control_c, 0, 64, 100
1, 400997, Note_on_c, 0, 67, 70
1, 401011, Note_off_c, 0, 62, 64
1, 401021, Note_off_c, 0, 67, 69
1, 401060, Note_on_c, 0, 50, 81
1, 401061, Note_on_c, 0, 55, 85
1, 401082, Control_c, 0, 64, 100
1, 401096, Control_c, 0, 64, 101
1, 401111, Control_c, 0, 64, 102
1, 401112, Note_on_c, 0, 58, 85
1, 401169, Note_off_c, 0, 58, 63
1, 401171, Control_c, 0, 64, 103
1, 401175, Note_on_c, 0, 62, 79
1, 401242, Note_on_c, 0, 67, 76
1, 401243, Note_off_c, 0, 62, 62
1, 401244, Note_off_c, 0, 55, 63
1, 401246, Note_on_c, 0, 70, 77
1, 401300, Note_on_c, 0, 62, 89
1, 401316, Note_off_c, 0, 67, 61
1, 401318, Note_off_c, 0, 70, 61
1, 401382, Note_on_c, 0, 70, 82
1, 401385, Note_off_c, 0, 62, 44
1, 401387, Note_on_c, 0, 67, 84
1, 401408, Note_on_c, 0, 66, 36
1, 401426, Note_off_c, 0, 67, 60
1, 401438, Note_off_c, 0, 66, 33
1, 401440, Note_off_c, 0, 50, 55
1, 401446, Note_on_c, 0, 55, 88
1, 401446, Note_off_c, 0, 70, 61
1, 401446, Note_on_c, 0, 58, 100
1, 401512, Note_off_c, 0, 55, 61
1, 401512, Note_on_c, 0, 62, 85
1, 401512, Control_c, 0, 64, 103
1, 401527, Control_c, 0, 64, 104
1, 401527, Note_off_c, 0, 58, 62
1, 401579, Note_on_c, 0, 67, 88
1, 401579, Control_c, 0, 64, 104
1, 401580, Note_off_c, 0, 62, 63
1, 401594, Control_c, 0, 64, 105
1, 401608, Control_c, 0, 64, 105
1, 401623, Control_c, 0, 64, 106
1, 401638, Control_c, 0, 64, 106
1, 401646, Note_off_c, 0, 67, 61
1, 401647, Note_on_c, 0, 74, 78
1, 401655, Note_on_c, 0, 70, 79
1, 401668, Control_c, 0, 64, 107
1, 401682, Control_c, 0, 64, 107
1, 401697, Control_c, 0, 64, 108
1, 401709, Note_on_c, 0, 67, 84
1, 401712, Control_c, 0, 64, 108
1, 401719, Note_off_c, 0, 74, 62
1, 401720, Note_off_c, 0, 70, 60
1, 401775, Note_on_c, 0, 70, 86
1, 401785, Note_on_c, 0, 74, 70
1, 401785, Note_off_c, 0, 67, 62
1, 401810, Note_off_c, 0, 70, 65
1, 401825, Note_off_c, 0, 74, 60
1, 401836, Note_on_c, 0, 62, 106
1, 401845, Note_on_c, 0, 58, 85
1, 401884, Note_off_c, 0, 62, 66
1, 401900, Note_on_c, 0, 67, 88
1, 401905, Note_off_c, 0, 58, 67
1, 401962, Note_on_c, 0, 70, 86
1, 401983, Note_off_c, 0, 67, 54
1, 402023, Control_c, 0, 64, 109
1, 402035, Note_on_c, 0, 79, 79
1, 402036, Note_off_c, 0, 70, 66
1, 402041, Note_on_c, 0, 74, 70
1, 402052, Control_c, 0, 64, 109
1, 402082, Control_c, 0, 64, 110
1, 402096, Note_on_c, 0, 70, 93
1, 402097, Control_c, 0, 64, 110
1, 402111, Note_off_c, 0, 79, 62
1, 402112, Control_c, 0, 64, 111
1, 402116, Note_off_c, 0, 74, 63
1, 402126, Control_c, 0, 64, 112
1, 402165, Note_on_c, 0, 74, 67
1, 402171, Note_off_c, 0, 70, 64
1, 402181, Note_on_c, 0, 79, 80
1, 402201, Control_c, 0, 64, 108
1, 402205, Note_off_c, 0, 74, 64
1, 402212, Note_on_c, 0, 57, 99
1, 402215, Note_off_c, 0, 79, 61
1, 402215, Control_c, 0, 64, 95
1, 402216, Note_on_c, 0, 45, 96
1, 402224, Note_on_c, 0, 50, 83
1, 402230, Control_c, 0, 64, 76
1, 402245, Control_c, 0, 64, 0
1, 402300, Note_on_c, 0, 81, 88
1, 402305, Control_c, 0, 64, 63
1, 402308, Note_off_c, 0, 57, 59
1, 402323, Note_off_c, 0, 45, 64
1, 402328, Control_c, 0, 64, 72
1, 402343, Control_c, 0, 64, 81
1, 402357, Control_c, 0, 64, 90
1, 402372, Note_on_c, 0, 69, 87
1, 402372, Control_c, 0, 64, 97
1, 402378, Note_off_c, 0, 50, 59
1, 402379, Note_off_c, 0, 81, 61
1, 402387, Control_c, 0, 64, 97
1, 402417, Control_c, 0, 64, 95
1, 402422, Note_on_c, 0, 54, 99
1, 402426, Note_on_c, 0, 42, 89
1, 402427, Note_on_c, 0, 50, 38
1, 402431, Control_c, 0, 64, 86
1, 402434, Note_off_c, 0, 69, 64
1, 402446, Control_c, 0, 64, 70
1, 402461, Control_c, 0, 64, 37
1, 402465, Note_off_c, 0, 50, 54
1, 402476, Control_c, 0, 64, 51
1, 402488, Note_on_c, 0, 78, 86
1, 402491, Control_c, 0, 64, 67
1, 402505, Control_c, 0, 64, 74
1, 402520, Control_c, 0, 64, 82
1, 402526, Note_off_c, 0, 54, 61
1, 402532, Note_off_c, 0, 42, 63
1, 402535, Control_c, 0, 64, 89
1, 402544, Note_on_c, 0, 50, 22
1, 402549, Control_c, 0, 64, 91
1, 402551, Note_on_c, 0, 66, 89
1, 402564, Control_c, 0, 64, 90
1, 402573, Note_off_c, 0, 50, 0
1, 402576, Note_off_c, 0, 78, 61
1, 402579, Control_c, 0, 64, 82
1, 402585, Note_off_c, 0, 66, 67
1, 402594, Note_on_c, 0, 55, 96
1, 402594, Control_c, 0, 64, 68
1, 402602, Note_on_c, 0, 43, 87
1, 402602, Poly_aftertouch_c, 0, 50, 0
1, 402609, Control_c, 0, 64, 47
1, 402624, Control_c, 0, 64, 59
1, 402639, Poly_aftertouch_c, 0, 50, 127
1, 402639, Control_c, 0, 64, 67
1, 402642, Note_off_c, 0, 55, 63
1, 402652, Note_on_c, 0, 79, 75
1, 402654, Control_c, 0, 64, 73
1, 402666, Note_off_c, 0, 43, 62
1, 402667, Poly_aftertouch_c, 0, 50, 0
1, 402669, Control_c, 0, 64, 80
1, 402683, Control_c, 0, 64, 84
1, 402698, Control_c, 0, 64, 86
1, 402708, Note_off_c, 0, 79, 62
1, 402713, Control_c, 0, 64, 86
1, 402720, Note_on_c, 0, 67, 78
1, 402743, Control_c, 0, 64, 87
1, 402757, Control_c, 0, 64, 87
1, 402761, Note_off_c, 0, 67, 59
1, 402772, Note_on_c, 0, 50, 95
1, 402772, Control_c, 0, 64, 86
1, 402779, Note_on_c, 0, 38, 93
1, 402787, Control_c, 0, 64, 77
1, 402802, Control_c, 0, 64, 23
1, 402808, Note_off_c, 0, 50, 64
1, 402809, Note_off_c, 0, 38, 69
1, 402816, Control_c, 0, 64, 0
1, 402849, Note_on_c, 0, 74, 77
1, 402901, Note_off_c, 0, 74, 63
1, 402915, Note_on_c, 0, 62, 78
1, 402954, Note_off_c, 0, 62, 63
1, 402967, Note_on_c, 0, 48, 98
1, 402973, Note_on_c, 0, 36, 93
1, 402995, Note_off_c, 0, 48, 69
1, 403001, Note_off_c, 0, 36, 68
1, 403034, Note_on_c, 0, 72, 78
1, 403101, Note_off_c, 0, 72, 63
1, 403104, Note_on_c, 0, 60, 81
1, 403152, Note_off_c, 0, 60, 60
1, 403162, Note_on_c, 0, 45, 91
1, 403166, Note_on_c, 0, 33, 85
1, 403195, Note_off_c, 0, 33, 70
1, 403195, Note_off_c, 0, 45, 67
1, 403220, Note_on_c, 0, 69, 85
1, 403278, Note_off_c, 0, 69, 61
1, 403285, Note_on_c, 0, 57, 79
1, 403323, Note_off_c, 0, 57, 63
1, 403348, Note_on_c, 0, 46, 101
1, 403354, Note_on_c, 0, 34, 84
1, 403391, Note_off_c, 0, 46, 63
1, 403394, Note_on_c, 0, 70, 89
1, 403438, Note_off_c, 0, 34, 61
1, 403462, Note_on_c, 0, 58, 88
1, 403477, Note_off_c, 0, 70, 60
1, 403504, Note_off_c, 0, 58, 64
1, 403542, Note_on_c, 0, 43, 104
1, 403545, Note_on_c, 0, 31, 91
1, 403573, Note_on_c, 0, 67, 79
1, 403597, Note_off_c, 0, 43, 58
1, 403642, Note_off_c, 0, 31, 53
1, 403642, Note_off_c, 0, 67, 60
1, 403658, Note_on_c, 0, 55, 82
1, 403708, Note_off_c, 0, 55, 62
1, 403747, Note_on_c, 0, 41, 107
1, 403750, Note_on_c, 0, 29, 92
1, 403823, Note_on_c, 0, 53, 84
1, 403872, Note_off_c, 0, 53, 66
1, 403885, Note_on_c, 0, 57, 81
1, 403915, Control_c, 0, 64, 48
1, 403929, Control_c, 0, 64, 66
1, 403944, Control_c, 0, 64, 74
1, 403953, Note_off_c, 0, 57, 61
1, 403953, Note_on_c, 0, 65, 72
1, 403956, Note_off_c, 0, 29, 61
1, 403959, Control_c, 0, 64, 83
1, 403963, Note_on_c, 0, 62, 74
1, 403974, Control_c, 0, 64, 91
1, 403989, Control_c, 0, 64, 95
1, 403995, Note_off_c, 0, 41, 65
1, 404003, Control_c, 0, 64, 97
1, 404018, Control_c, 0, 64, 98
1, 404019, Note_on_c, 0, 57, 81
1, 404022, Note_off_c, 0, 65, 62
1, 404025, Note_off_c, 0, 62, 63
1, 404088, Note_off_c, 0, 57, 51
1, 404096, Note_on_c, 0, 62, 77
1, 404096, Note_on_c, 0, 65, 64
1, 404136, Note_off_c, 0, 62, 62
1, 404140, Note_off_c, 0, 65, 50
1, 404178, Note_on_c, 0, 50, 88
1, 404185, Note_on_c, 0, 53, 89
1, 404216, Note_on_c, 0, 57, 81
1, 404255, Control_c, 0, 64, 97
1, 404267, Note_off_c, 0, 57, 64
1, 404269, Control_c, 0, 64, 97
1, 404282, Note_on_c, 0, 62, 86
1, 404284, Control_c, 0, 64, 96
1, 404299, Control_c, 0, 64, 96
1, 404347, Note_off_c, 0, 62, 60
1, 404355, Note_on_c, 0, 69, 71
1, 404356, Note_on_c, 0, 65, 81
1, 404368, Note_off_c, 0, 53, 64
1, 404388, Control_c, 0, 64, 95
1, 404400, Note_off_c, 0, 69, 54
1, 404414, Note_on_c, 0, 62, 87
1, 404420, Note_off_c, 0, 65, 65
1, 404466, Note_off_c, 0, 62, 64
1, 404482, Note_on_c, 0, 65, 75
1, 404486, Note_on_c, 0, 69, 81
1, 404525, Note_off_c, 0, 65, 64
1, 404534, Note_off_c, 0, 69, 64
1, 404549, Note_on_c, 0, 57, 97
1, 404552, Note_on_c, 0, 53, 91
1, 404587, Note_off_c, 0, 50, 60
1, 404608, Note_on_c, 0, 62, 87
1, 404629, Note_off_c, 0, 53, 59
1, 404648, Note_off_c, 0, 57, 57
1, 404656, Note_off_c, 0, 62, 64
1, 404662, Control_c, 0, 64, 96
1, 404670, Note_on_c, 0, 65, 88
1, 404677, Control_c, 0, 64, 97
1, 404693, Control_c, 0, 64, 99
1, 404707, Control_c, 0, 64, 102
1, 404722, Control_c, 0, 64, 106
1, 404737, Control_c, 0, 64, 110
1, 404743, Note_on_c, 0, 74, 72
1, 404743, Note_off_c, 0, 65, 67
1, 404745, Note_on_c, 0, 69, 77
1, 404752, Control_c, 0, 64, 115
1, 404767, Control_c, 0, 64, 121
1, 404782, Control_c, 0, 64, 127
1, 404797, Control_c, 0, 64, 127
1, 404805, Note_off_c, 0, 74, 57
1, 404806, Note_on_c, 0, 65, 86
1, 404812, Note_off_c, 0, 69, 64
1, 404865, Note_off_c, 0, 65, 63
1, 404868, Note_on_c, 0, 69, 70
1, 404876, Note_on_c, 0, 74, 59
1, 404902, Note_off_c, 0, 69, 67
1, 404927, Note_on_c, 0, 62, 104
1, 404927, Note_off_c, 0, 74, 63
1, 404928, Note_on_c, 0, 57, 78
1, 404977, Note_off_c, 0, 62, 64
1, 404988, Note_off_c, 0, 57, 64
1, 404992, Note_on_c, 0, 65, 78
1, 405023, Note_on_c, 0, 67, 39
1, 405035, Note_off_c, 0, 65, 67
1, 405040, Note_on_c, 0, 69, 86
1, 405051, Note_off_c, 0, 67, 54
1, 405110, Note_on_c, 0, 77, 72
1, 405113, Note_on_c, 0, 74, 79
1, 405113, Note_off_c, 0, 69, 67
1, 405126, Note_on_c, 0, 76, 62
1, 405145, Note_off_c, 0, 76, 61
1, 405172, Note_on_c, 0, 69, 90
1, 405181, Note_off_c, 0, 77, 62
1, 405193, Note_off_c, 0, 74, 63
1, 405232, Note_off_c, 0, 69, 65
1, 405247, Note_on_c, 0, 74, 56
1, 405253, Note_on_c, 0, 76, 50
1, 405260, Note_on_c, 0, 77, 47
1, 405273, Note_off_c, 0, 76, 55
1, 405274, Note_on_c, 0, 55, 92
1, 405277, Note_on_c, 0, 43, 87
1, 405283, Note_on_c, 0, 50, 82
1, 405283, Note_off_c, 0, 74, 64
1, 405285, Note_off_c, 0, 77, 56
1, 405285, Control_c, 0, 64, 113
1, 405300, Control_c, 0, 64, 90
1, 405322, Control_c, 0, 64, 68
1, 405337, Control_c, 0, 64, 0
1, 405381, Control_c, 0, 64, 64
1, 405385, Note_on_c, 0, 79, 82
1, 405396, Control_c, 0, 64, 74
1, 405411, Control_c, 0, 64, 85
1, 405412, Note_off_c, 0, 55, 63
1, 405426, Note_off_c, 0, 43, 60
1, 405426, Control_c, 0, 64, 94
1, 405440, Note_on_c, 0, 67, 82
1, 405441, Control_c, 0, 64, 96
1, 405442, Note_off_c, 0, 50, 62
1, 405451, Note_off_c, 0, 79, 62
1, 405470, Control_c, 0, 64, 92
1, 405485, Control_c, 0, 64, 80
1, 405485, Note_on_c, 0, 52, 98
1, 405492, Note_off_c, 0, 67, 63
1, 405495, Note_on_c, 0, 40, 96
1, 405500, Control_c, 0, 64, 65
1, 405515, Control_c, 0, 64, 55
1, 405530, Control_c, 0, 64, 66
1, 405545, Control_c, 0, 64, 75
1, 405560, Control_c, 0, 64, 84
1, 405572, Note_on_c, 0, 76, 69
1, 405575, Control_c, 0, 64, 93
1, 405580, Note_on_c, 0, 74, 70
1, 405587, Note_off_c, 0, 40, 62
1, 405590, Control_c, 0, 64, 99
1, 405603, Note_off_c, 0, 52, 62
1, 405605, Control_c, 0, 64, 99
1, 405620, Control_c, 0, 64, 96
1, 405635, Control_c, 0, 64, 80
1, 405635, Note_on_c, 0, 64, 70
1, 405637, Note_off_c, 0, 76, 60
1, 405643, Note_off_c, 0, 74, 60
1, 405649, Control_c, 0, 64, 66
1, 405664, Control_c, 0, 64, 57
1, 405672, Note_on_c, 0, 53, 102
1, 405673, Note_off_c, 0, 64, 62
1, 405676, Note_on_c, 0, 41, 94
1, 405679, Control_c, 0, 64, 66
1, 405693, Control_c, 0, 64, 73
1, 405708, Note_off_c, 0, 53, 64
1, 405708, Control_c, 0, 64, 80
1, 405712, Note_off_c, 0, 41, 65
1, 405723, Control_c, 0, 64, 87
1, 405738, Control_c, 0, 64, 93
1, 405742, Note_on_c, 0, 77, 82
1, 405753, Control_c, 0, 64, 97
1, 405767, Control_c, 0, 64, 99
1, 405782, Control_c, 0, 64, 103
1, 405797, Control_c, 0, 64, 108
1, 405805, Note_off_c, 0, 77, 59
1, 405810, Note_on_c, 0, 65, 77
1, 405812, Control_c, 0, 64, 113
1, 405827, Control_c, 0, 64, 113
1, 405841, Control_c, 0, 64, 109
1, 405847, Note_off_c, 0, 65, 61
1, 405856, Control_c, 0, 64, 91
1, 405858, Note_on_c, 0, 50, 97
1, 405867, Note_on_c, 0, 38, 74
1, 405871, Control_c, 0, 64, 66
1, 405880, Note_on_c, 0, 36, 63
1, 405884, Note_off_c, 0, 50, 63
1, 405886, Control_c, 0, 64, 0
1, 405893, Note_off_c, 0, 38, 65
1, 405909, Note_off_c, 0, 36, 37
1, 405933, Note_on_c, 0, 72, 76
1, 405983, Note_off_c, 0, 72, 52
1, 405990, Note_on_c, 0, 62, 75
1, 406024, Note_off_c, 0, 62, 63
1, 406046, Note_on_c, 0, 46, 108
1, 406054, Note_on_c, 0, 34, 85
1, 406094, Note_off_c, 0, 46, 63
1, 406095, Note_off_c, 0, 34, 67
1, 406105, Note_on_c, 0, 47, 22
1, 406132, Note_on_c, 0, 70, 60
1, 406155, Note_off_c, 0, 47, 31
1, 406156, Note_off_c, 0, 70, 56
1, 406164, Note_on_c, 0, 68, 32
1, 406195, Note_on_c, 0, 58, 70
1, 406196, Note_off_c, 0, 68, 32
1, 406234, Note_off_c, 0, 58, 63
1, 406240, Note_on_c, 0, 56, 25
1, 406241, Note_off_c, 0, 56, 127
1, 406249, Note_on_c, 0, 44, 101
1, 406256, Note_on_c, 0, 32, 86
1, 406282, Note_off_c, 0, 44, 61
1, 406291, Note_off_c, 0, 32, 66
1, 406311, Note_on_c, 0, 68, 63
1, 406361, Note_on_c, 0, 56, 80
1, 406367, Note_off_c, 0, 68, 60
1, 406395, Poly_aftertouch_c, 0, 66, 0
1, 406412, Note_off_c, 0, 56, 63
1, 406435, Note_on_c, 0, 45, 104
1, 406443, Note_on_c, 0, 33, 88
1, 406468, Note_off_c, 0, 45, 66
1, 406472, Note_off_c, 0, 33, 71
1, 406490, Note_on_c, 0, 67, 74
1, 406564, Note_off_c, 0, 67, 60
1, 406565, Note_on_c, 0, 55, 75
1, 406596, Note_on_c, 0, 57, 39
1, 406597, Note_off_c, 0, 57, 127
1, 406610, Note_off_c, 0, 55, 65
1, 406623, Note_on_c, 0, 41, 98
1, 406627, Note_on_c, 0, 29, 88
1, 406668, Note_on_c, 0, 65, 75
1, 406672, Note_off_c, 0, 29, 57
1, 406675, Note_off_c, 0, 41, 64
1, 406731, Note_on_c, 0, 53, 88
1, 406746, Note_off_c, 0, 65, 62
1, 406772, Note_off_c, 0, 53, 67
1, 406828, Note_on_c, 0, 40, 104
1, 406832, Note_on_c, 0, 28, 94
1, 406898, Note_on_c, 0, 56, 82
1, 406950, Note_off_c, 0, 56, 64
1, 406968, Note_on_c, 0, 59, 73
1, 407021, Note_off_c, 0, 28, 61
1, 407041, Control_c, 0, 64, 47
1, 407046, Note_off_c, 0, 59, 63
1, 407054, Note_on_c, 0, 68, 72
1, 407055, Note_on_c, 0, 62, 66
1, 407055, Note_off_c, 0, 40, 66
1, 407056, Control_c, 0, 64, 64
1, 407071, Control_c, 0, 64, 69
1, 407086, Control_c, 0, 64, 73
1, 407102, Control_c, 0, 64, 77
1, 407114, Note_on_c, 0, 59, 72
1, 407117, Control_c, 0, 64, 80
1, 407120, Note_off_c, 0, 68, 62
1, 407127, Note_off_c, 0, 62, 58
1, 407132, Control_c, 0, 64, 82
1, 407146, Control_c, 0, 64, 83
1, 407161, Control_c, 0, 64, 84
1, 407185, Note_off_c, 0, 59, 56
1, 407194, Note_on_c, 0, 68, 66
1, 407196, Note_on_c, 0, 62, 56
1, 407219, Note_off_c, 0, 62, 61
1, 407220, Control_c, 0, 64, 85
1, 407235, Control_c, 0, 64, 85
1, 407250, Control_c, 0, 64, 86
1, 407262, Note_off_c, 0, 68, 40
1, 407265, Note_on_c, 0, 52, 80
1, 407268, Note_on_c, 0, 56, 82
1, 407280, Control_c, 0, 64, 86
1, 407337, Note_on_c, 0, 59, 75
1, 407354, Control_c, 0, 64, 84
1, 407369, Control_c, 0, 64, 82
1, 407384, Control_c, 0, 64, 80
1, 407396, Note_on_c, 0, 62, 83
1, 407400, Note_off_c, 0, 59, 62
1, 407428, Control_c, 0, 64, 81
1, 407443, Control_c, 0, 64, 82
1, 407458, Control_c, 0, 64, 83
1, 407468, Note_on_c, 0, 68, 81
1, 407471, Note_off_c, 0, 62, 57
1, 407472, Control_c, 0, 64, 84
1, 407483, Note_on_c, 0, 71, 54
1, 407487, Control_c, 0, 64, 85
1, 407492, Note_off_c, 0, 56, 60
1, 407502, Control_c, 0, 64, 86
1, 407505, Note_off_c, 0, 71, 58
1, 407517, Control_c, 0, 64, 87
1, 407528, Note_on_c, 0, 62, 84
1, 407531, Control_c, 0, 64, 88
1, 407542, Note_off_c, 0, 68, 64
1, 407569, Control_c, 0, 64, 88
1, 407601, Note_on_c, 0, 71, 69
1, 407607, Note_on_c, 0, 68, 76
1, 407611, Note_off_c, 0, 62, 61
1, 407642, Control_c, 0, 64, 89
1, 407657, Control_c, 0, 64, 91
1, 407659, Note_off_c, 0, 68, 63
1, 407659, Note_off_c, 0, 71, 59
1, 407669, Note_on_c, 0, 59, 101
1, 407671, Control_c, 0, 64, 94
1, 407674, Note_on_c, 0, 56, 84
1, 407686, Control_c, 0, 64, 98
1, 407697, Note_off_c, 0, 52, 62
1, 407701, Control_c, 0, 64, 104
1, 407716, Control_c, 0, 64, 113
1, 407731, Note_on_c, 0, 62, 85
1, 407731, Control_c, 0, 64, 127
1, 407742, Note_off_c, 0, 59, 52
1, 407762, Note_off_c, 0, 56, 58
1, 407796, Note_on_c, 0, 68, 81
1, 407806, Note_off_c, 0, 62, 58
1, 407857, Note_off_c, 0, 68, 65
1, 407858, Note_on_c, 0, 71, 79
1, 407858, Note_on_c, 0, 74, 67
1, 407921, Note_on_c, 0, 68, 88
1, 407926, Note_off_c, 0, 74, 64
1, 407926, Note_off_c, 0, 71, 62
1, 407963, Note_off_c, 0, 68, 68
1, 407986, Note_on_c, 0, 71, 81
1, 407988, Note_on_c, 0, 74, 72
1, 408029, Note_off_c, 0, 74, 60
1, 408029, Note_off_c, 0, 71, 63
1, 408058, Note_on_c, 0, 62, 98
1, 408065, Note_on_c, 0, 59, 80
1, 408112, Note_on_c, 0, 68, 92
1, 408129, Note_off_c, 0, 59, 60
1, 408129, Note_off_c, 0, 62, 63
1, 408159, Note_off_c, 0, 68, 65
1, 408186, Note_on_c, 0, 71, 69
1, 408246, Note_on_c, 0, 74, 79
1, 408254, Note_on_c, 0, 80, 77
1, 408255, Note_off_c, 0, 71, 60
1, 408288, Note_on_c, 0, 75, 25
1, 408320, Note_on_c, 0, 71, 88
1, 408332, Note_off_c, 0, 80, 61
1, 408332, Note_off_c, 0, 75, 40
1, 408339, Note_off_c, 0, 74, 55
1, 408381, Note_on_c, 0, 74, 46
1, 408383, Note_off_c, 0, 71, 60
1, 408393, Note_on_c, 0, 80, 69
1, 408419, Note_off_c, 0, 74, 65
1, 408437, Note_off_c, 0, 80, 60
1, 408443, Note_on_c, 0, 68, 99
1, 408444, Note_on_c, 0, 62, 82
1, 408467, Note_on_c, 0, 69, 83
1, 408518, Note_on_c, 0, 71, 85
1, 408543, Note_off_c, 0, 69, 64
1, 408550, Note_off_c, 0, 68, 61
1, 408562, Note_on_c, 0, 74, 85
1, 408564, Note_off_c, 0, 71, 64
1, 408633, Note_on_c, 0, 80, 86
1, 408635, Note_on_c, 0, 83, 76
1, 408636, Note_off_c, 0, 74, 67
1, 408672, Note_off_c, 0, 83, 50
1, 408700, Note_on_c, 0, 74, 89
1, 408717, Note_off_c, 0, 80, 64
1, 408750, Note_off_c, 0, 74, 67
1, 408752, Note_on_c, 0, 83, 82
1, 408767, Note_on_c, 0, 80, 62
1, 408780, Note_off_c, 0, 83, 60
1, 408784, Note_off_c, 0, 80, 64
1, 408827, Note_on_c, 0, 71, 103
1, 408833, Note_on_c, 0, 68, 89
1, 408895, Note_on_c, 0, 95, 90
1, 408946, Note_on_c, 0, 92, 76
1, 408968, Note_off_c, 0, 95, 56
1, 409004, Note_on_c, 0, 86, 81
1, 409013, Note_off_c, 0, 92, 65
1, 409045, Note_off_c, 0, 86, 63
1, 409071, Note_on_c, 0, 83, 77
1, 409108, Note_off_c, 0, 71, 50
1, 409110, Note_off_c, 0, 83, 57
1, 409128, Note_off_c, 0, 68, 60
1, 409148, Note_on_c, 0, 80, 62
1, 409155, Note_off_c, 0, 62, 54
1, 409180, Note_on_c, 0, 81, 42
1, 409201, Note_on_c, 0, 74, 86
1, 409206, Note_off_c, 0, 81, 51
1, 409242, Note_off_c, 0, 80, 27
1, 409254, Note_off_c, 0, 74, 66
1, 409275, Note_on_c, 0, 83, 83
1, 409322, Note_on_c, 0, 80, 90
1, 409349, Note_off_c, 0, 83, 58
1, 409391, Note_on_c, 0, 74, 78
1, 409400, Note_off_c, 0, 80, 63
1, 409432, Note_off_c, 0, 74, 65
1, 409447, Note_on_c, 0, 71, 79
1, 409473, Note_off_c, 0, 71, 63
1, 409516, Note_on_c, 0, 68, 82
1, 409569, Note_on_c, 0, 62, 94
1, 409584, Note_off_c, 0, 68, 63
1, 409620, Note_off_c, 0, 62, 64
1, 409646, Note_on_c, 0, 71, 83
1, 409697, Note_on_c, 0, 68, 80
1, 409734, Note_off_c, 0, 71, 59
1, 409754, Note_on_c, 0, 62, 72
1, 409778, Note_off_c, 0, 62, 67
1, 409786, Note_off_c, 0, 68, 62
1, 409812, Note_on_c, 0, 59, 81
1, 409885, Note_on_c, 0, 56, 87
1, 409887, Note_off_c, 0, 59, 64
1, 409921, Note_off_c, 0, 56, 62
1, 409948, Control_c, 0, 64, 106
1, 409954, Note_on_c, 0, 44, 105
1, 409958, Note_on_c, 0, 32, 93
1, 409963, Control_c, 0, 64, 78
1, 409978, Control_c, 0, 64, 0
1, 410015, Note_on_c, 0, 59, 85
1, 410052, Control_c, 0, 64, 46
1, 410066, Control_c, 0, 64, 67
1, 410073, Note_off_c, 0, 59, 62
1, 410080, Note_on_c, 0, 62, 84
1, 410081, Control_c, 0, 64, 78
1, 410088, Note_off_c, 0, 32, 63
1, 410096, Control_c, 0, 64, 92
1, 410111, Control_c, 0, 64, 105
1, 410123, Note_off_c, 0, 44, 63
1, 410126, Control_c, 0, 64, 116
1, 410140, Control_c, 0, 64, 122
1, 410149, Note_on_c, 0, 65, 79
1, 410153, Note_off_c, 0, 62, 62
1, 410155, Control_c, 0, 64, 127
1, 410162, Note_on_c, 0, 71, 67
1, 410212, Note_on_c, 0, 62, 83
1, 410213, Note_off_c, 0, 71, 57
1, 410216, Note_off_c, 0, 65, 64
1, 410282, Note_on_c, 0, 65, 73
1, 410288, Note_off_c, 0, 62, 61
1, 410313, Note_on_c, 0, 71, 53
1, 410319, Note_off_c, 0, 65, 62
1, 410338, Note_off_c, 0, 71, 58
1, 410360, Note_on_c, 0, 59, 101
1, 410373, Note_on_c, 0, 56, 75
1, 410421, Note_on_c, 0, 62, 79
1, 410477, Note_off_c, 0, 62, 63
1, 410481, Note_on_c, 0, 65, 88
1, 410502, Note_off_c, 0, 56, 60
1, 410508, Note_off_c, 0, 59, 53
1, 410550, Note_off_c, 0, 65, 64
1, 410553, Note_on_c, 0, 71, 76
1, 410554, Note_on_c, 0, 74, 64
1, 410591, Note_off_c, 0, 74, 67
1, 410623, Note_on_c, 0, 65, 84
1, 410633, Note_off_c, 0, 71, 61
1, 410686, Note_on_c, 0, 74, 74
1, 410688, Note_on_c, 0, 71, 69
1, 410688, Note_off_c, 0, 65, 65
1, 410732, Note_off_c, 0, 71, 59
1, 410744, Note_off_c, 0, 74, 62
1, 410747, Note_on_c, 0, 62, 106
1, 410759, Note_on_c, 0, 59, 79
1, 410804, Note_on_c, 0, 65, 87
1, 410823, Note_off_c, 0, 59, 56
1, 410833, Note_off_c, 0, 62, 53
1, 410851, Note_off_c, 0, 65, 68
1, 410872, Note_on_c, 0, 71, 88
1, 410937, Note_on_c, 0, 77, 77
1, 410938, Note_on_c, 0, 74, 81
1, 410941, Note_off_c, 0, 71, 55
1, 411008, Note_on_c, 0, 71, 83
1, 411009, Note_off_c, 0, 77, 58
1, 411014, Note_off_c, 0, 74, 66
1, 411044, Note_off_c, 0, 71, 67
1, 411063, Note_on_c, 0, 77, 75
1, 411075, Note_on_c, 0, 74, 72
1, 411076, Note_on_c, 0, 72, 68
1, 411101, Note_off_c, 0, 74, 67
1, 411103, Note_off_c, 0, 72, 69
1, 411116, Note_off_c, 0, 77, 63
1, 411120, Note_on_c, 0, 62, 89
1, 411120, Note_on_c, 0, 65, 100
1, 411181, Note_off_c, 0, 65, 67
1, 411183, Note_off_c, 0, 62, 61
1, 411188, Note_on_c, 0, 71, 88
1, 411225, Note_off_c, 0, 71, 66
1, 411244, Note_on_c, 0, 74, 87
1, 411313, Note_on_c, 0, 83, 81
1, 411319, Note_off_c, 0, 74, 67
1, 411323, Note_on_c, 0, 77, 75
1, 411355, Note_off_c, 0, 77, 53
1, 411377, Note_off_c, 0, 83, 53
1, 411385, Note_on_c, 0, 74, 88
1, 411440, Note_on_c, 0, 77, 68
1, 411448, Note_off_c, 0, 74, 66
1, 411452, Note_on_c, 0, 83, 80
1, 411483, Note_off_c, 0, 77, 60
1, 411495, Note_off_c, 0, 83, 58
1, 411510, Note_on_c, 0, 71, 101
1, 411515, Note_on_c, 0, 68, 93
1, 411563, Note_off_c, 0, 71, 61
1, 411575, Note_on_c, 0, 74, 79
1, 411576, Note_on_c, 0, 76, 80
1, 411578, Note_off_c, 0, 68, 65
1, 411596, Note_off_c, 0, 76, 71
1, 411614, Note_off_c, 0, 74, 68
1, 411623, Note_on_c, 0, 77, 90
1, 411681, Note_on_c, 0, 86, 75
1, 411689, Note_off_c, 0, 77, 64
1, 411728, Note_off_c, 0, 86, 61
1, 411757, Note_on_c, 0, 77, 92
1, 411771, Poly_aftertouch_c, 0, 83, 127
1, 411799, Note_off_c, 0, 77, 65
1, 411820, Note_on_c, 0, 86, 55
1, 411836, Poly_aftertouch_c, 0, 83, 0
1, 411840, Note_off_c, 0, 86, 61
1, 411890, Note_on_c, 0, 74, 99
1, 411897, Note_on_c, 0, 71, 89
1, 411953, Note_on_c, 0, 101, 105
1, 412019, Note_on_c, 0, 98, 91
1, 412048, Note_off_c, 0, 101, 64
1, 412085, Note_on_c, 0, 95, 90
1, 412114, Note_off_c, 0, 98, 66
1, 412148, Note_on_c, 0, 89, 93
1, 412151, Note_off_c, 0, 95, 66
1, 412189, Note_off_c, 0, 89, 66
1, 412223, Note_on_c, 0, 86, 100
1, 412231, Note_off_c, 0, 74, 58
1, 412245, Note_off_c, 0, 71, 56
1, 412291, Note_on_c, 0, 83, 93
1, 412306, Note_off_c, 0, 86, 63
1, 412352, Note_off_c, 0, 83, 62
1, 412362, Note_on_c, 0, 89, 96
1, 412422, Note_on_c, 0, 86, 92
1, 412452, Note_off_c, 0, 89, 64
1, 412499, Note_on_c, 0, 83, 77
1, 412514, Note_off_c, 0, 86, 62
1, 412553, Note_on_c, 0, 77, 94
1, 412556, Note_off_c, 0, 83, 63
1, 412592, Note_off_c, 0, 77, 65
1, 412629, Note_on_c, 0, 74, 99
1, 412712, Note_on_c, 0, 71, 93
1, 412727, Note_off_c, 0, 74, 65
1, 412783, Note_on_c, 0, 77, 96
1, 412786, Note_off_c, 0, 71, 60
1, 412863, Note_on_c, 0, 74, 94
1, 412893, Note_off_c, 0, 77, 59
1, 412935, Note_on_c, 0, 71, 83
1, 412961, Note_off_c, 0, 74, 64
1, 412993, Note_off_c, 0, 71, 59
1, 413005, Note_on_c, 0, 65, 88
1, 413069, Note_off_c, 0, 65, 0
1, 413087, Note_on_c, 0, 62, 101
1, 413093, Poly_aftertouch_c, 0, 65, 0
1, 413161, Note_off_c, 0, 62, 57
1, 413165, Control_c, 0, 64, 118
1, 413180, Control_c, 0, 64, 89
1, 413195, Control_c, 0, 64, 63
1, 413197, Note_on_c, 0, 33, 103
1, 413209, Control_c, 0, 64, 0
1, 413358, Control_c, 0, 64, 59
1, 413373, Control_c, 0, 64, 67
1, 413388, Control_c, 0, 64, 73
1, 413395, Note_on_c, 0, 45, 78
1, 413402, Control_c, 0, 64, 79
1, 413403, Note_off_c, 0, 33, 60
1, 413417, Control_c, 0, 64, 85
1, 413432, Control_c, 0, 64, 94
1, 413447, Control_c, 0, 64, 104
1, 413462, Control_c, 0, 64, 112
1, 413465, Note_off_c, 0, 45, 63
1, 413477, Control_c, 0, 64, 119
1, 413492, Control_c, 0, 64, 124
1, 413494, Note_on_c, 0, 33, 76
1, 413507, Control_c, 0, 64, 127
1, 413559, Note_off_c, 0, 33, 61
1, 413564, Note_on_c, 0, 45, 76
1, 413619, Note_off_c, 0, 45, 57
1, 413638, Note_on_c, 0, 33, 71
1, 413675, Note_off_c, 0, 33, 65
1, 413702, Note_on_c, 0, 45, 70
1, 413736, Note_off_c, 0, 45, 63
1, 413779, Note_on_c, 0, 33, 59
1, 413805, Note_off_c, 0, 33, 69
1, 413827, Note_on_c, 0, 45, 69
1, 413862, Note_off_c, 0, 45, 63
1, 413903, Note_on_c, 0, 33, 53
1, 413930, Note_on_c, 0, 69, 103
1, 413943, Note_on_c, 0, 62, 81
1, 413952, Note_on_c, 0, 65, 71
1, 413975, Note_off_c, 0, 33, 57
1, 413996, Note_on_c, 0, 45, 54
1, 414059, Note_off_c, 0, 45, 55
1, 414115, Note_on_c, 0, 33, 53
1, 414157, Note_off_c, 0, 33, 60
1, 414179, Note_on_c, 0, 45, 59
1, 414193, Note_off_c, 0, 62, 60
1, 414268, Note_off_c, 0, 45, 57
1, 414304, Note_on_c, 0, 33, 51
1, 414354, Note_on_c, 0, 64, 86
1, 414360, Note_on_c, 0, 60, 76
1, 414361, Note_off_c, 0, 33, 58
1, 414373, Note_off_c, 0, 65, 62
1, 414390, Note_on_c, 0, 45, 56
1, 414458, Note_off_c, 0, 45, 55
1, 414491, Note_on_c, 0, 33, 58
1, 414534, Note_off_c, 0, 33, 61
1, 414565, Note_off_c, 0, 60, 60
1, 414566, Note_on_c, 0, 45, 60
1, 414604, Note_off_c, 0, 45, 62
1, 414635, Note_on_c, 0, 33, 66
1, 414687, Note_off_c, 0, 33, 60
1, 414709, Note_on_c, 0, 45, 62
1, 414771, Note_off_c, 0, 45, 45
1, 414782, Control_c, 0, 64, 122
1, 414787, Note_on_c, 0, 62, 88
1, 414795, Note_on_c, 0, 59, 76
1, 414797, Note_on_c, 0, 33, 62
1, 414797, Control_c, 0, 64, 111
1, 414811, Control_c, 0, 64, 99
1, 414816, Note_off_c, 0, 64, 61
1, 414826, Control_c, 0, 64, 89
1, 414840, Note_off_c, 0, 33, 60
1, 414841, Control_c, 0, 64, 79
1, 414855, Control_c, 0, 64, 68
1, 414870, Control_c, 0, 64, 31
1, 414874, Note_on_c, 0, 45, 57
1, 414885, Control_c, 0, 64, 0
1, 414926, Note_off_c, 0, 45, 54
1, 414956, Note_on_c, 0, 33, 60
1, 414992, Note_off_c, 0, 33, 65
1, 415020, Note_on_c, 0, 45, 65
1, 415033, Control_c, 0, 64, 43
1, 415055, Control_c, 0, 64, 55
1, 415068, Note_off_c, 0, 45, 64
1, 415070, Control_c, 0, 64, 58
1, 415086, Control_c, 0, 64, 61
1, 415101, Control_c, 0, 64, 63
1, 415102, Note_on_c, 0, 33, 61
1, 415116, Control_c, 0, 64, 66
1, 415131, Control_c, 0, 64, 68
1, 415146, Note_off_c, 0, 33, 65
1, 415146, Control_c, 0, 64, 69
1, 415160, Control_c, 0, 64, 70
1, 415167, Note_on_c, 0, 45, 65
1, 415175, Control_c, 0, 64, 72
1, 415190, Control_c, 0, 64, 75
1, 415205, Control_c, 0, 64, 80
1, 415219, Note_off_c, 0, 45, 58
1, 415220, Control_c, 0, 64, 83
1, 415234, Control_c, 0, 64, 87
1, 415242, Note_on_c, 0, 68, 90
1, 415249, Control_c, 0, 64, 91
1, 415255, Note_on_c, 0, 33, 60
1, 415264, Control_c, 0, 64, 96
1, 415278, Note_off_c, 0, 69, 63
1, 415278, Control_c, 0, 64, 99
1, 415290, Note_off_c, 0, 59, 50
1, 415293, Control_c, 0, 64, 103
1, 415305, Note_off_c, 0, 33, 63
1, 415308, Control_c, 0, 64, 105
1, 415323, Control_c, 0, 64, 107
1, 415328, Note_on_c, 0, 45, 65
1, 415338, Control_c, 0, 64, 108
1, 415350, Note_off_c, 0, 62, 59
1, 415375, Note_off_c, 0, 68, 60
1, 415379, Note_off_c, 0, 45, 58
1, 415382, Control_c, 0, 64, 109
1, 415412, Note_on_c, 0, 33, 61
1, 415452, Note_off_c, 0, 33, 64
1, 415489, Note_on_c, 0, 45, 63
1, 415533, Note_off_c, 0, 45, 60
1, 415566, Note_on_c, 0, 33, 67
1, 415614, Note_off_c, 0, 33, 64
1, 415641, Note_on_c, 0, 45, 58
1, 415678, Control_c, 0, 64, 108
1, 415693, Control_c, 0, 64, 104
1, 415699, Note_off_c, 0, 45, 61
1, 415708, Control_c, 0, 64, 99
1, 415722, Note_on_c, 0, 74, 94
1, 415723, Control_c, 0, 64, 91
1, 415730, Note_on_c, 0, 67, 78
1, 415736, Note_on_c, 0, 70, 77
1, 415737, Note_on_c, 0, 33, 61
1, 415738, Control_c, 0, 64, 81
1, 415752, Control_c, 0, 64, 71
1, 415767, Control_c, 0, 64, 52
1, 415782, Control_c, 0, 64, 0
1, 415820, Control_c, 0, 64, 33
1, 415835, Control_c, 0, 64, 59
1, 415840, Note_on_c, 0, 45, 47
1, 415846, Note_off_c, 0, 33, 55
1, 415850, Control_c, 0, 64, 65
1, 415865, Control_c, 0, 64, 68
1, 415880, Control_c, 0, 64, 72
1, 415895, Control_c, 0, 64, 76
1, 415910, Control_c, 0, 64, 81
1, 415925, Control_c, 0, 64, 86
1, 415939, Control_c, 0, 64, 92
1, 415951, Note_off_c, 0, 45, 52
1, 415954, Control_c, 0, 64, 97
1, 415969, Control_c, 0, 64, 102
1, 415984, Control_c, 0, 64, 107
1, 415985, Note_on_c, 0, 33, 51
1, 415999, Control_c, 0, 64, 111
1, 416014, Control_c, 0, 64, 115
1, 416023, Note_off_c, 0, 33, 61
1, 416023, Note_off_c, 0, 67, 63
1, 416028, Control_c, 0, 64, 117
1, 416043, Control_c, 0, 64, 119
1, 416058, Control_c, 0, 64, 121
1, 416062, Note_on_c, 0, 45, 50
1, 416112, Note_off_c, 0, 45, 57
1, 416158, Note_on_c, 0, 33, 45
1, 416170, Note_on_c, 0, 69, 82
1, 416175, Note_on_c, 0, 65, 72
1, 416208, Note_off_c, 0, 70, 58
1, 416217, Note_off_c, 0, 33, 56
1, 416239, Note_on_c, 0, 45, 50
1, 416311, Note_off_c, 0, 45, 59
1, 416336, Note_on_c, 0, 33, 59
1, 416354, Control_c, 0, 64, 120
1, 416369, Control_c, 0, 64, 119
1, 416372, Note_off_c, 0, 65, 60
1, 416380, Note_off_c, 0, 33, 62
1, 416399, Control_c, 0, 64, 119
1, 416413, Control_c, 0, 64, 118
1, 416427, Note_on_c, 0, 45, 53
1, 416428, Control_c, 0, 64, 118
1, 416443, Control_c, 0, 64, 117
1, 416458, Control_c, 0, 64, 116
1, 416464, Note_off_c, 0, 45, 62
1, 416473, Control_c, 0, 64, 115
1, 416483, Note_on_c, 0, 33, 51
1, 416488, Control_c, 0, 64, 114
1, 416502, Control_c, 0, 64, 114
1, 416517, Control_c, 0, 64, 113
1, 416532, Control_c, 0, 64, 112
1, 416534, Note_off_c, 0, 33, 60
1, 416554, Control_c, 0, 64, 111
1, 416565, Note_on_c, 0, 45, 56
1, 416569, Control_c, 0, 64, 109
1, 416583, Control_c, 0, 64, 106
1, 416598, Control_c, 0, 64, 102
1, 416613, Control_c, 0, 64, 97
1, 416619, Note_off_c, 0, 45, 57
1, 416628, Control_c, 0, 64, 91
1, 416642, Note_on_c, 0, 67, 79
1, 416643, Control_c, 0, 64, 83
1, 416648, Note_on_c, 0, 64, 66
1, 416658, Control_c, 0, 64, 77
1, 416658, Note_on_c, 0, 33, 54
1, 416673, Control_c, 0, 64, 74
1, 416680, Note_off_c, 0, 69, 59
1, 416700, Note_off_c, 0, 33, 63
1, 416703, Control_c, 0, 64, 74
1, 416718, Control_c, 0, 64, 75
1, 416723, Note_on_c, 0, 45, 57
1, 416732, Control_c, 0, 64, 75
1, 416747, Control_c, 0, 64, 77
1, 416762, Control_c, 0, 64, 80
1, 416768, Note_off_c, 0, 45, 57
1, 416777, Control_c, 0, 64, 84
1, 416792, Control_c, 0, 64, 90
1, 416798, Note_on_c, 0, 33, 58
1, 416807, Control_c, 0, 64, 96
1, 416822, Control_c, 0, 64, 103
1, 416837, Control_c, 0, 64, 111
1, 416840, Note_off_c, 0, 33, 63
1, 416851, Control_c, 0, 64, 118
1, 416866, Control_c, 0, 64, 125
1, 416878, Note_on_c, 0, 45, 60
1, 416881, Control_c, 0, 64, 127
1, 416915, Note_off_c, 0, 45, 62
1, 416962, Note_on_c, 0, 33, 51
1, 416997, Note_off_c, 0, 33, 64
1, 417022, Note_on_c, 0, 45, 55
1, 417067, Note_off_c, 0, 45, 57
1, 417119, Note_on_c, 0, 73, 79
1, 417122, Note_on_c, 0, 33, 44
1, 417135, Note_off_c, 0, 64, 58
1, 417173, Note_off_c, 0, 74, 59
1, 417179, Note_off_c, 0, 33, 61
1, 417197, Note_on_c, 0, 45, 58
1, 417238, Note_off_c, 0, 67, 57
1, 417264, Note_off_c, 0, 45, 59
1, 417278, Note_off_c, 0, 73, 56
1, 417308, Note_on_c, 0, 33, 58
1, 417332, Control_c, 0, 64, 126
1, 417346, Control_c, 0, 64, 124
1, 417351, Note_off_c, 0, 33, 62
1, 417361, Control_c, 0, 64, 123
1, 417376, Control_c, 0, 64, 122
1, 417386, Note_on_c, 0, 45, 62
1, 417391, Control_c, 0, 64, 121
1, 417406, Control_c, 0, 64, 119
1, 417421, Control_c, 0, 64, 118
1, 417436, Note_off_c, 0, 45, 61
1, 417436, Control_c, 0, 64, 117
1, 417451, Control_c, 0, 64, 116
1, 417465, Control_c, 0, 64, 115
1, 417468, Note_on_c, 0, 33, 56
1, 417481, Control_c, 0, 64, 115
1, 417496, Control_c, 0, 64, 114
1, 417510, Control_c, 0, 64, 113
1, 417525, Control_c, 0, 64, 113
1, 417529, Note_off_c, 0, 33, 58
1, 417540, Control_c, 0, 64, 111
1, 417541, Note_on_c, 0, 45, 60
1, 417555, Control_c, 0, 64, 109
1, 417570, Control_c, 0, 64, 106
1, 417585, Control_c, 0, 64, 102
1, 417600, Control_c, 0, 64, 96
1, 417612, Note_on_c, 0, 77, 84
1, 417615, Control_c, 0, 64, 90
1, 417620, Note_off_c, 0, 45, 51
1, 417621, Note_on_c, 0, 69, 51
1, 417629, Control_c, 0, 64, 83
1, 417634, Note_on_c, 0, 73, 68
1, 417644, Control_c, 0, 64, 77
1, 417654, Note_on_c, 0, 33, 51
1, 417659, Control_c, 0, 64, 71
1, 417673, Control_c, 0, 64, 66
1, 417688, Control_c, 0, 64, 65
1, 417698, Note_off_c, 0, 33, 59
1, 417703, Control_c, 0, 64, 66
1, 417718, Control_c, 0, 64, 68
1, 417733, Control_c, 0, 64, 69
1, 417734, Note_on_c, 0, 45, 53
1, 417747, Control_c, 0, 64, 73
1, 417762, Control_c, 0, 64, 77
1, 417777, Control_c, 0, 64, 82
1, 417792, Control_c, 0, 64, 87
1, 417793, Note_off_c, 0, 45, 52
1, 417794, Note_off_c, 0, 69, 62
1, 417807, Control_c, 0, 64, 91
1, 417821, Control_c, 0, 64, 94
1, 417822, Note_on_c, 0, 33, 54
1, 417836, Control_c, 0, 64, 96
1, 417851, Control_c, 0, 64, 99
1, 417865, Control_c, 0, 64, 100
1, 417880, Note_off_c, 0, 33, 59
1, 417880, Control_c, 0, 64, 102
1, 417909, Note_on_c, 0, 45, 59
1, 417925, Note_off_c, 0, 73, 61
1, 417940, Control_c, 0, 64, 102
1, 417964, Note_off_c, 0, 45, 53
1, 418002, Note_on_c, 0, 33, 58
1, 418064, Note_on_c, 0, 76, 84
1, 418080, Note_on_c, 0, 67, 66
1, 418095, Note_off_c, 0, 33, 58
1, 418095, Note_on_c, 0, 45, 62
1, 418097, Note_on_c, 0, 70, 45
1, 418110, Note_off_c, 0, 77, 54
1, 418157, Note_off_c, 0, 70, 0
1, 418177, Note_on_c, 0, 70, 27
1, 418208, Note_off_c, 0, 45, 59
1, 418216, Note_on_c, 0, 33, 57
1, 418282, Note_off_c, 0, 33, 61
1, 418284, Note_on_c, 0, 45, 54
1, 418285, Note_off_c, 0, 70, 38
1, 418289, Control_c, 0, 64, 102
1, 418295, Note_off_c, 0, 67, 60
1, 418318, Control_c, 0, 64, 101
1, 418333, Control_c, 0, 64, 101
1, 418372, Note_off_c, 0, 45, 51
1, 418385, Note_on_c, 0, 33, 68
1, 418408, Control_c, 0, 64, 100
1, 418443, Note_off_c, 0, 33, 55
1, 418452, Control_c, 0, 64, 100
1, 418466, Note_on_c, 0, 45, 60
1, 418482, Control_c, 0, 64, 99
1, 418496, Control_c, 0, 64, 98
1, 418511, Control_c, 0, 64, 96
1, 418526, Control_c, 0, 64, 92
1, 418536, Note_on_c, 0, 74, 88
1, 418541, Control_c, 0, 64, 89
1, 418547, Note_on_c, 0, 65, 79
1, 418550, Note_on_c, 0, 69, 75
1, 418556, Control_c, 0, 64, 86
1, 418560, Note_off_c, 0, 45, 54
1, 418567, Note_on_c, 0, 33, 64
1, 418624, Note_off_c, 0, 76, 57
1, 418637, Note_off_c, 0, 33, 57
1, 418644, Control_c, 0, 64, 88
1, 418645, Note_on_c, 0, 45, 53
1, 418659, Control_c, 0, 64, 89
1, 418674, Control_c, 0, 64, 91
1, 418689, Control_c, 0, 64, 93
1, 418703, Control_c, 0, 64, 94
1, 418718, Control_c, 0, 64, 95
1, 418733, Note_off_c, 0, 45, 56
1, 418733, Control_c, 0, 64, 97
1, 418748, Control_c, 0, 64, 99
1, 418755, Note_on_c, 0, 33, 60
1, 418762, Control_c, 0, 64, 101
1, 418777, Control_c, 0, 64, 102
1, 418786, Note_off_c, 0, 69, 63
1, 418800, Control_c, 0, 64, 103
1, 418807, Note_off_c, 0, 65, 61
1, 418816, Control_c, 0, 64, 104
1, 418830, Control_c, 0, 64, 105
1, 418834, Note_off_c, 0, 33, 41
1, 418839, Note_on_c, 0, 45, 58
1, 418860, Control_c, 0, 64, 105
1, 418877, Note_off_c, 0, 45, 59
1, 418926, Note_on_c, 0, 33, 62
1, 418974, Note_off_c, 0, 33, 63
1, 418998, Note_on_c, 0, 45, 60
1, 419044, Note_on_c, 0, 72, 92
1, 419057, Note_on_c, 0, 64, 81
1, 419061, Note_on_c, 0, 67, 75
1, 419083, Note_on_c, 0, 33, 62
1, 419084, Note_off_c, 0, 45, 55
1, 419125, Note_off_c, 0, 74, 61
1, 419155, Note_off_c, 0, 33, 61
1, 419168, Note_on_c, 0, 45, 58
1, 419212, Note_off_c, 0, 64, 60
1, 419237, Note_off_c, 0, 45, 56
1, 419257, Note_off_c, 0, 72, 59
1, 419266, Note_on_c, 0, 33, 61
1, 419269, Note_off_c, 0, 67, 58
1, 419304, Note_off_c, 0, 33, 63
1, 419338, Note_on_c, 0, 45, 65
1, 419374, Note_off_c, 0, 45, 61
1, 419411, Note_on_c, 0, 33, 61
1, 419452, Note_off_c, 0, 33, 63
1, 419468, Control_c, 0, 64, 104
1, 419481, Note_on_c, 0, 45, 65
1, 419483, Control_c, 0, 64, 100
1, 419498, Control_c, 0, 64, 91
1, 419513, Control_c, 0, 64, 76
1, 419527, Control_c, 0, 64, 60
1, 419529, Note_on_c, 0, 72, 97
1, 419537, Note_on_c, 0, 64, 89
1, 419537, Note_on_c, 0, 67, 87
1, 419549, Control_c, 0, 64, 0
1, 419558, Note_on_c, 0, 33, 64
1, 419564, Note_off_c, 0, 45, 55
1, 419607, Control_c, 0, 64, 63
1, 419622, Control_c, 0, 64, 70
1, 419637, Note_off_c, 0, 33, 63
1, 419637, Control_c, 0, 64, 76
1, 419650, Note_on_c, 0, 45, 60
1, 419651, Control_c, 0, 64, 83
1, 419666, Control_c, 0, 64, 89
1, 419681, Control_c, 0, 64, 93
1, 419696, Control_c, 0, 64, 97
1, 419711, Control_c, 0, 64, 98
1, 419725, Note_off_c, 0, 45, 54
1, 419725, Control_c, 0, 64, 100
1, 419740, Control_c, 0, 64, 102
1, 419753, Note_on_c, 0, 33, 63
1, 419755, Control_c, 0, 64, 103
1, 419770, Control_c, 0, 64, 104
1, 419785, Control_c, 0, 64, 105
1, 419800, Control_c, 0, 64, 106
1, 419815, Note_off_c, 0, 33, 58
1, 419815, Control_c, 0, 64, 106
1, 419830, Control_c, 0, 64, 107
1, 419836, Note_on_c, 0, 45, 63
1, 419844, Control_c, 0, 64, 107
1, 419853, Note_off_c, 0, 64, 61
1, 419859, Control_c, 0, 64, 108
1, 419870, Note_off_c, 0, 67, 60
1, 419874, Control_c, 0, 64, 108
1, 419889, Control_c, 0, 64, 109
1, 419895, Note_off_c, 0, 45, 63
1, 419934, Control_c, 0, 64, 109
1, 419937, Note_on_c, 0, 33, 58
1, 419979, Note_off_c, 0, 33, 63
1, 420008, Note_on_c, 0, 45, 60
1, 420059, Note_off_c, 0, 45, 59
1, 420097, Note_on_c, 0, 64, 74
1, 420099, Note_on_c, 0, 67, 81
1, 420104, Note_on_c, 0, 33, 61
1, 420104, Note_on_c, 0, 62, 79
1, 420141, Note_off_c, 0, 72, 63
1, 420166, Note_off_c, 0, 33, 61
1, 420186, Note_on_c, 0, 45, 62
1, 420259, Note_off_c, 0, 45, 50
1, 420284, Note_on_c, 0, 33, 61
1, 420351, Note_off_c, 0, 33, 62
1, 420387, Note_on_c, 0, 70, 97
1, 420390, Note_on_c, 0, 45, 58
1, 420432, Note_off_c, 0, 62, 62
1, 420447, Note_off_c, 0, 67, 51
1, 420453, Note_off_c, 0, 45, 54
1, 420453, Note_off_c, 0, 64, 55
1, 420475, Note_on_c, 0, 33, 63
1, 420562, Note_on_c, 0, 45, 63
1, 420565, Note_off_c, 0, 33, 60
1, 420663, Note_off_c, 0, 45, 56
1, 420673, Note_on_c, 0, 33, 56
1, 420730, Note_off_c, 0, 70, 44
1, 420742, Control_c, 0, 64, 109
1, 420757, Control_c, 0, 64, 108
1, 420765, Note_off_c, 0, 33, 63
1, 420772, Control_c, 0, 64, 108
1, 420785, Note_on_c, 0, 45, 56
1, 420786, Control_c, 0, 64, 107
1, 420801, Control_c, 0, 64, 106
1, 420816, Note_on_c, 0, 69, 98
1, 420816, Control_c, 0, 64, 105
1, 420824, Note_on_c, 0, 61, 80
1, 420826, Note_on_c, 0, 64, 68
1, 420828, Note_on_c, 0, 67, 73
1, 420831, Control_c, 0, 64, 101
1, 420846, Control_c, 0, 64, 96
1, 420849, Note_off_c, 0, 45, 44
1, 420861, Control_c, 0, 64, 91
1, 420876, Control_c, 0, 64, 85
1, 420876, Note_on_c, 0, 33, 50
1, 420890, Control_c, 0, 64, 77
1, 420905, Control_c, 0, 64, 68
1, 420918, Note_off_c, 0, 33, 63
1, 420920, Control_c, 0, 64, 50
1, 420935, Control_c, 0, 64, 0
1, 420959, Note_on_c, 0, 45, 52
1, 421013, Note_off_c, 0, 45, 53
1, 421054, Note_on_c, 0, 33, 50
1, 421106, Note_off_c, 0, 33, 62
1, 421120, Control_c, 0, 64, 39
1, 421134, Note_on_c, 0, 45, 57
1, 421135, Control_c, 0, 64, 50
1, 421150, Control_c, 0, 64, 56
1, 421165, Control_c, 0, 64, 61
1, 421179, Control_c, 0, 64, 64
1, 421194, Control_c, 0, 64, 66
1, 421201, Note_off_c, 0, 45, 51
1, 421209, Control_c, 0, 64, 68
1, 421223, Control_c, 0, 64, 71
1, 421224, Note_on_c, 0, 33, 49
1, 421238, Control_c, 0, 64, 75
1, 421253, Control_c, 0, 64, 77
1, 421268, Control_c, 0, 64, 80
1, 421276, Note_off_c, 0, 33, 63
1, 421283, Control_c, 0, 64, 82
1, 421297, Control_c, 0, 64, 85
1, 421312, Control_c, 0, 64, 88
1, 421322, Note_on_c, 0, 45, 56
1, 421327, Control_c, 0, 64, 91
1, 421341, Control_c, 0, 64, 94
1, 421356, Control_c, 0, 64, 97
1, 421360, Note_off_c, 0, 45, 60
1, 421371, Control_c, 0, 64, 99
1, 421386, Control_c, 0, 64, 102
1, 421401, Note_on_c, 0, 33, 49
1, 421401, Control_c, 0, 64, 104
1, 421415, Control_c, 0, 64, 108
1, 421430, Control_c, 0, 64, 110
1, 421445, Note_off_c, 0, 33, 61
1, 421445, Control_c, 0, 64, 112
1, 421461, Control_c, 0, 64, 113
1, 421476, Note_on_c, 0, 45, 50
1, 421476, Control_c, 0, 64, 114
1, 421491, Control_c, 0, 64, 114
1, 421506, Control_c, 0, 64, 115
1, 421520, Control_c, 0, 64, 116
1, 421522, Note_off_c, 0, 45, 60
1, 421535, Control_c, 0, 64, 116
1, 421550, Control_c, 0, 64, 117
1, 421569, Note_on_c, 0, 33, 45
1, 421591, Note_off_c, 0, 61, 61
1, 421610, Note_off_c, 0, 33, 62
1, 421618, Note_off_c, 0, 69, 59
1, 421627, Note_off_c, 0, 67, 48
1, 421630, Note_off_c, 0, 64, 56
1, 421642, Note_on_c, 0, 45, 53
1, 421693, Note_off_c, 0, 45, 54
1, 421725, Note_on_c, 0, 33, 49
1, 421765, Note_off_c, 0, 33, 63
1, 421807, Note_on_c, 0, 45, 55
1, 421854, Control_c, 0, 64, 116
1, 421858, Note_off_c, 0, 45, 60
1, 421869, Control_c, 0, 64, 116
1, 421884, Control_c, 0, 64, 115
1, 421899, Control_c, 0, 64, 113
1, 421901, Note_on_c, 0, 33, 47
1, 421914, Control_c, 0, 64, 110
1, 421928, Control_c, 0, 64, 107
1, 421943, Control_c, 0, 64, 104
1, 421958, Control_c, 0, 64, 103
1, 421967, Note_off_c, 0, 33, 59
1, 421973, Control_c, 0, 64, 102
1, 421976, Note_on_c, 0, 45, 55
1, 421988, Control_c, 0, 64, 101
1, 421992, Note_on_c, 0, 69, 92
1, 422003, Control_c, 0, 64, 97
1, 422012, Note_on_c, 0, 62, 72
1, 422013, Note_on_c, 0, 65, 70
1, 422018, Control_c, 0, 64, 92
1, 422032, Control_c, 0, 64, 84
1, 422047, Control_c, 0, 64, 77
1, 422062, Control_c, 0, 64, 69
1, 422077, Control_c, 0, 64, 62
1, 422085, Note_off_c, 0, 45, 47
1, 422092, Control_c, 0, 64, 42
1, 422107, Control_c, 0, 64, 38
1, 422110, Note_on_c, 0, 33, 40
1, 422121, Control_c, 0, 64, 53
1, 422136, Control_c, 0, 64, 62
1, 422151, Control_c, 0, 64, 66
1, 422155, Note_off_c, 0, 33, 60
1, 422165, Control_c, 0, 64, 70
1, 422180, Control_c, 0, 64, 75
1, 422193, Note_on_c, 0, 45, 49
1, 422195, Control_c, 0, 64, 82
1, 422210, Control_c, 0, 64, 87
1, 422225, Control_c, 0, 64, 92
1, 422239, Control_c, 0, 64, 94
1, 422254, Control_c, 0, 64, 96
1, 422266, Note_off_c, 0, 45, 50
1, 422270, Control_c, 0, 64, 99
1, 422271, Note_off_c, 0, 62, 59
1, 422285, Control_c, 0, 64, 101
1, 422298, Note_on_c, 0, 33, 42
1, 422300, Control_c, 0, 64, 103
1, 422315, Control_c, 0, 64, 104
1, 422359, Note_off_c, 0, 33, 56
1, 422396, Note_on_c, 0, 45, 42
1, 422444, Note_off_c, 0, 45, 47
1, 422471, Note_on_c, 0, 64, 74
1, 422479, Note_on_c, 0, 60, 62
1, 422493, Note_off_c, 0, 65, 60
1, 422494, Note_on_c, 0, 33, 49
1, 422545, Note_off_c, 0, 33, 60
1, 422559, Control_c, 0, 64, 104
1, 422573, Note_on_c, 0, 45, 45
1, 422574, Control_c, 0, 64, 103
1, 422603, Control_c, 0, 64, 103
1, 422629, Note_off_c, 0, 45, 53
1, 422633, Control_c, 0, 64, 102
1, 422663, Control_c, 0, 64, 102
1, 422668, Note_on_c, 0, 33, 43
1, 422677, Control_c, 0, 64, 101
1, 422692, Note_off_c, 0, 60, 59
1, 422692, Control_c, 0, 64, 101
1, 422707, Control_c, 0, 64, 100
1, 422722, Control_c, 0, 64, 100
1, 422728, Note_off_c, 0, 33, 54
1, 422737, Control_c, 0, 64, 99
1, 422751, Control_c, 0, 64, 98
1, 422752, Note_on_c, 0, 45, 52
1, 422766, Control_c, 0, 64, 96
1, 422781, Control_c, 0, 64, 95
1, 422796, Control_c, 0, 64, 94
1, 422810, Control_c, 0, 64, 93
1, 422819, Note_off_c, 0, 45, 51
1, 422825, Control_c, 0, 64, 92
1, 422855, Control_c, 0, 64, 91
1, 422861, Note_on_c, 0, 33, 48
1, 422870, Control_c, 0, 64, 90
1, 422885, Control_c, 0, 64, 90
1, 422900, Control_c, 0, 64, 88
1, 422915, Control_c, 0, 64, 86
1, 422927, Note_off_c, 0, 33, 59
1, 422930, Control_c, 0, 64, 83
1, 422944, Control_c, 0, 64, 79
1, 422959, Control_c, 0, 64, 73
1, 422960, Note_on_c, 0, 62, 67
1, 422972, Note_on_c, 0, 45, 43
1, 422974, Control_c, 0, 64, 68
1, 422975, Note_on_c, 0, 59, 53
1, 422988, Control_c, 0, 64, 62
1, 422989, Note_off_c, 0, 64, 60
1, 423003, Control_c, 0, 64, 57
1, 423013, Note_off_c, 0, 45, 46
1, 423018, Control_c, 0, 64, 60
1, 423033, Control_c, 0, 64, 64
1, 423048, Control_c, 0, 64, 67
1, 423063, Note_on_c, 0, 33, 38
1, 423064, Control_c, 0, 64, 70
1, 423079, Control_c, 0, 64, 74
1, 423093, Control_c, 0, 64, 79
1, 423104, Note_off_c, 0, 33, 54
1, 423108, Control_c, 0, 64, 83
1, 423123, Control_c, 0, 64, 87
1, 423138, Control_c, 0, 64, 90
1, 423151, Note_on_c, 0, 45, 50
1, 423153, Control_c, 0, 64, 93
1, 423167, Control_c, 0, 64, 95
1, 423182, Control_c, 0, 64, 97
1, 423195, Note_off_c, 0, 45, 55
1, 423197, Control_c, 0, 64, 99
1, 423211, Control_c, 0, 64, 100
1, 423220, Note_on_c, 0, 33, 45
1, 423226, Control_c, 0, 64, 101
1, 423241, Control_c, 0, 64, 101
1, 423265, Note_off_c, 0, 33, 61
1, 423308, Note_on_c, 0, 45, 51
1, 423356, Note_off_c, 0, 45, 57
1, 423418, Note_on_c, 0, 33, 34
1, 423438, Note_on_c, 0, 68, 71
1, 423479, Note_off_c, 0, 69, 58
1, 423512, Note_off_c, 0, 33, 39
1, 423533, Note_on_c, 0, 45, 38
1, 423540, Note_off_c, 0, 59, 41
1, 423603, Note_off_c, 0, 45, 54
1, 423610, Note_off_c, 0, 68, 53
1, 423617, Note_off_c, 0, 62, 59
1, 423648, Note_on_c, 0, 33, 39
1, 423691, Note_off_c, 0, 33, 54
1, 423732, Note_on_c, 0, 45, 45
1, 423736, Control_c, 0, 64, 101
1, 423766, Control_c, 0, 64, 100
1, 423784, Note_off_c, 0, 45, 56
1, 423810, Control_c, 0, 64, 100
1, 423825, Control_c, 0, 64, 99
1, 423827, Note_on_c, 0, 33, 42
1, 423840, Control_c, 0, 64, 99
1, 423855, Control_c, 0, 64, 98
1, 423871, Control_c, 0, 64, 97
1, 423886, Control_c, 0, 64, 97
1, 423901, Control_c, 0, 64, 96
1, 423904, Note_off_c, 0, 33, 54
1, 423930, Control_c, 0, 64, 95
1, 423934, Note_on_c, 0, 45, 43
1, 423945, Control_c, 0, 64, 95
1, 423960, Control_c, 0, 64, 94
1, 423975, Control_c, 0, 64, 92
1, 423989, Control_c, 0, 64, 88
1, 424002, Note_on_c, 0, 67, 66
1, 424004, Control_c, 0, 64, 83
1, 424011, Note_off_c, 0, 45, 52
1, 424019, Control_c, 0, 64, 76
1, 424024, Note_on_c, 0, 63, 52
1, 424041, Control_c, 0, 64, 68
1, 424042, Note_on_c, 0, 60, 48
1, 424056, Control_c, 0, 64, 57
1, 424056, Note_on_c, 0, 33, 26
1, 424071, Control_c, 0, 64, 0
1, 424101, Control_c, 0, 64, 34
1, 424113, Note_off_c, 0, 33, 56
1, 424115, Control_c, 0, 64, 49
1, 424130, Control_c, 0, 64, 59
1, 424145, Control_c, 0, 64, 64
1, 424160, Control_c, 0, 64, 68
1, 424173, Note_on_c, 0, 45, 24
1, 424175, Control_c, 0, 64, 71
1, 424189, Control_c, 0, 64, 75
1, 424204, Control_c, 0, 64, 78
1, 424214, Note_off_c, 0, 45, 49
1, 424217, Note_off_c, 0, 60, 59
1, 424219, Control_c, 0, 64, 81
1, 424234, Control_c, 0, 64, 83
1, 424248, Control_c, 0, 64, 84
1, 424256, Note_on_c, 0, 33, 37
1, 424263, Control_c, 0, 64, 85
1, 424278, Control_c, 0, 64, 86
1, 424293, Note_off_c, 0, 33, 52
1, 424293, Control_c, 0, 64, 86
1, 424328, Note_on_c, 0, 45, 39
1, 424384, Note_off_c, 0, 45, 43
1, 424423, Note_on_c, 0, 33, 27
1, 424475, Note_off_c, 0, 33, 48
1, 424521, Note_on_c, 0, 45, 28
1, 424522, Note_off_c, 0, 63, 34
1, 424551, Note_on_c, 0, 62, 52
1, 424554, Note_off_c, 0, 45, 53
1, 424566, Note_on_c, 0, 58, 46
1, 424598, Note_on_c, 0, 33, 32
1, 424645, Note_off_c, 0, 33, 52
1, 424671, Note_on_c, 0, 45, 39
1, 424723, Note_off_c, 0, 62, 60
1, 424730, Note_off_c, 0, 45, 46
1, 424769, Note_on_c, 0, 33, 35
1, 424825, Note_off_c, 0, 33, 49
1, 424868, Note_on_c, 0, 45, 42
1, 424925, Note_off_c, 0, 45, 43
1, 424970, Note_off_c, 0, 58, 37
1, 424983, Note_on_c, 0, 33, 25
1, 425042, Control_c, 0, 64, 86
1, 425057, Control_c, 0, 64, 85
1, 425058, Note_off_c, 0, 33, 44
1, 425071, Control_c, 0, 64, 83
1, 425083, Note_on_c, 0, 45, 43
1, 425086, Control_c, 0, 64, 81
1, 425096, Note_on_c, 0, 60, 47
1, 425097, Note_on_c, 0, 57, 38
1, 425101, Control_c, 0, 64, 79
1, 425116, Control_c, 0, 64, 77
1, 425131, Control_c, 0, 64, 74
1, 425145, Note_off_c, 0, 45, 40
1, 425145, Control_c, 0, 64, 72
1, 425160, Control_c, 0, 64, 70
1, 425175, Control_c, 0, 64, 68
1, 425189, Control_c, 0, 64, 66
1, 425191, Note_on_c, 0, 33, 35
1, 425219, Control_c, 0, 64, 67
1, 425234, Control_c, 0, 64, 69
1, 425237, Note_off_c, 0, 33, 55
1, 425249, Control_c, 0, 64, 71
1, 425264, Control_c, 0, 64, 74
1, 425278, Note_on_c, 0, 45, 42
1, 425279, Control_c, 0, 64, 78
1, 425294, Control_c, 0, 64, 82
1, 425308, Control_c, 0, 64, 87
1, 425323, Control_c, 0, 64, 90
1, 425328, Note_off_c, 0, 45, 52
1, 425338, Control_c, 0, 64, 92
1, 425353, Control_c, 0, 64, 95
1, 425368, Control_c, 0, 64, 96
1, 425371, Note_on_c, 0, 33, 37
1, 425382, Control_c, 0, 64, 98
1, 425397, Control_c, 0, 64, 98
1, 425412, Control_c, 0, 64, 99
1, 425422, Note_off_c, 0, 33, 58
1, 425458, Note_on_c, 0, 45, 40
1, 425470, Note_off_c, 0, 60, 54
1, 425513, Note_off_c, 0, 45, 54
1, 425517, Note_on_c, 0, 66, 65
1, 425562, Note_on_c, 0, 33, 45
1, 425574, Note_off_c, 0, 57, 42
1, 425583, Note_off_c, 0, 67, 40
1, 425628, Control_c, 0, 64, 99
1, 425633, Note_off_c, 0, 33, 56
1, 425652, Note_on_c, 0, 45, 45
1, 425702, Control_c, 0, 64, 100
1, 425705, Note_off_c, 0, 45, 57
1, 425732, Control_c, 0, 64, 100
1, 425747, Control_c, 0, 64, 101
1, 425762, Control_c, 0, 64, 102
1, 425764, Note_on_c, 0, 33, 39
1, 425776, Control_c, 0, 64, 103
1, 425791, Control_c, 0, 64, 104
1, 425806, Control_c, 0, 64, 105
1, 425815, Note_off_c, 0, 33, 49
1, 425821, Control_c, 0, 64, 106
1, 425825, Note_on_c, 0, 45, 45
1, 425836, Control_c, 0, 64, 108
1, 425851, Control_c, 0, 64, 109
1, 425866, Control_c, 0, 64, 111
1, 425880, Note_off_c, 0, 45, 55
1, 425881, Control_c, 0, 64, 113
1, 425895, Control_c, 0, 64, 115
1, 425900, Note_on_c, 0, 70, 73
1, 425910, Control_c, 0, 64, 118
1, 425921, Note_on_c, 0, 62, 56
1, 425925, Control_c, 0, 64, 121
1, 425928, Note_on_c, 0, 33, 45
1, 425940, Control_c, 0, 64, 127
1, 425972, Note_off_c, 0, 33, 59
1, 426001, Note_on_c, 0, 45, 48
1, 426048, Note_off_c, 0, 45, 58
1, 426083, Note_on_c, 0, 33, 53
1, 426118, Note_off_c, 0, 70, 54
1, 426138, Note_off_c, 0, 33, 59
1, 426160, Note_off_c, 0, 62, 50
1, 426164, Note_on_c, 0, 45, 47
1, 426229, Note_on_c, 0, 69, 83
1, 426241, Note_off_c, 0, 45, 56
1, 426242, Note_on_c, 0, 60, 70
1, 426254, Note_on_c, 0, 33, 59
1, 426302, Note_off_c, 0, 60, 59
1, 426305, Note_off_c, 0, 66, 23
1, 426342, Note_off_c, 0, 33, 57
1, 426350, Note_on_c, 0, 45, 61
1, 426388, Note_off_c, 0, 45, 62
1, 426422, Note_on_c, 0, 33, 61
1, 426448, Note_off_c, 0, 69, 62
1, 426486, Note_off_c, 0, 33, 58
1, 426496, Control_c, 0, 64, 115
1, 426501, Note_on_c, 0, 45, 62
1, 426510, Control_c, 0, 64, 98
1, 426525, Control_c, 0, 64, 84
1, 426538, Note_on_c, 0, 67, 88
1, 426540, Control_c, 0, 64, 74
1, 426547, Note_on_c, 0, 58, 78
1, 426555, Control_c, 0, 64, 71
1, 426564, Note_on_c, 0, 62, 59
1, 426569, Control_c, 0, 64, 74
1, 426576, Note_off_c, 0, 45, 47
1, 426577, Note_on_c, 0, 33, 64
1, 426584, Control_c, 0, 64, 82
1, 426599, Note_off_c, 0, 62, 61
1, 426599, Control_c, 0, 64, 95
1, 426605, Note_off_c, 0, 58, 63
1, 426614, Control_c, 0, 64, 108
1, 426629, Control_c, 0, 64, 120
1, 426638, Note_off_c, 0, 67, 62
1, 426642, Note_off_c, 0, 33, 62
1, 426644, Control_c, 0, 64, 127
1, 426655, Note_on_c, 0, 45, 68
1, 426715, Note_off_c, 0, 45, 62
1, 426745, Note_on_c, 0, 33, 68
1, 426796, Note_off_c, 0, 33, 64
1, 426813, Note_on_c, 0, 45, 76
1, 426818, Note_on_c, 0, 70, 90
1, 426823, Note_on_c, 0, 62, 83
1, 426825, Note_on_c, 0, 67, 85
1, 426873, Note_off_c, 0, 45, 61
1, 426891, Note_on_c, 0, 33, 76
1, 426922, Note_off_c, 0, 67, 62
1, 426933, Note_off_c, 0, 70, 61
1, 426957, Note_off_c, 0, 33, 61
1, 426959, Note_on_c, 0, 45, 77
1, 427014, Note_off_c, 0, 62, 57
1, 427020, Note_off_c, 0, 45, 61
1, 427067, Note_on_c, 0, 33, 65
1, 427110, Note_on_c, 0, 76, 91
1, 427118, Note_on_c, 0, 67, 85
1, 427119, Note_on_c, 0, 70, 87
1, 427130, Note_on_c, 0, 45, 72
1, 427142, Note_off_c, 0, 33, 59
1, 427192, Note_off_c, 0, 45, 64
1, 427229, Note_on_c, 0, 33, 71
1, 427258, Note_off_c, 0, 76, 58
1, 427276, Note_off_c, 0, 33, 63
1, 427303, Note_on_c, 0, 45, 76
1, 427308, Note_off_c, 0, 70, 30
1, 427334, Note_off_c, 0, 67, 37
1, 427353, Note_off_c, 0, 45, 60
1, 427376, Note_on_c, 0, 70, 69
1, 427377, Note_on_c, 0, 74, 93
1, 427379, Note_on_c, 0, 33, 76
1, 427380, Note_on_c, 0, 65, 94
1, 427382, Note_on_c, 0, 67, 80
1, 427429, Note_off_c, 0, 65, 62
1, 427445, Note_on_c, 0, 45, 76
1, 427446, Note_off_c, 0, 67, 59
1, 427447, Note_off_c, 0, 33, 63
1, 427455, Note_off_c, 0, 70, 61
1, 427471, Note_off_c, 0, 74, 61
1, 427500, Note_off_c, 0, 45, 62
1, 427519, Note_on_c, 0, 33, 71
1, 427556, Control_c, 0, 64, 109
1, 427571, Control_c, 0, 64, 89
1, 427583, Note_off_c, 0, 33, 65
1, 427585, Control_c, 0, 64, 69
1, 427593, Note_on_c, 0, 45, 83
1, 427600, Control_c, 0, 64, 0
1, 427612, Note_on_c, 0, 64, 89
1, 427613, Note_on_c, 0, 67, 84
1, 427614, Note_on_c, 0, 73, 76
1, 427615, Note_off_c, 0, 73, 127
1, 427622, Note_on_c, 0, 72, 94
1, 427628, Note_on_c, 0, 69, 62
1, 427630, Control_c, 0, 64, 61
1, 427645, Control_c, 0, 64, 74
1, 427646, Note_off_c, 0, 69, 65
1, 427648, Note_off_c, 0, 64, 63
1, 427657, Note_off_c, 0, 45, 55
1, 427659, Control_c, 0, 64, 85
1, 427666, Note_off_c, 0, 67, 60
1, 427670, Note_on_c, 0, 33, 78
1, 427674, Control_c, 0, 64, 99
1, 427681, Note_off_c, 0, 72, 68
1, 427689, Control_c, 0, 64, 116
1, 427704, Control_c, 0, 64, 127
1, 427729, Poly_aftertouch_c, 0, 73, 0
1, 427743, Note_on_c, 0, 45, 81
1, 427750, Note_off_c, 0, 33, 62
1, 427801, Note_on_c, 0, 75, 39
1, 427814, Note_off_c, 0, 45, 63
1, 427830, Note_off_c, 0, 75, 45
1, 427833, Note_on_c, 0, 33, 81
1, 427854, Note_on_c, 0, 69, 93
1, 427860, Note_on_c, 0, 76, 96
1, 427862, Note_on_c, 0, 73, 90
1, 427904, Note_on_c, 0, 45, 84
1, 427920, Note_off_c, 0, 33, 64
1, 427966, Note_off_c, 0, 73, 52
1, 427972, Note_off_c, 0, 45, 64
1, 427978, Note_off_c, 0, 76, 59
1, 427993, Note_on_c, 0, 33, 82
1, 428070, Note_on_c, 0, 45, 71
1, 428072, Note_off_c, 0, 33, 61
1, 428108, Note_on_c, 0, 81, 94
1, 428110, Note_on_c, 0, 76, 90
1, 428111, Note_on_c, 0, 73, 89
1, 428143, Note_off_c, 0, 45, 51
1, 428146, Note_on_c, 0, 33, 73
1, 428216, Note_off_c, 0, 33, 63
1, 428231, Note_on_c, 0, 45, 80
1, 428231, Note_off_c, 0, 81, 60
1, 428263, Note_off_c, 0, 69, 63
1, 428271, Note_off_c, 0, 73, 54
1, 428301, Note_off_c, 0, 45, 62
1, 428325, Note_on_c, 0, 33, 75
1, 428358, Note_on_c, 0, 79, 96
1, 428361, Note_on_c, 0, 69, 96
1, 428363, Note_off_c, 0, 76, 0
1, 428392, Note_on_c, 0, 74, 50
1, 428394, Note_on_c, 0, 45, 83
1, 428394, Note_off_c, 0, 33, 48
1, 428412, Note_off_c, 0, 74, 61
1, 428416, Note_off_c, 0, 69, 61
1, 428437, Poly_aftertouch_c, 0, 76, 0
1, 428450, Note_off_c, 0, 45, 61
1, 428481, Note_on_c, 0, 33, 77
1, 428548, Note_off_c, 0, 79, 57
1, 428561, Note_off_c, 0, 33, 61
1, 428562, Note_on_c, 0, 45, 78
1, 428573, Note_on_c, 0, 77, 95
1, 428578, Note_on_c, 0, 74, 73
1, 428580, Note_on_c, 0, 69, 91
1, 428623, Note_off_c, 0, 69, 63
1, 428624, Note_off_c, 0, 45, 61
1, 428624, Note_off_c, 0, 74, 65
1, 428638, Note_on_c, 0, 33, 78
1, 428646, Note_off_c, 0, 77, 60
1, 428713, Note_off_c, 0, 33, 63
1, 428723, Note_on_c, 0, 45, 77
1, 428777, Note_off_c, 0, 45, 61
1, 428784, Note_on_c, 0, 76, 92
1, 428787, Note_on_c, 0, 67, 96
1, 428792, Note_on_c, 0, 70, 87
1, 428795, Note_on_c, 0, 33, 85
1, 428850, Note_off_c, 0, 70, 58
1, 428859, Note_off_c, 0, 67, 52
1, 428865, Note_on_c, 0, 45, 83
1, 428877, Note_off_c, 0, 33, 62
1, 428885, Note_off_c, 0, 76, 62
1, 428926, Note_off_c, 0, 45, 59
1, 428935, Control_c, 0, 64, 106
1, 428950, Control_c, 0, 64, 89
1, 428962, Note_on_c, 0, 33, 83
1, 428964, Control_c, 0, 64, 76
1, 428979, Control_c, 0, 64, 72
1, 428994, Control_c, 0, 64, 75
1, 428996, Note_on_c, 0, 74, 86
1, 428999, Note_on_c, 0, 69, 84
1, 429002, Note_on_c, 0, 72, 86
1, 429008, Note_on_c, 0, 64, 72
1, 429009, Control_c, 0, 64, 83
1, 429012, Note_on_c, 0, 65, 69
1, 429023, Note_off_c, 0, 72, 72
1, 429024, Control_c, 0, 64, 94
1, 429026, Note_off_c, 0, 64, 67
1, 429031, Note_on_c, 0, 45, 85
1, 429032, Note_off_c, 0, 65, 68
1, 429039, Control_c, 0, 64, 107
1, 429049, Note_off_c, 0, 33, 61
1, 429050, Note_off_c, 0, 69, 64
1, 429054, Control_c, 0, 64, 125
1, 429069, Control_c, 0, 64, 127
1, 429087, Note_off_c, 0, 74, 63
1, 429103, Note_off_c, 0, 45, 61
1, 429136, Note_on_c, 0, 33, 80
1, 429183, Note_on_c, 0, 73, 98
1, 429187, Note_on_c, 0, 67, 87
1, 429188, Note_on_c, 0, 64, 88
1, 429198, Note_on_c, 0, 69, 68
1, 429204, Note_on_c, 0, 45, 87
1, 429224, Note_off_c, 0, 33, 64
1, 429229, Note_off_c, 0, 69, 65
1, 429242, Note_off_c, 0, 64, 60
1, 429264, Note_off_c, 0, 45, 61
1, 429280, Note_off_c, 0, 67, 60
1, 429304, Note_on_c, 0, 33, 79
1, 429358, Note_off_c, 0, 73, 58
1, 429358, Control_c, 0, 64, 99
1, 429372, Control_c, 0, 64, 69
1, 429374, Note_off_c, 0, 33, 64
1, 429377, Note_on_c, 0, 45, 80
1, 429387, Control_c, 0, 64, 0
1, 429395, Note_on_c, 0, 74, 101
1, 429398, Note_on_c, 0, 69, 97
1, 429400, Note_on_c, 0, 65, 94
1, 429417, Control_c, 0, 64, 63
1, 429425, Note_off_c, 0, 65, 65
1, 429430, Note_off_c, 0, 45, 65
1, 429431, Control_c, 0, 64, 73
1, 429440, Note_off_c, 0, 69, 67
1, 429440, Note_off_c, 0, 74, 68
1, 429446, Control_c, 0, 64, 83
1, 429448, Note_on_c, 0, 33, 78
1, 429462, Control_c, 0, 64, 97
1, 429477, Control_c, 0, 64, 105
1, 429492, Control_c, 0, 64, 108
1, 429507, Control_c, 0, 64, 109
1, 429508, Note_off_c, 0, 33, 64
1, 429526, Note_on_c, 0, 45, 77
1, 429568, Note_off_c, 0, 45, 58
1, 429600, Note_on_c, 0, 70, 99
1, 429601, Note_on_c, 0, 33, 89
1, 429601, Note_on_c, 0, 61, 99
1, 429607, Note_on_c, 0, 64, 91
1, 429640, Note_on_c, 0, 67, 33
1, 429665, Note_off_c, 0, 61, 60
1, 429666, Note_on_c, 0, 45, 75
1, 429668, Note_off_c, 0, 33, 62
1, 429673, Note_off_c, 0, 64, 59
1, 429673, Note_off_c, 0, 67, 48
1, 429680, Note_off_c, 0, 70, 57
1, 429711, Poly_aftertouch_c, 0, 41, 127
1, 429732, Note_off_c, 0, 45, 63
1, 429759, Note_on_c, 0, 33, 76
1, 429759, Control_c, 0, 64, 109
1, 429774, Control_c, 0, 64, 103
1, 429786, Poly_aftertouch_c, 0, 41, 0
1, 429788, Control_c, 0, 64, 90
1, 429803, Control_c, 0, 64, 71
1, 429815, Note_off_c, 0, 33, 62
1, 429818, Control_c, 0, 64, 0
1, 429824, Note_on_c, 0, 45, 93
1, 429826, Note_on_c, 0, 65, 98
1, 429827, Note_on_c, 0, 69, 104
1, 429828, Note_on_c, 0, 62, 95
1, 429862, Control_c, 0, 64, 66
1, 429877, Control_c, 0, 64, 76
1, 429879, Note_off_c, 0, 45, 63
1, 429892, Control_c, 0, 64, 86
1, 429902, Note_off_c, 0, 69, 61
1, 429907, Note_on_c, 0, 33, 86
1, 429907, Control_c, 0, 64, 95
1, 429922, Control_c, 0, 64, 99
1, 429924, Note_off_c, 0, 62, 56
1, 429936, Control_c, 0, 64, 102
1, 429951, Control_c, 0, 64, 103
1, 429966, Control_c, 0, 64, 103
1, 429967, Note_off_c, 0, 33, 64
1, 429983, Note_on_c, 0, 45, 78
1, 430023, Note_off_c, 0, 65, 60
1, 430042, Note_off_c, 0, 45, 60
1, 430060, Note_on_c, 0, 64, 97
1, 430064, Note_on_c, 0, 62, 99
1, 430067, Note_on_c, 0, 68, 72
1, 430069, Note_on_c, 0, 33, 91
1, 430071, Note_on_c, 0, 69, 99
1, 430081, Note_on_c, 0, 65, 46
1, 430108, Note_off_c, 0, 65, 55
1, 430111, Note_off_c, 0, 62, 60
1, 430134, Note_off_c, 0, 33, 56
1, 430137, Note_on_c, 0, 45, 82
1, 430145, Note_off_c, 0, 64, 58
1, 430145, Note_off_c, 0, 69, 59
1, 430155, Note_off_c, 0, 68, 55
1, 430195, Control_c, 0, 64, 104
1, 430197, Note_off_c, 0, 45, 60
1, 430231, Note_on_c, 0, 33, 81
1, 430240, Control_c, 0, 64, 102
1, 430256, Control_c, 0, 64, 93
1, 430271, Control_c, 0, 64, 77
1, 430285, Control_c, 0, 64, 39
1, 430298, Note_off_c, 0, 33, 58
1, 430300, Control_c, 0, 64, 0
1, 430301, Note_on_c, 0, 45, 86
1, 430309, Note_on_c, 0, 65, 94
1, 430310, Note_on_c, 0, 62, 97
1, 430310, Note_on_c, 0, 69, 101
1, 430330, Control_c, 0, 64, 63
1, 430345, Control_c, 0, 64, 74
1, 430355, Note_off_c, 0, 62, 61
1, 430359, Note_off_c, 0, 65, 66
1, 430359, Note_off_c, 0, 69, 64
1, 430359, Control_c, 0, 64, 85
1, 430361, Note_off_c, 0, 45, 62
1, 430374, Control_c, 0, 64, 95
1, 430389, Control_c, 0, 64, 104
1, 430396, Note_on_c, 0, 33, 85
1, 430403, Control_c, 0, 64, 113
1, 430418, Control_c, 0, 64, 126
1, 430433, Control_c, 0, 64, 127
1, 430468, Note_off_c, 0, 33, 59
1, 430478, Note_on_c, 0, 45, 82
1, 430548, Note_off_c, 0, 45, 57
1, 430557, Note_on_c, 0, 65, 103
1, 430559, Note_on_c, 0, 57, 99
1, 430561, Note_on_c, 0, 62, 97
1, 430567, Note_on_c, 0, 33, 90
1, 430622, Note_off_c, 0, 57, 57
1, 430636, Note_off_c, 0, 65, 59
1, 430643, Note_on_c, 0, 45, 85
1, 430645, Note_off_c, 0, 62, 63
1, 430656, Note_off_c, 0, 33, 59
1, 430722, Note_off_c, 0, 45, 63
1, 430737, Note_on_c, 0, 33, 76
1, 430787, Poly_aftertouch_c, 0, 38, 127
1, 430833, Note_on_c, 0, 45, 85
1, 430834, Note_off_c, 0, 33, 59
1, 430853, Note_on_c, 0, 55, 102
1, 430853, Note_on_c, 0, 57, 91
1, 430853, Note_on_c, 0, 61, 93
1, 430853, Note_on_c, 0, 64, 87
1, 430866, Note_on_c, 0, 63, 74
1, 430879, Note_on_c, 0, 62, 57
1, 430880, Note_off_c, 0, 62, 127
1, 430892, Note_off_c, 0, 45, 65
1, 430897, Poly_aftertouch_c, 0, 41, 127
1, 430920, Note_off_c, 0, 63, 63
1, 430933, Note_on_c, 0, 33, 89
1, 430938, Note_off_c, 0, 55, 60
1, 430946, Poly_aftertouch_c, 0, 41, 0
1, 430948, Note_off_c, 0, 64, 63
1, 430974, Note_off_c, 0, 61, 62
1, 430978, Note_off_c, 0, 57, 51
1, 430990, Note_off_c, 0, 33, 64
1, 431008, Note_on_c, 0, 45, 87
1, 431071, Note_off_c, 0, 45, 58
1, 431075, Poly_aftertouch_c, 0, 38, 0
1, 431112, Note_on_c, 0, 33, 81
1, 431179, Note_on_c, 0, 62, 100
1, 431183, Note_on_c, 0, 53, 106
1, 431183, Note_on_c, 0, 57, 100
1, 431189, Note_on_c, 0, 45, 93
1, 431191, Note_off_c, 0, 33, 61
1, 431229, Note_off_c, 0, 45, 62
1, 431257, Note_off_c, 0, 53, 63
1, 431276, Poly_aftertouch_c, 0, 38, 0
1, 431286, Note_on_c, 0, 33, 92
1, 431313, Poly_aftertouch_c, 0, 38, 127
1, 431315, Note_off_c, 0, 57, 56
1, 431363, Note_off_c, 0, 33, 60
1, 431370, Note_on_c, 0, 45, 92
1, 431390, Poly_aftertouch_c, 0, 38, 0
1, 431423, Note_off_c, 0, 62, 43
1, 431442, Note_off_c, 0, 45, 59
1, 431464, Note_on_c, 0, 33, 93
1, 431527, Poly_aftertouch_c, 0, 38, 0
1, 431589, Control_c, 0, 64, 122
1, 431604, Control_c, 0, 64, 92
1, 431610, Note_on_c, 0, 64, 98
1, 431611, Note_on_c, 0, 56, 97
1, 431612, Note_on_c, 0, 52, 98
1, 431616, Note_on_c, 0, 59, 82
1, 431619, Note_on_c, 0, 45, 102
1, 431619, Control_c, 0, 64, 65
1, 431634, Control_c, 0, 64, 0
1, 432096, Note_off_c, 0, 59, 59
1, 432168, Control_c, 0, 64, 56
1, 432182, Control_c, 0, 64, 67
1, 432197, Control_c, 0, 64, 73
1, 432212, Control_c, 0, 64, 81
1, 432227, Control_c, 0, 64, 89
1, 432242, Control_c, 0, 64, 95
1, 432244, Note_off_c, 0, 64, 59
1, 432257, Control_c, 0, 64, 99
1, 432279, Control_c, 0, 64, 102
1, 432293, Control_c, 0, 64, 105
1, 432299, Note_off_c, 0, 52, 58
1, 432308, Control_c, 0, 64, 109
1, 432323, Control_c, 0, 64, 113
1, 432337, Control_c, 0, 64, 117
1, 432352, Control_c, 0, 64, 120
1, 432355, Note_off_c, 0, 33, 57
1, 432364, Note_off_c, 0, 56, 53
1, 432367, Control_c, 0, 64, 121
1, 432381, Note_off_c, 0, 45, 55
1, 432382, Control_c, 0, 64, 121
1, 432604, Control_c, 0, 64, 121
1, 432619, Control_c, 0, 64, 115
1, 432634, Control_c, 0, 64, 102
1, 432646, Note_on_c, 0, 59, 101
1, 432650, Control_c, 0, 64, 84
1, 432650, Note_on_c, 0, 52, 100
1, 432651, Note_on_c, 0, 56, 90
1, 432652, Note_on_c, 0, 45, 97
1, 432655, Note_on_c, 0, 33, 91
1, 432665, Control_c, 0, 64, 64
1, 432679, Control_c, 0, 64, 0
1, 432990, Control_c, 0, 64, 16
1, 433005, Control_c, 0, 64, 44
1, 433027, Control_c, 0, 64, 47
1, 433042, Control_c, 0, 64, 48
1, 433057, Control_c, 0, 64, 50
1, 433072, Control_c, 0, 64, 54
1, 433086, Control_c, 0, 64, 59
1, 433101, Control_c, 0, 64, 64
1, 433116, Control_c, 0, 64, 66
1, 433130, Control_c, 0, 64, 70
1, 433145, Control_c, 0, 64, 76
1, 433160, Control_c, 0, 64, 86
1, 433175, Control_c, 0, 64, 97
1, 433190, Control_c, 0, 64, 114
1, 433205, Control_c, 0, 64, 127
1, 433299, Note_off_c, 0, 52, 53
1, 433394, Note_off_c, 0, 59, 45
1, 433435, Note_off_c, 0, 33, 53
1, 433442, Note_off_c, 0, 56, 51
1, 433477, Note_off_c, 0, 45, 37
1, 433656, Note_on_c, 0, 62, 103
1, 433659, Note_on_c, 0, 52, 99
1, 433660, Note_on_c, 0, 55, 97
1, 433661, Note_on_c, 0, 45, 101
1, 433664, Note_on_c, 0, 57, 90
1, 433665, Note_on_c, 0, 33, 94
1, 433665, Control_c, 0, 64, 96
1, 433680, Control_c, 0, 64, 74
1, 433694, Control_c, 0, 64, 0
1, 434013, Control_c, 0, 64, 46
1, 434027, Control_c, 0, 64, 58
1, 434042, Control_c, 0, 64, 62
1, 434057, Control_c, 0, 64, 63
1, 434072, Control_c, 0, 64, 65
1, 434087, Control_c, 0, 64, 67
1, 434101, Control_c, 0, 64, 69
1, 434116, Control_c, 0, 64, 73
1, 434131, Control_c, 0, 64, 76
1, 434145, Control_c, 0, 64, 80
1, 434160, Control_c, 0, 64, 84
1, 434175, Control_c, 0, 64, 88
1, 434190, Control_c, 0, 64, 93
1, 434205, Control_c, 0, 64, 99
1, 434219, Control_c, 0, 64, 104
1, 434234, Control_c, 0, 64, 110
1, 434250, Control_c, 0, 64, 121
1, 434265, Control_c, 0, 64, 127
1, 434456, Note_off_c, 0, 52, 50
1, 434480, Note_off_c, 0, 62, 58
1, 434585, Note_off_c, 0, 55, 50
1, 434657, Note_off_c, 0, 45, 48
1, 434662, Note_off_c, 0, 57, 12
1, 434729, Note_off_c, 0, 33, 39
1, 434873, Note_on_c, 0, 61, 101
1, 434877, Note_on_c, 0, 52, 100
1, 434879, Note_on_c, 0, 45, 99
1, 434880, Note_on_c, 0, 55, 88
1, 434883, Note_on_c, 0, 33, 89
1, 434885, Note_on_c, 0, 57, 81
1, 434894, Control_c, 0, 64, 100
1, 434909, Control_c, 0, 64, 80
1, 434924, Control_c, 0, 64, 34
1, 434939, Control_c, 0, 64, 0
1, 435206, Control_c, 0, 64, 53
1, 435221, Control_c, 0, 64, 62
1, 435236, Control_c, 0, 64, 65
1, 435251, Control_c, 0, 64, 67
1, 435273, Control_c, 0, 64, 70
1, 435289, Control_c, 0, 64, 74
1, 435303, Control_c, 0, 64, 79
1, 435318, Control_c, 0, 64, 83
1, 435333, Control_c, 0, 64, 87
1, 435348, Control_c, 0, 64, 91
1, 435363, Control_c, 0, 64, 95
1, 435378, Control_c, 0, 64, 100
1, 435393, Control_c, 0, 64, 104
1, 435407, Control_c, 0, 64, 109
1, 435422, Control_c, 0, 64, 113
1, 435437, Control_c, 0, 64, 117
1, 435452, Control_c, 0, 64, 121
1, 435467, Control_c, 0, 64, 127
1, 435481, Control_c, 0, 64, 127
1, 435542, Note_off_c, 0, 45, 63
1, 435711, Poly_aftertouch_c, 0, 38, 127
1, 435768, Note_off_c, 0, 33, 55
1, 435915, Poly_aftertouch_c, 0, 38, 0
1, 436049, Note_off_c, 0, 52, 50
1, 436085, Note_off_c, 0, 57, 60
1, 436085, Note_off_c, 0, 55, 61
1, 436087, Note_off_c, 0, 61, 58
1, 436096, Control_c, 0, 64, 102
1, 436111, Control_c, 0, 64, 74
1, 436123, Note_on_c, 0, 38, 105
1, 436126, Note_on_c, 0, 26, 99
1, 436126, Control_c, 0, 64, 58
1, 436141, Control_c, 0, 64, 67
1, 436154, Note_off_c, 0, 26, 69
1, 436156, Control_c, 0, 64, 81
1, 436157, Note_on_c, 0, 30, 40
1, 436158, Note_off_c, 0, 30, 127
1, 436165, Note_off_c, 0, 38, 62
1, 436171, Control_c, 0, 64, 94
1, 436174, Note_on_c, 0, 36, 9
1, 436186, Control_c, 0, 64, 109
1, 436198, Poly_aftertouch_c, 0, 30, 0
1, 436201, Control_c, 0, 64, 127
1, 436219, Note_off_c, 0, 36, 48
1, 436363, Control_c, 0, 64, 117
1, 436378, Control_c, 0, 64, 102
1, 436393, Control_c, 0, 64, 87
1, 436408, Control_c, 0, 64, 72
1, 436414, Note_on_c, 0, 38, 41
1, 436415, Note_on_c, 0, 45, 32
1, 436422, Control_c, 0, 64, 13
1, 436433, Note_off_c, 0, 38, 55
1, 436437, Control_c, 0, 64, 0
1, 436444, Note_off_c, 0, 45, 57
1, 436463, Note_on_c, 0, 50, 70
1, 436466, Note_on_c, 0, 57, 66
1, 436475, Note_on_c, 0, 53, 57
1, 436493, Note_off_c, 0, 50, 65
1, 436502, Note_off_c, 0, 53, 66
1, 436502, Note_off_c, 0, 57, 61
1, 436543, Note_on_c, 0, 45, 64
1, 436552, Note_on_c, 0, 38, 43
1, 436578, Note_off_c, 0, 45, 64
1, 436585, Note_off_c, 0, 38, 59
1, 436610, Note_on_c, 0, 53, 58
1, 436618, Note_on_c, 0, 50, 55
1, 436624, Note_on_c, 0, 57, 43
1, 436645, Note_off_c, 0, 53, 65
1, 436648, Note_off_c, 0, 50, 63
1, 436652, Note_off_c, 0, 57, 52
1, 436675, Control_c, 0, 64, 30
1, 436683, Note_on_c, 0, 46, 79
1, 436687, Note_on_c, 0, 38, 62
1, 436690, Control_c, 0, 64, 64
1, 436705, Control_c, 0, 64, 70
1, 436713, Note_off_c, 0, 46, 64
1, 436719, Note_off_c, 0, 38, 63
1, 436719, Control_c, 0, 64, 74
1, 436734, Control_c, 0, 64, 78
1, 436749, Control_c, 0, 64, 78
1, 436752, Note_on_c, 0, 57, 55
1, 436758, Note_on_c, 0, 50, 62
1, 436788, Note_on_c, 0, 53, 36
1, 436799, Note_off_c, 0, 57, 59
1, 436800, Note_off_c, 0, 50, 63
1, 436821, Note_on_c, 0, 46, 68
1, 436822, Note_on_c, 0, 38, 59
1, 436824, Note_off_c, 0, 53, 51
1, 436857, Note_off_c, 0, 46, 65
1, 436860, Note_off_c, 0, 38, 61
1, 436875, Control_c, 0, 64, 77
1, 436885, Note_on_c, 0, 50, 67
1, 436889, Note_on_c, 0, 55, 70
1, 436890, Control_c, 0, 64, 72
1, 436905, Control_c, 0, 64, 63
1, 436906, Note_off_c, 0, 50, 67
1, 436913, Note_on_c, 0, 52, 33
1, 436917, Note_off_c, 0, 55, 67
1, 436919, Control_c, 0, 64, 0
1, 436948, Note_off_c, 0, 52, 33
1, 436951, Note_on_c, 0, 46, 76
1, 436967, Note_on_c, 0, 38, 48
1, 436985, Note_off_c, 0, 46, 67
1, 437000, Note_off_c, 0, 38, 60
1, 437012, Note_on_c, 0, 62, 80
1, 437016, Note_on_c, 0, 55, 57
1, 437017, Note_on_c, 0, 52, 73
1, 437041, Note_off_c, 0, 62, 62
1, 437044, Note_off_c, 0, 52, 69
1, 437044, Note_off_c, 0, 55, 66
1, 437085, Note_on_c, 0, 46, 76
1, 437095, Note_on_c, 0, 38, 52
1, 437118, Note_off_c, 0, 46, 65
1, 437131, Note_off_c, 0, 38, 63
1, 437143, Note_on_c, 0, 52, 65
1, 437143, Note_on_c, 0, 62, 77
1, 437148, Note_on_c, 0, 55, 62
1, 437168, Note_off_c, 0, 52, 69
1, 437168, Note_off_c, 0, 62, 66
1, 437170, Note_off_c, 0, 55, 63
1, 437214, Note_on_c, 0, 45, 74
1, 437227, Note_on_c, 0, 40, 35
1, 437242, Note_on_c, 0, 38, 33
1, 437246, Note_off_c, 0, 45, 66
1, 437260, Control_c, 0, 64, 58
1, 437262, Note_off_c, 0, 40, 61
1, 437274, Note_off_c, 0, 38, 47
1, 437275, Control_c, 0, 64, 67
1, 437277, Note_on_c, 0, 62, 78
1, 437280, Note_on_c, 0, 52, 69
1, 437286, Note_on_c, 0, 55, 59
1, 437289, Control_c, 0, 64, 72
1, 437304, Control_c, 0, 64, 76
1, 437309, Note_off_c, 0, 52, 67
1, 437315, Note_off_c, 0, 55, 66
1, 437319, Note_off_c, 0, 62, 55
1, 437319, Control_c, 0, 64, 80
1, 437334, Control_c, 0, 64, 83
1, 437345, Note_on_c, 0, 45, 76
1, 437349, Control_c, 0, 64, 85
1, 437357, Note_on_c, 0, 40, 63
1, 437363, Control_c, 0, 64, 87
1, 437378, Control_c, 0, 64, 88
1, 437384, Note_off_c, 0, 45, 63
1, 437395, Note_off_c, 0, 40, 61
1, 437399, Note_on_c, 0, 61, 87
1, 437448, Note_off_c, 0, 61, 65
1, 437473, Poly_aftertouch_c, 0, 55, 127
1, 437481, Note_on_c, 0, 45, 77
1, 437488, Note_on_c, 0, 38, 63
1, 437489, Poly_aftertouch_c, 0, 52, 0
1, 437498, Note_on_c, 0, 40, 49
1, 437502, Poly_aftertouch_c, 0, 55, 0
1, 437521, Control_c, 0, 64, 88
1, 437530, Note_off_c, 0, 40, 61
1, 437536, Note_on_c, 0, 67, 93
1, 437536, Control_c, 0, 64, 89
1, 437545, Note_on_c, 0, 58, 81
1, 437550, Control_c, 0, 64, 90
1, 437554, Note_off_c, 0, 38, 59
1, 437557, Note_off_c, 0, 45, 54
1, 437565, Control_c, 0, 64, 92
1, 437568, Note_off_c, 0, 58, 71
1, 437580, Control_c, 0, 64, 93
1, 437582, Note_off_c, 0, 67, 63
1, 437594, Control_c, 0, 64, 94
1, 437609, Note_on_c, 0, 45, 66
1, 437609, Control_c, 0, 64, 95
1, 437616, Note_on_c, 0, 38, 64
1, 437624, Control_c, 0, 64, 96
1, 437639, Control_c, 0, 64, 97
1, 437654, Control_c, 0, 64, 97
1, 437668, Note_on_c, 0, 65, 92
1, 437668, Control_c, 0, 64, 98
1, 437672, Note_on_c, 0, 57, 87
1, 437683, Control_c, 0, 64, 99
1, 437687, Note_off_c, 0, 38, 61
1, 437697, Note_off_c, 0, 57, 66
1, 437713, Note_off_c, 0, 65, 67
1, 437722, Note_off_c, 0, 45, 38
1, 437728, Control_c, 0, 64, 98
1, 437742, Control_c, 0, 64, 89
1, 437750, Note_on_c, 0, 49, 92
1, 437754, Note_on_c, 0, 38, 70
1, 437757, Control_c, 0, 64, 75
1, 437763, Note_on_c, 0, 45, 44
1, 437772, Control_c, 0, 64, 62
1, 437787, Control_c, 0, 64, 62
1, 437801, Control_c, 0, 64, 68
1, 437802, Note_on_c, 0, 50, 19
1, 437811, Note_on_c, 0, 64, 90
1, 437814, Note_off_c, 0, 49, 58
1, 437816, Control_c, 0, 64, 74
1, 437822, Note_on_c, 0, 65, 67
1, 437823, Note_on_c, 0, 55, 75
1, 437828, Note_off_c, 0, 38, 61
1, 437831, Control_c, 0, 64, 81
1, 437842, Note_off_c, 0, 65, 64
1, 437846, Note_off_c, 0, 50, 55
1, 437846, Control_c, 0, 64, 86
1, 437850, Note_off_c, 0, 55, 67
1, 437852, Note_off_c, 0, 45, 56
1, 437861, Note_off_c, 0, 64, 65
1, 437861, Control_c, 0, 64, 90
1, 437876, Control_c, 0, 64, 92
1, 437891, Control_c, 0, 64, 92
1, 437897, Note_on_c, 0, 49, 84
1, 437908, Note_on_c, 0, 38, 62
1, 437914, Note_on_c, 0, 45, 50
1, 437947, Note_on_c, 0, 62, 78
1, 437948, Note_on_c, 0, 53, 79
1, 437950, Control_c, 0, 64, 92
1, 437953, Note_off_c, 0, 49, 58
1, 437954, Note_off_c, 0, 38, 59
1, 437963, Note_off_c, 0, 45, 58
1, 437974, Note_off_c, 0, 53, 70
1, 437994, Control_c, 0, 64, 91
1, 437996, Note_off_c, 0, 62, 59
1, 438009, Control_c, 0, 64, 90
1, 438024, Control_c, 0, 64, 89
1, 438039, Control_c, 0, 64, 87
1, 438040, Note_on_c, 0, 49, 80
1, 438054, Control_c, 0, 64, 85
1, 438055, Note_on_c, 0, 45, 63
1, 438056, Note_on_c, 0, 38, 60
1, 438068, Control_c, 0, 64, 84
1, 438083, Control_c, 0, 64, 83
1, 438089, Note_on_c, 0, 55, 73
1, 438098, Note_on_c, 0, 63, 53
1, 438098, Note_on_c, 0, 64, 63
1, 438098, Control_c, 0, 64, 82
1, 438099, Note_off_c, 0, 38, 60
1, 438103, Note_off_c, 0, 45, 60
1, 438111, Note_off_c, 0, 49, 53
1, 438112, Control_c, 0, 64, 81
1, 438115, Note_off_c, 0, 55, 69
1, 438124, Note_off_c, 0, 63, 57
1, 438127, Control_c, 0, 64, 80
1, 438130, Note_off_c, 0, 64, 64
1, 438142, Control_c, 0, 64, 79
1, 438157, Control_c, 0, 64, 78
1, 438172, Note_on_c, 0, 49, 68
1, 438172, Control_c, 0, 64, 76
1, 438186, Note_on_c, 0, 45, 63
1, 438186, Control_c, 0, 64, 75
1, 438201, Control_c, 0, 64, 73
1, 438214, Note_on_c, 0, 38, 35
1, 438216, Control_c, 0, 64, 72
1, 438219, Note_on_c, 0, 65, 76
1, 438228, Note_on_c, 0, 57, 74
1, 438231, Note_off_c, 0, 45, 58
1, 438232, Control_c, 0, 64, 70
1, 438236, Note_off_c, 0, 49, 58
1, 438242, Note_off_c, 0, 38, 50
1, 438247, Control_c, 0, 64, 67
1, 438256, Note_off_c, 0, 57, 66
1, 438256, Note_off_c, 0, 65, 64
1, 438269, Control_c, 0, 64, 58
1, 438284, Control_c, 0, 64, 0
1, 438314, Note_on_c, 0, 50, 82
1, 438317, Note_on_c, 0, 38, 77
1, 438359, Note_off_c, 0, 50, 61
1, 438361, Note_off_c, 0, 38, 62
1, 438383, Note_on_c, 0, 62, 76
1, 438385, Note_on_c, 0, 53, 73
1, 438413, Note_off_c, 0, 53, 67
1, 438424, Note_off_c, 0, 62, 60
1, 438445, Note_on_c, 0, 50, 80
1, 438462, Note_on_c, 0, 38, 46
1, 438481, Note_off_c, 0, 50, 64
1, 438496, Note_off_c, 0, 38, 35
1, 438506, Control_c, 0, 67, 15
1, 438515, Note_on_c, 0, 57, 74
1, 438515, Note_on_c, 0, 65, 76
1, 438521, Control_c, 0, 67, 26
1, 438536, Control_c, 0, 67, 33
1, 438540, Note_off_c, 0, 57, 66
1, 438550, Control_c, 0, 67, 37
1, 438557, Note_off_c, 0, 65, 62
1, 438565, Control_c, 0, 67, 41
1, 438580, Control_c, 0, 67, 45
1, 438582, Note_on_c, 0, 53, 74
1, 438595, Control_c, 0, 67, 50
1, 438610, Control_c, 0, 67, 56
1, 438618, Note_off_c, 0, 53, 65
1, 438624, Control_c, 0, 67, 62
1, 438636, Note_on_c, 0, 50, 3
1, 438637, Note_off_c, 0, 50, 127
1, 438639, Control_c, 0, 67, 66
1, 438654, Control_c, 0, 67, 67
1, 438660, Note_on_c, 0, 65, 64
1, 438663, Note_on_c, 0, 69, 63
1, 438669, Control_c, 0, 67, 68
1, 438679, Note_off_c, 0, 65, 65
1, 438684, Note_off_c, 0, 69, 67
1, 438728, Note_on_c, 0, 50, 48
1, 438728, Note_on_c, 0, 53, 63
1, 438743, Control_c, 0, 67, 68
1, 438757, Note_off_c, 0, 53, 68
1, 438758, Control_c, 0, 67, 67
1, 438761, Note_off_c, 0, 50, 66
1, 438773, Control_c, 0, 67, 66
1, 438775, Note_on_c, 0, 65, 69
1, 438775, Note_on_c, 0, 69, 71
1, 438788, Control_c, 0, 67, 66
1, 438788, Note_on_c, 0, 62, 62
1, 438803, Note_off_c, 0, 65, 68
1, 438803, Control_c, 0, 67, 65
1, 438805, Note_off_c, 0, 69, 66
1, 438808, Note_off_c, 0, 62, 62
1, 438817, Control_c, 0, 67, 64
1, 438832, Control_c, 0, 67, 62
1, 438842, Note_on_c, 0, 58, 70
1, 438847, Note_on_c, 0, 50, 64
1, 438847, Control_c, 0, 64, 62
1, 438847, Control_c, 0, 67, 60
1, 438862, Control_c, 0, 64, 72
1, 438862, Control_c, 0, 67, 57
1, 438869, Note_off_c, 0, 58, 68
1, 438877, Control_c, 0, 64, 79
1, 438877, Control_c, 0, 67, 55
1, 438880, Note_off_c, 0, 50, 63
1, 438891, Control_c, 0, 64, 84
1, 438891, Control_c, 0, 67, 53
1, 438906, Control_c, 0, 64, 86
1, 438906, Control_c, 0, 67, 52
1, 438909, Note_on_c, 0, 62, 65
1, 438909, Note_on_c, 0, 65, 73
1, 438912, Note_on_c, 0, 69, 75
1, 438921, Control_c, 0, 64, 87
1, 438934, Note_off_c, 0, 65, 68
1, 438935, Control_c, 0, 64, 88
1, 438935, Control_c, 0, 67, 53
1, 438937, Note_off_c, 0, 62, 65
1, 438937, Note_off_c, 0, 69, 68
1, 438950, Control_c, 0, 67, 53
1, 438970, Note_on_c, 0, 58, 78
1, 438982, Note_on_c, 0, 50, 55
1, 439000, Note_off_c, 0, 58, 63
1, 439022, Note_off_c, 0, 50, 65
1, 439036, Note_on_c, 0, 62, 71
1, 439040, Note_on_c, 0, 67, 82
1, 439053, Note_on_c, 0, 64, 55
1, 439063, Note_off_c, 0, 62, 64
1, 439063, Note_off_c, 0, 67, 67
1, 439072, Note_off_c, 0, 64, 59
1, 439077, Control_c, 0, 64, 87
1, 439077, Control_c, 0, 67, 54
1, 439092, Control_c, 0, 64, 85
1, 439107, Control_c, 0, 64, 78
1, 439108, Note_on_c, 0, 58, 81
1, 439113, Note_on_c, 0, 50, 55
1, 439122, Control_c, 0, 64, 67
1, 439137, Control_c, 0, 64, 0
1, 439137, Control_c, 0, 67, 55
1, 439140, Note_off_c, 0, 58, 61
1, 439146, Note_off_c, 0, 50, 66
1, 439162, Note_on_c, 0, 64, 72
1, 439164, Note_on_c, 0, 74, 79
1, 439169, Note_on_c, 0, 67, 68
1, 439181, Control_c, 0, 67, 54
1, 439185, Note_off_c, 0, 64, 67
1, 439195, Note_off_c, 0, 67, 68
1, 439196, Control_c, 0, 67, 53
1, 439199, Note_off_c, 0, 74, 65
1, 439211, Control_c, 0, 67, 53
1, 439226, Control_c, 0, 67, 52
1, 439241, Note_on_c, 0, 58, 79
1, 439241, Control_c, 0, 67, 51
1, 439253, Note_on_c, 0, 50, 49
1, 439255, Control_c, 0, 67, 50
1, 439268, Note_off_c, 0, 58, 67
1, 439270, Control_c, 0, 67, 48
1, 439271, Note_on_c, 0, 52, 43
1, 439283, Note_off_c, 0, 50, 62
1, 439285, Control_c, 0, 67, 45
1, 439286, Note_on_c, 0, 64, 66
1, 439289, Note_on_c, 0, 74, 78
1, 439299, Note_off_c, 0, 52, 49
1, 439300, Control_c, 0, 67, 40
1, 439311, Note_off_c, 0, 74, 67
1, 439312, Note_off_c, 0, 64, 67
1, 439314, Control_c, 0, 67, 36
1, 439317, Note_on_c, 0, 67, 23
1, 439327, Note_off_c, 0, 67, 39
1, 439329, Control_c, 0, 67, 30
1, 439344, Control_c, 0, 67, 19
1, 439359, Control_c, 0, 67, 0
1, 439363, Note_on_c, 0, 57, 77
1, 439370, Note_on_c, 0, 52, 71
1, 439379, Note_on_c, 0, 50, 52
1, 439393, Note_off_c, 0, 57, 63
1, 439401, Note_off_c, 0, 52, 67
1, 439403, Control_c, 0, 64, 45
1, 439409, Note_off_c, 0, 50, 66
1, 439418, Control_c, 0, 64, 73
1, 439420, Note_on_c, 0, 74, 89
1, 439424, Note_on_c, 0, 64, 77
1, 439433, Control_c, 0, 64, 83
1, 439439, Note_on_c, 0, 67, 60
1, 439448, Note_off_c, 0, 64, 70
1, 439448, Control_c, 0, 64, 90
1, 439459, Note_off_c, 0, 67, 60
1, 439463, Control_c, 0, 64, 93
1, 439467, Note_off_c, 0, 74, 66
1, 439478, Control_c, 0, 64, 96
1, 439493, Control_c, 0, 64, 96
1, 439494, Note_on_c, 0, 57, 86
1, 439504, Note_on_c, 0, 52, 66
1, 439508, Control_c, 0, 64, 97
1, 439523, Note_on_c, 0, 50, 43
1, 439539, Note_off_c, 0, 57, 60
1, 439541, Note_off_c, 0, 52, 61
1, 439546, Note_on_c, 0, 73, 95
1, 439551, Note_on_c, 0, 64, 80
1, 439553, Note_off_c, 0, 50, 51
1, 439560, Note_on_c, 0, 67, 48
1, 439572, Note_off_c, 0, 64, 70
1, 439582, Note_off_c, 0, 67, 58
1, 439596, Note_off_c, 0, 73, 64
1, 439626, Control_c, 0, 64, 97
1, 439629, Note_on_c, 0, 57, 84
1, 439638, Note_on_c, 0, 52, 75
1, 439642, Note_on_c, 0, 50, 55
1, 439670, Control_c, 0, 64, 98
1, 439671, Note_on_c, 0, 79, 93
1, 439674, Note_on_c, 0, 70, 94
1, 439680, Note_off_c, 0, 57, 62
1, 439682, Note_off_c, 0, 50, 61
1, 439685, Control_c, 0, 64, 98
1, 439686, Note_off_c, 0, 52, 58
1, 439715, Note_off_c, 0, 79, 63
1, 439718, Note_off_c, 0, 70, 60
1, 439745, Control_c, 0, 64, 99
1, 439763, Note_on_c, 0, 57, 75
1, 439778, Note_on_c, 0, 50, 67
1, 439780, Note_on_c, 0, 52, 49
1, 439782, Control_c, 0, 64, 99
1, 439797, Control_c, 0, 64, 100
1, 439797, Control_c, 0, 67, 8
1, 439811, Note_on_c, 0, 69, 90
1, 439812, Control_c, 0, 64, 100
1, 439812, Control_c, 0, 67, 10
1, 439813, Note_off_c, 0, 52, 63
1, 439818, Note_on_c, 0, 79, 81
1, 439824, Note_on_c, 0, 77, 81
1, 439827, Control_c, 0, 67, 12
1, 439831, Note_off_c, 0, 57, 54
1, 439840, Note_off_c, 0, 50, 60
1, 439843, Control_c, 0, 67, 13
1, 439844, Note_off_c, 0, 69, 63
1, 439847, Note_off_c, 0, 77, 65
1, 439855, Note_off_c, 0, 79, 61
1, 439858, Control_c, 0, 67, 14
1, 439872, Control_c, 0, 64, 100
1, 439887, Control_c, 0, 64, 92
1, 439887, Control_c, 0, 67, 13
1, 439894, Note_on_c, 0, 50, 70
1, 439896, Note_on_c, 0, 61, 100
1, 439902, Control_c, 0, 64, 76
1, 439910, Note_on_c, 0, 57, 63
1, 439917, Control_c, 0, 64, 56
1, 439932, Control_c, 0, 64, 0
1, 439946, Control_c, 0, 64, 53
1, 439946, Control_c, 0, 67, 13
1, 439955, Note_on_c, 0, 77, 91
1, 439961, Control_c, 0, 64, 68
1, 439961, Control_c, 0, 67, 12
1, 439963, Note_on_c, 0, 67, 86
1, 439968, Note_off_c, 0, 61, 51
1, 439972, Note_on_c, 0, 76, 76
1, 439976, Control_c, 0, 64, 75
1, 439976, Control_c, 0, 67, 11
1, 439983, Note_off_c, 0, 50, 59
1, 439989, Note_off_c, 0, 67, 64
1, 439990, Control_c, 0, 64, 82
1, 439994, Note_off_c, 0, 57, 48
1, 440002, Note_off_c, 0, 77, 61
1, 440005, Control_c, 0, 64, 87
1, 440008, Note_off_c, 0, 76, 61
1, 440020, Control_c, 0, 64, 89
1, 440034, Note_on_c, 0, 61, 67
1, 440035, Control_c, 0, 64, 90
1, 440043, Note_on_c, 0, 50, 66
1, 440050, Control_c, 0, 64, 91
1, 440050, Control_c, 0, 67, 12
1, 440056, Note_on_c, 0, 57, 47
1, 440064, Control_c, 0, 64, 91
1, 440079, Control_c, 0, 67, 11
1, 440085, Note_off_c, 0, 57, 62
1, 440089, Note_on_c, 0, 65, 84
1, 440089, Note_on_c, 0, 74, 77
1, 440094, Note_off_c, 0, 50, 60
1, 440094, Note_off_c, 0, 61, 62
1, 440094, Control_c, 0, 67, 11
1, 440109, Control_c, 0, 67, 10
1, 440112, Note_off_c, 0, 65, 69
1, 440141, Note_off_c, 0, 74, 63
1, 440174, Note_on_c, 0, 61, 78
1, 440183, Note_on_c, 0, 50, 57
1, 440183, Control_c, 0, 67, 10
1, 440187, Note_on_c, 0, 57, 64
1, 440213, Control_c, 0, 67, 10
1, 440221, Note_off_c, 0, 57, 57
1, 440228, Note_on_c, 0, 76, 72
1, 440228, Control_c, 0, 67, 11
1, 440228, Note_off_c, 0, 50, 59
1, 440230, Note_off_c, 0, 61, 60
1, 440238, Note_on_c, 0, 67, 54
1, 440243, Control_c, 0, 67, 12
1, 440254, Note_on_c, 0, 69, 42
1, 440258, Control_c, 0, 67, 13
1, 440258, Note_off_c, 0, 76, 62
1, 440261, Note_off_c, 0, 67, 58
1, 440272, Control_c, 0, 67, 14
1, 440281, Note_off_c, 0, 69, 51
1, 440287, Control_c, 0, 67, 14
1, 440302, Control_c, 0, 67, 15
1, 440307, Note_on_c, 0, 61, 78
1, 440325, Note_on_c, 0, 57, 64
1, 440326, Note_on_c, 0, 50, 55
1, 440331, Control_c, 0, 67, 15
1, 440335, Note_on_c, 0, 53, 42
1, 440348, Note_off_c, 0, 61, 62
1, 440352, Note_off_c, 0, 50, 64
1, 440356, Note_off_c, 0, 57, 63
1, 440362, Note_off_c, 0, 53, 58
1, 440366, Note_on_c, 0, 69, 68
1, 440376, Control_c, 0, 67, 15
1, 440380, Note_on_c, 0, 77, 47
1, 440388, Note_off_c, 0, 69, 68
1, 440390, Control_c, 0, 64, 89
1, 440401, Note_off_c, 0, 77, 57
1, 440405, Control_c, 0, 64, 79
1, 440420, Control_c, 0, 64, 57
1, 440420, Control_c, 0, 67, 14
1, 440435, Control_c, 0, 64, 0
1, 440436, Note_on_c, 0, 62, 86
1, 440440, Note_on_c, 0, 50, 69
1, 440440, Note_on_c, 0, 57, 64
1, 440442, Note_on_c, 0, 53, 63
1, 440450, Control_c, 0, 67, 15
1, 440464, Control_c, 0, 67, 16
1, 440472, Note_off_c, 0, 57, 62
1, 440473, Note_off_c, 0, 53, 67
1, 440478, Note_off_c, 0, 62, 59
1, 440478, Note_off_c, 0, 50, 60
1, 440479, Control_c, 0, 67, 16
1, 440489, Note_on_c, 0, 74, 76
1, 440493, Note_on_c, 0, 65, 71
1, 440494, Control_c, 0, 67, 18
1, 440516, Control_c, 0, 67, 19
1, 440527, Note_off_c, 0, 65, 69
1, 440530, Note_off_c, 0, 74, 65
1, 440531, Control_c, 0, 67, 20
1, 440546, Control_c, 0, 67, 19
1, 440561, Control_c, 0, 67, 18
1, 440568, Note_on_c, 0, 62, 86
1, 440574, Note_on_c, 0, 50, 71
1, 440576, Control_c, 0, 67, 18
1, 440584, Note_on_c, 0, 57, 67
1, 440589, Note_on_c, 0, 53, 42
1, 440590, Control_c, 0, 67, 17
1, 440601, Note_off_c, 0, 62, 63
1, 440605, Control_c, 0, 67, 16
1, 440610, Note_off_c, 0, 57, 65
1, 440615, Note_off_c, 0, 50, 60
1, 440615, Note_off_c, 0, 53, 56
1, 440620, Control_c, 0, 67, 14
1, 440627, Note_on_c, 0, 74, 74
1, 440627, Note_on_c, 0, 65, 68
1, 440635, Control_c, 0, 67, 11
1, 440648, Note_off_c, 0, 74, 72
1, 440651, Control_c, 0, 67, 8
1, 440656, Note_off_c, 0, 65, 69
1, 440666, Control_c, 0, 67, 0
1, 440686, Note_on_c, 0, 57, 85
1, 440693, Note_on_c, 0, 62, 86
1, 440719, Note_off_c, 0, 62, 62
1, 440732, Note_off_c, 0, 57, 65
1, 440753, Note_on_c, 0, 69, 87
1, 440755, Note_on_c, 0, 65, 80
1, 440778, Note_off_c, 0, 65, 69
1, 440785, Note_off_c, 0, 69, 68
1, 440814, Note_on_c, 0, 57, 89
1, 440818, Note_on_c, 0, 62, 85
1, 440842, Note_off_c, 0, 62, 66
1, 440855, Note_off_c, 0, 57, 61
1, 440866, Note_on_c, 0, 69, 90
1, 440867, Note_on_c, 0, 65, 85
1, 440889, Note_off_c, 0, 65, 71
1, 440898, Note_off_c, 0, 69, 68
1, 440936, Note_on_c, 0, 62, 102
1, 440939, Note_on_c, 0, 58, 99
1, 440964, Note_on_c, 0, 53, 55
1, 440973, Note_off_c, 0, 62, 65
1, 440976, Control_c, 0, 64, 64
1, 440991, Note_off_c, 0, 53, 37
1, 440991, Note_off_c, 0, 58, 66
1, 440991, Control_c, 0, 64, 87
1, 440994, Note_on_c, 0, 69, 96
1, 440995, Note_on_c, 0, 65, 82
1, 441006, Control_c, 0, 64, 117
1, 441017, Note_off_c, 0, 65, 70
1, 441021, Control_c, 0, 64, 127
1, 441025, Note_off_c, 0, 69, 63
1, 441074, Note_on_c, 0, 62, 84
1, 441075, Note_on_c, 0, 53, 51
1, 441083, Note_on_c, 0, 58, 79
1, 441094, Note_off_c, 0, 62, 64
1, 441104, Note_off_c, 0, 58, 67
1, 441104, Note_off_c, 0, 53, 55
1, 441110, Control_c, 0, 64, 114
1, 441125, Control_c, 0, 64, 96
1, 441131, Note_on_c, 0, 68, 78
1, 441134, Note_on_c, 0, 65, 69
1, 441139, Control_c, 0, 64, 71
1, 441151, Note_off_c, 0, 65, 69
1, 441154, Control_c, 0, 64, 0
1, 441166, Note_off_c, 0, 68, 64
1, 441200, Note_on_c, 0, 62, 82
1, 441203, Note_on_c, 0, 57, 84
1, 441235, Note_off_c, 0, 62, 64
1, 441242, Note_off_c, 0, 57, 60
1, 441272, Note_on_c, 0, 69, 81
1, 441275, Note_on_c, 0, 65, 52
1, 441295, Note_off_c, 0, 69, 69
1, 441298, Note_off_c, 0, 65, 64
1, 441334, Note_on_c, 0, 57, 84
1, 441335, Note_on_c, 0, 62, 84
1, 441376, Note_off_c, 0, 62, 58
1, 441387, Note_off_c, 0, 57, 62
1, 441393, Note_on_c, 0, 65, 76
1, 441394, Note_on_c, 0, 69, 85
1, 441420, Note_off_c, 0, 65, 66
1, 441423, Note_off_c, 0, 69, 65
1, 441467, Note_on_c, 0, 62, 102
1, 441471, Note_on_c, 0, 59, 94
1, 441489, Control_c, 0, 64, 37
1, 441504, Control_c, 0, 64, 78
1, 441510, Note_off_c, 0, 62, 64
1, 441513, Note_off_c, 0, 59, 63
1, 441518, Control_c, 0, 64, 94
1, 441528, Note_on_c, 0, 69, 95
1, 441533, Control_c, 0, 64, 102
1, 441534, Note_on_c, 0, 65, 76
1, 441555, Note_off_c, 0, 65, 70
1, 441563, Note_off_c, 0, 69, 62
1, 441569, Poly_aftertouch_c, 0, 58, 0
1, 441592, Control_c, 0, 64, 101
1, 441604, Note_on_c, 0, 62, 81
1, 441607, Control_c, 0, 64, 99
1, 441618, Note_on_c, 0, 59, 69
1, 441622, Control_c, 0, 64, 96
1, 441632, Note_off_c, 0, 62, 55
1, 441636, Control_c, 0, 64, 93
1, 441642, Note_off_c, 0, 59, 66
1, 441651, Control_c, 0, 64, 85
1, 441666, Control_c, 0, 64, 71
1, 441668, Note_on_c, 0, 65, 74
1, 441671, Note_on_c, 0, 68, 77
1, 441681, Control_c, 0, 64, 0
1, 441692, Note_off_c, 0, 65, 68
1, 441702, Note_off_c, 0, 68, 65
1, 441742, Note_on_c, 0, 62, 86
1, 441745, Note_on_c, 0, 57, 81
1, 441776, Note_off_c, 0, 57, 64
1, 441776, Note_off_c, 0, 62, 62
1, 441796, Note_on_c, 0, 69, 81
1, 441799, Note_on_c, 0, 65, 79
1, 441805, Note_on_c, 0, 74, 66
1, 441822, Note_off_c, 0, 65, 70
1, 441823, Note_off_c, 0, 69, 65
1, 441829, Note_off_c, 0, 74, 70
1, 441870, Note_on_c, 0, 57, 85
1, 441872, Note_on_c, 0, 62, 80
1, 441897, Note_off_c, 0, 62, 65
1, 441916, Note_on_c, 0, 65, 83
1, 441918, Note_off_c, 0, 57, 60
1, 441918, Note_on_c, 0, 69, 81
1, 441924, Note_on_c, 0, 74, 73
1, 441940, Note_off_c, 0, 69, 71
1, 441941, Note_off_c, 0, 65, 67
1, 441946, Note_off_c, 0, 74, 72
1, 441990, Note_on_c, 0, 58, 96
1, 441993, Note_on_c, 0, 62, 95
1, 442029, Control_c, 0, 64, 67
1, 442036, Note_off_c, 0, 62, 65
1, 442043, Control_c, 0, 64, 86
1, 442046, Note_off_c, 0, 58, 67
1, 442058, Note_on_c, 0, 65, 84
1, 442058, Note_on_c, 0, 69, 81
1, 442058, Control_c, 0, 64, 101
1, 442064, Note_on_c, 0, 74, 70
1, 442073, Control_c, 0, 64, 105
1, 442079, Note_off_c, 0, 65, 72
1, 442079, Note_off_c, 0, 69, 70
1, 442087, Note_off_c, 0, 74, 72
1, 442118, Control_c, 0, 64, 101
1, 442133, Control_c, 0, 64, 94
1, 442137, Note_on_c, 0, 58, 88
1, 442137, Note_on_c, 0, 62, 81
1, 442148, Control_c, 0, 64, 86
1, 442162, Note_off_c, 0, 62, 64
1, 442162, Control_c, 0, 64, 78
1, 442177, Control_c, 0, 64, 72
1, 442181, Note_off_c, 0, 58, 63
1, 442190, Note_on_c, 0, 65, 74
1, 442192, Note_on_c, 0, 68, 78
1, 442192, Control_c, 0, 64, 68
1, 442207, Control_c, 0, 64, 67
1, 442213, Note_off_c, 0, 65, 72
1, 442222, Control_c, 0, 64, 65
1, 442223, Note_off_c, 0, 68, 66
1, 442237, Control_c, 0, 64, 54
1, 442252, Control_c, 0, 64, 0
1, 442268, Note_on_c, 0, 62, 89
1, 442279, Note_on_c, 0, 57, 75
1, 442306, Note_off_c, 0, 57, 65
1, 442306, Note_off_c, 0, 62, 63
1, 442322, Note_on_c, 0, 65, 81
1, 442322, Note_on_c, 0, 69, 81
1, 442332, Note_on_c, 0, 74, 66
1, 442344, Note_off_c, 0, 65, 70
1, 442344, Note_off_c, 0, 69, 69
1, 442353, Note_off_c, 0, 74, 72
1, 442395, Note_on_c, 0, 57, 83
1, 442395, Note_on_c, 0, 62, 83
1, 442440, Note_off_c, 0, 62, 59
1, 442445, Note_on_c, 0, 65, 88
1, 442445, Note_off_c, 0, 57, 61
1, 442448, Note_on_c, 0, 69, 90
1, 442455, Note_on_c, 0, 74, 75
1, 442470, Note_off_c, 0, 65, 66
1, 442470, Note_off_c, 0, 69, 68
1, 442475, Note_off_c, 0, 74, 71
1, 442521, Note_on_c, 0, 62, 95
1, 442523, Note_on_c, 0, 58, 90
1, 442548, Control_c, 0, 64, 72
1, 442563, Control_c, 0, 64, 88
1, 442567, Note_off_c, 0, 62, 61
1, 442572, Note_on_c, 0, 69, 91
1, 442572, Note_off_c, 0, 58, 65
1, 442574, Note_on_c, 0, 65, 91
1, 442576, Note_on_c, 0, 74, 83
1, 442578, Control_c, 0, 64, 99
1, 442592, Control_c, 0, 64, 99
1, 442595, Note_off_c, 0, 65, 68
1, 442600, Note_off_c, 0, 69, 64
1, 442624, Note_off_c, 0, 74, 62
1, 442652, Control_c, 0, 64, 98
1, 442654, Note_on_c, 0, 62, 73
1, 442661, Note_on_c, 0, 58, 72
1, 442666, Control_c, 0, 64, 92
1, 442681, Control_c, 0, 64, 84
1, 442685, Note_off_c, 0, 62, 62
1, 442687, Note_off_c, 0, 58, 63
1, 442696, Control_c, 0, 64, 72
1, 442710, Note_on_c, 0, 65, 68
1, 442711, Control_c, 0, 64, 36
1, 442712, Note_on_c, 0, 68, 63
1, 442726, Control_c, 0, 64, 0
1, 442730, Note_off_c, 0, 65, 73
1, 442735, Note_off_c, 0, 68, 39
1, 442779, Note_on_c, 0, 62, 69
1, 442787, Note_on_c, 0, 58, 69
1, 442818, Note_off_c, 0, 58, 63
1, 442827, Note_off_c, 0, 62, 55
1, 442833, Note_on_c, 0, 65, 73
1, 442836, Note_on_c, 0, 68, 56
1, 442836, Note_on_c, 0, 77, 70
1, 442837, Control_c, 0, 67, 9
1, 442843, Note_on_c, 0, 70, 56
1, 442852, Control_c, 0, 67, 13
1, 442857, Note_off_c, 0, 65, 71
1, 442861, Note_off_c, 0, 68, 58
1, 442863, Note_off_c, 0, 70, 63
1, 442864, Note_off_c, 0, 77, 62
1, 442866, Control_c, 0, 67, 18
1, 442881, Control_c, 0, 67, 23
1, 442896, Control_c, 0, 67, 27
1, 442911, Note_on_c, 0, 58, 69
1, 442911, Control_c, 0, 67, 31
1, 442915, Note_on_c, 0, 62, 66
1, 442926, Control_c, 0, 67, 37
1, 442941, Note_off_c, 0, 58, 66
1, 442941, Control_c, 0, 67, 45
1, 442948, Note_off_c, 0, 62, 64
1, 442955, Control_c, 0, 67, 54
1, 442968, Note_on_c, 0, 77, 75
1, 442970, Control_c, 0, 67, 62
1, 442982, Note_on_c, 0, 68, 50
1, 442985, Control_c, 0, 67, 68
1, 443000, Control_c, 0, 67, 71
1, 443003, Note_off_c, 0, 68, 59
1, 443009, Note_off_c, 0, 77, 57
1, 443015, Control_c, 0, 67, 72
1, 443030, Control_c, 0, 64, 66
1, 443045, Control_c, 0, 64, 73
1, 443048, Note_on_c, 0, 67, 81
1, 443060, Control_c, 0, 64, 81
1, 443060, Control_c, 0, 67, 71
1, 443063, Note_on_c, 0, 58, 60
1, 443074, Note_on_c, 0, 63, 43
1, 443075, Control_c, 0, 64, 88
1, 443075, Control_c, 0, 67, 70
1, 443085, Note_off_c, 0, 67, 57
1, 443090, Control_c, 0, 64, 92
1, 443090, Control_c, 0, 67, 69
1, 443090, Note_off_c, 0, 58, 55
1, 443098, Note_off_c, 0, 63, 57
1, 443104, Control_c, 0, 64, 95
1, 443104, Control_c, 0, 67, 68
1, 443119, Control_c, 0, 64, 96
1, 443119, Control_c, 0, 67, 68
1, 443122, Note_on_c, 0, 75, 72
1, 443134, Control_c, 0, 64, 97
1, 443149, Control_c, 0, 64, 98
1, 443149, Control_c, 0, 67, 67
1, 443164, Control_c, 0, 67, 67
1, 443165, Note_off_c, 0, 75, 59
1, 443182, Note_on_c, 0, 67, 80
1, 443183, Poly_aftertouch_c, 0, 70, 127
1, 443189, Note_on_c, 0, 58, 57
1, 443190, Note_on_c, 0, 63, 61
1, 443194, Control_c, 0, 67, 66
1, 443208, Control_c, 0, 67, 66
1, 443218, Note_off_c, 0, 58, 62
1, 443221, Poly_aftertouch_c, 0, 70, 0
1, 443221, Note_off_c, 0, 63, 64
1, 443227, Note_off_c, 0, 67, 53
1, 443255, Note_on_c, 0, 74, 71
1, 443260, Note_on_c, 0, 69, 59
1, 443268, Control_c, 0, 67, 66
1, 443278, Note_off_c, 0, 69, 63
1, 443280, Note_off_c, 0, 74, 66
1, 443315, Note_on_c, 0, 66, 73
1, 443319, Note_on_c, 0, 63, 67
1, 443324, Note_on_c, 0, 58, 49
1, 443346, Note_off_c, 0, 63, 67
1, 443346, Note_off_c, 0, 66, 65
1, 443352, Note_off_c, 0, 58, 59
1, 443356, Control_c, 0, 67, 66
1, 443371, Control_c, 0, 64, 97
1, 443389, Note_on_c, 0, 69, 48
1, 443397, Note_on_c, 0, 74, 51
1, 443407, Note_on_c, 0, 73, 62
1, 443415, Control_c, 0, 67, 66
1, 443417, Note_off_c, 0, 74, 64
1, 443433, Note_off_c, 0, 73, 66
1, 443447, Note_on_c, 0, 63, 60
1, 443448, Note_on_c, 0, 66, 76
1, 443450, Note_on_c, 0, 58, 56
1, 443453, Note_off_c, 0, 69, 60
1, 443475, Control_c, 0, 67, 66
1, 443488, Note_off_c, 0, 58, 63
1, 443489, Note_off_c, 0, 63, 58
1, 443489, Control_c, 0, 67, 64
1, 443492, Note_on_c, 0, 73, 87
1, 443495, Note_off_c, 0, 66, 61
1, 443512, Control_c, 0, 67, 62
1, 443527, Control_c, 0, 64, 93
1, 443527, Control_c, 0, 67, 57
1, 443537, Note_off_c, 0, 73, 59
1, 443541, Control_c, 0, 64, 81
1, 443541, Control_c, 0, 67, 48
1, 443556, Control_c, 0, 64, 66
1, 443556, Control_c, 0, 67, 36
1, 443571, Control_c, 0, 64, 0
1, 443571, Control_c, 0, 67, 24
1, 443582, Note_on_c, 0, 65, 80
1, 443586, Note_on_c, 0, 58, 69
1, 443586, Control_c, 0, 67, 14
1, 443593, Note_on_c, 0, 62, 66
1, 443601, Control_c, 0, 67, 0
1, 443615, Control_c, 0, 64, 52
1, 443630, Control_c, 0, 64, 68
1, 443636, Note_off_c, 0, 62, 55
1, 443637, Note_off_c, 0, 65, 60
1, 443638, Note_off_c, 0, 58, 50
1, 443645, Note_on_c, 0, 73, 80
1, 443645, Control_c, 0, 64, 73
1, 443660, Control_c, 0, 64, 79
1, 443670, Note_on_c, 0, 70, 43
1, 443675, Control_c, 0, 64, 84
1, 443689, Control_c, 0, 64, 86
1, 443695, Note_off_c, 0, 70, 55
1, 443695, Note_off_c, 0, 73, 59
1, 443704, Control_c, 0, 64, 87
1, 443722, Note_on_c, 0, 65, 79
1, 443725, Note_on_c, 0, 58, 64
1, 443734, Note_on_c, 0, 62, 67
1, 443757, Note_off_c, 0, 65, 59
1, 443772, Note_off_c, 0, 58, 56
1, 443772, Note_off_c, 0, 62, 59
1, 443772, Note_on_c, 0, 74, 82
1, 443775, Note_on_c, 0, 70, 71
1, 443793, Control_c, 0, 64, 86
1, 443801, Note_off_c, 0, 70, 66
1, 443808, Control_c, 0, 64, 80
1, 443817, Note_off_c, 0, 74, 62
1, 443823, Control_c, 0, 64, 65
1, 443838, Control_c, 0, 64, 0
1, 443846, Note_on_c, 0, 68, 89
1, 443853, Note_on_c, 0, 58, 62
1, 443853, Control_c, 0, 64, 50
1, 443858, Note_on_c, 0, 62, 67
1, 443868, Control_c, 0, 64, 68
1, 443883, Control_c, 0, 64, 76
1, 443891, Note_off_c, 0, 68, 62
1, 443896, Note_off_c, 0, 58, 63
1, 443898, Control_c, 0, 64, 82
1, 443903, Note_off_c, 0, 62, 60
1, 443912, Control_c, 0, 64, 87
1, 443915, Note_on_c, 0, 77, 80
1, 443915, Note_on_c, 0, 70, 78
1, 443927, Control_c, 0, 64, 89
1, 443938, Note_off_c, 0, 70, 70
1, 443942, Control_c, 0, 64, 89
1, 443955, Note_off_c, 0, 77, 59
1, 443982, Note_on_c, 0, 68, 92
1, 443988, Note_on_c, 0, 58, 73
1, 443991, Note_on_c, 0, 62, 65
1, 444017, Control_c, 0, 64, 88
1, 444022, Note_off_c, 0, 62, 62
1, 444030, Note_off_c, 0, 58, 52
1, 444032, Control_c, 0, 64, 82
1, 444039, Note_off_c, 0, 68, 63
1, 444045, Note_on_c, 0, 70, 74
1, 444046, Control_c, 0, 64, 69
1, 444047, Note_on_c, 0, 77, 75
1, 444061, Control_c, 0, 64, 0
1, 444066, Note_off_c, 0, 70, 71
1, 444074, Note_off_c, 0, 77, 63
1, 444106, Control_c, 0, 64, 65
1, 444107, Note_on_c, 0, 67, 94
1, 444115, Note_on_c, 0, 63, 77
1, 444117, Note_on_c, 0, 58, 77
1, 444121, Control_c, 0, 64, 76
1, 444136, Control_c, 0, 64, 87
1, 444146, Note_off_c, 0, 58, 63
1, 444151, Control_c, 0, 64, 95
1, 444159, Note_off_c, 0, 67, 62
1, 444160, Note_off_c, 0, 63, 55
1, 444165, Control_c, 0, 64, 99
1, 444176, Note_on_c, 0, 77, 89
1, 444180, Control_c, 0, 64, 99
1, 444187, Note_on_c, 0, 70, 73
1, 444211, Note_off_c, 0, 70, 68
1, 444232, Note_on_c, 0, 67, 93
1, 444232, Note_off_c, 0, 77, 60
1, 444239, Note_on_c, 0, 58, 78
1, 444248, Note_on_c, 0, 63, 68
1, 444276, Note_off_c, 0, 58, 62
1, 444281, Note_off_c, 0, 63, 69
1, 444289, Note_off_c, 0, 67, 60
1, 444312, Note_on_c, 0, 70, 74
1, 444312, Note_on_c, 0, 75, 80
1, 444321, Control_c, 0, 64, 99
1, 444338, Note_off_c, 0, 70, 59
1, 444359, Note_off_c, 0, 75, 64
1, 444370, Note_on_c, 0, 63, 79
1, 444373, Note_on_c, 0, 66, 80
1, 444377, Note_on_c, 0, 58, 75
1, 444410, Control_c, 0, 64, 98
1, 444420, Note_off_c, 0, 66, 65
1, 444422, Note_off_c, 0, 63, 64
1, 444434, Note_on_c, 0, 74, 96
1, 444443, Note_off_c, 0, 58, 60
1, 444452, Note_on_c, 0, 70, 63
1, 444469, Note_off_c, 0, 70, 67
1, 444469, Control_c, 0, 64, 98
1, 444480, Note_off_c, 0, 74, 68
1, 444505, Note_on_c, 0, 58, 70
1, 444505, Note_on_c, 0, 66, 86
1, 444543, Note_off_c, 0, 66, 61
1, 444544, Note_on_c, 0, 64, 35
1, 444555, Note_on_c, 0, 70, 79
1, 444556, Note_on_c, 0, 73, 91
1, 444558, Note_off_c, 0, 58, 65
1, 444573, Note_off_c, 0, 64, 48
1, 444573, Control_c, 0, 64, 97
1, 444588, Control_c, 0, 64, 87
1, 444595, Note_off_c, 0, 70, 63
1, 444601, Note_off_c, 0, 73, 64
1, 444603, Control_c, 0, 64, 71
1, 444618, Control_c, 0, 64, 0
1, 444636, Note_on_c, 0, 65, 93
1, 444643, Note_on_c, 0, 62, 76
1, 444646, Note_on_c, 0, 58, 68
1, 444672, Note_off_c, 0, 58, 67
1, 444678, Note_off_c, 0, 62, 60
1, 444678, Control_c, 0, 64, 62
1, 444678, Note_off_c, 0, 65, 63
1, 444692, Note_on_c, 0, 73, 90
1, 444693, Control_c, 0, 64, 72
1, 444696, Note_on_c, 0, 70, 83
1, 444708, Control_c, 0, 64, 80
1, 444723, Control_c, 0, 64, 86
1, 444735, Note_off_c, 0, 70, 59
1, 444737, Control_c, 0, 64, 87
1, 444744, Note_off_c, 0, 73, 63
1, 444752, Control_c, 0, 64, 88
1, 444763, Note_on_c, 0, 65, 94
1, 444770, Note_on_c, 0, 62, 81
1, 444771, Note_on_c, 0, 58, 72
1, 444808, Note_off_c, 0, 65, 63
1, 444809, Note_off_c, 0, 58, 56
1, 444817, Note_on_c, 0, 74, 90
1, 444827, Note_on_c, 0, 70, 87
1, 444833, Note_off_c, 0, 62, 46
1, 444841, Control_c, 0, 64, 87
1, 444853, Note_off_c, 0, 70, 60
1, 444855, Control_c, 0, 64, 83
1, 444860, Note_off_c, 0, 74, 66
1, 444870, Control_c, 0, 64, 74
1, 444885, Note_on_c, 0, 65, 102
1, 444885, Control_c, 0, 64, 70
1, 444894, Note_on_c, 0, 56, 86
1, 444898, Note_on_c, 0, 58, 85
1, 444899, Note_on_c, 0, 62, 74
1, 444900, Control_c, 0, 64, 73
1, 444914, Control_c, 0, 64, 79
1, 444929, Control_c, 0, 64, 85
1, 444938, Note_off_c, 0, 65, 65
1, 444944, Control_c, 0, 64, 90
1, 444950, Note_on_c, 0, 70, 97
1, 444951, Note_on_c, 0, 77, 90
1, 444953, Note_off_c, 0, 56, 64
1, 444954, Note_off_c, 0, 58, 61
1, 444959, Control_c, 0, 64, 93
1, 444973, Note_off_c, 0, 62, 55
1, 444974, Control_c, 0, 64, 94
1, 444985, Note_off_c, 0, 70, 64
1, 445002, Note_off_c, 0, 77, 63
1, 445031, Note_on_c, 0, 65, 100
1, 445045, Note_on_c, 0, 56, 53
1, 445050, Note_on_c, 0, 55, 74
1, 445053, Note_on_c, 0, 58, 66
1, 445055, Note_on_c, 0, 62, 49
1, 445069, Control_c, 0, 64, 94
1, 445077, Note_off_c, 0, 58, 67
1, 445078, Note_off_c, 0, 55, 65
1, 445086, Note_off_c, 0, 56, 56
1, 445088, Note_on_c, 0, 70, 91
1, 445089, Note_off_c, 0, 62, 46
1, 445092, Note_on_c, 0, 77, 84
1, 445105, Note_off_c, 0, 65, 62
1, 445111, Poly_aftertouch_c, 0, 60, 127
1, 445111, Note_on_c, 0, 60, 3
1, 445135, Note_off_c, 0, 70, 59
1, 445143, Control_c, 0, 64, 91
1, 445144, Note_off_c, 0, 77, 61
1, 445147, Note_off_c, 0, 60, 38
1, 445158, Control_c, 0, 64, 79
1, 445173, Note_on_c, 0, 65, 102
1, 445173, Control_c, 0, 64, 50
1, 445182, Note_on_c, 0, 58, 81
1, 445188, Control_c, 0, 64, 0
1, 445190, Note_on_c, 0, 55, 70
1, 445218, Control_c, 0, 64, 64
1, 445233, Control_c, 0, 64, 75
1, 445235, Note_off_c, 0, 55, 55
1, 445245, Note_on_c, 0, 77, 88
1, 445248, Control_c, 0, 64, 83
1, 445251, Note_on_c, 0, 70, 87
1, 445262, Control_c, 0, 64, 89
1, 445272, Note_off_c, 0, 58, 59
1, 445277, Control_c, 0, 64, 91
1, 445285, Note_off_c, 0, 65, 61
1, 445296, Note_off_c, 0, 70, 62
1, 445304, Note_off_c, 0, 77, 61
1, 445317, Note_on_c, 0, 63, 96
1, 445335, Note_on_c, 0, 55, 73
1, 445335, Note_on_c, 0, 58, 51
1, 445356, Note_on_c, 0, 60, 18
1, 445369, Note_off_c, 0, 55, 57
1, 445372, Note_off_c, 0, 58, 48
1, 445376, Note_on_c, 0, 75, 81
1, 445382, Note_on_c, 0, 70, 77
1, 445395, Note_off_c, 0, 60, 39
1, 445409, Note_off_c, 0, 70, 64
1, 445421, Note_off_c, 0, 63, 63
1, 445424, Note_off_c, 0, 75, 65
1, 445453, Note_on_c, 0, 62, 94
1, 445463, Note_on_c, 0, 55, 72
1, 445475, Note_on_c, 0, 58, 69
1, 445507, Note_off_c, 0, 58, 61
1, 445509, Note_on_c, 0, 74, 82
1, 445510, Note_off_c, 0, 62, 59
1, 445515, Control_c, 0, 64, 91
1, 445529, Note_on_c, 0, 70, 52
1, 445543, Note_off_c, 0, 55, 54
1, 445555, Note_off_c, 0, 70, 56
1, 445564, Note_off_c, 0, 74, 66
1, 445588, Note_on_c, 0, 61, 94
1, 445598, Note_on_c, 0, 58, 66
1, 445618, Control_c, 0, 64, 90
1, 445623, Note_off_c, 0, 58, 69
1, 445630, Poly_aftertouch_c, 0, 55, 127
1, 445631, Note_on_c, 0, 70, 81
1, 445633, Control_c, 0, 64, 84
1, 445634, Note_off_c, 0, 61, 66
1, 445643, Note_on_c, 0, 73, 74
1, 445648, Control_c, 0, 64, 73
1, 445663, Control_c, 0, 64, 43
1, 445671, Poly_aftertouch_c, 0, 55, 0
1, 445671, Note_off_c, 0, 73, 64
1, 445677, Control_c, 0, 64, 0
1, 445684, Note_off_c, 0, 70, 61
1, 445704, Note_on_c, 0, 61, 97
1, 445707, Control_c, 0, 64, 40
1, 445711, Note_on_c, 0, 53, 74
1, 445715, Note_on_c, 0, 57, 78
1, 445722, Control_c, 0, 64, 68
1, 445737, Control_c, 0, 64, 79
1, 445759, Control_c, 0, 64, 88
1, 445774, Control_c, 0, 64, 94
1, 445787, Note_on_c, 0, 70, 84
1, 445787, Note_on_c, 0, 73, 84
1, 445789, Control_c, 0, 64, 95
1, 445791, Note_off_c, 0, 53, 60
1, 445791, Note_off_c, 0, 57, 48
1, 445816, Note_off_c, 0, 70, 63
1, 445830, Note_off_c, 0, 61, 54
1, 445832, Note_off_c, 0, 73, 61
1, 445848, Note_on_c, 0, 53, 57
1, 445853, Note_on_c, 0, 57, 51
1, 445853, Note_on_c, 0, 62, 93
1, 445878, Control_c, 0, 64, 95
1, 445892, Control_c, 0, 64, 94
1, 445899, Note_off_c, 0, 62, 62
1, 445900, Note_off_c, 0, 53, 64
1, 445907, Note_off_c, 0, 57, 62
1, 445907, Control_c, 0, 64, 94
1, 445913, Note_on_c, 0, 74, 81
1, 445916, Note_on_c, 0, 69, 82
1, 445922, Control_c, 0, 64, 92
1, 445936, Control_c, 0, 64, 86
1, 445939, Note_off_c, 0, 69, 67
1, 445951, Control_c, 0, 64, 75
1, 445960, Note_off_c, 0, 74, 63
1, 445966, Control_c, 0, 64, 51
1, 445981, Control_c, 0, 64, 0
1, 445987, Note_on_c, 0, 58, 82
1, 445989, Note_on_c, 0, 55, 77
1, 446011, Control_c, 0, 64, 46
1, 446026, Control_c, 0, 64, 65
1, 446034, Note_off_c, 0, 55, 64
1, 446034, Note_off_c, 0, 58, 66
1, 446041, Control_c, 0, 64, 67
1, 446054, Note_on_c, 0, 67, 81
1, 446056, Control_c, 0, 64, 65
1, 446056, Note_on_c, 0, 70, 70
1, 446070, Control_c, 0, 64, 59
1, 446082, Note_off_c, 0, 70, 68
1, 446085, Control_c, 0, 64, 0
1, 446091, Note_off_c, 0, 67, 62
1, 446130, Note_on_c, 0, 58, 62
1, 446135, Note_on_c, 0, 55, 60
1, 446152, Note_off_c, 0, 58, 44
1, 446161, Note_on_c, 0, 57, 45
1, 446171, Note_off_c, 0, 55, 64
1, 446187, Note_on_c, 0, 67, 68
1, 446189, Note_on_c, 0, 56, 3
1, 446190, Note_off_c, 0, 57, 35
1, 446192, Note_on_c, 0, 62, 45
1, 446207, Note_off_c, 0, 67, 67
1, 446219, Note_off_c, 0, 62, 54
1, 446224, Note_off_c, 0, 56, 26
1, 446258, Note_on_c, 0, 57, 84
1, 446264, Note_on_c, 0, 67, 80
1, 446267, Note_on_c, 0, 62, 82
1, 446268, Note_on_c, 0, 65, 83
1, 446279, Control_c, 0, 64, 63
1, 446287, Note_off_c, 0, 67, 70
1, 446288, Note_off_c, 0, 62, 70
1, 446288, Note_off_c, 0, 65, 72
1, 446294, Control_c, 0, 64, 71
1, 446303, Note_off_c, 0, 57, 61
1, 446308, Control_c, 0, 64, 77
1, 446323, Control_c, 0, 64, 80
1, 446471, Control_c, 0, 64, 78
1, 446486, Control_c, 0, 64, 73
1, 446508, Control_c, 0, 64, 61
1, 446523, Control_c, 0, 64, 0
1, 446562, Note_on_c, 0, 61, 66
1, 446567, Control_c, 0, 64, 52
1, 446571, Note_on_c, 0, 64, 64
1, 446573, Note_on_c, 0, 55, 66
1, 446578, Note_on_c, 0, 45, 40
1, 446582, Control_c, 0, 64, 70
1, 446597, Control_c, 0, 64, 79
1, 446612, Note_off_c, 0, 55, 60
1, 446612, Control_c, 0, 64, 85
1, 446616, Note_off_c, 0, 45, 64
1, 446627, Control_c, 0, 64, 86
1, 446671, Control_c, 0, 64, 86
1, 446700, Control_c, 0, 64, 85
1, 446725, Note_off_c, 0, 61, 52
1, 446730, Control_c, 0, 64, 84
1, 446745, Control_c, 0, 64, 83
1, 446759, Control_c, 0, 64, 77
1, 446762, Note_off_c, 0, 64, 36
1, 446768, Note_on_c, 0, 57, 60
1, 446774, Control_c, 0, 64, 66
1, 446789, Control_c, 0, 64, 0
1, 446798, Note_off_c, 0, 57, 63
1, 446848, Control_c, 0, 64, 36
1, 446861, Note_on_c, 0, 62, 68
1, 446863, Control_c, 0, 64, 65
1, 446864, Note_on_c, 0, 50, 58
1, 446872, Note_on_c, 0, 38, 46
1, 446872, Note_on_c, 0, 53, 43
1, 446878, Control_c, 0, 64, 70
1, 446887, Note_on_c, 0, 57, 24
1, 446887, Note_off_c, 0, 62, 65
1, 446893, Control_c, 0, 64, 74
1, 446893, Note_off_c, 0, 50, 66
1, 446903, Note_off_c, 0, 53, 35
1, 446908, Control_c, 0, 64, 79
1, 446908, Note_off_c, 0, 38, 44
1, 446923, Control_c, 0, 64, 85
1, 446926, Note_off_c, 0, 57, 33
1, 446938, Control_c, 0, 64, 90
1, 446952, Control_c, 0, 64, 93
1, 446967, Control_c, 0, 64, 93
1, 447072, Control_c, 0, 64, 90
1, 447087, Control_c, 0, 64, 81
1, 447102, Control_c, 0, 64, 67
1, 447109, Note_on_c, 0, 77, 68
1, 447117, Note_on_c, 0, 89, 61
1, 447117, Control_c, 0, 64, 0
1, 447126, Note_off_c, 0, 77, 66
1, 447133, Note_off_c, 0, 89, 65
1, 447167, Note_on_c, 0, 65, 58
1, 447169, Note_on_c, 0, 53, 48
1, 447173, Note_on_c, 0, 63, 48
1, 447197, Note_off_c, 0, 53, 57
1, 447197, Note_off_c, 0, 63, 64
1, 447202, Note_off_c, 0, 65, 65
1, 447233, Note_on_c, 0, 89, 79
1, 447236, Note_on_c, 0, 77, 79
1, 447265, Note_off_c, 0, 77, 66
1, 447268, Note_off_c, 0, 89, 64
1, 447313, Note_on_c, 0, 65, 68
1, 447314, Note_on_c, 0, 53, 59
1, 447317, Note_on_c, 0, 63, 51
1, 447345, Note_off_c, 0, 65, 64
1, 447352, Note_off_c, 0, 53, 64
1, 447352, Note_off_c, 0, 63, 66
1, 447384, Note_on_c, 0, 77, 91
1, 447386, Note_on_c, 0, 89, 89
1, 447390, Control_c, 0, 64, 68
1, 447405, Control_c, 0, 64, 81
1, 447408, Note_off_c, 0, 77, 63
1, 447414, Note_off_c, 0, 89, 65
1, 447420, Control_c, 0, 64, 90
1, 447435, Control_c, 0, 64, 92
1, 447451, Note_on_c, 0, 53, 66
1, 447457, Note_on_c, 0, 65, 56
1, 447463, Note_on_c, 0, 63, 56
1, 447481, Note_off_c, 0, 65, 58
1, 447482, Note_off_c, 0, 53, 67
1, 447490, Note_off_c, 0, 63, 60
1, 447522, Note_on_c, 0, 87, 80
1, 447523, Note_on_c, 0, 75, 82
1, 447547, Note_off_c, 0, 75, 67
1, 447552, Note_off_c, 0, 87, 56
1, 447553, Control_c, 0, 64, 90
1, 447568, Control_c, 0, 64, 84
1, 447580, Note_on_c, 0, 65, 62
1, 447582, Control_c, 0, 64, 69
1, 447584, Note_on_c, 0, 63, 59
1, 447597, Control_c, 0, 64, 0
1, 447608, Note_off_c, 0, 65, 66
1, 447612, Note_off_c, 0, 63, 60
1, 447653, Note_on_c, 0, 86, 78
1, 447656, Note_on_c, 0, 74, 67
1, 447673, Note_off_c, 0, 86, 71
1, 447680, Note_off_c, 0, 74, 70
1, 447715, Note_on_c, 0, 63, 59
1, 447717, Note_on_c, 0, 65, 66
1, 447731, Note_on_c, 0, 57, 42
1, 447749, Note_off_c, 0, 65, 66
1, 447751, Note_off_c, 0, 63, 64
1, 447760, Note_off_c, 0, 57, 51
1, 447776, Note_on_c, 0, 85, 82
1, 447777, Note_on_c, 0, 73, 80
1, 447796, Note_off_c, 0, 85, 66
1, 447797, Note_off_c, 0, 73, 71
1, 447839, Note_on_c, 0, 57, 63
1, 447847, Note_on_c, 0, 63, 62
1, 447850, Note_on_c, 0, 65, 57
1, 447884, Note_off_c, 0, 65, 65
1, 447886, Note_off_c, 0, 63, 61
1, 447887, Note_off_c, 0, 57, 55
1, 447895, Control_c, 0, 64, 60
1, 447907, Note_on_c, 0, 73, 95
1, 447908, Note_on_c, 0, 85, 89
1, 447910, Control_c, 0, 64, 77
1, 447924, Control_c, 0, 64, 88
1, 447937, Note_off_c, 0, 73, 60
1, 447939, Control_c, 0, 64, 92
1, 447959, Note_off_c, 0, 85, 62
1, 447985, Note_on_c, 0, 65, 65
1, 448003, Note_on_c, 0, 58, 55
1, 448003, Note_on_c, 0, 62, 54
1, 448005, Control_c, 0, 64, 91
1, 448021, Control_c, 0, 64, 88
1, 448032, Note_off_c, 0, 65, 62
1, 448036, Control_c, 0, 64, 75
1, 448038, Note_off_c, 0, 62, 63
1, 448039, Note_off_c, 0, 58, 65
1, 448051, Control_c, 0, 64, 50
1, 448054, Note_on_c, 0, 86, 83
1, 448055, Note_on_c, 0, 74, 71
1, 448066, Control_c, 0, 64, 0
1, 448074, Note_off_c, 0, 74, 69
1, 448077, Note_off_c, 0, 86, 67
1, 448128, Note_on_c, 0, 58, 58
1, 448128, Note_on_c, 0, 62, 53
1, 448130, Note_on_c, 0, 65, 62
1, 448152, Note_off_c, 0, 62, 61
1, 448153, Note_off_c, 0, 65, 67
1, 448160, Note_off_c, 0, 58, 66
1, 448183, Note_on_c, 0, 89, 88
1, 448184, Note_on_c, 0, 77, 80
1, 448204, Note_off_c, 0, 77, 69
1, 448204, Note_off_c, 0, 89, 66
1, 448241, Note_on_c, 0, 65, 70
1, 448252, Note_on_c, 0, 53, 62
1, 448263, Note_on_c, 0, 63, 53
1, 448277, Note_off_c, 0, 65, 59
1, 448288, Note_off_c, 0, 63, 62
1, 448294, Note_off_c, 0, 53, 62
1, 448313, Note_on_c, 0, 77, 90
1, 448315, Note_on_c, 0, 89, 91
1, 448332, Note_off_c, 0, 77, 66
1, 448339, Note_off_c, 0, 89, 63
1, 448390, Note_on_c, 0, 63, 58
1, 448392, Note_on_c, 0, 65, 72
1, 448393, Note_on_c, 0, 53, 73
1, 448422, Note_off_c, 0, 65, 64
1, 448428, Note_off_c, 0, 53, 62
1, 448433, Note_off_c, 0, 63, 63
1, 448436, Control_c, 0, 64, 77
1, 448445, Note_on_c, 0, 89, 93
1, 448446, Note_on_c, 0, 77, 99
1, 448450, Control_c, 0, 64, 101
1, 448465, Control_c, 0, 64, 127
1, 448470, Note_off_c, 0, 77, 63
1, 448481, Note_off_c, 0, 89, 65
1, 448521, Note_on_c, 0, 53, 72
1, 448522, Note_on_c, 0, 65, 75
1, 448540, Note_on_c, 0, 63, 56
1, 448552, Note_off_c, 0, 53, 65
1, 448556, Note_off_c, 0, 65, 60
1, 448562, Note_off_c, 0, 63, 65
1, 448574, Note_on_c, 0, 75, 98
1, 448575, Note_on_c, 0, 87, 93
1, 448597, Note_off_c, 0, 75, 63
1, 448598, Control_c, 0, 64, 123
1, 448604, Note_off_c, 0, 87, 61
1, 448613, Control_c, 0, 64, 106
1, 448629, Control_c, 0, 64, 85
1, 448644, Control_c, 0, 64, 61
1, 448648, Note_on_c, 0, 65, 76
1, 448655, Note_on_c, 0, 63, 54
1, 448659, Control_c, 0, 64, 0
1, 448683, Note_off_c, 0, 65, 61
1, 448689, Note_off_c, 0, 63, 63
1, 448700, Note_on_c, 0, 74, 88
1, 448701, Note_on_c, 0, 86, 92
1, 448702, Note_on_c, 0, 55, 5
1, 448718, Note_off_c, 0, 74, 71
1, 448719, Note_on_c, 0, 57, 3
1, 448724, Note_off_c, 0, 86, 62
1, 448738, Note_off_c, 0, 55, 35
1, 448781, Note_on_c, 0, 65, 82
1, 448784, Note_off_c, 0, 57, 0
1, 448784, Note_on_c, 0, 57, 42
1, 448785, Note_on_c, 0, 63, 74
1, 448816, Note_off_c, 0, 65, 61
1, 448825, Note_on_c, 0, 73, 92
1, 448825, Note_on_c, 0, 85, 90
1, 448828, Note_off_c, 0, 63, 56
1, 448834, Note_off_c, 0, 57, 60
1, 448845, Note_off_c, 0, 73, 67
1, 448853, Note_on_c, 0, 82, 37
1, 448854, Note_off_c, 0, 82, 127
1, 448854, Note_off_c, 0, 85, 61
1, 448912, Note_on_c, 0, 65, 86
1, 448917, Note_on_c, 0, 63, 81
1, 448935, Note_on_c, 0, 57, 46
1, 448939, Note_on_c, 0, 58, 57
1, 448946, Note_off_c, 0, 65, 63
1, 448947, Control_c, 0, 64, 70
1, 448951, Note_on_c, 0, 85, 99
1, 448952, Note_on_c, 0, 73, 105
1, 448959, Note_off_c, 0, 57, 59
1, 448962, Control_c, 0, 64, 92
1, 448963, Note_on_c, 0, 82, 66
1, 448973, Note_off_c, 0, 58, 59
1, 448977, Control_c, 0, 64, 113
1, 448980, Note_off_c, 0, 82, 67
1, 448986, Note_off_c, 0, 73, 68
1, 448987, Note_off_c, 0, 63, 55
1, 448992, Control_c, 0, 64, 120
1, 448995, Note_off_c, 0, 85, 68
1, 449045, Note_on_c, 0, 65, 85
1, 449053, Note_on_c, 0, 62, 79
1, 449054, Note_on_c, 0, 58, 62
1, 449077, Note_on_c, 0, 74, 95
1, 449078, Note_on_c, 0, 86, 99
1, 449080, Note_off_c, 0, 58, 56
1, 449098, Note_off_c, 0, 65, 60
1, 449107, Note_off_c, 0, 74, 66
1, 449111, Note_on_c, 0, 57, 2
1, 449112, Note_off_c, 0, 86, 66
1, 449116, Note_off_c, 0, 62, 59
1, 449151, Note_off_c, 0, 57, 35
1, 449168, Note_on_c, 0, 65, 89
1, 449173, Note_on_c, 0, 62, 76
1, 449177, Note_on_c, 0, 56, 71
1, 449179, Note_on_c, 0, 58, 60
1, 449211, Note_off_c, 0, 56, 62
1, 449214, Note_on_c, 0, 77, 111
1, 449214, Note_on_c, 0, 89, 102
1, 449218, Note_off_c, 0, 65, 64
1, 449230, Note_off_c, 0, 58, 52
1, 449241, Note_off_c, 0, 77, 69
1, 449250, Note_off_c, 0, 89, 67
1, 449254, Note_off_c, 0, 62, 58
1, 449258, Control_c, 0, 64, 120
1, 449287, Poly_aftertouch_c, 0, 62, 0
1, 449287, Note_on_c, 0, 65, 98
1, 449287, Control_c, 0, 64, 119
1, 449292, Note_on_c, 0, 56, 87
1, 449292, Note_on_c, 0, 62, 66
1, 449302, Control_c, 0, 64, 119
1, 449310, Note_on_c, 0, 58, 58
1, 449317, Control_c, 0, 64, 118
1, 449346, Note_on_c, 0, 77, 103
1, 449346, Note_on_c, 0, 89, 109
1, 449349, Note_off_c, 0, 58, 61
1, 449361, Note_off_c, 0, 65, 58
1, 449373, Note_off_c, 0, 77, 70
1, 449377, Note_off_c, 0, 89, 68
1, 449405, Note_off_c, 0, 56, 0
1, 449422, Control_c, 0, 64, 115
1, 449428, Note_on_c, 0, 56, 40
1, 449437, Control_c, 0, 64, 101
1, 449439, Note_off_c, 0, 62, 0
1, 449440, Note_on_c, 0, 65, 102
1, 449450, Note_on_c, 0, 62, 49
1, 449451, Control_c, 0, 64, 82
1, 449466, Control_c, 0, 64, 28
1, 449468, Note_on_c, 0, 58, 43
1, 449481, Control_c, 0, 64, 0
1, 449501, Note_off_c, 0, 58, 35
1, 449518, Control_c, 0, 64, 68
1, 449521, Note_on_c, 0, 77, 110
1, 449522, Note_on_c, 0, 89, 110
1, 449533, Control_c, 0, 64, 82
1, 449534, Note_off_c, 0, 56, 60
1, 449535, Note_off_c, 0, 65, 62
1, 449548, Control_c, 0, 64, 97
1, 449550, Note_on_c, 0, 87, 51
1, 449551, Note_off_c, 0, 87, 127
1, 449551, Note_off_c, 0, 77, 67
1, 449555, Note_off_c, 0, 89, 69
1, 449563, Note_on_c, 0, 85, 38
1, 449563, Control_c, 0, 64, 111
1, 449576, Note_off_c, 0, 62, 49
1, 449578, Control_c, 0, 64, 118
1, 449591, Note_off_c, 0, 85, 53
1, 449592, Control_c, 0, 64, 119
1, 449606, Note_on_c, 0, 65, 97
1, 449618, Note_on_c, 0, 55, 72
1, 449638, Note_on_c, 0, 58, 42
1, 449652, Note_on_c, 0, 87, 98
1, 449653, Note_off_c, 0, 65, 63
1, 449654, Note_on_c, 0, 75, 101
1, 449654, Note_off_c, 0, 55, 56
1, 449664, Note_on_c, 0, 85, 77
1, 449664, Note_off_c, 0, 58, 56
1, 449681, Note_off_c, 0, 85, 69
1, 449681, Control_c, 0, 64, 119
1, 449685, Note_off_c, 0, 75, 58
1, 449696, Control_c, 0, 64, 118
1, 449710, Note_off_c, 0, 87, 60
1, 449710, Control_c, 0, 64, 117
1, 449716, Note_on_c, 0, 63, 89
1, 449725, Control_c, 0, 64, 116
1, 449740, Control_c, 0, 64, 114
1, 449750, Note_on_c, 0, 55, 52
1, 449755, Control_c, 0, 64, 114
1, 449765, Note_on_c, 0, 58, 29
1, 449770, Control_c, 0, 64, 113
1, 449772, Note_off_c, 0, 63, 64
1, 449785, Note_off_c, 0, 55, 59
1, 449787, Note_on_c, 0, 74, 92
1, 449788, Note_on_c, 0, 86, 98
1, 449792, Note_off_c, 0, 58, 50
1, 449800, Control_c, 0, 64, 113
1, 449811, Note_off_c, 0, 74, 64
1, 449814, Control_c, 0, 64, 112
1, 449826, Note_off_c, 0, 86, 63
1, 449840, Note_on_c, 0, 62, 91
1, 449865, Note_on_c, 0, 55, 58
1, 449865, Note_on_c, 0, 58, 71
1, 449880, Note_off_c, 0, 62, 64
1, 449892, Note_off_c, 0, 55, 69
1, 449900, Note_off_c, 0, 58, 57
1, 449903, Note_on_c, 0, 73, 100
1, 449905, Note_on_c, 0, 85, 99
1, 449932, Note_on_c, 0, 82, 41
1, 449933, Control_c, 0, 64, 108
1, 449940, Note_off_c, 0, 73, 59
1, 449948, Note_off_c, 0, 85, 63
1, 449948, Control_c, 0, 64, 93
1, 449958, Note_off_c, 0, 82, 57
1, 449962, Note_on_c, 0, 61, 91
1, 449963, Control_c, 0, 64, 75
1, 449977, Control_c, 0, 64, 33
1, 449983, Note_on_c, 0, 53, 63
1, 449990, Note_on_c, 0, 57, 63
1, 449992, Control_c, 0, 64, 0
1, 450007, Control_c, 0, 64, 53
1, 450019, Note_off_c, 0, 53, 65
1, 450019, Note_off_c, 0, 57, 64
1, 450021, Note_off_c, 0, 61, 63
1, 450022, Control_c, 0, 64, 70
1, 450035, Note_on_c, 0, 73, 105
1, 450037, Control_c, 0, 64, 79
1, 450038, Note_on_c, 0, 85, 103
1, 450051, Control_c, 0, 64, 92
1, 450066, Control_c, 0, 64, 100
1, 450074, Note_off_c, 0, 73, 65
1, 450081, Control_c, 0, 64, 103
1, 450084, Note_off_c, 0, 85, 69
1, 450091, Note_on_c, 0, 61, 83
1, 450095, Control_c, 0, 64, 103
1, 450097, Note_on_c, 0, 57, 67
1, 450100, Note_on_c, 0, 53, 71
1, 450104, Poly_aftertouch_c, 0, 82, 127
1, 450134, Poly_aftertouch_c, 0, 82, 0
1, 450158, Note_on_c, 0, 74, 97
1, 450158, Note_on_c, 0, 86, 93
1, 450175, Note_off_c, 0, 57, 62
1, 450176, Note_off_c, 0, 61, 61
1, 450190, Note_off_c, 0, 53, 61
1, 450193, Note_off_c, 0, 74, 67
1, 450204, Note_on_c, 0, 62, 78
1, 450208, Note_off_c, 0, 86, 62
1, 450264, Note_off_c, 0, 62, 63
1, 450297, Note_on_c, 0, 79, 95
1, 450300, Note_on_c, 0, 82, 90
1, 450324, Note_on_c, 0, 63, 81
1, 450332, Note_on_c, 0, 55, 62
1, 450336, Note_off_c, 0, 79, 62
1, 450341, Note_on_c, 0, 58, 57
1, 450357, Note_off_c, 0, 82, 58
1, 450377, Note_off_c, 0, 58, 63
1, 450379, Note_off_c, 0, 63, 61
1, 450394, Note_off_c, 0, 55, 59
1, 450411, Note_on_c, 0, 75, 86
1, 450419, Note_on_c, 0, 79, 82
1, 450440, Note_off_c, 0, 79, 66
1, 450447, Note_on_c, 0, 63, 76
1, 450449, Note_on_c, 0, 55, 49
1, 450450, Note_on_c, 0, 58, 79
1, 450453, Note_off_c, 0, 75, 65
1, 450460, Control_c, 0, 64, 104
1, 450474, Control_c, 0, 64, 105
1, 450489, Control_c, 0, 64, 107
1, 450502, Note_off_c, 0, 55, 63
1, 450502, Note_off_c, 0, 63, 62
1, 450504, Control_c, 0, 64, 109
1, 450514, Note_off_c, 0, 58, 63
1, 450533, Control_c, 0, 64, 106
1, 450545, Note_on_c, 0, 77, 104
1, 450548, Control_c, 0, 64, 89
1, 450551, Note_on_c, 0, 74, 90
1, 450563, Control_c, 0, 64, 64
1, 450569, Note_off_c, 0, 74, 72
1, 450578, Control_c, 0, 64, 0
1, 450580, Note_off_c, 0, 77, 66
1, 450600, Note_on_c, 0, 65, 85
1, 450606, Note_on_c, 0, 62, 73
1, 450613, Note_on_c, 0, 57, 60
1, 450637, Note_off_c, 0, 62, 61
1, 450637, Note_off_c, 0, 65, 64
1, 450640, Note_off_c, 0, 57, 64
1, 450676, Note_on_c, 0, 77, 88
1, 450677, Note_on_c, 0, 81, 82
1, 450706, Note_off_c, 0, 77, 62
1, 450709, Note_off_c, 0, 81, 62
1, 450721, Note_on_c, 0, 57, 62
1, 450728, Note_on_c, 0, 65, 78
1, 450736, Note_on_c, 0, 62, 72
1, 450753, Note_off_c, 0, 65, 69
1, 450762, Note_off_c, 0, 62, 64
1, 450777, Note_off_c, 0, 57, 60
1, 450802, Note_on_c, 0, 76, 88
1, 450810, Note_on_c, 0, 73, 85
1, 450824, Note_off_c, 0, 76, 68
1, 450834, Note_off_c, 0, 73, 65
1, 450861, Note_on_c, 0, 64, 80
1, 450867, Note_on_c, 0, 55, 66
1, 450872, Note_on_c, 0, 61, 66
1, 450890, Note_off_c, 0, 64, 62
1, 450908, Note_off_c, 0, 61, 63
1, 450908, Note_off_c, 0, 55, 61
1, 450932, Note_on_c, 0, 69, 86
1, 450934, Note_on_c, 0, 73, 84
1, 450967, Note_off_c, 0, 69, 67
1, 450973, Note_off_c, 0, 73, 62
1, 450988, Note_on_c, 0, 64, 83
1, 451004, Note_on_c, 0, 61, 76
1, 451007, Note_on_c, 0, 55, 62
1, 451029, Note_off_c, 0, 64, 66
1, 451040, Note_off_c, 0, 55, 64
1, 451046, Note_off_c, 0, 61, 62
1, 451069, Note_on_c, 0, 74, 100
1, 451069, Note_on_c, 0, 77, 94
1, 451075, Control_c, 0, 64, 74
1, 451090, Control_c, 0, 64, 90
1, 451098, Note_off_c, 0, 74, 66
1, 451105, Control_c, 0, 64, 106
1, 451114, Note_off_c, 0, 77, 63
1, 451120, Control_c, 0, 64, 110
1, 451138, Note_on_c, 0, 62, 83
1, 451142, Note_on_c, 0, 53, 72
1, 451145, Note_on_c, 0, 57, 66
1, 451174, Note_off_c, 0, 53, 65
1, 451181, Note_off_c, 0, 62, 57
1, 451182, Note_off_c, 0, 57, 58
1, 451196, Note_on_c, 0, 74, 80
1, 451198, Note_on_c, 0, 69, 81
1, 451222, Note_off_c, 0, 69, 68
1, 451226, Note_off_c, 0, 74, 64
1, 451265, Note_on_c, 0, 62, 79
1, 451269, Note_on_c, 0, 57, 69
1, 451284, Note_on_c, 0, 53, 55
1, 451299, Note_off_c, 0, 62, 58
1, 451312, Control_c, 0, 64, 107
1, 451316, Note_off_c, 0, 53, 59
1, 451323, Note_off_c, 0, 57, 60
1, 451327, Control_c, 0, 64, 94
1, 451329, Note_on_c, 0, 67, 92
1, 451329, Note_on_c, 0, 70, 90
1, 451342, Control_c, 0, 64, 73
1, 451356, Control_c, 0, 64, 0
1, 451364, Note_off_c, 0, 67, 62
1, 451364, Note_off_c, 0, 70, 60
1, 451403, Note_on_c, 0, 58, 80
1, 451406, Note_on_c, 0, 55, 72
1, 451436, Note_off_c, 0, 58, 64
1, 451439, Note_off_c, 0, 55, 64
1, 451445, Note_on_c, 0, 63, 80
1, 451449, Note_on_c, 0, 67, 79
1, 451475, Note_off_c, 0, 63, 62
1, 451481, Note_off_c, 0, 67, 58
1, 451515, Note_on_c, 0, 58, 79
1, 451520, Note_on_c, 0, 55, 67
1, 451542, Note_off_c, 0, 58, 67
1, 451546, Note_off_c, 0, 55, 66
1, 451583, Note_on_c, 0, 62, 87
1, 451583, Note_on_c, 0, 65, 89
1, 451608, Note_off_c, 0, 62, 66
1, 451623, Note_off_c, 0, 65, 65
1, 451657, Note_on_c, 0, 57, 80
1, 451663, Note_on_c, 0, 45, 73
1, 451692, Note_off_c, 0, 57, 58
1, 451704, Note_off_c, 0, 45, 63
1, 451715, Note_on_c, 0, 65, 84
1, 451718, Note_on_c, 0, 69, 72
1, 451742, Note_off_c, 0, 69, 70
1, 451751, Note_off_c, 0, 65, 63
1, 451788, Note_on_c, 0, 57, 81
1, 451796, Note_on_c, 0, 45, 68
1, 451818, Note_off_c, 0, 57, 64
1, 451833, Note_off_c, 0, 45, 64
1, 451850, Note_on_c, 0, 61, 91
1, 451850, Note_on_c, 0, 64, 85
1, 451875, Note_off_c, 0, 64, 67
1, 451893, Note_off_c, 0, 61, 63
1, 451922, Note_on_c, 0, 52, 86
1, 451933, Note_on_c, 0, 45, 55
1, 451937, Note_on_c, 0, 43, 57
1, 451958, Note_off_c, 0, 52, 61
1, 451966, Note_off_c, 0, 43, 62
1, 451973, Note_off_c, 0, 45, 65
1, 451985, Note_on_c, 0, 57, 79
1, 451988, Note_on_c, 0, 61, 81
1, 452016, Note_off_c, 0, 57, 65
1, 452022, Note_off_c, 0, 61, 60
1, 452060, Note_on_c, 0, 52, 79
1, 452062, Note_on_c, 0, 45, 68
1, 452068, Note_on_c, 0, 43, 51
1, 452086, Note_off_c, 0, 52, 69
1, 452098, Note_off_c, 0, 43, 59
1, 452104, Note_off_c, 0, 45, 66
1, 452112, Note_on_c, 0, 62, 101
1, 452116, Note_on_c, 0, 65, 83
1, 452145, Note_off_c, 0, 62, 66
1, 452153, Note_off_c, 0, 65, 66
1, 452189, Note_on_c, 0, 50, 77
1, 452196, Note_on_c, 0, 45, 63
1, 452199, Note_on_c, 0, 41, 64
1, 452221, Note_off_c, 0, 50, 60
1, 452233, Note_off_c, 0, 41, 66
1, 452236, Note_off_c, 0, 45, 61
1, 452247, Note_on_c, 0, 57, 75
1, 452250, Note_on_c, 0, 62, 81
1, 452271, Note_off_c, 0, 57, 68
1, 452277, Note_off_c, 0, 62, 63
1, 452312, Note_on_c, 0, 50, 83
1, 452316, Note_on_c, 0, 41, 65
1, 452320, Note_on_c, 0, 45, 61
1, 452349, Note_off_c, 0, 50, 65
1, 452351, Note_off_c, 0, 45, 65
1, 452354, Note_off_c, 0, 41, 66
1, 452375, Note_on_c, 0, 58, 90
1, 452375, Note_on_c, 0, 63, 84
1, 452411, Note_off_c, 0, 58, 64
1, 452412, Note_off_c, 0, 63, 63
1, 452447, Note_on_c, 0, 51, 78
1, 452461, Note_on_c, 0, 43, 61
1, 452470, Note_on_c, 0, 46, 49
1, 452481, Note_off_c, 0, 51, 63
1, 452504, Note_off_c, 0, 46, 59
1, 452508, Note_off_c, 0, 43, 61
1, 452524, Note_on_c, 0, 55, 75
1, 452524, Note_on_c, 0, 58, 74
1, 452552, Note_off_c, 0, 55, 68
1, 452554, Note_off_c, 0, 58, 65
1, 452578, Note_on_c, 0, 51, 75
1, 452584, Note_on_c, 0, 46, 66
1, 452610, Note_on_c, 0, 43, 39
1, 452620, Note_off_c, 0, 51, 62
1, 452625, Note_off_c, 0, 46, 61
1, 452646, Note_off_c, 0, 43, 50
1, 452652, Note_on_c, 0, 57, 80
1, 452654, Note_on_c, 0, 62, 77
1, 452677, Note_off_c, 0, 57, 66
1, 452685, Note_off_c, 0, 62, 63
1, 452710, Note_on_c, 0, 53, 87
1, 452722, Note_on_c, 0, 45, 65
1, 452751, Note_off_c, 0, 45, 65
1, 452751, Note_off_c, 0, 53, 65
1, 452769, Note_on_c, 0, 57, 97
1, 452812, Note_off_c, 0, 57, 65
1, 452839, Note_on_c, 0, 53, 86
1, 452843, Note_on_c, 0, 45, 67
1, 452885, Note_off_c, 0, 53, 64
1, 452892, Note_off_c, 0, 45, 62
1, 452897, Note_on_c, 0, 61, 101
1, 452898, Note_on_c, 0, 55, 93
1, 452899, Control_c, 0, 64, 69
1, 452914, Control_c, 0, 64, 81
1, 452918, Note_on_c, 0, 57, 58
1, 452928, Control_c, 0, 64, 92
1, 452932, Note_off_c, 0, 55, 67
1, 452941, Note_off_c, 0, 57, 40
1, 452943, Control_c, 0, 64, 101
1, 452950, Note_off_c, 0, 61, 66
1, 452958, Control_c, 0, 64, 107
1, 452973, Control_c, 0, 64, 110
1, 452980, Note_on_c, 0, 52, 80
1, 452988, Control_c, 0, 64, 112
1, 453000, Note_on_c, 0, 45, 49
1, 453002, Control_c, 0, 64, 113
1, 453015, Note_on_c, 0, 57, 97
1, 453018, Note_on_c, 0, 55, 106
1, 453035, Note_off_c, 0, 52, 64
1, 453037, Note_off_c, 0, 45, 62
1, 453064, Note_off_c, 0, 55, 58
1, 453076, Control_c, 0, 64, 112
1, 453091, Control_c, 0, 64, 105
1, 453106, Control_c, 0, 64, 85
1, 453114, Note_off_c, 0, 57, 64
1, 453120, Control_c, 0, 64, 58
1, 453135, Control_c, 0, 64, 0
1, 453148, Note_on_c, 0, 50, 88
1, 453149, Note_on_c, 0, 38, 84
1, 453150, Note_on_c, 0, 62, 93
1, 453153, Note_on_c, 0, 53, 96
1, 453180, Note_off_c, 0, 38, 62
1, 453184, Note_off_c, 0, 50, 64
1, 453186, Note_off_c, 0, 53, 69
1, 453195, Control_c, 0, 64, 65
1, 453210, Control_c, 0, 64, 74
1, 453213, Note_off_c, 0, 62, 63
1, 453225, Control_c, 0, 64, 81
1, 453246, Control_c, 0, 64, 86
1, 453261, Control_c, 0, 64, 89
1, 453276, Control_c, 0, 64, 89
1, 453287, Note_on_c, 0, 53, 80
1, 453291, Note_on_c, 0, 64, 86
1, 453295, Note_on_c, 0, 57, 85
1, 453296, Note_on_c, 0, 50, 70
1, 453319, Note_off_c, 0, 50, 70
1, 453320, Control_c, 0, 64, 90
1, 453326, Note_off_c, 0, 53, 66
1, 453335, Note_off_c, 0, 57, 59
1, 453335, Control_c, 0, 64, 90
1, 453350, Control_c, 0, 64, 91
1, 453365, Note_on_c, 0, 57, 68
1, 453365, Control_c, 0, 64, 91
1, 453390, Note_on_c, 0, 53, 59
1, 453417, Note_on_c, 0, 50, 32
1, 453418, Note_off_c, 0, 53, 67
1, 453426, Note_on_c, 0, 62, 70
1, 453426, Note_off_c, 0, 57, 63
1, 453427, Note_on_c, 0, 65, 89
1, 453427, Note_off_c, 0, 64, 60
1, 453440, Control_c, 0, 64, 92
1, 453448, Note_off_c, 0, 50, 47
1, 453455, Note_off_c, 0, 62, 62
1, 453455, Control_c, 0, 64, 92
1, 453469, Control_c, 0, 64, 93
1, 453478, Note_off_c, 0, 65, 66
1, 453492, Note_on_c, 0, 57, 75
1, 453505, Note_on_c, 0, 53, 62
1, 453513, Note_on_c, 0, 50, 64
1, 453529, Control_c, 0, 64, 93
1, 453539, Note_off_c, 0, 57, 63
1, 453541, Note_off_c, 0, 53, 67
1, 453544, Control_c, 0, 64, 94
1, 453545, Note_off_c, 0, 50, 64
1, 453547, Note_on_c, 0, 64, 93
1, 453553, Note_on_c, 0, 69, 90
1, 453573, Control_c, 0, 64, 94
1, 453589, Note_off_c, 0, 64, 66
1, 453617, Note_on_c, 0, 53, 74
1, 453617, Note_on_c, 0, 57, 82
1, 453628, Note_on_c, 0, 50, 69
1, 453650, Note_off_c, 0, 69, 63
1, 453660, Note_off_c, 0, 50, 62
1, 453661, Note_off_c, 0, 57, 63
1, 453666, Note_off_c, 0, 53, 65
1, 453684, Note_on_c, 0, 74, 90
1, 453684, Note_on_c, 0, 65, 83
1, 453705, Note_on_c, 0, 67, 60
1, 453705, Note_off_c, 0, 65, 71
1, 453725, Note_off_c, 0, 67, 39
1, 453736, Note_off_c, 0, 74, 66
1, 453739, Note_on_c, 0, 57, 94
1, 453740, Note_on_c, 0, 50, 77
1, 453748, Note_on_c, 0, 53, 80
1, 453766, Control_c, 0, 64, 95
1, 453781, Control_c, 0, 64, 97
1, 453783, Note_off_c, 0, 57, 63
1, 453796, Control_c, 0, 64, 99
1, 453800, Note_off_c, 0, 53, 64
1, 453806, Note_off_c, 0, 50, 61
1, 453811, Control_c, 0, 64, 103
1, 453820, Note_on_c, 0, 76, 98
1, 453821, Note_on_c, 0, 69, 92
1, 453825, Control_c, 0, 64, 106
1, 453840, Control_c, 0, 64, 110
1, 453855, Control_c, 0, 64, 112
1, 453857, Note_off_c, 0, 69, 64
1, 453869, Control_c, 0, 64, 112
1, 453904, Note_off_c, 0, 76, 59
1, 453943, Control_c, 0, 64, 108
1, 453944, Note_on_c, 0, 74, 98
1, 453944, Note_on_c, 0, 77, 98
1, 453958, Control_c, 0, 64, 92
1, 453973, Note_off_c, 0, 74, 69
1, 453973, Control_c, 0, 64, 73
1, 453980, Note_off_c, 0, 77, 68
1, 453996, Control_c, 0, 64, 0
1, 454080, Note_on_c, 0, 69, 105
1, 454081, Note_on_c, 0, 67, 101
1, 454119, Note_off_c, 0, 67, 63
1, 454220, Note_on_c, 0, 50, 97
1, 454221, Note_on_c, 0, 38, 89
1, 454221, Note_on_c, 0, 66, 102
1, 454224, Note_on_c, 0, 74, 90
1, 454235, Note_off_c, 0, 69, 62
1, 454248, Note_off_c, 0, 38, 65
1, 454248, Control_c, 0, 64, 66
1, 454253, Note_off_c, 0, 50, 66
1, 454260, Note_off_c, 0, 66, 70
1, 454263, Control_c, 0, 64, 85
1, 454275, Note_off_c, 0, 74, 69
1, 454278, Control_c, 0, 64, 106
1, 454292, Control_c, 0, 64, 125
1, 454307, Control_c, 0, 64, 127
1, 454345, Note_on_c, 0, 62, 86
1, 454351, Note_on_c, 0, 60, 78
1, 454351, Note_on_c, 0, 52, 78
1, 454367, Note_off_c, 0, 62, 66
1, 454368, Note_on_c, 0, 76, 92
1, 454370, Note_on_c, 0, 69, 78
1, 454375, Note_off_c, 0, 60, 63
1, 454377, Note_off_c, 0, 52, 69
1, 454384, Note_on_c, 0, 67, 71
1, 454401, Note_off_c, 0, 67, 66
1, 454411, Note_off_c, 0, 69, 65
1, 454447, Note_on_c, 0, 62, 92
1, 454447, Note_on_c, 0, 60, 88
1, 454454, Poly_aftertouch_c, 0, 57, 0
1, 454461, Note_on_c, 0, 50, 80
1, 454475, Note_on_c, 0, 57, 21
1, 454501, Note_on_c, 0, 78, 96
1, 454504, Note_off_c, 0, 60, 58
1, 454504, Note_off_c, 0, 62, 59
1, 454506, Note_on_c, 0, 74, 77
1, 454514, Note_off_c, 0, 50, 56
1, 454514, Note_off_c, 0, 76, 61
1, 454527, Note_off_c, 0, 57, 61
1, 454529, Note_off_c, 0, 74, 68
1, 454551, Note_off_c, 0, 78, 67
1, 454575, Note_on_c, 0, 60, 83
1, 454587, Note_on_c, 0, 50, 70
1, 454588, Note_on_c, 0, 62, 82
1, 454590, Note_on_c, 0, 57, 59
1, 454604, Note_off_c, 0, 62, 67
1, 454613, Note_off_c, 0, 50, 65
1, 454616, Note_off_c, 0, 60, 60
1, 454623, Note_off_c, 0, 57, 62
1, 454628, Note_on_c, 0, 76, 94
1, 454640, Note_on_c, 0, 83, 70
1, 454641, Note_on_c, 0, 81, 88
1, 454664, Note_off_c, 0, 76, 69
1, 454692, Note_off_c, 0, 83, 61
1, 454694, Note_off_c, 0, 81, 59
1, 454705, Note_on_c, 0, 62, 11
1, 454715, Note_on_c, 0, 52, 75
1, 454726, Note_on_c, 0, 64, 49
1, 454741, Note_on_c, 0, 56, 37
1, 454754, Note_off_c, 0, 62, 62
1, 454754, Note_off_c, 0, 52, 64
1, 454754, Note_off_c, 0, 64, 57
1, 454760, Note_on_c, 0, 78, 101
1, 454770, Note_on_c, 0, 88, 84
1, 454772, Note_off_c, 0, 56, 57
1, 454775, Note_on_c, 0, 86, 78
1, 454785, Note_off_c, 0, 78, 65
1, 454802, Note_off_c, 0, 86, 58
1, 454813, Poly_aftertouch_c, 0, 59, 0
1, 454815, Note_off_c, 0, 88, 62
1, 454828, Poly_aftertouch_c, 0, 54, 0
1, 454831, Note_on_c, 0, 62, 91
1, 454837, Note_on_c, 0, 64, 80
1, 454838, Note_on_c, 0, 59, 31
1, 454840, Note_on_c, 0, 52, 78
1, 454870, Note_off_c, 0, 52, 57
1, 454876, Note_off_c, 0, 62, 59
1, 454880, Note_off_c, 0, 64, 58
1, 454890, Note_on_c, 0, 81, 84
1, 454891, Note_on_c, 0, 89, 82
1, 454897, Note_off_c, 0, 59, 62
1, 454920, Note_on_c, 0, 83, 46
1, 454921, Note_off_c, 0, 83, 127
1, 454924, Note_off_c, 0, 81, 56
1, 454963, Note_on_c, 0, 62, 87
1, 454966, Note_on_c, 0, 52, 89
1, 454971, Note_off_c, 0, 89, 62
1, 454983, Note_on_c, 0, 64, 67
1, 454998, Note_off_c, 0, 62, 58
1, 455000, Note_off_c, 0, 64, 65
1, 455006, Note_off_c, 0, 52, 65
1, 455015, Note_on_c, 0, 86, 92
1, 455015, Note_on_c, 0, 90, 100
1, 455035, Note_off_c, 0, 90, 70
1, 455035, Note_off_c, 0, 86, 68
1, 455072, Control_c, 0, 64, 118
1, 455087, Control_c, 0, 64, 95
1, 455102, Control_c, 0, 64, 72
1, 455116, Control_c, 0, 64, 0
1, 455165, Note_on_c, 0, 62, 98
1, 455171, Note_on_c, 0, 64, 88
1, 455186, Note_off_c, 0, 64, 63
1, 455319, Note_on_c, 0, 50, 88
1, 455320, Note_on_c, 0, 58, 98
1, 455322, Note_on_c, 0, 38, 76
1, 455329, Note_on_c, 0, 67, 88
1, 455335, Note_off_c, 0, 62, 58
1, 455349, Note_off_c, 0, 38, 63
1, 455352, Note_off_c, 0, 50, 65
1, 455353, Control_c, 0, 64, 70
1, 455364, Note_off_c, 0, 58, 69
1, 455368, Control_c, 0, 64, 80
1, 455383, Control_c, 0, 64, 91
1, 455396, Note_off_c, 0, 67, 63
1, 455398, Control_c, 0, 64, 98
1, 455413, Control_c, 0, 64, 100
1, 455428, Control_c, 0, 64, 101
1, 455442, Control_c, 0, 64, 101
1, 455464, Note_on_c, 0, 55, 66
1, 455472, Note_on_c, 0, 50, 54
1, 455477, Note_on_c, 0, 58, 61
1, 455490, Note_on_c, 0, 69, 93
1, 455496, Note_on_c, 0, 62, 83
1, 455500, Note_off_c, 0, 58, 69
1, 455513, Note_off_c, 0, 55, 65
1, 455514, Note_off_c, 0, 50, 61
1, 455540, Note_off_c, 0, 62, 59
1, 455568, Note_on_c, 0, 58, 70
1, 455568, Control_c, 0, 64, 102
1, 455573, Note_on_c, 0, 55, 71
1, 455583, Control_c, 0, 64, 103
1, 455591, Note_on_c, 0, 50, 63
1, 455597, Control_c, 0, 64, 103
1, 455612, Control_c, 0, 64, 104
1, 455622, Note_off_c, 0, 58, 64
1, 455625, Note_off_c, 0, 50, 63
1, 455627, Note_on_c, 0, 70, 93
1, 455627, Control_c, 0, 64, 105
1, 455629, Note_off_c, 0, 55, 62
1, 455633, Note_on_c, 0, 67, 72
1, 455637, Note_off_c, 0, 69, 60
1, 455642, Control_c, 0, 64, 106
1, 455657, Control_c, 0, 64, 107
1, 455660, Note_off_c, 0, 67, 66
1, 455672, Control_c, 0, 64, 108
1, 455673, Note_off_c, 0, 70, 66
1, 455687, Control_c, 0, 64, 109
1, 455699, Note_on_c, 0, 55, 73
1, 455702, Control_c, 0, 64, 110
1, 455703, Note_on_c, 0, 58, 81
1, 455712, Note_on_c, 0, 50, 64
1, 455716, Control_c, 0, 64, 111
1, 455731, Control_c, 0, 64, 112
1, 455746, Control_c, 0, 64, 113
1, 455749, Note_off_c, 0, 55, 63
1, 455750, Note_on_c, 0, 69, 92
1, 455751, Note_off_c, 0, 58, 65
1, 455752, Note_on_c, 0, 74, 90
1, 455760, Note_off_c, 0, 50, 62
1, 455761, Control_c, 0, 64, 113
1, 455790, Control_c, 0, 64, 114
1, 455791, Note_off_c, 0, 69, 67
1, 455805, Control_c, 0, 64, 114
1, 455821, Control_c, 0, 64, 115
1, 455827, Note_on_c, 0, 58, 80
1, 455832, Note_on_c, 0, 55, 76
1, 455836, Control_c, 0, 64, 117
1, 455839, Note_on_c, 0, 50, 60
1, 455851, Control_c, 0, 64, 120
1, 455861, Note_off_c, 0, 74, 53
1, 455866, Control_c, 0, 64, 125
1, 455871, Note_off_c, 0, 55, 63
1, 455875, Note_off_c, 0, 50, 63
1, 455877, Note_off_c, 0, 58, 64
1, 455880, Note_on_c, 0, 70, 97
1, 455881, Control_c, 0, 64, 127
1, 455885, Note_on_c, 0, 79, 85
1, 455911, Note_off_c, 0, 70, 70
1, 455943, Note_off_c, 0, 79, 63
1, 455952, Note_on_c, 0, 58, 80
1, 455954, Note_on_c, 0, 55, 78
1, 455964, Note_on_c, 0, 50, 69
1, 456000, Note_off_c, 0, 58, 62
1, 456002, Note_off_c, 0, 50, 59
1, 456002, Note_off_c, 0, 55, 59
1, 456009, Note_on_c, 0, 74, 90
1, 456009, Note_on_c, 0, 81, 93
1, 456048, Note_off_c, 0, 74, 67
1, 456080, Note_off_c, 0, 81, 57
1, 456081, Note_on_c, 0, 58, 88
1, 456085, Note_on_c, 0, 55, 79
1, 456092, Note_on_c, 0, 50, 68
1, 456138, Note_on_c, 0, 79, 91
1, 456140, Note_off_c, 0, 55, 60
1, 456140, Note_off_c, 0, 58, 63
1, 456143, Note_on_c, 0, 82, 92
1, 456154, Note_off_c, 0, 50, 61
1, 456182, Note_off_c, 0, 79, 63
1, 456209, Note_on_c, 0, 58, 84
1, 456212, Note_on_c, 0, 55, 80
1, 456217, Note_off_c, 0, 82, 61
1, 456218, Note_on_c, 0, 50, 60
1, 456279, Note_on_c, 0, 86, 101
1, 456283, Note_on_c, 0, 77, 94
1, 456286, Note_off_c, 0, 58, 60
1, 456288, Note_off_c, 0, 55, 58
1, 456304, Note_off_c, 0, 50, 62
1, 456321, Note_off_c, 0, 77, 65
1, 456346, Control_c, 0, 64, 112
1, 456361, Control_c, 0, 64, 108
1, 456374, Note_on_c, 0, 55, 75
1, 456375, Note_on_c, 0, 58, 79
1, 456378, Note_on_c, 0, 50, 53
1, 456413, Note_on_c, 0, 76, 100
1, 456415, Note_on_c, 0, 85, 94
1, 456420, Control_c, 0, 64, 109
1, 456423, Note_off_c, 0, 58, 62
1, 456435, Control_c, 0, 64, 112
1, 456436, Note_off_c, 0, 55, 64
1, 456439, Note_off_c, 0, 50, 58
1, 456440, Note_off_c, 0, 86, 66
1, 456450, Control_c, 0, 64, 117
1, 456458, Note_off_c, 0, 76, 62
1, 456465, Control_c, 0, 64, 124
1, 456480, Control_c, 0, 64, 127
1, 456506, Note_off_c, 0, 85, 63
1, 456507, Note_on_c, 0, 58, 77
1, 456511, Note_on_c, 0, 55, 60
1, 456517, Note_on_c, 0, 50, 50
1, 456547, Note_on_c, 0, 73, 100
1, 456557, Note_on_c, 0, 81, 68
1, 456562, Note_off_c, 0, 50, 57
1, 456562, Note_off_c, 0, 58, 61
1, 456564, Note_on_c, 0, 80, 60
1, 456575, Note_off_c, 0, 55, 64
1, 456579, Note_off_c, 0, 81, 63
1, 456590, Note_off_c, 0, 73, 60
1, 456596, Note_off_c, 0, 80, 51
1, 456629, Note_on_c, 0, 55, 61
1, 456630, Note_on_c, 0, 58, 77
1, 456635, Note_on_c, 0, 50, 62
1, 456682, Note_on_c, 0, 70, 93
1, 456685, Note_off_c, 0, 58, 63
1, 456685, Note_on_c, 0, 79, 92
1, 456690, Note_off_c, 0, 50, 60
1, 456691, Note_off_c, 0, 55, 63
1, 456721, Note_off_c, 0, 79, 67
1, 456726, Note_off_c, 0, 70, 61
1, 456760, Note_on_c, 0, 58, 79
1, 456761, Note_on_c, 0, 55, 67
1, 456771, Note_on_c, 0, 50, 60
1, 456807, Note_off_c, 0, 58, 63
1, 456813, Note_off_c, 0, 50, 59
1, 456820, Note_off_c, 0, 55, 63
1, 456826, Note_on_c, 0, 76, 95
1, 456833, Note_on_c, 0, 65, 83
1, 456835, Note_on_c, 0, 67, 73
1, 456855, Note_off_c, 0, 65, 72
1, 456859, Note_off_c, 0, 67, 69
1, 456876, Note_off_c, 0, 76, 63
1, 456883, Note_on_c, 0, 58, 87
1, 456885, Note_on_c, 0, 55, 67
1, 456897, Note_on_c, 0, 50, 66
1, 456934, Note_off_c, 0, 50, 60
1, 456937, Note_off_c, 0, 58, 62
1, 456945, Note_on_c, 0, 64, 96
1, 456948, Note_on_c, 0, 73, 91
1, 456954, Note_off_c, 0, 55, 62
1, 456984, Note_off_c, 0, 64, 64
1, 457024, Note_on_c, 0, 55, 73
1, 457025, Note_on_c, 0, 58, 89
1, 457029, Note_on_c, 0, 50, 69
1, 457061, Note_off_c, 0, 73, 53
1, 457064, Note_off_c, 0, 58, 66
1, 457080, Note_off_c, 0, 55, 64
1, 457088, Note_on_c, 0, 61, 96
1, 457092, Note_on_c, 0, 70, 88
1, 457110, Note_off_c, 0, 50, 0
1, 457127, Note_on_c, 0, 50, 35
1, 457130, Note_off_c, 0, 61, 62
1, 457144, Note_on_c, 0, 58, 85
1, 457144, Note_off_c, 0, 70, 62
1, 457152, Note_on_c, 0, 55, 55
1, 457177, Note_off_c, 0, 58, 63
1, 457189, Note_off_c, 0, 55, 64
1, 457204, Note_off_c, 0, 50, 62
1, 457228, Note_on_c, 0, 58, 98
1, 457233, Note_on_c, 0, 67, 93
1, 457257, Control_c, 0, 64, 96
1, 457261, Note_off_c, 0, 58, 69
1, 457261, Note_off_c, 0, 67, 59
1, 457272, Control_c, 0, 64, 71
1, 457287, Control_c, 0, 64, 0
1, 457364, Note_on_c, 0, 57, 110
1, 457365, Note_on_c, 0, 55, 99
1, 457454, Note_off_c, 0, 55, 56
1, 457517, Note_on_c, 0, 50, 97
1, 457519, Note_on_c, 0, 54, 98
1, 457520, Note_on_c, 0, 38, 84
1, 457524, Note_on_c, 0, 62, 91
1, 457526, Note_off_c, 0, 57, 60
1, 457539, Control_c, 0, 64, 69
1, 457550, Note_off_c, 0, 38, 67
1, 457550, Note_off_c, 0, 50, 67
1, 457554, Control_c, 0, 64, 85
1, 457562, Note_off_c, 0, 54, 65
1, 457569, Control_c, 0, 64, 102
1, 457583, Control_c, 0, 64, 115
1, 457588, Note_off_c, 0, 62, 62
1, 457598, Control_c, 0, 64, 119
1, 457657, Note_on_c, 0, 45, 64
1, 457672, Note_on_c, 0, 50, 37
1, 457674, Note_on_c, 0, 57, 88
1, 457674, Note_on_c, 0, 64, 90
1, 457684, Note_off_c, 0, 45, 57
1, 457696, Note_off_c, 0, 50, 58
1, 457697, Note_on_c, 0, 54, 10
1, 457702, Note_on_c, 0, 52, 18
1, 457716, Note_off_c, 0, 57, 64
1, 457724, Note_off_c, 0, 54, 53
1, 457750, Note_off_c, 0, 52, 44
1, 457776, Note_on_c, 0, 57, 69
1, 457776, Note_on_c, 0, 45, 67
1, 457778, Note_on_c, 0, 50, 69
1, 457784, Note_on_c, 0, 54, 73
1, 457818, Note_on_c, 0, 62, 81
1, 457820, Note_on_c, 0, 66, 95
1, 457821, Note_off_c, 0, 54, 61
1, 457822, Note_off_c, 0, 45, 63
1, 457828, Note_off_c, 0, 50, 62
1, 457830, Note_off_c, 0, 57, 58
1, 457830, Note_off_c, 0, 64, 59
1, 457851, Note_off_c, 0, 62, 58
1, 457863, Note_off_c, 0, 66, 69
1, 457899, Note_on_c, 0, 54, 76
1, 457901, Note_on_c, 0, 57, 79
1, 457905, Note_on_c, 0, 50, 74
1, 457910, Note_on_c, 0, 45, 68
1, 457933, Note_off_c, 0, 57, 61
1, 457937, Note_off_c, 0, 45, 64
1, 457943, Note_off_c, 0, 54, 62
1, 457947, Note_off_c, 0, 50, 58
1, 457950, Note_on_c, 0, 64, 86
1, 457952, Note_on_c, 0, 69, 95
1, 457988, Note_off_c, 0, 64, 66
1, 458022, Note_on_c, 0, 57, 85
1, 458026, Note_on_c, 0, 54, 79
1, 458027, Note_on_c, 0, 50, 73
1, 458028, Note_on_c, 0, 45, 75
1, 458041, Note_off_c, 0, 69, 62
1, 458062, Note_off_c, 0, 45, 57
1, 458066, Note_off_c, 0, 50, 64
1, 458067, Note_off_c, 0, 54, 56
1, 458069, Note_off_c, 0, 57, 58
1, 458077, Note_on_c, 0, 66, 97
1, 458080, Note_on_c, 0, 74, 86
1, 458110, Note_off_c, 0, 66, 71
1, 458137, Note_off_c, 0, 74, 65
1, 458149, Note_on_c, 0, 57, 90
1, 458151, Note_on_c, 0, 45, 80
1, 458152, Note_on_c, 0, 54, 80
1, 458157, Note_on_c, 0, 50, 74
1, 458197, Note_off_c, 0, 57, 57
1, 458202, Note_on_c, 0, 69, 89
1, 458206, Note_off_c, 0, 45, 62
1, 458209, Note_off_c, 0, 54, 61
1, 458210, Note_off_c, 0, 50, 52
1, 458213, Note_on_c, 0, 76, 79
1, 458249, Note_off_c, 0, 69, 66
1, 458259, Control_c, 0, 64, 121
1, 458274, Control_c, 0, 64, 125
1, 458289, Control_c, 0, 64, 127
1, 458289, Note_on_c, 0, 57, 91
1, 458292, Note_on_c, 0, 54, 88
1, 458301, Note_on_c, 0, 45, 71
1, 458307, Note_on_c, 0, 50, 64
1, 458313, Note_off_c, 0, 76, 59
1, 458317, Note_off_c, 0, 57, 58
1, 458331, Note_off_c, 0, 50, 67
1, 458334, Note_off_c, 0, 54, 61
1, 458335, Note_on_c, 0, 78, 98
1, 458342, Note_on_c, 0, 74, 85
1, 458348, Control_c, 0, 64, 112
1, 458349, Note_off_c, 0, 45, 64
1, 458359, Note_off_c, 0, 74, 75
1, 458363, Control_c, 0, 64, 83
1, 458371, Note_off_c, 0, 78, 69
1, 458378, Control_c, 0, 64, 36
1, 458393, Control_c, 0, 64, 0
1, 458465, Note_on_c, 0, 69, 107
1, 458465, Note_on_c, 0, 67, 97
1, 458507, Note_on_c, 0, 70, 37
1, 458536, Note_off_c, 0, 70, 35
1, 458561, Note_off_c, 0, 67, 59
1, 458623, Note_on_c, 0, 50, 90
1, 458624, Note_on_c, 0, 66, 101
1, 458628, Note_on_c, 0, 38, 76
1, 458629, Note_on_c, 0, 74, 88
1, 458631, Note_off_c, 0, 69, 66
1, 458652, Control_c, 0, 64, 73
1, 458656, Note_off_c, 0, 50, 67
1, 458659, Note_off_c, 0, 38, 63
1, 458662, Note_off_c, 0, 66, 71
1, 458666, Control_c, 0, 64, 90
1, 458681, Control_c, 0, 64, 102
1, 458695, Note_off_c, 0, 74, 67
1, 458696, Control_c, 0, 64, 106
1, 458711, Control_c, 0, 64, 107
1, 458726, Control_c, 0, 64, 107
1, 458751, Note_on_c, 0, 60, 80
1, 458763, Note_on_c, 0, 57, 63
1, 458763, Note_on_c, 0, 54, 61
1, 458772, Note_on_c, 0, 62, 63
1, 458777, Note_off_c, 0, 60, 63
1, 458779, Note_on_c, 0, 50, 44
1, 458781, Note_on_c, 0, 69, 80
1, 458782, Note_on_c, 0, 76, 96
1, 458787, Note_on_c, 0, 67, 79
1, 458793, Note_off_c, 0, 62, 62
1, 458796, Note_off_c, 0, 54, 63
1, 458796, Note_off_c, 0, 57, 55
1, 458811, Note_off_c, 0, 67, 64
1, 458820, Note_off_c, 0, 69, 67
1, 458822, Note_off_c, 0, 50, 41
1, 458858, Note_on_c, 0, 60, 84
1, 458859, Note_on_c, 0, 62, 79
1, 458867, Note_on_c, 0, 54, 71
1, 458870, Note_on_c, 0, 50, 62
1, 458873, Note_on_c, 0, 57, 69
1, 458903, Note_off_c, 0, 60, 58
1, 458904, Note_off_c, 0, 50, 64
1, 458904, Note_off_c, 0, 57, 62
1, 458906, Note_off_c, 0, 62, 53
1, 458908, Note_off_c, 0, 54, 60
1, 458909, Note_on_c, 0, 78, 98
1, 458912, Note_on_c, 0, 74, 82
1, 458921, Note_off_c, 0, 76, 63
1, 458933, Control_c, 0, 64, 108
1, 458939, Note_off_c, 0, 74, 63
1, 458956, Note_off_c, 0, 78, 68
1, 458963, Control_c, 0, 64, 109
1, 458978, Control_c, 0, 64, 110
1, 458985, Note_on_c, 0, 60, 81
1, 458990, Note_on_c, 0, 62, 83
1, 458993, Control_c, 0, 64, 111
1, 458996, Note_on_c, 0, 57, 66
1, 458996, Note_on_c, 0, 50, 69
1, 458996, Note_on_c, 0, 54, 67
1, 459008, Control_c, 0, 64, 114
1, 459023, Control_c, 0, 64, 118
1, 459025, Note_off_c, 0, 62, 56
1, 459030, Note_off_c, 0, 60, 61
1, 459031, Note_off_c, 0, 50, 63
1, 459036, Note_on_c, 0, 81, 98
1, 459037, Note_on_c, 0, 76, 91
1, 459037, Control_c, 0, 64, 123
1, 459038, Note_off_c, 0, 57, 59
1, 459043, Note_off_c, 0, 54, 62
1, 459052, Control_c, 0, 64, 127
1, 459075, Note_off_c, 0, 76, 68
1, 459122, Note_on_c, 0, 60, 82
1, 459127, Note_on_c, 0, 50, 70
1, 459127, Note_on_c, 0, 62, 74
1, 459130, Note_off_c, 0, 81, 56
1, 459139, Note_on_c, 0, 54, 66
1, 459139, Note_on_c, 0, 57, 64
1, 459154, Note_off_c, 0, 62, 61
1, 459155, Note_on_c, 0, 56, 24
1, 459158, Note_off_c, 0, 60, 54
1, 459162, Note_on_c, 0, 78, 98
1, 459163, Note_off_c, 0, 57, 66
1, 459163, Note_off_c, 0, 50, 59
1, 459166, Note_off_c, 0, 54, 64
1, 459169, Note_on_c, 0, 86, 88
1, 459195, Note_off_c, 0, 56, 40
1, 459197, Note_off_c, 0, 78, 67
1, 459225, Note_off_c, 0, 86, 63
1, 459255, Note_on_c, 0, 60, 81
1, 459256, Note_on_c, 0, 62, 76
1, 459261, Note_on_c, 0, 54, 63
1, 459267, Note_on_c, 0, 57, 68
1, 459268, Note_on_c, 0, 50, 69
1, 459290, Note_on_c, 0, 81, 97
1, 459291, Note_off_c, 0, 60, 52
1, 459296, Note_off_c, 0, 50, 64
1, 459299, Note_on_c, 0, 88, 91
1, 459304, Note_off_c, 0, 62, 58
1, 459316, Note_off_c, 0, 54, 62
1, 459328, Note_off_c, 0, 57, 49
1, 459339, Note_off_c, 0, 81, 62
1, 459396, Note_on_c, 0, 60, 78
1, 459402, Note_on_c, 0, 62, 79
1, 459404, Note_on_c, 0, 50, 75
1, 459405, Note_on_c, 0, 54, 71
1, 459414, Note_on_c, 0, 57, 50
1, 459418, Note_off_c, 0, 60, 70
1, 459427, Note_off_c, 0, 62, 67
1, 459428, Note_on_c, 0, 86, 90
1, 459431, Note_on_c, 0, 90, 89
1, 459434, Note_off_c, 0, 57, 62
1, 459442, Note_off_c, 0, 54, 60
1, 459443, Note_off_c, 0, 50, 65
1, 459443, Note_off_c, 0, 88, 63
1, 459450, Note_on_c, 0, 91, 73
1, 459459, Note_off_c, 0, 86, 60
1, 459464, Note_off_c, 0, 91, 44
1, 459471, Note_off_c, 0, 90, 62
1, 459583, Note_on_c, 0, 60, 95
1, 459583, Note_on_c, 0, 62, 107
1, 459632, Note_off_c, 0, 60, 54
1, 459666, Control_c, 0, 64, 110
1, 459681, Control_c, 0, 64, 90
1, 459696, Control_c, 0, 64, 70
1, 459711, Control_c, 0, 64, 0
1, 459732, Note_off_c, 0, 62, 0
1, 459744, Note_on_c, 0, 50, 89
1, 459745, Note_on_c, 0, 38, 80
1, 459745, Note_on_c, 0, 59, 102
1, 459746, Note_on_c, 0, 67, 96
1, 459769, Poly_aftertouch_c, 0, 62, 0
1, 459770, Control_c, 0, 64, 47
1, 459778, Note_off_c, 0, 38, 67
1, 459783, Note_off_c, 0, 50, 64
1, 459785, Control_c, 0, 64, 69
1, 459795, Note_off_c, 0, 59, 67
1, 459800, Control_c, 0, 64, 80
1, 459815, Control_c, 0, 64, 88
1, 459830, Control_c, 0, 64, 93
1, 459845, Control_c, 0, 64, 95
1, 459849, Note_off_c, 0, 67, 59
1, 459860, Control_c, 0, 64, 95
1, 459892, Note_on_c, 0, 50, 67
1, 459892, Note_on_c, 0, 59, 63
1, 459893, Note_on_c, 0, 55, 65
1, 459924, Note_off_c, 0, 50, 64
1, 459924, Note_off_c, 0, 59, 63
1, 459928, Note_off_c, 0, 55, 65
1, 459931, Note_on_c, 0, 62, 91
1, 459932, Note_on_c, 0, 69, 90
1, 459974, Note_off_c, 0, 62, 62
1, 460009, Note_on_c, 0, 59, 75
1, 460021, Note_on_c, 0, 50, 66
1, 460024, Note_on_c, 0, 55, 60
1, 460030, Control_c, 0, 64, 95
1, 460051, Note_off_c, 0, 59, 59
1, 460052, Note_off_c, 0, 50, 65
1, 460059, Note_off_c, 0, 55, 63
1, 460072, Note_off_c, 0, 69, 59
1, 460075, Note_on_c, 0, 71, 90
1, 460075, Note_on_c, 0, 67, 84
1, 460101, Note_off_c, 0, 67, 64
1, 460120, Note_off_c, 0, 71, 63
1, 460127, Note_on_c, 0, 59, 81
1, 460142, Note_on_c, 0, 50, 64
1, 460146, Note_on_c, 0, 55, 71
1, 460149, Control_c, 0, 64, 95
1, 460164, Control_c, 0, 64, 96
1, 460176, Note_off_c, 0, 50, 64
1, 460177, Note_off_c, 0, 59, 55
1, 460179, Control_c, 0, 64, 97
1, 460183, Note_off_c, 0, 55, 64
1, 460192, Note_on_c, 0, 69, 90
1, 460193, Control_c, 0, 64, 98
1, 460196, Note_on_c, 0, 74, 92
1, 460208, Control_c, 0, 64, 99
1, 460223, Control_c, 0, 64, 99
1, 460234, Note_off_c, 0, 69, 65
1, 460237, Control_c, 0, 64, 100
1, 460259, Note_on_c, 0, 59, 81
1, 460264, Note_on_c, 0, 50, 63
1, 460267, Control_c, 0, 64, 101
1, 460286, Note_on_c, 0, 55, 53
1, 460297, Control_c, 0, 64, 101
1, 460298, Note_off_c, 0, 50, 63
1, 460304, Note_off_c, 0, 74, 49
1, 460306, Note_off_c, 0, 59, 56
1, 460309, Note_off_c, 0, 55, 64
1, 460311, Control_c, 0, 64, 102
1, 460318, Note_on_c, 0, 79, 90
1, 460320, Note_on_c, 0, 71, 80
1, 460326, Control_c, 0, 64, 102
1, 460332, Note_on_c, 0, 72, 73
1, 460341, Control_c, 0, 64, 103
1, 460345, Note_off_c, 0, 71, 64
1, 460347, Note_off_c, 0, 72, 67
1, 460371, Control_c, 0, 64, 103
1, 460375, Note_off_c, 0, 79, 62
1, 460384, Note_on_c, 0, 59, 85
1, 460385, Control_c, 0, 64, 104
1, 460391, Note_on_c, 0, 55, 59
1, 460396, Note_on_c, 0, 50, 66
1, 460400, Control_c, 0, 64, 104
1, 460415, Control_c, 0, 64, 105
1, 460427, Note_off_c, 0, 50, 63
1, 460429, Control_c, 0, 64, 105
1, 460441, Note_off_c, 0, 59, 57
1, 460442, Note_on_c, 0, 81, 100
1, 460444, Note_on_c, 0, 74, 90
1, 460444, Control_c, 0, 64, 106
1, 460456, Note_off_c, 0, 55, 59
1, 460459, Control_c, 0, 64, 107
1, 460474, Control_c, 0, 64, 108
1, 460482, Note_off_c, 0, 74, 67
1, 460489, Control_c, 0, 64, 108
1, 460504, Control_c, 0, 64, 109
1, 460510, Note_off_c, 0, 81, 55
1, 460519, Control_c, 0, 64, 109
1, 460522, Note_on_c, 0, 59, 85
1, 460533, Note_on_c, 0, 55, 63
1, 460534, Control_c, 0, 64, 110
1, 460534, Note_on_c, 0, 50, 65
1, 460549, Control_c, 0, 64, 110
1, 460564, Control_c, 0, 64, 111
1, 460573, Note_on_c, 0, 79, 95
1, 460576, Note_off_c, 0, 59, 60
1, 460578, Note_on_c, 0, 82, 71
1, 460578, Control_c, 0, 64, 111
1, 460587, Note_on_c, 0, 83, 87
1, 460601, Note_off_c, 0, 50, 53
1, 460602, Note_off_c, 0, 55, 55
1, 460620, Note_off_c, 0, 82, 41
1, 460628, Note_off_c, 0, 79, 58
1, 460635, Note_off_c, 0, 83, 57
1, 460638, Control_c, 0, 64, 112
1, 460653, Control_c, 0, 64, 112
1, 460659, Note_on_c, 0, 50, 51
1, 460667, Note_on_c, 0, 59, 80
1, 460668, Note_on_c, 0, 55, 64
1, 460668, Control_c, 0, 64, 113
1, 460683, Control_c, 0, 64, 114
1, 460694, Note_off_c, 0, 59, 65
1, 460698, Control_c, 0, 64, 115
1, 460700, Note_on_c, 0, 77, 101
1, 460700, Note_on_c, 0, 86, 100
1, 460703, Note_off_c, 0, 55, 67
1, 460713, Control_c, 0, 64, 116
1, 460719, Note_off_c, 0, 50, 62
1, 460751, Note_off_c, 0, 77, 64
1, 460780, Control_c, 0, 64, 110
1, 460795, Control_c, 0, 64, 91
1, 460809, Control_c, 0, 64, 68
1, 460823, Note_on_c, 0, 50, 85
1, 460824, Control_c, 0, 64, 0
1, 460831, Note_on_c, 0, 40, 69
1, 460837, Note_on_c, 0, 76, 98
1, 460838, Note_on_c, 0, 85, 92
1, 460850, Note_off_c, 0, 50, 66
1, 460854, Note_off_c, 0, 40, 60
1, 460854, Control_c, 0, 64, 64
1, 460865, Note_off_c, 0, 86, 67
1, 460868, Control_c, 0, 64, 77
1, 460883, Control_c, 0, 64, 87
1, 460886, Note_off_c, 0, 76, 66
1, 460898, Control_c, 0, 64, 96
1, 460913, Control_c, 0, 64, 101
1, 460928, Control_c, 0, 64, 102
1, 460942, Note_off_c, 0, 85, 64
1, 460942, Control_c, 0, 64, 103
1, 460969, Note_on_c, 0, 58, 60
1, 460970, Note_on_c, 0, 55, 58
1, 460981, Note_on_c, 0, 73, 97
1, 460984, Note_on_c, 0, 82, 82
1, 460987, Note_on_c, 0, 52, 37
1, 460989, Note_off_c, 0, 58, 62
1, 460994, Note_off_c, 0, 55, 59
1, 461022, Note_off_c, 0, 52, 44
1, 461025, Note_off_c, 0, 73, 61
1, 461025, Note_off_c, 0, 82, 64
1, 461037, Poly_aftertouch_c, 0, 50, 0
1, 461054, Note_on_c, 0, 58, 81
1, 461060, Note_on_c, 0, 55, 76
1, 461070, Note_on_c, 0, 50, 15
1, 461079, Note_on_c, 0, 52, 65
1, 461109, Note_on_c, 0, 70, 95
1, 461111, Note_on_c, 0, 79, 93
1, 461111, Note_off_c, 0, 52, 65
1, 461116, Note_off_c, 0, 58, 63
1, 461121, Note_off_c, 0, 50, 61
1, 461121, Note_off_c, 0, 55, 58
1, 461151, Note_off_c, 0, 70, 60
1, 461165, Control_c, 0, 64, 102
1, 461175, Note_off_c, 0, 79, 61
1, 461185, Note_on_c, 0, 58, 84
1, 461193, Note_on_c, 0, 52, 72
1, 461199, Note_on_c, 0, 55, 69
1, 461202, Note_on_c, 0, 50, 62
1, 461239, Note_on_c, 0, 67, 94
1, 461245, Note_on_c, 0, 76, 77
1, 461250, Note_off_c, 0, 55, 54
1, 461252, Note_off_c, 0, 58, 62
1, 461254, Note_off_c, 0, 50, 58
1, 461254, Note_off_c, 0, 52, 63
1, 461275, Note_off_c, 0, 67, 63
1, 461313, Control_c, 0, 64, 102
1, 461326, Note_on_c, 0, 58, 83
1, 461327, Control_c, 0, 64, 96
1, 461337, Note_on_c, 0, 55, 73
1, 461342, Control_c, 0, 64, 82
1, 461344, Note_on_c, 0, 50, 60
1, 461344, Note_on_c, 0, 52, 68
1, 461354, Note_off_c, 0, 76, 59
1, 461357, Control_c, 0, 64, 64
1, 461372, Control_c, 0, 64, 0
1, 461381, Note_on_c, 0, 73, 92
1, 461381, Note_on_c, 0, 82, 85
1, 461395, Note_off_c, 0, 50, 56
1, 461398, Note_off_c, 0, 52, 62
1, 461403, Control_c, 0, 64, 58
1, 461406, Note_off_c, 0, 58, 61
1, 461413, Note_off_c, 0, 55, 58
1, 461418, Control_c, 0, 64, 71
1, 461432, Control_c, 0, 64, 84
1, 461447, Control_c, 0, 64, 95
1, 461457, Note_off_c, 0, 82, 63
1, 461462, Control_c, 0, 64, 114
1, 461467, Note_on_c, 0, 58, 75
1, 461483, Note_on_c, 0, 55, 65
1, 461484, Control_c, 0, 64, 127
1, 461487, Note_off_c, 0, 73, 59
1, 461489, Note_on_c, 0, 50, 55
1, 461498, Note_on_c, 0, 52, 69
1, 461521, Note_on_c, 0, 70, 98
1, 461526, Note_on_c, 0, 79, 89
1, 461529, Note_off_c, 0, 52, 65
1, 461535, Note_off_c, 0, 50, 61
1, 461538, Note_off_c, 0, 55, 63
1, 461541, Note_off_c, 0, 58, 63
1, 461573, Note_off_c, 0, 70, 60
1, 461580, Note_off_c, 0, 79, 54
1, 461614, Note_on_c, 0, 58, 80
1, 461618, Note_on_c, 0, 55, 71
1, 461626, Note_on_c, 0, 52, 68
1, 461628, Note_on_c, 0, 50, 56
1, 461652, Note_on_c, 0, 76, 92
1, 461657, Note_off_c, 0, 52, 60
1, 461662, Note_on_c, 0, 67, 82
1, 461663, Note_off_c, 0, 58, 63
1, 461664, Note_off_c, 0, 50, 61
1, 461674, Note_on_c, 0, 69, 70
1, 461675, Note_off_c, 0, 55, 63
1, 461689, Note_off_c, 0, 69, 67
1, 461696, Note_off_c, 0, 67, 59
1, 461699, Note_off_c, 0, 76, 65
1, 461740, Note_on_c, 0, 58, 82
1, 461744, Note_on_c, 0, 55, 68
1, 461758, Note_on_c, 0, 52, 71
1, 461763, Note_on_c, 0, 50, 52
1, 461787, Note_on_c, 0, 73, 92
1, 461789, Note_on_c, 0, 64, 91
1, 461792, Note_off_c, 0, 52, 64
1, 461794, Note_off_c, 0, 58, 61
1, 461797, Note_off_c, 0, 50, 63
1, 461798, Note_off_c, 0, 55, 62
1, 461816, Note_off_c, 0, 64, 56
1, 461822, Note_on_c, 0, 74, 51
1, 461842, Note_off_c, 0, 74, 61
1, 461864, Note_off_c, 0, 73, 59
1, 461870, Note_on_c, 0, 58, 84
1, 461881, Note_on_c, 0, 55, 63
1, 461891, Note_on_c, 0, 52, 67
1, 461893, Note_on_c, 0, 50, 61
1, 461899, Poly_aftertouch_c, 0, 65, 0
1, 461917, Note_on_c, 0, 79, 94
1, 461917, Note_off_c, 0, 52, 66
1, 461917, Note_on_c, 0, 70, 99
1, 461925, Note_off_c, 0, 50, 62
1, 461929, Note_off_c, 0, 55, 63
1, 461931, Note_off_c, 0, 58, 64
1, 461966, Note_off_c, 0, 70, 60
1, 461966, Note_off_c, 0, 79, 65
1, 462001, Note_on_c, 0, 58, 80
1, 462012, Note_on_c, 0, 55, 62
1, 462015, Note_on_c, 0, 50, 57
1, 462018, Note_on_c, 0, 52, 68
1, 462052, Note_off_c, 0, 55, 57
1, 462054, Note_off_c, 0, 52, 64
1, 462055, Note_on_c, 0, 76, 95
1, 462057, Note_on_c, 0, 67, 92
1, 462057, Note_off_c, 0, 50, 61
1, 462058, Note_off_c, 0, 58, 63
1, 462103, Note_off_c, 0, 67, 60
1, 462111, Note_off_c, 0, 76, 62
1, 462136, Note_on_c, 0, 58, 76
1, 462146, Note_on_c, 0, 52, 60
1, 462149, Note_on_c, 0, 55, 69
1, 462157, Note_on_c, 0, 50, 60
1, 462187, Note_off_c, 0, 55, 60
1, 462189, Note_on_c, 0, 64, 86
1, 462189, Note_on_c, 0, 73, 88
1, 462190, Note_off_c, 0, 50, 62
1, 462191, Note_off_c, 0, 58, 63
1, 462199, Note_off_c, 0, 52, 63
1, 462238, Note_off_c, 0, 64, 66
1, 462278, Note_on_c, 0, 58, 82
1, 462284, Note_on_c, 0, 52, 62
1, 462290, Note_on_c, 0, 50, 58
1, 462292, Note_off_c, 0, 73, 57
1, 462296, Note_on_c, 0, 55, 58
1, 462322, Note_off_c, 0, 55, 68
1, 462327, Note_on_c, 0, 61, 91
1, 462327, Note_on_c, 0, 70, 88
1, 462335, Note_off_c, 0, 58, 62
1, 462341, Note_off_c, 0, 52, 62
1, 462358, Note_off_c, 0, 50, 57
1, 462364, Note_off_c, 0, 61, 61
1, 462416, Note_off_c, 0, 70, 62
1, 462451, Note_on_c, 0, 67, 104
1, 462452, Note_on_c, 0, 76, 91
1, 462501, Note_off_c, 0, 67, 60
1, 462526, Note_off_c, 0, 76, 59
1, 462582, Note_on_c, 0, 64, 93
1, 462583, Note_on_c, 0, 73, 89
1, 462628, Note_off_c, 0, 64, 63
1, 462674, Note_off_c, 0, 73, 61
1, 462713, Note_on_c, 0, 70, 92
1, 462722, Note_on_c, 0, 61, 88
1, 462743, Note_off_c, 0, 61, 66
1, 462767, Note_off_c, 0, 70, 59
1, 462841, Note_on_c, 0, 67, 96
1, 462867, Note_on_c, 0, 61, 46
1, 462885, Note_off_c, 0, 67, 62
1, 462889, Note_off_c, 0, 61, 56
1, 462945, Control_c, 0, 64, 120
1, 462960, Control_c, 0, 64, 89
1, 462981, Control_c, 0, 64, 68
1, 462989, Note_on_c, 0, 76, 82
1, 462990, Note_on_c, 0, 67, 87
1, 462996, Control_c, 0, 64, 0
1, 463026, Control_c, 0, 64, 63
1, 463041, Control_c, 0, 64, 70
1, 463047, Note_off_c, 0, 67, 53
1, 463047, Note_on_c, 0, 73, 75
1, 463053, Note_on_c, 0, 64, 71
1, 463056, Control_c, 0, 64, 77
1, 463071, Control_c, 0, 64, 83
1, 463078, Note_on_c, 0, 61, 72
1, 463085, Control_c, 0, 64, 87
1, 463093, Note_off_c, 0, 76, 60
1, 463099, Note_on_c, 0, 70, 81
1, 463100, Control_c, 0, 64, 89
1, 463115, Control_c, 0, 64, 91
1, 463130, Control_c, 0, 64, 91
1, 463131, Note_off_c, 0, 64, 64
1, 463134, Note_off_c, 0, 73, 62
1, 463157, Note_on_c, 0, 67, 92
1, 463160, Control_c, 0, 64, 91
1, 463170, Note_off_c, 0, 70, 64
1, 463175, Note_on_c, 0, 58, 74
1, 463175, Control_c, 0, 64, 86
1, 463179, Note_off_c, 0, 61, 64
1, 463190, Control_c, 0, 64, 74
1, 463204, Control_c, 0, 64, 0
1, 463211, Note_off_c, 0, 67, 64
1, 463240, Note_on_c, 0, 73, 94
1, 463240, Note_on_c, 0, 64, 90
1, 463252, Note_off_c, 0, 58, 64
1, 463263, Control_c, 0, 64, 61
1, 463278, Control_c, 0, 64, 68
1, 463293, Control_c, 0, 64, 72
1, 463304, Note_on_c, 0, 70, 84
1, 463308, Control_c, 0, 64, 76
1, 463312, Note_on_c, 0, 61, 86
1, 463312, Note_off_c, 0, 64, 44
1, 463323, Control_c, 0, 64, 79
1, 463333, Note_off_c, 0, 73, 62
1, 463336, Note_on_c, 0, 72, 17
1, 463337, Control_c, 0, 64, 81
1, 463352, Control_c, 0, 64, 82
1, 463355, Note_off_c, 0, 70, 68
1, 463365, Note_on_c, 0, 58, 68
1, 463370, Note_on_c, 0, 67, 86
1, 463378, Note_off_c, 0, 72, 39
1, 463393, Note_off_c, 0, 61, 63
1, 463397, Control_c, 0, 64, 80
1, 463411, Control_c, 0, 64, 74
1, 463426, Note_off_c, 0, 58, 65
1, 463426, Control_c, 0, 64, 62
1, 463430, Note_off_c, 0, 67, 56
1, 463431, Note_on_c, 0, 55, 78
1, 463434, Note_on_c, 0, 64, 81
1, 463441, Control_c, 0, 64, 0
1, 463465, Note_off_c, 0, 64, 62
1, 463494, Note_on_c, 0, 70, 95
1, 463499, Note_on_c, 0, 61, 91
1, 463500, Control_c, 0, 64, 65
1, 463503, Note_off_c, 0, 55, 62
1, 463515, Control_c, 0, 64, 77
1, 463530, Control_c, 0, 64, 89
1, 463545, Control_c, 0, 64, 101
1, 463546, Note_on_c, 0, 67, 79
1, 463551, Note_on_c, 0, 58, 74
1, 463551, Note_off_c, 0, 61, 64
1, 463559, Control_c, 0, 64, 103
1, 463598, Note_off_c, 0, 70, 60
1, 463607, Note_on_c, 0, 64, 88
1, 463613, Note_on_c, 0, 54, 55
1, 463619, Note_off_c, 0, 67, 61
1, 463632, Note_on_c, 0, 55, 67
1, 463637, Note_off_c, 0, 58, 63
1, 463644, Note_off_c, 0, 54, 50
1, 463674, Note_on_c, 0, 61, 90
1, 463678, Note_off_c, 0, 64, 62
1, 463678, Control_c, 0, 64, 99
1, 463679, Note_off_c, 0, 55, 65
1, 463693, Control_c, 0, 64, 86
1, 463708, Note_off_c, 0, 61, 67
1, 463708, Control_c, 0, 64, 69
1, 463729, Control_c, 0, 64, 0
1, 463747, Note_on_c, 0, 58, 89
1, 463750, Note_on_c, 0, 67, 91
1, 463774, Control_c, 0, 64, 66
1, 463789, Control_c, 0, 64, 76
1, 463802, Note_off_c, 0, 58, 66
1, 463805, Control_c, 0, 64, 83
1, 463810, Note_on_c, 0, 64, 72
1, 463816, Note_on_c, 0, 55, 72
1, 463820, Control_c, 0, 64, 85
1, 463849, Note_off_c, 0, 67, 60
1, 463849, Control_c, 0, 64, 86
1, 463866, Note_on_c, 0, 52, 78
1, 463867, Note_on_c, 0, 61, 92
1, 463878, Note_off_c, 0, 64, 64
1, 463878, Control_c, 0, 64, 87
1, 463893, Note_off_c, 0, 55, 64
1, 463893, Control_c, 0, 64, 87
1, 463926, Note_off_c, 0, 61, 63
1, 463940, Note_off_c, 0, 52, 65
1, 463942, Note_on_c, 0, 49, 80
1, 463950, Note_on_c, 0, 58, 80
1, 463953, Control_c, 0, 64, 86
1, 463968, Control_c, 0, 64, 79
1, 463975, Note_off_c, 0, 58, 68
1, 463983, Control_c, 0, 64, 66
1, 463998, Control_c, 0, 64, 0
1, 464007, Note_on_c, 0, 55, 88
1, 464018, Note_on_c, 0, 64, 77
1, 464018, Note_on_c, 0, 62, 80
1, 464033, Note_off_c, 0, 49, 58
1, 464042, Control_c, 0, 64, 61
1, 464057, Control_c, 0, 64, 70
1, 464072, Control_c, 0, 64, 76
1, 464078, Note_on_c, 0, 61, 84
1, 464085, Note_on_c, 0, 52, 83
1, 464086, Control_c, 0, 64, 80
1, 464090, Note_off_c, 0, 55, 54
1, 464101, Control_c, 0, 64, 81
1, 464108, Note_off_c, 0, 62, 59
1, 464111, Note_off_c, 0, 64, 61
1, 464116, Control_c, 0, 64, 83
1, 464131, Control_c, 0, 64, 83
1, 464146, Note_on_c, 0, 58, 80
1, 464146, Control_c, 0, 64, 84
1, 464160, Control_c, 0, 64, 85
1, 464166, Note_off_c, 0, 61, 62
1, 464182, Note_off_c, 0, 52, 65
1, 464188, Note_on_c, 0, 49, 63
1, 464204, Control_c, 0, 64, 83
1, 464217, Note_on_c, 0, 55, 87
1, 464219, Control_c, 0, 64, 79
1, 464227, Note_off_c, 0, 58, 61
1, 464231, Note_off_c, 0, 49, 62
1, 464234, Control_c, 0, 64, 74
1, 464249, Control_c, 0, 64, 73
1, 464254, Note_off_c, 0, 55, 65
1, 464256, Note_on_c, 0, 52, 92
1, 464264, Control_c, 0, 64, 76
1, 464278, Control_c, 0, 64, 83
1, 464287, Note_on_c, 0, 61, 91
1, 464293, Control_c, 0, 64, 92
1, 464308, Control_c, 0, 64, 101
1, 464323, Control_c, 0, 64, 106
1, 464337, Note_on_c, 0, 49, 87
1, 464338, Control_c, 0, 64, 107
1, 464344, Note_on_c, 0, 58, 81
1, 464374, Note_off_c, 0, 52, 62
1, 464403, Note_off_c, 0, 61, 60
1, 464403, Note_on_c, 0, 56, 70
1, 464412, Control_c, 0, 64, 107
1, 464418, Note_on_c, 0, 55, 82
1, 464437, Note_off_c, 0, 58, 57
1, 464442, Control_c, 0, 64, 108
1, 464457, Control_c, 0, 64, 110
1, 464478, Control_c, 0, 64, 112
1, 464489, Note_on_c, 0, 52, 86
1, 464494, Note_off_c, 0, 56, 29
1, 464494, Control_c, 0, 64, 113
1, 464501, Note_off_c, 0, 49, 62
1, 464501, Note_off_c, 0, 55, 62
1, 464510, Note_on_c, 0, 46, 36
1, 464536, Note_off_c, 0, 52, 67
1, 464539, Control_c, 0, 64, 113
1, 464546, Note_off_c, 0, 46, 46
1, 464553, Control_c, 0, 64, 104
1, 464558, Note_on_c, 0, 38, 100
1, 464568, Control_c, 0, 64, 86
1, 464570, Note_on_c, 0, 64, 93
1, 464583, Control_c, 0, 64, 64
1, 464598, Control_c, 0, 64, 0
1, 464639, Note_on_c, 0, 61, 79
1, 464671, Note_off_c, 0, 64, 63
1, 464675, Note_on_c, 0, 58, 75
1, 464733, Note_on_c, 0, 55, 76
1, 464744, Note_off_c, 0, 61, 58
1, 464771, Note_off_c, 0, 58, 64
1, 464800, Note_on_c, 0, 52, 78
1, 464811, Note_off_c, 0, 55, 62
1, 464832, Note_on_c, 0, 46, 86
1, 464837, Note_off_c, 0, 52, 67
1, 464844, Note_on_c, 0, 49, 89
1, 464931, Note_on_c, 0, 52, 81
1, 464973, Note_off_c, 0, 52, 68
1, 464978, Note_on_c, 0, 55, 70
1, 465018, Note_on_c, 0, 58, 73
1, 465059, Note_off_c, 0, 55, 64
1, 465065, Note_off_c, 0, 58, 67
1, 465069, Note_on_c, 0, 61, 79
1, 465106, Note_off_c, 0, 61, 65
1, 465151, Note_on_c, 0, 64, 81
1, 465200, Note_on_c, 0, 67, 86
1, 465208, Note_off_c, 0, 64, 64
1, 465243, Control_c, 0, 64, 64
1, 465253, Note_on_c, 0, 70, 76
1, 465258, Control_c, 0, 64, 72
1, 465273, Control_c, 0, 64, 82
1, 465288, Control_c, 0, 64, 90
1, 465295, Note_off_c, 0, 67, 59
1, 465302, Control_c, 0, 64, 96
1, 465308, Note_on_c, 0, 73, 82
1, 465308, Note_off_c, 0, 70, 67
1, 465317, Control_c, 0, 64, 103
1, 465332, Control_c, 0, 64, 109
1, 465347, Note_off_c, 0, 73, 62
1, 465347, Control_c, 0, 64, 115
1, 465362, Control_c, 0, 64, 124
1, 465376, Control_c, 0, 64, 127
1, 465387, Note_on_c, 0, 76, 84
1, 465431, Note_on_c, 0, 79, 88
1, 465446, Note_off_c, 0, 76, 64
1, 465476, Note_on_c, 0, 82, 75
1, 465506, Note_on_c, 0, 83, 70
1, 465507, Note_off_c, 0, 38, 54
1, 465517, Note_off_c, 0, 82, 43
1, 465526, Note_off_c, 0, 79, 61
1, 465540, Note_on_c, 0, 85, 66
1, 465541, Note_off_c, 0, 83, 61
1, 465545, Note_off_c, 0, 46, 57
1, 465557, Note_off_c, 0, 85, 64
1, 465566, Note_off_c, 0, 49, 55
1, 465582, Note_on_c, 0, 86, 26
1, 465604, Note_on_c, 0, 88, 93
1, 465620, Note_off_c, 0, 86, 50
1, 465657, Note_on_c, 0, 91, 88
1, 465687, Note_off_c, 0, 88, 57
1, 465703, Note_on_c, 0, 94, 77
1, 465717, Note_on_c, 0, 97, 88
1, 465731, Note_off_c, 0, 91, 61
1, 465752, Note_off_c, 0, 94, 66
1, 465760, Note_on_c, 0, 96, 88
1, 465773, Note_on_c, 0, 98, 100
1, 465773, Note_on_c, 0, 100, 102
1, 465800, Note_off_c, 0, 96, 64
1, 465801, Note_off_c, 0, 97, 63
1, 466072, Note_off_c, 0, 100, 54
1, 466075, Note_off_c, 0, 98, 53
1, 466555, Control_c, 0, 64, 123
1, 466570, Control_c, 0, 64, 120
1, 466585, Control_c, 0, 64, 118
1, 466600, Control_c, 0, 64, 116
1, 466615, Control_c, 0, 64, 114
1, 466630, Control_c, 0, 64, 112
1, 466645, Control_c, 0, 64, 110
1, 466660, Control_c, 0, 64, 107
1, 466674, Control_c, 0, 64, 105
1, 466689, Control_c, 0, 64, 103
1, 466704, Control_c, 0, 64, 102
1, 466726, Control_c, 0, 64, 101
1, 466741, Control_c, 0, 64, 99
1, 466755, Control_c, 0, 64, 98
1, 466770, Control_c, 0, 64, 96
1, 466785, Control_c, 0, 64, 95
1, 466800, Control_c, 0, 64, 94
1, 466815, Control_c, 0, 64, 93
1, 466829, Control_c, 0, 64, 92
1, 466844, Control_c, 0, 64, 91
1, 466859, Control_c, 0, 64, 90
1, 466889, Control_c, 0, 64, 90
1, 466904, Control_c, 0, 64, 89
1, 466919, Control_c, 0, 64, 89
1, 466934, Control_c, 0, 64, 88
1, 466963, Control_c, 0, 64, 88
1, 467008, Control_c, 0, 64, 87
1, 467097, Control_c, 0, 64, 87
1, 467112, Control_c, 0, 64, 86
1, 467127, Control_c, 0, 64, 85
1, 467142, Control_c, 0, 64, 84
1, 467157, Control_c, 0, 64, 83
1, 467171, Control_c, 0, 64, 80
1, 467175, Note_on_c, 0, 61, 86
1, 467186, Note_on_c, 0, 49, 77
1, 467186, Control_c, 0, 64, 76
1, 467201, Control_c, 0, 64, 71
1, 467216, Control_c, 0, 64, 66
1, 467230, Control_c, 0, 64, 55
1, 467245, Control_c, 0, 64, 0
1, 467490, Control_c, 0, 64, 37
1, 467504, Control_c, 0, 64, 63
1, 467519, Control_c, 0, 64, 69
1, 467534, Control_c, 0, 64, 73
1, 467549, Control_c, 0, 64, 78
1, 467564, Control_c, 0, 64, 82
1, 467578, Control_c, 0, 64, 85
1, 467593, Control_c, 0, 64, 87
1, 467608, Control_c, 0, 64, 89
1, 467622, Control_c, 0, 64, 90
1, 467637, Control_c, 0, 64, 90
1, 467857, Note_off_c, 0, 49, 47
1, 467861, Control_c, 0, 64, 90
1, 467891, Control_c, 0, 64, 89
1, 467906, Control_c, 0, 64, 88
1, 467920, Control_c, 0, 64, 87
1, 467935, Control_c, 0, 64, 85
1, 467950, Control_c, 0, 64, 82
1, 467950, Note_off_c, 0, 61, 48
1, 467952, Note_on_c, 0, 62, 64
1, 467965, Control_c, 0, 64, 77
1, 467966, Note_on_c, 0, 50, 56
1, 467980, Control_c, 0, 64, 72
1, 467994, Control_c, 0, 64, 64
1, 468009, Control_c, 0, 64, 16
1, 468024, Control_c, 0, 64, 0
1, 468157, Control_c, 0, 64, 57
1, 468172, Control_c, 0, 64, 66
1, 468187, Control_c, 0, 64, 69
1, 468201, Control_c, 0, 64, 73
1, 468224, Control_c, 0, 64, 77
1, 468239, Control_c, 0, 64, 82
1, 468253, Control_c, 0, 64, 86
1, 468268, Control_c, 0, 64, 90
1, 468283, Control_c, 0, 64, 91
1, 468298, Control_c, 0, 64, 93
1, 468313, Control_c, 0, 64, 93
1, 468327, Control_c, 0, 64, 94
1, 468358, Note_off_c, 0, 62, 50
1, 468361, Note_off_c, 0, 50, 36
1, 468579, Control_c, 0, 64, 94
1, 468610, Control_c, 0, 64, 93
1, 468639, Control_c, 0, 64, 92
1, 468654, Control_c, 0, 64, 92
1, 468669, Control_c, 0, 64, 91
1, 468684, Control_c, 0, 64, 89
1, 468699, Control_c, 0, 64, 88
1, 468713, Control_c, 0, 64, 85
1, 468728, Control_c, 0, 64, 83
1, 468743, Control_c, 0, 64, 79
1, 468753, Note_on_c, 0, 62, 52
1, 468758, Control_c, 0, 64, 75
1, 468762, Note_on_c, 0, 50, 41
1, 468764, Note_on_c, 0, 58, 53
1, 468773, Control_c, 0, 64, 69
1, 468776, Note_on_c, 0, 43, 32
1, 468778, Note_on_c, 0, 31, 39
1, 468788, Control_c, 0, 64, 61
1, 468803, Control_c, 0, 64, 0
1, 468988, Control_c, 0, 64, 56
1, 469002, Control_c, 0, 64, 66
1, 469017, Control_c, 0, 64, 69
1, 469032, Control_c, 0, 64, 72
1, 469047, Control_c, 0, 64, 76
1, 469062, Control_c, 0, 64, 79
1, 469076, Control_c, 0, 64, 82
1, 469091, Control_c, 0, 64, 85
1, 469106, Control_c, 0, 64, 87
1, 469121, Control_c, 0, 64, 89
1, 469136, Control_c, 0, 64, 90
1, 469150, Control_c, 0, 64, 92
1, 469165, Control_c, 0, 64, 92
1, 469180, Control_c, 0, 64, 93
1, 469181, Note_off_c, 0, 50, 38
1, 469194, Note_off_c, 0, 62, 35
1, 469229, Note_off_c, 0, 58, 36
1, 469231, Note_off_c, 0, 31, 40
1, 469235, Note_off_c, 0, 43, 42
1, 469477, Control_c, 0, 64, 92
1, 469506, Control_c, 0, 64, 92
1, 469521, Control_c, 0, 64, 91
1, 469536, Control_c, 0, 64, 91
1, 469551, Control_c, 0, 64, 90
1, 469566, Control_c, 0, 64, 89
1, 469581, Control_c, 0, 64, 88
1, 469596, Control_c, 0, 64, 86
1, 469598, Note_on_c, 0, 62, 47
1, 469611, Control_c, 0, 64, 84
1, 469614, Note_on_c, 0, 50, 38
1, 469614, Note_on_c, 0, 41, 39
1, 469614, Note_on_c, 0, 57, 43
1, 469623, Note_on_c, 0, 29, 35
1, 469625, Control_c, 0, 64, 81
1, 469640, Control_c, 0, 64, 78
1, 469655, Control_c, 0, 64, 75
1, 469670, Control_c, 0, 64, 70
1, 469685, Control_c, 0, 64, 64
1, 469699, Control_c, 0, 64, 37
1, 469721, Control_c, 0, 64, 0
1, 469868, Control_c, 0, 64, 53
1, 469883, Control_c, 0, 64, 63
1, 469897, Control_c, 0, 64, 67
1, 469912, Control_c, 0, 64, 71
1, 469927, Control_c, 0, 64, 75
1, 469942, Control_c, 0, 64, 78
1, 469957, Control_c, 0, 64, 81
1, 469971, Control_c, 0, 64, 84
1, 469986, Control_c, 0, 64, 86
1, 470001, Control_c, 0, 64, 88
1, 470016, Control_c, 0, 64, 89
1, 470031, Control_c, 0, 64, 90
1, 470046, Control_c, 0, 64, 91
1, 470072, Note_off_c, 0, 50, 35
1, 470076, Control_c, 0, 64, 91
1, 470087, Note_off_c, 0, 62, 28
1, 470091, Control_c, 0, 64, 92
1, 470103, Note_off_c, 0, 41, 45
1, 470108, Note_off_c, 0, 29, 41
1, 470314, Note_off_c, 0, 57, 33
1, 470328, Control_c, 0, 64, 91
1, 470388, Control_c, 0, 64, 91
1, 470432, Control_c, 0, 64, 90
1, 470446, Control_c, 0, 64, 90
1, 470469, Control_c, 0, 64, 89
1, 470484, Control_c, 0, 64, 89
1, 470499, Control_c, 0, 64, 88
1, 470514, Control_c, 0, 64, 87
1, 470528, Control_c, 0, 64, 86
1, 470543, Control_c, 0, 64, 85
1, 470558, Control_c, 0, 64, 83
1, 470573, Control_c, 0, 64, 81
1, 470582, Note_on_c, 0, 62, 40
1, 470588, Control_c, 0, 64, 78
1, 470591, Note_on_c, 0, 55, 41
1, 470597, Note_on_c, 0, 50, 30
1, 470601, Note_on_c, 0, 28, 37
1, 470602, Control_c, 0, 64, 75
1, 470606, Note_on_c, 0, 40, 30
1, 470617, Control_c, 0, 64, 70
1, 470632, Control_c, 0, 64, 64
1, 470646, Control_c, 0, 64, 46
1, 470661, Control_c, 0, 64, 0
1, 470913, Control_c, 0, 64, 28
1, 470928, Control_c, 0, 64, 59
1, 470943, Control_c, 0, 64, 65
1, 470958, Control_c, 0, 64, 67
1, 470972, Control_c, 0, 64, 69
1, 470988, Control_c, 0, 64, 71
1, 470988, Control_c, 0, 67, 8
1, 471003, Control_c, 0, 64, 73
1, 471003, Control_c, 0, 67, 12
1, 471018, Control_c, 0, 64, 76
1, 471018, Control_c, 0, 67, 15
1, 471033, Control_c, 0, 64, 78
1, 471033, Control_c, 0, 67, 19
1, 471047, Control_c, 0, 64, 80
1, 471047, Control_c, 0, 67, 23
1, 471062, Control_c, 0, 64, 82
1, 471062, Control_c, 0, 67, 28
1, 471077, Control_c, 0, 64, 83
1, 471077, Control_c, 0, 67, 34
1, 471092, Control_c, 0, 64, 84
1, 471092, Control_c, 0, 67, 41
1, 471107, Control_c, 0, 64, 86
1, 471107, Control_c, 0, 67, 47
1, 471122, Control_c, 0, 64, 87
1, 471122, Control_c, 0, 67, 53
1, 471137, Control_c, 0, 64, 88
1, 471137, Control_c, 0, 67, 57
1, 471151, Control_c, 0, 64, 88
1, 471151, Control_c, 0, 67, 59
1, 471161, Note_off_c, 0, 50, 37
1, 471166, Control_c, 0, 67, 60
1, 471176, Note_off_c, 0, 62, 37
1, 471210, Control_c, 0, 67, 60
1, 471221, Note_off_c, 0, 55, 42
1, 471233, Control_c, 0, 67, 61
1, 471235, Note_off_c, 0, 40, 35
1, 471248, Control_c, 0, 67, 62
1, 471253, Note_off_c, 0, 28, 37
1, 471263, Control_c, 0, 67, 62
1, 471515, Control_c, 0, 64, 88
1, 471559, Control_c, 0, 64, 87
1, 471618, Control_c, 0, 64, 87
1, 471662, Control_c, 0, 64, 86
1, 471677, Control_c, 0, 64, 86
1, 471707, Control_c, 0, 64, 85
1, 471722, Control_c, 0, 64, 84
1, 471736, Control_c, 0, 64, 83
1, 471736, Control_c, 0, 67, 62
1, 471749, Note_on_c, 0, 53, 38
1, 471751, Control_c, 0, 64, 80
1, 471766, Control_c, 0, 64, 75
1, 471772, Note_on_c, 0, 26, 34
1, 471773, Note_on_c, 0, 38, 26
1, 471781, Control_c, 0, 64, 68
1, 471797, Control_c, 0, 64, 50
1, 471811, Control_c, 0, 64, 0
1, 471930, Control_c, 0, 67, 61
1, 471967, Control_c, 0, 64, 62
1, 471982, Control_c, 0, 64, 68
1, 471997, Control_c, 0, 64, 71
1, 471997, Control_c, 0, 67, 61
1, 472007, Note_on_c, 0, 62, 42
1, 472012, Control_c, 0, 64, 75
1, 472026, Control_c, 0, 64, 78
1, 472041, Control_c, 0, 64, 81
1, 472056, Control_c, 0, 64, 83
1, 472056, Control_c, 0, 67, 60
1, 472071, Control_c, 0, 64, 86
1, 472086, Control_c, 0, 64, 87
1, 472100, Control_c, 0, 64, 89
1, 472115, Control_c, 0, 64, 90
1, 472130, Control_c, 0, 64, 91
1, 472145, Control_c, 0, 64, 92
1, 472160, Control_c, 0, 64, 93
1, 472160, Control_c, 0, 67, 60
1, 472174, Control_c, 0, 64, 94
1, 472189, Control_c, 0, 64, 95
1, 472204, Control_c, 0, 64, 96
1, 472219, Control_c, 0, 64, 97
1, 472234, Control_c, 0, 64, 98
1, 472249, Control_c, 0, 64, 99
1, 472279, Control_c, 0, 64, 99
1, 472471, Control_c, 0, 67, 59
1, 472481, Note_on_c, 0, 69, 62
1, 472805, Control_c, 0, 67, 60
1, 472835, Control_c, 0, 67, 60
1, 472849, Control_c, 0, 67, 61
1, 472864, Control_c, 0, 67, 61
1, 472894, Control_c, 0, 67, 62
1, 472938, Control_c, 0, 67, 62
1, 472997, Control_c, 0, 67, 63
1, 473027, Control_c, 0, 67, 63
1, 473101, Control_c, 0, 67, 64
1, 473128, Note_off_c, 0, 53, 40
1, 473146, Control_c, 0, 67, 64
1, 473160, Control_c, 0, 67, 68
1, 473175, Control_c, 0, 67, 71
1, 473190, Control_c, 0, 67, 75
1, 473205, Control_c, 0, 67, 79
1, 473220, Control_c, 0, 67, 82
1, 473234, Control_c, 0, 67, 85
1, 473249, Control_c, 0, 67, 86
1, 473279, Control_c, 0, 67, 87
1, 473294, Control_c, 0, 67, 89
1, 473308, Control_c, 0, 67, 93
1, 473323, Control_c, 0, 67, 97
1, 473338, Control_c, 0, 67, 99
1, 473353, Control_c, 0, 67, 100
1, 473472, Note_off_c, 0, 69, 34
1, 473553, Control_c, 0, 67, 100
1, 473657, Control_c, 0, 67, 101
1, 473671, Control_c, 0, 67, 101
1, 473701, Control_c, 0, 67, 104
1, 473715, Note_off_c, 0, 62, 31
1, 473716, Control_c, 0, 67, 106
1, 473731, Control_c, 0, 67, 108
1, 473745, Control_c, 0, 67, 109
1, 473760, Control_c, 0, 67, 111
1, 473775, Control_c, 0, 67, 114
1, 473790, Control_c, 0, 67, 116
1, 473805, Control_c, 0, 67, 118
1, 473820, Control_c, 0, 67, 120
1, 473835, Control_c, 0, 67, 122
1, 473850, Control_c, 0, 67, 123
1, 473864, Control_c, 0, 67, 124
1, 473879, Control_c, 0, 67, 124
1, 473883, Note_off_c, 0, 38, 33
1, 473894, Control_c, 0, 67, 125
1, 473900, Note_off_c, 0, 26, 41
1, 473909, Control_c, 0, 67, 126
1, 473924, Control_c, 0, 67, 127
1, 474555, Control_c, 0, 64, 99
1, 474569, Control_c, 0, 64, 98
1, 474595, Note_on_c, 0, 65, 48
1, 474599, Control_c, 0, 64, 97
1, 474605, Note_on_c, 0, 26, 34
1, 474610, Note_on_c, 0, 53, 38
1, 474613, Control_c, 0, 64, 97
1, 474619, Note_on_c, 0, 38, 24
1, 474628, Control_c, 0, 64, 95
1, 474636, Note_on_c, 0, 57, 31
1, 474639, Note_on_c, 0, 62, 32
1, 474643, Control_c, 0, 64, 93
1, 474658, Control_c, 0, 64, 90
1, 474673, Control_c, 0, 64, 87
1, 474687, Control_c, 0, 64, 84
1, 474702, Control_c, 0, 64, 80
1, 474717, Control_c, 0, 64, 76
1, 474732, Control_c, 0, 64, 72
1, 474747, Control_c, 0, 64, 68
1, 474762, Control_c, 0, 64, 63
1, 474777, Control_c, 0, 64, 48
1, 474791, Control_c, 0, 64, 0
1, 475051, Control_c, 0, 64, 16
1, 475066, Control_c, 0, 64, 38
1, 475081, Control_c, 0, 64, 50
1, 475096, Control_c, 0, 64, 57
1, 475110, Control_c, 0, 64, 60
1, 475125, Control_c, 0, 64, 61
1, 475140, Control_c, 0, 64, 62
1, 475155, Control_c, 0, 64, 63
1, 475170, Control_c, 0, 64, 64
1, 475185, Control_c, 0, 64, 65
1, 475200, Control_c, 0, 64, 67
1, 475215, Control_c, 0, 64, 68
1, 475230, Control_c, 0, 64, 69
1, 475244, Control_c, 0, 64, 70
1, 475259, Control_c, 0, 64, 71
1, 475274, Control_c, 0, 64, 73
1, 475289, Control_c, 0, 64, 74
1, 475304, Control_c, 0, 64, 75
1, 475318, Control_c, 0, 64, 77
1, 475333, Control_c, 0, 64, 78
1, 475348, Control_c, 0, 64, 79
1, 475362, Control_c, 0, 64, 80
1, 475377, Control_c, 0, 64, 81
1, 475392, Control_c, 0, 64, 82
1, 475407, Control_c, 0, 64, 83
1, 475422, Control_c, 0, 64, 84
1, 475436, Control_c, 0, 64, 86
1, 475451, Control_c, 0, 64, 87
1, 475466, Control_c, 0, 64, 88
1, 475481, Control_c, 0, 64, 89
1, 475496, Control_c, 0, 64, 90
1, 475510, Control_c, 0, 64, 91
1, 475525, Control_c, 0, 64, 92
1, 475540, Control_c, 0, 64, 92
1, 475555, Control_c, 0, 64, 93
1, 475569, Control_c, 0, 64, 94
1, 475599, Control_c, 0, 64, 94
1, 475614, Control_c, 0, 64, 95
1, 475629, Control_c, 0, 64, 95
1, 475644, Control_c, 0, 64, 96
1, 475674, Control_c, 0, 64, 97
1, 475689, Control_c, 0, 64, 97
1, 475710, Control_c, 0, 64, 98
1, 475740, Control_c, 0, 64, 98
1, 475958, Note_off_c, 0, 65, 39
1, 475970, Note_off_c, 0, 53, 29
1, 476084, Note_off_c, 0, 62, 29
1, 476153, Note_off_c, 0, 57, 23
1, 476191, Note_off_c, 0, 26, 38
1, 476234, Note_off_c, 0, 38, 28
1, 476653, Control_c, 0, 64, 98
1, 476830, Control_c, 0, 64, 97
1, 476979, Control_c, 0, 64, 97
1, 477082, Control_c, 0, 64, 96
1, 477171, Control_c, 0, 64, 96
1, 477186, Control_c, 0, 64, 95
1, 477223, Control_c, 0, 64, 95
1, 477268, Note_on_c, 0, 62, 31
1, 477268, Control_c, 0, 64, 94
1, 477281, Note_on_c, 0, 26, 30
1, 477285, Note_on_c, 0, 53, 25
1, 477286, Note_on_c, 0, 57, 26
1, 477289, Note_on_c, 0, 38, 21
1, 477297, Control_c, 0, 64, 93
1, 477312, Control_c, 0, 64, 92
1, 477327, Control_c, 0, 64, 90
1, 477341, Control_c, 0, 64, 89
1, 477356, Control_c, 0, 64, 88
1, 477371, Control_c, 0, 64, 87
1, 477387, Control_c, 0, 64, 85
1, 477402, Control_c, 0, 64, 84
1, 477417, Control_c, 0, 64, 81
1, 477431, Control_c, 0, 64, 77
1, 477446, Control_c, 0, 64, 74
1, 477461, Control_c, 0, 64, 70
1, 477476, Control_c, 0, 64, 66
1, 477491, Control_c, 0, 64, 63
1, 477505, Control_c, 0, 64, 59
1, 477520, Control_c, 0, 64, 58
1, 477565, Control_c, 0, 64, 58
1, 477580, Control_c, 0, 64, 57
1, 477594, Control_c, 0, 64, 56
1, 477609, Control_c, 0, 64, 54
1, 477624, Control_c, 0, 64, 54
1, 477653, Control_c, 0, 64, 53
1, 477683, Control_c, 0, 64, 53
1, 477728, Control_c, 0, 64, 53
1, 477743, Control_c, 0, 64, 54
1, 477757, Control_c, 0, 64, 54
1, 477772, Control_c, 0, 64, 55
1, 477787, Control_c, 0, 64, 55
1, 477802, Control_c, 0, 64, 56
1, 477817, Control_c, 0, 64, 58
1, 477831, Control_c, 0, 64, 58
1, 477846, Control_c, 0, 64, 59
1, 477861, Control_c, 0, 64, 60
1, 477876, Control_c, 0, 64, 61
1, 477891, Control_c, 0, 64, 62
1, 477905, Control_c, 0, 64, 63
1, 477920, Control_c, 0, 64, 64
1, 477935, Control_c, 0, 64, 65
1, 477957, Control_c, 0, 64, 66
1, 477972, Control_c, 0, 64, 67
1, 477987, Control_c, 0, 64, 67
1, 478002, Control_c, 0, 64, 68
1, 478017, Control_c, 0, 64, 69
1, 478031, Control_c, 0, 64, 71
1, 478046, Control_c, 0, 64, 72
1, 478061, Control_c, 0, 64, 73
1, 478076, Control_c, 0, 64, 73
1, 478091, Control_c, 0, 64, 74
1, 478105, Control_c, 0, 64, 75
1, 478120, Control_c, 0, 64, 75
1, 478135, Control_c, 0, 64, 76
1, 478150, Control_c, 0, 64, 76
1, 478164, Control_c, 0, 64, 77
1, 478180, Control_c, 0, 64, 78
1, 478195, Control_c, 0, 64, 78
1, 478210, Control_c, 0, 64, 79
1, 478225, Control_c, 0, 64, 80
1, 478240, Control_c, 0, 64, 81
1, 478269, Control_c, 0, 64, 81
1, 478284, Control_c, 0, 64, 82
1, 478299, Control_c, 0, 64, 82
1, 478314, Control_c, 0, 64, 83
1, 478328, Control_c, 0, 64, 83
1, 478343, Control_c, 0, 64, 84
1, 478358, Control_c, 0, 64, 85
1, 478373, Control_c, 0, 64, 85
1, 478432, Control_c, 0, 64, 86
1, 479077, Control_c, 0, 64, 85
1, 479299, Control_c, 0, 64, 85
1, 479470, Control_c, 0, 64, 84
1, 479632, Control_c, 0, 64, 84
1, 479782, Control_c, 0, 64, 83
1, 479841, Control_c, 0, 64, 83
1, 479856, Control_c, 0, 64, 82
1, 479886, Control_c, 0, 64, 82
1, 479900, Control_c, 0, 64, 81
1, 479915, Control_c, 0, 64, 81
1, 479930, Control_c, 0, 64, 80
1, 479945, Control_c, 0, 64, 80
1, 479974, Control_c, 0, 64, 79
1, 479989, Control_c, 0, 64, 79
1, 480004, Control_c, 0, 64, 78
1, 480019, Control_c, 0, 64, 77
1, 480033, Control_c, 0, 64, 76
1, 480048, Control_c, 0, 64, 75
1, 480063, Control_c, 0, 64, 75
1, 480078, Control_c, 0, 64, 74
1, 480093, Control_c, 0, 64, 73
1, 480107, Control_c, 0, 64, 72
1, 480122, Control_c, 0, 64, 71
1, 480137, Control_c, 0, 64, 70
1, 480151, Control_c, 0, 64, 69
1, 480166, Control_c, 0, 64, 69
1, 480204, Control_c, 0, 64, 68
1, 480219, Control_c, 0, 64, 67
1, 480233, Control_c, 0, 64, 67
1, 480263, Control_c, 0, 64, 66
1, 480293, Control_c, 0, 64, 66
1, 480307, Control_c, 0, 64, 65
1, 480337, Control_c, 0, 64, 65
1, 480337, Control_c, 0, 67, 124
1, 480351, Control_c, 0, 67, 120
1, 480366, Control_c, 0, 67, 116
1, 480381, Control_c, 0, 67, 112
1, 480396, Control_c, 0, 67, 106
1, 480411, Control_c, 0, 64, 64
1, 480411, Control_c, 0, 67, 99
1, 480426, Control_c, 0, 64, 64
1, 480426, Control_c, 0, 67, 89
1, 480440, Control_c, 0, 64, 63
1, 480440, Control_c, 0, 67, 75
1, 480455, Control_c, 0, 67, 57
1, 480470, Control_c, 0, 67, 42
1, 480485, Control_c, 0, 67, 31
1, 480500, Control_c, 0, 67, 23
1, 480515, Control_c, 0, 67, 18
1, 480530, Control_c, 0, 64, 63
1, 480530, Control_c, 0, 67, 14
1, 480545, Control_c, 0, 67, 8
1, 480559, Control_c, 0, 67, 0
1, 480634, Control_c, 0, 64, 62
1, 480709, Control_c, 0, 64, 62
1, 480738, Control_c, 0, 64, 61
1, 480753, Control_c, 0, 64, 60
1, 480768, Control_c, 0, 64, 57
1, 480782, Control_c, 0, 64, 52
1, 480797, Control_c, 0, 64, 39
1, 480800, Note_off_c, 0, 57, 3
1, 480812, Control_c, 0, 64, 0
1, 480850, Note_off_c, 0, 62, 28
1, 480873, Note_off_c, 0, 53, 35
1, 480919, Note_off_c, 0, 26, 43
1, 480973, Note_off_c, 0, 38, 26
1, 483880, Control_c, 0, 64, 27
1, 483895, Control_c, 0, 64, 41
1, 483910, Control_c, 0, 64, 46
1, 483925, Control_c, 0, 64, 49
1, 483947, Control_c, 0, 64, 46
1, 483962, Control_c, 0, 64, 41
1, 483992, Control_c, 0, 64, 46
1, 484006, Control_c, 0, 64, 54
1, 484021, Control_c, 0, 64, 59
1, 484036, Control_c, 0, 64, 59
1, 484110, Control_c, 0, 64, 59
1, 484125, Control_c, 0, 64, 58
1, 484140, Control_c, 0, 64, 58
1, 484154, Control_c, 0, 64, 54
1, 484169, Control_c, 0, 64, 50
1, 484184, Control_c, 0, 64, 49
1, 484199, Control_c, 0, 64, 51
1, 484214, Control_c, 0, 64, 51
1, 484229, Control_c, 0, 64, 52
1, 484259, Control_c, 0, 64, 51
1, 484273, Control_c, 0, 64, 51
1, 484288, Control_c, 0, 64, 51
1, 484303, Control_c, 0, 64, 53
1, 484318, Control_c, 0, 64, 54
1, 484332, Control_c, 0, 64, 55
1, 484347, Control_c, 0, 64, 56
1, 484362, Control_c, 0, 64, 56
1, 484392, Control_c, 0, 64, 54
1, 484421, Control_c, 0, 64, 55
1, 484466, Control_c, 0, 64, 54
1, 484480, Control_c, 0, 64, 54
1, 484495, Control_c, 0, 64, 53
1, 484614, Control_c, 0, 64, 54
1, 484644, Control_c, 0, 64, 54
1, 484659, Control_c, 0, 64, 55
1, 484674, Control_c, 0, 64, 55
1, 484696, Control_c, 0, 64, 56
1, 484711, Control_c, 0, 64, 56
1, 484859, Control_c, 0, 64, 56
1, 484874, Control_c, 0, 64, 55
1, 484889, Control_c, 0, 64, 55
1, 484903, Control_c, 0, 64, 54
1, 484918, Control_c, 0, 64, 54
1, 484933, Control_c, 0, 64, 53
1, 484947, Control_c, 0, 64, 53
1, 484962, Control_c, 0, 64, 52
1, 484977, Control_c, 0, 64, 51
1, 485007, Control_c, 0, 64, 51
1, 485037, Control_c, 0, 64, 52
1, 485111, Control_c, 0, 64, 52
1, 485155, Control_c, 0, 64, 52
1, 485259, Control_c, 0, 64, 52
1, 485274, Control_c, 0, 64, 53
1, 485303, Control_c, 0, 64, 53
1, 485318, Control_c, 0, 64, 54
1, 485333, Control_c, 0, 64, 54
1, 485347, Control_c, 0, 64, 55
1, 485363, Control_c, 0, 64, 56
1, 485378, Control_c, 0, 64, 56
1, 485393, Control_c, 0, 64, 59
1, 485408, Control_c, 0, 64, 61
1, 485423, Control_c, 0, 64, 63
1, 485445, Control_c, 0, 64, 63
1, 485460, Control_c, 0, 64, 64
1, 485475, Control_c, 0, 64, 65
1, 485564, Control_c, 0, 64, 64
1, 485623, Control_c, 0, 64, 64
1, 485682, Control_c, 0, 64, 63
1, 485845, Control_c, 0, 64, 63
1, 486141, Control_c, 0, 64, 62
1, 486172, Control_c, 0, 64, 62
1, 486298, Control_c, 0, 64, 61
1, 486475, Control_c, 0, 64, 61
1, 486623, Control_c, 0, 64, 60
1, 486653, Control_c, 0, 64, 60
1, 486682, Control_c, 0, 64, 59
1, 486727, Control_c, 0, 64, 59
1, 486742, Control_c, 0, 64, 58
1, 486772, Control_c, 0, 64, 58
1, 486786, Control_c, 0, 64, 57
1, 486816, Control_c, 0, 64, 57
1, 486831, Control_c, 0, 64, 56
1, 486860, Control_c, 0, 64, 56
1, 486875, Control_c, 0, 64, 55
1, 486890, Control_c, 0, 64, 54
1, 486919, Control_c, 0, 64, 54
1, 486972, Control_c, 0, 64, 53
1, 487046, Control_c, 0, 64, 53
1, 487106, Control_c, 0, 64, 52
1, 487328, Control_c, 0, 64, 53
1, 487461, Control_c, 0, 64, 52
1, 487565, Control_c, 0, 64, 52
1, 487580, Control_c, 0, 64, 51
1, 487594, Control_c, 0, 64, 50
1, 487609, Control_c, 0, 64, 49
1, 487624, Control_c, 0, 64, 48
1, 487639, Control_c, 0, 64, 47
1, 487654, Control_c, 0, 64, 47
1, 487669, Control_c, 0, 64, 46
1, 487690, Control_c, 0, 64, 45
1, 487706, Control_c, 0, 64, 45
1, 487721, Control_c, 0, 64, 43
1, 487736, Control_c, 0, 64, 42
1, 487750, Control_c, 0, 64, 41
1, 487766, Control_c, 0, 64, 39
1, 487781, Control_c, 0, 64, 37
1, 487796, Control_c, 0, 64, 35
1, 487811, Control_c, 0, 64, 34
1, 487826, Control_c, 0, 64, 33
1, 487855, Control_c, 0, 64, 31
1, 487870, Control_c, 0, 64, 30
1, 487885, Control_c, 0, 64, 28
1, 487900, Control_c, 0, 64, 26
1, 487915, Control_c, 0, 64, 24
1, 487929, Control_c, 0, 64, 21
1, 487944, Control_c, 0, 64, 18
1, 487959, Control_c, 0, 64, 13
1, 487973, Control_c, 0, 64, 0
1, 487973, End_track
0, 0, End_of_file
