0, 0, Header, 0, 1, 384
1, 0, Start_track
1, 0, Title_t, "Barcarolle--Julia Kociuban      "
1, 0, Text_t, "2008 e-Piano Junior Competition recital round"
1, 0, Text_t, "recorded July 2008"
1, 0, Text_t, "http://www.piano-e-competition.com/"
1, 0, Text_t, "File processed for distribution by software from Zenph Studios, Inc., http://www.zenph.com"
1, 0, Instrument_name_t, "Yamaha Disklavier Pro Mark IV concert grand piano, model DCFIIISM4PRO"
1, 0, Sequencer_specific, 39, 67, 113, 0, 1, 0, 1, 0, 66, 97, 114, 99, 97, 114, 111, 108, 108, 101, 32, 32, 32, 32, 32, 32, 74, 117, 108, 105, 97, 32, 75, 111, 99, 105, 117, 98, 97, 110, 32, 32
1, 0, Sequencer_specific, 6, 67, 113, 0, 0, 0, 69
1, 0, System_exclusive, 21, 67, 113, 126, 21, 0, 2, 2, 0, 3, 14, 1, 4, 1, 13, 13, 10, 11, 9, 2, 7, 247
1, 0, Sequencer_specific, 5, 67, 123, 12, 2, 1
1, 0, Tempo, 512820
1, 0, Time_signature, 4, 2, 24, 8
1, 0, System_exclusive, 5, 126, 127, 9, 1, 247
1, 1, System_exclusive, 8, 67, 16, 76, 0, 0, 126, 0, 247
1, 2, System_exclusive, 8, 67, 16, 76, 8, 9, 7, 1, 247
1, 3, Control_c, 0, 0, 0
1, 3, Control_c, 1, 0, 0
1, 3, Control_c, 2, 0, 0
1, 3, Control_c, 3, 0, 0
1, 3, Control_c, 4, 0, 0
1, 3, Control_c, 5, 0, 0
1, 3, Control_c, 6, 0, 0
1, 3, Control_c, 7, 0, 0
1, 3, Control_c, 8, 0, 0
1, 3, Control_c, 9, 0, 127
1, 3, Control_c, 10, 0, 0
1, 3, Control_c, 11, 0, 0
1, 3, Control_c, 12, 0, 0
1, 3, Control_c, 13, 0, 0
1, 3, Control_c, 14, 0, 0
1, 3, Control_c, 15, 0, 0
1, 4, Control_c, 0, 32, 0
1, 4, Control_c, 1, 32, 0
1, 4, Control_c, 2, 32, 0
1, 4, Control_c, 3, 32, 0
1, 4, Control_c, 4, 32, 0
1, 4, Control_c, 5, 32, 0
1, 4, Control_c, 6, 32, 0
1, 4, Control_c, 7, 32, 0
1, 4, Control_c, 8, 32, 0
1, 4, Control_c, 9, 32, 0
1, 4, Control_c, 10, 32, 0
1, 4, Control_c, 11, 32, 0
1, 4, Control_c, 12, 32, 0
1, 4, Control_c, 13, 32, 0
1, 4, Control_c, 14, 32, 0
1, 4, Control_c, 15, 32, 0
1, 5, Program_c, 0, 0
1, 5, Program_c, 1, 0
1, 5, Program_c, 2, 0
1, 5, Program_c, 3, 0
1, 5, Program_c, 4, 0
1, 5, Program_c, 5, 0
1, 5, Program_c, 6, 0
1, 5, Program_c, 7, 0
1, 5, Program_c, 8, 0
1, 5, Program_c, 9, 0
1, 5, Program_c, 10, 0
1, 5, Program_c, 11, 0
1, 5, Program_c, 12, 0
1, 5, Program_c, 13, 0
1, 5, Program_c, 14, 0
1, 5, Program_c, 15, 0
1, 6, Control_c, 0, 7, 100
1, 6, Control_c, 1, 7, 100
1, 6, Control_c, 2, 7, 100
1, 6, Control_c, 3, 7, 100
1, 6, Control_c, 4, 7, 100
1, 6, Control_c, 5, 7, 100
1, 6, Control_c, 6, 7, 100
1, 6, Control_c, 7, 7, 100
1, 6, Control_c, 8, 7, 100
1, 6, Control_c, 9, 7, 100
1, 6, Control_c, 10, 7, 100
1, 6, Control_c, 11, 7, 100
1, 6, Control_c, 12, 7, 100
1, 6, Control_c, 13, 7, 100
1, 6, Control_c, 14, 7, 100
1, 6, Control_c, 15, 7, 100
1, 1129, Note_on_c, 0, 37, 74
1, 1133, Note_on_c, 0, 25, 76
1, 1208, Control_c, 0, 64, 13
1, 1223, Control_c, 0, 64, 31
1, 1238, Control_c, 0, 64, 40
1, 1252, Control_c, 0, 64, 47
1, 1267, Control_c, 0, 64, 52
1, 1282, Control_c, 0, 64, 56
1, 1297, Control_c, 0, 64, 59
1, 1312, Control_c, 0, 64, 63
1, 1326, Control_c, 0, 64, 64
1, 1341, Control_c, 0, 64, 67
1, 1356, Control_c, 0, 64, 71
1, 1371, Control_c, 0, 64, 75
1, 1386, Control_c, 0, 64, 79
1, 1400, Control_c, 0, 64, 82
1, 1415, Control_c, 0, 64, 86
1, 1430, Control_c, 0, 64, 89
1, 1445, Control_c, 0, 64, 93
1, 1460, Control_c, 0, 64, 96
1, 1475, Control_c, 0, 64, 100
1, 1490, Control_c, 0, 64, 103
1, 1505, Control_c, 0, 64, 106
1, 1517, Note_off_c, 0, 25, 62
1, 1519, Control_c, 0, 64, 109
1, 1534, Control_c, 0, 64, 112
1, 1548, Note_off_c, 0, 37, 62
1, 1549, Control_c, 0, 64, 114
1, 1564, Control_c, 0, 64, 117
1, 1579, Control_c, 0, 64, 118
1, 1593, Control_c, 0, 64, 119
1, 2542, Note_on_c, 0, 80, 79
1, 2554, Note_on_c, 0, 75, 60
1, 2555, Note_on_c, 0, 71, 55
1, 2885, Control_c, 0, 64, 119
1, 2944, Control_c, 0, 64, 120
1, 3062, Control_c, 0, 64, 120
1, 3106, Control_c, 0, 64, 121
1, 3411, Control_c, 0, 64, 121
1, 3544, Control_c, 0, 64, 122
1, 3618, Control_c, 0, 64, 122
1, 3811, Control_c, 0, 67, 8
1, 3826, Control_c, 0, 67, 12
1, 3828, Note_on_c, 0, 68, 49
1, 3840, Control_c, 0, 67, 16
1, 3855, Control_c, 0, 67, 19
1, 3870, Control_c, 0, 67, 22
1, 3885, Control_c, 0, 67, 26
1, 3900, Control_c, 0, 67, 28
1, 3922, Control_c, 0, 67, 31
1, 3937, Control_c, 0, 67, 33
1, 3952, Control_c, 0, 67, 35
1, 3967, Control_c, 0, 67, 35
1, 4085, Control_c, 0, 67, 35
1, 4131, Control_c, 0, 64, 123
1, 4219, Control_c, 0, 67, 34
1, 4234, Control_c, 0, 67, 34
1, 4264, Control_c, 0, 67, 33
1, 4293, Control_c, 0, 67, 33
1, 4328, Note_on_c, 0, 77, 57
1, 4367, Control_c, 0, 67, 32
1, 4369, Note_off_c, 0, 71, 24
1, 4375, Note_off_c, 0, 75, 55
1, 4387, Note_on_c, 0, 61, 32
1, 4503, Note_off_c, 0, 68, 42
1, 4560, Control_c, 0, 67, 33
1, 4731, Control_c, 0, 67, 32
1, 4760, Control_c, 0, 67, 31
1, 4775, Control_c, 0, 67, 31
1, 4800, Note_on_c, 0, 73, 58
1, 4805, Control_c, 0, 67, 30
1, 4816, Note_off_c, 0, 77, 56
1, 4819, Control_c, 0, 67, 30
1, 4828, Note_on_c, 0, 70, 41
1, 4834, Control_c, 0, 67, 29
1, 4849, Control_c, 0, 67, 28
1, 4864, Control_c, 0, 67, 27
1, 4879, Control_c, 0, 67, 27
1, 4894, Control_c, 0, 67, 26
1, 4909, Control_c, 0, 67, 26
1, 4924, Control_c, 0, 67, 25
1, 4939, Control_c, 0, 67, 24
1, 4954, Control_c, 0, 67, 21
1, 4969, Control_c, 0, 67, 18
1, 4983, Control_c, 0, 67, 15
1, 4991, Note_off_c, 0, 61, 20
1, 4998, Control_c, 0, 67, 13
1, 5013, Control_c, 0, 67, 10
1, 5028, Control_c, 0, 64, 123
1, 5028, Control_c, 0, 67, 9
1, 5043, Control_c, 0, 67, 8
1, 5058, Control_c, 0, 64, 124
1, 5058, Control_c, 0, 67, 0
1, 5088, Control_c, 0, 64, 124
1, 5102, Control_c, 0, 64, 125
1, 5117, Control_c, 0, 64, 125
1, 5147, Control_c, 0, 64, 126
1, 5156, Note_on_c, 0, 78, 70
1, 5174, Note_on_c, 0, 75, 53
1, 5176, Control_c, 0, 64, 126
1, 5191, Control_c, 0, 64, 127
1, 5192, Note_on_c, 0, 66, 41
1, 5197, Note_off_c, 0, 70, 59
1, 5219, Note_off_c, 0, 80, 55
1, 5230, Note_off_c, 0, 73, 60
1, 5235, Control_c, 0, 64, 127
1, 5460, Note_on_c, 0, 80, 70
1, 5468, Note_on_c, 0, 61, 44
1, 5472, Note_off_c, 0, 75, 56
1, 5484, Note_on_c, 0, 70, 51
1, 5486, Note_off_c, 0, 66, 50
1, 5507, Note_off_c, 0, 78, 57
1, 5633, Note_off_c, 0, 70, 51
1, 5716, Note_on_c, 0, 78, 73
1, 5738, Note_on_c, 0, 68, 48
1, 5747, Note_on_c, 0, 71, 48
1, 5830, Note_off_c, 0, 80, 62
1, 5880, Note_off_c, 0, 71, 58
1, 5946, Note_on_c, 0, 77, 72
1, 5948, Note_off_c, 0, 68, 63
1, 5949, Note_on_c, 0, 73, 64
1, 5952, Note_on_c, 0, 65, 51
1, 5964, Note_off_c, 0, 61, 61
1, 5975, Note_off_c, 0, 65, 62
1, 5980, Note_off_c, 0, 78, 57
1, 6152, Note_off_c, 0, 77, 59
1, 6156, Note_on_c, 0, 78, 72
1, 6167, Note_on_c, 0, 49, 47
1, 6167, Note_on_c, 0, 68, 58
1, 6173, Note_off_c, 0, 73, 61
1, 6228, Control_c, 0, 64, 127
1, 6242, Control_c, 0, 64, 126
1, 6257, Control_c, 0, 64, 125
1, 6272, Note_off_c, 0, 49, 34
1, 6272, Control_c, 0, 64, 124
1, 6302, Control_c, 0, 64, 123
1, 6316, Control_c, 0, 64, 122
1, 6331, Control_c, 0, 64, 122
1, 6346, Control_c, 0, 64, 121
1, 6361, Control_c, 0, 64, 119
1, 6376, Control_c, 0, 64, 117
1, 6390, Control_c, 0, 64, 114
1, 6405, Control_c, 0, 64, 111
1, 6417, Note_on_c, 0, 75, 68
1, 6420, Control_c, 0, 64, 107
1, 6431, Note_on_c, 0, 70, 56
1, 6435, Control_c, 0, 64, 102
1, 6438, Note_on_c, 0, 66, 48
1, 6450, Control_c, 0, 64, 95
1, 6465, Control_c, 0, 64, 86
1, 6477, Note_off_c, 0, 68, 33
1, 6480, Control_c, 0, 64, 76
1, 6495, Control_c, 0, 64, 70
1, 6508, Note_off_c, 0, 78, 31
1, 6510, Control_c, 0, 64, 68
1, 6525, Control_c, 0, 64, 68
1, 6539, Control_c, 0, 64, 70
1, 6554, Control_c, 0, 64, 72
1, 6569, Control_c, 0, 64, 75
1, 6584, Control_c, 0, 64, 79
1, 6599, Control_c, 0, 64, 85
1, 6614, Control_c, 0, 64, 91
1, 6629, Control_c, 0, 64, 96
1, 6644, Control_c, 0, 64, 100
1, 6658, Control_c, 0, 64, 104
1, 6664, Note_on_c, 0, 71, 61
1, 6668, Note_off_c, 0, 66, 63
1, 6673, Control_c, 0, 64, 106
1, 6676, Note_on_c, 0, 63, 45
1, 6681, Note_off_c, 0, 70, 52
1, 6688, Control_c, 0, 64, 108
1, 6701, Note_off_c, 0, 63, 59
1, 6703, Control_c, 0, 64, 109
1, 6718, Control_c, 0, 64, 109
1, 6836, Control_c, 0, 64, 109
1, 6851, Control_c, 0, 64, 108
1, 6856, Note_off_c, 0, 71, 60
1, 6859, Note_on_c, 0, 77, 72
1, 6865, Control_c, 0, 64, 108
1, 6868, Note_on_c, 0, 49, 46
1, 6880, Note_on_c, 0, 65, 37
1, 6880, Control_c, 0, 64, 107
1, 6895, Control_c, 0, 64, 106
1, 6900, Note_off_c, 0, 75, 36
1, 6918, Control_c, 0, 64, 105
1, 6919, Note_off_c, 0, 65, 49
1, 6922, Note_off_c, 0, 49, 59
1, 6933, Control_c, 0, 64, 104
1, 6947, Control_c, 0, 64, 104
1, 6962, Control_c, 0, 64, 103
1, 6991, Control_c, 0, 64, 102
1, 7006, Control_c, 0, 64, 102
1, 7021, Control_c, 0, 64, 101
1, 7051, Control_c, 0, 64, 100
1, 7065, Control_c, 0, 64, 99
1, 7080, Control_c, 0, 64, 98
1, 7095, Control_c, 0, 64, 96
1, 7099, Note_on_c, 0, 75, 67
1, 7109, Note_on_c, 0, 68, 51
1, 7110, Control_c, 0, 64, 93
1, 7119, Note_on_c, 0, 65, 48
1, 7122, Note_off_c, 0, 77, 46
1, 7125, Control_c, 0, 64, 89
1, 7139, Control_c, 0, 64, 84
1, 7154, Control_c, 0, 64, 77
1, 7169, Control_c, 0, 64, 69
1, 7184, Control_c, 0, 64, 57
1, 7198, Control_c, 0, 64, 0
1, 7243, Control_c, 0, 64, 43
1, 7258, Control_c, 0, 64, 56
1, 7273, Control_c, 0, 64, 63
1, 7288, Control_c, 0, 64, 68
1, 7303, Control_c, 0, 64, 75
1, 7318, Control_c, 0, 64, 82
1, 7324, Note_on_c, 0, 73, 63
1, 7326, Note_off_c, 0, 68, 61
1, 7326, Note_off_c, 0, 75, 60
1, 7332, Note_on_c, 0, 70, 54
1, 7333, Control_c, 0, 64, 89
1, 7335, Note_on_c, 0, 61, 47
1, 7335, Note_off_c, 0, 65, 38
1, 7348, Control_c, 0, 64, 93
1, 7362, Control_c, 0, 64, 95
1, 7377, Control_c, 0, 64, 97
1, 7392, Control_c, 0, 64, 97
1, 7431, Note_off_c, 0, 61, 60
1, 7530, Note_off_c, 0, 73, 60
1, 7534, Note_off_c, 0, 70, 61
1, 7543, Note_on_c, 0, 75, 62
1, 7554, Note_on_c, 0, 49, 45
1, 7554, Note_on_c, 0, 65, 49
1, 7629, Control_c, 0, 64, 97
1, 7665, Note_off_c, 0, 49, 55
1, 7666, Control_c, 0, 64, 96
1, 7695, Control_c, 0, 64, 96
1, 7710, Control_c, 0, 64, 95
1, 7725, Control_c, 0, 64, 95
1, 7740, Control_c, 0, 64, 94
1, 7755, Control_c, 0, 64, 93
1, 7769, Control_c, 0, 64, 91
1, 7777, Note_off_c, 0, 75, 52
1, 7784, Control_c, 0, 64, 89
1, 7796, Note_on_c, 0, 71, 55
1, 7799, Control_c, 0, 64, 86
1, 7809, Note_on_c, 0, 66, 48
1, 7812, Note_on_c, 0, 63, 39
1, 7813, Control_c, 0, 64, 81
1, 7815, Note_off_c, 0, 65, 36
1, 7828, Control_c, 0, 64, 74
1, 7843, Control_c, 0, 64, 67
1, 7858, Control_c, 0, 64, 50
1, 7873, Control_c, 0, 64, 0
1, 7947, Control_c, 0, 64, 48
1, 7961, Control_c, 0, 64, 63
1, 7976, Control_c, 0, 64, 68
1, 7991, Control_c, 0, 64, 73
1, 8006, Control_c, 0, 64, 79
1, 8021, Control_c, 0, 64, 82
1, 8036, Control_c, 0, 64, 84
1, 8040, Note_on_c, 0, 75, 58
1, 8046, Note_off_c, 0, 71, 57
1, 8051, Control_c, 0, 64, 85
1, 8051, Note_on_c, 0, 59, 39
1, 8051, Note_on_c, 0, 68, 49
1, 8060, Note_off_c, 0, 66, 44
1, 8066, Control_c, 0, 64, 86
1, 8081, Control_c, 0, 64, 87
1, 8096, Control_c, 0, 64, 87
1, 8110, Control_c, 0, 64, 88
1, 8111, Note_off_c, 0, 63, 36
1, 8140, Note_off_c, 0, 68, 44
1, 8140, Control_c, 0, 64, 88
1, 8247, Note_off_c, 0, 59, 39
1, 8270, Note_on_c, 0, 73, 62
1, 8290, Note_on_c, 0, 63, 36
1, 8300, Note_on_c, 0, 49, 35
1, 8303, Note_off_c, 0, 75, 54
1, 8318, Control_c, 0, 64, 88
1, 8343, Note_off_c, 0, 73, 59
1, 8348, Note_off_c, 0, 63, 39
1, 8348, Control_c, 0, 64, 87
1, 8377, Control_c, 0, 64, 87
1, 8392, Control_c, 0, 64, 86
1, 8414, Control_c, 0, 64, 86
1, 8429, Control_c, 0, 64, 85
1, 8444, Control_c, 0, 64, 84
1, 8459, Control_c, 0, 64, 83
1, 8474, Control_c, 0, 64, 82
1, 8489, Control_c, 0, 64, 81
1, 8504, Control_c, 0, 64, 80
1, 8518, Control_c, 0, 64, 78
1, 8526, Note_off_c, 0, 49, 31
1, 8533, Control_c, 0, 64, 74
1, 8548, Control_c, 0, 64, 68
1, 8549, Note_on_c, 0, 71, 49
1, 8550, Note_on_c, 0, 61, 43
1, 8551, Note_on_c, 0, 65, 42
1, 8563, Control_c, 0, 64, 57
1, 8578, Control_c, 0, 64, 0
1, 8666, Control_c, 0, 64, 49
1, 8681, Control_c, 0, 64, 64
1, 8696, Control_c, 0, 64, 68
1, 8710, Control_c, 0, 64, 73
1, 8725, Control_c, 0, 64, 78
1, 8740, Control_c, 0, 64, 82
1, 8755, Control_c, 0, 64, 84
1, 8770, Control_c, 0, 64, 87
1, 8781, Note_off_c, 0, 71, 58
1, 8784, Control_c, 0, 64, 89
1, 8795, Note_on_c, 0, 70, 54
1, 8799, Control_c, 0, 64, 90
1, 8802, Note_on_c, 0, 58, 43
1, 8807, Note_on_c, 0, 66, 45
1, 8814, Control_c, 0, 64, 91
1, 8817, Note_off_c, 0, 61, 43
1, 8822, Note_off_c, 0, 65, 41
1, 8829, Control_c, 0, 64, 92
1, 8844, Control_c, 0, 64, 93
1, 8853, Note_off_c, 0, 66, 44
1, 8874, Control_c, 0, 64, 93
1, 8928, Note_off_c, 0, 58, 48
1, 9043, Note_on_c, 0, 49, 37
1, 9053, Note_off_c, 0, 70, 50
1, 9055, Note_on_c, 0, 71, 53
1, 9065, Note_on_c, 0, 61, 47
1, 9082, Control_c, 0, 64, 93
1, 9112, Control_c, 0, 64, 92
1, 9141, Control_c, 0, 64, 92
1, 9178, Control_c, 0, 64, 91
1, 9207, Control_c, 0, 64, 91
1, 9210, Note_off_c, 0, 49, 41
1, 9222, Control_c, 0, 64, 90
1, 9252, Control_c, 0, 64, 90
1, 9282, Control_c, 0, 64, 89
1, 9297, Control_c, 0, 64, 89
1, 9312, Control_c, 0, 64, 88
1, 9327, Control_c, 0, 64, 87
1, 9328, Note_off_c, 0, 61, 37
1, 9341, Note_off_c, 0, 71, 36
1, 9341, Control_c, 0, 64, 85
1, 9356, Control_c, 0, 64, 84
1, 9369, Note_on_c, 0, 68, 51
1, 9371, Control_c, 0, 64, 82
1, 9383, Note_on_c, 0, 63, 42
1, 9385, Control_c, 0, 64, 80
1, 9396, Note_on_c, 0, 59, 37
1, 9400, Control_c, 0, 64, 76
1, 9415, Control_c, 0, 64, 71
1, 9430, Control_c, 0, 64, 64
1, 9445, Control_c, 0, 64, 0
1, 9563, Control_c, 0, 64, 53
1, 9578, Control_c, 0, 64, 65
1, 9592, Control_c, 0, 64, 70
1, 9607, Control_c, 0, 64, 74
1, 9622, Control_c, 0, 64, 77
1, 9636, Note_off_c, 0, 63, 41
1, 9637, Control_c, 0, 64, 81
1, 9652, Control_c, 0, 64, 83
1, 9666, Control_c, 0, 64, 85
1, 9682, Control_c, 0, 64, 87
1, 9697, Control_c, 0, 64, 88
1, 9712, Control_c, 0, 64, 89
1, 9716, Note_on_c, 0, 71, 46
1, 9727, Control_c, 0, 64, 89
1, 9730, Note_on_c, 0, 56, 41
1, 9739, Note_on_c, 0, 65, 37
1, 9755, Note_off_c, 0, 59, 36
1, 9771, Control_c, 0, 67, 9
1, 9786, Control_c, 0, 67, 12
1, 9790, Note_off_c, 0, 56, 55
1, 9801, Note_off_c, 0, 65, 63
1, 9801, Control_c, 0, 67, 16
1, 9815, Control_c, 0, 67, 21
1, 9830, Control_c, 0, 67, 26
1, 9836, Note_off_c, 0, 68, 43
1, 9845, Control_c, 0, 67, 31
1, 9860, Control_c, 0, 67, 33
1, 9875, Control_c, 0, 67, 34
1, 9953, Note_off_c, 0, 71, 38
1, 9971, Control_c, 0, 67, 33
1, 10001, Control_c, 0, 67, 33
1, 10060, Control_c, 0, 67, 32
1, 10075, Control_c, 0, 64, 89
1, 10105, Control_c, 0, 64, 88
1, 10105, Control_c, 0, 67, 32
1, 10134, Control_c, 0, 64, 88
1, 10134, Control_c, 0, 67, 31
1, 10149, Control_c, 0, 64, 87
1, 10164, Control_c, 0, 64, 86
1, 10179, Control_c, 0, 64, 85
1, 10194, Control_c, 0, 64, 84
1, 10208, Control_c, 0, 64, 83
1, 10208, Control_c, 0, 67, 31
1, 10223, Control_c, 0, 64, 83
1, 10238, Control_c, 0, 64, 82
1, 10253, Control_c, 0, 64, 82
1, 10268, Control_c, 0, 64, 80
1, 10275, Note_on_c, 0, 70, 43
1, 10282, Control_c, 0, 64, 79
1, 10297, Control_c, 0, 64, 77
1, 10302, Note_on_c, 0, 59, 30
1, 10312, Control_c, 0, 64, 74
1, 10327, Control_c, 0, 64, 72
1, 10337, Note_on_c, 0, 37, 17
1, 10342, Control_c, 0, 64, 69
1, 10356, Control_c, 0, 64, 66
1, 10356, Control_c, 0, 67, 30
1, 10371, Control_c, 0, 64, 63
1, 10386, Control_c, 0, 64, 58
1, 10400, Control_c, 0, 64, 50
1, 10415, Control_c, 0, 64, 45
1, 10430, Control_c, 0, 64, 36
1, 10445, Control_c, 0, 64, 0
1, 10535, Control_c, 0, 67, 30
1, 10579, Control_c, 0, 67, 29
1, 10661, Control_c, 0, 67, 29
1, 10676, Control_c, 0, 64, 49
1, 10691, Control_c, 0, 64, 61
1, 10706, Control_c, 0, 64, 64
1, 10720, Control_c, 0, 64, 65
1, 10735, Control_c, 0, 64, 67
1, 10750, Control_c, 0, 64, 70
1, 10765, Control_c, 0, 64, 72
1, 10780, Control_c, 0, 64, 75
1, 10794, Control_c, 0, 64, 78
1, 10809, Control_c, 0, 64, 80
1, 10824, Control_c, 0, 64, 82
1, 10838, Control_c, 0, 64, 83
1, 10853, Control_c, 0, 64, 84
1, 10860, Note_off_c, 0, 37, 39
1, 10868, Control_c, 0, 64, 85
1, 10883, Control_c, 0, 64, 86
1, 10883, Control_c, 0, 67, 28
1, 10886, Note_off_c, 0, 59, 38
1, 10899, Note_off_c, 0, 70, 36
1, 11031, Control_c, 0, 67, 29
1, 11105, Control_c, 0, 67, 29
1, 11135, Control_c, 0, 64, 85
1, 11164, Control_c, 0, 64, 85
1, 11179, Control_c, 0, 64, 84
1, 11194, Control_c, 0, 64, 84
1, 11209, Control_c, 0, 64, 83
1, 11238, Control_c, 0, 64, 83
1, 11253, Control_c, 0, 64, 82
1, 11268, Control_c, 0, 64, 81
1, 11284, Control_c, 0, 64, 80
1, 11299, Control_c, 0, 64, 79
1, 11314, Control_c, 0, 64, 78
1, 11328, Control_c, 0, 64, 78
1, 11343, Control_c, 0, 64, 77
1, 11358, Control_c, 0, 64, 76
1, 11373, Control_c, 0, 64, 75
1, 11388, Control_c, 0, 64, 74
1, 11410, Control_c, 0, 64, 73
1, 11425, Control_c, 0, 64, 71
1, 11440, Control_c, 0, 64, 70
1, 11440, Control_c, 0, 67, 30
1, 11454, Control_c, 0, 64, 68
1, 11469, Control_c, 0, 64, 67
1, 11484, Control_c, 0, 64, 66
1, 11484, Control_c, 0, 67, 30
1, 11499, Control_c, 0, 64, 65
1, 11514, Control_c, 0, 64, 65
1, 11529, Control_c, 0, 64, 64
1, 11529, Control_c, 0, 67, 31
1, 11543, Control_c, 0, 64, 64
1, 11558, Control_c, 0, 64, 63
1, 11573, Control_c, 0, 64, 63
1, 11588, Control_c, 0, 64, 62
1, 11603, Control_c, 0, 64, 60
1, 11617, Control_c, 0, 64, 57
1, 11632, Control_c, 0, 64, 53
1, 11647, Control_c, 0, 64, 48
1, 11661, Control_c, 0, 64, 44
1, 11676, Control_c, 0, 64, 40
1, 11691, Control_c, 0, 64, 30
1, 11706, Control_c, 0, 64, 0
1, 11735, Control_c, 0, 67, 31
1, 11780, Control_c, 0, 67, 32
1, 11810, Control_c, 0, 67, 32
1, 11825, Control_c, 0, 67, 33
1, 11840, Control_c, 0, 67, 33
1, 11869, Control_c, 0, 67, 34
1, 11884, Control_c, 0, 67, 34
1, 11914, Control_c, 0, 67, 35
1, 11958, Control_c, 0, 67, 35
1, 12077, Control_c, 0, 64, 16
1, 12077, Control_c, 0, 67, 35
1, 12092, Control_c, 0, 64, 46
1, 12107, Control_c, 0, 64, 54
1, 12122, Control_c, 0, 64, 58
1, 12122, Control_c, 0, 67, 34
1, 12137, Control_c, 0, 64, 60
1, 12158, Control_c, 0, 64, 61
1, 12158, Control_c, 0, 67, 34
1, 12173, Control_c, 0, 64, 62
1, 12188, Control_c, 0, 64, 63
1, 12188, Control_c, 0, 67, 33
1, 12203, Control_c, 0, 64, 63
1, 12218, Control_c, 0, 67, 33
1, 12233, Control_c, 0, 64, 64
1, 12248, Control_c, 0, 64, 64
1, 12263, Control_c, 0, 64, 65
1, 12277, Control_c, 0, 64, 65
1, 12277, Control_c, 0, 67, 32
1, 12292, Control_c, 0, 64, 66
1, 12307, Control_c, 0, 64, 67
1, 12322, Control_c, 0, 64, 68
1, 12337, Control_c, 0, 64, 69
1, 12343, Note_on_c, 0, 42, 30
1, 12351, Control_c, 0, 64, 70
1, 12351, Control_c, 0, 67, 32
1, 12366, Control_c, 0, 64, 71
1, 12381, Control_c, 0, 64, 72
1, 12396, Control_c, 0, 64, 73
1, 12410, Control_c, 0, 64, 75
1, 12425, Control_c, 0, 64, 76
1, 12440, Control_c, 0, 64, 78
1, 12440, Control_c, 0, 67, 31
1, 12455, Control_c, 0, 64, 80
1, 12470, Control_c, 0, 64, 83
1, 12484, Control_c, 0, 64, 86
1, 12499, Control_c, 0, 64, 88
1, 12499, Control_c, 0, 67, 31
1, 12514, Control_c, 0, 64, 91
1, 12529, Control_c, 0, 64, 93
1, 12529, Control_c, 0, 67, 30
1, 12544, Control_c, 0, 64, 95
1, 12558, Control_c, 0, 64, 97
1, 12558, Control_c, 0, 67, 30
1, 12573, Control_c, 0, 64, 98
1, 12573, Control_c, 0, 67, 29
1, 12588, Control_c, 0, 64, 99
1, 12603, Control_c, 0, 64, 100
1, 12603, Control_c, 0, 67, 29
1, 12618, Control_c, 0, 64, 101
1, 12632, Control_c, 0, 64, 102
1, 12632, Control_c, 0, 67, 28
1, 12647, Control_c, 0, 64, 102
1, 12662, Control_c, 0, 64, 103
1, 12680, Note_on_c, 0, 49, 42
1, 12692, Control_c, 0, 64, 103
1, 12698, Note_off_c, 0, 42, 37
1, 12751, Control_c, 0, 67, 29
1, 12781, Control_c, 0, 67, 29
1, 12796, Control_c, 0, 67, 30
1, 12810, Control_c, 0, 67, 30
1, 12825, Control_c, 0, 67, 31
1, 12840, Control_c, 0, 67, 32
1, 12855, Control_c, 0, 67, 33
1, 12862, Note_off_c, 0, 49, 47
1, 12870, Control_c, 0, 67, 33
1, 12878, Note_on_c, 0, 56, 45
1, 12886, Control_c, 0, 67, 35
1, 12907, Control_c, 0, 67, 35
1, 12937, Control_c, 0, 64, 103
1, 12937, Control_c, 0, 67, 36
1, 12952, Control_c, 0, 67, 36
1, 12967, Control_c, 0, 64, 102
1, 12967, Control_c, 0, 67, 37
1, 12981, Control_c, 0, 64, 102
1, 12981, Control_c, 0, 67, 40
1, 12996, Control_c, 0, 64, 101
1, 12996, Control_c, 0, 67, 45
1, 13011, Control_c, 0, 64, 100
1, 13011, Control_c, 0, 67, 49
1, 13026, Control_c, 0, 64, 99
1, 13026, Control_c, 0, 67, 50
1, 13041, Control_c, 0, 64, 97
1, 13041, Control_c, 0, 67, 52
1, 13056, Control_c, 0, 64, 96
1, 13056, Control_c, 0, 67, 53
1, 13066, Note_off_c, 0, 56, 55
1, 13071, Control_c, 0, 64, 93
1, 13071, Control_c, 0, 67, 53
1, 13086, Control_c, 0, 64, 90
1, 13097, Note_on_c, 0, 54, 50
1, 13100, Control_c, 0, 64, 88
1, 13115, Control_c, 0, 64, 85
1, 13130, Control_c, 0, 64, 83
1, 13145, Control_c, 0, 64, 79
1, 13157, Note_off_c, 0, 54, 59
1, 13160, Control_c, 0, 64, 75
1, 13174, Control_c, 0, 64, 70
1, 13189, Control_c, 0, 64, 63
1, 13204, Control_c, 0, 64, 0
1, 13212, Note_on_c, 0, 56, 37
1, 13263, Note_off_c, 0, 56, 59
1, 13293, Control_c, 0, 67, 54
1, 13330, Note_on_c, 0, 58, 35
1, 13352, Control_c, 0, 67, 54
1, 13381, Control_c, 0, 67, 54
1, 13396, Control_c, 0, 67, 53
1, 13411, Control_c, 0, 64, 27
1, 13411, Control_c, 0, 67, 53
1, 13425, Control_c, 0, 64, 56
1, 13440, Control_c, 0, 64, 64
1, 13440, Control_c, 0, 67, 52
1, 13455, Control_c, 0, 64, 68
1, 13470, Control_c, 0, 64, 71
1, 13485, Control_c, 0, 64, 74
1, 13500, Control_c, 0, 64, 77
1, 13515, Control_c, 0, 64, 79
1, 13530, Control_c, 0, 64, 81
1, 13545, Control_c, 0, 64, 81
1, 13551, Note_on_c, 0, 49, 41
1, 13572, Note_off_c, 0, 58, 37
1, 13760, Control_c, 0, 64, 81
1, 13790, Control_c, 0, 64, 80
1, 13790, Control_c, 0, 67, 52
1, 13804, Control_c, 0, 64, 79
1, 13819, Control_c, 0, 64, 78
1, 13834, Control_c, 0, 64, 77
1, 13847, Note_on_c, 0, 42, 34
1, 13849, Control_c, 0, 64, 75
1, 13849, Control_c, 0, 67, 51
1, 13864, Control_c, 0, 64, 73
1, 13878, Control_c, 0, 64, 69
1, 13893, Control_c, 0, 64, 64
1, 13893, Control_c, 0, 67, 51
1, 13895, Note_off_c, 0, 49, 38
1, 13908, Control_c, 0, 64, 42
1, 13923, Control_c, 0, 64, 0
1, 13923, Control_c, 0, 67, 50
1, 13953, Control_c, 0, 67, 50
1, 13968, Control_c, 0, 67, 49
1, 13997, Control_c, 0, 64, 34
1, 14012, Control_c, 0, 64, 57
1, 14012, Control_c, 0, 67, 49
1, 14027, Control_c, 0, 64, 65
1, 14042, Control_c, 0, 64, 70
1, 14056, Control_c, 0, 64, 74
1, 14071, Control_c, 0, 64, 78
1, 14072, Note_on_c, 0, 49, 43
1, 14086, Control_c, 0, 64, 81
1, 14086, Control_c, 0, 67, 48
1, 14096, Note_off_c, 0, 42, 41
1, 14101, Control_c, 0, 64, 82
1, 14116, Control_c, 0, 64, 83
1, 14130, Control_c, 0, 64, 83
1, 14234, Control_c, 0, 64, 83
1, 14248, Note_off_c, 0, 49, 50
1, 14248, Control_c, 0, 67, 49
1, 14263, Control_c, 0, 64, 82
1, 14266, Note_on_c, 0, 56, 51
1, 14278, Control_c, 0, 64, 81
1, 14293, Control_c, 0, 64, 79
1, 14308, Control_c, 0, 64, 78
1, 14323, Control_c, 0, 64, 76
1, 14338, Control_c, 0, 64, 76
1, 14367, Control_c, 0, 64, 75
1, 14382, Control_c, 0, 64, 74
1, 14404, Control_c, 0, 64, 73
1, 14420, Control_c, 0, 64, 71
1, 14435, Control_c, 0, 64, 67
1, 14439, Note_off_c, 0, 56, 57
1, 14450, Control_c, 0, 64, 63
1, 14464, Control_c, 0, 64, 57
1, 14469, Note_on_c, 0, 54, 46
1, 14480, Control_c, 0, 64, 45
1, 14480, Control_c, 0, 67, 48
1, 14495, Control_c, 0, 64, 29
1, 14510, Control_c, 0, 64, 0
1, 14540, Control_c, 0, 67, 49
1, 14542, Note_off_c, 0, 54, 56
1, 14573, Note_on_c, 0, 56, 51
1, 14613, Control_c, 0, 67, 49
1, 14655, Note_off_c, 0, 56, 58
1, 14683, Note_on_c, 0, 58, 40
1, 14791, Control_c, 0, 64, 52
1, 14806, Control_c, 0, 64, 65
1, 14820, Control_c, 0, 64, 69
1, 14835, Control_c, 0, 64, 72
1, 14850, Control_c, 0, 64, 75
1, 14865, Control_c, 0, 64, 78
1, 14880, Control_c, 0, 64, 81
1, 14895, Control_c, 0, 64, 83
1, 14910, Control_c, 0, 64, 84
1, 14919, Note_off_c, 0, 58, 37
1, 14925, Control_c, 0, 67, 49
1, 14945, Note_on_c, 0, 61, 44
1, 14984, Control_c, 0, 67, 48
1, 14990, Note_off_c, 0, 61, 49
1, 15102, Control_c, 0, 64, 83
1, 15117, Control_c, 0, 67, 48
1, 15132, Control_c, 0, 64, 83
1, 15154, Control_c, 0, 64, 82
1, 15169, Control_c, 0, 64, 82
1, 15184, Control_c, 0, 64, 81
1, 15199, Control_c, 0, 64, 81
1, 15213, Control_c, 0, 64, 80
1, 15228, Control_c, 0, 64, 79
1, 15243, Control_c, 0, 64, 78
1, 15258, Control_c, 0, 64, 77
1, 15272, Note_on_c, 0, 42, 35
1, 15273, Control_c, 0, 64, 76
1, 15288, Control_c, 0, 64, 74
1, 15303, Control_c, 0, 64, 72
1, 15318, Control_c, 0, 64, 69
1, 15333, Control_c, 0, 64, 67
1, 15348, Control_c, 0, 64, 63
1, 15363, Control_c, 0, 64, 52
1, 15377, Control_c, 0, 64, 0
1, 15436, Control_c, 0, 64, 34
1, 15436, Control_c, 0, 67, 47
1, 15451, Control_c, 0, 64, 58
1, 15466, Control_c, 0, 64, 65
1, 15481, Control_c, 0, 64, 70
1, 15496, Control_c, 0, 64, 75
1, 15510, Control_c, 0, 64, 81
1, 15518, Note_on_c, 0, 49, 50
1, 15522, Note_off_c, 0, 42, 41
1, 15525, Control_c, 0, 64, 85
1, 15525, Control_c, 0, 67, 47
1, 15540, Control_c, 0, 64, 89
1, 15555, Control_c, 0, 64, 90
1, 15570, Control_c, 0, 64, 91
1, 15599, Control_c, 0, 67, 47
1, 15628, Control_c, 0, 67, 48
1, 15679, Note_off_c, 0, 49, 57
1, 15706, Note_on_c, 0, 56, 44
1, 15733, Control_c, 0, 64, 91
1, 15747, Control_c, 0, 64, 90
1, 15762, Control_c, 0, 64, 90
1, 15762, Control_c, 0, 67, 47
1, 15777, Control_c, 0, 64, 89
1, 15777, Control_c, 0, 67, 47
1, 15792, Control_c, 0, 64, 87
1, 15792, Control_c, 0, 67, 46
1, 15807, Control_c, 0, 64, 85
1, 15821, Control_c, 0, 64, 82
1, 15836, Control_c, 0, 64, 80
1, 15851, Control_c, 0, 64, 76
1, 15851, Control_c, 0, 67, 46
1, 15866, Control_c, 0, 64, 71
1, 15881, Control_c, 0, 64, 65
1, 15888, Note_off_c, 0, 56, 50
1, 15902, Control_c, 0, 64, 51
1, 15911, Note_on_c, 0, 54, 47
1, 15917, Control_c, 0, 64, 0
1, 15946, Control_c, 0, 67, 46
1, 15973, Note_off_c, 0, 54, 59
1, 16007, Note_on_c, 0, 56, 49
1, 16035, Control_c, 0, 67, 47
1, 16063, Note_off_c, 0, 56, 58
1, 16112, Note_on_c, 0, 58, 47
1, 16125, Control_c, 0, 64, 60
1, 16125, Control_c, 0, 67, 46
1, 16140, Control_c, 0, 64, 67
1, 16155, Control_c, 0, 64, 70
1, 16170, Control_c, 0, 64, 74
1, 16185, Control_c, 0, 64, 77
1, 16199, Control_c, 0, 64, 80
1, 16214, Control_c, 0, 64, 82
1, 16214, Control_c, 0, 67, 46
1, 16229, Control_c, 0, 64, 83
1, 16244, Control_c, 0, 64, 84
1, 16244, Control_c, 0, 67, 45
1, 16258, Control_c, 0, 64, 85
1, 16273, Control_c, 0, 67, 45
1, 16313, Note_off_c, 0, 58, 58
1, 16325, Note_on_c, 0, 49, 44
1, 16362, Control_c, 0, 67, 45
1, 16406, Control_c, 0, 64, 84
1, 16436, Control_c, 0, 64, 84
1, 16451, Control_c, 0, 64, 83
1, 16466, Control_c, 0, 64, 83
1, 16481, Control_c, 0, 64, 82
1, 16496, Control_c, 0, 64, 82
1, 16511, Control_c, 0, 64, 81
1, 16525, Control_c, 0, 64, 80
1, 16540, Control_c, 0, 64, 78
1, 16540, Control_c, 0, 67, 46
1, 16555, Control_c, 0, 64, 76
1, 16569, Control_c, 0, 64, 73
1, 16583, Note_on_c, 0, 42, 39
1, 16584, Control_c, 0, 64, 68
1, 16599, Control_c, 0, 64, 62
1, 16602, Note_off_c, 0, 49, 39
1, 16614, Control_c, 0, 64, 24
1, 16629, Control_c, 0, 64, 0
1, 16710, Control_c, 0, 67, 45
1, 16725, Control_c, 0, 64, 37
1, 16740, Control_c, 0, 64, 60
1, 16755, Control_c, 0, 64, 66
1, 16755, Control_c, 0, 67, 45
1, 16770, Control_c, 0, 64, 70
1, 16784, Control_c, 0, 64, 73
1, 16799, Control_c, 0, 64, 76
1, 16814, Control_c, 0, 64, 79
1, 16827, Note_on_c, 0, 49, 46
1, 16829, Control_c, 0, 64, 81
1, 16834, Note_off_c, 0, 42, 41
1, 16843, Control_c, 0, 64, 81
1, 16963, Control_c, 0, 67, 45
1, 16992, Control_c, 0, 64, 81
1, 16993, Note_off_c, 0, 49, 59
1, 17007, Control_c, 0, 64, 80
1, 17022, Control_c, 0, 64, 80
1, 17026, Note_on_c, 0, 56, 44
1, 17037, Control_c, 0, 64, 79
1, 17052, Control_c, 0, 64, 78
1, 17066, Control_c, 0, 64, 76
1, 17081, Control_c, 0, 64, 75
1, 17096, Control_c, 0, 64, 75
1, 17111, Control_c, 0, 64, 74
1, 17126, Control_c, 0, 64, 73
1, 17141, Control_c, 0, 64, 72
1, 17155, Control_c, 0, 64, 70
1, 17170, Control_c, 0, 64, 67
1, 17185, Control_c, 0, 64, 65
1, 17199, Control_c, 0, 64, 62
1, 17205, Note_off_c, 0, 56, 56
1, 17214, Control_c, 0, 64, 57
1, 17229, Control_c, 0, 64, 49
1, 17229, Control_c, 0, 67, 46
1, 17243, Note_on_c, 0, 54, 36
1, 17244, Control_c, 0, 64, 26
1, 17259, Control_c, 0, 64, 0
1, 17274, Control_c, 0, 67, 46
1, 17304, Control_c, 0, 67, 47
1, 17318, Control_c, 0, 67, 47
1, 17333, Note_off_c, 0, 54, 49
1, 17333, Control_c, 0, 67, 48
1, 17348, Control_c, 0, 67, 48
1, 17348, Note_on_c, 0, 56, 41
1, 17363, Control_c, 0, 67, 49
1, 17399, Control_c, 0, 67, 49
1, 17414, Control_c, 0, 67, 50
1, 17429, Control_c, 0, 67, 51
1, 17444, Control_c, 0, 67, 51
1, 17458, Note_off_c, 0, 56, 53
1, 17473, Control_c, 0, 67, 52
1, 17479, Note_on_c, 0, 58, 39
1, 17503, Control_c, 0, 67, 52
1, 17563, Control_c, 0, 64, 47
1, 17563, Control_c, 0, 67, 53
1, 17578, Control_c, 0, 64, 64
1, 17593, Control_c, 0, 64, 67
1, 17607, Control_c, 0, 64, 71
1, 17622, Control_c, 0, 64, 75
1, 17637, Control_c, 0, 64, 79
1, 17652, Control_c, 0, 64, 83
1, 17652, Control_c, 0, 67, 53
1, 17667, Control_c, 0, 64, 87
1, 17667, Control_c, 0, 67, 54
1, 17682, Control_c, 0, 64, 90
1, 17682, Control_c, 0, 67, 54
1, 17697, Control_c, 0, 64, 92
1, 17697, Control_c, 0, 67, 55
1, 17710, Note_off_c, 0, 58, 52
1, 17712, Control_c, 0, 64, 93
1, 17712, Control_c, 0, 67, 56
1, 17727, Control_c, 0, 64, 94
1, 17727, Control_c, 0, 67, 62
1, 17739, Note_on_c, 0, 61, 44
1, 17742, Control_c, 0, 67, 67
1, 17757, Control_c, 0, 67, 70
1, 17771, Control_c, 0, 67, 70
1, 17793, Note_off_c, 0, 61, 58
1, 17875, Control_c, 0, 67, 70
1, 17889, Control_c, 0, 67, 69
1, 17919, Control_c, 0, 64, 93
1, 17934, Control_c, 0, 67, 69
1, 17949, Control_c, 0, 64, 93
1, 17963, Control_c, 0, 64, 92
1, 17978, Control_c, 0, 64, 92
1, 17978, Control_c, 0, 67, 68
1, 17993, Control_c, 0, 64, 91
1, 18008, Control_c, 0, 64, 90
1, 18022, Control_c, 0, 64, 88
1, 18022, Control_c, 0, 67, 68
1, 18037, Control_c, 0, 64, 86
1, 18037, Control_c, 0, 67, 67
1, 18052, Control_c, 0, 64, 81
1, 18052, Control_c, 0, 67, 67
1, 18053, Note_on_c, 0, 42, 44
1, 18067, Control_c, 0, 64, 76
1, 18067, Control_c, 0, 67, 66
1, 18082, Control_c, 0, 64, 69
1, 18082, Control_c, 0, 67, 66
1, 18096, Control_c, 0, 64, 61
1, 18096, Control_c, 0, 67, 65
1, 18111, Control_c, 0, 64, 0
1, 18111, Control_c, 0, 67, 64
1, 18126, Control_c, 0, 67, 64
1, 18149, Control_c, 0, 67, 63
1, 18165, Control_c, 0, 67, 62
1, 18209, Control_c, 0, 64, 53
1, 18223, Control_c, 0, 64, 64
1, 18238, Control_c, 0, 64, 68
1, 18253, Control_c, 0, 64, 72
1, 18268, Control_c, 0, 64, 77
1, 18283, Control_c, 0, 64, 81
1, 18297, Control_c, 0, 64, 84
1, 18312, Control_c, 0, 64, 87
1, 18327, Control_c, 0, 64, 90
1, 18327, Control_c, 0, 67, 62
1, 18329, Note_on_c, 0, 49, 46
1, 18340, Note_off_c, 0, 42, 35
1, 18342, Control_c, 0, 64, 92
1, 18356, Control_c, 0, 64, 94
1, 18371, Control_c, 0, 64, 95
1, 18386, Control_c, 0, 64, 95
1, 18386, Control_c, 0, 67, 61
1, 18416, Control_c, 0, 67, 60
1, 18430, Control_c, 0, 67, 60
1, 18445, Control_c, 0, 67, 59
1, 18460, Control_c, 0, 67, 59
1, 18476, Control_c, 0, 67, 58
1, 18491, Control_c, 0, 67, 58
1, 18514, Note_off_c, 0, 49, 56
1, 18544, Note_on_c, 0, 56, 44
1, 18713, Control_c, 0, 67, 57
1, 18824, Note_on_c, 0, 73, 64
1, 18839, Note_on_c, 0, 70, 50
1, 18844, Note_on_c, 0, 54, 33
1, 18846, Control_c, 0, 67, 57
1, 18913, Control_c, 0, 67, 56
1, 18928, Control_c, 0, 67, 54
1, 18943, Control_c, 0, 67, 52
1, 18958, Control_c, 0, 67, 51
1, 18972, Control_c, 0, 67, 51
1, 18987, Control_c, 0, 67, 50
1, 18990, Note_off_c, 0, 54, 34
1, 19002, Control_c, 0, 67, 50
1, 19017, Control_c, 0, 67, 49
1, 19032, Control_c, 0, 67, 48
1, 19046, Control_c, 0, 67, 46
1, 19061, Control_c, 0, 67, 44
1, 19076, Control_c, 0, 67, 41
1, 19090, Note_off_c, 0, 56, 40
1, 19091, Control_c, 0, 67, 38
1, 19106, Control_c, 0, 67, 34
1, 19108, Note_on_c, 0, 58, 44
1, 19120, Control_c, 0, 67, 30
1, 19135, Control_c, 0, 67, 27
1, 19150, Control_c, 0, 67, 25
1, 19165, Control_c, 0, 67, 24
1, 19179, Control_c, 0, 67, 23
1, 19292, Note_off_c, 0, 58, 59
1, 19329, Control_c, 0, 64, 95
1, 19360, Note_on_c, 0, 49, 38
1, 19402, Control_c, 0, 64, 94
1, 19491, Control_c, 0, 64, 94
1, 19521, Control_c, 0, 64, 93
1, 19551, Control_c, 0, 64, 93
1, 19566, Control_c, 0, 64, 92
1, 19581, Control_c, 0, 64, 92
1, 19595, Control_c, 0, 64, 91
1, 19610, Control_c, 0, 64, 91
1, 19625, Control_c, 0, 64, 90
1, 19637, Note_off_c, 0, 49, 38
1, 19638, Note_on_c, 0, 42, 40
1, 19647, Control_c, 0, 64, 89
1, 19661, Control_c, 0, 64, 88
1, 19676, Control_c, 0, 64, 87
1, 19691, Control_c, 0, 64, 86
1, 19706, Control_c, 0, 64, 84
1, 19721, Control_c, 0, 64, 83
1, 19736, Control_c, 0, 64, 80
1, 19750, Control_c, 0, 64, 77
1, 19765, Control_c, 0, 64, 73
1, 19780, Control_c, 0, 64, 66
1, 19794, Control_c, 0, 64, 0
1, 19864, Note_off_c, 0, 70, 52
1, 19866, Note_off_c, 0, 73, 51
1, 19868, Note_off_c, 0, 42, 52
1, 19870, Note_on_c, 0, 72, 56
1, 19883, Control_c, 0, 64, 56
1, 19892, Note_on_c, 0, 69, 41
1, 19898, Control_c, 0, 64, 66
1, 19902, Note_on_c, 0, 49, 35
1, 19913, Control_c, 0, 64, 71
1, 19928, Control_c, 0, 64, 77
1, 19942, Control_c, 0, 64, 82
1, 19942, Control_c, 0, 67, 22
1, 19957, Control_c, 0, 64, 86
1, 19972, Control_c, 0, 64, 89
1, 19987, Control_c, 0, 64, 91
1, 20001, Control_c, 0, 64, 93
1, 20001, Control_c, 0, 67, 22
1, 20016, Control_c, 0, 64, 95
1, 20031, Control_c, 0, 64, 96
1, 20048, Note_off_c, 0, 72, 64
1, 20051, Note_off_c, 0, 69, 56
1, 20065, Note_on_c, 0, 73, 54
1, 20074, Note_on_c, 0, 70, 53
1, 20077, Control_c, 0, 67, 21
1, 20081, Note_off_c, 0, 49, 44
1, 20091, Control_c, 0, 67, 20
1, 20094, Note_on_c, 0, 56, 43
1, 20106, Control_c, 0, 67, 18
1, 20121, Control_c, 0, 67, 18
1, 20180, Note_off_c, 0, 73, 60
1, 20186, Note_on_c, 0, 77, 63
1, 20202, Note_off_c, 0, 70, 49
1, 20210, Control_c, 0, 67, 17
1, 20240, Control_c, 0, 67, 16
1, 20255, Control_c, 0, 67, 15
1, 20270, Control_c, 0, 67, 12
1, 20274, Note_on_c, 0, 75, 67
1, 20284, Control_c, 0, 67, 9
1, 20287, Note_on_c, 0, 71, 47
1, 20298, Note_off_c, 0, 77, 45
1, 20299, Control_c, 0, 67, 0
1, 20299, Note_on_c, 0, 54, 45
1, 20300, Note_off_c, 0, 56, 38
1, 20395, Control_c, 0, 64, 97
1, 20410, Control_c, 0, 64, 97
1, 20421, Note_on_c, 0, 56, 42
1, 20424, Control_c, 0, 64, 98
1, 20439, Control_c, 0, 64, 99
1, 20454, Control_c, 0, 64, 100
1, 20457, Note_off_c, 0, 71, 47
1, 20469, Control_c, 0, 64, 100
1, 20499, Note_on_c, 0, 73, 69
1, 20507, Note_on_c, 0, 70, 58
1, 20519, Note_off_c, 0, 75, 60
1, 20527, Note_on_c, 0, 58, 47
1, 20552, Note_off_c, 0, 70, 59
1, 20598, Note_off_c, 0, 56, 35
1, 20720, Control_c, 0, 64, 100
1, 20735, Note_on_c, 0, 70, 70
1, 20738, Note_on_c, 0, 66, 59
1, 20742, Note_off_c, 0, 73, 58
1, 20744, Note_on_c, 0, 61, 47
1, 20749, Control_c, 0, 64, 99
1, 20760, Note_off_c, 0, 58, 31
1, 20779, Control_c, 0, 64, 99
1, 20781, Note_off_c, 0, 54, 51
1, 20782, Note_off_c, 0, 61, 62
1, 20794, Control_c, 0, 64, 98
1, 20809, Control_c, 0, 64, 98
1, 20824, Control_c, 0, 64, 97
1, 20839, Control_c, 0, 64, 97
1, 20854, Control_c, 0, 64, 96
1, 20869, Control_c, 0, 64, 96
1, 20884, Control_c, 0, 64, 95
1, 20913, Control_c, 0, 64, 95
1, 20928, Control_c, 0, 64, 94
1, 20943, Control_c, 0, 64, 94
1, 20958, Control_c, 0, 64, 93
1, 20973, Control_c, 0, 64, 92
1, 20988, Control_c, 0, 64, 90
1, 21003, Control_c, 0, 64, 89
1, 21018, Control_c, 0, 64, 88
1, 21033, Control_c, 0, 64, 86
1, 21047, Control_c, 0, 64, 83
1, 21062, Control_c, 0, 64, 80
1, 21074, Note_on_c, 0, 78, 67
1, 21077, Control_c, 0, 64, 76
1, 21089, Note_on_c, 0, 75, 58
1, 21092, Control_c, 0, 64, 71
1, 21097, Note_on_c, 0, 42, 33
1, 21097, Note_off_c, 0, 66, 57
1, 21107, Control_c, 0, 64, 64
1, 21120, Note_off_c, 0, 70, 56
1, 21121, Control_c, 0, 64, 20
1, 21143, Control_c, 0, 64, 0
1, 21247, Control_c, 0, 64, 21
1, 21262, Control_c, 0, 64, 62
1, 21277, Control_c, 0, 64, 68
1, 21292, Control_c, 0, 64, 73
1, 21307, Control_c, 0, 64, 77
1, 21322, Control_c, 0, 64, 81
1, 21337, Control_c, 0, 64, 83
1, 21340, Note_off_c, 0, 78, 63
1, 21352, Control_c, 0, 64, 85
1, 21364, Note_off_c, 0, 75, 63
1, 21364, Note_on_c, 0, 70, 63
1, 21366, Control_c, 0, 64, 86
1, 21368, Note_on_c, 0, 66, 62
1, 21381, Control_c, 0, 64, 87
1, 21382, Note_on_c, 0, 49, 45
1, 21396, Control_c, 0, 64, 88
1, 21411, Control_c, 0, 64, 88
1, 21434, Note_off_c, 0, 42, 37
1, 21511, Note_off_c, 0, 70, 51
1, 21546, Note_off_c, 0, 49, 58
1, 21551, Note_on_c, 0, 75, 66
1, 21556, Note_off_c, 0, 66, 39
1, 21578, Note_on_c, 0, 71, 32
1, 21586, Note_on_c, 0, 53, 44
1, 21693, Control_c, 0, 64, 88
1, 21708, Control_c, 0, 64, 87
1, 21730, Note_off_c, 0, 75, 62
1, 21737, Control_c, 0, 64, 87
1, 21742, Note_off_c, 0, 53, 55
1, 21747, Note_on_c, 0, 73, 65
1, 21752, Note_on_c, 0, 70, 62
1, 21772, Note_on_c, 0, 54, 45
1, 21772, Note_off_c, 0, 71, 41
1, 21797, Note_off_c, 0, 70, 60
1, 21827, Note_off_c, 0, 54, 58
1, 21865, Note_on_c, 0, 56, 39
1, 21922, Control_c, 0, 64, 86
1, 21964, Note_off_c, 0, 56, 37
1, 21966, Control_c, 0, 64, 86
1, 21970, Note_off_c, 0, 73, 59
1, 21974, Note_on_c, 0, 61, 53
1, 21975, Note_on_c, 0, 66, 63
1, 21987, Note_on_c, 0, 58, 45
1, 22140, Note_off_c, 0, 58, 48
1, 22174, Control_c, 0, 64, 85
1, 22197, Note_on_c, 0, 71, 62
1, 22209, Note_on_c, 0, 68, 58
1, 22210, Note_on_c, 0, 49, 47
1, 22218, Control_c, 0, 64, 85
1, 22220, Note_off_c, 0, 66, 55
1, 22229, Note_off_c, 0, 61, 50
1, 22262, Control_c, 0, 64, 84
1, 22322, Control_c, 0, 64, 84
1, 22366, Control_c, 0, 64, 83
1, 22381, Control_c, 0, 64, 83
1, 22395, Control_c, 0, 64, 82
1, 22425, Control_c, 0, 64, 81
1, 22440, Control_c, 0, 64, 81
1, 22456, Control_c, 0, 64, 80
1, 22471, Control_c, 0, 64, 79
1, 22485, Control_c, 0, 64, 78
1, 22500, Control_c, 0, 64, 76
1, 22515, Control_c, 0, 64, 75
1, 22530, Control_c, 0, 64, 73
1, 22544, Note_on_c, 0, 70, 56
1, 22545, Control_c, 0, 64, 72
1, 22552, Note_on_c, 0, 42, 33
1, 22559, Control_c, 0, 64, 68
1, 22561, Note_off_c, 0, 71, 54
1, 22562, Note_on_c, 0, 66, 50
1, 22574, Control_c, 0, 64, 63
1, 22589, Control_c, 0, 64, 37
1, 22595, Note_off_c, 0, 49, 39
1, 22604, Control_c, 0, 64, 0
1, 22608, Note_off_c, 0, 68, 37
1, 22760, Control_c, 0, 64, 56
1, 22774, Control_c, 0, 64, 67
1, 22789, Control_c, 0, 64, 72
1, 22804, Control_c, 0, 64, 77
1, 22818, Control_c, 0, 64, 82
1, 22833, Control_c, 0, 64, 86
1, 22841, Note_on_c, 0, 49, 50
1, 22848, Note_off_c, 0, 42, 41
1, 22848, Control_c, 0, 64, 90
1, 22863, Control_c, 0, 64, 94
1, 22878, Control_c, 0, 64, 98
1, 22893, Control_c, 0, 64, 101
1, 22908, Control_c, 0, 64, 102
1, 22923, Control_c, 0, 64, 103
1, 23019, Note_off_c, 0, 49, 61
1, 23042, Note_on_c, 0, 56, 61
1, 23212, Note_off_c, 0, 56, 58
1, 23239, Note_on_c, 0, 64, 76
1, 23252, Note_on_c, 0, 54, 42
1, 23342, Note_on_c, 0, 56, 56
1, 23437, Note_off_c, 0, 64, 63
1, 23474, Note_off_c, 0, 66, 65
1, 23475, Note_on_c, 0, 58, 58
1, 23488, Note_off_c, 0, 70, 63
1, 23623, Note_off_c, 0, 56, 20
1, 23626, Note_off_c, 0, 58, 61
1, 23644, Note_on_c, 0, 61, 50
1, 23657, Note_off_c, 0, 54, 49
1, 23668, Note_off_c, 0, 61, 62
1, 23671, Control_c, 0, 64, 103
1, 23701, Control_c, 0, 64, 102
1, 23707, Note_on_c, 0, 63, 75
1, 23715, Control_c, 0, 64, 102
1, 23730, Control_c, 0, 64, 101
1, 23745, Control_c, 0, 64, 101
1, 23760, Control_c, 0, 64, 100
1, 23775, Control_c, 0, 64, 99
1, 23785, Note_on_c, 0, 71, 71
1, 23790, Control_c, 0, 64, 98
1, 23805, Control_c, 0, 64, 96
1, 23820, Control_c, 0, 64, 95
1, 23834, Control_c, 0, 64, 92
1, 23849, Control_c, 0, 64, 88
1, 23864, Control_c, 0, 64, 83
1, 23879, Control_c, 0, 64, 76
1, 23894, Control_c, 0, 64, 65
1, 23908, Control_c, 0, 64, 0
1, 23915, Note_on_c, 0, 42, 54
1, 24021, Note_on_c, 0, 78, 76
1, 24072, Control_c, 0, 64, 20
1, 24087, Control_c, 0, 64, 66
1, 24096, Note_off_c, 0, 63, 60
1, 24102, Control_c, 0, 64, 72
1, 24117, Control_c, 0, 64, 78
1, 24139, Control_c, 0, 64, 83
1, 24154, Control_c, 0, 64, 88
1, 24169, Control_c, 0, 64, 92
1, 24179, Note_off_c, 0, 42, 61
1, 24184, Control_c, 0, 64, 97
1, 24198, Control_c, 0, 64, 101
1, 24213, Control_c, 0, 64, 104
1, 24225, Note_off_c, 0, 78, 62
1, 24228, Control_c, 0, 64, 107
1, 24242, Note_off_c, 0, 71, 60
1, 24243, Control_c, 0, 64, 108
1, 24258, Control_c, 0, 64, 109
1, 24273, Control_c, 0, 64, 110
1, 24282, Note_on_c, 0, 54, 59
1, 24403, Note_off_c, 0, 54, 61
1, 24431, Note_on_c, 0, 61, 68
1, 24511, Note_on_c, 0, 66, 72
1, 24651, Note_off_c, 0, 61, 47
1, 24655, Note_on_c, 0, 78, 79
1, 24672, Note_on_c, 0, 59, 47
1, 24687, Note_on_c, 0, 75, 56
1, 24735, Note_off_c, 0, 66, 52
1, 24753, Note_off_c, 0, 59, 58
1, 24780, Note_on_c, 0, 61, 57
1, 24849, Note_off_c, 0, 61, 63
1, 24889, Note_on_c, 0, 63, 60
1, 24967, Note_off_c, 0, 63, 62
1, 25095, Note_on_c, 0, 54, 55
1, 25125, Control_c, 0, 64, 109
1, 25140, Control_c, 0, 64, 109
1, 25155, Control_c, 0, 64, 108
1, 25170, Control_c, 0, 64, 108
1, 25185, Control_c, 0, 64, 107
1, 25200, Control_c, 0, 64, 106
1, 25214, Control_c, 0, 64, 106
1, 25229, Control_c, 0, 64, 105
1, 25244, Control_c, 0, 64, 105
1, 25259, Control_c, 0, 64, 104
1, 25274, Control_c, 0, 64, 104
1, 25288, Control_c, 0, 64, 103
1, 25303, Control_c, 0, 64, 103
1, 25318, Control_c, 0, 64, 102
1, 25319, Note_off_c, 0, 54, 26
1, 25332, Control_c, 0, 64, 101
1, 25347, Control_c, 0, 64, 100
1, 25351, Note_on_c, 0, 42, 56
1, 25362, Control_c, 0, 64, 98
1, 25377, Control_c, 0, 64, 94
1, 25392, Control_c, 0, 64, 88
1, 25406, Control_c, 0, 64, 77
1, 25421, Control_c, 0, 64, 63
1, 25436, Control_c, 0, 64, 0
1, 25480, Control_c, 0, 64, 23
1, 25495, Control_c, 0, 64, 60
1, 25510, Control_c, 0, 64, 67
1, 25525, Control_c, 0, 64, 73
1, 25540, Control_c, 0, 64, 79
1, 25540, Note_off_c, 0, 42, 62
1, 25543, Note_off_c, 0, 75, 61
1, 25555, Control_c, 0, 64, 85
1, 25558, Note_on_c, 0, 77, 73
1, 25559, Note_off_c, 0, 78, 57
1, 25565, Note_on_c, 0, 74, 58
1, 25570, Control_c, 0, 64, 89
1, 25584, Control_c, 0, 64, 93
1, 25587, Note_on_c, 0, 54, 52
1, 25599, Control_c, 0, 64, 95
1, 25614, Control_c, 0, 64, 98
1, 25629, Control_c, 0, 64, 99
1, 25651, Control_c, 0, 64, 101
1, 25667, Control_c, 0, 64, 101
1, 25682, Control_c, 0, 64, 102
1, 25711, Control_c, 0, 64, 102
1, 25717, Note_off_c, 0, 54, 59
1, 25718, Note_off_c, 0, 77, 60
1, 25726, Control_c, 0, 64, 103
1, 25741, Control_c, 0, 64, 104
1, 25747, Note_on_c, 0, 78, 78
1, 25749, Note_off_c, 0, 74, 61
1, 25751, Note_on_c, 0, 75, 72
1, 25756, Control_c, 0, 64, 105
1, 25761, Note_on_c, 0, 61, 60
1, 25770, Control_c, 0, 64, 105
1, 25785, Control_c, 0, 64, 106
1, 25800, Control_c, 0, 64, 107
1, 25815, Control_c, 0, 64, 108
1, 25872, Note_off_c, 0, 78, 62
1, 25877, Note_off_c, 0, 75, 62
1, 25890, Note_on_c, 0, 82, 32
1, 25893, Note_on_c, 0, 83, 59
1, 25921, Note_off_c, 0, 83, 47
1, 25924, Note_off_c, 0, 61, 52
1, 25936, Note_off_c, 0, 82, 43
1, 25948, Note_on_c, 0, 80, 81
1, 25950, Note_on_c, 0, 77, 76
1, 25952, Note_on_c, 0, 59, 56
1, 26061, Note_on_c, 0, 61, 53
1, 26160, Note_on_c, 0, 78, 83
1, 26166, Note_on_c, 0, 75, 70
1, 26170, Note_off_c, 0, 59, 49
1, 26172, Note_off_c, 0, 77, 60
1, 26186, Note_off_c, 0, 80, 60
1, 26187, Note_on_c, 0, 63, 54
1, 26230, Note_off_c, 0, 75, 64
1, 26267, Note_off_c, 0, 61, 29
1, 26303, Control_c, 0, 64, 108
1, 26318, Control_c, 0, 64, 107
1, 26333, Control_c, 0, 64, 107
1, 26348, Control_c, 0, 64, 106
1, 26362, Control_c, 0, 64, 106
1, 26377, Control_c, 0, 64, 105
1, 26395, Note_on_c, 0, 75, 77
1, 26397, Note_on_c, 0, 71, 71
1, 26402, Note_off_c, 0, 63, 62
1, 26405, Note_on_c, 0, 66, 45
1, 26414, Control_c, 0, 64, 105
1, 26424, Note_off_c, 0, 78, 58
1, 26429, Control_c, 0, 64, 104
1, 26431, Note_off_c, 0, 66, 56
1, 26443, Control_c, 0, 64, 103
1, 26459, Control_c, 0, 64, 102
1, 26474, Control_c, 0, 64, 102
1, 26489, Control_c, 0, 64, 101
1, 26504, Control_c, 0, 64, 100
1, 26519, Control_c, 0, 64, 100
1, 26533, Control_c, 0, 64, 99
1, 26548, Control_c, 0, 64, 98
1, 26563, Control_c, 0, 64, 97
1, 26578, Control_c, 0, 64, 95
1, 26592, Control_c, 0, 64, 94
1, 26607, Control_c, 0, 64, 92
1, 26622, Control_c, 0, 64, 91
1, 26637, Control_c, 0, 64, 89
1, 26652, Control_c, 0, 64, 86
1, 26667, Control_c, 0, 64, 83
1, 26681, Control_c, 0, 64, 78
1, 26696, Control_c, 0, 64, 73
1, 26711, Control_c, 0, 64, 66
1, 26726, Note_on_c, 0, 80, 65
1, 26726, Control_c, 0, 64, 44
1, 26728, Note_on_c, 0, 83, 71
1, 26741, Control_c, 0, 64, 0
1, 26744, Note_on_c, 0, 42, 36
1, 26753, Note_off_c, 0, 75, 52
1, 26822, Note_off_c, 0, 71, 48
1, 26845, Control_c, 0, 64, 50
1, 26859, Control_c, 0, 64, 68
1, 26874, Control_c, 0, 64, 75
1, 26889, Control_c, 0, 64, 82
1, 26903, Control_c, 0, 64, 87
1, 26918, Control_c, 0, 64, 92
1, 26932, Note_off_c, 0, 42, 61
1, 26933, Control_c, 0, 64, 96
1, 26948, Control_c, 0, 64, 99
1, 26963, Control_c, 0, 64, 101
1, 26965, Note_off_c, 0, 83, 53
1, 26977, Control_c, 0, 64, 102
1, 26991, Note_off_c, 0, 80, 64
1, 26992, Control_c, 0, 64, 103
1, 27009, Note_on_c, 0, 71, 66
1, 27018, Note_on_c, 0, 75, 55
1, 27030, Note_on_c, 0, 54, 47
1, 27152, Note_off_c, 0, 71, 48
1, 27177, Note_off_c, 0, 54, 60
1, 27215, Note_on_c, 0, 77, 60
1, 27219, Note_on_c, 0, 73, 64
1, 27227, Note_on_c, 0, 61, 50
1, 27233, Note_off_c, 0, 75, 58
1, 27282, Control_c, 0, 64, 102
1, 27342, Control_c, 0, 64, 102
1, 27386, Control_c, 0, 64, 101
1, 27391, Note_off_c, 0, 73, 62
1, 27406, Note_on_c, 0, 78, 73
1, 27412, Note_off_c, 0, 77, 51
1, 27414, Note_off_c, 0, 61, 37
1, 27419, Note_on_c, 0, 75, 60
1, 27422, Note_on_c, 0, 59, 49
1, 27453, Note_off_c, 0, 75, 61
1, 27495, Note_off_c, 0, 59, 58
1, 27531, Note_on_c, 0, 61, 45
1, 27586, Note_off_c, 0, 78, 27
1, 27589, Note_off_c, 0, 61, 60
1, 27604, Note_on_c, 0, 71, 70
1, 27614, Note_on_c, 0, 66, 61
1, 27630, Note_on_c, 0, 63, 52
1, 27648, Note_off_c, 0, 71, 59
1, 27668, Note_off_c, 0, 63, 58
1, 27741, Control_c, 0, 64, 101
1, 27756, Control_c, 0, 64, 100
1, 27771, Control_c, 0, 64, 100
1, 27786, Control_c, 0, 64, 99
1, 27800, Control_c, 0, 64, 99
1, 27815, Note_off_c, 0, 66, 33
1, 27815, Control_c, 0, 64, 98
1, 27825, Note_on_c, 0, 72, 67
1, 27827, Note_on_c, 0, 69, 57
1, 27830, Control_c, 0, 64, 98
1, 27835, Note_on_c, 0, 54, 50
1, 27845, Control_c, 0, 64, 97
1, 27860, Control_c, 0, 64, 97
1, 27882, Control_c, 0, 64, 96
1, 27898, Control_c, 0, 64, 96
1, 27913, Control_c, 0, 64, 95
1, 27927, Control_c, 0, 64, 94
1, 27942, Control_c, 0, 64, 93
1, 27947, Note_off_c, 0, 54, 61
1, 27957, Control_c, 0, 64, 92
1, 27972, Control_c, 0, 64, 92
1, 28002, Control_c, 0, 64, 91
1, 28016, Control_c, 0, 64, 90
1, 28031, Control_c, 0, 64, 90
1, 28046, Control_c, 0, 64, 89
1, 28062, Control_c, 0, 64, 88
1, 28076, Control_c, 0, 64, 87
1, 28091, Control_c, 0, 64, 86
1, 28104, Note_on_c, 0, 75, 65
1, 28106, Control_c, 0, 64, 85
1, 28121, Control_c, 0, 64, 83
1, 28124, Note_on_c, 0, 71, 54
1, 28127, Note_off_c, 0, 72, 40
1, 28136, Control_c, 0, 64, 79
1, 28137, Note_off_c, 0, 69, 59
1, 28148, Note_on_c, 0, 42, 41
1, 28151, Control_c, 0, 64, 74
1, 28165, Control_c, 0, 64, 65
1, 28180, Control_c, 0, 64, 0
1, 28284, Control_c, 0, 64, 16
1, 28299, Control_c, 0, 64, 64
1, 28313, Control_c, 0, 64, 69
1, 28328, Control_c, 0, 64, 73
1, 28343, Control_c, 0, 64, 77
1, 28345, Note_on_c, 0, 73, 65
1, 28345, Note_on_c, 0, 70, 61
1, 28353, Note_off_c, 0, 71, 47
1, 28357, Control_c, 0, 64, 79
1, 28359, Note_off_c, 0, 75, 54
1, 28372, Control_c, 0, 64, 80
1, 28381, Note_on_c, 0, 49, 50
1, 28387, Control_c, 0, 64, 81
1, 28402, Note_off_c, 0, 42, 41
1, 28402, Control_c, 0, 64, 82
1, 28417, Control_c, 0, 64, 82
1, 28527, Note_off_c, 0, 70, 55
1, 28534, Note_on_c, 0, 61, 69
1, 28545, Note_off_c, 0, 49, 60
1, 28564, Note_on_c, 0, 56, 51
1, 28691, Control_c, 0, 64, 82
1, 28720, Control_c, 0, 64, 81
1, 28735, Note_off_c, 0, 56, 55
1, 28735, Control_c, 0, 64, 81
1, 28750, Control_c, 0, 64, 79
1, 28756, Note_on_c, 0, 70, 65
1, 28765, Control_c, 0, 64, 75
1, 28768, Note_on_c, 0, 54, 50
1, 28771, Note_off_c, 0, 61, 55
1, 28774, Note_on_c, 0, 66, 61
1, 28780, Control_c, 0, 64, 67
1, 28795, Control_c, 0, 64, 31
1, 28810, Control_c, 0, 64, 0
1, 28817, Note_off_c, 0, 73, 36
1, 28841, Note_off_c, 0, 54, 58
1, 28865, Note_on_c, 0, 56, 58
1, 28869, Control_c, 0, 64, 61
1, 28884, Control_c, 0, 64, 69
1, 28899, Control_c, 0, 64, 75
1, 28914, Control_c, 0, 64, 83
1, 28929, Control_c, 0, 64, 91
1, 28944, Control_c, 0, 64, 97
1, 28959, Control_c, 0, 64, 103
1, 28962, Note_off_c, 0, 56, 63
1, 28973, Control_c, 0, 64, 108
1, 28986, Note_on_c, 0, 58, 69
1, 28988, Control_c, 0, 64, 112
1, 29003, Control_c, 0, 64, 115
1, 29018, Control_c, 0, 64, 116
1, 29033, Note_off_c, 0, 58, 63
1, 29033, Control_c, 0, 64, 117
1, 29077, Control_c, 0, 64, 117
1, 29211, Note_on_c, 0, 68, 76
1, 29212, Note_on_c, 0, 62, 76
1, 29245, Note_on_c, 0, 41, 56
1, 29272, Note_off_c, 0, 62, 60
1, 29288, Note_off_c, 0, 41, 64
1, 29308, Note_off_c, 0, 70, 31
1, 29317, Note_off_c, 0, 66, 52
1, 29332, Note_off_c, 0, 68, 61
1, 29468, Note_on_c, 0, 39, 63
1, 29469, Control_c, 0, 64, 115
1, 29484, Control_c, 0, 64, 112
1, 29499, Control_c, 0, 64, 106
1, 29513, Control_c, 0, 64, 98
1, 29528, Control_c, 0, 64, 86
1, 29543, Control_c, 0, 64, 71
1, 29558, Control_c, 0, 64, 21
1, 29566, Note_on_c, 0, 70, 69
1, 29572, Note_on_c, 0, 63, 66
1, 29573, Note_on_c, 0, 66, 68
1, 29573, Control_c, 0, 64, 0
1, 29647, Control_c, 0, 64, 62
1, 29663, Control_c, 0, 64, 69
1, 29673, Note_off_c, 0, 66, 62
1, 29677, Control_c, 0, 64, 76
1, 29686, Note_off_c, 0, 63, 63
1, 29692, Control_c, 0, 64, 81
1, 29707, Control_c, 0, 64, 85
1, 29722, Control_c, 0, 64, 89
1, 29737, Control_c, 0, 64, 92
1, 29752, Control_c, 0, 64, 96
1, 29767, Control_c, 0, 64, 99
1, 29781, Note_on_c, 0, 78, 83
1, 29782, Control_c, 0, 64, 104
1, 29796, Control_c, 0, 64, 109
1, 29811, Control_c, 0, 64, 113
1, 29826, Control_c, 0, 64, 117
1, 29841, Control_c, 0, 64, 120
1, 29856, Control_c, 0, 64, 122
1, 29870, Control_c, 0, 64, 124
1, 29871, Note_off_c, 0, 39, 59
1, 29885, Control_c, 0, 64, 125
1, 29890, Note_off_c, 0, 78, 62
1, 29892, Note_off_c, 0, 70, 60
1, 29900, Control_c, 0, 64, 127
1, 29917, Note_on_c, 0, 46, 57
1, 30133, Note_off_c, 0, 46, 60
1, 30142, Note_on_c, 0, 56, 61
1, 30330, Note_off_c, 0, 56, 57
1, 30335, Note_on_c, 0, 78, 79
1, 30348, Note_on_c, 0, 70, 62
1, 30364, Note_on_c, 0, 54, 53
1, 30425, Note_off_c, 0, 54, 58
1, 30443, Note_on_c, 0, 56, 59
1, 30534, Note_off_c, 0, 56, 60
1, 30565, Note_on_c, 0, 58, 67
1, 30633, Control_c, 0, 64, 126
1, 30648, Control_c, 0, 64, 124
1, 30663, Control_c, 0, 64, 124
1, 30677, Note_off_c, 0, 70, 60
1, 30678, Control_c, 0, 64, 123
1, 30693, Control_c, 0, 64, 122
1, 30703, Note_off_c, 0, 58, 60
1, 30707, Control_c, 0, 64, 121
1, 30718, Note_off_c, 0, 78, 57
1, 30722, Control_c, 0, 64, 121
1, 30751, Control_c, 0, 64, 120
1, 30766, Control_c, 0, 64, 119
1, 30781, Control_c, 0, 64, 118
1, 30783, Note_on_c, 0, 46, 66
1, 30796, Control_c, 0, 64, 117
1, 30811, Control_c, 0, 64, 117
1, 30825, Control_c, 0, 64, 116
1, 30840, Control_c, 0, 64, 115
1, 30855, Control_c, 0, 64, 114
1, 30878, Control_c, 0, 64, 113
1, 30893, Control_c, 0, 64, 112
1, 30908, Control_c, 0, 64, 111
1, 30923, Control_c, 0, 64, 110
1, 30938, Control_c, 0, 64, 109
1, 30952, Control_c, 0, 64, 109
1, 30967, Control_c, 0, 64, 108
1, 30982, Control_c, 0, 64, 107
1, 30997, Control_c, 0, 64, 106
1, 31012, Control_c, 0, 64, 103
1, 31022, Note_on_c, 0, 78, 73
1, 31027, Control_c, 0, 64, 97
1, 31040, Note_on_c, 0, 70, 53
1, 31041, Control_c, 0, 64, 88
1, 31056, Control_c, 0, 64, 77
1, 31060, Note_off_c, 0, 46, 33
1, 31069, Note_on_c, 0, 39, 37
1, 31071, Control_c, 0, 64, 65
1, 31086, Control_c, 0, 64, 0
1, 31130, Control_c, 0, 64, 52
1, 31145, Control_c, 0, 64, 62
1, 31155, Note_off_c, 0, 70, 60
1, 31159, Control_c, 0, 64, 65
1, 31174, Control_c, 0, 64, 70
1, 31189, Control_c, 0, 64, 75
1, 31204, Control_c, 0, 64, 81
1, 31209, Note_on_c, 0, 71, 63
1, 31212, Note_on_c, 0, 80, 67
1, 31214, Note_off_c, 0, 78, 60
1, 31219, Control_c, 0, 64, 86
1, 31233, Control_c, 0, 64, 90
1, 31241, Note_off_c, 0, 71, 61
1, 31249, Control_c, 0, 64, 93
1, 31264, Control_c, 0, 64, 95
1, 31279, Control_c, 0, 64, 96
1, 31283, Note_on_c, 0, 78, 74
1, 31287, Note_off_c, 0, 39, 60
1, 31288, Note_on_c, 0, 70, 66
1, 31294, Control_c, 0, 64, 97
1, 31308, Note_on_c, 0, 46, 57
1, 31309, Control_c, 0, 64, 98
1, 31319, Note_off_c, 0, 80, 60
1, 31323, Control_c, 0, 64, 98
1, 31346, Note_off_c, 0, 70, 49
1, 31379, Note_off_c, 0, 78, 62
1, 31437, Note_off_c, 0, 46, 62
1, 31470, Note_on_c, 0, 77, 78
1, 31475, Note_on_c, 0, 68, 75
1, 31486, Note_on_c, 0, 56, 53
1, 31516, Control_c, 0, 64, 98
1, 31531, Control_c, 0, 64, 97
1, 31532, Note_off_c, 0, 68, 62
1, 31546, Note_off_c, 0, 77, 57
1, 31546, Control_c, 0, 64, 97
1, 31575, Control_c, 0, 64, 96
1, 31593, Note_off_c, 0, 56, 60
1, 31605, Control_c, 0, 64, 96
1, 31627, Control_c, 0, 64, 95
1, 31633, Note_on_c, 0, 50, 56
1, 31642, Control_c, 0, 64, 93
1, 31657, Control_c, 0, 64, 88
1, 31671, Control_c, 0, 64, 80
1, 31672, Note_on_c, 0, 77, 75
1, 31677, Note_on_c, 0, 68, 68
1, 31686, Control_c, 0, 64, 69
1, 31701, Control_c, 0, 64, 36
1, 31716, Control_c, 0, 64, 0
1, 31746, Control_c, 0, 64, 36
1, 31761, Control_c, 0, 64, 58
1, 31768, Note_off_c, 0, 50, 36
1, 31775, Control_c, 0, 64, 63
1, 31782, Note_on_c, 0, 59, 49
1, 31790, Control_c, 0, 64, 67
1, 31805, Control_c, 0, 64, 71
1, 31810, Note_off_c, 0, 68, 33
1, 31815, Note_on_c, 0, 70, 70
1, 31818, Note_on_c, 0, 78, 69
1, 31819, Note_off_c, 0, 77, 58
1, 31820, Control_c, 0, 64, 77
1, 31835, Control_c, 0, 64, 83
1, 31849, Control_c, 0, 64, 89
1, 31864, Control_c, 0, 64, 91
1, 31879, Control_c, 0, 64, 94
1, 31894, Note_on_c, 0, 68, 75
1, 31894, Control_c, 0, 64, 97
1, 31895, Note_on_c, 0, 77, 73
1, 31908, Control_c, 0, 64, 101
1, 31910, Note_on_c, 0, 58, 59
1, 31916, Note_off_c, 0, 59, 23
1, 31923, Control_c, 0, 64, 104
1, 31928, Note_off_c, 0, 78, 63
1, 31938, Control_c, 0, 64, 107
1, 31953, Control_c, 0, 64, 108
1, 31955, Note_off_c, 0, 70, 22
1, 31973, Note_off_c, 0, 68, 55
1, 31982, Control_c, 0, 64, 108
1, 31997, Control_c, 0, 64, 109
1, 31999, Note_off_c, 0, 58, 61
1, 32141, Note_on_c, 0, 75, 72
1, 32142, Note_on_c, 0, 66, 73
1, 32159, Note_on_c, 0, 46, 54
1, 32191, Control_c, 0, 64, 108
1, 32192, Note_off_c, 0, 77, 38
1, 32205, Control_c, 0, 64, 108
1, 32208, Note_off_c, 0, 75, 62
1, 32213, Note_off_c, 0, 66, 64
1, 32220, Control_c, 0, 64, 107
1, 32235, Control_c, 0, 64, 106
1, 32247, Note_off_c, 0, 46, 61
1, 32250, Control_c, 0, 64, 105
1, 32265, Control_c, 0, 64, 104
1, 32280, Control_c, 0, 64, 103
1, 32294, Control_c, 0, 64, 102
1, 32309, Control_c, 0, 64, 102
1, 32315, Note_on_c, 0, 47, 5
1, 32324, Control_c, 0, 64, 101
1, 32339, Control_c, 0, 64, 100
1, 32354, Control_c, 0, 64, 98
1, 32376, Control_c, 0, 64, 97
1, 32378, Note_off_c, 0, 47, 50
1, 32390, Control_c, 0, 64, 96
1, 32404, Control_c, 0, 64, 94
1, 32419, Control_c, 0, 64, 93
1, 32434, Control_c, 0, 64, 91
1, 32449, Control_c, 0, 64, 90
1, 32464, Control_c, 0, 64, 89
1, 32478, Control_c, 0, 64, 87
1, 32493, Control_c, 0, 64, 86
1, 32508, Control_c, 0, 64, 84
1, 32515, Note_on_c, 0, 75, 64
1, 32520, Note_on_c, 0, 66, 62
1, 32522, Control_c, 0, 64, 81
1, 32537, Control_c, 0, 64, 78
1, 32545, Note_on_c, 0, 39, 37
1, 32552, Control_c, 0, 64, 73
1, 32567, Control_c, 0, 64, 67
1, 32582, Control_c, 0, 64, 51
1, 32596, Control_c, 0, 64, 0
1, 32730, Control_c, 0, 64, 59
1, 32745, Control_c, 0, 64, 67
1, 32759, Control_c, 0, 64, 72
1, 32774, Control_c, 0, 64, 77
1, 32789, Control_c, 0, 64, 81
1, 32804, Control_c, 0, 64, 85
1, 32819, Control_c, 0, 64, 87
1, 32834, Control_c, 0, 64, 90
1, 32836, Note_on_c, 0, 65, 69
1, 32846, Note_off_c, 0, 39, 48
1, 32849, Control_c, 0, 64, 92
1, 32854, Note_on_c, 0, 46, 48
1, 32864, Control_c, 0, 64, 93
1, 32879, Control_c, 0, 64, 94
1, 32881, Note_off_c, 0, 66, 64
1, 32894, Control_c, 0, 64, 95
1, 32916, Note_off_c, 0, 75, 64
1, 33028, Note_on_c, 0, 56, 59
1, 33031, Note_off_c, 0, 46, 39
1, 33031, Note_off_c, 0, 65, 50
1, 33072, Control_c, 0, 64, 94
1, 33101, Control_c, 0, 64, 94
1, 33123, Control_c, 0, 64, 93
1, 33129, Note_on_c, 0, 63, 70
1, 33138, Control_c, 0, 64, 93
1, 33168, Control_c, 0, 64, 92
1, 33171, Note_off_c, 0, 63, 58
1, 33183, Control_c, 0, 64, 92
1, 33198, Control_c, 0, 64, 91
1, 33213, Control_c, 0, 64, 91
1, 33227, Control_c, 0, 64, 90
1, 33241, Note_off_c, 0, 56, 47
1, 33242, Control_c, 0, 64, 89
1, 33257, Control_c, 0, 64, 87
1, 33257, Note_on_c, 0, 70, 68
1, 33272, Control_c, 0, 64, 83
1, 33283, Note_on_c, 0, 63, 57
1, 33287, Control_c, 0, 64, 76
1, 33301, Control_c, 0, 64, 68
1, 33316, Control_c, 0, 64, 56
1, 33331, Control_c, 0, 64, 0
1, 33377, Note_on_c, 0, 56, 52
1, 33405, Control_c, 0, 64, 16
1, 33419, Control_c, 0, 64, 45
1, 33434, Control_c, 0, 64, 58
1, 33449, Control_c, 0, 64, 63
1, 33459, Note_off_c, 0, 56, 58
1, 33464, Control_c, 0, 64, 67
1, 33478, Control_c, 0, 64, 71
1, 33493, Control_c, 0, 64, 76
1, 33502, Note_on_c, 0, 58, 49
1, 33508, Control_c, 0, 64, 80
1, 33523, Control_c, 0, 64, 83
1, 33538, Control_c, 0, 64, 85
1, 33552, Control_c, 0, 64, 86
1, 33567, Control_c, 0, 64, 87
1, 33605, Note_off_c, 0, 58, 52
1, 33724, Note_on_c, 0, 59, 68
1, 33740, Note_on_c, 0, 46, 49
1, 33773, Note_off_c, 0, 63, 40
1, 33796, Note_off_c, 0, 59, 57
1, 33902, Control_c, 0, 64, 86
1, 33932, Control_c, 0, 64, 86
1, 33947, Control_c, 0, 64, 85
1, 33962, Control_c, 0, 64, 85
1, 33976, Control_c, 0, 64, 84
1, 33991, Control_c, 0, 64, 84
1, 34006, Control_c, 0, 64, 83
1, 34021, Control_c, 0, 64, 82
1, 34036, Control_c, 0, 64, 81
1, 34050, Control_c, 0, 64, 79
1, 34065, Control_c, 0, 64, 77
1, 34068, Note_on_c, 0, 39, 33
1, 34080, Control_c, 0, 64, 75
1, 34083, Note_off_c, 0, 46, 36
1, 34095, Control_c, 0, 64, 73
1, 34104, Note_on_c, 0, 58, 58
1, 34110, Control_c, 0, 64, 68
1, 34125, Control_c, 0, 64, 63
1, 34140, Control_c, 0, 64, 0
1, 34258, Control_c, 0, 64, 42
1, 34273, Control_c, 0, 64, 61
1, 34288, Control_c, 0, 64, 66
1, 34302, Control_c, 0, 64, 70
1, 34317, Control_c, 0, 64, 75
1, 34332, Control_c, 0, 64, 81
1, 34347, Control_c, 0, 64, 84
1, 34362, Control_c, 0, 64, 86
1, 34372, Note_off_c, 0, 39, 39
1, 34375, Note_on_c, 0, 46, 44
1, 34376, Control_c, 0, 64, 87
1, 34376, Control_c, 0, 67, 9
1, 34391, Control_c, 0, 64, 88
1, 34391, Control_c, 0, 67, 13
1, 34406, Control_c, 0, 64, 89
1, 34406, Control_c, 0, 67, 17
1, 34420, Note_off_c, 0, 58, 64
1, 34421, Control_c, 0, 64, 90
1, 34421, Control_c, 0, 67, 23
1, 34436, Control_c, 0, 64, 90
1, 34436, Control_c, 0, 67, 31
1, 34452, Control_c, 0, 67, 42
1, 34466, Control_c, 0, 67, 55
1, 34481, Control_c, 0, 67, 64
1, 34496, Control_c, 0, 67, 71
1, 34510, Control_c, 0, 67, 77
1, 34520, Note_off_c, 0, 70, 32
1, 34525, Control_c, 0, 67, 80
1, 34540, Control_c, 0, 67, 84
1, 34555, Control_c, 0, 67, 85
1, 34579, Note_on_c, 0, 54, 35
1, 34584, Control_c, 0, 64, 90
1, 34637, Control_c, 0, 64, 89
1, 34652, Control_c, 0, 64, 89
1, 34660, Note_off_c, 0, 54, 53
1, 34666, Control_c, 0, 64, 88
1, 34671, Note_on_c, 0, 70, 8
1, 34681, Control_c, 0, 64, 88
1, 34681, Control_c, 0, 67, 84
1, 34696, Control_c, 0, 64, 87
1, 34711, Control_c, 0, 64, 86
1, 34725, Control_c, 0, 64, 84
1, 34725, Control_c, 0, 67, 84
1, 34740, Control_c, 0, 64, 82
1, 34755, Control_c, 0, 64, 79
1, 34765, Note_on_c, 0, 60, 60
1, 34770, Control_c, 0, 64, 74
1, 34770, Control_c, 0, 67, 83
1, 34785, Control_c, 0, 64, 67
1, 34799, Control_c, 0, 64, 47
1, 34799, Control_c, 0, 67, 83
1, 34800, Note_off_c, 0, 70, 38
1, 34814, Control_c, 0, 64, 0
1, 34816, Note_off_c, 0, 46, 40
1, 34829, Control_c, 0, 67, 82
1, 34833, Note_on_c, 0, 39, 34
1, 34841, Note_on_c, 0, 68, 57
1, 34859, Control_c, 0, 67, 82
1, 34873, Control_c, 0, 67, 81
1, 34888, Control_c, 0, 64, 34
1, 34888, Control_c, 0, 67, 81
1, 34903, Note_off_c, 0, 68, 62
1, 34903, Control_c, 0, 64, 58
1, 34903, Control_c, 0, 67, 80
1, 34904, Note_on_c, 0, 70, 62
1, 34918, Control_c, 0, 64, 65
1, 34918, Control_c, 0, 67, 80
1, 34933, Control_c, 0, 64, 70
1, 34933, Control_c, 0, 67, 79
1, 34947, Control_c, 0, 64, 74
1, 34947, Control_c, 0, 67, 79
1, 34962, Control_c, 0, 64, 78
1, 34962, Control_c, 0, 67, 78
1, 34969, Note_off_c, 0, 70, 62
1, 34973, Note_on_c, 0, 68, 55
1, 34977, Control_c, 0, 64, 81
1, 34977, Control_c, 0, 67, 77
1, 34992, Control_c, 0, 64, 83
1, 35007, Control_c, 0, 64, 85
1, 35007, Control_c, 0, 67, 77
1, 35022, Control_c, 0, 64, 86
1, 35025, Note_off_c, 0, 68, 62
1, 35037, Control_c, 0, 64, 88
1, 35042, Note_on_c, 0, 70, 60
1, 35052, Control_c, 0, 64, 88
1, 35066, Control_c, 0, 64, 89
1, 35103, Note_off_c, 0, 60, 33
1, 35105, Note_off_c, 0, 70, 61
1, 35105, Note_on_c, 0, 68, 56
1, 35112, Note_off_c, 0, 39, 38
1, 35120, Note_on_c, 0, 44, 39
1, 35165, Note_off_c, 0, 68, 59
1, 35185, Note_on_c, 0, 67, 61
1, 35260, Control_c, 0, 64, 88
1, 35288, Note_on_c, 0, 68, 56
1, 35289, Control_c, 0, 64, 88
1, 35291, Note_off_c, 0, 67, 57
1, 35319, Control_c, 0, 64, 87
1, 35348, Control_c, 0, 64, 87
1, 35371, Control_c, 0, 64, 86
1, 35386, Control_c, 0, 64, 86
1, 35401, Control_c, 0, 64, 85
1, 35404, Note_off_c, 0, 68, 56
1, 35415, Control_c, 0, 64, 85
1, 35419, Note_on_c, 0, 72, 55
1, 35421, Note_on_c, 0, 54, 42
1, 35430, Control_c, 0, 67, 76
1, 35445, Control_c, 0, 64, 84
1, 35489, Control_c, 0, 64, 84
1, 35519, Control_c, 0, 64, 83
1, 35546, Note_off_c, 0, 72, 53
1, 35554, Note_on_c, 0, 70, 63
1, 35563, Control_c, 0, 64, 83
1, 35566, Note_off_c, 0, 54, 35
1, 35578, Control_c, 0, 64, 82
1, 35608, Control_c, 0, 64, 82
1, 35622, Control_c, 0, 64, 81
1, 35652, Control_c, 0, 64, 81
1, 35666, Control_c, 0, 64, 80
1, 35681, Control_c, 0, 64, 79
1, 35696, Control_c, 0, 64, 79
1, 35696, Control_c, 0, 67, 76
1, 35711, Control_c, 0, 64, 78
1, 35726, Control_c, 0, 64, 77
1, 35740, Control_c, 0, 64, 76
1, 35755, Control_c, 0, 64, 74
1, 35761, Note_off_c, 0, 70, 45
1, 35770, Control_c, 0, 64, 71
1, 35785, Control_c, 0, 64, 68
1, 35800, Control_c, 0, 64, 63
1, 35804, Note_off_c, 0, 44, 25
1, 35808, Note_on_c, 0, 68, 45
1, 35815, Control_c, 0, 64, 52
1, 35824, Note_on_c, 0, 61, 43
1, 35824, Note_on_c, 0, 41, 28
1, 35830, Control_c, 0, 64, 21
1, 35845, Control_c, 0, 64, 0
1, 35948, Control_c, 0, 67, 76
1, 35993, Control_c, 0, 64, 57
1, 36008, Control_c, 0, 64, 66
1, 36022, Control_c, 0, 64, 70
1, 36038, Control_c, 0, 64, 73
1, 36053, Control_c, 0, 64, 76
1, 36068, Note_off_c, 0, 61, 58
1, 36068, Control_c, 0, 64, 79
1, 36083, Control_c, 0, 64, 82
1, 36098, Control_c, 0, 64, 85
1, 36098, Control_c, 0, 67, 77
1, 36102, Note_off_c, 0, 68, 60
1, 36119, Control_c, 0, 64, 88
1, 36133, Note_off_c, 0, 41, 47
1, 36134, Control_c, 0, 64, 90
1, 36149, Control_c, 0, 64, 91
1, 36164, Control_c, 0, 64, 93
1, 36179, Control_c, 0, 64, 93
1, 36179, Control_c, 0, 67, 76
1, 36193, Note_on_c, 0, 49, 30
1, 36194, Control_c, 0, 67, 75
1, 36208, Control_c, 0, 67, 75
1, 36223, Control_c, 0, 67, 74
1, 36238, Control_c, 0, 67, 71
1, 36253, Control_c, 0, 67, 65
1, 36268, Control_c, 0, 67, 60
1, 36283, Control_c, 0, 67, 57
1, 36297, Control_c, 0, 67, 53
1, 36312, Control_c, 0, 67, 48
1, 36327, Control_c, 0, 67, 43
1, 36342, Control_c, 0, 67, 38
1, 36357, Control_c, 0, 67, 34
1, 36371, Control_c, 0, 67, 32
1, 36386, Control_c, 0, 67, 31
1, 36416, Control_c, 0, 64, 93
1, 36431, Control_c, 0, 67, 32
1, 36440, Note_on_c, 0, 73, 48
1, 36445, Control_c, 0, 64, 92
1, 36447, Note_on_c, 0, 56, 35
1, 36460, Control_c, 0, 64, 92
1, 36460, Control_c, 0, 67, 33
1, 36475, Control_c, 0, 64, 91
1, 36475, Control_c, 0, 67, 33
1, 36487, Note_off_c, 0, 73, 47
1, 36489, Control_c, 0, 67, 34
1, 36504, Control_c, 0, 64, 91
1, 36504, Control_c, 0, 67, 35
1, 36519, Control_c, 0, 64, 90
1, 36519, Control_c, 0, 67, 36
1, 36534, Control_c, 0, 64, 90
1, 36534, Control_c, 0, 67, 37
1, 36549, Control_c, 0, 64, 89
1, 36549, Control_c, 0, 67, 37
1, 36558, Note_off_c, 0, 56, 49
1, 36563, Control_c, 0, 64, 89
1, 36563, Control_c, 0, 67, 38
1, 36578, Control_c, 0, 64, 88
1, 36578, Control_c, 0, 67, 38
1, 36593, Control_c, 0, 64, 88
1, 36593, Control_c, 0, 67, 39
1, 36608, Control_c, 0, 64, 87
1, 36623, Control_c, 0, 64, 87
1, 36638, Control_c, 0, 64, 86
1, 36653, Control_c, 0, 64, 86
1, 36667, Control_c, 0, 64, 85
1, 36682, Control_c, 0, 64, 84
1, 36697, Control_c, 0, 64, 82
1, 36712, Control_c, 0, 64, 80
1, 36727, Note_on_c, 0, 73, 53
1, 36727, Control_c, 0, 64, 77
1, 36731, Note_on_c, 0, 70, 54
1, 36742, Control_c, 0, 64, 73
1, 36757, Control_c, 0, 64, 67
1, 36760, Note_on_c, 0, 42, 27
1, 36771, Control_c, 0, 64, 53
1, 36785, Note_off_c, 0, 49, 37
1, 36786, Control_c, 0, 64, 0
1, 36831, Control_c, 0, 64, 49
1, 36846, Control_c, 0, 64, 62
1, 36868, Control_c, 0, 64, 66
1, 36882, Control_c, 0, 64, 70
1, 36897, Control_c, 0, 64, 77
1, 36897, Control_c, 0, 67, 40
1, 36912, Control_c, 0, 64, 84
1, 36927, Control_c, 0, 64, 91
1, 36933, Note_off_c, 0, 73, 46
1, 36942, Control_c, 0, 64, 97
1, 36957, Control_c, 0, 64, 101
1, 36957, Control_c, 0, 67, 40
1, 36972, Control_c, 0, 64, 104
1, 36986, Control_c, 0, 64, 105
1, 36996, Note_off_c, 0, 42, 41
1, 37001, Control_c, 0, 64, 106
1, 37016, Control_c, 0, 64, 107
1, 37024, Note_on_c, 0, 49, 40
1, 37031, Control_c, 0, 64, 108
1, 37031, Control_c, 0, 67, 40
1, 37046, Control_c, 0, 64, 108
1, 37061, Control_c, 0, 67, 39
1, 37075, Control_c, 0, 67, 39
1, 37090, Control_c, 0, 67, 38
1, 37105, Control_c, 0, 67, 37
1, 37119, Control_c, 0, 67, 37
1, 37134, Control_c, 0, 67, 36
1, 37149, Control_c, 0, 67, 36
1, 37164, Control_c, 0, 67, 35
1, 37193, Control_c, 0, 67, 35
1, 37208, Control_c, 0, 64, 107
1, 37213, Note_on_c, 0, 73, 60
1, 37223, Control_c, 0, 64, 107
1, 37235, Note_on_c, 0, 61, 51
1, 37238, Control_c, 0, 64, 106
1, 37253, Control_c, 0, 64, 105
1, 37267, Control_c, 0, 64, 104
1, 37274, Note_off_c, 0, 73, 55
1, 37282, Note_off_c, 0, 61, 61
1, 37282, Control_c, 0, 64, 103
1, 37297, Control_c, 0, 64, 102
1, 37311, Control_c, 0, 64, 101
1, 37326, Control_c, 0, 64, 100
1, 37341, Control_c, 0, 64, 99
1, 37356, Control_c, 0, 64, 99
1, 37371, Control_c, 0, 64, 98
1, 37386, Control_c, 0, 64, 97
1, 37386, Control_c, 0, 67, 35
1, 37401, Control_c, 0, 64, 95
1, 37416, Control_c, 0, 64, 93
1, 37416, Control_c, 0, 67, 36
1, 37431, Control_c, 0, 64, 90
1, 37445, Control_c, 0, 64, 85
1, 37456, Note_on_c, 0, 73, 64
1, 37460, Control_c, 0, 64, 80
1, 37460, Control_c, 0, 67, 36
1, 37465, Note_on_c, 0, 65, 56
1, 37475, Control_c, 0, 64, 72
1, 37475, Control_c, 0, 67, 37
1, 37481, Note_on_c, 0, 44, 41
1, 37490, Control_c, 0, 64, 56
1, 37492, Note_off_c, 0, 70, 39
1, 37492, Note_off_c, 0, 49, 37
1, 37504, Control_c, 0, 64, 0
1, 37504, Control_c, 0, 67, 37
1, 37549, Control_c, 0, 64, 20
1, 37564, Control_c, 0, 64, 53
1, 37564, Control_c, 0, 67, 38
1, 37579, Control_c, 0, 64, 64
1, 37593, Control_c, 0, 64, 69
1, 37615, Control_c, 0, 64, 76
1, 37631, Control_c, 0, 64, 83
1, 37634, Note_off_c, 0, 73, 60
1, 37647, Control_c, 0, 64, 89
1, 37662, Control_c, 0, 64, 94
1, 37677, Control_c, 0, 64, 99
1, 37677, Control_c, 0, 67, 38
1, 37678, Note_off_c, 0, 44, 51
1, 37691, Control_c, 0, 64, 106
1, 37695, Note_on_c, 0, 49, 57
1, 37706, Control_c, 0, 64, 112
1, 37706, Control_c, 0, 67, 39
1, 37721, Control_c, 0, 64, 116
1, 37721, Control_c, 0, 67, 39
1, 37736, Control_c, 0, 64, 117
1, 37765, Control_c, 0, 67, 39
1, 37824, Control_c, 0, 67, 38
1, 37854, Note_on_c, 0, 73, 72
1, 37862, Note_off_c, 0, 65, 34
1, 37883, Note_on_c, 0, 61, 57
1, 37899, Control_c, 0, 64, 116
1, 37905, Note_off_c, 0, 73, 59
1, 37913, Control_c, 0, 64, 116
1, 37916, Note_off_c, 0, 61, 62
1, 37928, Control_c, 0, 64, 115
1, 37943, Control_c, 0, 64, 114
1, 37958, Control_c, 0, 64, 113
1, 37973, Control_c, 0, 64, 111
1, 37973, Control_c, 0, 67, 38
1, 37988, Control_c, 0, 64, 109
1, 37988, Control_c, 0, 67, 37
1, 38003, Control_c, 0, 64, 106
1, 38017, Control_c, 0, 64, 102
1, 38032, Control_c, 0, 64, 95
1, 38047, Control_c, 0, 64, 85
1, 38047, Control_c, 0, 67, 37
1, 38057, Note_on_c, 0, 73, 58
1, 38061, Control_c, 0, 64, 73
1, 38063, Note_on_c, 0, 66, 50
1, 38076, Control_c, 0, 64, 60
1, 38076, Control_c, 0, 67, 36
1, 38082, Note_on_c, 0, 46, 48
1, 38091, Control_c, 0, 64, 0
1, 38091, Control_c, 0, 67, 36
1, 38095, Note_off_c, 0, 49, 38
1, 38096, Note_off_c, 0, 73, 59
1, 38106, Control_c, 0, 67, 35
1, 38125, Note_on_c, 0, 75, 59
1, 38133, Note_off_c, 0, 66, 0
1, 38133, Note_on_c, 0, 66, 6
1, 38135, Control_c, 0, 64, 45
1, 38150, Control_c, 0, 64, 59
1, 38150, Control_c, 0, 67, 35
1, 38165, Note_off_c, 0, 75, 64
1, 38165, Control_c, 0, 64, 65
1, 38169, Note_on_c, 0, 73, 51
1, 38180, Control_c, 0, 64, 68
1, 38192, Note_off_c, 0, 73, 63
1, 38195, Control_c, 0, 64, 73
1, 38209, Control_c, 0, 64, 79
1, 38217, Note_on_c, 0, 75, 60
1, 38224, Control_c, 0, 64, 84
1, 38239, Control_c, 0, 64, 86
1, 38254, Control_c, 0, 64, 89
1, 38262, Note_on_c, 0, 73, 79
1, 38268, Control_c, 0, 64, 90
1, 38273, Note_off_c, 0, 66, 42
1, 38277, Note_off_c, 0, 75, 61
1, 38283, Control_c, 0, 64, 91
1, 38298, Control_c, 0, 64, 92
1, 38313, Control_c, 0, 64, 92
1, 38331, Note_off_c, 0, 73, 61
1, 38343, Control_c, 0, 67, 34
1, 38343, Note_on_c, 0, 49, 54
1, 38349, Note_on_c, 0, 72, 76
1, 38365, Control_c, 0, 67, 33
1, 38371, Note_off_c, 0, 46, 40
1, 38380, Control_c, 0, 67, 32
1, 38395, Control_c, 0, 67, 31
1, 38410, Control_c, 0, 67, 31
1, 38424, Control_c, 0, 67, 29
1, 38440, Control_c, 0, 67, 25
1, 38455, Control_c, 0, 67, 21
1, 38459, Note_on_c, 0, 73, 79
1, 38465, Note_off_c, 0, 72, 63
1, 38470, Control_c, 0, 67, 19
1, 38485, Control_c, 0, 67, 18
1, 38514, Control_c, 0, 64, 92
1, 38514, Control_c, 0, 67, 17
1, 38529, Control_c, 0, 67, 16
1, 38544, Control_c, 0, 67, 15
1, 38553, Note_on_c, 0, 80, 82
1, 38553, Note_off_c, 0, 73, 62
1, 38559, Control_c, 0, 64, 91
1, 38559, Control_c, 0, 67, 14
1, 38567, Note_on_c, 0, 61, 57
1, 38573, Control_c, 0, 67, 12
1, 38588, Control_c, 0, 67, 9
1, 38599, Note_off_c, 0, 61, 64
1, 38603, Control_c, 0, 64, 91
1, 38603, Control_c, 0, 67, 8
1, 38618, Control_c, 0, 67, 0
1, 38651, Note_on_c, 0, 78, 75
1, 38656, Note_off_c, 0, 80, 57
1, 38706, Control_c, 0, 64, 90
1, 38719, Note_off_c, 0, 78, 58
1, 38766, Control_c, 0, 64, 90
1, 38781, Control_c, 0, 64, 89
1, 38796, Control_c, 0, 64, 88
1, 38811, Control_c, 0, 64, 85
1, 38826, Control_c, 0, 64, 82
1, 38826, Note_on_c, 0, 78, 81
1, 38833, Note_on_c, 0, 68, 60
1, 38839, Note_on_c, 0, 44, 50
1, 38840, Control_c, 0, 64, 77
1, 38855, Control_c, 0, 64, 69
1, 38867, Note_off_c, 0, 49, 39
1, 38870, Control_c, 0, 64, 58
1, 38884, Control_c, 0, 64, 0
1, 38958, Control_c, 0, 64, 48
1, 38973, Control_c, 0, 64, 60
1, 38988, Control_c, 0, 64, 66
1, 39003, Control_c, 0, 64, 72
1, 39018, Control_c, 0, 64, 79
1, 39032, Control_c, 0, 64, 85
1, 39047, Control_c, 0, 64, 88
1, 39062, Control_c, 0, 64, 90
1, 39063, Note_on_c, 0, 77, 80
1, 39064, Note_off_c, 0, 44, 60
1, 39070, Note_on_c, 0, 49, 60
1, 39073, Note_off_c, 0, 68, 60
1, 39077, Control_c, 0, 64, 91
1, 39087, Note_off_c, 0, 78, 63
1, 39091, Control_c, 0, 64, 93
1, 39114, Control_c, 0, 64, 94
1, 39245, Note_on_c, 0, 75, 80
1, 39247, Note_on_c, 0, 61, 61
1, 39266, Note_off_c, 0, 77, 57
1, 39273, Note_off_c, 0, 61, 65
1, 39307, Control_c, 0, 64, 94
1, 39322, Control_c, 0, 64, 93
1, 39337, Control_c, 0, 64, 93
1, 39352, Control_c, 0, 64, 92
1, 39382, Control_c, 0, 64, 91
1, 39396, Control_c, 0, 64, 90
1, 39411, Control_c, 0, 64, 89
1, 39426, Control_c, 0, 64, 87
1, 39441, Control_c, 0, 64, 83
1, 39456, Control_c, 0, 64, 78
1, 39461, Note_on_c, 0, 77, 80
1, 39470, Note_on_c, 0, 70, 68
1, 39470, Control_c, 0, 64, 70
1, 39471, Note_on_c, 0, 42, 58
1, 39483, Note_off_c, 0, 49, 40
1, 39485, Control_c, 0, 64, 57
1, 39487, Note_off_c, 0, 75, 60
1, 39500, Control_c, 0, 64, 0
1, 39559, Control_c, 0, 64, 49
1, 39574, Control_c, 0, 64, 64
1, 39589, Control_c, 0, 64, 71
1, 39604, Control_c, 0, 64, 80
1, 39619, Control_c, 0, 64, 89
1, 39633, Control_c, 0, 64, 97
1, 39648, Control_c, 0, 64, 104
1, 39663, Control_c, 0, 64, 108
1, 39678, Control_c, 0, 64, 112
1, 39678, Note_on_c, 0, 75, 81
1, 39688, Note_off_c, 0, 42, 62
1, 39689, Note_on_c, 0, 49, 69
1, 39693, Control_c, 0, 64, 116
1, 39705, Note_off_c, 0, 77, 60
1, 39707, Note_off_c, 0, 70, 63
1, 39707, Control_c, 0, 64, 118
1, 39743, Note_off_c, 0, 75, 63
1, 39842, Note_on_c, 0, 61, 75
1, 39863, Control_c, 0, 64, 117
1, 39878, Control_c, 0, 64, 117
1, 39878, Note_off_c, 0, 61, 64
1, 39893, Control_c, 0, 64, 116
1, 39908, Control_c, 0, 64, 115
1, 39922, Control_c, 0, 64, 114
1, 39937, Control_c, 0, 64, 113
1, 39949, Note_on_c, 0, 77, 87
1, 39952, Control_c, 0, 64, 112
1, 39967, Control_c, 0, 64, 111
1, 39982, Control_c, 0, 64, 109
1, 39996, Control_c, 0, 64, 108
1, 40011, Control_c, 0, 64, 105
1, 40026, Control_c, 0, 64, 102
1, 40042, Control_c, 0, 64, 99
1, 40057, Control_c, 0, 64, 96
1, 40072, Control_c, 0, 64, 92
1, 40086, Control_c, 0, 64, 87
1, 40101, Control_c, 0, 64, 81
1, 40116, Control_c, 0, 64, 72
1, 40116, Note_on_c, 0, 44, 60
1, 40116, Note_on_c, 0, 73, 83
1, 40123, Note_on_c, 0, 65, 73
1, 40130, Control_c, 0, 64, 58
1, 40145, Control_c, 0, 64, 0
1, 40149, Note_off_c, 0, 49, 37
1, 40161, Note_off_c, 0, 77, 56
1, 40219, Control_c, 0, 64, 53
1, 40234, Control_c, 0, 64, 66
1, 40249, Control_c, 0, 64, 72
1, 40264, Control_c, 0, 64, 81
1, 40278, Control_c, 0, 64, 89
1, 40293, Control_c, 0, 64, 96
1, 40308, Control_c, 0, 64, 102
1, 40323, Control_c, 0, 64, 106
1, 40337, Note_off_c, 0, 73, 60
1, 40337, Control_c, 0, 64, 109
1, 40339, Note_on_c, 0, 49, 78
1, 40352, Control_c, 0, 64, 110
1, 40365, Note_off_c, 0, 44, 62
1, 40367, Control_c, 0, 64, 111
1, 40411, Control_c, 0, 64, 110
1, 40441, Control_c, 0, 64, 109
1, 40456, Control_c, 0, 64, 107
1, 40459, Note_off_c, 0, 65, 50
1, 40471, Control_c, 0, 64, 105
1, 40486, Control_c, 0, 64, 105
1, 40489, Note_on_c, 0, 73, 78
1, 40501, Control_c, 0, 64, 104
1, 40512, Note_on_c, 0, 61, 74
1, 40544, Note_off_c, 0, 73, 58
1, 40545, Control_c, 0, 64, 104
1, 40564, Note_off_c, 0, 61, 63
1, 40677, Note_on_c, 0, 73, 66
1, 40686, Control_c, 0, 64, 102
1, 40690, Note_on_c, 0, 66, 53
1, 40701, Control_c, 0, 64, 95
1, 40708, Note_off_c, 0, 73, 63
1, 40715, Note_on_c, 0, 46, 77
1, 40716, Control_c, 0, 64, 82
1, 40730, Control_c, 0, 64, 66
1, 40733, Note_off_c, 0, 49, 56
1, 40745, Note_on_c, 0, 75, 67
1, 40745, Control_c, 0, 64, 0
1, 40775, Control_c, 0, 64, 44
1, 40781, Note_off_c, 0, 66, 52
1, 40786, Note_on_c, 0, 73, 80
1, 40790, Control_c, 0, 64, 63
1, 40805, Control_c, 0, 64, 69
1, 40818, Note_off_c, 0, 75, 64
1, 40819, Control_c, 0, 64, 75
1, 40835, Control_c, 0, 64, 83
1, 40850, Control_c, 0, 64, 90
1, 40865, Control_c, 0, 64, 93
1, 40879, Control_c, 0, 64, 96
1, 40894, Control_c, 0, 64, 97
1, 40899, Note_on_c, 0, 72, 86
1, 40909, Control_c, 0, 64, 97
1, 40918, Note_off_c, 0, 73, 62
1, 40924, Control_c, 0, 64, 98
1, 40939, Control_c, 0, 64, 99
1, 40954, Control_c, 0, 64, 99
1, 40983, Control_c, 0, 64, 100
1, 40998, Note_on_c, 0, 49, 68
1, 40998, Control_c, 0, 64, 100
1, 41001, Note_on_c, 0, 73, 87
1, 41013, Control_c, 0, 64, 101
1, 41020, Note_off_c, 0, 72, 60
1, 41027, Control_c, 0, 64, 102
1, 41028, Note_off_c, 0, 46, 59
1, 41042, Control_c, 0, 64, 103
1, 41082, Note_off_c, 0, 73, 67
1, 41086, Control_c, 0, 64, 103
1, 41095, Note_on_c, 0, 75, 86
1, 41181, Note_off_c, 0, 75, 67
1, 41182, Note_on_c, 0, 77, 81
1, 41199, Note_on_c, 0, 61, 70
1, 41224, Note_off_c, 0, 61, 66
1, 41255, Note_on_c, 0, 78, 87
1, 41281, Note_off_c, 0, 77, 63
1, 41303, Note_off_c, 0, 78, 67
1, 41340, Note_on_c, 0, 65, 80
1, 41364, Note_on_c, 0, 77, 9
1, 41375, Control_c, 0, 64, 103
1, 41390, Control_c, 0, 64, 102
1, 41404, Note_on_c, 0, 73, 82
1, 41405, Control_c, 0, 64, 101
1, 41408, Note_off_c, 0, 65, 53
1, 41412, Note_off_c, 0, 77, 27
1, 41420, Control_c, 0, 64, 100
1, 41434, Control_c, 0, 64, 99
1, 41449, Control_c, 0, 64, 96
1, 41458, Note_on_c, 0, 44, 81
1, 41464, Control_c, 0, 64, 91
1, 41479, Control_c, 0, 64, 81
1, 41494, Control_c, 0, 64, 68
1, 41500, Note_off_c, 0, 49, 39
1, 41508, Control_c, 0, 64, 0
1, 41541, Note_on_c, 0, 80, 93
1, 41657, Control_c, 0, 64, 56
1, 41672, Control_c, 0, 64, 68
1, 41687, Control_c, 0, 64, 76
1, 41702, Control_c, 0, 64, 87
1, 41717, Control_c, 0, 64, 96
1, 41732, Control_c, 0, 64, 107
1, 41738, Note_off_c, 0, 44, 62
1, 41747, Control_c, 0, 64, 121
1, 41758, Note_on_c, 0, 56, 78
1, 41762, Control_c, 0, 64, 127
1, 41771, Note_off_c, 0, 73, 60
1, 41774, Note_off_c, 0, 80, 64
1, 41929, Note_off_c, 0, 56, 57
1, 41972, Note_on_c, 0, 61, 77
1, 42225, Note_on_c, 0, 85, 90
1, 42242, Note_on_c, 0, 77, 72
1, 42253, Note_on_c, 0, 68, 62
1, 42266, Note_off_c, 0, 61, 59
1, 42470, Note_off_c, 0, 68, 53
1, 42486, Note_on_c, 0, 61, 73
1, 42722, Note_off_c, 0, 77, 54
1, 42725, Note_off_c, 0, 85, 56
1, 42734, Note_on_c, 0, 56, 74
1, 42736, Note_off_c, 0, 61, 62
1, 42762, Note_off_c, 0, 56, 66
1, 42977, Control_c, 0, 64, 124
1, 42992, Control_c, 0, 64, 117
1, 42996, Note_on_c, 0, 32, 64
1, 43006, Control_c, 0, 64, 110
1, 43021, Control_c, 0, 64, 102
1, 43036, Control_c, 0, 64, 93
1, 43047, Note_on_c, 0, 84, 76
1, 43051, Control_c, 0, 64, 82
1, 43061, Note_on_c, 0, 75, 60
1, 43065, Control_c, 0, 64, 70
1, 43080, Control_c, 0, 64, 44
1, 43095, Control_c, 0, 64, 0
1, 43169, Control_c, 0, 64, 59
1, 43184, Control_c, 0, 64, 67
1, 43199, Control_c, 0, 64, 72
1, 43214, Control_c, 0, 64, 78
1, 43229, Control_c, 0, 64, 84
1, 43236, Note_on_c, 0, 80, 81
1, 43242, Note_off_c, 0, 84, 64
1, 43244, Control_c, 0, 64, 87
1, 43249, Note_on_c, 0, 72, 62
1, 43256, Note_off_c, 0, 75, 63
1, 43259, Control_c, 0, 64, 89
1, 43274, Control_c, 0, 64, 91
1, 43288, Control_c, 0, 64, 92
1, 43290, Note_off_c, 0, 72, 60
1, 43303, Control_c, 0, 64, 93
1, 43317, Note_off_c, 0, 80, 60
1, 43318, Control_c, 0, 64, 94
1, 43366, Note_off_c, 0, 32, 59
1, 43374, Note_on_c, 0, 82, 77
1, 43382, Note_on_c, 0, 73, 71
1, 43383, Note_on_c, 0, 44, 56
1, 43417, Note_off_c, 0, 44, 63
1, 43422, Control_c, 0, 64, 94
1, 43452, Note_off_c, 0, 82, 63
1, 43492, Note_on_c, 0, 78, 72
1, 43496, Note_on_c, 0, 70, 64
1, 43514, Note_off_c, 0, 73, 27
1, 43532, Note_off_c, 0, 70, 58
1, 43559, Note_off_c, 0, 78, 60
1, 43619, Note_on_c, 0, 80, 66
1, 43627, Note_on_c, 0, 72, 57
1, 43637, Note_on_c, 0, 54, 58
1, 43667, Control_c, 0, 64, 95
1, 43693, Note_off_c, 0, 72, 60
1, 43696, Control_c, 0, 64, 95
1, 43705, Note_off_c, 0, 80, 57
1, 43711, Note_on_c, 0, 77, 73
1, 43726, Note_on_c, 0, 68, 54
1, 43753, Note_off_c, 0, 77, 51
1, 43755, Note_off_c, 0, 68, 53
1, 43783, Note_off_c, 0, 54, 49
1, 43800, Control_c, 0, 64, 96
1, 43822, Note_on_c, 0, 78, 76
1, 43827, Note_on_c, 0, 60, 50
1, 43829, Control_c, 0, 64, 96
1, 43834, Note_on_c, 0, 70, 70
1, 43844, Control_c, 0, 64, 97
1, 43859, Control_c, 0, 64, 97
1, 43874, Control_c, 0, 64, 98
1, 43881, Note_off_c, 0, 78, 60
1, 43884, Note_off_c, 0, 70, 55
1, 43888, Control_c, 0, 64, 99
1, 43896, Note_off_c, 0, 60, 56
1, 43903, Control_c, 0, 64, 100
1, 43918, Control_c, 0, 64, 101
1, 43933, Note_on_c, 0, 75, 71
1, 43933, Control_c, 0, 64, 102
1, 43941, Note_on_c, 0, 66, 62
1, 43947, Control_c, 0, 64, 102
1, 43976, Note_off_c, 0, 66, 64
1, 44010, Note_off_c, 0, 75, 59
1, 44068, Note_on_c, 0, 77, 63
1, 44075, Note_on_c, 0, 54, 44
1, 44075, Note_on_c, 0, 68, 62
1, 44099, Note_off_c, 0, 77, 60
1, 44110, Note_off_c, 0, 68, 63
1, 44181, Note_off_c, 0, 54, 53
1, 44182, Note_on_c, 0, 73, 65
1, 44184, Note_on_c, 0, 65, 60
1, 44219, Note_off_c, 0, 65, 64
1, 44254, Note_off_c, 0, 73, 59
1, 44320, Note_on_c, 0, 75, 66
1, 44329, Note_on_c, 0, 66, 64
1, 44358, Note_on_c, 0, 44, 47
1, 44360, Note_off_c, 0, 75, 65
1, 44373, Note_off_c, 0, 66, 64
1, 44465, Note_on_c, 0, 68, 76
1, 44472, Note_on_c, 0, 56, 64
1, 44495, Note_off_c, 0, 56, 63
1, 44504, Control_c, 0, 64, 102
1, 44534, Control_c, 0, 64, 101
1, 44549, Control_c, 0, 64, 101
1, 44579, Control_c, 0, 64, 100
1, 44594, Control_c, 0, 64, 100
1, 44609, Control_c, 0, 64, 99
1, 44623, Control_c, 0, 64, 99
1, 44626, Note_off_c, 0, 44, 39
1, 44638, Control_c, 0, 64, 98
1, 44653, Control_c, 0, 64, 96
1, 44662, Note_off_c, 0, 68, 54
1, 44668, Control_c, 0, 64, 94
1, 44683, Control_c, 0, 64, 92
1, 44683, Note_on_c, 0, 73, 64
1, 44698, Control_c, 0, 64, 89
1, 44705, Note_on_c, 0, 65, 59
1, 44712, Control_c, 0, 64, 86
1, 44722, Note_on_c, 0, 37, 43
1, 44727, Control_c, 0, 64, 81
1, 44742, Control_c, 0, 64, 74
1, 44757, Control_c, 0, 64, 63
1, 44772, Control_c, 0, 64, 0
1, 44906, Control_c, 0, 64, 56
1, 44920, Control_c, 0, 64, 67
1, 44935, Control_c, 0, 64, 73
1, 44950, Control_c, 0, 64, 79
1, 44954, Note_off_c, 0, 73, 63
1, 44959, Note_off_c, 0, 65, 61
1, 44965, Control_c, 0, 64, 85
1, 44980, Control_c, 0, 64, 91
1, 44987, Note_off_c, 0, 37, 54
1, 44990, Note_on_c, 0, 44, 58
1, 44995, Control_c, 0, 64, 97
1, 45009, Control_c, 0, 64, 103
1, 45024, Control_c, 0, 64, 109
1, 45039, Control_c, 0, 64, 113
1, 45054, Control_c, 0, 64, 113
1, 45199, Note_on_c, 0, 56, 65
1, 45203, Note_off_c, 0, 44, 55
1, 45261, Note_off_c, 0, 56, 57
1, 45267, Control_c, 0, 64, 112
1, 45282, Control_c, 0, 64, 111
1, 45297, Control_c, 0, 64, 110
1, 45312, Control_c, 0, 64, 109
1, 45326, Control_c, 0, 64, 107
1, 45341, Control_c, 0, 64, 105
1, 45356, Control_c, 0, 64, 102
1, 45371, Control_c, 0, 64, 98
1, 45386, Control_c, 0, 64, 94
1, 45400, Control_c, 0, 64, 89
1, 45413, Note_on_c, 0, 75, 67
1, 45415, Control_c, 0, 64, 84
1, 45417, Note_on_c, 0, 66, 56
1, 45430, Control_c, 0, 64, 76
1, 45445, Control_c, 0, 64, 67
1, 45455, Note_on_c, 0, 56, 33
1, 45459, Control_c, 0, 64, 42
1, 45474, Control_c, 0, 64, 0
1, 45563, Control_c, 0, 64, 59
1, 45578, Control_c, 0, 64, 68
1, 45580, Note_off_c, 0, 66, 64
1, 45580, Note_off_c, 0, 75, 61
1, 45583, Note_on_c, 0, 72, 64
1, 45586, Note_on_c, 0, 63, 57
1, 45593, Control_c, 0, 64, 74
1, 45607, Control_c, 0, 64, 80
1, 45623, Control_c, 0, 64, 85
1, 45626, Note_off_c, 0, 63, 62
1, 45638, Control_c, 0, 64, 89
1, 45653, Control_c, 0, 64, 92
1, 45668, Control_c, 0, 64, 95
1, 45682, Control_c, 0, 64, 98
1, 45691, Note_off_c, 0, 72, 50
1, 45697, Control_c, 0, 64, 100
1, 45703, Note_on_c, 0, 66, 72
1, 45705, Note_on_c, 0, 75, 63
1, 45712, Control_c, 0, 64, 102
1, 45727, Control_c, 0, 64, 103
1, 45739, Note_off_c, 0, 66, 63
1, 45742, Control_c, 0, 64, 103
1, 45749, Note_off_c, 0, 75, 57
1, 45776, Note_off_c, 0, 56, 61
1, 45808, Note_on_c, 0, 61, 65
1, 45808, Note_on_c, 0, 70, 67
1, 45816, Control_c, 0, 64, 104
1, 45837, Note_off_c, 0, 61, 64
1, 45891, Note_off_c, 0, 70, 56
1, 45927, Control_c, 0, 64, 103
1, 45936, Note_on_c, 0, 66, 69
1, 45936, Note_on_c, 0, 75, 62
1, 45958, Note_on_c, 0, 44, 46
1, 45964, Note_off_c, 0, 66, 67
1, 45965, Note_off_c, 0, 75, 68
1, 46001, Control_c, 0, 64, 103
1, 46016, Control_c, 0, 64, 102
1, 46030, Control_c, 0, 64, 101
1, 46045, Control_c, 0, 64, 99
1, 46060, Control_c, 0, 64, 98
1, 46066, Note_on_c, 0, 68, 71
1, 46068, Note_on_c, 0, 56, 67
1, 46075, Control_c, 0, 64, 97
1, 46090, Control_c, 0, 64, 97
1, 46105, Note_off_c, 0, 56, 60
1, 46105, Control_c, 0, 64, 96
1, 46114, Note_off_c, 0, 44, 31
1, 46120, Control_c, 0, 64, 95
1, 46135, Control_c, 0, 64, 95
1, 46149, Control_c, 0, 64, 94
1, 46164, Control_c, 0, 64, 93
1, 46164, Control_c, 0, 67, 8
1, 46179, Control_c, 0, 64, 92
1, 46179, Control_c, 0, 67, 10
1, 46194, Control_c, 0, 64, 91
1, 46194, Control_c, 0, 67, 14
1, 46209, Control_c, 0, 64, 89
1, 46209, Control_c, 0, 67, 17
1, 46223, Control_c, 0, 64, 87
1, 46223, Control_c, 0, 67, 20
1, 46238, Control_c, 0, 64, 85
1, 46238, Control_c, 0, 67, 22
1, 46253, Control_c, 0, 64, 82
1, 46253, Control_c, 0, 67, 24
1, 46268, Control_c, 0, 64, 77
1, 46268, Control_c, 0, 67, 27
1, 46269, Note_on_c, 0, 73, 60
1, 46277, Note_on_c, 0, 65, 53
1, 46281, Note_on_c, 0, 37, 43
1, 46282, Control_c, 0, 64, 71
1, 46282, Control_c, 0, 67, 30
1, 46296, Note_off_c, 0, 68, 30
1, 46297, Control_c, 0, 64, 55
1, 46297, Control_c, 0, 67, 33
1, 46312, Control_c, 0, 64, 0
1, 46312, Control_c, 0, 67, 37
1, 46327, Control_c, 0, 67, 40
1, 46342, Control_c, 0, 67, 45
1, 46356, Control_c, 0, 67, 50
1, 46371, Control_c, 0, 67, 54
1, 46386, Control_c, 0, 67, 56
1, 46400, Control_c, 0, 67, 56
1, 46432, Control_c, 0, 64, 50
1, 46432, Control_c, 0, 67, 56
1, 46446, Control_c, 0, 64, 66
1, 46446, Control_c, 0, 67, 55
1, 46461, Control_c, 0, 64, 70
1, 46461, Control_c, 0, 67, 54
1, 46476, Control_c, 0, 64, 74
1, 46476, Control_c, 0, 67, 54
1, 46491, Note_off_c, 0, 73, 63
1, 46491, Control_c, 0, 64, 78
1, 46491, Control_c, 0, 67, 53
1, 46493, Note_off_c, 0, 65, 62
1, 46505, Control_c, 0, 64, 80
1, 46505, Control_c, 0, 67, 52
1, 46520, Control_c, 0, 64, 82
1, 46520, Control_c, 0, 67, 52
1, 46535, Control_c, 0, 64, 84
1, 46535, Control_c, 0, 67, 51
1, 46548, Note_off_c, 0, 37, 52
1, 46550, Control_c, 0, 64, 85
1, 46550, Control_c, 0, 67, 51
1, 46559, Note_on_c, 0, 44, 47
1, 46565, Control_c, 0, 64, 86
1, 46579, Control_c, 0, 64, 87
1, 46579, Control_c, 0, 67, 50
1, 46602, Control_c, 0, 67, 50
1, 46617, Control_c, 0, 67, 49
1, 46632, Control_c, 0, 67, 49
1, 46647, Control_c, 0, 67, 48
1, 46661, Control_c, 0, 67, 48
1, 46705, Control_c, 0, 67, 47
1, 46720, Control_c, 0, 67, 47
1, 46793, Note_off_c, 0, 44, 39
1, 46798, Note_on_c, 0, 56, 45
1, 46824, Control_c, 0, 67, 47
1, 46839, Control_c, 0, 67, 48
1, 46846, Note_off_c, 0, 56, 44
1, 46868, Control_c, 0, 67, 48
1, 46913, Control_c, 0, 64, 86
1, 46943, Control_c, 0, 64, 86
1, 46958, Control_c, 0, 64, 85
1, 46972, Control_c, 0, 64, 85
1, 46987, Control_c, 0, 64, 84
1, 46987, Control_c, 0, 67, 48
1, 47002, Control_c, 0, 64, 83
1, 47017, Control_c, 0, 64, 82
1, 47031, Control_c, 0, 64, 80
1, 47034, Note_on_c, 0, 75, 60
1, 47041, Note_on_c, 0, 66, 48
1, 47046, Control_c, 0, 64, 78
1, 47061, Control_c, 0, 64, 75
1, 47073, Note_on_c, 0, 56, 36
1, 47076, Control_c, 0, 64, 70
1, 47091, Control_c, 0, 64, 64
1, 47105, Control_c, 0, 64, 41
1, 47120, Control_c, 0, 64, 0
1, 47179, Control_c, 0, 64, 39
1, 47179, Control_c, 0, 67, 47
1, 47194, Control_c, 0, 64, 57
1, 47199, Note_off_c, 0, 66, 61
1, 47209, Control_c, 0, 64, 64
1, 47211, Note_off_c, 0, 75, 61
1, 47215, Note_on_c, 0, 72, 58
1, 47223, Note_on_c, 0, 63, 41
1, 47225, Control_c, 0, 64, 67
1, 47225, Control_c, 0, 67, 47
1, 47240, Control_c, 0, 64, 72
1, 47255, Control_c, 0, 64, 78
1, 47265, Note_off_c, 0, 63, 46
1, 47269, Control_c, 0, 64, 82
1, 47269, Control_c, 0, 67, 46
1, 47284, Control_c, 0, 64, 84
1, 47288, Note_off_c, 0, 72, 55
1, 47299, Control_c, 0, 64, 86
1, 47314, Control_c, 0, 64, 88
1, 47328, Control_c, 0, 64, 90
1, 47349, Note_on_c, 0, 75, 63
1, 47351, Control_c, 0, 64, 91
1, 47358, Note_on_c, 0, 66, 63
1, 47394, Note_off_c, 0, 66, 64
1, 47405, Note_off_c, 0, 75, 54
1, 47434, Note_off_c, 0, 56, 42
1, 47479, Note_on_c, 0, 70, 56
1, 47486, Note_on_c, 0, 61, 49
1, 47514, Control_c, 0, 67, 47
1, 47515, Note_off_c, 0, 61, 55
1, 47556, Note_off_c, 0, 70, 56
1, 47602, Control_c, 0, 67, 47
1, 47612, Note_on_c, 0, 75, 62
1, 47631, Note_on_c, 0, 66, 48
1, 47632, Control_c, 0, 67, 48
1, 47634, Note_off_c, 0, 75, 67
1, 47642, Note_on_c, 0, 44, 36
1, 47651, Note_off_c, 0, 66, 64
1, 47676, Control_c, 0, 67, 48
1, 47706, Control_c, 0, 64, 91
1, 47706, Control_c, 0, 67, 49
1, 47736, Control_c, 0, 64, 90
1, 47750, Control_c, 0, 67, 49
1, 47765, Control_c, 0, 64, 90
1, 47767, Note_on_c, 0, 68, 63
1, 47774, Note_on_c, 0, 56, 47
1, 47780, Control_c, 0, 67, 50
1, 47795, Control_c, 0, 64, 89
1, 47795, Control_c, 0, 67, 51
1, 47804, Note_off_c, 0, 44, 35
1, 47810, Note_off_c, 0, 56, 52
1, 47810, Control_c, 0, 64, 89
1, 47840, Control_c, 0, 64, 88
1, 47854, Control_c, 0, 64, 88
1, 47854, Control_c, 0, 67, 51
1, 47869, Control_c, 0, 64, 87
1, 47899, Control_c, 0, 64, 87
1, 47914, Control_c, 0, 64, 86
1, 47928, Control_c, 0, 64, 86
1, 47943, Control_c, 0, 64, 85
1, 47958, Control_c, 0, 64, 84
1, 47973, Control_c, 0, 64, 83
1, 47988, Control_c, 0, 64, 82
1, 48000, Note_off_c, 0, 68, 33
1, 48002, Control_c, 0, 64, 81
1, 48002, Control_c, 0, 67, 51
1, 48018, Control_c, 0, 64, 79
1, 48024, Note_on_c, 0, 73, 60
1, 48033, Control_c, 0, 64, 77
1, 48035, Note_on_c, 0, 65, 50
1, 48048, Control_c, 0, 64, 74
1, 48051, Note_on_c, 0, 37, 32
1, 48063, Control_c, 0, 64, 68
1, 48077, Control_c, 0, 64, 58
1, 48077, Control_c, 0, 67, 50
1, 48099, Control_c, 0, 64, 0
1, 48189, Control_c, 0, 67, 50
1, 48218, Control_c, 0, 64, 43
1, 48233, Control_c, 0, 64, 65
1, 48248, Control_c, 0, 64, 71
1, 48263, Control_c, 0, 64, 75
1, 48263, Control_c, 0, 67, 49
1, 48277, Control_c, 0, 64, 79
1, 48292, Control_c, 0, 64, 82
1, 48307, Control_c, 0, 64, 86
1, 48322, Control_c, 0, 64, 88
1, 48322, Control_c, 0, 67, 49
1, 48326, Note_off_c, 0, 73, 58
1, 48327, Note_off_c, 0, 65, 59
1, 48337, Control_c, 0, 64, 90
1, 48351, Control_c, 0, 64, 91
1, 48353, Note_off_c, 0, 37, 42
1, 48357, Note_on_c, 0, 44, 42
1, 48469, Control_c, 0, 67, 48
1, 48543, Control_c, 0, 67, 49
1, 48545, Note_off_c, 0, 44, 35
1, 48558, Note_on_c, 0, 56, 48
1, 48573, Control_c, 0, 67, 49
1, 48603, Control_c, 0, 64, 90
1, 48631, Note_on_c, 0, 66, 64
1, 48633, Control_c, 0, 64, 90
1, 48633, Control_c, 0, 67, 50
1, 48648, Control_c, 0, 64, 89
1, 48648, Control_c, 0, 67, 50
1, 48663, Control_c, 0, 64, 89
1, 48663, Control_c, 0, 67, 51
1, 48677, Control_c, 0, 64, 88
1, 48692, Control_c, 0, 64, 87
1, 48707, Control_c, 0, 64, 86
1, 48707, Control_c, 0, 67, 51
1, 48722, Control_c, 0, 64, 84
1, 48725, Note_off_c, 0, 66, 56
1, 48737, Control_c, 0, 64, 81
1, 48740, Note_on_c, 0, 73, 61
1, 48742, Note_on_c, 0, 68, 56
1, 48750, Note_on_c, 0, 65, 60
1, 48751, Control_c, 0, 64, 76
1, 48766, Control_c, 0, 64, 69
1, 48766, Control_c, 0, 67, 52
1, 48781, Control_c, 0, 64, 56
1, 48795, Control_c, 0, 64, 0
1, 48810, Control_c, 0, 67, 52
1, 48893, Control_c, 0, 64, 49
1, 48907, Control_c, 0, 64, 64
1, 48922, Control_c, 0, 64, 69
1, 48937, Control_c, 0, 64, 74
1, 48950, Note_off_c, 0, 56, 62
1, 48952, Control_c, 0, 64, 79
1, 48957, Note_on_c, 0, 44, 51
1, 48967, Control_c, 0, 64, 82
1, 48982, Control_c, 0, 64, 85
1, 48982, Control_c, 0, 67, 53
1, 48996, Control_c, 0, 64, 86
1, 49002, Note_off_c, 0, 65, 62
1, 49011, Control_c, 0, 64, 88
1, 49026, Control_c, 0, 64, 88
1, 49044, Note_off_c, 0, 73, 51
1, 49095, Note_off_c, 0, 68, 31
1, 49135, Note_off_c, 0, 44, 35
1, 49145, Control_c, 0, 64, 88
1, 49160, Control_c, 0, 64, 87
1, 49174, Control_c, 0, 64, 87
1, 49189, Control_c, 0, 64, 86
1, 49204, Control_c, 0, 64, 85
1, 49205, Note_on_c, 0, 37, 34
1, 49219, Control_c, 0, 64, 84
1, 49234, Control_c, 0, 64, 83
1, 49248, Control_c, 0, 64, 82
1, 49263, Control_c, 0, 64, 80
1, 49278, Control_c, 0, 64, 79
1, 49291, Note_on_c, 0, 66, 60
1, 49292, Control_c, 0, 64, 77
1, 49307, Control_c, 0, 64, 75
1, 49322, Control_c, 0, 64, 73
1, 49337, Control_c, 0, 64, 70
1, 49337, Control_c, 0, 67, 52
1, 49352, Control_c, 0, 64, 68
1, 49366, Control_c, 0, 64, 63
1, 49381, Control_c, 0, 64, 54
1, 49396, Control_c, 0, 64, 18
1, 49403, Note_off_c, 0, 66, 58
1, 49411, Control_c, 0, 64, 0
1, 49411, Control_c, 0, 67, 52
1, 49415, Note_on_c, 0, 68, 52
1, 49417, Note_on_c, 0, 73, 52
1, 49419, Note_on_c, 0, 65, 48
1, 49441, Control_c, 0, 67, 51
1, 49545, Control_c, 0, 67, 51
1, 49560, Control_c, 0, 64, 33
1, 49574, Control_c, 0, 64, 63
1, 49596, Control_c, 0, 64, 68
1, 49611, Control_c, 0, 64, 73
1, 49627, Control_c, 0, 64, 76
1, 49642, Control_c, 0, 64, 79
1, 49657, Control_c, 0, 64, 82
1, 49657, Control_c, 0, 67, 50
1, 49671, Control_c, 0, 64, 84
1, 49683, Note_on_c, 0, 44, 39
1, 49686, Control_c, 0, 64, 85
1, 49689, Note_off_c, 0, 65, 61
1, 49693, Note_off_c, 0, 37, 42
1, 49701, Control_c, 0, 64, 86
1, 49716, Control_c, 0, 64, 87
1, 49760, Control_c, 0, 67, 50
1, 49775, Control_c, 0, 67, 49
1, 49786, Note_off_c, 0, 68, 27
1, 49808, Note_off_c, 0, 73, 25
1, 49819, Control_c, 0, 67, 49
1, 49849, Control_c, 0, 67, 48
1, 49864, Control_c, 0, 64, 86
1, 49894, Control_c, 0, 64, 86
1, 49909, Control_c, 0, 64, 85
1, 49909, Control_c, 0, 67, 48
1, 49923, Control_c, 0, 64, 85
1, 49931, Note_on_c, 0, 56, 41
1, 49938, Control_c, 0, 64, 84
1, 49946, Note_off_c, 0, 44, 24
1, 49953, Control_c, 0, 64, 84
1, 49968, Control_c, 0, 64, 83
1, 49983, Control_c, 0, 64, 82
1, 49997, Control_c, 0, 64, 81
1, 49997, Control_c, 0, 67, 48
1, 50012, Control_c, 0, 64, 79
1, 50024, Note_on_c, 0, 66, 56
1, 50027, Control_c, 0, 64, 78
1, 50041, Control_c, 0, 64, 76
1, 50056, Control_c, 0, 64, 74
1, 50056, Control_c, 0, 67, 49
1, 50071, Control_c, 0, 64, 73
1, 50086, Control_c, 0, 64, 71
1, 50101, Control_c, 0, 64, 69
1, 50115, Control_c, 0, 64, 66
1, 50130, Control_c, 0, 64, 58
1, 50145, Control_c, 0, 64, 24
1, 50148, Note_off_c, 0, 66, 56
1, 50160, Control_c, 0, 64, 0
1, 50165, Note_on_c, 0, 73, 48
1, 50173, Note_on_c, 0, 68, 37
1, 50175, Note_on_c, 0, 65, 47
1, 50278, Control_c, 0, 67, 48
1, 50345, Control_c, 0, 64, 54
1, 50361, Control_c, 0, 64, 64
1, 50376, Control_c, 0, 64, 68
1, 50376, Control_c, 0, 67, 48
1, 50391, Control_c, 0, 64, 71
1, 50405, Control_c, 0, 64, 75
1, 50421, Control_c, 0, 64, 79
1, 50430, Note_on_c, 0, 44, 43
1, 50431, Note_off_c, 0, 56, 50
1, 50436, Control_c, 0, 64, 82
1, 50451, Control_c, 0, 64, 85
1, 50451, Control_c, 0, 67, 47
1, 50465, Control_c, 0, 64, 87
1, 50480, Control_c, 0, 64, 88
1, 50480, Control_c, 0, 67, 47
1, 50495, Control_c, 0, 64, 89
1, 50510, Control_c, 0, 64, 90
1, 50525, Control_c, 0, 64, 90
1, 50532, Note_off_c, 0, 65, 38
1, 50554, Control_c, 0, 67, 46
1, 50560, Note_off_c, 0, 73, 27
1, 50605, Note_off_c, 0, 68, 31
1, 50638, Note_off_c, 0, 44, 38
1, 50658, Control_c, 0, 67, 46
1, 50717, Control_c, 0, 67, 45
1, 50821, Control_c, 0, 64, 90
1, 50860, Note_on_c, 0, 37, 34
1, 50865, Control_c, 0, 64, 89
1, 50865, Control_c, 0, 67, 45
1, 50895, Control_c, 0, 64, 89
1, 50939, Control_c, 0, 64, 88
1, 50984, Control_c, 0, 64, 88
1, 50984, Control_c, 0, 67, 44
1, 50993, Note_on_c, 0, 66, 48
1, 51013, Control_c, 0, 64, 87
1, 51028, Control_c, 0, 67, 41
1, 51043, Control_c, 0, 67, 38
1, 51058, Control_c, 0, 67, 37
1, 51072, Control_c, 0, 64, 87
1, 51072, Control_c, 0, 67, 36
1, 51095, Control_c, 0, 67, 35
1, 51109, Control_c, 0, 67, 34
1, 51124, Control_c, 0, 67, 33
1, 51139, Control_c, 0, 67, 32
1, 51153, Control_c, 0, 67, 31
1, 51168, Control_c, 0, 67, 30
1, 51183, Control_c, 0, 67, 29
1, 51197, Control_c, 0, 64, 86
1, 51212, Control_c, 0, 67, 28
1, 51243, Control_c, 0, 64, 86
1, 51273, Control_c, 0, 64, 85
1, 51317, Control_c, 0, 64, 85
1, 51332, Control_c, 0, 64, 84
1, 51361, Control_c, 0, 64, 84
1, 51376, Control_c, 0, 64, 83
1, 51391, Control_c, 0, 64, 83
1, 51406, Control_c, 0, 64, 82
1, 51421, Control_c, 0, 64, 81
1, 51435, Control_c, 0, 64, 80
1, 51437, Note_on_c, 0, 64, 57
1, 51437, Note_on_c, 0, 73, 44
1, 51450, Control_c, 0, 64, 79
1, 51460, Note_on_c, 0, 68, 42
1, 51465, Control_c, 0, 64, 78
1, 51471, Note_off_c, 0, 66, 32
1, 51480, Control_c, 0, 64, 76
1, 51494, Control_c, 0, 64, 75
1, 51509, Control_c, 0, 64, 72
1, 51524, Control_c, 0, 64, 68
1, 51539, Control_c, 0, 64, 63
1, 51554, Control_c, 0, 64, 44
1, 51569, Control_c, 0, 64, 0
1, 51717, Control_c, 0, 67, 28
1, 51732, Control_c, 0, 64, 36
1, 51747, Control_c, 0, 64, 61
1, 51761, Control_c, 0, 64, 66
1, 51776, Control_c, 0, 64, 70
1, 51776, Control_c, 0, 67, 27
1, 51791, Control_c, 0, 64, 73
1, 51806, Control_c, 0, 64, 77
1, 51820, Control_c, 0, 64, 80
1, 51843, Control_c, 0, 64, 82
1, 51843, Control_c, 0, 67, 27
1, 51858, Control_c, 0, 64, 85
1, 51873, Control_c, 0, 64, 87
1, 51873, Control_c, 0, 67, 26
1, 51888, Control_c, 0, 64, 89
1, 51888, Control_c, 0, 67, 22
1, 51902, Control_c, 0, 64, 91
1, 51902, Control_c, 0, 67, 18
1, 51917, Control_c, 0, 64, 93
1, 51917, Control_c, 0, 67, 13
1, 51932, Control_c, 0, 64, 95
1, 51932, Control_c, 0, 67, 11
1, 51947, Note_off_c, 0, 37, 42
1, 51947, Control_c, 0, 64, 97
1, 51947, Control_c, 0, 67, 9
1, 51949, Note_on_c, 0, 44, 39
1, 51962, Control_c, 0, 64, 99
1, 51962, Control_c, 0, 67, 0
1, 51974, Note_off_c, 0, 68, 41
1, 51976, Control_c, 0, 64, 100
1, 51991, Control_c, 0, 64, 101
1, 52006, Control_c, 0, 64, 102
1, 52013, Note_off_c, 0, 73, 58
1, 52022, Control_c, 0, 64, 102
1, 52037, Control_c, 0, 64, 103
1, 52052, Control_c, 0, 64, 103
1, 52061, Note_off_c, 0, 64, 48
1, 52081, Control_c, 0, 64, 104
1, 52170, Control_c, 0, 64, 104
1, 52199, Note_on_c, 0, 56, 48
1, 52251, Note_off_c, 0, 44, 37
1, 52275, Note_off_c, 0, 56, 56
1, 52389, Note_on_c, 0, 73, 61
1, 52401, Note_on_c, 0, 64, 55
1, 52405, Note_on_c, 0, 68, 52
1, 52419, Note_on_c, 0, 56, 47
1, 52473, Note_off_c, 0, 64, 63
1, 52496, Control_c, 0, 64, 105
1, 52511, Note_off_c, 0, 68, 63
1, 52525, Control_c, 0, 64, 106
1, 52540, Control_c, 0, 64, 108
1, 52555, Control_c, 0, 64, 110
1, 52570, Control_c, 0, 64, 113
1, 52579, Note_off_c, 0, 56, 62
1, 52591, Control_c, 0, 64, 116
1, 52606, Control_c, 0, 64, 119
1, 52621, Control_c, 0, 64, 124
1, 52629, Note_on_c, 0, 44, 53
1, 52636, Control_c, 0, 64, 127
1, 52709, Note_on_c, 0, 66, 74
1, 52714, Note_on_c, 0, 75, 69
1, 52717, Note_off_c, 0, 73, 55
1, 52852, Note_on_c, 0, 76, 77
1, 52857, Note_off_c, 0, 44, 36
1, 52865, Note_on_c, 0, 37, 46
1, 52868, Note_on_c, 0, 68, 65
1, 52871, Note_on_c, 0, 73, 57
1, 52891, Note_off_c, 0, 66, 49
1, 52927, Note_off_c, 0, 76, 65
1, 52930, Note_off_c, 0, 75, 38
1, 52946, Note_off_c, 0, 73, 61
1, 52950, Note_off_c, 0, 68, 59
1, 52974, Note_off_c, 0, 37, 58
1, 53140, Control_c, 0, 64, 120
1, 53155, Control_c, 0, 64, 114
1, 53170, Control_c, 0, 64, 108
1, 53185, Control_c, 0, 64, 101
1, 53197, Note_on_c, 0, 68, 79
1, 53200, Control_c, 0, 64, 94
1, 53211, Note_on_c, 0, 59, 61
1, 53214, Note_on_c, 0, 64, 59
1, 53214, Control_c, 0, 64, 87
1, 53217, Note_on_c, 0, 37, 51
1, 53229, Control_c, 0, 64, 79
1, 53244, Control_c, 0, 64, 69
1, 53259, Control_c, 0, 64, 46
1, 53274, Control_c, 0, 64, 0
1, 53385, Control_c, 0, 64, 48
1, 53400, Control_c, 0, 64, 65
1, 53414, Control_c, 0, 64, 70
1, 53429, Control_c, 0, 64, 75
1, 53444, Control_c, 0, 64, 79
1, 53459, Control_c, 0, 64, 83
1, 53474, Control_c, 0, 64, 87
1, 53489, Control_c, 0, 64, 90
1, 53499, Note_off_c, 0, 59, 62
1, 53504, Control_c, 0, 64, 92
1, 53509, Note_on_c, 0, 44, 67
1, 53519, Note_off_c, 0, 37, 54
1, 53519, Control_c, 0, 64, 93
1, 53533, Control_c, 0, 64, 95
1, 53548, Control_c, 0, 64, 95
1, 53552, Note_off_c, 0, 64, 62
1, 53563, Control_c, 0, 64, 96
1, 53574, Note_off_c, 0, 68, 61
1, 53696, Note_on_c, 0, 56, 78
1, 53757, Note_off_c, 0, 56, 63
1, 53815, Control_c, 0, 64, 95
1, 53830, Control_c, 0, 64, 93
1, 53845, Control_c, 0, 64, 86
1, 53850, Note_on_c, 0, 64, 61
1, 53850, Note_on_c, 0, 68, 74
1, 53860, Control_c, 0, 64, 73
1, 53872, Note_on_c, 0, 54, 63
1, 53873, Note_off_c, 0, 44, 57
1, 53875, Control_c, 0, 64, 54
1, 53889, Control_c, 0, 64, 0
1, 53944, Note_on_c, 0, 70, 71
1, 53949, Note_off_c, 0, 68, 62
1, 53949, Control_c, 0, 64, 54
1, 53963, Control_c, 0, 64, 66
1, 53978, Control_c, 0, 64, 72
1, 53993, Control_c, 0, 64, 78
1, 54004, Note_off_c, 0, 70, 64
1, 54007, Control_c, 0, 64, 85
1, 54010, Note_on_c, 0, 71, 71
1, 54022, Control_c, 0, 64, 91
1, 54037, Control_c, 0, 64, 97
1, 54052, Control_c, 0, 64, 103
1, 54067, Control_c, 0, 64, 108
1, 54080, Note_off_c, 0, 71, 60
1, 54089, Control_c, 0, 64, 114
1, 54091, Note_on_c, 0, 70, 71
1, 54100, Note_off_c, 0, 54, 61
1, 54105, Control_c, 0, 64, 122
1, 54120, Control_c, 0, 64, 127
1, 54130, Note_on_c, 0, 42, 70
1, 54145, Note_off_c, 0, 70, 56
1, 54156, Note_on_c, 0, 71, 66
1, 54181, Note_off_c, 0, 42, 62
1, 54216, Note_off_c, 0, 71, 60
1, 54223, Note_on_c, 0, 70, 69
1, 54283, Note_off_c, 0, 70, 62
1, 54291, Note_on_c, 0, 71, 69
1, 54348, Note_on_c, 0, 30, 75
1, 54356, Note_on_c, 0, 70, 77
1, 54356, Note_off_c, 0, 71, 61
1, 54393, Note_off_c, 0, 30, 64
1, 54417, Note_off_c, 0, 70, 62
1, 54420, Note_on_c, 0, 71, 72
1, 54429, Note_off_c, 0, 64, 51
1, 54489, Note_on_c, 0, 70, 73
1, 54491, Note_off_c, 0, 71, 62
1, 54517, Note_off_c, 0, 70, 60
1, 54527, Note_on_c, 0, 68, 71
1, 54579, Note_on_c, 0, 70, 80
1, 54582, Note_off_c, 0, 68, 65
1, 54654, Control_c, 0, 64, 119
1, 54661, Note_off_c, 0, 70, 53
1, 54669, Control_c, 0, 64, 108
1, 54678, Note_on_c, 0, 71, 76
1, 54684, Control_c, 0, 64, 97
1, 54689, Note_on_c, 0, 63, 69
1, 54699, Control_c, 0, 64, 85
1, 54703, Note_on_c, 0, 35, 56
1, 54713, Control_c, 0, 64, 70
1, 54728, Control_c, 0, 64, 31
1, 54743, Control_c, 0, 64, 0
1, 54884, Control_c, 0, 64, 56
1, 54899, Control_c, 0, 64, 68
1, 54913, Control_c, 0, 64, 77
1, 54928, Control_c, 0, 64, 85
1, 54943, Control_c, 0, 64, 92
1, 54955, Note_off_c, 0, 35, 59
1, 54958, Control_c, 0, 64, 100
1, 54971, Note_on_c, 0, 42, 74
1, 54973, Control_c, 0, 64, 108
1, 54984, Note_off_c, 0, 63, 64
1, 54987, Control_c, 0, 64, 113
1, 54997, Note_off_c, 0, 71, 58
1, 55002, Control_c, 0, 64, 117
1, 55017, Control_c, 0, 64, 118
1, 55170, Note_on_c, 0, 54, 74
1, 55197, Note_off_c, 0, 42, 61
1, 55210, Control_c, 0, 64, 117
1, 55225, Control_c, 0, 64, 117
1, 55240, Control_c, 0, 64, 115
1, 55253, Note_off_c, 0, 54, 57
1, 55255, Control_c, 0, 64, 114
1, 55269, Control_c, 0, 64, 113
1, 55284, Control_c, 0, 64, 113
1, 55299, Control_c, 0, 64, 112
1, 55314, Control_c, 0, 64, 111
1, 55329, Control_c, 0, 64, 111
1, 55343, Control_c, 0, 64, 110
1, 55358, Control_c, 0, 64, 108
1, 55373, Control_c, 0, 64, 107
1, 55388, Control_c, 0, 64, 104
1, 55392, Note_on_c, 0, 73, 76
1, 55403, Control_c, 0, 64, 101
1, 55409, Note_on_c, 0, 64, 57
1, 55417, Control_c, 0, 64, 98
1, 55426, Note_on_c, 0, 54, 48
1, 55432, Control_c, 0, 64, 94
1, 55447, Control_c, 0, 64, 88
1, 55462, Control_c, 0, 64, 79
1, 55477, Control_c, 0, 64, 68
1, 55492, Control_c, 0, 64, 0
1, 55566, Control_c, 0, 64, 46
1, 55567, Note_on_c, 0, 70, 76
1, 55585, Note_off_c, 0, 64, 62
1, 55587, Note_on_c, 0, 61, 53
1, 55588, Control_c, 0, 64, 63
1, 55602, Control_c, 0, 64, 67
1, 55603, Note_off_c, 0, 73, 62
1, 55617, Control_c, 0, 64, 72
1, 55626, Note_off_c, 0, 61, 62
1, 55632, Control_c, 0, 64, 76
1, 55647, Control_c, 0, 64, 82
1, 55661, Control_c, 0, 64, 87
1, 55676, Control_c, 0, 64, 91
1, 55691, Note_off_c, 0, 70, 57
1, 55691, Control_c, 0, 64, 94
1, 55695, Note_on_c, 0, 73, 75
1, 55706, Control_c, 0, 64, 95
1, 55712, Note_on_c, 0, 64, 62
1, 55721, Control_c, 0, 64, 96
1, 55735, Control_c, 0, 64, 96
1, 55750, Note_off_c, 0, 73, 64
1, 55802, Note_on_c, 0, 68, 70
1, 55808, Note_on_c, 0, 59, 59
1, 55816, Note_off_c, 0, 64, 58
1, 55832, Note_off_c, 0, 54, 60
1, 55832, Note_off_c, 0, 59, 55
1, 55933, Note_on_c, 0, 73, 64
1, 55934, Note_on_c, 0, 64, 69
1, 55951, Note_off_c, 0, 68, 35
1, 55961, Note_off_c, 0, 73, 66
1, 55963, Note_off_c, 0, 64, 66
1, 55967, Note_on_c, 0, 42, 45
1, 56057, Note_on_c, 0, 66, 75
1, 56059, Note_on_c, 0, 54, 72
1, 56063, Control_c, 0, 64, 96
1, 56077, Control_c, 0, 64, 95
1, 56091, Note_off_c, 0, 54, 64
1, 56092, Control_c, 0, 64, 94
1, 56107, Control_c, 0, 64, 94
1, 56122, Control_c, 0, 64, 92
1, 56137, Control_c, 0, 64, 91
1, 56152, Control_c, 0, 64, 89
1, 56166, Control_c, 0, 64, 87
1, 56181, Control_c, 0, 64, 84
1, 56196, Control_c, 0, 64, 81
1, 56211, Control_c, 0, 64, 78
1, 56226, Control_c, 0, 64, 73
1, 56240, Control_c, 0, 64, 68
1, 56250, Note_off_c, 0, 42, 29
1, 56255, Control_c, 0, 64, 58
1, 56260, Note_off_c, 0, 66, 57
1, 56270, Control_c, 0, 64, 18
1, 56272, Note_on_c, 0, 71, 63
1, 56285, Note_on_c, 0, 63, 53
1, 56285, Control_c, 0, 64, 0
1, 56299, Note_on_c, 0, 35, 31
1, 56499, Control_c, 0, 64, 58
1, 56514, Control_c, 0, 64, 69
1, 56529, Control_c, 0, 64, 74
1, 56544, Control_c, 0, 64, 81
1, 56554, Note_off_c, 0, 35, 41
1, 56559, Control_c, 0, 64, 87
1, 56574, Control_c, 0, 64, 91
1, 56574, Note_off_c, 0, 71, 59
1, 56577, Note_on_c, 0, 42, 54
1, 56589, Control_c, 0, 64, 95
1, 56604, Control_c, 0, 64, 98
1, 56616, Note_off_c, 0, 63, 62
1, 56618, Control_c, 0, 64, 99
1, 56633, Control_c, 0, 64, 100
1, 56820, Note_on_c, 0, 54, 52
1, 56873, Note_off_c, 0, 54, 54
1, 56890, Note_off_c, 0, 42, 28
1, 56900, Control_c, 0, 64, 100
1, 56930, Control_c, 0, 64, 99
1, 56974, Control_c, 0, 64, 99
1, 56989, Control_c, 0, 64, 98
1, 57019, Control_c, 0, 64, 98
1, 57033, Control_c, 0, 64, 97
1, 57048, Control_c, 0, 64, 97
1, 57063, Control_c, 0, 64, 96
1, 57072, Note_on_c, 0, 73, 56
1, 57086, Control_c, 0, 64, 95
1, 57087, Note_on_c, 0, 64, 50
1, 57101, Control_c, 0, 64, 93
1, 57115, Control_c, 0, 64, 90
1, 57128, Note_on_c, 0, 54, 34
1, 57130, Control_c, 0, 64, 87
1, 57145, Control_c, 0, 64, 83
1, 57160, Control_c, 0, 64, 77
1, 57175, Control_c, 0, 64, 69
1, 57189, Control_c, 0, 64, 56
1, 57204, Control_c, 0, 64, 0
1, 57248, Control_c, 0, 64, 25
1, 57251, Note_off_c, 0, 73, 55
1, 57257, Note_off_c, 0, 64, 61
1, 57263, Control_c, 0, 64, 53
1, 57268, Note_on_c, 0, 70, 58
1, 57278, Control_c, 0, 64, 62
1, 57293, Control_c, 0, 64, 66
1, 57295, Note_on_c, 0, 61, 28
1, 57307, Control_c, 0, 64, 71
1, 57322, Control_c, 0, 64, 76
1, 57331, Note_off_c, 0, 61, 50
1, 57337, Control_c, 0, 64, 81
1, 57352, Control_c, 0, 64, 83
1, 57367, Control_c, 0, 64, 85
1, 57382, Control_c, 0, 64, 87
1, 57384, Note_off_c, 0, 70, 37
1, 57388, Note_on_c, 0, 73, 62
1, 57397, Control_c, 0, 64, 89
1, 57409, Note_on_c, 0, 64, 53
1, 57412, Control_c, 0, 64, 91
1, 57426, Control_c, 0, 64, 92
1, 57441, Control_c, 0, 64, 93
1, 57446, Note_off_c, 0, 64, 63
1, 57495, Note_off_c, 0, 73, 36
1, 57513, Note_off_c, 0, 54, 41
1, 57520, Note_on_c, 0, 68, 62
1, 57576, Poly_aftertouch_c, 0, 59, 0
1, 57612, Poly_aftertouch_c, 0, 59, 0
1, 57626, Note_off_c, 0, 68, 53
1, 57677, Note_on_c, 0, 73, 44
1, 57683, Note_on_c, 0, 64, 51
1, 57697, Note_on_c, 0, 42, 40
1, 57702, Note_off_c, 0, 73, 54
1, 57708, Note_off_c, 0, 64, 63
1, 57753, Control_c, 0, 64, 92
1, 57783, Control_c, 0, 64, 92
1, 57812, Control_c, 0, 64, 91
1, 57835, Control_c, 0, 64, 91
1, 57836, Note_on_c, 0, 66, 63
1, 57849, Control_c, 0, 64, 90
1, 57850, Note_on_c, 0, 54, 40
1, 57863, Control_c, 0, 64, 90
1, 57887, Note_off_c, 0, 54, 48
1, 57893, Control_c, 0, 64, 89
1, 57908, Control_c, 0, 64, 89
1, 57937, Control_c, 0, 64, 88
1, 57967, Control_c, 0, 64, 88
1, 57981, Note_off_c, 0, 42, 31
1, 57997, Control_c, 0, 64, 87
1, 58026, Control_c, 0, 64, 87
1, 58041, Control_c, 0, 64, 86
1, 58055, Control_c, 0, 64, 86
1, 58067, Note_off_c, 0, 66, 34
1, 58070, Control_c, 0, 64, 85
1, 58085, Control_c, 0, 64, 84
1, 58100, Control_c, 0, 64, 83
1, 58109, Note_on_c, 0, 71, 55
1, 58115, Control_c, 0, 64, 82
1, 58130, Note_on_c, 0, 35, 37
1, 58130, Note_on_c, 0, 63, 46
1, 58130, Control_c, 0, 64, 80
1, 58145, Control_c, 0, 64, 77
1, 58160, Control_c, 0, 64, 73
1, 58175, Control_c, 0, 64, 65
1, 58189, Control_c, 0, 64, 0
1, 58337, Control_c, 0, 64, 10
1, 58352, Control_c, 0, 64, 63
1, 58367, Control_c, 0, 64, 70
1, 58381, Control_c, 0, 64, 75
1, 58396, Control_c, 0, 64, 80
1, 58413, Control_c, 0, 64, 84
1, 58416, Note_off_c, 0, 71, 60
1, 58423, Note_off_c, 0, 35, 41
1, 58427, Control_c, 0, 64, 88
1, 58442, Control_c, 0, 64, 92
1, 58457, Control_c, 0, 64, 96
1, 58460, Note_on_c, 0, 42, 47
1, 58462, Note_off_c, 0, 63, 61
1, 58472, Control_c, 0, 64, 99
1, 58486, Control_c, 0, 64, 102
1, 58501, Control_c, 0, 64, 104
1, 58516, Control_c, 0, 64, 105
1, 58531, Control_c, 0, 64, 106
1, 58546, Control_c, 0, 64, 106
1, 58685, Note_on_c, 0, 54, 54
1, 58750, Note_off_c, 0, 54, 55
1, 58816, Note_off_c, 0, 42, 24
1, 58890, Note_on_c, 0, 70, 70
1, 58908, Control_c, 0, 64, 107
1, 58917, Note_on_c, 0, 63, 55
1, 58923, Control_c, 0, 64, 107
1, 58926, Note_on_c, 0, 54, 47
1, 58938, Control_c, 0, 64, 108
1, 58953, Control_c, 0, 64, 109
1, 58968, Control_c, 0, 64, 111
1, 58983, Control_c, 0, 64, 112
1, 58997, Control_c, 0, 64, 114
1, 59012, Control_c, 0, 64, 116
1, 59027, Control_c, 0, 64, 119
1, 59042, Control_c, 0, 64, 123
1, 59048, Note_off_c, 0, 54, 55
1, 59057, Control_c, 0, 64, 127
1, 59110, Note_on_c, 0, 42, 65
1, 59205, Note_on_c, 0, 71, 79
1, 59231, Note_off_c, 0, 63, 26
1, 59284, Note_off_c, 0, 70, 31
1, 59315, Note_off_c, 0, 42, 26
1, 59359, Note_on_c, 0, 63, 68
1, 59362, Note_on_c, 0, 66, 81
1, 59364, Note_off_c, 0, 71, 56
1, 59389, Note_on_c, 0, 35, 62
1, 59441, Note_off_c, 0, 63, 56
1, 59476, Note_off_c, 0, 35, 60
1, 59505, Note_off_c, 0, 66, 62
1, 59554, Control_c, 0, 64, 126
1, 59569, Control_c, 0, 64, 124
1, 59583, Control_c, 0, 64, 122
1, 59598, Control_c, 0, 64, 120
1, 59606, Note_on_c, 0, 35, 71
1, 59613, Control_c, 0, 64, 118
1, 59627, Control_c, 0, 64, 115
1, 59642, Control_c, 0, 64, 112
1, 59655, Note_on_c, 0, 66, 75
1, 59657, Control_c, 0, 64, 109
1, 59662, Note_on_c, 0, 63, 71
1, 59672, Control_c, 0, 64, 105
1, 59687, Control_c, 0, 64, 99
1, 59701, Control_c, 0, 64, 91
1, 59716, Control_c, 0, 64, 82
1, 59731, Control_c, 0, 64, 70
1, 59746, Control_c, 0, 64, 0
1, 59766, Note_off_c, 0, 66, 63
1, 59779, Note_on_c, 0, 68, 65
1, 59835, Note_off_c, 0, 68, 63
1, 59835, Control_c, 0, 64, 47
1, 59836, Note_on_c, 0, 70, 67
1, 59850, Control_c, 0, 64, 66
1, 59865, Control_c, 0, 64, 73
1, 59880, Control_c, 0, 64, 80
1, 59895, Control_c, 0, 64, 87
1, 59900, Note_on_c, 0, 68, 70
1, 59901, Note_off_c, 0, 70, 60
1, 59909, Control_c, 0, 64, 89
1, 59914, Note_on_c, 0, 42, 79
1, 59924, Control_c, 0, 64, 92
1, 59939, Control_c, 0, 64, 93
1, 59953, Control_c, 0, 64, 95
1, 59960, Note_off_c, 0, 68, 62
1, 59961, Note_off_c, 0, 35, 61
1, 59968, Control_c, 0, 64, 97
1, 59969, Note_on_c, 0, 70, 67
1, 59983, Control_c, 0, 64, 99
1, 59999, Control_c, 0, 64, 99
1, 60014, Control_c, 0, 64, 100
1, 60026, Note_off_c, 0, 70, 62
1, 60027, Note_on_c, 0, 68, 70
1, 60029, Control_c, 0, 64, 101
1, 60044, Control_c, 0, 64, 102
1, 60058, Control_c, 0, 64, 103
1, 60080, Note_off_c, 0, 42, 63
1, 60080, Control_c, 0, 64, 105
1, 60090, Note_off_c, 0, 68, 62
1, 60096, Control_c, 0, 64, 108
1, 60103, Note_on_c, 0, 70, 66
1, 60111, Control_c, 0, 64, 109
1, 60112, Note_on_c, 0, 41, 86
1, 60126, Control_c, 0, 64, 111
1, 60140, Control_c, 0, 64, 112
1, 60155, Control_c, 0, 64, 113
1, 60157, Note_on_c, 0, 68, 69
1, 60157, Note_off_c, 0, 70, 62
1, 60170, Control_c, 0, 64, 114
1, 60185, Control_c, 0, 64, 115
1, 60200, Control_c, 0, 64, 116
1, 60214, Control_c, 0, 64, 117
1, 60219, Note_off_c, 0, 68, 62
1, 60224, Note_on_c, 0, 70, 69
1, 60229, Control_c, 0, 64, 119
1, 60244, Control_c, 0, 64, 120
1, 60258, Control_c, 0, 64, 122
1, 60273, Control_c, 0, 64, 124
1, 60281, Note_off_c, 0, 70, 62
1, 60282, Note_on_c, 0, 68, 71
1, 60282, Note_off_c, 0, 41, 38
1, 60288, Control_c, 0, 64, 127
1, 60306, Note_on_c, 0, 53, 84
1, 60338, Note_off_c, 0, 68, 63
1, 60351, Note_on_c, 0, 70, 67
1, 60366, Note_off_c, 0, 53, 63
1, 60410, Note_off_c, 0, 70, 63
1, 60415, Note_on_c, 0, 68, 70
1, 60468, Note_off_c, 0, 68, 61
1, 60481, Note_on_c, 0, 70, 66
1, 60506, Note_on_c, 0, 41, 83
1, 60540, Note_off_c, 0, 70, 64
1, 60548, Note_on_c, 0, 68, 71
1, 60604, Note_off_c, 0, 68, 62
1, 60610, Note_on_c, 0, 70, 72
1, 60672, Note_off_c, 0, 41, 62
1, 60677, Note_on_c, 0, 68, 76
1, 60679, Note_off_c, 0, 70, 64
1, 60697, Note_on_c, 0, 35, 80
1, 60735, Note_off_c, 0, 68, 62
1, 60754, Note_on_c, 0, 70, 75
1, 60783, Note_off_c, 0, 63, 55
1, 60806, Note_off_c, 0, 35, 54
1, 60810, Note_off_c, 0, 70, 63
1, 60824, Note_on_c, 0, 68, 74
1, 60849, Note_off_c, 0, 68, 67
1, 60857, Note_on_c, 0, 66, 73
1, 60917, Note_on_c, 0, 68, 86
1, 60919, Control_c, 0, 64, 117
1, 60923, Note_off_c, 0, 66, 67
1, 60934, Control_c, 0, 64, 102
1, 60949, Control_c, 0, 64, 85
1, 60963, Control_c, 0, 64, 69
1, 60978, Control_c, 0, 64, 0
1, 60995, Note_off_c, 0, 68, 61
1, 61001, Note_on_c, 0, 70, 93
1, 61002, Note_on_c, 0, 46, 89
1, 61006, Note_on_c, 0, 34, 73
1, 61013, Note_on_c, 0, 62, 80
1, 61080, Note_off_c, 0, 62, 59
1, 61081, Control_c, 0, 64, 57
1, 61096, Control_c, 0, 64, 71
1, 61111, Control_c, 0, 64, 84
1, 61123, Note_off_c, 0, 34, 62
1, 61126, Control_c, 0, 64, 97
1, 61135, Note_off_c, 0, 70, 59
1, 61141, Control_c, 0, 64, 109
1, 61156, Control_c, 0, 64, 115
1, 61157, Note_off_c, 0, 46, 62
1, 61170, Control_c, 0, 64, 121
1, 61185, Control_c, 0, 64, 127
1, 61476, Note_on_c, 0, 82, 95
1, 61489, Note_on_c, 0, 70, 74
1, 61492, Note_on_c, 0, 65, 64
1, 61495, Note_on_c, 0, 56, 55
1, 61507, Note_on_c, 0, 58, 52
1, 61516, Note_off_c, 0, 70, 64
1, 61582, Note_off_c, 0, 56, 63
1, 61598, Note_off_c, 0, 65, 60
1, 61606, Note_off_c, 0, 58, 64
1, 61779, Note_on_c, 0, 65, 79
1, 61785, Note_on_c, 0, 75, 78
1, 61793, Note_on_c, 0, 58, 62
1, 61799, Note_on_c, 0, 54, 62
1, 61800, Control_c, 0, 64, 124
1, 61815, Control_c, 0, 64, 113
1, 61829, Control_c, 0, 64, 102
1, 61844, Control_c, 0, 64, 89
1, 61859, Control_c, 0, 64, 75
1, 61874, Control_c, 0, 64, 60
1, 61884, Note_off_c, 0, 82, 57
1, 61889, Control_c, 0, 64, 0
1, 61913, Note_off_c, 0, 75, 51
1, 61919, Control_c, 0, 64, 25
1, 61934, Control_c, 0, 64, 56
1, 61940, Note_on_c, 0, 84, 82
1, 61949, Control_c, 0, 64, 64
1, 61963, Control_c, 0, 64, 67
1, 61978, Control_c, 0, 64, 73
1, 61993, Control_c, 0, 64, 80
1, 62008, Control_c, 0, 64, 85
1, 62022, Control_c, 0, 64, 89
1, 62037, Control_c, 0, 64, 91
1, 62049, Note_on_c, 0, 85, 90
1, 62052, Control_c, 0, 64, 93
1, 62058, Note_on_c, 0, 77, 79
1, 62062, Note_off_c, 0, 84, 30
1, 62067, Control_c, 0, 64, 95
1, 62082, Control_c, 0, 64, 97
1, 62083, Note_off_c, 0, 77, 63
1, 62096, Control_c, 0, 64, 98
1, 62111, Control_c, 0, 64, 98
1, 62160, Note_on_c, 0, 87, 90
1, 62164, Note_on_c, 0, 78, 87
1, 62208, Note_off_c, 0, 78, 62
1, 62222, Note_off_c, 0, 85, 23
1, 62264, Note_off_c, 0, 65, 58
1, 62270, Note_on_c, 0, 63, 76
1, 62271, Note_on_c, 0, 89, 88
1, 62275, Note_on_c, 0, 80, 91
1, 62281, Note_off_c, 0, 87, 58
1, 62292, Note_off_c, 0, 58, 63
1, 62297, Note_off_c, 0, 63, 67
1, 62314, Note_off_c, 0, 54, 62
1, 62393, Note_on_c, 0, 90, 90
1, 62394, Note_off_c, 0, 80, 31
1, 62396, Note_on_c, 0, 82, 83
1, 62399, Note_off_c, 0, 89, 61
1, 62460, Note_on_c, 0, 46, 59
1, 62474, Note_off_c, 0, 90, 61
1, 62475, Control_c, 0, 64, 98
1, 62500, Note_on_c, 0, 53, 68
1, 62520, Control_c, 0, 64, 97
1, 62534, Control_c, 0, 64, 97
1, 62537, Note_off_c, 0, 46, 62
1, 62549, Control_c, 0, 64, 96
1, 62564, Control_c, 0, 64, 94
1, 62579, Control_c, 0, 64, 89
1, 62582, Note_on_c, 0, 89, 85
1, 62589, Note_on_c, 0, 85, 75
1, 62591, Note_off_c, 0, 82, 61
1, 62594, Control_c, 0, 64, 81
1, 62599, Note_on_c, 0, 61, 72
1, 62608, Control_c, 0, 64, 71
1, 62623, Control_c, 0, 64, 54
1, 62638, Control_c, 0, 64, 0
1, 62697, Control_c, 0, 64, 28
1, 62711, Note_on_c, 0, 82, 83
1, 62712, Control_c, 0, 64, 63
1, 62718, Note_off_c, 0, 89, 63
1, 62727, Control_c, 0, 64, 71
1, 62741, Control_c, 0, 64, 79
1, 62747, Note_off_c, 0, 85, 60
1, 62756, Control_c, 0, 64, 91
1, 62771, Control_c, 0, 64, 99
1, 62774, Note_off_c, 0, 82, 62
1, 62786, Control_c, 0, 64, 105
1, 62795, Note_off_c, 0, 61, 63
1, 62801, Control_c, 0, 64, 109
1, 62813, Note_on_c, 0, 77, 85
1, 62816, Control_c, 0, 64, 111
1, 62831, Control_c, 0, 64, 112
1, 62845, Control_c, 0, 64, 112
1, 62852, Note_off_c, 0, 53, 28
1, 62860, Control_c, 0, 64, 113
1, 62875, Note_off_c, 0, 77, 53
1, 62899, Note_on_c, 0, 46, 71
1, 62915, Note_on_c, 0, 53, 47
1, 62920, Note_on_c, 0, 75, 61
1, 62946, Note_on_c, 0, 74, 50
1, 62964, Note_off_c, 0, 75, 42
1, 62965, Note_off_c, 0, 46, 63
1, 63018, Note_on_c, 0, 61, 72
1, 63023, Control_c, 0, 64, 112
1, 63034, Note_on_c, 0, 71, 60
1, 63034, Note_on_c, 0, 77, 77
1, 63038, Control_c, 0, 64, 111
1, 63052, Control_c, 0, 64, 111
1, 63072, Note_off_c, 0, 74, 24
1, 63075, Control_c, 0, 64, 110
1, 63079, Note_off_c, 0, 53, 62
1, 63083, Note_off_c, 0, 61, 59
1, 63090, Control_c, 0, 64, 109
1, 63092, Note_off_c, 0, 71, 45
1, 63105, Control_c, 0, 64, 109
1, 63120, Control_c, 0, 64, 108
1, 63126, Note_on_c, 0, 70, 79
1, 63134, Control_c, 0, 64, 107
1, 63137, Note_off_c, 0, 77, 59
1, 63149, Control_c, 0, 64, 106
1, 63164, Control_c, 0, 64, 105
1, 63178, Note_on_c, 0, 46, 59
1, 63178, Control_c, 0, 64, 103
1, 63188, Note_off_c, 0, 70, 60
1, 63193, Control_c, 0, 64, 102
1, 63200, Note_on_c, 0, 77, 74
1, 63209, Control_c, 0, 64, 101
1, 63224, Control_c, 0, 64, 99
1, 63230, Note_on_c, 0, 51, 62
1, 63239, Control_c, 0, 64, 96
1, 63249, Note_off_c, 0, 46, 60
1, 63254, Control_c, 0, 64, 93
1, 63269, Control_c, 0, 64, 87
1, 63272, Note_on_c, 0, 54, 54
1, 63283, Control_c, 0, 64, 80
1, 63291, Note_off_c, 0, 77, 55
1, 63298, Control_c, 0, 64, 69
1, 63311, Note_on_c, 0, 68, 73
1, 63313, Control_c, 0, 64, 20
1, 63314, Note_on_c, 0, 75, 65
1, 63326, Note_on_c, 0, 61, 65
1, 63328, Control_c, 0, 64, 0
1, 63382, Note_on_c, 0, 77, 78
1, 63383, Note_off_c, 0, 75, 62
1, 63416, Control_c, 0, 64, 34
1, 63431, Control_c, 0, 64, 66
1, 63446, Control_c, 0, 64, 73
1, 63448, Note_on_c, 0, 75, 65
1, 63448, Note_off_c, 0, 77, 59
1, 63461, Control_c, 0, 64, 78
1, 63475, Control_c, 0, 64, 81
1, 63490, Control_c, 0, 64, 84
1, 63491, Note_off_c, 0, 68, 55
1, 63505, Control_c, 0, 64, 86
1, 63520, Note_on_c, 0, 77, 67
1, 63520, Control_c, 0, 64, 89
1, 63523, Note_off_c, 0, 75, 64
1, 63535, Control_c, 0, 64, 91
1, 63549, Control_c, 0, 64, 94
1, 63564, Control_c, 0, 64, 96
1, 63579, Control_c, 0, 64, 98
1, 63594, Control_c, 0, 64, 100
1, 63595, Note_off_c, 0, 61, 61
1, 63602, Note_on_c, 0, 66, 71
1, 63609, Control_c, 0, 64, 101
1, 63615, Note_off_c, 0, 77, 36
1, 63624, Control_c, 0, 64, 102
1, 63634, Note_off_c, 0, 66, 62
1, 63639, Control_c, 0, 64, 103
1, 63653, Note_on_c, 0, 75, 54
1, 63654, Control_c, 0, 64, 103
1, 63660, Note_off_c, 0, 51, 57
1, 63668, Control_c, 0, 64, 104
1, 63674, Note_off_c, 0, 54, 32
1, 63698, Control_c, 0, 64, 104
1, 63704, Note_off_c, 0, 75, 62
1, 63710, Note_on_c, 0, 46, 50
1, 63713, Control_c, 0, 64, 105
1, 63731, Note_on_c, 0, 77, 53
1, 63757, Control_c, 0, 64, 105
1, 63761, Note_off_c, 0, 77, 53
1, 63780, Note_on_c, 0, 75, 54
1, 63785, Note_on_c, 0, 51, 56
1, 63787, Control_c, 0, 64, 106
1, 63815, Note_off_c, 0, 46, 57
1, 63816, Control_c, 0, 64, 106
1, 63859, Note_on_c, 0, 54, 43
1, 63867, Note_off_c, 0, 75, 64
1, 63880, Note_on_c, 0, 77, 53
1, 63901, Note_on_c, 0, 68, 68
1, 63937, Note_off_c, 0, 77, 47
1, 63940, Note_on_c, 0, 59, 50
1, 63962, Note_on_c, 0, 75, 59
1, 63964, Note_off_c, 0, 59, 56
1, 64000, Note_off_c, 0, 54, 51
1, 64015, Note_off_c, 0, 75, 63
1, 64026, Note_on_c, 0, 77, 57
1, 64038, Note_off_c, 0, 51, 61
1, 64086, Note_off_c, 0, 77, 61
1, 64094, Note_on_c, 0, 75, 44
1, 64107, Control_c, 0, 64, 106
1, 64120, Note_off_c, 0, 75, 59
1, 64130, Note_off_c, 0, 68, 0
1, 64130, Note_on_c, 0, 68, 6
1, 64136, Control_c, 0, 64, 105
1, 64151, Control_c, 0, 64, 105
1, 64172, Note_on_c, 0, 77, 54
1, 64181, Control_c, 0, 64, 104
1, 64182, Note_off_c, 0, 68, 60
1, 64193, Note_off_c, 0, 77, 63
1, 64206, Note_on_c, 0, 75, 49
1, 64211, Control_c, 0, 64, 104
1, 64225, Control_c, 0, 64, 103
1, 64226, Note_off_c, 0, 75, 61
1, 64240, Control_c, 0, 64, 103
1, 64255, Control_c, 0, 64, 102
1, 64270, Control_c, 0, 64, 102
1, 64285, Control_c, 0, 64, 101
1, 64299, Control_c, 0, 64, 100
1, 64314, Control_c, 0, 64, 98
1, 64322, Note_on_c, 0, 46, 44
1, 64327, Note_on_c, 0, 34, 41
1, 64329, Control_c, 0, 64, 96
1, 64344, Control_c, 0, 64, 92
1, 64359, Control_c, 0, 64, 87
1, 64373, Control_c, 0, 64, 80
1, 64378, Note_on_c, 0, 74, 55
1, 64381, Note_on_c, 0, 70, 50
1, 64388, Control_c, 0, 64, 68
1, 64389, Note_on_c, 0, 65, 48
1, 64403, Control_c, 0, 64, 0
1, 64506, Control_c, 0, 67, 11
1, 64521, Control_c, 0, 67, 14
1, 64536, Control_c, 0, 67, 18
1, 64551, Control_c, 0, 64, 61
1, 64551, Control_c, 0, 67, 21
1, 64573, Control_c, 0, 64, 68
1, 64573, Control_c, 0, 67, 23
1, 64584, Note_off_c, 0, 65, 49
1, 64587, Note_off_c, 0, 74, 59
1, 64588, Control_c, 0, 64, 73
1, 64588, Control_c, 0, 67, 26
1, 64603, Control_c, 0, 64, 77
1, 64603, Control_c, 0, 67, 28
1, 64606, Note_off_c, 0, 34, 55
1, 64618, Control_c, 0, 64, 80
1, 64618, Control_c, 0, 67, 30
1, 64632, Control_c, 0, 64, 84
1, 64632, Control_c, 0, 67, 33
1, 64635, Note_off_c, 0, 70, 50
1, 64647, Control_c, 0, 64, 87
1, 64647, Control_c, 0, 67, 37
1, 64661, Note_off_c, 0, 46, 41
1, 64662, Control_c, 0, 64, 90
1, 64662, Control_c, 0, 67, 40
1, 64677, Control_c, 0, 64, 93
1, 64677, Control_c, 0, 67, 45
1, 64692, Control_c, 0, 64, 96
1, 64692, Control_c, 0, 67, 49
1, 64706, Control_c, 0, 64, 97
1, 64706, Control_c, 0, 67, 54
1, 64721, Control_c, 0, 64, 98
1, 64721, Control_c, 0, 67, 59
1, 64736, Control_c, 0, 64, 99
1, 64736, Control_c, 0, 67, 66
1, 64751, Control_c, 0, 64, 100
1, 64751, Control_c, 0, 67, 71
1, 64765, Control_c, 0, 64, 101
1, 64765, Control_c, 0, 67, 77
1, 64780, Control_c, 0, 67, 82
1, 64796, Control_c, 0, 67, 86
1, 64811, Control_c, 0, 67, 90
1, 64826, Control_c, 0, 67, 91
1, 64841, Control_c, 0, 67, 92
1, 64855, Control_c, 0, 67, 92
1, 64870, Control_c, 0, 67, 93
1, 64885, Control_c, 0, 67, 96
1, 64900, Control_c, 0, 67, 98
1, 64915, Control_c, 0, 67, 98
1, 64959, Control_c, 0, 64, 100
1, 64989, Control_c, 0, 64, 100
1, 65004, Control_c, 0, 64, 99
1, 65019, Control_c, 0, 64, 98
1, 65019, Control_c, 0, 67, 98
1, 65028, Note_on_c, 0, 82, 65
1, 65034, Control_c, 0, 64, 98
1, 65043, Note_on_c, 0, 70, 48
1, 65048, Control_c, 0, 64, 97
1, 65048, Control_c, 0, 67, 97
1, 65060, Note_on_c, 0, 65, 37
1, 65063, Control_c, 0, 64, 96
1, 65066, Note_on_c, 0, 56, 38
1, 65078, Control_c, 0, 64, 95
1, 65093, Control_c, 0, 64, 94
1, 65094, Note_on_c, 0, 58, 30
1, 65108, Control_c, 0, 64, 93
1, 65108, Control_c, 0, 67, 97
1, 65122, Control_c, 0, 64, 93
1, 65135, Note_off_c, 0, 70, 44
1, 65137, Control_c, 0, 64, 92
1, 65152, Control_c, 0, 64, 92
1, 65166, Control_c, 0, 64, 91
1, 65170, Note_off_c, 0, 56, 50
1, 65181, Note_off_c, 0, 65, 54
1, 65181, Control_c, 0, 64, 91
1, 65202, Note_off_c, 0, 58, 38
1, 65211, Control_c, 0, 64, 90
1, 65226, Control_c, 0, 67, 97
1, 65270, Control_c, 0, 64, 90
1, 65300, Control_c, 0, 64, 89
1, 65337, Control_c, 0, 64, 89
1, 65352, Control_c, 0, 64, 88
1, 65366, Note_on_c, 0, 75, 52
1, 65367, Control_c, 0, 64, 86
1, 65374, Note_on_c, 0, 58, 36
1, 65381, Note_on_c, 0, 65, 41
1, 65381, Control_c, 0, 64, 83
1, 65381, Control_c, 0, 67, 97
1, 65392, Note_on_c, 0, 54, 33
1, 65396, Control_c, 0, 64, 77
1, 65411, Control_c, 0, 64, 69
1, 65426, Control_c, 0, 64, 57
1, 65426, Control_c, 0, 67, 96
1, 65441, Control_c, 0, 64, 0
1, 65441, Control_c, 0, 67, 96
1, 65455, Control_c, 0, 67, 95
1, 65460, Note_off_c, 0, 82, 33
1, 65470, Control_c, 0, 64, 49
1, 65470, Control_c, 0, 67, 95
1, 65485, Control_c, 0, 64, 61
1, 65485, Control_c, 0, 67, 94
1, 65500, Control_c, 0, 64, 65
1, 65500, Control_c, 0, 67, 93
1, 65501, Note_off_c, 0, 75, 37
1, 65504, Note_on_c, 0, 84, 66
1, 65515, Control_c, 0, 64, 69
1, 65515, Control_c, 0, 67, 93
1, 65529, Control_c, 0, 64, 74
1, 65529, Control_c, 0, 67, 92
1, 65544, Control_c, 0, 64, 81
1, 65559, Control_c, 0, 64, 86
1, 65573, Control_c, 0, 64, 89
1, 65573, Control_c, 0, 67, 92
1, 65578, Note_off_c, 0, 84, 54
1, 65588, Control_c, 0, 64, 91
1, 65588, Control_c, 0, 67, 91
1, 65604, Control_c, 0, 64, 93
1, 65604, Control_c, 0, 67, 91
1, 65619, Control_c, 0, 64, 94
1, 65620, Note_on_c, 0, 85, 75
1, 65624, Note_on_c, 0, 77, 67
1, 65634, Control_c, 0, 64, 94
1, 65648, Note_on_c, 0, 66, 57
1, 65649, Control_c, 0, 67, 90
1, 65651, Note_off_c, 0, 77, 62
1, 65675, Note_off_c, 0, 65, 41
1, 65678, Control_c, 0, 67, 90
1, 65685, Note_off_c, 0, 85, 58
1, 65693, Control_c, 0, 67, 89
1, 65708, Control_c, 0, 67, 89
1, 65723, Control_c, 0, 67, 88
1, 65725, Note_off_c, 0, 66, 64
1, 65725, Note_on_c, 0, 87, 75
1, 65731, Note_on_c, 0, 78, 75
1, 65764, Note_off_c, 0, 78, 57
1, 65782, Control_c, 0, 67, 88
1, 65824, Note_off_c, 0, 87, 58
1, 65842, Control_c, 0, 67, 87
1, 65851, Note_on_c, 0, 89, 77
1, 65854, Note_on_c, 0, 80, 72
1, 65856, Control_c, 0, 67, 87
1, 65877, Note_on_c, 0, 63, 46
1, 65885, Note_off_c, 0, 58, 56
1, 65886, Control_c, 0, 67, 86
1, 65901, Control_c, 0, 64, 94
1, 65901, Control_c, 0, 67, 85
1, 65907, Note_off_c, 0, 63, 52
1, 65915, Note_off_c, 0, 54, 49
1, 65916, Control_c, 0, 67, 84
1, 65919, Note_off_c, 0, 80, 57
1, 65931, Note_off_c, 0, 89, 55
1, 65931, Control_c, 0, 64, 93
1, 65931, Control_c, 0, 67, 83
1, 65945, Control_c, 0, 67, 82
1, 65960, Control_c, 0, 64, 93
1, 65972, Note_on_c, 0, 90, 75
1, 65987, Note_on_c, 0, 82, 59
1, 65989, Control_c, 0, 64, 92
1, 65989, Control_c, 0, 67, 82
1, 66019, Control_c, 0, 64, 92
1, 66034, Control_c, 0, 64, 91
1, 66034, Control_c, 0, 67, 81
1, 66047, Note_on_c, 0, 46, 50
1, 66049, Control_c, 0, 64, 91
1, 66055, Note_off_c, 0, 90, 62
1, 66071, Control_c, 0, 64, 90
1, 66085, Control_c, 0, 64, 90
1, 66092, Note_on_c, 0, 53, 59
1, 66100, Control_c, 0, 64, 89
1, 66115, Control_c, 0, 64, 88
1, 66116, Note_off_c, 0, 46, 57
1, 66130, Control_c, 0, 64, 87
1, 66144, Control_c, 0, 64, 86
1, 66144, Control_c, 0, 67, 82
1, 66159, Control_c, 0, 64, 84
1, 66169, Note_off_c, 0, 82, 38
1, 66172, Note_on_c, 0, 89, 68
1, 66174, Control_c, 0, 64, 81
1, 66181, Note_on_c, 0, 85, 59
1, 66189, Control_c, 0, 64, 76
1, 66203, Control_c, 0, 64, 70
1, 66210, Note_on_c, 0, 61, 60
1, 66218, Control_c, 0, 64, 57
1, 66233, Control_c, 0, 64, 0
1, 66277, Control_c, 0, 64, 54
1, 66292, Control_c, 0, 64, 63
1, 66295, Note_off_c, 0, 89, 62
1, 66307, Control_c, 0, 64, 68
1, 66310, Note_on_c, 0, 82, 66
1, 66321, Control_c, 0, 64, 74
1, 66332, Note_off_c, 0, 85, 57
1, 66336, Control_c, 0, 64, 81
1, 66351, Control_c, 0, 64, 88
1, 66366, Control_c, 0, 64, 94
1, 66372, Note_off_c, 0, 82, 63
1, 66381, Control_c, 0, 64, 97
1, 66397, Control_c, 0, 64, 100
1, 66412, Control_c, 0, 64, 102
1, 66412, Control_c, 0, 67, 82
1, 66413, Note_on_c, 0, 77, 77
1, 66426, Control_c, 0, 64, 104
1, 66441, Control_c, 0, 64, 105
1, 66441, Control_c, 0, 67, 83
1, 66458, Note_off_c, 0, 61, 62
1, 66467, Note_off_c, 0, 77, 61
1, 66500, Control_c, 0, 67, 83
1, 66510, Note_on_c, 0, 73, 68
1, 66530, Control_c, 0, 67, 84
1, 66575, Control_c, 0, 67, 84
1, 66605, Control_c, 0, 64, 104
1, 66607, Note_on_c, 0, 46, 60
1, 66617, Note_on_c, 0, 71, 68
1, 66618, Note_on_c, 0, 77, 70
1, 66619, Control_c, 0, 64, 103
1, 66634, Control_c, 0, 64, 102
1, 66649, Control_c, 0, 64, 101
1, 66650, Note_off_c, 0, 71, 56
1, 66662, Note_off_c, 0, 73, 54
1, 66664, Control_c, 0, 64, 100
1, 66665, Note_off_c, 0, 46, 61
1, 66679, Control_c, 0, 64, 99
1, 66679, Control_c, 0, 67, 84
1, 66682, Note_off_c, 0, 53, 41
1, 66693, Control_c, 0, 64, 98
1, 66708, Control_c, 0, 64, 97
1, 66717, Note_on_c, 0, 70, 75
1, 66720, Note_off_c, 0, 77, 60
1, 66723, Control_c, 0, 64, 96
1, 66723, Control_c, 0, 67, 83
1, 66738, Control_c, 0, 64, 95
1, 66753, Control_c, 0, 64, 95
1, 66753, Control_c, 0, 67, 83
1, 66769, Note_off_c, 0, 70, 63
1, 66782, Control_c, 0, 64, 94
1, 66789, Note_on_c, 0, 77, 71
1, 66797, Control_c, 0, 64, 94
1, 66819, Control_c, 0, 64, 93
1, 66834, Control_c, 0, 64, 93
1, 66849, Control_c, 0, 64, 92
1, 66864, Control_c, 0, 64, 90
1, 66879, Control_c, 0, 64, 88
1, 66883, Note_off_c, 0, 77, 59
1, 66894, Control_c, 0, 64, 84
1, 66896, Note_on_c, 0, 75, 68
1, 66906, Note_on_c, 0, 61, 54
1, 66909, Control_c, 0, 64, 77
1, 66909, Note_on_c, 0, 68, 56
1, 66924, Control_c, 0, 64, 67
1, 66924, Control_c, 0, 67, 82
1, 66938, Note_on_c, 0, 54, 39
1, 66939, Control_c, 0, 64, 0
1, 66941, Note_off_c, 0, 75, 55
1, 66943, Note_on_c, 0, 51, 35
1, 66964, Note_off_c, 0, 68, 0
1, 66964, Note_on_c, 0, 68, 14
1, 66966, Note_on_c, 0, 77, 67
1, 66983, Control_c, 0, 67, 82
1, 67013, Control_c, 0, 64, 38
1, 67022, Note_off_c, 0, 77, 57
1, 67025, Note_off_c, 0, 68, 0
1, 67025, Note_on_c, 0, 68, 9
1, 67027, Control_c, 0, 64, 63
1, 67034, Note_on_c, 0, 75, 63
1, 67042, Control_c, 0, 64, 68
1, 67042, Control_c, 0, 67, 81
1, 67057, Control_c, 0, 64, 73
1, 67062, Note_off_c, 0, 61, 58
1, 67071, Note_off_c, 0, 75, 62
1, 67072, Control_c, 0, 64, 79
1, 67087, Control_c, 0, 64, 82
1, 67096, Note_on_c, 0, 77, 56
1, 67101, Control_c, 0, 64, 84
1, 67116, Control_c, 0, 64, 85
1, 67116, Control_c, 0, 67, 81
1, 67131, Control_c, 0, 64, 86
1, 67131, Control_c, 0, 67, 80
1, 67145, Control_c, 0, 64, 87
1, 67150, Note_off_c, 0, 77, 54
1, 67153, Note_on_c, 0, 75, 52
1, 67160, Control_c, 0, 64, 87
1, 67160, Control_c, 0, 67, 80
1, 67175, Control_c, 0, 67, 78
1, 67183, Note_on_c, 0, 63, 52
1, 67191, Control_c, 0, 67, 76
1, 67198, Note_on_c, 0, 77, 43
1, 67205, Note_off_c, 0, 75, 62
1, 67206, Control_c, 0, 67, 75
1, 67214, Note_off_c, 0, 68, 50
1, 67221, Control_c, 0, 67, 74
1, 67236, Control_c, 0, 67, 73
1, 67250, Control_c, 0, 67, 72
1, 67265, Control_c, 0, 67, 71
1, 67266, Note_off_c, 0, 63, 57
1, 67295, Control_c, 0, 67, 71
1, 67305, Note_off_c, 0, 77, 52
1, 67308, Note_on_c, 0, 66, 66
1, 67338, Note_off_c, 0, 66, 54
1, 67339, Control_c, 0, 67, 70
1, 67354, Note_on_c, 0, 75, 53
1, 67369, Control_c, 0, 67, 69
1, 67384, Control_c, 0, 67, 68
1, 67395, Note_off_c, 0, 75, 65
1, 67398, Control_c, 0, 67, 67
1, 67413, Control_c, 0, 67, 66
1, 67414, Note_on_c, 0, 77, 57
1, 67428, Control_c, 0, 67, 65
1, 67442, Control_c, 0, 67, 64
1, 67457, Control_c, 0, 67, 64
1, 67461, Note_off_c, 0, 77, 43
1, 67472, Control_c, 0, 67, 62
1, 67484, Note_on_c, 0, 75, 58
1, 67487, Control_c, 0, 67, 60
1, 67488, Note_on_c, 0, 68, 51
1, 67496, Note_on_c, 0, 59, 47
1, 67502, Control_c, 0, 67, 58
1, 67517, Control_c, 0, 67, 56
1, 67520, Note_off_c, 0, 75, 56
1, 67532, Control_c, 0, 67, 55
1, 67546, Note_off_c, 0, 68, 0
1, 67546, Note_on_c, 0, 68, 15
1, 67547, Control_c, 0, 67, 53
1, 67548, Note_off_c, 0, 59, 61
1, 67568, Control_c, 0, 67, 52
1, 67572, Note_on_c, 0, 77, 57
1, 67583, Control_c, 0, 67, 50
1, 67598, Control_c, 0, 67, 49
1, 67607, Note_off_c, 0, 54, 40
1, 67609, Note_off_c, 0, 51, 53
1, 67613, Control_c, 0, 64, 87
1, 67613, Control_c, 0, 67, 49
1, 67628, Control_c, 0, 67, 48
1, 67632, Note_off_c, 0, 77, 56
1, 67633, Note_on_c, 0, 75, 57
1, 67642, Control_c, 0, 64, 86
1, 67657, Note_off_c, 0, 75, 62
1, 67657, Control_c, 0, 64, 86
1, 67657, Control_c, 0, 67, 48
1, 67687, Control_c, 0, 64, 85
1, 67712, Note_on_c, 0, 77, 44
1, 67717, Control_c, 0, 64, 85
1, 67731, Control_c, 0, 64, 84
1, 67742, Note_off_c, 0, 77, 57
1, 67746, Note_on_c, 0, 75, 64
1, 67761, Control_c, 0, 64, 84
1, 67764, Note_off_c, 0, 75, 67
1, 67772, Note_off_c, 0, 68, 42
1, 67776, Control_c, 0, 64, 83
1, 67806, Control_c, 0, 64, 83
1, 67821, Control_c, 0, 64, 82
1, 67836, Control_c, 0, 64, 82
1, 67850, Control_c, 0, 64, 81
1, 67865, Control_c, 0, 64, 80
1, 67880, Control_c, 0, 64, 79
1, 67892, Note_on_c, 0, 34, 35
1, 67894, Note_on_c, 0, 46, 44
1, 67895, Control_c, 0, 64, 77
1, 67910, Control_c, 0, 64, 75
1, 67924, Control_c, 0, 64, 71
1, 67939, Control_c, 0, 64, 64
1, 67943, Note_on_c, 0, 74, 52
1, 67951, Note_on_c, 0, 65, 44
1, 67953, Note_on_c, 0, 70, 44
1, 67954, Control_c, 0, 64, 33
1, 67968, Control_c, 0, 64, 0
1, 68014, Control_c, 0, 67, 47
1, 68029, Control_c, 0, 67, 47
1, 68059, Control_c, 0, 67, 46
1, 68073, Control_c, 0, 67, 45
1, 68088, Control_c, 0, 67, 41
1, 68103, Control_c, 0, 67, 35
1, 68118, Control_c, 0, 64, 61
1, 68118, Control_c, 0, 67, 27
1, 68133, Control_c, 0, 64, 68
1, 68133, Control_c, 0, 67, 22
1, 68147, Control_c, 0, 64, 73
1, 68147, Control_c, 0, 67, 19
1, 68148, Note_off_c, 0, 74, 57
1, 68162, Control_c, 0, 64, 78
1, 68162, Control_c, 0, 67, 18
1, 68167, Note_off_c, 0, 34, 57
1, 68169, Note_off_c, 0, 65, 60
1, 68177, Control_c, 0, 64, 82
1, 68177, Control_c, 0, 67, 16
1, 68191, Control_c, 0, 64, 85
1, 68191, Control_c, 0, 67, 14
1, 68206, Control_c, 0, 64, 88
1, 68217, Note_off_c, 0, 46, 48
1, 68221, Control_c, 0, 64, 91
1, 68229, Note_off_c, 0, 70, 56
1, 68236, Control_c, 0, 64, 93
1, 68236, Control_c, 0, 67, 15
1, 68251, Control_c, 0, 64, 95
1, 68251, Control_c, 0, 67, 16
1, 68265, Control_c, 0, 67, 17
1, 68280, Control_c, 0, 67, 18
1, 68295, Control_c, 0, 67, 19
1, 68310, Control_c, 0, 67, 20
1, 68333, Control_c, 0, 67, 21
1, 68347, Control_c, 0, 67, 22
1, 68362, Control_c, 0, 67, 23
1, 68392, Control_c, 0, 67, 24
1, 68421, Control_c, 0, 67, 24
1, 68451, Control_c, 0, 67, 25
1, 68465, Control_c, 0, 67, 28
1, 68480, Note_on_c, 0, 70, 68
1, 68480, Control_c, 0, 67, 33
1, 68492, Note_on_c, 0, 65, 62
1, 68495, Control_c, 0, 67, 38
1, 68510, Control_c, 0, 64, 94
1, 68510, Control_c, 0, 67, 43
1, 68512, Note_on_c, 0, 62, 50
1, 68514, Note_on_c, 0, 56, 40
1, 68525, Control_c, 0, 67, 48
1, 68539, Control_c, 0, 64, 94
1, 68539, Control_c, 0, 67, 52
1, 68554, Control_c, 0, 64, 93
1, 68554, Control_c, 0, 67, 55
1, 68569, Control_c, 0, 64, 93
1, 68569, Control_c, 0, 67, 56
1, 68584, Control_c, 0, 64, 92
1, 68584, Control_c, 0, 67, 57
1, 68599, Control_c, 0, 64, 92
1, 68601, Note_off_c, 0, 56, 58
1, 68629, Control_c, 0, 64, 91
1, 68659, Control_c, 0, 64, 91
1, 68703, Control_c, 0, 67, 56
1, 68717, Control_c, 0, 64, 90
1, 68717, Control_c, 0, 67, 56
1, 68732, Control_c, 0, 64, 90
1, 68747, Control_c, 0, 64, 89
1, 68762, Control_c, 0, 64, 88
1, 68777, Control_c, 0, 64, 86
1, 68793, Control_c, 0, 64, 83
1, 68808, Control_c, 0, 64, 79
1, 68810, Note_off_c, 0, 62, 38
1, 68813, Note_on_c, 0, 75, 64
1, 68814, Note_on_c, 0, 66, 63
1, 68815, Note_off_c, 0, 65, 58
1, 68822, Control_c, 0, 64, 72
1, 68826, Note_on_c, 0, 63, 50
1, 68830, Note_on_c, 0, 54, 44
1, 68835, Note_off_c, 0, 70, 47
1, 68837, Control_c, 0, 64, 63
1, 68852, Control_c, 0, 64, 0
1, 68867, Control_c, 0, 67, 55
1, 68911, Control_c, 0, 67, 56
1, 68956, Control_c, 0, 64, 59
1, 68963, Note_off_c, 0, 66, 59
1, 68970, Control_c, 0, 64, 67
1, 68983, Note_off_c, 0, 63, 0
1, 68985, Control_c, 0, 64, 72
1, 69000, Control_c, 0, 64, 76
1, 69008, Note_on_c, 0, 63, 41
1, 69014, Note_on_c, 0, 71, 66
1, 69014, Control_c, 0, 64, 79
1, 69019, Note_off_c, 0, 75, 61
1, 69029, Control_c, 0, 64, 81
1, 69044, Control_c, 0, 64, 83
1, 69046, Note_off_c, 0, 54, 58
1, 69067, Control_c, 0, 64, 84
1, 69073, Note_off_c, 0, 63, 58
1, 69082, Control_c, 0, 64, 85
1, 69096, Control_c, 0, 64, 85
1, 69111, Control_c, 0, 64, 86
1, 69141, Note_off_c, 0, 71, 41
1, 69141, Control_c, 0, 67, 56
1, 69153, Note_on_c, 0, 75, 62
1, 69156, Control_c, 0, 67, 57
1, 69162, Note_on_c, 0, 66, 62
1, 69170, Control_c, 0, 67, 57
1, 69185, Note_off_c, 0, 75, 66
1, 69185, Control_c, 0, 67, 58
1, 69200, Control_c, 0, 67, 61
1, 69204, Note_off_c, 0, 66, 57
1, 69214, Control_c, 0, 67, 67
1, 69229, Control_c, 0, 67, 72
1, 69244, Control_c, 0, 67, 75
1, 69259, Control_c, 0, 67, 78
1, 69267, Note_on_c, 0, 70, 65
1, 69274, Control_c, 0, 67, 79
1, 69275, Note_on_c, 0, 61, 53
1, 69299, Note_off_c, 0, 61, 56
1, 69303, Control_c, 0, 64, 85
1, 69333, Control_c, 0, 67, 79
1, 69346, Note_off_c, 0, 70, 53
1, 69347, Control_c, 0, 64, 85
1, 69362, Control_c, 0, 67, 78
1, 69377, Control_c, 0, 64, 84
1, 69377, Control_c, 0, 67, 78
1, 69401, Note_on_c, 0, 75, 59
1, 69407, Control_c, 0, 67, 77
1, 69410, Note_on_c, 0, 66, 57
1, 69418, Note_on_c, 0, 34, 41
1, 69421, Note_off_c, 0, 75, 65
1, 69422, Control_c, 0, 64, 84
1, 69422, Control_c, 0, 67, 77
1, 69430, Note_off_c, 0, 66, 65
1, 69451, Control_c, 0, 64, 83
1, 69466, Control_c, 0, 64, 83
1, 69481, Control_c, 0, 64, 82
1, 69496, Control_c, 0, 64, 81
1, 69511, Control_c, 0, 64, 81
1, 69526, Control_c, 0, 64, 80
1, 69535, Note_on_c, 0, 68, 66
1, 69540, Control_c, 0, 64, 80
1, 69547, Note_on_c, 0, 56, 50
1, 69555, Control_c, 0, 67, 76
1, 69570, Control_c, 0, 64, 79
1, 69573, Note_off_c, 0, 56, 56
1, 69586, Control_c, 0, 67, 76
1, 69600, Control_c, 0, 64, 79
1, 69615, Control_c, 0, 64, 78
1, 69630, Control_c, 0, 64, 78
1, 69645, Control_c, 0, 64, 77
1, 69660, Control_c, 0, 64, 76
1, 69660, Control_c, 0, 67, 75
1, 69675, Control_c, 0, 64, 75
1, 69690, Control_c, 0, 64, 74
1, 69692, Note_off_c, 0, 68, 39
1, 69705, Control_c, 0, 64, 71
1, 69719, Control_c, 0, 64, 68
1, 69734, Control_c, 0, 64, 62
1, 69734, Control_c, 0, 67, 75
1, 69746, Note_on_c, 0, 70, 54
1, 69749, Control_c, 0, 64, 0
1, 69756, Note_on_c, 0, 58, 52
1, 69769, Note_on_c, 0, 46, 41
1, 69918, Control_c, 0, 64, 60
1, 69933, Control_c, 0, 64, 68
1, 69934, Note_off_c, 0, 58, 64
1, 69948, Control_c, 0, 64, 75
1, 69948, Control_c, 0, 67, 75
1, 69952, Note_off_c, 0, 34, 58
1, 69962, Control_c, 0, 64, 80
1, 69977, Note_off_c, 0, 70, 60
1, 69977, Control_c, 0, 64, 84
1, 69992, Control_c, 0, 64, 88
1, 70007, Control_c, 0, 64, 91
1, 70018, Note_off_c, 0, 46, 41
1, 70022, Control_c, 0, 64, 94
1, 70036, Control_c, 0, 64, 98
1, 70051, Control_c, 0, 64, 101
1, 70066, Control_c, 0, 64, 102
1, 70140, Control_c, 0, 67, 75
1, 70155, Control_c, 0, 67, 74
1, 70200, Control_c, 0, 67, 74
1, 70244, Control_c, 0, 67, 73
1, 70274, Control_c, 0, 64, 101
1, 70289, Control_c, 0, 64, 101
1, 70304, Control_c, 0, 64, 100
1, 70304, Control_c, 0, 67, 73
1, 70318, Control_c, 0, 64, 100
1, 70331, Note_on_c, 0, 70, 52
1, 70333, Control_c, 0, 64, 99
1, 70346, Note_on_c, 0, 65, 45
1, 70351, Note_on_c, 0, 61, 41
1, 70362, Control_c, 0, 64, 98
1, 70368, Note_on_c, 0, 53, 36
1, 70393, Control_c, 0, 64, 98
1, 70423, Control_c, 0, 64, 97
1, 70453, Control_c, 0, 64, 97
1, 70482, Control_c, 0, 64, 96
1, 70484, Note_off_c, 0, 53, 36
1, 70497, Control_c, 0, 67, 72
1, 70512, Control_c, 0, 64, 96
1, 70527, Control_c, 0, 64, 95
1, 70541, Control_c, 0, 64, 95
1, 70563, Control_c, 0, 64, 94
1, 70563, Control_c, 0, 67, 72
1, 70578, Control_c, 0, 64, 94
1, 70593, Control_c, 0, 64, 93
1, 70608, Control_c, 0, 64, 92
1, 70608, Control_c, 0, 67, 71
1, 70623, Control_c, 0, 64, 92
1, 70638, Control_c, 0, 64, 91
1, 70638, Control_c, 0, 67, 71
1, 70653, Control_c, 0, 64, 89
1, 70667, Control_c, 0, 64, 88
1, 70680, Note_off_c, 0, 61, 32
1, 70682, Control_c, 0, 64, 86
1, 70682, Control_c, 0, 67, 70
1, 70687, Note_off_c, 0, 65, 37
1, 70697, Control_c, 0, 64, 84
1, 70700, Note_on_c, 0, 75, 53
1, 70704, Note_on_c, 0, 66, 52
1, 70712, Control_c, 0, 64, 81
1, 70713, Note_on_c, 0, 59, 39
1, 70727, Control_c, 0, 64, 78
1, 70736, Note_on_c, 0, 51, 35
1, 70736, Note_off_c, 0, 70, 33
1, 70741, Control_c, 0, 64, 73
1, 70756, Control_c, 0, 64, 65
1, 70771, Control_c, 0, 64, 0
1, 70830, Control_c, 0, 67, 70
1, 70845, Control_c, 0, 64, 47
1, 70859, Control_c, 0, 64, 62
1, 70859, Control_c, 0, 67, 69
1, 70874, Control_c, 0, 64, 67
1, 70877, Note_off_c, 0, 66, 54
1, 70883, Note_off_c, 0, 75, 53
1, 70889, Control_c, 0, 64, 72
1, 70904, Control_c, 0, 64, 77
1, 70911, Note_on_c, 0, 71, 55
1, 70915, Note_on_c, 0, 63, 50
1, 70919, Control_c, 0, 64, 81
1, 70933, Control_c, 0, 64, 83
1, 70948, Control_c, 0, 64, 85
1, 70963, Control_c, 0, 64, 86
1, 70972, Note_off_c, 0, 63, 41
1, 70978, Control_c, 0, 64, 88
1, 70992, Note_off_c, 0, 59, 51
1, 70993, Control_c, 0, 64, 89
1, 70993, Control_c, 0, 67, 70
1, 71007, Control_c, 0, 64, 89
1, 71007, Control_c, 0, 67, 70
1, 71022, Control_c, 0, 64, 90
1, 71031, Note_off_c, 0, 71, 42
1, 71037, Control_c, 0, 64, 90
1, 71037, Control_c, 0, 67, 71
1, 71052, Control_c, 0, 67, 71
1, 71058, Note_on_c, 0, 66, 62
1, 71059, Note_on_c, 0, 75, 57
1, 71060, Note_off_c, 0, 51, 42
1, 71067, Control_c, 0, 64, 91
1, 71082, Control_c, 0, 67, 72
1, 71104, Note_off_c, 0, 66, 53
1, 71111, Control_c, 0, 67, 73
1, 71126, Control_c, 0, 67, 73
1, 71152, Note_off_c, 0, 75, 39
1, 71171, Control_c, 0, 67, 74
1, 71184, Note_on_c, 0, 70, 64
1, 71205, Note_on_c, 0, 61, 47
1, 71234, Note_off_c, 0, 61, 55
1, 71261, Control_c, 0, 67, 73
1, 71344, Note_on_c, 0, 75, 54
1, 71344, Note_on_c, 0, 66, 54
1, 71354, Note_off_c, 0, 70, 30
1, 71363, Note_off_c, 0, 75, 64
1, 71368, Note_off_c, 0, 66, 62
1, 71386, Control_c, 0, 67, 74
1, 71400, Note_on_c, 0, 34, 35
1, 71446, Control_c, 0, 67, 73
1, 71461, Control_c, 0, 64, 90
1, 71473, Note_on_c, 0, 68, 68
1, 71490, Control_c, 0, 64, 90
1, 71505, Control_c, 0, 64, 89
1, 71535, Control_c, 0, 64, 89
1, 71540, Note_off_c, 0, 68, 62
1, 71550, Control_c, 0, 67, 73
1, 71562, Poly_aftertouch_c, 0, 56, 0
1, 71564, Control_c, 0, 64, 88
1, 71579, Control_c, 0, 64, 88
1, 71584, Note_on_c, 0, 58, 66
1, 71594, Control_c, 0, 64, 87
1, 71608, Control_c, 0, 64, 87
1, 71608, Control_c, 0, 67, 72
1, 71623, Control_c, 0, 64, 86
1, 71638, Control_c, 0, 64, 85
1, 71645, Note_off_c, 0, 58, 59
1, 71653, Control_c, 0, 64, 85
1, 71668, Control_c, 0, 64, 84
1, 71668, Control_c, 0, 67, 72
1, 71682, Control_c, 0, 64, 83
1, 71697, Control_c, 0, 64, 82
1, 71712, Control_c, 0, 64, 81
1, 71726, Note_on_c, 0, 70, 63
1, 71727, Control_c, 0, 64, 78
1, 71727, Control_c, 0, 67, 71
1, 71731, Note_on_c, 0, 46, 55
1, 71741, Control_c, 0, 64, 74
1, 71756, Control_c, 0, 64, 66
1, 71771, Control_c, 0, 64, 33
1, 71786, Control_c, 0, 64, 0
1, 71836, Note_off_c, 0, 70, 61
1, 71845, Control_c, 0, 64, 58
1, 71860, Note_on_c, 0, 71, 57
1, 71860, Control_c, 0, 64, 67
1, 71875, Control_c, 0, 64, 73
1, 71890, Control_c, 0, 64, 81
1, 71902, Note_off_c, 0, 71, 57
1, 71905, Control_c, 0, 64, 89
1, 71920, Control_c, 0, 64, 98
1, 71934, Control_c, 0, 64, 105
1, 71936, Note_off_c, 0, 34, 55
1, 71938, Note_on_c, 0, 70, 67
1, 71949, Control_c, 0, 64, 112
1, 71960, Note_off_c, 0, 46, 62
1, 71964, Control_c, 0, 64, 119
1, 71974, Note_off_c, 0, 70, 57
1, 71979, Control_c, 0, 64, 127
1, 72008, Note_on_c, 0, 71, 67
1, 72044, Note_off_c, 0, 71, 56
1, 72078, Note_on_c, 0, 70, 71
1, 72090, Control_c, 0, 67, 71
1, 72116, Note_off_c, 0, 70, 56
1, 72148, Note_on_c, 0, 71, 67
1, 72179, Control_c, 0, 67, 70
1, 72179, Note_off_c, 0, 71, 61
1, 72208, Note_on_c, 0, 62, 69
1, 72209, Control_c, 0, 67, 70
1, 72214, Note_on_c, 0, 70, 62
1, 72221, Note_on_c, 0, 58, 57
1, 72224, Control_c, 0, 67, 69
1, 72228, Note_on_c, 0, 53, 49
1, 72236, Note_on_c, 0, 50, 30
1, 72238, Control_c, 0, 67, 69
1, 72252, Note_off_c, 0, 62, 50
1, 72253, Note_off_c, 0, 70, 64
1, 72253, Control_c, 0, 67, 68
1, 72259, Note_off_c, 0, 58, 61
1, 72265, Note_on_c, 0, 71, 67
1, 72266, Note_off_c, 0, 53, 64
1, 72268, Control_c, 0, 67, 68
1, 72273, Note_off_c, 0, 50, 50
1, 72283, Control_c, 0, 67, 65
1, 72298, Control_c, 0, 67, 63
1, 72302, Note_off_c, 0, 71, 54
1, 72312, Control_c, 0, 67, 61
1, 72327, Control_c, 0, 67, 57
1, 72331, Note_on_c, 0, 70, 72
1, 72342, Control_c, 0, 67, 53
1, 72356, Control_c, 0, 67, 47
1, 72371, Control_c, 0, 67, 40
1, 72380, Note_off_c, 0, 70, 58
1, 72386, Control_c, 0, 67, 33
1, 72395, Note_on_c, 0, 71, 71
1, 72401, Control_c, 0, 67, 29
1, 72416, Control_c, 0, 67, 27
1, 72430, Control_c, 0, 67, 26
1, 72434, Note_off_c, 0, 71, 55
1, 72445, Control_c, 0, 67, 25
1, 72446, Note_on_c, 0, 62, 77
1, 72454, Note_on_c, 0, 70, 72
1, 72457, Note_on_c, 0, 58, 70
1, 72459, Note_on_c, 0, 53, 63
1, 72460, Control_c, 0, 67, 23
1, 72462, Note_on_c, 0, 50, 65
1, 72475, Control_c, 0, 67, 21
1, 72490, Control_c, 0, 67, 18
1, 72504, Control_c, 0, 67, 15
1, 72510, Note_off_c, 0, 70, 63
1, 72517, Note_on_c, 0, 71, 72
1, 72519, Control_c, 0, 67, 12
1, 72534, Control_c, 0, 67, 10
1, 72538, Note_off_c, 0, 62, 59
1, 72549, Control_c, 0, 67, 9
1, 72551, Note_off_c, 0, 50, 56
1, 72556, Note_off_c, 0, 71, 57
1, 72564, Control_c, 0, 67, 8
1, 72577, Note_on_c, 0, 70, 69
1, 72578, Control_c, 0, 67, 0
1, 72593, Note_off_c, 0, 58, 55
1, 72599, Note_off_c, 0, 53, 56
1, 72630, Note_off_c, 0, 70, 61
1, 72639, Note_on_c, 0, 71, 73
1, 72695, Note_off_c, 0, 71, 58
1, 72701, Note_on_c, 0, 70, 75
1, 72759, Note_off_c, 0, 70, 61
1, 72763, Note_on_c, 0, 71, 76
1, 72821, Note_off_c, 0, 71, 60
1, 72830, Note_on_c, 0, 70, 73
1, 72891, Note_off_c, 0, 70, 63
1, 72892, Note_on_c, 0, 71, 76
1, 72920, Note_on_c, 0, 46, 84
1, 72929, Note_on_c, 0, 34, 70
1, 72947, Note_off_c, 0, 71, 61
1, 72949, Note_on_c, 0, 70, 78
1, 72984, Note_off_c, 0, 34, 53
1, 72992, Note_off_c, 0, 46, 53
1, 73019, Note_on_c, 0, 71, 75
1, 73077, Note_off_c, 0, 71, 62
1, 73167, Note_on_c, 0, 71, 42
1, 73187, Note_off_c, 0, 71, 60
1, 73209, Control_c, 0, 64, 118
1, 73216, Note_on_c, 0, 46, 87
1, 73220, Note_on_c, 0, 34, 75
1, 73224, Control_c, 0, 64, 104
1, 73228, Note_on_c, 0, 75, 82
1, 73239, Control_c, 0, 64, 90
1, 73240, Note_off_c, 0, 70, 62
1, 73247, Note_on_c, 0, 71, 74
1, 73253, Control_c, 0, 64, 74
1, 73268, Control_c, 0, 64, 53
1, 73283, Control_c, 0, 64, 0
1, 73372, Control_c, 0, 64, 64
1, 73385, Note_off_c, 0, 71, 48
1, 73386, Control_c, 0, 64, 75
1, 73389, Note_on_c, 0, 70, 78
1, 73395, Note_off_c, 0, 75, 64
1, 73397, Note_on_c, 0, 74, 76
1, 73401, Control_c, 0, 64, 86
1, 73416, Control_c, 0, 64, 97
1, 73431, Control_c, 0, 64, 106
1, 73446, Control_c, 0, 64, 114
1, 73449, Note_off_c, 0, 34, 64
1, 73461, Control_c, 0, 64, 121
1, 73471, Note_off_c, 0, 70, 62
1, 73473, Note_off_c, 0, 74, 63
1, 73474, Note_on_c, 0, 71, 76
1, 73476, Control_c, 0, 64, 127
1, 73477, Note_off_c, 0, 46, 63
1, 73479, Note_on_c, 0, 75, 74
1, 73548, Note_off_c, 0, 71, 60
1, 73556, Note_on_c, 0, 74, 72
1, 73558, Note_on_c, 0, 70, 72
1, 73562, Note_off_c, 0, 75, 61
1, 73615, Note_off_c, 0, 70, 62
1, 73618, Note_on_c, 0, 71, 74
1, 73618, Note_off_c, 0, 74, 64
1, 73639, Note_on_c, 0, 75, 56
1, 73690, Note_on_c, 0, 74, 74
1, 73691, Note_off_c, 0, 71, 62
1, 73701, Note_on_c, 0, 70, 72
1, 73717, Note_off_c, 0, 75, 62
1, 73727, Note_on_c, 0, 65, 89
1, 73732, Note_on_c, 0, 53, 75
1, 73735, Note_on_c, 0, 58, 77
1, 73744, Note_off_c, 0, 74, 62
1, 73754, Note_on_c, 0, 71, 78
1, 73756, Note_off_c, 0, 70, 63
1, 73768, Note_on_c, 0, 75, 42
1, 73771, Note_off_c, 0, 53, 63
1, 73775, Note_off_c, 0, 65, 64
1, 73787, Note_off_c, 0, 58, 63
1, 73809, Note_off_c, 0, 75, 0
1, 73809, Note_on_c, 0, 75, 17
1, 73821, Note_on_c, 0, 74, 77
1, 73827, Note_off_c, 0, 71, 60
1, 73832, Note_on_c, 0, 70, 70
1, 73845, Note_off_c, 0, 75, 57
1, 73878, Note_off_c, 0, 74, 61
1, 73886, Note_on_c, 0, 71, 76
1, 73889, Note_off_c, 0, 70, 63
1, 73927, Note_on_c, 0, 75, 32
1, 73962, Note_on_c, 0, 74, 80
1, 73969, Note_off_c, 0, 71, 61
1, 73970, Note_on_c, 0, 70, 75
1, 73984, Note_off_c, 0, 75, 61
1, 73995, Note_on_c, 0, 65, 91
1, 74000, Note_on_c, 0, 53, 78
1, 74002, Note_on_c, 0, 58, 77
1, 74016, Note_off_c, 0, 74, 60
1, 74028, Note_on_c, 0, 71, 70
1, 74030, Note_off_c, 0, 70, 61
1, 74045, Note_on_c, 0, 75, 32
1, 74111, Note_off_c, 0, 65, 63
1, 74111, Note_off_c, 0, 71, 61
1, 74117, Note_on_c, 0, 74, 68
1, 74118, Note_on_c, 0, 70, 72
1, 74153, Note_off_c, 0, 74, 53
1, 74153, Note_off_c, 0, 75, 0
1, 74173, Note_off_c, 0, 53, 63
1, 74176, Note_on_c, 0, 71, 79
1, 74176, Note_off_c, 0, 70, 64
1, 74191, Poly_aftertouch_c, 0, 75, 127
1, 74198, Note_off_c, 0, 58, 61
1, 74254, Note_off_c, 0, 71, 58
1, 74261, Note_on_c, 0, 70, 70
1, 74262, Note_on_c, 0, 74, 68
1, 74304, Note_off_c, 0, 74, 58
1, 74322, Note_on_c, 0, 71, 81
1, 74327, Note_off_c, 0, 70, 63
1, 74333, Note_on_c, 0, 75, 12
1, 74405, Note_off_c, 0, 71, 61
1, 74409, Note_on_c, 0, 70, 74
1, 74415, Note_on_c, 0, 74, 63
1, 74447, Note_off_c, 0, 74, 54
1, 74459, Note_on_c, 0, 71, 77
1, 74465, Note_off_c, 0, 70, 63
1, 74533, Note_on_c, 0, 32, 84
1, 74534, Note_on_c, 0, 44, 87
1, 74542, Note_on_c, 0, 74, 74
1, 74544, Note_off_c, 0, 71, 60
1, 74547, Note_on_c, 0, 70, 75
1, 74608, Note_on_c, 0, 71, 77
1, 74610, Note_off_c, 0, 70, 61
1, 74615, Note_off_c, 0, 74, 63
1, 74671, Note_off_c, 0, 75, 0
1, 74691, Note_on_c, 0, 74, 70
1, 74692, Note_on_c, 0, 70, 75
1, 74713, Note_off_c, 0, 71, 0
1, 74722, Note_off_c, 0, 70, 64
1, 74722, Control_c, 0, 64, 126
1, 74725, Poly_aftertouch_c, 0, 75, 0
1, 74737, Control_c, 0, 64, 122
1, 74746, Note_off_c, 0, 74, 60
1, 74750, Poly_aftertouch_c, 0, 71, 127
1, 74752, Control_c, 0, 64, 120
1, 74766, Control_c, 0, 64, 119
1, 74781, Control_c, 0, 64, 117
1, 74790, Note_off_c, 0, 44, 52
1, 74794, Note_on_c, 0, 74, 57
1, 74796, Control_c, 0, 64, 116
1, 74799, Note_on_c, 0, 70, 83
1, 74811, Control_c, 0, 64, 115
1, 74819, Poly_aftertouch_c, 0, 71, 0
1, 74826, Control_c, 0, 64, 113
1, 74841, Control_c, 0, 64, 113
1, 74856, Control_c, 0, 64, 112
1, 74871, Control_c, 0, 64, 111
1, 74886, Control_c, 0, 64, 110
1, 74901, Control_c, 0, 64, 108
1, 74915, Control_c, 0, 64, 107
1, 74930, Control_c, 0, 64, 106
1, 74930, Note_off_c, 0, 32, 56
1, 74945, Control_c, 0, 64, 105
1, 74959, Control_c, 0, 64, 103
1, 74962, Note_on_c, 0, 30, 81
1, 74962, Note_on_c, 0, 42, 87
1, 74974, Control_c, 0, 64, 100
1, 74989, Control_c, 0, 64, 96
1, 75004, Control_c, 0, 64, 90
1, 75019, Control_c, 0, 64, 81
1, 75033, Control_c, 0, 64, 72
1, 75056, Control_c, 0, 64, 56
1, 75059, Note_on_c, 0, 75, 88
1, 75062, Note_on_c, 0, 71, 82
1, 75063, Note_off_c, 0, 70, 63
1, 75066, Note_off_c, 0, 74, 65
1, 75070, Control_c, 0, 64, 0
1, 75205, Control_c, 0, 64, 31
1, 75219, Control_c, 0, 64, 66
1, 75234, Control_c, 0, 64, 73
1, 75249, Control_c, 0, 64, 81
1, 75264, Control_c, 0, 64, 88
1, 75279, Control_c, 0, 64, 94
1, 75285, Note_off_c, 0, 30, 63
1, 75294, Control_c, 0, 64, 101
1, 75309, Control_c, 0, 64, 109
1, 75317, Note_on_c, 0, 73, 76
1, 75321, Note_on_c, 0, 70, 74
1, 75324, Control_c, 0, 64, 114
1, 75325, Note_off_c, 0, 71, 59
1, 75331, Note_off_c, 0, 75, 57
1, 75338, Control_c, 0, 64, 118
1, 75348, Note_off_c, 0, 42, 56
1, 75353, Control_c, 0, 64, 121
1, 75368, Control_c, 0, 64, 122
1, 75382, Control_c, 0, 64, 124
1, 75397, Control_c, 0, 64, 125
1, 75409, Note_off_c, 0, 73, 63
1, 75412, Note_off_c, 0, 70, 62
1, 75412, Control_c, 0, 64, 125
1, 75420, Note_on_c, 0, 75, 71
1, 75428, Note_on_c, 0, 71, 66
1, 75471, Control_c, 0, 64, 126
1, 75500, Note_off_c, 0, 71, 58
1, 75506, Note_on_c, 0, 73, 72
1, 75511, Note_on_c, 0, 70, 69
1, 75514, Note_off_c, 0, 75, 60
1, 75569, Note_off_c, 0, 70, 62
1, 75572, Note_off_c, 0, 73, 62
1, 75579, Note_on_c, 0, 71, 65
1, 75589, Note_on_c, 0, 75, 60
1, 75604, Note_on_c, 0, 49, 70
1, 75604, Control_c, 0, 64, 125
1, 75652, Note_on_c, 0, 73, 67
1, 75652, Note_off_c, 0, 71, 60
1, 75671, Note_off_c, 0, 75, 56
1, 75673, Note_on_c, 0, 70, 59
1, 75717, Note_off_c, 0, 70, 63
1, 75720, Note_off_c, 0, 73, 61
1, 75726, Note_on_c, 0, 71, 68
1, 75729, Note_on_c, 0, 75, 54
1, 75795, Note_off_c, 0, 71, 58
1, 75812, Note_on_c, 0, 70, 70
1, 75813, Note_on_c, 0, 73, 67
1, 75821, Note_off_c, 0, 49, 61
1, 75823, Note_off_c, 0, 75, 63
1, 75836, Note_on_c, 0, 56, 62
1, 75866, Note_off_c, 0, 73, 61
1, 75871, Note_off_c, 0, 70, 62
1, 75880, Note_on_c, 0, 71, 69
1, 75890, Note_on_c, 0, 75, 50
1, 75953, Note_off_c, 0, 71, 60
1, 75956, Note_on_c, 0, 73, 72
1, 75964, Note_off_c, 0, 75, 62
1, 75969, Note_on_c, 0, 70, 64
1, 75998, Note_off_c, 0, 56, 60
1, 76009, Note_off_c, 0, 70, 60
1, 76015, Note_off_c, 0, 73, 56
1, 76021, Note_on_c, 0, 54, 62
1, 76024, Note_on_c, 0, 71, 68
1, 76038, Note_on_c, 0, 75, 48
1, 76097, Note_off_c, 0, 71, 62
1, 76099, Note_on_c, 0, 73, 72
1, 76100, Note_off_c, 0, 54, 60
1, 76108, Note_on_c, 0, 70, 68
1, 76110, Note_off_c, 0, 75, 57
1, 76112, Note_on_c, 0, 56, 69
1, 76153, Note_off_c, 0, 70, 57
1, 76155, Note_off_c, 0, 73, 58
1, 76163, Note_on_c, 0, 71, 71
1, 76173, Note_on_c, 0, 75, 38
1, 76184, Note_off_c, 0, 56, 60
1, 76209, Note_on_c, 0, 58, 65
1, 76234, Note_on_c, 0, 73, 69
1, 76235, Note_off_c, 0, 71, 60
1, 76253, Note_on_c, 0, 70, 69
1, 76286, Note_off_c, 0, 73, 58
1, 76293, Note_off_c, 0, 70, 61
1, 76294, Control_c, 0, 64, 124
1, 76297, Note_off_c, 0, 75, 0
1, 76297, Note_on_c, 0, 75, 28
1, 76299, Note_on_c, 0, 71, 73
1, 76309, Control_c, 0, 64, 122
1, 76323, Control_c, 0, 64, 121
1, 76338, Control_c, 0, 64, 121
1, 76353, Control_c, 0, 64, 120
1, 76366, Note_on_c, 0, 73, 66
1, 76368, Note_off_c, 0, 71, 59
1, 76368, Control_c, 0, 64, 119
1, 76383, Control_c, 0, 64, 118
1, 76387, Note_on_c, 0, 70, 66
1, 76396, Note_off_c, 0, 58, 55
1, 76397, Control_c, 0, 64, 117
1, 76403, Note_off_c, 0, 73, 57
1, 76412, Note_off_c, 0, 70, 66
1, 76412, Control_c, 0, 64, 117
1, 76416, Note_on_c, 0, 49, 53
1, 76424, Note_on_c, 0, 71, 67
1, 76427, Control_c, 0, 64, 116
1, 76442, Control_c, 0, 64, 116
1, 76457, Control_c, 0, 64, 115
1, 76471, Control_c, 0, 64, 114
1, 76486, Control_c, 0, 64, 113
1, 76496, Note_off_c, 0, 71, 58
1, 76500, Note_on_c, 0, 73, 68
1, 76501, Control_c, 0, 64, 113
1, 76504, Note_on_c, 0, 70, 69
1, 76516, Control_c, 0, 64, 112
1, 76528, Note_off_c, 0, 73, 66
1, 76531, Control_c, 0, 64, 111
1, 76553, Control_c, 0, 64, 109
1, 76558, Note_off_c, 0, 70, 55
1, 76568, Control_c, 0, 64, 108
1, 76573, Note_on_c, 0, 71, 59
1, 76583, Control_c, 0, 64, 108
1, 76598, Control_c, 0, 64, 107
1, 76612, Control_c, 0, 64, 106
1, 76627, Control_c, 0, 64, 105
1, 76642, Control_c, 0, 64, 103
1, 76657, Control_c, 0, 64, 101
1, 76658, Note_off_c, 0, 71, 58
1, 76663, Note_on_c, 0, 73, 67
1, 76672, Control_c, 0, 64, 98
1, 76680, Note_on_c, 0, 70, 56
1, 76683, Note_on_c, 0, 42, 48
1, 76686, Control_c, 0, 64, 95
1, 76687, Note_off_c, 0, 49, 27
1, 76701, Note_off_c, 0, 75, 42
1, 76701, Control_c, 0, 64, 91
1, 76716, Control_c, 0, 64, 87
1, 76731, Control_c, 0, 64, 81
1, 76746, Control_c, 0, 64, 72
1, 76761, Control_c, 0, 64, 61
1, 76776, Control_c, 0, 64, 0
1, 76880, Control_c, 0, 64, 65
1, 76891, Note_off_c, 0, 70, 61
1, 76895, Control_c, 0, 64, 73
1, 76900, Note_on_c, 0, 72, 71
1, 76904, Note_on_c, 0, 69, 59
1, 76910, Control_c, 0, 64, 80
1, 76916, Note_off_c, 0, 42, 55
1, 76919, Note_on_c, 0, 49, 49
1, 76922, Note_off_c, 0, 73, 46
1, 76925, Control_c, 0, 64, 85
1, 76939, Control_c, 0, 64, 88
1, 76954, Control_c, 0, 64, 90
1, 76969, Control_c, 0, 64, 92
1, 76984, Control_c, 0, 64, 94
1, 76999, Control_c, 0, 64, 94
1, 77012, Note_off_c, 0, 69, 46
1, 77053, Note_on_c, 0, 73, 73
1, 77056, Note_off_c, 0, 72, 55
1, 77070, Note_off_c, 0, 49, 60
1, 77074, Note_on_c, 0, 70, 63
1, 77079, Note_on_c, 0, 56, 56
1, 77097, Note_off_c, 0, 70, 65
1, 77124, Note_off_c, 0, 73, 59
1, 77146, Control_c, 0, 64, 94
1, 77161, Note_off_c, 0, 56, 58
1, 77161, Control_c, 0, 64, 93
1, 77169, Note_on_c, 0, 70, 76
1, 77176, Control_c, 0, 64, 93
1, 77191, Control_c, 0, 64, 92
1, 77206, Control_c, 0, 64, 90
1, 77207, Note_on_c, 0, 73, 60
1, 77215, Note_off_c, 0, 70, 57
1, 77220, Control_c, 0, 64, 87
1, 77235, Control_c, 0, 64, 82
1, 77247, Note_on_c, 0, 77, 71
1, 77250, Control_c, 0, 64, 76
1, 77265, Control_c, 0, 64, 68
1, 77280, Control_c, 0, 64, 53
1, 77282, Note_on_c, 0, 75, 76
1, 77291, Note_on_c, 0, 54, 50
1, 77302, Control_c, 0, 64, 0
1, 77304, Note_on_c, 0, 71, 74
1, 77305, Note_off_c, 0, 73, 57
1, 77330, Note_off_c, 0, 77, 61
1, 77391, Control_c, 0, 64, 24
1, 77397, Note_on_c, 0, 56, 48
1, 77406, Control_c, 0, 64, 64
1, 77421, Control_c, 0, 64, 71
1, 77435, Control_c, 0, 64, 76
1, 77450, Control_c, 0, 64, 81
1, 77465, Control_c, 0, 64, 85
1, 77479, Control_c, 0, 64, 88
1, 77491, Note_off_c, 0, 71, 60
1, 77492, Note_on_c, 0, 73, 80
1, 77494, Control_c, 0, 64, 90
1, 77496, Note_on_c, 0, 70, 70
1, 77497, Note_off_c, 0, 75, 64
1, 77509, Note_on_c, 0, 58, 50
1, 77509, Control_c, 0, 64, 91
1, 77524, Control_c, 0, 64, 92
1, 77541, Note_off_c, 0, 70, 60
1, 77567, Note_off_c, 0, 56, 30
1, 77727, Note_on_c, 0, 70, 74
1, 77732, Control_c, 0, 64, 91
1, 77733, Note_on_c, 0, 61, 50
1, 77733, Note_on_c, 0, 66, 62
1, 77738, Note_off_c, 0, 54, 50
1, 77750, Note_off_c, 0, 58, 36
1, 77762, Control_c, 0, 64, 91
1, 77773, Note_off_c, 0, 61, 61
1, 77807, Control_c, 0, 64, 90
1, 77837, Control_c, 0, 64, 90
1, 77866, Control_c, 0, 64, 89
1, 77896, Control_c, 0, 64, 89
1, 77914, Note_off_c, 0, 73, 37
1, 77925, Control_c, 0, 64, 88
1, 77940, Control_c, 0, 64, 88
1, 77955, Control_c, 0, 64, 87
1, 77969, Control_c, 0, 64, 86
1, 77984, Control_c, 0, 64, 85
1, 77999, Control_c, 0, 64, 85
1, 78009, Note_off_c, 0, 66, 39
1, 78014, Control_c, 0, 64, 84
1, 78029, Control_c, 0, 64, 83
1, 78032, Note_on_c, 0, 42, 45
1, 78051, Control_c, 0, 64, 83
1, 78066, Control_c, 0, 64, 82
1, 78081, Control_c, 0, 64, 80
1, 78096, Control_c, 0, 64, 78
1, 78111, Control_c, 0, 64, 74
1, 78111, Note_on_c, 0, 78, 69
1, 78125, Control_c, 0, 64, 68
1, 78130, Note_on_c, 0, 75, 54
1, 78140, Control_c, 0, 64, 55
1, 78155, Control_c, 0, 64, 0
1, 78182, Note_off_c, 0, 70, 49
1, 78229, Control_c, 0, 64, 49
1, 78244, Control_c, 0, 64, 66
1, 78258, Control_c, 0, 64, 72
1, 78273, Control_c, 0, 64, 79
1, 78288, Control_c, 0, 64, 83
1, 78302, Control_c, 0, 64, 87
1, 78317, Control_c, 0, 64, 90
1, 78332, Control_c, 0, 64, 93
1, 78343, Note_off_c, 0, 78, 50
1, 78347, Control_c, 0, 64, 94
1, 78362, Control_c, 0, 64, 95
1, 78368, Note_off_c, 0, 42, 58
1, 78387, Note_on_c, 0, 49, 50
1, 78398, Note_off_c, 0, 75, 36
1, 78482, Note_on_c, 0, 77, 62
1, 78493, Note_on_c, 0, 73, 49
1, 78522, Note_off_c, 0, 73, 55
1, 78580, Note_off_c, 0, 49, 57
1, 78596, Note_on_c, 0, 75, 62
1, 78610, Note_on_c, 0, 56, 43
1, 78610, Note_on_c, 0, 71, 47
1, 78610, Note_off_c, 0, 77, 26
1, 78631, Note_off_c, 0, 75, 63
1, 78637, Note_off_c, 0, 71, 55
1, 78695, Note_on_c, 0, 73, 61
1, 78713, Note_on_c, 0, 77, 59
1, 78719, Note_off_c, 0, 73, 64
1, 78732, Note_off_c, 0, 77, 64
1, 78785, Note_off_c, 0, 56, 47
1, 78807, Note_on_c, 0, 73, 63
1, 78809, Note_on_c, 0, 54, 52
1, 78814, Note_on_c, 0, 77, 67
1, 78854, Note_off_c, 0, 73, 52
1, 78901, Note_off_c, 0, 54, 54
1, 78904, Note_on_c, 0, 56, 48
1, 78915, Note_on_c, 0, 75, 69
1, 78922, Note_on_c, 0, 71, 64
1, 78934, Note_off_c, 0, 77, 35
1, 79011, Note_off_c, 0, 56, 62
1, 79014, Note_off_c, 0, 71, 29
1, 79023, Note_off_c, 0, 75, 57
1, 79034, Note_on_c, 0, 73, 65
1, 79040, Note_on_c, 0, 70, 60
1, 79044, Note_on_c, 0, 58, 52
1, 79129, Note_off_c, 0, 70, 44
1, 79147, Note_on_c, 0, 71, 65
1, 79147, Note_on_c, 0, 75, 70
1, 79170, Note_off_c, 0, 58, 54
1, 79175, Note_off_c, 0, 73, 32
1, 79193, Note_off_c, 0, 71, 57
1, 79211, Note_off_c, 0, 75, 64
1, 79216, Control_c, 0, 64, 94
1, 79245, Control_c, 0, 64, 94
1, 79260, Control_c, 0, 64, 93
1, 79289, Note_on_c, 0, 49, 42
1, 79290, Control_c, 0, 64, 93
1, 79297, Note_on_c, 0, 75, 60
1, 79303, Note_on_c, 0, 71, 57
1, 79319, Control_c, 0, 64, 92
1, 79347, Note_off_c, 0, 71, 44
1, 79348, Control_c, 0, 64, 92
1, 79363, Control_c, 0, 64, 91
1, 79393, Control_c, 0, 64, 91
1, 79414, Note_on_c, 0, 73, 67
1, 79417, Note_on_c, 0, 70, 65
1, 79434, Note_off_c, 0, 75, 58
1, 79437, Control_c, 0, 64, 90
1, 79467, Control_c, 0, 64, 90
1, 79493, Note_off_c, 0, 70, 60
1, 79497, Control_c, 0, 64, 89
1, 79512, Control_c, 0, 64, 89
1, 79542, Control_c, 0, 64, 88
1, 79578, Control_c, 0, 64, 88
1, 79593, Control_c, 0, 64, 87
1, 79608, Control_c, 0, 64, 86
1, 79623, Control_c, 0, 64, 85
1, 79637, Control_c, 0, 64, 84
1, 79652, Note_on_c, 0, 70, 59
1, 79652, Control_c, 0, 64, 83
1, 79656, Note_on_c, 0, 66, 55
1, 79667, Control_c, 0, 64, 82
1, 79673, Note_on_c, 0, 42, 38
1, 79682, Control_c, 0, 64, 80
1, 79697, Control_c, 0, 64, 78
1, 79708, Note_off_c, 0, 73, 56
1, 79709, Note_off_c, 0, 49, 38
1, 79712, Control_c, 0, 64, 75
1, 79727, Control_c, 0, 64, 71
1, 79742, Control_c, 0, 64, 66
1, 79756, Control_c, 0, 64, 56
1, 79771, Control_c, 0, 64, 0
1, 79904, Control_c, 0, 64, 56
1, 79919, Control_c, 0, 64, 68
1, 79934, Control_c, 0, 64, 75
1, 79943, Note_on_c, 0, 49, 59
1, 79944, Note_off_c, 0, 42, 60
1, 79948, Control_c, 0, 64, 83
1, 79963, Control_c, 0, 64, 88
1, 79979, Control_c, 0, 64, 92
1, 79994, Control_c, 0, 64, 96
1, 80001, Note_off_c, 0, 66, 62
1, 80009, Control_c, 0, 64, 99
1, 80024, Control_c, 0, 64, 102
1, 80039, Control_c, 0, 64, 104
1, 80053, Control_c, 0, 64, 105
1, 80068, Control_c, 0, 64, 106
1, 80083, Control_c, 0, 64, 106
1, 80098, Note_off_c, 0, 49, 61
1, 80112, Note_on_c, 0, 56, 63
1, 80127, Control_c, 0, 64, 107
1, 80142, Control_c, 0, 64, 107
1, 80157, Control_c, 0, 64, 108
1, 80171, Control_c, 0, 64, 108
1, 80186, Control_c, 0, 64, 109
1, 80201, Control_c, 0, 64, 109
1, 80216, Control_c, 0, 64, 110
1, 80231, Control_c, 0, 64, 111
1, 80245, Control_c, 0, 64, 112
1, 80260, Control_c, 0, 64, 112
1, 80275, Control_c, 0, 64, 113
1, 80280, Note_on_c, 0, 63, 75
1, 80283, Note_off_c, 0, 56, 58
1, 80309, Note_on_c, 0, 54, 53
1, 80313, Control_c, 0, 64, 114
1, 80327, Control_c, 0, 64, 115
1, 80342, Control_c, 0, 64, 115
1, 80357, Control_c, 0, 64, 116
1, 80371, Control_c, 0, 64, 117
1, 80386, Control_c, 0, 64, 117
1, 80391, Note_on_c, 0, 64, 78
1, 80394, Note_off_c, 0, 63, 60
1, 80401, Control_c, 0, 64, 118
1, 80406, Note_on_c, 0, 56, 64
1, 80416, Control_c, 0, 64, 118
1, 80428, Note_off_c, 0, 70, 61
1, 80431, Control_c, 0, 64, 119
1, 80446, Control_c, 0, 64, 120
1, 80460, Control_c, 0, 64, 122
1, 80475, Control_c, 0, 64, 126
1, 80490, Control_c, 0, 64, 127
1, 80506, Note_on_c, 0, 66, 86
1, 80521, Note_off_c, 0, 64, 62
1, 80530, Note_on_c, 0, 58, 69
1, 80546, Note_off_c, 0, 56, 58
1, 80615, Note_on_c, 0, 64, 84
1, 80678, Note_off_c, 0, 66, 56
1, 80725, Note_on_c, 0, 68, 91
1, 80726, Note_on_c, 0, 61, 69
1, 80737, Note_off_c, 0, 58, 60
1, 80746, Note_off_c, 0, 64, 58
1, 80751, Note_off_c, 0, 61, 66
1, 80777, Note_off_c, 0, 54, 61
1, 80842, Note_on_c, 0, 66, 92
1, 80844, Note_off_c, 0, 68, 42
1, 80880, Note_off_c, 0, 66, 64
1, 80988, Note_on_c, 0, 42, 75
1, 80989, Note_on_c, 0, 30, 76
1, 81024, Control_c, 0, 64, 114
1, 81047, Control_c, 0, 64, 99
1, 81062, Control_c, 0, 64, 84
1, 81076, Control_c, 0, 64, 69
1, 81083, Note_on_c, 0, 63, 84
1, 81088, Note_on_c, 0, 71, 78
1, 81091, Control_c, 0, 64, 0
1, 81194, Control_c, 0, 64, 64
1, 81206, Note_off_c, 0, 30, 64
1, 81209, Control_c, 0, 64, 74
1, 81213, Note_off_c, 0, 63, 64
1, 81224, Control_c, 0, 64, 84
1, 81237, Note_off_c, 0, 42, 63
1, 81239, Control_c, 0, 64, 95
1, 81254, Control_c, 0, 64, 100
1, 81265, Note_on_c, 0, 78, 90
1, 81269, Control_c, 0, 64, 103
1, 81283, Control_c, 0, 64, 106
1, 81298, Control_c, 0, 64, 109
1, 81313, Control_c, 0, 64, 112
1, 81327, Control_c, 0, 64, 113
1, 81339, Note_off_c, 0, 71, 52
1, 81342, Control_c, 0, 64, 115
1, 81357, Control_c, 0, 64, 116
1, 81361, Note_off_c, 0, 78, 63
1, 81372, Control_c, 0, 64, 117
1, 81387, Control_c, 0, 64, 118
1, 81402, Control_c, 0, 64, 119
1, 81417, Control_c, 0, 64, 120
1, 81432, Control_c, 0, 64, 122
1, 81447, Control_c, 0, 64, 124
1, 81450, Note_on_c, 0, 54, 73
1, 81462, Control_c, 0, 64, 126
1, 81476, Control_c, 0, 64, 127
1, 81491, Control_c, 0, 64, 127
1, 81635, Note_on_c, 0, 61, 81
1, 81668, Note_off_c, 0, 54, 57
1, 81774, Note_on_c, 0, 78, 72
1, 81774, Note_on_c, 0, 75, 68
1, 81813, Note_off_c, 0, 61, 61
1, 81814, Note_on_c, 0, 59, 65
1, 81852, Note_off_c, 0, 75, 64
1, 81860, Note_off_c, 0, 78, 63
1, 81862, Note_on_c, 0, 80, 76
1, 81884, Note_on_c, 0, 77, 43
1, 81898, Note_on_c, 0, 76, 45
1, 81910, Note_off_c, 0, 59, 60
1, 81922, Note_on_c, 0, 61, 61
1, 81923, Note_off_c, 0, 76, 51
1, 81932, Note_on_c, 0, 78, 73
1, 81933, Note_off_c, 0, 80, 64
1, 81935, Note_off_c, 0, 77, 52
1, 81940, Note_on_c, 0, 75, 64
1, 81999, Note_off_c, 0, 61, 63
1, 81999, Note_off_c, 0, 75, 40
1, 82001, Note_off_c, 0, 78, 61
1, 82007, Note_on_c, 0, 80, 77
1, 82010, Note_on_c, 0, 77, 71
1, 82025, Note_on_c, 0, 63, 70
1, 82069, Note_on_c, 0, 78, 76
1, 82071, Note_off_c, 0, 77, 57
1, 82074, Note_off_c, 0, 80, 62
1, 82083, Note_on_c, 0, 75, 65
1, 82108, Note_off_c, 0, 63, 62
1, 82120, Note_off_c, 0, 75, 57
1, 82121, Control_c, 0, 64, 126
1, 82127, Note_off_c, 0, 78, 58
1, 82136, Control_c, 0, 64, 126
1, 82147, Note_on_c, 0, 77, 75
1, 82150, Note_on_c, 0, 80, 68
1, 82150, Control_c, 0, 64, 125
1, 82165, Control_c, 0, 64, 124
1, 82180, Control_c, 0, 64, 124
1, 82192, Note_on_c, 0, 54, 75
1, 82195, Control_c, 0, 64, 123
1, 82205, Note_off_c, 0, 77, 60
1, 82208, Note_off_c, 0, 80, 63
1, 82210, Note_on_c, 0, 78, 79
1, 82210, Control_c, 0, 64, 122
1, 82222, Note_on_c, 0, 75, 59
1, 82225, Control_c, 0, 64, 122
1, 82240, Control_c, 0, 64, 121
1, 82254, Note_off_c, 0, 75, 53
1, 82254, Control_c, 0, 64, 120
1, 82269, Note_off_c, 0, 78, 62
1, 82269, Control_c, 0, 64, 120
1, 82272, Note_on_c, 0, 80, 72
1, 82274, Note_on_c, 0, 77, 76
1, 82284, Control_c, 0, 64, 119
1, 82299, Control_c, 0, 64, 119
1, 82314, Control_c, 0, 64, 118
1, 82326, Note_off_c, 0, 54, 57
1, 82329, Control_c, 0, 64, 118
1, 82342, Note_off_c, 0, 77, 60
1, 82343, Control_c, 0, 64, 117
1, 82344, Note_on_c, 0, 78, 76
1, 82347, Note_on_c, 0, 75, 74
1, 82347, Note_off_c, 0, 80, 64
1, 82358, Control_c, 0, 64, 116
1, 82374, Control_c, 0, 64, 113
1, 82389, Control_c, 0, 64, 108
1, 82394, Note_on_c, 0, 42, 73
1, 82403, Control_c, 0, 64, 99
1, 82406, Note_off_c, 0, 78, 62
1, 82406, Note_on_c, 0, 77, 73
1, 82412, Note_on_c, 0, 80, 71
1, 82412, Note_off_c, 0, 75, 63
1, 82418, Control_c, 0, 64, 86
1, 82433, Control_c, 0, 64, 71
1, 82448, Control_c, 0, 64, 0
1, 82484, Note_on_c, 0, 75, 67
1, 82484, Note_on_c, 0, 78, 76
1, 82486, Note_off_c, 0, 80, 64
1, 82491, Note_off_c, 0, 77, 57
1, 82522, Control_c, 0, 64, 63
1, 82541, Note_off_c, 0, 78, 57
1, 82543, Note_off_c, 0, 75, 61
1, 82544, Control_c, 0, 64, 71
1, 82545, Note_on_c, 0, 77, 67
1, 82558, Note_on_c, 0, 80, 71
1, 82558, Control_c, 0, 64, 80
1, 82568, Note_off_c, 0, 42, 62
1, 82573, Control_c, 0, 64, 93
1, 82588, Control_c, 0, 64, 101
1, 82603, Control_c, 0, 64, 107
1, 82613, Note_on_c, 0, 54, 69
1, 82618, Control_c, 0, 64, 111
1, 82621, Note_on_c, 0, 78, 81
1, 82624, Note_off_c, 0, 80, 64
1, 82625, Note_on_c, 0, 75, 74
1, 82625, Note_off_c, 0, 77, 60
1, 82633, Control_c, 0, 64, 115
1, 82647, Control_c, 0, 64, 118
1, 82662, Control_c, 0, 64, 121
1, 82677, Control_c, 0, 64, 122
1, 82680, Note_off_c, 0, 75, 61
1, 82681, Note_on_c, 0, 77, 73
1, 82685, Note_off_c, 0, 78, 62
1, 82691, Note_on_c, 0, 80, 70
1, 82755, Note_on_c, 0, 78, 72
1, 82758, Note_off_c, 0, 80, 64
1, 82760, Note_on_c, 0, 75, 65
1, 82768, Note_off_c, 0, 54, 60
1, 82776, Note_off_c, 0, 77, 49
1, 82801, Note_on_c, 0, 61, 65
1, 82805, Note_on_c, 0, 77, 60
1, 82816, Note_on_c, 0, 80, 75
1, 82817, Note_off_c, 0, 75, 63
1, 82817, Note_off_c, 0, 78, 61
1, 82883, Note_off_c, 0, 80, 65
1, 82884, Note_on_c, 0, 75, 68
1, 82886, Note_on_c, 0, 78, 68
1, 82913, Note_off_c, 0, 61, 58
1, 82945, Note_off_c, 0, 75, 62
1, 82946, Note_off_c, 0, 78, 59
1, 82947, Note_on_c, 0, 80, 77
1, 82958, Control_c, 0, 64, 123
1, 82971, Note_on_c, 0, 59, 70
1, 82973, Control_c, 0, 64, 124
1, 82988, Control_c, 0, 64, 126
1, 83003, Control_c, 0, 64, 127
1, 83004, Note_on_c, 0, 78, 67
1, 83011, Note_on_c, 0, 75, 64
1, 83014, Note_off_c, 0, 80, 64
1, 83051, Note_on_c, 0, 61, 63
1, 83068, Note_off_c, 0, 78, 63
1, 83069, Note_on_c, 0, 80, 72
1, 83069, Note_off_c, 0, 75, 63
1, 83123, Note_on_c, 0, 78, 61
1, 83132, Note_on_c, 0, 75, 46
1, 83132, Note_off_c, 0, 77, 57
1, 83141, Note_off_c, 0, 80, 63
1, 83169, Note_on_c, 0, 63, 73
1, 83188, Note_off_c, 0, 78, 62
1, 83196, Note_off_c, 0, 75, 66
1, 83196, Control_c, 0, 67, 9
1, 83206, Note_off_c, 0, 61, 57
1, 83211, Control_c, 0, 67, 10
1, 83226, Control_c, 0, 67, 11
1, 83241, Control_c, 0, 67, 13
1, 83256, Control_c, 0, 67, 15
1, 83270, Control_c, 0, 67, 16
1, 83301, Note_on_c, 0, 77, 85
1, 83307, Note_on_c, 0, 74, 71
1, 83308, Control_c, 0, 67, 15
1, 83329, Note_on_c, 0, 66, 68
1, 83337, Control_c, 0, 67, 15
1, 83345, Note_off_c, 0, 63, 59
1, 83352, Control_c, 0, 67, 14
1, 83357, Note_off_c, 0, 66, 68
1, 83367, Control_c, 0, 67, 12
1, 83376, Note_off_c, 0, 59, 38
1, 83382, Control_c, 0, 67, 11
1, 83396, Control_c, 0, 67, 9
1, 83411, Control_c, 0, 67, 8
1, 83415, Note_on_c, 0, 78, 89
1, 83423, Note_on_c, 0, 75, 73
1, 83426, Control_c, 0, 67, 0
1, 83432, Note_off_c, 0, 77, 60
1, 83436, Note_off_c, 0, 74, 53
1, 83450, Note_off_c, 0, 75, 69
1, 83468, Note_off_c, 0, 78, 65
1, 83589, Note_on_c, 0, 42, 66
1, 83604, Control_c, 0, 64, 124
1, 83619, Control_c, 0, 64, 120
1, 83634, Control_c, 0, 64, 116
1, 83649, Control_c, 0, 64, 112
1, 83663, Control_c, 0, 64, 109
1, 83667, Note_on_c, 0, 83, 86
1, 83678, Control_c, 0, 64, 105
1, 83679, Note_on_c, 0, 80, 67
1, 83693, Control_c, 0, 64, 100
1, 83708, Control_c, 0, 64, 93
1, 83722, Control_c, 0, 64, 84
1, 83737, Control_c, 0, 64, 74
1, 83752, Control_c, 0, 64, 62
1, 83767, Control_c, 0, 64, 0
1, 83841, Control_c, 0, 64, 46
1, 83856, Control_c, 0, 64, 67
1, 83870, Control_c, 0, 64, 75
1, 83885, Control_c, 0, 64, 86
1, 83887, Note_off_c, 0, 83, 58
1, 83900, Control_c, 0, 64, 95
1, 83915, Control_c, 0, 64, 102
1, 83918, Note_off_c, 0, 42, 62
1, 83930, Control_c, 0, 64, 104
1, 83939, Note_on_c, 0, 54, 62
1, 83945, Control_c, 0, 64, 105
1, 83960, Control_c, 0, 64, 106
1, 84025, Note_on_c, 0, 82, 81
1, 84030, Note_on_c, 0, 78, 72
1, 84044, Note_off_c, 0, 80, 62
1, 84107, Note_off_c, 0, 78, 53
1, 84144, Note_off_c, 0, 54, 56
1, 84149, Note_on_c, 0, 80, 86
1, 84159, Note_on_c, 0, 77, 71
1, 84168, Note_on_c, 0, 61, 57
1, 84186, Note_off_c, 0, 77, 64
1, 84216, Note_off_c, 0, 82, 23
1, 84253, Note_on_c, 0, 78, 81
1, 84255, Note_on_c, 0, 82, 71
1, 84272, Note_off_c, 0, 80, 62
1, 84300, Note_off_c, 0, 82, 64
1, 84301, Note_off_c, 0, 78, 60
1, 84379, Note_off_c, 0, 61, 51
1, 84404, Note_on_c, 0, 82, 71
1, 84410, Note_on_c, 0, 59, 54
1, 84412, Note_on_c, 0, 78, 72
1, 84486, Control_c, 0, 64, 107
1, 84503, Note_off_c, 0, 59, 56
1, 84505, Note_off_c, 0, 78, 58
1, 84506, Note_on_c, 0, 61, 59
1, 84513, Note_off_c, 0, 82, 43
1, 84516, Control_c, 0, 64, 108
1, 84523, Note_on_c, 0, 70, 66
1, 84523, Note_on_c, 0, 73, 68
1, 84531, Control_c, 0, 64, 109
1, 84545, Control_c, 0, 64, 111
1, 84560, Control_c, 0, 64, 113
1, 84568, Note_off_c, 0, 70, 55
1, 84575, Control_c, 0, 64, 117
1, 84590, Control_c, 0, 64, 121
1, 84603, Note_off_c, 0, 61, 63
1, 84605, Control_c, 0, 64, 124
1, 84619, Control_c, 0, 64, 127
1, 84622, Note_on_c, 0, 80, 78
1, 84627, Note_off_c, 0, 73, 62
1, 84632, Note_on_c, 0, 77, 68
1, 84643, Note_on_c, 0, 63, 64
1, 84705, Note_off_c, 0, 63, 62
1, 84718, Note_off_c, 0, 77, 62
1, 84719, Note_on_c, 0, 71, 72
1, 84732, Note_on_c, 0, 68, 66
1, 84736, Note_off_c, 0, 80, 62
1, 84809, Note_off_c, 0, 68, 57
1, 84827, Note_off_c, 0, 71, 52
1, 84849, Note_on_c, 0, 78, 82
1, 84857, Note_on_c, 0, 54, 58
1, 84865, Note_on_c, 0, 75, 63
1, 84922, Note_off_c, 0, 54, 55
1, 84950, Note_off_c, 0, 75, 58
1, 84957, Note_on_c, 0, 72, 70
1, 84958, Note_on_c, 0, 69, 72
1, 84961, Note_off_c, 0, 78, 59
1, 84983, Control_c, 0, 64, 127
1, 84997, Note_off_c, 0, 72, 61
1, 84998, Control_c, 0, 64, 124
1, 85000, Note_off_c, 0, 69, 59
1, 85013, Control_c, 0, 64, 122
1, 85028, Control_c, 0, 64, 121
1, 85042, Control_c, 0, 64, 119
1, 85057, Control_c, 0, 64, 118
1, 85072, Control_c, 0, 64, 117
1, 85087, Control_c, 0, 64, 115
1, 85101, Control_c, 0, 64, 114
1, 85116, Control_c, 0, 64, 112
1, 85131, Control_c, 0, 64, 109
1, 85146, Control_c, 0, 64, 107
1, 85152, Note_on_c, 0, 75, 74
1, 85161, Control_c, 0, 64, 103
1, 85162, Note_on_c, 0, 71, 59
1, 85176, Control_c, 0, 64, 98
1, 85182, Note_on_c, 0, 42, 43
1, 85191, Control_c, 0, 64, 92
1, 85206, Control_c, 0, 64, 86
1, 85220, Control_c, 0, 64, 77
1, 85235, Control_c, 0, 64, 67
1, 85250, Control_c, 0, 64, 0
1, 85383, Control_c, 0, 64, 64
1, 85398, Control_c, 0, 64, 70
1, 85406, Note_on_c, 0, 73, 73
1, 85413, Control_c, 0, 64, 76
1, 85414, Note_on_c, 0, 70, 67
1, 85414, Note_off_c, 0, 71, 56
1, 85428, Control_c, 0, 64, 80
1, 85434, Note_on_c, 0, 49, 56
1, 85441, Note_off_c, 0, 42, 60
1, 85442, Control_c, 0, 64, 83
1, 85444, Note_off_c, 0, 75, 60
1, 85457, Control_c, 0, 64, 85
1, 85472, Control_c, 0, 64, 86
1, 85473, Note_off_c, 0, 70, 61
1, 85486, Control_c, 0, 64, 87
1, 85501, Control_c, 0, 64, 87
1, 85608, Note_off_c, 0, 49, 58
1, 85612, Note_on_c, 0, 61, 70
1, 85616, Note_on_c, 0, 68, 70
1, 85629, Note_on_c, 0, 56, 53
1, 85659, Control_c, 0, 64, 87
1, 85676, Note_off_c, 0, 68, 63
1, 85688, Control_c, 0, 64, 86
1, 85717, Control_c, 0, 64, 86
1, 85747, Control_c, 0, 64, 85
1, 85762, Control_c, 0, 64, 85
1, 85777, Control_c, 0, 64, 84
1, 85791, Control_c, 0, 64, 83
1, 85806, Control_c, 0, 64, 81
1, 85821, Note_off_c, 0, 73, 58
1, 85821, Control_c, 0, 64, 79
1, 85823, Note_on_c, 0, 70, 69
1, 85823, Note_off_c, 0, 61, 52
1, 85826, Note_off_c, 0, 56, 34
1, 85832, Note_on_c, 0, 66, 63
1, 85836, Control_c, 0, 64, 76
1, 85845, Note_on_c, 0, 54, 48
1, 85851, Control_c, 0, 64, 71
1, 85865, Control_c, 0, 64, 63
1, 85880, Control_c, 0, 64, 0
1, 85901, Note_off_c, 0, 54, 58
1, 85936, Note_on_c, 0, 56, 53
1, 86006, Note_off_c, 0, 56, 53
1, 86028, Control_c, 0, 64, 59
1, 86043, Control_c, 0, 64, 68
1, 86058, Note_on_c, 0, 58, 50
1, 86058, Control_c, 0, 64, 73
1, 86073, Control_c, 0, 64, 76
1, 86088, Control_c, 0, 64, 80
1, 86092, Note_off_c, 0, 58, 63
1, 86103, Control_c, 0, 64, 83
1, 86105, Note_off_c, 0, 70, 58
1, 86106, Note_off_c, 0, 66, 62
1, 86117, Control_c, 0, 64, 86
1, 86132, Control_c, 0, 64, 88
1, 86147, Control_c, 0, 64, 89
1, 86162, Control_c, 0, 64, 90
1, 86177, Control_c, 0, 64, 90
1, 86191, Control_c, 0, 64, 91
1, 86304, Note_on_c, 0, 42, 55
1, 86340, Note_off_c, 0, 42, 48
1, 86408, Control_c, 0, 64, 90
1, 86437, Control_c, 0, 64, 90
1, 86444, Poly_aftertouch_c, 0, 42, 127
1, 86467, Control_c, 0, 64, 89
1, 86482, Control_c, 0, 64, 89
1, 86496, Control_c, 0, 64, 88
1, 86511, Control_c, 0, 64, 87
1, 86526, Control_c, 0, 64, 85
1, 86541, Control_c, 0, 64, 83
1, 86556, Control_c, 0, 64, 80
1, 86571, Control_c, 0, 64, 76
1, 86586, Control_c, 0, 64, 69
1, 86589, Note_on_c, 0, 30, 44
1, 86601, Control_c, 0, 64, 43
1, 86615, Control_c, 0, 64, 0
1, 86642, Note_on_c, 0, 64, 53
1, 86649, Note_on_c, 0, 70, 55
1, 86678, Note_off_c, 0, 64, 63
1, 86704, Control_c, 0, 64, 63
1, 86719, Control_c, 0, 64, 70
1, 86733, Control_c, 0, 64, 76
1, 86748, Control_c, 0, 64, 82
1, 86760, Note_off_c, 0, 30, 56
1, 86763, Control_c, 0, 64, 86
1, 86778, Control_c, 0, 64, 90
1, 86793, Control_c, 0, 64, 95
1, 86794, Poly_aftertouch_c, 0, 42, 0
1, 86803, Note_on_c, 0, 80, 73
1, 86808, Control_c, 0, 64, 99
1, 86809, Note_off_c, 0, 70, 50
1, 86822, Control_c, 0, 64, 103
1, 86837, Control_c, 0, 64, 106
1, 86852, Control_c, 0, 64, 108
1, 86861, Note_off_c, 0, 80, 63
1, 86866, Control_c, 0, 64, 109
1, 86881, Control_c, 0, 64, 110
1, 86896, Control_c, 0, 64, 111
1, 86911, Control_c, 0, 64, 111
1, 86926, Control_c, 0, 64, 112
1, 86940, Control_c, 0, 64, 113
1, 86955, Control_c, 0, 64, 113
1, 87030, Control_c, 0, 64, 114
1, 87048, Note_on_c, 0, 49, 48
1, 87200, Control_c, 0, 64, 114
1, 87215, Control_c, 0, 64, 115
1, 87230, Control_c, 0, 64, 117
1, 87244, Control_c, 0, 64, 119
1, 87259, Control_c, 0, 64, 121
1, 87260, Note_on_c, 0, 56, 55
1, 87274, Control_c, 0, 64, 125
1, 87289, Control_c, 0, 64, 127
1, 87445, Note_on_c, 0, 80, 73
1, 87449, Note_off_c, 0, 56, 61
1, 87458, Note_on_c, 0, 70, 56
1, 87465, Note_on_c, 0, 76, 50
1, 87467, Note_on_c, 0, 54, 50
1, 87491, Note_off_c, 0, 49, 33
1, 87549, Note_off_c, 0, 54, 59
1, 87566, Note_on_c, 0, 56, 54
1, 87644, Note_off_c, 0, 56, 63
1, 87671, Note_on_c, 0, 58, 70
1, 87763, Note_off_c, 0, 58, 60
1, 87872, Note_on_c, 0, 49, 68
1, 87918, Note_off_c, 0, 70, 51
1, 87993, Control_c, 0, 64, 126
1, 88008, Control_c, 0, 64, 119
1, 88023, Control_c, 0, 64, 110
1, 88038, Control_c, 0, 64, 98
1, 88053, Control_c, 0, 64, 85
1, 88062, Note_on_c, 0, 42, 77
1, 88067, Control_c, 0, 64, 70
1, 88075, Note_off_c, 0, 49, 59
1, 88076, Note_off_c, 0, 76, 58
1, 88082, Control_c, 0, 64, 0
1, 88142, Control_c, 0, 64, 48
1, 88157, Control_c, 0, 64, 64
1, 88172, Control_c, 0, 64, 69
1, 88186, Control_c, 0, 64, 75
1, 88201, Control_c, 0, 64, 81
1, 88216, Control_c, 0, 64, 87
1, 88231, Control_c, 0, 64, 94
1, 88246, Control_c, 0, 64, 103
1, 88251, Note_on_c, 0, 78, 76
1, 88255, Note_on_c, 0, 70, 71
1, 88257, Note_on_c, 0, 75, 67
1, 88261, Control_c, 0, 64, 115
1, 88264, Note_on_c, 0, 49, 71
1, 88266, Note_off_c, 0, 42, 62
1, 88275, Note_off_c, 0, 80, 62
1, 88276, Control_c, 0, 64, 127
1, 88288, Note_off_c, 0, 70, 58
1, 88288, Note_off_c, 0, 75, 64
1, 88299, Note_off_c, 0, 78, 60
1, 88464, Note_on_c, 0, 76, 79
1, 88473, Note_on_c, 0, 66, 71
1, 88475, Note_on_c, 0, 68, 75
1, 88476, Note_on_c, 0, 61, 67
1, 88479, Note_on_c, 0, 54, 66
1, 88491, Note_off_c, 0, 66, 65
1, 88496, Note_off_c, 0, 61, 64
1, 88503, Note_off_c, 0, 54, 65
1, 88505, Note_off_c, 0, 49, 62
1, 88538, Note_off_c, 0, 76, 66
1, 88624, Note_off_c, 0, 68, 53
1, 88686, Note_on_c, 0, 75, 84
1, 88688, Note_on_c, 0, 66, 83
1, 88693, Note_on_c, 0, 35, 71
1, 88698, Control_c, 0, 64, 107
1, 88712, Control_c, 0, 64, 87
1, 88717, Note_off_c, 0, 66, 61
1, 88727, Control_c, 0, 64, 70
1, 88742, Control_c, 0, 64, 0
1, 88799, Note_on_c, 0, 64, 78
1, 88800, Note_on_c, 0, 73, 72
1, 88805, Note_on_c, 0, 66, 76
1, 88812, Note_off_c, 0, 75, 53
1, 88817, Control_c, 0, 64, 64
1, 88823, Note_on_c, 0, 71, 49
1, 88829, Note_off_c, 0, 64, 61
1, 88832, Control_c, 0, 64, 71
1, 88840, Note_off_c, 0, 66, 61
1, 88847, Control_c, 0, 64, 79
1, 88849, Note_off_c, 0, 73, 60
1, 88850, Note_off_c, 0, 71, 51
1, 88862, Control_c, 0, 64, 86
1, 88877, Control_c, 0, 64, 93
1, 88887, Note_off_c, 0, 35, 54
1, 88891, Control_c, 0, 64, 98
1, 88895, Note_on_c, 0, 66, 79
1, 88899, Note_on_c, 0, 63, 76
1, 88899, Note_on_c, 0, 71, 68
1, 88906, Control_c, 0, 64, 100
1, 88916, Note_off_c, 0, 63, 65
1, 88920, Note_on_c, 0, 42, 76
1, 88921, Control_c, 0, 64, 102
1, 88935, Control_c, 0, 64, 103
1, 88950, Control_c, 0, 64, 104
1, 88953, Note_off_c, 0, 66, 66
1, 88965, Control_c, 0, 64, 105
1, 88972, Note_off_c, 0, 71, 63
1, 89009, Control_c, 0, 64, 105
1, 89039, Control_c, 0, 64, 106
1, 89054, Control_c, 0, 64, 106
1, 89070, Note_on_c, 0, 54, 83
1, 89093, Note_off_c, 0, 54, 66
1, 89119, Note_off_c, 0, 42, 64
1, 89162, Note_on_c, 0, 66, 85
1, 89165, Note_on_c, 0, 72, 89
1, 89208, Note_off_c, 0, 66, 64
1, 89217, Control_c, 0, 64, 105
1, 89232, Control_c, 0, 64, 104
1, 89247, Control_c, 0, 64, 102
1, 89261, Control_c, 0, 64, 100
1, 89283, Control_c, 0, 64, 97
1, 89298, Control_c, 0, 64, 91
1, 89303, Note_on_c, 0, 32, 85
1, 89307, Note_on_c, 0, 44, 83
1, 89313, Control_c, 0, 64, 81
1, 89328, Control_c, 0, 64, 68
1, 89343, Control_c, 0, 64, 0
1, 89411, Note_on_c, 0, 82, 90
1, 89447, Control_c, 0, 64, 64
1, 89455, Note_off_c, 0, 32, 64
1, 89461, Control_c, 0, 64, 74
1, 89476, Control_c, 0, 64, 85
1, 89483, Note_off_c, 0, 44, 63
1, 89491, Control_c, 0, 64, 92
1, 89506, Control_c, 0, 64, 98
1, 89513, Note_off_c, 0, 72, 54
1, 89521, Control_c, 0, 64, 106
1, 89535, Control_c, 0, 64, 115
1, 89540, Note_off_c, 0, 82, 63
1, 89550, Control_c, 0, 64, 127
1, 89678, Note_on_c, 0, 51, 77
1, 89874, Note_on_c, 0, 58, 80
1, 89892, Note_off_c, 0, 51, 58
1, 90049, Note_on_c, 0, 82, 89
1, 90063, Note_on_c, 0, 78, 74
1, 90064, Note_on_c, 0, 72, 70
1, 90076, Note_on_c, 0, 56, 72
1, 90081, Note_off_c, 0, 58, 64
1, 90169, Note_on_c, 0, 58, 70
1, 90201, Note_off_c, 0, 56, 49
1, 90238, Note_off_c, 0, 58, 63
1, 90260, Note_on_c, 0, 60, 80
1, 90366, Note_off_c, 0, 60, 56
1, 90434, Note_off_c, 0, 78, 60
1, 90444, Note_on_c, 0, 51, 84
1, 90514, Note_off_c, 0, 72, 52
1, 90553, Control_c, 0, 64, 122
1, 90568, Control_c, 0, 64, 102
1, 90582, Control_c, 0, 64, 84
1, 90597, Control_c, 0, 64, 65
1, 90612, Control_c, 0, 64, 0
1, 90634, Note_on_c, 0, 44, 84
1, 90642, Control_c, 0, 64, 32
1, 90650, Note_off_c, 0, 51, 63
1, 90656, Control_c, 0, 64, 66
1, 90671, Control_c, 0, 64, 74
1, 90686, Control_c, 0, 64, 86
1, 90701, Control_c, 0, 64, 102
1, 90715, Control_c, 0, 64, 127
1, 90820, Note_on_c, 0, 80, 87
1, 90825, Note_on_c, 0, 72, 77
1, 90838, Note_on_c, 0, 51, 72
1, 90840, Note_off_c, 0, 44, 62
1, 90842, Note_off_c, 0, 82, 63
1, 90848, Note_off_c, 0, 72, 65
1, 90872, Note_off_c, 0, 80, 63
1, 91027, Note_on_c, 0, 78, 91
1, 91032, Note_on_c, 0, 63, 72
1, 91032, Note_on_c, 0, 72, 59
1, 91033, Note_on_c, 0, 70, 85
1, 91040, Note_on_c, 0, 56, 63
1, 91054, Note_off_c, 0, 63, 68
1, 91066, Note_off_c, 0, 56, 65
1, 91077, Note_off_c, 0, 51, 63
1, 91085, Note_off_c, 0, 70, 60
1, 91176, Note_off_c, 0, 78, 62
1, 91221, Note_off_c, 0, 72, 57
1, 91254, Note_on_c, 0, 77, 85
1, 91257, Note_on_c, 0, 37, 79
1, 91258, Note_on_c, 0, 68, 85
1, 91272, Control_c, 0, 64, 104
1, 91286, Control_c, 0, 64, 74
1, 91297, Note_off_c, 0, 68, 62
1, 91301, Control_c, 0, 64, 0
1, 91360, Control_c, 0, 64, 33
1, 91362, Note_on_c, 0, 75, 83
1, 91370, Note_on_c, 0, 66, 86
1, 91375, Control_c, 0, 64, 66
1, 91390, Control_c, 0, 64, 79
1, 91396, Note_off_c, 0, 77, 59
1, 91404, Control_c, 0, 64, 95
1, 91419, Control_c, 0, 64, 115
1, 91421, Note_on_c, 0, 69, 32
1, 91427, Note_off_c, 0, 66, 61
1, 91434, Control_c, 0, 64, 127
1, 91453, Note_off_c, 0, 69, 46
1, 91492, Note_on_c, 0, 65, 87
1, 91495, Note_on_c, 0, 73, 81
1, 91498, Note_on_c, 0, 68, 82
1, 91500, Note_on_c, 0, 44, 80
1, 91515, Note_off_c, 0, 37, 64
1, 91546, Note_off_c, 0, 75, 61
1, 91572, Note_off_c, 0, 68, 62
1, 91579, Note_off_c, 0, 73, 62
1, 91653, Note_off_c, 0, 65, 61
1, 91701, Note_on_c, 0, 77, 94
1, 91707, Note_on_c, 0, 56, 78
1, 91709, Note_on_c, 0, 68, 78
1, 91722, Note_on_c, 0, 73, 58
1, 91728, Note_off_c, 0, 68, 72
1, 91741, Note_off_c, 0, 73, 60
1, 91745, Note_off_c, 0, 56, 64
1, 91753, Note_off_c, 0, 77, 63
1, 91868, Note_on_c, 0, 37, 81
1, 91879, Note_off_c, 0, 44, 55
1, 91916, Control_c, 0, 64, 127
1, 91930, Control_c, 0, 64, 115
1, 91939, Note_on_c, 0, 68, 85
1, 91940, Note_on_c, 0, 77, 88
1, 91945, Control_c, 0, 64, 103
1, 91960, Control_c, 0, 64, 86
1, 91975, Control_c, 0, 64, 70
1, 91990, Control_c, 0, 64, 0
1, 92020, Note_off_c, 0, 68, 62
1, 92050, Control_c, 0, 64, 67
1, 92065, Control_c, 0, 64, 75
1, 92069, Note_on_c, 0, 83, 92
1, 92079, Control_c, 0, 64, 85
1, 92094, Control_c, 0, 64, 95
1, 92109, Control_c, 0, 64, 104
1, 92124, Control_c, 0, 64, 110
1, 92139, Control_c, 0, 64, 114
1, 92153, Control_c, 0, 64, 118
1, 92168, Control_c, 0, 64, 119
1, 92183, Control_c, 0, 64, 121
1, 92198, Control_c, 0, 64, 121
1, 92221, Note_off_c, 0, 83, 61
1, 92230, Note_on_c, 0, 44, 80
1, 92232, Note_off_c, 0, 37, 64
1, 92234, Note_on_c, 0, 79, 30
1, 92242, Control_c, 0, 64, 122
1, 92255, Note_off_c, 0, 77, 57
1, 92267, Note_off_c, 0, 79, 44
1, 92279, Control_c, 0, 64, 123
1, 92379, Note_on_c, 0, 56, 85
1, 92428, Note_off_c, 0, 56, 64
1, 92449, Note_on_c, 0, 68, 90
1, 92450, Note_on_c, 0, 76, 89
1, 92494, Note_off_c, 0, 68, 60
1, 92516, Control_c, 0, 64, 120
1, 92531, Control_c, 0, 64, 105
1, 92546, Control_c, 0, 64, 87
1, 92560, Note_on_c, 0, 83, 95
1, 92560, Control_c, 0, 64, 68
1, 92563, Note_on_c, 0, 38, 84
1, 92575, Control_c, 0, 64, 0
1, 92578, Note_off_c, 0, 44, 61
1, 92605, Control_c, 0, 64, 63
1, 92620, Control_c, 0, 64, 73
1, 92634, Control_c, 0, 64, 82
1, 92649, Control_c, 0, 64, 94
1, 92664, Control_c, 0, 64, 107
1, 92679, Control_c, 0, 64, 124
1, 92694, Control_c, 0, 64, 127
1, 92734, Note_off_c, 0, 83, 60
1, 92735, Note_off_c, 0, 38, 56
1, 92753, Note_on_c, 0, 44, 90
1, 92909, Note_on_c, 0, 56, 87
1, 92954, Note_off_c, 0, 56, 65
1, 92960, Note_on_c, 0, 68, 80
1, 92971, Note_on_c, 0, 75, 81
1, 92977, Note_off_c, 0, 76, 63
1, 92989, Note_off_c, 0, 68, 62
1, 92991, Control_c, 0, 64, 113
1, 93006, Control_c, 0, 64, 88
1, 93028, Control_c, 0, 64, 67
1, 93044, Control_c, 0, 64, 0
1, 93048, Note_off_c, 0, 44, 63
1, 93059, Note_on_c, 0, 83, 90
1, 93070, Note_on_c, 0, 39, 85
1, 93088, Control_c, 0, 64, 46
1, 93100, Note_off_c, 0, 75, 61
1, 93102, Control_c, 0, 64, 67
1, 93117, Control_c, 0, 64, 76
1, 93123, Note_off_c, 0, 83, 62
1, 93132, Control_c, 0, 64, 84
1, 93147, Control_c, 0, 64, 89
1, 93162, Control_c, 0, 64, 92
1, 93176, Control_c, 0, 64, 93
1, 93191, Control_c, 0, 64, 94
1, 93206, Control_c, 0, 64, 96
1, 93221, Control_c, 0, 64, 99
1, 93236, Control_c, 0, 64, 102
1, 93241, Note_on_c, 0, 76, 83
1, 93241, Note_on_c, 0, 85, 82
1, 93251, Control_c, 0, 64, 106
1, 93266, Control_c, 0, 64, 108
1, 93273, Note_off_c, 0, 76, 62
1, 93276, Note_off_c, 0, 85, 62
1, 93280, Note_on_c, 0, 51, 74
1, 93281, Control_c, 0, 64, 109
1, 93294, Note_off_c, 0, 39, 62
1, 93296, Control_c, 0, 64, 110
1, 93308, Note_off_c, 0, 51, 66
1, 93310, Control_c, 0, 64, 110
1, 93321, Note_on_c, 0, 75, 93
1, 93321, Note_on_c, 0, 83, 87
1, 93325, Control_c, 0, 64, 111
1, 93340, Control_c, 0, 64, 113
1, 93355, Control_c, 0, 64, 115
1, 93370, Control_c, 0, 64, 117
1, 93384, Control_c, 0, 64, 120
1, 93399, Control_c, 0, 64, 122
1, 93414, Control_c, 0, 64, 124
1, 93437, Note_off_c, 0, 83, 58
1, 93443, Control_c, 0, 64, 124
1, 93473, Note_off_c, 0, 75, 62
1, 93487, Note_on_c, 0, 63, 83
1, 93491, Note_on_c, 0, 56, 82
1, 93516, Note_off_c, 0, 63, 65
1, 93532, Control_c, 0, 64, 125
1, 93539, Note_off_c, 0, 56, 65
1, 93564, Note_on_c, 0, 82, 82
1, 93567, Note_on_c, 0, 73, 89
1, 93571, Note_on_c, 0, 75, 82
1, 93588, Note_off_c, 0, 73, 69
1, 93591, Note_off_c, 0, 75, 69
1, 93612, Note_off_c, 0, 82, 63
1, 93622, Control_c, 0, 64, 124
1, 93637, Control_c, 0, 64, 114
1, 93652, Control_c, 0, 64, 97
1, 93667, Control_c, 0, 64, 77
1, 93671, Note_on_c, 0, 73, 98
1, 93672, Note_on_c, 0, 82, 84
1, 93677, Note_on_c, 0, 75, 86
1, 93681, Control_c, 0, 64, 0
1, 93682, Note_on_c, 0, 39, 79
1, 93740, Control_c, 0, 64, 66
1, 93755, Control_c, 0, 64, 75
1, 93778, Control_c, 0, 64, 88
1, 93793, Control_c, 0, 64, 105
1, 93807, Note_off_c, 0, 73, 57
1, 93807, Control_c, 0, 64, 122
1, 93822, Control_c, 0, 64, 127
1, 93848, Note_on_c, 0, 83, 84
1, 93860, Note_off_c, 0, 75, 61
1, 93864, Note_off_c, 0, 82, 51
1, 93927, Note_on_c, 0, 82, 86
1, 93928, Note_on_c, 0, 73, 93
1, 93929, Note_on_c, 0, 51, 79
1, 93949, Note_off_c, 0, 39, 59
1, 93951, Note_off_c, 0, 83, 59
1, 93963, Note_off_c, 0, 51, 58
1, 93981, Note_off_c, 0, 73, 60
1, 94002, Note_off_c, 0, 82, 62
1, 94180, Note_on_c, 0, 61, 82
1, 94188, Note_on_c, 0, 55, 68
1, 94205, Note_on_c, 0, 73, 82
1, 94207, Note_on_c, 0, 75, 83
1, 94209, Note_on_c, 0, 70, 83
1, 94253, Note_off_c, 0, 61, 62
1, 94326, Note_off_c, 0, 55, 63
1, 94362, Note_off_c, 0, 70, 61
1, 94412, Note_off_c, 0, 73, 63
1, 94480, Note_on_c, 0, 44, 80
1, 94489, Control_c, 0, 64, 124
1, 94504, Control_c, 0, 64, 121
1, 94527, Control_c, 0, 64, 118
1, 94542, Control_c, 0, 64, 116
1, 94542, Note_on_c, 0, 43, 24
1, 94554, Control_c, 0, 64, 111
1, 94569, Control_c, 0, 64, 105
1, 94577, Note_on_c, 0, 80, 89
1, 94578, Note_on_c, 0, 73, 87
1, 94581, Note_off_c, 0, 43, 51
1, 94584, Note_on_c, 0, 68, 79
1, 94584, Control_c, 0, 64, 97
1, 94599, Control_c, 0, 64, 87
1, 94602, Note_off_c, 0, 75, 54
1, 94614, Control_c, 0, 64, 74
1, 94628, Control_c, 0, 64, 57
1, 94643, Control_c, 0, 64, 0
1, 94747, Control_c, 0, 64, 60
1, 94750, Note_off_c, 0, 73, 59
1, 94762, Control_c, 0, 64, 70
1, 94777, Control_c, 0, 64, 77
1, 94792, Control_c, 0, 64, 84
1, 94807, Control_c, 0, 64, 90
1, 94821, Control_c, 0, 64, 95
1, 94836, Control_c, 0, 64, 100
1, 94845, Note_on_c, 0, 75, 74
1, 94851, Control_c, 0, 64, 103
1, 94866, Control_c, 0, 64, 105
1, 94871, Note_on_c, 0, 73, 89
1, 94871, Note_off_c, 0, 44, 62
1, 94873, Note_on_c, 0, 51, 73
1, 94879, Note_off_c, 0, 80, 65
1, 94880, Control_c, 0, 64, 105
1, 94896, Note_off_c, 0, 75, 66
1, 94944, Note_off_c, 0, 73, 66
1, 95051, Note_on_c, 0, 71, 93
1, 95059, Note_on_c, 0, 63, 77
1, 95063, Note_on_c, 0, 56, 71
1, 95072, Note_off_c, 0, 68, 0
1, 95072, Note_on_c, 0, 68, 3
1, 95088, Note_off_c, 0, 51, 58
1, 95096, Note_off_c, 0, 63, 62
1, 95123, Note_off_c, 0, 71, 58
1, 95168, Note_off_c, 0, 68, 53
1, 95222, Control_c, 0, 64, 104
1, 95230, Note_on_c, 0, 75, 79
1, 95236, Note_on_c, 0, 71, 86
1, 95237, Note_on_c, 0, 67, 81
1, 95237, Control_c, 0, 64, 94
1, 95244, Note_on_c, 0, 46, 86
1, 95251, Control_c, 0, 64, 78
1, 95265, Note_off_c, 0, 56, 36
1, 95266, Control_c, 0, 64, 55
1, 95289, Control_c, 0, 64, 0
1, 95318, Control_c, 0, 64, 62
1, 95333, Control_c, 0, 64, 70
1, 95348, Control_c, 0, 64, 79
1, 95363, Control_c, 0, 64, 90
1, 95377, Control_c, 0, 64, 104
1, 95382, Note_off_c, 0, 71, 59
1, 95392, Control_c, 0, 64, 124
1, 95407, Control_c, 0, 64, 127
1, 95428, Note_on_c, 0, 73, 73
1, 95439, Note_on_c, 0, 51, 79
1, 95444, Note_on_c, 0, 71, 91
1, 95451, Note_off_c, 0, 46, 61
1, 95474, Note_off_c, 0, 75, 65
1, 95493, Note_off_c, 0, 51, 63
1, 95495, Note_off_c, 0, 73, 63
1, 95529, Note_off_c, 0, 67, 61
1, 95636, Note_on_c, 0, 70, 96
1, 95648, Note_on_c, 0, 63, 76
1, 95651, Note_on_c, 0, 61, 81
1, 95652, Note_off_c, 0, 71, 57
1, 95674, Note_off_c, 0, 63, 69
1, 95688, Note_off_c, 0, 61, 61
1, 95699, Note_off_c, 0, 70, 64
1, 95863, Note_on_c, 0, 47, 99
1, 95863, Note_on_c, 0, 70, 82
1, 95869, Note_on_c, 0, 75, 90
1, 95871, Note_on_c, 0, 63, 91
1, 95881, Control_c, 0, 64, 90
1, 95895, Control_c, 0, 64, 64
1, 95910, Control_c, 0, 64, 0
1, 95912, Note_on_c, 0, 72, 36
1, 95941, Note_off_c, 0, 72, 53
1, 95971, Control_c, 0, 64, 61
1, 95986, Control_c, 0, 64, 71
1, 96000, Control_c, 0, 64, 80
1, 96011, Note_off_c, 0, 63, 55
1, 96023, Control_c, 0, 64, 88
1, 96038, Control_c, 0, 64, 95
1, 96053, Control_c, 0, 64, 100
1, 96068, Control_c, 0, 64, 103
1, 96083, Control_c, 0, 64, 106
1, 96098, Control_c, 0, 64, 108
1, 96106, Note_on_c, 0, 68, 96
1, 96110, Note_on_c, 0, 51, 85
1, 96113, Control_c, 0, 64, 110
1, 96127, Control_c, 0, 64, 110
1, 96129, Note_off_c, 0, 75, 55
1, 96133, Note_off_c, 0, 47, 63
1, 96135, Note_off_c, 0, 70, 63
1, 96142, Control_c, 0, 64, 111
1, 96157, Control_c, 0, 64, 112
1, 96161, Note_off_c, 0, 68, 65
1, 96172, Control_c, 0, 64, 116
1, 96187, Control_c, 0, 64, 127
1, 96201, Control_c, 0, 64, 127
1, 96323, Note_on_c, 0, 77, 104
1, 96334, Note_on_c, 0, 63, 83
1, 96338, Note_on_c, 0, 56, 76
1, 96381, Note_off_c, 0, 63, 64
1, 96384, Note_off_c, 0, 77, 62
1, 96394, Note_off_c, 0, 56, 62
1, 96479, Note_off_c, 0, 51, 52
1, 96539, Note_on_c, 0, 48, 97
1, 96585, Note_on_c, 0, 78, 91
1, 96589, Note_on_c, 0, 75, 89
1, 96592, Note_on_c, 0, 68, 86
1, 96601, Control_c, 0, 64, 92
1, 96616, Control_c, 0, 64, 67
1, 96631, Control_c, 0, 64, 0
1, 96641, Note_off_c, 0, 68, 58
1, 96675, Control_c, 0, 64, 65
1, 96681, Note_off_c, 0, 75, 58
1, 96690, Control_c, 0, 64, 74
1, 96704, Note_on_c, 0, 80, 84
1, 96705, Control_c, 0, 64, 85
1, 96706, Note_off_c, 0, 78, 63
1, 96719, Control_c, 0, 64, 97
1, 96734, Control_c, 0, 64, 106
1, 96750, Control_c, 0, 64, 111
1, 96772, Control_c, 0, 64, 113
1, 96783, Note_on_c, 0, 78, 83
1, 96787, Control_c, 0, 64, 115
1, 96789, Note_off_c, 0, 80, 65
1, 96802, Control_c, 0, 64, 115
1, 96837, Note_on_c, 0, 80, 81
1, 96849, Note_off_c, 0, 78, 63
1, 96897, Note_on_c, 0, 78, 83
1, 96906, Control_c, 0, 64, 116
1, 96920, Control_c, 0, 64, 118
1, 96925, Note_on_c, 0, 56, 85
1, 96930, Note_on_c, 0, 77, 91
1, 96932, Note_off_c, 0, 80, 65
1, 96935, Control_c, 0, 64, 120
1, 96938, Note_off_c, 0, 48, 66
1, 96950, Control_c, 0, 64, 122
1, 96965, Note_off_c, 0, 78, 65
1, 96965, Control_c, 0, 64, 124
1, 96980, Control_c, 0, 64, 127
1, 97074, Note_on_c, 0, 78, 101
1, 97093, Note_off_c, 0, 77, 62
1, 97256, Note_on_c, 0, 75, 93
1, 97257, Note_on_c, 0, 68, 97
1, 97263, Note_on_c, 0, 63, 86
1, 97263, Note_on_c, 0, 66, 85
1, 97289, Note_off_c, 0, 78, 59
1, 97311, Note_off_c, 0, 66, 65
1, 97343, Note_off_c, 0, 63, 62
1, 97374, Note_off_c, 0, 56, 64
1, 97462, Note_on_c, 0, 80, 99
1, 97493, Note_off_c, 0, 68, 66
1, 97501, Note_off_c, 0, 75, 64
1, 97529, Note_off_c, 0, 80, 69
1, 97819, Note_on_c, 0, 68, 89
1, 97820, Note_on_c, 0, 37, 90
1, 97821, Note_on_c, 0, 66, 92
1, 97824, Note_on_c, 0, 61, 85
1, 97832, Control_c, 0, 64, 113
1, 97846, Control_c, 0, 64, 99
1, 97861, Control_c, 0, 64, 85
1, 97876, Control_c, 0, 64, 70
1, 97890, Control_c, 0, 64, 0
1, 97994, Control_c, 0, 64, 66
1, 98009, Control_c, 0, 64, 79
1, 98024, Control_c, 0, 64, 95
1, 98038, Control_c, 0, 64, 112
1, 98053, Control_c, 0, 64, 127
1, 98080, Note_off_c, 0, 61, 62
1, 98088, Note_off_c, 0, 37, 61
1, 98129, Note_off_c, 0, 66, 64
1, 98141, Note_off_c, 0, 68, 62
1, 98359, Note_on_c, 0, 71, 85
1, 98365, Note_on_c, 0, 49, 71
1, 98366, Note_on_c, 0, 59, 72
1, 98370, Note_on_c, 0, 66, 76
1, 98372, Note_on_c, 0, 56, 65
1, 98372, Note_on_c, 0, 68, 71
1, 98533, Note_off_c, 0, 59, 60
1, 98533, Note_off_c, 0, 66, 61
1, 98535, Note_off_c, 0, 68, 62
1, 98537, Note_off_c, 0, 49, 56
1, 98561, Note_off_c, 0, 56, 61
1, 98682, Note_on_c, 0, 73, 88
1, 98687, Note_on_c, 0, 61, 77
1, 98689, Note_on_c, 0, 66, 86
1, 98692, Note_on_c, 0, 56, 68
1, 98699, Note_on_c, 0, 68, 72
1, 98703, Note_on_c, 0, 49, 55
1, 98762, Note_off_c, 0, 71, 15
1, 98784, Note_off_c, 0, 66, 58
1, 98800, Note_off_c, 0, 56, 61
1, 98801, Note_off_c, 0, 68, 61
1, 98807, Note_off_c, 0, 61, 60
1, 98828, Note_off_c, 0, 73, 56
1, 98934, Note_on_c, 0, 56, 61
1, 98934, Note_on_c, 0, 75, 88
1, 98942, Note_on_c, 0, 66, 77
1, 98944, Note_on_c, 0, 63, 81
1, 98949, Note_on_c, 0, 59, 64
1, 98953, Note_on_c, 0, 68, 59
1, 98962, Note_on_c, 0, 71, 31
1, 98962, Note_off_c, 0, 49, 40
1, 98975, Note_off_c, 0, 66, 63
1, 98976, Note_off_c, 0, 59, 65
1, 98977, Note_off_c, 0, 68, 63
1, 98977, Note_off_c, 0, 56, 63
1, 98993, Note_off_c, 0, 71, 45
1, 99000, Note_off_c, 0, 63, 60
1, 99019, Note_off_c, 0, 75, 64
1, 99171, Note_on_c, 0, 77, 82
1, 99181, Note_on_c, 0, 68, 73
1, 99189, Note_on_c, 0, 65, 72
1, 99193, Note_on_c, 0, 71, 49
1, 99194, Note_on_c, 0, 63, 58
1, 99194, Note_on_c, 0, 75, 65
1, 99202, Note_on_c, 0, 56, 52
1, 99213, Note_on_c, 0, 59, 38
1, 99215, Note_on_c, 0, 60, 42
1, 99231, Note_off_c, 0, 68, 62
1, 99235, Note_off_c, 0, 59, 60
1, 99240, Note_off_c, 0, 60, 53
1, 99240, Note_off_c, 0, 71, 58
1, 99242, Note_off_c, 0, 65, 62
1, 99250, Note_off_c, 0, 77, 59
1, 99264, Note_off_c, 0, 63, 60
1, 99272, Note_off_c, 0, 75, 61
1, 99351, Note_off_c, 0, 56, 24
1, 99424, Note_on_c, 0, 78, 83
1, 99430, Note_on_c, 0, 68, 74
1, 99430, Note_on_c, 0, 59, 47
1, 99431, Note_on_c, 0, 66, 76
1, 99439, Note_on_c, 0, 63, 66
1, 99445, Note_on_c, 0, 71, 54
1, 99454, Note_on_c, 0, 75, 51
1, 99455, Note_off_c, 0, 68, 69
1, 99467, Note_off_c, 0, 71, 63
1, 99469, Note_off_c, 0, 66, 57
1, 99472, Note_off_c, 0, 59, 62
1, 99472, Note_off_c, 0, 63, 58
1, 99476, Note_off_c, 0, 75, 63
1, 99499, Note_off_c, 0, 78, 61
1, 99518, Poly_aftertouch_c, 0, 56, 0
1, 99640, Control_c, 0, 64, 126
1, 99655, Control_c, 0, 64, 113
1, 99669, Control_c, 0, 64, 105
1, 99684, Control_c, 0, 64, 101
1, 99691, Note_on_c, 0, 80, 86
1, 99702, Note_on_c, 0, 68, 67
1, 99711, Note_on_c, 0, 75, 61
1, 99711, Note_on_c, 0, 59, 51
1, 99712, Note_on_c, 0, 66, 57
1, 99713, Note_on_c, 0, 71, 58
1, 99717, Note_on_c, 0, 63, 50
1, 99743, Control_c, 0, 64, 102
1, 99746, Note_off_c, 0, 71, 61
1, 99766, Control_c, 0, 64, 104
1, 99782, Control_c, 0, 64, 105
1, 99792, Note_off_c, 0, 68, 62
1, 99797, Control_c, 0, 64, 106
1, 99799, Note_off_c, 0, 75, 56
1, 99800, Note_off_c, 0, 63, 60
1, 99801, Note_off_c, 0, 66, 61
1, 99802, Note_off_c, 0, 59, 57
1, 99830, Poly_aftertouch_c, 0, 78, 0
1, 99885, Note_off_c, 0, 80, 31
1, 99970, Note_on_c, 0, 82, 77
1, 99983, Note_on_c, 0, 75, 47
1, 99989, Note_on_c, 0, 70, 66
1, 99990, Note_on_c, 0, 71, 48
1, 99997, Note_on_c, 0, 78, 54
1, 99997, Note_on_c, 0, 66, 55
1, 100013, Note_off_c, 0, 71, 56
1, 100015, Note_on_c, 0, 63, 32
1, 100027, Note_off_c, 0, 75, 64
1, 100033, Note_off_c, 0, 78, 62
1, 100035, Note_off_c, 0, 66, 65
1, 100042, Note_off_c, 0, 63, 55
1, 100050, Note_off_c, 0, 82, 63
1, 100060, Note_off_c, 0, 70, 55
1, 100093, Control_c, 0, 64, 105
1, 100123, Control_c, 0, 64, 105
1, 100138, Control_c, 0, 64, 104
1, 100153, Control_c, 0, 64, 102
1, 100167, Control_c, 0, 64, 100
1, 100182, Control_c, 0, 64, 95
1, 100197, Control_c, 0, 64, 86
1, 100212, Control_c, 0, 64, 77
1, 100227, Control_c, 0, 64, 69
1, 100241, Control_c, 0, 64, 65
1, 100264, Note_on_c, 0, 83, 76
1, 100271, Control_c, 0, 64, 67
1, 100274, Note_on_c, 0, 71, 57
1, 100277, Note_on_c, 0, 63, 48
1, 100280, Note_on_c, 0, 75, 57
1, 100286, Control_c, 0, 64, 72
1, 100288, Note_on_c, 0, 80, 51
1, 100292, Note_on_c, 0, 66, 44
1, 100292, Note_on_c, 0, 68, 45
1, 100295, Note_on_c, 0, 78, 45
1, 100301, Control_c, 0, 64, 77
1, 100307, Note_off_c, 0, 75, 62
1, 100316, Control_c, 0, 64, 83
1, 100327, Note_off_c, 0, 78, 51
1, 100331, Control_c, 0, 64, 89
1, 100335, Note_off_c, 0, 66, 64
1, 100340, Note_off_c, 0, 63, 57
1, 100341, Note_off_c, 0, 68, 63
1, 100346, Control_c, 0, 64, 95
1, 100351, Note_off_c, 0, 80, 55
1, 100360, Control_c, 0, 64, 98
1, 100364, Note_off_c, 0, 83, 57
1, 100371, Note_off_c, 0, 71, 47
1, 100375, Control_c, 0, 64, 98
1, 100575, Control_c, 0, 64, 98
1, 100590, Control_c, 0, 64, 96
1, 100605, Control_c, 0, 64, 93
1, 100619, Control_c, 0, 64, 90
1, 100632, Note_on_c, 0, 85, 73
1, 100634, Control_c, 0, 64, 88
1, 100649, Note_on_c, 0, 78, 62
1, 100649, Control_c, 0, 64, 87
1, 100650, Note_on_c, 0, 73, 52
1, 100659, Note_on_c, 0, 68, 45
1, 100661, Note_on_c, 0, 80, 51
1, 100667, Note_on_c, 0, 71, 41
1, 100669, Note_on_c, 0, 66, 39
1, 100693, Control_c, 0, 64, 87
1, 100708, Control_c, 0, 64, 88
1, 100723, Control_c, 0, 64, 90
1, 100739, Control_c, 0, 64, 93
1, 100754, Control_c, 0, 64, 94
1, 100759, Note_off_c, 0, 78, 56
1, 100769, Control_c, 0, 64, 96
1, 100783, Note_off_c, 0, 68, 60
1, 100783, Note_off_c, 0, 73, 60
1, 100799, Note_off_c, 0, 66, 42
1, 100804, Note_off_c, 0, 80, 46
1, 100809, Note_off_c, 0, 71, 35
1, 100813, Note_off_c, 0, 85, 60
1, 100976, Control_c, 0, 64, 95
1, 101020, Control_c, 0, 64, 95
1, 101035, Control_c, 0, 64, 94
1, 101049, Control_c, 0, 64, 93
1, 101064, Control_c, 0, 64, 92
1, 101079, Control_c, 0, 64, 91
1, 101094, Control_c, 0, 64, 90
1, 101109, Control_c, 0, 64, 89
1, 101124, Control_c, 0, 64, 88
1, 101138, Control_c, 0, 64, 86
1, 101153, Control_c, 0, 64, 84
1, 101168, Control_c, 0, 64, 83
1, 101181, Note_on_c, 0, 87, 66
1, 101183, Control_c, 0, 64, 80
1, 101198, Control_c, 0, 64, 76
1, 101207, Note_on_c, 0, 78, 42
1, 101207, Note_on_c, 0, 80, 41
1, 101210, Note_on_c, 0, 75, 40
1, 101213, Control_c, 0, 64, 71
1, 101214, Note_on_c, 0, 68, 34
1, 101219, Note_on_c, 0, 83, 42
1, 101228, Control_c, 0, 64, 65
1, 101242, Control_c, 0, 64, 42
1, 101252, Note_off_c, 0, 78, 0
1, 101252, Note_on_c, 0, 78, 17
1, 101253, Note_on_c, 0, 71, 11
1, 101257, Control_c, 0, 64, 0
1, 101274, Note_off_c, 0, 80, 0
1, 101274, Note_on_c, 0, 80, 4
1, 101279, Poly_aftertouch_c, 0, 66, 127
1, 101279, Control_c, 0, 64, 34
1, 101293, Control_c, 0, 64, 51
1, 101308, Control_c, 0, 64, 60
1, 101323, Control_c, 0, 64, 64
1, 101338, Control_c, 0, 64, 68
1, 101353, Control_c, 0, 64, 73
1, 101368, Control_c, 0, 64, 81
1, 101383, Control_c, 0, 64, 87
1, 101389, Note_off_c, 0, 75, 61
1, 101394, Note_off_c, 0, 78, 57
1, 101397, Control_c, 0, 64, 92
1, 101399, Note_off_c, 0, 68, 54
1, 101412, Control_c, 0, 64, 96
1, 101418, Poly_aftertouch_c, 0, 66, 0
1, 101427, Control_c, 0, 64, 98
1, 101437, Note_off_c, 0, 87, 55
1, 101441, Note_off_c, 0, 71, 19
1, 101441, Control_c, 0, 64, 101
1, 101450, Note_off_c, 0, 83, 36
1, 101456, Control_c, 0, 64, 103
1, 101462, Note_off_c, 0, 80, 41
1, 101471, Control_c, 0, 64, 104
1, 101486, Control_c, 0, 64, 104
1, 101872, Control_c, 0, 64, 104
1, 101902, Control_c, 0, 64, 103
1, 101916, Control_c, 0, 64, 103
1, 101931, Control_c, 0, 64, 102
1, 101946, Control_c, 0, 64, 102
1, 101961, Control_c, 0, 64, 101
1, 101976, Control_c, 0, 64, 101
1, 101991, Control_c, 0, 64, 100
1, 102006, Control_c, 0, 64, 99
1, 102027, Control_c, 0, 64, 99
1, 102042, Control_c, 0, 64, 97
1, 102057, Control_c, 0, 64, 96
1, 102071, Control_c, 0, 64, 94
1, 102086, Control_c, 0, 64, 91
1, 102093, Note_on_c, 0, 77, 77
1, 102101, Control_c, 0, 64, 87
1, 102105, Note_on_c, 0, 65, 64
1, 102108, Note_on_c, 0, 71, 58
1, 102116, Control_c, 0, 64, 81
1, 102118, Note_on_c, 0, 49, 59
1, 102120, Note_on_c, 0, 37, 53
1, 102125, Note_on_c, 0, 73, 65
1, 102131, Control_c, 0, 64, 75
1, 102146, Control_c, 0, 64, 66
1, 102161, Control_c, 0, 64, 41
1, 102176, Control_c, 0, 64, 0
1, 102191, Control_c, 0, 64, 44
1, 102206, Control_c, 0, 64, 61
1, 102220, Control_c, 0, 64, 65
1, 102234, Note_off_c, 0, 73, 63
1, 102235, Control_c, 0, 64, 68
1, 102250, Control_c, 0, 64, 75
1, 102264, Note_off_c, 0, 71, 59
1, 102264, Control_c, 0, 64, 83
1, 102279, Control_c, 0, 64, 91
1, 102294, Control_c, 0, 64, 97
1, 102309, Control_c, 0, 64, 100
1, 102324, Control_c, 0, 64, 101
1, 102348, Note_off_c, 0, 49, 60
1, 102375, Note_off_c, 0, 65, 56
1, 102424, Note_on_c, 0, 73, 79
1, 102428, Note_on_c, 0, 71, 74
1, 102428, Note_off_c, 0, 77, 62
1, 102472, Note_off_c, 0, 71, 57
1, 102517, Control_c, 0, 64, 100
1, 102561, Control_c, 0, 64, 99
1, 102576, Control_c, 0, 64, 98
1, 102591, Control_c, 0, 64, 95
1, 102599, Note_on_c, 0, 78, 84
1, 102606, Control_c, 0, 64, 90
1, 102608, Note_on_c, 0, 70, 75
1, 102608, Note_on_c, 0, 66, 73
1, 102617, Note_on_c, 0, 30, 61
1, 102621, Control_c, 0, 64, 84
1, 102628, Note_on_c, 0, 42, 57
1, 102629, Note_off_c, 0, 73, 51
1, 102635, Control_c, 0, 64, 78
1, 102644, Note_off_c, 0, 37, 35
1, 102650, Control_c, 0, 64, 69
1, 102665, Control_c, 0, 64, 49
1, 102680, Control_c, 0, 64, 0
1, 102792, Control_c, 0, 64, 48
1, 102804, Note_off_c, 0, 30, 63
1, 102807, Control_c, 0, 64, 67
1, 102817, Note_off_c, 0, 42, 63
1, 102821, Control_c, 0, 64, 73
1, 102836, Control_c, 0, 64, 79
1, 102851, Control_c, 0, 64, 83
1, 102864, Note_off_c, 0, 66, 66
1, 102866, Control_c, 0, 64, 87
1, 102881, Control_c, 0, 64, 91
1, 102895, Control_c, 0, 64, 94
1, 102910, Control_c, 0, 64, 96
1, 102925, Control_c, 0, 64, 97
1, 102940, Control_c, 0, 64, 98
1, 102951, Note_off_c, 0, 78, 61
1, 102955, Control_c, 0, 64, 99
1, 102969, Control_c, 0, 64, 101
1, 102975, Note_off_c, 0, 70, 60
1, 102984, Control_c, 0, 64, 103
1, 102991, Note_on_c, 0, 49, 73
1, 102999, Control_c, 0, 64, 105
1, 103013, Control_c, 0, 64, 108
1, 103028, Control_c, 0, 64, 111
1, 103043, Control_c, 0, 64, 115
1, 103058, Control_c, 0, 64, 116
1, 103220, Note_on_c, 0, 61, 75
1, 103299, Note_off_c, 0, 61, 54
1, 103385, Control_c, 0, 64, 115
1, 103400, Control_c, 0, 64, 115
1, 103415, Control_c, 0, 64, 113
1, 103429, Control_c, 0, 64, 112
1, 103444, Control_c, 0, 64, 109
1, 103459, Note_on_c, 0, 80, 75
1, 103459, Control_c, 0, 64, 105
1, 103467, Note_on_c, 0, 71, 61
1, 103471, Note_on_c, 0, 61, 52
1, 103474, Control_c, 0, 64, 100
1, 103489, Control_c, 0, 64, 92
1, 103511, Control_c, 0, 64, 83
1, 103526, Control_c, 0, 64, 71
1, 103541, Control_c, 0, 64, 0
1, 103595, Note_off_c, 0, 49, 31
1, 103644, Control_c, 0, 64, 61
1, 103651, Note_on_c, 0, 77, 68
1, 103656, Note_on_c, 0, 68, 64
1, 103659, Control_c, 0, 64, 68
1, 103662, Note_off_c, 0, 71, 60
1, 103664, Note_off_c, 0, 80, 61
1, 103674, Control_c, 0, 64, 73
1, 103689, Control_c, 0, 64, 78
1, 103704, Note_off_c, 0, 68, 59
1, 103704, Control_c, 0, 64, 83
1, 103718, Control_c, 0, 64, 87
1, 103733, Control_c, 0, 64, 91
1, 103748, Control_c, 0, 64, 94
1, 103763, Control_c, 0, 64, 97
1, 103772, Note_on_c, 0, 80, 74
1, 103776, Note_off_c, 0, 77, 54
1, 103778, Control_c, 0, 64, 99
1, 103783, Note_on_c, 0, 71, 70
1, 103792, Control_c, 0, 64, 100
1, 103807, Control_c, 0, 64, 101
1, 103830, Note_off_c, 0, 71, 56
1, 103830, Note_off_c, 0, 80, 60
1, 103881, Note_on_c, 0, 66, 72
1, 103884, Note_on_c, 0, 75, 70
1, 103917, Note_off_c, 0, 66, 61
1, 103918, Note_off_c, 0, 61, 54
1, 103964, Note_off_c, 0, 75, 62
1, 104011, Note_on_c, 0, 80, 68
1, 104018, Note_on_c, 0, 71, 66
1, 104035, Note_off_c, 0, 80, 65
1, 104050, Note_off_c, 0, 71, 62
1, 104075, Control_c, 0, 64, 100
1, 104078, Note_on_c, 0, 49, 49
1, 104104, Control_c, 0, 64, 100
1, 104119, Control_c, 0, 64, 99
1, 104125, Note_off_c, 0, 49, 54
1, 104134, Control_c, 0, 64, 99
1, 104152, Note_on_c, 0, 73, 69
1, 104155, Note_on_c, 0, 61, 67
1, 104164, Control_c, 0, 64, 98
1, 104177, Note_on_c, 0, 49, 35
1, 104179, Control_c, 0, 64, 97
1, 104182, Note_off_c, 0, 61, 65
1, 104194, Control_c, 0, 64, 96
1, 104208, Control_c, 0, 64, 95
1, 104223, Control_c, 0, 64, 94
1, 104224, Note_off_c, 0, 49, 56
1, 104238, Control_c, 0, 64, 93
1, 104259, Control_c, 0, 64, 92
1, 104274, Control_c, 0, 64, 91
1, 104289, Control_c, 0, 64, 90
1, 104304, Control_c, 0, 64, 89
1, 104319, Control_c, 0, 64, 87
1, 104334, Control_c, 0, 64, 84
1, 104345, Note_on_c, 0, 78, 70
1, 104349, Control_c, 0, 64, 80
1, 104354, Note_on_c, 0, 70, 60
1, 104364, Control_c, 0, 64, 74
1, 104374, Note_off_c, 0, 73, 35
1, 104379, Control_c, 0, 64, 66
1, 104390, Note_on_c, 0, 42, 38
1, 104394, Control_c, 0, 64, 36
1, 104408, Control_c, 0, 64, 0
1, 104512, Control_c, 0, 64, 61
1, 104527, Control_c, 0, 64, 69
1, 104541, Control_c, 0, 64, 75
1, 104556, Control_c, 0, 64, 80
1, 104571, Control_c, 0, 64, 84
1, 104585, Control_c, 0, 64, 87
1, 104589, Note_off_c, 0, 78, 62
1, 104600, Control_c, 0, 64, 91
1, 104600, Control_c, 0, 67, 9
1, 104608, Note_off_c, 0, 42, 61
1, 104614, Note_off_c, 0, 70, 61
1, 104615, Control_c, 0, 64, 93
1, 104615, Control_c, 0, 67, 10
1, 104627, Note_on_c, 0, 49, 51
1, 104630, Control_c, 0, 64, 95
1, 104630, Control_c, 0, 67, 15
1, 104645, Control_c, 0, 64, 96
1, 104645, Control_c, 0, 67, 20
1, 104659, Control_c, 0, 64, 97
1, 104659, Control_c, 0, 67, 26
1, 104674, Control_c, 0, 64, 98
1, 104674, Control_c, 0, 67, 29
1, 104689, Control_c, 0, 67, 31
1, 104704, Control_c, 0, 67, 31
1, 104719, Control_c, 0, 67, 32
1, 104794, Control_c, 0, 67, 33
1, 104809, Control_c, 0, 67, 34
1, 104824, Control_c, 0, 67, 37
1, 104838, Control_c, 0, 67, 41
1, 104853, Control_c, 0, 67, 44
1, 104859, Note_on_c, 0, 61, 54
1, 104868, Control_c, 0, 67, 47
1, 104882, Control_c, 0, 67, 50
1, 104893, Note_off_c, 0, 49, 30
1, 104897, Control_c, 0, 67, 52
1, 104912, Note_off_c, 0, 61, 53
1, 104912, Control_c, 0, 67, 54
1, 104927, Control_c, 0, 67, 56
1, 104942, Control_c, 0, 67, 57
1, 104957, Control_c, 0, 67, 59
1, 104972, Control_c, 0, 67, 62
1, 104987, Control_c, 0, 64, 97
1, 104987, Control_c, 0, 67, 65
1, 105009, Control_c, 0, 67, 67
1, 105024, Control_c, 0, 67, 69
1, 105038, Control_c, 0, 64, 97
1, 105038, Control_c, 0, 67, 71
1, 105068, Control_c, 0, 64, 96
1, 105082, Control_c, 0, 64, 95
1, 105097, Control_c, 0, 64, 94
1, 105097, Control_c, 0, 67, 71
1, 105112, Control_c, 0, 64, 93
1, 105127, Control_c, 0, 64, 91
1, 105132, Note_on_c, 0, 71, 51
1, 105132, Note_on_c, 0, 80, 60
1, 105142, Control_c, 0, 64, 87
1, 105146, Note_on_c, 0, 61, 43
1, 105157, Control_c, 0, 64, 81
1, 105172, Control_c, 0, 64, 71
1, 105187, Control_c, 0, 64, 61
1, 105201, Control_c, 0, 64, 0
1, 105231, Control_c, 0, 64, 47
1, 105246, Control_c, 0, 64, 58
1, 105246, Control_c, 0, 67, 71
1, 105261, Control_c, 0, 64, 63
1, 105276, Control_c, 0, 64, 66
1, 105285, Note_off_c, 0, 71, 61
1, 105288, Note_off_c, 0, 80, 57
1, 105290, Control_c, 0, 64, 71
1, 105290, Control_c, 0, 67, 70
1, 105295, Note_on_c, 0, 77, 62
1, 105305, Control_c, 0, 64, 76
1, 105307, Note_on_c, 0, 68, 52
1, 105320, Control_c, 0, 64, 82
1, 105320, Control_c, 0, 67, 70
1, 105335, Control_c, 0, 64, 86
1, 105335, Control_c, 0, 67, 69
1, 105347, Note_off_c, 0, 68, 50
1, 105350, Control_c, 0, 64, 90
1, 105364, Control_c, 0, 64, 92
1, 105371, Note_off_c, 0, 77, 57
1, 105379, Control_c, 0, 64, 93
1, 105394, Control_c, 0, 64, 94
1, 105394, Control_c, 0, 67, 69
1, 105408, Control_c, 0, 64, 95
1, 105423, Control_c, 0, 64, 95
1, 105427, Note_on_c, 0, 80, 64
1, 105439, Note_off_c, 0, 61, 60
1, 105443, Note_on_c, 0, 71, 55
1, 105453, Control_c, 0, 67, 68
1, 105472, Note_off_c, 0, 71, 60
1, 105476, Note_off_c, 0, 80, 59
1, 105512, Control_c, 0, 67, 69
1, 105527, Control_c, 0, 67, 69
1, 105553, Note_on_c, 0, 75, 63
1, 105565, Note_on_c, 0, 66, 53
1, 105587, Control_c, 0, 67, 70
1, 105591, Note_off_c, 0, 66, 57
1, 105646, Note_off_c, 0, 75, 51
1, 105700, Note_on_c, 0, 80, 70
1, 105713, Note_on_c, 0, 71, 58
1, 105718, Note_on_c, 0, 49, 42
1, 105720, Control_c, 0, 67, 71
1, 105735, Control_c, 0, 67, 71
1, 105747, Note_off_c, 0, 80, 61
1, 105751, Note_off_c, 0, 71, 60
1, 105773, Control_c, 0, 67, 72
1, 105776, Note_off_c, 0, 49, 60
1, 105787, Control_c, 0, 64, 95
1, 105787, Control_c, 0, 67, 72
1, 105802, Control_c, 0, 67, 73
1, 105817, Control_c, 0, 64, 94
1, 105831, Control_c, 0, 64, 94
1, 105831, Control_c, 0, 67, 75
1, 105846, Control_c, 0, 64, 93
1, 105846, Control_c, 0, 67, 78
1, 105861, Control_c, 0, 64, 93
1, 105861, Control_c, 0, 67, 79
1, 105873, Note_on_c, 0, 73, 67
1, 105876, Note_on_c, 0, 61, 62
1, 105876, Control_c, 0, 64, 92
1, 105876, Control_c, 0, 67, 80
1, 105891, Control_c, 0, 64, 92
1, 105891, Control_c, 0, 67, 81
1, 105906, Control_c, 0, 64, 91
1, 105922, Note_off_c, 0, 61, 58
1, 105935, Control_c, 0, 64, 90
1, 105965, Control_c, 0, 64, 90
1, 105979, Control_c, 0, 64, 89
1, 105994, Control_c, 0, 64, 88
1, 106009, Control_c, 0, 64, 87
1, 106024, Control_c, 0, 64, 85
1, 106039, Control_c, 0, 64, 84
1, 106054, Control_c, 0, 64, 83
1, 106069, Control_c, 0, 64, 81
1, 106084, Control_c, 0, 64, 80
1, 106099, Control_c, 0, 64, 79
1, 106113, Control_c, 0, 64, 78
1, 106120, Note_off_c, 0, 73, 35
1, 106122, Note_on_c, 0, 78, 59
1, 106128, Control_c, 0, 64, 74
1, 106135, Note_on_c, 0, 70, 56
1, 106143, Control_c, 0, 64, 70
1, 106149, Note_on_c, 0, 30, 33
1, 106158, Note_on_c, 0, 42, 33
1, 106158, Control_c, 0, 64, 63
1, 106173, Control_c, 0, 64, 25
1, 106187, Control_c, 0, 64, 0
1, 106187, Control_c, 0, 67, 81
1, 106291, Control_c, 0, 64, 57
1, 106305, Control_c, 0, 64, 68
1, 106320, Control_c, 0, 64, 77
1, 106321, Note_off_c, 0, 30, 57
1, 106336, Control_c, 0, 64, 85
1, 106351, Control_c, 0, 64, 89
1, 106352, Note_off_c, 0, 42, 53
1, 106353, Note_off_c, 0, 78, 61
1, 106366, Control_c, 0, 64, 92
1, 106378, Note_off_c, 0, 70, 59
1, 106381, Control_c, 0, 64, 94
1, 106396, Control_c, 0, 64, 96
1, 106410, Control_c, 0, 64, 97
1, 106587, Note_on_c, 0, 49, 40
1, 106596, Control_c, 0, 67, 80
1, 106655, Control_c, 0, 67, 80
1, 106669, Control_c, 0, 67, 79
1, 106699, Control_c, 0, 64, 96
1, 106729, Control_c, 0, 67, 79
1, 106773, Control_c, 0, 64, 96
1, 106773, Control_c, 0, 67, 78
1, 106787, Control_c, 0, 64, 95
1, 106802, Control_c, 0, 64, 95
1, 106817, Control_c, 0, 64, 94
1, 106817, Control_c, 0, 67, 78
1, 106820, Note_on_c, 0, 61, 44
1, 106832, Control_c, 0, 64, 94
1, 106847, Control_c, 0, 64, 93
1, 106862, Control_c, 0, 64, 93
1, 106877, Control_c, 0, 64, 92
1, 106892, Note_on_c, 0, 71, 59
1, 106892, Control_c, 0, 64, 91
1, 106906, Control_c, 0, 64, 90
1, 106920, Note_off_c, 0, 49, 35
1, 106921, Control_c, 0, 64, 88
1, 106936, Control_c, 0, 64, 86
1, 106951, Control_c, 0, 64, 84
1, 106966, Control_c, 0, 64, 82
1, 106980, Control_c, 0, 64, 80
1, 106980, Control_c, 0, 67, 77
1, 106986, Note_off_c, 0, 71, 58
1, 106995, Control_c, 0, 64, 76
1, 107005, Note_on_c, 0, 78, 55
1, 107009, Note_on_c, 0, 70, 59
1, 107010, Control_c, 0, 64, 73
1, 107011, Note_on_c, 0, 73, 53
1, 107025, Control_c, 0, 64, 69
1, 107040, Control_c, 0, 64, 65
1, 107054, Control_c, 0, 64, 54
1, 107069, Control_c, 0, 64, 0
1, 107099, Control_c, 0, 67, 78
1, 107130, Control_c, 0, 67, 78
1, 107145, Control_c, 0, 67, 79
1, 107189, Control_c, 0, 64, 54
1, 107204, Control_c, 0, 64, 64
1, 107204, Control_c, 0, 67, 79
1, 107219, Control_c, 0, 64, 69
1, 107233, Control_c, 0, 64, 74
1, 107255, Control_c, 0, 64, 81
1, 107258, Note_on_c, 0, 49, 40
1, 107270, Control_c, 0, 64, 86
1, 107284, Control_c, 0, 64, 89
1, 107284, Control_c, 0, 67, 79
1, 107294, Note_off_c, 0, 61, 36
1, 107299, Control_c, 0, 64, 92
1, 107299, Control_c, 0, 67, 78
1, 107310, Note_off_c, 0, 70, 57
1, 107314, Control_c, 0, 64, 93
1, 107314, Control_c, 0, 67, 77
1, 107329, Control_c, 0, 64, 93
1, 107329, Control_c, 0, 67, 77
1, 107344, Control_c, 0, 64, 94
1, 107382, Note_off_c, 0, 73, 0
1, 107388, Control_c, 0, 67, 77
1, 107419, Poly_aftertouch_c, 0, 73, 127
1, 107434, Note_off_c, 0, 78, 20
1, 107447, Control_c, 0, 64, 93
1, 107462, Note_on_c, 0, 61, 47
1, 107477, Control_c, 0, 64, 93
1, 107491, Note_off_c, 0, 49, 39
1, 107491, Control_c, 0, 64, 92
1, 107506, Control_c, 0, 64, 91
1, 107521, Control_c, 0, 64, 90
1, 107536, Control_c, 0, 64, 89
1, 107536, Control_c, 0, 67, 78
1, 107551, Control_c, 0, 64, 87
1, 107565, Poly_aftertouch_c, 0, 73, 0
1, 107565, Note_on_c, 0, 71, 56
1, 107565, Control_c, 0, 64, 84
1, 107565, Control_c, 0, 67, 78
1, 107580, Control_c, 0, 64, 80
1, 107580, Control_c, 0, 67, 79
1, 107595, Control_c, 0, 64, 75
1, 107610, Control_c, 0, 64, 67
1, 107625, Control_c, 0, 64, 44
1, 107625, Control_c, 0, 67, 79
1, 107640, Control_c, 0, 64, 0
1, 107641, Note_off_c, 0, 71, 58
1, 107655, Note_on_c, 0, 78, 51
1, 107659, Note_on_c, 0, 70, 52
1, 107664, Note_on_c, 0, 73, 51
1, 107684, Control_c, 0, 67, 80
1, 107822, Note_on_c, 0, 51, 41
1, 107824, Note_off_c, 0, 61, 54
1, 107862, Control_c, 0, 67, 79
1, 107876, Note_off_c, 0, 51, 57
1, 107915, Note_on_c, 0, 49, 37
1, 108062, Control_c, 0, 64, 42
1, 108077, Control_c, 0, 64, 58
1, 108077, Control_c, 0, 67, 79
1, 108092, Control_c, 0, 64, 64
1, 108106, Control_c, 0, 64, 66
1, 108121, Control_c, 0, 64, 69
1, 108136, Control_c, 0, 64, 73
1, 108151, Control_c, 0, 64, 77
1, 108166, Control_c, 0, 64, 80
1, 108166, Control_c, 0, 67, 78
1, 108180, Control_c, 0, 64, 83
1, 108182, Note_off_c, 0, 73, 0
1, 108188, Note_off_c, 0, 70, 59
1, 108195, Control_c, 0, 64, 84
1, 108210, Control_c, 0, 64, 86
1, 108214, Note_off_c, 0, 78, 36
1, 108216, Note_on_c, 0, 61, 40
1, 108219, Poly_aftertouch_c, 0, 73, 127
1, 108239, Control_c, 0, 64, 86
1, 108373, Control_c, 0, 64, 86
1, 108375, Note_off_c, 0, 49, 34
1, 108403, Control_c, 0, 64, 85
1, 108411, Poly_aftertouch_c, 0, 73, 0
1, 108413, Note_on_c, 0, 71, 40
1, 108418, Control_c, 0, 64, 84
1, 108432, Control_c, 0, 64, 83
1, 108447, Control_c, 0, 64, 80
1, 108460, Note_off_c, 0, 71, 43
1, 108462, Control_c, 0, 64, 76
1, 108477, Control_c, 0, 64, 71
1, 108487, Note_on_c, 0, 73, 55
1, 108492, Control_c, 0, 64, 65
1, 108506, Note_on_c, 0, 70, 46
1, 108506, Control_c, 0, 64, 54
1, 108521, Control_c, 0, 64, 0
1, 108570, Note_off_c, 0, 70, 0
1, 108570, Note_on_c, 0, 70, 13
1, 108599, Poly_aftertouch_c, 0, 77, 127
1, 108623, Poly_aftertouch_c, 0, 77, 0
1, 108624, Control_c, 0, 67, 79
1, 108737, Note_off_c, 0, 61, 54
1, 108757, Note_on_c, 0, 51, 41
1, 108817, Note_off_c, 0, 51, 58
1, 108858, Note_on_c, 0, 49, 33
1, 109003, Control_c, 0, 64, 27
1, 109018, Control_c, 0, 64, 36
1, 109033, Control_c, 0, 64, 41
1, 109047, Control_c, 0, 64, 45
1, 109062, Control_c, 0, 64, 49
1, 109077, Control_c, 0, 64, 53
1, 109092, Control_c, 0, 64, 57
1, 109107, Control_c, 0, 64, 60
1, 109121, Control_c, 0, 64, 62
1, 109136, Control_c, 0, 64, 64
1, 109151, Control_c, 0, 64, 65
1, 109166, Control_c, 0, 64, 66
1, 109181, Control_c, 0, 64, 67
1, 109196, Control_c, 0, 64, 70
1, 109211, Control_c, 0, 64, 73
1, 109226, Control_c, 0, 64, 75
1, 109241, Control_c, 0, 64, 77
1, 109255, Control_c, 0, 64, 78
1, 109270, Control_c, 0, 64, 80
1, 109285, Control_c, 0, 64, 82
1, 109300, Control_c, 0, 64, 84
1, 109315, Control_c, 0, 64, 86
1, 109329, Control_c, 0, 64, 89
1, 109344, Control_c, 0, 64, 91
1, 109359, Control_c, 0, 64, 93
1, 109372, Note_on_c, 0, 61, 40
1, 109373, Control_c, 0, 64, 95
1, 109388, Control_c, 0, 64, 96
1, 109403, Control_c, 0, 64, 97
1, 109418, Control_c, 0, 64, 97
1, 109425, Note_off_c, 0, 73, 23
1, 109433, Control_c, 0, 64, 98
1, 109447, Control_c, 0, 64, 98
1, 109492, Control_c, 0, 67, 78
1, 109649, Control_c, 0, 67, 79
1, 109786, Note_off_c, 0, 70, 28
1, 109857, Control_c, 0, 67, 79
1, 109875, Note_on_c, 0, 71, 50
1, 109901, Control_c, 0, 67, 80
1, 109916, Control_c, 0, 67, 80
1, 109931, Control_c, 0, 64, 98
1, 109931, Control_c, 0, 67, 81
1, 109975, Control_c, 0, 67, 82
1, 109990, Control_c, 0, 64, 97
1, 110019, Control_c, 0, 67, 82
1, 110034, Control_c, 0, 64, 97
1, 110034, Control_c, 0, 67, 83
1, 110049, Control_c, 0, 67, 83
1, 110078, Control_c, 0, 64, 96
1, 110093, Control_c, 0, 67, 84
1, 110108, Control_c, 0, 67, 90
1, 110123, Control_c, 0, 67, 94
1, 110138, Control_c, 0, 67, 97
1, 110153, Control_c, 0, 67, 99
1, 110168, Control_c, 0, 67, 101
1, 110183, Control_c, 0, 64, 96
1, 110183, Control_c, 0, 67, 103
1, 110197, Control_c, 0, 67, 104
1, 110278, Control_c, 0, 64, 95
1, 110339, Control_c, 0, 64, 95
1, 110383, Control_c, 0, 67, 103
1, 110398, Control_c, 0, 64, 94
1, 110413, Note_off_c, 0, 71, 35
1, 110472, Control_c, 0, 64, 94
1, 110501, Control_c, 0, 67, 103
1, 110531, Control_c, 0, 64, 93
1, 110546, Control_c, 0, 67, 102
1, 110576, Control_c, 0, 64, 93
1, 110591, Control_c, 0, 64, 92
1, 110620, Control_c, 0, 64, 92
1, 110635, Control_c, 0, 64, 91
1, 110635, Control_c, 0, 67, 102
1, 110650, Control_c, 0, 64, 91
1, 110664, Note_on_c, 0, 73, 42
1, 110664, Note_on_c, 0, 78, 53
1, 110665, Control_c, 0, 64, 90
1, 110680, Control_c, 0, 64, 89
1, 110692, Note_on_c, 0, 69, 37
1, 110694, Control_c, 0, 64, 88
1, 110709, Control_c, 0, 64, 87
1, 110709, Control_c, 0, 67, 101
1, 110724, Control_c, 0, 64, 84
1, 110739, Control_c, 0, 64, 82
1, 110754, Control_c, 0, 64, 80
1, 110768, Control_c, 0, 64, 78
1, 110783, Control_c, 0, 64, 76
1, 110798, Control_c, 0, 64, 73
1, 110813, Control_c, 0, 64, 68
1, 110827, Control_c, 0, 64, 64
1, 110842, Control_c, 0, 64, 59
1, 110851, Note_off_c, 0, 49, 39
1, 110857, Control_c, 0, 64, 53
1, 110872, Control_c, 0, 67, 101
1, 110931, Control_c, 0, 64, 52
1, 110946, Control_c, 0, 64, 52
1, 110961, Control_c, 0, 67, 100
1, 110975, Control_c, 0, 67, 100
1, 111013, Control_c, 0, 64, 52
1, 111013, Control_c, 0, 67, 99
1, 111027, Control_c, 0, 64, 53
1, 111027, Control_c, 0, 67, 99
1, 111042, Control_c, 0, 64, 53
1, 111057, Control_c, 0, 64, 54
1, 111057, Control_c, 0, 67, 98
1, 111072, Control_c, 0, 64, 55
1, 111072, Control_c, 0, 67, 98
1, 111087, Control_c, 0, 64, 57
1, 111087, Control_c, 0, 67, 97
1, 111101, Control_c, 0, 64, 58
1, 111116, Control_c, 0, 64, 60
1, 111132, Control_c, 0, 64, 61
1, 111147, Control_c, 0, 64, 62
1, 111162, Control_c, 0, 64, 63
1, 111177, Control_c, 0, 64, 64
1, 111192, Control_c, 0, 64, 65
1, 111206, Control_c, 0, 64, 65
1, 111221, Control_c, 0, 64, 66
1, 111236, Control_c, 0, 64, 67
1, 111250, Control_c, 0, 64, 69
1, 111265, Control_c, 0, 64, 71
1, 111280, Control_c, 0, 64, 73
1, 111295, Control_c, 0, 64, 75
1, 111310, Control_c, 0, 64, 78
1, 111324, Control_c, 0, 64, 80
1, 111339, Control_c, 0, 64, 81
1, 111354, Control_c, 0, 64, 82
1, 111369, Control_c, 0, 64, 83
1, 111384, Control_c, 0, 64, 85
1, 111399, Control_c, 0, 64, 86
1, 111414, Control_c, 0, 64, 87
1, 111429, Control_c, 0, 64, 88
1, 111443, Control_c, 0, 64, 89
1, 111458, Control_c, 0, 64, 89
1, 111473, Control_c, 0, 64, 90
1, 111484, Note_on_c, 0, 49, 35
1, 111488, Control_c, 0, 64, 90
1, 111547, Control_c, 0, 64, 91
1, 111547, Control_c, 0, 67, 98
1, 111577, Control_c, 0, 64, 91
1, 111606, Note_off_c, 0, 61, 38
1, 111606, Control_c, 0, 67, 98
1, 111621, Control_c, 0, 67, 99
1, 111665, Control_c, 0, 67, 99
1, 111695, Control_c, 0, 67, 100
1, 111710, Control_c, 0, 67, 100
1, 111724, Control_c, 0, 67, 101
1, 111735, Note_off_c, 0, 69, 37
1, 111747, Control_c, 0, 67, 101
1, 111767, Note_off_c, 0, 78, 34
1, 111790, Control_c, 0, 67, 102
1, 111849, Control_c, 0, 67, 102
1, 111879, Control_c, 0, 67, 103
1, 111894, Control_c, 0, 67, 103
1, 111969, Control_c, 0, 67, 104
1, 112028, Control_c, 0, 64, 91
1, 112035, Note_on_c, 0, 54, 40
1, 112058, Control_c, 0, 67, 104
1, 112063, Note_off_c, 0, 73, 29
1, 112117, Control_c, 0, 64, 90
1, 112147, Control_c, 0, 67, 105
1, 112162, Control_c, 0, 67, 105
1, 112192, Control_c, 0, 67, 106
1, 112206, Control_c, 0, 64, 90
1, 112206, Control_c, 0, 67, 108
1, 112221, Control_c, 0, 67, 113
1, 112236, Control_c, 0, 67, 115
1, 112251, Control_c, 0, 67, 115
1, 112266, Control_c, 0, 64, 89
1, 112295, Control_c, 0, 64, 89
1, 112324, Note_off_c, 0, 49, 34
1, 112340, Control_c, 0, 64, 88
1, 112384, Control_c, 0, 64, 88
1, 112413, Control_c, 0, 64, 87
1, 112443, Control_c, 0, 64, 87
1, 112458, Control_c, 0, 64, 86
1, 112472, Control_c, 0, 64, 86
1, 112487, Control_c, 0, 64, 85
1, 112508, Note_on_c, 0, 56, 46
1, 112510, Control_c, 0, 64, 85
1, 112525, Note_off_c, 0, 54, 38
1, 112525, Control_c, 0, 64, 84
1, 112555, Control_c, 0, 64, 84
1, 112614, Control_c, 0, 67, 116
1, 112629, Control_c, 0, 67, 116
1, 112644, Control_c, 0, 67, 117
1, 112673, Control_c, 0, 64, 83
1, 112673, Control_c, 0, 67, 118
1, 112688, Control_c, 0, 67, 122
1, 112703, Control_c, 0, 67, 125
1, 112719, Control_c, 0, 67, 127
1, 112734, Control_c, 0, 64, 83
1, 112749, Control_c, 0, 64, 82
1, 112778, Control_c, 0, 64, 81
1, 112793, Control_c, 0, 64, 81
1, 112808, Control_c, 0, 64, 80
1, 112815, Note_on_c, 0, 57, 54
1, 112822, Control_c, 0, 64, 78
1, 112837, Control_c, 0, 64, 76
1, 112852, Control_c, 0, 64, 73
1, 112861, Note_off_c, 0, 56, 53
1, 112867, Control_c, 0, 64, 70
1, 112882, Control_c, 0, 64, 68
1, 112896, Control_c, 0, 64, 66
1, 112911, Control_c, 0, 64, 65
1, 112926, Control_c, 0, 64, 64
1, 113000, Control_c, 0, 64, 64
1, 113029, Control_c, 0, 64, 63
1, 113044, Control_c, 0, 64, 62
1, 113054, Note_on_c, 0, 59, 43
1, 113059, Control_c, 0, 64, 62
1, 113062, Note_off_c, 0, 57, 49
1, 113074, Control_c, 0, 64, 61
1, 113119, Control_c, 0, 64, 61
1, 113149, Control_c, 0, 64, 60
1, 113163, Control_c, 0, 64, 60
1, 113178, Control_c, 0, 64, 59
1, 113193, Control_c, 0, 64, 59
1, 113208, Control_c, 0, 64, 58
1, 113237, Control_c, 0, 64, 58
1, 113259, Control_c, 0, 64, 57
1, 113274, Control_c, 0, 64, 56
1, 113289, Control_c, 0, 64, 55
1, 113304, Control_c, 0, 64, 55
1, 113318, Control_c, 0, 64, 54
1, 113333, Control_c, 0, 64, 54
1, 113334, Note_on_c, 0, 61, 50
1, 113348, Control_c, 0, 64, 53
1, 113363, Control_c, 0, 64, 53
1, 113378, Control_c, 0, 64, 51
1, 113393, Control_c, 0, 64, 49
1, 113405, Note_off_c, 0, 59, 35
1, 113408, Control_c, 0, 64, 48
1, 113437, Control_c, 0, 64, 48
1, 113452, Control_c, 0, 64, 47
1, 113511, Control_c, 0, 64, 47
1, 113542, Control_c, 0, 67, 127
1, 113557, Control_c, 0, 64, 46
1, 113587, Control_c, 0, 67, 126
1, 113601, Control_c, 0, 67, 126
1, 113631, Control_c, 0, 67, 125
1, 113645, Control_c, 0, 64, 48
1, 113648, Note_on_c, 0, 66, 53
1, 113660, Control_c, 0, 64, 50
1, 113660, Control_c, 0, 67, 125
1, 113675, Control_c, 0, 64, 54
1, 113675, Control_c, 0, 67, 124
1, 113684, Note_off_c, 0, 61, 52
1, 113690, Control_c, 0, 64, 56
1, 113690, Control_c, 0, 67, 124
1, 113705, Control_c, 0, 64, 58
1, 113719, Control_c, 0, 64, 59
1, 113719, Control_c, 0, 67, 123
1, 113764, Control_c, 0, 64, 58
1, 113764, Control_c, 0, 67, 123
1, 113779, Control_c, 0, 64, 58
1, 113779, Control_c, 0, 67, 122
1, 113793, Control_c, 0, 64, 57
1, 113823, Control_c, 0, 64, 56
1, 113837, Control_c, 0, 64, 55
1, 113852, Control_c, 0, 64, 54
1, 113867, Control_c, 0, 64, 49
1, 113881, Note_on_c, 0, 62, 54
1, 113882, Control_c, 0, 64, 34
1, 113892, Note_off_c, 0, 66, 53
1, 113897, Control_c, 0, 64, 0
1, 113897, Control_c, 0, 67, 122
1, 113912, Control_c, 0, 67, 121
1, 113956, Control_c, 0, 67, 121
1, 114008, Control_c, 0, 67, 120
1, 114038, Control_c, 0, 67, 119
1, 114084, Note_on_c, 0, 61, 57
1, 114085, Note_off_c, 0, 62, 55
1, 114171, Control_c, 0, 67, 119
1, 114290, Control_c, 0, 67, 118
1, 114298, Note_on_c, 0, 59, 51
1, 114305, Control_c, 0, 67, 118
1, 114308, Note_off_c, 0, 61, 56
1, 114380, Control_c, 0, 67, 117
1, 114394, Control_c, 0, 67, 117
1, 114409, Control_c, 0, 67, 116
1, 114505, Note_on_c, 0, 62, 52
1, 114510, Note_off_c, 0, 59, 53
1, 114646, Control_c, 0, 67, 117
1, 114764, Note_on_c, 0, 61, 56
1, 114779, Note_off_c, 0, 62, 54
1, 114875, Control_c, 0, 64, 10
1, 114890, Control_c, 0, 64, 30
1, 114905, Control_c, 0, 64, 40
1, 114920, Control_c, 0, 64, 52
1, 114935, Control_c, 0, 64, 58
1, 114949, Control_c, 0, 64, 59
1, 114964, Control_c, 0, 64, 60
1, 114979, Control_c, 0, 64, 61
1, 114994, Control_c, 0, 64, 63
1, 115009, Control_c, 0, 64, 65
1, 115015, Note_on_c, 0, 66, 55
1, 115023, Control_c, 0, 64, 66
1, 115038, Control_c, 0, 64, 68
1, 115053, Control_c, 0, 64, 70
1, 115061, Note_off_c, 0, 61, 56
1, 115068, Control_c, 0, 64, 73
1, 115083, Control_c, 0, 64, 75
1, 115098, Control_c, 0, 64, 78
1, 115113, Control_c, 0, 64, 79
1, 115128, Control_c, 0, 64, 81
1, 115143, Control_c, 0, 64, 82
1, 115158, Control_c, 0, 64, 82
1, 115173, Control_c, 0, 64, 83
1, 115226, Note_on_c, 0, 62, 63
1, 115262, Control_c, 0, 64, 82
1, 115277, Note_off_c, 0, 66, 39
1, 115291, Control_c, 0, 64, 81
1, 115306, Control_c, 0, 64, 80
1, 115321, Control_c, 0, 64, 79
1, 115336, Control_c, 0, 64, 77
1, 115351, Control_c, 0, 64, 75
1, 115351, Control_c, 0, 67, 117
1, 115365, Control_c, 0, 64, 72
1, 115380, Control_c, 0, 64, 69
1, 115395, Control_c, 0, 64, 65
1, 115409, Control_c, 0, 64, 57
1, 115421, Note_on_c, 0, 61, 60
1, 115424, Control_c, 0, 64, 10
1, 115439, Control_c, 0, 64, 0
1, 115439, Control_c, 0, 67, 118
1, 115450, Note_off_c, 0, 62, 57
1, 115565, Control_c, 0, 67, 118
1, 115621, Note_off_c, 0, 61, 56
1, 115623, Note_on_c, 0, 59, 61
1, 115639, Control_c, 0, 67, 118
1, 115654, Control_c, 0, 64, 20
1, 115669, Control_c, 0, 64, 35
1, 115684, Control_c, 0, 64, 44
1, 115698, Control_c, 0, 64, 54
1, 115713, Control_c, 0, 64, 61
1, 115728, Control_c, 0, 64, 65
1, 115742, Control_c, 0, 64, 68
1, 115757, Control_c, 0, 64, 71
1, 115772, Control_c, 0, 64, 74
1, 115787, Control_c, 0, 64, 76
1, 115802, Control_c, 0, 64, 77
1, 115816, Control_c, 0, 64, 78
1, 115822, Note_on_c, 0, 62, 66
1, 115824, Note_off_c, 0, 59, 60
1, 115831, Control_c, 0, 64, 78
1, 115846, Control_c, 0, 64, 79
1, 115876, Control_c, 0, 64, 79
1, 115891, Control_c, 0, 64, 80
1, 115906, Control_c, 0, 64, 80
1, 115921, Control_c, 0, 64, 81
1, 115921, Control_c, 0, 67, 118
1, 115938, Note_off_c, 0, 62, 60
1, 115966, Control_c, 0, 67, 119
1, 116070, Control_c, 0, 64, 80
1, 116085, Control_c, 0, 64, 79
1, 116086, Note_on_c, 0, 61, 71
1, 116100, Control_c, 0, 64, 78
1, 116114, Control_c, 0, 64, 76
1, 116129, Control_c, 0, 64, 74
1, 116144, Control_c, 0, 64, 72
1, 116159, Control_c, 0, 64, 70
1, 116174, Control_c, 0, 64, 65
1, 116188, Control_c, 0, 64, 58
1, 116188, Control_c, 0, 67, 119
1, 116203, Control_c, 0, 64, 0
1, 116329, Control_c, 0, 67, 119
1, 116340, Note_on_c, 0, 66, 68
1, 116344, Control_c, 0, 64, 34
1, 116359, Control_c, 0, 64, 56
1, 116373, Control_c, 0, 64, 63
1, 116388, Control_c, 0, 64, 66
1, 116403, Control_c, 0, 64, 70
1, 116418, Control_c, 0, 64, 74
1, 116433, Control_c, 0, 64, 79
1, 116447, Control_c, 0, 64, 82
1, 116462, Control_c, 0, 64, 85
1, 116462, Control_c, 0, 67, 118
1, 116477, Control_c, 0, 64, 87
1, 116492, Control_c, 0, 64, 88
1, 116507, Control_c, 0, 64, 89
1, 116545, Note_on_c, 0, 62, 74
1, 116559, Note_off_c, 0, 61, 58
1, 116559, Note_off_c, 0, 66, 65
1, 116654, Control_c, 0, 64, 88
1, 116669, Control_c, 0, 64, 88
1, 116684, Control_c, 0, 64, 87
1, 116699, Control_c, 0, 67, 118
1, 116715, Control_c, 0, 64, 87
1, 116730, Control_c, 0, 64, 86
1, 116744, Control_c, 0, 64, 85
1, 116759, Control_c, 0, 64, 84
1, 116774, Control_c, 0, 64, 83
1, 116782, Note_off_c, 0, 62, 60
1, 116788, Control_c, 0, 64, 81
1, 116803, Control_c, 0, 64, 79
1, 116808, Note_on_c, 0, 61, 71
1, 116818, Control_c, 0, 64, 77
1, 116833, Control_c, 0, 64, 73
1, 116848, Control_c, 0, 64, 68
1, 116863, Control_c, 0, 64, 61
1, 116878, Control_c, 0, 64, 0
1, 117033, Control_c, 0, 64, 49
1, 117048, Control_c, 0, 64, 62
1, 117063, Control_c, 0, 64, 64
1, 117077, Control_c, 0, 64, 67
1, 117092, Control_c, 0, 64, 69
1, 117107, Control_c, 0, 64, 71
1, 117107, Control_c, 0, 67, 117
1, 117108, Note_on_c, 0, 73, 69
1, 117122, Control_c, 0, 64, 75
1, 117137, Control_c, 0, 64, 79
1, 117152, Control_c, 0, 64, 82
1, 117167, Control_c, 0, 64, 84
1, 117182, Control_c, 0, 64, 86
1, 117196, Control_c, 0, 64, 88
1, 117211, Control_c, 0, 64, 90
1, 117211, Control_c, 0, 67, 118
1, 117226, Control_c, 0, 64, 92
1, 117241, Control_c, 0, 64, 92
1, 117241, Control_c, 0, 67, 118
1, 117256, Control_c, 0, 64, 93
1, 117256, Control_c, 0, 67, 119
1, 117285, Control_c, 0, 67, 119
1, 117315, Control_c, 0, 67, 120
1, 117339, Note_on_c, 0, 66, 71
1, 117359, Control_c, 0, 67, 120
1, 117374, Control_c, 0, 67, 121
1, 117387, Note_off_c, 0, 61, 59
1, 117403, Control_c, 0, 67, 121
1, 117429, Note_off_c, 0, 73, 32
1, 117477, Control_c, 0, 64, 92
1, 117492, Control_c, 0, 67, 121
1, 117508, Control_c, 0, 64, 92
1, 117553, Control_c, 0, 64, 91
1, 117553, Control_c, 0, 67, 120
1, 117582, Control_c, 0, 64, 91
1, 117582, Control_c, 0, 67, 120
1, 117611, Control_c, 0, 64, 90
1, 117626, Control_c, 0, 64, 89
1, 117641, Control_c, 0, 64, 88
1, 117656, Control_c, 0, 64, 87
1, 117671, Control_c, 0, 64, 86
1, 117685, Control_c, 0, 64, 84
1, 117688, Note_on_c, 0, 68, 69
1, 117700, Control_c, 0, 64, 83
1, 117715, Control_c, 0, 64, 80
1, 117724, Note_off_c, 0, 66, 60
1, 117730, Control_c, 0, 64, 77
1, 117753, Control_c, 0, 64, 73
1, 117753, Control_c, 0, 67, 119
1, 117767, Control_c, 0, 64, 68
1, 117782, Control_c, 0, 64, 63
1, 117797, Control_c, 0, 64, 48
1, 117812, Control_c, 0, 64, 0
1, 117945, Control_c, 0, 64, 41
1, 117960, Control_c, 0, 64, 56
1, 117975, Control_c, 0, 64, 63
1, 117989, Control_c, 0, 64, 66
1, 117989, Control_c, 0, 67, 120
1, 118004, Control_c, 0, 64, 69
1, 118019, Control_c, 0, 64, 72
1, 118034, Control_c, 0, 64, 76
1, 118034, Control_c, 0, 67, 120
1, 118037, Note_on_c, 0, 66, 53
1, 118049, Control_c, 0, 64, 79
1, 118049, Control_c, 0, 67, 121
1, 118064, Control_c, 0, 64, 82
1, 118079, Control_c, 0, 64, 83
1, 118079, Control_c, 0, 67, 122
1, 118093, Control_c, 0, 64, 85
1, 118093, Control_c, 0, 67, 123
1, 118098, Note_off_c, 0, 68, 53
1, 118108, Control_c, 0, 64, 86
1, 118108, Control_c, 0, 67, 124
1, 118123, Control_c, 0, 64, 87
1, 118137, Control_c, 0, 64, 88
1, 118137, Control_c, 0, 67, 124
1, 118152, Control_c, 0, 67, 125
1, 118167, Control_c, 0, 67, 125
1, 118182, Control_c, 0, 67, 126
1, 118197, Control_c, 0, 67, 126
1, 118226, Control_c, 0, 67, 127
1, 118241, Control_c, 0, 67, 127
1, 118246, Note_off_c, 0, 66, 62
1, 118255, Note_on_c, 0, 64, 55
1, 118346, Control_c, 0, 64, 87
1, 118376, Control_c, 0, 64, 87
1, 118390, Control_c, 0, 64, 86
1, 118405, Control_c, 0, 64, 85
1, 118420, Control_c, 0, 64, 84
1, 118434, Control_c, 0, 64, 83
1, 118449, Control_c, 0, 64, 81
1, 118456, Note_on_c, 0, 66, 62
1, 118464, Control_c, 0, 64, 78
1, 118466, Note_off_c, 0, 64, 57
1, 118487, Control_c, 0, 64, 76
1, 118502, Control_c, 0, 64, 73
1, 118516, Control_c, 0, 64, 68
1, 118531, Control_c, 0, 64, 62
1, 118546, Control_c, 0, 64, 43
1, 118561, Control_c, 0, 64, 0
1, 118620, Control_c, 0, 64, 28
1, 118635, Control_c, 0, 64, 48
1, 118649, Control_c, 0, 64, 59
1, 118664, Control_c, 0, 64, 65
1, 118679, Control_c, 0, 64, 69
1, 118694, Control_c, 0, 64, 75
1, 118701, Note_on_c, 0, 64, 45
1, 118709, Control_c, 0, 64, 80
1, 118723, Control_c, 0, 64, 84
1, 118738, Control_c, 0, 64, 86
1, 118753, Control_c, 0, 64, 88
1, 118759, Note_off_c, 0, 66, 38
1, 118768, Control_c, 0, 64, 88
1, 118782, Control_c, 0, 64, 89
1, 118877, Note_off_c, 0, 64, 61
1, 118903, Note_on_c, 0, 62, 51
1, 118946, Control_c, 0, 64, 88
1, 118975, Control_c, 0, 64, 88
1, 119005, Control_c, 0, 64, 87
1, 119020, Control_c, 0, 64, 87
1, 119034, Control_c, 0, 64, 86
1, 119049, Control_c, 0, 64, 86
1, 119064, Control_c, 0, 64, 85
1, 119079, Control_c, 0, 64, 85
1, 119094, Control_c, 0, 64, 84
1, 119104, Note_on_c, 0, 64, 60
1, 119105, Note_off_c, 0, 62, 52
1, 119110, Control_c, 0, 64, 83
1, 119125, Control_c, 0, 64, 82
1, 119139, Control_c, 0, 64, 79
1, 119154, Control_c, 0, 64, 76
1, 119169, Control_c, 0, 64, 72
1, 119183, Control_c, 0, 64, 66
1, 119198, Control_c, 0, 64, 54
1, 119213, Control_c, 0, 64, 0
1, 119351, Note_on_c, 0, 62, 43
1, 119353, Control_c, 0, 64, 49
1, 119362, Note_off_c, 0, 64, 52
1, 119368, Control_c, 0, 64, 63
1, 119383, Control_c, 0, 64, 67
1, 119397, Control_c, 0, 64, 72
1, 119412, Control_c, 0, 64, 76
1, 119427, Control_c, 0, 64, 81
1, 119442, Control_c, 0, 64, 83
1, 119457, Control_c, 0, 64, 84
1, 119471, Control_c, 0, 64, 85
1, 119533, Note_off_c, 0, 62, 53
1, 119550, Note_on_c, 0, 61, 53
1, 119620, Control_c, 0, 64, 84
1, 119650, Control_c, 0, 64, 84
1, 119664, Control_c, 0, 64, 83
1, 119679, Control_c, 0, 64, 83
1, 119694, Control_c, 0, 64, 82
1, 119709, Control_c, 0, 64, 81
1, 119724, Control_c, 0, 64, 80
1, 119738, Control_c, 0, 64, 78
1, 119753, Control_c, 0, 64, 76
1, 119766, Note_off_c, 0, 61, 53
1, 119768, Control_c, 0, 64, 72
1, 119772, Note_on_c, 0, 62, 53
1, 119782, Control_c, 0, 64, 66
1, 119797, Control_c, 0, 64, 53
1, 119812, Control_c, 0, 64, 0
1, 119902, Control_c, 0, 64, 46
1, 119917, Control_c, 0, 64, 57
1, 119932, Control_c, 0, 64, 62
1, 119947, Control_c, 0, 64, 65
1, 119961, Control_c, 0, 64, 68
1, 119984, Control_c, 0, 64, 71
1, 119999, Control_c, 0, 64, 75
1, 120007, Note_off_c, 0, 62, 53
1, 120011, Note_on_c, 0, 61, 49
1, 120013, Control_c, 0, 64, 79
1, 120028, Control_c, 0, 64, 82
1, 120043, Control_c, 0, 64, 84
1, 120058, Control_c, 0, 64, 85
1, 120073, Control_c, 0, 64, 85
1, 120087, Control_c, 0, 64, 86
1, 120200, Note_off_c, 0, 61, 49
1, 120205, Control_c, 0, 64, 85
1, 120229, Note_on_c, 0, 59, 43
1, 120250, Control_c, 0, 64, 85
1, 120279, Control_c, 0, 64, 84
1, 120294, Control_c, 0, 64, 84
1, 120309, Control_c, 0, 64, 83
1, 120324, Control_c, 0, 64, 83
1, 120338, Control_c, 0, 64, 82
1, 120353, Control_c, 0, 64, 82
1, 120368, Control_c, 0, 64, 81
1, 120383, Control_c, 0, 64, 80
1, 120398, Control_c, 0, 64, 79
1, 120413, Control_c, 0, 64, 77
1, 120428, Control_c, 0, 64, 74
1, 120443, Control_c, 0, 64, 69
1, 120447, Note_on_c, 0, 61, 48
1, 120458, Control_c, 0, 64, 62
1, 120458, Note_off_c, 0, 59, 41
1, 120473, Control_c, 0, 64, 26
1, 120487, Control_c, 0, 64, 0
1, 120546, Control_c, 0, 64, 32
1, 120561, Control_c, 0, 64, 49
1, 120576, Control_c, 0, 64, 61
1, 120591, Control_c, 0, 64, 65
1, 120605, Control_c, 0, 64, 68
1, 120620, Control_c, 0, 64, 72
1, 120635, Control_c, 0, 64, 75
1, 120650, Control_c, 0, 64, 78
1, 120665, Note_off_c, 0, 61, 52
1, 120665, Control_c, 0, 64, 81
1, 120678, Note_on_c, 0, 66, 42
1, 120679, Control_c, 0, 64, 82
1, 120694, Control_c, 0, 64, 82
1, 120866, Control_c, 0, 64, 82
1, 120896, Control_c, 0, 64, 81
1, 120900, Note_on_c, 0, 61, 55
1, 120906, Note_off_c, 0, 66, 37
1, 120909, Note_on_c, 0, 49, 39
1, 120910, Control_c, 0, 64, 81
1, 120940, Control_c, 0, 64, 80
1, 120954, Control_c, 0, 64, 79
1, 120969, Control_c, 0, 64, 79
1, 120984, Control_c, 0, 64, 78
1, 121014, Control_c, 0, 64, 78
1, 121043, Control_c, 0, 64, 77
1, 121058, Control_c, 0, 64, 76
1, 121073, Control_c, 0, 64, 75
1, 121088, Control_c, 0, 64, 74
1, 121102, Control_c, 0, 64, 72
1, 121117, Control_c, 0, 64, 70
1, 121132, Control_c, 0, 64, 66
1, 121147, Control_c, 0, 64, 60
1, 121152, Note_off_c, 0, 49, 40
1, 121156, Note_on_c, 0, 62, 46
1, 121158, Note_off_c, 0, 61, 53
1, 121161, Control_c, 0, 64, 34
1, 121174, Note_on_c, 0, 50, 31
1, 121176, Control_c, 0, 64, 0
1, 121266, Control_c, 0, 64, 34
1, 121280, Control_c, 0, 64, 54
1, 121295, Control_c, 0, 64, 62
1, 121310, Control_c, 0, 64, 66
1, 121325, Control_c, 0, 64, 69
1, 121340, Control_c, 0, 64, 73
1, 121354, Control_c, 0, 64, 76
1, 121369, Control_c, 0, 64, 78
1, 121384, Control_c, 0, 64, 79
1, 121397, Note_on_c, 0, 66, 47
1, 121399, Control_c, 0, 64, 79
1, 121407, Note_off_c, 0, 62, 32
1, 121445, Note_on_c, 0, 54, 24
1, 121606, Note_off_c, 0, 66, 28
1, 121614, Control_c, 0, 64, 79
1, 121629, Control_c, 0, 64, 78
1, 121632, Note_on_c, 0, 59, 49
1, 121653, Note_on_c, 0, 47, 41
1, 121659, Control_c, 0, 64, 78
1, 121674, Control_c, 0, 64, 77
1, 121689, Note_off_c, 0, 50, 36
1, 121704, Control_c, 0, 64, 77
1, 121719, Control_c, 0, 64, 76
1, 121734, Note_off_c, 0, 54, 28
1, 121748, Control_c, 0, 64, 76
1, 121778, Control_c, 0, 64, 75
1, 121792, Control_c, 0, 64, 75
1, 121807, Control_c, 0, 64, 74
1, 121822, Control_c, 0, 64, 73
1, 121837, Control_c, 0, 64, 72
1, 121852, Control_c, 0, 64, 70
1, 121866, Control_c, 0, 64, 69
1, 121881, Control_c, 0, 64, 68
1, 121890, Note_off_c, 0, 59, 49
1, 121896, Control_c, 0, 64, 67
1, 121903, Note_on_c, 0, 61, 46
1, 121909, Note_off_c, 0, 47, 47
1, 121911, Control_c, 0, 64, 64
1, 121925, Control_c, 0, 64, 58
1, 121933, Note_on_c, 0, 49, 34
1, 121940, Control_c, 0, 64, 37
1, 121955, Control_c, 0, 64, 0
1, 122044, Control_c, 0, 64, 47
1, 122058, Control_c, 0, 64, 58
1, 122073, Control_c, 0, 64, 63
1, 122088, Control_c, 0, 64, 66
1, 122103, Control_c, 0, 64, 69
1, 122118, Control_c, 0, 64, 72
1, 122133, Control_c, 0, 64, 74
1, 122148, Control_c, 0, 64, 77
1, 122163, Control_c, 0, 64, 78
1, 122177, Control_c, 0, 64, 78
1, 122181, Note_on_c, 0, 66, 41
1, 122190, Note_on_c, 0, 54, 33
1, 122192, Control_c, 0, 64, 79
1, 122351, Note_off_c, 0, 66, 35
1, 122422, Control_c, 0, 64, 78
1, 122431, Note_on_c, 0, 57, 50
1, 122439, Note_off_c, 0, 61, 38
1, 122444, Note_on_c, 0, 45, 37
1, 122467, Control_c, 0, 64, 78
1, 122512, Control_c, 0, 64, 77
1, 122556, Control_c, 0, 64, 77
1, 122586, Control_c, 0, 64, 76
1, 122592, Note_off_c, 0, 54, 17
1, 122615, Control_c, 0, 64, 76
1, 122630, Control_c, 0, 64, 75
1, 122660, Control_c, 0, 64, 75
1, 122675, Control_c, 0, 64, 74
1, 122688, Note_off_c, 0, 57, 39
1, 122689, Control_c, 0, 64, 73
1, 122693, Note_off_c, 0, 45, 38
1, 122704, Control_c, 0, 64, 71
1, 122719, Control_c, 0, 64, 70
1, 122731, Note_on_c, 0, 59, 45
1, 122733, Control_c, 0, 64, 68
1, 122748, Control_c, 0, 64, 67
1, 122750, Note_on_c, 0, 47, 37
1, 122763, Control_c, 0, 64, 65
1, 122778, Control_c, 0, 64, 59
1, 122793, Control_c, 0, 64, 41
1, 122807, Control_c, 0, 64, 0
1, 122818, Note_off_c, 0, 49, 21
1, 122911, Control_c, 0, 64, 21
1, 122926, Control_c, 0, 64, 49
1, 122941, Control_c, 0, 64, 59
1, 122956, Control_c, 0, 64, 64
1, 122978, Control_c, 0, 64, 66
1, 122993, Control_c, 0, 64, 68
1, 123007, Control_c, 0, 64, 70
1, 123022, Control_c, 0, 64, 73
1, 123037, Control_c, 0, 64, 75
1, 123052, Control_c, 0, 64, 78
1, 123067, Control_c, 0, 64, 79
1, 123081, Control_c, 0, 64, 80
1, 123091, Note_on_c, 0, 66, 43
1, 123096, Control_c, 0, 64, 81
1, 123105, Note_on_c, 0, 54, 33
1, 123112, Control_c, 0, 64, 82
1, 123127, Control_c, 0, 64, 82
1, 123142, Control_c, 0, 64, 83
1, 123156, Control_c, 0, 64, 83
1, 123186, Control_c, 0, 64, 84
1, 123334, Note_off_c, 0, 66, 29
1, 123356, Note_off_c, 0, 54, 37
1, 123480, Note_on_c, 0, 61, 51
1, 123500, Note_on_c, 0, 49, 34
1, 123516, Note_off_c, 0, 59, 32
1, 123588, Note_off_c, 0, 47, 38
1, 123661, Note_off_c, 0, 49, 37
1, 123994, Control_c, 0, 64, 83
1, 124098, Control_c, 0, 64, 83
1, 124104, Note_off_c, 0, 61, 26
1, 124127, Control_c, 0, 64, 82
1, 124157, Control_c, 0, 64, 82
1, 124187, Control_c, 0, 64, 81
1, 124193, Note_on_c, 0, 69, 50
1, 124202, Control_c, 0, 64, 81
1, 124206, Note_on_c, 0, 57, 40
1, 124217, Control_c, 0, 64, 80
1, 124226, Note_on_c, 0, 33, 36
1, 124232, Control_c, 0, 64, 79
1, 124245, Note_on_c, 0, 45, 38
1, 124246, Control_c, 0, 64, 77
1, 124261, Control_c, 0, 64, 75
1, 124276, Control_c, 0, 64, 72
1, 124291, Control_c, 0, 64, 69
1, 124306, Control_c, 0, 64, 65
1, 124321, Control_c, 0, 64, 59
1, 124335, Control_c, 0, 64, 45
1, 124350, Control_c, 0, 64, 0
1, 124468, Control_c, 0, 64, 43
1, 124491, Control_c, 0, 64, 56
1, 124505, Control_c, 0, 64, 63
1, 124520, Control_c, 0, 64, 65
1, 124535, Control_c, 0, 64, 68
1, 124550, Control_c, 0, 64, 71
1, 124565, Control_c, 0, 64, 74
1, 124579, Control_c, 0, 64, 78
1, 124594, Control_c, 0, 64, 80
1, 124599, Note_off_c, 0, 33, 41
1, 124609, Control_c, 0, 64, 81
1, 124624, Control_c, 0, 64, 82
1, 124626, Note_off_c, 0, 45, 37
1, 124639, Control_c, 0, 64, 82
1, 124799, Note_on_c, 0, 40, 35
1, 125010, Control_c, 0, 64, 82
1, 125054, Control_c, 0, 64, 81
1, 125055, Note_on_c, 0, 45, 35
1, 125063, Note_on_c, 0, 33, 31
1, 125069, Control_c, 0, 64, 81
1, 125090, Note_off_c, 0, 40, 35
1, 125275, Note_off_c, 0, 33, 45
1, 125279, Note_off_c, 0, 45, 42
1, 125457, Note_on_c, 0, 40, 41
1, 125659, Poly_aftertouch_c, 0, 61, 127
1, 125671, Note_off_c, 0, 40, 42
1, 125710, Note_on_c, 0, 45, 43
1, 125822, Note_off_c, 0, 45, 60
1, 126063, Control_c, 0, 64, 80
1, 126122, Control_c, 0, 64, 80
1, 126130, Note_on_c, 0, 40, 28
1, 126151, Note_on_c, 0, 52, 42
1, 126181, Control_c, 0, 64, 79
1, 126241, Control_c, 0, 64, 79
1, 126285, Control_c, 0, 64, 78
1, 126346, Note_off_c, 0, 52, 53
1, 126365, Note_on_c, 0, 45, 42
1, 126365, Note_off_c, 0, 40, 39
1, 126449, Control_c, 0, 64, 79
1, 126464, Control_c, 0, 64, 79
1, 126479, Control_c, 0, 64, 80
1, 126494, Control_c, 0, 64, 80
1, 126509, Control_c, 0, 64, 81
1, 126538, Control_c, 0, 64, 81
1, 126590, Note_off_c, 0, 45, 35
1, 126687, Poly_aftertouch_c, 0, 61, 0
1, 126767, Control_c, 0, 64, 81
1, 126811, Control_c, 0, 64, 80
1, 126818, Note_on_c, 0, 40, 32
1, 126822, Note_on_c, 0, 52, 33
1, 126855, Control_c, 0, 64, 80
1, 126885, Control_c, 0, 64, 79
1, 126914, Control_c, 0, 64, 79
1, 126944, Control_c, 0, 64, 78
1, 127019, Control_c, 0, 64, 78
1, 127048, Control_c, 0, 64, 77
1, 127063, Note_off_c, 0, 40, 36
1, 127063, Control_c, 0, 64, 77
1, 127093, Control_c, 0, 64, 76
1, 127108, Control_c, 0, 64, 76
1, 127123, Control_c, 0, 64, 75
1, 127138, Control_c, 0, 64, 75
1, 127139, Note_on_c, 0, 45, 35
1, 127139, Note_on_c, 0, 61, 38
1, 127153, Control_c, 0, 64, 74
1, 127168, Control_c, 0, 64, 72
1, 127180, Note_off_c, 0, 52, 40
1, 127183, Control_c, 0, 64, 70
1, 127197, Control_c, 0, 64, 68
1, 127212, Control_c, 0, 64, 66
1, 127227, Control_c, 0, 64, 64
1, 127242, Control_c, 0, 64, 59
1, 127257, Control_c, 0, 64, 50
1, 127271, Control_c, 0, 64, 39
1, 127284, Note_off_c, 0, 57, 36
1, 127286, Control_c, 0, 64, 31
1, 127301, Control_c, 0, 64, 30
1, 127316, Control_c, 0, 64, 33
1, 127330, Control_c, 0, 64, 39
1, 127345, Control_c, 0, 64, 47
1, 127360, Control_c, 0, 64, 56
1, 127375, Control_c, 0, 64, 62
1, 127390, Control_c, 0, 64, 65
1, 127404, Control_c, 0, 64, 67
1, 127419, Control_c, 0, 64, 71
1, 127434, Control_c, 0, 64, 75
1, 127449, Control_c, 0, 64, 79
1, 127471, Control_c, 0, 64, 82
1, 127472, Note_on_c, 0, 64, 38
1, 127486, Control_c, 0, 64, 84
1, 127501, Control_c, 0, 64, 86
1, 127516, Control_c, 0, 64, 88
1, 127530, Control_c, 0, 64, 90
1, 127545, Control_c, 0, 64, 91
1, 127560, Control_c, 0, 64, 92
1, 127575, Control_c, 0, 64, 92
1, 127590, Control_c, 0, 64, 93
1, 127666, Note_off_c, 0, 64, 35
1, 127676, Note_off_c, 0, 61, 13
1, 127691, Note_on_c, 0, 59, 42
1, 127695, Note_off_c, 0, 45, 38
1, 127708, Control_c, 0, 64, 93
1, 127711, Note_on_c, 0, 52, 26
1, 127717, Note_on_c, 0, 40, 21
1, 127916, Note_on_c, 0, 61, 45
1, 127952, Note_on_c, 0, 45, 32
1, 127960, Note_off_c, 0, 52, 36
1, 127989, Note_off_c, 0, 40, 29
1, 128058, Note_off_c, 0, 59, 26
1, 128119, Note_on_c, 0, 64, 49
1, 128182, Note_off_c, 0, 61, 30
1, 128276, Note_off_c, 0, 64, 57
1, 128315, Note_on_c, 0, 59, 48
1, 128319, Note_off_c, 0, 45, 42
1, 128330, Note_on_c, 0, 52, 40
1, 128350, Note_on_c, 0, 40, 29
1, 128522, Note_on_c, 0, 61, 57
1, 128545, Note_on_c, 0, 45, 41
1, 128552, Note_off_c, 0, 40, 38
1, 128560, Note_off_c, 0, 52, 34
1, 128578, Note_off_c, 0, 69, 31
1, 128670, Note_off_c, 0, 59, 38
1, 128730, Note_on_c, 0, 66, 55
1, 128745, Note_on_c, 0, 64, 43
1, 128917, Note_on_c, 0, 68, 62
1, 128932, Note_off_c, 0, 64, 32
1, 128935, Note_off_c, 0, 45, 42
1, 128938, Note_on_c, 0, 59, 43
1, 128956, Note_on_c, 0, 40, 38
1, 128962, Note_on_c, 0, 52, 37
1, 128977, Note_off_c, 0, 61, 31
1, 129027, Note_off_c, 0, 68, 57
1, 129031, Note_off_c, 0, 66, 26
1, 129126, Note_on_c, 0, 69, 61
1, 129156, Note_on_c, 0, 45, 42
1, 129168, Note_off_c, 0, 40, 38
1, 129183, Note_off_c, 0, 52, 33
1, 129228, Note_on_c, 0, 61, 8
1, 129260, Note_off_c, 0, 69, 52
1, 129272, Note_off_c, 0, 59, 37
1, 129302, Note_on_c, 0, 66, 65
1, 129397, Poly_aftertouch_c, 0, 64, 127
1, 129428, Poly_aftertouch_c, 0, 64, 0
1, 129458, Note_off_c, 0, 61, 39
1, 129466, Note_on_c, 0, 68, 75
1, 129475, Note_off_c, 0, 66, 61
1, 129491, Note_on_c, 0, 59, 40
1, 129516, Note_off_c, 0, 59, 56
1, 129516, Note_off_c, 0, 68, 60
1, 129523, Note_off_c, 0, 45, 41
1, 129527, Note_on_c, 0, 52, 34
1, 129540, Note_on_c, 0, 40, 27
1, 129642, Note_on_c, 0, 71, 54
1, 129678, Note_on_c, 0, 70, 45
1, 129679, Note_off_c, 0, 70, 127
1, 129681, Control_c, 0, 64, 93
1, 129694, Note_on_c, 0, 69, 73
1, 129696, Control_c, 0, 64, 92
1, 129702, Note_off_c, 0, 71, 61
1, 129709, Note_on_c, 0, 61, 54
1, 129711, Control_c, 0, 64, 89
1, 129720, Note_on_c, 0, 45, 37
1, 129733, Control_c, 0, 64, 84
1, 129748, Control_c, 0, 64, 78
1, 129757, Note_off_c, 0, 40, 30
1, 129763, Control_c, 0, 64, 69
1, 129773, Note_off_c, 0, 52, 34
1, 129778, Control_c, 0, 64, 47
1, 129793, Control_c, 0, 64, 0
1, 129867, Control_c, 0, 64, 32
1, 129881, Control_c, 0, 64, 59
1, 129896, Control_c, 0, 64, 67
1, 129911, Control_c, 0, 64, 73
1, 129925, Control_c, 0, 64, 81
1, 129932, Note_on_c, 0, 64, 57
1, 129940, Control_c, 0, 64, 88
1, 129942, Note_off_c, 0, 61, 61
1, 129955, Control_c, 0, 64, 92
1, 129970, Control_c, 0, 64, 95
1, 129985, Control_c, 0, 64, 96
1, 130000, Control_c, 0, 64, 97
1, 130014, Control_c, 0, 64, 97
1, 130092, Note_off_c, 0, 64, 37
1, 130108, Note_on_c, 0, 68, 74
1, 130110, Note_off_c, 0, 69, 35
1, 130114, Note_on_c, 0, 59, 59
1, 130139, Note_off_c, 0, 59, 57
1, 130145, Note_off_c, 0, 45, 42
1, 130158, Note_on_c, 0, 52, 34
1, 130158, Note_on_c, 0, 40, 28
1, 130324, Note_on_c, 0, 69, 76
1, 130353, Note_on_c, 0, 45, 40
1, 130356, Note_on_c, 0, 61, 49
1, 130368, Note_off_c, 0, 52, 41
1, 130387, Note_off_c, 0, 68, 61
1, 130511, Note_off_c, 0, 40, 26
1, 130545, Note_on_c, 0, 68, 66
1, 130674, Control_c, 0, 64, 97
1, 130718, Control_c, 0, 64, 96
1, 130727, Note_on_c, 0, 71, 74
1, 130742, Note_on_c, 0, 66, 64
1, 130745, Note_off_c, 0, 45, 52
1, 130746, Note_off_c, 0, 68, 52
1, 130758, Note_off_c, 0, 69, 48
1, 130762, Note_on_c, 0, 52, 40
1, 130763, Control_c, 0, 64, 96
1, 130780, Note_on_c, 0, 40, 28
1, 130792, Control_c, 0, 64, 95
1, 130807, Control_c, 0, 64, 95
1, 130821, Note_off_c, 0, 66, 63
1, 130822, Control_c, 0, 64, 94
1, 130823, Note_off_c, 0, 71, 59
1, 130852, Control_c, 0, 64, 94
1, 130911, Control_c, 0, 64, 93
1, 130985, Control_c, 0, 64, 93
1, 131014, Control_c, 0, 64, 92
1, 131024, Note_on_c, 0, 73, 68
1, 131029, Control_c, 0, 64, 91
1, 131044, Control_c, 0, 64, 90
1, 131045, Note_on_c, 0, 64, 56
1, 131051, Note_on_c, 0, 45, 40
1, 131059, Control_c, 0, 64, 88
1, 131066, Note_off_c, 0, 40, 37
1, 131072, Note_off_c, 0, 61, 38
1, 131074, Control_c, 0, 64, 86
1, 131090, Control_c, 0, 64, 82
1, 131100, Note_off_c, 0, 52, 32
1, 131105, Control_c, 0, 64, 76
1, 131119, Control_c, 0, 64, 70
1, 131134, Control_c, 0, 64, 59
1, 131149, Control_c, 0, 64, 0
1, 131275, Control_c, 0, 64, 59
1, 131290, Control_c, 0, 64, 66
1, 131299, Note_on_c, 0, 69, 48
1, 131305, Control_c, 0, 64, 71
1, 131319, Control_c, 0, 64, 75
1, 131334, Control_c, 0, 64, 80
1, 131343, Note_off_c, 0, 64, 55
1, 131349, Control_c, 0, 64, 83
1, 131363, Control_c, 0, 64, 86
1, 131378, Control_c, 0, 64, 88
1, 131383, Note_off_c, 0, 73, 33
1, 131393, Control_c, 0, 64, 90
1, 131408, Control_c, 0, 64, 91
1, 131423, Control_c, 0, 64, 92
1, 131437, Control_c, 0, 64, 92
1, 131437, Control_c, 0, 67, 123
1, 131452, Control_c, 0, 64, 93
1, 131452, Control_c, 0, 67, 115
1, 131467, Control_c, 0, 67, 107
1, 131482, Control_c, 0, 67, 102
1, 131497, Control_c, 0, 67, 101
1, 131501, Note_off_c, 0, 45, 41
1, 131515, Note_on_c, 0, 61, 52
1, 131523, Note_on_c, 0, 40, 37
1, 131543, Note_on_c, 0, 52, 31
1, 131556, Control_c, 0, 67, 101
1, 131570, Control_c, 0, 67, 102
1, 131585, Control_c, 0, 67, 103
1, 131600, Control_c, 0, 67, 103
1, 131615, Control_c, 0, 67, 104
1, 131630, Control_c, 0, 67, 105
1, 131645, Control_c, 0, 67, 105
1, 131660, Control_c, 0, 67, 106
1, 131675, Control_c, 0, 67, 108
1, 131689, Control_c, 0, 67, 108
1, 131704, Control_c, 0, 67, 109
1, 131712, Note_on_c, 0, 73, 75
1, 131719, Control_c, 0, 67, 109
1, 131734, Control_c, 0, 67, 110
1, 131740, Note_on_c, 0, 45, 39
1, 131742, Note_on_c, 0, 63, 52
1, 131749, Control_c, 0, 67, 109
1, 131761, Note_off_c, 0, 40, 40
1, 131763, Control_c, 0, 67, 109
1, 131778, Control_c, 0, 67, 108
1, 131793, Control_c, 0, 67, 107
1, 131803, Note_off_c, 0, 69, 40
1, 131808, Control_c, 0, 67, 106
1, 131833, Note_off_c, 0, 52, 43
1, 131837, Control_c, 0, 67, 105
1, 131852, Control_c, 0, 67, 105
1, 131867, Control_c, 0, 67, 104
1, 131882, Control_c, 0, 67, 102
1, 131898, Control_c, 0, 67, 101
1, 131913, Control_c, 0, 67, 99
1, 131928, Control_c, 0, 67, 93
1, 131942, Control_c, 0, 67, 84
1, 131948, Note_off_c, 0, 61, 31
1, 131964, Control_c, 0, 67, 75
1, 131979, Control_c, 0, 67, 70
1, 131989, Note_on_c, 0, 67, 55
1, 131993, Control_c, 0, 67, 67
1, 132008, Control_c, 0, 67, 65
1, 132023, Control_c, 0, 67, 63
1, 132038, Control_c, 0, 67, 59
1, 132053, Control_c, 0, 67, 54
1, 132056, Note_off_c, 0, 45, 37
1, 132067, Control_c, 0, 67, 45
1, 132082, Control_c, 0, 67, 37
1, 132097, Control_c, 0, 67, 29
1, 132111, Control_c, 0, 67, 27
1, 132156, Control_c, 0, 67, 28
1, 132171, Control_c, 0, 67, 29
1, 132185, Control_c, 0, 67, 30
1, 132200, Control_c, 0, 67, 31
1, 132215, Control_c, 0, 67, 32
1, 132226, Note_off_c, 0, 73, 24
1, 132230, Control_c, 0, 64, 92
1, 132230, Control_c, 0, 67, 34
1, 132245, Control_c, 0, 67, 36
1, 132253, Note_on_c, 0, 61, 49
1, 132259, Note_on_c, 0, 39, 25
1, 132259, Note_on_c, 0, 51, 29
1, 132259, Control_c, 0, 67, 38
1, 132262, Note_off_c, 0, 63, 43
1, 132274, Control_c, 0, 64, 92
1, 132274, Control_c, 0, 67, 41
1, 132289, Control_c, 0, 67, 47
1, 132304, Control_c, 0, 67, 55
1, 132319, Control_c, 0, 64, 91
1, 132319, Control_c, 0, 67, 62
1, 132334, Control_c, 0, 67, 69
1, 132349, Control_c, 0, 67, 74
1, 132363, Control_c, 0, 64, 91
1, 132363, Control_c, 0, 67, 80
1, 132378, Control_c, 0, 67, 85
1, 132393, Control_c, 0, 64, 90
1, 132393, Control_c, 0, 67, 89
1, 132408, Control_c, 0, 67, 91
1, 132438, Control_c, 0, 64, 90
1, 132482, Control_c, 0, 64, 89
1, 132510, Note_on_c, 0, 44, 41
1, 132511, Control_c, 0, 64, 89
1, 132526, Control_c, 0, 64, 88
1, 132541, Control_c, 0, 64, 88
1, 132549, Note_off_c, 0, 39, 28
1, 132556, Control_c, 0, 64, 87
1, 132569, Note_off_c, 0, 51, 32
1, 132571, Control_c, 0, 64, 87
1, 132585, Control_c, 0, 64, 86
1, 132600, Control_c, 0, 64, 86
1, 132600, Control_c, 0, 67, 90
1, 132615, Control_c, 0, 64, 85
1, 132630, Control_c, 0, 64, 84
1, 132645, Control_c, 0, 64, 83
1, 132647, Note_on_c, 0, 73, 70
1, 132659, Control_c, 0, 64, 81
1, 132670, Note_on_c, 0, 63, 48
1, 132674, Control_c, 0, 64, 80
1, 132690, Control_c, 0, 64, 78
1, 132705, Control_c, 0, 64, 76
1, 132727, Control_c, 0, 64, 72
1, 132730, Note_off_c, 0, 63, 0
1, 132730, Note_on_c, 0, 63, 19
1, 132739, Note_off_c, 0, 61, 33
1, 132742, Control_c, 0, 64, 67
1, 132757, Control_c, 0, 64, 60
1, 132772, Control_c, 0, 64, 38
1, 132787, Control_c, 0, 64, 0
1, 132822, Note_off_c, 0, 67, 29
1, 132831, Control_c, 0, 67, 90
1, 132905, Control_c, 0, 67, 89
1, 132935, Control_c, 0, 67, 89
1, 132949, Control_c, 0, 64, 47
1, 132964, Control_c, 0, 64, 60
1, 132964, Control_c, 0, 67, 88
1, 132979, Control_c, 0, 64, 65
1, 132979, Control_c, 0, 67, 88
1, 132994, Control_c, 0, 64, 68
1, 133009, Control_c, 0, 64, 71
1, 133023, Control_c, 0, 64, 75
1, 133023, Control_c, 0, 67, 87
1, 133038, Control_c, 0, 64, 79
1, 133050, Note_on_c, 0, 68, 48
1, 133053, Control_c, 0, 64, 82
1, 133053, Control_c, 0, 67, 87
1, 133068, Control_c, 0, 64, 84
1, 133082, Control_c, 0, 64, 86
1, 133097, Control_c, 0, 64, 88
1, 133097, Control_c, 0, 67, 86
1, 133112, Control_c, 0, 64, 90
1, 133127, Note_off_c, 0, 73, 48
1, 133127, Control_c, 0, 64, 91
1, 133141, Control_c, 0, 64, 92
1, 133156, Control_c, 0, 64, 92
1, 133186, Control_c, 0, 67, 86
1, 133267, Note_off_c, 0, 44, 41
1, 133274, Note_on_c, 0, 61, 51
1, 133275, Note_off_c, 0, 63, 42
1, 133296, Note_on_c, 0, 39, 24
1, 133300, Note_on_c, 0, 51, 25
1, 133320, Control_c, 0, 67, 85
1, 133379, Control_c, 0, 67, 85
1, 133384, Note_off_c, 0, 68, 20
1, 133408, Control_c, 0, 67, 84
1, 133438, Control_c, 0, 67, 84
1, 133453, Control_c, 0, 67, 83
1, 133491, Control_c, 0, 67, 83
1, 133499, Note_on_c, 0, 63, 47
1, 133511, Note_on_c, 0, 44, 41
1, 133518, Note_off_c, 0, 39, 34
1, 133520, Control_c, 0, 67, 82
1, 133543, Note_off_c, 0, 51, 34
1, 133580, Control_c, 0, 67, 82
1, 133609, Control_c, 0, 67, 81
1, 133624, Control_c, 0, 64, 93
1, 133646, Note_off_c, 0, 61, 18
1, 133654, Control_c, 0, 67, 81
1, 133669, Control_c, 0, 67, 80
1, 133684, Control_c, 0, 67, 80
1, 133699, Control_c, 0, 67, 79
1, 133706, Note_on_c, 0, 72, 59
1, 133713, Control_c, 0, 67, 78
1, 133715, Note_off_c, 0, 63, 58
1, 133728, Control_c, 0, 67, 79
1, 133732, Note_on_c, 0, 68, 52
1, 133802, Control_c, 0, 67, 79
1, 133812, Note_off_c, 0, 72, 58
1, 133844, Note_off_c, 0, 68, 60
1, 133885, Note_on_c, 0, 61, 60
1, 133913, Note_on_c, 0, 51, 27
1, 133917, Note_off_c, 0, 44, 40
1, 133946, Note_on_c, 0, 39, 20
1, 133952, Note_off_c, 0, 61, 49
1, 133964, Control_c, 0, 67, 79
1, 133977, Note_on_c, 0, 68, 69
1, 134009, Control_c, 0, 67, 78
1, 134024, Control_c, 0, 67, 78
1, 134032, Note_off_c, 0, 68, 54
1, 134054, Control_c, 0, 67, 77
1, 134083, Control_c, 0, 67, 77
1, 134098, Control_c, 0, 67, 74
1, 134113, Control_c, 0, 67, 70
1, 134128, Control_c, 0, 67, 67
1, 134143, Control_c, 0, 67, 64
1, 134156, Note_on_c, 0, 68, 63
1, 134157, Control_c, 0, 67, 63
1, 134165, Note_off_c, 0, 39, 34
1, 134166, Note_on_c, 0, 44, 34
1, 134170, Note_on_c, 0, 61, 60
1, 134172, Control_c, 0, 67, 62
1, 134187, Control_c, 0, 67, 62
1, 134190, Note_off_c, 0, 51, 33
1, 134209, Control_c, 0, 67, 61
1, 134224, Control_c, 0, 67, 59
1, 134238, Control_c, 0, 67, 58
1, 134253, Control_c, 0, 67, 56
1, 134268, Control_c, 0, 67, 54
1, 134283, Control_c, 0, 67, 52
1, 134299, Control_c, 0, 64, 93
1, 134299, Control_c, 0, 67, 48
1, 134314, Control_c, 0, 67, 43
1, 134329, Control_c, 0, 64, 94
1, 134329, Control_c, 0, 67, 39
1, 134343, Control_c, 0, 64, 94
1, 134343, Control_c, 0, 67, 36
1, 134358, Control_c, 0, 64, 95
1, 134358, Control_c, 0, 67, 32
1, 134373, Control_c, 0, 64, 95
1, 134373, Control_c, 0, 67, 29
1, 134387, Control_c, 0, 64, 96
1, 134387, Control_c, 0, 67, 26
1, 134402, Control_c, 0, 64, 96
1, 134402, Control_c, 0, 67, 24
1, 134417, Note_on_c, 0, 60, 63
1, 134417, Control_c, 0, 64, 97
1, 134417, Control_c, 0, 67, 24
1, 134426, Note_off_c, 0, 61, 59
1, 134432, Control_c, 0, 64, 98
1, 134447, Control_c, 0, 64, 99
1, 134462, Control_c, 0, 64, 100
1, 134477, Control_c, 0, 64, 101
1, 134492, Control_c, 0, 67, 24
1, 134507, Control_c, 0, 64, 102
1, 134507, Control_c, 0, 67, 25
1, 134521, Control_c, 0, 67, 26
1, 134536, Control_c, 0, 67, 27
1, 134551, Control_c, 0, 67, 27
1, 134566, Control_c, 0, 67, 28
1, 134581, Control_c, 0, 67, 29
1, 134595, Control_c, 0, 67, 30
1, 134609, Note_off_c, 0, 44, 41
1, 134610, Control_c, 0, 67, 31
1, 134625, Control_c, 0, 67, 32
1, 134633, Note_on_c, 0, 39, 25
1, 134640, Control_c, 0, 67, 33
1, 134644, Note_on_c, 0, 51, 21
1, 134649, Note_off_c, 0, 60, 53
1, 134655, Control_c, 0, 67, 34
1, 134656, Note_off_c, 0, 68, 32
1, 134669, Control_c, 0, 67, 35
1, 134684, Control_c, 0, 67, 38
1, 134690, Note_on_c, 0, 56, 58
1, 134699, Control_c, 0, 67, 48
1, 134713, Control_c, 0, 67, 59
1, 134726, Note_off_c, 0, 56, 59
1, 134728, Control_c, 0, 67, 69
1, 134743, Control_c, 0, 67, 78
1, 134758, Control_c, 0, 67, 84
1, 134773, Control_c, 0, 67, 89
1, 134787, Control_c, 0, 67, 92
1, 134802, Control_c, 0, 67, 94
1, 134817, Control_c, 0, 67, 95
1, 134827, Note_off_c, 0, 51, 37
1, 134831, Note_off_c, 0, 39, 37
1, 134832, Control_c, 0, 67, 96
1, 134841, Note_on_c, 0, 56, 52
1, 134847, Note_on_c, 0, 44, 35
1, 134847, Control_c, 0, 67, 97
1, 134861, Control_c, 0, 67, 97
1, 134876, Control_c, 0, 67, 98
1, 134891, Control_c, 0, 67, 100
1, 134906, Control_c, 0, 67, 101
1, 134921, Control_c, 0, 67, 101
1, 134973, Control_c, 0, 67, 102
1, 134987, Control_c, 0, 67, 107
1, 135002, Control_c, 0, 67, 120
1, 135017, Control_c, 0, 67, 127
1, 135019, Note_off_c, 0, 56, 39
1, 135067, Note_on_c, 0, 63, 50
1, 135255, Control_c, 0, 64, 101
1, 135285, Control_c, 0, 64, 101
1, 135293, Note_on_c, 0, 58, 57
1, 135300, Note_on_c, 0, 51, 26
1, 135300, Control_c, 0, 64, 100
1, 135307, Note_on_c, 0, 39, 41
1, 135315, Control_c, 0, 64, 100
1, 135324, Note_off_c, 0, 63, 31
1, 135335, Note_off_c, 0, 58, 63
1, 135338, Note_off_c, 0, 44, 41
1, 135338, Note_off_c, 0, 51, 40
1, 135344, Control_c, 0, 64, 99
1, 135356, Note_off_c, 0, 39, 60
1, 135359, Control_c, 0, 64, 99
1, 135374, Control_c, 0, 64, 98
1, 135389, Control_c, 0, 64, 97
1, 135404, Control_c, 0, 64, 96
1, 135418, Control_c, 0, 64, 96
1, 135448, Control_c, 0, 64, 95
1, 135463, Control_c, 0, 64, 95
1, 135478, Control_c, 0, 64, 94
1, 135492, Control_c, 0, 64, 93
1, 135507, Control_c, 0, 64, 91
1, 135522, Control_c, 0, 64, 89
1, 135536, Control_c, 0, 64, 86
1, 135550, Note_on_c, 0, 32, 42
1, 135551, Control_c, 0, 64, 81
1, 135559, Note_on_c, 0, 44, 41
1, 135566, Control_c, 0, 64, 73
1, 135581, Control_c, 0, 64, 64
1, 135596, Control_c, 0, 64, 0
1, 135618, Note_on_c, 0, 60, 53
1, 135654, Control_c, 0, 64, 57
1, 135669, Control_c, 0, 64, 65
1, 135684, Control_c, 0, 64, 70
1, 135686, Note_off_c, 0, 60, 55
1, 135695, Note_on_c, 0, 63, 60
1, 135699, Control_c, 0, 64, 77
1, 135720, Note_off_c, 0, 32, 54
1, 135722, Control_c, 0, 64, 82
1, 135737, Control_c, 0, 64, 86
1, 135740, Note_off_c, 0, 44, 62
1, 135752, Control_c, 0, 64, 88
1, 135767, Control_c, 0, 64, 89
1, 135768, Note_off_c, 0, 63, 63
1, 135782, Control_c, 0, 64, 91
1, 135786, Note_on_c, 0, 68, 63
1, 135797, Control_c, 0, 64, 91
1, 135811, Control_c, 0, 64, 92
1, 135814, Note_off_c, 0, 68, 65
1, 135856, Control_c, 0, 64, 92
1, 135885, Note_on_c, 0, 72, 65
1, 135935, Note_off_c, 0, 72, 52
1, 135962, Note_on_c, 0, 75, 56
1, 135975, Control_c, 0, 64, 93
1, 135978, Note_on_c, 0, 39, 39
1, 135978, Note_on_c, 0, 51, 33
1, 136020, Control_c, 0, 64, 93
1, 136034, Control_c, 0, 64, 94
1, 136038, Note_off_c, 0, 75, 63
1, 136049, Control_c, 0, 64, 94
1, 136064, Control_c, 0, 64, 95
1, 136094, Control_c, 0, 64, 95
1, 136153, Note_on_c, 0, 80, 59
1, 136176, Note_off_c, 0, 80, 60
1, 136310, Note_off_c, 0, 39, 25
1, 136326, Note_on_c, 0, 92, 65
1, 136347, Note_on_c, 0, 44, 31
1, 136375, Control_c, 0, 67, 124
1, 136388, Note_off_c, 0, 92, 61
1, 136390, Control_c, 0, 67, 119
1, 136405, Control_c, 0, 67, 114
1, 136420, Control_c, 0, 64, 96
1, 136420, Control_c, 0, 67, 109
1, 136434, Control_c, 0, 64, 96
1, 136434, Control_c, 0, 67, 105
1, 136449, Control_c, 0, 64, 97
1, 136449, Control_c, 0, 67, 102
1, 136471, Control_c, 0, 64, 98
1, 136471, Control_c, 0, 67, 102
1, 136486, Control_c, 0, 64, 99
1, 136501, Control_c, 0, 64, 100
1, 136501, Note_off_c, 0, 51, 32
1, 136516, Control_c, 0, 64, 100
1, 136531, Control_c, 0, 64, 101
1, 136546, Control_c, 0, 67, 101
1, 136575, Control_c, 0, 64, 101
1, 136716, Note_on_c, 0, 63, 48
1, 136739, Control_c, 0, 64, 102
1, 136769, Control_c, 0, 64, 103
1, 136783, Control_c, 0, 64, 103
1, 136798, Control_c, 0, 64, 104
1, 136813, Control_c, 0, 64, 104
1, 136813, Control_c, 0, 67, 101
1, 136828, Control_c, 0, 64, 105
1, 136828, Control_c, 0, 67, 100
1, 136843, Control_c, 0, 64, 106
1, 136843, Control_c, 0, 67, 100
1, 136857, Control_c, 0, 64, 107
1, 136857, Control_c, 0, 67, 96
1, 136872, Control_c, 0, 64, 107
1, 136872, Control_c, 0, 67, 89
1, 136887, Control_c, 0, 64, 108
1, 136887, Control_c, 0, 67, 82
1, 136901, Control_c, 0, 64, 109
1, 136901, Control_c, 0, 67, 75
1, 136906, Note_off_c, 0, 63, 58
1, 136912, Note_off_c, 0, 44, 39
1, 136916, Control_c, 0, 64, 110
1, 136916, Control_c, 0, 67, 68
1, 136923, Note_on_c, 0, 58, 49
1, 136924, Note_on_c, 0, 39, 26
1, 136930, Note_on_c, 0, 51, 37
1, 136931, Control_c, 0, 64, 111
1, 136931, Control_c, 0, 67, 66
1, 136946, Control_c, 0, 64, 113
1, 136946, Control_c, 0, 67, 65
1, 136961, Control_c, 0, 64, 115
1, 136975, Control_c, 0, 64, 116
1, 136975, Control_c, 0, 67, 64
1, 136990, Control_c, 0, 64, 117
1, 137005, Control_c, 0, 64, 119
1, 137005, Control_c, 0, 67, 64
1, 137020, Control_c, 0, 64, 120
1, 137035, Control_c, 0, 64, 123
1, 137035, Control_c, 0, 67, 63
1, 137049, Control_c, 0, 64, 127
1, 137049, Control_c, 0, 67, 61
1, 137064, Control_c, 0, 64, 127
1, 137064, Control_c, 0, 67, 58
1, 137079, Control_c, 0, 67, 54
1, 137094, Control_c, 0, 67, 48
1, 137109, Control_c, 0, 67, 42
1, 137124, Control_c, 0, 67, 32
1, 137139, Control_c, 0, 67, 22
1, 137142, Note_on_c, 0, 60, 62
1, 137148, Note_off_c, 0, 58, 55
1, 137154, Control_c, 0, 67, 11
1, 137158, Note_on_c, 0, 44, 40
1, 137163, Note_off_c, 0, 39, 36
1, 137169, Control_c, 0, 67, 0
1, 137359, Note_off_c, 0, 51, 16
1, 137365, Note_on_c, 0, 63, 62
1, 137459, Note_off_c, 0, 60, 30
1, 137557, Note_on_c, 0, 58, 58
1, 137579, Note_off_c, 0, 44, 40
1, 137588, Note_on_c, 0, 51, 38
1, 137601, Note_on_c, 0, 39, 30
1, 137764, Note_on_c, 0, 60, 67
1, 137768, Note_off_c, 0, 39, 41
1, 137782, Note_on_c, 0, 44, 46
1, 137807, Note_off_c, 0, 51, 32
1, 137833, Note_off_c, 0, 63, 11
1, 137971, Note_on_c, 0, 63, 73
1, 137977, Note_off_c, 0, 58, 21
1, 138167, Note_on_c, 0, 58, 68
1, 138173, Note_off_c, 0, 60, 17
1, 138181, Note_on_c, 0, 51, 36
1, 138182, Note_on_c, 0, 39, 43
1, 138201, Note_off_c, 0, 44, 40
1, 138216, Note_off_c, 0, 51, 43
1, 138235, Note_off_c, 0, 39, 57
1, 138399, Control_c, 0, 64, 126
1, 138414, Control_c, 0, 64, 123
1, 138428, Control_c, 0, 64, 119
1, 138443, Control_c, 0, 64, 116
1, 138449, Note_on_c, 0, 32, 44
1, 138451, Note_on_c, 0, 44, 39
1, 138458, Control_c, 0, 64, 113
1, 138473, Control_c, 0, 64, 109
1, 138488, Control_c, 0, 64, 105
1, 138502, Control_c, 0, 64, 100
1, 138516, Note_off_c, 0, 58, 38
1, 138517, Control_c, 0, 64, 94
1, 138526, Note_on_c, 0, 68, 73
1, 138532, Control_c, 0, 64, 87
1, 138538, Note_on_c, 0, 60, 56
1, 138546, Control_c, 0, 64, 79
1, 138561, Control_c, 0, 64, 70
1, 138576, Control_c, 0, 64, 54
1, 138578, Note_off_c, 0, 63, 39
1, 138591, Control_c, 0, 64, 0
1, 138733, Control_c, 0, 64, 58
1, 138748, Control_c, 0, 64, 67
1, 138762, Control_c, 0, 64, 74
1, 138777, Control_c, 0, 64, 81
1, 138792, Control_c, 0, 64, 87
1, 138807, Control_c, 0, 64, 93
1, 138822, Control_c, 0, 64, 98
1, 138836, Control_c, 0, 64, 103
1, 138851, Control_c, 0, 64, 107
1, 138866, Control_c, 0, 64, 111
1, 138869, Note_off_c, 0, 32, 40
1, 138877, Note_off_c, 0, 44, 59
1, 138880, Control_c, 0, 64, 113
1, 138895, Control_c, 0, 64, 114
1, 138910, Control_c, 0, 64, 115
1, 138915, Note_on_c, 0, 63, 45
1, 138925, Control_c, 0, 64, 116
1, 139121, Note_off_c, 0, 60, 22
1, 139135, Note_on_c, 0, 58, 41
1, 139163, Note_on_c, 0, 39, 29
1, 139172, Note_on_c, 0, 51, 28
1, 139216, Note_off_c, 0, 63, 27
1, 139374, Note_on_c, 0, 60, 44
1, 139380, Note_on_c, 0, 44, 39
1, 139381, Note_off_c, 0, 58, 30
1, 139395, Note_off_c, 0, 39, 31
1, 139428, Note_off_c, 0, 51, 35
1, 139541, Control_c, 0, 64, 115
1, 139568, Note_off_c, 0, 68, 37
1, 139598, Note_on_c, 0, 65, 64
1, 139612, Note_on_c, 0, 63, 33
1, 139630, Control_c, 0, 64, 115
1, 139659, Control_c, 0, 64, 114
1, 139805, Note_on_c, 0, 67, 54
1, 139821, Note_on_c, 0, 58, 45
1, 139829, Note_on_c, 0, 51, 31
1, 139829, Note_off_c, 0, 44, 41
1, 139832, Note_on_c, 0, 39, 35
1, 139832, Note_off_c, 0, 63, 37
1, 139837, Note_off_c, 0, 60, 18
1, 139867, Note_off_c, 0, 67, 59
1, 139896, Note_off_c, 0, 65, 23
1, 140009, Note_on_c, 0, 68, 64
1, 140019, Note_on_c, 0, 44, 44
1, 140025, Note_on_c, 0, 60, 35
1, 140058, Note_off_c, 0, 39, 32
1, 140093, Note_off_c, 0, 58, 34
1, 140099, Note_off_c, 0, 51, 23
1, 140149, Control_c, 0, 64, 115
1, 140163, Note_off_c, 0, 68, 48
1, 140164, Control_c, 0, 64, 116
1, 140179, Control_c, 0, 64, 118
1, 140194, Control_c, 0, 64, 120
1, 140204, Note_on_c, 0, 65, 61
1, 140215, Control_c, 0, 64, 122
1, 140218, Note_on_c, 0, 63, 42
1, 140230, Control_c, 0, 64, 124
1, 140245, Control_c, 0, 64, 125
1, 140260, Control_c, 0, 64, 126
1, 140275, Control_c, 0, 64, 126
1, 140290, Control_c, 0, 64, 127
1, 140305, Control_c, 0, 64, 127
1, 140394, Note_on_c, 0, 67, 70
1, 140409, Note_on_c, 0, 39, 45
1, 140416, Note_on_c, 0, 51, 39
1, 140417, Note_off_c, 0, 44, 40
1, 140418, Note_on_c, 0, 58, 45
1, 140427, Note_off_c, 0, 63, 38
1, 140428, Note_off_c, 0, 65, 34
1, 140429, Note_off_c, 0, 60, 36
1, 140458, Note_off_c, 0, 67, 62
1, 140578, Note_on_c, 0, 68, 75
1, 140588, Note_on_c, 0, 60, 56
1, 140594, Note_off_c, 0, 58, 56
1, 140601, Note_on_c, 0, 44, 59
1, 140626, Note_off_c, 0, 51, 32
1, 140637, Note_off_c, 0, 39, 38
1, 140740, Note_off_c, 0, 68, 61
1, 140754, Note_on_c, 0, 65, 72
1, 140767, Note_on_c, 0, 63, 40
1, 140904, Note_off_c, 0, 60, 29
1, 140916, Note_on_c, 0, 58, 71
1, 140917, Note_on_c, 0, 67, 78
1, 140925, Note_on_c, 0, 51, 56
1, 140934, Note_off_c, 0, 44, 61
1, 140939, Note_on_c, 0, 39, 49
1, 140939, Note_off_c, 0, 63, 40
1, 140942, Note_off_c, 0, 58, 68
1, 140953, Note_off_c, 0, 65, 54
1, 140954, Note_off_c, 0, 51, 61
1, 140970, Note_off_c, 0, 67, 60
1, 140978, Note_off_c, 0, 39, 61
1, 141053, Control_c, 0, 64, 126
1, 141068, Control_c, 0, 64, 122
1, 141082, Control_c, 0, 64, 119
1, 141089, Note_on_c, 0, 70, 78
1, 141097, Control_c, 0, 64, 115
1, 141112, Control_c, 0, 64, 112
1, 141127, Control_c, 0, 64, 107
1, 141133, Note_on_c, 0, 60, 61
1, 141140, Note_on_c, 0, 68, 66
1, 141142, Control_c, 0, 64, 101
1, 141145, Note_on_c, 0, 32, 54
1, 141151, Note_on_c, 0, 44, 46
1, 141156, Control_c, 0, 64, 91
1, 141171, Control_c, 0, 64, 82
1, 141176, Note_off_c, 0, 70, 60
1, 141186, Control_c, 0, 64, 70
1, 141201, Control_c, 0, 64, 25
1, 141216, Control_c, 0, 64, 0
1, 141304, Control_c, 0, 64, 64
1, 141314, Note_off_c, 0, 60, 51
1, 141319, Control_c, 0, 64, 73
1, 141334, Control_c, 0, 64, 82
1, 141348, Control_c, 0, 64, 91
1, 141363, Note_on_c, 0, 63, 70
1, 141363, Control_c, 0, 64, 96
1, 141378, Control_c, 0, 64, 99
1, 141393, Control_c, 0, 64, 101
1, 141407, Note_off_c, 0, 32, 39
1, 141408, Control_c, 0, 64, 103
1, 141409, Note_off_c, 0, 44, 54
1, 141422, Control_c, 0, 64, 104
1, 141437, Control_c, 0, 64, 104
1, 141457, Note_off_c, 0, 63, 62
1, 141527, Note_on_c, 0, 67, 82
1, 141535, Note_on_c, 0, 58, 71
1, 141555, Note_on_c, 0, 51, 58
1, 141557, Note_off_c, 0, 68, 62
1, 141564, Note_on_c, 0, 39, 53
1, 141617, Note_off_c, 0, 58, 62
1, 141678, Note_off_c, 0, 67, 54
1, 141723, Note_on_c, 0, 68, 86
1, 141732, Note_on_c, 0, 59, 72
1, 141744, Note_on_c, 0, 44, 65
1, 141786, Note_off_c, 0, 59, 53
1, 141866, Note_off_c, 0, 51, 32
1, 141879, Note_off_c, 0, 39, 24
1, 141920, Note_on_c, 0, 66, 80
1, 142023, Note_off_c, 0, 68, 56
1, 142087, Note_on_c, 0, 70, 85
1, 142092, Note_on_c, 0, 64, 74
1, 142099, Note_off_c, 0, 66, 63
1, 142103, Note_on_c, 0, 51, 64
1, 142105, Note_on_c, 0, 39, 63
1, 142109, Note_off_c, 0, 44, 62
1, 142215, Note_off_c, 0, 70, 59
1, 142216, Control_c, 0, 64, 104
1, 142260, Control_c, 0, 64, 103
1, 142276, Control_c, 0, 64, 103
1, 142291, Control_c, 0, 64, 102
1, 142306, Control_c, 0, 64, 102
1, 142320, Control_c, 0, 64, 100
1, 142335, Control_c, 0, 64, 99
1, 142346, Note_on_c, 0, 71, 80
1, 142350, Control_c, 0, 64, 96
1, 142353, Note_off_c, 0, 39, 56
1, 142358, Note_on_c, 0, 63, 70
1, 142365, Control_c, 0, 64, 91
1, 142366, Note_on_c, 0, 44, 60
1, 142367, Note_off_c, 0, 64, 32
1, 142380, Control_c, 0, 64, 83
1, 142394, Control_c, 0, 64, 74
1, 142409, Control_c, 0, 64, 58
1, 142424, Control_c, 0, 64, 0
1, 142454, Note_off_c, 0, 51, 51
1, 142536, Control_c, 0, 64, 62
1, 142551, Control_c, 0, 64, 70
1, 142566, Note_on_c, 0, 66, 80
1, 142566, Control_c, 0, 64, 76
1, 142567, Note_off_c, 0, 71, 58
1, 142581, Control_c, 0, 64, 82
1, 142596, Control_c, 0, 64, 87
1, 142610, Control_c, 0, 64, 91
1, 142625, Control_c, 0, 64, 96
1, 142640, Control_c, 0, 64, 100
1, 142654, Control_c, 0, 64, 105
1, 142669, Control_c, 0, 64, 109
1, 142684, Control_c, 0, 64, 112
1, 142689, Note_off_c, 0, 63, 31
1, 142699, Control_c, 0, 64, 117
1, 142714, Control_c, 0, 64, 120
1, 142728, Control_c, 0, 64, 124
1, 142738, Note_on_c, 0, 59, 77
1, 142743, Note_off_c, 0, 44, 56
1, 142743, Control_c, 0, 64, 127
1, 142749, Note_on_c, 0, 51, 54
1, 142757, Note_on_c, 0, 39, 54
1, 142910, Note_off_c, 0, 51, 53
1, 142943, Note_on_c, 0, 71, 84
1, 142952, Note_on_c, 0, 44, 53
1, 142956, Note_on_c, 0, 61, 73
1, 142972, Note_off_c, 0, 39, 50
1, 142975, Note_off_c, 0, 66, 65
1, 142978, Note_off_c, 0, 59, 56
1, 143150, Note_off_c, 0, 71, 59
1, 143155, Note_on_c, 0, 65, 77
1, 143190, Note_off_c, 0, 61, 62
1, 143377, Note_on_c, 0, 49, 59
1, 143383, Note_on_c, 0, 56, 78
1, 143384, Note_on_c, 0, 37, 54
1, 143409, Note_off_c, 0, 49, 63
1, 143417, Note_off_c, 0, 44, 40
1, 143441, Note_off_c, 0, 37, 63
1, 143497, Note_off_c, 0, 56, 61
1, 143657, Note_on_c, 0, 30, 54
1, 143657, Note_on_c, 0, 42, 59
1, 143685, Control_c, 0, 64, 117
1, 143700, Control_c, 0, 64, 110
1, 143715, Control_c, 0, 64, 104
1, 143730, Control_c, 0, 64, 96
1, 143744, Control_c, 0, 64, 86
1, 143756, Note_on_c, 0, 71, 81
1, 143759, Control_c, 0, 64, 76
1, 143770, Note_on_c, 0, 61, 65
1, 143774, Control_c, 0, 64, 66
1, 143780, Note_off_c, 0, 65, 54
1, 143789, Control_c, 0, 64, 0
1, 143973, Control_c, 0, 64, 59
1, 143988, Control_c, 0, 64, 68
1, 144003, Control_c, 0, 64, 75
1, 144018, Control_c, 0, 64, 83
1, 144033, Control_c, 0, 64, 92
1, 144047, Control_c, 0, 64, 97
1, 144062, Control_c, 0, 64, 103
1, 144077, Control_c, 0, 64, 107
1, 144092, Control_c, 0, 64, 111
1, 144093, Note_off_c, 0, 30, 45
1, 144106, Control_c, 0, 64, 114
1, 144121, Control_c, 0, 64, 117
1, 144126, Note_off_c, 0, 42, 60
1, 144127, Note_on_c, 0, 66, 65
1, 144136, Control_c, 0, 64, 118
1, 144151, Control_c, 0, 64, 119
1, 144161, Note_off_c, 0, 71, 56
1, 144166, Control_c, 0, 64, 119
1, 144366, Note_off_c, 0, 61, 36
1, 144369, Note_on_c, 0, 59, 52
1, 144380, Note_on_c, 0, 37, 37
1, 144386, Note_on_c, 0, 49, 37
1, 144404, Note_off_c, 0, 66, 20
1, 144553, Note_on_c, 0, 61, 63
1, 144568, Note_on_c, 0, 42, 44
1, 144618, Note_off_c, 0, 37, 34
1, 144644, Note_off_c, 0, 49, 28
1, 144694, Note_off_c, 0, 59, 18
1, 144736, Note_on_c, 0, 70, 68
1, 144746, Note_on_c, 0, 66, 66
1, 144764, Note_off_c, 0, 61, 51
1, 144898, Note_off_c, 0, 66, 61
1, 144900, Control_c, 0, 64, 119
1, 144929, Control_c, 0, 64, 118
1, 144946, Note_on_c, 0, 49, 39
1, 144946, Note_on_c, 0, 59, 50
1, 144946, Note_on_c, 0, 37, 36
1, 144949, Note_off_c, 0, 42, 40
1, 144959, Control_c, 0, 64, 118
1, 144999, Note_off_c, 0, 59, 46
1, 145032, Note_on_c, 0, 66, 76
1, 145048, Note_off_c, 0, 70, 57
1, 145094, Note_off_c, 0, 66, 62
1, 145229, Note_on_c, 0, 66, 70
1, 145241, Note_on_c, 0, 42, 45
1, 145251, Note_on_c, 0, 59, 52
1, 145315, Note_off_c, 0, 49, 34
1, 145364, Note_off_c, 0, 37, 37
1, 145495, Note_on_c, 0, 58, 65
1, 145548, Note_off_c, 0, 59, 55
1, 145670, Note_off_c, 0, 42, 54
1, 145699, Note_on_c, 0, 49, 42
1, 145724, Note_on_c, 0, 37, 31
1, 145789, Note_off_c, 0, 58, 40
1, 145790, Note_on_c, 0, 54, 57
1, 145798, Control_c, 0, 67, 12
1, 145813, Control_c, 0, 67, 20
1, 145819, Note_off_c, 0, 54, 62
1, 145827, Control_c, 0, 67, 30
1, 145842, Control_c, 0, 67, 41
1, 145857, Control_c, 0, 67, 49
1, 145871, Control_c, 0, 67, 57
1, 145886, Control_c, 0, 67, 63
1, 145901, Control_c, 0, 67, 67
1, 145910, Note_on_c, 0, 54, 51
1, 145916, Control_c, 0, 67, 71
1, 145931, Control_c, 0, 67, 72
1, 145934, Note_on_c, 0, 42, 39
1, 145947, Note_off_c, 0, 49, 35
1, 145962, Note_off_c, 0, 66, 45
1, 145965, Note_off_c, 0, 37, 38
1, 145975, Control_c, 0, 67, 73
1, 145990, Control_c, 0, 67, 73
1, 146005, Control_c, 0, 67, 75
1, 146019, Control_c, 0, 67, 78
1, 146034, Control_c, 0, 67, 82
1, 146049, Control_c, 0, 67, 84
1, 146064, Control_c, 0, 67, 85
1, 146079, Control_c, 0, 67, 87
1, 146093, Control_c, 0, 67, 89
1, 146108, Control_c, 0, 67, 92
1, 146123, Control_c, 0, 67, 95
1, 146134, Note_off_c, 0, 54, 40
1, 146138, Note_on_c, 0, 61, 60
1, 146138, Control_c, 0, 67, 97
1, 146153, Control_c, 0, 67, 98
1, 146168, Control_c, 0, 67, 98
1, 146183, Control_c, 0, 67, 99
1, 146205, Control_c, 0, 67, 100
1, 146219, Control_c, 0, 67, 102
1, 146234, Control_c, 0, 67, 104
1, 146249, Control_c, 0, 67, 104
1, 146265, Control_c, 0, 67, 105
1, 146309, Control_c, 0, 67, 105
1, 146324, Control_c, 0, 64, 117
1, 146324, Control_c, 0, 67, 106
1, 146339, Control_c, 0, 67, 107
1, 146353, Note_on_c, 0, 56, 63
1, 146354, Control_c, 0, 64, 117
1, 146354, Control_c, 0, 67, 110
1, 146368, Control_c, 0, 64, 116
1, 146368, Control_c, 0, 67, 113
1, 146374, Note_off_c, 0, 42, 41
1, 146380, Note_off_c, 0, 61, 37
1, 146383, Control_c, 0, 64, 116
1, 146383, Control_c, 0, 67, 115
1, 146384, Note_off_c, 0, 56, 64
1, 146388, Note_on_c, 0, 49, 37
1, 146398, Control_c, 0, 64, 115
1, 146398, Control_c, 0, 67, 117
1, 146406, Note_on_c, 0, 37, 17
1, 146413, Control_c, 0, 64, 114
1, 146413, Control_c, 0, 67, 118
1, 146418, Note_off_c, 0, 49, 48
1, 146428, Control_c, 0, 64, 113
1, 146428, Control_c, 0, 67, 119
1, 146442, Control_c, 0, 64, 112
1, 146442, Control_c, 0, 67, 119
1, 146457, Control_c, 0, 64, 110
1, 146472, Control_c, 0, 64, 109
1, 146472, Control_c, 0, 67, 120
1, 146487, Control_c, 0, 64, 107
1, 146502, Control_c, 0, 64, 106
1, 146517, Control_c, 0, 64, 105
1, 146532, Control_c, 0, 64, 104
1, 146539, Note_off_c, 0, 37, 53
1, 146547, Control_c, 0, 64, 103
1, 146561, Control_c, 0, 64, 102
1, 146561, Control_c, 0, 67, 120
1, 146576, Control_c, 0, 64, 100
1, 146591, Control_c, 0, 64, 98
1, 146606, Control_c, 0, 64, 92
1, 146612, Note_on_c, 0, 42, 59
1, 146621, Control_c, 0, 64, 82
1, 146630, Note_on_c, 0, 30, 39
1, 146636, Control_c, 0, 64, 71
1, 146638, Note_on_c, 0, 58, 56
1, 146650, Control_c, 0, 64, 56
1, 146665, Control_c, 0, 64, 0
1, 146694, Control_c, 0, 64, 59
1, 146694, Control_c, 0, 67, 120
1, 146706, Note_off_c, 0, 58, 60
1, 146709, Control_c, 0, 64, 66
1, 146711, Note_on_c, 0, 61, 61
1, 146724, Control_c, 0, 64, 70
1, 146724, Control_c, 0, 67, 119
1, 146739, Control_c, 0, 64, 76
1, 146739, Control_c, 0, 67, 119
1, 146754, Control_c, 0, 64, 83
1, 146754, Control_c, 0, 67, 118
1, 146768, Control_c, 0, 64, 89
1, 146770, Note_off_c, 0, 61, 62
1, 146783, Control_c, 0, 64, 93
1, 146783, Control_c, 0, 67, 117
1, 146789, Note_on_c, 0, 66, 60
1, 146790, Note_off_c, 0, 30, 54
1, 146798, Control_c, 0, 64, 95
1, 146798, Control_c, 0, 67, 117
1, 146813, Note_off_c, 0, 42, 62
1, 146813, Control_c, 0, 64, 97
1, 146816, Note_off_c, 0, 66, 67
1, 146828, Control_c, 0, 64, 98
1, 146828, Control_c, 0, 67, 116
1, 146842, Control_c, 0, 64, 99
1, 146857, Control_c, 0, 64, 100
1, 146872, Control_c, 0, 64, 101
1, 146883, Note_on_c, 0, 70, 66
1, 146886, Control_c, 0, 64, 102
1, 146886, Control_c, 0, 67, 116
1, 146901, Control_c, 0, 67, 115
1, 146916, Control_c, 0, 64, 102
1, 146947, Note_off_c, 0, 70, 57
1, 146998, Control_c, 0, 64, 103
1, 147013, Control_c, 0, 67, 115
1, 147032, Note_on_c, 0, 78, 71
1, 147035, Note_on_c, 0, 49, 45
1, 147042, Control_c, 0, 64, 103
1, 147054, Note_on_c, 0, 37, 34
1, 147057, Control_c, 0, 64, 104
1, 147057, Control_c, 0, 67, 114
1, 147073, Control_c, 0, 64, 104
1, 147083, Note_off_c, 0, 78, 58
1, 147117, Control_c, 0, 64, 105
1, 147138, Note_on_c, 0, 78, 61
1, 147162, Control_c, 0, 64, 105
1, 147176, Note_off_c, 0, 78, 58
1, 147302, Note_on_c, 0, 90, 72
1, 147339, Note_on_c, 0, 42, 38
1, 147354, Control_c, 0, 64, 106
1, 147363, Note_off_c, 0, 90, 61
1, 147369, Control_c, 0, 64, 107
1, 147373, Note_off_c, 0, 37, 35
1, 147384, Control_c, 0, 64, 109
1, 147399, Control_c, 0, 64, 111
1, 147414, Control_c, 0, 64, 113
1, 147429, Control_c, 0, 64, 116
1, 147443, Control_c, 0, 64, 118
1, 147458, Control_c, 0, 64, 121
1, 147468, Note_off_c, 0, 49, 35
1, 147473, Control_c, 0, 64, 125
1, 147488, Control_c, 0, 64, 127
1, 147629, Note_on_c, 0, 61, 62
1, 147635, Control_c, 0, 67, 114
1, 147731, Control_c, 0, 67, 113
1, 147776, Control_c, 0, 67, 113
1, 147830, Note_on_c, 0, 56, 67
1, 147832, Note_off_c, 0, 61, 61
1, 147849, Control_c, 0, 67, 112
1, 147852, Note_on_c, 0, 49, 40
1, 147855, Note_on_c, 0, 37, 31
1, 147879, Note_off_c, 0, 42, 40
1, 147925, Control_c, 0, 67, 112
1, 147939, Control_c, 0, 67, 111
1, 147954, Control_c, 0, 64, 126
1, 147969, Control_c, 0, 64, 125
1, 147969, Control_c, 0, 67, 111
1, 147984, Control_c, 0, 64, 124
1, 147984, Control_c, 0, 67, 110
1, 147999, Control_c, 0, 64, 122
1, 148013, Control_c, 0, 64, 121
1, 148013, Control_c, 0, 67, 110
1, 148028, Control_c, 0, 64, 120
1, 148043, Control_c, 0, 64, 119
1, 148058, Control_c, 0, 64, 118
1, 148058, Control_c, 0, 67, 109
1, 148073, Control_c, 0, 64, 117
1, 148073, Control_c, 0, 67, 109
1, 148088, Control_c, 0, 64, 115
1, 148096, Note_on_c, 0, 57, 72
1, 148103, Control_c, 0, 64, 114
1, 148110, Note_off_c, 0, 56, 57
1, 148117, Note_on_c, 0, 42, 44
1, 148117, Control_c, 0, 64, 112
1, 148132, Control_c, 0, 64, 109
1, 148132, Control_c, 0, 67, 108
1, 148147, Control_c, 0, 64, 107
1, 148147, Control_c, 0, 67, 107
1, 148162, Note_off_c, 0, 49, 33
1, 148162, Control_c, 0, 64, 104
1, 148162, Control_c, 0, 67, 107
1, 148177, Control_c, 0, 64, 101
1, 148189, Note_off_c, 0, 37, 37
1, 148192, Control_c, 0, 64, 97
1, 148207, Control_c, 0, 64, 92
1, 148221, Control_c, 0, 64, 86
1, 148236, Control_c, 0, 64, 76
1, 148251, Control_c, 0, 64, 64
1, 148265, Control_c, 0, 64, 0
1, 148280, Control_c, 0, 67, 106
1, 148329, Note_on_c, 0, 61, 72
1, 148339, Control_c, 0, 67, 106
1, 148354, Control_c, 0, 64, 47
1, 148354, Control_c, 0, 67, 105
1, 148369, Control_c, 0, 64, 65
1, 148369, Control_c, 0, 67, 101
1, 148372, Note_off_c, 0, 57, 53
1, 148384, Control_c, 0, 64, 71
1, 148384, Control_c, 0, 67, 97
1, 148399, Control_c, 0, 64, 78
1, 148399, Control_c, 0, 67, 93
1, 148413, Control_c, 0, 64, 85
1, 148413, Control_c, 0, 67, 90
1, 148428, Control_c, 0, 64, 88
1, 148428, Control_c, 0, 67, 87
1, 148451, Control_c, 0, 64, 90
1, 148451, Control_c, 0, 67, 84
1, 148466, Control_c, 0, 64, 90
1, 148466, Control_c, 0, 67, 82
1, 148481, Control_c, 0, 67, 82
1, 148504, Note_on_c, 0, 66, 82
1, 148504, Note_off_c, 0, 61, 62
1, 148514, Note_off_c, 0, 42, 58
1, 148519, Note_on_c, 0, 56, 62
1, 148526, Control_c, 0, 67, 81
1, 148531, Note_on_c, 0, 49, 49
1, 148537, Note_on_c, 0, 37, 47
1, 148540, Control_c, 0, 67, 80
1, 148555, Control_c, 0, 67, 79
1, 148570, Control_c, 0, 67, 76
1, 148585, Control_c, 0, 67, 73
1, 148600, Control_c, 0, 67, 70
1, 148614, Control_c, 0, 67, 68
1, 148615, Note_off_c, 0, 66, 63
1, 148629, Control_c, 0, 67, 67
1, 148644, Control_c, 0, 67, 66
1, 148657, Note_off_c, 0, 56, 61
1, 148719, Control_c, 0, 64, 89
1, 148722, Note_on_c, 0, 64, 83
1, 148729, Note_on_c, 0, 57, 70
1, 148734, Control_c, 0, 64, 86
1, 148742, Note_on_c, 0, 42, 51
1, 148749, Control_c, 0, 64, 79
1, 148749, Control_c, 0, 67, 66
1, 148763, Control_c, 0, 64, 70
1, 148763, Control_c, 0, 67, 65
1, 148778, Control_c, 0, 64, 56
1, 148778, Control_c, 0, 67, 66
1, 148791, Note_off_c, 0, 37, 43
1, 148793, Control_c, 0, 64, 16
1, 148793, Control_c, 0, 67, 66
1, 148808, Control_c, 0, 64, 45
1, 148823, Control_c, 0, 64, 59
1, 148823, Control_c, 0, 67, 67
1, 148837, Control_c, 0, 64, 64
1, 148837, Control_c, 0, 67, 67
1, 148852, Control_c, 0, 64, 67
1, 148852, Control_c, 0, 67, 68
1, 148867, Control_c, 0, 64, 71
1, 148882, Control_c, 0, 64, 78
1, 148882, Control_c, 0, 67, 68
1, 148896, Control_c, 0, 64, 85
1, 148896, Control_c, 0, 67, 69
1, 148911, Control_c, 0, 64, 92
1, 148916, Note_on_c, 0, 61, 80
1, 148920, Note_off_c, 0, 49, 16
1, 148926, Control_c, 0, 64, 97
1, 148930, Note_off_c, 0, 64, 58
1, 148941, Control_c, 0, 64, 99
1, 148955, Control_c, 0, 64, 100
1, 148970, Control_c, 0, 64, 101
1, 148970, Control_c, 0, 67, 69
1, 149000, Control_c, 0, 67, 69
1, 149030, Control_c, 0, 67, 69
1, 149101, Note_on_c, 0, 66, 85
1, 149110, Note_on_c, 0, 56, 67
1, 149110, Note_on_c, 0, 49, 52
1, 149119, Note_off_c, 0, 42, 53
1, 149119, Note_off_c, 0, 61, 59
1, 149119, Control_c, 0, 67, 70
1, 149122, Note_on_c, 0, 37, 48
1, 149143, Note_off_c, 0, 57, 41
1, 149163, Control_c, 0, 67, 69
1, 149229, Control_c, 0, 64, 100
1, 149289, Control_c, 0, 64, 100
1, 149319, Control_c, 0, 64, 99
1, 149334, Control_c, 0, 64, 99
1, 149349, Control_c, 0, 64, 98
1, 149363, Control_c, 0, 64, 97
1, 149373, Note_off_c, 0, 66, 63
1, 149378, Control_c, 0, 64, 96
1, 149393, Control_c, 0, 64, 95
1, 149406, Note_off_c, 0, 56, 56
1, 149408, Control_c, 0, 64, 94
1, 149422, Control_c, 0, 64, 92
1, 149437, Control_c, 0, 64, 90
1, 149443, Note_on_c, 0, 62, 82
1, 149451, Note_on_c, 0, 57, 62
1, 149452, Control_c, 0, 64, 87
1, 149460, Note_on_c, 0, 42, 51
1, 149468, Control_c, 0, 64, 83
1, 149483, Control_c, 0, 64, 79
1, 149483, Control_c, 0, 67, 70
1, 149498, Control_c, 0, 64, 72
1, 149498, Control_c, 0, 67, 70
1, 149512, Control_c, 0, 64, 64
1, 149524, Note_off_c, 0, 49, 36
1, 149527, Control_c, 0, 64, 29
1, 149542, Control_c, 0, 64, 0
1, 149560, Note_off_c, 0, 37, 35
1, 149660, Control_c, 0, 64, 31
1, 149675, Control_c, 0, 64, 52
1, 149675, Control_c, 0, 67, 70
1, 149690, Control_c, 0, 64, 60
1, 149690, Control_c, 0, 67, 69
1, 149705, Control_c, 0, 64, 64
1, 149705, Control_c, 0, 67, 69
1, 149707, Note_on_c, 0, 60, 65
1, 149719, Control_c, 0, 64, 67
1, 149719, Control_c, 0, 67, 68
1, 149734, Control_c, 0, 64, 71
1, 149734, Control_c, 0, 67, 68
1, 149746, Note_off_c, 0, 57, 55
1, 149749, Control_c, 0, 64, 75
1, 149764, Control_c, 0, 64, 80
1, 149764, Control_c, 0, 67, 67
1, 149779, Control_c, 0, 64, 83
1, 149779, Control_c, 0, 67, 66
1, 149793, Control_c, 0, 64, 85
1, 149808, Control_c, 0, 64, 87
1, 149823, Control_c, 0, 64, 88
1, 149837, Control_c, 0, 64, 90
1, 149837, Control_c, 0, 67, 66
1, 149852, Control_c, 0, 64, 91
1, 149860, Note_off_c, 0, 60, 49
1, 149867, Control_c, 0, 64, 92
1, 149867, Control_c, 0, 67, 65
1, 149876, Note_off_c, 0, 42, 59
1, 149882, Control_c, 0, 64, 92
1, 149888, Note_on_c, 0, 56, 70
1, 149897, Control_c, 0, 64, 93
1, 149898, Note_on_c, 0, 49, 50
1, 149906, Note_on_c, 0, 37, 44
1, 149949, Control_c, 0, 67, 66
1, 149964, Control_c, 0, 64, 93
1, 149979, Control_c, 0, 67, 66
1, 149989, Note_off_c, 0, 62, 32
1, 149993, Control_c, 0, 64, 94
1, 149993, Control_c, 0, 67, 67
1, 150008, Control_c, 0, 64, 95
1, 150010, Note_off_c, 0, 56, 59
1, 150023, Control_c, 0, 64, 96
1, 150037, Control_c, 0, 64, 99
1, 150037, Control_c, 0, 67, 67
1, 150052, Control_c, 0, 64, 102
1, 150052, Control_c, 0, 67, 68
1, 150067, Control_c, 0, 64, 105
1, 150078, Note_on_c, 0, 57, 78
1, 150082, Control_c, 0, 64, 108
1, 150082, Control_c, 0, 67, 68
1, 150091, Note_off_c, 0, 49, 50
1, 150092, Note_on_c, 0, 42, 58
1, 150097, Control_c, 0, 64, 112
1, 150112, Control_c, 0, 64, 115
1, 150112, Control_c, 0, 67, 69
1, 150127, Control_c, 0, 64, 120
1, 150133, Note_off_c, 0, 37, 42
1, 150142, Control_c, 0, 64, 126
1, 150156, Control_c, 0, 64, 127
1, 150156, Control_c, 0, 67, 69
1, 150161, Note_off_c, 0, 57, 50
1, 150216, Control_c, 0, 67, 70
1, 150249, Note_on_c, 0, 69, 81
1, 150276, Control_c, 0, 67, 69
1, 150291, Control_c, 0, 67, 70
1, 150291, Note_off_c, 0, 69, 64
1, 150305, Control_c, 0, 67, 71
1, 150320, Control_c, 0, 67, 71
1, 150335, Control_c, 0, 67, 72
1, 150350, Control_c, 0, 67, 72
1, 150365, Control_c, 0, 67, 73
1, 150395, Control_c, 0, 67, 73
1, 150425, Note_on_c, 0, 54, 77
1, 150427, Note_on_c, 0, 49, 57
1, 150436, Note_off_c, 0, 42, 54
1, 150437, Note_on_c, 0, 37, 56
1, 150468, Control_c, 0, 67, 73
1, 150483, Control_c, 0, 67, 72
1, 150498, Control_c, 0, 67, 72
1, 150528, Control_c, 0, 67, 71
1, 150542, Control_c, 0, 64, 123
1, 150557, Control_c, 0, 64, 117
1, 150557, Control_c, 0, 67, 71
1, 150564, Note_off_c, 0, 54, 57
1, 150572, Control_c, 0, 64, 114
1, 150572, Control_c, 0, 67, 70
1, 150587, Control_c, 0, 64, 110
1, 150602, Control_c, 0, 64, 108
1, 150602, Control_c, 0, 67, 70
1, 150616, Control_c, 0, 64, 105
1, 150631, Control_c, 0, 64, 101
1, 150646, Control_c, 0, 64, 96
1, 150646, Control_c, 0, 67, 70
1, 150660, Control_c, 0, 64, 91
1, 150668, Note_on_c, 0, 61, 77
1, 150675, Control_c, 0, 64, 85
1, 150675, Control_c, 0, 67, 71
1, 150689, Note_on_c, 0, 44, 57
1, 150693, Note_on_c, 0, 53, 63
1, 150698, Control_c, 0, 64, 76
1, 150713, Control_c, 0, 64, 67
1, 150722, Note_off_c, 0, 49, 37
1, 150728, Note_off_c, 0, 37, 38
1, 150728, Control_c, 0, 64, 0
1, 150742, Control_c, 0, 67, 70
1, 150772, Control_c, 0, 67, 70
1, 150787, Control_c, 0, 67, 69
1, 150802, Control_c, 0, 67, 68
1, 150816, Control_c, 0, 67, 68
1, 150831, Control_c, 0, 64, 59
1, 150831, Control_c, 0, 67, 66
1, 150846, Control_c, 0, 64, 70
1, 150846, Control_c, 0, 67, 64
1, 150860, Control_c, 0, 64, 78
1, 150860, Control_c, 0, 67, 62
1, 150875, Control_c, 0, 64, 86
1, 150875, Control_c, 0, 67, 53
1, 150887, Note_off_c, 0, 61, 61
1, 150890, Note_on_c, 0, 56, 80
1, 150890, Control_c, 0, 64, 90
1, 150890, Control_c, 0, 67, 35
1, 150905, Control_c, 0, 64, 91
1, 150905, Control_c, 0, 67, 17
1, 150920, Control_c, 0, 64, 92
1, 150920, Control_c, 0, 67, 0
1, 150934, Control_c, 0, 64, 92
1, 151060, Note_on_c, 0, 37, 57
1, 151060, Note_on_c, 0, 49, 58
1, 151064, Note_on_c, 0, 61, 92
1, 151092, Note_off_c, 0, 56, 63
1, 151101, Note_off_c, 0, 44, 34
1, 151188, Control_c, 0, 64, 92
1, 151203, Control_c, 0, 64, 89
1, 151210, Note_off_c, 0, 53, 63
1, 151218, Control_c, 0, 64, 82
1, 151232, Control_c, 0, 64, 73
1, 151247, Control_c, 0, 64, 54
1, 151260, Note_on_c, 0, 64, 85
1, 151262, Control_c, 0, 64, 0
1, 151265, Note_off_c, 0, 49, 57
1, 151271, Note_on_c, 0, 42, 63
1, 151271, Note_on_c, 0, 57, 74
1, 151278, Note_off_c, 0, 61, 54
1, 151304, Note_off_c, 0, 37, 57
1, 151336, Control_c, 0, 64, 62
1, 151351, Control_c, 0, 64, 69
1, 151365, Control_c, 0, 64, 77
1, 151380, Control_c, 0, 64, 86
1, 151395, Control_c, 0, 64, 96
1, 151410, Control_c, 0, 64, 104
1, 151425, Control_c, 0, 64, 113
1, 151447, Control_c, 0, 64, 126
1, 151459, Note_on_c, 0, 61, 86
1, 151459, Note_off_c, 0, 64, 64
1, 151461, Control_c, 0, 64, 127
1, 151486, Note_off_c, 0, 57, 63
1, 151658, Note_off_c, 0, 61, 61
1, 151659, Note_on_c, 0, 66, 86
1, 151665, Note_on_c, 0, 54, 75
1, 151671, Note_off_c, 0, 42, 59
1, 151676, Note_on_c, 0, 49, 56
1, 151678, Note_on_c, 0, 37, 50
1, 151879, Note_off_c, 0, 66, 62
1, 151951, Note_off_c, 0, 54, 59
1, 151966, Control_c, 0, 64, 121
1, 151980, Control_c, 0, 64, 115
1, 151995, Control_c, 0, 64, 110
1, 152007, Note_on_c, 0, 62, 85
1, 152010, Control_c, 0, 64, 105
1, 152020, Note_on_c, 0, 57, 63
1, 152022, Note_on_c, 0, 42, 55
1, 152025, Control_c, 0, 64, 99
1, 152040, Control_c, 0, 64, 93
1, 152054, Control_c, 0, 64, 86
1, 152055, Note_off_c, 0, 49, 44
1, 152069, Control_c, 0, 64, 76
1, 152084, Control_c, 0, 64, 66
1, 152099, Control_c, 0, 64, 0
1, 152104, Note_off_c, 0, 37, 35
1, 152225, Control_c, 0, 64, 42
1, 152240, Control_c, 0, 64, 64
1, 152255, Control_c, 0, 64, 69
1, 152270, Control_c, 0, 64, 75
1, 152285, Control_c, 0, 64, 80
1, 152300, Control_c, 0, 64, 83
1, 152311, Note_on_c, 0, 60, 71
1, 152314, Control_c, 0, 64, 86
1, 152329, Control_c, 0, 64, 88
1, 152344, Control_c, 0, 64, 89
1, 152359, Control_c, 0, 64, 90
1, 152367, Note_off_c, 0, 57, 53
1, 152374, Control_c, 0, 64, 90
1, 152403, Control_c, 0, 64, 91
1, 152418, Control_c, 0, 64, 91
1, 152484, Note_off_c, 0, 60, 46
1, 152510, Note_on_c, 0, 56, 67
1, 152514, Note_off_c, 0, 42, 56
1, 152521, Note_on_c, 0, 49, 52
1, 152526, Note_on_c, 0, 37, 50
1, 152640, Control_c, 0, 64, 91
1, 152655, Control_c, 0, 64, 90
1, 152670, Control_c, 0, 64, 87
1, 152685, Control_c, 0, 64, 81
1, 152700, Control_c, 0, 64, 72
1, 152702, Note_on_c, 0, 57, 79
1, 152714, Note_off_c, 0, 49, 59
1, 152715, Control_c, 0, 64, 60
1, 152722, Note_off_c, 0, 56, 58
1, 152723, Note_on_c, 0, 42, 59
1, 152729, Control_c, 0, 64, 0
1, 152760, Note_off_c, 0, 37, 58
1, 152803, Control_c, 0, 64, 47
1, 152818, Control_c, 0, 64, 65
1, 152833, Control_c, 0, 64, 71
1, 152848, Control_c, 0, 64, 77
1, 152863, Control_c, 0, 64, 82
1, 152878, Control_c, 0, 64, 86
1, 152890, Note_on_c, 0, 60, 78
1, 152893, Control_c, 0, 64, 89
1, 152907, Note_off_c, 0, 57, 61
1, 152908, Control_c, 0, 64, 90
1, 152923, Control_c, 0, 64, 92
1, 152944, Control_c, 0, 64, 92
1, 153023, Note_off_c, 0, 62, 0
1, 153023, Note_on_c, 0, 62, 14
1, 153061, Note_on_c, 0, 54, 81
1, 153069, Note_off_c, 0, 60, 58
1, 153072, Note_on_c, 0, 37, 60
1, 153074, Note_on_c, 0, 49, 64
1, 153075, Note_off_c, 0, 42, 56
1, 153197, Control_c, 0, 64, 92
1, 153211, Control_c, 0, 64, 91
1, 153226, Control_c, 0, 64, 86
1, 153241, Control_c, 0, 64, 78
1, 153255, Control_c, 0, 64, 67
1, 153257, Note_on_c, 0, 57, 79
1, 153270, Control_c, 0, 64, 0
1, 153271, Note_on_c, 0, 42, 73
1, 153284, Note_off_c, 0, 54, 58
1, 153292, Note_off_c, 0, 49, 55
1, 153329, Control_c, 0, 64, 60
1, 153337, Note_off_c, 0, 37, 59
1, 153344, Control_c, 0, 64, 69
1, 153359, Control_c, 0, 64, 77
1, 153374, Control_c, 0, 64, 86
1, 153388, Control_c, 0, 64, 94
1, 153391, Note_off_c, 0, 62, 40
1, 153403, Control_c, 0, 64, 102
1, 153418, Control_c, 0, 64, 107
1, 153433, Control_c, 0, 64, 112
1, 153437, Note_on_c, 0, 60, 81
1, 153449, Control_c, 0, 64, 123
1, 153456, Note_off_c, 0, 57, 62
1, 153464, Control_c, 0, 64, 127
1, 153575, Note_off_c, 0, 60, 55
1, 153605, Note_on_c, 0, 56, 85
1, 153608, Note_off_c, 0, 42, 61
1, 153616, Note_on_c, 0, 49, 65
1, 153619, Note_on_c, 0, 37, 60
1, 153730, Note_off_c, 0, 56, 62
1, 153782, Control_c, 0, 64, 110
1, 153797, Control_c, 0, 64, 89
1, 153798, Note_on_c, 0, 57, 90
1, 153808, Note_on_c, 0, 42, 73
1, 153812, Control_c, 0, 64, 71
1, 153815, Note_off_c, 0, 49, 59
1, 153827, Control_c, 0, 64, 0
1, 153848, Note_off_c, 0, 37, 59
1, 153871, Control_c, 0, 64, 60
1, 153886, Control_c, 0, 64, 69
1, 153900, Control_c, 0, 64, 78
1, 153915, Control_c, 0, 64, 89
1, 153927, Note_off_c, 0, 57, 54
1, 153930, Control_c, 0, 64, 98
1, 153945, Control_c, 0, 64, 107
1, 153960, Control_c, 0, 64, 114
1, 153975, Control_c, 0, 64, 124
1, 153977, Note_on_c, 0, 69, 88
1, 153990, Control_c, 0, 64, 127
1, 154020, Note_off_c, 0, 69, 66
1, 154169, Note_on_c, 0, 37, 71
1, 154171, Note_on_c, 0, 49, 72
1, 154172, Note_on_c, 0, 54, 83
1, 154175, Note_off_c, 0, 42, 58
1, 154296, Note_off_c, 0, 54, 55
1, 154432, Note_on_c, 0, 61, 87
1, 154435, Note_on_c, 0, 53, 83
1, 154437, Note_on_c, 0, 44, 72
1, 154449, Note_off_c, 0, 49, 57
1, 154450, Note_off_c, 0, 37, 58
1, 154457, Control_c, 0, 64, 124
1, 154472, Control_c, 0, 64, 105
1, 154487, Control_c, 0, 64, 90
1, 154502, Control_c, 0, 64, 74
1, 154516, Control_c, 0, 64, 43
1, 154531, Control_c, 0, 64, 0
1, 154605, Control_c, 0, 64, 39
1, 154620, Control_c, 0, 64, 68
1, 154634, Control_c, 0, 64, 80
1, 154649, Control_c, 0, 64, 92
1, 154664, Note_on_c, 0, 56, 85
1, 154664, Control_c, 0, 64, 103
1, 154672, Note_off_c, 0, 61, 63
1, 154679, Control_c, 0, 64, 106
1, 154694, Control_c, 0, 64, 106
1, 154714, Note_off_c, 0, 53, 59
1, 154829, Note_on_c, 0, 61, 89
1, 154830, Note_on_c, 0, 49, 79
1, 154834, Note_on_c, 0, 37, 75
1, 154844, Note_off_c, 0, 44, 63
1, 154851, Note_off_c, 0, 56, 62
1, 154887, Control_c, 0, 64, 107
1, 154901, Control_c, 0, 64, 108
1, 154910, Note_off_c, 0, 61, 66
1, 154916, Control_c, 0, 64, 110
1, 154931, Control_c, 0, 64, 114
1, 154946, Control_c, 0, 64, 122
1, 154961, Control_c, 0, 64, 127
1, 154974, Note_off_c, 0, 49, 47
1, 154991, Note_on_c, 0, 65, 94
1, 154999, Note_off_c, 0, 37, 63
1, 155001, Note_on_c, 0, 44, 75
1, 155155, Note_off_c, 0, 44, 0
1, 155179, Note_on_c, 0, 56, 76
1, 155188, Note_on_c, 0, 44, 32
1, 155191, Note_on_c, 0, 68, 78
1, 155212, Note_on_c, 0, 73, 38
1, 155229, Note_off_c, 0, 56, 61
1, 155240, Note_off_c, 0, 73, 49
1, 155291, Note_off_c, 0, 68, 59
1, 155341, Note_on_c, 0, 73, 76
1, 155343, Note_on_c, 0, 37, 77
1, 155371, Note_off_c, 0, 65, 50
1, 155375, Note_off_c, 0, 44, 40
1, 155392, Note_off_c, 0, 73, 64
1, 155469, Note_on_c, 0, 73, 74
1, 155498, Note_off_c, 0, 73, 61
1, 155518, Control_c, 0, 64, 113
1, 155531, Note_on_c, 0, 75, 84
1, 155532, Control_c, 0, 64, 87
1, 155547, Control_c, 0, 64, 65
1, 155562, Control_c, 0, 64, 0
1, 155571, Note_on_c, 0, 44, 77
1, 155573, Note_on_c, 0, 64, 81
1, 155577, Note_on_c, 0, 73, 84
1, 155587, Note_on_c, 0, 68, 74
1, 155596, Note_off_c, 0, 37, 62
1, 155606, Control_c, 0, 64, 60
1, 155621, Control_c, 0, 64, 71
1, 155629, Note_off_c, 0, 75, 61
1, 155636, Control_c, 0, 64, 80
1, 155637, Note_off_c, 0, 64, 56
1, 155650, Control_c, 0, 64, 90
1, 155665, Control_c, 0, 64, 100
1, 155680, Control_c, 0, 64, 109
1, 155695, Control_c, 0, 64, 113
1, 155710, Control_c, 0, 64, 115
1, 155725, Control_c, 0, 64, 116
1, 155740, Note_off_c, 0, 68, 59
1, 155740, Control_c, 0, 64, 117
1, 155755, Control_c, 0, 64, 117
1, 155787, Note_on_c, 0, 63, 94
1, 155787, Note_on_c, 0, 72, 85
1, 155793, Note_on_c, 0, 52, 81
1, 155829, Note_off_c, 0, 52, 65
1, 155857, Note_off_c, 0, 73, 33
1, 155903, Note_off_c, 0, 63, 61
1, 155904, Note_off_c, 0, 72, 56
1, 155975, Note_on_c, 0, 37, 84
1, 155982, Note_on_c, 0, 64, 89
1, 155984, Note_on_c, 0, 73, 91
1, 156011, Note_off_c, 0, 44, 62
1, 156028, Note_off_c, 0, 37, 66
1, 156091, Note_off_c, 0, 73, 60
1, 156162, Control_c, 0, 64, 117
1, 156163, Note_on_c, 0, 40, 87
1, 156177, Control_c, 0, 64, 109
1, 156192, Control_c, 0, 64, 92
1, 156207, Control_c, 0, 64, 73
1, 156219, Note_on_c, 0, 68, 87
1, 156219, Note_on_c, 0, 73, 79
1, 156219, Note_on_c, 0, 76, 90
1, 156222, Control_c, 0, 64, 0
1, 156265, Note_off_c, 0, 64, 63
1, 156280, Control_c, 0, 64, 62
1, 156295, Control_c, 0, 64, 71
1, 156310, Control_c, 0, 64, 80
1, 156321, Note_off_c, 0, 73, 62
1, 156325, Control_c, 0, 64, 92
1, 156340, Control_c, 0, 64, 104
1, 156354, Control_c, 0, 64, 115
1, 156369, Control_c, 0, 64, 124
1, 156384, Control_c, 0, 64, 127
1, 156458, Note_off_c, 0, 40, 62
1, 156464, Note_on_c, 0, 74, 86
1, 156469, Note_on_c, 0, 47, 84
1, 156470, Note_on_c, 0, 66, 95
1, 156491, Note_off_c, 0, 68, 64
1, 156500, Note_off_c, 0, 76, 58
1, 156577, Note_off_c, 0, 66, 62
1, 156589, Note_off_c, 0, 74, 64
1, 156607, Poly_aftertouch_c, 0, 45, 0
1, 156699, Note_on_c, 0, 56, 80
1, 156708, Note_on_c, 0, 62, 89
1, 156708, Note_on_c, 0, 71, 79
1, 156710, Note_on_c, 0, 68, 82
1, 156728, Note_off_c, 0, 56, 66
1, 156731, Note_on_c, 0, 70, 56
1, 156739, Note_off_c, 0, 47, 56
1, 156753, Note_off_c, 0, 62, 60
1, 156753, Note_off_c, 0, 70, 39
1, 156816, Note_off_c, 0, 68, 62
1, 156834, Note_off_c, 0, 71, 56
1, 156939, Note_on_c, 0, 45, 89
1, 156945, Note_on_c, 0, 33, 89
1, 156970, Control_c, 0, 64, 103
1, 156984, Control_c, 0, 64, 78
1, 156999, Control_c, 0, 64, 0
1, 157039, Note_on_c, 0, 73, 91
1, 157041, Note_on_c, 0, 69, 79
1, 157042, Note_on_c, 0, 61, 89
1, 157073, Control_c, 0, 64, 46
1, 157088, Control_c, 0, 64, 67
1, 157090, Note_off_c, 0, 61, 63
1, 157102, Control_c, 0, 64, 77
1, 157117, Control_c, 0, 64, 90
1, 157132, Control_c, 0, 64, 104
1, 157138, Note_off_c, 0, 33, 64
1, 157138, Note_off_c, 0, 69, 64
1, 157147, Control_c, 0, 64, 120
1, 157162, Control_c, 0, 64, 127
1, 157165, Note_off_c, 0, 73, 63
1, 157167, Note_off_c, 0, 45, 64
1, 157297, Note_on_c, 0, 81, 93
1, 157358, Note_off_c, 0, 81, 61
1, 157418, Note_on_c, 0, 52, 76
1, 157499, Note_on_c, 0, 76, 82
1, 157548, Note_off_c, 0, 76, 64
1, 157558, Note_on_c, 0, 78, 78
1, 157604, Note_off_c, 0, 78, 60
1, 157616, Note_on_c, 0, 76, 78
1, 157638, Note_on_c, 0, 40, 72
1, 157669, Note_off_c, 0, 76, 62
1, 157675, Note_on_c, 0, 78, 81
1, 157699, Note_off_c, 0, 52, 33
1, 157714, Note_off_c, 0, 78, 60
1, 157732, Note_on_c, 0, 76, 74
1, 157772, Note_off_c, 0, 76, 61
1, 157791, Note_on_c, 0, 78, 83
1, 157809, Note_on_c, 0, 45, 74
1, 157819, Note_off_c, 0, 40, 61
1, 157819, Note_off_c, 0, 78, 58
1, 157838, Note_on_c, 0, 76, 81
1, 157889, Note_off_c, 0, 76, 67
1, 157889, Note_on_c, 0, 78, 87
1, 157936, Note_off_c, 0, 78, 62
1, 157937, Note_on_c, 0, 76, 79
1, 157975, Note_off_c, 0, 45, 60
1, 157985, Note_on_c, 0, 52, 81
1, 157988, Note_on_c, 0, 78, 85
1, 157990, Note_off_c, 0, 76, 67
1, 158042, Note_on_c, 0, 76, 81
1, 158051, Note_off_c, 0, 78, 63
1, 158112, Note_on_c, 0, 40, 81
1, 158130, Note_off_c, 0, 52, 35
1, 158133, Note_on_c, 0, 75, 82
1, 158145, Note_off_c, 0, 76, 59
1, 158217, Note_off_c, 0, 75, 64
1, 158220, Note_on_c, 0, 76, 80
1, 158311, Note_off_c, 0, 76, 58
1, 158364, Note_on_c, 0, 81, 68
1, 158370, Note_on_c, 0, 73, 67
1, 158372, Note_on_c, 0, 45, 58
1, 158380, Note_off_c, 0, 40, 56
1, 158387, Note_on_c, 0, 67, 50
1, 158387, Note_on_c, 0, 69, 48
1, 158406, Note_on_c, 0, 79, 20
1, 158407, Note_off_c, 0, 79, 127
1, 158428, Note_off_c, 0, 69, 51
1, 158429, Note_off_c, 0, 67, 49
1, 158454, Note_off_c, 0, 81, 62
1, 158529, Note_off_c, 0, 73, 61
1, 158574, Note_on_c, 0, 78, 80
1, 158580, Note_on_c, 0, 76, 59
1, 158583, Note_on_c, 0, 52, 62
1, 158584, Note_on_c, 0, 66, 78
1, 158641, Note_off_c, 0, 66, 62
1, 158644, Note_off_c, 0, 76, 0
1, 158644, Note_on_c, 0, 76, 11
1, 158679, Note_off_c, 0, 78, 58
1, 158713, Note_off_c, 0, 76, 61
1, 158743, Note_on_c, 0, 80, 90
1, 158748, Note_on_c, 0, 68, 78
1, 158752, Note_on_c, 0, 71, 73
1, 158753, Note_on_c, 0, 40, 72
1, 158765, Note_off_c, 0, 45, 52
1, 158801, Note_off_c, 0, 52, 27
1, 158815, Note_off_c, 0, 68, 53
1, 158818, Note_off_c, 0, 71, 60
1, 158837, Note_off_c, 0, 80, 61
1, 158913, Note_on_c, 0, 81, 92
1, 158926, Note_on_c, 0, 45, 73
1, 158926, Note_on_c, 0, 69, 83
1, 158931, Note_on_c, 0, 73, 76
1, 158938, Note_off_c, 0, 40, 58
1, 158978, Note_off_c, 0, 69, 65
1, 159004, Note_off_c, 0, 81, 58
1, 159088, Note_on_c, 0, 78, 96
1, 159093, Note_on_c, 0, 52, 79
1, 159096, Note_on_c, 0, 76, 78
1, 159099, Note_on_c, 0, 66, 75
1, 159115, Note_off_c, 0, 73, 63
1, 159124, Note_off_c, 0, 66, 55
1, 159206, Poly_aftertouch_c, 0, 65, 0
1, 159221, Note_off_c, 0, 78, 60
1, 159244, Note_off_c, 0, 52, 58
1, 159254, Note_on_c, 0, 80, 91
1, 159260, Note_on_c, 0, 68, 85
1, 159261, Note_on_c, 0, 40, 75
1, 159263, Note_on_c, 0, 71, 80
1, 159273, Note_off_c, 0, 45, 62
1, 159298, Note_off_c, 0, 40, 65
1, 159335, Note_off_c, 0, 76, 0
1, 159338, Note_off_c, 0, 71, 56
1, 159371, Poly_aftertouch_c, 0, 76, 127
1, 159386, Note_off_c, 0, 80, 59
1, 159406, Poly_aftertouch_c, 0, 76, 0
1, 159411, Note_off_c, 0, 68, 53
1, 159481, Note_on_c, 0, 81, 96
1, 159482, Note_on_c, 0, 33, 79
1, 159485, Note_on_c, 0, 73, 86
1, 159487, Note_on_c, 0, 45, 80
1, 159487, Note_on_c, 0, 69, 87
1, 159497, Control_c, 0, 64, 110
1, 159512, Control_c, 0, 64, 89
1, 159527, Control_c, 0, 64, 70
1, 159542, Control_c, 0, 64, 0
1, 159557, Control_c, 0, 64, 18
1, 159571, Control_c, 0, 64, 65
1, 159586, Control_c, 0, 64, 74
1, 159598, Note_off_c, 0, 33, 64
1, 159601, Control_c, 0, 64, 85
1, 159615, Control_c, 0, 64, 97
1, 159619, Note_off_c, 0, 45, 64
1, 159628, Note_off_c, 0, 69, 61
1, 159630, Control_c, 0, 64, 109
1, 159636, Note_off_c, 0, 81, 58
1, 159645, Control_c, 0, 64, 115
1, 159660, Control_c, 0, 64, 117
1, 159683, Control_c, 0, 64, 118
1, 159695, Note_on_c, 0, 76, 91
1, 159696, Note_off_c, 0, 73, 64
1, 159697, Control_c, 0, 64, 118
1, 159712, Note_on_c, 0, 52, 83
1, 159712, Control_c, 0, 64, 119
1, 159727, Control_c, 0, 64, 119
1, 159742, Control_c, 0, 64, 120
1, 159756, Control_c, 0, 64, 126
1, 159771, Control_c, 0, 64, 127
1, 159851, Note_on_c, 0, 80, 91
1, 159855, Note_on_c, 0, 68, 89
1, 159861, Note_on_c, 0, 71, 76
1, 159873, Note_on_c, 0, 40, 86
1, 159929, Note_off_c, 0, 68, 62
1, 159939, Note_off_c, 0, 71, 59
1, 159947, Note_off_c, 0, 52, 60
1, 159961, Note_off_c, 0, 80, 61
1, 159979, Note_off_c, 0, 76, 25
1, 160027, Note_on_c, 0, 81, 97
1, 160030, Note_on_c, 0, 69, 90
1, 160033, Note_on_c, 0, 73, 80
1, 160036, Note_on_c, 0, 45, 85
1, 160063, Note_off_c, 0, 40, 53
1, 160104, Note_on_c, 0, 52, 4
1, 160118, Note_off_c, 0, 81, 61
1, 160121, Note_off_c, 0, 69, 60
1, 160136, Note_off_c, 0, 52, 37
1, 160212, Note_on_c, 0, 52, 92
1, 160213, Note_on_c, 0, 80, 94
1, 160303, Poly_aftertouch_c, 0, 47, 127
1, 160340, Note_off_c, 0, 52, 60
1, 160344, Note_off_c, 0, 73, 62
1, 160348, Poly_aftertouch_c, 0, 47, 0
1, 160350, Note_off_c, 0, 80, 0
1, 160371, Note_on_c, 0, 40, 89
1, 160373, Note_on_c, 0, 83, 89
1, 160377, Note_off_c, 0, 45, 53
1, 160378, Note_on_c, 0, 78, 88
1, 160380, Note_on_c, 0, 71, 78
1, 160387, Poly_aftertouch_c, 0, 80, 127
1, 160401, Note_on_c, 0, 81, 52
1, 160402, Note_off_c, 0, 81, 127
1, 160402, Note_off_c, 0, 71, 68
1, 160408, Poly_aftertouch_c, 0, 80, 0
1, 160408, Note_on_c, 0, 69, 27
1, 160409, Note_off_c, 0, 69, 127
1, 160424, Note_off_c, 0, 40, 65
1, 160444, Note_off_c, 0, 83, 61
1, 160452, Poly_aftertouch_c, 0, 69, 0
1, 160594, Control_c, 0, 64, 101
1, 160609, Control_c, 0, 64, 77
1, 160610, Note_on_c, 0, 45, 92
1, 160616, Note_on_c, 0, 85, 102
1, 160616, Note_on_c, 0, 33, 85
1, 160619, Note_on_c, 0, 73, 90
1, 160619, Poly_aftertouch_c, 0, 81, 0
1, 160621, Note_off_c, 0, 78, 37
1, 160622, Note_on_c, 0, 76, 87
1, 160624, Control_c, 0, 64, 0
1, 160669, Control_c, 0, 64, 58
1, 160684, Control_c, 0, 64, 74
1, 160699, Control_c, 0, 64, 88
1, 160713, Note_off_c, 0, 33, 64
1, 160714, Control_c, 0, 64, 107
1, 160728, Note_off_c, 0, 85, 65
1, 160729, Note_off_c, 0, 45, 65
1, 160729, Control_c, 0, 64, 121
1, 160740, Note_off_c, 0, 73, 57
1, 160743, Control_c, 0, 64, 124
1, 160801, Note_off_c, 0, 76, 54
1, 160822, Note_on_c, 0, 81, 99
1, 160830, Note_on_c, 0, 52, 84
1, 160884, Note_off_c, 0, 81, 59
1, 160921, Control_c, 0, 64, 124
1, 160977, Note_on_c, 0, 69, 97
1, 160982, Note_on_c, 0, 40, 93
1, 160995, Control_c, 0, 64, 125
1, 161010, Control_c, 0, 64, 127
1, 161014, Note_off_c, 0, 69, 69
1, 161075, Note_off_c, 0, 52, 39
1, 161173, Note_on_c, 0, 85, 96
1, 161175, Note_on_c, 0, 73, 98
1, 161180, Note_on_c, 0, 45, 88
1, 161181, Note_on_c, 0, 75, 89
1, 161193, Note_off_c, 0, 40, 61
1, 161323, Note_off_c, 0, 73, 59
1, 161327, Note_off_c, 0, 85, 62
1, 161401, Note_on_c, 0, 51, 91
1, 161401, Note_on_c, 0, 79, 100
1, 161404, Note_off_c, 0, 75, 39
1, 161523, Note_off_c, 0, 79, 51
1, 161563, Note_off_c, 0, 51, 53
1, 161596, Note_on_c, 0, 39, 78
1, 161596, Note_on_c, 0, 67, 99
1, 161609, Note_off_c, 0, 45, 57
1, 161616, Note_on_c, 0, 78, 32
1, 161632, Note_off_c, 0, 67, 64
1, 161652, Note_off_c, 0, 39, 62
1, 161678, Note_off_c, 0, 78, 38
1, 161848, Note_on_c, 0, 44, 93
1, 161850, Note_on_c, 0, 32, 89
1, 161929, Control_c, 0, 64, 116
1, 161937, Poly_aftertouch_c, 0, 79, 0
1, 161944, Control_c, 0, 64, 100
1, 161959, Control_c, 0, 64, 85
1, 161973, Control_c, 0, 64, 68
1, 161976, Note_on_c, 0, 85, 93
1, 161980, Note_on_c, 0, 73, 91
1, 161981, Note_on_c, 0, 75, 87
1, 161988, Control_c, 0, 64, 0
1, 162122, Control_c, 0, 64, 64
1, 162137, Control_c, 0, 64, 73
1, 162152, Control_c, 0, 64, 83
1, 162166, Control_c, 0, 64, 95
1, 162181, Control_c, 0, 64, 104
1, 162190, Note_off_c, 0, 32, 61
1, 162196, Control_c, 0, 64, 111
1, 162207, Note_off_c, 0, 44, 63
1, 162211, Control_c, 0, 64, 119
1, 162225, Control_c, 0, 64, 127
1, 162307, Note_on_c, 0, 80, 88
1, 162317, Note_on_c, 0, 51, 70
1, 162325, Note_off_c, 0, 73, 64
1, 162336, Note_off_c, 0, 85, 64
1, 162358, Note_off_c, 0, 75, 60
1, 162405, Note_off_c, 0, 80, 59
1, 162465, Note_off_c, 0, 51, 56
1, 162481, Note_on_c, 0, 68, 78
1, 162491, Note_on_c, 0, 39, 76
1, 162570, Note_off_c, 0, 68, 62
1, 162648, Note_on_c, 0, 75, 87
1, 162650, Note_on_c, 0, 44, 75
1, 162658, Note_on_c, 0, 73, 70
1, 162710, Note_off_c, 0, 73, 59
1, 162733, Note_off_c, 0, 75, 58
1, 162760, Note_off_c, 0, 39, 37
1, 162761, Note_on_c, 0, 76, 36
1, 162790, Note_off_c, 0, 76, 56
1, 162836, Note_on_c, 0, 51, 76
1, 162836, Note_on_c, 0, 84, 89
1, 162843, Note_on_c, 0, 80, 86
1, 162843, Note_on_c, 0, 72, 83
1, 162894, Note_off_c, 0, 72, 63
1, 162897, Note_off_c, 0, 84, 65
1, 162938, Note_off_c, 0, 80, 60
1, 162974, Note_off_c, 0, 51, 54
1, 162995, Note_on_c, 0, 39, 79
1, 162996, Note_off_c, 0, 44, 37
1, 163076, Note_on_c, 0, 73, 77
1, 163077, Note_on_c, 0, 80, 75
1, 163078, Note_on_c, 0, 68, 81
1, 163097, Note_on_c, 0, 75, 50
1, 163101, Note_off_c, 0, 68, 68
1, 163105, Note_off_c, 0, 80, 62
1, 163106, Note_off_c, 0, 73, 61
1, 163117, Note_off_c, 0, 75, 61
1, 163167, Note_on_c, 0, 73, 93
1, 163178, Note_on_c, 0, 80, 77
1, 163179, Note_on_c, 0, 44, 75
1, 163184, Note_on_c, 0, 75, 80
1, 163197, Note_off_c, 0, 39, 54
1, 163349, Note_off_c, 0, 80, 56
1, 163378, Note_on_c, 0, 51, 70
1, 163378, Note_on_c, 0, 72, 87
1, 163382, Note_off_c, 0, 73, 62
1, 163386, Note_off_c, 0, 75, 61
1, 163513, Note_off_c, 0, 51, 55
1, 163544, Note_on_c, 0, 39, 76
1, 163546, Note_off_c, 0, 44, 53
1, 163550, Note_off_c, 0, 72, 62
1, 163585, Note_on_c, 0, 68, 80
1, 163605, Note_off_c, 0, 68, 70
1, 163702, Note_on_c, 0, 61, 85
1, 163705, Note_on_c, 0, 68, 65
1, 163720, Note_off_c, 0, 39, 57
1, 163722, Note_on_c, 0, 44, 68
1, 163726, Note_on_c, 0, 63, 60
1, 163907, Note_on_c, 0, 60, 89
1, 163917, Note_on_c, 0, 51, 70
1, 163934, Note_off_c, 0, 63, 61
1, 163937, Note_off_c, 0, 61, 62
1, 163960, Note_off_c, 0, 68, 54
1, 164018, Note_off_c, 0, 51, 60
1, 164054, Note_on_c, 0, 39, 68
1, 164062, Note_off_c, 0, 44, 61
1, 164084, Note_off_c, 0, 60, 51
1, 164100, Note_off_c, 0, 39, 63
1, 164137, Note_on_c, 0, 56, 84
1, 164202, Note_off_c, 0, 56, 63
1, 164268, Note_on_c, 0, 32, 72
1, 164269, Note_on_c, 0, 44, 77
1, 164295, Control_c, 0, 64, 102
1, 164310, Control_c, 0, 64, 79
1, 164325, Control_c, 0, 64, 0
1, 164340, Note_on_c, 0, 56, 71
1, 164369, Control_c, 0, 64, 58
1, 164376, Note_off_c, 0, 56, 62
1, 164384, Control_c, 0, 64, 69
1, 164399, Control_c, 0, 64, 79
1, 164400, Note_on_c, 0, 68, 77
1, 164407, Note_off_c, 0, 32, 62
1, 164413, Control_c, 0, 64, 90
1, 164428, Control_c, 0, 64, 102
1, 164437, Note_off_c, 0, 44, 63
1, 164443, Control_c, 0, 64, 108
1, 164458, Control_c, 0, 64, 111
1, 164459, Note_on_c, 0, 60, 80
1, 164473, Control_c, 0, 64, 113
1, 164475, Note_off_c, 0, 68, 62
1, 164487, Control_c, 0, 64, 115
1, 164502, Control_c, 0, 64, 116
1, 164517, Control_c, 0, 64, 118
1, 164531, Note_on_c, 0, 63, 78
1, 164532, Control_c, 0, 64, 120
1, 164537, Note_off_c, 0, 60, 60
1, 164546, Control_c, 0, 64, 124
1, 164548, Note_on_c, 0, 51, 74
1, 164561, Control_c, 0, 64, 127
1, 164593, Note_on_c, 0, 68, 83
1, 164602, Note_off_c, 0, 63, 65
1, 164629, Note_off_c, 0, 68, 66
1, 164661, Note_off_c, 0, 51, 55
1, 164682, Note_on_c, 0, 68, 78
1, 164683, Note_on_c, 0, 39, 65
1, 164699, Note_on_c, 0, 70, 54
1, 164713, Note_off_c, 0, 68, 64
1, 164719, Note_off_c, 0, 70, 60
1, 164743, Note_on_c, 0, 80, 85
1, 164769, Note_off_c, 0, 80, 64
1, 164830, Note_on_c, 0, 80, 70
1, 164846, Note_on_c, 0, 82, 58
1, 164866, Note_off_c, 0, 80, 55
1, 164867, Note_off_c, 0, 82, 61
1, 164912, Note_on_c, 0, 92, 94
1, 164929, Note_on_c, 0, 44, 64
1, 164935, Note_off_c, 0, 39, 58
1, 164949, Note_off_c, 0, 92, 60
1, 165153, Note_on_c, 0, 63, 73
1, 165158, Note_on_c, 0, 51, 56
1, 165306, Note_off_c, 0, 51, 37
1, 165308, Note_off_c, 0, 63, 63
1, 165315, Note_on_c, 0, 58, 82
1, 165323, Note_on_c, 0, 39, 70
1, 165335, Note_off_c, 0, 44, 58
1, 165490, Note_on_c, 0, 60, 93
1, 165499, Note_on_c, 0, 44, 79
1, 165515, Note_off_c, 0, 58, 65
1, 165526, Note_off_c, 0, 39, 60
1, 165669, Note_on_c, 0, 63, 90
1, 165672, Note_on_c, 0, 51, 84
1, 165687, Note_off_c, 0, 60, 60
1, 165820, Note_off_c, 0, 51, 53
1, 165843, Note_on_c, 0, 70, 89
1, 165844, Note_on_c, 0, 58, 87
1, 165849, Note_on_c, 0, 39, 82
1, 165853, Note_off_c, 0, 63, 60
1, 165861, Note_off_c, 0, 44, 60
1, 165893, Note_off_c, 0, 58, 63
1, 165905, Note_off_c, 0, 70, 64
1, 166021, Note_on_c, 0, 60, 92
1, 166021, Note_on_c, 0, 72, 97
1, 166028, Note_on_c, 0, 44, 81
1, 166037, Note_off_c, 0, 39, 61
1, 166057, Note_off_c, 0, 60, 59
1, 166075, Note_off_c, 0, 72, 62
1, 166203, Note_on_c, 0, 75, 98
1, 166204, Note_on_c, 0, 63, 92
1, 166206, Note_on_c, 0, 51, 82
1, 166320, Note_off_c, 0, 63, 61
1, 166363, Note_off_c, 0, 51, 55
1, 166383, Note_on_c, 0, 39, 74
1, 166384, Note_on_c, 0, 70, 97
1, 166396, Note_off_c, 0, 44, 59
1, 166420, Note_off_c, 0, 75, 60
1, 166435, Note_off_c, 0, 39, 63
1, 166438, Note_off_c, 0, 70, 66
1, 166601, Note_on_c, 0, 44, 91
1, 166602, Note_on_c, 0, 32, 88
1, 166630, Control_c, 0, 64, 124
1, 166645, Control_c, 0, 64, 103
1, 166660, Control_c, 0, 64, 84
1, 166675, Control_c, 0, 64, 65
1, 166689, Control_c, 0, 64, 0
1, 166694, Note_on_c, 0, 80, 91
1, 166701, Note_on_c, 0, 68, 88
1, 166701, Note_on_c, 0, 72, 84
1, 166749, Control_c, 0, 64, 34
1, 166763, Control_c, 0, 64, 67
1, 166778, Control_c, 0, 64, 79
1, 166793, Control_c, 0, 64, 97
1, 166808, Note_off_c, 0, 72, 61
1, 166808, Control_c, 0, 64, 127
1, 166813, Note_off_c, 0, 68, 62
1, 166858, Note_off_c, 0, 32, 61
1, 166887, Note_off_c, 0, 44, 56
1, 166936, Note_off_c, 0, 80, 57
1, 166954, Note_on_c, 0, 75, 64
1, 166987, Note_off_c, 0, 75, 64
1, 167010, Note_on_c, 0, 77, 73
1, 167053, Note_off_c, 0, 77, 54
1, 167056, Note_on_c, 0, 51, 61
1, 167076, Note_on_c, 0, 75, 76
1, 167127, Note_off_c, 0, 75, 58
1, 167142, Note_on_c, 0, 77, 76
1, 167185, Note_off_c, 0, 77, 55
1, 167200, Note_on_c, 0, 75, 72
1, 167234, Note_on_c, 0, 39, 73
1, 167264, Note_off_c, 0, 75, 61
1, 167267, Note_off_c, 0, 51, 28
1, 167273, Note_on_c, 0, 77, 67
1, 167297, Note_off_c, 0, 77, 55
1, 167313, Note_on_c, 0, 75, 65
1, 167380, Note_off_c, 0, 75, 62
1, 167385, Note_on_c, 0, 77, 75
1, 167398, Note_on_c, 0, 44, 81
1, 167410, Note_off_c, 0, 39, 60
1, 167432, Note_on_c, 0, 75, 67
1, 167438, Note_off_c, 0, 77, 61
1, 167498, Note_off_c, 0, 75, 63
1, 167503, Note_on_c, 0, 77, 69
1, 167545, Note_off_c, 0, 77, 58
1, 167551, Note_on_c, 0, 75, 60
1, 167574, Note_on_c, 0, 51, 78
1, 167599, Note_on_c, 0, 77, 79
1, 167600, Note_off_c, 0, 44, 61
1, 167610, Note_off_c, 0, 75, 64
1, 167662, Note_on_c, 0, 75, 68
1, 167667, Note_off_c, 0, 77, 58
1, 167687, Note_off_c, 0, 51, 57
1, 167706, Note_off_c, 0, 75, 66
1, 167708, Note_on_c, 0, 39, 72
1, 167713, Note_on_c, 0, 74, 75
1, 167758, Note_off_c, 0, 74, 60
1, 167792, Note_on_c, 0, 75, 60
1, 167881, Note_off_c, 0, 75, 48
1, 167920, Note_on_c, 0, 80, 81
1, 167923, Note_off_c, 0, 39, 59
1, 167932, Note_on_c, 0, 44, 56
1, 167933, Note_on_c, 0, 68, 68
1, 167937, Note_on_c, 0, 72, 66
1, 168000, Note_off_c, 0, 68, 63
1, 168000, Note_off_c, 0, 80, 65
1, 168092, Note_off_c, 0, 72, 58
1, 168120, Note_on_c, 0, 77, 81
1, 168129, Note_on_c, 0, 65, 77
1, 168136, Note_on_c, 0, 75, 71
1, 168137, Note_on_c, 0, 51, 64
1, 168154, Note_off_c, 0, 44, 60
1, 168191, Note_off_c, 0, 65, 59
1, 168249, Note_off_c, 0, 77, 56
1, 168264, Note_off_c, 0, 75, 51
1, 168279, Note_off_c, 0, 51, 52
1, 168289, Note_on_c, 0, 70, 82
1, 168294, Note_on_c, 0, 79, 81
1, 168295, Note_on_c, 0, 67, 75
1, 168308, Note_on_c, 0, 39, 69
1, 168322, Note_off_c, 0, 67, 64
1, 168344, Note_off_c, 0, 79, 61
1, 168356, Note_off_c, 0, 70, 61
1, 168447, Note_on_c, 0, 80, 94
1, 168451, Note_on_c, 0, 68, 89
1, 168457, Note_on_c, 0, 72, 77
1, 168458, Note_on_c, 0, 44, 75
1, 168463, Note_off_c, 0, 39, 56
1, 168513, Note_off_c, 0, 68, 57
1, 168531, Note_off_c, 0, 80, 63
1, 168596, Note_off_c, 0, 72, 55
1, 168620, Note_on_c, 0, 77, 90
1, 168622, Note_on_c, 0, 65, 91
1, 168632, Note_on_c, 0, 75, 78
1, 168633, Note_on_c, 0, 51, 80
1, 168684, Note_off_c, 0, 65, 59
1, 168744, Note_off_c, 0, 51, 60
1, 168770, Note_off_c, 0, 75, 57
1, 168793, Note_on_c, 0, 79, 94
1, 168795, Note_on_c, 0, 70, 92
1, 168796, Note_on_c, 0, 67, 87
1, 168805, Note_on_c, 0, 39, 74
1, 168814, Note_off_c, 0, 44, 61
1, 168818, Note_off_c, 0, 77, 58
1, 168830, Note_off_c, 0, 67, 56
1, 168837, Note_off_c, 0, 39, 63
1, 168860, Note_off_c, 0, 70, 60
1, 168866, Note_off_c, 0, 79, 61
1, 169026, Note_on_c, 0, 80, 95
1, 169028, Note_on_c, 0, 68, 92
1, 169030, Note_on_c, 0, 44, 88
1, 169033, Note_on_c, 0, 72, 84
1, 169034, Note_on_c, 0, 32, 83
1, 169070, Control_c, 0, 64, 108
1, 169084, Control_c, 0, 64, 83
1, 169099, Control_c, 0, 64, 61
1, 169114, Control_c, 0, 64, 0
1, 169143, Control_c, 0, 64, 56
1, 169158, Control_c, 0, 64, 71
1, 169173, Note_off_c, 0, 32, 63
1, 169173, Control_c, 0, 64, 83
1, 169187, Note_off_c, 0, 44, 63
1, 169188, Control_c, 0, 64, 101
1, 169202, Control_c, 0, 64, 127
1, 169268, Note_on_c, 0, 75, 90
1, 169271, Note_on_c, 0, 51, 81
1, 169292, Note_off_c, 0, 72, 58
1, 169303, Note_off_c, 0, 80, 60
1, 169306, Note_off_c, 0, 68, 61
1, 169342, Note_off_c, 0, 75, 68
1, 169426, Note_on_c, 0, 67, 90
1, 169427, Note_on_c, 0, 79, 92
1, 169429, Note_on_c, 0, 70, 88
1, 169436, Note_on_c, 0, 39, 85
1, 169464, Note_off_c, 0, 51, 54
1, 169473, Note_off_c, 0, 67, 61
1, 169501, Note_off_c, 0, 79, 63
1, 169514, Note_off_c, 0, 70, 51
1, 169604, Note_on_c, 0, 80, 94
1, 169604, Note_on_c, 0, 44, 86
1, 169604, Note_on_c, 0, 68, 99
1, 169613, Note_on_c, 0, 70, 60
1, 169617, Note_on_c, 0, 71, 77
1, 169627, Note_off_c, 0, 39, 60
1, 169628, Note_off_c, 0, 70, 70
1, 169693, Note_off_c, 0, 68, 59
1, 169704, Note_off_c, 0, 80, 62
1, 169741, Note_off_c, 0, 71, 60
1, 169775, Note_on_c, 0, 51, 88
1, 169777, Note_on_c, 0, 78, 99
1, 169821, Note_on_c, 0, 76, 20
1, 169822, Note_off_c, 0, 44, 53
1, 169845, Note_off_c, 0, 76, 0
1, 169882, Note_off_c, 0, 51, 59
1, 169903, Note_off_c, 0, 78, 59
1, 169912, Poly_aftertouch_c, 0, 76, 0
1, 169916, Poly_aftertouch_c, 0, 44, 127
1, 169939, Note_on_c, 0, 76, 71
1, 169941, Note_on_c, 0, 70, 98
1, 169941, Note_on_c, 0, 82, 98
1, 169945, Note_on_c, 0, 39, 83
1, 169996, Note_off_c, 0, 39, 63
1, 169998, Poly_aftertouch_c, 0, 44, 0
1, 170025, Note_off_c, 0, 70, 59
1, 170078, Note_off_c, 0, 82, 60
1, 170181, Note_on_c, 0, 83, 98
1, 170181, Control_c, 0, 64, 89
1, 170182, Note_on_c, 0, 44, 95
1, 170182, Note_on_c, 0, 75, 90
1, 170185, Note_on_c, 0, 32, 91
1, 170185, Note_on_c, 0, 71, 98
1, 170196, Control_c, 0, 64, 34
1, 170199, Note_off_c, 0, 76, 52
1, 170211, Control_c, 0, 64, 0
1, 170256, Control_c, 0, 64, 16
1, 170271, Control_c, 0, 64, 68
1, 170286, Control_c, 0, 64, 85
1, 170294, Note_off_c, 0, 32, 62
1, 170301, Control_c, 0, 64, 109
1, 170304, Note_off_c, 0, 44, 64
1, 170316, Control_c, 0, 64, 127
1, 170350, Note_off_c, 0, 83, 60
1, 170400, Note_on_c, 0, 78, 105
1, 170401, Note_on_c, 0, 51, 79
1, 170421, Note_off_c, 0, 71, 59
1, 170449, Note_off_c, 0, 75, 61
1, 170566, Note_on_c, 0, 68, 102
1, 170568, Note_on_c, 0, 39, 84
1, 170600, Note_off_c, 0, 51, 60
1, 170623, Note_off_c, 0, 68, 62
1, 170739, Note_off_c, 0, 78, 58
1, 170763, Note_on_c, 0, 83, 101
1, 170766, Note_on_c, 0, 73, 93
1, 170768, Note_on_c, 0, 71, 96
1, 170773, Note_on_c, 0, 44, 95
1, 170806, Note_off_c, 0, 39, 60
1, 170925, Note_off_c, 0, 71, 57
1, 170934, Note_off_c, 0, 83, 58
1, 170994, Note_on_c, 0, 77, 98
1, 171000, Note_on_c, 0, 49, 86
1, 171020, Note_off_c, 0, 73, 61
1, 171047, Note_on_c, 0, 78, 23
1, 171080, Note_off_c, 0, 78, 34
1, 171153, Note_off_c, 0, 77, 44
1, 171181, Note_off_c, 0, 49, 56
1, 171202, Note_on_c, 0, 65, 98
1, 171203, Note_on_c, 0, 37, 76
1, 171225, Note_off_c, 0, 44, 61
1, 171244, Note_off_c, 0, 65, 68
1, 171254, Note_off_c, 0, 37, 65
1, 171473, Note_on_c, 0, 30, 84
1, 171473, Note_on_c, 0, 42, 86
1, 171568, Control_c, 0, 64, 117
1, 171583, Control_c, 0, 64, 102
1, 171597, Control_c, 0, 64, 83
1, 171610, Note_on_c, 0, 83, 94
1, 171611, Note_on_c, 0, 73, 89
1, 171612, Control_c, 0, 64, 66
1, 171613, Note_on_c, 0, 71, 88
1, 171627, Control_c, 0, 64, 0
1, 171768, Control_c, 0, 64, 21
1, 171783, Control_c, 0, 64, 65
1, 171798, Control_c, 0, 64, 76
1, 171813, Control_c, 0, 64, 89
1, 171828, Control_c, 0, 64, 105
1, 171843, Control_c, 0, 64, 123
1, 171858, Control_c, 0, 64, 127
1, 171862, Note_off_c, 0, 30, 62
1, 171874, Note_off_c, 0, 42, 63
1, 171988, Note_on_c, 0, 78, 91
1, 171995, Note_on_c, 0, 49, 61
1, 172009, Note_off_c, 0, 83, 63
1, 172012, Note_off_c, 0, 71, 57
1, 172021, Note_off_c, 0, 73, 59
1, 172123, Note_off_c, 0, 78, 59
1, 172171, Note_on_c, 0, 66, 82
1, 172174, Note_on_c, 0, 37, 72
1, 172257, Note_off_c, 0, 66, 62
1, 172281, Note_off_c, 0, 49, 23
1, 172330, Note_on_c, 0, 73, 86
1, 172340, Note_on_c, 0, 42, 69
1, 172346, Note_on_c, 0, 71, 62
1, 172364, Note_off_c, 0, 71, 63
1, 172382, Note_off_c, 0, 37, 58
1, 172512, Note_on_c, 0, 82, 80
1, 172514, Note_off_c, 0, 73, 62
1, 172517, Note_on_c, 0, 70, 79
1, 172517, Note_on_c, 0, 78, 84
1, 172519, Note_on_c, 0, 49, 69
1, 172558, Note_off_c, 0, 82, 64
1, 172566, Note_off_c, 0, 70, 56
1, 172578, Note_off_c, 0, 78, 63
1, 172678, Note_on_c, 0, 37, 72
1, 172683, Note_off_c, 0, 42, 52
1, 172712, Note_off_c, 0, 49, 30
1, 172747, Note_on_c, 0, 78, 81
1, 172749, Note_on_c, 0, 71, 73
1, 172749, Note_on_c, 0, 73, 73
1, 172752, Note_on_c, 0, 66, 73
1, 172778, Note_off_c, 0, 66, 68
1, 172788, Note_off_c, 0, 71, 58
1, 172803, Note_off_c, 0, 78, 61
1, 172806, Note_off_c, 0, 73, 61
1, 172847, Note_on_c, 0, 71, 89
1, 172852, Note_on_c, 0, 73, 63
1, 172853, Note_on_c, 0, 78, 67
1, 172868, Note_on_c, 0, 42, 61
1, 172889, Note_off_c, 0, 37, 56
1, 173038, Note_off_c, 0, 78, 61
1, 173060, Note_on_c, 0, 49, 69
1, 173085, Note_on_c, 0, 70, 85
1, 173098, Note_off_c, 0, 71, 54
1, 173106, Note_off_c, 0, 73, 53
1, 173243, Note_off_c, 0, 49, 32
1, 173247, Note_off_c, 0, 42, 54
1, 173248, Note_on_c, 0, 37, 70
1, 173270, Note_off_c, 0, 70, 60
1, 173302, Note_on_c, 0, 66, 88
1, 173328, Note_off_c, 0, 66, 66
1, 173439, Note_on_c, 0, 59, 77
1, 173446, Note_on_c, 0, 66, 68
1, 173448, Note_on_c, 0, 42, 54
1, 173452, Note_off_c, 0, 37, 51
1, 173465, Note_on_c, 0, 61, 55
1, 173644, Note_on_c, 0, 58, 85
1, 173651, Note_on_c, 0, 49, 61
1, 173657, Note_off_c, 0, 61, 52
1, 173660, Note_off_c, 0, 66, 54
1, 173667, Note_off_c, 0, 59, 62
1, 173776, Note_off_c, 0, 49, 58
1, 173828, Note_on_c, 0, 37, 62
1, 173834, Note_off_c, 0, 42, 63
1, 173840, Note_off_c, 0, 58, 55
1, 173865, Note_off_c, 0, 37, 63
1, 173891, Note_on_c, 0, 54, 82
1, 173962, Note_off_c, 0, 54, 59
1, 174058, Note_on_c, 0, 30, 62
1, 174063, Note_on_c, 0, 42, 67
1, 174088, Control_c, 0, 64, 110
1, 174103, Control_c, 0, 64, 90
1, 174118, Control_c, 0, 64, 71
1, 174132, Note_on_c, 0, 54, 66
1, 174132, Control_c, 0, 64, 0
1, 174177, Note_off_c, 0, 54, 60
1, 174177, Control_c, 0, 64, 66
1, 174192, Control_c, 0, 64, 76
1, 174197, Note_on_c, 0, 66, 76
1, 174206, Control_c, 0, 64, 87
1, 174213, Note_off_c, 0, 30, 62
1, 174222, Control_c, 0, 64, 98
1, 174237, Control_c, 0, 64, 107
1, 174240, Note_off_c, 0, 42, 61
1, 174252, Control_c, 0, 64, 112
1, 174265, Note_on_c, 0, 58, 74
1, 174267, Control_c, 0, 64, 116
1, 174281, Note_off_c, 0, 66, 62
1, 174282, Control_c, 0, 64, 120
1, 174296, Control_c, 0, 64, 125
1, 174311, Control_c, 0, 64, 127
1, 174339, Note_on_c, 0, 61, 74
1, 174348, Note_off_c, 0, 58, 62
1, 174364, Note_on_c, 0, 49, 66
1, 174388, Note_off_c, 0, 61, 63
1, 174391, Note_on_c, 0, 66, 67
1, 174420, Note_off_c, 0, 66, 67
1, 174455, Note_on_c, 0, 66, 85
1, 174478, Note_off_c, 0, 49, 55
1, 174485, Note_on_c, 0, 37, 57
1, 174496, Note_off_c, 0, 66, 67
1, 174526, Note_on_c, 0, 78, 81
1, 174553, Note_off_c, 0, 78, 61
1, 174610, Note_on_c, 0, 78, 81
1, 174671, Note_off_c, 0, 78, 61
1, 174714, Note_on_c, 0, 90, 92
1, 174747, Note_off_c, 0, 37, 55
1, 174749, Note_on_c, 0, 42, 51
1, 174757, Note_off_c, 0, 90, 65
1, 175002, Note_on_c, 0, 61, 70
1, 175017, Note_on_c, 0, 49, 48
1, 175182, Note_on_c, 0, 56, 81
1, 175187, Note_off_c, 0, 61, 64
1, 175199, Note_on_c, 0, 37, 55
1, 175201, Note_off_c, 0, 42, 57
1, 175324, Note_off_c, 0, 49, 18
1, 175446, Note_on_c, 0, 57, 81
1, 175463, Note_on_c, 0, 42, 54
1, 175475, Note_off_c, 0, 56, 61
1, 175491, Note_off_c, 0, 37, 40
1, 175513, Control_c, 0, 64, 119
1, 175527, Control_c, 0, 64, 109
1, 175542, Control_c, 0, 64, 100
1, 175557, Control_c, 0, 64, 91
1, 175572, Control_c, 0, 64, 79
1, 175587, Control_c, 0, 64, 67
1, 175601, Control_c, 0, 64, 0
1, 175646, Control_c, 0, 64, 64
1, 175661, Control_c, 0, 64, 70
1, 175673, Note_on_c, 0, 61, 78
1, 175676, Control_c, 0, 64, 75
1, 175691, Note_on_c, 0, 49, 51
1, 175691, Control_c, 0, 64, 81
1, 175705, Control_c, 0, 64, 88
1, 175720, Control_c, 0, 64, 97
1, 175735, Control_c, 0, 64, 104
1, 175750, Control_c, 0, 64, 109
1, 175765, Control_c, 0, 64, 111
1, 175766, Note_off_c, 0, 57, 32
1, 175779, Control_c, 0, 64, 111
1, 175839, Note_on_c, 0, 66, 90
1, 175839, Note_off_c, 0, 61, 61
1, 175845, Note_off_c, 0, 42, 61
1, 175847, Note_on_c, 0, 56, 69
1, 175856, Note_on_c, 0, 37, 60
1, 175952, Note_off_c, 0, 49, 28
1, 175959, Note_off_c, 0, 66, 63
1, 175971, Note_off_c, 0, 56, 60
1, 176032, Control_c, 0, 64, 111
1, 176042, Note_on_c, 0, 64, 88
1, 176047, Control_c, 0, 64, 107
1, 176053, Note_on_c, 0, 42, 60
1, 176055, Note_on_c, 0, 57, 75
1, 176062, Control_c, 0, 64, 98
1, 176063, Note_off_c, 0, 37, 55
1, 176076, Control_c, 0, 64, 85
1, 176091, Control_c, 0, 64, 71
1, 176106, Control_c, 0, 64, 44
1, 176120, Control_c, 0, 64, 45
1, 176135, Control_c, 0, 64, 64
1, 176158, Control_c, 0, 64, 70
1, 176173, Control_c, 0, 64, 76
1, 176188, Control_c, 0, 64, 85
1, 176202, Control_c, 0, 64, 98
1, 176217, Control_c, 0, 64, 112
1, 176232, Control_c, 0, 64, 127
1, 176242, Note_on_c, 0, 61, 82
1, 176245, Note_on_c, 0, 49, 68
1, 176263, Note_off_c, 0, 64, 61
1, 176418, Note_on_c, 0, 66, 86
1, 176430, Note_off_c, 0, 61, 59
1, 176434, Note_on_c, 0, 56, 68
1, 176438, Note_off_c, 0, 42, 58
1, 176442, Note_on_c, 0, 37, 56
1, 176451, Note_off_c, 0, 57, 47
1, 176574, Note_off_c, 0, 66, 61
1, 176588, Control_c, 0, 64, 127
1, 176602, Control_c, 0, 64, 124
1, 176618, Control_c, 0, 64, 121
1, 176626, Note_off_c, 0, 56, 61
1, 176633, Control_c, 0, 64, 119
1, 176648, Control_c, 0, 64, 117
1, 176663, Control_c, 0, 64, 115
1, 176678, Control_c, 0, 64, 113
1, 176692, Control_c, 0, 64, 111
1, 176707, Control_c, 0, 64, 108
1, 176722, Control_c, 0, 64, 105
1, 176728, Note_on_c, 0, 62, 87
1, 176736, Control_c, 0, 64, 101
1, 176737, Note_on_c, 0, 57, 67
1, 176742, Note_on_c, 0, 42, 54
1, 176747, Note_off_c, 0, 49, 11
1, 176751, Control_c, 0, 64, 94
1, 176766, Control_c, 0, 64, 85
1, 176781, Control_c, 0, 64, 77
1, 176794, Note_off_c, 0, 37, 37
1, 176796, Control_c, 0, 64, 67
1, 176811, Control_c, 0, 64, 13
1, 176825, Control_c, 0, 64, 0
1, 176921, Control_c, 0, 64, 57
1, 176936, Control_c, 0, 64, 68
1, 176950, Control_c, 0, 64, 75
1, 176965, Control_c, 0, 64, 83
1, 176980, Control_c, 0, 64, 88
1, 176995, Control_c, 0, 64, 92
1, 177010, Control_c, 0, 64, 94
1, 177014, Note_on_c, 0, 60, 71
1, 177020, Note_on_c, 0, 49, 45
1, 177024, Control_c, 0, 64, 95
1, 177039, Control_c, 0, 64, 96
1, 177054, Control_c, 0, 64, 96
1, 177082, Note_off_c, 0, 57, 38
1, 177098, Control_c, 0, 64, 97
1, 177128, Control_c, 0, 64, 97
1, 177132, Note_off_c, 0, 62, 48
1, 177158, Note_off_c, 0, 60, 59
1, 177172, Control_c, 0, 64, 98
1, 177175, Note_on_c, 0, 37, 55
1, 177178, Note_on_c, 0, 56, 75
1, 177178, Note_off_c, 0, 42, 37
1, 177187, Control_c, 0, 64, 98
1, 177202, Control_c, 0, 64, 100
1, 177217, Control_c, 0, 64, 101
1, 177222, Note_off_c, 0, 49, 37
1, 177226, Note_off_c, 0, 56, 64
1, 177232, Control_c, 0, 64, 103
1, 177247, Control_c, 0, 64, 106
1, 177262, Control_c, 0, 64, 109
1, 177277, Control_c, 0, 64, 112
1, 177291, Control_c, 0, 64, 118
1, 177306, Control_c, 0, 64, 127
1, 177340, Note_on_c, 0, 57, 52
1, 177369, Note_on_c, 0, 42, 63
1, 177375, Note_off_c, 0, 37, 58
1, 177409, Note_off_c, 0, 57, 58
1, 177523, Note_on_c, 0, 69, 81
1, 177539, Note_on_c, 0, 49, 59
1, 177552, Note_off_c, 0, 69, 64
1, 177702, Note_on_c, 0, 54, 72
1, 177716, Note_on_c, 0, 37, 57
1, 177754, Note_off_c, 0, 42, 38
1, 177816, Note_off_c, 0, 54, 60
1, 177829, Note_off_c, 0, 49, 23
1, 177847, Control_c, 0, 64, 115
1, 177862, Control_c, 0, 64, 102
1, 177877, Control_c, 0, 64, 90
1, 177892, Control_c, 0, 64, 76
1, 177907, Control_c, 0, 64, 63
1, 177917, Note_on_c, 0, 61, 74
1, 177921, Note_off_c, 0, 37, 57
1, 177921, Control_c, 0, 64, 0
1, 177923, Note_on_c, 0, 44, 52
1, 177924, Note_on_c, 0, 53, 57
1, 177951, Control_c, 0, 64, 39
1, 177965, Control_c, 0, 64, 66
1, 177980, Control_c, 0, 64, 72
1, 177995, Control_c, 0, 64, 79
1, 178010, Control_c, 0, 64, 88
1, 178025, Control_c, 0, 64, 94
1, 178040, Control_c, 0, 64, 99
1, 178055, Control_c, 0, 64, 101
1, 178070, Note_off_c, 0, 53, 50
1, 178070, Control_c, 0, 64, 105
1, 178085, Control_c, 0, 64, 109
1, 178093, Note_on_c, 0, 56, 68
1, 178099, Control_c, 0, 64, 113
1, 178105, Note_off_c, 0, 61, 60
1, 178105, Note_on_c, 0, 49, 58
1, 178114, Control_c, 0, 64, 117
1, 178115, Note_off_c, 0, 56, 67
1, 178129, Control_c, 0, 64, 121
1, 178144, Control_c, 0, 64, 127
1, 178226, Note_off_c, 0, 44, 27
1, 178260, Note_on_c, 0, 73, 89
1, 178267, Note_on_c, 0, 61, 75
1, 178292, Note_on_c, 0, 37, 56
1, 178329, Note_off_c, 0, 61, 56
1, 178395, Note_off_c, 0, 49, 32
1, 178464, Control_c, 0, 64, 123
1, 178478, Control_c, 0, 64, 113
1, 178484, Note_on_c, 0, 76, 87
1, 178493, Control_c, 0, 64, 101
1, 178496, Note_on_c, 0, 64, 73
1, 178498, Note_on_c, 0, 69, 71
1, 178506, Note_on_c, 0, 42, 51
1, 178508, Control_c, 0, 64, 89
1, 178510, Note_off_c, 0, 73, 50
1, 178519, Note_off_c, 0, 37, 62
1, 178523, Control_c, 0, 64, 76
1, 178538, Control_c, 0, 64, 62
1, 178553, Control_c, 0, 64, 0
1, 178642, Control_c, 0, 64, 32
1, 178657, Control_c, 0, 64, 65
1, 178671, Control_c, 0, 64, 73
1, 178686, Control_c, 0, 64, 81
1, 178691, Note_off_c, 0, 64, 60
1, 178701, Control_c, 0, 64, 87
1, 178704, Note_on_c, 0, 73, 75
1, 178711, Note_off_c, 0, 76, 65
1, 178715, Note_on_c, 0, 54, 54
1, 178715, Control_c, 0, 64, 92
1, 178730, Control_c, 0, 64, 96
1, 178745, Control_c, 0, 64, 101
1, 178749, Note_off_c, 0, 69, 58
1, 178755, Note_off_c, 0, 54, 62
1, 178760, Control_c, 0, 64, 103
1, 178775, Control_c, 0, 64, 104
1, 178890, Note_off_c, 0, 73, 50
1, 178900, Note_on_c, 0, 78, 87
1, 178906, Note_on_c, 0, 66, 76
1, 178912, Note_on_c, 0, 69, 53
1, 178929, Note_on_c, 0, 37, 43
1, 178962, Note_off_c, 0, 42, 36
1, 178991, Note_off_c, 0, 78, 64
1, 178994, Note_off_c, 0, 69, 63
1, 179011, Note_off_c, 0, 66, 61
1, 179042, Control_c, 0, 64, 104
1, 179072, Control_c, 0, 64, 103
1, 179086, Control_c, 0, 64, 103
1, 179116, Control_c, 0, 64, 102
1, 179131, Control_c, 0, 64, 101
1, 179153, Control_c, 0, 64, 100
1, 179168, Control_c, 0, 64, 99
1, 179183, Control_c, 0, 64, 98
1, 179198, Control_c, 0, 64, 97
1, 179213, Control_c, 0, 64, 96
1, 179227, Control_c, 0, 64, 94
1, 179238, Note_on_c, 0, 74, 82
1, 179242, Control_c, 0, 64, 92
1, 179250, Note_on_c, 0, 62, 67
1, 179257, Control_c, 0, 64, 89
1, 179259, Note_on_c, 0, 42, 49
1, 179260, Note_on_c, 0, 69, 64
1, 179272, Control_c, 0, 64, 85
1, 179287, Control_c, 0, 64, 80
1, 179301, Control_c, 0, 64, 75
1, 179316, Control_c, 0, 64, 68
1, 179321, Note_off_c, 0, 37, 40
1, 179331, Control_c, 0, 64, 53
1, 179345, Control_c, 0, 64, 0
1, 179405, Control_c, 0, 64, 37
1, 179420, Control_c, 0, 64, 58
1, 179435, Control_c, 0, 64, 64
1, 179450, Control_c, 0, 64, 70
1, 179465, Control_c, 0, 64, 76
1, 179480, Control_c, 0, 64, 83
1, 179494, Control_c, 0, 64, 88
1, 179509, Control_c, 0, 64, 92
1, 179524, Control_c, 0, 64, 95
1, 179527, Note_on_c, 0, 54, 54
1, 179538, Control_c, 0, 64, 97
1, 179542, Note_on_c, 0, 72, 64
1, 179553, Control_c, 0, 64, 97
1, 179566, Note_off_c, 0, 54, 61
1, 179569, Note_off_c, 0, 69, 61
1, 179686, Control_c, 0, 64, 97
1, 179701, Note_off_c, 0, 42, 41
1, 179716, Control_c, 0, 64, 96
1, 179717, Note_off_c, 0, 72, 63
1, 179721, Note_on_c, 0, 68, 66
1, 179722, Note_on_c, 0, 37, 49
1, 179731, Control_c, 0, 64, 96
1, 179760, Control_c, 0, 64, 95
1, 179775, Control_c, 0, 64, 95
1, 179790, Control_c, 0, 64, 94
1, 179805, Control_c, 0, 64, 93
1, 179821, Control_c, 0, 64, 90
1, 179835, Control_c, 0, 64, 85
1, 179850, Control_c, 0, 64, 79
1, 179865, Control_c, 0, 64, 71
1, 179880, Control_c, 0, 64, 58
1, 179903, Control_c, 0, 64, 0
1, 179938, Note_on_c, 0, 69, 69
1, 179948, Note_on_c, 0, 42, 45
1, 179952, Note_off_c, 0, 68, 58
1, 179962, Control_c, 0, 64, 48
1, 179967, Note_off_c, 0, 37, 58
1, 179976, Control_c, 0, 64, 62
1, 179991, Control_c, 0, 64, 68
1, 180006, Control_c, 0, 64, 75
1, 180021, Control_c, 0, 64, 82
1, 180034, Note_off_c, 0, 74, 58
1, 180036, Control_c, 0, 64, 87
1, 180050, Control_c, 0, 64, 91
1, 180065, Control_c, 0, 64, 93
1, 180080, Control_c, 0, 64, 94
1, 180095, Control_c, 0, 64, 95
1, 180124, Control_c, 0, 64, 96
1, 180138, Note_on_c, 0, 54, 51
1, 180145, Note_on_c, 0, 72, 65
1, 180165, Note_off_c, 0, 69, 55
1, 180188, Note_off_c, 0, 54, 63
1, 180270, Note_off_c, 0, 62, 38
1, 180302, Control_c, 0, 64, 95
1, 180325, Note_off_c, 0, 72, 63
1, 180329, Note_on_c, 0, 66, 67
1, 180332, Control_c, 0, 64, 95
1, 180335, Note_off_c, 0, 42, 41
1, 180347, Control_c, 0, 64, 94
1, 180356, Note_on_c, 0, 37, 43
1, 180361, Control_c, 0, 64, 94
1, 180362, Note_off_c, 0, 66, 65
1, 180376, Control_c, 0, 64, 93
1, 180391, Control_c, 0, 64, 93
1, 180391, Control_c, 0, 67, 9
1, 180406, Control_c, 0, 64, 92
1, 180406, Control_c, 0, 67, 11
1, 180421, Control_c, 0, 64, 92
1, 180421, Control_c, 0, 67, 13
1, 180435, Control_c, 0, 64, 90
1, 180435, Control_c, 0, 67, 16
1, 180450, Control_c, 0, 64, 87
1, 180450, Control_c, 0, 67, 19
1, 180465, Control_c, 0, 64, 82
1, 180465, Control_c, 0, 67, 21
1, 180480, Control_c, 0, 64, 75
1, 180480, Control_c, 0, 67, 22
1, 180494, Control_c, 0, 64, 65
1, 180509, Control_c, 0, 64, 0
1, 180514, Note_on_c, 0, 42, 45
1, 180524, Control_c, 0, 67, 21
1, 180538, Note_on_c, 0, 60, 65
1, 180539, Control_c, 0, 64, 49
1, 180548, Note_off_c, 0, 37, 47
1, 180554, Control_c, 0, 64, 63
1, 180554, Control_c, 0, 67, 20
1, 180568, Control_c, 0, 64, 67
1, 180583, Control_c, 0, 64, 73
1, 180583, Control_c, 0, 67, 20
1, 180591, Note_off_c, 0, 60, 60
1, 180598, Control_c, 0, 64, 81
1, 180598, Control_c, 0, 67, 19
1, 180613, Note_on_c, 0, 62, 59
1, 180614, Control_c, 0, 64, 88
1, 180614, Control_c, 0, 67, 18
1, 180629, Control_c, 0, 64, 92
1, 180651, Control_c, 0, 64, 95
1, 180665, Control_c, 0, 64, 97
1, 180671, Note_off_c, 0, 62, 57
1, 180680, Control_c, 0, 64, 98
1, 180689, Note_on_c, 0, 69, 62
1, 180695, Control_c, 0, 64, 100
1, 180710, Control_c, 0, 64, 101
1, 180718, Note_off_c, 0, 69, 70
1, 180719, Note_on_c, 0, 54, 45
1, 180725, Control_c, 0, 64, 102
1, 180725, Control_c, 0, 67, 18
1, 180739, Control_c, 0, 64, 103
1, 180746, Note_off_c, 0, 54, 60
1, 180754, Control_c, 0, 64, 103
1, 180769, Control_c, 0, 64, 104
1, 180774, Note_on_c, 0, 72, 74
1, 180784, Control_c, 0, 64, 104
1, 180784, Control_c, 0, 67, 17
1, 180798, Control_c, 0, 67, 17
1, 180813, Control_c, 0, 67, 16
1, 180828, Control_c, 0, 67, 16
1, 180838, Note_off_c, 0, 72, 60
1, 180843, Control_c, 0, 67, 15
1, 180857, Note_on_c, 0, 74, 61
1, 180858, Control_c, 0, 67, 15
1, 180872, Control_c, 0, 67, 14
1, 180887, Control_c, 0, 67, 13
1, 180900, Note_on_c, 0, 37, 46
1, 180902, Control_c, 0, 67, 12
1, 180904, Note_off_c, 0, 42, 39
1, 180916, Control_c, 0, 67, 11
1, 180919, Note_off_c, 0, 74, 54
1, 180931, Control_c, 0, 67, 11
1, 180940, Note_on_c, 0, 81, 66
1, 180946, Control_c, 0, 67, 9
1, 180961, Control_c, 0, 67, 0
1, 180965, Note_off_c, 0, 81, 62
1, 181024, Note_on_c, 0, 81, 76
1, 181142, Note_off_c, 0, 81, 49
1, 181162, Note_on_c, 0, 42, 43
1, 181164, Note_on_c, 0, 93, 80
1, 181204, Note_off_c, 0, 93, 61
1, 181213, Control_c, 0, 64, 105
1, 181217, Note_off_c, 0, 37, 41
1, 181225, Note_off_c, 0, 42, 62
1, 181228, Control_c, 0, 64, 107
1, 181243, Control_c, 0, 64, 111
1, 181257, Control_c, 0, 64, 114
1, 181272, Control_c, 0, 64, 119
1, 181287, Control_c, 0, 64, 123
1, 181302, Control_c, 0, 64, 127
1, 181393, Note_on_c, 0, 57, 57
1, 181433, Note_off_c, 0, 57, 61
1, 181547, Control_c, 0, 64, 126
1, 181562, Control_c, 0, 64, 124
1, 181577, Control_c, 0, 64, 121
1, 181592, Control_c, 0, 64, 119
1, 181607, Control_c, 0, 64, 117
1, 181621, Control_c, 0, 64, 116
1, 181636, Control_c, 0, 64, 115
1, 181640, Note_on_c, 0, 72, 62
1, 181651, Control_c, 0, 64, 114
1, 181653, Note_on_c, 0, 60, 50
1, 181659, Note_on_c, 0, 66, 53
1, 181663, Note_on_c, 0, 37, 41
1, 181666, Control_c, 0, 64, 113
1, 181681, Control_c, 0, 64, 112
1, 181695, Control_c, 0, 64, 112
1, 181710, Control_c, 0, 64, 111
1, 181725, Note_off_c, 0, 60, 58
1, 181725, Control_c, 0, 64, 111
1, 181744, Note_off_c, 0, 72, 61
1, 181757, Note_off_c, 0, 66, 64
1, 181784, Control_c, 0, 64, 110
1, 181829, Control_c, 0, 64, 110
1, 181858, Control_c, 0, 64, 109
1, 181888, Control_c, 0, 64, 108
1, 181903, Control_c, 0, 64, 107
1, 181918, Control_c, 0, 64, 106
1, 181932, Control_c, 0, 64, 103
1, 181947, Control_c, 0, 64, 100
1, 181948, Note_on_c, 0, 73, 65
1, 181961, Note_on_c, 0, 61, 44
1, 181962, Control_c, 0, 64, 95
1, 181969, Note_on_c, 0, 65, 56
1, 181975, Note_on_c, 0, 44, 41
1, 181977, Control_c, 0, 64, 88
1, 181992, Control_c, 0, 64, 79
1, 182006, Control_c, 0, 64, 68
1, 182007, Note_off_c, 0, 37, 42
1, 182021, Control_c, 0, 64, 30
1, 182036, Control_c, 0, 64, 0
1, 182125, Control_c, 0, 64, 53
1, 182147, Control_c, 0, 64, 66
1, 182162, Control_c, 0, 64, 72
1, 182177, Control_c, 0, 64, 78
1, 182192, Control_c, 0, 64, 82
1, 182207, Control_c, 0, 64, 85
1, 182214, Note_on_c, 0, 56, 43
1, 182215, Note_on_c, 0, 68, 61
1, 182222, Control_c, 0, 64, 88
1, 182237, Note_off_c, 0, 61, 60
1, 182237, Control_c, 0, 64, 92
1, 182240, Note_off_c, 0, 56, 57
1, 182243, Note_off_c, 0, 73, 56
1, 182252, Control_c, 0, 64, 95
1, 182267, Control_c, 0, 64, 98
1, 182282, Control_c, 0, 64, 99
1, 182297, Control_c, 0, 64, 99
1, 182309, Note_off_c, 0, 65, 37
1, 182422, Note_on_c, 0, 61, 69
1, 182430, Note_off_c, 0, 44, 38
1, 182434, Note_on_c, 0, 37, 42
1, 182562, Control_c, 0, 64, 99
1, 182592, Control_c, 0, 64, 98
1, 182607, Control_c, 0, 64, 98
1, 182622, Control_c, 0, 64, 97
1, 182636, Control_c, 0, 64, 96
1, 182651, Control_c, 0, 64, 96
1, 182662, Note_off_c, 0, 37, 40
1, 182666, Control_c, 0, 64, 95
1, 182696, Control_c, 0, 64, 94
1, 182711, Control_c, 0, 64, 94
1, 182723, Note_on_c, 0, 73, 77
1, 182726, Control_c, 0, 64, 92
1, 182738, Note_on_c, 0, 64, 59
1, 182741, Control_c, 0, 64, 91
1, 182749, Note_on_c, 0, 44, 39
1, 182756, Control_c, 0, 64, 89
1, 182770, Control_c, 0, 64, 86
1, 182779, Note_off_c, 0, 68, 54
1, 182785, Control_c, 0, 64, 83
1, 182800, Control_c, 0, 64, 78
1, 182815, Control_c, 0, 64, 71
1, 182830, Control_c, 0, 64, 62
1, 182844, Control_c, 0, 64, 0
1, 182886, Note_off_c, 0, 61, 25
1, 182999, Control_c, 0, 64, 62
1, 183015, Control_c, 0, 64, 68
1, 183030, Control_c, 0, 64, 73
1, 183045, Control_c, 0, 64, 77
1, 183059, Control_c, 0, 64, 81
1, 183072, Note_on_c, 0, 68, 52
1, 183074, Control_c, 0, 64, 84
1, 183089, Control_c, 0, 64, 87
1, 183104, Control_c, 0, 64, 89
1, 183104, Control_c, 0, 67, 9
1, 183108, Note_on_c, 0, 52, 28
1, 183119, Control_c, 0, 64, 90
1, 183119, Control_c, 0, 67, 13
1, 183133, Control_c, 0, 64, 91
1, 183133, Control_c, 0, 67, 18
1, 183145, Note_off_c, 0, 52, 51
1, 183148, Control_c, 0, 64, 91
1, 183148, Control_c, 0, 67, 24
1, 183163, Control_c, 0, 67, 28
1, 183178, Control_c, 0, 67, 33
1, 183192, Control_c, 0, 67, 38
1, 183207, Control_c, 0, 67, 44
1, 183222, Control_c, 0, 67, 48
1, 183237, Control_c, 0, 67, 52
1, 183252, Control_c, 0, 67, 54
1, 183266, Control_c, 0, 67, 55
1, 183281, Control_c, 0, 67, 56
1, 183288, Note_off_c, 0, 64, 21
1, 183296, Control_c, 0, 67, 56
1, 183310, Control_c, 0, 67, 57
1, 183320, Note_on_c, 0, 61, 54
1, 183325, Control_c, 0, 67, 58
1, 183340, Control_c, 0, 67, 59
1, 183346, Note_on_c, 0, 37, 34
1, 183346, Note_off_c, 0, 68, 38
1, 183355, Control_c, 0, 67, 59
1, 183370, Control_c, 0, 64, 91
1, 183382, Note_off_c, 0, 37, 48
1, 183393, Note_off_c, 0, 44, 37
1, 183434, Note_off_c, 0, 73, 28
1, 183474, Control_c, 0, 64, 90
1, 183489, Control_c, 0, 67, 60
1, 183518, Control_c, 0, 64, 90
1, 183533, Control_c, 0, 64, 89
1, 183563, Control_c, 0, 64, 89
1, 183577, Control_c, 0, 64, 88
1, 183578, Note_off_c, 0, 61, 36
1, 183592, Control_c, 0, 64, 88
1, 183607, Control_c, 0, 64, 87
1, 183621, Note_on_c, 0, 73, 63
1, 183622, Control_c, 0, 64, 86
1, 183623, Note_on_c, 0, 64, 55
1, 183644, Control_c, 0, 64, 85
1, 183659, Control_c, 0, 64, 82
1, 183659, Control_c, 0, 67, 59
1, 183674, Note_on_c, 0, 40, 33
1, 183674, Control_c, 0, 64, 78
1, 183689, Control_c, 0, 64, 72
1, 183704, Control_c, 0, 64, 63
1, 183718, Control_c, 0, 64, 0
1, 183763, Control_c, 0, 64, 50
1, 183778, Control_c, 0, 64, 59
1, 183792, Control_c, 0, 64, 64
1, 183808, Control_c, 0, 64, 69
1, 183808, Control_c, 0, 67, 59
1, 183823, Control_c, 0, 64, 74
1, 183838, Control_c, 0, 64, 80
1, 183838, Control_c, 0, 67, 58
1, 183853, Control_c, 0, 64, 86
1, 183853, Control_c, 0, 67, 58
1, 183867, Note_off_c, 0, 40, 40
1, 183867, Control_c, 0, 64, 89
1, 183882, Control_c, 0, 64, 91
1, 183897, Note_off_c, 0, 64, 61
1, 183897, Control_c, 0, 64, 93
1, 183897, Control_c, 0, 67, 57
1, 183909, Note_on_c, 0, 62, 64
1, 183912, Note_on_c, 0, 71, 62
1, 183912, Control_c, 0, 64, 95
1, 183927, Control_c, 0, 64, 95
1, 183939, Note_on_c, 0, 47, 50
1, 183941, Control_c, 0, 67, 57
1, 183944, Note_off_c, 0, 73, 56
1, 183966, Note_on_c, 0, 68, 28
1, 183971, Control_c, 0, 67, 56
1, 183979, Note_off_c, 0, 62, 50
1, 184015, Control_c, 0, 67, 56
1, 184030, Control_c, 0, 67, 57
1, 184119, Control_c, 0, 67, 57
1, 184151, Note_off_c, 0, 47, 44
1, 184151, Note_on_c, 0, 56, 60
1, 184152, Note_on_c, 0, 73, 73
1, 184165, Note_on_c, 0, 66, 60
1, 184174, Note_off_c, 0, 68, 37
1, 184177, Note_on_c, 0, 62, 55
1, 184187, Note_off_c, 0, 56, 62
1, 184203, Note_off_c, 0, 62, 54
1, 184204, Note_off_c, 0, 66, 61
1, 184212, Note_off_c, 0, 71, 35
1, 184249, Note_off_c, 0, 73, 61
1, 184282, Control_c, 0, 64, 95
1, 184282, Control_c, 0, 67, 57
1, 184297, Control_c, 0, 64, 94
1, 184312, Control_c, 0, 64, 94
1, 184312, Control_c, 0, 67, 56
1, 184326, Control_c, 0, 64, 93
1, 184341, Control_c, 0, 64, 92
1, 184341, Control_c, 0, 67, 56
1, 184356, Control_c, 0, 64, 91
1, 184371, Control_c, 0, 64, 88
1, 184393, Control_c, 0, 64, 84
1, 184408, Control_c, 0, 64, 77
1, 184423, Control_c, 0, 64, 69
1, 184423, Control_c, 0, 67, 55
1, 184438, Control_c, 0, 64, 28
1, 184453, Control_c, 0, 64, 0
1, 184458, Note_on_c, 0, 74, 59
1, 184467, Control_c, 0, 67, 55
1, 184468, Note_on_c, 0, 71, 54
1, 184472, Note_on_c, 0, 62, 52
1, 184478, Note_on_c, 0, 64, 48
1, 184480, Note_on_c, 0, 68, 39
1, 184483, Note_on_c, 0, 59, 38
1, 184497, Control_c, 0, 64, 54
1, 184512, Control_c, 0, 64, 65
1, 184527, Control_c, 0, 64, 73
1, 184534, Note_off_c, 0, 62, 61
1, 184540, Note_off_c, 0, 64, 62
1, 184541, Control_c, 0, 64, 81
1, 184556, Control_c, 0, 64, 90
1, 184564, Note_off_c, 0, 74, 63
1, 184571, Note_off_c, 0, 71, 61
1, 184571, Control_c, 0, 64, 96
1, 184577, Note_off_c, 0, 59, 50
1, 184583, Note_off_c, 0, 68, 56
1, 184586, Control_c, 0, 64, 99
1, 184601, Control_c, 0, 64, 101
1, 184617, Control_c, 0, 64, 101
1, 184646, Control_c, 0, 67, 55
1, 184676, Control_c, 0, 67, 55
1, 184706, Control_c, 0, 64, 102
1, 184706, Control_c, 0, 67, 54
1, 184780, Control_c, 0, 67, 54
1, 184802, Note_on_c, 0, 80, 72
1, 184809, Control_c, 0, 67, 55
1, 184819, Note_on_c, 0, 76, 56
1, 184826, Note_on_c, 0, 68, 54
1, 184839, Control_c, 0, 67, 55
1, 184854, Control_c, 0, 67, 56
1, 184869, Control_c, 0, 67, 57
1, 184878, Note_off_c, 0, 76, 48
1, 184884, Control_c, 0, 67, 57
1, 184913, Control_c, 0, 64, 103
1, 184928, Control_c, 0, 64, 104
1, 184928, Control_c, 0, 67, 58
1, 184943, Control_c, 0, 64, 105
1, 184943, Control_c, 0, 67, 59
1, 184953, Note_off_c, 0, 68, 60
1, 184957, Control_c, 0, 64, 106
1, 184972, Control_c, 0, 64, 107
1, 184987, Control_c, 0, 64, 107
1, 185061, Control_c, 0, 67, 59
1, 185077, Note_off_c, 0, 80, 61
1, 185143, Control_c, 0, 67, 58
1, 185157, Control_c, 0, 67, 57
1, 185187, Control_c, 0, 67, 57
1, 185202, Note_on_c, 0, 78, 72
1, 185218, Note_on_c, 0, 74, 49
1, 185218, Note_on_c, 0, 66, 51
1, 185324, Note_off_c, 0, 74, 60
1, 185325, Note_off_c, 0, 78, 61
1, 185364, Control_c, 0, 67, 57
1, 185379, Control_c, 0, 67, 58
1, 185387, Note_off_c, 0, 66, 53
1, 185410, Control_c, 0, 67, 58
1, 185425, Control_c, 0, 67, 59
1, 185454, Control_c, 0, 67, 59
1, 185484, Control_c, 0, 64, 107
1, 185499, Control_c, 0, 64, 106
1, 185513, Control_c, 0, 64, 106
1, 185528, Control_c, 0, 64, 105
1, 185543, Control_c, 0, 64, 105
1, 185558, Control_c, 0, 64, 104
1, 185573, Control_c, 0, 64, 103
1, 185587, Control_c, 0, 64, 103
1, 185587, Control_c, 0, 67, 59
1, 185602, Control_c, 0, 64, 102
1, 185617, Control_c, 0, 64, 100
1, 185617, Control_c, 0, 67, 58
1, 185632, Control_c, 0, 64, 99
1, 185647, Control_c, 0, 64, 98
1, 185662, Control_c, 0, 64, 96
1, 185662, Control_c, 0, 67, 57
1, 185677, Control_c, 0, 64, 94
1, 185692, Control_c, 0, 64, 91
1, 185706, Control_c, 0, 64, 86
1, 185721, Control_c, 0, 64, 80
1, 185728, Note_on_c, 0, 76, 55
1, 185730, Note_on_c, 0, 64, 45
1, 185735, Note_on_c, 0, 73, 49
1, 185736, Control_c, 0, 64, 73
1, 185751, Control_c, 0, 64, 66
1, 185754, Note_on_c, 0, 33, 32
1, 185756, Note_on_c, 0, 45, 31
1, 185766, Control_c, 0, 64, 52
1, 185766, Control_c, 0, 67, 57
1, 185780, Control_c, 0, 64, 0
1, 185795, Control_c, 0, 67, 56
1, 185810, Control_c, 0, 67, 56
1, 185825, Control_c, 0, 64, 32
1, 185840, Control_c, 0, 64, 49
1, 185840, Control_c, 0, 67, 55
1, 185854, Control_c, 0, 64, 62
1, 185869, Control_c, 0, 64, 67
1, 185891, Control_c, 0, 64, 74
1, 185904, Note_off_c, 0, 33, 56
1, 185906, Control_c, 0, 64, 84
1, 185921, Control_c, 0, 64, 93
1, 185921, Control_c, 0, 67, 55
1, 185936, Note_off_c, 0, 45, 52
1, 185936, Note_off_c, 0, 76, 64
1, 185936, Control_c, 0, 64, 99
1, 185951, Control_c, 0, 64, 102
1, 185960, Note_off_c, 0, 64, 62
1, 185966, Control_c, 0, 64, 103
1, 185966, Control_c, 0, 67, 55
1, 185980, Control_c, 0, 64, 103
1, 185995, Control_c, 0, 67, 56
1, 186010, Note_off_c, 0, 73, 58
1, 186010, Control_c, 0, 67, 56
1, 186025, Control_c, 0, 67, 57
1, 186054, Control_c, 0, 67, 57
1, 186087, Note_on_c, 0, 52, 48
1, 186173, Control_c, 0, 67, 57
1, 186218, Control_c, 0, 67, 56
1, 186239, Note_on_c, 0, 75, 65
1, 186239, Note_off_c, 0, 52, 56
1, 186248, Control_c, 0, 67, 56
1, 186252, Note_on_c, 0, 63, 53
1, 186258, Note_on_c, 0, 72, 45
1, 186277, Note_on_c, 0, 54, 35
1, 186292, Control_c, 0, 67, 55
1, 186315, Note_off_c, 0, 72, 54
1, 186342, Note_off_c, 0, 63, 59
1, 186347, Note_off_c, 0, 75, 61
1, 186440, Control_c, 0, 67, 56
1, 186441, Note_on_c, 0, 74, 68
1, 186464, Note_on_c, 0, 62, 41
1, 186483, Note_on_c, 0, 56, 38
1, 186500, Control_c, 0, 67, 57
1, 186503, Note_on_c, 0, 71, 31
1, 186508, Note_off_c, 0, 62, 0
1, 186508, Note_on_c, 0, 62, 9
1, 186557, Note_off_c, 0, 62, 57
1, 186565, Note_off_c, 0, 74, 62
1, 186574, Control_c, 0, 67, 56
1, 186577, Note_off_c, 0, 54, 36
1, 186589, Control_c, 0, 67, 55
1, 186606, Note_off_c, 0, 56, 0
1, 186618, Note_on_c, 0, 52, 56
1, 186640, Control_c, 0, 67, 55
1, 186649, Note_off_c, 0, 71, 34
1, 186670, Control_c, 0, 67, 54
1, 186699, Control_c, 0, 67, 54
1, 186729, Note_off_c, 0, 52, 43
1, 186744, Control_c, 0, 67, 53
1, 186759, Control_c, 0, 64, 103
1, 186774, Control_c, 0, 64, 102
1, 186779, Note_on_c, 0, 72, 74
1, 186789, Control_c, 0, 64, 101
1, 186789, Note_on_c, 0, 62, 51
1, 186789, Note_on_c, 0, 68, 61
1, 186803, Control_c, 0, 64, 101
1, 186818, Control_c, 0, 64, 100
1, 186818, Control_c, 0, 67, 54
1, 186834, Note_off_c, 0, 62, 62
1, 186846, Poly_aftertouch_c, 0, 56, 0
1, 186848, Note_off_c, 0, 68, 54
1, 186848, Control_c, 0, 64, 100
1, 186877, Control_c, 0, 64, 99
1, 186877, Control_c, 0, 67, 54
1, 186892, Control_c, 0, 67, 55
1, 186907, Control_c, 0, 64, 99
1, 186922, Control_c, 0, 64, 98
1, 186922, Control_c, 0, 67, 55
1, 186936, Note_off_c, 0, 72, 60
1, 186936, Control_c, 0, 64, 97
1, 186936, Control_c, 0, 67, 57
1, 186951, Control_c, 0, 64, 93
1, 186951, Control_c, 0, 67, 59
1, 186966, Control_c, 0, 64, 85
1, 186966, Control_c, 0, 67, 60
1, 186981, Control_c, 0, 64, 73
1, 186981, Control_c, 0, 67, 60
1, 186985, Note_on_c, 0, 73, 75
1, 186994, Note_on_c, 0, 45, 42
1, 186996, Control_c, 0, 64, 49
1, 186997, Note_on_c, 0, 61, 63
1, 187006, Note_on_c, 0, 69, 57
1, 187012, Control_c, 0, 64, 0
1, 187012, Control_c, 0, 67, 60
1, 187026, Control_c, 0, 67, 59
1, 187056, Control_c, 0, 64, 54
1, 187056, Control_c, 0, 67, 59
1, 187071, Control_c, 0, 64, 66
1, 187086, Control_c, 0, 64, 74
1, 187086, Control_c, 0, 67, 59
1, 187099, Note_off_c, 0, 61, 62
1, 187100, Note_off_c, 0, 73, 62
1, 187100, Control_c, 0, 64, 83
1, 187100, Control_c, 0, 67, 60
1, 187115, Control_c, 0, 64, 92
1, 187115, Control_c, 0, 67, 60
1, 187130, Control_c, 0, 64, 96
1, 187130, Control_c, 0, 67, 61
1, 187145, Control_c, 0, 64, 97
1, 187145, Control_c, 0, 67, 62
1, 187152, Note_on_c, 0, 52, 58
1, 187159, Control_c, 0, 64, 98
1, 187159, Control_c, 0, 67, 63
1, 187161, Note_off_c, 0, 45, 47
1, 187174, Control_c, 0, 64, 98
1, 187174, Control_c, 0, 67, 63
1, 187295, Note_on_c, 0, 45, 47
1, 187299, Note_off_c, 0, 69, 61
1, 187310, Note_on_c, 0, 64, 61
1, 187310, Note_on_c, 0, 73, 71
1, 187311, Note_on_c, 0, 76, 67
1, 187323, Note_off_c, 0, 52, 57
1, 187329, Note_off_c, 0, 64, 65
1, 187346, Note_off_c, 0, 73, 61
1, 187353, Note_off_c, 0, 76, 63
1, 187477, Control_c, 0, 67, 63
1, 187492, Control_c, 0, 67, 62
1, 187507, Control_c, 0, 64, 98
1, 187522, Control_c, 0, 64, 97
1, 187552, Note_on_c, 0, 81, 78
1, 187563, Note_on_c, 0, 69, 66
1, 187564, Note_on_c, 0, 52, 45
1, 187579, Note_on_c, 0, 73, 49
1, 187581, Control_c, 0, 64, 97
1, 187581, Control_c, 0, 67, 62
1, 187582, Note_off_c, 0, 45, 41
1, 187640, Control_c, 0, 67, 62
1, 187692, Note_off_c, 0, 81, 59
1, 187703, Note_off_c, 0, 69, 62
1, 187729, Control_c, 0, 67, 62
1, 187753, Note_on_c, 0, 57, 52
1, 187758, Control_c, 0, 67, 61
1, 187768, Note_off_c, 0, 73, 56
1, 187788, Control_c, 0, 67, 61
1, 187819, Control_c, 0, 67, 60
1, 187834, Control_c, 0, 64, 96
1, 187848, Control_c, 0, 64, 96
1, 187848, Control_c, 0, 67, 60
1, 187863, Control_c, 0, 64, 95
1, 187863, Control_c, 0, 67, 59
1, 187878, Control_c, 0, 64, 94
1, 187885, Note_off_c, 0, 57, 52
1, 187893, Control_c, 0, 64, 93
1, 187893, Control_c, 0, 67, 59
1, 187901, Note_on_c, 0, 80, 78
1, 187907, Control_c, 0, 64, 92
1, 187916, Note_on_c, 0, 76, 57
1, 187916, Note_on_c, 0, 68, 63
1, 187918, Note_on_c, 0, 61, 62
1, 187922, Control_c, 0, 64, 92
1, 187937, Control_c, 0, 64, 91
1, 187952, Control_c, 0, 64, 90
1, 187952, Control_c, 0, 67, 58
1, 187954, Note_off_c, 0, 61, 62
1, 187981, Control_c, 0, 64, 90
1, 187986, Note_off_c, 0, 80, 59
1, 187987, Note_off_c, 0, 68, 60
1, 187996, Control_c, 0, 67, 59
1, 188011, Control_c, 0, 64, 89
1, 188026, Control_c, 0, 64, 89
1, 188026, Control_c, 0, 67, 59
1, 188041, Control_c, 0, 64, 87
1, 188056, Control_c, 0, 64, 80
1, 188071, Control_c, 0, 64, 70
1, 188085, Control_c, 0, 64, 43
1, 188085, Control_c, 0, 67, 59
1, 188100, Control_c, 0, 64, 0
1, 188118, Note_on_c, 0, 78, 71
1, 188132, Note_on_c, 0, 66, 69
1, 188137, Control_c, 0, 67, 58
1, 188142, Note_off_c, 0, 52, 42
1, 188153, Control_c, 0, 64, 58
1, 188153, Control_c, 0, 67, 58
1, 188156, Note_on_c, 0, 74, 47
1, 188157, Note_off_c, 0, 76, 22
1, 188158, Note_on_c, 0, 45, 48
1, 188168, Control_c, 0, 64, 67
1, 188182, Control_c, 0, 64, 73
1, 188187, Note_off_c, 0, 74, 60
1, 188196, Note_off_c, 0, 66, 59
1, 188197, Control_c, 0, 64, 81
1, 188202, Note_off_c, 0, 78, 59
1, 188212, Control_c, 0, 64, 87
1, 188227, Control_c, 0, 64, 91
1, 188242, Control_c, 0, 64, 94
1, 188256, Control_c, 0, 64, 96
1, 188256, Control_c, 0, 67, 58
1, 188271, Control_c, 0, 64, 97
1, 188271, Control_c, 0, 67, 59
1, 188286, Control_c, 0, 67, 59
1, 188298, Note_off_c, 0, 45, 55
1, 188299, Note_on_c, 0, 76, 75
1, 188301, Control_c, 0, 64, 98
1, 188301, Control_c, 0, 67, 60
1, 188306, Note_on_c, 0, 64, 69
1, 188314, Note_on_c, 0, 52, 51
1, 188327, Note_off_c, 0, 64, 62
1, 188330, Control_c, 0, 67, 60
1, 188335, Note_off_c, 0, 76, 61
1, 188440, Note_on_c, 0, 74, 75
1, 188441, Note_on_c, 0, 62, 74
1, 188460, Note_on_c, 0, 45, 47
1, 188464, Control_c, 0, 67, 60
1, 188469, Note_off_c, 0, 62, 65
1, 188481, Note_off_c, 0, 52, 37
1, 188486, Note_off_c, 0, 74, 62
1, 188508, Control_c, 0, 67, 59
1, 188600, Note_off_c, 0, 45, 49
1, 188609, Note_on_c, 0, 78, 80
1, 188612, Note_on_c, 0, 52, 55
1, 188624, Note_on_c, 0, 66, 65
1, 188674, Note_on_c, 0, 74, 42
1, 188687, Control_c, 0, 64, 98
1, 188687, Control_c, 0, 67, 60
1, 188702, Control_c, 0, 64, 100
1, 188704, Note_off_c, 0, 78, 61
1, 188705, Note_off_c, 0, 66, 64
1, 188717, Control_c, 0, 64, 102
1, 188717, Control_c, 0, 67, 60
1, 188731, Control_c, 0, 64, 104
1, 188733, Note_off_c, 0, 74, 63
1, 188746, Control_c, 0, 64, 104
1, 188761, Control_c, 0, 67, 61
1, 188776, Control_c, 0, 67, 61
1, 188791, Control_c, 0, 67, 62
1, 188795, Note_on_c, 0, 56, 56
1, 188805, Control_c, 0, 67, 62
1, 188820, Control_c, 0, 67, 63
1, 188835, Control_c, 0, 67, 63
1, 188865, Control_c, 0, 67, 64
1, 188902, Control_c, 0, 64, 104
1, 188917, Control_c, 0, 64, 103
1, 188931, Control_c, 0, 64, 102
1, 188946, Control_c, 0, 64, 101
1, 188961, Control_c, 0, 64, 100
1, 188961, Control_c, 0, 67, 63
1, 188962, Note_on_c, 0, 71, 72
1, 188976, Control_c, 0, 64, 100
1, 188976, Control_c, 0, 67, 62
1, 188977, Note_on_c, 0, 68, 62
1, 188987, Note_on_c, 0, 62, 47
1, 188991, Control_c, 0, 64, 99
1, 189005, Control_c, 0, 64, 99
1, 189013, Note_off_c, 0, 62, 61
1, 189029, Note_off_c, 0, 68, 50
1, 189035, Control_c, 0, 64, 98
1, 189038, Note_off_c, 0, 56, 21
1, 189065, Control_c, 0, 64, 98
1, 189065, Control_c, 0, 67, 62
1, 189079, Control_c, 0, 64, 97
1, 189079, Control_c, 0, 67, 61
1, 189094, Control_c, 0, 64, 96
1, 189109, Control_c, 0, 64, 96
1, 189123, Control_c, 0, 64, 94
1, 189138, Control_c, 0, 64, 92
1, 189153, Control_c, 0, 64, 88
1, 189156, Note_off_c, 0, 52, 37
1, 189168, Control_c, 0, 64, 80
1, 189170, Note_on_c, 0, 73, 71
1, 189170, Note_off_c, 0, 71, 44
1, 189183, Control_c, 0, 64, 70
1, 189185, Note_on_c, 0, 61, 58
1, 189188, Note_on_c, 0, 69, 54
1, 189198, Control_c, 0, 64, 39
1, 189198, Control_c, 0, 67, 61
1, 189207, Note_on_c, 0, 45, 34
1, 189212, Control_c, 0, 64, 0
1, 189227, Control_c, 0, 67, 60
1, 189272, Control_c, 0, 67, 61
1, 189302, Control_c, 0, 64, 62
1, 189314, Note_off_c, 0, 61, 62
1, 189317, Control_c, 0, 64, 72
1, 189331, Control_c, 0, 64, 80
1, 189343, Note_off_c, 0, 69, 62
1, 189346, Control_c, 0, 64, 86
1, 189361, Control_c, 0, 64, 90
1, 189370, Note_off_c, 0, 73, 57
1, 189372, Note_on_c, 0, 52, 61
1, 189376, Note_off_c, 0, 45, 43
1, 189376, Control_c, 0, 64, 92
1, 189391, Control_c, 0, 64, 94
1, 189406, Control_c, 0, 64, 95
1, 189421, Control_c, 0, 64, 96
1, 189436, Control_c, 0, 67, 61
1, 189451, Control_c, 0, 67, 60
1, 189466, Control_c, 0, 67, 60
1, 189495, Control_c, 0, 67, 59
1, 189554, Control_c, 0, 67, 59
1, 189555, Note_off_c, 0, 52, 57
1, 189566, Note_on_c, 0, 45, 50
1, 189584, Control_c, 0, 67, 58
1, 189599, Control_c, 0, 67, 58
1, 189614, Control_c, 0, 67, 57
1, 189636, Control_c, 0, 67, 57
1, 189665, Control_c, 0, 67, 56
1, 189695, Control_c, 0, 67, 56
1, 189769, Control_c, 0, 67, 55
1, 189776, Note_on_c, 0, 76, 69
1, 189794, Note_on_c, 0, 64, 48
1, 189797, Note_on_c, 0, 73, 51
1, 189811, Note_off_c, 0, 45, 55
1, 189843, Control_c, 0, 67, 55
1, 189856, Poly_aftertouch_c, 0, 52, 127
1, 189887, Control_c, 0, 67, 54
1, 189917, Control_c, 0, 67, 54
1, 189976, Control_c, 0, 67, 53
1, 189991, Control_c, 0, 64, 96
1, 189991, Control_c, 0, 67, 52
1, 190006, Control_c, 0, 67, 50
1, 190013, Note_on_c, 0, 57, 59
1, 190020, Control_c, 0, 67, 47
1, 190035, Control_c, 0, 67, 44
1, 190050, Control_c, 0, 67, 41
1, 190065, Control_c, 0, 67, 37
1, 190080, Control_c, 0, 67, 34
1, 190095, Control_c, 0, 67, 31
1, 190109, Control_c, 0, 67, 28
1, 190124, Control_c, 0, 67, 26
1, 190129, Note_off_c, 0, 57, 60
1, 190159, Note_on_c, 0, 61, 56
1, 190169, Control_c, 0, 67, 27
1, 190184, Control_c, 0, 67, 27
1, 190194, Note_off_c, 0, 61, 63
1, 190229, Control_c, 0, 64, 96
1, 190244, Control_c, 0, 67, 27
1, 190259, Control_c, 0, 64, 95
1, 190267, Note_off_c, 0, 76, 65
1, 190273, Control_c, 0, 67, 27
1, 190288, Control_c, 0, 67, 28
1, 190292, Note_off_c, 0, 64, 62
1, 190303, Control_c, 0, 67, 29
1, 190318, Control_c, 0, 64, 95
1, 190318, Control_c, 0, 67, 30
1, 190327, Note_on_c, 0, 45, 62
1, 190345, Poly_aftertouch_c, 0, 52, 0
1, 190348, Control_c, 0, 64, 94
1, 190348, Control_c, 0, 67, 30
1, 190363, Control_c, 0, 64, 88
1, 190384, Control_c, 0, 64, 79
1, 190399, Control_c, 0, 64, 66
1, 190399, Control_c, 0, 67, 30
1, 190414, Control_c, 0, 64, 0
1, 190444, Control_c, 0, 64, 43
1, 190444, Control_c, 0, 67, 30
1, 190458, Control_c, 0, 64, 63
1, 190473, Control_c, 0, 64, 67
1, 190473, Control_c, 0, 67, 29
1, 190488, Control_c, 0, 64, 73
1, 190503, Control_c, 0, 64, 80
1, 190505, Note_off_c, 0, 45, 56
1, 190512, Note_on_c, 0, 52, 64
1, 190518, Control_c, 0, 64, 87
1, 190533, Control_c, 0, 64, 93
1, 190548, Control_c, 0, 64, 97
1, 190563, Control_c, 0, 64, 100
1, 190577, Control_c, 0, 64, 103
1, 190589, Note_off_c, 0, 73, 37
1, 190592, Control_c, 0, 64, 106
1, 190607, Control_c, 0, 64, 109
1, 190607, Control_c, 0, 67, 30
1, 190622, Control_c, 0, 64, 112
1, 190622, Control_c, 0, 67, 30
1, 190629, Note_on_c, 0, 75, 77
1, 190637, Control_c, 0, 64, 114
1, 190645, Note_on_c, 0, 63, 69
1, 190649, Note_on_c, 0, 72, 54
1, 190651, Control_c, 0, 64, 118
1, 190665, Note_on_c, 0, 45, 49
1, 190666, Note_off_c, 0, 52, 60
1, 190666, Control_c, 0, 64, 125
1, 190666, Control_c, 0, 67, 31
1, 190681, Control_c, 0, 64, 127
1, 190729, Note_off_c, 0, 72, 58
1, 190740, Control_c, 0, 67, 31
1, 190750, Note_off_c, 0, 63, 60
1, 190769, Control_c, 0, 67, 32
1, 190789, Note_off_c, 0, 75, 58
1, 190804, Note_on_c, 0, 52, 73
1, 190811, Note_off_c, 0, 45, 61
1, 190888, Control_c, 0, 67, 31
1, 190902, Control_c, 0, 67, 31
1, 190938, Note_on_c, 0, 74, 78
1, 190943, Note_on_c, 0, 62, 74
1, 190947, Control_c, 0, 67, 30
1, 190956, Note_on_c, 0, 56, 69
1, 190956, Note_on_c, 0, 71, 66
1, 190991, Note_off_c, 0, 62, 57
1, 190992, Control_c, 0, 67, 30
1, 191007, Control_c, 0, 67, 29
1, 191022, Control_c, 0, 67, 30
1, 191024, Note_off_c, 0, 74, 62
1, 191037, Control_c, 0, 67, 30
1, 191052, Control_c, 0, 67, 29
1, 191066, Control_c, 0, 67, 29
1, 191081, Control_c, 0, 67, 28
1, 191102, Note_on_c, 0, 68, 77
1, 191109, Note_on_c, 0, 62, 76
1, 191111, Note_on_c, 0, 72, 68
1, 191111, Control_c, 0, 67, 27
1, 191121, Note_on_c, 0, 74, 65
1, 191147, Note_off_c, 0, 74, 66
1, 191153, Note_off_c, 0, 71, 25
1, 191155, Note_off_c, 0, 56, 61
1, 191163, Control_c, 0, 67, 27
1, 191173, Note_off_c, 0, 62, 60
1, 191178, Control_c, 0, 67, 26
1, 191183, Note_off_c, 0, 68, 60
1, 191193, Control_c, 0, 67, 26
1, 191207, Control_c, 0, 67, 24
1, 191222, Control_c, 0, 67, 22
1, 191230, Note_off_c, 0, 72, 65
1, 191237, Control_c, 0, 67, 19
1, 191252, Control_c, 0, 67, 18
1, 191267, Control_c, 0, 67, 17
1, 191296, Control_c, 0, 64, 125
1, 191311, Control_c, 0, 64, 117
1, 191321, Note_on_c, 0, 73, 85
1, 191326, Control_c, 0, 64, 101
1, 191326, Note_on_c, 0, 45, 65
1, 191332, Note_on_c, 0, 69, 66
1, 191335, Note_on_c, 0, 61, 67
1, 191341, Control_c, 0, 64, 84
1, 191347, Note_off_c, 0, 52, 53
1, 191355, Control_c, 0, 64, 66
1, 191370, Control_c, 0, 64, 0
1, 191370, Control_c, 0, 67, 17
1, 191385, Control_c, 0, 67, 16
1, 191400, Note_off_c, 0, 61, 63
1, 191400, Control_c, 0, 67, 16
1, 191415, Control_c, 0, 64, 61
1, 191415, Control_c, 0, 67, 15
1, 191429, Note_off_c, 0, 73, 58
1, 191430, Control_c, 0, 64, 70
1, 191430, Control_c, 0, 67, 11
1, 191445, Control_c, 0, 64, 77
1, 191445, Control_c, 0, 67, 0
1, 191460, Control_c, 0, 64, 87
1, 191474, Control_c, 0, 64, 94
1, 191489, Control_c, 0, 64, 99
1, 191504, Control_c, 0, 64, 103
1, 191507, Note_on_c, 0, 76, 85
1, 191510, Note_on_c, 0, 73, 84
1, 191511, Note_on_c, 0, 52, 76
1, 191512, Note_on_c, 0, 64, 80
1, 191516, Note_off_c, 0, 45, 62
1, 191518, Control_c, 0, 64, 107
1, 191525, Note_off_c, 0, 69, 65
1, 191533, Control_c, 0, 64, 109
1, 191535, Note_off_c, 0, 64, 70
1, 191548, Control_c, 0, 64, 110
1, 191553, Note_off_c, 0, 76, 68
1, 191559, Note_off_c, 0, 73, 63
1, 191563, Control_c, 0, 64, 111
1, 191578, Control_c, 0, 64, 113
1, 191592, Control_c, 0, 64, 115
1, 191607, Control_c, 0, 64, 117
1, 191622, Control_c, 0, 64, 118
1, 191637, Control_c, 0, 64, 119
1, 191655, Note_on_c, 0, 81, 87
1, 191663, Note_on_c, 0, 45, 77
1, 191671, Note_on_c, 0, 69, 57
1, 191676, Note_off_c, 0, 52, 62
1, 191687, Note_on_c, 0, 67, 41
1, 191687, Note_on_c, 0, 72, 54
1, 191706, Note_off_c, 0, 69, 64
1, 191712, Note_off_c, 0, 72, 57
1, 191716, Note_off_c, 0, 67, 52
1, 191735, Note_off_c, 0, 81, 61
1, 191755, Poly_aftertouch_c, 0, 73, 0
1, 191837, Note_on_c, 0, 81, 92
1, 191842, Note_on_c, 0, 69, 90
1, 191844, Note_on_c, 0, 52, 80
1, 191846, Note_off_c, 0, 45, 63
1, 191850, Note_on_c, 0, 78, 80
1, 191927, Control_c, 0, 64, 120
1, 191942, Control_c, 0, 64, 123
1, 191955, Note_off_c, 0, 69, 58
1, 191956, Control_c, 0, 64, 127
1, 191963, Note_off_c, 0, 81, 55
1, 192007, Note_on_c, 0, 57, 83
1, 192056, Note_off_c, 0, 78, 63
1, 192118, Note_off_c, 0, 57, 51
1, 192140, Note_on_c, 0, 61, 82
1, 192142, Note_on_c, 0, 80, 89
1, 192149, Note_on_c, 0, 68, 85
1, 192151, Note_on_c, 0, 76, 65
1, 192169, Note_off_c, 0, 61, 62
1, 192173, Note_off_c, 0, 52, 60
1, 192198, Note_off_c, 0, 68, 60
1, 192211, Note_off_c, 0, 80, 59
1, 192224, Note_off_c, 0, 76, 53
1, 192334, Note_on_c, 0, 40, 82
1, 192357, Control_c, 0, 64, 113
1, 192372, Control_c, 0, 64, 95
1, 192384, Note_on_c, 0, 76, 48
1, 192384, Note_on_c, 0, 80, 88
1, 192387, Control_c, 0, 64, 79
1, 192390, Note_on_c, 0, 68, 84
1, 192402, Control_c, 0, 64, 62
1, 192416, Control_c, 0, 64, 0
1, 192461, Control_c, 0, 64, 56
1, 192475, Control_c, 0, 64, 71
1, 192490, Control_c, 0, 64, 80
1, 192505, Control_c, 0, 64, 91
1, 192510, Note_off_c, 0, 68, 62
1, 192520, Control_c, 0, 64, 98
1, 192525, Note_off_c, 0, 80, 61
1, 192535, Control_c, 0, 64, 101
1, 192549, Control_c, 0, 64, 102
1, 192557, Note_off_c, 0, 40, 63
1, 192576, Note_on_c, 0, 78, 88
1, 192577, Note_on_c, 0, 47, 75
1, 192582, Note_on_c, 0, 66, 88
1, 192586, Note_on_c, 0, 74, 75
1, 192613, Note_off_c, 0, 76, 37
1, 192637, Note_off_c, 0, 66, 63
1, 192644, Note_off_c, 0, 74, 60
1, 192644, Note_off_c, 0, 78, 61
1, 192682, Note_off_c, 0, 47, 62
1, 192713, Poly_aftertouch_c, 0, 49, 0
1, 192719, Note_on_c, 0, 76, 81
1, 192726, Note_on_c, 0, 56, 71
1, 192727, Note_on_c, 0, 64, 78
1, 192742, Note_off_c, 0, 64, 68
1, 192765, Control_c, 0, 64, 103
1, 192770, Note_off_c, 0, 56, 62
1, 192777, Note_off_c, 0, 76, 67
1, 192795, Control_c, 0, 64, 103
1, 192810, Control_c, 0, 64, 104
1, 192825, Control_c, 0, 64, 104
1, 192829, Poly_aftertouch_c, 0, 74, 127
1, 192854, Control_c, 0, 64, 105
1, 192869, Control_c, 0, 64, 105
1, 192876, Poly_aftertouch_c, 0, 74, 0
1, 192887, Note_on_c, 0, 74, 58
1, 192889, Note_on_c, 0, 78, 88
1, 192892, Note_on_c, 0, 66, 93
1, 192898, Control_c, 0, 64, 107
1, 192903, Note_on_c, 0, 52, 82
1, 192913, Control_c, 0, 64, 111
1, 192928, Control_c, 0, 64, 119
1, 192943, Control_c, 0, 64, 127
1, 192964, Note_off_c, 0, 66, 64
1, 192967, Note_off_c, 0, 78, 63
1, 192989, Note_off_c, 0, 74, 64
1, 193041, Note_on_c, 0, 56, 86
1, 193199, Note_on_c, 0, 71, 86
1, 193201, Note_on_c, 0, 62, 81
1, 193201, Note_on_c, 0, 68, 82
1, 193213, Note_off_c, 0, 56, 65
1, 193239, Note_off_c, 0, 52, 64
1, 193242, Note_off_c, 0, 62, 57
1, 193391, Note_off_c, 0, 68, 59
1, 193414, Note_on_c, 0, 73, 89
1, 193418, Note_on_c, 0, 45, 79
1, 193421, Note_on_c, 0, 61, 79
1, 193421, Note_on_c, 0, 69, 77
1, 193454, Note_off_c, 0, 71, 54
1, 193455, Control_c, 0, 64, 105
1, 193469, Control_c, 0, 64, 85
1, 193484, Control_c, 0, 64, 64
1, 193499, Control_c, 0, 64, 0
1, 193588, Control_c, 0, 64, 65
1, 193589, Note_on_c, 0, 52, 89
1, 193603, Control_c, 0, 64, 76
1, 193618, Control_c, 0, 64, 90
1, 193620, Note_off_c, 0, 45, 64
1, 193633, Control_c, 0, 64, 102
1, 193642, Note_off_c, 0, 61, 63
1, 193647, Control_c, 0, 64, 111
1, 193648, Note_off_c, 0, 73, 59
1, 193662, Control_c, 0, 64, 113
1, 193677, Control_c, 0, 64, 114
1, 193692, Control_c, 0, 64, 115
1, 193707, Control_c, 0, 64, 117
1, 193721, Control_c, 0, 64, 119
1, 193736, Control_c, 0, 64, 119
1, 193746, Note_on_c, 0, 45, 92
1, 193751, Control_c, 0, 64, 120
1, 193766, Control_c, 0, 64, 121
1, 193768, Note_off_c, 0, 52, 55
1, 193781, Control_c, 0, 64, 121
1, 193795, Control_c, 0, 64, 122
1, 193825, Control_c, 0, 64, 122
1, 193854, Control_c, 0, 64, 124
1, 193869, Control_c, 0, 64, 126
1, 193884, Control_c, 0, 64, 127
1, 193905, Note_off_c, 0, 69, 34
1, 193934, Note_on_c, 0, 73, 88
1, 193941, Note_on_c, 0, 61, 86
1, 193943, Note_on_c, 0, 52, 81
1, 193949, Note_on_c, 0, 64, 79
1, 193970, Note_off_c, 0, 45, 59
1, 194098, Note_off_c, 0, 52, 58
1, 194119, Note_off_c, 0, 61, 61
1, 194131, Note_on_c, 0, 55, 86
1, 194297, Note_on_c, 0, 61, 87
1, 194303, Note_off_c, 0, 55, 39
1, 194316, Note_off_c, 0, 61, 71
1, 194387, Note_off_c, 0, 73, 54
1, 194402, Note_off_c, 0, 64, 56
1, 194497, Note_on_c, 0, 32, 86
1, 194529, Control_c, 0, 64, 104
1, 194539, Note_on_c, 0, 31, 55
1, 194543, Control_c, 0, 64, 87
1, 194558, Control_c, 0, 64, 72
1, 194573, Control_c, 0, 64, 0
1, 194605, Note_off_c, 0, 31, 53
1, 194617, Control_c, 0, 64, 30
1, 194632, Control_c, 0, 64, 64
1, 194647, Control_c, 0, 64, 70
1, 194661, Control_c, 0, 64, 78
1, 194676, Control_c, 0, 64, 91
1, 194691, Control_c, 0, 64, 102
1, 194706, Control_c, 0, 64, 111
1, 194707, Note_on_c, 0, 63, 84
1, 194707, Note_on_c, 0, 72, 82
1, 194710, Note_on_c, 0, 60, 76
1, 194721, Control_c, 0, 64, 113
1, 194723, Note_on_c, 0, 44, 76
1, 194733, Note_off_c, 0, 60, 68
1, 194736, Control_c, 0, 64, 114
1, 194737, Note_off_c, 0, 32, 62
1, 194746, Note_off_c, 0, 63, 67
1, 194764, Note_off_c, 0, 44, 62
1, 194775, Note_off_c, 0, 72, 63
1, 194968, Note_on_c, 0, 76, 87
1, 194976, Note_on_c, 0, 64, 77
1, 194977, Note_on_c, 0, 54, 69
1, 194979, Note_on_c, 0, 68, 79
1, 195144, Note_off_c, 0, 76, 66
1, 195147, Note_off_c, 0, 64, 62
1, 195150, Note_on_c, 0, 56, 76
1, 195177, Note_off_c, 0, 54, 61
1, 195198, Note_off_c, 0, 68, 57
1, 195249, Note_off_c, 0, 56, 65
1, 195278, Note_on_c, 0, 60, 77
1, 195307, Note_off_c, 0, 60, 62
1, 195352, Control_c, 0, 64, 114
1, 195396, Control_c, 0, 64, 113
1, 195411, Control_c, 0, 64, 113
1, 195423, Note_on_c, 0, 75, 88
1, 195426, Note_on_c, 0, 63, 85
1, 195429, Note_on_c, 0, 66, 77
1, 195440, Control_c, 0, 64, 112
1, 195455, Control_c, 0, 64, 111
1, 195470, Control_c, 0, 64, 111
1, 195475, Note_off_c, 0, 63, 64
1, 195478, Note_off_c, 0, 66, 64
1, 195479, Note_off_c, 0, 75, 63
1, 195484, Control_c, 0, 64, 110
1, 195499, Control_c, 0, 64, 110
1, 195514, Control_c, 0, 64, 109
1, 195544, Control_c, 0, 64, 109
1, 195559, Control_c, 0, 64, 108
1, 195573, Control_c, 0, 64, 107
1, 195588, Control_c, 0, 64, 106
1, 195603, Control_c, 0, 64, 104
1, 195625, Control_c, 0, 64, 101
1, 195640, Control_c, 0, 64, 96
1, 195649, Note_on_c, 0, 73, 81
1, 195654, Note_on_c, 0, 61, 75
1, 195654, Note_on_c, 0, 64, 71
1, 195655, Control_c, 0, 64, 86
1, 195657, Poly_aftertouch_c, 0, 44, 127
1, 195669, Note_on_c, 0, 37, 69
1, 195670, Control_c, 0, 64, 73
1, 195685, Control_c, 0, 64, 44
1, 195690, Poly_aftertouch_c, 0, 44, 0
1, 195699, Control_c, 0, 64, 0
1, 195708, Note_off_c, 0, 64, 64
1, 195727, Note_off_c, 0, 61, 59
1, 195729, Control_c, 0, 64, 56
1, 195743, Note_off_c, 0, 73, 61
1, 195744, Control_c, 0, 64, 68
1, 195759, Control_c, 0, 64, 75
1, 195770, Note_on_c, 0, 70, 39
1, 195773, Control_c, 0, 64, 82
1, 195789, Control_c, 0, 64, 90
1, 195804, Control_c, 0, 64, 97
1, 195819, Control_c, 0, 64, 103
1, 195834, Control_c, 0, 64, 108
1, 195836, Note_off_c, 0, 37, 64
1, 195846, Note_on_c, 0, 44, 74
1, 195848, Note_on_c, 0, 63, 79
1, 195849, Note_on_c, 0, 75, 81
1, 195849, Control_c, 0, 64, 112
1, 195854, Note_on_c, 0, 66, 78
1, 195863, Control_c, 0, 64, 114
1, 195878, Control_c, 0, 64, 114
1, 195908, Note_off_c, 0, 63, 60
1, 195910, Note_off_c, 0, 66, 65
1, 195925, Note_off_c, 0, 75, 63
1, 195997, Note_on_c, 0, 56, 70
1, 195999, Note_on_c, 0, 68, 84
1, 196000, Note_on_c, 0, 76, 84
1, 196004, Note_on_c, 0, 64, 76
1, 196016, Note_off_c, 0, 70, 13
1, 196025, Note_off_c, 0, 56, 64
1, 196056, Control_c, 0, 64, 113
1, 196071, Note_off_c, 0, 44, 59
1, 196071, Control_c, 0, 64, 113
1, 196079, Note_off_c, 0, 76, 62
1, 196086, Control_c, 0, 64, 112
1, 196092, Note_off_c, 0, 64, 57
1, 196101, Control_c, 0, 64, 111
1, 196115, Control_c, 0, 64, 110
1, 196130, Control_c, 0, 64, 108
1, 196145, Control_c, 0, 64, 103
1, 196160, Control_c, 0, 64, 94
1, 196175, Control_c, 0, 64, 82
1, 196180, Note_on_c, 0, 76, 96
1, 196182, Note_on_c, 0, 64, 92
1, 196185, Note_on_c, 0, 70, 88
1, 196188, Note_on_c, 0, 36, 71
1, 196189, Control_c, 0, 64, 68
1, 196204, Control_c, 0, 64, 0
1, 196217, Note_off_c, 0, 68, 62
1, 196263, Control_c, 0, 64, 42
1, 196278, Control_c, 0, 64, 65
1, 196293, Control_c, 0, 64, 75
1, 196307, Control_c, 0, 64, 86
1, 196322, Control_c, 0, 64, 97
1, 196337, Control_c, 0, 64, 104
1, 196340, Note_off_c, 0, 36, 58
1, 196352, Control_c, 0, 64, 111
1, 196354, Note_on_c, 0, 42, 88
1, 196369, Note_off_c, 0, 64, 62
1, 196375, Control_c, 0, 64, 115
1, 196382, Note_off_c, 0, 76, 65
1, 196389, Control_c, 0, 64, 119
1, 196404, Control_c, 0, 64, 122
1, 196416, Note_off_c, 0, 70, 61
1, 196419, Control_c, 0, 64, 123
1, 196516, Note_on_c, 0, 54, 77
1, 196533, Note_off_c, 0, 54, 66
1, 196598, Control_c, 0, 64, 122
1, 196612, Control_c, 0, 64, 121
1, 196627, Control_c, 0, 64, 120
1, 196642, Control_c, 0, 64, 119
1, 196657, Control_c, 0, 64, 118
1, 196672, Control_c, 0, 64, 116
1, 196687, Control_c, 0, 64, 114
1, 196689, Note_on_c, 0, 35, 69
1, 196691, Note_off_c, 0, 42, 56
1, 196701, Control_c, 0, 64, 112
1, 196716, Control_c, 0, 64, 109
1, 196731, Control_c, 0, 64, 105
1, 196736, Note_on_c, 0, 76, 88
1, 196743, Note_on_c, 0, 64, 84
1, 196745, Control_c, 0, 64, 98
1, 196753, Note_on_c, 0, 71, 75
1, 196760, Control_c, 0, 64, 89
1, 196766, Poly_aftertouch_c, 0, 36, 127
1, 196775, Control_c, 0, 64, 76
1, 196790, Control_c, 0, 64, 65
1, 196796, Poly_aftertouch_c, 0, 36, 0
1, 196805, Control_c, 0, 64, 0
1, 196842, Note_off_c, 0, 64, 64
1, 196894, Control_c, 0, 64, 44
1, 196909, Control_c, 0, 64, 67
1, 196924, Control_c, 0, 64, 76
1, 196933, Note_off_c, 0, 76, 57
1, 196938, Control_c, 0, 64, 87
1, 196953, Control_c, 0, 64, 97
1, 196961, Note_off_c, 0, 35, 63
1, 196968, Control_c, 0, 64, 101
1, 196982, Note_on_c, 0, 75, 86
1, 196983, Control_c, 0, 64, 102
1, 196983, Note_on_c, 0, 63, 84
1, 196985, Note_on_c, 0, 47, 68
1, 197037, Note_off_c, 0, 47, 57
1, 197040, Note_off_c, 0, 63, 62
1, 197098, Note_off_c, 0, 71, 52
1, 197139, Note_on_c, 0, 64, 84
1, 197141, Note_on_c, 0, 76, 79
1, 197141, Note_on_c, 0, 71, 45
1, 197147, Note_on_c, 0, 54, 67
1, 197168, Control_c, 0, 64, 102
1, 197168, Note_off_c, 0, 64, 62
1, 197182, Note_off_c, 0, 75, 38
1, 197183, Control_c, 0, 64, 105
1, 197185, Note_off_c, 0, 76, 66
1, 197198, Control_c, 0, 64, 110
1, 197212, Control_c, 0, 64, 118
1, 197227, Control_c, 0, 64, 127
1, 197285, Note_off_c, 0, 71, 56
1, 197308, Note_on_c, 0, 78, 92
1, 197309, Note_on_c, 0, 66, 89
1, 197326, Note_on_c, 0, 57, 65
1, 197337, Note_on_c, 0, 69, 40
1, 197341, Note_off_c, 0, 66, 60
1, 197366, Note_off_c, 0, 69, 53
1, 197382, Note_off_c, 0, 78, 58
1, 197494, Note_on_c, 0, 80, 96
1, 197498, Note_on_c, 0, 68, 81
1, 197506, Note_on_c, 0, 71, 71
1, 197508, Note_on_c, 0, 63, 70
1, 197536, Note_off_c, 0, 71, 62
1, 197539, Note_off_c, 0, 63, 63
1, 197568, Note_off_c, 0, 68, 62
1, 197587, Note_off_c, 0, 57, 51
1, 197598, Note_off_c, 0, 80, 63
1, 197681, Note_off_c, 0, 54, 54
1, 197695, Note_on_c, 0, 81, 95
1, 197703, Note_on_c, 0, 69, 81
1, 197703, Note_on_c, 0, 73, 77
1, 197709, Note_on_c, 0, 47, 69
1, 197717, Control_c, 0, 64, 126
1, 197732, Control_c, 0, 64, 122
1, 197747, Control_c, 0, 64, 120
1, 197749, Note_off_c, 0, 47, 65
1, 197761, Control_c, 0, 64, 119
1, 197776, Control_c, 0, 64, 118
1, 197791, Control_c, 0, 64, 117
1, 197806, Control_c, 0, 64, 117
1, 197821, Control_c, 0, 64, 115
1, 197835, Control_c, 0, 64, 115
1, 197850, Control_c, 0, 64, 113
1, 197872, Control_c, 0, 64, 112
1, 197887, Control_c, 0, 64, 111
1, 197902, Control_c, 0, 64, 109
1, 197916, Control_c, 0, 64, 108
1, 197931, Control_c, 0, 64, 105
1, 197933, Note_on_c, 0, 40, 76
1, 197946, Control_c, 0, 64, 104
1, 197961, Control_c, 0, 64, 101
1, 197976, Control_c, 0, 64, 97
1, 197991, Control_c, 0, 64, 91
1, 198006, Control_c, 0, 64, 83
1, 198012, Note_on_c, 0, 78, 89
1, 198020, Control_c, 0, 64, 71
1, 198035, Control_c, 0, 64, 52
1, 198041, Note_off_c, 0, 73, 61
1, 198050, Control_c, 0, 64, 0
1, 198090, Note_off_c, 0, 69, 63
1, 198109, Control_c, 0, 64, 53
1, 198124, Control_c, 0, 64, 66
1, 198139, Control_c, 0, 64, 73
1, 198154, Control_c, 0, 64, 81
1, 198168, Control_c, 0, 64, 90
1, 198184, Control_c, 0, 64, 96
1, 198199, Note_off_c, 0, 78, 62
1, 198199, Control_c, 0, 64, 99
1, 198214, Control_c, 0, 64, 100
1, 198229, Control_c, 0, 64, 100
1, 198253, Note_on_c, 0, 80, 86
1, 198259, Note_on_c, 0, 68, 80
1, 198264, Note_off_c, 0, 40, 62
1, 198266, Note_on_c, 0, 76, 70
1, 198277, Note_on_c, 0, 47, 61
1, 198288, Control_c, 0, 64, 100
1, 198289, Note_off_c, 0, 81, 58
1, 198325, Note_off_c, 0, 68, 61
1, 198347, Control_c, 0, 64, 99
1, 198362, Control_c, 0, 64, 99
1, 198368, Note_off_c, 0, 80, 61
1, 198377, Control_c, 0, 64, 98
1, 198384, Note_off_c, 0, 76, 35
1, 198391, Control_c, 0, 64, 98
1, 198406, Control_c, 0, 64, 97
1, 198411, Note_off_c, 0, 47, 61
1, 198429, Note_on_c, 0, 81, 87
1, 198432, Note_on_c, 0, 69, 78
1, 198436, Control_c, 0, 64, 97
1, 198438, Note_on_c, 0, 78, 76
1, 198448, Note_on_c, 0, 56, 66
1, 198462, Note_off_c, 0, 69, 64
1, 198475, Note_off_c, 0, 81, 63
1, 198492, Note_off_c, 0, 78, 63
1, 198548, Note_off_c, 0, 56, 61
1, 198554, Control_c, 0, 64, 96
1, 198569, Control_c, 0, 64, 94
1, 198584, Control_c, 0, 64, 88
1, 198599, Control_c, 0, 64, 76
1, 198611, Note_on_c, 0, 80, 75
1, 198619, Note_on_c, 0, 68, 68
1, 198621, Control_c, 0, 64, 64
1, 198625, Note_on_c, 0, 76, 52
1, 198632, Note_on_c, 0, 42, 57
1, 198636, Control_c, 0, 64, 0
1, 198665, Control_c, 0, 64, 39
1, 198680, Control_c, 0, 64, 62
1, 198695, Control_c, 0, 64, 68
1, 198696, Note_off_c, 0, 68, 60
1, 198710, Control_c, 0, 64, 72
1, 198724, Control_c, 0, 64, 78
1, 198739, Control_c, 0, 64, 84
1, 198754, Control_c, 0, 64, 89
1, 198757, Note_off_c, 0, 80, 57
1, 198769, Control_c, 0, 64, 93
1, 198784, Control_c, 0, 64, 95
1, 198791, Note_on_c, 0, 78, 79
1, 198794, Note_on_c, 0, 66, 73
1, 198799, Control_c, 0, 64, 96
1, 198804, Note_on_c, 0, 74, 63
1, 198807, Note_on_c, 0, 50, 50
1, 198817, Note_off_c, 0, 42, 61
1, 198826, Note_off_c, 0, 66, 65
1, 198829, Note_off_c, 0, 76, 37
1, 198911, Note_off_c, 0, 78, 57
1, 198923, Note_off_c, 0, 50, 57
1, 198932, Control_c, 0, 64, 96
1, 198956, Note_on_c, 0, 80, 79
1, 198962, Control_c, 0, 64, 95
1, 198965, Note_on_c, 0, 68, 69
1, 198969, Note_on_c, 0, 76, 63
1, 198973, Note_off_c, 0, 74, 54
1, 198975, Note_on_c, 0, 57, 56
1, 198977, Control_c, 0, 64, 95
1, 198993, Control_c, 0, 64, 94
1, 199007, Control_c, 0, 64, 94
1, 199022, Control_c, 0, 64, 93
1, 199028, Note_off_c, 0, 68, 59
1, 199037, Control_c, 0, 64, 92
1, 199052, Control_c, 0, 64, 92
1, 199053, Note_off_c, 0, 80, 58
1, 199066, Control_c, 0, 64, 91
1, 199067, Note_off_c, 0, 57, 54
1, 199081, Control_c, 0, 64, 90
1, 199096, Control_c, 0, 64, 89
1, 199111, Control_c, 0, 64, 87
1, 199126, Control_c, 0, 64, 83
1, 199140, Control_c, 0, 64, 77
1, 199155, Control_c, 0, 64, 68
1, 199157, Note_off_c, 0, 76, 34
1, 199170, Control_c, 0, 64, 0
1, 199192, Note_on_c, 0, 78, 74
1, 199197, Note_on_c, 0, 66, 73
1, 199214, Note_on_c, 0, 44, 50
1, 199228, Note_on_c, 0, 74, 33
1, 199229, Control_c, 0, 64, 20
1, 199244, Control_c, 0, 64, 62
1, 199255, Note_off_c, 0, 74, 58
1, 199258, Control_c, 0, 64, 69
1, 199268, Note_off_c, 0, 66, 63
1, 199270, Note_off_c, 0, 78, 62
1, 199273, Control_c, 0, 64, 75
1, 199288, Control_c, 0, 64, 81
1, 199303, Control_c, 0, 64, 85
1, 199318, Control_c, 0, 64, 87
1, 199332, Control_c, 0, 64, 89
1, 199347, Control_c, 0, 64, 89
1, 199370, Control_c, 0, 64, 91
1, 199385, Control_c, 0, 64, 92
1, 199389, Note_on_c, 0, 76, 75
1, 199400, Control_c, 0, 64, 94
1, 199404, Note_off_c, 0, 44, 48
1, 199404, Note_on_c, 0, 64, 54
1, 199414, Control_c, 0, 64, 95
1, 199416, Note_on_c, 0, 52, 54
1, 199429, Control_c, 0, 64, 97
1, 199430, Note_off_c, 0, 76, 62
1, 199434, Note_off_c, 0, 64, 47
1, 199444, Control_c, 0, 64, 99
1, 199458, Control_c, 0, 64, 101
1, 199473, Control_c, 0, 64, 104
1, 199488, Control_c, 0, 64, 106
1, 199503, Control_c, 0, 64, 108
1, 199518, Control_c, 0, 64, 108
1, 199533, Control_c, 0, 64, 109
1, 199546, Note_off_c, 0, 52, 57
1, 199555, Note_on_c, 0, 44, 51
1, 199561, Note_on_c, 0, 75, 81
1, 199569, Note_on_c, 0, 63, 75
1, 199617, Note_off_c, 0, 75, 62
1, 199626, Note_off_c, 0, 63, 52
1, 199684, Note_off_c, 0, 44, 61
1, 199740, Control_c, 0, 64, 109
1, 199741, Note_on_c, 0, 52, 55
1, 199745, Note_on_c, 0, 74, 63
1, 199753, Note_on_c, 0, 62, 66
1, 199785, Control_c, 0, 64, 110
1, 199800, Control_c, 0, 64, 111
1, 199805, Note_off_c, 0, 62, 56
1, 199815, Control_c, 0, 64, 112
1, 199824, Note_off_c, 0, 74, 64
1, 199830, Control_c, 0, 64, 114
1, 199845, Control_c, 0, 64, 117
1, 199860, Control_c, 0, 64, 119
1, 199867, Note_off_c, 0, 52, 58
1, 199875, Control_c, 0, 64, 121
1, 199889, Control_c, 0, 64, 124
1, 199904, Control_c, 0, 64, 125
1, 199919, Control_c, 0, 64, 126
1, 199928, Note_on_c, 0, 64, 59
1, 200019, Note_off_c, 0, 64, 55
1, 200067, Note_on_c, 0, 68, 66
1, 200067, Control_c, 0, 64, 125
1, 200069, Note_on_c, 0, 72, 69
1, 200081, Control_c, 0, 64, 124
1, 200084, Note_off_c, 0, 68, 63
1, 200096, Control_c, 0, 64, 122
1, 200110, Note_on_c, 0, 52, 55
1, 200119, Control_c, 0, 64, 120
1, 200134, Control_c, 0, 64, 118
1, 200149, Control_c, 0, 64, 116
1, 200163, Control_c, 0, 64, 115
1, 200178, Control_c, 0, 64, 113
1, 200193, Control_c, 0, 64, 112
1, 200206, Note_off_c, 0, 72, 62
1, 200208, Control_c, 0, 64, 109
1, 200223, Control_c, 0, 64, 107
1, 200237, Control_c, 0, 64, 104
1, 200252, Control_c, 0, 64, 99
1, 200267, Control_c, 0, 64, 92
1, 200281, Control_c, 0, 64, 81
1, 200292, Note_on_c, 0, 73, 72
1, 200296, Control_c, 0, 64, 67
1, 200301, Note_on_c, 0, 61, 66
1, 200306, Note_off_c, 0, 52, 56
1, 200311, Control_c, 0, 64, 0
1, 200318, Note_on_c, 0, 69, 57
1, 200331, Note_on_c, 0, 45, 45
1, 200414, Control_c, 0, 64, 62
1, 200429, Control_c, 0, 64, 72
1, 200438, Note_off_c, 0, 61, 61
1, 200444, Control_c, 0, 64, 80
1, 200455, Note_off_c, 0, 73, 62
1, 200459, Control_c, 0, 64, 87
1, 200470, Note_off_c, 0, 45, 59
1, 200474, Control_c, 0, 64, 92
1, 200483, Note_on_c, 0, 52, 62
1, 200489, Control_c, 0, 64, 96
1, 200504, Control_c, 0, 64, 99
1, 200519, Control_c, 0, 64, 102
1, 200534, Control_c, 0, 64, 103
1, 200549, Control_c, 0, 64, 104
1, 200641, Note_on_c, 0, 76, 74
1, 200652, Note_off_c, 0, 69, 43
1, 200666, Note_off_c, 0, 52, 57
1, 200673, Note_on_c, 0, 45, 44
1, 200679, Note_on_c, 0, 72, 24
1, 200695, Note_off_c, 0, 76, 66
1, 200711, Note_off_c, 0, 72, 44
1, 200885, Note_on_c, 0, 81, 74
1, 200885, Note_off_c, 0, 45, 55
1, 200899, Note_on_c, 0, 69, 59
1, 200917, Note_on_c, 0, 52, 49
1, 200918, Note_on_c, 0, 73, 46
1, 201050, Note_off_c, 0, 81, 61
1, 201052, Note_off_c, 0, 69, 62
1, 201094, Note_on_c, 0, 57, 53
1, 201112, Note_off_c, 0, 73, 53
1, 201216, Note_off_c, 0, 57, 57
1, 201238, Control_c, 0, 64, 103
1, 201253, Control_c, 0, 64, 103
1, 201267, Note_on_c, 0, 80, 69
1, 201268, Control_c, 0, 64, 102
1, 201268, Control_c, 0, 67, 11
1, 201273, Note_on_c, 0, 61, 46
1, 201279, Note_on_c, 0, 76, 54
1, 201283, Note_on_c, 0, 68, 57
1, 201283, Control_c, 0, 64, 102
1, 201283, Control_c, 0, 67, 17
1, 201298, Control_c, 0, 64, 101
1, 201298, Control_c, 0, 67, 20
1, 201312, Control_c, 0, 64, 101
1, 201312, Control_c, 0, 67, 22
1, 201321, Note_off_c, 0, 61, 57
1, 201327, Control_c, 0, 64, 100
1, 201327, Control_c, 0, 67, 23
1, 201342, Control_c, 0, 64, 100
1, 201342, Control_c, 0, 67, 27
1, 201345, Note_off_c, 0, 68, 56
1, 201350, Note_off_c, 0, 76, 64
1, 201357, Control_c, 0, 64, 99
1, 201357, Control_c, 0, 67, 31
1, 201372, Control_c, 0, 64, 99
1, 201372, Control_c, 0, 67, 33
1, 201385, Note_off_c, 0, 80, 59
1, 201388, Control_c, 0, 64, 98
1, 201403, Control_c, 0, 64, 98
1, 201417, Control_c, 0, 64, 97
1, 201417, Control_c, 0, 67, 32
1, 201432, Control_c, 0, 67, 32
1, 201447, Control_c, 0, 64, 97
1, 201447, Control_c, 0, 67, 31
1, 201461, Control_c, 0, 64, 96
1, 201461, Control_c, 0, 67, 31
1, 201476, Control_c, 0, 64, 94
1, 201476, Control_c, 0, 67, 30
1, 201488, Note_off_c, 0, 52, 38
1, 201491, Control_c, 0, 64, 90
1, 201506, Control_c, 0, 64, 83
1, 201506, Control_c, 0, 67, 30
1, 201521, Control_c, 0, 64, 74
1, 201521, Control_c, 0, 67, 29
1, 201523, Note_on_c, 0, 80, 66
1, 201535, Control_c, 0, 64, 62
1, 201535, Control_c, 0, 67, 29
1, 201537, Note_on_c, 0, 68, 61
1, 201541, Note_on_c, 0, 76, 47
1, 201547, Note_on_c, 0, 45, 43
1, 201550, Control_c, 0, 64, 0
1, 201565, Control_c, 0, 67, 28
1, 201580, Control_c, 0, 64, 52
1, 201595, Control_c, 0, 64, 62
1, 201615, Note_off_c, 0, 68, 62
1, 201617, Control_c, 0, 64, 65
1, 201630, Note_off_c, 0, 80, 61
1, 201631, Control_c, 0, 64, 70
1, 201646, Control_c, 0, 64, 76
1, 201646, Control_c, 0, 67, 28
1, 201660, Control_c, 0, 64, 85
1, 201675, Control_c, 0, 64, 90
1, 201675, Control_c, 0, 67, 28
1, 201690, Control_c, 0, 64, 93
1, 201705, Control_c, 0, 64, 94
1, 201714, Note_off_c, 0, 76, 31
1, 201719, Note_on_c, 0, 78, 69
1, 201720, Control_c, 0, 64, 96
1, 201720, Control_c, 0, 67, 29
1, 201730, Note_on_c, 0, 66, 63
1, 201735, Control_c, 0, 64, 96
1, 201742, Note_off_c, 0, 45, 40
1, 201743, Note_on_c, 0, 52, 46
1, 201750, Control_c, 0, 64, 97
1, 201751, Note_off_c, 0, 78, 61
1, 201762, Note_off_c, 0, 66, 56
1, 201819, Poly_aftertouch_c, 0, 74, 0
1, 201881, Note_on_c, 0, 76, 59
1, 201890, Note_on_c, 0, 64, 57
1, 201892, Note_on_c, 0, 45, 39
1, 201908, Note_off_c, 0, 52, 34
1, 201909, Note_off_c, 0, 64, 62
1, 201917, Note_off_c, 0, 76, 65
1, 201943, Control_c, 0, 67, 29
1, 202002, Control_c, 0, 67, 30
1, 202017, Control_c, 0, 67, 30
1, 202032, Control_c, 0, 67, 31
1, 202061, Control_c, 0, 67, 31
1, 202075, Note_on_c, 0, 78, 69
1, 202077, Note_off_c, 0, 45, 39
1, 202084, Note_on_c, 0, 66, 60
1, 202105, Note_on_c, 0, 52, 42
1, 202108, Note_on_c, 0, 74, 47
1, 202121, Control_c, 0, 64, 97
1, 202135, Control_c, 0, 64, 98
1, 202150, Control_c, 0, 64, 99
1, 202150, Control_c, 0, 67, 32
1, 202165, Control_c, 0, 64, 100
1, 202170, Note_off_c, 0, 78, 61
1, 202172, Note_off_c, 0, 66, 63
1, 202181, Control_c, 0, 64, 100
1, 202194, Note_off_c, 0, 74, 63
1, 202196, Control_c, 0, 64, 101
1, 202196, Control_c, 0, 67, 32
1, 202225, Control_c, 0, 67, 33
1, 202270, Control_c, 0, 67, 33
1, 202296, Note_on_c, 0, 56, 48
1, 202299, Control_c, 0, 67, 34
1, 202314, Control_c, 0, 67, 36
1, 202329, Control_c, 0, 67, 41
1, 202344, Control_c, 0, 67, 45
1, 202366, Control_c, 0, 67, 48
1, 202381, Control_c, 0, 67, 51
1, 202396, Control_c, 0, 67, 53
1, 202411, Control_c, 0, 64, 100
1, 202411, Control_c, 0, 67, 55
1, 202426, Control_c, 0, 67, 56
1, 202440, Control_c, 0, 64, 100
1, 202455, Control_c, 0, 64, 99
1, 202484, Control_c, 0, 64, 99
1, 202484, Control_c, 0, 67, 55
1, 202495, Note_on_c, 0, 71, 65
1, 202499, Control_c, 0, 64, 98
1, 202505, Note_on_c, 0, 68, 60
1, 202514, Control_c, 0, 64, 98
1, 202516, Note_on_c, 0, 62, 52
1, 202529, Control_c, 0, 64, 97
1, 202529, Control_c, 0, 67, 55
1, 202553, Note_off_c, 0, 62, 64
1, 202573, Control_c, 0, 64, 97
1, 202573, Control_c, 0, 67, 54
1, 202575, Note_off_c, 0, 68, 57
1, 202588, Control_c, 0, 64, 96
1, 202588, Control_c, 0, 67, 54
1, 202591, Note_off_c, 0, 71, 55
1, 202605, Note_off_c, 0, 56, 38
1, 202618, Control_c, 0, 64, 96
1, 202632, Control_c, 0, 64, 95
1, 202647, Control_c, 0, 64, 95
1, 202647, Control_c, 0, 67, 53
1, 202662, Control_c, 0, 64, 94
1, 202692, Control_c, 0, 64, 94
1, 202707, Control_c, 0, 64, 93
1, 202722, Note_off_c, 0, 52, 37
1, 202722, Control_c, 0, 64, 92
1, 202737, Control_c, 0, 64, 90
1, 202751, Control_c, 0, 64, 89
1, 202764, Note_on_c, 0, 73, 65
1, 202766, Control_c, 0, 64, 87
1, 202781, Control_c, 0, 64, 84
1, 202782, Note_on_c, 0, 61, 54
1, 202784, Note_on_c, 0, 69, 53
1, 202789, Note_on_c, 0, 45, 39
1, 202796, Control_c, 0, 64, 80
1, 202810, Control_c, 0, 64, 75
1, 202810, Control_c, 0, 67, 53
1, 202825, Control_c, 0, 64, 68
1, 202840, Control_c, 0, 64, 50
1, 202855, Control_c, 0, 64, 0
1, 202959, Note_off_c, 0, 61, 63
1, 202974, Note_off_c, 0, 45, 60
1, 202974, Control_c, 0, 64, 63
1, 202989, Control_c, 0, 64, 73
1, 202989, Control_c, 0, 67, 52
1, 202995, Note_off_c, 0, 69, 64
1, 203002, Note_on_c, 0, 52, 51
1, 203004, Control_c, 0, 64, 83
1, 203007, Note_off_c, 0, 73, 61
1, 203019, Control_c, 0, 64, 90
1, 203033, Control_c, 0, 64, 93
1, 203048, Control_c, 0, 64, 95
1, 203063, Control_c, 0, 64, 95
1, 203078, Control_c, 0, 64, 96
1, 203093, Control_c, 0, 67, 52
1, 203130, Control_c, 0, 67, 51
1, 203160, Control_c, 0, 67, 51
1, 203165, Note_on_c, 0, 45, 40
1, 203166, Note_on_c, 0, 64, 67
1, 203172, Note_off_c, 0, 52, 59
1, 203189, Control_c, 0, 67, 50
1, 203218, Note_off_c, 0, 64, 62
1, 203219, Control_c, 0, 67, 50
1, 203248, Control_c, 0, 67, 49
1, 203254, Note_on_c, 0, 73, 57
1, 203267, Note_on_c, 0, 76, 53
1, 203276, Note_off_c, 0, 73, 66
1, 203286, Note_off_c, 0, 76, 66
1, 203307, Control_c, 0, 67, 50
1, 203347, Note_on_c, 0, 76, 71
1, 203381, Control_c, 0, 67, 50
1, 203510, Note_on_c, 0, 88, 79
1, 203548, Note_on_c, 0, 85, 58
1, 203550, Note_on_c, 0, 52, 42
1, 203561, Note_off_c, 0, 45, 42
1, 203619, Control_c, 0, 67, 50
1, 203779, Note_on_c, 0, 57, 50
1, 203797, Control_c, 0, 67, 50
1, 203827, Control_c, 0, 67, 51
1, 203902, Note_off_c, 0, 88, 61
1, 203905, Note_off_c, 0, 57, 61
1, 203923, Control_c, 0, 67, 51
1, 203936, Note_off_c, 0, 76, 61
1, 203953, Control_c, 0, 67, 52
1, 203960, Note_on_c, 0, 61, 56
1, 203968, Control_c, 0, 67, 52
1, 204008, Note_off_c, 0, 61, 55
1, 204012, Control_c, 0, 67, 53
1, 204056, Control_c, 0, 67, 52
1, 204071, Control_c, 0, 64, 95
1, 204086, Control_c, 0, 64, 95
1, 204101, Control_c, 0, 64, 94
1, 204130, Control_c, 0, 64, 93
1, 204145, Control_c, 0, 64, 93
1, 204153, Note_off_c, 0, 52, 43
1, 204160, Control_c, 0, 64, 92
1, 204160, Control_c, 0, 67, 52
1, 204161, Note_off_c, 0, 85, 23
1, 204170, Note_on_c, 0, 45, 50
1, 204175, Control_c, 0, 64, 91
1, 204190, Control_c, 0, 64, 90
1, 204204, Control_c, 0, 64, 89
1, 204219, Control_c, 0, 64, 87
1, 204219, Control_c, 0, 67, 51
1, 204234, Control_c, 0, 64, 85
1, 204249, Control_c, 0, 64, 82
1, 204263, Control_c, 0, 64, 79
1, 204263, Control_c, 0, 67, 51
1, 204278, Control_c, 0, 64, 73
1, 204293, Control_c, 0, 64, 65
1, 204308, Control_c, 0, 64, 34
1, 204308, Control_c, 0, 67, 50
1, 204323, Control_c, 0, 64, 0
1, 204336, Note_on_c, 0, 87, 66
1, 204346, Note_on_c, 0, 84, 57
1, 204352, Note_on_c, 0, 75, 58
1, 204352, Control_c, 0, 64, 54
1, 204367, Control_c, 0, 64, 64
1, 204372, Note_off_c, 0, 45, 51
1, 204382, Control_c, 0, 64, 68
1, 204391, Note_on_c, 0, 52, 33
1, 204397, Control_c, 0, 64, 73
1, 204412, Control_c, 0, 64, 80
1, 204419, Note_off_c, 0, 84, 64
1, 204427, Control_c, 0, 64, 88
1, 204442, Control_c, 0, 64, 92
1, 204456, Control_c, 0, 64, 95
1, 204456, Control_c, 0, 67, 51
1, 204471, Control_c, 0, 64, 96
1, 204501, Note_off_c, 0, 75, 60
1, 204501, Control_c, 0, 64, 97
1, 204516, Note_off_c, 0, 87, 60
1, 204516, Control_c, 0, 67, 51
1, 204546, Note_off_c, 0, 52, 55
1, 204559, Note_on_c, 0, 45, 46
1, 204628, Control_c, 0, 67, 51
1, 204649, Note_on_c, 0, 86, 72
1, 204653, Note_on_c, 0, 74, 68
1, 204658, Control_c, 0, 64, 96
1, 204669, Note_on_c, 0, 83, 48
1, 204675, Note_off_c, 0, 74, 66
1, 204679, Note_off_c, 0, 86, 59
1, 204687, Control_c, 0, 67, 50
1, 204691, Note_off_c, 0, 83, 58
1, 204709, Note_off_c, 0, 45, 35
1, 204749, Note_on_c, 0, 86, 69
1, 204750, Note_on_c, 0, 52, 44
1, 204754, Note_on_c, 0, 74, 60
1, 204767, Note_on_c, 0, 83, 65
1, 204806, Control_c, 0, 67, 51
1, 204815, Note_off_c, 0, 74, 61
1, 204850, Control_c, 0, 67, 51
1, 204860, Note_off_c, 0, 86, 60
1, 204884, Note_off_c, 0, 83, 52
1, 204984, Control_c, 0, 67, 52
1, 205013, Control_c, 0, 67, 52
1, 205017, Note_on_c, 0, 85, 70
1, 205025, Note_on_c, 0, 73, 64
1, 205033, Note_on_c, 0, 81, 53
1, 205036, Note_on_c, 0, 56, 39
1, 205043, Control_c, 0, 67, 53
1, 205073, Control_c, 0, 67, 53
1, 205077, Note_off_c, 0, 81, 57
1, 205139, Note_off_c, 0, 73, 58
1, 205183, Note_off_c, 0, 85, 57
1, 205191, Control_c, 0, 67, 53
1, 205205, Control_c, 0, 67, 52
1, 205220, Control_c, 0, 67, 52
1, 205235, Control_c, 0, 64, 96
1, 205235, Control_c, 0, 67, 51
1, 205250, Control_c, 0, 64, 95
1, 205250, Control_c, 0, 67, 51
1, 205255, Note_on_c, 0, 84, 70
1, 205265, Control_c, 0, 64, 95
1, 205267, Note_on_c, 0, 72, 55
1, 205272, Note_on_c, 0, 80, 61
1, 205277, Note_on_c, 0, 62, 46
1, 205280, Control_c, 0, 67, 50
1, 205295, Control_c, 0, 64, 94
1, 205297, Note_off_c, 0, 72, 60
1, 205306, Note_off_c, 0, 62, 54
1, 205310, Control_c, 0, 64, 94
1, 205311, Note_off_c, 0, 56, 41
1, 205325, Control_c, 0, 64, 93
1, 205337, Note_off_c, 0, 80, 60
1, 205340, Control_c, 0, 64, 93
1, 205341, Note_off_c, 0, 84, 63
1, 205361, Note_off_c, 0, 52, 40
1, 205362, Control_c, 0, 64, 92
1, 205378, Control_c, 0, 64, 92
1, 205378, Control_c, 0, 67, 50
1, 205393, Control_c, 0, 64, 91
1, 205422, Control_c, 0, 67, 49
1, 205437, Control_c, 0, 64, 91
1, 205467, Control_c, 0, 64, 90
1, 205482, Control_c, 0, 64, 90
1, 205497, Control_c, 0, 64, 89
1, 205511, Control_c, 0, 64, 88
1, 205511, Control_c, 0, 67, 49
1, 205526, Control_c, 0, 64, 86
1, 205541, Control_c, 0, 64, 84
1, 205556, Control_c, 0, 64, 79
1, 205571, Control_c, 0, 64, 73
1, 205575, Note_on_c, 0, 85, 61
1, 205580, Note_on_c, 0, 73, 54
1, 205585, Control_c, 0, 64, 60
1, 205585, Control_c, 0, 67, 48
1, 205588, Note_on_c, 0, 81, 51
1, 205600, Control_c, 0, 64, 0
1, 205605, Note_on_c, 0, 45, 39
1, 205659, Control_c, 0, 67, 48
1, 205689, Control_c, 0, 67, 47
1, 205703, Control_c, 0, 67, 47
1, 205718, Control_c, 0, 64, 54
1, 205730, Note_off_c, 0, 73, 61
1, 205733, Control_c, 0, 64, 67
1, 205733, Control_c, 0, 67, 46
1, 205740, Note_off_c, 0, 85, 56
1, 205748, Control_c, 0, 64, 73
1, 205748, Control_c, 0, 67, 46
1, 205763, Control_c, 0, 64, 79
1, 205763, Control_c, 0, 67, 45
1, 205777, Control_c, 0, 64, 84
1, 205777, Control_c, 0, 67, 44
1, 205792, Control_c, 0, 64, 88
1, 205792, Control_c, 0, 67, 42
1, 205807, Control_c, 0, 64, 91
1, 205807, Control_c, 0, 67, 41
1, 205822, Control_c, 0, 64, 94
1, 205822, Control_c, 0, 67, 39
1, 205837, Control_c, 0, 64, 96
1, 205837, Control_c, 0, 67, 38
1, 205852, Control_c, 0, 64, 98
1, 205852, Control_c, 0, 67, 38
1, 205867, Control_c, 0, 64, 100
1, 205871, Note_off_c, 0, 45, 41
1, 205881, Control_c, 0, 64, 101
1, 205896, Control_c, 0, 64, 102
1, 205899, Note_on_c, 0, 88, 68
1, 205911, Control_c, 0, 64, 103
1, 205914, Note_on_c, 0, 76, 58
1, 205917, Note_on_c, 0, 85, 50
1, 205926, Control_c, 0, 64, 105
1, 205935, Note_on_c, 0, 52, 42
1, 205941, Note_off_c, 0, 81, 33
1, 205941, Control_c, 0, 64, 107
1, 205956, Control_c, 0, 64, 110
1, 205956, Control_c, 0, 67, 37
1, 205971, Control_c, 0, 64, 114
1, 205971, Control_c, 0, 67, 35
1, 205985, Control_c, 0, 64, 118
1, 205985, Control_c, 0, 67, 30
1, 205988, Note_off_c, 0, 76, 65
1, 206000, Control_c, 0, 64, 124
1, 206000, Control_c, 0, 67, 22
1, 206001, Note_off_c, 0, 88, 59
1, 206015, Control_c, 0, 64, 127
1, 206015, Control_c, 0, 67, 11
1, 206029, Control_c, 0, 67, 0
1, 206034, Note_off_c, 0, 85, 58
1, 206272, Note_off_c, 0, 52, 42
1, 206296, Note_on_c, 0, 61, 46
1, 206350, Note_off_c, 0, 61, 56
1, 206442, Note_on_c, 0, 93, 67
1, 206457, Note_on_c, 0, 81, 55
1, 206487, Note_off_c, 0, 81, 59
1, 206525, Note_off_c, 0, 93, 54
1, 206817, Note_on_c, 0, 93, 61
1, 206820, Note_on_c, 0, 81, 52
1, 206829, Note_on_c, 0, 85, 42
1, 206852, Note_on_c, 0, 73, 37
1, 206862, Note_on_c, 0, 64, 30
1, 206935, Note_off_c, 0, 81, 59
1, 206987, Note_off_c, 0, 73, 52
1, 206990, Note_off_c, 0, 64, 52
1, 207044, Note_off_c, 0, 93, 53
1, 207059, Note_off_c, 0, 85, 50
1, 207935, Control_c, 0, 67, 8
1, 207950, Control_c, 0, 67, 8
1, 207979, Control_c, 0, 67, 0
1, 208053, Control_c, 0, 67, 9
1, 208072, Note_on_c, 0, 64, 70
1, 208083, Control_c, 0, 67, 9
1, 208097, Control_c, 0, 67, 10
1, 208112, Control_c, 0, 67, 11
1, 208127, Control_c, 0, 67, 14
1, 208142, Control_c, 0, 67, 16
1, 208157, Control_c, 0, 67, 18
1, 208171, Control_c, 0, 67, 19
1, 208186, Control_c, 0, 67, 21
1, 208201, Control_c, 0, 67, 24
1, 208215, Control_c, 0, 67, 27
1, 208230, Control_c, 0, 67, 30
1, 208245, Control_c, 0, 67, 31
1, 208260, Control_c, 0, 67, 32
1, 208287, Note_off_c, 0, 64, 62
1, 208290, Control_c, 0, 67, 32
1, 208305, Control_c, 0, 67, 33
1, 208320, Control_c, 0, 67, 34
1, 208335, Control_c, 0, 67, 37
1, 208357, Control_c, 0, 67, 38
1, 208445, Control_c, 0, 64, 126
1, 208460, Control_c, 0, 64, 124
1, 208475, Control_c, 0, 64, 121
1, 208490, Control_c, 0, 64, 119
1, 208490, Control_c, 0, 67, 38
1, 208504, Control_c, 0, 64, 118
1, 208519, Control_c, 0, 64, 117
1, 208534, Control_c, 0, 64, 116
1, 208534, Control_c, 0, 67, 37
1, 208549, Control_c, 0, 64, 114
1, 208564, Control_c, 0, 64, 111
1, 208579, Control_c, 0, 64, 109
1, 208594, Control_c, 0, 64, 105
1, 208609, Control_c, 0, 64, 102
1, 208609, Control_c, 0, 67, 37
1, 208620, Note_on_c, 0, 64, 82
1, 208624, Control_c, 0, 64, 98
1, 208639, Control_c, 0, 64, 93
1, 208653, Control_c, 0, 64, 87
1, 208668, Control_c, 0, 64, 80
1, 208683, Control_c, 0, 64, 71
1, 208698, Control_c, 0, 64, 62
1, 208698, Control_c, 0, 67, 36
1, 208713, Control_c, 0, 64, 0
1, 208772, Control_c, 0, 67, 36
1, 208816, Control_c, 0, 67, 35
1, 208831, Control_c, 0, 67, 35
1, 208845, Control_c, 0, 64, 57
1, 208846, Note_on_c, 0, 66, 76
1, 208860, Control_c, 0, 64, 64
1, 208860, Control_c, 0, 67, 34
1, 208875, Control_c, 0, 64, 67
1, 208883, Note_off_c, 0, 64, 61
1, 208890, Control_c, 0, 64, 70
1, 208890, Control_c, 0, 67, 33
1, 208905, Control_c, 0, 64, 72
1, 208905, Control_c, 0, 67, 33
1, 208919, Control_c, 0, 64, 76
1, 208919, Control_c, 0, 67, 32
1, 208934, Control_c, 0, 64, 81
1, 208949, Control_c, 0, 64, 83
1, 208949, Control_c, 0, 67, 32
1, 208964, Control_c, 0, 64, 85
1, 208975, Note_off_c, 0, 66, 66
1, 208979, Control_c, 0, 64, 86
1, 208986, Note_on_c, 0, 64, 76
1, 208994, Control_c, 0, 64, 86
1, 208994, Control_c, 0, 67, 31
1, 209008, Control_c, 0, 64, 87
1, 209074, Note_off_c, 0, 64, 58
1, 209084, Note_on_c, 0, 66, 74
1, 209161, Note_off_c, 0, 66, 64
1, 209164, Control_c, 0, 67, 32
1, 209178, Control_c, 0, 67, 32
1, 209180, Note_on_c, 0, 64, 66
1, 209208, Control_c, 0, 67, 33
1, 209227, Note_off_c, 0, 64, 50
1, 209238, Control_c, 0, 67, 33
1, 209241, Note_on_c, 0, 66, 69
1, 209253, Control_c, 0, 67, 34
1, 209268, Control_c, 0, 67, 34
1, 209272, Note_off_c, 0, 66, 60
1, 209283, Control_c, 0, 67, 35
1, 209298, Control_c, 0, 67, 36
1, 209306, Note_on_c, 0, 64, 66
1, 209312, Control_c, 0, 67, 37
1, 209327, Control_c, 0, 67, 37
1, 209342, Control_c, 0, 67, 38
1, 209357, Note_off_c, 0, 64, 63
1, 209357, Control_c, 0, 67, 38
1, 209361, Note_on_c, 0, 66, 76
1, 209372, Control_c, 0, 67, 40
1, 209387, Control_c, 0, 67, 42
1, 209395, Note_off_c, 0, 66, 60
1, 209402, Control_c, 0, 67, 46
1, 209417, Control_c, 0, 67, 51
1, 209419, Note_on_c, 0, 64, 65
1, 209432, Control_c, 0, 67, 54
1, 209447, Control_c, 0, 67, 57
1, 209462, Control_c, 0, 67, 60
1, 209470, Note_off_c, 0, 64, 63
1, 209476, Control_c, 0, 67, 62
1, 209481, Note_on_c, 0, 66, 76
1, 209491, Control_c, 0, 67, 64
1, 209506, Control_c, 0, 67, 65
1, 209509, Note_off_c, 0, 66, 64
1, 209536, Control_c, 0, 64, 86
1, 209539, Note_on_c, 0, 64, 73
1, 209588, Note_off_c, 0, 64, 63
1, 209593, Note_on_c, 0, 66, 78
1, 209594, Control_c, 0, 64, 86
1, 209623, Note_off_c, 0, 66, 63
1, 209624, Control_c, 0, 67, 64
1, 209654, Note_on_c, 0, 64, 68
1, 209654, Control_c, 0, 67, 64
1, 209668, Control_c, 0, 67, 63
1, 209683, Control_c, 0, 64, 85
1, 209697, Note_off_c, 0, 64, 63
1, 209698, Control_c, 0, 67, 63
1, 209707, Note_on_c, 0, 66, 74
1, 209728, Control_c, 0, 67, 62
1, 209735, Note_off_c, 0, 66, 64
1, 209757, Control_c, 0, 67, 62
1, 209768, Note_on_c, 0, 64, 71
1, 209772, Control_c, 0, 64, 85
1, 209801, Control_c, 0, 67, 61
1, 209810, Note_off_c, 0, 64, 63
1, 209821, Note_on_c, 0, 66, 74
1, 209854, Control_c, 0, 64, 84
1, 209858, Note_off_c, 0, 66, 63
1, 209888, Note_on_c, 0, 64, 70
1, 209913, Control_c, 0, 64, 84
1, 209928, Control_c, 0, 67, 61
1, 209931, Note_off_c, 0, 64, 63
1, 209942, Note_on_c, 0, 66, 73
1, 209943, Control_c, 0, 64, 83
1, 209957, Control_c, 0, 64, 83
1, 209957, Control_c, 0, 67, 60
1, 209972, Control_c, 0, 64, 82
1, 209974, Note_off_c, 0, 66, 67
1, 209998, Note_on_c, 0, 64, 69
1, 210016, Control_c, 0, 64, 82
1, 210031, Control_c, 0, 64, 81
1, 210043, Note_off_c, 0, 64, 63
1, 210052, Note_on_c, 0, 66, 77
1, 210061, Control_c, 0, 64, 81
1, 210085, Note_off_c, 0, 66, 68
1, 210090, Control_c, 0, 67, 60
1, 210105, Control_c, 0, 64, 80
1, 210109, Note_on_c, 0, 64, 69
1, 210135, Control_c, 0, 64, 80
1, 210154, Note_off_c, 0, 64, 64
1, 210168, Note_on_c, 0, 66, 73
1, 210195, Note_off_c, 0, 66, 60
1, 210195, Control_c, 0, 64, 79
1, 210210, Control_c, 0, 67, 60
1, 210225, Control_c, 0, 64, 79
1, 210227, Note_on_c, 0, 64, 64
1, 210240, Control_c, 0, 64, 78
1, 210240, Control_c, 0, 67, 61
1, 210254, Control_c, 0, 67, 61
1, 210269, Note_off_c, 0, 64, 64
1, 210269, Control_c, 0, 64, 77
1, 210284, Control_c, 0, 64, 76
1, 210284, Control_c, 0, 67, 62
1, 210288, Note_on_c, 0, 66, 63
1, 210299, Control_c, 0, 64, 75
1, 210305, Note_off_c, 0, 66, 65
1, 210314, Control_c, 0, 64, 73
1, 210314, Control_c, 0, 67, 62
1, 210329, Control_c, 0, 64, 71
1, 210336, Note_on_c, 0, 64, 66
1, 210344, Control_c, 0, 64, 69
1, 210359, Control_c, 0, 64, 68
1, 210359, Control_c, 0, 67, 63
1, 210373, Control_c, 0, 64, 68
1, 210373, Control_c, 0, 67, 63
1, 210383, Note_on_c, 0, 66, 65
1, 210386, Note_off_c, 0, 64, 61
1, 210388, Control_c, 0, 64, 67
1, 210388, Control_c, 0, 67, 64
1, 210403, Control_c, 0, 67, 64
1, 210417, Control_c, 0, 67, 65
1, 210424, Note_off_c, 0, 66, 66
1, 210432, Control_c, 0, 64, 67
1, 210450, Note_on_c, 0, 64, 57
1, 210462, Control_c, 0, 64, 65
1, 210477, Control_c, 0, 64, 64
1, 210477, Control_c, 0, 67, 65
1, 210490, Note_off_c, 0, 64, 64
1, 210491, Control_c, 0, 64, 63
1, 210491, Control_c, 0, 67, 66
1, 210496, Note_on_c, 0, 66, 60
1, 210506, Control_c, 0, 64, 63
1, 210521, Control_c, 0, 67, 66
1, 210533, Note_off_c, 0, 66, 65
1, 210551, Control_c, 0, 64, 62
1, 210557, Note_on_c, 0, 64, 60
1, 210566, Control_c, 0, 64, 59
1, 210566, Control_c, 0, 67, 67
1, 210580, Control_c, 0, 64, 54
1, 210580, Control_c, 0, 67, 67
1, 210603, Control_c, 0, 64, 46
1, 210603, Control_c, 0, 67, 68
1, 210606, Note_off_c, 0, 64, 63
1, 210618, Control_c, 0, 64, 39
1, 210621, Note_on_c, 0, 66, 68
1, 210633, Control_c, 0, 64, 38
1, 210648, Control_c, 0, 67, 68
1, 210650, Note_off_c, 0, 66, 67
1, 210675, Note_on_c, 0, 64, 65
1, 210693, Control_c, 0, 64, 36
1, 210707, Control_c, 0, 64, 35
1, 210722, Control_c, 0, 64, 33
1, 210722, Note_off_c, 0, 64, 61
1, 210730, Note_on_c, 0, 66, 62
1, 210737, Control_c, 0, 64, 32
1, 210763, Note_off_c, 0, 66, 66
1, 210785, Note_on_c, 0, 64, 60
1, 210811, Control_c, 0, 67, 69
1, 210825, Control_c, 0, 64, 33
1, 210826, Note_off_c, 0, 64, 64
1, 210844, Note_on_c, 0, 66, 61
1, 210874, Note_off_c, 0, 66, 65
1, 210899, Control_c, 0, 64, 31
1, 210902, Note_on_c, 0, 64, 57
1, 210914, Control_c, 0, 64, 29
1, 210929, Control_c, 0, 64, 26
1, 210944, Control_c, 0, 64, 24
1, 210944, Control_c, 0, 67, 69
1, 210959, Control_c, 0, 64, 23
1, 210959, Control_c, 0, 67, 70
1, 210975, Control_c, 0, 67, 73
1, 210984, Note_off_c, 0, 64, 62
1, 210989, Control_c, 0, 67, 75
1, 210995, Note_on_c, 0, 63, 60
1, 211004, Control_c, 0, 64, 20
1, 211004, Control_c, 0, 67, 76
1, 211019, Control_c, 0, 64, 13
1, 211019, Control_c, 0, 67, 76
1, 211034, Control_c, 0, 64, 0
1, 211058, Note_off_c, 0, 63, 61
1, 211079, Note_on_c, 0, 64, 49
1, 211172, Note_off_c, 0, 64, 55
1, 211173, Note_on_c, 0, 68, 58
1, 211211, Control_c, 0, 67, 77
1, 211278, Note_off_c, 0, 68, 57
1, 211286, Note_on_c, 0, 67, 58
1, 211441, Control_c, 0, 67, 76
1, 211456, Control_c, 0, 67, 76
1, 211483, Note_on_c, 0, 66, 56
1, 211512, Note_off_c, 0, 67, 44
1, 211663, Control_c, 0, 67, 76
1, 211678, Control_c, 0, 67, 77
1, 211871, Control_c, 0, 67, 76
1, 211886, Control_c, 0, 67, 76
1, 211945, Note_on_c, 0, 61, 42
1, 211948, Note_on_c, 0, 58, 43
1, 211950, Note_on_c, 0, 40, 35
1, 211960, Note_on_c, 0, 52, 33
1, 211997, Note_off_c, 0, 40, 60
1, 211997, Note_off_c, 0, 52, 54
1, 211998, Note_off_c, 0, 58, 57
1, 212001, Note_off_c, 0, 61, 57
1, 212079, Control_c, 0, 67, 76
1, 212204, Control_c, 0, 67, 76
1, 212231, Note_on_c, 0, 62, 43
1, 212234, Control_c, 0, 67, 75
1, 212239, Note_on_c, 0, 59, 40
1, 212251, Note_on_c, 0, 52, 36
1, 212261, Note_on_c, 0, 40, 28
1, 212263, Control_c, 0, 67, 75
1, 212301, Note_off_c, 0, 40, 54
1, 212301, Note_off_c, 0, 52, 64
1, 212308, Control_c, 0, 64, 45
1, 212308, Control_c, 0, 67, 75
1, 212308, Note_off_c, 0, 59, 57
1, 212323, Control_c, 0, 64, 55
1, 212326, Note_off_c, 0, 62, 59
1, 212337, Control_c, 0, 64, 54
1, 212352, Control_c, 0, 64, 51
1, 212352, Control_c, 0, 67, 76
1, 212367, Control_c, 0, 64, 46
1, 212382, Control_c, 0, 64, 34
1, 212396, Control_c, 0, 64, 0
1, 212441, Control_c, 0, 67, 75
1, 212515, Control_c, 0, 67, 75
1, 212697, Note_on_c, 0, 62, 43
1, 212699, Note_on_c, 0, 52, 39
1, 212702, Note_on_c, 0, 57, 40
1, 212710, Note_on_c, 0, 40, 24
1, 212735, Note_off_c, 0, 52, 55
1, 212735, Note_off_c, 0, 57, 60
1, 212754, Note_off_c, 0, 40, 48
1, 212755, Note_off_c, 0, 62, 58
1, 213012, Control_c, 0, 67, 74
1, 213058, Note_on_c, 0, 56, 39
1, 213059, Note_on_c, 0, 62, 36
1, 213071, Control_c, 0, 67, 74
1, 213074, Note_on_c, 0, 52, 31
1, 213083, Note_on_c, 0, 40, 21
1, 213086, Control_c, 0, 67, 73
1, 213146, Control_c, 0, 64, 62
1, 213160, Control_c, 0, 64, 67
1, 213175, Control_c, 0, 64, 69
1, 213190, Control_c, 0, 64, 72
1, 213205, Control_c, 0, 64, 76
1, 213219, Control_c, 0, 64, 80
1, 213234, Control_c, 0, 64, 85
1, 213235, Note_off_c, 0, 52, 55
1, 213249, Control_c, 0, 64, 87
1, 213264, Control_c, 0, 64, 89
1, 213279, Control_c, 0, 64, 91
1, 213293, Control_c, 0, 64, 92
1, 213308, Control_c, 0, 64, 92
1, 213312, Note_off_c, 0, 40, 50
1, 213314, Note_off_c, 0, 56, 42
1, 213323, Control_c, 0, 67, 74
1, 213329, Note_off_c, 0, 66, 56
1, 213337, Control_c, 0, 67, 74
1, 213346, Note_off_c, 0, 62, 40
1, 213352, Control_c, 0, 67, 75
1, 213383, Control_c, 0, 67, 75
1, 213398, Control_c, 0, 67, 76
1, 213472, Control_c, 0, 64, 92
1, 213502, Control_c, 0, 64, 91
1, 213516, Control_c, 0, 64, 90
1, 213531, Control_c, 0, 64, 86
1, 213546, Control_c, 0, 64, 84
1, 213555, Note_on_c, 0, 65, 64
1, 213561, Control_c, 0, 64, 83
1, 213576, Control_c, 0, 67, 75
1, 213587, Note_on_c, 0, 62, 47
1, 213592, Note_on_c, 0, 56, 47
1, 213600, Note_on_c, 0, 28, 39
1, 213600, Note_on_c, 0, 40, 34
1, 213642, Control_c, 0, 67, 75
1, 213676, Note_off_c, 0, 62, 55
1, 213711, Note_off_c, 0, 28, 36
1, 213724, Note_off_c, 0, 40, 39
1, 213733, Note_off_c, 0, 56, 34
1, 213808, Note_on_c, 0, 62, 60
1, 213817, Note_on_c, 0, 57, 52
1, 213824, Note_on_c, 0, 40, 41
1, 213834, Note_on_c, 0, 28, 40
1, 213894, Control_c, 0, 67, 74
1, 213921, Note_off_c, 0, 57, 37
1, 213926, Note_off_c, 0, 65, 56
1, 213930, Note_on_c, 0, 67, 73
1, 213943, Note_off_c, 0, 62, 55
1, 213990, Note_on_c, 0, 65, 79
1, 214020, Note_off_c, 0, 40, 40
1, 214031, Note_off_c, 0, 28, 40
1, 214040, Note_off_c, 0, 67, 61
1, 214131, Control_c, 0, 67, 75
1, 214204, Note_on_c, 0, 64, 82
1, 214217, Note_on_c, 0, 62, 62
1, 214221, Control_c, 0, 64, 82
1, 214221, Control_c, 0, 67, 75
1, 214225, Note_off_c, 0, 65, 60
1, 214228, Note_on_c, 0, 40, 49
1, 214231, Note_on_c, 0, 59, 36
1, 214237, Note_on_c, 0, 28, 42
1, 214251, Control_c, 0, 64, 82
1, 214258, Note_off_c, 0, 62, 58
1, 214268, Note_off_c, 0, 59, 47
1, 214280, Control_c, 0, 64, 81
1, 214295, Control_c, 0, 64, 80
1, 214308, Note_off_c, 0, 28, 50
1, 214308, Note_off_c, 0, 40, 52
1, 214310, Control_c, 0, 64, 80
1, 214325, Control_c, 0, 64, 79
1, 214347, Control_c, 0, 64, 78
1, 214362, Control_c, 0, 64, 78
1, 214377, Control_c, 0, 64, 77
1, 214377, Control_c, 0, 67, 76
1, 214392, Control_c, 0, 64, 75
1, 214407, Control_c, 0, 64, 73
1, 214422, Control_c, 0, 64, 71
1, 214437, Control_c, 0, 64, 67
1, 214452, Control_c, 0, 64, 62
1, 214466, Control_c, 0, 64, 31
1, 214481, Control_c, 0, 64, 0
1, 214481, Control_c, 0, 67, 75
1, 214489, Note_on_c, 0, 67, 73
1, 214502, Note_off_c, 0, 64, 55
1, 214508, Note_on_c, 0, 40, 44
1, 214509, Note_on_c, 0, 28, 42
1, 214512, Note_on_c, 0, 61, 53
1, 214519, Note_on_c, 0, 58, 57
1, 214555, Control_c, 0, 67, 75
1, 214629, Control_c, 0, 64, 52
1, 214644, Control_c, 0, 64, 65
1, 214652, Note_off_c, 0, 58, 59
1, 214654, Note_off_c, 0, 28, 54
1, 214658, Control_c, 0, 64, 70
1, 214673, Control_c, 0, 64, 75
1, 214688, Control_c, 0, 64, 78
1, 214698, Note_off_c, 0, 40, 52
1, 214702, Note_off_c, 0, 67, 58
1, 214703, Control_c, 0, 64, 80
1, 214718, Control_c, 0, 64, 81
1, 214725, Note_off_c, 0, 61, 56
1, 214747, Control_c, 0, 67, 75
1, 214821, Control_c, 0, 67, 75
1, 214866, Control_c, 0, 67, 74
1, 214896, Control_c, 0, 64, 80
1, 214911, Control_c, 0, 64, 79
1, 214925, Control_c, 0, 64, 78
1, 214940, Control_c, 0, 64, 76
1, 214955, Control_c, 0, 64, 74
1, 214961, Note_on_c, 0, 66, 72
1, 214970, Control_c, 0, 64, 69
1, 214981, Note_on_c, 0, 58, 56
1, 214985, Note_on_c, 0, 52, 50
1, 214985, Note_on_c, 0, 61, 54
1, 214985, Control_c, 0, 64, 64
1, 214985, Control_c, 0, 67, 74
1, 214988, Note_on_c, 0, 40, 43
1, 215000, Control_c, 0, 64, 51
1, 215015, Control_c, 0, 64, 46
1, 215030, Control_c, 0, 64, 56
1, 215030, Control_c, 0, 67, 73
1, 215045, Control_c, 0, 64, 61
1, 215060, Note_off_c, 0, 52, 49
1, 215060, Control_c, 0, 64, 63
1, 215072, Note_off_c, 0, 40, 52
1, 215075, Control_c, 0, 64, 65
1, 215075, Control_c, 0, 67, 73
1, 215096, Control_c, 0, 64, 67
1, 215100, Note_off_c, 0, 61, 57
1, 215111, Control_c, 0, 64, 70
1, 215111, Control_c, 0, 67, 72
1, 215123, Note_off_c, 0, 58, 49
1, 215126, Control_c, 0, 64, 74
1, 215141, Control_c, 0, 64, 75
1, 215141, Control_c, 0, 67, 72
1, 215185, Control_c, 0, 67, 71
1, 215215, Control_c, 0, 64, 75
1, 215230, Control_c, 0, 64, 74
1, 215244, Control_c, 0, 64, 73
1, 215259, Control_c, 0, 64, 71
1, 215274, Control_c, 0, 64, 69
1, 215289, Control_c, 0, 64, 67
1, 215289, Note_on_c, 0, 62, 40
1, 215293, Note_on_c, 0, 59, 41
1, 215302, Note_on_c, 0, 40, 32
1, 215304, Control_c, 0, 64, 65
1, 215309, Note_on_c, 0, 52, 36
1, 215319, Control_c, 0, 64, 64
1, 215334, Control_c, 0, 64, 63
1, 215349, Control_c, 0, 64, 59
1, 215363, Control_c, 0, 64, 48
1, 215378, Control_c, 0, 64, 29
1, 215393, Control_c, 0, 64, 41
1, 215408, Control_c, 0, 64, 58
1, 215408, Control_c, 0, 67, 72
1, 215422, Control_c, 0, 64, 63
1, 215422, Control_c, 0, 67, 72
1, 215437, Control_c, 0, 64, 65
1, 215452, Control_c, 0, 64, 69
1, 215467, Control_c, 0, 64, 72
1, 215474, Note_off_c, 0, 59, 50
1, 215482, Control_c, 0, 64, 75
1, 215493, Note_off_c, 0, 52, 60
1, 215496, Control_c, 0, 64, 77
1, 215501, Note_off_c, 0, 62, 49
1, 215507, Note_off_c, 0, 40, 40
1, 215511, Control_c, 0, 64, 78
1, 215526, Control_c, 0, 67, 72
1, 215541, Control_c, 0, 67, 71
1, 215629, Control_c, 0, 64, 77
1, 215644, Control_c, 0, 64, 76
1, 215644, Control_c, 0, 67, 71
1, 215659, Control_c, 0, 64, 75
1, 215674, Control_c, 0, 64, 74
1, 215689, Control_c, 0, 64, 72
1, 215704, Control_c, 0, 64, 71
1, 215718, Control_c, 0, 64, 70
1, 215764, Control_c, 0, 64, 71
1, 215766, Note_on_c, 0, 62, 38
1, 215773, Note_on_c, 0, 57, 41
1, 215778, Note_on_c, 0, 52, 36
1, 215778, Control_c, 0, 64, 73
1, 215784, Note_on_c, 0, 40, 27
1, 215793, Control_c, 0, 64, 75
1, 215793, Control_c, 0, 67, 70
1, 215808, Control_c, 0, 64, 78
1, 215823, Control_c, 0, 64, 81
1, 215823, Control_c, 0, 67, 70
1, 215845, Control_c, 0, 64, 83
1, 215860, Control_c, 0, 64, 84
1, 215877, Note_off_c, 0, 57, 51
1, 215885, Note_off_c, 0, 52, 56
1, 215899, Note_off_c, 0, 62, 53
1, 215919, Note_off_c, 0, 40, 35
1, 215979, Control_c, 0, 67, 70
1, 215993, Control_c, 0, 64, 83
1, 216037, Control_c, 0, 64, 83
1, 216052, Control_c, 0, 64, 82
1, 216067, Control_c, 0, 64, 81
1, 216082, Control_c, 0, 64, 79
1, 216097, Control_c, 0, 64, 76
1, 216097, Control_c, 0, 67, 71
1, 216112, Control_c, 0, 64, 74
1, 216127, Control_c, 0, 64, 73
1, 216130, Note_on_c, 0, 57, 44
1, 216139, Note_on_c, 0, 52, 39
1, 216139, Note_on_c, 0, 40, 32
1, 216144, Note_on_c, 0, 62, 38
1, 216172, Control_c, 0, 64, 74
1, 216186, Control_c, 0, 64, 76
1, 216201, Control_c, 0, 64, 78
1, 216204, Note_off_c, 0, 66, 49
1, 216216, Control_c, 0, 64, 80
1, 216231, Control_c, 0, 64, 82
1, 216242, Note_off_c, 0, 52, 59
1, 216245, Control_c, 0, 64, 84
1, 216260, Control_c, 0, 64, 85
1, 216260, Control_c, 0, 67, 70
1, 216267, Note_off_c, 0, 57, 50
1, 216275, Control_c, 0, 64, 87
1, 216290, Control_c, 0, 64, 88
1, 216305, Control_c, 0, 64, 89
1, 216434, Note_off_c, 0, 62, 32
1, 216459, Note_on_c, 0, 71, 64
1, 216526, Control_c, 0, 64, 88
1, 216526, Control_c, 0, 67, 71
1, 216527, Note_off_c, 0, 71, 58
1, 216557, Control_c, 0, 64, 88
1, 216572, Control_c, 0, 67, 71
1, 216577, Note_off_c, 0, 40, 36
1, 216594, Control_c, 0, 64, 87
1, 216594, Control_c, 0, 67, 72
1, 216623, Control_c, 0, 64, 87
1, 216638, Control_c, 0, 67, 73
1, 216653, Control_c, 0, 64, 86
1, 216667, Control_c, 0, 64, 86
1, 216682, Control_c, 0, 64, 85
1, 216697, Control_c, 0, 64, 81
1, 216712, Control_c, 0, 64, 76
1, 216717, Note_on_c, 0, 65, 69
1, 216727, Control_c, 0, 64, 69
1, 216739, Note_on_c, 0, 56, 44
1, 216741, Note_on_c, 0, 62, 43
1, 216741, Control_c, 0, 64, 62
1, 216749, Note_on_c, 0, 40, 33
1, 216756, Control_c, 0, 64, 59
1, 216758, Note_on_c, 0, 28, 38
1, 216771, Control_c, 0, 64, 64
1, 216786, Control_c, 0, 64, 68
1, 216796, Note_off_c, 0, 62, 54
1, 216800, Control_c, 0, 64, 72
1, 216800, Control_c, 0, 67, 72
1, 216815, Control_c, 0, 64, 77
1, 216818, Note_off_c, 0, 56, 52
1, 216830, Control_c, 0, 64, 82
1, 216830, Control_c, 0, 67, 72
1, 216837, Note_off_c, 0, 40, 52
1, 216840, Note_off_c, 0, 65, 60
1, 216845, Control_c, 0, 64, 86
1, 216860, Control_c, 0, 64, 87
1, 216860, Control_c, 0, 67, 71
1, 216875, Control_c, 0, 64, 88
1, 216920, Control_c, 0, 64, 88
1, 216924, Note_on_c, 0, 65, 72
1, 216934, Control_c, 0, 64, 87
1, 216936, Note_off_c, 0, 28, 0
1, 216944, Note_on_c, 0, 62, 50
1, 216947, Note_on_c, 0, 57, 52
1, 216949, Control_c, 0, 64, 86
1, 216956, Note_on_c, 0, 28, 15
1, 216964, Note_on_c, 0, 40, 43
1, 216978, Control_c, 0, 67, 72
1, 217008, Control_c, 0, 67, 72
1, 217033, Note_off_c, 0, 57, 38
1, 217067, Control_c, 0, 64, 86
1, 217076, Note_on_c, 0, 67, 77
1, 217077, Note_off_c, 0, 65, 63
1, 217082, Control_c, 0, 64, 85
1, 217097, Control_c, 0, 64, 83
1, 217112, Control_c, 0, 64, 82
1, 217112, Control_c, 0, 67, 72
1, 217113, Note_off_c, 0, 62, 36
1, 217135, Note_on_c, 0, 65, 79
1, 217135, Note_off_c, 0, 28, 38
1, 217137, Note_off_c, 0, 40, 42
1, 217141, Control_c, 0, 67, 72
1, 217186, Note_off_c, 0, 67, 60
1, 217215, Control_c, 0, 67, 73
1, 217260, Control_c, 0, 67, 73
1, 217319, Control_c, 0, 67, 74
1, 217342, Note_on_c, 0, 64, 81
1, 217352, Note_on_c, 0, 59, 67
1, 217353, Note_off_c, 0, 65, 64
1, 217358, Note_on_c, 0, 62, 61
1, 217367, Note_on_c, 0, 40, 54
1, 217371, Note_on_c, 0, 28, 45
1, 217386, Note_off_c, 0, 59, 60
1, 217394, Note_off_c, 0, 62, 64
1, 217417, Control_c, 0, 64, 82
1, 217428, Note_off_c, 0, 40, 56
1, 217477, Control_c, 0, 64, 81
1, 217479, Note_off_c, 0, 28, 37
1, 217506, Control_c, 0, 64, 81
1, 217521, Control_c, 0, 64, 80
1, 217536, Control_c, 0, 64, 79
1, 217551, Control_c, 0, 64, 78
1, 217565, Control_c, 0, 64, 76
1, 217580, Control_c, 0, 64, 73
1, 217595, Control_c, 0, 64, 68
1, 217609, Control_c, 0, 64, 61
1, 217609, Control_c, 0, 67, 74
1, 217610, Note_on_c, 0, 67, 75
1, 217617, Note_off_c, 0, 64, 56
1, 217624, Control_c, 0, 64, 0
1, 217626, Note_on_c, 0, 61, 53
1, 217635, Note_on_c, 0, 28, 46
1, 217635, Note_on_c, 0, 58, 55
1, 217638, Note_on_c, 0, 40, 49
1, 217639, Control_c, 0, 67, 73
1, 217743, Control_c, 0, 64, 49
1, 217757, Control_c, 0, 64, 65
1, 217769, Note_off_c, 0, 28, 55
1, 217772, Control_c, 0, 64, 70
1, 217772, Control_c, 0, 67, 74
1, 217787, Control_c, 0, 64, 74
1, 217787, Control_c, 0, 67, 74
1, 217793, Note_off_c, 0, 40, 62
1, 217802, Control_c, 0, 64, 76
1, 217808, Note_off_c, 0, 67, 60
1, 217817, Note_off_c, 0, 58, 61
1, 217817, Control_c, 0, 64, 77
1, 217832, Control_c, 0, 64, 78
1, 217844, Note_off_c, 0, 61, 58
1, 217847, Control_c, 0, 64, 79
1, 217862, Control_c, 0, 67, 75
1, 217891, Control_c, 0, 67, 75
1, 217980, Control_c, 0, 67, 75
1, 218024, Control_c, 0, 64, 78
1, 218039, Control_c, 0, 64, 76
1, 218054, Control_c, 0, 64, 73
1, 218067, Note_on_c, 0, 66, 71
1, 218069, Control_c, 0, 64, 69
1, 218091, Control_c, 0, 64, 64
1, 218091, Note_on_c, 0, 61, 52
1, 218092, Note_on_c, 0, 52, 46
1, 218096, Note_on_c, 0, 58, 51
1, 218106, Control_c, 0, 64, 53
1, 218121, Control_c, 0, 64, 13
1, 218122, Note_on_c, 0, 40, 36
1, 218135, Control_c, 0, 64, 0
1, 218135, Control_c, 0, 67, 75
1, 218150, Control_c, 0, 64, 48
1, 218166, Control_c, 0, 64, 61
1, 218170, Note_off_c, 0, 40, 47
1, 218181, Control_c, 0, 64, 65
1, 218186, Note_off_c, 0, 61, 58
1, 218196, Control_c, 0, 64, 68
1, 218201, Note_off_c, 0, 58, 58
1, 218210, Control_c, 0, 64, 73
1, 218225, Control_c, 0, 64, 78
1, 218240, Control_c, 0, 64, 80
1, 218240, Control_c, 0, 67, 75
1, 218241, Note_off_c, 0, 52, 36
1, 218255, Control_c, 0, 64, 80
1, 218270, Control_c, 0, 67, 74
1, 218314, Control_c, 0, 64, 79
1, 218314, Control_c, 0, 67, 74
1, 218329, Control_c, 0, 64, 78
1, 218344, Control_c, 0, 64, 77
1, 218359, Control_c, 0, 64, 75
1, 218374, Control_c, 0, 64, 73
1, 218380, Note_on_c, 0, 62, 52
1, 218383, Note_on_c, 0, 59, 46
1, 218386, Note_on_c, 0, 52, 43
1, 218388, Control_c, 0, 64, 70
1, 218403, Control_c, 0, 64, 67
1, 218418, Control_c, 0, 64, 58
1, 218418, Control_c, 0, 67, 73
1, 218421, Note_on_c, 0, 40, 24
1, 218432, Control_c, 0, 64, 0
1, 218447, Control_c, 0, 67, 74
1, 218477, Control_c, 0, 67, 74
1, 218521, Control_c, 0, 64, 54
1, 218536, Control_c, 0, 64, 64
1, 218550, Control_c, 0, 64, 68
1, 218550, Control_c, 0, 67, 75
1, 218563, Note_off_c, 0, 59, 56
1, 218565, Control_c, 0, 64, 71
1, 218565, Control_c, 0, 67, 75
1, 218580, Control_c, 0, 64, 74
1, 218580, Control_c, 0, 67, 76
1, 218595, Control_c, 0, 64, 77
1, 218595, Control_c, 0, 67, 76
1, 218600, Note_off_c, 0, 62, 55
1, 218610, Control_c, 0, 64, 80
1, 218610, Control_c, 0, 67, 77
1, 218613, Note_off_c, 0, 52, 62
1, 218625, Control_c, 0, 64, 81
1, 218640, Control_c, 0, 67, 77
1, 218643, Note_off_c, 0, 40, 40
1, 218684, Control_c, 0, 67, 77
1, 218714, Control_c, 0, 67, 76
1, 218744, Control_c, 0, 64, 80
1, 218744, Control_c, 0, 67, 76
1, 218758, Control_c, 0, 64, 80
1, 218758, Control_c, 0, 67, 75
1, 218773, Control_c, 0, 64, 79
1, 218773, Control_c, 0, 67, 74
1, 218788, Control_c, 0, 64, 79
1, 218788, Control_c, 0, 67, 74
1, 218803, Control_c, 0, 64, 78
1, 218803, Control_c, 0, 67, 73
1, 218818, Control_c, 0, 64, 78
1, 218839, Control_c, 0, 64, 76
1, 218839, Control_c, 0, 67, 73
1, 218853, Control_c, 0, 64, 74
1, 218868, Control_c, 0, 64, 71
1, 218883, Control_c, 0, 64, 67
1, 218898, Control_c, 0, 64, 62
1, 218899, Note_on_c, 0, 62, 42
1, 218908, Note_on_c, 0, 57, 41
1, 218912, Control_c, 0, 64, 54
1, 218927, Control_c, 0, 64, 55
1, 218927, Control_c, 0, 67, 72
1, 218937, Note_on_c, 0, 40, 25
1, 218941, Note_on_c, 0, 52, 31
1, 218942, Control_c, 0, 64, 60
1, 218958, Control_c, 0, 64, 63
1, 218973, Control_c, 0, 64, 65
1, 218981, Note_off_c, 0, 57, 55
1, 218987, Control_c, 0, 64, 67
1, 219002, Control_c, 0, 64, 69
1, 219017, Control_c, 0, 64, 71
1, 219026, Note_off_c, 0, 52, 53
1, 219027, Note_off_c, 0, 62, 55
1, 219032, Control_c, 0, 64, 74
1, 219047, Control_c, 0, 64, 76
1, 219061, Control_c, 0, 64, 77
1, 219062, Note_off_c, 0, 40, 36
1, 219076, Control_c, 0, 64, 78
1, 219091, Control_c, 0, 67, 73
1, 219209, Control_c, 0, 64, 78
1, 219239, Control_c, 0, 64, 77
1, 219269, Control_c, 0, 64, 76
1, 219284, Control_c, 0, 64, 75
1, 219298, Control_c, 0, 64, 74
1, 219298, Control_c, 0, 67, 73
1, 219303, Note_on_c, 0, 62, 28
1, 219313, Control_c, 0, 64, 72
1, 219323, Note_on_c, 0, 56, 35
1, 219328, Control_c, 0, 64, 69
1, 219328, Note_on_c, 0, 52, 29
1, 219330, Note_on_c, 0, 40, 22
1, 219343, Control_c, 0, 64, 64
1, 219358, Control_c, 0, 64, 54
1, 219373, Control_c, 0, 64, 0
1, 219476, Control_c, 0, 64, 30
1, 219491, Control_c, 0, 64, 50
1, 219506, Control_c, 0, 64, 58
1, 219520, Control_c, 0, 64, 63
1, 219535, Control_c, 0, 64, 66
1, 219550, Control_c, 0, 64, 69
1, 219565, Control_c, 0, 64, 73
1, 219587, Control_c, 0, 64, 76
1, 219602, Control_c, 0, 64, 78
1, 219617, Control_c, 0, 64, 79
1, 219620, Note_off_c, 0, 56, 38
1, 219632, Control_c, 0, 64, 80
1, 219647, Control_c, 0, 64, 80
1, 219650, Note_off_c, 0, 62, 38
1, 219659, Note_off_c, 0, 66, 38
1, 219665, Note_off_c, 0, 52, 42
1, 219691, Note_off_c, 0, 40, 40
1, 219781, Control_c, 0, 64, 80
1, 219810, Control_c, 0, 64, 79
1, 219855, Control_c, 0, 64, 79
1, 219870, Control_c, 0, 64, 78
1, 219884, Control_c, 0, 64, 78
1, 219899, Control_c, 0, 64, 77
1, 219914, Control_c, 0, 64, 76
1, 219924, Note_on_c, 0, 65, 52
1, 219929, Control_c, 0, 64, 75
1, 219943, Note_on_c, 0, 56, 44
1, 219944, Control_c, 0, 64, 74
1, 219947, Note_on_c, 0, 40, 35
1, 219953, Note_on_c, 0, 62, 40
1, 219971, Note_on_c, 0, 52, 25
1, 219996, Note_off_c, 0, 56, 57
1, 220002, Control_c, 0, 64, 74
1, 220005, Note_off_c, 0, 40, 53
1, 220010, Note_off_c, 0, 62, 54
1, 220015, Note_off_c, 0, 52, 51
1, 220017, Control_c, 0, 64, 75
1, 220032, Note_off_c, 0, 65, 62
1, 220032, Control_c, 0, 64, 76
1, 220047, Control_c, 0, 64, 77
1, 220062, Control_c, 0, 64, 77
1, 220106, Control_c, 0, 67, 73
1, 220196, Control_c, 0, 64, 76
1, 220201, Note_on_c, 0, 65, 74
1, 220210, Control_c, 0, 64, 75
1, 220223, Note_on_c, 0, 56, 53
1, 220225, Control_c, 0, 64, 71
1, 220226, Note_on_c, 0, 62, 47
1, 220237, Note_on_c, 0, 52, 40
1, 220240, Control_c, 0, 64, 67
1, 220252, Note_on_c, 0, 40, 34
1, 220255, Control_c, 0, 64, 63
1, 220270, Control_c, 0, 64, 62
1, 220284, Control_c, 0, 64, 64
1, 220299, Control_c, 0, 64, 66
1, 220314, Control_c, 0, 64, 69
1, 220336, Control_c, 0, 64, 74
1, 220351, Control_c, 0, 64, 79
1, 220366, Control_c, 0, 64, 84
1, 220381, Control_c, 0, 64, 88
1, 220381, Control_c, 0, 67, 73
1, 220396, Control_c, 0, 64, 92
1, 220396, Control_c, 0, 67, 74
1, 220410, Control_c, 0, 64, 94
1, 220410, Control_c, 0, 67, 74
1, 220422, Note_off_c, 0, 56, 57
1, 220425, Control_c, 0, 64, 95
1, 220446, Note_off_c, 0, 52, 59
1, 220455, Control_c, 0, 67, 75
1, 220461, Note_off_c, 0, 65, 63
1, 220465, Note_off_c, 0, 62, 36
1, 220475, Note_off_c, 0, 40, 41
1, 220485, Control_c, 0, 67, 75
1, 220515, Control_c, 0, 67, 76
1, 220574, Control_c, 0, 67, 77
1, 220589, Control_c, 0, 67, 78
1, 220604, Control_c, 0, 67, 79
1, 220619, Control_c, 0, 67, 83
1, 220634, Control_c, 0, 67, 87
1, 220649, Control_c, 0, 67, 88
1, 220681, Note_on_c, 0, 65, 74
1, 220702, Note_on_c, 0, 56, 52
1, 220704, Note_on_c, 0, 62, 48
1, 220723, Control_c, 0, 67, 88
1, 220723, Note_on_c, 0, 40, 32
1, 220729, Note_on_c, 0, 52, 35
1, 220752, Control_c, 0, 64, 95
1, 220766, Note_off_c, 0, 56, 54
1, 220782, Control_c, 0, 64, 94
1, 220791, Note_off_c, 0, 62, 55
1, 220797, Control_c, 0, 64, 94
1, 220801, Note_off_c, 0, 52, 56
1, 220811, Note_off_c, 0, 65, 63
1, 220812, Control_c, 0, 64, 93
1, 220820, Note_off_c, 0, 40, 37
1, 220826, Control_c, 0, 64, 93
1, 220841, Control_c, 0, 64, 92
1, 220856, Control_c, 0, 64, 92
1, 220886, Control_c, 0, 64, 91
1, 220900, Control_c, 0, 67, 87
1, 220930, Control_c, 0, 67, 87
1, 220959, Control_c, 0, 64, 91
1, 220959, Control_c, 0, 67, 86
1, 220989, Control_c, 0, 64, 90
1, 221004, Control_c, 0, 64, 90
1, 221004, Control_c, 0, 67, 86
1, 221033, Control_c, 0, 64, 89
1, 221048, Control_c, 0, 64, 88
1, 221063, Control_c, 0, 64, 87
1, 221086, Control_c, 0, 64, 86
1, 221095, Note_on_c, 0, 65, 68
1, 221101, Control_c, 0, 64, 85
1, 221108, Note_on_c, 0, 56, 52
1, 221115, Control_c, 0, 64, 83
1, 221116, Note_on_c, 0, 62, 46
1, 221125, Note_on_c, 0, 52, 36
1, 221126, Note_on_c, 0, 40, 28
1, 221130, Control_c, 0, 64, 81
1, 221145, Control_c, 0, 64, 79
1, 221145, Control_c, 0, 67, 85
1, 221159, Control_c, 0, 64, 77
1, 221159, Control_c, 0, 67, 85
1, 221174, Control_c, 0, 64, 74
1, 221174, Control_c, 0, 67, 84
1, 221189, Control_c, 0, 64, 69
1, 221204, Control_c, 0, 64, 64
1, 221219, Control_c, 0, 64, 47
1, 221233, Control_c, 0, 64, 0
1, 221278, Control_c, 0, 67, 84
1, 221293, Control_c, 0, 64, 39
1, 221307, Note_off_c, 0, 62, 55
1, 221308, Control_c, 0, 64, 55
1, 221323, Control_c, 0, 64, 62
1, 221337, Control_c, 0, 64, 66
1, 221337, Control_c, 0, 67, 84
1, 221353, Control_c, 0, 64, 69
1, 221368, Control_c, 0, 64, 74
1, 221368, Control_c, 0, 67, 85
1, 221382, Control_c, 0, 64, 81
1, 221382, Control_c, 0, 67, 85
1, 221397, Control_c, 0, 64, 84
1, 221397, Control_c, 0, 67, 86
1, 221412, Control_c, 0, 64, 86
1, 221412, Control_c, 0, 67, 86
1, 221427, Control_c, 0, 64, 88
1, 221427, Control_c, 0, 67, 87
1, 221442, Control_c, 0, 64, 89
1, 221442, Control_c, 0, 67, 88
1, 221445, Note_off_c, 0, 52, 59
1, 221448, Note_off_c, 0, 56, 54
1, 221457, Control_c, 0, 64, 89
1, 221457, Control_c, 0, 67, 88
1, 221472, Control_c, 0, 67, 89
1, 221486, Note_off_c, 0, 40, 39
1, 221486, Control_c, 0, 67, 90
1, 221501, Control_c, 0, 67, 94
1, 221516, Control_c, 0, 67, 103
1, 221531, Control_c, 0, 64, 89
1, 221531, Control_c, 0, 67, 112
1, 221546, Control_c, 0, 67, 118
1, 221561, Control_c, 0, 64, 88
1, 221561, Control_c, 0, 67, 120
1, 221575, Control_c, 0, 64, 87
1, 221575, Control_c, 0, 67, 120
1, 221590, Control_c, 0, 64, 86
1, 221605, Control_c, 0, 64, 85
1, 221620, Control_c, 0, 64, 84
1, 221620, Control_c, 0, 67, 121
1, 221635, Control_c, 0, 64, 82
1, 221649, Control_c, 0, 64, 79
1, 221664, Control_c, 0, 64, 75
1, 221675, Note_on_c, 0, 60, 43
1, 221679, Control_c, 0, 64, 71
1, 221686, Note_on_c, 0, 57, 36
1, 221694, Control_c, 0, 64, 65
1, 221698, Note_on_c, 0, 52, 29
1, 221707, Note_on_c, 0, 40, 28
1, 221709, Control_c, 0, 64, 60
1, 221723, Control_c, 0, 64, 61
1, 221738, Control_c, 0, 64, 64
1, 221753, Control_c, 0, 64, 67
1, 221753, Control_c, 0, 67, 120
1, 221768, Control_c, 0, 64, 68
1, 221768, Control_c, 0, 67, 120
1, 221782, Control_c, 0, 64, 71
1, 221782, Control_c, 0, 67, 119
1, 221785, Note_off_c, 0, 57, 53
1, 221787, Note_off_c, 0, 40, 39
1, 221788, Note_off_c, 0, 52, 54
1, 221790, Note_off_c, 0, 60, 57
1, 221797, Control_c, 0, 64, 74
1, 221797, Control_c, 0, 67, 119
1, 221812, Control_c, 0, 64, 78
1, 221835, Control_c, 0, 64, 80
1, 221835, Control_c, 0, 67, 118
1, 221850, Control_c, 0, 64, 81
1, 221850, Control_c, 0, 67, 118
1, 221864, Control_c, 0, 64, 82
1, 221864, Control_c, 0, 67, 117
1, 221924, Control_c, 0, 67, 117
1, 221953, Control_c, 0, 64, 81
1, 221968, Control_c, 0, 64, 81
1, 221975, Note_on_c, 0, 60, 40
1, 221982, Note_on_c, 0, 57, 41
1, 221982, Control_c, 0, 64, 80
1, 221997, Control_c, 0, 64, 78
1, 222002, Note_on_c, 0, 52, 42
1, 222012, Note_on_c, 0, 40, 38
1, 222012, Control_c, 0, 64, 74
1, 222027, Control_c, 0, 64, 70
1, 222042, Control_c, 0, 64, 64
1, 222042, Control_c, 0, 67, 116
1, 222056, Control_c, 0, 64, 48
1, 222071, Control_c, 0, 64, 38
1, 222086, Control_c, 0, 64, 47
1, 222101, Control_c, 0, 64, 54
1, 222115, Control_c, 0, 64, 58
1, 222130, Control_c, 0, 64, 62
1, 222130, Control_c, 0, 67, 116
1, 222146, Control_c, 0, 64, 66
1, 222146, Control_c, 0, 67, 115
1, 222161, Control_c, 0, 64, 70
1, 222176, Control_c, 0, 64, 76
1, 222176, Control_c, 0, 67, 115
1, 222191, Control_c, 0, 64, 81
1, 222205, Control_c, 0, 64, 85
1, 222220, Control_c, 0, 64, 86
1, 222220, Control_c, 0, 67, 114
1, 222226, Note_off_c, 0, 52, 43
1, 222235, Control_c, 0, 64, 86
1, 222242, Note_off_c, 0, 60, 55
1, 222243, Note_off_c, 0, 57, 41
1, 222250, Control_c, 0, 64, 87
1, 222265, Control_c, 0, 67, 114
1, 222309, Control_c, 0, 67, 113
1, 222339, Control_c, 0, 67, 113
1, 222384, Control_c, 0, 64, 86
1, 222398, Control_c, 0, 64, 86
1, 222413, Control_c, 0, 67, 112
1, 222428, Control_c, 0, 64, 85
1, 222447, Note_off_c, 0, 40, 39
1, 222458, Control_c, 0, 64, 85
1, 222472, Control_c, 0, 64, 84
1, 222487, Control_c, 0, 64, 84
1, 222502, Control_c, 0, 64, 83
1, 222517, Control_c, 0, 64, 83
1, 222532, Control_c, 0, 64, 81
1, 222545, Note_on_c, 0, 57, 42
1, 222545, Note_on_c, 0, 60, 40
1, 222546, Control_c, 0, 64, 78
1, 222561, Note_on_c, 0, 50, 33
1, 222561, Control_c, 0, 64, 71
1, 222583, Control_c, 0, 64, 63
1, 222598, Control_c, 0, 64, 32
1, 222612, Control_c, 0, 64, 39
1, 222614, Poly_aftertouch_c, 0, 38, 127
1, 222627, Control_c, 0, 64, 59
1, 222642, Control_c, 0, 64, 64
1, 222657, Control_c, 0, 64, 67
1, 222671, Control_c, 0, 64, 71
1, 222677, Note_off_c, 0, 57, 55
1, 222680, Note_off_c, 0, 60, 56
1, 222686, Control_c, 0, 64, 75
1, 222701, Control_c, 0, 64, 79
1, 222706, Poly_aftertouch_c, 0, 38, 0
1, 222716, Control_c, 0, 64, 81
1, 222723, Note_off_c, 0, 50, 41
1, 222730, Control_c, 0, 64, 82
1, 222834, Control_c, 0, 64, 81
1, 222849, Control_c, 0, 64, 80
1, 222852, Note_on_c, 0, 60, 41
1, 222858, Note_on_c, 0, 57, 35
1, 222864, Control_c, 0, 64, 77
1, 222878, Note_on_c, 0, 50, 26
1, 222879, Control_c, 0, 64, 73
1, 222882, Note_on_c, 0, 38, 32
1, 222893, Control_c, 0, 64, 66
1, 222908, Control_c, 0, 64, 41
1, 222923, Control_c, 0, 64, 0
1, 222983, Control_c, 0, 67, 112
1, 222998, Control_c, 0, 64, 36
1, 223013, Control_c, 0, 64, 60
1, 223028, Control_c, 0, 64, 66
1, 223028, Control_c, 0, 67, 111
1, 223042, Control_c, 0, 64, 71
1, 223057, Control_c, 0, 64, 75
1, 223072, Control_c, 0, 64, 78
1, 223075, Note_off_c, 0, 57, 49
1, 223087, Control_c, 0, 64, 80
1, 223096, Note_off_c, 0, 65, 39
1, 223102, Control_c, 0, 64, 81
1, 223115, Note_off_c, 0, 60, 55
1, 223139, Note_off_c, 0, 50, 40
1, 223147, Note_off_c, 0, 38, 40
1, 223161, Control_c, 0, 67, 112
1, 223191, Control_c, 0, 67, 112
1, 223235, Control_c, 0, 64, 81
1, 223309, Control_c, 0, 64, 80
1, 223332, Control_c, 0, 64, 79
1, 223347, Control_c, 0, 64, 78
1, 223361, Control_c, 0, 64, 76
1, 223376, Control_c, 0, 64, 72
1, 223382, Note_on_c, 0, 65, 44
1, 223386, Note_on_c, 0, 60, 39
1, 223391, Control_c, 0, 64, 65
1, 223391, Note_on_c, 0, 56, 43
1, 223406, Control_c, 0, 64, 54
1, 223409, Note_on_c, 0, 38, 22
1, 223420, Note_on_c, 0, 50, 17
1, 223420, Control_c, 0, 64, 39
1, 223435, Control_c, 0, 64, 51
1, 223450, Control_c, 0, 64, 60
1, 223465, Control_c, 0, 64, 64
1, 223480, Control_c, 0, 64, 67
1, 223494, Control_c, 0, 64, 71
1, 223496, Note_off_c, 0, 38, 51
1, 223509, Control_c, 0, 64, 75
1, 223511, Note_off_c, 0, 56, 35
1, 223516, Note_off_c, 0, 60, 53
1, 223524, Control_c, 0, 64, 77
1, 223530, Note_off_c, 0, 50, 34
1, 223539, Control_c, 0, 64, 79
1, 223553, Control_c, 0, 64, 79
1, 223598, Control_c, 0, 64, 78
1, 223613, Control_c, 0, 64, 76
1, 223627, Control_c, 0, 64, 73
1, 223642, Control_c, 0, 64, 70
1, 223657, Control_c, 0, 64, 69
1, 223686, Note_on_c, 0, 60, 39
1, 223687, Note_on_c, 0, 38, 24
1, 223689, Note_on_c, 0, 56, 32
1, 223701, Control_c, 0, 64, 69
1, 223716, Control_c, 0, 64, 70
1, 223718, Note_on_c, 0, 50, 10
1, 223731, Control_c, 0, 64, 72
1, 223747, Control_c, 0, 64, 74
1, 223762, Control_c, 0, 64, 75
1, 223776, Control_c, 0, 64, 76
1, 223791, Control_c, 0, 64, 77
1, 223806, Control_c, 0, 64, 77
1, 223860, Note_off_c, 0, 65, 28
1, 223880, Note_off_c, 0, 60, 59
1, 223886, Note_off_c, 0, 56, 37
1, 223895, Control_c, 0, 67, 113
1, 223925, Control_c, 0, 67, 113
1, 223927, Note_off_c, 0, 38, 38
1, 223969, Control_c, 0, 67, 114
1, 223970, Note_off_c, 0, 50, 37
1, 224080, Control_c, 0, 64, 77
1, 224096, Control_c, 0, 67, 113
1, 224155, Control_c, 0, 67, 113
1, 224196, Note_on_c, 0, 65, 55
1, 224199, Control_c, 0, 67, 112
1, 224216, Note_on_c, 0, 56, 40
1, 224218, Note_on_c, 0, 59, 37
1, 224223, Note_on_c, 0, 38, 32
1, 224236, Note_on_c, 0, 50, 19
1, 224244, Control_c, 0, 64, 76
1, 224244, Control_c, 0, 67, 112
1, 224274, Control_c, 0, 67, 111
1, 224353, Note_off_c, 0, 50, 34
1, 224373, Note_off_c, 0, 56, 35
1, 224378, Note_off_c, 0, 59, 39
1, 224490, Note_off_c, 0, 38, 35
1, 224495, Control_c, 0, 64, 76
1, 224525, Control_c, 0, 64, 75
1, 224556, Control_c, 0, 64, 75
1, 224586, Control_c, 0, 64, 74
1, 224615, Control_c, 0, 64, 74
1, 224630, Control_c, 0, 64, 73
1, 224645, Control_c, 0, 64, 73
1, 224660, Control_c, 0, 64, 72
1, 224674, Control_c, 0, 64, 71
1, 224689, Control_c, 0, 64, 70
1, 224704, Control_c, 0, 64, 69
1, 224719, Control_c, 0, 64, 67
1, 224724, Note_on_c, 0, 37, 27
1, 224725, Note_on_c, 0, 59, 30
1, 224728, Note_on_c, 0, 56, 33
1, 224734, Control_c, 0, 64, 64
1, 224742, Note_on_c, 0, 49, 23
1, 224748, Control_c, 0, 64, 58
1, 224763, Control_c, 0, 64, 30
1, 224778, Control_c, 0, 64, 0
1, 224889, Control_c, 0, 67, 111
1, 224904, Control_c, 0, 64, 49
1, 224919, Control_c, 0, 64, 64
1, 224919, Control_c, 0, 67, 110
1, 224933, Control_c, 0, 64, 69
1, 224948, Control_c, 0, 64, 73
1, 224963, Control_c, 0, 64, 77
1, 224978, Control_c, 0, 64, 79
1, 224978, Control_c, 0, 67, 111
1, 224993, Control_c, 0, 64, 81
1, 225003, Note_off_c, 0, 65, 42
1, 225007, Note_off_c, 0, 56, 41
1, 225007, Control_c, 0, 64, 83
1, 225022, Control_c, 0, 64, 84
1, 225026, Note_off_c, 0, 59, 52
1, 225029, Note_off_c, 0, 37, 40
1, 225037, Control_c, 0, 64, 84
1, 225078, Note_off_c, 0, 49, 39
1, 225081, Control_c, 0, 67, 110
1, 225239, Note_on_c, 0, 65, 59
1, 225248, Note_on_c, 0, 59, 42
1, 225249, Note_on_c, 0, 56, 45
1, 225261, Note_on_c, 0, 49, 34
1, 225272, Note_on_c, 0, 37, 31
1, 225289, Control_c, 0, 64, 84
1, 225318, Control_c, 0, 64, 83
1, 225318, Control_c, 0, 67, 111
1, 225364, Control_c, 0, 64, 83
1, 225401, Note_off_c, 0, 56, 31
1, 225409, Control_c, 0, 64, 82
1, 225423, Control_c, 0, 64, 82
1, 225429, Note_off_c, 0, 49, 41
1, 225453, Control_c, 0, 64, 81
1, 225468, Control_c, 0, 64, 81
1, 225483, Control_c, 0, 64, 80
1, 225497, Control_c, 0, 64, 80
1, 225512, Control_c, 0, 64, 79
1, 225527, Control_c, 0, 64, 78
1, 225541, Control_c, 0, 64, 77
1, 225556, Control_c, 0, 64, 76
1, 225574, Note_off_c, 0, 37, 29
1, 225579, Control_c, 0, 64, 75
1, 225594, Control_c, 0, 64, 73
1, 225609, Control_c, 0, 64, 72
1, 225623, Control_c, 0, 64, 70
1, 225638, Control_c, 0, 64, 67
1, 225642, Note_off_c, 0, 65, 31
1, 225651, Note_on_c, 0, 66, 53
1, 225653, Control_c, 0, 64, 62
1, 225654, Note_on_c, 0, 57, 41
1, 225668, Control_c, 0, 64, 46
1, 225669, Note_on_c, 0, 49, 36
1, 225677, Note_on_c, 0, 42, 29
1, 225683, Control_c, 0, 64, 0
1, 225737, Note_off_c, 0, 59, 41
1, 225742, Control_c, 0, 67, 110
1, 225845, Control_c, 0, 64, 54
1, 225860, Control_c, 0, 64, 64
1, 225875, Control_c, 0, 64, 68
1, 225890, Control_c, 0, 64, 70
1, 225890, Control_c, 0, 67, 110
1, 225904, Control_c, 0, 64, 73
1, 225906, Note_off_c, 0, 57, 59
1, 225919, Control_c, 0, 64, 76
1, 225934, Control_c, 0, 64, 78
1, 225949, Control_c, 0, 64, 79
1, 225964, Control_c, 0, 64, 79
1, 225979, Control_c, 0, 67, 109
1, 226068, Control_c, 0, 67, 109
1, 226097, Control_c, 0, 64, 79
1, 226128, Note_off_c, 0, 66, 29
1, 226185, Note_off_c, 0, 42, 33
1, 226196, Note_on_c, 0, 60, 52
1, 226214, Note_on_c, 0, 54, 45
1, 226216, Note_on_c, 0, 44, 39
1, 226217, Control_c, 0, 64, 78
1, 226217, Control_c, 0, 67, 108
1, 226246, Control_c, 0, 67, 108
1, 226291, Control_c, 0, 64, 78
1, 226292, Note_off_c, 0, 49, 33
1, 226306, Control_c, 0, 64, 77
1, 226327, Control_c, 0, 64, 77
1, 226342, Control_c, 0, 64, 76
1, 226357, Control_c, 0, 64, 76
1, 226372, Control_c, 0, 67, 107
1, 226387, Control_c, 0, 64, 75
1, 226402, Control_c, 0, 64, 75
1, 226405, Note_off_c, 0, 54, 42
1, 226417, Control_c, 0, 64, 74
1, 226432, Control_c, 0, 64, 74
1, 226491, Control_c, 0, 67, 107
1, 226506, Control_c, 0, 64, 73
1, 226535, Control_c, 0, 64, 73
1, 226550, Control_c, 0, 64, 72
1, 226565, Control_c, 0, 64, 72
1, 226575, Note_off_c, 0, 60, 25
1, 226593, Note_off_c, 0, 44, 41
1, 226594, Control_c, 0, 64, 71
1, 226609, Control_c, 0, 64, 70
1, 226624, Control_c, 0, 64, 70
1, 226639, Control_c, 0, 64, 68
1, 226646, Note_on_c, 0, 61, 48
1, 226653, Control_c, 0, 64, 65
1, 226665, Note_on_c, 0, 53, 36
1, 226668, Control_c, 0, 64, 62
1, 226673, Note_on_c, 0, 37, 24
1, 226683, Control_c, 0, 64, 53
1, 226698, Control_c, 0, 64, 29
1, 226713, Control_c, 0, 64, 0
1, 226846, Control_c, 0, 64, 63
1, 226861, Control_c, 0, 64, 69
1, 226868, Note_off_c, 0, 53, 60
1, 226876, Control_c, 0, 64, 74
1, 226890, Control_c, 0, 64, 78
1, 226899, Note_off_c, 0, 61, 63
1, 226901, Note_off_c, 0, 37, 57
1, 226905, Control_c, 0, 64, 80
1, 226920, Control_c, 0, 64, 81
1, 226936, Control_c, 0, 64, 81
1, 226950, Control_c, 0, 67, 107
1, 226965, Control_c, 0, 67, 108
1, 226980, Control_c, 0, 67, 108
1, 227055, Control_c, 0, 67, 109
1, 227121, Note_on_c, 0, 68, 68
1, 227121, Control_c, 0, 67, 110
1, 227135, Note_on_c, 0, 61, 56
1, 227139, Note_on_c, 0, 56, 57
1, 227150, Control_c, 0, 67, 110
1, 227155, Note_on_c, 0, 53, 47
1, 227195, Control_c, 0, 67, 111
1, 227198, Note_off_c, 0, 56, 55
1, 227219, Note_off_c, 0, 61, 56
1, 227225, Control_c, 0, 67, 111
1, 227231, Note_off_c, 0, 68, 54
1, 227240, Control_c, 0, 67, 112
1, 227255, Control_c, 0, 67, 112
1, 227284, Control_c, 0, 64, 81
1, 227313, Control_c, 0, 64, 80
1, 227313, Control_c, 0, 67, 113
1, 227328, Control_c, 0, 64, 80
1, 227343, Control_c, 0, 64, 79
1, 227358, Control_c, 0, 64, 78
1, 227373, Control_c, 0, 64, 77
1, 227388, Control_c, 0, 64, 76
1, 227402, Control_c, 0, 64, 74
1, 227417, Control_c, 0, 64, 71
1, 227423, Note_off_c, 0, 53, 37
1, 227430, Note_on_c, 0, 67, 63
1, 227432, Control_c, 0, 64, 67
1, 227441, Note_on_c, 0, 58, 53
1, 227441, Note_on_c, 0, 61, 43
1, 227447, Control_c, 0, 64, 62
1, 227457, Note_on_c, 0, 52, 34
1, 227462, Control_c, 0, 64, 29
1, 227476, Control_c, 0, 64, 0
1, 227550, Control_c, 0, 67, 113
1, 227580, Control_c, 0, 64, 27
1, 227580, Control_c, 0, 67, 114
1, 227594, Control_c, 0, 64, 63
1, 227594, Control_c, 0, 67, 114
1, 227609, Control_c, 0, 64, 68
1, 227609, Control_c, 0, 67, 115
1, 227624, Control_c, 0, 64, 71
1, 227624, Control_c, 0, 67, 117
1, 227639, Control_c, 0, 64, 74
1, 227639, Control_c, 0, 67, 119
1, 227654, Control_c, 0, 64, 76
1, 227654, Control_c, 0, 67, 121
1, 227669, Control_c, 0, 64, 77
1, 227669, Control_c, 0, 67, 125
1, 227684, Control_c, 0, 64, 78
1, 227684, Control_c, 0, 67, 127
1, 227699, Control_c, 0, 64, 79
1, 227705, Note_off_c, 0, 67, 62
1, 227742, Note_off_c, 0, 58, 58
1, 227775, Note_off_c, 0, 61, 52
1, 227899, Control_c, 0, 64, 78
1, 227914, Control_c, 0, 64, 78
1, 227929, Control_c, 0, 64, 77
1, 227943, Control_c, 0, 64, 74
1, 227958, Control_c, 0, 64, 70
1, 227973, Control_c, 0, 64, 64
1, 227981, Note_on_c, 0, 66, 52
1, 227988, Control_c, 0, 64, 45
1, 227996, Note_on_c, 0, 56, 40
1, 228003, Note_on_c, 0, 60, 42
1, 228003, Note_on_c, 0, 51, 35
1, 228003, Control_c, 0, 64, 31
1, 228018, Control_c, 0, 64, 41
1, 228033, Control_c, 0, 64, 45
1, 228038, Note_off_c, 0, 52, 37
1, 228047, Control_c, 0, 64, 52
1, 228062, Control_c, 0, 64, 59
1, 228077, Control_c, 0, 64, 63
1, 228092, Control_c, 0, 64, 66
1, 228107, Control_c, 0, 64, 68
1, 228107, Note_off_c, 0, 60, 60
1, 228122, Control_c, 0, 64, 71
1, 228136, Control_c, 0, 64, 73
1, 228151, Control_c, 0, 64, 76
1, 228153, Note_off_c, 0, 56, 36
1, 228166, Control_c, 0, 64, 77
1, 228262, Note_off_c, 0, 66, 48
1, 228299, Control_c, 0, 64, 77
1, 228314, Control_c, 0, 64, 76
1, 228329, Control_c, 0, 64, 75
1, 228343, Control_c, 0, 64, 74
1, 228358, Control_c, 0, 64, 72
1, 228364, Note_on_c, 0, 65, 47
1, 228373, Control_c, 0, 64, 71
1, 228376, Note_on_c, 0, 56, 33
1, 228378, Note_on_c, 0, 61, 35
1, 228381, Note_on_c, 0, 49, 31
1, 228388, Control_c, 0, 64, 69
1, 228399, Note_off_c, 0, 51, 31
1, 228403, Control_c, 0, 64, 66
1, 228417, Control_c, 0, 64, 63
1, 228432, Control_c, 0, 64, 58
1, 228447, Control_c, 0, 64, 42
1, 228462, Control_c, 0, 64, 0
1, 228634, Control_c, 0, 64, 27
1, 228648, Control_c, 0, 64, 59
1, 228663, Control_c, 0, 64, 65
1, 228678, Control_c, 0, 64, 67
1, 228693, Control_c, 0, 64, 70
1, 228708, Control_c, 0, 64, 72
1, 228722, Control_c, 0, 64, 75
1, 228737, Control_c, 0, 64, 77
1, 228752, Control_c, 0, 64, 79
1, 228760, Note_off_c, 0, 61, 0
1, 228763, Note_off_c, 0, 56, 35
1, 228766, Control_c, 0, 64, 80
1, 228781, Control_c, 0, 64, 80
1, 228834, Note_off_c, 0, 65, 29
1, 228838, Poly_aftertouch_c, 0, 61, 0
1, 228864, Note_off_c, 0, 49, 37
1, 229004, Control_c, 0, 64, 80
1, 229033, Control_c, 0, 64, 79
1, 229107, Control_c, 0, 64, 79
1, 229275, Note_on_c, 0, 68, 53
1, 229289, Note_on_c, 0, 56, 38
1, 229293, Note_on_c, 0, 61, 43
1, 229317, Note_on_c, 0, 53, 34
1, 229397, Control_c, 0, 64, 78
1, 229419, Note_off_c, 0, 61, 40
1, 229457, Control_c, 0, 64, 78
1, 229500, Note_off_c, 0, 68, 28
1, 229501, Control_c, 0, 64, 77
1, 229524, Note_off_c, 0, 56, 36
1, 229545, Control_c, 0, 64, 77
1, 229589, Control_c, 0, 64, 76
1, 229604, Control_c, 0, 64, 76
1, 229663, Control_c, 0, 64, 75
1, 229693, Control_c, 0, 64, 75
1, 229708, Control_c, 0, 64, 74
1, 229723, Control_c, 0, 64, 73
1, 229738, Control_c, 0, 64, 71
1, 229747, Note_on_c, 0, 67, 52
1, 229753, Control_c, 0, 64, 69
1, 229755, Note_off_c, 0, 53, 41
1, 229767, Control_c, 0, 64, 66
1, 229770, Note_on_c, 0, 57, 33
1, 229771, Note_on_c, 0, 52, 38
1, 229782, Control_c, 0, 64, 62
1, 229797, Control_c, 0, 64, 38
1, 229812, Control_c, 0, 64, 0
1, 229826, Note_on_c, 0, 62, 11
1, 229989, Control_c, 0, 64, 49
1, 230004, Control_c, 0, 64, 59
1, 230019, Control_c, 0, 64, 64
1, 230034, Control_c, 0, 64, 67
1, 230049, Control_c, 0, 64, 70
1, 230071, Control_c, 0, 64, 73
1, 230086, Control_c, 0, 64, 75
1, 230097, Note_off_c, 0, 57, 40
1, 230101, Control_c, 0, 64, 77
1, 230130, Control_c, 0, 64, 77
1, 230280, Control_c, 0, 64, 77
1, 230291, Note_off_c, 0, 62, 15
1, 230354, Note_on_c, 0, 50, 39
1, 230358, Note_off_c, 0, 52, 39
1, 230383, Control_c, 0, 64, 76
1, 230401, Note_off_c, 0, 67, 14
1, 230450, Poly_aftertouch_c, 0, 57, 127
1, 230499, Note_on_c, 0, 66, 70
1, 230501, Control_c, 0, 64, 76
1, 230615, Poly_aftertouch_c, 0, 57, 0
1, 230620, Control_c, 0, 64, 75
1, 230641, Note_off_c, 0, 66, 57
1, 230665, Control_c, 0, 64, 75
1, 230694, Control_c, 0, 64, 74
1, 230709, Control_c, 0, 64, 73
1, 230724, Control_c, 0, 64, 72
1, 230738, Note_off_c, 0, 50, 40
1, 230738, Control_c, 0, 64, 71
1, 230745, Note_on_c, 0, 65, 59
1, 230753, Control_c, 0, 64, 69
1, 230757, Note_on_c, 0, 57, 44
1, 230757, Note_on_c, 0, 48, 40
1, 230768, Control_c, 0, 64, 68
1, 230783, Control_c, 0, 64, 66
1, 230798, Control_c, 0, 64, 61
1, 230820, Control_c, 0, 64, 42
1, 230826, Note_on_c, 0, 62, 26
1, 230834, Control_c, 0, 64, 0
1, 230998, Control_c, 0, 64, 46
1, 231013, Control_c, 0, 64, 61
1, 231028, Control_c, 0, 64, 65
1, 231042, Control_c, 0, 64, 69
1, 231057, Control_c, 0, 64, 71
1, 231064, Note_off_c, 0, 57, 58
1, 231072, Control_c, 0, 64, 74
1, 231085, Note_off_c, 0, 65, 62
1, 231087, Control_c, 0, 64, 76
1, 231102, Control_c, 0, 64, 77
1, 231116, Control_c, 0, 64, 78
1, 231117, Note_off_c, 0, 62, 40
1, 231323, Control_c, 0, 64, 77
1, 231329, Note_on_c, 0, 65, 54
1, 231345, Note_on_c, 0, 62, 42
1, 231353, Note_on_c, 0, 56, 46
1, 231353, Control_c, 0, 64, 77
1, 231364, Note_off_c, 0, 48, 43
1, 231365, Note_on_c, 0, 47, 36
1, 231383, Control_c, 0, 64, 76
1, 231411, Note_off_c, 0, 62, 57
1, 231428, Note_off_c, 0, 56, 54
1, 231428, Control_c, 0, 64, 76
1, 231457, Control_c, 0, 64, 75
1, 231472, Control_c, 0, 64, 75
1, 231502, Control_c, 0, 64, 74
1, 231546, Control_c, 0, 64, 74
1, 231583, Control_c, 0, 64, 73
1, 231598, Control_c, 0, 64, 73
1, 231628, Control_c, 0, 64, 72
1, 231657, Control_c, 0, 64, 72
1, 231686, Control_c, 0, 64, 71
1, 231714, Note_off_c, 0, 65, 27
1, 231716, Control_c, 0, 64, 71
1, 231732, Control_c, 0, 64, 70
1, 231747, Control_c, 0, 64, 70
1, 231762, Control_c, 0, 64, 69
1, 231777, Control_c, 0, 64, 68
1, 231782, Note_on_c, 0, 66, 50
1, 231791, Control_c, 0, 64, 67
1, 231794, Note_on_c, 0, 54, 38
1, 231797, Note_on_c, 0, 61, 38
1, 231806, Control_c, 0, 64, 65
1, 231815, Note_off_c, 0, 47, 42
1, 231821, Control_c, 0, 64, 62
1, 231822, Note_on_c, 0, 45, 29
1, 231836, Control_c, 0, 64, 53
1, 231851, Control_c, 0, 64, 23
1, 231865, Control_c, 0, 64, 0
1, 232043, Control_c, 0, 64, 49
1, 232057, Control_c, 0, 64, 63
1, 232072, Control_c, 0, 64, 66
1, 232087, Control_c, 0, 64, 68
1, 232102, Control_c, 0, 64, 71
1, 232116, Control_c, 0, 64, 74
1, 232131, Control_c, 0, 64, 77
1, 232146, Control_c, 0, 64, 79
1, 232157, Note_off_c, 0, 66, 51
1, 232161, Control_c, 0, 64, 80
1, 232176, Control_c, 0, 64, 81
1, 232191, Note_off_c, 0, 54, 39
1, 232406, Control_c, 0, 64, 81
1, 232450, Control_c, 0, 64, 80
1, 232465, Control_c, 0, 64, 80
1, 232495, Control_c, 0, 64, 79
1, 232519, Note_off_c, 0, 61, 25
1, 232524, Control_c, 0, 64, 79
1, 232555, Control_c, 0, 64, 78
1, 232569, Control_c, 0, 64, 77
1, 232584, Control_c, 0, 64, 76
1, 232599, Control_c, 0, 64, 75
1, 232614, Control_c, 0, 64, 73
1, 232629, Control_c, 0, 64, 72
1, 232644, Control_c, 0, 64, 70
1, 232659, Control_c, 0, 64, 68
1, 232670, Note_on_c, 0, 60, 42
1, 232674, Control_c, 0, 64, 65
1, 232680, Note_on_c, 0, 54, 36
1, 232684, Note_on_c, 0, 44, 33
1, 232688, Control_c, 0, 64, 61
1, 232703, Control_c, 0, 64, 53
1, 232718, Control_c, 0, 64, 42
1, 232727, Note_off_c, 0, 45, 28
1, 232732, Control_c, 0, 64, 36
1, 232747, Control_c, 0, 64, 42
1, 232762, Control_c, 0, 64, 48
1, 232777, Control_c, 0, 64, 54
1, 232792, Control_c, 0, 64, 59
1, 232806, Control_c, 0, 64, 63
1, 232821, Control_c, 0, 64, 65
1, 232836, Control_c, 0, 64, 66
1, 232851, Control_c, 0, 64, 68
1, 232866, Control_c, 0, 64, 70
1, 232880, Control_c, 0, 64, 72
1, 232895, Control_c, 0, 64, 75
1, 232910, Control_c, 0, 64, 78
1, 232925, Control_c, 0, 64, 79
1, 232939, Control_c, 0, 64, 80
1, 232942, Note_off_c, 0, 60, 50
1, 232954, Control_c, 0, 64, 81
1, 232969, Control_c, 0, 64, 81
1, 232981, Note_off_c, 0, 54, 35
1, 233228, Control_c, 0, 64, 81
1, 233272, Control_c, 0, 64, 80
1, 233302, Control_c, 0, 64, 80
1, 233333, Control_c, 0, 64, 79
1, 233347, Note_on_c, 0, 37, 34
1, 233347, Control_c, 0, 64, 78
1, 233362, Control_c, 0, 64, 77
1, 233377, Control_c, 0, 64, 76
1, 233392, Control_c, 0, 64, 75
1, 233407, Control_c, 0, 64, 74
1, 233417, Note_on_c, 0, 61, 46
1, 233422, Control_c, 0, 64, 72
1, 233434, Note_on_c, 0, 53, 36
1, 233436, Control_c, 0, 64, 70
1, 233446, Note_off_c, 0, 44, 28
1, 233451, Control_c, 0, 64, 68
1, 233466, Control_c, 0, 64, 66
1, 233481, Control_c, 0, 64, 62
1, 233496, Control_c, 0, 64, 52
1, 233510, Control_c, 0, 64, 23
1, 233525, Control_c, 0, 64, 0
1, 233717, Control_c, 0, 67, 126
1, 233732, Control_c, 0, 64, 58
1, 233732, Control_c, 0, 67, 122
1, 233747, Control_c, 0, 64, 64
1, 233747, Control_c, 0, 67, 120
1, 233762, Control_c, 0, 64, 66
1, 233762, Control_c, 0, 67, 118
1, 233777, Control_c, 0, 64, 67
1, 233777, Control_c, 0, 67, 117
1, 233792, Control_c, 0, 64, 68
1, 233792, Control_c, 0, 67, 115
1, 233814, Control_c, 0, 64, 71
1, 233814, Control_c, 0, 67, 113
1, 233830, Control_c, 0, 64, 74
1, 233830, Control_c, 0, 67, 111
1, 233844, Control_c, 0, 64, 77
1, 233844, Control_c, 0, 67, 108
1, 233859, Control_c, 0, 64, 79
1, 233859, Control_c, 0, 67, 106
1, 233874, Control_c, 0, 64, 80
1, 233874, Control_c, 0, 67, 105
1, 233888, Control_c, 0, 64, 81
1, 233888, Control_c, 0, 67, 103
1, 233903, Control_c, 0, 64, 83
1, 233903, Control_c, 0, 67, 101
1, 233914, Note_off_c, 0, 53, 43
1, 233918, Control_c, 0, 64, 84
1, 233918, Control_c, 0, 67, 99
1, 233933, Control_c, 0, 64, 85
1, 233933, Control_c, 0, 67, 97
1, 233948, Control_c, 0, 64, 86
1, 233948, Control_c, 0, 67, 94
1, 233962, Control_c, 0, 64, 88
1, 233962, Control_c, 0, 67, 91
1, 233977, Control_c, 0, 64, 89
1, 233977, Control_c, 0, 67, 88
1, 233992, Control_c, 0, 64, 90
1, 233992, Control_c, 0, 67, 86
1, 234007, Control_c, 0, 64, 91
1, 234007, Control_c, 0, 67, 83
1, 234022, Control_c, 0, 64, 91
1, 234022, Control_c, 0, 67, 82
1, 234036, Control_c, 0, 64, 92
1, 234036, Control_c, 0, 67, 81
1, 234045, Note_on_c, 0, 44, 30
1, 234051, Control_c, 0, 64, 92
1, 234051, Control_c, 0, 67, 80
1, 234066, Note_off_c, 0, 61, 34
1, 234066, Control_c, 0, 64, 93
1, 234066, Control_c, 0, 67, 80
1, 234081, Control_c, 0, 67, 78
1, 234084, Note_off_c, 0, 37, 37
1, 234096, Control_c, 0, 64, 93
1, 234096, Control_c, 0, 67, 77
1, 234111, Control_c, 0, 67, 75
1, 234126, Control_c, 0, 67, 73
1, 234141, Control_c, 0, 67, 71
1, 234156, Control_c, 0, 67, 70
1, 234171, Control_c, 0, 67, 69
1, 234185, Control_c, 0, 67, 69
1, 234200, Control_c, 0, 67, 68
1, 234215, Control_c, 0, 67, 68
1, 234230, Control_c, 0, 67, 67
1, 234245, Control_c, 0, 67, 66
1, 234260, Control_c, 0, 67, 64
1, 234275, Control_c, 0, 67, 63
1, 234289, Control_c, 0, 67, 62
1, 234304, Control_c, 0, 67, 62
1, 234328, Note_on_c, 0, 49, 36
1, 234334, Control_c, 0, 67, 61
1, 234349, Control_c, 0, 67, 60
1, 234364, Control_c, 0, 67, 60
1, 234378, Control_c, 0, 67, 59
1, 234393, Control_c, 0, 67, 58
1, 234408, Control_c, 0, 67, 57
1, 234423, Control_c, 0, 67, 55
1, 234434, Note_off_c, 0, 44, 34
1, 234438, Control_c, 0, 67, 55
1, 234452, Control_c, 0, 67, 54
1, 234482, Control_c, 0, 64, 94
1, 234496, Control_c, 0, 67, 53
1, 234525, Note_off_c, 0, 49, 38
1, 234564, Control_c, 0, 64, 94
1, 234585, Note_on_c, 0, 53, 31
1, 234623, Control_c, 0, 64, 95
1, 234682, Control_c, 0, 64, 95
1, 234815, Control_c, 0, 67, 53
1, 234845, Control_c, 0, 64, 96
1, 234889, Control_c, 0, 67, 52
1, 234941, Note_on_c, 0, 56, 34
1, 234948, Note_off_c, 0, 53, 42
1, 235018, Note_on_c, 0, 80, 63
1, 235023, Control_c, 0, 67, 52
1, 235053, Control_c, 0, 67, 49
1, 235068, Control_c, 0, 64, 96
1, 235068, Control_c, 0, 67, 45
1, 235082, Control_c, 0, 67, 41
1, 235097, Control_c, 0, 67, 36
1, 235112, Control_c, 0, 67, 33
1, 235127, Control_c, 0, 64, 97
1, 235127, Control_c, 0, 67, 30
1, 235142, Control_c, 0, 67, 29
1, 235157, Control_c, 0, 67, 29
1, 235187, Control_c, 0, 64, 97
1, 235201, Control_c, 0, 67, 28
1, 235231, Control_c, 0, 67, 28
1, 235246, Control_c, 0, 64, 98
1, 235246, Control_c, 0, 67, 27
1, 235261, Control_c, 0, 67, 26
1, 235275, Control_c, 0, 67, 22
1, 235290, Control_c, 0, 64, 98
1, 235290, Control_c, 0, 67, 16
1, 235312, Control_c, 0, 67, 9
1, 235327, Control_c, 0, 67, 0
1, 235357, Note_off_c, 0, 56, 33
1, 235398, Note_on_c, 0, 61, 33
1, 235431, Control_c, 0, 64, 99
1, 235620, Note_off_c, 0, 61, 41
1, 235690, Note_on_c, 0, 56, 33
1, 236071, Note_on_c, 0, 68, 31
1, 236176, Note_on_c, 0, 79, 47
1, 236176, Note_off_c, 0, 80, 41
1, 236343, Control_c, 0, 64, 99
1, 236387, Control_c, 0, 64, 100
1, 236402, Control_c, 0, 64, 100
1, 236431, Control_c, 0, 64, 101
1, 236446, Control_c, 0, 64, 101
1, 236461, Control_c, 0, 64, 102
1, 236505, Control_c, 0, 64, 102
1, 236508, Note_on_c, 0, 80, 61
1, 236536, Control_c, 0, 64, 103
1, 236564, Note_off_c, 0, 79, 33
1, 236580, Control_c, 0, 64, 103
1, 236610, Control_c, 0, 64, 104
1, 236654, Control_c, 0, 64, 104
1, 236698, Control_c, 0, 64, 105
1, 236773, Note_on_c, 0, 89, 64
1, 236779, Note_off_c, 0, 80, 58
1, 236996, Note_on_c, 0, 87, 67
1, 237001, Note_off_c, 0, 89, 58
1, 237175, Note_on_c, 0, 85, 60
1, 237175, Note_off_c, 0, 87, 53
1, 237223, Note_off_c, 0, 68, 42
1, 237270, Note_off_c, 0, 85, 57
1, 237322, Note_on_c, 0, 77, 57
1, 237455, Note_on_c, 0, 78, 68
1, 237478, Note_off_c, 0, 77, 47
1, 237493, Control_c, 0, 64, 104
1, 237574, Control_c, 0, 64, 104
1, 237589, Note_on_c, 0, 80, 70
1, 237605, Note_off_c, 0, 78, 56
1, 237637, Note_off_c, 0, 56, 44
1, 237648, Control_c, 0, 64, 103
1, 237677, Control_c, 0, 64, 103
1, 237723, Note_on_c, 0, 84, 71
1, 237736, Note_off_c, 0, 80, 61
1, 237736, Control_c, 0, 64, 102
1, 237781, Control_c, 0, 64, 102
1, 237796, Control_c, 0, 64, 101
1, 237825, Control_c, 0, 64, 101
1, 237855, Control_c, 0, 64, 100
1, 237868, Note_on_c, 0, 82, 74
1, 237870, Note_off_c, 0, 84, 57
1, 237884, Control_c, 0, 64, 100
1, 237899, Control_c, 0, 64, 99
1, 237929, Control_c, 0, 64, 99
1, 237944, Control_c, 0, 64, 98
1, 237959, Control_c, 0, 64, 97
1, 237974, Control_c, 0, 64, 97
1, 237989, Control_c, 0, 64, 96
1, 238003, Control_c, 0, 64, 95
1, 238018, Control_c, 0, 64, 94
1, 238033, Control_c, 0, 64, 92
1, 238047, Control_c, 0, 64, 91
1, 238062, Control_c, 0, 64, 90
1, 238077, Control_c, 0, 64, 89
1, 238092, Control_c, 0, 64, 87
1, 238102, Note_on_c, 0, 37, 32
1, 238107, Control_c, 0, 64, 86
1, 238123, Control_c, 0, 64, 84
1, 238138, Control_c, 0, 64, 82
1, 238152, Control_c, 0, 64, 80
1, 238167, Control_c, 0, 64, 76
1, 238182, Control_c, 0, 64, 71
1, 238192, Note_on_c, 0, 80, 67
1, 238197, Control_c, 0, 64, 66
1, 238212, Control_c, 0, 64, 54
1, 238226, Control_c, 0, 64, 0
1, 238234, Note_off_c, 0, 82, 52
1, 238323, Control_c, 0, 64, 21
1, 238338, Control_c, 0, 64, 53
1, 238352, Control_c, 0, 64, 63
1, 238367, Control_c, 0, 64, 67
1, 238382, Control_c, 0, 64, 72
1, 238397, Control_c, 0, 64, 77
1, 238412, Control_c, 0, 64, 84
1, 238426, Control_c, 0, 64, 89
1, 238441, Control_c, 0, 64, 92
1, 238456, Control_c, 0, 64, 95
1, 238471, Control_c, 0, 64, 98
1, 238485, Control_c, 0, 64, 100
1, 238500, Control_c, 0, 64, 101
1, 238508, Note_off_c, 0, 37, 42
1, 238510, Note_on_c, 0, 44, 36
1, 238515, Control_c, 0, 64, 101
1, 238545, Control_c, 0, 64, 102
1, 238630, Note_on_c, 0, 78, 62
1, 238651, Note_off_c, 0, 80, 50
1, 238721, Note_off_c, 0, 44, 49
1, 238764, Note_on_c, 0, 54, 45
1, 238837, Note_off_c, 0, 78, 61
1, 238841, Control_c, 0, 64, 101
1, 238850, Note_on_c, 0, 77, 65
1, 238927, Note_off_c, 0, 77, 52
1, 238982, Note_on_c, 0, 56, 35
1, 239012, Note_off_c, 0, 54, 32
1, 239059, Note_on_c, 0, 77, 70
1, 239176, Note_on_c, 0, 60, 49
1, 239176, Note_off_c, 0, 56, 39
1, 239254, Note_on_c, 0, 75, 66
1, 239259, Note_off_c, 0, 77, 57
1, 239342, Note_off_c, 0, 60, 58
1, 239372, Note_on_c, 0, 56, 41
1, 239429, Note_on_c, 0, 77, 67
1, 239443, Note_off_c, 0, 75, 62
1, 239544, Note_on_c, 0, 60, 41
1, 239751, Note_on_c, 0, 75, 64
1, 239771, Note_off_c, 0, 77, 55
1, 239783, Note_on_c, 0, 66, 34
1, 240099, Note_on_c, 0, 73, 58
1, 240156, Note_off_c, 0, 75, 57
1, 240411, Note_off_c, 0, 73, 61
1, 240424, Note_on_c, 0, 72, 60
1, 240463, Note_off_c, 0, 72, 59
1, 240602, Note_on_c, 0, 72, 58
1, 240878, Note_on_c, 0, 70, 62
1, 240883, Note_off_c, 0, 72, 58
1, 240996, Note_off_c, 0, 66, 57
1, 241027, Note_off_c, 0, 60, 32
1, 241088, Control_c, 0, 64, 101
1, 241118, Control_c, 0, 64, 100
1, 241120, Note_off_c, 0, 56, 50
1, 241177, Note_on_c, 0, 72, 59
1, 241177, Control_c, 0, 64, 100
1, 241205, Note_off_c, 0, 70, 37
1, 241207, Control_c, 0, 64, 99
1, 241280, Control_c, 0, 64, 99
1, 241317, Control_c, 0, 64, 98
1, 241363, Control_c, 0, 64, 98
1, 241392, Control_c, 0, 64, 97
1, 241407, Control_c, 0, 64, 97
1, 241451, Control_c, 0, 64, 96
1, 241495, Control_c, 0, 64, 96
1, 241510, Control_c, 0, 64, 95
1, 241525, Control_c, 0, 64, 95
1, 241540, Control_c, 0, 64, 94
1, 241569, Control_c, 0, 64, 93
1, 241584, Control_c, 0, 64, 93
1, 241599, Control_c, 0, 64, 92
1, 241613, Note_on_c, 0, 70, 59
1, 241614, Control_c, 0, 64, 90
1, 241629, Control_c, 0, 64, 89
1, 241630, Note_on_c, 0, 37, 35
1, 241643, Control_c, 0, 64, 87
1, 241645, Note_off_c, 0, 72, 38
1, 241658, Control_c, 0, 64, 85
1, 241673, Control_c, 0, 64, 82
1, 241688, Control_c, 0, 64, 80
1, 241703, Control_c, 0, 64, 76
1, 241718, Control_c, 0, 64, 70
1, 241733, Control_c, 0, 64, 63
1, 241748, Control_c, 0, 64, 36
1, 241763, Control_c, 0, 64, 0
1, 241940, Control_c, 0, 64, 55
1, 241955, Control_c, 0, 64, 64
1, 241969, Control_c, 0, 64, 68
1, 241984, Control_c, 0, 64, 71
1, 241999, Control_c, 0, 64, 74
1, 242014, Control_c, 0, 64, 78
1, 242029, Control_c, 0, 64, 82
1, 242051, Control_c, 0, 64, 86
1, 242062, Note_on_c, 0, 44, 34
1, 242066, Control_c, 0, 64, 89
1, 242081, Control_c, 0, 64, 91
1, 242093, Note_off_c, 0, 37, 42
1, 242095, Control_c, 0, 64, 94
1, 242110, Control_c, 0, 64, 96
1, 242126, Control_c, 0, 64, 97
1, 242141, Control_c, 0, 64, 99
1, 242156, Control_c, 0, 64, 100
1, 242171, Control_c, 0, 64, 101
1, 242186, Control_c, 0, 64, 102
1, 242200, Control_c, 0, 64, 103
1, 242339, Note_off_c, 0, 44, 41
1, 242389, Note_on_c, 0, 68, 49
1, 242393, Note_off_c, 0, 70, 53
1, 242397, Note_on_c, 0, 53, 28
1, 242452, Note_off_c, 0, 68, 0
1, 242452, Note_on_c, 0, 68, 4
1, 242600, Control_c, 0, 67, 9
1, 242615, Control_c, 0, 67, 12
1, 242630, Control_c, 0, 67, 16
1, 242644, Control_c, 0, 67, 18
1, 242659, Control_c, 0, 67, 20
1, 242674, Control_c, 0, 67, 22
1, 242689, Control_c, 0, 67, 22
1, 242726, Note_off_c, 0, 68, 43
1, 242740, Note_off_c, 0, 53, 41
1, 242748, Control_c, 0, 67, 23
1, 242753, Note_on_c, 0, 67, 46
1, 242766, Note_on_c, 0, 56, 31
1, 242915, Note_off_c, 0, 67, 57
1, 242934, Note_on_c, 0, 68, 51
1, 242949, Control_c, 0, 67, 22
1, 243009, Control_c, 0, 67, 22
1, 243018, Note_off_c, 0, 68, 58
1, 243032, Note_on_c, 0, 70, 55
1, 243043, Note_off_c, 0, 56, 42
1, 243053, Control_c, 0, 67, 21
1, 243067, Note_on_c, 0, 61, 40
1, 243082, Note_off_c, 0, 70, 60
1, 243097, Control_c, 0, 67, 21
1, 243112, Control_c, 0, 67, 20
1, 243136, Note_on_c, 0, 72, 48
1, 243156, Control_c, 0, 67, 20
1, 243171, Control_c, 0, 67, 19
1, 243197, Note_off_c, 0, 72, 52
1, 243201, Control_c, 0, 67, 18
1, 243212, Note_off_c, 0, 61, 58
1, 243217, Note_on_c, 0, 73, 56
1, 243230, Control_c, 0, 67, 18
1, 243247, Note_on_c, 0, 65, 38
1, 243260, Control_c, 0, 67, 17
1, 243289, Control_c, 0, 67, 16
1, 243292, Note_off_c, 0, 73, 63
1, 243304, Control_c, 0, 67, 16
1, 243306, Note_on_c, 0, 75, 57
1, 243319, Control_c, 0, 67, 15
1, 243346, Note_off_c, 0, 75, 63
1, 243348, Control_c, 0, 67, 15
1, 243361, Note_on_c, 0, 61, 40
1, 243393, Note_off_c, 0, 65, 36
1, 243393, Control_c, 0, 67, 14
1, 243396, Note_on_c, 0, 77, 57
1, 243423, Control_c, 0, 67, 13
1, 243467, Control_c, 0, 67, 13
1, 243470, Note_on_c, 0, 78, 69
1, 243471, Note_off_c, 0, 77, 54
1, 243512, Control_c, 0, 67, 12
1, 243520, Note_off_c, 0, 61, 34
1, 243527, Control_c, 0, 67, 12
1, 243550, Note_on_c, 0, 56, 34
1, 243560, Note_off_c, 0, 78, 62
1, 243563, Control_c, 0, 67, 11
1, 243563, Note_on_c, 0, 80, 67
1, 243578, Control_c, 0, 67, 9
1, 243593, Control_c, 0, 67, 8
1, 243608, Control_c, 0, 67, 0
1, 243640, Note_off_c, 0, 80, 62
1, 243643, Note_on_c, 0, 82, 65
1, 243688, Note_off_c, 0, 82, 60
1, 243749, Note_on_c, 0, 84, 58
1, 243760, Note_on_c, 0, 68, 47
1, 243846, Note_on_c, 0, 85, 62
1, 243850, Note_off_c, 0, 84, 59
1, 243895, Note_off_c, 0, 68, 63
1, 243951, Note_off_c, 0, 85, 59
1, 243956, Note_on_c, 0, 87, 66
1, 244017, Note_off_c, 0, 87, 61
1, 244045, Note_off_c, 0, 56, 54
1, 244065, Note_on_c, 0, 89, 71
1, 244207, Note_on_c, 0, 90, 70
1, 244214, Note_off_c, 0, 89, 56
1, 244338, Note_off_c, 0, 90, 55
1, 244341, Note_on_c, 0, 92, 67
1, 244370, Note_off_c, 0, 92, 67
1, 244430, Control_c, 0, 64, 102
1, 244489, Control_c, 0, 64, 102
1, 244520, Control_c, 0, 64, 101
1, 244548, Note_on_c, 0, 101, 65
1, 244550, Control_c, 0, 64, 101
1, 244565, Control_c, 0, 64, 100
1, 244594, Control_c, 0, 64, 100
1, 244665, Note_off_c, 0, 101, 58
1, 244683, Control_c, 0, 64, 99
1, 244764, Note_on_c, 0, 99, 71
1, 244801, Control_c, 0, 64, 99
1, 244831, Control_c, 0, 64, 98
1, 244846, Control_c, 0, 64, 98
1, 244875, Control_c, 0, 64, 97
1, 244904, Control_c, 0, 64, 97
1, 244919, Control_c, 0, 64, 96
1, 244934, Control_c, 0, 64, 96
1, 244949, Control_c, 0, 64, 95
1, 244964, Control_c, 0, 64, 95
1, 244973, Note_on_c, 0, 37, 40
1, 244979, Control_c, 0, 64, 94
1, 244994, Control_c, 0, 64, 93
1, 245009, Control_c, 0, 64, 92
1, 245024, Control_c, 0, 64, 89
1, 245045, Control_c, 0, 64, 87
1, 245059, Note_on_c, 0, 97, 64
1, 245060, Note_off_c, 0, 99, 43
1, 245060, Control_c, 0, 64, 84
1, 245075, Control_c, 0, 64, 81
1, 245090, Control_c, 0, 64, 76
1, 245105, Control_c, 0, 64, 71
1, 245119, Control_c, 0, 64, 62
1, 245134, Control_c, 0, 64, 0
1, 245208, Control_c, 0, 64, 24
1, 245223, Control_c, 0, 64, 61
1, 245238, Control_c, 0, 64, 67
1, 245253, Control_c, 0, 64, 72
1, 245265, Note_off_c, 0, 97, 62
1, 245268, Note_on_c, 0, 94, 67
1, 245268, Control_c, 0, 64, 78
1, 245283, Control_c, 0, 64, 83
1, 245298, Control_c, 0, 64, 88
1, 245313, Control_c, 0, 64, 92
1, 245328, Control_c, 0, 64, 95
1, 245343, Control_c, 0, 64, 97
1, 245358, Control_c, 0, 64, 99
1, 245372, Control_c, 0, 64, 100
1, 245387, Control_c, 0, 64, 101
1, 245401, Note_off_c, 0, 94, 60
1, 245402, Control_c, 0, 64, 101
1, 245416, Note_on_c, 0, 90, 66
1, 245425, Note_off_c, 0, 37, 40
1, 245432, Note_on_c, 0, 44, 38
1, 245539, Note_on_c, 0, 92, 63
1, 245541, Note_off_c, 0, 90, 57
1, 245632, Note_off_c, 0, 92, 58
1, 245641, Note_off_c, 0, 44, 49
1, 245643, Note_on_c, 0, 96, 61
1, 245666, Note_on_c, 0, 54, 38
1, 245736, Note_off_c, 0, 96, 60
1, 245744, Note_on_c, 0, 94, 69
1, 245849, Note_on_c, 0, 90, 72
1, 245852, Note_off_c, 0, 94, 61
1, 245871, Note_off_c, 0, 54, 38
1, 245883, Note_on_c, 0, 56, 32
1, 245949, Note_off_c, 0, 90, 58
1, 245955, Note_on_c, 0, 87, 69
1, 246044, Note_off_c, 0, 87, 56
1, 246051, Note_on_c, 0, 82, 65
1, 246078, Note_on_c, 0, 60, 39
1, 246082, Note_off_c, 0, 56, 41
1, 246156, Note_on_c, 0, 85, 61
1, 246160, Note_off_c, 0, 82, 57
1, 246254, Note_off_c, 0, 85, 60
1, 246257, Note_on_c, 0, 89, 66
1, 246286, Note_on_c, 0, 56, 38
1, 246374, Note_on_c, 0, 87, 65
1, 246383, Note_off_c, 0, 89, 55
1, 246404, Note_off_c, 0, 60, 26
1, 246494, Note_on_c, 0, 85, 61
1, 246495, Note_off_c, 0, 87, 57
1, 246518, Note_on_c, 0, 66, 40
1, 246600, Note_off_c, 0, 85, 60
1, 246615, Note_on_c, 0, 82, 60
1, 246707, Note_off_c, 0, 82, 50
1, 246729, Note_on_c, 0, 78, 57
1, 246842, Note_on_c, 0, 80, 60
1, 246844, Note_off_c, 0, 78, 58
1, 246946, Note_off_c, 0, 80, 60
1, 246961, Note_on_c, 0, 84, 58
1, 247069, Note_off_c, 0, 84, 59
1, 247078, Note_on_c, 0, 82, 62
1, 247205, Note_off_c, 0, 82, 59
1, 247216, Note_on_c, 0, 78, 57
1, 247234, Note_off_c, 0, 66, 43
1, 247347, Note_off_c, 0, 78, 56
1, 247359, Note_on_c, 0, 75, 55
1, 247439, Note_off_c, 0, 75, 54
1, 247474, Note_off_c, 0, 56, 26
1, 247498, Note_on_c, 0, 70, 54
1, 247646, Note_off_c, 0, 70, 62
1, 247659, Note_on_c, 0, 72, 56
1, 247812, Control_c, 0, 64, 101
1, 247831, Note_on_c, 0, 77, 59
1, 247832, Note_off_c, 0, 72, 60
1, 247856, Control_c, 0, 64, 100
1, 247901, Control_c, 0, 64, 100
1, 247930, Control_c, 0, 64, 99
1, 247960, Control_c, 0, 64, 99
1, 247990, Control_c, 0, 64, 98
1, 247996, Note_off_c, 0, 77, 51
1, 248005, Control_c, 0, 64, 98
1, 248005, Note_on_c, 0, 75, 60
1, 248019, Control_c, 0, 64, 97
1, 248056, Control_c, 0, 64, 97
1, 248070, Control_c, 0, 64, 96
1, 248085, Control_c, 0, 64, 96
1, 248100, Control_c, 0, 64, 95
1, 248115, Control_c, 0, 64, 95
1, 248130, Control_c, 0, 64, 94
1, 248145, Control_c, 0, 64, 93
1, 248174, Control_c, 0, 64, 92
1, 248189, Control_c, 0, 64, 92
1, 248204, Control_c, 0, 64, 91
1, 248219, Control_c, 0, 64, 90
1, 248220, Note_on_c, 0, 37, 36
1, 248234, Control_c, 0, 64, 89
1, 248249, Control_c, 0, 64, 87
1, 248263, Control_c, 0, 64, 85
1, 248278, Control_c, 0, 64, 82
1, 248284, Note_off_c, 0, 75, 35
1, 248293, Control_c, 0, 64, 78
1, 248297, Note_on_c, 0, 72, 53
1, 248308, Control_c, 0, 64, 73
1, 248323, Control_c, 0, 64, 67
1, 248337, Control_c, 0, 64, 52
1, 248352, Control_c, 0, 64, 0
1, 248470, Control_c, 0, 64, 42
1, 248485, Control_c, 0, 64, 59
1, 248491, Note_off_c, 0, 72, 49
1, 248496, Note_on_c, 0, 73, 56
1, 248500, Control_c, 0, 64, 65
1, 248516, Control_c, 0, 64, 68
1, 248531, Control_c, 0, 64, 72
1, 248546, Control_c, 0, 64, 77
1, 248560, Control_c, 0, 64, 81
1, 248569, Note_off_c, 0, 73, 63
1, 248575, Control_c, 0, 64, 84
1, 248586, Note_on_c, 0, 75, 58
1, 248590, Control_c, 0, 64, 86
1, 248605, Control_c, 0, 64, 89
1, 248620, Control_c, 0, 64, 92
1, 248631, Note_off_c, 0, 75, 56
1, 248634, Control_c, 0, 64, 95
1, 248649, Control_c, 0, 64, 97
1, 248664, Control_c, 0, 64, 99
1, 248675, Note_on_c, 0, 73, 54
1, 248678, Control_c, 0, 64, 101
1, 248693, Control_c, 0, 64, 102
1, 248708, Control_c, 0, 64, 103
1, 248715, Note_off_c, 0, 73, 62
1, 248723, Control_c, 0, 64, 104
1, 248738, Note_on_c, 0, 44, 36
1, 248738, Control_c, 0, 64, 105
1, 248744, Note_on_c, 0, 75, 53
1, 248748, Note_off_c, 0, 37, 51
1, 248753, Control_c, 0, 64, 106
1, 248766, Note_off_c, 0, 75, 63
1, 248768, Control_c, 0, 64, 107
1, 248790, Control_c, 0, 64, 108
1, 248812, Note_on_c, 0, 73, 62
1, 248820, Control_c, 0, 64, 108
1, 248834, Control_c, 0, 64, 109
1, 248848, Note_off_c, 0, 73, 61
1, 248849, Control_c, 0, 64, 109
1, 248864, Control_c, 0, 64, 110
1, 248866, Note_on_c, 0, 75, 62
1, 248879, Control_c, 0, 64, 110
1, 248893, Control_c, 0, 64, 111
1, 248896, Note_off_c, 0, 75, 66
1, 248923, Control_c, 0, 64, 111
1, 248928, Note_on_c, 0, 73, 66
1, 248938, Control_c, 0, 64, 112
1, 248953, Control_c, 0, 64, 112
1, 248967, Control_c, 0, 64, 113
1, 248975, Note_off_c, 0, 73, 59
1, 248982, Control_c, 0, 64, 113
1, 248989, Note_off_c, 0, 44, 53
1, 248991, Note_on_c, 0, 75, 63
1, 248998, Note_on_c, 0, 53, 51
1, 249025, Note_off_c, 0, 75, 65
1, 249027, Control_c, 0, 64, 114
1, 249045, Note_on_c, 0, 73, 63
1, 249086, Control_c, 0, 64, 114
1, 249097, Note_off_c, 0, 73, 62
1, 249112, Note_on_c, 0, 75, 62
1, 249116, Control_c, 0, 64, 115
1, 249131, Control_c, 0, 64, 116
1, 249135, Note_off_c, 0, 75, 64
1, 249146, Control_c, 0, 64, 117
1, 249159, Note_on_c, 0, 73, 63
1, 249160, Control_c, 0, 64, 118
1, 249175, Control_c, 0, 64, 120
1, 249190, Control_c, 0, 64, 122
1, 249204, Note_off_c, 0, 53, 31
1, 249204, Control_c, 0, 64, 125
1, 249217, Note_off_c, 0, 73, 64
1, 249218, Note_on_c, 0, 75, 63
1, 249219, Control_c, 0, 64, 127
1, 249248, Note_off_c, 0, 75, 67
1, 249265, Note_on_c, 0, 73, 57
1, 249282, Note_on_c, 0, 56, 40
1, 249329, Note_off_c, 0, 73, 64
1, 249340, Note_on_c, 0, 75, 62
1, 249363, Note_off_c, 0, 75, 62
1, 249376, Note_on_c, 0, 73, 56
1, 249441, Note_off_c, 0, 73, 62
1, 249443, Note_on_c, 0, 75, 65
1, 249469, Note_off_c, 0, 75, 68
1, 249489, Note_on_c, 0, 73, 52
1, 249546, Note_off_c, 0, 73, 62
1, 249547, Note_on_c, 0, 75, 55
1, 249580, Note_off_c, 0, 75, 68
1, 249601, Note_on_c, 0, 73, 59
1, 249751, Note_on_c, 0, 67, 29
1, 249756, Note_off_c, 0, 56, 41
1, 249776, Note_off_c, 0, 73, 59
1, 249794, Note_on_c, 0, 72, 61
1, 249811, Note_off_c, 0, 67, 63
1, 249978, Note_on_c, 0, 73, 59
1, 249990, Note_off_c, 0, 72, 49
1, 250121, Note_on_c, 0, 77, 65
1, 250127, Note_off_c, 0, 73, 60
1, 250162, Control_c, 0, 64, 126
1, 250177, Control_c, 0, 64, 123
1, 250192, Control_c, 0, 64, 120
1, 250206, Control_c, 0, 64, 119
1, 250221, Control_c, 0, 64, 117
1, 250236, Control_c, 0, 64, 116
1, 250250, Control_c, 0, 64, 114
1, 250258, Note_on_c, 0, 75, 70
1, 250259, Note_off_c, 0, 77, 51
1, 250265, Control_c, 0, 64, 113
1, 250288, Control_c, 0, 64, 111
1, 250303, Control_c, 0, 64, 110
1, 250318, Control_c, 0, 64, 109
1, 250333, Control_c, 0, 64, 108
1, 250348, Control_c, 0, 64, 108
1, 250362, Control_c, 0, 64, 107
1, 250377, Control_c, 0, 64, 105
1, 250392, Control_c, 0, 64, 103
1, 250407, Control_c, 0, 64, 101
1, 250422, Control_c, 0, 64, 98
1, 250437, Control_c, 0, 64, 95
1, 250452, Control_c, 0, 64, 91
1, 250455, Note_on_c, 0, 39, 44
1, 250466, Control_c, 0, 64, 87
1, 250476, Note_on_c, 0, 72, 64
1, 250481, Control_c, 0, 64, 79
1, 250486, Note_off_c, 0, 75, 54
1, 250496, Control_c, 0, 64, 70
1, 250511, Control_c, 0, 64, 57
1, 250525, Control_c, 0, 64, 0
1, 250570, Control_c, 0, 64, 23
1, 250585, Control_c, 0, 64, 60
1, 250600, Control_c, 0, 64, 66
1, 250614, Control_c, 0, 64, 71
1, 250629, Control_c, 0, 64, 77
1, 250644, Control_c, 0, 64, 84
1, 250658, Control_c, 0, 64, 90
1, 250673, Control_c, 0, 64, 96
1, 250674, Note_off_c, 0, 72, 62
1, 250677, Note_on_c, 0, 73, 69
1, 250688, Control_c, 0, 64, 102
1, 250703, Control_c, 0, 64, 107
1, 250717, Note_off_c, 0, 73, 57
1, 250718, Control_c, 0, 64, 111
1, 250732, Control_c, 0, 64, 115
1, 250747, Control_c, 0, 64, 119
1, 250762, Control_c, 0, 64, 121
1, 250777, Control_c, 0, 64, 122
1, 250792, Control_c, 0, 64, 123
1, 250792, Note_off_c, 0, 39, 53
1, 250805, Note_on_c, 0, 42, 43
1, 250807, Control_c, 0, 64, 124
1, 250816, Note_on_c, 0, 65, 70
1, 250836, Control_c, 0, 64, 124
1, 250851, Control_c, 0, 64, 125
1, 250866, Control_c, 0, 64, 125
1, 250881, Control_c, 0, 64, 126
1, 250887, Note_off_c, 0, 65, 59
1, 250896, Control_c, 0, 64, 127
1, 250911, Control_c, 0, 64, 127
1, 250941, Note_on_c, 0, 66, 71
1, 250966, Note_off_c, 0, 42, 60
1, 251010, Note_off_c, 0, 66, 62
1, 251048, Note_on_c, 0, 54, 38
1, 251063, Note_on_c, 0, 60, 69
1, 251098, Note_off_c, 0, 54, 47
1, 251155, Note_on_c, 0, 61, 81
1, 251179, Note_off_c, 0, 60, 60
1, 251252, Note_off_c, 0, 61, 61
1, 251256, Note_on_c, 0, 65, 78
1, 251273, Note_on_c, 0, 51, 58
1, 251351, Note_on_c, 0, 66, 84
1, 251352, Note_off_c, 0, 65, 64
1, 251366, Note_off_c, 0, 51, 60
1, 251388, Note_off_c, 0, 66, 70
1, 251465, Note_on_c, 0, 72, 87
1, 251486, Note_on_c, 0, 66, 70
1, 251488, Note_on_c, 0, 54, 63
1, 251516, Note_off_c, 0, 66, 58
1, 251560, Note_on_c, 0, 73, 85
1, 251585, Note_off_c, 0, 72, 62
1, 251590, Note_off_c, 0, 54, 60
1, 251657, Note_on_c, 0, 77, 88
1, 251671, Note_off_c, 0, 73, 56
1, 251753, Note_on_c, 0, 75, 88
1, 251792, Note_off_c, 0, 77, 60
1, 251857, Note_off_c, 0, 75, 63
1, 251896, Note_on_c, 0, 74, 73
1, 251898, Note_on_c, 0, 40, 76
1, 251898, Note_on_c, 0, 72, 76
1, 251919, Control_c, 0, 64, 120
1, 251933, Control_c, 0, 64, 108
1, 251948, Control_c, 0, 64, 97
1, 251963, Control_c, 0, 64, 85
1, 251978, Control_c, 0, 64, 72
1, 251990, Note_off_c, 0, 74, 55
1, 251993, Control_c, 0, 64, 56
1, 252008, Control_c, 0, 64, 0
1, 252037, Control_c, 0, 64, 36
1, 252052, Control_c, 0, 64, 60
1, 252067, Control_c, 0, 64, 65
1, 252071, Note_off_c, 0, 72, 39
1, 252082, Control_c, 0, 64, 69
1, 252085, Note_on_c, 0, 73, 75
1, 252096, Control_c, 0, 64, 74
1, 252111, Control_c, 0, 64, 82
1, 252126, Control_c, 0, 64, 88
1, 252141, Control_c, 0, 64, 92
1, 252156, Control_c, 0, 64, 94
1, 252170, Control_c, 0, 64, 94
1, 252185, Control_c, 0, 64, 95
1, 252193, Note_off_c, 0, 73, 61
1, 252195, Note_on_c, 0, 66, 90
1, 252198, Note_on_c, 0, 49, 79
1, 252215, Control_c, 0, 64, 95
1, 252220, Note_off_c, 0, 40, 62
1, 252244, Control_c, 0, 64, 96
1, 252289, Control_c, 0, 64, 96
1, 252296, Note_on_c, 0, 67, 79
1, 252300, Note_off_c, 0, 66, 64
1, 252303, Control_c, 0, 64, 97
1, 252318, Control_c, 0, 64, 97
1, 252333, Control_c, 0, 64, 99
1, 252348, Control_c, 0, 64, 100
1, 252363, Control_c, 0, 64, 101
1, 252365, Note_off_c, 0, 67, 63
1, 252376, Note_off_c, 0, 49, 59
1, 252378, Control_c, 0, 64, 103
1, 252387, Note_on_c, 0, 60, 88
1, 252392, Control_c, 0, 64, 105
1, 252393, Note_on_c, 0, 55, 70
1, 252407, Control_c, 0, 64, 107
1, 252422, Control_c, 0, 64, 109
1, 252437, Control_c, 0, 64, 112
1, 252452, Control_c, 0, 64, 114
1, 252467, Control_c, 0, 64, 117
1, 252472, Note_on_c, 0, 61, 81
1, 252482, Control_c, 0, 64, 119
1, 252493, Note_off_c, 0, 60, 59
1, 252497, Control_c, 0, 64, 122
1, 252512, Control_c, 0, 64, 124
1, 252514, Note_off_c, 0, 61, 63
1, 252518, Note_off_c, 0, 55, 55
1, 252534, Control_c, 0, 64, 127
1, 252572, Note_on_c, 0, 66, 86
1, 252586, Note_on_c, 0, 52, 79
1, 252626, Poly_aftertouch_c, 0, 62, 0
1, 252629, Note_off_c, 0, 66, 66
1, 252661, Note_off_c, 0, 52, 64
1, 252663, Note_on_c, 0, 67, 95
1, 252764, Note_on_c, 0, 72, 79
1, 252782, Note_off_c, 0, 67, 0
1, 252793, Note_on_c, 0, 67, 62
1, 252795, Note_on_c, 0, 61, 70
1, 252840, Note_off_c, 0, 67, 63
1, 252850, Note_on_c, 0, 73, 89
1, 252864, Note_off_c, 0, 72, 65
1, 252874, Note_off_c, 0, 61, 62
1, 252941, Note_off_c, 0, 73, 61
1, 252941, Note_on_c, 0, 77, 89
1, 253020, Note_on_c, 0, 75, 92
1, 253049, Note_off_c, 0, 77, 61
1, 253111, Note_off_c, 0, 75, 60
1, 253125, Note_on_c, 0, 72, 90
1, 253134, Note_on_c, 0, 41, 79
1, 253171, Control_c, 0, 64, 120
1, 253186, Control_c, 0, 64, 97
1, 253196, Note_on_c, 0, 73, 83
1, 253200, Control_c, 0, 64, 77
1, 253208, Note_off_c, 0, 72, 62
1, 253215, Control_c, 0, 64, 48
1, 253230, Control_c, 0, 64, 0
1, 253251, Note_on_c, 0, 77, 80
1, 253254, Note_off_c, 0, 73, 65
1, 253282, Control_c, 0, 64, 58
1, 253299, Control_c, 0, 64, 68
1, 253314, Control_c, 0, 64, 74
1, 253328, Control_c, 0, 64, 83
1, 253332, Note_on_c, 0, 75, 76
1, 253339, Note_off_c, 0, 77, 62
1, 253343, Control_c, 0, 64, 90
1, 253358, Control_c, 0, 64, 98
1, 253373, Control_c, 0, 64, 102
1, 253379, Note_on_c, 0, 72, 85
1, 253385, Note_off_c, 0, 75, 64
1, 253388, Control_c, 0, 64, 103
1, 253400, Note_on_c, 0, 49, 83
1, 253403, Control_c, 0, 64, 104
1, 253405, Note_on_c, 0, 74, 51
1, 253418, Control_c, 0, 64, 104
1, 253428, Note_off_c, 0, 74, 63
1, 253430, Note_off_c, 0, 72, 64
1, 253432, Control_c, 0, 64, 105
1, 253437, Note_off_c, 0, 41, 65
1, 253447, Control_c, 0, 64, 106
1, 253476, Control_c, 0, 64, 107
1, 253489, Note_on_c, 0, 74, 56
1, 253491, Control_c, 0, 64, 108
1, 253506, Control_c, 0, 64, 109
1, 253508, Note_off_c, 0, 74, 63
1, 253520, Note_on_c, 0, 76, 66
1, 253521, Control_c, 0, 64, 110
1, 253536, Control_c, 0, 64, 111
1, 253550, Control_c, 0, 64, 111
1, 253558, Note_off_c, 0, 76, 52
1, 253580, Control_c, 0, 64, 112
1, 253595, Control_c, 0, 64, 113
1, 253610, Control_c, 0, 64, 115
1, 253611, Note_on_c, 0, 74, 24
1, 253624, Control_c, 0, 64, 117
1, 253635, Note_off_c, 0, 49, 61
1, 253639, Control_c, 0, 64, 119
1, 253643, Note_off_c, 0, 74, 48
1, 253647, Note_on_c, 0, 59, 85
1, 253654, Control_c, 0, 64, 123
1, 253669, Control_c, 0, 64, 126
1, 253672, Note_on_c, 0, 75, 39
1, 253673, Note_on_c, 0, 76, 49
1, 253683, Control_c, 0, 64, 127
1, 253696, Note_off_c, 0, 76, 59
1, 253698, Control_c, 0, 64, 127
1, 253704, Note_off_c, 0, 75, 57
1, 253709, Note_on_c, 0, 73, 78
1, 253758, Note_off_c, 0, 73, 62
1, 253776, Note_on_c, 0, 75, 89
1, 253835, Note_on_c, 0, 73, 72
1, 253865, Note_off_c, 0, 75, 62
1, 253880, Note_off_c, 0, 59, 56
1, 253899, Note_on_c, 0, 71, 94
1, 253904, Note_on_c, 0, 56, 87
1, 253905, Note_off_c, 0, 73, 64
1, 253977, Note_on_c, 0, 73, 83
1, 253996, Note_off_c, 0, 71, 54
1, 254049, Note_off_c, 0, 73, 60
1, 254051, Note_on_c, 0, 75, 79
1, 254112, Note_off_c, 0, 75, 66
1, 254115, Note_on_c, 0, 73, 83
1, 254169, Note_off_c, 0, 73, 59
1, 254173, Note_on_c, 0, 75, 77
1, 254219, Note_on_c, 0, 74, 43
1, 254232, Note_on_c, 0, 66, 92
1, 254234, Note_on_c, 0, 61, 94
1, 254243, Note_off_c, 0, 74, 58
1, 254261, Note_on_c, 0, 65, 59
1, 254275, Note_off_c, 0, 75, 62
1, 254283, Note_off_c, 0, 65, 65
1, 254336, Note_on_c, 0, 72, 59
1, 254336, Note_off_c, 0, 66, 63
1, 254369, Note_off_c, 0, 72, 65
1, 254393, Note_on_c, 0, 75, 65
1, 254409, Note_off_c, 0, 61, 61
1, 254458, Note_on_c, 0, 73, 55
1, 254458, Note_off_c, 0, 75, 66
1, 254479, Note_on_c, 0, 74, 35
1, 254509, Note_off_c, 0, 74, 51
1, 254572, Note_on_c, 0, 68, 100
1, 254578, Note_off_c, 0, 73, 60
1, 254583, Note_on_c, 0, 49, 85
1, 254607, Note_on_c, 0, 75, 26
1, 254633, Note_off_c, 0, 56, 56
1, 254653, Note_on_c, 0, 73, 80
1, 254656, Note_off_c, 0, 75, 48
1, 254721, Note_off_c, 0, 73, 63
1, 254723, Note_on_c, 0, 75, 72
1, 254723, Note_off_c, 0, 49, 60
1, 254781, Note_on_c, 0, 73, 75
1, 254785, Note_off_c, 0, 75, 65
1, 254850, Note_on_c, 0, 75, 81
1, 254852, Note_off_c, 0, 73, 62
1, 254905, Note_on_c, 0, 73, 78
1, 254914, Note_off_c, 0, 75, 64
1, 254915, Note_off_c, 0, 68, 57
1, 254975, Note_on_c, 0, 30, 87
1, 254975, Note_on_c, 0, 42, 92
1, 254989, Control_c, 0, 64, 117
1, 255004, Control_c, 0, 64, 106
1, 255019, Control_c, 0, 64, 94
1, 255034, Control_c, 0, 64, 82
1, 255048, Control_c, 0, 64, 67
1, 255060, Note_on_c, 0, 75, 91
1, 255063, Control_c, 0, 64, 0
1, 255066, Note_on_c, 0, 71, 82
1, 255068, Note_off_c, 0, 73, 63
1, 255167, Control_c, 0, 64, 60
1, 255182, Control_c, 0, 64, 70
1, 255196, Control_c, 0, 64, 78
1, 255211, Control_c, 0, 64, 86
1, 255226, Control_c, 0, 64, 92
1, 255232, Note_on_c, 0, 70, 83
1, 255235, Note_on_c, 0, 73, 77
1, 255235, Note_off_c, 0, 71, 62
1, 255239, Note_off_c, 0, 75, 64
1, 255241, Control_c, 0, 64, 96
1, 255253, Note_off_c, 0, 30, 63
1, 255255, Control_c, 0, 64, 101
1, 255270, Note_off_c, 0, 42, 63
1, 255270, Control_c, 0, 64, 105
1, 255285, Control_c, 0, 64, 107
1, 255300, Control_c, 0, 64, 109
1, 255304, Note_off_c, 0, 70, 57
1, 255315, Control_c, 0, 64, 109
1, 255319, Note_on_c, 0, 75, 78
1, 255319, Note_off_c, 0, 73, 62
1, 255321, Note_on_c, 0, 71, 80
1, 255329, Control_c, 0, 64, 110
1, 255389, Note_on_c, 0, 73, 75
1, 255389, Note_off_c, 0, 71, 61
1, 255391, Note_off_c, 0, 75, 66
1, 255396, Note_on_c, 0, 70, 78
1, 255454, Note_off_c, 0, 70, 57
1, 255460, Note_on_c, 0, 75, 76
1, 255460, Note_off_c, 0, 73, 62
1, 255466, Note_on_c, 0, 71, 75
1, 255490, Note_on_c, 0, 49, 82
1, 255492, Note_on_c, 0, 37, 70
1, 255530, Note_on_c, 0, 73, 72
1, 255534, Note_off_c, 0, 71, 61
1, 255536, Note_off_c, 0, 75, 65
1, 255537, Note_on_c, 0, 70, 73
1, 255541, Note_off_c, 0, 37, 64
1, 255560, Note_off_c, 0, 49, 59
1, 255589, Note_off_c, 0, 70, 60
1, 255599, Note_on_c, 0, 75, 75
1, 255600, Note_off_c, 0, 73, 63
1, 255607, Note_on_c, 0, 71, 77
1, 255664, Note_on_c, 0, 73, 72
1, 255668, Note_on_c, 0, 70, 77
1, 255670, Note_off_c, 0, 75, 66
1, 255674, Note_off_c, 0, 71, 60
1, 255704, Note_on_c, 0, 56, 71
1, 255708, Note_on_c, 0, 44, 64
1, 255740, Note_on_c, 0, 71, 80
1, 255741, Note_off_c, 0, 70, 60
1, 255744, Note_off_c, 0, 73, 62
1, 255745, Note_off_c, 0, 56, 58
1, 255758, Note_on_c, 0, 74, 62
1, 255759, Note_off_c, 0, 44, 58
1, 255781, Note_off_c, 0, 74, 57
1, 255796, Control_c, 0, 64, 109
1, 255811, Control_c, 0, 64, 106
1, 255821, Note_on_c, 0, 70, 74
1, 255821, Note_on_c, 0, 73, 65
1, 255825, Control_c, 0, 64, 104
1, 255829, Note_off_c, 0, 71, 58
1, 255840, Control_c, 0, 64, 103
1, 255875, Note_on_c, 0, 54, 76
1, 255877, Note_off_c, 0, 70, 61
1, 255878, Note_on_c, 0, 42, 74
1, 255890, Note_on_c, 0, 71, 76
1, 255894, Note_on_c, 0, 75, 80
1, 255894, Note_off_c, 0, 73, 62
1, 255903, Note_off_c, 0, 54, 64
1, 255907, Note_off_c, 0, 42, 68
1, 255914, Control_c, 0, 64, 103
1, 255929, Control_c, 0, 64, 106
1, 255943, Control_c, 0, 64, 111
1, 255956, Note_on_c, 0, 56, 78
1, 255958, Note_on_c, 0, 44, 72
1, 255958, Control_c, 0, 64, 119
1, 255959, Note_on_c, 0, 73, 67
1, 255964, Note_off_c, 0, 75, 65
1, 255966, Note_on_c, 0, 70, 77
1, 255970, Note_off_c, 0, 71, 59
1, 255973, Control_c, 0, 64, 127
1, 255979, Note_off_c, 0, 56, 67
1, 255989, Note_off_c, 0, 44, 65
1, 256010, Note_on_c, 0, 54, 3
1, 256018, Note_on_c, 0, 71, 70
1, 256021, Note_off_c, 0, 70, 63
1, 256021, Note_off_c, 0, 73, 63
1, 256026, Note_on_c, 0, 75, 67
1, 256040, Note_off_c, 0, 54, 46
1, 256079, Note_on_c, 0, 58, 82
1, 256086, Note_on_c, 0, 73, 72
1, 256089, Note_on_c, 0, 46, 74
1, 256092, Note_on_c, 0, 70, 73
1, 256098, Note_off_c, 0, 75, 63
1, 256098, Note_off_c, 0, 71, 56
1, 256101, Note_off_c, 0, 58, 70
1, 256122, Note_off_c, 0, 46, 63
1, 256143, Note_on_c, 0, 71, 67
1, 256145, Note_off_c, 0, 70, 62
1, 256151, Note_off_c, 0, 73, 63
1, 256158, Note_on_c, 0, 75, 64
1, 256213, Note_on_c, 0, 73, 70
1, 256220, Note_on_c, 0, 70, 69
1, 256226, Note_off_c, 0, 75, 64
1, 256250, Note_on_c, 0, 49, 79
1, 256256, Note_on_c, 0, 37, 73
1, 256259, Note_off_c, 0, 70, 59
1, 256279, Note_off_c, 0, 49, 69
1, 256283, Note_off_c, 0, 73, 63
1, 256290, Note_off_c, 0, 37, 65
1, 256305, Note_on_c, 0, 75, 61
1, 256344, Note_on_c, 0, 70, 69
1, 256347, Note_off_c, 0, 75, 65
1, 256354, Note_on_c, 0, 73, 50
1, 256399, Note_off_c, 0, 73, 58
1, 256414, Note_on_c, 0, 37, 3
1, 256423, Note_on_c, 0, 75, 60
1, 256434, Note_off_c, 0, 37, 60
1, 256455, Control_c, 0, 64, 120
1, 256469, Control_c, 0, 64, 98
1, 256472, Note_on_c, 0, 73, 76
1, 256476, Note_on_c, 0, 30, 66
1, 256476, Note_on_c, 0, 42, 70
1, 256484, Control_c, 0, 64, 80
1, 256495, Note_off_c, 0, 71, 62
1, 256500, Control_c, 0, 64, 64
1, 256501, Note_off_c, 0, 75, 63
1, 256515, Control_c, 0, 64, 0
1, 256530, Control_c, 0, 64, 32
1, 256545, Control_c, 0, 64, 63
1, 256552, Note_off_c, 0, 42, 61
1, 256556, Note_off_c, 0, 30, 62
1, 256560, Control_c, 0, 64, 70
1, 256569, Note_off_c, 0, 73, 63
1, 256574, Control_c, 0, 64, 77
1, 256589, Control_c, 0, 64, 87
1, 256604, Control_c, 0, 64, 97
1, 256618, Control_c, 0, 64, 102
1, 256633, Control_c, 0, 64, 105
1, 256648, Control_c, 0, 64, 105
1, 256678, Note_on_c, 0, 49, 70
1, 256680, Note_on_c, 0, 37, 66
1, 256680, Note_on_c, 0, 72, 86
1, 256685, Note_on_c, 0, 69, 79
1, 256692, Control_c, 0, 64, 106
1, 256703, Note_off_c, 0, 70, 55
1, 256727, Note_off_c, 0, 37, 65
1, 256745, Note_off_c, 0, 49, 61
1, 256775, Note_off_c, 0, 69, 58
1, 256798, Note_off_c, 0, 72, 60
1, 256831, Note_on_c, 0, 56, 80
1, 256832, Note_on_c, 0, 73, 83
1, 256838, Note_on_c, 0, 70, 73
1, 256843, Note_on_c, 0, 44, 61
1, 256870, Note_on_c, 0, 46, 30
1, 256870, Note_off_c, 0, 70, 62
1, 256877, Note_off_c, 0, 56, 62
1, 256877, Note_off_c, 0, 73, 61
1, 256885, Control_c, 0, 64, 106
1, 256894, Note_off_c, 0, 44, 59
1, 256909, Note_off_c, 0, 46, 46
1, 256915, Control_c, 0, 64, 107
1, 256929, Note_on_c, 0, 70, 84
1, 256936, Note_on_c, 0, 73, 76
1, 256955, Note_off_c, 0, 70, 66
1, 256989, Control_c, 0, 64, 102
1, 257004, Control_c, 0, 64, 89
1, 257025, Control_c, 0, 64, 72
1, 257031, Note_on_c, 0, 75, 74
1, 257037, Note_off_c, 0, 73, 59
1, 257041, Control_c, 0, 64, 0
1, 257043, Note_on_c, 0, 54, 82
1, 257046, Note_on_c, 0, 42, 71
1, 257049, Note_on_c, 0, 78, 50
1, 257050, Note_on_c, 0, 71, 78
1, 257067, Note_off_c, 0, 54, 66
1, 257071, Control_c, 0, 64, 31
1, 257075, Note_off_c, 0, 78, 56
1, 257078, Note_off_c, 0, 42, 65
1, 257081, Note_on_c, 0, 70, 37
1, 257086, Control_c, 0, 64, 65
1, 257100, Control_c, 0, 64, 71
1, 257111, Note_off_c, 0, 70, 35
1, 257115, Control_c, 0, 64, 79
1, 257130, Control_c, 0, 64, 88
1, 257135, Note_on_c, 0, 56, 85
1, 257145, Control_c, 0, 64, 96
1, 257153, Note_on_c, 0, 44, 53
1, 257160, Control_c, 0, 64, 101
1, 257174, Control_c, 0, 64, 103
1, 257180, Note_off_c, 0, 56, 60
1, 257181, Note_off_c, 0, 44, 61
1, 257219, Control_c, 0, 64, 104
1, 257225, Note_off_c, 0, 75, 58
1, 257233, Control_c, 0, 64, 105
1, 257244, Note_on_c, 0, 58, 84
1, 257244, Note_on_c, 0, 73, 89
1, 257246, Note_on_c, 0, 70, 90
1, 257248, Control_c, 0, 64, 108
1, 257253, Note_off_c, 0, 71, 60
1, 257259, Note_on_c, 0, 46, 57
1, 257263, Control_c, 0, 64, 110
1, 257278, Control_c, 0, 64, 115
1, 257284, Note_off_c, 0, 70, 58
1, 257285, Note_off_c, 0, 58, 56
1, 257293, Note_off_c, 0, 46, 63
1, 257294, Control_c, 0, 64, 122
1, 257309, Control_c, 0, 64, 127
1, 257421, Note_on_c, 0, 61, 75
1, 257430, Note_on_c, 0, 49, 67
1, 257433, Note_on_c, 0, 70, 87
1, 257436, Note_on_c, 0, 66, 84
1, 257440, Note_off_c, 0, 73, 61
1, 257444, Note_off_c, 0, 61, 66
1, 257463, Note_off_c, 0, 49, 64
1, 257561, Control_c, 0, 64, 127
1, 257576, Control_c, 0, 64, 124
1, 257590, Control_c, 0, 64, 121
1, 257605, Control_c, 0, 64, 119
1, 257620, Control_c, 0, 64, 116
1, 257635, Control_c, 0, 64, 114
1, 257649, Control_c, 0, 64, 110
1, 257652, Note_on_c, 0, 30, 67
1, 257652, Note_on_c, 0, 42, 72
1, 257664, Control_c, 0, 64, 106
1, 257679, Control_c, 0, 64, 100
1, 257694, Control_c, 0, 64, 92
1, 257709, Control_c, 0, 64, 83
1, 257723, Control_c, 0, 64, 72
1, 257727, Note_on_c, 0, 78, 88
1, 257734, Note_on_c, 0, 75, 78
1, 257738, Control_c, 0, 64, 58
1, 257752, Note_off_c, 0, 66, 60
1, 257753, Control_c, 0, 64, 0
1, 257774, Note_off_c, 0, 70, 57
1, 257805, Control_c, 0, 64, 42
1, 257820, Control_c, 0, 64, 64
1, 257835, Note_off_c, 0, 30, 63
1, 257835, Control_c, 0, 64, 71
1, 257849, Control_c, 0, 64, 82
1, 257852, Note_off_c, 0, 42, 63
1, 257864, Control_c, 0, 64, 93
1, 257879, Control_c, 0, 64, 101
1, 257894, Control_c, 0, 64, 105
1, 257909, Control_c, 0, 64, 107
1, 257921, Note_off_c, 0, 78, 64
1, 257923, Control_c, 0, 64, 108
1, 257938, Control_c, 0, 64, 110
1, 257963, Note_off_c, 0, 75, 62
1, 257973, Note_on_c, 0, 66, 92
1, 257976, Note_on_c, 0, 70, 83
1, 257988, Note_on_c, 0, 37, 39
1, 258011, Note_on_c, 0, 48, 15
1, 258022, Note_off_c, 0, 37, 51
1, 258053, Note_off_c, 0, 48, 42
1, 258086, Control_c, 0, 64, 109
1, 258102, Control_c, 0, 64, 108
1, 258109, Note_off_c, 0, 66, 61
1, 258117, Control_c, 0, 64, 107
1, 258132, Control_c, 0, 64, 106
1, 258139, Note_on_c, 0, 75, 82
1, 258141, Note_off_c, 0, 70, 59
1, 258146, Control_c, 0, 64, 105
1, 258147, Note_on_c, 0, 71, 77
1, 258150, Note_on_c, 0, 53, 73
1, 258156, Note_on_c, 0, 41, 69
1, 258161, Control_c, 0, 64, 105
1, 258176, Control_c, 0, 64, 104
1, 258190, Note_off_c, 0, 53, 64
1, 258191, Control_c, 0, 64, 104
1, 258201, Note_off_c, 0, 41, 65
1, 258206, Control_c, 0, 64, 103
1, 258220, Control_c, 0, 64, 103
1, 258250, Control_c, 0, 64, 102
1, 258265, Control_c, 0, 64, 98
1, 258277, Note_off_c, 0, 75, 60
1, 258280, Control_c, 0, 64, 88
1, 258295, Control_c, 0, 64, 73
1, 258310, Control_c, 0, 64, 38
1, 258319, Note_on_c, 0, 73, 74
1, 258319, Note_on_c, 0, 54, 74
1, 258323, Note_on_c, 0, 42, 68
1, 258324, Control_c, 0, 64, 0
1, 258327, Note_on_c, 0, 70, 73
1, 258333, Note_off_c, 0, 71, 57
1, 258339, Control_c, 0, 64, 57
1, 258343, Note_off_c, 0, 54, 65
1, 258352, Note_off_c, 0, 42, 64
1, 258354, Control_c, 0, 64, 68
1, 258369, Note_off_c, 0, 70, 64
1, 258369, Control_c, 0, 64, 75
1, 258384, Control_c, 0, 64, 84
1, 258399, Control_c, 0, 64, 93
1, 258402, Note_on_c, 0, 56, 85
1, 258410, Note_on_c, 0, 44, 66
1, 258413, Control_c, 0, 64, 101
1, 258428, Control_c, 0, 64, 108
1, 258436, Note_off_c, 0, 56, 61
1, 258443, Control_c, 0, 64, 118
1, 258446, Note_off_c, 0, 44, 63
1, 258458, Control_c, 0, 64, 127
1, 258494, Poly_aftertouch_c, 0, 46, 127
1, 258500, Note_on_c, 0, 61, 80
1, 258506, Note_on_c, 0, 66, 81
1, 258508, Note_on_c, 0, 46, 14
1, 258520, Note_on_c, 0, 58, 77
1, 258527, Note_off_c, 0, 73, 35
1, 258544, Note_off_c, 0, 58, 68
1, 258574, Note_off_c, 0, 46, 61
1, 258690, Note_off_c, 0, 61, 53
1, 258697, Note_on_c, 0, 71, 82
1, 258707, Note_on_c, 0, 68, 78
1, 258709, Note_on_c, 0, 49, 76
1, 258715, Note_off_c, 0, 66, 64
1, 258719, Note_on_c, 0, 37, 61
1, 258735, Note_off_c, 0, 49, 65
1, 258747, Note_off_c, 0, 37, 65
1, 258907, Note_on_c, 0, 30, 67
1, 258912, Note_on_c, 0, 42, 67
1, 258939, Control_c, 0, 64, 115
1, 258954, Control_c, 0, 64, 100
1, 258968, Control_c, 0, 64, 84
1, 258983, Control_c, 0, 64, 66
1, 258995, Note_on_c, 0, 70, 84
1, 258998, Control_c, 0, 64, 0
1, 259004, Note_on_c, 0, 66, 70
1, 259023, Note_off_c, 0, 68, 45
1, 259040, Note_off_c, 0, 71, 55
1, 259058, Control_c, 0, 64, 26
1, 259073, Control_c, 0, 64, 66
1, 259074, Note_off_c, 0, 30, 63
1, 259087, Control_c, 0, 64, 78
1, 259090, Note_off_c, 0, 42, 63
1, 259102, Control_c, 0, 64, 88
1, 259117, Control_c, 0, 64, 97
1, 259132, Control_c, 0, 64, 102
1, 259147, Control_c, 0, 64, 103
1, 259161, Control_c, 0, 64, 103
1, 259195, Note_on_c, 0, 49, 80
1, 259197, Note_on_c, 0, 37, 69
1, 259206, Control_c, 0, 64, 104
1, 259232, Note_off_c, 0, 37, 64
1, 259235, Control_c, 0, 64, 104
1, 259240, Note_off_c, 0, 49, 59
1, 259250, Control_c, 0, 64, 105
1, 259272, Control_c, 0, 64, 106
1, 259287, Control_c, 0, 64, 109
1, 259302, Control_c, 0, 64, 111
1, 259317, Control_c, 0, 64, 114
1, 259332, Control_c, 0, 64, 117
1, 259347, Control_c, 0, 64, 119
1, 259362, Control_c, 0, 64, 123
1, 259365, Note_on_c, 0, 56, 80
1, 259373, Note_on_c, 0, 44, 68
1, 259376, Control_c, 0, 64, 127
1, 259411, Note_off_c, 0, 56, 62
1, 259414, Note_off_c, 0, 44, 63
1, 259535, Note_on_c, 0, 64, 94
1, 259544, Note_on_c, 0, 42, 70
1, 259544, Note_on_c, 0, 54, 69
1, 259570, Note_off_c, 0, 54, 65
1, 259573, Note_off_c, 0, 66, 64
1, 259575, Note_off_c, 0, 42, 67
1, 259625, Note_on_c, 0, 56, 83
1, 259630, Note_on_c, 0, 44, 76
1, 259630, Note_off_c, 0, 64, 61
1, 259663, Note_off_c, 0, 44, 63
1, 259665, Note_off_c, 0, 56, 59
1, 259684, Note_off_c, 0, 70, 62
1, 259724, Note_on_c, 0, 58, 81
1, 259737, Note_on_c, 0, 46, 64
1, 259767, Note_off_c, 0, 46, 64
1, 259770, Note_off_c, 0, 58, 65
1, 259873, Note_on_c, 0, 61, 76
1, 259878, Note_on_c, 0, 49, 73
1, 259897, Note_off_c, 0, 61, 68
1, 259905, Note_off_c, 0, 49, 63
1, 259919, Note_on_c, 0, 63, 82
1, 259980, Note_on_c, 0, 71, 85
1, 260022, Note_off_c, 0, 63, 64
1, 260081, Control_c, 0, 64, 125
1, 260096, Control_c, 0, 64, 118
1, 260102, Note_on_c, 0, 42, 87
1, 260110, Note_on_c, 0, 30, 77
1, 260111, Control_c, 0, 64, 107
1, 260125, Control_c, 0, 64, 94
1, 260140, Control_c, 0, 64, 79
1, 260155, Control_c, 0, 64, 55
1, 260158, Note_on_c, 0, 32, 11
1, 260170, Control_c, 0, 64, 0
1, 260202, Note_off_c, 0, 32, 42
1, 260205, Note_on_c, 0, 78, 95
1, 260244, Control_c, 0, 64, 62
1, 260259, Control_c, 0, 64, 72
1, 260274, Control_c, 0, 64, 82
1, 260280, Note_off_c, 0, 30, 62
1, 260289, Control_c, 0, 64, 92
1, 260299, Note_off_c, 0, 42, 63
1, 260304, Control_c, 0, 64, 97
1, 260318, Control_c, 0, 64, 99
1, 260333, Control_c, 0, 64, 99
1, 260407, Note_off_c, 0, 78, 62
1, 260412, Note_off_c, 0, 71, 59
1, 260413, Note_on_c, 0, 54, 81
1, 260417, Note_on_c, 0, 42, 75
1, 260474, Note_off_c, 0, 42, 62
1, 260474, Note_off_c, 0, 54, 59
1, 260556, Control_c, 0, 64, 100
1, 260581, Note_on_c, 0, 61, 95
1, 260586, Control_c, 0, 64, 100
1, 260589, Note_on_c, 0, 49, 79
1, 260601, Control_c, 0, 64, 101
1, 260615, Control_c, 0, 64, 103
1, 260630, Note_off_c, 0, 61, 62
1, 260630, Control_c, 0, 64, 105
1, 260634, Note_off_c, 0, 49, 57
1, 260645, Control_c, 0, 64, 106
1, 260659, Control_c, 0, 64, 108
1, 260674, Control_c, 0, 64, 108
1, 260704, Control_c, 0, 64, 109
1, 260741, Note_on_c, 0, 78, 93
1, 260749, Note_on_c, 0, 66, 84
1, 260756, Note_on_c, 0, 75, 74
1, 260768, Note_on_c, 0, 47, 72
1, 260771, Note_on_c, 0, 59, 67
1, 260786, Control_c, 0, 64, 110
1, 260788, Note_off_c, 0, 59, 66
1, 260794, Note_off_c, 0, 47, 64
1, 260800, Control_c, 0, 64, 112
1, 260815, Control_c, 0, 64, 117
1, 260830, Control_c, 0, 64, 124
1, 260845, Control_c, 0, 64, 127
1, 260846, Note_on_c, 0, 61, 89
1, 260848, Note_on_c, 0, 49, 80
1, 260865, Note_off_c, 0, 61, 68
1, 260882, Note_off_c, 0, 49, 62
1, 260942, Note_on_c, 0, 63, 95
1, 260942, Note_on_c, 0, 51, 76
1, 260978, Note_off_c, 0, 63, 62
1, 260991, Note_off_c, 0, 51, 64
1, 261124, Note_on_c, 0, 54, 90
1, 261130, Note_on_c, 0, 42, 81
1, 261142, Note_off_c, 0, 54, 71
1, 261151, Note_off_c, 0, 42, 68
1, 261305, Control_c, 0, 64, 121
1, 261308, Note_on_c, 0, 30, 86
1, 261308, Note_on_c, 0, 42, 88
1, 261320, Control_c, 0, 64, 92
1, 261335, Control_c, 0, 64, 69
1, 261350, Control_c, 0, 64, 0
1, 261392, Note_off_c, 0, 30, 64
1, 261394, Control_c, 0, 64, 67
1, 261402, Note_off_c, 0, 75, 53
1, 261407, Note_off_c, 0, 42, 63
1, 261407, Note_off_c, 0, 78, 56
1, 261408, Note_off_c, 0, 66, 62
1, 261408, Control_c, 0, 64, 76
1, 261423, Control_c, 0, 64, 86
1, 261438, Control_c, 0, 64, 95
1, 261453, Control_c, 0, 64, 100
1, 261468, Control_c, 0, 64, 101
1, 261482, Control_c, 0, 64, 103
1, 261484, Note_on_c, 0, 77, 90
1, 261490, Note_on_c, 0, 65, 92
1, 261491, Note_on_c, 0, 74, 75
1, 261497, Control_c, 0, 64, 104
1, 261500, Note_on_c, 0, 54, 84
1, 261520, Control_c, 0, 64, 105
1, 261523, Note_on_c, 0, 42, 59
1, 261535, Control_c, 0, 64, 107
1, 261538, Note_on_c, 0, 75, 31
1, 261541, Note_off_c, 0, 65, 63
1, 261547, Note_off_c, 0, 42, 70
1, 261550, Control_c, 0, 64, 109
1, 261553, Note_off_c, 0, 54, 57
1, 261563, Note_off_c, 0, 77, 59
1, 261564, Control_c, 0, 64, 112
1, 261571, Note_off_c, 0, 75, 45
1, 261579, Control_c, 0, 64, 115
1, 261592, Note_off_c, 0, 74, 61
1, 261594, Control_c, 0, 64, 120
1, 261608, Control_c, 0, 64, 125
1, 261623, Control_c, 0, 64, 127
1, 261630, Note_on_c, 0, 66, 95
1, 261639, Note_on_c, 0, 78, 88
1, 261649, Note_on_c, 0, 75, 70
1, 261657, Note_on_c, 0, 61, 87
1, 261671, Note_on_c, 0, 49, 72
1, 261672, Note_off_c, 0, 66, 66
1, 261676, Note_off_c, 0, 75, 69
1, 261691, Note_off_c, 0, 78, 61
1, 261700, Note_off_c, 0, 49, 63
1, 261700, Note_off_c, 0, 61, 58
1, 261732, Note_on_c, 0, 82, 96
1, 261806, Note_on_c, 0, 47, 79
1, 261812, Note_on_c, 0, 59, 79
1, 261812, Note_on_c, 0, 80, 59
1, 261826, Note_on_c, 0, 68, 83
1, 261830, Note_on_c, 0, 77, 66
1, 261838, Note_on_c, 0, 76, 69
1, 261838, Note_off_c, 0, 59, 61
1, 261842, Note_off_c, 0, 47, 64
1, 261842, Note_off_c, 0, 68, 69
1, 261857, Note_on_c, 0, 78, 31
1, 261861, Note_off_c, 0, 82, 62
1, 261890, Note_off_c, 0, 78, 43
1, 261892, Note_off_c, 0, 76, 42
1, 261913, Note_on_c, 0, 61, 84
1, 261925, Note_on_c, 0, 49, 63
1, 261939, Note_off_c, 0, 61, 64
1, 261954, Note_off_c, 0, 49, 60
1, 261982, Note_off_c, 0, 80, 58
1, 261984, Note_off_c, 0, 77, 58
1, 262021, Poly_aftertouch_c, 0, 51, 0
1, 262029, Note_on_c, 0, 78, 101
1, 262031, Note_on_c, 0, 63, 91
1, 262039, Note_on_c, 0, 51, 49
1, 262077, Note_off_c, 0, 63, 60
1, 262083, Note_off_c, 0, 51, 59
1, 262140, Note_on_c, 0, 77, 51
1, 262184, Note_off_c, 0, 77, 46
1, 262206, Note_off_c, 0, 78, 46
1, 262213, Note_on_c, 0, 66, 87
1, 262213, Note_on_c, 0, 75, 99
1, 262215, Note_on_c, 0, 71, 90
1, 262229, Note_on_c, 0, 54, 58
1, 262232, Note_off_c, 0, 66, 71
1, 262238, Note_off_c, 0, 71, 61
1, 262248, Note_off_c, 0, 54, 60
1, 262275, Note_off_c, 0, 75, 66
1, 262437, Note_on_c, 0, 30, 82
1, 262438, Note_on_c, 0, 42, 86
1, 262460, Control_c, 0, 64, 120
1, 262475, Control_c, 0, 64, 102
1, 262490, Control_c, 0, 64, 85
1, 262501, Note_on_c, 0, 87, 100
1, 262505, Note_on_c, 0, 83, 82
1, 262505, Control_c, 0, 64, 68
1, 262505, Note_on_c, 0, 75, 92
1, 262519, Control_c, 0, 64, 0
1, 262578, Control_c, 0, 64, 62
1, 262593, Control_c, 0, 64, 71
1, 262608, Control_c, 0, 64, 83
1, 262620, Note_off_c, 0, 30, 63
1, 262623, Control_c, 0, 64, 99
1, 262635, Note_off_c, 0, 42, 63
1, 262638, Control_c, 0, 64, 124
1, 262653, Control_c, 0, 64, 127
1, 262678, Note_off_c, 0, 75, 63
1, 262689, Note_off_c, 0, 87, 62
1, 262712, Note_off_c, 0, 83, 62
1, 262758, Note_on_c, 0, 42, 71
1, 262762, Note_on_c, 0, 85, 89
1, 262763, Note_on_c, 0, 73, 93
1, 262774, Note_on_c, 0, 82, 60
1, 262793, Note_on_c, 0, 53, 39
1, 262794, Note_off_c, 0, 42, 63
1, 262794, Note_off_c, 0, 85, 67
1, 262795, Note_off_c, 0, 73, 57
1, 262795, Note_off_c, 0, 82, 42
1, 262826, Note_off_c, 0, 53, 50
1, 262922, Note_on_c, 0, 66, 94
1, 262923, Note_on_c, 0, 78, 93
1, 262927, Note_on_c, 0, 61, 85
1, 262938, Note_on_c, 0, 49, 72
1, 262939, Note_on_c, 0, 75, 71
1, 262963, Note_off_c, 0, 61, 57
1, 262965, Note_off_c, 0, 66, 63
1, 262966, Note_off_c, 0, 49, 64
1, 263058, Note_off_c, 0, 75, 59
1, 263099, Note_on_c, 0, 83, 91
1, 263103, Note_on_c, 0, 47, 75
1, 263112, Note_on_c, 0, 59, 65
1, 263123, Note_off_c, 0, 78, 49
1, 263131, Note_off_c, 0, 59, 64
1, 263133, Note_off_c, 0, 47, 65
1, 263191, Note_on_c, 0, 49, 73
1, 263204, Note_on_c, 0, 61, 67
1, 263226, Note_off_c, 0, 49, 60
1, 263231, Note_off_c, 0, 61, 64
1, 263282, Note_on_c, 0, 75, 87
1, 263289, Note_on_c, 0, 71, 81
1, 263296, Note_on_c, 0, 63, 90
1, 263303, Note_off_c, 0, 83, 60
1, 263312, Note_on_c, 0, 51, 45
1, 263317, Note_off_c, 0, 71, 62
1, 263332, Note_off_c, 0, 63, 59
1, 263334, Note_on_c, 0, 52, 51
1, 263345, Note_off_c, 0, 51, 53
1, 263356, Note_off_c, 0, 75, 62
1, 263360, Note_off_c, 0, 52, 54
1, 263475, Note_on_c, 0, 78, 48
1, 263479, Note_on_c, 0, 54, 75
1, 263479, Note_on_c, 0, 82, 90
1, 263483, Note_on_c, 0, 70, 83
1, 263490, Note_on_c, 0, 42, 66
1, 263499, Note_off_c, 0, 78, 55
1, 263506, Note_off_c, 0, 54, 65
1, 263511, Note_on_c, 0, 77, 53
1, 263524, Note_off_c, 0, 42, 65
1, 263529, Note_off_c, 0, 70, 57
1, 263532, Note_off_c, 0, 77, 58
1, 263545, Note_off_c, 0, 82, 63
1, 263700, Control_c, 0, 64, 120
1, 263708, Note_on_c, 0, 77, 49
1, 263711, Note_on_c, 0, 80, 94
1, 263714, Note_on_c, 0, 30, 68
1, 263715, Control_c, 0, 64, 99
1, 263719, Note_on_c, 0, 68, 76
1, 263720, Note_on_c, 0, 42, 66
1, 263730, Control_c, 0, 64, 83
1, 263745, Control_c, 0, 64, 67
1, 263767, Control_c, 0, 64, 0
1, 263797, Control_c, 0, 64, 64
1, 263811, Control_c, 0, 64, 71
1, 263821, Note_off_c, 0, 30, 63
1, 263826, Control_c, 0, 64, 80
1, 263836, Note_off_c, 0, 42, 63
1, 263841, Control_c, 0, 64, 90
1, 263845, Note_off_c, 0, 68, 62
1, 263856, Control_c, 0, 64, 97
1, 263871, Control_c, 0, 64, 100
1, 263881, Note_off_c, 0, 80, 62
1, 263885, Control_c, 0, 64, 100
1, 263895, Note_off_c, 0, 77, 61
1, 263928, Note_on_c, 0, 66, 80
1, 263928, Note_on_c, 0, 78, 82
1, 263932, Note_on_c, 0, 75, 74
1, 263936, Note_on_c, 0, 37, 65
1, 263939, Note_on_c, 0, 49, 61
1, 263956, Note_off_c, 0, 66, 63
1, 263956, Note_off_c, 0, 75, 68
1, 263962, Note_off_c, 0, 49, 59
1, 263964, Note_off_c, 0, 37, 60
1, 263974, Note_off_c, 0, 78, 60
1, 264099, Note_on_c, 0, 75, 87
1, 264102, Note_on_c, 0, 56, 69
1, 264107, Note_on_c, 0, 63, 74
1, 264109, Note_on_c, 0, 71, 70
1, 264111, Note_on_c, 0, 44, 62
1, 264150, Note_off_c, 0, 56, 59
1, 264161, Note_off_c, 0, 44, 61
1, 264175, Note_off_c, 0, 63, 64
1, 264241, Control_c, 0, 64, 99
1, 264256, Control_c, 0, 64, 92
1, 264262, Note_off_c, 0, 75, 60
1, 264271, Control_c, 0, 64, 81
1, 264285, Control_c, 0, 64, 66
1, 264286, Note_on_c, 0, 73, 79
1, 264292, Note_on_c, 0, 61, 77
1, 264297, Note_on_c, 0, 70, 68
1, 264300, Control_c, 0, 64, 20
1, 264301, Note_on_c, 0, 42, 58
1, 264304, Note_on_c, 0, 54, 54
1, 264313, Note_off_c, 0, 71, 56
1, 264315, Control_c, 0, 64, 42
1, 264322, Note_off_c, 0, 42, 65
1, 264326, Note_off_c, 0, 54, 61
1, 264329, Control_c, 0, 64, 64
1, 264344, Control_c, 0, 64, 70
1, 264359, Control_c, 0, 64, 78
1, 264363, Note_off_c, 0, 61, 61
1, 264374, Control_c, 0, 64, 87
1, 264383, Note_on_c, 0, 56, 77
1, 264389, Control_c, 0, 64, 97
1, 264399, Note_on_c, 0, 44, 48
1, 264403, Control_c, 0, 64, 106
1, 264407, Note_off_c, 0, 56, 66
1, 264418, Control_c, 0, 64, 110
1, 264426, Note_off_c, 0, 44, 56
1, 264433, Control_c, 0, 64, 111
1, 264448, Control_c, 0, 64, 113
1, 264463, Control_c, 0, 64, 116
1, 264479, Control_c, 0, 64, 120
1, 264486, Note_on_c, 0, 58, 81
1, 264494, Control_c, 0, 64, 124
1, 264512, Note_on_c, 0, 46, 56
1, 264516, Control_c, 0, 64, 127
1, 264516, Note_off_c, 0, 58, 70
1, 264540, Note_off_c, 0, 70, 24
1, 264543, Note_off_c, 0, 46, 63
1, 264681, Note_on_c, 0, 63, 83
1, 264689, Note_on_c, 0, 49, 58
1, 264692, Note_on_c, 0, 37, 56
1, 264710, Note_off_c, 0, 49, 59
1, 264721, Note_off_c, 0, 37, 65
1, 264723, Control_c, 0, 64, 126
1, 264733, Note_off_c, 0, 63, 63
1, 264738, Control_c, 0, 64, 124
1, 264753, Control_c, 0, 64, 122
1, 264768, Control_c, 0, 64, 121
1, 264782, Control_c, 0, 64, 119
1, 264797, Control_c, 0, 64, 117
1, 264812, Control_c, 0, 64, 116
1, 264827, Control_c, 0, 64, 115
1, 264841, Control_c, 0, 64, 113
1, 264856, Control_c, 0, 64, 109
1, 264864, Note_on_c, 0, 30, 49
1, 264871, Note_on_c, 0, 42, 63
1, 264871, Control_c, 0, 64, 100
1, 264886, Control_c, 0, 64, 87
1, 264899, Note_off_c, 0, 73, 27
1, 264901, Control_c, 0, 64, 72
1, 264915, Control_c, 0, 64, 0
1, 264941, Note_on_c, 0, 64, 71
1, 264972, Note_off_c, 0, 64, 56
1, 264975, Control_c, 0, 64, 23
1, 264990, Control_c, 0, 64, 65
1, 264998, Note_on_c, 0, 70, 77
1, 265005, Note_off_c, 0, 30, 55
1, 265005, Control_c, 0, 64, 73
1, 265020, Control_c, 0, 64, 83
1, 265023, Note_off_c, 0, 42, 63
1, 265034, Control_c, 0, 64, 94
1, 265049, Control_c, 0, 64, 102
1, 265064, Control_c, 0, 64, 106
1, 265079, Control_c, 0, 64, 107
1, 265079, Note_on_c, 0, 80, 87
1, 265091, Note_off_c, 0, 70, 62
1, 265094, Control_c, 0, 64, 109
1, 265108, Control_c, 0, 64, 113
1, 265123, Control_c, 0, 64, 117
1, 265138, Control_c, 0, 64, 121
1, 265146, Note_off_c, 0, 80, 62
1, 265152, Control_c, 0, 64, 126
1, 265167, Control_c, 0, 64, 127
1, 265266, Note_on_c, 0, 49, 66
1, 265276, Note_on_c, 0, 37, 48
1, 265306, Note_off_c, 0, 37, 59
1, 265308, Note_off_c, 0, 49, 61
1, 265441, Note_on_c, 0, 56, 75
1, 265455, Note_on_c, 0, 44, 58
1, 265470, Note_off_c, 0, 56, 63
1, 265497, Note_off_c, 0, 44, 62
1, 265592, Note_on_c, 0, 80, 85
1, 265595, Note_on_c, 0, 70, 77
1, 265611, Note_on_c, 0, 76, 68
1, 265623, Note_on_c, 0, 42, 72
1, 265623, Note_on_c, 0, 54, 70
1, 265652, Note_off_c, 0, 54, 64
1, 265656, Note_off_c, 0, 42, 62
1, 265708, Note_on_c, 0, 54, 77
1, 265725, Note_off_c, 0, 54, 67
1, 265804, Note_on_c, 0, 58, 89
1, 265816, Note_on_c, 0, 46, 69
1, 265826, Note_off_c, 0, 58, 69
1, 265847, Note_off_c, 0, 46, 64
1, 265852, Note_off_c, 0, 70, 53
1, 265987, Note_on_c, 0, 49, 77
1, 265994, Note_on_c, 0, 37, 69
1, 266018, Note_off_c, 0, 49, 67
1, 266032, Note_off_c, 0, 37, 66
1, 266089, Note_off_c, 0, 76, 62
1, 266132, Control_c, 0, 64, 103
1, 266147, Control_c, 0, 64, 84
1, 266161, Control_c, 0, 64, 66
1, 266168, Note_on_c, 0, 42, 79
1, 266171, Note_on_c, 0, 30, 66
1, 266176, Control_c, 0, 64, 0
1, 266191, Control_c, 0, 64, 49
1, 266206, Control_c, 0, 64, 67
1, 266209, Note_on_c, 0, 29, 41
1, 266221, Control_c, 0, 64, 76
1, 266236, Control_c, 0, 64, 88
1, 266241, Note_off_c, 0, 30, 62
1, 266251, Control_c, 0, 64, 103
1, 266253, Note_off_c, 0, 29, 51
1, 266260, Note_off_c, 0, 42, 62
1, 266266, Control_c, 0, 64, 123
1, 266280, Control_c, 0, 64, 127
1, 266353, Note_on_c, 0, 78, 82
1, 266358, Note_on_c, 0, 70, 80
1, 266358, Note_on_c, 0, 75, 77
1, 266358, Note_on_c, 0, 49, 80
1, 266362, Note_off_c, 0, 80, 51
1, 266367, Note_on_c, 0, 37, 66
1, 266388, Note_off_c, 0, 70, 57
1, 266399, Note_off_c, 0, 75, 61
1, 266399, Note_off_c, 0, 78, 63
1, 266400, Note_off_c, 0, 37, 64
1, 266412, Note_off_c, 0, 49, 59
1, 266528, Note_on_c, 0, 54, 82
1, 266534, Note_on_c, 0, 42, 68
1, 266541, Note_on_c, 0, 66, 83
1, 266543, Note_on_c, 0, 76, 71
1, 266549, Note_on_c, 0, 68, 74
1, 266549, Note_on_c, 0, 75, 65
1, 266554, Note_off_c, 0, 54, 64
1, 266561, Note_off_c, 0, 42, 66
1, 266567, Note_off_c, 0, 66, 64
1, 266602, Note_off_c, 0, 76, 64
1, 266606, Note_off_c, 0, 75, 63
1, 266690, Note_off_c, 0, 68, 61
1, 266724, Control_c, 0, 64, 99
1, 266729, Note_on_c, 0, 66, 88
1, 266731, Note_on_c, 0, 75, 84
1, 266739, Control_c, 0, 64, 77
1, 266741, Note_on_c, 0, 35, 67
1, 266746, Note_on_c, 0, 48, 46
1, 266761, Control_c, 0, 64, 0
1, 266763, Note_off_c, 0, 66, 62
1, 266769, Note_on_c, 0, 71, 42
1, 266770, Note_on_c, 0, 76, 54
1, 266772, Note_on_c, 0, 47, 50
1, 266775, Note_on_c, 0, 72, 38
1, 266784, Note_off_c, 0, 48, 55
1, 266789, Note_off_c, 0, 76, 63
1, 266794, Note_off_c, 0, 71, 56
1, 266796, Note_off_c, 0, 75, 61
1, 266800, Note_off_c, 0, 72, 50
1, 266820, Control_c, 0, 64, 55
1, 266829, Note_off_c, 0, 35, 63
1, 266834, Note_on_c, 0, 73, 88
1, 266835, Control_c, 0, 64, 68
1, 266850, Note_on_c, 0, 64, 67
1, 266850, Note_off_c, 0, 47, 58
1, 266850, Control_c, 0, 64, 78
1, 266865, Control_c, 0, 64, 89
1, 266868, Note_off_c, 0, 64, 65
1, 266871, Note_on_c, 0, 65, 40
1, 266872, Note_on_c, 0, 67, 39
1, 266881, Control_c, 0, 64, 96
1, 266896, Control_c, 0, 64, 100
1, 266901, Note_off_c, 0, 65, 55
1, 266904, Note_off_c, 0, 67, 52
1, 266910, Control_c, 0, 64, 103
1, 266925, Control_c, 0, 64, 104
1, 266940, Note_on_c, 0, 71, 85
1, 266940, Control_c, 0, 64, 107
1, 266942, Note_on_c, 0, 63, 75
1, 266954, Note_off_c, 0, 73, 54
1, 266955, Control_c, 0, 64, 108
1, 266957, Note_on_c, 0, 67, 73
1, 266959, Note_on_c, 0, 54, 77
1, 266959, Note_off_c, 0, 63, 65
1, 266970, Control_c, 0, 64, 109
1, 266979, Note_on_c, 0, 42, 49
1, 266983, Note_off_c, 0, 67, 66
1, 266991, Note_off_c, 0, 54, 57
1, 267003, Note_off_c, 0, 71, 61
1, 267005, Note_off_c, 0, 42, 56
1, 267073, Control_c, 0, 64, 109
1, 267088, Control_c, 0, 64, 111
1, 267089, Note_on_c, 0, 59, 88
1, 267101, Note_on_c, 0, 45, 75
1, 267103, Control_c, 0, 64, 111
1, 267107, Note_off_c, 0, 59, 70
1, 267112, Note_on_c, 0, 47, 52
1, 267118, Control_c, 0, 64, 112
1, 267120, Note_on_c, 0, 57, 49
1, 267127, Note_off_c, 0, 45, 66
1, 267142, Note_off_c, 0, 47, 54
1, 267144, Note_off_c, 0, 57, 58
1, 267161, Note_on_c, 0, 66, 89
1, 267220, Note_on_c, 0, 72, 87
1, 267242, Note_off_c, 0, 66, 66
1, 267281, Control_c, 0, 64, 109
1, 267296, Control_c, 0, 64, 100
1, 267303, Note_on_c, 0, 44, 95
1, 267306, Note_on_c, 0, 32, 82
1, 267310, Control_c, 0, 64, 84
1, 267325, Control_c, 0, 64, 52
1, 267340, Control_c, 0, 64, 0
1, 267412, Note_on_c, 0, 82, 94
1, 267428, Control_c, 0, 64, 70
1, 267443, Control_c, 0, 64, 85
1, 267453, Note_off_c, 0, 32, 62
1, 267458, Control_c, 0, 64, 105
1, 267466, Note_off_c, 0, 44, 63
1, 267473, Control_c, 0, 64, 127
1, 267517, Note_off_c, 0, 72, 50
1, 267568, Note_off_c, 0, 82, 63
1, 267658, Note_on_c, 0, 51, 86
1, 267667, Note_on_c, 0, 39, 71
1, 267697, Note_off_c, 0, 39, 64
1, 267706, Note_off_c, 0, 51, 62
1, 267828, Note_on_c, 0, 58, 89
1, 267837, Note_on_c, 0, 46, 79
1, 267872, Note_off_c, 0, 46, 61
1, 267873, Note_off_c, 0, 58, 62
1, 267991, Note_on_c, 0, 82, 90
1, 268000, Note_on_c, 0, 72, 77
1, 268001, Note_on_c, 0, 78, 71
1, 268007, Note_on_c, 0, 56, 81
1, 268008, Note_on_c, 0, 44, 79
1, 268032, Note_off_c, 0, 56, 69
1, 268048, Note_off_c, 0, 44, 54
1, 268093, Note_on_c, 0, 58, 89
1, 268103, Note_on_c, 0, 46, 69
1, 268103, Note_on_c, 0, 56, 70
1, 268105, Note_on_c, 0, 44, 41
1, 268117, Note_off_c, 0, 56, 68
1, 268119, Note_off_c, 0, 58, 60
1, 268127, Note_off_c, 0, 46, 61
1, 268132, Note_off_c, 0, 44, 59
1, 268191, Note_on_c, 0, 60, 94
1, 268205, Note_on_c, 0, 48, 76
1, 268224, Note_off_c, 0, 60, 60
1, 268235, Note_off_c, 0, 48, 68
1, 268363, Note_on_c, 0, 51, 95
1, 268370, Note_on_c, 0, 39, 80
1, 268387, Note_off_c, 0, 51, 64
1, 268400, Note_off_c, 0, 39, 60
1, 268451, Note_off_c, 0, 78, 51
1, 268480, Note_off_c, 0, 72, 60
1, 268496, Control_c, 0, 64, 114
1, 268511, Control_c, 0, 64, 89
1, 268526, Control_c, 0, 64, 68
1, 268540, Note_on_c, 0, 44, 88
1, 268541, Control_c, 0, 64, 0
1, 268544, Note_on_c, 0, 32, 89
1, 268555, Control_c, 0, 64, 41
1, 268570, Control_c, 0, 64, 71
1, 268585, Control_c, 0, 64, 83
1, 268600, Control_c, 0, 64, 101
1, 268615, Note_off_c, 0, 32, 63
1, 268615, Control_c, 0, 64, 127
1, 268621, Note_off_c, 0, 44, 63
1, 268716, Note_on_c, 0, 80, 89
1, 268722, Note_on_c, 0, 72, 81
1, 268726, Note_on_c, 0, 77, 75
1, 268734, Note_on_c, 0, 51, 79
1, 268738, Note_off_c, 0, 82, 64
1, 268739, Note_on_c, 0, 39, 68
1, 268745, Note_off_c, 0, 72, 68
1, 268749, Note_off_c, 0, 77, 67
1, 268764, Note_off_c, 0, 80, 65
1, 268770, Note_off_c, 0, 39, 63
1, 268776, Note_off_c, 0, 51, 59
1, 268910, Note_on_c, 0, 56, 91
1, 268917, Note_on_c, 0, 78, 92
1, 268919, Note_on_c, 0, 44, 76
1, 268922, Note_on_c, 0, 70, 89
1, 268925, Note_on_c, 0, 72, 80
1, 268942, Note_off_c, 0, 56, 63
1, 268948, Note_off_c, 0, 44, 64
1, 269002, Note_off_c, 0, 70, 54
1, 269078, Note_off_c, 0, 78, 60
1, 269095, Note_off_c, 0, 72, 61
1, 269125, Control_c, 0, 64, 108
1, 269134, Note_on_c, 0, 49, 86
1, 269135, Note_on_c, 0, 37, 82
1, 269135, Note_on_c, 0, 73, 78
1, 269136, Note_on_c, 0, 77, 85
1, 269137, Note_on_c, 0, 68, 94
1, 269140, Control_c, 0, 64, 74
1, 269154, Control_c, 0, 64, 0
1, 269178, Note_off_c, 0, 68, 65
1, 269192, Note_off_c, 0, 73, 62
1, 269199, Control_c, 0, 64, 63
1, 269214, Control_c, 0, 64, 71
1, 269215, Note_off_c, 0, 37, 64
1, 269218, Note_off_c, 0, 49, 62
1, 269229, Control_c, 0, 64, 82
1, 269234, Note_on_c, 0, 75, 80
1, 269244, Note_on_c, 0, 66, 94
1, 269244, Control_c, 0, 64, 95
1, 269258, Note_on_c, 0, 68, 79
1, 269258, Control_c, 0, 64, 100
1, 269274, Control_c, 0, 64, 101
1, 269278, Note_off_c, 0, 77, 59
1, 269282, Note_off_c, 0, 68, 65
1, 269300, Note_off_c, 0, 66, 61
1, 269318, Note_off_c, 0, 75, 63
1, 269352, Note_on_c, 0, 68, 100
1, 269354, Note_on_c, 0, 65, 95
1, 269354, Note_on_c, 0, 73, 87
1, 269359, Note_on_c, 0, 56, 85
1, 269360, Note_on_c, 0, 44, 81
1, 269378, Control_c, 0, 64, 102
1, 269393, Control_c, 0, 64, 102
1, 269407, Control_c, 0, 64, 104
1, 269416, Note_off_c, 0, 44, 63
1, 269417, Note_off_c, 0, 56, 65
1, 269419, Note_off_c, 0, 68, 62
1, 269422, Note_off_c, 0, 73, 62
1, 269422, Control_c, 0, 64, 108
1, 269428, Poly_aftertouch_c, 0, 75, 0
1, 269437, Control_c, 0, 64, 119
1, 269452, Control_c, 0, 64, 127
1, 269512, Note_off_c, 0, 65, 55
1, 269551, Note_on_c, 0, 77, 102
1, 269558, Note_on_c, 0, 68, 89
1, 269580, Note_on_c, 0, 63, 62
1, 269580, Note_on_c, 0, 51, 60
1, 269585, Note_on_c, 0, 61, 64
1, 269597, Note_off_c, 0, 68, 63
1, 269599, Note_off_c, 0, 63, 62
1, 269601, Note_off_c, 0, 51, 60
1, 269609, Note_off_c, 0, 77, 64
1, 269613, Note_off_c, 0, 61, 64
1, 269615, Note_on_c, 0, 50, 39
1, 269646, Note_off_c, 0, 50, 51
1, 269667, Poly_aftertouch_c, 0, 67, 0
1, 269735, Note_on_c, 0, 68, 87
1, 269798, Note_on_c, 0, 77, 89
1, 269816, Note_off_c, 0, 68, 63
1, 269825, Note_on_c, 0, 69, 50
1, 269848, Note_off_c, 0, 69, 59
1, 269860, Control_c, 0, 64, 120
1, 269862, Note_on_c, 0, 37, 85
1, 269863, Note_on_c, 0, 49, 91
1, 269875, Control_c, 0, 64, 88
1, 269890, Note_on_c, 0, 83, 101
1, 269890, Control_c, 0, 64, 61
1, 269904, Control_c, 0, 64, 0
1, 269926, Note_on_c, 0, 80, 33
1, 269935, Note_off_c, 0, 37, 65
1, 269943, Note_off_c, 0, 49, 62
1, 269949, Control_c, 0, 64, 63
1, 269956, Note_off_c, 0, 80, 33
1, 269963, Control_c, 0, 64, 74
1, 269978, Control_c, 0, 64, 87
1, 269993, Control_c, 0, 64, 100
1, 270008, Control_c, 0, 64, 109
1, 270022, Control_c, 0, 64, 112
1, 270037, Control_c, 0, 64, 112
1, 270052, Control_c, 0, 64, 113
1, 270060, Note_off_c, 0, 83, 59
1, 270067, Control_c, 0, 64, 113
1, 270083, Control_c, 0, 64, 114
1, 270098, Control_c, 0, 64, 114
1, 270113, Control_c, 0, 64, 115
1, 270121, Note_on_c, 0, 49, 65
1, 270124, Note_on_c, 0, 56, 85
1, 270130, Note_off_c, 0, 77, 54
1, 270142, Control_c, 0, 64, 115
1, 270151, Note_off_c, 0, 49, 64
1, 270222, Note_off_c, 0, 56, 0
1, 270242, Note_on_c, 0, 56, 55
1, 270242, Note_on_c, 0, 65, 98
1, 270277, Note_on_c, 0, 68, 80
1, 270278, Note_off_c, 0, 65, 66
1, 270301, Note_off_c, 0, 56, 64
1, 270322, Note_on_c, 0, 76, 91
1, 270323, Note_off_c, 0, 68, 65
1, 270333, Note_on_c, 0, 69, 55
1, 270349, Control_c, 0, 64, 115
1, 270352, Note_off_c, 0, 69, 63
1, 270364, Control_c, 0, 64, 110
1, 270379, Control_c, 0, 64, 95
1, 270394, Control_c, 0, 64, 76
1, 270407, Note_on_c, 0, 83, 95
1, 270409, Control_c, 0, 64, 0
1, 270422, Note_on_c, 0, 38, 89
1, 270422, Note_on_c, 0, 50, 89
1, 270453, Control_c, 0, 64, 57
1, 270468, Control_c, 0, 64, 72
1, 270483, Control_c, 0, 64, 86
1, 270484, Note_off_c, 0, 38, 62
1, 270505, Control_c, 0, 64, 104
1, 270520, Control_c, 0, 64, 127
1, 270533, Note_off_c, 0, 50, 61
1, 270570, Note_off_c, 0, 83, 60
1, 270632, Note_on_c, 0, 56, 91
1, 270639, Note_on_c, 0, 50, 74
1, 270662, Note_off_c, 0, 50, 67
1, 270689, Note_off_c, 0, 56, 65
1, 270756, Note_on_c, 0, 64, 88
1, 270770, Note_on_c, 0, 56, 63
1, 270771, Note_off_c, 0, 76, 58
1, 270774, Note_off_c, 0, 64, 72
1, 270788, Note_on_c, 0, 68, 81
1, 270795, Note_off_c, 0, 56, 55
1, 270803, Note_on_c, 0, 55, 43
1, 270832, Note_off_c, 0, 55, 55
1, 270841, Note_on_c, 0, 75, 84
1, 270855, Note_off_c, 0, 68, 64
1, 270860, Control_c, 0, 64, 107
1, 270876, Control_c, 0, 64, 77
1, 270891, Control_c, 0, 64, 0
1, 270904, Note_on_c, 0, 83, 95
1, 270916, Note_on_c, 0, 51, 98
1, 270920, Note_on_c, 0, 39, 82
1, 270934, Note_off_c, 0, 75, 65
1, 270936, Control_c, 0, 64, 65
1, 270950, Control_c, 0, 64, 74
1, 270952, Note_off_c, 0, 39, 67
1, 270964, Note_off_c, 0, 51, 62
1, 270965, Control_c, 0, 64, 86
1, 270969, Note_off_c, 0, 83, 63
1, 270980, Control_c, 0, 64, 96
1, 270994, Control_c, 0, 64, 101
1, 271007, Note_on_c, 0, 80, 34
1, 271009, Control_c, 0, 64, 104
1, 271024, Control_c, 0, 64, 105
1, 271038, Note_off_c, 0, 80, 48
1, 271039, Control_c, 0, 64, 106
1, 271054, Control_c, 0, 64, 108
1, 271067, Note_on_c, 0, 85, 89
1, 271068, Control_c, 0, 64, 109
1, 271076, Note_on_c, 0, 76, 76
1, 271083, Control_c, 0, 64, 111
1, 271093, Note_on_c, 0, 75, 54
1, 271104, Note_off_c, 0, 76, 65
1, 271107, Note_off_c, 0, 85, 65
1, 271113, Control_c, 0, 64, 111
1, 271116, Note_off_c, 0, 75, 54
1, 271151, Note_on_c, 0, 83, 95
1, 271154, Note_on_c, 0, 75, 99
1, 271155, Note_on_c, 0, 63, 86
1, 271157, Control_c, 0, 64, 112
1, 271159, Note_on_c, 0, 51, 74
1, 271163, Note_on_c, 0, 56, 69
1, 271188, Note_off_c, 0, 51, 63
1, 271202, Note_off_c, 0, 63, 64
1, 271205, Note_off_c, 0, 56, 61
1, 271217, Control_c, 0, 64, 112
1, 271254, Control_c, 0, 64, 113
1, 271276, Note_off_c, 0, 83, 57
1, 271312, Note_off_c, 0, 75, 64
1, 271318, Note_on_c, 0, 68, 84
1, 271322, Note_on_c, 0, 56, 79
1, 271327, Note_on_c, 0, 66, 76
1, 271339, Note_off_c, 0, 68, 72
1, 271339, Note_off_c, 0, 56, 66
1, 271351, Note_off_c, 0, 66, 67
1, 271357, Note_on_c, 0, 55, 40
1, 271386, Note_off_c, 0, 55, 55
1, 271393, Note_on_c, 0, 82, 92
1, 271394, Note_on_c, 0, 73, 95
1, 271399, Note_on_c, 0, 75, 86
1, 271430, Note_off_c, 0, 73, 60
1, 271437, Note_on_c, 0, 80, 29
1, 271439, Note_off_c, 0, 75, 58
1, 271445, Note_off_c, 0, 82, 63
1, 271446, Control_c, 0, 64, 109
1, 271461, Control_c, 0, 64, 97
1, 271471, Note_off_c, 0, 80, 31
1, 271476, Control_c, 0, 64, 79
1, 271491, Control_c, 0, 64, 57
1, 271500, Note_on_c, 0, 82, 89
1, 271501, Note_on_c, 0, 73, 96
1, 271505, Note_on_c, 0, 39, 82
1, 271506, Note_on_c, 0, 75, 87
1, 271506, Control_c, 0, 64, 0
1, 271510, Note_on_c, 0, 51, 82
1, 271535, Control_c, 0, 64, 61
1, 271550, Control_c, 0, 64, 71
1, 271563, Note_off_c, 0, 39, 64
1, 271565, Control_c, 0, 64, 82
1, 271572, Note_off_c, 0, 51, 62
1, 271580, Control_c, 0, 64, 95
1, 271594, Control_c, 0, 64, 107
1, 271609, Control_c, 0, 64, 115
1, 271620, Note_off_c, 0, 73, 53
1, 271624, Control_c, 0, 64, 116
1, 271646, Note_on_c, 0, 83, 92
1, 271664, Note_off_c, 0, 75, 63
1, 271677, Note_off_c, 0, 82, 62
1, 271729, Control_c, 0, 64, 117
1, 271731, Note_on_c, 0, 82, 85
1, 271737, Note_on_c, 0, 73, 98
1, 271743, Note_on_c, 0, 61, 89
1, 271744, Control_c, 0, 64, 119
1, 271745, Note_on_c, 0, 55, 78
1, 271747, Note_on_c, 0, 51, 80
1, 271759, Note_off_c, 0, 83, 60
1, 271759, Control_c, 0, 64, 123
1, 271773, Control_c, 0, 64, 127
1, 271799, Note_off_c, 0, 61, 60
1, 271800, Note_off_c, 0, 73, 56
1, 271805, Note_off_c, 0, 82, 63
1, 271983, Note_on_c, 0, 63, 88
1, 271983, Note_on_c, 0, 70, 94
1, 271983, Note_on_c, 0, 75, 91
1, 271983, Note_on_c, 0, 61, 84
1, 271983, Note_on_c, 0, 73, 90
1, 272001, Note_on_c, 0, 58, 71
1, 272013, Note_off_c, 0, 63, 68
1, 272037, Note_off_c, 0, 61, 62
1, 272046, Note_off_c, 0, 58, 61
1, 272063, Note_off_c, 0, 55, 39
1, 272066, Note_off_c, 0, 51, 64
1, 272110, Note_off_c, 0, 70, 60
1, 272174, Note_off_c, 0, 73, 62
1, 272260, Note_on_c, 0, 44, 93
1, 272262, Note_on_c, 0, 32, 92
1, 272329, Control_c, 0, 64, 120
1, 272343, Control_c, 0, 64, 96
1, 272358, Control_c, 0, 64, 75
1, 272362, Note_on_c, 0, 68, 99
1, 272362, Note_on_c, 0, 80, 94
1, 272363, Note_on_c, 0, 73, 90
1, 272373, Control_c, 0, 64, 0
1, 272394, Note_off_c, 0, 75, 62
1, 272432, Control_c, 0, 64, 62
1, 272447, Control_c, 0, 64, 74
1, 272462, Control_c, 0, 64, 86
1, 272466, Note_off_c, 0, 32, 63
1, 272478, Control_c, 0, 64, 101
1, 272487, Note_off_c, 0, 44, 63
1, 272493, Control_c, 0, 64, 113
1, 272508, Control_c, 0, 64, 117
1, 272522, Control_c, 0, 64, 119
1, 272537, Control_c, 0, 64, 121
1, 272537, Note_off_c, 0, 73, 60
1, 272552, Control_c, 0, 64, 122
1, 272652, Note_on_c, 0, 75, 82
1, 272668, Note_on_c, 0, 73, 92
1, 272678, Note_on_c, 0, 59, 73
1, 272678, Note_off_c, 0, 80, 64
1, 272679, Note_on_c, 0, 51, 72
1, 272692, Note_off_c, 0, 75, 66
1, 272746, Note_off_c, 0, 59, 62
1, 272755, Note_off_c, 0, 73, 67
1, 272760, Note_off_c, 0, 51, 62
1, 272791, Poly_aftertouch_c, 0, 56, 127
1, 272841, Poly_aftertouch_c, 0, 56, 0
1, 272851, Note_on_c, 0, 56, 59
1, 272856, Note_on_c, 0, 71, 99
1, 272856, Note_on_c, 0, 63, 85
1, 272865, Note_on_c, 0, 59, 67
1, 272877, Note_off_c, 0, 63, 70
1, 272889, Note_off_c, 0, 59, 69
1, 272904, Note_off_c, 0, 56, 65
1, 272914, Note_off_c, 0, 71, 58
1, 272983, Note_off_c, 0, 68, 56
1, 273003, Control_c, 0, 64, 114
1, 273018, Control_c, 0, 64, 98
1, 273033, Control_c, 0, 64, 77
1, 273037, Note_on_c, 0, 75, 82
1, 273038, Note_on_c, 0, 71, 80
1, 273041, Note_on_c, 0, 67, 81
1, 273046, Note_on_c, 0, 34, 79
1, 273046, Note_on_c, 0, 46, 90
1, 273047, Control_c, 0, 64, 10
1, 273062, Control_c, 0, 64, 0
1, 273080, Note_on_c, 0, 76, 49
1, 273092, Control_c, 0, 64, 65
1, 273107, Control_c, 0, 64, 75
1, 273111, Note_off_c, 0, 76, 50
1, 273116, Note_off_c, 0, 34, 64
1, 273122, Control_c, 0, 64, 87
1, 273125, Note_off_c, 0, 46, 63
1, 273137, Control_c, 0, 64, 101
1, 273151, Control_c, 0, 64, 119
1, 273166, Control_c, 0, 64, 127
1, 273180, Note_off_c, 0, 71, 59
1, 273219, Note_on_c, 0, 73, 69
1, 273235, Note_on_c, 0, 51, 78
1, 273238, Note_on_c, 0, 71, 88
1, 273238, Note_on_c, 0, 61, 80
1, 273245, Note_on_c, 0, 58, 64
1, 273267, Note_off_c, 0, 75, 64
1, 273278, Note_on_c, 0, 59, 45
1, 273293, Note_off_c, 0, 73, 64
1, 273307, Note_off_c, 0, 59, 52
1, 273317, Note_off_c, 0, 58, 48
1, 273318, Note_off_c, 0, 61, 61
1, 273338, Note_off_c, 0, 67, 56
1, 273417, Note_on_c, 0, 70, 93
1, 273418, Note_on_c, 0, 63, 80
1, 273419, Note_on_c, 0, 61, 82
1, 273428, Note_on_c, 0, 58, 70
1, 273429, Note_off_c, 0, 71, 58
1, 273439, Note_off_c, 0, 61, 70
1, 273440, Note_off_c, 0, 63, 70
1, 273453, Note_off_c, 0, 58, 67
1, 273469, Note_off_c, 0, 51, 64
1, 273473, Note_off_c, 0, 70, 64
1, 273646, Note_on_c, 0, 70, 72
1, 273648, Note_on_c, 0, 47, 91
1, 273649, Control_c, 0, 64, 86
1, 273650, Note_on_c, 0, 35, 87
1, 273651, Note_on_c, 0, 63, 78
1, 273654, Note_on_c, 0, 75, 92
1, 273663, Control_c, 0, 64, 47
1, 273678, Control_c, 0, 64, 0
1, 273715, Note_off_c, 0, 35, 64
1, 273722, Control_c, 0, 64, 59
1, 273732, Note_off_c, 0, 47, 64
1, 273737, Control_c, 0, 64, 73
1, 273752, Control_c, 0, 64, 84
1, 273767, Control_c, 0, 64, 95
1, 273768, Note_off_c, 0, 63, 63
1, 273782, Control_c, 0, 64, 101
1, 273796, Control_c, 0, 64, 103
1, 273826, Control_c, 0, 64, 103
1, 273856, Control_c, 0, 64, 104
1, 273870, Control_c, 0, 64, 105
1, 273885, Control_c, 0, 64, 107
1, 273888, Note_on_c, 0, 68, 98
1, 273897, Note_on_c, 0, 56, 89
1, 273900, Control_c, 0, 64, 109
1, 273915, Control_c, 0, 64, 112
1, 273918, Note_on_c, 0, 67, 75
1, 273918, Note_off_c, 0, 70, 61
1, 273926, Note_off_c, 0, 75, 46
1, 273930, Control_c, 0, 64, 116
1, 273933, Note_on_c, 0, 47, 29
1, 273937, Note_off_c, 0, 67, 67
1, 273944, Control_c, 0, 64, 122
1, 273954, Note_off_c, 0, 47, 61
1, 273954, Note_off_c, 0, 68, 59
1, 273959, Control_c, 0, 64, 127
1, 273978, Note_off_c, 0, 56, 58
1, 274101, Poly_aftertouch_c, 0, 75, 0
1, 274102, Note_on_c, 0, 77, 105
1, 274111, Note_on_c, 0, 63, 96
1, 274114, Note_on_c, 0, 51, 71
1, 274115, Note_on_c, 0, 56, 75
1, 274128, Poly_aftertouch_c, 0, 75, 0
1, 274132, Note_off_c, 0, 63, 70
1, 274143, Note_off_c, 0, 56, 66
1, 274166, Note_off_c, 0, 77, 63
1, 274167, Note_off_c, 0, 51, 64
1, 274360, Poly_aftertouch_c, 0, 75, 0
1, 274366, Note_on_c, 0, 48, 96
1, 274368, Note_on_c, 0, 36, 89
1, 274383, Control_c, 0, 64, 115
1, 274396, Note_on_c, 0, 75, 74
1, 274396, Note_on_c, 0, 78, 98
1, 274398, Note_on_c, 0, 68, 94
1, 274398, Control_c, 0, 64, 79
1, 274412, Control_c, 0, 64, 0
1, 274472, Control_c, 0, 64, 59
1, 274487, Control_c, 0, 64, 73
1, 274493, Note_off_c, 0, 36, 63
1, 274499, Note_off_c, 0, 68, 59
1, 274501, Control_c, 0, 64, 88
1, 274510, Note_off_c, 0, 75, 60
1, 274514, Note_on_c, 0, 80, 76
1, 274516, Control_c, 0, 64, 103
1, 274517, Note_off_c, 0, 48, 67
1, 274520, Note_off_c, 0, 78, 63
1, 274531, Control_c, 0, 64, 112
1, 274545, Control_c, 0, 64, 114
1, 274560, Control_c, 0, 64, 115
1, 274595, Note_on_c, 0, 78, 88
1, 274621, Note_off_c, 0, 80, 0
1, 274631, Note_on_c, 0, 80, 59
1, 274652, Note_off_c, 0, 78, 65
1, 274691, Note_on_c, 0, 78, 76
1, 274714, Note_on_c, 0, 79, 44
1, 274722, Note_on_c, 0, 48, 79
1, 274727, Note_on_c, 0, 77, 85
1, 274727, Note_off_c, 0, 80, 65
1, 274731, Note_on_c, 0, 56, 87
1, 274733, Note_on_c, 0, 54, 77
1, 274738, Control_c, 0, 64, 115
1, 274739, Note_off_c, 0, 79, 48
1, 274755, Note_off_c, 0, 78, 64
1, 274758, Note_on_c, 0, 76, 35
1, 274759, Note_off_c, 0, 76, 127
1, 274767, Control_c, 0, 64, 116
1, 274802, Note_off_c, 0, 48, 62
1, 274839, Note_off_c, 0, 54, 59
1, 274845, Note_off_c, 0, 56, 62
1, 274872, Control_c, 0, 64, 116
1, 274884, Note_on_c, 0, 78, 102
1, 274887, Control_c, 0, 64, 118
1, 274902, Control_c, 0, 64, 121
1, 274905, Note_off_c, 0, 77, 62
1, 274916, Control_c, 0, 64, 125
1, 274931, Control_c, 0, 64, 127
1, 275071, Note_on_c, 0, 68, 96
1, 275073, Note_on_c, 0, 75, 96
1, 275074, Note_on_c, 0, 63, 95
1, 275078, Note_on_c, 0, 56, 84
1, 275079, Note_on_c, 0, 54, 81
1, 275104, Note_off_c, 0, 78, 60
1, 275116, Note_off_c, 0, 63, 66
1, 275153, Note_off_c, 0, 56, 64
1, 275164, Note_off_c, 0, 54, 61
1, 275276, Note_on_c, 0, 80, 99
1, 275305, Note_off_c, 0, 68, 65
1, 275315, Note_off_c, 0, 75, 63
1, 275322, Note_off_c, 0, 80, 70
1, 275331, Note_on_c, 0, 78, 6
1, 275377, Note_off_c, 0, 78, 28
1, 275612, Note_on_c, 0, 37, 94
1, 275614, Note_on_c, 0, 25, 93
1, 275615, Note_on_c, 0, 68, 93
1, 275616, Note_on_c, 0, 66, 92
1, 275618, Note_on_c, 0, 61, 95
1, 275620, Control_c, 0, 64, 127
1, 275635, Control_c, 0, 64, 101
1, 275649, Control_c, 0, 64, 78
1, 275665, Control_c, 0, 64, 41
1, 275680, Control_c, 0, 64, 0
1, 275821, Control_c, 0, 64, 65
1, 275836, Control_c, 0, 64, 77
1, 275851, Control_c, 0, 64, 95
1, 275865, Control_c, 0, 64, 112
1, 275879, Note_off_c, 0, 25, 63
1, 275880, Control_c, 0, 64, 127
1, 275885, Note_off_c, 0, 61, 61
1, 275898, Note_off_c, 0, 37, 63
1, 275920, Note_off_c, 0, 66, 61
1, 275927, Note_off_c, 0, 68, 60
1, 276141, Note_on_c, 0, 71, 86
1, 276141, Note_on_c, 0, 66, 87
1, 276146, Note_on_c, 0, 49, 76
1, 276148, Note_on_c, 0, 59, 71
1, 276148, Note_on_c, 0, 68, 79
1, 276152, Note_on_c, 0, 56, 71
1, 276294, Note_off_c, 0, 49, 59
1, 276300, Note_off_c, 0, 68, 62
1, 276305, Note_off_c, 0, 59, 57
1, 276309, Note_off_c, 0, 66, 62
1, 276322, Note_off_c, 0, 56, 61
1, 276441, Note_off_c, 0, 71, 0
1, 276446, Note_on_c, 0, 73, 95
1, 276454, Note_on_c, 0, 61, 84
1, 276454, Note_on_c, 0, 66, 91
1, 276455, Note_on_c, 0, 56, 72
1, 276457, Note_on_c, 0, 68, 76
1, 276463, Note_on_c, 0, 49, 71
1, 276519, Poly_aftertouch_c, 0, 71, 0
1, 276540, Note_off_c, 0, 66, 58
1, 276547, Note_off_c, 0, 68, 61
1, 276548, Note_off_c, 0, 56, 58
1, 276571, Note_off_c, 0, 61, 60
1, 276577, Note_off_c, 0, 73, 58
1, 276685, Note_on_c, 0, 56, 68
1, 276685, Note_on_c, 0, 75, 86
1, 276686, Note_on_c, 0, 63, 92
1, 276687, Note_on_c, 0, 66, 88
1, 276694, Note_on_c, 0, 68, 71
1, 276696, Note_on_c, 0, 59, 65
1, 276696, Note_on_c, 0, 71, 52
1, 276697, Note_off_c, 0, 49, 22
1, 276722, Note_off_c, 0, 59, 64
1, 276726, Note_off_c, 0, 56, 63
1, 276726, Note_off_c, 0, 68, 65
1, 276732, Note_off_c, 0, 66, 56
1, 276732, Note_off_c, 0, 71, 63
1, 276736, Note_off_c, 0, 63, 61
1, 276738, Note_on_c, 0, 73, 17
1, 276758, Note_off_c, 0, 75, 63
1, 276781, Note_off_c, 0, 73, 36
1, 276855, Note_on_c, 0, 70, 24
1, 276892, Note_off_c, 0, 70, 49
1, 276905, Note_on_c, 0, 77, 88
1, 276909, Note_on_c, 0, 68, 85
1, 276913, Note_on_c, 0, 65, 83
1, 276913, Note_on_c, 0, 63, 75
1, 276920, Note_on_c, 0, 59, 68
1, 276922, Note_on_c, 0, 75, 73
1, 276926, Note_on_c, 0, 71, 60
1, 276927, Note_on_c, 0, 56, 58
1, 276961, Note_off_c, 0, 65, 65
1, 276965, Note_off_c, 0, 68, 62
1, 276973, Note_off_c, 0, 71, 56
1, 276978, Note_off_c, 0, 77, 63
1, 276987, Note_off_c, 0, 63, 61
1, 276998, Note_off_c, 0, 75, 62
1, 277000, Note_off_c, 0, 59, 54
1, 277003, Note_off_c, 0, 56, 56
1, 277123, Note_on_c, 0, 66, 87
1, 277124, Note_on_c, 0, 78, 93
1, 277125, Note_on_c, 0, 68, 91
1, 277126, Note_on_c, 0, 63, 81
1, 277131, Note_on_c, 0, 59, 62
1, 277142, Note_on_c, 0, 75, 70
1, 277143, Note_on_c, 0, 71, 57
1, 277147, Note_on_c, 0, 56, 38
1, 277158, Note_off_c, 0, 59, 66
1, 277164, Note_off_c, 0, 71, 65
1, 277165, Note_off_c, 0, 68, 65
1, 277168, Note_off_c, 0, 75, 62
1, 277175, Note_off_c, 0, 56, 50
1, 277178, Note_off_c, 0, 66, 62
1, 277185, Note_off_c, 0, 63, 64
1, 277202, Note_off_c, 0, 78, 63
1, 277365, Note_on_c, 0, 80, 97
1, 277369, Note_on_c, 0, 68, 92
1, 277373, Note_on_c, 0, 71, 86
1, 277377, Note_on_c, 0, 75, 77
1, 277379, Note_on_c, 0, 66, 84
1, 277383, Note_on_c, 0, 63, 72
1, 277385, Note_on_c, 0, 59, 72
1, 277391, Note_on_c, 0, 78, 66
1, 277421, Note_off_c, 0, 71, 59
1, 277442, Note_off_c, 0, 68, 58
1, 277457, Note_off_c, 0, 78, 53
1, 277459, Note_off_c, 0, 66, 63
1, 277462, Note_off_c, 0, 75, 63
1, 277463, Note_off_c, 0, 63, 64
1, 277468, Note_off_c, 0, 59, 55
1, 277482, Note_off_c, 0, 80, 63
1, 277622, Note_on_c, 0, 82, 96
1, 277631, Note_on_c, 0, 70, 96
1, 277632, Note_on_c, 0, 71, 86
1, 277636, Note_on_c, 0, 75, 73
1, 277640, Note_on_c, 0, 78, 76
1, 277643, Note_on_c, 0, 63, 74
1, 277644, Note_on_c, 0, 59, 67
1, 277664, Note_off_c, 0, 71, 51
1, 277668, Note_on_c, 0, 66, 41
1, 277671, Note_on_c, 0, 65, 57
1, 277675, Note_off_c, 0, 59, 63
1, 277691, Note_off_c, 0, 66, 62
1, 277700, Note_off_c, 0, 63, 63
1, 277700, Note_off_c, 0, 75, 63
1, 277702, Note_off_c, 0, 65, 67
1, 277709, Note_off_c, 0, 70, 53
1, 277714, Note_off_c, 0, 78, 62
1, 277715, Note_off_c, 0, 82, 62
1, 277841, Poly_aftertouch_c, 0, 66, 127
1, 277879, Poly_aftertouch_c, 0, 66, 0
1, 277907, Note_on_c, 0, 83, 95
1, 277912, Note_on_c, 0, 71, 93
1, 277912, Note_on_c, 0, 75, 97
1, 277913, Note_on_c, 0, 63, 79
1, 277914, Note_on_c, 0, 66, 62
1, 277919, Note_on_c, 0, 68, 86
1, 277925, Note_on_c, 0, 78, 78
1, 277925, Note_on_c, 0, 80, 70
1, 277933, Note_on_c, 0, 82, 49
1, 277958, Note_off_c, 0, 82, 37
1, 277969, Note_off_c, 0, 71, 59
1, 277972, Note_off_c, 0, 75, 63
1, 277987, Note_off_c, 0, 63, 65
1, 277991, Note_off_c, 0, 66, 65
1, 277997, Note_off_c, 0, 68, 62
1, 278009, Note_off_c, 0, 78, 62
1, 278010, Note_off_c, 0, 83, 59
1, 278012, Note_off_c, 0, 80, 63
1, 278228, Note_on_c, 0, 85, 99
1, 278235, Note_on_c, 0, 73, 90
1, 278236, Note_on_c, 0, 66, 77
1, 278236, Note_on_c, 0, 78, 101
1, 278237, Note_on_c, 0, 80, 88
1, 278240, Note_on_c, 0, 71, 82
1, 278245, Note_on_c, 0, 68, 78
1, 278257, Note_on_c, 0, 83, 56
1, 278317, Note_off_c, 0, 78, 60
1, 278333, Note_off_c, 0, 66, 61
1, 278363, Note_off_c, 0, 80, 62
1, 278369, Note_off_c, 0, 68, 58
1, 278371, Note_off_c, 0, 71, 47
1, 278371, Note_off_c, 0, 73, 54
1, 278375, Note_off_c, 0, 85, 61
1, 278386, Note_off_c, 0, 83, 21
1, 278656, Note_on_c, 0, 87, 102
1, 278663, Note_on_c, 0, 78, 100
1, 278663, Note_on_c, 0, 80, 94
1, 278666, Note_on_c, 0, 68, 82
1, 278667, Note_on_c, 0, 75, 98
1, 278668, Note_on_c, 0, 83, 84
1, 278669, Note_on_c, 0, 66, 82
1, 278676, Note_on_c, 0, 71, 77
1, 278714, Note_off_c, 0, 78, 66
1, 278723, Note_off_c, 0, 71, 62
1, 278726, Note_off_c, 0, 75, 69
1, 278727, Note_off_c, 0, 66, 65
1, 278740, Note_off_c, 0, 83, 63
1, 278744, Note_off_c, 0, 80, 66
1, 278746, Note_off_c, 0, 87, 65
1, 278750, Note_off_c, 0, 68, 64
1, 279468, Control_c, 0, 64, 119
1, 279490, Control_c, 0, 64, 103
1, 279506, Control_c, 0, 64, 88
1, 279521, Control_c, 0, 64, 71
1, 279535, Control_c, 0, 64, 0
1, 279574, Note_on_c, 0, 89, 100
1, 279577, Note_on_c, 0, 49, 97
1, 279577, Note_on_c, 0, 77, 103
1, 279578, Note_on_c, 0, 83, 86
1, 279578, Note_on_c, 0, 85, 89
1, 279581, Note_on_c, 0, 37, 89
1, 279595, Control_c, 0, 64, 61
1, 279609, Control_c, 0, 64, 71
1, 279624, Control_c, 0, 64, 80
1, 279639, Control_c, 0, 64, 90
1, 279654, Control_c, 0, 64, 98
1, 279670, Control_c, 0, 64, 103
1, 279685, Control_c, 0, 64, 103
1, 279714, Note_off_c, 0, 77, 61
1, 279714, Note_off_c, 0, 89, 65
1, 279727, Note_off_c, 0, 49, 60
1, 279733, Note_off_c, 0, 83, 58
1, 279760, Note_off_c, 0, 37, 64
1, 279921, Control_c, 0, 64, 102
1, 279936, Control_c, 0, 64, 95
1, 279951, Control_c, 0, 64, 81
1, 279966, Control_c, 0, 64, 54
1, 279967, Note_on_c, 0, 90, 98
1, 279971, Note_on_c, 0, 82, 93
1, 279972, Note_on_c, 0, 78, 102
1, 279975, Note_on_c, 0, 42, 89
1, 279978, Note_on_c, 0, 30, 85
1, 279981, Control_c, 0, 64, 0
1, 280002, Note_off_c, 0, 85, 65
1, 280011, Control_c, 0, 64, 56
1, 280020, Note_off_c, 0, 30, 64
1, 280025, Control_c, 0, 64, 71
1, 280034, Note_off_c, 0, 42, 63
1, 280036, Note_off_c, 0, 78, 65
1, 280040, Control_c, 0, 64, 82
1, 280052, Note_off_c, 0, 90, 64
1, 280055, Control_c, 0, 64, 95
1, 280070, Note_off_c, 0, 82, 62
1, 280070, Control_c, 0, 64, 101
1, 280085, Control_c, 0, 64, 103
1, 280263, Note_on_c, 0, 49, 79
1, 280264, Note_on_c, 0, 61, 80
1, 280321, Note_off_c, 0, 61, 60
1, 280326, Note_off_c, 0, 49, 59
1, 280350, Poly_aftertouch_c, 0, 78, 127
1, 280404, Poly_aftertouch_c, 0, 78, 0
1, 280407, Note_on_c, 0, 84, 86
1, 280409, Note_on_c, 0, 49, 56
1, 280411, Note_on_c, 0, 72, 84
1, 280411, Note_on_c, 0, 81, 81
1, 280418, Note_on_c, 0, 61, 82
1, 280453, Note_off_c, 0, 49, 52
1, 280459, Note_on_c, 0, 51, 15
1, 280459, Note_off_c, 0, 61, 43
1, 280467, Note_off_c, 0, 72, 62
1, 280490, Note_off_c, 0, 84, 58
1, 280500, Note_off_c, 0, 51, 38
1, 280511, Note_off_c, 0, 81, 55
1, 280535, Control_c, 0, 64, 102
1, 280550, Control_c, 0, 64, 100
1, 280565, Control_c, 0, 64, 95
1, 280580, Control_c, 0, 64, 86
1, 280595, Control_c, 0, 64, 72
1, 280600, Note_on_c, 0, 83, 82
1, 280603, Note_on_c, 0, 65, 73
1, 280607, Note_on_c, 0, 80, 75
1, 280610, Control_c, 0, 64, 32
1, 280611, Note_on_c, 0, 71, 74
1, 280614, Note_on_c, 0, 61, 52
1, 280625, Control_c, 0, 64, 0
1, 280626, Note_on_c, 0, 56, 51
1, 280633, Note_on_c, 0, 53, 24
1, 280642, Note_off_c, 0, 65, 62
1, 280654, Control_c, 0, 64, 36
1, 280658, Note_off_c, 0, 53, 52
1, 280666, Note_off_c, 0, 56, 64
1, 280669, Control_c, 0, 64, 66
1, 280670, Note_off_c, 0, 61, 61
1, 280684, Control_c, 0, 64, 74
1, 280699, Control_c, 0, 64, 83
1, 280713, Control_c, 0, 64, 93
1, 280728, Control_c, 0, 64, 104
1, 280729, Note_off_c, 0, 83, 61
1, 280736, Note_off_c, 0, 71, 60
1, 280743, Control_c, 0, 64, 112
1, 280758, Note_on_c, 0, 49, 80
1, 280758, Control_c, 0, 64, 119
1, 280766, Note_off_c, 0, 80, 65
1, 280773, Note_on_c, 0, 61, 75
1, 280773, Control_c, 0, 64, 124
1, 280787, Control_c, 0, 64, 126
1, 280794, Note_off_c, 0, 49, 60
1, 280803, Note_off_c, 0, 61, 61
1, 280902, Note_on_c, 0, 80, 89
1, 280913, Note_on_c, 0, 68, 87
1, 280914, Note_on_c, 0, 77, 79
1, 280929, Note_on_c, 0, 65, 49
1, 280930, Note_on_c, 0, 62, 52
1, 280939, Note_on_c, 0, 60, 27
1, 280947, Note_on_c, 0, 59, 36
1, 280952, Note_off_c, 0, 68, 57
1, 280955, Note_off_c, 0, 65, 59
1, 280957, Note_off_c, 0, 62, 54
1, 280981, Note_off_c, 0, 60, 42
1, 280985, Note_off_c, 0, 59, 48
1, 280998, Note_off_c, 0, 80, 63
1, 281017, Control_c, 0, 64, 124
1, 281032, Control_c, 0, 64, 115
1, 281047, Control_c, 0, 64, 99
1, 281061, Control_c, 0, 64, 79
1, 281076, Control_c, 0, 64, 32
1, 281079, Note_on_c, 0, 82, 93
1, 281081, Note_on_c, 0, 78, 85
1, 281083, Note_on_c, 0, 54, 79
1, 281083, Note_on_c, 0, 70, 86
1, 281085, Note_on_c, 0, 42, 70
1, 281091, Control_c, 0, 64, 0
1, 281116, Note_off_c, 0, 77, 57
1, 281126, Note_off_c, 0, 42, 64
1, 281135, Control_c, 0, 64, 67
1, 281137, Note_off_c, 0, 54, 60
1, 281138, Note_off_c, 0, 70, 65
1, 281150, Control_c, 0, 64, 79
1, 281165, Control_c, 0, 64, 97
1, 281179, Control_c, 0, 64, 127
1, 281187, Note_off_c, 0, 82, 63
1, 281191, Note_off_c, 0, 78, 63
1, 281233, Note_on_c, 0, 61, 85
1, 281241, Note_on_c, 0, 54, 73
1, 281243, Note_on_c, 0, 58, 71
1, 281268, Note_off_c, 0, 61, 53
1, 281287, Note_off_c, 0, 58, 53
1, 281329, Note_off_c, 0, 54, 54
1, 281391, Note_on_c, 0, 85, 100
1, 281397, Note_on_c, 0, 82, 76
1, 281398, Note_on_c, 0, 73, 95
1, 281400, Note_on_c, 0, 58, 74
1, 281401, Note_on_c, 0, 49, 70
1, 281415, Note_on_c, 0, 54, 45
1, 281437, Note_off_c, 0, 49, 62
1, 281440, Note_off_c, 0, 54, 56
1, 281442, Note_off_c, 0, 73, 63
1, 281492, Note_off_c, 0, 58, 62
1, 281509, Note_off_c, 0, 82, 63
1, 281612, Note_on_c, 0, 66, 78
1, 281622, Note_on_c, 0, 78, 98
1, 281622, Note_on_c, 0, 82, 84
1, 281623, Note_on_c, 0, 58, 61
1, 281629, Note_on_c, 0, 89, 88
1, 281644, Note_on_c, 0, 54, 53
1, 281647, Note_off_c, 0, 85, 58
1, 281648, Note_on_c, 0, 90, 27
1, 281649, Note_off_c, 0, 90, 127
1, 281661, Note_on_c, 0, 88, 47
1, 281681, Note_off_c, 0, 66, 64
1, 281686, Note_off_c, 0, 88, 52
1, 281697, Note_off_c, 0, 54, 59
1, 281704, Note_off_c, 0, 58, 64
1, 281724, Note_off_c, 0, 89, 59
1, 281765, Note_off_c, 0, 78, 58
1, 281802, Note_on_c, 0, 61, 70
1, 281806, Note_on_c, 0, 58, 71
1, 281809, Note_on_c, 0, 54, 62
1, 281837, Note_off_c, 0, 61, 56
1, 281865, Note_off_c, 0, 54, 55
1, 281868, Note_off_c, 0, 58, 60
1, 281926, Note_on_c, 0, 89, 92
1, 281927, Note_on_c, 0, 77, 92
1, 281934, Note_on_c, 0, 85, 76
1, 281938, Note_on_c, 0, 49, 70
1, 281943, Note_on_c, 0, 58, 51
1, 281953, Note_off_c, 0, 82, 62
1, 281963, Note_off_c, 0, 49, 55
1, 281969, Note_off_c, 0, 58, 54
1, 281972, Note_off_c, 0, 77, 61
1, 281980, Note_off_c, 0, 89, 63
1, 282003, Note_off_c, 0, 85, 64
1, 282003, Control_c, 0, 64, 121
1, 282018, Control_c, 0, 64, 106
1, 282033, Control_c, 0, 64, 86
1, 282049, Control_c, 0, 64, 65
1, 282064, Control_c, 0, 64, 0
1, 282077, Note_on_c, 0, 87, 87
1, 282082, Note_on_c, 0, 37, 60
1, 282085, Note_on_c, 0, 75, 85
1, 282091, Note_on_c, 0, 83, 69
1, 282094, Control_c, 0, 64, 57
1, 282095, Note_on_c, 0, 39, 54
1, 282099, Note_on_c, 0, 49, 28
1, 282106, Note_off_c, 0, 37, 67
1, 282108, Control_c, 0, 64, 71
1, 282123, Control_c, 0, 64, 81
1, 282124, Note_off_c, 0, 39, 56
1, 282138, Control_c, 0, 64, 94
1, 282140, Note_off_c, 0, 49, 29
1, 282144, Note_off_c, 0, 75, 62
1, 282152, Note_off_c, 0, 87, 60
1, 282152, Control_c, 0, 64, 106
1, 282167, Control_c, 0, 64, 115
1, 282182, Control_c, 0, 64, 121
1, 282197, Control_c, 0, 64, 127
1, 282226, Note_on_c, 0, 49, 70
1, 282226, Note_on_c, 0, 59, 73
1, 282228, Note_on_c, 0, 85, 87
1, 282234, Note_on_c, 0, 73, 83
1, 282239, Note_on_c, 0, 82, 72
1, 282243, Note_on_c, 0, 75, 60
1, 282252, Note_off_c, 0, 59, 66
1, 282253, Note_on_c, 0, 56, 52
1, 282261, Note_off_c, 0, 75, 63
1, 282275, Note_off_c, 0, 49, 51
1, 282276, Note_off_c, 0, 73, 59
1, 282277, Note_off_c, 0, 85, 64
1, 282278, Note_off_c, 0, 82, 53
1, 282291, Note_off_c, 0, 83, 22
1, 282293, Note_off_c, 0, 56, 51
1, 282363, Note_on_c, 0, 70, 97
1, 282365, Note_on_c, 0, 82, 91
1, 282373, Note_on_c, 0, 61, 66
1, 282377, Note_on_c, 0, 80, 74
1, 282377, Note_on_c, 0, 59, 51
1, 282385, Note_on_c, 0, 56, 63
1, 282390, Note_off_c, 0, 70, 60
1, 282402, Note_off_c, 0, 80, 66
1, 282403, Note_off_c, 0, 61, 65
1, 282409, Note_off_c, 0, 82, 63
1, 282412, Note_off_c, 0, 59, 57
1, 282538, Note_off_c, 0, 56, 33
1, 282549, Note_on_c, 0, 87, 85
1, 282554, Note_on_c, 0, 75, 80
1, 282556, Note_on_c, 0, 68, 86
1, 282558, Note_on_c, 0, 83, 67
1, 282559, Note_on_c, 0, 59, 63
1, 282614, Note_off_c, 0, 75, 62
1, 282615, Note_off_c, 0, 87, 63
1, 282619, Note_off_c, 0, 68, 62
1, 282631, Note_off_c, 0, 83, 60
1, 282641, Note_off_c, 0, 59, 61
1, 282713, Note_on_c, 0, 61, 78
1, 282717, Note_on_c, 0, 59, 66
1, 282747, Note_on_c, 0, 56, 40
1, 282776, Note_off_c, 0, 56, 50
1, 282782, Control_c, 0, 64, 127
1, 282797, Control_c, 0, 64, 123
1, 282812, Control_c, 0, 64, 121
1, 282813, Note_off_c, 0, 59, 50
1, 282822, Note_off_c, 0, 61, 58
1, 282826, Control_c, 0, 64, 119
1, 282841, Control_c, 0, 64, 117
1, 282851, Note_on_c, 0, 80, 91
1, 282856, Note_on_c, 0, 68, 82
1, 282856, Note_on_c, 0, 77, 78
1, 282857, Control_c, 0, 64, 116
1, 282857, Note_on_c, 0, 56, 76
1, 282866, Note_on_c, 0, 59, 42
1, 282872, Control_c, 0, 64, 115
1, 282886, Note_off_c, 0, 59, 60
1, 282890, Note_off_c, 0, 68, 56
1, 282899, Note_off_c, 0, 56, 66
1, 282936, Note_off_c, 0, 80, 60
1, 282946, Control_c, 0, 64, 114
1, 282961, Control_c, 0, 64, 107
1, 282975, Control_c, 0, 64, 93
1, 282990, Control_c, 0, 64, 75
1, 283005, Control_c, 0, 64, 0
1, 283033, Note_on_c, 0, 82, 87
1, 283034, Note_on_c, 0, 70, 86
1, 283034, Note_on_c, 0, 78, 82
1, 283036, Note_on_c, 0, 42, 66
1, 283043, Note_on_c, 0, 54, 70
1, 283053, Note_off_c, 0, 77, 50
1, 283079, Control_c, 0, 64, 64
1, 283094, Control_c, 0, 64, 74
1, 283107, Note_off_c, 0, 42, 63
1, 283108, Control_c, 0, 64, 91
1, 283117, Note_off_c, 0, 54, 62
1, 283121, Note_off_c, 0, 70, 65
1, 283123, Control_c, 0, 64, 112
1, 283138, Control_c, 0, 64, 127
1, 283212, Note_on_c, 0, 49, 78
1, 283214, Note_on_c, 0, 58, 73
1, 283219, Note_off_c, 0, 82, 38
1, 283230, Note_on_c, 0, 55, 65
1, 283242, Note_off_c, 0, 78, 54
1, 283247, Note_on_c, 0, 59, 50
1, 283257, Note_off_c, 0, 58, 57
1, 283259, Note_off_c, 0, 55, 63
1, 283269, Note_off_c, 0, 59, 59
1, 283294, Note_on_c, 0, 82, 26
1, 283364, Note_on_c, 0, 61, 86
1, 283370, Note_on_c, 0, 58, 73
1, 283378, Note_on_c, 0, 54, 69
1, 283385, Note_off_c, 0, 61, 68
1, 283391, Note_off_c, 0, 58, 70
1, 283411, Note_off_c, 0, 54, 63
1, 283417, Note_off_c, 0, 49, 62
1, 283538, Note_off_c, 0, 82, 37
1, 283558, Note_on_c, 0, 51, 86
1, 283558, Note_on_c, 0, 39, 82
1, 283561, Control_c, 0, 64, 122
1, 283575, Control_c, 0, 64, 116
1, 283590, Control_c, 0, 64, 109
1, 283605, Control_c, 0, 64, 97
1, 283620, Control_c, 0, 64, 85
1, 283635, Control_c, 0, 64, 70
1, 283636, Note_on_c, 0, 85, 91
1, 283641, Note_on_c, 0, 73, 90
1, 283642, Note_on_c, 0, 79, 84
1, 283650, Control_c, 0, 64, 0
1, 283724, Control_c, 0, 64, 64
1, 283733, Note_off_c, 0, 39, 63
1, 283739, Control_c, 0, 64, 74
1, 283741, Note_off_c, 0, 51, 63
1, 283754, Control_c, 0, 64, 87
1, 283769, Control_c, 0, 64, 101
1, 283784, Control_c, 0, 64, 113
1, 283798, Control_c, 0, 64, 115
1, 283856, Note_on_c, 0, 51, 74
1, 283860, Note_on_c, 0, 61, 79
1, 283865, Note_on_c, 0, 58, 68
1, 283895, Note_off_c, 0, 51, 56
1, 283897, Note_off_c, 0, 58, 65
1, 283902, Control_c, 0, 64, 115
1, 283916, Note_off_c, 0, 61, 62
1, 283917, Control_c, 0, 64, 114
1, 283925, Note_off_c, 0, 79, 60
1, 283931, Control_c, 0, 64, 113
1, 283946, Control_c, 0, 64, 112
1, 283961, Control_c, 0, 64, 111
1, 283984, Control_c, 0, 64, 111
1, 284005, Note_on_c, 0, 67, 80
1, 284010, Note_on_c, 0, 63, 73
1, 284014, Note_on_c, 0, 58, 54
1, 284027, Note_off_c, 0, 67, 69
1, 284028, Control_c, 0, 64, 110
1, 284038, Note_off_c, 0, 63, 68
1, 284044, Note_off_c, 0, 58, 66
1, 284102, Control_c, 0, 64, 109
1, 284107, Poly_aftertouch_c, 0, 61, 0
1, 284117, Control_c, 0, 64, 104
1, 284131, Control_c, 0, 64, 93
1, 284146, Control_c, 0, 64, 77
1, 284161, Control_c, 0, 64, 52
1, 284169, Note_on_c, 0, 78, 89
1, 284173, Note_on_c, 0, 80, 86
1, 284175, Note_on_c, 0, 44, 70
1, 284176, Control_c, 0, 64, 0
1, 284178, Note_on_c, 0, 56, 62
1, 284205, Control_c, 0, 64, 66
1, 284218, Note_off_c, 0, 73, 58
1, 284220, Control_c, 0, 64, 76
1, 284235, Control_c, 0, 64, 91
1, 284248, Note_off_c, 0, 44, 63
1, 284250, Control_c, 0, 64, 116
1, 284256, Note_off_c, 0, 56, 63
1, 284265, Control_c, 0, 64, 127
1, 284276, Note_off_c, 0, 85, 62
1, 284348, Note_on_c, 0, 84, 84
1, 284348, Note_on_c, 0, 72, 86
1, 284356, Note_on_c, 0, 51, 61
1, 284360, Note_on_c, 0, 63, 62
1, 284379, Note_on_c, 0, 61, 32
1, 284385, Note_off_c, 0, 51, 63
1, 284391, Note_off_c, 0, 63, 66
1, 284395, Note_off_c, 0, 72, 60
1, 284395, Note_off_c, 0, 78, 56
1, 284398, Note_on_c, 0, 56, 17
1, 284410, Note_off_c, 0, 61, 50
1, 284417, Note_off_c, 0, 84, 63
1, 284439, Note_off_c, 0, 56, 41
1, 284449, Note_off_c, 0, 80, 60
1, 284484, Note_on_c, 0, 68, 82
1, 284503, Note_off_c, 0, 68, 72
1, 284506, Note_on_c, 0, 56, 57
1, 284527, Note_off_c, 0, 56, 61
1, 284549, Note_on_c, 0, 71, 81
1, 284550, Note_on_c, 0, 83, 81
1, 284561, Note_on_c, 0, 80, 63
1, 284568, Note_off_c, 0, 71, 70
1, 284571, Note_off_c, 0, 83, 65
1, 284577, Control_c, 0, 64, 108
1, 284578, Note_off_c, 0, 80, 65
1, 284592, Control_c, 0, 64, 87
1, 284607, Control_c, 0, 64, 69
1, 284621, Control_c, 0, 64, 0
1, 284627, Note_on_c, 0, 83, 88
1, 284628, Note_on_c, 0, 71, 85
1, 284634, Note_on_c, 0, 80, 88
1, 284636, Control_c, 0, 64, 44
1, 284639, Note_on_c, 0, 37, 74
1, 284648, Note_on_c, 0, 49, 69
1, 284651, Control_c, 0, 64, 70
1, 284661, Note_off_c, 0, 71, 62
1, 284666, Control_c, 0, 64, 82
1, 284670, Note_off_c, 0, 37, 66
1, 284678, Note_off_c, 0, 49, 64
1, 284681, Control_c, 0, 64, 100
1, 284684, Note_off_c, 0, 83, 57
1, 284695, Control_c, 0, 64, 127
1, 284801, Note_on_c, 0, 59, 68
1, 284801, Note_on_c, 0, 82, 88
1, 284804, Note_on_c, 0, 70, 93
1, 284810, Note_on_c, 0, 49, 48
1, 284821, Note_on_c, 0, 56, 42
1, 284821, Note_on_c, 0, 78, 63
1, 284828, Note_off_c, 0, 59, 66
1, 284836, Note_off_c, 0, 80, 58
1, 284843, Note_off_c, 0, 49, 60
1, 284846, Note_off_c, 0, 78, 55
1, 284852, Note_off_c, 0, 56, 54
1, 284869, Note_off_c, 0, 70, 59
1, 284890, Note_off_c, 0, 82, 62
1, 284943, Note_on_c, 0, 81, 94
1, 284944, Note_on_c, 0, 69, 84
1, 284945, Note_on_c, 0, 56, 70
1, 284950, Note_on_c, 0, 77, 74
1, 284972, Note_off_c, 0, 69, 62
1, 284974, Note_on_c, 0, 65, 16
1, 284974, Note_off_c, 0, 56, 67
1, 284999, Note_off_c, 0, 81, 62
1, 285004, Note_off_c, 0, 77, 59
1, 285013, Note_off_c, 0, 65, 43
1, 285073, Control_c, 0, 64, 124
1, 285087, Control_c, 0, 64, 103
1, 285102, Control_c, 0, 64, 85
1, 285117, Control_c, 0, 64, 66
1, 285119, Note_on_c, 0, 54, 70
1, 285122, Note_on_c, 0, 42, 68
1, 285122, Note_on_c, 0, 82, 89
1, 285123, Note_on_c, 0, 70, 86
1, 285132, Control_c, 0, 64, 0
1, 285134, Note_on_c, 0, 78, 71
1, 285162, Control_c, 0, 64, 42
1, 285168, Note_off_c, 0, 70, 58
1, 285176, Control_c, 0, 64, 66
1, 285188, Note_off_c, 0, 42, 64
1, 285190, Note_off_c, 0, 54, 61
1, 285191, Control_c, 0, 64, 72
1, 285199, Note_off_c, 0, 78, 62
1, 285203, Note_off_c, 0, 82, 63
1, 285206, Control_c, 0, 64, 80
1, 285221, Control_c, 0, 64, 92
1, 285236, Control_c, 0, 64, 108
1, 285251, Control_c, 0, 64, 127
1, 285279, Note_on_c, 0, 85, 90
1, 285281, Note_on_c, 0, 73, 93
1, 285295, Note_on_c, 0, 66, 80
1, 285296, Note_on_c, 0, 80, 65
1, 285297, Note_on_c, 0, 58, 69
1, 285297, Note_on_c, 0, 61, 72
1, 285301, Note_on_c, 0, 82, 62
1, 285308, Note_off_c, 0, 73, 59
1, 285313, Note_off_c, 0, 80, 65
1, 285326, Note_off_c, 0, 66, 56
1, 285328, Note_off_c, 0, 61, 62
1, 285333, Note_off_c, 0, 82, 61
1, 285335, Note_off_c, 0, 58, 59
1, 285351, Note_off_c, 0, 85, 64
1, 285420, Note_on_c, 0, 78, 93
1, 285421, Note_on_c, 0, 90, 95
1, 285428, Note_on_c, 0, 83, 66
1, 285432, Note_on_c, 0, 61, 75
1, 285435, Note_on_c, 0, 58, 75
1, 285444, Note_on_c, 0, 82, 54
1, 285445, Note_on_c, 0, 54, 63
1, 285474, Note_off_c, 0, 82, 53
1, 285492, Note_off_c, 0, 78, 58
1, 285492, Note_off_c, 0, 83, 59
1, 285495, Note_off_c, 0, 54, 60
1, 285502, Note_off_c, 0, 58, 61
1, 285516, Note_off_c, 0, 61, 60
1, 285524, Note_off_c, 0, 90, 61
1, 285639, Note_on_c, 0, 90, 98
1, 285643, Note_on_c, 0, 78, 99
1, 285644, Note_on_c, 0, 70, 75
1, 285648, Note_on_c, 0, 82, 86
1, 285649, Note_on_c, 0, 61, 61
1, 285659, Note_on_c, 0, 66, 64
1, 285734, Note_off_c, 0, 66, 64
1, 285737, Note_off_c, 0, 61, 59
1, 285742, Note_off_c, 0, 70, 61
1, 285782, Note_off_c, 0, 78, 63
1, 285802, Note_on_c, 0, 66, 72
1, 285811, Note_on_c, 0, 58, 71
1, 285821, Note_on_c, 0, 61, 51
1, 285829, Note_off_c, 0, 66, 68
1, 285836, Note_off_c, 0, 90, 56
1, 285837, Note_off_c, 0, 58, 67
1, 285842, Note_off_c, 0, 61, 61
1, 285939, Note_on_c, 0, 61, 74
1, 285944, Note_on_c, 0, 89, 91
1, 285949, Note_on_c, 0, 77, 87
1, 285951, Note_on_c, 0, 49, 69
1, 285952, Note_on_c, 0, 85, 73
1, 285954, Note_on_c, 0, 58, 53
1, 285964, Note_off_c, 0, 82, 61
1, 285966, Note_off_c, 0, 61, 65
1, 285971, Note_off_c, 0, 58, 66
1, 285975, Note_off_c, 0, 49, 66
1, 285981, Note_off_c, 0, 85, 64
1, 285998, Note_off_c, 0, 77, 59
1, 286006, Note_off_c, 0, 89, 59
1, 286045, Control_c, 0, 64, 112
1, 286060, Control_c, 0, 64, 94
1, 286074, Control_c, 0, 64, 75
1, 286089, Control_c, 0, 64, 0
1, 286098, Note_on_c, 0, 49, 72
1, 286103, Note_on_c, 0, 89, 91
1, 286104, Note_on_c, 0, 37, 65
1, 286107, Note_on_c, 0, 77, 85
1, 286118, Control_c, 0, 64, 50
1, 286126, Note_on_c, 0, 84, 69
1, 286133, Control_c, 0, 64, 72
1, 286142, Note_off_c, 0, 49, 58
1, 286145, Note_off_c, 0, 37, 67
1, 286148, Control_c, 0, 64, 83
1, 286163, Control_c, 0, 64, 99
1, 286171, Note_off_c, 0, 77, 61
1, 286178, Note_off_c, 0, 84, 61
1, 286178, Control_c, 0, 64, 127
1, 286185, Note_off_c, 0, 89, 63
1, 286266, Note_on_c, 0, 87, 87
1, 286267, Note_on_c, 0, 59, 66
1, 286268, Note_on_c, 0, 49, 71
1, 286272, Note_on_c, 0, 75, 90
1, 286273, Note_on_c, 0, 83, 77
1, 286298, Note_on_c, 0, 56, 44
1, 286303, Note_off_c, 0, 59, 61
1, 286325, Note_off_c, 0, 75, 60
1, 286327, Note_off_c, 0, 83, 59
1, 286329, Note_off_c, 0, 49, 59
1, 286343, Note_off_c, 0, 56, 52
1, 286373, Note_off_c, 0, 87, 62
1, 286417, Note_on_c, 0, 85, 80
1, 286419, Note_on_c, 0, 73, 83
1, 286419, Note_on_c, 0, 82, 83
1, 286428, Note_on_c, 0, 61, 66
1, 286434, Note_on_c, 0, 59, 59
1, 286458, Note_on_c, 0, 56, 44
1, 286462, Note_off_c, 0, 61, 61
1, 286467, Note_off_c, 0, 73, 62
1, 286497, Note_off_c, 0, 59, 58
1, 286535, Note_off_c, 0, 82, 61
1, 286548, Note_off_c, 0, 56, 46
1, 286601, Note_on_c, 0, 87, 81
1, 286606, Note_on_c, 0, 75, 80
1, 286613, Note_on_c, 0, 58, 66
1, 286615, Note_on_c, 0, 83, 65
1, 286621, Note_on_c, 0, 68, 72
1, 286637, Note_off_c, 0, 85, 62
1, 286657, Note_off_c, 0, 58, 64
1, 286661, Note_off_c, 0, 75, 63
1, 286665, Note_off_c, 0, 87, 63
1, 286673, Note_off_c, 0, 68, 64
1, 286677, Note_off_c, 0, 83, 61
1, 286779, Note_on_c, 0, 61, 77
1, 286784, Note_on_c, 0, 59, 66
1, 286831, Note_off_c, 0, 59, 52
1, 286850, Note_off_c, 0, 61, 59
1, 286925, Note_on_c, 0, 80, 89
1, 286932, Note_on_c, 0, 77, 72
1, 286944, Note_on_c, 0, 56, 67
1, 286945, Note_on_c, 0, 59, 50
1, 286956, Note_on_c, 0, 68, 39
1, 286964, Note_off_c, 0, 59, 61
1, 286977, Note_off_c, 0, 56, 66
1, 286988, Note_off_c, 0, 68, 59
1, 287003, Poly_aftertouch_c, 0, 70, 127
1, 287010, Control_c, 0, 64, 127
1, 287019, Note_off_c, 0, 80, 61
1, 287024, Control_c, 0, 64, 126
1, 287035, Poly_aftertouch_c, 0, 70, 0
1, 287039, Control_c, 0, 64, 125
1, 287054, Control_c, 0, 64, 121
1, 287069, Control_c, 0, 64, 114
1, 287084, Control_c, 0, 64, 105
1, 287098, Control_c, 0, 64, 93
1, 287113, Control_c, 0, 64, 79
1, 287128, Control_c, 0, 64, 63
1, 287130, Note_on_c, 0, 82, 83
1, 287132, Note_on_c, 0, 70, 70
1, 287132, Note_off_c, 0, 77, 50
1, 287136, Note_on_c, 0, 42, 51
1, 287137, Note_on_c, 0, 78, 71
1, 287143, Control_c, 0, 64, 0
1, 287144, Note_on_c, 0, 54, 52
1, 287202, Control_c, 0, 64, 58
1, 287217, Control_c, 0, 64, 70
1, 287221, Note_off_c, 0, 42, 64
1, 287231, Control_c, 0, 64, 79
1, 287236, Note_off_c, 0, 54, 61
1, 287246, Control_c, 0, 64, 91
1, 287261, Control_c, 0, 64, 99
1, 287275, Control_c, 0, 64, 105
1, 287290, Control_c, 0, 64, 108
1, 287305, Control_c, 0, 64, 110
1, 287320, Control_c, 0, 64, 112
1, 287331, Note_off_c, 0, 70, 63
1, 287331, Note_off_c, 0, 82, 61
1, 287335, Note_on_c, 0, 58, 71
1, 287335, Control_c, 0, 64, 114
1, 287338, Note_on_c, 0, 49, 67
1, 287350, Control_c, 0, 64, 115
1, 287364, Control_c, 0, 64, 116
1, 287366, Note_on_c, 0, 54, 42
1, 287379, Control_c, 0, 64, 117
1, 287391, Note_off_c, 0, 54, 55
1, 287394, Note_off_c, 0, 58, 63
1, 287494, Note_off_c, 0, 78, 37
1, 287509, Note_on_c, 0, 61, 61
1, 287514, Note_on_c, 0, 58, 61
1, 287519, Note_on_c, 0, 54, 44
1, 287528, Note_off_c, 0, 61, 62
1, 287537, Note_off_c, 0, 58, 65
1, 287548, Note_off_c, 0, 54, 59
1, 287558, Note_off_c, 0, 49, 61
1, 287572, Control_c, 0, 64, 116
1, 287587, Control_c, 0, 64, 114
1, 287602, Control_c, 0, 64, 113
1, 287616, Control_c, 0, 64, 112
1, 287631, Control_c, 0, 64, 111
1, 287647, Control_c, 0, 64, 111
1, 287662, Control_c, 0, 64, 110
1, 287677, Control_c, 0, 64, 109
1, 287691, Control_c, 0, 64, 107
1, 287706, Control_c, 0, 64, 104
1, 287728, Control_c, 0, 64, 101
1, 287743, Control_c, 0, 64, 97
1, 287758, Control_c, 0, 64, 91
1, 287773, Control_c, 0, 64, 84
1, 287778, Note_on_c, 0, 36, 44
1, 287779, Note_on_c, 0, 48, 56
1, 287784, Note_on_c, 0, 82, 76
1, 287785, Note_on_c, 0, 76, 72
1, 287787, Control_c, 0, 64, 74
1, 287800, Note_on_c, 0, 70, 55
1, 287802, Control_c, 0, 64, 62
1, 287817, Control_c, 0, 64, 0
1, 287846, Control_c, 0, 64, 46
1, 287861, Control_c, 0, 64, 65
1, 287876, Control_c, 0, 64, 72
1, 287881, Note_off_c, 0, 36, 61
1, 287891, Control_c, 0, 64, 81
1, 287905, Control_c, 0, 64, 92
1, 287908, Note_off_c, 0, 48, 65
1, 287920, Control_c, 0, 64, 99
1, 287935, Control_c, 0, 64, 102
1, 287950, Control_c, 0, 64, 103
1, 288044, Note_on_c, 0, 60, 54
1, 288047, Note_on_c, 0, 55, 60
1, 288084, Note_off_c, 0, 60, 59
1, 288178, Note_off_c, 0, 82, 58
1, 288202, Note_off_c, 0, 70, 64
1, 288227, Note_off_c, 0, 55, 38
1, 288265, Note_on_c, 0, 67, 62
1, 288271, Note_on_c, 0, 60, 43
1, 288274, Note_on_c, 0, 58, 59
1, 288286, Note_off_c, 0, 67, 66
1, 288293, Note_off_c, 0, 60, 62
1, 288307, Note_off_c, 0, 58, 65
1, 288476, Control_c, 0, 64, 102
1, 288491, Control_c, 0, 64, 101
1, 288506, Control_c, 0, 64, 99
1, 288509, Note_on_c, 0, 41, 57
1, 288515, Note_on_c, 0, 53, 57
1, 288521, Control_c, 0, 64, 92
1, 288536, Control_c, 0, 64, 81
1, 288551, Control_c, 0, 64, 66
1, 288566, Control_c, 0, 64, 0
1, 288572, Note_on_c, 0, 82, 75
1, 288584, Note_on_c, 0, 75, 70
1, 288593, Note_on_c, 0, 70, 60
1, 288610, Control_c, 0, 64, 64
1, 288613, Note_off_c, 0, 76, 56
1, 288625, Control_c, 0, 64, 73
1, 288640, Note_off_c, 0, 41, 65
1, 288640, Control_c, 0, 64, 84
1, 288655, Control_c, 0, 64, 94
1, 288668, Note_off_c, 0, 53, 66
1, 288670, Control_c, 0, 64, 101
1, 288684, Control_c, 0, 64, 103
1, 288719, Note_off_c, 0, 82, 63
1, 288742, Note_off_c, 0, 70, 63
1, 288786, Note_on_c, 0, 81, 84
1, 288789, Note_on_c, 0, 69, 82
1, 288828, Note_on_c, 0, 62, 34
1, 288829, Note_off_c, 0, 69, 65
1, 288847, Control_c, 0, 64, 104
1, 288850, Note_on_c, 0, 53, 20
1, 288852, Note_off_c, 0, 81, 61
1, 288862, Note_off_c, 0, 62, 44
1, 288862, Control_c, 0, 64, 105
1, 288875, Note_off_c, 0, 75, 59
1, 288876, Control_c, 0, 64, 107
1, 288887, Note_off_c, 0, 53, 53
1, 288891, Control_c, 0, 64, 109
1, 288899, Poly_aftertouch_c, 0, 52, 0
1, 288906, Control_c, 0, 64, 112
1, 288920, Control_c, 0, 64, 116
1, 288935, Control_c, 0, 64, 120
1, 288947, Note_on_c, 0, 85, 92
1, 288950, Control_c, 0, 64, 126
1, 288953, Note_on_c, 0, 73, 84
1, 288956, Note_on_c, 0, 65, 65
1, 288965, Control_c, 0, 64, 127
1, 288988, Note_on_c, 0, 57, 35
1, 289009, Note_off_c, 0, 73, 62
1, 289015, Note_off_c, 0, 65, 64
1, 289033, Note_off_c, 0, 85, 61
1, 289053, Poly_aftertouch_c, 0, 58, 0
1, 289118, Note_on_c, 0, 85, 88
1, 289121, Note_on_c, 0, 73, 86
1, 289123, Note_off_c, 0, 57, 30
1, 289124, Note_on_c, 0, 69, 76
1, 289130, Note_on_c, 0, 63, 66
1, 289130, Note_on_c, 0, 77, 73
1, 289161, Note_off_c, 0, 69, 51
1, 289234, Note_off_c, 0, 63, 61
1, 289236, Note_off_c, 0, 77, 59
1, 289243, Note_off_c, 0, 73, 61
1, 289283, Note_on_c, 0, 65, 93
1, 289291, Note_on_c, 0, 57, 71
1, 289311, Note_off_c, 0, 85, 53
1, 289317, Note_on_c, 0, 53, 38
1, 289341, Note_off_c, 0, 65, 62
1, 289351, Note_off_c, 0, 53, 50
1, 289358, Note_off_c, 0, 57, 61
1, 289421, Note_on_c, 0, 84, 89
1, 289427, Note_on_c, 0, 72, 86
1, 289427, Note_on_c, 0, 63, 79
1, 289429, Note_on_c, 0, 75, 84
1, 289433, Note_on_c, 0, 53, 67
1, 289433, Note_on_c, 0, 57, 63
1, 289450, Note_off_c, 0, 63, 68
1, 289457, Note_off_c, 0, 57, 66
1, 289460, Note_off_c, 0, 72, 63
1, 289464, Note_off_c, 0, 84, 64
1, 289464, Note_off_c, 0, 75, 58
1, 289466, Note_off_c, 0, 53, 67
1, 289530, Poly_aftertouch_c, 0, 79, 127
1, 289595, Note_on_c, 0, 46, 89
1, 289597, Note_on_c, 0, 34, 82
1, 289597, Control_c, 0, 64, 114
1, 289603, Note_on_c, 0, 70, 91
1, 289603, Note_on_c, 0, 82, 90
1, 289604, Poly_aftertouch_c, 0, 79, 0
1, 289611, Note_on_c, 0, 73, 85
1, 289612, Control_c, 0, 64, 88
1, 289626, Control_c, 0, 64, 59
1, 289641, Control_c, 0, 64, 0
1, 289670, Control_c, 0, 64, 50
1, 289685, Control_c, 0, 64, 68
1, 289693, Note_off_c, 0, 34, 65
1, 289700, Control_c, 0, 64, 76
1, 289701, Note_off_c, 0, 70, 60
1, 289701, Note_off_c, 0, 46, 63
1, 289715, Note_off_c, 0, 82, 61
1, 289715, Control_c, 0, 64, 86
1, 289719, Note_off_c, 0, 73, 61
1, 289730, Control_c, 0, 64, 95
1, 289744, Control_c, 0, 64, 98
1, 289759, Control_c, 0, 64, 99
1, 289763, Poly_aftertouch_c, 0, 79, 0
1, 289774, Control_c, 0, 64, 100
1, 289789, Control_c, 0, 64, 101
1, 289796, Note_on_c, 0, 72, 85
1, 289797, Note_on_c, 0, 84, 86
1, 289799, Note_on_c, 0, 75, 82
1, 289804, Control_c, 0, 64, 101
1, 289810, Note_on_c, 0, 52, 63
1, 289813, Note_on_c, 0, 58, 69
1, 289816, Note_on_c, 0, 60, 70
1, 289838, Note_off_c, 0, 72, 61
1, 289842, Note_off_c, 0, 60, 67
1, 289844, Note_off_c, 0, 58, 65
1, 289848, Note_on_c, 0, 53, 33
1, 289849, Note_off_c, 0, 53, 127
1, 289853, Note_off_c, 0, 84, 63
1, 289866, Note_off_c, 0, 75, 64
1, 289937, Control_c, 0, 64, 102
1, 289940, Note_on_c, 0, 77, 91
1, 289943, Note_on_c, 0, 73, 95
1, 289945, Note_on_c, 0, 85, 88
1, 289946, Note_on_c, 0, 61, 87
1, 289952, Note_on_c, 0, 65, 84
1, 289952, Control_c, 0, 64, 104
1, 289952, Note_on_c, 0, 58, 76
1, 289955, Note_on_c, 0, 53, 28
1, 289958, Note_off_c, 0, 52, 32
1, 289974, Control_c, 0, 64, 107
1, 289979, Note_off_c, 0, 65, 72
1, 289989, Control_c, 0, 64, 109
1, 289996, Note_off_c, 0, 61, 64
1, 289997, Note_off_c, 0, 58, 66
1, 290004, Control_c, 0, 64, 110
1, 290008, Note_off_c, 0, 53, 64
1, 290026, Note_off_c, 0, 85, 62
1, 290032, Note_off_c, 0, 73, 61
1, 290049, Control_c, 0, 64, 108
1, 290064, Control_c, 0, 64, 98
1, 290079, Control_c, 0, 64, 80
1, 290094, Control_c, 0, 64, 39
1, 290109, Control_c, 0, 64, 0
1, 290110, Note_on_c, 0, 85, 90
1, 290112, Note_on_c, 0, 73, 90
1, 290115, Note_on_c, 0, 79, 77
1, 290121, Note_on_c, 0, 45, 95
1, 290125, Note_on_c, 0, 33, 91
1, 290129, Note_off_c, 0, 77, 54
1, 290138, Control_c, 0, 64, 52
1, 290152, Note_off_c, 0, 33, 71
1, 290153, Control_c, 0, 64, 73
1, 290159, Note_off_c, 0, 45, 62
1, 290167, Control_c, 0, 64, 89
1, 290182, Control_c, 0, 64, 117
1, 290197, Control_c, 0, 64, 127
1, 290293, Note_on_c, 0, 61, 103
1, 290307, Note_on_c, 0, 51, 77
1, 290326, Note_off_c, 0, 51, 66
1, 290337, Note_off_c, 0, 61, 63
1, 290450, Note_off_c, 0, 79, 56
1, 290457, Note_on_c, 0, 67, 90
1, 290459, Note_on_c, 0, 55, 89
1, 290465, Note_on_c, 0, 61, 78
1, 290468, Note_on_c, 0, 65, 80
1, 290476, Note_off_c, 0, 67, 73
1, 290485, Note_off_c, 0, 65, 71
1, 290487, Note_off_c, 0, 61, 67
1, 290491, Note_off_c, 0, 73, 43
1, 290498, Note_off_c, 0, 55, 63
1, 290608, Note_off_c, 0, 85, 29
1, 290670, Note_on_c, 0, 44, 95
1, 290674, Note_on_c, 0, 32, 91
1, 290686, Control_c, 0, 64, 104
1, 290700, Control_c, 0, 64, 80
1, 290705, Note_on_c, 0, 45, 48
1, 290723, Control_c, 0, 64, 36
1, 290734, Note_off_c, 0, 45, 62
1, 290736, Note_on_c, 0, 85, 96
1, 290737, Note_on_c, 0, 73, 99
1, 290738, Control_c, 0, 64, 0
1, 290740, Note_on_c, 0, 78, 90
1, 290745, Note_on_c, 0, 80, 86
1, 290782, Control_c, 0, 64, 67
1, 290789, Note_off_c, 0, 32, 64
1, 290797, Control_c, 0, 64, 78
1, 290802, Note_off_c, 0, 44, 63
1, 290812, Control_c, 0, 64, 89
1, 290827, Control_c, 0, 64, 97
1, 290843, Control_c, 0, 64, 100
1, 290855, Note_off_c, 0, 73, 56
1, 290857, Note_off_c, 0, 85, 61
1, 290858, Control_c, 0, 64, 101
1, 290909, Note_off_c, 0, 80, 56
1, 290936, Note_on_c, 0, 63, 89
1, 290939, Note_on_c, 0, 51, 83
1, 290942, Note_on_c, 0, 84, 93
1, 290943, Note_on_c, 0, 72, 93
1, 290945, Note_on_c, 0, 80, 62
1, 290987, Note_off_c, 0, 72, 61
1, 290995, Note_off_c, 0, 51, 62
1, 290995, Note_off_c, 0, 84, 65
1, 290996, Note_off_c, 0, 63, 60
1, 291035, Note_off_c, 0, 78, 61
1, 291037, Note_off_c, 0, 80, 63
1, 291064, Control_c, 0, 64, 102
1, 291079, Control_c, 0, 64, 103
1, 291094, Note_on_c, 0, 85, 91
1, 291094, Note_on_c, 0, 73, 92
1, 291094, Control_c, 0, 64, 104
1, 291097, Note_on_c, 0, 80, 77
1, 291099, Note_on_c, 0, 66, 84
1, 291099, Note_on_c, 0, 78, 77
1, 291109, Control_c, 0, 64, 106
1, 291119, Note_on_c, 0, 64, 64
1, 291123, Control_c, 0, 64, 109
1, 291137, Note_off_c, 0, 73, 62
1, 291138, Control_c, 0, 64, 114
1, 291148, Note_off_c, 0, 64, 65
1, 291153, Note_off_c, 0, 85, 62
1, 291153, Control_c, 0, 64, 121
1, 291156, Note_off_c, 0, 66, 63
1, 291168, Control_c, 0, 64, 127
1, 291171, Note_off_c, 0, 78, 61
1, 291171, Note_off_c, 0, 80, 64
1, 291173, Poly_aftertouch_c, 0, 63, 0
1, 291192, Poly_aftertouch_c, 0, 63, 0
1, 291245, Note_on_c, 0, 75, 96
1, 291246, Note_on_c, 0, 87, 95
1, 291249, Note_on_c, 0, 78, 90
1, 291250, Note_on_c, 0, 72, 81
1, 291268, Note_on_c, 0, 66, 68
1, 291276, Note_on_c, 0, 63, 64
1, 291283, Note_off_c, 0, 75, 65
1, 291293, Note_off_c, 0, 72, 63
1, 291294, Note_off_c, 0, 78, 63
1, 291312, Note_off_c, 0, 87, 61
1, 291320, Note_off_c, 0, 63, 61
1, 291323, Note_off_c, 0, 66, 58
1, 291412, Note_on_c, 0, 89, 98
1, 291413, Note_on_c, 0, 77, 97
1, 291417, Note_on_c, 0, 80, 90
1, 291418, Note_on_c, 0, 66, 79
1, 291426, Note_on_c, 0, 63, 68
1, 291439, Note_on_c, 0, 57, 69
1, 291442, Note_off_c, 0, 66, 70
1, 291454, Note_off_c, 0, 63, 66
1, 291454, Note_off_c, 0, 77, 63
1, 291468, Note_off_c, 0, 80, 65
1, 291475, Note_off_c, 0, 57, 64
1, 291486, Note_off_c, 0, 89, 65
1, 291601, Note_on_c, 0, 60, 82
1, 291603, Note_on_c, 0, 90, 100
1, 291606, Note_on_c, 0, 82, 89
1, 291606, Note_on_c, 0, 78, 93
1, 291607, Note_on_c, 0, 51, 72
1, 291615, Note_on_c, 0, 56, 66
1, 291624, Note_off_c, 0, 60, 67
1, 291630, Note_off_c, 0, 51, 66
1, 291642, Note_off_c, 0, 56, 65
1, 291809, Note_on_c, 0, 49, 100
1, 291810, Note_on_c, 0, 37, 87
1, 291827, Control_c, 0, 64, 115
1, 291842, Control_c, 0, 64, 98
1, 291857, Control_c, 0, 64, 79
1, 291872, Control_c, 0, 64, 51
1, 291886, Control_c, 0, 64, 0
1, 291916, Control_c, 0, 64, 53
1, 291923, Note_on_c, 0, 87, 97
1, 291931, Control_c, 0, 64, 70
1, 291946, Control_c, 0, 64, 81
1, 291952, Note_off_c, 0, 37, 66
1, 291961, Control_c, 0, 64, 94
1, 291964, Note_off_c, 0, 49, 61
1, 291976, Control_c, 0, 64, 104
1, 291991, Control_c, 0, 64, 105
1, 291996, Note_off_c, 0, 90, 60
1, 292070, Note_off_c, 0, 78, 59
1, 292093, Note_off_c, 0, 87, 60
1, 292124, Control_c, 0, 64, 106
1, 292136, Note_on_c, 0, 89, 95
1, 292138, Note_on_c, 0, 77, 97
1, 292138, Control_c, 0, 64, 106
1, 292143, Note_on_c, 0, 85, 88
1, 292144, Note_on_c, 0, 53, 72
1, 292151, Note_on_c, 0, 61, 78
1, 292167, Note_on_c, 0, 56, 59
1, 292168, Note_on_c, 0, 87, 37
1, 292171, Note_off_c, 0, 82, 62
1, 292185, Note_off_c, 0, 77, 60
1, 292194, Note_off_c, 0, 87, 47
1, 292194, Note_off_c, 0, 89, 65
1, 292220, Note_off_c, 0, 53, 64
1, 292229, Note_off_c, 0, 56, 52
1, 292246, Note_off_c, 0, 61, 58
1, 292282, Note_off_c, 0, 85, 55
1, 292314, Note_on_c, 0, 90, 98
1, 292318, Note_on_c, 0, 65, 83
1, 292319, Note_on_c, 0, 78, 103
1, 292326, Note_on_c, 0, 87, 77
1, 292327, Note_on_c, 0, 85, 52
1, 292328, Note_on_c, 0, 61, 71
1, 292332, Note_on_c, 0, 56, 72
1, 292338, Note_off_c, 0, 65, 73
1, 292349, Note_off_c, 0, 61, 67
1, 292356, Note_off_c, 0, 56, 66
1, 292363, Note_off_c, 0, 85, 58
1, 292389, Note_off_c, 0, 78, 55
1, 292397, Note_off_c, 0, 90, 62
1, 292412, Control_c, 0, 64, 100
1, 292426, Note_off_c, 0, 87, 61
1, 292427, Control_c, 0, 64, 85
1, 292443, Control_c, 0, 64, 66
1, 292458, Control_c, 0, 64, 0
1, 292471, Note_on_c, 0, 85, 65
1, 292475, Note_on_c, 0, 39, 81
1, 292475, Note_on_c, 0, 89, 98
1, 292477, Note_on_c, 0, 51, 79
1, 292477, Note_on_c, 0, 77, 88
1, 292487, Control_c, 0, 64, 66
1, 292502, Control_c, 0, 64, 78
1, 292517, Control_c, 0, 64, 92
1, 292520, Note_off_c, 0, 77, 60
1, 292532, Control_c, 0, 64, 111
1, 292535, Note_off_c, 0, 39, 63
1, 292536, Note_off_c, 0, 51, 62
1, 292544, Note_off_c, 0, 89, 65
1, 292547, Control_c, 0, 64, 127
1, 292583, Note_off_c, 0, 85, 65
1, 292590, Poly_aftertouch_c, 0, 49, 0
1, 292633, Note_on_c, 0, 75, 91
1, 292635, Note_on_c, 0, 87, 86
1, 292635, Note_on_c, 0, 83, 81
1, 292638, Note_on_c, 0, 59, 74
1, 292671, Note_off_c, 0, 59, 61
1, 292686, Note_off_c, 0, 75, 60
1, 292690, Note_on_c, 0, 51, 3
1, 292724, Note_off_c, 0, 51, 29
1, 292737, Note_off_c, 0, 83, 54
1, 292763, Poly_aftertouch_c, 0, 54, 0
1, 292773, Note_on_c, 0, 89, 93
1, 292774, Note_on_c, 0, 77, 90
1, 292775, Note_on_c, 0, 54, 41
1, 292777, Note_on_c, 0, 64, 79
1, 292780, Note_on_c, 0, 85, 83
1, 292793, Note_on_c, 0, 59, 52
1, 292799, Note_off_c, 0, 64, 71
1, 292804, Note_off_c, 0, 87, 60
1, 292809, Note_off_c, 0, 59, 65
1, 292813, Note_off_c, 0, 77, 57
1, 292814, Note_off_c, 0, 89, 65
1, 292828, Note_off_c, 0, 54, 63
1, 292828, Note_off_c, 0, 85, 66
1, 292969, Control_c, 0, 64, 105
1, 292974, Note_on_c, 0, 41, 73
1, 292982, Note_on_c, 0, 53, 74
1, 292983, Control_c, 0, 64, 84
1, 292986, Note_on_c, 0, 87, 80
1, 292990, Note_on_c, 0, 75, 75
1, 292990, Note_on_c, 0, 83, 74
1, 292998, Control_c, 0, 64, 68
1, 293006, Note_on_c, 0, 85, 67
1, 293013, Control_c, 0, 64, 46
1, 293028, Control_c, 0, 64, 58
1, 293043, Control_c, 0, 64, 68
1, 293046, Note_off_c, 0, 85, 45
1, 293058, Control_c, 0, 64, 75
1, 293062, Note_off_c, 0, 41, 64
1, 293073, Control_c, 0, 64, 86
1, 293078, Note_off_c, 0, 53, 65
1, 293087, Control_c, 0, 64, 101
1, 293094, Note_off_c, 0, 87, 61
1, 293095, Note_off_c, 0, 75, 63
1, 293102, Control_c, 0, 64, 109
1, 293116, Poly_aftertouch_c, 0, 74, 0
1, 293117, Control_c, 0, 64, 111
1, 293132, Note_off_c, 0, 83, 59
1, 293185, Note_on_c, 0, 82, 76
1, 293185, Note_on_c, 0, 85, 86
1, 293186, Note_on_c, 0, 59, 74
1, 293186, Note_on_c, 0, 73, 86
1, 293189, Note_on_c, 0, 49, 73
1, 293213, Note_on_c, 0, 56, 60
1, 293225, Note_off_c, 0, 59, 61
1, 293226, Note_off_c, 0, 49, 60
1, 293239, Note_off_c, 0, 73, 63
1, 293246, Note_off_c, 0, 82, 61
1, 293249, Note_off_c, 0, 85, 62
1, 293279, Note_off_c, 0, 56, 62
1, 293326, Note_on_c, 0, 61, 80
1, 293328, Note_on_c, 0, 72, 91
1, 293330, Note_on_c, 0, 84, 89
1, 293331, Note_on_c, 0, 81, 84
1, 293332, Note_on_c, 0, 56, 57
1, 293355, Control_c, 0, 64, 110
1, 293369, Note_on_c, 0, 59, 28
1, 293370, Note_off_c, 0, 61, 58
1, 293373, Note_off_c, 0, 72, 62
1, 293378, Note_off_c, 0, 81, 60
1, 293384, Note_off_c, 0, 84, 63
1, 293407, Note_off_c, 0, 59, 44
1, 293429, Note_off_c, 0, 56, 63
1, 293444, Control_c, 0, 64, 111
1, 293458, Control_c, 0, 64, 112
1, 293473, Control_c, 0, 64, 117
1, 293474, Note_on_c, 0, 83, 94
1, 293478, Note_on_c, 0, 71, 91
1, 293484, Note_on_c, 0, 80, 81
1, 293488, Control_c, 0, 64, 127
1, 293490, Note_on_c, 0, 59, 74
1, 293494, Note_on_c, 0, 68, 81
1, 293537, Note_off_c, 0, 68, 65
1, 293573, Note_off_c, 0, 83, 58
1, 293577, Note_off_c, 0, 71, 55
1, 293580, Note_off_c, 0, 59, 56
1, 293606, Note_off_c, 0, 80, 62
1, 293627, Note_on_c, 0, 61, 82
1, 293630, Note_on_c, 0, 56, 80
1, 293636, Note_on_c, 0, 59, 47
1, 293651, Note_off_c, 0, 61, 69
1, 293664, Note_off_c, 0, 59, 58
1, 293669, Note_off_c, 0, 56, 65
1, 293794, Note_on_c, 0, 80, 93
1, 293795, Note_on_c, 0, 49, 83
1, 293797, Note_on_c, 0, 37, 80
1, 293799, Note_on_c, 0, 68, 90
1, 293801, Note_on_c, 0, 77, 86
1, 293854, Note_off_c, 0, 37, 63
1, 293858, Note_off_c, 0, 68, 58
1, 293860, Note_off_c, 0, 49, 62
1, 293896, Note_off_c, 0, 80, 63
1, 293939, Control_c, 0, 64, 110
1, 293954, Control_c, 0, 64, 82
1, 293967, Note_on_c, 0, 70, 92
1, 293968, Note_on_c, 0, 82, 94
1, 293969, Control_c, 0, 64, 0
1, 293970, Note_on_c, 0, 78, 86
1, 293974, Note_on_c, 0, 54, 84
1, 293979, Note_on_c, 0, 42, 76
1, 293998, Note_off_c, 0, 77, 60
1, 294028, Control_c, 0, 64, 65
1, 294042, Note_off_c, 0, 70, 65
1, 294043, Note_off_c, 0, 42, 64
1, 294044, Control_c, 0, 64, 77
1, 294052, Note_off_c, 0, 54, 61
1, 294059, Control_c, 0, 64, 92
1, 294074, Control_c, 0, 64, 117
1, 294088, Control_c, 0, 64, 127
1, 294094, Note_off_c, 0, 82, 61
1, 294110, Note_off_c, 0, 78, 61
1, 294152, Note_on_c, 0, 51, 79
1, 294155, Note_on_c, 0, 63, 78
1, 294162, Note_on_c, 0, 59, 67
1, 294165, Note_on_c, 0, 61, 59
1, 294184, Note_off_c, 0, 63, 60
1, 294186, Note_off_c, 0, 61, 59
1, 294193, Note_off_c, 0, 51, 58
1, 294194, Note_off_c, 0, 59, 61
1, 294309, Note_on_c, 0, 85, 103
1, 294311, Note_on_c, 0, 73, 92
1, 294313, Note_on_c, 0, 70, 85
1, 294317, Note_on_c, 0, 82, 82
1, 294321, Note_on_c, 0, 58, 69
1, 294324, Note_on_c, 0, 61, 46
1, 294331, Note_off_c, 0, 70, 73
1, 294347, Note_off_c, 0, 73, 66
1, 294351, Note_off_c, 0, 61, 65
1, 294355, Note_off_c, 0, 58, 64
1, 294407, Note_off_c, 0, 82, 62
1, 294535, Note_on_c, 0, 51, 83
1, 294535, Note_on_c, 0, 39, 82
1, 294554, Control_c, 0, 64, 119
1, 294569, Control_c, 0, 64, 103
1, 294575, Note_off_c, 0, 85, 62
1, 294584, Control_c, 0, 64, 88
1, 294598, Note_on_c, 0, 90, 102
1, 294599, Control_c, 0, 64, 71
1, 294601, Note_on_c, 0, 78, 100
1, 294605, Note_on_c, 0, 82, 85
1, 294614, Control_c, 0, 64, 0
1, 294658, Control_c, 0, 64, 16
1, 294673, Control_c, 0, 64, 66
1, 294682, Note_off_c, 0, 39, 64
1, 294688, Control_c, 0, 64, 77
1, 294695, Note_off_c, 0, 51, 61
1, 294703, Control_c, 0, 64, 94
1, 294718, Control_c, 0, 64, 114
1, 294732, Control_c, 0, 64, 127
1, 294805, Note_on_c, 0, 63, 80
1, 294808, Note_on_c, 0, 54, 67
1, 294818, Note_on_c, 0, 58, 64
1, 294826, Note_off_c, 0, 78, 58
1, 294849, Note_off_c, 0, 54, 62
1, 294849, Note_off_c, 0, 58, 64
1, 294849, Note_off_c, 0, 90, 59
1, 294876, Note_off_c, 0, 63, 63
1, 294918, Note_off_c, 0, 82, 57
1, 294941, Note_on_c, 0, 66, 88
1, 294941, Note_on_c, 0, 89, 92
1, 294944, Note_on_c, 0, 58, 69
1, 294948, Note_on_c, 0, 77, 89
1, 294950, Note_on_c, 0, 85, 84
1, 294973, Note_off_c, 0, 66, 61
1, 294985, Control_c, 0, 64, 126
1, 294992, Note_off_c, 0, 77, 61
1, 294995, Note_off_c, 0, 58, 65
1, 295000, Control_c, 0, 64, 126
1, 295007, Note_off_c, 0, 89, 62
1, 295015, Control_c, 0, 64, 124
1, 295016, Poly_aftertouch_c, 0, 82, 0
1, 295029, Control_c, 0, 64, 122
1, 295031, Note_off_c, 0, 85, 58
1, 295044, Control_c, 0, 64, 118
1, 295059, Control_c, 0, 64, 107
1, 295074, Control_c, 0, 64, 91
1, 295088, Control_c, 0, 64, 69
1, 295103, Control_c, 0, 64, 0
1, 295105, Note_on_c, 0, 89, 90
1, 295106, Note_on_c, 0, 77, 87
1, 295108, Note_on_c, 0, 56, 76
1, 295109, Note_on_c, 0, 44, 78
1, 295111, Note_on_c, 0, 85, 77
1, 295133, Control_c, 0, 64, 46
1, 295148, Control_c, 0, 64, 69
1, 295159, Note_off_c, 0, 77, 59
1, 295162, Control_c, 0, 64, 79
1, 295164, Note_off_c, 0, 56, 63
1, 295165, Note_off_c, 0, 89, 63
1, 295171, Note_off_c, 0, 44, 63
1, 295177, Control_c, 0, 64, 94
1, 295192, Control_c, 0, 64, 105
1, 295215, Control_c, 0, 64, 117
1, 295230, Control_c, 0, 64, 127
1, 295231, Note_off_c, 0, 85, 63
1, 295270, Note_on_c, 0, 75, 94
1, 295270, Note_on_c, 0, 87, 87
1, 295273, Note_on_c, 0, 59, 77
1, 295276, Note_on_c, 0, 51, 72
1, 295280, Note_on_c, 0, 83, 72
1, 295305, Note_off_c, 0, 59, 60
1, 295310, Note_on_c, 0, 56, 42
1, 295313, Note_off_c, 0, 51, 56
1, 295317, Note_off_c, 0, 75, 63
1, 295331, Note_off_c, 0, 56, 58
1, 295337, Note_off_c, 0, 83, 59
1, 295361, Note_off_c, 0, 87, 62
1, 295423, Note_on_c, 0, 56, 65
1, 295427, Note_on_c, 0, 82, 81
1, 295428, Note_on_c, 0, 85, 87
1, 295430, Note_on_c, 0, 73, 85
1, 295431, Note_on_c, 0, 66, 74
1, 295435, Note_on_c, 0, 59, 43
1, 295446, Note_off_c, 0, 66, 69
1, 295455, Note_off_c, 0, 59, 63
1, 295455, Note_off_c, 0, 73, 58
1, 295476, Note_off_c, 0, 56, 65
1, 295500, Note_off_c, 0, 82, 60
1, 295614, Control_c, 0, 64, 124
1, 295630, Control_c, 0, 64, 113
1, 295644, Note_on_c, 0, 49, 77
1, 295645, Note_on_c, 0, 37, 70
1, 295645, Control_c, 0, 64, 99
1, 295647, Note_on_c, 0, 87, 89
1, 295654, Note_on_c, 0, 75, 80
1, 295656, Note_on_c, 0, 83, 74
1, 295660, Control_c, 0, 64, 81
1, 295669, Note_off_c, 0, 85, 62
1, 295675, Control_c, 0, 64, 65
1, 295690, Control_c, 0, 64, 0
1, 295719, Control_c, 0, 64, 61
1, 295734, Note_off_c, 0, 37, 64
1, 295734, Control_c, 0, 64, 70
1, 295744, Note_off_c, 0, 49, 61
1, 295749, Control_c, 0, 64, 81
1, 295764, Control_c, 0, 64, 94
1, 295768, Note_off_c, 0, 87, 63
1, 295778, Control_c, 0, 64, 106
1, 295785, Note_off_c, 0, 75, 62
1, 295788, Note_off_c, 0, 83, 59
1, 295793, Control_c, 0, 64, 113
1, 295808, Control_c, 0, 64, 115
1, 295823, Control_c, 0, 64, 116
1, 295860, Note_on_c, 0, 49, 76
1, 295860, Note_on_c, 0, 57, 66
1, 295899, Note_off_c, 0, 57, 59
1, 295912, Note_off_c, 0, 49, 55
1, 295960, Poly_aftertouch_c, 0, 56, 127
1, 296002, Poly_aftertouch_c, 0, 56, 0
1, 296017, Note_on_c, 0, 56, 44
1, 296018, Note_on_c, 0, 80, 89
1, 296022, Note_on_c, 0, 65, 80
1, 296022, Note_on_c, 0, 68, 82
1, 296025, Note_on_c, 0, 59, 65
1, 296028, Note_on_c, 0, 77, 76
1, 296039, Control_c, 0, 64, 115
1, 296045, Note_off_c, 0, 65, 71
1, 296054, Control_c, 0, 64, 115
1, 296059, Note_off_c, 0, 59, 63
1, 296068, Control_c, 0, 64, 114
1, 296071, Note_off_c, 0, 68, 57
1, 296080, Note_off_c, 0, 56, 64
1, 296112, Control_c, 0, 64, 114
1, 296114, Note_off_c, 0, 80, 60
1, 296157, Control_c, 0, 64, 113
1, 296172, Control_c, 0, 64, 113
1, 296186, Control_c, 0, 64, 109
1, 296201, Control_c, 0, 64, 101
1, 296216, Control_c, 0, 64, 87
1, 296231, Note_on_c, 0, 82, 90
1, 296231, Control_c, 0, 64, 68
1, 296236, Note_on_c, 0, 40, 69
1, 296238, Note_on_c, 0, 70, 86
1, 296238, Note_on_c, 0, 78, 81
1, 296239, Note_on_c, 0, 52, 78
1, 296245, Control_c, 0, 64, 0
1, 296268, Note_off_c, 0, 77, 58
1, 296286, Note_on_c, 0, 41, 16
1, 296287, Note_off_c, 0, 41, 127
1, 296290, Control_c, 0, 64, 63
1, 296305, Control_c, 0, 64, 73
1, 296319, Control_c, 0, 64, 83
1, 296328, Note_off_c, 0, 40, 63
1, 296334, Control_c, 0, 64, 96
1, 296344, Note_off_c, 0, 52, 65
1, 296349, Control_c, 0, 64, 105
1, 296364, Control_c, 0, 64, 112
1, 296379, Control_c, 0, 64, 118
1, 296394, Control_c, 0, 64, 127
1, 296396, Note_off_c, 0, 70, 62
1, 296456, Note_on_c, 0, 61, 90
1, 296460, Note_on_c, 0, 54, 75
1, 296462, Note_on_c, 0, 52, 77
1, 296476, Note_off_c, 0, 78, 55
1, 296522, Note_off_c, 0, 52, 64
1, 296554, Note_off_c, 0, 61, 62
1, 296561, Note_off_c, 0, 54, 58
1, 296585, Note_off_c, 0, 82, 0
1, 296585, Note_on_c, 0, 82, 25
1, 296628, Note_on_c, 0, 54, 68
1, 296629, Note_on_c, 0, 66, 95
1, 296638, Note_on_c, 0, 61, 81
1, 296679, Note_off_c, 0, 66, 66
1, 296730, Note_off_c, 0, 61, 59
1, 296759, Note_off_c, 0, 54, 58
1, 296772, Control_c, 0, 64, 111
1, 296779, Note_off_c, 0, 82, 28
1, 296787, Control_c, 0, 64, 94
1, 296802, Control_c, 0, 64, 77
1, 296817, Control_c, 0, 64, 32
1, 296817, Note_on_c, 0, 85, 96
1, 296819, Note_on_c, 0, 73, 92
1, 296822, Note_on_c, 0, 79, 88
1, 296827, Note_on_c, 0, 52, 83
1, 296830, Note_on_c, 0, 61, 90
1, 296832, Control_c, 0, 64, 0
1, 296861, Control_c, 0, 64, 61
1, 296876, Control_c, 0, 64, 72
1, 296891, Control_c, 0, 64, 82
1, 296906, Control_c, 0, 64, 96
1, 296909, Note_off_c, 0, 52, 62
1, 296921, Control_c, 0, 64, 104
1, 296935, Control_c, 0, 64, 110
1, 296950, Control_c, 0, 64, 111
1, 296959, Note_off_c, 0, 61, 58
1, 297008, Note_on_c, 0, 57, 74
1, 297009, Control_c, 0, 64, 111
1, 297014, Note_on_c, 0, 67, 100
1, 297024, Control_c, 0, 64, 112
1, 297039, Control_c, 0, 64, 113
1, 297042, Note_on_c, 0, 58, 45
1, 297043, Note_off_c, 0, 58, 52
1, 297053, Control_c, 0, 64, 114
1, 297065, Note_off_c, 0, 67, 58
1, 297098, Control_c, 0, 64, 114
1, 297130, Note_off_c, 0, 57, 49
1, 297142, Note_off_c, 0, 79, 57
1, 297195, Note_on_c, 0, 52, 85
1, 297195, Note_on_c, 0, 61, 94
1, 297202, Note_on_c, 0, 57, 64
1, 297213, Note_off_c, 0, 61, 71
1, 297224, Note_off_c, 0, 57, 66
1, 297232, Note_off_c, 0, 52, 69
1, 297365, Control_c, 0, 64, 109
1, 297380, Control_c, 0, 64, 91
1, 297395, Control_c, 0, 64, 71
1, 297407, Note_on_c, 0, 39, 89
1, 297408, Note_on_c, 0, 51, 95
1, 297410, Note_on_c, 0, 78, 96
1, 297410, Control_c, 0, 64, 0
1, 297415, Note_on_c, 0, 80, 92
1, 297440, Control_c, 0, 64, 64
1, 297447, Note_off_c, 0, 73, 63
1, 297462, Control_c, 0, 64, 75
1, 297467, Note_off_c, 0, 39, 63
1, 297468, Note_off_c, 0, 51, 64
1, 297477, Control_c, 0, 64, 91
1, 297491, Note_off_c, 0, 85, 38
1, 297491, Control_c, 0, 64, 105
1, 297506, Control_c, 0, 64, 115
1, 297521, Control_c, 0, 64, 116
1, 297634, Note_on_c, 0, 84, 98
1, 297640, Note_on_c, 0, 63, 91
1, 297640, Note_on_c, 0, 72, 92
1, 297644, Note_on_c, 0, 51, 78
1, 297649, Note_on_c, 0, 56, 75
1, 297678, Note_on_c, 0, 82, 37
1, 297692, Note_off_c, 0, 51, 59
1, 297693, Note_off_c, 0, 63, 64
1, 297705, Note_off_c, 0, 56, 63
1, 297714, Note_off_c, 0, 82, 49
1, 297752, Note_off_c, 0, 72, 58
1, 297772, Note_off_c, 0, 84, 58
1, 297796, Note_on_c, 0, 68, 99
1, 297803, Note_on_c, 0, 56, 95
1, 297808, Note_off_c, 0, 80, 55
1, 297824, Note_off_c, 0, 78, 56
1, 297829, Note_off_c, 0, 68, 69
1, 297842, Note_off_c, 0, 56, 62
1, 297886, Note_on_c, 0, 71, 87
1, 297888, Note_on_c, 0, 83, 81
1, 297906, Control_c, 0, 64, 115
1, 297921, Control_c, 0, 64, 108
1, 297923, Note_off_c, 0, 83, 55
1, 297929, Note_off_c, 0, 71, 58
1, 297936, Control_c, 0, 64, 93
1, 297950, Control_c, 0, 64, 68
1, 297965, Control_c, 0, 64, 0
1, 297977, Note_on_c, 0, 83, 87
1, 297979, Note_on_c, 0, 71, 93
1, 297982, Note_on_c, 0, 38, 90
1, 297985, Note_on_c, 0, 50, 88
1, 297986, Note_on_c, 0, 79, 86
1, 298038, Note_off_c, 0, 71, 56
1, 298041, Control_c, 0, 64, 64
1, 298047, Note_off_c, 0, 83, 61
1, 298051, Note_off_c, 0, 38, 63
1, 298055, Control_c, 0, 64, 76
1, 298070, Control_c, 0, 64, 89
1, 298081, Note_off_c, 0, 50, 61
1, 298085, Control_c, 0, 64, 102
1, 298099, Control_c, 0, 64, 113
1, 298114, Control_c, 0, 64, 121
1, 298129, Control_c, 0, 64, 126
1, 298144, Control_c, 0, 64, 127
1, 298220, Note_on_c, 0, 62, 81
1, 298224, Note_on_c, 0, 70, 97
1, 298224, Note_on_c, 0, 82, 94
1, 298227, Note_on_c, 0, 55, 71
1, 298232, Note_on_c, 0, 74, 86
1, 298233, Note_on_c, 0, 50, 65
1, 298253, Note_off_c, 0, 79, 57
1, 298306, Note_off_c, 0, 62, 60
1, 298307, Note_off_c, 0, 50, 61
1, 298343, Note_off_c, 0, 70, 58
1, 298348, Note_off_c, 0, 82, 61
1, 298447, Note_on_c, 0, 54, 82
1, 298449, Note_on_c, 0, 60, 83
1, 298452, Note_on_c, 0, 81, 96
1, 298453, Note_on_c, 0, 69, 98
1, 298454, Note_on_c, 0, 78, 89
1, 298457, Note_on_c, 0, 50, 69
1, 298468, Note_off_c, 0, 60, 69
1, 298483, Note_off_c, 0, 74, 63
1, 298492, Note_off_c, 0, 69, 66
1, 298499, Note_off_c, 0, 55, 35
1, 298501, Note_off_c, 0, 54, 63
1, 298504, Note_off_c, 0, 50, 63
1, 298510, Note_off_c, 0, 81, 62
1, 298525, Note_off_c, 0, 78, 64
1, 298698, Control_c, 0, 64, 112
1, 298713, Control_c, 0, 64, 81
1, 298719, Note_on_c, 0, 82, 103
1, 298720, Note_on_c, 0, 70, 103
1, 298722, Note_on_c, 0, 49, 101
1, 298722, Note_on_c, 0, 78, 88
1, 298723, Note_on_c, 0, 37, 91
1, 298728, Control_c, 0, 64, 0
1, 298787, Control_c, 0, 64, 35
1, 298792, Note_off_c, 0, 70, 58
1, 298802, Control_c, 0, 64, 65
1, 298805, Note_off_c, 0, 37, 64
1, 298805, Note_off_c, 0, 49, 62
1, 298817, Control_c, 0, 64, 77
1, 298831, Note_off_c, 0, 82, 62
1, 298833, Control_c, 0, 64, 88
1, 298847, Control_c, 0, 64, 98
1, 298862, Control_c, 0, 64, 103
1, 298877, Control_c, 0, 64, 104
1, 299003, Note_on_c, 0, 85, 101
1, 299005, Control_c, 0, 64, 104
1, 299006, Note_on_c, 0, 73, 99
1, 299011, Note_on_c, 0, 82, 82
1, 299019, Note_on_c, 0, 49, 84
1, 299019, Note_on_c, 0, 61, 85
1, 299019, Control_c, 0, 64, 105
1, 299028, Note_on_c, 0, 58, 81
1, 299034, Control_c, 0, 64, 106
1, 299041, Note_off_c, 0, 78, 62
1, 299049, Control_c, 0, 64, 108
1, 299063, Control_c, 0, 64, 111
1, 299065, Note_off_c, 0, 73, 62
1, 299078, Control_c, 0, 64, 117
1, 299081, Note_off_c, 0, 49, 62
1, 299092, Note_off_c, 0, 61, 60
1, 299093, Control_c, 0, 64, 124
1, 299098, Note_off_c, 0, 58, 62
1, 299108, Control_c, 0, 64, 127
1, 299118, Note_off_c, 0, 82, 59
1, 299144, Note_off_c, 0, 85, 59
1, 299341, Note_on_c, 0, 90, 101
1, 299342, Note_on_c, 0, 78, 108
1, 299345, Note_on_c, 0, 82, 90
1, 299348, Note_on_c, 0, 58, 77
1, 299348, Note_on_c, 0, 70, 89
1, 299354, Note_on_c, 0, 61, 79
1, 299373, Note_on_c, 0, 85, 53
1, 299402, Note_off_c, 0, 85, 54
1, 299407, Note_off_c, 0, 70, 63
1, 299476, Note_off_c, 0, 61, 61
1, 299477, Note_off_c, 0, 58, 61
1, 299489, Note_off_c, 0, 78, 61
1, 299521, Note_off_c, 0, 90, 58
1, 299583, Note_off_c, 0, 82, 54
1, 299901, Control_c, 0, 64, 113
1, 299905, Note_on_c, 0, 48, 97
1, 299905, Note_on_c, 0, 78, 112
1, 299905, Note_on_c, 0, 90, 98
1, 299907, Note_on_c, 0, 36, 94
1, 299908, Note_on_c, 0, 82, 92
1, 299916, Control_c, 0, 64, 98
1, 299931, Control_c, 0, 64, 83
1, 299946, Control_c, 0, 64, 67
1, 299960, Control_c, 0, 64, 0
1, 300153, Control_c, 0, 64, 61
1, 300167, Control_c, 0, 64, 72
1, 300182, Control_c, 0, 64, 83
1, 300197, Control_c, 0, 64, 99
1, 300212, Control_c, 0, 64, 117
1, 300227, Control_c, 0, 64, 127
1, 300269, Note_off_c, 0, 90, 62
1, 300275, Note_off_c, 0, 78, 63
1, 300323, Note_off_c, 0, 82, 61
1, 300345, Note_off_c, 0, 36, 62
1, 300393, Note_off_c, 0, 48, 59
1, 300628, Note_on_c, 0, 68, 100
1, 300776, Note_off_c, 0, 68, 54
1, 301017, Note_on_c, 0, 68, 96
1, 301021, Note_on_c, 0, 66, 94
1, 301022, Note_on_c, 0, 63, 86
1, 301023, Note_on_c, 0, 56, 73
1, 301208, Note_off_c, 0, 68, 62
1, 301225, Note_on_c, 0, 70, 83
1, 301298, Note_off_c, 0, 70, 60
1, 301323, Note_on_c, 0, 68, 77
1, 301378, Note_off_c, 0, 68, 62
1, 301396, Note_on_c, 0, 70, 82
1, 301440, Note_off_c, 0, 70, 58
1, 301463, Note_on_c, 0, 68, 79
1, 301506, Note_off_c, 0, 68, 56
1, 301530, Note_on_c, 0, 70, 78
1, 301562, Note_off_c, 0, 70, 60
1, 301586, Note_on_c, 0, 68, 79
1, 301631, Note_off_c, 0, 68, 53
1, 301649, Note_on_c, 0, 70, 79
1, 301685, Note_off_c, 0, 70, 59
1, 301703, Note_on_c, 0, 68, 80
1, 301741, Note_off_c, 0, 68, 49
1, 301768, Note_on_c, 0, 70, 79
1, 301769, Note_off_c, 0, 66, 64
1, 301792, Note_off_c, 0, 70, 57
1, 301800, Note_off_c, 0, 56, 62
1, 301800, Note_off_c, 0, 63, 56
1, 301826, Note_on_c, 0, 68, 86
1, 301878, Note_off_c, 0, 68, 62
1, 301880, Note_on_c, 0, 70, 82
1, 301923, Note_off_c, 0, 70, 58
1, 301933, Note_on_c, 0, 68, 78
1, 301999, Note_off_c, 0, 68, 62
1, 302005, Note_on_c, 0, 70, 81
1, 302061, Note_off_c, 0, 70, 62
1, 302065, Note_on_c, 0, 68, 85
1, 302120, Note_off_c, 0, 68, 62
1, 302123, Note_on_c, 0, 70, 75
1, 302176, Note_on_c, 0, 68, 85
1, 302179, Note_off_c, 0, 70, 64
1, 302234, Note_off_c, 0, 68, 60
1, 302243, Note_on_c, 0, 70, 66
1, 302290, Note_on_c, 0, 68, 85
1, 302293, Note_off_c, 0, 70, 63
1, 302349, Note_on_c, 0, 70, 72
1, 302350, Note_off_c, 0, 68, 63
1, 302406, Note_on_c, 0, 68, 79
1, 302406, Note_off_c, 0, 70, 65
1, 302463, Note_on_c, 0, 70, 67
1, 302464, Note_off_c, 0, 68, 64
1, 302510, Note_on_c, 0, 68, 77
1, 302511, Note_off_c, 0, 70, 63
1, 302575, Note_on_c, 0, 70, 86
1, 302585, Note_off_c, 0, 68, 64
1, 302655, Note_on_c, 0, 44, 98
1, 302657, Note_on_c, 0, 32, 90
1, 302702, Control_c, 0, 64, 104
1, 302718, Control_c, 0, 64, 75
1, 302724, Note_on_c, 0, 60, 89
1, 302725, Note_on_c, 0, 68, 86
1, 302728, Note_on_c, 0, 66, 88
1, 302733, Control_c, 0, 64, 0
1, 302758, Note_off_c, 0, 70, 59
1, 302801, Note_off_c, 0, 60, 62
1, 302806, Control_c, 0, 64, 66
1, 302823, Control_c, 0, 64, 80
1, 302825, Note_off_c, 0, 32, 64
1, 302838, Control_c, 0, 64, 103
1, 302846, Note_off_c, 0, 44, 64
1, 302852, Control_c, 0, 64, 127
1, 302857, Note_off_c, 0, 66, 64
1, 302859, Note_off_c, 0, 68, 62
1, 303068, Note_on_c, 0, 77, 94
1, 303071, Note_on_c, 0, 65, 95
1, 303071, Note_on_c, 0, 66, 95
1, 303075, Note_on_c, 0, 72, 85
1, 303077, Note_on_c, 0, 54, 80
1, 303080, Note_on_c, 0, 56, 75
1, 303082, Note_on_c, 0, 60, 75
1, 303168, Note_off_c, 0, 77, 60
1, 303190, Note_off_c, 0, 66, 63
1, 303201, Note_off_c, 0, 65, 58
1, 303205, Note_off_c, 0, 54, 53
1, 303207, Note_off_c, 0, 72, 61
1, 303220, Note_off_c, 0, 56, 64
1, 303269, Note_off_c, 0, 60, 33
1, 303358, Note_on_c, 0, 78, 104
1, 303363, Note_on_c, 0, 66, 94
1, 303365, Note_on_c, 0, 63, 98
1, 303366, Note_on_c, 0, 54, 73
1, 303368, Note_on_c, 0, 72, 84
1, 303370, Note_on_c, 0, 60, 79
1, 303372, Note_on_c, 0, 75, 81
1, 303375, Note_on_c, 0, 56, 78
1, 303427, Note_off_c, 0, 63, 63
1, 303446, Note_off_c, 0, 60, 62
1, 303464, Note_off_c, 0, 66, 65
1, 303470, Note_off_c, 0, 56, 65
1, 303473, Note_off_c, 0, 54, 63
1, 303496, Note_off_c, 0, 72, 60
1, 303514, Note_off_c, 0, 78, 60
1, 303524, Note_off_c, 0, 75, 61
1, 303705, Control_c, 0, 64, 113
1, 303719, Control_c, 0, 64, 95
1, 303734, Control_c, 0, 64, 76
1, 303745, Note_on_c, 0, 49, 98
1, 303746, Note_on_c, 0, 37, 88
1, 303746, Note_on_c, 0, 68, 97
1, 303748, Note_on_c, 0, 80, 93
1, 303749, Note_on_c, 0, 78, 88
1, 303749, Control_c, 0, 64, 0
1, 303751, Note_on_c, 0, 71, 81
1, 303756, Note_on_c, 0, 75, 79
1, 303838, Control_c, 0, 64, 36
1, 303852, Control_c, 0, 64, 69
1, 303867, Control_c, 0, 64, 83
1, 303882, Control_c, 0, 64, 100
1, 303897, Control_c, 0, 64, 117
1, 303898, Note_off_c, 0, 37, 64
1, 303905, Note_off_c, 0, 68, 65
1, 303912, Control_c, 0, 64, 127
1, 303930, Note_off_c, 0, 49, 62
1, 303935, Note_off_c, 0, 71, 59
1, 303972, Note_off_c, 0, 80, 60
1, 303973, Note_off_c, 0, 75, 61
1, 303989, Note_off_c, 0, 78, 62
1, 304285, Note_on_c, 0, 87, 97
1, 304287, Note_on_c, 0, 70, 88
1, 304287, Note_on_c, 0, 75, 95
1, 304290, Note_on_c, 0, 78, 95
1, 304293, Note_on_c, 0, 59, 70
1, 304296, Note_on_c, 0, 63, 74
1, 304296, Note_on_c, 0, 66, 81
1, 304376, Note_off_c, 0, 70, 61
1, 304411, Note_off_c, 0, 75, 68
1, 304414, Note_off_c, 0, 66, 62
1, 304427, Note_off_c, 0, 63, 61
1, 304437, Poly_aftertouch_c, 0, 83, 0
1, 304452, Note_off_c, 0, 87, 62
1, 304454, Note_off_c, 0, 59, 62
1, 304479, Note_off_c, 0, 78, 59
1, 304963, Control_c, 0, 64, 119
1, 304967, Note_on_c, 0, 77, 91
1, 304974, Note_on_c, 0, 73, 80
1, 304976, Note_on_c, 0, 65, 85
1, 304977, Note_on_c, 0, 71, 79
1, 304978, Control_c, 0, 64, 106
1, 304980, Note_on_c, 0, 61, 78
1, 304983, Note_on_c, 0, 49, 67
1, 304989, Note_on_c, 0, 56, 62
1, 304992, Control_c, 0, 64, 94
1, 305007, Control_c, 0, 64, 81
1, 305022, Control_c, 0, 64, 68
1, 305037, Control_c, 0, 64, 0
1, 305111, Control_c, 0, 64, 30
1, 305126, Control_c, 0, 64, 65
1, 305140, Control_c, 0, 64, 75
1, 305146, Note_off_c, 0, 61, 62
1, 305155, Control_c, 0, 64, 84
1, 305170, Control_c, 0, 64, 93
1, 305173, Note_off_c, 0, 56, 57
1, 305185, Control_c, 0, 64, 98
1, 305199, Control_c, 0, 64, 101
1, 305205, Note_off_c, 0, 65, 63
1, 305216, Control_c, 0, 64, 102
1, 305227, Note_off_c, 0, 49, 60
1, 305231, Control_c, 0, 64, 102
1, 305233, Note_off_c, 0, 77, 59
1, 305245, Control_c, 0, 64, 103
1, 305254, Note_off_c, 0, 71, 57
1, 305453, Control_c, 0, 64, 102
1, 305459, Note_on_c, 0, 30, 72
1, 305462, Note_on_c, 0, 42, 74
1, 305467, Control_c, 0, 64, 102
1, 305482, Control_c, 0, 64, 101
1, 305497, Control_c, 0, 64, 100
1, 305512, Note_on_c, 0, 78, 92
1, 305512, Control_c, 0, 64, 98
1, 305518, Note_on_c, 0, 66, 86
1, 305521, Note_on_c, 0, 70, 79
1, 305527, Control_c, 0, 64, 94
1, 305542, Control_c, 0, 64, 89
1, 305552, Note_off_c, 0, 73, 60
1, 305557, Control_c, 0, 64, 81
1, 305571, Control_c, 0, 64, 72
1, 305586, Control_c, 0, 64, 58
1, 305601, Control_c, 0, 64, 0
1, 305727, Control_c, 0, 64, 65
1, 305742, Control_c, 0, 64, 72
1, 305757, Control_c, 0, 64, 79
1, 305772, Control_c, 0, 64, 86
1, 305772, Note_off_c, 0, 30, 63
1, 305786, Control_c, 0, 64, 92
1, 305801, Control_c, 0, 64, 98
1, 305813, Note_off_c, 0, 42, 62
1, 305816, Control_c, 0, 64, 103
1, 305831, Control_c, 0, 64, 108
1, 305846, Control_c, 0, 64, 111
1, 305861, Control_c, 0, 64, 113
1, 305876, Control_c, 0, 64, 115
1, 305890, Control_c, 0, 64, 116
1, 305905, Control_c, 0, 64, 117
1, 305920, Control_c, 0, 64, 118
1, 305935, Control_c, 0, 64, 118
1, 305950, Control_c, 0, 64, 119
1, 305964, Control_c, 0, 64, 120
1, 305979, Control_c, 0, 64, 121
1, 305994, Control_c, 0, 64, 122
1, 306025, Control_c, 0, 64, 123
1, 306061, Note_on_c, 0, 49, 71
1, 306186, Note_off_c, 0, 78, 55
1, 306242, Note_off_c, 0, 66, 60
1, 306289, Note_off_c, 0, 70, 50
1, 306299, Note_on_c, 0, 61, 76
1, 306306, Note_off_c, 0, 49, 56
1, 306311, Note_on_c, 0, 54, 65
1, 306379, Note_off_c, 0, 61, 54
1, 306427, Note_off_c, 0, 54, 49
1, 306496, Note_on_c, 0, 78, 86
1, 306509, Note_on_c, 0, 66, 83
1, 306517, Note_on_c, 0, 61, 71
1, 306521, Note_on_c, 0, 54, 51
1, 306525, Note_on_c, 0, 70, 81
1, 306604, Note_off_c, 0, 61, 61
1, 306609, Note_off_c, 0, 78, 61
1, 306615, Note_off_c, 0, 66, 61
1, 306719, Note_on_c, 0, 71, 93
1, 306731, Note_on_c, 0, 49, 74
1, 306746, Note_off_c, 0, 54, 60
1, 306748, Note_off_c, 0, 70, 64
1, 306848, Control_c, 0, 64, 123
1, 306916, Note_on_c, 0, 72, 93
1, 306928, Note_on_c, 0, 42, 71
1, 306935, Note_off_c, 0, 49, 60
1, 306942, Note_off_c, 0, 71, 63
1, 306966, Note_off_c, 0, 42, 64
1, 306972, Note_off_c, 0, 72, 65
1, 307055, Control_c, 0, 64, 123
1, 307084, Control_c, 0, 64, 122
1, 307099, Control_c, 0, 64, 121
1, 307114, Control_c, 0, 64, 120
1, 307129, Control_c, 0, 64, 118
1, 307143, Control_c, 0, 64, 116
1, 307158, Control_c, 0, 64, 113
1, 307164, Note_on_c, 0, 30, 74
1, 307165, Note_on_c, 0, 42, 72
1, 307173, Control_c, 0, 64, 109
1, 307195, Control_c, 0, 64, 105
1, 307210, Control_c, 0, 64, 100
1, 307225, Control_c, 0, 64, 95
1, 307240, Control_c, 0, 64, 87
1, 307247, Note_on_c, 0, 78, 89
1, 307250, Note_on_c, 0, 73, 82
1, 307255, Control_c, 0, 64, 77
1, 307260, Note_on_c, 0, 68, 76
1, 307269, Control_c, 0, 64, 65
1, 307284, Control_c, 0, 64, 0
1, 307358, Control_c, 0, 64, 39
1, 307373, Control_c, 0, 64, 66
1, 307381, Note_off_c, 0, 30, 63
1, 307388, Control_c, 0, 64, 74
1, 307402, Control_c, 0, 64, 83
1, 307405, Note_off_c, 0, 42, 63
1, 307417, Control_c, 0, 64, 91
1, 307432, Control_c, 0, 64, 97
1, 307440, Note_off_c, 0, 73, 61
1, 307447, Control_c, 0, 64, 101
1, 307462, Control_c, 0, 64, 103
1, 307477, Control_c, 0, 64, 105
1, 307491, Control_c, 0, 64, 105
1, 307506, Control_c, 0, 64, 106
1, 307529, Note_off_c, 0, 78, 63
1, 307560, Note_off_c, 0, 68, 0
1, 307564, Note_on_c, 0, 77, 85
1, 307566, Note_on_c, 0, 73, 71
1, 307569, Note_on_c, 0, 49, 67
1, 307596, Poly_aftertouch_c, 0, 68, 127
1, 307626, Control_c, 0, 64, 106
1, 307641, Control_c, 0, 64, 108
1, 307642, Poly_aftertouch_c, 0, 68, 0
1, 307648, Note_off_c, 0, 73, 54
1, 307655, Control_c, 0, 64, 110
1, 307670, Control_c, 0, 64, 113
1, 307679, Note_off_c, 0, 77, 59
1, 307685, Control_c, 0, 64, 117
1, 307700, Control_c, 0, 64, 123
1, 307715, Control_c, 0, 64, 127
1, 307725, Note_on_c, 0, 66, 90
1, 307745, Note_on_c, 0, 61, 61
1, 307752, Note_on_c, 0, 56, 60
1, 307777, Note_off_c, 0, 66, 59
1, 307804, Note_off_c, 0, 61, 58
1, 307807, Note_off_c, 0, 56, 61
1, 307820, Note_on_c, 0, 73, 79
1, 307869, Note_off_c, 0, 73, 63
1, 307900, Note_off_c, 0, 49, 32
1, 307942, Note_on_c, 0, 73, 74
1, 307942, Note_on_c, 0, 66, 85
1, 307951, Note_on_c, 0, 68, 72
1, 307959, Note_on_c, 0, 61, 64
1, 307975, Note_on_c, 0, 56, 46
1, 308000, Note_off_c, 0, 61, 51
1, 308138, Note_off_c, 0, 56, 55
1, 308184, Note_on_c, 0, 49, 67
1, 308192, Note_on_c, 0, 65, 86
1, 308213, Note_off_c, 0, 66, 65
1, 308285, Note_off_c, 0, 68, 58
1, 308390, Note_off_c, 0, 73, 32
1, 308391, Note_on_c, 0, 42, 68
1, 308391, Note_off_c, 0, 49, 58
1, 308410, Note_off_c, 0, 65, 63
1, 308433, Note_off_c, 0, 42, 64
1, 308445, Note_on_c, 0, 61, 89
1, 308478, Control_c, 0, 64, 122
1, 308490, Note_off_c, 0, 61, 62
1, 308493, Control_c, 0, 64, 120
1, 308508, Control_c, 0, 64, 119
1, 308538, Control_c, 0, 64, 119
1, 308568, Control_c, 0, 64, 118
1, 308582, Control_c, 0, 64, 117
1, 308597, Control_c, 0, 64, 117
1, 308612, Control_c, 0, 64, 115
1, 308627, Control_c, 0, 64, 114
1, 308641, Control_c, 0, 64, 112
1, 308656, Control_c, 0, 64, 110
1, 308663, Note_on_c, 0, 76, 81
1, 308671, Control_c, 0, 64, 106
1, 308674, Note_on_c, 0, 68, 73
1, 308675, Note_on_c, 0, 64, 66
1, 308681, Note_on_c, 0, 30, 56
1, 308693, Note_on_c, 0, 42, 55
1, 308693, Control_c, 0, 64, 100
1, 308708, Control_c, 0, 64, 92
1, 308723, Control_c, 0, 64, 81
1, 308738, Control_c, 0, 64, 68
1, 308752, Control_c, 0, 64, 0
1, 308782, Control_c, 0, 64, 35
1, 308797, Control_c, 0, 64, 65
1, 308812, Control_c, 0, 64, 72
1, 308827, Control_c, 0, 64, 79
1, 308828, Note_off_c, 0, 30, 63
1, 308833, Note_off_c, 0, 76, 59
1, 308835, Note_off_c, 0, 42, 63
1, 308841, Control_c, 0, 64, 86
1, 308856, Control_c, 0, 64, 92
1, 308871, Control_c, 0, 64, 98
1, 308886, Control_c, 0, 64, 101
1, 308901, Control_c, 0, 64, 102
1, 308938, Note_on_c, 0, 70, 92
1, 308970, Note_off_c, 0, 68, 64
1, 308973, Note_on_c, 0, 49, 63
1, 308973, Note_off_c, 0, 64, 63
1, 309034, Control_c, 0, 64, 102
1, 309063, Control_c, 0, 64, 103
1, 309113, Note_on_c, 0, 71, 91
1, 309113, Note_off_c, 0, 70, 67
1, 309132, Note_on_c, 0, 56, 68
1, 309136, Note_on_c, 0, 61, 61
1, 309171, Note_off_c, 0, 61, 59
1, 309257, Control_c, 0, 64, 102
1, 309271, Control_c, 0, 64, 97
1, 309276, Note_off_c, 0, 49, 59
1, 309286, Control_c, 0, 64, 87
1, 309289, Note_on_c, 0, 76, 87
1, 309295, Note_off_c, 0, 71, 60
1, 309296, Note_on_c, 0, 70, 81
1, 309298, Note_on_c, 0, 64, 75
1, 309301, Control_c, 0, 64, 73
1, 309313, Note_on_c, 0, 61, 68
1, 309316, Control_c, 0, 64, 56
1, 309322, Note_on_c, 0, 54, 62
1, 309325, Note_off_c, 0, 56, 59
1, 309331, Control_c, 0, 64, 0
1, 309346, Control_c, 0, 64, 46
1, 309361, Control_c, 0, 64, 60
1, 309375, Control_c, 0, 64, 65
1, 309390, Control_c, 0, 64, 70
1, 309405, Control_c, 0, 64, 77
1, 309420, Control_c, 0, 64, 86
1, 309442, Control_c, 0, 64, 94
1, 309457, Control_c, 0, 64, 98
1, 309471, Control_c, 0, 64, 99
1, 309486, Control_c, 0, 64, 100
1, 309493, Note_on_c, 0, 75, 89
1, 309501, Control_c, 0, 64, 101
1, 309505, Note_off_c, 0, 61, 63
1, 309512, Note_on_c, 0, 49, 74
1, 309516, Control_c, 0, 64, 104
1, 309517, Note_off_c, 0, 54, 61
1, 309531, Control_c, 0, 64, 107
1, 309536, Note_off_c, 0, 70, 60
1, 309545, Control_c, 0, 64, 111
1, 309547, Note_off_c, 0, 49, 64
1, 309551, Note_off_c, 0, 76, 60
1, 309560, Control_c, 0, 64, 113
1, 309682, Note_on_c, 0, 73, 87
1, 309685, Note_on_c, 0, 68, 82
1, 309702, Note_on_c, 0, 42, 64
1, 309706, Note_off_c, 0, 64, 64
1, 309724, Note_off_c, 0, 75, 63
1, 309751, Note_off_c, 0, 42, 62
1, 309767, Note_off_c, 0, 73, 61
1, 309782, Control_c, 0, 64, 112
1, 309797, Control_c, 0, 64, 112
1, 309812, Control_c, 0, 64, 111
1, 309827, Control_c, 0, 64, 110
1, 309842, Control_c, 0, 64, 108
1, 309856, Control_c, 0, 64, 107
1, 309871, Control_c, 0, 64, 105
1, 309886, Control_c, 0, 64, 104
1, 309901, Control_c, 0, 64, 102
1, 309915, Note_on_c, 0, 30, 66
1, 309916, Control_c, 0, 64, 98
1, 309923, Note_on_c, 0, 42, 62
1, 309930, Control_c, 0, 64, 93
1, 309945, Control_c, 0, 64, 85
1, 309960, Control_c, 0, 64, 75
1, 309964, Note_off_c, 0, 68, 57
1, 309966, Note_on_c, 0, 76, 83
1, 309975, Control_c, 0, 64, 63
1, 309976, Note_on_c, 0, 73, 69
1, 309978, Note_on_c, 0, 66, 71
1, 309989, Control_c, 0, 64, 0
1, 310065, Control_c, 0, 64, 52
1, 310072, Note_off_c, 0, 30, 63
1, 310079, Control_c, 0, 64, 67
1, 310094, Control_c, 0, 64, 76
1, 310096, Note_off_c, 0, 42, 64
1, 310109, Control_c, 0, 64, 87
1, 310117, Note_off_c, 0, 73, 58
1, 310124, Control_c, 0, 64, 94
1, 310139, Control_c, 0, 64, 98
1, 310154, Control_c, 0, 64, 99
1, 310168, Control_c, 0, 64, 100
1, 310206, Control_c, 0, 64, 101
1, 310255, Note_on_c, 0, 75, 77
1, 310271, Note_on_c, 0, 71, 64
1, 310284, Note_off_c, 0, 66, 56
1, 310287, Note_off_c, 0, 76, 64
1, 310310, Note_on_c, 0, 51, 56
1, 310366, Note_off_c, 0, 71, 52
1, 310377, Note_off_c, 0, 75, 63
1, 310430, Note_on_c, 0, 64, 77
1, 310443, Control_c, 0, 64, 100
1, 310457, Control_c, 0, 64, 100
1, 310459, Note_on_c, 0, 59, 47
1, 310472, Note_on_c, 0, 54, 52
1, 310472, Control_c, 0, 64, 99
1, 310498, Note_off_c, 0, 59, 46
1, 310502, Control_c, 0, 64, 99
1, 310514, Note_off_c, 0, 54, 57
1, 310517, Control_c, 0, 64, 98
1, 310526, Note_on_c, 0, 71, 64
1, 310526, Note_off_c, 0, 64, 61
1, 310557, Note_off_c, 0, 71, 61
1, 310561, Control_c, 0, 64, 98
1, 310591, Control_c, 0, 64, 97
1, 310641, Note_on_c, 0, 71, 70
1, 310645, Note_on_c, 0, 64, 69
1, 310647, Note_on_c, 0, 66, 72
1, 310656, Note_off_c, 0, 51, 58
1, 310661, Note_on_c, 0, 59, 49
1, 310663, Note_on_c, 0, 54, 48
1, 310665, Control_c, 0, 64, 97
1, 310797, Note_off_c, 0, 59, 47
1, 310867, Note_on_c, 0, 63, 76
1, 310873, Note_off_c, 0, 64, 63
1, 310887, Note_on_c, 0, 51, 60
1, 310902, Note_off_c, 0, 66, 64
1, 310954, Note_off_c, 0, 54, 35
1, 311068, Note_on_c, 0, 42, 64
1, 311068, Note_off_c, 0, 51, 35
1, 311104, Note_off_c, 0, 63, 60
1, 311108, Note_off_c, 0, 42, 63
1, 311131, Note_off_c, 0, 71, 35
1, 311137, Note_on_c, 0, 59, 77
1, 311161, Note_off_c, 0, 59, 65
1, 311162, Control_c, 0, 64, 96
1, 311206, Control_c, 0, 64, 96
1, 311236, Control_c, 0, 64, 95
1, 311250, Control_c, 0, 64, 94
1, 311258, Note_on_c, 0, 59, 71
1, 311265, Control_c, 0, 64, 91
1, 311280, Control_c, 0, 64, 87
1, 311295, Note_on_c, 0, 68, 59
1, 311295, Control_c, 0, 64, 81
1, 311303, Note_off_c, 0, 59, 63
1, 311310, Control_c, 0, 64, 72
1, 311314, Note_on_c, 0, 67, 77
1, 311316, Note_off_c, 0, 68, 61
1, 311325, Control_c, 0, 64, 53
1, 311340, Control_c, 0, 64, 0
1, 311367, Note_on_c, 0, 74, 75
1, 311371, Note_on_c, 0, 42, 44
1, 311377, Note_on_c, 0, 30, 47
1, 311399, Control_c, 0, 64, 49
1, 311414, Control_c, 0, 64, 65
1, 311428, Control_c, 0, 64, 70
1, 311443, Control_c, 0, 64, 75
1, 311456, Note_off_c, 0, 30, 62
1, 311458, Control_c, 0, 64, 80
1, 311473, Control_c, 0, 64, 82
1, 311481, Note_off_c, 0, 42, 62
1, 311488, Control_c, 0, 64, 84
1, 311502, Control_c, 0, 64, 84
1, 311517, Control_c, 0, 64, 85
1, 311537, Note_off_c, 0, 74, 44
1, 311547, Control_c, 0, 64, 85
1, 311576, Control_c, 0, 64, 86
1, 311608, Note_on_c, 0, 61, 77
1, 311626, Note_on_c, 0, 50, 61
1, 311718, Note_off_c, 0, 61, 60
1, 311733, Control_c, 0, 64, 86
1, 311810, Note_on_c, 0, 62, 74
1, 311818, Note_on_c, 0, 55, 61
1, 311822, Note_on_c, 0, 59, 54
1, 311846, Note_off_c, 0, 62, 59
1, 311853, Note_off_c, 0, 59, 55
1, 311859, Note_off_c, 0, 55, 64
1, 311862, Note_off_c, 0, 67, 52
1, 311881, Control_c, 0, 64, 86
1, 311926, Control_c, 0, 64, 85
1, 311932, Note_off_c, 0, 50, 21
1, 311940, Control_c, 0, 64, 85
1, 311955, Control_c, 0, 64, 84
1, 311970, Control_c, 0, 64, 81
1, 311984, Control_c, 0, 64, 74
1, 311999, Control_c, 0, 64, 65
1, 312014, Control_c, 0, 64, 0
1, 312019, Note_on_c, 0, 74, 64
1, 312025, Note_on_c, 0, 62, 64
1, 312036, Note_on_c, 0, 71, 57
1, 312037, Note_on_c, 0, 59, 53
1, 312038, Note_on_c, 0, 55, 49
1, 312088, Control_c, 0, 64, 29
1, 312103, Control_c, 0, 64, 62
1, 312118, Control_c, 0, 64, 70
1, 312133, Control_c, 0, 64, 76
1, 312148, Control_c, 0, 64, 82
1, 312163, Control_c, 0, 64, 87
1, 312177, Note_off_c, 0, 59, 52
1, 312177, Control_c, 0, 64, 90
1, 312192, Control_c, 0, 64, 94
1, 312207, Control_c, 0, 64, 98
1, 312222, Control_c, 0, 64, 102
1, 312229, Note_on_c, 0, 67, 73
1, 312231, Note_off_c, 0, 55, 62
1, 312236, Note_on_c, 0, 50, 60
1, 312236, Note_off_c, 0, 62, 57
1, 312237, Control_c, 0, 64, 105
1, 312240, Note_off_c, 0, 74, 60
1, 312251, Control_c, 0, 64, 106
1, 312257, Note_off_c, 0, 50, 61
1, 312266, Control_c, 0, 64, 107
1, 312279, Note_off_c, 0, 71, 47
1, 312281, Control_c, 0, 64, 108
1, 312296, Control_c, 0, 64, 109
1, 312311, Control_c, 0, 64, 109
1, 312325, Control_c, 0, 64, 110
1, 312423, Note_on_c, 0, 59, 71
1, 312426, Note_off_c, 0, 67, 33
1, 312450, Note_on_c, 0, 42, 54
1, 312465, Note_off_c, 0, 59, 58
1, 312482, Control_c, 0, 64, 110
1, 312491, Note_off_c, 0, 42, 62
1, 312496, Control_c, 0, 64, 109
1, 312511, Control_c, 0, 64, 108
1, 312526, Control_c, 0, 64, 107
1, 312541, Control_c, 0, 64, 106
1, 312556, Control_c, 0, 64, 105
1, 312571, Control_c, 0, 64, 104
1, 312586, Control_c, 0, 64, 103
1, 312601, Control_c, 0, 64, 101
1, 312615, Control_c, 0, 64, 99
1, 312630, Control_c, 0, 64, 97
1, 312645, Control_c, 0, 64, 94
1, 312660, Control_c, 0, 64, 90
1, 312675, Control_c, 0, 64, 84
1, 312687, Note_on_c, 0, 74, 56
1, 312689, Control_c, 0, 64, 75
1, 312693, Note_on_c, 0, 62, 60
1, 312696, Note_on_c, 0, 71, 58
1, 312704, Control_c, 0, 64, 64
1, 312705, Note_on_c, 0, 42, 48
1, 312705, Note_on_c, 0, 30, 45
1, 312719, Control_c, 0, 64, 0
1, 312772, Note_off_c, 0, 62, 61
1, 312773, Note_off_c, 0, 74, 63
1, 312778, Control_c, 0, 64, 45
1, 312793, Control_c, 0, 64, 64
1, 312800, Note_off_c, 0, 30, 61
1, 312807, Control_c, 0, 64, 70
1, 312822, Control_c, 0, 64, 76
1, 312829, Note_off_c, 0, 42, 63
1, 312837, Control_c, 0, 64, 82
1, 312852, Control_c, 0, 64, 86
1, 312867, Control_c, 0, 64, 89
1, 312881, Control_c, 0, 64, 90
1, 312896, Control_c, 0, 64, 90
1, 312969, Note_off_c, 0, 71, 59
1, 312975, Note_on_c, 0, 70, 72
1, 312988, Note_on_c, 0, 61, 59
1, 312996, Note_on_c, 0, 50, 49
1, 313055, Note_off_c, 0, 61, 41
1, 313163, Control_c, 0, 64, 90
1, 313206, Note_off_c, 0, 70, 37
1, 313209, Note_on_c, 0, 69, 74
1, 313216, Control_c, 0, 64, 89
1, 313218, Note_on_c, 0, 62, 65
1, 313229, Note_on_c, 0, 55, 47
1, 313245, Control_c, 0, 64, 89
1, 313263, Note_off_c, 0, 69, 65
1, 313271, Note_off_c, 0, 55, 60
1, 313271, Note_off_c, 0, 62, 52
1, 313275, Control_c, 0, 64, 88
1, 313290, Control_c, 0, 64, 88
1, 313304, Control_c, 0, 64, 87
1, 313319, Control_c, 0, 64, 87
1, 313334, Control_c, 0, 64, 86
1, 313349, Control_c, 0, 64, 86
1, 313364, Control_c, 0, 64, 85
1, 313379, Control_c, 0, 64, 84
1, 313394, Control_c, 0, 64, 84
1, 313409, Control_c, 0, 64, 83
1, 313423, Control_c, 0, 64, 82
1, 313438, Control_c, 0, 64, 80
1, 313453, Control_c, 0, 64, 76
1, 313458, Note_on_c, 0, 67, 66
1, 313468, Control_c, 0, 64, 68
1, 313478, Note_on_c, 0, 59, 48
1, 313483, Control_c, 0, 64, 49
1, 313493, Note_on_c, 0, 62, 39
1, 313498, Control_c, 0, 64, 0
1, 313499, Note_on_c, 0, 55, 29
1, 313532, Note_off_c, 0, 50, 34
1, 313586, Control_c, 0, 64, 56
1, 313601, Control_c, 0, 64, 66
1, 313616, Control_c, 0, 64, 71
1, 313630, Control_c, 0, 64, 75
1, 313645, Control_c, 0, 64, 79
1, 313653, Note_off_c, 0, 62, 49
1, 313660, Control_c, 0, 64, 82
1, 313674, Note_off_c, 0, 59, 51
1, 313675, Control_c, 0, 64, 84
1, 313690, Control_c, 0, 64, 85
1, 313699, Note_off_c, 0, 67, 48
1, 313704, Control_c, 0, 64, 86
1, 313710, Note_on_c, 0, 66, 65
1, 313715, Note_off_c, 0, 55, 43
1, 313719, Control_c, 0, 64, 88
1, 313722, Note_on_c, 0, 57, 53
1, 313734, Control_c, 0, 64, 89
1, 313739, Note_on_c, 0, 50, 46
1, 313748, Control_c, 0, 64, 90
1, 313763, Control_c, 0, 64, 92
1, 313778, Control_c, 0, 64, 93
1, 313781, Note_off_c, 0, 57, 54
1, 313793, Control_c, 0, 64, 95
1, 313808, Control_c, 0, 64, 95
1, 313936, Note_off_c, 0, 66, 38
1, 313993, Note_on_c, 0, 65, 64
1, 314019, Note_on_c, 0, 59, 40
1, 314044, Note_off_c, 0, 59, 59
1, 314059, Poly_aftertouch_c, 0, 55, 127
1, 314082, Note_off_c, 0, 50, 53
1, 314084, Note_off_c, 0, 65, 55
1, 314093, Poly_aftertouch_c, 0, 55, 0
1, 314113, Control_c, 0, 64, 95
1, 314125, Note_on_c, 0, 54, 67
1, 314127, Control_c, 0, 64, 94
1, 314142, Control_c, 0, 64, 93
1, 314157, Control_c, 0, 64, 93
1, 314172, Control_c, 0, 64, 92
1, 314187, Control_c, 0, 64, 92
1, 314202, Control_c, 0, 64, 91
1, 314216, Control_c, 0, 64, 91
1, 314231, Control_c, 0, 64, 90
1, 314246, Control_c, 0, 64, 89
1, 314255, Note_off_c, 0, 54, 56
1, 314261, Control_c, 0, 64, 88
1, 314276, Control_c, 0, 64, 86
1, 314291, Control_c, 0, 64, 84
1, 314293, Note_on_c, 0, 66, 66
1, 314306, Control_c, 0, 64, 79
1, 314321, Control_c, 0, 64, 70
1, 314322, Note_on_c, 0, 30, 41
1, 314324, Note_on_c, 0, 42, 40
1, 314335, Control_c, 0, 64, 50
1, 314350, Control_c, 0, 64, 0
1, 314408, Note_off_c, 0, 66, 63
1, 314409, Control_c, 0, 64, 57
1, 314424, Control_c, 0, 64, 68
1, 314428, Note_on_c, 0, 68, 56
1, 314439, Control_c, 0, 64, 73
1, 314453, Control_c, 0, 64, 79
1, 314468, Control_c, 0, 64, 83
1, 314470, Note_off_c, 0, 68, 61
1, 314476, Note_off_c, 0, 30, 57
1, 314483, Control_c, 0, 64, 87
1, 314497, Note_off_c, 0, 42, 63
1, 314498, Control_c, 0, 64, 89
1, 314513, Note_on_c, 0, 66, 67
1, 314513, Control_c, 0, 64, 91
1, 314527, Control_c, 0, 64, 92
1, 314542, Control_c, 0, 64, 92
1, 314550, Note_off_c, 0, 66, 60
1, 314573, Note_on_c, 0, 68, 75
1, 314603, Note_off_c, 0, 68, 60
1, 314616, Control_c, 0, 64, 93
1, 314633, Note_on_c, 0, 66, 79
1, 314636, Note_on_c, 0, 49, 59
1, 314699, Note_off_c, 0, 66, 64
1, 314702, Note_on_c, 0, 68, 81
1, 314741, Note_off_c, 0, 68, 62
1, 314756, Note_on_c, 0, 66, 66
1, 314795, Note_on_c, 0, 68, 74
1, 314795, Note_off_c, 0, 66, 67
1, 314801, Control_c, 0, 64, 92
1, 314817, Control_c, 0, 64, 92
1, 314835, Note_off_c, 0, 68, 64
1, 314847, Control_c, 0, 64, 91
1, 314849, Note_on_c, 0, 58, 76
1, 314860, Note_on_c, 0, 66, 77
1, 314862, Control_c, 0, 64, 91
1, 314891, Control_c, 0, 64, 90
1, 314908, Note_on_c, 0, 65, 82
1, 314908, Note_off_c, 0, 66, 64
1, 314923, Note_off_c, 0, 58, 56
1, 314959, Note_off_c, 0, 65, 59
1, 314975, Note_on_c, 0, 66, 85
1, 315006, Note_off_c, 0, 49, 58
1, 315009, Control_c, 0, 64, 90
1, 315024, Note_off_c, 0, 66, 66
1, 315024, Control_c, 0, 64, 88
1, 315039, Control_c, 0, 64, 81
1, 315044, Note_on_c, 0, 67, 82
1, 315046, Note_on_c, 0, 60, 87
1, 315048, Note_on_c, 0, 51, 74
1, 315054, Control_c, 0, 64, 70
1, 315069, Control_c, 0, 64, 0
1, 315098, Note_off_c, 0, 67, 61
1, 315105, Note_on_c, 0, 68, 80
1, 315129, Control_c, 0, 64, 63
1, 315143, Control_c, 0, 64, 70
1, 315158, Control_c, 0, 64, 78
1, 315161, Note_off_c, 0, 68, 65
1, 315165, Note_on_c, 0, 70, 81
1, 315173, Control_c, 0, 64, 85
1, 315188, Note_off_c, 0, 60, 53
1, 315188, Control_c, 0, 64, 95
1, 315202, Control_c, 0, 64, 103
1, 315217, Control_c, 0, 64, 112
1, 315220, Note_off_c, 0, 70, 62
1, 315227, Note_on_c, 0, 68, 84
1, 315232, Control_c, 0, 64, 122
1, 315247, Control_c, 0, 64, 127
1, 315248, Note_on_c, 0, 56, 80
1, 315273, Note_off_c, 0, 51, 63
1, 315277, Note_off_c, 0, 56, 67
1, 315294, Note_on_c, 0, 70, 82
1, 315295, Note_off_c, 0, 68, 62
1, 315345, Note_off_c, 0, 70, 61
1, 315350, Note_on_c, 0, 68, 79
1, 315391, Note_off_c, 0, 68, 62
1, 315402, Note_on_c, 0, 70, 81
1, 315406, Note_on_c, 0, 42, 76
1, 315451, Note_off_c, 0, 42, 65
1, 315458, Note_off_c, 0, 70, 67
1, 315476, Note_on_c, 0, 68, 88
1, 315528, Note_on_c, 0, 67, 94
1, 315540, Note_off_c, 0, 68, 62
1, 315587, Note_off_c, 0, 67, 60
1, 315614, Note_on_c, 0, 69, 75
1, 315626, Note_on_c, 0, 68, 10
1, 315632, Note_on_c, 0, 60, 98
1, 315635, Note_on_c, 0, 50, 86
1, 315641, Control_c, 0, 64, 113
1, 315646, Note_off_c, 0, 69, 0
1, 315650, Note_on_c, 0, 70, 23
1, 315656, Control_c, 0, 64, 89
1, 315665, Note_off_c, 0, 68, 53
1, 315671, Control_c, 0, 64, 68
1, 315683, Poly_aftertouch_c, 0, 69, 127
1, 315686, Note_off_c, 0, 70, 45
1, 315686, Control_c, 0, 64, 0
1, 315713, Poly_aftertouch_c, 0, 69, 0
1, 315729, Note_on_c, 0, 71, 82
1, 315745, Control_c, 0, 64, 34
1, 315760, Control_c, 0, 64, 67
1, 315775, Control_c, 0, 64, 76
1, 315781, Note_off_c, 0, 71, 61
1, 315789, Control_c, 0, 64, 86
1, 315793, Note_on_c, 0, 69, 93
1, 315804, Control_c, 0, 64, 94
1, 315819, Control_c, 0, 64, 99
1, 315833, Control_c, 0, 64, 101
1, 315848, Control_c, 0, 64, 102
1, 315849, Note_on_c, 0, 71, 85
1, 315850, Note_off_c, 0, 69, 63
1, 315861, Note_on_c, 0, 54, 88
1, 315863, Control_c, 0, 64, 103
1, 315878, Control_c, 0, 64, 104
1, 315895, Note_off_c, 0, 50, 61
1, 315900, Note_off_c, 0, 71, 62
1, 315907, Note_off_c, 0, 60, 58
1, 315908, Note_on_c, 0, 69, 87
1, 315963, Note_on_c, 0, 71, 82
1, 315969, Note_off_c, 0, 69, 64
1, 316019, Note_off_c, 0, 71, 59
1, 316020, Note_on_c, 0, 69, 87
1, 316058, Note_off_c, 0, 54, 57
1, 316068, Note_on_c, 0, 50, 87
1, 316068, Note_on_c, 0, 60, 94
1, 316124, Note_off_c, 0, 60, 62
1, 316130, Note_off_c, 0, 50, 62
1, 316151, Note_on_c, 0, 68, 89
1, 316166, Note_off_c, 0, 69, 57
1, 316226, Control_c, 0, 64, 104
1, 316229, Note_on_c, 0, 69, 89
1, 316237, Note_off_c, 0, 68, 62
1, 316240, Control_c, 0, 64, 105
1, 316255, Control_c, 0, 64, 105
1, 316270, Control_c, 0, 64, 106
1, 316285, Control_c, 0, 64, 107
1, 316287, Note_off_c, 0, 69, 68
1, 316321, Note_on_c, 0, 70, 90
1, 316322, Note_on_c, 0, 65, 85
1, 316339, Note_on_c, 0, 61, 100
1, 316343, Note_on_c, 0, 49, 90
1, 316345, Control_c, 0, 64, 101
1, 316359, Control_c, 0, 64, 85
1, 316374, Control_c, 0, 64, 63
1, 316389, Control_c, 0, 64, 0
1, 316391, Poly_aftertouch_c, 0, 58, 0
1, 316396, Note_on_c, 0, 58, 2
1, 316397, Note_off_c, 0, 58, 127
1, 316422, Note_off_c, 0, 70, 60
1, 316429, Note_on_c, 0, 72, 82
1, 316449, Control_c, 0, 64, 45
1, 316464, Control_c, 0, 64, 69
1, 316479, Control_c, 0, 64, 80
1, 316494, Control_c, 0, 64, 94
1, 316509, Control_c, 0, 64, 108
1, 316509, Note_on_c, 0, 70, 87
1, 316509, Note_off_c, 0, 72, 62
1, 316523, Control_c, 0, 64, 120
1, 316538, Control_c, 0, 64, 125
1, 316553, Control_c, 0, 64, 127
1, 316560, Note_off_c, 0, 65, 54
1, 316570, Note_on_c, 0, 72, 80
1, 316571, Note_off_c, 0, 70, 62
1, 316576, Note_off_c, 0, 61, 51
1, 316601, Note_on_c, 0, 58, 97
1, 316611, Note_on_c, 0, 53, 79
1, 316636, Note_off_c, 0, 72, 63
1, 316642, Note_off_c, 0, 49, 60
1, 316643, Note_on_c, 0, 70, 82
1, 316710, Note_on_c, 0, 72, 81
1, 316711, Note_off_c, 0, 70, 63
1, 316770, Note_off_c, 0, 72, 62
1, 316771, Note_on_c, 0, 70, 81
1, 316837, Note_off_c, 0, 70, 60
1, 316844, Note_on_c, 0, 72, 67
1, 316872, Note_off_c, 0, 72, 68
1, 316878, Note_off_c, 0, 53, 62
1, 316882, Note_on_c, 0, 70, 75
1, 316884, Note_off_c, 0, 58, 61
1, 316912, Note_on_c, 0, 61, 97
1, 316918, Note_on_c, 0, 49, 86
1, 316929, Note_on_c, 0, 72, 72
1, 316940, Note_off_c, 0, 70, 64
1, 316954, Note_on_c, 0, 58, 15
1, 316974, Note_off_c, 0, 61, 66
1, 316993, Note_off_c, 0, 58, 38
1, 316996, Note_off_c, 0, 72, 63
1, 317001, Note_on_c, 0, 70, 80
1, 317021, Note_off_c, 0, 49, 59
1, 317048, Note_on_c, 0, 69, 82
1, 317065, Note_off_c, 0, 70, 64
1, 317082, Note_off_c, 0, 69, 63
1, 317126, Note_on_c, 0, 70, 70
1, 317152, Note_off_c, 0, 70, 66
1, 317202, Note_on_c, 0, 63, 85
1, 317234, Poly_aftertouch_c, 0, 74, 0
1, 317251, Note_on_c, 0, 68, 87
1, 317289, Note_off_c, 0, 63, 60
1, 317302, Note_on_c, 0, 72, 74
1, 317345, Note_off_c, 0, 68, 63
1, 317365, Note_on_c, 0, 42, 102
1, 317368, Note_on_c, 0, 30, 93
1, 317390, Control_c, 0, 64, 115
1, 317404, Control_c, 0, 64, 95
1, 317419, Control_c, 0, 64, 75
1, 317434, Control_c, 0, 64, 0
1, 317460, Note_on_c, 0, 80, 96
1, 317475, Note_off_c, 0, 72, 64
1, 317508, Control_c, 0, 64, 54
1, 317523, Control_c, 0, 64, 69
1, 317538, Control_c, 0, 64, 79
1, 317552, Control_c, 0, 64, 90
1, 317553, Note_off_c, 0, 30, 63
1, 317567, Control_c, 0, 64, 101
1, 317580, Note_off_c, 0, 42, 63
1, 317582, Control_c, 0, 64, 112
1, 317597, Control_c, 0, 64, 118
1, 317612, Control_c, 0, 64, 121
1, 317627, Control_c, 0, 64, 123
1, 317641, Control_c, 0, 64, 125
1, 317656, Control_c, 0, 64, 126
1, 317730, Note_on_c, 0, 75, 92
1, 317734, Note_on_c, 0, 51, 79
1, 317885, Note_off_c, 0, 80, 61
1, 317891, Note_off_c, 0, 75, 61
1, 317905, Note_on_c, 0, 68, 93
1, 317907, Note_on_c, 0, 63, 84
1, 317909, Note_on_c, 0, 60, 83
1, 317912, Note_on_c, 0, 56, 74
1, 317928, Note_off_c, 0, 51, 60
1, 317944, Control_c, 0, 64, 125
1, 317952, Note_off_c, 0, 63, 63
1, 317959, Control_c, 0, 64, 125
1, 317962, Note_off_c, 0, 60, 60
1, 317992, Note_off_c, 0, 56, 62
1, 318030, Note_off_c, 0, 68, 32
1, 318086, Note_on_c, 0, 68, 77
1, 318086, Note_on_c, 0, 80, 94
1, 318093, Note_on_c, 0, 72, 79
1, 318095, Note_on_c, 0, 63, 89
1, 318097, Note_on_c, 0, 60, 77
1, 318100, Note_on_c, 0, 75, 86
1, 318104, Note_on_c, 0, 56, 75
1, 318177, Note_off_c, 0, 72, 63
1, 318212, Note_off_c, 0, 80, 61
1, 318212, Control_c, 0, 64, 126
1, 318226, Control_c, 0, 64, 127
1, 318264, Note_off_c, 0, 63, 61
1, 318269, Note_on_c, 0, 76, 92
1, 318278, Note_off_c, 0, 56, 61
1, 318279, Note_off_c, 0, 60, 60
1, 318279, Note_on_c, 0, 73, 83
1, 318282, Note_on_c, 0, 51, 75
1, 318300, Note_off_c, 0, 75, 58
1, 318306, Note_off_c, 0, 68, 64
1, 318315, Note_off_c, 0, 51, 63
1, 318431, Note_off_c, 0, 76, 56
1, 318461, Note_on_c, 0, 68, 93
1, 318464, Note_on_c, 0, 78, 96
1, 318470, Note_on_c, 0, 44, 67
1, 318476, Note_on_c, 0, 75, 78
1, 318490, Note_on_c, 0, 42, 72
1, 318492, Note_on_c, 0, 76, 6
1, 318492, Note_off_c, 0, 73, 63
1, 318493, Note_off_c, 0, 44, 62
1, 318520, Note_off_c, 0, 42, 65
1, 318529, Note_off_c, 0, 68, 59
1, 318542, Note_off_c, 0, 75, 60
1, 318544, Note_off_c, 0, 76, 34
1, 318563, Note_off_c, 0, 78, 63
1, 318694, Note_on_c, 0, 42, 63
1, 318703, Note_on_c, 0, 30, 86
1, 318708, Control_c, 0, 64, 119
1, 318723, Control_c, 0, 64, 109
1, 318738, Control_c, 0, 64, 99
1, 318752, Control_c, 0, 64, 87
1, 318767, Control_c, 0, 64, 72
1, 318774, Note_on_c, 0, 81, 97
1, 318780, Note_on_c, 0, 69, 93
1, 318780, Note_on_c, 0, 72, 64
1, 318780, Note_on_c, 0, 78, 78
1, 318782, Control_c, 0, 64, 33
1, 318789, Note_on_c, 0, 75, 64
1, 318798, Control_c, 0, 64, 0
1, 318846, Note_off_c, 0, 30, 64
1, 318857, Control_c, 0, 64, 60
1, 318872, Note_off_c, 0, 42, 63
1, 318872, Control_c, 0, 64, 71
1, 318887, Control_c, 0, 64, 82
1, 318902, Control_c, 0, 64, 93
1, 318904, Note_off_c, 0, 81, 61
1, 318914, Note_off_c, 0, 78, 64
1, 318916, Control_c, 0, 64, 102
1, 318931, Control_c, 0, 64, 106
1, 318946, Control_c, 0, 64, 107
1, 318949, Note_off_c, 0, 75, 63
1, 318961, Control_c, 0, 64, 108
1, 318975, Control_c, 0, 64, 109
1, 318990, Control_c, 0, 64, 110
1, 319048, Note_off_c, 0, 69, 62
1, 319050, Note_off_c, 0, 72, 55
1, 319064, Note_on_c, 0, 52, 82
1, 319069, Note_on_c, 0, 80, 91
1, 319074, Note_on_c, 0, 76, 78
1, 319094, Control_c, 0, 64, 111
1, 319123, Control_c, 0, 64, 111
1, 319190, Control_c, 0, 64, 112
1, 319213, Note_off_c, 0, 80, 62
1, 319223, Note_off_c, 0, 76, 56
1, 319227, Note_on_c, 0, 68, 93
1, 319233, Note_on_c, 0, 73, 73
1, 319234, Note_on_c, 0, 61, 76
1, 319236, Note_on_c, 0, 64, 75
1, 319238, Note_on_c, 0, 56, 74
1, 319249, Control_c, 0, 64, 111
1, 319262, Note_off_c, 0, 64, 67
1, 319266, Note_off_c, 0, 73, 61
1, 319272, Note_off_c, 0, 61, 57
1, 319275, Note_off_c, 0, 68, 64
1, 319293, Note_off_c, 0, 56, 61
1, 319318, Note_on_c, 0, 76, 85
1, 319338, Control_c, 0, 64, 111
1, 319360, Note_off_c, 0, 76, 66
1, 319415, Note_on_c, 0, 76, 79
1, 319422, Note_on_c, 0, 69, 92
1, 319428, Note_on_c, 0, 64, 73
1, 319429, Note_on_c, 0, 73, 76
1, 319430, Note_on_c, 0, 61, 70
1, 319435, Note_on_c, 0, 56, 62
1, 319461, Note_off_c, 0, 52, 53
1, 319516, Control_c, 0, 64, 111
1, 319531, Control_c, 0, 64, 113
1, 319546, Control_c, 0, 64, 115
1, 319561, Control_c, 0, 64, 118
1, 319575, Control_c, 0, 64, 121
1, 319591, Note_off_c, 0, 64, 60
1, 319591, Control_c, 0, 64, 126
1, 319606, Control_c, 0, 64, 127
1, 319629, Note_on_c, 0, 68, 93
1, 319636, Note_off_c, 0, 61, 62
1, 319637, Note_on_c, 0, 52, 74
1, 319642, Note_off_c, 0, 69, 61
1, 319649, Note_off_c, 0, 56, 29
1, 319662, Note_off_c, 0, 52, 70
1, 319782, Note_off_c, 0, 76, 54
1, 319801, Note_on_c, 0, 42, 62
1, 319835, Note_off_c, 0, 73, 60
1, 319839, Note_off_c, 0, 68, 61
1, 319860, Note_on_c, 0, 64, 86
1, 319877, Note_off_c, 0, 42, 63
1, 319900, Note_off_c, 0, 64, 66
1, 319925, Control_c, 0, 64, 127
1, 319940, Control_c, 0, 64, 124
1, 319954, Control_c, 0, 64, 122
1, 319969, Control_c, 0, 64, 121
1, 319984, Control_c, 0, 64, 118
1, 319998, Control_c, 0, 64, 116
1, 320013, Control_c, 0, 64, 113
1, 320028, Control_c, 0, 64, 109
1, 320043, Control_c, 0, 64, 101
1, 320058, Control_c, 0, 64, 92
1, 320064, Note_on_c, 0, 79, 82
1, 320067, Note_on_c, 0, 76, 76
1, 320070, Note_on_c, 0, 30, 65
1, 320072, Control_c, 0, 64, 78
1, 320074, Note_on_c, 0, 67, 73
1, 320075, Note_on_c, 0, 42, 64
1, 320081, Note_on_c, 0, 71, 63
1, 320087, Control_c, 0, 64, 64
1, 320102, Control_c, 0, 64, 0
1, 320146, Control_c, 0, 64, 40
1, 320161, Control_c, 0, 64, 68
1, 320176, Control_c, 0, 64, 75
1, 320178, Note_off_c, 0, 30, 63
1, 320190, Control_c, 0, 64, 82
1, 320191, Note_off_c, 0, 67, 61
1, 320199, Note_off_c, 0, 42, 63
1, 320205, Control_c, 0, 64, 89
1, 320211, Note_off_c, 0, 71, 61
1, 320220, Control_c, 0, 64, 93
1, 320235, Control_c, 0, 64, 95
1, 320250, Control_c, 0, 64, 96
1, 320265, Control_c, 0, 64, 97
1, 320318, Note_on_c, 0, 52, 76
1, 320320, Note_on_c, 0, 73, 79
1, 320324, Note_on_c, 0, 70, 86
1, 320325, Note_off_c, 0, 76, 62
1, 320396, Note_off_c, 0, 79, 35
1, 320410, Note_off_c, 0, 70, 57
1, 320485, Note_on_c, 0, 74, 88
1, 320495, Note_on_c, 0, 71, 72
1, 320498, Note_on_c, 0, 59, 53
1, 320506, Note_off_c, 0, 73, 61
1, 320521, Note_on_c, 0, 55, 44
1, 320527, Note_off_c, 0, 71, 61
1, 320530, Note_on_c, 0, 69, 27
1, 320548, Note_off_c, 0, 55, 56
1, 320564, Note_off_c, 0, 69, 49
1, 320569, Note_off_c, 0, 59, 62
1, 320607, Control_c, 0, 64, 94
1, 320621, Control_c, 0, 64, 87
1, 320636, Control_c, 0, 64, 74
1, 320651, Control_c, 0, 64, 60
1, 320673, Control_c, 0, 64, 0
1, 320677, Note_on_c, 0, 70, 79
1, 320677, Note_on_c, 0, 79, 85
1, 320680, Note_on_c, 0, 67, 82
1, 320688, Note_on_c, 0, 76, 75
1, 320688, Control_c, 0, 64, 32
1, 320695, Note_on_c, 0, 55, 52
1, 320695, Note_on_c, 0, 64, 68
1, 320699, Note_on_c, 0, 60, 61
1, 320703, Control_c, 0, 64, 62
1, 320707, Note_off_c, 0, 74, 63
1, 320718, Control_c, 0, 64, 67
1, 320733, Control_c, 0, 64, 74
1, 320747, Control_c, 0, 64, 81
1, 320748, Note_off_c, 0, 52, 55
1, 320762, Control_c, 0, 64, 89
1, 320771, Note_off_c, 0, 67, 59
1, 320777, Control_c, 0, 64, 95
1, 320783, Note_off_c, 0, 70, 62
1, 320792, Control_c, 0, 64, 98
1, 320807, Control_c, 0, 64, 100
1, 320821, Control_c, 0, 64, 102
1, 320836, Note_off_c, 0, 64, 60
1, 320836, Control_c, 0, 64, 104
1, 320851, Control_c, 0, 64, 108
1, 320866, Control_c, 0, 64, 111
1, 320871, Note_on_c, 0, 72, 83
1, 320879, Note_on_c, 0, 69, 79
1, 320881, Note_off_c, 0, 55, 63
1, 320881, Control_c, 0, 64, 113
1, 320884, Note_off_c, 0, 60, 60
1, 320888, Note_on_c, 0, 52, 66
1, 320904, Note_off_c, 0, 76, 60
1, 320905, Note_off_c, 0, 69, 66
1, 320911, Note_off_c, 0, 52, 71
1, 321064, Note_on_c, 0, 70, 84
1, 321065, Note_on_c, 0, 42, 67
1, 321065, Note_on_c, 0, 74, 84
1, 321073, Note_off_c, 0, 72, 61
1, 321073, Control_c, 0, 64, 112
1, 321087, Note_off_c, 0, 79, 38
1, 321087, Control_c, 0, 64, 112
1, 321102, Control_c, 0, 64, 110
1, 321111, Note_off_c, 0, 42, 62
1, 321117, Control_c, 0, 64, 109
1, 321132, Note_off_c, 0, 74, 61
1, 321132, Control_c, 0, 64, 108
1, 321135, Note_off_c, 0, 70, 49
1, 321147, Control_c, 0, 64, 107
1, 321162, Control_c, 0, 64, 105
1, 321177, Control_c, 0, 64, 104
1, 321192, Control_c, 0, 64, 103
1, 321207, Control_c, 0, 64, 102
1, 321222, Control_c, 0, 64, 101
1, 321236, Control_c, 0, 64, 100
1, 321251, Control_c, 0, 64, 99
1, 321266, Control_c, 0, 64, 96
1, 321275, Note_on_c, 0, 30, 69
1, 321280, Note_on_c, 0, 42, 64
1, 321281, Control_c, 0, 64, 94
1, 321296, Control_c, 0, 64, 89
1, 321311, Control_c, 0, 64, 82
1, 321326, Control_c, 0, 64, 73
1, 321338, Note_on_c, 0, 79, 77
1, 321341, Control_c, 0, 64, 61
1, 321345, Note_on_c, 0, 67, 72
1, 321355, Note_on_c, 0, 74, 63
1, 321356, Note_on_c, 0, 70, 61
1, 321356, Control_c, 0, 64, 0
1, 321422, Control_c, 0, 64, 38
1, 321435, Note_off_c, 0, 30, 63
1, 321437, Control_c, 0, 64, 65
1, 321441, Note_off_c, 0, 74, 64
1, 321451, Control_c, 0, 64, 72
1, 321453, Note_off_c, 0, 42, 63
1, 321466, Control_c, 0, 64, 80
1, 321481, Control_c, 0, 64, 87
1, 321496, Control_c, 0, 64, 91
1, 321511, Control_c, 0, 64, 94
1, 321526, Control_c, 0, 64, 95
1, 321535, Note_off_c, 0, 70, 52
1, 321540, Control_c, 0, 64, 95
1, 321556, Note_off_c, 0, 79, 61
1, 321560, Note_off_c, 0, 67, 61
1, 321618, Note_on_c, 0, 78, 82
1, 321628, Note_on_c, 0, 74, 54
1, 321645, Note_on_c, 0, 50, 59
1, 321645, Note_on_c, 0, 70, 68
1, 321747, Note_off_c, 0, 70, 55
1, 321764, Note_off_c, 0, 78, 63
1, 321776, Note_off_c, 0, 74, 44
1, 321780, Note_on_c, 0, 66, 85
1, 321808, Note_on_c, 0, 62, 57
1, 321812, Note_on_c, 0, 58, 51
1, 321815, Note_on_c, 0, 54, 56
1, 321822, Control_c, 0, 64, 95
1, 321830, Note_off_c, 0, 66, 66
1, 321836, Control_c, 0, 64, 94
1, 321851, Note_off_c, 0, 58, 61
1, 321851, Note_off_c, 0, 62, 56
1, 321851, Control_c, 0, 64, 94
1, 321861, Note_off_c, 0, 54, 59
1, 321866, Control_c, 0, 64, 93
1, 321869, Note_on_c, 0, 74, 75
1, 321881, Control_c, 0, 64, 92
1, 321896, Control_c, 0, 64, 91
1, 321910, Control_c, 0, 64, 90
1, 321916, Note_off_c, 0, 74, 61
1, 321925, Control_c, 0, 64, 89
1, 321940, Control_c, 0, 64, 87
1, 321955, Control_c, 0, 64, 85
1, 321970, Control_c, 0, 64, 82
1, 321981, Note_on_c, 0, 74, 69
1, 321985, Control_c, 0, 64, 77
1, 321990, Note_on_c, 0, 67, 76
1, 321998, Note_on_c, 0, 71, 71
1, 321999, Note_on_c, 0, 62, 53
1, 322000, Control_c, 0, 64, 70
1, 322011, Note_off_c, 0, 50, 38
1, 322011, Note_on_c, 0, 59, 49
1, 322015, Control_c, 0, 64, 58
1, 322017, Note_on_c, 0, 54, 33
1, 322030, Control_c, 0, 64, 0
1, 322119, Control_c, 0, 64, 31
1, 322134, Control_c, 0, 64, 64
1, 322149, Control_c, 0, 64, 71
1, 322171, Control_c, 0, 64, 78
1, 322187, Control_c, 0, 64, 84
1, 322201, Control_c, 0, 64, 88
1, 322214, Note_on_c, 0, 66, 80
1, 322216, Control_c, 0, 64, 90
1, 322220, Note_off_c, 0, 62, 59
1, 322231, Control_c, 0, 64, 91
1, 322238, Note_off_c, 0, 59, 62
1, 322238, Note_off_c, 0, 67, 57
1, 322241, Note_off_c, 0, 54, 61
1, 322245, Note_on_c, 0, 50, 52
1, 322246, Control_c, 0, 64, 92
1, 322261, Control_c, 0, 64, 93
1, 322269, Note_off_c, 0, 50, 59
1, 322408, Control_c, 0, 64, 92
1, 322417, Note_on_c, 0, 42, 57
1, 322441, Note_off_c, 0, 66, 62
1, 322453, Control_c, 0, 64, 92
1, 322468, Control_c, 0, 64, 91
1, 322468, Note_on_c, 0, 62, 77
1, 322471, Note_off_c, 0, 42, 63
1, 322482, Control_c, 0, 64, 91
1, 322497, Note_off_c, 0, 62, 62
1, 322497, Control_c, 0, 64, 90
1, 322512, Control_c, 0, 64, 90
1, 322525, Note_off_c, 0, 71, 13
1, 322542, Control_c, 0, 64, 89
1, 322557, Control_c, 0, 64, 89
1, 322572, Control_c, 0, 64, 88
1, 322587, Control_c, 0, 64, 87
1, 322595, Note_on_c, 0, 62, 71
1, 322601, Control_c, 0, 64, 83
1, 322605, Note_off_c, 0, 74, 39
1, 322616, Control_c, 0, 64, 76
1, 322631, Control_c, 0, 64, 63
1, 322638, Note_on_c, 0, 70, 74
1, 322646, Control_c, 0, 64, 0
1, 322646, Note_off_c, 0, 62, 62
1, 322687, Note_on_c, 0, 42, 52
1, 322690, Note_on_c, 0, 30, 52
1, 322703, Note_on_c, 0, 77, 78
1, 322705, Control_c, 0, 64, 60
1, 322719, Control_c, 0, 64, 68
1, 322734, Control_c, 0, 64, 74
1, 322748, Note_off_c, 0, 30, 63
1, 322749, Control_c, 0, 64, 80
1, 322764, Control_c, 0, 64, 83
1, 322768, Note_off_c, 0, 42, 63
1, 322779, Control_c, 0, 64, 84
1, 322795, Control_c, 0, 64, 86
1, 322809, Control_c, 0, 64, 86
1, 322824, Control_c, 0, 64, 87
1, 322839, Control_c, 0, 64, 87
1, 322854, Control_c, 0, 64, 88
1, 322865, Note_off_c, 0, 77, 36
1, 322869, Control_c, 0, 64, 89
1, 322932, Note_on_c, 0, 64, 73
1, 322937, Note_on_c, 0, 50, 55
1, 322992, Note_off_c, 0, 64, 62
1, 323114, Note_on_c, 0, 65, 74
1, 323121, Note_on_c, 0, 58, 53
1, 323131, Note_on_c, 0, 62, 53
1, 323145, Note_on_c, 0, 53, 39
1, 323154, Note_off_c, 0, 65, 58
1, 323156, Control_c, 0, 64, 88
1, 323169, Note_off_c, 0, 62, 61
1, 323171, Note_off_c, 0, 58, 58
1, 323171, Control_c, 0, 64, 88
1, 323179, Note_off_c, 0, 53, 57
1, 323186, Control_c, 0, 64, 87
1, 323201, Control_c, 0, 64, 86
1, 323216, Control_c, 0, 64, 86
1, 323246, Control_c, 0, 64, 85
1, 323259, Note_off_c, 0, 70, 52
1, 323260, Control_c, 0, 64, 84
1, 323275, Control_c, 0, 64, 81
1, 323290, Control_c, 0, 64, 77
1, 323305, Control_c, 0, 64, 70
1, 323320, Control_c, 0, 64, 51
1, 323329, Note_on_c, 0, 77, 69
1, 323334, Note_on_c, 0, 65, 63
1, 323335, Control_c, 0, 64, 0
1, 323343, Note_on_c, 0, 68, 47
1, 323344, Note_on_c, 0, 74, 57
1, 323353, Note_on_c, 0, 59, 44
1, 323356, Note_on_c, 0, 62, 42
1, 323357, Note_on_c, 0, 53, 33
1, 323394, Control_c, 0, 64, 38
1, 323409, Control_c, 0, 64, 63
1, 323421, Note_off_c, 0, 65, 63
1, 323423, Control_c, 0, 64, 68
1, 323438, Control_c, 0, 64, 73
1, 323448, Note_off_c, 0, 50, 39
1, 323453, Control_c, 0, 64, 78
1, 323468, Control_c, 0, 64, 82
1, 323475, Note_off_c, 0, 77, 55
1, 323482, Control_c, 0, 64, 84
1, 323497, Control_c, 0, 64, 86
1, 323512, Control_c, 0, 64, 87
1, 323517, Note_off_c, 0, 62, 36
1, 323527, Control_c, 0, 64, 89
1, 323541, Control_c, 0, 64, 90
1, 323556, Control_c, 0, 64, 92
1, 323565, Note_off_c, 0, 59, 54
1, 323569, Note_on_c, 0, 50, 50
1, 323571, Control_c, 0, 64, 93
1, 323572, Note_on_c, 0, 64, 64
1, 323576, Note_off_c, 0, 53, 51
1, 323587, Control_c, 0, 64, 94
1, 323602, Control_c, 0, 64, 95
1, 323603, Note_off_c, 0, 50, 64
1, 323604, Note_off_c, 0, 64, 66
1, 323617, Control_c, 0, 64, 96
1, 323631, Control_c, 0, 64, 97
1, 323635, Note_off_c, 0, 74, 22
1, 323646, Control_c, 0, 64, 99
1, 323669, Control_c, 0, 64, 100
1, 323684, Control_c, 0, 64, 102
1, 323699, Control_c, 0, 64, 104
1, 323713, Control_c, 0, 64, 105
1, 323781, Note_off_c, 0, 68, 62
1, 323795, Note_on_c, 0, 63, 72
1, 323805, Note_on_c, 0, 42, 44
1, 323842, Note_off_c, 0, 42, 50
1, 323846, Control_c, 0, 64, 104
1, 323849, Note_off_c, 0, 63, 63
1, 323861, Control_c, 0, 64, 104
1, 323876, Control_c, 0, 64, 103
1, 323891, Control_c, 0, 64, 102
1, 323906, Control_c, 0, 64, 101
1, 323920, Control_c, 0, 64, 99
1, 323935, Control_c, 0, 64, 97
1, 323950, Control_c, 0, 64, 95
1, 323964, Control_c, 0, 64, 92
1, 323979, Control_c, 0, 64, 90
1, 323994, Control_c, 0, 64, 87
1, 324009, Control_c, 0, 64, 84
1, 324024, Control_c, 0, 64, 79
1, 324038, Control_c, 0, 64, 73
1, 324046, Note_on_c, 0, 71, 60
1, 324050, Note_on_c, 0, 62, 56
1, 324053, Control_c, 0, 64, 64
1, 324059, Note_on_c, 0, 65, 59
1, 324064, Note_on_c, 0, 42, 46
1, 324068, Control_c, 0, 64, 0
1, 324071, Note_on_c, 0, 30, 45
1, 324128, Control_c, 0, 64, 57
1, 324143, Control_c, 0, 64, 66
1, 324158, Control_c, 0, 64, 72
1, 324170, Note_off_c, 0, 71, 59
1, 324171, Note_off_c, 0, 30, 59
1, 324172, Control_c, 0, 64, 78
1, 324187, Control_c, 0, 64, 84
1, 324198, Note_off_c, 0, 42, 63
1, 324202, Control_c, 0, 64, 86
1, 324217, Control_c, 0, 64, 88
1, 324232, Control_c, 0, 64, 89
1, 324343, Note_off_c, 0, 65, 57
1, 324350, Note_off_c, 0, 62, 57
1, 324355, Note_on_c, 0, 69, 67
1, 324374, Note_on_c, 0, 61, 59
1, 324384, Note_on_c, 0, 50, 33
1, 324489, Note_off_c, 0, 69, 61
1, 324489, Note_off_c, 0, 61, 62
1, 324595, Control_c, 0, 64, 88
1, 324600, Note_on_c, 0, 62, 62
1, 324610, Control_c, 0, 64, 88
1, 324640, Control_c, 0, 64, 87
1, 324650, Note_off_c, 0, 62, 51
1, 324655, Control_c, 0, 64, 87
1, 324669, Control_c, 0, 64, 86
1, 324684, Control_c, 0, 64, 85
1, 324699, Control_c, 0, 64, 84
1, 324706, Note_on_c, 0, 67, 71
1, 324713, Control_c, 0, 64, 84
1, 324716, Note_on_c, 0, 59, 53
1, 324728, Control_c, 0, 64, 83
1, 324743, Control_c, 0, 64, 83
1, 324753, Note_off_c, 0, 59, 49
1, 324758, Control_c, 0, 64, 82
1, 324769, Note_off_c, 0, 67, 61
1, 324773, Control_c, 0, 64, 81
1, 324787, Control_c, 0, 64, 80
1, 324802, Control_c, 0, 64, 79
1, 324817, Control_c, 0, 64, 78
1, 324832, Control_c, 0, 64, 77
1, 324847, Control_c, 0, 64, 73
1, 324850, Note_on_c, 0, 67, 61
1, 324856, Note_on_c, 0, 59, 57
1, 324861, Note_on_c, 0, 62, 47
1, 324861, Control_c, 0, 64, 68
1, 324876, Control_c, 0, 64, 58
1, 324891, Control_c, 0, 64, 0
1, 324910, Note_off_c, 0, 50, 32
1, 324921, Control_c, 0, 64, 26
1, 324936, Control_c, 0, 64, 53
1, 324951, Control_c, 0, 64, 62
1, 324966, Control_c, 0, 64, 65
1, 324980, Control_c, 0, 64, 68
1, 324995, Control_c, 0, 64, 73
1, 325010, Control_c, 0, 64, 78
1, 325025, Control_c, 0, 64, 81
1, 325040, Control_c, 0, 64, 82
1, 325144, Note_off_c, 0, 59, 54
1, 325165, Note_off_c, 0, 62, 40
1, 325177, Note_on_c, 0, 66, 69
1, 325182, Note_off_c, 0, 67, 50
1, 325195, Note_on_c, 0, 57, 53
1, 325213, Note_on_c, 0, 50, 47
1, 325286, Control_c, 0, 64, 83
1, 325293, Note_off_c, 0, 57, 57
1, 325300, Control_c, 0, 64, 84
1, 325315, Control_c, 0, 64, 86
1, 325330, Control_c, 0, 64, 88
1, 325345, Control_c, 0, 64, 89
1, 325359, Control_c, 0, 64, 90
1, 325469, Note_off_c, 0, 66, 46
1, 325524, Note_on_c, 0, 65, 62
1, 325541, Note_on_c, 0, 59, 40
1, 325547, Note_on_c, 0, 55, 52
1, 325597, Control_c, 0, 64, 89
1, 325626, Control_c, 0, 64, 89
1, 325626, Control_c, 0, 67, 9
1, 325641, Control_c, 0, 67, 16
1, 325650, Note_off_c, 0, 59, 50
1, 325656, Control_c, 0, 67, 21
1, 325660, Note_off_c, 0, 65, 55
1, 325671, Control_c, 0, 67, 24
1, 325685, Control_c, 0, 67, 27
1, 325687, Note_off_c, 0, 55, 36
1, 325693, Note_off_c, 0, 50, 47
1, 325700, Control_c, 0, 67, 31
1, 325715, Control_c, 0, 64, 88
1, 325715, Control_c, 0, 67, 35
1, 325729, Control_c, 0, 67, 38
1, 325744, Control_c, 0, 67, 40
1, 325759, Control_c, 0, 64, 88
1, 325789, Control_c, 0, 64, 87
1, 325789, Control_c, 0, 67, 41
1, 325803, Control_c, 0, 64, 87
1, 325803, Control_c, 0, 67, 42
1, 325818, Control_c, 0, 67, 43
1, 325833, Control_c, 0, 64, 86
1, 325833, Control_c, 0, 67, 44
1, 325848, Control_c, 0, 67, 45
1, 325863, Control_c, 0, 64, 86
1, 325893, Control_c, 0, 64, 85
1, 325915, Control_c, 0, 64, 85
1, 325930, Control_c, 0, 64, 84
1, 325944, Control_c, 0, 64, 84
1, 325959, Control_c, 0, 64, 83
1, 325974, Control_c, 0, 64, 82
1, 325990, Control_c, 0, 64, 81
1, 326005, Control_c, 0, 64, 79
1, 326011, Note_on_c, 0, 42, 50
1, 326015, Note_on_c, 0, 30, 43
1, 326020, Control_c, 0, 64, 77
1, 326035, Control_c, 0, 64, 76
1, 326049, Control_c, 0, 64, 74
1, 326064, Control_c, 0, 64, 71
1, 326069, Note_on_c, 0, 65, 63
1, 326077, Note_on_c, 0, 55, 54
1, 326079, Control_c, 0, 64, 67
1, 326094, Control_c, 0, 64, 58
1, 326108, Control_c, 0, 64, 31
1, 326108, Control_c, 0, 67, 45
1, 326123, Control_c, 0, 64, 0
1, 326138, Control_c, 0, 67, 46
1, 326153, Control_c, 0, 67, 46
1, 326167, Control_c, 0, 67, 47
1, 326182, Control_c, 0, 67, 50
1, 326197, Control_c, 0, 67, 54
1, 326212, Control_c, 0, 64, 18
1, 326212, Control_c, 0, 67, 58
1, 326227, Control_c, 0, 64, 52
1, 326227, Control_c, 0, 67, 62
1, 326241, Control_c, 0, 64, 62
1, 326241, Control_c, 0, 67, 67
1, 326256, Control_c, 0, 64, 66
1, 326256, Control_c, 0, 67, 74
1, 326271, Control_c, 0, 64, 70
1, 326271, Control_c, 0, 67, 80
1, 326286, Control_c, 0, 64, 76
1, 326286, Control_c, 0, 67, 86
1, 326301, Control_c, 0, 64, 81
1, 326301, Control_c, 0, 67, 92
1, 326316, Control_c, 0, 64, 85
1, 326316, Control_c, 0, 67, 95
1, 326331, Control_c, 0, 64, 87
1, 326331, Control_c, 0, 67, 96
1, 326346, Control_c, 0, 64, 89
1, 326355, Note_on_c, 0, 58, 49
1, 326360, Control_c, 0, 64, 92
1, 326370, Note_off_c, 0, 65, 39
1, 326373, Note_off_c, 0, 55, 58
1, 326375, Control_c, 0, 64, 94
1, 326390, Control_c, 0, 64, 97
1, 326405, Control_c, 0, 64, 99
1, 326405, Control_c, 0, 67, 97
1, 326420, Control_c, 0, 64, 100
1, 326434, Control_c, 0, 64, 101
1, 326441, Note_off_c, 0, 30, 54
1, 326449, Control_c, 0, 64, 101
1, 326464, Control_c, 0, 64, 102
1, 326483, Note_off_c, 0, 42, 61
1, 326501, Note_on_c, 0, 61, 51
1, 326519, Note_off_c, 0, 58, 36
1, 326547, Note_off_c, 0, 61, 57
1, 326582, Control_c, 0, 67, 96
1, 326597, Note_on_c, 0, 59, 53
1, 326626, Control_c, 0, 67, 96
1, 326652, Note_off_c, 0, 59, 50
1, 326688, Note_on_c, 0, 61, 57
1, 326726, Note_on_c, 0, 50, 60
1, 326738, Control_c, 0, 67, 95
1, 326754, Note_off_c, 0, 61, 60
1, 326767, Control_c, 0, 67, 95
1, 326778, Note_on_c, 0, 64, 58
1, 326814, Note_off_c, 0, 64, 64
1, 326853, Note_on_c, 0, 62, 61
1, 326858, Control_c, 0, 67, 94
1, 326891, Note_off_c, 0, 62, 59
1, 326902, Control_c, 0, 67, 94
1, 326912, Note_on_c, 0, 64, 64
1, 326917, Control_c, 0, 67, 93
1, 326932, Control_c, 0, 64, 101
1, 326953, Note_off_c, 0, 64, 55
1, 326961, Control_c, 0, 64, 101
1, 326961, Control_c, 0, 67, 93
1, 326985, Note_on_c, 0, 67, 62
1, 326990, Control_c, 0, 67, 92
1, 326998, Note_on_c, 0, 55, 67
1, 327005, Note_off_c, 0, 50, 33
1, 327005, Control_c, 0, 64, 100
1, 327011, Note_off_c, 0, 67, 64
1, 327020, Control_c, 0, 67, 92
1, 327035, Control_c, 0, 64, 100
1, 327048, Note_off_c, 0, 55, 61
1, 327050, Control_c, 0, 67, 91
1, 327057, Note_on_c, 0, 65, 65
1, 327094, Control_c, 0, 64, 99
1, 327097, Note_off_c, 0, 65, 57
1, 327116, Note_on_c, 0, 70, 73
1, 327139, Control_c, 0, 64, 99
1, 327145, Note_off_c, 0, 70, 67
1, 327154, Control_c, 0, 64, 98
1, 327168, Control_c, 0, 64, 97
1, 327168, Control_c, 0, 67, 92
1, 327183, Control_c, 0, 64, 96
1, 327183, Control_c, 0, 67, 92
1, 327192, Note_on_c, 0, 72, 68
1, 327198, Control_c, 0, 64, 96
1, 327212, Note_off_c, 0, 72, 62
1, 327213, Control_c, 0, 64, 95
1, 327228, Control_c, 0, 64, 93
1, 327243, Control_c, 0, 64, 88
1, 327257, Control_c, 0, 64, 82
1, 327263, Note_on_c, 0, 71, 62
1, 327272, Control_c, 0, 64, 74
1, 327273, Note_on_c, 0, 65, 70
1, 327287, Control_c, 0, 64, 65
1, 327297, Note_on_c, 0, 55, 53
1, 327301, Control_c, 0, 64, 26
1, 327303, Note_off_c, 0, 71, 58
1, 327316, Control_c, 0, 64, 0
1, 327321, Note_on_c, 0, 73, 66
1, 327361, Control_c, 0, 64, 23
1, 327361, Control_c, 0, 67, 92
1, 327366, Note_off_c, 0, 73, 66
1, 327375, Control_c, 0, 64, 47
1, 327375, Control_c, 0, 67, 91
1, 327390, Control_c, 0, 64, 57
1, 327390, Control_c, 0, 67, 91
1, 327395, Note_on_c, 0, 76, 62
1, 327413, Control_c, 0, 64, 62
1, 327427, Control_c, 0, 64, 65
1, 327435, Note_off_c, 0, 76, 64
1, 327442, Control_c, 0, 64, 69
1, 327456, Control_c, 0, 64, 73
1, 327456, Control_c, 0, 67, 90
1, 327467, Note_on_c, 0, 74, 66
1, 327471, Control_c, 0, 64, 77
1, 327486, Control_c, 0, 64, 82
1, 327501, Control_c, 0, 64, 85
1, 327501, Control_c, 0, 67, 90
1, 327513, Note_off_c, 0, 74, 59
1, 327515, Control_c, 0, 64, 87
1, 327526, Note_on_c, 0, 76, 73
1, 327530, Control_c, 0, 64, 90
1, 327545, Control_c, 0, 64, 92
1, 327545, Control_c, 0, 67, 89
1, 327560, Control_c, 0, 64, 93
1, 327560, Control_c, 0, 67, 89
1, 327575, Control_c, 0, 64, 94
1, 327579, Note_off_c, 0, 76, 61
1, 327596, Note_on_c, 0, 79, 68
1, 327598, Note_off_c, 0, 55, 60
1, 327605, Control_c, 0, 67, 88
1, 327622, Note_off_c, 0, 79, 66
1, 327642, Note_off_c, 0, 65, 54
1, 327666, Note_on_c, 0, 77, 72
1, 327713, Note_off_c, 0, 77, 53
1, 327724, Control_c, 0, 67, 88
1, 327730, Note_on_c, 0, 82, 71
1, 327746, Note_off_c, 0, 82, 65
1, 327753, Control_c, 0, 67, 88
1, 327798, Control_c, 0, 67, 89
1, 327800, Note_on_c, 0, 84, 69
1, 327829, Note_off_c, 0, 84, 65
1, 327881, Note_on_c, 0, 83, 65
1, 327887, Control_c, 0, 64, 93
1, 327917, Note_off_c, 0, 83, 58
1, 327917, Control_c, 0, 67, 89
1, 327931, Control_c, 0, 64, 93
1, 327935, Note_on_c, 0, 85, 66
1, 327946, Control_c, 0, 64, 92
1, 327961, Control_c, 0, 64, 92
1, 327976, Control_c, 0, 64, 91
1, 327990, Note_off_c, 0, 85, 66
1, 327991, Control_c, 0, 64, 90
1, 327991, Control_c, 0, 67, 90
1, 328005, Control_c, 0, 64, 89
1, 328009, Note_on_c, 0, 71, 50
1, 328009, Note_on_c, 0, 88, 70
1, 328016, Note_on_c, 0, 65, 48
1, 328018, Note_on_c, 0, 62, 47
1, 328020, Control_c, 0, 64, 87
1, 328035, Control_c, 0, 64, 85
1, 328035, Control_c, 0, 67, 90
1, 328042, Note_off_c, 0, 88, 60
1, 328050, Control_c, 0, 64, 82
1, 328065, Control_c, 0, 64, 76
1, 328079, Control_c, 0, 64, 69
1, 328081, Note_on_c, 0, 86, 67
1, 328094, Control_c, 0, 64, 58
1, 328094, Control_c, 0, 67, 90
1, 328109, Control_c, 0, 64, 0
1, 328109, Control_c, 0, 67, 89
1, 328123, Control_c, 0, 67, 89
1, 328129, Note_off_c, 0, 86, 57
1, 328138, Control_c, 0, 67, 88
1, 328147, Note_on_c, 0, 88, 69
1, 328161, Control_c, 0, 67, 88
1, 328176, Control_c, 0, 67, 87
1, 328191, Control_c, 0, 67, 87
1, 328194, Note_off_c, 0, 88, 53
1, 328205, Control_c, 0, 64, 60
1, 328205, Control_c, 0, 67, 86
1, 328220, Control_c, 0, 64, 67
1, 328220, Control_c, 0, 67, 86
1, 328224, Note_on_c, 0, 91, 68
1, 328235, Control_c, 0, 64, 72
1, 328250, Control_c, 0, 64, 76
1, 328253, Note_off_c, 0, 91, 62
1, 328265, Control_c, 0, 64, 79
1, 328279, Control_c, 0, 64, 80
1, 328279, Control_c, 0, 67, 85
1, 328294, Control_c, 0, 64, 81
1, 328294, Control_c, 0, 67, 83
1, 328305, Note_on_c, 0, 89, 61
1, 328309, Control_c, 0, 67, 80
1, 328324, Control_c, 0, 67, 77
1, 328336, Note_off_c, 0, 89, 49
1, 328338, Control_c, 0, 67, 73
1, 328353, Control_c, 0, 64, 81
1, 328353, Control_c, 0, 67, 67
1, 328363, Note_on_c, 0, 94, 72
1, 328368, Control_c, 0, 67, 58
1, 328384, Control_c, 0, 67, 44
1, 328399, Control_c, 0, 67, 33
1, 328414, Control_c, 0, 67, 22
1, 328428, Control_c, 0, 67, 14
1, 328432, Note_off_c, 0, 94, 65
1, 328443, Control_c, 0, 67, 0
1, 328452, Note_on_c, 0, 96, 73
1, 328502, Control_c, 0, 64, 81
1, 328504, Note_off_c, 0, 96, 62
1, 328532, Control_c, 0, 64, 80
1, 328543, Note_on_c, 0, 95, 73
1, 328547, Control_c, 0, 64, 80
1, 328561, Control_c, 0, 64, 79
1, 328576, Control_c, 0, 64, 78
1, 328591, Control_c, 0, 64, 77
1, 328602, Note_off_c, 0, 95, 58
1, 328606, Control_c, 0, 64, 76
1, 328616, Note_on_c, 0, 97, 67
1, 328621, Control_c, 0, 64, 74
1, 328635, Control_c, 0, 64, 73
1, 328650, Control_c, 0, 64, 71
1, 328665, Control_c, 0, 64, 70
1, 328680, Control_c, 0, 64, 69
1, 328695, Control_c, 0, 64, 66
1, 328710, Control_c, 0, 64, 59
1, 328724, Control_c, 0, 64, 29
1, 328733, Note_off_c, 0, 97, 61
1, 328738, Note_on_c, 0, 100, 69
1, 328739, Control_c, 0, 64, 0
1, 328769, Control_c, 0, 64, 50
1, 328784, Control_c, 0, 64, 61
1, 328799, Control_c, 0, 64, 65
1, 328814, Control_c, 0, 64, 69
1, 328828, Note_off_c, 0, 100, 56
1, 328828, Control_c, 0, 64, 75
1, 328833, Note_on_c, 0, 98, 69
1, 328843, Control_c, 0, 64, 81
1, 328858, Control_c, 0, 64, 88
1, 328873, Control_c, 0, 64, 94
1, 328888, Control_c, 0, 64, 98
1, 328897, Note_off_c, 0, 98, 61
1, 328909, Control_c, 0, 64, 102
1, 328915, Note_on_c, 0, 95, 70
1, 328925, Control_c, 0, 64, 106
1, 328940, Control_c, 0, 64, 111
1, 328955, Control_c, 0, 64, 115
1, 328963, Note_off_c, 0, 95, 60
1, 328969, Control_c, 0, 64, 120
1, 328984, Control_c, 0, 64, 124
1, 328992, Note_on_c, 0, 91, 71
1, 328999, Control_c, 0, 64, 127
1, 329014, Control_c, 0, 64, 127
1, 329021, Note_off_c, 0, 91, 61
1, 329031, Note_off_c, 0, 71, 53
1, 329066, Note_on_c, 0, 89, 66
1, 329099, Note_off_c, 0, 89, 63
1, 329148, Note_on_c, 0, 86, 66
1, 329152, Note_off_c, 0, 65, 37
1, 329177, Note_off_c, 0, 62, 33
1, 329198, Note_off_c, 0, 86, 45
1, 329243, Note_on_c, 0, 83, 61
1, 329288, Note_off_c, 0, 83, 54
1, 329340, Note_on_c, 0, 79, 55
1, 329362, Note_off_c, 0, 79, 58
1, 329421, Note_on_c, 0, 77, 59
1, 329463, Note_off_c, 0, 77, 53
1, 329512, Note_on_c, 0, 74, 55
1, 329607, Note_off_c, 0, 74, 53
1, 329630, Note_on_c, 0, 71, 48
1, 329696, Note_off_c, 0, 71, 52
1, 329730, Note_on_c, 0, 67, 48
1, 329783, Note_off_c, 0, 67, 46
1, 329839, Note_on_c, 0, 65, 61
1, 329913, Note_off_c, 0, 65, 59
1, 329963, Note_on_c, 0, 62, 55
1, 330095, Note_off_c, 0, 62, 51
1, 330114, Note_on_c, 0, 59, 56
1, 330268, Control_c, 0, 64, 126
1, 330269, Note_off_c, 0, 59, 50
1, 330282, Control_c, 0, 64, 124
1, 330287, Note_on_c, 0, 55, 60
1, 330297, Control_c, 0, 64, 122
1, 330312, Control_c, 0, 64, 121
1, 330326, Control_c, 0, 64, 119
1, 330332, Note_off_c, 0, 55, 60
1, 330341, Control_c, 0, 64, 118
1, 330356, Control_c, 0, 64, 118
1, 330371, Control_c, 0, 64, 116
1, 330386, Control_c, 0, 64, 115
1, 330408, Control_c, 0, 64, 113
1, 330421, Control_c, 0, 64, 112
1, 330436, Control_c, 0, 64, 110
1, 330451, Control_c, 0, 64, 109
1, 330466, Control_c, 0, 64, 108
1, 330480, Control_c, 0, 64, 106
1, 330495, Control_c, 0, 64, 104
1, 330510, Control_c, 0, 64, 101
1, 330525, Control_c, 0, 64, 98
1, 330540, Control_c, 0, 64, 94
1, 330544, Note_on_c, 0, 42, 37
1, 330546, Note_on_c, 0, 30, 35
1, 330555, Control_c, 0, 64, 90
1, 330570, Control_c, 0, 64, 86
1, 330585, Control_c, 0, 64, 81
1, 330599, Control_c, 0, 64, 73
1, 330614, Control_c, 0, 64, 65
1, 330629, Control_c, 0, 64, 41
1, 330644, Control_c, 0, 64, 0
1, 330647, Note_on_c, 0, 66, 53
1, 330653, Note_on_c, 0, 54, 46
1, 330747, Control_c, 0, 67, 9
1, 330762, Control_c, 0, 67, 11
1, 330778, Control_c, 0, 64, 57
1, 330778, Control_c, 0, 67, 13
1, 330793, Control_c, 0, 64, 67
1, 330793, Control_c, 0, 67, 17
1, 330808, Control_c, 0, 64, 71
1, 330808, Control_c, 0, 67, 24
1, 330822, Control_c, 0, 64, 76
1, 330822, Control_c, 0, 67, 32
1, 330837, Control_c, 0, 64, 79
1, 330837, Control_c, 0, 67, 39
1, 330849, Note_off_c, 0, 30, 56
1, 330852, Control_c, 0, 64, 83
1, 330852, Control_c, 0, 67, 45
1, 330867, Control_c, 0, 64, 87
1, 330867, Control_c, 0, 67, 51
1, 330881, Note_off_c, 0, 42, 55
1, 330882, Control_c, 0, 64, 91
1, 330882, Control_c, 0, 67, 56
1, 330890, Note_off_c, 0, 54, 62
1, 330897, Control_c, 0, 64, 93
1, 330897, Control_c, 0, 67, 62
1, 330911, Control_c, 0, 64, 96
1, 330911, Control_c, 0, 67, 68
1, 330926, Control_c, 0, 64, 97
1, 330926, Control_c, 0, 67, 74
1, 330941, Control_c, 0, 64, 98
1, 330941, Control_c, 0, 67, 80
1, 330946, Note_off_c, 0, 66, 59
1, 330955, Control_c, 0, 64, 99
1, 330955, Control_c, 0, 67, 85
1, 330970, Control_c, 0, 67, 89
1, 330985, Control_c, 0, 67, 92
1, 331000, Control_c, 0, 64, 99
1, 331000, Control_c, 0, 67, 94
1, 331015, Control_c, 0, 67, 97
1, 331029, Control_c, 0, 67, 101
1, 331044, Control_c, 0, 67, 106
1, 331059, Control_c, 0, 67, 112
1, 331074, Control_c, 0, 67, 117
1, 331078, Note_on_c, 0, 49, 50
1, 331089, Control_c, 0, 67, 122
1, 331103, Control_c, 0, 67, 127
1, 331118, Control_c, 0, 67, 127
1, 331229, Control_c, 0, 64, 99
1, 331242, Note_off_c, 0, 49, 59
1, 331274, Control_c, 0, 64, 98
1, 331285, Note_on_c, 0, 61, 57
1, 331318, Control_c, 0, 64, 98
1, 331325, Note_off_c, 0, 61, 54
1, 331333, Control_c, 0, 64, 97
1, 331363, Control_c, 0, 64, 97
1, 331377, Control_c, 0, 64, 96
1, 331407, Control_c, 0, 64, 96
1, 331410, Note_on_c, 0, 60, 56
1, 331422, Control_c, 0, 64, 95
1, 331437, Control_c, 0, 64, 94
1, 331452, Control_c, 0, 64, 92
1, 331461, Note_off_c, 0, 60, 56
1, 331467, Control_c, 0, 64, 90
1, 331479, Note_on_c, 0, 61, 41
1, 331481, Control_c, 0, 64, 88
1, 331496, Control_c, 0, 64, 86
1, 331508, Note_off_c, 0, 61, 54
1, 331511, Control_c, 0, 64, 83
1, 331523, Note_on_c, 0, 63, 56
1, 331526, Control_c, 0, 64, 79
1, 331541, Control_c, 0, 64, 74
1, 331555, Note_on_c, 0, 80, 64
1, 331555, Control_c, 0, 64, 66
1, 331560, Note_off_c, 0, 63, 56
1, 331570, Control_c, 0, 64, 38
1, 331575, Note_on_c, 0, 71, 46
1, 331586, Control_c, 0, 64, 0
1, 331592, Note_on_c, 0, 61, 58
1, 331646, Control_c, 0, 64, 43
1, 331660, Control_c, 0, 64, 59
1, 331675, Control_c, 0, 64, 65
1, 331690, Control_c, 0, 64, 69
1, 331705, Control_c, 0, 64, 75
1, 331716, Note_off_c, 0, 80, 56
1, 331720, Control_c, 0, 64, 81
1, 331724, Note_off_c, 0, 71, 56
1, 331734, Control_c, 0, 64, 85
1, 331742, Note_on_c, 0, 77, 62
1, 331749, Control_c, 0, 64, 87
1, 331760, Note_on_c, 0, 68, 48
1, 331764, Control_c, 0, 64, 89
1, 331778, Control_c, 0, 64, 90
1, 331791, Note_off_c, 0, 68, 53
1, 331793, Control_c, 0, 64, 90
1, 331808, Control_c, 0, 64, 91
1, 331848, Note_off_c, 0, 77, 37
1, 331859, Note_on_c, 0, 80, 65
1, 331869, Note_on_c, 0, 71, 60
1, 331911, Note_off_c, 0, 71, 59
1, 331926, Note_off_c, 0, 80, 59
1, 331982, Note_on_c, 0, 75, 71
1, 331984, Note_on_c, 0, 66, 72
1, 332015, Note_off_c, 0, 66, 67
1, 332061, Note_off_c, 0, 75, 58
1, 332103, Note_on_c, 0, 80, 69
1, 332112, Control_c, 0, 64, 90
1, 332115, Note_on_c, 0, 71, 61
1, 332116, Note_off_c, 0, 61, 50
1, 332118, Note_on_c, 0, 49, 51
1, 332128, Note_off_c, 0, 80, 69
1, 332142, Control_c, 0, 64, 90
1, 332145, Note_off_c, 0, 71, 65
1, 332171, Control_c, 0, 64, 89
1, 332186, Control_c, 0, 64, 89
1, 332216, Control_c, 0, 64, 88
1, 332221, Note_off_c, 0, 49, 0
1, 332224, Note_on_c, 0, 61, 63
1, 332231, Control_c, 0, 64, 88
1, 332234, Note_on_c, 0, 73, 64
1, 332245, Control_c, 0, 64, 87
1, 332248, Note_on_c, 0, 49, 17
1, 332260, Control_c, 0, 64, 86
1, 332263, Note_off_c, 0, 61, 56
1, 332275, Control_c, 0, 64, 86
1, 332290, Control_c, 0, 64, 85
1, 332305, Control_c, 0, 64, 84
1, 332319, Control_c, 0, 64, 84
1, 332349, Control_c, 0, 64, 83
1, 332364, Control_c, 0, 64, 83
1, 332380, Control_c, 0, 64, 82
1, 332386, Note_off_c, 0, 49, 28
1, 332395, Control_c, 0, 64, 81
1, 332409, Control_c, 0, 64, 79
1, 332417, Note_off_c, 0, 73, 56
1, 332424, Note_on_c, 0, 78, 68
1, 332424, Control_c, 0, 64, 76
1, 332439, Control_c, 0, 64, 70
1, 332441, Note_on_c, 0, 70, 53
1, 332446, Note_on_c, 0, 42, 35
1, 332454, Control_c, 0, 64, 63
1, 332468, Control_c, 0, 64, 0
1, 332573, Control_c, 0, 64, 58
1, 332588, Control_c, 0, 64, 68
1, 332588, Control_c, 0, 67, 116
1, 332602, Control_c, 0, 64, 74
1, 332602, Control_c, 0, 67, 102
1, 332617, Control_c, 0, 64, 79
1, 332617, Control_c, 0, 67, 90
1, 332632, Control_c, 0, 64, 83
1, 332632, Control_c, 0, 67, 77
1, 332632, Note_off_c, 0, 42, 53
1, 332654, Control_c, 0, 64, 85
1, 332654, Control_c, 0, 67, 68
1, 332669, Control_c, 0, 64, 88
1, 332669, Control_c, 0, 67, 60
1, 332683, Control_c, 0, 64, 90
1, 332683, Control_c, 0, 67, 55
1, 332686, Note_off_c, 0, 78, 62
1, 332690, Note_on_c, 0, 49, 54
1, 332698, Control_c, 0, 64, 93
1, 332698, Control_c, 0, 67, 56
1, 332713, Control_c, 0, 64, 95
1, 332713, Control_c, 0, 67, 58
1, 332714, Note_off_c, 0, 70, 62
1, 332728, Control_c, 0, 64, 96
1, 332728, Control_c, 0, 67, 60
1, 332743, Control_c, 0, 67, 62
1, 332758, Control_c, 0, 67, 64
1, 332773, Control_c, 0, 67, 66
1, 332787, Control_c, 0, 67, 71
1, 332802, Control_c, 0, 67, 79
1, 332817, Control_c, 0, 67, 93
1, 332832, Control_c, 0, 67, 108
1, 332843, Note_off_c, 0, 49, 54
1, 332847, Control_c, 0, 67, 116
1, 332862, Control_c, 0, 67, 122
1, 332876, Control_c, 0, 67, 127
1, 332899, Note_on_c, 0, 61, 55
1, 332966, Note_off_c, 0, 61, 41
1, 332980, Control_c, 0, 64, 96
1, 332994, Control_c, 0, 64, 95
1, 333009, Control_c, 0, 64, 95
1, 333019, Note_on_c, 0, 60, 52
1, 333039, Control_c, 0, 64, 94
1, 333054, Control_c, 0, 64, 94
1, 333068, Note_off_c, 0, 60, 58
1, 333068, Control_c, 0, 64, 93
1, 333083, Control_c, 0, 64, 91
1, 333089, Note_on_c, 0, 61, 54
1, 333098, Control_c, 0, 64, 90
1, 333113, Control_c, 0, 64, 88
1, 333127, Control_c, 0, 64, 86
1, 333128, Note_off_c, 0, 61, 61
1, 333142, Control_c, 0, 64, 84
1, 333157, Control_c, 0, 64, 82
1, 333172, Note_on_c, 0, 63, 39
1, 333173, Control_c, 0, 64, 78
1, 333178, Note_on_c, 0, 80, 66
1, 333188, Control_c, 0, 64, 73
1, 333201, Note_on_c, 0, 71, 39
1, 333203, Note_off_c, 0, 63, 52
1, 333203, Control_c, 0, 64, 67
1, 333217, Control_c, 0, 64, 58
1, 333228, Note_on_c, 0, 61, 49
1, 333232, Control_c, 0, 64, 0
1, 333291, Control_c, 0, 64, 29
1, 333306, Control_c, 0, 64, 51
1, 333321, Control_c, 0, 64, 61
1, 333336, Control_c, 0, 64, 65
1, 333351, Control_c, 0, 64, 69
1, 333352, Note_off_c, 0, 80, 58
1, 333354, Note_off_c, 0, 71, 60
1, 333366, Control_c, 0, 64, 73
1, 333369, Note_on_c, 0, 77, 57
1, 333381, Control_c, 0, 64, 77
1, 333385, Note_on_c, 0, 68, 44
1, 333403, Control_c, 0, 64, 80
1, 333417, Control_c, 0, 64, 83
1, 333431, Control_c, 0, 64, 84
1, 333446, Control_c, 0, 64, 84
1, 333452, Note_off_c, 0, 68, 44
1, 333461, Control_c, 0, 64, 85
1, 333472, Note_off_c, 0, 77, 52
1, 333476, Control_c, 0, 64, 86
1, 333491, Control_c, 0, 64, 87
1, 333506, Control_c, 0, 64, 88
1, 333515, Note_on_c, 0, 80, 69
1, 333540, Note_on_c, 0, 71, 48
1, 333568, Note_off_c, 0, 71, 55
1, 333581, Note_off_c, 0, 80, 61
1, 333646, Note_on_c, 0, 75, 67
1, 333650, Note_on_c, 0, 66, 63
1, 333685, Note_off_c, 0, 66, 49
1, 333744, Note_off_c, 0, 61, 39
1, 333789, Note_off_c, 0, 75, 52
1, 333802, Note_on_c, 0, 80, 71
1, 333815, Note_on_c, 0, 49, 46
1, 333832, Note_on_c, 0, 71, 45
1, 333862, Note_off_c, 0, 80, 61
1, 333877, Note_off_c, 0, 71, 43
1, 333893, Note_off_c, 0, 49, 57
1, 333950, Control_c, 0, 64, 87
1, 333965, Control_c, 0, 64, 87
1, 333970, Note_on_c, 0, 63, 65
1, 333978, Note_on_c, 0, 75, 60
1, 333980, Control_c, 0, 64, 86
1, 333995, Control_c, 0, 64, 86
1, 334010, Control_c, 0, 64, 85
1, 334025, Control_c, 0, 64, 85
1, 334028, Note_off_c, 0, 63, 61
1, 334039, Control_c, 0, 64, 84
1, 334054, Control_c, 0, 64, 84
1, 334069, Control_c, 0, 64, 83
1, 334084, Control_c, 0, 64, 83
1, 334099, Control_c, 0, 64, 82
1, 334114, Control_c, 0, 64, 82
1, 334129, Control_c, 0, 64, 81
1, 334151, Control_c, 0, 64, 80
1, 334162, Note_off_c, 0, 75, 55
1, 334166, Control_c, 0, 64, 79
1, 334180, Control_c, 0, 64, 78
1, 334195, Control_c, 0, 64, 77
1, 334210, Control_c, 0, 64, 76
1, 334225, Control_c, 0, 64, 75
1, 334240, Control_c, 0, 64, 72
1, 334242, Note_on_c, 0, 78, 62
1, 334254, Control_c, 0, 64, 69
1, 334257, Note_on_c, 0, 70, 45
1, 334269, Control_c, 0, 64, 64
1, 334274, Note_on_c, 0, 30, 28
1, 334280, Note_on_c, 0, 42, 34
1, 334284, Control_c, 0, 64, 45
1, 334299, Control_c, 0, 64, 0
1, 334447, Control_c, 0, 64, 18
1, 334462, Control_c, 0, 64, 62
1, 334477, Control_c, 0, 64, 69
1, 334492, Control_c, 0, 64, 74
1, 334496, Note_off_c, 0, 30, 58
1, 334506, Control_c, 0, 64, 79
1, 334521, Note_off_c, 0, 42, 57
1, 334521, Control_c, 0, 64, 84
1, 334536, Control_c, 0, 64, 87
1, 334551, Control_c, 0, 64, 90
1, 334566, Control_c, 0, 64, 92
1, 334580, Control_c, 0, 64, 94
1, 334584, Note_off_c, 0, 78, 61
1, 334595, Control_c, 0, 64, 95
1, 334629, Note_off_c, 0, 70, 61
1, 334640, Control_c, 0, 64, 95
1, 334669, Control_c, 0, 64, 96
1, 334683, Note_on_c, 0, 49, 51
1, 334934, Note_on_c, 0, 58, 58
1, 334960, Control_c, 0, 64, 95
1, 334990, Control_c, 0, 64, 95
1, 335034, Control_c, 0, 64, 94
1, 335078, Control_c, 0, 64, 94
1, 335093, Control_c, 0, 64, 93
1, 335099, Note_off_c, 0, 58, 58
1, 335122, Control_c, 0, 64, 93
1, 335137, Control_c, 0, 64, 92
1, 335152, Control_c, 0, 64, 92
1, 335167, Control_c, 0, 64, 91
1, 335182, Control_c, 0, 64, 90
1, 335196, Control_c, 0, 64, 90
1, 335211, Control_c, 0, 64, 89
1, 335226, Control_c, 0, 64, 88
1, 335241, Control_c, 0, 64, 87
1, 335256, Control_c, 0, 64, 85
1, 335271, Control_c, 0, 64, 84
1, 335282, Note_on_c, 0, 68, 57
1, 335285, Control_c, 0, 64, 82
1, 335289, Note_on_c, 0, 59, 48
1, 335300, Control_c, 0, 64, 80
1, 335315, Control_c, 0, 64, 78
1, 335330, Control_c, 0, 64, 75
1, 335345, Control_c, 0, 64, 70
1, 335360, Control_c, 0, 64, 64
1, 335364, Note_off_c, 0, 49, 31
1, 335375, Control_c, 0, 64, 28
1, 335390, Control_c, 0, 64, 0
1, 335478, Control_c, 0, 64, 48
1, 335493, Note_off_c, 0, 68, 56
1, 335493, Control_c, 0, 64, 59
1, 335496, Note_on_c, 0, 65, 53
1, 335508, Control_c, 0, 64, 64
1, 335518, Note_on_c, 0, 56, 40
1, 335522, Control_c, 0, 64, 67
1, 335537, Control_c, 0, 64, 69
1, 335552, Control_c, 0, 64, 72
1, 335568, Control_c, 0, 64, 75
1, 335583, Control_c, 0, 64, 78
1, 335598, Control_c, 0, 64, 80
1, 335612, Note_off_c, 0, 56, 38
1, 335612, Control_c, 0, 64, 82
1, 335627, Control_c, 0, 64, 84
1, 335637, Note_on_c, 0, 68, 62
1, 335649, Control_c, 0, 64, 85
1, 335660, Note_off_c, 0, 65, 36
1, 335664, Control_c, 0, 64, 86
1, 335679, Control_c, 0, 64, 87
1, 335694, Control_c, 0, 64, 87
1, 335709, Control_c, 0, 64, 88
1, 335789, Note_off_c, 0, 68, 31
1, 335792, Note_on_c, 0, 63, 49
1, 335798, Note_on_c, 0, 54, 42
1, 335813, Control_c, 0, 67, 124
1, 335827, Control_c, 0, 67, 119
1, 335842, Control_c, 0, 67, 113
1, 335857, Control_c, 0, 67, 108
1, 335872, Control_c, 0, 67, 104
1, 335873, Note_off_c, 0, 54, 51
1, 335887, Control_c, 0, 67, 102
1, 335900, Note_off_c, 0, 63, 34
1, 335901, Control_c, 0, 67, 100
1, 335902, Note_off_c, 0, 59, 37
1, 335916, Control_c, 0, 67, 98
1, 335917, Note_on_c, 0, 68, 58
1, 335931, Control_c, 0, 67, 95
1, 335945, Control_c, 0, 64, 87
1, 335945, Control_c, 0, 67, 95
1, 335954, Note_off_c, 0, 68, 47
1, 335956, Note_on_c, 0, 49, 32
1, 335960, Control_c, 0, 67, 96
1, 335975, Control_c, 0, 67, 97
1, 335990, Control_c, 0, 64, 87
1, 336019, Control_c, 0, 67, 97
1, 336034, Control_c, 0, 64, 86
1, 336034, Control_c, 0, 67, 98
1, 336049, Control_c, 0, 67, 98
1, 336064, Control_c, 0, 67, 99
1, 336071, Note_on_c, 0, 61, 59
1, 336078, Control_c, 0, 64, 86
1, 336078, Control_c, 0, 67, 100
1, 336084, Note_on_c, 0, 53, 48
1, 336093, Control_c, 0, 67, 101
1, 336108, Control_c, 0, 64, 85
1, 336108, Control_c, 0, 67, 102
1, 336111, Note_off_c, 0, 49, 40
1, 336123, Control_c, 0, 64, 85
1, 336123, Control_c, 0, 67, 102
1, 336138, Control_c, 0, 64, 84
1, 336138, Control_c, 0, 67, 103
1, 336153, Control_c, 0, 67, 103
1, 336168, Control_c, 0, 64, 84
1, 336198, Control_c, 0, 64, 83
1, 336198, Control_c, 0, 67, 104
1, 336213, Control_c, 0, 64, 83
1, 336227, Control_c, 0, 64, 82
1, 336227, Control_c, 0, 67, 104
1, 336242, Control_c, 0, 64, 82
1, 336247, Note_off_c, 0, 53, 38
1, 336257, Control_c, 0, 64, 81
1, 336271, Control_c, 0, 64, 79
1, 336286, Control_c, 0, 64, 78
1, 336299, Note_off_c, 0, 61, 36
1, 336301, Control_c, 0, 64, 75
1, 336304, Note_on_c, 0, 66, 53
1, 336316, Control_c, 0, 64, 71
1, 336316, Control_c, 0, 67, 105
1, 336317, Note_on_c, 0, 58, 42
1, 336331, Control_c, 0, 64, 65
1, 336331, Control_c, 0, 67, 105
1, 336341, Note_on_c, 0, 42, 26
1, 336345, Control_c, 0, 64, 42
1, 336360, Control_c, 0, 64, 0
1, 336360, Control_c, 0, 67, 106
1, 336376, Control_c, 0, 67, 107
1, 336398, Control_c, 0, 67, 108
1, 336413, Control_c, 0, 67, 110
1, 336428, Control_c, 0, 67, 110
1, 336442, Control_c, 0, 67, 111
1, 336457, Control_c, 0, 67, 112
1, 336472, Control_c, 0, 67, 114
1, 336487, Control_c, 0, 67, 115
1, 336502, Control_c, 0, 67, 117
1, 336517, Control_c, 0, 64, 48
1, 336517, Control_c, 0, 67, 120
1, 336531, Control_c, 0, 64, 64
1, 336531, Control_c, 0, 67, 122
1, 336546, Control_c, 0, 64, 67
1, 336546, Control_c, 0, 67, 125
1, 336561, Control_c, 0, 64, 71
1, 336561, Control_c, 0, 67, 126
1, 336576, Control_c, 0, 64, 74
1, 336576, Control_c, 0, 67, 127
1, 336591, Control_c, 0, 64, 78
1, 336606, Control_c, 0, 64, 81
1, 336621, Control_c, 0, 64, 83
1, 336636, Control_c, 0, 64, 85
1, 336647, Note_off_c, 0, 66, 55
1, 336650, Control_c, 0, 64, 86
1, 336653, Note_on_c, 0, 49, 46
1, 336662, Note_off_c, 0, 42, 39
1, 336663, Note_off_c, 0, 58, 54
1, 336665, Control_c, 0, 64, 87
1, 336739, Control_c, 0, 64, 88
1, 336948, Note_on_c, 0, 58, 58
1, 337005, Control_c, 0, 64, 87
1, 337192, Control_c, 0, 64, 87
1, 337193, Note_off_c, 0, 58, 57
1, 337280, Control_c, 0, 64, 86
1, 337310, Control_c, 0, 64, 86
1, 337324, Control_c, 0, 64, 85
1, 337354, Control_c, 0, 64, 84
1, 337369, Control_c, 0, 64, 84
1, 337384, Control_c, 0, 64, 83
1, 337399, Control_c, 0, 64, 82
1, 337408, Note_on_c, 0, 59, 47
1, 337408, Note_on_c, 0, 68, 52
1, 337414, Control_c, 0, 64, 81
1, 337429, Control_c, 0, 64, 80
1, 337444, Control_c, 0, 64, 79
1, 337459, Control_c, 0, 64, 76
1, 337473, Control_c, 0, 64, 72
1, 337476, Note_off_c, 0, 49, 31
1, 337488, Control_c, 0, 64, 67
1, 337503, Control_c, 0, 64, 59
1, 337517, Control_c, 0, 64, 36
1, 337532, Control_c, 0, 64, 10
1, 337591, Control_c, 0, 64, 23
1, 337606, Control_c, 0, 64, 38
1, 337621, Control_c, 0, 64, 52
1, 337636, Control_c, 0, 64, 60
1, 337639, Note_off_c, 0, 68, 53
1, 337651, Control_c, 0, 64, 64
1, 337665, Control_c, 0, 64, 66
1, 337680, Note_on_c, 0, 56, 37
1, 337680, Control_c, 0, 64, 70
1, 337681, Note_on_c, 0, 65, 41
1, 337695, Control_c, 0, 64, 74
1, 337709, Control_c, 0, 64, 78
1, 337724, Control_c, 0, 64, 81
1, 337739, Control_c, 0, 64, 82
1, 337754, Control_c, 0, 64, 84
1, 337769, Control_c, 0, 64, 86
1, 337783, Control_c, 0, 64, 87
1, 337798, Control_c, 0, 64, 88
1, 337813, Control_c, 0, 64, 88
1, 337829, Note_off_c, 0, 56, 28
1, 337852, Note_on_c, 0, 68, 47
1, 337857, Note_off_c, 0, 65, 39
1, 337989, Note_off_c, 0, 68, 38
1, 338037, Note_on_c, 0, 54, 33
1, 338087, Note_off_c, 0, 59, 36
1, 338210, Note_off_c, 0, 54, 19
1, 338222, Note_on_c, 0, 68, 39
1, 338228, Note_on_c, 0, 49, 33
1, 338253, Note_off_c, 0, 68, 51
1, 338379, Note_off_c, 0, 49, 36
1, 338384, Control_c, 0, 64, 88
1, 338443, Control_c, 0, 64, 87
1, 338462, Note_on_c, 0, 61, 40
1, 338471, Note_on_c, 0, 53, 33
1, 338472, Control_c, 0, 64, 87
1, 338502, Control_c, 0, 64, 86
1, 338576, Control_c, 0, 64, 86
1, 338643, Control_c, 0, 64, 85
1, 338666, Note_off_c, 0, 53, 35
1, 338688, Control_c, 0, 64, 85
1, 338703, Control_c, 0, 64, 84
1, 338747, Control_c, 0, 64, 84
1, 338756, Note_off_c, 0, 61, 32
1, 338808, Control_c, 0, 64, 83
1, 338837, Control_c, 0, 64, 82
1, 338852, Control_c, 0, 64, 82
1, 338867, Control_c, 0, 64, 81
1, 338882, Control_c, 0, 64, 79
1, 338886, Note_on_c, 0, 66, 39
1, 338888, Note_on_c, 0, 42, 28
1, 338892, Note_on_c, 0, 30, 26
1, 338896, Control_c, 0, 64, 78
1, 338902, Note_on_c, 0, 58, 31
1, 338911, Control_c, 0, 64, 76
1, 338926, Control_c, 0, 64, 74
1, 338941, Control_c, 0, 64, 72
1, 338956, Control_c, 0, 64, 68
1, 338970, Control_c, 0, 64, 64
1, 338985, Control_c, 0, 64, 55
1, 339000, Control_c, 0, 64, 20
1, 339015, Control_c, 0, 64, 0
1, 339163, Control_c, 0, 64, 18
1, 339178, Control_c, 0, 64, 38
1, 339193, Control_c, 0, 64, 46
1, 339208, Control_c, 0, 64, 54
1, 339223, Control_c, 0, 64, 59
1, 339237, Control_c, 0, 64, 63
1, 339252, Control_c, 0, 64, 65
1, 339267, Control_c, 0, 64, 67
1, 339282, Control_c, 0, 64, 69
1, 339296, Control_c, 0, 64, 71
1, 339311, Control_c, 0, 64, 74
1, 339326, Control_c, 0, 64, 77
1, 339341, Control_c, 0, 64, 80
1, 339356, Control_c, 0, 64, 82
1, 339370, Control_c, 0, 64, 84
1, 339393, Control_c, 0, 64, 84
1, 339408, Control_c, 0, 64, 85
1, 339423, Control_c, 0, 64, 86
1, 339438, Control_c, 0, 64, 86
1, 339444, Note_off_c, 0, 66, 40
1, 339462, Note_off_c, 0, 58, 34
1, 339467, Control_c, 0, 64, 87
1, 339476, Note_off_c, 0, 30, 40
1, 339496, Control_c, 0, 64, 88
1, 339511, Control_c, 0, 64, 89
1, 339526, Control_c, 0, 64, 89
1, 339541, Control_c, 0, 64, 90
1, 339552, Note_off_c, 0, 42, 37
1, 339601, Control_c, 0, 64, 90
1, 340093, Note_on_c, 0, 58, 50
1, 340117, Note_on_c, 0, 49, 36
1, 340121, Note_on_c, 0, 54, 33
1, 340311, Note_off_c, 0, 54, 39
1, 340434, Note_off_c, 0, 58, 37
1, 340528, Control_c, 0, 64, 90
1, 340572, Control_c, 0, 64, 89
1, 340587, Control_c, 0, 64, 89
1, 340602, Control_c, 0, 64, 88
1, 340616, Control_c, 0, 64, 87
1, 340627, Note_on_c, 0, 59, 55
1, 340627, Note_off_c, 0, 49, 38
1, 340631, Control_c, 0, 64, 86
1, 340646, Control_c, 0, 64, 85
1, 340661, Control_c, 0, 64, 83
1, 340663, Note_on_c, 0, 54, 39
1, 340670, Note_on_c, 0, 51, 30
1, 340676, Control_c, 0, 64, 81
1, 340690, Control_c, 0, 64, 79
1, 340705, Control_c, 0, 64, 76
1, 340720, Control_c, 0, 64, 73
1, 340735, Control_c, 0, 64, 69
1, 340749, Control_c, 0, 64, 65
1, 340764, Control_c, 0, 64, 59
1, 340779, Control_c, 0, 64, 48
1, 340794, Control_c, 0, 64, 43
1, 340824, Control_c, 0, 64, 44
1, 340839, Control_c, 0, 64, 46
1, 340854, Control_c, 0, 64, 50
1, 340868, Control_c, 0, 64, 56
1, 340877, Note_on_c, 0, 63, 32
1, 340890, Control_c, 0, 64, 60
1, 340905, Control_c, 0, 64, 63
1, 340920, Control_c, 0, 64, 65
1, 340935, Control_c, 0, 64, 67
1, 340949, Note_off_c, 0, 63, 45
1, 340949, Control_c, 0, 64, 69
1, 340964, Control_c, 0, 64, 71
1, 340979, Control_c, 0, 64, 74
1, 340983, Note_on_c, 0, 65, 44
1, 340994, Control_c, 0, 64, 78
1, 341009, Control_c, 0, 64, 80
1, 341024, Control_c, 0, 64, 81
1, 341039, Control_c, 0, 64, 82
1, 341053, Note_off_c, 0, 65, 42
1, 341053, Control_c, 0, 64, 83
1, 341068, Control_c, 0, 64, 83
1, 341072, Note_on_c, 0, 66, 51
1, 341083, Control_c, 0, 64, 84
1, 341158, Note_on_c, 0, 68, 52
1, 341170, Note_off_c, 0, 66, 38
1, 341172, Note_off_c, 0, 59, 61
1, 341236, Note_on_c, 0, 70, 48
1, 341244, Note_off_c, 0, 68, 38
1, 341247, Note_off_c, 0, 54, 41
1, 341262, Note_off_c, 0, 70, 57
1, 341313, Note_on_c, 0, 71, 48
1, 341373, Note_off_c, 0, 71, 40
1, 341381, Note_on_c, 0, 58, 61
1, 341390, Note_on_c, 0, 54, 40
1, 341395, Note_on_c, 0, 72, 53
1, 341413, Note_off_c, 0, 51, 37
1, 341415, Note_on_c, 0, 49, 39
1, 341438, Note_off_c, 0, 72, 50
1, 341469, Control_c, 0, 64, 83
1, 341474, Note_on_c, 0, 73, 50
1, 341532, Note_off_c, 0, 73, 39
1, 341533, Note_off_c, 0, 54, 54
1, 341537, Note_off_c, 0, 58, 56
1, 341543, Control_c, 0, 64, 83
1, 341558, Note_on_c, 0, 78, 47
1, 341572, Control_c, 0, 64, 82
1, 341602, Control_c, 0, 64, 82
1, 341611, Note_off_c, 0, 78, 43
1, 341639, Control_c, 0, 64, 81
1, 341645, Note_on_c, 0, 75, 48
1, 341654, Control_c, 0, 64, 81
1, 341684, Control_c, 0, 64, 80
1, 341698, Control_c, 0, 64, 80
1, 341712, Note_off_c, 0, 75, 42
1, 341713, Control_c, 0, 64, 79
1, 341728, Control_c, 0, 64, 79
1, 341736, Note_on_c, 0, 73, 51
1, 341743, Control_c, 0, 64, 78
1, 341756, Note_on_c, 0, 56, 53
1, 341758, Note_off_c, 0, 49, 37
1, 341758, Control_c, 0, 64, 76
1, 341771, Note_on_c, 0, 47, 32
1, 341772, Control_c, 0, 64, 75
1, 341783, Note_on_c, 0, 54, 41
1, 341787, Control_c, 0, 64, 72
1, 341802, Control_c, 0, 64, 67
1, 341810, Note_off_c, 0, 73, 54
1, 341817, Control_c, 0, 64, 60
1, 341832, Control_c, 0, 64, 32
1, 341846, Control_c, 0, 64, 18
1, 341849, Note_on_c, 0, 75, 57
1, 341861, Control_c, 0, 64, 38
1, 341876, Control_c, 0, 64, 49
1, 341891, Control_c, 0, 64, 57
1, 341906, Control_c, 0, 64, 61
1, 341909, Note_off_c, 0, 75, 59
1, 341921, Control_c, 0, 64, 64
1, 341927, Note_on_c, 0, 73, 57
1, 341936, Control_c, 0, 64, 66
1, 341951, Control_c, 0, 64, 69
1, 341966, Control_c, 0, 64, 72
1, 341972, Note_off_c, 0, 73, 62
1, 341981, Control_c, 0, 64, 76
1, 341995, Control_c, 0, 64, 80
1, 341998, Note_on_c, 0, 70, 62
1, 342010, Control_c, 0, 64, 82
1, 342025, Control_c, 0, 64, 83
1, 342033, Note_off_c, 0, 70, 64
1, 342040, Control_c, 0, 64, 85
1, 342055, Control_c, 0, 64, 86
1, 342055, Note_on_c, 0, 68, 69
1, 342070, Control_c, 0, 64, 87
1, 342085, Control_c, 0, 64, 87
1, 342110, Note_off_c, 0, 68, 57
1, 342123, Note_on_c, 0, 70, 69
1, 342139, Note_off_c, 0, 56, 44
1, 342147, Note_off_c, 0, 54, 53
1, 342195, Note_off_c, 0, 70, 58
1, 342197, Note_on_c, 0, 68, 60
1, 342227, Note_off_c, 0, 68, 51
1, 342266, Note_on_c, 0, 66, 66
1, 342303, Note_off_c, 0, 66, 60
1, 342305, Note_on_c, 0, 58, 65
1, 342331, Note_on_c, 0, 49, 47
1, 342340, Note_on_c, 0, 63, 62
1, 342340, Note_off_c, 0, 47, 38
1, 342349, Note_on_c, 0, 54, 36
1, 342369, Note_off_c, 0, 63, 59
1, 342423, Note_off_c, 0, 54, 51
1, 342456, Note_on_c, 0, 63, 69
1, 342465, Poly_aftertouch_c, 0, 66, 127
1, 342492, Poly_aftertouch_c, 0, 66, 0
1, 342505, Control_c, 0, 64, 87
1, 342508, Note_off_c, 0, 58, 47
1, 342510, Poly_aftertouch_c, 0, 65, 0
1, 342515, Note_off_c, 0, 63, 63
1, 342520, Control_c, 0, 64, 86
1, 342521, Note_on_c, 0, 61, 69
1, 342535, Control_c, 0, 64, 86
1, 342550, Control_c, 0, 64, 85
1, 342553, Note_off_c, 0, 61, 61
1, 342565, Control_c, 0, 64, 84
1, 342575, Note_off_c, 0, 49, 36
1, 342580, Control_c, 0, 64, 82
1, 342594, Note_on_c, 0, 59, 71
1, 342595, Control_c, 0, 64, 78
1, 342610, Control_c, 0, 64, 72
1, 342611, Note_on_c, 0, 54, 47
1, 342624, Note_on_c, 0, 51, 43
1, 342624, Control_c, 0, 64, 66
1, 342639, Control_c, 0, 64, 47
1, 342654, Control_c, 0, 64, 0
1, 342688, Note_on_c, 0, 63, 56
1, 342726, Note_off_c, 0, 63, 59
1, 342759, Control_c, 0, 64, 57
1, 342772, Note_on_c, 0, 65, 51
1, 342773, Control_c, 0, 64, 65
1, 342788, Control_c, 0, 64, 68
1, 342803, Control_c, 0, 64, 72
1, 342818, Control_c, 0, 64, 76
1, 342823, Note_off_c, 0, 65, 63
1, 342827, Note_on_c, 0, 66, 69
1, 342833, Control_c, 0, 64, 80
1, 342848, Control_c, 0, 64, 83
1, 342863, Control_c, 0, 64, 84
1, 342875, Note_off_c, 0, 59, 52
1, 342876, Note_off_c, 0, 51, 61
1, 342878, Control_c, 0, 64, 85
1, 342890, Note_off_c, 0, 54, 56
1, 342892, Control_c, 0, 64, 86
1, 342899, Note_on_c, 0, 68, 67
1, 342899, Note_off_c, 0, 66, 63
1, 342907, Control_c, 0, 64, 87
1, 342922, Control_c, 0, 64, 88
1, 342936, Control_c, 0, 64, 88
1, 342960, Note_off_c, 0, 68, 62
1, 342964, Note_on_c, 0, 70, 65
1, 342992, Note_off_c, 0, 70, 69
1, 343046, Note_on_c, 0, 71, 53
1, 343075, Note_off_c, 0, 71, 50
1, 343164, Note_on_c, 0, 63, 65
1, 343176, Note_on_c, 0, 59, 51
1, 343200, Note_on_c, 0, 75, 65
1, 343224, Poly_aftertouch_c, 0, 74, 0
1, 343236, Note_off_c, 0, 75, 64
1, 343254, Control_c, 0, 64, 88
1, 343256, Poly_aftertouch_c, 0, 54, 127
1, 343283, Note_on_c, 0, 77, 66
1, 343301, Poly_aftertouch_c, 0, 54, 0
1, 343308, Note_off_c, 0, 59, 55
1, 343343, Control_c, 0, 64, 87
1, 343351, Note_off_c, 0, 77, 50
1, 343355, Note_on_c, 0, 78, 69
1, 343388, Control_c, 0, 64, 87
1, 343428, Note_off_c, 0, 78, 57
1, 343432, Control_c, 0, 64, 86
1, 343433, Note_on_c, 0, 83, 66
1, 343447, Control_c, 0, 64, 86
1, 343462, Control_c, 0, 64, 85
1, 343477, Control_c, 0, 64, 85
1, 343492, Control_c, 0, 64, 83
1, 343507, Control_c, 0, 64, 82
1, 343522, Control_c, 0, 64, 80
1, 343536, Control_c, 0, 64, 78
1, 343550, Note_off_c, 0, 63, 58
1, 343551, Note_off_c, 0, 83, 57
1, 343551, Control_c, 0, 64, 75
1, 343557, Note_on_c, 0, 61, 54
1, 343557, Note_on_c, 0, 82, 57
1, 343566, Control_c, 0, 64, 71
1, 343578, Note_on_c, 0, 58, 42
1, 343581, Control_c, 0, 64, 66
1, 343596, Control_c, 0, 64, 53
1, 343599, Note_on_c, 0, 54, 41
1, 343611, Control_c, 0, 64, 0
1, 343644, Note_off_c, 0, 82, 63
1, 343659, Note_on_c, 0, 78, 57
1, 343689, Note_off_c, 0, 78, 55
1, 343730, Control_c, 0, 64, 59
1, 343730, Note_on_c, 0, 77, 52
1, 343745, Control_c, 0, 64, 67
1, 343757, Note_off_c, 0, 77, 53
1, 343759, Control_c, 0, 64, 71
1, 343774, Control_c, 0, 64, 74
1, 343789, Control_c, 0, 64, 77
1, 343801, Note_on_c, 0, 75, 61
1, 343804, Control_c, 0, 64, 80
1, 343819, Control_c, 0, 64, 83
1, 343833, Control_c, 0, 64, 85
1, 343848, Control_c, 0, 64, 87
1, 343849, Note_off_c, 0, 75, 58
1, 343882, Note_on_c, 0, 78, 62
1, 343885, Control_c, 0, 64, 87
1, 343888, Note_off_c, 0, 58, 60
1, 343910, Note_off_c, 0, 54, 52
1, 343930, Note_off_c, 0, 61, 0
1, 343944, Note_off_c, 0, 78, 48
1, 343961, Note_on_c, 0, 75, 60
1, 343996, Note_off_c, 0, 75, 63
1, 344000, Poly_aftertouch_c, 0, 61, 0
1, 344034, Note_on_c, 0, 73, 56
1, 344055, Note_off_c, 0, 73, 60
1, 344085, Note_on_c, 0, 71, 58
1, 344106, Control_c, 0, 64, 87
1, 344148, Note_off_c, 0, 71, 41
1, 344163, Note_on_c, 0, 70, 57
1, 344172, Note_on_c, 0, 61, 58
1, 344186, Note_on_c, 0, 49, 43
1, 344225, Control_c, 0, 64, 86
1, 344231, Note_on_c, 0, 68, 54
1, 344240, Note_off_c, 0, 70, 58
1, 344255, Control_c, 0, 64, 86
1, 344284, Control_c, 0, 64, 85
1, 344285, Note_off_c, 0, 61, 56
1, 344286, Note_off_c, 0, 68, 57
1, 344299, Control_c, 0, 64, 85
1, 344306, Note_on_c, 0, 66, 58
1, 344314, Control_c, 0, 64, 84
1, 344329, Control_c, 0, 64, 84
1, 344361, Note_off_c, 0, 66, 52
1, 344374, Control_c, 0, 64, 83
1, 344389, Control_c, 0, 64, 83
1, 344389, Note_on_c, 0, 70, 63
1, 344404, Control_c, 0, 64, 82
1, 344419, Control_c, 0, 64, 81
1, 344434, Control_c, 0, 64, 80
1, 344444, Note_off_c, 0, 70, 60
1, 344449, Control_c, 0, 64, 78
1, 344463, Control_c, 0, 64, 76
1, 344478, Control_c, 0, 64, 72
1, 344489, Note_on_c, 0, 63, 60
1, 344492, Note_off_c, 0, 49, 31
1, 344493, Control_c, 0, 64, 66
1, 344497, Note_on_c, 0, 71, 56
1, 344506, Note_on_c, 0, 54, 43
1, 344507, Control_c, 0, 64, 44
1, 344522, Control_c, 0, 64, 0
1, 344563, Note_off_c, 0, 71, 56
1, 344567, Control_c, 0, 64, 36
1, 344578, Note_on_c, 0, 73, 58
1, 344581, Control_c, 0, 64, 55
1, 344596, Control_c, 0, 64, 62
1, 344611, Control_c, 0, 64, 66
1, 344634, Control_c, 0, 64, 70
1, 344649, Control_c, 0, 64, 73
1, 344652, Note_off_c, 0, 73, 62
1, 344663, Control_c, 0, 64, 77
1, 344664, Note_on_c, 0, 75, 56
1, 344678, Control_c, 0, 64, 80
1, 344693, Control_c, 0, 64, 81
1, 344708, Note_off_c, 0, 75, 63
1, 344708, Control_c, 0, 64, 82
1, 344723, Control_c, 0, 64, 82
1, 344738, Control_c, 0, 64, 83
1, 344747, Note_on_c, 0, 77, 65
1, 344807, Note_off_c, 0, 77, 54
1, 344822, Note_on_c, 0, 78, 68
1, 344847, Note_off_c, 0, 63, 64
1, 344898, Note_off_c, 0, 78, 59
1, 344901, Note_on_c, 0, 80, 69
1, 344960, Control_c, 0, 64, 82
1, 344972, Note_off_c, 0, 80, 54
1, 344986, Note_on_c, 0, 82, 65
1, 345019, Control_c, 0, 64, 82
1, 345036, Note_off_c, 0, 82, 60
1, 345048, Control_c, 0, 64, 81
1, 345063, Control_c, 0, 64, 80
1, 345076, Note_on_c, 0, 83, 54
1, 345078, Control_c, 0, 64, 78
1, 345093, Control_c, 0, 64, 75
1, 345108, Control_c, 0, 64, 73
1, 345116, Note_off_c, 0, 54, 45
1, 345122, Control_c, 0, 64, 69
1, 345137, Control_c, 0, 64, 63
1, 345153, Control_c, 0, 64, 47
1, 345158, Note_off_c, 0, 83, 43
1, 345159, Note_on_c, 0, 61, 49
1, 345168, Note_on_c, 0, 84, 63
1, 345168, Control_c, 0, 64, 0
1, 345169, Note_on_c, 0, 49, 40
1, 345176, Note_on_c, 0, 58, 39
1, 345197, Control_c, 0, 64, 18
1, 345212, Control_c, 0, 64, 51
1, 345227, Control_c, 0, 64, 61
1, 345242, Control_c, 0, 64, 65
1, 345245, Note_off_c, 0, 84, 63
1, 345257, Control_c, 0, 64, 68
1, 345259, Note_on_c, 0, 85, 57
1, 345271, Control_c, 0, 64, 72
1, 345286, Control_c, 0, 64, 76
1, 345301, Control_c, 0, 64, 79
1, 345316, Control_c, 0, 64, 82
1, 345318, Note_off_c, 0, 49, 51
1, 345323, Note_off_c, 0, 58, 62
1, 345331, Control_c, 0, 64, 83
1, 345344, Note_off_c, 0, 61, 61
1, 345346, Note_off_c, 0, 85, 61
1, 345361, Note_on_c, 0, 90, 60
1, 345451, Note_off_c, 0, 90, 55
1, 345471, Note_on_c, 0, 87, 58
1, 345561, Control_c, 0, 64, 83
1, 345576, Control_c, 0, 64, 82
1, 345590, Control_c, 0, 64, 82
1, 345599, Note_off_c, 0, 87, 41
1, 345605, Control_c, 0, 64, 80
1, 345615, Note_on_c, 0, 85, 55
1, 345620, Control_c, 0, 64, 77
1, 345632, Note_on_c, 0, 70, 58
1, 345635, Control_c, 0, 64, 74
1, 345650, Control_c, 0, 64, 71
1, 345653, Note_on_c, 0, 61, 34
1, 345664, Control_c, 0, 64, 66
1, 345665, Note_on_c, 0, 58, 27
1, 345679, Control_c, 0, 64, 61
1, 345694, Control_c, 0, 64, 44
1, 345709, Control_c, 0, 64, 0
1, 345732, Note_off_c, 0, 85, 53
1, 345738, Control_c, 0, 64, 32
1, 345753, Control_c, 0, 64, 49
1, 345765, Note_on_c, 0, 87, 45
1, 345768, Control_c, 0, 64, 58
1, 345783, Control_c, 0, 64, 63
1, 345798, Control_c, 0, 64, 65
1, 345812, Control_c, 0, 64, 69
1, 345827, Control_c, 0, 64, 73
1, 345842, Control_c, 0, 64, 77
1, 345852, Note_on_c, 0, 85, 61
1, 345852, Note_off_c, 0, 87, 58
1, 345856, Control_c, 0, 64, 81
1, 345871, Control_c, 0, 64, 84
1, 345886, Control_c, 0, 64, 87
1, 345901, Control_c, 0, 64, 89
1, 345915, Note_off_c, 0, 85, 57
1, 345916, Control_c, 0, 64, 91
1, 345916, Control_c, 0, 67, 125
1, 345930, Control_c, 0, 64, 92
1, 345930, Control_c, 0, 67, 123
1, 345946, Control_c, 0, 64, 92
1, 345946, Control_c, 0, 67, 121
1, 345948, Note_on_c, 0, 82, 52
1, 345961, Control_c, 0, 67, 118
1, 345976, Control_c, 0, 67, 115
1, 345984, Note_off_c, 0, 82, 51
1, 345991, Control_c, 0, 67, 113
1, 346006, Control_c, 0, 67, 111
1, 346020, Note_on_c, 0, 80, 61
1, 346020, Control_c, 0, 67, 111
1, 346035, Control_c, 0, 67, 110
1, 346042, Note_off_c, 0, 58, 52
1, 346062, Note_off_c, 0, 80, 49
1, 346064, Note_off_c, 0, 61, 40
1, 346098, Note_on_c, 0, 82, 56
1, 346132, Control_c, 0, 67, 110
1, 346161, Control_c, 0, 67, 110
1, 346194, Note_on_c, 0, 80, 57
1, 346198, Note_off_c, 0, 82, 52
1, 346256, Note_off_c, 0, 80, 57
1, 346280, Note_on_c, 0, 78, 57
1, 346316, Note_off_c, 0, 78, 49
1, 346324, Control_c, 0, 64, 92
1, 346370, Note_on_c, 0, 66, 55
1, 346371, Note_on_c, 0, 75, 51
1, 346383, Control_c, 0, 67, 111
1, 346407, Note_on_c, 0, 61, 28
1, 346407, Note_on_c, 0, 58, 31
1, 346409, Note_off_c, 0, 70, 32
1, 346413, Note_off_c, 0, 75, 52
1, 346428, Control_c, 0, 67, 111
1, 346443, Control_c, 0, 64, 91
1, 346452, Note_on_c, 0, 78, 57
1, 346473, Control_c, 0, 67, 112
1, 346487, Control_c, 0, 67, 112
1, 346515, Note_off_c, 0, 61, 45
1, 346532, Control_c, 0, 64, 91
1, 346568, Note_off_c, 0, 58, 39
1, 346576, Control_c, 0, 67, 113
1, 346584, Note_off_c, 0, 78, 49
1, 346586, Note_off_c, 0, 66, 40
1, 346587, Note_on_c, 0, 75, 43
1, 346621, Control_c, 0, 64, 90
1, 346650, Control_c, 0, 67, 112
1, 346665, Control_c, 0, 64, 90
1, 346672, Note_on_c, 0, 73, 52
1, 346684, Note_off_c, 0, 75, 35
1, 346694, Control_c, 0, 64, 89
1, 346709, Control_c, 0, 64, 89
1, 346724, Control_c, 0, 64, 88
1, 346739, Control_c, 0, 64, 88
1, 346755, Control_c, 0, 64, 87
1, 346755, Control_c, 0, 67, 113
1, 346770, Control_c, 0, 64, 87
1, 346784, Control_c, 0, 64, 86
1, 346799, Control_c, 0, 64, 85
1, 346814, Control_c, 0, 64, 84
1, 346819, Note_on_c, 0, 66, 48
1, 346827, Note_off_c, 0, 73, 47
1, 346829, Control_c, 0, 64, 83
1, 346832, Note_on_c, 0, 56, 43
1, 346840, Note_on_c, 0, 63, 38
1, 346843, Control_c, 0, 64, 81
1, 346858, Control_c, 0, 64, 77
1, 346881, Control_c, 0, 64, 70
1, 346888, Note_on_c, 0, 71, 38
1, 346896, Control_c, 0, 64, 60
1, 346910, Control_c, 0, 64, 0
1, 346955, Control_c, 0, 67, 112
1, 346999, Control_c, 0, 64, 30
1, 347014, Control_c, 0, 64, 59
1, 347029, Control_c, 0, 64, 65
1, 347029, Control_c, 0, 67, 112
1, 347042, Note_on_c, 0, 75, 47
1, 347044, Control_c, 0, 64, 69
1, 347045, Note_off_c, 0, 71, 40
1, 347058, Control_c, 0, 64, 74
1, 347058, Control_c, 0, 67, 111
1, 347073, Control_c, 0, 64, 78
1, 347088, Control_c, 0, 64, 80
1, 347102, Control_c, 0, 64, 81
1, 347117, Control_c, 0, 64, 83
1, 347132, Note_off_c, 0, 75, 61
1, 347132, Control_c, 0, 64, 83
1, 347132, Control_c, 0, 67, 111
1, 347134, Note_on_c, 0, 78, 58
1, 347147, Control_c, 0, 64, 84
1, 347162, Control_c, 0, 64, 86
1, 347176, Control_c, 0, 64, 86
1, 347191, Note_off_c, 0, 78, 41
1, 347191, Control_c, 0, 64, 87
1, 347206, Control_c, 0, 67, 110
1, 347246, Note_on_c, 0, 82, 47
1, 347284, Note_off_c, 0, 82, 49
1, 347310, Control_c, 0, 67, 110
1, 347335, Note_off_c, 0, 56, 53
1, 347340, Control_c, 0, 67, 109
1, 347355, Note_on_c, 0, 83, 53
1, 347370, Control_c, 0, 67, 109
1, 347385, Note_off_c, 0, 66, 56
1, 347443, Control_c, 0, 67, 108
1, 347458, Control_c, 0, 67, 108
1, 347459, Note_off_c, 0, 83, 46
1, 347470, Note_on_c, 0, 85, 57
1, 347473, Control_c, 0, 67, 105
1, 347488, Control_c, 0, 67, 104
1, 347502, Control_c, 0, 67, 104
1, 347584, Note_on_c, 0, 87, 61
1, 347597, Note_off_c, 0, 85, 34
1, 347650, Note_off_c, 0, 87, 53
1, 347659, Control_c, 0, 64, 86
1, 347695, Note_off_c, 0, 63, 41
1, 347710, Note_on_c, 0, 89, 61
1, 347733, Control_c, 0, 64, 86
1, 347733, Control_c, 0, 67, 103
1, 347748, Control_c, 0, 64, 85
1, 347778, Control_c, 0, 64, 84
1, 347793, Control_c, 0, 64, 84
1, 347807, Control_c, 0, 64, 83
1, 347822, Control_c, 0, 64, 81
1, 347837, Control_c, 0, 64, 77
1, 347851, Control_c, 0, 64, 73
1, 347851, Control_c, 0, 67, 103
1, 347866, Control_c, 0, 64, 67
1, 347872, Note_on_c, 0, 90, 53
1, 347874, Note_off_c, 0, 89, 36
1, 347881, Control_c, 0, 64, 56
1, 347883, Note_on_c, 0, 71, 35
1, 347886, Note_on_c, 0, 61, 33
1, 347892, Note_on_c, 0, 65, 30
1, 347896, Control_c, 0, 64, 0
1, 347896, Control_c, 0, 67, 102
1, 347925, Control_c, 0, 64, 36
1, 347925, Control_c, 0, 67, 102
1, 347940, Control_c, 0, 64, 53
1, 347940, Control_c, 0, 67, 100
1, 347955, Control_c, 0, 64, 59
1, 347955, Control_c, 0, 67, 98
1, 347970, Control_c, 0, 64, 63
1, 347970, Control_c, 0, 67, 97
1, 347985, Control_c, 0, 64, 66
1, 347985, Control_c, 0, 67, 94
1, 347999, Control_c, 0, 64, 69
1, 347999, Control_c, 0, 67, 91
1, 348014, Control_c, 0, 64, 74
1, 348014, Control_c, 0, 67, 88
1, 348025, Note_off_c, 0, 90, 58
1, 348029, Control_c, 0, 64, 79
1, 348029, Control_c, 0, 67, 82
1, 348035, Note_on_c, 0, 92, 56
1, 348044, Control_c, 0, 64, 83
1, 348044, Control_c, 0, 67, 77
1, 348059, Control_c, 0, 64, 85
1, 348059, Control_c, 0, 67, 70
1, 348074, Control_c, 0, 64, 86
1, 348074, Control_c, 0, 67, 63
1, 348088, Control_c, 0, 64, 87
1, 348088, Control_c, 0, 67, 56
1, 348103, Control_c, 0, 64, 88
1, 348103, Control_c, 0, 67, 49
1, 348118, Control_c, 0, 64, 89
1, 348118, Control_c, 0, 67, 40
1, 348132, Note_off_c, 0, 71, 37
1, 348133, Control_c, 0, 67, 31
1, 348148, Control_c, 0, 67, 22
1, 348163, Control_c, 0, 67, 10
1, 348178, Control_c, 0, 67, 0
1, 348196, Note_off_c, 0, 65, 41
1, 348196, Note_off_c, 0, 92, 51
1, 348210, Note_off_c, 0, 61, 53
1, 348230, Note_on_c, 0, 94, 59
1, 348329, Note_off_c, 0, 94, 57
1, 348378, Control_c, 0, 64, 88
1, 348423, Control_c, 0, 64, 88
1, 348437, Control_c, 0, 64, 87
1, 348452, Control_c, 0, 64, 87
1, 348462, Note_on_c, 0, 95, 61
1, 348467, Control_c, 0, 64, 86
1, 348482, Control_c, 0, 64, 86
1, 348497, Control_c, 0, 64, 85
1, 348512, Control_c, 0, 64, 84
1, 348527, Control_c, 0, 64, 81
1, 348542, Control_c, 0, 64, 76
1, 348556, Control_c, 0, 64, 68
1, 348571, Control_c, 0, 64, 49
1, 348577, Note_on_c, 0, 54, 40
1, 348586, Control_c, 0, 64, 0
1, 348645, Control_c, 0, 64, 18
1, 348660, Control_c, 0, 64, 61
1, 348674, Control_c, 0, 64, 67
1, 348689, Control_c, 0, 64, 73
1, 348704, Control_c, 0, 64, 78
1, 348719, Control_c, 0, 64, 81
1, 348734, Control_c, 0, 64, 84
1, 348748, Control_c, 0, 64, 86
1, 348763, Control_c, 0, 64, 88
1, 348771, Note_off_c, 0, 95, 39
1, 348778, Control_c, 0, 64, 90
1, 348793, Control_c, 0, 64, 92
1, 348795, Note_off_c, 0, 54, 48
1, 348796, Note_on_c, 0, 61, 40
1, 348808, Control_c, 0, 64, 94
1, 348822, Control_c, 0, 64, 95
1, 348837, Control_c, 0, 64, 96
1, 348852, Control_c, 0, 64, 96
1, 348867, Control_c, 0, 64, 97
1, 348881, Control_c, 0, 64, 98
1, 348896, Control_c, 0, 64, 100
1, 348911, Control_c, 0, 64, 101
1, 348926, Control_c, 0, 64, 102
1, 348941, Control_c, 0, 64, 103
1, 348956, Control_c, 0, 64, 103
1, 348971, Control_c, 0, 64, 104
1, 348986, Control_c, 0, 64, 105
1, 349001, Control_c, 0, 64, 105
1, 349010, Note_on_c, 0, 70, 42
1, 349030, Control_c, 0, 64, 106
1, 349045, Control_c, 0, 64, 106
1, 349066, Note_on_c, 0, 96, 59
1, 349089, Control_c, 0, 64, 107
1, 349104, Control_c, 0, 64, 107
1, 349126, Control_c, 0, 64, 108
1, 349141, Control_c, 0, 64, 108
1, 349157, Control_c, 0, 64, 109
1, 349201, Control_c, 0, 64, 109
1, 349275, Control_c, 0, 64, 110
1, 349290, Control_c, 0, 64, 111
1, 349305, Control_c, 0, 64, 111
1, 349320, Control_c, 0, 64, 112
1, 349334, Control_c, 0, 64, 113
1, 349349, Control_c, 0, 64, 114
1, 349364, Control_c, 0, 64, 114
1, 349379, Control_c, 0, 64, 115
1, 349382, Note_on_c, 0, 97, 64
1, 349392, Note_off_c, 0, 96, 53
1, 349618, Note_off_c, 0, 97, 25
1, 349683, Note_on_c, 0, 102, 63
1, 349790, Note_off_c, 0, 102, 58
1, 349808, Control_c, 0, 64, 115
1, 349967, Note_on_c, 0, 99, 59
1, 350113, Note_off_c, 0, 99, 62
1, 350124, Note_on_c, 0, 97, 61
1, 350193, Note_off_c, 0, 97, 63
1, 350238, Note_on_c, 0, 95, 58
1, 350276, Control_c, 0, 64, 116
1, 350278, Note_off_c, 0, 95, 58
1, 350291, Control_c, 0, 64, 116
1, 350320, Control_c, 0, 64, 117
1, 350333, Note_on_c, 0, 94, 53
1, 350350, Control_c, 0, 64, 117
1, 350365, Control_c, 0, 64, 118
1, 350394, Control_c, 0, 64, 118
1, 350424, Control_c, 0, 64, 119
1, 350431, Note_off_c, 0, 94, 52
1, 350434, Note_on_c, 0, 92, 58
1, 350453, Control_c, 0, 64, 119
1, 350468, Control_c, 0, 64, 120
1, 350478, Note_off_c, 0, 92, 58
1, 350483, Control_c, 0, 64, 121
1, 350498, Control_c, 0, 64, 121
1, 350513, Control_c, 0, 64, 122
1, 350517, Note_on_c, 0, 90, 53
1, 350527, Control_c, 0, 64, 124
1, 350542, Control_c, 0, 64, 125
1, 350557, Control_c, 0, 64, 126
1, 350563, Note_off_c, 0, 90, 62
1, 350572, Control_c, 0, 64, 127
1, 350578, Note_on_c, 0, 94, 64
1, 350630, Note_off_c, 0, 94, 57
1, 350665, Note_on_c, 0, 90, 62
1, 350695, Note_off_c, 0, 90, 66
1, 350720, Note_on_c, 0, 89, 63
1, 350750, Note_off_c, 0, 89, 59
1, 350788, Note_on_c, 0, 87, 65
1, 350824, Note_off_c, 0, 87, 59
1, 350848, Note_on_c, 0, 90, 69
1, 350908, Note_on_c, 0, 87, 73
1, 350908, Note_off_c, 0, 90, 60
1, 350953, Note_off_c, 0, 87, 61
1, 350964, Note_on_c, 0, 85, 69
1, 350989, Note_off_c, 0, 85, 68
1, 351019, Note_on_c, 0, 83, 61
1, 351052, Note_off_c, 0, 83, 56
1, 351075, Note_on_c, 0, 82, 65
1, 351118, Note_on_c, 0, 80, 72
1, 351122, Note_off_c, 0, 82, 59
1, 351123, Note_off_c, 0, 70, 36
1, 351165, Note_off_c, 0, 80, 61
1, 351171, Note_on_c, 0, 78, 73
1, 351208, Note_off_c, 0, 78, 58
1, 351224, Note_on_c, 0, 82, 69
1, 351264, Note_off_c, 0, 82, 62
1, 351276, Note_on_c, 0, 78, 68
1, 351305, Note_off_c, 0, 78, 62
1, 351305, Note_off_c, 0, 61, 36
1, 351322, Note_on_c, 0, 77, 74
1, 351357, Note_off_c, 0, 77, 51
1, 351397, Note_on_c, 0, 75, 67
1, 351438, Note_off_c, 0, 75, 62
1, 351444, Note_on_c, 0, 78, 79
1, 351496, Note_on_c, 0, 75, 72
1, 351509, Note_off_c, 0, 78, 62
1, 351545, Note_off_c, 0, 75, 66
1, 351546, Note_on_c, 0, 73, 79
1, 351595, Note_off_c, 0, 73, 59
1, 351603, Note_on_c, 0, 71, 70
1, 351654, Note_on_c, 0, 70, 79
1, 351663, Note_off_c, 0, 71, 54
1, 351708, Note_on_c, 0, 68, 81
1, 351720, Note_off_c, 0, 70, 61
1, 351754, Note_on_c, 0, 66, 75
1, 351757, Note_off_c, 0, 68, 64
1, 351804, Note_off_c, 0, 66, 63
1, 351822, Note_on_c, 0, 69, 71
1, 351829, Note_on_c, 0, 70, 43
1, 351849, Note_off_c, 0, 70, 62
1, 351850, Note_off_c, 0, 69, 67
1, 351904, Note_on_c, 0, 65, 70
1, 351955, Poly_aftertouch_c, 0, 66, 0
1, 351959, Note_off_c, 0, 65, 66
1, 351984, Note_on_c, 0, 63, 87
1, 352053, Note_on_c, 0, 66, 85
1, 352058, Note_off_c, 0, 63, 69
1, 352104, Note_on_c, 0, 63, 76
1, 352144, Note_off_c, 0, 66, 60
1, 352157, Note_off_c, 0, 63, 67
1, 352160, Note_on_c, 0, 61, 86
1, 352220, Note_on_c, 0, 59, 82
1, 352221, Note_off_c, 0, 61, 62
1, 352265, Note_off_c, 0, 59, 64
1, 352280, Note_on_c, 0, 58, 83
1, 352330, Note_on_c, 0, 56, 80
1, 352357, Note_off_c, 0, 58, 63
1, 352386, Note_on_c, 0, 54, 78
1, 352392, Note_off_c, 0, 56, 65
1, 352444, Note_on_c, 0, 58, 91
1, 352449, Note_off_c, 0, 54, 62
1, 352511, Note_on_c, 0, 54, 82
1, 352515, Note_off_c, 0, 58, 62
1, 352558, Note_on_c, 0, 53, 80
1, 352560, Note_off_c, 0, 54, 63
1, 352602, Note_off_c, 0, 53, 59
1, 352625, Note_on_c, 0, 51, 84
1, 352678, Note_off_c, 0, 51, 65
1, 352680, Note_on_c, 0, 49, 89
1, 352733, Note_off_c, 0, 49, 59
1, 352736, Note_on_c, 0, 47, 82
1, 352793, Note_on_c, 0, 46, 93
1, 352819, Note_off_c, 0, 47, 40
1, 352850, Note_on_c, 0, 44, 82
1, 352888, Note_off_c, 0, 46, 62
1, 352901, Note_off_c, 0, 44, 65
1, 352902, Note_on_c, 0, 42, 82
1, 352952, Note_on_c, 0, 41, 87
1, 352962, Note_off_c, 0, 42, 62
1, 352992, Note_off_c, 0, 41, 65
1, 353004, Control_c, 0, 64, 114
1, 353019, Control_c, 0, 64, 91
1, 353024, Note_on_c, 0, 39, 80
1, 353034, Control_c, 0, 64, 65
1, 353048, Control_c, 0, 64, 0
1, 353058, Note_on_c, 0, 38, 60
1, 353067, Note_off_c, 0, 39, 62
1, 353070, Note_on_c, 0, 37, 79
1, 353082, Note_off_c, 0, 38, 59
1, 353108, Note_off_c, 0, 37, 62
1, 353131, Note_on_c, 0, 35, 74
1, 353191, Note_on_c, 0, 32, 91
1, 353210, Note_off_c, 0, 35, 64
1, 353225, Note_off_c, 0, 32, 65
1, 353259, Note_on_c, 0, 30, 101
1, 353478, Control_c, 0, 64, 27
1, 353493, Control_c, 0, 64, 61
1, 353508, Control_c, 0, 64, 67
1, 353509, Note_off_c, 0, 30, 65
1, 353523, Control_c, 0, 64, 75
1, 353538, Control_c, 0, 64, 85
1, 353552, Control_c, 0, 64, 93
1, 353567, Control_c, 0, 64, 97
1, 353582, Control_c, 0, 64, 97
1, 353597, Control_c, 0, 64, 98
1, 353619, Control_c, 0, 64, 102
1, 353634, Control_c, 0, 64, 110
1, 353649, Control_c, 0, 64, 127
1, 353763, Note_on_c, 0, 85, 98
1, 353770, Note_on_c, 0, 73, 99
1, 353778, Note_on_c, 0, 61, 91
1, 353779, Note_on_c, 0, 49, 86
1, 353822, Note_off_c, 0, 73, 64
1, 353848, Note_off_c, 0, 49, 62
1, 353851, Note_off_c, 0, 61, 62
1, 353876, Note_off_c, 0, 85, 63
1, 354095, Note_on_c, 0, 90, 100
1, 354100, Note_on_c, 0, 78, 101
1, 354104, Note_on_c, 0, 66, 93
1, 354109, Note_on_c, 0, 54, 83
1, 354155, Note_off_c, 0, 78, 55
1, 354180, Note_off_c, 0, 66, 65
1, 354199, Note_off_c, 0, 90, 62
1, 354216, Note_off_c, 0, 54, 62
1, 354590, Control_c, 0, 64, 120
1, 354605, Control_c, 0, 64, 107
1, 354620, Control_c, 0, 64, 96
1, 354634, Control_c, 0, 64, 84
1, 354649, Control_c, 0, 64, 70
1, 354664, Control_c, 0, 64, 0
1, 354915, Note_on_c, 0, 73, 95
1, 354921, Note_on_c, 0, 61, 86
1, 354927, Note_on_c, 0, 49, 89
1, 354928, Note_on_c, 0, 37, 79
1, 354991, Control_c, 0, 64, 16
1, 355006, Control_c, 0, 64, 53
1, 355021, Control_c, 0, 64, 63
1, 355035, Control_c, 0, 64, 66
1, 355050, Control_c, 0, 64, 70
1, 355065, Control_c, 0, 64, 74
1, 355080, Control_c, 0, 64, 79
1, 355095, Control_c, 0, 64, 85
1, 355117, Control_c, 0, 64, 89
1, 355122, Note_off_c, 0, 49, 59
1, 355131, Control_c, 0, 64, 92
1, 355138, Note_off_c, 0, 61, 62
1, 355146, Control_c, 0, 64, 94
1, 355161, Control_c, 0, 64, 96
1, 355190, Control_c, 0, 64, 96
1, 355398, Control_c, 0, 64, 96
1, 355442, Control_c, 0, 64, 95
1, 355457, Control_c, 0, 64, 94
1, 355461, Note_on_c, 0, 78, 94
1, 355467, Note_on_c, 0, 66, 86
1, 355472, Control_c, 0, 64, 92
1, 355472, Note_on_c, 0, 42, 85
1, 355474, Note_on_c, 0, 30, 82
1, 355487, Control_c, 0, 64, 89
1, 355502, Control_c, 0, 64, 85
1, 355503, Note_off_c, 0, 73, 56
1, 355514, Note_off_c, 0, 37, 50
1, 355516, Control_c, 0, 64, 80
1, 355532, Control_c, 0, 64, 75
1, 355547, Control_c, 0, 64, 69
1, 355562, Control_c, 0, 64, 61
1, 355576, Control_c, 0, 64, 0
1, 356533, Control_c, 0, 64, 34
1, 356548, Control_c, 0, 64, 52
1, 356562, Control_c, 0, 64, 58
1, 356577, Control_c, 0, 64, 61
1, 356592, Control_c, 0, 64, 61
1, 356629, Control_c, 0, 64, 62
1, 356673, Control_c, 0, 64, 63
1, 356688, Control_c, 0, 64, 63
1, 356703, Control_c, 0, 64, 64
1, 356718, Control_c, 0, 64, 65
1, 356733, Control_c, 0, 64, 65
1, 356762, Control_c, 0, 64, 65
1, 356792, Control_c, 0, 64, 64
1, 356821, Control_c, 0, 64, 64
1, 356836, Control_c, 0, 64, 63
1, 356851, Control_c, 0, 64, 63
1, 356852, Note_off_c, 0, 30, 60
1, 356866, Control_c, 0, 64, 61
1, 356876, Note_off_c, 0, 66, 52
1, 356881, Control_c, 0, 64, 60
1, 356885, Note_off_c, 0, 78, 58
1, 356893, Note_off_c, 0, 42, 57
1, 356895, Control_c, 0, 64, 58
1, 356910, Control_c, 0, 64, 55
1, 356925, Control_c, 0, 64, 50
1, 356940, Control_c, 0, 64, 43
1, 356955, Control_c, 0, 64, 28
1, 356969, Control_c, 0, 64, 0
1, 356969, End_track
0, 0, End_of_file
